<svg width="464" height="236" viewBox="0 0 464 236" fill="none" xmlns="http://www.w3.org/2000/svg">
<g clip-path="url(#clip0_1129_750)">
<path d="M369.245 110.859C369.088 110.821 368.91 110.803 368.742 110.775C358.126 109.008 326.676 126.428 324.731 133.824C324.706 133.918 324.665 134.016 324.65 134.106C323.818 139.079 322.612 150.781 321.92 157.82C327.445 153.04 332.176 148.268 333.65 145.118C336.514 139.001 361.88 123.094 373.336 122.686L378.541 125.481L379.064 125.134C379.064 125.134 379.473 113.306 369.245 110.859Z" fill="#7E8CDE"/>
<path d="M341.282 99.3799C343.65 101.458 345.817 103.783 349.034 104.477C351.563 105.022 363.175 102.501 364.951 102.882C365.73 101.524 370.565 100.03 372.815 95.2328C375.066 90.4357 379.839 89.6067 380.486 87.54C381.448 84.4725 381.964 79.3715 381.987 75.283C382.061 61.976 381.87 47.9774 363.152 27.2863C352.38 15.3795 321.375 18.1151 310.739 24.1694C288.472 36.8441 290.792 55.3978 294.566 58.7698C294.885 57.9317 295.225 57.0804 295.601 56.2058L296.132 55.8705C298.36 54.4642 299.025 64.7886 300.92 67.2178C306.648 74.5593 311.148 75.3749 310.739 76.5985C310.508 77.2894 316.595 81.6276 316.595 81.6276C316.595 81.6276 318.858 76.4703 323.099 76.6213C323.099 76.6213 329.521 77.3599 330.591 84.418L330.179 89.0139L338.726 96.9958" fill="#3F3F3E"/>
<path d="M316.594 81.6278C314.764 79.4693 310.507 77.2896 310.738 76.5987C311.147 75.3752 306.647 74.5595 300.919 67.2181C299.023 64.7889 298.358 54.4644 296.131 55.8708L295.6 56.206C295.224 57.0807 294.884 57.9319 294.565 58.77C294.322 59.405 294.088 60.0345 293.876 60.6487C291.312 68.07 295.119 75.3366 295.139 82.1946C295.151 86.2459 291.338 91.3554 290.882 93.0215C289.655 97.5079 296.081 99.4387 296.081 101.478C296.081 103.517 301.547 113.14 303.593 118.442C305.639 123.744 309.742 122.161 317.516 122.161C322.374 122.161 328.593 123.581 330.534 127.066C343.147 118.247 361.146 109.428 368.741 110.775C368.741 110.775 365.374 102.973 364.95 102.882C363.174 102.501 349.605 104.741 348.787 102.294C348.322 100.904 345.481 98.1973 343.113 96.1187C342.379 95.4745 336.284 91.8049 330.343 88.4397" fill="#D18679"/>
<path d="M269.297 207.072C261.266 206.479 255.318 201.735 252.343 199.956C249.369 198.177 246.692 199.066 245.205 199.363C244.353 199.533 241.84 199.118 239.85 198.734C238.131 198.401 236.355 198.839 234.995 199.938L226.169 207.072C226.169 207.072 222.303 212.706 223.79 213.892C225.277 215.078 229.144 211.52 229.738 210.334C230.333 209.148 238.364 207.665 240.149 207.665C241.933 207.665 246.395 210.037 245.502 211.52C244.61 213.002 241.338 213.002 235.39 213.299C229.441 213.595 231.226 217.45 230.928 218.932C230.631 220.415 237.769 220.711 240.743 220.118C243.718 219.525 250.559 221.897 254.425 222.49C258.292 223.084 262.159 221.304 267.215 220.711C269.721 220.418 275.001 220.634 279.692 220.926C282.179 217.011 285.417 211.015 287.105 205.743C282.234 206.483 274.472 207.454 269.297 207.072Z" fill="#D18679"/>
<path d="M417.754 172.402C410.966 154.179 392.861 133.405 390.524 131.334C383.159 124.808 378.541 125.48 378.541 125.48L373.335 122.686C361.88 123.094 336.514 139 333.65 145.118C332.175 148.268 327.444 153.04 321.919 157.819C321.189 158.451 315.758 162.084 314.732 162.723C303.611 169.652 288.236 193.809 288.236 199.771C288.236 201.499 287.804 203.557 287.104 205.743C285.416 211.015 282.178 217.011 279.691 220.926C279.073 221.898 278.497 222.756 278.008 223.426C274.735 227.913 276.372 244.227 277.599 247.082C278.826 249.937 265.325 269.514 265.325 269.514C265.325 269.514 255.097 264.62 248.96 267.882C242.823 271.145 244.869 266.659 237.504 263.396C230.14 260.133 235.459 259.725 228.912 259.725C227.89 259.725 227.022 259.758 226.26 259.808C222.145 260.08 221.548 260.949 221.548 260.949C214.738 263.139 211.351 269.444 209.672 274.814C208.225 279.445 208.047 283.381 208.047 283.381C208.047 283.381 233.004 307.037 239.55 312.747C246.096 318.457 279.503 321.841 281.958 321.433C284.413 321.025 306.739 296.729 306.739 296.729C306.739 296.729 309.102 296.024 309.92 302.142C310.738 308.26 307.465 314.786 307.465 314.786L447.452 281.905C448.29 241.535 432.356 211.598 417.754 172.402Z" fill="#7E8CDE"/>
<path d="M212.957 245.859C213.486 246.809 214.952 248.5 216.828 250.481L246.989 238.206L218.732 226.049L202.434 232.98C207.354 235.113 211.206 242.717 212.957 245.859Z" fill="#354A9A"/>
<path d="M216.827 250.481C214.951 248.5 213.485 246.809 212.956 245.859C211.205 242.717 207.353 235.113 202.432 232.98C201.604 232.621 200.748 232.399 199.864 232.399C193.727 232.399 186.362 235.254 186.362 235.254C186.362 235.254 179.816 233.623 179.816 237.294C179.816 237.294 174.088 238.109 174.088 241.78V245.451C174.088 245.451 172.452 251.976 173.27 254.424C174.088 256.871 177.771 258.094 178.18 256.463C178.18 256.463 178.998 253.608 183.498 257.686C184.869 258.929 186.66 260.436 188.635 261.954C193.143 265.421 198.62 268.947 202.318 269.514C204.641 269.87 207.353 272.248 209.672 274.814C211.35 269.444 214.737 263.139 221.547 260.949C221.547 260.949 222.145 260.081 226.259 259.808C223.338 257.033 219.625 253.435 216.827 250.481Z" fill="#D18679"/>
<path d="M186.76 223.431L149.552 213.286L97.4697 230.259C97.8372 232.34 99.2609 234.124 101.3 234.894L135.218 247.707C135.747 247.907 136.333 247.902 136.859 247.692L187.003 227.697C189.016 226.894 188.851 224.001 186.76 223.431Z" fill="#273371"/>
<path d="M248.669 175.442L232.446 26.134C232.018 22.188 228.516 19.2994 224.547 19.6177L36.4279 34.7109C32.1576 35.0536 29.0593 38.9116 29.6581 43.1403L56.7735 234.609C57.4026 239.052 61.9058 241.85 66.1839 240.455L97.4696 230.259L149.551 213.285L244.118 182.466C247.11 181.491 249.008 178.561 248.669 175.442Z" fill="#354A9A"/>
<path d="M243.543 173.325L228.08 31.0037C227.671 27.2424 224.334 24.4889 220.551 24.7924L41.2336 39.1794C37.1631 39.506 34.2098 43.1834 34.7806 47.2143L60.6272 229.724C61.2269 233.959 65.5194 236.626 69.5973 235.297L99.4191 225.578L149.064 209.398L239.206 180.02C242.057 179.091 243.866 176.299 243.543 173.325Z" fill="#E4E8F6"/>
<path d="M315.73 84.0114C315.73 84.0114 317.21 76.3889 323.097 76.6214C328.984 76.854 330.675 83.1732 330.589 84.4181C330.503 85.6631 329.951 92.2699 329.951 92.2699L315.73 84.0114Z" fill="#D18679"/>
<path d="M367.616 110.838C367.459 110.801 367.281 110.783 367.114 110.755C356.497 108.988 325.047 126.407 323.102 133.804C323.077 133.897 323.036 133.996 323.021 134.086C322.189 139.058 320.983 150.761 320.291 157.799C325.816 153.02 330.547 148.248 332.021 145.098C334.885 138.98 360.251 123.074 371.707 122.666L376.913 125.46L377.435 125.113C377.435 125.113 377.844 113.285 367.616 110.838Z" stroke="#3F3F3E" stroke-width="1.11055" stroke-miterlimit="10"/>
<path d="M339.653 99.3599C342.021 101.438 344.188 103.763 347.405 104.457C349.934 105.002 361.546 102.481 363.322 102.862C364.101 101.504 368.936 100.01 371.187 95.2128C373.437 90.4157 378.21 89.5867 378.857 87.52C379.819 84.4525 380.335 79.3514 380.358 75.2629C380.432 61.956 380.241 47.9573 361.523 27.2663C350.751 15.3595 319.746 18.0951 309.11 24.1494C286.843 36.8241 289.163 55.3778 292.937 58.7497C293.257 57.9117 293.596 57.0604 293.972 56.1857L294.503 55.8505C296.731 54.4441 297.396 64.7686 299.291 67.1978C305.019 74.5392 309.519 75.3549 309.11 76.5785C308.879 77.2694 314.966 81.6076 314.966 81.6076C314.966 81.6076 317.229 76.4503 321.47 76.6013C321.47 76.6013 327.892 77.3399 328.962 84.398L328.55 88.9939L337.097 96.9758" fill="#3F3F3E"/>
<path d="M314.389 81.5252C311.729 80.3546 308.878 77.2691 309.109 76.5782C309.518 75.3546 305.018 74.539 299.29 67.1976C297.395 64.7684 296.73 54.4439 294.502 55.8503L293.971 56.1855C293.595 57.0601 293.256 57.9114 292.936 58.7495C292.693 59.3845 292.459 60.014 292.247 60.6282C289.683 68.0495 293.49 75.3161 293.51 82.1741C293.522 86.2254 289.709 91.3349 289.254 93.001C288.026 97.4874 294.452 99.4181 294.452 101.457C294.452 103.497 299.918 113.119 301.964 118.421C304.01 123.723 308.114 122.141 315.887 122.141C320.745 122.141 326.964 123.56 328.906 127.045C341.518 118.227 359.517 109.408 367.112 110.755C367.112 110.755 363.745 102.953 363.321 102.862C361.545 102.481 347.976 104.72 347.158 102.273C346.693 100.883 343.852 98.1767 341.484 96.0982C340.75 95.454 334.655 91.7844 328.714 88.4192" stroke="#3F3F3E" stroke-width="1.11055" stroke-miterlimit="10"/>
<path d="M267.668 207.052C259.638 206.459 253.689 201.715 250.715 199.936C247.74 198.157 245.063 199.046 243.576 199.343C242.724 199.513 240.211 199.098 238.221 198.714C236.502 198.381 234.726 198.819 233.366 199.918L224.54 207.052C224.54 207.052 220.674 212.686 222.161 213.872C223.648 215.058 227.515 211.5 228.11 210.314C228.704 209.128 236.735 207.645 238.52 207.645C240.304 207.645 244.766 210.017 243.874 211.5C242.981 212.982 239.709 212.982 233.761 213.279C227.812 213.575 229.597 217.43 229.299 218.912C229.002 220.395 236.14 220.691 239.115 220.098C242.089 219.505 248.93 221.877 252.797 222.47C256.663 223.064 260.53 221.284 265.586 220.691C268.092 220.398 273.372 220.614 278.063 220.906C280.55 216.991 283.788 210.995 285.476 205.723C280.605 206.463 272.843 207.434 267.668 207.052Z" stroke="#3F3F3E" stroke-width="1.11055" stroke-miterlimit="10"/>
<path d="M416.125 172.382C409.337 154.159 391.232 133.384 388.895 131.313C381.53 124.788 376.912 125.46 376.912 125.46L371.706 122.666C360.251 123.074 334.885 138.98 332.021 145.098C330.546 148.248 325.815 153.02 320.29 157.799C319.56 158.431 314.129 162.064 313.103 162.703C301.982 169.632 286.607 193.789 286.607 199.751C286.607 201.479 286.175 203.537 285.475 205.723C283.787 210.995 280.549 216.991 278.062 220.906C277.444 221.878 276.868 222.736 276.379 223.406C273.106 227.893 274.743 244.207 275.97 247.062C277.197 249.917 263.696 269.494 263.696 269.494C263.696 269.494 253.468 264.6 247.331 267.862C241.194 271.125 243.24 266.639 235.875 263.376C228.511 260.113 233.83 259.705 227.284 259.705C226.261 259.705 225.393 259.738 224.631 259.788C220.516 260.06 219.919 260.929 219.919 260.929C213.109 263.119 209.722 269.424 208.043 274.794C206.596 279.425 206.418 283.361 206.418 283.361C206.418 283.361 231.375 307.017 237.921 312.727C244.467 318.436 277.874 321.821 280.329 321.413C282.784 321.005 305.11 296.709 305.11 296.709C305.11 296.709 307.473 296.004 308.291 302.122C309.109 308.24 305.836 314.766 305.836 314.766L445.823 281.885C446.661 241.515 430.727 211.578 416.125 172.382Z" stroke="#3F3F3E" stroke-width="1.11055" stroke-miterlimit="10"/>
<path d="M211.328 245.838C211.858 246.788 213.323 248.479 215.199 250.46L245.36 238.185L217.103 226.028L200.805 232.96C205.725 235.092 209.577 242.697 211.328 245.838Z" stroke="#3F3F3E" stroke-width="1.11055" stroke-miterlimit="10"/>
<path d="M215.198 250.461C213.322 248.48 211.856 246.789 211.327 245.839C209.576 242.697 205.724 235.093 200.803 232.96C199.975 232.601 199.119 232.379 198.235 232.379C192.098 232.379 184.733 235.234 184.733 235.234C184.733 235.234 178.187 233.603 178.187 237.274C178.187 237.274 172.459 238.089 172.459 241.76V245.431C172.459 245.431 170.823 251.956 171.641 254.404C172.459 256.851 176.142 258.074 176.551 256.443C176.551 256.443 177.369 253.588 181.869 257.666C183.24 258.909 185.031 260.416 187.006 261.934C191.514 265.401 196.991 268.927 200.689 269.494C203.012 269.85 205.724 272.228 208.043 274.794C209.721 269.424 213.108 263.119 219.918 260.929C219.918 260.929 220.516 260.06 224.63 259.788C221.709 257.013 217.997 253.415 215.198 250.461Z" stroke="#3F3F3E" stroke-width="1.11055" stroke-miterlimit="10"/>
<path d="M185.131 223.41L147.923 213.265L95.8408 230.239C96.2082 232.32 97.632 234.103 99.6708 234.874L133.589 247.687C134.119 247.887 134.704 247.882 135.23 247.672L185.374 227.677C187.387 226.874 187.222 223.98 185.131 223.41Z" stroke="#3F3F3E" stroke-width="1.11055" stroke-miterlimit="10"/>
<path d="M247.04 175.422L230.817 26.114C230.389 22.168 226.887 19.2793 222.918 19.5977L34.799 34.6909C30.5287 35.0336 27.4304 38.8915 28.0292 43.1203L55.1446 234.589C55.7737 239.032 60.2768 241.83 64.555 240.435L95.8407 230.239L147.923 213.265L242.489 182.446C245.481 181.471 247.379 178.541 247.04 175.422Z" stroke="#3F3F3E" stroke-width="1.11055" stroke-miterlimit="10"/>
<path d="M241.915 173.305L226.451 30.9837C226.043 27.2224 222.705 24.4689 218.922 24.7724L39.6047 39.1593C35.5342 39.486 32.5809 43.1634 33.1517 47.1943L58.9983 229.704C59.598 233.939 63.8905 236.606 67.9684 235.277L97.7902 225.558L147.435 209.378L237.577 180C240.428 179.071 242.238 176.279 241.915 173.305Z" stroke="#3F3F3E" stroke-width="1.11055" stroke-miterlimit="10"/>
<path d="M200.19 187.943L102.471 218.869C95.9915 220.919 90.1507 218.239 89.5204 212.847L79.089 123.625C78.4487 118.148 83.3924 112.726 90.0324 111.537L190.061 93.6341C195.083 92.7352 199.508 95.8111 200.007 100.49L208.143 176.789C208.636 181.405 205.103 186.389 200.19 187.943Z" fill="white" stroke="#3F3F3E" stroke-width="1.11055" stroke-miterlimit="10"/>
<path d="M145.342 135.113L96.66 145.988L96.041 140.636L144.781 130.082L145.342 135.113Z" fill="white" stroke="#3F3F3E" stroke-width="0.450283" stroke-miterlimit="10" stroke-linecap="round"/>
<path d="M112.13 195.906L108.491 196.966L108.172 194.194L111.813 193.147L112.13 195.906Z" fill="white" stroke="#3F3F3E" stroke-width="0.450283" stroke-miterlimit="10" stroke-linecap="round"/>
<path d="M116.262 193.568L180.616 174.923" stroke="#3F3F3E" stroke-width="0.450283" stroke-miterlimit="10" stroke-linecap="round"/>
<path d="M202.89 177.971L106.272 207.282L105.662 202.002L202.392 173.322L202.89 177.971Z" fill="#7E8CDE"/>
<path d="M147.623 191.966L168.363 185.75" stroke="#3F3F3E" stroke-width="0.450283" stroke-miterlimit="10" stroke-linecap="round"/>
<path d="M93.6133 119.651L119.557 114.726" stroke="#3F3F3E" stroke-width="0.900553" stroke-miterlimit="10" stroke-linecap="round"/>
<path d="M107.775 188.89L137.37 180.582" stroke="#3F3F3E" stroke-width="0.450283" stroke-miterlimit="10" stroke-linecap="round"/>
<path d="M95.1211 132.688L149.244 121.517" stroke="#3F3F3E" stroke-width="0.450283" stroke-miterlimit="10" stroke-linecap="round"/>
<path d="M122.963 114.08L153.313 108.318" stroke="#706F6F" stroke-width="0.450283" stroke-miterlimit="10" stroke-linecap="round"/>
<path d="M94.6992 129.038L115.893 124.761" stroke="#3F3F3E" stroke-width="0.450283" stroke-miterlimit="10" stroke-linecap="round"/>
<path d="M95.6777 137.493L108.783 134.708" stroke="#3F3F3E" stroke-width="0.450283" stroke-miterlimit="10" stroke-linecap="round"/>
<path d="M146.616 146.526L98.065 158.126L97.4473 152.785L146.056 141.504L146.616 146.526Z" fill="white" stroke="#3F3F3E" stroke-width="0.450283" stroke-miterlimit="10" stroke-linecap="round"/>
<path d="M97.084 149.648L110.153 146.668" stroke="#3F3F3E" stroke-width="0.450283" stroke-miterlimit="10" stroke-linecap="round"/>
<path d="M147.886 157.918L99.4661 170.24L98.8496 164.91L147.327 152.905L147.886 157.918Z" fill="white" stroke="#3F3F3E" stroke-width="0.450283" stroke-miterlimit="10" stroke-linecap="round"/>
<path d="M98.4863 161.779L111.519 158.604" stroke="#3F3F3E" stroke-width="0.450283" stroke-miterlimit="10" stroke-linecap="round"/>
<path d="M149.151 169.287L100.862 182.328L100.247 177.009L148.594 164.284L149.151 169.287Z" fill="white" stroke="#3F3F3E" stroke-width="0.450283" stroke-miterlimit="10" stroke-linecap="round"/>
<path d="M99.8867 173.885L119.046 168.92" stroke="#3F3F3E" stroke-width="0.450283" stroke-miterlimit="10" stroke-linecap="round"/>
<path d="M143.983 157.057L145.111 155.813L142.643 156.432L143.983 157.057Z" fill="#3F3F3E"/>
<path d="M145.277 168.629L146.401 167.368L143.939 168.024L145.277 168.629Z" fill="#3F3F3E"/>
<path d="M142.692 145.506L143.823 144.279L141.348 144.861L142.692 145.506Z" fill="#3F3F3E"/>
<path d="M141.403 133.981L142.537 132.771L140.055 133.316L141.403 133.981Z" fill="#3F3F3E"/>
<path d="M189.096 84.675L88.8468 101.329C82.1913 102.434 76.1944 98.889 75.5514 93.389L70.8688 53.337C70.2208 47.7953 75.2454 42.7865 81.9904 42.1637L183.523 32.788C188.617 32.3175 193.103 35.7745 193.607 40.4999L197.251 74.6711C197.752 79.3662 194.129 83.8388 189.096 84.675Z" fill="white" stroke="#3F3F3E" stroke-width="1.19683" stroke-miterlimit="10"/>
<path d="M157.583 46.1671C157.583 46.1671 148.683 47.1208 153.183 59.1373C157.636 71.0295 160.005 72.2983 165.394 69.1432C170.703 66.0346 184.664 62.1966 179.145 49.6917C173.549 37.0145 157.583 46.1671 157.583 46.1671Z" fill="#E4E8F6"/>
<path d="M82.3691 56.1715L144.866 49.3262" stroke="#3F3F3E" stroke-width="3.38455" stroke-miterlimit="10" stroke-linecap="round"/>
<path d="M83.498 62.9283L110.428 59.7515" stroke="#3F3F3E" stroke-width="3.38455" stroke-miterlimit="10" stroke-linecap="round"/>
<path d="M83.8633 69.8597L98.4122 68.019" stroke="#3F3F3E" stroke-width="0.450283" stroke-miterlimit="10" stroke-linecap="round"/>
<path d="M123.398 72.6848L85.07 77.9207L84.4395 72.4835L122.814 67.5015L123.398 72.6848Z" fill="white" stroke="#3F3F3E" stroke-width="0.450283" stroke-miterlimit="10" stroke-linecap="round"/>
<path d="M89.9042 83.0391L86.0832 83.5884L85.752 80.7313L89.5754 80.1953L89.9042 83.0391Z" fill="white" stroke="#3F3F3E" stroke-width="0.450283" stroke-miterlimit="10" stroke-linecap="round"/>
<path d="M94.2422 81.2657L114.578 78.3716" stroke="#3F3F3E" stroke-width="0.450283" stroke-miterlimit="10" stroke-linecap="round"/>
<path d="M187.507 79.184L87.0575 95.0588L86.4287 89.6371L186.995 74.4268L187.507 79.184Z" fill="#7E8CDE"/>
<path d="M131.852 85.3596L153.314 82.041" stroke="white" stroke-width="0.450283" stroke-miterlimit="10" stroke-linecap="round"/>
<path d="M179.561 58.6353C178.301 59.2489 178.398 60.142 178.301 61.1897C178.205 62.2377 179.706 63.2014 179.706 63.2014C179.706 63.2014 181.591 63.2707 181.221 60.4848C181.221 60.4848 180.755 58.7406 179.561 58.6353Z" fill="white" stroke="#3F3F3E" stroke-width="0.381297" stroke-linecap="round" stroke-linejoin="round"/>
<path d="M169.568 61.614C169.371 60.4608 170.768 59.4971 170.768 59.4971L172.468 59.4109C172.384 58.6392 170.952 58.5591 170.952 58.5591L163.514 59.0352L163.149 59.081L163.147 59.0587L162.248 59.1163L160.714 59.2863L158.505 59.531L158.442 59.3599L157.018 59.4511C152.06 63.2209 156.568 66.8378 156.568 66.8378L171.201 65.453C171.316 65.4059 171.456 65.3135 171.601 65.201C172.057 64.8465 172.571 64.2887 172.571 64.2887L170.575 64.295C170.575 64.295 169.765 62.7667 169.568 61.614Z" fill="white" stroke="#3F3F3E" stroke-width="0.381297" stroke-miterlimit="10" stroke-linecap="round"/>
<path d="M172.664 64.2485L172.572 64.2891C172.572 64.2891 172.608 64.2753 172.664 64.2485Z" fill="white" stroke="#3F3F3E" stroke-width="0.381297" stroke-miterlimit="10" stroke-linecap="round"/>
<path d="M172.468 59.4111L170.768 59.4973C170.768 59.4973 169.371 60.461 169.568 61.6142C169.765 62.7669 170.575 64.2952 170.575 64.2952L172.571 64.2889L172.663 64.2485C172.98 64.0984 174.038 63.4813 174.222 61.8546C174.23 61.7854 174.229 61.7219 174.231 61.6563C174.294 59.9065 172.468 59.4111 172.468 59.4111Z" fill="white" stroke="#3F3F3E" stroke-width="0.381297" stroke-miterlimit="10" stroke-linecap="round"/>
<path d="M178.3 61.1897C178.397 60.142 178.3 59.249 179.56 58.6353L177.285 58.9259C177.285 58.9259 176.475 59.8724 176.586 60.8956C176.696 61.9186 176.696 63.2157 177.623 63.3509C178.548 63.4858 179.705 63.2013 179.705 63.2013C179.705 63.2013 178.204 62.2377 178.3 61.1897Z" fill="white" stroke="#3F3F3E" stroke-width="0.381297" stroke-linecap="round" stroke-linejoin="round"/>
<path d="M175.322 57.6678L176.199 57.5703C175.852 57.5825 175.557 57.5899 175.314 57.5938L175.322 57.6678Z" fill="white" stroke="#3F3F3E" stroke-width="0.381297" stroke-miterlimit="10" stroke-linecap="round"/>
<path d="M164.843 49.981C165.835 51.1171 165.653 54.45 165.653 54.45C165.653 54.45 168.051 54.0682 169.22 53.8026C169.884 53.6516 170.847 53.4563 171.801 53.2697C171.391 53.2952 171.032 53.3905 171.032 53.3905C171.032 53.3905 171.651 51.23 170.668 50.0386C169.682 48.8441 167.147 48.6049 167.005 47.9648L165.152 48.1705L165.144 48.1423L161.623 48.9038C162.628 48.9869 164.192 49.2347 164.843 49.981Z" fill="white" stroke="#3F3F3E" stroke-width="0.381297" stroke-miterlimit="10" stroke-linecap="round"/>
<path d="M159.59 49.3435L159.629 49.4569C159.661 49.4043 159.694 49.3574 159.728 49.3135L159.59 49.3435Z" fill="white" stroke="#3F3F3E" stroke-width="0.381297" stroke-miterlimit="10" stroke-linecap="round"/>
<path d="M164.482 46.0077L163.228 45.8136C163.228 45.8136 163.66 45.1086 162.978 44.8517C162.295 44.5943 162.555 43.6436 162.555 43.6436L159.129 44.3989L159.273 45.0462L157.826 45.2658L158.626 45.8441L158.881 46.6553L160.554 46.0349L164.482 46.0077Z" fill="white" stroke="#3F3F3E" stroke-width="0.381297" stroke-miterlimit="10" stroke-linecap="round"/>
<path d="M160.716 48.8614C160.716 48.8614 161.093 48.8603 161.622 48.904L165.143 48.1425L164.481 46.0078L160.553 46.0349L158.88 46.6554L159.189 47.6394L159.492 49.0639L159.59 49.3437L159.728 49.3138C160.164 48.7469 160.716 48.8614 160.716 48.8614Z" fill="white" stroke="#3F3F3E" stroke-width="0.381297" stroke-miterlimit="10" stroke-linecap="round"/>
<path d="M172.559 55.1049L172.373 54.5996C172.373 54.5996 173.297 53.9671 172.822 53.5033C172.594 53.2814 172.177 53.2465 171.802 53.2699C170.848 53.4565 169.885 53.6518 169.221 53.8028C168.052 54.0684 164.213 54.7354 161.591 55.1829L161.13 55.2975L160.742 56.1514L171.804 55.1718L172.559 55.1049Z" fill="white" stroke="#3F3F3E" stroke-width="0.381297" stroke-miterlimit="10" stroke-linecap="round"/>
<path d="M176.226 54.9761L174.321 54.9487L172.557 55.105L171.802 55.1718L160.74 56.1514L158.305 56.367L158.515 57.6036L159.138 57.6508C159.203 57.1174 159.67 56.6661 160.28 56.5918C160.98 56.5067 161.602 56.9493 161.671 57.5801C161.74 58.2108 161.23 58.7926 160.531 58.8799C159.847 58.9651 159.24 58.545 159.146 57.9368L159.103 58.2615L158.084 58.3875L158.442 59.3602L158.505 59.5313L160.713 59.2866L162.247 59.1166L163.146 59.059L163.142 59.0175L163.109 58.7118L163.028 57.974L167.672 57.3982L167.743 58.0481L167.792 58.4986L167.544 58.5298L171.048 58.1414L171.014 57.8224L170.945 57.1884L175.212 56.6582L175.314 57.5941C175.556 57.5903 175.851 57.5829 176.199 57.5708L176.365 57.5524C176.365 57.5524 177.742 56.0204 176.226 54.9761Z" fill="white" stroke="#3F3F3E" stroke-width="0.381297" stroke-linecap="round" stroke-linejoin="round"/>
<path d="M164.844 49.9809C164.192 49.2345 162.629 48.9867 161.624 48.9036C161.094 48.8599 160.718 48.861 160.718 48.861C160.718 48.861 160.165 48.7466 159.729 49.3134C159.696 49.3573 159.662 49.404 159.63 49.4563C159.361 49.8973 159.163 50.6533 159.221 51.9446C159.35 54.7876 160.574 55.2199 160.99 55.2849C161.075 55.2983 161.129 55.2971 161.129 55.2971L161.59 55.1826L165.654 54.4498C165.654 54.4498 165.836 51.117 164.844 49.9809Z" fill="white" stroke="#3F3F3E" stroke-width="0.381297" stroke-miterlimit="10" stroke-linecap="round"/>
<path d="M160.281 56.5915C159.671 56.6657 159.204 57.1171 159.139 57.6505C159.129 57.7296 159.128 57.8103 159.137 57.8921C159.138 57.9075 159.144 57.9213 159.147 57.9365C159.241 58.5447 159.848 58.9648 160.532 58.8796C161.231 58.7923 161.74 58.2105 161.671 57.5798C161.602 56.949 160.98 56.5064 160.281 56.5915Z" fill="white" stroke="#3F3F3E" stroke-width="0.381297" stroke-miterlimit="10" stroke-linecap="round"/>
<path d="M163.147 59.0586L163.514 59.0351L167.544 58.5293L163.143 59.017L163.147 59.0586Z" fill="white" stroke="#3F3F3E" stroke-width="0.381297" stroke-miterlimit="10" stroke-linecap="round"/>
<path d="M163.151 59.0811L163.516 59.0352L163.148 59.0587L163.151 59.0811Z" fill="white" stroke="#3F3F3E" stroke-width="0.381297" stroke-miterlimit="10" stroke-linecap="round"/>
<path d="M163.029 57.9737L163.11 58.7115L163.143 59.0172L167.545 58.5295L167.794 58.4983L167.744 58.0478L167.674 57.3979L163.029 57.9737Z" fill="white" stroke="#3F3F3E" stroke-width="0.381297" stroke-miterlimit="10" stroke-linecap="round"/>
<path d="M177.626 63.351C176.698 63.2157 176.699 61.9187 176.588 60.8956C176.477 59.8724 177.287 58.9259 177.287 58.9259L179.562 58.6353C179.562 58.6353 178.668 57.4568 176.997 57.5377C176.703 57.5519 176.444 57.562 176.2 57.5705L175.323 57.6677L171.05 58.1412L167.546 58.5295L163.516 59.0353L170.953 58.5591C170.953 58.5591 172.386 58.6392 172.47 59.411C172.47 59.411 174.295 59.9063 174.233 61.6561C174.231 61.7217 174.231 61.7852 174.224 61.8544C174.039 63.4812 172.981 64.0982 172.665 64.2483C172.608 64.275 172.573 64.2887 172.573 64.2887C172.573 64.2887 172.059 64.8465 171.602 65.201L178.682 64.0505C178.682 64.0505 179.707 63.8473 179.707 63.2014C179.707 63.2014 178.551 63.4859 177.626 63.351Z" fill="white" stroke="#3F3F3E" stroke-width="0.381297" stroke-miterlimit="10" stroke-linecap="round"/>
<path d="M170.945 57.1884L171.014 57.8224L171.049 58.1414L175.322 57.6679L175.314 57.5941L175.213 56.6582L170.945 57.1884Z" fill="white" stroke="#3F3F3E" stroke-width="0.381297" stroke-miterlimit="10" stroke-linecap="round"/>
<path d="M172.468 59.4111C172.468 59.4111 170.97 60.3318 170.976 61.0439C170.981 61.7734 170.635 63.8661 172.571 64.2889" fill="white"/>
<path d="M172.468 59.4111C172.468 59.4111 170.97 60.3318 170.976 61.0439C170.981 61.7734 170.635 63.8661 172.571 64.2889" stroke="#3F3F3E" stroke-width="0.381297" stroke-miterlimit="10" stroke-linecap="round"/>
<path d="M171.525 38.4933L183.812 37.4375" stroke="#3F3F3E" stroke-width="0.450283" stroke-miterlimit="10" stroke-linecap="round"/>
<path d="M120.224 71.3813L121.418 70.2422L118.807 70.5899L120.224 71.3813Z" fill="#3F3F3E"/>
<path d="M309.108 76.5786L287.919 80.8888C287.919 80.8888 286.741 91.4591 290.04 91.4591" stroke="#3F3F3E" stroke-width="1.11055" stroke-miterlimit="10"/>
<path d="M298.113 110.024C298.113 110.024 302.53 110.015 302.53 108.606" stroke="#3F3F3E" stroke-width="1.11055" stroke-miterlimit="10"/>
<path d="M317.741 93.2782C317.741 93.2782 318.746 96.1143 321.088 96.9485C325.955 98.6812 334.221 84.5677 324.603 77.9295C318.076 73.4249 314.514 82.0631 314.514 82.0631" stroke="#3F3F3E" stroke-width="1.11055" stroke-miterlimit="10"/>
<path d="M319.697 81.1236C319.697 81.1236 324.101 77.6988 324.101 83.1014C324.101 88.5039 323.445 92.4507 321.088 91.2762" stroke="#3F3F3E" stroke-width="1.11055" stroke-miterlimit="10"/>
<path d="M335.426 234.807C335.426 234.807 337.991 225.367 341.784 219.064C345.577 212.762 343.681 210.241 346.209 210.871" stroke="#3F3F3E" stroke-width="1.11055" stroke-miterlimit="10"/>
<path d="M312.98 163.604C312.98 163.604 339.533 169.276 344.591 176.838" stroke="#3F3F3E" stroke-width="1.11055" stroke-miterlimit="10"/>
<path d="M292.081 185.831C292.081 185.831 310.453 188.183 316.775 192.594L311.085 215.283L283.906 205.287C283.906 205.287 289.518 188.898 292.081 185.831Z" fill="#5C6BC4" stroke="#3F3F3E" stroke-width="1.19683" stroke-miterlimit="10"/>
<path d="M299.131 176.759L308.74 179.292L316.191 171.122L307.25 167.904" stroke="#3F3F3E" stroke-width="1.11055" stroke-miterlimit="10"/>
<path d="M261.549 221.797C261.549 221.797 257.284 227.595 247.978 227.209C238.672 226.822 220.447 220.637 220.447 219.091C220.447 217.545 222.159 213.872 222.159 213.872" stroke="#3F3F3E" stroke-width="1.19683" stroke-miterlimit="10"/>
<path d="M372.78 57.2786L376.216 82.9384C376.458 84.752 377.407 86.3977 378.857 87.5199L381.618 89.6573C383.125 90.8241 384.088 92.5544 384.283 94.4467L384.8 99.4459C384.977 101.158 385.783 102.744 387.064 103.899L392.424 108.733C393.36 109.578 394.05 110.66 394.419 111.864L396.13 117.443C396.552 118.818 397.39 120.03 398.53 120.911L403.865 125.039C405.313 126.159 406.266 127.795 406.509 129.605C406.69 130.956 406.823 132.498 406.913 133.748C407.026 135.334 407.674 136.834 408.759 138.001L413.745 143.362C415.243 144.972 415.891 147.193 415.495 149.354L415.48 149.435C415.081 151.604 415.736 153.833 417.245 155.445C419.11 157.437 419.639 160.33 418.599 162.85L417.574 165.336C416.671 167.524 416.943 170.02 418.298 171.963L423.033 178.754C424.902 181.436 424.653 185.052 422.433 187.453L414.599 193.215C412.996 194.949 411.037 192.368 410.915 190.013L408.916 173.598C408.403 171.648 401.879 171.868 400.067 170.973L398.077 169.99C395.525 168.729 393.996 166.051 394.211 163.22L394.369 161.151C394.56 158.639 393.376 156.22 391.273 154.824L388.262 152.825C386.574 151.704 385.458 149.908 385.202 147.903L384.32 140.974C384.097 139.226 383.218 137.626 381.86 136.498L376.473 132.023C375.123 130.901 374.247 129.315 374.017 127.579L373.357 122.571C373.128 120.843 372.259 119.263 370.92 118.143L367.739 115.481C367.407 115.203 367.05 114.957 366.672 114.745L361.442 111.813C361.285 111.725 361.132 111.646 360.969 111.571C358.783 110.558 342.01 102.711 339.653 99.3598C328.61 83.6623 348.471 63.5156 361.388 52.8355C365.619 49.3374 372.053 51.8472 372.78 57.2786Z" fill="#3F3F3E"/>
<path d="M405.588 171.028C405.588 171.028 413.781 168.397 415.022 162.809C415.022 162.809 417.023 161.451 417.573 169.939C417.573 169.939 409.432 179.029 407.185 177.65C407.185 177.65 401.842 174.668 405.588 171.028Z" fill="#3F3F3E"/>
</g>
<defs>
<clipPath id="clip0_1129_750">
<rect width="464.001" height="236" fill="white"/>
</clipPath>
</defs>
</svg>
