<svg width="464" height="236" viewBox="0 0 464 236" fill="none" xmlns="http://www.w3.org/2000/svg">
<g clip-path="url(#clip0_1129_750)">
<path d="M369.244 110.858C369.087 110.821 368.909 110.803 368.742 110.775C358.125 109.008 326.676 126.428 324.73 133.824C324.706 133.917 324.664 134.016 324.649 134.106C323.818 139.079 322.612 150.781 321.919 157.819C327.445 153.04 332.175 148.268 333.65 145.118C336.514 139 361.88 123.094 373.335 122.686L378.541 125.48L379.063 125.133C379.063 125.133 379.472 113.306 369.244 110.858Z" fill="#7E8CDE"/>
<path d="M341.282 99.3799C343.65 101.458 345.817 103.783 349.034 104.477C351.563 105.022 363.174 102.501 364.95 102.882C365.729 101.524 370.564 100.03 372.815 95.2328C375.066 90.4357 379.838 89.6067 380.486 87.54C381.447 84.4725 381.963 79.3715 381.986 75.283C382.061 61.976 381.869 47.9774 363.151 27.2863C352.38 15.3795 321.375 18.1151 310.738 24.1694C288.471 36.8441 290.792 55.3978 294.565 58.7698C294.885 57.9317 295.225 57.0804 295.601 56.2058L296.132 55.8705C298.359 54.4642 299.024 64.7886 300.919 67.2178C306.647 74.5593 311.148 75.3749 310.738 76.5985C310.507 77.2894 316.595 81.6276 316.595 81.6276C316.595 81.6276 318.858 76.4703 323.099 76.6213C323.099 76.6213 329.52 77.3599 330.59 84.418L330.179 89.0139L338.725 96.9958" fill="#3F3F3E"/>
<path d="M316.595 81.6276C314.764 79.469 310.507 77.2894 310.738 76.5985C311.147 75.3749 306.647 74.5593 300.919 67.2178C299.024 64.7886 298.359 54.4642 296.131 55.8705L295.6 56.2058C295.224 57.0804 294.885 57.9317 294.565 58.7698C294.323 59.4047 294.089 60.0343 293.877 60.6485C291.312 68.0698 295.119 75.3363 295.14 82.1943C295.152 86.2457 291.339 91.3552 290.883 93.0212C289.655 97.5076 296.081 99.4384 296.081 101.478C296.081 103.517 301.548 113.139 303.593 118.442C305.639 123.744 309.743 122.161 317.516 122.161C322.374 122.161 328.593 123.581 330.535 127.066C343.147 118.247 361.146 109.428 368.742 110.775C368.742 110.775 365.374 102.973 364.95 102.882C363.174 102.501 349.606 104.741 348.787 102.293C348.322 100.903 345.481 98.197 343.113 96.1185C342.38 95.4743 336.285 91.8046 330.343 88.4395" fill="#D18679"/>
<path d="M269.297 207.072C261.266 206.479 255.317 201.735 252.343 199.956C249.369 198.177 246.692 199.067 245.204 199.363C244.352 199.533 241.84 199.119 239.85 198.734C238.131 198.402 236.355 198.839 234.995 199.938L226.169 207.072C226.169 207.072 222.302 212.706 223.789 213.892C225.276 215.078 229.143 211.52 229.738 210.334C230.333 209.148 238.364 207.665 240.148 207.665C241.933 207.665 246.394 210.037 245.502 211.52C244.61 213.002 241.338 213.002 235.389 213.299C229.44 213.595 231.225 217.45 230.928 218.933C230.63 220.415 237.769 220.712 240.743 220.119C243.717 219.526 250.558 221.898 254.425 222.491C258.292 223.084 262.158 221.305 267.215 220.712C269.72 220.418 275.001 220.634 279.691 220.926C282.179 217.012 285.417 211.015 287.105 205.743C282.234 206.483 274.471 207.454 269.297 207.072Z" fill="#D18679"/>
<path d="M417.755 172.403C410.966 154.18 392.861 133.405 390.524 131.334C383.16 124.808 378.541 125.48 378.541 125.48L373.336 122.686C361.88 123.094 336.514 139 333.65 145.118C332.176 148.268 327.445 153.04 321.92 157.819C321.19 158.451 315.758 162.084 314.733 162.723C303.611 169.652 288.237 193.81 288.237 199.771C288.237 201.499 287.804 203.558 287.104 205.743C285.416 211.015 282.178 217.011 279.691 220.926C279.074 221.898 278.497 222.757 278.009 223.427C274.736 227.913 276.372 244.227 277.599 247.082C278.827 249.937 265.326 269.514 265.326 269.514C265.326 269.514 255.097 264.62 248.96 267.883C242.823 271.146 244.869 266.659 237.505 263.396C230.14 260.133 235.459 259.726 228.913 259.726C227.89 259.726 227.022 259.758 226.26 259.808C222.146 260.08 221.549 260.949 221.549 260.949C214.738 263.139 211.351 269.444 209.673 274.814C208.225 279.445 208.047 283.381 208.047 283.381C208.047 283.381 233.004 307.037 239.55 312.747C246.096 318.457 279.504 321.841 281.958 321.433C284.413 321.025 306.739 296.729 306.739 296.729C306.739 296.729 309.102 296.025 309.921 302.143C310.739 308.26 307.466 314.786 307.466 314.786L447.452 281.905C448.29 241.535 432.356 211.599 417.755 172.403Z" fill="#7E8CDE"/>
<path d="M212.956 245.859C213.486 246.809 214.952 248.5 216.828 250.481L246.988 238.206L218.732 226.049L202.433 232.98C207.354 235.113 211.206 242.717 212.956 245.859Z" fill="#354A9A"/>
<path d="M216.827 250.481C214.951 248.5 213.486 246.809 212.956 245.859C211.205 242.717 207.353 235.113 202.433 232.98C201.604 232.621 200.749 232.399 199.864 232.399C193.727 232.399 186.363 235.254 186.363 235.254C186.363 235.254 179.817 233.623 179.817 237.294C179.817 237.294 174.089 238.109 174.089 241.78V245.451C174.089 245.451 172.452 251.976 173.271 254.424C174.089 256.871 177.771 258.094 178.18 256.463C178.18 256.463 178.998 253.608 183.499 257.686C184.87 258.929 186.661 260.436 188.635 261.954C193.143 265.421 198.62 268.947 202.319 269.514C204.641 269.87 207.353 272.248 209.672 274.814C211.351 269.444 214.737 263.139 221.548 260.949C221.548 260.949 222.145 260.081 226.26 259.808C223.339 257.033 219.626 253.435 216.827 250.481Z" fill="#D18679"/>
<path d="M186.76 223.43L149.552 213.285L97.4702 230.259C97.8376 232.34 99.2613 234.124 101.3 234.894L135.218 247.707C135.748 247.907 136.333 247.902 136.859 247.692L187.003 227.697C189.016 226.894 188.852 224.001 186.76 223.43Z" fill="#273371"/>
<path d="M248.669 175.442L232.447 26.134C232.018 22.188 228.516 19.2994 224.548 19.6177L36.4284 34.7109C32.1581 35.0536 29.0597 38.9116 29.6586 43.1403L56.774 234.609C57.4031 239.052 61.9062 241.85 66.1844 240.455L97.47 230.259L149.552 213.285L244.119 182.466C247.11 181.491 249.008 178.561 248.669 175.442Z" fill="#354A9A"/>
<path d="M243.544 173.325L228.081 31.0037C227.672 27.2424 224.334 24.4889 220.551 24.7924L41.2341 39.1794C37.1636 39.506 34.2103 43.1834 34.7811 47.2143L60.6277 229.724C61.2274 233.959 65.5199 236.626 69.5978 235.297L99.4196 225.578L149.064 209.398L239.206 180.02C242.058 179.091 243.867 176.299 243.544 173.325Z" fill="#E4E8F6"/>
<path d="M315.73 84.0114C315.73 84.0114 317.211 76.3889 323.098 76.6214C328.985 76.854 330.675 83.1732 330.589 84.4181C330.504 85.6631 329.951 92.2699 329.951 92.2699L315.73 84.0114Z" fill="#D18679"/>
<path d="M367.615 110.838C367.459 110.801 367.28 110.783 367.113 110.755C356.497 108.988 325.047 126.408 323.101 133.804C323.077 133.897 323.035 133.996 323.02 134.086C322.189 139.059 320.983 150.761 320.291 157.799C325.816 153.02 330.546 148.248 332.021 145.098C334.885 138.98 360.251 123.074 371.707 122.666L376.912 125.46L377.434 125.113C377.434 125.113 377.844 113.285 367.615 110.838Z" stroke="#3F3F3E" stroke-width="1.11055" stroke-miterlimit="10"/>
<path d="M339.653 99.3599C342.021 101.438 344.188 103.763 347.405 104.457C349.934 105.002 361.545 102.481 363.321 102.862C364.101 101.504 368.935 100.01 371.186 95.2128C373.437 90.4157 378.209 89.5867 378.857 87.52C379.819 84.4525 380.335 79.3514 380.357 75.2629C380.432 61.956 380.24 47.9573 361.522 27.2663C350.751 15.3595 319.746 18.0951 309.11 24.1494C286.842 36.8241 289.163 55.3778 292.936 58.7497C293.256 57.9117 293.596 57.0604 293.972 56.1857L294.503 55.8505C296.73 54.4441 297.395 64.7686 299.29 67.1978C305.018 74.5393 309.519 75.3549 309.109 76.5785C308.878 77.2694 314.966 81.6076 314.966 81.6076C314.966 81.6076 317.229 76.4503 321.47 76.6013C321.47 76.6013 327.891 77.3399 328.961 84.398L328.55 88.9939L337.096 96.9758" fill="#3F3F3E"/>
<path d="M314.389 81.5255C311.729 80.3548 308.878 77.2694 309.109 76.5785C309.519 75.3549 305.018 74.5392 299.29 67.1978C297.395 64.7686 296.73 54.4441 294.503 55.8505L293.972 56.1857C293.596 57.0604 293.256 57.9117 292.936 58.7497C292.694 59.3847 292.46 60.0143 292.248 60.6284C289.683 68.0498 293.491 75.3163 293.511 82.1743C293.523 86.2256 289.71 91.3351 289.254 93.0012C288.027 97.4876 294.452 99.4184 294.452 101.458C294.452 103.497 299.919 113.119 301.965 118.422C304.01 123.724 308.114 122.141 315.887 122.141C320.746 122.141 326.964 123.561 328.906 127.045C341.518 118.227 359.518 109.408 367.113 110.755C367.113 110.755 363.746 102.953 363.321 102.862C361.545 102.481 347.977 104.721 347.158 102.273C346.694 100.883 343.852 98.177 341.485 96.0985C340.751 95.4542 334.656 91.7846 328.714 88.4194" stroke="#3F3F3E" stroke-width="1.11055" stroke-miterlimit="10"/>
<path d="M267.668 207.052C259.637 206.459 253.688 201.715 250.714 199.936C247.74 198.157 245.063 199.046 243.576 199.343C242.723 199.513 240.211 199.098 238.221 198.714C236.502 198.381 234.726 198.819 233.366 199.918L224.54 207.052C224.54 207.052 220.673 212.686 222.16 213.872C223.647 215.058 227.514 211.5 228.109 210.314C228.704 209.128 236.735 207.645 238.519 207.645C240.304 207.645 244.765 210.017 243.873 211.5C242.981 212.982 239.709 212.982 233.76 213.279C227.812 213.575 229.596 217.43 229.299 218.912C229.001 220.395 236.14 220.691 239.114 220.098C242.088 219.505 248.929 221.877 252.796 222.47C256.663 223.064 260.529 221.284 265.586 220.691C268.091 220.398 273.372 220.614 278.063 220.906C280.55 216.991 283.788 210.995 285.476 205.723C280.605 206.463 272.842 207.434 267.668 207.052Z" stroke="#3F3F3E" stroke-width="1.11055" stroke-miterlimit="10"/>
<path d="M416.126 172.382C409.337 154.159 391.232 133.384 388.895 131.313C381.531 124.788 376.912 125.46 376.912 125.46L371.707 122.666C360.251 123.074 334.885 138.98 332.021 145.098C330.547 148.248 325.816 153.02 320.291 157.799C319.561 158.431 314.129 162.064 313.104 162.703C301.983 169.632 286.608 193.789 286.608 199.751C286.608 201.479 286.175 203.537 285.475 205.723C283.787 210.995 280.549 216.991 278.062 220.906C277.445 221.878 276.868 222.736 276.38 223.406C273.107 227.893 274.743 244.207 275.97 247.062C277.198 249.917 263.697 269.494 263.697 269.494C263.697 269.494 253.468 264.6 247.331 267.862C241.194 271.125 243.24 266.639 235.876 263.376C228.511 260.113 233.83 259.705 227.284 259.705C226.261 259.705 225.393 259.738 224.631 259.788C220.517 260.06 219.92 260.929 219.92 260.929C213.109 263.119 209.723 269.424 208.044 274.794C206.596 279.425 206.418 283.361 206.418 283.361C206.418 283.361 231.375 307.017 237.921 312.727C244.467 318.436 277.875 321.821 280.329 321.413C282.784 321.005 305.11 296.709 305.11 296.709C305.11 296.709 307.473 296.004 308.292 302.122C309.11 308.24 305.837 314.766 305.837 314.766L445.823 281.885C446.661 241.515 430.727 211.578 416.126 172.382Z" stroke="#3F3F3E" stroke-width="1.11055" stroke-miterlimit="10"/>
<path d="M211.328 245.838C211.857 246.789 213.323 248.48 215.199 250.46L245.359 238.185L217.103 226.029L200.804 232.96C205.725 235.092 209.577 242.697 211.328 245.838Z" stroke="#3F3F3E" stroke-width="1.11055" stroke-miterlimit="10"/>
<path d="M215.199 250.461C213.322 248.48 211.857 246.789 211.327 245.839C209.576 242.697 205.724 235.093 200.804 232.96C199.975 232.601 199.12 232.379 198.235 232.379C192.098 232.379 184.734 235.234 184.734 235.234C184.734 235.234 178.188 233.603 178.188 237.274C178.188 237.274 172.46 238.089 172.46 241.76V245.431C172.46 245.431 170.823 251.956 171.642 254.404C172.46 256.851 176.142 258.074 176.551 256.443C176.551 256.443 177.37 253.588 181.87 257.666C183.241 258.909 185.032 260.416 187.006 261.934C191.514 265.401 196.991 268.927 200.69 269.494C203.012 269.85 205.724 272.228 208.043 274.794C209.722 269.424 213.109 263.119 219.919 260.929C219.919 260.929 220.516 260.06 224.631 259.788C221.71 257.013 217.997 253.415 215.199 250.461Z" stroke="#3F3F3E" stroke-width="1.11055" stroke-miterlimit="10"/>
<path d="M185.131 223.41L147.923 213.265L95.8413 230.239C96.2087 232.32 97.6324 234.104 99.6712 234.874L133.589 247.687C134.119 247.887 134.705 247.882 135.23 247.672L185.375 227.677C187.388 226.874 187.223 223.981 185.131 223.41Z" stroke="#3F3F3E" stroke-width="1.11055" stroke-miterlimit="10"/>
<path d="M247.04 175.422L230.818 26.114C230.389 22.168 226.887 19.2793 222.919 19.5977L34.7995 34.6909C30.5292 35.0336 27.4308 38.8915 28.0297 43.1203L55.145 234.589C55.7742 239.032 60.2773 241.83 64.5555 240.435L95.8411 230.239L147.923 213.265L242.49 182.446C245.481 181.471 247.379 178.541 247.04 175.422Z" stroke="#3F3F3E" stroke-width="1.11055" stroke-miterlimit="10"/>
<path d="M241.915 173.305L226.452 30.9835C226.043 27.2222 222.705 24.4686 218.922 24.7721L39.6052 39.1591C35.5347 39.4858 32.5814 43.1632 33.1522 47.1941L58.9988 229.704C59.5985 233.939 63.8909 236.605 67.9689 235.276L97.7907 225.557L147.436 209.378L237.577 180C240.429 179.071 242.238 176.278 241.915 173.305Z" stroke="#3F3F3E" stroke-width="1.11055" stroke-miterlimit="10"/>
<path d="M200.19 187.943L102.47 218.868C95.991 220.919 90.1502 218.239 89.5199 212.847L79.0886 123.625C78.4482 118.147 83.3919 112.725 90.032 111.537L190.06 93.6339C195.083 92.7349 199.507 95.8109 200.006 100.49L208.143 176.789C208.635 181.405 205.102 186.389 200.19 187.943Z" fill="white" stroke="#3F3F3E" stroke-width="1.11055" stroke-miterlimit="10"/>
<path d="M145.342 135.113L96.6605 145.988L96.0415 140.636L144.781 130.082L145.342 135.113Z" fill="white" stroke="#3F3F3E" stroke-width="0.450283" stroke-miterlimit="10" stroke-linecap="round"/>
<path d="M112.13 195.906L108.491 196.966L108.171 194.194L111.813 193.147L112.13 195.906Z" fill="white" stroke="#3F3F3E" stroke-width="0.450283" stroke-miterlimit="10" stroke-linecap="round"/>
<path d="M116.261 193.568L180.615 174.923" stroke="#3F3F3E" stroke-width="0.450283" stroke-miterlimit="10" stroke-linecap="round"/>
<path d="M202.889 177.971L106.271 207.282L105.662 202.002L202.391 173.323L202.889 177.971Z" fill="#7E8CDE"/>
<path d="M147.624 191.966L168.363 185.75" stroke="#3F3F3E" stroke-width="0.450283" stroke-miterlimit="10" stroke-linecap="round"/>
<path d="M93.6138 119.651L119.557 114.726" stroke="#3F3F3E" stroke-width="0.900553" stroke-miterlimit="10" stroke-linecap="round"/>
<path d="M107.775 188.89L137.37 180.582" stroke="#3F3F3E" stroke-width="0.450283" stroke-miterlimit="10" stroke-linecap="round"/>
<path d="M95.1216 132.688L149.245 121.517" stroke="#3F3F3E" stroke-width="0.450283" stroke-miterlimit="10" stroke-linecap="round"/>
<path d="M122.962 114.08L153.312 108.318" stroke="#706F6F" stroke-width="0.450283" stroke-miterlimit="10" stroke-linecap="round"/>
<path d="M94.6997 129.038L115.894 124.761" stroke="#3F3F3E" stroke-width="0.450283" stroke-miterlimit="10" stroke-linecap="round"/>
<path d="M95.6782 137.494L108.783 134.708" stroke="#3F3F3E" stroke-width="0.450283" stroke-miterlimit="10" stroke-linecap="round"/>
<path d="M146.615 146.526L98.0645 158.126L97.4468 152.785L146.055 141.504L146.615 146.526Z" fill="white" stroke="#3F3F3E" stroke-width="0.450283" stroke-miterlimit="10" stroke-linecap="round"/>
<path d="M97.0845 149.649L110.153 146.668" stroke="#3F3F3E" stroke-width="0.450283" stroke-miterlimit="10" stroke-linecap="round"/>
<path d="M147.885 157.917L99.4656 170.239L98.8491 164.909L147.326 152.905L147.885 157.917Z" fill="white" stroke="#3F3F3E" stroke-width="0.450283" stroke-miterlimit="10" stroke-linecap="round"/>
<path d="M98.4868 161.779L111.52 158.604" stroke="#3F3F3E" stroke-width="0.450283" stroke-miterlimit="10" stroke-linecap="round"/>
<path d="M149.152 169.287L100.863 182.328L100.248 177.009L148.594 164.284L149.152 169.287Z" fill="white" stroke="#3F3F3E" stroke-width="0.450283" stroke-miterlimit="10" stroke-linecap="round"/>
<path d="M99.8872 173.885L119.046 168.92" stroke="#3F3F3E" stroke-width="0.450283" stroke-miterlimit="10" stroke-linecap="round"/>
<path d="M143.983 157.057L145.111 155.813L142.642 156.432L143.983 157.057Z" fill="#3F3F3E"/>
<path d="M145.276 168.629L146.401 167.368L143.939 168.025L145.276 168.629Z" fill="#3F3F3E"/>
<path d="M142.692 145.506L143.822 144.279L141.347 144.861L142.692 145.506Z" fill="#3F3F3E"/>
<path d="M141.402 133.981L142.536 132.771L140.054 133.316L141.402 133.981Z" fill="#3F3F3E"/>
<path d="M189.096 84.675L88.8473 101.329C82.1918 102.434 76.1949 98.889 75.5519 93.389L70.8693 53.337C70.2213 47.7953 75.2458 42.7865 81.9909 42.1637L183.523 32.788C188.618 32.3175 193.104 35.7745 193.607 40.4999L197.251 74.6711C197.752 79.3662 194.13 83.8388 189.096 84.675Z" fill="white" stroke="#3F3F3E" stroke-width="1.19683" stroke-miterlimit="10"/>
<path d="M157.583 46.1671C157.583 46.1671 148.683 47.1208 153.183 59.1373C157.637 71.0295 160.005 72.2983 165.394 69.1432C170.704 66.0346 184.665 62.1966 179.145 49.6917C173.549 37.0145 157.583 46.1671 157.583 46.1671Z" fill="#E4E8F6"/>
<path d="M82.3696 56.1715L144.867 49.3262" stroke="#3F3F3E" stroke-width="3.38455" stroke-miterlimit="10" stroke-linecap="round"/>
<path d="M83.4985 62.9283L110.429 59.7515" stroke="#3F3F3E" stroke-width="3.38455" stroke-miterlimit="10" stroke-linecap="round"/>
<path d="M83.8628 69.86L98.4117 68.0193" stroke="#3F3F3E" stroke-width="0.450283" stroke-miterlimit="10" stroke-linecap="round"/>
<path d="M123.399 72.6848L85.0705 77.9207L84.4399 72.4835L122.814 67.5015L123.399 72.6848Z" fill="white" stroke="#3F3F3E" stroke-width="0.450283" stroke-miterlimit="10" stroke-linecap="round"/>
<path d="M89.9037 83.0394L86.0827 83.5886L85.7515 80.7315L89.5749 80.1956L89.9037 83.0394Z" fill="white" stroke="#3F3F3E" stroke-width="0.450283" stroke-miterlimit="10" stroke-linecap="round"/>
<path d="M94.2427 81.2657L114.578 78.3716" stroke="#3F3F3E" stroke-width="0.450283" stroke-miterlimit="10" stroke-linecap="round"/>
<path d="M187.507 79.1838L87.058 95.0585L86.4292 89.6368L186.996 74.4265L187.507 79.1838Z" fill="#7E8CDE"/>
<path d="M131.852 85.3596L153.314 82.041" stroke="white" stroke-width="0.450283" stroke-miterlimit="10" stroke-linecap="round"/>
<path d="M179.562 58.6353C178.302 59.2489 178.398 60.142 178.302 61.1897C178.205 62.2377 179.706 63.2014 179.706 63.2014C179.706 63.2014 181.591 63.2707 181.221 60.4848C181.221 60.4848 180.756 58.7406 179.562 58.6353Z" fill="white" stroke="#3F3F3E" stroke-width="0.381297" stroke-linecap="round" stroke-linejoin="round"/>
<path d="M169.568 61.614C169.371 60.4608 170.769 59.4971 170.769 59.4971L172.468 59.4109C172.385 58.6392 170.952 58.5591 170.952 58.5591L163.515 59.0352L163.15 59.081L163.147 59.0587L162.248 59.1163L160.714 59.2863L158.506 59.531L158.443 59.3599L157.018 59.4511C152.061 63.2209 156.568 66.8378 156.568 66.8378L171.202 65.453C171.317 65.4059 171.456 65.3135 171.601 65.201C172.058 64.8465 172.572 64.2887 172.572 64.2887L170.576 64.295C170.576 64.295 169.765 62.7667 169.568 61.614Z" fill="white" stroke="#3F3F3E" stroke-width="0.381297" stroke-miterlimit="10" stroke-linecap="round"/>
<path d="M172.664 64.2483L172.572 64.2888C172.572 64.2888 172.607 64.2751 172.664 64.2483Z" fill="white" stroke="#3F3F3E" stroke-width="0.381297" stroke-miterlimit="10" stroke-linecap="round"/>
<path d="M172.469 59.4111L170.769 59.4973C170.769 59.4973 169.371 60.461 169.568 61.6142C169.765 62.7669 170.576 64.2952 170.576 64.2952L172.572 64.2889L172.664 64.2485C172.98 64.0984 174.039 63.4813 174.223 61.8546C174.231 61.7854 174.23 61.7219 174.232 61.6563C174.294 59.9065 172.469 59.4111 172.469 59.4111Z" fill="white" stroke="#3F3F3E" stroke-width="0.381297" stroke-miterlimit="10" stroke-linecap="round"/>
<path d="M178.301 61.1897C178.397 60.142 178.301 59.249 179.561 58.6353L177.286 58.9259C177.286 58.9259 176.475 59.8724 176.586 60.8956C176.697 61.9186 176.697 63.2157 177.624 63.3509C178.549 63.4858 179.705 63.2013 179.705 63.2013C179.705 63.2013 178.204 62.2377 178.301 61.1897Z" fill="white" stroke="#3F3F3E" stroke-width="0.381297" stroke-linecap="round" stroke-linejoin="round"/>
<path d="M175.323 57.668L176.2 57.5706C175.853 57.5827 175.558 57.5901 175.315 57.594L175.323 57.668Z" fill="white" stroke="#3F3F3E" stroke-width="0.381297" stroke-miterlimit="10" stroke-linecap="round"/>
<path d="M164.844 49.981C165.835 51.1171 165.654 54.45 165.654 54.45C165.654 54.45 168.052 54.0682 169.22 53.8026C169.884 53.6516 170.848 53.4563 171.801 53.2697C171.391 53.2952 171.032 53.3905 171.032 53.3905C171.032 53.3905 171.652 51.23 170.668 50.0386C169.682 48.8441 167.147 48.6049 167.006 47.9648L165.153 48.1705L165.144 48.1423L161.624 48.9038C162.629 48.9869 164.192 49.2347 164.844 49.981Z" fill="white" stroke="#3F3F3E" stroke-width="0.381297" stroke-miterlimit="10" stroke-linecap="round"/>
<path d="M159.59 49.3437L159.63 49.4571C159.662 49.4046 159.695 49.3577 159.729 49.3137L159.59 49.3437Z" fill="white" stroke="#3F3F3E" stroke-width="0.381297" stroke-miterlimit="10" stroke-linecap="round"/>
<path d="M164.483 46.0075L163.229 45.8133C163.229 45.8133 163.66 45.1084 162.978 44.8515C162.295 44.5941 162.555 43.6433 162.555 43.6433L159.13 44.3986L159.274 45.0459L157.827 45.2655L158.626 45.8439L158.881 46.655L160.555 46.0346L164.483 46.0075Z" fill="white" stroke="#3F3F3E" stroke-width="0.381297" stroke-miterlimit="10" stroke-linecap="round"/>
<path d="M160.717 48.8612C160.717 48.8612 161.094 48.86 161.623 48.9038L165.143 48.1423L164.482 46.0076L160.554 46.0347L158.88 46.6551L159.19 47.6391L159.493 49.0636L159.59 49.3435L159.728 49.3135C160.165 48.7467 160.717 48.8612 160.717 48.8612Z" fill="white" stroke="#3F3F3E" stroke-width="0.381297" stroke-miterlimit="10" stroke-linecap="round"/>
<path d="M172.558 55.1047L172.373 54.5993C172.373 54.5993 173.297 53.9669 172.821 53.5031C172.594 53.2812 172.176 53.2463 171.801 53.2697C170.848 53.4562 169.884 53.6515 169.22 53.8025C168.052 54.0682 164.213 54.7351 161.59 55.1827L161.129 55.2973L160.742 56.1511L171.804 55.1715L172.558 55.1047Z" fill="white" stroke="#3F3F3E" stroke-width="0.381297" stroke-miterlimit="10" stroke-linecap="round"/>
<path d="M176.227 54.9759L174.322 54.9485L172.558 55.1047L171.803 55.1716L160.741 56.1511L158.306 56.3668L158.515 57.6033L159.139 57.6505C159.204 57.1171 159.67 56.6658 160.281 56.5916C160.98 56.5065 161.602 56.949 161.671 57.5798C161.74 58.2105 161.23 58.7924 160.531 58.8796C159.848 58.9649 159.24 58.5447 159.146 57.9365L159.103 58.2613L158.084 58.3873L158.442 59.36L158.505 59.531L160.714 59.2863L162.248 59.1164L163.147 59.0588L163.142 59.0172L163.109 58.7115L163.028 57.9738L167.673 57.398L167.744 58.0478L167.793 58.4983L167.544 58.5295L171.049 58.1412L171.014 57.8222L170.945 57.1882L175.213 56.658L175.314 57.5939C175.557 57.59 175.852 57.5826 176.199 57.5705L176.365 57.5521C176.365 57.5521 177.742 56.0202 176.227 54.9759Z" fill="white" stroke="#3F3F3E" stroke-width="0.381297" stroke-linecap="round" stroke-linejoin="round"/>
<path d="M164.843 49.9811C164.192 49.2348 162.629 48.987 161.623 48.9039C161.094 48.8601 160.717 48.8613 160.717 48.8613C160.717 48.8613 160.165 48.7468 159.729 49.3137C159.695 49.3575 159.662 49.4042 159.63 49.4566C159.36 49.8975 159.162 50.6536 159.221 51.9448C159.349 54.7879 160.574 55.2202 160.989 55.2851C161.075 55.2985 161.129 55.2974 161.129 55.2974L161.59 55.1828L165.653 54.4501C165.653 54.4501 165.835 51.1172 164.843 49.9811Z" fill="white" stroke="#3F3F3E" stroke-width="0.381297" stroke-miterlimit="10" stroke-linecap="round"/>
<path d="M160.281 56.5915C159.671 56.6657 159.204 57.1171 159.139 57.6505C159.13 57.7296 159.128 57.8103 159.137 57.8921C159.139 57.9075 159.145 57.9213 159.147 57.9365C159.241 58.5447 159.849 58.9648 160.532 58.8796C161.231 58.7923 161.741 58.2105 161.672 57.5798C161.603 56.949 160.981 56.5064 160.281 56.5915Z" fill="white" stroke="#3F3F3E" stroke-width="0.381297" stroke-miterlimit="10" stroke-linecap="round"/>
<path d="M163.148 59.0588L163.515 59.0353L167.545 58.5295L163.143 59.0173L163.148 59.0588Z" fill="white" stroke="#3F3F3E" stroke-width="0.381297" stroke-miterlimit="10" stroke-linecap="round"/>
<path d="M163.15 59.0813L163.515 59.0354L163.148 59.059L163.15 59.0813Z" fill="white" stroke="#3F3F3E" stroke-width="0.381297" stroke-miterlimit="10" stroke-linecap="round"/>
<path d="M163.029 57.9737L163.109 58.7115L163.143 59.0172L167.545 58.5295L167.793 58.4983L167.744 58.0478L167.673 57.3979L163.029 57.9737Z" fill="white" stroke="#3F3F3E" stroke-width="0.381297" stroke-miterlimit="10" stroke-linecap="round"/>
<path d="M177.625 63.351C176.698 63.2157 176.698 61.9187 176.587 60.8956C176.477 59.8724 177.287 58.9259 177.287 58.9259L179.562 58.6353C179.562 58.6353 178.667 57.4568 176.996 57.5377C176.702 57.5519 176.443 57.562 176.2 57.5705L175.323 57.6677L171.05 58.1412L167.545 58.5295L163.515 59.0353L170.953 58.5591C170.953 58.5591 172.385 58.6392 172.469 59.411C172.469 59.411 174.295 59.9063 174.232 61.6561C174.23 61.7217 174.231 61.7852 174.223 61.8544C174.039 63.4812 172.981 64.0982 172.664 64.2483C172.608 64.275 172.572 64.2887 172.572 64.2887C172.572 64.2887 172.058 64.8465 171.602 65.201L178.681 64.0505C178.681 64.0505 179.707 63.8473 179.707 63.2014C179.707 63.2014 178.55 63.4859 177.625 63.351Z" fill="white" stroke="#3F3F3E" stroke-width="0.381297" stroke-miterlimit="10" stroke-linecap="round"/>
<path d="M170.946 57.1882L171.015 57.8222L171.049 58.1412L175.322 57.6677L175.314 57.5939L175.213 56.658L170.946 57.1882Z" fill="white" stroke="#3F3F3E" stroke-width="0.381297" stroke-miterlimit="10" stroke-linecap="round"/>
<path d="M172.469 59.4111C172.469 59.4111 170.971 60.3318 170.976 61.0439C170.982 61.7734 170.635 63.8661 172.572 64.2889" fill="white"/>
<path d="M172.469 59.4111C172.469 59.4111 170.971 60.3318 170.976 61.0439C170.982 61.7734 170.635 63.8661 172.572 64.2889" stroke="#3F3F3E" stroke-width="0.381297" stroke-miterlimit="10" stroke-linecap="round"/>
<path d="M171.526 38.4933L183.813 37.4375" stroke="#3F3F3E" stroke-width="0.450283" stroke-miterlimit="10" stroke-linecap="round"/>
<path d="M120.223 71.3811L121.418 70.2419L118.806 70.5896L120.223 71.3811Z" fill="#3F3F3E"/>
<path d="M309.108 76.5784L287.92 80.8886C287.92 80.8886 286.742 91.4588 290.041 91.4588" stroke="#3F3F3E" stroke-width="1.11055" stroke-miterlimit="10"/>
<path d="M298.113 110.024C298.113 110.024 302.529 110.016 302.529 108.606" stroke="#3F3F3E" stroke-width="1.11055" stroke-miterlimit="10"/>
<path d="M317.741 93.2782C317.741 93.2782 318.745 96.1143 321.088 96.9485C325.955 98.6812 334.221 84.5677 324.602 77.9295C318.076 73.4249 314.513 82.0631 314.513 82.0631" stroke="#3F3F3E" stroke-width="1.11055" stroke-miterlimit="10"/>
<path d="M319.697 81.1236C319.697 81.1236 324.1 77.6988 324.1 83.1014C324.1 88.5039 323.444 92.4507 321.088 91.2762" stroke="#3F3F3E" stroke-width="1.11055" stroke-miterlimit="10"/>
<path d="M335.426 234.807C335.426 234.807 337.991 225.366 341.784 219.064C345.578 212.762 343.681 210.241 346.21 210.871" stroke="#3F3F3E" stroke-width="1.11055" stroke-miterlimit="10"/>
<path d="M312.981 163.604C312.981 163.604 339.534 169.276 344.591 176.838" stroke="#3F3F3E" stroke-width="1.11055" stroke-miterlimit="10"/>
<path d="M292.081 185.831C292.081 185.831 310.452 188.183 316.774 192.594L311.084 215.283L283.906 205.287C283.906 205.287 289.517 188.898 292.081 185.831Z" fill="#5C6BC4" stroke="#3F3F3E" stroke-width="1.19683" stroke-miterlimit="10"/>
<path d="M299.131 176.759L308.741 179.292L316.191 171.122L307.251 167.904" stroke="#3F3F3E" stroke-width="1.11055" stroke-miterlimit="10"/>
<path d="M261.549 221.797C261.549 221.797 257.283 227.595 247.977 227.209C238.671 226.822 220.447 220.637 220.447 219.091C220.447 217.545 222.158 213.872 222.158 213.872" stroke="#3F3F3E" stroke-width="1.19683" stroke-miterlimit="10"/>
<path d="M372.779 57.2786L376.215 82.9384C376.458 84.752 377.407 86.3977 378.856 87.5199L381.617 89.6573C383.124 90.8241 384.087 92.5544 384.283 94.4467L384.799 99.4459C384.976 101.158 385.783 102.744 387.063 103.899L392.423 108.733C393.36 109.578 394.049 110.66 394.419 111.864L396.13 117.443C396.551 118.818 397.389 120.03 398.529 120.911L403.865 125.039C405.313 126.159 406.265 127.795 406.508 129.605C406.69 130.956 406.823 132.498 406.912 133.748C407.026 135.334 407.674 136.834 408.759 138.001L413.744 143.362C415.242 144.972 415.891 147.193 415.494 149.354L415.479 149.435C415.081 151.604 415.736 153.833 417.245 155.445C419.11 157.437 419.639 160.33 418.599 162.85L417.573 165.336C416.67 167.524 416.943 170.02 418.298 171.963L423.032 178.754C424.902 181.436 424.652 185.052 422.432 187.453L414.599 193.215C412.996 194.949 411.037 192.368 410.914 190.013L408.915 173.598C408.403 171.648 401.878 171.868 400.067 170.973L398.077 169.99C395.525 168.729 393.995 166.051 394.211 163.22L394.368 161.151C394.559 158.639 393.376 156.22 391.273 154.824L388.261 152.825C386.574 151.704 385.457 149.908 385.202 147.903L384.319 140.974C384.097 139.226 383.218 137.626 381.86 136.498L376.472 132.023C375.123 130.901 374.246 129.315 374.017 127.579L373.356 122.571C373.128 120.843 372.259 119.263 370.92 118.143L367.739 115.481C367.407 115.203 367.049 114.957 366.671 114.745L361.442 111.813C361.285 111.725 361.132 111.646 360.968 111.571C358.782 110.558 342.01 102.711 339.652 99.3598C328.61 83.6623 348.47 63.5156 361.388 52.8355C365.619 49.3374 372.052 51.8472 372.779 57.2786Z" fill="#3F3F3E"/>
<path d="M405.587 171.028C405.587 171.028 413.781 168.397 415.021 162.809C415.021 162.809 417.023 161.451 417.573 169.939C417.573 169.939 409.432 179.029 407.184 177.65C407.184 177.65 401.842 174.668 405.587 171.028Z" fill="#3F3F3E"/>
</g>
<defs>
<clipPath id="clip0_1129_750">
<rect width="464.001" height="236" fill="white"/>
</clipPath>
</defs>
</svg>
