<svg width="200" height="200" viewBox="0 0 200 200" fill="none" xmlns="http://www.w3.org/2000/svg">
<g clip-path="url(#clip0_1129_5905)">
<mask id="mask0_1129_5905" style="mask-type:luminance" maskUnits="userSpaceOnUse" x="0" y="0" width="200" height="200">
<path d="M200 0H0V200H200V0Z" fill="white"/>
</mask>
<g mask="url(#mask0_1129_5905)">
<path d="M147.938 192.751C147.938 192.751 145.394 192.967 144.694 196.41C142.627 206.588 94.4862 201.112 93.8501 201.112C93.2139 201.112 53.0967 203.435 50.075 199.936C47.0534 196.438 47.4317 190.548 47.4317 190.548" fill="#7E8CDE"/>
<path d="M79.6817 32.7259C78.201 32.736 77.726 32.6789 78.0137 30.6648C78.3944 27.9996 80.2981 23.0499 79.156 20.9557C78.7905 20.2859 78.3089 19.0891 77.9466 17.6914C74.4746 18.458 68.0775 20.7985 68.4951 27.6188C68.9797 35.5349 69.7403 46.6005 78.8008 41.1615C77.9935 38.2834 78.0682 34.3344 79.6817 32.7259Z" fill="#3F3F3E"/>
<path d="M78.0136 30.6649C77.7259 32.679 78.2009 32.7362 79.6816 32.726C79.8137 32.5944 79.9548 32.4766 80.1077 32.3783C81.0088 31.799 82.1276 32.4838 83.2138 33.6418C83.4819 33.8755 83.7454 34.1447 84.0019 34.4392C85.8637 36.5776 87.3419 39.9932 87.3419 39.9932C87.3419 39.9932 90.0071 42.2777 96.2894 43.991C102.572 45.7044 118.753 41.7066 122.561 40.945C124.716 40.5141 127.052 38.6812 128.676 37.1708C129.921 36.0123 130.747 35.0435 130.747 35.0435C133.001 30.804 130.069 28.4211 127.975 22.9857C125.623 16.88 122.121 9.53114 117.992 6.10682C114.037 2.82685 103.402 -1.44073 95.3375 0.205271C87.4874 1.80744 81.4147 7.93208 79.5366 9.15278C76.9471 10.836 77.1761 14.7197 77.9465 17.6915C78.3088 19.0892 78.7905 20.2861 79.1559 20.9559C80.298 23.05 78.3943 27.9997 78.0136 30.6649Z" fill="#3F3F3E"/>
<path d="M147.257 131.616L146.19 135.758L146.627 137.162C148.227 137.087 149.351 136.997 149.403 136.893L150.057 133.299C149.138 132.627 148.198 132.073 147.257 131.616Z" fill="#7E8CDE"/>
<path d="M161.225 160.719C161.131 161.594 161.057 162.216 161.057 162.216L159.419 165.807C159.419 165.807 159.104 166.941 157.529 165.555C155.954 164.169 158.033 160.452 158.033 160.452C157.077 159.443 157.374 157.945 157.491 157.499C157.184 157.256 156.875 157.018 156.565 156.783L149.851 152.725C149.555 152.546 149.266 152.357 148.983 152.159C148.7 151.96 148.424 151.752 148.154 151.535L147.761 151.217L145.809 149.641C145.809 149.641 145.762 149.84 145.68 150.163C145.528 150.76 145.258 151.785 144.944 152.794C144.989 153.209 145.046 153.641 145.114 154.085C145.568 154.236 146.038 154.401 146.548 154.598C149.274 155.653 153.056 160.811 156.487 166.207C156.614 166.405 156.74 166.604 156.865 166.803C160.704 172.903 164.03 179.124 164.824 179.917C166.347 181.44 172.629 174.206 172.629 174.206C172.629 174.206 170.588 169.282 161.225 160.719Z" fill="#7E8CDE"/>
<path d="M61.1613 168.148C61.1613 168.148 53.5603 165.628 50.7406 164.767L44.3636 162.774C44.1313 164.316 43.7764 166.352 43.5546 167.749L55.3853 170.346L55.0644 176.115L42.7319 172.684C42.3907 174.605 42.0866 176.124 41.8408 177.055L60.269 181.612L61.1613 168.148Z" fill="#9AA6E6"/>
<path d="M55.3279 123.564C54.2949 123.781 53.4391 123.939 52.8015 124.025C50.8531 124.288 49.3335 124.757 48.1396 125.334C47.9761 125.413 47.8179 125.494 47.6666 125.577C43.4301 127.9 43.88 131.663 43.88 131.663C44.5547 131.207 45.1353 130.912 45.6556 130.743C46.046 130.616 46.4023 130.56 46.7391 130.559C46.8514 130.559 46.9615 130.565 47.07 130.576C47.4502 130.616 47.8104 130.736 48.1729 130.891C48.5867 131.068 49.0095 131.298 49.4636 131.558C49.5377 131.601 49.6068 131.639 49.6831 131.683C50.1592 131.954 50.6796 132.245 51.2799 132.516C51.8803 132.788 52.5607 133.04 53.3568 133.237C53.7849 133.342 54.246 133.431 54.7462 133.498C54.9789 133.53 55.2221 133.555 55.4723 133.576C55.7599 133.6 56.0576 133.618 56.3701 133.627C56.6024 133.634 56.8608 133.627 57.142 133.608C57.2806 133.599 57.4366 133.58 57.5869 133.565C57.9377 133.529 58.308 133.483 58.7162 133.417C69.4557 131.677 99.5728 119.721 106.84 117.914C114.742 115.95 121.369 105.257 121.369 105.257C121.369 105.257 69.989 120.491 55.3279 123.564Z" fill="#7E8CDE"/>
<path d="M148.392 165.682C147.912 164.451 147.464 163.137 147.036 161.789C147.314 165.012 147.496 168.596 146.946 168.768C145.938 169.083 144.615 168.831 144.426 167.886C144.296 167.234 143.357 161.011 142.786 157.21C142.723 156.786 142.664 156.397 142.611 156.045C141.23 156.272 139.189 155.926 138.654 154.856C138.384 154.317 138.515 153.729 138.785 153.201C139.244 152.303 140.109 151.581 140.109 151.581L140.23 150.004C140.23 150.004 138.654 149.034 136.956 147.943C136.491 147.644 136.119 147.028 135.846 146.241C135.12 144.15 135.104 140.852 135.985 139.089C136.201 138.658 136.42 138.085 136.635 137.435C135.488 137.454 134.745 137.464 134.745 137.464C134.745 137.464 133.904 135.276 133.732 132.69C133.73 132.67 133.729 132.649 133.728 132.628C133.707 132.288 133.699 131.942 133.705 131.593C133.554 131.57 133.4 131.552 133.252 131.525C131.149 131.152 129.327 130.456 128.507 129.263C128.347 129.031 128.18 128.734 128.007 128.382C127.746 127.853 127.471 127.199 127.188 126.449C126.999 125.95 126.806 125.408 126.611 124.833C126.122 123.395 125.62 121.75 125.128 120.037C124.932 119.351 124.737 118.656 124.545 117.958C124.449 117.609 124.354 117.26 124.261 116.911C123.979 115.865 123.707 114.826 123.449 113.823C123.363 113.488 123.279 113.158 123.197 112.833C123.032 112.183 122.875 111.553 122.727 110.953C122.653 110.654 122.581 110.361 122.512 110.077C122.373 109.51 122.244 108.976 122.126 108.486C121.656 106.525 121.37 105.257 121.37 105.257C121.37 105.257 114.742 115.95 106.84 117.914C99.573 119.721 69.4559 131.677 58.7164 133.417C58.3082 133.483 57.9379 133.529 57.5871 133.565C57.4368 133.58 57.2808 133.599 57.1422 133.608C56.8611 133.627 56.6025 133.634 56.3703 133.627C56.0578 133.618 55.7601 133.6 55.4725 133.576C55.2222 133.555 54.979 133.53 54.7464 133.498C54.2461 133.431 53.785 133.342 53.357 133.237C52.5609 133.04 51.8804 132.788 51.2801 132.516C50.6797 132.245 50.1594 131.954 49.6832 131.683C49.607 131.639 49.5378 131.601 49.4638 131.558C49.3107 131.714 49.1719 131.95 49.0492 132.318C48.4373 134.154 50.4326 133.584 55.3519 134.645C55.8417 134.751 56.3503 134.867 56.8986 135.009C58.0153 135.299 59.423 135.527 60.9745 135.707C67.8359 136.504 77.5312 136.355 77.5312 136.355C77.5312 136.355 78.7701 135.454 80.4622 134.258C83.1791 132.336 87.0674 129.65 88.8933 128.689C91.8564 127.129 101.526 120.112 101.526 120.112C101.526 120.112 103.553 120.579 103.397 122.295C103.241 124.01 99.6542 128.377 97.7828 129.937C95.9113 131.496 93.416 132.432 94.0399 133.68C94.1282 133.856 94.5056 134.052 95.0757 134.258C98.5302 135.502 109.323 137.111 109.323 137.111L114.158 136.955C114.158 136.955 118.993 135.551 119.149 137.111C119.256 138.181 118.26 139.546 117.626 140.296C117.336 140.639 117.121 140.853 117.121 140.853C117.121 140.853 116.809 144.129 114.314 144.284L114.158 146.312C114.158 146.312 110.415 150.523 109.323 150.679C108.232 150.835 103.085 150.991 103.085 150.991C103.085 150.991 91.2327 153.174 88.5814 152.706C85.9302 152.238 82.079 151.44 81.1194 151.605L80.8952 154.745C80.671 157.884 75.9614 162.818 73.2701 163.491C71.8945 163.835 68.2335 162.948 64.4141 161.789C61.7197 160.972 58.9482 160.02 56.8424 159.269L52.5803 157.85C50.324 157.33 49.5834 157.836 47.4793 157.66C46.8087 157.604 45.6918 157.339 44.3381 156.938L43.4098 162.301L60.0825 167.841L61.1615 168.148L60.2692 181.612L41.841 177.056C40.0568 183.821 46.1743 191.896 56.1155 196.478C66.0565 201.061 146.35 201.28 149.154 190.15C149.271 189.683 149.365 189.136 149.441 188.528C150.027 183.842 149.436 175.154 148.392 165.682Z" fill="#9AA6E6"/>
<path d="M156.487 166.206C153.056 160.811 149.274 155.653 146.548 154.598C146.038 154.4 145.568 154.236 145.114 154.085C144.933 154.025 144.746 153.96 144.573 153.906C144.294 154.681 144.004 155.327 143.747 155.583C143.541 155.789 143.176 155.937 142.734 156.023C142.694 156.031 142.653 156.038 142.611 156.044C142.664 156.397 142.723 156.786 142.786 157.21C143.357 161.01 144.296 167.234 144.426 167.886C144.615 168.831 145.938 169.083 146.946 168.768C147.496 168.596 147.314 165.011 147.036 161.789C146.804 159.105 146.505 156.672 146.505 156.672L148.521 156.546C148.521 156.546 149.718 157.68 149.907 158.562C150.096 159.444 151.104 160.389 151.104 160.389L150.6 164.547L149.529 166.815C149.277 168.579 150.726 168.831 151.419 168.768C152.112 168.705 152.931 166.437 152.931 166.437C152.931 167.13 154.127 168.012 154.694 167.949C155.063 167.908 156.149 167.255 156.865 166.803C156.739 166.604 156.614 166.405 156.487 166.206Z" fill="#C05F52"/>
<path d="M80.153 151.714C79.0294 160.368 72.4094 161.578 72.4094 161.578L73.0038 152.265C72.886 152.273 72.8214 152.278 72.8214 152.278C72.8214 152.278 73.6055 143.661 74.9109 139.785C75.1669 139.025 75.4427 138.443 75.7369 138.149L77.5311 136.355C77.5311 136.355 67.8358 136.504 60.9744 135.707C59.4229 135.527 58.0151 135.299 56.8984 135.009C56.3502 134.867 55.8416 134.751 55.3518 134.645C50.4325 133.583 48.4372 134.154 49.0491 132.318C49.1718 131.95 49.3106 131.714 49.4636 131.558C49.0096 131.298 48.5867 131.068 48.1729 130.891C47.8104 130.736 47.4503 130.616 47.07 130.576C46.9616 130.565 46.8514 130.559 46.7392 130.559C46.4024 130.56 46.046 130.616 45.6557 130.743C45.1353 130.912 44.5548 131.207 43.8801 131.663C43.8801 131.663 43.4302 127.899 47.6666 125.577C47.7364 125.299 47.8025 125.012 47.8608 124.702C48.1492 123.166 47.3863 121.563 46.4645 119.942C45.7658 117.435 45.0393 114.594 44.5061 111.908C43.72 107.946 43.3562 104.327 44.135 102.638C45.8663 98.8828 47.0233 95.8428 48.0786 92.9111C49.1687 89.8826 49.4635 86.6846 48.9104 83.5512C47.8023 77.2727 46.617 68.6014 48.0051 66.2246L47.7445 64.4565C45.0607 65.865 42.4393 67.2079 41.6482 67.5045C39.8541 68.1773 32.9018 70.6442 33.1261 75.5781C33.3503 80.512 26.6223 89.2585 26.8466 93.071C27.0708 96.8835 26.8466 99.5748 26.1738 101.145C25.5009 102.715 25.0524 114.152 24.1554 115.946C23.2583 117.74 19.2215 132.766 21.2398 136.803C23.2583 140.84 27.7437 149.362 31.3319 151.605C34.026 153.289 40.2593 155.731 44.338 156.938C45.6917 157.339 46.8085 157.604 47.4792 157.66C49.5833 157.836 50.3239 157.33 52.5802 157.85C53.2098 157.995 53.9505 158.215 54.88 158.557C55.4267 158.759 56.0929 159.001 56.8422 159.269L64.414 161.789C68.2334 162.948 71.8944 163.835 73.27 163.491C75.9613 162.818 80.6709 157.884 80.8951 154.745L81.1193 151.605C80.9576 151.633 80.6116 151.671 80.153 151.714Z" fill="#7E8CDE"/>
<path d="M134.72 130.902C134.389 131.15 134.162 131.398 134.007 131.639C133.779 131.992 133.71 132.329 133.728 132.628C133.729 132.648 133.73 132.669 133.732 132.69C133.904 135.276 134.745 137.464 134.745 137.464C134.745 137.464 135.488 137.454 136.635 137.435C136.704 137.224 136.774 137.004 136.842 136.779C137.326 135.191 137.771 133.312 138.083 131.897C138.308 130.877 138.464 130.096 138.514 129.846C136.766 129.968 135.405 130.388 134.72 130.902Z" fill="#7E8CDE"/>
<path d="M55.3853 170.346L43.5546 167.749L42.8709 167.599L42.229 172.544L42.7318 172.684L55.0644 176.115L55.3853 170.346Z" fill="#7E8CDE"/>
<path d="M131.161 93.2551C132.341 90.707 133.325 87.5327 133.04 84.3566L127.264 81.6094C127.264 81.6094 126.28 84.2107 124.786 87.031C124.319 87.913 123.799 88.812 123.246 89.6637C122.752 90.4249 122.232 91.1491 121.691 91.7765C120.769 91.3448 119.834 90.9942 118.909 90.7393C118.373 90.5917 117.84 90.4679 117.316 90.4006L114.107 95.8951C114.107 95.8951 115.464 96.4456 117.281 97.2487C120.917 98.8563 126.408 101.481 126.622 102.763C126.788 103.759 128.071 102.618 129.271 101.287C129.884 100.607 130.469 99.8868 130.878 99.3662C130.946 99.2795 131.01 99.1974 131.068 99.1235C131.293 98.8323 131.435 98.6424 131.435 98.6424C131.435 98.6424 130.598 97.837 129.25 96.7296C129.832 95.8194 130.525 94.6283 131.161 93.2551Z" fill="#9AA6E6"/>
<path d="M109.757 95.0958L109.294 81.6094L73.6758 81.8841L73.355 101.115L74.3623 101.092L101.577 100.479L107.399 100.348L109.936 100.291L109.757 95.0958Z" fill="#9AA6E6"/>
<path d="M142.075 104.793L142.024 103.862L131.16 93.2552C130.524 94.6284 129.832 95.8194 129.249 96.7297C130.597 97.837 131.435 98.6425 131.435 98.6425C131.435 98.6425 131.293 98.8324 131.067 99.1236C131.01 99.1975 130.946 99.2795 130.878 99.3663C130.469 99.8869 129.884 100.607 129.271 101.287C128.071 102.618 126.788 103.759 126.622 102.763C126.408 101.481 120.917 98.8563 117.28 97.2488C115.463 96.4456 114.107 95.8952 114.107 95.8952L117.316 90.4007C117.84 90.468 118.373 90.5918 118.909 90.7394C119.834 90.9942 120.769 91.3448 121.691 91.7765C122.231 91.1492 122.752 90.4249 123.246 89.6638C123.799 88.8121 124.318 87.9131 124.786 87.0311L118.386 80.7828L116.073 78.524C114.967 76.9938 112.999 76.0776 110.898 76.1149L95.6058 76.3295L75.0717 76.6177L74.8016 76.6215L71.7504 76.6643C69.7828 76.7124 67.9418 77.5065 66.7258 78.8316L61.5981 84.032L56.2087 89.4979L48.0049 97.8183L52.8014 124.025C53.439 123.939 54.2947 123.781 55.3278 123.564C69.9888 120.491 121.369 105.257 121.369 105.257C121.369 105.257 121.656 106.525 122.126 108.486C122.243 108.976 122.372 109.51 122.511 110.077C122.581 110.361 122.652 110.654 122.727 110.953C122.875 111.553 123.032 112.183 123.197 112.833C123.279 113.158 123.363 113.488 123.449 113.823C123.706 114.826 123.979 115.865 124.26 116.911C124.354 117.26 124.449 117.609 124.545 117.958C124.737 118.656 124.931 119.351 125.128 120.037C125.62 121.75 126.122 123.395 126.61 124.833C126.806 125.408 126.999 125.95 127.188 126.449C127.471 127.199 127.746 127.853 128.006 128.382C128.18 128.734 128.347 129.031 128.506 129.263C129.326 130.456 131.149 131.152 133.252 131.525C133.4 131.552 133.554 131.57 133.705 131.593C133.72 130.622 133.85 129.631 134.173 128.707C134.181 128.685 134.189 128.663 134.196 128.641C135.521 124.853 136.838 120.902 136.838 120.902C136.838 120.902 140.456 118.617 140.456 118.046C140.456 117.475 140.836 109.86 142.169 108.718C142.207 108.685 142.246 108.656 142.285 108.623L142.075 104.793ZM107.399 100.348L101.577 100.479L74.362 101.092L73.3548 101.115L73.6756 81.8841L109.294 81.6094L109.757 95.0958L109.936 100.291L107.399 100.348Z" fill="#9AA6E6"/>
<path d="M72.4097 161.578C72.4097 161.578 79.0297 160.369 80.1533 151.714C78.1465 151.903 73.9305 152.2 73.0041 152.265L72.4097 161.578Z" fill="#7E8CDE"/>
<path d="M74.9108 139.785C73.6054 143.661 72.8213 152.278 72.8213 152.278L73.0038 152.263L80.1566 151.683L81.1192 151.605C82.0788 151.44 85.9299 152.238 88.5812 152.706C91.2324 153.174 103.085 150.99 103.085 150.99C103.085 150.99 108.231 150.834 109.323 150.678C110.415 150.522 114.158 146.312 114.158 146.312L114.314 144.284C116.809 144.128 117.121 140.853 117.121 140.853C117.121 140.853 117.336 140.638 117.625 140.296C118.26 139.546 119.255 138.181 119.148 137.11C118.992 135.551 114.158 136.954 114.158 136.954L109.323 137.11C109.323 137.11 98.5299 135.502 95.0754 134.257C94.5053 134.052 94.128 133.856 94.0396 133.679C93.4158 132.432 95.9111 131.496 97.7825 129.936C99.654 128.377 103.241 124.01 103.397 122.295C103.553 120.579 101.525 120.111 101.525 120.111C101.525 120.111 91.8562 127.129 88.8931 128.689C87.0671 129.65 83.1789 132.336 80.462 134.257C78.7698 135.454 77.5309 136.355 77.5309 136.355L75.7368 138.149C75.4426 138.443 75.1668 139.024 74.9108 139.785Z" fill="#C05F52"/>
<path d="M136.504 60.036C136.43 60.5075 136.309 60.973 136.118 61.4214C135.469 61.1317 132.698 57.3745 129.252 56.5232C126.846 55.9286 123.753 58.1801 122.336 57.9705C120.556 61.674 117.469 63.5992 117.469 63.5992C117.469 63.5992 117.468 64.0484 117.435 64.6784C119.04 64.8163 120.571 65.113 122.003 65.4893C126.381 66.6395 129.809 68.5489 131.353 69.088C131.839 69.2577 132.283 69.3285 132.718 69.2458C135.323 68.7503 136.616 67.1586 136.903 62.6173C136.934 62.123 136.957 61.6041 136.964 61.0372C136.97 60.6144 136.794 60.2929 136.504 60.036Z" fill="#5C6BC4"/>
<path d="M134.209 52.8762C132.327 50.8767 129.208 49.941 127.105 49.2104C126.364 51.6841 125.248 52.0435 124.155 53.7678C124.045 53.9407 123.935 54.131 123.827 54.3353C123.541 54.8723 123.259 55.523 122.99 56.3651C122.968 56.434 122.94 56.4978 122.917 56.5659C122.749 57.0614 122.55 57.5261 122.336 57.9705C123.769 58.1826 126.818 55.9205 129.252 56.5232C132.671 57.3694 135.474 61.134 136.118 61.4214C136.309 60.9729 136.43 60.5075 136.504 60.036C136.935 57.2635 135.504 54.2524 134.209 52.8762Z" fill="#7E8CDE"/>
<path d="M66.0767 57.132L68.9109 56.1791C68.9007 55.6252 69.4011 55.2699 69.8807 55.3544L74.8823 47.8351C72.4501 46.9642 68.0967 48.9136 66.0735 48.116C66.0659 50.2425 66.0767 57.132 66.0767 57.132Z" fill="#9AA6E6"/>
<path d="M93.8365 71.3365C91.5779 69.5427 89.7168 67.5715 88.7147 66.4413C88.6627 66.3826 88.6053 66.3294 88.551 66.2729C86.7202 65.5649 82.2089 64.0764 80.0165 63.0071C79.9617 62.9804 79.9048 62.9501 79.8496 62.9228C75.713 60.8734 72.8944 57.7214 70.2681 55.5305C70.1486 55.4308 70.0152 55.3784 69.8806 55.3547C69.4011 55.2702 68.9006 55.6254 68.9109 56.1794L66.0767 57.1323L65.4902 61.7804C65.4902 61.7804 68.0176 64.0069 67.7212 63.8824C67.7235 63.9784 71.5118 67.8748 72.8359 69.3105C75.1964 70.847 77.8992 71.9951 80.3306 72.5218C80.4973 72.5579 80.6659 72.5877 80.8338 72.6197C81.2662 72.702 81.7035 72.7671 82.1425 72.8236C82.8086 72.9094 83.4801 72.9692 84.1538 73.0019C87.856 73.1815 91.6024 72.6178 94.6447 71.9417C94.3735 71.741 94.0976 71.5438 93.8365 71.3365Z" fill="#7E8CDE"/>
<path d="M61.3184 48.8155L61.3247 48.8159C62.3556 48.8747 63.2021 49.5359 63.365 50.4094L64.0564 54.1186L61.4821 55.2352L64.3702 61.0045C64.6527 61.1658 65.4192 61.5845 65.4192 61.5845C65.4192 61.5845 65.8733 58.3546 66.0276 56.4675C65.9387 53.3239 66.0658 50.2424 66.0735 48.1159C66.0792 46.5533 66.0207 45.5037 65.7627 45.3381C64.7432 44.6834 58.1544 43.2782 58.1544 43.2782C58.1544 43.2782 48.9781 42.6235 44.8997 46.1152C40.8213 49.6069 40.5664 50.9163 41.8408 51.3528C42.8752 51.707 44.0774 51.9178 44.3573 53.2679C44.3689 53.3234 44.3768 53.3834 44.3852 53.4429C47.7012 51.7474 54.6827 48.4368 58.2733 48.6418L61.3184 48.8155Z" fill="#7E8CDE"/>
<path d="M61.4822 55.2354L64.0564 54.1187L63.365 50.4096C63.2021 49.5361 62.3556 48.8749 61.3248 48.816L61.3185 48.8157L58.2734 48.6419C54.6827 48.4369 47.7012 51.7475 44.3852 53.443C43.256 54.0203 42.55 54.4112 42.55 54.4112C42.0076 61.5638 46.9389 58.9911 46.9389 58.9911L47.0136 59.4981L47.7444 64.4564L48.0051 66.2244C48.371 65.5979 48.9267 64.9645 49.6174 64.3543C50.1163 63.9135 50.6896 63.4865 51.313 63.0826C53.2715 61.8135 55.7486 60.7819 58.1672 60.3446C60.4544 59.931 62.6872 60.044 64.3702 61.0046L61.4822 55.2354Z" fill="#5C6BC4"/>
<path d="M161.561 155.223C161.309 154.593 152.175 145.144 151.167 144.262C150.159 143.38 147.387 139.6 147.387 139.6L146.628 137.162L146.19 135.758L147.257 131.616C146.058 131.033 144.858 130.615 143.698 130.328C143.622 130.309 143.547 130.296 143.471 130.279C141.662 129.855 139.954 129.744 138.514 129.845C138.464 130.096 137.326 135.191 136.842 136.779C136.774 137.004 136.704 137.223 136.635 137.435C136.42 138.084 136.201 138.658 135.985 139.089C135.104 140.851 135.12 144.15 135.846 146.241C136.119 147.027 136.492 147.644 136.956 147.942C138.654 149.034 140.23 150.004 140.23 150.004L140.109 151.581C140.109 151.581 139.244 152.303 138.785 153.201C138.515 153.728 138.384 154.317 138.654 154.855C139.189 155.926 141.23 156.272 142.611 156.044C142.653 156.037 142.694 156.031 142.734 156.023C143.176 155.937 143.541 155.789 143.747 155.583C144.004 155.326 144.294 154.681 144.574 153.906C144.696 153.566 144.817 153.201 144.933 152.832C144.937 152.819 144.94 152.806 144.944 152.793C145.258 151.785 145.528 150.76 145.68 150.163C145.762 149.84 145.809 149.64 145.809 149.64L147.761 151.217L148.154 151.534C148.424 151.752 148.7 151.96 148.983 152.158C149.266 152.357 149.555 152.545 149.851 152.724L156.565 156.783C156.875 157.017 157.184 157.255 157.491 157.499C157.374 157.945 157.077 159.443 158.033 160.452C158.033 160.452 155.954 164.169 157.529 165.555C159.104 166.94 159.419 165.807 159.419 165.807L161.057 162.216C161.057 162.216 161.131 161.593 161.225 160.719C161.431 158.796 161.734 155.656 161.561 155.223Z" fill="#C05F52"/>
<path d="M122.561 40.945C118.753 41.7066 102.572 45.7044 96.2895 43.991C90.0071 42.2777 87.3419 39.9932 87.3419 39.9932C87.3419 39.9932 85.8638 36.5776 84.002 34.4392C83.7455 34.1447 83.4819 33.8755 83.2139 33.6418C82.1276 32.4838 81.0089 31.799 80.1078 32.3783C79.9548 32.4766 79.8137 32.5944 79.6817 32.726C78.0682 34.3345 77.9935 38.2836 78.8008 41.1616C78.8675 41.3993 78.9396 41.63 79.018 41.851C78.1497 42.3763 77.236 43.262 76.4907 44.7525C75.9095 45.9149 73.0502 50.7539 73.0502 50.7539L69.8809 55.3545C70.0154 55.3783 70.1489 55.4306 70.2684 55.5303C72.8946 57.7213 75.7132 60.8732 79.8499 62.9226C79.905 62.9499 79.9619 62.9803 80.0167 63.0069C82.2091 64.0763 86.7205 65.5647 88.5513 66.2727C88.6055 66.3292 88.6629 66.3825 88.7149 66.4411C89.7171 67.5714 91.5781 69.5426 93.8367 71.3363C94.0978 71.5437 94.3737 71.7409 94.645 71.9415C94.8229 72.0732 94.9935 72.2105 95.175 72.3385C95.2441 72.3873 95.3128 72.4363 95.3823 72.4844C96.3398 73.1459 97.3439 73.742 98.3657 74.213C98.689 74.3621 99.0138 74.4976 99.3398 74.6192C100.743 75.1425 102.162 75.3962 103.524 75.2121C103.524 75.2121 104.97 74.9208 107.722 72.3561C108.699 71.446 109.849 70.2281 111.149 68.6567C111.336 68.4306 111.516 68.2199 111.71 67.978C111.71 67.978 111.964 68.0385 112.35 68.1045C113.496 68.3006 115.803 68.546 116.088 67.4068C116.126 67.2556 116.159 67.0957 116.19 66.9324C116.331 66.1787 116.401 65.3315 116.435 64.6786C116.468 64.0486 116.469 63.5994 116.469 63.5994C116.469 63.5994 119.556 61.6742 121.337 57.9707C121.55 57.5263 121.749 57.0616 121.917 56.5661C121.94 56.498 121.968 56.4342 121.99 56.3653C122.259 55.5232 122.541 54.8725 122.827 54.3355C122.936 54.1313 123.045 53.941 123.155 53.768C124.248 52.0437 125.364 51.6844 126.105 49.2107C126.198 48.8989 126.288 48.5657 126.368 48.1792C127.13 44.5254 128.255 39.1707 128.676 37.1709C127.053 38.6812 124.716 40.5141 122.561 40.945Z" fill="#C05F52"/>
<path d="M139.353 81.9167C137.934 74.8776 137.472 67.4593 137.202 62.7982C137.099 62.7351 137 62.6756 136.903 62.6175C136.616 67.1588 135.323 68.7505 132.718 69.246C132.283 69.3288 131.84 69.2579 131.353 69.0882C129.809 68.5492 126.381 66.6397 122.004 65.4895C120.571 65.1132 119.04 64.8165 117.435 64.6786C117.401 65.3315 117.331 66.1787 117.19 66.9324C117.159 67.0957 117.126 67.2556 117.088 67.4068C116.803 68.546 114.496 68.3006 113.35 68.1045C112.964 68.0385 112.71 67.978 112.71 67.978C112.516 68.2199 112.336 68.4306 112.149 68.6567C110.849 70.2281 109.699 71.446 108.722 72.3561C105.97 74.9208 104.524 75.2121 104.524 75.2121C103.162 75.3962 101.743 75.1425 100.34 74.6192C100.014 74.4976 99.689 74.3621 99.3657 74.213C98.3439 73.742 97.3398 73.1459 96.3824 72.4844C96.3128 72.4363 96.2441 72.3873 96.175 72.3385C95.9936 72.2105 95.8229 72.0732 95.645 71.9415C92.6026 72.6176 88.8562 73.1813 85.154 73.0017C84.4804 72.9691 83.8089 72.9093 83.1428 72.8234C82.7038 72.7669 82.2665 72.7019 81.8341 72.6195C81.6662 72.5875 81.4976 72.5578 81.3309 72.5217C78.8994 71.995 76.1966 70.8468 73.8362 69.3103C72.5121 67.8747 68.6897 63.6727 68.1123 63.1287C67.1898 62.2597 66.2744 61.5207 65.3704 61.0047C63.6874 60.0441 61.4546 59.9311 59.1674 60.3447C56.7488 60.782 54.2717 61.8136 52.3132 63.0827C51.6898 63.4866 51.1165 63.9135 50.6176 64.3544C49.927 64.9646 49.3712 65.598 49.0053 66.2245C47.6172 68.6014 48.8025 77.2726 49.9105 83.5511C50.4636 86.6845 50.1689 89.8825 49.0788 92.911C48.0235 95.8427 46.8665 98.8827 45.1352 102.638C44.3564 104.327 44.7202 107.946 45.5063 111.907C46.0394 114.594 46.7659 117.435 47.4647 119.942C48.3865 121.562 49.1494 123.166 48.861 124.702C48.8027 125.012 48.7366 125.299 48.6668 125.577C48.8181 125.494 48.9763 125.413 49.1398 125.334C50.3338 124.757 51.8533 124.288 53.8018 124.025L49.0053 97.8182L57.2091 89.4978L62.5985 84.0319L67.7261 78.8315C68.9422 77.5063 70.7832 76.7123 72.7507 76.6642L75.802 76.6214L76.0721 76.6176L96.6062 76.3294L111.899 76.1147C114 76.0775 115.967 76.9936 117.073 78.5238L119.386 80.7826L125.786 87.0309C127.28 84.2106 128.264 81.6093 128.264 81.6093L134.04 84.3565C134.325 87.5326 133.341 90.7069 132.161 93.255L143.024 103.862L143.075 104.793C144.191 98.9969 140.829 89.2441 139.353 81.9167Z" fill="#9AA6E6"/>
<path d="M163.73 85.1117C162.587 79.7813 161.255 83.3983 160.303 83.0176C159.351 82.6368 158.97 78.8294 154.021 73.499C149.071 68.1685 143.55 67.2167 143.55 66.0744C143.55 64.9322 140.314 64.7418 137.268 62.8381C137.244 62.8235 137.224 62.8122 137.202 62.7983C137.472 67.4595 137.934 74.8777 139.353 81.9169C140.829 89.2443 144.191 98.9971 143.075 104.793L143.285 108.623C143.247 108.656 143.208 108.685 143.169 108.718C141.837 109.86 141.456 117.475 141.456 118.046C141.456 118.617 137.839 120.902 137.839 120.902C137.839 120.902 136.522 124.853 135.197 128.641C135.189 128.663 135.181 128.685 135.174 128.707C134.85 129.631 134.72 130.622 134.705 131.593C134.805 131.609 134.906 131.625 135.007 131.639C135.162 131.398 135.389 131.151 135.72 130.902C136.405 130.388 137.766 129.968 139.514 129.846C140.955 129.745 142.662 129.856 144.471 130.279C144.548 130.297 144.622 130.309 144.698 130.328C145.858 130.616 147.058 131.034 148.257 131.616C149.198 132.073 150.138 132.627 151.058 133.299L150.404 136.893C150.594 136.512 156.495 124.328 159.732 121.283C162.968 118.237 166.204 111.383 166.014 107.005C165.824 102.626 164.11 103.007 166.014 99.3896C167.918 95.7726 164.872 90.4421 163.73 85.1117Z" fill="#7E8CDE"/>
<path d="M66.0497 178.308L65.3486 187.142L129.569 187.703L128.728 176.065L66.0497 178.308Z" fill="#7E8CDE"/>
<path d="M134.081 131.761C134.229 131.788 134.383 131.806 134.533 131.829" stroke="#3F3F3E" stroke-width="0.75" stroke-miterlimit="10"/>
<path d="M80.5098 32.9622C79.0291 32.9724 78.5541 32.9152 78.8418 30.9011C79.2225 28.2359 81.1262 23.2862 79.9841 21.1921C79.6187 20.5223 79.137 19.3254 78.7747 17.9277C75.3028 18.6943 68.9056 21.0348 69.3232 27.8552C69.8078 35.7712 70.5684 46.8368 79.6289 41.3978C78.8216 38.5198 78.8963 34.5707 80.5098 32.9622Z" stroke="#3F3F3E" stroke-width="0.75" stroke-miterlimit="10"/>
<path d="M78.8417 30.9013C78.554 32.9154 79.029 32.9725 80.5098 32.9624C80.6418 32.8308 80.7829 32.713 80.9358 32.6146C81.837 32.0353 82.9557 32.7202 84.0419 33.8781C84.31 34.1118 84.5736 34.381 84.83 34.6755C86.6918 36.8139 88.17 40.2295 88.17 40.2295C88.17 40.2295 90.8352 42.514 97.1176 44.2273C103.4 45.9407 119.582 41.9429 123.389 41.1814C125.544 40.7504 127.881 38.9175 129.504 37.4072C130.749 36.2487 131.575 35.2798 131.575 35.2798C133.829 31.0404 130.897 28.6574 128.803 23.222C126.451 17.1163 122.949 9.76747 118.82 6.34315C114.865 3.06318 104.23 -1.2044 96.1656 0.441599C88.3155 2.04377 82.2428 8.16841 80.3648 9.38911C77.7752 11.0723 78.0042 14.956 78.7747 17.9279C79.137 19.3256 79.6186 20.5224 79.984 21.1922C81.1262 23.2863 79.2225 28.236 78.8417 30.9013Z" stroke="#3F3F3E" stroke-width="0.75" stroke-miterlimit="10"/>
<path d="M57.9702 133.844C57.689 133.863 57.4305 133.87 57.1982 133.863" stroke="#3F3F3E" stroke-width="0.75" stroke-miterlimit="10"/>
<path d="M148.085 131.852L147.018 135.994L147.456 137.399C149.056 137.323 150.179 137.233 150.231 137.129L150.885 133.535C149.966 132.863 149.026 132.309 148.085 131.852Z" stroke="#3F3F3E" stroke-width="0.75" stroke-miterlimit="10"/>
<path d="M162.053 160.955C161.959 161.83 161.885 162.452 161.885 162.452L160.247 166.043C160.247 166.043 159.932 167.177 158.357 165.791C156.783 164.405 158.861 160.688 158.861 160.688C157.905 159.679 158.202 158.181 158.319 157.735C158.012 157.492 157.703 157.254 157.393 157.019L150.679 152.961C150.384 152.782 150.094 152.593 149.811 152.395C149.528 152.196 149.252 151.988 148.983 151.771L148.589 151.453L146.637 149.876C146.637 149.876 146.59 150.076 146.508 150.399C146.356 150.996 146.086 152.021 145.772 153.029C145.817 153.445 145.874 153.876 145.942 154.321C146.396 154.472 146.866 154.636 147.376 154.834C150.102 155.889 153.884 161.047 157.315 166.442C157.442 166.641 157.568 166.84 157.693 167.039C161.532 173.139 164.858 179.36 165.652 180.153C167.175 181.676 173.457 174.442 173.457 174.442C173.457 174.442 171.416 169.518 162.053 160.955Z" stroke="#3F3F3E" stroke-width="0.75" stroke-miterlimit="10"/>
<path d="M134.835 131.875C134.734 131.861 134.634 131.845 134.533 131.83" stroke="#3F3F3E" stroke-width="0.75" stroke-miterlimit="10"/>
<path d="M61.9894 168.385C61.9894 168.385 54.3884 165.865 51.5687 165.003L45.1917 163.01C44.9594 164.552 44.6045 166.589 44.3827 167.985L56.2134 170.582L55.8926 176.352L43.56 172.92C43.2188 174.841 42.9147 176.36 42.6689 177.292L61.0972 181.848L61.9894 168.385Z" stroke="#3F3F3E" stroke-width="0.75" stroke-miterlimit="10"/>
<path d="M47.5674 130.795C47.2305 130.796 46.8742 130.852 46.4839 130.979" stroke="#3F3F3E" stroke-width="0.75" stroke-miterlimit="10"/>
<path d="M47.5674 130.795C47.6796 130.795 47.7897 130.801 47.8982 130.812C48.2784 130.853 48.6386 130.972 49.0011 131.127" stroke="#3F3F3E" stroke-width="0.75" stroke-miterlimit="10"/>
<path d="M56.156 123.8C55.123 124.017 54.2672 124.175 53.6297 124.261C51.6812 124.524 50.1616 124.993 48.9677 125.57C48.8042 125.649 48.646 125.729 48.4947 125.812C44.2583 128.135 44.7081 131.899 44.7081 131.899C45.3828 131.443 45.9634 131.148 46.4838 130.979C46.8741 130.852 47.2304 130.796 47.5673 130.795C47.6795 130.795 47.7896 130.8 47.8981 130.812C48.2783 130.852 48.6385 130.972 49.001 131.127C49.4148 131.303 49.8377 131.534 50.2917 131.794C50.3658 131.836 50.435 131.875 50.5112 131.919C50.9873 132.19 51.5077 132.481 52.108 132.752C52.7084 133.024 53.3888 133.276 54.1849 133.472C54.613 133.578 55.0741 133.667 55.5743 133.734C55.807 133.766 56.0502 133.791 56.3004 133.812C56.5881 133.836 56.8857 133.854 57.1982 133.863C57.4305 133.87 57.689 133.863 57.9702 133.844C58.1087 133.835 58.2648 133.816 58.415 133.801C58.7659 133.765 59.1362 133.719 59.5444 133.652C70.2839 131.913 100.401 119.957 107.668 118.15C115.57 116.186 122.198 105.493 122.198 105.493C122.198 105.493 70.8171 120.727 56.156 123.8Z" stroke="#3F3F3E" stroke-width="0.75" stroke-miterlimit="10"/>
<path d="M149.22 165.918C148.74 164.687 148.292 163.373 147.864 162.025C148.142 165.247 148.324 168.832 147.774 169.004C146.766 169.319 145.443 169.067 145.254 168.122C145.124 167.47 144.185 161.246 143.614 157.446C143.551 157.022 143.492 156.633 143.44 156.28C142.058 156.508 140.017 156.162 139.482 155.092C139.212 154.553 139.343 153.964 139.613 153.437C140.072 152.539 140.937 151.817 140.937 151.817L141.058 150.24C141.058 150.24 139.482 149.27 137.784 148.179C137.32 147.88 136.947 147.263 136.674 146.477C135.948 144.386 135.932 141.088 136.813 139.325C137.029 138.894 137.248 138.321 137.463 137.671C136.316 137.69 135.573 137.7 135.573 137.7C135.573 137.7 134.732 135.512 134.56 132.926C134.558 132.905 134.557 132.884 134.556 132.864C134.535 132.524 134.528 132.178 134.533 131.829C134.382 131.806 134.228 131.788 134.08 131.761C131.977 131.387 130.155 130.692 129.335 129.498C129.176 129.266 129.008 128.97 128.835 128.617C128.574 128.089 128.3 127.435 128.016 126.685C127.827 126.186 127.634 125.644 127.439 125.069C126.951 123.631 126.448 121.985 125.956 120.272C125.76 119.587 125.565 118.891 125.373 118.194C125.278 117.845 125.183 117.496 125.089 117.147C124.807 116.101 124.535 115.061 124.277 114.058C124.192 113.724 124.107 113.394 124.025 113.069C123.86 112.418 123.703 111.789 123.555 111.189C123.481 110.889 123.409 110.597 123.34 110.313C123.201 109.745 123.072 109.212 122.954 108.722C122.484 106.761 122.198 105.493 122.198 105.493C122.198 105.493 115.57 116.186 107.668 118.15C100.401 119.957 70.284 131.913 59.5445 133.652C59.1363 133.719 58.766 133.765 58.4152 133.801C58.2649 133.816 58.1089 133.835 57.9703 133.844C57.6892 133.863 57.4307 133.87 57.1984 133.863C56.8859 133.854 56.5882 133.836 56.3006 133.812C56.0503 133.791 55.8072 133.766 55.5745 133.734C55.0743 133.667 54.6132 133.578 54.1851 133.472C53.389 133.276 52.7086 133.024 52.1082 132.752C51.5078 132.481 50.9875 132.19 50.5114 131.919C50.4351 131.875 50.366 131.836 50.2919 131.794C50.1388 131.95 50 132.186 49.8773 132.554C49.2654 134.389 51.2607 133.819 56.1801 134.881C56.6699 134.987 57.1784 135.103 57.7267 135.245C58.8434 135.535 60.2511 135.763 61.8026 135.943C68.6641 136.739 78.3593 136.591 78.3593 136.591C78.3593 136.591 79.5982 135.69 81.2903 134.493C84.0073 132.572 87.8955 129.886 89.7214 128.925C92.6846 127.365 102.354 120.347 102.354 120.347C102.354 120.347 104.381 120.815 104.225 122.531C104.069 124.246 100.482 128.613 98.6109 130.173C96.7394 131.732 94.2441 132.668 94.868 133.915C94.9564 134.092 95.3337 134.288 95.9038 134.493C99.3583 135.738 110.152 137.346 110.152 137.346L114.986 137.19C114.986 137.19 119.821 135.787 119.977 137.346C120.084 138.417 119.088 139.782 118.454 140.532C118.164 140.875 117.949 141.089 117.949 141.089C117.949 141.089 117.637 144.364 115.142 144.52L114.986 146.548C114.986 146.548 111.243 150.758 110.152 150.914C109.06 151.07 103.913 151.226 103.913 151.226C103.913 151.226 92.0608 153.41 89.4096 152.942C86.7583 152.474 82.9072 151.676 81.9476 151.841L81.7233 154.981C81.4991 158.12 76.7895 163.054 74.0982 163.727C72.7226 164.071 69.0616 163.184 65.2422 162.025C62.5479 161.208 59.7763 160.256 57.6705 159.504L53.4085 158.086C51.1521 157.566 50.4116 158.071 48.3074 157.896C47.6368 157.84 46.5199 157.575 45.1662 157.174L44.2379 162.537L60.9107 168.077L61.9896 168.384L61.0974 181.848L42.6691 177.292C40.8849 184.057 47.0025 192.131 56.9436 196.714C66.8846 201.297 147.178 201.515 149.982 190.386C150.099 189.919 150.193 189.372 150.27 188.764C150.855 184.078 150.264 175.39 149.22 165.918Z" stroke="#3F3F3E" stroke-width="0.75" stroke-miterlimit="10"/>
<path d="M157.315 166.443C153.884 161.047 150.102 155.889 147.376 154.834C146.866 154.637 146.396 154.472 145.942 154.321C145.761 154.261 145.574 154.196 145.402 154.143C145.122 154.917 144.832 155.563 144.575 155.82C144.369 156.026 144.004 156.173 143.562 156.26C143.522 156.268 143.481 156.274 143.439 156.281C143.492 156.633 143.551 157.022 143.614 157.446C144.185 161.247 145.124 167.47 145.254 168.122C145.443 169.067 146.766 169.319 147.774 169.004C148.324 168.832 148.142 165.248 147.864 162.025C147.632 159.342 147.333 156.909 147.333 156.909L149.349 156.783C149.349 156.783 150.546 157.917 150.735 158.799C150.924 159.681 151.932 160.625 151.932 160.625L151.428 164.783L150.357 167.051C150.105 168.815 151.554 169.067 152.247 169.004C152.94 168.941 153.759 166.673 153.759 166.673C153.759 167.366 154.956 168.248 155.523 168.185C155.891 168.144 156.977 167.492 157.693 167.039C157.568 166.84 157.442 166.641 157.315 166.443Z" stroke="#3F3F3E" stroke-width="0.75" stroke-miterlimit="10"/>
<path d="M145.402 154.143C145.575 154.196 145.761 154.261 145.943 154.321C145.875 153.877 145.817 153.445 145.773 153.03C145.769 153.043 145.765 153.056 145.761 153.069C145.646 153.438 145.525 153.802 145.402 154.143Z" stroke="#3F3F3E" stroke-width="0.75" stroke-miterlimit="10"/>
<path d="M134.533 131.829C134.528 132.178 134.535 132.524 134.556 132.864C134.538 132.565 134.607 132.228 134.835 131.874C134.734 131.86 134.633 131.845 134.533 131.829Z" stroke="#3F3F3E" stroke-width="0.75" stroke-miterlimit="10"/>
<path d="M65.2421 162.025L57.6704 159.504C59.7762 160.256 62.5478 161.208 65.2421 162.025Z" stroke="#3F3F3E" stroke-width="0.75" stroke-miterlimit="10"/>
<path d="M53.4082 158.086L57.6702 159.505C56.9209 159.237 56.2547 158.995 55.708 158.793C54.7785 158.451 54.0378 158.231 53.4082 158.086Z" stroke="#3F3F3E" stroke-width="0.75" stroke-miterlimit="10"/>
<path d="M80.9814 151.95C81.4401 151.906 81.786 151.869 81.9478 151.841L80.9851 151.919C80.9838 151.929 80.9827 151.94 80.9814 151.95Z" stroke="#3F3F3E" stroke-width="0.75" stroke-miterlimit="10"/>
<path d="M80.9811 151.95C79.8575 160.604 73.2376 161.814 73.2376 161.814L73.832 152.501C73.7142 152.509 73.6495 152.514 73.6495 152.514C73.6495 152.514 74.4337 143.897 75.739 140.021C75.9951 139.26 76.2708 138.679 76.5651 138.385L78.3592 136.591C78.3592 136.591 68.664 136.739 61.8025 135.943C60.251 135.763 58.8433 135.535 57.7266 135.245C57.1783 135.103 56.6698 134.987 56.1799 134.881C51.2606 133.819 49.2653 134.389 49.8772 132.554C49.9999 132.186 50.1387 131.95 50.2918 131.794C49.8377 131.534 49.4149 131.303 49.0011 131.127C48.6386 130.972 48.2784 130.852 47.8981 130.812C47.7897 130.8 47.6796 130.794 47.5673 130.795C47.2305 130.795 46.8742 130.852 46.4838 130.979C45.9634 131.148 45.3829 131.443 44.7082 131.899C44.7082 131.899 44.2583 128.135 48.4948 125.812C48.5645 125.535 48.6306 125.248 48.689 124.938C48.9773 123.402 48.2144 121.798 47.2926 120.178C46.5939 117.671 45.8674 114.83 45.3342 112.143C44.5481 108.182 44.1843 104.563 44.9632 102.874C46.6945 99.1187 47.8515 96.0786 48.9068 93.1469C49.9968 90.1184 50.2916 86.9205 49.7385 83.787C48.6304 77.5085 47.4452 68.8373 48.8332 66.4604L48.5726 64.6924C45.8889 66.1008 43.2674 67.4437 42.4763 67.7403C40.6822 68.4131 33.7299 70.8801 33.9542 75.814C34.1784 80.7479 27.4505 89.4943 27.6747 93.3069C27.8989 97.1194 27.6747 99.8107 27.0019 101.38C26.3291 102.95 25.8805 114.388 24.9835 116.182C24.0864 117.976 20.0496 133.002 22.068 137.039C24.0864 141.076 28.5718 149.598 32.1601 151.841C34.8541 153.525 41.0874 155.967 45.1661 157.174C46.5198 157.575 47.6367 157.84 48.3073 157.896C50.4115 158.071 51.152 157.566 53.4083 158.086C54.0379 158.23 54.7786 158.451 55.7081 158.793C56.2548 158.994 56.921 159.237 57.6704 159.504L65.2421 162.025C69.0615 163.184 72.7225 164.071 74.0981 163.727C76.7894 163.054 81.499 158.12 81.7232 154.981L81.9475 151.841C81.7857 151.869 81.4398 151.906 80.9811 151.95Z" stroke="#3F3F3E" stroke-width="0.75" stroke-miterlimit="10"/>
<path d="M73.6494 152.514C73.6494 152.514 73.7141 152.509 73.8319 152.501L73.832 152.499L73.6494 152.514Z" stroke="#3F3F3E" stroke-width="0.75" stroke-miterlimit="10"/>
<path d="M57.1986 133.863C56.886 133.854 56.5884 133.836 56.3008 133.812" stroke="#3F3F3E" stroke-width="0.75" stroke-miterlimit="10"/>
<path d="M135.548 131.139C135.217 131.387 134.99 131.634 134.835 131.875C134.607 132.228 134.538 132.566 134.556 132.864C134.557 132.885 134.558 132.906 134.56 132.927C134.732 135.512 135.573 137.7 135.573 137.7C135.573 137.7 136.316 137.691 137.463 137.671C137.533 137.46 137.602 137.241 137.671 137.015C138.154 135.427 138.599 133.549 138.911 132.133C139.136 131.113 139.292 130.333 139.342 130.082C137.594 130.204 136.233 130.625 135.548 131.139Z" stroke="#3F3F3E" stroke-width="0.75" stroke-miterlimit="10"/>
<path d="M56.2134 170.582L44.3827 167.985L43.699 167.835L43.0571 172.78L43.5599 172.92L55.8925 176.352L56.2134 170.582Z" stroke="#3F3F3E" stroke-width="0.75" stroke-miterlimit="10"/>
<path d="M131.989 93.4915C133.169 90.9434 134.153 87.769 133.868 84.593L128.092 81.8457C128.092 81.8457 127.108 84.447 125.614 87.2673C125.147 88.1494 124.627 89.0483 124.074 89.9C123.58 90.6612 123.06 91.3854 122.519 92.0128C121.597 91.5811 120.662 91.2305 119.737 90.9756C119.201 90.8281 118.668 90.7042 118.144 90.637L114.936 96.1315C114.936 96.1315 116.292 96.6819 118.109 97.4851C121.745 99.0926 127.236 101.717 127.45 103C127.616 103.995 128.899 102.854 130.099 101.523C130.713 100.843 131.297 100.123 131.706 99.6025C131.774 99.5158 131.839 99.4338 131.896 99.3599C132.121 99.0687 132.263 98.8787 132.263 98.8787C132.263 98.8787 131.426 98.0733 130.078 96.9659C130.66 96.0557 131.353 94.8646 131.989 93.4915Z" stroke="#3F3F3E" stroke-width="0.75" stroke-miterlimit="10"/>
<path d="M110.586 95.3321L110.122 81.8457L74.504 82.1204L74.1831 101.351L75.1904 101.329L102.405 100.715L108.227 100.584L110.764 100.527L110.586 95.3321Z" stroke="#3F3F3E" stroke-width="0.75" stroke-miterlimit="10"/>
<path d="M142.904 105.029L142.853 104.098L131.989 93.491C131.353 94.8642 130.661 96.0553 130.078 96.9655C131.426 98.0729 132.263 98.8783 132.263 98.8783C132.263 98.8783 132.122 99.0682 131.896 99.3594C131.839 99.4333 131.774 99.5154 131.706 99.6021C131.297 100.123 130.713 100.843 130.1 101.523C128.899 102.854 127.616 103.995 127.45 102.999C127.236 101.717 121.746 99.0922 118.109 97.4846C116.292 96.6815 114.936 96.131 114.936 96.131L118.145 90.6365C118.668 90.7038 119.202 90.8276 119.737 90.9752C120.663 91.2301 121.597 91.5807 122.519 92.0124C123.06 91.385 123.58 90.6608 124.074 89.8996C124.627 89.0479 125.147 88.1489 125.614 87.2669L119.215 81.0186L116.901 78.7598C115.796 77.2296 113.828 76.3135 111.727 76.3507L96.4344 76.5654L75.9003 76.8536L75.6302 76.8573L72.579 76.9001C70.6114 76.9482 68.7704 77.7423 67.5544 79.0674L62.4268 84.2679L57.0374 89.7338L48.8335 98.0541L53.63 124.261C54.2676 124.175 55.1234 124.017 56.1564 123.8C70.8174 120.727 122.198 105.493 122.198 105.493C122.198 105.493 122.485 106.761 122.955 108.722C123.072 109.212 123.201 109.745 123.34 110.313C123.409 110.597 123.481 110.889 123.555 111.189C123.703 111.789 123.861 112.418 124.025 113.069C124.108 113.394 124.192 113.724 124.278 114.058C124.535 115.061 124.807 116.101 125.089 117.147C125.183 117.496 125.278 117.845 125.374 118.194C125.565 118.891 125.76 119.587 125.957 120.272C126.448 121.985 126.951 123.631 127.439 125.069C127.634 125.644 127.827 126.186 128.016 126.685C128.3 127.435 128.574 128.089 128.835 128.617C129.008 128.97 129.176 129.266 129.335 129.498C130.155 130.692 131.977 131.387 134.081 131.761C134.229 131.788 134.383 131.806 134.533 131.829C134.549 130.858 134.678 129.867 135.002 128.943C135.01 128.921 135.017 128.899 135.025 128.876C136.35 125.089 137.667 121.138 137.667 121.138C137.667 121.138 141.284 118.853 141.284 118.282C141.284 117.711 141.665 110.096 142.998 108.954C143.036 108.921 143.075 108.891 143.113 108.859L142.904 105.029ZM108.227 100.584L102.405 100.715L75.1906 101.328L74.1834 101.351L74.5042 82.12L110.122 81.8453L110.586 95.3317L110.764 100.527L108.227 100.584Z" stroke="#3F3F3E" stroke-width="0.75" stroke-miterlimit="10"/>
<path d="M73.2378 161.814C73.2378 161.814 79.8578 160.604 80.9814 151.95C78.9747 152.139 74.7587 152.436 73.8322 152.501L73.2378 161.814Z" stroke="#3F3F3E" stroke-width="0.75" stroke-miterlimit="10"/>
<path d="M73.8322 152.499L73.832 152.501C74.7585 152.436 78.9745 152.139 80.9812 151.95C80.9825 151.94 80.9835 151.929 80.9849 151.919L73.8322 152.499Z" stroke="#3F3F3E" stroke-width="0.75" stroke-miterlimit="10"/>
<path d="M75.7389 140.021C74.4335 143.897 73.6494 152.514 73.6494 152.514L73.832 152.499L80.9847 151.919L81.9473 151.841C82.9069 151.676 86.7581 152.474 89.4093 152.942C92.0606 153.41 103.913 151.227 103.913 151.227C103.913 151.227 109.06 151.071 110.151 150.915C111.243 150.759 114.986 146.548 114.986 146.548L115.142 144.521C117.637 144.365 117.949 141.09 117.949 141.09C117.949 141.09 118.164 140.875 118.453 140.532C119.088 139.782 120.084 138.417 119.976 137.347C119.821 135.787 114.986 137.191 114.986 137.191L110.151 137.347C110.151 137.347 99.358 135.739 95.9036 134.494C95.3334 134.288 94.9561 134.092 94.8677 133.916C94.2439 132.668 96.7392 131.732 98.6107 130.173C100.482 128.613 104.069 124.246 104.225 122.531C104.381 120.815 102.354 120.348 102.354 120.348C102.354 120.348 92.6843 127.366 89.7212 128.925C87.8953 129.886 84.007 132.572 81.2901 134.494C79.598 135.69 78.3591 136.591 78.3591 136.591L76.5649 138.385C76.2707 138.679 75.9949 139.261 75.7389 140.021Z" stroke="#3F3F3E" stroke-width="0.75" stroke-miterlimit="10"/>
<path d="M136.332 60.2723C136.258 60.7438 136.137 61.2093 135.946 61.6577C135.297 61.368 132.526 57.6108 129.08 56.7595C126.674 56.1649 123.581 58.4165 122.165 58.2069C120.384 61.9103 117.297 63.8355 117.297 63.8355C117.297 63.8355 117.296 64.2847 117.263 64.9147C118.868 65.0526 120.399 65.3493 121.832 65.7256C126.209 66.8758 129.637 68.7853 131.181 69.3243C131.668 69.494 132.111 69.5649 132.546 69.4821C135.151 68.9866 136.444 67.3949 136.731 62.8536C136.762 62.3593 136.785 61.8404 136.792 61.2736C136.798 60.8507 136.622 60.5292 136.332 60.2723Z" stroke="#3F3F3E" stroke-width="0.75" stroke-miterlimit="10"/>
<path d="M134.037 53.1125C132.155 51.113 129.036 50.1774 126.933 49.4468C126.192 51.9205 125.076 52.2798 123.983 54.0041C123.873 54.1771 123.764 54.3674 123.655 54.5717C123.369 55.1086 123.087 55.7593 122.818 56.6014C122.796 56.6703 122.768 56.7341 122.745 56.8022C122.577 57.2977 122.378 57.7625 122.165 58.2068C123.597 58.4189 126.646 56.1569 129.08 56.7595C132.499 57.6058 135.302 61.3703 135.946 61.6577C136.137 61.2093 136.258 60.7438 136.332 60.2723C136.763 57.4998 135.332 54.4887 134.037 53.1125Z" fill="#5C6BC4"/>
<path d="M66.9049 57.3683L69.7391 56.4154C69.7288 55.8615 70.2292 55.5063 70.7088 55.5907L75.7105 48.0715C73.2782 47.2005 68.9249 49.1499 66.9017 48.3523C66.894 50.4788 66.9049 57.3683 66.9049 57.3683Z" stroke="#3F3F3E" stroke-width="0.75" stroke-miterlimit="10"/>
<path d="M94.6646 71.5723C92.406 69.7786 90.5449 67.8074 89.5428 66.6771C89.4908 66.6185 89.4334 66.5652 89.3792 66.5087C87.5483 65.8007 83.037 64.3123 80.8446 63.2429C80.7898 63.2163 80.7329 63.1859 80.6778 63.1586C76.5411 61.1092 73.7225 57.9573 71.0963 55.7663C70.9768 55.6666 70.8433 55.6143 70.7087 55.5905C70.2292 55.506 69.7288 55.8613 69.739 56.4152L66.9048 57.3681L66.3184 62.0162C66.3184 62.0162 68.8457 64.2428 68.5493 64.1182C68.5517 64.2142 72.34 68.1107 73.6641 69.5463C76.0245 71.0828 78.7273 72.231 81.1588 72.7577C81.3255 72.7938 81.494 72.8236 81.6619 72.8555C82.0944 72.9379 82.5316 73.0029 82.9706 73.0595C83.6367 73.1453 84.3082 73.2051 84.9819 73.2377C88.6841 73.4173 92.4305 72.8536 95.4729 72.1775C95.2016 71.9769 94.9257 71.7797 94.6646 71.5723Z" stroke="#3F3F3E" stroke-width="0.75" stroke-miterlimit="10"/>
<path d="M62.1466 49.0519L62.1529 49.0522C63.1837 49.1111 64.0302 49.7723 64.1931 50.6457L64.8846 54.3549L62.3103 55.4715L65.1983 61.2408C65.4808 61.4021 66.2473 61.8208 66.2473 61.8208C66.2473 61.8208 66.7014 58.5909 66.8557 56.7038C66.7668 53.5602 66.894 50.4787 66.9016 48.3522C66.9073 46.7896 66.8488 45.74 66.5909 45.5744C65.5713 44.9197 58.9826 43.5145 58.9826 43.5145C58.9826 43.5145 49.8062 42.8598 45.7278 46.3515C41.6494 49.8433 41.3945 51.1527 42.669 51.5891C43.7033 51.9434 44.9055 52.1541 45.1855 53.5042C45.197 53.5598 45.2049 53.6197 45.2133 53.6792C48.5293 51.9837 55.5108 48.6732 59.1015 48.8781L62.1466 49.0519Z" fill="#5C6BC4"/>
<path d="M62.3103 55.4717L64.8846 54.3551L64.1931 50.6459C64.0302 49.7724 63.1837 49.1112 62.1529 49.0524L62.1466 49.052L59.1015 48.8782C55.5108 48.6733 48.5293 51.9838 45.2133 53.6793C44.0842 54.2567 43.3781 54.6475 43.3781 54.6475C42.8357 61.8002 47.767 59.2274 47.767 59.2274L47.8417 59.7344L48.5726 64.6927L48.8332 66.4608C49.1991 65.8342 49.7549 65.2009 50.4455 64.5906C50.9444 64.1498 51.5177 63.7228 52.1411 63.3189C54.0996 62.0499 56.5767 61.0183 58.9953 60.5809C61.2825 60.1674 63.5153 60.2803 65.1983 61.241L62.3103 55.4717Z" stroke="#3F3F3E" stroke-width="0.75" stroke-miterlimit="10"/>
<path d="M162.389 155.46C162.137 154.83 153.003 145.38 151.995 144.498C150.987 143.616 148.215 139.837 148.215 139.837L147.456 137.399L147.018 135.994L148.085 131.852C146.886 131.27 145.686 130.851 144.526 130.564C144.45 130.545 144.376 130.533 144.299 130.515C142.49 130.092 140.783 129.981 139.342 130.082C139.292 130.332 138.154 135.427 137.671 137.015C137.602 137.24 137.533 137.46 137.463 137.671C137.248 138.321 137.029 138.894 136.813 139.325C135.932 141.088 135.948 144.386 136.674 146.477C136.947 147.264 137.32 147.88 137.784 148.179C139.482 149.27 141.058 150.24 141.058 150.24L140.937 151.817C140.937 151.817 140.072 152.539 139.613 153.437C139.343 153.965 139.212 154.553 139.482 155.092C140.017 156.162 142.058 156.508 143.44 156.28C143.481 156.274 143.522 156.267 143.562 156.26C144.004 156.173 144.369 156.025 144.575 155.819C144.832 155.563 145.122 154.917 145.402 154.142C145.525 153.802 145.645 153.437 145.761 153.069C145.765 153.056 145.768 153.043 145.772 153.029C146.086 152.021 146.356 150.996 146.508 150.399C146.59 150.076 146.637 149.876 146.637 149.876L148.589 151.453L148.983 151.771C149.252 151.988 149.528 152.196 149.811 152.395C150.094 152.593 150.384 152.782 150.679 152.961L157.393 157.019C157.703 157.254 158.012 157.492 158.319 157.735C158.202 158.181 157.905 159.679 158.861 160.688C158.861 160.688 156.783 164.405 158.357 165.791C159.932 167.177 160.247 166.043 160.247 166.043L161.885 162.452C161.885 162.452 161.959 161.83 162.053 160.955C162.259 159.033 162.562 155.893 162.389 155.46Z" stroke="#3F3F3E" stroke-width="0.75" stroke-miterlimit="10"/>
<path d="M123.389 41.1814C119.582 41.9429 103.4 45.9407 97.1176 44.2273C90.8353 42.514 88.1701 40.2295 88.1701 40.2295C88.1701 40.2295 86.6919 36.8139 84.8301 34.6755C84.5736 34.381 84.3101 34.1118 84.042 33.8781C82.9558 32.7202 81.837 32.0353 80.9359 32.6146C80.783 32.713 80.6418 32.8308 80.5098 32.9624C78.8963 34.5708 78.8216 38.5199 79.6289 41.398C79.6956 41.6356 79.7678 41.8663 79.8461 42.0874C78.9778 42.6126 78.0641 43.4984 77.3188 44.9889C76.7377 46.1513 73.8784 50.9902 73.8784 50.9902L70.709 55.5908C70.8436 55.6146 70.977 55.667 71.0965 55.7666C73.7227 57.9576 76.5414 61.1095 80.678 63.159C80.7331 63.1862 80.7901 63.2166 80.8448 63.2433C83.0373 64.3126 87.5486 65.801 89.3794 66.5091C89.4337 66.5655 89.491 66.6188 89.543 66.6775C90.5452 67.8077 92.4063 69.7789 94.6649 71.5727C94.926 71.78 95.2019 71.9772 95.4731 72.1779C95.651 72.3095 95.8217 72.4469 96.0031 72.5748C96.0722 72.6236 96.1409 72.6726 96.2105 72.7207C97.1679 73.3823 98.172 73.9783 99.1938 74.4494C99.5171 74.5984 99.8419 74.734 100.168 74.8555C101.571 75.3789 102.99 75.6325 104.352 75.4484C104.352 75.4484 105.798 75.1571 108.55 72.5924C109.527 71.6823 110.677 70.4644 111.977 68.893C112.164 68.667 112.344 68.4563 112.538 68.2143C112.538 68.2143 112.792 68.2748 113.178 68.3408C114.324 68.537 116.632 68.7823 116.916 67.6432C116.954 67.492 116.987 67.332 117.018 67.1687C117.159 66.4151 117.229 65.5678 117.263 64.9149C117.297 64.2849 117.297 63.8357 117.297 63.8357C117.297 63.8357 120.385 61.9105 122.165 58.2071C122.378 57.7627 122.577 57.2979 122.745 56.8024C122.768 56.7344 122.796 56.6706 122.818 56.6016C123.087 55.7595 123.369 55.1088 123.655 54.5719C123.764 54.3676 123.873 54.1773 123.983 54.0043C125.076 52.2801 126.193 51.9207 126.933 49.447C127.026 49.1352 127.116 48.802 127.196 48.4156C127.958 44.7617 129.083 39.407 129.504 37.4072C127.881 38.9175 125.544 40.7504 123.389 41.1814Z" stroke="#3F3F3E" stroke-width="0.75" stroke-miterlimit="10"/>
<path d="M139.181 82.153C137.763 75.1139 137.301 67.6956 137.03 63.0345C136.927 62.9715 136.828 62.9119 136.731 62.8538C136.444 67.3951 135.151 68.9868 132.546 69.4823C132.112 69.5651 131.668 69.4942 131.182 69.3245C129.637 68.7855 126.209 66.876 121.832 65.7258C120.399 65.3495 118.868 65.0528 117.263 64.9149C117.229 65.5678 117.16 66.4151 117.018 67.1687C116.987 67.332 116.954 67.492 116.916 67.6432C116.632 68.7823 114.324 68.5369 113.178 68.3408C112.792 68.2748 112.538 68.2143 112.538 68.2143C112.344 68.4563 112.164 68.667 111.977 68.893C110.677 70.4644 109.527 71.6823 108.55 72.5924C105.798 75.1571 104.352 75.4484 104.352 75.4484C102.99 75.6325 101.571 75.3789 100.168 74.8555C99.842 74.734 99.5171 74.5984 99.1938 74.4494C98.172 73.9783 97.1679 73.3823 96.2105 72.7207C96.141 72.6726 96.0722 72.6236 96.0031 72.5748C95.8217 72.4468 95.651 72.3095 95.4731 72.1779C92.4308 72.854 88.6843 73.4176 84.9821 73.2381C84.3085 73.2054 83.637 73.1456 82.9709 73.0598C82.5319 73.0033 82.0946 72.9382 81.6622 72.8559C81.4943 72.8239 81.3257 72.7941 81.159 72.758C78.7276 72.2313 76.0247 71.0831 73.6643 69.5466C72.3402 68.111 68.5178 63.909 67.9404 63.3651C67.0179 62.4961 66.1026 61.757 65.1986 61.2411C63.5155 60.2804 61.2827 60.1674 58.9956 60.581C56.5769 61.0183 54.0998 62.05 52.1413 63.319C51.518 63.7229 50.9446 64.1499 50.4457 64.5907C49.7551 65.201 49.1993 65.8343 48.8334 66.4608C47.4453 68.8377 48.6306 77.5089 49.7387 83.7874C50.2918 86.9209 49.997 90.1188 48.9069 93.1473C47.8516 96.079 46.6947 99.1191 44.9633 102.874C44.1845 104.563 44.5483 108.183 45.3344 112.144C45.8676 114.83 46.5941 117.671 47.2928 120.178C48.2146 121.799 48.9775 123.403 48.6892 124.938C48.6308 125.249 48.5647 125.536 48.4949 125.813C48.6463 125.73 48.8045 125.649 48.968 125.57C50.1619 124.993 51.6815 124.525 53.6299 124.261L48.8334 98.0545L57.0372 89.7341L62.4267 84.2682L67.5543 79.0678C68.7703 77.7427 70.6113 76.9486 72.5789 76.9005L75.6301 76.8577L75.9002 76.8539L96.4343 76.5657L111.727 76.3511C113.828 76.3138 115.796 77.23 116.901 78.7602L119.215 81.019L125.614 87.2673C127.108 84.4469 128.092 81.8456 128.092 81.8456L133.868 84.5929C134.153 87.7689 133.169 90.9433 131.989 93.4914L142.852 104.098L142.903 105.029C144.019 99.2333 140.657 89.4804 139.181 82.153Z" stroke="#3F3F3E" stroke-width="0.75" stroke-miterlimit="10"/>
<path d="M163.558 85.3475C162.416 80.0171 161.083 83.6342 160.131 83.2534C159.179 82.8727 158.798 79.0652 153.849 73.7348C148.899 68.4044 143.378 67.4525 143.378 66.3102C143.378 65.168 140.142 64.9777 137.096 63.0739C137.073 63.0593 137.053 63.048 137.03 63.0342C137.301 67.6953 137.763 75.1136 139.181 82.1527C140.657 89.4801 144.019 99.2329 142.904 105.029L143.113 108.859C143.075 108.891 143.036 108.921 142.997 108.954C141.665 110.096 141.284 117.711 141.284 118.282C141.284 118.853 137.667 121.138 137.667 121.138C137.667 121.138 136.35 125.089 135.025 128.876C135.017 128.899 135.01 128.921 135.002 128.943C134.678 129.867 134.549 130.858 134.533 131.829C134.634 131.845 134.734 131.86 134.835 131.874C134.99 131.634 135.217 131.386 135.548 131.138C136.233 130.624 137.594 130.204 139.342 130.082C140.783 129.981 142.49 130.092 144.3 130.515C144.376 130.533 144.45 130.545 144.526 130.564C145.686 130.851 146.886 131.27 148.085 131.852C149.026 132.309 149.966 132.863 150.886 133.535L150.232 137.129C150.422 136.748 156.324 124.564 159.56 121.518C162.796 118.472 166.033 111.619 165.842 107.24C165.652 102.862 163.938 103.243 165.842 99.6255C167.746 96.0084 164.7 90.6779 163.558 85.3475Z" stroke="#3F3F3E" stroke-width="0.75" stroke-miterlimit="10"/>
<path d="M118.454 140.532C118.454 140.532 112.244 142.905 111.102 142.905C109.96 142.905 98.1538 141.572 98.1538 141.572" stroke="#3F3F3E" stroke-width="0.75" stroke-miterlimit="10"/>
<path d="M115.142 144.521C115.142 144.521 113.006 146.903 110.911 147.094C108.817 147.284 103.104 147.665 103.104 147.665" stroke="#3F3F3E" stroke-width="0.75" stroke-miterlimit="10"/>
<path d="M153.759 166.673C153.759 166.673 154.707 162.708 154.517 162.137" stroke="#3F3F3E" stroke-width="0.75" stroke-miterlimit="10"/>
<path d="M146.637 149.877C146.637 149.877 146.709 145.38 146.519 144.619" stroke="#3F3F3E" stroke-width="0.75" stroke-miterlimit="10"/>
<path d="M139.613 153.437C139.613 153.437 142.822 156.929 144.576 155.819" stroke="#3F3F3E" stroke-width="0.75" stroke-miterlimit="10"/>
<path d="M136.237 145.57L134.523 151.092L140.045 158.519L140.807 156.424" stroke="#3F3F3E" stroke-width="0.75" stroke-miterlimit="10"/>
<path d="M110.797 70.2068C110.797 70.2068 105 67.0156 102.021 67.0156" stroke="#3F3F3E" stroke-width="0.75" stroke-miterlimit="10"/>
<path d="M117.297 63.8355C117.297 63.8355 117.019 58.2399 117.498 57.0432C117.977 55.8466 123.721 51.7778 123.721 51.7778" stroke="#3F3F3E" stroke-width="0.75" stroke-miterlimit="10"/>
<path d="M112.538 68.2142C112.538 68.2142 107.685 66.5371 107.845 65.1011" stroke="#3F3F3E" stroke-width="0.75" stroke-miterlimit="10"/>
<path d="M82.6489 46.3213C82.6489 46.3213 83.9229 49.7082 86.7122 48.1143" stroke="#3F3F3E" stroke-width="0.75" stroke-miterlimit="10"/>
<path d="M83.9229 38.1527C83.9229 38.1527 82.329 35.5227 81.3727 36.8776C80.4163 38.2324 81.8509 44.4486 84.7199 45.7237" stroke="#3F3F3E" stroke-width="0.75" stroke-miterlimit="10"/>
<path d="M130.292 31.2265C129.92 30.6681 121.729 9.26068 107.768 3.8623" stroke="#3F3F3E" stroke-width="0.75" stroke-miterlimit="10"/>
<path d="M74.5039 82.1201L110.764 100.527" stroke="#3F3F3E" stroke-width="0.75" stroke-miterlimit="10"/>
<path d="M109.559 82.9028L74.1831 101.351" stroke="#3F3F3E" stroke-width="0.75" stroke-miterlimit="10"/>
<path d="M106.366 59.0474C106.945 59.0474 107.415 58.5777 107.415 57.9983C107.415 57.4189 106.945 56.9492 106.366 56.9492C105.787 56.9492 105.317 57.4189 105.317 57.9983C105.317 58.5777 105.787 59.0474 106.366 59.0474Z" stroke="#3F3F3E" stroke-width="0.75" stroke-miterlimit="10"/>
<path d="M120.388 57.8023C120.869 57.8023 121.259 57.4123 121.259 56.9312C121.259 56.4501 120.869 56.0601 120.388 56.0601C119.907 56.0601 119.517 56.4501 119.517 56.9312C119.517 57.4123 119.907 57.8023 120.388 57.8023Z" fill="#3F3F3E"/>
<path d="M106.366 58.8696C106.847 58.8696 107.237 58.4796 107.237 57.9985C107.237 57.5174 106.847 57.1274 106.366 57.1274C105.885 57.1274 105.495 57.5174 105.495 57.9985C105.495 58.4796 105.885 58.8696 106.366 58.8696Z" fill="#3F3F3E"/>
<path d="M138.413 64.2607V71.8944C138.413 71.8944 147.955 79.369 150.499 83.5039C153.044 87.6388 156.543 96.3857 156.543 96.3857L160.131 83.2538" stroke="#3F3F3E" stroke-width="0.75" stroke-miterlimit="10"/>
<path d="M139.121 76.7798C139.121 76.7798 151.049 91.2519 150.254 93.3194C149.458 95.3868 149.299 99.3627 147.868 100.158C146.437 100.953 146.914 102.543 146.914 102.543" stroke="#3F3F3E" stroke-width="0.75" stroke-miterlimit="10"/>
<path d="M128.541 97.362C128.541 97.362 129.336 90.3645 131.245 88.4561" stroke="#3F3F3E" stroke-width="0.75" stroke-miterlimit="10"/>
<path d="M141.284 118.282C141.284 118.282 150.023 114.675 158.133 122.944" stroke="#3F3F3E" stroke-width="0.75" stroke-miterlimit="10"/>
<path d="M71.7771 163.498L70.0277 147.913L63.9844 146.322C63.9844 146.322 63.4778 160.393 65.2419 162.025" stroke="#3F3F3E" stroke-width="0.75" stroke-miterlimit="10"/>
<path d="M70.9822 136.303C70.9822 136.303 65.416 143.301 65.416 146.64" stroke="#3F3F3E" stroke-width="0.75" stroke-miterlimit="10"/>
<path d="M75.276 136.78C75.276 136.78 70.982 144.891 70.0278 147.913" stroke="#3F3F3E" stroke-width="0.75" stroke-miterlimit="10"/>
<path d="M43.8821 130.87C43.8821 130.87 35.3586 128.352 32.496 120.718C29.6334 113.084 27.5659 119.128 27.5659 119.128" stroke="#3F3F3E" stroke-width="0.75" stroke-miterlimit="10"/>
<path d="M46.0137 132.168C52.9001 133.809 35.6553 129.717 29.3151 130.896C24.5187 131.787 24.7031 132.486 24.7031 132.486" stroke="#3F3F3E" stroke-width="0.75" stroke-miterlimit="10"/>
<path d="M41.0837 68.0771L40.7656 70.6217C40.7656 70.6217 31.7006 82.3902 31.5416 86.5251C31.3826 90.66 28.2019 109.108 28.2019 109.108L26.2935 107.995" stroke="#3F3F3E" stroke-width="0.75" stroke-miterlimit="10"/>
<path d="M148.766 192.987C148.766 192.987 146.222 193.204 145.523 196.647C143.455 206.825 95.3143 201.348 94.6782 201.348C94.042 201.348 53.9248 203.672 50.9031 200.173C47.8815 196.674 48.2598 190.784 48.2598 190.784" stroke="#3F3F3E" stroke-width="0.75" stroke-miterlimit="10"/>
<path d="M134.533 131.83L119.741 138.302" stroke="#3F3F3E" stroke-width="0.75" stroke-miterlimit="10"/>
<path d="M66.8779 178.544L66.1768 187.378L130.397 187.939L129.556 176.301L66.8779 178.544Z" stroke="#3F3F3E" stroke-width="0.75" stroke-miterlimit="10"/>
<path d="M60.8165 60.1287L57.8022 54.2775L61.703 52.859L59.1015 48.8784" stroke="#3F3F3E" stroke-width="0.75" stroke-miterlimit="10"/>
<path d="M137.048 92.2451L140.124 95.8372" stroke="#3F3F3E" stroke-width="0.75" stroke-miterlimit="10"/>
</g>
</g>
<defs>
<clipPath id="clip0_1129_5905">
<rect width="200" height="200" fill="white"/>
</clipPath>
</defs>
</svg>
