<svg width="65" height="52" viewBox="0 0 65 52" fill="none" xmlns="http://www.w3.org/2000/svg">
<g clip-path="url(#clip0)">
<path d="M11.4149 23.875C14.8768 23.875 17.6915 21.0723 17.6915 17.625C17.6915 14.1777 14.8768 11.375 11.4149 11.375C7.95296 11.375 5.1383 14.1777 5.1383 17.625C5.1383 21.0723 7.95296 23.875 11.4149 23.875ZM55.3511 23.875C58.813 23.875 61.6277 21.0723 61.6277 17.625C61.6277 14.1777 58.813 11.375 55.3511 11.375C51.8891 11.375 49.0745 14.1777 49.0745 17.625C49.0745 21.0723 51.8891 23.875 55.3511 23.875ZM58.4894 27H52.2128C50.4867 27 48.9274 27.6934 47.7897 28.8164C51.742 30.9746 54.5469 34.8711 55.1549 39.5H61.6277C63.3635 39.5 64.766 38.1035 64.766 36.375V33.25C64.766 29.8027 61.9513 27 58.4894 27ZM33.383 27C39.4536 27 44.367 22.1074 44.367 16.0625C44.367 10.0176 39.4536 5.125 33.383 5.125C27.3123 5.125 22.3989 10.0176 22.3989 16.0625C22.3989 22.1074 27.3123 27 33.383 27ZM40.9149 30.125H40.1009C38.061 31.1016 35.7955 31.6875 33.383 31.6875C30.9704 31.6875 28.7148 31.1016 26.6651 30.125H25.8511C19.6137 30.125 14.5532 35.1641 14.5532 41.375V44.1875C14.5532 46.7754 16.6617 48.875 19.2606 48.875H47.5053C50.1042 48.875 52.2128 46.7754 52.2128 44.1875V41.375C52.2128 35.1641 47.1523 30.125 40.9149 30.125ZM18.9762 28.8164C17.8386 27.6934 16.2793 27 14.5532 27H8.2766C4.81466 27 2 29.8027 2 33.25V36.375C2 38.1035 3.40243 39.5 5.1383 39.5H11.6012C12.2191 34.8711 15.0239 30.9746 18.9762 28.8164Z" fill="#70A278"/>
</g>
<g clip-path="url(#clip1)">
<path d="M15.1915 15.625C15.1915 18.7941 12.6027 21.375 9.41489 21.375C6.2271 21.375 3.6383 18.7941 3.6383 15.625C3.6383 12.4559 6.2271 9.875 9.41489 9.875C12.6027 9.875 15.1915 12.4559 15.1915 15.625ZM59.1277 15.625C59.1277 18.7941 56.5389 21.375 53.3511 21.375C50.1633 21.375 47.5745 18.7941 47.5745 15.625C47.5745 12.4559 50.1633 9.875 53.3511 9.875C56.5389 9.875 59.1277 12.4559 59.1277 15.625ZM53.587 37C52.8823 32.6389 50.2847 28.9471 46.6421 26.731C47.6264 25.9594 48.864 25.5 50.2128 25.5H56.4894C59.6772 25.5 62.266 28.0809 62.266 31.25V34.375C62.266 35.8254 61.0894 37 59.6277 37H53.587ZM41.867 14.0625C41.867 19.8293 37.1795 24.5 31.383 24.5C25.5865 24.5 20.8989 19.8293 20.8989 14.0625C20.8989 8.29572 25.5865 3.625 31.383 3.625C37.1795 3.625 41.867 8.29572 41.867 14.0625ZM31.383 30.1875C33.8371 30.1875 36.1402 29.601 38.2135 28.625H38.9149C44.8781 28.625 49.7128 33.4422 49.7128 39.375V42.1875C49.7128 44.4972 47.8301 46.375 45.5053 46.375H17.2606C14.9359 46.375 13.0532 44.4972 13.0532 42.1875V39.375C13.0532 33.4422 17.8878 28.625 23.8511 28.625H24.5529C26.6345 29.6006 28.9281 30.1875 31.383 30.1875ZM12.5532 25.5C13.902 25.5 15.1395 25.9594 16.1239 26.731C12.4809 28.9473 9.88316 32.6392 9.17003 37H3.1383C1.67657 37 0.5 35.8254 0.5 34.375V31.25C0.5 28.0809 3.0888 25.5 6.2766 25.5H12.5532Z" stroke="#3B3D40"/>
</g>
<defs>
<clipPath id="clip0">
</clipPath>
<clipPath id="clip1">
</clipPath>
</defs>
</svg>
