<svg id="Layer_1" data-name="Layer 1" xmlns="http://www.w3.org/2000/svg" xmlns:xlink="http://www.w3.org/1999/xlink" viewBox="0 0 1300 294"><defs><style>.cls-1,.cls-4,.cls-6{fill:none;}.cls-2{clip-path:url(#clip-path);}.cls-3{fill:#428252;}.cls-4{stroke:#5f9c70;}.cls-10,.cls-4,.cls-6{stroke-miterlimit:10;}.cls-5{fill:#80b590;}.cls-10,.cls-6{stroke:#0a5d2b;}.cls-10,.cls-7{fill:#0a5d2b;}.cls-8{fill:#5f9c70;}.cls-9{fill:#b3d3bc;}.cls-10{stroke-width:0.55329px;}</style><clipPath id="clip-path"><rect class="cls-1" width="1300" height="294"/></clipPath></defs><g class="cls-2"><rect class="cls-3" width="1300" height="294"/><path class="cls-4" d="M959.52807,244.61609l7.13364,27.56313a.998.998,0,0,1-1.23274,1.21185l-27.43719-7.60364a.998.998,0,0,1-.43312-1.67352l20.30354-19.95948A.998.998,0,0,1,959.52807,244.61609Z"/><polygon class="cls-5" points="1144.748 295.195 1166.559 237.552 1055.636 234.125 905.814 293.717 1144.748 295.195"/><polygon class="cls-6" points="1141.633 295.195 1163.443 237.552 1052.52 234.125 902.698 293.717 1141.633 295.195"/><path class="cls-4" d="M69.16925,153.02505,35.65162,174.02478a.3769.3769,0,0,0,.02356.65238l34.94511,18.52725a.3769.3769,0,0,0,.5532-.3466l-1.42749-39.527A.37689.37689,0,0,0,69.16925,153.02505Z"/><path class="cls-4" d="M1003.309,185.38424l10.9169,64.48482a1.03633,1.03633,0,0,0,1.68249.62542l50.387-41.69672a1.03632,1.03632,0,0,0-.29962-1.76978l-61.30394-22.7881A1.03632,1.03632,0,0,0,1003.309,185.38424Z"/><rect class="cls-4" x="669.48829" y="-18.22927" width="34.60656" height="34.60656" rx="1.54728" transform="translate(127.99651 398.36286) rotate(-35.47058)"/><rect class="cls-4" x="325.291" y="228.94833" width="52.99823" height="52.99823" rx="2.36958" transform="translate(-41.69746 70.57666) rotate(-10.81938)"/><path class="cls-4" d="M715.61808,294h34.78625l21.25818-17.5918a1.03629,1.03629,0,0,0-.29962-1.76977l-61.30395-22.78809a1.03628,1.03628,0,0,0-1.38282,1.14435Z"/><circle class="cls-4" cx="1060.30758" cy="104.83707" r="46.39308"/><circle class="cls-4" cx="461.03883" cy="0.55769" r="22.59069"/><circle class="cls-4" cx="1104.36718" cy="-3.49495" r="22.59069"/><circle class="cls-4" cx="69.8687" cy="217.911" r="53.00195"/><path class="cls-1" d="M1157.16061,256.44881c.82056-3.193,2.3147-9.04578,3.50513-13.92316l-12.50049,10.29468A93.27285,93.27285,0,0,1,1157.16061,256.44881Z"/><path class="cls-7" d="M1067.53659,256.33986c-1.97559.10974-2.7439,0-2.634-1.86591.10961-1.8659,5.26831-2.08538,8.34155-3.07324,3.07324-.98779,9.65869,1.75617,9.65869,1.75617s-3.07324-3.40253-5.26831-4.39032c-1.64379-.73968-4.76436.67444-6.22857,1.43165a.75163.75163,0,0,1-1.07722-.56171c-.32452-1.99371,1.25887-2.5244,1.92761-4.05293a3.93043,3.93043,0,0,1,.73365-1.054l-39.7018,16.3478a1.57753,1.57753,0,0,0-.28515,2.76407L1052.21755,276.68a4.46333,4.46333,0,0,0,4.3029.39243l31.09988-13.67644c-3.707-2.75433-8.63819-5.963-10.0957-7.05609C1075.76852,255.02272,1069.51242,256.23006,1067.53659,256.33986Z"/><path class="cls-7" d="M1099.65037,233.55167l-3.53566,1.45585a36.17231,36.17231,0,0,1,17.85083,9.72126c3.00757,3.0075,4.33081,4.057,6.11377,4.39312l1.871-.82278a1.51572,1.51572,0,0,0,.23618-2.64491l-17.17445-11.55966A5.70924,5.70924,0,0,0,1099.65037,233.55167Z"/><path class="cls-7" d="M1095.85837,246.07l10.39477,2.34723a117.6921,117.6921,0,0,1-8.71826-8.04767c-1.56421-1.78784-4.90869-2.67907-6.97022-3.07672l-1.51318.623a7.75456,7.75456,0,0,1,1.644,2.50909C1091.68332,242.94936,1095.85837,246.07,1095.85837,246.07Z"/><path class="cls-8" d="M1148.16525,252.82033a62.93953,62.93953,0,0,0-15.42163-3.3971c-7.58276-.55481-10.47168.11206-12.66431-.30133-1.783-.33612-3.1062-1.38562-6.11377-4.39312a36.17231,36.17231,0,0,0-17.85083-9.72126,17.95851,17.95851,0,0,0-3.27417-.33838c-5.36523,0-4.02392,2.34723-4.02392,2.34723s.71631.07752,1.748.27649c2.06153.39765,5.406,1.28888,6.97022,3.07672a117.6921,117.6921,0,0,0,8.71826,8.04767L1095.85837,246.07s-4.175-3.12066-5.16285-5.64508a7.75456,7.75456,0,0,0-1.644-2.50909c-1.32422-1.3656-3.12256-2.23139-4.83154-1.66168-2.63428.87805-2.52442,2.96344-2.52442,2.96344s-4.28076-.10975-5.488,2.96344a13.84518,13.84518,0,0,0-3.21753,2.34851,3.93043,3.93043,0,0,0-.73365,1.054c-.66857,1.52815-2.25133,2.059-1.92786,4.05142a.75263.75263,0,0,0,1.07871.56259c1.46474-.75738,4.584-2.17049,6.22733-1.431,2.19507.98779,5.26831,4.39032,5.26831,4.39032s-6.58545-2.744-9.65869-1.75617c-3.07324.98786-8.23194,1.20734-8.34155,3.07324-.10987,1.86591.65844,1.97565,2.634,1.86591,1.97583-.1098,8.23193-1.31714,9.988,0,1.45751,1.09314,6.38867,4.30176,10.0957,7.05609.75952.56421,1.47168,1.1109,2.0874,1.61475,3.62207,2.9635,16.13452,6.03668,16.13452,6.03668s6.31812,3.19018,11.87085,6.85113a48.63537,48.63537,0,0,1,5.25147,3.90516c4.5415,4.00732,15.51245,12.05969,21.19067,14.48681-1.13281-1.42975-2.49243-3.19452-4.03467-5.28766-3.7727-5.12018-2.77954-15.67914-2.24389-19.62793a6.33112,6.33112,0,0,1,1.43579-3.24353,16.83256,16.83256,0,0,1,6.50854-4.62469,12.25853,12.25853,0,0,1,10.73023,1.00592v-5.70044s.23486-.90595.60937-2.36334A93.27285,93.27285,0,0,0,1148.16525,252.82033Z"/><path class="cls-7" d="M984.52572,264.61983l-9.87634,5.60357a4.13006,4.13006,0,0,0-1.23549,6.11027l8.10974,10.54273a3.06379,3.06379,0,0,0,4.03225.74245L1045.81,250.59993a1.49509,1.49509,0,0,0-.01794-2.5586l-14.63148-8.7091L988.31711,264.271A4.4832,4.4832,0,0,1,984.52572,264.61983Z"/><path class="cls-3" d="M1066.71066,211.211l-2.001-12.5426-12.94482-81.1413a6.7216,6.7216,0,0,0-9.06836-5.20788l-77.00671,29.86712a7.4936,7.4936,0,0,0-4.66907,8.29792c2.75281,15.48639,10.64331,57.736,16.125,86.98419,1.86084,9.92859,3.44458,18.36157,4.45483,23.73749a4.525,4.525,0,0,0,6.71656,3.06512l42.8435-24.93878,30.68579-17.86194A10.04087,10.04087,0,0,0,1066.71066,211.211Z"/><path class="cls-8" d="M1193.7717,174.98232c4.51757-5.11994,16.60253-7.26313,19.01855-7.64673.03711-.40479.08716-.82593.15479-1.27368,1.14428-7.58155,1.28735-9.58417,1.28735-9.58417a26.57649,26.57649,0,0,1-4.57764,6.29406c-3.24756,3.24708-7.86841,6.08326-9.29809,6.008-2.71778-.143-11.873-3.004-12.7312-7.00934a71.26112,71.26112,0,0,1-1.14429-9.155s4.29126-12.15905-6.43726-12.016c0,0-5.865-5.14972-9.155-7.72461-2.563-2.00567-11.63354-6.18213-14.50512-12.6629a34.62075,34.62075,0,0,0-.801,6.22577c0,6.008-5.77637,22.033-5.77637,22.033.3042,3.64856,3.17286,1.20331,3.34473,3.64856.28589,4.07232,6.08081,19.76275,6.08081,19.76275,3.64844,1.82422,8.59815-1.0462,14.37476.474,3.65161.96094,7.51025,7.80384,9.85644,12.7107C1186.95675,181.67451,1191.1423,177.96223,1193.7717,174.98232Z"/><path class="cls-9" d="M1247.42282,266.85982c-10.17407-21.24573-3.26709-48.08936-6.665-64.10791h0a2.6205,2.6205,0,0,1-1.79832-1.23737,85.93541,85.93541,0,0,0-14.57082-18.14386c-4.41162-4.07739-7.43335-6.46515-9.30054-8.62878a8.77468,8.77468,0,0,1-2.29785-7.40631c-2.416.3836-14.501,2.52679-19.01855,7.64673-2.6294,2.97991-6.81495,6.69219-10.3086,10.08441-3.18945,3.09692-5.802,5.92718-6.12207,7.6875-.67065,3.68853-1.67651,10.05957,0,8.383l2.012,2.34723s-2.34741,7.71234-6.37109,12.4068a66.132,66.132,0,0,0-10.18457,17.80835,16.85742,16.85742,0,0,0-.54565,1.97553c-.28955,1.44751-.88526,3.98-1.58594,6.85052-1.19043,4.87738-2.68457,10.73016-3.50513,13.92316-.37451,1.45739-.60937,2.36334-.60937,2.36334v5.70044a12.25853,12.25853,0,0,0-10.73023-1.00592,16.83256,16.83256,0,0,0-6.50854,4.62469,6.33112,6.33112,0,0,0-1.43579,3.24353c-.53565,3.94879-1.52881,14.50775,2.24389,19.62793,1.54224,2.09314,2.90186,3.85791,4.03467,5.28766.65454.82605,1.23438,1.542,1.7273,2.14038a4.00918,4.00918,0,0,0,3.79492,1.34931c1.31128-.21851,3.52051-.12885,7.209.947l1.34131,9.38891,94.22485-.33532S1258.8237,290.6675,1247.42282,266.85982Z"/><path class="cls-7" d="M1248.13449,188.37733c-5.57861-10.15637-4.29126-17.73791-4.29126-23.88891,0-6.15106,3.57617-17.73792,3.71924-26.60687s-6.43726-13.58954-11.87305-17.73792-12.15894-2.28876-12.15894-2.28876-8.43994-17.73791-25.03344-20.74194c-11.16358-2.021-26.17774,0-29.46778,3.2901s-11.15771,3.71924-13.30346,13.73261a9.66,9.66,0,0,0,.658,6.07629c2.87158,6.48077,11.94213,10.65723,14.50512,12.6629,3.29,2.57489,9.155,7.72461,9.155,7.72461,10.72852-.14306,6.43726,12.016,6.43726,12.016a71.26112,71.26112,0,0,0,1.14429,9.155c.85815,4.00537,10.01342,6.86634,12.7312,7.00934,1.42968.07526,6.05053-2.76092,9.29809-6.008a26.57649,26.57649,0,0,0,4.57764-6.29406s-.14307,2.00262-1.28735,9.58417c-.06763.44775-.11768.86889-.15479,1.27368a8.77468,8.77468,0,0,0,2.29785,7.40631c1.86719,2.16363,4.88892,4.55139,9.30054,8.62878a85.93541,85.93541,0,0,1,14.57082,18.14386,2.6205,2.6205,0,0,0,1.79832,1.23737h0l7.26543,1.28212a4.13007,4.13007,0,0,0,4.64681-5.34542A59.89093,59.89093,0,0,0,1248.13449,188.37733Z"/><path class="cls-1" d="M1156.73439,256.48024c.82056-3.193,2.3147-9.04578,3.50513-13.92316L1147.739,252.85176A93.27285,93.27285,0,0,1,1156.73439,256.48024Z"/><path class="cls-6" d="M1067.11037,256.37129c-1.97559.10974-2.7439,0-2.634-1.86591.10962-1.8659,5.26831-2.08539,8.34156-3.07324,3.07324-.98779,9.65869,1.75617,9.65869,1.75617s-3.07325-3.40253-5.26831-4.39032c-1.64379-.73968-4.76436.67444-6.22857,1.43165a.75165.75165,0,0,1-1.07723-.56171c-.32451-1.99371,1.25888-2.5244,1.92762-4.05293a3.93021,3.93021,0,0,1,.73365-1.054l-39.7018,16.3478a1.57753,1.57753,0,0,0-.28515,2.76407l19.21454,13.03853a4.46332,4.46332,0,0,0,4.3029.39243l31.09988-13.67644c-3.707-2.75433-8.63819-5.963-10.09571-7.05609C1075.3423,255.05415,1069.0862,256.26149,1067.11037,256.37129Z"/><path class="cls-6" d="M1099.22415,233.5831l-3.53566,1.45585a36.17236,36.17236,0,0,1,17.85083,9.72125c3.00757,3.00751,4.33081,4.057,6.11377,4.39313l1.871-.82278a1.51572,1.51572,0,0,0,.23619-2.64491L1104.58584,234.126A5.70925,5.70925,0,0,0,1099.22415,233.5831Z"/><path class="cls-6" d="M1095.43214,246.10145l10.39478,2.34723a117.6921,117.6921,0,0,1-8.71826-8.04767c-1.56421-1.78784-4.90869-2.67907-6.97022-3.07672l-1.51318.623a7.75456,7.75456,0,0,1,1.644,2.50909C1091.25709,242.98079,1095.43214,246.10145,1095.43214,246.10145Z"/><path class="cls-6" d="M1147.739,252.85176a62.93953,62.93953,0,0,0-15.42163-3.3971c-7.58277-.55481-10.47168.11206-12.66431-.30133-1.783-.33612-3.1062-1.38562-6.11377-4.39313a36.17236,36.17236,0,0,0-17.85083-9.72125,17.95851,17.95851,0,0,0-3.27417-.33838c-5.36523,0-4.02392,2.34723-4.02392,2.34723s.7163.07752,1.748.27649c2.06153.39765,5.406,1.28888,6.97022,3.07672a117.6921,117.6921,0,0,0,8.71826,8.04767l-10.39478-2.34723s-4.175-3.12066-5.16284-5.64508a7.75456,7.75456,0,0,0-1.644-2.50909c-1.32422-1.3656-3.12256-2.23139-4.83154-1.66168-2.63428.87805-2.52442,2.96344-2.52442,2.96344s-4.28076-.10975-5.488,2.96344a13.84522,13.84522,0,0,0-3.21752,2.34851,3.93021,3.93021,0,0,0-.73365,1.054c-.66857,1.52815-2.25134,2.059-1.92786,4.05142a.75263.75263,0,0,0,1.07871.56259c1.46474-.75738,4.584-2.17049,6.22733-1.431,2.19506.98779,5.26831,4.39032,5.26831,4.39032s-6.58545-2.744-9.65869-1.75617c-3.07325.98785-8.23194,1.20734-8.34156,3.07324-.10986,1.86591.65845,1.97565,2.634,1.86591,1.97583-.1098,8.23193-1.31714,9.988,0,1.45752,1.09314,6.38868,4.30176,10.09571,7.05609.75952.56421,1.47168,1.1109,2.0874,1.61475,3.62207,2.9635,16.13452,6.03668,16.13452,6.03668s6.31812,3.19018,11.87085,6.85113a48.6375,48.6375,0,0,1,5.25146,3.90515c4.54151,4.00733,15.51246,12.0597,21.19068,14.48682-1.13281-1.42975-2.49243-3.19452-4.03467-5.28766-3.7727-5.12018-2.77954-15.67914-2.2439-19.62793a6.33118,6.33118,0,0,1,1.4358-3.24353,16.8324,16.8324,0,0,1,6.50854-4.62469A12.2585,12.2585,0,0,1,1156.125,264.544v-5.70044s.23487-.90595.60938-2.36334A93.27285,93.27285,0,0,0,1147.739,252.85176Z"/><path class="cls-6" d="M984.0995,264.65126l-9.87634,5.60357a4.13,4.13,0,0,0-1.23549,6.11027l8.10974,10.54273a3.06378,3.06378,0,0,0,4.03224.74245l60.25415-37.01892a1.49509,1.49509,0,0,0-.01793-2.5586l-14.63148-8.7091-42.84351,24.93878A4.48318,4.48318,0,0,1,984.0995,264.65126Z"/><path class="cls-6" d="M1066.28444,211.24238l-2.001-12.5426-12.94482-81.1413a6.7216,6.7216,0,0,0-9.06836-5.20788l-77.00672,29.86712a7.4936,7.4936,0,0,0-4.66906,8.29792c2.7528,15.48639,10.64331,57.736,16.125,86.98419,1.86084,9.92859,3.44458,18.36157,4.45483,23.73749a4.525,4.525,0,0,0,6.71655,3.06512l42.84351-24.93878,30.68579-17.86194A10.04087,10.04087,0,0,0,1066.28444,211.24238Z"/><path class="cls-6" d="M1193.34547,175.01374c4.51758-5.11993,16.60254-7.26312,19.01856-7.64672.03711-.40479.08716-.82593.15478-1.27369,1.14429-7.58154,1.28736-9.58416,1.28736-9.58416a26.57649,26.57649,0,0,1-4.57764,6.29406c-3.24756,3.24707-7.86841,6.08326-9.2981,6.008-2.71777-.143-11.873-3.004-12.7312-7.00934a71.26222,71.26222,0,0,1-1.14428-9.155s4.29126-12.15906-6.43726-12.016c0,0-5.865-5.14972-9.155-7.72461-2.563-2.00567-11.63354-6.18213-14.50513-12.6629a34.62156,34.62156,0,0,0-.801,6.22577c0,6.008-5.77637,22.033-5.77637,22.033.3042,3.64856,3.17285,1.20331,3.34473,3.64856.28589,4.07232,6.08081,19.76275,6.08081,19.76275,3.64844,1.82422,8.59814-1.0462,14.37475.474,3.65162.96094,7.51026,7.80384,9.85645,12.7107C1186.53053,181.70594,1190.71608,177.99366,1193.34547,175.01374Z"/><path class="cls-6" d="M1246.9966,266.89125c-10.17408-21.24573-3.26709-48.08936-6.665-64.10791h0a2.62046,2.62046,0,0,1-1.79832-1.23737,85.93541,85.93541,0,0,0-14.57082-18.14386c-4.41162-4.07739-7.43335-6.46515-9.30054-8.62878a8.77465,8.77465,0,0,1-2.29785-7.40631c-2.416.3836-14.501,2.52679-19.01856,7.64672-2.62939,2.97992-6.81494,6.6922-10.30859,10.08442-3.18945,3.09692-5.802,5.92718-6.12207,7.6875-.67065,3.68853-1.67651,10.05957,0,8.383l2.012,2.34723s-2.34741,7.71234-6.37109,12.4068a66.132,66.132,0,0,0-10.18457,17.80835,16.858,16.858,0,0,0-.54566,1.97552c-.28955,1.44751-.88525,3.98005-1.58593,6.85053-1.19043,4.87738-2.68457,10.73016-3.50513,13.92316-.37451,1.45739-.60938,2.36334-.60938,2.36334V264.544a12.2585,12.2585,0,0,0-10.73022-1.00592,16.8324,16.8324,0,0,0-6.50854,4.62469,6.33118,6.33118,0,0,0-1.4358,3.24353c-.53564,3.94879-1.5288,14.50775,2.2439,19.62793,1.54224,2.09314,2.90186,3.85791,4.03467,5.28766.65454.82605,1.23437,1.542,1.72729,2.14038a4.0092,4.0092,0,0,0,3.79493,1.34931c1.31127-.21851,3.5205-.12885,7.209.947l1.34131,9.38891,94.22485-.33532S1258.39748,290.69893,1246.9966,266.89125Z"/><path class="cls-6" d="M1247.70827,188.40876c-5.57862-10.15637-4.29126-17.73791-4.29126-23.88891,0-6.15106,3.57617-17.73792,3.71924-26.60687s-6.43726-13.58954-11.873-17.73792-12.15894-2.28876-12.15894-2.28876-8.43994-17.73791-25.03344-20.74194c-11.16358-2.021-26.17774,0-29.46778,3.2901s-11.15771,3.71924-13.30346,13.7326a9.66011,9.66011,0,0,0,.65795,6.0763c2.87159,6.48077,11.94214,10.65723,14.50513,12.6629,3.29,2.57489,9.155,7.72461,9.155,7.72461,10.72852-.14307,6.43726,12.016,6.43726,12.016a71.26222,71.26222,0,0,0,1.14428,9.155c.85816,4.00537,10.01343,6.86633,12.7312,7.00934,1.42969.07526,6.05054-2.76093,9.2981-6.008a26.57649,26.57649,0,0,0,4.57764-6.29406s-.14307,2.00262-1.28736,9.58416c-.06762.44776-.11767.8689-.15478,1.27369a8.77465,8.77465,0,0,0,2.29785,7.40631c1.86719,2.16363,4.88892,4.55139,9.30054,8.62878a85.93541,85.93541,0,0,1,14.57082,18.14386,2.62046,2.62046,0,0,0,1.79832,1.23737h0l7.26542,1.28212a4.13007,4.13007,0,0,0,4.64682-5.34542A59.89093,59.89093,0,0,0,1247.70827,188.40876Z"/><path class="cls-6" d="M1179.565,160.95183s6.41082-6.75621,6.49-8.305"/><path class="cls-6" d="M1179.61769,140.63087s-2.79586.28728-2.78987,4.1718"/><path class="cls-6" d="M1178.95625,149.01115s1.24508-.08893,1.24508,1.423-.77274,5.66346-.88934,5.15817"/><line class="cls-6" x1="1174.50955" y1="136.38251" x2="1151.29775" y2="140.74028"/><path class="cls-6" d="M1152.18709,138.428s-4.1799-.35573-4.62457.80041-1.77869,10.93889.44467,11.2057,1.86761-.17787,1.86761-.17787"/><path class="cls-6" d="M1213.80617,156.50917s.8574-10.26765,2.11624-18.50486c.67546-4.41983,3.69655-4.92872,1.97149-9.611"/><path class="cls-6" d="M1156.46022,300.75856s7.6998,1.69067,12.54362-2.03535,35.76978-56.26287,37.26018-57.75328"/><polygon class="cls-5" points="1046.79 115.403 1062.067 211.162 985.311 253.266 967.054 148.937 1046.79 115.403"/><polygon class="cls-6" points="1046.79 115.403 1062.067 211.162 985.311 253.266 967.054 148.937 1046.79 115.403"/><path class="cls-6" d="M1140.82241,266.51042s-16.96569-7.5403-24.2367-8.88679c-5.1503-.95376-10.84106-5.42053-13.72254-7.945a13.28737,13.28737,0,0,0-4.58343-2.63686l-2.8476-.94031"/><line class="cls-6" x1="1105.82692" y1="248.44868" x2="1112.78124" y2="249.94746"/><path class="cls-6" d="M1075.78126,242.21248s6.62531.53819,9.27119,4.7716"/><path class="cls-6" d="M1081.2693,239.249s7.80488,4.24248,8.54573,5.5125"/><path class="cls-6" d="M1178.92677,203.51588s3.72721-8.52853,8.24346-8.29083"/><path class="cls-6" d="M1176.91481,201.16865s7.64075-14.263,14.534-18.77925,15.21262-2.61467,21.15505-.7131,8.31941-1.42618,8.31941-1.42618"/><path class="cls-6" d="M1010.07716,138.45012c6.10364-2.60343,9.1554-3.90516,15.25879-6.50852"/><path class="cls-6" d="M1039.93581,125.71415c.71337-.30423,1.06982-.45633,1.7832-.76056"/><path class="cls-6" d="M1028.188,130.72511c4.28955-1.82968,6.43433-2.74451,10.72364-4.5741"/><path class="cls-6" d="M1010.91383,143.44819c6.09131-2.63861,9.13709-3.95791,15.22827-6.59646"/><path class="cls-6" d="M1039.12843,131.22633c1.34546-.58282,2.01831-.87424,3.36377-1.45706"/><path class="cls-6" d="M1028.9883,135.61879c3.63061-1.57264,5.4458-2.35892,9.07592-3.93149"/><path class="cls-6" d="M1011.7505,148.44642c6.0791-2.67379,9.11866-4.01071,15.19751-6.68445"/><path class="cls-6" d="M1039.51588,136.5005c1.49952-.76666,2.24952-1.14972,3.74952-1.91544"/><path class="cls-6" d="M1029.78859,140.51258c3.4646-1.416,5.19653-2.12448,8.66016-3.54241"/><path class="cls-6" d="M1012.58717,153.44474c6.0669-2.709,9.10034-4.0635,15.167-6.7724"/><path class="cls-6" d="M1039.33424,141.5016c1.88184-.84027,2.82276-1.26038,4.70435-2.10065"/><path class="cls-6" d="M1030.58913,145.40651c3.07519-1.3732,4.613-2.05979,7.68823-3.43293"/><path class="cls-6" d="M1013.424,158.44319c6.05457-2.74417,9.08191-4.1163,15.13636-6.86041"/><path class="cls-6" d="M1039.91872,146.4347c1.95727-.88711,2.936-1.33068,4.89331-2.21774"/><path class="cls-6" d="M1031.38942,150.30052c2.97607-1.34888,4.46411-2.02332,7.44018-3.37216"/><path class="cls-6" d="M1014.26063,163.44169c6.04236-2.77939,9.0636-4.1691,15.10584-6.94836"/><path class="cls-6" d="M1040.30885,151.46c2.1106-.97082,3.16577-1.4562,5.27637-2.427"/><path class="cls-6" d="M1032.19,155.19459c2.81811-1.29626,4.227-1.94443,7.04516-3.24066"/><path class="cls-6" d="M1015.09743,168.44026c6.03015-2.81458,9.04516-4.2219,15.07519-7.03635"/><path class="cls-6" d="M1039.2715,157.157c2.835-1.32315,4.2522-1.98471,7.08691-3.30783"/><path class="cls-6" d="M1032.99025,160.08873c2.115-.98709,3.17236-1.48063,5.28711-2.46772"/><path class="cls-6" d="M1015.9341,173.43885c6.01794-2.84976,9.027-4.27465,15.04467-7.12432"/><path class="cls-6" d="M1040.0486,162.01954c2.83325-1.34173,4.25-2.01257,7.08325-3.35425"/><path class="cls-6" d="M1033.79079,164.98292c2.08032-.98511,3.12036-1.47763,5.20044-2.46271"/><path class="cls-6" d="M1016.77089,178.43748c6.00561-2.885,9.00842-4.32745,15.014-7.21231"/><path class="cls-6" d="M997.80128,143.68629c4.45142-1.89871,6.67713-2.84808,11.12867-4.74683"/><path class="cls-6" d="M998.66249,148.75514c3.93872-1.70615,5.90808-2.55921,9.84692-4.26538"/><path class="cls-6" d="M999.52382,153.82414c3.38232-1.48764,5.07348-2.23148,8.45581-3.71915"/><path class="cls-6" d="M1000.38515,158.89326c4.42468-1.97571,6.637-2.96356,11.06164-4.9393"/><path class="cls-6" d="M1001.24647,163.96248l9.67371-4.38447"/><path class="cls-6" d="M1002.1078,169.03175c3.04395-1.40012,4.5658-2.10016,7.60974-3.50031"/><path class="cls-6" d="M1002.96925,174.10109c3.94446-1.84107,5.91663-2.76163,9.86121-4.60273"/><path class="cls-6" d="M1003.83058,179.17048c3.39343-1.607,5.09021-2.41049,8.48377-4.01748"/><path class="cls-6" d="M1004.69191,184.23988c3.56726-1.71359,5.35083-2.5704,8.91809-4.284"/><path class="cls-6" d="M1040.72658,166.92982c2.87158-1.37936,4.30713-2.069,7.17846-3.44833"/><path class="cls-6" d="M1042.981,124.41533c.363-.15491.54468-.2324.908-.3873"/><path class="cls-6" d="M1043.75148,129.22374c.36255-.157.54394-.23554.90625-.39255"/><path class="cls-6" d="M1044.52223,134.03227c.36182-.15912.54273-.23871.90454-.3978"/><path class="cls-6" d="M1045.293,138.84089l.90259-.403"/><path class="cls-6" d="M1046.06374,143.64961c.36035-.1633.54052-.245.90063-.40827"/><path class="cls-6" d="M1046.83449,148.45839c.35962-.16538.5393-.24811.89892-.41349"/><path class="cls-6" d="M1047.60524,153.26722c.35889-.16748.53833-.25122.897-.41873"/><path class="cls-6" d="M1048.376,158.07612c.35816-.16958.53711-.25439.89526-.424"/><path class="cls-6" d="M1049.14674,162.885l.89356-.4292"/><path class="cls-6" d="M1034.59108,169.87712c2.0459-.98276,3.06885-1.47412,5.1145-2.45685"/><path class="cls-7" d="M1018.33766,134.92668c.11316.68347.46167,1.12768.77832.99206.31665-.13556.48181-.79886.3689-1.48141-.11292-.68262-.46143-1.1268-.77832-.99213C1018.38954,133.57991,1018.22438,134.24318,1018.33766,134.92668Z"/><path class="cls-7" d="M1023.12453,137.89488c.11218.68033.45922,1.12051.77526.98318s.48169-.7994.36988-1.47882-.459-1.11963-.77527-.98321C1023.178,136.55244,1023.01247,137.21455,1023.12453,137.89488Z"/><path class="cls-7" d="M1014.0359,147.44123c.11487.68827.46375,1.13337.77906.99411.31543-.13922.47815-.80935.36364-1.4967-.11462-.68738-.46338-1.13248-.779-.99417S1013.921,146.75294,1014.0359,147.44123Z"/><path class="cls-7" d="M1022.1664,149.16743c.11291.68247.45959,1.12131.77429.98026s.47864-.80793.36609-1.48948-.45923-1.12045-.77417-.98028C1022.21754,147.81807,1022.0536,148.485,1022.1664,149.16743Z"/><path class="cls-7" d="M986.74477,158.119c.12243.70993.47741,1.17291.79284,1.03412.31555-.1388.47241-.82605.35034-1.5351-.12219-.709-.47717-1.172-.793-1.03411C986.77907,156.72181,986.62233,157.4091,986.74477,158.119Z"/><path class="cls-7" d="M985.01759,171.67131c.33692,1.94549,1.30408,3.20456,2.16028,2.81219s1.279-2.282.94446-4.22073c-.33447-1.93869-1.30164-3.19773-2.16028-2.81217C985.10353,167.83616,984.68068,169.72581,985.01759,171.67131Z"/><path class="cls-7" d="M977.82838,156.46843c.42029,2.415,1.62391,3.99548,2.68848,3.53,1.06458-.46542,1.58984-2.79211,1.17322-5.19674-.41651-2.4047-1.62024-3.985-2.68836-3.53C977.93349,151.72679,977.40822,154.05336,977.82838,156.46843Z"/><path class="cls-7" d="M976.35463,166.34913c.21155,1.21158.81348,2.002,1.34436,1.76551.531-.23652.79065-1.4083.58008-2.61728-.21057-1.20893-.8125-1.99936-1.34436-1.76545S976.1432,165.13762,976.35463,166.34913Z"/><path class="cls-7" d="M991.56251,160.89311c.17225,1.00372.67444,1.65549,1.12171,1.45578s.67065-1.17377.499-2.17566c-.17163-1.00183-.67383-1.6536-1.1217-1.45575S991.39027,159.88942,991.56251,160.89311Z"/><path class="cls-7" d="M1027.87746,151.89228c.11157.67856.45654,1.11277.77075.96985.314-.14288.47851-.808.36743-1.48565-.11133-.67765-.4563-1.11188-.77075-.96991S1027.76588,151.21373,1027.87746,151.89228Z"/><path class="cls-7" d="M1018.05019,161.96647c.1145.68711.46142,1.12677.7749.982.31335-.14484.475-.81855.36084-1.50473-.11426-.68622-.46106-1.12589-.7749-.982C1018.0973,160.60563,1017.93581,161.27931,1018.05019,161.96647Z"/><path class="cls-7" d="M1027.03957,163.1317c.11206.68057.45678,1.11337.76953.96673s.47558-.81647.36377-1.49612-.4563-1.11252-.76954-.9668C1027.09035,161.78123,1026.92726,162.45109,1027.03957,163.1317Z"/><path class="cls-7" d="M1017.29164,172.796c.11511.68909.46155,1.12738.77368.979.31226-.14838.47229-.82648.35742-1.51465s-.4613-1.1265-.7738-.979S1017.17641,172.107,1017.29164,172.796Z"/><path class="cls-7" d="M1020.49623,176.64793c.1145.68716.45984,1.12244.77136.97223.31165-.15021.47168-.82825.35755-1.5145-.11426-.68625-.4596-1.12155-.77149-.97226S1020.38173,175.96077,1020.49623,176.64793Z"/><path class="cls-6" d="M1017.49965,182.79112c5.995-2.91562,8.99255-4.37344,14.98743-7.28894"/><path class="cls-6" d="M1039.91408,171.89012c3.46582-1.68561,5.19873-2.52838,8.66455-4.2139"/><path class="cls-6" d="M1035.28834,174.13981c1.44776-.70419,2.17188-1.05627,3.61963-1.76043"/><path class="cls-6" d="M1018.33644,187.78975c5.98279-2.95081,8.97412-4.42621,14.95679-7.37693"/><path class="cls-6" d="M1040.60548,176.80626c3.49854-1.72559,5.24805-2.58835,8.74634-4.31385"/><path class="cls-6" d="M1036.08864,179.034c1.38867-.68491,2.083-1.02738,3.47168-1.71225"/><path class="cls-6" d="M1019.17323,192.7884c5.97046-2.986,8.95569-4.479,14.92615-7.4649"/><path class="cls-6" d="M1041.01222,182.13673c3.645-1.93243,5.46753-2.898,9.113-4.82812"/><path class="cls-6" d="M1036.88917,183.92823c1.23023-.50643,1.84522-.75985,3.0752-1.267"/><path class="cls-6" d="M1020.0099,197.78694c5.95838-3.02115,8.93738-4.53177,14.89563-7.55286"/><path class="cls-6" d="M1040.85768,187.21589c4.0166-2.03653,6.02466-3.05475,10.04077-5.09115"/><path class="cls-6" d="M1037.68947,188.82237c.852-.432,1.27832-.64807,2.13037-1.08011"/><path class="cls-6" d="M1020.84669,202.78544c5.94605-3.05636,8.919-4.58456,14.865-7.64084"/><path class="cls-6" d="M1041.45705,192.1913l10.2146-5.25049"/><path class="cls-6" d="M1038.49,193.71644c.759-.3901,1.13843-.5852,1.89747-.97531"/><path class="cls-6" d="M1021.68336,207.78389c5.93384-3.09156,8.90064-4.63736,14.83423-7.72886"/><path class="cls-6" d="M1041.86549,197.26884c4.23194-2.20489,6.3479-3.30731,10.57959-5.51205"/><path class="cls-6" d="M1039.2903,198.61045c.6084-.31686.91235-.47531,1.52051-.79217"/><path class="cls-6" d="M1022.52,212.78221c5.92163-3.12674,8.88233-4.69016,14.80372-7.81681"/><path class="cls-6" d="M1042.11525,202.43538c4.44141-2.34516,6.66186-3.51767,11.103-5.86268"/><path class="cls-6" d="M1040.09083,203.50438l1.0481-.55347"/><path class="cls-6" d="M1023.3567,217.78044c5.90943-3.16193,8.864-4.743,14.7732-7.90479"/><path class="cls-6" d="M1042.90089,207.32274c4.43653-2.37375,6.65454-3.56064,11.09058-5.93424"/><path class="cls-6" d="M1040.89113,208.39817l.97168-.51989"/><path class="cls-6" d="M1024.19337,222.77852c5.897-3.19712,8.84571-4.79572,14.74268-7.99274"/><path class="cls-6" d="M1005.44215,188.65516c4.3722-2.12637,6.55835-3.1896,10.93067-5.316"/><path class="cls-6" d="M1006.30348,193.72456c3.86853-1.908,5.80274-2.862,9.67139-4.77"/><path class="cls-6" d="M1007.16493,198.794c3.3219-1.66135,4.98279-2.492,8.30481-4.15341"/><path class="cls-6" d="M1008.02626,203.86332c4.34546-2.20337,6.51819-3.30508,10.86365-5.50848"/><path class="cls-6" d="M1008.88759,208.93263l9.50012-4.88327"/><path class="cls-6" d="M1009.74892,214.00181c2.98913-1.55737,4.48376-2.33606,7.4729-3.89346"/><path class="cls-6" d="M1010.61024,219.07093c3.87342-2.04528,5.81018-3.06793,9.68372-5.11325"/><path class="cls-6" d="M1011.47157,224.13993c3.33228-1.783,4.99842-2.67456,8.33069-4.45758"/><path class="cls-6" d="M1012.33278,229.20878c3.50281-1.899,5.25415-2.84851,8.757-4.74756"/><path class="cls-6" d="M1043.58937,212.26286c4.47021-2.42355,6.70532-3.63532,11.17529-6.05872"/><path class="cls-6" d="M1049.81813,167.07344c.35669-.17353.53516-.26029.89185-.43378"/><path class="cls-6" d="M1050.58888,171.88234l.88989-.439"/><path class="cls-6" d="M1051.35963,176.69127c.35523-.17768.533-.26655.88819-.44425"/><path class="cls-6" d="M1052.13039,181.5001l.88623-.44946"/><path class="cls-6" d="M1052.90114,186.30891c.35376-.18188.53076-.27283.88452-.45471"/><path class="cls-6" d="M1053.67189,191.11763c.353-.184.52954-.276.88257-.46"/><path class="cls-6" d="M1054.4424,195.92625c.35254-.18606.52881-.27911.8811-.46518"/><path class="cls-6" d="M1055.21315,200.73478c.35156-.18817.52759-.28228.87915-.47043"/><path class="cls-6" d="M1055.9839,205.54316l.8772-.47564"/><path class="cls-6" d="M1041.69142,213.29185l.89551-.48547"/><path class="cls-7" d="M1025.6133,178.8452c.113.68359.457,1.11471.76806.96292s.47168-.82828.35864-1.511c-.11279-.68265-.45678-1.11377-.76806-.96289C1025.66041,177.48515,1025.5,178.16163,1025.6133,178.8452Z"/><path class="cls-7" d="M1030.32863,181.60856c.1123.68036.45483,1.10749.76513.95395.31055-.15353.47144-.82883.35962-1.50827-.11181-.6795-.45434-1.1066-.76513-.954S1030.21657,180.92814,1030.32863,181.60856Z"/><path class="cls-7" d="M1021.41774,191.66584c.11487.6883.45911,1.12027.76892.96485.30969-.15546.4679-.83875.35339-1.52613-.11462-.68743-.45886-1.11944-.76892-.9649S1021.30287,190.97749,1021.41774,191.66584Z"/><path class="cls-7" d="M1029.41774,193.0167c.11279.68244.45483,1.10819.76392.95093s.4685-.83731.356-1.51883c-.11255-.68158-.45459-1.10736-.76391-.951C1029.46413,191.65416,1029.3047,192.33421,1029.41774,193.0167Z"/><path class="cls-7" d="M1035.041,195.4893c.11133.6785.4519,1.09961.7605.94052.30835-.15909.46826-.83743.35718-1.515-.11133-.67765-.45166-1.09876-.7605-.94059S1034.92946,194.81074,1035.041,195.4893Z"/><path class="cls-7" d="M1025.40553,206.115c.1145.68707.45679,1.11359.76465.95258s.46484-.84784.35059-1.534c-.114-.68619-.45655-1.1127-.76465-.95261S1025.29115,205.42787,1025.40553,206.115Z"/><path class="cls-7" d="M1034.24782,206.85746c.1123.68052.45215,1.10016.75927.93735.30738-.16284.46558-.84582.35376-1.52539-.11181-.67963-.4519-1.0993-.75927-.93738C1034.294,205.494,1034.13576,206.177,1034.24782,206.85746Z"/><path class="cls-7" d="M1024.68971,217.06721c.11511.689.45691,1.11411.76355.94953.30652-.16459.462-.85578.34729-1.54389-.115-.68808-.45679-1.11325-.76367-.94955S1024.5746,216.37819,1024.68971,217.06721Z"/><path class="cls-7" d="M1027.85133,220.79533c.1145.68707.45533,1.10913.76123.94275.30591-.16644.46143-.85754.34717-1.5437-.114-.68616-.45483-1.10828-.76123-.94275C1027.89235,219.4171,1027.73683,220.10826,1027.85133,220.79533Z"/><path class="cls-7" d="M998.24892,190.58635l1.81457-.879q3.72693,21.79884,7.45374,43.59772c-.71314.388-1.06971.582-1.78284.97Q1001.99171,212.43072,998.24892,190.58635Z"/><path class="cls-7" d="M992.41725,193.41121c.72583-.35157,1.08862-.52735,1.81445-.87891q3.77784,21.94511,7.55555,43.89023c-.71326.388-1.06971.58194-1.78284.96994Q996.21084,215.40183,992.41725,193.41121Z"/><path class="cls-7" d="M990.87367,201.12568c.724-.35687,1.08594-.53531,1.80994-.89218q3.247,18.80435,6.49414,37.60871l-1.78284.96994Q994.13436,219.96889,990.87367,201.12568Z"/><path class="cls-7" d="M988.70058,205.173c.72314-.3591,1.08459-.53867,1.80774-.8978q3.03,17.49335,6.05993,34.98669l-1.78284.96985Q991.74293,222.70243,988.70058,205.173Z"/><path class="cls-7" d="M986.32045,208.01564c.72278-.36039,1.08411-.54056,1.80676-.90094q2.91578,16.7834,5.83167,33.56683c-.71314.38794-1.06971.582-1.78284.96991Q989.24837,224.83353,986.32045,208.01564Z"/><path class="cls-7" d="M984.00551,211.22117l1.80542-.90475q2.76928,15.89236,5.53845,31.78473c-.713.38794-1.06958.58191-1.78259.96985Q986.78615,227.14613,984.00551,211.22117Z"/><path class="cls-7" d="M995.69142,194.2642c.7251-.35345,1.08765-.53015,1.81287-.8836q3.55793,20.75037,7.11572,41.5007l-1.78284.97Q999.26423,215.05772,995.69142,194.2642Z"/><path class="cls-6" d="M999.53712,176.43156c-8.73877,4.08664-13.10791,6.12991-21.84558,10.216q-3.15783-18.04851-6.31579-36.097c8.86035-3.73325,13.29089-5.60007,22.15234-9.33377Q996.53249,158.82419,999.53712,176.43156Z"/><path class="cls-6" d="M1009.6111,235.29515c-8.54419,4.68264-12.81629,7.02395-21.3595,11.706q-4.80249-27.44811-9.6051-54.89621c8.7301-4.14471,13.09558-6.21732,21.82678-10.36255Q1005.04213,208.51873,1009.6111,235.29515Z"/><path class="cls-6" d="M1011.44716,234.28892q24.10125-13.20858,48.20251-26.4172-7.08471-44.3975-14.16894-88.795-25.03016,10.53824-50.06031,21.07642Q1003.43386,187.221,1011.44716,234.28892Z"/><path class="cls-6" d="M973.86061,157.62544s.34778,5.121,1.4325,6.06195a15.71994,15.71994,0,0,1,4.04174,6.64429c1.17871,3.48867,2.36939,3.05972,1.70093,1.21371-.66858-1.846.65906,1.79294.774,1.74075s3.387,2.79783,4.48486.83268c1.098-1.96515.04993-6.59738,1.65686-7.20768s1.33557-2.33172,2.49231-1.232.225,2.02542,1.99573,3.67544c1.77063,1.65,1.93347.2905,1.34741-1.39294s-2.82641-1.29239-1.83447-4.91071c.99206-3.61825,1.151-2.40536.93225-4.69708a13.60592,13.60592,0,0,1,.70154-5.189c.26086-.94458.29895-4.94242-.493-5.21082-.79212-.26834-1.8833,3.52588-2.464,4.0549-.58057.52906-.863-3.29226-2.0094-3.302-.95618-.00812-10.61841,4.129-13.798,5.50229-.60559.26153-.99414,1.3569-.972,2.74033Z"/><path class="cls-7" d="M998.275,174.99241c-3.02564,1.40735-4.53845,2.11106-7.564,3.51834-.15612-.90557-.23413-1.35833-.39025-2.26394,3.02819-1.39954,4.54248-2.09934,7.5708-3.49893C998.04494,173.6457,998.1216,174.09456,998.275,174.99241Z"/><path class="cls-3" d="M119.862,203.5262l-97.15834,5.68464a1.93226,1.93226,0,0,1-2.04-1.97312l-.4112-115.73649a2.20607,2.20607,0,0,1,2.02514-2.211L119.436,83.60564a1.93226,1.93226,0,0,1,2.04,1.97312l.4112,115.73648A2.20606,2.20606,0,0,1,119.862,203.5262Z"/><line class="cls-6" x1="74.86264" y1="94.32405" x2="114.38477" y2="92.01165"/><line class="cls-6" x1="74.88437" y1="100.44109" x2="114.40651" y2="98.12869"/><line class="cls-6" x1="74.9061" y1="106.55813" x2="114.42824" y2="104.24574"/><line class="cls-6" x1="74.92784" y1="112.67518" x2="114.44997" y2="110.36278"/><line class="cls-6" x1="74.94957" y1="118.79222" x2="114.47171" y2="116.47982"/><line class="cls-6" x1="74.9713" y1="124.90926" x2="114.49344" y2="122.59686"/><line class="cls-6" x1="74.99304" y1="131.02631" x2="114.51517" y2="128.71391"/><line class="cls-6" x1="75.01477" y1="137.14335" x2="114.53691" y2="134.83095"/><line class="cls-6" x1="75.0365" y1="143.26039" x2="114.55864" y2="140.94799"/><line class="cls-6" x1="50.5004" y1="95.74946" x2="71.89105" y2="94.49791"/><line class="cls-6" x1="50.52213" y1="101.8665" x2="68.64403" y2="100.80621"/><line class="cls-6" x1="50.54386" y1="107.98354" x2="65.09986" y2="107.13189"/><line class="cls-6" x1="50.5656" y1="114.10059" x2="71.95625" y2="112.84904"/><line class="cls-6" x1="50.58733" y1="120.21763" x2="68.41207" y2="119.17472"/><line class="cls-6" x1="50.60906" y1="126.33467" x2="63.08495" y2="125.60472"/><line class="cls-6" x1="50.6308" y1="132.45172" x2="69.04986" y2="131.37404"/><line class="cls-6" x1="50.65253" y1="138.56876" x2="65.50568" y2="137.69972"/><line class="cls-6" x1="50.67426" y1="144.6858" x2="66.71605" y2="143.74721"/><ellipse class="cls-7" cx="97.74387" cy="92.98529" rx="1.55442" ry="1.46205" transform="translate(-31.71308 130.94613) rotate(-59.91359)"/><ellipse class="cls-7" cx="108.16508" cy="98.18796" rx="1.55442" ry="1.46205" transform="translate(-31.0178 142.55783) rotate(-59.91359)"/><ellipse class="cls-7" cx="82.33508" cy="106.12347" rx="1.55442" ry="1.46205" transform="translate(-50.76545 124.16529) rotate(-59.91359)"/><ellipse class="cls-7" cx="101.37498" cy="111.12778" rx="1.55442" ry="1.46205" transform="matrix(0.50131, -0.86527, 0.86527, 0.50131, -45.60043, 143.13558)"/><ellipse class="cls-7" cx="114.17455" cy="116.49721" rx="1.55442" ry="1.46205" transform="matrix(0.50131, -0.86527, 0.86527, 0.50131, -43.86336, 156.88837)"/><ellipse class="cls-7" cx="86.26443" cy="124.55443" rx="1.55442" ry="1.46205" transform="translate(-64.75366 136.75666) rotate(-59.91359)"/><ellipse class="cls-7" cx="107.6816" cy="129.41965" rx="1.55442" ry="1.46205" transform="matrix(0.50131, -0.86527, 0.86527, 0.50131, -58.28276, 157.71457)"/><ellipse class="cls-7" cx="80.06647" cy="136.84778" rx="1.55442" ry="1.46205" transform="translate(-78.48162 137.52438) rotate(-59.91359)"/><ellipse class="cls-7" cx="86.32854" cy="142.59971" rx="1.55442" ry="1.46205" transform="translate(-80.33573 145.81122) rotate(-59.91359)"/><line class="cls-6" x1="75.05543" y1="148.58814" x2="114.57757" y2="146.27574"/><line class="cls-6" x1="75.07716" y1="154.70518" x2="114.5993" y2="152.39279"/><line class="cls-6" x1="75.0989" y1="160.82223" x2="114.62103" y2="158.50983"/><line class="cls-6" x1="75.12063" y1="166.93927" x2="114.64277" y2="164.62687"/><line class="cls-6" x1="75.14236" y1="173.05631" x2="114.6645" y2="170.74391"/><line class="cls-6" x1="75.1641" y1="179.17336" x2="114.68623" y2="176.86096"/><line class="cls-6" x1="75.18583" y1="185.2904" x2="114.70797" y2="182.978"/><line class="cls-6" x1="75.20756" y1="191.40744" x2="114.7297" y2="189.09504"/><line class="cls-6" x1="75.2293" y1="197.52448" x2="114.75143" y2="195.21209"/><line class="cls-6" x1="50.69319" y1="150.01355" x2="72.08384" y2="148.76201"/><line class="cls-6" x1="50.71492" y1="156.13059" x2="68.83683" y2="155.0703"/><line class="cls-6" x1="50.73666" y1="162.24764" x2="65.29265" y2="161.39598"/><line class="cls-6" x1="50.75839" y1="168.36468" x2="72.14904" y2="167.11313"/><line class="cls-6" x1="50.78012" y1="174.48172" x2="68.60487" y2="173.43881"/><line class="cls-6" x1="50.80186" y1="180.59876" x2="63.27774" y2="179.86881"/><line class="cls-6" x1="50.82359" y1="186.71581" x2="69.24265" y2="185.63813"/><line class="cls-6" x1="50.84532" y1="192.83285" x2="65.69848" y2="191.96381"/><line class="cls-6" x1="50.86706" y1="198.94989" x2="66.90885" y2="198.01131"/><line class="cls-6" x1="28.46115" y1="97.03895" x2="43.15398" y2="96.17929"/><line class="cls-6" x1="28.48288" y1="103.15599" x2="43.17571" y2="102.29633"/><line class="cls-6" x1="28.50461" y1="109.27304" x2="43.19745" y2="108.41337"/><line class="cls-6" x1="28.52635" y1="115.39008" x2="43.21918" y2="114.53042"/><line class="cls-6" x1="28.54808" y1="121.50712" x2="43.24091" y2="120.64746"/><line class="cls-6" x1="28.56981" y1="127.62417" x2="43.26265" y2="126.7645"/><line class="cls-6" x1="28.59155" y1="133.74121" x2="43.28438" y2="132.88155"/><line class="cls-6" x1="28.61328" y1="139.85825" x2="43.30611" y2="138.99859"/><line class="cls-6" x1="28.63501" y1="145.97529" x2="43.32785" y2="145.11563"/><line class="cls-6" x1="28.65394" y1="151.30304" x2="43.34677" y2="150.44338"/><line class="cls-6" x1="28.67567" y1="157.42009" x2="43.36851" y2="156.56042"/><line class="cls-6" x1="28.69741" y1="163.53713" x2="43.39024" y2="162.67747"/><line class="cls-6" x1="28.71914" y1="169.65417" x2="43.41197" y2="168.79451"/><line class="cls-6" x1="28.74087" y1="175.77122" x2="43.43371" y2="174.91155"/><line class="cls-6" x1="28.76261" y1="181.88826" x2="43.45544" y2="181.0286"/><line class="cls-6" x1="28.78434" y1="188.0053" x2="43.47717" y2="187.14564"/><line class="cls-6" x1="28.80607" y1="194.12234" x2="43.49891" y2="193.26268"/><line class="cls-6" x1="28.8278" y1="200.23939" x2="43.52064" y2="199.37973"/><ellipse class="cls-7" cx="97.93667" cy="147.24938" rx="1.55442" ry="1.46205" transform="translate(-78.57005 158.17415) rotate(-59.91359)"/><ellipse class="cls-7" cx="108.35788" cy="152.45205" rx="1.55442" ry="1.46205" transform="translate(-77.87476 169.78586) rotate(-59.91359)"/><ellipse class="cls-7" cx="82.52787" cy="160.38757" rx="1.55442" ry="1.46205" transform="translate(-97.62241 151.39332) rotate(-59.91359)"/><ellipse class="cls-7" cx="101.56777" cy="165.39188" rx="1.55442" ry="1.46205" transform="translate(-92.4574 170.3636) rotate(-59.91359)"/><ellipse class="cls-7" cx="114.36734" cy="170.7613" rx="1.55442" ry="1.46205" transform="translate(-90.72033 184.11639) rotate(-59.91359)"/><ellipse class="cls-7" cx="86.45722" cy="178.81852" rx="1.55442" ry="1.46205" transform="translate(-111.61063 163.98468) rotate(-59.91359)"/><ellipse class="cls-7" cx="107.8744" cy="183.68374" rx="1.55442" ry="1.46205" transform="translate(-105.13973 184.94259) rotate(-59.91359)"/><ellipse class="cls-7" cx="80.25926" cy="191.11187" rx="1.55442" ry="1.46205" transform="translate(-125.33858 164.7524) rotate(-59.91359)"/><ellipse class="cls-7" cx="86.52133" cy="196.8638" rx="1.55442" ry="1.46205" transform="translate(-127.1927 173.03924) rotate(-59.91359)"/><path class="cls-6" d="M120.32285,203.97192l-97.15834,5.68463a1.93225,1.93225,0,0,1-2.04-1.97311L20.7133,91.947a2.20607,2.20607,0,0,1,2.02514-2.211l97.15834-5.68463a1.93225,1.93225,0,0,1,2.04,1.97311L122.348,201.761A2.20606,2.20606,0,0,1,120.32285,203.97192Z"/><path class="cls-3" d="M150.95433,109.761,53.796,115.44563a1.93225,1.93225,0,0,1-2.04-1.97311l-.25328-71.291a2.20605,2.20605,0,0,1,2.02514-2.211l97.15834-5.68463a1.93224,1.93224,0,0,1,2.04,1.97311l.25329,71.291A2.20605,2.20605,0,0,1,150.95433,109.761Z"/><path class="cls-6" d="M150.543,109.28355l-97.15834,5.68463a1.93225,1.93225,0,0,1-2.04-1.97311l-.25328-71.291a2.206,2.206,0,0,1,2.02514-2.21095l97.15834-5.68464a1.93225,1.93225,0,0,1,2.04,1.97312l.25329,71.291A2.20605,2.20605,0,0,1,150.543,109.28355Z"/><polyline class="cls-6" points="146.583 99.939 59.515 105.034 59.299 44.379"/><polygon class="cls-7" points="59.408 42.064 58.11 44.47 60.724 44.317 59.408 42.064"/><polygon class="cls-7" points="148.597 99.782 146.329 98.57 146.338 101.26 148.597 99.782"/><path class="cls-6" d="M59.42079,102.77515c-.25925-.646,18.9455-19.48936,29.35241-19.43708,10.62583.05339,15.29058.2284,20.66328-6.10174,6.14124-7.23562,9.21442-12.732,28.59862-14.63246"/><ellipse class="cls-7" cx="137.18085" cy="62.22579" rx="2.01088" ry="1.89139" transform="translate(14.56921 149.73018) rotate(-59.91359)"/><ellipse class="cls-7" cx="106.49244" cy="80.31779" rx="2.41891" ry="2.27518" transform="translate(-16.38941 132.19879) rotate(-59.91359)"/><ellipse class="cls-7" cx="64.66944" cy="97.44307" rx="2.41891" ry="2.27518" transform="translate(-52.0643 104.55087) rotate(-59.91359)"/><ellipse class="cls-7" cx="85.41735" cy="84.08196" rx="2.26563" ry="2.131" transform="translate(-30.15647 115.84031) rotate(-59.91359)"/><path class="cls-3" d="M198.49528,133.75394l-67.055,3.92332a2.32252,2.32252,0,0,1-2.452-2.37164L128.7774,75.973a2.65164,2.65164,0,0,1,2.43418-2.65753l67.055-3.92332a2.32253,2.32253,0,0,1,2.45205,2.37165l.2108,59.33265A2.65163,2.65163,0,0,1,198.49528,133.75394Z"/><polygon class="cls-7" points="175.367 79.353 183.661 78.868 183.83 126.412 175.536 126.897 175.367 79.353"/><polygon class="cls-7" points="165.26 88.922 173.554 88.436 173.691 127.005 165.397 127.49 165.26 88.922"/><polygon class="cls-7" points="155.135 93.331 163.429 92.846 163.552 127.598 155.258 128.084 155.135 93.331"/><polygon class="cls-7" points="145.005 96.432 153.299 95.947 153.415 128.578 145.12 129.063 145.005 96.432"/><polygon class="cls-7" points="134.874 99.443 143.169 98.958 143.275 128.978 134.981 129.463 134.874 99.443"/><polygon class="cls-7" points="185.526 81.923 193.82 81.438 193.96 125.819 185.666 126.305 185.526 81.923"/><path class="cls-6" d="M198.18346,134.41894l-67.055,3.92332a2.32253,2.32253,0,0,1-2.45205-2.37165l-.2108-59.33265a2.65163,2.65163,0,0,1,2.43418-2.65753l67.055-3.92332a2.32252,2.32252,0,0,1,2.452,2.37164l.2108,59.33266A2.65164,2.65164,0,0,1,198.18346,134.41894Z"/><line class="cls-6" x1="134.34185" y1="131.00886" x2="134.35176" y2="133.79821"/><line class="cls-6" x1="134.64649" y1="132.386" x2="195.6723" y2="128.81545"/><polygon class="cls-7" points="196.795 128.75 194.648 127.602 194.657 130.148 196.795 128.75"/><circle class="cls-3" cx="208.72822" cy="52.67291" r="27.11971"/><path class="cls-5" d="M207.82614,40.2591a8.95764,8.95764,0,0,0-7.06328,13.86771,14.06032,14.06032,0,0,1,2.06556,5.27916l.60269,3.38178a1.12861,1.12861,0,0,1,.8168-.34871h7.92091a1.127,1.127,0,0,1,.66264.21414L213.7806,57.86a7.07585,7.07585,0,0,1,1.4537-3.04906,8.95578,8.95578,0,0,0-7.40816-14.55181Z"/><circle class="cls-6" cx="208.99304" cy="52.27569" r="27.11971"/><path class="cls-6" d="M208.29378,40.49292a8.95764,8.95764,0,0,0-7.06328,13.86771,14.06,14.06,0,0,1,2.06556,5.27916l.60269,3.38178a1.12862,1.12862,0,0,1,.8168-.34871h7.92091a1.127,1.127,0,0,1,.66265.21414l.94913-4.79321a7.076,7.076,0,0,1,1.4537-3.04906,8.95577,8.95577,0,0,0-7.40816-14.55181Z"/><path class="cls-7" d="M213.69306,64.80066l.07089-.86534a1.13566,1.13566,0,0,0-1.12749-1.26246h-7.92091a1.13708,1.13708,0,0,0-1.12964,1.24179l.05939.87653a.65266.65266,0,0,0-.38676.59539V65.428a.65145.65145,0,0,0,.47363.62523,4.62428,4.62428,0,0,0,2.98173,3.873,1.97408,1.97408,0,0,0,3.92592-.01084,4.62487,4.62487,0,0,0,2.94551-3.79984l.00516-.06289a.6514.6514,0,0,0,.47184-.62468v-.04144A.6515.6515,0,0,0,213.69306,64.80066Z"/><path class="cls-6" d="M207.57436,62.70347s1.68725-11.854-.95178-11.63768.56242,2.68229,1.644,1.42767.04326-2.24966,0-1.60072.69592,2.651,1.817,1.90356c2.07661-1.3844.17305-2.5525-.173-1.94682s-.6922,11.46462.08653,11.81072"/><line class="cls-6" x1="219.4777" y1="43.64885" x2="226.14159" y2="39.67389"/><line class="cls-6" x1="198.19999" y1="44.70104" x2="191.41918" y2="40.95991"/><line class="cls-6" x1="208.72193" y1="38.50479" x2="208.60502" y2="30.67178"/><line class="cls-6" x1="220.17916" y1="53.35242" x2="226.37541" y2="56.27518"/><line class="cls-6" x1="196.91397" y1="54.17079" x2="189.19788" y2="59.08103"/><polygon class="cls-6" points="365.632 272.673 365.632 311.333 165.696 311.333 166.181 291.357 249.2 293.066 365.632 272.673"/><polygon class="cls-3" points="364.061 273.463 364.061 312.123 164.125 312.123 164.61 292.147 247.629 293.857 364.061 273.463"/><path class="cls-3" d="M198.48,280.2945s-1.33311-2.9329-5.86579-5.59923a57.39705,57.39705,0,0,0-10.93184-4.53269s6.24413,9.87261,4.26606,15.46453a4.59282,4.59282,0,0,1-.71848,1.2808l16.98211-4.33872-.55114-2.36153A4.49809,4.49809,0,0,1,198.48,280.2945Z"/><path class="cls-3" d="M126.5,150.11257s-.1008-.09251-.27121-.26352c-.85212-.85485-3.44546-3.67123-3.89144-6.69408-.5352-3.62743,4.74608-4.36686,6.60076-3.86531,2.87077.77641,4.2221,5.47094,4.2221,5.47094s1.96246-6.83863,2.02181-7.61172c.05956-.77308,2.25974-9.63358,2.85452-9.693.59455-.05946,5.114-2.02187,10.76328-3.38956,5.64947-1.36775,8.88581-.817,8.88581-.817a28.31235,28.31235,0,0,1,1.92559,3.577c.3503-1.19892.60492-3.46489.48732-7.69571-.10462-3.76566-7.96856-8.44426-9.45516-8.74159s1.84344,2.85441,2.25963,4.46c.4163,1.60562-3.3895-1.9029-4.63828-2.25969s1.011.773-.77314.83248a70.94418,70.94418,0,0,0-20.51595,2.7355c-11.06067,3.09223-9.99026,14.62871-9.27668,16.65058s.773,1.48666.17836,3.27065,1.36781,7.43334,1.784,9.87145c.4163,2.43811,1.72454,8.20638,3.56809,11.29861,1.84345,3.09228.05935,2.20029,1.48661,3.44907a2.72052,2.72052,0,0,0,1.31991.51431A105.63544,105.63544,0,0,0,126.5,150.11257Z"/><path class="cls-3" d="M162.48487,143.24655c-.46-2.53045.45884-9.033-2.87361-16.42028a28.31235,28.31235,0,0,0-1.92559-3.577s-3.23634-.55075-8.88581.817c-5.64924,1.36769-10.16873,3.3301-10.76328,3.38956-.59478.05945-2.795,8.92-2.85452,9.693-.05935.77309-2.02181,7.61172-2.02181,7.61172s-1.35133-4.69453-4.2221-5.47094c-1.85468-.50155-7.136.23788-6.60076,3.86531.446,3.02285,3.03932,5.83923,3.89144,6.69408.17041.171.27121.26352.27121.26352a105.63544,105.63544,0,0,1-.46408,11.09934,11.73879,11.73879,0,0,1-.60634,2.81579,6.10951,6.10951,0,0,1-.29782.589,31.252,31.252,0,0,1-5.20873,5.95166,2.06653,2.06653,0,0,0-.51994,2.23634c1.06475,2.89024,4.79069,9.18837,16.95211,8.57,14.12312-.71816,14.70666-9.38284,14.6784-11.14784-.00316-.201-.01374-.3173-.01374-.3173v-2.13576a.12557.12557,0,0,1,.18676-.11133c.35783.21764,1.33748.5711,3.81257.38068a6.977,6.977,0,0,0,1.4998-.27033,3.3934,3.3934,0,0,0,2.32444-3.55445,19.64437,19.64437,0,0,1,1.2418-9.24009C162.21825,150.17895,163.01822,146.17951,162.48487,143.24655Z"/><path class="cls-3" d="M201.66087,280.20766l.55114,2.36153,29.66226-7.57833c-2.393-.29352-8.89759-.13882-8.89759-.13882s9.95535-3.06316,12.76318-4.33949c2.80793-1.27633-1.53155-1.78682-10.21063.25528a31.04458,31.04458,0,0,1-12.5727.4817C211.07687,273.33783,205.87381,278.79568,201.66087,280.20766Z"/><path class="cls-3" d="M166.97883,302.13008a15.12828,15.12828,0,0,1-1.43664-.98581c-3.57377-2.80794-4.08421-.76578-9.95524,0-1.79959.23471-4.33283-.48072-6.954-1.58654-.51841.29483-.81274.46741-.81274.46741-.98183-.491-39.48473-2.56427-47.039-6.84425-1.0043,5.44077-2.20978,14.331-.33142,18.42922h66.529Z"/><path class="cls-3" d="M196.347,244.29941c-6.39915-7.46563-13.9261-49.91-16.3257-56.57577-2.39971-6.66577-16.33826-14.8879-24.20207-16.74751a38.83617,38.83617,0,0,1-4.78557-.74924c.02826,1.765-.55528,10.42968-14.6784,11.14784-12.16142.61833-15.88736-5.6798-16.95211-8.57a2.06653,2.06653,0,0,1,.51994-2.23634,31.252,31.252,0,0,0,5.20873-5.95166,12.98174,12.98174,0,0,0-6.10765,4.22641c-2.133,2.9329-10.66511,7.73226-18.664,15.46452s-6.66578,11.99838-8.53224,22.6636c-.95031,5.43068,2.07,17.716,3.78409,28.96025,1.6521,10.838,1.96563,20.6198,2.88168,27.0321.9682,6.77748,2.70484,13.57787,2.722,19.29116a30.901,30.901,0,0,1-1.65537,9.77153,2.56179,2.56179,0,0,0,1.221,1.15463c7.55423,4.28,46.05713,6.35328,47.039,6.84425,0,0,.29433-.17258.81274-.46741-5.9307-2.502-12.31338-7.01077-11.68032-7.09243a13.12508,13.12508,0,0,0,10.4658-7.14742s5.10531,1.53161,10.97634,3.829a50.06152,50.06152,0,0,0,8.37569,1.92488q.64539.11013,1.30486.219l5.544-1.41646,10.08659-2.577,1.524-.3894a4.59282,4.59282,0,0,0,.71848-1.2808c1.97807-5.59192-4.26606-15.46453-4.26606-15.46453a57.39705,57.39705,0,0,1,10.93184,4.53269c4.53268,2.66633,5.86579,5.59923,5.86579,5.59923a4.49809,4.49809,0,0,0,3.18092-.08684c4.21294-1.412,9.416-6.86983,11.29566-8.95813.45841-.5093.72143-.82032.72143-.82032S202.74613,251.76505,196.347,244.29941Z"/><path class="cls-3" d="M366.02821,270.0398l-38.5352-5.0896.142,17.04925-44.16077,13.529-45.437-5.61581.24906-16.56-6.412,1.63825L202.212,282.56919l-16.98211,4.33872-1.524.3894-10.08659,2.577-5.544,1.41646c6.42227,1.05634,13.71762,2.01384,16.52806,3.08377a2.62405,2.62405,0,0,1,1.10467.64337c.3071.40948-.112.64234-.96612.7564a39.53652,39.53652,0,0,1-7.06778-.22463l7.16945,1.33481,60.03178,11.17713a10.84261,10.84261,0,0,0,5.14316-.28708l116.203-35.387A1.20522,1.20522,0,0,0,366.02821,270.0398Z"/><path class="cls-3" d="M185.708,295.0179a2.62405,2.62405,0,0,0-1.10467-.64337c-2.81044-1.06993-10.10579-2.02743-16.52806-3.08377q-.66062-.10866-1.30486-.219a50.06152,50.06152,0,0,1-8.37569-1.92488c-5.871-2.29738-10.97634-3.829-10.97634-3.829a13.12508,13.12508,0,0,1-10.4658,7.14742c-.63306.08166,5.74962,4.5904,11.68032,7.09243,2.62117,1.10582,5.15441,1.82125,6.954,1.58654,5.871-.76578,6.38147-2.80794,9.95524,0s11.23162,5.36053,11.99745,3.5737,4.33948.5105,4.08421-2.80793-10.72118-7.14736-10.72118-7.14736,3.28565.46152,6.77148.787a39.53652,39.53652,0,0,0,7.06778.22463C185.596,295.66024,186.01515,295.42738,185.708,295.0179Z"/><path class="cls-3" d="M293.97258,250.18043c-.38356-.92178-.883-2.1806-1.49565-3.82866l-5.07009-.72865a14.31022,14.31022,0,0,0-5.27041.22486l-7.48021,1.73577c5.84213,1.01942,13.976,3.111,17.94245,4.16652A1.16171,1.16171,0,0,0,293.97258,250.18043Z"/><path class="cls-3" d="M327.493,264.9502l-.062-7.43818a7.15066,7.15066,0,0,0-6.13323-7.01834l-11.19629-1.60905a38.417,38.417,0,0,1,2.21763,5.54626c-.25527,1.27633-15.31583,4.59476-15.31583,4.59476l-39.82117-6.38158s.89772-.66258,2.26225-1.53052l-14.9692,3.47353a7.77783,7.77783,0,0,0-6.01886,7.45958l-.17,11.306-.24906,16.56,45.437,5.61581,44.16077-13.529Z"/><path class="cls-3" d="M290.6217,184.23322c3.70151-.33649,9.44479.51056,6.89214,17.61321-1.02885,6.89274,1.21933,16.56271,4.25166,25.73619,9.43051-.93732,17.28048-1.71074,21.77967-2.14018a4.556,4.556,0,0,0,4.1225-4.50454l.6863-86.91976a5.93783,5.93783,0,0,0-5.89623-5.98443L223.662,127.346a5.1701,5.1701,0,0,0-5.20556,5.243l1.36878,96.95889a5.72954,5.72954,0,0,0,6.30337,5.6217c11.69188-1.179,37.83951-3.813,60.67-6.09478a132.0763,132.0763,0,0,1-5.11109-30.29156C281.1769,191.12536,287.81387,184.4885,290.6217,184.23322Z"/><path class="cls-3" d="M310.10148,248.88463c-2.1849-5.05737-5.58085-12.9675-8.336-21.302-3.03233-9.17348-5.28051-18.84345-4.25166-25.73619,2.55265-17.10265-3.19063-17.9497-6.89214-17.61321-2.80783.25528-9.4448,6.89214-8.93424,14.55006a132.0763,132.0763,0,0,0,5.11109,30.29156c.31888,1.10953.65216,2.23754,1.01532,3.40331,1.9712,6.32884,3.518,10.7929,4.66306,13.87362.61266,1.64806,1.11209,2.90688,1.49565,3.82866a1.16171,1.16171,0,0,1-1.37391,1.56984c-3.96649-1.05552-12.10032-3.1471-17.94245-4.16652a25.24267,25.24267,0,0,0-5.73194-.55549c-3.10783.32711-7.04585,2.53705-9.47992,4.08529-1.36453.86794-2.26225,1.53052-2.26225,1.53052l39.82117,6.38158s15.06056-3.31843,15.31583-4.59476A38.417,38.417,0,0,0,310.10148,248.88463Z"/><path class="cls-1" d="M195.86534,280.81742s-1.33311-2.9329-5.86579-5.59923a57.39743,57.39743,0,0,0-10.93184-4.53268s6.24413,9.8726,4.26607,15.46452a4.593,4.593,0,0,1-.71849,1.2808l16.98211-4.33872-.55113-2.36153A4.498,4.498,0,0,1,195.86534,280.81742Z"/><path class="cls-7" d="M123.88543,150.63549s-.1008-.09251-.2712-.26351c-.85213-.85485-3.44547-3.67124-3.89144-6.69409-.53521-3.62743,4.74607-4.36686,6.60075-3.86531,2.87077.77641,4.2221,5.47094,4.2221,5.47094s1.96246-6.83863,2.02181-7.61172c.05957-.77308,2.25974-9.63358,2.85452-9.693.59455-.05946,5.114-2.02187,10.76329-3.38956,5.64946-1.36775,8.8858-.817,8.8858-.817a28.31372,28.31372,0,0,1,1.92559,3.577c.3503-1.19892.60492-3.46488.48732-7.69571-.10462-3.76566-7.96856-8.44425-9.45516-8.74159s1.84345,2.85441,2.25963,4.46c.4163,1.60562-3.3895-1.9029-4.63828-2.25969s1.011.773-.77314.83249a70.944,70.944,0,0,0-20.51595,2.73549c-11.06067,3.09223-9.99026,14.62871-9.27668,16.65058s.773,1.48666.17837,3.27065,1.3678,7.43335,1.784,9.87145c.41629,2.43811,1.72453,8.20638,3.56809,11.29861,1.84344,3.09228.05934,2.20029,1.4866,3.44907a2.72062,2.72062,0,0,0,1.31991.51432A105.63272,105.63272,0,0,0,123.88543,150.63549Z"/><path class="cls-5" d="M159.87026,143.76948c-.46-2.53046.45884-9.033-2.87361-16.42029a28.31372,28.31372,0,0,0-1.92559-3.577s-3.23634-.55075-8.8858.817c-5.64925,1.36769-10.16874,3.3301-10.76329,3.38956-.59478.05945-2.79495,8.92-2.85452,9.693-.05935.77309-2.02181,7.61172-2.02181,7.61172s-1.35133-4.69453-4.2221-5.47094c-1.85468-.50155-7.136.23788-6.60075,3.86531.446,3.02285,3.03931,5.83924,3.89144,6.69409.1704.171.2712.26351.2712.26351a105.63272,105.63272,0,0,1-.46408,11.09935,11.73782,11.73782,0,0,1-.60634,2.81578,6.11078,6.11078,0,0,1-.29782.589,31.25219,31.25219,0,0,1-5.20873,5.95165,2.06655,2.06655,0,0,0-.51994,2.23634c1.06475,2.89024,4.79069,9.18837,16.95211,8.57,14.12312-.71816,14.70666-9.38283,14.6784-11.14784-.00316-.201-.01374-.3173-.01374-.3173v-2.13576a.12558.12558,0,0,1,.18676-.11133c.35783.21764,1.33748.5711,3.81257.38068a6.97708,6.97708,0,0,0,1.49981-.27033,3.39341,3.39341,0,0,0,2.32443-3.55445,19.64437,19.64437,0,0,1,1.2418-9.24009C159.60364,150.70187,160.40361,146.70243,159.87026,143.76948Z"/><path class="cls-5" d="M199.04627,280.73058l.55113,2.36153,29.66226-7.57833c-2.393-.29352-8.89758-.13882-8.89758-.13882s9.95534-3.06316,12.76317-4.33949c2.80793-1.27632-1.53155-1.78682-10.21063.25528a31.04453,31.04453,0,0,1-12.57269.4817C208.46226,273.86075,203.2592,279.3186,199.04627,280.73058Z"/><path class="cls-7" d="M164.36422,302.653a15.12956,15.12956,0,0,1-1.43664-.98581c-3.57376-2.80793-4.08421-.76578-9.95524,0-1.79959.23471-4.33283-.48072-6.954-1.58653-.5184.29482-.81274.4674-.81274.4674-.98183-.491-39.48473-2.56427-47.039-6.84425-1.0043,5.44078-2.20977,14.331-.33142,18.42923h66.529Z"/><path class="cls-3" d="M193.73237,244.82234c-6.39915-7.46564-13.9261-49.91006-16.3257-56.57578-2.39971-6.66577-16.33826-14.8879-24.20207-16.7475a38.83885,38.83885,0,0,1-4.78557-.74925c.02826,1.765-.55528,10.42968-14.6784,11.14784-12.16142.61833-15.88736-5.6798-16.95211-8.57a2.06655,2.06655,0,0,1,.51994-2.23634,31.25219,31.25219,0,0,0,5.20873-5.95165,12.98172,12.98172,0,0,0-6.10765,4.2264c-2.133,2.9329-10.66511,7.73227-18.664,15.46453s-6.66578,11.99838-8.53224,22.66359c-.9503,5.43068,2.07,17.716,3.78409,28.96025,1.6521,10.838,1.96563,20.6198,2.88168,27.0321.9682,6.77748,2.70484,13.57787,2.722,19.29116a30.901,30.901,0,0,1-1.65537,9.77153,2.56179,2.56179,0,0,0,1.221,1.15463c7.55423,4.28,46.05713,6.35328,47.039,6.84425,0,0,.29434-.17258.81274-.4674-5.9307-2.502-12.31338-7.01078-11.68032-7.09244a13.12508,13.12508,0,0,0,10.4658-7.14741s5.10531,1.5316,10.97634,3.829a50.06152,50.06152,0,0,0,8.37569,1.92488q.64539.11013,1.30486.219l5.544-1.41646,10.08659-2.577,1.524-.38941a4.593,4.593,0,0,0,.71849-1.2808c1.97806-5.59192-4.26607-15.46452-4.26607-15.46452a57.39743,57.39743,0,0,1,10.93184,4.53268c4.53268,2.66633,5.86579,5.59923,5.86579,5.59923a4.498,4.498,0,0,0,3.18093-.08684c4.21293-1.412,9.416-6.86983,11.29566-8.95813.4584-.5093.72142-.82032.72142-.82032S200.13152,252.288,193.73237,244.82234Z"/><path class="cls-7" d="M363.4136,270.56272l-38.53519-5.0896.142,17.04925-44.16077,13.529-45.437-5.61581.24906-16.56-6.412,1.63824-29.66226,7.57833-16.98211,4.33872-1.524.38941-10.08659,2.577-5.544,1.41646c6.42228,1.05634,13.71762,2.01385,16.52806,3.08377a2.62416,2.62416,0,0,1,1.10467.64337c.3071.40948-.112.64234-.96612.7564a39.5354,39.5354,0,0,1-7.06778-.22462l7.16946,1.3348,60.03177,11.17713a10.84241,10.84241,0,0,0,5.14317-.28708l116.203-35.387A1.20522,1.20522,0,0,0,363.4136,270.56272Z"/><path class="cls-5" d="M183.09344,295.54082a2.62416,2.62416,0,0,0-1.10467-.64337c-2.81044-1.06992-10.10578-2.02743-16.52806-3.08377q-.66062-.10866-1.30486-.219a50.06152,50.06152,0,0,1-8.37569-1.92488c-5.871-2.29738-10.97634-3.829-10.97634-3.829a13.12508,13.12508,0,0,1-10.4658,7.14741c-.63306.08166,5.74962,4.5904,11.68032,7.09244,2.62117,1.10581,5.15441,1.82124,6.954,1.58653,5.871-.76578,6.38148-2.80793,9.95524,0s11.23162,5.36053,11.99745,3.57371c.76583-1.78689,4.33948.51049,4.08421-2.80794s-10.72118-7.14736-10.72118-7.14736,3.28565.46152,6.77148.787a39.5354,39.5354,0,0,0,7.06778.22462C182.98141,296.18316,183.40054,295.9503,183.09344,295.54082Z"/><path class="cls-9" d="M291.358,250.70335c-.38357-.92178-.883-2.18059-1.49566-3.82866l-5.07008-.72864a14.31,14.31,0,0,0-5.27042.22485l-7.48021,1.73578c5.84213,1.01941,13.976,3.111,17.94245,4.16651A1.16172,1.16172,0,0,0,291.358,250.70335Z"/><path class="cls-9" d="M324.87841,265.47312l-.062-7.43818a7.15066,7.15066,0,0,0-6.13323-7.01834l-11.19629-1.60905a38.41709,38.41709,0,0,1,2.21764,5.54627c-.25528,1.27632-15.31583,4.59476-15.31583,4.59476L254.5675,253.167s.89772-.66257,2.26225-1.53052L241.86055,255.11a7.77784,7.77784,0,0,0-6.01886,7.45958l-.17,11.306-.24906,16.56,45.437,5.61581,44.16077-13.529Z"/><path class="cls-8" d="M288.00709,184.75615c3.70151-.3365,9.4448.51055,6.89214,17.6132-1.02885,6.89274,1.21933,16.56271,4.25166,25.73619,9.43051-.93732,17.28048-1.71073,21.77967-2.14018a4.556,4.556,0,0,0,4.1225-4.50454l.6863-86.91975a5.93783,5.93783,0,0,0-5.89623-5.98444L221.0474,127.869a5.17008,5.17008,0,0,0-5.20557,5.243l1.36878,96.95889a5.72953,5.72953,0,0,0,6.30337,5.6217c11.69188-1.179,37.83951-3.813,60.67-6.09478a132.07621,132.07621,0,0,1-5.11109-30.29156C278.56229,191.64828,285.19927,185.01142,288.00709,184.75615Z"/><path class="cls-10" d="M307.48687,249.40755c-2.1849-5.05737-5.58085-12.9675-8.336-21.302-3.03233-9.17348-5.28051-18.84345-4.25166-25.73619,2.55266-17.10265-3.19063-17.9497-6.89214-17.6132-2.80782.25527-9.4448,6.89213-8.93424,14.55005a132.07621,132.07621,0,0,0,5.11109,30.29156c.31888,1.10953.65216,2.23755,1.01533,3.40331,1.97119,6.32884,3.518,10.79291,4.663,13.87362.61266,1.64807,1.11209,2.90688,1.49566,3.82866a1.16172,1.16172,0,0,1-1.37392,1.56984c-3.96649-1.05552-12.10032-3.1471-17.94245-4.16651a25.24278,25.24278,0,0,0-5.73194-.5555c-3.10783.32711-7.04585,2.53705-9.47992,4.08529-1.36453.868-2.26225,1.53052-2.26225,1.53052l39.82118,6.38159s15.06055-3.31844,15.31583-4.59476A38.41709,38.41709,0,0,0,307.48687,249.40755Z"/><path class="cls-1" d="M197.89087,280.57944s-1.33311-2.9329-5.86579-5.59923a57.39743,57.39743,0,0,0-10.93184-4.53268s6.24413,9.8726,4.26606,15.46452a4.59254,4.59254,0,0,1-.71848,1.2808l16.98211-4.33872-.55114-2.36152A4.498,4.498,0,0,1,197.89087,280.57944Z"/><path class="cls-6" d="M125.911,150.39751s-.1008-.09251-.2712-.26351c-.85213-.85485-3.44547-3.67124-3.89144-6.69409-.53521-3.62743,4.74607-4.36686,6.60075-3.86531,2.87077.77641,4.2221,5.47094,4.2221,5.47094s1.96246-6.83863,2.02181-7.61172c.05956-.77308,2.25974-9.63358,2.85452-9.693.59455-.05946,5.114-2.02187,10.76328-3.38956,5.64947-1.36775,8.88581-.817,8.88581-.817a28.31314,28.31314,0,0,1,1.92559,3.577c.3503-1.19893.60492-3.46489.48732-7.69572-.10462-3.76566-7.96856-8.44425-9.45516-8.74159s1.84345,2.85441,2.25963,4.46c.4163,1.60562-3.3895-1.9029-4.63828-2.25969-1.24879-.35684,1.011.773-.77314.83249a70.944,70.944,0,0,0-20.51595,2.73549c-11.06067,3.09223-9.99026,14.62871-9.27668,16.65058s.773,1.48666.17836,3.27065,1.36781,7.43335,1.784,9.87146c.41629,2.43811,1.72453,8.20637,3.56808,11.2986,1.84345,3.09228.05935,2.20029,1.48661,3.44907a2.72052,2.72052,0,0,0,1.31991.51432A105.63272,105.63272,0,0,0,125.911,150.39751Z"/><path class="cls-6" d="M161.89579,143.5315c-.46-2.53046.45884-9.033-2.87361-16.42028a28.31314,28.31314,0,0,0-1.92559-3.577s-3.23634-.55075-8.88581.817c-5.64924,1.36769-10.16873,3.3301-10.76328,3.38956-.59478.05945-2.795,8.92-2.85452,9.693-.05935.77309-2.02181,7.61172-2.02181,7.61172s-1.35133-4.69453-4.2221-5.47094c-1.85468-.50155-7.136.23788-6.60075,3.86531.446,3.02285,3.03931,5.83924,3.89144,6.69409.1704.171.2712.26351.2712.26351a105.63272,105.63272,0,0,1-.46408,11.09935,11.73853,11.73853,0,0,1-.60634,2.81579,6.11066,6.11066,0,0,1-.29782.589,31.25219,31.25219,0,0,1-5.20873,5.95165,2.06655,2.06655,0,0,0-.51994,2.23634c1.06475,2.89025,4.79069,9.18838,16.95211,8.57,14.12312-.71816,14.70666-9.38283,14.6784-11.14784-.00316-.201-.01374-.3173-.01374-.3173v-2.13576a.12557.12557,0,0,1,.18676-.11132c.35783.21764,1.33748.5711,3.81257.38067a6.977,6.977,0,0,0,1.4998-.27033,3.3934,3.3934,0,0,0,2.32444-3.55445,19.64434,19.64434,0,0,1,1.2418-9.24008C161.62917,150.46389,162.42914,146.46445,161.89579,143.5315Z"/><path class="cls-6" d="M201.07179,280.49261l.55114,2.36152,29.66226-7.57833c-2.393-.29351-8.89758-.13882-8.89758-.13882s9.95534-3.06316,12.76317-4.33948c2.80793-1.27633-1.53155-1.78683-10.21063.25527a31.04453,31.04453,0,0,1-12.57269.4817C210.48779,273.62277,205.28473,279.08062,201.07179,280.49261Z"/><path class="cls-6" d="M166.38975,302.415a15.12642,15.12642,0,0,1-1.43664-.98581c-3.57376-2.80793-4.08421-.76578-9.95524,0-1.79959.23471-4.33283-.48072-6.954-1.58653-.5184.29482-.81274.4674-.81274.4674-.98183-.491-39.48473-2.56427-47.039-6.84424-1.0043,5.44077-2.20977,14.331-.33142,18.42922h66.529Z"/><path class="cls-6" d="M195.7579,244.58436c-6.39915-7.46564-13.9261-49.91006-16.3257-56.57578-2.39971-6.66577-16.33826-14.88789-24.20207-16.7475a38.83885,38.83885,0,0,1-4.78557-.74925c.02826,1.765-.55528,10.42968-14.6784,11.14784-12.16142.61834-15.88736-5.67979-16.95211-8.57a2.06655,2.06655,0,0,1,.51994-2.23634,31.25219,31.25219,0,0,0,5.20873-5.95165,12.98167,12.98167,0,0,0-6.10765,4.22641c-2.133,2.93289-10.66511,7.73226-18.664,15.46452S93.1053,196.591,91.23884,207.25616c-.95031,5.43068,2.07,17.716,3.78409,28.96025,1.6521,10.838,1.96563,20.6198,2.88168,27.0321.9682,6.77748,2.70484,13.57788,2.722,19.29116a30.901,30.901,0,0,1-1.65537,9.77153,2.56181,2.56181,0,0,0,1.221,1.15464c7.55423,4.28,46.05713,6.35327,47.039,6.84424,0,0,.29434-.17258.81274-.4674-5.9307-2.502-12.31338-7.01078-11.68032-7.09244a13.12508,13.12508,0,0,0,10.4658-7.14741s5.10531,1.5316,10.97634,3.829a50.06136,50.06136,0,0,0,8.37569,1.92489q.64539.11012,1.30486.219l5.544-1.41646,10.08659-2.577,1.524-.38941a4.59254,4.59254,0,0,0,.71848-1.2808c1.97807-5.59192-4.26606-15.46452-4.26606-15.46452a57.39743,57.39743,0,0,1,10.93184,4.53268c4.53268,2.66633,5.86579,5.59923,5.86579,5.59923a4.498,4.498,0,0,0,3.18092-.08683c4.21294-1.412,9.416-6.86984,11.29567-8.95814.4584-.5093.72142-.82032.72142-.82032S202.15705,252.05,195.7579,244.58436Z"/><path class="cls-6" d="M365.43913,270.32474l-38.53519-5.0896.142,17.04926-44.16077,13.529-45.437-5.61581.24906-16.56-6.412,1.63824-29.66226,7.57833-16.98211,4.33872-1.524.38941-10.08659,2.577-5.544,1.41646c6.42228,1.05634,13.71762,2.01385,16.52806,3.08377a2.624,2.624,0,0,1,1.10467.64338c.3071.40947-.112.64233-.96612.75639a39.5354,39.5354,0,0,1-7.06778-.22462l7.16945,1.3348,60.03178,11.17713a10.84236,10.84236,0,0,0,5.14316-.28708l116.203-35.38695A1.20522,1.20522,0,0,0,365.43913,270.32474Z"/><path class="cls-6" d="M185.119,295.30285a2.624,2.624,0,0,0-1.10467-.64338c-2.81044-1.06992-10.10578-2.02743-16.52806-3.08377q-.66062-.10866-1.30486-.219a50.06136,50.06136,0,0,1-8.37569-1.92489c-5.871-2.29738-10.97634-3.829-10.97634-3.829a13.12508,13.12508,0,0,1-10.4658,7.14741c-.63306.08166,5.74962,4.5904,11.68032,7.09244,2.62117,1.10581,5.15441,1.82124,6.954,1.58653,5.871-.76578,6.38148-2.80793,9.95524,0s11.23162,5.36053,11.99745,3.57371c.76583-1.78688,4.33948.5105,4.08421-2.80794s-10.72118-7.14736-10.72118-7.14736,3.28565.46152,6.77148.787a39.5354,39.5354,0,0,0,7.06778.22462C185.00694,295.94518,185.42607,295.71232,185.119,295.30285Z"/><path class="cls-6" d="M293.38351,250.46537c-.38357-.92177-.883-2.18059-1.49566-3.82865l-7.72637-1.1104-10.09434,2.34238c5.84213,1.01941,13.976,3.111,17.94245,4.16651A1.16172,1.16172,0,0,0,293.38351,250.46537Z"/><path class="cls-6" d="M326.90394,265.23514l-.062-7.43818a7.15067,7.15067,0,0,0-6.13323-7.01834l-11.19629-1.609a38.41629,38.41629,0,0,1,2.21763,5.54627c-.25527,1.27633-15.31582,4.59476-15.31582,4.59476L256.593,252.929s.89772-.66257,2.26225-1.53051l-14.9692,3.47353a7.77782,7.77782,0,0,0-6.01886,7.45958l-.17,11.30595-.24906,16.56,45.437,5.61581,44.16077-13.529Z"/><path class="cls-6" d="M290.03262,184.51817c3.70151-.3365,9.44479.51055,6.89214,17.61321-1.02885,6.89274,1.21933,16.5627,4.25166,25.73618,9.43051-.93732,17.28048-1.71073,21.77967-2.14018a4.556,4.556,0,0,0,4.1225-4.50454l.6863-86.91975a5.93783,5.93783,0,0,0-5.89623-5.98444l-98.79574-.68766a5.17008,5.17008,0,0,0-5.20556,5.243l1.36878,96.95889a5.72955,5.72955,0,0,0,6.30337,5.62171c11.69188-1.179,37.83951-3.813,60.67-6.09479a132.07621,132.07621,0,0,1-5.11109-30.29156C280.58782,191.41031,287.22479,184.77344,290.03262,184.51817Z"/><path class="cls-6" d="M309.5124,249.16957c-2.1849-5.05736-5.58085-12.9675-8.336-21.302-3.03233-9.17348-5.28051-18.84344-4.25166-25.73618,2.55265-17.10266-3.19063-17.94971-6.89214-17.61321-2.80783.25527-9.4448,6.89214-8.93424,14.55005a132.07621,132.07621,0,0,0,5.11109,30.29156c.31888,1.10953.65216,2.23755,1.01532,3.40331,1.9712,6.32884,3.518,10.79291,4.66306,13.87363.61266,1.64806,1.11209,2.90688,1.49566,3.82865a1.16172,1.16172,0,0,1-1.37392,1.56984c-3.96649-1.05552-12.10032-3.1471-17.94245-4.16651a25.24282,25.24282,0,0,0-5.73194-.5555c-3.10783.32711-7.04585,2.537-9.47992,4.0853-1.36453.86794-2.26225,1.53051-2.26225,1.53051l39.82118,6.38159s15.06055-3.31843,15.31582-4.59476A38.41629,38.41629,0,0,0,309.5124,249.16957Z"/><path class="cls-6" d="M181.09324,270.44753s-6.31417-15.53092-5.36028-25.30828-.71542-37.44011-6.91569-44.83275"/><path class="cls-6" d="M146.82935,285.60283a13.959,13.959,0,0,0-.19-6.36207s-19.55471-13.83138-22.65484-21.93943-6.43875-50.07914-8.10805-54.13316"/><path class="cls-6" d="M136.36355,292.75024s-9.51737-4.44754-11.90209-5.87838-23.78163-5.27562-26.55685-23.62335"/><path class="cls-6" d="M282.8852,295.8134l.13837-28.11689a5.793,5.793,0,0,1,4.30689-5.57068l37.20907-8.87853"/><line class="cls-6" x1="150.43082" y1="168.05877" x2="137.10048" y2="163.5818"/><path class="cls-6" d="M153.84267,150.2758s6.75894.28163,6.47732-1.40811-2.15911-4.03659-2.81622-7.41606-1.40812-5.91408-1.40812-5.91408"/><path class="cls-6" d="M157.50377,154.31239s-8.73031.65712-8.82418,1.31424,4.03659,3.37948,6.38345,2.34686a16.52742,16.52742,0,0,0,2.81622-1.40811"/><line class="cls-6" x1="132.57117" y1="145.04554" x2="133.28422" y2="149.43094"/><path class="cls-6" d="M127.74564,147.83507c-.28162-.18774-3.09785-2.5346-2.253-4.88146s1.31424-1.31423,1.31424-1.31423"/><circle class="cls-7" cx="149.24283" cy="141.26388" r="1.12649"/><circle class="cls-7" cx="159.66287" cy="141.26388" r="1.12649"/></g></svg>