<svg id="Layer_1" data-name="Layer 1" xmlns="http://www.w3.org/2000/svg" xmlns:xlink="http://www.w3.org/1999/xlink" viewBox="0 0 1300 294"><defs><style>.cls-1,.cls-10,.cls-4,.cls-8{fill:none;}.cls-2{clip-path:url(#clip-path);}.cls-3,.cls-9{fill:#428252;}.cls-4{stroke:#5f9c70;}.cls-10,.cls-4,.cls-8,.cls-9{stroke-miterlimit:10;}.cls-5{fill:#b3d3bc;}.cls-6{fill:#0a5d2b;}.cls-7{fill:#5f9c70;}.cls-10,.cls-8,.cls-9{stroke:#0a5d2b;}.cls-10,.cls-9{stroke-width:0.96049px;}.cls-11{fill:#99c5a6;}</style><clipPath id="clip-path"><rect class="cls-1" width="1300" height="294"/></clipPath></defs><g class="cls-2"><rect class="cls-3" width="1300" height="294"/><path class="cls-4" d="M106.63343-18.70242l22.29633,61.48451a1.03631,1.03631,0,0,0,1.76732.31378l42.099-50.05144a1.03632,1.03632,0,0,0-.61192-1.68743L107.78884-20.07607A1.03632,1.03632,0,0,0,106.63343-18.70242Z"/><path class="cls-4" d="M539.83284,264.43664,492.5791,309.65339a1.03632,1.03632,0,0,0,.42627,1.74361l62.78573,18.31457a1.03632,1.03632,0,0,0,1.29687-1.241l-15.532-63.53132A1.03632,1.03632,0,0,0,539.83284,264.43664Z"/><rect class="cls-4" x="62.77353" y="176.89514" width="52.99823" height="52.99823" rx="2.36958" transform="translate(-66.07672 44.63216) rotate(-20.68017)"/><rect class="cls-4" x="882.01267" y="-12.34925" width="34.60656" height="34.60656" rx="1.54728" transform="translate(54.40752 313.05056) rotate(-20.35004)"/><circle class="cls-4" cx="1151.93915" cy="62.12285" r="48.98607"/><circle class="cls-4" cx="266.39448" cy="114.92314" r="53.00195"/><path class="cls-1" d="M234.01757,241.618c.63111-4.62836-2.73493-10.30858-3.15574-12.202s-9.88783,18.09263-9.88783,18.09263a3.75977,3.75977,0,0,0-.619.6722,76.15036,76.15036,0,0,1,14.05824-1.79239A10.44964,10.44964,0,0,1,234.01757,241.618Z"/><path class="cls-3" d="M209.47955,160.06053c-2.5705,1.50071-5.62862,2.97349-7.12208,2.514-2.42778-.747-2.94513-.8525-4.67894-.05046,2.32225,6.94373,9.22326,18.53087,28.77768,11.67675C219.41026,170.96069,211.448,163.74028,209.47955,160.06053Z"/><path class="cls-1" d="M226.65427,260.55224s2.85038,1.42551,5.58374,2.91091q1.46109-.397,2.90641-.78948C231.67729,261.52835,227.54473,260.25542,226.65427,260.55224Z"/><path class="cls-1" d="M217.17491,265.38456c.02442.693.05572,1.40239.10277,2.14742,1.62362-.442,3.27042-.89019,4.92881-1.34137a22.11317,22.11317,0,0,0-2.49476-.58925A24.13153,24.13153,0,0,0,217.17491,265.38456Z"/><path class="cls-5" d="M266.83972,254.16116c-.13536,0-3.875.99187-9.66112,2.54868,1.6527.846,3.46664,1.92564,3.34757,2.5274-.00335.01684.00569.03666-.00075.05274-.42076,1.05186-.21041,3.366-6.52179,2.52453,0,0,.86252.51821,1.984,1.29145,2.59827,1.79136,6.5951,4.95967,4.53778,6.28225-2.94534,1.89342-10.519-3.57645-10.519-3.57645s1.26226,4.418-1.68308,3.7868c-2.94528-.63111-6.31138-4.62836-9.46707-5.68022-.92955-.30987-2.26415-.76642-3.71186-1.24467q-1.44492.39236-2.90641.78948c2.51722,1.368,4.93525,2.78669,4.93525,3.19012,0,.84151,1.89343,3.57645-3.78685,2.52453-4.25877-.78866-8.28088-2.16858-11.17992-2.98719-1.65839.45118-3.30519.89939-4.92881,1.34137q.05067.80243.11987,1.64582c.02919.355-1.36064-.3-3.42619-.74567-8.96066,2.44-16.92182,4.611-21.76053,5.931a2.41984,2.41984,0,0,0-.77264,4.30068l1.25268.9002a12.52428,12.52428,0,0,0,5.94255,2.27909l61.9659,6.80112a12.98586,12.98586,0,0,0,8.69844-2.16285A5.19138,5.19138,0,0,1,268.15,282.336l2.30773-14.83412,1.30532-8.39031.66662-4.285Z"/><path class="cls-5" d="M390.149,170.16136l-98.61708-1.87843a6.44024,6.44024,0,0,0-6.48637,5.44913l-11.81326,75.935-.80263,5.15952-.66662,4.285-1.30532,8.39031L268.15,282.336a5.24211,5.24211,0,0,0,5.93139,5.98516c20.7717-3.051,81.52244-11.96464,98.57561-14.35836a6.14294,6.14294,0,0,0,5.186-5.11576l14.84-95.67066A2.6147,2.6147,0,0,0,390.149,170.16136Z"/><path class="cls-3" d="M255.98764,263.106c-1.12149-.77324-1.984-1.29145-1.984-1.29145,6.31138.84151,6.101-1.47267,6.52179-2.52453.00644-.01608-.0026-.0359.00075-.05274.11907-.60176-1.69487-1.68145-3.34757-2.5274-1.32849-.67994-2.54381-1.20671-2.54381-1.20671s-.63078-1.44181-3.60265-3.61765a40.91511,40.91511,0,0,0-6.91634-3.95605c-2.5875-1.20347-6.0536-1.596-9.70254-1.541a76.15036,76.15036,0,0,0-14.05824,1.79239c-.95056,1.24407-2.70261,4.46116-3.12894,11.54042-.10028,1.66488-.12562,3.54575-.05117,5.66327a24.13153,24.13153,0,0,1,2.53682.2168,22.11317,22.11317,0,0,1,2.49476.58925c2.899.81861,6.92115,2.19853,11.17992,2.98719,5.68028,1.05192,3.78685-1.683,3.78685-2.52453,0-.40343-2.418-1.82217-4.93525-3.19012-2.73336-1.4854-5.58374-2.91091-5.58374-2.91091.89046-.29682,5.023.97611,8.49015,2.12143,1.44771.47825,2.78231.9348,3.71186,1.24467,3.15569,1.05186,6.52179,5.04911,9.46707,5.68022,2.94534.63116,1.68308-3.7868,1.68308-3.7868s7.57365,5.46987,10.519,3.57645C262.58274,268.06563,258.58591,264.89732,255.98764,263.106Z"/><path class="cls-6" d="M269.8999,132.62849c1.0929-3.49734-1.31148-4.37166-.65574-7.43184s-.87432-.65574-.43716-5.46462c.43716-4.80882-1.0929-7.65042-3.06018-10.492s-.65574-3.71592-4.59024-6.12036c-3.93456-2.40444-4.15314-.65574-4.15314-3.71592s-.87432-10.05487-11.80351-15.73806-16.831-2.623-16.831-2.623-1.96728-2.623-8.08764-2.623c-6.1203,0-7.21326,4.80882-7.21326,4.80882s-2.18581-1.31148-9.83628,1.53012-12.45925,6.55752-20.10973,9.83628c-4.02806,1.72629-9.34443,7.61713-11.36634,13.33363-2.03843,5.76306-.76549,11.35567-.65574,13.98936,0,0,0,1.96722-2.623,3.27876-2.623,1.31148-8.30617,11.80351-1.53007,17.70529a24.87221,24.87221,0,0,0,2.49438,1.93527c4.4049,2.94524,4.811.30462,5.37463,3.31076.65574,3.49735,6.99468,11.80351,12.24072,11.58493a3.4761,3.4761,0,0,1,2.623,1.53006c1.093,1.53012,4.37172,3.06018,6.99469,1.7487.382-.191.70874-.35091,1.00426-.48762,1.73381-.802,2.25116-.69652,4.67894.05046,1.49346.45952,4.55158-1.01326,7.12208-2.514a5.12912,5.12912,0,0,1-.346-.76479c-1.53007-4.5903-4.59025-18.1425-4.59025-18.1425a4.401,4.401,0,0,1-3.49734-.65574c-1.04282-.72971-1.95553-2.84989-2.623-3.9345-1.74869-2.8416-3.06018-14.20795,0-15.73807,1.9015-.95072,4.64688.29276,6.4533,1.37072a4.82663,4.82663,0,0,1,2.21883,2.96976c.39227,1.57208,1.08917,3.69448,2.03848,3.96574,1.53011.43716,5.6832-3.27876,5.6832-5.246,0-1.96722,1.0929.43716,3.06018-.87432,1.96722-1.31148,1.96722-5.0274,3.9345-6.55752,1.96722-1.53006,1.53006,1.53012,4.37166-1.0929a9.08693,9.08693,0,0,0,2.54457-3.774,1.32465,1.32465,0,0,1,1.62914-.85467,3.48294,3.48294,0,0,0,3.25813-.61735c2.18586-1.74864-.65574-5.246,6.33894-3.71592,2.90111.63462,4.113-1.65795,6.339-1.74864a16.30271,16.30271,0,0,1,6.7761,1.74864s10.05486,7.43184,8.5248,15.95664c-1.53012,8.52475-4.80888,19.2354-5.6832,22.95132s0,6.55753-2.40444,10.492c-.33613.55-.81309,1.3059-1.39866,2.19528-1.21283,1.84215-2.90733,4.27425-4.87574,6.75428,2.55653.2574,4.62441.28122,5.1815-.20624,1.49091-1.30455,2.666-4.19407,4.33419-5.96707a5.98361,5.98361,0,0,1,.91184-.809c2.18581-1.53006,7.43185-4.15308,6.33889-8.30616,0,0,5.90178-5.46462,6.33894-7.869S268.807,136.12583,269.8999,132.62849Z"/><path class="cls-3" d="M253.06894,106.39841a16.30271,16.30271,0,0,0-6.7761-1.74864c-2.226.09069-3.43784,2.38326-6.339,1.74864-6.99468-1.53006-4.15308,1.96728-6.33894,3.71592a3.48294,3.48294,0,0,1-3.25813.61735,1.32465,1.32465,0,0,0-1.62914.85467,9.08693,9.08693,0,0,1-2.54457,3.774c-2.8416,2.623-2.40444-.43716-4.37166,1.0929-1.96728,1.53012-1.96728,5.246-3.9345,6.55752-1.96728,1.31148-3.06018-1.0929-3.06018.87432,0,1.96728-4.15309,5.6832-5.6832,5.246-.94931-.27126-1.64621-2.39366-2.03848-3.96574a4.82663,4.82663,0,0,0-2.21883-2.96976c-1.80642-1.078-4.5518-2.32144-6.4533-1.37072-3.06018,1.53012-1.74869,12.89647,0,15.73807.66749,1.08461,1.5802,3.20479,2.623,3.9345a4.401,4.401,0,0,0,3.49734.65574s3.06018,13.5522,4.59025,18.1425a5.12912,5.12912,0,0,0,.346.76479c1.96847,3.67975,9.93071,10.90016,16.97666,14.14026,2.831,1.30185,5.51368,1.96468,7.596,1.48875,4.366-.99793,9.29955-6.05327,13.17953-10.94158,1.96841-2.48,3.66291-4.91213,4.87574-6.75428.58557-.88938,1.06253-1.64528,1.39866-2.19528,2.40444-3.9345,1.53011-6.7761,2.40444-10.492s4.15308-14.42657,5.6832-22.95132C263.1238,113.83025,253.06894,106.39841,253.06894,106.39841Z"/><path class="cls-6" d="M128.19649,240.14537c.49775-5.30933,1.91037-10.69208,2.31418-15.5681.62022-7.48934.1744-13.7455.6311-16.40961,1.04337-6.086,8.55171-33.85939,13.85829-48.18743-7.47722,1.36676-16.83227,3.107-23.30007,4.12433-19.45393,3.06018-20.8168,53.99484-21.20263,58.79911-1.65232,20.57342-1.201,32.71359-.78476,38.13143l30.30287-.33878C128.0242,254.62144,127.02768,252.61312,128.19649,240.14537Z"/><path class="cls-3" d="M376.64717,271.62615a6.093,6.093,0,0,1-3.99021,2.33665c-17.05317,2.39372-77.80391,11.30733-98.57561,14.35836a5.2035,5.2035,0,0,1-4.78359-1.83977,12.98586,12.98586,0,0,1-8.69844,2.16285l-61.9659-6.80112a12.52428,12.52428,0,0,1-5.94255-2.27909l-1.25268-.9002a2.41984,2.41984,0,0,1,.77264-4.30068c4.83871-1.32,12.79987-3.491,21.76053-5.931a14.08827,14.08827,0,0,0-4.35786-.30624,170.32993,170.32993,0,0,1-30.5051-.42076c-11.86382-1.18635-27.02974-.14337-37.27248-1.00984-6.10428-.51638-10.46111-1.71042-11.32525-4.46-.17126-.545-.336-1.05337-.4952-1.53894l-30.30287.33878-39.56588.44236a5.95364,5.95364,0,0,0-4.52343,2.16149L29.36652,295.42321h410.1297C438.05073,294.94138,404.1418,282.07215,376.64717,271.62615Z"/><path class="cls-7" d="M262.41884,241.82845c-2.31418-4.62836-1.47267-33.8712-.63116-54.278.76143-18.46525-1.75005-25.73353-5.04029-28.97579-1.66824,1.773-2.84328,4.66252-4.33419,5.96707-.55709.48746-2.625.46364-5.1815.20624-3.88,4.88831-8.81355,9.94365-13.17953,10.94158-2.08228.47593-4.765-.1869-7.596-1.48875-19.55442,6.85412-26.45543-4.733-28.77768-11.67675-.29552.13671-.62228.29665-1.00426.48762-2.623,1.31148-5.90173-.21858-6.99469-1.7487a3.4761,3.4761,0,0,0-2.623-1.53006c-5.246.21858-11.585-8.08758-12.24072-11.58493-.56364-3.00614-.96973-.36552-5.37463-3.31076-10.98468-1.6227-18.743,3.35132-21.46907,8.21093a54.0895,54.0895,0,0,0-2.97214,6.93209c-5.30658,14.328-12.81492,42.10145-13.85829,48.18743-.4567,2.66411-.01088,8.92027-.6311,16.40961-.40381,4.876-1.81643,10.25877-2.31418,15.5681-1.16881,12.46775-.17229,14.47607,1.819,20.551.15918.48557.32394.99393.4952,1.53894.86414,2.74961,5.221,3.94365,11.32525,4.46,10.24274.86647,25.40866-.17651,37.27248,1.00984a170.32993,170.32993,0,0,0,30.5051.42076,14.08827,14.08827,0,0,1,4.35786.30624c2.06555.44571,3.45538,1.10064,3.42619.74567q-.06951-.84384-.11987-1.64582c-.04705-.745-.07835-1.45442-.10277-2.14742-.07445-2.11752-.04911-3.99839.05117-5.66327.42633-7.07926,2.17838-10.29635,3.12894-11.54042a3.75977,3.75977,0,0,1,.619-.6722s9.46707-19.98606,9.88783-18.09263,3.78685,7.57364,3.15574,12.202a10.44964,10.44964,0,0,0,.39569,4.77044c3.64894-.055,7.115.33748,9.70254,1.541a40.91511,40.91511,0,0,1,6.91634,3.95605c2.97187,2.17584,3.60265,3.61765,3.60265,3.61765s1.21532.52677,2.54381,1.20671c5.78607-1.55681,9.52576-2.54868,9.66112-2.54868l5.58991.66538.80263-5.15952C269.05958,247.5875,263.76947,244.52976,262.41884,241.82845Z"/><path class="cls-1" d="M233.21877,240.98363c.6311-4.62836-2.73494-10.30859-3.15575-12.202-.42075-1.89343-9.88783,18.09263-9.88783,18.09263a3.76,3.76,0,0,0-.619.6722,76.15013,76.15013,0,0,1,14.05823-1.79239A10.44975,10.44975,0,0,1,233.21877,240.98363Z"/><path class="cls-1" d="M208.68074,159.42611c-2.57049,1.50072-5.62862,2.97349-7.12208,2.514-2.42777-.747-2.94512-.8525-4.67893-.05046,2.32225,6.94373,9.22326,18.53088,28.77768,11.67675C218.61145,170.32627,210.64921,163.10586,208.68074,159.42611Z"/><path class="cls-8" d="M225.85547,259.91782s2.85037,1.42551,5.58374,2.91091q1.46107-.397,2.90641-.78948C230.87849,260.89394,226.74593,259.621,225.85547,259.91782Z"/><path class="cls-8" d="M216.37611,264.75015c.02442.693.05571,1.40239.10276,2.14741,1.62363-.442,3.27043-.89018,4.92881-1.34137a22.11306,22.11306,0,0,0-2.49475-.58925A24.129,24.129,0,0,0,216.37611,264.75015Z"/><path class="cls-8" d="M266.04092,253.52674c-.13536,0-3.87506.99187-9.66113,2.54868,1.6527.846,3.46664,1.92564,3.34758,2.5274-.00336.01684.00568.03666-.00076.05274-.42075,1.05186-.2104,3.366-6.52179,2.52453,0,0,.86252.51821,1.984,1.29145,2.59828,1.79136,6.5951,4.95967,4.53778,6.28225-2.94534,1.89343-10.519-3.57645-10.519-3.57645s1.26227,4.418-1.68307,3.7868c-2.94529-.6311-6.31138-4.62836-9.46707-5.68022-.92955-.30987-2.26415-.76641-3.71186-1.24467q-1.44492.39236-2.90641.78948c2.51722,1.368,4.93525,2.7867,4.93525,3.19012,0,.84152,1.89342,3.57645-3.78685,2.52454-4.25878-.78867-8.28088-2.16859-11.17993-2.9872-1.65838.45119-3.30518.89939-4.92881,1.34137q.05069.80242.11988,1.64583c.02918.355-1.36065-.3-3.4262-.74568-8.96066,2.44-16.92181,4.611-21.76053,5.931a2.41984,2.41984,0,0,0-.77263,4.30068l1.25268.9002a12.52425,12.52425,0,0,0,5.94255,2.2791l61.9659,6.80111A12.98586,12.98586,0,0,0,268.499,285.847a5.19138,5.19138,0,0,1-1.14781-4.14539l2.30774-14.83412,1.30531-8.39031.66662-4.285Z"/><path class="cls-8" d="M389.35016,169.52694l-98.61707-1.87843a6.44026,6.44026,0,0,0-6.48638,5.44914l-11.81325,75.935-.80264,5.15951-.66662,4.285-1.30531,8.39031-2.30774,14.83412a5.24213,5.24213,0,0,0,5.9314,5.98516c20.77169-3.051,81.52243-11.96464,98.5756-14.35835a6.14293,6.14293,0,0,0,5.186-5.11577l14.84-95.67066A2.6147,2.6147,0,0,0,389.35016,169.52694Z"/><path class="cls-8" d="M255.18883,262.47154c-1.12149-.77324-1.984-1.29145-1.984-1.29145,6.31139.84151,6.101-1.47267,6.52179-2.52453.00644-.01608-.0026-.0359.00076-.05274.11906-.60176-1.69488-1.68145-3.34758-2.5274-1.32848-.67994-2.54381-1.20671-2.54381-1.20671s-.63078-1.44181-3.60265-3.61765A40.91494,40.91494,0,0,0,243.317,247.295c-2.5875-1.20347-6.0536-1.596-9.70255-1.54095a76.15013,76.15013,0,0,0-14.05823,1.79239c-.95056,1.24408-2.70261,4.46117-3.129,11.54042-.10027,1.66488-.12561,3.54575-.05116,5.66328a24.129,24.129,0,0,1,2.53682.21679,22.11306,22.11306,0,0,1,2.49475.58925c2.899.81861,6.92115,2.19853,11.17993,2.9872,5.68027,1.05191,3.78685-1.683,3.78685-2.52454,0-.40342-2.418-1.82217-4.93525-3.19012-2.73337-1.4854-5.58374-2.91091-5.58374-2.91091.89046-.29681,5.023.97612,8.49015,2.12143,1.44771.47826,2.78231.9348,3.71186,1.24467,3.15569,1.05186,6.52178,5.04912,9.46707,5.68022,2.94534.63116,1.68307-3.7868,1.68307-3.7868s7.57365,5.46988,10.519,3.57645C261.78393,267.43121,257.78711,264.2629,255.18883,262.47154Z"/><path class="cls-8" d="M269.1011,131.99408c1.0929-3.49735-1.31149-4.37167-.65575-7.43185s-.87432-.65574-.43716-5.46462c.43716-4.80882-1.0929-7.65042-3.06018-10.492s-.65574-3.71592-4.59024-6.12036c-3.93456-2.40444-4.15314-.65574-4.15314-3.71592s-.87432-10.05486-11.8035-15.73806c-10.92919-5.68315-16.831-2.623-16.831-2.623s-1.96728-2.623-8.08764-2.623c-6.12031,0-7.21327,4.80883-7.21327,4.80883s-2.1858-1.31149-9.83628,1.53011c-7.65042,2.8416-12.45924,6.55753-20.10972,9.83629-4.02806,1.72628-9.34444,7.61712-11.36635,13.33362-2.03842,5.76306-.76549,11.35568-.65574,13.98936,0,0,0,1.96723-2.623,3.27876s-8.30616,11.80351-1.53006,17.70529a24.87251,24.87251,0,0,0,2.49437,1.93528c4.40491,2.94523,4.811.30461,5.37463,3.31076.65575,3.49734,6.99469,11.8035,12.24072,11.58492a3.47611,3.47611,0,0,1,2.623,1.53006c1.093,1.53012,4.37172,3.06018,6.99468,1.7487.382-.191.70875-.35091,1.00427-.48762,1.73381-.802,2.25116-.69651,4.67893.05046,1.49346.45952,4.55159-1.01325,7.12208-2.514a5.13071,5.13071,0,0,1-.346-.76479c-1.53006-4.5903-4.59024-18.1425-4.59024-18.1425a4.401,4.401,0,0,1-3.49734-.65574c-1.04282-.7297-1.95553-2.84988-2.623-3.9345-1.7487-2.8416-3.06018-14.208,0-15.73806,1.90149-.95072,4.64688.29275,6.45329,1.37071a4.82659,4.82659,0,0,1,2.21883,2.96976c.39228,1.57208,1.08917,3.69448,2.03848,3.96574,1.53012.43717,5.6832-3.27876,5.6832-5.246s1.0929.43716,3.06018-.87433,1.96723-5.0274,3.9345-6.55752c1.96723-1.53006,1.53007,1.53012,4.37167-1.0929a9.08682,9.08682,0,0,0,2.54456-3.774,1.32465,1.32465,0,0,1,1.62915-.85466,3.483,3.483,0,0,0,3.25813-.61736c2.18586-1.74864-.65574-5.246,6.33894-3.71592,2.9011.63463,4.113-1.658,6.33894-1.74864a16.30282,16.30282,0,0,1,6.7761,1.74864s10.05486,7.43184,8.5248,15.95664c-1.53012,8.52475-4.80888,19.23541-5.6832,22.95133s0,6.55752-2.40444,10.492c-.33612.55-.81308,1.30591-1.39865,2.19528-1.21283,1.84215-2.90733,4.27426-4.87575,6.75428,2.55653.2574,4.62441.28123,5.1815-.20623,1.49092-1.30456,2.666-4.19407,4.3342-5.96708a5.98314,5.98314,0,0,1,.91184-.809c2.1858-1.53006,7.43184-4.15308,6.33889-8.30616,0,0,5.90178-5.46462,6.33894-7.869C269.97542,138.5516,268.00819,135.49142,269.1011,131.99408Z"/><path class="cls-8" d="M252.27013,105.764a16.30282,16.30282,0,0,0-6.7761-1.74864c-2.226.09069-3.43784,2.38327-6.33894,1.74864-6.99468-1.53006-4.15308,1.96728-6.33894,3.71592a3.483,3.483,0,0,1-3.25813.61736,1.32465,1.32465,0,0,0-1.62915.85466,9.08682,9.08682,0,0,1-2.54456,3.774c-2.8416,2.623-2.40444-.43716-4.37167,1.0929-1.96727,1.53012-1.96727,5.246-3.9345,6.55752s-3.06018-1.0929-3.06018.87433-4.15308,5.6832-5.6832,5.246c-.94931-.27126-1.6462-2.39366-2.03848-3.96574a4.82659,4.82659,0,0,0-2.21883-2.96976c-1.80641-1.078-4.5518-2.32143-6.45329-1.37071-3.06018,1.53011-1.7487,12.89646,0,15.73806.66749,1.08462,1.5802,3.2048,2.623,3.9345a4.401,4.401,0,0,0,3.49734.65574s3.06018,13.5522,4.59024,18.1425a5.13071,5.13071,0,0,0,.346.76479c1.96847,3.67975,9.93071,10.90016,16.97667,14.14026,2.831,1.30185,5.51367,1.96468,7.59595,1.48875,4.366-.99793,9.29955-6.05327,13.17953-10.94158,1.96842-2.48,3.66292-4.91213,4.87575-6.75428.58557-.88937,1.06253-1.64528,1.39865-2.19528,2.40444-3.9345,1.53012-6.7761,2.40444-10.492s4.15308-14.42658,5.6832-22.95133C262.325,113.19583,252.27013,105.764,252.27013,105.764Z"/><path class="cls-8" d="M127.39768,239.511c.49775-5.30934,1.91038-10.69209,2.31418-15.56811.62023-7.48934.1744-13.74549.63111-16.40961,1.04336-6.086,8.55171-33.85939,13.85828-48.18743-7.47721,1.36677-16.83226,3.107-23.30007,4.12433-19.45392,3.06018-20.81679,53.99484-21.20262,58.79911-1.65232,20.57342-1.201,32.71359-.78477,38.13143l30.30287-.33878C127.2254,253.987,126.22887,251.9787,127.39768,239.511Z"/><path class="cls-8" d="M375.84837,270.99174a6.093,6.093,0,0,1-3.99022,2.33665c-17.05317,2.39371-77.80391,11.30732-98.5756,14.35835A5.2035,5.2035,0,0,1,268.499,285.847a12.98586,12.98586,0,0,1-8.69844,2.16285l-61.9659-6.80111a12.52425,12.52425,0,0,1-5.94255-2.2791l-1.25268-.9002a2.41984,2.41984,0,0,1,.77263-4.30068c4.83872-1.32,12.79987-3.491,21.76053-5.931a14.08853,14.08853,0,0,0-4.35785-.30624,170.32981,170.32981,0,0,1-30.5051-.42075c-11.86382-1.18636-27.02974-.14338-37.27249-1.00985-6.10428-.51637-10.4611-1.71042-11.32525-4.46-.17125-.545-.336-1.05337-.4952-1.53894l-30.30287.33878-39.56587.44236a5.95361,5.95361,0,0,0-4.52343,2.16149L28.56771,294.78879H438.69742C437.25193,294.307,403.343,281.43774,375.84837,270.99174Z"/><path class="cls-8" d="M261.62,241.194c-2.31418-4.62836-1.47267-33.87119-.63116-54.278.76143-18.46525-1.75-25.73353-5.04029-28.97579-1.66824,1.773-2.84328,4.66252-4.3342,5.96708-.55709.48746-2.625.46363-5.1815.20623-3.88,4.88831-8.81355,9.94365-13.17953,10.94158-2.08228.47593-4.765-.1869-7.59595-1.48875-19.55442,6.85413-26.45543-4.733-28.77768-11.67675-.29552.13671-.62228.29666-1.00427.48762-2.623,1.31148-5.90172-.21858-6.99468-1.7487a3.47611,3.47611,0,0,0-2.623-1.53006c-5.246.21858-11.585-8.08758-12.24072-11.58492-.56364-3.00615-.96972-.36553-5.37463-3.31076-10.98468-1.62271-18.743,3.35131-21.46907,8.21092a54.09094,54.09094,0,0,0-2.97214,6.93209c-5.30657,14.328-12.81492,42.10145-13.85828,48.18743-.45671,2.66412-.01088,8.92027-.63111,16.40961-.4038,4.876-1.81643,10.25877-2.31418,15.56811-1.16881,12.46774-.17228,14.47606,1.819,20.55094.15919.48557.32395.99393.4952,1.53894.86415,2.74961,5.221,3.94366,11.32525,4.46,10.24275.86647,25.40867-.17651,37.27249,1.00985a170.32981,170.32981,0,0,0,30.5051.42075,14.08853,14.08853,0,0,1,4.35785.30624c2.06555.44572,3.45538,1.10065,3.4262.74568q-.06952-.84384-.11988-1.64583c-.04705-.745-.07834-1.45442-.10276-2.14741-.07445-2.11753-.04911-3.9984.05116-5.66328.42634-7.07925,2.17839-10.29634,3.129-11.54042a3.76,3.76,0,0,1,.619-.6722s9.46708-19.98606,9.88783-18.09263c.42081,1.89342,3.78685,7.57365,3.15575,12.202a10.44975,10.44975,0,0,0,.39568,4.77043c3.64895-.055,7.115.33748,9.70255,1.54095a40.91494,40.91494,0,0,1,6.91633,3.95605c2.97187,2.17584,3.60265,3.61765,3.60265,3.61765s1.21533.52677,2.54381,1.20671c5.78607-1.55681,9.52577-2.54868,9.66113-2.54868l5.5899.66538.80264-5.15951C268.26078,246.95309,262.97066,243.89534,261.62,241.194Z"/><path class="cls-8" d="M220.17519,246.87425s-1.50233-2.30213-10.89976-.2884-38.93223-6.4887-46.53967-5.14621-20.13736,4.475-16.78113,2.90873,14.99114-2.90873,14.76739-5.81746-15.21489,3.35622-11.18742.67124,10.96367-1.11874,11.85867-7.15995,9.17368-44.52593,7.16-51.46213"/><path class="cls-8" d="M230.063,228.78162s4.496-15.98178,5.61472-24.708"/><path class="cls-8" d="M261.62,241.194c-.88248-1.09688-25.71855-1.99188-25.04731-.20189s30.06478-.19119,24.16483,1.56624c-10.51617,3.13248-2.01373,2.01374,2.01374,1.56624"/><path class="cls-8" d="M249.20762,265.17734s-8.83116-8.52281-11.06865-9.4178-10.73992-.4475-10.73992-.4475"/><path class="cls-8" d="M252.8598,261.10451s-11.73941-8.72732-14.72083-9.59619"/><path class="cls-8" d="M253.836,254.86871s1.37388,3.72179-1.98021,3.84158c-2.16252.07723-4.78844-1.85359-4.78844-1.85359"/><line class="cls-8" x1="267.27684" y1="283.12616" x2="189.7382" y2="275.47213"/><path class="cls-8" d="M227.3225,267.32858l-6.40776,2.2271a.72856.72856,0,0,0,.03887,1.39123l21.90692,2.46356a4.165,4.165,0,0,0,2.42509-.05526l14.441-4.60142"/><path class="cls-8" d="M261.12034,267.8181l2.46314-.84936a.85854.85854,0,0,0-.00179-1.62389l-8.39286-2.87331"/><line class="cls-8" x1="234.47427" y1="264.46787" x2="238.05748" y2="263.28392"/><path class="cls-8" d="M216.5348,168.05431s-7.7903,4.91128-8.80643,6.77417"/><path class="cls-8" d="M200.44613,127.748s-2.879,2.371.67742,5.9274"/><path class="cls-8" d="M245.83311,138.24793s.67742,10.5,2.54032,13.20965c1.82546,2.65521,1.01613,5.25-4.0645,4.91127s-7.95966-.67741-9.65321-3.21773"/><path class="cls-8" d="M243.97022,163.31238s-6.26612.50807-8.129,0a9.445,9.445,0,0,1-4.23386-2.54031"/><circle class="cls-6" cx="235.16379" cy="138.58664" r="1.18548"/><circle class="cls-6" cx="252.60729" cy="140.78825" r="1.18548"/><path class="cls-6" d="M336.23911,232.81511l2.94653,3.11273c4.84148,5.11948,13.51778,4.47516,19.34127-1.43668a16.99787,16.99787,0,0,0,4.91138-10.32489,12.33342,12.33342,0,0,0-3.1068-9.73674c-4.83067-5.13073-13.506-4.50193-19.338,1.40013l-15.66494,15.85266c-2.75838,2.79139-6.86041,3.08863-9.14548.6623-2.28837-2.43065-1.90553-6.68668.85342-9.48756a7.52841,7.52841,0,0,1,4.75384-2.29652,5.39335,5.39335,0,0,1,4.39318,1.61718l2.9332,3.08726,5.59213-5.64832-2.95664-3.10921c-4.841-5.11951-13.51755-4.47493-19.34151,1.43675-5.83423,5.92233-6.64375,14.92188-1.80458,20.06163a11.402,11.402,0,0,0,9.3059,3.43608,15.91313,15.91313,0,0,0,10.03209-4.83627L345.60905,220.753c2.75837-2.79113,6.86111-3.08843,9.14549-.66229a5.83348,5.83348,0,0,1,1.46918,4.60473,8.03929,8.03929,0,0,1-2.32261,4.88283c-2.75409,2.79567-6.85748,3.10024-9.147.67934L341.824,227.1648Z"/><rect class="cls-9" x="929.58971" y="43.63026" width="224.79573" height="153.41504" rx="13.51645"/><rect class="cls-9" x="1080.09092" y="82.19115" width="46.42196" height="24.80457"/><rect class="cls-9" x="956.14226" y="78.71747" width="47.8205" height="18.74848"/><rect class="cls-9" x="954.59967" y="124.77219" width="46.15924" height="18.86715"/><rect class="cls-9" x="954.24368" y="146.66199" width="24.68155" height="16.01927"/><rect class="cls-9" x="1021.68644" y="80.49466" width="19.08135" height="37.95651"/><path class="cls-9" d="M955.6276,117.95781h.00441c-.00032-.01186-.00441-.02332-.00441-.03522Z"/><path class="cls-9" d="M974.20086,104.67976c-.22934,1.99324-4.28792,3.582-9.27568,3.582-4.98765,0-9.04623-1.58876-9.27557-3.582h-.022v13.24283c0,.0119.00409.02336.00441.03522.04727,2.05925,4.18771,3.72307,9.29317,3.72307,5.10557,0,9.246-1.66382,9.29328-3.72307h.01552v-13.278Z"/><path class="cls-9" d="M964.92518,100.74518c-5.13491,0-9.29758,1.68265-9.29758,3.75829a1.5393,1.5393,0,0,0,.022.17629c.22934,1.99324,4.28792,3.582,9.27557,3.582,4.98776,0,9.04634-1.58876,9.27568-3.582a1.5393,1.5393,0,0,0,.022-.17629C974.22287,102.42783,970.0602,100.74518,964.92518,100.74518Z"/><polyline class="cls-10" points="1009.687 89.508 1012.647 89.508 1012.647 95.264 1016.758 95.264"/><line class="cls-10" x1="974.3295" y1="111.70866" x2="1017.58017" y2="111.70866"/><line class="cls-10" x1="1001.1614" y1="136.21189" x2="1030.07846" y2="136.21189"/><polyline class="cls-10" points="982.552 154.959 1030.078 154.959 1030.078 124.334"/><rect class="cls-10" x="945.35796" y="70.27473" width="106.26547" height="103.17303" rx="7.48246"/><rect class="cls-10" x="1067.49897" y="70.27473" width="71.27494" height="48.07089" rx="7.48246"/><line class="cls-10" x1="1051.62343" y1="93.22903" x2="1073.88458" y2="93.22903"/><line class="cls-10" x1="1051.62343" y1="153.43901" x2="1072.73997" y2="153.43901"/><path class="cls-9" d="M1122.88455,152.97452a14.382,14.382,0,0,0-25.89477-11.69968,10.48437,10.48437,0,0,0-12.54472,10.28332c0,.22249.01959.44005.03327.65911a9.48265,9.48265,0,0,0-7.29188,9.22091v0a9.48632,9.48632,0,0,0,9.48632,9.48636h31.94389a9.48637,9.48637,0,0,0,9.48633-9.48636v0A9.47773,9.47773,0,0,0,1122.88455,152.97452Z"/><polygon class="cls-6" points="1076.227 153.479 1072.175 151.14 1072.175 155.819 1076.227 153.479"/><polygon class="cls-6" points="1077.416 93.108 1073.364 90.769 1073.364 95.448 1077.416 93.108"/><polygon class="cls-6" points="1020.149 95.609 1016.096 93.27 1016.096 97.949 1020.149 95.609"/><polygon class="cls-6" points="1005.804 89.37 1009.856 91.709 1009.856 87.03 1005.804 89.37"/><polygon class="cls-6" points="980.079 155.102 984.131 157.441 984.131 152.762 980.079 155.102"/><polygon class="cls-6" points="1029.801 120.992 1027.461 125.044 1032.14 125.044 1029.801 120.992"/><polygon class="cls-6" points="1019.717 111.769 1015.665 109.43 1015.665 114.109 1019.717 111.769"/><line class="cls-10" x1="996.56659" y1="124.65395" x2="996.56659" y2="112.00509"/><path class="cls-7" d="M1187.42736,186.67066c.64715-.04047,1.58492-.92935,2.7125-2.41122a.94714.94714,0,0,0,.05712-1.05137l-2.78378-4.74507a.953.953,0,0,0-1.75421.27856C1184.98349,181.921,1184.41053,186.85922,1187.42736,186.67066Z"/><path class="cls-11" d="M1199.74992,130.134c-.12287.08055-.22846.15148-.35949.23662-2.9051,1.88836-4.06718,1.3073-6.53649.581-2.46938-.72624-5.084-6.246-6.246-8.13436-1.162-1.88831-4.64819-10.749-8.71537-11.76575s-6.24605,4.35768-6.68178,5.665a36.25956,36.25956,0,0,1-2.03358,4.79341c-.87157,1.45258,1.162,2.90516.43573,5.37448-.72624,2.46937,0,0-1.0168,0s-.72623,3.77667-1.01679,2.46937-3.48612-2.75988-4.9387-3.77667,1.0168-6.97228-6.10076-9.44166c-7.11757-2.46932-5.81027-3.63139-6.97229-7.40806-1.16207-3.77668.14523-6.10077-.43578-7.69858s-7.26279,4.503-9.87744,6.10077c-2.6146,1.59781-5.084,7.55335-5.2292,8.27958-.01761.08788-.06171.12706-.12493.12935a25.95705,25.95705,0,0,0,1.43223,8.29551c2.03359,5.81027,5.51976,9.29644,4.2124,15.54243-1.3073,6.246-2.32409,9.00592-.14522,9.29643a30.41352,30.41352,0,0,0,4.51615.16208.93786.93786,0,0,1,.72473.30119c1.18709,1.28546,5.44773,6.25651,5.07229,11.012-.43573,5.51976,1.88836,7.26285,3.77667,7.11757,1.74332-.13413,13.76193-3.8584,17.54086-5.344a.938.938,0,0,1,1.156.39529,13.12548,13.12548,0,0,0,4.98,4.94873c3.48617,1.74308,8.27964,7.84385,8.27964,7.84385l.014.02392.76827,1.30954,3.53295,6.02205a.95134.95134,0,0,0,1.61059.05712c5.83113-8.71072,15.09393-28.59223,17.7681-34.4199a1.42261,1.42261,0,0,1,.6785-.692C1206.40659,142.89746,1201.31586,135.3938,1199.74992,130.134Z"/><path class="cls-6" d="M1201.2788,115.845c.43573-4.2124-1.16208-1.74309-2.46938-6.82706s-1.74308-2.46932-2.75988-5.37448c-1.01679-2.9051-3.1956-11.62047-9.29637-14.96141-6.10077-3.34089-6.53655-2.6146-8.13436-3.63139s-.72629-2.3241-2.32409-2.03359c-1.59786.2905-3.77668,3.05038-3.34089,1.16207.43573-1.88836,3.19561-3.34089.581-3.77667a18.65794,18.65794,0,0,0-7.98913.14528c-3.48612.72623-6.5365-1.30736-10.02267-.43579a32.315,32.315,0,0,0-16.995,9.44166c-7.26279,7.26279-6.97228,15.39714-6.97228,15.39714s-.72629,6.39127-.14528,7.55335c.51074,1.02143,2.03046,3.051,2.48972,3.03445.06322-.00229.10732-.04147.12493-.12935.14523-.72623,2.6146-6.68177,5.2292-8.27958,2.61465-1.5978,9.29643-7.69857,9.87744-6.10077s-.72629,3.9219.43578,7.69858c1.162,3.77667-.14528,4.93874,6.97229,7.40806,7.11756,2.46938,4.64818,8.42486,6.10076,9.44166s4.64819,2.46937,4.9387,3.77667,0-2.46937,1.01679-2.46937.29056,2.46937,1.0168,0c.72628-2.46932-1.3073-3.9219-.43573-5.37448a36.25956,36.25956,0,0,0,2.03358-4.79341c.43573-1.30736,2.6146-6.68183,6.68178-5.665s7.55335,9.87744,8.71537,11.76575c1.16207,1.88836,3.77667,7.40812,6.246,8.13436,2.46931.72629,3.63139,1.30735,6.53649-.581.131-.08514.23662-.15607.35949-.23662,2.60118-1.70535,3.41719-2.41074,3.41719-3.10427C1203.16711,126.30347,1200.843,120.05748,1201.2788,115.845Z"/><path class="cls-6" d="M1091.38868,282.71973c-4.1384-1.16956-13.72019-4.13034-20.19461-5.34628a.95453.95453,0,0,0-1.13319.88924v0a4.34236,4.34236,0,0,1-4.34789,4.12555l-68.19826-.17205a4.39414,4.39414,0,0,1-4.37881-4.19463l-.0336-.739a1.5999,1.5999,0,0,1-2.28015-.772L982.4,256.11141a.95345.95345,0,0,0-.86764-.5895l-26.97138-.38642a8.42053,8.42053,0,0,0-7.07455,3.67116L923.498,293.93632a.95346.95346,0,0,0,.78986,1.49113l207.33233-.53507a.95285.95285,0,0,0,.31387-1.85179c-5.81332-2.0653-11.58851-4.35665-16.11826-5.74075C1107.36024,284.71621,1096.79083,284.24643,1091.38868,282.71973Z"/><path class="cls-6" d="M1003.52707,261.23585l13.132.03819a.95654.95654,0,0,0,.81322-.45491,14.45779,14.45779,0,0,1,4.04067-4.64042c.04841-.02873.1056-.05366.15546-.08178l-18.83811-.26992a.95346.95346,0,0,0-.90191,1.29992l1.60144,4.10456Z"/><path class="cls-3" d="M1271.15774,260.69727c-4.15874-17.46695-.27726-40.75619-3.327-51.01458s-8.686-30.62251-33.54763-46.57852c-13.55506-8.69955-20.31912-13.56066-22.98537-15.55294a1.43291,1.43291,0,0,0-2.158.55111c-2.80913,6.12178-12.8887,27.75172-18.62344,35.65013-1.29556,1.78434-2.3711,2.8733-3.089,2.91819-3.75594.23476-1.94766-7.47707-1.3047-9.848a.94206.94206,0,0,0-.09874-.72776l-.521-.888a.953.953,0,0,0-.09844-.138l-.74967-.87465s-15.52621,13.30816-19.685,21.62575c-4.14051,8.281-.31124,6.66854-6.84413,12.94724a.92654.92654,0,0,0-.149.18252,24.57908,24.57908,0,0,0-3.27976,12.27668.9527.9527,0,0,0,.61388.88043c2.73376,1.04247,13.91987,5.48495,14.6496,8.647.83177,3.60428.55451,4.99056-.55452,8.59485a15.72717,15.72717,0,0,0-.57265,4.80443.95365.95365,0,0,0,1.70143.56652c4.3284-5.451,8.44762-10.76475,10.01723-12.79573.21649-.28013.38725-.50137.5031-.65157a.97932.97932,0,0,1,.44666-.32305c10.88824-3.84891,18.18437-1.07292,20.51371-.607,7.65726,1.53142,16.80277,8.14313,19.23069,9.97808a.94767.94767,0,0,1,.28723,1.16875c-1.22331,2.5554-5.59251,11.43376-8.59612,14.3372-3.52318,3.40573-10.452,9.74737-14.56236,14.56236-1.64671,1.929-5.97153,6.44135-10.80418,11.27714-4.49788,4.50089-9.43042,9.2758-13.06321,12.51825l.06864.59739.09766.84966,99.9429-.27457a.94814.94814,0,0,0,.95066-.97826A183.09852,183.09852,0,0,0,1271.15774,260.69727Z"/><path class="cls-11" d="M1169.96041,230.75393c-.72655-3.14831-11.81852-7.56587-14.61338-8.63321a.94188.94188,0,0,0-1.06575.28229c-2.46749,2.96915-14.91156,17.66915-20.641,19.16377-6.37685,1.66354-11.92187,4.7133-23.56655,4.7133-11.64462,0-17.74421,4.71331-28.2798,4.71331-10.51767,0-9.31689,1.53949-21.5808-1.84358a.8982.8982,0,0,1-.11494-.03935c-.81053-.3423-10.876-4.57717-13.80576-5.02786-3.05335-.46977-4.93238.23489-7.63345,1.76159-2.70108,1.52664-5.637,1.99641-7.86839,2.81851-1.18765.43754-2.40605,2.36786-3.287,4.07968a.953.953,0,0,0,1,1.37173c2.14728-.33247,4.0258-.464,4.71148-.50426a.94411.94411,0,0,0,.49421-.17574,12.04031,12.04031,0,0,1,5.41945-2.07033c2.05182-.21985,9.36172,2.71521,15.853,5.21041a77.12063,77.12063,0,0,0,9.51365,3.24514c5.28471,1.05693,20.19939.822,23.72251.7046,1.84633-.06155,11.01413.61868,20.18446,1.29707,8.32849.61606,16.659,1.23066,19.50965,1.28656,5.98931.11744,27.95028-2.81852,29.82926-3.40567.86046-.26891,5.85851-6.30107,11.024-12.76121a.94307.94307,0,0,0,.20421-.6926,18.20441,18.20441,0,0,1,.4365-6.8993C1170.51492,235.74449,1170.79218,234.35821,1169.96041,230.75393Z"/><path class="cls-7" d="M1066.37436,276.84781c-4.93243.23489-10.09969,1.057-14.91462.35233-4.815-.7046-11.6264-2.81851-13.97514-5.04982-2.34881-2.23135-5.87192-1.76158-9.04277-1.76158s-5.04982,6.22419-7.28118,6.8114c-1.30626.34377-1.88805-.60043-2.14593-1.4424a.95246.95246,0,0,0-1.23391-.61161,2.97863,2.97863,0,0,1-.96532.175c-.8588,0-1.79509-1.473-2.116-2.02538a.93352.93352,0,0,0-.29634-.31782c-.54155-.34992-1.11082-.90028-1.11082-2.58917,0-1.01542,1.30438-4.4303,3.09565-7.7077a.95133.95133,0,0,0-.83034-1.4102l-11.50494-.03346a.95346.95346,0,0,0-.80752.44211l-9.58179,15.07956a1.57637,1.57637,0,0,1-.56106.52349l.0336.739a4.39414,4.39414,0,0,0,4.37881,4.19463l68.19826.17205a4.34236,4.34236,0,0,0,4.34789-4.12555l.011-.21963a.96051.96051,0,0,0-.82921-.99436A16.2042,16.2042,0,0,0,1066.37436,276.84781Z"/><path class="cls-11" d="M1201.0202,228.84959c-2.32934-.46589-9.62547-3.24188-20.51371.607a.97937.97937,0,0,0-.44666.323c-.11585.15021-.28661.37145-.5031.65157-1.75276,2.268-6.68486,8.62951-11.53724,14.70451-5.253,6.57668-10.39914,12.80015-11.27345,13.07338-1.879.58716-23.84,3.52312-29.82926,3.40568-2.8506-.0559-11.18116-.67051-19.50965-1.28657-9.17032-.67838-18.33813-1.35861-20.18446-1.29707-3.52312.11745-18.4378.35233-23.72251-.7046a77.12021,77.12021,0,0,1-9.51365-3.24513c-6.49128-2.4952-13.80118-5.43027-15.853-5.21042a12.04029,12.04029,0,0,0-5.41945,2.07034.94428.94428,0,0,1-.49421.17574,50.05024,50.05024,0,0,0-6.51834.8251,18.00359,18.00359,0,0,0-5.02824,1.662c-.04986.02811-.107.053-.15546.08178-1.43351.85116-2.9681,2.84887-4.31989,5.09688-2.1919,3.64509-3.90077,7.9509-3.90077,9.11314,0,1.6889.56927,2.23926,1.11082,2.58918a.93348.93348,0,0,1,.29634.31781c.32092.55238,1.25721,2.02539,2.116,2.02539a2.97889,2.97889,0,0,0,.96532-.175.95246.95246,0,0,1,1.23391.6116c.25788.842.83967,1.78618,2.14593,1.44241,2.23136-.58722,4.11034-6.81141,7.28118-6.81141s6.694-.46977,9.04277,1.76159c2.34874,2.2313,9.16015,4.34522,13.97514,5.04982,4.81493.70466,9.98219-.11744,14.91462-.35233a19.22348,19.22348,0,0,1,3.74051.33472c6.43934,1.06218,16.89863,4.30072,21.27381,5.5372,5.40215,1.5267,15.97156,1.99647,24.42711,4.5801,5.9466,1.817,14.03959,5.19762,21.54749,7.57772a66.329,66.329,0,0,0,8.98642,2.28709c9.27765,1.5267,19.61217,2.70107,23.37023.822a27.18022,27.18022,0,0,0,4.11017-3.20326c.22091-.19408.44523-.39219.67732-.59929,3.63279-3.24245,8.56533-8.01736,13.06321-12.51826,4.83265-4.83578,9.15747-9.34813,10.80418-11.27714,4.11033-4.815,11.03918-11.15662,14.56236-14.56235,3.00361-2.90345,7.37281-11.7818,8.59612-14.33721a.94768.94768,0,0,0-.28723-1.16875C1217.823,236.99273,1208.67746,230.381,1201.0202,228.84959Z"/><path class="cls-5" d="M1001.23,259.25749l-1.38685-3.47325-19.08059-47.787a1.86629,1.86629,0,0,0-2.30433-1.08471l-11.85,3.80888a.2654.2654,0,0,0-.16328.3558l18.13489,44.48831,7.30326,17.91621a.78291.78291,0,0,0,1.066.40862l7.94671-11.09234A3.90846,3.90846,0,0,0,1001.23,259.25749Z"/><path class="cls-7" d="M1001.41332,255.80671,982.10948,206.3305a3.2026,3.2026,0,0,0-3.88028-1.91042l-12.21439,3.56254a2.909,2.909,0,0,0-1.87433,3.9028l18.01987,43.64548,8.66182,20.97962a1.5999,1.5999,0,0,0,2.28015.772,1.57637,1.57637,0,0,0,.56106-.52349l9.86369-15.5232.00279-.00436Zm-8.46416,18.08368a.78291.78291,0,0,1-1.066-.40862l-7.30326-17.91621L966.445,211.07725a.2654.2654,0,0,1,.16328-.3558l11.85-3.80888a1.86629,1.86629,0,0,1,2.30433,1.08471l19.08059,47.787,1.38685,3.47325a3.90846,3.90846,0,0,1-.33416,3.54056Z"/><path class="cls-1" d="M1187.72938,185.56228c.7179-.04489,1.79345-1.13385,3.089-2.91819l-4.2882-7.3094C1186.03028,177.08716,1183.738,185.81175,1187.72938,185.56228Z"/><path class="cls-8" d="M1200.05193,129.02565c-.12286.08055-.22846.15148-.35948.23662-2.9051,1.88836-4.06718,1.3073-6.5365.581-2.46937-.72624-5.084-6.246-6.246-8.13436-1.162-1.88831-4.64818-10.749-8.71536-11.76575s-6.246,4.35768-6.68178,5.665a36.25864,36.25864,0,0,1-2.03359,4.79341c-.87157,1.45258,1.162,2.90516.43573,5.37448-.72623,2.46937,0,0-1.01679,0s-.72624,3.77667-1.0168,2.46937c-.2905-1.3073-3.48611-2.75988-4.93869-3.77667s1.01679-6.97228-6.10077-9.44166c-7.11756-2.46932-5.81026-3.63139-6.97228-7.40806-1.16207-3.77668.14522-6.10077-.43578-7.69858s-7.26279,4.503-9.87745,6.10077c-2.61459,1.59781-5.084,7.55335-5.22919,8.27958-.01761.08788-.06171.12706-.12494.12935a25.95711,25.95711,0,0,0,1.43224,8.29551c2.03359,5.81027,5.51975,9.29644,4.2124,15.54243-1.3073,6.24605-2.32409,9.00592-.14523,9.29643a32.04888,32.04888,0,0,0,4.9387.14528s5.81026,5.81021,5.37447,11.33c-.43572,5.51976,1.88837,7.26285,3.77668,7.11757,1.88836-.14528,15.83293-4.503,18.3023-5.665a13.71436,13.71436,0,0,0,5.37448,5.665c3.48617,1.74308,8.27964,7.84385,8.27964,7.84385l.014.02392.76827,1.30954,4.2882,7.3094c5.73474-7.89841,15.81431-29.52835,18.62344-35.65013a1.42264,1.42264,0,0,1,.67849-.692C1206.70861,141.78908,1201.61787,134.28542,1200.05193,129.02565Z"/><path class="cls-8" d="M1201.58081,114.73664c.43573-4.2124-1.16207-1.74309-2.46937-6.82706s-1.74309-2.46932-2.75988-5.37448c-1.01679-2.9051-3.19561-11.62047-9.29638-14.96141-6.10076-3.34089-6.53655-2.6146-8.13435-3.63139s-.72629-2.3241-2.3241-2.03359c-1.59786.2905-3.77667,3.05038-3.34088,1.16207.43572-1.88836,3.1956-3.34089.581-3.77667a18.658,18.658,0,0,0-7.98914.14528c-3.48611.72623-6.53649-1.30736-10.02266-.43579a32.31505,32.31505,0,0,0-16.995,9.44166c-7.26278,7.26279-6.97228,15.39714-6.97228,15.39714s-.72629,6.39127-.14528,7.55335c.51075,1.02143,2.03046,3.051,2.48972,3.03445.06323-.00229.10733-.04147.12494-.12935.14522-.72623,2.6146-6.68177,5.22919-8.27958,2.61466-1.5978,9.29644-7.69857,9.87745-6.10077s-.72629,3.9219.43578,7.69858c1.162,3.77667-.14528,4.93874,6.97228,7.40806,7.11756,2.46938,4.64819,8.42486,6.10077,9.44166s4.64819,2.46937,4.93869,3.77667c.29056,1.3073,0-2.46937,1.0168-2.46937s.29056,2.46937,1.01679,0c.72629-2.46932-1.3073-3.9219-.43573-5.37448a36.25864,36.25864,0,0,0,2.03359-4.79341c.43573-1.30736,2.6146-6.68183,6.68178-5.665s7.55335,9.87744,8.71536,11.76575c1.16208,1.88836,3.77668,7.40812,6.246,8.13436,2.46932.72629,3.6314,1.30735,6.5365-.581.131-.08514.23662-.15607.35948-.23662,2.60119-1.70535,3.41719-2.41074,3.41719-3.10427C1203.46912,125.19509,1201.145,118.9491,1201.58081,114.73664Z"/><path class="cls-8" d="M1174.80943,293.07575c-.23209.20711-.45641.40521-.67732.59929l.746-.0019Z"/><path class="cls-8" d="M1091.6907,281.61135c-4.37518-1.23647-14.83447-4.475-21.27381-5.5372l-.09939,1.98832c-.09022,1.80479-3.04642,3.22048-4.85345,3.216l-67.6473-.17066a4.39416,4.39416,0,0,1-4.37882-4.19463l-.03359-.739a1.59991,1.59991,0,0,1-2.28016-.772l-8.66181-20.97962-28.11161-.40275a7.467,7.467,0,0,0-6.27343,3.25548l-25.29874,37.04849,214.88671-.55456c-7.5079-2.38011-15.6009-5.76069-21.5475-7.57772C1107.66225,283.60783,1097.09285,283.13805,1091.6907,281.61135Z"/><path class="cls-8" d="M1003.82908,260.12747l13.666.03975c1.3518-2.248,2.88638-4.24572,4.3199-5.09689.04841-.02873.10559-.05366.15545-.08178l-20.25512-.29022,2.11655,5.42478Z"/><path class="cls-8" d="M1271.45975,259.58889c-4.15874-17.46695-.27725-40.75619-3.327-51.01458s-8.686-30.62251-33.54762-46.57852c-13.55506-8.69955-20.31912-13.56066-22.98537-15.55294a1.4329,1.4329,0,0,0-2.158.55111c-2.80913,6.12178-12.8887,27.75172-18.62344,35.65013-1.29556,1.78434-2.37111,2.8733-3.089,2.91819-3.99138.24947-1.6991-8.47512-1.19919-10.22759l-.76827-1.30954-.80506-.93926s-15.52621,13.30816-19.685,21.62575-.27726,6.65411-6.93131,13.0309a24.4151,24.4151,0,0,0-3.327,13.0309s14.41713,5.26783,15.2489,8.87211.55452,4.99056-.55451,8.59485a18.6437,18.6437,0,0,0-.39124,7.27972c4.85239-6.075,9.78449-12.43653,11.53724-14.7045.42774-.55345.67693-.877.67693-.877,11.03918-3.99289,18.4378-1.17437,20.78655-.7046,8.91487,1.78294,19.847,10.452,19.847,10.452s-5.402,11.6264-8.92521,15.03207c-3.52317,3.40573-10.452,9.74737-14.56235,14.56236-1.64672,1.929-5.97153,6.44135-10.80419,11.27714-4.49787,4.50089-9.43042,9.2758-13.06321,12.51825l.06865.59739.09765.84966,100.92013-.27726A182.47551,182.47551,0,0,0,1271.45975,259.58889Z"/><path class="cls-8" d="M1170.26242,229.64555c-.83177-3.60428-15.2489-8.87211-15.2489-8.87211s-14.69444,18.02147-21.07123,19.685c-6.37685,1.66354-11.92188,4.71331-23.56655,4.71331-11.64462,0-17.74421,4.7133-28.2798,4.7133-10.53565,0-9.31276,1.54476-21.64381-1.861,0,0-10.80429-4.5801-13.8577-5.04982-3.05334-.46977-4.93237.23489-7.63345,1.76159-2.70107,1.52664-5.637,1.99641-7.86839,2.81851-1.61776.596-3.29259,3.96181-4.0939,5.77226a49.96376,49.96376,0,0,1,6.795-.83988,11.94753,11.94753,0,0,1,5.637-2.2313c2.05181-.21985,9.36172,2.71521,15.853,5.21041a77.1195,77.1195,0,0,0,9.51365,3.24514c5.2847,1.05693,20.19939.822,23.7225.7046,1.84633-.06154,11.01414.61868,20.18447,1.29707,8.32849.61606,16.659,1.23066,19.50965,1.28656,5.98931.11744,27.95028-2.81852,29.82925-3.40567.87431-.27324,6.02044-6.4967,11.27345-13.07339a18.6437,18.6437,0,0,1,.39124-7.27972C1170.81694,234.63611,1171.09419,233.24983,1170.26242,229.64555Z"/><path class="cls-8" d="M1066.67638,275.73943c-4.93243.23489-10.0997,1.057-14.91463.35233-4.815-.7046-11.62639-2.81851-13.97514-5.04982-2.3488-2.23135-5.87192-1.76158-9.04276-1.76158s-5.04982,6.22419-7.28118,6.8114c-2.2313.58722-2.34874-2.58363-2.34874-2.58363a3.80224,3.80224,0,0,1-1.99642.7046c-1.057,0-2.23136-2.2313-2.23136-2.2313-.58716-.35233-1.29181-.822-1.29181-2.70107,0-1.16225,1.70887-5.468,3.90076-9.11314l-13.666-.03975-9.86369,15.5232a1.57626,1.57626,0,0,1-.561.52349l.03359.739a4.39416,4.39416,0,0,0,4.37882,4.19463l67.6473.17066c1.807.00447,4.76323-1.41122,4.85345-3.216l.09939-1.98832A19.22433,19.22433,0,0,0,1066.67638,275.73943Z"/><path class="cls-8" d="M1202.31739,229.234c-2.34875-.46977-9.74737-3.28829-20.78655.7046,0,0-.24919.3236-.67693.877-1.75275,2.268-6.68485,8.6295-11.53724,14.7045-5.253,6.57669-10.39914,12.80015-11.27345,13.07339-1.879.58715-23.83994,3.52311-29.82925,3.40567-2.8506-.0559-11.18116-.6705-19.50965-1.28656-9.17033-.67839-18.33814-1.35861-20.18447-1.29707-3.52311.11744-18.4378.35233-23.7225-.7046a77.1195,77.1195,0,0,1-9.51365-3.24514c-6.49128-2.4952-13.80119-5.43026-15.853-5.21041a11.94753,11.94753,0,0,0-5.637,2.2313,49.96376,49.96376,0,0,0-6.795.83988,18.0037,18.0037,0,0,0-5.02824,1.662c-.04986.02812-.107.053-.15545.08178-1.43352.85117-2.9681,2.84887-4.3199,5.09689-2.19189,3.64509-3.90076,7.95089-3.90076,9.11314,0,1.879.70465,2.34874,1.29181,2.70107,0,0,1.17437,2.2313,2.23136,2.2313a3.80224,3.80224,0,0,0,1.99642-.7046s.11744,3.17085,2.34874,2.58363c2.23136-.58721,4.11033-6.8114,7.28118-6.8114s6.694-.46977,9.04276,1.76158c2.34875,2.23131,9.16015,4.34522,13.97514,5.04982,4.81493.70466,9.9822-.11744,14.91463-.35233a19.22433,19.22433,0,0,1,3.74051.33472c6.43934,1.06219,16.89863,4.30073,21.27381,5.5372,5.40215,1.5267,15.97155,1.99648,24.4271,4.58011,5.9466,1.817,14.0396,5.19761,21.5475,7.57772a66.32873,66.32873,0,0,0,8.98641,2.28708c9.27765,1.52671,19.61218,2.70108,23.37024.822a27.18179,27.18179,0,0,0,4.11016-3.20327c.22091-.19408.44523-.39218.67732-.59929,3.63279-3.24245,8.56534-8.01736,13.06321-12.51825,4.83266-4.83579,9.15747-9.34814,10.80419-11.27714,4.11033-4.815,11.03918-11.15663,14.56235-14.56236,3.52318-3.40567,8.92521-15.03207,8.92521-15.03207S1211.23226,231.01691,1202.31739,229.234Z"/><path class="cls-8" d="M1001.532,258.14911l-1.38684-3.47325L980.7346,206.0624a.91275.91275,0,0,0-1.12708-.53053l-12.69719,4.0812a.2654.2654,0,0,0-.16328.3558l18.13488,44.48831,7.30326,17.91621a.78291.78291,0,0,0,1.066.40862l7.9467-11.09234A3.9084,3.9084,0,0,0,1001.532,258.14911Z"/><path class="cls-8" d="M1001.71533,254.69833l-19.62111-50.28941a2.2491,2.2491,0,0,0-2.72506-1.34162l-14.072,4.10435a1.95555,1.95555,0,0,0-1.26,2.6236l18.42523,44.62727,8.66181,20.97962a1.59991,1.59991,0,0,0,2.28016.772,1.57626,1.57626,0,0,0,.561-.52349l9.86369-15.5232.0028-.00436ZM993.25118,272.782a.78291.78291,0,0,1-1.066-.40862l-7.30326-17.91621-18.13488-44.48831a.2654.2654,0,0,1,.16328-.3558l12.69719-4.0812a.91275.91275,0,0,1,1.12708.53053l19.4106,48.61346,1.38684,3.47325a3.9084,3.9084,0,0,1-.33416,3.54056Z"/><path class="cls-8" d="M1181.53084,229.93857a52.20687,52.20687,0,0,1,3.9457-10.58308c2.44527-4.483,1.42641-19.766,5.29809-24.249"/><path class="cls-8" d="M1185.47654,219.35549s5.70564-13.65279,12.8377-14.67166"/><path class="cls-8" d="M1170.26242,229.64555s-5.16319-16.607-3.12546-22.72022"/><path class="cls-8" d="M1222.16439,239.68593s4.67807,3.10346,5.28939,2.08459,17.32071-23.23012,18.74712-34.84519-8.15092-24.04521-8.15092-24.04521"/><path class="cls-8" d="M1231.12169,274.17043a63.64978,63.64978,0,0,1-12.22638,5.09433c-9.59338,2.75012-21.18648,4.66021-20.58107,6.11319,1.01886,2.44528,25.26785-5.50187,29.34331-4.483,4.89455,1.22364-19.56221,13.449-19.56221,13.449"/><path class="cls-8" d="M1019.175,273.9875a10.39908,10.39908,0,0,1,.98536-5.77138c1.42641-2.44527,1.89023-5.2532,6.16946-6.0683a35.96809,35.96809,0,0,1,9.37356-.20377"/><path class="cls-8" d="M1014.88615,271.98143s3.585-11.57778,6.54107-13.267,12.95041-1.26689,12.95041-1.26689"/><path class="cls-8" d="M1030.50659,252.59118c.14076-.21115,8.37553-7.60133,10.83892-8.9386"/><path class="cls-8" d="M1039.4307,250.2554s3.88553-5.0544,6.77121-5.68784"/><path class="cls-8" d="M1048.29055,252.77652s4.25209-.59175,5.36149.39879a4.20261,4.20261,0,0,1,1.41792,2.21549"/><path class="cls-8" d="M1070.41689,276.07415s-2.713,2.28-9.67776,2.179-67.12392-.60562-67.12392-.60562"/><path class="cls-8" d="M1002.59871,261.90117l3.99893.08694a.36357.36357,0,0,1,.29914.55819l-6.97051,10.992a2.15023,2.15023,0,0,1-1.59313.98713l-3.80948.39682"/><path class="cls-8" d="M1172.09377,160.49239s6.22582-6.51021,5.773-11.64216"/><path class="cls-8" d="M1148.88639,153.98218s6.4904-3.47161,6.64134-7.84886"/><path class="cls-8" d="M1177.56489,125.60555c1.66034-2.71691,3.16973-5.13194,1.20752-6.79228s-3.62255,1.35846-3.62255,1.35846"/><path class="cls-8" d="M1185.26281,118.66233s.90564,8.15074-1.66034,11.32046c0,0-2.415,3.77349-6.79227.45282"/><circle class="cls-6" cx="1145.21284" cy="129.2791" r="1.30745"/></g></svg>