<svg id="Layer_1" data-name="Layer 1" xmlns="http://www.w3.org/2000/svg" xmlns:xlink="http://www.w3.org/1999/xlink" viewBox="0 0 1300 294"><defs><style>.cls-1,.cls-4,.cls-7,.cls-9{fill:none;}.cls-2{clip-path:url(#clip-path);}.cls-3,.cls-5{fill:#428252;}.cls-4{stroke:#5f9c70;}.cls-11,.cls-4,.cls-5,.cls-7,.cls-9{stroke-miterlimit:10;}.cls-11,.cls-5,.cls-7,.cls-9{stroke:#0a5d2b;}.cls-11,.cls-6{fill:#0a5d2b;}.cls-7{stroke-width:0.8817px;}.cls-8{fill:#5f9c70;}.cls-10{fill:#80b590;}</style><clipPath id="clip-path"><rect class="cls-1" width="1300" height="294"/></clipPath></defs><g class="cls-2"><rect class="cls-3" width="1300" height="294"/><path class="cls-4" d="M1103.52056,16.80412l10.9169,64.48482a1.03632,1.03632,0,0,0,1.68248.62542l50.387-41.69672a1.03633,1.03633,0,0,0-.29961-1.76979l-61.30394-22.78809A1.03632,1.03632,0,0,0,1103.52056,16.80412Z"/><rect class="cls-4" x="410.45742" y="-18.22927" width="34.60656" height="34.60656" rx="1.54728" transform="translate(79.9239 248.05118) rotate(-35.47058)"/><rect class="cls-4" x="163.33542" y="-22.91236" width="52.99823" height="52.99823" rx="2.36958" transform="translate(33.14936 110.82375) rotate(-35.47058)"/><rect class="cls-4" x="25.79515" y="205.63891" width="52.99823" height="52.99823" rx="2.36958" transform="translate(-42.64586 13.94287) rotate(-10.81938)"/><rect class="cls-4" x="894.80108" y="162.24787" width="34.60656" height="34.60656" rx="1.54728" transform="translate(-5.51127 328.39517) rotate(-20.35004)"/><rect class="cls-4" x="978.55991" y="232.57972" width="34.60656" height="34.60656" rx="1.54728" transform="translate(791.87331 -756.38393) rotate(64.45443)"/><rect class="cls-4" x="1208.52651" y="114.77544" width="18.59083" height="18.59083" rx="0.8312" transform="translate(75.07605 -314.80918) rotate(15.19247)"/><path class="cls-4" d="M834.20839,294h34.78625l21.25818-17.5918a1.03629,1.03629,0,0,0-.29962-1.76977l-61.30395-22.78809a1.03627,1.03627,0,0,0-1.38282,1.14435Z"/><circle class="cls-4" cx="1233.00924" cy="218.13716" r="46.39308"/><circle class="cls-4" cx="509.27408" cy="0.55769" r="22.59069"/><rect class="cls-1" x="-3.53672" y="-0.56934" width="1303.53672" height="293.93084"/><circle class="cls-4" cx="314.54907" cy="235.21706" r="53.00195"/><rect class="cls-1" width="1300" height="294"/><rect class="cls-5" x="43.93193" y="166.01762" width="100.63407" height="76.57143" rx="6.40733"/><rect class="cls-5" x="1155.30763" y="158.58423" width="100.63407" height="76.57143" rx="6.40733"/><path class="cls-6" d="M115.16358,253.41811c3.37262-14.24.74948-66.32822,5.621-76.07136,4.733-9.46594,7.34561-20.34625,27.07854-26.79976,1.97668,2.40053,13.67689,16.1148,23.90191,17.25092,11.20918,1.24543,28.09489-3.59494,42.32877-25.30162,3.37262,0,9.74315,2.24843,21.7347,4.12212s19.48623,17.23781,25.85676,19.48624,4.49683,5.99581,6.3705,2.24843c1.84687-3.69375-5.31743-44.8595-3.17881-54.35742h0s2.02267,8.69251,16.18451,13.72634l1.40947-11.947c.09972.05388,4.49225.18661,6.92376,6.247,3.96027,9.8707,6.71163,28.0975,6.94381,32.509.37471,7.12-1.0871,53.055-3.59875,56.82245-7.49471,11.24211-17.18928,5.71527-20.93663,5.71527s-7.49472.37468-13.11574-2.24843-18.77763-13.21692-20.98522-13.11579c-2.97349.13631-5.26518,17.6912-3.48594,39.39788.49239,6.0072-3.26757,11.05952-2.50982,14.56413,2.99788,13.86521,8.6189,40.47142,8.6189,40.47142L112.1657,295.0138S111.791,267.65806,115.16358,253.41811Z"/><path class="cls-7" d="M149.87541,122.4305l.00505-.00311Z"/><path class="cls-6" d="M192.40418,67.80484c-7.82864-3.2026-15.86866,1.97544-19.39367,5.8715-3.38054,3.73638-7.6507,13.70011-8.18448,24.37551s-8.71823,10.4975-8.36239,15.65728c.17181,2.49136,4.98185,7.82864,4.98185,7.82864s.73888.46148,1.91607,1.16886c.25918,2.59786.82454,8.49879,1.145,13.603-2.33929,4.5937-6.223,7.40711-12.669,3.5543-15.35386-9.177-2.177-17.30222-1.96222-17.43339l.00505-.00311-.00505.00311c-.09985.0593-1.716.91049-5.33267-3.73949-3.73638-4.80394-.17791-8.18451,4.4481-12.0988s0-3.91432-3.73639-15.30144,4.27017-16.01313,4.98185-17.08068S166.96111,61.3996,172.12092,62.823s12.45462.1779,12.45462.1779c10.85334-.35584,15.65728,5.8715,19.39369,15.12351,2.12194,5.25435,1.43167,11.42442.4393,15.77754-.13251-.46455-.27541-.92228-.4393-1.36572C200.94453,84.35174,200.23282,71.00748,192.40418,67.80484Z"/><path class="cls-8" d="M152.37138,150.7172c5.527.10844,8.67493-.709,10.41419-2.3282a6.357,6.357,0,0,0,1.86255-4.077,56.89218,56.89218,0,0,0-.14153-8.00239c-.32049-5.10417-.88585-11.0051-1.145-13.603,1.09777.65967,2.57748,1.53327,4.21121,2.45563,3.93493,2.22152,8.7404,4.71123,11.1313,5.09378,3.15117.50417,11.924,1.45045,17.65986-1.01122l.21628,7.89494a3.94427,3.94427,0,0,0,3.51055,3.81252l14.00306,1.544c-14.23388,21.70668-31.11959,26.54705-42.32877,25.30162-10.225-1.13612-21.92523-14.85039-23.90191-17.25092C148.11544,150.46443,152.37138,150.7172,152.37138,150.7172Z"/><path class="cls-8" d="M164.826,98.05185c.53378-10.6754,4.80394-20.63913,8.18448-24.37551,3.525-3.89606,11.565-9.0741,19.39367-5.8715s8.54035,16.5469,11.56505,24.73139c.16389.44344.30679.90117.4393,1.36572,2.62813,9.21424-.73679,22.34362-3.10816,30.30468a8.06542,8.06542,0,0,1-4.93644,5.03819c-5.73583,2.46167-14.50869,1.51539-17.65986,1.01122-2.3909-.38255-7.19637-2.87226-11.1313-5.09378-1.63373-.92236-3.11344-1.796-4.21121-2.45563-1.17719-.70738-1.91607-1.16886-1.91607-1.16886s-4.81-5.33728-4.98185-7.82864C156.1078,108.54935,164.29228,108.72729,164.826,98.05185Z"/><path class="cls-8" d="M257.19825,86.02324c-.96423-1.92845-.48211-7.71383-.36159-10.9681s5.30325-6.62906,5.30325-6.62906l1.20529-8.437s.72318-9.64228,3.73638-10.36546,2.65163,3.49533,2.89268,5.18274-1.3258,15.42764-1.3258,15.42764c.72316-1.92845,1.92845-2.049,4.2185-1.68739a2.80318,2.80318,0,0,1,2.29,2.77214,4.71067,4.71067,0,0,1,3.73638.96424c1.34248.895.8388,2.71234.25979,3.96836a5.12786,5.12786,0,0,1,4.56134-1.79884c4.339.241,1.92847,3.97743,2.049,13.49917a33.10166,33.10166,0,0,1-4.70061,16.874l.2954,8.14438.54832,15.11761c-10.72705-.36161-18.07929-14.46341-18.07929-14.46341s.016-.31078.03895-.834c.08636-1.97015.27206-6.99128.08159-10.1341C263.70679,98.67874,258.16248,87.95169,257.19825,86.02324Z"/><path class="cls-7" d="M116.76529,252.62276c3.37262-14.23995.74948-66.32821,5.621-76.07136,4.733-9.46593,7.34561-20.34624,27.07854-26.79976,1.97668,2.40053,13.67689,16.11481,23.90191,17.25092,11.20918,1.24544,28.09489-3.59493,42.32877-25.30162,3.37262,0,9.74315,2.24844,21.7347,4.12213s19.48623,17.2378,25.85676,19.48623,4.49684,5.99582,6.3705,2.24843c1.84687-3.69374-7.38671-40.66157-4.78052-53.56207-.03384.77238-.0575,1.23115-.0575,1.23115s7.6599,11.17144,16.91319,12.42807l.40271-12.4839,4.7011,3.26077a7.84429,7.84429,0,0,1,3.20707,4.815c.91255,4.284,2.58544,12.16627,3.67715,17.48115,5.62,27.36046,2.36053,70.5299.29579,72.373-10.31778,9.2103-16.86428,3.17246-20.61163,3.17246s-7.49472.37468-13.11574-2.24843-18.77763-13.21693-20.98522-13.1158c-2.97349.13631-5.26518,17.69121-3.48594,39.39789.49239,6.0072-3.26757,11.05952-2.50982,14.56413,2.99788,13.86521,8.6189,40.47142,8.6189,40.47142l-128.15962-1.12416S113.39267,266.86272,116.76529,252.62276Z"/><path class="cls-7" d="M151.47712,121.63516l.005-.00311Z"/><path class="cls-7" d="M194.00589,67.0095c-7.82864-3.20261-15.86866,1.97543-19.39367,5.87149-3.38054,3.73639-7.6507,13.70011-8.18448,24.37552s-8.71823,10.4975-8.36239,15.65728c.17181,2.49136,4.98185,7.82864,4.98185,7.82864s.73888.46147,1.91607,1.16886c.25918,2.59786.82454,8.49879,1.145,13.603-2.33929,4.5937-6.223,7.40712-12.669,3.5543-15.35386-9.17694-2.177-17.30221-1.96222-17.43338l.005-.00311-.005.00311c-.09985.0593-1.716.91049-5.33267-3.73949-3.73638-4.80394-.1779-8.18452,4.4481-12.09881s0-3.91432-3.73638-15.30144,4.27016-16.01312,4.98184-17.08068,16.72481-12.81048,21.88462-11.38709,12.45462.17791,12.45462.17791c10.85334-.35584,15.65728,5.87149,19.39369,15.1235,2.12194,5.25436,1.43167,11.42442.4393,15.77754-.13251-.46454-.27541-.92227-.4393-1.36572C202.54624,83.5564,201.83453,70.21214,194.00589,67.0095Z"/><path class="cls-7" d="M153.97309,149.92186c5.527.10844,8.67493-.709,10.4142-2.3282a6.35711,6.35711,0,0,0,1.86254-4.077,56.89233,56.89233,0,0,0-.14153-8.0024c-.32049-5.10416-.88585-11.00509-1.145-13.603,1.09777.65967,2.57748,1.53326,4.21121,2.45563,3.93493,2.22152,8.74041,4.71122,11.1313,5.09377,3.15117.50417,11.924,1.45045,17.65986-1.01121l.21628,7.89494a3.94427,3.94427,0,0,0,3.51055,3.81252l14.00306,1.544c-14.23388,21.70669-31.11959,26.54706-42.32877,25.30162-10.225-1.13611-21.92523-14.85039-23.90191-17.25092C149.71715,149.66909,153.97309,149.92186,153.97309,149.92186Z"/><path class="cls-7" d="M166.42774,97.25651c.53378-10.67541,4.80394-20.63913,8.18448-24.37552,3.525-3.89606,11.565-9.0741,19.39367-5.87149s8.54035,16.5469,11.56505,24.73138c.16389.44345.30679.90118.4393,1.36572,2.62813,9.21425-.73679,22.34363-3.10815,30.30469a8.06546,8.06546,0,0,1-4.93645,5.03819c-5.73583,2.46166-14.50869,1.51538-17.65986,1.01121-2.39089-.38255-7.19637-2.87225-11.1313-5.09377-1.63373-.92237-3.11344-1.796-4.21121-2.45563-1.17719-.70739-1.91607-1.16886-1.91607-1.16886s-4.81-5.33728-4.98185-7.82864C157.70951,107.754,165.894,107.93194,166.42774,97.25651Z"/><path class="cls-7" d="M179.76666,110.62238c.789,0,10.78361,2.63015,17.885-2.36714"/><path class="cls-7" d="M189.2352,91.42228s4.15348,2.22376,4.26411,4.73587c.0853,1.93691-3.64509,4.40165-4.79014,3.94363"/><circle class="cls-6" cx="197.40293" cy="87.25984" r="1.76996"/><circle class="cls-6" cx="174.85409" cy="88.61762" r="1.76996"/><path class="cls-7" d="M239.30389,200.90918a44.112,44.112,0,0,1-5.25-28.96324"/><path class="cls-7" d="M127.471,294.28s2.45018-24.85183.175-38.67785c-1.58528-9.63359-7.35054-55.47909-1.22509-66.15487"/><path class="cls-7" d="M268.18139,168.79571s-6.82551,13.651,3.32524,23.97676"/><line class="cls-7" x1="198.18192" y1="136.34442" x2="199.55669" y2="151.42324"/><path class="cls-9" d="M258.18691,85.91141c-.98593-1.97183-.493-7.88735-.36973-11.21483s4.98719-6.29413,4.98719-6.29413l1.66777-9.11084s.73945-9.85919,3.82043-10.59863,2.71128,3.574,2.95775,5.29932c.21951,1.53643-1.02692,12.84561-1.30253,15.30394-.00912.08141.10077.10045.1368.02688.75666-1.5447,1.97178-1.62123,4.12351-1.28148a2.86625,2.86625,0,0,1,2.34155,2.83451,4.81668,4.81668,0,0,1,3.82043.98592c1.28421.85616.91621,2.53778.37861,3.80257a.04.04,0,0,0,.06759.04244,5.3096,5.3096,0,0,1,4.48338-1.62668c4.43665.24647,1.97185,4.0669,2.09508,13.80284a33.84627,33.84627,0,0,1-4.80636,17.25359l.30205,8.32759.56065,15.45769c-10.96836-.36974-18.486-14.78877-18.486-14.78877s.01639-.31777.03983-.85276c.0883-2.01448.27818-7.14855.08342-10.36207C264.84186,98.8516,259.17283,87.88324,258.18691,85.91141Z"/><path class="cls-9" d="M262.558,68.691s2.64146-2.32383,3.81182-1.70785,2.71031,6.03659-2.21752,9.85566l-.2464,6.83737"/><path class="cls-9" d="M270.00415,71.25189s.24635,4.90936,2.83346,5.27894,4.26-1.36275,3.712-5.65468"/><line class="cls-9" x1="270.12043" y1="68.81006" x2="268.52576" y2="76.83882"/><path class="cls-9" d="M273.88478,76.654s-3.26469,6.46778-1.66315,7.51494,3.94227,1.47835,5.11263-.98556,3.482-7.47633,3.482-7.47633"/><path class="cls-9" d="M276.47189,84.53856a2.21639,2.21639,0,0,0,2.46392.80078c1.47835-.55439,6.15979-6.46779,6.15979-6.46779"/><path class="cls-9" d="M265.38426,67.04475l.49279,1.54s-2.58712,2.15593-3.69588,1.78634-.86237-.80077-.86237-.80077"/><path class="cls-9" d="M275.05514,74.5597a3.19041,3.19041,0,0,1-2.71031,0s-1.29356-3.26469.12319-3.81907a1.78721,1.78721,0,0,1,2.40232.80077A19.07811,19.07811,0,0,1,275.05514,74.5597Z"/><path class="cls-9" d="M273.02241,82.44423a12.29075,12.29075,0,0,1,3.14149.73918,7.47366,7.47366,0,0,0,.67758-3.75747c-.308-1.66315-2.27913-1.17037-2.83351.18479S273.02241,82.44423,273.02241,82.44423Z"/><path class="cls-9" d="M277.27266,83.67619l1.54.924s1.66314-1.84794,1.41675-2.77191-2.03273-.616-2.03273-.616"/><rect class="cls-9" x="239.64177" y="22.42854" width="100.63407" height="76.57143" rx="6.40733"/><rect class="cls-9" x="296.0034" y="46.74342" width="100.63407" height="76.57143" rx="6.40733"/><rect class="cls-9" x="-21.55723" y="77.63453" width="100.63407" height="76.57143" rx="6.40733"/><line class="cls-9" x1="257.15541" y1="36.67439" x2="324.84596" y2="36.67439"/><line class="cls-9" x1="257.15541" y1="58.93353" x2="324.84596" y2="58.93353"/><rect class="cls-5" x="931.10222" y="45.27721" width="126.55586" height="100.50758" rx="8.43841" transform="translate(1988.76031 191.062) rotate(-180)"/><rect class="cls-5" x="943.81365" y="109.58171" width="103.03261" height="22.89613"/><line class="cls-5" x1="946.30414" y1="55.68763" x2="1046.34758" y2="55.68763"/><line class="cls-5" x1="946.53643" y1="64.25107" x2="1046.34758" y2="64.25107"/><line class="cls-5" x1="1005.47664" y1="72.8145" x2="1046.34758" y2="72.8145"/><line class="cls-5" x1="1005.47664" y1="81.37793" x2="1046.34758" y2="81.37793"/><line class="cls-5" x1="1005.47664" y1="89.94137" x2="1046.34758" y2="89.94137"/><line class="cls-5" x1="1005.47664" y1="98.5048" x2="1046.34758" y2="98.5048"/><rect class="cls-5" x="944.88652" y="80.34803" width="50.21286" height="19.5568" rx="9.77839"/><rect class="cls-5" x="1024.98572" y="9.41112" width="86.54188" height="65.78678" rx="6.11945" transform="translate(2136.51331 84.60902) rotate(-180)"/><rect class="cls-5" x="1082.63209" y="38.26034" width="97.08937" height="79.24869" rx="5.53712" transform="translate(2262.35355 155.76938) rotate(-180)"/><path class="cls-3" d="M973.8789,92.93138l.04052.01548Z"/><path class="cls-3" d="M970.93466,94.90066c0-2.95927,2.59192-2.09977,2.94424-1.96928l.04052.01548-.04052-.01548c-.32519-.12777-2.49923-1.06658.04052-2.42679,2.736-1.46536,16.16752,8.79215,21.63962,14.16514,4.41746,4.33746,9.48127,14.08288,11.26984,18.065-5.68393.82635-14.63774,3.002-15.35744,8.52884-7.42466-3.01678-9.82905-7.42888-11.83119-8.521-2.2386-1.22115-3.23352-1.46537-4.22843-3.66342s1.49239-2.198,2.98475-5.86143a22.51737,22.51737,0,0,1,4.47719-6.59412S970.93466,98.07562,970.93466,94.90066Z"/><path class="cls-3" d="M1120.86057,128.5263l-.43179-2.71341a1.15161,1.15161,0,0,0-1.26618-.966,3.01839,3.01839,0,0,1-1.974-.639c-2.23859-1.46534-6.21827-18.56121-5.22335-23.44575s1.98984-9.03639,1.24364-12.45556c-.631-2.89146.87755-8.22247,3.61305-12.16409a3.08217,3.08217,0,0,1,1.11286.68544c1.49239,1.46537-2.23859,8.05949-1.74112,11.23444a20.10878,20.10878,0,0,1-.7462,7.3268l3.48224.9769s1.74111-7.81527,7.21321-7.3268,1.4924,19.29389,4.72588,21.98041,11.69037,4.15185,15.42135,4.64029c2.642.34589,9.39577.69041,12.76226-.00441a96.02016,96.02016,0,0,0-1.88413,12.1633C1147.5175,125.21322,1132.38755,123.68112,1120.86057,128.5263Z"/><path class="cls-3" d="M991.47144,131.26354c.7197-5.52686,9.67351-7.70249,15.35744-8.52884.40249-.05851.789-.11046,1.15451-.15618a5.62525,5.62525,0,0,1,5.2331,2.29082c7.62835,10.45416,14.39357,14.28749,21.14462,18.87668,7.29434,4.95844,42.2843-1.70959,49.64119-5.70265a72.25754,72.25754,0,0,1,34.22736-8.26413q1.27778-.688,2.63091-1.25294c11.527-4.84518,26.65693-3.31308,36.30771-.70748,4.98441,1.34573,8.50855,2.97719,9.31633,4.16418,3.68373,5.41309,8.36767,6.4623,21.883,16.5283,3.31155,2.46636,26.93178,5.94628,29.59389,19.82485,13.50146,70.387,6.55884,128.30066,6.31677,126.17487l-28.61632.55092c.15588-3.21387.57354-22.983-1.24185-30.7007-4.78738-20.35271-1.00256-35.41238-1.00256-35.41238l-5.611,65.56216-104.92644,1.10184c-6.17215-12.12069-3.92774-109.63755-3.92774-109.63755s-15.7109,1.65287-25.81079,4.40759-17.39423-4.95851-25.24968-9.917-19.07753-8.81506-23.56635-12.67161c-4.48885-3.85666-12.90541-26.9962-12.90541-35.81128A5.54382,5.54382,0,0,1,991.47144,131.26354Z"/><path class="cls-9" d="M970.8592,94.0928l.04052.01548Z"/><path class="cls-3" d="M967.915,96.06209c0-2.95928,2.59191-2.09978,2.94423-1.96929l.04052.01548-.04052-.01548c-.32519-.12777-2.49923-1.06657.04052-2.42678,2.736-1.46537,16.16753,8.79214,21.63963,14.16514,4.41745,4.33745,9.48127,14.08287,11.26983,18.065-5.68393.82635-14.63774,3.002-15.35744,8.52885-7.42466-3.01679-9.829-7.42889-11.83119-8.521-2.23859-1.22115-3.23351-1.46536-4.22843-3.66341s1.49239-2.198,2.98476-5.86144a22.51722,22.51722,0,0,1,4.47718-6.59412S967.915,99.237,967.915,96.06209Z"/><path class="cls-3" d="M1117.84087,129.68773l-.43178-2.71342a1.15161,1.15161,0,0,0-1.26618-.966,3.01835,3.01835,0,0,1-1.974-.639c-2.23859-1.46534-6.21827-18.56121-5.22335-23.44575s1.98984-9.03638,1.24365-12.45555c-.631-2.89147.87754-8.22247,3.613-12.1641a3.08214,3.08214,0,0,1,1.11285.68544c1.49239,1.46537-2.23859,8.05949-1.74112,11.23444a20.10863,20.10863,0,0,1-.74619,7.3268l3.48223.9769s1.74112-7.81526,7.21322-7.3268,1.49239,19.29389,4.72587,21.98041,11.69037,4.15185,15.42135,4.64029c2.64206.34589,9.39577.69042,12.76226-.00441a96.022,96.022,0,0,0-1.88413,12.1633C1144.4978,126.37464,1129.36785,124.84254,1117.84087,129.68773Z"/><path class="cls-10" d="M988.45174,132.425c.7197-5.52687,9.67351-7.7025,15.35744-8.52885.40249-.05851.789-.11046,1.15451-.15618a5.62529,5.62529,0,0,1,5.23311,2.29082c7.62834,10.45416,14.39356,14.2875,21.14461,18.87668,7.29434,4.95845,42.2843-1.70959,49.6412-5.70265a72.25749,72.25749,0,0,1,34.22735-8.26413q1.27778-.688,2.63091-1.25293c11.527-4.84519,26.65693-3.31309,36.30771-.70749,4.98441,1.34574,8.50855,2.97719,9.31633,4.16418,3.68373,5.41309,8.36767,6.4623,21.88305,16.5283,10.65349,7.93447,27.00043,7.12812,33.86643,28.33783,6.32343,19.53363,6.38172,64.37029,5.25448,93.96073a118.53545,118.53545,0,0,1-3.21025,23.70116l-28.61631.55092a40.34443,40.34443,0,0,1,1.30223-8.45828c2.04519-7.66216,1.03412-15.49516.47561-23.40384-1.74048-24.6454-4.02225-34.251-4.02225-34.251l-5.611,65.56216-104.92643,1.10184c-6.17215-12.12069-3.92774-109.63754-3.92774-109.63754s-15.71091,1.65287-25.8108,4.40758-17.39423-4.95851-25.24968-9.917c-7.85545-4.95845-19.07753-8.815-23.56635-12.67161-4.48885-3.85666-12.90541-26.99619-12.90541-35.81128A5.5453,5.5453,0,0,1,988.45174,132.425Z"/><path class="cls-9" d="M972.01779,92.93138l.04052.01548Z"/><path class="cls-9" d="M969.07355,94.90066c0-2.95927,2.59191-2.09977,2.94424-1.96928l.04052.01548-.04052-.01548c-.3252-.12777-2.49924-1.06658.04052-2.42679,2.736-1.46536,16.16752,8.79215,21.63962,14.16514,4.41745,4.33746,9.48127,14.08288,11.26983,18.065-5.68393.82635-14.63774,3.002-15.35744,8.52884-7.42466-3.01678-9.82905-7.42888-11.83119-8.521-2.23859-1.22115-3.23351-1.46537-4.22843-3.66342s1.49239-2.198,2.98476-5.86143a22.51722,22.51722,0,0,1,4.47718-6.59412S969.07355,98.07562,969.07355,94.90066Z"/><path class="cls-9" d="M1118.99945,128.5263l-.43178-2.71341a1.15161,1.15161,0,0,0-1.26618-.966,3.01841,3.01841,0,0,1-1.974-.639c-2.23859-1.46534-6.21827-18.56121-5.22335-23.44575s1.98984-9.03639,1.24365-12.45556c-.631-2.89146.87754-8.22247,3.613-12.16409a3.08205,3.08205,0,0,1,1.11285.68544c1.49239,1.46537-2.23859,8.05949-1.74112,11.23444a20.10863,20.10863,0,0,1-.74619,7.3268l3.48223.9769s1.74112-7.81527,7.21322-7.3268,1.49239,19.29389,4.72587,21.98041,11.69037,4.15185,15.42136,4.64029c2.642.34589,9.39576.69041,12.76225-.00441a96.022,96.022,0,0,0-1.88413,12.1633C1145.65638,125.21322,1130.52643,123.68112,1118.99945,128.5263Z"/><path class="cls-9" d="M989.61032,131.26354c.7197-5.52686,9.67351-7.70249,15.35744-8.52884.4025-.05851.789-.11046,1.15451-.15618a5.62526,5.62526,0,0,1,5.23311,2.29082c7.62834,10.45416,14.39356,14.28749,21.14461,18.87668,7.29435,4.95844,42.2843-1.70959,49.6412-5.70265a72.25751,72.25751,0,0,1,34.22735-8.26413q1.27778-.688,2.63091-1.25294c11.527-4.84518,26.65693-3.31308,36.30771-.70748,4.98441,1.34573,8.50855,2.97719,9.31633,4.16418,3.68373,5.41309,8.36767,6.4623,21.88306,16.5283,10.65348,7.93446,29.04222,11.46995,33.918,33.2236,4.23085,18.87644,4.862,75.30193,5.16431,78.82012,1.32792,15.45221-3.17161,33.956-3.17161,33.956l-28.61631.55092a40.34433,40.34433,0,0,1,1.30223-8.45828c2.04519-7.66216-3.54664-57.6548-3.54664-57.6548l-5.611,65.56216L1081.019,295.61286c-6.17215-12.12069-3.92774-109.63755-3.92774-109.63755s-15.7109,1.65287-25.81079,4.40759-17.39423-4.95851-25.24969-9.917-19.07753-8.81506-23.56635-12.67161c-4.48885-3.85666-12.90541-26.9962-12.90541-35.81128A5.54558,5.54558,0,0,1,989.61032,131.26354Z"/><path class="cls-11" d="M1117.06859,63.15121c3.731-3.17495,14.17768-5.61721,19.89851-6.83836s17.90864-1.46534,28.60409,10.25753-1.74112,34.43594-3.731,40.54162-3.731,4.64029-2.736,7.08256c.29038.71279-.52539,1.17458-1.91288,1.461-3.36649.69482-10.1202.3503-12.76225.00441-3.731-.48844-12.18785-1.95381-15.42136-4.64029s.7462-21.49195-4.72587-21.98041-7.21322,7.3268-7.21322,7.3268l-3.48223-.9769a20.10863,20.10863,0,0,0,.74619-7.3268c-.49747-3.175,3.23351-9.76907,1.74112-11.23444a3.08205,3.08205,0,0,0-1.11285-.68544c-1.32455-.49617-2.78848-.30482-3.3643-2.001C1110.85032,71.94335,1113.33763,66.32616,1117.06859,63.15121Z"/><line class="cls-9" x1="972.01779" y1="92.93138" x2="982.28726" y2="101.73582"/><path class="cls-9" d="M969.77861,93.134a4.69948,4.69948,0,0,0,1.43506,2.45452c1.06472.77271,2.17574-1.13635,2.17574-1.13635l-1.75911-1.45453"/><path class="cls-9" d="M971.0285,91.45221s2.96271,1.68179,3.93485.95453-.46293-1.63634-1.62023-2"/><line class="cls-11" x1="1131.2899" y1="94.82207" x2="1110.47649" y2="93.09504"/><path class="cls-9" d="M1111.64329,92.14163c-.44735-2.10839-2.92568-2.2128-2.92568-2.2128-2.26661,0-4.104,3.02843-4.104,6.76418s1.83744,6.76419,4.104,6.76419a1.49161,1.49161,0,0,0,1.22575-.59792"/><path class="cls-9" d="M1120.23241,96.97336s2.59463-1.757,3.48933,2.02054.62629,11.5083-1.07364,11.5083-1.07364-2.10839-1.07364-2.10839"/><path class="cls-9" d="M1125.77955,100.13594a11.17672,11.17672,0,0,1-.26841,4.83173c-.71576,3.07474-.8947,2.45979-.8947,2.45979"/><path class="cls-9" d="M1117.30149,124.84686s3.02039-1.07936,3.73615-3.71485"/></g></svg>