<svg id="Layer_1" data-name="Layer 1" xmlns="http://www.w3.org/2000/svg" xmlns:xlink="http://www.w3.org/1999/xlink" viewBox="0 0 1300 294"><defs><style>.cls-1,.cls-4,.cls-8{fill:none;}.cls-2{clip-path:url(#clip-path);}.cls-3{fill:#428252;}.cls-4{stroke:#5f9c70;}.cls-4,.cls-8{stroke-miterlimit:10;}.cls-5{fill:#99c5a6;}.cls-6{fill:#5f9c70;}.cls-7{fill:#0a5d2b;}.cls-8{stroke:#0a5d2b;}.cls-9{fill:#b3d3bc;}.cls-10{fill:#80b590;}</style><clipPath id="clip-path"><rect class="cls-1" width="1300" height="294"/></clipPath></defs><g class="cls-2"><rect class="cls-3" width="1300" height="294"/><path class="cls-4" d="M135.60926,60.02824l22.29633,61.48451a1.03632,1.03632,0,0,0,1.76732.31378l42.099-50.05144a1.03633,1.03633,0,0,0-.61192-1.68744L136.76467,58.65458A1.03633,1.03633,0,0,0,135.60926,60.02824Z"/><path class="cls-4" d="M535.4092-34.711,488.15546,10.50572a1.03632,1.03632,0,0,0,.42627,1.74361L551.36746,30.5639a1.03633,1.03633,0,0,0,1.29688-1.241l-15.532-63.53132A1.03632,1.03632,0,0,0,535.4092-34.711Z"/><path class="cls-4" d="M958.52347,204.76,911.26973,249.9767a1.03632,1.03632,0,0,0,.42627,1.74361l62.78573,18.31457a1.03633,1.03633,0,0,0,1.29688-1.241l-15.532-63.53132A1.03632,1.03632,0,0,0,958.52347,204.76Z"/><rect class="cls-4" x="62.77353" y="176.89514" width="52.99823" height="52.99823" rx="2.36958" transform="translate(-66.07672 44.63216) rotate(-20.68017)"/><rect class="cls-4" x="869.05624" y="-19.50127" width="34.60656" height="34.60656" rx="1.54728" transform="translate(56.086 308.09851) rotate(-20.35004)"/><rect class="cls-4" x="690.57592" y="277.31051" width="34.60656" height="34.60656" rx="1.54728" transform="translate(-58.27144 264.55648) rotate(-20.35004)"/><circle class="cls-4" cx="1210.97373" cy="68.64288" r="48.98607"/><circle class="cls-4" cx="339.53417" cy="142.40183" r="53.00195"/><path class="cls-3" d="M206.54029,157.45083c-2.47235-.7417-1.23615-5.19195-1.23615-5.19195l.24726-2.9668c6.92261-13.35077-.24726-27.196-.24726-27.196l-3.9216-3.59483a4.072,4.072,0,0,0-3.81134-.94094,32.59908,32.59908,0,0,1-6.11227.82721c-7.66431.4945-9.395-11.3728-9.395-11.3728s-8.90051,2.47235-11.37286,8.15875c-2.47235,5.68646-2.22022,21.55188-1.4834,27.93768.7417,6.4281,2.44147,2.00879,4.203,3.7085,1.76154,1.69977,2.8432,6.30456,3.21405,9.395.7417,6.18084,3.214,10.6311,6.18091,20.02606,1.15344,3.65259,1.78235,9.3977,2.12189,15.1,6.28827.27642,12.96356-.17322,16.42077-2.73823a69.13431,69.13431,0,0,0,15.03785-15.76507c-.4729-3.83521-1.05573-8.274-1.43982-10.1947C214.20466,158.93423,211.94556,159.07241,206.54029,157.45083Z"/><path class="cls-3" d="M89.49982,256.66152c-.96869.29065-2.91522,3.85993-4.93139,6.156l14.98718-2.08429C97.24579,259.00961,92.40589,255.7897,89.49982,256.66152Z"/><path class="cls-3" d="M300.62977,169.06027c7.34735-5.1969,24.85479-8.74176,34.94159-9.90283-1.61151-3.14417-3.25531-6.21369-4.32886-7.85724-.80957-1.23938-2.76563-3.64466-4.37-5.56806-.64563,1.10523-1.32946,1.90534-1.93951,1.8291-.96509-.1206-10.80913-.58087-15.58946-.6059-5.18359-.02716-4.527-9.1165-7.49122-13.36894-3.62982-5.20728-5.03341-5.72952-8.98946-6.68447-6.77686-1.63581-9.99309,11.07826-9.99309,11.07826l-1.1684,5.6084H277.7287s-2.33685-7.94525-4.20635-8.4126c-1.86945-.46741-3.27155,3.27155-3.03791-.70105.23371-3.97266,1.16846-3.97266-1.63574-5.14111-2.80426-1.1684-5.37476.4674-4.67371-2.10315s3.03791-4.67371-2.10315-4.67371c-2.44616,0-5.89636,1.37464-8.84259,2.36359,4.39924,9.69641,4.40259,34.38409,4.40259,35.49335,0,1.16839,5.3747,1.40209,5.3747,1.40209l12.79083,21.74433C282.3595,176.68215,293.32551,174.22671,300.62977,169.06027Z"/><path class="cls-3" d="M318.15613,103.86221c-9.1137-4.44-1.4021-13.78735-21.96637-18.46106-20.5642-4.67371-44.42346,21.45-49.56451,25.89-5.14111,4.44.72443,8.929.72443,13.13532,0,2.20489,2.63385,1.58362,5.87957.49408,2.94623-.98895,6.39643-2.36359,8.84259-2.36359,5.14106,0,2.8042,2.10321,2.10315,4.67371s1.86945.93475,4.67371,2.10315c2.8042,1.16845,1.86945,1.16845,1.63574,5.14111-.23364,3.9726,1.16846.23364,3.03791.70105,1.8695.46735,4.20635,8.4126,4.20635,8.4126h3.97266l1.1684-5.6084s3.21623-12.71407,9.99309-11.07826c3.95605.955,5.35964,1.47719,8.98946,6.68447,2.96423,4.25244,2.30763,13.34178,7.49122,13.36894,4.78033.025,14.62437.4853,15.58946.6059.61005.07624,1.29388-.72387,1.93951-1.8291a36.98163,36.98163,0,0,0,2.50049-5.8825C335.21509,115.31277,327.26984,108.30221,318.15613,103.86221Z"/><path class="cls-3" d="M371.43622,179.10867s-10.98315-11.68421-18.92846-11.91791c0,0-5.14105-7.94525-10.28211-8.41266a39.912,39.912,0,0,0-6.65429.37934c-10.0868,1.16107-27.59424,4.70593-34.94159,9.90283-7.30426,5.16644-18.27027,7.62188-24.8324,14.50006a19.05949,19.05949,0,0,0-4.61182,7.93365c-3.97265,13.55371,1.63575,32.94953-1.40216,49.77478-.22741,1.25965-.52337,2.63886-.86993,4.108-3.73377,15.82923-13.46893,42.32758-9.67865,47.61146a2.35362,2.35362,0,0,0,2.60333.85968c1.1684-.23371,150.89868-1.579,150.89868-1.579S404.59235,207.21933,371.43622,179.10867Z"/><path class="cls-3" d="M231.08375,248.3428c11.10791-.90454,21.42718-1.72705,29.9646-2.3783,2.1267-8.735,5.27063-25.18548.46655-30.83734-3.02307-3.55658-11.93738-6.061-20.77326-7.73907-1.3858,15.42291-3.35925,29.90161-5.27471,33.134C233.82422,243.29415,232.6059,246.0671,231.08375,248.3428Z"/><path class="cls-3" d="M122.08734,262.58244c-2.95172-.328-6.24261.61455-7.63976.50365L48.42749,278.42183l54.27375,10.31129L193.684,271.4266l-45.615-9.395-13.1861-1.372A27.53678,27.53678,0,0,1,122.08734,262.58244Z"/><path class="cls-3" d="M173.08963,248.82236a5.75292,5.75292,0,0,1-5.23352-.29347c-1.22278-.63585.03564-1.88086-.48911-2.201-.913-.557-2.43212-.372-2.93469-1.076a3.36863,3.36863,0,0,1-.48406-2.30448c-2.70532-.60119.11792-5.34271,1.58215-7.52313-4.50616,4.93555-8.19,8.8064-8.19,8.8064l-.14954.07476c2.68726,3.47254,5.63605,5.56958,3.36359,6.84784a7.4917,7.4917,0,0,0-2.99695,3.343c5.90729-.5036,12.31348-1.048,19.00488-1.61407C175.53925,251.62588,173.08963,248.82236,173.08963,248.82236Z"/><path class="cls-3" d="M242.38953,167.3403c-.73028-7.01075-7.06817-9.79224-12.134-10.89582A33.33308,33.33308,0,0,1,226.072,158.687c-4.203,1.97784-1.48346,3.70849-3.95581,8.65326a122.28494,122.28494,0,0,0-4.94471,12.11456s-.345-3.04724-.78527-6.61737a69.13431,69.13431,0,0,1-15.03785,15.76507c-3.45721,2.565-10.1325,3.01465-16.42077,2.73823.53387,8.96478.35046,17.82348.35046,18.27685,0,0-7.417,1.97784-12.609.7417-5.57867-1.32825-6.67541-1.23621-6.18091-6.18091.49445-4.9447-4.203-4.203-5.93365-8.90051-1.73065-4.69745-14.58691-8.90045-12.11456-12.609,2.22125-3.33185-.73853-7.47266-1.54364-14.73175-5.2121,1.6192-7.13514,6.04791-11.55988,13.0011-5.19195,8.15875-4.69745,31.64618-6.18091,44.50244-1.4834,12.85626-5.6864,13.35077-5.6864,13.35077l.07434.25281a3.68331,3.68331,0,0,1,2.00513-.01526c3.49115.95209,10.58008,12.18512,13.56494,17.0451.70026,1.14014,1.17584,1.9314,1.32477,2.15479a6.685,6.685,0,0,0,4.14722-2.62409c7.718-9.15356,10.777-38.81738,10.777-38.81738s-.24725,7.16986-1.48339,17.30652a12.38421,12.38421,0,0,0,1.72644,7.87311l5.25329-6.48944c-2.32971.32586-4.56421.33929-4.74725-.75879-.12158-.72937,1.49347-1.79816,3.95227-2.85535-.692-1.135-1.74066-3.24054-.49835-3.95044,1.25061-.7146,3.91418,1.1485,5.29962,2.23944.21429-.0639.429-.1272.64624-.189l7.15765-8.23133s9.14771-10.13666,9.14771-6.67535c0,1.53644-4.82385,7.4574-10.18775,13.56738,3.05146-.44983,5.84925-.48346,7.60083.21716,5.87751,2.351,4.702,9.79584,5.87751,13.71418l.237.39886c2.57055,2.88245,22.09753-4.709,22.09753-4.709,7.396,4.39764,10.7085,8.28253,12.18353,11.03619,1.41632,2.6441,1.1388,4.24536,1.1388,4.24536,5.42584.23139,8.17627-1.97961,10.31958-5.18408,1.52215-2.2757,2.74047-5.04865,4.38318-7.82068,1.91546-3.23242,3.88891-17.71112,5.27471-33.134C242.21772,190.96023,243.02711,173.46115,242.38953,167.3403Z"/><path class="cls-3" d="M268.91346,245.37673c-2.4021.175-5.03479.37189-7.86511.58777-8.53742.65125-18.85669,1.47376-29.9646,2.3783-2.14331,3.20447-4.89374,5.41547-10.31958,5.18408l-26.41816,2.2713q-.69442-.00585-1.37719-.01227c-6.068-.05712-11.36176-.14965-12.56354-.29986a6.49536,6.49536,0,0,1-3.8429-2.60394c-6.6914.566-13.09759,1.11047-19.00488,1.61407-4.67352.39844-9.03277.77118-12.972,1.10864a6.685,6.685,0,0,1-4.14722,2.62409s-2.33557,1.16687-5.5553,2.43072l13.1861,1.372,45.615,9.395-90.98279,17.30652L48.42749,278.42183l66.02009-15.33574c-1.94135-.15406-2.61322-.15522-2.61322-.15522s-14.106,4.702-18.808,3.91834c-4.702-.78363,2.65835-4.03351,2.65835-4.03351s4.67545-1.48212,3.87089-2.08252l-14.98718,2.08429a9.33569,9.33569,0,0,1-1.33789,1.28894c-5.18586,3.90723-7.07434,1.601-5.87732-.28546l-58.94584,10.0813L83.39071,294l175.8441-1.01181C255.44453,287.70431,265.17969,261.206,268.91346,245.37673Z"/><path class="cls-3" d="M139.11347,256.07412c-2.98486-4.86-10.07379-16.093-13.56494-17.0451a3.68331,3.68331,0,0,0-2.00513.01526c-3.20392.8761-6.21573,7.48824-15.36349,8.14168-10.97138.78363-15.54538-1.49575-19.85556,1.24705,0,0-8.62036,2.74286-12.5387,7.44488-1.82617,2.19141-11.93677,10.12391-6.66119,8.62037,2.99756-.85431,8.928-5.91919,13.68774-9.23926-1.91186,3.23535-3.60254,6.59888-5.06738,8.06372a2.85152,2.85152,0,0,0-.3916.49823c-1.197,1.88647.69146,4.19269,5.87732.28546a9.33569,9.33569,0,0,0,1.33789-1.28894c2.01617-2.296,3.9627-5.8653,4.93139-6.156,2.90607-.87182,7.746,2.34809,10.05579,4.07166.80456.6004-3.87089,2.08252-3.87089,2.08252s-7.36037,3.24988-2.65835,4.03351c4.702.78369,18.808-3.91834,18.808-3.91834s.67187.00116,2.61322.15522c1.39715.1109,4.688-.83165,7.63976-.50365a27.53678,27.53678,0,0,0,12.7956-1.92281c3.21973-1.26385,5.5553-2.43072,5.5553-2.43072C140.28931,258.00552,139.81373,257.21426,139.11347,256.07412Z"/><path class="cls-3" d="M159.5655,227.91305c-1.24231.7099-.19361,2.81543.49835,3.95044a44.84877,44.84877,0,0,1,4.80127-1.711C163.47968,229.06155,160.81611,227.19845,159.5655,227.91305Z"/><path class="cls-3" d="M181.81672,215.05679c0-3.46131-9.14771,6.67535-9.14771,6.67535l-7.15765,8.23133a48.787,48.787,0,0,1,6.11761-1.3393C176.99287,222.51419,181.81672,216.59323,181.81672,215.05679Z"/><path class="cls-3" d="M160.85883,235.47763l-5.25329,6.48944-1.232,1.52185.49445,1.9779,2.32287-1.16144.14954-.07476s3.68384-3.87085,8.19-8.8064c.4444-.6618.76886-1.09723.76886-1.09723A48.17951,48.17951,0,0,1,160.85883,235.47763Z"/><path class="cls-3" d="M219.62537,249.28152c-1.475-2.75366-4.78753-6.63855-12.18353-11.03619,0,0-19.527,7.59149-22.09753,4.709l-.237-.39886c-1.17548-3.91834,0-11.36316-5.87751-13.71418-1.75158-.70062-4.54937-.667-7.60083-.21716a48.787,48.787,0,0,0-6.11761,1.3393c-.21729.06182-.432.12512-.64624.189a44.84877,44.84877,0,0,0-4.80127,1.711c-2.4588,1.05719-4.07385,2.126-3.95227,2.85535.183,1.09808,2.41754,1.08465,4.74725.75879a48.17951,48.17951,0,0,0,5.44043-1.15064s-.32446.43543-.76886,1.09723c-1.46423,2.18042-4.28747,6.92194-1.58215,7.52313a3.1362,3.1362,0,0,0,.48406,2.30448c.49571.6862,2.02644.51759,2.93469,1.076.53347.328-.73367,1.51625.48911,2.201a5.52588,5.52588,0,0,0,5.23352.29347s2.44962,2.80352,3.47275,4.05975a6.49536,6.49536,0,0,0,3.8429,2.60394c1.20178.15021,6.49554.24274,12.56354.29986q.68343.00642,1.37719.01227l26.41816-2.2713S221.04169,251.92562,219.62537,249.28152Z"/><path class="cls-3" d="M232.74732,150.77548c-1.73065-3.70856-17.05926-4.45026-20.52057-20.76782s.49445-22.49848-9.14776-28.43213-20.02607-11.12561-29.91553-3.21405c0,0-9.14771-3.95581-11.37287,9.8894-2.22509,13.84522,2.22516,28.43213-1.97784,33.87134s-13.35077,14.33966-13.10352,23.24017c.02509.904.096,1.75409.187,2.57477.80511,7.25909,3.76489,11.3999,1.54364,14.73175-2.47235,3.70856,10.38391,7.91156,12.11456,12.609,1.73065,4.69751,6.4281,3.95581,5.93365,8.90051-.4945,4.9447.60224,4.85266,6.18091,6.18091,5.192,1.23614,12.609-.7417,12.609-.7417,0-.45337.18341-9.31207-.35046-18.27685-.33954-5.70234-.96845-11.44745-2.12189-15.1-2.96686-9.395-5.43921-13.84522-6.18091-20.02606-.37085-3.09046-1.45251-7.69525-3.21405-9.395-1.76153-1.69971-3.4613,2.7196-4.203-3.7085-.73682-6.3858-.98895-22.25122,1.4834-27.93768,2.47235-5.6864,11.37286-8.15875,11.37286-8.15875s1.73065,11.8673,9.395,11.3728a32.59908,32.59908,0,0,0,6.11227-.82721,4.072,4.072,0,0,1,3.81134.94094l3.9216,3.59483s7.16987,13.84521.24726,27.196l-.24726,2.9668s-1.2362,4.45025,1.23615,5.19195c5.40527,1.62158,7.66437,1.4834,8.40607,5.192.38409,1.92065.96692,6.35949,1.43982,10.1947.44024,3.57013.78527,6.61737.78527,6.61737a122.28494,122.28494,0,0,1,4.94471-12.11456c2.47235-4.94477-.2472-6.67542,3.95581-8.65326a33.33308,33.33308,0,0,0,4.18353-2.24256C232.497,154.95205,233.86719,153.17526,232.74732,150.77548Z"/><path class="cls-3" d="M176.90472,250.19188c.19538-1.82965,1.58447-4.63057-3.81509-1.36952"/><path class="cls-5" d="M206.08734,155.639c-2.47235-.7417-1.23614-5.192-1.23614-5.192l.24725-2.9668c6.92261-13.35077-.24725-27.196-.24725-27.196l-3.92161-3.59482a4.072,4.072,0,0,0-3.81134-.94094,32.6002,32.6002,0,0,1-6.11227.8272c-7.66431.49451-9.395-11.3728-9.395-11.3728s-8.90051,2.47235-11.37286,8.15875c-2.47235,5.68646-2.22022,21.55188-1.4834,27.93769.7417,6.4281,2.44147,2.00878,4.203,3.70849,1.76154,1.69977,2.8432,6.30457,3.214,9.395.7417,6.18085,3.21405,10.6311,6.18091,20.02606,1.15344,3.65259,1.78235,9.39771,2.12189,15.1,6.28827.27643,12.96356-.17322,16.42077-2.73822a69.13416,69.13416,0,0,0,15.03785-15.76508c-.4729-3.8352-1.05573-8.274-1.43982-10.1947C213.75171,157.12243,211.49261,157.26062,206.08734,155.639Z"/><path class="cls-1" d="M89.04687,254.84973c-.96868.29065-2.91522,3.85992-4.93139,6.15594l14.98718-2.08429C96.79285,257.19781,91.95294,253.9779,89.04687,254.84973Z"/><path class="cls-6" d="M300.17682,167.24847c7.34735-5.1969,24.8548-8.74176,34.94159-9.90283-1.61151-3.14416-3.25531-6.21368-4.32886-7.85724-.80957-1.23938-2.76563-3.64465-4.37-5.568-.64563,1.10522-1.32946,1.90533-1.93951,1.8291-.96509-.12061-10.80913-.58088-15.58946-.6059-5.18359-.02716-4.527-9.11651-7.49122-13.369-3.62982-5.20727-5.03341-5.72951-8.98946-6.68447-6.77686-1.6358-9.99309,11.07826-9.99309,11.07826l-1.1684,5.6084h-3.97265s-2.33686-7.94525-4.20636-8.4126c-1.86945-.4674-3.27155,3.27155-3.03791-.701.23371-3.97266,1.16846-3.97266-1.63574-5.14112-2.80426-1.16839-5.37475.46741-4.6737-2.10315.701-2.57049,3.0379-4.6737-2.10315-4.6737-2.44617,0-5.89637,1.37463-8.84259,2.36358,4.39923,9.69641,4.40258,34.3841,4.40258,35.49335,0,1.1684,5.3747,1.4021,5.3747,1.4021l12.79083,21.74432C281.90655,174.87036,292.87256,172.41492,300.17682,167.24847Z"/><path class="cls-7" d="M317.70319,102.05041c-9.11371-4.44-1.4021-13.78735-21.96637-18.46106-20.56421-4.6737-44.42347,21.45-49.56452,25.89-5.14111,4.44.72443,8.929.72443,13.13531,0,2.2049,2.63385,1.58362,5.87958.49408,2.94622-.989,6.39642-2.36358,8.84259-2.36358,5.14105,0,2.80419,2.10321,2.10315,4.6737-.70105,2.57056,1.86944.93476,4.6737,2.10315,2.8042,1.16846,1.86945,1.16846,1.63574,5.14112-.23364,3.97259,1.16846.23364,3.03791.701,1.8695.46735,4.20636,8.4126,4.20636,8.4126h3.97265l1.1684-5.6084s3.21623-12.71406,9.99309-11.07826c3.95605.955,5.35964,1.4772,8.98946,6.68447,2.96423,4.25244,2.30763,13.34179,7.49122,13.369,4.78033.025,14.62437.48529,15.58946.6059.61005.07623,1.29388-.72388,1.93951-1.8291a36.98157,36.98157,0,0,0,2.50049-5.88251C334.76215,113.501,326.81689,106.49042,317.70319,102.05041Z"/><path class="cls-7" d="M370.98328,177.29687s-10.98316-11.6842-18.92847-11.9179c0,0-5.141-7.94526-10.28211-8.41266a39.91172,39.91172,0,0,0-6.65429.37933c-10.08679,1.16107-27.59424,4.70593-34.94159,9.90283-7.30426,5.16645-18.27027,7.62189-24.8324,14.50006a19.05953,19.05953,0,0,0-4.61182,7.93366c-3.97265,13.55371,1.63575,32.94952-1.40216,49.77478-.22741,1.25964-.52337,2.63885-.86993,4.108-3.73377,15.82922-13.46893,42.32758-9.67865,47.61145a2.35361,2.35361,0,0,0,2.60333.85968c1.1684-.2337,150.89868-1.579,150.89868-1.579S404.1394,205.40753,370.98328,177.29687Z"/><path class="cls-7" d="M230.6308,246.531c11.10791-.90454,21.42718-1.72705,29.9646-2.37829,2.12671-8.73505,5.27063-25.18549.46655-30.83734-3.02307-3.55658-11.93738-6.061-20.77325-7.73908-1.38581,15.42291-3.35926,29.90161-5.27472,33.134C233.37128,241.48236,232.153,244.25531,230.6308,246.531Z"/><path class="cls-5" d="M122.21946,261.9412c-2.95172-.328-6.24261.61455-7.63976.50365L49.655,277.55847l52.59329,9.36285,90.98279-17.30651-45.615-9.395-11.53674-.86158C131.83533,261.02422,126.2299,262.38682,122.21946,261.9412Z"/><path class="cls-3" d="M172.63668,247.01056a5.75289,5.75289,0,0,1-5.23352-.29347c-1.22278-.63584.03564-1.88086-.48911-2.201-.913-.557-2.43212-.372-2.93468-1.076a3.36864,3.36864,0,0,1-.48407-2.30447c-2.70532-.6012.11792-5.34272,1.58215-7.52314-4.50616,4.93555-8.19,8.8064-8.19,8.8064l-.14954.07477c2.68726,3.47253,5.63605,5.56958,3.36359,6.84784a7.49164,7.49164,0,0,0-2.99695,3.343c5.90729-.50361,12.31348-1.048,19.00489-1.61408C175.0863,249.81408,172.63668,247.01056,172.63668,247.01056Z"/><path class="cls-3" d="M241.93658,165.5285c-.73028-7.01074-7.06817-9.79223-12.134-10.89581a33.33436,33.33436,0,0,1-4.18353,2.24255c-4.203,1.97785-1.48346,3.7085-3.95581,8.65326a122.28644,122.28644,0,0,0-4.9447,12.11456s-.345-3.04724-.78528-6.61737a69.13416,69.13416,0,0,1-15.03785,15.76508c-3.45721,2.565-10.1325,3.01465-16.42077,2.73822.53387,8.96478.35046,17.82349.35046,18.27686,0,0-7.41705,1.97784-12.609.74169-5.57867-1.32824-6.67541-1.2362-6.1809-6.1809.49444-4.94471-4.203-4.203-5.93366-8.90052-1.73065-4.69745-14.58691-8.90045-12.11456-12.609,2.22125-3.33184-.73853-7.47265-1.54364-14.73175-5.2121,1.61921-7.13513,6.04792-11.55988,13.0011-5.19195,8.15876-4.69745,31.64618-6.18091,44.50244-1.48339,12.85627-5.6864,13.35077-5.6864,13.35077l.07434.25281a3.6835,3.6835,0,0,1,2.00513-.01526c3.49115.95209,10.58008,12.18512,13.56494,17.04511.70026,1.14013,1.17584,1.93139,1.32477,2.15478a6.685,6.685,0,0,0,4.14722-2.62408c7.718-9.15357,10.777-38.81738,10.777-38.81738s-.24726,7.16986-1.4834,17.30651a12.38419,12.38419,0,0,0,1.72644,7.87311l5.25329-6.48944c-2.32971.32587-4.56421.3393-4.74725-.75879-.12158-.72937,1.49347-1.79816,3.95227-2.85535-.692-1.135-1.74066-3.24053-.49835-3.95043,1.25061-.7146,3.91418,1.14849,5.29962,2.23944.21429-.06391.42895-.1272.64624-.189l7.15765-8.23132s9.14771-10.13666,9.14771-6.67536c0,1.53644-4.82385,7.4574-10.18775,13.56739,3.05146-.44983,5.84925-.48346,7.60083.21716,5.87751,2.351,4.702,9.79584,5.87751,13.71417l.237.39887c2.57055,2.88244,22.09753-4.70905,22.09753-4.70905,7.396,4.39764,10.7085,8.28253,12.18353,11.03619,1.41632,2.64411,1.1388,4.24537,1.1388,4.24537,5.42584.23138,8.17627-1.97962,10.31958-5.18409,1.52215-2.27569,2.74048-5.04864,4.38318-7.82067,1.91546-3.23243,3.88891-17.71113,5.27472-33.134C241.76477,189.14844,242.57416,171.64935,241.93658,165.5285Z"/><path class="cls-6" d="M268.46051,243.56494c-2.4021.175-5.03479.37189-7.86511.58777-8.53742.65125-18.85669,1.47375-29.9646,2.3783-2.14331,3.20446-4.89374,5.41546-10.31958,5.18408l-26.41815,2.2713q-.69444-.00587-1.3772-.01227c-6.068-.05713-11.36176-.14966-12.56354-.29986a6.49533,6.49533,0,0,1-3.84289-2.60395c-6.69141.566-13.0976,1.11048-19.00489,1.61408-4.67352.39843-9.03277.77118-12.972,1.10864a6.685,6.685,0,0,1-4.14722,2.62408s-2.33557,1.16687-5.5553,2.43073l13.1861,1.372,45.615,9.395-89.38629,17.94513L49.571,277.2486l42.10462-10.44013a6.237,6.237,0,0,1-.12354-2.05224c-1.08984-.49982-.39087-1.33625.67756-2.0929a5.144,5.144,0,0,1,3.28973-2.35535c1.19257-.30578,2.37292-.65033,3.5506-1.00354.13916-.14581.173-.27832.03265-.38305l-14.98718,2.08429a9.33517,9.33517,0,0,1-1.33789,1.28894c-5.18585,3.90722-7.07434,1.601-5.87732-.28546l-58.9458,10.08129L83.39075,294H261.21936C257.42908,288.71613,264.72675,259.39417,268.46051,243.56494Z"/><path class="cls-5" d="M138.66052,254.26233c-2.98486-4.86-10.07379-16.093-13.56494-17.04511a3.6835,3.6835,0,0,0-2.00513.01526c-3.20392.8761-6.21573,7.48824-15.36349,8.14169-10.97138.78363-16.40347-2.38224-20.71365.36055,0,0-7.76227,3.62935-11.68061,8.33138-1.82617,2.19141-11.9016,11.1595-6.626,9.656,2.99756-.85431,10.32409-5.9603,13.65258-10.27486-1.91186,3.23535-3.60254,6.59888-5.06738,8.06372a2.85226,2.85226,0,0,0-.3916.49823c-1.197,1.88648.69147,4.19269,5.87732.28546a9.33463,9.33463,0,0,0,1.33789-1.28894c2.01617-2.296,4.05782-5.29481,5.0265-5.58546,2.90607-.87183,7.65087,1.7776,9.96068,3.50117.80457.60041-3.87089,2.08252-3.87089,2.08252s-7.36037,3.24988-2.65835,4.03351c4.702.78369,18.808-3.91833,18.808-3.91833s.67187.00116,2.61322.15521c1.39715.1109,4.688-.83165,7.63976-.50365a27.5369,27.5369,0,0,0,12.7956-1.9228c3.21973-1.26386,5.5553-2.43073,5.5553-2.43073C139.83636,256.19372,139.36078,255.40246,138.66052,254.26233Z"/><path class="cls-5" d="M159.11255,226.10126c-1.24231.7099-.19361,2.81543.49835,3.95043a44.851,44.851,0,0,1,4.80127-1.711C163.02673,227.24975,160.36316,225.38666,159.11255,226.10126Z"/><path class="cls-7" d="M181.36377,213.245c0-3.4613-9.14771,6.67536-9.14771,6.67536l-7.15765,8.23132a48.787,48.787,0,0,1,6.11761-1.33929C176.53992,220.70239,181.36377,214.78143,181.36377,213.245Z"/><path class="cls-7" d="M160.40588,233.66583l-5.25329,6.48944-1.232,1.52185.49445,1.97791,2.32287-1.16144.14954-.07477s3.68384-3.87085,8.19-8.8064c.4444-.6618.76886-1.09722.76886-1.09722A48.18068,48.18068,0,0,1,160.40588,233.66583Z"/><path class="cls-5" d="M219.17242,247.46972c-1.475-2.75366-4.78753-6.63855-12.18353-11.03619,0,0-19.527,7.59149-22.09753,4.70905l-.237-.39887c-1.17548-3.91833,0-11.36316-5.87751-13.71417-1.75158-.70062-4.54937-.667-7.60083-.21716a48.787,48.787,0,0,0-6.11761,1.33929c-.21729.06183-.432.12512-.64624.189a44.851,44.851,0,0,0-4.80127,1.711c-2.4588,1.05719-4.07385,2.126-3.95227,2.85535.183,1.09809,2.41754,1.08466,4.74725.75879a48.18068,48.18068,0,0,0,5.44043-1.15063s-.32446.43542-.76886,1.09722c-1.46423,2.18042-4.28747,6.92194-1.58215,7.52314a3.13614,3.13614,0,0,0,.48407,2.30447c.4957.6862,2.02643.5176,2.93468,1.076.53348.328-.73367,1.51626.48911,2.201a5.52585,5.52585,0,0,0,5.23352.29347s2.44962,2.80352,3.47276,4.05975a6.49527,6.49527,0,0,0,3.84289,2.60394c1.20178.15021,6.49555.24274,12.56354.29987q.68344.00641,1.3772.01227l26.41815-2.2713S220.58874,250.11383,219.17242,247.46972Z"/><path class="cls-6" d="M232.29437,148.96368c-1.73065-3.70855-17.05926-4.45025-20.52057-20.76782s.49445-22.49847-9.14776-28.43213c-9.64215-5.93365-20.02607-11.12561-29.91553-3.21405,0,0-9.14771-3.95581-11.37286,9.8894-2.2251,13.84522,2.22515,28.43213-1.97785,33.87134S146.009,154.65008,146.25629,163.5506c.02508.904.096,1.75409.187,2.57476.80511,7.2591,3.76489,11.39991,1.54364,14.73175-2.47235,3.70856,10.38391,7.91156,12.11456,12.609,1.73065,4.69751,6.4281,3.95581,5.93366,8.90052-.49451,4.9447.60223,4.85266,6.1809,6.1809,5.192,1.23615,12.609-.74169,12.609-.74169,0-.45337.18341-9.31208-.35046-18.27686-.33954-5.70233-.96845-11.44745-2.12189-15.1-2.96686-9.395-5.43921-13.84521-6.18091-20.02606-.37085-3.09045-1.45251-7.69525-3.214-9.395-1.76153-1.69971-3.4613,2.71961-4.203-3.70849-.73682-6.38581-.989-22.25123,1.4834-27.93769,2.47235-5.6864,11.37286-8.15875,11.37286-8.15875s1.73065,11.86731,9.395,11.3728a32.6002,32.6002,0,0,0,6.11227-.8272,4.072,4.072,0,0,1,3.81134.94094l3.92161,3.59482s7.16986,13.84521.24725,27.196l-.24725,2.9668s-1.23621,4.45026,1.23614,5.192c5.40527,1.62158,7.66437,1.48339,8.40607,5.192.38409,1.92066.96692,6.3595,1.43982,10.1947.44024,3.57013.78528,6.61737.78528,6.61737a122.28644,122.28644,0,0,1,4.9447-12.11456c2.47235-4.94476-.2472-6.67541,3.95581-8.65326a33.33436,33.33436,0,0,0,4.18353-2.24255C232.04407,153.14026,233.41424,151.36346,232.29437,148.96368Z"/><path class="cls-1" d="M176.45177,248.38008c.19538-1.82965,1.58447-4.63056-3.81509-1.36952"/><path class="cls-1" d="M205.92152,157.13011c-2.47236-.7417-1.23615-5.19195-1.23615-5.19195l.24725-2.9668c6.92261-13.35077-.24725-27.196-.24725-27.196l-3.92161-3.59483a4.07193,4.07193,0,0,0-3.81133-.94094,32.59908,32.59908,0,0,1-6.11227.82721c-7.66431.49451-9.395-11.3728-9.395-11.3728s-8.90052,2.47235-11.37287,8.15875c-2.47235,5.68646-2.22021,21.55188-1.48339,27.93768.74169,6.4281,2.44146,2.00879,4.203,3.7085,1.76153,1.69977,2.8432,6.30456,3.214,9.395.7417,6.18084,3.21405,10.6311,6.18091,20.02606,1.15344,3.65259,1.78235,9.3977,2.12188,15.1,6.28827.27642,12.96357-.17322,16.42078-2.73822a69.13454,69.13454,0,0,0,15.03784-15.76508c-.4729-3.83521-1.05572-8.27405-1.43982-10.1947C213.58588,158.61351,211.32679,158.75169,205.92152,157.13011Z"/><path class="cls-1" d="M88.88105,256.34081c-.96869.29064-2.91522,3.85992-4.9314,6.15594l14.98719-2.08429C96.627,258.68889,91.78712,255.469,88.88105,256.34081Z"/><path class="cls-8" d="M300.011,168.73955c7.34735-5.1969,24.8548-8.74176,34.94159-9.90283-1.61151-3.14417-3.25531-6.21369-4.32885-7.85724-.80957-1.23938-2.76563-3.64466-4.37-5.56806-.64563,1.10523-1.32947,1.90534-1.93951,1.8291-.96509-.1206-10.80913-.58087-15.58946-.6059-5.1836-.02716-4.527-9.1165-7.49122-13.36894-3.62983-5.20728-5.03341-5.72952-8.98947-6.68447-6.77685-1.63581-9.99309,11.07826-9.99309,11.07826l-1.16839,5.6084h-3.97266s-2.33685-7.94525-4.20636-8.4126c-1.86944-.46741-3.27154,3.27155-3.0379-.701.2337-3.97266,1.16846-3.97266-1.63574-5.14111-2.80426-1.1684-5.37476.4674-4.67371-2.10315.70105-2.5705,3.0379-4.67371-2.10315-4.67371-2.44617,0-5.89636,1.37464-8.84259,2.36359,4.39923,9.69641,4.40259,34.38409,4.40259,35.49335,0,1.16839,5.37469,1.4021,5.37469,1.4021l12.79084,21.74432C281.74073,176.36143,292.70673,173.906,300.011,168.73955Z"/><path class="cls-8" d="M317.53736,103.54149c-9.11371-4.44-1.4021-13.78735-21.96637-18.46106-20.56421-4.67371-44.42346,21.45-49.56451,25.89-5.14112,4.44.72442,8.929.72442,13.13532,0,2.20489,2.63385,1.58362,5.87958.49408,2.94623-.989,6.39642-2.36359,8.84259-2.36359,5.141,0,2.8042,2.10321,2.10315,4.67371-.70105,2.57055,1.86945.93475,4.67371,2.10315,2.8042,1.16845,1.86944,1.16845,1.63574,5.14111-.23364,3.9726,1.16846.23364,3.0379.701,1.86951.46735,4.20636,8.4126,4.20636,8.4126h3.97266l1.16839-5.6084s3.21624-12.71407,9.99309-11.07826c3.95606.95495,5.35964,1.47719,8.98947,6.68447,2.96423,4.25244,2.30762,13.34178,7.49122,13.36894,4.78033.025,14.62437.4853,15.58946.6059.61.07624,1.29388-.72387,1.93951-1.8291a36.98163,36.98163,0,0,0,2.50049-5.8825C334.59632,114.99205,326.65107,107.98149,317.53736,103.54149Z"/><path class="cls-7" d="M370.81745,178.788S359.8343,167.10374,351.889,166.87c0,0-5.14105-7.94525-10.2821-8.41266a39.91211,39.91211,0,0,0-6.6543.37934c-10.08679,1.16107-27.59424,4.70593-34.94159,9.90283-7.30426,5.16644-18.27026,7.62188-24.83239,14.50006a19.05949,19.05949,0,0,0-4.61182,7.93365c-3.97266,13.55371,1.63574,32.94953-1.40216,49.77478-.22742,1.25965-.52338,2.63886-.86994,4.108-3.73376,15.82923-13.46893,43.66012-9.67865,48.944.55665.77594,153.502,0,153.502,0S403.97358,206.89861,370.81745,178.788Z"/><path class="cls-8" d="M230.465,248.02208c11.10791-.90454,21.42719-1.727,29.9646-2.3783,2.12671-8.735,5.27063-25.18548.46656-30.83734-3.02308-3.55658-11.93738-6.061-20.77326-7.73907-1.3858,15.42291-3.35925,29.90161-5.27472,33.134C233.20545,242.97343,231.98713,245.74638,230.465,248.02208Z"/><path class="cls-8" d="M121.46857,262.26172c-2.95172-.328-6.24261.61455-7.63977.50365L47.80872,278.10111l54.27375,10.31129,90.98278-17.30652-45.615-9.395-13.18609-1.372A27.53678,27.53678,0,0,1,121.46857,262.26172Z"/><path class="cls-8" d="M172.47086,248.50164a5.75292,5.75292,0,0,1-5.23352-.29347c-1.22279-.63585.11456-2.08513-.48911-2.201-1.60081-.3073-2.43212-.372-2.93469-1.07605a2.20682,2.20682,0,0,1,.03718-2.24417c-3.852-.45766-.40333-5.403,1.06091-7.58344-4.50617,4.93555-8.19,8.8064-8.19,8.8064l-.14954.07476c2.68726,3.47254,5.636,5.56958,3.36359,6.84784a7.49158,7.49158,0,0,0-2.99695,3.343c5.90729-.5036,12.31347-1.048,19.00488-1.61407C174.92048,251.30516,172.47086,248.50164,172.47086,248.50164Z"/><path class="cls-8" d="M241.77076,167.01958c-.73029-7.01075-7.06818-9.79224-12.134-10.89582a33.33323,33.33323,0,0,1-4.18354,2.24256c-4.203,1.97784-1.48346,3.70849-3.95581,8.65326a122.28644,122.28644,0,0,0-4.9447,12.11456s-.345-3.04724-.78528-6.61737a69.13454,69.13454,0,0,1-15.03784,15.76508c-3.45721,2.565-10.13251,3.01464-16.42078,2.73822.53388,8.96478.35047,17.82348.35047,18.27685,0,0-7.41706,1.97784-12.609.7417-5.57868-1.32825-6.67542-1.23621-6.18091-6.18091.49445-4.9447-4.203-4.203-5.93365-8.90051-1.73066-4.69745-14.58692-8.90045-12.11457-12.609,2.22126-3.33185-.73852-7.47266-1.54364-14.73175-5.21209,1.6192-7.13513,6.04791-11.55987,13.0011-5.192,8.15875-4.69745,31.64618-6.18091,44.50244-1.4834,12.85626-5.6864,13.35077-5.6864,13.35077l.07434.25281a3.68331,3.68331,0,0,1,2.00513-.01526c3.49115.95209,10.58007,12.18512,13.56494,17.0451.70025,1.14014,1.17584,1.9314,1.32477,2.15479a6.685,6.685,0,0,0,4.14721-2.62409c7.718-9.15356,10.777-38.81738,10.777-38.81738s-.24725,7.16986-1.4834,17.30652a12.38427,12.38427,0,0,0,1.72644,7.87311l5.2533-6.48944c-2.32971.32586-4.56421.33929-4.74726-.75879-.12158-.72937,1.49347-1.79816,3.95228-2.85535-.692-1.135-1.74067-3.24054-.49836-3.95044,1.25061-.7146,3.91419,1.1485,5.29962,2.23944.2143-.0639.429-.1272.64625-.189l7.15765-8.23133s9.1477-10.13666,9.1477-6.67535c0,1.53644-4.82385,7.4574-10.18774,13.56738,3.05145-.44983,5.84924-.48346,7.60083.21716,5.8775,2.351,4.702,9.79584,5.8775,13.71418l.237.39886c2.57056,2.88245,22.09754-4.709,22.09754-4.709,7.396,4.39764,10.70849,8.28253,12.18353,11.03619,1.41632,2.6441,1.13879,4.24536,1.13879,4.24536,5.42585.23139,8.17627-1.97961,10.31958-5.18408,1.52216-2.2757,2.74048-5.04865,4.38318-7.82068,1.91547-3.23242,3.88892-17.71112,5.27472-33.134C241.599,190.63951,242.40833,173.14043,241.77076,167.01958Z"/><path class="cls-8" d="M258.616,294c-3.79028-5.28387,5.94489-33.11476,9.67865-48.944-2.40209.175-5.03479.37189-7.86511.58777-8.53741.65125-18.85669,1.47376-29.9646,2.3783-2.14331,3.20447-4.89373,5.41547-10.31958,5.18408l-26.41815,2.2713q-.69443-.00585-1.3772-.01227c-6.068-.05712-11.36175-.14965-12.56353-.29986a6.49534,6.49534,0,0,1-3.8429-2.60394c-6.69141.566-13.09759,1.11047-19.00488,1.61407-4.67353.39844-9.03278.77118-12.972,1.10864a6.685,6.685,0,0,1-4.14721,2.62409s-2.33558,1.16687-5.5553,2.43072l13.18609,1.372,45.615,9.395L102.08247,288.4124,47.80872,278.10111l66.02008-15.33574c-1.94134-.15406-2.61322-.15522-2.61322-.15522s-14.106,4.702-18.808,3.91834c-2.351-.39182-2.23663-1.53574-1.53449-2.5817a5.457,5.457,0,0,1,3.693-2.25145c1.97891-.32174,4.91178-.87909,4.37069-1.28288l-14.98719,2.08429a9.33517,9.33517,0,0,1-1.33789,1.28894c-5.18585,3.90723-7.07434,1.601-5.87732-.28546l-58.94583,10.0813L83.22488,294"/><path class="cls-8" d="M138.4947,255.7534c-2.98487-4.86-10.07379-16.093-13.56494-17.0451a3.68331,3.68331,0,0,0-2.00513.01526c-3.20392.8761-6.21573,7.48824-15.3635,8.14168-10.97137.78363-17.28447-3.44448-21.59465-.70168,0,0-7.8729,4.6327-11.79123,9.33472-1.82617,2.19141-10.94514,10.1828-5.66957,8.67926,2.76248-.78731,7.26524-2.9049,12.3717-7.90049a.23789.23789,0,0,1,.376.28481C79.72271,259.245,78.34605,261.782,77.126,263.002a2.852,2.852,0,0,0-.3916.49823c-1.197,1.88647.69147,4.19269,5.87732.28546a9.33517,9.33517,0,0,0,1.33789-1.28894c2.01618-2.296,3.96271-5.8653,4.9314-6.15594,2.90607-.87183,8.79478.38573,10.05579,4.07165.24371.71239-2.86236.86986-4.43063.90407a2.57932,2.57932,0,0,0-1.64107.63628c-1.43122,1.24843-4.055,3.97613-.45754,4.57568,4.702.78369,18.808-3.91834,18.808-3.91834s.67188.00116,2.61322.15522c1.39716.1109,4.68805-.83165,7.63977-.50365a27.53678,27.53678,0,0,0,12.7956-1.92281c3.21972-1.26385,5.5553-2.43072,5.5553-2.43072C139.67054,257.6848,139.195,256.89354,138.4947,255.7534Z"/><path class="cls-8" d="M158.94672,227.59233c-1.24231.7099-.1936,2.81543.49836,3.95044a44.84777,44.84777,0,0,1,4.80126-1.711C162.86091,228.74083,160.19733,226.87773,158.94672,227.59233Z"/><path class="cls-8" d="M181.19794,214.73607c0-3.46131-9.1477,6.67535-9.1477,6.67535l-7.15765,8.23133a48.78665,48.78665,0,0,1,6.11761-1.3393C176.37409,222.19347,181.19794,216.27251,181.19794,214.73607Z"/><path class="cls-8" d="M160.24006,235.15691l-5.2533,6.48944-1.232,1.52185.49444,1.9779,2.32288-1.16144.14954-.07476s3.68383-3.87085,8.19-8.8064c.4444-.6618.76886-1.09723.76886-1.09723A48.18009,48.18009,0,0,1,160.24006,235.15691Z"/><path class="cls-8" d="M219.0066,248.9608c-1.475-2.75366-4.78754-6.63855-12.18353-11.03619,0,0-19.527,7.59149-22.09754,4.709l-.237-.39886c-1.17547-3.91834,0-11.36316-5.8775-13.71418-1.75159-.70062-4.54938-.667-7.60083-.21716a48.78665,48.78665,0,0,0-6.11761,1.3393c-.21729.06182-.432.12512-.64625.189a44.84777,44.84777,0,0,0-4.80126,1.711c-2.45881,1.05719-4.07386,2.126-3.95228,2.85535.18305,1.09808,2.41755,1.08465,4.74726.75879a48.18009,48.18009,0,0,0,5.44043-1.15064s-.32446.43543-.76886,1.09723c-1.46424,2.18042-4.91288,7.20206-1.06091,7.58344a2.08311,2.08311,0,0,0-.03718,2.24417c.49571.6862,1.2576.73062,2.93469,1.07605.61337.12634-.73368,1.51625.48911,2.201a5.52588,5.52588,0,0,0,5.23352.29347s2.44962,2.80352,3.47275,4.05975a6.49534,6.49534,0,0,0,3.8429,2.60394c1.20178.15021,6.49554.24274,12.56353.29986q.68344.00642,1.3772.01227l26.41815-2.2713S220.42292,251.6049,219.0066,248.9608Z"/><path class="cls-8" d="M232.12855,150.45476c-1.73065-3.70856-17.05927-4.45026-20.52057-20.76782s.49444-22.49848-9.14777-28.43213c-9.64215-5.93366-20.02606-11.12561-29.91553-3.21405,0,0-9.1477-3.95581-11.37286,9.8894-2.2251,13.84522,2.22516,28.43213-1.97784,33.87134s-13.35077,14.33966-13.10352,23.24017c.02509.904.096,1.75409.187,2.57477.80512,7.25909,3.7649,11.3999,1.54364,14.73175-2.47235,3.70856,10.38391,7.91156,12.11457,12.609,1.73065,4.69751,6.4281,3.95581,5.93365,8.90051-.49451,4.9447.60223,4.85266,6.18091,6.18091,5.19195,1.23614,12.609-.7417,12.609-.7417,0-.45337.18341-9.31207-.35047-18.27685-.33953-5.70234-.96844-11.44745-2.12188-15.1-2.96686-9.395-5.43921-13.84522-6.18091-20.02606-.37085-3.09046-1.45252-7.69525-3.214-9.395-1.76154-1.69971-3.46131,2.7196-4.203-3.7085-.73682-6.3858-.989-22.25122,1.48339-27.93768,2.47235-5.6864,11.37287-8.15875,11.37287-8.15875s1.73065,11.86731,9.395,11.3728a32.59908,32.59908,0,0,0,6.11227-.82721,4.07193,4.07193,0,0,1,3.81133.94094l3.92161,3.59483s7.16986,13.84521.24725,27.196l-.24725,2.9668s-1.23621,4.45025,1.23615,5.19195c5.40527,1.62158,7.66436,1.4834,8.40606,5.192.3841,1.92065.96692,6.35949,1.43982,10.1947.44025,3.57013.78528,6.61737.78528,6.61737a122.28644,122.28644,0,0,1,4.9447-12.11456c2.47235-4.94477-.24719-6.67542,3.95581-8.65326a33.33323,33.33323,0,0,0,4.18354-2.24256C231.87824,154.63133,233.24842,152.85454,232.12855,150.45476Z"/><path class="cls-8" d="M122.92463,238.72356c.82766-.4409,15.29122-4.05679,18.33618-.63121"/><path class="cls-8" d="M109.85966,262.83265c1.35592-.2225,7.80271-3.045,7.80271-8.94457"/><path class="cls-8" d="M206.82307,237.92461s13.91154-18.17385,16.97666-51.41856"/><path class="cls-8" d="M204.93262,148.97136s-1.64559,8.29821-8.01159,9.24132-15.52264-1.318-22.16314-7.78067"/><path class="cls-8" d="M199.46839,157.608s-.42536,15.93024,2.63975,19.46691"/><path class="cls-8" d="M191.00306,126.64908c.3628.48373,5.02567,6.67854,6.28853,8.82814.75495,1.285-6.13773,4.72406-6.28853,3.7489"/><path class="cls-8" d="M200.43586,141.76575l-13.62274,4.50338a.72454.72454,0,0,0-.27477,1.21829c1.26181,1.13481,4.30053,2.53807,10.26951-1.24714C201.76613,143.096,200.43586,141.76575,200.43586,141.76575Z"/><circle class="cls-7" cx="182.35632" cy="129.73288" r="1.39073"/><circle class="cls-7" cx="200.11432" cy="125.33903" r="1.39073"/><circle class="cls-7" cx="263.61492" cy="143.84717" r="1.79672"/><path class="cls-8" d="M266.88918,169.33878c.461,0,5.64722.80675,8.298-7.376"/><path class="cls-8" d="M292.01357,172.91152a30.9456,30.9456,0,0,0,3.91849-14.75194"/><path class="cls-8" d="M289.70858,142.71611c.45132.36652,1.97423,8.058,4.26424,5.64728,2.30185-2.42322,6.33872-26.04642-7.14548-16.82645"/><path class="cls-8" d="M176.286,249.87116c.19538-1.82965,1.58447-4.63057-3.81509-1.36952"/><path class="cls-8" d="M163.85072,242.68694l3.25346-4.25877a6.444,6.444,0,0,1,4.55738-1.99664c2.98228-.15181,3.59249-.11368,5.15616-.15181"/><path class="cls-8" d="M166.69828,246.27766l4.71017-4.26089a6.02138,6.02138,0,0,1,4.4265-1.25767l2.56069.246"/><path class="cls-8" d="M165.68049,234.00627a19.47671,19.47671,0,0,1,7.89548-1.73107"/><path class="cls-8" d="M299.58279,294c.635-1.90488,8.25447-19.47465,7.937-35.98358s-3.1748-27.30324-3.1748-27.30324"/><line class="cls-8" x1="80.80782" y1="257.21784" x2="84.16504" y2="251.15846"/><rect class="cls-3" x="914.37586" y="32.79734" width="109.86434" height="143.83156" rx="5.26884"/><path class="cls-8" d="M1004.08929,142.03461h-1.82693c-.1944,0-.28069-.20618-.30239-.26581a14.76984,14.76984,0,0,0-.72626-1.73184.30039.30039,0,0,1,.014-.333l1.32607-1.32731a2.629,2.629,0,0,0,0-3.72118l-2.86525-2.86834a2.64753,2.64753,0,0,0-1.8609-.75589h-.00074a2.64865,2.64865,0,0,0-1.86165.75589l-1.34106,1.34081c-.11109.11109-.28279.0398-.33239.016a15.0453,15.0453,0,0,0-1.73258-.7182c-.05852-.0217-.24981-.10117-.24981-.28156v-1.87057a2.63653,2.63653,0,0,0-2.63229-2.63229h-4.05456a2.63636,2.63636,0,0,0-2.63229,2.63229v1.87057c0,.18039-.19155.25986-.25006.2797a15.81511,15.81511,0,0,0-1.73371.72006c-.04859.0238-.22117.09509-.33126-.016l-1.34082-1.34081a2.66449,2.66449,0,0,0-3.72255,0l-2.86834,2.86834a2.63779,2.63779,0,0,0,.00112,3.72118l1.32594,1.3252a.2994.2994,0,0,1,.01686.33313,14.81031,14.81031,0,0,0-.72874,1.73382c-.02195.06348-.10737.26581-.30164.26581h-1.82594a2.63374,2.63374,0,0,0-2.63328,2.63018v4.05456a2.63538,2.63538,0,0,0,2.63328,2.63229h1.79519a.2741.2741,0,0,1,.26879.1727,15.02953,15.02953,0,0,0,.80052,1.93206.23526.23526,0,0,1-.05951.26185l-1.29259,1.29134a2.6378,2.6378,0,0,0,.00112,3.72119l2.86623,2.86648a2.65368,2.65368,0,0,0,1.86264.75763h.001a2.64546,2.64546,0,0,0,1.85991-.75763l1.27536-1.2756a.23252.23252,0,0,1,.26085-.06137,14.51427,14.51427,0,0,0,1.93417.80932.30076.30076,0,0,1,.18547.29346v1.74969a2.63475,2.63475,0,0,0,2.63229,2.63031h4.05456a2.63492,2.63492,0,0,0,2.63229-2.63031v-1.74969a.29956.29956,0,0,1,.18435-.29346,15.19586,15.19586,0,0,0,1.934-.80548.22593.22593,0,0,1,.26171.05753l1.27462,1.27362a2.63951,2.63951,0,0,0,1.85966.75961h.002a2.64893,2.64893,0,0,0,1.86165-.75763l2.86636-2.86648a2.63153,2.63153,0,0,0,0-3.72329l-1.29024-1.29321a.22453.22453,0,0,1-.05951-.25788,15.1268,15.1268,0,0,0,.80028-1.934.27663.27663,0,0,1,.26977-.17072h1.7952a2.63416,2.63416,0,0,0,2.63129-2.63229v-4.05456A2.63252,2.63252,0,0,0,1004.08929,142.03461Zm-16.41957,13.48777a8.82926,8.82926,0,1,1,8.82933-8.83037A8.84,8.84,0,0,1,987.66972,155.52238Z"/><polyline class="cls-8" points="958.024 70.039 963.131 78.173 978.641 69.093"/><path class="cls-8" d="M998.57926,76.29425v-7.627a.87141.87141,0,0,0-.77549-.86611l-6.66871-.73855a.85524.85524,0,0,1-.72755-.62723,22.29756,22.29756,0,0,0-2.05714-4.949.85278.85278,0,0,1,.07135-.95826l4.19764-5.24321a.87141.87141,0,0,0-.06407-1.16078L987.16224,48.731a.87141.87141,0,0,0-1.16078-.06409l-5.25082,4.20368a.85282.85282,0,0,1-.95717.072,22.29449,22.29449,0,0,0-4.93979-2.04625.85535.85535,0,0,1-.62809-.72783l-.74048-6.68606a.87141.87141,0,0,0-.86611-.77548h-7.627a.8714.8714,0,0,0-.86611.77548l-.74048,6.68611a.85537.85537,0,0,1-.62809.72784,22.29384,22.29384,0,0,0-4.93979,2.04619.85282.85282,0,0,1-.95718-.072l-5.25082-4.20368a.87141.87141,0,0,0-1.16078.06409L945.0557,54.1241a.87141.87141,0,0,0-.06408,1.16079l4.19769,5.2432a.85276.85276,0,0,1,.07136.95826,22.29775,22.29775,0,0,0-2.05714,4.94905.85526.85526,0,0,1-.72755.62723l-6.66872.73855a.87141.87141,0,0,0-.77548.86611v7.627a.87139.87139,0,0,0,.77548.86611l6.65585.73713a.85522.85522,0,0,1,.728.629,22.29576,22.29576,0,0,0,2.05507,4.96873.85263.85263,0,0,1-.07193.95711l-4.1826,5.22433a.87141.87141,0,0,0,.06407,1.16079l5.39309,5.39309a.87141.87141,0,0,0,1.16078.06408l5.21689-4.17654a.85257.85257,0,0,1,.95819-.07127,22.29587,22.29587,0,0,0,4.97792,2.066.8551.8551,0,0,1,.62816.7277l.7352,6.63855a.8714.8714,0,0,0,.86611.77548h7.627a.87139.87139,0,0,0,.86611-.77549l.73516-6.63852a.8551.8551,0,0,1,.62817-.72772,22.29472,22.29472,0,0,0,4.978-2.06591.85256.85256,0,0,1,.95818.07126l5.21688,4.1765a.87142.87142,0,0,0,1.16078-.06409l5.39305-5.3931a.87142.87142,0,0,0,.06408-1.16078l-4.18252-5.22434a.85262.85262,0,0,1-.07193-.95709,22.29738,22.29738,0,0,0,2.055-4.96874.85522.85522,0,0,1,.728-.629l6.65584-.73713A.87139.87139,0,0,0,998.57926,76.29425Zm-26.874,10.677a14.90561,14.90561,0,0,1-17.8954-17.89578,14.754,14.754,0,0,1,11.08966-11.0901,14.90561,14.90561,0,0,1,17.89608,17.89616A14.754,14.754,0,0,1,971.70525,86.97123Z"/><path class="cls-8" d="M961.75676,143.83545v-3.05991a.34962.34962,0,0,0-.31112-.34749l-2.67547-.2963a.34313.34313,0,0,1-.29189-.25164,8.94536,8.94536,0,0,0-.82532-1.98555.34212.34212,0,0,1,.02863-.38444l1.68408-2.10356a.34962.34962,0,0,0-.02571-.46571l-2.16367-2.16369a.34962.34962,0,0,0-.4657-.02571L954.604,134.438a.34215.34215,0,0,1-.384.02889,8.94453,8.94453,0,0,0-1.98183-.82095.34315.34315,0,0,1-.252-.292l-.29708-2.68243a.3496.3496,0,0,0-.34748-.31112h-3.05991a.3496.3496,0,0,0-.34748.31112l-.29708,2.68245a.34315.34315,0,0,1-.252.292,8.94467,8.94467,0,0,0-1.98183.82093.34213.34213,0,0,1-.384-.02889l-2.10661-1.6865a.3496.3496,0,0,0-.4657.02571l-2.16369,2.16369a.34961.34961,0,0,0-.02571.46571l1.6841,2.10356a.34215.34215,0,0,1,.02863.38445,8.94508,8.94508,0,0,0-.82532,1.98554.34314.34314,0,0,1-.29189.25164l-2.67547.2963a.34961.34961,0,0,0-.31112.34749v3.05991a.3496.3496,0,0,0,.31112.34748l2.6703.29573a.34311.34311,0,0,1,.29207.25235,8.945,8.945,0,0,0,.82448,1.99344.34208.34208,0,0,1-.02885.384l-1.678,2.096a.34961.34961,0,0,0,.02571.46571l2.16369,2.16369a.3496.3496,0,0,0,.4657.02571l2.093-1.67562a.34206.34206,0,0,1,.38443-.02859,8.94453,8.94453,0,0,0,1.99712.82886.34308.34308,0,0,1,.252.29195l.295,2.66336a.3496.3496,0,0,0,.34748.31113h3.05991a.34961.34961,0,0,0,.34748-.31113l.29494-2.66335a.34306.34306,0,0,1,.252-.292,8.94452,8.94452,0,0,0,1.99714-.82884.34206.34206,0,0,1,.38442.02859l2.093,1.6756a.3496.3496,0,0,0,.4657-.02571l2.16367-2.16369a.3496.3496,0,0,0,.02571-.4657l-1.678-2.096a.34208.34208,0,0,1-.02886-.384,8.94527,8.94527,0,0,0,.82447-1.99344.34311.34311,0,0,1,.29206-.25235l2.67031-.29573A.34961.34961,0,0,0,961.75676,143.83545ZM950.975,148.119a5.98009,5.98009,0,0,1-7.17958-7.17973,5.91922,5.91922,0,0,1,4.44914-4.44931,5.98007,5.98007,0,0,1,7.17984,7.17987A5.91925,5.91925,0,0,1,950.975,148.119Z"/><polyline class="cls-8" points="956.86 122.862 956.86 114.802 979.423 114.802 979.423 123.236"/><line class="cls-8" x1="968.47009" y1="114.80202" x2="968.47009" y2="107.573"/><rect class="cls-8" x="914.88213" y="32.63224" width="109.86434" height="143.83156" rx="5.26884"/><rect class="cls-3" x="1015.82583" y="40.08492" width="77.18834" height="77.18834" rx="5.95855"/><rect class="cls-8" x="1015.82583" y="40.08492" width="77.18834" height="77.18834" rx="5.95855"/><circle class="cls-6" cx="1051.24253" cy="80.90963" r="28.98492"/><circle class="cls-3" cx="1051.24253" cy="80.90963" r="23.18793"/><circle class="cls-6" cx="1051.24253" cy="80.90963" r="17.39095"/><circle class="cls-3" cx="1051.24253" cy="80.90963" r="11.59397"/><circle class="cls-6" cx="1051.24253" cy="80.90963" r="5.79698"/><circle class="cls-3" cx="1051.24253" cy="80.90963" r="1.73909"/><polygon class="cls-3" points="1077.793 54.437 1077.793 45.007 1068.363 54.437 1068.363 63.866 1077.793 63.866 1087.222 54.437 1077.793 54.437"/><path class="cls-3" d="M1079.1333,53.05751l-.01838-.02033a1.15954,1.15954,0,0,0-1.63969,0l-27.05255,27.05266a1.15943,1.15943,0,0,0,.00006,1.63963l.02027.01832a1.15759,1.15759,0,0,0,1.61936-.01832l27.05255-27.05261A1.15877,1.15877,0,0,0,1079.1333,53.05751Z"/><path class="cls-8" d="M1070.64959,63.49273l-1.48777,1.48772a23.19,23.19,0,1,1-1.63966-1.63966l1.56508-1.56507V57.15155a29.004,29.004,0,1,0,6.31886,6.34118Z"/><path class="cls-8" d="M1069.35778,80.53583a17.4316,17.4316,0,1,1-5.95267-13.07792l4.11705-4.11712a23.19024,23.19024,0,1,0,1.63966,1.63966l-4.11706,4.11711A17.305,17.305,0,0,1,1069.35778,80.53583Z"/><path class="cls-8" d="M1034.57589,80.53583a17.391,17.391,0,1,0,30.46887-11.43827L1060.94242,73.2a11.59861,11.59861,0,1,1-1.63971-1.63971l4.1024-4.10234a17.37258,17.37258,0,0,0-28.82922,13.07792Z"/><path class="cls-8" d="M1057.76382,80.53583a5.80149,5.80149,0,1,1-2.6018-4.83484l4.14069-4.14074A11.59861,11.59861,0,1,0,1060.94242,73.2l-4.14069,4.14069A5.76721,5.76721,0,0,1,1057.76382,80.53583Z"/><path class="cls-8" d="M1046.16985,80.53583a5.82588,5.82588,0,0,0,11.65162,0,5.74688,5.74688,0,0,0-.96687-3.19518l-3.12031,3.10487c.0016.03056.00913.05936.00913.09031a1.74778,1.74778,0,1,1-1.74776-1.73911c.03111,0,.06011.0075.09082.00909l3.12026-3.10482a5.829,5.829,0,0,0-9.03689,4.83484Z"/><path class="cls-8" d="M1051.99566,81.69524a1.16419,1.16419,0,0,1-.80349-.32126l-.02038-.01829a1.15545,1.15545,0,0,1-.00006-1.63966l.91475-.91022c-.03071-.00159-.05971-.00909-.09082-.00909a1.73913,1.73913,0,1,0,1.74776,1.73911c0-.031-.00753-.05975-.00913-.09031l-.91469.91017A1.16482,1.16482,0,0,1,1051.99566,81.69524Z"/><path class="cls-8" d="M1069.08724,54.063v7.71274l2.53562-2.53562,6.57668-6.57668a1.13753,1.13753,0,0,1,.31746-.21073V44.63322Z"/><path class="cls-8" d="M1079.9996,54.063a1.1164,1.1164,0,0,1-.16041.24009l-6.57668,6.57668-2.61292,2.613h7.86741l9.42975-9.42975Z"/><path class="cls-8" d="M1079.8576,52.68375l-.01841-.02033a1.21046,1.21046,0,0,0-1.63965,0l-6.57668,6.57668-2.53562,2.53562-1.56508,1.56507-4.11705,4.11712-4.1024,4.10234c.01192.00977.02232.02119.03419.031l-4.13018,4.10978-3.12026,3.10482-.91472.91022a1.15542,1.15542,0,0,0,.00006,1.63966l.02039.01829a1.16741,1.16741,0,0,0,1.62739-.01829l.91471-.91017,3.12032-3.10487L1061.01586,73.2c-.011-.0134-.02391-.0251-.035-.03845l4.06389-4.064,4.11706-4.11711,1.48777-1.48772,2.61292-2.613,6.57668-6.57668a1.1164,1.1164,0,0,0,.16041-.24009A1.14363,1.14363,0,0,0,1079.8576,52.68375Z"/><path class="cls-3" d="M1276.32405,210.29719a21.21211,21.21211,0,0,0-.936-10.26c.32514,3.40192.61945,6.93231.88526,10.56281C1276.29146,210.49781,1276.30427,210.401,1276.32405,210.29719Z"/><path class="cls-3" d="M1207.98213,157.8824l-.00513-.0066-.013.03882Z"/><path class="cls-3" d="M1276.799,218.51271c-.16186-2.6789-.33606-5.32215-.52563-7.91272A13.638,13.638,0,0,0,1276.799,218.51271Z"/><path class="cls-3" d="M1208.02064,157.81391l.05481-.22906s-.03692.1076-.09845.291l.00513.0066Z"/><path class="cls-3" d="M1207.999,157.90412l.02166-.09021-.03851.06849Z"/><path class="cls-3" d="M1276.799,218.51271a13.638,13.638,0,0,1-.52563-7.91272c-.26581-3.6305-.56012-7.16089-.88526-10.56281a51.33838,51.33838,0,0,0-8.49676-15.26385s-8.323-9.43274-7.76813-19.97522c.55487-10.54242-18.86548-8.87787-18.86548-8.87787s-12.7619,5.5487-9.98761,17.20086c2.77436,11.65223,2.21949,14.98139-1.66455,18.31061-3.88409,3.32923-4.439,17.75574-4.439,17.75574l-4.99378,5.54864s-15.53625-23.30438-16.09112-32.18225a32.96873,32.96873,0,0,1,.35138-6.3266c2.37158-9.21643,4.1842-16.73223,4.56592-18.32312l-.01685-.02172c-.006.0108-.01055.042-.01813.03222-2.69909-3.47288-4.17984-4.94655-5.63632-5.55342-3.26685-1.36115,1.93649,22.28938-5.68613,30.72872-4.94873,5.47894-8.045,11.64349-8.65149,17.38195a16.46181,16.46181,0,0,0,1.30115,8.75263c2.2428,4.83069.33264,6.05548-.468,8.72815-.46276,1.54467-.556,3.57159.74024,7.06152,3.25329,8.75885,7.42309,28.556,7.23,43.539a22.38266,22.38266,0,0,0-10.22455,6.82453c4.0835,1.089,6.26141,14.15625,6.53363,15.24524l-4.08349.27221s-1.88514.15161-4.72126.30976q4.29686,1.82189,8.66284,3.67334c7.81208,3.31286,15.71936,6.66693,23.43268,9.93988,27.7807,11.78808,53.03137,22.51825,62.13959,26.43353C1278.41688,321.8423,1294.84441,299.47383,1276.799,218.51271Z"/><path class="cls-3" d="M1278.53285,331.25166c-9.10822-3.91528-34.35889-14.64545-62.13959-26.43353-7.71332-3.27295-15.6206-6.627-23.43268-9.93988q-4.35937-1.84873-8.66284-3.67334c-7.91577.44146-23.30725.93457-26.3136-1.671-2.30944-2.00147-8.2843-.08368-11.97839.27227-2.83783.27344-3.434-1.12463-5.4447-1.3612-4.628-.54444,0-3.81128,0-3.81128s10.8894-4.90027,13.884-5.4447c.32977-.05994.71546-.11231,1.12934-.15979-5.41681-2.29566-10.44355-4.42566-14.92267-6.32349-12.94959-5.48688-21.32508-9.03418-21.32508-9.03418l-60.82556,2.14874,1.07172,5.84241a2.12506,2.12506,0,0,1-2.60559,2.445l-28.85547-7.21387-38.21826,1.3501c-2.44654,8.1615-4.56226,15.16986-5.925,19.67346,10.46.64569,40.98975-3.83716,40.98975-3.83716s16.86523,10.35584,18.9364,11.53937c0,0-55.03388,2.367-61.54328-2.36707,0,0-5.32586,2.07117-8.58056-8.28466,0,0-1.47937-1.77527.59179-10.65174.25238-1.08166.85883-3.02191,1.7248-5.58453l-57.1261,2.01807L962.519,339.08082l319.60449-6.26141C1282.05317,332.77253,1280.78712,332.22071,1278.53285,331.25166Z"/><path class="cls-3" d="M1186.56886,275.3777c-4.08356-1.08893-17.15082,1.3612-20.68988.54449s-1.36121,2.72235-1.36121,2.72235-5.59863.001-8.94335.38471c-.41388.04748-.79957.09985-1.12934.15979-2.99463.54443-13.884,5.4447-13.884,5.4447s-4.628,3.26684,0,3.81128c2.01068.23657,2.60687,1.63464,5.4447,1.3612,3.69409-.356,9.66895-2.27374,11.97839-.27227,3.00635,2.60553,18.39783,2.11242,26.3136,1.671,2.83612-.15815,4.72126-.30976,4.72126-.30976l4.08349-.27221C1192.83027,289.534,1190.65236,276.46669,1186.56886,275.3777Z"/><path class="cls-3" d="M1140.83327,83.724c1.90563-4.08356.27227-8.16712,2.72235-8.16712s1.9057-3.53906,4.08355-2.99456,2.99457-2.45014,3.53907.27221-4.628,2.72235-1.08893,3.81134c3.53906,1.08893.81671,2.45008,2.45013,2.72235,1.63336.27222,1.63336-.27227,3.53906-1.089,1.90564-.81666,3.26679-.27222,3.26679,1.63342s0,3.81134,2.17792,4.08356c2.17785.27221,1.36114,1.36114.27221,3.26684-1.08892,1.90564,1.63343,3.81128,2.72235,3.81128s-.81671,1.36115,2.17786,3.53906a13.328,13.328,0,0,0,2.03839,1.20447,15.71648,15.71648,0,0,1,2.16541-4.817c7.21325-10.54241,15.53625-6.10351,15.53625-6.10351s2.23847-10.025,17.94818-8.80493c.01044-1.8147-.2857-3.34094-1.20861-3.80237-2.72242-1.36121-4.90027-.81671-4.08356-1.90564,0,0,2.17785-3.53906,1.36114-5.17249-.81665-1.63342-2.72235-1.089-2.17785-2.72235.54449-1.63342,4.08355-.27227.54449-3.53906,0,0-1.80871-1.55286-3.23181-1.31567,0,0-2.25317-4.74366-4.15063-5.69239s-3.08338-.23718-3.91352-.83013c-.83014-.5929-2.49042-2.84614-4.625-3.3205-2.13464-.47437-2.7276.47436-4.86224-.35577s-1.66028-1.54169-3.43909-4.1507c-1.65417-2.426-2.89673-1.87848-3.15838-1.50372-.03858.10583-.0655.14636-.04358.08062a.33033.33033,0,0,1,.04358-.08062c.17028-.46711.57275-2.22541-1.941-1.93537-3.08332.35578-3.20191,2.72754-4.50641,2.72754s-4.03211-1.8974-4.1507.23718c-.11859,2.13465-1.3045.94873-3.43909,1.06733-1.69024.09393-4.64441.33648-5.8012,1.6109a.717.717,0,0,1-1.11524-.09137,2.23619,2.23619,0,0,0-2.808-1.04517c-2.49042.94873-3.67633,2.96478-4.50647,2.7276s-3.08338-.47436-3.202.71155c0,0-1.66021,1.54169-1.18585,2.96472.47437,1.4231-1.4231.593-2.609,1.18591s1.06732,3.67633-2.49042,4.03211c-3.55767.35577-4.26922,2.7276-4.032,4.26922a9.36756,9.36756,0,0,1-1.06732,5.92957c-1.18591,2.01605-.35578,1.54169.593,3.2019.94873,1.66028-.71155,3.202.71154,4.74366,1.423,1.54168.71149,1.89746,2.25318,1.54168,0,0-3.3205,1.4231-3.08332,2.96473.23719,1.54168.94873,3.79492,1.30445,4.0321.35577.23718-2.72754,2.13464.11859,2.609,2.84619.47436.11859,2.13458.11859,3.91345s0,5.69238.94873,5.57379.11859,2.49036.94873,2.96472,1.66028,2.96479,2.84619,1.54169a5.68955,5.68955,0,0,1,1.88465-1.26929c-.69611-4.38537-.54438-8.91174-1.02308-11.54449C1135.66084,83.45167,1138.92763,87.80744,1140.83327,83.724Z"/><path class="cls-3" d="M1212.70344,117.75337s-7.62256-9.52826-13.06726-11.4339c-5.44476-1.90564-8.43933-1.36121-8.98382-5.4447-.54444-4.08356.54449-8.43933-7.07813-7.62262a9.338,9.338,0,0,0-1.413.27008l-2.2453.98877c-2.79712,1.88507-3.704,5.55047-3.855,9.45544-.20978,5.42645,1.03784,11.31159.70739,13.51471a33.349,33.349,0,0,1-2.5755,8.3764,2.04646,2.04646,0,0,0,1.147,2.76l2.24524.842s.45025,3.33026,1.09137,7.24695c.47406,2.89618,1.0523,6.11243,1.631,8.54273,1.20465,5.05963,20.68988,4.5429,24.22894,8.43927,1.06134,1.16851,2.269,2.6654,3.44061,4.18737.06153-.18335.09845-.291.09845-.291l-.05481.22906a56.56015,56.56015,0,0,0,2.50367-5.243c.16546-.39337.30834-.74322.43121-1.04889a65.85667,65.85667,0,0,1-2.33557-16.61779C1208.62,122.38136,1212.70344,117.75337,1212.70344,117.75337Z"/><path class="cls-3" d="M1182.16127,93.52223a7.356,7.356,0,0,0-2.2453.98877Z"/><path class="cls-3" d="M1281.31782,190.87684c-4.4389-3.32916-1.10974-24.41412,0-32.73712s-11.65222-27.74329-24.41412-31.62738c-12.7619-3.884-6.65839-10.54248-7.21326-19.97516-.55487-9.43274-5.54864-18.86548-32.73712-27.74335a54.37093,54.37093,0,0,0-12.56946-2.70141c-15.70971-1.22-17.94818,8.80493-17.94818,8.80493s-8.323-4.4389-15.53625,6.10351a15.71648,15.71648,0,0,0-2.16541,4.817,25.57339,25.57339,0,0,0-.79956,6.3963c-.09277,8.37689,2.65479,18.20343,3.02338,26.92786a37.7186,37.7186,0,0,1-.05841,4.58362,25.62318,25.62318,0,0,1-.70374,4.44122c-2.13568,8.158-7.54785,4.89831-7.06439,15.534.55487,12.207,8.87787,14.98138-.55487,29.96276s.55487,16.646,7.21326,22.19465c6.1734,5.14453,14.72387,11.23327,19.0335,12.09442.80066-2.67267,2.71082-3.89746.468-8.72815a16.46181,16.46181,0,0,1-1.30115-8.75263c.60651-5.73846,3.70276-11.903,8.65149-17.38195,7.62262-8.43934,2.41928-32.08987,5.68613-30.72872,1.45648.60687,3.182,2.20292,5.63632,5.55342l.013-.03882c-1.17163-1.522-2.37927-3.01886-3.44061-4.18737-3.53906-3.89637-23.02429-3.37964-24.22894-8.43927-.57868-2.4303-1.15692-5.64655-1.631-8.54273-.64112-3.91669-1.09137-7.24695-1.09137-7.24695l-2.24524-.842a2.04646,2.04646,0,0,1-1.147-2.76,33.349,33.349,0,0,0,2.5755-8.3764c.33045-2.20312-.91717-8.08826-.70739-13.51471.15094-3.905,1.05786-7.57037,3.855-9.45544a7.356,7.356,0,0,1,2.2453-.98877,9.338,9.338,0,0,1,1.413-.27008c7.62262-.81671,6.53369,3.53906,7.07813,7.62262.54449,4.08349,3.53906,3.53906,8.98382,5.4447,5.4447,1.90564,13.06726,11.4339,13.06726,11.4339s-4.08349,4.628-4.08349,17.15082a65.85667,65.85667,0,0,0,2.33557,16.61779c-.12287.30567-.26575.65552-.43121,1.04889a56.56015,56.56015,0,0,1-2.50367,5.243l-.02166.09021c-.38172,1.59089-2.19434,9.10669-4.56592,18.32312a32.96873,32.96873,0,0,0-.35138,6.3266c.55487,8.87787,16.09112,32.18225,16.09112,32.18225l4.99378-5.54864s.55487-14.42651,4.439-17.75574c3.884-3.32922,4.43891-6.65838,1.66455-18.31061-2.77429-11.65216,9.98761-17.20086,9.98761-17.20086s19.42035-1.66455,18.86548,8.87787c-.55487,10.54248,7.76813,19.97522,7.76813,19.97522a51.33838,51.33838,0,0,1,8.49676,15.26385,21.21211,21.21211,0,0,1,.936,10.26c-.01978.10382-.03259.20062-.05072.3028.18957,2.59057.36377,5.23382.52563,7.91272a7.719,7.719,0,0,0,5.6286,4.54638C1284.64705,222.50422,1285.75673,194.20607,1281.31782,190.87684Z"/><path class="cls-3" d="M1167.93446,102.21412a25.57339,25.57339,0,0,1,.79956-6.3963,13.328,13.328,0,0,1-2.03839-1.20447c-2.99457-2.17791-1.08893-3.53906-2.17786-3.53906s-3.81127-1.90564-2.72235-3.81128c1.08893-1.9057,1.90564-2.99463-.27221-3.26684-2.17792-.27222-2.17792-2.17792-2.17792-4.08356s-1.36115-2.45008-3.26679-1.63342c-1.9057.81671-1.9057,1.3612-3.53906,1.089-1.63342-.27227,1.08893-1.63342-2.45013-2.72235-3.53906-1.089,1.63342-1.089,1.08893-3.81134s-1.36121.27228-3.53907-.27221-1.63342,2.99456-4.08355,2.99456-.81672,4.08356-2.72235,8.16712c-1.90564,4.08349-5.17243-.27228-4.628,2.72235.4787,2.63275.327,7.15912,1.02308,11.54449.0957.60273.20654,1.203.33813,1.795.49939,2.24731,2.431,6.72723,4.58539,11.0249,2.54321,5.07318,5.39715,9.89215,6.57623,10.48169,2.17792,1.08893,6.26142-.81671,6.26142-.81671s2.28253,5.52612,3.97479,9.63574a15.07179,15.07179,0,0,0,4.4386.73395,17.4172,17.4172,0,0,0,7.55493-1.70343C1170.58925,120.41755,1167.84169,110.591,1167.93446,102.21412Z"/><path class="cls-3" d="M1189.56343,225.01417c-1.29627-3.48993-1.203-5.51685-.74024-7.06152-4.30963-.86115-12.8601-6.94989-19.0335-12.09442-6.65839-5.54865-16.646-7.21326-7.21326-22.19465s1.10974-17.75573.55487-29.96276c-.48346-10.63569,4.92871-7.376,7.06439-15.534a25.62318,25.62318,0,0,0,.70374-4.44122,37.7186,37.7186,0,0,0,.05841-4.58362,17.4172,17.4172,0,0,1-7.55493,1.70343,15.07179,15.07179,0,0,1-4.4386-.73395c-1.69226-4.10962-3.97479-9.63574-3.97479-9.63574s-4.0835,1.90564-6.26142.81671c-1.17908-.58954-4.033-5.40851-6.57623-10.48169-4.03064.37579-9.77216.94177-12.73767,1.37573-4.86225.71155-6.28534.23719-9.48725,5.09937-3.202,4.86224-5.218,7.70837-8.77569,10.91034-3.55774,3.202-3.79492,5.81091-3.79492,5.81091s-9.36866,4.74365-15.77253,7.94556c-6.40393,3.202-24.42968,2.7276-24.42968,2.7276a7.27576,7.27576,0,0,0-6.39691,1.05359,49.44709,49.44709,0,0,1,8.28735.76171c2.9588,3.2547,3.55054,8.87647,3.55054,8.87647a10.07138,10.07138,0,0,1-4.73407,5.03c-3.5506,1.77527-10.35584-.2959-10.35584-.2959-.21332,0-.908.79083-1.87689,2.02191a3.68958,3.68958,0,0,0,1.68286,2.94983c4.15064,2.01605,8.7757,1.06732,17.67,2.49042,8.89429,1.423,35.34-.94873,50.63813-12.68921,0,0,.71154.94873,2.7276-.11859,2.016-1.06732,2.25317.47436,3.08331,4.38788.83014,3.91345,7.94562,22.53216,4.62506,38.66046s-11.02893,31.30792-9.01288,33.44256c1.43024,1.51429,10.43781,6.72559,17.45862,9.12024-1.59692,13.04712-3.05286,25.34461-3.84924,32.33417,4.47912,1.89783,9.50586,4.02783,14.92267,6.32349,3.34472-.38373,8.94335-.38471,8.94335-.38471s-2.17785-3.53906,1.36121-2.72235,16.60632-1.63342,20.68988-.54449a22.38266,22.38266,0,0,1,10.22455-6.82453C1196.98652,253.5702,1192.81672,233.773,1189.56343,225.01417Z"/><path class="cls-3" d="M1069.04457,146.49555a49.44709,49.44709,0,0,0-8.28735-.76171c-2.16748.04071-4.08259.38012-4.73145,1.35351-1.73517,2.60278-13.642,7.46369-18.047,6.853l1.5672,8.54376c4.57727-.9812,9.9704-1.92078,9.9704-.89862,0,1.77527-6.80524,8.8764-6.80524,12.1311s-1.18353,5.32587,1.77527,2.66291c2.24781-2.023,8.07874-10.3595,11.14191-14.25153.96893-1.23108,1.66357-2.02191,1.87689-2.02191,0,0,6.80524,2.07117,10.35584.2959a10.07138,10.07138,0,0,0,4.73407-5.03S1072.00337,149.75025,1069.04457,146.49555Z"/><path class="cls-3" d="M1059.57283,271.66273l-1.07172-5.84241L1039.546,162.48414l-1.5672-8.54376-5.127-27.95056a1.21467,1.21467,0,0,0-1.30762-.99024l-41.25592,3.85053a1.82671,1.82671,0,0,0-1.62146,2.17706l13.69306,68.46546a4.1098,4.1098,0,0,1,1.931-1.25257,7.49252,7.49252,0,0,1,5.28168.33057c.361.16662-1.36023,6.82568-4.08948,16.5379l9.05683,45.28406a5.27255,5.27255,0,0,0,3.89142,4.08111l9.68054,2.42017,28.85547,7.21387A2.12506,2.12506,0,0,0,1059.57283,271.66273Z"/><path class="cls-3" d="M1043.89467,295.61964c-2.07117-1.18353-18.9364-11.53937-18.9364-11.53937s-30.52979,4.48285-40.98975,3.83716c-1.0174,3.36212-1.61713,5.33514-1.61713,5.33514C988.86079,297.98664,1043.89467,295.61964,1043.89467,295.61964Z"/><path class="cls-3" d="M1009.57246,198.57063a7.49252,7.49252,0,0,0-5.28168-.33057,4.1098,4.1098,0,0,0-1.931,1.25257,4.24439,4.24439,0,0,0-.807,1.27569c-3.41144,8.80725-19.88294,51.4433-25.46539,67.96332-.866,2.56262-1.47242,4.50287-1.7248,5.58453-2.07116,8.87647-.59179,10.65174-.59179,10.65174,3.2547,10.35583,8.58056,8.28466,8.58056,8.28466s.59973-1.973,1.61713-5.33514c1.36273-4.5036,3.47845-11.512,5.925-19.67346,5.03534-16.79761,11.464-38.45447,15.58947-53.13544C1008.21223,205.39631,1009.93349,198.73725,1009.57246,198.57063Z"/><path class="cls-1" d="M1129.83658,231.94991c-2.016-2.13465,5.69232-17.31427,9.01288-33.44257s-3.79492-34.747-4.62506-38.66046c-.83014-3.91352-1.06732-5.4552-3.08331-4.38788-2.01606,1.06732-2.7276.11859-2.7276.11859-15.29816,11.74048-41.74384,14.11224-50.63813,12.68921-8.89428-1.4231-13.51935-.47437-17.67-2.49042a3.68958,3.68958,0,0,1-1.68286-2.94983c-3.06317,3.892-8.89411,12.22852-11.14191,14.25153-2.9588,2.663-1.77527.5918-1.77527-2.6629s6.80524-10.35584,6.80524-12.13111c0-1.02215-5.39313-.08258-9.9704.89862l18.95514,103.33619,60.82556-2.14875s8.37549,3.5473,21.32508,9.03418c.79638-6.98956,2.25232-19.28705,3.84924-32.33417C1140.27439,238.67549,1131.26682,233.46419,1129.83658,231.94991Z"/><path class="cls-1" d="M1017.334,261.09114l-9.05683-45.28406c-4.12548,14.681-10.55413,36.33783-15.58947,53.13544l38.21826-1.3501-9.68054-2.42016A5.27253,5.27253,0,0,1,1017.334,261.09114Z"/><path class="cls-1" d="M1279.11826,210.99574a21.21211,21.21211,0,0,0-.936-10.26c.32514,3.40192.61945,6.93232.88526,10.56281C1279.08567,211.19637,1279.09848,211.09956,1279.11826,210.99574Z"/><path class="cls-1" d="M1210.77634,158.581l-.00513-.00659-.013.03881Z"/><path class="cls-1" d="M1279.59317,219.21126c-.16186-2.6789-.33606-5.32215-.52563-7.91272A13.638,13.638,0,0,0,1279.59317,219.21126Z"/><path class="cls-1" d="M1210.81485,158.51247l.05481-.22907s-.03692.10761-.09845.291l.00513.00659Z"/><path class="cls-1" d="M1210.79318,158.60268l.02167-.09021-.03851.06848Z"/><path class="cls-9" d="M1279.59317,219.21126a13.638,13.638,0,0,1-.52563-7.91272c-.26581-3.63049-.56012-7.16089-.88526-10.56281a51.33878,51.33878,0,0,0-8.49676-15.26385s-8.323-9.43274-7.76813-19.97522c.55487-10.54242-18.86548-8.87787-18.86548-8.87787s-12.7619,5.54871-9.98761,17.20087c2.77436,11.65222,2.21949,14.98138-1.66455,18.3106-3.88409,3.32923-4.439,17.75574-4.439,17.75574l-4.99378,5.54865s-15.53625-23.30439-16.09112-32.18225a32.96873,32.96873,0,0,1,.35138-6.3266c2.37158-9.21643,4.1842-16.73224,4.56591-18.32312l-.01684-.02173c-.006.0108-.01055.042-.01813.03222-2.69909-3.47288-4.17984-4.94655-5.63632-5.55342-3.26685-1.36115,1.93649,22.28939-5.68613,30.72872-4.94873,5.47894-8.045,11.64349-8.65149,17.382a16.46179,16.46179,0,0,0,1.30115,8.75262c2.2428,4.83069.33264,6.05548-.468,8.72815-.46276,1.54468-.556,3.57159.74024,7.06152,3.25329,8.75885,7.42309,28.556,7.23,43.539a22.38266,22.38266,0,0,0-10.22455,6.82453c4.0835,1.089,6.26141,14.15625,6.53363,15.24524l-4.0835.27221s-1.88513.15162-4.72125.30976q4.29684,1.8219,8.66284,3.67334c7.81208,3.31286,15.71936,6.66693,23.43268,9.93988,27.7807,11.78808,53.03137,22.51825,62.13959,26.43353C1281.21109,322.54085,1297.63862,300.17238,1279.59317,219.21126Z"/><path class="cls-3" d="M1281.32706,331.95021c-9.10822-3.91528-34.35889-14.64545-62.13959-26.43353-7.71332-3.27295-15.6206-6.627-23.43268-9.93988q-4.35937-1.84873-8.66284-3.67334c-7.91577.44146-23.30725.93457-26.3136-1.671-2.30944-2.00147-8.2843-.08368-11.97839.27228-2.83783.27343-3.434-1.12464-5.4447-1.36121-4.628-.54443,0-3.81128,0-3.81128s10.8894-4.90027,13.884-5.4447c.32977-.05994.71545-.11231,1.12933-.15979-5.4168-2.29566-10.44354-4.42566-14.92266-6.32349-12.94959-5.48688-21.32508-9.03418-21.32508-9.03418l-60.82556,2.14875,1.07172,5.8424a2.12506,2.12506,0,0,1-2.60559,2.445l-28.85547-7.21387-38.21826,1.3501c-2.44654,8.1615-4.56226,15.16986-5.925,19.67346,10.46.64569,40.98974-3.83716,40.98974-3.83716s16.86524,10.35584,18.93641,11.53937c0,0-55.03388,2.367-61.54328-2.36706,0,0-5.32586,2.07116-8.58056-8.28467,0,0-1.47937-1.77527.59179-10.65174.25238-1.08166.85883-3.02191,1.72479-5.58453l-57.12609,2.01807,43.55767,68.33111,319.6045-6.26141C1284.84738,333.47108,1283.58133,332.91927,1281.32706,331.95021Z"/><path class="cls-10" d="M1189.36307,276.07625c-4.08356-1.08893-17.15082,1.3612-20.68988.54449s-1.36121,2.72235-1.36121,2.72235-5.59863.001-8.94336.38471c-.41388.04748-.79956.09985-1.12933.15979-2.99463.54443-13.884,5.4447-13.884,5.4447s-4.628,3.26685,0,3.81128c2.01068.23657,2.60687,1.63464,5.4447,1.36121,3.69409-.356,9.66895-2.27375,11.97839-.27228,3.00635,2.60553,18.39783,2.11242,26.3136,1.671,2.83612-.15814,4.72125-.30976,4.72125-.30976l4.0835-.27221C1195.62448,290.2325,1193.44657,277.16524,1189.36307,276.07625Z"/><path class="cls-7" d="M1143.62747,84.4225c1.90564-4.08356.27228-8.16711,2.72236-8.16711s1.9057-3.53907,4.08355-2.99457,2.99457-2.45014,3.53907.27222-4.628,2.72235-1.08893,3.81134c3.53906,1.08892.81671,2.45007,2.45013,2.72235,1.63336.27221,1.63336-.27228,3.53906-1.089,1.90564-.81665,3.26679-.27222,3.26679,1.63342s0,3.81134,2.17792,4.08356c2.17785.27221,1.36114,1.36114.27221,3.26684-1.08893,1.90564,1.63343,3.81128,2.72235,3.81128s-.81671,1.36115,2.17786,3.53906a13.328,13.328,0,0,0,2.03839,1.20447,15.71631,15.71631,0,0,1,2.16541-4.81695c7.21325-10.54242,15.53625-6.10352,15.53625-6.10352s2.23847-10.025,17.94818-8.80493c.01044-1.8147-.2857-3.34094-1.20862-3.80237-2.72241-1.3612-4.90026-.81671-4.08355-1.90564,0,0,2.17785-3.53906,1.36114-5.17248-.81665-1.63343-2.72235-1.089-2.17785-2.72235.54449-1.63343,4.08355-.27228.54449-3.53907,0,0-1.80872-1.55285-3.23181-1.31567,0,0-2.25317-4.74365-4.15064-5.69238s-3.08337-.23719-3.91351-.83014c-.83014-.5929-2.49042-2.84613-4.625-3.3205-2.13464-.47436-2.7276.47437-4.86224-.35577s-1.66028-1.54169-3.43909-4.1507c-1.65417-2.426-2.89673-1.87848-3.15839-1.50372-.03857.10583-.06549.14636-.04357.08063a.33047.33047,0,0,1,.04357-.08063c.17029-.4671.57276-2.2254-1.941-1.93536-3.08331.35577-3.2019,2.72753-4.5064,2.72753s-4.03211-1.8974-4.1507.23719-1.3045.94873-3.43909,1.06732c-1.69024.09393-4.64441.33649-5.80121,1.6109a.717.717,0,0,1-1.11523-.09137,2.2362,2.2362,0,0,0-2.808-1.04517c-2.49042.94873-3.67633,2.96479-4.50647,2.7276s-3.08338-.47436-3.202.71155c0,0-1.66022,1.54169-1.18585,2.96472.47436,1.4231-1.4231.593-2.609,1.18592s1.06732,3.67633-2.49042,4.0321c-3.55768.35577-4.26922,2.7276-4.032,4.26923a9.36754,9.36754,0,0,1-1.06732,5.92956c-1.18592,2.01605-.35578,1.54169.59295,3.20191.94873,1.66028-.71154,3.202.71155,4.74365s.71149,1.89746,2.25318,1.54169c0,0-3.3205,1.42309-3.08332,2.96472.23719,1.54168.94873,3.79492,1.30445,4.0321.35577.23718-2.72754,2.13465.11859,2.609,2.84619.47437.11859,2.13458.11859,3.91345s0,5.69239.94873,5.57379.11859,2.49036.94873,2.96473,1.66028,2.96478,2.84619,1.54168a5.68953,5.68953,0,0,1,1.88465-1.26928c-.69611-4.38538-.54438-8.91175-1.02308-11.5445C1138.45505,84.15022,1141.72183,88.506,1143.62747,84.4225Z"/><path class="cls-10" d="M1215.49765,118.45192s-7.62256-9.52826-13.06726-11.4339c-5.44476-1.90564-8.43933-1.36121-8.98382-5.4447-.54444-4.08356.54449-8.43933-7.07813-7.62262a9.3392,9.3392,0,0,0-1.413.27008l-2.2453.98877c-2.79712,1.88507-3.704,5.55048-3.855,9.45544-.20978,5.42646,1.03784,11.31159.70739,13.51471a33.3496,33.3496,0,0,1-2.5755,8.37641,2.04647,2.04647,0,0,0,1.147,2.75995l2.24524.842s.45025,3.33026,1.09137,7.24694c.47406,2.89618,1.0523,6.11243,1.631,8.54273,1.20465,5.05963,20.68988,4.54291,24.22894,8.43927,1.06134,1.16852,2.269,2.6654,3.44061,4.18738.06153-.18335.09845-.291.09845-.291l-.05481.22907a56.55858,56.55858,0,0,0,2.50366-5.24305c.16547-.39337.30835-.74322.43122-1.04888a65.8563,65.8563,0,0,1-2.33557-16.6178C1211.41416,123.07991,1215.49765,118.45192,1215.49765,118.45192Z"/><path class="cls-1" d="M1184.95548,94.22078a7.3562,7.3562,0,0,0-2.2453.98877Z"/><path class="cls-6" d="M1284.112,191.57539c-4.4389-3.32916-1.10974-24.41412,0-32.73712s-11.65222-27.74328-24.41412-31.62738c-12.7619-3.884-6.65839-10.54248-7.21326-19.97516-.55487-9.43274-5.54864-18.86548-32.73712-27.74334a54.37049,54.37049,0,0,0-12.56946-2.70142c-15.70971-1.22-17.94818,8.80493-17.94818,8.80493s-8.323-4.4389-15.53625,6.10352a15.71631,15.71631,0,0,0-2.16541,4.81695,25.57345,25.57345,0,0,0-.79956,6.3963c-.09277,8.3769,2.65479,18.20343,3.02338,26.92786a37.7186,37.7186,0,0,1-.05841,4.58362,25.62318,25.62318,0,0,1-.70374,4.44122c-2.13568,8.158-7.54785,4.89832-7.06439,15.534.55487,12.207,8.87787,14.98138-.55487,29.96277s.55487,16.646,7.21326,22.19464c6.1734,5.14453,14.72387,11.23327,19.0335,12.09442.80066-2.67267,2.71082-3.89746.468-8.72815a16.46179,16.46179,0,0,1-1.30115-8.75262c.60651-5.73847,3.70276-11.903,8.65149-17.382,7.62262-8.43933,2.41928-32.08987,5.68613-30.72872,1.45648.60687,3.182,2.20293,5.63632,5.55342l.013-.03881c-1.17163-1.522-2.37927-3.01886-3.44061-4.18738-3.53906-3.89636-23.02429-3.37964-24.22894-8.43927-.57868-2.4303-1.15692-5.64655-1.631-8.54273-.64112-3.91668-1.09137-7.24694-1.09137-7.24694l-2.24524-.842a2.04647,2.04647,0,0,1-1.147-2.75995,33.3496,33.3496,0,0,0,2.5755-8.37641c.33045-2.20312-.91717-8.08825-.70739-13.51471.15094-3.905,1.05786-7.57037,3.855-9.45544a7.3562,7.3562,0,0,1,2.2453-.98877,9.3392,9.3392,0,0,1,1.413-.27008c7.62262-.81671,6.53369,3.53906,7.07813,7.62262.54449,4.08349,3.53906,3.53906,8.98382,5.4447,5.4447,1.90564,13.06726,11.4339,13.06726,11.4339s-4.08349,4.628-4.08349,17.15082a65.8563,65.8563,0,0,0,2.33557,16.6178c-.12287.30566-.26575.65551-.43122,1.04888a56.55858,56.55858,0,0,1-2.50366,5.24305l-.02167.09021c-.38171,1.59088-2.19433,9.10669-4.56591,18.32312a32.96873,32.96873,0,0,0-.35138,6.3266c.55487,8.87786,16.09112,32.18225,16.09112,32.18225l4.99378-5.54865s.55487-14.42651,4.439-17.75574c3.884-3.32922,4.43891-6.65838,1.66455-18.3106-2.77429-11.65216,9.98761-17.20087,9.98761-17.20087s19.42035-1.66455,18.86548,8.87787c-.55487,10.54248,7.76813,19.97522,7.76813,19.97522a51.33878,51.33878,0,0,1,8.49676,15.26385,21.21211,21.21211,0,0,1,.936,10.26c-.01978.10382-.03259.20063-.05072.3028.18957,2.59057.36377,5.23382.52563,7.91272a7.719,7.719,0,0,0,5.6286,4.54638C1287.44126,223.20277,1288.55094,194.90462,1284.112,191.57539Z"/><path class="cls-3" d="M1170.72867,102.91267a25.57345,25.57345,0,0,1,.79956-6.3963,13.328,13.328,0,0,1-2.03839-1.20447c-2.99457-2.17791-1.08893-3.53906-2.17786-3.53906s-3.81128-1.90564-2.72235-3.81128c1.08893-1.9057,1.90564-2.99463-.27221-3.26684-2.17792-.27222-2.17792-2.17792-2.17792-4.08356s-1.36115-2.45007-3.26679-1.63342c-1.9057.81671-1.9057,1.3612-3.53906,1.089-1.63342-.27228,1.08893-1.63343-2.45013-2.72235-3.53907-1.089,1.63342-1.089,1.08893-3.81134s-1.36121.27227-3.53907-.27222-1.63342,2.99457-4.08355,2.99457-.81672,4.08355-2.72236,8.16711c-1.90564,4.0835-5.17242-.27228-4.628,2.72235.4787,2.63275.327,7.15912,1.02308,11.5445.0957.60272.20654,1.20294.33813,1.795.49939,2.24731,2.431,6.72723,4.58539,11.0249,2.54321,5.07318,5.39715,9.89215,6.57623,10.48169,2.17792,1.08893,6.26141-.81671,6.26141-.81671s2.28254,5.52612,3.9748,9.63574a15.07146,15.07146,0,0,0,4.4386.73395,17.4172,17.4172,0,0,0,7.55493-1.70343C1173.38346,121.1161,1170.6359,111.28957,1170.72867,102.91267Z"/><path class="cls-7" d="M1192.35764,225.71272c-1.29627-3.48993-1.203-5.51684-.74024-7.06152-4.30963-.86115-12.8601-6.94989-19.0335-12.09442-6.65839-5.54865-16.646-7.21326-7.21326-22.19464s1.10974-17.75574.55487-29.96277c-.48346-10.63568,4.92871-7.376,7.06439-15.534a25.62318,25.62318,0,0,0,.70374-4.44122,37.7186,37.7186,0,0,0,.05841-4.58362,17.4172,17.4172,0,0,1-7.55493,1.70343,15.07146,15.07146,0,0,1-4.4386-.73395c-1.69226-4.10962-3.9748-9.63574-3.9748-9.63574s-4.08349,1.90564-6.26141.81671c-1.17908-.58954-4.033-5.40851-6.57623-10.48169-4.03064.3758-9.77216.94178-12.73767,1.37574-4.86225.71154-6.28534.23718-9.48725,5.09936-3.202,4.86224-5.218,7.70837-8.77569,10.91034-3.55774,3.202-3.79492,5.81091-3.79492,5.81091s-9.36866,4.74366-15.77253,7.94556c-6.40393,3.202-24.42968,2.7276-24.42968,2.7276a7.27578,7.27578,0,0,0-6.39692,1.05359,49.44662,49.44662,0,0,1,8.28736.76172c2.9588,3.2547,3.55054,8.87646,3.55054,8.87646a10.07138,10.07138,0,0,1-4.73407,5.03c-3.5506,1.77527-10.35584-.2959-10.35584-.2959-.21332,0-.908.79083-1.87689,2.02191a3.68958,3.68958,0,0,0,1.68286,2.94983c4.15063,2.01605,8.7757,1.06732,17.67,2.49042,8.89429,1.423,35.34-.94873,50.63813-12.68921,0,0,.71154.94873,2.7276-.11859,2.016-1.06732,2.25317.47436,3.08331,4.38788.83014,3.91345,7.94562,22.53216,4.62506,38.66046s-11.02893,31.30792-9.01288,33.44257c1.43024,1.51428,10.43781,6.72558,17.45862,9.12023-1.59692,13.04712-3.05286,25.34461-3.84924,32.33417,4.47912,1.89783,9.50586,4.02783,14.92266,6.32349,3.34473-.38373,8.94336-.38471,8.94336-.38471s-2.17785-3.53906,1.36121-2.72235,16.60632-1.63342,20.68988-.54449a22.38266,22.38266,0,0,1,10.22455-6.82453C1199.78073,254.26875,1195.61093,234.47157,1192.35764,225.71272Z"/><path class="cls-3" d="M1071.83878,147.19411a49.44662,49.44662,0,0,0-8.28736-.76172c-2.16748.04071-4.08258.38013-4.73144,1.35351-1.73517,2.60279-13.642,7.46369-18.047,6.853l1.5672,8.54376c4.57727-.9812,9.9704-1.92077,9.9704-.89862,0,1.77527-6.80524,8.87641-6.80524,12.13111s-1.18353,5.32586,1.77527,2.6629c2.2478-2.023,8.07874-10.3595,11.14191-14.25153.96893-1.23108,1.66357-2.02191,1.87689-2.02191,0,0,6.80524,2.07117,10.35584.2959a10.07138,10.07138,0,0,0,4.73407-5.03S1074.79758,150.44881,1071.83878,147.19411Z"/><path class="cls-6" d="M1062.367,272.36128l-1.07172-5.8424-18.95514-103.33619-1.5672-8.54376-5.127-27.95056a1.21466,1.21466,0,0,0-1.30762-.99023l-41.25592,3.85052a1.82671,1.82671,0,0,0-1.62146,2.17706l13.693,68.46546a4.10988,4.10988,0,0,1,1.931-1.25257,7.49252,7.49252,0,0,1,5.28168.33057c.361.16663-1.36023,6.82568-4.08948,16.5379l9.05683,45.28406a5.27253,5.27253,0,0,0,3.89142,4.08112l9.68054,2.42016,28.85547,7.21387A2.12506,2.12506,0,0,0,1062.367,272.36128Z"/><path class="cls-7" d="M1046.68888,296.31819c-2.07117-1.18353-18.93641-11.53937-18.93641-11.53937s-30.52978,4.48285-40.98974,3.83716c-1.0174,3.36212-1.61713,5.33515-1.61713,5.33515C991.655,298.6852,1046.68888,296.31819,1046.68888,296.31819Z"/><path class="cls-7" d="M1012.36667,199.26918a7.49252,7.49252,0,0,0-5.28168-.33057,4.10988,4.10988,0,0,0-1.931,1.25257,4.24456,4.24456,0,0,0-.807,1.27569c-3.41144,8.80725-19.88294,51.4433-25.4654,67.96332-.866,2.56262-1.47241,4.50287-1.72479,5.58453-2.07116,8.87647-.59179,10.65174-.59179,10.65174,3.2547,10.35583,8.58056,8.28467,8.58056,8.28467s.59973-1.973,1.61713-5.33515c1.36273-4.5036,3.47845-11.512,5.925-19.67346,5.03534-16.79761,11.464-38.45447,15.58947-53.13544C1011.00644,206.09486,1012.72769,199.43581,1012.36667,199.26918Z"/><path class="cls-1" d="M1128.28008,232.0305c-2.01606-2.13464,5.69232-17.31427,9.01287-33.44256s-3.79492-34.747-4.62506-38.66046c-.83014-3.91352-1.06732-5.4552-3.08331-4.38788-2.016,1.06732-2.7276.11859-2.7276.11859-15.29816,11.74048-41.74384,14.11224-50.63812,12.68921-8.89429-1.4231-13.51935-.47437-17.67-2.49042a3.68961,3.68961,0,0,1-1.68286-2.94983c-3.06317,3.892-8.8941,12.22852-11.1419,14.25153-2.9588,2.663-1.77527.59179-1.77527-2.6629s6.80523-10.35584,6.80523-12.13111c0-1.02215-5.39312-.08258-9.97039.89862l18.95514,103.33618,60.82556-2.14874s8.37549,3.5473,21.32507,9.03418c.79639-6.98956,2.25232-19.28705,3.84924-32.33417C1138.71788,238.75609,1129.71031,233.54479,1128.28008,232.0305Z"/><path class="cls-1" d="M1015.77751,261.17174l-9.05682-45.28406c-4.12549,14.681-10.55414,36.33783-15.58948,53.13544l38.21826-1.3501-9.68054-2.42016A5.27257,5.27257,0,0,1,1015.77751,261.17174Z"/><path class="cls-1" d="M1277.56175,211.07634a21.21211,21.21211,0,0,0-.936-10.26c.32513,3.40192.61944,6.93231.88525,10.56281C1277.52916,211.277,1277.542,211.18016,1277.56175,211.07634Z"/><path class="cls-8" d="M1209.21983,158.66155l-.00512-.0066-.013.03882Z"/><path class="cls-8" d="M1278.03667,219.29186c-.16187-2.6789-.33606-5.32215-.52564-7.91272A13.638,13.638,0,0,0,1278.03667,219.29186Z"/><path class="cls-8" d="M1209.25835,158.59307l.05481-.22907s-.03693.10761-.09845.291l.00512.0066Z"/><path class="cls-8" d="M1209.23668,158.68328l.02167-.09021-.03852.06848Z"/><path class="cls-8" d="M1278.03667,219.29186a13.638,13.638,0,0,1-.52564-7.91272c-.26581-3.6305-.56012-7.16089-.88525-10.56281a51.33854,51.33854,0,0,0-8.49677-15.26385s-8.323-9.43274-7.76812-19.97522c.55487-10.54242-18.86548-8.87787-18.86548-8.87787s-12.7619,5.5487-9.98761,17.20087c2.77435,11.65222,2.21948,14.98138-1.66455,18.3106-3.8841,3.32923-4.439,17.75574-4.439,17.75574l-4.99377,5.54865s-15.53626-23.30439-16.09113-32.18226a32.97021,32.97021,0,0,1,.35138-6.32659c2.37158-9.21644,4.18421-16.73224,4.56592-18.32312l-.01685-.02173c-.006.0108-.01055.042-.01812.03222-2.69909-3.47288-4.17985-4.94655-5.63633-5.55342-3.26685-1.36115,1.9365,22.28939-5.68612,30.72872-4.94873,5.47894-8.045,11.64349-8.65149,17.382a16.46162,16.46162,0,0,0,1.30115,8.75263c2.24279,4.83069.33264,6.05548-.468,8.72815-.46277,1.54468-.556,3.57159.74023,7.06152,3.2533,8.75885,7.4231,28.556,7.23,43.539a22.38266,22.38266,0,0,0-10.22454,6.82453c4.08349,1.089,6.26141,14.15625,6.53363,15.24524l-4.0835.27221s-1.88513.15161-4.72125.30976q4.29684,1.8219,8.66284,3.67334c7.81207,3.31286,15.71936,6.66693,23.43268,9.93988,27.7807,11.78808,53.03137,22.51825,62.13958,26.43353C1279.65459,322.62145,1290.6531,275.0245,1278.03667,219.29186Z"/><path class="cls-8" d="M1279.77055,332.03081c-9.10821-3.91528-34.35888-14.64545-62.13958-26.43353-7.71332-3.273-15.62061-6.627-23.43268-9.93988q-4.35937-1.84873-8.66284-3.67334c-7.91577.44146-23.30725.93457-26.3136-1.671-2.30945-2.00147-8.2843-.08368-11.9784.27227-2.83782.27344-3.434-1.12463-5.4447-1.3612-4.628-.54443,0-3.81128,0-3.81128s10.88941-4.90027,13.884-5.4447c.32977-.05994.71545-.11231,1.12933-.15979-5.41681-2.29566-10.44354-4.42566-14.92267-6.32349-12.94958-5.48688-21.32507-9.03418-21.32507-9.03418l-60.82556,2.14874,1.07171,5.84241a2.12506,2.12506,0,0,1-2.60559,2.445l-28.85547-7.21387-38.21826,1.3501c-2.44653,8.1615-4.56225,15.16986-5.925,19.67346,10.46.64569,40.98975-3.83716,40.98975-3.83716s16.86523,10.35584,18.9364,11.53937c0,0-55.03387,2.367-61.54327-2.36707,0,0-5.32587,2.07117-8.58057-8.28466,0,0-1.47937-1.77527.5918-10.65174.25238-1.08166.85882-3.02191,1.72479-5.58453l-57.1261,2.01807L963.7567,339.86l319.60449-6.26141C1283.29088,333.55168,1282.02483,332.99986,1279.77055,332.03081Z"/><path class="cls-8" d="M1187.80657,276.15685c-4.08356-1.08893-17.15082,1.3612-20.68989.54449s-1.3612,2.72235-1.3612,2.72235-5.59863.001-8.94336.38471c-.41388.04748-.79956.09985-1.12933.15979-2.99463.54443-13.884,5.4447-13.884,5.4447s-4.628,3.26685,0,3.81128c2.01068.23657,2.60688,1.63464,5.4447,1.3612,3.6941-.356,9.66895-2.27374,11.9784-.27227,3.00635,2.60553,18.39783,2.11242,26.3136,1.671,2.83612-.15815,4.72125-.30976,4.72125-.30976l4.0835-.27221C1194.068,290.3131,1191.89006,277.24584,1187.80657,276.15685Z"/><path class="cls-8" d="M1142.071,84.5031c1.90564-4.08356.27228-8.16711,2.72235-8.16711,2.45013,0,1.9057-3.53907,4.08356-2.99457s2.99457-2.45014,3.53906.27221-4.628,2.72236-1.08893,3.81134c3.53906,1.08893.81671,2.45008,2.45014,2.72236,1.63336.27221,1.63336-.27228,3.53906-1.089,1.90564-.81665,3.26678-.27222,3.26678,1.63342s0,3.81134,2.17792,4.08356c2.17786.27221,1.36115,1.36114.27222,3.26684-1.08893,1.90564,1.63342,3.81128,2.72235,3.81128s-.81671,1.36115,2.17786,3.53906a13.32705,13.32705,0,0,0,2.03839,1.20447,15.71629,15.71629,0,0,1,2.1654-4.817c7.21326-10.54242,15.53626-6.10352,15.53626-6.10352s2.23846-10.025,17.94818-8.80493c.01043-1.8147-.28571-3.34094-1.20862-3.80237-2.72241-1.36121-4.90027-.81671-4.08356-1.90564,0,0,2.17786-3.53906,1.36115-5.17248-.81665-1.63343-2.72235-1.089-2.17786-2.72236.5445-1.63342,4.08356-.27227.5445-3.53906,0,0-1.80872-1.55285-3.23182-1.31567,0,0-2.25317-4.74365-4.15063-5.69238s-3.08337-.23719-3.91351-.83014c-.83014-.5929-2.49042-2.84613-4.625-3.3205-2.13465-.47436-2.7276.47437-4.86225-.35577s-1.66028-1.54169-3.43908-4.1507c-1.65418-2.426-2.89673-1.87848-3.15839-1.50372-.03858.10583-.06549.14636-.04358.08062a.33033.33033,0,0,1,.04358-.08062c.17029-.4671.57275-2.22541-1.941-1.93537-3.08331.35578-3.20191,2.72754-4.50641,2.72754s-4.0321-1.8974-4.1507.23719c-.11859,2.13464-1.3045.94873-3.43908,1.06732-1.69025.09393-4.64441.33648-5.80121,1.6109a.717.717,0,0,1-1.11524-.09137,2.23619,2.23619,0,0,0-2.808-1.04517c-2.49042.94873-3.67633,2.96479-4.50647,2.7276s-3.08337-.47436-3.202.71155c0,0-1.66022,1.54169-1.18586,2.96472.47437,1.4231-1.42309.593-2.609,1.18592s1.06732,3.67633-2.49042,4.0321c-3.55768.35577-4.26923,2.7276-4.03205,4.26923a9.36741,9.36741,0,0,1-1.06732,5.92956c-1.18591,2.016-.35577,1.54169.593,3.20191.94873,1.66027-.71155,3.202.71155,4.74365,1.423,1.54168.71148,1.89746,2.25317,1.54168,0,0-3.32049,1.4231-3.08331,2.96473.23718,1.54168.94873,3.79492,1.30444,4.0321.35578.23718-2.72754,2.13464.11859,2.609,2.84619.47436.11859,2.13458.11859,3.91345s0,5.69238.94873,5.57379.1186,2.49036.94873,2.96473,1.66028,2.96478,2.8462,1.54168a5.68939,5.68939,0,0,1,1.88464-1.26929c-.69611-4.38537-.54437-8.91174-1.02307-11.54449C1136.89855,84.23082,1140.16533,88.5866,1142.071,84.5031Z"/><path class="cls-8" d="M1172.6765,42.56078a.33033.33033,0,0,0-.04358.08062C1172.611,42.70714,1172.63792,42.66661,1172.6765,42.56078Z"/><path class="cls-8" d="M1213.94115,118.53252s-7.62256-9.52826-13.06726-11.4339c-5.44477-1.90564-8.43933-1.36121-8.98383-5.4447-.54443-4.08356.5445-8.43933-7.07812-7.62262a9.33957,9.33957,0,0,0-1.413.27008l-2.2453.98877c-2.79712,1.88507-3.704,5.55047-3.855,9.45544-.20978,5.42645,1.03784,11.31159.7074,13.51471a33.3496,33.3496,0,0,1-2.5755,8.37641,2.04646,2.04646,0,0,0,1.147,2.75994l2.24524.842s.45026,3.33027,1.09137,7.24695c.47406,2.89618,1.05231,6.11243,1.631,8.54273,1.20465,5.05963,20.68988,4.5429,24.22894,8.43927,1.06134,1.16851,2.269,2.6654,3.44062,4.18737.06152-.18334.09845-.291.09845-.291l-.05481.22907A56.56373,56.56373,0,0,0,1211.762,153.35c.16547-.39337.30835-.74322.43121-1.04889a65.85667,65.85667,0,0,1-2.33557-16.61779C1209.85765,123.16051,1213.94115,118.53252,1213.94115,118.53252Z"/><path class="cls-8" d="M1183.399,94.30138a7.35631,7.35631,0,0,0-2.2453.98877Z"/><path class="cls-8" d="M1282.55553,191.656c-4.43891-3.32916-1.10974-24.41412,0-32.73712s-11.65222-27.74329-24.41413-31.62738c-12.7619-3.884-6.65838-10.54248-7.21325-19.97516-.55487-9.43274-5.54865-18.86548-32.73712-27.74335a54.37093,54.37093,0,0,0-12.56946-2.70141c-15.70972-1.22-17.94818,8.80493-17.94818,8.80493s-8.323-4.4389-15.53626,6.10352a15.71629,15.71629,0,0,0-2.1654,4.817,25.57293,25.57293,0,0,0-.79956,6.3963c-.09278,8.37689,2.65478,18.20343,3.02337,26.92786a37.71658,37.71658,0,0,1-.05841,4.58362,25.62231,25.62231,0,0,1-.70373,4.44122c-2.13569,8.158-7.54786,4.89832-7.0644,15.534.55487,12.207,8.87787,14.98138-.55487,29.96277s.55487,16.646,7.21326,22.19464c6.1734,5.14453,14.72388,11.23327,19.03351,12.09442.80066-2.67267,2.71081-3.89746.468-8.72815a16.46162,16.46162,0,0,1-1.30115-8.75263c.60651-5.73846,3.70276-11.903,8.65149-17.382,7.62262-8.43933,2.41927-32.08987,5.68612-30.72872,1.45648.60687,3.182,2.20292,5.63633,5.55342l.013-.03882c-1.17163-1.522-2.37928-3.01886-3.44062-4.18737-3.53906-3.89637-23.02429-3.37964-24.22894-8.43927-.57867-2.4303-1.15692-5.64655-1.631-8.54273-.64111-3.91668-1.09137-7.24695-1.09137-7.24695l-2.24524-.842a2.04646,2.04646,0,0,1-1.147-2.75994,33.3496,33.3496,0,0,0,2.5755-8.37641c.33044-2.20312-.91718-8.08826-.7074-13.51471.15094-3.905,1.05786-7.57037,3.855-9.45544a7.35631,7.35631,0,0,1,2.2453-.98877,9.33957,9.33957,0,0,1,1.413-.27008c7.62262-.81671,6.53369,3.53906,7.07812,7.62262.5445,4.08349,3.53906,3.53906,8.98383,5.4447,5.4447,1.90564,13.06726,11.4339,13.06726,11.4339s-4.0835,4.628-4.0835,17.15082a65.85667,65.85667,0,0,0,2.33557,16.61779c-.12286.30567-.26574.65552-.43121,1.04889a56.56373,56.56373,0,0,1-2.50366,5.24305l-.02167.09021c-.38171,1.59088-2.19434,9.10668-4.56592,18.32312a32.97021,32.97021,0,0,0-.35138,6.32659c.55487,8.87787,16.09113,32.18226,16.09113,32.18226l4.99377-5.54865s.55487-14.42651,4.439-17.75574c3.884-3.32922,4.4389-6.65838,1.66455-18.3106-2.77429-11.65217,9.98761-17.20087,9.98761-17.20087s19.42035-1.66455,18.86548,8.87787c-.55487,10.54248,7.76812,19.97522,7.76812,19.97522a51.33854,51.33854,0,0,1,8.49677,15.26385,21.21211,21.21211,0,0,1,.936,10.26c-.01977.10382-.03259.20062-.05072.3028.18958,2.59057.36377,5.23382.52564,7.91272a7.719,7.719,0,0,0,5.6286,4.54638C1285.88475,223.28337,1286.99443,194.98522,1282.55553,191.656Z"/><path class="cls-8" d="M1169.17217,102.99327a25.57293,25.57293,0,0,1,.79956-6.3963,13.32705,13.32705,0,0,1-2.03839-1.20447c-2.99457-2.17791-1.08893-3.53906-2.17786-3.53906s-3.81128-1.90564-2.72235-3.81128c1.08893-1.9057,1.90564-2.99463-.27222-3.26684-2.17792-.27222-2.17792-2.17792-2.17792-4.08356s-1.36114-2.45007-3.26678-1.63342c-1.9057.81671-1.9057,1.3612-3.53906,1.089-1.63343-.27228,1.08892-1.63343-2.45014-2.72236-3.53906-1.089,1.63342-1.089,1.08893-3.81134s-1.36121.27228-3.53906-.27221-1.63343,2.99457-4.08356,2.99457c-2.45007,0-.81671,4.08355-2.72235,8.16711-1.90564,4.0835-5.17242-.27228-4.628,2.72235.4787,2.63275.327,7.15912,1.02307,11.54449.0957.60273.20654,1.203.33813,1.795.49939,2.24731,2.431,6.72723,4.58539,11.0249,2.54322,5.07318,5.39716,9.89215,6.57624,10.48169,2.17791,1.08893,6.26141-.81671,6.26141-.81671s2.28253,5.52612,3.97479,9.63574a15.07146,15.07146,0,0,0,4.4386.73395,17.4172,17.4172,0,0,0,7.55493-1.70343C1171.82695,121.1967,1169.07939,111.37016,1169.17217,102.99327Z"/><path class="cls-8" d="M1190.80113,225.79332c-1.29626-3.48993-1.203-5.51684-.74023-7.06152-4.30963-.86115-12.86011-6.94989-19.03351-12.09442-6.65839-5.54865-16.646-7.21326-7.21326-22.19464s1.10974-17.75574.55487-29.96277c-.48346-10.63568,4.92871-7.376,7.0644-15.534a25.62231,25.62231,0,0,0,.70373-4.44122,37.71658,37.71658,0,0,0,.05841-4.58362,17.4172,17.4172,0,0,1-7.55493,1.70343,15.07146,15.07146,0,0,1-4.4386-.73395c-1.69226-4.10962-3.97479-9.63574-3.97479-9.63574s-4.0835,1.90564-6.26141.81671c-1.17908-.58954-4.033-5.40851-6.57624-10.48169-4.03064.37579-9.77215.94177-12.73767,1.37573-4.86224.71155-6.28534.23719-9.48724,5.09937-3.202,4.86224-5.218,7.70837-8.7757,10.91034-3.55774,3.202-3.79492,5.81091-3.79492,5.81091s-9.36865,4.74365-15.77252,7.94556c-6.40393,3.202-24.42969,2.7276-24.42969,2.7276a7.27576,7.27576,0,0,0-6.39691,1.05359,49.44643,49.44643,0,0,1,8.28735.76172c2.9588,3.2547,3.55054,8.87646,3.55054,8.87646a10.07132,10.07132,0,0,1-4.73407,5.03c-3.5506,1.77527-10.35583-.2959-10.35583-.2959-.21332,0-.908.79083-1.8769,2.02191a3.68961,3.68961,0,0,0,1.68286,2.94983c4.15064,2.01605,8.7757,1.06732,17.67,2.49042,8.89428,1.423,35.34-.94873,50.63812-12.68921,0,0,.71155.94873,2.7276-.11859,2.016-1.06732,2.25317.47436,3.08331,4.38788.83014,3.91345,7.94562,22.53216,4.62506,38.66046s-11.02893,31.30792-9.01287,33.44256c1.43023,1.51429,10.4378,6.72559,17.45861,9.12024-1.59692,13.04712-3.05285,25.34461-3.84924,32.33417,4.47913,1.89783,9.50586,4.02783,14.92267,6.32349,3.34473-.38373,8.94336-.38471,8.94336-.38471s-2.17786-3.53906,1.3612-2.72235,16.60633-1.63342,20.68989-.54449a22.38266,22.38266,0,0,1,10.22454-6.82453C1198.22423,254.34935,1194.05443,234.55217,1190.80113,225.79332Z"/><path class="cls-8" d="M1070.28227,147.27471a49.44643,49.44643,0,0,0-8.28735-.76172c-2.16748.04071-4.08258.38012-4.73145,1.35351-1.73516,2.60279-13.642,7.46369-18.047,6.853l1.5672,8.54376c4.57727-.9812,9.97039-1.92077,9.97039-.89862,0,1.77527-6.80523,8.87641-6.80523,12.13111s-1.18353,5.32586,1.77527,2.6629c2.2478-2.023,8.07873-10.3595,11.1419-14.25153.96894-1.23108,1.66358-2.02191,1.8769-2.02191,0,0,6.80523,2.07117,10.35583.2959a10.07132,10.07132,0,0,0,4.73407-5.03S1073.24107,150.52941,1070.28227,147.27471Z"/><path class="cls-8" d="M1060.81053,272.44188l-1.07171-5.84241-18.95514-103.33618-1.5672-8.54376-5.127-27.95056a1.21466,1.21466,0,0,0-1.30761-.99024l-41.25592,3.85053a1.82671,1.82671,0,0,0-1.62146,2.17706l13.69305,68.46546a4.10978,4.10978,0,0,1,1.931-1.25257,7.49252,7.49252,0,0,1,5.28168.33057c.361.16662-1.36023,6.82568-4.08948,16.5379l9.05682,45.28406a5.27257,5.27257,0,0,0,3.89142,4.08112l9.68054,2.42016,28.85547,7.21387A2.12506,2.12506,0,0,0,1060.81053,272.44188Z"/><path class="cls-8" d="M1045.13237,296.39879c-2.07117-1.18353-18.9364-11.53937-18.9364-11.53937s-30.52979,4.48285-40.98975,3.83716c-1.01739,3.36212-1.61712,5.33514-1.61712,5.33514C990.0985,298.76579,1045.13237,296.39879,1045.13237,296.39879Z"/><path class="cls-8" d="M1010.81017,199.34978a7.49252,7.49252,0,0,0-5.28168-.33057,4.10978,4.10978,0,0,0-1.931,1.25257,4.24459,4.24459,0,0,0-.807,1.27569c-3.41144,8.80725-19.88293,51.4433-25.46539,67.96332-.866,2.56262-1.47241,4.50287-1.72479,5.58453-2.07117,8.87647-.5918,10.65174-.5918,10.65174,3.2547,10.35583,8.58057,8.28466,8.58057,8.28466s.59973-1.973,1.61712-5.33514c1.36274-4.5036,3.47846-11.512,5.925-19.67346,5.03534-16.79761,11.464-38.45447,15.58948-53.13544C1009.44994,206.17546,1011.17119,199.5164,1010.81017,199.34978Z"/><path class="cls-8" d="M1194.3402,291.40209s32.97265-5.76609,44.72882-11.15434,24.492-13.22569,24.492-43.106-.48984-50.45356-.48984-50.45356"/><path class="cls-8" d="M1198.03111,269.33232s28.12644-14.93564,30.78869-20.69777c8.48585-18.36666.45241-50.68.45241-50.68"/><path class="cls-8" d="M1145.73869,241.15074s2.14572-32.56955,4.07933-41.68514,4.69591-64.08536,2.7623-73.20095l-.55246-4.14345"/><line class="cls-8" x1="1160.20201" y1="130.89061" x2="1152.58032" y2="126.26465"/><path class="cls-8" d="M1092.82152,142.7318s10.31362-4.86549,30.75464,3.69764"/><path class="cls-8" d="M1124.12862,114.663c.82869,0,9.94428,2.7623,10.49674,8.56313"/><path class="cls-8" d="M1141.79875,289.22417s14.09633-6.61333,20.72585-5.78464"/><path class="cls-8" d="M1157.27623,289.24036a44.77733,44.77733,0,0,1,14.64019-1.10492"/><path class="cls-8" d="M1126.857,155.65819c.68971-1.06395,1.98774-1.9293,2.63675-7.12139"/><path class="cls-8" d="M1156.22722,121.25487s7.8804-2.57255,8.09674-5.38493"/><path class="cls-8" d="M1157.83386,111.11053s-10.60051,3.24505-11.46586-.21634"/><path class="cls-8" d="M1154.5888,101.159s2.37971,4.75941-.86535,4.75941-1.51435.43268-4.32673.43268-4.75941-.21634-4.1104-2.596,3.46139-5.62475,3.02871-8.65347"/><path class="cls-8" d="M1183.3616,138.80164a6.504,6.504,0,0,0,5.19209-5.19208"/><path class="cls-8" d="M1213.94115,118.53252c1.65465-3.74427,2.52-7.63833-1.37407-15.21012"/><circle class="cls-7" cx="1185.13244" cy="115.8298" r="1.33816"/><circle class="cls-7" cx="1158.44272" cy="94.66893" r="1.33816"/><circle class="cls-7" cx="1143.33929" cy="94.45259" r="1.33816"/></g></svg>