<svg id="Layer_1" data-name="Layer 1" xmlns="http://www.w3.org/2000/svg" xmlns:xlink="http://www.w3.org/1999/xlink" viewBox="0 0 1300 294"><defs><style>.cls-1,.cls-4,.cls-5{fill:none;}.cls-2{clip-path:url(#clip-path);}.cls-11,.cls-13,.cls-3,.cls-9{fill:#428252;}.cls-4{stroke:#5f9c70;}.cls-11,.cls-13,.cls-4,.cls-5,.cls-9{stroke-miterlimit:10;}.cls-11,.cls-13,.cls-5,.cls-9{stroke:#0a5d2b;}.cls-6,.cls-8{fill:#0a5d2b;}.cls-7{fill:#5f9c70;}.cls-8{font-size:9.7107px;font-family:LibreFranklin-SemiBold, Libre Franklin;font-weight:600;}.cls-9{stroke-width:0.80922px;}.cls-10{fill:#99c5a6;}.cls-12{fill:#bfdbc7;}.cls-13{stroke-width:0.65217px;}.cls-14{fill:#cce1d1;}</style><clipPath id="clip-path"><rect class="cls-1" width="1300" height="294"/></clipPath></defs><g class="cls-2"><rect class="cls-3" width="1300" height="294"/><path class="cls-4" d="M1029.37326,79.57624l22.29633,61.48451a1.03631,1.03631,0,0,0,1.76732.31378l42.099-50.05144a1.03632,1.03632,0,0,0-.61192-1.68743l-64.39531-11.43307A1.03632,1.03632,0,0,0,1029.37326,79.57624Z"/><rect class="cls-4" x="533.85263" y="273.2157" width="52.99823" height="52.99823" rx="2.36958" transform="translate(-46.29962 110.51341) rotate(-10.81938)"/><rect class="cls-4" x="982.29454" y="236.46243" width="34.60656" height="34.60656" rx="1.54728" transform="translate(-25.85887 363.4535) rotate(-20.35004)"/><path class="cls-4" d="M331.61286-1.48629H296.82661L275.56843,16.1055a1.03631,1.03631,0,0,0,.29962,1.76978l61.304,22.78809a1.03627,1.03627,0,0,0,1.38281-1.14435Z"/><circle class="cls-4" cx="796.28591" cy="5.85161" r="22.59069"/><circle class="cls-4" cx="77.12179" cy="227.05199" r="53.00195"/><circle class="cls-4" cx="1194.86053" cy="262.14443" r="46.39308"/><rect class="cls-3" x="225.74375" y="209.52517" width="103.24831" height="64.01395" rx="3.5806"/><rect class="cls-3" x="225.74375" y="135.3933" width="103.24831" height="64.01395" rx="3.5806"/><rect class="cls-3" x="225.74375" y="61.26143" width="103.24831" height="64.01395" rx="3.5806"/><rect class="cls-5" x="226.11691" y="209.15201" width="103.24831" height="64.01395" rx="3.5806"/><rect class="cls-5" x="226.11691" y="135.02014" width="103.24831" height="64.01395" rx="3.5806"/><rect class="cls-5" x="226.11691" y="60.88827" width="103.24831" height="64.01395" rx="3.5806"/><path class="cls-6" d="M281.99726,188.01612a.32448.32448,0,0,1-.29927-.19855,6.83318,6.83318,0,0,1-.54051-2.676.32453.32453,0,1,1,.64906,0,6.187,6.187,0,0,0,.48916,2.42359.32521.32521,0,0,1-.29844.45093Z"/><path class="cls-6" d="M293.86944,188.77943a.33307.33307,0,0,1-.13815-.03124.32445.32445,0,0,1-.15536-.43161,6.18419,6.18419,0,0,0,.54135-1.86456.32463.32463,0,0,1,.64413.0814,6.8318,6.8318,0,0,1-.59808,2.05941A.32508.32508,0,0,1,293.86944,188.77943Z"/><path class="cls-6" d="M294.58345,185.4663a.32456.32456,0,0,1-.32436-.3247,6.21826,6.21826,0,0,0-3.80309-5.73714.32464.32464,0,1,1,.25319-.59788,6.86639,6.86639,0,0,1,4.19858,6.335A.32455.32455,0,0,1,294.58345,185.4663Z"/><path class="cls-6" d="M281.84434,183.31319a.31533.31533,0,0,1-.10687-.01847.32412.32412,0,0,1-.19977-.41314,6.88134,6.88134,0,0,1,6.49514-4.61555.32472.32472,0,0,1,0,.64944,6.2313,6.2313,0,0,0-5.88186,4.17985A.32631.32631,0,0,1,281.84434,183.31319Z"/><path class="cls-6" d="M282.83048,186.10509a.32506.32506,0,0,1-.32188-.2861,5.57487,5.57487,0,0,1,2.72859-5.48989.32448.32448,0,0,1,.32638.56092,4.93574,4.93574,0,0,0-2.44661,4.25158,5.0119,5.0119,0,0,0,.0362.59931.325.325,0,0,1-.28282.36174A.33019.33019,0,0,1,282.83048,186.10509Z"/><path class="cls-6" d="M291.253,181.33191a.32159.32159,0,0,1-.19935-.06865,4.86771,4.86771,0,0,0-3.02083-1.03754,4.93522,4.93522,0,0,0-.71073.05119.3246.3246,0,1,1-.09332-.64246,5.60037,5.60037,0,0,1,.80405-.05758,5.51186,5.51186,0,0,1,3.42,1.17442.32465.32465,0,0,1-.19981.58062Z"/><path class="cls-6" d="M291.47872,191.0378a.32453.32453,0,0,1-.25074-.53028c1.68613-2.05692,2.49632-5.62534.93226-8.037a.32449.32449,0,1,1,.54425-.3535,6.62822,6.62822,0,0,1,.86323,4.548,8.86364,8.86364,0,0,1-1.83746,4.25444A.32486.32486,0,0,1,291.47872,191.0378Z"/><path class="cls-6" d="M288.36865,187.439a.32444.32444,0,0,1-.32432-.312,8.16247,8.16247,0,0,0-.26514-1.80042.32464.32464,0,1,1,.62726-.16769,8.83223,8.83223,0,0,1,.28652,1.94348.32478.32478,0,0,1-.31241.33666Z"/><path class="cls-6" d="M287.61435,192.01691a.32425.32425,0,0,1-.30129-.44517,11.229,11.229,0,0,0,.77769-3.33779.32473.32473,0,0,1,.64785.04563,11.89709,11.89709,0,0,1-.82295,3.53348A.32465.32465,0,0,1,287.61435,192.01691Z"/><path class="cls-6" d="M282.90734,189.54525a.33747.33747,0,0,1-.08961-.01275.32448.32448,0,0,1-.2228-.4016,5.019,5.019,0,0,0,.14551-1.98213.32471.32471,0,0,1,.64456-.07934,5.67068,5.67068,0,0,1-.16609,2.24027A.32444.32444,0,0,1,282.90734,189.54525Z"/><path class="cls-6" d="M292.00239,185.4663a.32488.32488,0,0,1-.32474-.3247,3.647,3.647,0,0,0-1.58583-3.00813.3246.3246,0,1,1,.36747-.5352,4.29746,4.29746,0,0,1,1.86784,3.54333A.32488.32488,0,0,1,292.00239,185.4663Z"/><path class="cls-6" d="M284.06324,185.4663a.32488.32488,0,0,1-.32474-.3247,4.29948,4.29948,0,0,1,4.29434-4.29434,4.3767,4.3767,0,0,1,.44062.0226.32479.32479,0,0,1-.06617.6462,3.53747,3.53747,0,0,0-.37445-.01974,3.64921,3.64921,0,0,0-3.64486,3.64528A.32488.32488,0,0,1,284.06324,185.4663Z"/><path class="cls-6" d="M283.96171,190.59794a.3243.3243,0,0,1-.30378-.43856,6.25584,6.25584,0,0,0,.3971-2.20122,6.3198,6.3198,0,0,0-.17224-1.46586.32442.32442,0,1,1,.631-.15124,6.96362,6.96362,0,0,1-.24826,4.04642A.32418.32418,0,0,1,283.96171,190.59794Z"/><path class="cls-6" d="M288.8948,192.03914a.32477.32477,0,0,1-.18373-.59237,6.93257,6.93257,0,0,0,2.95715-4.85294.32456.32456,0,0,1,.6433.08675,7.57373,7.57373,0,0,1-3.23256,5.3014A.32744.32744,0,0,1,288.8948,192.03914Z"/><path class="cls-6" d="M285.6976,184.24958a.32508.32508,0,0,1-.28775-.47518,2.95778,2.95778,0,0,1,4.61332-.81966.3246.3246,0,1,1-.437.48014,2.30875,2.30875,0,0,0-3.60087.64039A.32385.32385,0,0,1,285.6976,184.24958Z"/><path class="cls-6" d="M285.81432,188.60146a.32469.32469,0,0,1-.3247-.32394,10.39737,10.39737,0,0,0-.37408-2.74173.32456.32456,0,0,1,.62562-.17308,11.0527,11.0527,0,0,1,.3979,2.91359.3248.3248,0,0,1-.3239.32516Z"/><path class="cls-6" d="M285.19733,191.365a.32462.32462,0,0,1-.29511-.45873,5.85,5.85,0,0,0,.44555-1.46914.32472.32472,0,1,1,.64085.10523,6.49817,6.49817,0,0,1-.49572,1.63192A.32433.32433,0,0,1,285.19733,191.365Z"/><path class="cls-6" d="M290.94145,187.14755l-.021-.00042a.32487.32487,0,0,1-.30336-.34406,5.62455,5.62455,0,0,0-.30542-2.23039.32476.32476,0,0,1,.61291-.215,6.29089,6.29089,0,0,1,.34036,2.48568A.324.324,0,0,1,290.94145,187.14755Z"/><path class="cls-6" d="M286.34131,191.79576a.3242.3242,0,0,1-.29679-.45624,8.05887,8.05887,0,0,0,.38641-1.05807.32483.32483,0,0,1,.624.18087,8.96381,8.96381,0,0,1-.41721,1.1415A.32446.32446,0,0,1,286.34131,191.79576Z"/><path class="cls-6" d="M286.95544,189.68172a.32546.32546,0,0,1-.32146-.37324,7.27,7.27,0,0,0,.06659-1.54558,7.34718,7.34718,0,0,0-.08427-.737.32441.32441,0,0,1,.64-.10645,7.93927,7.93927,0,0,1,.01974,2.48605A.32487.32487,0,0,1,286.95544,189.68172Z"/><path class="cls-6" d="M289.80488,187.56106a.32489.32489,0,0,1-.32474-.32474c0-1.088-.30252-3.14623-1.4473-3.14623a1.05267,1.05267,0,0,0-1.05151,1.05151c0,.0197.00042.03944.00164.05876a.32463.32463,0,1,1-.64822.03658c-.00164-.03208-.00249-.06331-.00249-.09534a1.70221,1.70221,0,0,1,1.70058-1.70015c1.5476,0,2.09636,2.04417,2.09636,3.79487A.32453.32453,0,0,1,289.80488,187.56106Z"/><path class="cls-6" d="M289.18541,190.48286a.32425.32425,0,0,1-.29638-.45628,6.79632,6.79632,0,0,0,.50974-1.73138.32466.32466,0,0,1,.64166.0995,7.46968,7.46968,0,0,1-.55823,1.8958A.3243.3243,0,0,1,289.18541,190.48286Z"/><path class="cls-6" d="M248.03273,143.54645a.54453.54453,0,0,0-.16858-.10592l-.27339-.10671a18.09861,18.09861,0,0,0-13.2134-.00014l-.06347.02463a1.23756,1.23756,0,0,0-.79168,1.15961v10.24972a1.147,1.147,0,0,0,.51337.95766l6.33865,4.21031a1.09859,1.09859,0,0,0,1.21857,0l6.31842-4.19692a1.19232,1.19232,0,0,0,.53391-.99568V144.07638A.54735.54735,0,0,0,248.03273,143.54645Z"/><path class="cls-7" d="M238.11057,154.2856h5.74618a.47378.47378,0,0,0,.47343-.47316V149.1948a.47375.47375,0,0,0-.47343-.473h-4.34919v-.49053a1.42606,1.42606,0,0,1,1.45312-1.394,1.45745,1.45745,0,0,1,1.39153.9931.3667.3667,0,0,0,.53281.2077l.18853-.10906a.3666.3666,0,0,0,.16365-.4358,2.40768,2.40768,0,0,0-4.67564.738v.49053h-.451a.47375.47375,0,0,0-.47344.473v4.61764A.47378.47378,0,0,0,238.11057,154.2856Zm2.39993-3.48459a.47316.47316,0,1,1,.94631,0v1.40537a.47316.47316,0,0,1-.94631,0Z"/><rect class="cls-5" x="241.43713" y="222.3691" width="33.58389" height="30.59865" rx="4.03473"/><line class="cls-5" x1="283.86417" y1="224.11766" x2="315.58228" y2="224.11766"/><line class="cls-5" x1="291.45503" y1="229.1175" x2="307.99142" y2="229.1175"/><line class="cls-5" x1="285.14113" y1="234.11733" x2="314.30532" y2="234.11733"/><path class="cls-5" d="M293.0335,239.11717H306.413"/><path class="cls-5" d="M288.97457,244.117h21.49731"/><line class="cls-5" x1="285.66729" y1="249.11685" x2="313.77916" y2="249.11685"/><line class="cls-5" x1="289.95172" y1="254.11668" x2="309.49473" y2="254.11668"/><line class="cls-5" x1="305.05641" y1="136.70828" x2="305.05641" y2="197.14129"/><line class="cls-5" x1="310.16766" y1="140.91754" x2="324.59942" y2="140.91754"/><line class="cls-5" x1="310.16766" y1="145.5778" x2="318.73652" y2="145.5778"/><line class="cls-5" x1="310.16766" y1="151.4407" x2="323.09611" y2="151.4407"/><line class="cls-5" x1="310.16766" y1="156.25129" x2="318.58619" y2="156.25129"/><path class="cls-5" d="M251.9461,154.3536h45.03146"/><line class="cls-5" x1="227.18502" y1="105.43946" x2="326.10273" y2="105.43946"/><path class="cls-5" d="M237.70818,112.505c.451.15033,32.92246,0,32.92246,0"/><path class="cls-5" d="M274.53924,112.505c.451.15033,22.3993,0,22.3993,0"/><path class="cls-5" d="M238.61017,118.06725H254.8459"/><circle class="cls-5" cx="288.10414" cy="185.27674" r="8.44843"/><path class="cls-6" d="M265.273,233.92272l-1.7142-1.7142a2.7892,2.7892,0,0,0-2.2192-.77637,3.49139,3.49139,0,0,0-2.15981,1.02917l-3.28846,3.28845a1.29385,1.29385,0,0,0-.18465.23683,2.92976,2.92976,0,0,0-1.09083-.11317,3.48866,3.48866,0,0,0-2.16014,1.02823l-5.24611,5.2467a3.50046,3.50046,0,0,0-1.02749,2.11966,2.75255,2.75255,0,0,0,.77436,2.25935l1.71427,1.71388a2.7361,2.7361,0,0,0,1.95492.78939c.10148,0,.20423-.00488.304-.015a3.50371,3.50371,0,0,0,2.11972-1.02723l2.99945-2.99951a1.2513,1.2513,0,0,0,.32555-.57181,2.88219,2.88219,0,0,0,.978.17056,3.46925,3.46925,0,0,0,2.42109-1.03992l5.24637-5.24637a3.50284,3.50284,0,0,0,1.02756-2.11972A2.75186,2.75186,0,0,0,265.273,233.92272Zm-9.8123,6.3829a.32377.32377,0,0,1-.04857-.23423.99759.99759,0,0,1,.30136-.583,1.26291,1.26291,0,0,0,.17684-.2228l.87845.87851a.32428.32428,0,0,1,.04864.23423.997.997,0,0,1-.30211.58289,1.27142,1.27142,0,0,0-.1761.22347Zm3.08823-1.94222-.855-.855,3.26634-3.26634a1.007,1.007,0,0,1,.57313-.30177.30815.30815,0,0,1,.24465.04864l1.71454,1.71454a.32459.32459,0,0,1,.04857.23456.99706.99706,0,0,1-.3017.58289l-3.907,3.907A2.72377,2.72377,0,0,0,258.54891,238.3634Zm-4.28114,4.84546-2.99885,2.99884a.9979.9979,0,0,1-.58229.302.309.309,0,0,1-.23549-.04891l-1.71454-1.71454a.324.324,0,0,1-.04864-.23389.99719.99719,0,0,1,.30177-.58329l3.90729-3.90729a2.72424,2.72424,0,0,0,.78324,2.06454l.89575.89642A1.26628,1.26628,0,0,0,254.26777,243.20886Z"/><path class="cls-6" d="M269.18773,79.35146h-1.57437V77.33294a7.60422,7.60422,0,0,0-15.20371,0v2.01852h-1.42876a1.50089,1.50089,0,0,0-1.49909,1.49909V95.4801a1.50047,1.50047,0,0,0,1.49909,1.49909h18.20684a1.50031,1.50031,0,0,0,1.49909-1.49909V80.85055A1.50072,1.50072,0,0,0,269.18773,79.35146Zm-7.60434,11.04042a1.499,1.499,0,1,1-2.99791,0V85.93941a1.499,1.499,0,1,1,2.99791,0Zm3.03174-11.04042h-9.20725V77.33294a4.6076,4.6076,0,0,1,9.20725,0Z"/><rect class="cls-5" x="233.69299" y="165.67691" width="63.0671" height="6.30671" rx="2.42767"/><text class="cls-8" transform="translate(277.29296 98.84973)">******</text><path class="cls-6" d="M292.99231,249.09018c-.23485,0-.46693.01124-.69765.02756a10.16431,10.16431,0,0,0-10.26437-8.42024,10.55975,10.55975,0,0,0-8.44623,4.09728,7.40144,7.40144,0,0,0-3.1823-.71444,6.72846,6.72846,0,0,0-6.97711,6.44855c0,.10973.01192.21664.01777.325a8.04524,8.04524,0,0,0-1.49776-.14273,8.96159,8.96159,0,0,0,0,17.89475c.0709,0,.14093-.00382.21141-.00565v.00565h30.83624a9.75788,9.75788,0,0,0,0-19.51576Z"/><path class="cls-7" d="M236.67264,33.4417a58.77275,58.77275,0,0,1-20.45615-11.51651,2.00419,2.00419,0,0,0-2.61474-.01173,58.86156,58.86156,0,0,1-20.81063,11.41007,3.43984,3.43984,0,0,0-2.43447,3.289L190.274,55.10431c-.04323,9.65767,3.79349,18.39431,11.40388,25.96854a54.554,54.554,0,0,0,12.92569,9.451c.11465-.0582.24059-.12392.36451-.18842a54.57452,54.57452,0,0,0,12.64514-9.14669c7.67744-7.50576,11.59225-16.20794,11.63524-25.86558L239.33,37.09237A3.80268,3.80268,0,0,0,236.67264,33.4417Z"/><path class="cls-5" d="M237.43909,33.18622a58.77275,58.77275,0,0,1-20.45615-11.51651,2.0042,2.0042,0,0,0-2.61474-.01174,58.86153,58.86153,0,0,1-20.81062,11.41008,3.43983,3.43983,0,0,0-2.43448,3.289l-.08268,18.49175c-.04323,9.65767,3.7935,18.39431,11.40388,25.96854a54.55433,54.55433,0,0,0,12.92569,9.451c.11466-.0582.24059-.12392.36451-.18843a54.57391,54.57391,0,0,0,12.64515-9.14669c7.67743-7.50576,11.59224-16.20793,11.63523-25.86557l.08153-18.23082A3.80268,3.80268,0,0,0,237.43909,33.18622Z"/><path class="cls-6" d="M234.90172,42.19158c-7.28273,1.123-17.19977,7.76529-23.4561,15.75225-.87751-3.76588-4.81707-7.20395-6.87813-7.95543L198.323,56.26487c3.899,1.75706,8.15956,6.73548,8.72439,11.832l6.23784.96672c2.63-5.195,9.4223-17.62156,22.93523-24.3033A10.23805,10.23805,0,0,0,234.90172,42.19158Z"/><path class="cls-3" d="M165.183,214.89394a48.44867,48.44867,0,0,0-5.925.15415.11316.11316,0,0,1-.05468-.216c1.7325-.789,6.56117-3.16583,4.58607-4.318-2.389-1.39363-5.97258-.59729-9.35706.59723s-9.75524,3.78263-10.15339,4.579a16.31974,16.31974,0,0,0-.79638,2.18995s-4.18081,0-4.77805,1.99086-6.56986,13.737-10.15339,18.91321a49.97638,49.97638,0,0,1-8.16258,8.95887l3.58357,14.93149c.79634-.1991,11.14882-5.97258,15.52873-10.94973,3.713-4.21938,4.37991-8.36167,3.98172-10.75067s6.769-7.76439,8.75982-11.34792c1.99086-3.58358,3.18538-8.36168,6.56986-9.95434,2.81332-1.32393,4.93551-.58944,6.14451-1.21685l.89512-1.067C166.51592,216.047,166.2503,215.07184,165.183,214.89394Z"/><path class="cls-3" d="M237.24357,198.11946l-43.36445-3.11939-6.37092-.45831a4.68656,4.68656,0,0,0-3.94013,1.72835l-17.71621,21.11808a5.5762,5.5762,0,0,1-.27072.49208,1.5618,1.5618,0,0,1-.6244.57492l-19.80432,23.60719a2.56543,2.56543,0,0,0,1.80352,4.20927c8.68983.54883,29.26179,1.66754,40.621,2.26646a10.98763,10.98763,0,0,1-1.73466-3.21868c-1.28136-4.16446-7.56347-4.72451-12.56195-6.886-4.60751-1.99244-6.93832-3.45067-5.97732-4.73207.89966-1.19956,10.83479,1.56392,12.18687,1.95169a.03349.03349,0,0,0,.03216-.05739c-.55141-.493-3.16479-2.79678-7.23793-5.87918-4.46842-3.38152.24908-5.8528,3.98488-4.10939,1.76578.824,11.8157,7.53931,13.09705,7.53931s-.02168-5.17328-2.56271-8.32893c-.63537-.789-4.48482-7.36788-1.60175-8.96958,2.88311-1.60176,10.251,11.212,11.53239,12.81369.84829,1.06033,2.53855-1.52954,3.86332-4.1449a38.275,38.275,0,0,0,1.5825-3.54332c.961-2.56276-1.28136-12.4934,3.20341-9.93064s.32035,14.7358.96105,19.22057,4.16447.96105,4.16447.96105,11.965-12.15877,12.019-11.99118l16.11816-17.678A2.08406,2.08406,0,0,0,237.24357,198.11946Z"/><path class="cls-3" d="M222.52772,219.23315c-.054-.16759-12.019,11.99118-12.019,11.99118s-3.52377,3.52377-4.16447-.96105,3.52376-16.65781-.96105-19.22057-2.24241,7.36788-3.20341,9.93064a38.275,38.275,0,0,1-1.5825,3.54332c-1.32477,2.61536-3.015,5.20523-3.86332,4.1449-1.28141-1.6017-8.64928-14.41545-11.53239-12.81369-2.88307,1.6017.96638,8.18056,1.60175,8.96958,2.541,3.15565,3.84411,8.32893,2.56271,8.32893s-11.33127-6.71527-13.09705-7.53931c-3.7358-1.74341-8.4533.72787-3.98488,4.10939,4.07314,3.0824,6.68652,5.3862,7.23793,5.87918a.03349.03349,0,0,1-.03216.05739c-1.35208-.38777-11.28721-3.15125-12.18687-1.95169-.961,1.2814,1.36981,2.73963,5.97732,4.73207,4.99848,2.1615,11.28059,2.72155,12.56195,6.886a10.98763,10.98763,0,0,0,1.73466,3.21868c1.75,2.4135,3.93841,4.63664,3.71116,8.95437-.3203,6.08652-.3203,8.32893-.3203,8.32893s7.68822,10.89164,15.37645-.96106a45.1252,45.1252,0,0,0,4.12421-7.37395,10.38684,10.38684,0,0,0,1.00126-5.11944c-.64065-4.16447-.961-6.08652,2.88311-10.57129C218.12282,237.39729,225.275,227.76172,222.52772,219.23315Z"/><path class="cls-9" d="M165.58114,217.88027a5.5762,5.5762,0,0,0,.27072-.49208l-.89512,1.067A1.5618,1.5618,0,0,0,165.58114,217.88027Z"/><path class="cls-3" d="M172.57246,169.12433a12.80386,12.80386,0,0,1-1.43649-3.16849c-1.93055-6.02137-2.11829-16.06052-2.67251-24.32821-2.23011,3.84125-6.74312,8.90478-8.1691,12.27529-1.85009,4.373-7.40047,3.86841-7.40047,3.86841-1.08873.79179-2.26434,3.161-3.38216,6.1169-.77717,2.05521-1.52653,4.39146-2.1984,6.68875a25.62,25.62,0,0,0,3.89864,1.40666C157.09871,173.49733,176.94546,175.68387,172.57246,169.12433Z"/><path class="cls-3" d="M164.66741,79.64578c-8.24146-7.40048-16.9875-8.24141-20.35133-7.40048-3.36389.841,1.51374.67276-9.0824,3.36388s-12.95085,13.45539-20.85591,22.87419-15.64193,40.0299-15.81011,47.59855c-.16822,7.56871,3.02743,3.53207,6.72767,11.77352a20.21964,20.21964,0,0,0,1.26827,2.36337c.17094.2757.35033.55042.53555.82424,4.7939,7.08837,14.1762,13.46344,18.71574,13.46344,5.214,0,2.85925-3.36384.33635-9.25057a13.136,13.136,0,0,1-.75306-3.45521c-.87808-7.72092.51406-22.823.95937-27.24787.11992-.43578.23831-.85743.35325-1.25355.80823-2.7861,1.45876-4.54122,1.45876-4.54122a5.17978,5.17978,0,0,1-3.19565,1.34557c-2.35473.33635-2.01832-4.54122-2.01832-4.54122l3.02748-5.214c10.59613.50458,14.12819-6.055,21.69684-16.6511s20.18316-7.98916,20.18316-7.98916c9.92337,4.4571,6.39131,7.23229,7.90505,13.79184a15.51735,15.51735,0,0,1,.3449,3.76745c1.38241-3.89557,3.26337-8.21236,3.69174-11.9248C180.30934,96.96963,172.90882,87.04625,164.66741,79.64578Z"/><path class="cls-3" d="M175.76812,109.5c-1.51374-6.55955,2.01832-9.33474-7.90505-13.79184,0,0-12.61446-2.607-20.18316,7.98916s-11.10071,17.15568-21.69684,16.6511l-3.02748,5.214s-.33641,4.87757,2.01832,4.54122a5.17978,5.17978,0,0,0,3.19565-1.34557s-.65053,1.75512-1.45876,4.54122c-.11494.39612-.23333.81777-.35325,1.25355-.44531,4.42486-1.83745,19.527-.95937,27.24787a13.136,13.136,0,0,0,.75306,3.45521c2.5229,5.88673,4.87763,9.25057-.33635,9.25057-4.53954,0-13.92184-6.37507-18.71574-13.46344-1.79547.37083-3.89257.869-6.17538,1.483l-.506.207s15.50289,17.15533,26.099,18.83725a56.85325,56.85325,0,0,0,17.96746.25263c0-.25288,1.18312-5.6179,2.82908-11.24592.67187-2.29729,1.42123-4.63354,2.1984-6.68875,1.11782-2.95587,2.29343-5.32511,3.38216-6.1169,0,0,5.55038.50458,7.40047-3.86841,1.426-3.37051,5.939-8.434,8.1691-12.27529a9.05332,9.05332,0,0,0,1.2497-3.03029c.50458-3.70024,6.28937-19.50605,6.39986-25.32987A15.51735,15.51735,0,0,0,175.76812,109.5Z"/><path class="cls-3" d="M159.152,173.262a59.10012,59.10012,0,0,1-7.94-1.27834,25.62,25.62,0,0,1-3.89864-1.40666c-1.50643,5.15085-2.62213,10.06878-2.801,11.06174a8.10859,8.10859,0,0,0,3.13268-.72057A72.85572,72.85572,0,0,0,159.152,173.262Z"/><path class="cls-3" d="M212.25742,267.57282a77.22234,77.22234,0,0,0-1.789-10.08642,45.1252,45.1252,0,0,1-4.12421,7.37395c-7.68823,11.8527-15.37645.96106-15.37645.96106s0-2.24241.3203-8.32893c.22725-4.31773-1.96118-6.54087-3.71116-8.95437-11.35917-.59892-31.93113-1.71763-40.621-2.26646a2.56543,2.56543,0,0,1-1.80352-4.20927l19.80432-23.60719c-1.209.62741-3.33119-.10708-6.14451,1.21685-3.38448,1.59266-4.579,6.37076-6.56986,9.95434-1.99086,3.58353-9.158,8.95887-8.75982,11.34792s-.26869,6.53129-3.98172,10.75067c-4.37991,4.97715-14.73239,10.75063-15.52873,10.94973l-3.58357-14.93149a49.97638,49.97638,0,0,0,8.16258-8.95887c3.58353-5.17624,9.5561-16.92235,10.15339-18.91321s4.77805-1.99086,4.77805-1.99086a16.31974,16.31974,0,0,1,.79638-2.18995c.39815-.79638,6.76891-3.38448,10.15339-4.579s6.968-1.99086,9.35706-.59723c1.9751,1.15214-2.85357,3.52894-4.58607,4.318a.11316.11316,0,0,0,.05468.216,48.44867,48.44867,0,0,1,5.925-.15415c1.0673.1779,1.33292,1.153.66886,2.49425l17.71621-21.11808a4.68656,4.68656,0,0,1,3.94013-1.72835l6.37092.45831c-.51278-3.77813-.922-7.68364-1.05727-11.19955-.46823-12.17492-12.17487-15.921-18.26233-17.32583-.64421-.14866-1.82822-.32385-3.42355-.51885a12.80386,12.80386,0,0,0,1.43649,3.16849c3.07436,4.61156-5.82,4.89877-13.42051,4.13765a72.85572,72.85572,0,0,1-11.507,7.65617,8.10859,8.10859,0,0,1-3.13268.72057,1.84706,1.84706,0,0,0-.02806.18418,56.85346,56.85346,0,0,1-17.96746-.25264c-10.59614-1.68191-26.099-18.83724-26.099-18.83724l.506-.207c-7.34763,1.976-16.59775,5.146-23.76357,9.09958-13.5797,7.49224-19.19889,51.97753-20.13539,67.43029-.53279,8.79123.87551,20.856,1.32521,31.06783.3407,7.738-.67873,14.52876,1.138,17.35487,4.2144,6.55574,21.88656-2.53263,21.88656-2.53263l5.61918,11.23837s97.743.15434,99.98455-.46828c2.24147-.62263,4.35843-8.84146,4.35843-8.84146s5.10566,5.72829,10.58487,5.35469S212.50645,271.68226,212.25742,267.57282Z"/><path class="cls-7" d="M163.98856,216.08837a48.45269,48.45269,0,0,0-5.925.15415.11316.11316,0,0,1-.05468-.216c1.7325-.789,6.56118-3.16583,4.58607-4.318-2.389-1.39362-5.97257-.59728-9.35705.59724s-9.75525,3.78262-10.15339,4.579a16.31885,16.31885,0,0,0-.79639,2.19s-4.18081,0-4.778,1.99086c-.59729,1.99086-6.56986,13.737-10.15339,18.91321a49.97569,49.97569,0,0,1-8.16258,8.95886l3.58358,14.9315c.79633-.1991,11.14882-5.97258,15.52873-10.94973,3.713-4.21939,4.3799-8.36167,3.98171-10.75068-.39814-2.389,6.769-7.76438,8.75982-11.34791s3.18539-8.36168,6.56987-9.95434c2.81332-1.32393,4.93551-.58944,6.1445-1.21685l.89512-1.067C165.32148,217.24141,165.05586,216.26628,163.98856,216.08837Z"/><path class="cls-6" d="M236.04913,199.3139l-43.36445-3.1194-6.37092-.4583a4.68656,4.68656,0,0,0-3.94013,1.72835l-17.71621,21.11808a5.5786,5.5786,0,0,1-.27071.49208,1.56182,1.56182,0,0,1-.62441.57492L143.958,243.25682a2.56542,2.56542,0,0,0,1.80352,4.20926c8.68983.54884,29.26179,1.66755,40.621,2.26647a10.98767,10.98767,0,0,1-1.73467-3.21868c-1.28136-4.16446-7.56347-4.72451-12.56195-6.886-4.6075-1.99244-6.93832-3.45067-5.97732-4.73207.89966-1.19957,10.83479,1.56392,12.18687,1.95169a.03349.03349,0,0,0,.03216-.05739c-.5514-.493-3.16479-2.79678-7.23793-5.87918-4.46842-3.38152.24908-5.8528,3.98488-4.1094,1.76578.824,11.8157,7.53932,13.097,7.53932,1.28141,0-.02168-5.17328-2.56271-8.32893-.63537-.789-4.48481-7.36788-1.60175-8.96958,2.88311-1.60176,10.251,11.212,11.53239,12.81369.84829,1.06033,2.53856-1.52954,3.86333-4.1449a38.276,38.276,0,0,0,1.58249-3.54333c.961-2.56276-1.28136-12.49339,3.20341-9.93063,4.48482,2.56276.32035,14.7358.96105,19.22057s4.16447.96105,4.16447.96105,11.96506-12.15877,12.019-11.99118l16.11816-17.678A2.08406,2.08406,0,0,0,236.04913,199.3139Z"/><path class="cls-7" d="M221.33328,220.42759c-.054-.16759-12.019,11.99118-12.019,11.99118s-3.52376,3.52376-4.16447-.96105,3.52377-16.65781-.96105-19.22057c-4.48477-2.56276-2.24241,7.36787-3.20341,9.93063a38.276,38.276,0,0,1-1.58249,3.54333c-1.32477,2.61536-3.015,5.20523-3.86333,4.1449-1.28141-1.6017-8.64928-14.41545-11.53239-12.81369-2.88306,1.6017.96638,8.18055,1.60175,8.96958,2.541,3.15565,3.84412,8.32893,2.56271,8.32893-1.28135,0-11.33127-6.71527-13.097-7.53932-3.7358-1.7434-8.4533.72788-3.98488,4.1094,4.07314,3.0824,6.68653,5.3862,7.23793,5.87918a.03349.03349,0,0,1-.03216.05739c-1.35208-.38777-11.28721-3.15126-12.18687-1.95169-.961,1.2814,1.36982,2.73963,5.97732,4.73207,4.99848,2.1615,11.28059,2.72155,12.56195,6.886a10.98767,10.98767,0,0,0,1.73467,3.21868c1.75,2.41349,3.9384,4.63664,3.71115,8.95437-.3203,6.08652-.3203,8.32893-.3203,8.32893s7.68823,10.89164,15.37645-.96106a45.1252,45.1252,0,0,0,4.12421-7.374,10.38675,10.38675,0,0,0,1.00126-5.11944c-.64065-4.16447-.961-6.08652,2.88311-10.57129C216.92838,238.59173,224.08052,228.95615,221.33328,220.42759Z"/><path class="cls-5" d="M164.38671,219.07471a5.5786,5.5786,0,0,0,.27071-.49208l-.89512,1.067A1.56182,1.56182,0,0,0,164.38671,219.07471Z"/><path class="cls-6" d="M171.378,170.31877a12.80386,12.80386,0,0,1-1.43649-3.16849c-1.93055-6.02138-2.11829-16.06052-2.6725-24.32821-2.23011,3.84125-6.74313,8.90478-8.1691,12.27528-1.8501,4.373-7.40048,3.86842-7.40048,3.86842-1.08873.79179-2.26434,3.161-3.38216,6.1169-.77717,2.05521-1.52653,4.39146-2.1984,6.68874a25.619,25.619,0,0,0,3.89864,1.40667C155.90427,174.69177,175.751,176.87831,171.378,170.31877Z"/><path class="cls-6" d="M163.473,80.84021c-8.24146-7.40047-16.9875-8.2414-20.35133-7.40047-3.36389.841,1.51374.67276-9.08239,3.36388C123.44306,79.4947,121.08839,90.259,113.18333,99.67781s-15.64193,40.0299-15.81011,47.59855,3.02744,3.53206,6.72767,11.77352a20.22113,20.22113,0,0,0,1.26827,2.36337c.17094.2757.35033.55041.53555.82424,4.7939,7.08837,14.1762,13.46344,18.71574,13.46344,5.214,0,2.85925-3.36384.33635-9.25057a13.13639,13.13639,0,0,1-.75306-3.45521c-.87808-7.72093.51406-22.823.95937-27.24787.11992-.43578.23831-.85743.35325-1.25355.80823-2.7861,1.45876-4.54122,1.45876-4.54122a5.17978,5.17978,0,0,1-3.19565,1.34557c-2.35473.33635-2.01832-4.54123-2.01832-4.54123l3.02748-5.214c10.59613.50458,14.12819-6.055,21.69684-16.6511,7.5687-10.59613,20.18316-7.98916,20.18316-7.98916,9.92337,4.4571,6.39131,7.23229,7.905,13.79183a15.51748,15.51748,0,0,1,.3449,3.76746c1.38241-3.89558,3.26337-8.21236,3.69174-11.9248C179.1149,98.16407,171.71438,88.24069,163.473,80.84021Z"/><path class="cls-7" d="M174.57368,110.69445c-1.51374-6.55954,2.01832-9.33473-7.905-13.79183,0,0-12.61446-2.607-20.18316,7.98916-7.56865,10.59614-11.10071,17.15568-21.69684,16.6511l-3.02748,5.214s-.33641,4.87758,2.01832,4.54123a5.17978,5.17978,0,0,0,3.19565-1.34557s-.65053,1.75512-1.45876,4.54122c-.11494.39612-.23333.81777-.35325,1.25355-.44531,4.42486-1.83745,19.52694-.95937,27.24787a13.13639,13.13639,0,0,0,.75306,3.45521c2.5229,5.88673,4.87763,9.25057-.33635,9.25057-4.53954,0-13.92184-6.37507-18.71574-13.46344-1.79547.37083-3.89257.869-6.17538,1.483l-.506.207s15.5029,17.15533,26.099,18.83725a56.85325,56.85325,0,0,0,17.96746.25263c0-.25289,1.18312-5.6179,2.82908-11.24593.67187-2.29728,1.42123-4.63353,2.1984-6.68874,1.11782-2.95587,2.29343-5.32511,3.38216-6.1169,0,0,5.55038.50458,7.40048-3.86842,1.426-3.3705,5.939-8.434,8.1691-12.27528a9.05352,9.05352,0,0,0,1.24969-3.0303c.50458-3.70023,6.28937-19.50605,6.39986-25.32986A15.51748,15.51748,0,0,0,174.57368,110.69445Z"/><path class="cls-7" d="M157.95751,174.45642a59.10174,59.10174,0,0,1-7.94-1.27834,25.619,25.619,0,0,1-3.89864-1.40667c-1.50643,5.15086-2.62213,10.06879-2.801,11.06175a8.10859,8.10859,0,0,0,3.13268-.72057A72.85572,72.85572,0,0,0,157.95751,174.45642Z"/><path class="cls-10" d="M211.063,268.76726a77.22066,77.22066,0,0,0-1.789-10.08642,45.1252,45.1252,0,0,1-4.12421,7.374c-7.68822,11.8527-15.37645.96106-15.37645.96106s0-2.24241.3203-8.32893c.22725-4.31773-1.96118-6.54088-3.71115-8.95437-11.35918-.59892-31.93114-1.71763-40.621-2.26647a2.56542,2.56542,0,0,1-1.80352-4.20926l19.80432-23.60719c-1.209.62741-3.33118-.10708-6.1445,1.21685-3.38448,1.59266-4.579,6.37076-6.56987,9.95434s-9.158,8.95886-8.75982,11.34791c.39819,2.389-.26869,6.53129-3.98171,10.75068-4.37991,4.97715-14.7324,10.75063-15.52873,10.94973l-3.58358-14.9315a49.97569,49.97569,0,0,0,8.16258-8.95886c3.58353-5.17624,9.5561-16.92235,10.15339-18.91321.59724-1.99086,4.778-1.99086,4.778-1.99086a16.31885,16.31885,0,0,1,.79639-2.19c.39814-.79639,6.76891-3.38448,10.15339-4.579s6.968-1.99086,9.35705-.59724c1.97511,1.15215-2.85357,3.529-4.58607,4.318a.11316.11316,0,0,0,.05468.216,48.45269,48.45269,0,0,1,5.925-.15415c1.0673.17791,1.33292,1.153.66886,2.49426l17.71621-21.11808a4.68656,4.68656,0,0,1,3.94013-1.72835l6.37092.4583c-.51278-3.77812-.922-7.68363-1.05727-11.19954-.46823-12.17492-12.17487-15.921-18.26233-17.32583-.64421-.14866-1.82821-.32385-3.42355-.51885a12.80386,12.80386,0,0,0,1.43649,3.16849c3.07436,4.61156-5.82,4.89876-13.42051,4.13765a72.85572,72.85572,0,0,1-11.507,7.65617,8.10859,8.10859,0,0,1-3.13268.72057,1.84662,1.84662,0,0,0-.02806.18418,56.85346,56.85346,0,0,1-17.96746-.25264c-10.59613-1.68192-26.099-18.83724-26.099-18.83724l.506-.207c-7.34763,1.976-16.59775,5.146-23.76357,9.09958-13.5797,7.49224-19.19889,51.97753-20.13539,67.43029-.53278,8.79123.87551,20.856,1.32521,31.06783.3407,7.738-.67873,14.52876,1.138,17.35487,4.2144,6.55574,21.88656-2.53263,21.88656-2.53263l5.61918,11.23837s97.743.15434,99.98455-.46828,4.35843-8.84146,4.35843-8.84146,5.10566,5.72828,10.58487,5.35469S211.312,272.8767,211.063,268.76726Z"/><path class="cls-5" d="M164.75323,215.30135a48.45264,48.45264,0,0,0-5.925.15415.11316.11316,0,0,1-.05468-.216c1.73249-.789,6.56117-3.16582,4.58607-4.318-2.389-1.39362-5.97258-.59729-9.35706.59724s-9.75525,3.78262-10.15339,4.579a16.32019,16.32019,0,0,0-.79638,2.19s-4.18082,0-4.77805,1.99086c-.59729,1.99086-6.56987,13.737-10.15339,18.91321a49.97611,49.97611,0,0,1-8.16258,8.95886l3.58357,14.93149c.79634-.19909,11.14882-5.97257,15.52873-10.94972,3.713-4.21939,4.37991-8.36168,3.98172-10.75068s6.769-7.76439,8.75982-11.34791c1.99086-3.58358,3.18538-8.36168,6.56986-9.95435,2.81332-1.32393,4.93551-.58943,6.14451-1.21685l.89511-1.067C166.08615,216.45439,165.82052,215.47926,164.75323,215.30135Z"/><path class="cls-5" d="M236.8138,198.52688l-43.36446-3.1194-6.37091-.4583a4.68654,4.68654,0,0,0-3.94013,1.72835l-17.71622,21.11808a5.57743,5.57743,0,0,1-.27071.49208,1.56183,1.56183,0,0,1-.6244.57491l-19.80433,23.6072a2.56543,2.56543,0,0,0,1.80352,4.20926c8.68983.54884,29.26179,1.66755,40.621,2.26646a10.98773,10.98773,0,0,1-1.73467-3.21867c-1.28135-4.16447-7.56346-4.72451-12.56195-6.886-4.6075-1.99244-6.93832-3.45066-5.97731-4.73207.89966-1.19956,10.83479,1.56393,12.18687,1.9517a.03349.03349,0,0,0,.03215-.0574c-.5514-.493-3.16478-2.79677-7.23793-5.87917-4.46841-3.38152.24908-5.85281,3.98488-4.1094,1.76579.824,11.8157,7.53932,13.09706,7.53932s-.02169-5.17328-2.56271-8.32893c-.63537-.789-4.48482-7.36788-1.60176-8.96959s10.251,11.212,11.53239,12.8137c.8483,1.06033,2.53856-1.52955,3.86333-4.14491a38.27447,38.27447,0,0,0,1.58249-3.54332c.961-2.56276-1.28135-12.49339,3.20342-9.93063s.32035,14.7358.96105,19.22057,4.16446.96105,4.16446.96105S222.044,219.473,222.098,219.64056l16.11816-17.678A2.08406,2.08406,0,0,0,236.8138,198.52688Z"/><path class="cls-5" d="M222.098,219.64056c-.054-.16758-12.019,11.99119-12.019,11.99119s-3.52376,3.52376-4.16446-.96105,3.52376-16.65782-.96105-19.22057S202.711,218.818,201.75,221.38076a38.27447,38.27447,0,0,1-1.58249,3.54332c-1.32477,2.61536-3.015,5.20524-3.86333,4.14491-1.2814-1.60171-8.64928-14.41545-11.53239-12.8137s.96639,8.18056,1.60176,8.96959c2.541,3.15565,3.84411,8.32893,2.56271,8.32893s-11.33127-6.71528-13.09706-7.53932c-3.7358-1.74341-8.45329.72788-3.98488,4.1094,4.07315,3.0824,6.68653,5.3862,7.23793,5.87917a.03349.03349,0,0,1-.03215.0574c-1.35208-.38777-11.28721-3.15126-12.18687-1.9517-.961,1.28141,1.36981,2.73963,5.97731,4.73207,4.99849,2.16151,11.2806,2.72155,12.56195,6.886a10.98773,10.98773,0,0,0,1.73467,3.21867c1.75,2.4135,3.9384,4.63665,3.71115,8.95437-.3203,6.08653-.3203,8.32893-.3203,8.32893s7.68823,10.89164,15.37646-.96105a45.12566,45.12566,0,0,0,4.12421-7.37395,10.387,10.387,0,0,0,1.00126-5.11944c-.64066-4.16447-.961-6.08653,2.88311-10.57129C217.69305,237.80471,224.84518,228.16913,222.098,219.64056Z"/><path class="cls-5" d="M165.15137,218.28769a5.57743,5.57743,0,0,0,.27071-.49208l-.89511,1.067A1.56183,1.56183,0,0,0,165.15137,218.28769Z"/><path class="cls-5" d="M172.14269,169.53175a12.80349,12.80349,0,0,1-1.43649-3.16849c-1.93056-6.02138-2.11829-16.06053-2.67251-24.32821-2.23011,3.84125-6.74313,8.90478-8.1691,12.27528-1.85009,4.373-7.40047,3.86842-7.40047,3.86842-1.08873.79179-2.26434,3.161-3.38216,6.11689-.77717,2.05522-1.52654,4.39147-2.1984,6.68875a25.61851,25.61851,0,0,0,3.89864,1.40666C156.66893,173.90474,176.51568,176.09129,172.14269,169.53175Z"/><path class="cls-5" d="M164.23763,80.05319c-8.24145-7.40047-16.98749-8.24141-20.35133-7.40047s1.51374.67275-9.08239,3.36388C124.20773,78.70768,121.85306,89.472,113.948,98.89078s-15.64193,40.02991-15.81011,47.59856c-.16823,7.5687,3.02743,3.53206,6.72767,11.77352a20.21953,20.21953,0,0,0,1.26826,2.36337c.171.2757.35034.55041.53555.82424,4.79391,7.08837,14.1762,13.46343,18.71575,13.46343,5.214,0,2.85925-3.36383.33635-9.25057a13.13625,13.13625,0,0,1-.75307-3.4552c-.87807-7.72093.51407-22.823.95938-27.24787.11992-.43578.23831-.85743.35324-1.25355.80824-2.78611,1.45877-4.54122,1.45877-4.54122a5.17976,5.17976,0,0,1-3.19566,1.34556c-2.35472.33636-2.01832-4.54122-2.01832-4.54122l3.02748-5.214c10.59614.50458,14.1282-6.055,21.69685-16.65109,7.5687-10.59613,20.18315-7.98917,20.18315-7.98917,9.92338,4.45711,6.39132,7.2323,7.90506,13.79184a15.518,15.518,0,0,1,.3449,3.76746c1.3824-3.89558,3.26337-8.21237,3.69174-11.9248C179.87957,97.377,172.479,87.45367,164.23763,80.05319Z"/><path class="cls-5" d="M175.33835,109.90743c-1.51374-6.55954,2.01832-9.33473-7.90506-13.79184,0,0-12.61445-2.607-20.18315,7.98917-7.56865,10.59613-11.10071,17.15567-21.69685,16.65109l-3.02748,5.214s-.3364,4.87758,2.01832,4.54122a5.17976,5.17976,0,0,0,3.19566-1.34556s-.65053,1.75511-1.45877,4.54122c-.11493.39612-.23332.81777-.35324,1.25355-.44531,4.42485-1.83745,19.52694-.95938,27.24787a13.13625,13.13625,0,0,0,.75307,3.4552c2.5229,5.88674,4.87762,9.25057-.33635,9.25057-4.53955,0-13.92184-6.37506-18.71575-13.46343-1.79546.37083-3.89256.869-6.17537,1.483l-.506.207s15.5029,17.15534,26.099,18.83726a56.85367,56.85367,0,0,0,17.96747.25263c0-.25289,1.18312-5.6179,2.82908-11.24593.67186-2.29728,1.42123-4.63353,2.1984-6.68875,1.11782-2.95586,2.29343-5.3251,3.38216-6.11689,0,0,5.55038.50458,7.40047-3.86842,1.426-3.3705,5.939-8.434,8.1691-12.27528a9.05378,9.05378,0,0,0,1.2497-3.0303c.50458-3.70024,6.28937-19.50605,6.39986-25.32986A15.518,15.518,0,0,0,175.33835,109.90743Z"/><path class="cls-5" d="M119.95876,248.15062a137.79038,137.79038,0,0,0-13.67259,4.59894c-8.96192,3.41407-18.0661,8.39292-18.20836,4.8366,0,0,6.97039-21.76468,6.54363-33.28716s2.70281-40.39979,2.70281-40.39979"/><path class="cls-5" d="M123.54233,263.08211s-2.03511,5.03075-4.88016,6.16877-37.71734,16.1025-37.71734,16.1025"/><path class="cls-5" d="M190.907,287.282c-.40715-1.103-5.955-21.16068-4.39023-24.00573a4.9264,4.9264,0,0,1,3.98308-2.84506"/><path class="cls-5" d="M158.72217,173.66939a59.09858,59.09858,0,0,1-7.94-1.27834,25.61851,25.61851,0,0,1-3.89864-1.40666c-1.50643,5.15086-2.62213,10.06879-2.801,11.06175a8.1086,8.1086,0,0,0,3.13269-.72057A72.855,72.855,0,0,0,158.72217,173.66939Z"/><path class="cls-5" d="M211.82765,267.98023a77.22361,77.22361,0,0,0-1.789-10.08641,45.12566,45.12566,0,0,1-4.12421,7.37395c-7.68823,11.85269-15.37646.96105-15.37646.96105s0-2.2424.3203-8.32893c.22725-4.31772-1.96117-6.54087-3.71115-8.95437-11.35918-.59891-31.93114-1.71762-40.621-2.26646a2.56543,2.56543,0,0,1-1.80352-4.20926L164.527,218.8626c-1.209.62742-3.33119-.10708-6.14451,1.21685-3.38448,1.59267-4.579,6.37077-6.56986,9.95435-1.99086,3.58352-9.158,8.95886-8.75982,11.34791s-.26869,6.53129-3.98172,10.75068c-4.37991,4.97715-14.73239,10.75063-15.52873,10.94972l-3.58357-14.93149a49.97611,49.97611,0,0,0,8.16258-8.95886c3.58352-5.17625,9.5561-16.92235,10.15339-18.91321.59723-1.99086,4.77805-1.99086,4.77805-1.99086a16.32019,16.32019,0,0,1,.79638-2.19c.39814-.79638,6.76891-3.38447,10.15339-4.579s6.968-1.99086,9.35706-.59724c1.9751,1.15215-2.85358,3.52895-4.58607,4.318a.11316.11316,0,0,0,.05468.216,48.45264,48.45264,0,0,1,5.925-.15415c1.06729.17791,1.33292,1.153.66885,2.49426l17.71622-21.11808a4.68654,4.68654,0,0,1,3.94013-1.72835l6.37091.4583c-.51277-3.77813-.922-7.68363-1.05726-11.19954-.46823-12.17492-12.17487-15.92105-18.26233-17.32583-.64421-.14867-1.82822-.32386-3.42355-.51885a12.80349,12.80349,0,0,0,1.43649,3.16849c3.07435,4.61155-5.82,4.89876-13.42052,4.13764a72.855,72.855,0,0,1-11.507,7.65618,8.1086,8.1086,0,0,1-3.13269.72057,1.84854,1.84854,0,0,0-.028.18418,56.85352,56.85352,0,0,1-17.96747-.25264c-10.59613-1.68192-26.099-18.83725-26.099-18.83725l.506-.207c-7.34763,1.976-16.59776,5.146-23.76357,9.09958-13.57971,7.49224-19.19889,51.97752-20.1354,67.43029-.53278,8.79123.87551,20.856,1.32522,31.06783.3407,7.738-.67873,14.52876,1.138,17.35487,4.2144,6.55574,21.88656-2.53263,21.88656-2.53263L86.564,296.59174s97.743.15435,99.98455-.46827c2.24147-.62263,4.35842-8.84147,4.35842-8.84147s5.10567,5.72829,10.58488,5.3547S212.07668,272.08968,211.82765,267.98023Z"/><path class="cls-5" d="M129.1885,114.13462l15.6552,10.74432s-1.00349-3.25578,6.94825-2.00024,6.41719,1.95305,12.41588,1.95305,10.88132-4.88264,16.18248-2.09256c4.05488,2.13415-2.01121,8.43094-5.08757,11.2737-.82125.7589-4.42467,1.49329-7.71474-.21776A2.29107,2.29107,0,0,1,166.509,132.6a10.64947,10.64947,0,0,1-.62708-5.11765c.41851-3.4876.558-1.95305.558-1.95305"/><path class="cls-5" d="M144.8437,124.87894s-.92055,8.02722,4.71618,9.99712c4.37771,1.52989,9.9048.558,12.55538-9.7653"/><path class="cls-5" d="M166.27965,131.82948s1.01288,7.14341-.21323,7.72981-1.70589-.95956-3.25185-.37316-5.3309.42647-6.5037-1.97244"/><path class="cls-5" d="M162.12155,145.95637s-4.478,3.03862-13.70042-.95956"/><path class="cls-5" d="M150.38218,94.75754s-19.17924,12.23325-24.82889,25.99831-20.38429,27.4905-20.38429,27.4905"/><path class="cls-5" d="M152.46412,158.17875s-8.13728-.24386-12.17417-7.10658"/><circle class="cls-6" cx="153.81353" cy="127.65821" r="1.21107"/><circle class="cls-6" cx="170.16294" cy="129.27296" r="1.21107"/><path class="cls-5" d="M143.66177,239.48462s10.241-15.50786,6.87613-15.80046-10.97255,8.19283-10.97255,8.19283,2.34081-6.29093,4.53532-7.60763c0,0,14.25637-6.40962,13.31335-8.92434-1.3167-3.51121-11.14263,1.47966-14.36124,2.94267"/><path class="cls-3" d="M1223.71415,10.86441c-29.46558,0-53.35217,17.32233-53.35217,38.69055v56.61029s12.78991-24.76153,27.28235-22.852c1.459.59382,2.95617,1.14423,4.49591,1.63849a70.73479,70.73479,0,0,0,21.57391,3.2937c29.46558,0,53.35217-17.32232,53.35217-38.69049C1277.06632,28.18674,1253.17973,10.86441,1223.71415,10.86441Z"/><path class="cls-3" d="M1095.637,213.5692c-.03686.14789-.07025.29834-.11224.44238,0,0-46.111,7.73163-58.31592,4.10743-.72143,3.37213-1.70636,8.92852-2.84607,17.88336-2.40527,18.89837.34363,77.31152.6872,78.34234.07519.22565,3.22894.4513,8.10956.66608,4.36242.192,10.1065.37524,16.26379.5423,2.82263.07654,5.73035.14966,8.63446.21863,7.07483.168,14.11157.31109,19.77442.4187,7.18762.13659,12.15948.21594,12.15948.21594Z"/><path class="cls-3" d="M1101.98963,114.21508c-4.59559-.91913-1.83826-4.59559-1.83826-4.59559s2.38977-14.52215,2.57355-15.0736-4.59558-16.728-15.62506-16.08466c-11.02942.64343-15.62507,7.5368-19.853,11.76477s-1.65442,8.45593-.36762,12.13239c.63562,1.81616,1.58466,2.464,2.383,2.65661-.41132-1.19836-3.09273-2.8216.19055-3.94336,6.80514-2.325,16.9118-10.6618,16.9118-10.6618a51.091,51.091,0,0,1,6.25007,3.125c3.86029,2.20587,3.86029,7.90448,3.86029,7.90448s2.38971-2.94122,3.49267.36761-3.67651,8.45594-3.67651,8.45594-.91913,3.86029-1.103,4.96325c-.18377,1.103,1.28681,2.20587,2.94123,5.69855,0,0,.55145-2.022,2.3897-.36761.61048.54943.73291,2.50073.61939,4.89874,1.20776,2.51355,3.429,6.00091,6.89612,7.5805a22.51187,22.51187,0,0,0,4.4331-6.87262C1115.32263,118.71977,1106.58527,115.1342,1101.98963,114.21508Z"/><path class="cls-3" d="M1109.61261,133.60759a9.14643,9.14643,0,0,1-1.57806-.57129c-3.4671-1.57959-5.68836-5.067-6.89612-7.5805.11352-2.398-.00891-4.34931-.61939-4.89874-1.83825-1.65442-2.3897.36761-2.3897.36761a1.69012,1.69012,0,0,1-.25013,1.3233c-.79773,1.62909-3.12408,4.26593-6.12231,7.24372-1.51984,1.50946-3.20392,3.10077-4.949,4.69207-8.086,7.3736-17.35974,14.6698-16.43609,13.02778,1.11651-1.98487,4.77948-20.03681,4.77948-20.03681a8.66474,8.66474,0,0,0,.76147-3.20758l-1.06787-3.92944-.42016-1.546c-.20545-.337-.38788-.59894-.52228-.7779-.1333-.17749-.2218-.28186-.2218-.28186s-1.32441.94092-3.05286,2.23706c-.455-.04962-.86792-.09948-1.21722-.14935-4.81049-.68719-13.74427-.34357-17.1803,3.09247-2.70386,2.70386-8.38477,15.19336-11.68842,25.41711,2.30835-.03863,4.30585-.07507,5.79981-.11859a3.99569,3.99569,0,0,1,3.974,2.955l8.82806,32.76862a11.50147,11.50147,0,0,0-4.41754,1.75982,1.41121,1.41121,0,0,1,.493,1.02c0,1.63526,1.30817,4.57862-1.79871,5.72321-.112.04126-.51593-.06458-1.14209-.08356-2.12963-.06451-6.61377-.94688-11.31427-.94792l-6.25781,25.65452a5.18991,5.18991,0,0,0,2.50244,1.35859c12.2049,3.6242,58.31592-4.10743,58.31592-4.10743.042-.144.07538-.29449.11224-.44238,2.07288-8.32025-3.8919-22.57928-3.8919-22.57928s7.903-3.4361,10.99542-10.6518c3.09247-7.21576,15.46228-26.11413,17.86755-31.26825C1123.01325,143.91582,1116.48474,135.32561,1109.61261,133.60759Z"/><path class="cls-3" d="M1095.18811,115.22612c.18384-1.103,1.103-4.96325,1.103-4.96325s4.77942-5.1471,3.67651-8.45594-3.49267-.36761-3.49267-.36761,0-5.69861-3.86029-7.90448a51.091,51.091,0,0,0-6.25007-3.125s-11.02064,9.06795-16.9118,10.6618c-3.34921.90613-.60187,2.745-.19055,3.94336a3.95479,3.95479,0,0,1,.19055,1.0199c.18378,2.57355,2.75732,5.69855,3.49262,8.08826.29193.94885.64129,2.30218.95709,3.59069.1344.179.31683.44086.52228.7779l.42016,1.546,1.06787,3.92944a8.66474,8.66474,0,0,1-.76147,3.20758s-3.663,18.05194-4.77948,20.03681c-.92365,1.642,8.3501-5.65418,16.43609-13.02778,1.74506-1.5913,3.42914-3.18261,4.949-4.69207,2.99823-2.97779,5.32458-5.61463,6.12231-7.24372a1.69012,1.69012,0,0,0,.25013-1.3233C1096.47492,117.432,1095.00434,116.32909,1095.18811,115.22612Z"/><path class="cls-3" d="M1155.48253,111.82537s-2.38977.36767-2.75732-.73529c-.36768-1.103-2.75745-10.11035-6.06629-11.76477s-4.2279.36767-4.2279.36767-3.67652,5.88239-4.77954,4.77942c-1.10291-1.103-2.022-2.20587-3.125-3.49267-1.10291-1.28675-.55139-3.125-1.28675-4.04413-.73523-.91913,1.28675-1.103-.73523-.91913-2.02209.18384-.73535.18384-.73535-1.47058s-.36767-2.20587-1.47058-1.47058-1.83826-1.103-2.02209-2.57355-.55152.73529-1.83814-.36768c-1.28686-1.1029-1.83838-1.47058-2.38977-.18383a72.76868,72.76868,0,0,1-4.42908,6.51007c-.96179,5.61566-1.821,13.70239-1.821,14.62976,0,1.28674,2.57361,1.103,3.125,1.28674.55151.18384,4.04419,9.5589,4.04419,9.5589s2.57349.73529,3.30884.91913,5.14709-2.0221,5.14709-2.0221l6.44275,7.78.10669-.02752a16.26187,16.26187,0,0,0,6.396-3.29444l12.3894-10.4079Z"/><path class="cls-11" d="M1119.09729,91.00121c.08747-.32276.09717-.43091,0,0Z"/><path class="cls-3" d="M1159.34284,84.2517c-2.94123-1.10291-.91913-.91913.36761-2.20588,1.28681-1.28674-1.83819-.91912-2.75732-2.3897s1.28674-.91913,2.022-1.28681c.73529-.36761-1.47058-2.022-3.49261-1.83819-2.0221.18377-2.94123-1.103-2.75739-2.94123s-1.65442-.36761-4.228.36768-5.33093-2.0221-7.5368-.91913-9.37506,1.65442-13.05151,3.67645c-3.67652,2.0221-11.21332,13.23535-10.29419,15.44129.63788,1.53094,1.27484-.38837,1.4826-1.155.09717-.43091.08747-.32276,0,0l-.012.052c-.36768,1.65442.18378,5.88239.18378,5.88239s.13458-.18152.35034-.47529a72.75676,72.75676,0,0,0,4.42914-6.51007c.55145-1.28674,1.1029-.91906,2.38971.18384,1.28674,1.103,1.65441-1.1029,1.83819.36768.18384,1.47058.91913,3.30884,2.0221,2.57354s1.47058-.18383,1.47058,1.47059-1.28675,1.65441.73529,1.47058,0,0,.73529.91913c.73535.91912.18384,2.75738,1.2868,4.04412,1.103,1.28681,2.022,2.38971,3.125,3.49268S1142.431,99.693,1142.431,99.693s.91913-2.02209,4.228-.36768,5.69854,10.66181,6.06622,11.76478c.36762,1.103,2.75739.73529,2.75739.73529s2.38971-3.86029,2.94116-5.1471c.55145-1.28674.18384-4.04413.55145-4.96326.36768-.91912,1.103.18384,2.0221,0s-1.103-2.75732-.91913-3.67645,1.83825,1.47058,1.83825,1.47058a6.878,6.878,0,0,0-.18383-2.57354c-.36768-.91913,1.65441-4.04413,2.20587-6.25C1164.48993,88.47966,1162.284,85.35466,1159.34284,84.2517Z"/><path class="cls-3" d="M1050.31568,150.86571a3.99569,3.99569,0,0,0-3.974-2.955c-1.494.04352-3.49146.08-5.79981.11859-13.684.22913-38.65838.53876-39.2843,2.901-.821,3.098,9.81122,36.138,9.81122,36.138s5.35486.32318,12.26184.70611c-3.36878-3.009-6.94086-6.78351-5.55756-7.574,2.28931-1.30817,9.9748,6.37726,10.46534,5.88672s-3.761-8.50306-.81763-9.32068c2.94336-.81757,5.39618,8.176,7.849,8.99365a19.05194,19.05194,0,0,0,5.23266.81757s.02973-.05518.082-.14411c.331-.56305,1.65735-2.6134,3.35187-2.47217,1.96228.16352,2.1258,1.47168,5.06915.65406,2.25745-.62708,4.70148-.194,5.72071.77868a11.50147,11.50147,0,0,1,4.41754-1.75982Z"/><path class="cls-3" d="M1055.21924,186.41417a1.41121,1.41121,0,0,0-.493-1.02c-1.01923-.97271-3.46326-1.40576-5.72071-.77868-2.94335.81762-3.10687-.49054-5.06915-.65406-1.69452-.14123-3.02087,1.90912-3.35187,2.47217-.0523.08893-.082.14411-.082.14411a19.05194,19.05194,0,0,1-5.23266-.81757c-2.45282-.81763-4.90564-9.81122-7.849-8.99365-2.94336.81762,1.30816,8.83014.81763,9.32068s-8.176-7.19489-10.46534-5.88672c-1.3833.79046,2.18878,4.565,5.55756,7.574,2.20618,1.97052,5.772,3.07265,6.35442,3.3315.59308.26361,3.42164-.02661,8.10462-.00641,1.03705.00446,2.10547.00617,3.1745.00641,4.7005.001,9.18464.88341,11.31427.94792.62616.019,1.03009.12482,1.14209.08356C1056.52741,190.99279,1055.21924,188.04943,1055.21924,186.41417Z"/><path class="cls-3" d="M1165.96411,225.007l-37.10955-1.03083s-1.14791,3.81785-3.39772,3.3184a52.95914,52.95914,0,0,0-.71136,20.27362c1.64429,11.5097,7.82491,41.96994,8.40168,49.51791.2241,2.93278,15.78479,28.61,16.77136,38.80432.98651,10.19434,1.6037,16.55127,1.6037,16.55127l45.093-.43762s-6.248-28.93879-8.55005-33.21387c-2.302-4.275-3.28858-1.97308-2.95972-10.85205.32886-8.87891,3.94629-25.65027,1.31543-34.52924-1.13258-3.82259,2.81011-18.06528,2.81122-29.01318.00128-12.70825-3.84415-21.99588-4.02606-21.45038C1183.83173,227.06859,1165.96411,225.007,1165.96411,225.007Z"/><path class="cls-3" d="M1198.60675,154.73943c-4.81042-16.49317-12.36987-21.30365-18.55481-30.58106-6.18481-9.27734-17.86749-7.903-17.86749-7.903l-2.7489-2.2334c-.2262.29553-.4516.577-.67713.86084l-12.38937,10.40789a16.26133,16.26133,0,0,1-6.39609,3.29445l-.10663.02752a9.00161,9.00161,0,0,1-1.04718.18439s-3.77966,3.77966-4.46685,4.81048,2.06164,2.74884,2.06164,2.74884a40.10145,40.10145,0,0,1-6.18493,8.24658c-3.77967,3.77967-5.84131,7.21576-6.18494,16.49311-.34357,9.2774-1.718,22.33447-6.87213,35.04791s3.181,18.94855,4.21185,27.88232c.30383,2.63337,1.079,3.70276,2.01941,3.9115,2.24982.49945,5.45136-3.96167,5.45136-3.96167l37.10955,1.03083s17.86762,2.06158,19.24189-2.06165a23.78017,23.78017,0,0,0,.62353-5.43249,163.38681,163.38681,0,0,0-.62353-19.82264s11.68273-9.27734,16.49316-13.05706C1206.50971,180.8535,1203.41718,171.23253,1198.60675,154.73943Z"/><path class="cls-6" d="M1096.52989,212.67627c-.03686.14789-.07025.29834-.11224.44238,0,0-46.111,7.73163-58.31592,4.10743-.72143,3.37213-1.70636,8.92852-2.84607,17.88336-2.40527,18.89837.34363,77.31152.6872,78.34234.07519.22565,3.22894.4513,8.10956.66608,4.36242.192,10.1065.37524,16.26379.5423,2.82263.07654,5.73035.14966,8.63446.21863,7.07483.168,14.11157.31109,19.77442.4187,7.18762.13659,12.15948.21594,12.15948.21594Z"/><path class="cls-6" d="M1102.88256,113.32214c-4.59558-.91912-1.83826-4.59558-1.83826-4.59558s2.38977-14.52215,2.57355-15.0736-4.59558-16.728-15.62506-16.08466c-11.02942.64343-15.62507,7.5368-19.853,11.76477s-1.65442,8.45593-.36762,12.13239c.63562,1.81616,1.58466,2.464,2.383,2.65661-.41132-1.19836-3.09273-2.8216.19055-3.94336,6.80514-2.325,16.91181-10.6618,16.91181-10.6618a51.09146,51.09146,0,0,1,6.25006,3.125c3.86029,2.20587,3.86029,7.90448,3.86029,7.90448s2.38971-2.94123,3.49267.36761-3.67651,8.45594-3.67651,8.45594-.91913,3.86029-1.103,4.96325c-.18377,1.103,1.28681,2.20587,2.94123,5.69855,0,0,.55145-2.022,2.38971-.36762.61047.54944.73291,2.50074.61938,4.89875,1.20776,2.51355,3.429,6.00091,6.89612,7.5805a22.51187,22.51187,0,0,0,4.4331-6.87262C1116.21556,117.82684,1107.4782,114.24127,1102.88256,113.32214Z"/><path class="cls-3" d="M1110.50554,132.71466a9.14727,9.14727,0,0,1-1.57806-.57129c-3.4671-1.57959-5.68836-5.067-6.89612-7.5805.11353-2.398-.00891-4.34931-.61938-4.89875-1.83826-1.65441-2.38971.36762-2.38971.36762a1.69012,1.69012,0,0,1-.25013,1.3233c-.79773,1.62909-3.12408,4.26593-6.12231,7.24372-1.51984,1.50946-3.20392,3.10077-4.949,4.69207-8.086,7.3736-17.35974,14.6698-16.43609,13.02777,1.11651-1.98486,4.77948-20.0368,4.77948-20.0368a8.66474,8.66474,0,0,0,.76147-3.20758l-1.06787-3.92944-.42016-1.546c-.20545-.337-.38788-.59894-.52228-.7779-.1333-.17749-.2218-.28186-.2218-.28186s-1.32441.94092-3.05286,2.23706c-.455-.04962-.86792-.09948-1.21722-.14935-4.81049-.68719-13.74427-.34357-17.1803,3.09247-2.70386,2.70386-8.38477,15.19336-11.68842,25.41711,2.30835-.03863,4.30585-.07507,5.79981-.11859a3.99569,3.99569,0,0,1,3.974,2.955l8.82806,32.76862a11.50147,11.50147,0,0,0-4.41754,1.75982,1.41121,1.41121,0,0,1,.493,1.02c0,1.63526,1.30817,4.57861-1.79871,5.72321-.112.04126-.51593-.06458-1.14209-.08356-2.12963-.06451-6.61377-.94688-11.31427-.94792l-6.25781,25.65452a5.18991,5.18991,0,0,0,2.50244,1.35859c12.2049,3.6242,58.31592-4.10743,58.31592-4.10743.042-.144.07538-.29449.11224-.44238,2.07288-8.32025-3.8919-22.57928-3.8919-22.57928s7.903-3.4361,10.99542-10.6518c3.09247-7.21576,15.46228-26.11413,17.86755-31.26825C1123.90618,143.02289,1117.37767,134.43268,1110.50554,132.71466Z"/><path class="cls-7" d="M1096.081,114.33319c.18384-1.103,1.103-4.96325,1.103-4.96325s4.77942-5.1471,3.67651-8.45594-3.49267-.36761-3.49267-.36761,0-5.69861-3.86029-7.90448a51.09146,51.09146,0,0,0-6.25006-3.125s-11.02065,9.068-16.91181,10.6618c-3.34921.90613-.60187,2.745-.19055,3.94336a3.95479,3.95479,0,0,1,.19055,1.0199c.18378,2.57355,2.75733,5.69855,3.49262,8.08826.29193.94885.64129,2.30218.95709,3.59069.1344.179.31683.44086.52228.7779l.42016,1.546,1.06787,3.92944a8.66474,8.66474,0,0,1-.76147,3.20758s-3.663,18.05194-4.77948,20.0368c-.92365,1.642,8.3501-5.65417,16.43609-13.02777,1.74506-1.5913,3.42914-3.18261,4.949-4.69207,2.99823-2.97779,5.32458-5.61463,6.12231-7.24372a1.69012,1.69012,0,0,0,.25013-1.3233C1097.36785,116.53906,1095.89727,115.43616,1096.081,114.33319Z"/><path class="cls-12" d="M1156.37546,110.93244s-2.38977.36767-2.75732-.73529c-.36768-1.103-2.75745-10.11035-6.06629-11.76477s-4.2279.36767-4.2279.36767-3.67652,5.88239-4.77954,4.77942c-1.10291-1.103-2.022-2.20587-3.125-3.49267-1.10291-1.28675-.55139-3.125-1.28675-4.04413-.73523-.91913,1.28675-1.103-.73523-.91913-2.02209.18384-.73535.18384-.73535-1.47058s-.36767-2.20587-1.47058-1.47058-1.83825-1.103-2.02209-2.57355-.55152.73529-1.83814-.36768c-1.28686-1.1029-1.83838-1.47058-2.38977-.18383a72.76868,72.76868,0,0,1-4.42908,6.51007c-.96179,5.61566-1.821,13.70239-1.821,14.62976,0,1.28674,2.57361,1.103,3.125,1.28674.55151.18384,4.04419,9.5589,4.04419,9.5589s2.57349.73529,3.30884.91913,5.14709-2.0221,5.14709-2.0221l6.44275,7.78.10669-.02752a16.26187,16.26187,0,0,0,6.396-3.29444l12.3894-10.4079Z"/><path class="cls-5" d="M1119.99022,90.10828c.08747-.32276.09717-.43091,0,0Z"/><path class="cls-10" d="M1051.20861,149.97278a3.99569,3.99569,0,0,0-3.974-2.955c-1.494.04352-3.49146.08-5.79981.11859-13.684.22913-38.65838.53876-39.2843,2.901-.821,3.098,9.81122,36.138,9.81122,36.138s5.35486.32318,12.26184.70611c-3.36877-3.009-6.94086-6.78351-5.55756-7.574,2.28931-1.30817,9.9748,6.37725,10.46534,5.88672s-3.761-8.50306-.81763-9.32068c2.94336-.81757,5.39618,8.176,7.849,8.99365a19.05216,19.05216,0,0,0,5.23266.81756s.02973-.05517.082-.1441c.331-.56305,1.65735-2.6134,3.35187-2.47217,1.96228.16352,2.1258,1.47168,5.06916.65406,2.25744-.62708,4.70147-.194,5.7207.77868a11.50147,11.50147,0,0,1,4.41754-1.75982Z"/><path class="cls-7" d="M1056.11217,185.52124a1.41121,1.41121,0,0,0-.493-1.02c-1.01923-.97272-3.46326-1.40576-5.7207-.77868-2.94336.81762-3.10688-.49054-5.06916-.65406-1.69452-.14123-3.02087,1.90912-3.35187,2.47217-.0523.08893-.082.1441-.082.1441a19.05216,19.05216,0,0,1-5.23266-.81756c-2.45282-.81763-4.90564-9.81122-7.849-8.99365-2.94336.81762,1.30816,8.83014.81763,9.32068s-8.176-7.19489-10.46534-5.88672c-1.3833.79046,2.18879,4.565,5.55756,7.574,2.20618,1.97052,5.772,3.07265,6.35442,3.3315.59308.26361,3.42164-.02661,8.10462-.00641,1.037.00446,2.10547.00617,3.1745.00641,4.7005.001,9.18464.88341,11.31427.94792.62616.019,1.03009.12482,1.14209.08356C1057.42034,190.09985,1056.11217,187.1565,1056.11217,185.52124Z"/><path class="cls-7" d="M1166.857,224.11408l-37.10955-1.03083s-1.14791,3.81785-3.39772,3.3184a52.95914,52.95914,0,0,0-.71136,20.27362c1.64429,11.5097,7.82491,41.96994,8.40168,49.51791.2241,2.93278,15.78479,28.61,16.77136,38.80432.98651,10.19433,1.6037,16.55127,1.6037,16.55127l45.093-.43762s-6.248-28.93879-8.55005-33.21387-3.28858-1.97308-2.95972-10.85205c.32886-8.87891,3.94629-25.65027,1.31543-34.52924-1.13258-3.82259,2.81011-18.06528,2.81122-29.01318.00128-12.70825-3.84415-21.99588-4.02606-21.45038C1184.72466,226.17566,1166.857,224.11408,1166.857,224.11408Z"/><path class="cls-3" d="M1199.49968,153.8465c-4.81042-16.49317-12.36987-21.30365-18.55481-30.58106-6.18481-9.27734-17.86749-7.903-17.86749-7.903l-2.7489-2.2334c-.2262.29553-.4516.577-.67713.86084L1147.262,124.39782a16.26136,16.26136,0,0,1-6.39608,3.29445l-.10663.02752a9.00192,9.00192,0,0,1-1.04719.18439s-3.77966,3.77966-4.46685,4.81048,2.06164,2.74884,2.06164,2.74884a40.10145,40.10145,0,0,1-6.18493,8.24658c-3.77967,3.77967-5.84131,7.21576-6.18494,16.49311-.34357,9.2774-1.718,22.33447-6.87213,35.04791s3.181,18.94855,4.21185,27.88232c.30383,2.63337,1.079,3.70276,2.01941,3.9115,2.24982.49945,5.45136-3.96167,5.45136-3.96167l37.10955,1.03083s17.86762,2.06158,19.24189-2.06165a23.78017,23.78017,0,0,0,.62353-5.43249,163.38681,163.38681,0,0,0-.62353-19.82264s11.68274-9.27734,16.49316-13.05706C1207.40264,179.96057,1204.31011,170.3396,1199.49968,153.8465Z"/><g id="key"><path class="cls-6" d="M1242.90273,42.0935v26.982c0,2.99848-39.16167,2.99848-39.16167,0V42.0935Z"/><path class="cls-13" d="M1228.15668,52.28481a4.84515,4.84515,0,0,0-9.66972,0,4.52675,4.52675,0,0,0,2.85313,4.13126V64.0078a1.91811,1.91811,0,0,0,1.91812,1.91811h.12722a1.91811,1.91811,0,0,0,1.91811-1.91811V56.41607A4.52677,4.52677,0,0,0,1228.15668,52.28481Z"/><path class="cls-6" d="M1239.39758,36.94025c-.76379-7.68158-7.68054-13.71527-16.07629-13.71527-.01209,0-.02368.0017-.03589.0017-.012,0-.02368-.0017-.03577-.0017-8.39563,0-15.3125,6.03369-16.07629,13.71527h.07642c-.04639.46612-.07642.9367-.07642,1.414v5.81811l3.75183.32434.21155-4.3258V38.35425c0-6.28357,5.44739-11.39606,12.14868-11.41443,6.70142.01837,12.1488,5.13086,12.1488,11.41443V40.1709l.21155,4.3258,3.75183-.32434V38.35425c0-.4773-.03015-.94788-.07654-1.414Z"/></g><path class="cls-5" d="M1095.67363,213.53481c-.03686.14789-.07025.29834-.11224.44238,0,0-46.111,7.73163-58.31592,4.10743-.72144,3.37213-1.70636,8.92852-2.84607,17.88336-2.40527,18.89837.34363,77.31152.6872,78.34234.07519.22565,3.22894.4513,8.10955.66608,4.36243.192,10.10651.37524,16.2638.5423,2.82263.07654,5.73034.14966,8.63446.21863,7.07483.168,14.11157.31109,19.77441.4187,7.18762.13659,12.15949.21594,12.15949.21594Z"/><path class="cls-6" d="M1102.02629,114.18069c-4.59558-.91913-1.83825-4.59559-1.83825-4.59559s2.38977-14.52215,2.57354-15.0736c.18384-.55146-4.59558-16.728-15.62506-16.08466-11.02942.64343-15.62506,7.5368-19.853,11.76477s-1.65441,8.45593-.36761,12.13239c.63562,1.81616,1.58466,2.464,2.383,2.65661-.41132-1.19836-3.09274-2.8216.19055-3.94336,6.80513-2.325,16.9118-10.6618,16.9118-10.6618a51.0906,51.0906,0,0,1,6.25006,3.125c3.86029,2.20587,3.86029,7.90448,3.86029,7.90448s2.38971-2.94122,3.49268.36761c1.1029,3.30884-3.67652,8.45594-3.67652,8.45594s-.91912,3.86029-1.103,4.96325c-.18378,1.103,1.2868,2.20587,2.94122,5.69855,0,0,.55145-2.022,2.38971-.36761.61047.54943.73291,2.50073.61939,4.89874,1.20776,2.51355,3.429,6.00091,6.89611,7.5805a22.51189,22.51189,0,0,0,4.43311-6.87262C1115.3593,118.68538,1106.62193,115.09981,1102.02629,114.18069Z"/><path class="cls-5" d="M1109.64928,133.5732a9.14684,9.14684,0,0,1-1.57807-.57129c-3.4671-1.57959-5.68835-5.067-6.89611-7.5805.11352-2.398-.00892-4.34931-.61939-4.89874-1.83826-1.65442-2.38971.36761-2.38971.36761a1.69006,1.69006,0,0,1-.25012,1.3233c-.79773,1.62909-3.12408,4.26593-6.12231,7.24372-1.51984,1.50946-3.20392,3.10077-4.949,4.69207-8.086,7.3736-17.35974,14.6698-16.4361,13.02778,1.11652-1.98487,4.77948-20.03681,4.77948-20.03681a8.66476,8.66476,0,0,0,.76148-3.20758l-1.06787-3.92944-.42017-1.546c-.20544-.337-.38788-.59894-.52228-.7779-.1333-.17749-.2218-.28186-.2218-.28186s-1.3244.94092-3.05285,2.23706c-.455-.04962-.86792-.09948-1.21723-.14935-4.81048-.68719-13.74426-.34357-17.1803,3.09247-2.70385,2.70386-8.38476,15.19336-11.68841,25.41711,2.30835-.03863,4.30585-.07507,5.7998-.11859a3.99568,3.99568,0,0,1,3.974,2.955l8.82807,32.76862a11.50149,11.50149,0,0,0-4.41755,1.75982,1.41118,1.41118,0,0,1,.49305,1.02c0,1.63526,1.30816,4.57862-1.79871,5.72321-.112.04126-.51593-.06458-1.14209-.08356-2.12964-.06451-6.61377-.94688-11.31427-.94792L1034.743,216.726a5.18991,5.18991,0,0,0,2.50244,1.35859c12.20489,3.6242,58.31592-4.10743,58.31592-4.10743.042-.144.07538-.29449.11224-.44238,2.07288-8.32025-3.89191-22.57928-3.89191-22.57928s7.903-3.4361,10.99543-10.6518c3.09247-7.21576,15.46228-26.11413,17.86755-31.26825C1123.04991,143.88143,1116.52141,135.29122,1109.64928,133.5732Z"/><path class="cls-5" d="M1095.22478,115.19173c.18384-1.103,1.103-4.96325,1.103-4.96325s4.77942-5.1471,3.67652-8.45594c-1.103-3.30883-3.49268-.36761-3.49268-.36761s0-5.69861-3.86029-7.90448a51.0906,51.0906,0,0,0-6.25006-3.125s-11.02065,9.06795-16.9118,10.6618c-3.34922.90613-.60187,2.745-.19055,3.94336a3.95565,3.95565,0,0,1,.19055,1.0199c.18377,2.57355,2.75732,5.69855,3.49261,8.08826.29193.94885.6413,2.30218.95709,3.59069.1344.179.31684.44086.52228.7779l.42017,1.546,1.06787,3.92944a8.66476,8.66476,0,0,1-.76148,3.20758s-3.663,18.05194-4.77948,20.03681c-.92364,1.642,8.3501-5.65418,16.4361-13.02778,1.74506-1.5913,3.42914-3.18261,4.949-4.69207,2.99823-2.97779,5.32458-5.61463,6.12231-7.24372a1.69006,1.69006,0,0,0,.25012-1.3233C1096.51158,117.3976,1095.041,116.2947,1095.22478,115.19173Z"/><path class="cls-5" d="M1158.79509,114.84847l-3.27588-3.05749s-2.38977.36767-2.75738-.73529c-.36768-1.103-2.75739-10.11036-6.06623-11.76478s-4.228.36768-4.228.36768-3.67646,5.88239-4.77942,4.77942-2.022-2.20587-3.125-3.49268c-1.103-1.28674-.55145-3.125-1.28681-4.04412-.73529-.91913,1.28681-1.103-.73529-.91913-2.022.18383-.73529.18383-.73529-1.47058s-.36761-2.20588-1.47058-1.47059-1.83825-1.103-2.02209-2.57354c-.18378-1.47058-.55146.73529-1.8382-.36768-1.2868-1.1029-1.83826-1.47058-2.38971-.18384a72.75463,72.75463,0,0,1-4.42914,6.51007c-.96173,5.61567-1.82092,13.7024-1.82092,14.62977,0,1.28674,2.57355,1.103,3.125,1.28674.55151.18384,4.04413,9.5589,4.04413,9.5589s2.57355.73529,3.30884.91913c.73535.18383,5.14709-2.0221,5.14709-2.0221l6.44275,7.78.10663-.02752a16.26133,16.26133,0,0,0,6.39609-3.29445Z"/><path class="cls-5" d="M1119.134,90.96682c.08746-.32276.09717-.43091,0,0Z"/><path class="cls-6" d="M1159.3795,84.21731c-2.94122-1.10291-.91913-.91913.36762-2.20588,1.2868-1.28674-1.8382-.91912-2.75733-2.3897s1.28675-.91913,2.022-1.28681c.73529-.36761-1.47058-2.022-3.49262-1.83819-2.02209.18377-2.94122-1.103-2.75738-2.94123s-1.65442-.36761-4.228.36768-5.33093-2.0221-7.5368-.91913-9.37506,1.65442-13.05152,3.67645c-3.67651,2.0221-11.21332,13.23535-10.29419,15.44129.63788,1.53094,1.27484-.38837,1.48261-1.155.09717-.43091.08746-.32276,0,0l-.012.052c-.36768,1.65442.18377,5.88239.18377,5.88239s.13458-.18152.35034-.47529a72.75463,72.75463,0,0,0,4.42914-6.51007c.55145-1.28674,1.10291-.91906,2.38971.18384,1.28674,1.103,1.65442-1.1029,1.8382.36768.18384,1.47058.91913,3.30884,2.02209,2.57354s1.47058-.18383,1.47058,1.47059-1.28674,1.65441.73529,1.47058c2.0221-.18384,0,0,.73529.91913.73536.91912.18384,2.75738,1.28681,4.04412,1.103,1.28681,2.022,2.38971,3.125,3.49268s4.77942-4.77942,4.77942-4.77942.91913-2.02209,4.228-.36768,5.69855,10.66181,6.06623,11.76478c.36761,1.103,2.75738.73529,2.75738.73529s2.38971-3.86029,2.94116-5.1471c.55146-1.28674.18384-4.04413.55146-4.96326.36767-.91912,1.103.18384,2.02209,0s-1.103-2.75732-.91913-3.67645,1.83826,1.47058,1.83826,1.47058a6.87788,6.87788,0,0,0-.18384-2.57354c-.36767-.91913,1.65442-4.04413,2.20587-6.25C1164.5266,88.44527,1162.32066,85.32027,1159.3795,84.21731Z"/><path class="cls-5" d="M1050.35234,150.83132a3.99568,3.99568,0,0,0-3.974-2.955c-1.494.04352-3.49145.08-5.7998.11859-13.684.22913-38.65839.53876-39.2843,2.901-.821,3.098,9.81121,36.138,9.81121,36.138s5.35486.32318,12.26185.70611c-3.36878-3.009-6.94086-6.78351-5.55756-7.574,2.28931-1.30817,9.97479,6.37725,10.46533,5.88672s-3.761-8.50306-.81763-9.32068c2.94336-.81757,5.39618,8.176,7.849,8.99365a19.05221,19.05221,0,0,0,5.23267.81756s.02972-.05517.082-.1441c.331-.56305,1.65735-2.6134,3.35187-2.47217,1.96228.16352,2.12579,1.47168,5.06915.65406,2.25745-.62708,4.70148-.194,5.7207.77868a11.50149,11.50149,0,0,1,4.41755-1.75982Z"/><path class="cls-5" d="M1055.25591,186.37978a1.41118,1.41118,0,0,0-.49305-1.02c-1.01922-.97272-3.46325-1.40576-5.7207-.77868-2.94336.81762-3.10687-.49054-5.06915-.65406-1.69452-.14123-3.02088,1.90912-3.35187,2.47217-.05231.08893-.082.1441-.082.1441a19.05221,19.05221,0,0,1-5.23267-.81756c-2.45282-.81763-4.90564-9.81122-7.849-8.99365-2.94335.81762,1.30817,8.83014.81763,9.32068s-8.176-7.19489-10.46533-5.88672c-1.3833.79046,2.18878,4.565,5.55756,7.574,2.20617,1.97052,5.772,3.07265,6.35442,3.3315.59308.26361,3.42164-.02661,8.10462-.00641,1.037.00446,2.10547.00617,3.1745.00641,4.7005.001,9.18463.88341,11.31427.94792.62616.019,1.03009.12482,1.14209.08356C1056.56407,190.9584,1055.25591,188.015,1055.25591,186.37978Z"/><path class="cls-5" d="M1166.00078,224.97262l-37.10956-1.03083s-1.1479,3.81785-3.39772,3.3184a52.95911,52.95911,0,0,0-.71135,20.27362c1.64429,11.5097,7.8249,41.96994,8.40167,49.51791.22411,2.93278,15.78479,28.61,16.77137,38.80432.98651,10.19434,1.6037,16.55127,1.6037,16.55127l45.09295-.43762s-6.248-28.93879-8.55005-33.21387-3.28857-1.97308-2.95971-10.85205c.32885-8.87891,3.94629-25.65027,1.31543-34.52924-1.13258-3.82259,2.81011-18.06528,2.81122-29.01318.00128-12.70825-3.84416-21.99588-4.02607-21.45038C1183.86839,227.0342,1166.00078,224.97262,1166.00078,224.97262Z"/><path class="cls-5" d="M1198.64342,154.705c-4.81043-16.49317-12.36987-21.30365-18.55481-30.58106-6.18482-9.27734-17.86749-7.903-17.86749-7.903l-2.7489-2.2334c-.2262.29553-.4516.577-.67713.86084l-12.38937,10.40789a16.26133,16.26133,0,0,1-6.39609,3.29445l-.10663.02752a9.002,9.002,0,0,1-1.04718.18439s-3.77966,3.77966-4.46686,4.81048,2.06165,2.74884,2.06165,2.74884a40.10128,40.10128,0,0,1-6.18494,8.24658c-3.77966,3.77967-5.84131,7.21576-6.18493,16.49311s-1.718,22.33447-6.87214,35.04791,3.181,18.94855,4.21186,27.88232c.30383,2.63337,1.079,3.70276,2.01941,3.9115,2.24981.49945,5.45135-3.96167,5.45135-3.96167l37.10956,1.03083s17.86761,2.06158,19.24188-2.06165a23.78,23.78,0,0,0,.62354-5.43249,163.38393,163.38393,0,0,0-.62354-19.82264s11.68274-9.27734,16.49317-13.05706C1206.54637,180.81911,1203.45384,171.19814,1198.64342,154.705Z"/><path class="cls-5" d="M1075.38058,121.7445a6.45756,6.45756,0,0,0,4.7527,1.64517c3.29032,0,8.957-2.19355,11.33334-5.11829s3.83872-4.5699,3.83872-4.5699"/><path class="cls-5" d="M1075.015,106.938a10.48454,10.48454,0,0,1,0,4.02151c-.36559,2.92473,3.83872.54838,3.83872.54838"/><path class="cls-5" d="M1076.66016,116.62622s7.129.36559,8.043-2.19355"/><path class="cls-5" d="M1070.66448,119.63466s-7.53122,4.48619-7.89681,6.67974,5.11828-1.64516,7.67743-1.27957,5.46424-.54167,4.74287,2.10551"/><path class="cls-5" d="M1101.1751,125.42141l-2.21384,11.67795s-3.916-7.97229-7.16769-7.64206"/><path class="cls-5" d="M1052.31511,192.01943l-2.16036.28429a4.90862,4.90862,0,0,0,.54839,3.65592c1.73267,2.599,34.99583-.50284,41.07858-5.00411"/><path class="cls-5" d="M1185.24266,197.65584s-25.41037,16.58339-30.16306,17.13178-14.07529-9.1398-12.24733-14.25808,18.27959-8.957,25.957-19.55916c0,0-.914-3.83872,3.83871-3.83872s14.62368,3.65592,9.1398,1.27957a65.09245,65.09245,0,0,1-6.94624-3.29032s.36559-1.27957,4.2043-3.10753-1.64516.73118-4.02151.36559-11.88173-26.871-11.88173-26.871"/><path class="cls-5" d="M1139.903,128.57833c-.54385,1.57479-2.5546,86.39208,2.74648,94.4351"/><path class="cls-5" d="M1124.08074,161.06173c.65474,1.62906,7.23539,24.29575,6.13862,32.88716s-3.38746,25.25459-1.32814,29.9929"/><path class="cls-14" d="M1143.01507,203.63707s-.73119,10.785,1.09677,13.1613,10.96776-2.01075,10.96776-2.01075S1144.66023,210.76611,1143.01507,203.63707Z"/><path class="cls-5" d="M1143.01507,203.63707s-.73119,10.785,1.09677,13.1613,10.96776-2.01075,10.96776-2.01075S1144.66023,210.76611,1143.01507,203.63707Z"/><path class="cls-5" d="M1162.22112,116.221c.56086,4.5303-14.27056,24.717-14.08777,22.1579s-7.76876-9.54362-7.76876-9.54362"/><path class="cls-5" d="M1169.24184,352.103c-.8892-1.24487-5.24625-12.53763-3.2011-15.29413s10.49249,3.02326,9.60329.35567c-1.77839-5.33516-12.093,3.55678-13.16007-16.00548s-14.58277-66.156-13.87142-75.75931"/><path class="cls-5" d="M1070.40849,147.17715s-6.09151,10.01457-6.09151,15.70541-5.13657,20.71738-5.13657,20.71738,18.21093-4.09193,23.32921-7.38226c4.25291-2.734,13.34411-26.13981,13.34411-26.13981"/><line class="cls-5" x1="1049.31389" y1="148.59947" x2="1056.03966" y2="135.56056"/><path class="cls-5" d="M1133.46025,120.79836s7.50453-2.48821,7.72569-3.37285"/><path class="cls-5" d="M1143.61869,102.60784s2.65391-1.99043,2.65391.22116.88464,8.18289-3.98087,8.84637"/><path class="cls-5" d="M1143.83985,106.58871s-.44232,2.43275-1.1058,2.65391"/><path class="cls-5" d="M1142.46764,99.65859l-23.61878.73766s.44232,9.731,1.76928,9.28869,1.32695-9.28869,1.32695-9.28869"/><circle class="cls-6" cx="1084.79035" cy="104.15596" r="0.88464"/><circle class="cls-6" cx="1071.5208" cy="104.37712" r="0.88464"/><path class="cls-5" d="M1040.53911,186.54329a11.91625,11.91625,0,0,1,4.44259,1.65315"/><path class="cls-5" d="M1223.96283,10.367c-29.46557,0-53.35217,17.32233-53.35217,38.69055v56.6103s12.78992-24.76154,27.28235-22.852c1.459.59381,2.95618,1.14422,4.49591,1.63848a70.73484,70.73484,0,0,0,21.57391,3.29371c29.46558,0,53.35218-17.32233,53.35218-38.6905S1253.42841,10.367,1223.96283,10.367Z"/></g></svg>