<svg xmlns="http://www.w3.org/2000/svg" xmlns:xlink="http://www.w3.org/1999/xlink" viewBox="0 0 841.88976 467.71654"><defs><style>.cls-1{fill:none;}.cls-2{clip-path:url(#clip-path);}.cls-3{fill:#4890ba;}.cls-4{opacity:0.24;}.cls-5{fill:#dceffa;}.cls-6{fill:#f5c65d;}.cls-7{fill:#e0635d;}.cls-8{fill:#54575c;}.cls-9{fill:#61a575;}.cls-10{fill:#fff;}</style><clipPath id="clip-path"><rect class="cls-1" x="-0.70585" y="-1.08833" width="843.30147" height="469.8932"/></clipPath></defs><g id="Layer_3" data-name="Layer 3"><g class="cls-2"><rect class="cls-3" x="-9.33101" y="-8.21989" width="851.92662" height="486.81521"/><g class="cls-4"><path class="cls-5" d="M1180.61719,2011.3623H-.895V-42.397H1180.61719Zm-1180.51221-1H1179.61719V-41.397H.105Z"/><rect class="cls-5" x="-0.39502" y="458.27637" width="1180.51221" height="1"/><rect class="cls-5" x="-0.39502" y="408.20898" width="1180.51221" height="1"/><rect class="cls-5" x="-0.39502" y="358.1416" width="1180.51221" height="1"/><rect class="cls-5" x="-0.39502" y="308.07422" width="1180.51221" height="1"/><rect class="cls-5" x="-0.39502" y="258.00684" width="1180.51221" height="1"/><rect class="cls-5" x="-0.39502" y="207.93945" width="1180.51221" height="1"/><rect class="cls-5" x="-0.39502" y="157.87207" width="1180.51221" height="1"/><rect class="cls-5" x="-0.39502" y="107.80518" width="1180.51221" height="1"/><rect class="cls-5" x="-0.39502" y="57.73779" width="1180.51221" height="1"/><rect class="cls-5" x="-0.39502" y="7.67041" width="1180.51221" height="1"/><rect class="cls-5" x="786.11328" y="-41.89697" width="1" height="2052.75928"/><rect class="cls-5" x="729.89844" y="-41.89697" width="1" height="2052.75928"/><rect class="cls-5" x="673.68359" y="-41.89697" width="1" height="2052.75928"/><rect class="cls-5" x="617.46875" y="-41.89697" width="1" height="2052.75928"/><rect class="cls-5" x="561.25391" y="-41.89697" width="1" height="2052.75928"/><rect class="cls-5" x="505.03906" y="-41.89697" width="1" height="2052.75928"/><rect class="cls-5" x="448.82422" y="-41.89697" width="1" height="2052.75928"/><rect class="cls-5" x="392.60938" y="-41.89697" width="1" height="2052.75928"/><rect class="cls-5" x="336.39453" y="-41.89697" width="1" height="2052.75928"/><rect class="cls-5" x="280.1792" y="-41.89697" width="1" height="2052.75928"/><rect class="cls-5" x="223.96436" y="-41.89697" width="1" height="2052.75928"/><rect class="cls-5" x="167.74951" y="-41.89697" width="1" height="2052.75928"/><rect class="cls-5" x="111.53467" y="-41.89697" width="1" height="2052.75928"/><rect class="cls-5" x="55.31982" y="-41.89697" width="1" height="2052.75928"/></g><path class="cls-6" d="M342.25049,433.97626s-155.52563-7.8773-210.0577-79.34152c-36.70659-48.10394,3.63671-71.65157,69.3117-122.73212C321.05352,138.92,472.96113-7.44625,591.17612-22.04069S795.49833-32.2568,896.2,99.09319s64.21555,237.88942-252.48387,375.07719c0,0-237.10721,11.00915-337.70854.18072S69.74281,446.84794,56.29894,319.00966C47.85781,238.74259,76.41757,202.53337,183.99116,157.471,313.02129,103.42043,526.96057-70.20235,526.96057-70.20235l42.32389,23.3511s-367.78,230.59221-411.5633,272.91609S78.354,301.80038,117.71371,366.65905,342.25049,433.97626,342.25049,433.97626Z"/><path class="cls-6" d="M361.59641-20.361S297.1676,30.46978,220.4358,75.47282,61.14447,151.88085,30.06323,198.50271c-16.755,25.13252-92.25417,251.0155,196.54231,287.27694L93.61835,483.28414s-147.73346-93.11381-106.29181-273.126c0,0-2.59011-31.08124,55.68721-81.58824,22.25947-19.29154,97.92361-49.57,148.93092-80.2932a1484.95724,1484.95724,0,0,0,145.04577-99.719Z"/><path class="cls-6" d="M209.02829-20.361S-42.02627,39.21137-67.514,186.84724,59.92482,536.51114,59.92482,536.51114l11.4695-2.59011C16.99279,456.81308-34.50928,366.45831-55.33229,273.41044-77.30071,175.24433-7.45012,92.86277,74.66624,45.89188,125.8346,16.62338,166.98126.11162,224.321-11.29563Z"/><path class="cls-6" d="M161.43468-29.2211S-105.75918,5.74529-131.24695,153.38116-11.303,528.74084-11.303,528.74084L.16648,526.15073c-54.40152-77.108-93.75475-203.31367-114.57776-296.36154C-136.3797,131.62308-55.367,72.14194,26.74933,25.17106c51.16836-29.26851,69.0041-32.82975,126.3438-44.237Z"/><path class="cls-7" d="M542.35513-37.18061S420.09891,46.08962,343.36711,91.09266,66.84653,216.60107,75.30886,271.99086c18.08982,118.4061,79.578,179.17188,368.37452,215.43332H287.45312s-315.03779-97.17151-208.8552-248.3239C119.84046,180.391,265.56534,118.00154,372.96863,58.20208,461.03469,9.1691,517.68719-43.75873,517.68719-43.75873Z"/><path class="cls-7" d="M345.01164-27.31344S248.0179,24.10189,152.60173,77.93643C86.62024,115.16369,18.12866,145.85029-3.62854,193.05347c-62.71458,136.062,108.53893,297.65977,108.53893,297.65977l39.46869-1.64453c-54.40152-77.108-122.251-92.78393-143.074-185.83179-8.107-36.22612-12.39986-79.00756,11.5117-111.828C53.70113,135.29206,143.54643,94.41747,195.35949,64.78019c51.16836-29.2685,111.828-52.62493,166.23692-85.14118Z"/><path class="cls-7" d="M146.10185-23.844S-108.79767,7.76171-128.399,155.39758-2.76058,522.42792-2.76058,522.42792h0c-41.83748-77.10795-96.677-197.57444-112.691-290.6223C-132.34638,133.63951-70.04359,74.15837-6.892,27.18748,32.459-2.081,105.32759-9.77852,149.42468-21.18578Z"/><path class="cls-8" d="M443.68359,481.10352H287.37793l-.07227-.02247a688.03793,688.03793,0,0,1-100.39257-41.93164c-30.37061-15.73632-55.98389-32.40429-76.12891-49.54-25.21484-21.44825-41.89209-43.70118-49.56836-66.14161C50.93994,293.42871,56.65039,262.65234,78.189,231.9917c30.8003-43.84522,120.53516-90.148,207.31592-134.92578,29.42432-15.18311,59.85059-30.88281,87.22071-46.12207C459.72461,2.50537,516.78027-50.416,517.3457-50.94482l.20313-.18946L543.54-44.20312l-.90332.61474c-1.22266.833-123.14746,83.79443-199.0166,128.291-19.07471,11.1875-46.19776,24.79248-74.91309,39.19629-88.75293,44.519-199.209,99.92431-192.90381,141.1958,10.252,67.10254,34.13867,107.13574,82.44824,138.17578,54.83545,35.2334,142.88526,58.93066,285.49463,76.83691Zm-156.15429-1H435.791C297.62549,462.2959,211.665,438.7793,157.71094,404.11133c-48.57959-31.21289-72.59619-71.44531-82.896-138.86621-6.41553-41.98975,104.40137-97.57569,193.44385-142.23975,28.70019-14.39648,55.80859-27.99414,74.85547-39.165C415.49609,41.38867,529.832-36.09863,541.16992-43.80029l-23.34472-6.2251C513.99609-46.499,457.70312,4.77588,373.21191,51.81787c-27.38379,15.24658-57.81738,30.9502-87.24853,46.13672C199.29,142.67725,109.6665,188.92285,79.00732,232.56689,57.66309,262.9502,51.99561,293.4248,62.16211,323.14453c17.26416,50.46777,77.61914,90.457,125.21094,115.11719A687.77618,687.77618,0,0,0,287.5293,480.10352Z"/><path class="cls-8" d="M104.72021,484.40137l-.15332-.14551c-.42871-.4043-43.26269-41.10254-77.87109-97.91016-20.33594-33.37988-33.89844-65.71191-40.312-96.09961-8.0249-38.02246-4.81738-73.08789,9.53369-104.22314,18.37842-39.87256,70.208-68.13037,125.08008-98.04785,10.27734-5.603,20.9043-11.397,31.3584-17.29541C246.687,17.45752,343.80762-34.062,344.77734-34.57617l.20948-.11084,17.71533,7.42627-.84961.50781C332.58008-9.2583,301.31494,5.67432,271.07959,20.11523c-26.6543,12.73047-51.83008,24.75489-75.47217,38.27784-9.44385,5.40185-20.19971,11.20361-31.58691,17.3457C111.70264,103.959,46.59082,139.08008,13.22119,184.88232-11.71338,219.10693-5.24316,264.86523,1.793,296.30664c12.8667,57.49609,43.20166,84.88574,78.32666,116.60059,21.60254,19.50488,43.94092,39.67382,64.668,69.05273l.52881.749ZM345.03662-33.58154c-5.10986,2.71191-99.98291,53.10888-192.18945,105.13232-10.46,5.90186-21.09033,11.69776-31.37061,17.30225C66.75342,118.689,15.06543,146.87012-3.17432,186.44189c-14.25781,30.93213-17.44238,65.7837-9.46582,103.58643,6.3877,30.27441,19.90576,62.499,40.17871,95.77832,33.501,54.99512,74.72657,94.86426,77.563,97.57715l38.33838-1.59668c-20.51416-28.88281-42.61279-48.83594-63.99023-68.1377-35.252-31.8291-65.69629-59.31738-78.63233-117.124-5.0459-22.54785-7.03613-40.76269-6.26269-57.32422,1.02051-21.854,6.86181-39.81445,17.85791-54.90771C45.916,138.30762,111.13867,103.12695,163.5459,74.85889c11.38183-6.13916,22.13183-11.938,31.56543-17.334,23.67383-13.5415,48.86572-25.57324,75.53711-38.312C300.57031,4.92188,331.502-9.852,360.48926-27.104Z"/><path class="cls-8" d="M-3.17773,515.88281A1083.4273,1083.4273,0,0,1-73.38428,387.665c-19.67138-42.58692-34.521-82.73535-44.13672-119.3291-12.02636-45.77-15.853-86.085-11.37353-119.8252,4.4873-33.79736,21.75488-64.27881,51.32324-90.59765C-53.94678,36.88428-22.459,18.45215,16.01709,3.12793,81.49414-22.9502,145.40283-31.082,146.04053-31.16113L146.25-31.187l4.26758,3.41406-.96729.25c-11.13134,2.8794-24.11914,5.52832-37.86963,8.332-41.686,8.501-88.93457,18.13623-118.27441,39.959C-72.66553,69.91064-131.52295,128.65332-114.959,224.8999-99.55713,314.38867-46.67529,433.62207-2.32129,515.36816ZM145.95508-30.14209c-4.082.53174-66.09717,8.917-129.58594,34.20605C-21.99414,19.34521-53.37939,37.71582-76.91357,58.6665c-29.37989,26.15332-46.53516,56.42579-50.98975,89.97608-4.46191,33.6084-.644,73.7915,11.34766,119.43164,9.59961,36.53613,24.42773,76.62695,44.07324,119.1582A1117.81357,1117.81357,0,0,0-9.57471,503.94727c-42.95752-81.18165-91.67968-193.52442-106.36963-278.87745-7.70654-44.77929.25342-84.64111,24.33545-121.86425,11.874-18.35352,32.2002-44.40137,84.41846-83.24024C22.32812-1.98975,69.69238-11.64893,111.481-20.17041c13.33984-2.7207,25.96093-5.29443,36.84961-8.07178Z"/><path class="cls-7" d="M827.75,208.775c-2.11938-29.318-13.68478-66.96773-41.02585-82.21815-12.15226-6.77833-26.03334-9.79951-39.823-11.66216-87.19931-11.77847-185.624,9.69353-266.54529,41.9782C440.651,172.71371,401.926,191.59656,366.34036,215.40382c-19.48087,13.03291-37.63462,28.01585-50.09545,48.17253a95.16211,95.16211,0,0,0-11.77473,69.4638c5.68282,27.02778,26.62841,46.29809,51.90058,55.17941,20.0566,7.04851,42.97364,5.847,63.90672,5.22384,46.50428-1.38438,93.90113-5.48353,139.46686-15.11851,41.57291-8.79071,84.22334-26.80543,112.338-59.878,14.32615-16.8525,25.72066-36.0699,30.6708-57.84016,4.01484-17.65665-5.39727-38.38509-24.22993-42.6745-30.40875-6.92605,6.22056,24.19022-4.16176,44.65077-12.5658,24.76358-44.635,58.2065-80.22242,68.76208-28.643,8.49579-64.79676,15.56529-94.64,16.97079a540.7757,540.7757,0,0,1-106.531-5.93618c-18.93538-2.90683-38.92789-10.93664-47.77917-27.92644-9.13211-17.52881-3.30042-39.94094,9.31677-55.15479s30.7765-24.62067,48.78855-32.7583c26.97107-12.18522,131.002-49.98819,156.2885-56.47544,53.55292-13.739,161.855-20.83546,209.87741,19.69191,39.02577,32.93488,15.87721,80.18167-5.31024,112.79164-7.90564,12.16772-18.88685,22.00482-30.21889,31.0679-64.288,51.416-143.325,78.90661-224.92839,85.388-40.611,3.22553-81.5287,1.56607-121.9152-3.53636-37.00762-4.67555-82.20253-8.58169-115.669-25.99592-18.68212-9.72121-34.99235-25.89851-40.20907-46.30216-7.57857-29.64135,9.0954-58.68658,30.69738-77.30766,25.26333-21.7772,50.90469-44.34883,75.2811-67.36866,34.35487-32.443,69.30987-64.2827,105.62233-94.53159,38.883-32.3902,83.53336-58.38869,131.77487-74.00217C628.53607,12.4982,727.88089-.89086,780.60871,18.322c87.84194,32.00766,95.40528,83.03022,123.38122,68.33422C919.62629,78.4423,854.2598,10.018,842.55559,3.31944,744.07181-53.0434,581.317-37.33,490.53388,27.47365c-33.40164,23.84308-66.304,48.37467-99.08287,73.064-30.10981,22.679-62.12427,42.23228-91.01309,66.6872-46.55812,39.41232-93.91518,81.66211-135.4097,126.30546-8.2708,8.89844-15.59,19.4372-17.14578,31.48563-2.2948,17.7712,10.11619,27.73693,23.36635,36.53669C221.36258,394.83442,274.846,407.859,333.62048,418.2691,412.52256,432.24423,495.38013,436.1035,575.729,425.18,656.3704,414.2168,732.64888,395.358,786.04114,330.03889,813.9116,295.94269,830.96469,253.24664,827.75,208.775Z"/><path class="cls-8" d="M484.31055,429.00293a838.99025,838.99025,0,0,1-146.23-13.27344c-64.86524-11.48926-114.68555-24.99707-162.561-56.791-13.21924-8.7793-25.9292-18.87012-23.58594-37.01856,1.32959-10.2959,6.98047-20.68457,17.27588-31.76172C214.35889,241.583,265.314,197.12061,304.66211,163.81152c17.75244-15.02734,36.99805-28.4248,55.60986-41.38134,11.70459-8.14747,23.80713-16.57227,35.42578-25.32373C425.03516,75.00977,459.75,49.04883,494.791,24.03516,538.90918-7.458,602.10156-28.45459,668.166-33.57129,736.76562-38.88477,800.4043-27.01465,847.35059-.146c10.75879,6.15625,71.05078,65.30567,70.73339,82.89063a4.63261,4.63261,0,0,1-2.47265,4.35449c-15.18945,7.97559-31.89063-4.9707-55.00586-22.89062-19.67383-15.252-44.1582-34.23291-75.41895-45.416-23.96191-8.57129-60.36328-11.87793-102.49609-9.30469-37.07813,2.2627-75.7334,8.96045-103.4043,17.916-46.53515,15.061-90.81445,39.92822-131.6084,73.91064C415.74121,127.918,382.186,157.94971,342.07861,195.8252c-26.66845,25.18408-54.249,49.24023-75.29785,67.38378-30.31445,26.13086-35.65234,56.8086-30.53955,76.80469,4.7207,18.46582,19.28418,35.22656,39.95557,45.9834,29.85156,15.5332,68.9917,20.28125,103.52441,24.4707,4.06738.49317,8.06738.97852,11.97608,1.47266,42.59668,5.38281,83.5791,6.57227,121.8125,3.53418C599.2373,408.665,676.92188,379.17578,738.166,330.19434c10.29785-8.23633,21.92871-18.3545,30.1123-30.9502,11.45117-17.624,19.6709-39.8291,21.98828-59.39941,1.96289-16.57032.68164-39.16944-16.56738-52.72657C756.02246,173.2251,720.7627,163.833,674.415,160.6709c-40.05664-2.73438-83.2959-.04541-110.16113,6.84668-26.19629,6.7207-130.22461,44.70849-156.20655,56.44678-16.67773,7.53466-35.563,16.89013-48.60937,32.62158-15.99756,19.29-16.17676,41.32422-9.2583,54.60449,10.04394,19.2793,34.01611,25.60742,47.41162,27.66309a537.33754,537.33754,0,0,0,106.43115,5.93164c36.7207-1.7295,65.94141-7.06739,89.33008-16.31739,37.38281-14.78613,66.74707-38.88281,80.5625-66.11132,4.41308-8.69629.89844-20.23926-1.92578-29.51319-2.33594-7.67236-4.35449-14.29785-1.41309-17.45752,2.0127-2.16308,6.01856-2.47314,12.60547-.97217,8.96094,2.04053,16.42383,7.92823,21.01367,16.57715a39.22008,39.22008,0,0,1,3.59278,26.69483c-4.5,19.791-14.8545,39.32324-30.77735,58.05371-17.12988,20.15039-50.57226,46.9248-112.61523,60.043-40.64356,8.59472-86.293,13.54394-139.55567,15.12988l-3.75537.11523c-20.34424.63379-41.38086,1.293-60.33252-5.36718-27.41308-9.63477-46.936-30.40039-52.22363-55.54883-5.05322-24.03418-.73828-49.48535,11.83887-69.8291,10.7251-17.35059,26.2207-32.2544,50.24267-48.32569,32.52881-21.7622,69.854-40.92383,114.10791-58.57959,54.58106-21.77636,161.81934-56.1914,266.79785-42.00927,11.66309,1.57519,26.75,4.33105,39.999,11.72119,12.61621,7.03711,22.77246,19.17236,30.18555,36.06933,5.96875,13.604,9.90918,30.13526,11.0957,46.54932,3.01758,41.7417-11.835,84.93213-41.82031,121.6167-24.66114,30.16992-55.78125,52.44629-95.13965,68.10156-38.98731,15.50879-82.2002,22.69238-115.49219,27.21777A712.99277,712.99277,0,0,1,484.31055,429.00293ZM699.89941-33.81152q-15.60643,0-31.65625,1.2373C602.35547-27.47168,539.34668-6.5415,495.37207,24.84863,460.33984,49.856,425.63086,75.8125,396.29932,97.90527c-11.6333,8.7627-23.74414,17.19287-35.45606,25.34571-18.59277,12.94336-37.81885,26.32666-55.53467,41.32373-39.32714,33.291-90.25341,77.728-135.3667,126.26513-10.14843,10.918-15.71435,21.127-17.01611,31.209-2.27051,17.5791,10.18994,27.45117,23.14649,36.05566,47.73144,31.69922,97.44384,45.17383,162.1831,56.64063,84.35986,14.94336,165.76416,17.26562,241.95361,6.9082,33.23536-4.51855,76.3711-11.68848,115.25684-27.15625,39.19629-15.5918,70.18555-37.77148,94.73633-67.80566,29.82226-36.48536,44.59473-79.42676,41.5957-120.91162-3.28027-45.38672-23.21094-72.02344-40.76953-81.81788-13.10254-7.3081-28.07129-10.03955-39.64746-11.603-104.74707-14.15039-211.80274,20.20752-266.292,41.94677-44.18848,17.6294-81.45313,36.75928-113.92334,58.48194-23.897,15.98779-39.30127,30.79736-49.94776,48.02-12.44336,20.12793-16.71191,45.3125-11.71093,69.09863,5.21484,24.80273,24.49609,45.293,51.57714,54.81055,18.77442,6.59765,39.71485,5.94043,59.96924,5.31152l3.75733-.11621c53.20215-1.584,98.793-6.52637,139.37793-15.1084,34.09277-7.208,81.208-23.41894,112.06054-59.71289,15.81739-18.60547,26.10059-37.99414,30.56446-57.627,3.82519-16.82422-4.84668-37.74658-23.8545-42.0752-6.11718-1.39355-9.92968-1.17138-11.65136.67871-2.54785,2.7378-.6084,9.10791,1.63867,16.48438,2.876,9.44629,6.45605,21.20215,1.86133,30.25781-13.92578,27.44238-43.48047,51.71289-81.08789,66.58789-23.49219,9.292-52.81739,14.65137-89.65039,16.38574a537.92505,537.92505,0,0,1-106.6294-5.9414c-13.583-2.085-37.89941-8.51856-48.147-28.18848-7.07178-13.57422-6.915-36.0625,9.37549-55.706,13.18213-15.89551,32.1875-25.31348,48.96679-32.894,26.00635-11.74951,130.14307-49.77539,156.37061-56.50439,26.959-6.916,70.32422-9.61377,110.47754-6.876,62.80273,4.28467,89.50586,18.542,99.833,26.65918,17.61425,13.84375,18.93652,36.80567,16.94336,53.63086-2.335,19.71484-10.61231,42.0791-22.14356,59.82617-8.26074,12.71485-19.96484,22.90039-30.32519,31.18653C677.38965,380.082,599.5166,409.64648,513.58984,416.4707c-38.30175,3.042-79.35351,1.85157-122.01757-3.53808-3.90723-.49414-7.90577-.97852-11.97168-1.47168-34.61719-4.2002-73.85254-8.96-103.86573-24.57715-20.92334-10.8877-35.67138-27.88086-40.4624-46.62207-3.57422-13.97852-2.08252-28.48438,4.43359-43.11328,5.63868-12.66016,14.77491-24.65723,26.42188-34.69727,21.04053-18.13672,48.61035-42.18262,75.26416-67.35254,40.123-37.89062,73.69238-67.93506,105.645-94.55273,40.89258-34.06445,85.28418-58.99317,131.94043-74.09326,27.74609-8.98047,66.49512-15.69532,103.65234-17.96289,42.26465-2.57959,78.80762.7456,102.89258,9.36132,31.41211,11.23633,55.96582,30.272,75.69531,45.5669,22.82129,17.69189,39.3125,30.47412,53.92871,22.7959a3.65368,3.65368,0,0,0,1.9375-3.48731c.30176-16.73047-59.71484-75.9873-70.22949-82.00439C807.3916-21.86279,756.06055-33.81152,699.89941-33.81152Z"/><rect class="cls-8" x="0.53687" y="27.96233" width="212.15933" height="106.90199"/><path class="cls-9" d="M226.38788,205.45788s1.42678-4.69526,23.35469-4.0407c4.94349.14757,12.25551,3.23737,15.502,3.60867,23.33885,2.66923,10.63268,5.71281,45.59117,1.29607,14.19308-1.79319,24.1572,2.09,34.2061,2.08387,18.14513-.01112,32.6263-2.25066,44.82878.66076,18.9603,4.52378,35.83373,3.5853,50.59757,3.507s42.69279,16.89585,58.3994,13.596c0,0-1.442,6.4865,1.13088,10.75586s6.21347,15.66044,2.26584,17.656-24.77105-.71472-26.14149,5.22239-4.75225,24.33308-14.86668,28.72956-13.08777,5.03179-28.84392,7.11568-13.08283.09035-24.97248,6.2008-22.00372-3.82468-30.37734-3.97715-7.17067,4.30452-15.45119,3.596-11.75358-10.01278-20.50841-6.97591-8.06361,4.95822-24.10044,3.6491-14.16785-4.24553-27.53906-1.95913-10.87069,10.0328-28.15777,5.83232-30.75831-2.52095-38.25948-4.01528-14.10016,5.14143-7.50116-9.67638,15.35431-28.30722,8.82264-36.24516-19.49546-17.65365-17.26823-23.59611,17.41208-5.89693,17.28221-12.48809A22.83328,22.83328,0,0,1,226.38788,205.45788Z"/><path class="cls-8" d="M394.13574,302.13086c-4.667.001-9.00488-1.73438-13.0039-3.333-3.31739-1.32617-6.45118-2.5791-9.3042-2.63086a12.12158,12.12158,0,0,0-7.37354,1.86719,11.87256,11.87256,0,0,1-8.11084,1.72656c-3.67236-.31347-6.38721-2.22363-9.01269-4.07129-3.35157-2.3584-6.51807-4.585-11.28907-2.92968-1.88183.65234-3.32421,1.2539-4.59668,1.7832-4.67627,1.94922-7.02392,2.92871-19.70849,1.8916a86.21864,86.21864,0,0,1-12.6709-1.88769c-4.32715-.93555-6.71143-1.45118-14.74316-.07618a26.15571,26.15571,0,0,0-10.27539,4.02735c-4.0669,2.4707-7.27881,4.42187-18.085,1.79785-10.84961-2.63672-20.08593-2.94336-27.50683-3.18848a72.57687,72.57687,0,0,1-10.73194-.82324,18.393,18.393,0,0,0-5.90478.04394c-1.98584.24415-3.55274.43946-4.313-.58886-.91846-1.24024-.27978-3.90332,2.35742-9.82422,1.19825-2.69141,2.47071-5.34473,3.70117-7.91113,5.54688-11.56934,10.3379-21.55957,5.1919-27.81348-1.877-2.28125-4.34863-4.76953-6.73828-7.17676-6.3291-6.37207-12.30664-12.3916-10.61182-16.9126,1.11914-2.98681,5.12988-4.51074,9.0083-5.98486,4.27051-1.62353,8.30469-3.15674,8.24219-6.31787a23.3767,23.3767,0,0,1,2.04687-10.74756c.27344-.72266,2.77833-4.96289,23.82911-4.33935,3.02343.09033,6.81836,1.229,10.167,2.23291a37.89737,37.89737,0,0,0,5.37646,1.37939,106.08254,106.08254,0,0,1,14.20411,2.44727c5.89843,1.40576,7.67724,1.82959,31.26806-1.15088,8.8335-1.1167,16.15283-.03418,22.61035.92138a80.069,80.069,0,0,0,11.63575,1.1587h.022c5.80762-.00342,11.166-.23291,16.34814-.45459,10.86035-.46485,20.23877-.86573,28.59766,1.1289,16.40137,3.91358,31.34521,3.72119,44.5293,3.55469,2.01953-.02588,4.00293-.05127,5.94921-.06152l.10547-.00049c6.52832,0,15.42285,3.19629,24.83789,6.5791,12.11817,4.35449,24.64844,8.85547,33.35645,7.02832l.75879-.15967-.168.75733c-.01367.063-1.36719,6.34472,1.07129,10.38916,1.98633,3.29834,5.04,11.72119,3.79,16.062a3.50071,3.50071,0,0,1-1.72754,2.29883c-1.52344.76953-5.1582.87793-9.36621,1.00293-6.63574.19628-15.72461.46582-16.51367,3.88574-.09668.4209-.20411.90332-.32325,1.43945-1.55664,7.01758-5.20117,23.4502-14.831,27.63672-10.29981,4.47656-13.24024,5.07031-28.97852,7.15234-4.084.54-6.9917.8125-9.11523,1.01075-6.17188.5791-6.96436.65332-15.69385,5.13867A17.83883,17.83883,0,0,1,394.13574,302.13086ZM371.417,295.16309c.14063,0,.28321.001.4292.0039,3.03565.05567,6.252,1.34082,9.65674,2.70215,6.08252,2.43359,12.97607,5.1875,20.48291,1.33106,8.90088-4.5752,9.71582-4.65137,16.05762-5.24512,2.2334-.209,5.0122-.46973,9.07763-1.00781,15.61719-2.06543,18.53125-2.65332,28.71094-7.07813,9.16211-3.98242,12.72949-20.06641,14.25293-26.93555.12012-.53906.22754-1.02441.3252-1.44726.96289-4.17188,9.72656-4.43164,17.459-4.66113,3.918-.11622,7.62012-.22559,8.94434-.89551a2.54825,2.54825,0,0,0,1.21777-1.68262c1.07129-3.72266-1.50879-11.65625-3.68652-15.26953-2.15528-3.57715-1.62891-8.52832-1.32715-10.38672-8.93067,1.50879-21.25-2.91943-33.17285-7.20361-9.32911-3.35254-18.14453-6.52-24.499-6.52l-.09961.00049c-1.94433.01025-3.9248.03564-5.94238.06152-13.24072.1665-28.252.36035-44.77441-3.582-8.22119-1.96143-17.53614-1.56348-28.32227-1.10205-5.19238.22168-10.562.45166-16.39014.45508H339.794a80.82906,80.82906,0,0,1-11.78223-1.16944c-6.39356-.94629-13.64063-2.01855-22.33887-.91846-23.76855,3.002-25.59131,2.56836-31.62451,1.13135a105.29116,105.29116,0,0,0-14.08594-2.42676,38.1592,38.1592,0,0,1-5.55029-1.41455c-3.28955-.98681-7.01807-2.105-9.91016-2.19091-20.90185-.6294-22.85009,3.66259-22.86718,3.70556l-.03223.07227a22.63428,22.63428,0,0,0-1.94629,10.28955c.07617,3.86523-4.48047,5.59717-8.88721,7.272-3.67041,1.395-7.46631,2.83789-8.42675,5.40088-1.46973,3.9209,4.55664,9.98877,10.38476,15.85791,2.40625,2.42285,4.894,4.92773,6.80127,7.24609,5.55078,6.74512.63232,17.00293-5.0625,28.87989-1.22754,2.56054-2.49707,5.208-3.68994,7.88574-1.45068,3.25879-3.28516,7.71777-2.4668,8.82324.41309.55957,1.791.3877,3.38721.19141a19.18235,19.18235,0,0,1,6.22217-.03223,72.08176,72.08176,0,0,0,10.56982.80371c7.4668.24805,16.75977.55567,27.71,3.21582,10.40381,2.5293,13.45947.67188,17.3291-1.67969a27.04508,27.04508,0,0,1,10.626-4.15917c8.22217-1.40528,10.82031-.84571,15.12354.085a85.46311,85.46311,0,0,0,12.54052,1.86914c12.44239,1.01562,14.71582.06836,19.24268-1.81836,1.28564-.53516,2.74316-1.14258,4.65332-1.80567,5.25732-1.82422,8.78271.65821,12.19238,3.05664,2.51709,1.77149,5.11963,3.60254,8.52246,3.89356a10.92315,10.92315,0,0,0,7.53321-1.60059A12.9803,12.9803,0,0,1,371.417,295.16309Z"/><path class="cls-8" d="M394.13574,302.13086c-4.667.001-9.00488-1.73438-13.0039-3.333-3.31739-1.32617-6.45118-2.5791-9.3042-2.63086a12.12158,12.12158,0,0,0-7.37354,1.86719,11.87256,11.87256,0,0,1-8.11084,1.72656c-3.67236-.31347-6.38721-2.22363-9.01269-4.07129-3.35157-2.3584-6.51807-4.585-11.28907-2.92968-1.88183.65234-3.32421,1.2539-4.59668,1.7832-4.67627,1.94922-7.02392,2.92871-19.70849,1.8916a86.21864,86.21864,0,0,1-12.6709-1.88769c-4.32715-.93555-6.71143-1.45118-14.74316-.07618a26.15571,26.15571,0,0,0-10.27539,4.02735c-4.0669,2.4707-7.27881,4.42187-18.085,1.79785-10.84961-2.63672-20.08593-2.94336-27.50683-3.18848a72.57687,72.57687,0,0,1-10.73194-.82324,18.393,18.393,0,0,0-5.90478.04394c-1.98584.24415-3.55274.43946-4.313-.58886-.91846-1.24024-.27978-3.90332,2.35742-9.82422,1.19825-2.69141,2.47071-5.34473,3.70117-7.91113,5.54688-11.56934,10.3379-21.55957,5.1919-27.81348-1.877-2.28125-4.34863-4.76953-6.73828-7.17676-6.3291-6.37207-12.30664-12.3916-10.61182-16.9126,1.11914-2.98681,5.12988-4.51074,9.0083-5.98486,4.27051-1.62353,8.30469-3.15674,8.24219-6.31787a23.3767,23.3767,0,0,1,2.04687-10.74756c.27344-.72266,2.77833-4.96289,23.82911-4.33935,3.02343.09033,6.81836,1.229,10.167,2.23291a37.89737,37.89737,0,0,0,5.37646,1.37939,106.08254,106.08254,0,0,1,14.20411,2.44727c5.89843,1.40576,7.67724,1.82959,31.26806-1.15088,8.8335-1.1167,16.15283-.03418,22.61035.92138a80.069,80.069,0,0,0,11.63575,1.1587h.022c5.80762-.00342,11.166-.23291,16.34814-.45459,10.86035-.46485,20.23877-.86573,28.59766,1.1289,16.40137,3.91358,31.34521,3.72119,44.5293,3.55469,2.01953-.02588,4.00293-.05127,5.94921-.06152l.10547-.00049c6.52832,0,15.42285,3.19629,24.83789,6.5791,12.11817,4.35449,24.64844,8.85547,33.35645,7.02832l.75879-.15967-.168.75733c-.01367.063-1.36719,6.34472,1.07129,10.38916,1.98633,3.29834,5.04,11.72119,3.79,16.062a3.50071,3.50071,0,0,1-1.72754,2.29883c-1.52344.76953-5.1582.87793-9.36621,1.00293-6.63574.19628-15.72461.46582-16.51367,3.88574-.09668.4209-.20411.90332-.32325,1.43945-1.55664,7.01758-5.20117,23.4502-14.831,27.63672-10.29981,4.47656-13.24024,5.07031-28.97852,7.15234-4.084.54-6.9917.8125-9.11523,1.01075-6.17188.5791-6.96436.65332-15.69385,5.13867A17.83883,17.83883,0,0,1,394.13574,302.13086ZM371.417,295.16309c.14063,0,.28321.001.4292.0039,3.03565.05567,6.252,1.34082,9.65674,2.70215,6.08252,2.43359,12.97607,5.1875,20.48291,1.33106,8.90088-4.5752,9.71582-4.65137,16.05762-5.24512,2.2334-.209,5.0122-.46973,9.07763-1.00781,15.61719-2.06543,18.53125-2.65332,28.71094-7.07813,9.16211-3.98242,12.72949-20.06641,14.25293-26.93555.12012-.53906.22754-1.02441.3252-1.44726.96289-4.17188,9.72656-4.43164,17.459-4.66113,3.918-.11622,7.62012-.22559,8.94434-.89551a2.54825,2.54825,0,0,0,1.21777-1.68262c1.07129-3.72266-1.50879-11.65625-3.68652-15.26953-2.15528-3.57715-1.62891-8.52832-1.32715-10.38672-8.93067,1.50879-21.25-2.91943-33.17285-7.20361-9.32911-3.35254-18.14453-6.52-24.499-6.52l-.09961.00049c-1.94433.01025-3.9248.03564-5.94238.06152-13.24072.1665-28.252.36035-44.77441-3.582-8.22119-1.96143-17.53614-1.56348-28.32227-1.10205-5.19238.22168-10.562.45166-16.39014.45508H339.794a80.82906,80.82906,0,0,1-11.78223-1.16944c-6.39356-.94629-13.64063-2.01855-22.33887-.91846-23.76855,3.002-25.59131,2.56836-31.62451,1.13135a105.29116,105.29116,0,0,0-14.08594-2.42676,38.1592,38.1592,0,0,1-5.55029-1.41455c-3.28955-.98681-7.01807-2.105-9.91016-2.19091-20.90185-.6294-22.85009,3.66259-22.86718,3.70556l-.03223.07227a22.63428,22.63428,0,0,0-1.94629,10.28955c.07617,3.86523-4.48047,5.59717-8.88721,7.272-3.67041,1.395-7.46631,2.83789-8.42675,5.40088-1.46973,3.9209,4.55664,9.98877,10.38476,15.85791,2.40625,2.42285,4.894,4.92773,6.80127,7.24609,5.55078,6.74512.63232,17.00293-5.0625,28.87989-1.22754,2.56054-2.49707,5.208-3.68994,7.88574-1.45068,3.25879-3.28516,7.71777-2.4668,8.82324.41309.55957,1.791.3877,3.38721.19141a19.18235,19.18235,0,0,1,6.22217-.03223,72.08176,72.08176,0,0,0,10.56982.80371c7.4668.24805,16.75977.55567,27.71,3.21582,10.40381,2.5293,13.45947.67188,17.3291-1.67969a27.04508,27.04508,0,0,1,10.626-4.15917c8.22217-1.40528,10.82031-.84571,15.12354.085a85.46311,85.46311,0,0,0,12.54052,1.86914c12.44239,1.01562,14.71582.06836,19.24268-1.81836,1.28564-.53516,2.74316-1.14258,4.65332-1.80567,5.25732-1.82422,8.78271.65821,12.19238,3.05664,2.51709,1.77149,5.11963,3.60254,8.52246,3.89356a10.92315,10.92315,0,0,0,7.53321-1.60059A12.9803,12.9803,0,0,1,371.417,295.16309Z"/><circle class="cls-10" cx="351.05447" cy="166.30333" r="28.89569"/><path class="cls-7" d="M353.47322,128.43456a39.55006,39.55006,0,0,0-39.55,39.55014c0,21.84287,39.55,62.872,39.55,62.872s39.55-41.02913,39.55-62.872A39.55006,39.55006,0,0,0,353.47322,128.43456Zm0,68.04632a29.465,29.465,0,1,1,29.465-29.46508A29.465,29.465,0,0,1,353.47322,196.48088Z"/><path class="cls-8" d="M352.15332,231.0498l-.35986-.373a298.23467,298.23467,0,0,1-19.813-23.28906c-13.18994-17.3252-19.87744-30.75977-19.87744-39.93018a40.05,40.05,0,0,1,80.10009,0c0,9.17041-6.6875,22.605-19.877,39.93018a298.23467,298.23467,0,0,1-19.813,23.28906Zm0-102.64209A39.09433,39.09433,0,0,0,313.103,167.45752c0,20.2876,35.08642,57.95752,39.05029,62.147,3.96387-4.18945,39.0498-41.86133,39.0498-62.147A39.09391,39.09391,0,0,0,352.15332,128.40771Zm0,68.0459a29.96484,29.96484,0,1,1,29.96484-29.96484A29.999,29.999,0,0,1,352.15332,196.45361Zm0-58.92968a28.96484,28.96484,0,1,0,28.96484,28.96484A28.99774,28.99774,0,0,0,352.15332,137.52393Z"/><path class="cls-6" d="M902.07086,355.457S749.96542,465.68911,645.92363,494.21526l112.97586,2.906s55.91586-27.82553,72.33922-39.18374c23.89069-16.52253,88.917-72.33922,88.917-72.33922Z"/><path class="cls-7" d="M926.05754,353.91119c-6.15506,0-223.63366,166.18648-274.92578,170.28984,0,0,71.809,10.25843,80.01571,0s221.582-182.59995,221.582-182.59995Z"/></g><path class="cls-10" d="M38.11426,67.01953a.28276.28276,0,0,0-.31983.31983v6.916q0,.56616-.66455.56592H34.02881a.57189.57189,0,0,1-.43067-.12305.57852.57852,0,0,1-.11084-.39355V57.02734q0-.46728.39405-.46777h3.519q.394,0,.394.44336v6.30029q0,.419.36914.41846h5.68506a.34849.34849,0,0,0,.39405-.394V57.00293q0-.44311.36914-.44336h3.51953q.41748,0,.418.46777V74.30469a.43931.43931,0,0,1-.54151.5166H44.88232q-.64012,0-.63964-.56592v-6.916q0-.31935-.34473-.31983Z"/><path class="cls-10" d="M65.58057,72.188a4.99307,4.99307,0,0,1-2.53516,2.21484,10.52477,10.52477,0,0,1-3.938.66455,9.246,9.246,0,0,1-4.29443-.84912A5.04249,5.04249,0,0,1,52.4751,71.708a10.2276,10.2276,0,0,1-.72608-4.09766V57.05176q0-.49146.39356-.49219h3.54394q.36915,0,.36914.44336V68.15186a4.12307,4.12307,0,0,0,.874,2.92871,3.29981,3.29981,0,0,0,2.498.91064,4.12045,4.12045,0,0,0,1.82081-.38183,2.69163,2.69163,0,0,0,1.231-1.24268,5.02579,5.02579,0,0,0,.44287-2.28906V57.02734q0-.46728.36914-.46777h2.80567q.36914,0,.36914.44336V68.05322A8.31963,8.31963,0,0,1,65.58057,72.188Z"/><path class="cls-10" d="M84.51855,74.62451a.37856.37856,0,0,1-.35693.19678H80.544a.5272.5272,0,0,1-.54151-.44287l-2.6582-6.89112q-.14723-.34423-.689-.34472H74.31738a.25375.25375,0,0,0-.23388.09863.33784.33784,0,0,0-.06153.17188v6.81738q0,.59106-.66455.59082H70.23193a.42837.42837,0,0,1-.51709-.49219V57.02734q0-.46728.39405-.46777H77.7876A8.74133,8.74133,0,0,1,82.919,57.86426a4.28861,4.28861,0,0,1,1.83349,3.71631,5.1617,5.1617,0,0,1-.46777,2.23974,4.86158,4.86158,0,0,1-1.23047,1.63623,5.22134,5.22134,0,0,1-1.67334.97217q-.22192.074-.09863.36914l3.24853,7.35889A.54362.54362,0,0,1,84.51855,74.62451ZM79.54736,63.63525a2.12412,2.12412,0,0,0,.75049-1.75927,2.201,2.201,0,0,0-.76318-1.82129,3.11812,3.11812,0,0,0-2.01807-.61524H74.48975q-.468,0-.46778.41846v3.9624q0,.41821.34473.418h3.02685A3.36541,3.36541,0,0,0,79.54736,63.63525Z"/><path class="cls-10" d="M102.28711,74.62451a.37856.37856,0,0,1-.35693.19678H98.3125a.52719.52719,0,0,1-.5415-.44287L95.11279,67.4873q-.14721-.34423-.689-.34472H92.08594a.25377.25377,0,0,0-.23389.09863.33791.33791,0,0,0-.06152.17188v6.81738q0,.59106-.66455.59082H88.00049a.42837.42837,0,0,1-.51709-.49219V57.02734q0-.46728.394-.46777h7.67871a8.74133,8.74133,0,0,1,5.13135,1.30469,4.28859,4.28859,0,0,1,1.8335,3.71631,5.16156,5.16156,0,0,1-.46778,2.23974,4.86145,4.86145,0,0,1-1.23047,1.63623,5.22123,5.22123,0,0,1-1.67334.97217q-.22193.074-.09863.36914l3.24854,7.35889A.54366.54366,0,0,1,102.28711,74.62451ZM97.31592,63.63525a2.12412,2.12412,0,0,0,.75049-1.75927,2.201,2.201,0,0,0-.76319-1.82129,3.11811,3.11811,0,0,0-2.01806-.61524H92.2583q-.468,0-.46777.41846v3.9624q0,.41821.34472.418h3.02686A3.36543,3.36543,0,0,0,97.31592,63.63525Z"/><path class="cls-10" d="M109.16553,56.55957q.394,0,.394.44336V74.23047a.569.569,0,0,1-.16016.45557.77285.77285,0,0,1-.50439.13525H105.794a.57188.57188,0,0,1-.43067-.12305.57852.57852,0,0,1-.11084-.39355V57.02734q0-.46728.394-.46777Z"/><path class="cls-10" d="M123.354,56.71973a7.63806,7.63806,0,0,1,2.22754,1.14453,6.55329,6.55329,0,0,1,1.61182,1.72265,5.74232,5.74232,0,0,1,.82471,2.14112.913.913,0,0,1,.03662.51709.32875.32875,0,0,1-.28272.14746l-3.32275.22168c-.14746,0-.24219-.02881-.2832-.08643a.85662.85662,0,0,1-.11036-.28271,4.25009,4.25009,0,0,0-1.05859-2.1045,2.88638,2.88638,0,0,0-2.19043-.82421,3.34076,3.34076,0,0,0-2.8916,1.48877,8.553,8.553,0,0,0-1.0459,4.81152,8.83913,8.83913,0,0,0,.99658,4.78711,3.35813,3.35813,0,0,0,2.99024,1.48877,4.22187,4.22187,0,0,0,2.46093-.71387,5.06466,5.06466,0,0,0,1.69825-2.43652q.09814-.22119.5415-.14746l2.41211.5166a.39851.39851,0,0,1,.22119.13574.654.654,0,0,1,.04932.47949,5.4516,5.4516,0,0,1-.48,1.20606,8.32708,8.32708,0,0,1-.94727,1.415,7.24583,7.24583,0,0,1-1.46435,1.3413,7.6729,7.6729,0,0,1-2.03077.99708,8.40531,8.40531,0,0,1-2.6333.38134,8.00824,8.00824,0,0,1-4.41748-1.20605,7.84229,7.84229,0,0,1-2.89209-3.34717,11.54012,11.54012,0,0,1-1.00879-4.97119,11.03692,11.03692,0,0,1,1.00879-4.91016,7.49357,7.49357,0,0,1,2.87989-3.187,8.39227,8.39227,0,0,1,4.42968-1.13232A8.55481,8.55481,0,0,1,123.354,56.71973Z"/><path class="cls-10" d="M129.32178,74.62451a.69186.69186,0,0,1,0-.51709l6.12842-17.05566a.94967.94967,0,0,1,.22119-.38135.62462.62462,0,0,1,.41845-.11084h3.6919a.7359.7359,0,0,1,.73828.5415l6.0791,17.05567a.65027.65027,0,0,1,0,.43066.29208.29208,0,0,1-.29541.23389h-3.61816a.43928.43928,0,0,1-.46729-.34473l-1.27978-3.59326a.44063.44063,0,0,0-.08643-.19678.29506.29506,0,0,0-.23389-.07373h-6.00488a.30851.30851,0,0,0-.31982.2461l-1.30469,3.64257a.4816.4816,0,0,1-.15967.23389.58593.58593,0,0,1-.35693.08594H129.6416A.33256.33256,0,0,1,129.32178,74.62451Zm10.2876-7.28515q.34423,0,.22167-.41846l-2.06738-5.75879c-.04931-.09863-.103-.148-.16015-.148-.05762,0-.11084.05811-.16016.17236l-2.0918,5.73438q-.17211.41895.22168.41846Z"/><path class="cls-10" d="M164.07275,56.55957q.31933,0,.31983.36914v17.499a.36315.36315,0,0,1-.12305.28272.497.497,0,0,1-.34424.11084h-2.48584a.86523.86523,0,0,1-.32031-.04932.87738.87738,0,0,1-.29492-.24609L152.97314,63.5q-.09886-.12231-.18457-.09814c-.05761.0166-.08642.06543-.08642.14746v10.8291q.02417.44311-.49219.44287h-2.55957q-.49218,0-.49219-.41846V57.02734q0-.46728.44336-.46777h2.97754a.87206.87206,0,0,1,.40625.07422,1.10654,1.10654,0,0,1,.30762.29492l7.23584,10.3125c.09814.13135.18457.18848.2583.17188q.11059-.02418.11084-.2461V57.00293a.39166.39166,0,0,1,.44287-.44336Z"/><path class="cls-10" d="M168.23193,56.55957h12.40381q.36915,0,.36914.41846l-.02441,2.21533a.45689.45689,0,0,1-.51709.5166h-7.85059q-.468,0-.46777.394v3.56836q0,.41895.36914.41846h5.21777q.41822,0,.418.39356v2.36279a.36082.36082,0,0,1-.08594.24609.39439.39439,0,0,1-.30761.09863h-5.2666q-.345,0-.34473.29541v3.86377c0,.21338.08984.31983.27051.31983h8.417q.44312,0,.44336.36914v2.33838a.46009.46009,0,0,1-.11084.31982.49318.49318,0,0,1-.38135.12305h-12.4043q-.54126,0-.5415-.5166V57.02734Q167.83789,56.56006,168.23193,56.55957Z"/><path class="cls-10" d="M33.4873,103.78906V86.561q0-.4673.41846-.46778h5.09473a.79384.79384,0,0,1,.39355.07422.51553.51553,0,0,1,.19678.29492l3.71631,10.3125q.074.22119.17236.209.09815-.01173.17237-.209L47.1958,86.65967q.14795-.56616.5415-.56641h5.29151q.36914,0,.36914.44336v17.22754q0,.59106-.61524.59082h-3.1748a.42837.42837,0,0,1-.51709-.49219V91.60645c0-.11475-.02881-.168-.08594-.16016q-.08641.01318-.13525.18457L44.5625,103.96143a.527.527,0,0,1-.51709.39355H42.00293a.51678.51678,0,0,1-.5415-.39355L37.20361,91.80322q-.074-.22119-.15966-.19677c-.05811.0166-.08643.09033-.08643.22119v12.08447a.529.529,0,0,1-.08594.34424.47506.47506,0,0,1-.35693.09863H34.00439Q33.48731,104.355,33.4873,103.78906Z"/><path class="cls-10" d="M55.98193,104.1582a.692.692,0,0,1,0-.51709l6.12842-17.05566a.94978.94978,0,0,1,.22119-.38135.62464.62464,0,0,1,.41846-.11084h3.69189a.7359.7359,0,0,1,.73829.54151l6.0791,17.05566a.65027.65027,0,0,1,0,.43066.29208.29208,0,0,1-.29541.23389H69.3457a.43927.43927,0,0,1-.46728-.34473L67.59863,100.417a.44073.44073,0,0,0-.08642-.19678.29508.29508,0,0,0-.23389-.07373H61.27344a.30853.30853,0,0,0-.31983.2461l-1.30468,3.64258a.48157.48157,0,0,1-.15967.23388.58594.58594,0,0,1-.35694.08594H56.30176A.33257.33257,0,0,1,55.98193,104.1582Zm10.2876-7.28515q.34423,0,.22168-.41846L64.42383,90.6958c-.04932-.09863-.103-.148-.16016-.148-.05762,0-.11084.05811-.16015.17236l-2.0918,5.73438q-.17212.419.22168.41846Z"/><path class="cls-10" d="M90.62207,104.1582a.37856.37856,0,0,1-.35693.19678H86.64746a.52719.52719,0,0,1-.5415-.44287L83.44775,97.021q-.14721-.34425-.689-.34473H80.4209a.25377.25377,0,0,0-.23389.09863.33791.33791,0,0,0-.06152.17188v6.81738q0,.59106-.66455.59082H76.33545a.42837.42837,0,0,1-.51709-.49219V86.561q0-.4673.394-.46778h7.67871A8.74131,8.74131,0,0,1,89.02246,87.398a4.28859,4.28859,0,0,1,1.8335,3.71631,5.16156,5.16156,0,0,1-.46778,2.23974,4.86132,4.86132,0,0,1-1.23047,1.63623,5.22119,5.22119,0,0,1-1.67333.97217q-.22193.074-.09864.36914l3.24854,7.35889A.54365.54365,0,0,1,90.62207,104.1582ZM85.65088,93.169a2.12416,2.12416,0,0,0,.75049-1.75928,2.201,2.201,0,0,0-.76319-1.82129,3.11811,3.11811,0,0,0-2.01806-.61524H80.59326q-.468,0-.46777.41846V93.354q0,.41822.34472.418h3.02686A3.36549,3.36549,0,0,0,85.65088,93.169Z"/><path class="cls-10" d="M97.50049,86.09326q.394,0,.394.44336v17.22754a.569.569,0,0,1-.16015.45557.7729.7729,0,0,1-.5044.13525H94.12891a.57188.57188,0,0,1-.43067-.123.57852.57852,0,0,1-.11084-.39355V86.561q0-.4673.394-.46778Z"/><path class="cls-10" d="M100.478,104.1582a.69186.69186,0,0,1,0-.51709l6.12842-17.05566a.94978.94978,0,0,1,.22119-.38135.62462.62462,0,0,1,.41845-.11084h3.6919a.7359.7359,0,0,1,.73828.54151l6.0791,17.05566a.65027.65027,0,0,1,0,.43066.29208.29208,0,0,1-.29541.23389H113.8418a.43928.43928,0,0,1-.46729-.34473l-1.27978-3.59326a.44074.44074,0,0,0-.08643-.19678.29506.29506,0,0,0-.23389-.07373h-6.00488a.30852.30852,0,0,0-.31982.2461l-1.30469,3.64258a.48157.48157,0,0,1-.15967.23388.58593.58593,0,0,1-.35693.08594h-2.83057A.33256.33256,0,0,1,100.478,104.1582Zm10.28759-7.28515q.34425,0,.22168-.41846l-2.06738-5.75879c-.04931-.09863-.103-.148-.16015-.148-.05762,0-.11084.05811-.16016.17236l-2.0918,5.73438q-.17211.419.22168.41846Z"/><path class="cls-10" d="M283.605,250.501a4.79371,4.79371,0,0,1-2.10107,1.68261,7.76755,7.76755,0,0,1-3.09082.57227h-3.3003a.21378.21378,0,0,0-.2417.24219v5.5q0,.50537-.57226.50586h-2.81592a.38328.38328,0,0,1-.46191-.44043V243.09766q0-.41748.352-.418h6.60009a9.10389,9.10389,0,0,1,3.22266.5498,5.106,5.106,0,0,1,2.32129,1.67188,4.57742,4.57742,0,0,1,.85791,2.86035A4.69393,4.69393,0,0,1,283.605,250.501Zm-3.52-4.07032a1.96849,1.96849,0,0,0-.9458-.7373,3.83688,3.83688,0,0,0-1.4082-.24121h-2.4419q-.41822,0-.418.37305v3.76269q0,.41748.30811.418h2.70557a2.65207,2.65207,0,0,0,1.84814-.61621,2.16741,2.16741,0,0,0,.68213-1.69434A2.23535,2.23535,0,0,0,280.085,246.43066Z"/><path class="cls-10" d="M298.917,256.64941a4.467,4.467,0,0,1-2.26611,1.98047,9.41385,9.41385,0,0,1-3.52.59375,8.26686,8.26686,0,0,1-3.83887-.75879,4.50558,4.50558,0,0,1-2.08984-2.24414,9.14052,9.14052,0,0,1-.64942-3.66308v-9.4375q0-.44092.35206-.44043h3.168q.33033,0,.33008.39551V253.042a3.68384,3.68384,0,0,0,.78125,2.61719,2.94815,2.94815,0,0,0,2.23291.81445,3.6907,3.6907,0,0,0,1.62793-.34082,2.41192,2.41192,0,0,0,1.1001-1.11133,4.48968,4.48968,0,0,0,.396-2.04589v-9.87793q0-.41748.33007-.418h2.50782q.33032,0,.33007.39551v9.8789A7.4313,7.4313,0,0,1,298.917,256.64941Z"/><path class="cls-10" d="M302.96484,242.67969h11.08789q.33033,0,.33008.374l-.022,1.97949a.40884.40884,0,0,1-.46191.46289h-7.01807q-.41821,0-.418.35157v3.19043q0,.37353.33008.374h4.66357q.37426,0,.374.35156V251.876a.32144.32144,0,0,1-.07666.21972.35444.35444,0,0,1-.27539.08789H306.771q-.30836,0-.30811.26368v3.4541c0,.1914.08008.28613.2417.28613h7.52393q.39624,0,.396.33008v2.08984a.41015.41015,0,0,1-.09863.28613.44308.44308,0,0,1-.34131.11036H303.09668q-.48412,0-.48389-.46192V243.09766Q302.61279,242.68018,302.96484,242.67969Z"/><path class="cls-10" d="M330.2334,258.82812a.33855.33855,0,0,1-.31885.17579h-3.23389a.4713.4713,0,0,1-.48437-.39649l-2.376-6.16015q-.13184-.30762-.61572-.30762h-2.09033a.2273.2273,0,0,0-.209.08789.30294.30294,0,0,0-.05468.1543v6.09375q0,.5288-.59424.52832H317.4624a.38328.38328,0,0,1-.46191-.44043V243.09766q0-.41748.352-.418h6.86377a7.813,7.813,0,0,1,4.58691,1.166,3.83328,3.83328,0,0,1,1.63916,3.32227,4.61655,4.61655,0,0,1-.418,2.00195,4.3477,4.3477,0,0,1-1.10009,1.46289,4.66924,4.66924,0,0,1-1.4961.86914c-.13183.04395-.16113.15332-.08789.33008l2.9043,6.57715A.489.489,0,0,1,330.2334,258.82812Zm-4.44385-9.82324a1.899,1.899,0,0,0,.6709-1.57324,1.96811,1.96811,0,0,0-.68213-1.62793,2.78872,2.78872,0,0,0-1.80371-.5498h-2.70606q-.4182,0-.418.374v3.542q0,.37355.3081.374h2.70557A3.00965,3.00965,0,0,0,325.78955,249.00488Z"/><path class="cls-10" d="M331.85059,243.0752a.38338.38338,0,0,1,.10986-.28516.44824.44824,0,0,1,.33008-.11035h12.62793a.44261.44261,0,0,1,.34082.11035.40738.40738,0,0,1,.09912.28516v2.04687q0,.32959-.396.33008h-4.11377q-.24243,0-.24218.21973v12.91406q0,.41748-.374.418h-3.146q-.3296,0-.33008-.374V245.7373c0-.19042-.08057-.28515-.2417-.28515h-4.2461q-.4182,0-.418-.33008Z"/><path class="cls-10" d="M349.60449,258.22266a6.60707,6.60707,0,0,1-2.60693-2.8711,11.31337,11.31337,0,0,1,.022-8.9541,6.87206,6.87206,0,0,1,2.6294-2.915,8.2431,8.2431,0,0,1,7.95263,0,6.83465,6.83465,0,0,1,2.60694,2.9043,11.34214,11.34214,0,0,1,.01123,8.94336,6.68652,6.68652,0,0,1-2.60694,2.88183,7.61726,7.61726,0,0,1-3.98193,1.01172A7.76754,7.76754,0,0,1,349.60449,258.22266Zm6.666-3.01368a8.258,8.258,0,0,0,.83642-4.27929,8.72652,8.72652,0,0,0-.84716-4.41114,2.87009,2.87009,0,0,0-2.62891-1.375,2.90821,2.90821,0,0,0-2.66211,1.38575,8.64049,8.64049,0,0,0-.85791,4.40039,8.17572,8.17572,0,0,0,.84668,4.26758,2.94274,2.94274,0,0,0,2.67334,1.32031A2.90434,2.90434,0,0,0,356.27051,255.209Z"/><path class="cls-10" d="M381.42725,258.82812a.33856.33856,0,0,1-.31885.17579h-3.23389a.4713.4713,0,0,1-.48437-.39649l-2.376-6.16015q-.13184-.30762-.61572-.30762h-2.09033a.2273.2273,0,0,0-.209.08789.303.303,0,0,0-.05469.1543v6.09375q0,.5288-.59423.52832h-2.79395a.38328.38328,0,0,1-.46191-.44043V243.09766q0-.41748.352-.418h6.86377a7.813,7.813,0,0,1,4.58691,1.166,3.83331,3.83331,0,0,1,1.63916,3.32227,4.61655,4.61655,0,0,1-.418,2.00195,4.34785,4.34785,0,0,1-1.1001,1.46289,4.66919,4.66919,0,0,1-1.49609.86914c-.13184.04395-.16113.15332-.08789.33008l2.9043,6.57715A.48906.48906,0,0,1,381.42725,258.82812Zm-4.44385-9.82324a1.899,1.899,0,0,0,.6709-1.57324,1.96811,1.96811,0,0,0-.68213-1.62793,2.78874,2.78874,0,0,0-1.80371-.5498H372.4624q-.41822,0-.418.374v3.542q0,.37355.30811.374h2.70557A3.00966,3.00966,0,0,0,376.9834,249.00488Z"/><path class="cls-10" d="M387.57568,242.67969q.35157,0,.35205.39551v15.40039a.50924.50924,0,0,1-.14306.40722.69025.69025,0,0,1-.45117.1211h-2.772a.39334.39334,0,0,1-.48388-.46192V243.09766q0-.41748.35205-.418Z"/><path class="cls-10" d="M400.2583,242.82227a6.825,6.825,0,0,1,1.99121,1.02343,5.857,5.857,0,0,1,1.44092,1.54,5.131,5.131,0,0,1,.73682,1.91406.81664.81664,0,0,1,.0332.46192.2956.2956,0,0,1-.25293.13183l-2.97022.19825c-.13183,0-.21679-.02539-.25292-.07715a.76636.76636,0,0,1-.09913-.25293,3.79275,3.79275,0,0,0-.9458-1.88086,2.58036,2.58036,0,0,0-1.958-.73731,2.98778,2.98778,0,0,0-2.585,1.33106,7.64666,7.64666,0,0,0-.935,4.30078,7.90456,7.90456,0,0,0,.89062,4.2793,3.00223,3.00223,0,0,0,2.67334,1.33105,3.77892,3.77892,0,0,0,2.19971-.63769,4.53268,4.53268,0,0,0,1.51806-2.17871q.0879-.19776.48389-.13184l2.15625.46191a.36061.36061,0,0,1,.19775.1211.58679.58679,0,0,1,.04444.42871,4.89157,4.89157,0,0,1-.4292,1.07812,7.4593,7.4593,0,0,1-.84717,1.26563,6.48458,6.48458,0,0,1-1.30859,1.19824,6.86131,6.86131,0,0,1-1.81543.8916,7.49671,7.49671,0,0,1-2.354.34082,7.16,7.16,0,0,1-3.94873-1.07812,7.00927,7.00927,0,0,1-2.585-2.99219,10.31119,10.31119,0,0,1-.90234-4.44336,9.86965,9.86965,0,0,1,.90234-4.38965,6.69819,6.69819,0,0,1,2.57373-2.84863,7.49977,7.49977,0,0,1,3.96-1.01172A7.66571,7.66571,0,0,1,400.2583,242.82227Z"/><path class="cls-10" d="M409.92725,258.22266a6.607,6.607,0,0,1-2.60694-2.8711,11.31331,11.31331,0,0,1,.022-8.9541,6.872,6.872,0,0,1,2.62939-2.915,8.24312,8.24312,0,0,1,7.95264,0,6.83456,6.83456,0,0,1,2.60693,2.9043,11.342,11.342,0,0,1,.01123,8.94336,6.68656,6.68656,0,0,1-2.60693,2.88183,7.6173,7.6173,0,0,1-3.98194,1.01172A7.7675,7.7675,0,0,1,409.92725,258.22266Zm6.666-3.01368a8.2579,8.2579,0,0,0,.83643-4.27929,8.7265,8.7265,0,0,0-.84717-4.41114,2.87007,2.87007,0,0,0-2.62891-1.375,2.90823,2.90823,0,0,0-2.66211,1.38575,8.6406,8.6406,0,0,0-.85791,4.40039,8.17572,8.17572,0,0,0,.84668,4.26758,2.94275,2.94275,0,0,0,2.67334,1.32031A2.90434,2.90434,0,0,0,416.59326,255.209Z"/></g></svg>