<svg xmlns="http://www.w3.org/2000/svg" viewBox="0 0 841.88976 467.71654"><defs><style>.cls-1{fill:#e0635d;}.cls-2{fill:#fff;}.cls-3{fill:#eec198;}.cls-4{fill:#443c37;}.cls-5{fill:#235485;}.cls-6,.cls-7{fill:none;}.cls-7{stroke:#54575c;stroke-miterlimit:10;}.cls-8{fill:#54575c;}</style></defs><g id="Layer_3" data-name="Layer 3"><rect class="cls-1" width="841.88976" height="467.71654"/><path class="cls-2" d="M454.08439,317.20957a138.20568,138.20568,0,0,1,11.63037-50.81541,84.73723,84.73723,0,0,1-7.011,6.1903c-14.02247,10.912-33.00684,20.54037-53.7168,17.117-16.106-2.66232-39.12183-20.851-52.01148-35.14751,4.17212,12.68952,11.49146,36.44163,2.44385,57.24417-10.00293,22.99857-10.45776,22.09666-7.72961,44.6443q.2655,2.19452.39416,4.38939c8.78028,5.382,20.58594,11.51974,30.97864,13.19771,19.55115,3.15666,33.64612,9.47,47.2865,4.05857,9.35-3.70934,21.2616-9.53656,27.83105-12.836C452.57145,353.03326,453.32682,343.88388,454.08439,317.20957Z"/><path class="cls-2" d="M496.24076,178.441c-2.80444-6.63282-14.454-47.49961-15.10107-51.137-.64722-3.63736-17.25842-45.78792-24.809-57.12794s-27.82922-12.40979-27.82922-12.40979c-7.55054,11.76794-18.12134,8.34451-31.92811,8.77243-13.80664.42792-18.76855,3.20944-35.37963,8.98641-16.61133,5.777-24.59327,33.16415-26.53492,38.29927s-4.96179,13.26563-4.96179,19.25659-1.94153,27.38717-1.94153,27.38717c-7.33484-3.20944-7.76635,7.27473-9.27636,13.2657-1.51026,5.9909,1.51,21.3962.64709,30.16863s.43152,9.84232,5.17761,11.554,7.55054-4.06529,7.55054-4.06529c4.53027,20.11244,5.60889,18.82867,12.94385,32.3083a61.86284,61.86284,0,0,0,8.17724,10.8544c12.88965,14.29649,35.90552,32.48519,52.01148,35.14751,20.71,3.42338,39.69433-6.20495,53.7168-17.117a84.73723,84.73723,0,0,0,7.011-6.1903c12.35437-12.05409,25.39282-30.29963,30.09448-40.88144C501.41838,212.88893,499.04533,185.07384,496.24076,178.441Z"/><path class="cls-2" d="M560.11491,320.51472c2.50488-7.40409,2.41162-16.77648-4.18262-29.46037-9.89941-19.04158-22.73389-41.03666-24.0979-57.27092,0,0-10.45752-54.11427-10.45752-70.79952s-14.5498-99.20943-32.73682-114.09086c-18.18725-14.88144-48.65063-34.27236-71.83923-29.31188s-76.8407,14.88143-95.93713,69.89755c-19.09644,55.01617-18.187,93.79808-22.73389,105.5228-4.54675,11.72477-30.00879,88.38662-26.82593,112.2871a39.29935,39.29935,0,0,1-.14294,13.5335c-2.34705,10.69828-10.50232,11.78137-13.95215,16.2293-4.54675,5.86239-10.91223,12.1757.45471,36.52716A38.08551,38.08551,0,0,1,269.485,400.63572c.45471,17.5871,25.00732,36.07612,54.56152,39.23283,0,0,2.728,8.568,10.45752-14.88143,7.228-21.928,14.85156-43.06724,13.57983-64.15532q-.1322-2.195-.39416-4.38939c-2.72815-22.54764-2.27332-21.64573,7.72961-44.6443,9.04761-20.80254,1.72827-44.55465-2.44385-57.24417a61.86284,61.86284,0,0,1-8.17724-10.8544c-7.335-13.47963-8.41358-12.19586-12.94385-32.3083,0,0-2.80444,5.777-7.55054,4.06529s-6.04052-2.78153-5.17761-11.554-2.15735-24.17773-.64709-30.16863c1.51-5.991,1.94152-16.47514,9.27636-13.2657,0,0,1.94153-21.3962,1.94153-27.38717s3.02014-14.12147,4.96179-19.25659,9.92359-32.52229,26.53492-38.29927c16.61108-5.777,21.573-8.55849,35.37963-8.98641,13.80677-.42792,24.37757,2.99551,31.92811-8.77243,0,0,20.27868,1.06978,27.82922,12.40979s24.16174,53.49058,24.809,57.12794c.64709,3.63737,12.29663,44.50416,15.10107,51.137,2.80457,6.63281,5.17762,34.4479-.43152,47.07169-4.70166,10.58181-17.74011,28.82735-30.09448,40.88144a138.20568,138.20568,0,0,0-11.63037,50.81541c-.75757,26.67431-1.51294,35.82369.0957,48.04255.32227,2.44761.73731,5.01569,1.26831,7.87548,3.18287,17.13618,9.54834,21.64573,5.45618,38.78191S437.716,447.08372,443.17216,455.201c5.45618,8.117,13.64026-11.27379,24.098-13.07773,10.45752-1.8037,13.18555-6.31325,13.18555-6.31325s17.27783,1.80376,25.00732-7.21529,28.19007-13.97952,34.10083-19.39092c0,0,19.55127-5.41141,14.54981-23.90048-5.00147-18.489-14.54981-32.91946-8.18433-43.2914C549.49748,336.1983,556.92008,329.95787,560.11491,320.51472Z"/><path class="cls-2" d="M244.92948,339.06494c-9.2146,3.91177-39.34777,18.0574-52.73962,40.827C176.276,406.949,176.276,468.27846,176.276,468.27846l52.288.451s5.00146-35.17427,10.45764-69.44663C243.57133,370.70414,243.696,348.72147,244.92948,339.06494Z"/><path class="cls-2" d="M643.68522,414.61518c-1.66772-6.20247-2.59692-27.08213-9.54822-42.38949-8.21032-18.08-20.91516-29.31188-32.73681-33.37045-6.34119-2.177-14.39954-5.04365-20.63672-7.28024-2.00305,12.24968-10.51685,40.11411-8.46277,61.84543,2.72815,28.861,10.45776,72.60334,9.09363,78.01481,3.18274.90185,66.38305,0,66.38305,0S647.32267,428.14378,643.68522,414.61518Z"/><path class="cls-2" d="M572.3007,393.42043c-2.05408-21.73132,6.45972-49.59575,8.46277-61.84543.6571-4.01879.61462-6.35968-.73316-6.24829-2.08569.1724-10.41833-2.02829-19.9154-4.812-3.19483,9.44315-10.61743,15.68358-14.18555,21.49718-6.36548,10.37194,3.18286,24.80239,8.18433,43.2914,5.00146,18.48907-14.54981,23.90048-14.54981,23.90048-5.91076,5.4114-26.37133,10.37188-34.10083,19.39092S480.45573,435.81,480.45573,435.81s-2.728,4.50955-13.18555,6.31325c-10.45776,1.80394-18.64184,21.19474-24.098,13.07773-5.45618-8.11725,13.64026-26.15528,17.73242-43.29146s-2.27331-21.64573-5.45618-38.78191c-.531-2.85979-.946-5.42787-1.26831-7.87548-6.56945,3.2994-18.48108,9.12662-27.83105,12.836-13.64038,5.41146-27.73535-.90191-47.2865-4.05857-10.3927-1.678-22.19836-7.81567-30.97864-13.19771,1.27173,21.08808-6.3518,42.22731-13.57983,64.15532-7.72949,23.44943-10.45752,14.88143-10.45752,14.88143-29.5542-3.15671-54.10681-21.64573-54.56152-39.23283a38.08551,38.08551,0,0,0-11.82154-27.05714c-11.36694-24.35146-5.00146-30.66477-.45471-36.52716,3.44983-4.44793,11.6051-5.531,13.95215-16.2293a114.54025,114.54025,0,0,1-17.13489,10.367c-4.87036,2.19034-7.17261,1.19975-8.18432,3.60759a18.049,18.049,0,0,0-.91224,4.26826c-1.23352,9.65653-1.35815,31.6392-5.90783,60.21788-5.45618,34.27236-10.45764,69.44663-10.45764,69.44663l352.83032,2.70579C582.75846,466.02377,575.02885,422.28139,572.3007,393.42043Z"/><path class="cls-3" d="M453.582,318.63351a138.20583,138.20583,0,0,1,11.63037-50.81541,84.74092,84.74092,0,0,1-7.011,6.1903c-14.02246,10.912-33.00684,20.54036-53.7168,17.117-16.106-2.66233-39.12183-20.851-52.01148-35.14751,4.17212,12.68952,11.49146,36.44163,2.44385,57.24417-10.00293,22.99856-10.45776,22.09665-7.72961,44.64429q.2655,2.19451.39416,4.38939c8.78028,5.382,20.58594,11.51975,30.97864,13.19772,19.55115,3.15665,33.64612,9.47,47.2865,4.05856,9.35-3.70934,21.2616-9.53655,27.83105-12.83595C452.069,354.45719,452.82439,345.30782,453.582,318.63351Z"/><path class="cls-3" d="M491.93024,179.10334c-2.80444-6.63281-14.454-47.49961-15.10107-51.137-.64722-3.63737-17.25843-45.78792-24.809-57.12794S424.191,58.42864,424.191,58.42864c-7.55054,11.76794-18.12134,8.3445-31.9281,8.77243-13.80664.42792-18.76855,3.20944-35.37964,8.98641-16.61133,5.777-24.59326,33.16414-26.53491,38.29927s-4.96179,13.26563-4.96179,19.25659-1.94153,27.38717-1.94153,27.38717c-7.33484-3.20944-7.76636,7.27473-9.27637,13.2657-1.51025,5.9909,1.51,21.3962.6471,30.16863s.43152,9.84232,5.17761,11.554,7.55054-4.06528,7.55054-4.06528c4.53027,20.11244,5.60888,18.82867,12.94384,32.3083a61.86347,61.86347,0,0,0,8.17725,10.8544c12.88965,14.29648,35.90552,32.48518,52.01148,35.14751,20.71,3.42337,39.69433-6.20495,53.71679-17.117a84.73936,84.73936,0,0,0,7.011-6.1903c12.35437-12.05409,25.39282-30.29963,30.09448-40.88145C497.10785,213.55125,494.73481,185.73616,491.93024,179.10334Z"/><path class="cls-4" d="M559.61248,322.70028c2.50488-7.4041,2.41162-16.77648-4.18262-29.46038-9.89941-19.04157-22.73388-41.03665-24.0979-57.27092,0,0-10.45752-54.11426-10.45752-70.79952,0-16.68519-14.5498-99.20943-32.73681-114.09086C469.95037,36.19717,439.487,16.80624,416.29839,21.76672s-76.8407,14.88143-95.93713,69.89755c-19.09644,55.01618-18.187,93.79809-22.73389,105.5228-4.54675,11.72478-30.00879,88.38663-26.82593,112.2871a39.29934,39.29934,0,0,1-.14294,13.5335C268.31145,333.706,260.15618,334.789,256.70635,339.237c-4.54675,5.86238-10.91223,12.1757.45471,36.52716a38.0855,38.0855,0,0,1,11.82154,27.05713c.45471,17.58711,25.00732,36.07612,54.56152,39.23284,0,0,2.728,8.568,10.45752-14.88144,7.228-21.928,14.85156-43.06724,13.57983-64.15532q-.1322-2.195-.39416-4.38939c-2.72815-22.54764-2.27332-21.64573,7.72961-44.6443,9.04761-20.80253,1.72827-44.55464-2.44385-57.24416a61.86248,61.86248,0,0,1-8.17724-10.85441c-7.335-13.47962-8.41358-12.19586-12.94385-32.3083,0,0-2.80444,5.777-7.55054,4.06529s-6.04052-2.78152-5.17761-11.554c.86292-8.77242-2.15735-24.17772-.64709-30.16863,1.51-5.991,1.94153-16.47513,9.27636-13.26569,0,0,1.94153-21.39621,1.94153-27.38717s3.02014-14.12148,4.96179-19.2566S344.08,83.48769,360.69134,77.71072c16.61108-5.777,21.573-8.5585,35.37964-8.98642,13.80676-.42792,24.37756,2.99552,31.9281-8.77242,0,0,20.27868,1.06977,27.82922,12.40979s24.16174,53.49057,24.809,57.12794c.64709,3.63736,12.29663,44.50416,15.10107,51.137,2.80457,6.63282,5.17762,34.44791-.43152,47.07169-4.70166,10.58182-17.74011,28.82736-30.09448,40.88144A138.206,138.206,0,0,0,453.582,319.39513c-.75757,26.67431-1.51294,35.82368.0957,48.04255.32227,2.44761.73731,5.01568,1.26832,7.87547,3.18286,17.13618,9.54833,21.64573,5.45617,38.78191s-23.1886,35.17421-17.73242,43.29146c5.45618,8.117,13.64026-11.27379,24.098-13.07773,10.45752-1.8037,13.18555-6.31325,13.18555-6.31325s17.27783,1.80376,25.00732-7.21528,28.19007-13.97953,34.10083-19.39093c0,0,19.55127-5.4114,14.54981-23.90047-5.00147-18.489-14.54981-32.91947-8.18433-43.29141C548.99505,338.38386,556.41765,332.14343,559.61248,322.70028Z"/><path class="cls-3" d="M245.18867,344.297c-9.2146,3.91177-39.34778,18.0574-52.73962,40.827-15.91382,27.05713-15.91382,88.38656-15.91382,88.38656l52.288.451s5.00147-35.17427,10.45765-69.44663C243.83052,375.93617,243.95515,353.9535,245.18867,344.297Z"/><path class="cls-3" d="M641.65955,418.324c-1.66772-6.20247-2.59692-27.08213-9.54821-42.38949-8.21033-18.08-20.91516-29.31188-32.73682-33.37044-6.34119-2.177-14.39954-5.04366-20.63672-7.28024-2.00305,12.24967-10.51684,40.1141-8.46277,61.84543,2.72815,28.861,10.45777,72.60334,9.09363,78.0148,3.18274.90185,66.38306,0,66.38306,0S645.297,431.85257,641.65955,418.324Z"/><path class="cls-5" d="M571.79827,394.84437c-2.05408-21.73133,6.45972-49.59575,8.46277-61.84543.6571-4.01879.61462-6.35968-.73316-6.2483-2.08569.17241-10.41833-2.02828-19.9154-4.812-3.19483,9.44315-10.61743,15.68358-14.18555,21.49718-6.36548,10.37194,3.18286,24.80238,8.18433,43.2914,5.00146,18.48907-14.54981,23.90047-14.54981,23.90047-5.91076,5.41141-26.37133,10.37188-34.10083,19.39093s-25.00732,7.21528-25.00732,7.21528-2.728,4.50955-13.18555,6.31325c-10.45776,1.80395-18.64184,21.19475-24.098,13.07774-5.45618-8.11726,13.64026-26.15529,17.73242-43.29147s-2.27331-21.64573-5.45617-38.7819c-.531-2.8598-.94605-5.42787-1.26832-7.87548-6.56945,3.2994-18.48107,9.12661-27.83105,12.83595-13.64038,5.41147-27.73535-.90191-47.2865-4.05856-10.3927-1.678-22.19836-7.81567-30.97864-13.19772,1.27173,21.08809-6.3518,42.22732-13.57983,64.15533-7.72949,23.44943-10.45752,14.88143-10.45752,14.88143-29.5542-3.15672-54.10681-21.64573-54.56152-39.23284a38.0855,38.0855,0,0,0-11.82154-27.05713c-11.36694-24.35146-5.00146-30.66477-.45471-36.52716,3.44983-4.44793,11.6051-5.531,13.95215-16.22931a114.54038,114.54038,0,0,1-17.13489,10.367c-4.87036,2.19034-7.17261,1.19974-8.18432,3.60758a18.04926,18.04926,0,0,0-.91224,4.26826c-1.23352,9.65654-1.35815,31.63921-5.90783,60.21789-5.45618,34.27235-10.45764,69.44662-10.45764,69.44662l352.83032,2.70579C582.256,467.44771,574.52642,423.70532,571.79827,394.84437Z"/><path class="cls-6" d="M455.0261,320.21505a140.29076,140.29076,0,0,1,11.63037-51.23529,84.96115,84.96115,0,0,1-7.011,6.24146c-14.02246,11.00219-33.00683,20.71008-53.71679,17.25842-16.106-2.68433-39.12183-21.02332-52.01148-35.43793,4.17212,12.79437,11.49146,36.74274,2.44385,57.71716-10.00293,23.1886-10.45777,22.27924-7.72962,45.01319q.26551,2.21263.39417,4.42566c8.78027,5.42651,20.58594,11.61493,30.97864,13.30676,19.55114,3.18274,33.64611,9.54828,47.2865,4.0921,9.35-3.74,21.26159-9.61536,27.83105-12.942C453.51316,356.33474,454.26853,347.10976,455.0261,320.21505Z"/><path class="cls-7" d="M497.18247,180.29989c-2.80444-6.68762-14.454-47.89209-15.10107-51.55951-.64722-3.66742-17.25843-46.16626-24.809-57.6s-27.82923-12.51232-27.82923-12.51232c-7.55054,11.86517-18.12134,8.41345-31.9281,8.84491-13.80664.43145-18.76855,3.236-35.37964,9.06066-16.61133,5.82471-24.59326,33.43818-26.53491,38.61573s-4.96179,13.37524-4.96179,19.41571-1.94153,27.61346-1.94153,27.61346c-7.33484-3.236-7.76636,7.33484-9.27637,13.37531-1.51025,6.0404,1.51,21.573.6471,30.4179-.86292,8.845.43152,9.92365,5.17761,11.64948s7.55054-4.09888,7.55054-4.09888c4.53027,20.27863,5.60888,18.98426,12.94384,32.57526a62.33875,62.33875,0,0,0,8.17725,10.94409c12.88965,14.41461,35.90552,32.7536,52.01148,35.43793,20.71,3.45166,39.69433-6.25623,53.71679-17.25842a84.96115,84.96115,0,0,0,7.011-6.24146c12.35437-12.15369,25.39282-30.55,30.09448-41.21924C502.36008,215.03243,499.987,186.98751,497.18247,180.29989Z"/><path class="cls-7" d="M561.05661,323.54751c2.50489-7.46527,2.41163-16.9151-4.18261-29.7038-9.89942-19.19891-22.73389-41.37573-24.0979-57.74414,0,0-10.45752-54.5614-10.45752-71.38452,0-16.82306-14.54981-100.02917-32.73682-115.03357-18.18725-15.00439-48.65063-34.55554-71.83923-29.55408s-76.8407,15.0044-95.93714,70.4751c-19.09643,55.47077-18.187,94.57312-22.73388,106.39472-4.54676,11.82165-30.00879,89.11694-26.82593,113.2149a39.94681,39.94681,0,0,1-.14294,13.64533c-2.34705,10.78668-10.50232,11.87872-13.95215,16.3634-4.54676,5.91083-10.91223,12.2763.45471,36.829a38.51194,38.51194,0,0,1,11.82153,27.2807c.45471,17.73242,25.00733,36.37421,54.56153,39.557,0,0,2.728,8.63879,10.45752-15.0044,7.228-22.10919,14.85156-43.42309,13.57983-64.68542q-.13221-2.21312-.39417-4.42566c-2.72815-22.73395-2.27331-21.82459,7.72962-45.01319,9.04761-20.97442,1.72827-44.92279-2.44385-57.71716A62.33875,62.33875,0,0,1,345.74,246.09762c-7.335-13.591-8.41357-12.29663-12.94384-32.57526,0,0-2.80445,5.82471-7.55054,4.09888s-6.04053-2.8045-5.17761-11.64948c.86291-8.84491-2.15735-24.3775-.6471-30.4179,1.51-6.04047,1.94153-16.61127,9.27637-13.37531,0,0,1.94153-21.573,1.94153-27.61346s3.02014-14.23816,4.96179-19.41571,9.92358-32.791,26.53491-38.61573c16.61109-5.8247,21.573-8.62921,35.37964-9.06066,13.80676-.43146,24.37756,3.02026,31.9281-8.84491,0,0,20.27869,1.07861,27.82923,12.51232s24.16174,53.93256,24.809,57.6c.64709,3.66742,12.29663,44.87189,15.10107,51.55951,2.80456,6.68762,5.17761,34.73254-.43152,47.46063-4.70166,10.66925-17.74011,29.06555-30.09448,41.21924a140.29076,140.29076,0,0,0-11.63037,51.23529c-.75757,26.89471-1.51294,36.11969.0957,48.43951.32227,2.46784.73731,5.05713,1.26831,7.94056,3.18286,17.27777,9.54834,21.82458,5.45618,39.10235s-23.1886,35.46485-17.73242,43.64917c5.45617,8.18408,13.64025-11.36694,24.098-13.18579,10.45752-1.8186,13.18555-6.36542,13.18555-6.36542s17.27783,1.81867,25.00732-7.2749,28.19006-14.095,34.10083-19.55115c0,0,19.55127-5.45611,14.5498-24.098-5.00146-18.64178-14.5498-33.19146-8.18432-43.64911C550.43918,339.36068,557.86179,333.06869,561.05661,323.54751Z"/><path class="cls-7" d="M245.87119,342.251c-9.2146,3.94409-39.34778,18.2066-52.73962,41.16431-15.91382,27.2807-15.91382,89.11688-15.91382,89.11688l52.288.45471s5.00147-35.4649,10.45764-70.02045C244.513,374.15163,244.63767,351.98733,245.87119,342.251Z"/><path class="cls-7" d="M644.62693,418.4255c-1.66773-6.25372-2.59693-27.30591-9.54822-42.73975-8.21033-18.22943-20.91516-29.55407-32.73682-33.64618-6.34118-2.195-14.39953-5.08532-20.63672-7.34039-2.003,12.35089-10.51684,40.44556-8.46276,62.35645,2.72815,29.09942,10.45776,73.20324,9.09362,78.65942,3.18274.9093,66.38306,0,66.38306,0S648.26438,432.06588,644.62693,418.4255Z"/><path class="cls-7" d="M573.24241,397.05563c-2.05408-21.91089,6.45971-50.00556,8.46276-62.35645.65711-4.052.61463-6.41223-.73315-6.29993-2.08569.17383-10.41833-2.045-19.91541-4.85174-3.19482,9.52118-10.61743,15.81317-14.18554,21.6748-6.36548,10.45765,3.18286,25.00733,8.18432,43.64911,5.00147,18.64185-14.5498,24.098-14.5498,24.098-5.91077,5.45612-26.37134,10.45758-34.10083,19.55115s-25.00732,7.2749-25.00732,7.2749-2.728,4.54682-13.18555,6.36542c-10.45777,1.81885-18.64185,21.36987-24.098,13.18579-5.45618-8.18432,13.64025-26.3714,17.73242-43.64917s-2.27332-21.82458-5.45618-39.10235c-.531-2.88343-.946-5.47272-1.26831-7.94056-6.56946,3.32666-18.48108,9.202-27.83105,12.942-13.64039,5.45618-27.73536-.90936-47.2865-4.0921-10.3927-1.69183-22.19837-7.88025-30.97864-13.30676,1.27173,21.26233-6.35181,42.57623-13.57983,64.68542-7.7295,23.64319-10.45752,15.0044-10.45752,15.0044-29.5542-3.1828-54.10682-21.82459-54.56153-39.557a38.51194,38.51194,0,0,0-11.82153-27.2807c-11.36694-24.55268-5.00147-30.91815-.45471-36.829,3.44983-4.48468,11.6051-5.57672,13.95215-16.3634a114.35809,114.35809,0,0,1-17.13489,10.45263c-4.87036,2.20844-7.17261,1.20966-8.18433,3.63739a18.3275,18.3275,0,0,0-.91223,4.30353c-1.23352,9.73633-1.35815,31.90063-5.90784,60.71545-5.45617,34.55555-10.45764,70.02045-10.45764,70.02045L582.336,475.71505C583.70017,470.25887,575.97056,426.15505,573.24241,397.05563Z"/><path class="cls-7" d="M332.79612,213.52236s-6.97654-32.4878-5.49137-44.36922"/><path class="cls-7" d="M437.20788,197.07448s6.75126,1.38558,4.32831,8.2139c-1.83376,5.16787-7.16834,2.33387-10.169,3.33411s-5.15507,3.54479-9.66891,4.83446c-2.33388.66682-6.33481,2.00046-12.66962-4.66776,0,0-1.83376-2.33387-10.50245-2.66729s-8.00186-7.50174-6.83492-9.50221,3.33411-3.50081,5.00116-3.50081"/><path class="cls-7" d="M457.87333,227.96032s1.83376,6.33481.66682,8.502"/><path class="cls-7" d="M371.51988,225.62645s-2.66729,2.50058-.66682,4.66775"/><path class="cls-7" d="M350.6817,223.79269s1.16693,6.00139,3.66752,6.66822"/><path class="cls-7" d="M426.53269,253.13285s-15.00349,1.00024-18.83772-.50011"/><path class="cls-7" d="M431.04992,162.22854s.809,14.56254,1.88774,16.72"/><path class="cls-7" d="M364.1701,281.42564s13.21416,48.27213,12.67481,69.84627"/><circle class="cls-8" cx="378.05722" cy="154.85087" r="5.11571"/><circle class="cls-8" cx="459.32465" cy="158.46224" r="5.11571"/><path class="cls-2" d="M430.55372,232.56961c-8.6687,0-11.83606,1.33361-17.17066.83349-3.52087-.33008-20.6715-5.16784-25.17248-5.33459-3.33325-.12342-10.59314-.06409-14.13843-.025.989,1.072,2.24951,2.46216,3.13574,3.52582a31.50743,31.50743,0,0,0,9.5022,7.83515,58.77118,58.77118,0,0,0,19.838,6.16809c4.66785.33343,15.837,1.8338,29.84021-4.501,7.64038-3.4563,10.41285-6.76129,11.35889-9.05341C442.97547,232.26,435.83778,232.56961,430.55372,232.56961Z"/><path class="cls-7" d="M431.86728,231.96127c-8.6687,0-11.83606,1.33361-17.17065.83349-3.52087-.33008-20.67151-5.16784-25.17249-5.33459-3.33325-.12342-10.59314-.06409-14.13842-.025.989,1.072,2.24951,2.46216,3.13574,3.52582a31.5073,31.5073,0,0,0,9.5022,7.83515,58.77088,58.77088,0,0,0,19.838,6.16809c4.66785.33343,15.837,1.8338,29.84021-4.501,7.64038-3.4563,10.41284-6.76129,11.35889-9.05341C444.289,231.65163,437.15134,231.96127,431.86728,231.96127Z"/><path class="cls-7" d="M454.20581,231.12773s-13.66985.83353-22.33854.83353-11.83609,1.33364-17.17067.83352c-3.52091-.33008-20.67148-5.16787-25.17252-5.33457s-16.17044,0-16.17044,0"/></g></svg>