<?xml version="1.0" encoding="utf-8"?>
<!-- Generator: Adobe Illustrator 24.0.3, SVG Export Plug-In . SVG Version: 6.00 Build 0)  -->
<svg version="1.1" xmlns="http://www.w3.org/2000/svg" xmlns:xlink="http://www.w3.org/1999/xlink" x="0px" y="0px"
	 viewBox="0 0 841.89 467.72" style="enable-background:new 0 0 841.89 467.72;" xml:space="preserve">
<style type="text/css">
	.st0{fill:none;}
	.st1{clip-path:url(#SVGID_2_);fill:#B2B5A3;}
	.st2{clip-path:url(#SVGID_2_);fill:#93A49E;}
	.st3{clip-path:url(#SVGID_2_);fill:#D0C9B8;}
	.st4{fill:#F5C65D;}
	.st5{fill:#FFFFFF;}
	.st6{fill:none;stroke:#54575C;stroke-miterlimit:10;}
	.st7{fill:#54575C;}
	.st8{fill:#EFB885;}
	.st9{fill:#4890BA;}
	.st10{fill:#F4F4F5;}
	.st11{fill:url(#SVGID_3_);}
	.st12{fill:#DCEFFA;}
	.st13{fill:#BD7E66;}
	.st14{enable-background:new    ;}
	.st15{fill:url(#SVGID_4_);}
	.st16{fill:url(#SVGID_5_);}
	.st17{fill:#EF9266;}
	.st18{clip-path:url(#SVGID_7_);}
	.st19{fill:#C6815B;}
	.st20{fill:#E8A576;}
	.st21{fill:#54575C;stroke:#54575C;stroke-miterlimit:10;}
	.st22{fill:#54575C;stroke:#54575C;stroke-width:0.954;stroke-miterlimit:10;}
	.st23{fill:#235485;}
	.st24{fill:#E0635D;}
	.st25{fill:#EFC266;}
	.st26{fill:#61A575;}
	.st27{fill:none;stroke:#54575C;stroke-linecap:round;stroke-linejoin:round;stroke-miterlimit:10;}
	.st28{fill:none;stroke:#54575C;stroke-width:2.6927;stroke-linecap:round;stroke-linejoin:round;stroke-miterlimit:10;}
	.st29{fill:none;stroke:url(#SVGID_8_);stroke-width:2.6927;stroke-linecap:round;stroke-linejoin:round;stroke-miterlimit:10;}
	.st30{fill:url(#SVGID_9_);}
	.st31{fill:none;stroke:url(#SVGID_10_);stroke-width:2.6927;stroke-linecap:round;stroke-linejoin:round;stroke-miterlimit:10;}
	.st32{fill:url(#SVGID_11_);}
	.st33{fill:none;stroke:url(#SVGID_12_);stroke-width:2.6927;stroke-linecap:round;stroke-linejoin:round;stroke-miterlimit:10;}
	.st34{fill:url(#SVGID_13_);}
	.st35{fill:none;stroke:url(#SVGID_14_);stroke-width:2.6927;stroke-linecap:round;stroke-linejoin:round;stroke-miterlimit:10;}
	.st36{fill:url(#SVGID_15_);}
	.st37{fill:none;stroke:#FFFFFF;stroke-linecap:round;stroke-linejoin:round;stroke-miterlimit:10;}
	.st38{fill:none;stroke:#4890BA;stroke-linecap:round;stroke-linejoin:round;stroke-miterlimit:10;}
	.st39{fill:#FFFFFF;stroke:#54575C;stroke-width:1.0204;stroke-miterlimit:10;}
	.st40{fill:url(#);}
	.st41{fill:#8F5D40;}
	.st42{fill:none;stroke:#54575C;stroke-linejoin:round;stroke-miterlimit:10;}
	.st43{fill:#54575C;stroke:#54575C;stroke-width:1.0204;stroke-miterlimit:10;}
	.st44{fill:none;stroke:#FFB82E;stroke-miterlimit:10;}
	.st45{fill:#005EA2;}
	.st46{clip-path:url(#SVGID_17_);fill:none;}
	.st47{clip-path:url(#SVGID_17_);fill:#58B4FF;}
	.st48{clip-path:url(#SVGID_17_);}
	.st49{fill:none;stroke:#2491FF;stroke-miterlimit:10;}
	.st50{fill:#58B4FF;}
	.st51{fill:#CFE8FF;}
	.st52{fill:#0B4778;}
	.st53{fill:#E8F5FF;}
	.st54{fill:#2491FF;}
	.st55{opacity:0.28;fill:#2491FF;}
	.st56{clip-path:url(#SVGID_19_);fill:#E8F5FF;}
	.st57{clip-path:url(#SVGID_19_);fill:#58B4FF;}
	.st58{clip-path:url(#SVGID_17_);fill:#CFE8FF;}
	.st59{clip-path:url(#SVGID_17_);fill:#0B4778;}
	.st60{clip-path:url(#SVGID_17_);fill:none;stroke:#0B4778;stroke-miterlimit:10;}
	.st61{clip-path:url(#SVGID_17_);fill:#005EA2;}
	.st62{fill:#0076D6;}
	.st63{fill:#112F4E;}
	.st64{clip-path:url(#SVGID_21_);fill:#CFE8FF;}
	.st65{clip-path:url(#SVGID_21_);}
	.st66{opacity:0.43;fill:#005EA2;}
	.st67{fill:none;stroke:#CFE8FF;stroke-linecap:round;stroke-linejoin:round;stroke-miterlimit:10;}
	.st68{clip-path:url(#SVGID_23_);}
	.st69{fill:#54575C;stroke:#54575C;stroke-linejoin:round;stroke-miterlimit:10;}
	.st70{fill:url(#SVGID_24_);}
	.st71{fill:url(#SVGID_25_);}
	.st72{fill:url(#SVGID_26_);}
</style>
<pattern  x="-861.89" width="200" height="200" patternUnits="userSpaceOnUse" id="New_Pattern_Swatch_2" viewBox="16.84 -271.06 200 200" style="overflow:visible;">
	<g>
		<rect x="16.84" y="-271.06" class="st0" width="200" height="200"/>
		<g>
			<defs>
				<rect id="SVGID_1_" x="16.84" y="-271.06" width="200" height="200"/>
			</defs>
			<clipPath id="SVGID_2_">
				<use xlink:href="#SVGID_1_"  style="overflow:visible;"/>
			</clipPath>
			<rect x="16.84" y="-271.06" class="st1" width="200" height="200"/>
			<path class="st2" d="M144.87-186.71c-3.44,6.36-5.06,13.51-7.14,20.44c-2.08,6.93-4.78,13.93-9.85,19.09
				c-4.97,5.06-11.75,7.89-18.48,10.1c-6.74,2.21-13.7,3.98-19.88,7.45s-11.65,9.01-13.03,15.97c-0.61,3.05-0.36,6.37,1.25,9.03
				c1.6,2.67,4.71,4.52,7.8,4.11c4.67-0.61,7.25-5.51,10.24-9.15c2.67-3.25,6.36-5.88,10.54-6.34c4.18-0.46,8.77,1.7,10.31,5.61
				c1.01,2.58,0.7,5.71,2.42,7.89c2.61,3.33,7.81,2.27,11.81,0.9c3.11-1.07,6.59-2.48,7.72-5.57c1.21-3.32-0.89-6.85-1.36-10.35
				c-0.87-6.47,4.43-12.7,10.76-14.27c6.33-1.57,13.14,0.76,18.32,4.72c3.66,2.8,6.75,6.41,10.87,8.46
				c4.12,2.05,9.92,1.94,12.5-1.87c2.32-3.41,0.99-8.23-1.67-11.39c-2.65-3.15-6.37-5.19-9.6-7.75c-3.23-2.56-6.19-6.08-6.23-10.2
				c-0.04-4.36,3.11-7.99,5.74-11.46c4.17-5.5,7.45-11.69,9.65-18.24c1.32-3.91,2.24-8.22,0.89-12.12
				c-1.73-4.96-6.87-8.09-12.05-8.94C163.61-202.66,151.14-198.31,144.87-186.71z"/>
			<path class="st2" d="M265.24-218.95c-2.58,2.31-4.01,5.6-5.52,8.72c-4.2,8.67-10.01,17.19-18.75,21.25
				c-8.92,4.15-19.49,3.03-28.66,6.58c-4.53,1.75-8.85,4.93-10.41,9.54c-1.56,4.6,0.68,10.6,5.38,11.83
				c3.12,0.82,6.38-0.52,9.15-2.17c2.77-1.64,5.42-3.66,8.56-4.39c3.14-0.73,7.01,0.32,8.25,3.29c0.9,2.17,0.17,4.62-0.37,6.91
				c-1.71,7.27-1.3,15.02,1.16,22.07c1.65,4.73,5,9.67,9.99,10.07c4.01,0.32,7.83-2.7,9.12-6.52c1.29-3.81,0.36-8.13-1.74-11.56
				c-1.82-2.97-4.58-5.72-4.56-9.21c0.03-4.25,4.38-7.33,8.59-7.93c4.21-0.6,8.46,0.49,12.71,0.62c4.25,0.13,9.04-1.07,11.16-4.75
				c2.41-4.18,0.55-10.13,3.71-13.78c2.06-2.38,5.52-2.87,8.66-3.03c4.98-0.26,9.97-0.12,14.92,0.43c3.99,0.44,8.08,1.14,11.98,0.17
				c3.9-0.97,7.6-4.18,7.61-8.2c0.01-3.95-3.58-7.18-7.42-8.11c-3.84-0.94-7.87-0.13-11.74,0.68c-5.92,1.24-11.84,2.48-17.76,3.71
				c-2.29,0.48-4.68,0.95-6.93,0.3c-2.24-0.65-4.24-2.82-3.83-5.12c0.52-2.97,4.18-4.01,7.16-4.43c5.74-0.81,11.47-1.63,17.21-2.44
				c4.69-0.67,11.27-3.25,8.18-9.11c-2.08-3.95-7.18-5.92-11.32-6.31C289.75-220.79,273.65-226.48,265.24-218.95z"/>
			<path class="st3" d="M247.92-145.36c-9.58,2.35-20.03,3.84-27.24,10.56c-2.02,1.89-3.77,4.98-2.22,7.27
				c1.35,2,4.47,2.11,5.88,4.08c1.98,2.76-0.81,6.37-3.38,8.59c-4.6,3.97-9.2,7.93-13.8,11.9c-3.45,2.98-7.19,6.56-7.16,11.12
				c0.03,4.06,3.42,7.64,7.38,8.55c3.96,0.91,8.21-0.55,11.31-3.18c2.58-2.18,4.44-5.08,6.7-7.59c2.26-2.51,5.2-4.74,8.58-4.87
				c6.53-0.25,10.49,6.82,15.6,10.89c4.19,3.34,10.15,4.77,15.08,2.68c4.94-2.09,8.14-8.16,6.19-13.15
				c-2.64-6.78-12.32-8.52-15.2-15.2c-2.57-6,1.88-13,7.6-16.12c5.73-3.12,12.46-3.66,18.75-5.38c6.29-1.72,12.83-5.36,14.7-11.61
				c1.03-3.45,0.52-7.39,2.4-10.47c2.13-3.49,6.67-4.7,10.76-4.61c7.13,0.15,13.81,3.21,20.52,5.62c6.71,2.41,14.17,4.19,20.88,1.77
				c6.71-2.42,11.69-10.59,8.39-16.91c-2.48-4.74-8.47-6.61-13.81-6.27c-5.34,0.34-10.41,2.39-15.65,3.46
				c-5.24,1.07-11.18,1-15.35-2.35c-2.36-1.9-3.9-4.64-6.11-6.71c-7.31-6.83-22.78-4.49-30.39,1.32
				c-8.72,6.66-4.06,20.54-12.52,28.23C260.91-149.29,254.27-146.92,247.92-145.36z"/>
			<path class="st2" d="M65.24-218.95c-2.58,2.31-4.01,5.6-5.52,8.72c-4.2,8.67-10.01,17.19-18.75,21.25
				c-8.92,4.15-19.49,3.03-28.66,6.58c-4.53,1.75-8.85,4.93-10.41,9.54c-1.56,4.6,0.68,10.6,5.38,11.83
				c3.12,0.82,6.38-0.52,9.15-2.17c2.77-1.64,5.42-3.66,8.56-4.39c3.14-0.73,7.01,0.32,8.25,3.29c0.9,2.17,0.17,4.62-0.37,6.91
				c-1.71,7.27-1.3,15.02,1.16,22.07c1.65,4.73,5,9.67,9.99,10.07c4.01,0.32,7.83-2.7,9.12-6.52c1.29-3.81,0.36-8.13-1.74-11.56
				c-1.82-2.97-4.58-5.72-4.56-9.21c0.03-4.25,4.38-7.33,8.59-7.93c4.21-0.6,8.46,0.49,12.71,0.62c4.25,0.13,9.04-1.07,11.16-4.75
				c2.41-4.18,0.55-10.13,3.71-13.78c2.06-2.38,5.52-2.87,8.66-3.03c4.97-0.26,9.97-0.12,14.92,0.43c3.99,0.44,8.08,1.14,11.98,0.17
				c3.9-0.97,7.6-4.18,7.61-8.2c0.01-3.95-3.58-7.18-7.42-8.11s-7.87-0.13-11.74,0.68c-5.92,1.24-11.84,2.48-17.76,3.71
				c-2.29,0.48-4.68,0.95-6.93,0.3c-2.24-0.65-4.24-2.82-3.83-5.12c0.52-2.97,4.18-4.01,7.16-4.43c5.74-0.81,11.47-1.63,17.21-2.44
				c4.69-0.67,11.27-3.25,8.18-9.11c-2.08-3.95-7.18-5.92-11.32-6.31C89.75-220.79,73.65-226.48,65.24-218.95z"/>
			<path class="st3" d="M47.92-145.36c-9.58,2.35-20.03,3.84-27.24,10.56c-2.02,1.89-3.77,4.98-2.22,7.27
				c1.35,2,4.47,2.11,5.88,4.08c1.98,2.76-0.81,6.37-3.38,8.59c-4.6,3.97-9.2,7.93-13.8,11.9C3.71-99.99-0.03-96.41,0-91.85
				c0.03,4.06,3.42,7.64,7.38,8.55c3.96,0.91,8.21-0.55,11.31-3.18c2.58-2.18,4.44-5.08,6.7-7.59c2.26-2.51,5.2-4.74,8.58-4.87
				c6.53-0.25,10.49,6.82,15.6,10.89c4.19,3.34,10.15,4.77,15.08,2.68c4.94-2.09,8.14-8.16,6.19-13.15
				c-2.64-6.78-12.32-8.52-15.2-15.2c-2.57-6,1.88-13,7.6-16.12c5.73-3.12,12.46-3.66,18.75-5.38c6.29-1.72,12.83-5.36,14.7-11.61
				c1.03-3.45,0.52-7.39,2.4-10.47c2.13-3.49,6.67-4.7,10.76-4.61c7.13,0.15,13.81,3.21,20.52,5.62c6.71,2.41,14.17,4.19,20.88,1.77
				c6.71-2.42,11.69-10.59,8.39-16.91c-2.48-4.74-8.47-6.61-13.81-6.27c-5.34,0.34-10.41,2.39-15.65,3.46
				c-5.24,1.07-11.18,1-15.35-2.35c-2.36-1.9-3.9-4.64-6.11-6.71c-7.31-6.83-22.78-4.49-30.39,1.32
				c-8.72,6.66-4.06,20.54-12.52,28.23C60.91-149.29,54.27-146.92,47.92-145.36z"/>
			<path class="st3" d="M207.45-78.32c-3.75,5.87-1.7,15.23,4.89,17.48c3.79,1.3,7.94,0.14,11.81-0.92
				c3.87-1.06,8.14-1.98,11.77-0.28c3.63,1.7,5.53,7.23,2.44,9.8c-1.95,1.62-4.77,1.34-7.3,1.5c-2.53,0.16-5.55,1.44-5.67,3.97
				c-0.08,1.64,1.24,3.11,2.78,3.68c1.54,0.58,3.25,0.44,4.88,0.17c5.32-0.88,10.34-3.08,15.61-4.28c5.26-1.2,11.16-1.29,15.65,1.71
				c4.49,3,6.54,9.91,3.02,14c-2.68,3.13-7.43,3.56-11.45,2.66c-4.02-0.9-7.74-2.88-11.75-3.78c-4.02-0.91-8.76-0.48-11.45,2.64
				c-1.72,2-2.31,4.76-3.95,6.83c-2.5,3.15-6.81,4.03-10.72,4.98c-3.91,0.95-8.21,2.55-9.77,6.26c-1.88,4.44,1.6,9.78,6.19,11.28
				c4.58,1.5,9.64,0.04,13.89-2.24c4.25-2.28,8.04-5.36,12.38-7.48c9.39-4.58,20.44-4.19,30.73-2.4c10.3,1.79,20.42,4.87,30.85,5.35
				c10.44,0.49,21.67-2.07,28.72-9.78c1.57-1.71,2.93-3.72,3.38-6c0.45-2.28-0.15-4.87-1.95-6.34c-1.91-1.57-4.62-1.57-7.1-1.59
				c-7.16-0.05-14.31-0.88-21.28-2.45c-3.76-0.85-7.58-1.97-10.63-4.34s-5.2-6.23-4.55-10.04c0.34-2.01,1.43-4.02,0.83-5.97
				c-0.54-1.75-2.25-2.81-3.83-3.72c-13.1-7.51-26.07-16.26-40.04-22.09C234.46-84.41,216.04-91.75,207.45-78.32z"/>
			<path class="st3" d="M7.45-78.32c-3.75,5.87-1.7,15.23,4.89,17.48c3.79,1.3,7.94,0.14,11.81-0.92c3.87-1.06,8.14-1.98,11.77-0.28
				c3.63,1.7,5.53,7.23,2.44,9.8c-1.95,1.62-4.77,1.34-7.3,1.5c-2.53,0.16-5.55,1.44-5.67,3.97c-0.08,1.64,1.24,3.11,2.78,3.68
				c1.54,0.58,3.25,0.44,4.88,0.17c5.32-0.88,10.34-3.08,15.61-4.28c5.26-1.2,11.16-1.29,15.65,1.71c4.49,3,6.54,9.91,3.02,14
				c-2.68,3.13-7.43,3.56-11.45,2.66c-4.02-0.9-7.74-2.88-11.75-3.78c-4.02-0.91-8.76-0.48-11.45,2.64c-1.72,2-2.31,4.76-3.95,6.83
				c-2.5,3.15-6.81,4.03-10.72,4.98c-3.91,0.95-8.21,2.55-9.77,6.26c-1.88,4.44,1.6,9.78,6.19,11.28c4.58,1.5,9.64,0.04,13.89-2.24
				c4.25-2.28,8.04-5.36,12.38-7.48c9.39-4.58,20.44-4.19,30.73-2.4c10.3,1.79,20.42,4.87,30.85,5.35
				c10.44,0.49,21.67-2.07,28.72-9.78c1.57-1.71,2.93-3.72,3.38-6c0.45-2.28-0.15-4.87-1.95-6.34c-1.91-1.57-4.62-1.57-7.1-1.59
				c-7.16-0.05-14.31-0.88-21.28-2.45c-3.76-0.85-7.58-1.97-10.63-4.34s-5.2-6.23-4.54-10.04c0.34-2.01,1.43-4.02,0.83-5.97
				c-0.54-1.75-2.25-2.81-3.83-3.72C72.75-65.1,59.77-73.85,45.8-79.68C34.46-84.41,16.04-91.75,7.45-78.32z"/>
			<path class="st2" d="M154.06-87.92c-2.8-2.05-6.89-1.19-9.68,0.87c-2.79,2.06-4.7,5.06-6.96,7.7
				c-7.32,8.56-18.89,13.3-30.12,12.34c-4.55-0.39-9.02-1.66-13.58-1.76c-4.57-0.1-9.53,1.23-12.23,4.91
				c-2.83,3.85-2.32,9.6,0.7,13.31c3.02,3.7,8.14,5.37,12.88,4.78c3.83-0.47,7.37-2.23,11.07-3.31c3.71-1.08,7.99-1.38,11.16,0.82
				c3.43,2.39,4.51,6.98,4.7,11.16c0.19,4.18-0.21,8.52,1.32,12.42c1.9,4.83,6.88,8.28,12.07,8.36c5.19,0.08,10.27-3.22,12.32-7.99
				c2.34-5.45,1-12.39,4.82-16.93c3.1-3.68,8.48-4.35,13.29-4.11c4.8,0.24,9.78,1.09,14.31-0.5c4.54-1.6,8.26-6.88,6.11-11.19
				c-1.16-2.32-3.71-3.7-6.27-4.11c-2.56-0.41-5.18-0.02-7.75,0.37c-6.5,0.98-13.02,1.9-19.54,2.74c-2.39,0.31-5.06,0.55-7.01-0.88
				c-2.54-1.86-2.59-5.93-0.74-8.47c1.85-2.55,5.02-3.8,8.12-4.35c4.26-0.75,8.75-0.44,12.79-2c4.04-1.55,7.52-6.03,5.9-10.04
				c-1.64-4.05-6.94-4.81-11.31-4.95C158.33-88.58,156.18-88.1,154.06-87.92z"/>
			<path class="st3" d="M207.45-278.32c-3.75,5.87-1.7,15.23,4.89,17.48c3.79,1.3,7.94,0.14,11.81-0.92
				c3.87-1.06,8.14-1.98,11.77-0.28c3.63,1.7,5.53,7.23,2.44,9.8c-1.95,1.62-4.77,1.34-7.3,1.5c-2.53,0.16-5.55,1.44-5.67,3.97
				c-0.08,1.64,1.24,3.11,2.78,3.68s3.25,0.44,4.88,0.17c5.32-0.88,10.34-3.08,15.61-4.28c5.26-1.2,11.16-1.29,15.65,1.71
				c4.49,3,6.54,9.91,3.02,14c-2.68,3.13-7.43,3.56-11.45,2.66c-4.02-0.9-7.74-2.88-11.75-3.78c-4.02-0.91-8.76-0.48-11.45,2.64
				c-1.72,2-2.31,4.76-3.95,6.83c-2.5,3.15-6.81,4.03-10.72,4.98c-3.91,0.95-8.21,2.55-9.77,6.26c-1.88,4.44,1.6,9.78,6.19,11.28
				c4.58,1.5,9.64,0.04,13.89-2.24c4.25-2.28,8.04-5.36,12.38-7.48c9.39-4.58,20.44-4.19,30.73-2.4c10.3,1.79,20.42,4.87,30.85,5.35
				s21.67-2.07,28.72-9.78c1.57-1.71,2.93-3.72,3.38-6c0.45-2.28-0.15-4.87-1.95-6.34c-1.91-1.57-4.62-1.57-7.1-1.59
				c-7.16-0.05-14.31-0.88-21.28-2.45c-3.76-0.85-7.58-1.97-10.63-4.34c-3.05-2.37-5.2-6.23-4.55-10.04
				c0.34-2.01,1.43-4.02,0.83-5.97c-0.54-1.75-2.25-2.81-3.83-3.72c-13.1-7.51-26.07-16.26-40.04-22.09
				C234.46-284.41,216.04-291.75,207.45-278.32z"/>
			<path class="st3" d="M7.45-278.32c-3.75,5.87-1.7,15.23,4.89,17.48c3.79,1.3,7.94,0.14,11.81-0.92
				c3.87-1.06,8.14-1.98,11.77-0.28c3.63,1.7,5.53,7.23,2.44,9.8c-1.95,1.62-4.77,1.34-7.3,1.5c-2.53,0.16-5.55,1.44-5.67,3.97
				c-0.08,1.64,1.24,3.11,2.78,3.68c1.54,0.58,3.25,0.44,4.88,0.17c5.32-0.88,10.34-3.08,15.61-4.28s11.16-1.29,15.65,1.71
				c4.49,3,6.54,9.91,3.02,14c-2.68,3.13-7.43,3.56-11.45,2.66c-4.02-0.9-7.74-2.88-11.75-3.78c-4.02-0.91-8.76-0.48-11.45,2.64
				c-1.72,2-2.31,4.76-3.95,6.83c-2.5,3.15-6.81,4.03-10.72,4.98c-3.91,0.95-8.21,2.55-9.77,6.26c-1.88,4.44,1.6,9.78,6.19,11.28
				c4.58,1.5,9.64,0.04,13.89-2.24c4.25-2.28,8.04-5.36,12.38-7.48c9.39-4.58,20.44-4.19,30.73-2.4c10.3,1.79,20.42,4.87,30.85,5.35
				s21.67-2.07,28.72-9.78c1.57-1.71,2.93-3.72,3.38-6c0.45-2.28-0.15-4.87-1.95-6.34c-1.91-1.57-4.62-1.57-7.1-1.59
				c-7.16-0.05-14.31-0.88-21.28-2.45c-3.76-0.85-7.58-1.97-10.63-4.34c-3.05-2.37-5.2-6.23-4.54-10.04
				c0.34-2.01,1.43-4.02,0.83-5.97c-0.54-1.75-2.25-2.81-3.83-3.72c-13.1-7.51-26.07-16.26-40.04-22.09
				C34.46-284.41,16.04-291.75,7.45-278.32z"/>
			<path class="st2" d="M154.06-287.92c-2.8-2.05-6.89-1.19-9.68,0.87c-2.79,2.06-4.7,5.06-6.96,7.7
				c-7.32,8.56-18.89,13.3-30.12,12.34c-4.55-0.39-9.02-1.66-13.58-1.76s-9.53,1.23-12.23,4.91c-2.83,3.85-2.32,9.6,0.7,13.31
				c3.02,3.7,8.14,5.37,12.88,4.78c3.83-0.47,7.37-2.23,11.07-3.31c3.71-1.08,7.99-1.38,11.16,0.82c3.43,2.39,4.51,6.98,4.7,11.16
				c0.19,4.18-0.21,8.52,1.32,12.42c1.9,4.83,6.88,8.28,12.07,8.36c5.19,0.08,10.27-3.22,12.32-7.99c2.34-5.46,1-12.39,4.82-16.93
				c3.1-3.68,8.48-4.35,13.29-4.11c4.8,0.24,9.78,1.09,14.31-0.5c4.54-1.6,8.26-6.88,6.11-11.19c-1.16-2.32-3.71-3.7-6.27-4.11
				c-2.56-0.42-5.18-0.02-7.75,0.37c-6.5,0.98-13.02,1.9-19.54,2.74c-2.39,0.31-5.06,0.55-7.01-0.88c-2.54-1.86-2.59-5.93-0.74-8.47
				c1.85-2.55,5.02-3.8,8.12-4.35c4.26-0.75,8.75-0.44,12.79-2c4.04-1.55,7.52-6.03,5.9-10.04c-1.64-4.05-6.94-4.81-11.31-4.95
				C158.33-288.58,156.18-288.1,154.06-287.92z"/>
			<path class="st3" d="M169.45-253.08c-3.54,2.25-5.71,7.21-3.5,10.77c0.97,1.56,2.58,2.59,3.76,3.99
				c3.61,4.28,2.32,11.08-1.15,15.48c-3.48,4.4-8.6,7.09-13.29,10.15c-4.69,3.06-9.34,6.96-10.83,12.37
				c-1.49,5.4,1.75,12.33,7.34,12.73c4.43,0.32,8.04-3.25,11.41-6.16s8.3-5.43,12.03-3.01c2.63,1.71,3.41,5.18,5.37,7.63
				c2.51,3.15,7.28,4.36,10.87,2.54c3.6-1.82,5.44-6.61,3.76-10.27c-2.06-4.47-8.01-6.1-10.07-10.57c-1.78-3.88,0.12-8.6,3.17-11.57
				c3.06-2.97,7.08-4.69,10.8-6.79c3.71-2.1,7.38-4.88,8.81-8.9c2.22-6.27-2.04-13.34-7.86-16.56
				C192.56-255.4,177.12-257.97,169.45-253.08z"/>
			<path class="st2" d="M177.91-107.04c-4.48-1.75-8.06-5.23-12.39-7.33c-4.33-2.1-10.33-2.34-13.19,1.52
				c-2.34,3.16-1.45,7.89,1.14,10.85c2.59,2.96,6.45,4.47,10.27,5.42c3.82,0.95,7.76,1.47,11.41,2.96
				c4.71,1.92,8.81,5.43,13.82,6.33c6.32,1.14,13.19-2.69,15.54-8.67c1.82-4.63,0.19-17.56-6.76-15.65
				c-3.03,0.83-5.52,4.26-8.99,5.14C185.19-105.57,181.35-105.7,177.91-107.04z"/>
			<path class="st3" d="M130.2-112.39c-2.13-2.5-5.68-4.43-8.64-3.01c-4.1,1.96-3.47,7.98-5.69,11.95
				c-3.07,5.51-10.81,5.9-17.03,4.89c-6.23-1.01-13.22-2.56-18.37,1.07c-5.54,3.91-5.38,13.73,0.52,17.08
				c4.63,2.63,10.47,1.03,15.31-1.17c4.85-2.2,9.77-5.01,15.08-4.64c8.18,0.56,15.54,8.57,23.33,6.03c4.9-1.6,7.61-6.81,11.91-9.65
				c4.89-3.23,12.33-3.13,16.03-8.15c3.02-4.11,2.52-7.48-2.26-8.22c-4.6-0.72-10.15,3.07-14.72,3.61
				C137.1-101.59,135.08-106.66,130.2-112.39z"/>
			<path class="st3" d="M200.15-168.88c-2.09,2.51-2.64,5.92-2.96,9.16c-0.32,3.25-0.51,6.62-2.06,9.49
				c-1.78,3.28-5.17,5.47-8.77,6.47c-3.59,1.01-7.4,0.96-11.12,0.67c-3.65-0.29-8.24-0.33-9.88,2.95c-1.23,2.47,0.11,5.51,2.05,7.49
				c4.15,4.24,11.1,5.41,16.4,2.75c3.06-1.53,6.4-4.25,9.44-2.67c3.69,1.91,2.46,7.98,5.48,10.85c2.64,2.51,7.48,0.96,9.11-2.29
				c1.63-3.25,0.7-7.28-1.24-10.36c-1.09-1.73-2.51-3.37-2.81-5.39c-0.51-3.44,2.32-6.33,4.22-9.24c3.26-4.99,3.73-11.07,2.12-16.71
				C208.71-170.73,204.62-174.25,200.15-168.88z"/>
			<path class="st2" d="M195.48-238.97c-4.08,1.95-6,7.46-3.99,11.52c1.77,3.59,5.97,5.83,6.79,9.74c0.77,3.68-1.77,7.17-2.58,10.84
				c-0.69,3.14,0.03,6.67,2.29,8.96c2.25,2.29,6.1,3.02,8.82,1.31c2.18-1.37,3.31-3.96,3.76-6.5c0.46-2.54,0.37-5.14,0.77-7.69
				c0.46-2.94,1.56-5.74,2.32-8.63c0.75-2.88,1.14-5.99,0.19-8.81C211.86-234.01,201.61-241.89,195.48-238.97z"/>
		</g>
	</g>
</pattern>
<g id="Layer_1">
</g>
<g id="Layer_2">
</g>
<g id="Layer_3">
	<rect x="-0.14" class="st4" width="842.17" height="467.72"/>
	<polygon class="st5" points="0,313.08 384.42,172.32 775.6,216.51 624.83,464.96 0,467.72 	"/>
	<polygon class="st6" points="623.32,468.02 773.96,219.79 382.78,175.6 0,316.36 0,467.72 365.33,468.02 	"/>
	<g>
		<path class="st5" d="M613.28,316.44c-1.02-0.53-1.66-1.45-2.01-2.64l-18.86-2.52c-0.78,6.77,1.21,11.27,0.62,12.45
			c0,0,8.4-14.98,23.74-2.92c13.73,10.79,11.96,11.63,11.43,11.69c0.96-0.02,8.26-0.03,17.56,4.61c0.66-5.39,2.92-11.59,5.96-17.9
			l-40.46-5.41C611.62,314.98,612.25,315.9,613.28,316.44z"/>
		<path class="st5" d="M823.53,169.94c-17.17-21.19,0.37-23.38-4.02-36.16c-4.38-12.79-14.98-30.32-34.34-28.86
			c0,0-15.34-9.86-21.55-5.11c0,0-9.5-32.15-58.45-16.07c-48.95,16.07-33.61,29.95-33.61,29.95s-18.63,14.98-14.98,27.76
			c3.65,12.79,5.48,26.67-2.19,34.34c-7.67,7.67,6.21,28.49,6.21,28.49s-9.44,18.79-1.46,24.11c7.42,4.95,19.51,4.08,28.75,2.12
			c-3-0.29-6.56-1.07-10.26-2.84c-9.88-4.71-7.14-31.45-7.14-31.45s-2.35-1.88-7.06-3.76c-9.01-3.6,4.71-14.59,4.71-14.59
			s2.82-52.23,11.76-56c8.94-3.76,9.41,11.29,9.41,11.29c8.94-10.82,28.7,1.88,27.76,11.76c-0.94,9.88,1.88,13.65,12.7,18.35
			c10.82,4.71,8.47,7.06,17.88,11.76c9.41,4.71,10.82-0.94,10.82-0.94c22.59-1.88,11.29,17.41,5.65,26.82
			c-5.65,9.41-16.47,1.41-16.47,1.41s-3.29,5.65-2.82,25.88c0.15,6.26,2.05,10.53,4.61,13.46c5.71,6.53,14.69,6.31,14.69,6.31
			s-0.13,0.11-0.38,0.3c1.48-0.45,2.9-1.09,4.24-2c0,0-2.19-5.48,4.02-5.84c2.69-0.16,7.28,1.46,12.35,2.49
			c6.65,1.35,14.09,1.7,19.07-4.32c8.77-10.59,18.63-18.26,10.96-36.53C814.4,202.08,839.07,189.11,823.53,169.94z"/>
		<path class="st5" d="M693.1,280.92c13.34,13.34,37.61-14.92,52.84-34.63c1.24-1.61,2.42-3.15,3.53-4.62
			c-2.56-2.92-4.46-7.2-4.61-13.46c-0.47-20.23,2.82-25.88,2.82-25.88s10.82,8,16.47-1.41c5.65-9.41,16.94-28.7-5.65-26.82
			c0,0-1.41,5.65-10.82,0.94c-9.41-4.71-7.06-7.06-17.88-11.76c-10.82-4.71-13.65-8.47-12.7-18.35
			c0.94-9.88-18.82-22.59-27.76-11.76c0,0-0.47-15.06-9.41-11.29c-8.94,3.76-11.76,56-11.76,56s-13.71,10.98-4.71,14.59
			c4.71,1.88,7.06,3.76,7.06,3.76s-2.74,26.74,7.14,31.45c3.7,1.76,7.25,2.54,10.26,2.84c5.02,0.49,8.48-0.4,8.48-0.4l5.65,22.59
			C702.04,252.68,687.45,275.27,693.1,280.92z"/>
		<path class="st5" d="M592.42,311.27l18.86,2.52c-1.72-5.88,3.93-18.61,8.26-27.1c-5.68,0.25-10.97,0.46-15.38,0.62
			c-0.9,2.15-1.93,3.97-3.08,5.36C595.13,299.87,593,306.21,592.42,311.27z"/>
		<path class="st5" d="M611.27,313.79l40.46,5.41c6.44-13.34,16.41-27.18,22.34-34.91c-8.2,0.24-33.97,1.51-54.54,2.4
			C615.2,295.18,609.55,307.92,611.27,313.79z"/>
		<path class="st5" d="M768.01,246.28c-1.34,0.9-2.77,1.55-4.24,2c0.24-0.2,0.38-0.3,0.38-0.3s-8.98,0.22-14.69-6.31
			c-1.11,1.46-2.29,3.01-3.53,4.62c-15.23,19.7-39.5,47.96-52.84,34.63c-5.65-5.65,8.94-28.23,8.94-28.23s-3.04-10.52-3.22-10.33
			c-15.6,15.6-19.84,35.74-19.84,35.74s-1.95,2.34-4.91,6.2c-5.93,7.73-15.9,21.57-22.34,34.91c-3.05,6.31-5.3,12.51-5.96,17.9
			c12.02,6,27.39,19.76,36.76,51.28c11.76,39.55,20.95,65.69,25.57,78.25h68.18l26.46-0.31c1.41-3.29,21.17-85.17,11.29-137.87
			c-8.35-44.53-24.76-76.63-29.65-85.51c-5.06-1.03-9.66-2.65-12.35-2.49C765.82,240.8,768.01,246.28,768.01,246.28z"/>
		<path class="st5" d="M628.21,332.49c-0.07,0-0.11,0-0.11,0S628.15,332.5,628.21,332.49z"/>
		<path class="st5" d="M435.03,293.09l-94.48,26.47c-2.55,1.3-3.1,4.7-1.1,6.75l24.05,24.48c3.28,3.34,8.35,4.19,12.54,2.09
			L435.79,323C431.16,307.82,436.31,300.64,435.03,293.09z"/>
		<path class="st5" d="M431.22,285.37c-2.04-2.47-3.35-5.95-4.15-9.99c-0.75-3.82-1.04-8.14-1.02-12.56l-1.35,0.44l-162.95,35.62
			l-30.27-186.99l259.12-34.73l12.47,89.93l-0.47,2.66c3.67-0.22,7.4-0.24,11.18-0.04c-2.64-24.95-7.51-74.73-9.48-94.94
			c-0.47-4.85-4.84-8.34-9.67-7.75l-267.91,33c-5.85,0.72-9.91,6.16-8.95,11.97L255,336c0.64,3.84,4.47,6.28,8.22,5.23l77.34-21.66
			l94.48-26.47C434.61,290.65,433.53,288.17,431.22,285.37z"/>
		<path class="st5" d="M449.11,456.32c20.46-4.75,28.13-12.05,38.72-28.13c1.58-2.4,3.12-4.71,4.58-6.89
			c-7.06-9.23-18.99-24.39-25.18-32.24c-2.39-3.02-6.45-4.16-10.06-2.81l-130.33,48.66c-1.81,0.68-2.59,2.81-1.65,4.49l15.26,27.22
			h89.64C431.88,463.64,436.59,459.23,449.11,456.32z"/>
		<path class="st5" d="M645.77,337.1c-9.3-4.64-16.6-4.64-17.56-4.61c-0.06,0.01-0.11,0-0.11,0s0.04,0,0.11,0
			c0.53-0.06,2.3-0.9-11.43-11.69c-15.34-12.05-23.74,2.92-23.74,2.92c-3.65,7.31-86.21,76.71-86.21,76.71s-6.08,8.46-14.41,20.87
			c-1.47,2.18-3,4.49-4.58,6.89c-10.59,16.07-18.26,23.38-38.72,28.13c-12.52,2.91-17.24,7.32-19.01,10.3h278
			c-4.62-12.56-13.8-38.7-25.57-78.25C673.16,356.86,657.79,343.1,645.77,337.1z"/>
		<path class="st5" d="M326.58,418.1l-103.99-23.3l-61.41-100.49c-2.5-4.09-7.92-5.24-11.86-2.51L4.12,392.1
			c-2.59,1.79-3.16,5.39-1.23,7.89l51.33,66.63H66.3L12.43,399.5l138.91-97.95l57.88,91.72l-77.49,73.36h174.39
			c6.81-13.29,17.98-32.85,23.3-42.07C330.9,422,329.47,418.74,326.58,418.1z"/>
		<path class="st5" d="M490.59,77.16l-259.12,34.73l30.27,186.99l162.95-35.62l1.35-0.44c0.06-16,4.07-33.34,4.07-33.34
			c16.98-41.77,42.83-57.94,72.47-59.73l0.47-2.66L490.59,77.16z"/>
		<path class="st5" d="M593.04,323.72c0.59-1.18-1.4-5.68-0.62-12.45c0.58-5.07,2.72-11.41,8.66-18.6c1.15-1.39,2.18-3.21,3.08-5.36
			c9.93-23.78,3.42-89.67-41.8-106.42c-16.57-6.14-32.99-10.36-48.58-11.19c-3.78-0.2-7.51-0.19-11.18,0.04
			c-29.64,1.79-55.49,17.96-72.47,59.73c0,0-4.01,17.33-4.07,33.34c-0.02,4.42,0.27,8.74,1.02,12.56c0.79,4.03,2.11,7.52,4.15,9.99
			c2.31,2.8,3.4,5.28,3.81,7.72c1.28,7.55-3.87,14.73,0.76,29.91c1.68,5.51,4.64,12.07,9.67,20.08
			c9.05,14.42,6.58,29.22,11.69,33.24c5.11,4.02,37.26,8.4,42.37,4.75c5.11-3.65,7.31,19.36,7.31,19.36S589.39,331.03,593.04,323.72
			z"/>
		<polygon class="st5" points="151.34,301.55 12.43,399.5 66.3,466.63 131.73,466.63 209.22,393.26 		"/>
	</g>
	<g>
		<path class="st0" d="M613.32,316.87c-1.02-0.53-1.66-1.45-2.01-2.64l-18.86-2.52c-0.78,6.77,1.21,11.27,0.62,12.45
			c0,0,8.4-14.98,23.74-2.92c13.73,10.79,11.96,11.63,11.43,11.69c0.96-0.02,8.26-0.03,17.56,4.61c0.66-5.39,2.92-11.59,5.96-17.9
			l-40.46-5.41C611.66,315.41,612.3,316.33,613.32,316.87z"/>
		<path class="st7" d="M823.58,170.37c-17.17-21.19,0.37-23.38-4.02-36.16c-4.38-12.79-14.98-30.32-34.34-28.86
			c0,0-15.34-9.86-21.55-5.11c0,0-9.5-32.15-58.45-16.07c-48.95,16.07-33.61,29.95-33.61,29.95s-18.63,14.98-14.98,27.76
			c3.65,12.79,5.48,26.67-2.19,34.34c-7.67,7.67,6.21,28.49,6.21,28.49s-9.44,18.79-1.46,24.11c7.42,4.95,19.51,4.08,28.75,2.12
			c-3-0.29-6.56-1.07-10.26-2.84c-9.88-4.71-7.14-31.45-7.14-31.45s-2.35-1.88-7.06-3.76c-9.01-3.6,4.71-14.59,4.71-14.59
			s2.82-52.23,11.76-56c8.94-3.76,9.41,11.29,9.41,11.29c8.94-10.82,28.7,1.88,27.76,11.76c-0.94,9.88,1.88,13.65,12.7,18.35
			c10.82,4.71,8.47,7.06,17.88,11.76c9.41,4.71,10.82-0.94,10.82-0.94c22.59-1.88,11.29,17.41,5.65,26.82
			c-5.65,9.41-16.47,1.41-16.47,1.41s-3.29,5.65-2.82,25.88c0.15,6.26,2.05,10.53,4.61,13.46c5.71,6.53,14.69,6.31,14.69,6.31
			s-0.13,0.11-0.38,0.3c1.48-0.45,2.9-1.09,4.24-2c0,0-2.19-5.48,4.02-5.84c2.69-0.16,7.28,1.46,12.35,2.49
			c6.65,1.35,14.09,1.7,19.07-4.32c8.77-10.59,18.63-18.26,10.96-36.53C814.44,202.51,839.11,189.54,823.58,170.37z"/>
		<path class="st8" d="M697.14,280.35c13.34,13.34,37.61-14.92,52.84-34.63c1.24-1.61,2.42-3.15,3.53-4.62
			c-2.56-2.92-4.46-7.2-4.61-13.46c-0.47-20.23,2.82-25.88,2.82-25.88s10.82,8,16.47-1.41c5.65-9.41,16.94-28.7-5.65-26.82
			c0,0-1.41,5.65-10.82,0.94c-9.41-4.71-7.06-7.06-17.88-11.76c-10.82-4.71-13.65-8.47-12.7-18.35
			c0.94-9.88-18.82-22.59-27.76-11.76c0,0-0.47-15.06-9.41-11.29c-8.94,3.76-11.76,56-11.76,56s-13.71,10.98-4.71,14.59
			c4.71,1.88,7.06,3.76,7.06,3.76s-2.74,26.74,7.14,31.45c3.7,1.76,7.25,2.54,10.26,2.84c5.02,0.49,8.48-0.4,8.48-0.4l5.65,22.59
			C706.08,252.11,691.49,274.7,697.14,280.35z"/>
		<path class="st8" d="M592.46,313.7l18.86,2.52c-1.72-5.88,3.93-18.61,8.26-27.1c-5.68,0.25-10.97,0.46-15.38,0.62
			c-0.9,2.15-1.93,3.97-3.08,5.36C595.18,302.3,593.04,308.64,592.46,313.7z"/>
		<path class="st9" d="M611.31,316.22l40.46,5.41c6.44-13.34,16.41-27.18,22.34-34.91c-8.2,0.24-33.97,1.51-54.54,2.4
			C615.24,297.61,609.6,310.35,611.31,316.22z"/>
		<path class="st9" d="M769.7,247.71c-1.34,0.9-2.77,1.55-4.24,2c0.24-0.2,0.38-0.3,0.38-0.3s-8.98,0.22-14.69-6.31
			c-1.11,1.46-2.29,3.01-3.53,4.62c-15.23,19.7-39.5,47.96-52.84,34.63c-5.65-5.65,8.94-28.23,8.94-28.23s-3.04-10.52-3.22-10.33
			c-15.6,15.6-19.84,35.74-19.84,35.74s-1.95,2.34-4.91,6.2c-5.93,7.73-15.9,21.57-22.34,34.91c-3.05,6.31-5.3,12.51-5.96,17.9
			c12.02,6,27.39,19.76,36.76,51.28c11.76,39.55,20.95,65.69,25.57,78.25h68.18l26.46-0.31c1.41-3.29,21.17-85.17,11.29-137.87
			c-8.35-44.53-24.76-76.63-29.65-85.51c-5.06-1.03-9.66-2.65-12.35-2.49C767.51,242.23,769.7,247.71,769.7,247.71z"/>
		<path class="st6" d="M628.26,332.92c-0.07,0-0.11,0-0.11,0S628.19,332.93,628.26,332.92z"/>
		<path class="st10" d="M430.07,293.52l-94.48,26.47c-2.55,1.3-3.1,4.7-1.1,6.75l24.05,24.48c3.28,3.34,8.35,4.19,12.54,2.09
			l59.74-29.87C426.2,308.25,431.36,301.07,430.07,293.52z"/>
		<path class="st10" d="M426.26,285.8c-2.04-2.47-3.35-5.95-4.15-9.99c-0.75-3.82-1.04-8.14-1.02-12.56l-1.35,0.44l-162.95,35.62
			l-30.27-186.99l259.12-34.73l12.47,89.93l-0.47,2.66c3.67-0.22,7.4-0.24,11.18-0.04c-2.64-24.95-7.51-74.73-9.48-94.94
			c-0.47-4.85-4.84-8.34-9.67-7.75l-267.91,33c-5.85,0.72-9.91,6.16-8.95,11.97l37.24,224c0.64,3.84,4.47,6.28,8.22,5.23
			l77.34-21.66l94.48-26.47C429.66,291.08,428.57,288.6,426.26,285.8z"/>
		<path class="st10" d="M356.24,468.02h77.93c1.8-2.98,6.52-7.37,18.99-10.26c20.46-4.75,28.13-12.05,38.72-28.13
			c1.58-2.4,3.12-4.71,4.58-6.89c-7.06-9.23-18.99-24.39-25.18-32.24c-2.39-3.02-6.45-4.16-10.06-2.81l-130.33,48.66
			c-1.81,0.68-2.59,2.81-1.65,4.49l15.26,27.22h10.92C355.69,468.04,355.96,468.02,356.24,468.02z"/>
		<pattern  id="SVGID_3_" xlink:href="#New_Pattern_Swatch_2" patternTransform="matrix(1 0 0 1 57.2989 -247.4647)">
		</pattern>
		<path class="st11" d="M642.35,468.37h70.69c-4.77-13.04-13.71-38.71-25.06-76.85c-9.38-31.52-24.74-45.28-36.76-51.28
			c-9.3-4.64-16.6-4.64-17.56-4.61c-0.06,0.01-0.11,0-0.11,0s0.04,0,0.11,0c0.53-0.06,2.3-0.9-11.43-11.69
			c-15.34-12.05-23.74,2.92-23.74,2.92c-3.65,7.31-86.21,76.71-86.21,76.71s-6.08,8.46-14.41,20.87c-1.47,2.18-3,4.49-4.58,6.89
			c-10.59,16.07-18.26,23.38-38.72,28.13c-10.25,2.38-15.27,5.77-17.72,8.55h202.52C640.44,468.02,641.44,468.15,642.35,468.37z"/>
		<path class="st10" d="M60.9,468.02L9.47,403.93l138.91-97.95l57.88,91.72l-74.27,70.32h172.76c6.86-13.08,16.8-30.49,21.72-39.03
			c1.48-2.56,0.04-5.81-2.84-6.46l-103.99-23.3l-61.41-100.49c-2.5-4.09-7.92-5.24-11.86-2.51L1.16,396.53
			c-2.59,1.79-3.16,5.39-1.23,7.89l48.99,63.59H60.9z"/>
		<path class="st12" d="M485.64,77.59l-259.12,34.73l30.27,186.99l162.95-35.62l1.35-0.44c0.06-16,4.07-33.34,4.07-33.34
			c16.98-41.77,42.83-57.94,72.47-59.73l0.47-2.66L485.64,77.59z"/>
		<path class="st13" d="M597.08,321.16c0.59-1.18-1.4-5.68-0.62-12.45c0.58-5.07,2.72-11.41,8.66-18.6
			c1.15-1.39,2.18-3.21,3.08-5.36c9.93-23.78,3.42-89.67-41.8-106.42c-16.57-6.14-32.99-10.36-48.58-11.19
			c-3.78-0.2-7.51-0.19-11.18,0.04c-29.64,1.79-55.49,17.96-72.47,59.73c0,0-4.01,17.33-4.07,33.34c-0.02,4.42,0.27,8.74,1.02,12.56
			c0.79,4.03,2.11,7.52,4.15,9.99c2.31,2.8,3.4,5.28,3.81,7.72c1.28,7.55-3.87,14.73,0.76,29.91c1.68,5.51,4.64,12.07,9.67,20.08
			c9.05,14.42,6.58,29.22,11.69,33.24c5.11,4.02,37.26,8.4,42.37,4.75c5.11-3.65,7.31,19.36,7.31,19.36S593.43,328.46,597.08,321.16
			z"/>
		<polygon class="st12" points="131.98,468.02 206.26,397.69 148.38,305.98 9.47,403.93 60.9,468.02 		"/>
	</g>
	<path class="st6" d="M678.98,278.09c0,0,16.86-26.35,23.06-25.41"/>
	<line class="st6" x1="512.83" y1="299.22" x2="422.06" y2="303.16"/>
	<path class="st6" d="M428.52,281.64c0,0-11.84,8.97-9.69,15.43c2.15,6.46,12.56,29.06,18.3,28.7"/>
	<path class="st6" d="M506.01,308.9c0,0,3.95-12.92,15.07-11.12c11.12,1.79,40.9,29.78,1.79,49.51c0,0-7.17,6.1-13.27-0.36"/>
	<path class="st6" d="M512.83,323.97c0,0,6.82-11.84,13.27-5.02c6.46,6.82-2.51,17.58-5.74,17.94"/>
	<path class="st6" d="M628.21,332.49c0,0-15.65,32.02-35.38,38.12c-19.73,6.1-64.93,24.04-73.9,32.29
		c-8.97,8.25-26.51,18.41-26.51,18.41"/>
	<path class="st6" d="M696.39,230.1c0,0,26.67-0.48,35.64-12.32"/>
	<path class="st6" d="M697.94,200.56c0,0-6.82,13.63-14.71,10.76"/>
	<path class="st6" d="M760.72,182.98c0,0,3.23,13.99-3.95,12.92"/>
	<path class="st6" d="M656.69,345.49c0.72-1.43,29.06-48.07,40.18-50.58"/>
	<path class="st6" d="M688.97,412.58c0,0,53.81-34.08,61.71-66.37"/>
	<g>
		<path class="st0" d="M613.28,317.53c-1.02-0.53-1.66-1.45-2.01-2.64l-18.86-2.52c-0.78,6.77,1.21,11.27,0.62,12.45
			c0,0,8.4-14.98,23.74-2.92c13.73,10.79,11.96,11.63,11.43,11.69c0.96-0.02,8.26-0.03,17.56,4.61c0.66-5.39,2.92-11.59,5.96-17.9
			l-40.46-5.41C611.62,316.07,612.25,316.99,613.28,317.53z"/>
		<path class="st7" d="M823.53,171.03c-17.17-21.19,0.37-23.38-4.02-36.16c-4.38-12.79-14.98-30.32-34.34-28.86
			c0,0-15.34-9.86-21.55-5.11c0,0-9.5-32.15-58.45-16.07c-48.95,16.07-33.61,29.95-33.61,29.95s-18.63,14.98-14.98,27.76
			c3.65,12.79,5.48,26.67-2.19,34.34c-7.67,7.67,6.21,28.49,6.21,28.49s-9.44,18.79-1.46,24.11c7.42,4.95,19.51,4.08,28.75,2.12
			c-3-0.29-6.56-1.07-10.26-2.84c-9.88-4.71-7.14-31.45-7.14-31.45s-2.35-1.88-7.06-3.76c-9.01-3.6,4.71-14.59,4.71-14.59
			s2.82-52.23,11.76-56c8.94-3.76,9.41,11.29,9.41,11.29c8.94-10.82,28.7,1.88,27.76,11.76c-0.94,9.88,1.88,13.65,12.7,18.35
			c10.82,4.71,8.47,7.06,17.88,11.76c9.41,4.71,10.82-0.94,10.82-0.94c22.59-1.88,11.29,17.41,5.65,26.82
			c-5.65,9.41-16.47,1.41-16.47,1.41s-3.29,5.65-2.82,25.88c0.15,6.26,2.05,10.53,4.61,13.46c5.71,6.53,14.69,6.31,14.69,6.31
			s-0.13,0.11-0.38,0.3c1.48-0.45,2.9-1.09,4.24-2c0,0-2.19-5.48,4.02-5.84c2.69-0.16,7.28,1.46,12.35,2.49
			c6.65,1.35,14.09,1.7,19.07-4.32c8.77-10.59,18.63-18.26,10.96-36.53C814.4,203.17,839.07,190.2,823.53,171.03z"/>
		<path class="st6" d="M693.1,282.01c13.34,13.34,37.61-14.92,52.84-34.63c1.24-1.61,2.42-3.15,3.53-4.62
			c-2.56-2.92-4.46-7.2-4.61-13.46c-0.47-20.23,2.82-25.88,2.82-25.88s10.82,8,16.47-1.41c5.65-9.41,16.94-28.7-5.65-26.82
			c0,0-1.41,5.65-10.82,0.94c-9.41-4.71-7.06-7.06-17.88-11.76c-10.82-4.71-13.65-8.47-12.7-18.35
			c0.94-9.88-18.82-22.59-27.76-11.76c0,0-0.47-15.06-9.41-11.29c-8.94,3.76-11.76,56-11.76,56s-13.71,10.98-4.71,14.59
			c4.71,1.88,7.06,3.76,7.06,3.76s-2.74,26.74,7.14,31.45c3.7,1.76,7.25,2.54,10.26,2.84c5.02,0.49,8.48-0.4,8.48-0.4l5.65,22.59
			C702.04,253.77,687.45,276.36,693.1,282.01z"/>
		<path class="st6" d="M592.42,312.36l18.86,2.52c-1.72-5.88,3.93-18.61,8.26-27.1c-5.68,0.25-10.97,0.46-15.38,0.62
			c-0.9,2.15-1.93,3.97-3.08,5.36C595.13,300.96,593,307.3,592.42,312.36z"/>
		<path class="st6" d="M611.27,314.88l40.46,5.41c6.44-13.34,16.41-27.18,22.34-34.91c-8.2,0.24-33.97,1.51-54.54,2.4
			C615.2,296.27,609.55,309.01,611.27,314.88z"/>
		<path class="st6" d="M768.01,247.37c-1.34,0.9-2.77,1.55-4.24,2c0.24-0.2,0.38-0.3,0.38-0.3s-8.98,0.22-14.69-6.31
			c-1.11,1.46-2.29,3.01-3.53,4.62c-15.23,19.7-39.5,47.96-52.84,34.63c-5.65-5.65,8.94-28.23,8.94-28.23s-3.04-10.52-3.22-10.33
			c-15.6,15.6-19.84,35.74-19.84,35.74s-1.95,2.34-4.91,6.2c-5.93,7.73-15.9,21.57-22.34,34.91c-3.05,6.31-5.3,12.51-5.96,17.9
			c12.02,6,27.39,19.76,36.76,51.28c11.76,39.55,20.95,65.69,25.57,78.25h68.18l26.46-0.31c1.41-3.29,21.17-85.17,11.29-137.87
			c-8.35-44.53-24.76-76.63-29.65-85.51c-5.06-1.03-9.66-2.65-12.35-2.49C765.82,241.89,768.01,247.37,768.01,247.37z"/>
		<path class="st6" d="M628.21,333.58c-0.07,0-0.11,0-0.11,0S628.15,333.59,628.21,333.58z"/>
		<path class="st6" d="M435.03,294.18l-94.48,26.47c-2.55,1.3-3.1,4.7-1.1,6.75l24.05,24.48c3.28,3.34,8.35,4.19,12.54,2.09
			l59.74-29.87C431.16,308.91,436.31,301.73,435.03,294.18z"/>
		<path class="st6" d="M431.22,286.46c-2.04-2.47-3.35-5.95-4.15-9.99c-0.75-3.82-1.04-8.14-1.02-12.56l-1.35,0.44l-162.95,35.62
			l-30.27-186.99l259.12-34.73l12.47,89.93l-0.47,2.66c3.67-0.22,7.4-0.24,11.18-0.04c-2.64-24.95-7.51-74.73-9.48-94.94
			c-0.47-4.85-4.84-8.34-9.67-7.75l-267.91,33c-5.85,0.72-9.91,6.16-8.95,11.97l37.24,224c0.64,3.84,4.47,6.28,8.22,5.23
			l77.34-21.66l94.48-26.47C434.61,291.74,433.53,289.26,431.22,286.46z"/>
		<path class="st6" d="M449.11,457.41c20.46-4.75,28.13-12.05,38.72-28.13c1.58-2.4,3.12-4.71,4.58-6.89
			c-7.06-9.23-18.99-24.39-25.18-32.24c-2.39-3.02-6.45-4.16-10.06-2.81l-130.33,48.66c-1.81,0.68-2.59,2.81-1.65,4.49l15.26,27.22
			h89.64C431.88,464.73,436.59,460.32,449.11,457.41z"/>
		<path class="st6" d="M645.77,338.19c-9.3-4.64-16.6-4.64-17.56-4.61c-0.06,0.01-0.11,0-0.11,0s0.04,0,0.11,0
			c0.53-0.06,2.3-0.9-11.43-11.69c-15.34-12.05-23.74,2.92-23.74,2.92c-3.65,7.31-86.21,76.71-86.21,76.71s-6.08,8.46-14.41,20.87
			c-1.47,2.18-3,4.49-4.58,6.89c-10.59,16.07-18.26,23.38-38.72,28.13c-12.52,2.91-17.24,7.32-19.01,10.3h278
			c-4.62-12.56-13.8-38.7-25.57-78.25C673.16,357.95,657.79,344.19,645.77,338.19z"/>
		<path class="st6" d="M326.58,419.19l-103.99-23.3L161.18,295.4c-2.5-4.09-7.92-5.24-11.86-2.51L4.12,393.19
			c-2.59,1.79-3.16,5.39-1.23,7.89l51.33,66.63H66.3l-53.87-67.13l138.91-97.95l57.88,91.72l-77.49,73.36h174.39
			c6.81-13.29,17.98-32.85,23.3-42.07C330.9,423.09,329.47,419.83,326.58,419.19z"/>
		<path class="st6" d="M490.59,78.25l-259.12,34.73l30.27,186.99l162.95-35.62l1.35-0.44c0.06-16,4.07-33.34,4.07-33.34
			c16.98-41.77,42.83-57.94,72.47-59.73l0.47-2.66L490.59,78.25z"/>
		<path class="st6" d="M593.04,324.81c0.59-1.18-1.4-5.68-0.62-12.45c0.58-5.07,2.72-11.41,8.66-18.6c1.15-1.39,2.18-3.21,3.08-5.36
			c9.93-23.78,3.42-89.67-41.8-106.42c-16.57-6.14-32.99-10.36-48.58-11.19c-3.78-0.2-7.51-0.19-11.18,0.04
			c-29.64,1.79-55.49,17.96-72.47,59.73c0,0-4.01,17.33-4.07,33.34c-0.02,4.42,0.27,8.74,1.02,12.56c0.79,4.03,2.11,7.52,4.15,9.99
			c2.31,2.8,3.4,5.28,3.81,7.72c1.28,7.55-3.87,14.73,0.76,29.91c1.68,5.51,4.64,12.07,9.67,20.08
			c9.05,14.42,6.58,29.22,11.69,33.24c5.11,4.02,37.26,8.4,42.37,4.75c5.11-3.65,7.31,19.36,7.31,19.36S589.39,332.12,593.04,324.81
			z"/>
		<polygon class="st6" points="151.34,302.64 12.43,400.59 66.3,467.72 131.73,467.72 209.22,394.35 		"/>
	</g>
	<g>
		<path class="st6" d="M425.86,98.58c17.53-2.57,35.05-5.23,52.53-8.15"/>
		<path class="st6" d="M304.98,116.64C342.11,110,380.11,105,417.06,99.86"/>
		<path class="st6" d="M250.58,124.86c14.53-2.86,28.53-3.86,43.96-6.65"/>
		<path class="st6" d="M437.74,117.91c11.37-2.91,21.37-2.91,32.45-5.14"/>
		<path class="st6" d="M253.04,147.16C311.11,139,369.11,128,427.26,119.57"/>
		<path class="st6" d="M373.53,149.82c29.58-5.82,58.58-9.82,88.46-14.71"/>
		<path class="st6" d="M255.5,169.45c35.61-5.45,72.61-11.45,108.42-18.03"/>
		<line class="st6" x1="260.42" y1="214.04" x2="445.59" y2="179.8"/>
		<path class="st6" d="M345.51,220.15c30.61-5.15,60.61-13.15,91.88-18"/>
		<path class="st6" d="M262.88,236.33c25.23-4.33,49.23-9.33,73.75-14.45"/>
		<path class="st6" d="M397.86,231.02c10.25-2.02,21.25-4.02,31.33-6.53"/>
		<path class="st6" d="M265.34,258.63c40.77-8.63,80.77-17.63,122.08-25.43"/>
		<path class="st6" d="M267.8,280.92c13.31-2.92,27.31-5.92,39.92-8.88"/>
	</g>
	<g>
		<line class="st6" x1="146.54" y1="318.95" x2="33.18" y2="404.69"/>
		<path class="st6" d="M122.77,352.66c-13.87,10.56-27.75,21.13-41.62,31.69c-10.97,8.35-21.93,16.7-32.9,25.05
			c-2.07,1.58-4.15,3.16-6.22,4.74"/>
		<path class="st6" d="M86.82,396.02c-11.24,8.62-22.48,17.23-33.71,25.85c-0.74,0.57-1.49,1.14-2.23,1.71"/>
		<path class="st6" d="M135.35,359.05c-13.98,10.38-28.15,20.51-41.56,31.63"/>
		<path class="st6" d="M159.32,340.45c-6.78,5.61-13.75,10.97-20.8,16.24"/>
		<path class="st6" d="M93.72,406.79C83.11,416,71.11,424,59.73,433.03"/>
		<path class="st6" d="M165.71,351.2c-20.6,15.8-41.6,31.8-62.37,48.15"/>
		<path class="st6" d="M108.7,411.26C95.11,421,83.11,433,68.57,442.48"/>
		<path class="st6" d="M145.87,382.31c-8.82,7.09-17.64,14.19-26.77,20.87"/>
		<path class="st6" d="M172.1,361.95c-5.55,4.02-10.97,8.21-16.34,12.46"/>
		<line class="st6" x1="178.49" y1="372.7" x2="77.42" y2="451.92"/>
		<path class="st6" d="M142.82,416.68C124.11,431,105.11,447,86.27,461.37"/>
	</g>
	<path class="st6" d="M668.16,177.87c0,0,5.56-7.46,6.19-12.49"/>
	<circle class="st7" cx="688.65" cy="174.97" r="2.04"/>
	<path class="st7" d="M668.53,166.16c-0.05,0-0.1,0.01-0.15,0.02c-0.06,1.15,0.04,2.32-0.09,3.47c0,0.01,0,0.02-0.01,0.04
		c0,0.18,0,0.36,0,0.54c0.08,0.01,0.16,0.03,0.25,0.03c1.13,0,2.04-0.92,2.04-2.04S669.65,166.16,668.53,166.16z"/>
	<path class="st6" d="M296.75,466.54c0.4-0.84,0.8-1.68,1.19-2.51c-6.44-2.39-12.94-4.63-19.5-6.67
		c-6.33-1.36-11.33-3.36-17.33-4.36c-7,0-10,8-14,13.37"/>
	<line class="st6" x1="222.59" y1="394.8" x2="148.32" y2="467.14"/>
	<polygon class="st6" points="417.37,468.02 463.48,445.1 457.29,437.87 402.22,464.72 404.66,468.02 	"/>
</g>
</svg>
