<svg width="200" height="200" viewBox="0 0 200 200" fill="none" xmlns="http://www.w3.org/2000/svg">
<g clip-path="url(#clip0_1129_6035)">
<mask id="mask0_1129_6035" style="mask-type:luminance" maskUnits="userSpaceOnUse" x="0" y="0" width="200" height="200">
<path d="M200 0H0V200H200V0Z" fill="white"/>
</mask>
<g mask="url(#mask0_1129_6035)">
<path d="M115.453 48.4793C114.534 47.5615 113.607 46.6515 112.665 45.753C108.418 41.6984 104.042 37.6599 100.39 33.0838C99.4185 34.3407 98.8336 35.1905 98.8336 35.1905C98.8336 35.1905 91.7555 31.6555 84.9659 29.6137C78.1762 27.5718 54.7636 33.6974 43.7597 38.9154C32.7558 44.1335 25.732 63.1908 24.0931 70.9044C23.2804 74.7295 24.8862 78.2743 26.7112 80.8776C26.8269 79.0126 27.2432 74.8589 28.6833 73.8122C30.5564 72.4509 35.2125 82.248 44.4621 79.7524C48.5469 78.6503 54.5295 86.3317 59.6803 89.5079C64.8311 92.6842 67.8747 83.1555 67.8747 83.1555C67.8747 83.1555 62.2556 69.0894 74.6643 66.3669C87.073 63.6445 88.7119 88.3736 88.7119 88.3736L93.3943 94.9528L106.271 90.8692L113.651 96.3947C116.298 93.3491 118.636 91.2196 120.237 90.7917C120.974 90.5946 121.726 90.6334 122.479 90.8395C126.601 85.7299 128.699 77.7275 125.704 66.8207C124.647 62.9725 112.537 49.8381 115.453 48.4793Z" fill="#893F31"/>
<path d="M106.271 90.8688L93.3943 94.9525L88.7118 88.3732C88.7118 88.3732 87.0729 63.6441 74.6642 66.3666C62.2556 69.0891 67.8746 83.1551 67.8746 83.1551C67.8746 83.1551 64.831 92.6838 59.6802 89.5075C54.5294 86.3314 48.5468 78.6499 44.462 79.7521C35.2124 82.2477 30.5563 72.4506 28.6833 73.8118C27.2431 74.8585 26.8268 79.0122 26.7112 80.8772C26.6764 81.4377 26.6685 81.7939 26.6685 81.7939C26.6685 81.7939 33.6922 94.7256 33.4581 100.171C33.224 105.615 29.2439 115.598 32.5216 117.867C35.7994 120.135 40.4819 119.228 40.4819 119.228C40.4819 119.228 51.7288 138.12 61.0938 138.347C70.4589 138.573 79.1126 128.983 79.1126 128.983C79.1126 128.983 84.2746 134.402 87.8657 136.649C89.5181 134.229 91.6519 130.835 92.6858 128.079C94.0355 124.483 104.884 106.718 113.101 97.0347C113.285 96.8169 113.469 96.6036 113.651 96.3944L106.271 90.8688ZM76.2555 77.1398C79.2155 76.6985 82.2119 86.5992 81.0734 88.1437C79.935 89.6882 79.0242 87.9231 76.7473 87.2611C74.4703 86.5992 72.4211 84.1722 72.4211 82.6277C72.4211 82.6277 73.2954 77.5811 76.2555 77.1398Z" fill="#C57052"/>
<path d="M148.699 115.503C143.148 109.766 137.935 106.881 134.32 105.438C128.135 107.417 117.713 117.703 116.366 117.268C115 116.827 103.16 123.005 100.883 125.211C98.6061 127.418 97.923 132.272 96.3291 136.464C94.7353 140.656 85.6275 139.773 85.6275 139.773C85.6275 139.773 86.0032 139.282 86.5854 138.475C79.7452 142.682 68.2216 159.164 68.2216 159.164C68.2216 159.164 68.0951 164.264 67.8674 164.926C67.6397 165.588 66.2735 171.325 63.0858 174.414C59.8981 177.503 25.9717 203.097 25.9717 203.097C25.9717 203.097 183.991 209.275 186.041 203.538C188.09 197.802 158.945 126.094 148.699 115.503Z" fill="#7E8CDE"/>
<path d="M122.479 90.8395C121.726 90.6333 120.974 90.5945 120.237 90.7916C118.636 91.2196 116.299 93.349 113.651 96.3947C113.469 96.6039 113.286 96.8172 113.101 97.035C104.884 106.718 94.0356 124.483 92.686 128.08C91.6521 130.835 89.5183 134.229 87.8659 136.65C87.3846 137.355 86.9458 137.975 86.5853 138.475C86.0031 139.283 85.6274 139.774 85.6274 139.774C85.6274 139.774 94.7352 140.656 96.3291 136.464C97.923 132.272 98.606 127.418 100.883 125.211C103.16 123.005 115 116.827 116.366 117.268C117.713 117.704 128.135 107.417 134.32 105.439C134.407 105.411 134.496 105.378 134.582 105.354C134.582 105.354 128.473 92.4795 122.479 90.8395Z" fill="#7E8CDE"/>
<path d="M76.7476 87.2611C79.0245 87.9231 79.9353 89.6882 81.0738 88.1437C82.2122 86.5992 79.2158 76.6985 76.2558 77.1398C73.2958 77.5811 72.4214 82.6277 72.4214 82.6277C72.4214 84.1722 74.4706 86.5992 76.7476 87.2611Z" fill="#7E8CDE"/>
<path d="M67.3574 81.8746C67.3574 81.8746 65.5358 71.9458 71.0005 71.0632C76.4651 70.1806 81.9298 70.6219 82.8406 78.3443C83.7513 86.0667 85.8006 93.3478 81.9298 94.451C78.059 95.5542 74.6436 93.1272 74.6436 93.1272" stroke="#1D1D1B" stroke-width="0.60195" stroke-miterlimit="10"/>
<path d="M114.26 48.8289C113.341 47.9111 112.414 47.0011 111.472 46.1026C107.225 42.048 102.85 38.0095 99.1967 33.4335C98.2256 34.6903 97.6407 35.5401 97.6407 35.5401C97.6407 35.5401 90.5626 32.0051 83.773 29.9633C76.9833 27.9214 53.5708 34.047 42.5668 39.2651C31.5629 44.4831 24.5392 63.5404 22.9003 71.254C22.0876 75.0791 23.6933 78.6239 25.5183 81.2272C25.634 79.3622 26.0503 75.2085 27.4905 74.1618C29.3635 72.8006 34.0196 82.5976 43.2692 80.102C47.3541 78.9999 53.3366 86.6813 58.4874 89.8575C63.6382 93.0338 66.6818 83.5051 66.6818 83.5051C66.6818 83.5051 61.0628 69.439 73.4715 66.7165C85.8801 63.9941 87.519 88.7232 87.519 88.7232L92.2015 95.3024L105.078 91.2188L112.458 96.7443C115.106 93.6987 117.443 91.5692 119.044 91.1413C119.781 90.9442 120.533 90.983 121.286 91.1891C125.408 86.0795 127.506 78.0771 124.511 67.1703C123.454 63.3221 111.344 50.1877 114.26 48.8289Z" stroke="#1D1D1B" stroke-width="0.60195" stroke-miterlimit="10"/>
<path d="M105.078 91.2189L92.2014 95.3026L87.5189 88.7233C87.5189 88.7233 85.8801 63.9942 73.4714 66.7167C61.0627 69.4392 66.6817 83.5052 66.6817 83.5052C66.6817 83.5052 63.6381 93.0339 58.4873 89.8576C53.3365 86.6814 47.354 79 43.2691 80.1022C34.0196 82.5978 29.3634 72.8007 27.4904 74.1619C26.0502 75.2086 25.6339 79.3623 25.5183 81.2273C25.4835 81.7878 25.4756 82.144 25.4756 82.144C25.4756 82.144 32.4994 95.0757 32.2652 100.521C32.0311 105.966 28.051 115.948 31.3287 118.217C34.6065 120.485 39.289 119.578 39.289 119.578C39.289 119.578 50.536 138.47 59.901 138.697C69.266 138.923 77.9198 129.333 77.9198 129.333C77.9198 129.333 83.0817 134.752 86.6729 136.999C88.3253 134.579 90.459 131.185 91.493 128.43C92.8426 124.833 103.691 107.068 111.908 97.3848C112.093 97.167 112.276 96.9537 112.458 96.7444L105.078 91.2189ZM75.0626 77.4899C78.0226 77.0486 81.019 86.9493 79.8806 88.4938C78.7421 90.0383 77.8313 88.2732 75.5544 87.6112C73.2774 86.9493 71.2282 84.5223 71.2282 82.9778C71.2282 82.9778 72.1026 77.9312 75.0626 77.4899Z" stroke="#1D1D1B" stroke-width="0.60195" stroke-miterlimit="10"/>
<path d="M147.506 115.853C141.955 110.115 136.742 107.23 133.127 105.788C126.942 107.767 116.521 118.053 115.173 117.618C113.807 117.176 101.967 123.354 99.6902 125.561C97.4132 127.767 96.7301 132.621 95.1363 136.813C93.5424 141.006 84.4346 140.123 84.4346 140.123C84.4346 140.123 84.8103 139.632 85.3925 138.824C78.5523 143.032 67.0288 159.514 67.0288 159.514C67.0288 159.514 66.9022 164.614 66.6745 165.276C66.4468 165.938 65.0806 171.675 61.893 174.764C58.7052 177.852 24.7788 203.447 24.7788 203.447C24.7788 203.447 182.799 209.625 184.848 203.888C186.897 198.151 157.752 126.443 147.506 115.853Z" stroke="#1D1D1B" stroke-width="0.60195" stroke-miterlimit="10"/>
<path d="M121.286 91.1891C120.533 90.9829 119.781 90.9441 119.044 91.1413C117.443 91.5692 115.106 93.6986 112.458 96.7443C112.276 96.9535 112.093 97.1668 111.908 97.3846C103.691 107.068 92.8427 124.833 91.4931 128.429C90.4592 131.185 88.3254 134.578 86.673 136.999C86.1917 137.704 85.7529 138.325 85.3925 138.825C84.8102 139.632 84.4346 140.123 84.4346 140.123C84.4346 140.123 93.5424 141.006 95.1362 136.814C96.7301 132.621 97.4132 127.767 99.6901 125.561C101.967 123.355 113.807 117.177 115.173 117.618C116.52 118.053 126.942 107.767 133.127 105.788C133.214 105.761 133.303 105.728 133.389 105.703C133.389 105.703 127.28 92.8291 121.286 91.1891Z" stroke="#1D1D1B" stroke-width="0.60195" stroke-miterlimit="10"/>
<path d="M75.5547 87.6112C77.8316 88.2732 78.7424 90.0383 79.8809 88.4938C81.0194 86.9493 78.023 77.0486 75.0629 77.4899C72.1029 77.9312 71.2285 82.9778 71.2285 82.9778C71.2285 84.5223 73.2777 86.9493 75.5547 87.6112Z" stroke="#1D1D1B" stroke-width="0.60195" stroke-miterlimit="10"/>
<path d="M37.5852 99.6246C38.4318 99.2363 38.6476 97.8958 38.0673 96.6305C37.4869 95.3652 36.3302 94.6542 35.4836 95.0425C34.637 95.4308 34.4211 96.7713 35.0015 98.0366C35.5818 99.3019 36.7386 100.013 37.5852 99.6246Z" fill="#1D1D1B"/>
<path d="M39.2891 119.578C39.2891 119.578 43.9233 118.433 43.1392 116.343" stroke="#1D1D1B" stroke-width="0.60195" stroke-miterlimit="10"/>
<path d="M48.1377 128.5C48.1377 128.5 51.001 125.5 55.001 124" stroke="#1D1D1B" stroke-width="0.60195" stroke-miterlimit="10"/>
<path d="M75.3058 83.8896C76.0931 84.6192 76.4546 85.8764 76.7911 86.852C78.4936 91.788 79.3163 97.153 79.9757 102.312C80.1577 103.736 80.2935 105.167 80.3367 106.603C80.3474 106.957 80.3513 107.32 80.2367 107.656C79.8673 108.737 78.6718 108.925 78.862 110.387C79.076 112.032 79.5599 112.716 78.8572 114.367C78.7063 114.722 78.5467 115.089 78.258 115.344C77.6082 115.919 75.0277 115.465 74.831 116.342C74.7645 116.639 74.9274 116.942 75.1388 117.161C75.3503 117.379 75.6125 117.544 75.8201 117.766C76.0813 118.046 76.2827 118.487 75.9106 118.74" stroke="#1D1D1B" stroke-width="0.99774" stroke-miterlimit="10" stroke-linecap="round"/>
<path d="M100.264 136.137C100.264 136.137 127.37 140.329 131.118 151.226C134.867 162.124 138.039 179.169 138.039 179.169" stroke="#1D1D1B" stroke-width="0.60195" stroke-miterlimit="10"/>
<path d="M142.076 177.492L124.486 205.993" stroke="#1D1D1B" stroke-width="0.60195" stroke-miterlimit="10"/>
<path d="M54.7036 204.596C54.7036 204.596 71.4284 183.36 78.349 180.286C85.2696 177.212 83.0908 174.884 83.0908 174.884L87.2881 174.977L66.8147 205.155" stroke="#1D1D1B" stroke-width="0.60195" stroke-miterlimit="10"/>
<path d="M63.6426 173.3L99.1106 176.095L117.566 141.725L95.1361 136.813" stroke="#1D1D1B" stroke-width="0.60195" stroke-miterlimit="10"/>
<path d="M101.994 124.681L116.124 121.328L114.97 129.71C114.97 129.71 99.9756 132.505 97.3804 134.461" stroke="#1D1D1B" stroke-width="0.60195" stroke-miterlimit="10"/>
<path d="M119.007 117.415C119.872 117.415 129.388 109.592 141.211 118.813" stroke="#1D1D1B" stroke-width="0.60195" stroke-miterlimit="10"/>
<path d="M71.5171 153.465L69.8716 155.548C76.321 155.334 93.8132 155.242 103.716 159.883C104.198 159.144 104.689 158.35 105.182 157.531C104.391 157.255 97.6243 154.819 90.2754 153.888C82.8385 152.946 74.804 153.509 71.5171 153.465Z" stroke="#1D1D1B" stroke-width="0.60195" stroke-miterlimit="10"/>
<path d="M82.9706 140.811L75.5413 148.371L74.0728 150.23L87.5954 150.287L87.7688 149.869L88.6489 147.747L89.8845 144.769L90.5765 143.101L91.2198 141.551L82.9706 140.811Z" stroke="#1D1D1B" stroke-width="0.60195" stroke-miterlimit="10"/>
<path d="M66.6064 159.936C66.6064 159.936 95.8273 162.739 98.6382 164.782C99.3872 165.326 100.738 164.058 102.312 161.919C95.2546 159.9 75.1797 158.584 67.8106 158.157L66.6064 159.936Z" stroke="#1D1D1B" stroke-width="0.60195" stroke-miterlimit="10"/>
<path d="M111.775 145.341C112.349 144.191 112.693 143.477 112.693 143.477L91.2199 141.551L90.5767 143.101C95.8067 143.483 108.362 144.466 111.775 145.341Z" stroke="#1D1D1B" stroke-width="0.60195" stroke-miterlimit="10"/>
<path d="M69.8718 155.548L67.8105 158.157C75.1796 158.584 95.2545 159.899 102.312 161.918C102.765 161.303 103.235 160.623 103.716 159.883C93.8134 155.242 76.3213 155.334 69.8718 155.548Z" stroke="#1D1D1B" stroke-width="0.60195" stroke-miterlimit="10"/>
<path d="M90.5763 143.101L89.8843 144.769C94.2142 145.431 106.677 147.395 110.131 148.573C110.783 147.313 111.344 146.204 111.774 145.341C108.362 144.466 95.8063 143.483 90.5763 143.101Z" stroke="#1D1D1B" stroke-width="0.60195" stroke-miterlimit="10"/>
<path d="M88.6489 147.748C93.3937 148.357 105.247 149.982 108.906 150.908C109.34 150.094 109.75 149.311 110.131 148.574C106.677 147.395 94.2144 145.432 89.8845 144.77L88.6489 147.748Z" stroke="#1D1D1B" stroke-width="0.60195" stroke-miterlimit="10"/>
<path d="M87.5956 150.287L74.073 150.23L71.5176 153.465C74.7228 153.508 82.1487 152.853 89.2879 153.747C96.9984 154.713 104.356 157.242 105.182 157.531C105.723 156.631 106.264 155.7 106.796 154.759C102.743 151.912 87.5956 150.287 87.5956 150.287Z" stroke="#1D1D1B" stroke-width="0.60195" stroke-miterlimit="10"/>
<path d="M88.1871 150.409C91.0498 151 101.049 151.583 106.796 154.759C107.53 153.46 108.243 152.152 108.906 150.908C105.247 149.982 93.3935 148.357 88.6487 147.748L87.8289 149.724C87.7077 150.016 87.8776 150.345 88.1871 150.409Z" stroke="#1D1D1B" stroke-width="0.60195" stroke-miterlimit="10"/>
<path d="M97.641 35.54C97.641 35.54 106.806 51.4504 113.572 50.9647L115.614 48.7935C115.614 48.7935 110.687 47.2819 106.304 42.7086C102.454 38.6905 99.1907 31.5386 97.7844 31.5386C94.7773 31.5386 97.641 35.54 97.641 35.54Z" fill="#1D1D1B"/>
<path d="M72.0944 121.01C71.5477 121.692 70.0869 120.823 69.5795 121.639C69.151 122.327 69.4397 122.827 70.0847 123.209C70.9527 123.724 71.929 124.065 72.7153 124.697C72.8931 124.84 73.0629 125.001 73.1682 125.204C73.8821 126.576 70.1936 126.1 69.5935 126.534C69.5058 126.597 69.4245 126.687 69.4217 126.795C69.4187 126.912 69.506 127.009 69.59 127.09C70.3173 127.79 71.2006 128.317 71.9898 128.943C72.1209 129.047 72.2536 129.155 72.3419 129.297C72.5147 129.575 72.4877 129.934 72.3936 130.247C72.0514 131.386 71.6805 132.523 71.3236 133.659C70.8165 135.272 70.2754 136.874 69.7256 138.473C68.7663 141.264 63.1891 163.637 62.3923 166.479C62.0534 167.688 62.5622 173.063 63.0797 174.316" stroke="#1D1D1B" stroke-width="0.99774" stroke-miterlimit="10" stroke-linecap="round"/>
<path d="M101.094 44.1999C87.6733 38.4498 78.9772 38.1821 73.7204 39.2478C74.5028 39.8007 75.1677 40.4641 75.5592 41.2562L76.0389 42.6987L73.3527 45.9138L66.3179 43.1382C65.4817 44.1772 63.8458 46.1854 61.5875 48.8416C60.8184 49.7462 60.1273 51.5402 59.5176 53.7777C61.4631 54.0099 62.5788 54.2382 62.5788 54.2382C63.0822 55.4097 63.3457 56.6406 63.4444 57.8736L69.6429 57.3414C69.9099 52.9141 70.829 49.5306 70.829 49.5306L74.2503 49.0491C75.2658 48.9062 76.1737 49.6753 76.1653 50.6712L76.1149 56.6114L74.2665 56.673L74.3155 56.9401L75.1002 56.8728L75.4003 58.0244L74.543 58.1786L74.6032 58.506L76.5222 58.3462L75.9347 65.7545C74.0676 66.679 70.233 66.0524 70.233 66.0524C69.6995 63.7257 69.5404 61.3127 69.5771 59.0718L63.4506 60.1738C63.2838 62.5332 62.6404 64.7656 62.0131 66.4529C63.1303 66.2599 63.7458 66.1667 63.7458 66.1667L62.0605 71.8922C68.39 71.4952 72.8456 72.8256 75.1389 76.667C78.0407 81.5279 79.476 88.4298 79.476 88.4298L79.594 88.6936L79.838 89.2394C80.361 88.7457 80.9677 88.1712 81.6423 87.5296C87.7496 81.7209 99.3589 70.4653 103.655 64.8358C109.6 57.0471 101.094 44.1999 101.094 44.1999Z" fill="white"/>
<path d="M62.579 54.2382C62.579 54.2382 61.4633 54.0099 59.5178 53.7777C51.8858 52.8668 37.3732 48.6536 21.1973 61.1644C20.9995 61.3174 20.801 61.4687 20.6045 61.6258C19.5574 62.4626 18.9275 63.6898 18.8282 65.0029C18.6158 67.8126 18.5682 72.9496 20.3813 77.1937C20.4415 77.1667 20.5017 77.1399 20.562 77.113C21.1136 76.8662 21.6666 76.6219 22.2218 76.3824C29.3013 73.3284 30.7198 74.1083 37.4413 72.1623C45.2673 69.8967 52.263 68.3369 57.0698 67.3775C59.1777 66.9568 60.8631 66.6515 62.0133 66.4529C62.6406 64.7656 63.284 62.5332 63.4508 60.1738L63.1413 60.2294L61.7594 60.2298C61.3991 62.5697 60.5377 64.3759 60.5377 64.3759L57.4454 64.5893L48.1195 65.2331C46.5265 61.3822 47.9011 56.3307 47.9011 56.3307C47.9011 56.3307 56.4447 55.1117 58.1062 54.9965C58.4486 54.9727 58.8077 55.044 59.1624 55.1674C60.5288 55.6426 61.8271 56.9321 61.8271 56.9321C61.8508 57.1069 61.8648 57.2816 61.8787 57.4562C62.6545 57.6762 63.2431 57.8908 63.2431 57.8908L63.4446 57.8735C63.3459 56.6405 63.0824 55.4097 62.579 54.2382Z" fill="white"/>
<path d="M62.0133 66.4532C60.8631 66.6519 59.1777 66.9571 57.0697 67.3778C52.2629 68.3372 45.2672 69.897 37.4412 72.1627C30.7197 74.1086 29.3012 73.3287 22.2217 76.3828C21.8536 77.2754 21.5814 78.217 21.4343 79.2117C21.1972 80.8154 21.3849 82.637 21.8869 84.596L24.3228 85.289C24.3228 85.289 32.7395 81.2254 41.4429 77.6549C47.0649 75.3486 52.8041 73.2495 56.4744 72.5832C56.5284 72.5734 56.5843 72.5623 56.6375 72.5531C58.577 72.2178 60.381 71.9978 62.0606 71.8925L63.7459 66.167C63.7459 66.167 63.1305 66.2602 62.0133 66.4532Z" fill="white"/>
<path d="M75.5591 41.2562C75.1676 40.4641 74.5027 39.8007 73.7203 39.2478C71.2452 37.4989 67.5826 36.8682 67.5826 36.8682L64.107 40.2529L64.064 42.2489L66.3178 43.1382L73.3526 45.9138L76.0388 42.6987L75.5591 41.2562Z" fill="white"/>
<path d="M100.879 86.0086L99.4409 85.8704C98.4527 85.7755 97.6609 85.0343 97.5275 84.0791C97.4962 83.8554 97.3062 83.6844 97.0739 83.671L93.3672 83.4574C93.1491 83.4448 92.9492 83.5749 92.8782 83.7755L92.5978 84.5682C92.3208 85.3516 91.5212 85.8437 90.6729 85.753L89.517 85.6292C89.2662 85.6024 89.0449 85.7881 89.036 86.0328L88.9292 88.9704C88.8107 92.2283 91.3999 94.9798 94.7534 95.1598C98.2793 95.349 101.248 92.6318 101.26 89.2044L101.27 86.4291C101.27 86.212 101.101 86.03 100.879 86.0086Z" fill="white"/>
<path d="M70.2331 66.0526C70.2331 66.0526 74.0678 66.6792 75.9349 65.7547L76.5223 58.3464L74.6033 58.5061L74.5432 58.1787L69.5773 59.0719C69.5406 61.3129 69.6997 63.7258 70.2331 66.0526Z" fill="white"/>
<path d="M74.2666 56.6733L76.115 56.6116L76.1655 50.6715C76.1739 49.6756 75.2659 48.9065 74.2505 49.0494L70.8291 49.5309C70.8291 49.5309 69.9101 52.9144 69.6431 57.3416L74.3157 56.9404L74.2666 56.6733Z" fill="white"/>
<path d="M58.7431 57.0347C58.7736 57.0298 58.8066 57.0247 58.8323 57.0203C59.6012 56.8874 60.8917 57.1763 61.8787 57.4564C61.8649 57.2819 61.8509 57.1071 61.8272 56.9324C61.8272 56.9324 60.5289 55.6428 59.1624 55.1677C58.8077 55.0443 58.4487 54.973 58.1063 54.9967C56.4448 55.112 47.9011 56.331 47.9011 56.331C47.9011 56.331 46.5265 61.3825 48.1195 65.2333L57.4455 64.5896L60.5378 64.3761C60.5378 64.3761 61.3992 62.5699 61.7594 60.2301L59.1564 60.2308L58.1073 60.3768L48.9666 61.6484C47.7562 59.8805 48.9399 58.1286 48.9399 58.1286C48.9399 58.1286 57.1388 57.2903 58.7431 57.0347Z" fill="white"/>
<path d="M75.1002 56.873L74.3155 56.9404L69.6429 57.3416L63.4444 57.8738L63.2429 57.8911C63.2429 57.8911 62.6543 57.6766 61.8785 57.4565C60.8915 57.1764 59.601 56.8874 58.8321 57.0203C58.8064 57.0248 58.7734 57.0299 58.7428 57.0347C57.1386 57.2904 48.9397 58.1286 48.9397 58.1286C48.9397 58.1286 47.756 59.8806 48.9663 61.6484L58.107 60.3768L59.1561 60.2309L61.7592 60.2301L63.1411 60.2297L63.4506 60.1741L69.5771 59.072L74.543 58.1788L75.4003 58.0246L75.1002 56.873Z" fill="white"/>
<path d="M128.993 55.4033C128.993 55.4033 128.963 55.2973 128.901 55.1016L126.747 57.2715C126.747 57.2715 118.872 70.7363 119.616 76.4195C119.66 76.7525 119.701 77.0915 119.74 77.4356C119.754 77.5612 119.766 77.6907 119.78 77.8177C119.803 78.0378 119.827 78.2569 119.849 78.4809C119.864 78.6458 119.877 78.8146 119.892 78.9815C119.908 79.1717 119.925 79.3605 119.94 79.5533C119.954 79.7427 119.965 79.9356 119.978 80.1273C119.989 80.3015 120.001 80.4743 120.011 80.6503C120.022 80.8572 120.03 81.0671 120.039 81.2764C120.047 81.441 120.055 81.6044 120.06 81.7704C120.068 81.9934 120.072 82.2188 120.076 82.4441C120.079 82.5985 120.083 82.7518 120.085 82.9072C120.088 83.1462 120.087 83.3872 120.086 83.6285C120.085 83.7725 120.086 83.9157 120.084 84.0604C120.081 84.3126 120.073 84.5665 120.066 84.8208C120.062 84.9567 120.059 85.092 120.054 85.2284C120.044 85.4919 120.03 85.7565 120.015 86.0216C120.008 86.1503 120.001 86.2787 119.993 86.4077C119.975 86.6817 119.953 86.9564 119.93 87.2317C119.92 87.3527 119.91 87.4735 119.899 87.5947C119.872 87.8788 119.842 88.1634 119.809 88.4486C119.796 88.561 119.784 88.6733 119.77 88.7858C119.733 89.0796 119.693 89.3735 119.65 89.6678C119.635 89.7721 119.619 89.8763 119.603 89.9807C119.556 90.2829 119.505 90.5851 119.451 90.8874C119.433 90.9831 119.416 91.0786 119.398 91.1743C119.339 91.4855 119.276 91.7964 119.208 92.1072C119.19 92.1924 119.171 92.2775 119.151 92.3626C119.079 92.6829 119.003 93.0026 118.921 93.3219C118.902 93.3961 118.882 93.4701 118.862 93.5442C118.775 93.8735 118.684 94.2018 118.586 94.5294C118.567 94.5915 118.548 94.6534 118.529 94.7154C118.426 95.0539 118.317 95.3911 118.202 95.7271C118.185 95.7756 118.167 95.8238 118.15 95.8722C118.029 96.2204 117.901 96.5669 117.765 96.9118C117.752 96.945 117.738 96.9779 117.725 97.0111C117.582 97.3705 117.433 97.7279 117.274 98.083C117.269 98.0961 117.262 98.1091 117.256 98.1222C116.159 100.572 114.102 104.013 111.461 106.764C108.777 109.561 105.515 111.649 105.45 111.887C105.239 112.656 104.424 113.114 103.631 112.908L102.395 112.588C102.229 112.799 102.041 113.036 101.835 113.296C101.808 113.33 101.78 113.365 101.752 113.401C101.67 113.504 101.586 113.609 101.499 113.719C101.47 113.756 101.44 113.794 101.409 113.832C101.328 113.934 101.244 114.04 101.158 114.148C101.114 114.203 101.069 114.259 101.024 114.317C100.946 114.415 100.865 114.515 100.784 114.617C100.734 114.68 100.684 114.743 100.632 114.808C100.545 114.917 100.456 115.029 100.365 115.142C100.317 115.202 100.27 115.261 100.221 115.322C100.124 115.443 100.025 115.568 99.9244 115.693C99.8768 115.752 99.8306 115.81 99.7823 115.87C99.6345 116.055 99.4839 116.242 99.3296 116.434C101.039 117.436 102.166 117.717 102.415 117.614C135.263 104.136 128.993 55.4033 128.993 55.4033Z" fill="white"/>
<path d="M101.26 89.2044L101.27 86.4291C101.27 86.212 101.101 86.03 100.879 86.0086L99.4409 85.8704C98.4527 85.7755 97.6609 85.0343 97.5275 84.0791C97.4962 83.8554 97.3062 83.6844 97.0739 83.671L93.3672 83.4574C93.1491 83.4448 92.9492 83.5749 92.8782 83.7755L92.5978 84.5682C92.3208 85.3516 91.5212 85.8437 90.6729 85.753L89.517 85.6292C89.2662 85.6024 89.0449 85.7881 89.036 86.0328L88.9292 88.9704C88.8107 92.2283 91.3999 94.9798 94.7534 95.1598C98.2793 95.349 101.248 92.6318 101.26 89.2044Z" fill="white"/>
<path d="M96.0495 105.468L105.074 108.312C105.637 108.489 105.922 109.048 105.71 109.561C105.541 109.967 105.111 110.218 104.659 110.217C104.853 110.308 105.019 110.437 105.152 110.591C105.153 110.591 105.619 111.624 105.619 111.624C111.968 107.224 115.041 103.062 117.257 98.1226C117.263 98.1095 117.269 98.0965 117.275 98.0833C117.433 97.7284 117.583 97.3708 117.725 97.0115C117.739 96.9783 117.753 96.9454 117.766 96.9121C117.901 96.5674 118.029 96.2206 118.15 95.8726C118.167 95.8242 118.185 95.7759 118.202 95.7275C118.317 95.3916 118.426 95.0541 118.529 94.7158C118.548 94.6538 118.568 94.5919 118.586 94.5298C118.684 94.2023 118.776 93.8738 118.863 93.5446C118.882 93.4705 118.902 93.3965 118.921 93.3223C119.003 93.003 119.079 92.6832 119.152 92.363C119.171 92.2779 119.19 92.1928 119.208 92.1076C119.276 91.7968 119.339 91.4858 119.398 91.1747C119.416 91.079 119.434 90.9834 119.451 90.8878C119.506 90.5855 119.557 90.2832 119.603 89.9811C119.62 89.8767 119.635 89.7725 119.65 89.6682C119.693 89.3739 119.734 89.0799 119.77 88.7862C119.784 88.6737 119.796 88.5614 119.809 88.449C119.842 88.1639 119.872 87.8791 119.899 87.5951C119.91 87.4739 119.92 87.3531 119.93 87.2321C119.953 86.9569 119.975 86.682 119.993 86.4081C120.001 86.2791 120.008 86.1507 120.015 86.022C120.03 85.7569 120.044 85.4922 120.054 85.2288C120.059 85.0925 120.062 84.957 120.066 84.8212C120.074 84.567 120.081 84.313 120.084 84.0607C120.086 83.9161 120.086 83.7728 120.086 83.6289C120.087 83.3877 120.088 83.1465 120.085 82.9075C120.084 82.7523 120.08 82.5988 120.076 82.4445C120.072 82.2193 120.068 81.9937 120.06 81.7708C120.055 81.6049 120.047 81.4413 120.04 81.2768C120.031 81.0675 120.022 80.8576 120.011 80.6507C120.001 80.4748 119.989 80.3018 119.978 80.1277C119.965 79.936 119.954 79.7431 119.94 79.5537C119.925 79.361 119.908 79.1721 119.892 78.9819C119.877 78.815 119.864 78.6462 119.849 78.4813C119.828 78.2573 119.804 78.0381 119.78 77.818C119.767 77.6911 119.754 77.5616 119.74 77.436C119.701 77.0919 119.66 76.7528 119.616 76.4199C118.872 70.7367 126.748 57.2719 126.748 57.2719L128.901 55.1019C128.024 52.3192 120.718 30.9102 101.419 23.7705C82.3147 16.7028 61.7838 16.763 40.9594 31.9002C32.5653 38.0018 22.7082 52.8794 21.1973 61.1647C37.3732 48.654 51.8857 52.8672 59.5177 53.778C60.1274 51.5405 60.8185 49.7465 61.5876 48.8419C63.8459 46.1857 65.4818 44.1775 66.318 43.1385L64.0642 42.2492L64.1072 40.2532L67.5828 36.8685C67.5828 36.8685 71.2454 37.4992 73.7205 39.2481C78.9773 38.1824 87.6734 38.4501 101.094 44.2002C101.094 44.2002 109.6 57.0474 103.656 64.8361C99.359 70.4656 87.7498 81.7212 81.6425 87.5299C85.1841 96.5468 90.2858 102.405 94.6498 106.068C94.8648 105.56 95.4892 105.291 96.0495 105.468ZM88.9294 88.9704L89.0361 86.0328C89.045 85.7881 89.2663 85.6024 89.5171 85.6293L90.673 85.753C91.5213 85.8437 92.321 85.3516 92.598 84.5682L92.8784 83.7755C92.9493 83.5749 93.1493 83.4448 93.3674 83.4574L97.0741 83.671C97.3063 83.6844 97.4964 83.8554 97.5276 84.0792C97.6611 85.0343 98.4529 85.7755 99.4411 85.8705L100.879 86.0086C101.101 86.03 101.271 86.2121 101.27 86.4291L101.26 89.2044C101.248 92.6318 98.2794 95.3491 94.7536 95.1598C91.4 94.9798 88.8109 92.2283 88.9294 88.9704Z" fill="white"/>
<path d="M105.152 110.591L105.154 110.59L105.152 110.591V110.591Z" fill="white"/>
<path d="M92.4448 108.518C92.6563 107.748 93.4707 107.291 94.2638 107.496L94.3911 107.529C94.371 107.579 94.3472 107.627 94.3326 107.68C94.3 107.798 94.2888 107.916 94.2873 108.034C94.4429 107.83 94.5879 107.639 94.722 107.464C94.9405 107.178 95.1294 106.931 95.2844 106.729C95.1353 106.834 95.011 106.971 94.9337 107.138C94.6133 106.883 94.484 106.466 94.646 106.074C94.6471 106.072 94.6487 106.07 94.6497 106.068C90.2856 102.405 85.1839 96.5467 81.6423 87.5298C80.9676 88.1714 80.3609 88.7459 79.8379 89.2396L83.4545 97.3297C86.5316 103.217 89.6215 107.482 92.39 110.536C92.5485 110.326 92.7027 110.122 92.8533 109.923C92.4784 109.571 92.3009 109.042 92.4448 108.518Z" fill="white"/>
<path d="M104.386 109.791C104.386 109.393 104.121 109.025 103.684 108.887L96.3181 106.566C95.9565 106.452 95.5713 106.527 95.2842 106.729C95.1293 106.931 94.9404 107.178 94.7219 107.464C94.5877 107.639 94.4428 107.83 94.2872 108.034C94.279 108.678 94.7146 109.271 95.3856 109.445L102.536 111.297C102.838 111.376 103.143 111.356 103.416 111.262C103.764 111.141 104.06 110.897 104.236 110.568C104.285 110.476 104.326 110.379 104.354 110.276C104.363 110.244 104.366 110.213 104.37 110.181C104.349 110.176 104.327 110.174 104.306 110.167L104.303 110.166C104.307 110.156 104.315 110.147 104.319 110.136C104.366 110.022 104.385 109.905 104.386 109.791Z" fill="white"/>
<path d="M99.9243 115.693C100.024 115.568 100.124 115.443 100.221 115.322C100.27 115.261 100.317 115.202 100.365 115.142C100.455 115.029 100.545 114.917 100.632 114.808C100.684 114.743 100.734 114.68 100.784 114.617C100.865 114.515 100.946 114.415 101.024 114.317C101.069 114.26 101.114 114.204 101.158 114.148C101.244 114.04 101.328 113.934 101.409 113.832C101.439 113.794 101.469 113.756 101.499 113.719C101.586 113.61 101.67 113.504 101.752 113.401C101.78 113.366 101.808 113.33 101.835 113.296C102.041 113.037 102.229 112.799 102.395 112.588L93.4978 110.284C93.2445 110.218 93.029 110.088 92.8532 109.923C92.7025 110.122 92.5484 110.326 92.3899 110.536C91.5291 111.677 90.5583 112.972 89.5438 114.339C85.3764 119.956 80.4737 126.794 79.4361 129.224C77.5632 133.61 69.7318 138.349 65.542 139.236C65.542 139.236 76.8254 140.933 82.4767 135.243C84.9375 132.766 91.7097 125.753 95.0777 121.664C96.6074 119.807 98.0704 118.002 99.3294 116.434C99.4837 116.242 99.6344 116.055 99.7821 115.87C99.8305 115.81 99.8767 115.752 99.9243 115.693Z" fill="white"/>
<path d="M96.3183 106.566L103.684 108.887C104.121 109.025 104.387 109.393 104.386 109.791C104.386 109.905 104.367 110.022 104.319 110.136C104.315 110.147 104.308 110.156 104.303 110.166L104.306 110.167C104.327 110.174 104.349 110.176 104.37 110.181C104.373 110.16 104.378 110.138 104.381 110.117L104.397 110.121C104.489 110.145 104.576 110.178 104.659 110.217C105.111 110.218 105.541 109.967 105.71 109.561C105.922 109.048 105.637 108.489 105.074 108.312L96.0494 105.468C95.4891 105.291 94.8647 105.56 94.6497 106.068C94.6487 106.07 94.6471 106.072 94.6461 106.075C94.4841 106.466 94.6133 106.883 94.9338 107.138C95.0111 106.971 95.1353 106.834 95.2844 106.729C95.5715 106.527 95.9567 106.452 96.3183 106.566Z" fill="white"/>
<path d="M105.152 110.591C105.019 110.437 104.853 110.308 104.659 110.217C104.576 110.179 104.489 110.145 104.397 110.121L104.381 110.117C104.378 110.138 104.373 110.16 104.37 110.181C104.366 110.213 104.363 110.244 104.355 110.276C104.326 110.379 104.285 110.476 104.236 110.568C104.06 110.897 103.764 111.141 103.416 111.262C103.143 111.357 102.838 111.376 102.536 111.297L95.3857 109.445C94.7147 109.271 94.2791 108.678 94.2874 108.034C94.2888 107.916 94.3 107.798 94.3326 107.68C94.3472 107.627 94.3711 107.579 94.3911 107.529L94.2638 107.496C93.4707 107.291 92.6563 107.748 92.4448 108.518C92.3009 109.042 92.4784 109.571 92.8533 109.923C93.0292 110.088 93.2446 110.218 93.4979 110.284L102.395 112.589L103.631 112.909C104.424 113.114 105.239 112.657 105.45 111.887C105.579 111.416 105.451 110.939 105.152 110.591Z" fill="white"/>
<path d="M58.9508 60.0894L57.7726 62.4665L47.4072 64.1187" fill="white"/>
<path d="M63.9526 41.1216L72.7727 44.5991C72.7727 44.5991 75.2995 43.3374 75.489 41.9966" fill="white"/>
<path d="M112.8 60.8614C111.61 61.0628 110.478 60.368 110.271 59.3096C110.114 58.5038 110.542 57.722 111.279 57.3046C111.395 57.1856 111.524 57.0762 111.672 56.9858C111.614 56.9918 111.556 56.9969 111.498 57.0068C110.12 57.2399 109.21 58.4903 109.465 59.7996C109.72 61.1089 111.043 61.9814 112.421 61.7482C113.581 61.552 114.407 60.6343 114.488 59.568C114.483 59.574 114.476 59.579 114.472 59.5849C114.21 60.2205 113.598 60.7265 112.8 60.8614Z" fill="white"/>
<path d="M110.779 58.8481C110.667 58.2739 110.875 57.7164 111.278 57.3047C110.541 57.722 110.114 58.5038 110.271 59.3097C110.477 60.3681 111.609 61.0629 112.8 60.8615C113.597 60.7265 114.21 60.2205 114.471 59.585C114.166 59.9524 113.714 60.2256 113.173 60.3171C112.046 60.5078 110.974 59.8501 110.779 58.8481Z" fill="white"/>
<path d="M112.466 56.6887C112.172 56.7385 111.905 56.8434 111.672 56.9859C111.524 57.0763 111.395 57.1857 111.278 57.3047C110.875 57.7164 110.667 58.2739 110.779 58.8481C110.974 59.8501 112.046 60.5078 113.173 60.3171C113.714 60.2256 114.165 59.9524 114.471 59.585C114.476 59.5791 114.482 59.5741 114.487 59.5681C114.808 59.1729 114.96 58.6708 114.86 58.1577C114.665 57.1557 113.593 56.498 112.466 56.6887Z" fill="white"/>
<path d="M101.905 43.7946C88.4843 38.0445 79.7882 37.7769 74.5315 38.8426C75.3138 39.3954 75.9787 40.0589 76.3702 40.8509L76.8499 42.2934L74.1638 45.5085L67.1289 42.7329C66.2928 43.7719 64.6568 45.7802 62.3985 48.4363C61.6295 49.3409 60.9384 51.1349 60.3286 53.3725C62.2742 53.6046 63.3899 53.8329 63.3899 53.8329C63.8932 55.0045 64.1567 56.2353 64.2554 57.4683L70.454 56.9361C70.721 52.5089 71.64 49.1254 71.64 49.1254L75.0613 48.6439C76.0768 48.501 76.9848 49.2701 76.9763 50.2659L76.9259 56.2061L75.0775 56.2678L75.1266 56.5349L75.9112 56.4675L76.2114 57.6191L75.3541 57.7733L75.4142 58.1007L77.3332 57.9409L76.7458 65.3493C74.8787 66.2737 71.044 65.6472 71.044 65.6472C70.5105 63.3204 70.3514 60.9074 70.3882 58.6665L64.2616 59.7685C64.0948 62.128 63.4514 64.3604 62.8242 66.0476C63.9414 65.8547 64.5568 65.7614 64.5568 65.7614L62.8715 71.4869C69.2011 71.0899 73.6566 72.4203 75.9499 76.2618C78.8518 81.1226 80.2871 88.0245 80.2871 88.0245L80.405 88.2883L80.649 88.8341C81.172 88.3404 81.7787 87.7659 82.4534 87.1243C88.5607 81.3156 100.17 70.0601 104.466 64.4306C110.411 56.6419 101.905 43.7946 101.905 43.7946Z" fill="#C6CDF0"/>
<path d="M63.39 53.8329C63.39 53.8329 62.2743 53.6046 60.3288 53.3724C52.6968 52.4616 38.1843 48.2484 22.0084 60.7591C21.8105 60.9121 21.6121 61.0634 21.4155 61.2205C20.3684 62.0574 19.7385 63.2846 19.6393 64.5977C19.4268 67.4074 19.3792 72.5444 21.1924 76.7885C21.2526 76.7614 21.3127 76.7346 21.373 76.7077C21.9246 76.4609 22.4776 76.2167 23.0328 75.9772C30.1123 72.9231 31.5308 73.703 38.2523 71.7571C46.0783 69.4914 53.074 67.9316 57.8808 66.9722C59.9888 66.5515 61.6742 66.2462 62.8244 66.0476C63.4516 64.3603 64.095 62.1279 64.2618 59.7685L63.9523 59.8241L62.5704 59.8246C62.2101 62.1644 61.3487 63.9706 61.3487 63.9706L58.2565 64.184L48.9305 64.8278C47.3375 60.977 48.7121 55.9255 48.7121 55.9255C48.7121 55.9255 57.2558 54.7065 58.9172 54.5912C59.2597 54.5674 59.6187 54.6388 59.9734 54.7621C61.3398 55.2373 62.6382 56.5269 62.6382 56.5269C62.6619 56.7016 62.6758 56.8763 62.6897 57.0509C63.4655 57.271 64.0541 57.4856 64.0541 57.4856L64.2556 57.4683C64.1569 56.2353 63.8934 55.0044 63.39 53.8329Z" fill="#C6CDF0"/>
<path d="M62.8243 66.0474C61.6741 66.2461 59.9887 66.5513 57.8808 66.9721C53.074 67.9315 46.0783 69.4912 38.2523 71.7569C31.5307 73.7029 30.1123 72.923 23.0327 75.977C22.6647 76.8697 22.3924 77.8113 22.2453 78.8059C22.0083 80.4097 22.196 82.2312 22.698 84.1902L25.1338 84.8833C25.1338 84.8833 33.5505 80.8196 42.254 77.2492C47.8759 74.9428 53.6151 72.8438 57.2854 72.1774C57.3395 72.1676 57.3954 72.1565 57.4485 72.1473C59.3881 71.812 61.1921 71.592 62.8717 71.4867L64.5569 65.7612C64.5569 65.7612 63.9415 65.8545 62.8243 66.0474Z" fill="#E4E8F6"/>
<path d="M76.3701 40.8509C75.9786 40.0589 75.3137 39.3954 74.5313 38.8426C72.0562 37.0937 68.3936 36.4629 68.3936 36.4629L64.918 39.8477L64.875 41.8437L67.1288 42.7329L74.1637 45.5085L76.8498 42.2934L76.3701 40.8509Z" fill="#7E8CDE"/>
<path d="M101.69 85.6028L100.252 85.4647C99.2637 85.3697 98.4719 84.6285 98.3385 83.6734C98.3072 83.4496 98.1172 83.2786 97.885 83.2652L94.1783 83.0516C93.9601 83.0391 93.7602 83.1691 93.6892 83.3697L93.4088 84.1624C93.1319 84.9458 92.3322 85.438 91.4839 85.3472L90.328 85.2235C90.0772 85.1967 89.8559 85.3824 89.847 85.627L89.7402 88.5646C89.6218 91.8225 92.2109 94.574 95.5645 94.754C99.0903 94.9433 102.059 92.226 102.071 88.7986L102.081 86.0233C102.082 85.8063 101.912 85.6242 101.69 85.6028Z" fill="white" stroke="#1D1D1B" stroke-width="0.64985" stroke-linejoin="round"/>
<path d="M71.0442 65.6468C71.0442 65.6468 74.8788 66.2734 76.7459 65.3489L77.3334 57.9406L75.4144 58.1004L75.3542 57.7729L70.3883 58.6662C70.3516 60.9071 70.5107 63.3201 71.0442 65.6468Z" fill="#7E8CDE"/>
<path d="M75.0776 56.2675L76.9261 56.2059L76.9765 50.2657C76.9849 49.2698 76.077 48.5007 75.0615 48.6436L71.6401 49.1251C71.6401 49.1251 70.7211 52.5086 70.4541 56.9358L75.1267 56.5346L75.0776 56.2675Z" fill="#7E8CDE"/>
<path d="M59.5541 56.6289C59.5846 56.624 59.6177 56.619 59.6433 56.6145C60.4123 56.4816 61.7027 56.7706 62.6898 57.0507C62.6759 56.8761 62.6619 56.7014 62.6382 56.5266C62.6382 56.5266 61.3399 55.237 59.9735 54.7619C59.6188 54.6385 59.2597 54.5672 58.9173 54.591C57.2558 54.7062 48.7122 55.9252 48.7122 55.9252C48.7122 55.9252 47.3376 60.9767 48.9306 64.8275L58.2565 64.1838L61.3488 63.9704C61.3488 63.9704 62.2102 62.1642 62.5705 59.8243L59.9674 59.8251L58.9183 59.971L49.7776 61.2426C48.5672 59.4747 49.7509 57.7228 49.7509 57.7228C49.7509 57.7228 57.9499 56.8846 59.5541 56.6289Z" fill="#7E8CDE"/>
<path d="M75.9112 56.4673L75.1266 56.5346L70.454 56.9359L64.2554 57.4681L64.054 57.4854C64.054 57.4854 63.4653 57.2708 62.6896 57.0507C61.7025 56.7706 60.412 56.4817 59.6431 56.6146C59.6174 56.619 59.5844 56.6241 59.5539 56.629C57.9496 56.8846 49.7507 57.7228 49.7507 57.7228C49.7507 57.7228 48.567 59.4748 49.7774 61.2427L58.9181 59.9711L59.9672 59.8251L62.5702 59.8244L63.9521 59.824L64.2616 59.7683L70.3882 58.6663L75.3541 57.7731L76.2114 57.6189L75.9112 56.4673Z" fill="#7E8CDE"/>
<path d="M101.443 114.402C101.356 114.511 101.267 114.624 101.176 114.737" stroke="#1D1D1B" stroke-width="0.64985" stroke-linejoin="round"/>
<path d="M101.835 113.911C101.757 114.009 101.677 114.11 101.596 114.211" stroke="#1D1D1B" stroke-width="0.64985" stroke-linejoin="round"/>
<path d="M102.22 113.426C102.139 113.529 102.055 113.635 101.969 113.742" stroke="#1D1D1B" stroke-width="0.64985" stroke-linejoin="round"/>
<path d="M102.563 112.995C102.482 113.098 102.398 113.204 102.311 113.313" stroke="#1D1D1B" stroke-width="0.64985" stroke-linejoin="round"/>
<path d="M102.646 112.89C102.852 112.63 103.04 112.393 103.206 112.183" stroke="#1D1D1B" stroke-width="0.64985" stroke-linejoin="round"/>
<path d="M101.033 114.917C100.936 115.038 100.836 115.162 100.736 115.287" stroke="#1D1D1B" stroke-width="0.64985" stroke-linejoin="round"/>
<path d="M100.141 116.029C100.295 115.837 100.446 115.649 100.593 115.465" stroke="#1D1D1B" stroke-width="0.64985" stroke-linejoin="round"/>
<path d="M129.804 54.9981C129.804 54.9981 129.774 54.892 129.712 54.6963L127.558 56.8662C127.558 56.8662 119.683 70.3311 120.427 76.0142C120.471 76.3472 120.512 76.6862 120.551 77.0303C120.565 77.1559 120.578 77.2854 120.591 77.4124C120.615 77.6325 120.638 77.8516 120.66 78.0757C120.675 78.2405 120.688 78.4093 120.703 78.5762C120.719 78.7665 120.736 78.9553 120.751 79.1481C120.765 79.3375 120.776 79.5303 120.789 79.722C120.8 79.8962 120.812 80.069 120.822 80.245C120.833 80.4519 120.842 80.6619 120.85 80.8711C120.858 81.0357 120.866 81.1992 120.871 81.3651C120.879 81.5881 120.883 81.8135 120.887 82.0389C120.89 82.1932 120.895 82.3466 120.896 82.5019C120.899 82.7409 120.898 82.982 120.897 83.2232C120.896 83.3672 120.897 83.5104 120.895 83.6551C120.892 83.9074 120.884 84.1612 120.877 84.4155C120.873 84.5514 120.87 84.6868 120.865 84.8231C120.855 85.0866 120.841 85.3512 120.826 85.6164C120.819 85.7451 120.812 85.8734 120.804 86.0025C120.786 86.2764 120.764 86.5511 120.741 86.8265C120.731 86.9474 120.721 87.0682 120.71 87.1894C120.683 87.4736 120.653 87.7582 120.62 88.0433C120.607 88.1557 120.595 88.268 120.581 88.3805C120.545 88.6743 120.504 88.9682 120.461 89.2625C120.446 89.3669 120.43 89.4711 120.414 89.5754C120.367 89.8777 120.316 90.1798 120.262 90.4822C120.245 90.5778 120.227 90.6734 120.209 90.769C120.15 91.0802 120.087 91.3911 120.019 91.7019C120.001 91.7871 119.982 91.8722 119.962 91.9574C119.89 92.2777 119.814 92.5973 119.732 92.9166C119.713 92.9908 119.693 93.0648 119.673 93.139C119.586 93.4682 119.495 93.7966 119.397 94.1241C119.378 94.1862 119.359 94.2481 119.34 94.3101C119.237 94.6486 119.128 94.9858 119.013 95.3218C118.996 95.3703 118.978 95.4185 118.961 95.4669C118.84 95.8151 118.712 96.1617 118.576 96.5065C118.563 96.5397 118.549 96.5727 118.536 96.6059C118.393 96.9653 118.244 97.3227 118.085 97.6777C118.08 97.6908 118.073 97.7038 118.067 97.717C116.97 100.167 114.913 103.608 112.272 106.359C109.588 109.156 106.326 111.244 106.261 111.481C106.05 112.251 105.235 112.708 104.442 112.503L103.206 112.183C103.04 112.394 102.852 112.631 102.646 112.891C102.619 112.925 102.591 112.96 102.563 112.995C102.481 113.098 102.397 113.204 102.31 113.314C102.281 113.351 102.251 113.389 102.22 113.426C102.139 113.529 102.055 113.634 101.969 113.742C101.925 113.798 101.88 113.854 101.835 113.911C101.757 114.009 101.677 114.11 101.595 114.212C101.545 114.275 101.495 114.337 101.443 114.402C101.356 114.511 101.267 114.624 101.176 114.737C101.128 114.797 101.081 114.855 101.032 114.917C100.935 115.038 100.836 115.162 100.735 115.287C100.688 115.347 100.642 115.405 100.593 115.465C100.446 115.649 100.295 115.837 100.141 116.029C101.85 117.031 102.977 117.311 103.226 117.209C136.074 103.731 129.804 54.9981 129.804 54.9981Z" fill="#C6CDF0"/>
<path d="M102.071 88.7986L102.081 86.0233C102.082 85.8063 101.912 85.6242 101.69 85.6028L100.252 85.4647C99.2637 85.3697 98.4719 84.6285 98.3385 83.6734C98.3072 83.4496 98.1172 83.2786 97.885 83.2652L94.1783 83.0516C93.9601 83.0391 93.7602 83.1691 93.6892 83.3697L93.4088 84.1624C93.1319 84.9458 92.3322 85.438 91.4839 85.3472L90.328 85.2235C90.0772 85.1967 89.8559 85.3824 89.847 85.627L89.7402 88.5646C89.6218 91.8225 92.2109 94.574 95.5645 94.754C99.0903 94.9433 102.059 92.2261 102.071 88.7986Z" fill="#8E9BE1"/>
<path d="M96.8606 105.062L105.885 107.906C106.448 108.083 106.733 108.642 106.521 109.155C106.352 109.561 105.922 109.812 105.47 109.812C105.664 109.902 105.83 110.031 105.963 110.185C105.964 110.185 106.43 111.219 106.43 111.218C112.779 106.818 115.852 102.656 118.068 97.7169C118.074 97.7037 118.08 97.6907 118.086 97.6776C118.244 97.3227 118.394 96.9651 118.536 96.6058C118.55 96.5726 118.564 96.5396 118.577 96.5064C118.712 96.1617 118.84 95.8149 118.962 95.4668C118.978 95.4184 118.996 95.3702 119.013 95.3217C119.128 94.9858 119.237 94.6484 119.34 94.31C119.359 94.248 119.379 94.1861 119.397 94.124C119.495 93.7966 119.587 93.468 119.674 93.1389C119.693 93.0648 119.713 92.9907 119.732 92.9165C119.814 92.5973 119.89 92.2775 119.963 91.9573C119.982 91.8721 120.001 91.787 120.019 91.7018C120.087 91.3911 120.15 91.08 120.209 90.7689C120.227 90.6733 120.245 90.5777 120.262 90.4821C120.317 90.1798 120.368 89.8775 120.414 89.5753C120.431 89.471 120.446 89.3668 120.461 89.2624C120.505 88.9682 120.545 88.6741 120.581 88.3804C120.595 88.2679 120.607 88.1556 120.62 88.0432C120.653 87.7582 120.683 87.4734 120.71 87.1893C120.721 87.0681 120.731 86.9473 120.741 86.8264C120.764 86.5511 120.786 86.2762 120.804 86.0024C120.812 85.8734 120.819 85.7449 120.826 85.6163C120.841 85.3512 120.855 85.0864 120.865 84.823C120.87 84.6867 120.873 84.5512 120.877 84.4154C120.885 84.1612 120.892 83.9072 120.895 83.655C120.897 83.5104 120.897 83.367 120.897 83.2231C120.898 82.9819 120.899 82.7408 120.896 82.5018C120.895 82.3465 120.891 82.193 120.888 82.0388C120.883 81.8135 120.879 81.588 120.871 81.365C120.866 81.1991 120.858 81.0356 120.851 80.871C120.842 80.6618 120.833 80.4518 120.822 80.2449C120.812 80.069 120.8 79.8961 120.789 79.7219C120.776 79.5303 120.765 79.3373 120.751 79.1479C120.736 78.9552 120.719 78.7663 120.703 78.5761C120.689 78.4092 120.675 78.2404 120.66 78.0756C120.639 77.8515 120.615 77.6323 120.591 77.4123C120.578 77.2853 120.566 77.1558 120.551 77.0302C120.512 76.6862 120.471 76.347 120.427 76.0141C119.683 70.331 127.559 56.8661 127.559 56.8661L129.712 54.6962C128.835 51.9135 121.529 30.5044 102.23 23.3647C83.1258 16.297 62.5949 16.3572 41.7704 31.4944C33.3764 37.596 23.5193 52.4737 22.0083 60.759C38.1842 48.2482 52.6967 52.4614 60.3287 53.3723C60.9385 51.1347 61.6296 49.3407 62.3986 48.4361C64.6569 45.78 66.2929 43.7717 67.129 42.7327L64.8752 41.8435L64.9182 39.8475L68.3939 36.4627C68.3939 36.4627 72.0564 37.0935 74.5316 38.8424C79.7883 37.7767 88.4845 38.0443 101.905 43.7944C101.905 43.7944 110.411 56.6417 104.467 64.4304C100.17 70.0599 88.5608 81.3154 82.4535 87.1241C85.9951 96.1411 91.0969 101.999 95.4609 105.662C95.6758 105.154 96.3002 104.886 96.8606 105.062ZM89.7404 88.5646L89.8472 85.6271C89.8561 85.3824 90.0774 85.1967 90.3282 85.2235L91.4841 85.3472C92.3324 85.438 93.132 84.9458 93.409 84.1624L93.6894 83.3697C93.7603 83.1691 93.9603 83.0391 94.1784 83.0516L97.8851 83.2653C98.1174 83.2786 98.3074 83.4496 98.3387 83.6734C98.4721 84.6285 99.2639 85.3697 100.252 85.4647L101.69 85.6028C101.912 85.6242 102.082 85.8063 102.081 86.0233L102.071 88.7987C102.059 92.2261 99.0905 94.9433 95.5646 94.754C92.2111 94.574 89.6219 91.8225 89.7404 88.5646Z" fill="#E4E8F6"/>
<path d="M105.963 110.185L105.965 110.185L105.963 110.185V110.185Z" fill="white" stroke="#1D1D1B" stroke-width="0.64985" stroke-linejoin="round"/>
<path d="M93.2559 108.112C93.4673 107.343 94.2818 106.885 95.0748 107.091L95.2021 107.124C95.1821 107.173 95.1582 107.221 95.1436 107.274C95.1111 107.392 95.0999 107.511 95.0984 107.628C95.2539 107.424 95.3989 107.234 95.5331 107.058C95.7515 106.772 95.9405 106.525 96.0954 106.323C95.9463 106.428 95.8221 106.565 95.7447 106.733C95.4243 106.478 95.295 106.06 95.4571 105.669C95.4581 105.666 95.4597 105.664 95.4607 105.662C91.0967 101.999 85.9949 96.141 82.4533 87.124C81.7786 87.7657 81.172 88.3401 80.6489 88.8338L84.2656 96.9239C87.3427 102.812 90.4325 107.076 93.2011 110.131C93.3596 109.92 93.5137 109.716 93.6643 109.517C93.2894 109.165 93.112 108.636 93.2559 108.112Z" fill="#C6CDF0"/>
<path d="M105.197 109.385C105.198 108.987 104.932 108.619 104.495 108.481L97.1296 106.16C96.768 106.046 96.3828 106.121 96.0958 106.323C95.9408 106.525 95.7519 106.772 95.5334 107.058C95.3992 107.234 95.2543 107.424 95.0987 107.628C95.0905 108.272 95.5261 108.866 96.1971 109.039L103.347 110.892C103.649 110.97 103.954 110.951 104.228 110.856C104.576 110.735 104.872 110.491 105.047 110.162C105.096 110.071 105.137 109.974 105.166 109.87C105.175 109.838 105.178 109.807 105.182 109.775C105.16 109.77 105.139 109.768 105.118 109.762L105.114 109.76C105.119 109.75 105.126 109.741 105.13 109.73C105.178 109.616 105.197 109.499 105.197 109.385Z" fill="#3F3F3E" stroke="#3F3F3E" stroke-width="0.63295" stroke-linejoin="round"/>
<path d="M100.736 115.288C100.836 115.163 100.936 115.038 101.033 114.917C101.082 114.856 101.129 114.797 101.176 114.737C101.267 114.624 101.357 114.511 101.444 114.402C101.495 114.338 101.545 114.275 101.596 114.212C101.677 114.11 101.757 114.009 101.835 113.911C101.881 113.854 101.925 113.798 101.97 113.742C102.055 113.635 102.14 113.529 102.221 113.427C102.251 113.389 102.281 113.351 102.31 113.314C102.398 113.204 102.482 113.098 102.563 112.996C102.591 112.96 102.619 112.925 102.646 112.891C102.852 112.631 103.041 112.393 103.207 112.183L94.3093 109.878C94.056 109.813 93.8406 109.683 93.6647 109.518C93.5141 109.717 93.3599 109.921 93.2014 110.131C92.3406 111.272 91.3698 112.567 90.3554 113.934C86.188 119.551 81.2852 126.389 80.2476 128.819C78.3747 133.205 70.5433 137.944 66.3535 138.831C66.3535 138.831 77.6369 140.527 83.2882 134.838C85.749 132.361 92.5213 125.348 95.8893 121.259C97.4189 119.402 98.882 117.596 100.141 116.029C100.295 115.837 100.446 115.649 100.594 115.465C100.642 115.405 100.688 115.347 100.736 115.288Z" fill="#3F3F3E" stroke="#3F3F3E" stroke-width="0.63295" stroke-linejoin="round"/>
<path d="M102.646 112.891C102.619 112.925 102.591 112.96 102.563 112.995" stroke="#1D1D1B" stroke-width="0.64985" stroke-linejoin="round"/>
<path d="M102.31 113.313C102.281 113.351 102.251 113.388 102.221 113.426" stroke="#1D1D1B" stroke-width="0.64985" stroke-linejoin="round"/>
<path d="M101.595 114.211C101.545 114.275 101.495 114.337 101.443 114.402" stroke="#1D1D1B" stroke-width="0.64985" stroke-linejoin="round"/>
<path d="M101.969 113.742C101.925 113.798 101.88 113.854 101.835 113.911" stroke="#1D1D1B" stroke-width="0.64985" stroke-linejoin="round"/>
<path d="M100.735 115.287C100.688 115.347 100.642 115.404 100.593 115.465" stroke="#1D1D1B" stroke-width="0.64985" stroke-linejoin="round"/>
<path d="M101.177 114.736C101.129 114.796 101.082 114.855 101.033 114.916" stroke="#1D1D1B" stroke-width="0.64985" stroke-linejoin="round"/>
<path d="M97.1293 106.16L104.495 108.481C104.932 108.619 105.198 108.987 105.197 109.385C105.197 109.499 105.178 109.616 105.13 109.73C105.126 109.741 105.119 109.75 105.114 109.76L105.117 109.762C105.138 109.768 105.16 109.77 105.181 109.775C105.184 109.754 105.189 109.733 105.192 109.711L105.208 109.715C105.3 109.739 105.387 109.773 105.47 109.811C105.922 109.812 106.352 109.561 106.521 109.155C106.733 108.642 106.448 108.083 105.885 107.906L96.8604 105.062C96.3001 104.885 95.6757 105.154 95.4607 105.662C95.4598 105.664 95.4581 105.666 95.4571 105.669C95.2951 106.06 95.4244 106.478 95.7448 106.733C95.8221 106.566 95.9464 106.428 96.0955 106.323C96.3825 106.121 96.7677 106.046 97.1293 106.16Z" fill="#7E8CDE"/>
<path d="M105.963 110.185C105.83 110.031 105.664 109.902 105.47 109.812C105.387 109.773 105.3 109.739 105.208 109.715L105.192 109.711C105.189 109.733 105.184 109.754 105.181 109.775C105.177 109.807 105.174 109.838 105.166 109.87C105.137 109.974 105.096 110.071 105.047 110.162C104.871 110.491 104.575 110.736 104.228 110.856C103.954 110.951 103.649 110.97 103.347 110.892L96.1967 109.04C95.5258 108.866 95.0902 108.272 95.0984 107.628C95.0999 107.511 95.1111 107.392 95.1436 107.274C95.1582 107.221 95.1821 107.173 95.2021 107.124L95.0748 107.091C94.2817 106.885 93.4673 107.343 93.2559 108.112C93.112 108.636 93.2894 109.165 93.6643 109.517C93.8402 109.683 94.0556 109.812 94.3089 109.878L103.206 112.183L104.442 112.503C105.235 112.708 106.05 112.251 106.261 111.481C106.39 111.01 106.262 110.533 105.963 110.185Z" fill="#7E8CDE"/>
<path d="M59.7618 59.6836L58.5837 62.0607L48.2183 63.7129" fill="#7E8CDE"/>
<path d="M64.7637 40.7158L73.5838 44.1933C73.5838 44.1933 76.1105 42.9316 76.3 41.5908" fill="#7E8CDE"/>
<path d="M113.611 60.4556C112.421 60.657 111.289 59.9623 111.082 58.9038C110.926 58.098 111.353 57.3162 112.09 56.8989C112.206 56.7799 112.335 56.6705 112.483 56.5801C112.425 56.586 112.367 56.5911 112.309 56.601C110.931 56.8341 110.021 58.0845 110.276 59.3938C110.531 60.7031 111.854 61.5756 113.232 61.3425C114.392 61.1462 115.218 60.2285 115.299 59.1623C115.294 59.1682 115.287 59.1732 115.283 59.1792C115.021 59.8147 114.409 60.3207 113.611 60.4556Z" fill="#7E8CDE"/>
<path d="M111.59 58.4424C111.478 57.8681 111.686 57.3106 112.089 56.8989C111.352 57.3163 110.925 58.0981 111.082 58.9039C111.288 59.9623 112.42 60.6571 113.611 60.4557C114.408 60.3208 115.021 59.8148 115.282 59.1792C114.977 59.5466 114.525 59.8198 113.984 59.9114C112.857 60.102 111.785 59.4443 111.59 58.4424Z" fill="#7E8CDE"/>
<path d="M113.278 56.2829C112.983 56.3327 112.716 56.4376 112.483 56.5802C112.335 56.6706 112.206 56.78 112.09 56.8989C111.686 57.3106 111.479 57.8681 111.591 58.4424C111.786 59.4444 112.858 60.102 113.984 59.9114C114.526 59.8198 114.977 59.5466 115.283 59.1793C115.288 59.1733 115.294 59.1683 115.299 59.1624C115.62 58.7672 115.772 58.2651 115.672 57.7519C115.476 56.7499 114.405 56.0922 113.278 56.2829Z" fill="#7E8CDE"/>
<path d="M101.023 44.486C87.6025 38.7359 78.9064 38.4683 73.6496 39.534C74.432 40.0868 75.0969 40.7503 75.4884 41.5423L75.9681 42.9848L73.2819 46.1999L66.2471 43.4243C65.4109 44.4633 63.775 46.4716 61.5167 49.1277C60.7476 50.0323 60.0565 51.8263 59.4468 54.0639C61.3923 54.296 62.508 54.5243 62.508 54.5243C63.0114 55.6959 63.2749 56.9267 63.3736 58.1597L69.5721 57.6275C69.8391 53.2003 70.7582 49.8168 70.7582 49.8168L74.1795 49.3353C75.195 49.1924 76.1029 49.9615 76.0945 50.9573L76.0441 56.8975L74.1957 56.9592L74.2447 57.2263L75.0294 57.1589L75.3295 58.3105L74.4722 58.4647L74.5324 58.7921L76.4514 58.6323L75.8639 66.0407C73.9968 66.9652 70.1622 66.3386 70.1622 66.3386C69.6287 64.0118 69.4696 61.5988 69.5063 59.3579L63.3798 60.4599C63.213 62.8194 62.5696 65.0518 61.9423 66.739C63.0595 66.5461 63.675 66.4528 63.675 66.4528L61.9897 72.1783C68.3192 71.7813 72.7748 73.1117 75.0681 76.9532C77.9699 81.814 79.4052 88.7159 79.4052 88.7159L79.5232 88.9798L79.7672 89.5255C80.2902 89.0318 80.8969 88.4573 81.5715 87.8157C87.6788 82.007 99.2881 70.7515 103.585 65.122C109.529 57.3333 101.023 44.486 101.023 44.486Z" stroke="#3F3F3E" stroke-width="0.63295" stroke-linejoin="round"/>
<path d="M62.5082 54.5243C62.5082 54.5243 61.3925 54.296 59.447 54.0638C51.815 53.153 37.3024 48.9398 21.1265 61.4505C20.9287 61.6036 20.7302 61.7549 20.5337 61.9119C19.4866 62.7488 18.8567 63.976 18.7574 65.2891C18.545 68.0988 18.4974 73.2358 20.3105 77.4799C20.3707 77.4528 20.4309 77.426 20.4912 77.3991C21.0428 77.1523 21.5958 76.9081 22.151 76.6686C29.2305 73.6145 30.649 74.3944 37.3705 72.4485C45.1965 70.1828 52.1922 68.623 56.999 67.6636C59.1069 67.2429 60.7923 66.9376 61.9425 66.739C62.5698 65.0517 63.2132 62.8193 63.38 60.4599L63.0705 60.5156L61.6886 60.516C61.3283 62.8558 60.4669 64.662 60.4669 64.662L57.3746 64.8754L48.0487 65.5192C46.4557 61.6684 47.8303 56.6169 47.8303 56.6169C47.8303 56.6169 56.3739 55.3979 58.0354 55.2826C58.3778 55.2588 58.7369 55.3302 59.0916 55.4535C60.458 55.9287 61.7563 57.2183 61.7563 57.2183C61.78 57.393 61.794 57.5677 61.8079 57.7423C62.5837 57.9624 63.1723 58.177 63.1723 58.177L63.3738 58.1597C63.2751 56.9267 63.0116 55.6958 62.5082 54.5243Z" stroke="#3F3F3E" stroke-width="0.63295" stroke-linejoin="round"/>
<path d="M61.9425 66.7388C60.7923 66.9375 59.1069 67.2427 56.999 67.6635C52.1921 68.6229 45.1964 70.1826 37.3704 72.4483C30.6489 74.3943 29.2305 73.6144 22.1509 76.6684C21.7828 77.5611 21.5105 78.5027 21.3635 79.4973C21.1264 81.1011 21.3141 82.9226 21.8161 84.8816L24.252 85.5747C24.252 85.5747 32.6687 81.511 41.3721 77.9406C46.9941 75.6342 52.7333 73.5352 56.4036 72.8688C56.4576 72.859 56.5136 72.8479 56.5667 72.8387C58.5062 72.5034 60.3103 72.2834 61.9898 72.1781L63.6751 66.4526C63.6751 66.4526 63.0597 66.5459 61.9425 66.7388Z" stroke="#3F3F3E" stroke-width="0.63295" stroke-linejoin="round"/>
<path d="M75.4888 41.5423C75.0973 40.7503 74.4323 40.0868 73.65 39.534C71.1749 37.7851 67.5123 37.1543 67.5123 37.1543L64.0367 40.5391L63.9937 42.5351L66.2475 43.4243L73.2823 46.1999L75.9685 42.9848L75.4888 41.5423Z" stroke="#3F3F3E" stroke-width="0.63295" stroke-linejoin="round"/>
<path d="M100.808 86.2942L99.3701 86.1561C98.3819 86.0611 97.5901 85.3199 97.4567 84.3648C97.4254 84.141 97.2354 83.97 97.0031 83.9567L93.2964 83.743C93.0783 83.7305 92.8783 83.8605 92.8074 84.0611L92.527 84.8538C92.25 85.6372 91.4504 86.1294 90.6021 86.0386L89.4462 85.9149C89.1954 85.8881 88.974 86.0738 88.9652 86.3184L88.8584 89.256C88.7399 92.5139 91.3291 95.2654 94.6826 95.4454C98.2085 95.6347 101.177 92.9175 101.189 89.49L101.199 86.7147C101.2 86.4977 101.03 86.3156 100.808 86.2942Z" stroke="#3F3F3E" stroke-width="0.63295" stroke-linejoin="round"/>
<path d="M70.1623 66.3387C70.1623 66.3387 73.997 66.9653 75.8641 66.0408L76.4515 58.6325L74.5325 58.7923L74.4724 58.4648L69.5065 59.3581C69.4698 61.599 69.6289 64.012 70.1623 66.3387Z" stroke="#3F3F3E" stroke-width="0.63295" stroke-linejoin="round"/>
<path d="M74.1958 56.9589L76.0442 56.8973L76.0947 50.9571C76.1031 49.9612 75.1951 49.1921 74.1796 49.335L70.7583 49.8165C70.7583 49.8165 69.8393 53.2 69.5723 57.6272L74.2449 57.226L74.1958 56.9589Z" stroke="#3F3F3E" stroke-width="0.63295" stroke-linejoin="round"/>
<path d="M58.6723 57.3203C58.7028 57.3154 58.7358 57.3104 58.7615 57.3059C59.5304 57.173 60.8209 57.462 61.8079 57.7421C61.7941 57.5675 61.7801 57.3928 61.7564 57.218C61.7564 57.218 60.4581 55.9285 59.0916 55.4533C58.7369 55.3299 58.3779 55.2586 58.0355 55.2824C56.374 55.3976 47.8303 56.6166 47.8303 56.6166C47.8303 56.6166 46.4557 61.6681 48.0487 65.519L57.3747 64.8752L60.467 64.6618C60.467 64.6618 61.3284 62.8556 61.6886 60.5157L59.0856 60.5165L58.0365 60.6624L48.8958 61.934C47.6854 60.1662 48.8691 58.4142 48.8691 58.4142C48.8691 58.4142 57.068 57.576 58.6723 57.3203Z" stroke="#3F3F3E" stroke-width="0.63295" stroke-linejoin="round"/>
<path d="M75.0294 57.1587L74.2448 57.2261L69.5722 57.6273L63.3736 58.1595L63.1721 58.1768C63.1721 58.1768 62.5835 57.9622 61.8077 57.7421C60.8207 57.462 59.5302 57.1731 58.7613 57.306C58.7356 57.3104 58.7026 57.3155 58.672 57.3204C57.0678 57.576 48.8689 58.4142 48.8689 58.4142C48.8689 58.4142 47.6852 60.1662 48.8955 61.9341L58.0362 60.6625L59.0853 60.5165L61.6884 60.5158L63.0703 60.5154L63.3798 60.4597L69.5063 59.3577L74.4722 58.4645L75.3295 58.3103L75.0294 57.1587Z" stroke="#3F3F3E" stroke-width="0.63295" stroke-linejoin="round"/>
<path d="M100.562 115.094C100.475 115.203 100.385 115.315 100.294 115.428" stroke="#3F3F3E" stroke-width="0.63295" stroke-linejoin="round"/>
<path d="M120.015 83.1934C120.017 83.4323 120.016 83.6735 120.015 83.9147" stroke="#3F3F3E" stroke-width="0.63295" stroke-linejoin="round"/>
<path d="M100.953 114.603C100.875 114.7 100.795 114.801 100.714 114.903" stroke="#3F3F3E" stroke-width="0.63295" stroke-linejoin="round"/>
<path d="M118.792 93.8306C118.705 94.1597 118.614 94.4883 118.516 94.8158" stroke="#3F3F3E" stroke-width="0.63295" stroke-linejoin="round"/>
<path d="M119.99 82.0566C119.997 82.2796 120.001 82.5052 120.006 82.7304" stroke="#3F3F3E" stroke-width="0.63295" stroke-linejoin="round"/>
<path d="M118.08 96.1582C117.958 96.5062 117.83 96.8531 117.695 97.1978" stroke="#3F3F3E" stroke-width="0.63295" stroke-linejoin="round"/>
<path d="M120.013 84.3467C120.01 84.5989 120.003 84.8529 119.996 85.1071" stroke="#3F3F3E" stroke-width="0.63295" stroke-linejoin="round"/>
<path d="M117.655 97.2974C117.512 97.6567 117.363 98.0143 117.204 98.3692" stroke="#3F3F3E" stroke-width="0.63295" stroke-linejoin="round"/>
<path d="M118.458 95.0015C118.355 95.3398 118.246 95.6773 118.131 96.0132" stroke="#3F3F3E" stroke-width="0.63295" stroke-linejoin="round"/>
<path d="M119.983 85.5146C119.973 85.778 119.959 86.0428 119.944 86.3079" stroke="#3F3F3E" stroke-width="0.63295" stroke-linejoin="round"/>
<path d="M119.922 86.6938C119.904 86.9677 119.883 87.2426 119.859 87.5178" stroke="#3F3F3E" stroke-width="0.63295" stroke-linejoin="round"/>
<path d="M101.339 114.118C101.257 114.221 101.173 114.326 101.087 114.434" stroke="#3F3F3E" stroke-width="0.63295" stroke-linejoin="round"/>
<path d="M101.681 113.687C101.6 113.79 101.516 113.896 101.429 114.005" stroke="#3F3F3E" stroke-width="0.63295" stroke-linejoin="round"/>
<path d="M101.765 113.582C101.971 113.322 102.159 113.085 102.325 112.875" stroke="#3F3F3E" stroke-width="0.63295" stroke-linejoin="round"/>
<path d="M100.151 115.608C100.054 115.729 99.9541 115.854 99.854 115.979" stroke="#3F3F3E" stroke-width="0.63295" stroke-linejoin="round"/>
<path d="M105.083 110.876C111.21 107.822 114.972 103.349 117.186 98.4082C114.97 103.347 111.21 107.823 105.083 110.876Z" stroke="#3F3F3E" stroke-width="0.63295" stroke-linejoin="round"/>
<path d="M119.699 89.0718C119.663 89.3654 119.623 89.6595 119.58 89.9538" stroke="#3F3F3E" stroke-width="0.63295" stroke-linejoin="round"/>
<path d="M119.669 77.7217C119.684 77.8473 119.696 77.9768 119.709 78.1038" stroke="#3F3F3E" stroke-width="0.63295" stroke-linejoin="round"/>
<path d="M119.327 91.4604C119.268 91.7716 119.205 92.0826 119.138 92.3933" stroke="#3F3F3E" stroke-width="0.63295" stroke-linejoin="round"/>
<path d="M119.533 90.2671C119.486 90.5692 119.435 90.8715 119.38 91.1738" stroke="#3F3F3E" stroke-width="0.63295" stroke-linejoin="round"/>
<path d="M99.2588 116.72C99.4131 116.528 99.5637 116.341 99.7115 116.156" stroke="#3F3F3E" stroke-width="0.63295" stroke-linejoin="round"/>
<path d="M119.081 92.6489C119.009 92.9692 118.932 93.289 118.85 93.6082" stroke="#3F3F3E" stroke-width="0.63295" stroke-linejoin="round"/>
<path d="M119.94 80.9365C119.952 81.1434 119.96 81.3534 119.969 81.5626" stroke="#3F3F3E" stroke-width="0.63295" stroke-linejoin="round"/>
<path d="M119.778 78.7671C119.794 78.932 119.807 79.1007 119.821 79.2676" stroke="#3F3F3E" stroke-width="0.63295" stroke-linejoin="round"/>
<path d="M119.828 87.8809C119.802 88.1649 119.771 88.4497 119.739 88.7348" stroke="#3F3F3E" stroke-width="0.63295" stroke-linejoin="round"/>
<path d="M119.869 79.8394C119.883 80.0287 119.895 80.2217 119.907 80.4134" stroke="#3F3F3E" stroke-width="0.63295" stroke-linejoin="round"/>
<path d="M128.923 55.6895C128.923 55.6895 128.892 55.5834 128.831 55.3877L126.677 57.5576C126.677 57.5576 118.801 71.0225 119.546 76.7056C119.589 77.0386 119.631 77.3776 119.67 77.7217C119.684 77.8473 119.696 77.9768 119.71 78.1038C119.733 78.3239 119.757 78.543 119.778 78.7671C119.794 78.9319 119.807 79.1007 119.821 79.2676C119.838 79.4579 119.855 79.6467 119.869 79.8395C119.884 80.0289 119.895 80.2217 119.907 80.4135C119.919 80.5877 119.931 80.7604 119.941 80.9364C119.952 81.1434 119.96 81.3533 119.969 81.5625C119.976 81.7271 119.984 81.8906 119.99 82.0565C119.997 82.2795 120.001 82.505 120.006 82.7303C120.009 82.8846 120.013 83.038 120.015 83.1933C120.017 83.4323 120.016 83.6734 120.016 83.9146C120.015 84.0586 120.015 84.2018 120.013 84.3465C120.01 84.5988 120.003 84.8526 119.996 85.1069C119.992 85.2428 119.989 85.3782 119.983 85.5146C119.973 85.778 119.959 86.0426 119.945 86.3078C119.937 86.4365 119.931 86.5648 119.922 86.6939C119.905 86.9678 119.883 87.2425 119.86 87.5179C119.85 87.6388 119.84 87.7596 119.828 87.8808C119.802 88.165 119.771 88.4496 119.739 88.7347C119.726 88.8472 119.713 88.9594 119.699 89.0719C119.663 89.3657 119.623 89.6596 119.58 89.954C119.565 90.0583 119.549 90.1625 119.533 90.2668C119.486 90.5691 119.435 90.8712 119.38 91.1736C119.363 91.2692 119.345 91.3648 119.327 91.4604C119.269 91.7717 119.205 92.0825 119.138 92.3933C119.119 92.4785 119.1 92.5636 119.081 92.6488C119.009 92.9691 118.932 93.2887 118.85 93.608C118.831 93.6822 118.812 93.7562 118.792 93.8304C118.705 94.1596 118.613 94.488 118.516 94.8156C118.497 94.8776 118.478 94.9395 118.459 95.0015C118.355 95.34 118.247 95.6772 118.131 96.0133C118.114 96.0617 118.097 96.1099 118.08 96.1583C117.958 96.5065 117.831 96.8531 117.695 97.1979C117.682 97.2311 117.668 97.2641 117.655 97.2973C117.512 97.6567 117.363 98.0141 117.204 98.3691C117.198 98.3822 117.192 98.3952 117.186 98.4084C116.088 100.858 114.032 104.3 111.391 107.051C108.706 109.847 105.445 111.935 105.38 112.173C105.168 112.942 104.354 113.4 103.561 113.194L102.325 112.874C102.159 113.085 101.971 113.322 101.765 113.582C101.737 113.616 101.709 113.652 101.682 113.687C101.6 113.79 101.516 113.895 101.429 114.005C101.399 114.042 101.369 114.08 101.339 114.118C101.258 114.221 101.174 114.326 101.088 114.434C101.043 114.49 100.999 114.545 100.953 114.603C100.875 114.701 100.795 114.801 100.714 114.903C100.663 114.966 100.614 115.029 100.562 115.094C100.475 115.203 100.385 115.315 100.295 115.428C100.247 115.488 100.2 115.547 100.151 115.608C100.054 115.729 99.9543 115.854 99.8541 115.979C99.8065 116.038 99.7603 116.096 99.712 116.156C99.5642 116.341 99.4136 116.528 99.2593 116.72C100.969 117.722 102.095 118.003 102.345 117.9C135.193 104.422 128.923 55.6895 128.923 55.6895Z" stroke="#3F3F3E" stroke-width="0.63295" stroke-linejoin="round"/>
<path d="M101.189 89.49L101.199 86.7147C101.2 86.4977 101.03 86.3156 100.808 86.2942L99.3701 86.1561C98.3819 86.0611 97.5901 85.3199 97.4567 84.3648C97.4254 84.141 97.2354 83.97 97.0031 83.9567L93.2964 83.743C93.0783 83.7305 92.8783 83.8605 92.8074 84.0611L92.527 84.8538C92.25 85.6372 91.4504 86.1294 90.6021 86.0386L89.4462 85.9149C89.1954 85.8881 88.974 86.0738 88.9652 86.3185L88.8584 89.256C88.7399 92.5139 91.3291 95.2654 94.6826 95.4454C98.2085 95.6347 101.177 92.9175 101.189 89.49Z" stroke="#3F3F3E" stroke-width="0.63295" stroke-linejoin="round"/>
<path d="M95.9787 105.754L105.003 108.597C105.566 108.775 105.851 109.334 105.639 109.846C105.471 110.253 105.04 110.503 104.588 110.503C104.782 110.594 104.948 110.722 105.082 110.877C105.082 110.877 105.548 111.91 105.549 111.91C111.897 107.51 114.97 103.347 117.186 98.4083C117.192 98.3951 117.198 98.3821 117.204 98.369C117.362 98.0141 117.512 97.6565 117.655 97.2972C117.668 97.264 117.682 97.231 117.695 97.1978C117.83 96.8531 117.958 96.5063 118.08 96.1582C118.097 96.1098 118.114 96.0616 118.131 96.0131C118.247 95.6772 118.355 95.3398 118.458 95.0014C118.477 94.9394 118.497 94.8775 118.515 94.8155C118.613 94.488 118.705 94.1594 118.792 93.8303C118.811 93.7562 118.831 93.6821 118.85 93.6079C118.932 93.2887 119.009 92.9689 119.081 92.6487C119.1 92.5635 119.119 92.4784 119.138 92.3932C119.205 92.0825 119.268 91.7714 119.327 91.4603C119.345 91.3647 119.363 91.2691 119.38 91.1735C119.435 90.8712 119.486 90.5689 119.533 90.2667C119.549 90.1624 119.564 90.0582 119.58 89.9538C119.623 89.6596 119.663 89.3655 119.699 89.0718C119.713 88.9593 119.726 88.847 119.739 88.7346C119.771 88.4496 119.802 88.1648 119.828 87.8807C119.839 87.7595 119.849 87.6387 119.859 87.5178C119.883 87.2425 119.904 86.9676 119.922 86.6938C119.93 86.5648 119.937 86.4363 119.944 86.3077C119.959 86.0426 119.973 85.7779 119.983 85.5145C119.988 85.3781 119.991 85.2426 119.995 85.1068C120.003 84.8526 120.01 84.5986 120.013 84.3464C120.015 84.2018 120.015 84.0584 120.015 83.9145C120.016 83.6733 120.017 83.4322 120.015 83.1932C120.013 83.0379 120.009 82.8844 120.006 82.7302C120.001 82.5049 119.997 82.2794 119.99 82.0564C119.984 81.8905 119.976 81.727 119.969 81.5624C119.96 81.3532 119.952 81.1432 119.94 80.9363C119.931 80.7604 119.918 80.5875 119.907 80.4133C119.895 80.2217 119.883 80.0287 119.869 79.8393C119.855 79.6466 119.837 79.4577 119.821 79.2675C119.807 79.1006 119.794 78.9318 119.778 78.767C119.757 78.5429 119.733 78.3237 119.709 78.1037C119.696 77.9767 119.684 77.8472 119.669 77.7216C119.63 77.3776 119.589 77.0385 119.546 76.7055C118.801 71.0224 126.677 57.5575 126.677 57.5575L128.83 55.3876C127.954 52.6049 120.647 31.1958 101.348 24.0561C82.2439 16.9884 61.713 17.0486 40.8886 32.1858C32.4945 38.2874 22.6374 53.1651 21.1265 61.4504C37.3024 48.9396 51.8149 53.1528 59.4469 54.0637C60.0566 51.8261 60.7477 50.0321 61.5168 49.1275C63.7751 46.4714 65.411 44.4631 66.2472 43.4241L63.9934 42.5349L64.0364 40.5389L67.512 37.1541C67.512 37.1541 71.1746 37.7849 73.6497 39.5338C78.9065 38.4681 87.6026 38.7357 101.023 44.4858C101.023 44.4858 109.529 57.3331 103.585 65.1218C99.2882 70.7513 87.679 82.0068 81.5717 87.8155C85.1133 96.8325 90.215 102.691 94.579 106.354C94.794 105.846 95.4184 105.577 95.9787 105.754ZM88.8586 89.256L88.9653 86.3185C88.9742 86.0738 89.1955 85.8881 89.4463 85.9149L90.6022 86.0386C91.4505 86.1294 92.2502 85.6372 92.5272 84.8539L92.8076 84.0611C92.8785 83.8605 93.0785 83.7305 93.2966 83.743L97.0033 83.9567C97.2355 83.97 97.4256 84.141 97.4568 84.3648C97.5903 85.3199 98.3821 86.0611 99.3703 86.1561L100.808 86.2942C101.031 86.3156 101.2 86.4977 101.199 86.7148L101.189 89.4901C101.177 92.9175 98.2086 95.6347 94.6828 95.4454C91.3292 95.2654 88.7401 92.5139 88.8586 89.256Z" stroke="#3F3F3E" stroke-width="0.63295" stroke-linejoin="round"/>
<path d="M119.821 79.2676C119.838 79.4578 119.855 79.6467 119.869 79.8394" stroke="#3F3F3E" stroke-width="0.63295" stroke-linejoin="round"/>
<path d="M119.709 78.104C119.733 78.324 119.757 78.5432 119.778 78.7673" stroke="#3F3F3E" stroke-width="0.63295" stroke-linejoin="round"/>
<path d="M119.907 80.4136C119.918 80.5877 119.931 80.7606 119.94 80.9366" stroke="#3F3F3E" stroke-width="0.63295" stroke-linejoin="round"/>
<path d="M119.739 88.7349C119.726 88.8472 119.713 88.9596 119.699 89.0721" stroke="#3F3F3E" stroke-width="0.63295" stroke-linejoin="round"/>
<path d="M119.545 76.7056C119.589 77.0385 119.63 77.3776 119.669 77.7217" stroke="#3F3F3E" stroke-width="0.63295" stroke-linejoin="round"/>
<path d="M119.969 81.5625C119.976 81.727 119.984 81.8906 119.989 82.0565" stroke="#3F3F3E" stroke-width="0.63295" stroke-linejoin="round"/>
<path d="M119.995 85.1069C119.991 85.2427 119.988 85.3782 119.983 85.5145" stroke="#3F3F3E" stroke-width="0.63295" stroke-linejoin="round"/>
<path d="M120.015 83.9146C120.015 84.0584 120.015 84.2018 120.013 84.3464" stroke="#3F3F3E" stroke-width="0.63295" stroke-linejoin="round"/>
<path d="M120.006 82.7305C120.009 82.8847 120.013 83.0382 120.015 83.1935" stroke="#3F3F3E" stroke-width="0.63295" stroke-linejoin="round"/>
<path d="M119.945 86.3076C119.937 86.4363 119.931 86.5647 119.922 86.6937" stroke="#3F3F3E" stroke-width="0.63295" stroke-linejoin="round"/>
<path d="M119.86 87.5181C119.849 87.639 119.839 87.7598 119.828 87.881" stroke="#3F3F3E" stroke-width="0.63295" stroke-linejoin="round"/>
<path d="M119.58 89.9541C119.564 90.0584 119.549 90.1626 119.533 90.267" stroke="#3F3F3E" stroke-width="0.63295" stroke-linejoin="round"/>
<path d="M117.695 97.1978C117.682 97.231 117.668 97.2639 117.655 97.2971" stroke="#3F3F3E" stroke-width="0.63295" stroke-linejoin="round"/>
<path d="M105.082 110.877L105.083 110.876L105.082 110.877V110.877Z" stroke="#3F3F3E" stroke-width="0.63295" stroke-linejoin="round"/>
<path d="M118.131 96.0132C118.114 96.0616 118.096 96.1099 118.08 96.1583" stroke="#3F3F3E" stroke-width="0.63295" stroke-linejoin="round"/>
<path d="M117.204 98.3691C117.198 98.3823 117.192 98.3953 117.186 98.4084" stroke="#3F3F3E" stroke-width="0.63295" stroke-linejoin="round"/>
<path d="M119.138 92.3936C119.119 92.4787 119.1 92.5639 119.081 92.649" stroke="#3F3F3E" stroke-width="0.63295" stroke-linejoin="round"/>
<path d="M118.515 94.8154C118.497 94.8775 118.477 94.9394 118.458 95.0014" stroke="#3F3F3E" stroke-width="0.63295" stroke-linejoin="round"/>
<path d="M118.85 93.6079C118.831 93.6821 118.811 93.7562 118.792 93.8303" stroke="#3F3F3E" stroke-width="0.63295" stroke-linejoin="round"/>
<path d="M119.38 91.1738C119.363 91.2695 119.345 91.3651 119.327 91.4607" stroke="#3F3F3E" stroke-width="0.63295" stroke-linejoin="round"/>
<path d="M92.3745 108.804C92.586 108.034 93.4004 107.577 94.1935 107.782L94.3208 107.815C94.3007 107.865 94.2769 107.912 94.2623 107.965C94.2297 108.084 94.2185 108.202 94.217 108.319C94.3726 108.115 94.5176 107.925 94.6517 107.749C94.8702 107.463 95.0591 107.217 95.2141 107.015C95.0649 107.12 94.9407 107.257 94.8634 107.424C94.543 107.169 94.4137 106.752 94.5757 106.36C94.5768 106.358 94.5784 106.356 94.5793 106.353C90.2153 102.69 85.1136 96.8324 81.572 87.8154C80.8973 88.4571 80.2906 89.0315 79.7676 89.5253L83.3842 97.6153C86.4613 103.503 89.5512 107.767 92.3197 110.822C92.4782 110.612 92.6323 110.408 92.783 110.209C92.4081 109.857 92.2306 109.328 92.3745 108.804Z" stroke="#3F3F3E" stroke-width="0.63295" stroke-linejoin="round"/>
<path d="M104.315 110.076C104.316 109.679 104.051 109.31 103.613 109.173L96.2478 106.852C95.8862 106.738 95.501 106.813 95.2139 107.015C95.059 107.217 94.8701 107.463 94.6516 107.749C94.5174 107.925 94.3725 108.115 94.2169 108.319C94.2087 108.964 94.6443 109.557 95.3152 109.731L102.465 111.583C102.767 111.661 103.072 111.642 103.346 111.547C103.694 111.427 103.99 111.182 104.165 110.854C104.214 110.762 104.256 110.665 104.284 110.561C104.293 110.53 104.296 110.498 104.3 110.467C104.279 110.461 104.257 110.46 104.236 110.453L104.232 110.452C104.237 110.441 104.244 110.432 104.249 110.422C104.296 110.307 104.315 110.191 104.315 110.076Z" stroke="#3F3F3E" stroke-width="0.63295" stroke-linejoin="round"/>
<path d="M99.854 115.979C99.9541 115.854 100.054 115.729 100.151 115.608C100.2 115.547 100.247 115.488 100.295 115.428C100.385 115.315 100.475 115.203 100.562 115.094C100.613 115.029 100.663 114.966 100.714 114.903C100.795 114.801 100.875 114.701 100.953 114.603C100.999 114.546 101.043 114.49 101.088 114.434C101.173 114.326 101.258 114.22 101.339 114.118C101.369 114.08 101.399 114.042 101.429 114.005C101.516 113.896 101.6 113.79 101.681 113.687C101.709 113.652 101.737 113.616 101.765 113.582C101.97 113.323 102.159 113.085 102.325 112.874L93.4275 110.57C93.1742 110.504 92.9587 110.374 92.7828 110.209C92.6322 110.408 92.4781 110.612 92.3196 110.822C91.4588 111.963 90.4879 113.258 89.4735 114.626C85.3061 120.242 80.4034 127.08 79.3658 129.51C77.4929 133.896 69.6615 138.635 65.4717 139.522C65.4717 139.522 76.755 141.219 82.4064 135.53C84.8672 133.052 91.6394 126.039 95.0074 121.951C96.5371 120.094 98.0001 118.288 99.2591 116.721C99.4134 116.529 99.5641 116.341 99.7118 116.156C99.7602 116.096 99.8064 116.038 99.854 115.979Z" stroke="#3F3F3E" stroke-width="0.63295" stroke-linejoin="round"/>
<path d="M101.764 113.582C101.737 113.616 101.709 113.652 101.681 113.687" stroke="#3F3F3E" stroke-width="0.63295" stroke-linejoin="round"/>
<path d="M101.429 114.005C101.399 114.042 101.369 114.08 101.339 114.118" stroke="#3F3F3E" stroke-width="0.63295" stroke-linejoin="round"/>
<path d="M100.714 114.903C100.663 114.966 100.613 115.029 100.562 115.093" stroke="#3F3F3E" stroke-width="0.63295" stroke-linejoin="round"/>
<path d="M101.088 114.434C101.043 114.489 100.999 114.545 100.953 114.603" stroke="#3F3F3E" stroke-width="0.63295" stroke-linejoin="round"/>
<path d="M99.8541 115.979C99.8065 116.038 99.7603 116.096 99.7119 116.156" stroke="#3F3F3E" stroke-width="0.63295" stroke-linejoin="round"/>
<path d="M100.295 115.428C100.247 115.488 100.2 115.547 100.151 115.608" stroke="#3F3F3E" stroke-width="0.63295" stroke-linejoin="round"/>
<path d="M96.2475 106.852L103.613 109.173C104.05 109.31 104.316 109.679 104.315 110.076C104.315 110.191 104.296 110.307 104.248 110.422C104.244 110.432 104.237 110.441 104.232 110.452L104.235 110.453C104.257 110.46 104.278 110.461 104.3 110.467C104.302 110.445 104.307 110.424 104.31 110.403L104.326 110.407C104.418 110.431 104.505 110.464 104.588 110.503C105.04 110.503 105.47 110.253 105.639 109.846C105.851 109.334 105.566 108.775 105.003 108.597L95.9786 105.753C95.4183 105.577 94.7939 105.846 94.5789 106.354C94.5779 106.356 94.5763 106.358 94.5753 106.36C94.4133 106.752 94.5425 107.169 94.863 107.424C94.9403 107.257 95.0645 107.12 95.2136 107.015C95.5007 106.813 95.8859 106.738 96.2475 106.852Z" stroke="#3F3F3E" stroke-width="0.63295" stroke-linejoin="round"/>
<path d="M105.082 110.877C104.949 110.722 104.783 110.594 104.589 110.503C104.506 110.464 104.419 110.431 104.327 110.407L104.311 110.403C104.307 110.424 104.303 110.445 104.3 110.467C104.296 110.498 104.293 110.53 104.284 110.561C104.256 110.665 104.215 110.762 104.166 110.854C103.99 111.182 103.694 111.427 103.346 111.547C103.072 111.642 102.768 111.661 102.465 111.583L95.3154 109.731C94.6444 109.557 94.2088 108.964 94.217 108.319C94.2185 108.202 94.2297 108.084 94.2623 107.965C94.2769 107.912 94.3007 107.865 94.3208 107.815L94.1934 107.782C93.4004 107.577 92.586 108.034 92.3745 108.804C92.2306 109.328 92.4081 109.857 92.783 110.209C92.9588 110.374 93.1743 110.504 93.4276 110.57L102.325 112.874L103.561 113.194C104.354 113.4 105.168 112.942 105.38 112.173C105.509 111.702 105.381 111.225 105.082 110.877Z" stroke="#3F3F3E" stroke-width="0.63295" stroke-linejoin="round"/>
<path d="M104.284 110.561L94.5483 108.014" stroke="#3F3F3E" stroke-width="0.63295" stroke-linejoin="round"/>
<path d="M58.8901 55.5762L58.5562 57.3343" stroke="#3F3F3E" stroke-width="0.63295" stroke-linejoin="round"/>
<path d="M58.88 60.375L57.7018 62.7521L47.3364 64.4043" stroke="#3F3F3E" stroke-width="0.63295" stroke-linejoin="round"/>
<path d="M63.8818 41.4077L72.7019 44.8852C72.7019 44.8852 75.2287 43.6235 75.4182 42.2827" stroke="#3F3F3E" stroke-width="0.63295" stroke-linejoin="round"/>
<path d="M112.729 61.147C111.539 61.3484 110.407 60.6537 110.201 59.5952C110.044 58.7894 110.471 58.0076 111.208 57.5903C111.325 57.4713 111.453 57.3619 111.601 57.2715C111.543 57.2774 111.485 57.2826 111.427 57.2924C110.049 57.5255 109.139 58.7759 109.394 60.0852C109.649 61.3945 110.973 62.267 112.35 62.0339C113.51 61.8376 114.336 60.9199 114.417 59.8537C114.412 59.8596 114.406 59.8646 114.401 59.8706C114.139 60.5061 113.527 61.0121 112.729 61.147Z" stroke="#3F3F3E" stroke-width="0.63295" stroke-linejoin="round"/>
<path d="M110.709 59.1338C110.597 58.5595 110.805 58.002 111.208 57.5903C110.471 58.0077 110.044 58.7895 110.201 59.5953C110.407 60.6538 111.539 61.3485 112.73 61.1471C113.527 61.0122 114.14 60.5062 114.401 59.8706C114.095 60.238 113.644 60.5112 113.103 60.6028C111.976 60.7934 110.904 60.1357 110.709 59.1338Z" stroke="#3F3F3E" stroke-width="0.63295" stroke-linejoin="round"/>
<path d="M112.396 56.9743C112.102 57.0241 111.835 57.129 111.601 57.2716C111.453 57.362 111.325 57.4714 111.208 57.5904C110.804 58.002 110.597 58.5595 110.709 59.1338C110.904 60.1358 111.976 60.7934 113.103 60.6028C113.644 60.5112 114.095 60.238 114.401 59.8707C114.406 59.8647 114.412 59.8597 114.417 59.8538C114.738 59.4586 114.89 58.9565 114.79 58.4433C114.595 57.4413 113.523 56.7836 112.396 56.9743Z" stroke="#3F3F3E" stroke-width="0.63295" stroke-linejoin="round"/>
</g>
</g>
<defs>
<clipPath id="clip0_1129_6035">
<rect width="200" height="200" fill="white"/>
</clipPath>
</defs>
</svg>
