<svg width="464" height="236" viewBox="0 0 464 236" fill="none" xmlns="http://www.w3.org/2000/svg">
<g clip-path="url(#clip0_1129_839)">
<path d="M458.536 266.503C456.253 262.06 418.311 227.4 416.884 227.104C416.216 226.965 414.345 226.445 411.504 226.531C408.279 226.628 403.8 227.509 398.341 230.659C388.071 236.583 369.812 275.732 369.812 275.732H467.95C467.95 275.732 460.818 270.947 458.536 266.503Z" fill="#5A69AF"/>
<path d="M140.364 236.679C140.364 236.679 139.322 227.87 141.778 226.048L127.105 228.616L118.332 230.152C118.332 230.152 100.792 194.636 97.4591 189.171L96.3252 184.739L88.1224 142.333C87.6155 133.705 86.4519 122.655 83.7779 117.41C83.533 116.93 83.2858 116.486 83.0382 116.049C78.4979 108.052 73.5261 107.371 68.8689 110.307C63.9576 113.403 61.502 144.73 61.3267 149.284C61.1513 153.837 59.5726 155.659 59.5726 155.659C59.5726 155.659 43.3733 194.876 44.3128 201.921C45.8914 213.76 55.7139 234.887 56.5909 241.626C57.4678 248.365 65.01 260.662 61.3267 275.733L137.922 277.764C137.922 277.764 151.11 260.011 140.364 236.679Z" fill="#A34D31"/>
<path d="M352.323 170.375C352.204 166.941 351.841 164.301 351.841 164.301C351.841 164.301 349.932 157.122 347.296 147.181L333.959 85.6485L322.316 31.9279C320.523 23.6553 313.045 18.0907 304.925 18.9866L82.1031 43.5704C75.2272 44.3291 70.467 51.0608 71.8287 58.1004L83.0381 116.049C83.2858 116.485 83.5329 116.929 83.7778 117.41C86.4518 122.655 87.6155 133.704 88.1224 142.333L96.3251 184.738L97.459 189.171C100.792 194.635 118.332 230.152 118.332 230.152L127.105 228.616L299.173 195.961C299.173 195.961 341.856 188.297 348.132 185.631C352.048 183.967 352.521 176.075 352.323 170.375Z" fill="#E4E8F6"/>
<path d="M394.062 195.703C393.491 186.816 395.85 170.23 390.144 162.231C384.438 154.233 369.813 132.901 361.54 111.868C359.022 105.468 354.175 102.818 351.94 100.881C350.171 99.3483 348.844 97.3624 348.066 95.1116C346.55 90.7251 343.867 83.9277 341.57 83.1326C339.445 82.3972 336.114 83.9444 333.959 85.6487L347.295 147.181C349.932 157.122 351.84 164.302 351.84 164.302C351.84 164.302 352.203 166.941 352.322 170.376C352.52 176.076 352.048 183.967 348.131 185.631C341.855 188.297 299.173 195.961 299.173 195.961C302.164 201.001 314.192 221.269 318.177 227.993C322.741 235.695 369.813 275.733 369.813 275.733C369.813 275.733 388.071 236.584 398.341 230.659C403.801 227.509 408.28 226.628 411.504 226.531C407.596 221.285 394.547 203.256 394.062 195.703Z" fill="#A34D31"/>
<path d="M187.873 108.01L103.037 120.313L94.3047 71.4301L179.008 61.0571L187.873 108.01Z" fill="white"/>
<path d="M319.986 88.8521L196.741 106.724L187.864 59.9727L310.988 44.8945L319.986 88.8521Z" fill="white"/>
<path d="M105.673 85.6053L103.267 85.9169L102.89 83.8157L105.296 83.5063L105.673 85.6053Z" fill="#5A69AF"/>
<path d="M106.753 91.619L104.345 91.9374L103.968 89.8332L106.375 89.5171L106.753 91.619Z" fill="#8E99CD"/>
<path d="M107.836 97.6405L105.428 97.9657L105.05 95.8585L107.457 95.5356L107.836 97.6405Z" fill="#C7CCE9"/>
<path d="M108.918 103.671L106.509 104.003L106.131 101.893L108.539 101.563L108.918 103.671Z" fill="#354A9A"/>
<path d="M110.003 109.71L107.594 110.049L107.215 107.936L109.624 107.599L110.003 109.71Z" fill="#EDEDED"/>
<path d="M163.448 72.7605C161.449 72.3863 159.354 72.2913 157.223 72.5609C155.088 72.8311 153.112 73.4426 151.324 74.3003L160.173 88.4244L163.448 72.7605Z" fill="#8E99CD"/>
<path d="M151.324 74.3003C147.592 76.0898 144.736 79.0104 143.231 82.5053L160.173 88.4245L151.324 74.3003Z" fill="#C7CCE9"/>
<path d="M143.233 82.5054C142.134 85.058 141.744 87.9024 142.281 90.8236C142.456 91.7742 142.737 92.6854 143.081 93.5666L160.174 88.4245L143.233 82.5054Z" fill="#354A9A"/>
<path d="M143.081 93.5664C144.525 97.2592 147.366 100.287 150.971 102.219L160.174 88.4243L143.081 93.5664Z" fill="#EDEDED"/>
<path d="M173.945 78.5028C171.305 75.5883 167.596 73.5368 163.448 72.7603L160.174 88.4242L150.971 102.219C154.516 104.12 158.778 104.964 163.135 104.347C167.476 103.732 171.167 101.772 173.791 99.0273C176.443 96.2523 177.989 92.6687 178.01 88.8373C178.015 87.9238 177.951 86.9989 177.775 86.0643C177.235 83.1923 175.867 80.6245 173.945 78.5028Z" fill="#5A69AF"/>
<path d="M277.054 59.7309C277.164 60.2795 277.724 60.6639 278.305 60.5894C278.886 60.515 279.267 60.0104 279.157 59.4623C279.047 58.9143 278.488 58.53 277.907 58.6038C277.326 58.6777 276.944 59.1823 277.054 59.7309Z" fill="#5A69AF"/>
<path d="M277.901 63.9541C278.011 64.5033 278.571 64.8871 279.152 64.8114C279.733 64.7358 280.114 64.2297 280.004 63.6811C279.894 63.1325 279.334 62.7488 278.754 62.8238C278.173 62.899 277.791 63.405 277.901 63.9541Z" fill="#8E99CD"/>
<path d="M278.748 68.1813C278.859 68.731 279.419 69.1143 280 69.0373C280.581 68.9604 280.962 68.4529 280.852 67.9037C280.742 67.3547 280.182 66.9714 279.601 67.0478C279.02 67.1241 278.638 67.6316 278.748 68.1813Z" fill="#354A9A"/>
<path d="M279.595 72.4128C279.705 72.9631 280.266 73.3458 280.847 73.2676C281.428 73.1895 281.809 72.6805 281.699 72.1308C281.588 71.5812 281.029 71.1985 280.448 71.2761C279.867 71.3537 279.485 71.8626 279.595 72.4128Z" fill="#8E99CD"/>
<path d="M280.444 76.6483C280.554 77.1992 281.115 77.5813 281.696 77.5019C282.277 77.4225 282.658 76.912 282.548 76.3618C282.437 75.8116 281.877 75.4295 281.296 75.5083C280.715 75.5872 280.333 76.0976 280.444 76.6483Z" fill="#C7CCE9"/>
<path d="M281.292 80.8882C281.403 81.4396 281.964 81.8212 282.545 81.7405C283.126 81.6598 283.507 81.1479 283.396 80.5972C283.286 80.0465 282.726 79.6649 282.145 79.745C281.564 79.8251 281.182 80.3369 281.292 80.8882Z" fill="#EDEDED"/>
<path d="M282.144 85.1325C282.255 85.6844 282.816 86.0655 283.397 85.9835C283.978 85.9016 284.359 85.3883 284.248 84.8369C284.138 84.2857 283.577 83.9047 282.996 83.986C282.415 84.0674 282.033 84.5807 282.144 85.1325Z" fill="#C7CCE9"/>
<path d="M221.479 91.974L229.301 90.8813L229.817 93.538L221.994 94.641L221.479 91.974Z" fill="#8E99CD"/>
<path d="M260.354 84.8222L267.886 83.7764L268.735 88.0508L261.202 89.1129L260.354 84.8222Z" fill="#C7CCE9"/>
<path d="M241.716 85.3628L233.993 86.4275L234.372 88.3758L242.097 87.3103L241.716 85.3628Z" fill="#354A9A"/>
<path d="M234.372 88.3756L235.229 92.775L242.953 91.6859L242.097 87.3101L234.372 88.3756Z" fill="#EDEDED"/>
<path d="M213.389 79.1763L205.443 80.0909L206.908 87.7391L214.856 86.7987L213.389 79.1763Z" fill="#8E99CD"/>
<path d="M211.264 68.1323L203.347 69.1432L205.443 80.0907L213.389 79.1761L211.264 68.1323Z" fill="#5A69AF"/>
<path d="M214.855 86.7983L206.907 87.7388L207.75 92.1375L215.699 91.1822L214.855 86.7983Z" fill="#C7CCE9"/>
<path d="M216.513 95.414L215.698 91.1826L207.749 92.1379L208.59 96.5311L216.513 95.414Z" fill="#354A9A"/>
<path d="M255.076 85.5552L247.449 86.6142L247.824 88.526L255.449 87.4447L255.076 85.5552Z" fill="#C7CCE9"/>
<path d="M247.825 88.5256L248.298 90.9323L255.925 89.8568L255.449 87.4443L247.825 88.5256Z" fill="#8E99CD"/>
<path d="M337.81 175.929L118.009 217.755L105.033 145.005L324.46 110.708L337.81 175.929Z" fill="white"/>
<path d="M287.812 113.424L253.513 118.734L252.486 113.503L286.782 108.283L287.812 113.424Z" fill="#5A69AF"/>
<path d="M323.873 107.841L291.269 112.888L290.238 107.757L322.84 102.794L323.873 107.841Z" fill="#C7CCE9"/>
<path d="M457.212 265.546C454.93 261.103 416.987 226.443 415.561 226.147C414.893 226.008 413.022 225.488 410.181 225.573C406.956 225.671 402.477 226.552 397.018 229.702C386.747 235.626 368.489 274.775 368.489 274.775H466.627C466.627 274.775 459.495 269.99 457.212 265.546Z" stroke="#1D1D1B" stroke-width="1.27608" stroke-miterlimit="10"/>
<path d="M139.041 235.722C139.041 235.722 137.999 226.913 140.455 225.091L125.782 227.659L117.008 229.195C117.008 229.195 99.4684 193.679 96.1358 188.214L95.0019 183.782L86.7992 141.376C86.2923 132.748 85.1286 121.698 82.4546 116.453C82.2097 115.973 81.9626 115.529 81.7149 115.092C77.1747 107.094 72.2029 106.414 67.5456 109.35C62.6344 112.446 60.1788 143.773 60.0034 148.327C59.828 152.88 58.2494 154.702 58.2494 154.702C58.2494 154.702 42.0501 193.919 42.9895 200.964C44.5682 212.803 54.3906 233.93 55.2676 240.669C56.1446 247.408 63.6868 259.705 60.0034 274.776L136.598 276.807C136.598 276.807 149.787 259.054 139.041 235.722Z" stroke="#1D1D1B" stroke-width="1.27608" stroke-miterlimit="10"/>
<path d="M351 169.418C350.88 165.984 350.517 163.344 350.517 163.344C350.517 163.344 348.609 156.165 345.973 146.224L332.636 84.6914L320.993 30.9709C319.2 22.6983 311.722 17.1336 303.601 18.0295L80.7799 42.6134C73.9039 43.372 69.1438 50.1038 70.5055 57.1433L81.7149 115.092C81.9625 115.528 82.2097 115.972 82.4546 116.453C85.1286 121.698 86.2922 132.747 86.7991 141.376L95.0018 183.781L96.1358 188.214C99.4684 193.678 117.008 229.195 117.008 229.195L125.782 227.659L297.85 195.004C297.85 195.004 340.533 187.34 346.809 184.674C350.725 183.01 351.198 175.118 351 169.418Z" stroke="#1D1D1B" stroke-width="1.27608" stroke-miterlimit="10"/>
<path d="M392.74 194.746C392.169 185.859 394.527 169.273 388.822 161.274C383.116 153.276 368.491 131.943 360.217 110.911C357.7 104.511 352.853 101.861 350.617 99.9235C348.849 98.3913 347.522 96.4054 346.744 94.1545C345.227 89.7681 342.545 82.9707 340.248 82.1756C338.123 81.4401 334.792 82.9873 332.636 84.6917L345.973 146.224C348.609 156.165 350.518 163.345 350.518 163.345C350.518 163.345 350.881 165.984 351 169.419C351.198 175.119 350.725 183.01 346.809 184.674C340.533 187.34 297.851 195.004 297.851 195.004C300.841 200.044 312.869 220.311 316.854 227.036C321.419 234.738 368.491 274.775 368.491 274.775C368.491 274.775 386.749 235.627 397.019 229.702C402.478 226.552 406.957 225.671 410.182 225.574C406.274 220.328 393.225 202.299 392.74 194.746Z" stroke="#1D1D1B" stroke-width="1.27608" stroke-miterlimit="10"/>
<path d="M59.5022 151.884C59.5022 151.884 56.8422 203.182 53.416 209.923" stroke="#1D1D1B" stroke-width="1.27608" stroke-miterlimit="10"/>
<path d="M96.1366 188.214C96.1366 188.214 87.3175 179.588 87.4979 168.915C87.6782 158.242 87.4951 142.887 87.4951 142.887" stroke="#1D1D1B" stroke-width="1.27608" stroke-miterlimit="10"/>
<path d="M80.6447 113.489C80.6447 113.489 81.0053 124.911 77.9398 125.473C74.8742 126.035 64.0546 127.158 64.0546 127.158L63.3428 120.323" stroke="#1D1D1B" stroke-width="1.27608" stroke-miterlimit="10"/>
<path d="M340.248 82.1753C340.248 82.1753 335.267 85.9628 336.529 89.5206C337.791 93.0783 343.201 100.007 343.201 100.007C343.201 100.007 347.284 99.9359 348.218 97.1625" stroke="#1D1D1B" stroke-width="1.27608" stroke-miterlimit="10"/>
<path d="M339.326 186.766C339.326 186.766 333.463 193.257 332.922 198.875" stroke="#1D1D1B" stroke-width="1.27608" stroke-miterlimit="10"/>
<path d="M121.5 243.138C121.328 242.244 120.95 234.729 117.009 229.195" stroke="#1D1D1B" stroke-width="1.27608" stroke-miterlimit="10"/>
<path d="M128.554 227.591C128.554 227.591 137.158 232.773 139.04 235.722" stroke="#1D1D1B" stroke-width="1.27608" stroke-miterlimit="10"/>
<path d="M87.5371 53.3753L174.534 43.4146" stroke="#1D1D1B" stroke-width="1.24493" stroke-miterlimit="10"/>
<path d="M102.137 135.229L132.621 130.589" stroke="#1D1D1B" stroke-width="1.24493" stroke-miterlimit="10"/>
<path d="M88.9258 61.1597L262.633 40.6519" stroke="#1D1D1B" stroke-width="1.24493" stroke-miterlimit="10"/>
<path d="M186.549 107.053L101.714 119.356L92.9814 70.4731L177.684 60.1001L186.549 107.053Z" stroke="#1D1D1B" stroke-width="1.24493" stroke-miterlimit="10"/>
<path d="M318.662 87.8951L195.418 105.767L186.541 59.0157L309.665 43.9375L318.662 87.8951Z" stroke="#1D1D1B" stroke-width="1.24493" stroke-miterlimit="10"/>
<path d="M99.3662 76.0643L140.835 70.8667" stroke="#1D1D1B" stroke-width="1.24493" stroke-miterlimit="10"/>
<path d="M193.079 64.3185L243.121 58.0464" stroke="#1D1D1B" stroke-width="1.24493" stroke-miterlimit="10"/>
<path d="M273.801 54.2006L289.808 52.1943" stroke="#1D1D1B" stroke-width="1.24493" stroke-miterlimit="10"/>
<path d="M207.034 99.5591L213.216 98.6758" stroke="#1D1D1B" stroke-width="1.24493" stroke-miterlimit="10"/>
<path d="M220.69 97.6077L226.793 96.7358" stroke="#1D1D1B" stroke-width="1.24493" stroke-miterlimit="10"/>
<path d="M234.172 95.6815L240.196 94.8208" stroke="#1D1D1B" stroke-width="1.24493" stroke-miterlimit="10"/>
<path d="M247.479 93.7804L253.427 92.9307" stroke="#1D1D1B" stroke-width="1.24493" stroke-miterlimit="10"/>
<path d="M260.62 91.903L266.493 91.064" stroke="#1D1D1B" stroke-width="1.24493" stroke-miterlimit="10"/>
<path d="M279.91 58.2402L301.116 55.5322" stroke="#1D1D1B" stroke-width="1.24493" stroke-miterlimit="10"/>
<path d="M280.757 62.4541L296.686 60.3862" stroke="#1D1D1B" stroke-width="1.24493" stroke-miterlimit="10"/>
<path d="M281.603 66.6725L302.812 63.874" stroke="#1D1D1B" stroke-width="1.24493" stroke-miterlimit="10"/>
<path d="M282.452 70.8951L308.972 67.3394" stroke="#1D1D1B" stroke-width="1.24493" stroke-miterlimit="10"/>
<path d="M283.301 75.1218L299.233 72.9517" stroke="#1D1D1B" stroke-width="1.24493" stroke-miterlimit="10"/>
<path d="M284.15 79.3529L300.084 77.1484" stroke="#1D1D1B" stroke-width="1.24493" stroke-miterlimit="10"/>
<path d="M285.002 83.5877L307.789 80.3862" stroke="#1D1D1B" stroke-width="1.24493" stroke-miterlimit="10"/>
<path d="M104.35 84.6482L101.943 84.9599L101.566 82.8586L103.973 82.5493L104.35 84.6482Z" stroke="#1D1D1B" stroke-width="1.24493" stroke-miterlimit="10"/>
<path d="M105.429 90.6614L103.022 90.9799L102.645 88.8757L105.052 88.5596L105.429 90.6614Z" stroke="#1D1D1B" stroke-width="1.24493" stroke-miterlimit="10"/>
<path d="M106.512 96.6834L104.105 97.0087L103.727 94.9015L106.134 94.5786L106.512 96.6834Z" stroke="#1D1D1B" stroke-width="1.24493" stroke-miterlimit="10"/>
<path d="M107.595 102.714L105.186 103.046L104.808 100.936L107.216 100.606L107.595 102.714Z" stroke="#1D1D1B" stroke-width="1.24493" stroke-miterlimit="10"/>
<path d="M108.68 108.752L106.271 109.091L105.892 106.978L108.3 106.642L108.68 108.752Z" stroke="#1D1D1B" stroke-width="1.24493" stroke-miterlimit="10"/>
<path d="M107.233 83.2023L114.543 82.2593" stroke="#1D1D1B" stroke-width="1.24493" stroke-miterlimit="10"/>
<path d="M108.316 89.2052L115.627 88.2417" stroke="#1D1D1B" stroke-width="1.24493" stroke-miterlimit="10"/>
<path d="M109.397 95.217L116.71 94.2329" stroke="#1D1D1B" stroke-width="1.24493" stroke-miterlimit="10"/>
<path d="M118.529 93.9877L125.781 93.0117" stroke="#1D1D1B" stroke-width="1.24493" stroke-miterlimit="10"/>
<path d="M110.481 101.237L121.713 99.6943" stroke="#1D1D1B" stroke-width="1.24493" stroke-miterlimit="10"/>
<path d="M111.567 107.266L118.883 106.24" stroke="#1D1D1B" stroke-width="1.24493" stroke-miterlimit="10"/>
<path d="M162.124 71.8034C160.125 71.4292 158.031 71.3342 155.9 71.6039C153.765 71.8741 151.789 72.4856 150.001 73.3432L158.85 87.4674L162.124 71.8034Z" stroke="#1D1D1B" stroke-width="1.00667" stroke-linejoin="round"/>
<path d="M150 73.3433C146.269 75.1328 143.413 78.0534 141.908 81.5483L158.85 87.4674L150 73.3433Z" stroke="#1D1D1B" stroke-width="1.00667" stroke-linejoin="round"/>
<path d="M141.909 81.5483C140.811 84.101 140.421 86.9453 140.958 89.8666C141.133 90.8172 141.413 91.7284 141.758 92.6095L158.851 87.4675L141.909 81.5483Z" stroke="#1D1D1B" stroke-width="1.00667" stroke-linejoin="round"/>
<path d="M141.758 92.6093C143.202 96.3022 146.042 99.33 149.648 101.262L158.851 87.4673L141.758 92.6093Z" stroke="#1D1D1B" stroke-width="1.00667" stroke-linejoin="round"/>
<path d="M172.622 77.5458C169.982 74.6313 166.273 72.5798 162.125 71.8032L158.85 87.4672L149.647 101.262C153.193 103.163 157.454 104.007 161.812 103.39C166.152 102.775 169.844 100.815 172.468 98.0703C175.12 95.2953 176.666 91.7116 176.687 87.8803C176.692 86.9668 176.628 86.0419 176.452 85.1073C175.912 82.2353 174.544 79.6674 172.622 77.5458Z" stroke="#1D1D1B" stroke-width="1.00667" stroke-linejoin="round"/>
<path d="M275.731 58.7738C275.841 59.3225 276.401 59.7069 276.982 59.6324C277.562 59.558 277.944 59.0533 277.834 58.5053C277.724 57.9573 277.164 57.5729 276.584 57.6468C276.003 57.7207 275.621 58.2253 275.731 58.7738Z" stroke="#1D1D1B" stroke-width="0.825882" stroke-linejoin="round"/>
<path d="M276.577 62.9971C276.687 63.5463 277.248 63.9301 277.829 63.8544C278.41 63.7787 278.791 63.2726 278.681 62.724C278.571 62.1755 278.011 61.7917 277.43 61.8668C276.849 61.9419 276.467 62.448 276.577 62.9971Z" stroke="#1D1D1B" stroke-width="0.825882" stroke-linejoin="round"/>
<path d="M277.425 67.2243C277.535 67.774 278.096 68.1573 278.677 68.0803C279.258 68.0034 279.639 67.4959 279.529 66.9467C279.418 66.3976 278.859 66.0144 278.278 66.0907C277.697 66.1671 277.315 66.6746 277.425 67.2243Z" stroke="#1D1D1B" stroke-width="0.825882" stroke-linejoin="round"/>
<path d="M278.272 71.4558C278.382 72.0061 278.943 72.3888 279.524 72.3106C280.105 72.2325 280.486 71.7235 280.375 71.1738C280.265 70.6242 279.705 70.2415 279.125 70.3191C278.544 70.3967 278.162 70.9056 278.272 71.4558Z" stroke="#1D1D1B" stroke-width="0.825882" stroke-linejoin="round"/>
<path d="M279.121 75.6913C279.231 76.2421 279.792 76.6243 280.373 76.5448C280.954 76.4654 281.335 75.955 281.224 75.4048C281.114 74.8546 280.554 74.4725 279.973 74.5513C279.392 74.6302 279.01 75.1406 279.121 75.6913Z" stroke="#1D1D1B" stroke-width="0.825882" stroke-linejoin="round"/>
<path d="M279.969 79.9312C280.08 80.4826 280.641 80.8642 281.222 80.7835C281.803 80.7028 282.184 80.1909 282.073 79.6401C281.963 79.0894 281.403 78.7079 280.822 78.788C280.241 78.8681 279.859 79.3799 279.969 79.9312Z" stroke="#1D1D1B" stroke-width="0.825882" stroke-linejoin="round"/>
<path d="M280.821 84.1755C280.931 84.7274 281.492 85.1084 282.074 85.0265C282.655 84.9446 283.035 84.4312 282.925 83.8799C282.814 83.3286 282.254 82.9477 281.673 83.029C281.092 83.1104 280.71 83.6237 280.821 84.1755Z" stroke="#1D1D1B" stroke-width="0.825882" stroke-linejoin="round"/>
<path d="M205.271 95.8552L273.578 86.2241" stroke="#1D1D1B" stroke-width="1.24493" stroke-miterlimit="10"/>
<path d="M202.023 68.1863L209.94 67.1753L215.19 94.4567L207.268 95.5738L202.023 68.1863Z" stroke="#1D1D1B" stroke-width="1.24493" stroke-miterlimit="10"/>
<path d="M220.156 91.0169L227.978 89.9243L228.494 92.581L220.671 93.6839L220.156 91.0169Z" stroke="#1D1D1B" stroke-width="1.24493" stroke-miterlimit="10"/>
<path d="M232.67 85.47L240.393 84.4053L241.63 90.7286L233.906 91.8177L232.67 85.47Z" stroke="#1D1D1B" stroke-width="1.24493" stroke-miterlimit="10"/>
<path d="M246.126 85.6567L253.753 84.5977L254.601 88.8997L246.973 89.9751L246.126 85.6567Z" stroke="#1D1D1B" stroke-width="1.24493" stroke-miterlimit="10"/>
<path d="M259.03 83.8647L266.563 82.8188L267.412 87.0933L259.879 88.1554L259.03 83.8647Z" stroke="#1D1D1B" stroke-width="1.24493" stroke-miterlimit="10"/>
<path d="M204.117 79.1201L212.036 78.0669" stroke="#1D1D1B" stroke-width="1.24493" stroke-miterlimit="10"/>
<path d="M205.581 86.7699L213.502 85.687" stroke="#1D1D1B" stroke-width="1.24493" stroke-miterlimit="10"/>
<path d="M232.988 87.4807L240.712 86.4082" stroke="#1D1D1B" stroke-width="1.24493" stroke-miterlimit="10"/>
<path d="M206.424 91.1693L214.345 90.0693" stroke="#1D1D1B" stroke-width="1.24493" stroke-miterlimit="10"/>
<path d="M246.529 87.7109L254.157 86.644" stroke="#1D1D1B" stroke-width="1.24493" stroke-miterlimit="10"/>
<path d="M336.486 174.972L116.686 216.798L103.71 144.048L323.136 109.751L336.486 174.972Z" stroke="#1D1D1B" stroke-width="1.24493" stroke-miterlimit="10"/>
<path d="M286.489 112.467L252.19 117.777L251.163 112.546L285.459 107.326L286.489 112.467Z" stroke="#1D1D1B" stroke-width="1.24493" stroke-miterlimit="10"/>
<path d="M322.55 106.883L289.945 111.931L288.915 106.799L321.517 101.837L322.55 106.883Z" stroke="#1D1D1B" stroke-width="1.23607" stroke-miterlimit="10"/>
<path d="M105.168 152.226L324.638 117.088" stroke="#1D1D1B" stroke-width="1.23607" stroke-miterlimit="10"/>
<path d="M106.766 147.637L119.77 145.58" stroke="#1D1D1B" stroke-width="1.23607" stroke-miterlimit="10"/>
<path d="M108.272 156.066L121.281 153.958" stroke="#1D1D1B" stroke-width="1.23607" stroke-miterlimit="10"/>
<path d="M109.444 162.625L122.455 160.477" stroke="#1D1D1B" stroke-width="1.23607" stroke-miterlimit="10"/>
<path d="M110.618 169.194L123.632 167.005" stroke="#1D1D1B" stroke-width="1.23607" stroke-miterlimit="10"/>
<path d="M111.793 175.774L124.81 173.544" stroke="#1D1D1B" stroke-width="1.23607" stroke-miterlimit="10"/>
<path d="M112.97 182.363L125.99 180.093" stroke="#1D1D1B" stroke-width="1.23607" stroke-miterlimit="10"/>
<path d="M114.149 188.962L127.172 186.651" stroke="#1D1D1B" stroke-width="1.23607" stroke-miterlimit="10"/>
<path d="M115.33 195.572L128.356 193.22" stroke="#1D1D1B" stroke-width="1.23607" stroke-miterlimit="10"/>
<path d="M116.512 202.191L129.54 199.798" stroke="#1D1D1B" stroke-width="1.23607" stroke-miterlimit="10"/>
<path d="M117.697 208.821L130.729 206.387" stroke="#1D1D1B" stroke-width="1.23607" stroke-miterlimit="10"/>
<path d="M311.337 123.156L322.069 121.417" stroke="#1D1D1B" stroke-width="1.23607" stroke-miterlimit="10"/>
<path d="M312.541 129.089L323.274 127.316" stroke="#1D1D1B" stroke-width="1.23607" stroke-miterlimit="10"/>
<path d="M313.746 135.03L324.48 133.225" stroke="#1D1D1B" stroke-width="1.23607" stroke-miterlimit="10"/>
<path d="M314.954 140.979L325.689 139.141" stroke="#1D1D1B" stroke-width="1.23607" stroke-miterlimit="10"/>
<path d="M316.164 146.937L326.9 145.065" stroke="#1D1D1B" stroke-width="1.23607" stroke-miterlimit="10"/>
<path d="M317.374 152.903L328.11 150.998" stroke="#1D1D1B" stroke-width="1.23607" stroke-miterlimit="10"/>
<path d="M318.588 158.877L329.325 156.938" stroke="#1D1D1B" stroke-width="1.23607" stroke-miterlimit="10"/>
<path d="M319.802 164.86L330.54 162.888" stroke="#1D1D1B" stroke-width="1.23607" stroke-miterlimit="10"/>
<path d="M321.019 170.85L331.758 168.845" stroke="#1D1D1B" stroke-width="1.23607" stroke-miterlimit="10"/>
<path d="M127.063 153.021L133.476 151.981" stroke="#1D1D1B" stroke-width="1.23607" stroke-miterlimit="10"/>
<path d="M128.239 159.522L134.654 158.462" stroke="#1D1D1B" stroke-width="1.23607" stroke-miterlimit="10"/>
<path d="M129.418 166.032L142.212 163.88" stroke="#1D1D1B" stroke-width="1.23607" stroke-miterlimit="10"/>
<path d="M130.598 172.553L143.394 170.361" stroke="#1D1D1B" stroke-width="1.23607" stroke-miterlimit="10"/>
<path d="M131.778 179.084L138.197 177.965" stroke="#1D1D1B" stroke-width="1.23607" stroke-miterlimit="10"/>
<path d="M132.962 185.624L145.764 183.353" stroke="#1D1D1B" stroke-width="1.23607" stroke-miterlimit="10"/>
<path d="M134.146 192.175L140.567 191.016" stroke="#1D1D1B" stroke-width="1.23607" stroke-miterlimit="10"/>
<path d="M135.333 198.735L148.14 196.383" stroke="#1D1D1B" stroke-width="1.23607" stroke-miterlimit="10"/>
<path d="M136.521 205.305L149.331 202.913" stroke="#1D1D1B" stroke-width="1.23607" stroke-miterlimit="10"/>
<path d="M242.253 133.944L247.919 133.026" stroke="#1D1D1B" stroke-width="1.23607" stroke-miterlimit="10"/>
<path d="M243.452 140.039L249.119 139.104" stroke="#1D1D1B" stroke-width="1.23607" stroke-miterlimit="10"/>
<path d="M244.652 146.143L250.32 145.19" stroke="#1D1D1B" stroke-width="1.23607" stroke-miterlimit="10"/>
<path d="M245.854 152.255L251.523 151.285" stroke="#1D1D1B" stroke-width="1.23607" stroke-miterlimit="10"/>
<path d="M247.058 158.377L252.727 157.388" stroke="#1D1D1B" stroke-width="1.23607" stroke-miterlimit="10"/>
<path d="M248.264 164.506L253.934 163.5" stroke="#1D1D1B" stroke-width="1.23607" stroke-miterlimit="10"/>
<path d="M249.471 170.645L255.141 169.621" stroke="#1D1D1B" stroke-width="1.23607" stroke-miterlimit="10"/>
<path d="M250.681 176.792L256.352 175.75" stroke="#1D1D1B" stroke-width="1.23607" stroke-miterlimit="10"/>
<path d="M251.89 182.948L257.562 181.889" stroke="#1D1D1B" stroke-width="1.23607" stroke-miterlimit="10"/>
<path d="M301.776 124.705L307.208 123.825" stroke="#1D1D1B" stroke-width="1.23607" stroke-miterlimit="10"/>
<path d="M302.979 130.668L307.611 129.903" stroke="#1D1D1B" stroke-width="1.23607" stroke-miterlimit="10"/>
<path d="M304.185 136.638L309.617 135.725" stroke="#1D1D1B" stroke-width="1.23607" stroke-miterlimit="10"/>
<path d="M305.393 142.617L310.826 141.687" stroke="#1D1D1B" stroke-width="1.23607" stroke-miterlimit="10"/>
<path d="M306.601 148.605L311.234 147.797" stroke="#1D1D1B" stroke-width="1.23607" stroke-miterlimit="10"/>
<path d="M307.811 154.6L313.245 153.636" stroke="#1D1D1B" stroke-width="1.23607" stroke-miterlimit="10"/>
<path d="M309.022 160.604L314.457 159.623" stroke="#1D1D1B" stroke-width="1.23607" stroke-miterlimit="10"/>
<path d="M310.235 166.616L315.671 165.618" stroke="#1D1D1B" stroke-width="1.23607" stroke-miterlimit="10"/>
<path d="M311.45 172.637L316.085 171.771" stroke="#1D1D1B" stroke-width="1.23607" stroke-miterlimit="10"/>
<path d="M269.48 129.941L286.817 127.131" stroke="#1D1D1B" stroke-width="1.23607" stroke-miterlimit="10"/>
<path d="M270.681 135.979L288.019 133.116" stroke="#1D1D1B" stroke-width="1.23607" stroke-miterlimit="10"/>
<path d="M271.885 142.026L282.215 140.289" stroke="#1D1D1B" stroke-width="1.23607" stroke-miterlimit="10"/>
<path d="M273.089 148.082L290.431 145.112" stroke="#1D1D1B" stroke-width="1.23607" stroke-miterlimit="10"/>
<path d="M274.295 154.145L291.638 151.122" stroke="#1D1D1B" stroke-width="1.23607" stroke-miterlimit="10"/>
<path d="M275.502 160.218L291.224 157.428" stroke="#1D1D1B" stroke-width="1.23607" stroke-miterlimit="10"/>
<path d="M276.711 166.299L294.058 163.167" stroke="#1D1D1B" stroke-width="1.23607" stroke-miterlimit="10"/>
<path d="M277.923 172.389L295.272 169.203" stroke="#1D1D1B" stroke-width="1.23607" stroke-miterlimit="10"/>
<path d="M279.135 178.487L294.862 175.55" stroke="#1D1D1B" stroke-width="1.23607" stroke-miterlimit="10"/>
<path d="M197.068 141.675L203.078 140.701" stroke="#1D1D1B" stroke-width="1.23607" stroke-miterlimit="10"/>
<path d="M198.257 147.96L207.294 146.468" stroke="#1D1D1B" stroke-width="1.23607" stroke-miterlimit="10"/>
<path d="M199.448 154.254L205.46 153.243" stroke="#1D1D1B" stroke-width="1.23607" stroke-miterlimit="10"/>
<path d="M200.642 160.557L203.612 160.048" stroke="#1D1D1B" stroke-width="1.23607" stroke-miterlimit="10"/>
<path d="M201.836 166.869L207.85 165.821" stroke="#1D1D1B" stroke-width="1.23607" stroke-miterlimit="10"/>
<path d="M203.033 173.191L210.526 171.861" stroke="#1D1D1B" stroke-width="1.23607" stroke-miterlimit="10"/>
<path d="M204.231 179.522L210.247 178.436" stroke="#1D1D1B" stroke-width="1.23607" stroke-miterlimit="10"/>
<path d="M205.432 185.862L217.431 183.659" stroke="#1D1D1B" stroke-width="1.23607" stroke-miterlimit="10"/>
<path d="M206.633 192.212L215.68 190.522" stroke="#1D1D1B" stroke-width="1.23607" stroke-miterlimit="10"/>
<path d="M215.039 138.762L220.948 137.805" stroke="#1D1D1B" stroke-width="1.23607" stroke-miterlimit="10"/>
<path d="M216.232 144.992L230.583 142.622" stroke="#1D1D1B" stroke-width="1.23607" stroke-miterlimit="10"/>
<path d="M217.427 151.23L228.819 149.314" stroke="#1D1D1B" stroke-width="1.23607" stroke-miterlimit="10"/>
<path d="M218.621 157.478L225.985 156.216" stroke="#1D1D1B" stroke-width="1.23607" stroke-miterlimit="10"/>
<path d="M219.82 163.734L227.023 162.478" stroke="#1D1D1B" stroke-width="1.23607" stroke-miterlimit="10"/>
<path d="M221.02 169.999L228.386 168.692" stroke="#1D1D1B" stroke-width="1.23607" stroke-miterlimit="10"/>
<path d="M222.221 176.274L228.135 175.207" stroke="#1D1D1B" stroke-width="1.23607" stroke-miterlimit="10"/>
<path d="M223.423 182.558L229.139 181.508" stroke="#1D1D1B" stroke-width="1.23607" stroke-miterlimit="10"/>
<path d="M224.627 188.851L233.521 187.19" stroke="#1D1D1B" stroke-width="1.23607" stroke-miterlimit="10"/>
<path d="M125.553 144.666L138.338 142.644" stroke="#1D1D1B" stroke-width="1.23607" stroke-miterlimit="10"/>
<path d="M195.539 133.598L207.523 131.703" stroke="#1D1D1B" stroke-width="1.23607" stroke-miterlimit="10"/>
<path d="M216.465 130.289L222.356 129.357" stroke="#1D1D1B" stroke-width="1.23607" stroke-miterlimit="10"/>
<path d="M240.713 126.111L252.013 124.324" stroke="#1D1D1B" stroke-width="1.23607" stroke-miterlimit="10"/>
<path d="M267.937 122.18L273.502 121.3" stroke="#1D1D1B" stroke-width="1.23607" stroke-miterlimit="10"/>
<path d="M300.229 117.042L305.66 116.183" stroke="#1D1D1B" stroke-width="1.23607" stroke-miterlimit="10"/>
<path d="M309.789 115.53L315.169 114.68" stroke="#1D1D1B" stroke-width="1.23607" stroke-miterlimit="10"/>
</g>
<defs>
<clipPath id="clip0_1129_839">
<rect width="464" height="236" fill="white"/>
</clipPath>
</defs>
</svg>
