<svg width="464" height="236" viewBox="0 0 464 236" fill="none" xmlns="http://www.w3.org/2000/svg">
<g clip-path="url(#clip0_1139_695)">
<mask id="mask0_1139_695" style="mask-type:luminance" maskUnits="userSpaceOnUse" x="0" y="3" width="464" height="234">
<path d="M464 3H0V236.104H464V3Z" fill="white"/>
</mask>
<g mask="url(#mask0_1139_695)">
<path d="M149.677 101.763C149.431 101.763 149.186 101.885 148.94 101.885C149.308 100.536 149.799 98.6955 149.922 97.4686C149.922 97.3459 150.045 97.2233 150.167 97.1006C150.535 97.714 151.026 98.0821 151.885 98.3274C154.584 99.1862 163.908 99.5543 164.522 102.867C165.135 106.179 177.281 97.3459 183.906 96.4871C190.531 95.6283 198.383 93.1746 201.328 87.163C204.272 81.1513 207.585 79.311 208.811 76.6119C210.038 73.9128 214.823 67.0424 217.645 66.429C217.645 66.429 217.768 66.3063 217.89 65.9382C218.381 66.0609 218.626 66.5517 218.626 67.9012C218.626 71.4591 218.013 72.0725 218.013 77.5934C218.013 79.4337 215.805 82.8689 215.559 84.5866C214.946 88.3898 215.314 92.1931 214.7 92.1931C213.842 92.1931 212.369 91.3343 212.369 91.3343C212.369 91.3343 211.756 99.5543 209.302 104.584C206.848 109.492 199.365 113.663 199.365 113.663L195.561 123.11C184.765 114.277 154.707 101.395 149.677 101.763Z" fill="#B66B48"/>
<path d="M142.807 35.8799C146.365 20.5441 153.971 17.7223 158.143 16.6182C162.314 15.6367 176.177 11.0973 188.937 12.4468C201.696 13.9191 209.18 22.2617 214.333 27.4146C219.486 32.5674 217.032 35.6345 217.032 35.6345C224.27 43.1184 220.099 54.8963 219.486 56.4912C218.872 58.0861 219.118 58.5769 219.118 61.3987C219.118 63.4843 218.382 65.202 217.891 66.0608C217.768 66.3061 217.645 66.5515 217.645 66.5515C214.701 67.1649 210.039 74.0354 208.812 76.7345C207.585 79.4336 204.273 81.2739 201.328 87.2855C198.384 93.2971 190.532 95.7509 183.907 96.6097C177.282 97.4685 165.136 106.302 164.522 102.989C163.909 99.6768 154.585 99.3088 151.885 98.45C151.027 98.2046 150.536 97.7138 150.168 97.2231C149.432 96.1189 149.309 94.2786 148.205 92.0703C146.61 88.7577 146.733 86.6721 145.506 83.8503C144.279 80.9058 144.034 70.8455 144.034 70.8455C139.862 65.0793 139.494 54.7736 139.494 54.7736C136.427 46.3083 142.807 35.8799 142.807 35.8799Z" fill="#3F3F3E"/>
<path d="M148.94 101.885C149.186 101.763 149.431 101.763 149.677 101.763C154.707 101.395 184.765 114.277 195.684 123.478C197.402 124.95 198.628 126.177 199.242 127.404C202.432 133.293 201.941 141.145 201.205 145.807C200.837 148.138 200.469 149.61 200.469 149.61C200.469 149.61 191.39 138.078 184.765 134.765C178.999 131.821 148.94 120.288 141.579 117.466C140.475 117.098 139.984 116.853 139.984 116.853C139.984 116.853 143.542 103.48 148.94 101.885Z" fill="#7E8CDE"/>
<path d="M311.624 265.917C314.568 259.415 326.469 249.232 317.022 238.558C314.936 236.227 313.341 234.755 311.869 233.896C324.138 226.535 353.337 208.868 355.668 205.678C358.735 201.629 360.33 202.979 362.048 201.629C363.765 200.28 379.715 190.22 382.414 189.606C385.113 188.993 392.719 188.257 396.768 188.993C400.817 189.606 405.847 194.023 408.791 199.053C411.858 204.083 408.791 206.414 408.791 206.414C408.791 206.414 411.49 208.745 411.858 212.426C412.227 216.106 406.828 208.132 395.418 214.757C384.009 221.382 370.636 221.136 370.636 221.136C370.636 221.136 370.636 221.136 343.89 245.919C325.242 263.218 312.114 268.984 305.857 271.07C308.679 269.23 310.888 267.635 311.624 265.917Z" fill="#B66B48"/>
<path d="M91.5234 151.941C91.5234 146.175 95.4494 140.409 97.0443 139.795C98.6392 139.182 108.577 126.79 114.588 123.478C120.6 120.165 128.452 122.619 132.991 122.619C136.304 122.619 139.739 119.184 141.457 117.221C148.818 120.043 178.876 131.698 184.642 134.52C191.267 137.832 200.346 149.365 200.346 149.365C200.346 149.365 200.714 147.893 201.082 145.562C203.045 148.383 205.008 150.837 205.99 151.941C208.934 154.886 225.006 159.057 232.245 164.455C239.361 169.853 254.942 184.085 257.886 190.097C260.831 196.108 261.444 202.611 261.444 202.611C261.444 202.611 265.615 200.28 270.4 206.782C275.185 213.284 275.798 215.738 284.141 217.456C292.484 219.296 290.153 216.229 297.882 225.798C304.016 233.282 306.347 230.092 311.746 233.65C313.218 234.632 314.935 236.104 316.898 238.312C326.468 248.986 314.567 259.169 311.5 265.671C310.764 267.389 308.556 269.107 305.857 270.579C298.25 274.75 285.981 277.572 285.981 277.572L291.38 287.142L221.694 283.829C216.909 273.891 181.453 199.175 171.76 182.981C161.455 165.559 150.413 173.289 119.987 167.89C107.595 165.682 98.5166 161.143 91.5234 156.603C91.5234 155.376 91.5234 153.659 91.5234 151.941Z" fill="#7E8CDE"/>
<path d="M58.2761 148.506L62.8155 148.138C62.8155 148.138 65.5146 143.476 72.1397 142.74C76.0657 142.372 81.4639 148.997 91.5241 155.622C98.3946 160.161 107.596 164.701 119.987 166.909C150.414 172.307 161.455 164.578 171.761 181.999C181.453 198.194 216.91 272.91 221.694 282.848C222.062 283.584 222.185 283.952 222.185 283.952L96.1862 284.32L79.8689 219.909C78.274 213.407 76.311 207.027 73.98 200.77L56.1905 152.064C55.6997 150.346 56.6812 148.629 58.2761 148.506Z" fill="#5C6BC4"/>
<path d="M332.234 139.305C331.376 141.022 322.542 149.242 319.966 151.696C319.475 152.187 318.862 152.309 318.248 152.187L282.546 147.157C280.583 146.911 280.093 144.335 281.688 143.231L297.146 133.538L296.655 130.349L332.234 133.784C332.603 135.992 332.725 138.323 332.234 139.305Z" fill="#7E8CDE"/>
<path d="M230.649 18.9493L380.695 18.2131C382.535 18.2131 384.007 19.6854 384.007 21.6484L380.327 135.133C380.327 136.974 378.609 138.446 376.769 138.323L332.356 134.029L296.777 130.594L235.679 124.582C234.084 124.46 232.858 123.11 232.735 121.515L227.337 22.3845C227.214 20.4215 228.809 18.9493 230.649 18.9493Z" fill="#E4E8F6"/>
<path d="M347.693 187.52L340.945 186.171L321.561 200.157L245.618 173.411L271.137 158.689L345.608 180.773L347.693 187.52Z" fill="#7E8CDE"/>
<path d="M228.073 21.5255L233.471 120.656C233.593 122.251 234.82 123.601 236.415 123.723L297.39 129.612L332.969 133.047L377.382 137.341C379.222 137.464 380.94 136.115 380.94 134.152L384.62 20.6667C384.62 18.8264 383.148 17.2314 381.308 17.2314L231.262 18.0902C229.422 18.0902 227.95 19.6852 228.073 21.5255ZM232.489 24.7153C232.367 22.9977 233.839 21.5255 235.556 21.4028L377.137 20.7894C378.854 20.7894 380.326 22.2616 380.204 23.9792L376.769 131.084C376.769 132.925 375.174 134.274 373.333 134.029L331.375 129.98L297.758 126.79L240.219 121.269C238.746 121.147 237.519 119.92 237.397 118.325L232.489 24.7153Z" fill="#7E8CDE"/>
<path d="M150.291 101.027C150.045 101.027 149.8 101.149 149.555 101.149C149.923 99.7997 150.413 97.9594 150.536 96.7325C150.536 96.6099 150.659 96.4872 150.782 96.3645C151.15 96.9779 151.64 97.346 152.499 97.5913C155.198 98.4501 164.522 98.8182 165.136 102.131C165.749 105.443 177.895 96.6099 184.52 95.751C191.145 94.8922 198.997 92.4385 201.942 86.4269C204.886 80.4153 208.199 78.575 209.426 75.8759C210.653 73.1768 215.437 66.3063 218.259 65.6929C218.259 65.6929 218.382 65.5702 218.504 65.2021C218.995 65.3248 219.241 65.8156 219.241 67.1651C219.241 70.723 218.627 71.3365 218.627 76.8574C218.627 78.6976 216.419 82.1329 216.173 83.8505C215.56 87.6538 215.928 91.457 215.315 91.457C214.456 91.457 212.984 90.5982 212.984 90.5982C212.984 90.5982 212.37 98.8182 209.916 103.848C207.463 108.756 199.979 112.927 199.979 112.927L196.176 122.374C185.379 113.418 155.321 100.659 150.291 101.027Z" stroke="#3F3F3E" stroke-width="0.920148" stroke-miterlimit="10"/>
<path d="M143.543 35.0212C147.101 19.6855 154.707 16.8637 158.879 15.7595C163.05 14.6553 176.914 10.2386 189.673 11.5882C202.433 13.0604 209.916 21.4031 215.069 26.5559C220.222 31.7087 217.768 34.7759 217.768 34.7759C225.007 42.2597 220.835 54.0376 220.222 55.6325C219.609 57.2275 219.854 57.7182 219.854 60.54C219.854 62.6257 219.118 64.3433 218.627 65.2021C218.504 65.4475 218.382 65.6928 218.382 65.6928C215.437 66.3063 210.775 73.1767 209.548 75.8758C208.321 78.5749 205.009 80.4152 202.064 86.4268C199.12 92.4385 191.268 94.8922 184.643 95.751C178.018 96.6098 165.872 105.443 165.259 102.131C164.645 98.8182 155.321 98.4501 152.622 97.5913C151.763 97.3459 151.272 96.8552 150.904 96.3644C150.168 95.2602 150.045 93.42 148.941 91.2116C147.346 87.8991 147.469 85.8134 146.242 82.9916C145.015 80.0471 144.77 69.9869 144.77 69.9869C140.599 64.2206 140.231 53.9149 140.231 53.9149C137.163 45.5723 143.543 35.0212 143.543 35.0212Z" stroke="#3F3F3E" stroke-width="0.920148" stroke-miterlimit="10"/>
<path d="M149.554 101.149C149.799 101.026 150.045 101.026 150.29 101.026C155.32 100.658 185.378 113.54 196.297 122.742C198.015 124.214 199.242 125.441 199.855 126.668C203.045 132.557 202.554 140.409 201.818 145.071C201.45 147.402 201.082 148.874 201.082 148.874C201.082 148.874 192.003 137.341 185.378 134.029C179.612 131.084 149.554 119.552 142.193 116.73C141.088 116.362 140.598 116.117 140.598 116.117C140.598 116.117 144.278 102.621 149.554 101.149Z" stroke="#3F3F3E" stroke-width="0.920148" stroke-miterlimit="10"/>
<path d="M312.36 265.058C315.305 258.556 327.205 248.373 317.758 237.699C315.673 235.368 314.078 233.896 312.605 233.037C324.874 225.676 354.073 208.009 356.404 204.819C359.472 200.77 361.067 202.12 362.784 200.77C364.502 199.421 380.451 189.361 383.15 188.747C385.849 188.134 393.456 187.398 397.504 188.134C401.553 188.747 406.583 193.164 409.528 198.194C412.595 203.224 409.528 205.555 409.528 205.555C409.528 205.555 412.227 207.886 412.595 211.567C412.963 215.247 407.565 207.273 396.155 213.898C384.745 220.523 371.372 220.278 371.372 220.278C371.372 220.278 371.372 220.278 344.627 245.06C325.978 262.359 312.851 268.125 306.594 270.211C309.416 268.493 311.501 266.776 312.36 265.058Z" stroke="#3F3F3E" stroke-width="0.920148" stroke-miterlimit="10"/>
<path d="M92.2598 151.205C92.2598 145.439 96.1857 139.673 97.7807 139.059C99.3756 138.446 109.313 126.054 115.325 122.742C121.336 119.429 129.188 121.883 133.728 121.883C137.04 121.883 140.476 118.448 142.193 116.485C149.554 119.307 179.612 130.962 185.379 133.784C192.004 137.096 201.083 148.629 201.083 148.629C201.083 148.629 201.451 147.156 201.819 144.825C203.782 147.647 205.745 150.101 206.726 151.205C209.671 154.15 225.743 158.321 232.981 163.719C240.097 169.117 255.678 183.349 258.623 189.361C261.567 195.372 262.18 201.875 262.18 201.875C262.18 201.875 266.352 199.544 271.137 206.046C275.921 212.548 276.535 215.002 284.877 216.72C293.22 218.56 290.889 215.493 298.618 225.062C304.753 232.546 307.084 229.356 312.482 232.914C313.954 233.896 315.672 235.368 317.635 237.576C327.204 248.25 315.304 258.433 312.236 264.935C311.5 266.653 309.292 268.371 306.593 269.843C298.986 274.014 286.718 276.836 286.718 276.836L292.116 286.405L222.43 283.093C217.645 273.155 182.189 198.439 172.497 182.245C162.191 164.823 151.149 172.553 120.723 167.154C108.332 164.946 99.2529 160.407 92.2598 155.867C92.2598 154.518 92.2598 152.923 92.2598 151.205Z" stroke="#3F3F3E" stroke-width="0.920148" stroke-miterlimit="10"/>
<path d="M59.0116 148.997L63.551 148.629C63.551 148.629 66.2501 143.967 72.8752 143.23C76.8012 142.862 82.1994 149.487 92.2597 156.113C99.1301 160.652 108.332 165.191 120.723 167.4C151.149 172.798 162.191 165.069 172.497 182.49C182.189 198.685 217.645 273.401 222.43 283.338C222.798 284.074 222.921 284.442 222.921 284.442L96.9217 284.811L80.6044 220.4C79.0095 213.898 77.0465 207.518 74.7155 201.261L56.926 152.555C56.3125 150.714 57.4167 149.119 59.0116 148.997Z" stroke="#3F3F3E" stroke-width="0.920148" stroke-miterlimit="10"/>
<path d="M332.971 138.568C332.112 140.286 323.279 148.506 320.702 150.96C320.211 151.45 319.598 151.573 318.985 151.45L283.283 146.42C281.32 146.175 280.829 143.599 282.424 142.494L297.882 132.802L297.392 129.612L332.971 133.048C333.216 135.133 333.461 137.587 332.971 138.568Z" stroke="#3F3F3E" stroke-width="0.920148" stroke-miterlimit="10"/>
<path d="M348.306 186.661L341.681 185.312L322.296 199.421L246.354 172.675L271.75 157.953L346.343 180.036L348.306 186.661Z" stroke="#3F3F3E" stroke-width="0.920148" stroke-miterlimit="10"/>
<path d="M228.075 21.5257L233.473 120.656C233.595 122.251 234.822 123.601 236.417 123.723L297.392 129.612L332.971 133.048L377.384 137.342C379.224 137.464 380.942 136.115 380.942 134.152L384.622 20.6669C384.622 18.8266 383.15 17.2317 381.31 17.2317L231.264 18.0905C229.424 18.0905 227.952 19.6854 228.075 21.5257ZM232.491 24.7156C232.369 22.9979 233.841 21.5257 235.558 21.403L377.139 20.7896C378.856 20.7896 380.328 22.2618 380.206 23.9794L376.77 131.085C376.77 132.925 375.176 134.274 373.335 134.029L331.376 129.98L297.76 126.791L240.22 121.27C238.748 121.147 237.521 119.92 237.399 118.325L232.491 24.7156Z" stroke="#3F3F3E" stroke-width="0.920148" stroke-miterlimit="10"/>
<path d="M235.558 21.5258L377.138 20.9124C378.856 20.9124 380.328 22.3846 380.205 24.1022L376.77 131.085C376.77 132.925 375.175 134.275 373.335 134.029L331.376 129.981L297.76 126.791L240.22 121.27C238.748 121.147 237.521 119.92 237.398 118.325L232.368 24.8383C232.368 22.998 233.84 21.5258 235.558 21.5258Z" stroke="#3F3F3E" stroke-width="0.920148" stroke-miterlimit="10"/>
<path d="M286.718 276.959C286.718 276.959 278.375 282.234 270.155 279.658C261.935 277.081 240.956 263.218 234.699 254.875C228.442 246.533 213.106 229.479 213.106 229.479C213.106 229.479 209.303 226.903 206.727 226.289" stroke="#3F3F3E" stroke-width="0.920148" stroke-miterlimit="10"/>
<path d="M270.154 90.2299L337.755 95.0147C341.19 95.2601 344.134 92.561 344.257 89.003L345.361 46.4309C345.484 42.6276 342.539 39.5605 338.981 39.5605L269.418 38.947C266.351 38.947 263.897 41.6461 264.02 45.0813L264.633 83.9729C264.756 87.1628 267.21 89.9845 270.154 90.2299Z" fill="#F6F6F6"/>
<path d="M296.287 54.4055L338.123 55.5097L338 59.0676L296.287 57.718V54.4055Z" fill="#7E8CDE"/>
<path d="M296.165 54.4057V57.7182L282.056 57.3501V54.0376L296.165 54.4057Z" fill="#DADADA"/>
<path d="M316.285 63.3616L337.878 64.0977L337.755 67.6556L316.285 66.7968V63.3616Z" fill="#7E8CDE"/>
<path d="M294.201 62.5029L315.181 63.3617L315.058 66.797L294.201 65.9382V62.5029Z" fill="#DADADA"/>
<path d="M293.097 62.5028V65.8154L282.056 65.4473V62.1348L293.097 62.5028Z" fill="#8E99CD"/>
<path d="M249.298 48.026L251.138 45.4496L250.156 44.4681L249.175 45.9403L246.844 43.732C247.335 42.9959 248.193 42.5051 249.175 42.5051C250.893 42.5051 252.242 44.1001 252.242 46.063C252.242 48.026 251.015 49.4982 249.298 49.4982C247.703 49.4982 246.23 47.9033 246.23 45.9403C246.23 45.695 246.23 45.3269 246.353 45.0815L249.298 48.026Z" fill="#8E99CD"/>
<path d="M247.458 38.8244C247.826 38.8244 248.194 38.9471 248.439 39.0698C248.439 38.9471 248.439 38.9471 248.439 38.8244C248.439 36.7387 249.789 35.1438 251.506 35.1438C253.347 35.1438 254.819 36.8614 254.819 38.9471C254.819 39.0698 254.819 39.1924 254.819 39.4378C255.31 39.1924 255.8 39.0698 256.291 39.0698C258.131 39.0698 259.604 40.7874 259.604 42.873C259.604 44.9587 258.254 46.5536 256.414 46.5536C256.291 46.5536 254.696 46.5536 252.856 46.4309C252.856 46.3083 252.856 46.1856 252.856 46.0629C252.856 43.6092 251.138 41.6462 249.053 41.6462C247.09 41.6462 245.617 43.2411 245.495 45.3268C244.759 44.5906 244.391 43.6092 244.391 42.505C244.268 40.4193 245.617 38.8244 247.458 38.8244Z" fill="#DBDFF2"/>
<path d="M343.03 42.873C343.03 43.6091 342.417 44.2225 341.681 44.2225C340.944 44.2225 340.331 43.6091 340.331 42.873C340.331 42.1369 340.944 41.5234 341.681 41.5234C342.539 41.5234 343.153 42.1369 343.03 42.873Z" fill="#7E8CDE"/>
<path d="M337.878 42.873C337.878 43.6092 337.265 44.2226 336.529 44.2226C335.793 44.2226 335.179 43.6092 335.302 42.873C335.302 42.1369 335.915 41.5235 336.651 41.5235C337.265 41.4008 337.878 42.1369 337.878 42.873Z" fill="#7E8CDE"/>
<path d="M332.603 42.7502C332.603 43.4863 331.989 44.0997 331.253 44.0997C330.517 44.0997 330.026 43.4863 330.026 42.7502C330.026 42.0141 330.64 41.4006 331.376 41.4006C332.112 41.4006 332.603 42.0141 332.603 42.7502Z" fill="#7E8CDE"/>
<path d="M253.96 115.258L317.88 121.76C321.193 122.128 323.892 119.675 324.014 116.24L324.628 75.7531C324.628 72.1952 321.929 69.128 318.616 69.0053L252.856 66.3062C249.912 66.1835 247.703 68.7599 247.826 72.0725L248.685 109.246C248.808 112.191 251.139 115.013 253.96 115.258Z" fill="white"/>
<path d="M355.054 32.1993C354.808 32.3219 354.44 32.4446 354.195 32.69L354.563 34.2849L353.459 35.3891L351.987 34.8984C351.618 35.3891 351.373 35.8799 351.128 36.4933L352.232 37.4748L351.864 39.0697L350.392 39.5604C350.392 40.1739 350.392 40.7873 350.514 41.4007L351.987 41.5234L352.6 42.9957L351.741 44.2225C352.109 44.7133 352.477 45.204 352.968 45.5721L354.318 44.7133L355.667 45.4494V47.0443C356.281 47.2897 356.771 47.2897 357.385 47.4124L357.998 45.9401L359.47 45.6948L360.329 46.9216C360.575 46.7989 360.82 46.6762 361.188 46.5536C361.433 46.4309 361.801 46.3082 362.047 46.0628L361.679 44.4679L362.783 43.3637L364.255 43.8545C364.623 43.3637 364.991 42.7503 365.237 42.2595L364.132 41.2781L364.501 39.6831L365.973 39.1924C365.973 38.579 365.973 37.9655 365.85 37.3521L364.255 37.2294L363.642 35.7572L364.623 34.4076C364.255 33.9169 363.887 33.4261 363.396 33.0581L362.047 33.9169L360.697 33.1808V31.5858C360.084 31.4631 359.593 31.3405 358.98 31.2178L358.366 32.69L356.771 32.9354L355.912 31.7085C355.544 31.9539 355.299 32.0766 355.054 32.1993ZM356.894 36.616C358.366 35.8799 360.084 36.616 360.82 38.0882C361.433 39.5604 360.82 41.4007 359.225 42.1369C357.753 42.873 356.035 42.1369 355.422 40.6646C354.808 39.1924 355.422 37.3521 356.894 36.616Z" fill="#DADADA"/>
<path d="M347.447 24.7155C347.202 24.8381 347.079 24.8381 346.834 24.9608V26.065L345.975 26.6784L344.993 26.1877C344.748 26.4331 344.503 26.8011 344.257 27.1692L344.871 28.028L344.503 29.0095L343.521 29.2549C343.398 29.6229 343.398 30.1137 343.398 30.4817L344.38 30.7271L344.625 31.7086L343.889 32.4447C344.012 32.8128 344.257 33.1808 344.503 33.4262L345.484 33.0581L346.343 33.6716L346.22 34.7757C346.588 35.0211 346.956 35.1438 347.324 35.1438L347.938 34.285H348.919L349.41 35.2665C349.655 35.2665 349.778 35.1438 350.024 35.1438C350.269 35.1438 350.392 35.0211 350.637 34.8984V33.7943L351.496 33.1808L352.477 33.6716C352.723 33.4262 353.091 33.0581 353.213 32.6901L352.6 31.8313L352.968 30.8498L353.949 30.6044C354.072 30.2363 354.072 29.7456 354.072 29.3775L353.091 29.1322L352.845 28.028L353.581 27.2919C353.459 26.9238 353.213 26.5558 352.968 26.3104L351.986 26.6784L351.128 26.065L351.25 24.9608C350.882 24.7155 350.514 24.5928 350.146 24.5928L349.533 25.5743H348.429L347.938 24.5928C347.815 24.5928 347.57 24.5928 347.447 24.7155ZM348.183 27.9053C349.287 27.5372 350.392 28.1507 350.637 29.2549C350.882 30.359 350.269 31.4632 349.165 31.8313C348.061 32.1993 347.079 31.4632 346.711 30.4817C346.466 29.3775 347.202 28.2734 348.183 27.9053Z" fill="#DADADA"/>
<path d="M271.136 55.1416C271.259 55.1416 271.259 55.1416 271.382 55.2643C271.382 55.1416 271.382 55.1416 271.382 55.0189C271.382 54.2828 271.872 53.7921 272.363 53.7921C272.608 53.7921 272.731 53.9147 272.854 53.9147C272.854 53.0559 273.59 52.4425 274.081 52.5652C274.694 52.5652 275.307 53.1786 275.307 54.0374C275.43 53.9147 275.676 53.9147 275.798 53.9147C276.412 53.9147 276.78 54.5282 276.78 55.1416C276.78 55.2643 276.78 55.2643 276.78 55.387C276.902 55.387 276.902 55.387 277.025 55.387C277.516 55.387 277.884 55.8777 277.884 56.3685C277.884 56.8592 277.516 57.35 277.025 57.35L273.835 57.2273V55.8777H274.449L273.222 54.4055L271.995 55.755H272.731V57.1046H271.136C270.645 57.1046 270.277 56.6138 270.277 56.1231C270.4 55.6324 270.768 55.1416 271.136 55.1416Z" fill="#8E99CD"/>
<path d="M269.786 89.7396L337.386 94.4016C340.821 94.647 343.766 91.9479 343.889 88.39L344.993 45.8179C345.116 42.0146 342.171 38.9474 338.613 38.9474L269.173 38.334C266.105 38.334 263.774 41.0331 263.774 44.4683L264.388 83.3599C264.388 86.6724 266.719 89.4942 269.786 89.7396Z" stroke="#3F3F3E" stroke-width="0.920148" stroke-miterlimit="10"/>
<path d="M295.919 53.915L337.632 55.0192L337.51 58.5771L295.919 57.3503V53.915Z" stroke="#3F3F3E" stroke-width="0.920148" stroke-miterlimit="10"/>
<path d="M295.796 53.9147V57.3499L281.564 56.8592V53.5466L295.796 53.9147Z" stroke="#3F3F3E" stroke-width="0.920148" stroke-miterlimit="10"/>
<path d="M315.916 62.8708L337.386 63.607L337.263 67.1649L315.793 66.3061L315.916 62.8708Z" stroke="#3F3F3E" stroke-width="0.920148" stroke-miterlimit="10"/>
<path d="M293.833 62.1348L314.69 62.8709V66.3061L293.833 65.4473V62.1348Z" stroke="#3F3F3E" stroke-width="0.920148" stroke-miterlimit="10"/>
<path d="M292.728 62.0121V65.4473L281.687 64.9566V61.644L292.728 62.0121Z" stroke="#3F3F3E" stroke-width="0.920148" stroke-miterlimit="10"/>
<path d="M248.928 47.535L250.769 44.9586L249.787 43.9771L248.806 45.4494L246.475 43.241C246.966 42.5049 247.824 42.0142 248.806 42.0142C250.523 42.0142 251.873 43.6091 251.873 45.5721C251.873 47.535 250.646 49.0073 248.928 49.0073C247.334 49.0073 245.861 47.4124 245.861 45.4494C245.861 45.204 245.861 44.8359 245.984 44.5906L248.928 47.535Z" stroke="#3F3F3E" stroke-width="0.920148" stroke-miterlimit="10"/>
<path d="M246.967 38.3339C247.335 38.3339 247.703 38.4566 247.948 38.5793C247.948 38.4566 247.948 38.4566 247.948 38.3339C247.948 36.2482 249.298 34.6533 251.015 34.6533C252.856 34.6533 254.328 36.3709 254.328 38.4566C254.328 38.5793 254.328 38.702 254.328 38.9473C254.819 38.702 255.309 38.5793 255.8 38.5793C257.64 38.5793 259.113 40.2969 259.113 42.3826C259.113 44.4682 257.763 46.0632 255.923 46.0632C255.8 46.0632 254.205 46.0631 252.365 45.9405C252.365 45.8178 252.365 45.6951 252.365 45.5724C252.365 43.1187 250.647 41.1557 248.562 41.1557C246.599 41.1557 245.126 42.7506 245.004 44.8363C244.267 44.1002 243.899 43.1187 243.899 42.0145C243.899 39.9288 245.249 38.3339 246.967 38.3339Z" stroke="#3F3F3E" stroke-width="0.920148" stroke-miterlimit="10"/>
<path d="M344.748 45.8174L264.021 44.5906" stroke="#3F3F3E" stroke-width="0.920148" stroke-miterlimit="10"/>
<path d="M342.54 42.3823C342.54 43.1184 341.926 43.7318 341.19 43.7318C340.454 43.7318 339.841 43.1184 339.841 42.3823C339.841 41.6461 340.454 41.0327 341.19 41.0327C342.049 41.0327 342.663 41.6461 342.54 42.3823Z" stroke="#3F3F3E" stroke-width="0.920148" stroke-miterlimit="10"/>
<path d="M337.386 42.3823C337.386 43.1184 336.773 43.7318 336.037 43.7318C335.3 43.7318 334.687 43.1184 334.81 42.3823C334.81 41.6461 335.423 41.0327 336.159 41.0327C336.773 41.0327 337.386 41.6461 337.386 42.3823Z" stroke="#3F3F3E" stroke-width="0.920148" stroke-miterlimit="10"/>
<path d="M332.111 42.2595C332.111 42.9956 331.497 43.609 330.761 43.609C330.025 43.609 329.534 42.9956 329.534 42.2595C329.534 41.5233 330.148 40.9099 330.884 40.9099C331.62 40.9099 332.233 41.5233 332.111 42.2595Z" stroke="#3F3F3E" stroke-width="0.920148" stroke-miterlimit="10"/>
<path d="M253.47 114.89L317.389 121.392C320.702 121.76 323.401 119.184 323.524 115.871L324.137 75.3848C324.137 71.8269 321.438 68.7597 318.125 68.637L252.488 65.8152C249.544 65.6926 247.335 68.269 247.458 71.5815L248.317 108.755C248.317 111.823 250.648 114.522 253.47 114.89Z" fill="white" stroke="#3F3F3E" stroke-width="0.920148" stroke-miterlimit="10"/>
<path d="M324.013 75.3848L247.702 71.5815" stroke="#3F3F3E" stroke-width="0.920148" stroke-miterlimit="10"/>
<path d="M315.671 84.2186L286.717 82.501" stroke="#3F3F3E" stroke-width="1.14356" stroke-miterlimit="10"/>
<path d="M315.548 87.6535L286.717 85.8132" stroke="#3F3F3E" stroke-width="1.14356" stroke-miterlimit="10"/>
<path d="M315.548 91.2118L286.717 89.2488" stroke="#3F3F3E" stroke-width="1.14356" stroke-miterlimit="10"/>
<path d="M315.548 94.6467L286.717 92.561" stroke="#3F3F3E" stroke-width="1.14356" stroke-miterlimit="10"/>
<path d="M315.425 98.2049L286.717 95.9966" stroke="#3F3F3E" stroke-width="1.14356" stroke-miterlimit="10"/>
<path d="M315.425 101.64L286.717 99.3086" stroke="#3F3F3E" stroke-width="1.14356" stroke-miterlimit="10"/>
<path d="M315.425 105.075L286.717 102.744" stroke="#3F3F3E" stroke-width="1.14356" stroke-miterlimit="10"/>
<path d="M315.303 108.633L286.717 106.056" stroke="#3F3F3E" stroke-width="1.14356" stroke-miterlimit="10"/>
<path d="M315.303 112.068L286.84 109.492" stroke="#3F3F3E" stroke-width="1.14356" stroke-miterlimit="10"/>
<path d="M355.053 32.1995C354.807 32.3222 354.562 32.4449 354.194 32.6903L354.562 34.2852L353.458 35.3894L351.986 34.8986C351.617 35.3894 351.372 35.8801 351.127 36.4935L352.231 37.475L351.863 39.0699L350.391 39.5607C350.391 40.1741 350.391 40.7876 350.513 41.401L351.986 41.5237L352.599 42.9959L351.74 44.2228C352.108 44.7135 352.476 45.2043 352.967 45.5723L354.317 44.7135L355.666 45.4496V47.0446C356.28 47.2899 356.77 47.2899 357.384 47.4126L357.997 45.9404L359.469 45.695L360.328 46.9219C360.574 46.7992 360.819 46.6765 361.187 46.5538C361.432 46.4311 361.8 46.3084 362.046 46.0631L361.678 44.4681L362.782 43.364L364.254 43.8547C364.622 43.364 364.99 42.7505 365.236 42.2598L364.132 41.2783L364.5 39.6834L365.972 39.1926C365.972 38.5792 365.972 37.9658 365.849 37.3523L364.254 37.2296L363.641 35.7574L364.622 34.4079C364.254 33.9171 363.886 33.4264 363.395 33.0583L362.046 33.9171L360.696 33.181V31.5861C360.083 31.4634 359.592 31.3407 358.979 31.218L358.365 32.6903L356.77 32.9356L355.912 31.7088C355.543 31.9541 355.298 32.0768 355.053 32.1995ZM356.893 36.6162C358.365 35.8801 360.083 36.6162 360.819 38.0885C361.432 39.5607 360.819 41.401 359.224 42.1371C357.752 42.8732 356.034 42.1371 355.421 40.6649C354.807 39.1926 355.421 37.3523 356.893 36.6162Z" stroke="#3F3F3E" stroke-width="0.920148" stroke-miterlimit="10"/>
<path d="M347.446 24.7155C347.201 24.8382 347.078 24.8382 346.833 24.9609V26.0651L345.974 26.6785L344.992 26.1878C344.747 26.4332 344.502 26.8012 344.256 27.1693L344.87 28.0281L344.502 29.0096L343.52 29.2549C343.397 29.623 343.397 30.1137 343.397 30.4818L344.379 30.7272L344.624 31.7087L343.888 32.4448C344.011 32.8128 344.256 33.1809 344.502 33.4263L345.483 33.0582L346.342 33.6717L346.219 34.7758C346.587 35.0212 346.955 35.1439 347.323 35.1439L347.937 34.2851H348.918L349.409 35.2666C349.654 35.2666 349.777 35.1439 350.023 35.1439C350.268 35.1439 350.391 35.0212 350.636 34.8985V33.7943L351.495 33.1809L352.476 33.6717C352.722 33.4263 353.09 33.0582 353.212 32.6902L352.599 31.8314L352.967 30.8499L353.948 30.6045C354.071 30.2364 354.071 29.7457 354.071 29.3776L353.09 29.1323L352.844 28.1508L353.58 27.4146C353.458 27.0466 353.212 26.6785 352.967 26.4332L351.986 26.8012L351.127 26.1878L351.249 25.0836C350.881 24.8382 350.513 24.7155 350.145 24.7155L349.532 25.697H348.428L347.937 24.7155C347.814 24.5929 347.569 24.5929 347.446 24.7155ZM348.182 27.9054C349.286 27.5373 350.391 28.1508 350.636 29.2549C350.881 30.3591 350.268 31.4633 349.164 31.8314C348.06 32.1994 347.078 31.4633 346.71 30.4818C346.465 29.3776 347.201 28.2735 348.182 27.9054Z" stroke="#3F3F3E" stroke-width="0.920148" stroke-miterlimit="10"/>
<path d="M270.768 54.7734C270.891 54.7734 270.891 54.7734 271.013 54.8961C271.013 54.7734 271.013 54.7734 271.013 54.6508C271.013 53.9146 271.504 53.4239 271.995 53.4239C272.24 53.4239 272.363 53.5466 272.486 53.5466C272.486 52.6878 273.222 52.0743 273.712 52.197C274.326 52.197 274.939 52.8105 274.939 53.6693C275.062 53.5466 275.307 53.5466 275.43 53.5466C276.044 53.5466 276.412 54.16 276.412 54.7734C276.412 54.8961 276.412 54.8961 276.412 55.0188C276.534 55.0188 276.534 55.0188 276.657 55.0188C277.148 55.0188 277.516 55.5096 277.516 56.0003C277.516 56.491 277.148 56.9818 276.657 56.9818L273.467 56.8591V55.5096H274.081L272.854 54.0373L271.627 55.3869H272.363V56.7364H270.768C270.277 56.7364 269.909 56.2457 269.909 55.7549C269.909 55.1415 270.277 54.7734 270.768 54.7734Z" stroke="#3F3F3E" stroke-width="0.920148" stroke-miterlimit="10"/>
<path d="M357.752 49.9888L357.629 52.4425" stroke="#3F3F3E" stroke-width="0.920148" stroke-miterlimit="10"/>
<path d="M357.506 57.2271L357.016 74.0351" stroke="#3F3F3E" stroke-width="0.920148" stroke-miterlimit="10" stroke-dasharray="4.8 4.8"/>
<path d="M356.894 76.4893L356.771 78.943L354.317 78.8203" stroke="#3F3F3E" stroke-width="0.920148" stroke-miterlimit="10"/>
<path d="M351.373 78.5746L348.919 78.4519" stroke="#3F3F3E" stroke-width="0.920148" stroke-miterlimit="10"/>
<path d="M255.433 50.4795V52.9332" stroke="#3F3F3E" stroke-width="0.920148" stroke-miterlimit="10"/>
<path d="M255.555 56.3684L255.677 61.5212" stroke="#3F3F3E" stroke-width="0.920148" stroke-miterlimit="10" stroke-dasharray="3.42 3.42"/>
<path d="M255.678 63.2388V65.6925" stroke="#3F3F3E" stroke-width="0.920148" stroke-miterlimit="10"/>
<path d="M322.297 72.5634C322.297 73.2995 321.683 73.7903 321.07 73.7903C320.334 73.7903 319.843 73.1768 319.843 72.4407C319.843 71.7046 320.456 71.2139 321.07 71.2139C321.806 71.2139 322.419 71.8273 322.297 72.5634Z" fill="#7E8CDE"/>
<path d="M317.389 72.3176C317.389 73.0537 316.776 73.5444 316.162 73.5444C315.426 73.5444 314.936 72.931 314.936 72.1949C314.936 71.4588 315.549 70.968 316.162 70.968C316.899 70.968 317.389 71.5814 317.389 72.3176Z" fill="#7E8CDE"/>
<path d="M312.482 72.0722C312.482 72.8083 311.869 73.2991 311.255 73.2991C310.642 73.2991 310.028 72.6856 310.028 71.9495C310.028 71.2134 310.642 70.7227 311.255 70.7227C311.991 70.7227 312.482 71.3361 312.482 72.0722Z" fill="#7E8CDE"/>
<path d="M262.303 84.2183C262.671 85.3224 265.125 86.3039 268.437 86.7947C269.173 86.9174 269.909 87.04 270.645 87.04C271.382 87.04 272.118 87.1627 272.854 87.04C276.289 87.04 278.743 86.3039 279.111 85.1998V89.8618C279.111 91.2114 275.307 92.0702 270.645 91.8248C265.983 91.4568 262.303 90.1072 262.303 88.7577C262.425 88.635 262.303 84.8317 262.303 84.2183Z" fill="#8E99CD"/>
<path d="M262.425 89.1257C262.425 89.003 262.425 89.003 262.425 89.1257C262.793 90.2299 265.247 91.2114 268.559 91.7021C269.295 91.8248 270.031 91.9475 270.767 91.9475C271.504 91.9475 272.24 92.0702 272.976 92.0702C276.411 92.0702 278.865 91.3341 279.233 90.2299V94.892C279.233 96.2415 275.43 97.1003 270.767 96.7323C266.105 96.3642 262.425 95.0146 262.425 93.5424C262.425 93.5424 262.425 89.7391 262.425 89.1257Z" fill="#8E99CD"/>
<path d="M262.549 93.9109C262.917 95.0151 265.371 95.9966 268.683 96.4873C269.419 96.61 270.155 96.7327 270.892 96.7327C271.628 96.7327 272.364 96.8554 273.1 96.8554C276.412 96.8554 278.989 96.1192 279.357 95.1378V99.7998C279.357 101.149 275.554 102.008 270.892 101.64C266.229 101.272 262.549 99.7998 262.549 98.4503C262.549 98.3276 262.549 94.5243 262.549 93.9109Z" fill="#8E99CD"/>
<path d="M270.646 81.8875C275.308 82.1329 279.234 83.6052 279.234 84.9547C279.234 86.1816 276.535 86.9177 272.977 87.0404C272.241 87.0404 271.505 87.0404 270.769 87.0404C270.032 87.0404 269.296 86.9177 268.56 86.795C265.248 86.3043 262.671 85.2001 262.426 84.2186C262.426 84.0959 262.426 84.0959 262.426 83.9732C262.303 82.501 265.984 81.6422 270.646 81.8875Z" fill="#8E99CD"/>
<path d="M321.927 72.0722C321.927 72.8083 321.314 73.2991 320.7 73.2991C319.964 73.2991 319.474 72.6856 319.474 71.9495C319.474 71.2134 320.087 70.7227 320.7 70.7227C321.314 70.7227 321.927 71.3361 321.927 72.0722Z" fill="white" stroke="#3F3F3E" stroke-width="0.920148" stroke-miterlimit="10"/>
<path d="M316.898 71.8271C316.898 72.5632 316.285 73.054 315.671 73.054C314.935 73.054 314.444 72.4405 314.444 71.7044C314.444 70.9683 315.058 70.4775 315.671 70.4775C316.407 70.4775 317.021 71.091 316.898 71.8271Z" fill="white" stroke="#3F3F3E" stroke-width="0.920148" stroke-miterlimit="10"/>
<path d="M312.113 71.5817C312.113 72.3178 311.499 72.8086 310.886 72.8086C310.273 72.8086 309.659 72.1952 309.659 71.459C309.659 70.7229 310.273 70.2322 310.886 70.2322C311.499 70.3549 312.113 70.8456 312.113 71.5817Z" fill="white" stroke="#3F3F3E" stroke-width="0.920148" stroke-miterlimit="10"/>
<path d="M262.917 84.9548C262.917 84.8321 262.917 84.8321 262.917 84.9548ZM262.917 84.9548C263.285 86.059 265.739 87.0405 269.051 87.5312C269.787 87.6539 270.524 87.7766 271.26 87.7766C271.996 87.7766 272.732 87.8993 273.468 87.7766C276.903 87.7766 279.357 87.0405 279.725 85.9363V90.5984C279.725 91.9479 275.922 92.8067 271.26 92.5614C266.598 92.1933 262.917 90.8437 262.917 89.4942C263.04 89.3715 262.917 85.5682 262.917 84.9548Z" stroke="#3F3F3E" stroke-width="0.920148" stroke-miterlimit="10"/>
<path d="M263.039 89.7395C263.407 90.8437 265.861 91.8252 269.173 92.3159C269.91 92.4386 270.646 92.5613 271.382 92.5613C272.118 92.5613 272.854 92.684 273.59 92.684C277.025 92.684 279.479 91.9478 279.847 90.8437V95.5058C279.847 96.8553 276.044 97.7141 271.382 97.3461C266.72 96.978 263.039 95.6284 263.039 94.1562C263.039 94.2789 263.039 90.3529 263.039 89.7395Z" stroke="#3F3F3E" stroke-width="0.920148" stroke-miterlimit="10"/>
<path d="M263.039 94.6472C263.039 94.5245 263.162 94.5245 263.039 94.6472ZM263.039 94.6472C263.407 95.7514 265.861 96.7329 269.173 97.2236C269.91 97.3463 270.646 97.469 271.382 97.469C272.118 97.469 272.854 97.5917 273.59 97.5917C276.903 97.5917 279.479 96.8555 279.847 95.8741V100.536C279.847 101.886 276.044 102.744 271.382 102.376C266.842 102.008 263.039 100.536 263.039 99.1866C263.162 99.0639 263.162 95.2606 263.039 94.6472Z" stroke="#3F3F3E" stroke-width="0.920148" stroke-miterlimit="10"/>
<path d="M271.26 82.6239C275.922 82.8692 279.848 84.3415 279.848 85.691C279.848 86.9179 277.149 87.654 273.591 87.7767C272.855 87.7767 272.119 87.7767 271.383 87.7767C270.647 87.7767 269.911 87.654 269.174 87.5313C265.862 87.0406 263.285 85.9364 263.04 84.9549C263.04 84.8322 263.04 84.8322 263.04 84.7095C262.917 83.2373 266.598 82.3785 271.26 82.6239Z" stroke="#3F3F3E" stroke-width="0.920148" stroke-miterlimit="10"/>
<path d="M270.032 104.216C270.154 109.369 266.351 113.172 261.689 112.804C257.027 112.313 253.346 107.897 253.224 102.867C253.101 97.7137 256.782 93.9105 261.444 94.2785C266.106 94.4012 270.032 98.9406 270.032 104.216Z" fill="white" stroke="#3F3F3E" stroke-width="0.920148" stroke-miterlimit="10"/>
<path d="M257.272 108.265L261.076 109.246L265.002 109.001V102.744L263.898 102.499C263.898 101.762 263.898 100.413 263.898 100.168C263.775 99.4314 263.407 98.5726 262.916 98.0818C262.303 97.4684 261.689 97.223 260.953 97.1003C260.83 97.1003 260.83 97.1003 260.708 97.1003C259.358 97.1003 258.254 98.2045 258.254 99.6768C258.254 99.9221 258.254 101.026 258.254 101.885H257.272V108.265ZM260.585 105.32C260.34 105.198 260.217 104.952 260.217 104.584C260.217 104.093 260.585 103.848 260.953 103.848C261.321 103.848 261.689 104.216 261.689 104.707C261.689 104.952 261.566 105.198 261.444 105.32L261.689 107.038L260.462 106.915L260.585 105.32ZM259.603 99.3087C259.849 98.8179 260.34 98.5726 260.953 98.5726C261.566 98.5726 262.057 98.9406 262.303 99.5541C262.548 99.9221 262.548 101.272 262.548 102.253L260.953 101.885L259.235 102.008C259.358 100.904 259.358 99.6767 259.603 99.3087Z" fill="#5C6BC4"/>
<path d="M261.198 98.45C261.812 98.5726 262.303 98.818 262.548 99.4314C262.793 99.7995 262.793 101.149 262.793 102.008L261.198 101.64L259.604 101.762C259.604 100.781 259.604 99.5541 259.849 99.1861C260.094 98.6953 260.585 98.45 261.198 98.45Z" stroke="#3F3F3E" stroke-width="0.920148" stroke-miterlimit="10"/>
<path d="M257.64 107.774L261.321 108.756L265.001 108.51V102.499L264.02 102.253C264.02 101.517 264.02 100.29 264.02 100.045C263.897 99.3088 263.652 98.5727 263.038 98.0819C262.548 97.5912 261.812 97.2231 261.198 97.2231C261.075 97.2231 261.075 97.2231 260.953 97.2231C259.603 97.2231 258.622 98.3273 258.499 99.6769C258.499 99.9222 258.499 101.026 258.499 101.763H257.518L257.64 107.774ZM260.83 104.952C260.707 104.83 260.585 104.584 260.462 104.339C260.462 103.971 260.83 103.603 261.198 103.603C261.566 103.603 261.934 103.971 261.934 104.462C261.934 104.707 261.812 104.952 261.689 105.075L261.934 106.793L260.707 106.67L260.83 104.952ZM259.849 99.1861C260.094 98.6954 260.585 98.45 261.198 98.45C261.689 98.45 262.18 98.8181 262.548 99.4315C262.793 99.7996 262.793 101.149 262.793 102.008L261.198 101.64L259.603 101.763C259.603 100.781 259.603 99.5542 259.849 99.1861Z" stroke="#3F3F3E" stroke-width="0.920148" stroke-miterlimit="10"/>
</g>
</g>
<defs>
<clipPath id="clip0_1139_695">
<rect width="464" height="236" fill="white"/>
</clipPath>
</defs>
</svg>
