<?xml version="1.0" encoding="utf-8"?>
<!-- Generator: Adobe Illustrator 24.0.3, SVG Export Plug-In . SVG Version: 6.00 Build 0)  -->
<svg version="1.1" xmlns="http://www.w3.org/2000/svg" xmlns:xlink="http://www.w3.org/1999/xlink" x="0px" y="0px"
	 viewBox="0 0 841.89 467.72" style="enable-background:new 0 0 841.89 467.72;" xml:space="preserve">
<style type="text/css">
	.st0{fill:#F5C65D;}
	.st1{fill:#E0635D;}
	.st2{fill:#DCEFFA;}
	.st3{fill:#FFFFFF;}
	.st4{fill:#FFC9AE;}
	.st5{fill:none;}
	.st6{fill:none;stroke:#54575C;stroke-miterlimit:10;}
	.st7{fill:#54575C;}
	.st8{fill:#235485;}
	.st9{fill:#D2946C;}
	.st10{fill:#7F6956;}
	.st11{fill:#F8E2D8;}
	.st12{fill:#4890BA;}
	.st13{fill:#61A575;}
	.st14{fill:#B19465;}
	.st15{fill:#FFD5CA;}
	.st16{fill:#E1A27A;}
</style>
<g id="Layer_1">
</g>
<g id="Layer_2">
</g>
<g id="Layer_3">
	<rect class="st13" width="841.89" height="468.46"/>
	<g>
		<g>
			<path class="st3" d="M523.8,187.46c0,0-0.58,7.19-0.45,18.15c0.09,7.72,0.54,17.32,1.79,27.61c1.41,11.58,2.6,21.7,3.4,29.66
				c2.9,2.3,9.39,0.62,9.39,0.62c11.1-4.04,4.04-69.32,4.04-79.75c0-10.43-6.06-19.18-11.78-12.79c-0.56,0.63-1.13,1.51-1.7,2.58
				c-1.63,3.08-3.26,7.76-4.73,12.75L523.8,187.46z"/>
			<path class="st3" d="M282.64,468.46c-2.52-28.37-5.83-66.32-6.19-73.37c-5.78,4.05-12.78,9-21.1,14.97
				c-29.82,21.41-77.23,31.35-94.05,37.47c-15.07,5.48-18.48,18.31-19.03,20.93H282.64z"/>
			<path class="st3" d="M568.73,468.46h130.89c-15.19-13.89-47.32-33.83-69.58-38.52c-25.53-5.37-72.29-36.71-83.28-44.24
				C555.13,401.95,569.07,432.69,568.73,468.46z"/>
			<path class="st3" d="M276.45,395.09c0.36,7.05,3.67,45,6.19,73.37h67.18c-2.28-5.38-4.67-12.14-7.72-20.55
				c-5.32-14.69-9.57-47.68-11.97-69.95c-0.84-7.75-1.45-14.2-1.8-18.13c-3.56-6.83-7.69-11.57-10.7-16.42
				c-4.69,9.01-11.72,20.87-18.32,25.43c-11.23,7.77-23.31,15.97-22.88,25.9C276.44,394.85,276.45,394.97,276.45,395.09z"/>
			<path class="st3" d="M521.11,459.01l-4.43,9.45h52.05c0.34-35.77-13.6-66.51-21.98-82.76c-2.3-4.47-4.19-7.86-5.23-9.94
				c-3.44-6.88-16.37-24.96-24.69-36.35c-1.29,2.17-2.75,4.68-4.31,7.39c0.55,8.88,1.48,21.88,2.54,35.92
				C517.71,417.66,521.11,459.01,521.11,459.01z"/>
			<path class="st3" d="M342.1,447.91c3.05,8.41,5.43,15.17,7.72,20.55h166.87l4.43-9.45c0,0-3.41-41.35-6.05-76.3
				c-1.06-14.03-2-27.03-2.54-35.92c-2.36,4.09-4.96,8.63-7.63,13.23c-4.5,7.76-9.19,15.63-13.2,21.6
				c-3.05,4.53-5.71,7.98-7.59,9.41c-3.36,2.56-10.67,8.02-21.87,15.14c-12.38,7.88-29.46,17.34-50.14,17.16
				c-0.87-0.01-22.54-4.71-42.4-20.53c-3.22-2.56-6.54-5.09-9.87-7.69c-6.79-5.31-13.62-10.94-19.72-17.88
				c-4.27-4.86-8.18-10.35-11.47-16.82c-0.1-0.2-0.21-0.39-0.31-0.59c0.36,3.92,0.97,10.37,1.8,18.13
				C332.54,400.22,336.78,433.22,342.1,447.91z"/>
			<path class="st3" d="M293.47,244.61l0.3,1.78c0.14,0.4,0.21,0.63,0.21,0.63S293.8,246.16,293.47,244.61z"/>
			<path class="st3" d="M282.6,224.12c-1.83-2.13-3.78-3.64-5.78-4.01c-9.09-1.68-3.7,17.5,4.04,25.91
				c7.74,8.41,12.11,29.27,14.81,40.38c1.79,7.38,4.31,13.11,5.81,16.12c-3.59-17.43-8.64-47.11-11.29-63
				c-0.45-2.71-1.32-5.33-2.61-7.76C286.09,228.94,284.4,226.23,282.6,224.12z"/>
			<path class="st3" d="M293.77,246.39l0.24,1.43c-0.02-0.51-0.03-0.8-0.03-0.8S293.91,246.8,293.77,246.39z"/>
			<path class="st3" d="M294.01,247.82l0.09,0.56l-0.12-1.36C293.98,247.02,293.99,247.3,294.01,247.82z"/>
			<path class="st3" d="M355.9,369.5c0,0,0.77-6.03,1.19-14.06c0.05-0.96,0.1-1.94,0.13-2.95c0.1-2.71,0.16-5.57,0.13-8.46
				c-0.08-6.76-0.63-13.64-2.13-18.95c0,0,25.91-14.47,46.44-18.17c20.53-3.7,51.15-9.76,69.32-3.03l8.67,35.18l2.77,11.25
				c0,0,6.66-5.6,14.26-13.12c8.96-8.87,19.22-20.41,21.41-28.6c4.04-15.14,8.08-32.98,8.08-42.73c0-5.89-3.43-28.92-6.15-46.26
				c-0.3-1.9-0.59-3.73-0.86-5.47c-0.31-1.95-0.6-3.77-0.87-5.42c-0.13,0.61-18.03-51.19-20.72-65.33
				c-2.69-14.13-19.18-45.09-21.2-47.78c-2.02-2.69-8.08-4.37-14.47-5.05s-22.54,3.36-26.92,3.7c-4.37,0.34-10.43,0.34-13.8-1.35
				c-3.36-1.68-5.72,2.69-12.45,2.02s-3.36,0.34-9.42,1.01s-17.5,4.71-25.24,4.71s-6.06-0.34-7.4,4.71s-7.74,1.68-14.13,1.35
				s-6.06-2.36-11.1,2.02c-5.05,4.37-7.74,5.05-17.16,5.38s-8.08,0-10.77,2.69c-1.23,1.23-3.74,0.7-6.09-0.24
				c-1.57-0.63-3.24,0.61-3.05,2.3c0.04,0.31,0.05,0.64,0.05,0.97c0,3.7-16.49,3.7-16.49,3.7l-5.05,24.56
				c-4.51,12.57,2.86,56.56,7.59,81.44c1.3,6.8,2.39,12.16,3,15.08c0.32,1.55,0.51,2.41,0.51,2.41l0.12,1.36l9.61,57.09
				c0.07,0.42,0.17,0.84,0.31,1.24l5.73,15.95c0.18,0.52,1.27,3.41,1.61,3.96c3.02,4.86,5.58,8.81,8.24,12.9
				c4.04,6.21,7.79,11.5,11.56,15.84C338.49,363.77,345.92,368.6,355.9,369.5z"/>
			<path class="st3" d="M328.64,360.42c3.28,6.48,7.2,11.97,11.47,16.82c6.1,6.94,12.93,12.58,19.72,17.88
				c3.33,2.6,6.65,5.13,9.87,7.69c19.85,15.81,41.53,20.52,42.4,20.53c20.67,0.18,37.75-9.28,50.14-17.16
				c11.2-7.12,18.52-12.59,21.87-15.14c1.89-1.44,4.55-4.88,7.59-9.41c4.01-5.97,8.7-13.85,13.2-21.6c2.67-4.6,5.27-9.15,7.63-13.23
				c1.56-2.71,3.02-5.22,4.31-7.39c0.31-0.53,0.62-1.04,0.92-1.53c3.44-5.69,5.74-18.62,7.26-32.21
				c2.28-11.72,4.21-22.95,4.52-24.99c0.36-2.34-0.05-8.63-0.97-17.78c-0.8-7.96-1.99-18.08-3.4-29.66
				c-1.25-10.29-1.7-19.89-1.79-27.61c-0.13-10.96,0.45-18.15,0.45-18.15l-0.03-1.16c1.47-4.99,3.1-9.67,4.73-12.75
				c-0.12-7.6-0.7-14.85-2.34-17.72c-4.04-7.07-12.11-31.29-15.14-40.38c-3.03-9.09-21.54-43.74-21.54-43.74s-1.35-14.81-8.41-18.84
				c-7.07-4.04-8.41-11.1-11.44-14.47c-3.03-3.36-20.53-11.44-23.89-15.48c-3.36-4.04-8.41-7.74-24.9-7.07s-9.09-3.7-26.58-3.36
				s-45.43,3.03-54.17,5.72c-8.75,2.69-11.1,9.76-19.18,13.8c-8.08,4.04-22.88,12.45-27.93,18.51s-11.1,13.12-13.8,21.87
				c-2.69,8.75,0.34,11.1-4.37,18.51c-4.71,7.4,2.02,21.2,1.35,26.58c-0.67,5.38-7.07,50.47-5.38,59.22
				c1.68,8.75,1.68,25.57,5.38,30.62c2.46,3.36,5.08,11.05,6.45,16.8c1.81,2.11,3.49,4.82,4.98,7.64c1.28,2.43,2.16,5.05,2.61,7.76
				c2.65,15.9,7.7,45.58,11.29,63c0.55,1.11,1.68,8.79,7.55,22.76c1.75,4.16,3.98,9.1,6.83,14.95c0.53,1.08,1.13,2.13,1.78,3.18
				c3.01,4.84,7.14,9.59,10.7,16.42C328.43,360.03,328.54,360.22,328.64,360.42z M465.42,345.28
				c-12.28,32.28-20.2,26.53-25.54,27.52c-5.35,0.99-7.72-15.05-7.72-15.05l-23.96,2.18c0,0,1.78,17.62-13.47,21.39
				s-37.82-54.45-37.82-54.45c11.88-9.31,46.75-16.79,59.8-19.6c20.2-4.36,49.5,0,49.5,0C471.95,327.06,465.42,345.28,465.42,345.28
				z M311.37,326.62c-0.46-0.74-1.27-2.96-1.61-3.96l-5.73-15.95c-0.14-0.41-0.24-0.82-0.31-1.24l-9.61-57.09l-0.09-0.56l-0.24-1.43
				l-0.3-1.78c-0.61-2.91-1.7-8.27-3-15.08c-4.74-24.88-12.1-68.87-7.59-81.44l5.05-24.56c0,0,16.49,0,16.49-3.7
				c0-0.34-0.02-0.66-0.05-0.97c-0.19-1.68,1.48-2.92,3.05-2.3c2.35,0.94,4.86,1.47,6.09,0.24c2.69-2.69,1.35-2.36,10.77-2.69
				s12.11-1.01,17.16-5.38c5.05-4.37,4.71-2.36,11.1-2.02s12.79,3.7,14.13-1.35s-0.34-4.71,7.4-4.71s19.18-4.04,25.24-4.71
				s2.69-1.68,9.42-1.01s9.09-3.7,12.45-2.02c3.36,1.68,9.42,1.68,13.8,1.35c4.37-0.34,20.53-4.37,26.92-3.7s12.45,2.36,14.47,5.05
				c2.02,2.69,18.51,33.65,21.2,47.78c2.69,14.13,20.6,65.94,20.72,65.33c0.27,1.66,0.56,3.48,0.87,5.42
				c0.28,1.74,0.56,3.57,0.86,5.47c2.72,17.35,6.15,40.38,6.15,46.26c0,9.76-4.04,27.59-8.08,42.73
				c-2.19,8.19-12.45,19.73-21.41,28.6c-7.6,7.52-14.26,13.12-14.26,13.12l-2.77-11.25l-8.67-35.18
				c-18.17-6.73-48.79-0.67-69.32,3.03c-20.53,3.7-46.44,18.17-46.44,18.17c1.5,5.3,2.05,12.19,2.13,18.95
				c0.03,2.89-0.02,5.75-0.13,8.46c-0.04,1.01-0.08,1.99-0.13,2.95c-0.42,8.02-1.19,14.06-1.19,14.06
				c-9.98-0.91-17.41-5.73-24.73-14.15c-3.77-4.34-7.52-9.63-11.56-15.84C316.95,335.43,314.39,331.48,311.37,326.62z"/>
			<path class="st3" d="M416.71,307.26c-13.06,2.82-47.92,10.3-59.8,19.6c0,0,22.57,58.22,37.82,54.45s13.47-21.39,13.47-21.39
				l23.96-2.18c0,0,2.38,16.04,7.72,15.05c5.35-0.99,13.27,4.75,25.54-27.52c0,0,6.53-18.22,0.79-38.02
				C466.21,307.26,436.91,302.9,416.71,307.26z M419.48,342.7c-11.99,2.46-48.32-13.47-48.32-13.47c2.62-0.75,19.26-3.38,31.48-4.36
				c4.99-0.4,9.38-0.14,11.57,0.05c0.99,0.09,1.97-0.19,2.8-0.75c12.62-8.42,39.29-14.15,39.29-14.15S430.57,340.42,419.48,342.7z"
				/>
			<path class="st3" d="M414.22,324.92c-2.2-0.19-6.58-0.44-11.57-0.05c-12.23,0.97-28.86,3.61-31.48,4.36
				c0,0,36.33,15.93,48.32,13.47c11.09-2.28,36.83-32.67,36.83-32.67s-26.67,5.73-39.29,14.15
				C416.19,324.73,415.22,325.01,414.22,324.92z"/>
		</g>
		<g>
			<path class="st16" d="M345.3,446.81c3.26,9,5.76,16.1,8.19,21.65h165.88l4.94-10.55c0,0-3.41-41.35-6.05-76.3
				c-1.06-14.03-2-27.03-2.54-35.92c-2.36,4.09-4.96,8.63-7.63,13.23c-4.5,7.76-9.19,15.63-13.2,21.6
				c-3.05,4.53-5.71,7.98-7.59,9.41c-3.36,2.56-10.67,8.02-21.87,15.14c-12.38,7.88-29.46,17.34-50.14,17.16
				c-0.87-0.01-22.54-4.71-42.4-20.53c-3.22-2.56-6.54-5.09-9.87-7.69c-6.79-5.31-13.62-10.94-19.72-17.88
				c-4.27-4.86-8.18-10.35-11.47-16.82c-0.1-0.2-0.21-0.39-0.31-0.59c0.36,3.92,0.97,10.37,1.8,18.13
				C335.73,399.12,339.97,432.12,345.3,446.81z"/>
			<path class="st16" d="M527,186.37c0,0-0.58,7.19-0.45,18.15c0.09,7.72,0.54,17.32,1.79,27.61c1.41,11.58,2.6,21.7,3.4,29.66
				c2.9,2.3,9.39,0.62,9.39,0.62c11.1-4.04,4.04-69.32,4.04-79.75c0-10.43-6.06-19.18-11.78-12.79c-0.56,0.63-1.13,1.51-1.7,2.58
				c-1.63,3.08-3.26,7.76-4.73,12.75L527,186.37z"/>
			<path class="st8" d="M285.31,468.46c-2.43-27.49-5.33-60.9-5.66-67.47c-5.78,4.05-12.79,9-21.1,14.97
				c-29.82,21.41-77.23,31.35-94.05,37.47c-9.7,3.53-14.55,10.09-16.94,15.03H285.31z"/>
			<path class="st8" d="M695.8,468.46c-16.67-13.09-43.31-28.56-62.57-32.62c-25.53-5.37-72.29-36.71-83.28-44.24
				c7.91,15.35,20.78,43.63,21.9,76.86H695.8z"/>
			<path class="st8" d="M279.65,400.99c0.33,6.57,3.24,39.98,5.66,67.47h65.34c-1.6-4.21-3.33-9.07-5.36-14.65
				c-5.32-14.69-9.56-47.68-11.97-69.95c-0.84-7.75-1.45-14.2-1.8-18.13c-3.56-6.83-7.69-11.57-10.7-16.42
				c-4.69,9.01-11.72,20.87-18.32,25.43c-11.23,7.77-23.31,15.97-22.88,25.9C279.63,400.75,279.64,400.87,279.65,400.99z"/>
			<path class="st8" d="M524.31,464.91l-1.66,3.55h49.21c-1.12-33.23-13.99-61.51-21.9-76.86c-2.3-4.47-4.19-7.86-5.23-9.94
				c-3.44-6.88-16.37-24.96-24.69-36.35c-1.29,2.17-2.75,4.68-4.31,7.39c0.55,8.88,1.48,21.88,2.54,35.92
				C520.9,423.56,524.31,464.91,524.31,464.91z"/>
			<path class="st3" d="M296.67,243.51l0.3,1.78c0.14,0.4,0.21,0.63,0.21,0.63S296.99,245.06,296.67,243.51z"/>
			<path class="st16" d="M285.79,223.02c-1.83-2.13-3.78-3.64-5.78-4.01c-9.09-1.68-3.7,17.5,4.04,25.91
				c7.74,8.41,12.11,29.27,14.81,40.38c1.79,7.38,4.31,13.11,5.81,16.12c-3.59-17.43-8.64-47.11-11.29-63
				c-0.45-2.71-1.32-5.33-2.61-7.76C289.28,227.84,287.6,225.13,285.79,223.02z"/>
			<path class="st3" d="M296.97,245.29l0.24,1.43c-0.02-0.51-0.03-0.8-0.03-0.8S297.1,245.7,296.97,245.29z"/>
			<path class="st3" d="M297.21,246.72l0.09,0.56l-0.12-1.36C297.18,245.92,297.19,246.21,297.21,246.72z"/>
			<path class="st3" d="M359.09,368.41c0,0,0.77-6.03,1.19-14.06c0.05-0.96,0.1-1.94,0.13-2.95c0.1-2.71,0.16-5.57,0.13-8.46
				c-0.08-6.76-0.63-13.64-2.13-18.95c0,0,25.91-14.47,46.44-18.17c20.53-3.7,51.15-9.76,69.32-3.03l8.67,35.18l2.77,11.25
				c0,0,6.66-5.6,14.26-13.12c8.96-8.87,19.22-20.41,21.41-28.6c4.04-15.14,8.08-32.98,8.08-42.73c0-5.89-3.43-28.92-6.15-46.26
				c-0.3-1.9-0.59-3.73-0.86-5.47c-0.31-1.95-0.6-3.77-0.87-5.42c-0.13,0.61-18.03-51.19-20.72-65.33
				c-2.69-14.13-19.18-45.09-21.2-47.78c-2.02-2.69-8.08-4.37-14.47-5.05s-22.54,3.36-26.92,3.7c-4.37,0.34-10.43,0.34-13.8-1.35
				c-3.36-1.68-5.72,2.69-12.45,2.02s-3.36,0.34-9.42,1.01s-17.5,4.71-25.24,4.71s-6.06-0.34-7.4,4.71s-7.74,1.68-14.13,1.35
				s-6.06-2.36-11.1,2.02c-5.05,4.37-7.74,5.05-17.16,5.38s-8.08,0-10.77,2.69c-1.23,1.23-3.74,0.7-6.09-0.24
				c-1.57-0.63-3.24,0.61-3.05,2.3c0.04,0.31,0.05,0.64,0.05,0.97c0,3.7-16.49,3.7-16.49,3.7L286.07,147
				c-4.51,12.57,2.86,56.56,7.59,81.44c1.3,6.8,2.39,12.16,3,15.08c0.32,1.55,0.51,2.41,0.51,2.41l0.12,1.36l9.61,57.09
				c0.07,0.42,0.17,0.84,0.31,1.24l5.73,15.95c0.18,0.52,1.27,3.41,1.61,3.96c3.02,4.86,5.58,8.81,8.24,12.9
				c4.04,6.21,7.79,11.5,11.56,15.84C341.68,362.67,349.11,367.5,359.09,368.41z"/>
			<path class="st16" d="M468.61,344.18c-12.28,32.28-20.2,26.53-25.54,27.52c-5.35,0.99-7.72-15.05-7.72-15.05l-23.96,2.18
				c0,0,1.78,17.62-13.47,21.39s-37.82-54.45-37.82-54.45c11.88-9.31,46.75-16.79,59.8-19.6c20.2-4.36,49.5,0,49.5,0
				C475.15,325.96,468.61,344.18,468.61,344.18z M314.57,325.52c-0.46-0.74-1.27-2.96-1.61-3.96l-5.73-15.95
				c-0.14-0.41-0.24-0.82-0.31-1.24l-9.61-57.09l-0.09-0.56l-0.24-1.43l-0.3-1.78c-0.61-2.91-1.7-8.27-3-15.08
				c-4.74-24.88-12.1-68.87-7.59-81.44l5.05-24.56c0,0,16.49,0,16.49-3.7c0-0.34-0.02-0.66-0.05-0.97c-0.19-1.68,1.48-2.92,3.05-2.3
				c2.35,0.94,4.86,1.47,6.09,0.24c2.69-2.69,1.35-2.36,10.77-2.69s12.11-1.01,17.16-5.38c5.05-4.37,4.71-2.36,11.1-2.02
				s12.79,3.7,14.13-1.35s-0.34-4.71,7.4-4.71s19.18-4.04,25.24-4.71s2.69-1.68,9.42-1.01s9.09-3.7,12.45-2.02
				c3.36,1.68,9.42,1.68,13.8,1.35c4.37-0.34,20.53-4.37,26.92-3.7s12.45,2.36,14.47,5.05c2.02,2.69,18.51,33.65,21.2,47.78
				c2.69,14.13,20.6,65.94,20.72,65.33c0.27,1.66,0.56,3.48,0.87,5.42c0.28,1.74,0.56,3.57,0.86,5.47
				c2.72,17.35,6.15,40.38,6.15,46.26c0,9.76-4.04,27.59-8.08,42.73c-2.19,8.19-12.45,19.73-21.41,28.6
				c-7.6,7.52-14.26,13.12-14.26,13.12l-2.77-11.25l-8.67-35.18c-18.17-6.73-48.79-0.67-69.32,3.03
				c-20.53,3.7-46.44,18.17-46.44,18.17c1.5,5.3,2.05,12.19,2.13,18.95c0.03,2.89-0.02,5.75-0.13,8.46
				c-0.04,1.01-0.08,1.99-0.13,2.95c-0.42,8.02-1.19,14.06-1.19,14.06c-9.98-0.91-17.41-5.73-24.73-14.15
				c-3.77-4.34-7.52-9.63-11.56-15.84C320.14,334.34,317.58,330.38,314.57,325.52z"/>
			<path class="st16" d="M419.9,306.16c-13.06,2.82-47.92,10.3-59.8,19.6c0,0,22.57,58.22,37.82,54.45s13.47-21.39,13.47-21.39
				l23.96-2.18c0,0,2.38,16.04,7.72,15.05c5.35-0.99,13.27,4.75,25.54-27.52c0,0,6.53-18.22,0.79-38.02
				C469.41,306.16,440.1,301.8,419.9,306.16z M422.68,341.6c-11.99,2.46-48.32-13.47-48.32-13.47c2.62-0.75,19.26-3.38,31.48-4.36
				c4.99-0.4,9.38-0.14,11.57,0.05c0.99,0.09,1.97-0.19,2.8-0.75c12.62-8.42,39.29-14.15,39.29-14.15S433.76,339.33,422.68,341.6z"
				/>
			<path class="st3" d="M417.42,323.83c-2.2-0.19-6.58-0.44-11.57-0.05c-12.23,0.97-28.86,3.61-31.48,4.36
				c0,0,36.33,15.93,48.32,13.47c11.09-2.28,36.83-32.67,36.83-32.67s-26.67,5.73-39.29,14.15
				C419.39,323.63,418.41,323.91,417.42,323.83z"/>
		</g>
		<circle class="st7" cx="346.91" cy="230.31" r="5.08"/>
		<circle class="st7" cx="447.72" cy="208.01" r="5.08"/>
		<g>
			<path class="st6" d="M523.8,187.46c0,0-0.58,7.19-0.45,18.15c0.09,7.72,0.54,17.32,1.79,27.61c1.41,11.58,2.6,21.7,3.4,29.66
				c2.9,2.3,9.39,0.62,9.39,0.62c11.1-4.04,4.04-69.32,4.04-79.75c0-10.43-6.06-19.18-11.78-12.79c-0.56,0.63-1.13,1.51-1.7,2.58
				c-1.63,3.08-3.26,7.76-4.73,12.75L523.8,187.46z"/>
			<path class="st6" d="M282.64,468.46c-2.52-28.37-5.83-66.32-6.19-73.37c-5.78,4.05-12.78,9-21.1,14.97
				c-29.82,21.41-77.23,31.35-94.05,37.47c-15.07,5.48-18.48,18.31-19.03,20.93"/>
			<path class="st6" d="M699.62,468.46c-15.19-13.89-47.32-33.83-69.58-38.52c-25.53-5.37-72.29-36.71-83.28-44.24
				c8.38,16.25,22.31,46.99,21.98,82.76"/>
			<path class="st6" d="M349.82,468.46c-2.28-5.38-4.67-12.14-7.72-20.55c-5.32-14.69-9.57-47.68-11.97-69.95
				c-0.84-7.75-1.45-14.2-1.8-18.13c-3.56-6.83-7.69-11.57-10.7-16.42c-4.69,9.01-11.72,20.87-18.32,25.43
				c-11.23,7.77-23.31,15.97-22.88,25.9c0,0.1,0.01,0.22,0.02,0.34c0.36,7.05,3.67,45,6.19,73.37"/>
			<path class="st6" d="M568.73,468.46c0.34-35.77-13.6-66.51-21.98-82.76c-2.3-4.47-4.19-7.86-5.23-9.94
				c-3.44-6.88-16.37-24.96-24.69-36.35c-1.29,2.17-2.75,4.68-4.31,7.39c0.55,8.88,1.48,21.88,2.54,35.92
				c2.64,34.96,6.05,76.3,6.05,76.3l-4.43,9.45"/>
			<path class="st6" d="M516.68,468.46l4.43-9.45c0,0-3.41-41.35-6.05-76.3c-1.06-14.03-2-27.03-2.54-35.92
				c-2.36,4.09-4.96,8.63-7.63,13.23c-4.5,7.76-9.19,15.63-13.2,21.6c-3.05,4.53-5.71,7.98-7.59,9.41
				c-3.36,2.56-10.67,8.02-21.87,15.14c-12.38,7.88-29.46,17.34-50.14,17.16c-0.87-0.01-22.54-4.71-42.4-20.53
				c-3.22-2.56-6.54-5.09-9.87-7.69c-6.79-5.31-13.62-10.94-19.72-17.88c-4.27-4.86-8.18-10.35-11.47-16.82
				c-0.1-0.2-0.21-0.39-0.31-0.59c0.36,3.92,0.97,10.37,1.8,18.13c2.4,22.27,6.64,55.26,11.97,69.95
				c3.05,8.41,5.43,15.17,7.72,20.55"/>
			<path class="st6" d="M293.47,244.61l0.3,1.78c0.14,0.4,0.21,0.63,0.21,0.63S293.8,246.16,293.47,244.61z"/>
			<path class="st6" d="M282.6,224.12c-1.83-2.13-3.78-3.64-5.78-4.01c-9.09-1.68-3.7,17.5,4.04,25.91
				c7.74,8.41,12.11,29.27,14.81,40.38c1.79,7.38,4.31,13.11,5.81,16.12c-3.59-17.43-8.64-47.11-11.29-63
				c-0.45-2.71-1.32-5.33-2.61-7.76C286.09,228.94,284.4,226.23,282.6,224.12z"/>
			<path class="st6" d="M293.77,246.39l0.24,1.43c-0.02-0.51-0.03-0.8-0.03-0.8S293.91,246.8,293.77,246.39z"/>
			<path class="st6" d="M294.01,247.82l0.09,0.56l-0.12-1.36C293.98,247.02,293.99,247.3,294.01,247.82z"/>
			<path class="st6" d="M355.9,369.5c0,0,0.77-6.03,1.19-14.06c0.05-0.96,0.1-1.94,0.13-2.95c0.1-2.71,0.16-5.57,0.13-8.46
				c-0.08-6.76-0.63-13.64-2.13-18.95c0,0,25.91-14.47,46.44-18.17c20.53-3.7,51.15-9.76,69.32-3.03l8.67,35.18l2.77,11.25
				c0,0,6.66-5.6,14.26-13.12c8.96-8.87,19.22-20.41,21.41-28.6c4.04-15.14,8.08-32.98,8.08-42.73c0-5.89-3.43-28.92-6.15-46.26
				c-0.3-1.9-0.59-3.73-0.86-5.47c-0.31-1.95-0.6-3.77-0.87-5.42c-0.13,0.61-18.03-51.19-20.72-65.33
				c-2.69-14.13-19.18-45.09-21.2-47.78c-2.02-2.69-8.08-4.37-14.47-5.05s-22.54,3.36-26.92,3.7c-4.37,0.34-10.43,0.34-13.8-1.35
				c-3.36-1.68-5.72,2.69-12.45,2.02s-3.36,0.34-9.42,1.01s-17.5,4.71-25.24,4.71s-6.06-0.34-7.4,4.71s-7.74,1.68-14.13,1.35
				s-6.06-2.36-11.1,2.02c-5.05,4.37-7.74,5.05-17.16,5.38s-8.08,0-10.77,2.69c-1.23,1.23-3.74,0.7-6.09-0.24
				c-1.57-0.63-3.24,0.61-3.05,2.3c0.04,0.31,0.05,0.64,0.05,0.97c0,3.7-16.49,3.7-16.49,3.7l-5.05,24.56
				c-4.51,12.57,2.86,56.56,7.59,81.44c1.3,6.8,2.39,12.16,3,15.08c0.32,1.55,0.51,2.41,0.51,2.41l0.12,1.36l9.61,57.09
				c0.07,0.42,0.17,0.84,0.31,1.24l5.73,15.95c0.18,0.52,1.27,3.41,1.61,3.96c3.02,4.86,5.58,8.81,8.24,12.9
				c4.04,6.21,7.79,11.5,11.56,15.84C338.49,363.77,345.92,368.6,355.9,369.5z"/>
			<path class="st7" d="M328.64,360.42c3.28,6.48,7.2,11.97,11.47,16.82c6.1,6.94,12.93,12.58,19.72,17.88
				c3.33,2.6,6.65,5.13,9.87,7.69c19.85,15.81,41.53,20.52,42.4,20.53c20.67,0.18,37.75-9.28,50.14-17.16
				c11.2-7.12,18.52-12.59,21.87-15.14c1.89-1.44,4.55-4.88,7.59-9.41c4.01-5.97,8.7-13.85,13.2-21.6c2.67-4.6,5.27-9.15,7.63-13.23
				c1.56-2.71,3.02-5.22,4.31-7.39c0.31-0.53,0.62-1.04,0.92-1.53c3.44-5.69,5.74-18.62,7.26-32.21
				c2.28-11.72,4.21-22.95,4.52-24.99c0.36-2.34-0.05-8.63-0.97-17.78c-0.8-7.96-1.99-18.08-3.4-29.66
				c-1.25-10.29-1.7-19.89-1.79-27.61c-0.13-10.96,0.45-18.15,0.45-18.15l-0.03-1.16c1.47-4.99,3.1-9.67,4.73-12.75
				c-0.12-7.6-0.7-14.85-2.34-17.72c-4.04-7.07-12.11-31.29-15.14-40.38c-3.03-9.09-21.54-43.74-21.54-43.74s-1.35-14.81-8.41-18.84
				c-7.07-4.04-8.41-11.1-11.44-14.47c-3.03-3.36-20.53-11.44-23.89-15.48c-3.36-4.04-8.41-7.74-24.9-7.07s-9.09-3.7-26.58-3.36
				s-45.43,3.03-54.17,5.72c-8.75,2.69-11.1,9.76-19.18,13.8c-8.08,4.04-22.88,12.45-27.93,18.51s-11.1,13.12-13.8,21.87
				c-2.69,8.75,0.34,11.1-4.37,18.51c-4.71,7.4,2.02,21.2,1.35,26.58c-0.67,5.38-7.07,50.47-5.38,59.22
				c1.68,8.75,1.68,25.57,5.38,30.62c2.46,3.36,5.08,11.05,6.45,16.8c1.81,2.11,3.49,4.82,4.98,7.64c1.28,2.43,2.16,5.05,2.61,7.76
				c2.65,15.9,7.7,45.58,11.29,63c0.55,1.11,1.68,8.79,7.55,22.76c1.75,4.16,3.98,9.1,6.83,14.95c0.53,1.08,1.13,2.13,1.78,3.18
				c3.01,4.84,7.14,9.59,10.7,16.42C328.43,360.03,328.54,360.22,328.64,360.42z M465.42,345.28
				c-12.28,32.28-20.2,26.53-25.54,27.52c-5.35,0.99-7.72-15.05-7.72-15.05l-23.96,2.18c0,0,1.78,17.62-13.47,21.39
				s-37.82-54.45-37.82-54.45c11.88-9.31,46.75-16.79,59.8-19.6c20.2-4.36,49.5,0,49.5,0C471.95,327.06,465.42,345.28,465.42,345.28
				z M311.37,326.62c-0.46-0.74-1.27-2.96-1.61-3.96l-5.73-15.95c-0.14-0.41-0.24-0.82-0.31-1.24l-9.61-57.09l-0.09-0.56l-0.24-1.43
				l-0.3-1.78c-0.61-2.91-1.7-8.27-3-15.08c-4.74-24.88-12.1-68.87-7.59-81.44l5.05-24.56c0,0,16.49,0,16.49-3.7
				c0-0.34-0.02-0.66-0.05-0.97c-0.19-1.68,1.48-2.92,3.05-2.3c2.35,0.94,4.86,1.47,6.09,0.24c2.69-2.69,1.35-2.36,10.77-2.69
				s12.11-1.01,17.16-5.38c5.05-4.37,4.71-2.36,11.1-2.02s12.79,3.7,14.13-1.35s-0.34-4.71,7.4-4.71s19.18-4.04,25.24-4.71
				s2.69-1.68,9.42-1.01s9.09-3.7,12.45-2.02c3.36,1.68,9.42,1.68,13.8,1.35c4.37-0.34,20.53-4.37,26.92-3.7s12.45,2.36,14.47,5.05
				c2.02,2.69,18.51,33.65,21.2,47.78c2.69,14.13,20.6,65.94,20.72,65.33c0.27,1.66,0.56,3.48,0.87,5.42
				c0.28,1.74,0.56,3.57,0.86,5.47c2.72,17.35,6.15,40.38,6.15,46.26c0,9.76-4.04,27.59-8.08,42.73
				c-2.19,8.19-12.45,19.73-21.41,28.6c-7.6,7.52-14.26,13.12-14.26,13.12l-2.77-11.25l-8.67-35.18
				c-18.17-6.73-48.79-0.67-69.32,3.03c-20.53,3.7-46.44,18.17-46.44,18.17c1.5,5.3,2.05,12.19,2.13,18.95
				c0.03,2.89-0.02,5.75-0.13,8.46c-0.04,1.01-0.08,1.99-0.13,2.95c-0.42,8.02-1.19,14.06-1.19,14.06
				c-9.98-0.91-17.41-5.73-24.73-14.15c-3.77-4.34-7.52-9.63-11.56-15.84C316.95,335.43,314.39,331.48,311.37,326.62z"/>
			<path class="st6" d="M416.71,307.26c-13.06,2.82-47.92,10.3-59.8,19.6c0,0,22.57,58.22,37.82,54.45s13.47-21.39,13.47-21.39
				l23.96-2.18c0,0,2.38,16.04,7.72,15.05c5.35-0.99,13.27,4.75,25.54-27.52c0,0,6.53-18.22,0.79-38.02
				C466.21,307.26,436.91,302.9,416.71,307.26z M419.48,342.7c-11.99,2.46-48.32-13.47-48.32-13.47c2.62-0.75,19.26-3.38,31.48-4.36
				c4.99-0.4,9.38-0.14,11.57,0.05c0.99,0.09,1.97-0.19,2.8-0.75c12.62-8.42,39.29-14.15,39.29-14.15S430.57,340.42,419.48,342.7z"
				/>
			<path class="st6" d="M414.22,324.92c-2.2-0.19-6.58-0.44-11.57-0.05c-12.23,0.97-28.86,3.61-31.48,4.36
				c0,0,36.33,15.93,48.32,13.47c11.09-2.28,36.83-32.67,36.83-32.67s-26.67,5.73-39.29,14.15
				C416.19,324.73,415.22,325.01,414.22,324.92z"/>
		</g>
		<path class="st6" d="M384.63,214.23c0,0,16.16,29.9,4.44,61.41"/>
		<path class="st6" d="M378.72,273.13c0,0-5.57,9.2-3.76,15.3c1.81,6.09,7,6.22,7.91,5.96c1.89-0.54,6.48-2.2,9.46-1.04
			c2.98,1.17,11.54,6.74,19.32,1.81s11.67-8.44,14.26-10.11c4.41-2.85,15.04-5.06,12.45-14.13"/>
		<path class="st6" d="M332.65,334.97c0,0-1.03-7.23-2.24-10.51s-4.48-5.86-3.1-8.1"/>
		<path class="st6" d="M531.94,192.52c0,0,4.13,38.93,1.03,49.44"/>
		<path class="st6" d="M521.11,459.01c0,0,20.88-44.93-7.54-91.28"/>
	</g>
</g>
</svg>
