<svg xmlns="http://www.w3.org/2000/svg" viewBox="0 0 841.88976 467.71654"><defs><style>.cls-1{fill:#ddddde;}.cls-2{fill:#fff;}.cls-3{fill:#df635c;}.cls-12,.cls-4,.cls-6,.cls-7,.cls-8{fill:none;stroke:#54575c;stroke-miterlimit:10;}.cls-4{stroke-width:0.93688px;}.cls-5{fill:#f5c65d;}.cls-6{stroke-width:1.04428px;stroke-dasharray:104.42787 10.44279;}.cls-7{stroke-width:0.99754px;}.cls-8{stroke-width:0.91015px;}.cls-9{fill:#fcfcfc;}.cls-10{fill:#54575c;}.cls-11{fill:#c97f5f;}.cls-13{fill:#cf7b67;}</style></defs><g id="Layer_3" data-name="Layer 3"><rect class="cls-1" x="4.27024" y="-0.28685" width="837.34631" height="467.1511"/><rect class="cls-2" x="411.59337" y="200.0626" width="138.56718" height="124.23265"/><polygon class="cls-2" points="498.99 298.691 483.063 314.618 498.99 314.618 602.517 314.618 602.517 355.232 602.517 371.16 618.444 355.232 618.444 298.691 498.99 298.691"/><polygon class="cls-2" points="498.99 314.618 483.063 314.618 483.063 371.16 602.517 371.16 602.517 355.232 602.517 314.618 498.99 314.618"/><path class="cls-2" d="M411.177,151.47184c0-24.15851-21.49512-43.74286-48.01025-43.74286-21.03937,0-38.90746,12.33336-45.39186,29.49629a137.70634,137.70634,0,0,1-6.35677,13.6617,36.13607,36.13607,0,0,0-6.16788,20.11063c0,21.81195,19.8191,39.494,44.26709,39.494,14.72735,0,27.774-6.41676,35.82106-16.28715,1.56487-1.91945,8.18042-8.776,10.03118-10.30184C405.07574,175.90051,411.177,164.33789,411.177,151.47184Z"/><rect class="cls-3" x="408.65941" y="202.5461" width="138.56718" height="124.23265"/><rect class="cls-4" x="410.95823" y="200.70192" width="138.56718" height="124.23265"/><polygon class="cls-5" points="497.51 300.674 481.583 316.602 497.51 316.602 601.037 316.602 601.037 357.216 601.037 373.143 616.965 357.216 616.965 300.674 497.51 300.674"/><polygon class="cls-5" points="497.51 316.602 481.583 316.602 481.583 373.143 601.037 373.143 601.037 357.216 601.037 316.602 497.51 316.602"/><line class="cls-6" x1="376.58377" y1="28.97827" x2="37.17043" y2="382.42425"/><path class="cls-3" d="M410.82262,147.60375c0-24.15851-21.49512-43.74286-48.01025-43.74286-21.03937,0-38.90746,12.33335-45.39186,29.49628a137.70634,137.70634,0,0,1-6.35677,13.6617,36.13607,36.13607,0,0,0-6.16788,20.11063c0,21.81195,19.81909,39.494,44.26709,39.494,14.72735,0,27.774-6.41675,35.821-16.28715,1.56488-1.91945,8.18043-8.776,10.03119-10.30184C404.72133,172.03241,410.82262,160.4698,410.82262,147.60375Z"/><path class="cls-7" d="M411.177,151.47184c0-24.15851-21.49512-43.74286-48.01025-43.74286-21.03937,0-38.90746,12.33336-45.39186,29.49629a137.70634,137.70634,0,0,1-6.35677,13.6617,36.13607,36.13607,0,0,0-6.16788,20.11063c0,21.81195,19.8191,39.494,44.26709,39.494,14.72735,0,27.774-6.41676,35.82106-16.28715,1.56487-1.91945,8.18042-8.776,10.03118-10.30184C405.07574,175.90051,411.177,164.33789,411.177,151.47184Z"/><ellipse class="cls-8" cx="349.5174" cy="170.99763" rx="44.26713" ry="39.49395"/><rect class="cls-2" x="340.4817" y="364.31847" width="86.80358" height="77.24722"/><rect class="cls-9" x="339.49521" y="365.80893" width="86.80358" height="77.24722"/><rect class="cls-4" x="341.33938" y="363.96476" width="86.80358" height="77.24722"/><polygon class="cls-4" points="499.355 298.83 483.427 314.757 499.355 314.757 602.882 314.757 602.882 355.372 602.882 371.299 618.809 355.372 618.809 298.83 499.355 298.83"/><polygon class="cls-4" points="499.355 314.757 483.427 314.757 483.427 371.299 602.882 371.299 602.882 355.372 602.882 314.757 499.355 314.757"/><circle class="cls-2" cx="735.14386" cy="316.90733" r="49.54624"/><circle class="cls-2" cx="733.66412" cy="317.90454" r="49.54624"/><circle class="cls-4" cx="735.50829" cy="316.06037" r="49.54624"/><rect class="cls-10" x="479.15655" y="405.74293" width="319.03594" height="8.49824"/><rect class="cls-10" x="479.15655" y="434.55792" width="319.03594" height="8.49824"/><path class="cls-2" d="M307.15652,270.741c2.12915-1.06451,7.05981-5.56555-5.1145-12.81311l-2.64331,12.81635C302.35525,271.17286,305.76223,271.4383,307.15652,270.741Z"/><path class="cls-2" d="M316.22878,240.70191c2.41944.4032,8.26587,4.4353,12.70118,3.024,2.88183-.91693,11.11792-4.5929,6.45141-8.87061-4.83862-4.4353-15.72534-12.29791-17.74121-12.70111-1.12573-.22516-4.89087-.70166-7.99731-1.07867l-4.27344,20.72052C309.38625,241.181,314.67581,240.44306,316.22878,240.70191Z"/><path class="cls-2" d="M356.88943,263.47333c-17.2356-12.7876-34.47119,22.23938-34.47119,22.23938s-15.56739,19.45941-20.57129,22.79535c-5.00391,3.33588-10.00781-1.112-10.00781-1.112l7.55957-36.65179,2.64331-12.81635,3.32739-16.13183,4.27344-20.72052.54394-2.63691s21.12744-28.91113,25.5752-38.91888c4.44775-10.00769-3.33594-18.34747-6.11573-18.34747-2.78,0-27.79931,25.01928-35.583,33.35907-7.78369,8.33972-9.79151,21.80114-13.29053,23.65319-8.104,4.28986-15.62061,17.48957-24.51636,20.26954-5.73218,1.79126-10.88354,7.05712-13.82251,10.576a16.20186,16.20186,0,0,1-7.062,4.92731l-4.63428,1.461a39.616,39.616,0,0,0-10.40625,5.05133l-2.20092,1.50055-8.44117,2.16443a17.38534,17.38534,0,0,0-10.01416,6.80475c-6.89258,9.92206-9.75976,27.9386-12.86572,44.40466-2.25879,11.97412-6.24878,24.887-7.27881,28.74689-4.86621,18.23486-66.16211,92.29333-67.27392,96.74121l98.96484,2.22394,26.9436-32.83734a56.52054,56.52054,0,0,1,17.573-14.41541c18.603-9.65021,37.2749-28.17572,41.105-33.9209,4.448-6.67181,53.37451-61.71423,53.37451-66.16211s-1.668-14.45556,2.78-20.57135C357.44534,269.03321,356.88943,263.47333,356.88943,263.47333Z"/><path class="cls-11" d="M304.1224,270.741c2.12915-1.06451,7.05981-5.56555-5.1145-12.81311l-2.64331,12.81635C299.32113,271.17286,302.72811,271.4383,304.1224,270.741Z"/><path class="cls-11" d="M313.19466,240.70191c2.41944.4032,8.26587,4.4353,12.70118,3.024,2.88183-.91693,11.11792-4.5929,6.45141-8.87061-4.83862-4.4353-15.72534-12.29791-17.74121-12.70111-1.12573-.22516-4.89087-.70166-7.99731-1.07867l-4.27344,20.72052C306.35213,241.181,311.64169,240.44306,313.19466,240.70191Z"/><path class="cls-11" d="M353.85531,263.47333c-17.2356-12.7876-34.47119,22.23938-34.47119,22.23938s-15.56739,19.45941-20.57129,22.79535c-5.00391,3.33588-10.00781-1.112-10.00781-1.112l7.55957-36.65179,2.64331-12.81635,3.32739-16.13183,4.27344-20.72052.54394-2.63691s21.12744-28.91113,25.5752-38.91888c4.44775-10.00769-3.33594-18.34747-6.11573-18.34747-2.78,0-27.79931,25.01928-35.583,33.35907-7.78369,8.33972-9.79151,21.80114-13.29053,23.65319-8.104,4.28986-15.62061,17.48957-24.51636,20.26954-5.73218,1.79126-10.88354,7.05712-13.82251,10.576a16.20186,16.20186,0,0,1-7.062,4.92731l-4.63428,1.461a39.616,39.616,0,0,0-10.40625,5.05133l-2.20092,1.50055-8.44117,2.16443a17.38534,17.38534,0,0,0-10.01416,6.80475c-6.89257,9.92206-9.75976,27.9386-12.86572,44.40466-2.25879,11.97412-6.24878,24.887-7.27881,28.74689-4.86621,18.23486-66.16211,92.29333-67.27392,96.74121l98.96484,2.22394,26.9436-32.83734a56.52054,56.52054,0,0,1,17.573-14.41541c18.603-9.65021,37.2749-28.17572,41.105-33.9209,4.448-6.67181,53.37451-61.71423,53.37451-66.16211s-1.668-14.45556,2.78-20.57135C354.41122,269.03321,353.85531,263.47333,353.85531,263.47333Z"/><path class="cls-12" d="M307.98378,270.597c2.12915-1.06451,7.05981-5.56555-5.1145-12.81311L300.226,270.6002C303.18251,271.02879,306.58949,271.29423,307.98378,270.597Z"/><path class="cls-12" d="M317.056,240.55784c2.41944.4032,8.26587,4.4353,12.70118,3.024,2.88183-.91693,11.11792-4.5929,6.45141-8.87061-4.83862-4.4353-15.72534-12.29791-17.74121-12.70111-1.12573-.22516-4.89087-.70166-7.99731-1.07867L306.19667,241.652C310.21351,241.037,315.50306,240.299,317.056,240.55784Z"/><path class="cls-12" d="M357.71669,263.32926c-17.2356-12.78759-34.47119,22.23938-34.47119,22.23938s-15.56739,19.45941-20.57129,22.79535c-5.00391,3.33588-10.00782-1.112-10.00782-1.112L300.226,270.6002l2.64331-12.81635,3.32739-16.13183,4.27344-20.72052.54394-2.6369s21.12744-28.91114,25.5752-38.91889c4.44775-10.00769-3.33594-18.34747-6.11573-18.34747-2.78,0-27.79931,25.01928-35.583,33.35907-7.7837,8.33972-9.79151,21.80114-13.29053,23.6532-8.104,4.28985-15.62061,17.48956-24.51636,20.26953-5.73218,1.79126-10.88354,7.05713-13.82251,10.576a16.20192,16.20192,0,0,1-7.062,4.9273l-4.63428,1.461a39.616,39.616,0,0,0-10.40625,5.05133l-2.20093,1.50055-8.44116,2.16443a17.38534,17.38534,0,0,0-10.01416,6.80475c-6.89258,9.92206-9.75976,27.9386-12.86572,44.40466-2.25879,11.97412-6.24878,24.887-7.27881,28.74689-4.86621,18.23486-66.16211,92.29333-67.27392,96.74121l98.96484,2.22394,26.9436-32.83734a56.52054,56.52054,0,0,1,17.573-14.41541c18.603-9.65021,37.2749-28.17572,41.105-33.9209,4.448-6.67181,53.37451-61.71423,53.37451-66.16211s-1.668-14.45556,2.78-20.57135C358.2726,268.88914,357.71669,263.32926,357.71669,263.32926Z"/><line class="cls-12" x1="281.59999" y1="218.04051" x2="273.25735" y2="243.79008"/><path class="cls-12" d="M351.94561,278.0285s-5.37724-2.2641-5.66025-5.37724,2.54711-12.16954,2.54711-12.16954,5.8819-1.38023,8.88422,2.84754"/><path class="cls-12" d="M316.852,171.89874s17.26377-2.54711,17.26377-8.20736"/><polygon class="cls-2" points="95.024 58.937 51.117 102.844 95.024 102.844 199.545 102.844 199.545 197.187 199.545 241.094 243.452 197.187 243.452 58.937 95.024 58.937"/><polygon class="cls-2" points="95.024 102.844 51.117 102.844 51.117 241.094 199.545 241.094 199.545 197.187 199.545 102.844 95.024 102.844"/><polygon class="cls-9" points="93.903 53.902 49.996 97.81 93.903 97.81 198.423 97.81 198.423 192.152 198.423 236.06 242.331 192.152 242.331 53.902 93.903 53.902"/><polygon class="cls-9" points="93.903 97.81 49.996 97.81 49.996 236.06 198.423 236.06 198.423 192.152 198.423 97.81 93.903 97.81"/><polygon class="cls-12" points="95.999 55.999 52.092 99.906 95.999 99.906 200.52 99.906 200.52 194.249 200.52 238.156 244.427 194.249 244.427 55.999 95.999 55.999"/><polygon class="cls-12" points="95.999 99.906 52.092 99.906 52.092 238.156 200.52 238.156 200.52 194.249 200.52 99.906 95.999 99.906"/><line class="cls-12" x1="200.51992" y1="99.90624" x2="244.42722" y2="55.99887"/><path class="cls-2" d="M721.51607,115.33555S717.02535,96.02513,710.73824,89.738c-6.28711-6.28711-20.65771-29.63929-20.65771-29.63929s-1.73536-21.51959-21.21265-16.50116l-.79224,104.97a61.92677,61.92677,0,0,1-20.20874,3.59259c-17.22241.1231-40.72339-3.20935-52.09326-3.59259-5.38672-.18158-23.76685,2.12042-23.76685,2.12042l-22.9375-.77319-.32324-28.88178-1.92212.14063s-13.47241-5.389-18.41235,4.93988c0,0-15.2688,1.34722-15.71777,13.02331-.44922,11.67609,8.53247,15.71784,8.53247,15.71784s-5.38892,17.06506,2.24536,18.41229,27.843,0,27.843,0,13.92163,12.12518,20.20874,13.47241,21.55566,2.69446,30.08838,7.63434c8.53247,4.93994,42.21337,4.93994,42.21337,4.93994s9.941,5.70989,17.12627,4.36266S685.5898,190.332,685.5898,190.332l95.58792,53.662,3.87681-81.39424C782.36,160.80346,721.51607,115.33555,721.51607,115.33555Z"/><path class="cls-2" d="M547.72213,29.5612l1.02392,91.4718.32324,28.88178,22.9375.77319s18.38013-2.302,23.76685-2.12042c11.36987.38324,34.87085,3.71569,52.09326,3.59259a61.92677,61.92677,0,0,0,20.20874-3.59259l.79224-104.97.106-14.03631Z"/><path class="cls-13" d="M720.52957,110.907s-4.49072-19.31043-10.77783-25.5976C703.46463,79.02232,689.094,55.67015,689.094,55.67015S687.35868,34.15056,667.88138,39.169l-.79224,104.97a61.92645,61.92645,0,0,1-20.20874,3.59259c-17.22241.12311-40.72339-3.20935-52.09326-3.59259-5.38672-.18158-23.76684,2.12042-23.76684,2.12042l-22.9375-.77319-.32325-28.88177-1.92212.14062s-13.47241-5.389-18.41235,4.93988c0,0-15.2688,1.34723-15.71777,13.02332-.44922,11.67608,8.53247,15.71783,8.53247,15.71783s-5.38892,17.06506,2.24536,18.41229,27.843,0,27.843,0,13.92163,12.12519,20.20874,13.47242,21.55566,2.69445,30.08838,7.63433c8.53247,4.94,42.21338,4.94,42.21338,4.94s9.941,5.70988,17.12627,4.36265,24.63837-13.34428,24.63837-13.34428l96.28276,55.87595.88869-83.67168C779.08017,156.31144,720.52957,110.907,720.52957,110.907Z"/><path class="cls-5" d="M546.73563,25.13267l1.02392,91.47181.32325,28.88177,22.9375.77319s18.38012-2.302,23.76684-2.12042c11.36987.38324,34.87085,3.7157,52.09326,3.59259a61.92645,61.92645,0,0,0,20.20874-3.59259l.79224-104.97.106-14.03632Z"/><path class="cls-12" d="M719.32729,113.31158S714.83657,94.00116,708.54946,87.714c-6.28711-6.28711-20.65771-29.63928-20.65771-29.63928s-1.73535-21.5196-21.21265-16.50116l-.79223,104.97a61.92656,61.92656,0,0,1-20.20875,3.59259c-17.22241.12311-40.72338-3.20935-52.09326-3.59259C588.19814,146.362,569.818,148.664,569.818,148.664l-22.9375-.77319-.32324-28.88178-1.92212.14063s-13.47242-5.389-18.41236,4.93988c0,0-15.2688,1.34723-15.71777,13.02331-.44922,11.67609,8.53247,15.71784,8.53247,15.71784s-5.38892,17.06506,2.24536,18.41229,27.843,0,27.843,0,13.92163,12.12518,20.20874,13.47241,21.55566,2.69446,30.08838,7.63434c8.53247,4.93994,42.21338,4.93994,42.21338,4.93994s9.941,5.70989,17.12627,4.36266S683.401,188.308,683.401,188.308l97.77669,55.686,1.0978-86.8893C779.58094,155.30839,719.32729,113.31158,719.32729,113.31158Z"/><path class="cls-12" d="M545.53335,27.53723l1.02393,91.4718.32324,28.88178,22.9375.77319s18.38012-2.302,23.76684-2.12042c11.36988.38324,34.87085,3.7157,52.09326,3.59259a61.92656,61.92656,0,0,0,20.20875-3.59259l.79223-104.97.106-14.03632Z"/><path class="cls-5" d="M600.34605,89.39233a27.47791,27.47791,0,0,1,17.52-25.60717,27.47452,27.47452,0,1,0,0,51.21429A27.47777,27.47777,0,0,1,600.34605,89.39233Z"/><ellipse class="cls-1" cx="617.86607" cy="89.39232" rx="17.52002" ry="25.60716"/><path class="cls-12" d="M713.3768,144.33553s-20.20211,40.6848-36.12953,40.92685c-12.58447.19124-32.99444-4.63576-51.97411-7.81784-23.27207-3.90173-44.2502-6.3328-44.2502-6.3328s1.132-5.09423-3.67917-5.09423-14.15063,2.26411-16.69774-2.54711-.3349-11.217,9.172-14.8064"/><path class="cls-12" d="M581.023,171.11174s-10.15363-.23373-15.04955-2.332c-4.07167-1.745-2.49724-3.04526-2.49724-3.04526"/><path class="cls-12" d="M550.12,171.81057s55.02075,9.67526,74.37127,18.418,17.14513,7.06114,17.14513,7.06114"/><line class="cls-12" x1="683.40103" y1="188.30804" x2="679.512" y2="185.21605"/><path class="cls-12" d="M545.34063,171.46086a5.63667,5.63667,0,0,0-5.47876-5.47876c-5.12905-.46628-20.04994-1.39883-22.26475,1.39883"/><path class="cls-12" d="M546.88052,147.89081s-9.00033-3.00777-16.81048-1.49237-11.03254,6.43225-11.03254,6.43225"/><path class="cls-12" d="M526.2228,124.08954s16.78644,9.25313,20.51666,23.00832"/><path class="cls-12" d="M530.07,146.39844l-4.77934-6.52788s-12.23979,2.79766-14.57118.58284"/><path class="cls-12" d="M666.23855,75.03107s3.51815,14.0952,9.96187,16.4692c0,0-1.01743,8.13943,2.03485,12.88743s7.083,17.22046,7.083,17.22046"/><path class="cls-12" d="M687.89175,58.07471s-1.85619,11.04214-3.55191,12.05957"/><path class="cls-4" d="M602.59715,89.01715a27.47792,27.47792,0,0,1,17.52-25.60718,27.47452,27.47452,0,1,0,0,51.2143A27.47777,27.47777,0,0,1,602.59715,89.01715Z"/><ellipse class="cls-4" cx="620.11717" cy="89.01714" rx="17.52002" ry="25.60716"/></g></svg>