<svg id="Layer_1" data-name="Layer 1" xmlns="http://www.w3.org/2000/svg" xmlns:xlink="http://www.w3.org/1999/xlink" viewBox="0 0 595.18932 489.05325"><defs><style>.cls-1,.cls-3,.cls-8{fill:none;}.cls-2{clip-path:url(#clip-path);}.cls-3{stroke:#91bcd6;}.cls-3,.cls-8{stroke-miterlimit:10;stroke-width:1.8px;}.cls-4{fill:#91bcd6;}.cls-5{fill:#468fba;}.cls-12,.cls-6{fill:#b5d2e3;}.cls-7,.cls-9{fill:#1d5493;}.cls-8{stroke:#1d5493;}.cls-10,.cls-11,.cls-12,.cls-9{fill-rule:evenodd;}.cls-10{fill:#488fba;}.cls-11{fill:#6ca5c8;}</style><clipPath id="clip-path"><rect class="cls-1" width="595.18932" height="487.72241"/></clipPath></defs><g class="cls-2"><circle class="cls-3" cx="98.90369" cy="506.68931" r="89.44841"/><path class="cls-3" d="M418.9599,197.76934l60.70146,12.328a3.03221,3.03221,0,0,1,2.363,3.595l-12.328,60.70143a3.03228,3.03228,0,0,1-3.595,2.363l-60.70147-12.328a3.03219,3.03219,0,0,1-2.363-3.595l12.35721-60.67019A3.02993,3.02993,0,0,1,418.9599,197.76934Z"/><path class="cls-3" d="M582.18672,320.26346l-188.3322,76.4276a3.19237,3.19237,0,0,0-1.7685,4.17329,3.3057,3.3057,0,0,0,.99677,1.31771l160.3306,124.891a3.19268,3.19268,0,0,0,4.49433-.5461,3.0203,3.0203,0,0,0,.61905-1.54719l28.06271-201.33214a3.22162,3.22162,0,0,0-2.72588-3.62732A3.12476,3.12476,0,0,0,582.18672,320.26346Z"/><path class="cls-3" d="M230.313,245.5212l-88.25985-35.09738a1.49186,1.49186,0,0,0-1.946.83649,1.5447,1.5447,0,0,0-.08966.7669L153.74283,306.005a1.492,1.492,0,0,0,1.69313,1.26872,1.41135,1.41135,0,0,0,.70909-.322l74.55957-58.86518a1.50553,1.50553,0,0,0,.25288-2.10527A1.4603,1.4603,0,0,0,230.313,245.5212Z"/><path class="cls-4" d="M183.92669,303.70459s-.14417.07273-.37891.19977a19.55839,19.55839,0,0,0-4.46356,3.21829c-1.60081,1.68537-3.18612,1.87489-2.04552,2.78751,2.02326,1.61847,5.39086-.81029,6.50908-1.71055.237-.19092.37891-.31726.37891-.31726Z"/><path class="cls-4" d="M185.41468,332.35638a3.73367,3.73367,0,0,0-1.8669-4.17287v-.32262c2.44944-.36272,11.86479-1.96138,13.10231-5.26126,0,0,.09487-1.51916-2.84859-1.61427,0,0,4.93741-.75947,4.17783-2.56349-.7125-1.69213-5.51808-.9618-6.11122-.86483l-.06055.01026.06055-.01026c.57781-.09837,5.13164-.90423,4.6871-1.794-.47478-.94945-11.10935-2.46862-11.67895-3.51294a6.64207,6.64207,0,0,1-.56966-2.6586s-.30275.06061-.75882.16621c-1.35261.31283-4.06052,1.02264-4.27363,1.73292-.2848.94945.3799.75947-.75959,3.51294-1.13931,2.75348-.85446,3.32342.56966,4.93747,1.42429,1.61427.09505,1.70914.47473,3.8929.3799,2.184,2.18387,2.37374,1.51916,3.32343-.66447.94921-2.73278,3.62389-.322,6.17969a6.1994,6.1994,0,0,0,2.79165.94572C184.42426,334.27556,185.21747,333.83521,185.41468,332.35638Z"/><path class="cls-4" d="M415.217,320.88652c-.2109-1.05388-4.63693-4.84772-4.63693-4.84772a26.43541,26.43541,0,0,0-3.07306,1.75461,43.00781,43.00781,0,0,1-6.20091,3.09311c-4.84772,1.897.84309,3.37238.84309,3.37238s-8.64155,1.897-5.90165,4.21553l2.74007,2.31826s-1.26462,1.68653-.42158,2.52945a40.70767,40.70767,0,0,0,8.941,4.95985,4.27707,4.27707,0,0,0,1.59761.30933c2.1077-.21073,3.58316-3.79383,1.68613-5.05845,0,0,3.794-2.10776,2.1077-4.21529,0,0,.42152-5.90183-1.68613-6.95572C411.21234,322.36186,415.42787,321.9404,415.217,320.88652Z"/><path class="cls-4" d="M398.98763,330.79269l-2.74007-2.31826c-2.7399-2.3185,5.90165-4.21553,5.90165-4.21553s-5.69081-1.47534-.84309-3.37238a43.00781,43.00781,0,0,0,6.20091-3.09311V54.47116a9.187,9.187,0,0,0-9.18691-9.187H192.73468a9.187,9.187,0,0,0-9.1869,9.187v249.4332c.23474-.127.37891-.19977.37891-.19977v4.17776s-.1419.12634-.37891.31726v1.5581c.45607-.1056.75882-.16621.75882-.16621a6.64207,6.64207,0,0,0,.56966,2.6586c.5696,1.04432,11.20417,2.56349,11.67895,3.51294.44454.88977-4.10929,1.69563-4.6871,1.794.59314-.097,5.39872-.8273,6.11122.86483.75958,1.804-4.17783,2.56349-4.17783,2.56349,2.94346.09511,2.84859,1.61427,2.84859,1.61427-1.23752,3.29988-10.65287,4.89854-13.10231,5.26126v.32262a3.73367,3.73367,0,0,1,1.8669,4.17287c-.19721,1.47883-.99042,1.91918-1.8669,1.9264v49.87349a9.187,9.187,0,0,0,9.1869,9.187H398.32012a9.187,9.187,0,0,0,9.18691-9.187V338.282a40.70767,40.70767,0,0,1-8.941-4.95985C397.723,332.47922,398.98763,330.79269,398.98763,330.79269ZM326.43224,68.25182H264.62245a3.86307,3.86307,0,1,1,0-7.72614h61.80979a3.86307,3.86307,0,1,1,0,7.72614Z"/><path class="cls-5" d="M181.89941,309.29732c.237-.19088.379-.31732.379-.31732v-4.17782s-.14419.07284-.379.19985a19.55465,19.55465,0,0,0-4.46357,3.21838c-1.60079,1.68521-3.18608,1.87478-2.04549,2.78733C177.41361,312.62627,180.78123,310.19754,181.89941,309.29732Z"/><path class="cls-5" d="M196.331,319.5195c-.71252-1.69212-5.51806-.96185-6.11124-.86473.57786-.09843,5.13164-.90433,4.68713-1.79391-.47476-.94953-11.10933-2.4687-11.679-3.51311a6.64252,6.64252,0,0,1-.56965-2.65864s-.30275.0607-.75883.16622c-1.35258.313-4.06053,1.02275-4.27363,1.73284-.28482.94953.37989.75958-.75958,3.5131-1.13929,2.75352-.85447,3.32335.56964,4.9374,1.42429,1.61424.09506,1.70912.47476,3.893.37989,2.18388,2.18388,2.37382,1.51917,3.32335-.66452.94934-2.73279,3.624-.322,6.17978a6.19777,6.19777,0,0,0,2.79163.94561c.8765-.0071,1.6697-.4475,1.86693-1.92633a3.73388,3.73388,0,0,0-1.86693-4.173v-.32255c2.44946-.36271,11.8648-1.96144,13.10233-5.26126,0,0,.09488-1.51917-2.84859-1.61423C192.15315,322.08308,197.09055,321.32349,196.331,319.5195Z"/><path class="cls-5" d="M413.56864,321.98428c-.21086-1.05393-4.63689-4.84775-4.63689-4.84775a26.39817,26.39817,0,0,0-3.07308,1.7545,43.02461,43.02461,0,0,1-6.20088,3.09325c-4.84775,1.897.84307,3.37228.84307,3.37228s-8.64157,1.897-5.90168,4.21554l2.74007,2.31835s-1.2646,1.68633-.42153,2.5294a40.70779,40.70779,0,0,0,8.941,4.95981,4.27271,4.27271,0,0,0,1.59762.30929c2.10767-.21068,3.58314-3.79382,1.68614-5.05843,0,0,3.794-2.10767,2.10767-4.21535,0,0,.42154-5.90168-1.68614-6.95561C409.564,323.45956,413.7795,323.03821,413.56864,321.98428Z"/><path class="cls-6" d="M256.77893,211.21579c6.07037-1.61031,15.48512-3.59245,15.48512-3.59245s3.09706-1.61051,10.77774-4.70738c5.01387-2.02172,5.11783-6.99851,4.58593-10.21163a15.27488,15.27488,0,0,1-1.86051-.69,18.80787,18.80787,0,0,1-4.34726-3.86859c-.98982,2.83072-3.96082,8.59282-5.72409,9.01269-2.60167.61934-6.61379.215-9.463,3.312-2.84937,3.09706-8.424-.37164-8.17627-2.97312s-3.38359-4.49186-4.37457-10.31434c-.99117-5.82248,2.84917-7.80443-1.48656-9.91052-4.33592-2.10589-5.32709-10.03427-2.22984-13.503,0,0-5.32709-4.95526-2.47772-9.53888s2.35378-6.56577,1.8582-10.28216,6.9374-5.45065,7.80443-10.03447c.86722-4.58342,3.221-15.48511,10.15841-15.60886,6.93721-.12395,11.50745-7.10393,15.84338-8.71444s13.3786,5.129,19.20109,5.62457c5.82229.49558,18.35646-4.84044,22.6922,7.17616,4.33592,12.01642,4.91479,6.68692,10.86122,10.27937,5.94623,3.59265,8.80293,11.7094,7.56407,20.7527-1.23887,9.04349-.099,6.25778,2.50248,10.84159,2.60148,4.58343.96106,6.59887-1.14483,10.6869s1.8582,2.22984.86722,5.94624c-.99117,3.71659-3.46374,5.64834-2.22487,7.63029,1.23886,1.98215,2.34438,6.55131-3.84974,11.25888-1.87242,1.42314-1.33711,4.412-2.29081,5.041.91949.16757,1.84859.32668,2.77116.47176a63.32108,63.32108,0,1,0-87.86147,9.114A8.6914,8.6914,0,0,1,256.77893,211.21579Z"/><path class="cls-7" d="M340.10155,205.30011c-.92257-.14508-1.85167-.30419-2.77116-.47176-2.20082,1.45178-3.66693,4.22507-7.1241,3.015-1.82323-.63816-3.10233-4.25139-5.01241-4.688-10.43109,15.12039-29.66527,18.56507-37.56847,17.22763-8.05232-1.36262-15.36136-12.75969-15.36136-12.75969s-9.41475,1.98214-15.48512,3.59245a8.6914,8.6914,0,0,0-4.53885,3.19833,63.277,63.277,0,0,0,87.86147-9.114Z"/><path class="cls-5" d="M322.915,202.58179c-2.23868-.63893-3.96352-1.46868-4.3194-3.01078-.74328-3.22081,3.09706-4.95526,1.36281-7.68049,0,0-4.58362-1.48655-2.97312-4.70756,1.61031-3.221.867-3.4687.867-3.4687s-3.13146-1.72465-3.59918-4.05326c-5.21333,4.50887-13.20954,11.25949-15.72628,12.47722a15.49022,15.49022,0,0,1-10.89918.56611c.5319,3.21312.42794,8.18991-4.58593,10.21163-7.68068,3.09687-10.77774,4.70738-10.77774,4.70738s7.309,11.39707,15.36136,12.75969c7.9032,1.33744,27.13738-2.10724,37.56847-17.22763C324.39775,202.97342,323.63218,202.78645,322.915,202.58179Z"/><path class="cls-5" d="M316.3658,166.99028s-3.59245-2.60148-2.84917-5.82229a6.28773,6.28773,0,0,1-6.07018-6.19412s-6.68971,2.10589-7.80463-3.4687c0,0-7.80443.74327-11.64477-3.7164,0,0-3.59265,1.23886-4.33593-1.23886-.74327-2.47754.49559-5.203-.49539-4.45968-.99116.74328-1.48656,2.97312-3.221,2.60148,0,0-.991,5.94642-5.3269,6.19412,0,0,3.71659,6.56557-1.6105,8.17607,0,0-1.73426,6.81346-4.58343,8.17627a7.9251,7.9251,0,0,1-.25462,4.84438l.37837.11069s1.12011,1.51365,2.80056,3.702c2.67277,3.48062,6.7683,8.674,10.07174,12.25047a18.80787,18.80787,0,0,0,4.34726,3.86859,15.27488,15.27488,0,0,0,1.86051.69,15.49022,15.49022,0,0,0,10.89918-.56611c2.51674-1.21773,10.51295-7.96835,15.72628-12.47722a3.17373,3.17373,0,0,1,.94505-2.85474,7.78723,7.78723,0,0,1,1.53921-1.26807S312.27777,169.22012,316.3658,166.99028Z"/><polygon class="cls-7" points="266.485 65.511 310.743 65.511 312.534 5.283 268.277 5.283 266.485 65.511"/><polyline class="cls-7" points="309.6 11.772 321.826 15.352 318.323 46.267 306.586 46.267"/><polygon class="cls-7" points="307.773 63.721 317.171 63.721 316.948 61.707 306.654 62.155 307.773 63.721"/><path class="cls-7" d="M246.19334,493.32989c-2.62,7.42365,3.92176,42.986,7.36613,60.34977h29.604c-1.70968-13.57952-5.30776-45.84892-2.11235-54.52224,2.79928-7.59809,10.97691-41.39619,15.83438-61.863.28781-1.2125.56422-2.37924.827-3.48994l.50129-4.84738,2.85606-14.04981s46.54257,74.9879,46.99941,83.66738c.46505,8.83618,14.29018,39.93922,19.55984,55.105h22.04721c-4.076-20.56409-15.01876-71.78875-15.9653-78.41547-.88117-6.16614-9.01716-80.82328-9.01716-80.82328H248.47453c-1.632,11.74565-3.119,24.28656-3.703,29.31305a22.97444,22.97444,0,0,0-.07863,4.51119C246.02432,444.72053,248.96965,485.46378,246.19334,493.32989Z"/><path class="cls-8" d="M258.42727,210.11812c6.07038-1.61031,15.48512-3.59245,15.48512-3.59245s3.09706-1.6105,10.77774-4.70737c5.01387-2.02173,5.11783-6.99851,4.58593-10.21164a15.27411,15.27411,0,0,1-1.8605-.69005,18.80765,18.80765,0,0,1-4.34727-3.86859c-.98982,2.83073-3.96082,8.59283-5.72409,9.0127-2.60167.61934-6.61379.215-9.463,3.312-2.84936,3.09706-8.424-.37164-8.17626-2.97312s-3.3836-4.49186-4.37457-10.31434c-.99117-5.82249,2.84917-7.80444-1.48656-9.91052-4.33593-2.1059-5.3271-10.03428-2.22984-13.503,0,0-5.32709-4.95526-2.47773-9.53888s2.35378-6.56576,1.8582-10.28216,6.9374-5.45065,7.80443-10.03446c.86723-4.58343,3.221-15.48512,10.15841-15.60887,6.93721-.12394,11.50746-7.10393,15.84338-8.71443s13.37861,5.129,19.20109,5.62456c5.82229.49559,18.35647-4.84044,22.6922,7.17617,4.33592,12.01641,4.9148,6.68692,10.86122,10.27937,5.94624,3.59265,8.80293,11.7094,7.56407,20.75269-1.23886,9.04349-.099,6.25778,2.50248,10.8416,2.60148,4.58342.96107,6.59886-1.14483,10.6869s1.8582,2.22984.86723,5.94624c-.99117,3.71658-3.46374,5.64834-2.22488,7.63029,1.23886,1.98214,2.34438,6.55131-3.84974,11.25887-1.87242,1.42315-1.33711,4.412-2.2908,5.041.91949.16756,1.84859.32667,2.77115.47175a63.32107,63.32107,0,1,0-87.86146,9.114A8.69139,8.69139,0,0,1,258.42727,210.11812Z"/><path class="cls-8" d="M341.74989,204.20244c-.92256-.14508-1.85166-.30419-2.77115-.47175-2.20082,1.45177-3.66694,4.22507-7.12411,3.015-1.82322-.63817-3.10233-4.2514-5.01241-4.688-10.43108,15.1204-29.66526,18.56508-37.56847,17.22763-8.05232-1.36261-15.36136-12.75969-15.36136-12.75969s-9.41474,1.98214-15.48512,3.59245a8.69139,8.69139,0,0,0-4.53884,3.19833,63.277,63.277,0,0,0,87.86146-9.114Z"/><path class="cls-8" d="M324.56338,201.48413c-2.23867-.63894-3.96351-1.46869-4.3194-3.01078-.74328-3.22081,3.09707-4.95526,1.36281-7.68049,0,0-4.58362-1.48656-2.97312-4.70756,1.61031-3.221.867-3.46871.867-3.46871s-3.13145-1.72464-3.59917-4.05325c-5.21334,4.50887-13.20955,11.25949-15.72628,12.47722a15.49019,15.49019,0,0,1-10.89919.5661c.5319,3.21313.42794,8.18991-4.58593,10.21164-7.68068,3.09687-10.77774,4.70737-10.77774,4.70737s7.309,11.39708,15.36136,12.75969c7.90321,1.33745,27.13739-2.10723,37.56847-17.22763C326.0461,201.87576,325.28053,201.68878,324.56338,201.48413Z"/><path class="cls-8" d="M318.01415,165.89262s-3.59246-2.60148-2.84918-5.82229a6.28775,6.28775,0,0,1-6.07018-6.19413s-6.6897,2.1059-7.80462-3.4687c0,0-7.80444.74328-11.64478-3.7164,0,0-3.59264,1.23887-4.33592-1.23886-.74328-2.47753.49558-5.20295-.49539-4.45968-.99117.74328-1.48656,2.97312-3.221,2.60148,0,0-.991,5.94643-5.3269,6.19413,0,0,3.71659,6.56557-1.6105,8.17607,0,0-1.73426,6.81346-4.58343,8.17626a7.92518,7.92518,0,0,1-.25461,4.84439l.37836.11068s1.12011,1.51366,2.80056,3.702c2.67277,3.48061,6.7683,8.674,10.07174,12.25046a18.80765,18.80765,0,0,0,4.34727,3.86859,15.27411,15.27411,0,0,0,1.8605.69005,15.49019,15.49019,0,0,0,10.89919-.5661c2.51673-1.21773,10.51294-7.96835,15.72628-12.47722a3.17378,3.17378,0,0,1,.945-2.85475,7.78738,7.78738,0,0,1,1.53922-1.26807S313.92611,168.12245,318.01415,165.89262Z"/><path class="cls-7" d="M346.47693,173.85429c2.1059-4.088,3.74631-6.10348,1.14483-10.6869-2.60148-4.58382-3.27071-3.22457-2.03185-12.26806,1.23887-9.0433-2.08846-15.73358-8.0347-19.32623-5.94642-3.59245-6.5253,1.737-10.86122-10.27937-4.33573-12.01661-16.86991-6.68058-22.6922-7.17617-5.82248-.49558-14.86517-7.23506-19.20109-5.62456s-8.90617,8.59049-15.84338,8.71443c-6.9374.12375-9.29118,11.02544-10.15841,15.60887-.867,4.58381-8.3,6.31807-7.80443,10.03446s.99117,5.69854-1.8582,10.28216,2.47773,9.53888,2.47773,9.53888c-3.09726,3.4687-2.10609,11.39708,2.22984,13.503,4.33573,2.10608.49539,4.088,1.48656,9.91052.991,5.82248,4.62226,7.71286,4.37457,10.31434s5.3269,6.07018,8.17626,2.97312c2.84917-3.09707,6.86129-2.6927,9.463-3.312,1.76327-.41987,4.73427-6.182,5.72409-9.0127-3.30344-3.5765-7.399-8.76985-10.07174-12.25046-1.68045-2.18833-2.80056-3.702-2.80056-3.702l-.37836-.11068a7.92518,7.92518,0,0,0,.25461-4.84439c2.84917-1.3628,4.58343-8.17626,4.58343-8.17626,5.32709-1.6105,1.6105-8.17607,1.6105-8.17607,4.33593-.2477,5.3269-6.19413,5.3269-6.19413,1.73445.37164,2.22984-1.8582,3.221-2.60148.991-.74327-.24789,1.98215.49539,4.45968.74328,2.47773,4.33592,1.23886,4.33592,1.23886,3.84034,4.45968,11.64478,3.7164,11.64478,3.7164,1.11492,5.5746,7.80462,3.4687,7.80462,3.4687a6.28775,6.28775,0,0,0,6.07018,6.19413c-.74328,3.22081,2.84918,5.82229,2.84918,5.82229-4.088,2.22983.37164,8.5479.37164,8.5479a7.78738,7.78738,0,0,0-1.53922,1.26807,3.17378,3.17378,0,0,0-.945,2.85475c.46772,2.32861,3.59917,4.05325,3.59917,4.05325s.74328.2477-.867,3.46871c-1.6105,3.221,2.97312,4.70756,2.97312,4.70756,1.73426,2.72523-2.10609,4.45968-1.36281,7.68049.35589,1.54209,2.08073,2.37184,4.3194,3.01078.71715.20465,1.48272.39163,2.27884.5736,1.91008.43659,3.18919,4.04982,5.01241,4.688,3.45717,1.21,4.92329-1.56326,7.12411-3.015.95369-.629.41838-3.61785,2.2908-5.041,6.19412-4.70756,5.0886-9.27673,3.84974-11.25887-1.23886-1.982,1.23371-3.91371,2.22488-7.63029C348.33513,176.08413,344.371,177.94233,346.47693,173.85429Z"/><rect class="cls-8" x="295.28284" y="15.14956" width="0.48903" height="0.00001"/><polygon class="cls-7" points="268.134 64.413 312.391 64.413 314.182 4.185 269.925 4.185 268.134 64.413"/><polyline class="cls-7" points="311.248 10.674 323.474 14.255 319.971 45.17 308.234 45.17"/><polygon class="cls-7" points="309.422 62.623 318.82 62.623 318.596 60.609 308.303 61.057 309.422 62.623"/><path class="cls-8" d="M247.84169,492.23222c-2.62,7.42366,3.92175,42.986,7.36612,60.34978h29.604c-1.70967-13.57953-5.30776-45.84893-2.11235-54.52224,2.79928-7.5981,10.97692-41.39619,15.83438-61.863.28781-1.2125.56423-2.37924.827-3.49l.50128-4.84737,2.85606-14.04981s46.54258,74.9879,46.99941,83.66738c.46506,8.83618,14.29018,39.93921,19.55984,55.105h22.04721c-4.076-20.56409-15.01876-71.78876-15.9653-78.41547-.88117-6.16614-9.01716-80.82328-9.01716-80.82328H250.12287c-1.632,11.74565-3.119,24.28656-3.70305,29.313a22.9752,22.9752,0,0,0-.07863,4.51119C247.67266,443.62287,250.618,484.36612,247.84169,492.23222Z"/><path class="cls-8" d="M286.41412,180.10737s6.11548,6.4046,15.73785-2.91706"/><path class="cls-8" d="M289.67288,157.99087s1.09,5.22464.3007,8.41957-3.458,4.36013-2.70629,5.71328c1.2477,2.24586,3.90908-1.2028,5.41258-.3007s6.014-1.2028,6.014-1.2028"/><ellipse class="cls-7" cx="281.52375" cy="160.17494" rx="1.22371" ry="1.28198"/><ellipse class="cls-7" cx="300.28727" cy="158.31025" rx="1.22371" ry="1.28198"/><line class="cls-8" x1="215.46853" y1="256.65012" x2="374.38816" y2="256.65012"/><line class="cls-8" x1="217.27444" y1="289.15641" x2="309.37559" y2="289.15641"/><path class="cls-8" d="M183.92669,303.70459s-.14417.07273-.37891.19977a19.55839,19.55839,0,0,0-4.46356,3.21829c-1.60081,1.68537-3.18612,1.87489-2.04552,2.78751,2.02326,1.61847,5.39086-.81029,6.50908-1.71055.237-.19092.37891-.31726.37891-.31726Z"/><path class="cls-8" d="M185.41468,332.35638a3.73367,3.73367,0,0,0-1.8669-4.17287v-.32262c2.44944-.36272,11.86479-1.96138,13.10231-5.26126,0,0,.09487-1.51916-2.84859-1.61427,0,0,4.93741-.75947,4.17783-2.56349-.7125-1.69213-5.51808-.9618-6.11122-.86483l-.06055.01026.06055-.01026c.57781-.09837,5.13164-.90423,4.6871-1.794-.47478-.94945-11.10935-2.46862-11.67895-3.51294a6.64207,6.64207,0,0,1-.56966-2.6586s-.30275.06061-.75882.16621c-1.35261.31283-4.06052,1.02264-4.27363,1.73292-.2848.94945.3799.75947-.75959,3.51294-1.13931,2.75348-.85446,3.32342.56966,4.93747,1.42429,1.61427.09505,1.70914.47473,3.8929.3799,2.184,2.18387,2.37374,1.51916,3.32343-.66447.94921-2.73278,3.62389-.322,6.17969a6.1994,6.1994,0,0,0,2.79165.94572C184.42426,334.27556,185.21747,333.83521,185.41468,332.35638Z"/><path class="cls-8" d="M415.217,320.88652c-.2109-1.05388-4.63693-4.84772-4.63693-4.84772a26.43541,26.43541,0,0,0-3.07306,1.75461,43.00781,43.00781,0,0,1-6.20091,3.09311c-4.84772,1.897.84309,3.37238.84309,3.37238s-8.64155,1.897-5.90165,4.21553l2.74007,2.31826s-1.26462,1.68653-.42158,2.52945a40.70767,40.70767,0,0,0,8.941,4.95985,4.27707,4.27707,0,0,0,1.59761.30933c2.1077-.21073,3.58316-3.79383,1.68613-5.05845,0,0,3.794-2.10776,2.1077-4.21529,0,0,.42152-5.90183-1.68613-6.95572C411.21234,322.36186,415.42787,321.9404,415.217,320.88652Z"/><path class="cls-8" d="M398.98763,330.79269l-2.74007-2.31826c-2.7399-2.3185,5.90165-4.21553,5.90165-4.21553s-5.69081-1.47534-.84309-3.37238a43.00781,43.00781,0,0,0,6.20091-3.09311V54.47116a9.187,9.187,0,0,0-9.18691-9.187H192.73468a9.187,9.187,0,0,0-9.1869,9.187v249.4332c.23474-.127.37891-.19977.37891-.19977v4.17776s-.1419.12634-.37891.31726v1.5581c.45607-.1056.75882-.16621.75882-.16621a6.64207,6.64207,0,0,0,.56966,2.6586c.5696,1.04432,11.20417,2.56349,11.67895,3.51294.44454.88977-4.10929,1.69563-4.6871,1.794.59314-.097,5.39872-.8273,6.11122.86483.75958,1.804-4.17783,2.56349-4.17783,2.56349,2.94346.09511,2.84859,1.61427,2.84859,1.61427-1.23752,3.29988-10.65287,4.89854-13.10231,5.26126v.32262a3.73367,3.73367,0,0,1,1.8669,4.17287c-.19721,1.47883-.99042,1.91918-1.8669,1.9264v49.87349a9.187,9.187,0,0,0,9.1869,9.187H398.32012a9.187,9.187,0,0,0,9.18691-9.187V338.282a40.70767,40.70767,0,0,1-8.941-4.95985C397.723,332.47922,398.98763,330.79269,398.98763,330.79269ZM326.43224,68.25182H264.62245a3.86307,3.86307,0,1,1,0-7.72614h61.80979a3.86307,3.86307,0,1,1,0,7.72614Z"/><path class="cls-7" d="M223.64569,369.17138c4.95181,0,7.97623-2.22366,7.97623-6.00429,0-4.13638-3.75089-5.36691-7.10152-5.90063-3.61747-.48926-5.6486-1.39363-5.6486-3.51369,0-1.66048,1.00814-3.30616,4.65529-3.30616,3.02444,0,4.65526,1.42328,4.65526,3.42473h2.639c0-3.36544-2.52036-5.73754-7.2646-5.73754-5.24831,0-7.30909,2.5945-7.30909,5.60412,0,4.07708,4.09192,5.189,7.45734,5.75238,3.00962.45962,5.26312,1.30466,5.26312,3.67679,0,2.4906-1.89768,3.751-5.33725,3.751-3.321,0-5.278-1.8978-5.278-4.01789h-2.62411C215.72877,365.9544,218.175,369.17138,223.64569,369.17138Z"/><path class="cls-7" d="M244.86905,368.7416h2.89089l-5.69292-9.05855,4.922-6.06374H243.8609l-6.49369,8.05037V347.86693h-2.55V368.7416h2.55v-4.255l2.83165-3.12826Z"/><path class="cls-7" d="M248.44976,373.90082h2.49074c3.27647,0,4.43273-1.31942,6.13773-5.57442l5.96-14.70709-2.71315.01484-4.255,10.68931-.38534,1.31942-.356-1.33423-4.2846-10.68934H248.331l6.00444,14.67749-.16293.43c-.78574,2.06072-1.39372,3.02444-3.21722,3.02444h-2.50556Z"/><path class="cls-7" d="M265.37356,368.7416h2.55V347.83729h-2.55Z"/><path class="cls-7" d="M273.77258,350.669a1.62654,1.62654,0,1,0-1.71982-1.63081A1.6265,1.6265,0,0,0,273.77258,350.669ZM272.5124,368.7416h2.55V353.61931h-2.55Z"/><path class="cls-7" d="M286.27847,374.43451c5.29275,0,7.84275-3.51369,7.84275-7.724V353.61931h-2.44631v3.24686a6.40912,6.40912,0,0,0-5.945-3.662,7.50465,7.50465,0,0,0-7.35373,7.69454A7.40517,7.40517,0,0,0,285.804,368.46a6.23153,6.23153,0,0,0,5.87088-3.54332v1.86794c0,2.81683-1.46754,5.47073-5.39644,5.47073-3.29129,0-4.55146-1.60132-4.848-3.42482h-2.41669C279.177,371.58806,281.19331,374.43451,286.27847,374.43451Zm-.02962-8.22808a5.26243,5.26243,0,0,1-5.33712-5.18661q-.00084-.06054-.00032-.12108a5.24758,5.24758,0,0,1,5.35225-5.30759,5.30769,5.30769,0,0,1,.02847,10.61535q-.02164.00007-.04328-.00006Z"/><path class="cls-7" d="M298.71008,368.7416h2.55V360.795a4.99334,4.99334,0,0,1,4.8183-5.21865c2.62428,0,4.22537,1.52705,4.22537,5.01111v8.15418h2.55v-8.19867c0-4.83318-2.10515-7.35356-6.12293-7.35356a5.90689,5.90689,0,0,0-5.51517,3.30615l.04446-1.616v-7.0126h-2.55Z"/><path class="cls-7" d="M322.6909,368.7416h2.78744V366.577H323.195c-1.349,0-2.71292-.50408-2.71292-3.32093v-7.398h4.99627v-2.23871H320.482v-4.507l-2.55024.01481v4.49219h-3.36534v2.2387h3.36534v7.27943C317.93183,367.852,320.393,368.7416,322.6909,368.7416Z"/><path class="cls-9" d="M330.10974,349.89206a10.00451,10.00451,0,0,1,10.00436-10.00462h.00023v4.66883a5.33581,5.33581,0,0,0-5.33578,5.33579Z"/><path class="cls-10" d="M340.1143,359.89668a10.00449,10.00449,0,0,1-10.00459-10.00438v-.00021l4.66878,0a5.33586,5.33586,0,0,0,5.33579,5.33581Z"/><path class="cls-11" d="M350.11887,349.89209a10.00464,10.00464,0,0,1-10.00457,10.00459v-4.6688a5.33582,5.33582,0,0,0,5.33576-5.3358Z"/><path class="cls-12" d="M340.1143,339.88745a10.00466,10.00466,0,0,1,10.00457,10.00463h-4.66881a5.3358,5.3358,0,0,0-5.33576-5.33579Z"/></g></svg>