<svg id="Layer_1" data-name="Layer 1" xmlns="http://www.w3.org/2000/svg" xmlns:xlink="http://www.w3.org/1999/xlink" viewBox="0 0 768.31052 573.43707"><defs><style>.cls-1,.cls-6{fill:none;}.cls-2{clip-path:url(#clip-path);}.cls-3{fill:#80b590;}.cls-4{fill:#2a5d31;}.cls-5{fill:#5f9c70;}.cls-6{stroke:#2a5d31;stroke-miterlimit:10;stroke-width:1.5px;}.cls-7{fill:#428252;}</style><clipPath id="clip-path"><rect class="cls-1" x="-721.73035" y="-0.71238" width="1492.05712" height="574.86184"/></clipPath></defs><g class="cls-2"><polygon class="cls-3" points="51.158 486.564 251.57 330.789 596.061 412.074 533.687 617.909 51.158 486.564"/><path class="cls-4" d="M602.72885,354.74474l-1.18738,7.11719c7.5166,2.38989,26.96472,8.19226,27.58753,4.45471C629.6578,363.14427,613.18442,357.80223,602.72885,354.74474Z"/><path class="cls-5" d="M342.98007,280.80821a6.03156,6.03156,0,0,0-3.22754,11.6233l261.5614,70.79455.22754-1.36413,1.18738-7.11719.39075-2.34278Z"/><path class="cls-3" d="M394.72641,276.04845l-3.6438,17.76343L635.671,329.33873l.08032-2.968.05054-1.871.04516-1.67077.22193-8.214.05761-2.12879S433.4415,291.9901,394.72641,276.04845Z"/><path class="cls-4" d="M605.99093,358.00682l-1.18738,7.11718c7.5166,2.3899,26.96472,8.19226,27.58752,4.45472C632.91988,366.40635,616.44649,361.06431,605.99093,358.00682Z"/><path class="cls-6" d="M346.24215,284.07029a6.03156,6.03156,0,0,0-3.22754,11.62329L604.576,366.48814l.22754-1.36414,1.18738-7.11718.39074-2.34278Z"/><path class="cls-4" d="M650.20357,317.29429l-3.47241,12.15344a206.06777,206.06777,0,0,0,23.62952,2.69751c21.86267,1.36646,26.41736-12.75317,26.41736-12.75317C671.132,316.87327,657.461,316.7722,650.20357,317.29429Z"/><polygon class="cls-4" points="639.331 317.877 639.109 326.091 639.064 327.762 639.013 329.633 646.221 331.234 646.731 329.448 650.204 317.294 650.775 315.293 639.331 317.877"/><path class="cls-6" d="M397.98849,279.31053l-3.6438,17.76342,244.58838,35.52686.08032-2.968.05054-1.871.04516-1.67078.22193-8.214.05761-2.12879S436.70357,295.25218,397.98849,279.31053Z"/><polygon class="cls-6" points="47.444 481.612 247.856 325.837 592.347 407.123 529.973 612.958 47.444 481.612"/><path class="cls-3" d="M563.14519,600.11888,175.28655,435.977a3.2141,3.2141,0,0,1-1.84265-3.9165s-1.98028,9.3815,10.22436,14.06738L572.74737,614.11119A23.41169,23.41169,0,0,0,604.70586,598.115l44.478-183.03406-.01367.00049L607.73308,577.82688A32.94982,32.94982,0,0,1,563.14519,600.11888Z"/><polygon class="cls-5" points="354.867 340.987 205.105 430.931 199.702 434.175 573.345 588.447 636.406 415.537 642.455 398.951 354.867 340.987"/><path class="cls-6" d="M563.99349,600.11888,176.13485,435.977a3.2141,3.2141,0,0,1-1.84265-3.9165s-1.98029,9.3815,10.22436,14.06738l389.0791,167.98328a23.4117,23.4117,0,0,0,31.9585-15.99622l44.478-183.03406-.01367.00049L608.58138,577.82688A32.94982,32.94982,0,0,1,563.99349,600.11888Z"/><path class="cls-4" d="M647.27047,393.52854l-288.39624-58.8872a36.47541,36.47541,0,0,0-25.24072,3.9812l-157.8462,91.57165a3.15942,3.15942,0,0,0-1.49511,1.86634,3.2141,3.2141,0,0,0,1.84265,3.9165L563.99349,600.11888a32.94982,32.94982,0,0,0,44.58789-22.292L650.01852,415.0814l3.10913-12.21118A7.61644,7.61644,0,0,0,647.27047,393.52854ZM574.193,588.44725,200.55074,434.17491l5.4021-3.24427,149.762-89.94336,287.58863,57.96363L637.25436,415.537Z"/><polygon class="cls-6" points="355.715 340.987 205.953 430.931 200.551 434.175 574.193 588.447 637.254 415.537 643.303 398.951 355.715 340.987"/><path class="cls-4" d="M279.66622,249.4741c.26148-.02026.5188-.01733.77759-.02161V234.47776a9.58879,9.58879,0,0,0-10.7313-9.52048l-15.66263,1.72016a9.09925,9.09925,0,0,0-8.10353,8.931c-.09544,7.29293-.02217,16.88405,1.02663,16.79024Z"/><path class="cls-6" d="M296.653,296.98728l-3.44055-36.12548a12.613,12.613,0,0,0-12.76868-11.40931c-.25879.00428-.51611.00135-.77759.02161L246.973,252.39866a18.49715,18.49715,0,0,0-15.90271,12.57642l-9.13549,27.881c-1.01392,3.09436,1.40525,9.59945,4.64854,9.88913l53.57863,1.539a23.38078,23.38078,0,0,0,10.21948-1.24316l3.13367-1.11915A4.76065,4.76065,0,0,0,296.653,296.98728Z"/><path class="cls-4" d="M280.93747,248.38994c.26147-.02026.5188-.01733.77759-.02161V233.3936a9.58879,9.58879,0,0,0-10.7313-9.52048l-15.66263,1.72016a9.09925,9.09925,0,0,0-8.10353,8.931c-.09544,7.29293-.02218,16.88405,1.02663,16.79024Z"/><path class="cls-4" d="M297.92429,295.90312l-3.44056-36.12548a12.613,12.613,0,0,0-12.76867-11.40931c-.25879.00428-.51612.00135-.77759.02161l-32.69324,2.92456a18.49715,18.49715,0,0,0-15.90271,12.57642l-9.1355,27.881c-1.01391,3.09436,1.40526,9.59945,4.64855,9.88912L281.4332,303.2a23.38063,23.38063,0,0,0,10.21948-1.24317l3.13367-1.11914A4.76065,4.76065,0,0,0,297.92429,295.90312Z"/><path class="cls-3" d="M274.68814,255.01465l-32.80875,3.07582a4.52764,4.52764,0,0,0-3.90954,3.19179l-7.49031,24.6556a4.52765,4.52765,0,0,0,4.44531,5.84234l40.29906-1.00748a4.52765,4.52765,0,0,0,4.4145-4.52624V259.52253A4.52765,4.52765,0,0,0,274.68814,255.01465Z"/><path class="cls-6" d="M243.57711,346.50419s-5.94783,16.1441-12.3205,17.84348-9.34658,9.77143-20.81739,17.84348-50.13168,26.34037-52.68074,40.36024-43.33416,27.61491-40.7851,44.6087"/><path class="cls-6" d="M288.1858,404.70792s-12.32049-2.54907,25.49068,10.19627,28.03976,42.05962,54.38013,43.759,71.79875-21.24223,82.41987-13.595,58.62857-4.67329,62.02733-18.69316"/><path class="cls-7" d="M428.36445,483.56445,462.947,466.619a2.30527,2.30527,0,0,1,3.31745,2.17024l-1.38331,31.81592a2.30527,2.30527,0,0,1-3.24544,2.00373l-33.19922-14.87049A2.30527,2.30527,0,0,1,428.36445,483.56445Z"/><path class="cls-7" d="M568.61375,454.62745c-7.60121-4.44534-26.55885-15.9165-33.39624-20.05918a3.46308,3.46308,0,0,0-4.42386.70882l-23.92425,27.8521a3.46811,3.46811,0,0,0,.78754,5.19749L544.69782,491.568a3.4681,3.4681,0,0,0,4.7442-1.03709l20.31789-31.01151A3.46567,3.46567,0,0,0,568.61375,454.62745Z"/><line class="cls-6" x1="383.20455" y1="257.36582" x2="380.07697" y2="252.08184"/><path class="cls-6" d="M419.87541,240.84105s-.3038,13.06362-27.34244,9.11415"/><path class="cls-6" d="M380.077,237.803s20.65873,10.02557,20.65873,5.7723-20.65873-6.37991-20.35493-12.75981"/><line class="cls-6" x1="413.3077" y1="290.38938" x2="413.79931" y2="279.42428"/><path class="cls-6" d="M276.86286,253.92729l-32.80876,3.07582a4.52764,4.52764,0,0,0-3.90953,3.19179l-7.49031,24.6556a4.52765,4.52765,0,0,0,4.44531,5.84234l40.29906-1.00748a4.52765,4.52765,0,0,0,4.4145-4.52624V258.43517A4.52765,4.52765,0,0,0,276.86286,253.92729Z"/><path class="cls-5" d="M406.02449,285.07352l1.19335,1.41406-.46435-6.75025S406.48994,281.721,406.02449,285.07352Z"/><path class="cls-5" d="M411.90376,292.03921l3.28979,3.89783c-1.13672-3.396-2.00915-6.54565-2.00915-6.54565A2.3888,2.3888,0,0,1,411.90376,292.03921Z"/><path class="cls-5" d="M420.82246,273.89065s-1.26025-.001-2.92017-.07727c-.53222,5.04761-.22485,14.90418-.22485,14.90418.53442,3.74133,4.46,10.87378,6.06177,13.66553a.2787.2787,0,0,1-.41065.35937l-3.17993-2.34326a10.07819,10.07819,0,0,1,.29517,1.75818l11.44946,13.56518c1.01575-16.06994,2.4624-32.26513,2.63293-43.62927.20118-13.40954-1.64477-21.15015-1.64477-21.15015-.16785.1344-.33716.25977-.50562.39039a44.52672,44.52672,0,0,1-2.79187,5.70825C427.33735,260.18692,420.82246,273.89065,420.82246,273.89065Z"/><path class="cls-5" d="M371.298,393.084c-4.25366,6.99707-10.1809,10.53418-11.1311,13.57483-1.12329,3.59436,12.35571,6.06555,14.82691,4.493,2.47119-1.57263,6.06567-3.59448,8.53674-6.7395,1.807-2.29992-.46643-7.83105-1.82092-10.64453l-.0177.07935S374.857,396.11624,371.298,393.084Z"/><path class="cls-5" d="M373.22212,268.34842l-.06177.19116c6.93188,20.79565-2.666,123.70789-2.666,123.70789a5.19879,5.19879,0,0,0,.80371.83654c3.559,3.03223,10.39393.76319,10.39393.76319l.0177-.07935c.29126-1.29407,4.458-19.594,10.11352-32.44726,3.56128-8.09375,8.30152-36.43164,11.47656-57.449Z"/><path class="cls-5" d="M415.20625,402.61514l-.02722-.39612c-1.42371,3.03894-3.32544,7.77442-2.444,9.83142,1.3479,3.14515,3.59448.22461,8.0874,4.26832,4.493,4.0437,15.27624,5.3916,17.972.44934,2.69581-4.94239-7.86267-7.8628-9.88464-11.23255-.63574-1.05969-1.44934-2.56408-2.26611-4.12829C422.58821,403.778,415.20625,402.61514,415.20625,402.61514Z"/><path class="cls-5" d="M408.86592,310.44534,415.179,402.219l.02722.39612s7.382,1.16284,11.4375-1.20788a6.16671,6.16671,0,0,0,.90552-.62818c1.69653-1.4541,2.11523-30.78613,3.34558-64.3164Z"/><path class="cls-5" d="M409.874,271.92142a2.84384,2.84384,0,0,1-.00171-.78235,3.0826,3.0826,0,0,1,.08911-.57776c.70508-3.58,4.408-10.95593,4.7649-11.66162a46.5442,46.5442,0,0,1-17.36573-.93042,64.16559,64.16559,0,0,1-13.70129-4.97779,7.60857,7.60857,0,0,1,.7699,1.57911c.67407,2.24658-2.6958-.67383-1.3479,1.79724a4.02406,4.02406,0,0,1,.188.41943,9.49085,9.49085,0,0,1,.48852,1.90515l22.26673,26.38111c.46545-3.35254.729-5.33619.729-5.33619l.46435,6.75025,1.40564,1.6654c.17041-.94726.3888-1.87439.51722-2.58068.44934-2.47107-2.24646-5.84083,0-8.98584C410.29072,274.97635,409.95356,273.32352,409.874,271.92142Z"/><path class="cls-5" d="M409.87226,271.13907a2.84384,2.84384,0,0,0,.00171.78235A6.39236,6.39236,0,0,1,409.87226,271.13907Z"/><path class="cls-5" d="M427.562,151.45621c-8.53662.22473-8.0874,12.58044-10.33386,15.72546-2.24646,3.14526-2.92053,4.71777-6.29016,4.71777,0,0-.44934,9.43531,4.0437,9.2107,0,0-7.41358,3.59424-9.65991-.22473-2.24659-3.819-4.49317-6.29017-3.8191-9.88465.4712-2.51367,1.59656-4.36987,1.31165-6.64087a33.93136,33.93136,0,0,1-3.47009,1.08618c-.84534,3.29956-4.99683,21.7876,6.65136,26.89649,10.742,4.71142,15.31812,1.041,19.82959-7.82227.86646-1.70239-.50964-13.07019-.50964-13.07019l4.68789.16472c4.0437-.22473,10.58836-9.37529,12.61021-13.41911,2.02185-4.0437,2.6958-18.87061,2.6958-18.87061S436.0987,151.2316,427.562,151.45621Z"/><path class="cls-5" d="M441.041,126.52005c-4.26831-5.61621-15.05151-5.84082-19.76916-1.12329-4.71765,4.71777-12.805,19.99389-17.74744,25.16089-4.94214,5.167-4.71753,6.51489-2.02173,10.55859a7.47085,7.47085,0,0,1,1.31165,3.24365c.28491,2.271-.84045,4.1272-1.31165,6.64087-.67407,3.59448,1.57251,6.06568,3.8191,9.88465,2.24633,3.819,9.65991.22473,9.65991.22473-4.493.22461-4.0437-9.2107-4.0437-9.2107,3.36963,0,4.0437-1.57251,6.29016-4.71777,2.24646-3.145,1.79724-15.50073,10.33386-15.72546,8.53674-.22461,17.74744-12.13111,17.74744-12.13111s-.67395,14.82691-2.6958,18.87061c-2.02185,4.04382-8.56651,13.19438-12.61021,13.41911l-4.68789-.16472s1.3761,11.3678.50964,13.07019l.83826,1.98145a20.03154,20.03154,0,0,0,6.15955-.47937,30.73582,30.73582,0,0,0,10.854-5.11829,27.8194,27.8194,0,0,0,2.531-2.04053s-3.81909,0-6.06555-6.51489,7.18884-12.805,8.76135-22.68969C450.47627,139.77444,445.3094,132.13626,441.041,126.52005Z"/><path class="cls-5" d="M365.47138,259.19437l-1.01-1.19288A4.26671,4.26671,0,0,0,365.47138,259.19437Z"/><path class="cls-5" d="M409.96137,270.56131a3.0826,3.0826,0,0,0-.08911.57776C409.89179,270.95975,409.9206,270.7681,409.96137,270.56131Z"/><path class="cls-5" d="M361.57148,245.09964a6.55119,6.55119,0,0,1-1.40454-.86292s-3.62134-10.9508-6.03186-20.64074l-26.5863-31.499a7.20894,7.20894,0,0,0-10.43189-.50073h0a7.209,7.209,0,0,0-.41662,9.99707l47.7611,56.4082C362.66621,255.086,361.38191,248.66421,361.57148,245.09964Z"/><path class="cls-5" d="M510.55244,419.13235l-7.27918-18.84008-71.38-84.56971L420.4438,302.15738c.07031,1.0592-.10205,2.18225-1.19385,2.06091-1.08289-.12036-2.74536-4.36474-4.0564-8.28125l-3.28979-3.89783a4.81366,4.81366,0,0,1-1.41516.49732c-2.40686.48132-2.29065-2.016-1.86512-4.38355l-1.40564-1.6654-1.19335-1.41406-22.26673-26.38111a33.00577,33.00577,0,0,1-.00244,9.58191c-.44946,1.57263-2.92053-1.79724-2.92053-4.94226,0-1.83289-2.13318-4.499-3.9159-6.40967-1.27636-1.36816-2.37426-2.3518-2.37426-2.3518s.93225,2.33654,1.60913,4.71655a11.34547,11.34547,0,0,1,.63733,4.26953c-.24475,1.22388-1.1554.5791-1.93445-.26a14.24343,14.24343,0,0,1-1.21069-1.53711,16.03827,16.03827,0,0,1-3.59437.89844c-1.12329,0-.89855-2.92041-3.81909-3.145a1.47927,1.47927,0,0,1-.76111-.3186l7.75074,9.154,30.07763,35.52319,5.56617,6.57373,22.02893,26.01734,60.91809,71.94726L509.4477,420.0231A.745.745,0,0,0,510.55244,419.13235Z"/><path class="cls-5" d="M449.57771,187.84964c-.32117-2.35462-3.08972-4.91187-5.90076-6.94556a30.73582,30.73582,0,0,1-10.854,5.11829,20.03154,20.03154,0,0,1-6.15955.47937l-.83826-1.98145c-4.51147,8.86328-9.08764,12.53369-19.82959,7.82227-11.64819-5.10889-7.4967-23.59693-6.65136-26.89649.084-.32763.13647-.51074.13647-.51074s-6.29,1.3479-13.92822,2.6958-8.98608,9.43531-13.92835,15.95008c-4.56408,6.01648-17.298,21.34167-19.31994,26.05944-.79761,1.86133.26025,7.64136,1.83093,13.95533,2.41052,9.68994,6.03186,20.64074,6.03186,20.64074a6.55119,6.55119,0,0,0,1.40454.86292,7.64282,7.64282,0,0,1,.168-1.31226c.45484-1.93286,3.03833-3.51831,5.56714-4.58593a16.73611,16.73611,0,0,1,5.21606-1.4795s.35181.24585.88086.7085a13.89954,13.89954,0,0,0,.24244-2.28113s-7.41346-16.1748-5.61622-18.64587c1.79712-2.47119,13.02979-16.62427,13.02979-16.62427a140.26026,140.26026,0,0,1-.67407,26.95813,139.75241,139.75241,0,0,0-.90076,19.12415c1.48718,2.14892,3.18164,4.374,4.17456,6.03a64.16559,64.16559,0,0,0,13.70129,4.97779,46.5442,46.5442,0,0,0,17.36573.93042c-.35694.70569-4.05982,8.08166-4.7649,11.66162a2.00543,2.00543,0,0,1,.52723-.93909c1.57263-1.57263,7.86267,1.79724,7.86267,1.79724a10.64234,10.64234,0,0,0-.449,2.39392c1.65992.0763,2.92017.07727,2.92017.07727s6.51489-13.70373,8.76147-16.84887a44.52672,44.52672,0,0,0,2.79187-5.70825c4.07141-9.30665,10.67347-26.61268,11.361-30.90967.56909-3.55615,2.6958-9.65991,5.3916-16.62415S450.25166,192.79178,449.57771,187.84964Z"/><path class="cls-5" d="M384.42915,254.57059a7.60857,7.60857,0,0,0-.7699-1.57911c-.99292-1.656-2.68738-3.8811-4.17456-6.03a31.82233,31.82233,0,0,1-2.24426-3.6233,16.49627,16.49627,0,0,0-3.83692-4.90771c-.529-.46265-.88086-.7085-.88086-.7085a16.73611,16.73611,0,0,0-5.21606,1.4795c-2.52881,1.06762-5.1123,2.65307-5.56714,4.58593a7.64282,7.64282,0,0,0-.168,1.31226c-.18957,3.56457,1.09473,9.98633,2.88989,12.90185l1.01,1.19288a1.47927,1.47927,0,0,0,.76111.3186c2.92054.22461,2.6958,3.145,3.81909,3.145a16.03827,16.03827,0,0,0,3.59437-.89844,14.24343,14.24343,0,0,0,1.21069,1.53711c.779.83911,1.6897,1.48389,1.93445.26a11.34547,11.34547,0,0,0-.63733-4.26953c-.67688-2.38-1.60913-4.71655-1.60913-4.71655s1.0979.98364,2.37426,2.3518c1.78272,1.91065,3.9159,4.57678,3.9159,6.40967,0,3.145,2.47107,6.51489,2.92053,4.94226a33.00577,33.00577,0,0,0,.00244-9.58191,9.49085,9.49085,0,0,0-.48852-1.90515,4.02406,4.02406,0,0,0-.188-.41943C381.73335,253.89676,385.10322,256.81717,384.42915,254.57059Z"/><path class="cls-5" d="M423.73921,302.38309c-1.60181-2.79175-5.52735-9.9242-6.06177-13.66553,0,0-.30737-9.85657.22485-14.90418a10.64234,10.64234,0,0,1,.449-2.39392s-6.29-3.36987-7.86267-1.79724a2.00543,2.00543,0,0,0-.52723.93909c-.04077.20679-.06958.39844-.08911.57776a6.39236,6.39236,0,0,0,.00171.78235c.07959,1.4021.41675,3.05493-.73327,4.665-2.24646,3.145.44934,6.51477,0,8.98584-.12842.70629-.34681,1.63342-.51722,2.58068-.42553,2.36756-.54174,4.86487,1.86512,4.38355a4.81366,4.81366,0,0,0,1.41516-.49732,2.3888,2.3888,0,0,0,1.28064-2.64782s.87243,3.14966,2.00915,6.54565c1.311,3.91651,2.97351,8.16089,4.0564,8.28125,1.0918.12134,1.26416-1.00171,1.19385-2.06091a10.07819,10.07819,0,0,0-.29517-1.75818l3.17993,2.34326A.2787.2787,0,0,0,423.73921,302.38309Z"/><path class="cls-6" d="M404.14779,287.07151l1.19336,1.41407-.46436-6.75025S404.61324,283.719,404.14779,287.07151Z"/><path class="cls-6" d="M410.02706,294.03721l3.28979,3.89783c-1.13671-3.396-2.00915-6.54566-2.00915-6.54566A2.38881,2.38881,0,0,1,410.02706,294.03721Z"/><path class="cls-7" d="M418.94576,275.88865s-1.26025-.001-2.92017-.07727c-.53222,5.04761-.22485,14.90418-.22485,14.90418.53442,3.74133,4.46,10.87378,6.06177,13.66552a.2787.2787,0,0,1-.41065.35938l-3.17993-2.34326a10.078,10.078,0,0,1,.29517,1.75818l11.44946,13.56518c1.01575-16.06994,2.4624-32.26514,2.63294-43.62927.20117-13.40955-1.64478-21.15015-1.64478-21.15015-.16785.1344-.33716.25977-.50562.39038a44.52638,44.52638,0,0,1-2.79187,5.70826C425.46065,262.18492,418.94576,275.88865,418.94576,275.88865Z"/><path class="cls-4" d="M369.42135,395.082c-4.25367,6.99707-10.18091,10.53418-11.13111,13.57483-1.12329,3.59436,12.35572,6.06555,14.82691,4.493,2.47119-1.57263,6.06567-3.59448,8.53674-6.7395,1.807-2.29993-.46643-7.831-1.82092-10.64453l-.0177.07935S372.98031,398.11424,369.42135,395.082Z"/><path class="cls-7" d="M371.34542,270.34642l-.06177.19116c6.93189,20.79565-2.666,123.70788-2.666,123.70788a5.198,5.198,0,0,0,.80371.83655c3.559,3.03223,10.39392.76319,10.39392.76319l.0177-.07935c.29126-1.29407,4.458-19.594,10.11352-32.44727,3.56128-8.09375,8.30152-36.43164,11.47657-57.449Z"/><path class="cls-4" d="M413.32955,404.61314l-.02722-.39612c-1.42371,3.03894-3.32544,7.77442-2.444,9.83142,1.3479,3.14514,3.59448.22461,8.0874,4.26831,4.493,4.0437,15.27625,5.3916,17.972.44934,2.6958-4.94238-7.86267-7.86279-9.88465-11.23254-.63574-1.05969-1.44934-2.56409-2.26611-4.1283C420.71151,405.776,413.32955,404.61314,413.32955,404.61314Z"/><path class="cls-7" d="M406.98922,312.44334l6.31311,91.77368.02722.39612s7.382,1.16284,11.4375-1.20789a6.16589,6.16589,0,0,0,.90552-.62817c1.69653-1.4541,2.11523-30.78613,3.34558-64.31641Z"/><path class="cls-7" d="M407.99727,273.91941a2.84376,2.84376,0,0,1-.00171-.78234,3.08178,3.08178,0,0,1,.08912-.57776c.70507-3.58,4.408-10.95594,4.76489-11.66162a46.54414,46.54414,0,0,1-17.36572-.93042,64.16679,64.16679,0,0,1-13.7013-4.97779,7.60877,7.60877,0,0,1,.7699,1.5791c.67407,2.24659-2.6958-.67382-1.3479,1.79725a4.02406,4.02406,0,0,1,.188.41943,9.49068,9.49068,0,0,1,.48852,1.90515l22.26673,26.3811c.46545-3.35254.729-5.33618.729-5.33618l.46436,6.75025,1.40564,1.6654c.17041-.94726.38879-1.87439.51721-2.58069.44934-2.47107-2.24646-5.84082,0-8.98584C408.414,276.97435,408.07686,275.32151,407.99727,273.91941Z"/><path class="cls-6" d="M407.99556,273.13707a2.84376,2.84376,0,0,0,.00171.78234A6.39219,6.39219,0,0,1,407.99556,273.13707Z"/><path class="cls-7" d="M425.68526,153.4542c-8.53662.22474-8.0874,12.58045-10.33386,15.72547-2.24646,3.14526-2.92053,4.71777-6.29016,4.71777,0,0-.44934,9.4353,4.0437,9.21069,0,0-7.41357,3.59424-9.65991-.22473-2.24658-3.819-4.49317-6.29016-3.81909-9.88464.47119-2.51367,1.59655-4.36987,1.31164-6.64087a33.93308,33.93308,0,0,1-3.47009,1.08618c-.84534,3.29956-4.99683,21.7876,6.65137,26.89649,10.74194,4.71142,15.31811,1.041,19.82959-7.82227.86645-1.70239-.50965-13.07019-.50965-13.07019l4.6879.16472c4.0437-.22473,10.58835-9.37529,12.6102-13.41911,2.02185-4.04371,2.6958-18.87061,2.6958-18.87061S434.222,153.22959,425.68526,153.4542Z"/><path class="cls-6" d="M363.59469,261.19236l-1.01-1.19287A4.26632,4.26632,0,0,0,363.59469,261.19236Z"/><path class="cls-6" d="M408.08468,272.55931a3.08178,3.08178,0,0,0-.08912.57776C408.0151,272.95774,408.0439,272.76609,408.08468,272.55931Z"/><path class="cls-3" d="M359.69478,247.09764a6.55119,6.55119,0,0,1-1.40454-.86292s-3.62134-10.9508-6.03186-20.64075l-26.5863-31.499a7.20894,7.20894,0,0,0-10.43189-.50073h0a7.209,7.209,0,0,0-.41662,9.99707l47.76111,56.4082C360.78951,257.084,359.50521,250.66221,359.69478,247.09764Z"/><path class="cls-3" d="M508.67574,421.13035l-7.27917-18.84009-71.38-84.5697L418.5671,304.15538c.07031,1.0592-.102,2.18225-1.19385,2.06091-1.08289-.12036-2.74536-4.36475-4.0564-8.28125l-3.28979-3.89783a4.81384,4.81384,0,0,1-1.41516.49732c-2.40686.48132-2.29065-2.016-1.86511-4.38355l-1.40564-1.6654-1.19336-1.41407-22.26673-26.3811a33.00577,33.00577,0,0,1-.00244,9.58191c-.44946,1.57263-2.92053-1.79724-2.92053-4.94226,0-1.83289-2.13318-4.499-3.91589-6.40967-1.27637-1.36816-2.37427-2.35181-2.37427-2.35181s.93225,2.33655,1.60913,4.71656a11.34547,11.34547,0,0,1,.63733,4.26953c-.24475,1.22388-1.1554.5791-1.93445-.26a14.24343,14.24343,0,0,1-1.21069-1.53711,16.03814,16.03814,0,0,1-3.59436.89844c-1.12329,0-.89856-2.92041-3.8191-3.145a1.47914,1.47914,0,0,1-.7611-.31861l7.75073,9.15406,30.07764,35.52319,5.56616,6.57373,22.02893,26.01733,60.91809,71.94727L507.571,422.0211A.745.745,0,0,0,508.67574,421.13035Z"/><path class="cls-3" d="M447.701,189.84764c-.32117-2.35462-3.08972-4.91187-5.90076-6.94556a30.736,30.736,0,0,1-10.854,5.11829,20.03154,20.03154,0,0,1-6.15955.47937l-.83825-1.98145c-4.51148,8.86328-9.08765,12.53369-19.82959,7.82227-11.6482-5.10889-7.49671-23.59693-6.65137-26.89649.084-.32763.13647-.51074.13647-.51074s-6.29,1.3479-13.92822,2.6958-8.98608,9.4353-13.92834,15.95007c-4.56409,6.01648-17.298,21.34168-19.32,26.05945-.79761,1.86133.26025,7.64136,1.83093,13.95532,2.41052,9.68995,6.03186,20.64075,6.03186,20.64075a6.55119,6.55119,0,0,0,1.40454.86292,7.64282,7.64282,0,0,1,.168-1.31226c.45484-1.93286,3.03833-3.51831,5.56714-4.58594A16.73623,16.73623,0,0,1,370.646,239.72s.3518.24585.88085.7085a13.89964,13.89964,0,0,0,.24244-2.28113s-7.41346-16.17481-5.61621-18.64587c1.79711-2.4712,13.02978-16.62427,13.02978-16.62427a140.26024,140.26024,0,0,1-.67407,26.95813,139.75234,139.75234,0,0,0-.90076,19.12414c1.48718,2.14893,3.18164,4.374,4.17456,6.03a64.16679,64.16679,0,0,0,13.7013,4.97779,46.54414,46.54414,0,0,0,17.36572.93042c-.35693.70568-4.05982,8.08166-4.76489,11.66162a2.00528,2.00528,0,0,1,.52722-.93909c1.57263-1.57263,7.86267,1.79724,7.86267,1.79724a10.64291,10.64291,0,0,0-.449,2.39392c1.65992.0763,2.92017.07727,2.92017.07727s6.51489-13.70373,8.76147-16.84887a44.52638,44.52638,0,0,0,2.79187-5.70826c4.07142-9.30664,10.67347-26.61267,11.361-30.90966.56909-3.55616,2.6958-9.65992,5.3916-16.62415S448.375,194.78978,447.701,189.84764Z"/><path class="cls-7" d="M382.55245,256.56858a7.60877,7.60877,0,0,0-.7699-1.5791c-.99292-1.656-2.68738-3.8811-4.17456-6.03a31.82227,31.82227,0,0,1-2.24426-3.62329,16.49627,16.49627,0,0,0-3.83692-4.90771c-.529-.46265-.88085-.7085-.88085-.7085a16.73623,16.73623,0,0,0-5.21607,1.47949c-2.52881,1.06763-5.1123,2.65308-5.56714,4.58594a7.64282,7.64282,0,0,0-.168,1.31226c-.18957,3.56457,1.09473,9.98632,2.8899,12.90185l1.01,1.19287a1.47914,1.47914,0,0,0,.7611.31861c2.92054.22461,2.69581,3.145,3.8191,3.145a16.03814,16.03814,0,0,0,3.59436-.89844,14.24343,14.24343,0,0,0,1.21069,1.53711c.779.83911,1.6897,1.48389,1.93445.26a11.34547,11.34547,0,0,0-.63733-4.26953c-.67688-2.38-1.60913-4.71656-1.60913-4.71656s1.0979.98365,2.37427,2.35181c1.78271,1.91065,3.91589,4.57678,3.91589,6.40967,0,3.145,2.47107,6.51489,2.92053,4.94226a33.00577,33.00577,0,0,0,.00244-9.58191,9.49068,9.49068,0,0,0-.48852-1.90515,4.02406,4.02406,0,0,0-.188-.41943C379.85665,255.89476,383.22652,258.81517,382.55245,256.56858Z"/><path class="cls-7" d="M421.86251,304.38108c-1.60181-2.79174-5.52735-9.92419-6.06177-13.66552,0,0-.30737-9.85657.22485-14.90418a10.64291,10.64291,0,0,1,.449-2.39392s-6.29-3.36987-7.86267-1.79724a2.00528,2.00528,0,0,0-.52722.93909c-.04078.20678-.06958.39843-.08912.57776a6.39219,6.39219,0,0,0,.00171.78234c.07959,1.4021.41675,3.05494-.73327,4.665-2.24646,3.145.44934,6.51477,0,8.98584-.12842.7063-.3468,1.63343-.51721,2.58069-.42554,2.36756-.54175,4.86487,1.86511,4.38355a4.81384,4.81384,0,0,0,1.41516-.49732,2.38881,2.38881,0,0,0,1.28064-2.64783s.87244,3.14966,2.00915,6.54566c1.311,3.9165,2.97351,8.16089,4.0564,8.28125,1.0918.12134,1.26416-1.00171,1.19385-2.06091a10.078,10.078,0,0,0-.29517-1.75818l3.17993,2.34326A.2787.2787,0,0,0,421.86251,304.38108Z"/><path class="cls-6" d="M377.36373,244.33616a31.8237,31.8237,0,0,0,2.24426,3.62329,139.754,139.754,0,0,1,.90076-19.12414,140.26024,140.26024,0,0,0,.67407-26.95813s-11.23266,14.15307-13.02978,16.62426c-1.79724,2.47107,5.61621,18.64588,5.61621,18.64588a13.9002,13.9002,0,0,1-.24243,2.28113A16.49643,16.49643,0,0,1,377.36373,244.33616Z"/><path class="cls-6" d="M406.14779,286.07151l1.19336,1.41407-.46436-6.75025S406.61324,282.719,406.14779,286.07151Z"/><path class="cls-6" d="M412.02706,293.03721l3.2898,3.89783c-1.13672-3.396-2.00916-6.54566-2.00916-6.54566A2.38881,2.38881,0,0,1,412.02706,293.03721Z"/><path class="cls-6" d="M420.94576,274.88865s-1.26025-.001-2.92016-.07727c-.53223,5.04761-.22486,14.90418-.22486,14.90418.53443,3.74133,4.46,10.87378,6.06177,13.66552a.2787.2787,0,0,1-.41065.35938l-3.17993-2.34326a10.078,10.078,0,0,1,.29517,1.75818l11.44946,13.56518c1.01575-16.07,2.4624-32.26514,2.63294-43.62927.20117-13.40955-1.64478-21.15015-1.64478-21.15015-.16785.1344-.33716.25977-.50561.39038a44.52809,44.52809,0,0,1-2.79187,5.70825C427.46065,261.18492,420.94576,274.88865,420.94576,274.88865Z"/><path class="cls-6" d="M371.42135,394.082c-4.25366,6.99707-10.18091,10.53418-11.13111,13.57483-1.12329,3.59436,12.35572,6.06555,14.82691,4.493,2.47119-1.57263,6.06567-3.59448,8.53674-6.7395,1.807-2.29993-.46643-7.831-1.82092-10.64453l-.0177.07934S374.98031,397.11424,371.42135,394.082Z"/><path class="cls-6" d="M373.34542,269.34642l-.06177.19116c6.93189,20.79565-2.666,123.70788-2.666,123.70788a5.198,5.198,0,0,0,.80371.83655c3.559,3.03223,10.39392.76318,10.39392.76318l.0177-.07934c.29126-1.29407,4.458-19.594,10.11352-32.44727,3.56128-8.09375,8.30152-36.43164,11.47657-57.449Z"/><path class="cls-6" d="M415.32955,403.61314l-.02722-.39612c-1.42371,3.03894-3.32544,7.77442-2.444,9.83142,1.3479,3.14514,3.59448.22461,8.0874,4.26831,4.493,4.0437,15.27625,5.3916,17.972.44934,2.6958-4.94238-7.86267-7.86279-9.88465-11.23254-.63574-1.05969-1.44934-2.56409-2.26611-4.1283C422.71151,404.776,415.32955,403.61314,415.32955,403.61314Z"/><path class="cls-6" d="M408.98922,311.44334l6.31311,91.77368.02722.39612s7.382,1.16284,11.4375-1.20789a6.16589,6.16589,0,0,0,.90552-.62817c1.69653-1.4541,2.11523-30.78613,3.34558-64.31641Z"/><path class="cls-6" d="M409.99728,272.91941a2.843,2.843,0,0,1-.00171-.78235,3.081,3.081,0,0,1,.08911-.57775c.70508-3.58,4.408-10.95594,4.76489-11.66162a46.54414,46.54414,0,0,1-17.36572-.93042,64.16679,64.16679,0,0,1-13.7013-4.97779,7.60853,7.60853,0,0,1,.7699,1.5791c.67407,2.24659-2.6958-.67382-1.3479,1.79724a4.02311,4.02311,0,0,1,.188.41944,9.49,9.49,0,0,1,.48852,1.90515l22.26673,26.3811c.46545-3.35254.729-5.33618.729-5.33618l.46436,6.75025,1.40564,1.6654c.17041-.94726.38879-1.87439.51721-2.58069.44934-2.47107-2.24646-5.84082,0-8.98584C410.414,275.97435,410.07686,274.32151,409.99728,272.91941Z"/><path class="cls-6" d="M409.99557,272.13706a2.843,2.843,0,0,0,.00171.78235A6.38836,6.38836,0,0,1,409.99557,272.13706Z"/><path class="cls-6" d="M427.68526,152.4542c-8.53662.22474-8.0874,12.58045-10.33386,15.72547-2.24646,3.14526-2.92053,4.71777-6.29016,4.71777,0,0-.44934,9.4353,4.0437,9.21069,0,0-7.41357,3.59424-9.65991-.22473-2.24658-3.819-4.49317-6.29016-3.81909-9.88464.47119-2.51367,1.59655-4.36987,1.31164-6.64087a33.93308,33.93308,0,0,1-3.47009,1.08618c-.84534,3.29956-4.99683,21.7876,6.65137,26.89649,10.74194,4.71142,15.31811,1.041,19.82959-7.82227.86645-1.70239-.50965-13.07019-.50965-13.07019l4.6879.16472c4.0437-.22473,10.58835-9.37529,12.6102-13.41911,2.02185-4.04371,2.6958-18.87061,2.6958-18.87061S436.222,152.22959,427.68526,152.4542Z"/><path class="cls-4" d="M441.16427,127.51805c-4.26831-5.61621-15.05152-5.84082-19.76917-1.12329-4.71765,4.71777-12.805,19.99389-17.74743,25.16088-4.94214,5.167-4.71753,6.5149-2.02173,10.5586a7.47077,7.47077,0,0,1,1.31164,3.24365c.28491,2.271-.84045,4.1272-1.31164,6.64087-.67408,3.59448,1.57251,6.06567,3.81909,9.88464,2.24634,3.819,9.65991.22473,9.65991.22473-4.493.22461-4.0437-9.21069-4.0437-9.21069,3.36963,0,4.0437-1.57251,6.29016-4.71777,2.24646-3.145,1.79724-15.50073,10.33386-15.72547,8.53675-.22461,17.74744-12.1311,17.74744-12.1311s-.67395,14.8269-2.6958,18.87061c-2.02185,4.04382-8.5665,13.19438-12.6102,13.41911l-4.6879-.16472s1.3761,11.3678.50965,13.07019l.83825,1.98145a20.03185,20.03185,0,0,0,6.15955-.47937,30.736,30.736,0,0,0,10.854-5.11829,27.8215,27.8215,0,0,0,2.531-2.04053s-3.81909,0-6.06555-6.51489,7.18884-12.80505,8.76135-22.6897C450.59957,140.77244,445.4327,133.13426,441.16427,127.51805Z"/><path class="cls-6" d="M365.59469,260.19236l-1.01-1.19287A4.26632,4.26632,0,0,0,365.59469,260.19236Z"/><path class="cls-6" d="M410.08468,271.55931a3.081,3.081,0,0,0-.08911.57775C410.0151,271.95774,410.04391,271.76609,410.08468,271.55931Z"/><path class="cls-6" d="M361.69478,246.09764a6.55119,6.55119,0,0,1-1.40454-.86292s-3.62133-10.9508-6.03186-20.64075l-26.5863-31.499a7.20893,7.20893,0,0,0-10.43188-.50073h0a7.209,7.209,0,0,0-.41663,9.99707l47.76111,56.4082C362.78951,256.084,361.50521,249.66221,361.69478,246.09764Z"/><path class="cls-6" d="M510.67574,420.13035l-7.27917-18.84009-71.38-84.5697L420.5671,303.15538c.07031,1.0592-.102,2.18225-1.19385,2.06091-1.08288-.12036-2.74536-4.36475-4.05639-8.28125l-3.2898-3.89783a4.81384,4.81384,0,0,1-1.41516.49732c-2.40686.48132-2.29065-2.016-1.86511-4.38355l-1.40564-1.6654-1.19336-1.41407-22.26673-26.3811a33.00577,33.00577,0,0,1-.00244,9.58191c-.44946,1.57263-2.92053-1.79724-2.92053-4.94226,0-1.83289-2.13318-4.499-3.91589-6.40967-1.27637-1.36816-2.37427-2.35181-2.37427-2.35181s.93225,2.33655,1.60913,4.71656a11.34547,11.34547,0,0,1,.63733,4.26953c-.24475,1.22387-1.1554.5791-1.93445-.26a14.24343,14.24343,0,0,1-1.21069-1.53711,16.03814,16.03814,0,0,1-3.59436.89844c-1.12329,0-.89856-2.92041-3.81909-3.145a1.47914,1.47914,0,0,1-.76111-.31861l7.75073,9.15406,30.07764,35.52319,5.56616,6.57373,22.02893,26.01733,60.91809,71.94727L509.571,421.0211A.745.745,0,0,0,510.67574,420.13035Z"/><path class="cls-6" d="M449.701,188.84764c-.32117-2.35462-3.08972-4.91187-5.90076-6.94556a30.736,30.736,0,0,1-10.854,5.11829,20.03185,20.03185,0,0,1-6.15955.47937l-.83825-1.98145c-4.51148,8.86328-9.08765,12.53369-19.82959,7.82227-11.6482-5.10889-7.49671-23.59693-6.65137-26.89649.084-.32763.13647-.51074.13647-.51074s-6.29,1.3479-13.92822,2.6958-8.98608,9.4353-13.92834,15.95007c-4.56409,6.01648-17.298,21.34168-19.32,26.05945-.79761,1.86133.26025,7.64136,1.83093,13.95532,2.41053,9.68995,6.03186,20.64075,6.03186,20.64075a6.55119,6.55119,0,0,0,1.40454.86292,7.64381,7.64381,0,0,1,.168-1.31226c.45484-1.93286,3.03833-3.51831,5.56714-4.58594A16.736,16.736,0,0,1,372.646,238.72s.3518.24585.88086.7085a13.9002,13.9002,0,0,0,.24243-2.28113s-7.41345-16.17481-5.61621-18.64588c1.79712-2.47119,13.02978-16.62426,13.02978-16.62426a140.26024,140.26024,0,0,1-.67407,26.95813,139.754,139.754,0,0,0-.90076,19.12414c1.48719,2.14893,3.18164,4.374,4.17456,6.03a64.16679,64.16679,0,0,0,13.7013,4.97779,46.54414,46.54414,0,0,0,17.36572.93042c-.35693.70568-4.05981,8.08166-4.76489,11.66162a2.00536,2.00536,0,0,1,.52722-.93909c1.57263-1.57263,7.86267,1.79724,7.86267,1.79724a10.64245,10.64245,0,0,0-.449,2.39392c1.65991.0763,2.92016.07727,2.92016.07727s6.51489-13.70373,8.76148-16.84888a44.52809,44.52809,0,0,0,2.79187-5.70825c4.07141-9.30664,10.67346-26.61267,11.361-30.90967.56909-3.55615,2.6958-9.65991,5.3916-16.62414S450.375,193.78977,449.701,188.84764Z"/><path class="cls-6" d="M384.55245,255.56858a7.60853,7.60853,0,0,0-.7699-1.5791c-.99292-1.656-2.68737-3.8811-4.17456-6.03a31.8237,31.8237,0,0,1-2.24426-3.62329,16.49643,16.49643,0,0,0-3.83691-4.90771c-.52906-.46265-.88086-.7085-.88086-.7085a16.736,16.736,0,0,0-5.21607,1.47949c-2.52881,1.06763-5.1123,2.65308-5.56714,4.58594a7.64381,7.64381,0,0,0-.168,1.31226c-.18957,3.56457,1.09473,9.98632,2.8899,12.90185l1.01,1.19287a1.47914,1.47914,0,0,0,.76111.31861c2.92053.22461,2.6958,3.145,3.81909,3.145a16.03814,16.03814,0,0,0,3.59436-.89844,14.24343,14.24343,0,0,0,1.21069,1.53711c.779.83911,1.6897,1.48388,1.93445.26a11.34547,11.34547,0,0,0-.63733-4.26953c-.67688-2.38-1.60913-4.71656-1.60913-4.71656s1.0979.98365,2.37427,2.35181c1.78271,1.91064,3.91589,4.57678,3.91589,6.40967,0,3.145,2.47107,6.51489,2.92053,4.94226a33.00577,33.00577,0,0,0,.00244-9.58191,9.49,9.49,0,0,0-.48852-1.90515,4.02311,4.02311,0,0,0-.188-.41944C381.85665,254.89476,385.22652,257.81517,384.55245,255.56858Z"/><path class="cls-6" d="M423.86251,303.38108c-1.60181-2.79174-5.52734-9.92419-6.06177-13.66552,0,0-.30737-9.85657.22486-14.90418a10.64245,10.64245,0,0,1,.449-2.39392s-6.29-3.36987-7.86267-1.79724a2.00536,2.00536,0,0,0-.52722.93909c-.04077.20678-.06958.39843-.08911.57775a6.38836,6.38836,0,0,0,.00171.78235c.07958,1.4021.41674,3.05494-.73328,4.665-2.24646,3.145.44934,6.51477,0,8.98584-.12842.7063-.3468,1.63343-.51721,2.58069-.42554,2.36755-.54175,4.86487,1.86511,4.38355a4.81384,4.81384,0,0,0,1.41516-.49732,2.38881,2.38881,0,0,0,1.28064-2.64783s.87244,3.14966,2.00916,6.54566c1.311,3.9165,2.97351,8.16089,4.05639,8.28125,1.0918.12134,1.26416-1.00171,1.19385-2.06091a10.078,10.078,0,0,0-.29517-1.75818l3.17993,2.34326A.2787.2787,0,0,0,423.86251,303.38108Z"/><path class="cls-6" d="M414.84957,259.89769s3.1337-1.0499,3.1337-10.66121,8.54338-15.48489,8.54338-22.96036,11.2132-16.55281,9.07735-25.0962"/><line class="cls-6" x1="425.4388" y1="172.4481" x2="421.61173" y2="170.2979"/><path class="cls-6" d="M437.8603,154.04933l-.43642,6.32815a1.54952,1.54952,0,0,1-1.63179,1.44052l-3.348-.186"/><path class="cls-6" d="M433.52735,166.77738s-5.14538,1.89567-6.77024-2.7081"/><circle class="cls-4" cx="431.97388" cy="153.43632" r="0.99489"/><circle class="cls-4" cx="440.75885" cy="154.69532" r="0.99489"/><path class="cls-6" d="M426.00292,481.9901l34.58252-16.94544a2.30527,2.30527,0,0,1,3.31744,2.17025l-1.3833,31.81592a2.30527,2.30527,0,0,1-3.24545,2.00372l-33.19922-14.87048A2.30527,2.30527,0,0,1,426.00292,481.9901Z"/><path class="cls-6" d="M566.25222,453.0531c-7.60121-4.44534-26.55885-15.91651-33.39624-20.05919a3.46309,3.46309,0,0,0-4.42386.70882l-23.92425,27.85211a3.4681,3.4681,0,0,0,.78754,5.19749l37.04088,23.24134a3.4681,3.4681,0,0,0,4.7442-1.03709l20.31789-31.01151A3.46567,3.46567,0,0,0,566.25222,453.0531Z"/><ellipse class="cls-6" cx="298.5945" cy="436.99611" rx="25.7031" ry="16.99379"/><ellipse class="cls-7" cx="300.95603" cy="438.57047" rx="25.7031" ry="16.99379"/></g></svg>