<svg id="Layer_1" data-name="Layer 1" xmlns="http://www.w3.org/2000/svg" viewBox="0 0 689.85044 559.2683"><defs><style>.cls-1,.cls-3,.cls-9{fill:none;stroke-miterlimit:10;stroke-width:1.71611px;}.cls-1{stroke:#6da5c8;}.cls-2{fill:#468fba;}.cls-3,.cls-9{stroke:#20274d;}.cls-4{fill:#20274d;}.cls-10,.cls-5{fill:#1d5493;}.cls-5,.cls-6,.cls-7,.cls-8,.cls-9{fill-rule:evenodd;}.cls-6{fill:#488fba;}.cls-11,.cls-7{fill:#6ca5c8;}.cls-13,.cls-8{fill:#b5d2e3;}.cls-12{fill:#91bcd6;}</style></defs><circle class="cls-1" cx="454.68329" cy="99.14142" r="42.11748"/><path class="cls-1" d="M153.98981,142.04624l40.996-36.22732a2.6782,2.6782,0,0,1,3.79173.24765l36.22727,40.996a2.67826,2.67826,0,0,1-.24761,3.79177l-40.996,36.22733a2.6782,2.6782,0,0,1-3.79173-.24765l-36.18971-41A2.67618,2.67618,0,0,1,153.98981,142.04624Z"/><path class="cls-1" d="M533.64828,24.96881l33.12115,20.134a1.89745,1.89745,0,0,1,.62854,2.6177L547.264,80.84159a1.8975,1.8975,0,0,1-2.61772.62857l-33.12116-20.134a1.89745,1.89745,0,0,1-.62854-2.6177L531.04112,25.622A1.896,1.896,0,0,1,533.64828,24.96881Z"/><path class="cls-1" d="M94.82352,270.12115l24.90721,75.97025a3.91378,3.91378,0,0,1-2.52536,4.94536L41.23515,375.94392a3.91386,3.91386,0,0,1-4.94543-2.52535L11.3825,297.44832a3.91377,3.91377,0,0,1,2.52536-4.94536L89.86167,267.6485A3.91083,3.91083,0,0,1,94.82352,270.12115Z"/><path class="cls-1" d="M504.64539,475.57737,428.26007,433.782a1.36762,1.36762,0,0,0-1.86408.54369,1.41628,1.41628,0,0,0-.16726.68778l1.98895,87.0426a1.36774,1.36774,0,0,0,1.3988,1.34356,1.29387,1.29387,0,0,0,.68117-.21371l74.41742-45.23063a1.38015,1.38015,0,0,0,.4653-1.88731A1.33869,1.33869,0,0,0,504.64539,475.57737Z"/><rect class="cls-2" x="103.50068" y="105.6411" width="556.63703" height="353.64092" rx="24.82208"/><rect class="cls-3" x="105.16527" y="103.97651" width="557.00247" height="353.64092" rx="24.82208"/><path class="cls-4" d="M288.70834,203.92631c11.37443,0,18.32161-5.1078,18.32161-13.792,0-9.50138-8.6159-12.32794-16.31239-13.55391-8.30942-1.12385-12.975-3.20121-12.975-8.071,0-3.81418,2.31574-7.59434,10.69333-7.59434,6.94722,0,10.69327,3.26931,10.69327,7.86671H305.191c0-7.73051-5.78935-13.17929-16.687-13.17929-12.0555,0-16.78917,5.95964-16.78917,12.8728,0,9.36518,9.39923,11.9193,17.1297,13.21337,6.91317,1.05576,12.08952,2.99685,12.08952,8.4457,0,5.721-4.359,8.61617-12.2598,8.61617-7.62832,0-12.1236-4.35928-12.1236-9.22918H270.523C270.523,196.53682,276.142,203.92631,288.70834,203.92631Z"/><path class="cls-4" d="M337.45894,202.9391h6.64047l-13.0768-20.80774,11.306-13.92856H335.1432L320.227,186.6947V154.98943h-5.85752V202.9391H320.227v-9.77381l6.50436-7.18571Z"/><path class="cls-4" d="M345.68394,214.79h5.72128c7.52614,0,10.1821-3.03076,14.09853-12.8046L379.194,168.2028l-6.23217.03408L363.188,192.7905l-.88513,3.03076-.81767-3.06477-9.84184-24.55369H345.4112l13.79235,33.71456-.37424.98776c-1.80486,4.73353-3.20142,6.94722-7.39,6.94722h-5.75533Z"/><path class="cls-4" d="M384.55834,202.9391h5.85742V154.92133h-5.85742Z"/><path class="cls-4" d="M403.85112,161.42587a3.73621,3.73621,0,1,0-3.95048-3.746A3.7361,3.7361,0,0,0,403.85112,161.42587Zm-2.89466,41.51323h5.85741V168.2028h-5.85741Z"/><path class="cls-4" d="M432.57747,216.01586c12.15758,0,18.015-8.071,18.015-17.74226V168.2028h-5.61924v7.45811a14.7219,14.7219,0,0,0-13.65571-8.41161c-9.67177,0-16.89172,8.17322-16.89172,17.67456a17.00986,17.00986,0,0,0,17.0618,17.36829c5.89143,0,11.03376-2.86064,13.48556-8.13911v4.29071c0,6.47035-3.371,12.56642-12.39576,12.56642-7.56019,0-10.45481-3.67828-11.13588-7.86691h-5.5512C416.26524,209.47748,420.89672,216.01586,432.57747,216.01586Zm-.068-18.90013a12.0879,12.0879,0,0,1-12.2595-11.91377q-.00193-.13905-.00074-.27813a12.05382,12.05382,0,0,1,12.29425-12.19167,12.19191,12.19191,0,0,1,.06539,24.38374q-.04969.00016-.0994-.00013Z"/><path class="cls-4" d="M461.1332,202.9391h5.85741V184.68545c0-7.08346,5.27847-11.98737,11.06778-11.98737,6.028,0,9.70578,3.50766,9.70578,11.51063V202.9391h5.85742V184.10653c0-11.10193-4.83558-16.89132-14.06452-16.89132-5.89143,0-10.59094,3.099-12.6685,7.59431l.10211-3.712V154.98943h-5.85741Z"/><path class="cls-4" d="M516.21779,202.9391h6.40282v-4.97225h-5.245c-3.09879,0-6.23166-1.15787-6.23166-7.62825V173.34517h11.47658V168.2028H511.144V157.85007l-5.858.034v10.31868h-7.73026v5.14236H505.286v16.721C505.28607,200.89556,510.93932,202.9391,516.21779,202.9391Z"/><path class="cls-5" d="M534.88476,146.88141a28.78727,28.78727,0,0,1,28.78685-28.78761h.00068V131.528a15.35344,15.35344,0,0,0-15.35337,15.35337Z"/><path class="cls-6" d="M563.67221,175.669a28.78725,28.78725,0,0,1-28.78753-28.78694v-.00059l13.43407-.00009a15.35355,15.35355,0,0,0,15.35337,15.35341Z"/><path class="cls-7" d="M592.45965,146.8815A28.78768,28.78768,0,0,1,563.67221,175.669V162.23486a15.35348,15.35348,0,0,0,15.35328-15.35341Z"/><path class="cls-8" d="M563.67221,118.09384a28.7877,28.7877,0,0,1,28.78744,28.78761H579.02549a15.35342,15.35342,0,0,0-15.35328-15.35336Z"/><path class="cls-9" d="M536.80019,146.88141A28.78727,28.78727,0,0,1,565.587,118.0938h.00068V131.528a15.35344,15.35344,0,0,0-15.35337,15.35337Z"/><path class="cls-9" d="M565.58763,175.669a28.78725,28.78725,0,0,1-28.78753-28.78694v-.00059l13.43408-.00009a15.35355,15.35355,0,0,0,15.35337,15.35341Z"/><path class="cls-9" d="M594.37508,146.8815A28.78769,28.78769,0,0,1,565.58763,175.669V162.23486a15.35347,15.35347,0,0,0,15.35328-15.35341Z"/><path class="cls-9" d="M565.58763,118.09384a28.78771,28.78771,0,0,1,28.78745,28.78761H580.94091a15.35341,15.35341,0,0,0-15.35328-15.35336Z"/><rect class="cls-3" x="276.81863" y="242.25761" width="350.0954" height="180.56792" rx="8.36592"/><path class="cls-10" d="M515.68263,226.99581c1.8062-4.42629,4.9917-11.84338,6.452-12.86576,2.10049-1.47013,2.52049-.84012,1.05048-3.3605-1.47048-2.52037-7.14147-5.25086-7.98148-4.20062-.84,1.05012-4.41051.63-7.771,3.3605-1.68048,1.36524-.6825,4.88324-.63,9.03148a53.66653,53.66653,0,0,1-.65856,7.95338l9.47958-.18214S515.64532,226.82783,515.68263,226.99581Z"/><path class="cls-10" d="M545.02862,302.55418c2.94049,4.62075,11.342,10.29162,22.68348,10.71162,8.68563.32168,11.45618-6.37306,12.27915-9.52862-11.27657-1.93286-13.53916-8.32411-13.53916-8.32411l-3.99143-1.834c-1.5764-.17478-3.34622-.398-5.25006-.68654-6.931-1.05013-6.931-13.44211-5.461-15.96249,1.37284-2.35354-.73271-10.19939-.84646-14.81967a34.49514,34.49514,0,0,0-2.934,3.89794c-2.31048,3.5705-4.831,8.82136-5.461,12.602s5.461,5.46087,5.461,5.46087.84-.63012.42,6.301c-.27172,4.48224-2.82582,5.01082-4.59749,4.82557A10.402,10.402,0,0,0,545.02862,302.55418Z"/><path class="cls-10" d="M586.40508,271.88934c-2.917-1.517-4.66749-1.60771-5.647-1.38873a1.07939,1.07939,0,0,1-1.26324-.84876c-.70415-3.20852-4.03287-10.93014-19.76371-12.25486,0,0-8.61148-.63012-8.82148,3.78062-.01382.29186-.01474.60537-.00645.93281.11375,4.62028,2.2193,12.46613.84646,14.81967-1.47,2.52038-1.47,14.91236,5.461,15.96249,1.90384.28852,3.67366.51176,5.25006.68654,4.16228.46133,6.93192.5737,6.93192.5737s11.39536,3.60895,15.17587-.17167C588.34941,290.20065,595.48077,276.60864,586.40508,271.88934Z"/><path class="cls-10" d="M617.34727,401.66553c1.08087,2.00032,2.20963,4.07755,3.37063,6.19841a42.49146,42.49146,0,0,0,5.36289-5.50255c1.09008-1.63511-.18835-4.95992-1.31435-7.24773A34.42609,34.42609,0,0,1,617.34727,401.66553Z"/><path class="cls-10" d="M626.31152,389.088c-2.73049-5.881-19.533-38.43619-25.834-45.36719-6.301-6.93112-9.87195-38.01608-17.223-40.95657l-2.94049-.63013a12.61633,12.61633,0,0,1-.32284,1.60312c-.823,3.15556-3.59352,9.8503-12.27915,9.52862-11.34151-.42-19.743-6.09087-22.68348-10.71162a10.402,10.402,0,0,1-1.237-7.35641,13.58964,13.58964,0,0,1,.817-2.9352s-20.37345-10.92174-22.68394-29.40471c-2.14792-17.18612-5.74743-33.63677-6.242-35.86205-.03731-.168-.05895-.26366-.05895-.26366l-9.47958.18214-1.44193.02786s-9.24149,23.31372-6.511,33.60534,23.73349,34.02534,24.364,50.40806c.51533,13.39686,11.56441,56.14847,15.57472,71.28637a5.34763,5.34763,0,0,0,6.71363,3.75517c.65349-.19653,1.35534-.40572,2.08851-.6224,8.09015-2.39177,20.4301-5.803,24.1406-5.52823,5.671.42,23.524-7.14111,23.524-7.14111s16.17249,32.76521,18.273,31.71508c.15382-.07691.37856-.1978.64981-.34989.863-.48379,2.25707-1.32552,3.82794-2.405a34.42609,34.42609,0,0,0,7.41917-6.55187C626.35481,393.06119,627.17548,390.9485,626.31152,389.088Z"/><path class="cls-10" d="M573.85882,521.25729c-1.87252-1.02146-10.89526,1.362-10.89526,1.362s-.076.44983-.21783,1.18541c.08336.658.12941,1.01731.12941,1.01731s9.21754,2.63355,11.41243-1.31677a6.07291,6.07291,0,0,0,.40711-1.39507A2.89879,2.89879,0,0,0,573.85882,521.25729Z"/><path class="cls-10" d="M566.53867,537.60063c-3.23478,4.256-9.53347,3.40471-9.53347,3.40471s0,1.70247,5.10684,3.23466c5.10729,1.53219,14.30042-6.12864,15.49228-8.00139,1.04126-1.63592,2.21147-3.66157,1.015-5.28253.11237.32376.17638.5158.17638.5158S569.773,533.34452,566.53867,537.60063Z"/><path class="cls-10" d="M578.61933,530.95608c-.566-1.63143-2.39983-6.724-3.92465-8.84589a6.07291,6.07291,0,0,1-.40711,1.39507c-2.19489,3.95032-11.41243,1.31677-11.41243,1.31677s-.04605-.35933-.12941-1.01731c-.624,3.24387-2.53062,12.08055-4.88946,12.77445-2.894.85118-.85107,4.42617-.85107,4.42617s6.29869.8513,9.53347-3.40471c3.23431-4.25611,12.257-6.12875,12.257-6.12875S578.7317,531.27984,578.61933,530.95608Z"/><path class="cls-10" d="M667.15146,493.84841a14.4237,14.4237,0,0,1,3.55576,3.51915c.33665.24189.53008.3964.53008.3964s-5.20908-10.27123-8.15648-14.00822c.11606.99544-.0502,1.56282-.56875,1.56282-3.20577,0-4.58644,5.837-7.13963,6.85639.44027,3.78373,1.60127,7.786,1.73483,7.29137v-2.61587a4.20562,4.20562,0,0,1,2.316-3.81087A7.39211,7.39211,0,0,1,667.15146,493.84841Z"/><path class="cls-10" d="M663.08082,483.75574c-.66823-5.74167-10.96894-26.09993-20.32049-38.81843-5.4702-7.43943-14.43076-23.1682-22.04243-37.07337-1.161-2.12086-2.28976-4.19809-3.37063-6.19841-1.57087,1.07949-2.9649,1.92122-3.82794,2.405-.27125.15209-.496.273-.64981.34989-2.10048,1.05013-18.273-31.71508-18.273-31.71508s-17.853,7.56112-23.524,7.14111c-3.7105-.27482-16.05045,3.13646-24.1406,5.52823,4.52334,15.56067,11.28394,41.802,9.79827,55.17329-2.03279,18.29508,4.97143,74.9925,6.01546,83.25674.14184-.73558.21783-1.18541.21783-1.18541s9.02274-2.38348,10.89526-1.362a2.89879,2.89879,0,0,1,.83586.8529c2.41733-11.41749,7.46844-82.81463,7.05442-89.024-.43888-6.58388-1.75554-27.2135-1.75554-27.2135s12.72863,5.706,18.43508,16.2403c5.706,10.53431,53.10988,70.22841,56.18255,70.22841a2.04,2.04,0,0,0,.76125-.16648c2.55319-1.01939,3.93386-6.85639,7.13963-6.85639C663.03062,485.31856,663.19688,484.75118,663.08082,483.75574Z"/><path class="cls-10" d="M675.66347,514.10719c-.25974-5.84426-1.7141-12.27627-4.95625-16.73963a14.4237,14.4237,0,0,0-3.55576-3.51915,7.39211,7.39211,0,0,0-7.72817-.80883,4.20562,4.20562,0,0,0-2.316,3.81087v2.61587s4.9369,7.83111,5.27769,11.91694c.34033,4.08584,3.91544,9.3633,6.80942,9.3633S676.00426,521.768,675.66347,514.10719Z"/><path class="cls-10" d="M516.72231,228.03549c1.8062-4.42629,4.9917-11.84338,6.452-12.86576,2.10048-1.47013,2.52049-.84012,1.05047-3.3605-1.47048-2.52037-7.14146-5.25086-7.98147-4.20062-.84,1.05013-4.41051.63-7.771,3.3605-1.68048,1.36525-.68251,4.88325-.63,9.03148a53.665,53.665,0,0,1-.65856,7.95338l9.47958-.18214S516.685,227.86751,516.72231,228.03549Z"/><path class="cls-10" d="M546.0683,303.59387c2.9405,4.62074,11.342,10.29161,22.68348,10.71162,8.68563.32168,11.45619-6.37307,12.27916-9.52863-11.27658-1.93285-13.53917-8.32411-13.53917-8.32411l-3.99143-1.83395c-1.5764-.17477-3.34622-.398-5.25006-.68654-6.931-1.05013-6.931-13.44211-5.461-15.96248,1.37284-2.35355-.73271-10.1994-.84646-14.81968a34.494,34.494,0,0,0-2.934,3.89794c-2.31049,3.5705-4.831,8.82137-5.461,12.602s5.461,5.46086,5.461,5.46086.84-.63012.42,6.301c-.27171,4.48223-2.82582,5.01081-4.59749,4.82556A10.402,10.402,0,0,0,546.0683,303.59387Z"/><path class="cls-4" d="M587.44476,272.929c-2.917-1.517-4.66749-1.60772-5.647-1.38874a1.0794,1.0794,0,0,1-1.26324-.84876c-.70415-3.20852-4.03287-10.93014-19.76371-12.25486,0,0-8.61148-.63012-8.82148,3.78062-.01382.29187-.01474.60537-.00645.93281.11375,4.62028,2.2193,12.46613.84646,14.81968-1.47,2.52037-1.47,14.91235,5.461,15.96248,1.90384.28852,3.67366.51177,5.25006.68654,4.16229.46134,6.93192.57371,6.93192.57371s11.39536,3.60894,15.17587-.17168C589.38909,291.24033,596.52046,277.64832,587.44476,272.929Z"/><path class="cls-10" d="M618.387,402.70521c1.08086,2.00032,2.20963,4.07755,3.37063,6.19841a42.49286,42.49286,0,0,0,5.36289-5.50254c1.09008-1.63512-.18836-4.95993-1.31436-7.24773A34.42622,34.42622,0,0,1,618.387,402.70521Z"/><path class="cls-11" d="M627.3512,390.12763c-2.73049-5.881-19.533-38.43619-25.834-45.36719-6.301-6.93112-9.87195-38.01608-17.223-40.95657l-2.94049-.63012a12.61725,12.61725,0,0,1-.32283,1.60311c-.823,3.15556-3.59353,9.85031-12.27916,9.52863-11.34151-.42-19.743-6.09088-22.68348-10.71162a10.402,10.402,0,0,1-1.237-7.35642,13.5895,13.5895,0,0,1,.817-2.9352s-20.37346-10.92173-22.68395-29.40471c-2.14792-17.18611-5.74743-33.63676-6.242-35.862-.0373-.168-.05895-.26366-.05895-.26366l-9.47958.18214-1.44193.02787s-9.24148,23.31372-6.511,33.60533,23.73349,34.02534,24.364,50.40806c.51534,13.39686,11.56441,56.14847,15.57472,71.28637a5.34764,5.34764,0,0,0,6.71363,3.75518c.65349-.19653,1.35534-.40573,2.08851-.62241,8.09016-2.39177,20.4301-5.803,24.1406-5.52822,5.671.42,23.524-7.14112,23.524-7.14112s16.17248,32.76521,18.273,31.71508c.15382-.07691.37855-.1978.64981-.34989.863-.48378,2.25706-1.32552,3.82794-2.405a34.42622,34.42622,0,0,0,7.41916-6.55186C627.39449,394.10087,628.21516,391.98818,627.3512,390.12763Z"/><path class="cls-10" d="M574.8985,522.297c-1.87252-1.02146-10.89526,1.362-10.89526,1.362s-.076.44983-.21783,1.18541c.08336.658.12941,1.01732.12941,1.01732s9.21754,2.63355,11.41243-1.31678a6.07225,6.07225,0,0,0,.40711-1.39506A2.89884,2.89884,0,0,0,574.8985,522.297Z"/><path class="cls-4" d="M567.57835,538.64032c-3.23477,4.256-9.53346,3.40471-9.53346,3.40471s0,1.70247,5.10683,3.23466c5.1073,1.53218,14.30043-6.12864,15.49228-8.0014,1.04126-1.63592,2.21148-3.66157,1.015-5.28252.11237.32375.17639.51579.17639.51579S570.81266,534.3842,567.57835,538.64032Z"/><path class="cls-2" d="M579.659,531.99577c-.566-1.63144-2.39983-6.724-3.92465-8.84589a6.07225,6.07225,0,0,1-.40711,1.39506c-2.19489,3.95033-11.41243,1.31678-11.41243,1.31678s-.046-.35933-.12941-1.01732c-.624,3.24387-2.53062,12.08055-4.88946,12.77446-2.894.85118-.85106,4.42617-.85106,4.42617s6.29869.85129,9.53346-3.40471c3.23431-4.25612,12.25705-6.12876,12.25705-6.12876S579.77138,532.31952,579.659,531.99577Z"/><path class="cls-2" d="M668.19114,494.88809a14.42408,14.42408,0,0,1,3.55577,3.51915c.33665.2419.53007.3964.53007.3964s-5.20907-10.27123-8.15648-14.00821c.11606.99543-.05019,1.56281-.56875,1.56281-3.20576,0-4.58644,5.837-7.13962,6.85639.44027,3.78373,1.60127,7.786,1.73482,7.29137v-2.61586a4.20559,4.20559,0,0,1,2.316-3.81087A7.39209,7.39209,0,0,1,668.19114,494.88809Z"/><path class="cls-4" d="M664.1205,484.79543c-.66823-5.74168-10.96894-26.09994-20.32049-38.81844-5.47019-7.43943-14.43076-23.16819-22.04242-37.07337-1.161-2.12086-2.28977-4.19809-3.37063-6.19841-1.57088,1.07949-2.96491,1.92123-3.82794,2.405-.27126.15209-.496.273-.64981.34989-2.10049,1.05013-18.273-31.71508-18.273-31.71508s-17.853,7.56112-23.524,7.14112c-3.7105-.27482-16.05044,3.13645-24.1406,5.52822,4.52334,15.56067,11.28394,41.802,9.79827,55.17329-2.03279,18.29508,4.97144,74.9925,6.01546,83.25674.14185-.73558.21783-1.18541.21783-1.18541s9.02274-2.38348,10.89526-1.362a2.89884,2.89884,0,0,1,.83586.85291c2.41733-11.4175,7.46844-82.81463,7.05443-89.024-.43889-6.58387-1.75555-27.2135-1.75555-27.2135s12.72863,5.706,18.43508,16.2403c5.706,10.53431,53.10988,70.22842,56.18255,70.22842a2.03982,2.03982,0,0,0,.76126-.16649c2.55318-1.01938,3.93386-6.85639,7.13962-6.85639C664.07031,486.35824,664.23656,485.79086,664.1205,484.79543Z"/><path class="cls-4" d="M676.70315,515.14687c-.25974-5.84426-1.7141-12.27627-4.95624-16.73963a14.42408,14.42408,0,0,0-3.55577-3.51915,7.39209,7.39209,0,0,0-7.72816-.80882,4.20559,4.20559,0,0,0-2.316,3.81087V500.506s4.9369,7.83111,5.27769,11.917c.34033,4.08583,3.91544,9.36329,6.80942,9.36329S677.04394,522.8077,676.70315,515.14687Z"/><path class="cls-3" d="M515.2306,226.66443c1.80621-4.42629,4.9917-11.84338,6.452-12.86576,2.10048-1.47013,2.52049-.84012,1.05047-3.3605-1.47048-2.52037-7.14146-5.25086-7.98147-4.20062-.84,1.05013-4.41051.63-7.771,3.3605-1.68048,1.36524-.68251,4.88324-.63,9.03148a53.66517,53.66517,0,0,1-.65856,7.95338l9.47958-.18214S515.1933,226.49645,515.2306,226.66443Z"/><path class="cls-3" d="M544.57659,302.2228c2.9405,4.62075,11.342,10.29162,22.68349,10.71162,8.68562.32169,11.45618-6.37306,12.27915-9.52862-11.27658-1.93286-13.53917-8.32411-13.53917-8.32411l-3.99143-1.83395c-1.57639-.17478-3.34622-.398-5.25006-.68654-6.931-1.05013-6.931-13.44211-5.461-15.96249,1.37285-2.35354-.7327-10.19939-.84646-14.81967a34.494,34.494,0,0,0-2.934,3.89794c-2.31049,3.5705-4.831,8.82136-5.461,12.602s5.461,5.46087,5.461,5.46087.84-.63012.42,6.301c-.27171,4.48224-2.82582,5.01082-4.59748,4.82557A10.402,10.402,0,0,0,544.57659,302.2228Z"/><path class="cls-3" d="M585.95305,271.558c-2.917-1.517-4.66748-1.60771-5.647-1.38873a1.07938,1.07938,0,0,1-1.26323-.84876c-.70416-3.20852-4.03288-10.93014-19.76372-12.25486,0,0-8.61148-.63012-8.82148,3.78062-.01381.29186-.01474.60537-.00645.93281.11376,4.62028,2.21931,12.46613.84646,14.81967-1.47,2.52038-1.47,14.91236,5.461,15.96249,1.90384.28852,3.67367.51176,5.25006.68654,4.16229.46133,6.93193.5737,6.93193.5737s11.39536,3.60895,15.17586-.17167C587.89738,289.86927,595.02875,276.27726,585.95305,271.558Z"/><path class="cls-3" d="M616.89525,401.33415c1.08087,2.00032,2.20963,4.07755,3.37063,6.19841a42.49146,42.49146,0,0,0,5.36289-5.50255c1.09008-1.63511-.18836-4.95992-1.31436-7.24773A34.42577,34.42577,0,0,1,616.89525,401.33415Z"/><path class="cls-3" d="M625.8595,388.75657c-2.7305-5.881-19.533-38.43619-25.834-45.36719-6.301-6.93112-9.872-38.01608-17.223-40.95657l-2.9405-.63013a12.61717,12.61717,0,0,1-.32283,1.60312c-.823,3.15556-3.59353,9.85031-12.27915,9.52862-11.34151-.42-19.743-6.09087-22.68349-10.71162a10.402,10.402,0,0,1-1.237-7.35641,13.589,13.589,0,0,1,.817-2.9352s-20.37346-10.92174-22.68394-29.40471c-2.14792-17.18612-5.74744-33.63677-6.24205-35.862-.0373-.168-.05895-.26366-.05895-.26366l-9.47958.18214-1.44192.02786s-9.24149,23.31372-6.511,33.60534,23.7335,34.02534,24.364,50.40806c.51534,13.39686,11.56441,56.14847,15.57472,71.28637a5.34763,5.34763,0,0,0,6.71363,3.75517c.65349-.19653,1.35534-.40572,2.08851-.6224,8.09016-2.39177,20.4301-5.80305,24.14061-5.52822,5.671.42,23.524-7.14112,23.524-7.14112s16.17249,32.76521,18.273,31.71508c.15382-.07691.37856-.1978.64981-.34989.863-.48379,2.25707-1.32552,3.82794-2.405a34.42577,34.42577,0,0,0,7.41916-6.55187C625.90279,392.72981,626.72345,390.61712,625.8595,388.75657Z"/><path class="cls-3" d="M573.40679,520.92591c-1.87252-1.02146-10.89525,1.362-10.89525,1.362s-.076.44983-.21784,1.18541c.08336.658.12941,1.01731.12941,1.01731s9.21754,2.63355,11.41244-1.31677a6.07326,6.07326,0,0,0,.40711-1.39507A2.8988,2.8988,0,0,0,573.40679,520.92591Z"/><path class="cls-3" d="M566.08664,537.26925c-3.23477,4.256-9.53346,3.40471-9.53346,3.40471s0,1.70247,5.10683,3.23466c5.1073,1.53219,14.30043-6.12864,15.49228-8.00139,1.04127-1.63592,2.21148-3.66157,1.015-5.28253.11237.32376.17638.5158.17638.5158S569.321,533.01314,566.08664,537.26925Z"/><path class="cls-3" d="M578.16731,530.6247c-.566-1.63143-2.39983-6.724-3.92465-8.84589a6.07326,6.07326,0,0,1-.40711,1.39507c-2.1949,3.95032-11.41244,1.31677-11.41244,1.31677s-.046-.35933-.12941-1.01731c-.624,3.24387-2.53062,12.08055-4.88946,12.77446-2.894.85117-.85106,4.42616-.85106,4.42616s6.29869.8513,9.53346-3.40471c3.23432-4.25611,12.25705-6.12875,12.25705-6.12875S578.27968,530.94846,578.16731,530.6247Z"/><path class="cls-3" d="M666.69944,493.517a14.4237,14.4237,0,0,1,3.55576,3.51915c.33665.24189.53007.3964.53007.3964s-5.20907-10.27123-8.15647-14.00822c.11605.99544-.0502,1.56282-.56876,1.56282-3.20576,0-4.58643,5.837-7.13962,6.85639.44027,3.78373,1.60127,7.786,1.73482,7.29137v-2.61587a4.20561,4.20561,0,0,1,2.316-3.81087A7.39211,7.39211,0,0,1,666.69944,493.517Z"/><path class="cls-3" d="M662.6288,483.42436c-.66823-5.74167-10.96894-26.09993-20.3205-38.81843-5.47019-7.43943-14.43076-23.1682-22.04242-37.07337-1.161-2.12086-2.28976-4.19809-3.37063-6.19841-1.57087,1.07949-2.9649,1.92122-3.82794,2.405-.27125.15209-.496.273-.64981.34989-2.10048,1.05013-18.273-31.71508-18.273-31.71508s-17.853,7.56112-23.524,7.14112c-3.71051-.27483-16.05045,3.13645-24.14061,5.52822,4.52334,15.56067,11.284,41.802,9.79827,55.17329-2.03279,18.29508,4.97144,74.9925,6.01546,83.25674.14185-.73558.21784-1.18541.21784-1.18541s9.02273-2.38348,10.89525-1.362a2.8988,2.8988,0,0,1,.83587.8529c2.41733-11.41749,7.46844-82.81463,7.05442-89.024-.43889-6.58388-1.75555-27.2135-1.75555-27.2135s12.72863,5.706,18.43508,16.2403c5.706,10.53431,53.10988,70.22841,56.18255,70.22841a2.04,2.04,0,0,0,.76126-.16648c2.55319-1.01939,3.93386-6.85639,7.13962-6.85639C662.5786,484.98718,662.74485,484.4198,662.6288,483.42436Z"/><path class="cls-3" d="M675.21144,513.77581c-.25974-5.84426-1.7141-12.27627-4.95624-16.73963a14.4237,14.4237,0,0,0-3.55576-3.51915,7.39211,7.39211,0,0,0-7.72817-.80883,4.20561,4.20561,0,0,0-2.316,3.81087v2.61587s4.9369,7.83111,5.27769,11.91694c.34034,4.08584,3.91544,9.3633,6.80942,9.3633S675.55223,521.43664,675.21144,513.77581Z"/><path class="cls-4" d="M515.74135,205.58244s11.104-3.93476,11.81834-2.94053c1.57214,2.18825-7.23964,5.38668-7.23964,5.38668Z"/><path class="cls-3" d="M546.44816,273.04141s2.86606.13648,2.5931,2.45663-.81887,3.68493-2.5931,3.68493"/><path class="cls-3" d="M580.306,270.16923s-8.6092,2.0533-9.42807,4.10049-5.59565-.40943-6.68749,3.00255-5.51251,13.58182,4.75011,16.54917"/><path class="cls-3" d="M594.14453,372.374s-15.46587-33.98737-16.45909-39.9467"/><path class="cls-10" d="M590.2648,118.58279a14.7162,14.7162,0,0,1-2.8839-1.78732,8.52488,8.52488,0,0,1-3.399-6.50873s-3.795,5.69221-8.53842,8.22214c-1.10861.59109-1.59067,1.00816-1.72624,1.32667-.4446,1.04451,2.88479,1.01407.4611,2.46817-2.74521,1.6473-2.0812,3.82316-1.26468,3.16239a81.28024,81.28024,0,0,1,8.99863-5.63056H593.567A22.04263,22.04263,0,0,1,590.2648,118.58279Z"/><path class="cls-10" d="M669.3657,78.03054c-3.16216-5.69232-5.87673-18.20807-9.80311-27.19645-5.68676-13.0183-14.547-15.17937-18.65814-19.29049-4.11113-4.111-28.46125-9.17088-28.46125-9.17088s-1.39847,14.86108-3.14879,18.7654l-2.96193-1.3463s-2.01922,7.40484-5.65453,6.86637a10.08259,10.08259,0,0,1-4.43131-2.15612c-1.221,1.15242-3.49349,3.36384-6.57271,6.6483-3.1858,3.39806-7.79192,13.21912-12.64955,19.60666-1.18754,1.5619-.40045,3.0761-1.897,4.42729-1.497,1.3512-5.27725,2.53919-5.69242,3.16239-2.52982,3.79484-6.32478,8.53842-6.32478,8.53842l-6.65655,23.6335c.84973-.26293,1.71266-.47135,2.581-.65126a25.74111,25.74111,0,0,1,7.51111-.41688l.29343.0262,2.90842.25987,8.85816-18.7403,24.35013-23.40162s17.70963,14.8632,18.97431,15.49565c1.26514.63245-.94851,1.58119-3.16216,7.2734-2.21365,5.69232-34.786,19.923-34.786,19.923a8.52488,8.52488,0,0,0,3.399,6.50873,14.7162,14.7162,0,0,0,2.8839,1.78732,22.04263,22.04263,0,0,0,3.30219,1.25276,25.45024,25.45024,0,0,0,4.32919.887l1.63258-.887,35.50333-19.2892a4.62777,4.62777,0,0,1,5.46.76917c4.36959,4.30956,13.22362,12.92526,14.64323,13.39852a5.21626,5.21626,0,0,0,1.613.21216c2.277-.00268,1.5209-6.67475,5.463-9.38495C667.27091,102.06258,672.52831,83.72274,669.3657,78.03054Z"/><path class="cls-10" d="M566.88994,119.83555h.6872c-.37459-.0913-.61986-.15708-.61986-.15708S566.93275,119.73644,566.88994,119.83555Z"/><path class="cls-10" d="M555.01411,128.18166c.883.11383,1.80561,1.54028,2.64308,1.60494,1.45065.11215,3.02526-.64093,3.4886-.10892.96635,1.11039,5.168-8.50732,5.74415-9.84213.04281-.09911.06734-.15708.06734-.15708s.24527.06578.61986.15708h4.516c.796-2.26928-3.66385-8.62549-5.25407-10.35886l-.29343-.0262a26.239,26.239,0,0,0-8.02782.52766c-.50213,1.05733-2.64666,5.60023-4.46877,9.8574A42.7091,42.7091,0,0,0,551.332,127.332C551.16163,128.67755,552.20156,127.81933,555.01411,128.18166Z"/><path class="cls-10" d="M637.45965,194.58492c-5.37988,1.93571-10.14258,3.49633-15.36719,5.44729-2.98144,8.65743-9.4834,19.37825-13.60351,26.39709-1.89551,3.22969-3.18506,5.49222-2.72461,6.97994,1.1582,3.74609,5.28125,2.37375,7.55029,2.526a3.98107,3.98107,0,0,0,2.49121-.36007c10.23047-4.526,26.62451-16.60047,30.83789-26.27916C649.63787,202.41829,639.20233,199.10541,637.45965,194.58492Z"/><path class="cls-10" d="M656.48874,110.48622c-6.60791-2.53916-9.36813-10.68828-15.86959-14.18526-4.71364,3.5594-35.29874,12.14736-48.03092,21.53454-7.314,5.39247-4.74058,17.04911-4.56475,18.057,3.44238,19.71013,16.88567,49.94634,27.81878,66.92656,2.69775-.87095,3.46875-1.31514,6.645-2.42534s11.65771-4.08535,14.46826-5.0734c2.811-.988,1.50244-.51664,3.49658-1.21163-10.019-17.544-24.33374-44.212-34.156-61.88389,3.37647-6.20788,11.90488-9.29715,17.539-11.92649,4.32513-2.01848,6.2867.70818,10.94431-1.54343.443-.21415,1.26338,1.14609,1.56565.91885a8.61283,8.61283,0,0,1,5.18349-1.81492c3.16.0107,5.47364.51178,9.45866-.30289,2.4878-.50859,6.48936-4.93186,7.27793-7.088C657.14255,110.24528,657.94724,111.04681,656.48874,110.48622Z"/><path class="cls-10" d="M609.78227,21.56691c-.606.96836-1.46982,2.0608-2.10305,1.665a12.46444,12.46444,0,0,0-5.5203-1.481c-1.481.13456-4.84693,1.07706-4.57758,2.82726s4.71225,5.25073,1.481,5.11616c-3.23084-.13467-5.7892-4.71225-6.5968-5.11616a16.8653,16.8653,0,0,0-5.78919-.13456c-.5387.26924-1.3463-1.885-1.3463-1.885l-.808,2.42346s-3.63486,3.90443-6.32789,4.71225c.404,4.57747,8.6169,8.61646,8.6169,8.61646s2.01922,5.92388,2.96194,6.46235c.94227.53869,3.76953-2.82726,3.76953-2.82726a19.60121,19.60121,0,0,0,2.70418,2.55613,10.08259,10.08259,0,0,0,4.43131,2.15612c3.63531.53847,5.65453-6.86637,5.65453-6.86637l2.96193,1.3463c1.75032-3.90432,3.14879-18.7654,3.14879-18.7654A4.97276,4.97276,0,0,1,609.78227,21.56691Z"/><path class="cls-10" d="M589.50358,4.4506c-6.53124,5.47972-13.05981,7.876-13.59806,10.03009-.5387,2.15412-2.289,10.09754-3.09661,13.05948s2.55791,1.3464,2.55791,1.7502c0,.404.13468,1.21173,2.82727.404,2.693-.80782,6.32789-4.71225,6.32789-4.71225l.808-2.42346s.8076,2.15423,1.3463,1.885a16.8653,16.8653,0,0,1,5.78919.13456c.8076.40391,3.366,4.98149,6.5968,5.11616,3.23128.13457-1.21162-3.36595-1.481-5.11616s3.09661-2.6927,4.57758-2.82726a12.46444,12.46444,0,0,1,5.5203,1.481c.63323.39577,1.497-.69667,2.10305-1.665.42454-.67861.72421-1.29691.72421-1.29691S597.44667-2.21375,589.50358,4.4506Z"/><path class="cls-10" d="M621.47186,200.20373c.1372.00732.38916.212.499.17272.11035-.03928.08057-.31991.16113-.4064C621.9074,200.041,621.68817,200.119,621.47186,200.20373Z"/><path class="cls-3" d="M572.381,119.1206c-.56635.56657-5.13634.55787-5.13634.55787s-.02453.058-.06734.15708h6.82735c.13556-.31851.61762-.73558,1.72623-1.32667,4.74347-2.52993,8.53842-8.22214,8.53842-8.22214s32.57238-14.23073,34.786-19.923c2.21364-5.69221,4.42729-6.641,3.16216-7.2734-1.26469-.63245-18.97432-15.49565-18.97432-15.49565L578.89309,90.99626l-8.85815,18.7403-2.90843-.25987C568.834,111.33805,574.118,117.38366,572.381,119.1206Z"/><path class="cls-12" d="M590.55221,118.58279a14.7162,14.7162,0,0,1-2.8839-1.78732,8.52492,8.52492,0,0,1-3.399-6.50873s-3.795,5.69221-8.53842,8.22214c-1.10861.59109-1.59067,1.00816-1.72623,1.32667-.44461,1.04451,2.88478,1.01407.4611,2.46817-2.74521,1.6473-2.0812,3.82316-1.26469,3.16239a81.28221,81.28221,0,0,1,8.99863-5.63056l0,0a9.43832,9.43832,0,0,0,10.035.84129l1.61968-.8413A22.04253,22.04253,0,0,1,590.55221,118.58279Z"/><path class="cls-2" d="M669.36476,77.7422c-3.16216-5.69232-5.87672-18.20808-9.8031-27.19646-5.68677-13.01829-14.547-15.17936-18.65815-19.29049-4.11112-4.111-28.46125-9.17087-28.46125-9.17087s-1.39847,14.86107-3.14878,18.76539l-2.96194-1.34629s-2.01922,7.40484-5.65452,6.86637a10.0825,10.0825,0,0,1-4.43131-2.15613c-1.221,1.15243-3.4935,3.36384-6.57272,6.64831-3.1858,3.39806-7.79191,13.21912-12.64954,19.60666-1.18754,1.5619-.40046,3.07609-1.897,4.42729-1.497,1.3512-5.27726,2.53919-5.69243,3.16239-2.52982,3.79484-6.32477,8.53842-6.32477,8.53842l-6.65656,23.6335c.681-.21071,1.37038-.38641,2.06426-.54048a26.23865,26.23865,0,0,1,8.02782-.52766l.29343.0262,2.90842.25987,8.85816-18.74031L602.95488,67.3063S620.66451,82.16949,621.9292,82.802c1.26513.63245-.94852,1.58119-3.16217,7.2734-2.21365,5.69231-34.786,19.92305-34.786,19.92305a8.52485,8.52485,0,0,0,3.399,6.50872,14.71647,14.71647,0,0,0,2.88389,1.78733,22.043,22.043,0,0,0,3.30219,1.25276,25.45043,25.45043,0,0,0,4.32919.887l1.63259-.887,38.52969-20.93344s15.17936,15.17936,17.07684,15.81193a5.21631,5.21631,0,0,0,1.613.21215c2.277-.00267,1.52089-6.67474,5.463-9.38494C667.27,101.77424,672.52737,83.4344,669.36476,77.7422Z"/><path class="cls-3" d="M567.17735,119.83555h.68719c-.37459-.0913-.61985-.15708-.61985-.15708S567.22016,119.73644,567.17735,119.83555Z"/><path class="cls-12" d="M555.30151,128.18166c.883.11383,1.80561,1.54028,2.64309,1.60494,1.45064.11215,3.02526-.64093,3.48859-.10892.96635,1.11039,5.168-8.50732,5.74416-9.84213.04281-.09911.06734-.15708.06734-.15708s.24526.06578.61985.15708h4.516c.796-2.26928-3.66384-8.62549-5.25407-10.35886l-.29343-.0262a26.2389,26.2389,0,0,0-8.02781.52766c-.50213,1.05733-2.64666,5.60023-4.46877,9.8574a42.71022,42.71022,0,0,0-2.71712,7.49648C551.449,128.67755,552.489,127.81933,555.30151,128.18166Z"/><path class="cls-12" d="M610.06968,21.56691c-.606.96836-1.46982,2.0608-2.10306,1.665a12.4644,12.4644,0,0,0-5.52029-1.481c-1.481.13456-4.84693,1.07706-4.57758,2.82726s4.71225,5.25073,1.481,5.11616c-3.23084-.13467-5.7892-4.71225-6.5968-5.11616a16.86536,16.86536,0,0,0-5.7892-.13456c-.53869.26924-1.34629-1.885-1.34629-1.885l-.808,2.42346s-3.63486,3.90443-6.3279,4.71225c.404,4.57747,8.61691,8.61646,8.61691,8.61646s2.01922,5.92388,2.96193,6.46235c.94228.53869,3.76954-2.82726,3.76954-2.82726a19.6005,19.6005,0,0,0,2.70418,2.55613,10.08254,10.08254,0,0,0,4.43131,2.15612c3.6353.53847,5.65452-6.86637,5.65452-6.86637l2.96194,1.3463c1.75031-3.90432,3.14878-18.7654,3.14878-18.7654A4.97273,4.97273,0,0,1,610.06968,21.56691Z"/><path class="cls-10" d="M589.791,4.4506c-6.53125,5.47972-13.05981,7.876-13.59806,10.03009-.5387,2.15412-2.289,10.09754-3.09661,13.05948s2.55791,1.3464,2.55791,1.7502c0,.404.13467,1.21173,2.82726.404,2.693-.80782,6.3279-4.71225,6.3279-4.71225l.808-2.42346s.8076,2.15423,1.34629,1.885a16.86536,16.86536,0,0,1,5.7892.13456c.8076.40391,3.366,4.98149,6.5968,5.11616,3.23128.13457-1.21162-3.36595-1.481-5.11616s3.09661-2.6927,4.57758-2.82726a12.4644,12.4644,0,0,1,5.52029,1.481c.63324.39577,1.497-.69667,2.10306-1.665.42453-.67861.7242-1.29691.7242-1.29691S597.73407-2.21375,589.791,4.4506Z"/><path class="cls-12" d="M639.13505,194.94731c-5.37793,1.9367-10.14746,3.48141-15.36475,5.449-2.96533,8.66279-9.48291,19.37943-13.60645,26.39657-1.89746,3.22927-3.18457,5.48877-2.72509,6.97684,1.15674,3.74705,5.28125,2.37317,7.54931,2.52592a3.98762,3.98762,0,0,0,2.49121-.35991c10.22217-4.51613,26.648-16.60132,30.84327-26.27979C651.304,202.77883,640.88309,199.46489,639.13505,194.94731Z"/><path class="cls-3" d="M571.3002,119.11576c-.56635.56656-5.13634.55787-5.13634.55787s-.02453.058-.06734.15708h6.82735c.13556-.31851.61763-.73558,1.72623-1.32667,4.74347-2.52993,8.53842-8.22214,8.53842-8.22214s32.57238-14.23074,34.786-19.923c2.21365-5.69221,4.42729-6.641,3.16216-7.2734C619.872,82.453,602.16239,67.5898,602.16239,67.5898L577.81227,90.99141l-8.85816,18.74031-2.90843-.25987C567.75319,111.3332,573.03714,117.37882,571.3002,119.11576Z"/><path class="cls-3" d="M589.47138,118.578a14.71625,14.71625,0,0,1-2.8839-1.78733,9.03977,9.03977,0,0,1-2.89332-3.87974,1.31694,1.31694,0,0,0-2.24187-.34621,24.78655,24.78655,0,0,1-6.80219,5.93937c-1.1086.59109-1.59067,1.00816-1.72623,1.32667-.4446,1.0445,2.88479,1.01407.4611,2.46817-2.74521,1.6473-2.0812,3.82316-1.26469,3.16238a81.28406,81.28406,0,0,1,8.99863-5.63055l3.0699,1.22225a7.904,7.904,0,0,0,6.16436-.13425l2.4204-1.088A22.04222,22.04222,0,0,1,589.47138,118.578Z"/><path class="cls-3" d="M668.57228,78.0257c-3.16216-5.69232-5.87673-18.20808-9.80311-27.19646-5.68676-13.01829-14.547-15.17936-18.65814-19.29049-4.11113-4.111-28.46126-9.17087-28.46126-9.17087S610.25131,37.229,608.501,41.13327L605.53905,39.787s-2.01921,7.40484-5.65452,6.86637a10.08256,10.08256,0,0,1-4.43131-2.15613c-1.221,1.15243-3.4935,3.36384-6.57271,6.64831-3.1858,3.39806-7.79192,13.21912-12.64955,19.60666-1.18754,1.5619-.40045,3.07609-1.897,4.42729-1.497,1.3512-5.27726,2.53919-5.69243,3.16239-2.52982,3.79484-6.32477,8.53842-6.32477,8.53842l-6.65655,23.6335c.681-.21071,1.37037-.38641,2.06426-.54048a26.23865,26.23865,0,0,1,8.02782-.52766l.29342.0262,2.90843.25987,8.85816-18.74031L602.16239,67.5898S619.872,82.453,621.13671,83.08545c1.26513.63245-.94851,1.58119-3.16216,7.2734-2.21365,5.69231-34.786,19.923-34.786,19.923a8.52488,8.52488,0,0,0,3.399,6.50872,14.71625,14.71625,0,0,0,2.8839,1.78733,22.04222,22.04222,0,0,0,3.30219,1.25276,25.44954,25.44954,0,0,0,4.32918.887l1.63259-.887L637.265,98.89727s15.17936,15.17936,17.07684,15.81193a5.21629,5.21629,0,0,0,1.613.21215c2.277-.00267,1.5209-6.67474,5.463-9.38494C666.47749,102.05774,671.73489,83.7179,668.57228,78.0257Z"/><path class="cls-3" d="M566.09652,119.83071h.6872c-.37459-.09131-.61986-.15708-.61986-.15708S566.13933,119.7316,566.09652,119.83071Z"/><path class="cls-3" d="M554.22068,128.17682c.883.11382,1.80562,1.54028,2.64309,1.60494,1.45065.11215,3.02526-.64093,3.48859-.10892.96636,1.11039,5.168-8.50732,5.74416-9.84213.04281-.09911.06734-.15708.06734-.15708s.24527.06577.61986.15708h4.516c.796-2.26928-3.66384-8.62549-5.25407-10.35886l-.29342-.0262a26.23865,26.23865,0,0,0-8.02782.52766c-.50213,1.05732-2.64666,5.60023-4.46877,9.8574a42.71022,42.71022,0,0,0-2.71712,7.49648C550.3682,128.6727,551.40814,127.81449,554.22068,128.17682Z"/><path class="cls-3" d="M636.76873,194.97563c-5.37793,1.93638-10.14746,3.4815-15.36523,5.4491-2.95752,8.66341-9.48633,19.38091-13.605,26.39647-1.895,3.22818-3.18848,5.49013-2.72705,6.97746,1.16064,3.74511,5.28027,2.37307,7.55078,2.52541a3.98641,3.98641,0,0,0,2.49072-.36016c10.22168-4.51392,26.65039-16.60144,30.84375-26.27966C648.9367,202.80682,638.51678,199.49347,636.76873,194.97563Z"/><path class="cls-3" d="M638.05846,98.90211c-3.34818,2.49583-40.95571,21.81557-40.95571,21.81557s-4.63022-1.73118-6.75038,1.33117c-2.77291,4.00516-3.204,13.11173-3.10359,13.687,3.44092,19.7156,16.893,49.9547,27.81976,66.94413,2.75146-.90709,3.41259-1.26423,6.665-2.42918s11.45019-3.96635,14.5288-5.10869c3.07911-1.14234,2.773-1.24415,5.1753-2.1637-10.5874-17.22036-25.47307-42.3117-35.80364-59.6955,3.37695-6.23419,13.37609-9.97616,19.14592-12.05081a14.257,14.257,0,0,1,6.63672-1.0171,5.18125,5.18125,0,0,0,3.06153-.33031,7.333,7.333,0,0,0,1.05866-.65364,7.95228,7.95228,0,0,1,4.99989-1.68736c5.37525.1531,12.0042,1.16588,12.83646-3.18613C653.775,112.25683,644.54731,106.52932,638.05846,98.90211Z"/><path class="cls-3" d="M608.98885,21.56207c-.606.96835-1.46982,2.0608-2.10306,1.665a12.46423,12.46423,0,0,0-5.52029-1.481c-1.481.13456-4.84693,1.077-4.57758,2.82726s4.71225,5.25072,1.481,5.11616c-3.23084-.13467-5.7892-4.71225-6.5968-5.11616a16.86536,16.86536,0,0,0-5.7892-.13456c-.53869.26923-1.34629-1.885-1.34629-1.885l-.808,2.42346s-3.63486,3.90443-6.3279,4.71225c.404,4.57747,8.61691,8.61646,8.61691,8.61646s2.01922,5.92387,2.96193,6.46235c.94228.53869,3.76954-2.82727,3.76954-2.82727a19.60051,19.60051,0,0,0,2.70418,2.55613,10.08256,10.08256,0,0,0,4.43131,2.15613c3.63531.53847,5.65452-6.86637,5.65452-6.86637l2.96194,1.34629c1.75032-3.90432,3.14878-18.76539,3.14878-18.76539A4.97273,4.97273,0,0,1,608.98885,21.56207Z"/><path class="cls-3" d="M588.71016,4.44576c-6.53125,5.47971-13.05981,7.876-13.59806,10.03009-.5387,2.15411-2.289,10.09754-3.09661,13.05947s2.55791,1.34641,2.55791,1.75021c0,.404.13468,1.21173,2.82726.404,2.693-.80782,6.3279-4.71225,6.3279-4.71225l.808-2.42346s.8076,2.15422,1.34629,1.885a16.86536,16.86536,0,0,1,5.7892.13456c.8076.40391,3.366,4.98149,6.5968,5.11616,3.23128.13456-1.21162-3.366-1.481-5.11616s3.09661-2.6927,4.57758-2.82726a12.46423,12.46423,0,0,1,5.52029,1.481c.63324.39577,1.497-.69668,2.10306-1.665.42453-.67861.72421-1.29691.72421-1.29691S596.65325-2.2186,588.71016,4.44576Z"/><path class="cls-3" d="M621.13671,83.08545s-1.74338-12.97467-10.77344-28.60362"/><path class="cls-3" d="M637.265,98.89727s8.52386-2.04361,6.78731-11.421,2.08386-15.629-6.9462-24.659"/><line class="cls-3" x1="602.16239" y1="67.5898" x2="598.90204" y2="61.77534"/><path class="cls-3" d="M608.501,41.13327a6.20794,6.20794,0,0,1-1.93116,3.93066,1.584,1.584,0,0,1-2.422-1.8364l.02877-.07135"/><path class="cls-3" d="M597.74052,42.61075s1.74538-2.72716.65451-5.018"/><path class="cls-3" d="M601.44945,26.9023s1.96356,2.61808,2.509.54544-1.52721-6.10884-4.14528-5.12707-.87269,2.509-.87269,2.509"/><circle class="cls-4" cx="589.46167" cy="36.611" r="0.66624"/><rect class="cls-11" x="131.68447" y="133.7879" width="106.96586" height="152.03952"/><rect class="cls-3" x="129.03583" y="136.25019" width="106.96586" height="152.03952"/><path class="cls-13" d="M190.35525,241.37857a49.36511,49.36511,0,0,1,2.9866-11.166,148.59978,148.59978,0,0,1,7.13022-13.75114c2.67384-4.58372,9.63365-10.31632,7.62715-25.70147-2.09228-16.04294-19.85038-25.86531-39.33117-19.11707s-17.18892,32.34065-8.27615,42.90866,14.71822,27.43071,14.71822,27.43071Z"/><path class="cls-3" d="M178.65559,242.24511s5.12736-34.1693-.475-39.89894-15.01434,7.16153-5.82093,9.87794c10.4233,3.0798,21.5198,1.23474,24.33686-5.43841.98042-2.32245-1.52317-9.24483-7.93242-4.61592-6.35011,4.58618,2.01733,40.6298,2.01733,40.6298s.87132-7.27651,2.9866-12.07671a148.59935,148.59935,0,0,1,7.13023-13.75114c2.67383-4.58371,9.63364-10.31631,7.62714-25.70146-2.09228-16.043-19.85038-25.86532-39.33116-19.11707s-17.18893,32.34064-8.27615,42.90865,14.71821,27.43071,14.71821,27.43071,17.74976.32622,18.25906.32622-18.14532,2.23639-18.14532,2.23639l18.08026.74056-18.133,1.21857,17.48591,1.88029-17.74444,1.55653s17.82,1.28044,18.67833,1.764-18.347.69688-18.347.69688"/><path class="cls-10" d="M213.461,272.49636l.01381-.0099c-.84693-2.16569-1.72564-5.08689-.8718-6.28176a41.08684,41.08684,0,0,1,6.00589-6.86376c2.5735-2.28784,1.144-15.72937,0-19.4473a5.37011,5.37011,0,0,0-.51258-1.09424c.28416,4.20253,1.46406,10.59839-.05941,13.39179-1.716,3.14594-4.86191,12.58354-8.86584,14.8715,0,0-4.57591-.858-6.00589-.572s-7.43586-.858-8.29339-.858a23.14315,23.14315,0,0,1-5.63608-2.11963l-2.82356,7.588C209.46811,277.90908,213.461,272.49636,213.461,272.49636Z"/><path class="cls-10" d="M218.09631,238.7994c-.03592-.53031-.05941-1.031-.05941-1.4796,0-4.00381-6.86387-10.00971-9.43783-9.72371s-7.09025-6.94255-14.58527-1.14386c-4.24513,3.28433-11.72579,9.72359-10.86781,14.0134.858,4.28992-.572,9.72359.286,12.58354s2.288,4.57592,2.288,7.14976c0,1.14006,1.628,2.33516,3.51575,3.31415a23.14315,23.14315,0,0,0,5.63608,2.11963c.85753,0,6.86342,1.144,8.29339.858s6.00589.572,6.00589.572c4.00393-2.288,7.14988-11.72556,8.86584-14.8715C219.56037,249.39779,218.38047,243.00193,218.09631,238.7994Z"/><path class="cls-10" d="M244.6335,193.84939c1.43-3.43182-.858-5.14768-3.43147-5.43367-2.574-.286-4.00393,4.86168-4.00393,4.86168s-4.57592-6.29166-6.00589-4.57569c-1.43,1.71586,3.14594,3.14583.858,10.00959-1.51333,4.53954-.64936,9.19282.19159,12.0796,2.993-3.31462,10.48693-1.15354,11.88053-.71349,1.37424-2.91821,3.40522-7.09587,4.80112-9.36415C251.21139,196.99533,244.6335,193.84939,244.6335,193.84939Z"/><path class="cls-10" d="M134.66,208.6814c-.44581-3.82881-.89713-10.14372.44165-13.39536,2.002-4.8618-2.7683-7.267-4.49854-.46134,0,0-4.26782-2.42233-3.3449-3.34513.92246-.92281,2.65271-1.961.69173-2.307-1.961-.34609-6.80539,1.38415-5.76733,3.69111s1.84584,2.88378.69219,3.22988c-1.15365.346-4.96,1.73024-3.80636,3.34512,1.15319,1.61488,2.7683,1.49952,1.49952,2.7683s-2.65317,2.07634-1.15365,3.57586a19.61863,19.61863,0,0,0,4.38341,2.88367l3.59266,6.73676C129.14731,212.8692,132.62438,210.1534,134.66,208.6814Z"/><path class="cls-10" d="M244.34751,210.15086s-.07921-.0274-.2252-.07345c-1.3936-.44-8.88749-2.60113-11.88053.71349-.06448.07173-.13126.141-.19159.218,0,0,6.00589,49.47607-3.71793,56.91182a8.82635,8.82635,0,0,0-6.00589,2.57384c-2.28658,2.57246-.5743-3.99552-8.85157,1.992l-.01381.0099s-3.99288,5.41272-27.04885-1.39532c-.041-.01209-.07922-.02234-.1202-.03454,0,0-14.87174-4.8618-19.44719-7.43575-4.57592-2.57395.858-6.57765-8.86584-7.72163,0,0-17.44523-44.04229-21.73515-48.33221,0,0-.64153.42278-1.58379,1.10449-2.03559,1.472-5.51266,4.1878-7.26962,6.72191a7.09914,7.09914,0,0,0-.87,1.6112s14.87127,39.4666,23.45065,51.19216c8.57985,11.72556,9.43783,30.88675,13.72775,34.60468,4.28993,3.71782-8.57984,57.19782-2.002,66.63542a11.92316,11.92316,0,0,0,2.49935,2.541c10.05633,7.80211,38.56647,11.63346,59.56015,4.89462a32.63375,32.63375,0,0,0,2.58086-2.90232c2.01256-2.53044,4.51881-6.3863,4.855-10.2531.572-6.57777-1.43-59.19978,1.43-68.63738,0,0,14.58528-19.7333,15.44326-39.75248C248.92343,235.31784,244.34751,210.15086,244.34751,210.15086Z"/><path class="cls-10" d="M154.11637,538.26778c-.99016,5.10876.47942,11.49022,7.62422,12.511,6.075.86778,11.53282-7.32579,16.08157-12.98881,3.01607-3.75478,6.22833-4.99547,6.80355-6.80378.94733-2.97692-4.41059-5.24324-8.20543-6.4495-1.103,5.43033-2.02914,9.09967-2.65869,10.044C170.25458,539.84121,155.46436,538.41,154.11637,538.26778Z"/><path class="cls-10" d="M213.27032,539.17481c-.4329-.72167-1.365-5.20916-2.4252-11.33652a8.423,8.423,0,0,0-2.71534,2.117c-1.29549,1.53072.59226,6.19311,2.67988,9.8963,1.56814,2.78143,1.61972,5.978,2.06184,7.21607,1.03068,2.88643,15.25674,4.32965,19.17409,2.26781,2.28151-1.20062,1.48523-6.45491.42323-10.63592C228.07021,544.8178,214.58793,541.37043,213.27032,539.17481Z"/><path class="cls-10" d="M224.29609,451.42816c-.782-7.82,5.08942-50.9095,2.04111-77.44807a32.63375,32.63375,0,0,1-2.58086,2.90232c-20.99368,6.73884-49.50382,2.90749-59.56015-4.89462-.992,12.82671-2.39987,34.10834-1.46037,41.30968,1.37839,10.56627,1.37839,51.45351-5.0535,64.31683-6.43189,12.86344-3.6751,60.64173-3.6751,60.64173l.10915.01175c1.348.14219,16.13821,1.57343,19.64522-3.68708.62955-.94434,1.5557-4.61368,2.65869-10.044,5.33442-26.26893,14.79851-93.78179,14.79851-93.78179l3.21594-16.53865s11.94455,62.01989,11.48539,72.12688c-.315,6.93112,2.61033,28.12145,4.925,41.49516,1.06017,6.12736,1.9923,10.61485,2.4252,11.33652,1.31761,2.19562,14.79989,5.643,19.1985-.47528a6.613,6.613,0,0,0,.55587-.90288C236.70026,530.44609,225.21487,460.61626,224.29609,451.42816Z"/><path class="cls-11" d="M214.96139,271.20955l.01382-.00991c-.84693-2.16568-1.72564-5.08688-.8718-6.28175a41.086,41.086,0,0,1,6.00589-6.86376c2.57349-2.28785,1.144-15.72937,0-19.44731a5.37089,5.37089,0,0,0-.51258-1.09424c.28415,4.20254,1.464,10.59839-.05941,13.39179-1.716,3.14595-4.86191,12.58355-8.86584,14.8715,0,0-4.57592-.858-6.00589-.572s-7.43587-.858-8.29339-.858a23.14315,23.14315,0,0,1-5.63608-2.11963l-2.82357,7.588C210.96852,276.62226,214.96139,271.20955,214.96139,271.20955Z"/><path class="cls-4" d="M219.59672,237.51258c-.03592-.53031-.05941-1.031-.05941-1.47959,0-4.00382-6.86388-10.00971-9.43783-9.72371s-7.09026-6.94255-14.58528-1.14387c-4.24512,3.28433-11.72578,9.7236-10.8678,14.0134.858,4.28993-.572,9.7236.286,12.58355s2.288,4.57591,2.288,7.14975c0,1.14007,1.628,2.33517,3.51576,3.31416a23.14315,23.14315,0,0,0,5.63608,2.11963c.85752,0,6.86341,1.144,8.29339.858s6.00589.572,6.00589.572c4.00393-2.288,7.14987-11.72555,8.86584-14.8715C221.06077,248.111,219.88087,241.71512,219.59672,237.51258Z"/><path class="cls-11" d="M246.13391,192.56258c1.43-3.43183-.858-5.14768-3.43148-5.43368-2.57395-.286-4.00393,4.86169-4.00393,4.86169s-4.57591-6.29166-6.00589-4.57569c-1.43,1.71585,3.14595,3.14583.858,10.00959-1.51333,4.53953-.64936,9.19282.19158,12.0796,2.99305-3.31462,10.48694-1.15354,11.88053-.71349,1.37425-2.91821,3.40523-7.09588,4.80112-9.36415C252.71179,195.70852,246.13391,192.56258,246.13391,192.56258Z"/><path class="cls-11" d="M136.16037,207.39459c-.4458-3.82881-.89713-10.14373.44166-13.39536,2.002-4.8618-2.7683-7.267-4.49855-.46135,0,0-4.26781-2.42232-3.34489-3.34512.92246-.92281,2.6527-1.961.69173-2.307-1.961-.3461-6.80539,1.38415-5.76734,3.69111s1.84584,2.88378.69219,3.22987c-1.15365.346-4.96,1.73025-3.80635,3.34513,1.15319,1.61488,2.7683,1.49951,1.49951,2.7683s-2.65316,2.07634-1.15365,3.57586a19.61906,19.61906,0,0,0,4.38341,2.88366l3.59267,6.73677C130.64772,211.58238,134.12479,208.86658,136.16037,207.39459Z"/><path class="cls-13" d="M245.84792,208.86405s-.07922-.0274-.22521-.07345c-1.39359-.44005-8.88748-2.60113-11.88053.71349-.06447.07172-.13125.141-.19158.218,0,0,6.00589,49.47607-3.71794,56.91182a8.82635,8.82635,0,0,0-6.00589,2.57384c-2.28657,2.57245-.57429-3.99553-8.85156,1.99194l-.01382.00991s-3.99287,5.41271-27.04885-1.39532c-.041-.01209-.07921-.02234-.1202-.03454,0,0-14.87173-4.8618-19.44719-7.43575-4.57591-2.574.858-6.57766-8.86584-7.72163,0,0-17.44522-44.04229-21.73514-48.33221,0,0-.64153.42277-1.5838,1.10449-2.03558,1.472-5.51265,4.18779-7.26961,6.72191a7.09921,7.09921,0,0,0-.87,1.6112s14.87127,39.4666,23.45066,51.19215c8.57984,11.72556,9.43783,30.88676,13.72775,34.60469,4.28992,3.71782-8.57984,57.19782-2.002,66.63542a11.92356,11.92356,0,0,0,2.49934,2.541c10.05634,7.80211,38.56648,11.63345,59.56016,4.89461a32.632,32.632,0,0,0,2.58086-2.90232c2.01256-2.53043,4.51881-6.38629,4.855-10.2531.572-6.57776-1.43-59.19978,1.43-68.63738,0,0,14.58527-19.7333,15.44326-39.75247C250.42383,234.031,245.84792,208.86405,245.84792,208.86405Z"/><path class="cls-4" d="M155.61677,536.981c-.99016,5.10876.47942,11.49023,7.62423,12.511,6.075.86777,11.53282-7.3258,16.08157-12.98882,3.01607-3.75477,6.22833-4.99546,6.80354-6.80377.94733-2.97693-4.41058-5.24324-8.20542-6.44951-1.103,5.43033-2.02914,9.09968-2.6587,10.044C171.755,538.5544,156.96477,537.12315,155.61677,536.981Z"/><path class="cls-4" d="M214.77073,537.888c-.43291-.72167-1.365-5.20916-2.4252-11.33652a8.42281,8.42281,0,0,0-2.71534,2.117c-1.2955,1.53072.59225,6.1931,2.67988,9.8963,1.56813,2.78142,1.61972,5.978,2.06183,7.21607,1.03069,2.88643,15.25675,4.32965,19.17409,2.26781,2.28151-1.20062,1.48524-6.45492.42324-10.63592C229.57062,543.531,216.08833,540.08362,214.77073,537.888Z"/><path class="cls-10" d="M225.7965,450.14135c-.782-7.82,5.08942-50.9095,2.04111-77.44808a32.632,32.632,0,0,1-2.58086,2.90232c-20.99368,6.73884-49.50382,2.9075-59.56016-4.89461-.992,12.82671-2.39987,34.10834-1.46037,41.30968,1.3784,10.56626,1.3784,51.45351-5.05349,64.31683-6.43189,12.86344-3.67511,60.64173-3.67511,60.64173l.10915.01174c1.348.14219,16.13822,1.57344,19.64522-3.68707.62956-.94434,1.5557-4.61369,2.6587-10.044,5.33442-26.26892,14.7985-93.78178,14.7985-93.78178l3.21595-16.53866s11.94454,62.0199,11.48538,72.12689c-.315,6.93111,2.61034,28.12144,4.925,41.49516,1.06016,6.12736,1.99229,10.61485,2.4252,11.33652,1.3176,2.19562,14.79989,5.643,19.1985-.47528a6.61247,6.61247,0,0,0,.55587-.90289C238.20066,529.15928,226.71527,459.32945,225.7965,450.14135Z"/><path class="cls-3" d="M213.24959,271.6703l.01382-.0099c-.84693-2.16569-1.72564-5.08689-.8718-6.28175a41.086,41.086,0,0,1,6.00589-6.86377c2.57349-2.28784,1.144-15.72937,0-19.4473a5.37011,5.37011,0,0,0-.51258-1.09424c.28415,4.20253,1.46406,10.59839-.05941,13.39179-1.716,3.14594-4.86191,12.58354-8.86584,14.8715,0,0-4.57592-.858-6.00589-.572s-7.43587-.858-8.29339-.858a23.14289,23.14289,0,0,1-5.63608-2.11964l-2.82356,7.588C209.25672,277.083,213.24959,271.6703,213.24959,271.6703Z"/><path class="cls-3" d="M217.88492,237.97334c-.03592-.53031-.05941-1.031-.05941-1.4796,0-4.00381-6.86387-10.0097-9.43783-9.72371s-7.09025-6.94255-14.58527-1.14386c-4.24513,3.28433-11.72579,9.72359-10.86781,14.0134.858,4.28992-.572,9.72359.286,12.58354s2.288,4.57592,2.288,7.14976c0,1.14006,1.628,2.33516,3.51576,3.31415a23.14289,23.14289,0,0,0,5.63608,2.11964c.85752,0,6.86342,1.144,8.29339.858s6.00589.572,6.00589.572c4.00393-2.288,7.14987-11.72556,8.86584-14.8715C219.349,248.57173,218.16907,242.17587,217.88492,237.97334Z"/><path class="cls-3" d="M244.42211,193.02333c1.43-3.43182-.858-5.14768-3.43148-5.43367-2.57395-.286-4.00392,4.86168-4.00392,4.86168s-4.57592-6.29165-6.0059-4.57569c-1.43,1.71586,3.14595,3.14583.858,10.00959-1.51333,4.53954-.64936,9.19283.19158,12.0796,2.993-3.31461,10.48694-1.15353,11.88053-.71349,1.37425-2.91821,3.40523-7.09587,4.80112-9.36414C251,196.16927,244.42211,193.02333,244.42211,193.02333Z"/><path class="cls-3" d="M134.44857,207.85534c-.4458-3.82881-.89713-10.14372.44166-13.39536,2.002-4.86179-2.7683-7.267-4.49855-.46134,0,0-4.26781-2.42232-3.34489-3.34513.92246-.9228,2.6527-1.961.69173-2.307-1.961-.3461-6.80539,1.38415-5.76734,3.6911s1.84585,2.88378.6922,3.22988c-1.15366.346-4.96,1.73024-3.80636,3.34513,1.15319,1.61488,2.7683,1.49951,1.49951,2.7683s-2.65316,2.07634-1.15365,3.57585a19.61884,19.61884,0,0,0,4.38342,2.88367l3.59266,6.73677C128.93592,212.04314,132.413,209.32734,134.44857,207.85534Z"/><path class="cls-3" d="M244.13612,209.32481s-.07922-.0274-.22521-.07346c-1.39359-.44-8.88748-2.60112-11.88053.71349-.06447.07173-.13125.141-.19158.218,0,0,6.00589,49.47607-3.71793,56.91182a8.82637,8.82637,0,0,0-6.0059,2.57384c-2.28657,2.57246-.57429-3.99552-8.85156,1.99195l-.01382.0099s-3.99287,5.41272-27.04884-1.39532c-.041-.01209-.07922-.02233-.12021-.03454,0,0-14.87173-4.86179-19.44718-7.43575-4.57592-2.57395.858-6.57765-8.86584-7.72163,0,0-17.44523-44.04228-21.73515-48.33221,0,0-.64153.42278-1.5838,1.10449-2.03558,1.472-5.51265,4.1878-7.26961,6.72192a7.09955,7.09955,0,0,0-.87,1.61119s14.87127,39.4666,23.45066,51.19216c8.57985,11.72556,9.43783,30.88675,13.72775,34.60468,4.28992,3.71782-8.57984,57.19782-2.002,66.63542a11.92336,11.92336,0,0,0,2.49934,2.541c10.05634,7.80211,38.56648,11.63345,59.56016,4.89461a32.63375,32.63375,0,0,0,2.58086-2.90232c2.01256-2.53043,4.51881-6.3863,4.855-10.2531.572-6.57777-1.43-59.19978,1.43-68.63738,0,0,14.58527-19.7333,15.44326-39.75248C248.712,234.49178,244.13612,209.32481,244.13612,209.32481Z"/><path class="cls-3" d="M153.905,537.44172c-.99016,5.10876.47942,11.49022,7.62423,12.511,6.075.86777,11.53282-7.3258,16.08157-12.98882,3.01607-3.75478,6.22833-4.99547,6.80354-6.80378.94733-2.97692-4.41058-5.24323-8.20542-6.4495-1.103,5.43033-2.02914,9.09968-2.6587,10.044C170.04319,539.01515,155.253,537.58391,153.905,537.44172Z"/><path class="cls-3" d="M213.05893,538.34875c-.43291-.72166-1.365-5.20916-2.4252-11.33652a8.42284,8.42284,0,0,0-2.71534,2.117c-1.29549,1.53071.59226,6.1931,2.67988,9.89629,1.56814,2.78143,1.61972,5.978,2.06183,7.21608,1.03069,2.88643,15.25675,4.32964,19.17409,2.26781,2.28151-1.20063,1.48524-6.45492.42324-10.63593C227.85882,543.99174,214.37653,540.54437,213.05893,538.34875Z"/><path class="cls-3" d="M224.0847,450.6021c-.782-7.82,5.08942-50.9095,2.04111-77.44807a32.63375,32.63375,0,0,1-2.58086,2.90232c-20.99368,6.73884-49.50382,2.9075-59.56016-4.89461-.992,12.8267-2.39987,34.10834-1.46037,41.30967,1.3784,10.56627,1.3784,51.45352-5.05349,64.31684-6.43189,12.86343-3.6751,60.64173-3.6751,60.64173l.10914.01174c1.348.14219,16.13822,1.57343,19.64522-3.68708.62956-.94433,1.55571-4.61368,2.6587-10.044,5.33442-26.26893,14.7985-93.78179,14.7985-93.78179l3.216-16.53865s11.94454,62.01989,11.48539,72.12689c-.315,6.93111,2.61033,28.12144,4.925,41.49515,1.06016,6.12736,1.99229,10.61486,2.4252,11.33652,1.3176,2.19562,14.79989,5.643,19.1985-.47528a6.61235,6.61235,0,0,0,.55587-.90288C236.48886,529.62,225.00348,459.7902,224.0847,450.6021Z"/><path class="cls-3" d="M217.88492,237.97334l2.72972,2.17794a2.84151,2.84151,0,0,1,.84666,3.32384l-1.51048,3.58739"/><polygon class="cls-10" points="662.161 157.396 676.201 192.935 662.161 206.097 662.161 157.396"/><path class="cls-12" d="M676.20067,192.93479s8.33617,5.70369,7.45868,11.40739-21.49855,19.74356-21.49855,19.74356V206.09716Z"/><polygon class="cls-3" points="662.161 156.958 676.201 192.496 662.161 205.658 662.161 156.958"/><path class="cls-3" d="M676.20067,192.496s8.33617,5.7037,7.45868,11.40739S662.1608,223.647,662.1608,223.647V205.65841Z"/></svg>