<svg id="Layer_1" data-name="Layer 1" xmlns="http://www.w3.org/2000/svg" xmlns:xlink="http://www.w3.org/1999/xlink" viewBox="0 0 607.98642 515.18767"><defs><style>.cls-1,.cls-3,.cls-9{fill:none;}.cls-2{clip-path:url(#clip-path);}.cls-3{stroke:#e0635c;}.cls-3,.cls-9{stroke-miterlimit:10;stroke-width:1.8px;}.cls-4{fill:#e6827d;}.cls-5{fill:#eca19d;}.cls-6{fill:#e0635c;}.cls-7{fill:#fae0de;}.cls-8{fill:#ba3932;}.cls-9{stroke:#ba3932;}</style><clipPath id="clip-path"><rect class="cls-1" width="607.98642" height="516.61244"/></clipPath></defs><g class="cls-2"><circle class="cls-3" cx="337.97747" cy="120.87493" r="111.91214"/><circle class="cls-3" cx="162.47619" cy="507.52189" r="50.78721"/><path class="cls-3" d="M195.22871,521.98257,155.84656,332.9258a3.03319,3.03319,0,0,0-3.6-2.36356,3.14093,3.14093,0,0,0-1.40144.70743L6.80822,459.88107a3.03351,3.03351,0,0,0-.25459,4.29411,2.86974,2.86974,0,0,0,1.34088.842L191.31582,525.522a3.061,3.061,0,0,0,3.85472-1.93058A2.969,2.969,0,0,0,195.22871,521.98257Z"/><path class="cls-3" d="M491.24268,247.15133l60.32674,33.15721a3.36986,3.36986,0,0,1,1.31806,4.59587l-33.15722,60.32671a3.36993,3.36993,0,0,1-4.59591,1.3181L454.80759,313.392a3.36987,3.36987,0,0,1-1.31806-4.59588l33.17788-60.28389A3.36732,3.36732,0,0,1,491.24268,247.15133Z"/><path class="cls-1" d="M356.74624,93.76811a4.21926,4.21926,0,0,1-2.86546.63762,8.22608,8.22608,0,0,1-3.61639-2.422l-2.39729,3.95966,7.90594,8.89433,2.27349-1.11465a1.00626,1.00626,0,0,1,1.29452.367l1.82317,2.8916,2.25793-9.87941a4.42063,4.42063,0,0,1-3.73328-2.48907c-.37719-.7543.04895-2.37087.61674-4.30093A9.65777,9.65777,0,0,1,356.74624,93.76811Z"/><path class="cls-1" d="M347.3137,95.70774a1.89085,1.89085,0,0,1,.5534.2356l-.56779-.31031Z"/><path class="cls-4" d="M329.58422,203.16936s-.11345-.20047-.28908-.5249l-15.5228,125.21709,32.69264-9.195L350.11352,301.14l6.42563,19.11655,32.69455,14.76528-14.53627-70.22316,10.05792-62.346C374.94217,205.21667,349.49447,210.9774,329.58422,203.16936Z"/><path class="cls-5" d="M388.47136,82.17964a12.798,12.798,0,0,0-1.818-.8414l-1.45173-1.45195.41462-10.99333c-2.10131.87552-11.00233-3.275-13.725-4.58944-1.14538,2.799-3.507,8.33921-4.73527,9.56751a73.58574,73.58574,0,0,1-6.84521,5.18552,8.632,8.632,0,0,1,.53957.9529c1.19433.8938,1.91588,1.57886,1.94986,1.951.12093,1.3321-.748,4.14891-1.49205,6.26274a10.94183,10.94183,0,0,1-1.00257,2.08906c-.56779,1.93006-.99393,3.54663-.61674,4.30093a4.42063,4.42063,0,0,0,3.73328,2.48907l-2.25793,9.87941,1.43906,2.2832a3.7042,3.7042,0,0,0,4.3506,1.52343l16.325-5.67824.67836-4.06685-.44917-1.515-1.21045-4.08534s3.11136-4.56324,3.11136-6.01519C385.409,88.09858,393.741,85.20526,388.47136,82.17964Z"/><polygon class="cls-6" points="345.169 84.45 345.926 88.421 347.299 95.633 347.867 95.943 350.264 91.984 351.184 90.465 352.844 86.939 345.169 84.45"/><path class="cls-5" d="M347.3137,95.70774l-.01439-.07471-1.37342-7.21189-.75668-3.97162s-7.67444-3.941-9.12676-2.48907a2.80875,2.80875,0,0,0-.64323,1.02532c-.50387,1.33447-.11287,2.99215-.60119,4.78249-.6225,2.28162-4.97829,10.78594-4.7704,13.06756.00288.03261.0167.06515.02188.09775.34839,2.24858,5.57833,4.46549,5.57833,4.46549s8.29694-10.371,12.03023-7.882Z"/><path class="cls-5" d="M321.67655,47.275c-2.32013-.7836-5.40787.18442-9.69455,2.53521-11.21885,6.1521-18.67044,31.32058-8.71214,31.32058,3.84614,0,7.23564-2.55,10.11665-6.193a38.55421,38.55421,0,0,0,2.88735-4.25241,6.22069,6.22069,0,0,1-1.22946-.64647c-2.44336-1.65862-3.53806-4.94107-.57355-7.57605,2.58042-2.29371,4.862-1.41718,6.02634-.65669.03052.02.05529.03894.08465.05873q.15376-.37617.30118-.74724c1.45116-3.63776,2.50152-6.937,3.11481-9.01929A3.89631,3.89631,0,0,0,321.67655,47.275Z"/><path class="cls-7" d="M362.80023,81.96045c-.034-.37214-.75553-1.0572-1.94986-1.951-6.12711-4.58634-28.30855-16.81063-33.06283-19.76586-4.57173-2.84178-3.78971-8.14521-3.78971-8.14521a36.05085,36.05085,0,0,1-3.11481,9.01929q-.1477.37174-.30118.74724a68.18222,68.18222,0,0,1-4.308,8.82048,38.55421,38.55421,0,0,1-2.88735,4.25241c5.5455.56233,14.51966,4.40193,22.01271,8.048a2.80875,2.80875,0,0,1,.64323-1.02532c1.45232-1.45195,9.12676,2.48907,9.12676,2.48907l7.67445,2.48907L351.184,90.46471l-.91965,1.519a8.22608,8.22608,0,0,0,3.61639,2.422,4.21926,4.21926,0,0,0,2.86546-.63762,9.65777,9.65777,0,0,0,3.55937-3.45586,10.94183,10.94183,0,0,0,1.00257-2.08906C362.05219,86.10936,362.92116,83.29255,362.80023,81.96045Z"/><path class="cls-8" d="M320.49719,61.80618c-1.16438-.76049-3.44592-1.637-6.02634.65669-2.96451,2.635-1.86981,5.91743.57355,7.57605a6.22069,6.22069,0,0,0,1.22946.64647,68.18222,68.18222,0,0,0,4.308-8.82048C320.55248,61.84512,320.52771,61.82619,320.49719,61.80618Z"/><path class="cls-5" d="M287.29846,83.205s.11287.05025.27756.12324a6.00305,6.00305,0,0,0-2.97372-1.36781c-7.675,2.07424-8.91945-.82966-9.74926,1.03712-.82923,1.86679,3.31924,5.18552,3.31924,5.18552s-6.84521,2.69652-17.2164,1.65941c-10.37061-1.03712-8.50425,1.65933-8.50425,1.65933s10.99368,4.5633,21.57218,5.8078c4.3719.51439,6.9552-.10977,8.50137-1.01358l-1.44943-.64575S287.29846,85.18151,287.29846,83.205Z"/><path class="cls-6" d="M386.9033,103.84943l-3.62445,1.26062-16.325,5.67824a3.7042,3.7042,0,0,1-4.3506-1.52343l-1.43906-2.2832-1.82317-2.8916a1.00626,1.00626,0,0,0-1.29452-.367l-2.27349,1.11465-7.90594-8.89433a1.89085,1.89085,0,0,0-.5534-.2356l.34437,1.80935c-3.73329-2.48907-12.03023,7.882-12.03023,7.882s-5.22994-2.21691-5.57833-4.46549C321.312,98.28809,290.658,84.69793,287.576,83.32826c-.16469-.073-.27756-.12324-.27756-.12324,0,1.97649-6.22271,12.44528-6.22271,12.44528l1.44943.64575,19.50025,8.68817,38.9239,21.101s-6.36207,23.38246-10.37694,41.50684c-3.215,14.51548-4.22737,24.37624-4.44677,25.69474-.41347,2.47834,2.27406,7.70482,3.16952,9.35767.17563.32443.28908.5249.28908.5249,19.91025,7.808,45.35795,2.04731,55.17113-.71666,2.6069-.73436,4.12429-1.2599,4.12429-1.2599s3.03419-17.79787,2.471-21.74163c-1.48283-10.37672,4.44677-47.43636,8.89411-57.81309S386.9033,103.84943,386.9033,103.84943Z"/><path class="cls-5" d="M398.81432,62.25549l-3.11135.20738s-4.14848-4.35585-6.63791-5.80781c-2.48885-1.45195-8.50425-3.11128-8.50425-3.11128L377.45,52.50666s.41461,3.52619-1.245,3.11129c-1.659-.41484-7.25925-1.65934-7.25925-1.65934l-2.48943,2.69645s0,5.393,2.28155,7.25976c0,0,.29253.14613.79468.3887,2.72265,1.3144,11.62367,5.465,13.725,4.58944l-.41461,10.99333,1.45173,1.45195a12.79725,12.79725,0,0,1,1.818.8414c5.26967,3.02562-3.0624,5.91894-3.0624,7.248,0,1.45195-3.11136,6.01519-3.11136,6.01519l1.21045,4.08534a.415.415,0,0,0,.24129.06306c1.24442-.20738,15.14216-9.33392,16.59389-14.31206,1.45174-4.97807,2.28155-4.56324,1.86693-6.22264C399.43625,77.39722,403.1701,65.36677,398.81432,62.25549Z"/><path class="cls-1" d="M352.58443,93.76811a4.21927,4.21927,0,0,1-2.86547.63762,8.22611,8.22611,0,0,1-3.61638-2.422l-2.39729,3.95966,7.90594,8.89433,2.27348-1.11465a1.00627,1.00627,0,0,1,1.29453.367l1.82316,2.8916,2.25794-9.87941a4.42062,4.42062,0,0,1-3.73328-2.48907c-.37719-.7543.04895-2.37087.61674-4.30093A9.65777,9.65777,0,0,1,352.58443,93.76811Z"/><path class="cls-1" d="M343.15189,95.70774a1.891,1.891,0,0,1,.5534.2356l-.5678-.31031Z"/><path class="cls-9" d="M325.42241,203.16936s-.11345-.20047-.28909-.5249l-15.5228,125.21709,32.69265-9.195L345.95171,301.14l6.42563,19.11655,32.69455,14.76528-14.53627-70.22316,10.05792-62.346C370.78036,205.21667,345.33266,210.9774,325.42241,203.16936Z"/><path class="cls-9" d="M397.01122,62.25549l-3.11135.20738s-4.14848-4.35585-6.63791-5.80781c-2.48885-1.45195-8.50425-3.11128-8.50425-3.11128l-3.11078-1.03712s.41461,3.52619-1.245,3.11129c-1.659-.41484-7.25925-1.65934-7.25925-1.65934l-2.48943,2.69645s0,5.393,2.28155,7.25976c0,0,.29253.14613.79468.3887,2.72265,1.3144,11.62367,5.465,13.725,4.58944l-.41461,10.99333,1.45173,1.45195a12.79725,12.79725,0,0,1,1.818.8414c5.26967,3.02562-3.0624,5.91894-3.0624,7.248,0,1.45195-3.11136,6.01519-3.11136,6.01519l1.21045,4.08534a.415.415,0,0,0,.24129.06306c1.24442-.20738,15.14216-9.33392,16.59389-14.31206,1.45174-4.97807,2.28155-4.56324,1.86693-6.22264C397.63315,77.39722,401.367,65.36677,397.01122,62.25549Z"/><path class="cls-9" d="M384.30954,82.17964a12.79725,12.79725,0,0,0-1.818-.8414l-1.45173-1.45195.41461-10.99333c-2.1013.87552-11.00232-3.275-13.725-4.58944-1.14538,2.799-3.507,8.33921-4.73527,9.56751a73.58551,73.58551,0,0,1-6.84522,5.18552,8.63087,8.63087,0,0,1,.53958.9529c1.19433.8938,1.91588,1.57886,1.94985,1.951.12093,1.3321-.748,4.14891-1.492,6.26274a10.94242,10.94242,0,0,1-1.00257,2.08906c-.56779,1.93006-.99393,3.54663-.61674,4.30093a4.42062,4.42062,0,0,0,3.73328,2.48907l-2.25794,9.87941,1.43907,2.2832a3.7042,3.7042,0,0,0,4.3506,1.52343l16.325-5.67824.67836-4.06685-.44917-1.515-1.21045-4.08534s3.11136-4.56324,3.11136-6.01519C381.24714,88.09858,389.57921,85.20526,384.30954,82.17964Z"/><polygon class="cls-9" points="341.007 84.45 341.764 88.421 343.137 95.633 343.705 95.943 346.103 91.984 347.022 90.465 348.682 86.939 341.007 84.45"/><path class="cls-9" d="M343.15189,95.70774l-.0144-.07471-1.37341-7.21189-.75668-3.97162s-7.67445-3.941-9.12676-2.48907a2.80875,2.80875,0,0,0-.64323,1.02532c-.50388,1.33447-.11287,2.99215-.6012,4.78249-.6225,2.28162-4.97828,10.78594-4.7704,13.06756.00288.03261.0167.06515.02189.09775.34839,2.24858,5.57832,4.46549,5.57832,4.46549s8.29695-10.371,12.03023-7.882Z"/><path class="cls-9" d="M317.51474,47.275c-2.32013-.7836-5.40788.18442-9.69456,2.53521-11.21884,6.1521-18.67043,31.32058-8.71214,31.32058,3.84615,0,7.23565-2.55,10.11666-6.193a38.55421,38.55421,0,0,0,2.88735-4.25241,6.22041,6.22041,0,0,1-1.22946-.64647c-2.44336-1.65862-3.53806-4.94107-.57355-7.57605,2.58041-2.29371,4.862-1.41718,6.02634-.65669.03052.02.05528.03894.08465.05873q.15375-.37617.30118-.74724c1.45116-3.63776,2.50152-6.937,3.11481-9.01929A3.89631,3.89631,0,0,0,317.51474,47.275Z"/><path class="cls-9" d="M358.63841,81.96045c-.034-.37214-.75552-1.0572-1.94985-1.951-6.12712-4.58634-28.30855-16.81063-33.06283-19.76586-4.57173-2.84178-3.78971-8.14521-3.78971-8.14521a36.05085,36.05085,0,0,1-3.11481,9.01929q-.14772.37174-.30118.74724a68.18222,68.18222,0,0,1-4.308,8.82048,38.55421,38.55421,0,0,1-2.88735,4.25241c5.5455.56233,14.51966,4.40193,22.01271,8.048a2.80875,2.80875,0,0,1,.64323-1.02532c1.45231-1.45195,9.12676,2.48907,9.12676,2.48907l7.67445,2.48907-1.65962,3.52612-.91965,1.519a8.22611,8.22611,0,0,0,3.61638,2.422,4.21927,4.21927,0,0,0,2.86547-.63762,9.65777,9.65777,0,0,0,3.55937-3.45586,10.94242,10.94242,0,0,0,1.00257-2.08906C357.89038,86.10936,358.75934,83.29255,358.63841,81.96045Z"/><path class="cls-9" d="M316.33538,61.80618c-1.16438-.76049-3.44593-1.637-6.02634.65669-2.96451,2.635-1.86981,5.91743.57355,7.57605a6.22041,6.22041,0,0,0,1.22946.64647,68.18222,68.18222,0,0,0,4.308-8.82048C316.39066,61.84512,316.3659,61.82619,316.33538,61.80618Z"/><path class="cls-9" d="M283.13665,83.205s.11287.05025.27756.12324a6.00305,6.00305,0,0,0-2.97372-1.36781c-7.675,2.07424-8.91945-.82966-9.74926,1.03712-.82924,1.86679,3.31924,5.18552,3.31924,5.18552s-6.84522,2.69652-17.2164,1.65941c-10.37061-1.03712-8.50426,1.65933-8.50426,1.65933s10.99369,4.5633,21.57218,5.8078c4.37191.51439,6.9552-.10977,8.50138-1.01358l-1.44943-.64575S283.13665,85.18151,283.13665,83.205Z"/><path class="cls-9" d="M382.74148,103.84943l-3.62444,1.26062-16.325,5.67824a3.7042,3.7042,0,0,1-4.3506-1.52343l-1.43907-2.2832-1.82316-2.8916a1.00627,1.00627,0,0,0-1.29453-.367l-2.27348,1.11465-7.90594-8.89433a1.891,1.891,0,0,0-.5534-.2356l.34436,1.80935c-3.73328-2.48907-12.03023,7.882-12.03023,7.882s-5.22993-2.21691-5.57832-4.46549c-8.73748-2.64548-39.3915-16.23564-42.47349-17.60531-.16469-.073-.27756-.12324-.27756-.12324,0,1.97649-6.22271,12.44528-6.22271,12.44528l1.44943.64575,19.50025,8.68817,38.9239,21.101s-6.36207,23.38246-10.37694,41.50684c-3.215,14.51548-4.22737,24.37624-4.44677,25.69474-.41347,2.47834,2.27406,7.70482,3.16951,9.35767.17564.32443.28909.5249.28909.5249,19.91025,7.808,45.35795,2.04731,55.17113-.71666,2.6069-.73436,4.12429-1.2599,4.12429-1.2599s3.03419-17.79787,2.471-21.74163c-1.48283-10.37672,4.44677-47.43636,8.89411-57.81309S382.74148,103.84943,382.74148,103.84943Z"/><path class="cls-9" d="M343.49625,97.51709s15.26567,21.83637,19.10036,22.932,7.3955-.2739,13.14755-7.6694"/><path class="cls-9" d="M388.8917,129.488s-4.93033,20.543-21.09085,19.4474S331.466,105.39906,331.466,105.39906"/><path class="cls-9" d="M359.26034,97.10225s10.73177.33864,12.923-1.57871"/><path class="cls-9" d="M358.488,84.56725s8.21721,3.8347,5.75205,4.65642-7.09369-1.00048-7.09369-1.00048"/><path class="cls-9" d="M333.83637,81.82818s6.57377-6.026,5.752-13.14754"/><circle class="cls-8" cx="369.19285" cy="75.55079" r="1.392"/><path class="cls-9" d="M345.95171,301.14s-11.06421-21.85014-11.06421-28.36814,5.58686-50.28174,5.58686-50.28174"/><path class="cls-5" d="M249.72869,355.51151,399.6093,312.15768l14.03594,3.74307c-23.17825-9.17808-39.8067-15.83931-39.8067-15.83931s-144.10245,55.22181-201.42787,69.42172c-19.36261,4.79632-31.27825,6.53015-38.57781,6.7263l-1.91818.63661,10.08786,6.85968,5.16371-2.12635Z"/><path class="cls-4" d="M548.4453,512.00813c-.52633-4.20742-207.21351,11.57027-207.21351,11.57027s-232.98368-10.51846-240.87235-3.68146a10.17473,10.17473,0,0,0-1.22888,1.26163c-2.24987,2.75958-2.09842,5.86792-1.13386,8.57891,11.0196-4.99319,259.01242.67792,259.01242.67792L542.924,523.74151c2.57927-3.49027,5.409-8.38664,5.53457-11.14226A3.55364,3.55364,0,0,0,548.4453,512.00813Z"/><path class="cls-5" d="M563.69687,338.45376c-22.1083-21.56873-107.28849-16.8295-127.79937-21.56282-20.51087-4.73326-61.53262-25.24428-61.53262-25.24428l-251.391,79.41428s-3.45283,5.53305,10.85894,5.14852c7.29956-.19615,19.2152-1.93,38.57781-6.7263,57.32542-14.19991,201.42787-69.42172,201.42787-69.42172s16.62845,6.66123,39.8067,15.83931c16.80235,6.65316,37.04373,14.6272,56.90043,22.34995C511.4033,354.141,550.61,368.95726,554.75612,368.95726a20.27064,20.27064,0,0,0,5.12455-.76466C569.57062,365.56791,581.75287,356.0698,563.69687,338.45376Z"/><path class="cls-7" d="M572.93938,399.88345l-8.191-11.467s18.00762-8.051-4.86772-20.22381a20.27064,20.27064,0,0,1-5.12455.76466c-4.14617,0-43.35282-14.81629-84.21045-30.70656-19.8567-7.72275-40.09808-15.69679-56.90043-22.34995l-14.03594-3.74307L249.72869,355.51151,147.16625,381.5794l-5.16371,2.12635-30.59873,12.59947a4.19293,4.19293,0,0,0,1.5479,4.0022,32.48288,32.48288,0,0,1,9.49646-4.0022S307.04662,351.0759,340.1797,338.97966c33.13309-12.09617,53.644-3.15548,53.644-3.15548l167.1114,62.54167c4.48075,1.49312,8.06834,2.68868,10.533,3.51028A1.30235,1.30235,0,0,0,572.93938,399.88345Z"/><path class="cls-5" d="M571.05978,413.13471c-1.57785-2.10368-12.09645-7.88881-12.09645-7.88881l10.5186-3.68145-8.54687-3.1986-167.1114-62.54167s-20.51087-8.94069-53.644,3.15548c-33.13308,12.09624-217.73153,57.32556-217.73153,57.32556a32.48288,32.48288,0,0,0-9.49646,4.0022c-6.22329,4.03338-11.42673,11.55911-.84133,24.49941l4.55273-2.73144s212.47223-65.74026,224.04235-69.42172c11.57069-3.68145,83.09617,15.25172,87.30338,16.30359,3.10329.77583,68.85464,26.43947,103.15672,39.8578l25.16841,4.84562S572.63763,415.23839,571.05978,413.13471Z"/><path class="cls-4" d="M123.29352,422.45373a145.26932,145.26932,0,0,1,14.40622-2.482l235.61305-41.54787,128.36774,24.71449c-57.91106-17.83905-136.78217-42.59586-136.78217-42.59586Z"/><path class="cls-5" d="M118.87958,423.58472q2.06358-.58814,4.41394-1.131l241.60484-61.91125s78.87111,24.75681,136.78217,42.59586l29.485,5.67672c-34.30208-13.41833-100.05343-39.082-103.15672-39.8578-4.20721-1.05187-75.73269-19.985-87.30338-16.30359-11.57012,3.68146-224.04235,69.42172-224.04235,69.42172l-4.55273,2.73144c.11575.14166.22516.28116.34494.42412Z"/><path class="cls-5" d="M356.48337,467.30472c-13.67373-1.57778-178.8134,9.99255-206.16142,9.46658-27.348-.5259-45.22954,1.05188-45.22954,1.05188l1.25249,4.34117,1.86232,6.4555c20.45041-3.168,78.94424-7.20585,119.42526-7.64112,41.45076-.44579,109.71228-3.535,135.01486-3.50676a71.66883,71.66883,0,0,1,9.0876.35121c4.83547.85327,14.435,6.01223,22.23557,10.57136,9.383,1.29129,22.35937,3.04031,36.94525,4.904C406.762,483.89112,365.96082,468.39827,356.48337,467.30472Z"/><path class="cls-5" d="M371.73494,477.82318a71.66883,71.66883,0,0,0-9.0876-.35121c-25.30258-.02821-93.5641,3.061-135.01486,3.50676-40.481.43527-98.97485,4.47311-119.42526,7.64112-4.259.65964-6.86882,1.28164-7.322,1.82546-1.21966,1.46369-1.64292,4.28222-1.75118,6.887.85457-.385,1.7817-.75423,2.80327-1.10191l8.37757-.30261L378.57209,486.238s1.85483.26705,5.16716.73335c2.57984.36308,6.04535.84723,10.23126,1.42323C386.16995,483.83541,376.57041,478.67645,371.73494,477.82318Z"/><path class="cls-7" d="M565.22693,504.63083l-20.46366-.51158c-24.00633,0-74.71687-5.821-113.84751-10.82071-14.58588-1.86369-27.56224-3.61271-36.94525-4.904-4.18591-.576-7.65142-1.06015-10.23126-1.42323-3.31233-.4663-5.16716-.73335-5.16716-.73335l-268.25723,9.68987-8.37757.30261c-1.02157.34768-1.9487.71695-2.80327,1.10191-14.47014,6.5205-5.76433,18.06542-.00346,23.82622a10.17473,10.17473,0,0,1,1.22888-1.26163c7.88867-6.837,240.87235,3.68146,240.87235,3.68146S547.919,507.80071,548.4453,512.00813a3.55364,3.55364,0,0,1,.01325.59112l23.04308-4.46a1.695,1.695,0,0,0-.27973-3.35857Z"/><path class="cls-5" d="M123.29352,422.45373q-2.35295.54225-4.41394,1.131Z"/><path class="cls-5" d="M586.31135,448.37154c-.91215-3.34587-10.6211-7.921-20.17169-11.49151a10.81359,10.81359,0,0,1-2.44279.97305c-15.25157,4.20736-195.64338-28.39982-195.64338-28.39982L201.50527,440.61619,133.16141,453.404c10.89694-.64813,24.12207-1.32,38.74021-1.976,10.74434-2.12967,23.54448-4.65192,37.391-7.35067,63.08225-12.29491,147.82019-28.23758,158.23514-27.26115,10.91882,1.02366,98.8758,24.18477,159.31257,40.32741,23.12987,4.02992,44.0807,7.44735,57.231,9.27821C585.66467,459.42865,587.13541,451.39213,586.31135,448.37154Z"/><path class="cls-7" d="M367.52773,416.81616c-10.415-.97643-95.15289,14.96624-158.23514,27.26115-13.84649,2.69875-26.64663,5.221-37.391,7.35067,15.33622-.68815,32.19846-1.35867,49.507-1.96576,22.88052-.80246,46.5304-1.49378,68.44579-1.96843,36.02331-7.86455,99.09923-20.65152,112.91-15.42584C414.15084,436.3763,475.771,448.246,526.8403,457.14357,466.40353,441.00093,378.44655,417.83982,367.52773,416.81616Z"/><path class="cls-5" d="M584.07127,466.42178c-13.15027-1.83086-34.1011-5.24829-57.231-9.27821C475.771,448.246,414.15084,436.3763,402.76442,432.068c-13.81078-5.22568-76.8867,7.56129-112.91,15.42584,46.15148-.99947,84.59685-1.03719,91.87338.87775,8.89123,2.33986,48.0783,9.98911,88.84149,17.76008,14.61122,2.78535,29.4165,5.58481,43.11038,8.16263,33.97269,6.39511,61.06158,11.41773,61.06158,11.41773a30.55868,30.55868,0,0,0-6.312,3.10114c9.06168-1.36608,15.9593-4.5081,20.51145-8.36037,4.83489-4.09067,8.94075-12.62213,8.94075-12.62213C596.46314,467.98826,591.50616,467.457,584.07127,466.42178Z"/><path class="cls-5" d="M565.27472,491.49712a15.21311,15.21311,0,0,1,3.15455-2.684,30.55868,30.55868,0,0,1,6.312-3.10114s-27.08889-5.02262-61.06158-11.41773c-13.69388-2.57782-28.49916-5.37728-43.11038-8.16263-40.76319-7.771-79.95026-15.42022-88.84149-17.76008-7.27653-1.91494-45.7219-1.87722-91.87338-.87775-21.91539.47465-45.56527,1.166-68.44579,1.96843-17.30854.60709-34.17078,1.27761-49.507,1.96576-14.61814.656-27.84327,1.32785-38.74021,1.976-8.48122.50459-15.55275.99465-20.7654,1.45166-5.93536.52043-9.46824.998-9.933,1.40473-3.925,3.43434-.0691,22.88082,3.88185,25.904l-1.25249-4.34117s17.88151-1.57778,45.22954-1.05188c27.348.526,192.48769-11.04436,206.16142-9.46658,9.47745,1.09355,50.27865,16.5864,74.43239,25.99382,39.13064,4.99974,89.84118,10.82071,113.84751,10.82071l20.46366.51158.71406-.30931a4.60518,4.60518,0,0,0,1.15632-7.69755C565.20159,494.93023,563.96,493.03106,565.27472,491.49712Z"/><path class="cls-5" d="M563.37324,421.03475a71.24377,71.24377,0,0,0-7.03927-7.37407l-25.16841-4.84562-29.485-5.67672L373.31279,378.42385l-235.613,41.54787a145.26932,145.26932,0,0,0-14.40622,2.482l-4.41394,1.131a46.10814,46.10814,0,0,0-11.15665,4.54761c-15.26655,9.23415-1.54733,21.93569,4.67308,26.72329,5.21265-.457,12.28418-.94707,20.7654-1.45166l68.34386-12.78777,166.54822-31.16293s180.39181,32.60718,195.64338,28.39982a10.81359,10.81359,0,0,0,2.44279-.97305C571.87692,433.6435,567.87069,426.53915,563.37324,421.03475Z"/><path class="cls-9" d="M252.7557,356.22308l149.8806-43.35383,14.03594,3.74307C393.494,307.43424,376.86555,300.773,376.86555,300.773s-144.10246,55.22181-201.42787,69.42173c-19.36262,4.79631-31.27825,6.53014-38.57781,6.72629l-1.91818.63661,10.08786,6.85968,5.16371-2.12635Z"/><path class="cls-9" d="M551.47231,512.71971C550.946,508.51228,344.2588,524.29,344.2588,524.29s-232.98369-10.51846-240.87235-3.68146a10.17409,10.17409,0,0,0-1.22888,1.26164c-2.24987,2.75957-2.09842,5.86791-1.13386,8.5789,11.0196-4.99319,259.01242.67792,259.01242.67792L545.951,524.45308c2.57926-3.49027,5.409-8.38664,5.53456-11.14226A3.55245,3.55245,0,0,0,551.47231,512.71971Z"/><path class="cls-9" d="M566.72388,339.16533c-22.1083-21.56873-107.2885-16.8295-127.79937-21.56282-20.51088-4.73326-61.53263-25.24428-61.53263-25.24428l-251.391,79.41428s-3.45284,5.53305,10.85894,5.14852c7.29956-.19615,19.21519-1.93,38.57781-6.72629C232.76309,355.99482,376.86555,300.773,376.86555,300.773s16.62845,6.66123,39.80669,15.83931c16.80236,6.65316,37.04373,14.6272,56.90043,22.34995,40.85763,15.89027,80.06428,30.70656,84.21045,30.70656a20.27077,20.27077,0,0,0,5.12456-.76466C572.59762,366.27948,584.77988,356.78137,566.72388,339.16533Z"/><path class="cls-9" d="M575.96638,400.595l-8.191-11.467s18.00763-8.051-4.86771-20.22381a20.27077,20.27077,0,0,1-5.12456.76466c-4.14617,0-43.35282-14.81629-84.21045-30.70656-19.8567-7.72275-40.09807-15.69679-56.90043-22.34995l-14.03594-3.74307L252.7557,356.22308,150.19326,382.291l-5.16371,2.12635-30.59874,12.59947a4.19292,4.19292,0,0,0,1.5479,4.0022,32.483,32.483,0,0,1,9.49646-4.0022s184.59845-45.22932,217.73154-57.32556c33.13308-12.09616,53.644-3.15548,53.644-3.15548l167.1114,62.54167c4.48074,1.49312,8.06833,2.68868,10.533,3.51028A1.30234,1.30234,0,0,0,575.96638,400.595Z"/><path class="cls-9" d="M574.08679,413.84628c-1.57785-2.10368-12.09645-7.88881-12.09645-7.88881l10.5186-3.68145-8.54687-3.1986-167.1114-62.54167s-20.51088-8.94068-53.644,3.15548c-33.13309,12.09624-217.73154,57.32556-217.73154,57.32556a32.483,32.483,0,0,0-9.49646,4.0022c-6.22328,4.03338-11.42673,11.55911-.84132,24.49941l4.55272-2.73144s212.47224-65.74026,224.04236-69.42172c11.57069-3.68145,83.09616,15.25172,87.30337,16.30359,3.1033.77583,68.85465,26.43947,103.15673,39.8578l25.1684,4.84562S575.66464,415.95,574.08679,413.84628Z"/><path class="cls-9" d="M126.32053,423.1653a145.2688,145.2688,0,0,1,14.40622-2.482l235.613-41.54787,128.36774,24.71449c-57.91106-17.83905-136.78216-42.59586-136.78216-42.59586Z"/><path class="cls-9" d="M121.90659,424.29629q2.06358-.58813,4.41394-1.131l241.60484-61.91125s78.8711,24.75681,136.78216,42.59586l29.485,5.67672c-34.30208-13.41833-100.05343-39.082-103.15673-39.8578-4.20721-1.05187-75.73268-19.985-87.30337-16.30359C332.16235,357.0467,119.69011,422.787,119.69011,422.787l-4.55272,2.73144c.11575.14166.22516.28116.34494.42412Z"/><path class="cls-9" d="M359.51037,468.01629c-13.67372-1.57778-178.81339,9.99255-206.16141,9.46658-27.348-.5259-45.22954,1.05188-45.22954,1.05188l1.25249,4.34117,1.86232,6.4555c20.45041-3.168,78.94424-7.20585,119.42526-7.64112,41.45076-.44579,109.71227-3.535,135.01486-3.50676a71.66894,71.66894,0,0,1,9.0876.35121c4.83547.85327,14.435,6.01223,22.23556,10.57136,9.383,1.29129,22.35938,3.04031,36.94526,4.904C409.789,484.60269,368.98783,469.10984,359.51037,468.01629Z"/><path class="cls-9" d="M374.762,478.53475a71.66894,71.66894,0,0,0-9.0876-.35121c-25.30259-.02821-93.5641,3.061-135.01486,3.50676-40.481.43527-98.97485,4.47311-119.42526,7.64112-4.259.65964-6.86882,1.28164-7.322,1.82546-1.21967,1.46369-1.64292,4.28222-1.75118,6.887.85457-.385,1.7817-.75423,2.80327-1.1019l8.37757-.30262,268.25723-9.68987s1.85483.26705,5.16716.73335c2.57984.36308,6.04535.84723,10.23125,1.42323C389.197,484.547,379.59742,479.388,374.762,478.53475Z"/><path class="cls-9" d="M568.25393,505.3424l-20.46365-.51158c-24.00633,0-74.71687-5.821-113.84751-10.82071-14.58588-1.86369-27.56224-3.61271-36.94526-4.904-4.1859-.576-7.65141-1.06015-10.23125-1.42323-3.31233-.4663-5.16716-.73335-5.16716-.73335L113.34187,496.6394l-8.37757.30262c-1.02157.34767-1.9487.71694-2.80327,1.1019-14.47014,6.5205-5.76433,18.06542-.00346,23.82623a10.17409,10.17409,0,0,1,1.22888-1.26164c7.88866-6.837,240.87235,3.68146,240.87235,3.68146S550.946,508.51228,551.47231,512.71971a3.55245,3.55245,0,0,1,.01324.59111l23.04308-4.46a1.695,1.695,0,0,0-.27972-3.35857Z"/><path class="cls-9" d="M126.32053,423.1653q-2.35294.54225-4.41394,1.131Z"/><path class="cls-9" d="M589.33836,449.08311c-.91216-3.34587-10.62111-7.921-20.17169-11.49151a10.81359,10.81359,0,0,1-2.44279.973c-15.25157,4.20736-195.64339-28.39982-195.64339-28.39982L204.53228,441.32776l-68.34386,12.78777c10.89694-.64813,24.12207-1.32,38.7402-1.976,10.74434-2.12967,23.54449-4.65192,37.391-7.35067,63.08226-12.29491,147.82019-28.23758,158.23514-27.26115,10.91883,1.02366,98.8758,24.18477,159.31257,40.32741,23.12988,4.02992,44.08071,7.44735,57.231,9.27821C588.69167,460.14022,590.16241,452.1037,589.33836,449.08311Z"/><path class="cls-9" d="M370.55473,417.52773c-10.415-.97643-95.15288,14.96624-158.23514,27.26115-13.84648,2.69875-26.64663,5.221-37.391,7.35067,15.33623-.68815,32.19847-1.35866,49.507-1.96576,22.88053-.80246,46.5304-1.49378,68.44579-1.96843,36.02331-7.86455,99.09924-20.65152,112.91-15.42584,11.38643,4.30835,73.00658,16.17806,124.07588,25.07562C469.43053,441.7125,381.47356,418.55139,370.55473,417.52773Z"/><path class="cls-9" d="M587.09828,467.13335c-13.15027-1.83086-34.1011-5.24829-57.231-9.27821-51.0693-8.89756-112.68945-20.76727-124.07588-25.07562-13.81077-5.22568-76.8867,7.56129-112.91,15.42584,46.15149-.99947,84.59685-1.03719,91.87338.87775,8.89123,2.33986,48.0783,9.98911,88.84149,17.76008,14.61122,2.78535,29.41651,5.58481,43.11039,8.16263,33.97268,6.39511,61.06157,11.41773,61.06157,11.41773a30.55894,30.55894,0,0,0-6.312,3.10114c9.06169-1.36608,15.9593-4.5081,20.51145-8.36037,4.8349-4.09067,8.94076-12.62213,8.94076-12.62213C599.49014,468.69983,594.53317,468.16853,587.09828,467.13335Z"/><path class="cls-9" d="M568.30173,492.20869a15.21305,15.21305,0,0,1,3.15454-2.684,30.55894,30.55894,0,0,1,6.312-3.10114s-27.08889-5.02262-61.06157-11.41773c-13.69388-2.57782-28.49917-5.37728-43.11039-8.16263-40.76319-7.771-79.95026-15.42022-88.84149-17.76008-7.27653-1.91494-45.72189-1.87722-91.87338-.87775-21.91539.47465-45.56526,1.166-68.44579,1.96843-17.30853.6071-34.17077,1.27761-49.507,1.96576-14.61813.656-27.84326,1.32785-38.7402,1.976-8.48123.50459-15.55275.99465-20.76541,1.45166-5.93536.52043-9.46824.998-9.933,1.40473-3.925,3.43434-.06911,22.88082,3.88185,25.904l-1.25249-4.34117s17.88151-1.57778,45.22954-1.05188c27.348.526,192.48769-11.04436,206.16141-9.46658,9.47746,1.09355,50.27865,16.5864,74.4324,25.99382,39.13064,4.99974,89.84118,10.82071,113.84751,10.82071l20.46365.51158.71406-.30931a4.60518,4.60518,0,0,0,1.15633-7.69755C568.22859,495.6418,566.98705,493.74263,568.30173,492.20869Z"/><path class="cls-9" d="M566.40025,421.74632a71.24323,71.24323,0,0,0-7.03928-7.37407l-25.1684-4.84562-29.485-5.67672L376.33979,379.13542l-235.613,41.54787a145.2688,145.2688,0,0,0-14.40622,2.482l-4.41394,1.131a46.10824,46.10824,0,0,0-11.15666,4.54761c-15.26654,9.23416-1.54732,21.93569,4.67308,26.72329,5.21266-.457,12.28418-.94707,20.76541-1.45166l68.34386-12.78777,166.54821-31.16293S551.47231,442.772,566.72388,438.56465a10.81359,10.81359,0,0,0,2.44279-.973C574.90393,434.35507,570.89769,427.25072,566.40025,421.74632Z"/><path class="cls-9" d="M551.47231,512.71971s-161.36661.31882-172.76782-5.38179c-14.94468-7.47233-23.29612-18.46107,25.49387-16.70287"/><polyline class="cls-9" points="490.79 513.931 320.684 518.327 227.939 519.206"/><path class="cls-9" d="M335.1891,467.77848s-11.42828-11.86784-9.23054-15.38423-222.412,13.18648-222.412,13.18648"/><path class="cls-9" d="M569.02938,502.06333s-175.38982-5.5376-201.48656-45.82843c0,0-10.09682-11.87126,33.57869.99439,56.70187,16.70288,158.10112,36.553,167.18022,34.9794"/><line class="cls-9" x1="366.39711" y1="453.62523" x2="326.83766" y2="457.22929"/><path class="cls-9" d="M400.25923,452.22491s-14.13044-5.34665-15.14885-9.54759-55.75792-1.90951-55.75792-1.90951"/><path class="cls-9" d="M591.96772,481.16432s-199.76757-29.9787-198.671-48.6211"/><path class="cls-9" d="M570.12432,497.33554S430.03325,485.72889,396.5866,468.7314"/><path class="cls-9" d="M571.49616,431.99491c-1.64492,0-190.81043-9.8695-191.907-35.09157s137.85075,24.46389,186.81113,24.843"/><polyline class="cls-9" points="394.393 383.196 318.727 398 110.75 428.844"/><path class="cls-9" d="M574.08679,413.84628s-195.59429-54.776-194.49767-64.64555,182.40122,56.75674,182.40122,56.75674"/><polyline class="cls-9" points="435.516 361.812 375.751 336.041 116.402 410.611"/><path class="cls-9" d="M382.33065,332.20325s2.74152-10.41781,13.15934-6.57967,172.2854,63.5044,172.2854,63.5044S402.618,325.62358,402.618,316.30238"/><path class="cls-9" d="M426.74342,315.20577s126.11034,52.63736,138.17307,46.05769,0-22.48054-29.60852-27.9636-81.14926-13.70764-81.14926-13.70764"/><path class="cls-9" d="M567.8242,427.53735s-162.94715-13.46436-188.23508-30.634"/><line class="cls-9" x1="589.33836" y1="449.08311" x2="409.75343" y2="422.4383"/></g></svg>