<svg id="Layer_1" data-name="Layer 1" xmlns="http://www.w3.org/2000/svg" viewBox="0 0 588.382 573.43707"><defs><style>.cls-1{fill:#f4c55c;}.cls-2{fill:#fdf3de;}.cls-3{fill:#fce9be;}.cls-4{fill:#e99820;}.cls-5{fill:none;stroke:#e99820;stroke-miterlimit:10;stroke-width:1.5px;}.cls-6{fill:#f7d27d;}</style></defs><path class="cls-1" d="M228.162,491.24321l112.454,12.79746c2.31679-2.235,7.34675-6.22286,13.93542-11.18954C319.65827,493.681,271.17244,492.64525,228.162,491.24321Z"/><path class="cls-1" d="M140.812,433.38866,68.69192,473.09528l64.27886,7.315C137.52849,469.85033,144.94066,449.06756,140.812,433.38866Z"/><path class="cls-2" d="M421.90779,435.49059c1.26959.88858,2.80278,3.14716,4.10639,6.27306,6.14911-4.28446,9.99582-6.94465,9.99582-6.94465l-28.5694-3.17447q-6.50592.73143-13.072,1.40924C410.37027,433.81252,420.67744,434.629,421.90779,435.49059Z"/><path class="cls-3" d="M353.17,522.03014c-2.76942-7.32549-7.10147-13.44746-13.85823-16.03079-.35975-.13736.13278-.82874,1.30426-1.95868L228.162,491.24321c-53.40329-1.74087-98.36226-4.04621-98.36226-4.04621s1.36051-2.593,3.171-6.78669l-64.27886-7.315s26.18916,36.93327,6.7149,58.42164c-4.85663,5.35914,282.03569,32.23264,282.03569,32.23264S359.76,539.45923,353.17,522.03014Z"/><path class="cls-1" d="M436.01,434.819s-3.84671,2.66019-9.99582,6.94465c5.58855,13.40789,6.93467,42.80079-34.99585,48.791-8.464,1.20909-21.15724,1.93235-36.4669,2.29652-6.58867,4.96668-11.61863,8.95451-13.93542,11.18954-1.17148,1.12994-1.664,1.82132-1.30426,1.95868,6.75676,2.58333,11.08881,8.7053,13.85823,16.03079,6.59,17.42909,4.27253,41.71942,4.27253,41.71942l89.52689-73.31844c1.00272-1.56,2.37173-3.64607,4.23066-6.43413C464.62986,463.85147,436.01,434.819,436.01,434.819Z"/><path class="cls-4" d="M212.62407,409.99836,159.82777,387.874c-23.96394,6.8382-21.29852,39.5583-21.29852,39.5583s4.67152.05675,12.80057.16549c20.3442.27227,62.39247.87109,107.41619,1.72762Z"/><path class="cls-2" d="M426.01418,441.76365c-1.30361-3.1259-2.8368-5.38448-4.10639-6.27306-1.23035-.8616-11.53752-1.67807-27.53921-2.43682-48.9607,5.03291-99.04709,7.37929-124.95042.29009-1.38667-.37937-2.72886-.77641-3.973-1.21105l-6.6992-2.80736c-45.02372-.85653-87.072-1.45535-107.41619-1.72762-8.12905-.10874-12.80057-.16549-12.80057-.16549a27.65921,27.65921,0,0,1,2.28278,5.95632c4.12863,15.6789-3.28354,36.46167-7.84125,47.02165-1.81052,4.19371-3.171,6.78669-3.171,6.78669s44.959,2.30534,98.36226,4.04621c43.01043,1.402,91.49626,2.4378,126.38942,1.60792,15.30966-.36417,28.003-1.08743,36.4669-2.29652C432.94885,484.56444,431.60273,455.17154,426.01418,441.76365Z"/><path class="cls-5" d="M213.57839,410.10432,160.01746,387.813c-.06541.01815-.12428.04252-.18969.061l52.7963,22.12432Z"/><path class="cls-3" d="M518.606,366.9961s-219.585,2.0146-254.50368,12.08728c-20.042,5.78119-16.63354,22.40034-10.09263,35.51324a98.712,98.712,0,0,0,9.29464,14.81648c.67175.89054,1.21988,1.58486,1.59272,2.04927l1.26305.52556,3.258,1.35593c25.90333,7.0892,75.98972,4.74282,124.95042-.29009q6.56086-.67453,13.072-1.40924c60.95935-6.85193,116.53749-16.971,116.53749-16.971C495.77433,392.51351,518.606,366.9961,518.606,366.9961Z"/><path class="cls-5" d="M406.53991,326.30541c-.13736-.13605-.31069-.29762-.53046-.49253l-.21782.22091Z"/><path class="cls-5" d="M406.53991,326.30541l-.74828-.27162C406.95853,326.93154,407.17307,326.932,406.53991,326.30541Z"/><path class="cls-2" d="M223.00646,315.57438l-41.50014-6.99992-9.0971,12.80335L163.37557,334.092l115.5001,27.532c.67175-2.0146,14.10156-34.24724,14.10156-34.24724Z"/><path class="cls-2" d="M405.79163,326.03379c-.99618-.76659-3.24691-1.33876-6.43233-1.75427-.2479-.03221-.4958-.06459-.75482-.095-.1596-.01865-.32378-.03663-.488-.05462-20.30758-2.23487-72.66759.97394-94.90277,2.50811-6.33684.4371-10.23653.7388-10.23653.7388s-13.42981,32.23264-14.10156,34.24724,49.02022-8.05824,95.35475-12.08728C420.56494,345.50757,405.79163,326.03379,405.79163,326.03379Z"/><path class="cls-2" d="M401.69964,322.45314c-13.14789-9.435-50.59658-30.90468-104.69321-27.9804l-4.78926.58476-110.71085,13.517,41.50014,6.99992,69.97077,11.80243s3.89969-.3017,10.23653-.7388c22.23518-1.53417,74.59519-4.743,94.90277-2.50811.16417.018.32835.036.488.05462.259.03041.50692.06279.75482.095,3.18542.41551,5.43615.98768,6.43233,1.75427Z"/><path class="cls-4" d="M406.00945,325.81288,491.074,239.40855l-20.59014-3.90509c-16.76371,18.00125-64.05386,70.47-64.6746,90.13641C405.8747,325.69677,405.94927,325.75989,406.00945,325.81288Z"/><path class="cls-5" d="M405.79163,326.03379l.21782-.22091c-.06018-.053-.13475-.11611-.20016-.173C405.80537,325.76987,405.79163,325.90674,405.79163,326.03379Z"/><path class="cls-2" d="M362.81456,214.56256,292.21717,295.0575l4.78926-.58476c54.09663-2.92428,91.54532,18.54545,104.69321,27.9804,1.87724,1.3471,3.24691,2.43681,4.10965,3.18673.62074-19.6664,47.91089-72.13516,64.6746-90.13641,3.61516-3.8817,5.81683-6.16775,5.81683-6.16775Z"/><path class="cls-5" d="M401.69964,322.45314l4.092,3.58065c0-.127.01374-.26392.01766-.39392C404.94655,324.89,403.57688,323.80024,401.69964,322.45314Z"/><path class="cls-5" d="M100.57625,216.585l1.71569-23.32964-9.26325,1.71535s2.186,22.29356,4.4681,38.67838C99.62128,227.61463,100.8634,221.75315,100.57625,216.585Z"/><path class="cls-4" d="M140.11084,153.20291c-.06344-1.03134,12.95265-8.224,24.29264-4.37269,11.121,3.77694,40.61524,13.4385,48.00568,8.96694.08628-.0522.17983.03593.12.11709-1.38929,1.884-7.51387,9.98273-12.97513,13.93762l-2.98069,6.8382a1.58654,1.58654,0,0,1-2.139.79729l-3.43847-1.64467s-12.624,5.99083-16.903,3.42335-7.06091-10.912-7.06091-10.912l-11.1261,4.49328-2.56731,10.27c6.93468,8.138,7.62082,14.31349,6.59128,16.71515,0,0,2.44586,6.31628,10.69134,17.41686,18.70047-11.68828,26.06663-31.17175,26.36163-35.60028.3434-5.14639,14.61513-5.13681,21.95719-22.30059,2.89707-6.77257-1.40566-12.81507-1.40566-12.81507-2.74457-37.73911-39.42076-25.61018-49.3708-15.31772-9.94872,10.29245-19.89876,6.1756-29.50475,9.94938-5.67555,2.2298-7.388,5.05547-7.7778,7.56293C134.99323,150.48614,138.20417,151.18487,140.11084,153.20291Z"/><path class="cls-3" d="M164.40348,148.83022c-11.34-3.85129-24.35608,3.34135-24.29264,4.37269.08373.08879.18446.16074.263.25477a27.33744,27.33744,0,0,1,2.95388,4.31193,32.03556,32.03556,0,0,1,2.114,4.697c2.04076,5.63794,2.64057,11.35454,4.40138,16.30715,1.993,3.782,3.49546,6.34354,3.49546,6.34354l2.56731-10.27,11.1261-4.49328s2.78185,8.34457,7.06091,10.912,16.903-3.42335,16.903-3.42335l3.43847,1.64467a1.58654,1.58654,0,0,0,2.139-.79729l2.98069-6.8382c5.46126-3.95489,11.58584-12.05361,12.97513-13.93762.05985-.08116-.0337-.16929-.12-.11709C205.01872,162.26872,175.52452,152.60716,164.40348,148.83022Z"/><path class="cls-6" d="M170.62115,219.24934c-8.24548-11.10058-10.69134-17.41686-10.69134-17.41686l-2.33445,10.21-6.80386,29.75576c4.01089,2.31729,15.294,9.02369,23.89069,15.95673,10.63552,8.5771,15.43917,15.09577,18.86988,14.7527a7.87776,7.87776,0,0,0,3.35614-1.9819,2.74436,2.74436,0,0,0-1.64046-1.79221c-2.74522-.68614,2.41087-3.07024,2.41087-3.07024s2.66477-2.47018,5.18237-1.8187c.38848-.46112.85882-.99142,1.24531-1.42084a.7595.7595,0,0,0-.1723-1.16557C202.04726,260.15419,174.27621,224.1704,170.62115,219.24934Z"/><path class="cls-3" d="M206.06549,272.71537l3.41968-.66626c.3035,0,2.3723-.96242,3.97875-.02773,6.09177-10.373-6.55476-2.99306-7.89434-5.67189a4.29782,4.29782,0,0,0-2.70859-2.50484c-2.5176-.65148-5.18237,1.8187-5.18237,1.8187s-5.15609,2.3841-2.41087,3.07024a2.74436,2.74436,0,0,1,1.64046,1.79221c1.112,2.57712,1.39976,7.17179,3.16254,9.18655,2.40116,2.74473,8.91984-.34307,13.38009-2.05859a2.94032,2.94032,0,0,0,.27929-.14847Z"/><path class="cls-3" d="M107.41936,259.68653c-1.282-1.70931-4.73955-4.81248-7.178-7.60381-1.545-1.768-2.68374-3.41174-2.59347-4.49426.14194-1.70228-4.20843.48631-7.63,2.4548-2.1899,1.26027-4.003,2.43093-4.003,2.43093s-.14259.69187-.28518,1.74152a30.19888,30.19888,0,0,0-.276,3.70412c-.02158,2.46282.32966,5.15,1.72419,6.65243,3.02452,3.25738,10.00432,5.1186,11.86587,3.25738C100.90461,265.96826,109.51311,262.47852,107.41936,259.68653Z"/><path class="cls-4" d="M244.8792,280.3931c-5.81618-10.237-21.40449-3.48991-21.40449-3.48991s-4.64012-2.95224-7.957-4.88181c-1.60645-.93469-3.67526.02773-3.97875.02773l-3.41968.66626,7.66464,4.78992,5.36421,3.353s-6.049,7.91042,5.584,10.93494S247.075,284.25763,244.8792,280.3931Z"/><path class="cls-5" d="M93.02875,194.97061s2.186,22.29372,4.4681,38.67838c2.12449-6.03432,3.36661-11.896,3.07946-17.06394l1.71568-23.3298Z"/><path class="cls-2" d="M131.81441,326.03383l1.13223-.12983c-1.112-4.78763-2.13822-9.10136-2.97023-12.55234-2.2468-.56285-5.26282-1.35136-8.77463-2.35375-4.59173,24.30178-13.836,73.88714-15.38358,87.29732-2.07347,17.9692-2.76484,56.67244-2.76484,56.67244L120.1585,444.6273s19.314-50.21737,23.17707-56.39788c.58214-.93159.63578-3.48369.3107-7.13614l-19.21852-8.0535C103.61064,344.836,131.81441,326.03383,131.81441,326.03383Z"/><path class="cls-1" d="M265.4453,432.1328c1.24408.43464,2.58628.83167,3.973,1.21105l-3.258-1.35593Z"/><path class="cls-1" d="M263.30446,429.41308q-1.74936-.03384-3.49219-.067l-46.2338-19.24173-.95432-.106,46.122,19.3271,6.6992,2.80736s-.1995-.23744-.54813-.67045C264.52434,430.998,263.97621,430.30363,263.30446,429.41308Z"/><path class="cls-1" d="M259.81227,429.34588q1.74348.03336,3.49219.067a98.71143,98.71143,0,0,1-9.29464-14.81648c-6.54091-13.11289-9.94938-29.732,10.09263-35.51323,34.91867-10.07268,254.50368-12.08728,254.50368-12.08728L406.54,326.30523c.63316.62662.41862.62629-.74828-.27145,0,0,14.77331,19.47361-31.56121,23.50281s-96.0265,14.10189-95.35475,12.08728l-115.50011-27.532,9.03366-12.71423L132.94667,325.904l-1.13223.12983s-28.20377,18.80219-7.38666,47.006l19.21852,8.0535,16.18156,6.78064c.06541-.01832.12428-.04284.18969-.06083l53.56092,22.2911Z"/><path class="cls-2" d="M103.53608,305.27c-10.98481-4.04752-22.32152-9.30314-29.12931-15.49117-.63774,4.59695-.73454,11.73767.3107,22.81634C78.173,349.2253,72.644,399.67733,71.2619,419.02894s5.529,49.07027,5.529,49.07027l19.76206-9.881,6.50036-3.2505s.69137-38.70324,2.76484-56.67244c1.54758-13.41018,10.79185-62.99554,15.38358-87.29732C116.0495,309.527,109.85067,307.59647,103.53608,305.27Z"/><path class="cls-6" d="M153.33859,185.11737s-1.50245-2.56175-3.49546-6.3437c-1.76082-4.95245-2.36062-10.66921-4.40138-16.30715a32.03563,32.03563,0,0,0-2.114-4.697,27.33506,27.33506,0,0,0-2.95387-4.31177c-.07849-.09419-.17922-.16614-.263-.25477-1.90667-2.0182-5.11761-2.71677-9.22988-2.47508-16.18811.95268-46.24491,16.39153-64.95585,22.62861-23.67287,7.891-17.84034,28.1328-3.43071,47.00235,14.409,18.86956,20.92765,33.96533,20.92765,33.96533s.90919-.03107,2.30764-.10858c.14259-1.04949.28518-1.74151.28518-1.74151s1.81314-1.1705,4.003-2.43094c3.42155-1.96848,7.77191-4.15707,7.63-2.4548-.09027,1.08252,1.0485,2.72625,2.59347,4.49426,2.43845,2.79134,5.896,5.89467,7.178,7.60381,2.09374,2.792-6.51475,6.2819-8.37564,8.14311-1.86155,1.86122-8.84136,0-11.86587-3.25737-1.39453-1.50245-1.74577-4.18946-1.72419-6.65244-.10531.17236-.21062.34994-.31593.52131a236.40207,236.40207,0,0,1-16.468,23.32981,19.6947,19.6947,0,0,0,5.737,8.008c6.80779,6.188,18.1445,11.44365,29.12931,15.49117,6.31459,2.32644,12.51342,4.257,17.6657,5.72788,3.51181,1.00239,6.52783,1.7909,8.77463,2.35375,1.05911.26523,2.53058-1.02125,3.91508-2.66051a23.121,23.121,0,0,0,4.8994-10.30831l12.00067-58.58453,6.80386-29.75592,2.33445-10.21C160.95941,199.43085,160.27327,193.25525,153.33859,185.11737ZM97.49685,233.649c-2.28212-16.38466-4.4681-38.67838-4.4681-38.67838l9.26324-1.71536-1.71568,23.3298C100.86346,221.753,99.62134,227.61467,97.49685,233.649Z"/><path class="cls-5" d="M230.17873,490.73907l112.454,12.79746c2.31679-2.235,7.34675-6.22286,13.93541-11.18954C321.675,493.17687,273.18917,492.14112,230.17873,490.73907Z"/><path class="cls-5" d="M142.82876,432.88453,70.70865,472.59114l64.27886,7.315C139.54522,469.3462,146.95738,448.56342,142.82876,432.88453Z"/><path class="cls-5" d="M423.92452,434.98645c1.26959.88858,2.80278,3.14716,4.10638,6.27306,6.14912-4.28446,9.99583-6.94465,9.99583-6.94465l-28.5694-3.17447q-6.50592.73144-13.072,1.40924C412.387,433.30838,422.69417,434.12485,423.92452,434.98645Z"/><path class="cls-5" d="M355.18671,521.526c-2.76942-7.3255-7.10147-13.44747-13.85823-16.0308-.35975-.13736.13278-.82873,1.30426-1.95868l-112.454-12.79746c-53.40328-1.74086-98.36225-4.04621-98.36225-4.04621s1.36051-2.593,3.171-6.78669l-64.27886-7.315s26.18916,36.93327,6.7149,58.42164c-4.85663,5.35914,282.03569,32.23265,282.03569,32.23265S361.77668,538.95509,355.18671,521.526Z"/><path class="cls-5" d="M438.02673,434.31486s-3.84671,2.66019-9.99583,6.94465c5.58856,13.4079,6.93468,42.8008-34.99585,48.791-8.46394,1.20908-21.15723,1.93235-36.4669,2.29651-6.58866,4.96668-11.61862,8.95451-13.93541,11.18954-1.17148,1.12995-1.664,1.82132-1.30426,1.95868,6.75676,2.58333,11.08881,8.7053,13.85823,16.0308,6.59,17.42908,4.27253,41.71942,4.27253,41.71942L448.98613,489.927c1.00272-1.56,2.37173-3.64607,4.23066-6.43414C466.64659,463.34733,438.02673,434.31486,438.02673,434.31486Z"/><path class="cls-5" d="M214.64079,409.49422,161.8445,387.36991c-23.96394,6.8382-21.29852,39.5583-21.29852,39.5583s4.67152.05674,12.80057.16548c20.3442.27227,62.39246.87109,107.41619,1.72762Z"/><path class="cls-5" d="M428.0309,441.25951c-1.3036-3.1259-2.83679-5.38448-4.10638-6.27306-1.23035-.8616-11.53752-1.67807-27.53921-2.43682-48.9607,5.03291-99.04709,7.3793-124.95042.29009-1.38667-.37937-2.72887-.7764-3.97295-1.21105l-6.6992-2.80736c-45.02373-.85653-87.072-1.45535-107.41619-1.72762-8.12905-.10874-12.80057-.16548-12.80057-.16548a27.65881,27.65881,0,0,1,2.28278,5.95632c4.12862,15.67889-3.28354,36.46167-7.84125,47.02164-1.81052,4.19371-3.171,6.78669-3.171,6.78669s44.959,2.30535,98.36225,4.04621c43.01044,1.402,91.49627,2.4378,126.38942,1.60792,15.30967-.36416,28.003-1.08743,36.4669-2.29651C434.96558,484.06031,433.61946,454.66741,428.0309,441.25951Z"/><path class="cls-5" d="M267.46194,431.62867c1.24408.43465,2.58628.83168,3.97295,1.21105l-3.258-1.35593Z"/><path class="cls-5" d="M265.3211,428.909q-1.74936-.03385-3.49219-.067l5.0849,2.11631C266.541,430.49382,265.99285,429.79951,265.3211,428.909Z"/><path class="cls-5" d="M215.59511,409.60018l-53.56092-22.29127c-.06541.01815-.12428.04252-.18969.061l52.79629,22.12431Z"/><path class="cls-5" d="M261.82891,428.84192l-46.2338-19.24174-.95432-.106,46.122,19.32709Z"/><path class="cls-5" d="M261.82891,428.84192l-1.06617-.02061,6.6992,2.80736s-.1995-.23743-.54813-.67044Z"/><path class="cls-5" d="M520.62277,366.492s-219.585,2.0146-254.50368,12.08728c-20.042,5.78118-16.63354,22.40034-10.09263,35.51323A98.71143,98.71143,0,0,0,265.3211,428.909c.67175.89055,1.21988,1.58486,1.59271,2.04927l1.263.52556,3.258,1.35593c25.90333,7.08921,75.98972,4.74282,124.95042-.29009q6.56087-.67452,13.072-1.40924c60.95935-6.85193,116.53749-16.97105,116.53749-16.97105C497.79106,392.00938,520.62277,366.492,520.62277,366.492Z"/><path class="cls-5" d="M267.46194,431.62867l.71492-.14488-1.263-.52556C267.26244,431.39124,267.46194,431.62867,267.46194,431.62867Z"/><path class="cls-5" d="M408.55664,325.80127c-.13736-.13605-.31069-.29761-.53047-.49253l-.21781.22092Z"/><path class="cls-5" d="M408.55664,325.80127l-.74828-.27161C408.97526,326.4274,409.1898,326.42789,408.55664,325.80127Z"/><path class="cls-5" d="M225.02319,315.07025l-41.50014-6.99993-9.0971,12.80335-9.03366,12.71423,115.50011,27.532c.67175-2.0146,14.10156-34.24724,14.10156-34.24724Z"/><path class="cls-5" d="M407.80836,325.52966c-.99618-.7666-3.24691-1.33876-6.43233-1.75427-.2479-.03222-.4958-.0646-.75482-.095-.1596-.01864-.32378-.03663-.488-.05462-20.30757-2.23486-72.66758.97394-94.90277,2.50812-6.33683.43709-10.23652.73879-10.23652.73879s-13.42981,32.23264-14.10156,34.24724,49.02022-8.05824,95.35475-12.08728C422.58167,345.00343,407.80836,325.52966,407.80836,325.52966Z"/><path class="cls-5" d="M403.71637,321.949c-13.14789-9.43494-50.59659-30.90467-104.69321-27.98039l-4.78926.58475-110.71085,13.517,41.50014,6.99993L294.994,326.87267s3.89969-.3017,10.23652-.73879c22.23519-1.53418,74.5952-4.743,94.90277-2.50812.16418.018.32836.036.488.05462.259.03041.50692.06279.75482.095,3.18542.41551,5.43615.98767,6.43233,1.75427Z"/><path class="cls-5" d="M408.02617,325.30874l85.06458-86.40432-20.59014-3.90509c-16.7637,18.00124-64.05386,70.47-64.67459,90.1364C407.89143,325.19264,407.966,325.25576,408.02617,325.30874Z"/><path class="cls-5" d="M407.80836,325.52966l.21781-.22092c-.06017-.053-.13474-.1161-.20015-.173C407.8221,325.26573,407.80836,325.4026,407.80836,325.52966Z"/><path class="cls-5" d="M364.83129,214.05843,294.2339,294.55336l4.78926-.58475c54.09662-2.92428,91.54532,18.54545,104.69321,27.98039,1.87724,1.3471,3.24691,2.43682,4.10965,3.18673.62073-19.6664,47.91089-72.13516,64.67459-90.1364,3.61517-3.88171,5.81684-6.16776,5.81684-6.16776Z"/><path class="cls-5" d="M403.71637,321.949l4.092,3.58066c0-.12706.01374-.26393.01766-.39393C406.96328,324.38582,405.59361,323.2961,403.71637,321.949Z"/><path class="cls-5" d="M102.593,216.08088l1.71568-23.32964-9.26324,1.71535s2.186,22.29356,4.4681,38.67839C101.638,227.11049,102.88013,221.249,102.593,216.08088Z"/><path class="cls-5" d="M142.12757,152.69877c-.06344-1.03134,12.95265-8.224,24.29263-4.37268,11.121,3.77693,40.61525,13.4385,48.00569,8.96693.08628-.0522.17983.03593.12.1171-1.38929,1.884-7.51387,9.98272-12.97513,13.93761l-2.98069,6.8382a1.58655,1.58655,0,0,1-2.139.7973l-3.43847-1.64467s-12.624,5.99082-16.903,3.42335-7.06092-10.912-7.06092-10.912l-11.12609,4.49328-2.56731,10.27c6.93468,8.138,7.62082,14.31348,6.59128,16.71514,0,0,2.44586,6.31628,10.69133,17.41687,18.70048-11.68829,26.06664-31.17176,26.36164-35.60028.3434-5.14639,14.61512-5.13681,21.95719-22.30059,2.89707-6.77258-1.40566-12.81507-1.40566-12.81507-2.74457-37.73911-39.42076-25.61019-49.3708-15.31773-9.94873,10.29245-19.89876,6.1756-29.50475,9.94938-5.67555,2.2298-7.388,5.05548-7.7778,7.56293C137.01,149.982,140.2209,150.68074,142.12757,152.69877Z"/><path class="cls-5" d="M166.4202,148.32609c-11.34-3.85129-24.35607,3.34134-24.29263,4.37268.08373.0888.18446.16075.263.25477a27.33715,27.33715,0,0,1,2.95387,4.31193,32.03657,32.03657,0,0,1,2.114,4.697c2.04076,5.63795,2.64056,11.35454,4.40138,16.30716,1.993,3.782,3.49546,6.34354,3.49546,6.34354l2.56731-10.27,11.12609-4.49328s2.78186,8.34457,7.06092,10.912,16.903-3.42335,16.903-3.42335l3.43847,1.64467a1.58655,1.58655,0,0,0,2.139-.7973l2.98069-6.8382c5.46126-3.95489,11.58584-12.05361,12.97513-13.93761.05985-.08117-.0337-.1693-.12-.1171C207.03545,161.76459,177.54124,152.103,166.4202,148.32609Z"/><path class="cls-5" d="M172.63787,218.74521c-8.24547-11.10059-10.69133-17.41687-10.69133-17.41687l-2.33445,10.21-6.80386,29.75576c4.01089,2.31728,15.294,9.02368,23.89069,15.95672,10.63552,8.5771,15.43917,15.09577,18.86988,14.7527a7.87772,7.87772,0,0,0,3.35614-1.98189,2.74433,2.74433,0,0,0-1.64046-1.79221c-2.74522-.68614,2.41087-3.07025,2.41087-3.07025s2.66477-2.47017,5.18237-1.8187c.38848-.46111.85881-.99141,1.24531-1.42084a.75951.75951,0,0,0-.1723-1.16557C204.064,259.65006,176.29294,223.66626,172.63787,218.74521Z"/><path class="cls-5" d="M208.08222,272.21124l3.41967-.66627c.3035,0,2.37231-.96242,3.97876-.02772,6.09177-10.373-6.55476-2.99307-7.89434-5.6719a4.29784,4.29784,0,0,0-2.70859-2.50484c-2.5176-.65147-5.18237,1.8187-5.18237,1.8187s-5.15609,2.38411-2.41087,3.07025a2.74433,2.74433,0,0,1,1.64046,1.79221c1.112,2.57712,1.39976,7.17178,3.16253,9.18655,2.40117,2.74473,8.91985-.34307,13.3801-2.05859a2.94384,2.94384,0,0,0,.27929-.14848Z"/><path class="cls-5" d="M109.43609,259.18239c-1.282-1.7093-4.73955-4.81247-7.178-7.60381-1.545-1.768-2.68374-3.41174-2.59347-4.49426.14193-1.70227-4.20843.48632-7.63,2.4548-2.1899,1.26027-4.003,2.43093-4.003,2.43093s-.14259.69187-.28518,1.74152a30.199,30.199,0,0,0-.276,3.70412c-.02158,2.46282.32966,5.15,1.72419,6.65244,3.02451,3.25737,10.00432,5.11859,11.86587,3.25737C102.92134,265.46412,111.52983,261.97438,109.43609,259.18239Z"/><path class="cls-5" d="M244.84215,279.889c-5.81618-10.237-21.40448-3.4899-21.40448-3.4899s-4.64012-2.95224-7.957-4.88181c-1.60645-.9347-3.67526.02772-3.97876.02772l-3.41967.66627,7.66464,4.78991,5.36421,3.353s-6.049,7.91042,5.584,10.93494S247.03794,283.7535,244.84215,279.889Z"/><path class="cls-5" d="M95.04548,194.46647s2.186,22.29372,4.4681,38.67838c2.12449-6.03432,3.36661-11.896,3.07946-17.06393l1.71568-23.32981Z"/><path class="cls-5" d="M133.83114,325.5297l1.13223-.12984c-1.112-4.78762-2.13823-9.10135-2.97023-12.55234-2.2468-.56285-5.26282-1.35135-8.77464-2.35375-4.59172,24.30179-13.836,73.88714-15.38357,87.29732-2.07347,17.9692-2.76484,56.67244-2.76484,56.67244l17.10514-10.34037s19.314-50.21737,23.17707-56.39788c.58214-.93159.63578-3.48369.31069-7.13614l-19.21851-8.05349C105.62737,344.33188,133.83114,325.5297,133.83114,325.5297Z"/><path class="cls-5" d="M266.11915,378.57912c34.91867-10.07268,254.50368-12.08728,254.50368-12.08728L408.5567,325.80114c.63316.62662.41862.6263-.74828-.27144,0,0,14.77331,19.4736-31.56122,23.50281s-96.02649,14.10188-95.35474,12.08728l-115.50011-27.532,9.03366-12.71423-39.46264,4.52631-1.13223.12984s-28.20377,18.80218-7.38666,47.00595l19.21851,8.05349,16.18157,6.78064c.06541-.01831.12428-.04284.18969-.06083l53.56092,22.29111,46.2338,19.24173q1.74348.03336,3.49219.067a98.712,98.712,0,0,1-9.29464-14.81648C249.48561,400.97946,246.07714,384.36031,266.11915,378.57912Z"/><path class="cls-5" d="M105.5528,304.76589c-10.98481-4.04751-22.32152-9.30314-29.1293-15.49117-.63774,4.597-.73454,11.73767.31069,22.81634,3.45557,36.6301-2.07347,87.08213-3.45556,106.43375s5.529,49.07026,5.529,49.07026l19.76207-9.881,6.50036-3.25051s.69137-38.70324,2.76484-56.67244c1.54758-13.41018,10.79185-62.99553,15.38357-87.29732C118.06623,309.02288,111.8674,307.09233,105.5528,304.76589Z"/><path class="cls-5" d="M155.35532,184.61324s-1.50245-2.56175-3.49546-6.34371c-1.76082-4.95245-2.36062-10.66921-4.40138-16.30715a32.03563,32.03563,0,0,0-2.114-4.697,27.336,27.336,0,0,0-2.95387-4.31177c-.0785-.09419-.17923-.16614-.26295-.25477-1.90668-2.0182-5.11761-2.71677-9.22988-2.47508-16.18811.95268-46.24491,16.39153-64.95585,22.62862-23.67288,7.891-17.84034,28.13279-3.43071,47.00235C78.92017,238.72425,85.43884,253.82,85.43884,253.82s.90919-.03107,2.30764-.10858c.14259-1.04949.28518-1.74152.28518-1.74152s1.81314-1.1705,4.003-2.43093c3.42155-1.96849,7.77191-4.15708,7.63-2.45481-.09026,1.08252,1.04851,2.72626,2.59348,4.49427,2.43845,2.79133,5.896,5.89467,7.178,7.60381,2.09374,2.792-6.51475,6.28189-8.37564,8.14311-1.86155,1.86121-8.84136,0-11.86588-3.25738-1.39452-1.50245-1.74577-4.18945-1.72418-6.65243-.10531.17235-.21062.34994-.31593.52131a236.40114,236.40114,0,0,1-16.46805,23.3298,19.69451,19.69451,0,0,0,5.737,8.008c6.80778,6.188,18.14449,11.44366,29.1293,15.49117,6.3146,2.32644,12.51343,4.257,17.6657,5.72788,3.51182,1.0024,6.52784,1.7909,8.77464,2.35375,1.0591.26523,2.53058-1.02124,3.91508-2.6605a23.12108,23.12108,0,0,0,4.89939-10.30831l12.00068-58.58453,6.80386-29.75593,2.33445-10.21C162.97614,198.92672,162.29,192.75111,155.35532,184.61324ZM99.51358,233.14485c-2.28213-16.38466-4.4681-38.67838-4.4681-38.67838l9.26324-1.71536L102.593,216.08092C102.88019,221.24889,101.63807,227.11053,99.51358,233.14485Z"/><polyline class="cls-5" points="99.665 247.084 103.959 244.615 99.514 233.145"/><path class="cls-5" d="M207.58631,265.84535s-6.20217,3.05226-2.85313,4.70908a11.75352,11.75352,0,0,0,6.76871.99054"/><line class="cls-5" x1="343.89591" y1="545.72692" x2="95.53749" y2="523.7591"/><path class="cls-5" d="M177.91682,510.94453c-3.66131,0-79.32825-6.10217-79.32825-6.10217"/><path class="cls-5" d="M405.52785,474.3315c-3.05108.61022-256.29124-.61022-256.29124-.61022"/><path class="cls-5" d="M356.71047,454.80455s-139.73975,14.035-184.89583,3.6613"/><path class="cls-5" d="M502.5524,397.44412c-3.05109,0-203.81257,15.25544-225.17017,7.93283"/><path class="cls-5" d="M461.05762,382.79891c-3.05108,0-148.28279,17.6963-158.65648,12.81456"/><path class="cls-5" d="M266.11909,378.57925c-7.6536.55836-132.288-53.04959-132.288-53.04959"/><line class="cls-5" x1="433.59785" y1="247.9409" x2="382.94981" y2="305.30132"/><path class="cls-5" d="M420.78328,246.72046s-43.93564,40.27434-44.54586,47.59695"/><line class="cls-5" x1="409.79937" y1="238.17742" x2="383.56003" y2="267.46785"/><path class="cls-5" d="M407.80836,325.52966s-70.18377-22.24171-112.8144,1.343"/><path class="cls-5" d="M360.37178,305.30132s-80.54868,3.05109-82.37933,12.81456L222.46268,307.132"/><path class="cls-5" d="M172.42486,329.09979c2.44087.61022,103.73693,20.74739,103.73693,20.74739"/><path class="cls-5" d="M294.46831,344.35522c7.32261-1.22043,105.56759-10.37369,105.56759-10.37369"/><path class="cls-5" d="M295.68875,352.89826c2.44087-.61021,92.753-12.81456,92.753-12.81456"/><path class="cls-5" d="M186.90081,179.49222a7.08078,7.08078,0,0,1-5.046-5.93641"/><circle class="cls-4" cx="200.25772" cy="167.32259" r="1.18728"/></svg>