<svg id="Layer_1" data-name="Layer 1" xmlns="http://www.w3.org/2000/svg" xmlns:xlink="http://www.w3.org/1999/xlink" viewBox="0 0 1488.02462 573.43707"><defs><style>.cls-1,.cls-4,.cls-7{fill:none;}.cls-2{clip-path:url(#clip-path);}.cls-3{fill:#1d5493;}.cls-4{stroke:#6da5c8;}.cls-4,.cls-7{stroke-miterlimit:10;stroke-width:1.8px;}.cls-5{fill:#468fba;}.cls-6{fill:#6ca5c8;}.cls-7{stroke:#20274d;}.cls-8{fill:#20274d;}</style><clipPath id="clip-path"><rect class="cls-1" x="-2.01625" y="-0.71238" width="1492.05712" height="574.86184"/></clipPath></defs><g class="cls-2"><rect class="cls-3" x="-2.01625" y="-0.71238" width="1492.05712" height="574.86184"/><circle class="cls-4" cx="1295.50577" cy="559.53729" r="44.17634"/><path class="cls-4" d="M991.67327,136.93382l43-37.99824a2.80913,2.80913,0,0,1,3.97708.25975l37.9982,43a2.80919,2.80919,0,0,1-.25972,3.97713l-43,37.99825a2.80913,2.80913,0,0,1-3.97708-.25975l-37.95881-43.0042A2.807,2.807,0,0,1,991.67327,136.93382Z"/><path class="cls-4" d="M839.90648,336.52632,713.051,496.99237a3.21282,3.21282,0,0,0,.52576,4.5312,3.32676,3.32676,0,0,0,1.52711.658l202.3768,29.64265a3.21316,3.21316,0,0,0,3.66213-2.711,3.03962,3.03962,0,0,0-.22695-1.6617L845.44129,337.3006a3.24227,3.24227,0,0,0-4.188-1.82027A3.14488,3.14488,0,0,0,839.90648,336.52632Z"/><path class="cls-5" d="M1187.90147,224.30517c29.063-4.98434,47.94648-7.93822,49.02367-7.39948,4.139,2.06962,42.07087,329.39252,59.99617,461.9119h2.08541l-38.45641-483.69913S873.165,201.696,868.09526,202.96353c-2.35287.58815-1.70159,9.09434-.32915,18.42079C963.377,222.26653,1125.89678,223.76175,1187.90147,224.30517Z"/><path class="cls-5" d="M841.4875,678.81759l-8.88095-389.667s15.82382-2.96383,41.19566-7.68858c75.02459-13.97081,233.61357-43.35356,314.09926-57.15687-61.13738-.53582-219.99793-1.997-316.08469-2.88344-1.36309-.01257-77.23394-.71384-77.23394-.71384L779.2396,678.81759Z"/><path class="cls-6" d="M1296.92131,678.81759c-17.9253-132.51938-55.85722-459.84228-59.99617-461.9119-1.07719-.53874-19.96072,2.41514-49.02367,7.39948-80.48569,13.80331-239.07467,43.18606-314.09926,57.15687-25.37184,4.72475-41.19566,7.68858-41.19566,7.68858l8.88095,389.667Z"/><path class="cls-7" d="M1183.98868,221.86023c29.063-4.98433,47.94648-7.93821,49.02368-7.39947,4.13894,2.06962,42.07086,329.39252,59.99616,461.9119h2.08541l-38.45641-483.69913s-387.38536,6.57757-392.45505,7.84507c-2.35287.58814-1.70159,9.09434-.32915,18.42078C959.46419,219.8216,1121.984,221.31681,1183.98868,221.86023Z"/><path class="cls-7" d="M837.57471,676.37266l-8.88095-389.667s15.82382-2.96382,41.19566-7.68858c75.02459-13.9708,233.61357-43.35356,314.09926-57.15687-61.13738-.53582-219.99793-1.997-316.08469-2.88343-1.36309-.01257-77.23393-.71384-77.23393-.71384l-15.34325,458.1097Z"/><path class="cls-7" d="M1293.00852,676.37266c-17.9253-132.51938-55.85722-459.84228-59.99616-461.9119-1.0772-.53874-19.96073,2.41514-49.02368,7.39947C1103.503,235.66354,944.914,265.0463,869.88942,279.0171c-25.37184,4.72476-41.19566,7.68858-41.19566,7.68858l8.88095,389.667Z"/><path class="cls-3" d="M1267.42349,321.30025l26.73259-26.73273a12.0929,12.0929,0,0,0,3.43358-10.14055c-7.88239,7.7067-21.755,21.25613-38.96585,38.01143A46.29265,46.29265,0,0,1,1267.42349,321.30025Z"/><path class="cls-3" d="M1304.34808,277.81559c-.88134.86292-3.21814,3.15032-6.75842,6.61138a12.0929,12.0929,0,0,1-3.43358,10.14055l-26.73259,26.73273a28.27533,28.27533,0,0,1,6.19892.4835,31.55481,31.55481,0,0,1,3.1854.82361c11.26043-11.45161,29.28892-30.36173,30.91655-35.65212C1309.04682,282.65727,1306.6992,279.64609,1304.34808,277.81559Z"/><path class="cls-3" d="M1195.1546,461.4683c-.59312.79087-2.04477,5.92327-4.30118,12.41553,2.03863.8239,3.851,1.53044,4.89693,1.879,3.5736,1.1912,9.5296,13.10335,16.6768,11.91215,3.30526-.55088,4.56135-3.2674,4.96884-6.0285C1213.241,482.0961,1202.70842,484.12918,1195.1546,461.4683Z"/><path class="cls-3" d="M1222.88926,448.28676a59.0343,59.0343,0,0,1-18.48042-1.238c-1.18711,1.965-2.423,3.95507-3.5967,5.81188-2.66624,4.21817-5.00275,7.73448-5.65754,8.60763,7.55382,22.66088,18.08637,20.6278,22.24139,20.17821a2.82017,2.82017,0,0,1,1.58291.0725c1.24.82667,8.5024-21.86387,12.83223-35.83161A31.27172,31.27172,0,0,1,1222.88926,448.28676Z"/><path class="cls-3" d="M1144.52814,493.631s.67116-.42474,1.73462-1.22131c-8.06888-.86789-12.40047-6.05612-19.00747-4.73469-8.93385,1.7868-3.5736,18.46375.59575,19.0595,4.16935.59545,18.46375,9.5296,33.35391,8.3384,7.79586-.62366,9.54714-5.49151,9.45009-9.98884a9.56036,9.56036,0,0,1-2.89834.45924A27.62522,27.62522,0,0,1,1144.52814,493.631Z"/><path class="cls-3" d="M1195.16834,443.33282a2.84782,2.84782,0,0,1-.93981-1.30549c-.98833-3.62359,1.31778-7.24747,1.31778-7.24747a1.49284,1.49284,0,0,1-1.49931-.15274c-2.941-.30854-9.83741-1.075-17.30792-2.20482,1.03481,2.3,1.28269,6.02806-3.62184,10.5821-8.33869,7.74281-11.31655,9.52975-11.91229,25.01551-.47444,12.33864-10.77284,21.26753-14.94219,24.38979-1.06346.79657-1.73462,1.22131-1.73462,1.22131a27.62522,27.62522,0,0,0,23.22856,11.9123,9.56036,9.56036,0,0,0,2.89834-.45924c9.25862-2.93006,16.077-19.34231,20.19838-31.20024,2.25641-6.49226,3.70806-11.62466,4.30118-12.41553.65479-.87315,2.9913-4.38946,5.65754-8.60763,1.17367-1.85681,2.40959-3.84692,3.5967-5.81188C1200.1629,446.07449,1196.76382,444.72953,1195.16834,443.33282Z"/><path class="cls-3" d="M1158.39956,411.65435c1.05995,1.0598,3.47012,1.47665,6.49416,1.50558,15.28683-14.68552,30.97122-29.82678,46.05722-44.4328.02573-.164.06431-.33792.07893-.49314.988-10.54191,12.848-17.45993,12.848-17.45993s.66912-.01871,1.75245-.04677l-1.09386-3.90655s-5.60025,4.61221-9.55357.32944a52.54034,52.54034,0,0,0-7.64912-6.49212l-63.57356,62.402a23.7178,23.7178,0,0,1,2.55457-.37183C1149.65454,402.38447,1154.11153,407.36617,1158.39956,411.65435Z"/><path class="cls-3" d="M1284.49581,264.91773l-44.00251,43.19162c2.88782,7.329,3.61482,15.19548,4.26143,18.8863.04911.2799.09851.53348.14762.7631.01958.09237.03917.20039.05934.28428a10.09687,10.09687,0,0,0,2.832,4.93289q2.769-2.69314,5.45292-5.30413,2.73962-2.66551,5.37721-5.23339c17.21087-16.7553,31.08346-30.30473,38.96585-38.01143,3.54028-3.46106,5.87708-5.74846,6.75842-6.61138.26162-.25608.39843-.3901.39843-.3901S1303.55531,252.41,1284.49581,264.91773Z"/><path class="cls-3" d="M1276.80781,322.60736a31.55481,31.55481,0,0,0-3.1854-.82361,28.27533,28.27533,0,0,0-6.19892-.4835,46.29265,46.29265,0,0,0-8.79968,1.13815q-2.6392,2.56948-5.37721,5.23339-2.68129,2.60872-5.45292,5.30413a15.20072,15.20072,0,0,0,6.72158,3.63235c-.33119,6.1238-7.31382,10.74946-14.18127,13.8381-6.802,3.05912-11.01416,2.20525-11.01416,2.20525l-3.6895-1.92433c-1.08333.02806-1.75245.04677-1.75245.04677s-11.86,6.918-12.848,17.45993c-.01462.15522-.0532.32915-.07893.49314-1.71767,10.96826-27.9232,41.01559-27.9232,41.01559a12.8567,12.8567,0,0,1,1.47212.95881,18.13024,18.13024,0,0,1,7.42257,14.8542c0,.43818.00731.84948.01812,1.2482.14119,5.28659,1.17922,7.19295,2.10645,7.82319a1.49284,1.49284,0,0,0,1.49931.15274s-2.30611,3.62388-1.31778,7.24747a2.84782,2.84782,0,0,0,.93981,1.30549c1.59548,1.39671,4.99456,2.74167,9.2405,3.716a59.0343,59.0343,0,0,0,18.48042,1.238,31.27172,31.27172,0,0,0,8.92187-2.39936c8.72572-3.70675,16.013-10.67023,19.73914-15.39016,4.94166-6.25929,12.51857-5.92984,14.16549-16.47175,1.64752-10.5419,6.25943-33.27293,13.5069-43.48539C1286.1819,360.7341,1300.97705,330.0992,1276.80781,322.60736Z"/><path class="cls-3" d="M1247.79368,332.97592a10.09687,10.09687,0,0,1-2.832-4.93289c-.02017-.08389-.03976-.19191-.05934-.28428-.04911-.22962-.09851-.4832-.14762-.7631-.64661-3.69082-1.37361-11.55727-4.26143-18.8863-4.08341-10.36432-12.489-19.61783-31.11065-14.32758-28.99017,8.23579-12.848,29.31961-11.20079,34.26126,1.64722,4.94151,1.97666,7.57691,4.28247,9.22413,1.02517.73211,2.83228,1.92127,4.86945,3.3909a52.54034,52.54034,0,0,1,7.64912,6.49212c3.95332,4.28277,9.55357-.32944,9.55357-.32944l1.09386,3.90655,3.6895,1.92433s4.21218.85387,11.01416-2.20525c6.86745-3.08864,13.85008-7.7143,14.18127-13.8381A15.20072,15.20072,0,0,1,1247.79368,332.97592Z"/><path class="cls-3" d="M1191.94055,426.80393c-.01081-.39872-.01812-.81-.01812-1.2482a18.13024,18.13024,0,0,0-7.42257-14.8542c-5.14248,1.03554-13.589,2.516-19.60614,2.4584-3.024-.02893-5.43421-.44578-6.49416-1.50558-4.288-4.28818-8.745-9.26988-12.08477-8.96616a23.7178,23.7178,0,0,0-2.55457.37183c-7.80814,1.57472-11.36422,7.0369-11.71968,10.6868-.11839,1.21429-.18094-.72334,0,0,1.21079,4.84329,6.47781-2.48228,8.037,2.58551s6.09067,8.90756,8.81947,8.90756c.60685,0-.30977-.66621,2.58536.7837a42.39643,42.39643,0,0,0,8.47667,3.17327c4.89693,1.26384,11.009,2.35287,16.78,3.22544,7.47051,1.12982,14.3669,1.89628,17.30792,2.20482C1193.11977,433.99688,1192.08174,432.09052,1191.94055,426.80393Z"/><path class="cls-3" d="M1148.89705,425.23989c-2.7288,0-7.89665-3.68625-8.81947-8.90756-.88579-5.01182-5.35532-.03149-5.99383-.9254-.43339-.60675-83.10768,78.72775-83.10768,78.72775a5.35413,5.35413,0,0,0-1.59635,3.65779,5.28418,5.28418,0,0,0,.32857,2.0455c1.2482,3.30087,3.78348,7.85651,8.32992,8.53133a9.15637,9.15637,0,0,0,4.29592-.44359c4.26319-1.42111,43.46669-38.15949,89.14828-81.90212C1148.58728,424.57368,1149.5039,425.23989,1148.89705,425.23989Z"/><path class="cls-3" d="M1042.69935,508.19245c-2.79428,2.51555-5.77593,6.42211-4.47979,6.79247,1.00675.28765,4.50084-2.09169,7.02209-3.94981A6.10984,6.10984,0,0,1,1042.69935,508.19245Z"/><path class="cls-3" d="M1049.70829,499.838a5.28418,5.28418,0,0,1-.32857-2.0455c-2.99715,2.47243-7.1244,6.379-6.9759,9.05634a4.36637,4.36637,0,0,0,.29553,1.34364,6.10984,6.10984,0,0,0,2.5423,2.84266,12.11563,12.11563,0,0,0,3.20645,1.39275s5.26087-2.01729,9.59011-4.05856C1053.49177,507.69448,1050.95649,503.13884,1049.70829,499.838Z"/><path class="cls-3" d="M1254.51526,336.60827s1.29234-2.63511-1.26866-8.93648"/><path class="cls-6" d="M1305.31938,278.72767c-.88134.86292-3.21814,3.15032-6.75842,6.61138a12.0929,12.0929,0,0,1-3.43358,10.14055l-26.73259,26.73273a28.27528,28.27528,0,0,1,6.19892.4835,31.55571,31.55571,0,0,1,3.18541.82361c11.26042-11.45161,29.28891-30.36173,30.91655-35.65212C1310.01812,283.56935,1307.6705,280.55817,1305.31938,278.72767Z"/><path class="cls-8" d="M1196.1259,462.38039c-.59311.79086-2.04477,5.92326-4.30118,12.41552,2.03863.8239,3.851,1.53044,4.89693,1.879,3.5736,1.1912,9.5296,13.10335,16.67681,11.91215,3.30525-.55088,4.56134-3.2674,4.96884-6.0285C1214.21227,483.00818,1203.67972,485.04126,1196.1259,462.38039Z"/><path class="cls-5" d="M1223.86056,449.19884a59.0343,59.0343,0,0,1-18.48042-1.238c-1.18711,1.965-2.423,3.95507-3.59669,5.81189-2.66625,4.21816-5.00275,7.73447-5.65755,8.60763,7.55382,22.66087,18.08637,20.62779,22.2414,20.1782a2.82023,2.82023,0,0,1,1.5829.0725c1.24.82667,8.5024-21.86387,12.83223-35.83161A31.27172,31.27172,0,0,1,1223.86056,449.19884Z"/><path class="cls-8" d="M1145.49944,494.54309s.67117-.42474,1.73462-1.22131c-8.06888-.86789-12.40047-6.05612-19.00747-4.73469-8.93385,1.7868-3.5736,18.46375.59575,19.0595,4.16935.59545,18.46376,9.5296,33.35391,8.3384,7.79586-.62366,9.54714-5.4915,9.45009-9.98883a9.56066,9.56066,0,0,1-2.89834.45923A27.62522,27.62522,0,0,1,1145.49944,494.54309Z"/><path class="cls-5" d="M1196.13964,444.24491a2.84789,2.84789,0,0,1-.93981-1.3055c-.98833-3.62359,1.31778-7.24747,1.31778-7.24747a1.49284,1.49284,0,0,1-1.49931-.15274c-2.941-.30854-9.83741-1.075-17.30792-2.20481,1.03481,2.3,1.2827,6.02805-3.62183,10.58209-8.3387,7.74281-11.31656,9.52976-11.9123,25.01551-.47444,12.33864-10.77284,21.26753-14.94219,24.38979-1.06345.79657-1.73462,1.22131-1.73462,1.22131a27.62522,27.62522,0,0,0,23.22856,11.9123,9.56066,9.56066,0,0,0,2.89834-.45923c9.25863-2.93007,16.077-19.34232,20.19838-31.20025,2.25641-6.49226,3.70807-11.62466,4.30118-12.41552.6548-.87316,2.9913-4.38947,5.65755-8.60763,1.17366-1.85682,2.40958-3.84692,3.59669-5.81189C1201.13421,446.98657,1197.73512,445.64161,1196.13964,444.24491Z"/><path class="cls-5" d="M1159.37086,412.56643c1.06,1.0598,3.47012,1.47665,6.49416,1.50559,15.28683-14.68553,30.97122-29.82679,46.05722-44.43281.02573-.164.06431-.33792.07893-.49314.988-10.5419,12.848-17.45993,12.848-17.45993s.66912-.01871,1.75245-.04677l-1.09385-3.90655s-5.60025,4.61221-9.55358.32944a52.5408,52.5408,0,0,0-7.64911-6.49212l-63.57357,62.402a23.72013,23.72013,0,0,1,2.55458-.37183C1150.62584,403.29655,1155.08283,408.27825,1159.37086,412.56643Z"/><path class="cls-5" d="M1285.46711,265.82982l-44.00251,43.19161c2.88782,7.329,3.61482,15.19548,4.26143,18.8863.04911.2799.09851.53348.14762.7631.01959.09237.03917.20039.05934.28428a10.09687,10.09687,0,0,0,2.832,4.93289q2.769-2.69314,5.45292-5.30413,2.73961-2.66552,5.37721-5.23339c17.21088-16.7553,31.08347-30.30473,38.96585-38.01143,3.54028-3.46106,5.87708-5.74846,6.75842-6.61138.26163-.25608.39843-.3901.39843-.3901S1304.52661,253.32206,1285.46711,265.82982Z"/><path class="cls-8" d="M1277.77912,323.51944a31.55571,31.55571,0,0,0-3.18541-.82361,28.27528,28.27528,0,0,0-6.19892-.4835,46.29356,46.29356,0,0,0-8.79968,1.13815q-2.6392,2.56948-5.37721,5.23339-2.6813,2.60872-5.45292,5.30413a15.20073,15.20073,0,0,0,6.72159,3.63235c-.3312,6.1238-7.31383,10.74946-14.18128,13.8381-6.802,3.05912-11.01416,2.20525-11.01416,2.20525l-3.6895-1.92433c-1.08333.02806-1.75245.04677-1.75245.04677s-11.86,6.918-12.848,17.45993c-.01462.15522-.0532.32915-.07893.49314-1.71766,10.96826-27.9232,41.01559-27.9232,41.01559a12.85564,12.85564,0,0,1,1.47212.95881,18.13024,18.13024,0,0,1,7.42257,14.8542c0,.43819.00731.84948.01812,1.2482.14119,5.28659,1.17922,7.19295,2.10645,7.82319a1.49284,1.49284,0,0,0,1.49931.15274s-2.30611,3.62388-1.31778,7.24747a2.84789,2.84789,0,0,0,.93981,1.3055c1.59548,1.3967,4.99457,2.74166,9.2405,3.716a59.0343,59.0343,0,0,0,18.48042,1.238,31.27172,31.27172,0,0,0,8.92187-2.39936c8.72573-3.70675,16.013-10.67023,19.73914-15.39016,4.94166-6.25929,12.51857-5.92984,14.1655-16.47175,1.64751-10.5419,6.25943-33.27293,13.50689-43.48539C1287.15321,361.64618,1301.94836,331.01128,1277.77912,323.51944Z"/><path class="cls-3" d="M1248.765,333.888a10.09687,10.09687,0,0,1-2.832-4.93289c-.02017-.08389-.03975-.19191-.05934-.28428-.04911-.22962-.09851-.4832-.14762-.7631-.64661-3.69082-1.37361-11.55727-4.26143-18.8863-4.08341-10.36432-12.489-19.61783-31.11065-14.32758-28.99017,8.2358-12.848,29.31961-11.20079,34.26126,1.64722,4.94151,1.97666,7.57691,4.28247,9.22413,1.02517.73212,2.83228,1.92127,4.86946,3.3909a52.5408,52.5408,0,0,1,7.64911,6.49212c3.95333,4.28277,9.55358-.32944,9.55358-.32944l1.09385,3.90655,3.6895,1.92433s4.21218.85387,11.01416-2.20525c6.86745-3.08864,13.85008-7.7143,14.18128-13.8381A15.20073,15.20073,0,0,1,1248.765,333.888Z"/><path class="cls-3" d="M1192.91185,427.716c-.01081-.39872-.01812-.81-.01812-1.2482a18.13024,18.13024,0,0,0-7.42257-14.8542c-5.14248,1.03554-13.589,2.516-19.60614,2.45841-3.024-.02894-5.43421-.44579-6.49416-1.50559-4.288-4.28818-8.745-9.26988-12.08476-8.96616a23.72013,23.72013,0,0,0-2.55458.37183c-7.80814,1.57472-11.36422,7.0369-11.71968,10.6868-.11839,1.21429-.18094-.72334,0,0,1.21079,4.84329,6.47781-2.48228,8.037,2.58551s6.09067,8.90756,8.81947,8.90756c.60685,0-.30977-.66621,2.58536.7837a42.39643,42.39643,0,0,0,8.47667,3.17327c4.89693,1.26384,11.009,2.35287,16.78,3.22545,7.47051,1.12981,14.3669,1.89627,17.30792,2.20481C1194.09107,434.909,1193.053,433.0026,1192.91185,427.716Z"/><path class="cls-5" d="M1149.86835,426.152c-2.7288,0-7.89665-3.68625-8.81947-8.90756-.88579-5.01182-5.35532-.03149-5.99382-.9254-.43339-.60674-83.10768,78.72775-83.10768,78.72775a5.35409,5.35409,0,0,0-1.59636,3.65779,5.28418,5.28418,0,0,0,.32857,2.0455c1.2482,3.30087,3.78348,7.85652,8.32992,8.53133a9.15643,9.15643,0,0,0,4.29593-.44359c4.26318-1.42111,43.46668-38.15949,89.14827-81.90212C1149.55858,425.48576,1150.4752,426.152,1149.86835,426.152Z"/><path class="cls-8" d="M1043.67065,509.10453c-2.79428,2.51555-5.77593,6.42211-4.47979,6.79247,1.00675.28765,4.50084-2.09168,7.02209-3.94981A6.10989,6.10989,0,0,1,1043.67065,509.10453Z"/><path class="cls-3" d="M1050.67959,500.75005a5.28418,5.28418,0,0,1-.32857-2.0455c-2.99715,2.47243-7.1244,6.379-6.9759,9.05634a4.36637,4.36637,0,0,0,.29553,1.34364,6.10989,6.10989,0,0,0,2.5423,2.84266,12.11563,12.11563,0,0,0,3.20645,1.39275s5.26087-2.01729,9.59011-4.05856C1054.46307,508.60657,1051.92779,504.05092,1050.67959,500.75005Z"/><path class="cls-7" d="M1144.40566,493.63112s.67116-.42474,1.73462-1.22131c-8.06889-.86789-12.40047-6.05612-19.00747-4.73469-8.93386,1.7868-3.5736,18.46375.59575,19.0595,4.16935.59545,18.46375,9.5296,33.35391,8.3384,7.79585-.62366,9.54714-5.4915,9.45009-9.98883a9.56067,9.56067,0,0,1-2.89835.45923A27.62521,27.62521,0,0,1,1144.40566,493.63112Z"/><path class="cls-7" d="M1195.04586,443.33294a2.84789,2.84789,0,0,1-.93981-1.3055c-.98833-3.62359,1.31778-7.24747,1.31778-7.24747a1.49284,1.49284,0,0,1-1.49931-.15274c-2.941-.30854-9.83741-1.075-17.30792-2.20481,1.03481,2.3,1.28269,6.02806-3.62184,10.5821-8.33869,7.7428-11.31655,9.52975-11.91229,25.0155-.47444,12.33864-10.77284,21.26753-14.94219,24.38979-1.06346.79657-1.73462,1.22131-1.73462,1.22131a27.62521,27.62521,0,0,0,23.22855,11.9123,9.56067,9.56067,0,0,0,2.89835-.45923c9.25862-2.93007,16.077-19.34232,20.19838-31.20025,2.25641-6.49226,3.70806-11.62466,4.30118-12.41552.65479-.87316,2.9913-4.38947,5.65754-8.60763,1.17367-1.85682,2.40959-3.84692,3.5967-5.81189C1200.04042,446.0746,1196.64134,444.72964,1195.04586,443.33294Z"/><path class="cls-7" d="M1267.301,321.30036l26.73259-26.73273a12.0929,12.0929,0,0,0,3.43358-10.14055c-7.88239,7.7067-21.755,21.25613-38.96585,38.01143A46.29346,46.29346,0,0,1,1267.301,321.30036Z"/><path class="cls-7" d="M1184.37738,410.70164a12.8567,12.8567,0,0,0-1.47212-.95881s26.20553-30.04733,27.9232-41.01559c-15.086,14.606-30.77039,29.74728-46.05722,44.43281C1170.78834,413.21763,1179.2349,411.73718,1184.37738,410.70164Z"/><path class="cls-7" d="M1304.2256,277.8157c-.88135.86292-3.21814,3.15032-6.75842,6.61138a12.0929,12.0929,0,0,1-3.43358,10.14055L1267.301,321.30036a28.27533,28.27533,0,0,1,6.19892.4835,31.55481,31.55481,0,0,1,3.1854.82361c11.26043-11.45161,29.28892-30.36173,30.91655-35.65212C1308.92434,282.65738,1306.57672,279.6462,1304.2256,277.8157Z"/><path class="cls-7" d="M1195.03212,461.46842c-.59312.79086-2.04477,5.92326-4.30118,12.41552,2.03863.8239,3.851,1.53044,4.89693,1.879,3.5736,1.1912,9.5296,13.10335,16.6768,11.91215,3.30526-.55088,4.56135-3.2674,4.96884-6.0285C1213.11849,482.09621,1202.58594,484.12929,1195.03212,461.46842Z"/><path class="cls-7" d="M1222.76677,448.28687a59.03424,59.03424,0,0,1-18.48041-1.238c-1.18711,1.965-2.423,3.95507-3.5967,5.81189-2.66624,4.21816-5.00275,7.73447-5.65754,8.60763,7.55382,22.66087,18.08637,20.62779,22.24139,20.1782a2.82026,2.82026,0,0,1,1.58291.0725c1.24.82668,8.5024-21.86387,12.83223-35.83161A31.27169,31.27169,0,0,1,1222.76677,448.28687Z"/><path class="cls-7" d="M1158.27708,411.65446c1.05995,1.0598,3.47012,1.47665,6.49416,1.50559,15.28683-14.68553,30.97121-29.82679,46.05722-44.43281.02572-.164.06431-.33792.07893-.49314.988-10.5419,12.848-17.45993,12.848-17.45993s.66912-.01871,1.75245-.04677l-1.09386-3.90655s-5.60025,4.61221-9.55357.32944a52.54034,52.54034,0,0,0-7.64912-6.49212l-63.57356,62.402a23.7203,23.7203,0,0,1,2.55457-.37183C1149.53206,402.38458,1153.989,407.36628,1158.27708,411.65446Z"/><path class="cls-7" d="M1284.37333,264.91785l-44.00251,43.19161c2.88782,7.329,3.61482,15.19548,4.26143,18.8863.04911.2799.09851.53348.14762.7631.01958.09237.03917.20039.05934.28428a10.09687,10.09687,0,0,0,2.832,4.93289q2.769-2.69314,5.45292-5.30413,2.73962-2.66552,5.37721-5.23339c17.21087-16.7553,31.08346-30.30473,38.96585-38.01143,3.54028-3.46106,5.87707-5.74846,6.75842-6.61138.26162-.25607.39843-.3901.39843-.3901S1303.43283,252.41009,1284.37333,264.91785Z"/><path class="cls-7" d="M1276.68533,322.60747a31.55481,31.55481,0,0,0-3.1854-.82361,28.27533,28.27533,0,0,0-6.19892-.4835,46.29346,46.29346,0,0,0-8.79968,1.13815q-2.6392,2.56948-5.37721,5.23339-2.6813,2.60872-5.45292,5.30413a15.20072,15.20072,0,0,0,6.72158,3.63235c-.33119,6.1238-7.31382,10.74946-14.18128,13.8381-6.802,3.05912-11.01415,2.20525-11.01415,2.20525l-3.6895-1.92433c-1.08333.02806-1.75245.04677-1.75245.04677s-11.86,6.918-12.848,17.45993c-.01462.15522-.05321.32915-.07893.49314-1.71767,10.96826-27.9232,41.01559-27.9232,41.01559a12.8567,12.8567,0,0,1,1.47212.95881,18.13024,18.13024,0,0,1,7.42257,14.8542c0,.43819.0073.84948.01812,1.2482.14119,5.28659,1.17922,7.19295,2.10645,7.82319a1.49284,1.49284,0,0,0,1.49931.15274s-2.30611,3.62388-1.31778,7.24747a2.84789,2.84789,0,0,0,.93981,1.3055c1.59548,1.3967,4.99456,2.74166,9.2405,3.716a59.03424,59.03424,0,0,0,18.48041,1.238,31.27169,31.27169,0,0,0,8.92188-2.39936c8.72572-3.70675,16.013-10.67023,19.73914-15.39016,4.94166-6.25929,12.51857-5.92984,14.16549-16.47175,1.64751-10.5419,6.25943-33.27293,13.5069-43.48539C1286.05942,360.73421,1300.85457,330.09931,1276.68533,322.60747Z"/><path class="cls-7" d="M1247.6712,332.976a10.09687,10.09687,0,0,1-2.832-4.93289c-.02017-.08389-.03976-.19191-.05934-.28428-.04911-.22962-.09851-.4832-.14762-.7631-.64661-3.69082-1.37361-11.55727-4.26143-18.8863-4.08341-10.36432-12.489-19.61783-31.11065-14.32758-28.99017,8.2358-12.848,29.31961-11.20079,34.26126,1.64721,4.94151,1.97666,7.57691,4.28247,9.22413,1.02516.73212,2.83228,1.92127,4.86945,3.3909a52.54034,52.54034,0,0,1,7.64912,6.49212c3.95332,4.28277,9.55357-.32944,9.55357-.32944l1.09386,3.90655,3.6895,1.92433s4.21218.85387,11.01415-2.20525c6.86746-3.08864,13.85009-7.7143,14.18128-13.8381A15.20072,15.20072,0,0,1,1247.6712,332.976Z"/><path class="cls-7" d="M1191.81807,426.804c-.01082-.39872-.01812-.81-.01812-1.2482a18.13024,18.13024,0,0,0-7.42257-14.8542c-5.14248,1.03554-13.589,2.516-19.60614,2.45841-3.024-.02894-5.43421-.44579-6.49416-1.50559-4.288-4.28818-8.745-9.26988-12.08477-8.96616a23.7203,23.7203,0,0,0-2.55457.37183c-7.80814,1.57472-11.36422,7.0369-11.71968,10.6868-.11839,1.21429-.18094-.72334,0,0,1.21079,4.84329,6.47781-2.48228,8.037,2.58551s6.09067,8.90756,8.81947,8.90756c.60685,0-.30977-.66621,2.58536.7837a42.39643,42.39643,0,0,0,8.47667,3.17327c4.89693,1.26384,11.009,2.35287,16.78,3.22545,7.47051,1.12981,14.3669,1.89627,17.30792,2.20481C1192.99729,433.997,1191.95926,432.09063,1191.81807,426.804Z"/><path class="cls-7" d="M1148.77457,425.24c-2.7288,0-7.89665-3.68625-8.81947-8.90756-.88579-5.01182-5.35532-.03149-5.99383-.9254-.43339-.60674-83.10768,78.72775-83.10768,78.72775a5.35413,5.35413,0,0,0-1.59635,3.65779,5.28417,5.28417,0,0,0,.32856,2.0455c1.24821,3.30087,3.78349,7.85652,8.32993,8.53133a9.15637,9.15637,0,0,0,4.29592-.44359c4.26319-1.42111,43.46669-38.15949,89.14828-81.90212C1148.4648,424.57379,1149.38142,425.24,1148.77457,425.24Z"/><path class="cls-7" d="M1042.57687,508.19256c-2.79428,2.51555-5.77594,6.42211-4.47979,6.79248,1.00675.28764,4.50084-2.09169,7.02209-3.94982A6.10984,6.10984,0,0,1,1042.57687,508.19256Z"/><path class="cls-7" d="M1049.5858,499.83808a5.28417,5.28417,0,0,1-.32856-2.0455c-2.99715,2.47243-7.1244,6.379-6.97591,9.05634a4.36666,4.36666,0,0,0,.29554,1.34364,6.10984,6.10984,0,0,0,2.5423,2.84266,12.11563,12.11563,0,0,0,3.20645,1.39275s5.26086-2.01729,9.59011-4.05856C1053.36929,507.6946,1050.834,503.139,1049.5858,499.83808Z"/><path class="cls-7" d="M1193.92452,434.62723s35.654-7.55659,41.87166-26.98676"/><path class="cls-7" d="M1211.8887,330.87067s5.50055-2.78742,6.80894,4.48958c.84395,4.69389-1.2606,2.972-1.2606,2.972"/><path class="cls-7" d="M1254.39278,336.60838s1.29234-2.63511-1.26866-8.93648"/><path class="cls-7" d="M1011.49181,302.86619c32.33919-4.38618,63.47-13.9649,96.99551-19.95159,14.36807-2.39468,27.5388,2.39467,40.70954,1.19734,19.15742-2.39468,37.11751-7.184,53.88026-16.76275,4.78936-3.592,11.97339-3.592,14.926-10.21515"/><path class="cls-7" d="M860.72733,323.11741c40.09185-.82958,75.34314-12.664,114.64324-16.87531"/><path class="cls-7" d="M1024.107,511.52142s-58.62921-8.03446-70.21906,3.5554-53.4794,7.96482-69.33023,5.33309c-12.20151-2.02583-22.29635,11.35161-22.29635,11.35161"/><path class="cls-7" d="M1092.47381,437.3813c-7.11079,0-114.58695,4.8099-156.36285,18.14263s-50.6644-4.44424-65.77483,0"/><path class="cls-7" d="M1086.64836,350.86217c-6.89718,2.69544-12.88387,7.4848-20.06791,8.68214-40.70953,3.592-83.81375-11.9734-123.32594,5.98669-8.38137,3.592-14.36807,11.97339-22.74944,15.56541-16.76275,7.184-37.11752,3.592-51.05779-7.34658"/><path class="cls-7" d="M1178.76673,333.75162c-17.59648.64856-36.75391,3.04324-54.89633,5.91509"/></g></svg>