<svg width="226" height="226" viewBox="0 0 226 226" fill="none" xmlns="http://www.w3.org/2000/svg">
<path d="M141.176 29.9971L141.036 30.1365L112.988 58.1062L141.176 58.0334L168.275 57.9616V57.5568V3.07593L141.176 29.9971Z" fill="#E0635C"/>
<path d="M196.518 31.4852L195.833 30.7954L168.285 3.06506L168.273 3.07583V57.5567V57.9615V57.961V57.9605L196.518 57.8872L224.032 57.818L196.518 31.4852Z" fill="#F4C55C"/>
<path d="M85.4237 29.6178L84.6873 28.8767L57.7482 1.75879L30.107 29.2175L30.0173 29.3067L1.96875 57.2092L30.107 57.4373L57.1973 57.6587H57.2065L58.1905 57.6664L84.6873 57.8831L112.989 58.1061L85.4237 29.6178Z" fill="#F4C55C"/>
<path d="M57.2031 112.811V112.873L57.2651 112.874L57.2031 112.811Z" stroke="#F4C55C" stroke-width="1.12038" stroke-miterlimit="10"/>
<path d="M57.2656 112.874L57.5049 113.115L57.7463 112.875L57.2656 112.874Z" stroke="#F4C55C" stroke-width="1.12038" stroke-miterlimit="10"/>
<path d="M57.2031 112.873V113.415L57.5044 113.115L57.2651 112.874L57.2031 112.873Z" stroke="#F4C55C" stroke-width="1.12038" stroke-miterlimit="10"/>
<path d="M113.047 113.039L113.198 113.039L113.123 112.964L113.047 113.039Z" stroke="#F4C55C" stroke-width="1.12038" stroke-miterlimit="10"/>
<path d="M223.771 113.419L223.823 113.367L223.719 113.366L223.771 113.419Z" stroke="#F4C55C" stroke-width="1.12038" stroke-miterlimit="10"/>
<path d="M141.173 168.459H112.72L112.601 168.576L112.547 168.63V223.674L140.151 196.309L141.173 195.296L168.246 168.459H141.173Z" fill="#F4C55C"/>
<path d="M84.6875 140.475V140.509H84.7224L84.6875 140.475Z" stroke="#F4C55C" stroke-width="1.12038" stroke-miterlimit="10"/>
<path d="M112.484 168.459L85.0529 140.846L84.7187 140.509H84.6839V140.475L57.5045 113.115L57.2031 113.415V140.509V168.386L57.2662 168.449L57.2754 168.459H57.2569L57.2031 168.512V168.53L112.418 224.111L112.547 223.983V223.674V168.63V168.522L112.484 168.459Z" fill="#E0635C"/>
<path d="M30.107 85.532L29.6258 85.0477L29.4721 84.8929L1.96875 57.2092V84.8345V112.716L29.3696 140.509L29.6489 140.79L30.107 141.251L57.1348 168.459H57.2065V168.386V140.509V113.415V112.873V112.811L30.107 85.532Z" fill="#F4C55C"/>
<path d="M112.55 112.387L84.6873 84.3395L58.1905 57.6664L30.107 57.4373L1.96875 57.2092L29.4721 84.8929L29.6258 85.0477L30.107 85.532L57.2065 112.811L57.2685 112.874L57.7492 112.875L84.6873 112.955L112.55 113.037L113.047 113.039L113.123 112.964L112.55 112.387Z" fill="#468FBA"/>
<path d="M223.768 113.419L223.716 113.366L196.518 113.286L168.456 113.203L168.343 113.202L168.273 113.271V140.509V168.432V168.459H168.44L223.806 113.457L223.768 113.419Z" fill="#F4C55C"/>
<path d="M196.52 85.9882L196.132 85.5982L195.781 85.2446L168.275 57.9606V57.9611L141.176 58.0333L112.988 58.1061L140.567 85.1277L140.853 85.4152L141.176 85.7401L168.275 113.02L168.401 113.146L168.458 113.203L196.52 113.286L223.718 113.366L196.52 85.9882Z" fill="#468FBA"/>
<path d="M222.677 57.818L196.518 57.8872L168.273 57.9605L195.779 85.2445L196.13 85.5981L196.518 85.9881L223.716 113.366L223.82 113.367L223.927 85.3039L224.027 59.1766L224.032 57.88V57.8145L222.677 57.818Z" fill="#E0635C"/>
<path d="M141.177 141.203L140.671 140.695L140.488 140.51L113.199 113.04L113.047 113.039L112.55 113.037L84.6873 112.955L57.7492 112.875L57.5078 113.115L84.6873 140.475L84.7221 140.51L85.0562 140.846L112.487 168.459H112.55H112.723H141.177H168.249L168.251 168.457L141.177 141.203Z" fill="#5F9C70"/>
<path d="M141.174 85.7401L140.851 85.4152L140.565 85.1277L112.986 58.1061V58.1081V58.1092L84.6843 57.8832L58.1875 57.6664L112.547 112.387L113.12 112.964L113.196 113.039L140.485 140.509L140.668 140.694L141.174 141.203L168.248 168.457L168.273 168.432V140.509V113.271V113.202V113.019L141.174 85.7401Z" fill="#E0635C"/>
</svg>
