<svg id="Layer_1" data-name="Layer 1" xmlns="http://www.w3.org/2000/svg" xmlns:xlink="http://www.w3.org/1999/xlink" viewBox="0 0 141.73228 141.73228"><defs><style>.cls-1,.cls-3,.cls-7{fill:none;}.cls-2{fill:#468fba;}.cls-3,.cls-5,.cls-7{stroke:#55575b;stroke-miterlimit:10;}.cls-3{stroke-width:2.22735px;}.cls-4{clip-path:url(#clip-path);}.cls-5{fill:#55575b;stroke-width:1.54722px;}.cls-6{fill:#dadada;}.cls-7{stroke-width:2px;}</style><clipPath id="clip-path"><path class="cls-1" d="M71.986,132.15107a62.35582,62.35582,0,0,1-10.0445-.81059,61.65762,61.65762,0,0,1-26.52829-11.13842A62.18131,62.18131,0,0,1,16.971,98.6819a61.48984,61.48984,0,0,1-6.102-18.41388,62.64446,62.64446,0,0,1,0-20.09,61.65422,61.65422,0,0,1,11.13846-26.5291A62.17551,62.17551,0,0,1,43.52761,15.20784a61.4922,61.4922,0,0,1,18.41392-6.1013A61.93118,61.93118,0,1,1,71.986,132.15107Z"/></clipPath></defs><path class="cls-2" d="M74.67714,132.72915a62.35582,62.35582,0,0,1-10.0445-.81059,61.6576,61.6576,0,0,1-26.5283-11.13842A62.18106,62.18106,0,0,1,19.66209,99.26,61.48948,61.48948,0,0,1,13.56,80.8461a62.64446,62.64446,0,0,1,0-20.09A61.65457,61.65457,0,0,1,24.69849,34.227,62.17551,62.17551,0,0,1,46.21871,15.78592a61.49214,61.49214,0,0,1,18.41393-6.1013,61.93118,61.93118,0,1,1,10.0445,123.04453Z"/><path class="cls-3" d="M72.73439,132.08213a62.35582,62.35582,0,0,1-10.0445-.81059A61.65762,61.65762,0,0,1,36.1616,120.13312,62.181,62.181,0,0,1,17.71934,98.613a61.48948,61.48948,0,0,1-6.10206-18.41388,62.64522,62.64522,0,0,1,0-20.09A61.65457,61.65457,0,0,1,22.75574,33.58,62.17562,62.17562,0,0,1,44.276,15.1389,61.492,61.492,0,0,1,62.68989,9.0376a61.93118,61.93118,0,1,1,10.0445,123.04453Z"/><g class="cls-4"><path class="cls-5" d="M113.70439,125.95029c-3.75557,4.61672-11.13751,14.6185-18.15417,15.85012-3.38829,3.14045-6.034,7.22956-11.5427,7.38565-.15737,2.17485-.23626,3.26661-3.1725,3.13676-4.356.73871-6.72368,6.82684-10.01793,9.68141.00275.68267,1.328,2.08306-1.3283,1.22219,1.25832-.35979.6188-.87019-.31869-1.08047,1.10711-1.6211-.49612-3.80064.76361-4.859l-.10218.31767c-.30441-3.28031,15.09926-21.01371,6.674-26.37879-3.0529-5.09112-6.05869-15.642-.34517-19.6143,2.80217-7.34189,2.43071-6.72405,8.99257-10.9337-2.13076,7.1247-.23995-1.01333,9.425,2.94191-.41893,1.24942,2.34588,1.61724.84252,2.41878.408.77111,1.40689.48342,2.04738.92326.30928,2.70571,8.20184,5.52718,7.29873,6.18381,1.04472,1.91332-.73335,3.2972-2.79222,4.89961,4.86744,1.06707,13.78246,2.02972,11.73007,7.90509"/><path class="cls-5" d="M93.45053,17.486c-.0017.00391-.0033.00169.0001-.00016l-.00013.00016"/><path class="cls-5" d="M12.86444,38.43069c-.26553.32719-.34768.20567-.6533.21817.08746-.27644.777-.60741.6533-.21817"/><path class="cls-5" d="M159.07482,89.71133a67.41244,67.41244,0,0,0-6.68318-29.1919l.00232.01439c-1.20477-1.68948-1.20477-1.68948-1.37148-1.81119-.11815.30333-.10534.32935.56583,1.69162,1.603,6.67909,7.5707,10.918,7.474,30.59166q.0125-.64393.01249-1.29458M150.15766,56.2211q-.51454-.91415-1.05617-1.81536.5235.90949,1.05617,1.81536M123.39225,28.00121a74.85728,74.85728,0,0,0-8.57852-4.9612c.22957.14112.22957.14112.84908.49534-.22594-.10992-.44647-.22735-.66886-.34215.24881.15658.50355.30634.75692.45766-.3642-.1925-.71773-.39879-1.08367-.58905,3.12607,1.41431,17.088,17.02175,14.89025,12.51654,2.20186,1.45379,3.54189,3.57972,5.67142,5.09.11523-.56474.28932-1.41816-11.51391-11.81494,3.49763,1.64159,5.67348,5.14881,8.86637,6.88914a3.17218,3.17218,0,0,0-.13732-.45588c1.98275.94622,1.64023,2.3658,4.93,5.80913,1.15532,3.67511-3.77708-.42325-4.36419-1.85325.01626,1.39659,2.36305,2.89623,2.31305,4.55756a1.40394,1.40394,0,0,1-.44164-.30574c-.2482,1.0899,1.54462,3.27127-.31984,3.29847-.2941.76864,1.16112,1.01823-.50036,1.24523,1.48934,2.16032,8.12086,7.252,1.03051,5.74369-.19141,1.58323,1.47169,9.8674,6.25329,9.46216.1057-11.21658,1.63307-11.50607,7.849-.87434a9.9898,9.9898,0,0,0-.55724-2.485,1.72673,1.72673,0,0,1,.42854.31956c-1.29605-2.61178-4.536-4.24034-5.18644-7.17856,2.64117,2.15617,6.4418,8.4341,8.109,11.52287-.12149-.53781-.12149-.53781-1.91169-4.71125a3.31139,3.31139,0,0,1,.44922.59012c-.16285-.27949-.40127-1.40063.51755-.283.02366-.20361.02366-.20361-3.24758-7.23392.88379.7449,1.13851,1.77854,1.73963,2.65318-5.578-10.94573-15.6131-20.55212-26.65976-27.86584.14538.07524.33229.185.46811.27183-.01459-.00966.03437.02223.04909.03175"/><path class="cls-5" d="M155.53157,111.18063c4.272-12.46282,4.397-24.06887,1.2086-36.87092.10274.32718.2321.7651.32448,1.09445.16025-2.45711-1.436-2.92434-3.66554-6.07547-.35172.99723.0995,1.97954.07794,2.97071-4.97424-4.86048-3.23188-10.71422-13.12851-8.90558-.65859-.35388-1.14193,8.64267-3.45313,10.73714-1.95724,5.87582-.91066,12.08949-.689,17.34144,3.312,18.812,4.32459,4.44848,12.92508,11.03438,1.80988,3.40921-4.00932,22.98709-20.20531,41.6989,2.44162-.01338,19.03568-11.54749,26.60542-33.02505"/><path class="cls-5" d="M69.09069,13.1876a.37994.37994,0,0,0-.07514-.02443c.02467.00891.04951.0176.07514.02443m6.74247-.03252c.02717-.003.06263-.01094.08947-.01563-.5737-.17532-3.35306-.83011-3.04006-.46652-.52439-.03389-.76935-.28824-1.35386-.15565.13047.0987.31014.134.43716.23711a3.75227,3.75227,0,0,0-1.41763-.17227c-.06284.06073.85559.36059.95593.43721-6.20309-.62981.43575.813,1.92991.91289-.81524-.04-1.126.05382-.87468.49307-1.58117-.58272-2.83026-.551.90608.897-2.46838-.51555-1.35065.62063.308.969.14724.92665-1.78511-.68549-2.08054-.31218.4195.76741-.23285,1.26606,1.52751,1.36811.56631-.61325,2.508.27618,3.00943.19159,2.03052-.60534-3.847-1.00065-.84425-1.21878,1.34478-.06056.33706-.2507.77219-.72714-.27657-.53988-2.78075-.93181-.30743-.66751-1.06628-.61453.07358-.19244.66008-.23166-.31446-.36427-.64928-.39271-.17988-.84975-.51832-.51-2.41232-.63733-.49744-.68888"/><path class="cls-5" d="M93.44489,29.05034c-.329.346-.62275.48619-.196.96371-.86324-.19879-.50845.11224-.28635.65533-1.49361.16755-1.86589-2.08636-3.63035-1.92878-.49607,1.3715,3.41845,2.58683,3.947,4.91883-.95708-.36469-1.95366-1.56815-3.07864-1.29683.8405.80464,1.8991,1.42163,2.73845,2.22729-5.906-1.91762-3.80328-1.64136-5.44664-3.072-1.09562-.75128-6.11816-.30536-4.15971-1.6412,1.97994-.18316,2.64747.11694,1.72931-1.32329.45473-1.27779.45473-1.27779.24029-1.54388-2.02277-.8721-4.52368-3.38606-6.60384-3.74311,1.72632,1.15436,1.72632,1.15436,1.06411,1.13492-.69523-.22373-4.39962-.23983-6.32222-1.61a6.28928,6.28928,0,0,0,1.02783-.033c-1.21661-.48111-3.15695-1.9971-.55369-3.02732.80256.09348.75259.23512.65305.51731-.89857,1.08233,2.68083,3.94693.79354,1.57467-.37575-4.137,2.07475.46047,3.93191.23424,1.76872-1.40565,2.40613,1.14345,4.24285.72783.44419.79245,1.22232.90149,2.26085,1.12522.34768.25483-.35364,1.208.64483.60731.52032-.57392,1.15222,1.07477.81831,1.01835-.20376,1.60952,3.81338,2.5344,6.18517,3.5144"/><path class="cls-5" d="M54.55455,20.55633l.00453.0003q-.17933-.01523-.3589-.02843c.11795.01089.23616.01977.35437.02813m11.4599,3.03646a18.08016,18.08016,0,0,0-3.52036-4.01452,4.7925,4.7925,0,0,1-.31793,1.43926c-.32943-.43729-.47576-.94982-.81287-1.384-1.72529,1.93014-2.031-1.33236-3.60828-.11463,2.10512-.84621-.97728-1.74052-1.92031-1.81922-1.58149.13624-1.52557,1.83193-3.02964,2.33641,1.02607.60455,1.98448.66881,3.64814.112-.30584.371-.29647.37347.1946.50074,2.21879.51677.20682.53215-.58441.8033,1.09164.34015,2.259.48533,3.32054.90288-5.90746-.30174-1.99468,1.54869-.72678,1.79173.17487.13126,9.24665.34,5.961-.35364-.07585-.78236.90828-.31455,1.3963-.20032"/><path class="cls-5" d="M139.9498,137.28205c-.117.12489-.23512.249-.35671.37081a98.14935,98.14935,0,0,0,7.26229-9.12614,79.22353,79.22353,0,0,1-6.90558,8.75533"/><path class="cls-5" d="M126.84109,38.55078l.00164.0005c-.0157-.005-.03179-.00941-.04779-.01374l.04615.01324m-.04815-.01381.002.00057-.03054-.00858.02854.008m6.95141,5.22542a38.55325,38.55325,0,0,0-5.97739-4.86827c1.343-.62908-2.46141-1.81674-2.30087-2.86025-1.73522-.722.68284,2.23316,1.47443,2.54688l-.06915-.02089c.90543.959,3.96938,3.07349,4.07266,5.26347,2.02468.4464.42452,3.02538,3.51588,1.25615-.95242-.76088-.41694-.61516-.71556-1.31709"/><path class="cls-5" d="M68.60254,14.43507l.00265.00008-.0214-.00063.01871.00055m.11425.00351h.00049c-.0373-.00169-.07469-.00218-.11205-.00343.03717.00124.07436.0031.11156.00343m2.92116.34553c.03422-.00593.08063-.01009.11517-.01443-3.03673-2.32688-5.766-1.00121-1.89488-.00392-2.01987-.084.91791,1.07612,1.77971.01835"/><path class="cls-5" d="M113.27687,28.63054c-.05489-.01875-.11058-.03612-.16685-.05166.05548.01749.11086.03535.16685.05166m-.10622-.28359c-.79289-.75457-6.08483-4.157-3.71925-1.7461-.988-.25019-1.4033-.60639-.75221.4541-3.19648-2.62869-2.14873-.23976-.068.19607-.96275.67946.83649.34246.93432.934.31286,1.3657,3.63294,1.09486,3.60511.162"/><path class="cls-5" d="M74.764,18.77741l.01144-.00189c-.12055.01478-.23951.03677-.359.0564.11612-.01681.23187-.03554.34753-.05451m2.05815-.13375c.11023-.75709-4.43173.02866-6.3074-1.88993-1.29573,1.25534.86867,2.62954,4.29239,2.01809.71793-.12925,1.90381,1.048,2.015-.12816"/><path class="cls-5" d="M64.12049,17.74229c-.727.16082-3.69506.55423-4.1762.19376.48431-.24531,1.0818-.2257,1.56727-.46838-.55068-.01827-3.456.06712-2.48928-.38478,1.48293-.322.20972-1.26326,2.79747-.08027,1.44323.57321.47911-.49566.46607-.50778.66722-.64148.89639.33144,1.30728.67378.20914-.531.77937.12361.52739.57367"/><path class="cls-5" d="M93.13565,14.85416q-.15007-.03707-.3008-.07241.15019.03672.3008.07241m1.74746.32365c-.65642-.2066-2.64253-.7097-2.95161-.74767a4.43049,4.43049,0,0,0,.52129.16275c-.24652-.02459-.46158-.1741-.7259-.12821,1.49886.44126,4.33,1.08762,4.82017,1.35575l-.02769-.0329c.68811.14369,1.38422.54364,2.31116.73388-.149-.14521-3.55906-1.22137-3.94742-1.3436"/><path class="cls-5" d="M108.83333,52.46823c1.57929,2.75966-2.12052,2.08017-1.60441.70863-1.08338-.18163-2.25872.204-3.27891-.37125-.36865-.647.77339-3.54753,1.46908-3.776-.31782,1.69684.61112.66591,1.10862,1.8947-.07246.05307.54325.06246,1.60664.40861-.21308.63944.49516.77857.699,1.13532"/><path class="cls-5" d="M92.20047,14.42353c-.12677-.02763.17372.05524.17631.0496-.05586-.02119-.11788-.03236-.17631-.0496m-.0878-.07129-2.08591-.47436c-.0709-.01909,3.50635.90185,4.30776,1.1162-.17386-.08177-1.27442-.39968-2.22185-.64184"/><path class="cls-5" d="M67.06293,21.577c-.07864-.03278-.15914-.07138-.23673-.09956.07817.03439.15587.06965.23673.09956m1.72992-.82093c-.237-.575-1.74409-.57509-.418-1.33053-1.42231-.16081-1.88557-.36345-1.62927.73363-2.89348-.46932,1.46528,2.862,2.04726.5969"/><path class="cls-5" d="M128.61205,41.32521c1.941,2.73639.82622,3.54655-.78417,1.71962,1.10193-.59526-1.78535-1.95259-1.44069-2.39733,1.11685-.51956.38989-1.36283,2.22482.67771"/><path class="cls-5" d="M81.302,31.496c-1.25147.65682-2.09266-1.413-2.83976.18131-2.38-.03759-2.092-1.27839-1.52316-3.01262,1.26067,1.04955,3.3442,1.85809,4.36292,2.83131"/><path class="cls-5" d="M71.81672,19.59261a1.24081,1.24081,0,0,1-1.6416.92429c-.41462,2.29358-2.15259-3.1354,1.6416-.92426"/><path class="cls-5" d="M57.4453,16.36682a.61155.61155,0,0,0-.069-.00822c.02287.00332.04575.00694.069.00822m2.91566-.702c-2.069-1.09984-5.30718,2.07867,0,0"/><path class="cls-5" d="M65.35859,14.84245c-.02388-.0755-.07628-.12949-.09231-.12563-.038.01342.00875.15108.09231.12563m1.74.69643.01733.00038A2.93154,2.93154,0,0,0,64.8218,14.34a2.37183,2.37183,0,0,0,2.27675,1.19892"/><path class="cls-5" d="M67.8074,17.27344c-.45188,1.77023-.886-.1784-2.05068.11165-.09193-.29356.41476-.80934,1.03353-.25825-.68509-.90725,1.12653-.38126,1.01715.1466"/><path class="cls-5" d="M89.278,86.43386c-4.71851.78384-3.85634-3.13642-8.73068-3.91118,2.29768-.89858,7.25794,2.04185,8.96747,3.86734-.071.01316-.16528.03268-.23679.04384"/><path class="cls-5" d="M95.42878,88.88346c-.8637.94555-3.94221.45347-6.22984-.43439,1.39721-.25616,2.81692.46189,1.29821-1.46989,1.71457.19727,4.25855.66506,4.93163,1.90431"/><path class="cls-5" d="M69.46368,24.80545a2.71021,2.71021,0,0,1-2.3005-.35825,1.30369,1.30369,0,0,1,2.30047.35825"/><path class="cls-5" d="M68.103,15.54894l.00882.00027c-.02345-.00089-.047-.00212-.0705-.00241a.53753.53753,0,0,0,.06165.00214m.01.00027v0l-.00112,0,.00112,0m.00134,0h0l-.00137,0,.00134,0m.00095,0h.0001l-.001,0h0l.00092,0m.06757.002.00259.00009-.07006-.00209.06747.002m.02.00069-.01741-.0006a.09458.09458,0,0,0,.01741.0006m.40822-.192c-.04166-.17721-.445-.39175-.9791-.42874-.95726.20554,1.04282.99134.9791.42874"/><path class="cls-5" d="M83.54517,26.899l-.00148-.00338c.00933.02166.01769.04369.02779.06512-.00836-.02067-.01747-.04118-.02631-.06172M83.48,26.747l0,0c.006.016.0136.03145.02045.04713L83.48,26.747m.02543.05919c-2.48012-2.11746-.5284,2.59416.00944.0221l.02881.06731c-.014-.03315-.028-.06635-.04241-.09939l.00288.00691.00128.0031"/><path class="cls-5" d="M69.25629,17.02418l.00692-.00044c-.059-.001-.11707.00744-.17547.01146.05621-.00348.11238-.00749.16855-.011m.287-.12788c-.07981-.3373-.90308-.55361-1.3416-.444.28867.38312,1.03214.84911,1.3416.444"/><path class="cls-5" d="M62.83116,15.30585c-1.41594.89329-1.57126-.62135.04169-.04283-.01248.01286-.02877.03027-.04169.04283"/><path class="cls-5" d="M105.51466,117.27628c-1.16322,1.25445-2.1927,1.04-2.17312.42317-.00363.04108-.00714.08223-.01137.12325.00766-.09631.01616-.19257.0236-.28891-.001.02643-.00315.05284-.00518.07924-.23881-.96707,2.11593-.90255,2.16607-.33672"/><path class="cls-5" d="M77.75642,99.95969c-.04964-.0801-.11194-.1545-.16826-.23152.05759.07646.107.15748.16823.23152M42.06929,47.89448,42.081,47.865a1.573,1.573,0,0,0-.49024.91451,4.99021,4.99021,0,0,0,.47858-.88506m.07865-.21655a2.75009,2.75009,0,0,1-.55723,1.10161c-.18367-1.25795-.05711-2.50543-.9893-3.567,1.33892.60928,2.00431,1.45946,1.54653,2.46539m-1.61476-2.50257a1.42808,1.42808,0,0,1-1.29391-.85156,1.48964,1.48964,0,0,1,1.31328.85145l-.01937.00011m64.808,2.08754c1.2554-1.64682-6.48172-1.05335-2.4116-2.99214-4.71241-.84963-7.49524-10.47979-8.44585-5.59671-.83385.17576-2.93257-.16544-2.99241-1.33249-.08705-1.69782-5.25688-4.89534-7.52051-4.18381-.28021,2.45263,1.744,4.91588,1.925,7.24664-2.05665,2.22355-.27274,4.75063-1.44171,6.74134-3.65718-.6614-1.36316-4.73457-4.61343-5.62783-5.0748-1.06943-14.79956-5.84316-6.51627-9.68427.071-.59293-.652-.76183-1.17062-.99925,3.355.27448,4.83773-1.41755,1.10655-2.50194,2.09717.38329,3.75189.72245,2.72508-.46756.607-.13824.607-.13824,1.732.23144l-.26114-.44758c3.34082,1.34818,1.432-4.01251-1.2324-3.35456,1.73906,2.116-2.915,3.31605-1.475,1.11293-2.93343.5517-2.02567-3.1252-4.90832-3.32262-1.58021.267.56756,1.81616,1.10273,2.85259-.99535,1.89269-1.57685,1.37424-2.71173.29236a1.12754,1.12754,0,0,1,.10631.82578c-8.45954-.75749-7.33245.62548-11.80622-1.10741,1.29365-3.08994-8.36313-3.11883-9.98673-1.67033-.24839-.95709,1.85828-.8475,2.57488-1.35734-7.15067,2.29617-2.8193.31949-11.738-2.00959C27.98825,22.236,33.74976,22.239,29.57939,24.612c-.71939-2.21177-6.39517,2.96034-1.23823,1.35994-.09648,2.95254-5.46582.90415-5.93684,3.818.58688,1.18257-3.30351,3.73681,1.19462,3.08595-.68978,1.65412-2.769,1.93809-4.12931,2.931,3.72459-.26777,6.80757-3.50268,10.23618-4.852-.64118.47782-1.31807.92147-1.94014,1.4176,6.51375-3.60287,6.104,3.30386,10.02974,1.2617.57112.68909,3.00294,9.24192.49093,11.059,1.40343,2.36116,3.24,1.782,1.36963,5.384-2.53932,8.949,1.98707,24.787,8.76788,28.25447-1.39885-.77545-3.78751-8.14814-3.585-9.51178,1.12356.32446,9.2138,10.08974,8.39437,13.362-2.185,5.74013,14.92918,7.58248,19.76932,10.92624,2.835,2.88066,3.25973,6.95492,7.87412,8.26817,1.06026-2.09374-1.56284-2.46393-2.5976-3.61159-1.64452-1.962,1.43976-4.31211-.73044-6.231-1.45175-1.28361-4.1473,1.0125-5.08874-.87933-.41993-2.666,6.60938-10.20854-1.6372-6.06882-8.14694,10.57979-10.303-9.12538-3.25679-11.75439,1.93585-.34009,5.24364,2.02276,5.84762-.229,6.34715-.15352,10.77069,6.527,9.79063,6.72874,2.2361-2.18583-.97974-4.97564-.74134-7.36508.109-2.99071,5.31217-1.867,5.51664-4.78071,1.11162-.59718-1.16364-5.09592.94344-3.4596,2.22167-2.248,1.45977-4.5579,5.35043-3.931-.34164-2.86,2.85057-5.262,6.148-4.40888-2.2272.87133-2.2272.87133-2.34633,1.00839.40351,2.28909,3.1297-.26357,4.51221-.69365a8.43328,8.43328,0,0,1-5.13205-3.78169c4.30784-2.17708-2.83963-1.61957-4.21288,1.02711,1.209-6.06521,9.94478-1.72966,12.0989-5.68278"/><path class="cls-5" d="M103.52025,54.9597c.04713.31341-.39766.61636-1.0041.21471-1.47877-.94288,1.0273-2.38014.36616-.74992-.23637.36161.63814.22973.63794.53521"/><path class="cls-5" d="M24.8,34.3454q-.05679.02-.11231.04242c.03743-.01412.07551-.02712.11231-.04242m-.11251.0425.0002-.00008-.0002.00008m.66982.23977c.27835-.38093-.27484-.43681-.757-.20626l.03942-.01489c-1.66223.856-.91391,1.17635.71757.22115"/><path class="cls-5" d="M132.175,38.47887h0m0,0h0m0,0v0m0,0v0m0,0h0m0,0h0m0,0h0m0,0h0m0,0h0m0,0h0m0,0v0m0,0h0m0,0h0m0,0h0m0,0h0m0,0v0m0,0h0m0,0h0m0,0h0m0,0v0m0,0v0m0,0h0m0,0h0m0,0h0m0,0v0m0,0h0m0,0h0m0,0h0m0,0h0m0,0h0m0,0h0m0,0h0m0,0v0m0,0h0m0,0v0l0,0m0,0h0m0,0,0,0v0m0,0v0m0,0h0m0,0v0m0,0v0m0,0v0m0,0v0m0,0v0m0,0h0m0,0v0m0,0,0,0,0,0m0,0v0m0,0h0m0,0v0m0-.00006v0m0,0v0m0-.00005v0m0,0v0m0,0v0m0,0v0m0,0,0,0,0,0m0-.00005v0m0-.00006v0m0,0h0m0,0v0m0,0v0m-.0002-.00077,0,0,.00023.00077-.0001-.00052m-.00918-.07529-.0002-.00135c.00183.02556.00584.051.00925.07639-.00292-.025-.00564-.05006-.00905-.075m-.38207-.64937c-.02451-.02563-.05787-.05933-.08268-.08475-.08919.31957.31636,1.38913.46393.72922l0,.00016c-.008-.14562-.01425-.26064-.38128-.64463"/><path class="cls-5" d="M134.67775,40.34753c1.66585,2.21055-1.34863-1.00486,0,0"/><path class="cls-5" d="M3.59238,80.04769c-.57116,1.25658-1.17713.51171-.66252-.88365a.78927.78927,0,0,1,.66252.88365"/><path class="cls-5" d="M37.32073,38.94953a1.40457,1.40457,0,0,1-.109-1.64883c.42339.36719.45882.79629.14036,1.70054l-.03136-.05171"/><path class="cls-5" d="M19.09854,36.06507c-.84915.648-1.28356.75691-1.67461.72113a2.236,2.236,0,0,1,1.74592-.776l-.07131.05489"/><path class="cls-5" d="M94.0859,17.77341l-.00026-.00019.00914.00841-.00888-.00819m-.0155-.01385h0l.01524.01363-.01524-.01363m1.028.25759c.05966.01768-1.10611-.50012-.97981-.21628.19926.12419,1.26774.40491.97981.21628"/><path class="cls-5" d="M36.91169,40.37445c-1.7603,1.69922-.4097-1.7808,0,0"/><path class="cls-5" d="M86.5,88.89459c-.71786.22242-1.95-.21775-1.71219-.61167.33229-.70055,2.01133.34906,1.71219.61167"/><path class="cls-5" d="M16.61047,37.12007c-.00616.00612-.72255.55805-1.25439.297a3.77966,3.77966,0,0,1,1.171-.565l-.06508.00949c.225-.076.33777.08988.14849.25844"/><path class="cls-5" d="M80.38754,82.58025a4.27825,4.27825,0,0,1-2.24705.77416,2.61343,2.61343,0,0,1,2.31151-.819l-.06446.04485"/><path class="cls-5" d="M80.48383,82.53389c-.00226.005-.01505.00565-.03183.00151.00689-.00732.03048-.012.03183-.00148"/><path class="cls-5" d="M36.90559,35.37688c-1.893.76381-.01435-1.48706.00833.00488l-.00833-.00488"/><path class="cls-5" d="M98.19758,89.35637c-1.86793,1.34779-1.06435-1.17634,0,0"/><path class="cls-5" d="M36.6458,36.32821a3.13633,3.13633,0,0,1-.44686.59555c-.45688-.30933.706-1.71167.44686-.59555"/><path class="cls-5" d="M80.52778,82.51566c-.05069.05519-.04794-.027,0,0"/><path class="cls-5" d="M99.656,19.9134c-.06676-.038-.15862-.085-.22659-.12146.29394,2.41125-2.69473-1.822-.98061.70961a4.60943,4.60943,0,0,0-3.19924-1.65817,33.38144,33.38144,0,0,1,3.48905.58019c-1.93963-.8904-4.29235-.95357-6.08966-2.129.26278-.16038.44817.16458.71976.18929-1.37109-.92188-3.13356-1.17915-4.62008-1.90507l.18467.008a28.37824,28.37824,0,0,0-4.617-1.47228l.13856.10161c-2.694-.3804-5.09241-1.56731-7.77073-1.99042.71554.24868,1.47509.38484,2.20285.60227-.58409-.13433-1.1621-.2868-1.75179-.40412.11733.04324.11733.04324.83611.24572a2.72,2.72,0,0,1-.59664-.11609c.12438.05092.29047.11834.41547.16818-1.071-.22041-2.09918-.56827-3.18325-.74994.12342.135.12342.135.99459.35156-.11677-.01544-.273-.03337-.39042-.04467a7.17349,7.17349,0,0,0,.85931.18606c-.10733-.00469-.25019-.01664-.35638-.03057.27291.07751.55053.14236.82556.21414a2.62341,2.62341,0,0,1-.55623-.0686,3.46389,3.46389,0,0,0,.89314.31734,5.25337,5.25337,0,0,1-.84765-.2253l.17328.06945a2.98175,2.98175,0,0,1-.59841-.0726,3.95925,3.95925,0,0,0,.42628.18189l-.17924.01264c3.02308,1.18259-.38694,1.42439,3.35711,2.27722-.14612.20142-.4521.05269-.68921.07376,1.63479,1.02014,8.37626,2.8746,8.77251,4.3601.65048.38326.68616.8368,1.1856,1.18708.44038-1.09623,2.46945.87059,2.80041.84985-.46646.04615-2.463-.49587-1.0703.22113-.4886,1.06325,3.63962,1.80623.69178.26039,1.32019-.03546,3.12807,1.5462,2.41747,1.95793,1.70537.47741.76313,1.47831.31846.50445-.63074.15094-.68817.93837-.88107.74791,2.561.72628.81152,1.651,2.92447.50192.06976.53392-1.347,1.11136-.33865,1.65238.90319-.116,2.664,2.96138,1.93919.68757a9.04935,9.04935,0,0,1,1.73271,1.01588c-3.71579-.17388,4.70218,4.4263,5.8348,4.795,1.18991-1.08852,2.552,1.14277,2.56386,1.16706,3.72085.36168-2.59686-4.39362-1.65753-5.62849-1.328-.67994-1.51-1.75884-2.41427-2.46255.44791-.10624-.01823-.77355.113-1.09859a9.89376,9.89376,0,0,1,.75732.66514c.09874-1.22084-1.41958-2.51532-2.56184-3.7013q.33394.07913.66684.16152a4.95016,4.95016,0,0,0-2.65734-3.145"/><path class="cls-5" d="M83.49079,100.51982c-.81253-.04749-.48583.02156-1.725-.67729.8175-.21785,1.1889.018,1.76152.6755l-.03648.00179"/><path class="cls-5" d="M2.91155,78.55405c-.25681.62324-.56883-.5325-.21235-.51972.16237.02145.2408.33007.21235.51972"/><path class="cls-5" d="M13.93891,38.079c-.04775.0593-.367.37333-.41013.23522-.12425-.19123.7163-.75487.41013-.23522"/><path class="cls-5" d="M95.90592,103.793c-.22856.78027-1.01512-.19346-.23345-.26356.20166.02389.25282.15177.23345.26356"/><path class="cls-5" d="M86.02464,18.824c.02.23527-.48822-.34963.01334.017l-.01367-.01706.0003.00011"/><path class="cls-5" d="M92.30324,22.5693c.145.259-.27774-.02438-.22413-.16671a1.85756,1.85756,0,0,1,.2241.16671"/><path class="cls-5" d="M1.61623,77.54435c-.3374.64976-.24194-.79062,0,0"/></g><circle class="cls-6" cx="73.82178" cy="66.25213" r="16.218"/><path class="cls-6" d="M37.998,133.392c0-26.09023,15.99159-47.24053,35.71822-47.24053s35.71822,21.1503,35.71822,47.24053Z"/><circle class="cls-7" cx="73.04286" cy="68.13835" r="16.218"/><path class="cls-7" d="M37.21908,135.27819c0-26.09023,15.99159-47.24053,35.71822-47.24053s35.71822,21.1503,35.71822,47.24053Z"/></svg>