<svg id="Layer_1" data-name="Layer 1" xmlns="http://www.w3.org/2000/svg" xmlns:xlink="http://www.w3.org/1999/xlink" viewBox="0 0 141.73228 141.73228"><defs><style>.cls-1{fill:none;stroke:#1d1e20;stroke-linejoin:round;stroke-width:1.5px;}.cls-2{fill:#5f9c70;}.cls-3{clip-path:url(#clip-path);}.cls-4{fill:#fff;}</style><clipPath id="clip-path"><circle class="cls-1" cx="70.56779" cy="70.26944" r="63.51175"/></clipPath></defs><circle class="cls-2" cx="71.16449" cy="71.46285" r="63.51175"/><g class="cls-3"><path class="cls-4" d="M86.36637,94.174c-1.592-2.18964-11.30539-4.34115-10.11183-1.60008C80.62438,90.06367,82.56479,95.93629,86.36637,94.174Z"/><path class="cls-4" d="M86.05,95.90775c.56443.66967,8.803-.06475,4.94181-.76292,1.85528-.83865-3.44512-1.11173-3.80464-.799.02705.39907.62905.34992.54984.86941C87.80267,96.05229,85.573,94.80654,86.05,95.90775Z"/><path class="cls-4" d="M22.98213,42.274c-.78307-.30907-3.33429,1.21294-1.85085,1.65315C20.80756,44.657,25.15231,42.73349,22.98213,42.274Z"/><path class="cls-4" d="M13.14269,28.87012c.94225-.32075.70362.71559,1.13005,1.10322,1.29477-.10127,1.23919-.49623.40279-1.38658.17949-.85222-.82782-.04474-.84125-.722C13.68169,27.14955,12.38127,28.7851,13.14269,28.87012Z"/><path class="cls-4" d="M102.99237,68.2026c1.80611-.44358.92305-.73764.52-1.71051C102.86447,66.57375,101.69674,68.1902,102.99237,68.2026Z"/><path class="cls-4" d="M82.74711,95.61421c-2.02309.01129.504,1.2555,1.37085.84844C85.04627,95.86924,83.21715,95.51276,82.74711,95.61421Z"/><path class="cls-4" d="M13.79419,36.57207c1.43174-1.159-.09584-.98347-.99536-.96478C12.01882,35.846,13.28512,36.77645,13.79419,36.57207Z"/><path class="cls-4" d="M102.47,64.15927c1.52794-.14913-1.45508-1.56848-1.80463-1.08644A2.66164,2.66164,0,0,0,102.47,64.15927Z"/><path class="cls-4" d="M94.07543,95.50751c-.68876-.2852-1.518.676-.46715.81256C94.74976,96.47815,95.65859,95.27478,94.07543,95.50751Z"/><path class="cls-4" d="M6.82816,46.94227c-.43636.31933-.719,1.02124-1.34527.9132C5.66558,49.17524,8.95857,46.71746,6.82816,46.94227Z"/><path class="cls-4" d="M5.45557,47.85288c.02891.00949.03006-.00711.02935-.03075Z"/><path class="cls-4" d="M10.87974,45.92884c-.21948-.65336-1.81838-.07643-1.75119.58954C9.45737,46.68658,11.41827,46.76117,10.87974,45.92884Z"/><path class="cls-4" d="M82.79879,89.34639c-.595.52473.19043,2.0785.71821,1.09467C83.29745,90.16811,83.25189,89.09965,82.79879,89.34639Z"/><path class="cls-4" d="M5.45338,47.8501c-.00132.01232.0284-.02841.03035-.02726Z"/><path class="cls-4" d="M5.38877,47.66659c-.606-.33336-.91721.25754-1.2257.60769C4.19728,49.04851,5.59859,48.02878,5.38877,47.66659Z"/><path class="cls-4" d="M99.95744,66.8818c.33434.35118,2.17957,1.25329,1.40913.17328C100.83318,67.16047,99.80075,65.99242,99.95744,66.8818Z"/><path class="cls-4" d="M83.08387,87.54874c-.51784-.24307-1.57422.2617-.69213.59778C82.63049,88.06852,83.46877,87.90294,83.08387,87.54874Z"/><path class="cls-4" d="M84.08945,88.66823c.46082-.18.0371-1.13419-.37236-1.27914C83.40165,87.79488,83.87105,88.37766,84.08945,88.66823Z"/><path class="cls-4" d="M84.73179,89.623c.33547-.10137-.00889-.73813-.23587-.56992C84.2192,89.18613,84.53462,89.634,84.73179,89.623Z"/><path class="cls-4" d="M31.2512,39.18068c-.37414.13906-.08468.47575.2159.38212C31.48356,39.384,31.55862,39.15114,31.2512,39.18068Z"/><path class="cls-4" d="M123.86624,116.86942c-2.189-1.13705-5.66557-3.58282-8.1453-1.78.3508-1.60246-2.38241-2.51469-3.802-1.75355.42014-2.123-2.58846.16207-3.09324-.39888,5.56434-6.04662-10.4336-5.90477-11.00663-10.38935-2.299,1.76731-8.10822-1.58727-7.49953-.55266-1.15471.369-2.66354,1.02887-1.32778-.66114-3.56891.57627-12.33377,6.37215-12.51138.08305.19874-2.07371,1.40568-2.16851-.71144-3.39039-4.09777-.25753-5.49676,1.30507-2.96944-2.81571,2.97933-4.354-2.72345-2.90308-3.41391-.27956-.60964-.0566-.41851,1.09687-.989.669-.97229-.71272-2.32109.98881-3.17095-.14823-3.62685-1.346-2.66651-7.86731-.2122-9.68033,2.322-1.25608,3.63874-1.09978,5.86208-.35812,2.16629-.24823.6597-.00207.98759-1.13375a11.84554,11.84554,0,0,1,6.11049.78742c.92541,5.32675,4.52231,5.91092,2.13992-.40579.30659-4.37879,8.2881-3.48484,6.26558-9.29633.24156,5.28885,1.64592-4.05862,6.23946-2.84478.45746.4485,1.13214-.62507.43349-.49232-1.01336-2.77115,3.66153-2.86528,5.05421-3.398-2.70715,3.03047,3.69036.34215,4.33109-.35672-.89524-1.00445-3.49011-.39344-2.8867-2.44249.19608-.43224-.3721-.32522-.66961-.58967,4.25467-1.41892-2.20737-1.58793-3.3333-.38882,3.42843-3.72509,8.39731-1.22775,12.72617-3.3885-2.66463,3.00716-4.93988,4.68314.227,4.73329-.32756.04006-1.33422.59354-.462.822.56983.30433,1.23814-1.36879,1.47066-.522-.261.68313.36463.13157.57588.47338.64715,1.072,1.56781-1.38573.754-1.14987-.003-.332.29064-1.328-.30011-1.16078-1.03811.01715,1.51351-1.31858-1.04195-.77024-2.837-1.44037.48723-2.02575-1.00725-2.48655,1.96041-.96348.60093-3.41485-1.244-3.42113,2.6203-1.26122-3.77062-1.43815-2.04683-3.56985-1.49838-4.003.20922-7.14837-3.97513-2.67738-2.51662,1.45662-2.35554-2.33335-1.15468-3.46661-2.3355-1.44692-6.02478-5.5636-7.24936-2.19523.53048,1.0466-1.27167.62091-.32758,2.79444-4.06337,2.75666.0418,1.48361-1.004,5.36067-4.303,1.11025-3.36206,3.26366-4.05445,6.2899-6.055-1.4685,2.50032-5.14686-6.03751-7.07041-1.01047-.888-2.29946-2.28857-3.75836-1.60508.49021-.47695-.11915-3.68695-1.18522-2.064-.16226-3.11542,4.02754-5.47713,4.79285-7.03843,1.91649,1.237.68723-.47351,1.36938-.50462.90146.35216.92814-1.03563,1.66225-.80034,2.27129,1.44041,3.75714-4.63005,5.23577-3.38547.13263.45507,1.609.43956,1.12054-.2332,1.42339,1.35176,3.77264-1.2807,2.81135-3.0023.8531.0636,1.70517-.51031,1.51816-1.42755-1.26653-1.32107-2.80443-2.16718-3.43271.082-5.9254,7.25831-.5278-4.23605-3.83181-.50266-.42331.22353-.22235-1.01312-.16781-1.28794-.22668-.24989-1.63641-.31365-.77879-.85306,1.69882-1.08449.32341-1.15563.76614-2.81118.65526-1.26341-1.51292-2.46567-1.62858-.93836-1.65842.41951-3.20927,2.88571-1.06815,4.46655-1.10262,3.41524-2.10973,1.00449-3.15436,3.976.74222-1.35834.13511-3.62959-1.39023-2.57251-.2563,1.5336-1.52457.48147-2.52132.66851-2.63456.57877-1.94461-3.708-4.13141-3.38618.95937-1.04569,1.033.43009,1.91772.66047.91439.18189,4.36661.46416,2.27952-.955,0,0,.0869.00388.08252.00224.45043-.00925.55548-.77447.956-.23887,2.96882,1.08213-2.06018-3.09994,1.23129-7.05912,3.83754-.62929-.44634-3.91381-.31181-.77151-2.49219-2.10735-1.72574,2.54072-3.37758,3.25257.032-.7585,1.35139-4.19488-.19525-3.06424-.16511,1.0496-.56675.78442-1.54592.44222,1.8024-.34533-.36993-2.258-1.30826-1.11546.90061-.66656.60819-1.549-.49973-1.381,1.25794-.67264.37154-3.49325-1.01609-2.3408-.36193-1.52784-2.59524-1.56807-4.069-1.33835.64942,2.42891-3.8848,3.081-4.38773,4.77753,1.39937.72479-.44176,2.95268,2.14654,1.4625.56192,1.82354,3.02858-2.37248,4.6094-1.92182-1.192.93589-3.4969,2.18484-1.5728,3.12775-4.03107,1.28233,2.37842,1.87529,3.30232,3.0839-2.56768-.68643-8.43048-1.14564-3.21324,2.10876-.996,2.43958,2.2735,1.30127,3.738,1.48992-.93079,1.3494.65479,1.27374,1.63405.92-1.42173.071-2.29005,1.54721-2.89436,2.83606.877-3.908-5.54262-1.05761-4.56373-3.59211,4.04846-.133-4.001-5.513-5.663-4.14031,1.70468-2.311-.04669-1.64938-1.14484-.0992a15.18351,15.18351,0,0,0-.30936-3.153c-.02566,1.17081-3.36827,2.09736-1.9666.68529-1.41078,1.00233-7.52733-.96426-5.92881,1.50618C48.9263,22.278,44.86547,20.40722,41.4756,18.6593c-1.44343-1.36881-2.2804-4.097-4.83979-3.1647-5.26613,2.01062-14.97479,2.47531-9.8575,9.1254-1.57914-2.08883-.36307,2.20372-2.90232.15452,1.72877-2.21087-4.81647-.2167-4.6156.38046.04742.29484,1.30938.95181.53691.9344C17.299,28.39513,22.58969,28.637,23.74072,28.2038c-.98842.08537.16018.58142-.58164,1.57525-1.01083,1.50479-3.24526.22585-4.58978,1.55588.7529-1.51081-1.7438.073-.13528.10405-1.31883.44329-4.69138,2.10147-2.37385,3.51959-2.54834.05151.07,4.01121,1.13555,1.50232,0,0,.03279.0678.03771.061-.55519,2.314-1.81895,2.70818.72326,3.20076.32727,1.2348.93-.17449,1.82788.54164C18.34279,43.953,13.19317,43.39608,11.157,46.047c7.07126-.554,11.62543-5.80037,17.28923-8.89594-6.18411,3.62911.40817,5.06016,1.60385,1.345,1.84508.22857,3.71157,2.04718,5.9699,2.721,1.02815,1.1038,2.15766,4.528,3.92485,2.87678,1.365,3.58169-.13822,8.92778,2.41,11.23257-2.38656,1.6527,3.22251,3.39635,2.333,5.90759-.545-3.30809-7.27548-5.97624-1.23163-.31466-.959-.95123-.81784,3.284-.80221,3.22729-2.70069,5.2897-4.38207,12.59129,1.66167,15.87685,2.97452,3.81406,1.90622,9.18727,6.78584,10.98935-.94365-2.78527-4.3024-5.91675-3.75287-8.70988,3.21137,3.22719,6.06842,9.04544,9.10185,13.25225,4.73724,3.65875,11.324,2.23386,16.32553,5.68682,4.0345,6.54541,6.52022,2.49863,8.76223,4.1619,4.283,3.878-5.72742,7.72714-1.97788,9.46052.135.901-3.0182,2.3549.4518,3.84635,1.81916,6.89322,11.4983,7.86867,10.27776,15.089.44271,7.69129-2.02548,14.41467.79211,20.906.84026,2.15893.2084.33974-.18959,2.81115-1.45453-1.34516-.98466.16885-1.82869.81855,1.59888.60911,1.42274-.92332,1.75039,1.41276.93449.96834-1.6899,1.75577-.02331,2.374.05281.28943.6701-.19183.36373.38249-.05163.65027.97551.07179.85527.96564,1.0879.87358-.78914,1.58094,1.79852,1.19994-2.74028.33831.44855,1.92149,1.61512,2.30855,1.35611.21883-.74332-1.89919,2.39685-2.3394-2.68689-2.00275,1.18169-3.73489,1.09657-5.85344-2.06185-1.714-2.81232-1.24911-.3396-3.10287.44062-.60036-.57676-1.23856.31865-1.71912.41386-.21938.14865-.37364.09068-.64944.161-.1972.71672.56606.91465.00139.56414-1.636-1.40218-.11474-1.51786-.98877-.87224-2.39117,2.69333.69082,2.44895-1.68129-1.14534-3.63239,7.97384.23066,3.65277-6.08954,5.25429,2.34384,4.79062-5.45934,6.24381-4.23661-2.12641,3.028,1.47391-.88492,2.03491-2.26988-.48256-2.264.83706-3.82087,3.04995-4.45629,5.13152-.68222,6.33759-5.27443,5.70933-10.13406C123.661,123.85606,128.28974,117.174,123.86624,116.86942ZM98.67967,68.30309c.298-.36464.52814-.00127.87848.0665a1.28272,1.28272,0,0,0-1.34134.21256A3.74993,3.74993,0,0,1,98.67967,68.30309Zm8.1772-10.1775c-.31254.152-.58957.36174-.86664.47893A2.61828,2.61828,0,0,1,106.85687,58.12559ZM94.32475,65.92792c.4042-.25844.66123-.692,1.06188-.9618C95.1264,65.19331,94.143,66.15,94.32475,65.92792ZM69.004,23.77471a8.88081,8.88081,0,0,1,.89673-.01816A4.71239,4.71239,0,0,1,69.004,23.77471ZM16.08788,34.97489c.04616.0293.09078.06133.136.09287A1.313,1.313,0,0,1,16.08788,34.97489Zm.41.11182a.2726.2726,0,0,1-.24042-.00189C16.40945,35.12536,16.81835,34.85106,16.49792,35.08671ZM56.28411,24.71954c-.93724.35242-2.05319.202-2.86669.90246a.64846.64846,0,0,0,.036-.07124c.8657-.62852,1.93637-.51483,2.88952-.86589C56.32331,24.69636,56.30366,24.70736,56.28411,24.71954Zm32.22727,78.66064c.02368-.13625.10013-.27588.13654-.418A.61573.61573,0,0,1,88.51138,103.38018Zm15.6821,41.06884c-.17959-.03424.0798-.0139.1566.07034A.60341.60341,0,0,1,104.19348,144.449Zm6.89808-30.4721c-.08926.1609-.14043.34129-.22344.5045.00467-1.29849-.96732.09548.79271-.92016A2.41418,2.41418,0,0,1,111.09156,113.97692Z"/><path class="cls-1" d="M87.362,94.40325c-1.592-2.18964-11.30539-4.34114-10.11183-1.60007C81.62005,90.29294,83.56046,96.16556,87.362,94.40325Z"/><path class="cls-1" d="M87.04567,96.137c.56443.66967,8.803-.06474,4.94181-.76292,1.85528-.83864-3.44512-1.11172-3.80464-.799.02705.39908.62905.34992.54984.86941C88.79834,96.28157,86.56864,95.03582,87.04567,96.137Z"/><path class="cls-1" d="M23.9778,42.50328c-.78307-.30907-3.33429,1.213-1.85085,1.65316C21.80323,44.88623,26.148,42.96276,23.9778,42.50328Z"/><path class="cls-1" d="M14.13836,29.09939c.94225-.32075.70362.7156,1.13,1.10323,1.29477-.10128,1.23919-.49623.40279-1.38659.17949-.85222-.82782-.04474-.84124-.72194C14.67736,27.37883,13.37694,29.01437,14.13836,29.09939Z"/><path class="cls-1" d="M103.988,68.43188c1.80611-.44359.92305-.73765.52-1.71052C103.86014,66.803,102.69241,68.41947,103.988,68.43188Z"/><path class="cls-1" d="M83.74278,95.84349c-2.02309.01129.504,1.25549,1.37086.84843C86.04194,96.09851,84.21282,95.742,83.74278,95.84349Z"/><path class="cls-1" d="M14.78986,36.80134c1.43174-1.159-.09584-.98346-.99536-.96477C13.01449,36.07526,14.28079,37.00573,14.78986,36.80134Z"/><path class="cls-1" d="M103.46568,64.38854c1.52794-.14913-1.45507-1.56848-1.80463-1.08644A2.6616,2.6616,0,0,0,103.46568,64.38854Z"/><path class="cls-1" d="M95.0711,95.73679c-.68876-.28521-1.518.676-.46715.81255C95.74543,96.70742,96.65426,95.50405,95.0711,95.73679Z"/><path class="cls-1" d="M7.82383,47.17154c-.43636.31933-.719,1.02124-1.34527.9132C6.66125,49.40451,9.95424,46.94674,7.82383,47.17154Z"/><path class="cls-1" d="M6.45124,48.08215c.02891.00949.03006-.00711.02935-.03075Z"/><path class="cls-1" d="M11.87542,46.15811c-.21949-.65335-1.81839-.07643-1.7512.58954C10.453,46.91586,12.41394,46.99044,11.87542,46.15811Z"/><path class="cls-1" d="M83.79446,89.57566c-.595.52473.19043,2.0785.71821,1.09468C84.29312,90.39738,84.24756,89.32892,83.79446,89.57566Z"/><path class="cls-1" d="M6.44905,48.07937c-.00132.01232.0284-.02841.03035-.02726Z"/><path class="cls-1" d="M6.38444,47.89586c-.606-.33336-.9172.25754-1.2257.60769C5.193,49.27778,6.59426,48.25805,6.38444,47.89586Z"/><path class="cls-1" d="M100.95311,67.11108c.33434.35117,2.17957,1.25328,1.40913.17328C101.82886,67.38974,100.79642,66.22169,100.95311,67.11108Z"/><path class="cls-1" d="M84.07954,87.778c-.51784-.24306-1.57422.26171-.69213.59778C83.62616,88.29779,84.46444,88.13221,84.07954,87.778Z"/><path class="cls-1" d="M85.08512,88.8975c.46082-.18.0371-1.13419-.37236-1.27914C84.39732,88.02415,84.86672,88.60693,85.08512,88.8975Z"/><path class="cls-1" d="M85.72746,89.85223c.33548-.10137-.00889-.73813-.23587-.56992C85.21487,89.4154,85.53029,89.86327,85.72746,89.85223Z"/><path class="cls-1" d="M32.24687,39.41c-.37414.13905-.08468.47574.2159.38211C32.47923,39.61326,32.55429,39.38041,32.24687,39.41Z"/><path class="cls-1" d="M124.86191,117.0987c-2.189-1.13706-5.66557-3.58283-8.1453-1.78.3508-1.60247-2.38241-2.51469-3.802-1.75356.42013-2.123-2.58847.16207-3.09325-.39887,5.56434-6.04663-10.4336-5.90478-11.00663-10.38936-2.299,1.76732-8.10822-1.58727-7.49953-.55266-1.15471.369-2.66354,1.02887-1.32778-.66114-3.56891.57627-12.33377,6.37215-12.51138.08305.19874-2.07371,1.40568-2.16851-.71144-3.39039-4.09777-.25753-5.49675,1.30507-2.96944-2.81571,2.97933-4.354-2.72345-2.90307-3.41391-.27955-.60964-.0566-.41851,1.09687-.989.669-.97229-.71272-2.32109.98881-3.171-.14823-3.62685-1.346-2.66651-7.86731-.2122-9.68033,2.322-1.25608,3.63874-1.09978,5.86208-.35811,2.16629-.24824.6597-.00208.98759-1.13376a11.84554,11.84554,0,0,1,6.11049.78742c.92541,5.32676,4.52231,5.91093,2.13992-.40579.3066-4.37879,8.2881-3.48484,6.26558-9.29632.24156,5.28884,1.64592-4.05863,6.23946-2.84479.45746.44851,1.13214-.62506.43349-.49232-1.01336-2.77115,3.66154-2.86528,5.05422-3.398-2.70716,3.03047,3.69035.34215,4.33108-.35672-.89524-1.00445-3.49011-.39344-2.8867-2.44249.19608-.43224-.3721-.32521-.66961-.58967,4.25467-1.41892-2.20737-1.58793-3.3333-.38881,3.42843-3.7251,8.39731-1.22776,12.72617-3.38851-2.66463,3.00716-4.93988,4.68315.227,4.73329-.32756.04006-1.33422.59354-.462.822.56983.30434,1.23814-1.36879,1.47066-.522-.261.68313.36463.13157.57588.47338.64715,1.072,1.56781-1.38573.754-1.14987-.003-.332.29064-1.328-.30011-1.16077-1.03811.01714,1.51351-1.31859-1.04195-.77025-2.837-1.44037.48723-2.02575-1.00725-2.48654,1.96041-.96349.60093-3.41486-1.24395-3.42114,2.6203-1.26122-3.77062-1.43815-2.04683-3.56985-1.49838-4.003.20922-7.14837-3.97513-2.67737-2.51661,1.45661-2.35554-2.33336-1.15468-3.46662-2.3355-1.44692-6.02478-5.5636-7.24936-2.19522.53048,1.04659-1.27167.62091-.32758,2.79443-4.06337,2.75667.0418,1.48361-1.004,5.36067-4.303,1.11025-3.36206,3.26366-4.05445,6.2899-6.055-1.4685,2.50033-5.14686-6.03751-7.07041-1.01047-.888-2.29946-2.28857-3.75836-1.60508.49021-.47695-.11915-3.68695-1.18522-2.064-.16226-3.11542,4.02754-5.47712,4.79285-7.03843,1.91649,1.237.68723-.47351,1.36938-.50461.90146.35216.92814-1.03564,1.66225-.80035,2.27129,1.44042,3.75715-4.63005,5.23577-3.38546.13263.45507,1.609.43955,1.12054-.23321,1.42339,1.35176,3.77264-1.2807,2.81135-3.0023.8531.0636,1.70517-.51031,1.51816-1.42754-1.26653-1.32107-2.80442-2.16719-3.43271.08195-5.9254,7.25831-.5278-4.23605-3.83181-.50266-.42331.22353-.22235-1.01312-.1678-1.28794-.22669-.24989-1.63642-.31365-.7788-.853,1.69882-1.08449.32341-1.15563.76614-2.81119.65527-1.26341-1.51292-2.46567-1.62858-.93836-1.65842.41952-3.20927,2.88571-1.06815,4.46655-1.10262,3.41524-2.10973,1.00449-3.15436,3.97605.74222-1.35835.13511-3.6296-1.39023-2.57252-.2563,1.53361-1.52457.48147-2.52132.66851-2.63456.57878-1.94461-3.708-4.13141-3.38618.95937-1.04569,1.033.4301,1.91772.66047.91439.18189,4.36661.46417,2.27952-.955,0,0,.0869.00388.08252.00224.45043-.00925.55548-.77447.956-.23887,2.96883,1.08213-2.06018-3.09994,1.23129-7.05912,3.83754-.62929-.44633-3.91381-.31181-.77151-2.49219-2.10735-1.72574,2.54072-3.37758,3.25257.032-.7585,1.3514-4.19488-.19525-3.06423-.16511,1.0496-.56675.78441-1.54592.44221,1.8024-.34533-.36993-2.258-1.30826-1.11545.90061-.66656.60819-1.549-.49973-1.381,1.25794-.67265.37155-3.49326-1.01609-2.34081-.36193-1.52784-2.59524-1.56807-4.069-1.33835.64942,2.42891-3.8848,3.081-4.38773,4.77754,1.39937.72478-.44176,2.95267,2.14654,1.46249.56192,1.82354,3.02858-2.37248,4.6094-1.92181-1.192.93588-3.4969,2.18484-1.5728,3.12774-4.03107,1.28233,2.37842,1.87529,3.30232,3.0839-2.56768-.68643-8.43048-1.14564-3.21324,2.10876-.99595,2.43958,2.2735,1.30127,3.738,1.48992-.93079,1.34941.65479,1.27375,1.634.92-1.42172.071-2.29,1.54721-2.89436,2.83606.877-3.908-5.54262-1.05761-4.56373-3.59211,4.04846-.133-4.00094-5.513-5.663-4.14031,1.70468-2.311-.04669-1.64938-1.14484-.0992a15.18289,15.18289,0,0,0-.30936-3.153c-.02566,1.17081-3.36827,2.09736-1.9666.68529-1.41078,1.00234-7.52733-.96426-5.92881,1.50619-2.62752-3.13418-6.68835-5.00494-10.07822-6.75285-1.44342-1.36881-2.2804-4.097-4.83979-3.16471-5.26613,2.01062-14.97478,2.47532-9.8575,9.1254-1.57914-2.08883-.36307,2.20372-2.90232.15452,1.72877-2.21087-4.81647-.2167-4.6156.38046.04743.29484,1.30938.95181.53691.93441-2.49832,2.30574,2.79239,2.54764,3.94343,2.11441-.98843.08537.16017.58142-.58165,1.57525-1.01083,1.50479-3.24526.22585-4.58978,1.55588.7529-1.51081-1.7438.073-.13528.10405-1.31883.4433-4.69138,2.10147-2.37385,3.5196-2.54834.0515.07,4.0112,1.13555,1.50231,0,0,.03279.0678.03771.061-.55519,2.314-1.81895,2.70817.72326,3.20075.32727,1.2348.93-.17448,1.82788.54164-1.44178,3.68871-6.5914,3.13176-8.62756,5.78268,7.07126-.554,11.62543-5.80036,17.28923-8.89593-6.18411,3.6291.40818,5.06015,1.60385,1.345,1.84508.22857,3.71157,2.04718,5.9699,2.721,1.02815,1.1038,2.15766,4.52795,3.92485,2.87678,1.365,3.58169-.13821,8.92778,2.41,11.23257-2.38656,1.6527,3.22251,3.39635,2.333,5.9076-.54505-3.3081-7.27547-5.97625-1.23163-.31467-.959-.95123-.81784,3.284-.80221,3.22729-2.70069,5.2897-4.38207,12.59129,1.66167,15.87685,2.97452,3.81406,1.90623,9.18727,6.78584,10.98935-.94365-2.78527-4.3024-5.91675-3.75287-8.70988,3.21138,3.22719,6.06842,9.04545,9.10185,13.25225,4.73724,3.65875,11.324,2.23386,16.32553,5.68682,4.0345,6.54541,6.52022,2.49863,8.76224,4.1619,4.283,3.878-5.72743,7.72714-1.97789,9.46052.135.901-3.0182,2.3549.4518,3.84636,1.81916,6.89321,11.4983,7.86866,10.27776,15.089.44271,7.6913-2.02548,14.41467.79211,20.906.84026,2.15893.20841.33975-.18959,2.81115-1.45453-1.34516-.98466.16886-1.82869.81855,1.59889.60911,1.42274-.92332,1.75039,1.41277.93449.96833-1.6899,1.75576-.02331,2.374.05282.28942.6701-.19184.36373.38248-.05163.65027.97551.07179.85527.96565,1.0879.87357-.78914,1.58093,1.79852,1.19993-2.74028.33831.44855,1.92149,1.61512,2.30855,1.35611.21883-.74332-1.89919,2.39685-2.3394-2.68689-2.00275,1.18169-3.73489,1.09657-5.85343-2.06184-1.714-2.81231-1.24912-.3396-3.10288.44062-.60036-.57676-1.23855.31865-1.71912.41386-.21938.14865-.37364.09068-.64943.161-.19721.71672.56605.91465.00138.56414-1.636-1.40218-.11474-1.51786-.98877-.87223-2.39116,2.69333.69082,2.44895-1.68129-1.14534-3.63239,7.97384.23066,3.65277-6.08954,5.25429,2.34384,4.79062-5.45933,6.24381-4.23661-2.12641,3.028,1.47391-.88492,2.03491-2.26987-.48256-2.264.83706-3.82088,3.05-4.4563,5.13152-.68222,6.33759-5.27443,5.70933-10.134C124.65671,124.08534,129.28541,117.40325,124.86191,117.0987ZM99.67534,68.53236c.298-.36464.52814-.00127.87848.06651a1.2827,1.2827,0,0,0-1.34134.21255A3.75067,3.75067,0,0,1,99.67534,68.53236Zm8.1772-10.1775c-.31254.152-.58956.36174-.86664.47893A2.61846,2.61846,0,0,1,107.85254,58.35486ZM95.32042,66.15719c.4042-.25844.66123-.692,1.06188-.9618C96.12208,65.42258,95.13868,66.37923,95.32042,66.15719ZM69.99969,24.004a8.88081,8.88081,0,0,1,.89673-.01816A4.71239,4.71239,0,0,1,69.99969,24.004ZM17.08355,35.20416c.04616.0293.09078.06134.136.09287A1.313,1.313,0,0,1,17.08355,35.20416Zm.41.11183a.27264.27264,0,0,1-.24041-.00189C17.40512,35.35463,17.814,35.08033,17.49359,35.316ZM57.27978,24.94881c-.93723.35243-2.05319.202-2.86669.90246a.64748.64748,0,0,0,.036-.07123c.8657-.62853,1.93637-.51484,2.88952-.8659C57.319,24.92563,57.29933,24.93663,57.27978,24.94881Zm32.22727,78.66064c.02368-.13625.10013-.27588.13655-.418A.61579.61579,0,0,1,89.50705,103.60945Zm15.6821,41.06884c-.17959-.03424.0798-.0139.1566.07034A.60341.60341,0,0,1,105.18915,144.67829Zm6.89809-30.4721c-.08927.1609-.14044.34129-.22345.5045.00468-1.29849-.96731.09548.79271-.92016A2.41433,2.41433,0,0,1,112.08724,114.20619Z"/></g><circle class="cls-1" cx="70.56779" cy="70.26944" r="63.51175"/></svg>