<?xml version="1.0" encoding="utf-8"?>
<!-- Generator: Adobe Illustrator 23.0.6, SVG Export Plug-In . SVG Version: 6.00 Build 0)  -->
<svg version="1.1" xmlns="http://www.w3.org/2000/svg" xmlns:xlink="http://www.w3.org/1999/xlink" x="0px" y="0px"
	 viewBox="0 0 841.89 467.72" style="enable-background:new 0 0 841.89 467.72;" xml:space="preserve">
<style type="text/css">
	.st0{fill:none;}
	.st1{clip-path:url(#SVGID_2_);fill:#B2B3AB;}
	.st2{clip-path:url(#SVGID_2_);fill:#99A19E;}
	.st3{clip-path:url(#SVGID_2_);fill:#CCC9C1;}
	.st4{fill:#F4F4F5;}
	.st5{fill:#FFFFFF;}
	.st6{fill:#CF7651;}
	.st7{fill:#54575C;}
	.st8{fill:#235485;}
	.st9{fill:#DCEFFA;}
	.st10{fill:#EFA580;}
	.st11{fill:url(#SVGID_3_);}
	.st12{fill:#7C7E82;stroke:#7C7E82;stroke-miterlimit:10;}
	.st13{fill:url(#SVGID_4_);}
	.st14{fill:url(#SVGID_5_);}
	.st15{fill:url(#SVGID_6_);}
	.st16{fill:#E8A576;}
	.st17{fill:#4890BA;}
	.st18{fill:#F5C65D;}
	.st19{fill:#BD7E66;}
	.st20{fill:#E0635D;}
	.st21{fill:#EFC266;}
	.st22{fill:#61A575;}
	.st23{fill:#54575C;stroke:#54575C;stroke-miterlimit:10;}
	.st24{fill:#EF9266;}
	.st25{fill:none;stroke:#54575C;stroke-miterlimit:10;}
	.st26{fill:url(#SVGID_7_);stroke:#54575C;stroke-width:0.4276;stroke-miterlimit:10;}
	.st27{fill:none;stroke:#54575C;stroke-linejoin:round;stroke-miterlimit:10;}
	.st28{fill:none;stroke:#54575C;stroke-width:0.9734;stroke-miterlimit:10;}
</style>
<pattern  x="-861.89" width="200" height="200" patternUnits="userSpaceOnUse" id="New_Pattern_Swatch_3" viewBox="16.84 -271.06 200 200" style="overflow:visible;">
	<g>
		<rect x="16.84" y="-271.06" class="st0" width="200" height="200"/>
		<g>
			<defs>
				<rect id="SVGID_1_" x="16.84" y="-271.06" width="200" height="200"/>
			</defs>
			<clipPath id="SVGID_2_">
				<use xlink:href="#SVGID_1_"  style="overflow:visible;"/>
			</clipPath>
			<rect x="16.84" y="-271.06" class="st1" width="200" height="200"/>
			<path class="st2" d="M144.87-186.71c-3.44,6.36-5.06,13.51-7.14,20.44c-2.08,6.93-4.78,13.93-9.85,19.09
				c-4.97,5.06-11.75,7.89-18.48,10.1c-6.74,2.21-13.7,3.98-19.88,7.45s-11.65,9.01-13.03,15.97c-0.61,3.05-0.36,6.37,1.25,9.03
				c1.6,2.67,4.71,4.52,7.8,4.11c4.67-0.61,7.25-5.51,10.24-9.15c2.67-3.25,6.36-5.88,10.54-6.34c4.18-0.46,8.77,1.7,10.31,5.61
				c1.01,2.58,0.7,5.71,2.42,7.89c2.61,3.33,7.81,2.27,11.81,0.9c3.11-1.07,6.59-2.48,7.72-5.57c1.21-3.32-0.89-6.85-1.36-10.35
				c-0.87-6.47,4.43-12.7,10.76-14.27c6.33-1.57,13.14,0.76,18.32,4.72c3.66,2.8,6.75,6.41,10.87,8.46
				c4.12,2.05,9.92,1.94,12.5-1.87c2.32-3.41,0.99-8.23-1.67-11.39c-2.65-3.15-6.37-5.19-9.6-7.75c-3.23-2.56-6.19-6.08-6.23-10.2
				c-0.04-4.36,3.11-7.99,5.74-11.46c4.17-5.5,7.45-11.69,9.65-18.24c1.32-3.91,2.24-8.22,0.89-12.12
				c-1.73-4.96-6.87-8.09-12.05-8.94C163.61-202.66,151.14-198.31,144.87-186.71z"/>
			<path class="st2" d="M265.24-218.95c-2.58,2.31-4.01,5.6-5.52,8.72c-4.2,8.67-10.01,17.19-18.75,21.25
				c-8.92,4.15-19.49,3.03-28.66,6.58c-4.53,1.75-8.85,4.93-10.41,9.54c-1.56,4.6,0.68,10.6,5.38,11.83
				c3.12,0.82,6.38-0.52,9.15-2.17c2.77-1.64,5.42-3.66,8.56-4.39c3.14-0.73,7.01,0.32,8.25,3.29c0.9,2.17,0.17,4.62-0.37,6.91
				c-1.71,7.27-1.3,15.02,1.16,22.07c1.65,4.73,5,9.67,9.99,10.07c4.01,0.32,7.83-2.7,9.12-6.52c1.29-3.81,0.36-8.13-1.74-11.56
				c-1.82-2.97-4.58-5.72-4.56-9.21c0.03-4.25,4.38-7.33,8.59-7.93c4.21-0.6,8.46,0.49,12.71,0.62c4.25,0.13,9.04-1.07,11.16-4.75
				c2.41-4.18,0.55-10.13,3.71-13.78c2.06-2.38,5.52-2.87,8.66-3.03c4.98-0.26,9.97-0.12,14.92,0.43c3.99,0.44,8.08,1.14,11.98,0.17
				c3.9-0.97,7.6-4.18,7.61-8.2c0.01-3.95-3.58-7.18-7.42-8.11c-3.84-0.94-7.87-0.13-11.74,0.68c-5.92,1.24-11.84,2.48-17.76,3.71
				c-2.29,0.48-4.68,0.95-6.93,0.3c-2.24-0.65-4.24-2.82-3.83-5.12c0.52-2.97,4.18-4.01,7.16-4.43c5.74-0.81,11.47-1.63,17.21-2.44
				c4.69-0.67,11.27-3.25,8.18-9.11c-2.08-3.95-7.18-5.92-11.32-6.31C289.75-220.79,273.65-226.48,265.24-218.95z"/>
			<path class="st3" d="M247.92-145.36c-9.58,2.35-20.03,3.84-27.24,10.56c-2.02,1.89-3.77,4.98-2.22,7.27
				c1.35,2,4.47,2.11,5.88,4.08c1.98,2.76-0.81,6.37-3.38,8.59c-4.6,3.97-9.2,7.93-13.8,11.9c-3.45,2.98-7.19,6.56-7.16,11.12
				c0.03,4.06,3.42,7.64,7.38,8.55c3.96,0.91,8.21-0.55,11.31-3.18c2.58-2.18,4.44-5.08,6.7-7.59c2.26-2.51,5.2-4.74,8.58-4.87
				c6.53-0.25,10.49,6.82,15.6,10.89c4.19,3.34,10.15,4.77,15.08,2.68c4.94-2.09,8.14-8.16,6.19-13.15
				c-2.64-6.78-12.32-8.52-15.2-15.2c-2.57-6,1.88-13,7.6-16.12c5.73-3.12,12.46-3.66,18.75-5.38c6.29-1.72,12.83-5.36,14.7-11.61
				c1.03-3.45,0.52-7.39,2.4-10.47c2.13-3.49,6.67-4.7,10.76-4.61c7.13,0.15,13.81,3.21,20.52,5.62c6.71,2.41,14.17,4.19,20.88,1.77
				c6.71-2.42,11.69-10.59,8.39-16.91c-2.48-4.74-8.47-6.61-13.81-6.27c-5.34,0.34-10.41,2.39-15.65,3.46
				c-5.24,1.07-11.18,1-15.35-2.35c-2.36-1.9-3.9-4.64-6.11-6.71c-7.31-6.83-22.78-4.49-30.39,1.32
				c-8.72,6.66-4.06,20.54-12.52,28.23C260.91-149.29,254.27-146.92,247.92-145.36z"/>
			<path class="st2" d="M65.24-218.95c-2.58,2.31-4.01,5.6-5.52,8.72c-4.2,8.67-10.01,17.19-18.75,21.25
				c-8.92,4.15-19.49,3.03-28.66,6.58c-4.53,1.75-8.85,4.93-10.41,9.54c-1.56,4.6,0.68,10.6,5.38,11.83
				c3.12,0.82,6.38-0.52,9.15-2.17c2.77-1.64,5.42-3.66,8.56-4.39c3.14-0.73,7.01,0.32,8.25,3.29c0.9,2.17,0.17,4.62-0.37,6.91
				c-1.71,7.27-1.3,15.02,1.16,22.07c1.65,4.73,5,9.67,9.99,10.07c4.01,0.32,7.83-2.7,9.12-6.52c1.29-3.81,0.36-8.13-1.74-11.56
				c-1.82-2.97-4.58-5.72-4.56-9.21c0.03-4.25,4.38-7.33,8.59-7.93c4.21-0.6,8.46,0.49,12.71,0.62c4.25,0.13,9.04-1.07,11.16-4.75
				c2.41-4.18,0.55-10.13,3.71-13.78c2.06-2.38,5.52-2.87,8.66-3.03c4.97-0.26,9.97-0.12,14.92,0.43c3.99,0.44,8.08,1.14,11.98,0.17
				c3.9-0.97,7.6-4.18,7.61-8.2c0.01-3.95-3.58-7.18-7.42-8.11s-7.87-0.13-11.74,0.68c-5.92,1.24-11.84,2.48-17.76,3.71
				c-2.29,0.48-4.68,0.95-6.93,0.3c-2.24-0.65-4.24-2.82-3.83-5.12c0.52-2.97,4.18-4.01,7.16-4.43c5.74-0.81,11.47-1.63,17.21-2.44
				c4.69-0.67,11.27-3.25,8.18-9.11c-2.08-3.95-7.18-5.92-11.32-6.31C89.75-220.79,73.65-226.48,65.24-218.95z"/>
			<path class="st3" d="M47.92-145.36c-9.58,2.35-20.03,3.84-27.24,10.56c-2.02,1.89-3.77,4.98-2.22,7.27
				c1.35,2,4.47,2.11,5.88,4.08c1.98,2.76-0.81,6.37-3.38,8.59c-4.6,3.97-9.2,7.93-13.8,11.9C3.71-99.99-0.03-96.41,0-91.85
				c0.03,4.06,3.42,7.64,7.38,8.55c3.96,0.91,8.21-0.55,11.31-3.18c2.58-2.18,4.44-5.08,6.7-7.59c2.26-2.51,5.2-4.74,8.58-4.87
				c6.53-0.25,10.49,6.82,15.6,10.89c4.19,3.34,10.15,4.77,15.08,2.68c4.94-2.09,8.14-8.16,6.19-13.15
				c-2.64-6.78-12.32-8.52-15.2-15.2c-2.57-6,1.88-13,7.6-16.12c5.73-3.12,12.46-3.66,18.75-5.38c6.29-1.72,12.83-5.36,14.7-11.61
				c1.03-3.45,0.52-7.39,2.4-10.47c2.13-3.49,6.67-4.7,10.76-4.61c7.13,0.15,13.81,3.21,20.52,5.62c6.71,2.41,14.17,4.19,20.88,1.77
				c6.71-2.42,11.69-10.59,8.39-16.91c-2.48-4.74-8.47-6.61-13.81-6.27c-5.34,0.34-10.41,2.39-15.65,3.46
				c-5.24,1.07-11.18,1-15.35-2.35c-2.36-1.9-3.9-4.64-6.11-6.71c-7.31-6.83-22.78-4.49-30.39,1.32
				c-8.72,6.66-4.06,20.54-12.52,28.23C60.91-149.29,54.27-146.92,47.92-145.36z"/>
			<path class="st3" d="M207.45-78.32c-3.75,5.87-1.7,15.23,4.89,17.48c3.79,1.3,7.94,0.14,11.81-0.92
				c3.87-1.06,8.14-1.98,11.77-0.28c3.63,1.7,5.53,7.23,2.44,9.8c-1.95,1.62-4.77,1.34-7.3,1.5c-2.53,0.16-5.55,1.44-5.67,3.97
				c-0.08,1.64,1.24,3.11,2.78,3.68c1.54,0.58,3.25,0.44,4.88,0.17c5.32-0.88,10.34-3.08,15.61-4.28c5.26-1.2,11.16-1.29,15.65,1.71
				c4.49,3,6.54,9.91,3.02,14c-2.68,3.13-7.43,3.56-11.45,2.66c-4.02-0.9-7.74-2.88-11.75-3.78c-4.02-0.91-8.76-0.48-11.45,2.64
				c-1.72,2-2.31,4.76-3.95,6.83c-2.5,3.15-6.81,4.03-10.72,4.98c-3.91,0.95-8.21,2.55-9.77,6.26c-1.88,4.44,1.6,9.78,6.19,11.28
				c4.58,1.5,9.64,0.04,13.89-2.24c4.25-2.28,8.04-5.36,12.38-7.48c9.39-4.58,20.44-4.19,30.73-2.4c10.3,1.79,20.42,4.87,30.85,5.35
				c10.44,0.49,21.67-2.07,28.72-9.78c1.57-1.71,2.93-3.72,3.38-6c0.45-2.28-0.15-4.87-1.95-6.34c-1.91-1.57-4.62-1.57-7.1-1.59
				c-7.16-0.05-14.31-0.88-21.28-2.45c-3.76-0.85-7.58-1.97-10.63-4.34s-5.2-6.23-4.55-10.04c0.34-2.01,1.43-4.02,0.83-5.97
				c-0.54-1.75-2.25-2.81-3.83-3.72c-13.1-7.51-26.07-16.26-40.04-22.09C234.46-84.41,216.04-91.75,207.45-78.32z"/>
			<path class="st3" d="M7.45-78.32c-3.75,5.87-1.7,15.23,4.89,17.48c3.79,1.3,7.94,0.14,11.81-0.92c3.87-1.06,8.14-1.98,11.77-0.28
				c3.63,1.7,5.53,7.23,2.44,9.8c-1.95,1.62-4.77,1.34-7.3,1.5c-2.53,0.16-5.55,1.44-5.67,3.97c-0.08,1.64,1.24,3.11,2.78,3.68
				c1.54,0.58,3.25,0.44,4.88,0.17c5.32-0.88,10.34-3.08,15.61-4.28c5.26-1.2,11.16-1.29,15.65,1.71c4.49,3,6.54,9.91,3.02,14
				c-2.68,3.13-7.43,3.56-11.45,2.66c-4.02-0.9-7.74-2.88-11.75-3.78c-4.02-0.91-8.76-0.48-11.45,2.64c-1.72,2-2.31,4.76-3.95,6.83
				c-2.5,3.15-6.81,4.03-10.72,4.98c-3.91,0.95-8.21,2.55-9.77,6.26c-1.88,4.44,1.6,9.78,6.19,11.28c4.58,1.5,9.64,0.04,13.89-2.24
				c4.25-2.28,8.04-5.36,12.38-7.48c9.39-4.58,20.44-4.19,30.73-2.4c10.3,1.79,20.42,4.87,30.85,5.35
				c10.44,0.49,21.67-2.07,28.72-9.78c1.57-1.71,2.93-3.72,3.38-6c0.45-2.28-0.15-4.87-1.95-6.34c-1.91-1.57-4.62-1.57-7.1-1.59
				c-7.16-0.05-14.31-0.88-21.28-2.45c-3.76-0.85-7.58-1.97-10.63-4.34s-5.2-6.23-4.54-10.04c0.34-2.01,1.43-4.02,0.83-5.97
				c-0.54-1.75-2.25-2.81-3.83-3.72C72.75-65.1,59.77-73.85,45.8-79.68C34.46-84.41,16.04-91.75,7.45-78.32z"/>
			<path class="st2" d="M154.06-87.92c-2.8-2.05-6.89-1.19-9.68,0.87c-2.79,2.06-4.7,5.06-6.96,7.7
				c-7.32,8.56-18.89,13.3-30.12,12.34c-4.55-0.39-9.02-1.66-13.58-1.76c-4.57-0.1-9.53,1.23-12.23,4.91
				c-2.83,3.85-2.32,9.6,0.7,13.31c3.02,3.7,8.14,5.37,12.88,4.78c3.83-0.47,7.37-2.23,11.07-3.31c3.71-1.08,7.99-1.38,11.16,0.82
				c3.43,2.39,4.51,6.98,4.7,11.16c0.19,4.18-0.21,8.52,1.32,12.42c1.9,4.83,6.88,8.28,12.07,8.36c5.19,0.08,10.27-3.22,12.32-7.99
				c2.34-5.45,1-12.39,4.82-16.93c3.1-3.68,8.48-4.35,13.29-4.11c4.8,0.24,9.78,1.09,14.31-0.5c4.54-1.6,8.26-6.88,6.11-11.19
				c-1.16-2.32-3.71-3.7-6.27-4.11c-2.56-0.41-5.18-0.02-7.75,0.37c-6.5,0.98-13.02,1.9-19.54,2.74c-2.39,0.31-5.06,0.55-7.01-0.88
				c-2.54-1.86-2.59-5.93-0.74-8.47c1.85-2.55,5.02-3.8,8.12-4.35c4.26-0.75,8.75-0.44,12.79-2c4.04-1.55,7.52-6.03,5.9-10.04
				c-1.64-4.05-6.94-4.81-11.31-4.95C158.33-88.58,156.18-88.1,154.06-87.92z"/>
			<path class="st3" d="M207.45-278.32c-3.75,5.87-1.7,15.23,4.89,17.48c3.79,1.3,7.94,0.14,11.81-0.92
				c3.87-1.06,8.14-1.98,11.77-0.28c3.63,1.7,5.53,7.23,2.44,9.8c-1.95,1.62-4.77,1.34-7.3,1.5c-2.53,0.16-5.55,1.44-5.67,3.97
				c-0.08,1.64,1.24,3.11,2.78,3.68s3.25,0.44,4.88,0.17c5.32-0.88,10.34-3.08,15.61-4.28c5.26-1.2,11.16-1.29,15.65,1.71
				c4.49,3,6.54,9.91,3.02,14c-2.68,3.13-7.43,3.56-11.45,2.66c-4.02-0.9-7.74-2.88-11.75-3.78c-4.02-0.91-8.76-0.48-11.45,2.64
				c-1.72,2-2.31,4.76-3.95,6.83c-2.5,3.15-6.81,4.03-10.72,4.98c-3.91,0.95-8.21,2.55-9.77,6.26c-1.88,4.44,1.6,9.78,6.19,11.28
				c4.58,1.5,9.64,0.04,13.89-2.24c4.25-2.28,8.04-5.36,12.38-7.48c9.39-4.58,20.44-4.19,30.73-2.4c10.3,1.79,20.42,4.87,30.85,5.35
				s21.67-2.07,28.72-9.78c1.57-1.71,2.93-3.72,3.38-6c0.45-2.28-0.15-4.87-1.95-6.34c-1.91-1.57-4.62-1.57-7.1-1.59
				c-7.16-0.05-14.31-0.88-21.28-2.45c-3.76-0.85-7.58-1.97-10.63-4.34c-3.05-2.37-5.2-6.23-4.55-10.04
				c0.34-2.01,1.43-4.02,0.83-5.97c-0.54-1.75-2.25-2.81-3.83-3.72c-13.1-7.51-26.07-16.26-40.04-22.09
				C234.46-284.41,216.04-291.75,207.45-278.32z"/>
			<path class="st3" d="M7.45-278.32c-3.75,5.87-1.7,15.23,4.89,17.48c3.79,1.3,7.94,0.14,11.81-0.92
				c3.87-1.06,8.14-1.98,11.77-0.28c3.63,1.7,5.53,7.23,2.44,9.8c-1.95,1.62-4.77,1.34-7.3,1.5c-2.53,0.16-5.55,1.44-5.67,3.97
				c-0.08,1.64,1.24,3.11,2.78,3.68c1.54,0.58,3.25,0.44,4.88,0.17c5.32-0.88,10.34-3.08,15.61-4.28s11.16-1.29,15.65,1.71
				c4.49,3,6.54,9.91,3.02,14c-2.68,3.13-7.43,3.56-11.45,2.66c-4.02-0.9-7.74-2.88-11.75-3.78c-4.02-0.91-8.76-0.48-11.45,2.64
				c-1.72,2-2.31,4.76-3.95,6.83c-2.5,3.15-6.81,4.03-10.72,4.98c-3.91,0.95-8.21,2.55-9.77,6.26c-1.88,4.44,1.6,9.78,6.19,11.28
				c4.58,1.5,9.64,0.04,13.89-2.24c4.25-2.28,8.04-5.36,12.38-7.48c9.39-4.58,20.44-4.19,30.73-2.4c10.3,1.79,20.42,4.87,30.85,5.35
				s21.67-2.07,28.72-9.78c1.57-1.71,2.93-3.72,3.38-6c0.45-2.28-0.15-4.87-1.95-6.34c-1.91-1.57-4.62-1.57-7.1-1.59
				c-7.16-0.05-14.31-0.88-21.28-2.45c-3.76-0.85-7.58-1.97-10.63-4.34c-3.05-2.37-5.2-6.23-4.54-10.04
				c0.34-2.01,1.43-4.02,0.83-5.97c-0.54-1.75-2.25-2.81-3.83-3.72c-13.1-7.51-26.07-16.26-40.04-22.09
				C34.46-284.41,16.04-291.75,7.45-278.32z"/>
			<path class="st2" d="M154.06-287.92c-2.8-2.05-6.89-1.19-9.68,0.87c-2.79,2.06-4.7,5.06-6.96,7.7
				c-7.32,8.56-18.89,13.3-30.12,12.34c-4.55-0.39-9.02-1.66-13.58-1.76s-9.53,1.23-12.23,4.91c-2.83,3.85-2.32,9.6,0.7,13.31
				c3.02,3.7,8.14,5.37,12.88,4.78c3.83-0.47,7.37-2.23,11.07-3.31c3.71-1.08,7.99-1.38,11.16,0.82c3.43,2.39,4.51,6.98,4.7,11.16
				c0.19,4.18-0.21,8.52,1.32,12.42c1.9,4.83,6.88,8.28,12.07,8.36c5.19,0.08,10.27-3.22,12.32-7.99c2.34-5.46,1-12.39,4.82-16.93
				c3.1-3.68,8.48-4.35,13.29-4.11c4.8,0.24,9.78,1.09,14.31-0.5c4.54-1.6,8.26-6.88,6.11-11.19c-1.16-2.32-3.71-3.7-6.27-4.11
				c-2.56-0.42-5.18-0.02-7.75,0.37c-6.5,0.98-13.02,1.9-19.54,2.74c-2.39,0.31-5.06,0.55-7.01-0.88c-2.54-1.86-2.59-5.93-0.74-8.47
				c1.85-2.55,5.02-3.8,8.12-4.35c4.26-0.75,8.75-0.44,12.79-2c4.04-1.55,7.52-6.03,5.9-10.04c-1.64-4.05-6.94-4.81-11.31-4.95
				C158.33-288.58,156.18-288.1,154.06-287.92z"/>
			<path class="st3" d="M169.45-253.08c-3.54,2.25-5.71,7.21-3.5,10.77c0.97,1.56,2.58,2.59,3.76,3.99
				c3.61,4.28,2.32,11.08-1.15,15.48c-3.48,4.4-8.6,7.09-13.29,10.15c-4.69,3.06-9.34,6.96-10.83,12.37
				c-1.49,5.4,1.75,12.33,7.34,12.73c4.43,0.32,8.04-3.25,11.41-6.16s8.3-5.43,12.03-3.01c2.63,1.71,3.41,5.18,5.37,7.63
				c2.51,3.15,7.28,4.36,10.87,2.54c3.6-1.82,5.44-6.61,3.76-10.27c-2.06-4.47-8.01-6.1-10.07-10.57c-1.78-3.88,0.12-8.6,3.17-11.57
				c3.06-2.97,7.08-4.69,10.8-6.79c3.71-2.1,7.38-4.88,8.81-8.9c2.22-6.27-2.04-13.34-7.86-16.56
				C192.56-255.4,177.12-257.97,169.45-253.08z"/>
			<path class="st2" d="M177.91-107.04c-4.48-1.75-8.06-5.23-12.39-7.33c-4.33-2.1-10.33-2.34-13.19,1.52
				c-2.34,3.16-1.45,7.89,1.14,10.85c2.59,2.96,6.45,4.47,10.27,5.42c3.82,0.95,7.76,1.47,11.41,2.96
				c4.71,1.92,8.81,5.43,13.82,6.33c6.32,1.14,13.19-2.69,15.54-8.67c1.82-4.63,0.19-17.56-6.76-15.65
				c-3.03,0.83-5.52,4.26-8.99,5.14C185.19-105.57,181.35-105.7,177.91-107.04z"/>
			<path class="st3" d="M130.2-112.39c-2.13-2.5-5.68-4.43-8.64-3.01c-4.1,1.96-3.47,7.98-5.69,11.95
				c-3.07,5.51-10.81,5.9-17.03,4.89c-6.23-1.01-13.22-2.56-18.37,1.07c-5.54,3.91-5.38,13.73,0.52,17.08
				c4.63,2.63,10.47,1.03,15.31-1.17c4.85-2.2,9.77-5.01,15.08-4.64c8.18,0.56,15.54,8.57,23.33,6.03c4.9-1.6,7.61-6.81,11.91-9.65
				c4.89-3.23,12.33-3.13,16.03-8.15c3.02-4.11,2.52-7.48-2.26-8.22c-4.6-0.72-10.15,3.07-14.72,3.61
				C137.1-101.59,135.08-106.66,130.2-112.39z"/>
			<path class="st3" d="M200.15-168.88c-2.09,2.51-2.64,5.92-2.96,9.16c-0.32,3.25-0.51,6.62-2.06,9.49
				c-1.78,3.28-5.17,5.47-8.77,6.47c-3.59,1.01-7.4,0.96-11.12,0.67c-3.65-0.29-8.24-0.33-9.88,2.95c-1.23,2.47,0.11,5.51,2.05,7.49
				c4.15,4.24,11.1,5.41,16.4,2.75c3.06-1.53,6.4-4.25,9.44-2.67c3.69,1.91,2.46,7.98,5.48,10.85c2.64,2.51,7.48,0.96,9.11-2.29
				c1.63-3.25,0.7-7.28-1.24-10.36c-1.09-1.73-2.51-3.37-2.81-5.39c-0.51-3.44,2.32-6.33,4.22-9.24c3.26-4.99,3.73-11.07,2.12-16.71
				C208.71-170.73,204.62-174.25,200.15-168.88z"/>
			<path class="st2" d="M195.48-238.97c-4.08,1.95-6,7.46-3.99,11.52c1.77,3.59,5.97,5.83,6.79,9.74c0.77,3.68-1.77,7.17-2.58,10.84
				c-0.69,3.14,0.03,6.67,2.29,8.96c2.25,2.29,6.1,3.02,8.82,1.31c2.18-1.37,3.31-3.96,3.76-6.5c0.46-2.54,0.37-5.14,0.77-7.69
				c0.46-2.94,1.56-5.74,2.32-8.63c0.75-2.88,1.14-5.99,0.19-8.81C211.86-234.01,201.61-241.89,195.48-238.97z"/>
		</g>
	</g>
</pattern>
<g id="Layer_1">
</g>
<g id="Layer_2">
</g>
<g id="Layer_3">
	<rect x="-16.78" y="-5.56" class="st4" width="867.4" height="480.42"/>
	<g>
		<g>
			<path class="st5" d="M336.3,223.97c-0.01,0-0.01,0-0.02-0.01c0,0.01-0.01,0.02-0.01,0.02L336.3,223.97z"/>
			<path class="st5" d="M667.4,213.37c-6.05-28.64-34.05-2.55-34.05-2.55s16.55-21.95,17.18-31.18
				c0.64-9.23-27.05-42.95-40.73-51.86c-13.68-8.91-29.27-8.91-40.09-7.95c-7.55,0.67-12.15,11.1-14.79,18.64
				c0.49-0.15,0.79-0.18,0.79-0.18c0,17.82,37.23,31.18,37.23,31.18c-7.95,8.91-1.59,13.36,3.18,21.95
				c4.77,8.59,6.36,16.55,6.36,16.55s16.86-5.41,19.09,9.23c2.23,14.64-16.86,14.32-16.86,14.32s-0.64,4.38-1.36,7.57
				c0.14,0.02,0.28,0.04,0.41,0.07c9.23,2.23,16.02,14.19,16.02,14.19c4.55,3.94,8.43,7.99,11.73,12.12
				C647.61,258.68,672.27,236.44,667.4,213.37z"/>
			<path class="st5" d="M631.52,265.46c-3.3-4.13-7.19-8.18-11.73-12.12c0,0-3.91,2.63-9.57,6.46
				c-14.54,9.83-40.63,27.52-41.77,28.67c-6.04,6.04-12.39-5.86-14.99-11.68c-1.02,0.74-1.91,1.37-2.63,1.89
				c0.59-0.11,1.17-0.23,1.71-0.39l-33.73,34.36l8.59-36.27c0,0,2.76,0.76,6.63,1.47l14.05-30.11l-20.05-9.23
				c-0.78-0.66-1.42-1.51-1.96-2.48l-66.77,45.34c0.01,0.06,0.02,0.11,0.02,0.16c2.95,23.57-0.88,54.69-5.01,78.31l15.99-4.7
				c0,0,1.57,11.7,2.14,19.77c10.5-1.28,18.24-10.75,18.24-10.75l8.02-5.68c0,0,44.09,41.75,28.73,71.15c0,0-30.4,28.39-64.13,21.04
				c-4.07-0.89-8.56-3.2-13.34-6.57c-1.36,3.62-2.7,7.17-3.98,10.56c3.93,13.5,6.65,22.81,6.65,22.81l-15.27,0.25
				c-1.68,4.61-2.63,7.36-2.46,7.36c1,0,189.37-14.83,189.37-14.83s10.65-71.74,16.81-103.13
				C646.59,339.12,658.77,299.54,631.52,265.46z"/>
			<path class="st5" d="M621.58,217.19c-2.23-14.64-19.09-9.23-19.09-9.23s-1.59-7.95-6.36-16.55c-4.77-8.59-11.14-13.05-3.18-21.95
				c0,0-37.23-13.36-37.23-31.18c0,0-0.29,0.03-0.79,0.18c-2.34,0.71-9.26,4.1-11.62,19.86c-2.86,19.09-5.41,23.23-11.77,28.32
				c-6.36,5.09-12.73,8.27-12.73,10.5c0,2.23,7.95,5.41,7.95,5.41s-6.05,23.67-0.69,33.47c0.53,0.98,1.18,1.82,1.96,2.48l20.05,9.23
				l-14.05,30.11c4.94,0.91,11.68,1.74,16.79,0.83c0.72-0.52,1.6-1.15,2.63-1.89c-0.78-1.75-1.23-2.95-1.23-2.95
				s26.57-23.18,42.2-31.69c1.83-1,3.51-1.79,4.98-2.33c1.6-0.58,2.94-0.85,3.97-0.74c0.71-3.19,1.36-7.57,1.36-7.57
				S623.81,231.82,621.58,217.19z"/>
			<path class="st5" d="M603.77,239.14c-0.13-0.03-0.26-0.05-0.41-0.07c-1.02-0.12-2.37,0.16-3.97,0.74
				c-1.47,0.53-3.15,1.33-4.98,2.33c-15.62,8.51-42.2,31.69-42.2,31.69s0.45,1.21,1.23,2.95c2.61,5.82,8.95,17.73,14.99,11.68
				c1.15-1.15,27.24-18.84,41.77-28.67c5.66-3.83,9.57-6.46,9.57-6.46S612.99,241.37,603.77,239.14z"/>
			<path class="st5" d="M550.83,278.67c-5.11,0.91-11.86,0.08-16.79-0.83c-3.87-0.71-6.63-1.47-6.63-1.47l-8.59,36.27l33.73-34.36
				C551.99,278.43,551.42,278.56,550.83,278.67z"/>
			<path class="st5" d="M308.49,73.69c-28.01-3.7-47.44,14.75-53.24,21.12c-1.18,1.3-1.81,2.11-1.81,2.11s11.14-4.77,28.32,0
				c17.18,4.77,14.32,15.59,9.55,23.55s-6.68,27.36-6.68,27.36c0.37-1.11,9.71-18.23,22.75-34.97
				c9.48-12.16,20.91-24.13,32.29-29.62c1.33-0.64,2.67-1.19,4.02-1.69C331.65,77.72,319.29,75.11,308.49,73.69z"/>
			<path class="st5" d="M314.77,143.92c-12.02-0.09-22.2,1.53-28.22,5.9c1.57,1.36,4.22,3.18,8.32,4.73
				c4.09,1.55,9.62,2.82,16.97,3.06c3.88,0.13,8.26-0.02,13.2-0.56c14.84-1.63,23.24-0.15,29.11,2.35c2.5,1.06,4.54,2.31,6.42,3.58
				c3.01,2.03,5.63,4.12,9.07,5.6c0.19,0.08,0.38,0.17,0.58,0.25c11.14,4.45,18.77,0.32,18.77,0.32s3.63-4.01,6.64-11.41
				C375.82,152.35,340.93,144.11,314.77,143.92z"/>
			<path class="st5" d="M398.22,87.37c0,0-28.48-15.51-54.53-5.83c-1.35,0.5-2.69,1.05-4.02,1.69
				c-11.38,5.49-22.81,17.46-32.29,29.62c-13.05,16.75-22.38,33.87-22.75,34.97l0.03,0.05c0.14,0.19,0.71,0.94,1.88,1.95
				c6.02-4.37,16.2-5.99,28.22-5.9c26.17,0.19,61.06,8.43,80.86,13.81c5.92,1.61,10.5,2.97,13.09,3.78
				c15.27,4.77,16.55,1.59,16.55,1.59C437.36,124.92,398.22,87.37,398.22,87.37z"/>
			<path class="st5" d="M225.45,156.1c0,0-1.69-0.81-3.29-2.25c-1.58-1.43-3.08-3.49-2.76-6.02c0.64-5.09-5.73-6.36-6.68-5.09
				c-0.95,1.27-3.5,7.32-3.5,7.32s-4.14,6.05-2.23,10.82c0,0-6.68,2.23-1.27,9.55c3.5,4.74,5.93,13.2,7.21,18.58
				c2.41-6.64,7.17-17.08,13.79-19.22c0.88-0.29,1.94-0.43,3.12-0.46c4.12-0.11,9.82,1.19,15.53,2.94
				C243.33,168.87,239.42,159.17,225.45,156.1z"/>
			<path class="st5" d="M354.15,159.4c-5.87-2.5-14.27-3.98-29.11-2.35c-4.94,0.54-9.32,0.69-13.2,0.56c-0.35,1-0.72,1.89-1.12,2.62
				c-3.82,7-12.09,24.18-12.09,24.18s3.02,15.64-2.44,26.04c-2.46,4.68-6.65,8.3-13.61,8.94c6.23,3.98,14.45,8.83,22.29,12.31
				c-1.57-3.38-2.48-6.83-1.24-8.84c2.67-4.34,12.36,10.02,12.36,10.02l2.51,3.12c2.68,0.3,5.19-0.3,7.52-1.54
				c2.5-1.33,4.79-3.38,6.84-5.8c1.23-1.45,2.37-3.03,3.42-4.67c0.01-0.01,0.01-0.02,0.01-0.02c5.67-8.81,8.81-19.18,8.81-19.18
				s9.23,0,12.09-2.55c2.25-2,3.12-28.12,3.4-39.26C358.69,161.71,356.65,160.46,354.15,159.4z"/>
			<path class="st5" d="M498.7,358.47l-8.02,5.68c0,0-7.73,9.47-18.24,10.75c-1.65,0.2-3.37,0.21-5.15-0.06
				c-2.81-0.43-7.94-3.33-14.32-7.67c-0.36-0.25-0.73-0.5-1.1-0.75c-3.29-2.27-6.87-4.89-10.62-7.73
				c-7.32-5.55-15.25-11.94-22.76-18.19c-15.93-13.27-29.93-25.89-32.04-28.45c-4.68-5.68-9.02-16.7-10.02-24.05
				c-1-7.35-10.75-17.34-17.7-21.71c-1.16-0.73-2.26-1.53-3.3-2.37c-11.11-8.97-15.85-23.32-24.43-22.68
				c-5.34,0.4,2.67,13.7,2.67,13.7L318.49,236l-2.51-3.12c0,0-9.69-14.36-12.36-10.02c-1.24,2.01-0.32,5.46,1.24,8.84
				c1.82,3.92,4.52,7.76,5.77,9.2c2.34,2.67,10.69,22.71,9.69,23.05c-1,0.33-8.02-7.01-8.02-7.01s-18.2-24.38-21.54-24.38
				s-5.17,1.93-3.85,5.01c3.12,7.29,14.36,23.72,18.04,29.73c3.67,6.01,0.67,5.34,0.67,5.34s-8.35-3.01-16.37-8.68
				c-8.02-5.68-8.68-2.34-8.68-2.34c-1.67,13.36,54.78,57.79,70.48,67.47c12.63,7.79,55.74,76.98,89.69,107.56
				c3.16,2.85,6.24,5.36,9.21,7.46c4.78,3.38,9.27,5.69,13.34,6.57c33.74,7.35,64.13-21.04,64.13-21.04
				C542.79,400.23,498.7,358.47,498.7,358.47z"/>
			<path class="st5" d="M195.54,406.19c1.25-3.8,1.92-8.99,2.18-14.92l-18.39,2.42c-0.7,0.09-1.31,0.53-1.63,1.16l-7.31,14.62
				c-0.23,0.46-0.61,0.82-1.08,1.01l-5.45,2.29c-0.67,0.28-1.14,0.88-1.27,1.58l-1.9,10.43c-0.11,0.59-0.45,1.1-0.96,1.42
				l-6.94,4.39c-0.5,0.32-0.85,0.83-0.96,1.42l-1.65,8.97c-0.11,0.57-0.44,1.08-0.93,1.4l-7.01,4.59c-0.3,0.2-0.55,0.47-0.72,0.78
				l-6.98,13.16c-0.09,0.17-0.2,0.33-0.34,0.47l-7.19,7.59c-1.19,1.25-0.47,3.32,1.24,3.58l27.67,4.08
				c1.85,0.27,3.13-1.79,2.06-3.33c-0.84-1.21-0.23-2.89,1.19-3.28l5.22-1.42c0.76-0.21,1.34-0.81,1.52-1.58l2.03-8.8
				c0.15-0.64,0.59-1.18,1.19-1.46l5.06-2.32c0.51-0.23,0.91-0.66,1.11-1.19l4.12-10.9c0.25-0.65,0.8-1.15,1.48-1.32l6.16-1.54
				c0.46-0.11,0.86-0.38,1.15-0.74l5.17-6.52C193.15,421.72,193.63,412.03,195.54,406.19z"/>
			<path class="st5" d="M403.88,233.95l9.36,8.47c9.54-5.6,17.22-11.11,21.97-14.74C424.78,227.42,413.98,230.05,403.88,233.95z"/>
			<g>
				<path class="st5" d="M372.29,246.74c-2.86,2.45-5.74,4.94-8.14,7.03c0.71,0.33,1.42,0.65,2.13,0.97
					c2.17-1.55,4.7-3.29,7.53-5.12C373.34,248.61,372.85,247.63,372.29,246.74z"/>
				<path class="st5" d="M459.33,281.52c-0.01-0.06-0.02-0.11-0.02-0.16c-0.4-3.2-0.87-6.19-1.39-9.04
					c-4.25,7.62-15.52,24.81-30.63,24.81c-8.59,0-14.1-0.22-17.59-0.46c3.23,10.79,4.55,21.13,6.34,26.79
					c1.82,5.75,2.41,11.81,2.47,17.03c7.51,6.25,15.44,12.64,22.76,18.19c3.75,2.84,7.33,5.46,10.62,7.73
					c0.37,0.25,0.74,0.51,1.1,0.75c0.44-2.35,0.89-4.8,1.34-7.34C458.45,336.22,462.28,305.09,459.33,281.52z"/>
				<path class="st5" d="M351.06,329.08c-2.25-1.39-5.33-3.48-8.95-6.1l6.42,21.63c0,0,13.26,0.69,14.21,7.91
					c0.95,7.21-11.39,11.77-11.39,11.77l-0.51-0.86c1.1,3.41,1.56,6.07,0.7,6.83c-3.02,2.64-13.57,4.15-13.57,3.02
					c0-0.42-0.57-3.51-1.28-7.24l0.05,0.35c0,0-3.04,5.5-11.77,3.04c-4.67-1.32-3.31-5.96-0.89-10.54
					c-0.97-5.29-4.98-23.71-9.94-36.08c-15.37-18.86-38.52-44.41-43.98-50.41c1.33,5.61,2.34,10.09,2.7,12.25
					c1.59,9.55-6.36,18.14-12.41,20.68c-6.05,2.55-11.45,18.45-20.05,20.68c-1.94,0.5-3.84,0.85-5.68,1.05
					c-0.07,7.11-0.4,17.83-1.61,24.27c-1.93,10.28,0.96,56.51,3.21,69.04c1.78,9.9,4.16,45.88,5.07,60.52l101.34-1.64l-0.84-85.08
					c0,0,33.81-12.35,43.12-9.1s9.97,93.18,9.97,93.18l-2.48,0.2l25.61-0.42l3.78-60.88C392.38,383.31,361.43,335.48,351.06,329.08z
					 M301.17,446.39c-8.23,0.22-46.16-0.43-46.16-1.3c0-0.67-3.26-21.83-3.81-37.15c-1.27-2.31-4.49-14.15-5.01-15.37
					c-0.57-1.33,0.57-24.87,4.37-26.96s67.2-8.35,67.2-8.35c2.44,2.75,5.37,29.77,1.79,42.04c2.21,10.08,7.15,33.14,6.98,36.68
					C326.31,440.53,309.4,446.17,301.17,446.39z"/>
				<path class="st5" d="M289.32,242.28c-1-1.8-1.83-3.41-2.4-4.73c-1.32-3.08,0.51-5.01,3.85-5.01s21.54,24.38,21.54,24.38
					s7.01,7.35,8.02,7.01c1-0.33-7.35-20.38-9.69-23.05c-1.26-1.43-3.95-5.27-5.77-9.2c-7.84-3.47-16.06-8.33-22.29-12.31
					c-2.13,0.2-4.5,0.12-7.18-0.29l-7.32-8.27l-3.67-4.2c-0.61,3.83-1.23,7.61-1.8,10.98c1.37,0.32,2.85,0.67,4.47,1.06
					C270.21,219.42,278.99,229.35,289.32,242.28z"/>
				<path class="st5" d="M213.85,339.12c0.17-4.32,1.46-11.7,2.61-17.6c-6.73-2.23-20.07-1.08-24.1-5.38
					c-0.89-0.94-1.92-2.31-3.05-3.98c-0.43,3.85-0.32,8.37,1.14,12.88c3.03,9.35,8.27,43.36,7.27,66.22
					c-0.26,5.93-0.94,11.12-2.18,14.92c-1.91,5.84-2.39,15.53-2.15,26.05c0.51,22.74,4.38,49.36,4.38,49.36l24.66-0.4
					C220.62,453.86,213.57,346.13,213.85,339.12z"/>
				<path class="st5" d="M373.81,249.62c-2.83,1.84-5.36,3.58-7.53,5.12c3.2,1.45,6.43,2.86,9.65,4.21
					c1.13-0.32,2.26-0.66,3.38-1.02C376.69,256.47,375.37,252.93,373.81,249.62z"/>
				<path class="st5" d="M370.22,244.23c0.8,0.68,1.47,1.55,2.07,2.5c0.56,0.9,1.05,1.88,1.52,2.88c1.55,3.32,2.87,6.85,5.5,8.32
					c12.48-3.97,24.17-9.78,33.92-15.51l-9.36-8.47l-1.71-1.55l-8.72-7.9c0,0-17.18-32.14-30.23-32.45c7,10.5,0.64,16.55-8.59,27.68
					c-5.54,6.69-13.14,5.92-18.33,4.23l-0.03,0.02c-1.05,1.64-2.19,3.22-3.42,4.67c3.82,1.51,10.27,4.21,16.06,7.31
					C354.08,238.73,363.96,238.91,370.22,244.23z"/>
				<path class="st5" d="M445.96,233.28c0,0-0.92,0.44-2.49,1.21c-9.7,4.73-44.39,21.99-42.98,26.21
					c1.63,4.9,11.03,10.62,11.03,10.62l41.14-19.07l2.27-1.05L445.96,233.28z"/>
				<path class="st5" d="M455.42,258.99l-0.53,0.18c-0.71-2.48-1.46-4.79-2.23-6.91l-41.14,19.07c0,0-9.4-5.72-11.03-10.62
					c-1.41-4.22,33.28-21.48,42.98-26.21c-3.74-5.02-6.6-6.74-6.6-6.74c-0.55-0.03-1.11-0.05-1.67-0.07
					c-4.75,3.63-12.43,9.14-21.97,14.74c-9.75,5.73-21.44,11.54-33.92,15.51c-1.12,0.36-2.25,0.69-3.38,1.02
					c2.03,0.85,4.05,1.68,6.06,2.47c9.73,3.83,16.3,10.8,20.91,18.85c2.98,5.21,5.14,10.87,6.8,16.41c3.49,0.24,9,0.46,17.59,0.46
					c15.11,0,26.38-17.19,30.63-24.81c1.21-2.17,1.86-3.57,1.86-3.57L455.42,258.99z"/>
				<path class="st5" d="M416.04,323.46c-1.79-5.66-3.11-15.99-6.34-26.79c-1.66-5.54-3.81-11.2-6.8-16.41
					c-4.61-8.04-11.18-15.02-20.91-18.85c-2.01-0.79-4.03-1.62-6.06-2.47c-3.22-1.35-6.46-2.77-9.65-4.21
					c-0.71-0.32-1.42-0.65-2.13-0.97c-16.22-7.44-31.16-15.46-38.14-19.31c-2.32,1.24-4.83,1.85-7.52,1.54l15.2,18.93
					c0,0-8.01-13.3-2.67-13.7c8.58-0.64,13.32,13.71,24.43,22.68c1.04,0.84,2.13,1.64,3.3,2.37c6.96,4.37,16.7,14.36,17.7,21.71
					c1,7.35,5.34,18.37,10.02,24.05c2.11,2.56,16.11,15.18,32.04,28.45C418.45,335.27,417.86,329.21,416.04,323.46z"/>
				<polygon class="st5" points="336.74,351.19 340.15,370.55 350.02,368.65 341.48,349.67 				"/>
				<path class="st5" d="M362.74,352.52c-0.95-7.21-14.21-7.91-14.21-7.91l-5.39,0.58c0.16,0.33,0.33,0.68,0.51,1.05
					c2.22,4.64,5.49,11.83,7.21,17.18l0.51,0.86C351.35,364.29,363.69,359.73,362.74,352.52z"/>
				<path class="st5" d="M350.85,363.42c-1.72-5.35-4.99-12.54-7.21-17.18c-0.18-0.37-0.34-0.72-0.51-1.05
					c-1.05-2.19-1.77-3.6-1.77-3.6l-8.67,0.38l0.32,2.69l0.31,2.58l0.5,4.16c0,0,1.65,8.25,2.87,14.63
					c0.71,3.73,1.28,6.83,1.28,7.24c0,1.13,10.56-0.38,13.57-3.02C352.41,369.5,351.94,366.84,350.85,363.42z M340.15,370.55
					l-3.42-19.36l4.75-1.52l8.54,18.98L340.15,370.55z"/>
				<path class="st5" d="M315.67,405.1c-4.68,1.79-63.21,3.61-64.16,3.23c-0.08-0.03-0.19-0.17-0.3-0.39
					c0.55,15.32,3.81,36.48,3.81,37.15c0,0.87,37.92,1.52,46.16,1.3c8.23-0.22,25.14-5.85,25.35-10.4
					c0.17-3.54-4.77-26.6-6.98-36.68C318.67,402.3,317.42,404.43,315.67,405.1z"/>
				<path class="st5" d="M317.75,357.26c0,0-63.4,6.26-67.2,8.35s-4.94,25.63-4.37,26.96c0.52,1.21,3.74,13.05,5.01,15.37
					c0.12,0.22,0.22,0.36,0.3,0.39c0.95,0.38,59.48-1.43,64.16-3.23c1.75-0.67,3.01-2.8,3.88-5.8
					C323.12,387.03,320.19,360.01,317.75,357.26z"/>
				<path class="st5" d="M421.91,417.14l-3.78,60.88l3.9-0.06l4.02-56.16C424.68,420.28,423.3,418.72,421.91,417.14z"/>
				<path class="st5" d="M272.86,284.64c-0.36-2.17-1.37-6.64-2.7-12.25c-3.1-13.04-7.98-32.25-10.76-43.11l-8.97-5.41l-8.75-5.28
					l-1.28-0.77c-14.71-9.53-29.41-3.45-34.93-3.3c-1.12,4.54-3.02,11.67-3.88,11.89c-1.27,0.32-15.59,7.32-14.95,14.32
					c0.64,7-1.27,10.18-4.77,12.09c-3.5,1.91-11.14,16.23-7.32,28.64c3.11,10.11,9.81,23.38,14.76,30.71
					c1.13,1.67,2.17,3.03,3.05,3.98c4.03,4.3,17.38,3.15,24.1,5.38c1.24,0.41,2.25,0.93,2.94,1.62c3.45,3.45,9,4.6,15.32,3.91
					c1.84-0.2,3.74-0.55,5.68-1.05c8.59-2.23,14-18.14,20.05-20.68C266.49,302.78,274.45,294.19,272.86,284.64z"/>
				<path class="st5" d="M331,346.45c-1.37-0.73-2.4-1.91-2.83-3.73c-0.69-2.86-6.4-10.57-14.03-19.93
					c4.96,12.37,8.97,30.79,9.94,36.08c2.1-3.98,5-7.91,5.44-9.58C329.83,348.14,330.38,347.2,331,346.45z"/>
				<path class="st5" d="M336.69,366.02c-1.22-6.38-2.87-14.63-2.87-14.63l-0.5-4.16c-0.5-0.1-0.98-0.23-1.44-0.39
					c-0.31-0.11-0.61-0.24-0.89-0.39c-0.62,0.75-1.17,1.68-1.48,2.84c-0.44,1.68-3.34,5.61-5.44,9.58
					c-2.42,4.58-3.79,9.22,0.89,10.54c8.73,2.47,11.77-3.04,11.77-3.04L336.69,366.02z"/>
				<g>
					<path class="st5" d="M316.16,302.63c-18.54-15.64-36.54-33.39-35.59-41.02c0,0,0.67-3.34,8.68,2.34
						c8.02,5.68,16.37,8.68,16.37,8.68s3.01,0.67-0.67-5.34c-3.01-4.93-11.1-16.85-15.64-25c-10.33-12.93-19.11-22.86-22.24-23.61
						c-1.62-0.39-3.1-0.74-4.47-1.06c-1.2,7.07-2.16,12.31-2.16,12.31l-1.05-0.64c2.78,10.86,7.67,30.07,10.76,43.11
						c4.99,5.48,24.73,27.26,39.82,45.37C309.46,311.3,310.35,304.37,316.16,302.63z"/>
					<path class="st5" d="M342.1,322.98c-7.24-5.23-16.66-12.52-25.94-20.35c-5.81,1.74-6.7,8.67-6.18,15.13
						c1.43,1.72,2.83,3.4,4.16,5.04c7.63,9.36,13.34,17.07,14.03,19.93c0.44,1.82,1.46,3,2.83,3.73c0.28,0.15,0.58,0.28,0.89,0.39
						c0.45,0.17,0.93,0.3,1.44,0.39l-0.31-2.58l-0.32-2.69l8.67-0.38c0,0,0.72,1.41,1.77,3.6l5.39-0.58L342.1,322.98z"/>
				</g>
				<path class="st5" d="M315.47,334.38c0,0-63.75,0.82-65.81,4.94c-2.06,4.11-2.47,21.8-2.47,21.8"/>
				<g>
					<path class="st5" d="M222.42,481.2l18.98-0.31c-0.39-6.28-1.06-16.49-1.83-26.89c-6.4,0.46-14.05,0.69-18.88,0.8
						C221.43,466.05,222.04,475.42,222.42,481.2z"/>
					<path class="st5" d="M232.5,366.2c-0.08-6.67,0.09-12.09,0.61-14.87c0.6-3.21,0.98-7.47,1.22-11.83
						c-10.2,1.62-16.7,1.31-20.49,0.68c0.05,3.38,0.52,12.56,1.23,24.8C220.26,365.85,227.32,366.84,232.5,366.2z"/>
					<path class="st5" d="M234.34,339.5c0.24-4.39,0.34-8.87,0.38-12.44c-6.32,0.69-11.87-0.47-15.32-3.91
						c-0.69-0.69-1.7-1.21-2.94-1.62c-1.15,5.9-2.44,13.29-2.61,17.6c-0.01,0.24-0.01,0.6,0,1.06
						C217.64,340.81,224.14,341.12,234.34,339.5z"/>
					<path class="st5" d="M219.26,432.48c0.51,7.89,1,15.45,1.44,22.32c4.83-0.11,12.47-0.34,18.88-0.8
						c-0.7-9.41-1.48-18.96-2.23-25.89C232.4,431.22,225.44,432.26,219.26,432.48z"/>
					<path class="st5" d="M233.83,395.92c-0.7-9.98-1.23-20.93-1.33-29.72c-5.18,0.64-12.24-0.35-17.43-1.21
						c0.53,9.22,1.2,20.16,1.91,31.66C222.1,396.83,228.66,396.78,233.83,395.92z"/>
					<path class="st5" d="M236.33,420.36c-0.84-4.67-1.76-14.02-2.5-24.45c-5.16,0.86-11.73,0.91-16.84,0.74
						c0.73,11.79,1.52,24.15,2.27,35.83c6.18-0.22,13.14-1.26,18.09-4.37C236.99,424.86,236.65,422.17,236.33,420.36z"/>
				</g>
			</g>
			<polygon class="st5" points="581.98,298.03 557.8,317.76 571.8,350.84 602.34,366.11 625.88,348.3 594.7,334.94 			"/>
			<circle class="st5" cx="583.7" cy="341.64" r="10.4"/>
			<ellipse class="st5" cx="281.54" cy="198.73" rx="13.95" ry="17.42"/>
			<g>
				<path class="st5" d="M267.13,180.6c0,0-10.89-4.99-21.76-8.33c-5.71-1.76-11.4-3.05-15.53-2.94c-1.18,0.03-2.24,0.17-3.12,0.46
					c-2.22,0.71-4.22,2.37-6,4.49c13.83,2.05,44.02,11.15,44.02,11.15l-7.38,16.61c-1.48-7.38-44.43-13.04-44.43-13.04
					c-1.18,3.25-1.81,5.6-1.81,5.6s-10.18,16.55-7.64,19.41c0.37,0.41,1.05,0.55,1.98,0.52c5.53-0.15,20.23-6.24,34.93,3.3
					l1.28,0.77l17.72,10.69l1.05,0.64c0,0,2.09-11.41,3.97-23.29c0.62-3.93,1.22-7.91,1.71-11.54
					C267.1,187.84,267.66,181.97,267.13,180.6z"/>
				<path class="st5" d="M257.36,202.04l7.38-16.61c0,0-30.19-9.11-44.02-11.15c-3.54,4.22-6.18,10.31-7.79,14.72
					C212.94,189,255.89,194.65,257.36,202.04z"/>
			</g>
			<path class="st5" d="M385.03,385.06c-9.32-3.25-43.12,9.1-43.12,9.1l0.19,19.45c12.73-1.51,38.63-7.23,48.86-9.55
				C389.54,393.56,387.62,385.96,385.03,385.06z"/>
			<g>
				<path class="st5" d="M358.25,410.96v68.03l19.37-0.31l-6.99-70.19C366.54,409.34,362.31,410.19,358.25,410.96z"/>
				<path class="st5" d="M342.1,413.61l0.65,65.64l15.51-0.25v-68.03C352.11,412.12,346.37,413.1,342.1,413.61z"/>
				<path class="st5" d="M395,478.24c0,0-0.34-46.9-4.04-74.18c-4.54,1.03-12.15,2.73-20.33,4.43l6.99,70.19l14.9-0.24L395,478.24z"
					/>
			</g>
		</g>
		<g>
			<path class="st5" d="M265.8,180c0.85,0.37,1.33,0.59,1.33,0.59c0.53,1.37-0.03,7.24-1.01,14.49c-0.49,3.64-1.09,7.61-1.71,11.54
				l3.67,4.2l7.32,8.27c2.67,0.41,5.05,0.49,7.18,0.29c6.96-0.64,11.15-4.25,13.61-8.94c5.46-10.39,2.44-26.04,2.44-26.04
				s0.41-0.85,1.09-2.25C293.44,176.07,280.44,167.36,265.8,180z"/>
			<g>
				<path class="st5" d="M294.86,154.55c-4.09-1.55-6.75-3.37-8.32-4.73c-1.17-1.01-1.75-1.76-1.88-1.95l-0.03-0.05
					c0,0,1.91-19.41,6.68-27.36s7.64-18.77-9.55-23.55c-17.18-4.77-28.32,0-28.32,0s0.63-0.81,1.81-2.11
					c-11.18,8.14-17.72,23.11-17.72,23.11s2.86-2.44,4.38,6.18c1.2,6.81-3.28,28.3-5.23,37.05c5.22,3.99,7.35,8.9,8.68,11.12
					c8.61,2.65,17.21,6.32,20.43,7.74c14.64-12.64,27.63-3.93,33.92,2.16c2.37-4.89,8.03-16.49,11-21.93
					c0.4-0.73,0.77-1.62,1.12-2.62C304.48,157.37,298.95,156.1,294.86,154.55z"/>
				<path class="st5" d="M241.92,124.09c-1.52-8.62-4.38-6.18-4.38-6.18s-11.14,13.05-13.68,20.36c-1.54,4.43-1.68,10.84-1.7,15.57
					c1.6,1.45,3.29,2.25,3.29,2.25c4.84,1.07,8.47,2.93,11.24,5.05C238.63,152.39,243.12,130.9,241.92,124.09z"/>
			</g>
		</g>
		<g>
			<path class="st5" d="M343.94,220.76c7.34-1.18,15.76-19.53,19.44-28.46c-0.05-0.08-0.1-0.17-0.16-0.25l6.42-23.47
				c-3.44-1.48-6.06-3.57-9.07-5.6c-0.27,11.13-1.15,37.26-3.4,39.26c-2.86,2.55-12.09,2.55-12.09,2.55s-2.48,8.18-7,16.18
				C339.73,221.14,341.67,221.12,343.94,220.76z"/>
			<path class="st5" d="M343.94,220.76c-2.27,0.37-4.21,0.38-5.85,0.2c-0.57,1.01-1.17,2.01-1.81,3c0.01,0,0.01,0,0.02,0.01
				c5.19,1.68,12.79,2.45,18.33-4.23c9.15-11.05,15.48-17.09,8.75-27.43C359.7,201.22,351.28,219.57,343.94,220.76z"/>
		</g>
		<path class="st5" d="M269.58,106.86c0,0-16.32,36.71-5.65,65.89"/>
		<path class="st5" d="M237.54,117.92c0,0-3.1,35.7-7.18,36.01c0,0-4.11,0.95-3.96-0.84c0.15-1.79,0.6-21.16,0.6-21.16"/>
		<path class="st5" d="M209.22,150.05c0,0-0.41,6.17,1.83,8.1c2.24,1.94,5.96,4.62,5.96,4.62"/>
		<path class="st5" d="M206.99,160.87c0,0,2.71,9.06,4.65,10.7"/>
		<path class="st5" d="M340.26,216.73c0,0-10.58,1.94-18.18-7"/>
		<path class="st5" d="M498.7,358.47c0,0-3.58-4.48-6.56-1.8c-2.98,2.68-1.46,7.47-1.46,7.47L498.7,358.47z"/>
		<line class="st5" x1="494.22" y1="355.49" x2="540.87" y2="312.86"/>
		<path class="st5" d="M518.81,312.64c0,0-2.83,11.55-9.38,12.89"/>
		<path class="st5" d="M527.4,276.37c0.06-0.77,4.53-12.69,4.53-12.69s-9.39,15.35-12.07,15.2s-14.46-17.74-14.46-17.74l35.32-16.84
			"/>
		<path class="st5" d="M548.08,247.73c0,0,10.38,5.21,17.53,3.57"/>
		<path class="st5" d="M526.77,202.55c0,0,9.49,1.81,10.23,4.64"/>
		<path class="st5" d="M534.17,221.65c0.89-0.15,10.13,8.94,18.63-2.09"/>
		<path class="st5" d="M603.32,213.3c0,0,12.97-1.79,12.67,5.66c-0.3,7.45-14.76,7-14.76,7"/>
		<polygon class="st5" points="590.36,334.92 587.19,341.3 592.28,346.28 585.24,345.24 582.07,351.62 580.88,344.6 573.84,343.56 
			580.15,340.26 578.96,333.24 584.05,338.22 		"/>
		<polygon class="st5" points="579.18,304.96 575,307.94 582.31,328.06 586.18,325.98 		"/>
		<polygon class="st5" points="572.77,309.58 568.6,312.56 576.05,330.6 579.48,328.81 		"/>
		<polygon class="st5" points="566.36,314.95 562.19,317.93 569.49,338.05 572.92,334.47 		"/>
		<polygon class="st5" points="619.12,349.67 599.45,342.22 597.81,344.91 616.14,352.66 		"/>
		<polygon class="st5" points="613.46,354.89 596.17,347.74 594.53,350.42 611.22,356.68 		"/>
		<polygon class="st5" points="608.84,359.06 591.55,351.91 589.91,354.59 606.6,360.85 		"/>
		<path class="st5" d="M470.31,355.13c0,0,3.95-37.94,12.46-53.9c8.51-15.96,3.55-18.09,3.55-18.09"/>
		<path class="st5" d="M527.42,429.62l1.45,2.13c0,0,101.08-65.97,103.56-76.96"/>
		<path class="st5" d="M489.51,297.34c-4.34,9-6.01,19.07-1.42,21.28c4.59,2.21,10.56-8.38,14.9-17.38c4.34-9,7.43-21.91,2.84-24.12
			C501.23,274.91,493.84,288.34,489.51,297.34z"/>
		<path class="st5" d="M455.42,258.99c0,0-21.69,22.52-41.02,25.75"/>
		<path class="st5" d="M263.19,214.22c0,0-10.81-19.24-47.17-14.64"/>
		<line class="st5" x1="280.58" y1="261.61" x2="261.47" y2="239.3"/>
		<path class="st5" d="M289.32,242.28c0,0-25.64-11.09-28.59-10.6"/>
		<path class="st5" d="M304.49,310.35c0,0-37.37,1.72-48.93,6.39l-7.38,3.44"/>
		<line class="st5" x1="315.06" y1="443.36" x2="315.56" y2="484.67"/>
		<circle class="st5" cx="336.07" cy="180.3" r="2.45"/>
		<circle class="st5" cx="564.18" cy="189.62" r="2.45"/>
		<path class="st5" d="M537.05,180.5c0.69-1.4,1.55-2.7,2.44-4.05c-0.45-0.46-1.07-0.75-1.76-0.75c-1.35,0-2.45,1.1-2.45,2.45
			C535.27,179.28,536.02,180.21,537.05,180.5z"/>
		<path class="st5" d="M361.59,252.71c0,0,28.05,11.59,36.74,33.32c8.69,21.73,13.58,48.35,13.58,48.35"/>
		
			<ellipse transform="matrix(0.7461 -0.6658 0.6658 0.7461 -112.3243 256.8795)" class="st5" cx="280.7" cy="275.74" rx="2.56" ry="3.42"/>
		<path class="st5" d="M360.57,162.98c0,0-17.5,13.11-28.14,9.31l6.46-9.12c0,0-33.43,15.19-37.23,14.81l10.18-20.37
			c0,0,21.35-3.18,36.93-0.14C364.34,160.51,360.57,162.98,360.57,162.98z"/>
	</g>
	<g>
		<path class="st6" d="M625,218.73c-2.23-14.64-22.5-10.77-22.5-10.77s1.82-6.41-2.95-15c-4.77-8.59-13.23-16.19-5.28-25.1
			c0,0-37.59-10.33-37.59-28.15c0,0-1.25,0.67-1.74,0.82c-2.34,0.71-5.84,3.58-8.2,19.34c-2.86,19.09-5.41,23.23-11.77,28.32
			c-6.36,5.09-12.73,8.27-12.73,10.5c0,2.23,7.95,5.41,7.95,5.41s-6.05,23.67-0.69,33.47c0.53,0.98,1.18,1.82,1.96,2.48l20.05,9.23
			l-14.05,30.11c4.94,0.91,11.68,1.74,16.79,0.83c0.72-0.52,1.6-1.15,2.63-1.89c-0.78-1.75-1.23-2.95-1.23-2.95
			s26.57-23.18,42.2-31.69c1.83-1,3.51-1.79,4.98-2.33c1.6-0.58,2.94-0.85,3.97-0.74c0.71-3.19,1.36-7.57,1.36-7.57
			S627.22,233.37,625,218.73z"/>
		<g>
			<path class="st7" d="M262.53,184.15c0.85,0.37,1.33,0.59,1.33,0.59c0.53,1.37-0.03,7.24-1.01,14.49
				c-0.49,3.64-1.09,7.61-1.71,11.54l3.67,4.2l7.32,8.27c2.67,0.41,5.05,0.49,7.18,0.29c6.96-0.64,11.15-4.25,13.61-8.94
				c5.46-10.39,2.44-26.04,2.44-26.04s0.41-0.85,1.09-2.25C290.16,180.22,277.17,171.51,262.53,184.15z"/>
			<g>
				<path class="st7" d="M291.59,156.86c-4.09-1.55-6.75-3.37-8.32-4.73c-1.17-1.01-1.75-1.76-1.88-1.95l-0.03-0.05
					c0,0,1.91-19.41,6.68-27.36s7.64-18.77-9.55-23.55c-17.18-4.77-28.32,0-28.32,0s0.63-0.81,1.81-2.11
					c-11.18,8.14-17.72,23.11-17.72,23.11s2.86-2.44,4.38,6.18c1.2,6.81-3.28,28.3-5.23,37.05c5.22,3.99,7.35,8.9,8.68,11.12
					c8.61,2.65,17.21,6.32,20.43,7.74c14.64-12.64,27.63-3.93,33.92,2.16c2.37-4.89,8.03-16.49,11-21.93
					c0.4-0.73,0.77-1.62,1.12-2.62C301.21,159.67,295.68,158.4,291.59,156.86z"/>
				<path class="st4" d="M238.64,126.4c-1.52-8.62-4.38-6.18-4.38-6.18s-11.14,13.05-13.68,20.36c-1.54,4.43-1.68,10.84-1.7,15.57
					c1.6,1.45,3.29,2.25,3.29,2.25c4.84,1.07,8.47,2.93,11.24,5.05C235.36,154.7,239.85,133.2,238.64,126.4z"/>
			</g>
		</g>
		<path class="st0" d="M446.04,454.29c1.28-3.39,2.61-6.93,3.98-10.56c-2.97-2.1-6.05-4.61-9.21-7.46
			C442.69,442.74,444.46,448.85,446.04,454.29z"/>
		<path class="st0" d="M467.37,374.47c1.77,0.27,3.49,0.27,5.15,0.06c-0.56-8.07-2.14-19.77-2.14-19.77l-15.99,4.7
			c-0.44,2.54-0.89,4.99-1.34,7.34C459.43,371.14,464.56,374.04,467.37,374.47z"/>
		<path class="st0" d="M336.37,223.6c-0.01,0-0.01,0-0.02-0.01c0,0.01-0.01,0.02-0.01,0.02L336.37,223.6z"/>
		<path class="st7" d="M667.47,213c-6.05-28.64-34.05-2.55-34.05-2.55s16.55-21.95,17.18-31.18c0.64-9.23-27.05-42.95-40.73-51.86
			c-13.68-8.91-29.27-8.91-40.09-7.95c-7.55,0.67-12.15,11.1-14.79,18.64c0.49-0.15,0.79-0.18,0.79-0.18
			c0,17.82,37.23,31.18,37.23,31.18c-7.95,8.91-1.59,13.36,3.18,21.95c4.77,8.59,6.36,16.55,6.36,16.55s16.86-5.41,19.09,9.23
			c2.23,14.64-16.86,14.32-16.86,14.32s-0.64,4.38-1.36,7.57c0.14,0.02,0.28,0.04,0.41,0.07c9.23,2.23,16.02,14.19,16.02,14.19
			c4.55,3.94,8.43,7.99,11.73,12.12C647.68,258.31,672.34,236.07,667.47,213z"/>
		<path class="st8" d="M629.7,266.98c-3.3-4.13-7.19-8.18-11.73-12.12c0,0-3.91,2.63-9.57,6.46c-14.54,9.83-40.63,27.52-41.77,28.67
			c-6.04,6.04-12.39-5.86-14.99-11.68c-1.02,0.74-1.91,1.37-2.63,1.89c0.59-0.11,1.17-0.23,1.71-0.39l-33.73,34.36l8.59-36.27
			c0,0,2.76,0.76,6.63,1.47l14.05-30.11l-20.05-9.23c-0.78-0.66-1.42-1.51-1.96-2.48l-66.77,45.34c0.01,0.06,0.02,0.11,0.02,0.16
			c2.95,23.57-0.88,54.69-5.01,78.31l15.99-4.7c0,0,1.57,11.7,2.14,19.77c10.5-1.28,18.24-10.75,18.24-10.75l8.02-5.68
			c0,0,44.09,41.75,28.73,71.15c0,0-30.4,28.39-64.13,21.04c-4.07-0.89-8.56-3.2-13.34-6.57c-1.36,3.62-5.65,33.89-5.65,33.89
			c-1.68,4.61-0.17,6.29,0,6.29c1,0,179.97-14.03,179.97-14.03s10.65-71.74,16.81-103.13C644.76,340.65,656.95,301.06,629.7,266.98z
			"/>
		<path class="st8" d="M603.83,238.77c-0.13-0.03-0.26-0.05-0.41-0.07c-1.02-0.12-2.37,0.16-3.97,0.74
			c-1.47,0.53-3.15,1.33-4.98,2.33c-15.62,8.51-42.2,31.69-42.2,31.69s0.45,1.21,1.23,2.95c2.61,5.82,8.95,17.73,14.99,11.68
			c1.15-1.15,27.24-18.84,41.77-28.67c5.66-3.83,9.57-6.46,9.57-6.46S613.06,241,603.83,238.77z"/>
		<path class="st5" d="M552.27,281.4c-5.11,0.91-11.86,0.08-16.79-0.83c-3.87-0.71-6.63-1.47-6.63-1.47l-8.59,36.27l33.73-34.36
			C553.44,281.16,552.87,281.29,552.27,281.4z"/>
		<path class="st7" d="M308.56,73.32c-28.01-3.7-47.44,14.75-53.24,21.12c-1.18,1.3-1.81,2.11-1.81,2.11s11.14-4.77,28.32,0
			c17.18,4.77,14.32,15.59,9.55,23.55s-6.68,27.36-6.68,27.36c0.37-1.11,9.71-18.23,22.75-34.97c9.48-12.16,20.91-24.13,32.29-29.62
			c1.33-0.64,2.67-1.19,4.02-1.69C331.72,77.35,319.36,74.75,308.56,73.32z"/>
		<path class="st7" d="M313.61,141.09c-12.02-0.09-22.2,1.53-28.22,5.9c1.57,1.36,4.22,3.18,8.32,4.73
			c4.09,1.55,9.62,2.82,16.97,3.06c3.88,0.13,8.26-0.02,13.2-0.56c14.84-1.63,23.24-0.15,29.11,2.35c2.5,1.06,4.54,2.31,6.42,3.58
			c3.01,2.03,5.63,4.12,9.07,5.6c0.19,0.08,0.38,0.17,0.58,0.25c11.14,4.45,18.77,0.32,18.77,0.32s3.63-4.01,6.64-11.41
			C374.66,149.52,339.77,141.28,313.61,141.09z"/>
		<path class="st9" d="M396.77,92.31c0,0-28.48-15.51-54.53-5.83c-1.35,0.5-2.69,1.05-4.02,1.69
			c-11.38,5.49-22.81,17.46-32.29,29.62c-13.05,16.75-22.38,33.87-22.75,34.97l0.03,0.05c0.14,0.19,0.71,0.94,1.88,1.95
			c6.02-4.37,14.52-11.48,26.54-11.39c26.17,0.19,63.93,4.09,83.99,14.36c5.46,2.8,10.5,2.97,13.09,3.78
			c15.27,4.77,16.55,1.59,16.55,1.59C437.36,124.92,396.77,92.31,396.77,92.31z"/>
		<path class="st10" d="M225.52,155.73c0,0-1.69-0.81-3.29-2.25c-1.58-1.43-3.08-3.49-2.76-6.02c0.64-5.09-5.73-6.36-6.68-5.09
			c-0.95,1.27-3.5,7.32-3.5,7.32s-4.14,6.05-2.23,10.82c0,0-6.68,2.23-1.27,9.55c3.5,4.74,5.93,13.2,7.21,18.58
			c2.41-6.64,7.17-17.08,13.79-19.22c0.88-0.29,1.94-0.43,3.12-0.46c4.12-0.11,9.82,1.19,15.53,2.94
			C243.4,168.5,239.49,158.8,225.52,155.73z"/>
		<path class="st10" d="M313.68,159.32c-0.23,0.04-0.44,0.05-0.65,0.05c-4.38,7.88-14.38,24.98-14.38,24.98s2.38,16.83-3.09,27.23
			c-2.46,4.68-4.26,6.29-11.22,6.93c6.23,3.98,9.9,6,17.74,9.48c-1.57-3.38-2.48-6.83-1.24-8.84c2.67-4.34,12.36,10.02,12.36,10.02
			l2.51,3.12c2.68,0.3,5.19-0.3,7.52-1.54c2.5-1.33,4.79-3.38,6.84-5.8c1.23-1.45,2.37-3.03,3.42-4.67
			c0.01-0.01,0.01-0.02,0.01-0.02c5.67-8.81,8.81-19.18,8.81-19.18s9.23,0,12.09-2.55c2.09-1.86,3-24.66,3.33-36.77
			C342.93,162.64,328.43,156.45,313.68,159.32z"/>
		<path class="st6" d="M497.33,362.88l-8.02,5.68c0,0-7.73,9.47-18.24,10.75c-1.65,0.2-3.37,0.21-5.15-0.06
			c-2.81-0.43-7.94-3.33-14.32-7.67c-0.36-0.25-0.73-0.5-1.1-0.75c-3.29-2.27-6.87-4.89-10.62-7.73
			c-7.32-5.55-15.25-11.94-22.76-18.19c-15.93-13.27-29.93-25.89-32.04-28.45c-4.68-5.68-9.02-16.7-10.02-24.05
			c-1-7.35-10.75-17.34-17.7-21.71c-1.16-0.73-2.26-1.53-3.3-2.37c-11.11-8.97-15.85-23.32-24.43-22.68
			c-5.34,0.4,2.67,13.7,2.67,13.7l-15.2-18.93l-2.51-3.12c0,0-9.69-14.36-12.36-10.02c-1.24,2.01-0.32,5.46,1.24,8.84
			c1.82,3.92,4.52,7.76,5.77,9.2c2.34,2.67,10.69,22.71,9.69,23.05c-1,0.33-8.02-7.01-8.02-7.01s-18.2-24.38-21.54-24.38
			s-5.17,1.93-3.85,5.01c3.12,7.29,14.36,23.72,18.04,29.73c3.67,6.01,0.67,5.34,0.67,5.34s-8.35-3.01-16.37-8.68
			c-8.02-5.68-8.68-2.34-8.68-2.34c-1.67,13.36,54.78,57.79,70.48,67.47c12.63,7.79,55.74,76.98,89.69,107.56
			c3.16,2.85,6.24,5.36,9.21,7.46c4.78,3.38,9.27,5.69,13.34,6.57c33.74,7.35,64.13-21.04,64.13-21.04
			C541.43,404.64,497.33,362.88,497.33,362.88z"/>
		<path class="st7" d="M195.61,405.82c1.25-3.8,1.92-8.99,2.18-14.92l-18.39,2.42c-0.7,0.09-1.31,0.53-1.63,1.16l-7.31,14.62
			c-0.23,0.46-0.61,0.82-1.08,1.01l-5.45,2.29c-0.67,0.28-1.14,0.88-1.27,1.58l-1.9,10.43c-0.11,0.59-0.45,1.1-0.96,1.42l-6.94,4.39
			c-0.5,0.32-0.85,0.83-0.96,1.42l-1.65,8.97c-0.11,0.57-0.44,1.08-0.93,1.4l-7.01,4.59c-0.3,0.2-0.55,0.47-0.72,0.78l-6.98,13.16
			c-0.09,0.17-0.2,0.33-0.34,0.47l-7.19,7.59c-1.19,1.25-0.47,3.32,1.24,3.58l27.67,4.08c1.85,0.27,3.13-1.79,2.06-3.33
			c-0.84-1.21-0.23-2.89,1.19-3.28l5.22-1.42c0.76-0.21,1.34-0.81,1.52-1.58l2.03-8.8c0.15-0.64,0.59-1.18,1.19-1.46l5.06-2.32
			c0.51-0.23,0.91-0.66,1.11-1.19l4.12-10.9c0.25-0.65,0.8-1.15,1.48-1.32l6.16-1.54c0.46-0.11,0.86-0.38,1.15-0.74l5.17-6.52
			C193.22,421.35,193.7,411.66,195.61,405.82z"/>
		<path class="st7" d="M403.94,233.58l9.36,8.47c9.54-5.6,17.22-11.11,21.97-14.74C424.85,227.05,414.05,229.69,403.94,233.58z"/>
		<pattern  id="SVGID_3_" xlink:href="#New_Pattern_Swatch_3" patternTransform="matrix(0.4276 0 0 0.4276 -3863.9907 -4393.7627)">
		</pattern>
		<path class="st11" d="M458.92,280.2c-0.01-0.06-0.02-0.11-0.02-0.16c-0.4-3.2-0.87-6.19-1.39-9.04
			c-4.25,7.62-15.52,24.81-30.63,24.81c-8.59,0-14.1-0.22-17.59-0.46c3.23,10.79,4.55,21.13,6.34,26.79
			c1.82,5.75,2.41,11.81,2.47,17.03c7.51,6.25,15.44,12.64,22.76,18.19c3.75,2.84,7.33,5.46,10.62,7.73
			c0.37,0.25,0.74,0.51,1.1,0.75c0.44-2.35,0.89-4.8,1.34-7.34C458.04,334.89,461.87,303.77,458.92,280.2z"/>
		<path class="st12" d="M350.65,332.53c-2.25-1.39-5.33-3.48-8.95-6.1l6.42,21.63c0,0,13.26,0.69,14.21,7.91
			c0.95,7.21-11.39,11.77-11.39,11.77l-0.51-0.86c1.1,3.41,1.56,6.07,0.7,6.83c-3.02,2.64-13.57,4.15-13.57,3.02
			c0-0.42-0.57-3.51-1.28-7.24l0.05,0.35c0,0-3.04,5.5-11.77,3.04c-4.67-1.32-3.31-5.96-0.89-10.54
			c-0.97-5.29-4.98-23.71-9.94-36.08c-15.37-18.86-38.52-44.41-43.98-50.41c1.33,5.61,2.34,10.09,2.7,12.25
			c1.59,9.55-6.36,18.14-12.41,20.68c-6.05,2.55-11.45,18.45-20.05,20.68c-1.94,0.5-3.84,0.85-5.68,1.05
			c-0.07,7.11-0.4,17.83-1.61,24.27c-1.93,10.28,0.96,56.51,3.21,69.04c1.78,9.9,4.16,45.88,5.07,60.52l101.34-1.64l-0.84-85.08
			c0,0,33.81-12.35,43.12-9.1s9.97,93.18,9.97,93.18l-2.48,0.2l25.61-0.42l3.78-60.88C391.97,386.76,361.02,338.93,350.65,332.53z
			 M300.76,449.84c-8.23,0.22-46.16-0.43-46.16-1.3c0-0.67-3.26-21.83-3.81-37.15c-1.27-2.31-4.49-14.15-5.01-15.37
			c-0.57-1.33,0.57-24.87,4.37-26.96s67.2-8.35,67.2-8.35c2.44,2.75,5.37,29.77,1.79,42.04c2.21,10.08,7.15,33.14,6.98,36.68
			C325.9,443.99,308.99,449.62,300.76,449.84z"/>
		<path class="st12" d="M289.39,241.91c-1-1.8-1.83-3.41-2.4-4.73c-1.32-3.08,0.51-5.01,3.85-5.01s21.54,24.38,21.54,24.38
			s7.01,7.35,8.02,7.01c1-0.33-7.35-20.38-9.69-23.05c-1.26-1.43-3.95-5.27-5.77-9.2c-7.84-3.47-16.06-8.33-22.29-12.31
			c-2.13,0.2-4.5,0.12-7.18-0.29l-7.32-8.27l-3.67-4.2c-0.61,3.83-1.23,7.61-1.8,10.98c1.37,0.32,2.85,0.67,4.47,1.06
			C270.28,219.05,279.06,228.98,289.39,241.91z"/>
		<path class="st12" d="M213.92,338.76c0.17-4.32,1.46-11.7,2.61-17.6c-6.73-2.23-20.07-1.08-24.1-5.38
			c-0.89-0.94-1.92-2.31-3.05-3.98c-0.43,3.85-0.32,8.37,1.14,12.88c3.03,9.35,8.27,43.36,7.27,66.22
			c-0.26,5.93-0.94,11.12-2.18,14.92c-1.91,5.84-2.39,15.53-2.15,26.05c0.51,22.74,4.38,49.36,4.38,49.36l24.66-0.4
			C220.69,453.49,213.64,345.76,213.92,338.76z"/>
		<path class="st7" d="M373.88,249.25c-2.83,1.84-5.36,3.58-7.53,5.12c3.2,1.45,6.43,2.86,9.65,4.21c1.13-0.32,2.26-0.66,3.38-1.02
			C376.75,256.1,375.43,252.57,373.88,249.25z"/>
		<path class="st10" d="M370.29,243.87c0.8,0.68,1.47,1.55,2.07,2.5c0.56,0.9,1.05,1.88,1.52,2.88c1.55,3.32,2.87,6.85,5.5,8.32
			c12.48-3.97,24.17-9.78,33.92-15.51l-9.36-8.47l-1.71-1.55l-8.72-7.9c0,0-17.18-32.14-30.23-32.45c7,10.5,0.64,16.55-8.59,27.68
			c-5.54,6.69-13.14,5.92-18.33,4.23l-0.03,0.02c-1.05,1.64-2.19,3.22-3.42,4.67c3.82,1.51,10.27,4.21,16.06,7.31
			C354.15,238.37,364.03,238.54,370.29,243.87z"/>
		<path class="st7" d="M446.03,232.91c0,0-0.92,0.44-2.49,1.21c-9.7,4.73-44.39,21.99-42.98,26.21c1.63,4.9,11.03,10.62,11.03,10.62
			l41.14-19.07l2.27-1.05L446.03,232.91z"/>
		<pattern  id="SVGID_4_" xlink:href="#New_Pattern_Swatch_3" patternTransform="matrix(0.4276 0 0 0.4276 -3863.5132 -4392.8076)">
		</pattern>
		<path class="st13" d="M455.49,258.62l-0.53,0.18c-0.71-2.48-1.46-4.79-2.23-6.91l-41.14,19.07c0,0-9.4-5.72-11.03-10.62
			c-1.41-4.22,33.28-21.48,42.98-26.21c-3.74-5.02-6.6-6.74-6.6-6.74c-0.55-0.03-1.11-0.05-1.67-0.07
			c-4.75,3.63-12.43,9.14-21.97,14.74c-9.75,5.73-21.44,11.54-33.92,15.51c-1.12,0.36-2.25,0.69-3.38,1.02
			c2.03,0.85,4.05,1.68,6.06,2.47c9.73,3.83,16.3,10.8,20.91,18.85c2.98,5.21,5.14,10.87,6.8,16.41c3.49,0.24,9,0.46,17.59,0.46
			c15.11,0,26.38-17.19,30.63-24.81c1.21-2.17,1.86-3.57,1.86-3.57L455.49,258.62z"/>
		<path class="st12" d="M382.77,305.64c0.76,1.16,0.45,2.28-0.31,3.02c0.09,0.23,0.18,0.45,0.27,0.68
			c8.51,11.46,19.9,20.03,31.33,28.44c-0.3-3.98-0.96-8.21-2.26-12.3c-1.79-5.66-3.11-15.99-6.34-26.79
			c-1.66-5.54-3.81-11.2-6.8-16.41c-4.61-8.04-11.18-15.02-20.91-18.85c-2.01-0.79-4.03-1.62-6.06-2.47
			c-3.22-1.35-6.46-2.77-9.65-4.21c-0.71-0.32-1.42-0.65-2.13-0.97c-7.47-3.43-14.66-6.98-20.94-10.19
			c4.09,4.2,7.62,8.98,11.17,13.75c0.88-0.09,1.79,0.25,2.35,1.28c4.84,8.81,15.43,12.51,20.24,21.5c3.18,5.96,5.08,12.42,7.1,18.83
			C380.8,302.54,381.76,304.1,382.77,305.64z"/>
		<polygon class="st12" points="336.8,350.82 340.22,370.18 350.09,368.29 341.55,349.3 		"/>
		<path class="st4" d="M362.81,352.15c-0.95-7.21-14.21-7.91-14.21-7.91l-5.39,0.58c0.16,0.33,0.33,0.68,0.51,1.05
			c2.22,4.64,5.49,11.83,7.21,17.18l0.51,0.86C351.42,363.92,363.76,359.36,362.81,352.15z"/>
		<path class="st4" d="M350.92,363.06c-1.72-5.35-4.99-12.54-7.21-17.18c-0.18-0.37-0.34-0.72-0.51-1.05
			c-1.05-2.19-1.77-3.6-1.77-3.6l-8.67,0.38l0.32,2.69l0.31,2.58l0.5,4.16c0,0,1.65,8.25,2.87,14.63c0.71,3.73,1.28,6.83,1.28,7.24
			c0,1.13,10.56-0.38,13.57-3.02C352.47,369.13,352.01,366.47,350.92,363.06z M340.22,370.18l-3.42-19.36l4.75-1.52l8.54,18.98
			L340.22,370.18z"/>
		<path class="st12" d="M316.21,408.55c-4.68,1.79-63.21,3.61-64.16,3.23c-0.08-0.03-0.19-0.17-0.3-0.39
			c0.55,15.32,3.81,36.48,3.81,37.15c0,0.87,37.92,1.52,46.16,1.3c8.23-0.22,25.14-5.85,25.35-10.4c0.17-3.54-4.77-26.6-6.98-36.68
			C319.22,405.75,317.96,407.88,316.21,408.55z"/>
		<path class="st12" d="M317.82,356.9c0,0-63.4,6.26-67.2,8.35s-4.94,25.63-4.37,26.96c0.52,1.21,3.74,13.05,5.01,15.37
			c0.12,0.22,0.22,0.36,0.3,0.39c0.95,0.38,59.48-1.43,64.16-3.23c1.75-0.67,3.01-2.8,3.88-5.8
			C323.19,386.66,320.26,359.64,317.82,356.9z"/>
		<path class="st12" d="M421.98,416.77l-3.78,60.88l3.9-0.06l4.02-56.16C424.75,419.91,423.37,418.36,421.98,416.77z"/>
		<pattern  id="SVGID_5_" xlink:href="#New_Pattern_Swatch_3" patternTransform="matrix(0.4276 0 0 0.4276 -3864.4683 -4388.9873)">
		</pattern>
		<path class="st14" d="M271.97,288.1c-0.36-2.17-1.37-6.64-2.7-12.25c-3.1-13.04-7.98-32.25-10.76-43.11l-8.97-5.41l-8.75-5.28
			l-1.28-0.77c-14.71-9.53-29.41-3.45-34.93-3.3c-1.12,4.54-3.02,11.67-3.88,11.89c-1.27,0.32-15.59,7.32-14.95,14.32
			c0.64,7-1.27,10.18-4.77,12.09c-3.5,1.91-11.14,16.23-7.32,28.64c3.11,10.11,9.81,23.38,14.76,30.71
			c1.13,1.67,2.17,3.03,3.05,3.98c4.03,4.3,17.38,3.15,24.1,5.38c1.24,0.41,2.25,0.93,2.94,1.62c3.45,3.45,9,4.6,15.32,3.91
			c1.84-0.2,3.74-0.55,5.68-1.05c8.59-2.23,14-18.14,20.05-20.68C265.61,306.23,273.56,297.64,271.97,288.1z"/>
		<path class="st7" d="M331.07,346.09c-1.37-0.73-2.4-1.91-2.83-3.73c-0.69-2.86-6.4-10.57-14.03-19.93
			c4.96,12.37,8.97,30.79,9.94,36.08c2.1-3.98,5-7.91,5.44-9.58C329.9,347.77,330.45,346.83,331.07,346.09z"/>
		<path class="st4" d="M336.76,365.65c-1.22-6.38-2.87-14.63-2.87-14.63l-0.5-4.16c-0.5-0.1-0.98-0.23-1.44-0.39
			c-0.31-0.11-0.61-0.24-0.89-0.39c-0.62,0.75-1.17,1.68-1.48,2.84c-0.44,1.68-3.34,5.61-5.44,9.58c-2.42,4.58-3.79,9.22,0.89,10.54
			c8.73,2.47,11.77-3.04,11.77-3.04L336.76,365.65z"/>
		<g>
			<path class="st7" d="M315.62,302.26c-18.54-15.64-36.54-33.39-35.59-41.02c0,0,0.67-3.34,8.68,2.34
				c8.02,5.68,16.37,8.68,16.37,8.68s3.01,0.67-0.67-5.34c-3.01-4.93-11.1-16.85-15.64-25c-10.33-12.93-19.11-22.86-22.24-23.61
				c-1.62-0.39-3.1-0.74-4.47-1.06c-1.2,7.07-2.16,12.31-2.16,12.31l-1.05-0.64c2.78,10.86,7.67,30.07,10.76,43.11
				c4.99,5.48,24.73,27.26,39.82,45.37C308.92,310.94,309.81,304,315.62,302.26z"/>
			<path class="st7" d="M343.4,325.07c-7.24-5.23-16.66-12.52-25.94-20.35c-5.81,1.74-6.7,8.67-6.18,15.13
				c1.43,1.72,2.83,3.4,4.16,5.04c7.63,9.36,13.34,17.07,14.03,19.93c0.44,1.82,1.46,3,2.83,3.73c0.28,0.15,0.58,0.28,0.89,0.39
				c0.45,0.17,0.93,0.3,1.44,0.39l-0.31-2.58l-0.32-2.69l8.67-0.38c0,0,0.72,1.41,1.77,3.6l5.39-0.58L343.4,325.07z"/>
		</g>
		<g>
			<path class="st7" d="M222.49,481.83l18.98-0.31c-0.39-6.28-1.06-16.49-1.83-26.89c-6.4,0.46-14.05,0.69-18.88,0.8
				C221.5,466.68,222.11,476.05,222.49,481.83z"/>
			<path class="st7" d="M232.57,366.83c-0.08-6.67,0.09-12.09,0.61-14.87c0.6-3.21,0.98-7.47,1.22-11.83
				c-10.2,1.62-16.7,1.31-20.49,0.68c0.05,3.38,0.52,12.56,1.23,24.8C220.33,366.48,227.39,367.47,232.57,366.83z"/>
			<path class="st7" d="M234.41,339.13c0.24-4.39,0.34-8.87,0.38-12.44c-6.32,0.69-11.87-0.47-15.32-3.91
				c-0.69-0.69-1.7-1.21-2.94-1.62c-1.15,5.9-2.44,13.29-2.61,17.6c-0.01,0.24-0.01,0.6,0,1.06
				C217.71,340.44,224.21,340.75,234.41,339.13z"/>
			<path class="st7" d="M219.32,433.11c0.51,7.89,1,15.45,1.44,22.32c4.83-0.11,12.47-0.34,18.88-0.8
				c-0.7-9.41-1.48-18.96-2.23-25.89C232.47,431.85,225.51,432.89,219.32,433.11z"/>
			<path class="st7" d="M233.9,396.55c-0.7-9.98-1.23-20.93-1.33-29.72c-5.18,0.64-12.24-0.35-17.43-1.21
				c0.53,9.22,1.2,20.16,1.91,31.66C222.17,397.46,228.73,397.41,233.9,396.55z"/>
			<path class="st7" d="M236.39,421c-0.84-4.67-1.76-14.02-2.5-24.45c-5.16,0.86-11.73,0.91-16.84,0.74
				c0.73,11.79,1.52,24.15,2.27,35.83c6.18-0.22,13.14-1.26,18.09-4.37C237.06,425.49,236.72,422.8,236.39,421z"/>
		</g>
		<polygon class="st5" points="580.33,298.53 556.15,318.25 570.15,351.33 600.68,366.6 624.23,348.79 593.05,335.43 		"/>
		<circle class="st8" cx="583.77" cy="341.27" r="10.4"/>
		<ellipse class="st4" cx="281.61" cy="198.36" rx="13.95" ry="17.42"/>
		<pattern  id="SVGID_6_" xlink:href="#New_Pattern_Swatch_3" patternTransform="matrix(0.4276 0 0 0.4276 -3863.5132 -4392.8076)">
		</pattern>
		<path class="st15" d="M267.2,180.23c0,0-10.89-4.99-21.76-8.33c-5.71-1.76-11.4-3.05-15.53-2.94c-1.18,0.03-2.24,0.17-3.12,0.46
			c-2.22,0.71-4.22,2.37-6,4.49c13.83,2.05,44.02,11.15,44.02,11.15l-7.38,16.61c-1.48-7.38-44.43-13.04-44.43-13.04
			c-1.18,3.25-1.81,5.6-1.81,5.6s-10.18,16.55-7.64,19.41c0.37,0.41,1.05,0.55,1.98,0.52c5.53-0.15,20.23-6.24,34.93,3.3l1.28,0.77
			l17.72,10.69l1.05,0.64c0,0,2.09-11.41,3.97-23.29c0.62-3.93,1.22-7.91,1.71-11.54C267.17,187.47,267.73,181.6,267.2,180.23z"/>
		<path class="st7" d="M257.43,201.67l7.38-16.61c0,0-30.19-9.11-44.02-11.15c-3.54,4.22-6.18,10.31-7.79,14.72
			C213,188.63,255.95,194.29,257.43,201.67z"/>
		<path class="st12" d="M385.1,384.69c-9.32-3.25-43.12,9.1-43.12,9.1l0.19,19.45c12.73-1.51,38.63-7.23,48.86-9.55
			C389.61,393.19,387.69,385.59,385.1,384.69z"/>
		<g>
			<path class="st12" d="M358.32,413.93v68.03l19.37-0.31l-6.99-70.19C366.61,412.31,362.38,413.16,358.32,413.93z"/>
			<path class="st12" d="M342.17,416.58l0.65,65.64l15.51-0.25v-68.03C352.18,415.1,346.43,416.08,342.17,416.58z"/>
			<path class="st12" d="M395.07,481.22c0,0-0.34-46.9-4.04-74.18c-4.54,1.03-12.15,2.73-20.33,4.43l6.99,70.19l14.9-0.24
				L395.07,481.22z"/>
		</g>
		<path class="st7" d="M344.01,220.39c7.34-1.18,15.76-19.53,19.44-28.46c-0.05-0.08-0.1-0.17-0.16-0.25l6.42-23.47
			c-3.44-1.48-6.06-3.57-9.07-5.6c-0.27,11.13-1.15,37.26-3.4,39.26c-2.86,2.55-12.09,2.55-12.09,2.55s-2.48,8.18-7,16.18
			C339.8,220.77,341.74,220.76,344.01,220.39z"/>
		<path class="st7" d="M344.1,220.21c-2.27,0.37-4.21,0.38-5.85,0.2c-0.57,1.01-1.17,2.01-1.81,3c0.01,0,0.01,0,0.02,0.01
			c5.19,1.68,12.79,2.45,18.33-4.23c9.15-11.05,15.48-17.09,8.75-27.43C359.86,200.68,351.44,219.03,344.1,220.21z"/>
		<path class="st5" d="M489.51,297.34c-4.34,9-6.01,19.07-1.42,21.28c4.59,2.21,10.56-8.38,14.9-17.38c4.34-9,7.43-21.91,2.84-24.12
			C501.23,274.91,493.84,288.34,489.51,297.34z"/>
	</g>
	<g>
		<g>
			<path class="st0" d="M467.3,374.84c1.77,0.27,3.49,0.27,5.15,0.06c-0.56-8.07-2.14-19.77-2.14-19.77l-15.99,4.7
				c-0.44,2.54-0.89,4.99-1.34,7.34C459.36,371.51,464.49,374.41,467.3,374.84z"/>
			<path class="st0" d="M336.3,223.97c-0.01,0-0.01,0-0.02-0.01c0,0.01-0.01,0.02-0.01,0.02L336.3,223.97z"/>
			<path class="st25" d="M667.4,213.37c-6.05-28.64-34.05-2.55-34.05-2.55s16.55-21.95,17.18-31.18
				c0.64-9.23-27.05-42.95-40.73-51.86c-13.68-8.91-29.27-8.91-40.09-7.95c-7.55,0.67-12.15,11.1-14.79,18.64
				c0.49-0.15,0.79-0.18,0.79-0.18c0,17.82,37.23,31.18,37.23,31.18c-7.95,8.91-1.59,13.36,3.18,21.95
				c4.77,8.59,6.36,16.55,6.36,16.55s16.86-5.41,19.09,9.23c2.23,14.64-16.86,14.32-16.86,14.32s-0.64,4.38-1.36,7.57
				c0.14,0.02,0.28,0.04,0.41,0.07c9.23,2.23,16.02,14.19,16.02,14.19c4.55,3.94,8.43,7.99,11.73,12.12
				C647.61,258.68,672.27,236.44,667.4,213.37z"/>
			<path class="st25" d="M631.52,265.46c-3.3-4.13-7.19-8.18-11.73-12.12c0,0-3.91,2.63-9.57,6.46
				c-14.54,9.83-40.63,27.52-41.77,28.67c-6.04,6.04-12.39-5.86-14.99-11.68c-1.02,0.74-1.91,1.37-2.63,1.89
				c0.59-0.11,1.17-0.23,1.71-0.39l-33.73,34.36l8.59-36.27c0,0,2.76,0.76,6.63,1.47l14.05-30.11l-20.05-9.23
				c-0.78-0.66-1.42-1.51-1.96-2.48l-66.77,45.34c0.01,0.06,0.02,0.11,0.02,0.16c2.95,23.57-0.88,54.69-5.01,78.31l15.99-4.7
				c0,0,1.57,11.7,2.14,19.77c10.5-1.28,18.24-10.75,18.24-10.75l8.02-5.68c0,0,44.09,41.75,28.73,71.15c0,0-30.4,28.39-64.13,21.04
				c-4.07-0.89-8.56-3.2-13.34-6.57c-1.36,3.62-7.16,32.9-7.16,32.9c-1.68,4.61-2.63,7.36-2.46,7.36c1,0,183.94-14.11,183.94-14.11
				s10.65-71.74,16.81-103.13C646.59,339.12,658.77,299.54,631.52,265.46z"/>
			<path class="st25" d="M621.58,217.19c-2.23-14.64-19.09-9.23-19.09-9.23s-1.59-7.95-6.36-16.55
				c-4.77-8.59-11.14-13.05-3.18-21.95c0,0-37.23-13.36-37.23-31.18c0,0-0.29,0.03-0.79,0.18c-2.34,0.71-9.26,4.1-11.62,19.86
				c-2.86,19.09-5.41,23.23-11.77,28.32c-6.36,5.09-12.73,8.27-12.73,10.5c0,2.23,7.95,5.41,7.95,5.41s-6.05,23.67-0.69,33.47
				c0.53,0.98,1.18,1.82,1.96,2.48l20.05,9.23l-14.05,30.11c4.94,0.91,11.68,1.74,16.79,0.83c0.72-0.52,1.6-1.15,2.63-1.89
				c-0.78-1.75-1.23-2.95-1.23-2.95s26.57-23.18,42.2-31.69c1.83-1,3.51-1.79,4.98-2.33c1.6-0.58,2.94-0.85,3.97-0.74
				c0.71-3.19,1.36-7.57,1.36-7.57S623.81,231.82,621.58,217.19z"/>
			<path class="st25" d="M603.77,239.14c-0.13-0.03-0.26-0.05-0.41-0.07c-1.02-0.12-2.37,0.16-3.97,0.74
				c-1.47,0.53-3.15,1.33-4.98,2.33c-15.62,8.51-42.2,31.69-42.2,31.69s0.45,1.21,1.23,2.95c2.61,5.82,8.95,17.73,14.99,11.68
				c1.15-1.15,27.24-18.84,41.77-28.67c5.66-3.83,9.57-6.46,9.57-6.46S612.99,241.37,603.77,239.14z"/>
			<path class="st25" d="M550.83,278.67c-5.11,0.91-11.86,0.08-16.79-0.83c-3.87-0.71-6.63-1.47-6.63-1.47l-8.59,36.27l33.73-34.36
				C551.99,278.43,551.42,278.56,550.83,278.67z"/>
			<path class="st27" d="M308.49,73.69c-28.01-3.7-47.44,14.75-53.24,21.12c-1.18,1.3-1.81,2.11-1.81,2.11s11.14-4.77,28.32,0
				c17.18,4.77,14.32,15.59,9.55,23.55s-6.68,27.36-6.68,27.36c0.37-1.11,9.71-18.23,22.75-34.97
				c9.48-12.16,20.91-24.13,32.29-29.62c1.33-0.64,2.67-1.19,4.02-1.69C331.65,77.72,319.29,75.11,308.49,73.69z"/>
			<path class="st27" d="M314.77,143.92c-12.02-0.09-22.2,1.53-28.22,5.9c1.57,1.36,4.22,3.18,8.32,4.73
				c4.09,1.55,9.62,2.82,16.97,3.06c3.88,0.13,8.26-0.02,13.2-0.56c14.84-1.63,23.24-0.15,29.11,2.35c2.5,1.06,4.54,2.31,6.42,3.58
				c3.01,2.03,5.63,4.12,9.07,5.6c0.19,0.08,0.38,0.17,0.58,0.25c11.14,4.45,18.77,0.32,18.77,0.32s3.63-4.01,6.64-11.41
				C375.82,152.35,340.93,144.11,314.77,143.92z"/>
			<path class="st27" d="M398.22,87.37c0,0-28.48-15.51-54.53-5.83c-1.35,0.5-2.69,1.05-4.02,1.69
				c-11.38,5.49-22.81,17.46-32.29,29.62c-13.05,16.75-22.38,33.87-22.75,34.97l0.03,0.05c0.14,0.19,0.71,0.94,1.88,1.95
				c6.02-4.37,16.2-5.99,28.22-5.9c26.17,0.19,61.06,8.43,80.86,13.81c5.92,1.61,10.5,2.97,13.09,3.78
				c15.27,4.77,16.55,1.59,16.55,1.59C437.36,124.92,398.22,87.37,398.22,87.37z"/>
			<path class="st25" d="M225.45,156.1c0,0-1.69-0.81-3.29-2.25c-1.58-1.43-3.08-3.49-2.76-6.02c0.64-5.09-5.73-6.36-6.68-5.09
				c-0.95,1.27-3.5,7.32-3.5,7.32s-4.14,6.05-2.23,10.82c0,0-6.68,2.23-1.27,9.55c3.5,4.74,5.93,13.2,7.21,18.58
				c2.41-6.64,7.17-17.08,13.79-19.22c0.88-0.29,1.94-0.43,3.12-0.46c4.12-0.11,9.82,1.19,15.53,2.94
				C243.33,168.87,239.42,159.17,225.45,156.1z"/>
			<path class="st25" d="M354.15,159.4c-5.87-2.5-14.27-3.98-29.11-2.35c-4.94,0.54-9.32,0.69-13.2,0.56
				c-0.35,1-0.72,1.89-1.12,2.62c-3.82,7-12.09,24.18-12.09,24.18s3.02,15.64-2.44,26.04c-2.46,4.68-6.65,8.3-13.61,8.94
				c6.23,3.98,14.45,8.83,22.29,12.31c-1.57-3.38-2.48-6.83-1.24-8.84c2.67-4.34,12.36,10.02,12.36,10.02l2.51,3.12
				c2.68,0.3,5.19-0.3,7.52-1.54c2.5-1.33,4.79-3.38,6.84-5.8c1.23-1.45,2.37-3.03,3.42-4.67c0.01-0.01,0.01-0.02,0.01-0.02
				c5.67-8.81,8.81-19.18,8.81-19.18s9.23,0,12.09-2.55c2.25-2,3.12-28.12,3.4-39.26C358.69,161.71,356.65,160.46,354.15,159.4z"/>
			<path class="st25" d="M498.7,358.47l-8.02,5.68c0,0-7.73,9.47-18.24,10.75c-1.65,0.2-3.37,0.21-5.15-0.06
				c-2.81-0.43-7.94-3.33-14.32-7.67c-0.36-0.25-0.73-0.5-1.1-0.75c-3.29-2.27-6.87-4.89-10.62-7.73
				c-7.32-5.55-15.25-11.94-22.76-18.19c-15.93-13.27-29.93-25.89-32.04-28.45c-4.68-5.68-9.02-16.7-10.02-24.05
				c-1-7.35-10.75-17.34-17.7-21.71c-1.16-0.73-2.26-1.53-3.3-2.37c-11.11-8.97-15.85-23.32-24.43-22.68
				c-5.34,0.4,2.67,13.7,2.67,13.7L318.49,236l-2.51-3.12c0,0-9.69-14.36-12.36-10.02c-1.24,2.01-0.32,5.46,1.24,8.84
				c1.82,3.92,4.52,7.76,5.77,9.2c2.34,2.67,10.69,22.71,9.69,23.05c-1,0.33-8.02-7.01-8.02-7.01s-18.2-24.38-21.54-24.38
				s-5.17,1.93-3.85,5.01c3.12,7.29,14.36,23.72,18.04,29.73c3.67,6.01,0.67,5.34,0.67,5.34s-8.35-3.01-16.37-8.68
				c-8.02-5.68-8.68-2.34-8.68-2.34c-1.67,13.36,54.78,57.79,70.48,67.47c12.63,7.79,55.74,76.98,89.69,107.56
				c3.16,2.85,6.24,5.36,9.21,7.46c4.78,3.38,9.27,5.69,13.34,6.57c33.74,7.35,64.13-21.04,64.13-21.04
				C542.79,400.23,498.7,358.47,498.7,358.47z"/>
			<path class="st25" d="M195.54,406.19c1.25-3.8,1.92-8.99,2.18-14.92l-18.39,2.42c-0.7,0.09-1.31,0.53-1.63,1.16l-7.31,14.62
				c-0.23,0.46-0.61,0.82-1.08,1.01l-5.45,2.29c-0.67,0.28-1.14,0.88-1.27,1.58l-1.9,10.43c-0.11,0.59-0.45,1.1-0.96,1.42
				l-6.94,4.39c-0.5,0.32-0.85,0.83-0.96,1.42l-1.65,8.97c-0.11,0.57-0.44,1.08-0.93,1.4l-7.01,4.59c-0.3,0.2-0.55,0.47-0.72,0.78
				l-6.98,13.16c-0.09,0.17-0.2,0.33-0.34,0.47l-7.19,7.59c-1.19,1.25-0.47,3.32,1.24,3.58l27.67,4.08
				c1.85,0.27,3.13-1.79,2.06-3.33c-0.84-1.21-0.23-2.89,1.19-3.28l5.22-1.42c0.76-0.21,1.34-0.81,1.52-1.58l2.03-8.8
				c0.15-0.64,0.59-1.18,1.19-1.46l5.06-2.32c0.51-0.23,0.91-0.66,1.11-1.19l4.12-10.9c0.25-0.65,0.8-1.15,1.48-1.32l6.16-1.54
				c0.46-0.11,0.86-0.38,1.15-0.74l5.17-6.52C193.15,421.72,193.63,412.03,195.54,406.19z"/>
			<path class="st25" d="M403.88,233.95l9.36,8.47c9.54-5.6,17.22-11.11,21.97-14.74C424.78,227.42,413.98,230.05,403.88,233.95z"/>
			<g>
				<path class="st0" d="M372.29,246.74c-2.86,2.45-5.74,4.94-8.14,7.03c0.71,0.33,1.42,0.65,2.13,0.97
					c2.17-1.55,4.7-3.29,7.53-5.12C373.34,248.61,372.85,247.63,372.29,246.74z"/>
				<path class="st0" d="M372.29,246.74c-0.6-0.96-1.27-1.82-2.07-2.5c-6.26-5.32-16.14-5.5-21.32-8.27
					c-5.79-3.1-12.24-5.8-16.06-7.31c-2.05,2.43-4.34,4.47-6.84,5.8c6.98,3.85,21.93,11.87,38.14,19.31
					C366.55,251.68,369.43,249.19,372.29,246.74z"/>
				<path class="st25" d="M459.33,281.52c-0.01-0.06-0.02-0.11-0.02-0.16c-0.4-3.2-0.87-6.19-1.39-9.04
					c-4.25,7.62-15.52,24.81-30.63,24.81c-8.59,0-14.1-0.22-17.59-0.46c3.23,10.79,4.55,21.13,6.34,26.79
					c1.82,5.75,2.41,11.81,2.47,17.03c7.51,6.25,15.44,12.64,22.76,18.19c3.75,2.84,7.33,5.46,10.62,7.73
					c0.37,0.25,0.74,0.51,1.1,0.75c0.44-2.35,0.89-4.8,1.34-7.34C458.45,336.22,462.28,305.09,459.33,281.52z"/>
				<path class="st25" d="M351.06,329.08c-2.25-1.39-5.33-3.48-8.95-6.1l6.42,21.63c0,0,13.26,0.69,14.21,7.91
					c0.95,7.21-11.39,11.77-11.39,11.77l-0.51-0.86c1.1,3.41,1.56,6.07,0.7,6.83c-3.02,2.64-13.57,4.15-13.57,3.02
					c0-0.42-0.57-3.51-1.28-7.24l0.05,0.35c0,0-3.04,5.5-11.77,3.04c-4.67-1.32-3.31-5.96-0.89-10.54
					c-0.97-5.29-4.98-23.71-9.94-36.08c-15.37-18.86-38.52-44.41-43.98-50.41c1.33,5.61,2.34,10.09,2.7,12.25
					c1.59,9.55-6.36,18.14-12.41,20.68c-6.05,2.55-11.45,18.45-20.05,20.68c-1.94,0.5-3.84,0.85-5.68,1.05
					c-0.07,7.11-0.4,17.83-1.61,24.27c-1.93,10.28,0.96,56.51,3.21,69.04c1.78,9.9,4.16,45.88,5.07,60.52l101.34-1.64l-0.84-85.08
					c0,0,33.81-12.35,43.12-9.1s9.97,93.18,9.97,93.18l-2.48,0.2l25.61-0.42l3.78-60.88C392.38,383.31,361.43,335.48,351.06,329.08z
					 M301.17,446.39c-8.23,0.22-46.16-0.43-46.16-1.3c0-0.67-3.26-21.83-3.81-37.15c-1.27-2.31-4.49-14.15-5.01-15.37
					c-0.57-1.33,0.57-24.87,4.37-26.96s67.2-8.35,67.2-8.35c2.44,2.75,5.37,29.77,1.79,42.04c2.21,10.08,7.15,33.14,6.98,36.68
					C326.31,440.53,309.4,446.17,301.17,446.39z"/>
				<path class="st25" d="M289.32,242.28c-1-1.8-1.83-3.41-2.4-4.73c-1.32-3.08,0.51-5.01,3.85-5.01s21.54,24.38,21.54,24.38
					s7.01,7.35,8.02,7.01c1-0.33-7.35-20.38-9.69-23.05c-1.26-1.43-3.95-5.27-5.77-9.2c-7.84-3.47-16.06-8.33-22.29-12.31
					c-2.13,0.2-4.5,0.12-7.18-0.29l-7.32-8.27l-3.67-4.2c-0.61,3.83-1.23,7.61-1.8,10.98c1.37,0.32,2.85,0.67,4.47,1.06
					C270.21,219.42,278.99,229.35,289.32,242.28z"/>
				<path class="st25" d="M213.85,339.12c0.17-4.32,1.46-11.7,2.61-17.6c-6.73-2.23-20.07-1.08-24.1-5.38
					c-0.89-0.94-1.92-2.31-3.05-3.98c-0.43,3.85-0.32,8.37,1.14,12.88c3.03,9.35,8.27,43.36,7.27,66.22
					c-0.26,5.93-0.94,11.12-2.18,14.92c-1.91,5.84-2.39,15.53-2.15,26.05c0.51,22.74,4.38,49.36,4.38,49.36l24.66-0.4
					C220.62,453.86,213.57,346.13,213.85,339.12z"/>
				<path class="st25" d="M373.81,249.62c-2.83,1.84-5.36,3.58-7.53,5.12c3.2,1.45,6.43,2.86,9.65,4.21
					c1.13-0.32,2.26-0.66,3.38-1.02C376.69,256.47,375.37,252.93,373.81,249.62z"/>
				<path class="st25" d="M370.22,244.23c0.8,0.68,1.47,1.55,2.07,2.5c0.56,0.9,1.05,1.88,1.52,2.88c1.55,3.32,2.87,6.85,5.5,8.32
					c12.48-3.97,24.17-9.78,33.92-15.51l-9.36-8.47l-1.71-1.55l-8.72-7.9c0,0-17.18-32.14-30.23-32.45c7,10.5,0.64,16.55-8.59,27.68
					c-5.54,6.69-13.14,5.92-18.33,4.23l-0.03,0.02c-1.05,1.64-2.19,3.22-3.42,4.67c3.82,1.51,10.27,4.21,16.06,7.31
					C354.08,238.73,363.96,238.91,370.22,244.23z"/>
				<path class="st25" d="M445.96,233.28c0,0-0.92,0.44-2.49,1.21c-9.7,4.73-44.39,21.99-42.98,26.21
					c1.63,4.9,11.03,10.62,11.03,10.62l41.14-19.07l2.27-1.05L445.96,233.28z"/>
				<path class="st25" d="M455.42,258.99l-0.53,0.18c-0.71-2.48-1.46-4.79-2.23-6.91l-41.14,19.07c0,0-9.4-5.72-11.03-10.62
					c-1.41-4.22,33.28-21.48,42.98-26.21c-3.74-5.02-6.6-6.74-6.6-6.74c-0.55-0.03-1.11-0.05-1.67-0.07
					c-4.75,3.63-12.43,9.14-21.97,14.74c-9.75,5.73-21.44,11.54-33.92,15.51c-1.12,0.36-2.25,0.69-3.38,1.02
					c2.03,0.85,4.05,1.68,6.06,2.47c9.73,3.83,16.3,10.8,20.91,18.85c2.98,5.21,5.14,10.87,6.8,16.41c3.49,0.24,9,0.46,17.59,0.46
					c15.11,0,26.38-17.19,30.63-24.81c1.21-2.17,1.86-3.57,1.86-3.57L455.42,258.99z"/>
				<path class="st25" d="M416.04,323.46c-1.79-5.66-3.11-15.99-6.34-26.79c-1.66-5.54-3.81-11.2-6.8-16.41
					c-4.61-8.04-11.18-15.02-20.91-18.85c-2.01-0.79-4.03-1.62-6.06-2.47c-3.22-1.35-6.46-2.77-9.65-4.21
					c-0.71-0.32-1.42-0.65-2.13-0.97c-16.22-7.44-31.16-15.46-38.14-19.31c-2.32,1.24-4.83,1.85-7.52,1.54l15.2,18.93
					c0,0-8.01-13.3-2.67-13.7c8.58-0.64,13.32,13.71,24.43,22.68c1.04,0.84,2.13,1.64,3.3,2.37c6.96,4.37,16.7,14.36,17.7,21.71
					c1,7.35,5.34,18.37,10.02,24.05c2.11,2.56,16.11,15.18,32.04,28.45C418.45,335.27,417.86,329.21,416.04,323.46z"/>
				<polygon class="st25" points="336.74,351.19 340.15,370.55 350.02,368.65 341.48,349.67 				"/>
				<path class="st25" d="M362.74,352.52c-0.95-7.21-14.21-7.91-14.21-7.91l-5.39,0.58c0.16,0.33,0.33,0.68,0.51,1.05
					c2.22,4.64,5.49,11.83,7.21,17.18l0.51,0.86C351.35,364.29,363.69,359.73,362.74,352.52z"/>
				<path class="st25" d="M350.85,363.42c-1.72-5.35-4.99-12.54-7.21-17.18c-0.18-0.37-0.34-0.72-0.51-1.05
					c-1.05-2.19-1.77-3.6-1.77-3.6l-8.67,0.38l0.32,2.69l0.31,2.58l0.5,4.16c0,0,1.65,8.25,2.87,14.63
					c0.71,3.73,1.28,6.83,1.28,7.24c0,1.13,10.56-0.38,13.57-3.02C352.41,369.5,351.94,366.84,350.85,363.42z M340.15,370.55
					l-3.42-19.36l4.75-1.52l8.54,18.98L340.15,370.55z"/>
				<path class="st25" d="M315.67,405.1c-4.68,1.79-63.21,3.61-64.16,3.23c-0.08-0.03-0.19-0.17-0.3-0.39
					c0.55,15.32,3.81,36.48,3.81,37.15c0,0.87,37.92,1.52,46.16,1.3c8.23-0.22,25.14-5.85,25.35-10.4
					c0.17-3.54-4.77-26.6-6.98-36.68C318.67,402.3,317.42,404.43,315.67,405.1z"/>
				<path class="st25" d="M317.75,357.26c0,0-63.4,6.26-67.2,8.35s-4.94,25.63-4.37,26.96c0.52,1.21,3.74,13.05,5.01,15.37
					c0.12,0.22,0.22,0.36,0.3,0.39c0.95,0.38,59.48-1.43,64.16-3.23c1.75-0.67,3.01-2.8,3.88-5.8
					C323.12,387.03,320.19,360.01,317.75,357.26z"/>
				<path class="st25" d="M421.91,417.14l-3.78,60.88l3.9-0.06l4.02-56.16C424.68,420.28,423.3,418.72,421.91,417.14z"/>
				<path class="st25" d="M272.86,284.64c-0.36-2.17-1.37-6.64-2.7-12.25c-3.1-13.04-7.98-32.25-10.76-43.11l-8.97-5.41l-8.75-5.28
					l-1.28-0.77c-14.71-9.53-29.41-3.45-34.93-3.3c-1.12,4.54-3.02,11.67-3.88,11.89c-1.27,0.32-15.59,7.32-14.95,14.32
					c0.64,7-1.27,10.18-4.77,12.09c-3.5,1.91-11.14,16.23-7.32,28.64c3.11,10.11,9.81,23.38,14.76,30.71
					c1.13,1.67,2.17,3.03,3.05,3.98c4.03,4.3,17.38,3.15,24.1,5.38c1.24,0.41,2.25,0.93,2.94,1.62c3.45,3.45,9,4.6,15.32,3.91
					c1.84-0.2,3.74-0.55,5.68-1.05c8.59-2.23,14-18.14,20.05-20.68C266.49,302.78,274.45,294.19,272.86,284.64z"/>
				<path class="st25" d="M331,346.45c-1.37-0.73-2.4-1.91-2.83-3.73c-0.69-2.86-6.4-10.57-14.03-19.93
					c4.96,12.37,8.97,30.79,9.94,36.08c2.1-3.98,5-7.91,5.44-9.58C329.83,348.14,330.38,347.2,331,346.45z"/>
				<path class="st25" d="M336.69,366.02c-1.22-6.38-2.87-14.63-2.87-14.63l-0.5-4.16c-0.5-0.1-0.98-0.23-1.44-0.39
					c-0.31-0.11-0.61-0.24-0.89-0.39c-0.62,0.75-1.17,1.68-1.48,2.84c-0.44,1.68-3.34,5.61-5.44,9.58
					c-2.42,4.58-3.79,9.22,0.89,10.54c8.73,2.47,11.77-3.04,11.77-3.04L336.69,366.02z"/>
				<g>
					<path class="st25" d="M316.16,302.63c-18.54-15.64-36.54-33.39-35.59-41.02c0,0,0.67-3.34,8.68,2.34
						c8.02,5.68,16.37,8.68,16.37,8.68s3.01,0.67-0.67-5.34c-3.01-4.93-11.1-16.85-15.64-25c-10.33-12.93-19.11-22.86-22.24-23.61
						c-1.62-0.39-3.1-0.74-4.47-1.06c-1.2,7.07-2.16,12.31-2.16,12.31l-1.05-0.64c2.78,10.86,7.67,30.07,10.76,43.11
						c4.99,5.48,24.73,27.26,39.82,45.37C309.46,311.3,310.35,304.37,316.16,302.63z"/>
					<path class="st25" d="M342.1,322.98c-7.24-5.23-16.66-12.52-25.94-20.35c-5.81,1.74-6.7,8.67-6.18,15.13
						c1.43,1.72,2.83,3.4,4.16,5.04c7.63,9.36,13.34,17.07,14.03,19.93c0.44,1.82,1.46,3,2.83,3.73c0.28,0.15,0.58,0.28,0.89,0.39
						c0.45,0.17,0.93,0.3,1.44,0.39l-0.31-2.58l-0.32-2.69l8.67-0.38c0,0,0.72,1.41,1.77,3.6l5.39-0.58L342.1,322.98z"/>
				</g>
				<path class="st25" d="M315.47,334.38c0,0-63.75,0.82-65.81,4.94c-2.06,4.11-2.47,21.8-2.47,21.8"/>
				<g>
					<path class="st25" d="M222.42,481.2l18.98-0.31c-0.39-6.28-1.06-16.49-1.83-26.89c-6.4,0.46-14.05,0.69-18.88,0.8
						C221.43,466.05,222.04,475.42,222.42,481.2z"/>
					<path class="st25" d="M232.5,366.2c-0.08-6.67,0.09-12.09,0.61-14.87c0.6-3.21,0.98-7.47,1.22-11.83
						c-10.2,1.62-16.7,1.31-20.49,0.68c0.05,3.38,0.52,12.56,1.23,24.8C220.26,365.85,227.32,366.84,232.5,366.2z"/>
					<path class="st25" d="M234.34,339.5c0.24-4.39,0.34-8.87,0.38-12.44c-6.32,0.69-11.87-0.47-15.32-3.91
						c-0.69-0.69-1.7-1.21-2.94-1.62c-1.15,5.9-2.44,13.29-2.61,17.6c-0.01,0.24-0.01,0.6,0,1.06
						C217.64,340.81,224.14,341.12,234.34,339.5z"/>
					<path class="st25" d="M219.26,432.48c0.51,7.89,1,15.45,1.44,22.32c4.83-0.11,12.47-0.34,18.88-0.8
						c-0.7-9.41-1.48-18.96-2.23-25.89C232.4,431.22,225.44,432.26,219.26,432.48z"/>
					<path class="st25" d="M233.83,395.92c-0.7-9.98-1.23-20.93-1.33-29.72c-5.18,0.64-12.24-0.35-17.43-1.21
						c0.53,9.22,1.2,20.16,1.91,31.66C222.1,396.83,228.66,396.78,233.83,395.92z"/>
					<path class="st25" d="M236.33,420.36c-0.84-4.67-1.76-14.02-2.5-24.45c-5.16,0.86-11.73,0.91-16.84,0.74
						c0.73,11.79,1.52,24.15,2.27,35.83c6.18-0.22,13.14-1.26,18.09-4.37C236.99,424.86,236.65,422.17,236.33,420.36z"/>
				</g>
			</g>
			<polygon class="st25" points="581.98,298.03 557.8,317.76 571.8,350.84 602.34,366.11 625.88,348.3 594.7,334.94 			"/>
			<circle class="st25" cx="583.7" cy="341.64" r="10.4"/>
			<ellipse class="st28" cx="281.54" cy="198.73" rx="13.95" ry="17.42"/>
			<g>
				<path class="st25" d="M267.13,180.6c0,0-10.89-4.99-21.76-8.33c-5.71-1.76-11.4-3.05-15.53-2.94c-1.18,0.03-2.24,0.17-3.12,0.46
					c-2.22,0.71-4.22,2.37-6,4.49c13.83,2.05,44.02,11.15,44.02,11.15l-7.38,16.61c-1.48-7.38-44.43-13.04-44.43-13.04
					c-1.18,3.25-1.81,5.6-1.81,5.6s-10.18,16.55-7.64,19.41c0.37,0.41,1.05,0.55,1.98,0.52c5.53-0.15,20.23-6.24,34.93,3.3
					l1.28,0.77l17.72,10.69l1.05,0.64c0,0,2.09-11.41,3.97-23.29c0.62-3.93,1.22-7.91,1.71-11.54
					C267.1,187.84,267.66,181.97,267.13,180.6z"/>
				<path class="st25" d="M257.36,202.04l7.38-16.61c0,0-30.19-9.11-44.02-11.15c-3.54,4.22-6.18,10.31-7.79,14.72
					C212.94,189,255.89,194.65,257.36,202.04z"/>
			</g>
			<path class="st25" d="M385.03,385.06c-9.32-3.25-43.12,9.1-43.12,9.1l0.19,19.45c12.73-1.51,38.63-7.23,48.86-9.55
				C389.54,393.56,387.62,385.96,385.03,385.06z"/>
			<g>
				<path class="st25" d="M358.25,410.96v68.03l19.37-0.31l-6.99-70.19C366.54,409.34,362.31,410.19,358.25,410.96z"/>
				<path class="st25" d="M342.1,413.61l0.65,65.64l15.51-0.25v-68.03C352.11,412.12,346.37,413.1,342.1,413.61z"/>
				<path class="st25" d="M395,478.24c0,0-0.34-46.9-4.04-74.18c-4.54,1.03-12.15,2.73-20.33,4.43l6.99,70.19l14.9-0.24L395,478.24z
					"/>
			</g>
		</g>
		<g>
			<path class="st27" d="M265.8,180c0.85,0.37,1.33,0.59,1.33,0.59c0.53,1.37-0.03,7.24-1.01,14.49c-0.49,3.64-1.09,7.61-1.71,11.54
				l3.67,4.2l7.32,8.27c2.67,0.41,5.05,0.49,7.18,0.29c6.96-0.64,11.15-4.25,13.61-8.94c5.46-10.39,2.44-26.04,2.44-26.04
				s0.41-0.85,1.09-2.25C293.44,176.07,280.44,167.36,265.8,180z"/>
			<g>
				<path class="st27" d="M294.86,154.55c-4.09-1.55-6.75-3.37-8.32-4.73c-1.17-1.01-1.75-1.76-1.88-1.95l-0.03-0.05
					c0,0,1.91-19.41,6.68-27.36s7.64-18.77-9.55-23.55c-17.18-4.77-28.32,0-28.32,0s0.63-0.81,1.81-2.11
					c-11.18,8.14-17.72,23.11-17.72,23.11s2.86-2.44,4.38,6.18c1.2,6.81-3.28,28.3-5.23,37.05c5.22,3.99,7.35,8.9,8.68,11.12
					c8.61,2.65,17.21,6.32,20.43,7.74c14.64-12.64,27.63-3.93,33.92,2.16c2.37-4.89,8.03-16.49,11-21.93
					c0.4-0.73,0.77-1.62,1.12-2.62C304.48,157.37,298.95,156.1,294.86,154.55z"/>
				<path class="st28" d="M241.92,124.09c-1.52-8.62-4.38-6.18-4.38-6.18s-11.14,13.05-13.68,20.36c-1.54,4.43-1.68,10.84-1.7,15.57
					c1.6,1.45,3.29,2.25,3.29,2.25c4.84,1.07,8.47,2.93,11.24,5.05C238.63,152.39,243.12,130.9,241.92,124.09z"/>
			</g>
		</g>
		<g>
			<path class="st25" d="M343.94,220.76c7.34-1.18,15.76-19.53,19.44-28.46c-0.05-0.08-0.1-0.17-0.16-0.25l6.42-23.47
				c-3.44-1.48-6.06-3.57-9.07-5.6c-0.27,11.13-1.15,37.26-3.4,39.26c-2.86,2.55-12.09,2.55-12.09,2.55s-2.48,8.18-7,16.18
				C339.73,221.14,341.67,221.12,343.94,220.76z"/>
			<path class="st25" d="M343.94,220.76c-2.27,0.37-4.21,0.38-5.85,0.2c-0.57,1.01-1.17,2.01-1.81,3c0.01,0,0.01,0,0.02,0.01
				c5.19,1.68,12.79,2.45,18.33-4.23c9.15-11.05,15.48-17.09,8.75-27.43C359.7,201.22,351.28,219.57,343.94,220.76z"/>
		</g>
		<path class="st27" d="M269.58,106.86c0,0-16.32,36.71-5.65,65.89"/>
		<path class="st27" d="M237.54,117.92c0,0-3.1,35.7-7.18,36.01c0,0-4.11,0.95-3.96-0.84c0.15-1.79,0.6-21.16,0.6-21.16"/>
		<path class="st27" d="M209.22,150.05c0,0-0.41,6.17,1.83,8.1c2.24,1.94,5.96,4.62,5.96,4.62"/>
		<path class="st27" d="M206.99,160.87c0,0,2.71,9.06,4.65,10.7"/>
		<path class="st27" d="M340.26,216.73c0,0-10.58,1.94-18.18-7"/>
		<path class="st27" d="M498.7,358.47c0,0-3.58-4.48-6.56-1.8c-2.98,2.68-1.46,7.47-1.46,7.47L498.7,358.47z"/>
		<line class="st27" x1="494.22" y1="355.49" x2="540.87" y2="312.86"/>
		<path class="st27" d="M518.81,312.64c0,0-2.83,11.55-9.38,12.89"/>
		<path class="st27" d="M527.4,276.37c0.06-0.77,4.53-12.69,4.53-12.69s-9.39,15.35-12.07,15.2s-14.46-17.74-14.46-17.74
			l35.32-16.84"/>
		<path class="st27" d="M548.08,247.73c0,0,10.38,5.21,17.53,3.57"/>
		<path class="st27" d="M526.77,202.55c0,0,9.49,1.81,10.23,4.64"/>
		<path class="st27" d="M534.17,221.65c0.89-0.15,10.13,8.94,18.63-2.09"/>
		<path class="st27" d="M603.32,213.3c0,0,12.97-1.79,12.67,5.66c-0.3,7.45-14.76,7-14.76,7"/>
		<polygon class="st5" points="590.36,334.92 587.19,341.3 592.28,346.28 585.24,345.24 582.07,351.62 580.88,344.6 573.84,343.56 
			580.15,340.26 578.96,333.24 584.05,338.22 		"/>
		<polygon class="st8" points="579.18,304.96 575,307.94 582.31,328.06 586.18,325.98 		"/>
		<polygon class="st8" points="572.77,309.58 568.6,312.56 576.05,330.6 579.48,328.81 		"/>
		<polygon class="st8" points="566.36,314.95 562.19,317.93 569.49,338.05 572.92,334.47 		"/>
		<polygon class="st8" points="619.12,349.67 599.45,342.22 597.81,344.91 616.14,352.66 		"/>
		<polygon class="st8" points="613.46,354.89 596.17,347.74 594.53,350.42 611.22,356.68 		"/>
		<polygon class="st8" points="608.84,359.06 591.55,351.91 589.91,354.59 606.6,360.85 		"/>
		<path class="st27" d="M470.31,355.13c0,0,3.95-37.94,12.46-53.9c8.51-15.96,3.55-18.09,3.55-18.09"/>
		<path class="st27" d="M527.42,429.62l1.45,2.13c0,0,101.08-65.97,103.56-76.96"/>
		<path class="st27" d="M489.51,297.34c-4.34,9-6.01,19.07-1.42,21.28c4.59,2.21,10.56-8.38,14.9-17.38
			c4.34-9,7.43-21.91,2.84-24.12C501.23,274.91,493.84,288.34,489.51,297.34z"/>
		<path class="st27" d="M455.42,258.99c0,0-21.69,22.52-41.02,25.75"/>
		<path class="st27" d="M263.19,214.22c0,0-10.81-19.24-47.17-14.64"/>
		<line class="st27" x1="280.58" y1="261.61" x2="261.47" y2="239.3"/>
		<path class="st27" d="M289.32,242.28c0,0-25.64-11.09-28.59-10.6"/>
		<path class="st27" d="M304.49,310.35c0,0-37.37,1.72-48.93,6.39l-7.38,3.44"/>
		<line class="st27" x1="315.06" y1="443.36" x2="315.56" y2="484.67"/>
		<circle class="st7" cx="336.07" cy="180.3" r="2.45"/>
		<circle class="st7" cx="564.18" cy="189.62" r="2.45"/>
		<path class="st7" d="M537.05,180.5c0.69-1.4,1.55-2.7,2.44-4.05c-0.45-0.46-1.07-0.75-1.76-0.75c-1.35,0-2.45,1.1-2.45,2.45
			C535.27,179.28,536.02,180.21,537.05,180.5z"/>
		<path class="st25" d="M361.59,252.71c0,0,28.05,11.59,36.74,33.32c8.69,21.73,13.58,48.35,13.58,48.35"/>
		
			<ellipse transform="matrix(0.7461 -0.6658 0.6658 0.7461 -112.3243 256.8795)" class="st25" cx="280.7" cy="275.74" rx="2.56" ry="3.42"/>
		<path class="st7" d="M360.57,162.98c0,0-17.5,13.11-28.14,9.31l6.46-9.12c0,0-33.43,15.19-37.23,14.81l10.18-20.37
			c0,0,21.35-3.18,36.93-0.14C364.34,160.51,360.57,162.98,360.57,162.98z"/>
	</g>
</g>
</svg>
