<?xml version="1.0" encoding="utf-8"?>
<!-- Generator: Adobe Illustrator 23.0.6, SVG Export Plug-In . SVG Version: 6.00 Build 0)  -->
<svg version="1.1" id="Layer_1" xmlns="http://www.w3.org/2000/svg" xmlns:xlink="http://www.w3.org/1999/xlink" x="0px" y="0px"
	 viewBox="0 0 547.09 467.72" style="enable-background:new 0 0 547.09 467.72;" xml:space="preserve">
<style type="text/css">
	.st0{fill:#FFFFFF;}
	.st1{fill:#D6987D;}
	.st2{fill:none;}
	.st3{fill:#DCEFFA;}
	.st4{fill:#BD8463;}
	.st5{fill:#61A575;}
	.st6{fill:#4890BA;}
	.st7{fill:none;stroke:#54575C;stroke-width:1.3633;stroke-miterlimit:10;}
	.st8{fill:#54575C;}
	.st9{fill:#54575C;stroke:#54575C;stroke-width:2.5434;stroke-miterlimit:10;}
	.st10{fill:none;stroke:#54575C;stroke-width:1.3633;stroke-linejoin:round;stroke-miterlimit:10;}
	.st11{fill:#E0635D;}
	.st12{fill:#F4F4F5;}
	.st13{fill:#C56F5C;}
	.st14{clip-path:url(#SVGID_2_);fill:#F5C65D;}
	.st15{clip-path:url(#SVGID_4_);fill:#F5C65D;}
	.st16{fill:#EBA367;}
	.st17{fill:#54575C;stroke:#FFFFFF;stroke-width:0.6817;stroke-miterlimit:10;}
	.st18{fill:none;stroke:#54575C;stroke-width:1.0856;stroke-miterlimit:10;}
	.st19{fill:#54575C;stroke:#FFFFFF;stroke-width:1.0225;stroke-miterlimit:10;}
</style>
<path class="st0" d="M230.34,276.18c0,0-2.06-13.7-8.22-14.61c-6.16-0.91-3.39,12.69-3.39,12.69s4.14,4.4-31.78,17.85
	c-3.82,1.43,3.07,7.24,7.28,6.84c11.23-1.08,35.43-5.86,35.43-5.86l-4.58-12.58L230.34,276.18z"/>
<path class="st1" d="M234.75,276.47c0,0-2.06-13.7-8.22-14.61c-6.16-0.91-3.39,12.69-3.39,12.69s4.14,4.4-31.78,17.85
	c-3.82,1.43,3.07,7.24,7.28,6.84c11.23-1.08,35.43-5.86,35.43-5.86l-4.58-12.58L234.75,276.47z"/>
<g>
	<ellipse class="st0" cx="332.52" cy="141.42" rx="1.77" ry="1.55"/>
	<ellipse class="st0" cx="310.81" cy="140.37" rx="1.77" ry="1.55"/>
	
		<ellipse transform="matrix(0.7071 -0.7071 0.7071 0.7071 -54.6668 369.5793)" class="st0" cx="418.79" cy="250.78" rx="1.88" ry="1.7"/>
	<ellipse class="st0" cx="412.55" cy="329.7" rx="2.41" ry="2.13"/>
	<ellipse class="st0" cx="406.66" cy="340.5" rx="2.41" ry="2.13"/>
	<path class="st0" d="M316.72,189.94c0,0,0.35,0.1,0.95,0.27c4.36,1.2,22.54,5.9,26.87,2.22
		C340.2,196.1,321.07,191.14,316.72,189.94z"/>
	<path class="st0" d="M316.72,189.94c4.36,1.2,23.49,6.16,27.83,2.49c0.15-0.57,0.3-1.12,0.45-1.66c0.1-0.35,0.19-0.68,0.27-1.02
		c0.1-0.35,0.19-0.71,0.29-1.05c0.12-0.45,0.25-0.87,0.35-1.3c0.08-0.3,0.16-0.59,0.25-0.86c0.08-0.27,0.15-0.55,0.22-0.79
		c0.12-0.44,0.23-0.85,0.34-1.24c0.04-0.16,0.1-0.33,0.14-0.48c0.12-0.42,0.23-0.83,0.34-1.2l-0.4-0.07l1.85-15.13
		c-0.34-0.91-0.55-1.66-0.55-1.66s0.41-0.83,1.01-2.11c0,0,6.19-14.6,4.66-16.43c-2.18-2.62-24.21-15.27-26.61-25.74
		c0,0-10.03,15.49-15.27,16.36c-0.46,0.08-0.95-0.07-1.46-0.37l0.59,12.15c0,0-13.52,8.51,2.4,8.51c0,0-3.49,13.09,7.2,15.49
		l-1.06,4.38c0.1,0.01,0.18,0.03,0.18,0.03L316.72,189.94z"/>
	<path class="st0" d="M316.72,189.94l2.85-11.74c-2.04-0.34-23.75-3.78-31.22,2.82c-9.38,8.29-9.16,55.19-9.16,55.19l-54.1,44.28
		l4.58,12.58c0,0,35.95,2.09,47.46-5.37c-0.37-0.89-0.59-1.42-0.59-1.42L316.72,189.94z"/>
	<path class="st0" d="M319.74,178.23c0,0-0.07-0.01-0.18-0.03l-2.85,11.74L319.74,178.23z"/>
	<path class="st0" d="M317.68,190.2c-0.6-0.16-0.95-0.27-0.95-0.27l-40.19,96.33c0,0,0.22,0.53,0.59,1.42
		c0.26,0.63,0.61,1.45,1.02,2.39c3.08,7.13,9.91,21.91,14.08,23.16c3.93,1.17,21.72-5.63,31.6-9.62c0.27-0.63,0.65-1.21,1.17-1.76
		c0.29-0.3,0.59-0.79,0.89-1.43c4.2-8.78,10.29-47.54,8.06-55.06c-1.43-4.83,3.83-27.12,8.3-44.25c0.23-0.9,0.46-1.79,0.7-2.64
		c0.08-0.33,0.16-0.63,0.25-0.95c0.14-0.52,0.27-1.02,0.41-1.53c0.1-0.38,0.2-0.76,0.3-1.13c0.11-0.42,0.22-0.82,0.33-1.23
		c0.11-0.4,0.22-0.79,0.31-1.19c0,0,0,0,0-0.01C340.2,196.1,322.03,191.4,317.68,190.2z"/>
	<path class="st0" d="M355.19,306.31c-1.83,0.45-7.99-12.32-7.99-12.32c-5.32-0.44-10.93,3.97-15.36,8.71
		c-3.42,3.65-6.15,7.53-7.47,9.53c0.44,1.12,0.85,1.85,0.85,1.85s11.56,6.46,20.25,6.39c1.54-2.93,3.59-5.79,5.41-8.19
		C353.65,308.64,355.94,306.12,355.19,306.31z"/>
	<path class="st0" d="M507.76,224.43c0,0-19.75-11.96-27.03,5.19c0,0,0.34-12.31-13.17-11.44c0,0-4.85-15.6-21.49-10.57
		c0,0-15.42-8.83-20.97,4.34c0,0-6.07,3.3-3.46,6.58c0,0-9.86,5.86-4.92,17.82c2.18-3.67,3.54-6.56,3.54-6.56
		c0.7,6.76,8.67,3.64,8.67,3.64c-2.77,10.57,14.21,9.01,14.21,9.01c-4.68,6.58-0.87,13.86-0.87,13.86
		c2.77,4.34,10.4,4.16,16.11,2.09c5.71-2.09,9.35,6.58,8.49,13.17c-0.87,6.58-8.49,6.41-8.49,6.41s-1.08,3.94-2.07,7.36
		c3.6,2.88,7.58,5.25,8.82,3.2c0,0-6.07-4.85,0.18-7.28c0,0,2.77,11.78,10.22,4.5c7.46-7.28,1.55-17.85,1.55-17.85
		s18.36,5.19,11.26-9.01c0,0,7.98,2.94,10.92,0.52C502.21,257.01,529.07,241.24,507.76,224.43z"/>
	<path class="st0" d="M355.19,306.31c-1.83,0.45-7.99-12.32-7.99-12.32c-5.32-0.44-10.93,3.97-15.36,8.71
		c-3.42,3.65-6.15,7.53-7.47,9.53c0.44,1.12,0.85,1.85,0.85,1.85s11.56,6.46,20.25,6.39c1.54-2.93,3.59-5.79,5.41-8.19
		C353.65,308.64,355.94,306.12,355.19,306.31z"/>
	<path class="st0" d="M406.73,260.47c0,0-6.58,0.34-10.4-0.87c-0.65-0.2-1.21-0.57-1.65-1.02c0.53,9.52,0.91,17.38,1.42,21.46
		c0.5,4.09-0.78,7.83-2.97,11.11c7.95-0.05,17.35,0.72,19.36,0.9c0.67-3.22,1.16-5.41,1.16-5.41
		C398.75,280.41,406.73,260.47,406.73,260.47z"/>
	<path class="st0" d="M312.74,403.79c-0.34-4.1-2.07-24.73-3.75-42.36c-2.45-1.28-4.73-2.25-6.78-3c0.11,0.37,0.19,0.75,0.26,1.15
		l5.55,46.18c0.98,0.07,1.95,0.15,2.9,0.23C311.43,405.31,312.03,404.56,312.74,403.79z"/>
	<polygon class="st0" points="277.05,348.2 291.24,350.55 291.3,350.32 	"/>
	<path class="st0" d="M308.99,361.43c1.68,17.63,3.41,38.25,3.75,42.36c4.53-4.92,13.66-10.84,31.49-8.04l8-5.67
		c-8.44-3.82-26.18-18.66-39.86-26.78C311.21,362.6,310.1,362,308.99,361.43z"/>
	<path class="st0" d="M266.74,316.4c0,0,26.45,7.87,32.42,1.25c0,0-0.07,2.11-0.22,5.26l4.31-0.23
		c19.52,23.93,49.24,25.19,49.24,25.19l5.22-10.25c0,0-0.65-19.41-9.38-17.45c-0.9,0.2-1.88,0.27-2.88,0.29
		c-8.68,0.07-20.25-6.39-20.25-6.39s-0.4-0.72-0.85-1.85c-0.83-2.13-1.83-5.71-0.55-8.6c-9.87,3.99-27.68,10.8-31.6,9.62
		c-4.17-1.25-11-16.03-14.08-23.16c-4.51,2.52-12.2,25.82-20.27,54.95l14.85,2.45L266.74,316.4z"/>
	<path class="st0" d="M302.19,358.41c0.11,0.38,0.23,0.76,0.29,1.16c-0.05-0.4-0.15-0.78-0.26-1.15
		C302.2,358.43,302.2,358.43,302.19,358.41z"/>
	<path class="st0" d="M396.11,280.04c-0.5-4.06-0.89-11.94-1.42-21.46c-1.13-1.17-1.42-2.96-0.26-4.43
		c-1.62-27.53-4.72-65.15-15.04-67.61c-14.61-3.49-31.51-6.19-31.51-6.19s-0.26,0.89-0.7,2.47c-4.92,17.49-10.09,35.3-12.83,53.29
		c-0.42,2.82-1.27,6.42-0.44,9.24c2.24,7.53-3.86,46.28-8.06,55.06c-0.3,0.64-0.6,1.13-0.89,1.43c-0.52,0.55-0.9,1.13-1.17,1.76
		c-1.28,2.9-0.29,6.48,0.55,8.6c1.34-2,4.05-5.86,7.47-9.53c4.43-4.74,10.06-9.15,15.36-8.71c0,0,6.16,12.79,7.99,12.32
		c0.75-0.19-1.54,2.33-4.34,5.97c-1.84,2.4-3.87,5.26-5.41,8.19c1.01-0.01,1.98-0.08,2.88-0.29c8.73-1.96,9.38,17.45,9.38,17.45
		l6.23-11.77c3.57-6.84,7.42-14.14,10.62-20.14c3.52-6.6,6.27-11.62,7.05-12.67c1.02-1.4,5.92-1.87,11.53-1.91
		C395.32,287.86,396.61,284.14,396.11,280.04z"/>
	<path class="st0" d="M458.37,258.17c-5.71,2.09-13.35,2.25-16.11-2.09c0,0-3.82-7.28,0.87-13.86c0,0-16.99,1.55-14.21-9.01
		c0,0-7.98,3.12-8.67-3.64c0,0-1.36,2.89-3.54,6.56c-3.74,6.31-9.88,14.96-15.69,15.28c-3.52,0.2-5.58,1.24-6.58,2.52
		c-1.16,1.49-0.87,3.27,0.26,4.43c0.44,0.45,1,0.82,1.65,1.02c3.82,1.21,10.4,0.87,10.4,0.87s-7.98,19.93,6.93,26.16
		c0,0-0.5,2.19-1.16,5.41c-1.79,8.64-4.74,24.74-2.48,26.13c2.97,1.81,33.88-13.66,43.39-26.01c0.49-0.64,0.94-1.27,1.31-1.88
		c0.22-0.35,0.87-2.52,1.57-4.94c1-3.44,2.07-7.36,2.07-7.36s7.62,0.18,8.49-6.41C467.72,264.76,464.08,256.09,458.37,258.17z"/>
	<polygon class="st0" points="277.05,348.2 277.05,348.2 291.24,350.55 291.24,350.55 	"/>
	<polygon class="st0" points="272.7,347.48 272.7,347.48 257.87,345.04 257.87,345.04 	"/>
	<path class="st0" d="M352.5,347.88c0,0-29.72-1.27-49.24-25.19l-4.31,0.23c-0.4,8.44-1.32,24.44-2.93,28.11l-4.73-0.71l-0.05,0.23
		l0.86,0.14c0.57,0,1.13,0.07,1.69,0.15c0.18,0.03,0.34,0.07,0.52,0.11c0.38,0.08,0.76,0.19,1.13,0.31
		c0.18,0.05,0.35,0.11,0.53,0.18c0.45,0.18,0.89,0.4,1.31,0.63c0.25,0.14,0.48,0.3,0.71,0.46c0.18,0.12,0.37,0.25,0.53,0.38
		c0.26,0.2,0.52,0.41,0.75,0.64c0.08,0.08,0.16,0.16,0.25,0.26c0.56,0.56,1.05,1.17,1.47,1.84l0,0l0,0c0.16,0.26,0.31,0.53,0.45,0.8
		c0.18,0.35,0.35,0.72,0.49,1.09c0.05,0.15,0.11,0.31,0.15,0.48c0.04,0.14,0.1,0.27,0.14,0.41c2.04,0.75,4.31,1.72,6.78,3
		c1.1,0.57,2.22,1.17,3.39,1.87c13.67,8.11,31.42,22.96,39.86,26.78l7.53-5.33C378.93,368.01,352.5,347.88,352.5,347.88z"/>
	<path class="st0" d="M302.08,358.02c0.04,0.12,0.07,0.27,0.1,0.4c0.01,0,0.03,0.01,0.04,0.01
		C302.18,358.29,302.14,358.16,302.08,358.02z"/>
	<path class="st0" d="M293.79,350.85c-0.55-0.1-1.1-0.15-1.69-0.15C292.67,350.68,293.23,350.75,293.79,350.85z"/>
	<path class="st0" d="M301.93,357.54c-0.15-0.38-0.31-0.74-0.49-1.09C301.62,356.81,301.79,357.17,301.93,357.54z"/>
	<path class="st0" d="M299.26,353.55c0.08,0.08,0.16,0.18,0.25,0.26C299.44,353.72,299.35,353.63,299.26,353.55z"/>
	<path class="st0" d="M297.27,352.06c-0.42-0.25-0.86-0.45-1.31-0.63C296.41,351.61,296.85,351.83,297.27,352.06z"/>
	<path class="st0" d="M298.51,352.91c-0.18-0.14-0.35-0.26-0.53-0.38C298.15,352.65,298.33,352.77,298.51,352.91z"/>
	<path class="st0" d="M295.43,351.26c-0.37-0.12-0.74-0.23-1.13-0.31C294.68,351.03,295.06,351.13,295.43,351.26z"/>
	<path class="st0" d="M302.08,358.02c-0.05-0.16-0.1-0.31-0.15-0.48C301.99,357.71,302.04,357.86,302.08,358.02z"/>
	<path class="st0" d="M301.44,356.45c-0.14-0.27-0.29-0.55-0.45-0.8C301.15,355.91,301.3,356.18,301.44,356.45z"/>
	<path class="st0" d="M294.3,350.94c-0.18-0.04-0.34-0.07-0.52-0.11C293.96,350.88,294.13,350.9,294.3,350.94z"/>
	<path class="st0" d="M298.51,352.91c0.26,0.2,0.52,0.41,0.75,0.64C299.03,353.33,298.77,353.11,298.51,352.91z"/>
	<path class="st0" d="M300.99,355.65c-0.42-0.67-0.91-1.28-1.47-1.84C300.06,354.37,300.57,354.98,300.99,355.65z"/>
	<path class="st0" d="M297.98,352.53c-0.23-0.16-0.46-0.33-0.71-0.46C297.51,352.21,297.75,352.36,297.98,352.53z"/>
	<path class="st0" d="M295.96,351.43c-0.18-0.07-0.35-0.12-0.53-0.18C295.6,351.31,295.78,351.37,295.96,351.43z"/>
	<polygon class="st0" points="291.24,350.55 291.24,350.55 292.1,350.68 	"/>
	<polygon class="st0" points="272.7,347.48 272.7,347.48 277.05,348.2 277.05,348.2 	"/>
	<polygon class="st0" points="272.71,347.56 277.05,348.2 272.7,347.48 	"/>
	<path class="st0" d="M266.74,316.4l5.97,31.1l4.35,0.72l14.25,2.11l4.73,0.71c1.61-3.67,2.54-19.66,2.93-28.11
		c0.15-3.16,0.22-5.26,0.22-5.26C293.18,324.26,266.74,316.4,266.74,316.4z"/>
	<path class="st0" d="M308.71,409.46c0.23-0.19,0.89-1.6,2.24-3.46c-0.97-0.08-1.94-0.16-2.9-0.23l0.5,4.14
		C308.57,409.69,308.62,409.51,308.71,409.46z"/>
	<path class="st0" d="M310.64,427.43c-0.03-0.07-0.05-0.12-0.07-0.19c-0.86-4.29-2.49-15-2.04-17.34l-0.5-4.14l-5.55-46.18
		c-0.07-0.4-0.19-0.78-0.29-1.16c-0.04-0.14-0.05-0.27-0.1-0.4c-0.05-0.16-0.1-0.31-0.15-0.48c-0.14-0.38-0.31-0.74-0.49-1.09
		c-0.14-0.27-0.29-0.55-0.45-0.8l0,0c-0.42-0.67-0.93-1.28-1.47-1.84c-0.08-0.08-0.16-0.18-0.25-0.26
		c-0.25-0.23-0.49-0.44-0.75-0.64c-0.18-0.14-0.35-0.26-0.53-0.38c-0.23-0.16-0.46-0.33-0.71-0.46c-0.42-0.23-0.86-0.45-1.31-0.63
		c-0.18-0.07-0.35-0.12-0.53-0.18c-0.37-0.12-0.74-0.23-1.13-0.31c-0.16-0.04-0.34-0.07-0.52-0.11c-0.55-0.1-21.06-3.29-21.06-3.29
		l-61.5-9.76c-1.05-0.16-1.94,0.78-1.69,1.81l7.92,67.28c0.22,1.87,1.58,3.41,3.42,3.84l90.37,21.61L310.64,427.43z"/>
	<path class="st0" d="M359.79,414.32c0.33-3.56-3.42-9.07-6.52-12.98c-2.13-2.67-3.95-4.61-3.95-4.61
		c-1.77-0.41-3.45-0.72-5.09-0.98c-17.83-2.79-26.97,3.11-31.49,8.04c-0.71,0.78-1.31,1.51-1.81,2.21c-1.36,1.87-2,3.27-2.24,3.46
		c-0.08,0.07-0.14,0.23-0.18,0.45l2.11,17.53c1.4,4.19,17.64-5,13.41-1.13c-2.78,2.54,0.85,5.7,4.61,7.87
		c2.07,1.19,2.81,0.04,3.94,0.37c2.19,0.64,8.04-1.96,12.41-5.19c1.98-1.46,3.93-2.63,5.62-2.86c2.48-0.34,4.5-1.68,6-3.59
		C356.75,422.75,359.53,417.16,359.79,414.32z"/>
	<path class="st0" d="M347.21,293.98c0,0,27.57-18.35,27.57-20.75s-13.22-51.7-13.22-51.7"/>
	<line class="st2" x1="355.19" y1="306.31" x2="363.05" y2="323.12"/>
	<path class="st0" d="M412.49,292.05l-15.79,14.23c0,0,9.01,17.14,11.12,15.32c2.1-1.8-25.85,42.09-25.85,42.09"/>
	<path class="st0" d="M453.22,294.57l8.71,7.21c0,0-15.02,29.16-19.54,29.16s-11.42-11.42-11.42-11.42"/>
	<path class="st0" d="M349.32,396.72c0,0,74.75-2.67,81.06-19.8"/>
	<g>
		<path class="st0" d="M454.87,426.48c9.34-9.18,31.75-47.93,37.76-79.37c2.43-12.65,2.21-24.1-2.59-31.97
			c0,0-15.53-13.35-25.23-12.61l0.72-3.64l-12.12-6.71c-9.53,12.35-40.44,27.83-43.39,26.01c-2.28-1.39,0.7-17.49,2.48-26.13
			c-2-0.18-11.41-0.97-19.36-0.9c-5.62,0.04-10.5,0.5-11.53,1.91c-0.76,1.05-3.52,6.07-7.05,12.67c-3.2,6-7.05,13.31-10.62,20.14
			c-6.12,11.7-11.45,22.02-11.45,22.02s26.45,20.14,7.28,36.88l-7.53,5.33l-8,5.67c1.62,0.26,3.31,0.57,5.09,0.98
			c0,0,1.83,1.94,3.95,4.61c3.11,3.91,6.86,9.43,6.52,12.98c-0.27,2.85-1.13,5.55-2.54,7.7l-0.27,0.41
			c-0.11,0.16-0.23,0.31-0.35,0.46c0,0,53.96,7.8,85.67,8.33c0.65,0.01,1.3-0.08,1.91-0.27
			C446.62,430.22,453.11,428.2,454.87,426.48z"/>
	</g>
	<path class="st0" d="M413.65,286.65c0,0,9.2,0.3,10.5,0.3"/>
	<path class="st0" d="M320.62,173.81c0,0,4.98,0.25,8.63-0.8"/>
	<path class="st0" d="M311.02,149.82c0.85,0.01,7.99-6.31,8.21-6.83"/>
	<path class="st0" d="M316.95,136.25c0,0-8.6-2.9-11.1-3.74c-2.49-0.83-4.25,2.9-4.25,2.9s-1.55,7.99,5.81,10.06
		c7.36,2.07,10.06-6.33,10.06-6.33c2.49-1.87,6.64,0,6.64,0s4.35,23.03,16.7,5.49l5.21-8.78"/>
	<path class="st0" d="M324.1,139.15c0.41-0.72,5.7-6.33,13.37-3.01"/>
	<line class="st2" x1="302.01" y1="141.54" x2="309.69" y2="139.15"/>
	<path class="st0" d="M346.4,151.81c0,0,4.77,0.31-0.11,4.46"/>
	<path class="st0" d="M313.42,158.32c0,0,4.68-1.43,5.39-2.32"/>
	<path class="st0" d="M454.5,252.85c0,0,8.51,4.79,12.6-0.53c0,0,9.58,11,15.61,3.54"/>
	<path class="st0" d="M457.16,264.55c0,0,9.22-1.24,1.42,6.91"/>
	<path class="st0" d="M458.37,277.98c0,0-6.88-0.65-6.88-2.43"/>
	<path class="st0" d="M480.73,229.62c0,0-1.23,14.36,9.95,7.78c11.18-6.56-1.6-11.36-4.79-2.48c-3.19,8.86,2.48,8.86,3.01,9.04
		c0.53,0.18,5.49,4.96,8.51,2.84c3.01-2.13-2.84-4.08-6.03-2.48c-3.19,1.6-9.94,7.27-7.27,8.33"/>
	<path class="st0" d="M420.97,230.14c1.6-0.71,12.77-15.08,16.32-9.39c3.54,5.67-10.47-2.13-5.67-6.03"/>
	<path class="st0" d="M446.06,207.62c0,0-9.13,2.48-7.7,6.2"/>
	<path class="st0" d="M436.76,237.6c1.24,0.35,15.79,0.8,16.14-4.43c0.18-2.66-0.35-11.36-7.62-8.86"/>
	<line class="st2" x1="440.81" y1="431.41" x2="545.03" y2="446.7"/>
	<path class="st0" d="M192.03,393.66c0.2,0,25.03,3.74,25.03,3.74"/>
	<polyline class="st0" points="377.1,426.28 363.73,463.8 274.57,451.17 295.37,428.5 	"/>
	<polygon class="st3" points="151.38,414.27 225.31,429.5 157.32,461.44 86.73,449.55 	"/>
	<polygon class="st0" points="280.14,427.77 242.25,434.45 245.6,443.74 286.46,436.68 	"/>
	<g>
		<path class="st0" d="M119.53,203.09c3.67,2.94,9.69,5.14,9.69,5.14c19.69,2.34,18.81-23.65,18.81-23.65s3.67-0.3,4.85-2.94
			c1.17-2.64-2.64-16.17-2.64-16.17c5.44-5.21,1.36-15.65-0.44-19.52c-14.08-4.62-30.72,4.19-30.72,8.79c0,4.7-9.56,2.94-12.05-0.44
			c-2.13-2.88-11.56,0.41-14.34,1.46c2.25,12.6-8,31.87-8,34.7l26.01,24.98L119.53,203.09z M106.16,171.51
			c-6.61-0.59-11.32-8.82-8.08-13.96s10.88,2.49,10.88,2.49s-7.63-7.63-10.88-2.49C94.84,162.7,99.55,170.92,106.16,171.51z"/>
		<path class="st0" d="M150.97,126.26c-3.82-2.34-27.47-3.53-36.73-5.44c-9.26-1.91-18.81-1.17-19.54,1.76s-4.85,5.73-6.46,16.75
			c-1.62,11.02,3.67,16.76,3.67,16.76s0.31-0.12,0.79-0.31c2.78-1.05,12.22-4.34,14.34-1.46c2.49,3.38,12.05,5.14,12.05,0.44
			c0-4.61,16.63-13.4,30.72-8.79c0.29,0.1,0.59,0.16,0.87,0.27C151.5,146.54,154.79,128.6,150.97,126.26z"/>
		<path class="st0" d="M143.39,298.33c8.56-2.6,14.68-4.72,14.68-4.72l0.87,3c4.7-4.44,11.44-10.87,14.53-14.11
			c5.02-5.26,13.62-11.23,12.42-5.02c-1.2,6.22-14.34,16.73-14.34,16.73s36.59-13.37,37.04-19.11c0.31-4.05-9.95-4.72-9.95-4.72
			s-28.75,1.61-24.21,1.13c4.54-0.48,14.1-10.99,12.91-13.62c-1.2-2.63-14.34,8.36-20.54,10.03c-6.22,1.68-7.65,9.08-9.8,13.62
			c-1.92,4.06-15.71,7.74-18.57,8.47c-0.33,0.08-0.56,0.14-0.56,0.14l-8.21-0.49l3.01,11.79
			C136.49,300.39,140.12,299.33,143.39,298.33z"/>
		<path class="st0" d="M185.91,277.49c1.2-6.22-7.4-0.25-12.42,5.02c-3.09,3.24-9.83,9.67-14.53,14.11l2.41,8.23l2.77,9.45
			c8.49-0.44,21.27-1.06,28.48-1.21c11.47-0.25,6.22-6.93,6.22-6.93s14.1-3.11,18.88-6.93c4.79-3.82-21.02-0.25-33.21-0.48
			c-2.19-0.04-4.01-0.22-5.54-0.48c-6.88-1.17-7.38-4.06-7.38-4.06S184.71,283.69,185.91,277.49z"/>
		<path class="st0" d="M153.81,384.06l-2.51-9.83l-7.89-30.88l-2.81-11c13.48-7.66,24.4-15.08,24.4-15.08l-0.87-2.99l-2.77-9.45
			l-2.41-8.23l-0.87-3c0,0-6.12,2.11-14.68,4.72c-3.27,1-6.9,2.06-10.7,3.12l-3.01-11.79l-6.43-25.15l-12.54-49.05l-26.01-24.98
			c0,0-46.5,24.24-44.51,79.32c1.98,55.08,8.71,70.14-1.19,89.95c-0.59,1.17-1.09,2.4-1.53,3.64c-6.87,19.73,5.73,46.82,40.76,42.73
			c17.82-2.09,36.35-5.34,50.84-8.18c15.81-3.09,26.83-5.68,26.83-5.68l-0.12-0.46L153.81,384.06z"/>
		<g>
			<path class="st0" d="M220.15,394.31c4.21-15.3,6.43-26.39,5.21-29.82c-5.51-15.41-73.14-21.25-81.95-21.13l7.89,30.88l2.51,9.83
				l1.96,7.7C163.56,392.32,204.99,394.5,220.15,394.31z"/>
		</g>
	</g>
	<g>
		<path class="st4" d="M115.51,201.18c3.67,2.94,9.69,5.14,9.69,5.14c19.69,2.34,18.81-23.65,18.81-23.65s3.67-0.3,4.85-2.94
			c1.17-2.64-2.64-16.17-2.64-16.17c5.44-5.21,1.36-15.65-0.44-19.52c-14.08-4.62-30.72,4.19-30.72,8.79c0,4.7-9.56,2.94-12.05-0.44
			c-2.13-2.88-11.56,0.41-14.34,1.46c2.25,12.6-8,31.87-8,34.7l26.01,24.98L115.51,201.18z"/>
		<path class="st4" d="M139.78,299.44c8.56-2.6,14.68-4.72,14.68-4.72l0.87,3c4.7-4.44,11.44-10.87,14.53-14.11
			c5.02-5.26,13.62-11.23,12.42-5.02c-1.2,6.22-14.34,16.73-14.34,16.73s36.59-13.37,37.04-19.11c0.31-4.05-9.95-4.72-9.95-4.72
			s-28.75,1.61-24.21,1.13c4.54-0.48,14.1-10.99,12.91-13.62c-1.2-2.63-14.34,8.36-20.54,10.03c-6.22,1.68-7.65,9.08-9.8,13.62
			c-1.92,4.06-23.95,7.53-23.95,7.53l4.84,12.71C138.06,301.81,136.51,300.43,139.78,299.44z"/>
		<path class="st4" d="M182.3,278.58c1.2-6.22-7.4-0.25-12.42,5.02c-3.09,3.24-9.83,9.67-14.53,14.11l2.41,8.23l2.77,9.45
			c8.49-0.44,21.27-1.06,28.48-1.21c11.47-0.25,6.22-6.93,6.22-6.93s14.1-3.11,18.88-6.93c4.79-3.82-21.02-0.25-33.21-0.48
			c-2.19-0.04-4.01-0.22-5.54-0.48c-6.88-1.17-7.38-4.06-7.38-4.06S181.1,284.8,182.3,278.58z"/>
		<path class="st5" d="M142.9,386.08l1.72,4.65c7.77,0.55,70.36,6.39,70.36,6.39c-0.98-18.69,0.68-27.23-0.53-30.62
			c-5.51-15.41-73.14-21.25-81.95-21.13l7.89,30.88L142.9,386.08z"/>
		<path class="st6" d="M149.8,382.14l-2.51-9.83l-7.89-30.88l-2.81-11c13.48-7.66,24.4-15.08,24.4-15.08l-0.87-2.99l-2.77-9.45
			l-2.41-8.23l-0.87-3c0,0-6.12,2.11-14.68,4.72c-3.27,1-6.9,2.06-10.7,3.12l-3.01-11.79l-6.43-25.15l-12.54-49.05l-26.01-24.98
			c0,0-46.5,24.24-44.51,79.32c1.98,55.08,8.71,70.14-1.19,89.95c-0.59,1.17-1.09,2.4-1.53,3.64c-6.87,19.73,5.73,46.82,40.76,42.73
			c17.82-2.09,36.35-5.34,50.84-8.18c15.81-3.09,26.83-5.68,26.83-5.68l-0.12-0.46L149.8,382.14z"/>
	</g>
	<path class="st7" d="M140.6,332.36c0,0-55.81,42.37-73.9,22.51c-18.09-19.86-14.19-111-14.19-111"/>
	<path class="st7" d="M132.7,301.46c0,0-36.43,11.7-40.22,5.77c-6.42-10.05-0.6-65.3-0.6-65.3"/>
	<path class="st7" d="M119.75,203.15c0,0-11.21-7.95-11.93-13.26"/>
	<ellipse class="st8" cx="138.61" cy="167.78" rx="1.88" ry="1.77"/>
	<g>
		<path class="st7" d="M119.53,203.09c3.67,2.94,9.69,5.14,9.69,5.14c19.69,2.34,18.81-23.65,18.81-23.65s3.67-0.3,4.85-2.94
			c1.17-2.64-2.64-16.17-2.64-16.17c5.44-5.21,1.36-15.65-0.44-19.52c-14.08-4.62-30.72,4.19-30.72,8.79c0,4.7-9.56,2.94-12.05-0.44
			c-2.13-2.88-11.56,0.41-14.34,1.46c2.25,12.6-8,31.87-8,34.7l26.01,24.98L119.53,203.09z M106.16,171.51
			c-6.61-0.59-11.32-8.82-8.08-13.96c1.96-3.12,5.55-1.53,8.07,0.2c1.62,1.12,2.81,2.29,2.81,2.29s-7.63-7.63-10.88-2.49
			C94.84,162.7,99.55,170.92,106.16,171.51z M106.16,171.51c-6.61-0.59-11.32-8.82-8.08-13.96c1.96-3.12,5.55-1.53,8.07,0.2
			c1.62,1.12,2.81,2.29,2.81,2.29s-7.63-7.63-10.88-2.49C94.84,162.7,99.55,170.92,106.16,171.51z M106.16,171.51
			c-6.61-0.59-11.32-8.82-8.08-13.96c1.96-3.12,5.55-1.53,8.07,0.2c1.62,1.12,2.81,2.29,2.81,2.29s-7.63-7.63-10.88-2.49
			C94.84,162.7,99.55,170.92,106.16,171.51z"/>
		<path class="st9" d="M150.97,126.26c-3.82-2.34-27.47-3.53-36.73-5.44c-9.26-1.91-18.81-1.17-19.54,1.76s-4.85,5.73-6.46,16.75
			c-1.62,11.02,3.67,16.76,3.67,16.76s0.31-0.12,0.79-0.31c2.78-1.05,12.22-4.34,14.34-1.46c2.49,3.38,12.05,5.14,12.05,0.44
			c0-4.61,16.63-13.4,30.72-8.79c0.29,0.1,0.59,0.16,0.87,0.27C151.5,146.54,154.79,128.6,150.97,126.26z"/>
		<path class="st10" d="M143.39,298.33c8.56-2.6,14.68-4.72,14.68-4.72l0.87,3c4.7-4.44,11.44-10.87,14.53-14.11
			c5.02-5.26,13.62-11.23,12.42-5.02c-1.2,6.22-14.34,16.73-14.34,16.73s36.59-13.37,37.04-19.11c0.31-4.05-9.95-4.72-9.95-4.72
			s-28.75,1.61-24.21,1.13c4.54-0.48,14.1-10.99,12.91-13.62c-1.2-2.63-14.34,8.36-20.54,10.03c-6.22,1.68-7.65,9.08-9.8,13.62
			c-1.92,4.06-15.71,7.74-18.57,8.47c-0.33,0.08-0.56,0.14-0.56,0.14l-8.21-0.49l3.01,11.79
			C136.49,300.39,140.12,299.33,143.39,298.33z"/>
		<path class="st7" d="M185.91,277.49c1.2-6.22-7.4-0.25-12.42,5.02c-3.09,3.24-9.83,9.67-14.53,14.11l2.41,8.23l2.77,9.45
			c8.49-0.44,21.27-1.06,28.48-1.21c11.47-0.25,6.22-6.93,6.22-6.93s14.1-3.11,18.88-6.93c4.79-3.82-21.02-0.25-33.21-0.48
			c-2.19-0.04-4.01-0.22-5.54-0.48c-6.88-1.17-7.38-4.06-7.38-4.06S184.71,283.69,185.91,277.49z"/>
		<path class="st7" d="M153.81,384.06l-2.51-9.83l-7.89-30.88l-2.81-11c13.48-7.66,24.4-15.08,24.4-15.08l-0.87-2.99l-2.77-9.45
			l-2.41-8.23l-0.87-3c0,0-6.12,2.11-14.68,4.72c-3.27,1-6.9,2.06-10.7,3.12l-3.01-11.79l-6.43-25.15l-12.54-49.05l-26.01-24.98
			c0,0-46.5,24.24-44.51,79.32c1.98,55.08,8.71,70.14-1.19,89.95c-0.59,1.17-1.09,2.4-1.53,3.64c-6.87,19.73,5.73,46.82,40.76,42.73
			c17.82-2.09,36.35-5.34,50.84-8.18c15.81-3.09,26.83-5.68,26.83-5.68l-0.12-0.46L153.81,384.06z"/>
		<g>
			<path class="st7" d="M220.15,394.31c4.21-15.3,6.43-26.39,5.21-29.82c-5.51-15.41-73.14-21.25-81.95-21.13l7.89,30.88l2.51,9.83
				l1.96,7.7C163.56,392.32,204.99,394.5,220.15,394.31z"/>
		</g>
	</g>
	<g>
		<ellipse class="st8" cx="409.81" cy="326.02" rx="2.41" ry="2.13"/>
		<ellipse class="st8" cx="403.92" cy="336.82" rx="2.41" ry="2.13"/>
		<path class="st10" d="M371.99,131.22c-0.14-0.37-0.23-0.57-0.23-0.57S371.79,130.89,371.99,131.22z"/>
		<path class="st11" d="M319.37,189.95l2.85-11.74c-2.04-0.34-23.75-3.78-31.22,2.82c-9.38,8.29-9.16,55.19-9.16,55.19l-54.1,44.28
			l4.58,12.58c0,0,35.95,2.09,47.46-5.37c-0.37-0.89-0.59-1.42-0.59-1.42L319.37,189.95z"/>
		<path class="st12" d="M314.92,186.53c-0.6-0.16-0.95-0.27-0.95-0.27l-40.19,96.33c0,0,0.22,0.53,0.59,1.42
			c0.26,0.63,0.61,1.45,1.02,2.39c3.08,7.13,9.91,21.91,14.08,23.16c3.93,1.17,21.72-5.63,31.6-9.62c0.27-0.63,0.65-1.21,1.17-1.76
			c0.29-0.3,0.59-0.79,0.89-1.43c4.2-8.78,10.29-47.54,8.06-55.06c-1.43-4.83,3.83-27.12,8.3-44.25c0.23-0.9,0.46-1.79,0.7-2.64
			c0.08-0.33,0.16-0.63,0.25-0.95c0.14-0.52,0.27-1.02,0.41-1.53c0.1-0.38,0.2-0.76,0.3-1.13c0.11-0.42,0.22-0.82,0.33-1.23
			c0.11-0.4,0.22-0.79,0.31-1.19c0,0,0,0,0-0.01C337.46,192.42,319.29,187.73,314.92,186.53z"/>
		<path class="st0" d="M355.49,302.63c-1.83,0.45-7.99-12.32-7.99-12.32c-5.32-0.44-10.93,3.97-15.36,8.71
			c-3.42,3.65-6.15,7.53-7.47,9.53c0.44,1.12,0.85,1.85,0.85,1.85s11.56,6.46,20.25,6.39c1.54-2.93,3.59-5.79,5.41-8.19
			C353.94,304.96,356.24,302.44,355.49,302.63z"/>
		<path class="st1" d="M360.89,306.01c-1.83,0.45-7.99-12.32-7.99-12.32c-5.32-0.44-10.93,3.97-15.36,8.71
			c-3.42,3.65-7.68,8.93-9.01,10.93c0.44,1.12,2.17,1.27,2.17,1.27s11.78,5.64,20.46,5.58c1.54-2.93,3.59-5.79,5.41-8.19
			C359.35,308.34,361.64,305.82,360.89,306.01z"/>
		<path class="st13" d="M511.28,224.93c0,0-19.75-11.96-27.03,5.19c0,0,0.34-12.31-13.17-11.44c0,0-4.85-15.6-21.49-10.57
			c0,0-15.42-8.83-20.97,4.34c0,0-6.07,3.3-3.46,6.58c0,0-9.86,5.86-4.92,17.82c2.18-3.67,3.54-6.56,3.54-6.56
			c0.7,6.76,8.67,3.64,8.67,3.64c-2.77,10.57,14.21,9.01,14.21,9.01c-4.68,6.58-0.87,13.86-0.87,13.86
			c2.77,4.34,10.4,4.16,16.11,2.09c5.71-2.09,9.35,6.58,8.49,13.17c-0.87,6.58-8.49,6.41-8.49,6.41s-1.08,3.94-2.07,7.36
			c3.6,2.88,7.58,5.25,8.82,3.2c0,0-6.07-4.85,0.18-7.28c0,0,2.77,11.78,10.22,4.5s1.55-17.85,1.55-17.85s18.36,5.19,11.26-9.01
			c0,0,7.98,2.94,10.92,0.52C505.73,257.5,532.59,241.74,511.28,224.93z"/>
		<path class="st8" d="M269.52,318.03c0,0,10.28,2.34,18.92,2.58c5.55,0.15,10.36-1.65,11.56-1.94l-0.61,4.14
			c19.52,23.93,53.1,25.06,53.1,25.06l8.3-13.84c0,0,0.27-18.38-8.45-16.41c-0.9,0.2-1.88,0.27-2.88,0.29
			c-8.68,0.07-20.25-6.39-20.25-6.39s-0.4-0.72-0.85-1.85c-0.83-2.13-1.83-5.71-0.55-8.6c-9.87,3.99-27.68,10.8-31.6,9.62
			c-4.17-1.25-13.77-11.82-16.86-18.95c-4.51,2.52-10.99,24.33-19.06,53.47l13.5,2.26L269.52,318.03z"/>
		<path class="st8" d="M299.44,354.75c0.11,0.38,0.23,0.76,0.29,1.16c-0.05-0.4-0.15-0.78-0.26-1.15
			C299.46,354.75,299.45,354.75,299.44,354.75z"/>
		<path class="st11" d="M398.43,278.06c-0.5-4.06-0.89-11.94-1.42-21.46c-1.13-1.17-1.42-2.96-0.26-4.43
			c-1.62-27.53-4.72-65.15-15.04-67.61c-14.61-3.49-31.51-6.19-31.51-6.19s-0.26,0.89-0.7,2.47c-4.92,17.49-10.09,35.3-12.83,53.29
			c-0.42,2.82-1.27,6.42-0.44,9.24c2.24,7.53-3.86,46.28-8.06,55.06c-0.3,0.64-0.6,1.13-0.89,1.43c-0.52,0.55-0.9,1.13-1.17,1.76
			c-1.28,2.9-0.29,6.48,0.55,8.6c1.34-2,4.05-5.86,7.47-9.53c4.43-4.74,10.06-9.15,15.36-8.71c0,0,6.16,12.79,7.99,12.32
			c0.75-0.19-1.54,2.33-4.34,5.97c-1.84,2.4-3.87,5.26-5.41,8.19c1.01-0.01,1.98-0.08,2.88-0.29c8.73-1.96,9.38,17.45,9.38,17.45
			l6.23-11.77c3.57-6.84,7.42-14.14,10.62-20.14c3.52-6.6,6.27-11.62,7.05-12.67c1.02-1.4,5.92-1.87,11.53-1.91
			C397.63,285.87,398.93,282.15,398.43,278.06z"/>
		<path class="st0" d="M351.06,347.1c0,0-30.28-0.63-50.55-28.08l-4.31,0.23c-0.4,8.44-1.32,24.44-2.93,28.11l-4.73-0.71l-0.05,0.23
			l0.86,0.14c0.57,0,1.13,0.07,1.69,0.15c0.18,0.03,0.34,0.07,0.52,0.11c0.38,0.08,0.76,0.19,1.13,0.31
			c0.18,0.05,0.35,0.11,0.53,0.18c0.45,0.18,0.89,0.4,1.31,0.63c0.25,0.14,0.48,0.3,0.71,0.46c0.18,0.12,0.37,0.25,0.53,0.38
			c0.26,0.2,0.52,0.41,0.75,0.64c0.08,0.08,0.16,0.16,0.25,0.26c0.56,0.56,1.05,1.17,1.47,1.84l0,0l0,0
			c0.16,0.26,0.31,0.53,0.45,0.8c0.18,0.35,0.35,0.72,0.49,1.09c0.05,0.15,0.11,0.31,0.15,0.48c0.04,0.14,0.1,0.27,0.14,0.41
			c2.04,0.75,4.31,1.72,6.78,3c1.1,0.57,2.22,1.17,3.39,1.87c13.67,8.11,31.42,22.96,39.86,26.78l7.53-5.33
			C376.19,364.35,351.06,347.1,351.06,347.1z"/>
		<path class="st8" d="M299.34,354.34c0.04,0.12,0.07,0.27,0.1,0.4c0.01,0,0.03,0.01,0.04,0.01
			C299.44,354.61,299.38,354.47,299.34,354.34z"/>
		<path class="st8" d="M299.19,353.87c-0.15-0.38-0.31-0.74-0.49-1.09C298.88,353.14,299.05,353.49,299.19,353.87z"/>
		<path class="st8" d="M299.34,354.34c-0.05-0.16-0.1-0.31-0.15-0.48C299.24,354.02,299.29,354.19,299.34,354.34z"/>
		<path class="st8" d="M298.7,352.77c-0.14-0.27-0.29-0.55-0.45-0.8C298.4,352.24,298.55,352.5,298.7,352.77z"/>
		<path class="st0" d="M358.33,411.5c0.33-3.56-3.42-9.07-6.52-12.98c-2.13-2.67-3.95-4.61-3.95-4.61
			c-1.77-0.41-3.45-0.72-5.09-0.98c-17.83-2.79-26.97,3.11-31.49,8.04c-0.71,0.78-1.31,1.51-1.81,2.21c-1.36,1.87-2,3.27-2.24,3.46
			c-0.08,0.07-0.14,0.23-0.18,0.45l2.11,17.53c1.4,4.19,17.64-5,13.41-1.13c-2.78,2.54,0.85,5.7,4.61,7.87
			c2.07,1.19,2.81,0.04,3.94,0.37c2.19,0.64,8.04-1.96,12.41-5.19c1.98-1.46,3.93-2.63,5.62-2.86c2.48-0.34,4.5-1.68,6-3.59
			C355.29,419.93,358.07,414.34,358.33,411.5z"/>
		<path class="st3" d="M494.99,315.73c0,0-15.53-13.35-25.23-12.61l0.72-3.64l-12.12-6.71c-9.53,12.35-40.44,27.83-43.39,26.01
			c-2.28-1.39,0.7-17.49,2.48-26.13c-2-0.18-11.41-0.97-19.36-0.9c-5.62,0.04-10.5,0.5-11.53,1.91c-0.76,1.05-3.52,6.07-7.05,12.67
			c-3.2,6-7.05,13.31-10.62,20.14c-6.12,11.7-11.45,22.02-11.45,22.02s26.45,20.14,7.28,36.88l-7.53,5.33l-8,5.67
			c1.62,0.26,3.31,0.57,5.09,0.98c0,0,1.83,1.94,3.95,4.61c3.11,3.91,6.86,9.43,6.52,12.98c-0.27,2.85-1.13,5.55-2.54,7.7l-0.14,0.2
			c19.1,1.84,64.58,6.11,88.48,8.34c4.17-0.95,7.4-2.28,9.26-4.09c9.34-9.18,31.75-47.93,37.76-79.37
			C500,335.06,499.79,323.6,494.99,315.73z"/>
		<g>
			<g>
				<g>
					<defs>
						<path id="SVGID_1_" d="M314.92,186.53c-0.6-0.16-0.95-0.27-0.95-0.27l-40.19,96.33c0,0,0.22,0.53,0.59,1.42
							c0.26,0.63,0.61,1.45,1.02,2.39c3.08,7.13,9.91,21.91,14.08,23.16c3.93,1.17,21.72-5.63,31.6-9.62
							c0.27-0.63,0.65-1.21,1.17-1.76c0.29-0.3,0.59-0.79,0.89-1.43c4.2-8.78,10.29-47.54,8.06-55.06
							c-1.43-4.83,3.83-27.12,8.3-44.25c0.23-0.9,0.46-1.79,0.7-2.64c0.08-0.33,0.16-0.63,0.25-0.95c0.14-0.52,0.27-1.02,0.41-1.53
							c0.1-0.38,0.2-0.76,0.3-1.13c0.11-0.42,0.22-0.82,0.33-1.23c0.11-0.4,0.22-0.79,0.31-1.19c0,0,0,0,0-0.01
							C337.46,192.42,319.29,187.73,314.92,186.53z"/>
					</defs>
					<clipPath id="SVGID_2_">
						<use xlink:href="#SVGID_1_"  style="overflow:visible;"/>
					</clipPath>
					<path class="st14" d="M379.58,211c-33.96,3.31-67.69,0.75-100.67-8.02c-15.92-4.23-22.71,20.44-6.8,24.66
						c35.04,9.3,71.38,12.45,107.47,8.93C395.82,234.99,395.98,209.41,379.58,211z"/>
				</g>
			</g>
			<g>
				<g>
					<defs>
						<path id="SVGID_3_" d="M314.92,186.53c-0.6-0.16-0.95-0.27-0.95-0.27l-40.19,96.33c0,0,0.22,0.53,0.59,1.42
							c0.26,0.63,0.61,1.45,1.02,2.39c3.08,7.13,9.91,21.91,14.08,23.16c3.93,1.17,21.72-5.63,31.6-9.62
							c0.27-0.63,0.65-1.21,1.17-1.76c0.29-0.3,0.59-0.79,0.89-1.43c4.2-8.78,10.29-47.54,8.06-55.06
							c-1.43-4.83,3.83-27.12,8.3-44.25c0.23-0.9,0.46-1.79,0.7-2.64c0.08-0.33,0.16-0.63,0.25-0.95c0.14-0.52,0.27-1.02,0.41-1.53
							c0.1-0.38,0.2-0.76,0.3-1.13c0.11-0.42,0.22-0.82,0.33-1.23c0.11-0.4,0.22-0.79,0.31-1.19c0,0,0,0,0-0.01
							C337.46,192.42,319.29,187.73,314.92,186.53z"/>
					</defs>
					<clipPath id="SVGID_4_">
						<use xlink:href="#SVGID_3_"  style="overflow:visible;"/>
					</clipPath>
					<path class="st15" d="M363.1,254.69c-16.7-3.48-33.36,1.4-50.05-2.06c-17.25-3.59-34.25-9.23-51.03-14.51
						c-15.73-4.95-22.47,19.74-6.8,24.66c16.78,5.28,33.78,10.89,51.03,14.51c7.69,1.61,15.54,2.66,23.41,2.45
						c8.88-0.23,17.85-2.22,26.65-0.38C372.37,282.68,379.23,258.05,363.1,254.69z"/>
				</g>
			</g>
		</g>
		<path class="st0" d="M317.38,189c4.36,1.2,23.49,6.16,27.83,2.49c0.15-0.57,0.3-1.12,0.45-1.66c0.72-2.64,1.46-5.3,2.19-7.93
			l1.46-15.2c-0.34-0.91-0.55-1.66-0.55-1.66s0.41-0.83,1.01-2.11c0,0,6.19-14.6,4.66-16.43c-2.18-2.62-24.21-15.27-26.61-25.74
			c0,0-10.03,15.49-15.27,16.36c-0.46,0.08-3.63-2.96-4.13-3.26l0.12,14.46c0,0-14.91,8.68,1.01,8.68c0,0,1.04,13.5,11.72,15.9
			l-1.06,4.38c0.1,0.01,0.18,0.03,0.18,0.03L317.38,189z"/>
		<path class="st1" d="M355.78,135.77c-1.3-0.67-5.19-2.47-6.39-3.12c-4.7-2.59-10.82,0.48-14.81-3.27
			c-2.64-2.48-3.33-6.34-3.99-9.27c0,0-8.08-4.35-11.98,0.22c-2.77,3.24-4.81,1.54-6.23,9.26c-0.08,0.46-0.68,3.93-1.19,3.63
			l0.12,14.46c0,0-14.91,8.68,1.01,8.68c0,0,1.04,13.5,11.72,15.9l-3.91,16.11c3.59,0.98,17.19,4.53,24.31,3.69
			c0.01-0.07,0.03-0.14,0.04-0.19c1.05-2.66,2.19-5.32,3.08-8.04c-0.42-0.49-0.61-1.2-0.45-1.84c0.18-0.7,0.38-1.39,0.61-2.07
			c-0.2-1.73-0.07-3.48,0.2-5.19c0.07-0.46,0.15-0.94,0.26-1.4c-0.2-2.94-0.11-5.93,0.86-8.68c0.08-0.23,0.19-0.44,0.34-0.63
			c-0.82-1.66-0.33-3.56,0.27-5.33c0.08-0.25,0.2-0.46,0.34-0.64c0.08-2.69,0.75-5.4,1.77-7.73l0,0l0,0
			c0.07-0.15,0.12-0.31,0.19-0.46c0.56-1.2,1.94-1.16,2.84-0.52c1.68-3.67,2.88-7.09,2.92-7.33
			C357.83,141.34,358.11,136.97,355.78,135.77z"/>
		<path class="st16" d="M354.69,348.59c0,0-30.5-0.6-50.02-24.53l-3.79-4.94c-0.4,8.44-1.76,25.15-3.37,28.82
			c0,0-0.23,0.34-0.05,0.41c0.45,0.18,0.89,0.4,1.31,0.63c0.25,0.14,0.48,0.3,0.71,0.46c0.18,0.12,0.37,0.25,0.53,0.38
			c0.26,0.2,0.52,0.41,0.75,0.64c0.08,0.08,0.16,0.16,0.25,0.26c0.56,0.56,1.05,1.17,1.47,1.84l0,0l0,0
			c0.16,0.26,0.31,0.53,0.45,0.8c0.18,0.35,0.35,0.72,0.49,1.09c0.05,0.15,0.11,0.31,0.15,0.48c0.04,0.14,0.1,0.27,0.14,0.41
			c2.04,0.75,4.31,1.72,6.78,3c1.1,0.57,2.22,1.17,3.39,1.87c13.67,8.11,31.42,22.96,39.86,26.78l7.53-5.33
			C380.44,364.93,354.69,348.59,354.69,348.59z"/>
		<path class="st0" d="M312.58,424.64c-0.03-0.07-0.05-0.12-0.07-0.19c-0.86-4.29-2.49-15-2.04-17.34l-0.5-4.14l-5.55-46.18
			c-0.07-0.4-0.19-0.78-0.29-1.16c-0.04-0.14-0.05-0.27-0.1-0.4c-0.05-0.16-0.1-0.31-0.15-0.48c-0.14-0.38-0.31-0.74-0.49-1.09
			c-0.14-0.27-0.29-0.55-0.45-0.8l0,0c-0.1-0.15-0.2-0.29-0.3-0.42c-3.39-0.44-6.69-1.3-10.02-2.06c-3.44-0.79-6.94-1.4-10.42-2.03
			c-7.25-1.32-14.53-2.43-21.88-3.12c-1.62-0.15-2.18-1.88-1.68-2.99l-45.48-7.23c-1.05-0.16-1.94,0.78-1.69,1.81l7.92,67.28
			c0.22,1.87,1.58,3.41,3.42,3.84l90.37,21.61L312.58,424.64z"/>
		<path class="st0" d="M458.19,259.85c-5.71,2.09-13.35,2.25-16.11-2.09c0,0-3.82-7.28,0.87-13.86c0,0-16.99,1.55-14.21-9.01
			c0,0-7.98,3.12-8.67-3.64c0,0-1.36,2.89-3.54,6.56c-3.74,6.31-9.88,14.96-15.69,15.28c-3.52,0.2-5.58,1.24-6.58,2.52
			c-1.16,1.49-0.87,3.27,0.26,4.43c0.44,0.45,1,0.82,1.65,1.02c3.82,1.21,10.4,0.87,10.4,0.87s-7.98,19.93,6.93,26.16
			c0,0-0.5,2.19-1.16,5.41c-1.79,8.64-4.74,24.74-2.48,26.13c2.97,1.81,33.88-13.66,43.39-26.01c0.49-0.64,0.94-1.27,1.31-1.88
			c0.22-0.35,0.87-2.52,1.57-4.94c1-3.44,2.07-7.36,2.07-7.36s7.62,0.18,8.49-6.41C467.54,266.43,463.9,257.78,458.19,259.85z"/>
		<path class="st16" d="M462.04,259c-5.71,2.09-13.35,2.25-16.11-2.09c0,0-3.82-7.28,0.87-13.86c0,0-16.99,1.55-14.21-9.01
			c0,0-7.98,3.12-8.67-3.64c0,0-1.36,2.89-3.54,6.56c-3.74,6.31-9.88,14.96-15.69,15.28c-3.52,0.2-5.58,1.24-6.58,2.52
			c-1.16,1.49-0.87,3.27,0.26,4.43c0.44,0.45,1,0.82,1.65,1.02c3.82,1.21,10.4,0.87,10.4,0.87s-7.98,19.93,6.93,26.16
			c0,0-0.5,2.19-1.16,5.41c-1.79,8.64-4.74,24.74-2.48,26.13c2.97,1.81,33.88-13.66,43.39-26.01c0.49-0.64,0.94-1.27,1.31-1.88
			c0.22-0.35,0.87-2.52,1.57-4.94c1-3.44,2.07-7.36,2.07-7.36s7.62,0.18,8.49-6.41C471.39,265.59,467.75,256.92,462.04,259z"/>
		<path class="st12" d="M308.11,423.76c-0.03-0.07-8.17-67.85-8.17-67.85c-0.07-0.4-0.19-0.78-0.29-1.16
			c-0.04-0.14-0.05-0.27-0.1-0.4c-0.03-0.07-0.05-0.15-0.07-0.22c-0.23-0.08-0.46-0.22-0.67-0.42c-1.24-1.17-2.97-1.61-4.58-1.99
			c-1.84-0.45-3.68-0.83-5.52-1.25c-4.28-1-8.58-2.09-12.97-2.43c-0.82-0.07-1.36-0.53-1.65-1.12c-0.64-0.07-1.3-0.15-1.95-0.19
			c-0.08,0.01-0.15,0.03-0.23,0.03c-0.59,0-1.17-0.05-1.76-0.11c-0.3,0-0.6-0.01-0.91-0.01c-0.38,0-0.7-0.1-0.97-0.25
			c-0.8-0.14-1.61-0.29-2.4-0.45c-0.95-0.19-1.76-0.35-2.58-0.46c-0.94-0.07-1.89-0.11-2.84-0.11c-1.09,0-1.9-0.89-1.95-1.95
			c-0.01-0.37,0.1-0.7,0.26-0.97c0.01-0.12,0.01-0.23,0.04-0.35l-50.12-7.96c-1.05-0.16-1.94,0.78-1.69,1.81l7.92,67.28
			c0.22,1.87,1.58,3.41,3.42,3.84l90.37,21.61L308.11,423.76z"/>
		<path class="st8" d="M312.29,363.08c-1.17-0.7-2.29-1.31-3.39-1.87c-2.45-1.28-4.73-2.25-6.78-3c0.11,0.37,0.19,0.75,0.26,1.15
			l5.55,46.18l0.5,4.14c0.04-0.22,0.1-0.38,0.18-0.45c0.23-0.19,0.89-1.6,2.24-3.46c0.5-0.68,1.09-1.43,1.81-2.21
			c4.53-4.92,13.66-10.84,31.49-8.04l8-5.67C343.72,386.05,325.97,371.2,312.29,363.08z"/>
		<path class="st16" d="M359.61,417.04c0.33-3.56-3.42-9.07-6.52-12.98c-2.13-2.67-3.95-4.61-3.95-4.61
			c-1.77-0.41-3.45-0.72-5.09-0.98c-17.83-2.79-26.97,3.11-31.49,8.04c-0.71,0.78-1.31,1.51-1.81,2.21c-1.36,1.87-2,3.27-2.24,3.46
			c-0.08,0.07-0.14,0.23-0.18,0.45l2.11,17.53c1.4,4.19,17.64-5,13.41-1.13c-2.78,2.54,0.85,5.7,4.61,7.87
			c2.07,1.19,2.81,0.04,3.94,0.37c2.19,0.64,8.04-1.96,12.41-5.19c1.98-1.46,3.93-2.63,5.62-2.86c2.48-0.34,4.5-1.68,6-3.59
			C356.56,425.46,359.34,419.89,359.61,417.04z"/>
	</g>
	<g>
		<ellipse class="st8" cx="322.9" cy="143.18" rx="1.77" ry="1.55"/>
		<ellipse class="st8" cx="308.23" cy="142.67" rx="1.77" ry="1.55"/>
		
			<ellipse transform="matrix(0.6281 -0.7781 0.7781 0.6281 -39.4199 419.1213)" class="st8" cx="418.77" cy="250.8" rx="1.88" ry="1.7"/>
		
			<ellipse transform="matrix(0.6281 -0.7781 0.7781 0.6281 -37.8114 408.5038)" class="st8" cx="408.47" cy="243.81" rx="1.88" ry="1.08"/>
		<ellipse class="st8" cx="412.55" cy="329.7" rx="2.41" ry="2.13"/>
		<ellipse class="st8" cx="406.66" cy="340.5" rx="2.41" ry="2.13"/>
		<path class="st2" d="M316.72,189.94c0,0,0.35,0.1,0.95,0.27c4.36,1.2,22.54,5.9,26.87,2.22
			C340.2,196.1,321.07,191.14,316.72,189.94z"/>
		<path class="st10" d="M316.72,189.94c4.36,1.2,23.49,6.16,27.83,2.49c0.15-0.57,0.3-1.12,0.45-1.66c0.72-2.64,1.46-5.3,2.19-7.93
			l1.46-15.2c-0.34-0.91,0.31-13.65,1.62-19.24c0.33-1.43,2-2.29,2.19-3.01c1.66-6.67,2.21-9.69-0.46-11.06
			c-4.46-2.26-6.3,2.43-7.4,1.65c-7.36-5.3-15.83-7.23-17.45-14.27c0,0-8.94-1.08-12.56,3.29c-2.94,3.56-6.34,10.12-6.84,9.82
			l0.12,14.46c0,0-14.91,8.68,1.01,8.68c0,0,1.04,13.5,11.72,15.9l-1.06,4.38c0.1,0.01,0.18,0.03,0.18,0.03L316.72,189.94z"/>
		<path class="st10" d="M316.72,189.94l2.85-11.74c-2.04-0.34-23.75-3.78-31.22,2.82c-9.38,8.29-9.16,55.19-9.16,55.19l-54.1,44.28
			l4.58,12.58c0,0,35.95,2.09,47.46-5.37c-0.37-0.89-0.59-1.42-0.59-1.42L316.72,189.94z"/>
		<path class="st10" d="M319.74,178.23c0,0-0.07-0.01-0.18-0.03l-2.85,11.74L319.74,178.23z"/>
		<path class="st10" d="M317.68,190.2c-0.6-0.16-0.95-0.27-0.95-0.27l-40.19,96.33c0,0,0.22,0.53,0.59,1.42
			c0.26,0.63,0.61,1.45,1.02,2.39c3.08,7.13,9.91,21.91,14.08,23.16c3.93,1.17,21.72-5.63,31.6-9.62c0.27-0.63,0.65-1.21,1.17-1.76
			c0.29-0.3,0.59-0.79,0.89-1.43c4.2-8.78,10.29-47.54,8.06-55.06c-1.43-4.83,3.83-27.12,8.3-44.25c0.23-0.9,0.46-1.79,0.7-2.64
			c0.08-0.33,0.16-0.63,0.25-0.95c0.14-0.52,0.27-1.02,0.41-1.53c0.1-0.38,0.2-0.76,0.3-1.13c0.11-0.42,0.22-0.82,0.33-1.23
			c0.11-0.4,0.22-0.79,0.31-1.19c0,0,0,0,0-0.01C340.2,196.1,322.03,191.4,317.68,190.2z"/>
		<path class="st10" d="M355.19,306.31c-1.83,0.45-7.99-12.32-7.99-12.32c-5.32-0.44-10.93,3.97-15.36,8.71
			c-3.42,3.65-6.15,7.53-7.47,9.53c0.44,1.12,0.85,1.85,0.85,1.85s11.56,6.46,20.25,6.39c1.54-2.93,3.59-5.79,5.41-8.19
			C353.65,308.64,355.94,306.12,355.19,306.31z"/>
		<path class="st10" d="M230.34,276.18c0,0-2.06-13.7-8.22-14.61c-6.16-0.91-3.39,12.69-3.39,12.69s4.14,4.4-31.78,17.85
			c-3.82,1.43,3.07,7.24,7.28,6.84c11.23-1.08,35.43-5.86,35.43-5.86l-4.58-12.58L230.34,276.18z"/>
		<path class="st10" d="M507.76,224.43c0,0-19.75-11.96-27.03,5.19c0,0,0.34-12.31-13.17-11.44c0,0-4.85-15.6-21.49-10.57
			c0,0-15.42-8.83-20.97,4.34c0,0-6.07,3.3-3.46,6.58c0,0-9.86,5.86-4.92,17.82c2.18-3.67,3.54-6.56,3.54-6.56
			c0.7,6.76,8.67,3.64,8.67,3.64c-2.77,10.57,14.21,9.01,14.21,9.01c-4.68,6.58-0.87,13.86-0.87,13.86
			c2.77,4.34,10.4,4.16,16.11,2.09c5.71-2.09,9.35,6.58,8.49,13.17c-0.87,6.58-8.49,6.41-8.49,6.41s-1.08,3.94-2.07,7.36
			c3.6,2.88,7.58,5.25,8.82,3.2c0,0-6.07-4.85,0.18-7.28c0,0,2.77,11.78,10.22,4.5c7.46-7.28,1.55-17.85,1.55-17.85
			s18.36,5.19,11.26-9.01c0,0,7.98,2.94,10.92,0.52C502.21,257.01,529.07,241.24,507.76,224.43z"/>
		<path class="st2" d="M355.19,306.31c-1.83,0.45-7.99-12.32-7.99-12.32c-5.32-0.44-10.93,3.97-15.36,8.71
			c-3.42,3.65-6.15,7.53-7.47,9.53c0.44,1.12,0.85,1.85,0.85,1.85s11.56,6.46,20.25,6.39c1.54-2.93,3.59-5.79,5.41-8.19
			C353.65,308.64,355.94,306.12,355.19,306.31z"/>
		<path class="st2" d="M406.73,260.47c0,0-6.58,0.34-10.4-0.87c-0.65-0.2-1.21-0.57-1.65-1.02c0.53,9.52,0.91,17.38,1.42,21.46
			c0.5,4.09-0.78,7.83-2.97,11.11c7.95-0.05,17.35,0.72,19.36,0.9c0.67-3.22,1.16-5.41,1.16-5.41
			C398.75,280.41,406.73,260.47,406.73,260.47z"/>
		<polygon class="st10" points="277.05,348.2 291.24,350.55 291.3,350.32 		"/>
		<path class="st10" d="M269.25,316.85c0,0,23.93,7.42,29.91,0.8l4.09,5.03c19.52,23.93,49.24,25.19,49.24,25.19l5.22-10.25
			c0,0-0.65-19.41-9.38-17.45c-0.9,0.2-1.88,0.27-2.88,0.29c-8.68,0.07-20.25-6.39-20.25-6.39s-0.4-0.72-0.85-1.85
			c-0.83-2.13-1.83-5.71-0.55-8.6c-9.87,3.99-27.68,10.8-31.6,9.62c-4.17-1.25-11-16.03-14.08-23.16
			c-4.51,2.52-12.2,25.82-20.27,54.95l14.85,2.45L269.25,316.85z"/>
		<path class="st10" d="M302.19,358.41c0.11,0.38,0.23,0.76,0.29,1.16c-0.05-0.4-0.15-0.78-0.26-1.15
			C302.2,358.43,302.2,358.43,302.19,358.41z"/>
		<path class="st10" d="M396.11,280.04c-0.5-4.06-0.89-11.94-1.42-21.46c-1.13-1.17-1.42-2.96-0.26-4.43
			c-1.62-27.53-4.72-65.15-15.04-67.61c-14.61-3.49-31.51-6.19-31.51-6.19s-0.26,0.89-0.7,2.47c-4.92,17.49-10.09,35.3-12.83,53.29
			c-0.42,2.82-1.27,6.42-0.44,9.24c2.24,7.53-3.86,46.28-8.06,55.06c-0.3,0.64-0.6,1.13-0.89,1.43c-0.52,0.55-0.9,1.13-1.17,1.76
			c-1.28,2.9-0.29,6.48,0.55,8.6c1.34-2,4.05-5.86,7.47-9.53c4.43-4.74,10.06-9.15,15.36-8.71c0,0,6.16,12.79,7.99,12.32
			c0.75-0.19-1.54,2.33-4.34,5.97c-1.84,2.4-3.87,5.26-5.41,8.19c1.01-0.01,1.98-0.08,2.88-0.29c8.73-1.96,9.38,17.45,9.38,17.45
			l6.23-11.77c3.57-6.84,7.42-14.14,10.62-20.14c3.52-6.6,6.27-11.62,7.05-12.67c1.02-1.4,5.92-1.87,11.53-1.91
			C395.32,287.86,396.61,284.14,396.11,280.04z"/>
		<path class="st10" d="M458.37,258.4c-5.71,2.09-13.35,2.25-16.11-2.09c0,0-3.82-7.28,0.87-13.86c0,0-16.99,1.55-14.21-9.01
			c0,0-7.98,3.12-8.67-3.64c0,0-1.36,2.89-3.54,6.56c-3.74,6.31-9.88,14.96-15.69,15.28c-3.52,0.2-5.58,1.24-6.58,2.52
			c-1.16,1.49-0.87,3.27,0.26,4.43c0.44,0.45,1,0.82,1.65,1.02c3.82,1.21,10.4,0.87,10.4,0.87s-7.98,19.93,6.93,26.16
			c0,0-0.5,2.19-1.16,5.41c-1.79,8.64-4.74,24.74-2.48,26.13c2.97,1.81,33.88-13.66,43.39-26.01c0.49-0.64,0.94-1.27,1.31-1.88
			c0.22-0.35,0.87-2.52,1.57-4.94c1-3.44,2.07-7.36,2.07-7.36s7.62,0.18,8.49-6.41C467.72,264.99,464.08,256.32,458.37,258.4z"/>
		<polygon class="st10" points="277.05,348.2 277.05,348.2 291.24,350.55 291.24,350.55 		"/>
		<polygon class="st10" points="272.7,347.48 272.7,347.48 257.87,345.04 257.87,345.04 		"/>
		<path class="st10" d="M352.5,347.88c0,0-29.72-1.27-49.24-25.19l-4.13-4.54c-0.4,8.44-1.5,29.22-3.11,32.88l-4.73-0.71l-0.05,0.23
			l0.86,0.14c0.57,0,1.13,0.07,1.69,0.15c0.18,0.03,0.34,0.07,0.52,0.11c0.38,0.08,0.76,0.19,1.13,0.31
			c0.18,0.05,0.35,0.11,0.53,0.18c0.45,0.18,0.89,0.4,1.31,0.63c0.25,0.14,0.48,0.3,0.71,0.46c0.18,0.12,0.37,0.25,0.53,0.38
			c0.26,0.2,0.52,0.41,0.75,0.64c0.08,0.08,0.16,0.16,0.25,0.26c0.56,0.56,1.05,1.17,1.47,1.84l0,0l0,0
			c0.16,0.26,0.31,0.53,0.45,0.8c0.18,0.35,0.35,0.72,0.49,1.09c0.05,0.15,0.11,0.31,0.15,0.48c0.04,0.14,0.1,0.27,0.14,0.41
			c2.04,0.75,4.31,1.72,6.78,3c1.1,0.57,2.22,1.17,3.39,1.87c13.67,8.11,31.42,22.96,39.86,26.78l7.53-5.33
			C378.93,368.01,352.5,347.88,352.5,347.88z"/>
		<path class="st10" d="M302.08,358.02c0.04,0.12,0.07,0.27,0.1,0.4c0.01,0,0.03,0.01,0.04,0.01
			C302.18,358.29,302.14,358.16,302.08,358.02z"/>
		<path class="st10" d="M293.79,350.85c-0.55-0.1-1.1-0.15-1.69-0.15C292.67,350.68,293.23,350.75,293.79,350.85z"/>
		<path class="st10" d="M301.93,357.54c-0.15-0.38-0.31-0.74-0.49-1.09C301.62,356.81,301.79,357.17,301.93,357.54z"/>
		<path class="st10" d="M300.99,355.65L300.99,355.65L300.99,355.65z"/>
		<path class="st10" d="M299.26,353.55c0.08,0.08,0.16,0.18,0.25,0.26C299.44,353.72,299.35,353.63,299.26,353.55z"/>
		<path class="st10" d="M297.27,352.06c-0.42-0.25-0.86-0.45-1.31-0.63C296.41,351.61,296.85,351.83,297.27,352.06z"/>
		<path class="st10" d="M298.51,352.91c-0.18-0.14-0.35-0.26-0.53-0.38C298.15,352.65,298.33,352.77,298.51,352.91z"/>
		<path class="st10" d="M295.43,351.26c-0.37-0.12-0.74-0.23-1.13-0.31C294.68,351.03,295.06,351.13,295.43,351.26z"/>
		<path class="st10" d="M302.08,358.02c-0.05-0.16-0.1-0.31-0.15-0.48C301.99,357.71,302.04,357.86,302.08,358.02z"/>
		<path class="st10" d="M301.44,356.45c-0.14-0.27-0.29-0.55-0.45-0.8C301.15,355.91,301.3,356.18,301.44,356.45z"/>
		<path class="st10" d="M294.3,350.94c-0.18-0.04-0.34-0.07-0.52-0.11C293.96,350.88,294.13,350.9,294.3,350.94z"/>
		<path class="st10" d="M298.51,352.91c0.26,0.2,0.52,0.41,0.75,0.64C299.03,353.33,298.77,353.11,298.51,352.91z"/>
		<path class="st10" d="M300.99,355.65c-0.42-0.67-0.91-1.28-1.47-1.84C300.06,354.37,300.57,354.98,300.99,355.65z"/>
		<path class="st10" d="M297.98,352.53c-0.23-0.16-0.46-0.33-0.71-0.46C297.51,352.21,297.75,352.36,297.98,352.53z"/>
		<path class="st10" d="M295.96,351.43c-0.18-0.07-0.35-0.12-0.53-0.18C295.6,351.31,295.78,351.37,295.96,351.43z"/>
		<polygon class="st10" points="291.24,350.55 291.24,350.55 292.1,350.68 		"/>
		<polygon class="st10" points="272.7,347.48 272.7,347.48 277.05,348.2 277.05,348.2 		"/>
		<polygon class="st10" points="272.71,347.56 277.05,348.2 272.7,347.48 		"/>
		<path class="st10" d="M269.25,316.85l3.45,30.63l4.35,0.72l14.25,2.11l4.73,0.71c1.61-3.67,2.54-19.66,2.93-28.11
			c0.15-3.16,0.22-5.26,0.22-5.26C292.61,325.03,269.25,316.85,269.25,316.85z"/>
		<path class="st10" d="M312.39,363.3c-1.17-0.7-2.29-1.31-3.39-1.87c-2.45-1.28-4.73-2.25-6.78-3c0.11,0.37,0.19,0.75,0.26,1.15
			l5.55,46.18l0.5,4.14c0.04-0.22,0.1-0.38,0.18-0.45c0.23-0.19,0.89-1.6,2.24-3.46c0.5-0.68,1.09-1.43,1.81-2.21
			c4.53-4.92,13.66-10.84,31.49-8.04l8-5.67C343.81,386.27,326.06,371.42,312.39,363.3z"/>
		<path class="st10" d="M359.79,414.32c0.33-3.56-3.42-9.07-6.52-12.98c-2.13-2.67-3.95-4.61-3.95-4.61
			c-1.77-0.41-3.45-0.72-5.09-0.98c-17.83-2.79-26.97,3.11-31.49,8.04c-0.71,0.78-1.31,1.51-1.81,2.21c-1.36,1.87-2,3.27-2.24,3.46
			c-0.08,0.07-0.14,0.23-0.18,0.45l2.11,17.53c1.4,4.19,17.64-5,13.41-1.13c-2.78,2.54,0.85,5.7,4.61,7.87
			c2.07,1.19,2.81,0.04,3.94,0.37c2.19,0.64,8.04-1.96,12.41-5.19c1.98-1.46,3.93-2.63,5.62-2.86c2.48-0.34,4.5-1.68,6-3.59
			C356.75,422.75,359.53,417.16,359.79,414.32z"/>
		<path class="st10" d="M310.64,427.43l-2.11-17.53l-0.5-4.14l-5.55-46.18c-0.07-0.4-0.19-0.78-0.29-1.16
			c-0.04-0.14-0.05-0.27-0.1-0.4c-0.05-0.16-0.1-0.31-0.15-0.48c-0.14-0.38-0.31-0.74-0.49-1.09c-0.14-0.27-0.29-0.55-0.45-0.8l0,0
			c-0.42-0.67-0.93-1.28-1.47-1.84c-0.08-0.08-0.16-0.18-0.25-0.26c-0.25-0.23-0.49-0.44-0.75-0.64c-0.18-0.14-0.35-0.26-0.53-0.38
			c-0.23-0.16-0.46-0.33-0.71-0.46c-0.42-0.23-0.86-0.45-1.31-0.63c-0.18-0.07-0.35-0.12-0.53-0.18c-0.37-0.12-0.74-0.23-1.13-0.31
			c-0.16-0.04-0.34-0.07-0.52-0.11c-0.55-0.1-21.06-3.29-21.06-3.29l-61.5-9.76c-1.05-0.16-1.94,0.78-1.69,1.81l7.92,67.28
			c0.22,1.87,1.58,3.41,3.42,3.84l90.37,21.61L310.64,427.43z"/>
		<path class="st7" d="M347.21,293.98c0,0,27.57-18.35,27.57-20.75s-13.22-51.7-13.22-51.7"/>
		<line class="st7" x1="355.19" y1="306.31" x2="367.12" y2="315.03"/>
		<path class="st7" d="M412.49,292.05l-15.79,14.23c0,0,11.21,13.7,13.31,11.89c2.1-1.8-28.03,45.52-28.03,45.52"/>
		<path class="st7" d="M465.54,298.88c0,0-18.64,32.06-23.14,32.06c-4.51,0-19.45-16.97-19.45-16.97"/>
		<path class="st7" d="M349.32,396.72c0,0,74.75-2.67,81.06-19.8"/>
		<g>
			<path class="st10" d="M454.87,426.48c9.34-9.18,31.75-47.93,37.76-79.37c2.43-12.65,2.21-24.1-2.59-31.97
				c0,0-15.53-13.35-25.23-12.61l0.72-3.64l-12.12-6.71c-9.53,12.35-40.44,27.83-43.39,26.01c-2.28-1.39,0.7-17.49,2.48-26.13
				c-2-0.18-11.41-0.97-19.36-0.9c-5.62,0.04-10.5,0.5-11.53,1.91c-0.76,1.05-3.52,6.07-7.05,12.67c-3.2,6-7.05,13.31-10.62,20.14
				c-6.12,11.7-11.45,22.02-11.45,22.02s26.45,20.14,7.28,36.88l-7.53,5.33l-8,5.67c1.62,0.26,3.31,0.57,5.09,0.98
				c0,0,1.83,1.94,3.95,4.61c3.11,3.91,6.86,9.43,6.52,12.98c-0.27,2.85-1.13,5.55-2.54,7.7l-0.27,0.41
				c-0.11,0.16-0.23,0.31-0.35,0.46c0,0,53.96,7.8,85.67,8.33c0.65,0.01,1.3-0.08,1.91-0.27
				C446.62,430.22,453.11,428.2,454.87,426.48z"/>
		</g>
		<path class="st10" d="M312.33,140.97c0,0-3.16-3.57-5.52-4.72c-4.17-2.02-7.85-2.58-7.85-2.58s0.48,12.75,7.81,14.96
			c5.4,1.62,5.24-7.53,5.24-7.53c2.49-1.87,3.52,0.97,3.52,0.97s6,18.53,13.31,3.72c1.06-2.14,2.84-8.13,2.84-8.13"/>
		<path class="st10" d="M315.17,141.58c0.41-0.72,5.6-7.27,16.48-3.89l14.61-1.19"/>
		<line class="st10" x1="298.94" y1="133.69" x2="310.08" y2="131.83"/>
		<path class="st10" d="M345.07,136.96c0,0,5.49-5.9,7.68-0.82c2.18,5.09-0.89,13.78-8.04,13.06"/>
		<path class="st10" d="M346.25,140.35c0,0,2.59-2.4,3.61-0.34c1.02,2.07-0.41,5.62-3.79,5.32"/>
		<path class="st10" d="M457.16,264.55c0,0,4.98-3.97,5.6,3.08c0.31,3.45-1.02,5.18-3.67,5.51"/>
		<path class="st10" d="M446.06,207.62c0,0-9.13,2.48-7.7,6.2"/>
		<line class="st10" x1="440.81" y1="431.41" x2="545.03" y2="446.7"/>
		<line class="st10" x1="2.59" y1="362.44" x2="36.2" y2="367.4"/>
		<path class="st10" d="M192.03,393.66c0.2,0,25.03,3.74,25.03,3.74"/>
		<polyline class="st10" points="377.1,426.28 363.73,463.8 274.57,451.17 295.37,428.5 		"/>
		<polygon class="st10" points="161.26,413.27 235.2,428.5 167.21,460.46 96.63,448.57 		"/>
		<polygon class="st10" points="280.14,427.77 242.25,434.45 245.6,443.74 286.46,436.68 		"/>
	</g>
</g>
<path class="st10" d="M310.64,427.43l-2.11-17.53l-0.5-4.14l-5.55-46.18c-0.07-0.4-0.19-0.78-0.29-1.16
	c-0.04-0.14-0.05-0.27-0.1-0.4c-0.05-0.16-0.1-0.31-0.15-0.48c-0.14-0.38-0.31-0.74-0.49-1.09c-0.14-0.27-0.29-0.55-0.45-0.8l0,0
	c-0.42-0.67-0.93-1.28-1.47-1.84c-0.08-0.08-0.16-0.18-0.25-0.26c-0.25-0.23-0.49-0.44-0.75-0.64c-0.18-0.14-0.35-0.26-0.53-0.38
	c-0.23-0.16-0.46-0.33-0.71-0.46c-0.42-0.23-0.86-0.45-1.31-0.63c-0.18-0.07-0.35-0.12-0.53-0.18c-0.37-0.12-0.74-0.23-1.13-0.31
	c-0.16-0.04-0.34-0.07-0.52-0.11c-0.55-0.1-21.06-3.29-21.06-3.29l-61.5-9.76c-1.05-0.16-1.94,0.78-1.69,1.81l7.92,67.28
	c0.22,1.87,1.58,3.41,3.42,3.84l90.37,21.61L310.64,427.43z"/>
<g>
	<g>
		<path class="st0" d="M287.07,42.63c0-22.25,21.04-40.29,46.98-40.29s46.98,18.04,46.98,40.29s-21.04,40.29-46.98,40.29
			c-3.44,0-10.27-0.37-10.27-0.37c-29.54-2.39-34.21,5.3-34.74,9.16l-1.88-46.54C287.11,44.32,287.07,43.49,287.07,42.63z"/>
	</g>
	<g>
		<path class="st10" d="M287.07,42.63c0-22.25,21.04-40.29,46.98-40.29s46.98,18.04,46.98,40.29s-21.04,40.29-46.98,40.29
			c-3.44,0-10.27-0.37-10.27-0.37c-29.54-2.39-34.21,5.3-34.74,9.16l-1.88-46.54C287.11,44.32,287.07,43.49,287.07,42.63z"/>
	</g>
</g>
<g>
	<g>
		<path class="st0" d="M436.33,103.59c0-22.25,21.04-40.29,46.98-40.29s46.98,18.04,46.98,40.29s-21.04,40.29-46.98,40.29
			c-3.44,0-10.27-0.37-10.27-0.37c-29.54-2.39-34.21,5.3-34.74,9.16l-1.88-46.54C436.37,105.29,436.33,104.44,436.33,103.59z"/>
	</g>
	<g>
		<path class="st0" d="M430.97,105.99c0-22.25,21.04-40.29,46.98-40.29s46.98,18.04,46.98,40.29s-21.04,40.29-46.98,40.29
			c-3.44,0-10.27-0.37-10.27-0.37c-29.54-2.39-34.21,5.3-34.74,9.16l-1.88-46.54C431.01,107.69,430.97,106.84,430.97,105.99z"/>
		<path class="st0" d="M400.92,157.15c0,0-0.34-0.85-0.11-2.09L400.92,157.15z"/>
	</g>
	<g>
		<path class="st10" d="M437.2,103.59c0-22.25,21.04-40.29,46.98-40.29s46.98,18.04,46.98,40.29s-21.04,40.29-46.98,40.29
			c-3.44,0-10.27-0.37-10.27-0.37c-29.54-2.39-34.21,5.3-34.74,9.16l-1.88-46.54C437.24,105.29,437.2,104.44,437.2,103.59z"/>
		<g id="_x34__2_">
			<path class="st17" d="M484.18,76.42c-15.35,0-27.84,12.49-27.84,27.84c0,5.97,1.89,11.52,5.11,16.06
				c0.05,0.12,0.12,0.23,0.22,0.33c0.01,0.01,0.01,0.01,0.03,0.03c5.07,6.93,13.25,11.44,22.48,11.44
				c15.35,0,27.84-12.49,27.84-27.84C512.03,88.9,499.54,76.42,484.18,76.42z M508.35,95.77c-1.61,1.49-4.89,1.92-9.53,1.25
				c-0.5-0.07-0.98,0.2-1.19,0.65c-0.2,0.46-0.07,1,0.33,1.31c1.85,1.49,5.71,4.57,5.71,6.37c0,1.2-0.56,1.92-1.5,3.09
				c-1.08,1.35-2.54,3.22-3.48,6.64c-1.16,4.23-2.97,6.78-5.4,7.59c-0.27,0.1-0.83-0.01-1.39-0.46c-0.57-0.46-1.9-1.87-1.6-5.06
				c0.6-6.58-1.84-11.66-5.94-12.34c-3.01-0.5-4.42-3.44-4.21-5.93c0.08-0.97,0.64-4.1,4.58-4.1c5.59,0,8.19,1.96,8.22,1.98
				c0.44,0.34,1.05,0.33,1.46-0.05c0.08-0.08,0.85-0.83,0.87-2.15c0.03-1.27-0.64-2.59-1.96-3.9c-2.45-2.45-5.45-3.64-10.69-4.21
				c-1.35-0.15-1.87-0.71-1.85-0.97c0.04-0.44,1.3-1.55,4.98-1.27c3.09,0.25,5.33-0.35,6.67-1.76c0.65-0.68,0.95-1.42,1.1-2.03
				C500.44,83.14,505.88,88.75,508.35,95.77z M470.07,82.9c-0.12,1.43-0.45,3.16-1.16,3.87c-1,1-2.64,1.24-4.53,1.25
				C466,86.04,467.93,84.32,470.07,82.9z M459.2,98.62c1.09,1.27,2.71,1.95,3.86,2.44c0.38,0.16,0.85,0.35,1.15,0.52
				c-1.04,1.49-2.43,4.69-1.8,8.23c0.55,3.04,2.43,5.62,5.58,7.63c4.74,3.05,6.13,4.38,6.49,4.94c-0.18,0.07-0.5,0.18-1.06,0.27
				c-2.93,0.49-7.96-1.51-10.03-3.46c-3.03-4.21-4.81-9.35-4.81-14.93C458.56,102.32,458.79,100.44,459.2,98.62z M484.18,129.87
				c-6.08,0-11.68-2.14-16.07-5.7c1.5,0.48,3.03,0.76,4.39,0.76c0.45,0,0.89-0.03,1.3-0.1c0.8-0.14,2.67-0.45,2.99-1.94
				c0.34-1.68-1.43-3.39-7.58-7.35c-2.6-1.68-4.16-3.75-4.58-6.16c-0.53-2.97,0.76-5.7,1.54-6.71c0.52-0.7,0.5-1.3,0.4-1.69
				c-0.29-1.04-1.36-1.49-2.62-2.02c-2.15-0.91-3.68-1.7-3.68-3.65c0-0.05-0.01-0.1-0.01-0.14c0.67-1.76,1.53-3.44,2.55-4.99
				c0.49,0.01,1,0.04,1.47,0.04c2.45,0,4.68-0.34,6.24-1.91c1.76-1.76,1.87-5.63,1.87-6.79c3.54-1.85,7.57-2.9,11.83-2.9
				c2.51,0,4.94,0.37,7.23,1.05c-0.04,0.31-0.18,0.8-0.59,1.23c-0.85,0.89-2.54,1.25-4.89,1.08c-4.84-0.37-7.18,1.38-7.38,3.29
				c-0.14,1.42,1.01,3.07,3.82,3.38c4.68,0.52,7.31,1.53,9.35,3.57c0.85,0.85,1.19,1.51,1.28,2.02c-1.47-0.72-4.19-1.69-8.29-1.69
				c-3.82,0-6.49,2.41-6.8,6.15c-0.29,3.49,1.73,7.59,6.07,8.32c2.85,0.48,4.57,4.65,4.09,9.94c-0.38,4.28,1.57,6.33,2.44,7.01
				c0.8,0.64,1.72,0.98,2.56,0.98c0.31,0,0.63-0.04,0.91-0.15c3.19-1.06,5.48-4.13,6.84-9.12c0.82-2.99,2.02-4.5,3.07-5.83
				c1.02-1.28,1.98-2.49,1.98-4.49c0-1.92-1.61-3.86-3.8-5.82c2.99,0.07,5.3-0.44,6.94-1.51c0.5,1.99,0.76,4.08,0.76,6.22
				C509.79,118.39,498.3,129.87,484.18,129.87z"/>
		</g>
	</g>
</g>
<g>
	<g>
		<path class="st0" d="M177.34,60.37c0-22.25-21.04-40.29-46.98-40.29S83.38,38.12,83.38,60.37s21.04,40.29,46.98,40.29
			c3.44,0,10.27-0.37,10.27-0.37c29.54-2.39,34.21,5.3,34.74,9.16l1.88-46.54C177.3,62.06,177.34,61.21,177.34,60.37z"/>
	</g>
	<g>
		<path class="st10" d="M177.34,60.37c0-22.25-21.04-40.29-46.98-40.29S83.38,38.12,83.38,60.37s21.04,40.29,46.98,40.29
			c3.44,0,10.27-0.37,10.27-0.37c29.54-2.39,34.21,5.3,34.74,9.16l1.88-46.54C177.3,62.06,177.34,61.21,177.34,60.37z"/>
	</g>
</g>
<path class="st9" d="M388.28,104.35c-8.62-12.01-23.3,4.59-23.3,4.59c-16.61-19.35-37.91-4.1-37.91-4.1
	c-28.06,6.76-24.13,27.91-18.87,31.06c0.5,0.3,3.71-7.76,6.42-10.92c3.97-4.62,12.45-4.21,12.45-4.21
	c1.42,6.16,10.59,11.38,17.55,16.56c1.55,1.16,3.61-4.7,5.21-4.29c9.6,2.47,0.91,15.99,0.91,15.99s-2.54,16.77-2.18,17.68
	c0.7,1.83,2,4.31,3.6,2.7c0.95-0.95,2.13-6.78,4.5-7.88c3.57-1.68,9.18,1.04,15.35-3.03c9.19-6.05,3.84-21.39,2.63-24.51
	c-0.2-0.33-0.23-0.57-0.23-0.57s0.08,0.2,0.23,0.57c0.68,1.08,3.46,3.08,14.82,0.74C404.29,131.66,393.27,111.3,388.28,104.35z"/>
<path class="st10" d="M318.75,160.37c0,0,3.16,0.87,7.33-2.19"/>
<path class="st10" d="M415.82,275.23c0,0,4.24,1.06,8.13-1.42"/>
<path class="st10" d="M480.73,229.62c0,0,11.11,1.35,9.19,10.58c0,0,10.67-7.08,7.31-11.03"/>
<path class="st10" d="M477.09,267.93c0.49-0.27,11.27-5.9,7.43-13.33"/>
<path class="st10" d="M488.35,258.92c0,0,4.32-4.57,2.04-12"/>
<path class="st10" d="M489.92,240.2c0,0,6.95-2.75,7.8,0.85"/>
<path class="st10" d="M455.87,259.04l-37.59-18.91c-0.18-0.08-0.38-0.08-0.55,0c-0.55,0.29-1.62,0.91-1.73,0.86
	c-0.91-0.46-1.76-0.89-2.52-1.3c-0.19-0.1,0.48-1.08,0.48-1.08l-3.67-1.85c-0.46-0.23-1.04-0.11-1.35,0.31l-3.87,5.11
	c-1.73,2.3-0.78,5.62,1.91,6.64l0,0l5.47-5.83l0,0c1.05,0.27,1.55,1.46,1.05,2.41l-1.01,3.87c-0.23,0.89,0.07,1.83,0.76,2.41
	l2.17,1.84c5.28,3.76,10.43,3.59,13.88-0.38l2.7-6.01L455.87,259.04z"/>
<path class="st18" d="M105.48,167.36c-2.63-0.23-4.51-3.52-3.22-5.56c0.78-1.24,2.21-0.61,3.22,0.08c0.65,0.45,1.12,0.91,1.12,0.91
	s-3.04-3.04-4.34-1C100.97,163.84,102.83,167.13,105.48,167.36z"/>
<g>
	<path class="st8" d="M350.57,65.62h-33.02c-0.18,0-0.34-0.08-0.44-0.22c-0.1-0.14-0.12-0.33-0.07-0.49l1.43-4.31
		c0.07-0.22,0.27-0.37,0.5-0.37h30.14c0.23,0,0.44,0.15,0.5,0.37l1.43,4.31c0.05,0.16,0.03,0.34-0.07,0.49
		C350.9,65.54,350.74,65.62,350.57,65.62z M318.3,64.54h31.52l-1.08-3.23h-29.37L318.3,64.54z"/>
	<path class="st8" d="M345.54,61.31h-22.97c-0.18,0-0.34-0.08-0.44-0.22c-0.1-0.14-0.12-0.33-0.07-0.49l1.43-4.31
		c0.07-0.22,0.27-0.37,0.5-0.37h20.1c0.23,0,0.44,0.15,0.5,0.37l1.43,4.31c0.05,0.16,0.03,0.34-0.07,0.49
		C345.88,61.23,345.72,61.31,345.54,61.31z M323.32,60.23h21.47L343.72,57H324.4L323.32,60.23z"/>
	<path class="st8" d="M339.8,57h-11.48c-0.16,0-0.31-0.07-0.41-0.19c-0.11-0.12-0.15-0.29-0.12-0.44l5.74-31.57
		c0.04-0.26,0.27-0.44,0.53-0.44c0.26,0,0.48,0.19,0.53,0.44l5.74,31.57c0.03,0.16-0.01,0.31-0.12,0.44
		C340.12,56.93,339.97,57,339.8,57z M328.96,55.92h10.2l-5.1-28.03L328.96,55.92z"/>
	<path class="st8" d="M355.59,44.08h-12.92c-0.18,0-0.34-0.08-0.44-0.23c-0.1-0.14-0.12-0.33-0.07-0.49l6.46-18.66
		c0.07-0.22,0.27-0.37,0.5-0.37c0.23,0,0.44,0.15,0.5,0.37l6.46,18.66c0.05,0.16,0.03,0.34-0.07,0.49
		C355.93,44,355.77,44.08,355.59,44.08z M343.43,43h11.41l-5.7-16.48L343.43,43z"/>
	<path class="st8" d="M354.16,48.39h-10.05c-0.18,0-0.35-0.1-0.45-0.25l-2.88-4.31c-0.11-0.16-0.12-0.38-0.03-0.56
		s0.27-0.29,0.48-0.29h15.79c0.2,0,0.38,0.11,0.48,0.29c0.1,0.18,0.08,0.38-0.03,0.56l-2.88,4.31
		C354.5,48.3,354.34,48.39,354.16,48.39z M344.4,47.31h9.47l2.15-3.23h-13.78L344.4,47.31z"/>
	<path class="st8" d="M325.45,44.08h-12.92c-0.18,0-0.34-0.08-0.44-0.23c-0.1-0.14-0.12-0.33-0.07-0.49l6.46-18.66
		c0.07-0.22,0.27-0.37,0.5-0.37c0.23,0,0.44,0.15,0.5,0.37l6.46,18.66c0.05,0.16,0.03,0.34-0.07,0.49
		C325.79,44,325.62,44.08,325.45,44.08z M313.29,43h11.41L319,26.52L313.29,43z"/>
	<path class="st8" d="M324.02,48.39h-10.05c-0.18,0-0.35-0.1-0.45-0.25l-2.88-4.31c-0.11-0.16-0.12-0.38-0.03-0.56
		s0.27-0.29,0.48-0.29h15.79c0.2,0,0.38,0.11,0.48,0.29c0.1,0.18,0.08,0.38-0.03,0.56l-2.88,4.31
		C324.36,48.3,324.19,48.39,324.02,48.39z M314.25,47.31h9.47l2.15-3.23H312.1L314.25,47.31z"/>
	<line class="st10" x1="318.48" y1="24.71" x2="349.2" y2="24.71"/>
</g>
<path class="st19" d="M144.1,79.26c1.77,0,3.37,0.72,4.53,1.88c1.16,1.16,1.88,2.75,1.88,4.53c0,1.77-0.72,3.37-1.88,4.53
	c-1.16,1.16-2.75,1.88-4.53,1.88c-1.7,0-3.24-0.67-4.4-1.76c-1.89,0.71-3.59,1-5.1,1c-3.34-0.04-5.73-1.57-7.38-3.94
	c-1.57-2.21-2.45-5.18-2.9-8.28c-0.61-4.35-0.35-9.04,0.19-12.3c-3.35-0.35-6.39-1.79-8.73-3.98c-2.63-2.48-4.39-5.89-4.7-9.71
	c-0.04-0.12-0.05-0.25-0.05-0.38v-0.86v-0.04l0,0V38.37c-0.5-0.6-0.83-1.36-0.83-2.21c0-0.93,0.38-1.77,1-2.39
	c0.6-0.61,1.46-0.98,2.39-0.98s1.77,0.37,2.39,0.98c0.6,0.61,0.98,1.46,0.98,2.39c0,0.93-0.38,1.77-0.98,2.39
	c-0.6,0.6-1.42,0.97-2.32,0.98v12.31l0,0v0.04v0.6c0.01,0.07,0.01,0.12,0.04,0.18c0.19,3.27,1.65,6.18,3.9,8.28
	c2.21,2.07,5.19,3.35,8.48,3.35s6.28-1.28,8.49-3.35c2.21-2.07,3.67-4.98,3.9-8.18c0-0.11,0-0.19,0.01-0.26v-0.6l0,0v-0.04V39.54
	c-0.9-0.01-1.7-0.38-2.3-0.98c-0.61-0.61-0.98-1.46-0.98-2.39s0.37-1.77,0.98-2.39s1.46-0.98,2.39-0.98s1.77,0.37,2.39,0.98
	s0.98,1.46,0.98,2.39c0,0.85-0.3,1.62-0.83,2.21v13.47v0.04l0,0v0.86c0,0.14-0.01,0.26-0.05,0.38c-0.31,3.82-2.06,7.24-4.7,9.71
	c-2.44,2.3-5.66,3.78-9.2,4.04c-0.55,3.03-0.85,7.62-0.25,11.87c0.38,2.73,1.15,5.29,2.44,7.13c1.2,1.7,2.9,2.79,5.24,2.81
	c1.05,0.01,2.24-0.18,3.56-0.61c-0.3-0.74-0.48-1.57-0.48-2.4c0-1.77,0.72-3.37,1.88-4.53C140.72,79.99,142.33,79.26,144.1,79.26
	L144.1,79.26z M114.12,35.64c-0.14-0.14-0.33-0.2-0.53-0.2s-0.41,0.07-0.53,0.2c-0.14,0.14-0.23,0.31-0.23,0.53s0.08,0.38,0.23,0.53
	c0.12,0.12,0.31,0.2,0.53,0.2c0.19,0,0.38-0.08,0.53-0.2c0.12-0.14,0.2-0.31,0.2-0.53S114.24,35.79,114.12,35.64L114.12,35.64z
	 M139.11,35.64c-0.14-0.14-0.31-0.2-0.53-0.2c-0.2,0-0.38,0.07-0.53,0.2c-0.14,0.14-0.2,0.31-0.2,0.53s0.07,0.38,0.2,0.53
	c0.14,0.12,0.31,0.2,0.53,0.2c0.2,0,0.38-0.08,0.53-0.2c0.12-0.14,0.2-0.31,0.2-0.53S139.23,35.79,139.11,35.64L139.11,35.64z
	 M140.84,87.59c0.23,0.14,0.44,0.35,0.55,0.63c0.04,0.05,0.05,0.08,0.05,0.14c0.68,0.67,1.62,1.09,2.66,1.09s1.99-0.42,2.67-1.1
	c0.68-0.68,1.1-1.64,1.1-2.67c0-1.05-0.42-1.99-1.1-2.67c-0.68-0.68-1.64-1.1-2.67-1.1c-1.04,0-1.99,0.42-2.67,1.1
	c-0.68,0.68-1.1,1.62-1.1,2.67C140.32,86.38,140.52,87.02,140.84,87.59L140.84,87.59z"/>
<path class="st7" d="M137.73,190.62c0,0-2.71,0-6.79-2.71"/>
</svg>
