<?xml version="1.0" encoding="utf-8"?>
<!-- Generator: Adobe Illustrator 24.0.3, SVG Export Plug-In . SVG Version: 6.00 Build 0)  -->
<svg version="1.1" id="Layer_1" xmlns="http://www.w3.org/2000/svg" xmlns:xlink="http://www.w3.org/1999/xlink" x="0px" y="0px"
	 viewBox="0 0 1280 169" style="enable-background:new 0 0 1280 169;" xml:space="preserve">
<style type="text/css">
	.st0{clip-path:url(#SVGID_2_);}
	.st1{clip-path:url(#SVGID_4_);}
	.st2{fill:#478FB9;}
	.st3{fill:#82B2D0;}
	.st4{fill:none;stroke:#82B2D0;stroke-miterlimit:10;}
	.st5{fill:none;}
	.st6{fill:#3C769D;}
	.st7{fill:none;stroke:#245486;stroke-miterlimit:10;}
	.st8{fill:#245486;}
	.st9{fill:#68A3BB;}
	.st10{fill:#79ABC2;}
	.st11{fill:#44799D;}
	.st12{fill:#386FA0;}
	.st13{fill:#245486;stroke:#245486;stroke-width:1.005;stroke-miterlimit:10;}
	.st14{fill:#638EAD;}
	.st15{fill:#6291A6;}
	.st16{fill:#74ABC4;}
</style>
<title>Services header</title>
<g>
	<defs>
		<rect id="SVGID_1_" width="1280" height="169"/>
	</defs>
	<clipPath id="SVGID_2_">
		<use xlink:href="#SVGID_1_"  style="overflow:visible;"/>
	</clipPath>
	<g class="st0">
		<g>
			<defs>
				<rect id="SVGID_3_" x="-1.54" y="-0.22" width="1283.08" height="171.86"/>
			</defs>
			<clipPath id="SVGID_4_">
				<use xlink:href="#SVGID_3_"  style="overflow:visible;"/>
			</clipPath>
			<g class="st1">
				<rect x="-1.54" y="-0.22" class="st2" width="1283.08" height="171.86"/>
			</g>
		</g>
		<path class="st3" d="M184.34,23.81c-0.49,0-0.99,0.03-1.48,0.08c0.01-0.22,0.02-0.44,0.02-0.66c0-8.55-6.93-15.47-15.47-15.47
			c-5.91,0-11.3,3.36-13.9,8.67c-6.55-2.66-14.06-0.28-17.89,5.67c-9.25,0.54-16.31,8.49-15.77,17.74
			c0.54,9.25,8.49,16.31,17.74,15.77c3.21-0.19,6.29-1.29,8.89-3.18h37.86c7.9,0.01,14.31-6.39,14.32-14.29
			c0.01-7.9-6.39-14.31-14.29-14.32C184.35,23.81,184.34,23.81,184.34,23.81L184.34,23.81z"/>
		<circle class="st4" cx="877.4" cy="168.58" r="43.97"/>
		<circle class="st4" cx="1258.71" cy="0.44" r="43.97"/>
		<path class="st4" d="M703.34,159.27l25.66-18.29c0.7-0.5,1.66-0.33,2.16,0.36l18.29,25.66c0.5,0.7,0.33,1.66-0.36,2.16
			l-25.66,18.29c-0.7,0.5-1.66,0.33-2.16-0.36l-18.29-25.66C702.49,160.73,702.65,159.77,703.34,159.27z"/>
		<circle class="st4" cx="792.2" cy="8.56" r="43.97"/>
		<circle class="st4" cx="460.86" cy="161.36" r="22.59"/>
		<path class="st4" d="M-7.1,142.83l25.66-18.29c0.7-0.5,1.66-0.33,2.16,0.36l18.29,25.66c0.5,0.7,0.33,1.66-0.36,2.16l-25.66,18.29
			c-0.7,0.5-1.66,0.33-2.16-0.36l-18.29-25.66C-7.96,144.29-7.8,143.32-7.1,142.83z"/>
		<path class="st4" d="M1074.67,111.91l41.29,27.76c1.12,0.75,1.42,2.27,0.66,3.39l-27.76,41.29c-0.75,1.12-2.27,1.42-3.39,0.66
			l-41.29-27.76c-1.12-0.75-1.42-2.27-0.66-3.39l27.76-41.29C1072.03,111.46,1073.55,111.16,1074.67,111.91z"/>
		<path class="st4" d="M294.77-11.02l22.4,26.29c0.61,0.71,0.52,1.78-0.19,2.39l-26.29,22.4c-0.71,0.61-1.78,0.52-2.39-0.19
			l-22.4-26.29c-0.61-0.71-0.52-1.78,0.19-2.39l26.29-22.4C293.1-11.81,294.17-11.73,294.77-11.02z"/>
		<path class="st4" d="M1035.07-1.95l40.16,51.62c0.35,0.45,1,0.53,1.45,0.18c0.14-0.11,0.26-0.26,0.32-0.43l24.62-60.59
			c0.22-0.53-0.04-1.13-0.57-1.35c-0.17-0.07-0.35-0.09-0.53-0.07l-64.78,8.97c-0.57,0.08-0.96,0.6-0.88,1.17
			C1034.88-2.27,1034.96-2.1,1035.07-1.95z"/>
		<path class="st4" d="M542.45-17.35l10.92,64.48c0.1,0.56,0.63,0.94,1.19,0.85c0.18-0.03,0.35-0.11,0.49-0.22l50.39-41.7
			c0.44-0.36,0.5-1.02,0.14-1.46c-0.12-0.14-0.27-0.25-0.44-0.31l-61.3-22.79c-0.54-0.2-1.13,0.07-1.33,0.61
			C542.43-17.71,542.42-17.53,542.45-17.35z"/>
		<path class="st4" d="M36.38,76.79l-8.07-64.9c-0.07-0.57-0.59-0.97-1.16-0.9c-0.18,0.02-0.35,0.09-0.5,0.2l-52.17,39.44
			c-0.46,0.35-0.55,1-0.2,1.45c0.11,0.15,0.26,0.26,0.42,0.33l60.24,25.46c0.53,0.22,1.14-0.02,1.36-0.55
			C36.38,77.15,36.41,76.97,36.38,76.79z"/>
		<polyline class="st5" points="905.91,171.76 -15.97,171.76 -15.97,-0.1 1267.11,-0.1 1267.11,171.76 905.91,171.76 		"/>
		<path class="st4" d="M361.45,24.53h102.07c2.7,0,4.89,2.19,4.89,4.89v72.57c0,2.7-2.19,4.89-4.89,4.89H361.45
			c-2.7,0-4.89-2.19-4.89-4.89V29.42C356.55,26.72,358.74,24.53,361.45,24.53z"/>
		<circle class="st3" cx="428.67" cy="51.03" r="2.78"/>
		<path class="st4" d="M431.35,46.56c-2.4-1.5-5.55-0.77-7.05,1.63s-0.77,5.55,1.63,7.05c2.4,1.5,5.55,0.77,7.04-1.63
			c0.98-1.57,1.04-3.54,0.15-5.16"/>
		<ellipse class="st6" cx="369.76" cy="81.52" rx="12.93" ry="8.39"/>
		<path class="st6" d="M436.69,71.63c0.93-2.41,1.51-3.75-0.74-3.89c-1.67-0.11-1.67-1.69-2.78-2.22c-1.29,0.13-2.47-0.74-2.73-2.01
			c-0.37-1.3-0.79,0.16-3.01,0.72s0.48-9.87-1.56-13.2c-0.99-1.63-2.06,5.51-2.24,10.7c-0.13,3.21-1.34,6.28-3.43,8.72
			c-0.37,0.56,0.01,3.97,0.2,7.12c0,1.09-0.07,2.19-0.23,3.27c3.26,2.82,8.16,1.6,9.89,2.41C430.27,81.48,435.77,74.04,436.69,71.63
			z"/>
		<path class="st3" d="M429.76,82.56c0,0-0.28-0.12-0.72-0.33c-1.73-0.81-6.63,0.4-9.89-2.41c-1.34-1.16-5.18,17.67-5.18,17.67
			s-13.24-18.94-21.78-20.99c-2.46-0.52-4.96-0.83-7.48-0.93c-2.4,2.02-5.01,6.08-9.23,7.54c-9.59,3.32-14.04-2.33-20.56-6.99
			c-2.87,1.06-15,5.39-18.43,7.22c-6.56,3.51-17.67,34.17-21.87,49.55c-3.43,12.53,3.76,41.25,8.54,42.62
			c1.19,0.32,2.43,0.41,3.66,0.26c1.69-0.2,3.34-0.64,4.9-1.31c0.15,1.27,0.6,2.49,1.31,3.56c0.34,0.47,0.84,0.79,1.41,0.9
			c6.74,1.12,49.39,0.58,64.83-0.74c3.36-0.29,5.43-0.61,5.57-0.96c3.07-8.24-1.94-61.82-1.94-61.82s19.85,22.68,24.16,1.77
			C428.16,111.76,429.76,82.56,429.76,82.56z"/>
		<path class="st7" d="M437.92,72.14c0.93-2.41,1.51-3.75-0.74-3.89c-1.67-0.11-1.67-1.69-2.78-2.22c-1.29,0.13-2.47-0.74-2.73-2.01
			c-0.37-1.3-0.79,0.16-3.01,0.72s0.48-9.87-1.56-13.2c-0.99-1.63-2.06,5.51-2.24,10.7c-0.13,3.21-1.34,6.28-3.43,8.72
			c-0.37,0.56,0.01,3.97,0.2,7.12c0,1.09-0.07,2.19-0.23,3.27c3.26,2.82,8.16,1.6,9.89,2.41C431.49,81.99,436.99,74.55,437.92,72.14
			z"/>
		<path class="st7" d="M432,84.08c0,0-0.28-0.12-0.72-0.33c-1.73-0.81-6.63,0.4-9.89-2.41c-1.34-1.16-5.18,17.67-5.18,17.67
			s-13.24-18.94-21.78-20.99c-2.46-0.52-4.96-0.83-7.48-0.93c-2.4,2.02-5.01,6.08-9.23,7.54c-9.59,3.32-14.04-2.33-20.56-6.99
			c-2.87,1.06-15,5.39-18.43,7.22c-6.56,3.51-17.67,34.17-21.87,49.55c-3.43,12.53,3.76,41.25,8.54,42.62
			c1.19,0.32,2.43,0.41,3.66,0.26c1.69-0.2,3.34-0.64,4.9-1.31c0.15,1.27,0.6,2.49,1.31,3.56c0.34,0.47,0.84,0.79,1.41,0.9
			c6.74,1.12,49.39,0.58,64.83-0.74c3.36-0.29,5.43-0.61,5.57-0.96c3.07-8.24-1.94-61.82-1.94-61.82s19.85,22.68,24.16,1.77
			C430.4,113.28,432,84.08,432,84.08z"/>
		<path class="st8" d="M400.17,50.46c-3.6-6.54-2.64-14.06-6.75-19.36s-6.83-0.54-9.57-4.33s-14.67-4.83-17.12-0.22
			c-3.43,6.46-5.5,4.69-10.29,7.72s-3.6,14.49-10.74,22.5c-5.99,6.72,3.59,8.78,3.13,16.64c-0.32,5.37,6.92,4.29,8.63,8.48
			c2.84,6.96,12.64-4.93,23.03,2.12c3.38,2.29,6.17-5.52,8.35-7.54c0.66-0.82,1.7-1.24,2.74-1.12c3.32,0.72,6.64-1.22,7.64-4.47
			c0.64-1.78,1.28-4.97,2.33-5.64C406.64,62.02,403.77,56.99,400.17,50.46z"/>
		<path class="st7" d="M333.96,175.97c0,0-1.79-41.09,0.85-51.66"/>
		<polygon class="st3" points="156.51,75.23 156.51,91.88 162.65,91.88 162.65,75.23 168.39,75.23 159.58,59.97 150.77,75.23 		"/>
		<path class="st7" d="M183.34,22.28c-0.49,0-0.99,0.03-1.48,0.08c0.01-0.22,0.02-0.44,0.02-0.66c0-8.55-6.93-15.47-15.47-15.47
			c-5.91,0-11.3,3.36-13.9,8.67c-6.55-2.66-14.06-0.27-17.89,5.67c-9.25,0.54-16.32,8.49-15.77,17.74
			c0.54,9.25,8.49,16.32,17.74,15.77c3.21-0.19,6.29-1.29,8.89-3.18h37.86c7.9,0.01,14.31-6.39,14.32-14.29
			c0.01-7.9-6.39-14.31-14.29-14.32C183.35,22.28,183.34,22.28,183.34,22.28L183.34,22.28z"/>
		<polygon class="st7" points="155.51,73.69 155.51,90.34 161.65,90.34 161.65,73.69 167.39,73.69 158.58,58.43 149.77,73.69 		"/>
		<path class="st5" d="M1179.31,94.9c-0.2-0.07-0.41-0.12-0.62-0.15L1179.31,94.9z"/>
		<path class="st9" d="M1159.87,82.59c3.02-3.46,0.86-7.34-0.86-16.63c-0.11-0.58-0.16-1.17-0.14-1.76l-1.77,7.26l-1.9,3.29
			c-0.17,0.3-0.15,0.68,0.06,0.96l1.6,2.13c0,0-1.07,5.76,2.71,6.92C1159.18,84.05,1159.31,83.17,1159.87,82.59z"/>
		<path class="st9" d="M1174.99,93.18c-0.46-1.54-0.73-3.14-0.79-4.74c-6.24,0.73-11.34-0.61-13.6-2.44
			c-0.17,1.17-0.48,3.17-0.88,4.95c-0.39,1.71-0.85,3.2-1.35,3.54c0,0-2.38,10.58,1.94,10.37c4.13-0.21,13.77-10.66,18.39-10.08
			c0.21,0.02,0.42,0.07,0.62,0.15L1174.99,93.18z"/>
		<path class="st8" d="M1093.18,128.65c-8.45-0.25-24.62,1.01-27.47,13.99c-1.25,5.7,5.7,9.14,15.69,11.19
			c2-4.95,3.91-9.45,5.48-12.7C1089.02,136.69,1091.01,132.41,1093.18,128.65z"/>
		<path class="st7" d="M1137,144.55l-0.63-0.15l0.12,2.38C1136.7,145.84,1136.88,145.08,1137,144.55z"/>
		<path class="st7" d="M1148.92,156.61c-0.05,0.84-0.12,1.53-0.17,2.04C1148.83,157.93,1148.89,157.25,1148.92,156.61z"/>
		<path class="st10" d="M1228.35,120.47c-8.91-14.31-29.34-18.83-40.67-20.26c0.02,0.03,0.04,0.06,0.06,0.1
			c2.81,4.97,22.25,52.27-0.65,51.4c-2.77-0.1-5.19-0.29-7.34-0.54c0.97,0.62,1.51,0.97,1.51,0.97c1.08,11.66-32.61,7.34-32.61,7.34
			s-5.18,25.27-14.47,21.6c-3.3-1.3-1.57-14.4,0.35-24.73c-5.02,0.2-17.05,0.56-29.68,0c-4.36,5.63-9.4,11.85-13.99,17.38
			c0.51,9.18,1.4,15.95,1.4,15.95l141.39,2.36C1233.65,192.05,1241.01,140.79,1228.35,120.47z"/>
		<path class="st3" d="M1133.82,114.14c-0.09-2.29-0.22-4.73-0.36-7.1c-0.21-3.8-0.44-7.4-0.58-9.87c-0.12-2.25-0.69-4.04-4.21-4.05
			l-34.37-0.54c-1.6-0.03-2.93,1.25-2.96,2.85l-0.48,23.09c0.08,4.38,2.32,5.25,5.22,5.16l0.37,0.01c3.77-4.88,8.41-8.06,15.26-8.06
			c2.19,0,5.53,0.98,9.57,2.61c3.69,1.49,7.96,3.52,12.51,5.86c0.04-0.27,0.08-0.59,0.1-0.96
			C1134.04,121.19,1133.97,117.86,1133.82,114.14z"/>
		<path class="st8" d="M1136.37,144.4l-20.55-5c0.66,1.24-4.36,8.4-10.97,16.95c12.63,0.56,24.66,0.21,29.68,0
			c0.71-3.82,1.45-7.25,1.97-9.57L1136.37,144.4z"/>
		<path class="st8" d="M1181.26,152.14c0,0-0.54-0.35-1.51-0.97c-4.2-2.69-16.63-10.59-29.94-18.26l-8.19-4.57l-0.58-0.32l0.08-0.01
			c-2.48-1.36-4.94-2.67-7.33-3.9c-4.54-2.34-8.82-4.37-12.51-5.86c-4.04-1.63-7.38-2.61-9.57-2.61c-6.85,0-11.49,3.17-15.26,8.06
			c-1.2,1.58-2.29,3.23-3.27,4.95c-2.18,3.76-4.16,8.04-6.31,12.48c-1.57,3.24-3.48,7.74-5.48,12.7
			c-6.24,15.5-13.31,35.47-13.31,35.47s0,0.03,0.01,0.08c1.32-0.32,2.15-0.51,2.15-0.51c2.39,0.07,4.77,0.29,7.13,0.65
			c1.11-1.11,6.8-7.7,13.48-15.77c4.59-5.54,9.63-11.76,13.99-17.38c6.62-8.55,11.63-15.72,10.97-16.95l20.55,5l0.63,0.15l3.65,0.89
			c0,0,8.78-0.74,8.27,11.16c-0.03,0.64-0.09,1.32-0.17,2.04c-0.06,0.52-0.1,0.84-0.1,0.84S1182.34,163.8,1181.26,152.14z"/>
		<path class="st7" d="M1148.64,159.48c0,0,0.05-0.31,0.1-0.84C1148.71,158.92,1148.69,159.19,1148.64,159.48z"/>
		<path class="st11" d="M1140.65,145.44l-3.65-0.89c-0.12,0.53-0.3,1.29-0.51,2.23c-0.52,2.32-1.26,5.75-1.97,9.57
			c-1.92,10.33-3.65,23.42-0.35,24.73c9.29,3.67,14.47-21.6,14.47-21.6c0.04-0.29,0.07-0.56,0.1-0.84c0.06-0.5,0.12-1.2,0.17-2.04
			C1149.44,144.7,1140.65,145.44,1140.65,145.44z"/>
		<path class="st9" d="M1149.81,132.91l6.85,3.82c-0.13-2.09-0.13-4.19,0-6.27c0.26-0.9-8.96-2.95-8.96-2.95l-6.54,0.5l0.15,0.11
			C1144.14,129.67,1146.99,131.29,1149.81,132.91z"/>
		<path class="st11" d="M1187.74,100.3c-0.02-0.03-0.04-0.06-0.06-0.1c-1.83-2.95-4.91-4.9-8.36-5.3l-0.62-0.15
			c-4.62-0.57-14.26,9.87-18.39,10.08c-4.32,0.22-1.94-10.37-1.94-10.37c0.5-0.33,0.97-1.83,1.35-3.54
			c-3.59-0.06-9.31-0.05-12.15,0.51c-3.67,0.73-11.55,11.76-14.1,15.59c0.13,2.37,0.26,4.81,0.36,7.1c0.15,3.73,0.22,7.06,0.08,9.01
			c-0.03,0.37-0.06,0.7-0.1,0.96c2.39,1.23,4.84,2.54,7.33,3.9l-0.08,0.01l0.58,0.32l-0.31-0.22l-0.15-0.11l6.54-0.5
			c0,0,9.22,2.05,8.96,2.95c-0.13,2.09-0.13,4.19,0,6.27l-6.85-3.82c13.31,7.67,25.74,15.56,29.94,18.26
			c2.14,0.25,4.57,0.43,7.34,0.54C1209.98,152.57,1190.54,105.27,1187.74,100.3z"/>
		<path class="st9" d="M1141.62,128.34l8.19,4.57c-2.82-1.62-5.68-3.24-8.5-4.79L1141.62,128.34z"/>
		<path class="st8" d="M1002.06,149.36l-0.28-1.46l-0.31,3.64c0,0-0.79,2.18-5.55,4.96s-5.95,6.15-5.95,6.15
			c3.37,4.36,19.04-2.58,20.03-4.16c0.53-0.84,0.21-4.78-0.2-8.27v0.14L1002.06,149.36z"/>
		<path class="st3" d="M993.54,105.57l8.24,42.33l0.28,1.46l7.73,0.99v-36.04C1004.33,111.61,998.04,108.34,993.54,105.57z"/>
		<path class="st8" d="M1027.18,115.48l-5.34,3.93l1.44,2.58c0,0-8.53,10.91-7.93,12.89s17.06-8.53,18.44-10.71
			C1034.98,122.31,1028.99,117.02,1027.18,115.48z"/>
		<path class="st3" d="M1004.66,92.92c3.49-4.66,7.48-8.91,11.9-12.69c3.92-3.21,3.64-9.77,2.79-14.51
			c-2.97,0.95-10.75,0.19-10.52,1.02c0.28,1.03-5.62,6.39-11.95,11.79c-3.38,6.62-8.13,16.87-7.48,21.14c0.16,1.07,2.54,2.9,5.95,5
			c4.5,2.77,10.79,6.04,16.26,8.74c6.31,3.12,11.5,5.49,11.5,5.49l0.54-0.4l5.34-3.93l0.87-0.64L1004.66,92.92z"/>
		<path class="st10" d="M1000.79,34.94c-1.17,0.05-0.55-0.58-0.55-0.58c0.89-2.46-1.39-7.15-10.15-8.03
			c-2.91-0.29-4.54-0.07-5.81-0.81c0.12,0.72,0.25,1.46,0.35,2.18c0.05,0.33,0.1,0.67,0.13,0.99c0.11,1.47-0.89,2.75-0.73,3.7
			c0.12,0.7,0.68,0.72,1.38,0.88l1.52,0.34c0,0,1.01,2.17,1.5,3.25s4.72-0.39,5.21-0.39c0.46,0,2.52,2.62,2.81,3
			c1.32-1.22,2.88-2.15,4.57-2.75C1001.01,36.71,1000.94,36.03,1000.79,34.94z"/>
		<path class="st11" d="M1001.09,37.19c-1.9,0.67-3.65,1.73-5.14,3.09c-1.08,0.98-1.67,2.39-1.6,3.85
			c0.4,4.56-1.78,18.25-1.78,18.25l-19.83,14.68l2.49,3.66l2.06,3.03l2.61,3.83l2.16,3.17c0,0,0.57-0.46,1.53-1.23
			c2.59-2.09,8.08-6.54,13.29-10.98c6.33-5.4,12.23-10.76,11.95-11.79c-0.23-0.83,7.55-0.07,10.52-1.02
			c0.37-0.09,0.72-0.29,0.98-0.56C1021.71,63.37,1010.61,36.99,1001.09,37.19z"/>
		<path class="st8" d="M842.57,70.51c-0.35-0.84-0.85-1.61-1.46-2.28c-1.04-1.03,2.98-8.08,5.96-7.2c0.04-0.16,0.06-0.28,0.06-0.28
			c0.44-0.44,0.73-1.01,0.81-1.63c0-0.81,0.81-1.79-1.63-2.77s-2.77,0.98-3.9,0.16c-1.5-0.79-3.36-0.21-4.14,1.29
			c-0.03,0.06-0.06,0.12-0.09,0.18c-0.81,1.79,0,3.09-1.63,3.58s-3.42,0.33-2.44,1.46c0.98,1.14-3.9,2.93-2.77,4.23
			s-1.63,0.81-1.46,2.6s0.65,2.77,2.93,3.74s0.7,2.69,1.95,2.93c2.6,0.49,4.78-0.93,5.69,0.81c0.5,0.96,2.07,1.07,3.74-0.33
			c0.89-0.75,0.9,0.1,0.78-0.79c-0.48-0.21-1.52-0.72-3.71-1.97C837.85,72.3,842.57,70.51,842.57,70.51z"/>
		<path class="st6" d="M857.37,71.65c-0.78-1.64-1.76-3.17-2.93-4.55l1.3-1.63c0,0-6.19-2.59-7.97-4.07
			c-0.21-0.17-0.45-0.3-0.71-0.37c-2.97-0.88-7,6.17-5.96,7.2c0.62,0.67,1.11,1.44,1.46,2.28c0,0-4.72,1.79-1.3,3.74
			c2.18,1.25,3.23,1.76,3.71,1.97c0.12,0.06,0.24,0.1,0.36,0.14l-1.95,3.92c2.9,0.26,5.46,3.16,8.38,5.93l0.56-9.85
			C852.33,76.37,858.35,73.93,857.37,71.65z"/>
		<path class="st6" d="M870.19,137.1L858.84,121c-0.57,0.21-2.73,0.98-5.47,1.84c-0.18,3.31-0.43,7.89-0.67,12.67l6.9,7.69
			l-7.87,34.16c0,0,0.85,0.25,2.01,0.55c1.52,0.41,3.05,0.74,4.6,0.99c1.16,0.16,2.04,0.17,2.12-0.17
			c0.22-0.86,7.74-24.01,10.91-33.73C872.25,142.32,871.81,139.39,870.19,137.1z"/>
		<path class="st6" d="M847.29,124.81c-3.89,0.91-7.52,1.37-8.73,0.33c0,0,5.48,29.22,4.66,34.68s-3,35.79-3,35.79
			s4.37,1.37,5.46-0.82c0.13-0.3,0.23-0.62,0.31-0.94c1.53-5.55,5.97-31.41,5.97-36.22c0-2.61,0.48-12.61,0.96-21.91
			c0.25-4.78,0.49-9.36,0.67-12.67C851.66,123.66,849.43,124.31,847.29,124.81z"/>
		<path class="st11" d="M877.67,101.57l-4.86-1.41l5.92-4.15l-2.54-6.26l-0.72-1.78c0,0-2.83,2.91-11.65,3.44
			c-4.43,0.27-7.75-2.4-10.69-5.19c-2.92-2.77-5.48-5.67-8.38-5.93c-5.83-0.53-7.5,10.95-8.03,15.36
			c-0.39,3.21-1.15,26.93,1.85,29.49c1.22,1.04,4.85,0.58,8.73-0.33c2.15-0.5,4.37-1.14,6.3-1.75c2.74-0.86,4.9-1.63,5.47-1.84
			c0.09-0.03,0.15-0.06,0.15-0.06l-0.89-12.04c-0.03-0.39,0.26-0.73,0.65-0.76c0.07-0.01,0.14,0,0.21,0.01
			c4.1,0.9,19.72,1.04,19.72,1.04S878.02,102.01,877.67,101.57z"/>
		<path class="st10" d="M970.93,95.41c0,0-0.51-0.06-1.17-0.18c-0.16,1.2-0.37,2.38-0.62,3.55L970.93,95.41z"/>
		<path class="st10" d="M975.48,84.65l-2.06-3.03l-3.8,0.52c0.32,2.09,0.5,4.2,0.53,6.32L975.48,84.65z"/>
		<path class="st6" d="M880.04,86c-0.11-0.7-0.3-1.31-0.61-1.42c-0.67-0.22-3.77,4-4.59,5.16l2.54,6.26l2.99-0.51
			c-0.3-2.09-0.44-4.19-0.45-6.3C879.92,88.12,879.97,87.06,880.04,86z"/>
		<path class="st10" d="M981.78,90.41c-0.96,0.77-1.53,1.23-1.53,1.23l-2.16-3.17c-0.52,1.94-2.19,3.36-4.19,3.56
			c-1.3,0.07-2.59,0.22-3.87,0.45c-1.94,0.37-3.32,0.91-3.08,1.53c0.25,0.62,1.72,1,2.79,1.21c0.66,0.12,1.17,0.18,1.17,0.18
			l-1.79,3.37l-1.58,2.98c0.25,0.09,0.52,0.14,0.78,0.15c1.26,0,2.47-0.48,3.38-1.34c2.38-1.98,10.11-10.11,10.11-10.11
			L981.78,90.41z"/>
		<path class="st6" d="M888.59,103.16c0.44-1.15-0.53-1.06-0.62-2.12c-0.4-1.41-0.97-2.78-1.68-4.06c0,0-0.79,0.62-0.35,2.21
			c0.38,1.37-2.29,2.07-4.29,2.39c-1.14,0.19-2.07,0.25-2.07,0.25s0.44-1.94-0.35-2.3s-2.21,3.8-2.38,4.41l0.79,4.86
			c0,0,3.03-0.92,5.9-1.87c1.2-0.4,2.37-0.79,3.28-1.13C889.92,104.66,888.15,104.3,888.59,103.16z"/>
		<path class="st3" d="M970.04,92.49c0.08-1.09,0.13-2.19,0.13-3.3c0-0.25-0.01-0.49-0.02-0.73c-0.4-24.91-20.92-44.78-45.83-44.39
			c-23.4,0.37-42.63,18.58-44.28,41.93c-0.07,1.05-0.12,2.11-0.12,3.19c0,2.11,0.15,4.21,0.45,6.3c0.29,2.06,0.72,4.09,1.29,6.08
			c2-0.33,4.67-1.02,4.29-2.39c-0.44-1.59,0.35-2.21,0.35-2.21c0.71,1.29,1.27,2.65,1.68,4.06c0.09,1.06,1.06,0.97,0.62,2.12
			s1.32,1.5-1.77,2.65c-0.91,0.34-2.08,0.74-3.28,1.13c9.8,22.92,36.33,33.55,59.24,23.74c12.38-5.3,21.75-15.85,25.55-28.77
			c-0.27-0.01-0.53-0.06-0.78-0.15l1.58-2.98c0.25-1.17,0.46-2.35,0.62-3.55c-1.08-0.2-2.55-0.59-2.79-1.21
			C966.71,93.4,968.09,92.86,970.04,92.49z"/>
		<path class="st10" d="M1154.48,38.54c0-17.95-18.36-32.5-41.01-32.5c-22.65,0-41.01,14.55-41.01,32.5s18.36,32.5,41.01,32.5
			c1.14,0,2.27-0.05,3.39-0.12c3.98,3.12,9.79,7.61,10.54,7.86l1.39-10.09C1143.85,63.88,1154.48,52.19,1154.48,38.54z"/>
		<path class="st8" d="M1112.77,36.39c0,0-8.88-6.66-8.63,2.47c0.16,5.86,11.59,8.38,11.59,8.38s7.21-9.82,4.69-13.32
			C1117.21,29.49,1112.77,36.39,1112.77,36.39z"/>
		<path class="st5" d="M1182.39,94.36c-0.2-0.07-0.41-0.12-0.62-0.15L1182.39,94.36z"/>
		<path class="st7" d="M1162.96,82.05c3.02-3.46,0.86-7.34-0.86-16.63c-0.11-0.58-0.16-1.17-0.14-1.76l-1.77,7.26l-1.9,3.29
			c-0.17,0.3-0.15,0.68,0.06,0.96l1.6,2.13c0,0-1.07,5.76,2.71,6.92C1162.26,83.5,1162.39,82.63,1162.96,82.05z"/>
		<path class="st8" d="M1199.89,76.65c-0.86-5.4-8.21-9.93-8.42-14.04s-2.59-9.94-17.28-9.94c0,0-12.06,3.02-12.24,10.98
			c-0.01,0.59,0.03,1.18,0.14,1.76c1.73,9.29,3.89,13.17,0.86,16.63c-0.57,0.58-0.7,1.45-0.32,2.17c0.25,0.48,0.61,0.9,1.04,1.23
			c2.26,1.83,7.36,3.17,13.6,2.44c1.8-0.21,3.59-0.57,5.33-1.09C1195.14,83.13,1200.75,82.05,1199.89,76.65z"/>
		<path class="st7" d="M1178.07,92.63c-0.46-1.54-0.73-3.14-0.79-4.74c-6.24,0.73-11.34-0.61-13.6-2.44
			c-0.17,1.17-0.48,3.17-0.88,4.95c-0.39,1.71-0.85,3.2-1.35,3.54c0,0-2.38,10.58,1.94,10.37c4.13-0.21,13.77-10.66,18.39-10.08
			c0.21,0.02,0.42,0.07,0.62,0.15L1178.07,92.63z"/>
		<path class="st7" d="M1096.26,128.1c-8.45-0.25-24.62,1.01-27.47,13.99c-1.25,5.7,5.7,9.14,15.69,11.19
			c2-4.95,3.91-9.45,5.48-12.7C1092.1,136.14,1094.09,131.86,1096.26,128.1z"/>
		<path class="st7" d="M1140.08,144.01l-0.63-0.15l0.12,2.38C1139.78,145.3,1139.96,144.54,1140.08,144.01z"/>
		<path class="st7" d="M1152,156.06c-0.05,0.84-0.12,1.53-0.17,2.04C1151.91,157.38,1151.97,156.7,1152,156.06z"/>
		<path class="st7" d="M1231.43,119.92c-8.91-14.31-29.34-18.83-40.67-20.26c0.02,0.03,0.04,0.06,0.06,0.1
			c2.81,4.97,22.25,52.27-0.65,51.4c-2.77-0.1-5.19-0.29-7.34-0.54c0.97,0.62,1.51,0.97,1.51,0.97c1.08,11.66-32.61,7.34-32.61,7.34
			s-5.18,25.27-14.47,21.6c-3.3-1.3-1.57-14.4,0.35-24.73c-5.02,0.2-17.05,0.56-29.68,0c-4.36,5.63-9.4,11.85-13.99,17.38
			c0.51,9.18,1.4,15.95,1.4,15.95l141.39,2.36C1236.73,191.5,1244.09,140.25,1231.43,119.92z"/>
		<path class="st7" d="M1136.9,113.59c-0.09-2.29-0.22-4.73-0.36-7.1c-0.21-3.8-0.44-7.4-0.58-9.87c-0.12-2.25-0.69-4.04-4.21-4.05
			l-34.37-0.54c-1.6-0.03-2.93,1.25-2.96,2.85l-0.48,23.09c0.08,4.38,2.32,5.25,5.22,5.16l0.37,0.01c3.77-4.88,8.41-8.06,15.26-8.06
			c2.19,0,5.53,0.98,9.57,2.61c3.69,1.49,7.96,3.52,12.51,5.86c0.04-0.27,0.08-0.59,0.1-0.96
			C1137.12,120.65,1137.05,117.32,1136.9,113.59z"/>
		<path class="st7" d="M1139.45,143.86l-20.55-5c0.66,1.24-4.36,8.4-10.97,16.95c12.63,0.56,24.66,0.21,29.68,0
			c0.71-3.82,1.45-7.25,1.97-9.57L1139.45,143.86z"/>
		<path class="st7" d="M1184.34,151.6c0,0-0.54-0.35-1.51-0.97c-4.2-2.69-16.63-10.59-29.94-18.26l-8.19-4.57l-0.58-0.32l0.08-0.01
			c-2.48-1.36-4.94-2.67-7.33-3.9c-4.54-2.34-8.82-4.37-12.51-5.86c-4.04-1.63-7.38-2.61-9.57-2.61c-6.85,0-11.49,3.17-15.26,8.06
			c-1.2,1.58-2.29,3.23-3.27,4.95c-2.18,3.76-4.16,8.04-6.31,12.48c-1.57,3.24-3.48,7.74-5.48,12.7
			c-6.24,15.5-13.31,35.47-13.31,35.47s0,0.03,0.01,0.08c1.32-0.32,2.15-0.51,2.15-0.51c2.39,0.07,4.77,0.29,7.13,0.65
			c1.11-1.11,6.8-7.7,13.48-15.77c4.59-5.54,9.63-11.76,13.99-17.38c6.62-8.55,11.63-15.72,10.97-16.95l20.55,5l0.63,0.15l3.65,0.89
			c0,0,8.78-0.74,8.27,11.16c-0.03,0.64-0.09,1.32-0.17,2.04c-0.06,0.52-0.1,0.84-0.1,0.84S1185.42,163.26,1184.34,151.6z"/>
		<path class="st7" d="M1151.72,158.94c0,0,0.05-0.31,0.1-0.84C1151.8,158.38,1151.77,158.65,1151.72,158.94z"/>
		<path class="st7" d="M1143.73,144.9l-3.65-0.89c-0.12,0.53-0.3,1.29-0.51,2.23c-0.52,2.32-1.26,5.75-1.97,9.57
			c-1.92,10.33-3.65,23.42-0.35,24.73c9.29,3.67,14.47-21.6,14.47-21.6c0.04-0.29,0.07-0.56,0.1-0.84c0.06-0.5,0.12-1.2,0.17-2.04
			C1152.52,144.16,1143.73,144.9,1143.73,144.9z"/>
		<path class="st7" d="M1152.89,132.37l6.85,3.82c-0.13-2.09-0.13-4.19,0-6.27c0.26-0.9-8.96-2.95-8.96-2.95l-6.54,0.5l0.15,0.11
			C1147.22,129.13,1150.07,130.74,1152.89,132.37z"/>
		<path class="st7" d="M1190.82,99.76c-0.02-0.03-0.04-0.06-0.06-0.1c-1.83-2.95-4.91-4.9-8.36-5.3l-0.62-0.15
			c-4.62-0.57-14.26,9.87-18.39,10.08c-4.32,0.22-1.94-10.37-1.94-10.37c0.5-0.33,0.97-1.83,1.35-3.54
			c-3.59-0.06-9.31-0.05-12.15,0.51c-3.67,0.73-11.55,11.76-14.1,15.59c0.13,2.37,0.26,4.81,0.36,7.1c0.15,3.73,0.22,7.06,0.08,9.01
			c-0.03,0.37-0.06,0.7-0.1,0.96c2.39,1.23,4.84,2.54,7.33,3.9l-0.08,0.01l0.58,0.32l-0.31-0.22l-0.15-0.11l6.54-0.5
			c0,0,9.22,2.05,8.96,2.95c-0.13,2.09-0.13,4.19,0,6.27l-6.85-3.82c13.31,7.67,25.74,15.56,29.94,18.26
			c2.14,0.25,4.57,0.43,7.34,0.54C1213.06,152.03,1193.62,104.73,1190.82,99.76z"/>
		<path class="st7" d="M1144.7,127.8l8.19,4.57c-2.82-1.62-5.68-3.24-8.5-4.79L1144.7,127.8z"/>
		<path class="st7" d="M1005.14,148.81l-0.28-1.46l-0.31,3.64c0,0-0.79,2.18-5.55,4.96s-5.95,6.15-5.95,6.15
			c3.37,4.36,19.04-2.58,20.03-4.16c0.53-0.84,0.21-4.78-0.2-8.27v0.14L1005.14,148.81z"/>
		<path class="st7" d="M996.62,105.03l8.24,42.33l0.28,1.46l7.73,0.99v-36.04C1007.41,111.06,1001.12,107.8,996.62,105.03z"/>
		<path class="st7" d="M1030.26,114.94l-5.34,3.93l1.44,2.58c0,0-8.53,10.91-7.93,12.89s17.06-8.53,18.44-10.71
			C1038.06,121.77,1032.08,116.48,1030.26,114.94z"/>
		<path class="st7" d="M1005.94,93.28c3.49-4.66,7.48-8.91,11.9-12.69c3.92-3.21,3.64-9.77,2.79-14.51
			c-2.97,0.95-10.75,0.19-10.52,1.02c0.28,1.03-5.62,6.39-11.95,11.79c-3.38,6.62-8.13,16.87-7.48,21.14c0.16,1.07,2.54,2.9,5.95,5
			c4.5,2.77,10.79,6.04,16.26,8.74c6.31,3.12,11.5,5.49,11.5,5.49l0.54-0.4l5.34-3.93l0.87-0.64L1005.94,93.28z"/>
		<path class="st8" d="M1003.51,13.87c-1.84-3.43-12.85-6.12-10.28,4.16c0,0-10.64,0.73-8.81,6.73c0.28,0.86,0.69,1.67,1.21,2.42
			c0.06-0.74-0.06-1.49-0.35-2.18c1.89,0.99,3.96,1.57,6.08,1.69c8.75,0.89,11.03,5.57,10.15,8.03c0,0-0.62,0.62,0.55,0.58
			c0,0,9.94-7.55-2.1-15.68C999.97,19.62,1006.48,19.4,1003.51,13.87z"/>
		<path class="st7" d="M1002.07,35.3c-1.17,0.05-0.55-0.58-0.55-0.58c0.89-2.46-1.39-7.15-10.15-8.03
			c-2.91-0.29-4.54-0.07-5.81-0.81c0.12,0.72,0.25,1.46,0.35,2.18c0.05,0.33,0.1,0.67,0.13,0.99c0.11,1.47-0.89,2.75-0.73,3.7
			c0.12,0.7,0.68,0.72,1.38,0.88l1.52,0.34c0,0,1.01,2.17,1.5,3.25s4.72-0.39,5.21-0.39c0.46,0,2.52,2.62,2.81,3
			c1.32-1.22,2.88-2.15,4.57-2.75C1002.3,37.07,1002.22,36.38,1002.07,35.3z"/>
		<path class="st7" d="M1002.37,37.55c-1.9,0.67-3.65,1.73-5.14,3.09c-1.08,0.98-1.67,2.39-1.6,3.85c0.4,4.56-1.78,18.25-1.78,18.25
			l-19.83,14.68l2.49,3.66l2.06,3.03l2.61,3.83l2.16,3.17c0,0,0.57-0.46,1.53-1.23c2.59-2.09,8.08-6.54,13.29-10.98
			c6.33-5.4,12.23-10.76,11.95-11.79c-0.23-0.83,7.55-0.07,10.52-1.02c0.37-0.09,0.72-0.29,0.98-0.56
			C1022.99,63.73,1011.89,37.35,1002.37,37.55z"/>
		<path class="st7" d="M845.65,69.97c-0.35-0.84-0.85-1.61-1.46-2.28c-1.04-1.03,2.98-8.08,5.96-7.2c0.04-0.16,0.06-0.28,0.06-0.28
			c0.44-0.44,0.73-1.01,0.81-1.63c0-0.81,0.81-1.79-1.63-2.77s-2.77,0.98-3.9,0.16c-1.5-0.79-3.36-0.21-4.14,1.29
			c-0.03,0.06-0.06,0.12-0.09,0.18c-0.81,1.79,0,3.09-1.63,3.58s-3.42,0.33-2.44,1.46s-3.9,2.93-2.77,4.23s-1.63,0.81-1.46,2.6
			s0.65,2.77,2.93,3.74s0.7,2.69,1.95,2.93c2.6,0.49,4.78-0.93,5.69,0.81c0.5,0.96,2.07,1.07,3.74-0.33c0.89-0.75,0.9,0.1,0.78-0.79
			c-0.48-0.21-1.52-0.72-3.71-1.97C840.93,71.76,845.65,69.97,845.65,69.97z"/>
		<path class="st7" d="M860.45,71.11c-0.78-1.64-1.76-3.17-2.93-4.55l1.3-1.63c0,0-6.19-2.59-7.97-4.07
			c-0.21-0.17-0.45-0.3-0.71-0.37c-2.97-0.88-7,6.17-5.96,7.2c0.62,0.67,1.11,1.44,1.46,2.28c0,0-4.72,1.79-1.3,3.74
			c2.18,1.25,3.23,1.76,3.71,1.97c0.12,0.06,0.24,0.1,0.36,0.14l-1.95,3.92c2.9,0.26,5.46,3.16,8.38,5.93l0.56-9.85
			C855.41,75.82,861.43,73.38,860.45,71.11z"/>
		<path class="st7" d="M872.15,136.78l-11.36-16.1c-0.57,0.21-2.73,0.98-5.47,1.84c-0.18,3.31-0.43,7.89-0.67,12.67l6.9,7.69
			l-7.87,34.16c0,0,0.85,0.25,2.01,0.55c1.52,0.41,3.05,0.74,4.6,0.99c1.16,0.16,2.04,0.17,2.12-0.17
			c0.22-0.86,7.74-24.01,10.91-33.73C874.21,142,873.77,139.08,872.15,136.78z"/>
		<path class="st7" d="M849.02,124.27c-3.89,0.91-7.52,1.37-8.73,0.33c0,0,5.48,29.22,4.66,34.68s-3,35.79-3,35.79
			s4.37,1.37,5.46-0.82c0.13-0.3,0.23-0.62,0.31-0.94c1.53-5.55,5.97-31.41,5.97-36.22c0-2.61,0.48-12.61,0.96-21.91
			c0.25-4.78,0.49-9.36,0.67-12.67C853.39,123.12,851.17,123.76,849.02,124.27z"/>
		<path class="st7" d="M879.4,101.02l-4.86-1.41l5.92-4.15l-2.54-6.26l-0.72-1.78c0,0-2.83,2.91-11.65,3.44
			c-4.43,0.27-7.75-2.4-10.69-5.19c-2.92-2.77-5.48-5.67-8.38-5.93c-5.83-0.53-7.5,10.95-8.03,15.36
			c-0.39,3.21-1.15,26.93,1.85,29.49c1.22,1.04,4.85,0.58,8.73-0.33c2.15-0.5,4.37-1.14,6.3-1.75c2.74-0.86,4.9-1.63,5.47-1.84
			c0.09-0.03,0.15-0.06,0.15-0.06l-0.89-12.04c-0.03-0.39,0.26-0.73,0.65-0.76c0.07-0.01,0.14,0,0.21,0.01
			c4.1,0.9,19.72,1.04,19.72,1.04S879.75,101.46,879.4,101.02z"/>
		<circle class="st8" cx="852.61" cy="65.05" r="0.67"/>
		<circle class="st8" cx="988.72" cy="28.36" r="0.6"/>
		<path class="st7" d="M857.13,71.07c0,0-1.28,1.08-1.9,0.36"/>
		<path class="st7" d="M990.47,34.25c0.62,0.42,1.47,0.25,1.89-0.37c0.08-0.12,0.14-0.25,0.18-0.39"/>
		<path class="st5" d="M974.01,94.87c0,0-0.51-0.06-1.17-0.18c-0.16,1.2-0.37,2.38-0.62,3.55L974.01,94.87z"/>
		<path class="st7" d="M978.56,84.1l-2.06-3.03l-3.8,0.52c0.32,2.09,0.5,4.2,0.53,6.32L978.56,84.1z"/>
		<path class="st7" d="M883.12,85.46c-0.11-0.7-0.3-1.31-0.61-1.42c-0.67-0.22-3.77,4-4.59,5.16l2.54,6.26l2.99-0.51
			c-0.3-2.09-0.44-4.19-0.45-6.3C883,87.57,883.05,86.51,883.12,85.46z"/>
		<path class="st7" d="M984.86,89.87c-0.96,0.77-1.53,1.23-1.53,1.23l-2.16-3.17c-0.52,1.94-2.19,3.36-4.19,3.56
			c-1.3,0.07-2.59,0.22-3.87,0.45c-1.94,0.37-3.32,0.91-3.08,1.53c0.25,0.62,1.72,1,2.79,1.21c0.66,0.12,1.17,0.18,1.17,0.18
			l-1.79,3.37l-1.58,2.98c0.25,0.09,0.52,0.14,0.78,0.15c1.26,0,2.47-0.48,3.38-1.34c2.38-1.98,10.11-10.11,10.11-10.11
			L984.86,89.87z"/>
		<path class="st7" d="M891.67,102.61c0.44-1.15-0.53-1.06-0.62-2.12c-0.4-1.41-0.97-2.78-1.68-4.06c0,0-0.79,0.62-0.35,2.21
			c0.38,1.37-2.29,2.07-4.29,2.39c-1.14,0.19-2.07,0.25-2.07,0.25s0.44-1.94-0.35-2.3s-2.21,3.8-2.38,4.41l0.79,4.86
			c0,0,3.03-0.92,5.9-1.87c1.2-0.4,2.37-0.79,3.28-1.13C893,104.11,891.23,103.76,891.67,102.61z"/>
		<path class="st7" d="M973.12,91.95c0.08-1.09,0.13-2.19,0.13-3.3c0-0.25-0.01-0.49-0.02-0.73c-0.4-24.91-20.92-44.78-45.83-44.39
			c-23.4,0.37-42.63,18.58-44.28,41.93c-0.07,1.05-0.12,2.11-0.12,3.19c0,2.11,0.15,4.21,0.45,6.3c0.29,2.06,0.72,4.09,1.29,6.08
			c2-0.33,4.67-1.02,4.29-2.39c-0.44-1.59,0.35-2.21,0.35-2.21c0.71,1.29,1.27,2.65,1.68,4.06c0.09,1.06,1.06,0.97,0.62,2.12
			s1.32,1.5-1.77,2.65c-0.91,0.34-2.08,0.74-3.28,1.13c9.8,22.92,36.33,33.55,59.24,23.74c12.38-5.3,21.75-15.85,25.55-28.77
			c-0.27-0.01-0.53-0.06-0.78-0.15l1.58-2.98c0.25-1.17,0.46-2.35,0.62-3.55c-1.08-0.2-2.55-0.59-2.79-1.21
			C969.79,92.86,971.17,92.32,973.12,91.95z"/>
		<path class="st7" d="M1159.75,129.91c1.05-1.26,0.59-6.03,4.28-5.88s18.15,6,18.46,4.92s-0.62-15.54-0.62-15.54"/>
		<path class="st7" d="M1136.87,123.57c0,0,8.54-7.69,8.39-10.76"/>
		<circle class="st7" cx="1116.37" cy="107.72" r="3.95"/>
		<path class="st7" d="M1157.56,37.99c0-17.95-18.36-32.5-41.01-32.5s-41.01,14.55-41.01,32.5s18.36,32.5,41.01,32.5
			c1.14,0,2.27-0.05,3.39-0.12c3.98,3.12,9.79,7.61,10.54,7.86l1.39-10.09C1146.93,63.33,1157.56,51.65,1157.56,37.99z"/>
		<path class="st7" d="M1115.85,35.85c0,0-8.88-6.66-8.63,2.47c0.16,5.86,11.59,8.38,11.59,8.38s7.21-9.82,4.69-13.32
			C1120.29,28.94,1115.85,35.85,1115.85,35.85z"/>
		<path class="st7" d="M1010.1,67.1c0.52-4.25-1.63-15.24-4.58-18.19"/>
		<path class="st7" d="M978.56,84.1c0,0,22.14-19.11,22.27-19.78s-5.21-19.83-5.21-19.83"/>
		<path class="st7" d="M874.54,99.61c0,0-12.28-6.07-20.72-15.32"/>
		<path class="st7" d="M860.91,107.84c0,0-2.8,0.04-12.45-8.94"/>
		<path class="st3" d="M243.07,139.17c-0.01-20.24-16.42-36.64-36.66-36.63c-20.22,0.01-36.62,16.4-36.63,36.63"/>
		<path class="st7" d="M167.5,139.76c0-20.24,16.41-36.64,36.64-36.64s36.64,16.41,36.64,36.64H167.5z"/>
		<path class="st12" d="M244.57,94.66c0-1.16-4.07-12.36-4.59-13.79c-0.8,6.94-4.18,22-18.33,26.48l7.74,2.79
			C229.4,110.15,244.57,95.9,244.57,94.66z"/>
		<path class="st3" d="M271.53,101.31l-0.28-1.69c0,0,19.72-22.97,8.49-32.52c-3.48,5.33-18.49,18.33-20,18.58
			c0,0-6.19,16.1-2.17,20.44c3.14,3.38,10.61,16.18,13.75,21.65c0.33-0.12,0.67-0.19,1.02-0.2c1.42,0.14,3.51,0.23,3.51,0.23
			l-2.34-14.34L271.53,101.31z"/>
		<path class="st8" d="M297.17,120.1l-3.36,3.36l-0.97-0.48c0.18,1.23,0.27,2.48,0.26,3.73c-0.14,1.14-5.12,4.55-5.83,4.98
			s-5.55,2.27,1.28,3.55s14.22-6.97,14.65-8.67C303.51,125.35,299.58,121.94,297.17,120.1z"/>
		<path class="st3" d="M271.53,101.31l1.98,12.15l19.33,9.53l0.97,0.48l3.36-3.36l1.91-1.91
			C299.08,118.2,282.57,102.68,271.53,101.31z"/>
		<path class="st8" d="M275.85,127.8c0,0-2.08-0.09-3.51-0.23c-0.35,0.01-0.69,0.08-1.02,0.2c-2.86,0.9-9.95,4.55-10.93,5.77
			c-1.14,1.42,15.78,2.7,18.2,1.71S275.85,127.8,275.85,127.8z"/>
		<path class="st13" d="M223.15,70.98c0,0,3.13-3.98,4.98-1c0,0,3.98-1.85,4.98-3.55c0.21-0.37,0.79-0.55,1.56-0.61
			c-0.42-2.7-1.9-9.08-6.39-8.63c0,0,7.54-8.39-2.7-5.97s-2.27,6.97-2.27,6.97s-16.21,4.27-8.1,13.93l1.05,0.79
			c0.06-0.67,0.24-1.32,0.51-1.93L223.15,70.98z"/>
		<path class="st14" d="M240.06,66.37c-1.77-0.39-3.59-0.58-5.4-0.55c-0.77,0.06-1.34,0.24-1.56,0.61c-1,1.71-4.98,3.55-4.98,3.55
			c-1.85-2.99-4.98,1-4.98,1h-6.4c-0.27,0.61-0.45,1.26-0.51,1.93c-0.14,0.85,0.22,1.71,0.94,2.2c1.85,1.14,6.82,4.83,6.82,4.83
			l1-1.71c1.42,0.09,2.85,0.09,4.27,0c2.42-0.14,4.83-4.83,4.83-4.83l3.16,0.37c0-0.08-0.01-0.15-0.01-0.23
			C237.22,70.87,238.23,68.3,240.06,66.37z"/>
		<path class="st14" d="M225.57,113.07c0,1.51,2.66,0.57,3.28,0.34c0.08-0.03,0.13-0.05,0.13-0.05s-0.05,0.02-0.13,0.05
			c-0.97,0.39-7.22,2.97-6.69,5.07c0.57,2.28-0.57,5.97,4.27,2.99c2.54-1.67,4.8-3.71,6.72-6.06l-2.78-3.89
			C228.96,111.52,225.57,111.71,225.57,113.07z"/>
		<path class="st7" d="M228.85,113.4c0.08-0.03,0.13-0.05,0.13-0.05S228.93,113.37,228.85,113.4z"/>
		<path class="st12" d="M280.03,64.89c-25.08-6.08-35.65-3.03-39.97,1.47c-1.84,1.93-2.85,4.5-2.81,7.17c0,0.08,0.01,0.15,0.01,0.23
			c0.19,2.53,1.12,4.95,2.67,6.96l0.05,0.15c0.52,1.42,4.59,12.63,4.59,13.79c0,1.24-15.18,15.48-15.18,15.48l0.97,1.36l2.78,3.89
			l0.9,1.26c0,0,15.48-17.65,19.82-20.13s-3.1-17.96-3.1-17.96s7.12,7.43,8.98,7.12c1.51-0.25,16.52-13.25,20-18.58
			C280.54,65.88,280.74,65.06,280.03,64.89z"/>
		<path class="st7" d="M245.04,93.74c0-1.16-4.07-12.36-4.59-13.79c-0.8,6.94-4.18,22-18.33,26.48l7.74,2.79
			C229.86,109.23,245.04,94.98,245.04,93.74z"/>
		<path class="st7" d="M271.99,100.39l-0.28-1.69c0,0,19.72-22.97,8.49-32.52c-3.48,5.33-18.49,18.33-20,18.58
			c0,0-6.19,16.1-2.17,20.44c3.14,3.38,10.61,16.18,13.75,21.65c0.33-0.12,0.67-0.19,1.02-0.2c1.42,0.14,3.51,0.23,3.51,0.23
			l-2.34-14.34L271.99,100.39z"/>
		<path class="st7" d="M297.64,119.19l-3.36,3.36l-0.97-0.48c0.18,1.23,0.27,2.48,0.26,3.73c-0.14,1.14-5.12,4.55-5.83,4.98
			s-5.55,2.27,1.28,3.55s14.22-6.97,14.65-8.67C303.97,124.43,300.05,121.02,297.64,119.19z"/>
		<path class="st7" d="M271.99,100.39l1.98,12.15l19.33,9.53l0.97,0.48l3.36-3.36l1.91-1.91
			C299.54,117.28,283.03,101.76,271.99,100.39z"/>
		<path class="st7" d="M276.32,126.88c0,0-2.08-0.09-3.51-0.23c-0.35,0.01-0.69,0.08-1.02,0.2c-2.86,0.9-9.95,4.55-10.93,5.77
			c-1.14,1.42,15.78,2.7,18.2,1.71S276.32,126.88,276.32,126.88z"/>
		<path class="st7" d="M223.62,70.06c0,0,3.13-3.98,4.98-1c0,0,3.98-1.85,4.98-3.55c0.21-0.37,0.79-0.55,1.56-0.61
			c-0.42-2.7-1.9-9.08-6.39-8.63c0,0,7.54-8.39-2.7-5.97s-2.27,6.97-2.27,6.97s-16.21,4.27-8.1,13.93l1.05,0.79
			c0.06-0.67,0.24-1.32,0.51-1.93L223.62,70.06z"/>
		<path class="st7" d="M240.53,65.45c-1.77-0.39-3.59-0.58-5.4-0.55c-0.77,0.06-1.34,0.24-1.56,0.61c-1,1.71-4.98,3.55-4.98,3.55
			c-1.85-2.99-4.98,1-4.98,1h-6.4c-0.27,0.61-0.45,1.26-0.51,1.93c-0.14,0.85,0.22,1.71,0.94,2.2c1.85,1.14,6.82,4.83,6.82,4.83
			l1-1.71c1.42,0.09,2.85,0.09,4.27,0c2.42-0.14,4.83-4.83,4.83-4.83l3.16,0.37c0-0.08-0.01-0.15-0.01-0.23
			C237.68,69.95,238.69,67.38,240.53,65.45z"/>
		<path class="st7" d="M226.03,112.15c0,1.51,2.66,0.57,3.28,0.34c0.08-0.03,0.13-0.05,0.13-0.05s-0.05,0.02-0.13,0.05
			c-0.97,0.39-7.22,2.97-6.69,5.07c0.57,2.28-0.57,5.97,4.27,2.99c2.54-1.67,4.8-3.71,6.72-6.06l-2.78-3.89
			C229.43,110.6,226.03,110.79,226.03,112.15z"/>
		<path class="st7" d="M229.31,112.48c0.08-0.03,0.13-0.05,0.13-0.05S229.4,112.45,229.31,112.48z"/>
		<path class="st7" d="M280.49,63.97c-25.08-6.08-35.65-3.03-39.97,1.47c-1.84,1.93-2.85,4.5-2.81,7.17c0,0.08,0.01,0.15,0.01,0.23
			c0.19,2.53,1.12,4.95,2.67,6.96l0.05,0.15c0.52,1.42,4.59,12.63,4.59,13.79c0,1.24-15.18,15.48-15.18,15.48l0.97,1.36l2.78,3.89
			l0.9,1.26c0,0,15.48-17.65,19.82-20.13c4.34-2.48-3.1-17.96-3.1-17.96s7.12,7.43,8.98,7.12c1.51-0.25,16.52-13.25,20-18.58
			C281.01,64.96,281.2,64.15,280.49,63.97z"/>
		<circle class="st8" cx="221.09" cy="74.1" r="0.53"/>
		<path class="st7" d="M227.97,75.96c0,0,1.32-0.93,0.79-1.99"/>
		<path class="st7" d="M225.68,69.8c0,0,0.51-1.07,1.11-0.32"/>
		<path class="st11" d="M107.56,133.21c9.88,2.04,26.24,18.28,36.23,29.09l13.26-3.77l-1.63,19.73l11.12,22.99
			c7.73-27.49,8.58-58.85,8.58-58.85c0.29-10.19-47.29-9.81-65.16-11.02l-0.99,0.01C108.96,131.39,108.45,132.07,107.56,133.21z"/>
		<path class="st15" d="M147.65,130.65c2.15,0.83,11.24,0.71,9.92,0.47s-4.54-3.92-5.62-5.34c-0.75-0.99-5.64-1.41-8.52-1.57
			l0.23,5.45C145.01,129.89,146.34,130.22,147.65,130.65z"/>
		<polyline class="st7" points="145,131.04 168.79,134.93 177.52,95.19 		"/>
		<path class="st7" d="M104.77,137.16L104.77,137.16c0.77-0.96,1.47-1.85,2.08-2.63c0.25-0.32,0.49-0.62,0.71-0.91
			c-0.22,0.28-0.46,0.59-0.71,0.91C106.24,135.32,105.54,136.2,104.77,137.16z"/>
		<path class="st7" d="M100.01,143.04c-0.9,1.09-1.84,2.22-2.79,3.34C98.17,145.26,99.11,144.14,100.01,143.04z"/>
		<path class="st7" d="M97.22,146.39c-0.95,1.13-1.93,2.26-2.9,3.39C95.29,148.65,96.26,147.52,97.22,146.39z"/>
		<path class="st7" d="M103.8,138.38c0.34-0.42,0.66-0.82,0.97-1.22l0,0C104.45,137.56,104.13,137.96,103.8,138.38z"/>
		<path class="st7" d="M103.8,138.38c-0.77,0.96-1.6,1.98-2.46,3.04C102.2,140.37,103.03,139.34,103.8,138.38z"/>
		<path class="st9" d="M77.57,160.47c0.2-1.2-3.15-14.33-6.54-28.07c-26.68,4.85-45.36,29.1-43.24,56.13
			c2.36,29.06,30.61,35.27,59.89,32.93c26.81-2.14,44.76-8.23,46.22-34.15c-14.43-7.62-43.14-25.36-48.08-28.42
			C80.46,164.05,76.6,166.24,77.57,160.47z"/>
		<path class="st11" d="M167.15,200.87l-11.12-22.99l-3.03-6.25c0,0-3.46-4.13-8.6-9.7c-9.99-10.82-26.35-27.05-36.23-29.09
			c-0.19,0.24-0.39,0.51-0.62,0.79s-0.46,0.59-0.71,0.91c-0.61,0.78-1.31,1.67-2.08,2.63c-0.31,0.4-0.64,0.8-0.97,1.22
			c-0.77,0.96-1.6,1.98-2.46,3.04c-0.43,0.53-0.87,1.07-1.33,1.62c-0.9,1.09-1.84,2.22-2.79,3.34s-1.93,2.26-2.9,3.39
			c-2.93,3.36-5.89,6.6-8.51,9.12c4.94,3.06,33.65,20.8,48.08,28.42c2.4,1.39,4.93,2.55,7.56,3.44
			c6.66,1.39,28.72,48.33,28.72,48.33s10.01,3.84,11.93-3.47c0.26-1.02,0.37-2.08,0.33-3.13L167.15,200.87z"/>
		<path class="st15" d="M95.92,65.52c1.37,0.78,2.67,1.68,3.89,2.67c2.34-1.15,5.06-1.24,7.46-0.23c5.88,2.13,9.13-7.42,9.13-7.42
			l3.45-0.74c0.58-0.12,0.95-0.69,0.83-1.26c-0.02-0.08-0.04-0.16-0.08-0.24l-1.5-3.12l1.41-4.3c-1.52,0.22-6.09-3.22-6.53-2.99
			c-0.76,1.07-1.75,1.96-2.89,2.6c-1.53,0.57-2.07-3.56-4.69-2.74c-3.57,1.12-0.69,14.09-9.54,11.95c-3.37-0.65-1.31-1.75-4.87-2.91
			c-0.02-0.01-0.05,0.01-0.09,0.03l0.58,0.3c0,0-0.27-0.13-0.59-0.29c-0.31,0.24-0.97,1.62-2.27,3.07
			c-1.02,1.13-2.79,2.13-3.59,3.32c0.04,0,0.08-0.01,0.13-0.02L95.92,65.52z"/>
		<path class="st16" d="M90.77,56.23c0.04,0,0.79,0.42,1.22,0.56c3.56,1.16,1.54,2.11,4.87,2.91c8.85,2.14,5.97-10.83,9.54-11.95
			c2.62-0.82,3.16,3.31,4.69,2.74c1.14-0.64,2.13-1.53,2.89-2.6c0.44-0.24,5.01,3.2,6.53,2.99c0.14,0.05,0.27,0.11,0.39,0.2
			c4.39-2.36,3.45-8.37,1.9-10.98c-0.57-0.96-2.94-2.27-4.79-4.57c-1.87-2.32-3.24-5.62-6.17-7.08c-4.99-2.48-5.48,2.3-13.13,2.04
			c-3.46-0.12-5.02,2.56-7.15,5.48c-1.36,1.87-3.94,3.61-4.19,5.51c-0.22,1.62,0.6,4.11,0.41,6.44s-1.38,4.5-0.89,5.84
			c0.48,1.68,2.12,2.75,3.85,2.5c0.01,0,0.64,0.32,1.14,0.57c0.01-0.01,0.01,0,0.02-0.01L90.77,56.23z"/>
		<path class="st3" d="M144.28,129.3l-0.23-5.45l-0.11-2.51c0,0-31.24-9.69-33.19-9.69c-1.95,0-1.56-26.74-3.9-34.1
			c-1.29-4.04-4.45-7.26-7.04-9.34c-1.22-0.99-2.52-1.89-3.89-2.67l-9.76-2.33c-0.04,0-0.08,0.01-0.13,0.02
			c-0.74,0.07-1.48,0.2-2.2,0.39c-13.65,3.61-20.27,28.78-19.53,37.95c0.38,4.68,3.57,18.02,6.74,30.84
			c3.39,13.73,6.74,26.86,6.54,28.07c-0.97,5.78,2.9,3.58,8.24-1.58c2.61-2.52,5.58-5.76,8.51-9.12c0.98-1.12,1.95-2.26,2.9-3.39
			s1.89-2.25,2.79-3.34c0.45-0.55,0.89-1.09,1.33-1.62c0.87-1.06,1.69-2.08,2.46-3.04c0.34-0.42,0.66-0.82,0.97-1.22
			c0.77-0.96,1.47-1.85,2.08-2.63c0.25-0.32,0.49-0.62,0.71-0.91s0.43-0.55,0.62-0.79c0.89-1.14,1.41-1.82,1.41-1.82l0.99-0.01
			l33.76-0.38L144.28,129.3z"/>
		<path class="st7" d="M109.64,133.1c9.86,2.05,26.2,18.38,36.17,29.26l13.23-3.79l-1.63,19.84l11.1,23.12
			c7.72-27.65,8.56-59.19,8.56-59.19c0.28-10.25-47.21-9.87-65.05-11.08l-0.99,0.01C111.05,131.26,110.53,131.94,109.64,133.1z"/>
		<path class="st7" d="M149.67,130.52c2.15,0.84,11.22,0.72,9.91,0.48s-4.53-3.94-5.61-5.37c-0.75-1-5.63-1.42-8.5-1.58l0.23,5.49
			C147.04,129.76,148.37,130.09,149.67,130.52z"/>
		<polyline class="st7" points="147.03,130.92 170.77,134.82 179.49,94.85 		"/>
		<path class="st7" d="M106.24,137.45L106.24,137.45c0.76-0.97,1.47-1.86,2.08-2.64c0.25-0.32,0.49-0.63,0.71-0.91
			c-0.22,0.29-0.46,0.59-0.71,0.91C107.71,135.59,107.01,136.48,106.24,137.45z"/>
		<path class="st7" d="M101.49,143.36c-0.9,1.1-1.83,2.23-2.79,3.36C99.66,145.59,100.59,144.46,101.49,143.36z"/>
		<path class="st7" d="M98.71,146.72c-0.95,1.14-1.92,2.28-2.9,3.41C96.78,149,97.75,147.86,98.71,146.72z"/>
		<path class="st7" d="M105.27,138.67c0.34-0.42,0.66-0.83,0.97-1.23l0,0C105.93,137.84,105.61,138.25,105.27,138.67z"/>
		<path class="st7" d="M105.27,138.67c-0.77,0.97-1.59,1.99-2.46,3.06C103.68,140.67,104.5,139.64,105.27,138.67z"/>
		<path class="st7" d="M79.09,160.89c0.2-1.21-3.14-14.41-6.53-28.23c-26.72,5-45.35,29.37-43.17,56.46
			c2.36,29.23,30.56,35.48,59.79,33.13c26.77-2.16,44.68-8.27,46.14-34.35c-14.41-7.67-43.07-25.51-48-28.59
			C81.98,164.49,78.12,166.7,79.09,160.89z"/>
		<path class="st7" d="M168.52,201.53l-11.1-23.12l-3.02-6.29c0,0-3.45-4.16-8.59-9.76c-9.98-10.88-26.31-27.21-36.17-29.26
			c-0.19,0.24-0.39,0.51-0.62,0.8s-0.46,0.59-0.71,0.91c-0.61,0.78-1.31,1.68-2.08,2.64c-0.31,0.4-0.64,0.8-0.97,1.23
			c-0.77,0.97-1.59,1.99-2.46,3.06c-0.43,0.53-0.87,1.08-1.32,1.63c-0.9,1.1-1.83,2.23-2.79,3.36s-1.92,2.28-2.9,3.41
			c-2.92,3.38-5.88,6.63-8.49,9.17c4.93,3.08,33.59,20.92,48,28.59c2.39,1.4,4.92,2.56,7.54,3.46c6.64,1.4,28.68,48.61,28.68,48.61
			s10,3.86,11.91-3.49c0.26-1.03,0.37-2.09,0.33-3.15L168.52,201.53z"/>
		<path class="st7" d="M93.4,56.64c0.03-0.02,0.06-0.04,0.09-0.03c-0.42-0.14-1.18-0.57-1.22-0.57L93.4,56.64z"/>
		<path class="st7" d="M97.41,65.39c1.36,0.79,2.66,1.69,3.88,2.69c2.33-1.16,5.05-1.24,7.45-0.23c5.87,2.14,9.12-7.46,9.12-7.46
			l3.45-0.74c0.58-0.12,0.95-0.7,0.83-1.28c-0.02-0.08-0.04-0.16-0.08-0.24l-1.49-3.14l1.4-4.33c-1.52,0.22-6.08-3.24-6.52-3.01
			c-0.76,1.07-1.74,1.97-2.89,2.61c-1.52,0.58-2.06-3.58-4.68-2.75c-3.56,1.13-0.69,14.17-9.53,12.02
			c-3.36-0.65-1.31-1.76-4.86-2.93c-0.02-0.01-0.05,0.01-0.09,0.03l0.57,0.3c0,0-0.27-0.13-0.59-0.3c-0.31,0.24-0.97,1.63-2.27,3.08
			c-1.02,1.14-2.79,2.14-3.58,3.34c0.04,0,0.08-0.01,0.13-0.02L97.41,65.39z"/>
		<path class="st7" d="M92.27,56.04c0.04,0,0.79,0.43,1.22,0.57c3.55,1.17,1.54,2.12,4.86,2.93c8.84,2.15,5.96-10.9,9.53-12.02
			c2.61-0.83,3.15,3.33,4.68,2.75c1.14-0.65,2.13-1.54,2.89-2.61c0.44-0.24,5,3.22,6.52,3.01c0.14,0.05,0.27,0.11,0.38,0.2
			c4.38-2.38,3.44-8.42,1.9-11.05c-0.57-0.96-2.94-2.29-4.78-4.59c-1.87-2.33-3.23-5.65-6.16-7.12c-4.98-2.49-5.47,2.31-13.11,2.05
			c-3.45-0.12-5.01,2.58-7.14,5.51c-1.36,1.88-3.93,3.63-4.18,5.54c-0.22,1.63,0.6,4.13,0.41,6.48s-1.38,4.53-0.89,5.88
			c0.47,1.69,2.11,2.76,3.85,2.52c0.01,0,0.64,0.32,1.14,0.57c0.01-0.01,0.01,0,0.02-0.01L92.27,56.04z"/>
		<path class="st7" d="M93.4,56.64c-0.01,0-0.01,0-0.02,0.01c0.32,0.16,0.59,0.3,0.59,0.3L93.4,56.64z"/>
		<path class="st7" d="M93.49,56.6c3.55,1.17,1.5,2.28,4.86,2.93C95.02,58.72,97.04,57.77,93.49,56.6z"/>
		<path class="st7" d="M145.69,129.53l-0.23-5.49l-0.11-2.53c0,0-31.18-9.74-33.13-9.74c-1.95,0-1.56-26.9-3.9-34.3
			c-1.28-4.06-4.44-7.3-7.03-9.4c-1.22-1-2.52-1.9-3.88-2.69l-9.75-2.34c-0.04,0-0.08,0.01-0.13,0.02c-0.74,0.07-1.48,0.2-2.2,0.4
			c-13.63,3.63-20.24,28.94-19.5,38.18c0.38,4.7,3.57,18.13,6.73,31.02c3.38,13.82,6.73,27.02,6.53,28.23
			c-0.97,5.81,2.89,3.6,8.23-1.59c2.61-2.54,5.57-5.79,8.49-9.17c0.97-1.13,1.94-2.27,2.9-3.41s1.89-2.26,2.79-3.36
			c0.45-0.55,0.89-1.09,1.32-1.63c0.86-1.07,1.69-2.09,2.46-3.06c0.34-0.42,0.66-0.83,0.97-1.23c0.76-0.97,1.47-1.86,2.08-2.64
			c0.25-0.32,0.49-0.63,0.71-0.91s0.43-0.55,0.62-0.8c0.89-1.15,1.41-1.83,1.41-1.83l0.99-0.01l33.71-0.38L145.69,129.53z"/>
		<path class="st7" d="M112.04,131.25c0,0-9.98,0.5-13.02-4.48S86.86,87.8,86.86,87.8"/>
		<path class="st7" d="M109.53,51.23c0,0-0.94-5.15-2.34,1.1c-1.12,5,0.83,3.16,0.83,3.16"/>
		<circle class="st8" cx="119.06" cy="51.71" r="0.72"/>
		<path class="st7" d="M114.03,62.57c0,0-0.96,1.12-2.72-0.64"/>
	</g>
</g>
</svg>
