<?xml version="1.0" encoding="utf-8"?>
<!-- Generator: Adobe Illustrator 24.0.3, SVG Export Plug-In . SVG Version: 6.00 Build 0)  -->
<svg version="1.1" id="Layer_1" xmlns="http://www.w3.org/2000/svg" xmlns:xlink="http://www.w3.org/1999/xlink" x="0px" y="0px"
	 viewBox="0 0 1280 169" style="enable-background:new 0 0 1280 169;" xml:space="preserve">
<style type="text/css">
	.st0{clip-path:url(#SVGID_2_);}
	.st1{clip-path:url(#SVGID_4_);}
	.st2{fill:#DF635C;}
	.st3{clip-path:url(#SVGID_8_);}
	.st4{clip-path:url(#SVGID_10_);}
	.st5{fill:none;stroke:#F0B3B0;stroke-miterlimit:10;}
	.st6{clip-path:url(#SVGID_12_);fill:none;stroke:#F0B3B0;stroke-miterlimit:10;}
	.st7{clip-path:url(#SVGID_14_);fill:none;stroke:#F0B3B0;stroke-miterlimit:10;}
	.st8{clip-path:url(#SVGID_16_);fill:none;stroke:#F0B3B0;stroke-miterlimit:10;}
	.st9{clip-path:url(#SVGID_18_);fill:none;stroke:#F0B3B0;stroke-miterlimit:10;}
	.st10{clip-path:url(#SVGID_20_);fill:none;stroke:#F0B3B0;stroke-miterlimit:10;}
	.st11{clip-path:url(#SVGID_22_);fill:none;stroke:#F0B3B0;stroke-miterlimit:10;}
	.st12{clip-path:url(#SVGID_24_);fill:none;stroke:#F0B3B0;stroke-miterlimit:10;}
	.st13{clip-path:url(#SVGID_26_);fill:none;stroke:#F0B3B0;stroke-miterlimit:10;}
	.st14{clip-path:url(#SVGID_28_);fill:none;stroke:#F0B3B0;stroke-miterlimit:10;}
	.st15{clip-path:url(#SVGID_30_);fill:none;stroke:#F0B3B0;stroke-miterlimit:10;}
	.st16{clip-path:url(#SVGID_32_);fill:none;stroke:#F1A096;stroke-miterlimit:10;}
	.st17{clip-path:url(#SVGID_34_);fill:#F1A096;}
	.st18{clip-path:url(#SVGID_36_);}
	.st19{fill:none;}
	.st20{fill:#E55658;}
	.st21{fill:#811C11;stroke:#811C11;stroke-width:1.0029;stroke-miterlimit:10;}
	.st22{fill:#D25969;}
	.st23{fill:#EC6E56;}
	.st24{fill:#EC867E;}
	.st25{fill:#E86966;}
	.st26{fill:#F1A096;}
	.st27{fill:#811C11;}
	.st28{fill:none;stroke:#811C11;stroke-miterlimit:10;}
	.st29{fill:none;stroke:#811C11;stroke-linejoin:round;stroke-miterlimit:10;}
	.st30{clip-path:url(#SVGID_38_);}
	.st31{fill:#E44E53;}
	.st32{fill:#E63236;}
	.st33{fill:#E65D5E;}
	.st34{clip-path:url(#SVGID_40_);}
	.st35{fill:#E02F42;}
	.st36{fill:#EF9470;}
	.st37{fill:none;stroke:#E02F42;stroke-width:0.9141;stroke-miterlimit:10;}
	.st38{fill:none;stroke:#811C11;stroke-width:0.9141;stroke-miterlimit:10;}
	.st39{fill:#811C11;stroke:#811C11;stroke-width:0.8009;stroke-miterlimit:10;}
	.st40{fill:none;stroke:#811C11;stroke-width:0.9141;stroke-linejoin:round;stroke-miterlimit:10;}
	.st41{clip-path:url(#SVGID_42_);fill:#F1A096;}
	.st42{clip-path:url(#SVGID_44_);}
	.st43{clip-path:url(#SVGID_46_);}
</style>
<g>
	<g>
		<g>
			<defs>
				<rect id="SVGID_1_" x="-1.54" width="1283.08" height="171.86"/>
			</defs>
			<clipPath id="SVGID_2_">
				<use xlink:href="#SVGID_1_"  style="overflow:visible;"/>
			</clipPath>
			<g class="st0">
				<g>
					<g>
						<defs>
							<rect id="SVGID_3_" x="-1.54" width="1283.08" height="171.86"/>
						</defs>
						<clipPath id="SVGID_4_">
							<use xlink:href="#SVGID_3_"  style="overflow:visible;"/>
						</clipPath>
						<g class="st1">
							<polyline class="st2" points="912.29,171.99 -30.56,171.99 -30.56,0.13 1281.71,0.13 1281.71,171.99 912.29,171.99 							
								"/>
						</g>
					</g>
				</g>
				<g>
					<g>
						<defs>
							<rect id="SVGID_6_" x="-1.54" width="1283.08" height="171.86"/>
						</defs>
						<clipPath id="SVGID_8_">
							<use xlink:href="#SVGID_6_"  style="overflow:visible;"/>
						</clipPath>
						<g class="st3">
							<g>
								<g>
									<defs>
										<rect id="SVGID_9_" x="-1.54" width="1283.08" height="171.86"/>
									</defs>
									<clipPath id="SVGID_10_">
										<use xlink:href="#SVGID_9_"  style="overflow:visible;"/>
									</clipPath>
									<g class="st4">
										<rect x="-1.54" class="st5" width="1283.08" height="171.86"/>
									</g>
								</g>
							</g>
							<g>
								<rect id="SVGID_5_" x="-1.54" class="st5" width="1283.08" height="171.86"/>
							</g>
						</g>
					</g>
				</g>
				<g>
					<g>
						<defs>
							<rect id="SVGID_11_" x="-1.54" width="1283.08" height="171.86"/>
						</defs>
						<clipPath id="SVGID_12_">
							<use xlink:href="#SVGID_11_"  style="overflow:visible;"/>
						</clipPath>
						<circle class="st6" cx="877.4" cy="168.81" r="43.97"/>
					</g>
				</g>
				<g>
					<g>
						<defs>
							<rect id="SVGID_13_" x="-1.54" width="1283.08" height="171.86"/>
						</defs>
						<clipPath id="SVGID_14_">
							<use xlink:href="#SVGID_13_"  style="overflow:visible;"/>
						</clipPath>
						<circle class="st7" cx="1258.71" cy="0.66" r="43.97"/>
					</g>
				</g>
				<g>
					<g>
						<defs>
							<rect id="SVGID_15_" x="-1.54" width="1283.08" height="171.86"/>
						</defs>
						<clipPath id="SVGID_16_">
							<use xlink:href="#SVGID_15_"  style="overflow:visible;"/>
						</clipPath>
						<path class="st8" d="M723.43,187.68l25.66-18.29c0.7-0.5,0.86-1.46,0.36-2.16l-18.29-25.66c-0.5-0.7-1.46-0.86-2.16-0.36
							l-25.66,18.29c-0.7,0.5-0.86,1.46-0.36,2.16l18.29,25.66C721.76,188.01,722.73,188.17,723.43,187.68z"/>
					</g>
				</g>
				<g>
					<g>
						<defs>
							<rect id="SVGID_17_" x="-1.54" width="1283.08" height="171.86"/>
						</defs>
						<clipPath id="SVGID_18_">
							<use xlink:href="#SVGID_17_"  style="overflow:visible;"/>
						</clipPath>
						<circle class="st9" cx="927.04" cy="-5.54" r="43.97"/>
					</g>
				</g>
				<g>
					<g>
						<defs>
							<rect id="SVGID_19_" x="-1.54" width="1283.08" height="171.86"/>
						</defs>
						<clipPath id="SVGID_20_">
							<use xlink:href="#SVGID_19_"  style="overflow:visible;"/>
						</clipPath>
						<circle class="st10" cx="460.86" cy="161.58" r="22.59"/>
					</g>
				</g>
				<g>
					<g>
						<defs>
							<rect id="SVGID_21_" x="-1.54" width="1283.08" height="171.86"/>
						</defs>
						<clipPath id="SVGID_22_">
							<use xlink:href="#SVGID_21_"  style="overflow:visible;"/>
						</clipPath>
						<path class="st11" d="M35.72,171.24l25.66-18.29c0.7-0.5,0.86-1.46,0.36-2.16l-18.29-25.66c-0.5-0.7-1.46-0.86-2.16-0.36
							l-25.66,18.29c-0.7,0.5-0.86,1.46-0.36,2.16l18.29,25.66C34.05,171.57,35.02,171.73,35.72,171.24z"/>
					</g>
				</g>
				<g>
					<g>
						<defs>
							<rect id="SVGID_23_" x="-1.54" width="1283.08" height="171.86"/>
						</defs>
						<clipPath id="SVGID_24_">
							<use xlink:href="#SVGID_23_"  style="overflow:visible;"/>
						</clipPath>
						<path class="st12" d="M1044.19,157.49l41.29,27.76c1.12,0.75,2.64,0.46,3.39-0.66l27.76-41.29c0.75-1.12,0.46-2.64-0.66-3.39
							l-41.29-27.76c-1.12-0.75-2.64-0.46-3.39,0.66l-27.76,41.29C1042.77,155.22,1043.07,156.73,1044.19,157.49z"/>
					</g>
				</g>
				<g>
					<g>
						<defs>
							<rect id="SVGID_25_" x="-1.54" width="1283.08" height="171.86"/>
						</defs>
						<clipPath id="SVGID_26_">
							<use xlink:href="#SVGID_25_"  style="overflow:visible;"/>
						</clipPath>
						<path class="st13" d="M381.04,20.45l22.4,26.29c0.61,0.71,1.68,0.8,2.39,0.19l26.29-22.4c0.71-0.61,0.8-1.68,0.19-2.39
							l-22.4-26.29c-0.61-0.71-1.68-0.8-2.39-0.19l-26.29,22.4C380.52,18.66,380.44,19.73,381.04,20.45z"/>
					</g>
				</g>
				<g>
					<g>
						<defs>
							<rect id="SVGID_27_" x="-1.54" width="1283.08" height="171.86"/>
						</defs>
						<clipPath id="SVGID_28_">
							<use xlink:href="#SVGID_27_"  style="overflow:visible;"/>
						</clipPath>
						<path class="st14" d="M542.45-17.13l10.92,64.48c0.13,0.79,1.07,1.13,1.68,0.63l50.39-41.7c0.61-0.51,0.45-1.49-0.3-1.77
							l-61.3-22.79C543.08-18.55,542.31-17.91,542.45-17.13z"/>
					</g>
				</g>
				<g>
					<g>
						<defs>
							<rect id="SVGID_29_" x="-1.54" width="1283.08" height="171.86"/>
						</defs>
						<clipPath id="SVGID_30_">
							<use xlink:href="#SVGID_29_"  style="overflow:visible;"/>
						</clipPath>
						<path class="st15" d="M59.12,77.01l-8.07-64.9c-0.1-0.79-1.02-1.18-1.65-0.7L-2.78,50.86c-0.64,0.48-0.51,1.47,0.22,1.78
							L57.69,78.1C58.42,78.41,59.22,77.81,59.12,77.01z"/>
					</g>
				</g>
			</g>
		</g>
	</g>
	<g>
		<g>
			<defs>
				<rect id="SVGID_31_" x="-1.54" width="1283.08" height="171.86"/>
			</defs>
			<clipPath id="SVGID_32_">
				<use xlink:href="#SVGID_31_"  style="overflow:visible;"/>
			</clipPath>
			<path class="st16" d="M999.54,89.11h173.36c3.99,0,7.23-3.24,7.23-7.23v-94.9c0-3.99-3.24-7.23-7.23-7.23H999.54
				c-3.99,0-7.23,3.24-7.23,7.23v94.9C992.31,85.87,995.55,89.11,999.54,89.11z"/>
		</g>
	</g>
	<g>
		<g>
			<defs>
				<rect id="SVGID_33_" x="-1.54" width="1283.08" height="171.86"/>
			</defs>
			<clipPath id="SVGID_34_">
				<use xlink:href="#SVGID_33_"  style="overflow:visible;"/>
			</clipPath>
			<path class="st17" d="M60.14,108.48h240.9c4.83,0,8.75-3.92,8.75-8.75V0.82c0-4.83-3.92-8.75-8.75-8.75H60.14
				c-4.83,0-8.75,3.92-8.75,8.75v98.91C51.38,104.56,55.3,108.48,60.14,108.48z"/>
		</g>
	</g>
	<g>
		<g>
			<defs>
				<rect id="SVGID_35_" x="-1.54" width="1283.08" height="171.86"/>
			</defs>
			<clipPath id="SVGID_36_">
				<use xlink:href="#SVGID_35_"  style="overflow:visible;"/>
			</clipPath>
			<g class="st18">
				<g>
					<path class="st19" d="M1240.23,98.51c0.22,1.34,1.79,3.02,3.25,3.36c0,0,2.86,5.25,3.69,8.51c-3.33,0.74-6.84,1.59-9.69,2.18
						c-0.94,0.19-1.79,0.51-2.59,0.91c0.68-6.96,1.37-13.08,1.89-15.65c0.51-2.51,0.5-5.06,0.26-7.34c0.3,0.78,0.61,1.59,0.85,2.56
						C1238.44,95.26,1240.01,97.17,1240.23,98.51z"/>
					<path class="st20" d="M1217.68,18.3c1.64,0.72,3.39,0.1,1.64,2.87c-1.74,2.77-1.74,4.72-1.03,6.05
						c0.23,0.43,0.43,0.88,0.54,1.36l-0.44,0.9c0,0-3.39,0.1-4.31,0s-1.64-6.16-1.64-6.16s-0.1-0.51-1.23-0.72s0.82-3.08,1.64-4.62
						c0.82-1.54,0.51-5.34,0.51-5.34S1216.04,17.58,1217.68,18.3z"/>
					<path class="st21" d="M1218.83,28.58c-0.11-0.47-0.3-0.92-0.54-1.36c-0.72-1.33-0.72-3.28,1.03-6.05
						c1.74-2.77,0-2.15-1.64-2.87s-4.31-5.64-4.31-5.64c0.1-1.03,1.33-2.36,3.39-3.69c0.84-0.55,1.52-1.54,2.72-1.58
						c1.72-0.07,3.87,1.99,6.62,0.97c3.94-1.47,7.74,1.32,6.76,3.34c-1.77,3.65,3.21,3.8,4.65,5.75c0.34,0.47-0.96,2.21-0.66,3.43
						c0.23,0.96,2.17,2,2.54,3.1c0.27,0.81-0.05,3.95,0.11,4.76c0.48,2.46,1.09,2.41,1.66,3.43c0.61,1.08-0.11,1.31-1,2.76
						c-0.22,0.36,0.15,2.24,0,2.65c-0.56,1.53-2.45,2.19-2.67,2.89c-0.02,0.05-0.05,0.08-0.07,0.12c-0.21-1-0.54-1.92-1.06-2.68
						c-2.57-3.8-4.62-6.26-8.52-5.13c-3.9,1.13-9.54,7.18-9.54,7.18l0,0c-0.5-0.44-1.03-1-1.54-1.75c-1.74-2.57-0.41-4.1,1.13-6.16
						C1218.92,30.67,1219.06,29.57,1218.83,28.58z"/>
					<path class="st20" d="M1209.6,71.38c-2.83,1.37-7.08,3.28-8.86,3.35c-2.77,0.1-4.21-0.92-5.03-1.33
						c-0.82-0.41,1.54-0.82,2.87-1.03s5.03-2.57,5.03-2.57s-1.13-0.21-1.54-0.62s2.15-0.92,4.21-0.82c1.13,0.06,2.57-0.73,3.64-1.44
						c-0.02,0.8-0.03,1.53-0.04,2.16C1209.86,69.84,1209.76,70.61,1209.6,71.38z"/>
					<path class="st20" d="M1202.18,60.57c-0.92-0.72-5.85-1.23-5.44-2.26s5.85-0.31,6.87,0s2.36,0.72,3.69,2.15
						c0.4,0.44,1.46,0.95,2.74,1.45c2.93,1.15,7.01,2.24,7.01,2.24s-0.31,5.13-0.21,5.85c0,0-2.53-1.17-5.02-2.29
						c-0.64-0.29-1.27-0.57-1.86-0.83c-0.02-0.01-0.04-0.02-0.05-0.02c-1.49-0.66-2.68-1.16-2.82-1.16c-0.41,0-6.26,1.64-8.11,0.92
						s-5.95-0.31-6.26-0.82C1192.44,65.29,1203.11,61.29,1202.18,60.57z"/>
					<path class="st22" d="M1209.6,71.38c0.15-0.77,0.26-1.54,0.27-2.29c0.01-0.63,0.03-1.36,0.04-2.16c0-0.02,0-0.04,0-0.06
						c0.02,0.01,0.04,0.02,0.05,0.02c0.59,0.26,1.22,0.54,1.86,0.83c2.48,1.12,5.02,2.29,5.02,2.29c-0.1-0.72,0.21-5.85,0.21-5.85
						s-4.08-1.09-7.01-2.24c0.15-4.32,0.43-8.98,1.06-11.3c1.02-3.79,7.15-10.64,7.18-10.67l0,0c0,0,5.64-6.05,9.54-7.18
						c3.9-1.13,5.95,1.33,8.52,5.13c0.52,0.76,0.85,1.68,1.06,2.68c0.84,3.99-0.32,9.47-0.24,13.32c0.09,4.22-0.72,9.61-1.53,15.03
						c-0.11,0.78-1.63,3.57-1.65,4.34c-0.09,3.82,2.05,8.33,1.23,10.18c-0.05,0.12-0.2,0.22-0.43,0.32
						c-0.86,0.36-2.89,0.54-5.41,0.62c-0.95,0.03-1.97,0.04-3.03,0.04c-6.81,0.01-15.04-0.47-15.04-0.47s-0.56-0.4-1.27-0.96
						c-0.87-0.69-1.35-1.65-1.92-2.44C1207.27,79.37,1208.82,75.37,1209.6,71.38z"/>
					<path class="st23" d="M1227.82,170.2c-0.3-3.1-0.73-9.2,0.37-9.76c0.11-0.06,0.24-0.06,0.38,0c1.47,0.67,6.8,6.42,9.81,9.75
						L1227.82,170.2L1227.82,170.2z"/>
					<path class="st24" d="M1244.95,102.36c1.22,2.66,3.05,5.29,5.35,6.9c0.17,0.12,0.31,0.23,0.47,0.35
						c2.25,1.64,3.62,3.19,4.52,4.7c-3.58-0.2-7.96-0.77-7.9-2.36c0.02-0.42-0.07-0.96-0.23-1.57c-0.83-3.26-3.69-8.51-3.69-8.51
						C1243.78,101.94,1244.31,102.12,1244.95,102.36z"/>
					<path class="st25" d="M1235.98,84.92c0.26-1.35,0.93-2.8,1.9-4.32c1.57-2.46,4.93-4.37,4.93-4.37s2.46-2.8,3.47-3.02
						c1.01-0.22,1.46,2.13,5.15,0.22c3.69-1.9,5.6,1.12,9.18,3.02c3.58,1.9,4.59,5.6,5.04,9.07c0.16,1.27,0.06,3.69-0.17,6.32
						c-2.84-2.4-5.65-3.43-7.78-4.19c-3.13-1.12-13.35,5.57-13.88,6.05c-0.59,0.52-0.73,1.86-0.47,3.56
						c0.23,1.51,0.78,3.31,1.61,5.1c-0.64-0.24-1.17-0.42-1.48-0.49c-1.46-0.34-3.02-2.02-3.25-3.36c-0.22-1.34-1.79-3.25-2.35-5.49
						c-0.24-0.96-0.54-1.78-0.85-2.56c-0.4-1.03-0.8-2-1.06-3.15C1235.81,86.55,1235.81,85.75,1235.98,84.92z"/>
					<path class="st25" d="M1243.81,93.7c0.54-0.47,10.75-7.17,13.88-6.05c2.13,0.76,4.94,1.78,7.78,4.19
						c1.34,1.13,2.69,2.57,3.98,4.43c2.96,4.28-3.47,7.61,1.68,10.64c0.77,0.45,1.37,1.14,1.83,1.97c2.32,4.22,0.93,12.35-2.06,14.6
						c-3.58,2.69-10.97,4.14-12.76-0.56c-1.15-3.01-1.16-5.74-2.85-8.61c-0.89-1.51-2.27-3.06-4.52-4.7
						c-0.16-0.12-0.3-0.23-0.47-0.35c-2.3-1.61-4.13-4.24-5.35-6.9c-0.82-1.79-1.37-3.59-1.61-5.1
						C1243.08,95.55,1243.22,94.22,1243.81,93.7z"/>
					<path class="st23" d="M1193.34,170.2c1.09-3.21,4.85-14.04,6.11-13.41c1.09,0.55,2.72,9.01,3.5,13.41H1193.34z"/>
					<path class="st23" d="M1139.84,172.2c-0.78-4.24-2.12-11.08-3.51-16.47c-0.49-1.88-1.4-3.61-2.6-5.16
						c-2.23-2.89-5.45-5.15-8.73-6.63c0.08-1.76,0.63-4.13,5.46-4.13c6.24,0,45.18-0.38,56.12,2.65c1.59,0.44,2.59,0.95,2.81,1.55
						c1.53,4.15,4.61,23.8,5.29,28.21h-54.84L1139.84,172.2L1139.84,172.2z"/>
					<path class="st24" d="M1150.9,105.33l0.95,0.41l0.14-2.45l1.64,0.68c0,0,0.27-2.86,0.95-4.91c0.57-1.72,2.2-3.16,2.95-5.04
						l0.32-0.01c0,0-0.95,3.27-1.09,5.45s-0.82,5.04-1.91,5.73c-0.66,0.41-1.46,1.41-2,2.14c-0.88-0.17-2.03-0.27-3.31-0.31
						C1150.51,106.2,1150.9,105.33,1150.9,105.33z"/>
					<path class="st25" d="M1118.07,118.86c0.74-3.95,11.84-5.67,16.77-6.66c0.01,0,0.03,0,0.04-0.01c0.81-1.9,1.98-4.66,3.09-4.66
						c0.08,0,0.19,0,0.31-0.01c0.49,1.03,0.78,1.91,0.78,1.91s3.27-0.27,6.27-0.82c0.44-0.08,0.83-0.2,1.18-0.35
						c0.63-0.26,1.15-0.6,1.56-0.95c1.27,0.04,2.43,0.14,3.31,0.31c0.57,0.11,1.03,0.26,1.31,0.45c1.4,0.93,3.95,3.14,5.42,4.45
						c5.2,0.3,12.6,0.85,14.71,2.14c2.68,1.65,8.61,19.6,10.5,26.07c-10.94-3.02-49.88-2.65-56.12-2.65c-4.84,0-5.39,2.37-5.46,4.13
						c-1.75-0.79-3.51-1.35-5.15-1.67C1116.92,133.55,1117.56,121.6,1118.07,118.86z"/>
					<path class="st22" d="M1134.41,87.06c0.68-2.18,0.95-9.13,6.13-9.95s16.9,0.95,17.04,3.82c0,0,3.82,4.5,2.45,6.41
						c-1.36,1.91-1.77,3.14-2.18,5.59c-0.06,0.39-0.18,0.75-0.32,1.1c-0.75,1.88-2.37,3.31-2.95,5.04
						c-0.68,2.04-0.95,4.91-0.95,4.91l-1.64-0.68l-0.14,2.45l-0.95-0.41c0,0-0.39,0.88-1.35,1.7c-0.41,0.35-0.93,0.69-1.56,0.95
						c-0.36,0.15-0.75,0.27-1.18,0.35c-3,0.55-6.27,0.82-6.27,0.82s-0.28-0.88-0.78-1.91c-0.48-0.99-1.15-2.12-1.95-2.72
						c-1.64-1.23-3.41-3.68-3.54-4.77c-0.14-1.09,0.14-3.41-0.14-6.13C1133.86,90.88,1133.73,89.24,1134.41,87.06z"/>
					<path class="st26" d="M1046.82,171.2c-0.01-0.09-0.02-0.17-0.04-0.28c-0.42-3.07-1.44-11.62-0.11-14.29
						c1.64-3.27-1.23-9,7.91-12.81c5.2-2.17,10.45-4.13,14.1-5.63c1.47-0.61,2.68-1.14,3.53-1.59c0.18,0.27,0.51,0.7,1.01,1.22
						c1.31,1.37,3.79,3.29,7.83,4.06c0.04,0.01,0.07,0.02,0.11,0.02c1.72,0.32,4.79,0.16,8.33-0.24c3.94-0.45,8.46-1.21,12.38-2
						c2.67-0.54,5.06-1.09,6.79-1.56c-0.22,1.09,0.11,2.84,4.53,2.84c0.89,0,1.86,0.11,2.88,0.3c1.64,0.32,3.4,0.88,5.15,1.67
						c3.28,1.48,6.5,3.74,8.73,6.63c1.2,1.55,2.11,3.28,2.6,5.16c1.39,5.4,2.73,12.23,3.51,16.47h-89.24V171.2z"/>
					<path class="st26" d="M1076.72,131.27l0.58-0.86c0,0,0.45,5.67,5.52,6.48c1.17,0.19,2.58,0.11,4.29-0.35
						c1.2-0.32,2.42-0.64,3.66-0.96c4.29-1.1,8.62-2.13,11.77-2.86c2.86-0.66,4.75-1.08,4.75-1.08s2.59,3.82,5.86,4.23
						c0.99,0.12-0.16,0.62-2.49,1.25c-1.73,0.47-4.12,1.02-6.79,1.56c-3.92,0.79-8.44,1.55-12.38,2c-3.54,0.4-6.61,0.55-8.33,0.24
						c-0.04-0.01-0.07-0.02-0.11-0.02c-4.05-0.77-6.52-2.69-7.83-4.06c-0.5-0.52-0.83-0.96-1.01-1.22
						c-0.12-0.17-0.18-0.28-0.18-0.28L1076.72,131.27z"/>
					<path class="st27" d="M1071.4,98.69c0.04-0.86,0.17-1.74,0.44-2.63c0.05-0.16,0.1-0.33,0.15-0.5c1.04-3.56,2.16-8.81,4.89-9.72
						c0.72-0.24,1.78-0.68,3.03-1.2c3.76-1.55,9.24-3.78,12.1-3.16c3.82,0.82,13.77,5.86,13.77,5.86s1.77,4.63,0.82,6.41
						c-0.79,1.47-1.94,3.04-2.32,4.93c-0.08-0.15-2.18,6.66-2.18,6.66s-2.18,1.09-2.18,2.32s1.5,4.09,1.5,4.09
						s-7.91,9.81-10.22,10.09c-1.17,0.14-2.84,0.24-4.61,0.27c-1.72,0.03-3.53,0-5.07-0.14c-3.14-0.27-2.18-2.86-3.68-3
						c-0.11-0.01-0.21,0.07-0.3,0.2c-0.67-2.21-1.52-4.74-2.15-5.79c-1.23-2.04-3.95-4.91-3.68-7.63
						C1071.91,103.69,1071.27,101.27,1071.4,98.69z"/>
					<path class="st26" d="M1071.49,68.81c0.41,3.12,2.85,8.56,3.26,10.6s-1.9-0.41-4.62-0.54c-2.72-0.14-3.12,4.48-3.94,5.98
						c-0.82,1.49-2.45,2.72-3.8,3.8s-5.71-0.82-5.71-0.82s-1.09-0.14-1.77-0.82s-2.45-2.04-2.45-2.04s-1.63-1.9-2.58-3.67
						s1.36-5.57,1.77-11.68s11.55-7.2,15.08-7.47c1.92-0.15,3.56,1.15,4.66,2.37c-1-0.73-1.8-1.19-2.08-1.15
						C1068.36,63.52,1071.08,65.69,1071.49,68.81z"/>
					<path class="st24" d="M1062.38,88.65c1.36-1.09,2.99-2.31,3.8-3.8c0.82-1.49,1.22-6.11,3.94-5.98
						c2.72,0.14,5.03,2.58,4.62,0.54s-2.85-7.47-3.26-10.6c-0.41-3.12-3.12-5.3-2.17-5.43c0.27-0.04,1.08,0.42,2.08,1.15
						c2.49,1.81,6.21,5.3,6.21,7.14c0,2.58,0.95,7.47,2.04,8.83c0.48,0.61,0.46,2.37,0.28,4.14c-1.25,0.52-2.32,0.96-3.03,1.2
						c-2.73,0.91-3.85,6.16-4.89,9.72c-3.56-0.96-10.14-2.55-14.4-2.47c-0.21-1.84-0.91-5.25-0.91-5.25S1061.03,89.74,1062.38,88.65
						z"/>
					<g>
						<path class="st26" d="M1217.32,169.9h-11c0.74-1.34,1.18-3.22,1.45-4.86c0.48,0.98,1.59,2.07,4.1,1.16
							c4.09-1.49,4.09-1.49,4.09-1.49s1.83,2.36,1.53,4.3C1217.46,169.27,1217.4,169.57,1217.32,169.9z"/>
						<path class="st26" d="M1207.17,144.99c0.87-7.56,0.74-53.31,1.36-57.4c0.32-2.1,0.96-3.61,1.52-4.58
							c0.71,0.56,1.27,0.96,1.27,0.96s8.23,0.48,15.04,0.47c1.06,0,2.08-0.01,3.03-0.04c2.52-0.08,4.55-0.26,5.41-0.62
							c0.08,0.26,0.16,0.54,0.25,0.85c-0.16,0.83-0.17,1.63,0,2.4c0.26,1.15,0.66,2.12,1.06,3.15c0.24,2.28,0.25,4.83-0.26,7.34
							c-0.52,2.57-1.21,8.69-1.89,15.65c-4.7,2.34-7.23,7.87-9.33,12.72c-1.59,3.66,0.29,18.72,1.82,28.97
							c-0.34-0.29-0.59-0.57-0.67-0.8c-0.29-0.87-4.56-12.47-6.44-20.32c-0.7,6.96-1.68,16.4-1.99,18.34
							c-0.5,3.1-1.24,2.85-0.99,5.46c0.25,2.6-0.37,7.19-0.37,7.19s0,0-4.09,1.49c-2.51,0.91-3.61-0.18-4.1-1.16
							c-0.31-0.62-0.37-1.2-0.37-1.2S1206.3,152.56,1207.17,144.99z"/>
					</g>
					<path class="st25" d="M1077.56,129.36c0,0,2.36-5.48,0.27-10.39h0.01c1.5,0.14,0.55,2.73,3.68,3c1.55,0.13,3.36,0.17,5.07,0.14
						c1.76-0.03,3.43-0.14,4.61-0.27c2.32-0.27,10.22-10.09,10.22-10.09s-1.5-2.86-1.5-4.09c0-1.23,2.18-2.32,2.18-2.32
						s2.09-6.81,2.18-6.66c1.55,2.74,0.83,7.93,0.96,11.16c0.14,3.41-2.59,9.68-3.95,12.4c-1.05,2.1,0.49,7.93,1.25,10.49
						c-3.15,0.73-7.48,1.77-11.77,2.86c-1.23,0.32-2.46,0.64-3.66,0.96c-1.71,0.46-3.12,0.53-4.29,0.35
						c-5.07-0.81-5.52-6.48-5.52-6.48L1077.56,129.36z"/>
					<path class="st28" d="M1077.53,119.16c-0.1-0.33-0.2-0.66-0.31-0.99l0.26,0.05c0.13,0.25,0.24,0.5,0.35,0.75
						C1077.72,118.96,1077.62,119.03,1077.53,119.16z"/>
					<path class="st23" d="M1073.01,135.3c-0.85,0.45-2.06,0.98-3.53,1.59c-3.65,1.51-8.9,3.46-14.1,5.63
						c-9.13,3.82-6.27,9.54-7.91,12.81c-1.33,2.67-0.31,11.22,0.11,14.29l-0.52,0.28h-4.81c-0.69-6.24-2.58-23.06-3.96-33.03
						c-0.57-4.11-1.05-7.06-1.33-7.61c-1.11-2.22,6.11-5.28,6.11-5.28c12.72,4.3,23.46,5.15,30.27,5.08
						c0.77-0.01,2.92-0.15,2.92-0.11c0,0.71-3.43,6.07-3.43,6.07S1072.9,135.13,1073.01,135.3z"/>
					<path class="st20" d="M1035.35,120.17c2.17-2.85,2.04-9.65,4.35-15.35c2.31-5.71,2.85-6.11,5.57-6.93s9.51-4.35,9.51-4.35
						c0.7-0.3,1.67-0.44,2.81-0.46c4.26-0.08,10.85,1.51,14.4,2.47c-0.05,0.17-0.1,0.34-0.15,0.5c-0.27,0.89-0.4,1.77-0.44,2.63
						c-0.13,2.58,0.51,5,0.31,7.05c-0.27,2.73,2.45,5.59,3.68,7.63c0.54,0.9,1.23,2.86,1.84,4.79c0.11,0.33,0.21,0.67,0.31,0.99
						c0.09-0.13,0.19-0.2,0.29-0.2c2.09,4.91-0.27,10.39-0.27,10.39s-2.25-0.01-3.02,0c-6.81,0.07-17.55-0.79-30.27-5.08
						c0,0-7.23,3.06-6.11,5.28c0.28,0.55,0.76,3.5,1.33,7.61c-1.7-0.44-3.49-1.6-4.27-2.19
						C1034.13,134.16,1033.17,123.02,1035.35,120.17z"/>
					<path class="st27" d="M1292.95,142.76c0,0-1.82-27.72-4.65-30.55c-2.83-2.83-15.41-3.85-15.41-3.85
						c-0.74-0.04-1.54-0.08-2.39-0.1c2.32,4.22,0.93,12.35-2.06,14.6c-3.58,2.69-10.97,4.14-12.76-0.56
						c-1.15-3.01-1.16-5.74-2.85-8.61c-3.58-0.2-7.96-0.77-7.9-2.36c0.02-0.42-0.07-0.96-0.23-1.57c-3.33,0.74-6.84,1.59-9.69,2.18
						c-0.94,0.19-1.79,0.51-2.59,0.91c-4.7,2.34-7.23,7.87-9.33,12.72c-1.59,3.66,0.29,18.72,1.82,28.97
						c0.3,1.98,0.58,3.79,0.82,5.29c0.11-0.06,0.24-0.06,0.38,0c1.47,0.67,6.8,6.42,9.81,9.75h2.03
						c-0.17-6.46-0.23-24.04,4.25-25.28c4.62-1.27,24.5-1.48,30.69-1.51v-0.03H1292.95z"/>
					<path class="st23" d="M1308.86,174.82c0,0-5.67-24.89-6.68-26.91s-26.13-1.59-26.13-1.59c-6.19,0.03-26.07,0.23-30.69,1.51
						c-4.47,1.23-4.42,18.82-4.25,25.28h28.32l-0.02,0.1L1308.86,174.82z"/>
				</g>
				<g>
					<path class="st19" d="M1237.76,97.89c0.22,1.34,1.79,3.02,3.25,3.36c0,0,2.86,5.25,3.69,8.51c-3.33,0.74-6.84,1.59-9.69,2.18
						c-0.94,0.19-1.79,0.51-2.59,0.91c0.68-6.96,1.37-13.08,1.89-15.65c0.51-2.51,0.5-5.06,0.26-7.34c0.3,0.78,0.6,1.59,0.85,2.56
						C1235.97,94.64,1237.54,96.54,1237.76,97.89z"/>
					<path class="st29" d="M1216.15,17.97c1.64,0.72,3.39,0.1,1.64,2.87s-1.74,4.72-1.03,6.05c0.23,0.43,0.43,0.88,0.54,1.36
						l-0.44,0.9c0,0-3.39,0.1-4.31,0s-1.64-6.16-1.64-6.16s-0.1-0.51-1.23-0.72s0.82-3.08,1.64-4.62c0.82-1.54,0.51-5.34,0.51-5.34
						S1214.51,17.26,1216.15,17.97z"/>
					<path class="st29" d="M1217.3,28.26c-0.11-0.47-0.3-0.92-0.54-1.36c-0.72-1.33-0.72-3.28,1.03-6.05s0-2.15-1.64-2.87
						s-4.31-5.64-4.31-5.64c0.1-1.03,1.33-2.36,3.39-3.69c0.84-0.55,1.52-1.54,2.72-1.58c1.72-0.07,3.87,1.99,6.62,0.97
						c3.94-1.47,7.74,1.32,6.76,3.34c-1.77,3.65,3.21,3.8,4.65,5.75c0.34,0.47-0.96,2.21-0.66,3.43c0.23,0.96,2.17,2,2.54,3.1
						c0.27,0.81-0.05,3.95,0.11,4.76c0.48,2.46,1.09,2.41,1.66,3.43c0.61,1.08-0.11,1.31-1,2.76c-0.22,0.36,0.15,2.24,0,2.65
						c-0.56,1.53-2.45,2.19-2.67,2.89c-0.02,0.05-0.05,0.08-0.07,0.12c-0.21-1-0.54-1.92-1.06-2.68c-2.57-3.8-4.62-6.26-8.52-5.13
						c-3.9,1.13-9.54,7.18-9.54,7.18l0,0c-0.5-0.44-1.03-1-1.54-1.75c-1.74-2.57-0.41-4.1,1.13-6.16
						C1217.39,30.34,1217.53,29.24,1217.3,28.26z"/>
					<path class="st29" d="M1208.07,71.05c-2.83,1.37-7.08,3.28-8.86,3.35c-2.77,0.1-4.21-0.92-5.03-1.33
						c-0.82-0.41,1.54-0.82,2.87-1.03s5.03-2.57,5.03-2.57s-1.13-0.21-1.54-0.62s2.15-0.92,4.21-0.82c1.13,0.06,2.57-0.73,3.64-1.44
						c-0.02,0.8-0.03,1.53-0.04,2.16C1208.33,69.51,1208.23,70.28,1208.07,71.05z"/>
					<path class="st29" d="M1200.65,60.25c-0.92-0.72-5.85-1.23-5.44-2.26s5.85-0.31,6.87,0s2.36,0.72,3.69,2.15
						c0.4,0.44,1.46,0.95,2.74,1.45c2.93,1.15,7.01,2.24,7.01,2.24s-0.31,5.13-0.21,5.85c0,0-2.53-1.17-5.02-2.29
						c-0.64-0.29-1.27-0.57-1.86-0.83c-0.02-0.01-0.04-0.02-0.06-0.02c-1.49-0.66-2.68-1.16-2.82-1.16c-0.41,0-6.26,1.64-8.11,0.92
						s-5.95-0.31-6.26-0.82C1190.91,64.97,1201.58,60.96,1200.65,60.25z"/>
					<path class="st28" d="M1208.07,71.05c0.15-0.77,0.26-1.54,0.27-2.29c0.01-0.63,0.03-1.36,0.04-2.16c0-0.02,0-0.04,0-0.06
						c0.02,0.01,0.04,0.02,0.06,0.02c0.59,0.26,1.22,0.54,1.86,0.83c2.48,1.12,5.02,2.29,5.02,2.29c-0.1-0.72,0.21-5.85,0.21-5.85
						s-4.08-1.09-7.01-2.24c0.15-4.32,0.43-8.98,1.06-11.3c1.02-3.79,7.15-10.64,7.18-10.67l0,0c0,0,5.64-6.05,9.54-7.18
						c3.9-1.13,5.95,1.33,8.52,5.13c0.52,0.76,0.85,1.68,1.06,2.68c0.84,3.99-0.32,9.47-0.24,13.32c0.09,4.22-0.72,9.61-1.53,15.03
						c-0.11,0.78-1.63,3.57-1.65,4.34c-0.09,3.82,2.05,8.33,1.23,10.18c-0.05,0.12-0.2,0.22-0.43,0.32
						c-0.86,0.36-2.89,0.54-5.41,0.62c-0.95,0.03-1.97,0.04-3.03,0.04c-6.81,0.01-15.04-0.47-15.04-0.47s-0.56-0.4-1.27-0.96
						c-0.87-0.69-1.35-1.65-1.92-2.44C1205.74,79.04,1207.29,75.04,1208.07,71.05z"/>
					<path class="st28" d="M1225.35,169.57c-0.3-3.1-0.73-9.2,0.37-9.76c0.11-0.06,0.24-0.06,0.38,0c1.47,0.67,6.8,6.42,9.81,9.75
						L1225.35,169.57"/>
					<path class="st28" d="M1242.48,101.74c1.22,2.66,3.05,5.29,5.35,6.9c0.17,0.12,0.31,0.23,0.47,0.35
						c2.25,1.64,3.62,3.19,4.52,4.7c-3.58-0.2-7.96-0.77-7.9-2.36c0.02-0.42-0.07-0.96-0.23-1.57c-0.83-3.26-3.69-8.51-3.69-8.51
						C1241.31,101.32,1241.84,101.5,1242.48,101.74z"/>
					<path class="st28" d="M1233.51,84.29c0.26-1.35,0.93-2.8,1.9-4.32c1.57-2.46,4.93-4.37,4.93-4.37s2.46-2.8,3.47-3.02
						c1.01-0.22,1.46,2.13,5.15,0.22c3.69-1.9,5.6,1.12,9.18,3.02c3.58,1.9,4.59,5.6,5.04,9.07c0.16,1.27,0.06,3.69-0.17,6.32
						c-2.84-2.4-5.65-3.43-7.78-4.19c-3.14-1.12-13.35,5.57-13.88,6.05c-0.59,0.52-0.73,1.86-0.47,3.56
						c0.23,1.51,0.78,3.31,1.61,5.1c-0.64-0.24-1.17-0.42-1.48-0.49c-1.46-0.34-3.02-2.02-3.25-3.36c-0.22-1.34-1.79-3.25-2.35-5.49
						c-0.24-0.96-0.54-1.78-0.85-2.56c-0.4-1.03-0.8-2-1.06-3.15C1233.34,85.92,1233.35,85.13,1233.51,84.29z"/>
					<path class="st28" d="M1241.34,93.07c0.54-0.47,10.75-7.17,13.88-6.05c2.13,0.76,4.93,1.78,7.78,4.19
						c1.34,1.13,2.69,2.57,3.98,4.43c2.96,4.28-3.47,7.61,1.68,10.64c0.77,0.45,1.37,1.14,1.83,1.97c2.32,4.22,0.93,12.35-2.06,14.6
						c-3.58,2.69-10.97,4.14-12.76-0.56c-1.15-3.01-1.16-5.74-2.85-8.61c-0.89-1.51-2.27-3.06-4.52-4.7
						c-0.16-0.12-0.3-0.23-0.47-0.35c-2.3-1.61-4.13-4.24-5.35-6.9c-0.82-1.79-1.37-3.59-1.61-5.1
						C1240.61,94.93,1240.75,93.6,1241.34,93.07z"/>
					<path class="st28" d="M1190.87,169.57c1.09-3.21,4.85-14.04,6.11-13.41c1.09,0.55,2.72,9.01,3.5,13.41H1190.87z"/>
					<path class="st28" d="M1135.59,169.57c-0.78-4.24-2.12-11.08-3.51-16.47c-0.49-1.88-1.4-3.61-2.6-5.16
						c-2.23-2.89-5.45-5.15-8.73-6.63c0.08-1.76,0.63-4.13,5.46-4.13c6.24,0,45.18-0.38,56.12,2.65c1.59,0.44,2.59,0.95,2.81,1.55
						c1.53,4.15,4.61,23.8,5.29,28.21h-54.84L1135.59,169.57L1135.59,169.57z"/>
					<path class="st28" d="M1148.43,104.7l0.95,0.41l0.14-2.45l1.64,0.68c0,0,0.27-2.86,0.95-4.91c0.57-1.72,2.2-3.16,2.95-5.04
						l0.32-0.01c0,0-0.95,3.27-1.09,5.45s-0.82,5.04-1.91,5.73c-0.66,0.41-1.46,1.41-2,2.14c-0.88-0.17-2.03-0.27-3.31-0.31
						C1148.04,105.58,1148.43,104.7,1148.43,104.7z"/>
					<path class="st28" d="M1117.09,117.94c0.74-3.95,11.84-5.67,16.77-6.66c0.01,0,0.03,0,0.04-0.01c0.81-1.9,1.98-4.66,3.09-4.66
						c0.08,0,0.19,0,0.31-0.01c0.49,1.03,0.78,1.91,0.78,1.91s3.27-0.27,6.27-0.82c0.44-0.08,0.83-0.2,1.18-0.35
						c0.63-0.26,1.15-0.6,1.56-0.95c1.27,0.04,2.43,0.14,3.31,0.31c0.57,0.11,1.03,0.26,1.31,0.45c1.4,0.93,3.95,3.14,5.42,4.45
						c5.2,0.3,12.6,0.85,14.71,2.14c2.68,1.65,8.61,19.6,10.5,26.07c-10.94-3.02-49.88-2.65-56.12-2.65c-4.84,0-5.39,2.37-5.46,4.13
						c-1.75-0.79-3.51-1.35-5.15-1.67C1115.94,132.62,1116.57,120.68,1117.09,117.94z"/>
					<path class="st28" d="M1131.94,86.44c0.68-2.18,0.95-9.13,6.13-9.95s16.9,0.95,17.04,3.82c0,0,3.82,4.5,2.45,6.41
						c-1.36,1.91-1.77,3.14-2.18,5.59c-0.06,0.39-0.18,0.75-0.32,1.1c-0.75,1.88-2.37,3.31-2.95,5.04
						c-0.68,2.04-0.95,4.91-0.95,4.91l-1.64-0.68l-0.14,2.45l-0.95-0.41c0,0-0.39,0.88-1.35,1.7c-0.41,0.35-0.93,0.69-1.56,0.95
						c-0.36,0.15-0.75,0.27-1.18,0.35c-3,0.55-6.27,0.82-6.27,0.82s-0.28-0.88-0.78-1.91c-0.48-0.99-1.15-2.12-1.95-2.72
						c-1.64-1.23-3.41-3.68-3.54-4.77c-0.14-1.09,0.14-3.41-0.14-6.13S1131.26,88.62,1131.94,86.44z"/>
					<path class="st28" d="M1046.35,169.57c-0.01-0.09-0.02-0.17-0.04-0.28c-0.42-3.07-1.44-11.62-0.11-14.29
						c1.64-3.27-1.23-9,7.91-12.81c5.2-2.17,10.45-4.13,14.1-5.63c1.47-0.61,2.68-1.14,3.53-1.59c0.18,0.27,0.51,0.7,1.01,1.22
						c1.31,1.37,3.78,3.29,7.83,4.06c0.04,0.01,0.07,0.02,0.11,0.02c1.72,0.32,4.79,0.16,8.33-0.24c3.94-0.45,8.46-1.21,12.38-2
						c2.67-0.54,5.06-1.09,6.79-1.56c-0.22,1.09,0.11,2.84,4.53,2.84c0.89,0,1.86,0.11,2.88,0.3c1.64,0.32,3.4,0.88,5.15,1.67
						c3.28,1.48,6.5,3.74,8.73,6.63c1.2,1.55,2.11,3.28,2.6,5.16c1.39,5.4,2.73,12.23,3.51,16.47h-89.24V169.57z"/>
					<path class="st28" d="M1074.25,130.65l0.58-0.86c0,0,0.45,5.67,5.52,6.48c1.17,0.19,2.58,0.11,4.29-0.35
						c1.2-0.32,2.42-0.64,3.66-0.96c4.29-1.1,8.62-2.13,11.77-2.86c2.86-0.66,4.75-1.08,4.75-1.08s2.59,3.82,5.86,4.23
						c0.99,0.12-0.16,0.62-2.49,1.25c-1.73,0.47-4.12,1.02-6.79,1.56c-3.92,0.79-8.44,1.55-12.38,2c-3.54,0.4-6.61,0.55-8.33,0.24
						c-0.04-0.01-0.07-0.02-0.11-0.02c-4.05-0.77-6.52-2.69-7.83-4.06c-0.5-0.52-0.83-0.96-1.01-1.22
						c-0.12-0.17-0.18-0.28-0.18-0.28L1074.25,130.65z"/>
					<path class="st28" d="M1068.93,98.07c0.04-0.86,0.17-1.74,0.44-2.63c0.05-0.16,0.1-0.33,0.15-0.5
						c1.04-3.56,2.16-8.81,4.89-9.72c0.71-0.24,1.78-0.68,3.03-1.2c3.76-1.55,9.24-3.78,12.1-3.16c3.82,0.82,13.77,5.86,13.77,5.86
						s1.77,4.63,0.82,6.41c-0.79,1.47-1.94,3.04-2.32,4.93c-0.08-0.15-2.18,6.66-2.18,6.66s-2.18,1.09-2.18,2.32s1.5,4.09,1.5,4.09
						s-7.91,9.81-10.22,10.09c-1.17,0.14-2.84,0.24-4.6,0.27c-1.72,0.03-3.53,0-5.07-0.14c-3.14-0.27-2.18-2.86-3.68-3
						c-0.11-0.01-0.21,0.07-0.3,0.2c-0.67-2.21-1.52-4.74-2.15-5.79c-1.23-2.04-3.95-4.91-3.68-7.63
						C1069.44,103.07,1068.8,100.65,1068.93,98.07z"/>
					<path class="st28" d="M1069.02,68.19c0.41,3.12,2.85,8.56,3.26,10.6s-1.9-0.41-4.62-0.54c-2.72-0.14-3.12,4.48-3.94,5.98
						c-0.82,1.49-2.45,2.72-3.8,3.8s-5.71-0.82-5.71-0.82s-1.09-0.14-1.77-0.82s-2.45-2.04-2.45-2.04s-1.63-1.9-2.58-3.67
						s1.36-5.57,1.77-11.68s11.55-7.2,15.08-7.47c1.92-0.15,3.56,1.15,4.66,2.37c-1-0.73-1.8-1.19-2.08-1.15
						C1065.89,62.89,1068.61,65.07,1069.02,68.19z"/>
					<path class="st28" d="M1059.92,88.03c1.36-1.09,2.99-2.31,3.8-3.8c0.82-1.49,1.22-6.11,3.94-5.98
						c2.72,0.14,5.03,2.58,4.62,0.54s-2.85-7.47-3.26-10.6c-0.41-3.12-3.12-5.3-2.17-5.43c0.27-0.04,1.08,0.42,2.08,1.15
						c2.49,1.81,6.21,5.3,6.21,7.14c0,2.58,0.95,7.47,2.04,8.83c0.48,0.61,0.46,2.37,0.28,4.14c-1.25,0.52-2.32,0.96-3.03,1.2
						c-2.73,0.91-3.85,6.16-4.89,9.72c-3.56-0.96-10.14-2.55-14.4-2.47c-0.21-1.84-0.91-5.25-0.91-5.25S1058.56,89.11,1059.92,88.03
						z"/>
					<g>
						<path class="st28" d="M1215.79,169.57h-11c0.74-1.34,1.18-3.22,1.45-4.86c0.48,0.98,1.59,2.07,4.1,1.16
							c4.09-1.49,4.09-1.49,4.09-1.49s1.83,2.36,1.53,4.3C1215.93,168.94,1215.87,169.24,1215.79,169.57z"/>
						<path class="st28" d="M1205.63,144.67c0.87-7.56,0.74-53.31,1.36-57.4c0.32-2.1,0.96-3.61,1.52-4.58
							c0.71,0.56,1.27,0.96,1.27,0.96s8.23,0.48,15.04,0.47c1.06,0,2.08-0.01,3.03-0.04c2.52-0.08,4.55-0.26,5.41-0.62
							c0.08,0.26,0.16,0.54,0.25,0.85c-0.16,0.83-0.17,1.63,0,2.4c0.26,1.15,0.66,2.12,1.06,3.15c0.24,2.28,0.25,4.83-0.26,7.34
							c-0.52,2.57-1.21,8.69-1.89,15.65c-4.7,2.34-7.23,7.87-9.33,12.72c-1.59,3.66,0.29,18.72,1.82,28.97
							c-0.34-0.29-0.59-0.57-0.67-0.8c-0.29-0.87-4.56-12.47-6.44-20.32c-0.7,6.96-1.68,16.4-1.99,18.34
							c-0.5,3.1-1.24,2.85-0.99,5.46c0.25,2.6-0.37,7.19-0.37,7.19s0,0-4.09,1.49c-2.51,0.91-3.61-0.18-4.1-1.16
							c-0.31-0.62-0.37-1.2-0.37-1.2S1204.77,152.23,1205.63,144.67z"/>
					</g>
					<g>
						<path class="st28" d="M1075.09,128.73c0,0,2.36-5.48,0.27-10.39h0.01c1.5,0.14,0.55,2.73,3.68,3
							c1.55,0.13,3.36,0.17,5.07,0.14c1.76-0.03,3.43-0.14,4.6-0.27c2.32-0.27,10.22-10.09,10.22-10.09s-1.5-2.86-1.5-4.09
							c0-1.23,2.18-2.32,2.18-2.32s2.09-6.81,2.18-6.66c1.55,2.74,0.83,7.93,0.96,11.16c0.14,3.41-2.59,9.68-3.95,12.4
							c-1.05,2.1,0.49,7.93,1.25,10.49c-3.15,0.73-7.48,1.77-11.77,2.86c-1.23,0.32-2.46,0.64-3.66,0.96
							c-1.71,0.46-3.12,0.53-4.29,0.35c-5.07-0.81-5.52-6.48-5.52-6.48L1075.09,128.73z"/>
						<path class="st28" d="M1075.07,118.53c-0.1-0.33-0.2-0.66-0.31-0.99l0.26,0.05c0.13,0.25,0.24,0.5,0.35,0.75
							C1075.25,118.33,1075.15,118.41,1075.07,118.53z"/>
						<path class="st28" d="M1071.73,134.97c-0.85,0.45-2.06,0.98-3.53,1.59c-3.65,1.51-8.9,3.46-14.1,5.63
							c-9.13,3.82-6.27,9.54-7.91,12.81c-1.33,2.67-0.31,11.22,0.11,14.29l-0.52,0.28h-4.81c-0.69-6.24-2.58-23.06-3.96-33.03
							c-0.57-4.11-1.05-7.06-1.33-7.61c-1.11-2.22,6.11-5.28,6.11-5.28c12.72,4.3,23.46,5.15,30.27,5.08
							c0.77-0.01,2.92-0.15,2.92-0.11c0,0.71-3.43,6.07-3.43,6.07S1071.62,134.8,1071.73,134.97z"/>
						<path class="st28" d="M1032.88,119.55c2.17-2.85,2.04-9.65,4.35-15.35c2.31-5.71,2.85-6.11,5.57-6.93s9.51-4.35,9.51-4.35
							c0.7-0.3,1.67-0.44,2.81-0.46c4.26-0.08,10.85,1.51,14.4,2.47c-0.05,0.17-0.1,0.34-0.15,0.5c-0.27,0.89-0.4,1.77-0.44,2.63
							c-0.13,2.58,0.51,5,0.31,7.05c-0.27,2.73,2.45,5.59,3.68,7.63c0.54,0.9,1.23,2.86,1.84,4.79c0.11,0.33,0.21,0.67,0.31,0.99
							c0.09-0.13,0.19-0.2,0.29-0.2c2.09,4.91-0.27,10.39-0.27,10.39s-2.25-0.01-3.02,0c-6.81,0.07-17.55-0.79-30.27-5.08
							c0,0-7.23,3.06-6.11,5.28c0.28,0.55,0.76,3.5,1.33,7.61c-1.7-0.44-3.49-1.6-4.27-2.19
							C1031.66,133.54,1030.71,122.4,1032.88,119.55z"/>
					</g>
					<path class="st28" d="M1292.95,142.76c0,0-1.82-27.72-4.65-30.55c-2.83-2.83-15.41-3.85-15.41-3.85
						c-0.74-0.04-1.54-0.08-2.39-0.1c2.32,4.22,0.93,12.35-2.06,14.6c-3.58,2.69-10.97,4.14-12.76-0.56
						c-1.15-3.01-1.16-5.74-2.85-8.61c-3.58-0.2-7.96-0.77-7.9-2.36c0.02-0.42-0.07-0.96-0.23-1.57c-3.33,0.74-6.84,1.59-9.69,2.18
						c-0.94,0.19-1.79,0.51-2.59,0.91c-4.7,2.34-7.23,7.87-9.33,12.72c-1.59,3.66,0.29,18.72,1.82,28.97
						c0.3,1.98,0.58,3.79,0.82,5.29c0.11-0.06,0.24-0.06,0.38,0c1.47,0.67,6.8,6.42,9.81,9.75h2.03
						c-0.17-6.46-0.23-24.04,4.25-25.28c4.62-1.27,24.5-1.48,30.69-1.51v-0.03H1292.95z"/>
					<path class="st28" d="M1305.7,171.29c0,0-5.67-24.89-6.68-26.91s-26.13-1.59-26.13-1.59c-6.19,0.03-26.07,0.23-30.69,1.51
						c-4.47,1.23-4.42,18.82-4.25,25.28h28.32l-0.02,0.1L1305.7,171.29z"/>
				</g>
				<path class="st28" d="M1215.53,63.84c0.36-0.26,6.95,2.43,7.39,0.43c0.43-2-1.04-19.18-0.26-20.14"/>
				<path class="st28" d="M1215.33,69.69c0,0,1.6,2.4,3.95,2.83c2.34,0.43,12.24,2.78,13.19,0.43"/>
				<path class="st28" d="M1133.89,111.27c0,0,17.47-2.25,23.23,0.33"/>
				<path class="st28" d="M1049.94,94.47c0.43,0,15.96-0.71,18.99,3.6"/>
				<path class="st28" d="M1041.8,123.65c0,0-4.1-10.76-2.94-13.35"/>
				<path class="st28" d="M1122.89,137.49c0,0-3.45-12.37-3.74-15.4"/>
				<path class="st28" d="M1173.11,138.21c0,0-4.03-8.2-3.6-12.09"/>
				<path class="st28" d="M1242.2,144.3c-0.46-0.91-4.63-9.68-6.79-10.11"/>
				<path class="st28" d="M1217.8,133.4c0,0-0.95-11.81-2.12-21.39s-1.16-15.97-2.32-17.14"/>
				<path class="st28" d="M1212.29,25.74c0,0,1.98,0.44,2.22-0.83"/>
				<circle class="st27" cx="1213.27" cy="19.3" r="0.64"/>
				<path class="st29" d="M1101.33,105.37c0,0-3.1-0.91-2.74,1.46s2.56,8.22,2.74,6.57"/>
				<line class="st29" x1="1099.63" y1="104.7" x2="1104.62" y2="103.37"/>
				<path class="st29" d="M1102.84,101.97c0,0,1.26-0.68,1.74,0.68c0.48,1.35,0.39,7.74-1.55,7.84"/>
			</g>
		</g>
	</g>
	<g>
		<g>
			<defs>
				<rect id="SVGID_37_" x="-1.54" width="1283.08" height="171.86"/>
			</defs>
			<clipPath id="SVGID_38_">
				<use xlink:href="#SVGID_37_"  style="overflow:visible;"/>
			</clipPath>
			<g class="st30">
				<g>
					<path class="st25" d="M916.57,77.05c0.55-1.75,0.28-4.26-0.28-7.01c-0.21,1.66-1.29,9.76-2.56,11.03
						c-1.1,1.1,1.79,1.92,3.14,2.23C916.4,80.45,916.24,78.11,916.57,77.05z"/>
					<path class="st26" d="M971.41,41.6c0,0,1.11-2.34,4.59-3.34c-2.37-3.76-8.01-11.87-16.41-12.73
						c-9.22-0.95-26.24-7.09-40.42,9.22c0,0-0.09,0.4-0.2,1.05c-0.39,2.2-1.13,7.37-0.03,10.3c1.42,3.78,1.18,7.33,1.65,10.87
						c0.47,3.55,4.49,3.31,5.2,7.8s0.47,6.15,2.6,5.44s2.36-6.38,5.91-4.49c3.55,1.89,7.8,8.27,8.27,12.29
						c0.47,4.02,5.44,13.24,13.71,13c5.08-0.15,9.54-2.97,12.22-5.12c0.03-0.11,0.05-0.21,0.07-0.32
						c1.89-8.04,0.71-12.76,1.42-19.15c0.27-2.41,1.01-5.63,1.74-8.82c1.2-5.25,2.37-10.42,1.34-11.74
						C971.41,43.72,971.41,41.6,971.41,41.6z"/>
					<path class="st25" d="M971.28,121.43c-2.21-3.98-3.65-7.5-3.65-9.4c0-5.44,2.13-5.67,0.47-11.35
						c-1.63-5.59-1.42-7.06,0.4-14.81c-2.68,2.15-7.13,4.98-12.22,5.12c-8.27,0.24-13.24-8.98-13.71-13
						c-0.47-4.02-4.73-10.4-8.27-12.29c-3.55-1.89-3.78,3.78-5.91,4.49c-2.13,0.71-1.89-0.95-2.6-5.44c-0.71-4.49-4.73-4.25-5.2-7.8
						c-0.47-3.55-0.24-7.09-1.65-10.87c-1.1-2.92-0.36-8.1,0.03-10.3c-0.81,1.21-1.55,2.58-2.16,4.15c0,0-4.02,14.66-2.84,20.33
						c0.64,3.05,1.68,6.58,2.32,9.77c0.56,2.75,0.82,5.26,0.28,7.01c-0.33,1.05-0.16,3.39,0.3,6.25c1.2,7.38,4.38,18.19,6.08,19.05
						c2.36,1.18,13-0.71,13-0.71s0.71,4.25,0.24,6.86c-0.47,2.6-9.46,7.09-9.46,7.09s16.07,18.91,45.86,8.98c0,0,0.04-0.27,0.1-0.71
						C972.19,123.04,971.72,122.23,971.28,121.43z"/>
					<path class="st26" d="M999.3,124.09c2.78,1.39,12.77-1.4,12.48-2.74c-0.05-0.25-0.47-0.45-1.37-0.57
						c-0.03,0-0.05-0.01-0.08-0.01c-0.98-0.36-2.02-0.64-3.12-0.84c-4.29-1.83-8.12-6.58-12.4-17.11
						c-3.07-7.56,8.04-27.18,5.67-46.57s-13.95-18.2-20.57-18.44c-1.56-0.06-2.85,0.13-3.92,0.44c-3.48,1-4.59,3.34-4.59,3.34
						s0,2.13,1.65,4.25c1.03,1.32-0.14,6.49-1.34,11.74c-0.73,3.19-1.47,6.41-1.74,8.82c-0.71,6.38,0.47,11.11-1.42,19.15
						c-0.03,0.11-0.05,0.21-0.07,0.32c-1.82,7.75-2.03,9.22-0.4,14.81c1.65,5.67-0.47,5.91-0.47,11.35c0,1.9,1.45,5.42,3.65,9.4
						c0.44,0.79,0.91,1.6,1.4,2.42c4.14,6.86,10.03,14.37,14.56,17.26c7.8,4.96,21.75-0.47,19.62-1.18
						C1004.74,139.22,995.99,122.44,999.3,124.09z"/>
					<path class="st25" d="M907.2,115.75c-0.42-0.89-1.1-1.89-1.64-2.63c-0.9,0.98-1.99,2.16-3.21,3.49
						C903.94,116.24,905.57,115.96,907.2,115.75z"/>
					<path class="st25" d="M894.35,104.95c-3.07-0.95-4.73,1.89-8.75,5.91c-4.02,4.02-6.38,3.55-8.51,6.38s-4.49,0,0.24,13
						c0.27,0.74,0.51,1.44,0.73,2.13c1.12,3.43,1.68,6.17,1.93,8.35c0.58,5.04-0.54,7.01-0.54,7.01l5.67-0.95
						c0,0-0.67-4.97,1.33-12.98c0.65-2.62,1.59-5.57,2.93-8.77c1.11-2.65,3.32-4.6,6.13-6.04l-0.46-0.34
						c-4.96-0.24-1.18-7.8-1.18-7.8l1.48-3.46l0.65-1.51C896,105.89,897.42,105.89,894.35,104.95z"/>
					<path class="st31" d="M908.22,110.09c-0.65,0.18-1.26,0.24-1.77,0.1c-2.01-0.56-7.16-2.88-8.65-6.32l-2.44,3.53l-1.48,3.46
						c0,0-3.78,7.56,1.18,7.8l0.46,0.34c1.85-0.95,3.96-1.68,6.19-2.24c0.21-0.05,0.43-0.1,0.65-0.15c1.22-1.33,2.31-2.51,3.21-3.49
						c1.69-1.84,2.73-2.97,2.73-2.97L908.22,110.09z"/>
					<path class="st32" d="M1011.78,121.35c0.29,1.34-9.69,4.13-12.48,2.74c-3.31-1.65,5.44,15.13,7.56,15.84
						c2.13,0.71-11.82,6.15-19.62,1.18c-4.53-2.89-10.42-10.4-14.56-17.26c-0.06,0.44-0.1,0.71-0.1,0.71
						c-29.78,9.93-45.86-8.98-45.86-8.98s-9.84-1.09-19.53,0.17c-1.64,0.21-3.27,0.49-4.84,0.86c-0.22,0.05-0.43,0.1-0.65,0.15
						c-2.24,0.55-4.34,1.28-6.19,2.24c-2.81,1.44-5.02,3.4-6.13,6.04c-1.34,3.21-2.28,6.15-2.93,8.77
						c-1.99,8.01-1.33,12.98-1.33,12.98l-5.67,0.95c0,0,1.18,10.4,0.47,13.71c-0.71,3.31-0.71,20.33-1.65,27.66
						c-0.95,7.33-3.07,10.87-1.65,19.38c1.42,8.51,1.42,8.51,1.42,8.51l24.35-0.71l3.55-8.51l0.95,8.98l80.61-0.71l10.4-36.4
						c0,0-1.89,19.86-1.42,23.87s0.98,21.09,0.98,21.09l24.11-1.89c0,0,3.06-48.88,3.77-53.37
						C1025.95,165.42,1029.45,129.73,1011.78,121.35z"/>
					<path class="st33" d="M914.11,106.65c0,0,3.97-5.67,2.84-8.65s-3.4-8.94-11.49-6.95c0,0-4.82,1.99-5.67,4.11
						C899.78,95.16,899.36,106.36,914.11,106.65z"/>
					<path class="st33" d="M899.78,95.16c0,0-0.99,0.57-2.27,5.67c-0.27,1.09-0.12,2.1,0.28,3.04c1.49,3.45,6.64,5.76,8.65,6.32
						c0.51,0.14,1.12,0.08,1.77-0.1c2.62-0.72,5.89-3.45,5.89-3.45C899.36,106.36,899.78,95.16,899.78,95.16z"/>
					<path class="st27" d="M872.24,142.93c-1.32,1.99-3.94,6.02-3.94,6.55c0,0.71,2.55,0.85,2.55,0.85l3.71-5.9
						c-0.66-0.35-1.42-0.83-2.06-1.24C872.39,143.11,872.32,143.02,872.24,142.93z"/>
					<path class="st31" d="M878.06,132.37l-5.98,8.64c-0.42,0.61-0.32,1.4,0.17,1.92c0.08,0.09,0.15,0.19,0.26,0.25
						c0.64,0.42,1.41,0.9,2.06,1.24c0.62,0.33,1.14,0.54,1.35,0.47c0.15-0.05,1.72-1.67,4.08-4.17
						C879.74,138.54,879.18,135.8,878.06,132.37z"/>
				</g>
				<g>
					<path class="st28" d="M915.07,74.82c0.55-1.75,0.28-4.26-0.28-7.01c-0.21,1.66-1.29,9.76-2.56,11.03
						c-1.1,1.1,1.79,1.92,3.14,2.23C914.91,78.21,914.74,75.87,915.07,74.82z"/>
					<path class="st28" d="M969.91,39.36c0,0,1.11-2.34,4.59-3.34c-2.37-3.76-8.01-11.87-16.41-12.73
						c-9.22-0.95-26.24-7.09-40.42,9.22c0,0-0.09,0.4-0.2,1.05c-0.39,2.2-1.13,7.37-0.03,10.3c1.42,3.78,1.18,7.33,1.65,10.87
						c0.47,3.55,4.49,3.31,5.2,7.8s0.47,6.15,2.6,5.44s2.36-6.38,5.91-4.49c3.55,1.89,7.8,8.27,8.27,12.29s5.44,13.24,13.71,13
						c5.08-0.15,9.54-2.97,12.22-5.12c0.03-0.11,0.05-0.21,0.07-0.32c1.89-8.04,0.71-12.76,1.42-19.15
						c0.27-2.41,1.01-5.63,1.74-8.82c1.2-5.25,2.37-10.42,1.34-11.74C969.91,41.49,969.91,39.36,969.91,39.36z"/>
					<path class="st28" d="M969.78,119.2c-2.21-3.98-3.65-7.5-3.65-9.4c0-5.44,2.13-5.67,0.47-11.35c-1.63-5.59-1.42-7.06,0.4-14.81
						c-2.68,2.15-7.13,4.98-12.22,5.12c-8.27,0.24-13.24-8.98-13.71-13s-4.73-10.4-8.27-12.29c-3.55-1.89-3.78,3.78-5.91,4.49
						c-2.13,0.71-1.89-0.95-2.6-5.44c-0.71-4.49-4.73-4.25-5.2-7.8c-0.47-3.55-0.24-7.09-1.65-10.87c-1.1-2.92-0.36-8.1,0.03-10.3
						c-0.81,1.21-1.55,2.58-2.16,4.15c0,0-4.02,14.66-2.84,20.33c0.64,3.05,1.68,6.58,2.32,9.77c0.56,2.75,0.82,5.26,0.28,7.01
						c-0.33,1.05-0.16,3.39,0.3,6.25c1.2,7.38,4.38,18.19,6.08,19.05c2.36,1.18,13-0.71,13-0.71s0.71,4.25,0.24,6.86
						c-0.47,2.6-9.46,7.09-9.46,7.09s16.07,18.91,45.86,8.98c0,0,0.04-0.27,0.1-0.71C970.69,120.8,970.22,119.99,969.78,119.2z"/>
					<path class="st28" d="M997.8,121.86c2.78,1.39,12.77-1.4,12.48-2.74c-0.05-0.25-0.47-0.45-1.37-0.57
						c-0.03,0-0.05-0.01-0.08-0.01c-0.98-0.36-2.02-0.64-3.12-0.84c-4.29-1.83-8.12-6.58-12.4-17.11
						c-3.07-7.56,8.04-27.18,5.67-46.57s-13.95-18.2-20.57-18.44c-1.56-0.06-2.85,0.13-3.92,0.44c-3.48,1-4.59,3.34-4.59,3.34
						s0,2.13,1.65,4.25c1.03,1.32-0.14,6.49-1.34,11.74c-0.73,3.19-1.47,6.41-1.74,8.82c-0.71,6.38,0.47,11.11-1.42,19.15
						c-0.03,0.11-0.05,0.21-0.07,0.32c-1.82,7.75-2.03,9.22-0.4,14.81c1.65,5.67-0.47,5.91-0.47,11.35c0,1.9,1.45,5.42,3.65,9.4
						c0.44,0.79,0.91,1.6,1.4,2.42c4.14,6.86,10.03,14.37,14.56,17.26c7.8,4.96,21.75-0.47,19.62-1.18
						C1003.24,136.99,994.5,120.2,997.8,121.86z"/>
					<path class="st28" d="M905.71,113.51c-0.42-0.89-1.1-1.89-1.64-2.63c-0.9,0.98-1.99,2.16-3.21,3.49
						C902.44,114.01,904.07,113.72,905.71,113.51z"/>
					<path class="st29" d="M892.85,102.71c-3.07-0.95-4.73,1.89-8.75,5.91s-6.38,3.55-8.51,6.38s-4.49,0,0.24,13
						c0.27,0.74,0.51,1.44,0.73,2.13c1.12,3.43,1.68,6.17,1.93,8.35c0.58,5.04-0.54,7.01-0.54,7.01l5.67-0.95
						c0,0-0.67-4.97,1.33-12.98c0.65-2.62,1.59-5.57,2.93-8.77c1.11-2.65,3.32-4.6,6.13-6.04l-0.46-0.34
						c-4.96-0.24-1.18-7.8-1.18-7.8l1.48-3.46l0.65-1.51C894.51,103.66,895.92,103.66,892.85,102.71z"/>
					<path class="st28" d="M906.72,107.86c-0.65,0.18-1.26,0.24-1.77,0.1c-2.01-0.56-7.16-2.88-8.65-6.32l-2.44,3.53l-1.48,3.46
						c0,0-3.78,7.56,1.18,7.8l0.46,0.34c1.85-0.95,3.96-1.68,6.19-2.24c0.21-0.05,0.43-0.1,0.65-0.15c1.22-1.33,2.31-2.51,3.21-3.49
						c1.69-1.84,2.73-2.97,2.73-2.97L906.72,107.86z"/>
					<path class="st29" d="M1010.28,119.12c0.29,1.34-9.69,4.14-12.48,2.74c-3.31-1.65,5.44,15.13,7.56,15.84
						c2.13,0.71-11.82,6.15-19.62,1.18c-4.53-2.89-10.42-10.4-14.56-17.26c-0.06,0.44-0.1,0.71-0.1,0.71
						c-29.78,9.93-45.86-8.98-45.86-8.98s-9.84-1.09-19.53,0.17c-1.64,0.21-3.27,0.49-4.84,0.86c-0.22,0.05-0.43,0.1-0.65,0.15
						c-2.24,0.55-4.34,1.28-6.19,2.24c-2.81,1.44-5.02,3.4-6.13,6.04c-1.34,3.21-2.28,6.15-2.93,8.77
						c-1.99,8.01-1.33,12.98-1.33,12.98l-5.67,0.95c0,0,1.18,10.4,0.47,13.71c-0.71,3.31-0.71,20.33-1.65,27.66
						c-0.95,7.33-3.07,10.87-1.65,19.38c1.42,8.51,1.42,8.51,1.42,8.51l24.35-0.71l3.55-8.51l0.95,8.98l80.61-0.71l10.4-36.4
						c0,0-1.89,19.86-1.42,23.87s0.98,21.09,0.98,21.09l24.11-1.89c0,0,3.06-48.88,3.77-53.37
						C1024.45,163.19,1027.95,127.5,1010.28,119.12z"/>
					<path class="st29" d="M912.61,104.41c0,0,3.97-5.67,2.84-8.65c-1.13-2.98-3.4-8.94-11.49-6.95c0,0-4.82,1.99-5.67,4.11
						C898.29,92.92,897.86,104.13,912.61,104.41z"/>
					<path class="st29" d="M898.29,92.92c0,0-0.99,0.57-2.27,5.67c-0.27,1.09-0.12,2.1,0.28,3.04c1.49,3.45,6.64,5.76,8.65,6.32
						c0.51,0.14,1.12,0.08,1.77-0.1c2.62-0.72,5.89-3.45,5.89-3.45C897.86,104.13,898.29,92.92,898.29,92.92z"/>
					<path class="st28" d="M870.74,140.69c-1.32,1.99-3.94,6.02-3.94,6.55c0,0.71,2.55,0.85,2.55,0.85l3.71-5.9
						c-0.66-0.35-1.42-0.83-2.06-1.24C870.89,140.88,870.83,140.78,870.74,140.69z"/>
					<path class="st28" d="M876.56,130.13l-5.98,8.64c-0.42,0.61-0.32,1.4,0.17,1.92c0.08,0.09,0.15,0.19,0.26,0.25
						c0.64,0.42,1.41,0.9,2.06,1.24c0.62,0.33,1.14,0.54,1.35,0.47c0.15-0.05,1.72-1.67,4.08-4.17
						C878.24,136.31,877.68,133.56,876.56,130.13z"/>
				</g>
				<path class="st29" d="M931.17,65.79c0,0,2.96-2.56,3.35,2.76c0.39,5.33-1.23,13.13-2.17,13.41c-1.97,0.59-3.35-2.76-3.35-2.76"
					/>
				<path class="st29" d="M973.38,34.23c0,0-6.51,3.16-5.72,5.92s1.18,5.92,4.54,4.93"/>
				<path class="st29" d="M934.45,99.4c0,0,0.86-8.56,0.66-9.55"/>
				<path class="st29" d="M883.63,144.55c0,0-0.29,5.03-1.03,9.28c-0.74,4.25,0.55,12.2,0,17.75s-5.73,26.25-5.73,31.43"/>
				<path class="st29" d="M866.8,147.24c0,0-7.31,15.65-4.72,23.23s7.21,46.59-4.44,47.33"/>
			</g>
		</g>
	</g>
	<g>
		<g>
			<defs>
				<rect id="SVGID_39_" x="-1.54" width="1283.08" height="171.86"/>
			</defs>
			<clipPath id="SVGID_40_">
				<use xlink:href="#SVGID_39_"  style="overflow:visible;"/>
			</clipPath>
			<g class="st34">
				<g>
					<g>
						<path class="st31" d="M204.13,58.94c2.19,0.55,4.73,0.73,4.37,2.91c-0.36,2.19-0.91,6.19-0.55,7.65
							c0.17,0.69-0.31,2.46-0.87,4.12c0.01,0.29,0.01,0.62,0.02,0.99l26.16-0.37l6.39,5.65l-1.38-13.39c0,0,5.83,4.92,8.11,3.01
							c2.11-1.77,3.51-8.01,2.69-12.54c-0.21,0.56-1.17,2.97-2.78,2.89c-1.82-0.09-5.1-3.1-5.1-3.1s1.46-4.65,1.46-8.47
							c0-2.38-0.11-4.06-0.05-5.53c-0.38-0.33-0.79-0.6-1.22-0.75c-4.19-1.55-5.56,0-8.11-2.28s-3.92-4.92-5.47-5.47
							c-0.02-0.01-0.04-0.01-0.06-0.02c-0.1,1.35-0.29,3.87-0.49,4.85c-0.27,1.37-5.37,4.37-5.37,4.37s-1.64-0.73-3.83-2.28
							s0.36-6.56-0.55-7.47c0,0-0.46,2.82-3.83,3.64s-10.57,0.55-12.11,3.19c-1.55,2.64-6.01,12.84-7.47,13.03
							c-0.31,0.04-0.61,0.13-0.89,0.24c0.15,0.49,1.19,4.13-1.02,4.04c-2.37-0.09-5.01-1.18-4.92-1.73
							c0.03-0.17,0.04-0.99,0.02-2.04c-0.21,0.14-0.41,0.36-0.57,0.68c-1.18,2.37-1.82,6.1-1.82,6.1s1.46-0.91,1.82-0.18
							c0.12,0.23,0.34,0.39,0.59,0.5c2.95-2.33,7.25-4.59,9.9-4.59C200.13,56.57,201.95,58.39,204.13,58.94z"/>
						<path class="st35" d="M216.6,23.86l1.64-5.74c0,0,1.55-1.55,2.91-2c1.37-0.46,4.1-0.36,6.47,0.09
							c2.37,0.46,2.82,2.73,3.19,3.64c0.24,0.59-0.11,3.08-0.37,4.74c0.6-0.18,1.1-0.34,1.28-0.46c0.55-0.36,0.36-2.46,1.09-3.37
							s-0.09-2-0.36-3.1c-0.27-1.09,0-2.55-1-3.19s-2.91-0.82-3.37-1.55c-0.46-0.73-0.91-1.09-3.1-0.73s-1.28-1.82-3.64-0.55
							c-2.37,1.28-3.73,1.55-3.64,4.01s-3.01,0.18-2.64,3.01c0.28,2.14,0.24,3.81,0.28,4.69C215.88,23.36,216.6,23.86,216.6,23.86z"
							/>
						<path class="st36" d="M231.99,26.23c-0.91-0.73-1.82-0.09-1.82-0.09s0.12-0.66,0.26-1.54c0.27-1.66,0.61-4.15,0.37-4.74
							c-0.36-0.91-0.82-3.19-3.19-3.64c-2.37-0.46-5.1-0.55-6.47-0.09c-1.37,0.46-2.91,2-2.91,2l-1.64,5.74c0,0-0.72-0.5-1.26-0.5
							c-0.25,0-0.47,0.09-0.56,0.41c-0.27,1,1.64,4.01,2.19,4.46c0.55,0.46-0.36,4.55,0.55,5.47c0.91,0.91-1.64,5.92,0.55,7.47
							c2.19,1.55,3.83,2.28,3.83,2.28s5.1-3.01,5.37-4.37c0.2-0.98,0.39-3.49,0.49-4.85c0.04-0.53,0.06-0.89,0.06-0.89
							s1.46-2.73,1.55-3.73C229.44,28.6,232.9,26.96,231.99,26.23z"/>
						<path class="st36" d="M193.21,53.8c-0.01-0.04-0.02-0.06-0.02-0.06s-2.37-8.56-1.46-9.93c0.91-1.37-0.18-4.55-0.18-6.1
							s0.55-3.37-0.27-4.37s-1.73,1.09-1.73,2.55s0.18,2.55-0.82,3.46s-1.91-2-3.28-3.01c-1.37-1-3.55-4.19-4.1-4.37
							s-0.91,1-1.37,1.28c-0.46,0.27,0.64,2.55,0.64,2.55s0,0-0.18,0.91s0.91,2.1,1.73,3.46c0.82,1.37,0,0,0.18,2.1
							c0.18,2.09,3.83,5.65,4.37,5.92c0.37,0.19,0.54,3.59,0.57,5.88c0.02,1.05,0.01,1.87-0.02,2.04c-0.09,0.55,2.55,1.64,4.92,1.73
							C194.4,57.92,193.36,54.29,193.21,53.8z"/>
						<path class="st36" d="M253.13,35.98c0,0,1.91-2.55,1.46-3.37c-0.46-0.82-5.37,5.37-8.02,6.01c-2.64,0.64-1.46-0.46-1.82-2.73
							c-0.36-2.28-0.91-2.73-1.73-2.82c-0.82-0.09,0.46,4.83-0.09,7.1c-0.21,0.86-0.3,1.68-0.33,2.58
							c-0.05,1.47,0.05,3.15,0.05,5.53c0,3.83-1.46,8.47-1.46,8.47s3.28,3.01,5.1,3.1c1.61,0.08,2.58-2.32,2.78-2.89
							c0.03-0.07,0.04-0.12,0.04-0.12s-1.91-7.29-1.82-8.47s1.46-2.82,2.91-3.92c1.46-1.09,0.73-0.91,1.82-2
							c1.09-1.09,1.37-3.46,2-4.28c0.64-0.82,1.91-2.19,1.91-2.73C255.95,34.88,253.13,35.98,253.13,35.98z"/>
						<path class="st37" d="M207.11,74.6c-0.01-0.36-0.01-0.7-0.02-0.99c-0.11,0.34-0.23,0.67-0.34,0.99H207.11z"/>
						<path class="st24" d="M207.11,74.6l-0.36,0.01c-0.41,1.15-0.79,2.1-0.92,2.42c-0.03,0.07-0.05,0.12-0.05,0.12
							s-4.37,8.92-5.46,9.29c-1.08,0.36-3.43,2.69-7.55,2.02c-0.03-0.01-0.06-0.01-0.1-0.01c-4.19-0.73-7.47-2.37-8.38-4.55
							c-0.17-0.4-0.38-0.7-0.61-0.94l-1.34,7.82c2.91,0.15,7.02,0.53,10.07,0.84c2.17,0.22,3.81,0.41,4.09,0.47
							c0.44,0.09,1.7,1.08,3.04,2.39c0.13-0.89,0.41-2.09,0.96-3.3c1.09-2.37,2.55-3.82,3.46-4.55s1.64-2.37,2.55-4.19
							c0.44-0.88,0.58-3.25,0.61-5.46C207.12,76.12,207.12,75.31,207.11,74.6z"/>
						<path class="st26" d="M204.13,58.94c-2.19-0.55-4.01-2.37-6.92-2.37c-2.65,0-6.95,2.26-9.9,4.59
							c-0.29,0.23-0.58,0.46-0.84,0.69c-2.91,2.55-3.46,9.47-4.01,11.11c-0.55,1.64-0.55,3.1-0.91,6.37
							c-0.3,2.67,1.1,2.56,2.12,3.61c0.23,0.24,0.44,0.54,0.61,0.94c0.91,2.19,4.19,3.82,8.38,4.55c0.03,0.01,0.06,0.01,0.1,0.01
							c4.13,0.68,6.47-1.65,7.55-2.02c1.09-0.36,5.46-9.29,5.46-9.29s0.02-0.05,0.05-0.12c0.13-0.32,0.51-1.27,0.92-2.42
							c0.11-0.32,0.23-0.65,0.34-0.99c0.56-1.66,1.04-3.42,0.87-4.12c-0.36-1.46,0.18-5.46,0.55-7.65
							C208.87,59.66,206.32,59.48,204.13,58.94z"/>
						<path class="st25" d="M209.05,126.5c-3.82-1.09-8.19-2.55-6.56-6.19c1.64-3.64-0.18-5.1-1.27-9.11
							c-0.02-0.08-0.03-0.15-0.05-0.22c-0.98-3.87,0.45-6.18,2.24-7.43c1.2-0.84,1.45-1.29,2-2.89c-0.85-0.23-1.67-0.71-2.18-1.67
							c-0.75-1.41-2.27-3.15-3.69-4.53c-1.34-1.31-2.6-2.3-3.04-2.39c-0.28-0.06-1.91-0.25-4.09-0.47
							c-3.05-0.31-7.15-0.69-10.07-0.84c-1.82-0.1-3.17-0.11-3.51,0.04c-1.27,0.55-1.46,3.82-3.46,5.1c-2,1.27-1.82,0.91-10.2,3.82
							c-8.38,2.91-13.29,20.03-13.29,20.03l0.52,1.26c4.14,0.58,8.04,1.31,10.14,2.35c1.56,0.78,3.78,4.8,6.13,10.08
							c10.13-1.56,24.3,1.13,30.19,2.42l1.45-0.01c3.06-1.12,8.99-3.42,9.67-4.63c0.4-0.72,0.83-2.29,1.23-4.07
							C210.49,126.93,209.78,126.7,209.05,126.5z"/>
						<path class="st26" d="M198.85,135.87c-5.89-1.29-20.06-3.98-30.19-2.42c0.38,0.84,0.76,1.72,1.14,2.62
							c2.97,7.01,6.02,15.49,8.13,21.59c0.52-0.02,1.07-0.05,1.64-0.07c1.16-3.36,4.6-13.21,5.81-14.72
							c1.46-1.82,6.92-4.55,10.38-5.83c0.56-0.21,1.54-0.39,2.78-0.56c0.14-0.05,0.57-0.2,1.19-0.42
							C199.46,136.01,199.17,135.94,198.85,135.87z"/>
						<g>
							<path class="st19" d="M238.07,109.86c0.29-0.94,0.53-1.58,0.66-1.75C238.39,108.55,238.18,109.17,238.07,109.86z"/>
							<path class="st22" d="M212.69,86.98c3.64,0,6.74,2.37,10.2-0.18c3.46-2.55,7.1-2.91,8.56,0c1.46,2.91,3.64,5.65,5.46,6.74
								s4.01,3.1,2.55,4.92s-1.64,3.64-0.73,5.46s1.27,2.55,0,4.19c-0.14,0.18-0.37,0.82-0.66,1.75c-0.12,0.76-0.12,1.61-0.04,2.4
								c0.12,1.12,0.39,2.12,0.7,2.58c0.73,1.09-0.18,3.46-1.27,4.55c-0.68,0.68-1.29,2.34-1.65,3.5c2.41,0.13,5.64,0.31,9.22,0.48
								c-0.42-8.36-2.29-40.76-2.29-40.76l-3.08-2.73l-6.39-5.65l-26.16,0.37c0.01,0.71,0.02,1.52,0,2.37
								c-0.03,2.21-0.17,4.58-0.61,5.46c-0.91,1.82-1.64,3.46-2.55,4.19s-2.37,2.19-3.46,4.55c-0.56,1.2-0.83,2.41-0.96,3.3
								c1.42,1.39,2.94,3.13,3.69,4.53c0.51,0.95,1.33,1.44,2.18,1.67c0.29-0.84,0.65-1.98,1.28-3.67
								C208.51,92.08,209.05,86.98,212.69,86.98z"/>
							<path class="st26" d="M276.07,127c-3.08,1.25-19.05,0.72-31.03,0.15c-3.58-0.17-6.81-0.35-9.22-0.48
								c-0.22,0.71-0.35,1.24-0.35,1.24s-0.14,0.23-0.38,0.57c-0.9,1.27-3.34,4.19-6.36,3.62c-0.29-0.06-0.57-0.1-0.83-0.15
								c0.9,2.5,2.77,6.46,5.75,6.71c1.27,0.18,5.1,1.27,8.56,1.64c3.46,0.36,7.28,4.19,9.47,6.74c0.49,0.57,1.21,1.78,2.05,3.34
								l24.77-3.1l0.68-11.53c0,0,0.96,0.17,2.63,0.44C281.44,133.29,280.11,125.35,276.07,127z"/>
							<path class="st35" d="M238.73,108.1c1.27-1.64,0.91-2.37,0-4.19s-0.73-3.64,0.73-5.46s-0.73-3.82-2.55-4.92
								c-1.82-1.09-4.01-3.82-5.46-6.74c-1.46-2.91-5.1-2.55-8.56,0c-3.46,2.55-6.56,0.18-10.2,0.18s-4.19,5.1-6.01,10.02
								c-0.63,1.69-0.99,2.83-1.28,3.67c-0.55,1.6-0.8,2.05-2,2.89c-1.79,1.25-3.22,3.56-2.24,7.43c0.02,0.07,0.03,0.15,0.05,0.22
								c1.09,4.01,2.91,5.46,1.27,9.11c-1.64,3.64,2.73,5.1,6.56,6.19c0.73,0.21,1.44,0.44,2.14,0.67c2.02,0.66,3.93,1.31,5.93,1.48
								c0.93,0.08,1.88,0.05,2.86-0.14c2.43-0.46,3.76-0.7,5.38-0.63c0.74,0.03,1.54,0.13,2.53,0.3c0.26,0.05,0.54,0.09,0.83,0.15
								c3.01,0.57,5.45-2.35,6.36-3.62c0.24-0.34,0.38-0.57,0.38-0.57s0.13-0.53,0.35-1.24c0.36-1.16,0.97-2.82,1.65-3.5
								c1.09-1.09,2-3.46,1.27-4.55c-0.31-0.47-0.59-1.47-0.7-2.58c-0.08-0.79-0.08-1.64,0.04-2.4
								C238.18,109.17,238.39,108.55,238.73,108.1z"/>
						</g>
						<path class="st20" d="M227.89,128.17c-0.99-0.17-1.79-0.27-2.53-0.3c-1.62-0.07-2.95,0.17-5.38,0.63
							c-0.98,0.19-1.93,0.22-2.86,0.14c-2-0.16-3.91-0.82-5.93-1.48c-0.4,1.78-0.83,3.34-1.23,4.07c-0.67,1.21-6.61,3.51-9.67,4.63
							l-1.45,0.01c0.32,0.07,0.61,0.14,0.88,0.2c-0.62,0.22-1.05,0.37-1.19,0.42c-0.03,0.01-0.05,0.02-0.05,0.02
							s0.95,0.48,2.49,1.17c3.85,1.73,11.4,4.82,17,5.21c4.15,0.29,8.3-1.98,11.28-4.17c2.65-1.95,4.38-3.84,4.38-3.84
							C230.66,134.62,228.79,130.67,227.89,128.17z"/>
						<path class="st20" d="M257.82,166.67c-1.81,1.85-3.94,4.04-5.54,5.69c-0.83,0.86-1.51,1.58-1.93,2.03l2.98,0.42l8.71,1.21
							L257.82,166.67z"/>
						<path class="st24" d="M254.19,147.49c-0.16-0.31-0.32-0.61-0.47-0.9c-0.84-1.56-1.56-2.77-2.05-3.34
							c-2.19-2.55-6.01-6.37-9.47-6.74c-3.46-0.36-7.28-1.46-8.56-1.64c0,0-1.73,1.89-4.38,3.84c-2.98,2.2-7.13,4.46-11.28,4.17
							c-5.6-0.39-13.14-3.48-17-5.21c-1.54-0.69-2.49-1.17-2.49-1.17s0.02-0.01,0.05-0.02c-1.24,0.17-2.22,0.36-2.78,0.56
							c-3.46,1.27-8.92,4.01-10.38,5.83c-1.21,1.51-4.65,11.35-5.81,14.72c3.13-0.11,6.96-0.18,11.13-0.21
							c16.84-0.13,38.96,0.31,40.39,0.43c1.55,0.13,6.41,8.9,9.36,14.55c4.42,1.65,8.93,3.12,9.58,2.38
							c0.08-0.09,0.19-0.21,0.32-0.35c0.42-0.45,1.1-1.17,1.93-2.03c1.6-1.66,3.72-3.84,5.54-5.69c2.04-2.09,3.68-3.76,3.68-3.76
							C260.96,161.71,257.07,153.01,254.19,147.49z"/>
						<path class="st26" d="M340.49,169.04c-0.46-2.48-1.03-6.67-1.41-13.44c-0.73-13.11-7.47-26.77-7.47-26.77
							c-10.91,5.03-35.35,2.23-46.1,0.66c-1-0.15-1.88-0.28-2.62-0.4c-1.67-0.26-2.63-0.44-2.63-0.44l-0.68,11.53l0.88-0.11
							l12.73-1.59c7.83,1.09,12.38,30.78,12.57,32.05l-9.61,1.17l4.69,4.47l40.43-4.01C341.27,172.18,340.92,171.36,340.49,169.04z"
							/>
						<path class="st26" d="M286.59,141.79l-12.73,1.59l-0.88,0.11l-24.77,3.1c0.15,0.29,0.31,0.59,0.47,0.9
							c2.89,5.53,6.78,14.22,7.31,15.43c0,0-1.64,1.67-3.68,3.76l4.23,9.35l-8.71-1.21l2.16,5.04l39.56-4.83l9.61-1.17
							C298.97,172.57,294.42,142.89,286.59,141.79z"/>
						<path class="st25" d="M311.81,89.2c0.27-0.2,1.63-0.17,3.46-0.02c-0.61-0.78-1.09-1.81-2.36-2.32
							c-2.06-0.82,0.14-2.33-2.47-5.63c-2.61-3.3,0.41-3.98-1.1-6.87c-0.45-0.85-0.38-2.27-0.06-3.84c-0.61,1.34-2.42,5.68-1.73,8.1
							c0.82,2.88-0.82,4.12,0,6.87c0.58,1.94,2.33,4.29,3.3,5.5C311.15,90.14,311.49,89.43,311.81,89.2z"/>
						<path class="st24" d="M328.42,91.12c-0.38-0.15-1.78-0.42-3.6-0.72c-0.08,0.01-0.16,0.01-0.25,0.02
							c-1.3,0.11-2.65,0.09-3.43,0.29c-1.65,0.41-2.61-0.27-4.39-0.55c-0.68-0.11-1.1-0.49-1.48-0.98
							c-1.83-0.15-3.19-0.18-3.46,0.02c-0.32,0.23-0.65,0.94-0.96,1.79c-0.23,0.64-0.44,1.36-0.62,2.01
							c-0.29,1.08-0.48,1.96-0.48,1.96l21.32,1.23l0.1,0.01C331.17,96.2,329.8,91.67,328.42,91.12z"/>
						<path class="st37" d="M324.57,90.42c0.08-0.01,0.16-0.01,0.25-0.02c-0.09-0.02-0.19-0.03-0.29-0.05L324.57,90.42z"/>
						<path class="st35" d="M333.23,65.99c-1.51-1.65-2.61-2.2-4.26-3.57c-1.65-1.37-2.33-1.51-3.43-1.51s-3.57-1.51-5.63-1.1
							s-7,0.41-7.69,2.33c0,0-2.18,4.64-2.94,8.38c-0.32,1.57-0.39,2.99,0.06,3.84c1.51,2.88-1.51,3.57,1.1,6.87
							c2.61,3.3,0.41,4.81,2.47,5.63c1.27,0.51,1.76,1.54,2.36,2.32c0.38,0.48,0.8,0.87,1.48,0.98c1.79,0.27,2.75,0.96,4.39,0.55
							c0.78-0.19,2.13-0.18,3.43-0.29l-0.04-0.07c0.1,0.02,0.19,0.03,0.29,0.05c1.37-0.14,2.64-0.45,3.05-1.34
							c0.82-1.79,1.37-7.28,2.88-9.34c1.51-2.06,2.47-0.69,1.79-3.98C331.86,72.44,334.74,67.64,333.23,65.99z"/>
						<path class="st26" d="M239.34,175.67c-2.95-5.66-7.81-14.42-9.36-14.55c-1.43-0.12-23.55-0.55-40.39-0.43
							c-4.16,0.03-8,0.1-11.13,0.21c-0.57,0.02-1.12,0.04-1.64,0.07c-1.82,0.08-3.32,0.19-4.4,0.31c-0.53,0.06-0.95,0.13-1.27,0.2
							l-2.73,15.84l3.97,0.16l69.23,2.76C241.43,179.77,240.54,177.98,239.34,175.67z"/>
						<path class="st26" d="M151.11,142.4c0,0-35.42,0-36.88,2.34c-0.31,0.49-0.76,2.58-1.28,5.57
							c-1.95,11.21-4.87,35.11-4.87,35.11l44.56-8.28l9.01-1.67C161.65,175.47,159.6,146.2,151.11,142.4z"/>
						<path class="st31" d="M131.79,110.2c-1.76,2.63-5.27,4.39-5.27,4.39c5.38-0.62,6.96,0.95,8.55,2.44
							c2.51-3.17,6.67-8.22,6.67-10.35c0-0.84-0.13-1.55-0.3-2.15c-2.26,2.23-4.81,4.49-5.85,4.49
							C133.55,109.03,133.55,107.57,131.79,110.2z"/>
						<path class="st27" d="M173.53,157.98c1.08-0.13,2.58-0.23,4.4-0.31c-2.11-6.11-5.16-14.58-8.13-21.59
							c-0.38-0.9-0.76-1.77-1.14-2.62c-2.36-5.28-4.58-9.3-6.13-10.08c-2.1-1.05-6-1.77-10.14-2.35
							c-6.27-0.88-13.09-1.45-15.03-2.33c-0.94-0.43-1.61-1.04-2.28-1.65c-1.6-1.49-3.18-3.06-8.55-2.44c0,0,1.17,5.27-3.22,2.05
							c-0.25-0.18-0.51-0.37-0.77-0.56c-0.55,0.3-1.11,0.65-1.68,1.03c-7.81,5.13-17.45,16.22-17.45,16.22l6.73,15.81l2.82,1.18
							c0.52-2.99,0.97-5.08,1.28-5.57c1.46-2.34,36.88-2.34,36.88-2.34c8.49,3.81,10.54,33.08,10.54,33.08l-9.01,1.67l5.49,6.52
							l15.37-9.49l-3.97-0.16l2.73-15.84C172.58,158.11,173.01,158.04,173.53,157.98z"/>
						<path class="st35" d="M144.38,90.01c0,0,0.59-2.63-1.46-3.51c-2.05-0.88-3.22-1.76-5.56-7.32s0,0-4.1-1.17
							s-1.76-1.46-4.98-0.29s-3.81-1.76-8.49-1.17c-4.68,0.59-4.1,2.63-7.61,5.85s0.29,19.32,0.29,22.83c0,2.05,2.19,4.49,4.89,6.81
							l-0.5,0.21l3.99,4.85c0.57-0.38,1.13-0.72,1.68-1.03c0.26,0.19,0.52,0.38,0.77,0.56c4.39,3.22,3.22-2.05,3.22-2.05
							s3.51-1.76,5.27-4.39s1.76-1.17,3.81-1.17c1.04,0,3.59-2.26,5.85-4.49c2.19-2.16,4.11-4.29,4.11-4.29s0,0-0.59-2.63
							s1.76-2.05,2.05-3.81C147.31,92.06,144.38,90.01,144.38,90.01z"/>
						<path class="st26" d="M341.26,137.42c1.46,5.83-1.46,13.66,0,16.39c1.06,1.99,1.84,10.1,2.17,14.33
							c1.12-4.32,2.53-8.43,3.94-8.68c-0.12-3.87-0.1-7.42,0.26-9.48c1.09-6.19-0.36-9.47,3.64-11.11
							c4.01-1.64,18.39-5.28,19.48-5.65c0.1-0.03,0.44-0.11,0.95-0.23c1.45-0.72,2.72-1.92,1.79-3.78
							c-1.11-2.23-1.68-3.97-1.91-5.12c-1.7,0.28-3.08,0.59-3.92,0.93c-4.01,1.64-3.82,5.65-4.37,4.19
							c-0.38-1.01,0.2-2.64-0.44-5.55c-5.65,0.59-13.06,1.24-19.01,1.31C342.01,129.47,340.18,133.1,341.26,137.42z"/>
						<path class="st24" d="M343.44,105.92c-2.29-3.27-9.26-8.44-12.38-9.72l-21.32-1.23c0,0,0.19-0.89,0.48-1.96
							c-2.94,0.81-5.25,3.71-10.67,6.18c-6.01,2.73-12.75,8.74-13.84,11.11s-1.46,21.12-1.46,21.85c0,0,0.06,0.26,0.15,0.66
							c10.75,1.57,35.19,4.38,46.1-0.66c0,0,6.74,13.66,7.47,26.77c0.38,6.77,0.95,10.96,1.41,13.44c1.16-0.24,2.46-0.77,3.31-1.16
							c0.04-0.16,0.07-0.32,0.11-0.48c0.2-0.85,0.4-1.71,0.63-2.57c-0.34-4.23-1.11-12.34-2.17-14.33c-1.46-2.73,1.46-10.56,0-16.39
							c-1.08-4.33,0.75-7.95,2.58-12.44c0.64-1.56,1.27-3.22,1.79-5.05C347.63,112.84,345.99,109.56,343.44,105.92z"/>
						<path class="st26" d="M398.98,113.38c0,0-1.09-23.13-7.28-26.04s-13.48-7.1-18.94-4.01c-5.46,3.1-12.38,6.37-12.38,11.84
							c0,5.46-2.37,17.85,0.73,23.86c0.95,1.84,1.46,3.36,1.75,4.64c0.64,2.91,0.06,4.54,0.44,5.55c0.55,1.46,0.36-2.55,4.37-4.19
							c0.84-0.34,2.22-0.65,3.92-0.93c0.12-0.02,0.23-0.04,0.35-0.06c6.49-1.03,17.27-1.64,21.23-1.92
							c0.49-0.04,0.93-0.13,1.35-0.26C398.44,120.65,399.31,115.69,398.98,113.38z"/>
						<path class="st27" d="M428.49,175.12c-3.46-1.27-2-15.11-3.64-26.95s-0.73-14.57-4.19-17.85c-3.46-3.28-18.39-0.91-18.39-0.91
							l-27.43,3.73l-6.07,0.83c0,0,1.56-0.26,2.95-0.95c-0.51,0.11-0.84,0.19-0.95,0.23c-1.09,0.36-15.48,4.01-19.48,5.65
							c-4.01,1.64-2.55,4.92-3.64,11.11c-0.36,2.06-0.38,5.6-0.26,9.48c0.09-0.02,0.18-0.02,0.26-0.01
							c1.88,0.33,16.24,3.95,31.76,4.42c10.05,0.31,20.57-0.7,28.52-4.78l13.37,17.1C425.57,176.12,430.57,175.89,428.49,175.12z"/>
						<path class="st25" d="M400.96,129.17c-3.96-1.22-6.35-6.86-6.35-6.86l-0.1-0.45c-0.42,0.13-0.86,0.23-1.35,0.26
							c-3.96,0.28-14.74,0.9-21.23,1.92c-0.12,0.02-0.23,0.04-0.35,0.06c0.23,1.15,0.8,2.89,1.91,5.12
							c0.93,1.86-0.33,3.06-1.79,3.78c-1.39,0.69-2.95,0.95-2.95,0.95l6.07-0.83l27.43-3.73
							C401.92,129.3,401.48,129.22,400.96,129.17z"/>
						<path class="st26" d="M421.28,176.19l-13.37-17.1c-7.94,4.08-18.47,5.09-28.52,4.78c-15.52-0.47-29.88-4.09-31.76-4.42
							c-0.09-0.02-0.18-0.01-0.26,0.01c-1.4,0.25-2.82,4.35-3.94,8.68c-0.22,0.86-0.43,1.72-0.63,2.57l0.18,0.35
							c-0.09,0.04-0.19,0.09-0.29,0.14c-0.88,3.87-1.44,7.21-1.44,7.21s13.84,3.82,15.84,4.19c2,0.36,66.47-3.46,66.47-3.46
							L421.28,176.19z"/>
					</g>
					<g>
						<path class="st27" d="M173.18,158.12c1.08-0.13,2.58-0.23,4.4-0.31c-2.11-6.11-5.16-14.58-8.13-21.6
							c-0.38-0.9-0.76-1.77-1.14-2.62c-2.36-5.28-4.58-9.3-6.13-10.08c-2.1-1.05-6-1.77-10.14-2.35
							c-6.27-0.88-13.09-1.45-15.03-2.33c-0.94-0.43-1.61-1.04-2.28-1.65c-1.6-1.49-3.18-3.06-8.55-2.44c0,0,1.17,5.27-3.22,2.05
							c-0.25-0.18-0.51-0.37-0.77-0.56c-0.31,0.89-0.67,1.48-1.08,1.87c-0.68,0.64-1.49,0.69-2.46,0.46
							c-0.26-0.06-0.52-0.14-0.8-0.23c-6.9,2.83-24.91,10.47-25.22,13.28c-0.39,3.49-9.68,46.87-9.68,46.87l10.87,1.01
							c1.81-12,4.63-30.08,5.4-31.62c0.51-1.01,4.46-2.02,8.77-2.84c5.59-1.06,11.77-1.81,11.77-1.81s10.1-0.31,15.57-0.46
							c8.13-0.22,15.45-0.22,15.45-0.22c8.49,3.81,10.54,33.08,10.54,33.08l-9.01,1.67l5.49,6.52l15.37-9.49l-3.97-0.16l2.73-15.84
							C172.23,158.25,172.66,158.18,173.18,158.12z"/>
						<path class="st35" d="M144.03,90.15c0,0,0.59-2.63-1.46-3.51c-2.05-0.88-3.22-1.76-5.56-7.32s0,0-4.1-1.17
							s-1.76-1.46-4.98-0.29c-3.22,1.17-3.81-1.76-8.49-1.17c-4.68,0.59-4.1,2.63-7.61,5.85c0,0-15.33,7.23-10.3,14.2
							c5.04,6.97,3.87,19.37,9.68,19.76c2.72,0.18,4.89,1.26,6.62,1.83c0.28,0.09,0.55,0.17,0.8,0.23c0.97,0.23,1.78,0.17,2.46-0.46
							c0.41-0.39,0.77-0.98,1.08-1.87c0.26,0.19,0.52,0.38,0.77,0.56c4.39,3.22,3.22-2.05,3.22-2.05s3.51-1.76,5.27-4.39
							c1.76-2.63,1.76-1.17,3.81-1.17c1.04,0,3.59-2.26,5.85-4.49c2.19-2.16,4.11-4.29,4.11-4.29s0,0-0.59-2.63s1.76-2.05,2.05-3.81
							C146.96,92.2,144.03,90.15,144.03,90.15z"/>
						<path class="st26" d="M161.3,175.61c0,0-2.05-29.27-10.54-33.08c0,0-7.33,0-15.45,0.22c-5.47,0.15-15.57,0.46-15.57,0.46
							s-6.18,0.74-11.77,1.81c-4.31,0.82-8.26,1.83-8.77,2.84c-0.77,1.54-3.59,19.62-5.4,31.62c-0.92,6.08-1.58,10.61-1.58,10.61
							l36.03-5.04l-0.65-3.19l24.68-4.59L161.3,175.61z"/>
					</g>
				</g>
				<g>
					<g>
						<path class="st38" d="M205.79,58.07c2.19,0.55,4.73,0.73,4.37,2.91c-0.36,2.19-0.91,6.19-0.55,7.65
							c0.17,0.69-0.31,2.46-0.87,4.12c0.01,0.29,0.01,0.62,0.02,0.99l26.16-0.37l6.39,5.65l-1.38-13.39c0,0,5.83,4.92,8.11,3.01
							c2.11-1.77,3.51-8.01,2.69-12.54c-0.21,0.56-1.17,2.97-2.78,2.89c-1.82-0.09-5.1-3.1-5.1-3.1s1.46-4.65,1.46-8.47
							c0-2.38-0.11-4.06-0.05-5.53c-0.38-0.33-0.79-0.6-1.22-0.75c-4.19-1.55-5.56,0-8.11-2.28s-3.92-4.92-5.47-5.47
							c-0.02-0.01-0.04-0.01-0.06-0.02c-0.1,1.35-0.29,3.87-0.49,4.85c-0.27,1.37-5.37,4.37-5.37,4.37s-1.64-0.73-3.83-2.28
							s0.36-6.56-0.55-7.47c0,0-0.46,2.82-3.83,3.64s-10.57,0.55-12.11,3.19c-1.55,2.64-6.01,12.84-7.47,13.03
							c-0.31,0.04-0.61,0.13-0.89,0.24c0.15,0.49,1.19,4.13-1.02,4.04c-2.37-0.09-5.01-1.18-4.92-1.73
							c0.03-0.17,0.04-0.99,0.02-2.04c-0.21,0.14-0.41,0.36-0.57,0.68c-1.18,2.37-1.82,6.1-1.82,6.1s1.46-0.91,1.82-0.18
							c0.12,0.23,0.34,0.39,0.59,0.5c2.95-2.33,7.25-4.59,9.9-4.59C201.79,55.7,203.61,57.52,205.79,58.07z"/>
						<path class="st39" d="M218.26,23l1.64-5.74c0,0,1.55-1.55,2.91-2c1.37-0.46,4.1-0.36,6.47,0.09c2.37,0.46,2.82,2.73,3.19,3.64
							c0.24,0.59-0.11,3.08-0.37,4.74c0.6-0.18,1.1-0.34,1.28-0.46c0.55-0.36,0.36-2.46,1.09-3.37s-0.09-2-0.36-3.1s0-2.55-1-3.19
							s-2.91-0.82-3.37-1.55c-0.46-0.73-0.91-1.09-3.1-0.73s-1.28-1.82-3.64-0.55c-2.37,1.28-3.73,1.55-3.64,4.01
							s-3.01,0.18-2.64,3.01c0.28,2.14,0.24,3.81,0.28,4.69C217.54,22.5,218.26,23,218.26,23z"/>
						<path class="st38" d="M233.65,25.37c-0.91-0.73-1.82-0.09-1.82-0.09s0.12-0.66,0.26-1.54c0.27-1.66,0.61-4.15,0.37-4.74
							c-0.36-0.91-0.82-3.19-3.19-3.64c-2.37-0.46-5.1-0.55-6.47-0.09s-2.91,2-2.91,2L218.26,23c0,0-0.72-0.5-1.26-0.5
							c-0.25,0-0.47,0.09-0.56,0.41c-0.27,1,1.64,4.01,2.19,4.46c0.55,0.46-0.36,4.55,0.55,5.47c0.91,0.91-1.64,5.92,0.55,7.47
							s3.83,2.28,3.83,2.28s5.1-3.01,5.37-4.37c0.2-0.98,0.39-3.49,0.49-4.85c0.04-0.53,0.06-0.89,0.06-0.89s1.46-2.73,1.55-3.73
							C231.1,27.73,234.56,26.09,233.65,25.37z"/>
						<path class="st38" d="M194.87,52.93c-0.01-0.04-0.02-0.06-0.02-0.06s-2.37-8.56-1.46-9.93c0.91-1.37-0.18-4.55-0.18-6.1
							s0.55-3.37-0.27-4.37s-1.73,1.09-1.73,2.55s0.18,2.55-0.82,3.46s-1.91-2-3.28-3.01c-1.37-1-3.55-4.19-4.1-4.37
							c-0.55-0.18-0.91,1-1.37,1.28c-0.46,0.27,0.64,2.55,0.64,2.55s0,0-0.18,0.91s0.91,2.1,1.73,3.46c0.82,1.37,0,0,0.18,2.1
							c0.18,2.09,3.83,5.65,4.37,5.92c0.37,0.19,0.54,3.59,0.57,5.88c0.02,1.05,0.01,1.87-0.02,2.04c-0.09,0.55,2.55,1.64,4.92,1.73
							C196.06,57.06,195.02,53.42,194.87,52.93z"/>
						<path class="st38" d="M254.79,35.11c0,0,1.91-2.55,1.46-3.37c-0.46-0.82-5.37,5.37-8.02,6.01c-2.64,0.64-1.46-0.46-1.82-2.73
							c-0.36-2.28-0.91-2.73-1.73-2.82c-0.82-0.09,0.46,4.83-0.09,7.1c-0.21,0.86-0.3,1.68-0.33,2.58
							c-0.05,1.47,0.05,3.15,0.05,5.53c0,3.83-1.46,8.47-1.46,8.47s3.28,3.01,5.1,3.1c1.61,0.08,2.58-2.32,2.78-2.89
							c0.03-0.07,0.04-0.12,0.04-0.12s-1.91-7.29-1.82-8.47s1.46-2.82,2.91-3.92c1.46-1.09,0.73-0.91,1.82-2
							c1.09-1.09,1.37-3.46,2-4.28c0.64-0.82,1.91-2.19,1.91-2.73S254.79,35.11,254.79,35.11z"/>
						<path class="st38" d="M208.77,73.73c-0.01-0.36-0.01-0.7-0.02-0.99c-0.11,0.34-0.23,0.67-0.34,0.99H208.77z"/>
						<path class="st38" d="M208.77,73.73l-0.36,0.01c-0.41,1.15-0.79,2.1-0.92,2.42c-0.03,0.07-0.05,0.12-0.05,0.12
							s-4.37,8.92-5.46,9.29c-1.08,0.36-3.43,2.69-7.55,2.02c-0.03-0.01-0.06-0.01-0.1-0.01c-4.19-0.73-7.47-2.37-8.38-4.55
							c-0.17-0.4-0.38-0.7-0.61-0.94L184,89.91c2.91,0.15,7.02,0.53,10.07,0.84c2.17,0.22,3.81,0.41,4.09,0.47
							c0.44,0.09,1.7,1.08,3.04,2.39c0.13-0.89,0.41-2.09,0.96-3.3c1.09-2.37,2.55-3.82,3.46-4.55s1.64-2.37,2.55-4.19
							c0.44-0.88,0.58-3.25,0.61-5.46C208.78,75.26,208.78,74.44,208.77,73.73z"/>
						<path class="st38" d="M205.79,58.07c-2.19-0.55-4.01-2.37-6.92-2.37c-2.65,0-6.95,2.26-9.9,4.59
							c-0.29,0.23-0.58,0.46-0.84,0.69c-2.91,2.55-3.46,9.47-4.01,11.11c-0.55,1.64-0.55,3.1-0.91,6.37
							c-0.3,2.67,1.1,2.56,2.12,3.61c0.23,0.24,0.44,0.54,0.61,0.94c0.91,2.19,4.19,3.82,8.38,4.55c0.03,0.01,0.06,0.01,0.1,0.01
							c4.13,0.68,6.47-1.65,7.55-2.02c1.09-0.36,5.46-9.29,5.46-9.29s0.02-0.05,0.05-0.12c0.13-0.32,0.51-1.27,0.92-2.42
							c0.11-0.32,0.23-0.65,0.34-0.99c0.56-1.66,1.04-3.42,0.87-4.12c-0.36-1.46,0.18-5.46,0.55-7.65
							C210.53,58.8,207.98,58.62,205.79,58.07z"/>
						<path class="st38" d="M210.71,125.63c-3.82-1.09-8.19-2.55-6.56-6.19c1.64-3.64-0.18-5.1-1.27-9.11
							c-0.02-0.08-0.03-0.15-0.05-0.22c-0.98-3.87,0.45-6.18,2.24-7.43c1.2-0.84,1.45-1.29,2-2.89c-0.85-0.23-1.67-0.71-2.18-1.67
							c-0.75-1.41-2.27-3.15-3.69-4.53c-1.34-1.31-2.6-2.3-3.04-2.39c-0.28-0.06-1.91-0.25-4.09-0.47
							c-3.05-0.31-7.15-0.69-10.07-0.84c-1.82-0.1-3.17-0.11-3.51,0.04c-1.27,0.55-1.46,3.82-3.46,5.1c-2,1.27-1.82,0.91-10.2,3.82
							c-8.38,2.91-13.29,20.03-13.29,20.03l0.52,1.26c4.14,0.58,8.04,1.31,10.14,2.35c1.56,0.78,3.78,4.8,6.13,10.08
							c10.13-1.56,24.3,1.13,30.19,2.42l1.45-0.01c3.06-1.12,8.99-3.42,9.67-4.63c0.4-0.72,0.83-2.29,1.23-4.07
							C212.15,126.07,211.44,125.84,210.71,125.63z"/>
						<path class="st38" d="M200.51,135.01c-5.89-1.29-20.06-3.98-30.19-2.42c0.38,0.84,0.76,1.72,1.14,2.62
							c2.97,7.01,6.02,15.49,8.13,21.59c0.52-0.02,1.07-0.05,1.64-0.07c1.16-3.36,4.6-13.21,5.81-14.72
							c1.46-1.82,6.92-4.55,10.38-5.83c0.56-0.21,1.54-0.39,2.78-0.56c0.14-0.05,0.57-0.2,1.19-0.42
							C201.12,135.15,200.82,135.08,200.51,135.01z"/>
						<g>
							<path class="st38" d="M239.73,108.99c0.29-0.94,0.53-1.58,0.66-1.75C240.05,107.68,239.84,108.3,239.73,108.99z"/>
							<path class="st38" d="M214.35,86.11c3.64,0,6.74,2.37,10.2-0.18c3.46-2.55,7.1-2.91,8.56,0c1.46,2.91,3.64,5.65,5.46,6.74
								s4.01,3.1,2.55,4.92c-1.46,1.82-1.64,3.64-0.73,5.46s1.27,2.55,0,4.19c-0.14,0.18-0.37,0.82-0.66,1.75
								c-0.12,0.76-0.12,1.61-0.04,2.4c0.12,1.12,0.39,2.12,0.7,2.58c0.73,1.09-0.18,3.46-1.27,4.55c-0.68,0.68-1.29,2.34-1.65,3.5
								c2.41,0.13,5.64,0.31,9.22,0.48c-0.42-8.36-2.29-40.76-2.29-40.76l-3.08-2.73l-6.39-5.65l-26.16,0.37
								c0.01,0.71,0.02,1.52,0,2.37c-0.03,2.21-0.17,4.58-0.61,5.46c-0.91,1.82-1.64,3.46-2.55,4.19s-2.37,2.19-3.46,4.55
								c-0.56,1.2-0.83,2.41-0.96,3.3c1.42,1.39,2.94,3.13,3.69,4.53c0.51,0.95,1.33,1.44,2.18,1.67c0.29-0.84,0.65-1.98,1.28-3.67
								C210.16,91.21,210.71,86.11,214.35,86.11z"/>
							<path class="st38" d="M277.72,122.35c-3.08,1.25-19.05,0.72-31.03,0.15c-3.58-0.17-6.81-0.35-9.22-0.48
								c-0.22,0.71-0.35,1.24-0.35,1.24s-0.14,0.23-0.38,0.57c-0.9,1.27-3.34,4.19-6.36,3.62c-0.29-0.06-0.57-0.1-0.83-0.15
								c0.9,2.5,2.77,6.46,5.75,6.71c1.27,0.18,5.1,1.27,8.56,1.64c3.46,0.36,7.28,4.19,9.47,6.74c0.49,0.57,1.21,1.78,2.05,3.34
								l24.77-3.1l0.68-11.53c0,0,0.96,0.17,2.63,0.44C283.1,128.65,281.77,120.71,277.72,122.35z"/>
							<path class="st39" d="M240.39,107.24c1.27-1.64,0.91-2.37,0-4.19s-0.73-3.64,0.73-5.46c1.46-1.82-0.73-3.82-2.55-4.92
								c-1.82-1.09-4.01-3.82-5.46-6.74c-1.46-2.91-5.1-2.55-8.56,0c-3.46,2.55-6.56,0.18-10.2,0.18s-4.19,5.1-6.01,10.02
								c-0.63,1.69-0.99,2.83-1.28,3.67c-0.55,1.6-0.8,2.05-2,2.89c-1.79,1.25-3.22,3.56-2.24,7.43c0.02,0.07,0.03,0.15,0.05,0.22
								c1.09,4.01,2.91,5.46,1.27,9.11c-1.64,3.64,2.73,5.1,6.56,6.19c0.73,0.21,1.44,0.44,2.14,0.67c2.02,0.66,3.93,1.31,5.93,1.48
								c0.93,0.08,1.88,0.05,2.86-0.14c2.43-0.46,3.76-0.7,5.38-0.63c0.74,0.03,1.54,0.13,2.53,0.3c0.26,0.05,0.54,0.09,0.83,0.15
								c3.01,0.57,5.45-2.35,6.36-3.62c0.24-0.34,0.38-0.57,0.38-0.57s0.13-0.53,0.35-1.24c0.36-1.16,0.97-2.82,1.65-3.5
								c1.09-1.09,2-3.46,1.27-4.55c-0.31-0.47-0.59-1.47-0.7-2.58c-0.08-0.79-0.08-1.64,0.04-2.4
								C239.84,108.3,240.05,107.68,240.39,107.24z"/>
						</g>
						<path class="st38" d="M229.55,127.3c-0.99-0.17-1.79-0.27-2.53-0.3c-1.62-0.07-2.95,0.17-5.38,0.63
							c-0.98,0.19-1.93,0.22-2.86,0.14c-2-0.16-3.91-0.82-5.93-1.48c-0.4,1.78-0.83,3.34-1.23,4.07c-0.67,1.21-6.61,3.51-9.67,4.63
							L200.5,135c0.32,0.07,0.61,0.14,0.88,0.2c-0.62,0.22-1.05,0.37-1.19,0.42c-0.03,0.01-0.05,0.02-0.05,0.02s0.95,0.48,2.49,1.17
							c3.85,1.73,11.4,4.82,17,5.21c4.15,0.29,8.3-1.98,11.28-4.17c2.65-1.95,4.38-3.84,4.38-3.84
							C232.32,133.76,230.45,129.81,229.55,127.3z"/>
						<path class="st38" d="M259.47,165.81c-1.81,1.85-3.94,4.04-5.54,5.69l1.05,2.45l8.71,1.21L259.47,165.81z"/>
						<path class="st38" d="M255.85,146.62c-0.16-0.31-0.32-0.61-0.47-0.9c-0.84-1.56-1.56-2.77-2.05-3.34
							c-2.19-2.55-6.01-6.37-9.47-6.74c-3.46-0.36-7.28-1.46-8.56-1.64c0,0-1.73,1.89-4.38,3.84c-2.98,2.2-7.13,4.46-11.28,4.17
							c-5.6-0.39-13.14-3.48-17-5.21c-1.54-0.69-2.49-1.17-2.49-1.17s0.02-0.01,0.05-0.02c-1.24,0.17-2.22,0.36-2.78,0.56
							c-3.46,1.27-8.92,4.01-10.38,5.83c-1.21,1.51-4.65,11.35-5.81,14.72c3.13-0.11,6.96-0.18,11.13-0.21
							c16.84-0.13,38.96,0.31,40.39,0.43c1.55,0.13,6.41,8.9,9.36,14.55c4.42,1.65,8.93,3.12,9.58,2.38
							c0.08-0.09,0.19-0.21,0.32-0.35c0.42-0.45,1.1-1.17,1.93-2.03c1.6-1.66,3.72-3.84,5.54-5.69c2.04-2.09,3.68-3.76,3.68-3.76
							C262.62,160.85,258.73,152.15,255.85,146.62z"/>
						<path class="st38" d="M341.05,171.48c-0.46-2.48-1.03-6.67-1.41-13.44c-0.73-13.11-7.47-26.77-7.47-26.77
							c-10.91,5.03-35.35,2.23-46.1,0.66c-1-0.15-1.88-0.28-2.62-0.4c-1.67-0.26-2.63-0.44-2.63-0.44l-0.68,11.53l0.88-0.11
							l12.73-1.59c7.83,1.09,12.38,30.78,12.57,32.05l-9.61,1.17l4.69,4.47l40.43-4.01C341.83,174.62,341.48,173.8,341.05,171.48z"
							/>
						<path class="st38" d="M293.75,140.93l-12.73,1.59l-0.88,0.11l-24.77,3.1c0.15,0.29,0.31,0.59,0.47,0.9
							c2.89,5.53,6.78,14.22,7.31,15.43c0,0-1.64,1.67-3.68,3.76l4.23,9.35l-8.71-1.21l2.16,5.04l39.56-4.83l9.61-1.17
							C306.13,171.7,301.58,142.02,293.75,140.93z"/>
						<path class="st38" d="M344.47,169.84c-0.04,0.16-0.07,0.32-0.11,0.48c0.11-0.05,0.2-0.09,0.29-0.14L344.47,169.84z"/>
						<path class="st38" d="M313.47,88.33c0.27-0.2,1.63-0.17,3.46-0.02c-0.61-0.78-1.09-1.81-2.36-2.32
							c-2.06-0.82,0.14-2.33-2.47-5.63c-2.61-3.3,0.41-3.98-1.1-6.87c-0.45-0.85-0.38-2.27-0.06-3.84c-0.61,1.34-2.42,5.68-1.73,8.1
							c0.82,2.88-0.82,4.12,0,6.87c0.58,1.94,2.33,4.29,3.3,5.5C312.81,89.28,313.15,88.56,313.47,88.33z"/>
						<path class="st38" d="M330.08,90.26c-0.38-0.15-1.78-0.42-3.6-0.72c-0.08,0.01-0.16,0.01-0.25,0.02
							c-1.3,0.11-2.65,0.09-3.43,0.29c-1.65,0.41-2.61-0.27-4.39-0.55c-0.68-0.11-1.1-0.49-1.48-0.98
							c-1.83-0.15-3.19-0.18-3.46,0.02c-0.32,0.23-0.65,0.94-0.96,1.79c-0.23,0.64-0.44,1.36-0.62,2.01
							c-0.29,1.08-0.48,1.96-0.48,1.96l21.32,1.23l0.1,0.01C332.83,95.34,331.46,90.81,330.08,90.26z"/>
						<path class="st38" d="M326.23,89.56c0.08-0.01,0.16-0.01,0.25-0.02c-0.09-0.02-0.19-0.03-0.29-0.05L326.23,89.56z"/>
						<path class="st39" d="M334.89,65.12c-1.51-1.65-2.61-2.2-4.26-3.57c-1.65-1.37-2.33-1.51-3.43-1.51s-3.57-1.51-5.63-1.1
							s-7,0.41-7.69,2.33c0,0-2.18,4.64-2.94,8.38c-0.32,1.57-0.39,2.99,0.06,3.84c1.51,2.88-1.51,3.57,1.1,6.87
							c2.61,3.3,0.41,4.81,2.47,5.63c1.27,0.51,1.76,1.54,2.36,2.32c0.38,0.48,0.8,0.87,1.48,0.98c1.79,0.27,2.75,0.96,4.39,0.55
							c0.78-0.19,2.13-0.18,3.43-0.29l-0.04-0.07c0.1,0.02,0.19,0.03,0.29,0.05c1.37-0.14,2.64-0.45,3.05-1.34
							c0.82-1.79,1.37-7.28,2.88-9.34c1.51-2.06,2.47-0.69,1.79-3.98C333.51,71.58,336.4,66.77,334.89,65.12z"/>
						<path class="st38" d="M242.1,171.51c-2.95-5.66-7.81-14.42-9.36-14.55c-1.43-0.12-23.55-0.55-40.39-0.43
							c-4.16,0.03-8,0.1-11.13,0.21c-0.57,0.02-1.12,0.04-1.64,0.07c-1.82,0.08-3.32,0.19-4.4,0.31c-0.53,0.06-0.95,0.13-1.27,0.2
							l-2.73,15.84l3.97,0.16l69.23,2.76C244.19,175.6,243.3,173.81,242.1,171.51z"/>
						<path class="st38" d="M133.45,109.34c-1.76,2.63-5.27,4.39-5.27,4.39c5.38-0.62,6.96,0.95,8.55,2.44
							c2.51-3.17,6.67-8.22,6.67-10.35c0-0.84-0.13-1.55-0.3-2.15c-2.26,2.23-4.81,4.49-5.85,4.49
							C135.21,108.17,135.21,106.7,133.45,109.34z"/>
						<path class="st40" d="M342.92,136.56c1.46,5.83-1.46,13.66,0,16.39c1.06,1.99,1.84,10.1,2.17,14.33
							c1.12-4.32,2.53-8.43,3.94-8.68c-0.12-3.87-0.1-7.42,0.26-9.48c1.09-6.19-0.36-9.47,3.64-11.11
							c4.01-1.64,18.39-5.28,19.48-5.65c0.1-0.03,0.44-0.11,0.95-0.23c1.45-0.72,2.72-1.92,1.79-3.78
							c-1.11-2.23-1.68-3.97-1.91-5.12c-1.7,0.28-3.08,0.59-3.92,0.93c-4.01,1.64-3.82,5.65-4.37,4.19
							c-0.38-1.01,0.2-2.64-0.44-5.55c-5.65,0.59-13.06,1.24-19.01,1.31C343.67,128.61,341.84,132.23,342.92,136.56z"/>
						<path class="st38" d="M345.1,105.05c-2.29-3.27-9.26-8.44-12.38-9.72L311.4,94.1c0,0,0.19-0.89,0.48-1.96
							c-2.94,0.81-5.25,3.71-10.67,6.18c-6.01,2.73-12.75,8.74-13.84,11.11s-1.46,21.12-1.46,21.85c0,0,0.06,0.26,0.15,0.66
							c10.75,1.57,35.19,4.38,46.1-0.66c0,0,6.74,13.66,7.47,26.77c0.38,6.77,0.95,10.96,1.41,13.44c1.16-0.24,2.46-0.77,3.31-1.16
							c0.04-0.16,0.07-0.32,0.11-0.48c0.2-0.85,0.4-1.71,0.63-2.57c-0.34-4.23-1.11-12.34-2.17-14.33c-1.46-2.73,1.46-10.56,0-16.39
							c-1.08-4.33,0.75-7.95,2.58-12.44c0.64-1.56,1.27-3.22,1.79-5.05C349.29,111.97,347.65,108.7,345.1,105.05z"/>
						<path class="st38" d="M400.64,112.52c0,0-1.09-23.13-7.28-26.04s-13.48-7.1-18.94-4.01c-5.46,3.1-12.38,6.37-12.38,11.84
							c0,5.46-2.37,17.85,0.73,23.86c0.95,1.84,1.46,3.36,1.75,4.64c0.64,2.91,0.06,4.54,0.44,5.55c0.55,1.46,0.36-2.55,4.37-4.19
							c0.84-0.34,2.22-0.65,3.92-0.93c0.12-0.02,0.23-0.04,0.35-0.06c6.49-1.03,17.27-1.64,21.23-1.92
							c0.49-0.04,0.93-0.13,1.35-0.26C400.1,119.79,400.97,114.82,400.64,112.52z"/>
						<path class="st40" d="M430.14,174.25c-3.46-1.27-2-15.11-3.64-26.95s-0.73-14.57-4.19-17.85c-3.46-3.28-18.39-0.91-18.39-0.91
							l-27.43,3.73l-6.07,0.83c0,0,1.56-0.26,2.95-0.95c-0.51,0.11-0.84,0.19-0.95,0.23c-1.09,0.36-15.48,4.01-19.48,5.65
							c-4.01,1.64-2.55,4.92-3.64,11.11c-0.36,2.06-0.38,5.6-0.26,9.48c0.09-0.02,0.18-0.02,0.26-0.01
							c1.88,0.33,16.24,3.95,31.76,4.42c10.05,0.31,20.57-0.7,28.52-4.78l13.37,17.1C427.23,175.26,432.23,175.02,430.14,174.25z"/>
						<path class="st40" d="M402.62,128.3c-3.96-1.22-6.35-6.86-6.35-6.86l-0.1-0.45c-0.42,0.13-0.86,0.23-1.35,0.26
							c-3.96,0.28-14.74,0.9-21.23,1.92c-0.12,0.02-0.23,0.04-0.35,0.06c0.23,1.15,0.8,2.89,1.91,5.12
							c0.93,1.86-0.33,3.06-1.79,3.78c-1.39,0.69-2.95,0.95-2.95,0.95l6.07-0.83l27.43-3.73
							C403.58,128.43,403.14,128.36,402.62,128.3z"/>
						<path class="st38" d="M422.94,175.33l-13.37-17.1c-7.94,4.08-18.47,5.09-28.52,4.78c-15.52-0.47-29.88-4.09-31.76-4.42
							c-0.09-0.02-0.18-0.01-0.26,0.01c-1.4,0.25-2.82,4.35-3.94,8.68c-0.22,0.86-0.43,1.72-0.63,2.57l0.18,0.35
							c-0.09,0.04-0.19,0.09-0.29,0.14c-0.88,3.87-1.44,7.21-1.44,7.21s13.84,3.82,15.84,4.19c2,0.36,66.47-3.46,66.47-3.46
							L422.94,175.33z"/>
						<path class="st40" d="M224.77,23.92c0,0-3.36,2.83,0.4,3.01"/>
						<path class="st40" d="M227.02,29.59c0,0-2.86,2.34-4.91-0.29"/>
						<path class="st40" d="M229.46,32.47c0,0-2.85,2.43-4,2.15s-5.99-0.67-6.29-1.78"/>
						<path class="st40" d="M215,36.99c0,0-0.23,3.76,0.12,3.93s4.22-1.33,4.97-0.23"/>
						<path class="st40" d="M233.38,37.56l-0.4,3.64c0,0-4.91-1.97-5.61-1.27"/>
						<path class="st40" d="M239.94,65.63c0,0-3.44-2.44-2.69-8.49s0.6-8.74,0.6-8.74"/>
						<path class="st40" d="M204.9,57.51c0,0,4.11-3.81,2.91-6.13"/>
						<line class="st40" x1="234.93" y1="73.37" x2="234.93" y2="88.52"/>
						<path class="st40" d="M295.6,133.64c0,0,0.71-20.64,1.66-21.82"/>
						<g>
							<path class="st38" d="M175.19,157.11c1.08-0.13,2.58-0.23,4.4-0.31c-2.11-6.11-5.16-14.58-8.13-21.6
								c-0.38-0.9-0.76-1.77-1.14-2.62c-2.36-5.28-4.58-9.3-6.13-10.08c-2.1-1.05-6-1.77-10.14-2.35
								c-6.27-0.88-13.09-1.45-15.03-2.33c-0.94-0.43-1.61-1.04-2.28-1.65c-1.6-1.49-3.18-3.06-8.55-2.44c0,0,1.17,5.27-3.22,2.05
								c-0.25-0.18-0.51-0.37-0.77-0.56c-0.31,0.89-0.67,1.48-1.08,1.87c-0.68,0.64-1.49,0.69-2.46,0.46
								c-0.26-0.06-0.52-0.14-0.8-0.23c-6.9,2.83-24.91,10.47-25.22,13.28c-0.39,3.49-9.68,46.87-9.68,46.87l10.87,1.01
								c1.81-12,4.63-30.08,5.4-31.62c0.51-1.01,4.46-2.02,8.77-2.84c5.59-1.06,11.77-1.81,11.77-1.81s10.1-0.31,15.57-0.46
								c8.13-0.22,15.45-0.22,15.45-0.22c8.49,3.81,10.54,33.08,10.54,33.08l-9.01,1.67l5.49,6.52l15.37-9.49l-3.97-0.16l2.73-15.84
								C174.24,157.24,174.67,157.18,175.19,157.11z"/>
							<path class="st38" d="M146.04,89.14c0,0,0.59-2.63-1.46-3.51c-2.05-0.88-3.22-1.76-5.56-7.32s0,0-4.1-1.17
								s-1.76-1.46-4.98-0.29s-3.81-1.76-8.49-1.17c-4.68,0.59-4.1,2.63-7.61,5.85c0,0-15.33,7.23-10.3,14.2
								c5.04,6.97,3.87,19.37,9.68,19.76c2.72,0.18,4.89,1.26,6.62,1.83c0.28,0.09,0.55,0.17,0.8,0.23
								c0.97,0.23,1.78,0.17,2.46-0.46c0.41-0.39,0.77-0.98,1.08-1.87c0.26,0.19,0.52,0.38,0.77,0.56c4.39,3.22,3.22-2.05,3.22-2.05
								s3.51-1.76,5.27-4.39c1.76-2.63,1.76-1.17,3.81-1.17c1.04,0,3.59-2.26,5.85-4.49c2.19-2.16,4.11-4.29,4.11-4.29
								s0,0-0.59-2.63s1.76-2.05,2.05-3.81C148.97,91.19,146.04,89.14,146.04,89.14z"/>
							<path class="st38" d="M163.31,174.61c0,0-2.05-29.27-10.54-33.08c0,0-7.33,0-15.45,0.22c-5.47,0.15-15.57,0.46-15.57,0.46
								s-6.18,0.74-11.77,1.81c-4.31,0.82-8.26,1.83-8.77,2.84c-0.77,1.54-3.59,19.62-5.4,31.62c-0.92,6.08-1.58,10.61-1.58,10.61
								l36.03-5.04l-0.65-3.19l24.68-4.59L163.31,174.61z"/>
						</g>
					</g>
					<circle class="st27" cx="222.29" cy="22.34" r="0.68"/>
					<circle class="st27" cx="227.76" cy="22.69" r="0.68"/>
				</g>
			</g>
		</g>
	</g>
	<g>
		<g>
			<defs>
				<rect id="SVGID_41_" x="-1.54" width="1283.08" height="171.86"/>
			</defs>
			<clipPath id="SVGID_42_">
				<use xlink:href="#SVGID_41_"  style="overflow:visible;"/>
			</clipPath>
			<path class="st41" d="M905.94-2c0-27.36-40.71-49.53-90.92-49.53c-50.21,0-90.92,22.18-90.92,49.53
				c0,27.36,40.71,49.53,90.92,49.53c24.15,0,46.1-5.13,62.38-13.5l28.54,52.85V-2z"/>
		</g>
	</g>
	<g>
		<g>
			<defs>
				<rect id="SVGID_43_" x="-1.54" width="1283.08" height="171.86"/>
			</defs>
			<clipPath id="SVGID_44_">
				<use xlink:href="#SVGID_43_"  style="overflow:visible;"/>
			</clipPath>
			<g class="st42">
				<g>
					<g>
						<defs>
							<rect id="SVGID_45_" x="-1.54" width="1283.08" height="171.86"/>
						</defs>
						<clipPath id="SVGID_46_">
							<use xlink:href="#SVGID_45_"  style="overflow:visible;"/>
						</clipPath>
						<g class="st43">
							<rect x="-1.54" class="st5" width="1283.08" height="171.86"/>
						</g>
					</g>
				</g>
				<g>
					<rect id="SVGID_7_" x="-1.54" class="st5" width="1283.08" height="171.86"/>
				</g>
			</g>
		</g>
	</g>
</g>
</svg>
