<?xml version="1.0" encoding="utf-8"?>
<!-- Generator: Adobe Illustrator 24.0.3, SVG Export Plug-In . SVG Version: 6.00 Build 0)  -->
<svg version="1.1" id="Layer_1" xmlns="http://www.w3.org/2000/svg" xmlns:xlink="http://www.w3.org/1999/xlink" x="0px" y="0px"
	 viewBox="0 0 1280 169" style="enable-background:new 0 0 1280 169;" xml:space="preserve">
<style type="text/css">
	.st0{fill:none;}
	.st1{fill:#79ABC2;}
	.st2{fill:#44799D;}
	.st3{fill:#336480;}
	.st4{fill:#4A8FBA;}
	.st5{fill:#1F3B65;}
	.st6{fill:none;stroke:#1F3B65;stroke-miterlimit:10;}
	.st7{fill:#245486;}
	.st8{fill:#E1635D;}
	.st9{fill:#F6C65D;}
	.st10{fill:#DDEFFA;}
	.st11{fill:#60A675;}
	.st12{fill:#488FBA;}
	.st13{fill:none;stroke:#1F3B65;stroke-linejoin:round;stroke-miterlimit:10;}
	.st14{fill:#1F3B65;stroke:#1F3B65;stroke-linejoin:round;stroke-miterlimit:10;}
	.st15{clip-path:url(#SVGID_3_);}
	.st16{clip-path:url(#SVGID_4_);}
	.st17{clip-path:url(#SVGID_6_);}
	.st18{fill:#245586;}
	.st19{clip-path:url(#SVGID_4_);fill:none;stroke:#4A8FBA;stroke-miterlimit:10;}
	.st20{fill:#1C7598;}
	.st21{fill:#1F3B65;stroke:#1F3B65;stroke-width:1.1871;stroke-miterlimit:10;}
	.st22{fill:#638EAD;}
	.st23{fill:#386FA0;}
	.st24{fill:#1F3B65;stroke:#1F3B65;stroke-width:1.1343;stroke-linejoin:round;stroke-miterlimit:10;}
	.st25{fill:#6291A6;}
	.st26{fill:#74ABC4;}
	.st27{fill:#1F3B65;stroke:#1F3B65;stroke-width:0.5973;stroke-linejoin:round;stroke-miterlimit:10;}
	.st28{clip-path:url(#SVGID_8_);}
	.st29{clip-path:url(#SVGID_10_);}
	.st30{clip-path:url(#SVGID_8_);fill:none;stroke:#4A8FBA;stroke-miterlimit:10;}
	.st31{fill:none;stroke:#4A8FBA;stroke-miterlimit:10;}
	.st32{fill:none;stroke:#E1635D;stroke-miterlimit:10;}
	.st33{fill:#1F3B65;stroke:#1F3B65;stroke-width:0.3826;stroke-miterlimit:10;}
	.st34{fill:#3581AD;}
	.st35{fill:none;stroke:#222B54;stroke-width:0.8431;stroke-miterlimit:10;}
	.st36{fill:none;stroke:#222B54;stroke-miterlimit:10;}
	.st37{fill:none;stroke:#222B54;stroke-linecap:round;stroke-linejoin:round;stroke-miterlimit:10;}
	.st38{clip-path:url(#SVGID_12_);}
	.st39{clip-path:url(#SVGID_14_);}
	.st40{clip-path:url(#SVGID_12_);fill:none;stroke:#98C5A6;stroke-miterlimit:10;}
	.st41{clip-path:url(#SVGID_12_);fill:none;stroke:#398456;stroke-miterlimit:10;}
	.st42{clip-path:url(#SVGID_12_);fill:#134A2C;}
	.st43{fill:none;stroke:#134A2C;stroke-miterlimit:10;}
	.st44{fill:#488150;}
	.st45{fill:#86BB94;}
	.st46{fill:#65A986;}
	.st47{fill:#134A2C;}
	.st48{fill:#AFD2BA;}
	.st49{fill:#379071;}
	.st50{fill:#40945B;}
	.st51{fill:#398456;}
	.st52{fill:#337654;}
	.st53{fill:none;stroke:#134A2C;stroke-width:0.8431;stroke-miterlimit:10;}
	.st54{font-family:'Geomanist-Book';}
	.st55{font-size:14.7735px;}
	.st56{fill:#2B8A49;}
</style>
<g>
	<defs>
		<rect id="SVGID_11_" width="1280" height="169"/>
	</defs>
	<clipPath id="SVGID_3_">
		<use xlink:href="#SVGID_11_"  style="overflow:visible;"/>
	</clipPath>
	<g class="st15">
		<defs>
			<rect id="SVGID_13_" width="1280" height="169"/>
		</defs>
		<clipPath id="SVGID_4_">
			<use xlink:href="#SVGID_13_"  style="overflow:visible;"/>
		</clipPath>
		<g class="st16">
			<rect class="st11" width="1280" height="169"/>
		</g>
	</g>
	<circle style="clip-path:url(#SVGID_3_);fill:none;stroke:#98C5A6;stroke-miterlimit:10;" cx="994.1" cy="173.54" r="43.97"/>
	<path style="clip-path:url(#SVGID_3_);fill:none;stroke:#98C5A6;stroke-miterlimit:10;" d="M728.75,187.41l25.66-18.29
		c0.7-0.5,0.86-1.46,0.36-2.16l-18.29-25.66c-0.5-0.7-1.46-0.86-2.16-0.36l-25.66,18.29c-0.7,0.5-0.86,1.46-0.36,2.16l18.29,25.66
		C727.09,187.75,728.06,187.91,728.75,187.41z"/>
	<circle style="clip-path:url(#SVGID_3_);fill:none;stroke:#98C5A6;stroke-miterlimit:10;" cx="797.53" cy="8.52" r="43.97"/>
	<circle style="clip-path:url(#SVGID_3_);fill:none;stroke:#398456;stroke-miterlimit:10;" cx="1207.86" cy="75.67" r="22.59"/>
	<circle style="clip-path:url(#SVGID_3_);fill:none;stroke:#98C5A6;stroke-miterlimit:10;" cx="218.57" cy="161.24" r="43.97"/>
	<path style="clip-path:url(#SVGID_3_);fill:none;stroke:#98C5A6;stroke-miterlimit:10;" d="M1233.25,199.34l49.54-35.3
		c1.34-0.96,1.66-2.82,0.7-4.17l-35.3-49.54c-0.96-1.34-2.82-1.66-4.17-0.7l-49.54,35.3c-1.34,0.96-1.66,2.82-0.7,4.17l35.3,49.54
		C1230.04,199.99,1231.91,200.3,1233.25,199.34z"/>
	<path style="clip-path:url(#SVGID_3_);fill:none;stroke:#98C5A6;stroke-miterlimit:10;" d="M41.05,170.97l25.66-18.29
		c0.7-0.5,0.86-1.46,0.36-2.16l-18.29-25.66c-0.5-0.7-1.46-0.86-2.16-0.36l-25.66,18.29c-0.7,0.5-0.86,1.46-0.36,2.16l18.29,25.66
		C39.38,171.3,40.35,171.46,41.05,170.97z"/>
	<path style="clip-path:url(#SVGID_3_);fill:none;stroke:#98C5A6;stroke-miterlimit:10;" d="M875.78,118.51l49.45,5.51
		c1.34,0.15,2.55-0.82,2.7-2.16l5.51-49.45c0.15-1.34-0.82-2.55-2.16-2.7l-49.45-5.51c-1.34-0.15-2.55,0.82-2.7,2.16l-5.51,49.45
		C873.47,117.15,874.44,118.36,875.78,118.51z"/>
	<path style="clip-path:url(#SVGID_3_);fill:none;stroke:#98C5A6;stroke-miterlimit:10;" d="M1101.04-6.84l10.92,64.48
		c0.13,0.79,1.07,1.13,1.68,0.63l50.39-41.7c0.61-0.51,0.45-1.49-0.3-1.77l-61.3-22.79C1101.67-8.26,1100.91-7.63,1101.04-6.84z"/>
	<path style="clip-path:url(#SVGID_3_);fill:none;stroke:#98C5A6;stroke-miterlimit:10;" d="M543.22-22.51l10.92,64.48
		c0.13,0.79,1.07,1.13,1.68,0.63l50.39-41.7c0.61-0.51,0.45-1.49-0.3-1.77l-61.3-22.79C543.86-23.94,543.09-23.3,543.22-22.51z"/>
	<path style="clip-path:url(#SVGID_3_);fill:none;stroke:#98C5A6;stroke-miterlimit:10;" d="M23.49,90.58l-9.02-66.16
		c-0.11-0.8-1.03-1.18-1.67-0.7l-52.17,39.44c-0.64,0.48-0.52,1.48,0.21,1.8l61.19,26.71C22.78,92.02,23.6,91.4,23.49,90.58z"/>
	<g class="st15">
		<g>
			<path class="st43" d="M971.57,49.81l0.02,0.13c0.05,0,0.1-0.01,0.15-0.01C971.67,49.89,971.62,49.85,971.57,49.81z"/>
			<path class="st44" d="M1019.24,73.38c-1.67-3.35-1.48-5.15-1.48-5.15c-0.71-9.66-1.93-10.36-3.99-11.84
				c-1.24-0.89-6.95-2.41-11.59-4.27c-3.09-1.24-5.31-3.03-6.88-3.39c-3.93-0.9-6.12-1.09-6.12-1.09l-0.11,0.12l2.75,0.85
				c0.39,1.16-2.45,5.99-6.44,8.5c-3.99,2.51-7.85,2.06-9.66,1.22c-1.8-0.84-3.8-5.79-3.8-5.79l-0.35-2.58
				c-3.57,0.24-7.93,0.54-10.06,0.66c-3.96,0.23-3.03,3.15-9.09,5.83c-6.06,2.68-6.17,1.4-9.9,3.38c-3.73,1.98-7.34,3.38-11.3,6.06
				c-3.96,2.68-4.66,3.5-5.13,7.22c-0.13,1.05,0.15,1.75,0.71,2.24c0.44-3.51,4.39-8.46,7.4-8.78c4-0.42,4.63,1.89,5.47,4
				c0.84,2.1,1.68,2.73,7.99,3.37c1.8,0.18,2.91,0.56,3.65,1.09c0.19-0.04,0.3-0.06,0.3-0.06l4.19-1.98l3.03,4.68l36.31-0.15
				c2.05-0.01,3.76,1.57,3.91,3.62l1.58,21.18l5.09-4.4c0,0-0.84,0.84,2.95,0.21c3.79-0.63,5.05-1.47,7.57,2.52
				c0.9,1.43,1.05,3.43,0.87,5.4c1.46-1.88,4.84-6.49,4.18-8.07c-0.84-2-0.58-10.49,0.71-14.1
				C1023.3,80.27,1020.92,76.73,1019.24,73.38z"/>
			<path class="st45" d="M991.82,48.6l-2.75-0.85l-1.01-0.31c-0.39-0.12-0.71-0.41-0.86-0.8l-0.49-1.25
				c-0.37,0.87-2.64,5.75-7.45,7.07c-0.05,0.01-0.1,0.02-0.15,0.03c-1.87,0.46-3.49-0.19-5.2-1.12c-0.76-0.42-1.5-0.91-2.2-1.43
				c-0.05,0-0.1,0.01-0.15,0.01l0.35,2.58c0,0,2,4.96,3.8,5.79c1.8,0.84,5.66,1.29,9.66-1.22C989.38,54.59,992.21,49.76,991.82,48.6
				z"/>
			<path class="st45" d="M988.54,30.45c-0.74,0.13-1.48,1.11-1.88,1.73c-0.19,0.3-0.31,0.52-0.31,0.52s-0.64-2.7-2-3.54
				c-1.35-0.84,0.64-1.87,0.26-2.9c-0.39-1.03,0.39-1.61-1.29-2.38c-1.67-0.77-2.38-2.19-2.38-2.19s-0.45,1.35-1.42,1.29
				c-0.97-0.06-0.39-0.19-1.54,0.51c-1.16,0.71-2.83,1.35-4.18,1.35c-1.35,0-1.35-0.32-2.45,0.51s-0.77,0.32-2.57,0.58
				s-2.77,2.19-2.83,3.09c-0.06,0.9-0.19,5.66-0.19,5.66l-0.16-0.02l-0.84-0.11c0,0-0.85-2.71-1.52-1.36
				c-0.68,1.36,1.19,8.47,2.54,7.12c0,0,0.68,3.73,1.86,5.59c0.53,0.84,2.04,2.45,3.93,3.89c0.05,0.04,0.11,0.08,0.16,0.12
				c0.69,0.52,1.44,1.01,2.2,1.43c1.7,0.94,3.33,1.58,5.2,1.12c0.05-0.01,0.1-0.02,0.15-0.03c4.81-1.32,7.08-6.2,7.45-7.07
				c0.04-0.09,0.06-0.15,0.06-0.15l0.17-6.61c0,0,1.97,0.76,2.68-2.91C990.34,32.06,989.63,30.25,988.54,30.45z"/>
			<path class="st45" d="M1016.25,100.64c-2.52-4-3.79-3.16-7.57-2.52c-3.79,0.63-2.95-0.21-2.95-0.21l-5.09,4.4l0.68,9.06l0.6,1.68
				l8.19-3.84l6.38-2.35c0,0,0.26-0.32,0.65-0.82C1017.3,104.06,1017.16,102.07,1016.25,100.64z"/>
			<path class="st44" d="M1011.15,114.8c-0.12-2.8-1.05-5.59-1.05-5.59l-8.19,3.84l1.72,4.84l-5.02,0.04l-0.03-0.04h-8.65
				c0.09,0.05,0.15,0.08,0.23,0.11c0.2,0.1,0.38,0.17,0.49,0.18c2.33,0.23,6.06,3.15,9.09,4.43c3.03,1.28,2.21,2.21,2.21,2.21
				c2.8,7.57,4.19,6.52,4.19,6.52c0.15-0.13,0.27-0.27,0.4-0.4c3.85-3.84,1.68-7.81,1.46-9.27
				C1007.77,120.16,1011.27,117.6,1011.15,114.8z"/>
			<path class="st46" d="M965.94,118.2l-13.22,0.11l-2.73-8.84l-1.55-23.35c-1.13-0.91-2.25-1.62-3.08-1.69
				c-2.52-0.21-6.1-1.26-7.36-2.52c-0.77-0.77-3.29-1.08-5.85-1.77c-1.7,0.56-2.85,1.71-2.78,3.88c0.21,6.31,3.16,21.46,7.15,32.82
				c1.69,4.81,3.57,9.58,5.18,13.49c9.17-4.34,19.18-9.15,21.96-10.76C964.4,119.14,965.16,118.67,965.94,118.2z"/>
			<path class="st45" d="M951.32,75.01c-0.74-0.53-1.85-0.91-3.65-1.09c-6.31-0.63-7.15-1.26-7.99-3.37c-0.84-2.1-1.47-4.42-5.47-4
				c-3,0.32-6.96,5.26-7.4,8.78c-0.15,1.16,0.09,2.17,0.88,2.79c1.22,0.98,2.85,1.57,4.46,2.01c2.56,0.7,5.07,1,5.85,1.77
				c1.26,1.26,4.84,2.31,7.36,2.52c0.83,0.07,1.95,0.77,3.08,1.69l-0.03-0.44l-0.26-3.97c-0.14-2.17,1.57-4.01,3.75-4.02l1.02,0
				C952.59,76.63,952.28,75.7,951.32,75.01z"/>
			<path class="st47" d="M1001.91,113.04l-0.6-1.68l-0.68-9.06l-1.58-21.18c-0.15-2.05-1.86-3.63-3.91-3.62l-36.31,0.15l-5.92,0.02
				l-1.02,0c-2.18,0.01-3.89,1.85-3.75,4.02l0.26,3.97l0.03,0.44l1.55,23.35l2.73,8.84l13.22-0.11c0.03-0.02,0.06-0.04,0.09-0.06
				c5.01-3.02,11.27-6.21,22.66-0.26h1.24h8.65l0.03,0.04l5.02-0.04L1001.91,113.04z"/>
			<path class="st47" d="M931.65,149.97c-2.62,2.44-4.3,5.44-4.17,6.62c0.21,1.89,12.83,1.68,15.99,1.47
				c3.16-0.21,13.88-4.63,15.36-6.73c0.95-1.36,0.33-4.8-0.24-7.08C952.96,147.32,943.16,151.28,931.65,149.97z"/>
			<path class="st46" d="M1006.14,131.34c0,0-1.4,1.05-4.19-6.52c0,0,0.82-0.93-2.21-2.21c-3.03-1.28-6.76-4.19-9.09-4.43
				c-0.11-0.01-0.28-0.08-0.49-0.18c-0.07-0.04-0.14-0.06-0.23-0.11h-1.24c-11.39-5.96-17.65-2.76-22.66,0.26
				c-0.03,0.02-0.06,0.04-0.09,0.06c-0.79,0.48-1.54,0.94-2.28,1.37c-2.78,1.6-12.79,6.41-21.96,10.76
				c-8.87,4.2-16.96,7.97-16.96,7.97l0.49,2.14l1.8,7.78l0.23,1.01c1.48,0.34,2.94,0.58,4.38,0.74c11.51,1.31,21.32-2.65,26.94-5.72
				c3.22-1.76,5.08-3.22,5.08-3.22l11.78,2.1c2.73,3.79,9.68,6.1,9.68,6.1c18.15,1.65,21.03-12.22,21.43-18.29
				C1006.41,131.08,1006.29,131.21,1006.14,131.34z"/>
			<path class="st47" d="M912.84,143.91c-1-1.59-2.61-2.89-2.61-2.89c-2.73-1.89-3.37-0.84-6.73,1.05
				c-3.37,1.89-6.1,1.89-11.99,1.68c-5.89-0.21-7.99,4.42-10.1,7.99c-2.1,3.58,1.89,5.26,4.63,6.73c2.73,1.47,23.56-4.63,23.56-4.63
				l1.26-9.89C910.86,143.97,911.64,143.99,912.84,143.91z"/>
			<path class="st45" d="M925.24,140.43c-1.77,0.88-3.95,1.87-6.17,2.49c-2.3,0.64-4.63,0.89-6.22,0.99
				c-1.21,0.07-1.98,0.06-1.98,0.06l-1.26,9.89c0,0,2.95,1.05,7.78,0.63c1.72-0.15,3.69-2.62,5.47-3.79
				c1.63-1.06,3.11-1.91,4.18-2.49L925.24,140.43z"/>
		</g>
		<g>
			<path class="st0" d="M953.9,77.01l5.92-0.02l-3.03-4.68l-4.19,1.98c0,0-0.1,0.02-0.3,0.06C953.26,75.03,953.58,75.96,953.9,77.01
				z"/>
			<path class="st47" d="M966.93,28.36c0.06-0.9,1.03-2.83,2.83-3.09c1.8-0.26,1.48,0.26,2.57-0.58c1.09-0.84,1.09-0.51,2.45-0.51
				c1.35,0,3.03-0.64,4.18-1.35c1.16-0.71,0.58-0.58,1.54-0.51c0.97,0.06,1.42-1.29,1.42-1.29s0.71,1.42,2.38,2.19
				c1.67,0.77,0.9,1.35,1.29,2.38c0.39,1.03-1.61,2.06-0.26,2.9c1.35,0.84,2,3.54,2,3.54s0.12-0.22,0.31-0.52
				c0.17-1.63,0.34-3.28,0.4-3.73c0.13-0.97,1.48-2.38,1.03-3.99s-1.48-1.22-1.54-3.6c-0.06-2.38-0.97-2.7-2.06-3.54
				c-1.09-0.84-2-1.09-4.25-1.48c-2.25-0.39-3.22-2-4.96-1.22c-1.74,0.77-2.57,0.77-5.02,0.58c-2.45-0.19-2.96,1.8-5.21,3.22
				c-2.25,1.42-4.25,8.24-2.64,9.46c1.23,0.94,2.61,4.8,3.19,6.8l0.16,0.02C966.74,34.02,966.87,29.26,966.93,28.36z"/>
			<path class="st43" d="M972.55,49.14l0.02,0.13c0.05,0,0.1-0.01,0.15-0.01C972.66,49.22,972.61,49.18,972.55,49.14z"/>
			<path class="st43" d="M1020.23,72.71c-1.67-3.35-1.48-5.15-1.48-5.15c-0.71-9.66-1.93-10.36-3.99-11.84
				c-1.24-0.89-6.95-2.41-11.59-4.27c-3.09-1.24-5.31-3.03-6.88-3.39c-3.93-0.9-6.12-1.09-6.12-1.09l-0.11,0.12l2.75,0.85
				c0.39,1.16-2.45,5.99-6.44,8.5c-3.99,2.51-7.85,2.06-9.66,1.22c-1.8-0.84-3.8-5.79-3.8-5.79l-0.35-2.58
				c-3.57,0.24-7.93,0.54-10.06,0.66c-3.96,0.23-3.03,3.15-9.09,5.83c-6.06,2.68-6.17,1.4-9.9,3.38c-3.73,1.98-7.34,3.38-11.3,6.06
				c-3.96,2.68-4.66,3.5-5.13,7.22c-0.13,1.05,0.15,1.75,0.71,2.24c0.44-3.51,4.39-8.46,7.4-8.78c4-0.42,4.63,1.89,5.47,4
				c0.84,2.1,1.68,2.73,7.99,3.37c1.8,0.18,2.91,0.56,3.65,1.09c0.19-0.04,0.3-0.06,0.3-0.06l4.19-1.98l3.03,4.68l36.31-0.15
				c2.05-0.01,3.76,1.57,3.91,3.62l1.58,21.18l5.09-4.4c0,0-0.84,0.84,2.95,0.21c3.79-0.63,5.05-1.47,7.57,2.52
				c0.9,1.43,1.05,3.43,0.87,5.4c1.46-1.88,4.84-6.49,4.18-8.07c-0.84-2-0.58-10.49,0.71-14.1
				C1024.29,79.6,1021.91,76.06,1020.23,72.71z"/>
			<path class="st43" d="M992.81,47.93l-2.75-0.85l-1.01-0.31c-0.39-0.12-0.71-0.41-0.86-0.8l-0.49-1.25
				c-0.37,0.87-2.64,5.75-7.45,7.07c-0.05,0.01-0.1,0.02-0.15,0.03c-1.87,0.46-3.49-0.19-5.2-1.12c-0.76-0.42-1.5-0.91-2.2-1.43
				c-0.05,0-0.1,0.01-0.15,0.01l0.35,2.58c0,0,2,4.96,3.8,5.79c1.8,0.84,5.66,1.29,9.66-1.22C990.36,53.91,993.2,49.09,992.81,47.93
				z"/>
			<path class="st43" d="M989.53,29.77c-0.74,0.13-1.48,1.11-1.88,1.73c-0.19,0.3-0.31,0.52-0.31,0.52s-0.64-2.7-2-3.54
				c-1.35-0.84,0.64-1.87,0.26-2.9c-0.39-1.03,0.39-1.61-1.29-2.38c-1.67-0.77-2.38-2.19-2.38-2.19s-0.45,1.35-1.42,1.29
				c-0.97-0.06-0.39-0.19-1.54,0.51c-1.16,0.71-2.83,1.35-4.18,1.35c-1.35,0-1.35-0.32-2.45,0.51c-1.09,0.84-0.77,0.32-2.57,0.58
				c-1.8,0.26-2.77,2.19-2.83,3.09c-0.06,0.9-0.19,5.66-0.19,5.66L966.58,34l-0.84-0.11c0,0-0.85-2.71-1.52-1.36
				c-0.68,1.36,1.19,8.47,2.54,7.12c0,0,0.68,3.73,1.86,5.59c0.53,0.84,2.04,2.45,3.93,3.89c0.05,0.04,0.11,0.08,0.16,0.12
				c0.69,0.52,1.44,1.01,2.2,1.43c1.7,0.94,3.33,1.58,5.2,1.12c0.05-0.01,0.1-0.02,0.15-0.03c4.81-1.32,7.08-6.2,7.45-7.07
				c0.04-0.09,0.06-0.15,0.06-0.15l0.17-6.61c0,0,1.97,0.76,2.68-2.91C991.33,31.38,990.62,29.58,989.53,29.77z"/>
			<path class="st43" d="M1017.24,99.96c-2.52-4-3.79-3.16-7.57-2.52c-3.79,0.63-2.95-0.21-2.95-0.21l-5.09,4.4l0.68,9.06l0.6,1.68
				l8.19-3.84l6.38-2.35c0,0,0.26-0.32,0.65-0.82C1018.29,103.39,1018.15,101.39,1017.24,99.96z"/>
			<path class="st43" d="M1012.14,114.13c-0.12-2.8-1.05-5.59-1.05-5.59l-8.19,3.84l1.72,4.84l-5.02,0.04l-0.03-0.04h-8.65
				c0.09,0.05,0.15,0.08,0.23,0.11c0.2,0.1,0.38,0.17,0.49,0.18c2.33,0.23,6.06,3.15,9.09,4.43c3.03,1.28,2.21,2.21,2.21,2.21
				c2.8,7.57,4.19,6.52,4.19,6.52c0.15-0.13,0.27-0.27,0.4-0.4c3.85-3.84,1.68-7.81,1.46-9.27
				C1008.76,119.49,1012.25,116.92,1012.14,114.13z"/>
			<path class="st43" d="M966.93,117.52l-13.22,0.11l-2.73-8.84l-1.55-23.35c-1.13-0.91-2.25-1.62-3.08-1.69
				c-2.52-0.21-6.1-1.26-7.36-2.52c-0.77-0.77-3.29-1.08-5.85-1.77c-1.7,0.56-2.85,1.71-2.78,3.88c0.21,6.31,3.16,21.46,7.15,32.82
				c1.69,4.81,3.57,9.58,5.18,13.49c9.17-4.34,19.18-9.15,21.96-10.76C965.39,118.47,966.15,118,966.93,117.52z"/>
			<path class="st43" d="M952.31,74.34c-0.74-0.53-1.85-0.91-3.65-1.09c-6.31-0.63-7.15-1.26-7.99-3.37c-0.84-2.1-1.47-4.42-5.47-4
				c-3,0.32-6.96,5.26-7.4,8.78c-0.15,1.16,0.09,2.17,0.88,2.79c1.22,0.98,2.85,1.57,4.46,2.01c2.56,0.7,5.07,1,5.85,1.77
				c1.26,1.26,4.84,2.31,7.36,2.52c0.83,0.07,1.95,0.77,3.08,1.69l-0.03-0.44l-0.26-3.97c-0.14-2.17,1.57-4.01,3.75-4.02l1.02,0
				C953.58,75.96,953.26,75.03,952.31,74.34z"/>
			<path class="st43" d="M1002.9,112.37l-0.6-1.68l-0.68-9.06l-1.58-21.18c-0.15-2.05-1.86-3.63-3.91-3.62l-36.31,0.15l-5.92,0.02
				l-1.02,0c-2.18,0.01-3.89,1.85-3.75,4.02l0.26,3.97l0.03,0.44l1.55,23.35l2.73,8.84l13.22-0.11c0.03-0.02,0.06-0.04,0.09-0.06
				c5.01-3.02,11.27-6.21,22.66-0.26h1.24h8.65l0.03,0.04l5.02-0.04L1002.9,112.37z"/>
			<path class="st43" d="M932.64,149.3c-2.62,2.44-4.3,5.44-4.17,6.62c0.21,1.89,12.83,1.68,15.99,1.47
				c3.16-0.21,13.88-4.63,15.36-6.73c0.95-1.36,0.33-4.8-0.24-7.08C953.95,146.65,944.14,150.61,932.64,149.3z"/>
			<path class="st43" d="M1007.13,130.67c0,0-1.4,1.05-4.19-6.52c0,0,0.82-0.93-2.21-2.21c-3.03-1.28-6.76-4.19-9.09-4.43
				c-0.11-0.01-0.28-0.08-0.49-0.18c-0.07-0.04-0.14-0.06-0.23-0.11h-1.24c-11.39-5.96-17.65-2.76-22.66,0.26
				c-0.03,0.02-0.06,0.04-0.09,0.06c-0.79,0.48-1.54,0.94-2.28,1.37c-2.78,1.6-12.79,6.41-21.96,10.76
				c-8.87,4.2-16.96,7.97-16.96,7.97l0.49,2.14l1.8,7.78l0.23,1.01c1.48,0.34,2.94,0.58,4.38,0.74c11.51,1.31,21.32-2.65,26.94-5.72
				c3.22-1.76,5.08-3.22,5.08-3.22l11.78,2.1c2.73,3.79,9.68,6.1,9.68,6.1c18.15,1.65,21.03-12.22,21.43-18.29
				C1007.4,130.4,1007.28,130.54,1007.13,130.67z"/>
			<path class="st43" d="M913.83,143.24c-1-1.59-2.61-2.89-2.61-2.89c-2.73-1.89-3.37-0.84-6.73,1.05
				c-3.37,1.89-6.1,1.89-11.99,1.68c-5.89-0.21-7.99,4.42-10.1,7.99c-2.1,3.58,1.89,5.26,4.63,6.73c2.73,1.47,23.56-4.63,23.56-4.63
				l1.26-9.89C911.85,143.3,912.62,143.31,913.83,143.24z"/>
			<path class="st43" d="M926.23,139.76c-1.77,0.88-3.95,1.87-6.17,2.49c-2.3,0.64-4.63,0.89-6.22,0.99
				c-1.21,0.07-1.98,0.06-1.98,0.06l-1.26,9.89c0,0,2.95,1.05,7.78,0.63c1.72-0.15,3.69-2.62,5.47-3.79
				c1.63-1.06,3.11-1.91,4.18-2.49L926.23,139.76z"/>
		</g>
		<path class="st43" d="M981.04,45.85c0,0-1.1,1.74-3.93,0.37"/>
		<path class="st43" d="M976.93,36.63c0,0-1.1,7.19,0.18,7.67c1.46,0.55,3.01-1,2.74-1.92"/>
		<line class="st43" x1="987.34" y1="32.03" x2="984.87" y2="35.9"/>
		<line class="st43" x1="966.58" y1="34" x2="969.99" y2="36.9"/>
		<path class="st43" d="M979.85,36.81c0,0-3.84-0.82-4.66,0.37"/>
		<path class="st43" d="M970.86,39.27h3.46c0.48,0,0.87-0.39,0.87-0.87v-1.27c0-0.48-0.39-0.87-0.87-0.87h-3.46
			c-0.48,0-0.87,0.39-0.87,0.87v1.27C969.99,38.88,970.38,39.27,970.86,39.27z"/>
		<path class="st43" d="M980.72,38.73h3.46c0.48,0,0.87-0.39,0.87-0.87v-1.27c0-0.48-0.39-0.87-0.87-0.87h-3.46
			c-0.48,0-0.87,0.39-0.87,0.87v1.27C979.85,38.34,980.24,38.73,980.72,38.73z"/>
		<path class="st43" d="M956.8,72.3c0.49-0.15,6.06-22.16,8.9-22.44"/>
		<path class="st43" d="M1006.72,97.23c0,0-1.85-4.35-0.48-9.65c1.37-5.3-2.19-5.66-1.46-8.22c0.73-2.56,0.73-7.31,0.73-7.31
			s-11.78-22.72-11.52-24.28"/>
		<path class="st43" d="M989.68,117.21c0,0,8.6,7.16,10.15,9.5"/>
		<line class="st43" x1="976.43" y1="142.46" x2="971.66" y2="136.58"/>
		<path class="st43" d="M964.65,140.35c0.52-0.4,9.87-5.07,11.82-8.06"/>
		<line class="st43" x1="953.71" y1="117.63" x2="954.53" y2="123.85"/>
		<line class="st43" x1="1002.31" y1="110.69" x2="950.98" y2="108.8"/>
		<circle class="st47" cx="973.62" cy="37.77" r="0.51"/>
		<circle class="st47" cx="982.12" cy="37.57" r="0.51"/>
	</g>
	<g class="st15">
		<path class="st48" d="M1006.74,15.76h47.14c4.06,0,7.35,3.29,7.35,7.35v27.95c0,4.06-3.29,7.35-7.35,7.35h-44.98l-9.51,12.38
			V58.41V45.57V23.11C999.39,19.05,1002.68,15.76,1006.74,15.76z"/>
		<path class="st43" d="M1009.1,15.52h47.14c4.06,0,7.35,3.29,7.35,7.35v27.95c0,4.06-3.29,7.35-7.35,7.35h-44.98l-9.51,12.38V58.17
			V45.33V22.87C1001.75,18.81,1005.04,15.52,1009.1,15.52z"/>
		<line class="st43" x1="1011.37" y1="43.88" x2="1052.54" y2="43.88"/>
		<line class="st43" x1="1011.37" y1="35.77" x2="1052.54" y2="35.77"/>
		<line class="st43" x1="1011.37" y1="27.65" x2="1052.54" y2="27.65"/>
	</g>
	<g class="st15">
		<path class="st48" d="M272.01,51.82h-33.64c-2.9,0-5.24,2.35-5.24,5.24v19.94c0,2.9,2.35,5.24,5.24,5.24h32.09l6.79,8.83v-8.83
			v-9.16V57.06C277.25,54.16,274.9,51.82,272.01,51.82z"/>
		<path class="st43" d="M270.32,51.64h-33.64c-2.9,0-5.24,2.35-5.24,5.24v19.94c0,2.9,2.35,5.24,5.24,5.24h32.09l6.79,8.83v-8.83
			v-9.16V56.89C275.56,53.99,273.21,51.64,270.32,51.64z"/>
		<line class="st43" x1="268.7" y1="71.88" x2="239.32" y2="71.88"/>
		<line class="st43" x1="268.7" y1="66.09" x2="239.32" y2="66.09"/>
		<line class="st43" x1="268.7" y1="60.3" x2="239.32" y2="60.3"/>
	</g>
	<g class="st15">
		<path class="st48" d="M291.97,11.28h-26.41c-2.9,0-5.24,2.35-5.24,5.24v19.94c0,2.9,2.35,5.24,5.24,5.24h24.87l6.79,8.83v-8.83
			v-9.16V16.52C297.21,13.63,294.87,11.28,291.97,11.28z"/>
		<path class="st43" d="M290.28,11.1h-26.41c-2.9,0-5.24,2.35-5.24,5.24v19.94c0,2.9,2.35,5.24,5.24,5.24h24.87l6.79,8.83v-8.83
			v-9.16V16.35C295.53,13.45,293.18,11.1,290.28,11.1z"/>
	</g>
	<g class="st15">
		<path class="st48" d="M42.44,15.65H16.03c-2.9,0-5.24,2.35-5.24,5.24v19.94c0,2.9,2.35,5.24,5.24,5.24h24.87l6.79,8.83v-8.83
			v-9.16V20.89C47.68,17.99,45.33,15.65,42.44,15.65z"/>
		<path class="st43" d="M40.75,15.47H14.34c-2.9,0-5.24,2.35-5.24,5.24v19.94c0,2.9,2.35,5.24,5.24,5.24H39.2l6.79,8.83V45.9v-9.16
			V20.72C45.99,17.82,43.64,15.47,40.75,15.47z"/>
	</g>
	<g class="st15">
		<path class="st48" d="M1142.73,22.07h-26.41c-2.9,0-5.24,2.35-5.24,5.24v19.94c0,2.9,2.35,5.24,5.24,5.24h24.87l6.79,8.83V52.5
			v-9.16V27.31C1147.97,24.42,1145.63,22.07,1142.73,22.07z"/>
		<path class="st43" d="M1141.04,21.89h-26.41c-2.9,0-5.24,2.35-5.24,5.24v19.94c0,2.9,2.35,5.24,5.24,5.24h24.87l6.79,8.83v-8.83
			v-9.16V27.14C1146.29,24.24,1143.94,21.89,1141.04,21.89z"/>
	</g>
	<g class="st15">
		<path class="st46" d="M158.76,61.25c-1.14-0.47-2.13-0.89-5.09-4.96c-0.01-0.04-0.32-0.47-0.79-0.53
			c-0.35-0.04-0.74,0.14-1.17,0.51c-0.1,0.08-0.4,0.33-0.15,1.2c0,0,0,0,0,0.02c0.28,0.98,1.29,2.84,4.5,6.17
			c0.25,0.26,0.25,0.67,0,0.93c-0.13,0.14-0.3,0.2-0.46,0.2c-0.16,0-0.33-0.06-0.46-0.2c-2.74-2.82-4.3-4.98-4.8-6.64
			c-1.69-3.53-2.38-6.25-2.82-8.06c-0.23-0.89-0.5-1.99-0.71-2.11c-0.08-0.04-0.15-0.04-0.19-0.04c-0.14,0-0.19,0.06-0.22,0.08
			c-0.24,0.2-0.33,0.83-0.31,1.18c-0.19,10.24,6.17,17.71,9.97,21.28c1.52,1.4,3.8,1.5,5.43,0.24l0.61-0.47
			c0.84-0.65,1.35-1.6,1.46-2.66c0.1-1.06-0.22-2.09-0.91-2.87C160.45,61.96,159.6,61.6,158.76,61.25z"/>
		<path class="st44" d="M173.2,30.38c-2.6,0-5.05,1.44-6.37,3.72c-0.23,0.41-0.89,0.41-1.12,0c-1.32-2.29-3.77-3.72-6.37-3.72
			c-4.08,0-7.4,3.39-7.4,7.54c0,8.39,12.12,16.76,14.33,18.2c2.2-1.44,14.33-9.81,14.33-18.2C180.59,33.76,177.28,30.38,173.2,30.38
			z M172.64,44.09c0,0.93-0.74,1.66-1.65,1.66h-2.33v2.38c0,0.93-0.73,1.67-1.64,1.67h-1.49c-0.91,0-1.64-0.75-1.64-1.67v-2.38
			h-2.33c-0.91,0-1.64-0.73-1.64-1.66v-1.52c0-0.94,0.73-1.69,1.64-1.69h2.33v-2.36c0-0.93,0.73-1.67,1.64-1.67h1.49
			c0.91,0,1.64,0.75,1.64,1.67v2.36h2.33c0.91,0,1.65,0.75,1.65,1.69V44.09z"/>
		<path class="st46" d="M150.66,55.45c0.07-0.08,0.12-0.14,0.19-0.2c0.33-0.3,0.66-0.49,1-0.63c-0.61-1.48-0.99-2.76-1.29-3.82
			c-0.28-1.02-0.51-1.83-0.81-2.25c-0.17-0.24-0.38-0.36-0.61-0.36c-0.22,0-0.45,0.08-0.66,0.24c0.1,0.35,0.19,0.71,0.29,1.1
			C149.13,50.96,149.63,52.97,150.66,55.45z"/>
		<path class="st46" d="M181.87,55.45c1.03-2.48,1.54-4.49,1.89-5.91c0.1-0.4,0.19-0.75,0.29-1.1c-0.2-0.16-0.43-0.24-0.64-0.24
			c-0.01,0-0.02,0-0.02,0c-0.23,0-0.43,0.12-0.61,0.36c-0.3,0.41-0.52,1.22-0.81,2.25c-0.3,1.06-0.68,2.34-1.29,3.82
			c0.34,0.14,0.67,0.33,1,0.63C181.74,55.32,181.8,55.37,181.87,55.45z"/>
		<path class="st46" d="M185.73,47.77c-0.21,0.12-0.48,1.22-0.71,2.11c-0.45,1.81-1.13,4.53-2.83,8.06
			c-0.49,1.65-2.06,3.82-4.8,6.64c-0.13,0.14-0.3,0.2-0.46,0.2c-0.16,0-0.33-0.06-0.46-0.2c-0.26-0.26-0.26-0.67-0.01-0.93
			c3.23-3.33,4.23-5.18,4.51-6.17c0-0.02,0.01-0.02,0.01-0.02c0.23-0.87-0.07-1.12-0.15-1.2c-0.38-0.33-0.72-0.49-1.04-0.51
			c-0.01,0-0.02,0-0.03,0c-0.03,0-0.07,0-0.1,0c-0.48,0.06-0.78,0.49-0.78,0.49c-2.97,4.12-3.95,4.53-5.09,5
			c-0.83,0.36-1.69,0.71-3.88,3.25c-0.69,0.79-1.02,1.81-0.91,2.87c0.11,1.07,0.63,2.01,1.46,2.66l0.61,0.47
			c1.63,1.26,3.91,1.16,5.43-0.24c3.8-3.57,10.16-11.03,9.98-21.24c0.01-0.4-0.08-1.02-0.32-1.22
			C186.11,47.77,186.02,47.69,185.73,47.77z"/>
		<g>
			<path class="st47" d="M181.15,37.73c0-4.89-3.9-8.87-8.7-8.87c-2.73,0-5.3,1.32-6.93,3.53c-1.63-2.2-4.21-3.53-6.93-3.53
				c-4.8,0-8.7,3.98-8.7,8.87c0,9.93,14.68,19.17,15.3,19.56c0.11,0.06,0.22,0.1,0.34,0.1c0.11,0,0.24-0.04,0.34-0.1
				C166.49,56.9,181.15,47.66,181.15,37.73z M165.52,55.93c-2.21-1.44-14.33-9.81-14.33-18.2c0-4.16,3.32-7.54,7.4-7.54
				c2.6,0,5.05,1.44,6.37,3.72c0.23,0.41,0.89,0.41,1.12,0c1.32-2.29,3.77-3.72,6.37-3.72c4.08,0,7.4,3.39,7.4,7.54
				C179.85,46.12,167.72,54.49,165.52,55.93z"/>
			<path class="st47" d="M158.51,59.83c-0.96-0.39-1.79-0.75-4.52-4.51c-0.06-0.1-0.59-0.85-1.54-1.04
				c-0.68-1.56-1.07-2.92-1.38-4.04c-0.32-1.14-0.58-2.05-1.02-2.66c-0.41-0.55-0.99-0.89-1.62-0.91c-0.39-0.02-0.8,0.12-1.18,0.33
				c-0.22-0.37-0.5-0.65-0.91-0.73c-0.76-0.18-1.26,0.08-1.55,0.31c-0.82,0.71-0.78,2.11-0.77,2.23
				c-0.19,10.72,6.43,18.52,10.39,22.24c1.06,0.97,2.4,1.46,3.74,1.46c1.18,0,2.37-0.38,3.36-1.14l0.61-0.47
				c1.11-0.87,1.83-2.17,1.96-3.58c0.13-1.44-0.29-2.82-1.22-3.9C160.48,60.66,159.44,60.21,158.51,59.83z M148.4,48.01
				c0.23,0,0.44,0.12,0.61,0.36c0.3,0.41,0.53,1.22,0.81,2.25c0.3,1.06,0.68,2.34,1.29,3.82c-0.34,0.14-0.67,0.33-1,0.63
				c-0.07,0.06-0.13,0.12-0.19,0.2c-1.04-2.48-1.53-4.49-1.89-5.91c-0.1-0.4-0.19-0.75-0.29-1.1
				C147.94,48.09,148.17,48.01,148.4,48.01z M161.34,69.84l-0.61,0.47c-1.63,1.26-3.92,1.16-5.43-0.24
				c-3.8-3.57-10.16-11.03-9.97-21.28c-0.02-0.36,0.07-0.98,0.31-1.18c0.03-0.02,0.08-0.08,0.22-0.08c0.05,0,0.12,0,0.19,0.04
				c0.21,0.12,0.48,1.22,0.71,2.11c0.45,1.81,1.13,4.53,2.82,8.06c0.49,1.65,2.06,3.82,4.8,6.64c0.13,0.14,0.3,0.2,0.46,0.2
				c0.16,0,0.33-0.06,0.46-0.2c0.25-0.26,0.25-0.67,0-0.93c-3.22-3.33-4.22-5.18-4.5-6.17c0-0.02,0-0.02,0-0.02
				c-0.24-0.87,0.06-1.12,0.15-1.2c0.43-0.38,0.82-0.55,1.17-0.51c0.47,0.06,0.78,0.49,0.79,0.53c2.96,4.08,3.95,4.49,5.09,4.96
				c0.83,0.36,1.69,0.71,3.88,3.25c0.69,0.79,1.01,1.81,0.91,2.87C162.7,68.25,162.18,69.19,161.34,69.84z"/>
			<path class="st47" d="M184.7,46.28c-0.42,0.08-0.7,0.36-0.92,0.73c-0.38-0.22-0.79-0.35-1.18-0.33
				c-0.64,0.02-1.21,0.36-1.63,0.91c-0.43,0.61-0.69,1.52-1.01,2.66c-0.31,1.12-0.71,2.48-1.38,4.04c-0.95,0.2-1.48,0.95-1.53,1.02
				c-2.74,3.78-3.57,4.14-4.52,4.53c-0.93,0.37-1.97,0.83-4.36,3.58c-0.93,1.08-1.36,2.46-1.23,3.9c0.14,1.42,0.85,2.72,1.96,3.58
				l0.61,0.47c1,0.77,2.19,1.14,3.37,1.14c1.34,0,2.69-0.49,3.74-1.46c3.96-3.72,10.6-11.52,10.39-22.2
				c0.01-0.16,0.05-1.56-0.77-2.27C185.96,46.36,185.46,46.1,184.7,46.28z M181.22,50.62c0.29-1.02,0.51-1.83,0.81-2.25
				c0.17-0.24,0.38-0.36,0.61-0.36c0,0,0.01,0,0.02,0c0.21,0,0.44,0.08,0.64,0.24c-0.1,0.35-0.19,0.71-0.29,1.1
				c-0.35,1.42-0.85,3.43-1.89,5.91c-0.07-0.08-0.13-0.14-0.19-0.2c-0.33-0.3-0.66-0.49-1-0.63
				C180.54,52.96,180.92,51.68,181.22,50.62z M175.74,70.08c-1.52,1.4-3.8,1.5-5.43,0.24l-0.61-0.47c-0.83-0.65-1.35-1.6-1.46-2.66
				c-0.11-1.06,0.22-2.09,0.91-2.87c2.18-2.54,3.05-2.9,3.88-3.25c1.14-0.47,2.13-0.89,5.09-5c0,0,0.31-0.43,0.78-0.49
				c0.04,0,0.08,0,0.1,0c0.01,0,0.02,0,0.03,0c0.32,0.02,0.67,0.18,1.04,0.51c0.09,0.08,0.39,0.33,0.15,1.2c0,0-0.01,0-0.01,0.02
				c-0.28,0.98-1.28,2.84-4.51,6.17c-0.25,0.26-0.25,0.67,0.01,0.93c0.13,0.14,0.29,0.2,0.46,0.2c0.16,0,0.34-0.06,0.46-0.2
				c2.74-2.82,4.3-4.98,4.8-6.64c1.7-3.53,2.38-6.25,2.83-8.06c0.22-0.89,0.49-1.99,0.71-2.11c0.29-0.08,0.39,0,0.42,0.04
				c0.24,0.2,0.33,0.83,0.32,1.22C185.9,59.05,179.54,66.51,175.74,70.08z"/>
			<path class="st47" d="M170.24,40.69h-2.33v-2.36c0-0.93-0.73-1.67-1.64-1.67h-1.49c-0.91,0-1.64,0.75-1.64,1.67v2.36h-2.33
				c-0.91,0-1.64,0.75-1.64,1.69v1.52c0,0.93,0.73,1.66,1.64,1.66h2.33v2.38c0,0.93,0.73,1.67,1.64,1.67h1.49
				c0.91,0,1.64-0.75,1.64-1.67v-2.38h2.33c0.91,0,1.65-0.73,1.65-1.66v-1.52C171.89,41.43,171.15,40.69,170.24,40.69z M170.58,43.9
				c0,0.18-0.15,0.33-0.35,0.33h-2.98c-0.36,0-0.65,0.3-0.65,0.67v3.03c0,0.2-0.16,0.36-0.35,0.36h-1.49
				c-0.19,0-0.34-0.16-0.34-0.36V44.9c0-0.37-0.29-0.67-0.66-0.67h-2.98c-0.19,0-0.34-0.16-0.34-0.33v-1.52
				c0-0.2,0.14-0.35,0.34-0.35h2.98c0.37,0,0.66-0.32,0.66-0.67v-3.03c0-0.2,0.14-0.36,0.34-0.36h1.49c0.19,0,0.35,0.16,0.35,0.36
				v3.03c0,0.35,0.29,0.67,0.65,0.67h2.98c0.19,0,0.35,0.16,0.35,0.35V43.9z"/>
		</g>
	</g>
	<g class="st15">
		<path class="st44" d="M932.41,22.3c-2.71,0-5.25,1.49-6.63,3.87c-0.24,0.43-0.93,0.43-1.17,0c-1.38-2.38-3.93-3.87-6.63-3.87
			c-4.25,0-7.7,3.53-7.7,7.85c0,8.73,12.62,17.45,14.91,18.94c2.29-1.5,14.91-10.21,14.91-18.94
			C940.11,25.83,936.66,22.3,932.41,22.3z M931.83,36.57c0,0.96-0.77,1.72-1.72,1.72h-2.43v2.48c0,0.96-0.76,1.74-1.71,1.74h-1.55
			c-0.95,0-1.71-0.78-1.71-1.74v-2.48h-2.43c-0.95,0-1.71-0.76-1.71-1.72v-1.58c0-0.98,0.76-1.76,1.71-1.76h2.43v-2.46
			c0-0.96,0.76-1.74,1.71-1.74h1.55c0.95,0,1.71,0.78,1.71,1.74v2.46h2.43c0.95,0,1.72,0.78,1.72,1.76V36.57z"/>
		<g>
			<path class="st47" d="M940.69,29.96c0-5.09-4.06-9.23-9.06-9.23c-2.84,0-5.51,1.38-7.21,3.67c-1.7-2.29-4.38-3.67-7.21-3.67
				c-4.99,0-9.06,4.14-9.06,9.23c0,10.33,15.27,19.95,15.92,20.36c0.11,0.06,0.23,0.1,0.35,0.1c0.12,0,0.25-0.04,0.35-0.1
				C925.43,49.91,940.69,40.29,940.69,29.96z M924.42,48.9c-2.3-1.5-14.91-10.21-14.91-18.94c0-4.33,3.45-7.85,7.7-7.85
				c2.71,0,5.25,1.49,6.63,3.87c0.24,0.43,0.93,0.43,1.17,0c1.38-2.38,3.92-3.87,6.63-3.87c4.25,0,7.7,3.53,7.7,7.85
				C939.33,38.69,926.71,47.4,924.42,48.9z"/>
			<path class="st47" d="M929.33,33.03h-2.43v-2.46c0-0.96-0.76-1.74-1.71-1.74h-1.55c-0.95,0-1.71,0.78-1.71,1.74v2.46h-2.43
				c-0.95,0-1.71,0.78-1.71,1.76v1.58c0,0.96,0.76,1.72,1.71,1.72h2.43v2.48c0,0.96,0.76,1.74,1.71,1.74h1.55
				c0.95,0,1.71-0.78,1.71-1.74V38.1h2.43c0.95,0,1.72-0.76,1.72-1.72v-1.58C931.05,33.81,930.28,33.03,929.33,33.03z M929.69,36.37
				c0,0.18-0.16,0.35-0.36,0.35h-3.1c-0.37,0-0.67,0.31-0.67,0.7v3.16c0,0.21-0.16,0.37-0.36,0.37h-1.55c-0.2,0-0.35-0.16-0.35-0.37
				v-3.16c0-0.39-0.3-0.7-0.68-0.7h-3.1c-0.2,0-0.35-0.16-0.35-0.35v-1.58c0-0.2,0.15-0.37,0.35-0.37h3.1c0.38,0,0.68-0.33,0.68-0.7
				v-3.16c0-0.21,0.15-0.37,0.35-0.37h1.55c0.2,0,0.36,0.16,0.36,0.37v3.16c0,0.37,0.3,0.7,0.67,0.7h3.1c0.2,0,0.36,0.16,0.36,0.37
				V36.37z"/>
		</g>
	</g>
	<g class="st15">
		<path class="st44" d="M420.89,68.84h-0.16V66.8c0-5.16-3.7-9.77-8.82-10.43c-6.19-0.79-11.47,4.04-11.47,10.07v2.39h-0.15
			c-1.05,0-1.9,0.84-1.9,1.89v4.67v9.13c0,1.7,1.38,3.07,3.07,3.07c2.84-0.01,6.92-0.02,8.96,0.01c0.05,0,0.11,0,0.16,0h9.14
			c1.69,0,3.07-1.37,3.07-3.07v-9.41v-4.41C422.79,69.68,421.93,68.84,420.89,68.84z M416.69,68.84h-12.2v-2.39
			c0-3.37,2.73-6.1,6.1-6.1s6.1,2.73,6.1,6.1V68.84z M408.32,81.58c-0.09-0.11-0.13-0.25-0.1-0.39l0.7-3.89
			c-0.46-0.45-0.71-1.04-0.71-1.68c0-1.31,1.06-2.38,2.37-2.38c1.31,0,2.37,1.07,2.37,2.38c0,0.63-0.25,1.22-0.71,1.68l0.7,3.89
			c0.03,0.14-0.01,0.28-0.1,0.39c-0.09,0.1-0.22,0.17-0.37,0.17h-3.79C408.55,81.75,408.42,81.68,408.32,81.58z"/>
		<path class="st43" d="M419.36,68.47h-0.16v-2.04c0-5.16-3.7-9.77-8.82-10.43c-6.19-0.79-11.47,4.04-11.47,10.07v2.39h-0.15
			c-1.05,0-1.9,0.84-1.9,1.89v4.67v9.13c0,1.7,1.38,3.07,3.07,3.07c2.84-0.01,6.92-0.02,8.96,0.01c0.05,0,0.11,0,0.16,0h9.14
			c1.69,0,3.07-1.37,3.07-3.07v-9.41v-4.41C421.26,69.32,420.4,68.47,419.36,68.47z M415.16,68.47h-12.2v-2.39
			c0-3.37,2.73-6.1,6.1-6.1c3.37,0,6.1,2.73,6.1,6.1V68.47z M406.79,81.21c-0.09-0.11-0.13-0.25-0.1-0.39l0.7-3.89
			c-0.46-0.45-0.71-1.04-0.71-1.68c0-1.31,1.06-2.38,2.37-2.38c1.31,0,2.37,1.07,2.37,2.38c0,0.63-0.25,1.22-0.71,1.68l0.7,3.89
			c0.03,0.14-0.01,0.28-0.1,0.39c-0.09,0.1-0.22,0.17-0.37,0.17h-3.79C407.02,81.38,406.89,81.31,406.79,81.21z"/>
	</g>
	<g class="st15">
		<g>
			<path class="st0" d="M315.9,131.69l-3.88-8.05c1.3-1.49,5.3-1.37,7.72-1.15c-1.89-0.68-6.81-2.88-6.67-7.33l-2.73,5.56
				l5.48,10.96L315.9,131.69z"/>
			<path class="st49" d="M320.46,122.73c0,0-0.28-0.08-0.73-0.24c-2.42-0.23-6.41-0.34-7.72,1.15l3.88,8.05l1.05,2.17
				c0,0,1,1.28,2.1-0.09c0.51-0.64,0.61-1.12,0.64-1.51c0.04-0.44,0.02-0.76,0.45-1.05c0.82-0.55,2.04-0.23,2.04-0.23L320.46,122.73
				z"/>
			<path class="st50" d="M319.69,132.27c-0.04,0.39-0.13,0.87-0.64,1.51c-1.1,1.37-2.1,0.09-2.1,0.09l-1.05-2.17l-0.09-0.01
				l-5.48-10.96l-7.99-15.97c-0.4-0.79-1.2-1.31-2.08-1.34l-0.49-0.02l-51.07-1.78c-0.6-0.02-0.98,0.63-0.68,1.14l18.06,30.41
				c0.54,0.91,1.47,1.51,2.52,1.62l39.7,4.24l8.54,0.91c0,0,10.89-1.55,19.23-2.66c3.32-0.44,6.23-0.82,7.89-1.01
				c0.2-0.02,0.2-0.31,0-0.34L319.69,132.27z"/>
			<path class="st45" d="M298.98,148.3l-7.74,3.93c0,0,18.64,13.05,19.15,12.88c0.51-0.17,33.73-15.08,33.73-15.08l-3.6-2.61
				l-25.04,10.41C315.47,157.82,305.39,152.07,298.98,148.3z"/>
			<path class="st45" d="M336.67,137.52l-0.6-0.24c-8.34,1.12-19.23,2.66-19.23,2.66l-8.54-0.91c-5.16,2.08-14.46,5.88-14.52,6.08
				c-0.03,0.09,2.18,1.42,5.19,3.19c6.42,3.77,16.5,9.52,16.5,9.52l25.04-10.41l8.21-3.41C348.72,144,336.94,137.43,336.67,137.52z"
				/>
			<path class="st51" d="M377.16,104.1c-2.11-1.79-9.22-4.31-14.28-5.96c0.23,4.19,0.24,8.3,0.01,11.61
				c-0.07,0.95-0.15,1.84-0.26,2.65c-1.03,7.57-2.24,18.07-4.65,18.41c-0.75,0.11-1.32,0.38-2.15,0.67
				c4.83-0.56,14.66-4.55,18.11-4.68c1.61-0.06,2.94-0.82,4.08-1.94c2.08-2.06,3.47-5.36,4.57-7.89
				C384.28,113.08,380.55,106.98,377.16,104.1z"/>
			<path class="st52" d="M383.77,84.44c-4.15-5.37-8-11.77-10.43-16.05c-1.63-2.88-2.62-4.8-2.62-4.8s-0.39-1.25-0.99-3.13
				c-1.84-5.7-5.74-17.17-7.14-17.04c-1.86,0.17-5.42,1.19-5.59,5.25c-0.17,4.07,2.71,4.58,2.71,8.3s-2.03,9.32,0.85,10.51
				c1.56,0.64,3.41,1.23,4.79,1.64l-0.38,0.39l0.17,4.41c0,0-2.88,10.34-3.22,11.19c-0.06,0.14-0.17,0.49-0.32,0.96
				c0.62,3.63,1.06,7.89,1.29,12.07c5.06,1.64,12.17,4.16,14.28,5.96c3.39,2.88,7.12,8.98,5.42,12.88c-1.1,2.53-2.49,5.83-4.57,7.89
				c15.69-0.78,15.32-7.33,16.43-11.79C395.64,108.34,390.72,93.42,383.77,84.44z"/>
			<path class="st52" d="M374.74,61.98c0.4-0.3,0.92-0.78,1.58-1.61c2.03-2.54,9.32-14.91,9.32-17.12c0-2.2-1.02-5.42-7.46-5.08
				c-6.44,0.34-5.25,6.27-6.44,8.64c-1.19,2.37-3.27,9.37-1.53,11.19c0.68,0.71-0.76,1.46-0.49,2.46l5.06,1.27L374.74,61.98z"/>
			<path class="st50" d="M371.69,60.95l-1.96-0.49c0.61,1.88,0.99,3.13,0.99,3.13s0.99,1.92,2.62,4.8l1.39-6.41l0.05-0.25
				L371.69,60.95z"/>
			<path class="st45" d="M346.26,61.6c2.62,2.62,0.33,9.55-1.14,11.82c2.09-0.09,3.7-0.08,4.43,0.09c2.63,0.63,6.25,0.53,8.83,3.53
				c0.02-2.96-0.57-6.65-4.09-8.87c-5.08-3.22-6.1-13.9-12.37-18.47c-6.27-4.58-10.17-13.22-20.85-7.46
				c-0.9,0.49-1.71,0.98-2.46,1.49C337.86,39.96,343.48,58.82,346.26,61.6z"/>
			<path class="st43" d="M311.07,55.46c0-0.07,0-0.14-0.01-0.21C311.06,55.39,311.07,55.46,311.07,55.46z"/>
			<path class="st51" d="M362.88,98.14c-0.23-4.18-0.67-8.44-1.29-12.07c-0.26-1.5-0.54-2.89-0.86-4.13
				c-0.56-2.21-1.39-3.77-2.36-4.9c-2.58-3-6.2-2.9-8.83-3.53c-0.73-0.17-2.34-0.18-4.43-0.09c-0.13,0.21-0.26,0.39-0.38,0.51
				c-0.52,0.55-1.26,0.52-1.96,0.26c-0.16,0.68-0.39,1.39-0.71,2.13c-0.81,1.87-2.22,3.96-4.51,6.18
				c-9.21,8.96-11.09,6.25-11.09,6.25l-2.27-4.79c0,0-3.67,1.34-5.07-0.31c-1.09-1.29-3.34-5.12-4.97-7.8
				c-1.38,0.32-2.96,0.82-4.72,1.62c-5.45,2.46-8.45,17.54-9.67,25.92l0.49,0.02c0.89,0.03,1.69,0.54,2.08,1.34l7.99,15.97
				l2.73-5.56c-0.14,4.45,4.78,6.65,6.67,7.33c0.45,0.16,0.73,0.24,0.73,0.24l1.72,8.26c0,0,6.37-0.52,19.62,0.86
				c9.11,0.95,12.2,0.27,14.03-0.36c0.83-0.29,1.4-0.56,2.15-0.67c2.41-0.34,3.61-10.84,4.65-18.41c0.11-0.81,0.2-1.7,0.26-2.65
				C363.13,106.44,363.11,102.33,362.88,98.14z"/>
			<path class="st49" d="M339.94,73.75c-0.2-0.24-0.4-0.48-0.61-0.72c-1.05,0.1-2.65-0.21-3.99-2.47c-0.4-0.67-0.56-1.4-0.56-2.14
				c-0.29-0.23-0.57-0.44-0.83-0.59c-2.88-1.69-1.69-5.93-3.9-8.64c-2.2-2.71-9.32-3.73-12.37-4.41
				c-3.05-0.68-5.34,12.29-5.34,12.29s-0.06,5.8,0.64,6.86c0.32,0.49,0.73,1.16,1.2,1.92c1.63,2.68,3.88,6.51,4.97,7.8
				c1.4,1.65,5.07,0.31,5.07,0.31l2.16,4.07c0,0,1.98,3.43,11.2-5.53c2.29-2.23,3.69-4.31,4.51-6.18
				C341.55,75.69,340.8,74.77,339.94,73.75z"/>
			<path class="st45" d="M336.41,52.27c-5.08-6.73-12.45-6.23-18.04-6.16c-5.59,0.06-7.3,9.36-7.3,9.36l-0.32,4.75
				c-0.25,1.58-0.54,3.49,0.08,4.96l1.15,1.45l0.36,0.45c0,0,2.29-12.96,5.34-12.29c3.05,0.68,10.17,1.69,12.37,4.41
				c2.2,2.71,1.02,6.95,3.9,8.64c0.26,0.15,0.54,0.36,0.83,0.59c0.01-2.07,1.29-4.3,2.41-5.88c0.73-1.04,1.4-1.81,1.58-2.07
				c0.57-0.83,2.99,0.25,2.99,0.25S341.5,59,336.41,52.27z"/>
			<path class="st45" d="M341.67,73.62c-0.68-0.44-1.19-0.9-1.19-0.9s-0.46,0.25-1.15,0.31c0.21,0.24,0.42,0.48,0.61,0.72
				c0.86,1.02,1.61,1.94,2.12,2.57c0.32-0.75,0.55-1.46,0.71-2.13C342.38,74.05,342,73.84,341.67,73.62z"/>
			<path class="st44" d="M346.26,61.6c-2.78-2.78-8.41-21.65-27.65-17.88c-0.52,0.1-1.04,0.21-1.57,0.34c0,0-6.36,3.53-5.98,11.18
				c0,0.07,0,0.14,0.01,0.21c0,0,1.71-9.29,7.3-9.36c5.59-0.06,12.96-0.57,18.04,6.16c5.08,6.73,5.34,8.45,5.34,8.45
				s-2.41-1.08-2.99-0.25c-0.19,0.27-0.85,1.03-1.58,2.07c-1.12,1.59-2.4,3.81-2.41,5.88c0,0.75,0.16,1.47,0.56,2.14
				c1.34,2.27,2.94,2.58,3.99,2.47c0.69-0.07,1.15-0.31,1.15-0.31s0.5,0.47,1.19,0.9c0.34,0.22,0.72,0.42,1.11,0.56
				c0.71,0.26,1.44,0.29,1.96-0.26c0.12-0.12,0.25-0.3,0.38-0.51C346.59,71.15,348.88,64.22,346.26,61.6z"/>
		</g>
		<g>
			<path class="st0" d="M316.9,130.4l-3.88-8.05c1.3-1.49,5.3-1.37,7.72-1.15c-1.89-0.68-6.81-2.88-6.67-7.33l-2.73,5.56l5.48,10.96
				L316.9,130.4z"/>
			<path class="st43" d="M321.46,121.44c0,0-0.28-0.08-0.73-0.24c-2.42-0.23-6.41-0.34-7.72,1.15l3.88,8.05l1.05,2.17
				c0,0,1,1.28,2.1-0.09c0.51-0.64,0.61-1.12,0.64-1.51c0.04-0.44,0.02-0.76,0.45-1.05c0.82-0.55,2.04-0.23,2.04-0.23L321.46,121.44
				z"/>
			<path class="st43" d="M320.69,130.97c-0.04,0.39-0.13,0.87-0.64,1.51c-1.1,1.37-2.1,0.09-2.1,0.09l-1.05-2.17l-0.09-0.01
				l-5.48-10.96l-7.99-15.97c-0.4-0.79-1.2-1.31-2.08-1.34l-0.49-0.02l-51.07-1.78c-0.6-0.02-0.98,0.63-0.68,1.14l18.06,30.41
				c0.54,0.91,1.47,1.51,2.52,1.62l39.7,4.24l8.54,0.91c0,0,10.89-1.55,19.23-2.66c3.32-0.44,6.23-0.82,7.89-1.01
				c0.2-0.02,0.2-0.31,0-0.34L320.69,130.97z"/>
			<path class="st43" d="M299.98,147.01l-7.74,3.93c0,0,18.64,13.05,19.15,12.88c0.51-0.17,33.73-15.08,33.73-15.08l-3.6-2.61
				l-25.04,10.41C316.47,156.53,306.39,150.77,299.98,147.01z"/>
			<path class="st43" d="M337.67,136.23l-0.6-0.24c-8.34,1.12-19.23,2.66-19.23,2.66l-8.54-0.91c-5.16,2.08-14.46,5.88-14.52,6.08
				c-0.03,0.09,2.18,1.42,5.19,3.19c6.42,3.77,16.5,9.52,16.5,9.52l25.04-10.41l8.21-3.41
				C349.72,142.71,337.94,136.14,337.67,136.23z"/>
			<path class="st43" d="M378.16,102.81c-2.11-1.79-9.22-4.31-14.28-5.96c0.23,4.19,0.24,8.3,0.01,11.61
				c-0.07,0.95-0.15,1.84-0.26,2.65c-1.03,7.57-2.24,18.07-4.65,18.41c-0.75,0.11-1.32,0.38-2.15,0.67
				c4.83-0.56,14.66-4.55,18.11-4.68c1.61-0.06,2.94-0.82,4.08-1.94c2.08-2.06,3.47-5.36,4.57-7.89
				C385.28,111.79,381.55,105.69,378.16,102.81z"/>
			<path class="st43" d="M384.77,83.15c-4.15-5.37-8-11.77-10.43-16.05c-1.63-2.88-2.62-4.8-2.62-4.8s-0.39-1.25-0.99-3.13
				c-1.84-5.7-5.74-17.17-7.14-17.04c-1.86,0.17-5.42,1.19-5.59,5.25c-0.17,4.07,2.71,4.58,2.71,8.3s-2.03,9.32,0.85,10.51
				c1.56,0.64,3.41,1.23,4.79,1.64l-0.38,0.39l0.17,4.41c0,0-2.88,10.34-3.22,11.19c-0.06,0.14-0.17,0.49-0.32,0.96
				c0.62,3.63,1.06,7.89,1.29,12.07c5.06,1.64,12.17,4.16,14.28,5.96c3.39,2.88,7.12,8.98,5.42,12.88c-1.1,2.53-2.49,5.83-4.57,7.89
				c15.69-0.78,15.32-7.33,16.43-11.79C396.64,107.04,391.72,92.13,384.77,83.15z"/>
			<path class="st43" d="M375.74,60.69c0.4-0.3,0.92-0.78,1.58-1.61c2.03-2.54,9.32-14.91,9.32-17.12c0-2.2-1.02-5.42-7.46-5.08
				c-6.44,0.34-5.25,6.27-6.44,8.64c-1.19,2.37-3.27,9.37-1.53,11.19c0.68,0.71-0.76,1.46-0.49,2.46l5.06,1.27L375.74,60.69z"/>
			<path class="st43" d="M372.69,59.66l-1.96-0.49c0.61,1.88,0.99,3.13,0.99,3.13s0.99,1.92,2.62,4.8l1.39-6.41l0.05-0.25
				L372.69,59.66z"/>
			<path class="st43" d="M347.26,60.31c2.62,2.62,0.33,9.55-1.14,11.82c2.09-0.09,3.7-0.08,4.43,0.09c2.63,0.63,6.25,0.53,8.83,3.53
				c0.02-2.96-0.57-6.65-4.09-8.87c-5.08-3.22-6.1-13.9-12.37-18.47c-6.27-4.58-10.17-13.22-20.85-7.46
				c-0.9,0.49-1.71,0.98-2.46,1.49C338.86,38.67,344.48,57.53,347.26,60.31z"/>
			<path class="st43" d="M312.07,54.17c0-0.07,0-0.14-0.01-0.21C312.06,54.09,312.07,54.17,312.07,54.17z"/>
			<path class="st43" d="M363.88,96.85c-0.23-4.18-0.67-8.44-1.29-12.07c-0.26-1.5-0.54-2.89-0.86-4.13
				c-0.56-2.21-1.39-3.77-2.36-4.9c-2.58-3-6.2-2.9-8.83-3.53c-0.73-0.17-2.34-0.18-4.43-0.09c-0.13,0.21-0.26,0.39-0.38,0.51
				c-0.52,0.55-1.26,0.52-1.96,0.26c-0.16,0.68-0.39,1.39-0.71,2.13c-0.81,1.87-2.22,3.96-4.51,6.18c-9.21,8.96-10.85,6.9-10.85,6.9
				l-2.03-4.83c0,0-3.65,1.53-5.04-0.13c-1.09-1.29-3.83-5.92-5.46-8.6c-1.38,0.32-2.96,0.82-4.72,1.62
				c-5.45,2.46-8.45,17.54-9.67,25.92l0.49,0.02c0.89,0.03,1.69,0.54,2.08,1.34l7.99,15.97l2.73-5.56
				c-0.14,4.45,4.78,6.65,6.67,7.33c0.45,0.16,0.73,0.24,0.73,0.24l1.72,8.26c0,0,6.37-0.52,19.62,0.86
				c9.11,0.95,12.2,0.27,14.03-0.36c0.83-0.29,1.4-0.56,2.15-0.67c2.41-0.34,3.61-10.84,4.65-18.41c0.11-0.81,0.2-1.7,0.26-2.65
				C364.13,105.15,364.11,101.04,363.88,96.85z"/>
			<path class="st43" d="M340.94,72.46c-0.2-0.24-0.4-0.48-0.61-0.72c-1.05,0.1-2.65-0.21-3.99-2.47c-0.4-0.67-0.56-1.4-0.56-2.14
				c-0.29-0.23-0.57-0.44-0.83-0.59c-2.88-1.69-1.69-5.93-3.9-8.64c-2.2-2.71-9.32-3.73-12.37-4.41
				c-3.05-0.68-5.34,12.29-5.34,12.29s-0.06,5.8,0.64,6.86c0.32,0.49,0.73,1.16,1.2,1.92c1.63,2.68,4.37,7.31,5.46,8.6
				c1.4,1.65,5.04,0.13,5.04,0.13l2.03,4.83c0,0,1.64,2.06,10.85-6.9c2.29-2.23,3.69-4.31,4.51-6.18
				C342.55,74.4,341.8,73.48,340.94,72.46z"/>
			<path class="st43" d="M337.41,50.97c-5.08-6.73-12.45-6.23-18.04-6.16c-5.59,0.06-7.3,9.36-7.3,9.36l-0.32,4.75
				c-0.25,1.58-0.54,3.49,0.08,4.96l1.15,1.45l0.36,0.45c0,0,2.29-12.96,5.34-12.29c3.05,0.68,10.17,1.69,12.37,4.41
				c2.2,2.71,1.02,6.95,3.9,8.64c0.26,0.15,0.54,0.36,0.83,0.59c0.01-2.07,1.29-4.3,2.41-5.88c0.73-1.04,1.4-1.81,1.58-2.07
				c0.57-0.83,2.99,0.25,2.99,0.25S342.5,57.71,337.41,50.97z"/>
			<path class="st43" d="M342.67,72.33c-0.68-0.44-1.19-0.9-1.19-0.9s-0.46,0.25-1.15,0.31c0.21,0.24,0.42,0.48,0.61,0.72
				c0.86,1.02,1.61,1.94,2.12,2.57c0.32-0.75,0.55-1.46,0.71-2.13C343.38,72.76,343,72.55,342.67,72.33z"/>
			<path class="st43" d="M347.26,60.31c-2.78-2.78-8.41-21.65-27.65-17.88c-0.52,0.1-1.04,0.21-1.57,0.34c0,0-6.36,3.53-5.98,11.18
				c0,0.07,0,0.14,0.01,0.21c0,0,1.71-9.29,7.3-9.36c5.59-0.06,12.96-0.57,18.04,6.16c5.08,6.73,5.34,8.45,5.34,8.45
				s-2.41-1.08-2.99-0.25c-0.19,0.27-0.85,1.03-1.58,2.07c-1.12,1.59-2.4,3.81-2.41,5.88c0,0.75,0.16,1.47,0.56,2.14
				c1.34,2.26,2.94,2.58,3.99,2.47c0.69-0.07,1.15-0.31,1.15-0.31s0.5,0.47,1.19,0.9c0.34,0.22,0.72,0.42,1.11,0.56
				c0.71,0.26,1.44,0.29,1.96-0.26c0.12-0.12,0.25-0.3,0.38-0.51C347.59,69.86,349.88,62.93,347.26,60.31z"/>
		</g>
		<path class="st43" d="M363.3,92.83c0,0,2.68-3.82,10.51,1.72c0,0,5.93-3.63,18.92,10.99"/>
		<line class="st43" x1="373.81" y1="94.55" x2="366.17" y2="71.8"/>
		<path class="st43" d="M366.34,67.84c0,0,4.82-3.19,5.38-5.54"/>
		<path class="st43" d="M364.54,43.32c0,0,0.96,6.4,0.76,9.46c-0.19,3.06-0.1,12.04-3.92,12.33"/>
		<path class="st43" d="M386.04,42.84c0,0-5.64,6.79-6.59,8.7c-0.96,1.91-3.15,7.55-6.4,6.5"/>
		<path class="st43" d="M321.46,121.44c0,0,13.45,0.95,20.2-1.91c4.78-2.02,4.02-2.21,3.64-7.27c-0.39-5.06-1.82-18.05-1.69-19.48"
			/>
		<path class="st43" d="M314.06,113.87c0,0,2.29-11.6,2.16-12.51"/>
		<path class="st43" d="M323.37,83.75c0,0,5.18-0.71,9.2-4.47"/>
		<path class="st43" d="M326.28,77.06c0,0-2.41,3.16-5.52,2.38"/>
		<path class="st43" d="M319.52,70.15c0,0-3.01,1.57-1.95,3.53c0.53,0.98,2.71,0.23,2.71,0.23"/>
		<path class="st43" d="M342.75,59.42c0,0-2.46,11.11-1.27,12.01"/>
		<path class="st43" d="M317.95,132.58c0,0,4.12,5.19-0.1,6.07"/>
		
			<ellipse transform="matrix(0.2119 -0.9773 0.9773 0.2119 206.6801 389.8107)" class="st43" cx="345.04" cy="66.75" rx="3.57" ry="2.01"/>
		<path class="st43" d="M342.55,59.6c-1.71-0.37-3.67,1.98-4.38,5.25c-0.71,3.27,0.1,6.22,1.81,6.59"/>
		<circle class="st47" cx="316.13" cy="66.72" r="0.49"/>
		<circle class="st47" cx="325.98" cy="67.25" r="0.49"/>
		<path class="st43" d="M318.68,53.49c0,0,3.95-8.72,5.99-8.59"/>
		<path class="st43" d="M339.77,59.17c0,0-2.83-6.99-8.71-6.73s-7.28-2.3-7.28-2.3"/>
		<path class="st43" d="M310.9,68.52c0,1.25,1.61,2.27,3.6,2.27c1.99,0,3.6-1.01,3.6-2.27c0-1.25-1.74-1.33-3.73-1.33
			C312.38,67.19,310.9,67.27,310.9,68.52z"/>
		<path class="st43" d="M322.1,69.04c0,1.25,1.61,2.27,3.6,2.27s3.6-1.01,3.6-2.27c0-1.25-1.74-1.33-3.73-1.33
			S322.1,67.79,322.1,69.04z"/>
		<path class="st43" d="M318.09,68.52c0,0,2.61-0.67,4.01,0.52"/>
		<path class="st43" d="M329.21,68.19c0.38-0.08,6.69-3.16,6.69-3.16"/>
	</g>
	<g class="st15">
		<g>
			<path class="st47" d="M1240.28,46.88c0,0,0.22-6.61-3.75-7.93c0,0-1.1-6.39-4.41-8.15c0,0,2.2-2.42-0.22-4.63
				c-2.42-2.2-2.2-1.76-5.07-2.86c-2.86-1.1-0.66-1.54-1.76-4.19c-1.1-2.64-1.32-0.44-5.07-2.86c-3.75-2.42,0.44-2.2-5.29-3.53
				s-2.42-3.53-8.37-5.51c-5.95-1.98-14.54,1.32-16.97,3.53c-2.42,2.2-8.59,7.93-9.26,11.9c-0.66,3.97-2.64,1.32-2.86,5.29
				c-0.22,3.97,2.42,4.41,0.22,6.39s-3.97,2.42-3.75,5.95c0.22,3.53-0.44,1.32-2.2,5.73c-1.76,4.41-4.41,3.31-2.86,6.61
				c0.77,1.65,2.48,3.58,4.05,5.18c1.49-1.75,3.43-3.19,6.08-4.3c3.09-1.29,8-2.2,11.71-2.78c-1.9-1.13-3.67-2.62-4.22-4.05
				c-1.1-2.86-6.39-20.71-3.53-24.24c2.86-3.53,2.2-4.19,6.39-1.76c4.19,2.42,5.07,2.42,6.17,7.05c1.1,4.63,2.86,2.86,4.19,6.83
				c1.32,3.97,2.42,6.39,4.41,7.71c0.89,0.59,1.64,1.94,2.21,3.24c0.69,1.61,1.1,3.15,1.1,3.15s-1,0.65-1.85,1.58
				c-0.79,0.87-1.45,1.98-1.02,3.05c0.6,1.51,2.24,1.57,2.86,2.95c0.29,0.63,0.36,1.54,0.01,3c-1.1,4.63-1.32,9.26,2.42,9.92
				c3.75,0.66,6.17,3.53,8.59,0.44c2.42-3.09,0.44-3.09,3.31-5.29c2.86-2.2,1.98-3.75,1.54-8.59c-0.12-1.34-0.19-2.55-0.23-3.61
				c0.59,0.27,1.22,0.6,1.9,0.98c3.18,1.79,7.11,4.81,10.02,9.69c0.05,0.08,0.09,0.16,0.14,0.25c2.45-1.41,4.49-3.77,3.61-7.74
				C1238.51,55.25,1244.24,52.39,1240.28,46.88z"/>
			<path class="st50" d="M1205.52,53.27c-0.43-1.06,0.23-2.18,1.02-3.05c0.85-0.93,1.85-1.58,1.85-1.58s-0.4-1.54-1.1-3.15
				c-0.56-1.3-1.32-2.65-2.21-3.24c-1.98-1.32-3.09-3.75-4.41-7.71c-1.32-3.97-3.09-2.2-4.19-6.83c-1.1-4.63-1.98-4.63-6.17-7.05
				c-4.19-2.42-3.53-1.76-6.39,1.76c-2.86,3.53,2.42,21.38,3.53,24.24c0.55,1.43,2.32,2.92,4.22,4.05c0.59,0.35,1.2,0.67,1.79,0.94
				l-0.28,0.52c0,0,0,2.86,3.75,3.97c1.16,0.34,2.98,0.45,4.93,0.44c2.26-0.01,4.69-0.19,6.52-0.36
				C1207.76,54.84,1206.12,54.78,1205.52,53.27z"/>
			<path class="st50" d="M1206.85,120.02l-0.36-6.15c0,0-6.39,0.44-8.81-2.42c-1.92-2.26-5.09-3.41-9.38-3.58l1.44,4.24
				L1206.85,120.02z"/>
			<path class="st47" d="M1212.23,121.48l-5.08-2.35l-17.11-7.91l-1.44-4.24l-11.22-32.94c-0.73-2.15-2.74-3.6-5-3.61l-7.45-0.06
				l-39.11-0.32c-1.45-0.01-2.47,1.42-1.99,2.79l12.26,34.9c0.65,1.84,2.36,3.09,4.31,3.14l0.23,0.01c0.56-0.78,1.03-1.41,1.38-1.86
				c5.73-7.27,11.9-4.85,11.9-4.85l42.36,18.49c0.42-0.02,1.08-0.04,1.92-0.08c3.78-0.15,10.96-0.43,13.94-0.53
				C1212.43,122.05,1212.51,121.62,1212.23,121.48z"/>
			<path class="st51" d="M1212.9,137.08c-0.38-1.29-0.9-2.68-1.58-4.15c-0.53-1.15-1.15-2.36-1.9-3.63l-6.3-2.75l-6.87-3
				l-42.36-18.49c0,0-6.17-2.42-11.9,4.85c-0.35,0.45-0.82,1.08-1.38,1.86c-8.6,11.93-40.05,60.07-40.05,60.07l1.52,1.47l8.85,8.52
				l1.53,1.48l24.9-30.85c0,0,1.05,21.11,2.17,39.55c0.21,3.54,0.43,6.97,0.64,10.15c0.64,9.61,1.24,16.78,1.6,16.85
				c0.2,0.04,0.77,0.15,1.57,0.29c3.33,0.59,10.69,1.71,12.08,0.59c0.15-0.12,0.24-0.26,0.24-0.44c0-1.69,2.73-37.72,4-54.32
				c0.38-5.01,0.63-8.26,0.63-8.26l48.04-3.75C1208.32,153.1,1216.32,148.79,1212.9,137.08z"/>
			<path class="st47" d="M1173.04,162.04c-0.51,12.36-4.38,64.87-4.38,64.87l3.75-0.22l5.93-49.49l-0.56-15.93L1173.04,162.04z"/>
			<path class="st47" d="M1182.89,160.44l-2.6,0.42l-2.52,0.41l0.56,15.93l2.44,68.88c0,0,6.17,0.88,6.17-0.22
				C1186.95,244.88,1183.6,175.16,1182.89,160.44z"/>
			<path class="st47" d="M1224.63,234.41h7.49l-27.59-76.13c-2.67,0.54-5.12,0.92-7.32,1.18L1224.63,234.41z"/>
			<path class="st45" d="M1223.97,124.01l-6.39-1.1c0,0,0,7.71-1.54,11.46c-1.54,3.75-1.54,3.75-1.54,3.75s-0.61-0.75-1.59-1.92
				c3.41,11.7-4.58,16.02-4.58,16.02l-48.04,3.75c0,0-0.25,3.25-0.63,8.26l13.38-2.17l4.74-0.77l2.52-0.41l2.6-0.42l3.17-0.52
				c0,0,4.28,0.34,11.15-0.47c2.19-0.26,4.65-0.64,7.32-1.18c0.52-0.11,1.05-0.21,1.58-0.33c11.9-2.64,14.1-7.27,19.83-14.54
				c1.96-2.49,2.73-10.31,2.9-19.53C1227.36,124.02,1225.74,124.08,1223.97,124.01z"/>
			<g>
				<path class="st49" d="M1244.02,92.05c-0.66-9.39-3.7-19.87-9.11-29.06c-0.05-0.08-0.09-0.16-0.14-0.25
					c-2.9-4.88-6.84-7.9-10.02-9.69c-0.67-0.38-1.31-0.7-1.9-0.98c0.04,1.06,0.11,2.28,0.23,3.61c0.44,4.85,1.32,6.39-1.54,8.59
					c-2.86,2.2-0.88,2.2-3.31,5.29c-2.42,3.09-4.85,0.22-8.59-0.44c-3.75-0.66-3.53-5.29-2.42-9.92c0.35-1.46,0.28-2.37-0.01-3
					c-1.83,0.17-4.26,0.34-6.52,0.36c-1.95,0.01-3.77-0.1-4.93-0.44c-3.75-1.1-3.75-3.97-3.75-3.97l0.28-0.52
					c-0.59-0.27-1.19-0.58-1.79-0.94c-3.71,0.58-8.62,1.49-11.71,2.78c-2.66,1.11-4.59,2.55-6.08,4.3
					c-1.47,1.73-2.51,3.76-3.39,6.06c-1.11,2.91-3.09,5.21-4.41,6.52l7.45,0.06c2.27,0.02,4.27,1.47,5,3.61l11.22,32.94
					c4.29,0.17,7.46,1.32,9.38,3.58c2.42,2.86,8.81,2.42,8.81,2.42l0.36,6.15l5.08,2.35c0.29,0.13,0.2,0.56-0.12,0.58
					c-2.97,0.1-10.16,0.38-13.94,0.53c-0.83,0.03-1.5,0.06-1.92,0.08l6.87,3l6.3,2.75c0.75,1.27,1.37,2.47,1.9,3.63
					c0.68,1.48,1.2,2.86,1.58,4.15c0.98,1.17,1.59,1.92,1.59,1.92s0,0,1.54-3.75c1.54-3.75,1.54-11.46,1.54-11.46l6.39,1.1
					c1.77,0.07,3.39,0.01,4.89-0.14c12.67-1.28,16.06-9.78,18.03-13.52C1249.09,106.16,1244.69,101.53,1244.02,92.05z
					 M1232.41,105.99l-1.94,0.3l-9.23,1.81c0,0,3.89-10.03,3.89-13.92c0-3.89,0.9-4.79,0.9-4.79l2.13,6.92
					c0.97,2.43,2.18,5.25,2.97,6.28C1232.62,104.49,1232.41,105.99,1232.41,105.99z"/>
				<path class="st45" d="M1228.16,96.3l-2.13-6.92c0,0-0.9,0.9-0.9,4.79c0,3.89-3.89,13.92-3.89,13.92l9.23-1.81l-1.84,0.28
					C1228.5,102.92,1228.33,99.43,1228.16,96.3z"/>
			</g>
		</g>
		<g>
			<g>
				<path class="st43" d="M1239.57,45.15c0,0,0.22-6.61-3.75-7.93c0,0-1.1-6.39-4.41-8.15c0,0,2.2-2.42-0.22-4.63
					s-2.2-1.76-5.07-2.86c-2.86-1.1-0.66-1.54-1.76-4.19c-1.1-2.64-1.32-0.44-5.07-2.86s0.44-2.2-5.29-3.53s-2.42-3.53-8.37-5.51
					c-5.95-1.98-14.54,1.32-16.97,3.53c-2.42,2.2-8.59,7.93-9.26,11.9c-0.66,3.97-2.64,1.32-2.86,5.29
					c-0.22,3.97,2.42,4.41,0.22,6.39c-2.2,1.98-3.97,2.42-3.75,5.95c0.22,3.53-0.44,1.32-2.2,5.73s-4.41,3.31-2.86,6.61
					c0.77,1.65,2.48,3.58,4.05,5.18c1.49-1.75,3.43-3.19,6.08-4.3c3.09-1.29,8-2.2,11.71-2.78c-1.9-1.13-3.67-2.62-4.22-4.05
					c-1.1-2.86-6.39-20.71-3.53-24.24c2.86-3.53,2.2-4.19,6.39-1.76s5.07,2.42,6.17,7.05c1.1,4.63,2.86,2.86,4.19,6.83
					c1.32,3.97,2.42,6.39,4.41,7.71c0.89,0.59,1.64,1.94,2.21,3.24c0.69,1.61,1.1,3.15,1.1,3.15s-1,0.65-1.85,1.58
					c-0.79,0.87-1.45,1.98-1.02,3.05c0.6,1.51,2.24,1.57,2.86,2.95c0.29,0.63,0.36,1.54,0.01,3c-1.1,4.63-1.32,9.26,2.42,9.92
					c3.75,0.66,6.17,3.53,8.59,0.44c2.42-3.09,0.44-3.09,3.31-5.29s1.98-3.75,1.54-8.59c-0.12-1.34-0.19-2.55-0.23-3.61
					c0.59,0.27,1.22,0.6,1.9,0.98c3.18,1.79,7.11,4.81,10.02,9.69c0.05,0.08,0.09,0.16,0.14,0.25c2.45-1.41,4.49-3.77,3.61-7.74
					C1237.8,53.52,1243.53,50.66,1239.57,45.15z"/>
				<path class="st43" d="M1203.65,51.54c-0.43-1.06,0.23-2.18,1.02-3.05c0.85-0.93,1.85-1.58,1.85-1.58s-0.4-1.54-1.1-3.15
					c-0.56-1.3-1.32-2.65-2.21-3.24c-1.98-1.32-3.09-3.75-4.41-7.71c-1.32-3.97-3.09-2.2-4.19-6.83c-1.1-4.63-1.98-4.63-6.17-7.05
					s-3.53-1.76-6.39,1.76c-2.86,3.53,2.42,21.38,3.53,24.24c0.55,1.43,2.32,2.92,4.22,4.05c0.59,0.35,1.2,0.67,1.79,0.94
					l-0.28,0.52c0,0,0,2.86,3.75,3.97c1.16,0.34,2.98,0.45,4.93,0.44c2.26-0.01,4.69-0.19,6.52-0.36
					C1205.88,53.11,1204.25,53.05,1203.65,51.54z"/>
				<path class="st43" d="M1206.43,117.4l-0.36-6.15c0,0-6.39,0.44-8.81-2.42c-1.92-2.26-5.09-3.41-9.38-3.58l1.44,4.24
					L1206.43,117.4z"/>
				<path class="st43" d="M1211.51,119.75l-5.08-2.35l-17.11-7.91l-1.44-4.24l-11.22-32.94c-0.73-2.15-2.74-3.6-5-3.61l-7.45-0.06
					l-39.11-0.32c-1.45-0.01-2.47,1.42-1.99,2.79l12.26,34.9c0.65,1.84,2.36,3.09,4.31,3.14l0.23,0.01
					c0.56-0.78,1.03-1.41,1.38-1.86c5.73-7.27,11.9-4.85,11.9-4.85l42.36,18.49c0.42-0.02,1.08-0.04,1.92-0.08
					c3.78-0.15,10.96-0.43,13.94-0.53C1211.72,120.32,1211.8,119.88,1211.51,119.75z"/>
				<path class="st43" d="M1212.19,134.46c-0.38-1.29-0.9-2.68-1.58-4.15c-0.53-1.15-1.15-2.36-1.9-3.63l-6.31-2.75l-6.87-3
					l-42.36-18.49c0,0-6.17-2.42-11.9,4.85c-0.35,0.45-0.82,1.08-1.38,1.86c-8.6,11.93-40.05,60.07-40.05,60.07l1.52,1.47l8.85,8.52
					l1.53,1.48l24.9-30.85c0,0,1.05,21.11,2.17,39.55c0.21,3.54,0.43,6.97,0.64,10.15c0.64,9.61,1.24,16.78,1.6,16.85
					c0.2,0.04,0.77,0.15,1.57,0.29c3.33,0.59,10.69,1.71,12.08,0.59c0.15-0.12,0.24-0.26,0.24-0.44c0-1.69,2.73-37.72,4-54.32
					c0.38-5.01,0.63-8.26,0.63-8.26l48.04-3.75C1207.61,150.48,1215.61,146.17,1212.19,134.46z"/>
				<path class="st43" d="M1172.33,160.31c-0.51,12.36-4.38,64.87-4.38,64.87l3.75-0.22l5.93-49.49l-0.56-15.93L1172.33,160.31z"/>
				<path class="st43" d="M1182.18,158.71l-2.6,0.42l-2.52,0.41l0.56,15.93l2.44,68.88c0,0,6.17,0.88,6.17-0.22
					C1186.24,243.15,1182.89,173.43,1182.18,158.71z"/>
				<path class="st43" d="M1223.92,232.68h7.49l-27.59-76.13c-2.67,0.54-5.12,0.92-7.32,1.18L1223.92,232.68z"/>
				<path class="st43" d="M1223.26,122.27l-6.39-1.1c0,0,0,7.71-1.54,11.46c-1.54,3.75-1.54,3.75-1.54,3.75s-0.61-0.75-1.59-1.92
					c3.41,11.7-4.58,16.02-4.58,16.02l-48.04,3.75c0,0-0.25,3.25-0.63,8.26l13.38-2.17l4.74-0.77l2.52-0.41l2.6-0.42l3.17-0.52
					c0,0,4.28,0.34,11.15-0.47c2.19-0.26,4.65-0.64,7.32-1.18c0.52-0.11,1.05-0.21,1.58-0.33c11.9-2.64,14.1-7.27,19.83-14.54
					c1.96-2.49,2.73-10.31,2.9-19.53C1226.65,122.29,1225.03,122.34,1223.26,122.27z"/>
				<g>
					<path class="st43" d="M1243.31,90.32c-0.66-9.39-3.7-19.87-9.11-29.06c-0.05-0.08-0.09-0.16-0.14-0.25
						c-2.9-4.88-6.84-7.9-10.02-9.69c-0.67-0.38-1.31-0.7-1.9-0.98c0.04,1.06,0.11,2.28,0.23,3.61c0.44,4.85,1.32,6.39-1.54,8.59
						s-0.88,2.2-3.31,5.29c-2.42,3.09-4.85,0.22-8.59-0.44c-3.75-0.66-3.53-5.29-2.42-9.92c0.35-1.46,0.28-2.37-0.01-3
						c-1.83,0.17-4.26,0.34-6.52,0.36c-1.95,0.01-3.77-0.1-4.93-0.44c-3.75-1.1-3.75-3.97-3.75-3.97l0.28-0.52
						c-0.59-0.27-1.19-0.58-1.79-0.94c-3.71,0.58-8.62,1.49-11.71,2.78c-2.66,1.11-4.59,2.55-6.08,4.3
						c-1.47,1.73-2.51,3.76-3.39,6.06c-1.11,2.91-3.09,5.21-4.41,6.52l7.45,0.06c2.27,0.02,4.27,1.47,5,3.61l11.22,32.94
						c4.29,0.17,7.46,1.32,9.38,3.58c2.42,2.86,8.81,2.42,8.81,2.42l0.36,6.15l5.08,2.35c0.29,0.13,0.2,0.56-0.12,0.58
						c-2.97,0.1-10.16,0.38-13.94,0.53c-0.83,0.03-1.5,0.06-1.92,0.08l6.87,3l6.31,2.75c0.75,1.27,1.37,2.47,1.9,3.63
						c0.68,1.48,1.2,2.86,1.58,4.15c0.98,1.17,1.59,1.92,1.59,1.92s0,0,1.54-3.75c1.54-3.75,1.54-11.46,1.54-11.46l6.39,1.1
						c1.77,0.07,3.39,0.01,4.89-0.14c12.67-1.28,16.06-9.78,18.03-13.52C1248.38,104.42,1243.97,99.8,1243.31,90.32z M1231.7,104.25
						l-1.94,0.3l-9.23,1.81c0,0,3.89-10.03,3.89-13.92c0-3.89,0.9-4.79,0.9-4.79l2.13,6.92c0.97,2.43,2.18,5.25,2.97,6.28
						C1231.91,102.76,1231.7,104.25,1231.7,104.25z"/>
					<path class="st43" d="M1230.42,100.84c-0.79-1.02-2.01-3.85-2.97-6.28c0.18,3.13,0.35,6.63,0.48,10.27l1.84-0.28l1.94-0.3
						C1231.7,104.25,1231.91,102.76,1230.42,100.84z"/>
					<path class="st43" d="M1227.44,94.56l-2.13-6.92c0,0-0.9,0.9-0.9,4.79c0,3.89-3.89,13.92-3.89,13.92l9.23-1.81l-1.84,0.28
						C1227.79,101.19,1227.62,97.69,1227.44,94.56z"/>
				</g>
			</g>
			<path class="st43" d="M1191.58,49.91c0.34-0.05,8.43,0.54,10.91-2.23"/>
			<path class="st43" d="M1196.66,42.72c0,0-1.46,5.47-5.1,2.33"/>
			<path class="st43" d="M1192.14,40.9c0,0-3.21,1.41-4.01-0.73c-0.66-1.75,1.09-4.23,1.09-4.23"/>
			<circle class="st47" cx="1183.83" cy="32.88" r="0.8"/>
			<circle class="st47" cx="1195.2" cy="33.24" r="0.8"/>
			<line class="st43" x1="1189.32" y1="109.49" x2="1170.28" y2="109.96"/>
			<path class="st43" d="M1175.57,152.95c-0.88-1.06-10.19-8.76-15.5-19.38c-1.41-2.82-7.26-3.75-10.92-1.06
				c-6.84,5.02-12.48,17.31-12.48,17.31"/>
			<path class="st43" d="M1159.57,154.23c0,0-1.1-10.44-4.8-12.03"/>
			<line class="st43" x1="1235.3" y1="103.44" x2="1206.07" y2="111.26"/>
			<line class="st43" x1="1216.87" y1="121.17" x2="1211.4" y2="120.33"/>
			<path class="st43" d="M1225.32,87.65c0,0-4.11-8.52-3.76-10.64"/>
			<ellipse class="st43" cx="1157.95" cy="90.93" rx="6.7" ry="5.81"/>
		</g>
	</g>
	<g class="st15">
		<path class="st51" d="M1072.02,126.83l2.56-0.11l-0.19-4.54l-2.88,0.12c-0.23-0.85-0.53-1.67-0.9-2.45l2.45-1.44l-2.3-3.93
			l-2.68,1.57c-0.56-0.62-1.18-1.2-1.83-1.72l1.58-2.55l-3.87-2.4l-1.67,2.7c-0.65-0.25-1.32-0.45-2.01-0.62v-2.76h-4.55v2.43
			c-0.68,0.05-1.35,0.13-2,0.27l-1.03-2.22l-4.13,1.92l0.89,1.91c-0.87,0.49-1.69,1.06-2.44,1.71l-1.68-1.28l-2.76,3.63l1.45,1.1
			c-0.55,0.87-1.01,1.8-1.37,2.78l-1.84-0.3l-0.73,4.5l1.64,0.27c-0.02,0.28-0.04,0.55-0.04,0.84c0,0.8,0.08,1.56,0.2,2.32
			l-1.68,0.57l1.46,4.32l1.58-0.54c0.47,0.95,1.02,1.84,1.67,2.66l-1.27,1.34l3.31,3.13l1.26-1.33c0.83,0.58,1.72,1.08,2.66,1.48
			l-0.55,1.99l4.39,1.22l0.57-2.06c0.52,0.05,1.05,0.09,1.59,0.09c0.26,0,0.51-0.02,0.76-0.04l0.26,1.72l4.5-0.68l-0.3-1.95
			c0.97-0.35,1.88-0.8,2.74-1.33l1.16,1.56l3.65-2.72l-1.33-1.8c0.63-0.73,1.2-1.52,1.69-2.36l2.01,0.96l1.96-4.11l-2.32-1.1
			C1071.87,128.68,1071.98,127.77,1072.02,126.83z M1057.34,128.71c-1.47,0-2.65-1.19-2.65-2.65c0-1.46,1.19-2.65,2.65-2.65
			c1.46,0,2.65,1.19,2.65,2.65C1059.98,127.52,1058.8,128.71,1057.34,128.71z"/>
		<path class="st53" d="M1070.86,125.27l2.56-0.11l-0.19-4.54l-2.88,0.12c-0.23-0.85-0.53-1.67-0.9-2.45l2.45-1.44l-2.3-3.93
			l-2.68,1.57c-0.56-0.62-1.18-1.2-1.83-1.72l1.58-2.55l-3.87-2.4l-1.67,2.7c-0.65-0.25-1.32-0.45-2.01-0.62v-2.76h-4.55v2.43
			c-0.68,0.05-1.35,0.13-2,0.27l-1.03-2.22l-4.13,1.92l0.89,1.91c-0.87,0.49-1.69,1.06-2.44,1.71l-1.68-1.28l-2.76,3.63l1.45,1.1
			c-0.55,0.87-1.01,1.8-1.37,2.78l-1.84-0.3l-0.73,4.5l1.64,0.27c-0.02,0.28-0.04,0.55-0.04,0.84c0,0.8,0.08,1.56,0.2,2.32
			l-1.68,0.57l1.46,4.32l1.58-0.54c0.47,0.95,1.02,1.84,1.67,2.66l-1.27,1.34l3.31,3.13l1.26-1.33c0.83,0.58,1.72,1.08,2.66,1.48
			l-0.55,1.99l4.39,1.22l0.57-2.06c0.52,0.05,1.05,0.09,1.59,0.09c0.26,0,0.51-0.02,0.77-0.04l0.26,1.72l4.5-0.68l-0.3-1.95
			c0.97-0.35,1.88-0.8,2.74-1.33l1.16,1.56l3.65-2.72l-1.33-1.8c0.63-0.73,1.2-1.52,1.69-2.36l2.01,0.96l1.96-4.11l-2.32-1.1
			C1070.71,127.12,1070.82,126.21,1070.86,125.27z M1056.17,127.14c-1.47,0-2.65-1.19-2.65-2.65c0-1.46,1.19-2.65,2.65-2.65
			c1.46,0,2.65,1.19,2.65,2.65C1058.82,125.96,1057.63,127.14,1056.17,127.14z"/>
	</g>
	<g class="st15">
		<path class="st45" d="M1097.05,103.9l1.82-0.08l-0.13-3.22l-2.04,0.08c-0.17-0.6-0.38-1.19-0.64-1.74l1.74-1.02l-1.63-2.79
			l-1.9,1.11c-0.4-0.44-0.84-0.85-1.3-1.22l1.12-1.81l-2.75-1.7l-1.19,1.92c-0.46-0.18-0.94-0.32-1.43-0.44v-1.96h-3.23v1.72
			c-0.48,0.03-0.96,0.09-1.42,0.19l-0.73-1.58l-2.93,1.36l0.63,1.36c-0.62,0.35-1.2,0.75-1.73,1.21l-1.19-0.91l-1.95,2.58l1.03,0.78
			c-0.39,0.62-0.71,1.28-0.97,1.97l-1.31-0.21l-0.52,3.19l1.16,0.19c-0.01,0.2-0.03,0.39-0.03,0.59c0,0.56,0.06,1.11,0.14,1.64
			l-1.19,0.4l1.04,3.06l1.12-0.38c0.33,0.68,0.73,1.31,1.19,1.89l-0.9,0.95l2.35,2.22l0.9-0.95c0.59,0.41,1.22,0.76,1.89,1.05
			l-0.39,1.41l3.11,0.86l0.4-1.46c0.37,0.04,0.75,0.06,1.13,0.06c0.18,0,0.36-0.02,0.54-0.03l0.18,1.22l3.2-0.48l-0.21-1.38
			c0.69-0.25,1.33-0.57,1.94-0.95l0.83,1.11l2.59-1.93l-0.95-1.28c0.45-0.52,0.85-1.08,1.2-1.68l1.43,0.68l1.39-2.92l-1.64-0.78
			C1096.94,105.21,1097.02,104.56,1097.05,103.9z M1086.63,105.23c-1.04,0-1.88-0.84-1.88-1.88c0-1.04,0.84-1.88,1.88-1.88
			c1.04,0,1.88,0.84,1.88,1.88C1088.51,104.39,1087.67,105.23,1086.63,105.23z"/>
		<path class="st53" d="M1096.22,102.79l1.82-0.08l-0.13-3.22l-2.04,0.08c-0.17-0.6-0.38-1.19-0.64-1.74l1.74-1.02l-1.63-2.79
			l-1.9,1.11c-0.4-0.44-0.84-0.85-1.3-1.22l1.12-1.81l-2.75-1.7l-1.19,1.92c-0.46-0.18-0.94-0.32-1.43-0.44v-1.96h-3.23v1.72
			c-0.48,0.03-0.96,0.09-1.42,0.19l-0.73-1.58l-2.93,1.36l0.63,1.36c-0.62,0.35-1.2,0.75-1.73,1.21l-1.19-0.91l-1.95,2.58l1.03,0.78
			c-0.39,0.62-0.71,1.28-0.97,1.97l-1.31-0.21l-0.52,3.19l1.16,0.19c-0.01,0.2-0.03,0.39-0.03,0.59c0,0.56,0.06,1.11,0.14,1.64
			l-1.19,0.4l1.04,3.06l1.12-0.38c0.33,0.68,0.73,1.31,1.19,1.89l-0.9,0.95l2.35,2.22l0.9-0.95c0.59,0.41,1.22,0.76,1.89,1.05
			l-0.39,1.41l3.11,0.86l0.4-1.46c0.37,0.04,0.75,0.06,1.13,0.06c0.18,0,0.36-0.02,0.54-0.03l0.18,1.22l3.2-0.48l-0.21-1.38
			c0.69-0.25,1.33-0.57,1.94-0.95l0.83,1.11l2.59-1.93l-0.95-1.28c0.45-0.52,0.85-1.08,1.2-1.68l1.43,0.68l1.39-2.92l-1.64-0.78
			C1096.12,104.1,1096.2,103.46,1096.22,102.79z M1085.81,104.12c-1.04,0-1.88-0.84-1.88-1.88c0-1.04,0.84-1.88,1.88-1.88
			c1.04,0,1.88,0.84,1.88,1.88C1087.68,103.28,1086.84,104.12,1085.81,104.12z"/>
	</g>
	<g class="st15">
		<g>
			<path class="st47" d="M1138.66,33.05c0.01-0.04,0.03-0.08,0.03-0.12l0-0.01l-0.01,0c0.01-0.01,0.01-0.01,0.01-0.01
				c0-0.04-0.01-0.09-0.02-0.14c-0.01-0.01-0.01-0.02-0.02-0.03c-0.01-0.03-0.03-0.06-0.06-0.09c0-0.02-0.01-0.02-0.03-0.03
				c-0.03-0.03-0.06-0.06-0.09-0.08c-0.01,0-0.02-0.01-0.02-0.01l-0.01-0.01c-0.42-0.18-10.23-4.52-16.72-0.72
				c-2.66,1.56-4.2,3.5-4.55,5.74c-0.5,3.11,1.39,5.8,2.02,6.59c-0.04,0.06-0.08,0.13-0.13,0.21c-0.23,0.36-0.61,0.61-1.04,0.66
				c-0.23,0.03-0.45-0.02-0.66-0.11c-0.12,0.25-0.28,0.47-0.47,0.67c0.37,0.19,0.79,0.29,1.22,0.23c0.68-0.08,1.27-0.46,1.64-1.04
				c0.03-0.04,0.05-0.08,0.08-0.12c0.83,0.41,3.04,1.31,5.34,0.68c1.68-0.46,3.05-1.65,4.07-3.52c3.24-5.99,9.14-8.51,9.2-8.53
				c0.04-0.02,0.07-0.04,0.11-0.07c0.01-0.01,0.02-0.02,0.02-0.03c0.02-0.03,0.05-0.06,0.07-0.09
				C1138.65,33.08,1138.66,33.07,1138.66,33.05z M1119.67,43.42c-0.67-0.92-2.09-3.21-1.69-5.74c0.31-1.99,1.72-3.74,4.16-5.17
				c4.47-2.62,10.85-1.04,14.04,0.02C1127.96,33.11,1122.53,39.13,1119.67,43.42z M1128.54,41.42c-0.9,1.67-2.1,2.72-3.56,3.12
				c-1.96,0.54-3.9-0.21-4.69-0.6c2.78-4.21,8.17-10.24,16.32-10.65C1134.56,34.47,1130.91,37.04,1128.54,41.42z"/>
		</g>
	</g>
	<g class="st15">
		<text transform="matrix(1 0 0 1 266.5388 31.7919)" class="st47 st54 st55">&lt;/&gt;</text>
	</g>
	<g class="st15">
		<g>
			<path class="st45" d="M118.05,130.83c3.32,1.64,5.54,3.61,7.03,5.54c3.12-0.36,5.09-0.68,5.37-0.92
				c1.85-1.59,11.91,2.38,7.68-12.44c-2.96-10.37-8.64-27.72-11.79-37.22l-1.45,35.1L118.05,130.83z"/>
			<path class="st50" d="M108.23,165.35c0,0.95,0.2,10.25,0.46,22.36c10.21-1.27,24.91-4.76,25.47-13.63
				c0.42-6.6-5.04-11.93-10.61-15.52c-0.26,0.56-0.59,1.14-1.03,1.75C119.08,165.09,108.23,165.35,108.23,165.35z"/>
			<path class="st47" d="M70.91,43.08c0.26-0.79-1.32-13.76-1.32-13.76s6.09-1.32,9.53-2.12c3.44-0.79,2.12,2.12,6.62-0.53
				c4.5-2.65,6.62-1.59,7.68-0.26c0.43,0.53,1.02,2.44,1.57,4.76c0.1-0.04,0.18-0.08,0.22-0.13c0.81-0.81,0-4.72,0.65-6.02
				c0.65-1.3,0.98-1.63,0-3.9c-0.98-2.28-0.81-5.37-0.81-7.65c0-2.28-0.49-1.3-3.9-1.63c-3.42-0.33-2.28-1.63-4.56-2.6
				c-2.28-0.98-4.07,1.14-7.97,0.81c-3.9-0.33-4.23,0.65-7.65,1.63s-1.63,0.65-5.53,3.09s-2.28,4.07-4.23,5.21
				c-1.95,1.14-0.16,3.42,0.33,6.67s-1.79,5.21,1.3,8.13c1.84,1.74,3.62,4.52,4.83,6.69c0.19-0.08,0.39-0.16,0.61-0.24
				C68.26,41.23,70.64,43.88,70.91,43.08z"/>
			<path class="st50" d="M96.32,40.96c0.16-2.06-0.53-6.37-1.34-9.8c-0.54-2.31-1.14-4.22-1.57-4.76c-1.06-1.32-3.18-2.38-7.68,0.26
				c-4.5,2.65-3.18-0.26-6.62,0.53c-3.44,0.79-9.53,2.12-9.53,2.12s1.59,12.97,1.32,13.76c-0.26,0.79-2.65-1.85-2.65-1.85
				c-0.22,0.08-0.42,0.16-0.61,0.24c-6.47,2.81,3.26,9.55,3.26,9.55c1.8,1.2,1.9,7.1,1.65,11.97c-0.19,3.71-0.59,6.82-0.59,6.82
				c7.41,6.88,20.11-2.12,20.11-2.12l-0.59-6.54l-0.2-2.2C93.67,58.17,96.05,44.4,96.32,40.96z"/>
			<g>
				<path class="st56" d="M54.07,84.54l1.76,50.65l4.39-0.17c4.97-3.91,10.69-7.77,10.69-7.77c11.12-9.53,9-2.65,33.61,0
					c5.84,0.63,10.23,1.95,13.53,3.59l6.85-9.94l1.45-35.1l0.27-6.59c0.07-1.76-1.41-3.18-3.16-3.04l-1.12,0.09L56.78,81.5
					C55.21,81.62,54.01,82.96,54.07,84.54z"/>
				<path class="st45" d="M60.22,135.01l-4.39,0.17l-1.76-50.65c-0.05-1.58,1.14-2.91,2.71-3.04l65.55-5.24
					c-3.44-4.68-12.38-13.67-30.84-15.1l0.59,6.54c0,0-12.7,9-20.11,2.12c0,0,0.39-3.11,0.59-6.82l-1.91,0.2
					c0,0-13.06,7.12-20.11,12.7c-6.86,5.42-7.68,0.26-9,12.17c-1.32,11.91-6.35,43.93-1.59,47.64c2.96,2.3,6.64,4.1,9.44,5.12
					c1.71,0.62,3.09,0.97,3.79,0.97C53.91,140.26,56.9,137.62,60.22,135.01z"/>
				<path class="st47" d="M125.08,136.37c-1.49-1.93-3.71-3.9-7.03-5.54c-3.31-1.64-7.69-2.96-13.53-3.59
					c-24.61-2.65-22.5-9.53-33.61,0c0,0-5.72,3.85-10.69,7.77c-3.32,2.61-6.31,5.25-7.04,6.79c-1.18,2.46,1.03,10.85,2.76,16.57
					c-0.37,1.04-0.73,2.08-1.09,3.13c-0.08,0.24-0.17,0.49-0.25,0.74c-1.58,4.61-3.1,9.28-4.51,13.77
					c-5.1,16.21-8.81,30.11-8.81,30.11s2.52,0.46,5.89,1.39c3.85,1.06,8.81,2.74,12.41,5.08c0.44,0.29,0.86,0.58,1.26,0.89
					c0.63,0.49,1.2,0.99,1.68,1.53c1.12,1.24,3.15,0.92,3.91-0.57l1.14-2.21l9.97-19.33c0,0,2.23,12,5.16,25.41
					c0.77,3.53,1.59,7.15,2.42,10.68c3.16,13.35,6.61,25.35,8.83,25.58c4.27,0.45,12.92-3.29,15.44-4.44
					c0.45-0.2,0.71-0.33,0.71-0.33s-0.22-9.75-0.51-22.62c-0.05-2.05-0.09-4.17-0.14-6.35c-0.24-10.83-0.51-22.94-0.74-33.09
					c-0.27-12.11-0.46-21.41-0.46-22.36c0,0,10.85-0.26,14.29-5.03c0.44-0.61,0.77-1.19,1.03-1.75c1.74-3.82-0.26-6.59,1.35-9.36
					c1.85-3.18,3.18-4.5,3.18-4.5S128.36,140.63,125.08,136.37z"/>
			</g>
		</g>
		<path class="st43" d="M120.6,130.11c3.32,1.64,5.54,3.61,7.03,5.54c3.12-0.36,5.09-0.68,5.37-0.92
			c1.85-1.59,11.91,2.38,7.68-12.44c-2.96-10.37-8.64-27.72-11.79-37.22l-1.45,35.1L120.6,130.11z"/>
		<path class="st43" d="M56.51,161.72c-5.72,2.05-5.42,7.92-3.89,13.56c1.41-4.5,2.94-9.17,4.51-13.77
			C56.92,161.58,56.71,161.65,56.51,161.72z"/>
		<path class="st43" d="M110.77,164.63c0,0.95,0.2,10.25,0.46,22.36c10.21-1.27,24.91-4.76,25.47-13.63
			c0.42-6.6-5.04-11.93-10.61-15.52c-0.26,0.56-0.59,1.14-1.03,1.75C121.62,164.37,110.77,164.63,110.77,164.63z"/>
		<path class="st43" d="M73.45,42.36c0.26-0.79-1.32-13.76-1.32-13.76s6.09-1.32,9.53-2.12c3.44-0.79,2.12,2.12,6.62-0.53
			c4.5-2.65,6.62-1.59,7.68-0.26c0.43,0.53,1.02,2.44,1.57,4.76c0.1-0.04,0.18-0.08,0.22-0.13c0.81-0.81,0-4.72,0.65-6.02
			c0.65-1.3,0.98-1.63,0-3.9c-0.98-2.28-0.81-5.37-0.81-7.65c0-2.28-0.49-1.3-3.9-1.63c-3.42-0.33-2.28-1.63-4.56-2.6
			c-2.28-0.98-4.07,1.14-7.97,0.81c-3.9-0.33-4.23,0.65-7.65,1.63s-1.63,0.65-5.53,3.09c-3.9,2.44-2.28,4.07-4.23,5.21
			c-1.95,1.14-0.16,3.42,0.33,6.67c0.49,3.25-1.79,5.21,1.3,8.13c1.84,1.74,3.62,4.52,4.83,6.69c0.19-0.08,0.39-0.16,0.61-0.24
			C70.81,40.51,73.19,43.16,73.45,42.36z"/>
		<path class="st43" d="M98.86,40.24c0.16-2.06-0.53-6.37-1.34-9.8c-0.54-2.31-1.14-4.22-1.57-4.76c-1.06-1.32-3.18-2.38-7.68,0.26
			c-4.5,2.65-3.18-0.26-6.62,0.53c-3.44,0.79-9.53,2.12-9.53,2.12s1.59,12.97,1.32,13.76c-0.26,0.79-2.65-1.85-2.65-1.85
			c-0.22,0.08-0.42,0.16-0.61,0.24c-6.47,2.81,3.26,9.55,3.26,9.55c1.8,1.2,1.9,7.1,1.65,11.97c-0.19,3.71-0.59,6.82-0.59,6.82
			c7.41,6.88,20.11-2.12,20.11-2.12l-0.59-6.54l-0.2-2.2C96.21,57.45,98.6,43.68,98.86,40.24z"/>
		<g>
			<path class="st43" d="M56.61,83.82l1.76,50.65l4.39-0.17c4.97-3.91,10.69-7.77,10.69-7.77c11.12-9.53,9-2.65,33.61,0
				c5.84,0.63,10.23,1.95,13.53,3.59l6.85-9.94l1.45-35.1l0.27-6.59c0.07-1.76-1.41-3.18-3.16-3.04l-1.12,0.09l-65.55,5.24
				C57.75,80.9,56.56,82.24,56.61,83.82z"/>
			<path class="st43" d="M62.76,134.29l-4.39,0.17l-1.76-50.65c-0.05-1.58,1.14-2.91,2.71-3.04l65.55-5.24
				c-3.44-4.68-12.38-13.67-30.84-15.1l0.59,6.54c0,0-12.7,9-20.11,2.12c0,0,0.39-3.11,0.59-6.82l-1.91,0.2
				c0,0-14.49,5.25-21.39,11.02c-3.38,2.83-6.4,1.94-7.72,13.85c-1.32,11.91-6.35,43.93-1.59,47.64c2.96,2.3,6.64,4.1,9.44,5.12
				c1.71,0.62,3.09,0.97,3.79,0.97C56.46,139.54,59.44,136.9,62.76,134.29z"/>
			<path class="st43" d="M127.63,135.65c-1.49-1.93-3.71-3.9-7.03-5.54c-3.31-1.64-7.69-2.96-13.53-3.59
				c-24.61-2.65-22.5-9.53-33.61,0c0,0-5.72,3.85-10.69,7.77c-3.32,2.61-6.31,5.25-7.04,6.79c-1.18,2.46,1.03,10.85,2.76,16.57
				c-0.37,1.04-0.73,2.08-1.09,3.13c-0.08,0.24-0.17,0.49-0.25,0.74c-1.58,4.61-3.1,9.28-4.51,13.77
				c-5.1,16.21-8.81,30.11-8.81,30.11s2.52,0.46,5.89,1.39c3.85,1.06,8.81,2.74,12.41,5.08c0.44,0.29,0.86,0.58,1.26,0.89
				c0.63,0.49,1.2,0.99,1.68,1.53c1.12,1.24,3.15,0.92,3.91-0.57l1.14-2.21l9.97-19.33c0,0,2.23,12,5.16,25.41
				c0.77,3.53,1.59,7.15,2.42,10.68c3.16,13.35,6.61,25.35,8.83,25.58c4.27,0.45,12.92-3.29,15.44-4.44
				c0.45-0.2,0.71-0.33,0.71-0.33s-0.22-9.75-0.51-22.62c-0.05-2.05-0.09-4.17-0.14-6.35c-0.24-10.83-0.51-22.94-0.74-33.09
				c-0.27-12.11-0.46-21.41-0.46-22.36c0,0,10.85-0.26,14.29-5.03c0.44-0.61,0.77-1.19,1.03-1.75c1.74-3.82-0.26-6.59,1.35-9.36
				c1.85-3.18,3.18-4.5,3.18-4.5S130.9,139.91,127.63,135.65z"/>
		</g>
		<line class="st43" x1="73.45" y1="126.52" x2="58.48" y2="157.65"/>
		<path class="st43" d="M127.44,120.17c-1.55,0.52-39.27,2.81-39.27,2.81"/>
		<line class="st43" x1="75.37" y1="124.81" x2="58" y2="126.64"/>
		<path class="st43" d="M56.86,121.15c-2.29-1.6-5.26-5.26-9.6-2.51"/>
		<path class="st43" d="M110.77,164.63c0,0-8.19-15.59-15.05-15.14c-6.86,0.46-15.65,42.66-15.65,42.66"/>
		<path class="st43" d="M93.83,58.24c0,0-7.94,6.67-11.83-1.11"/>
		<path class="st43" d="M92.06,51.65c0,0-2.51,2.74-6.86-0.69"/>
		<path class="st43" d="M91.61,40.9c0,0,6.14,7.07-3.66,5.26"/>
		<path class="st43" d="M89.07,37.33l-0.26,3.09c-0.05,0.56-0.43,1.05-0.97,1.22l-4.37,1.42c-0.71,0.23-1.47-0.13-1.74-0.83
			l-1.6-4.08c-0.35-0.89,0.27-1.85,1.21-1.92l6.24-0.43C88.43,35.74,89.14,36.47,89.07,37.33z"/>
		<path class="st43" d="M92.77,36.71l0.71,3.02c0.13,0.55,0.58,0.97,1.14,1.06l4.54,0.76c0.73,0.12,1.44-0.35,1.6-1.07l0.98-4.27
			c0.21-0.93-0.54-1.79-1.48-1.72l-6.23,0.49C93.16,35.05,92.57,35.87,92.77,36.71z"/>
		<path class="st43" d="M92.95,37.8c0,0-2.88-0.86-3.93,1.06"/>
		<line class="st43" x1="80.47" y1="39.24" x2="70.81" y2="40.51"/>
		<circle class="st47" cx="84.9" cy="39.47" r="0.91"/>
		<circle class="st47" cx="95.6" cy="38.39" r="0.91"/>
	</g>
	<g class="st15">
		<g>
			<path class="st50" d="M29.04,41.5c-0.6-0.01-1.16-0.26-1.58-0.7l-7.03-7.36c-0.86-0.9-0.83-2.33,0.07-3.19
				c0.9-0.86,2.33-0.83,3.19,0.07l5.26,5.51l8.56-10.55c0.78-0.97,2.2-1.12,3.17-0.33c0.97,0.78,1.12,2.2,0.33,3.17L30.85,40.67
				c-0.41,0.5-1.01,0.81-1.66,0.83C29.14,41.51,29.09,41.51,29.04,41.5z"/>
		</g>
		<g>
			<path class="st43" d="M28.73,40.75c-0.6-0.01-1.16-0.26-1.58-0.7l-7.03-7.36c-0.86-0.9-0.83-2.33,0.07-3.19
				c0.9-0.86,2.33-0.83,3.19,0.07l5.26,5.51l8.56-10.55c0.78-0.97,2.2-1.12,3.17-0.33c0.97,0.78,1.12,2.2,0.33,3.17L30.54,39.92
				c-0.41,0.5-1.01,0.81-1.66,0.83C28.83,40.75,28.78,40.75,28.73,40.75z"/>
		</g>
	</g>
</g>
</svg>
