<?xml version="1.0" encoding="utf-8"?>
<!-- Generator: Adobe Illustrator 24.0.3, SVG Export Plug-In . SVG Version: 6.00 Build 0)  -->
<svg version="1.1" xmlns="http://www.w3.org/2000/svg" xmlns:xlink="http://www.w3.org/1999/xlink" x="0px" y="0px"
	 viewBox="0 0 357.17 247.01" style="enable-background:new 0 0 357.17 247.01;" xml:space="preserve">
<style type="text/css">
	.st0{fill:#F5C65D;}
	.st1{fill:#F4F4F5;}
	.st2{fill:#DCEFFA;}
	.st3{fill:#FFFFFF;}
	.st4{fill:none;}
	.st5{fill:#EEAB89;}
	.st6{fill:#F2BEA6;}
	.st7{fill:#54575C;}
	.st8{fill:none;stroke:#54575C;stroke-width:0.5;stroke-miterlimit:10;}
	.st9{fill:#4890BA;}
	.st10{fill:#E0635D;}
	.st11{fill:#235485;}
	.st12{fill:#999B9E;}
	.st13{fill:#9A5738;}
	.st14{fill:#E5866C;}
	.st15{fill:#F5CFBB;}
	.st16{fill:none;stroke:#54575C;stroke-width:0.5;stroke-linejoin:round;stroke-miterlimit:10;}
	.st17{fill:#E38F46;}
	.st18{fill:#61A575;}
	.st19{fill:#E4845C;}
	.st20{fill:#BB5721;}
	.st21{fill:#FEB996;}
	.st22{fill-rule:evenodd;clip-rule:evenodd;fill:#FFFFFF;}
	.st23{fill:#C27D3B;}
	.st24{fill:#EFA771;}
	.st25{fill:#9B461C;}
	.st26{fill:#EFA750;}
	.st27{fill:none;stroke:#F4F4F5;stroke-width:0.5;stroke-linejoin:round;stroke-miterlimit:10;}
	.st28{fill:#BA763B;}
	.st29{fill:#9B251C;}
</style>
<g id="Layer_1">
</g>
<g id="Layer_2">
</g>
<g id="Layer_3">
	<g>
		<path class="st3" d="M339.39,181.47V22.29c0-3.47-2.69-6.28-6.01-6.28H30.47c-3.32,0-6.01,2.81-6.01,6.28v190.1
			c0,3.47,2.69,6.28,6.01,6.28h11.44l85.16-35.8L339.39,181.47z"/>
		<g>
			<path class="st8" d="M38.91,218.51h-8.45c-3.31,0-5.99-2.81-5.99-6.28V22.12c0-3.47,2.68-6.28,5.99-6.28h303.19
				c3.31,0,5.99,2.81,5.99,6.28V181.3"/>
			<line class="st8" x1="24.95" y1="26.61" x2="339.64" y2="26.61"/>
			<ellipse class="st8" cx="36.48" cy="21.4" rx="2.15" ry="2.26"/>
			<ellipse class="st8" cx="44.65" cy="21.4" rx="2.15" ry="2.26"/>
			<ellipse class="st8" cx="52.81" cy="21.4" rx="2.15" ry="2.26"/>
			<line class="st8" x1="39.96" y1="59.98" x2="257.28" y2="59.98"/>
			<line class="st8" x1="38.33" y1="84.46" x2="89.35" y2="84.46"/>
			<line class="st8" x1="38.33" y1="97.96" x2="89.35" y2="97.96"/>
			<line class="st8" x1="38.33" y1="111.47" x2="89.35" y2="111.47"/>
			<line class="st8" x1="38.33" y1="124.97" x2="89.35" y2="124.97"/>
			<line class="st8" x1="38.33" y1="138.47" x2="89.35" y2="138.47"/>
			<line class="st8" x1="82.58" y1="84.46" x2="192.42" y2="84.46"/>
			<line class="st8" x1="82.58" y1="97.96" x2="192.42" y2="97.96"/>
			<line class="st8" x1="82.58" y1="111.47" x2="192.42" y2="111.47"/>
			<line class="st8" x1="82.58" y1="124.97" x2="192.42" y2="124.97"/>
			<line class="st8" x1="82.58" y1="138.47" x2="192.42" y2="138.47"/>
			<line class="st8" x1="39.96" y1="40.23" x2="270.82" y2="40.23"/>
		</g>
		<g>
			<polygon class="st8" points="313.71,59.08 292.59,59.08 288.86,42.3 316.69,42.3 			"/>
			<path class="st8" d="M312.73,63.63v-2.01c0-1.26-1.27-2.55-2.84-2.55H296.3c-1.57,0-2.84,1.28-2.84,2.55v2.01"/>
			<circle class="st7" cx="312.94" cy="63.23" r="1.78"/>
			<circle class="st7" cx="320.5" cy="38.1" r="0.89"/>
			<circle class="st7" cx="293.57" cy="62.99" r="1.78"/>
			<polyline class="st8" points="316.69,42.3 317.83,37.85 321.12,37.85 			"/>
			<line class="st8" x1="289.95" y1="47.28" x2="315.82" y2="47.28"/>
			<line class="st8" x1="291.37" y1="53.51" x2="314.66" y2="53.51"/>
			<line class="st8" x1="310.55" y1="42.56" x2="307.16" y2="59.08"/>
			<line class="st8" x1="295.47" y1="42.2" x2="298.23" y2="59.08"/>
		</g>
		<g>
			<path class="st3" d="M210.24,183.74l-0.04,0.05h21.05c-7.58-2.2-16.43-5.16-18.08-6.37L210.24,183.74z"/>
			<path class="st3" d="M121.28,192.47l0.3,0.02c-0.1-0.06-0.2-0.12-0.29-0.18C121.29,192.37,121.29,192.42,121.28,192.47z"/>
			<path class="st3" d="M264.45,165.78c-5.3,7.7-11.99,14.46-16.85,18.02h23.6l2.08-18.52
				C273.28,165.27,272.27,154.43,264.45,165.78z"/>
			<path class="st3" d="M217.54,161.49l7.31,2.52c5.1,2.67,8.5,3.52,11.28,3.44c-0.21-0.41-0.33-0.65-0.33-0.65l-18.22-15.34
				l-0.53,10.19c0.2,0.1,0.37,0.2,0.51,0.28C217.56,161.65,217.54,161.49,217.54,161.49z"/>
			<path class="st3" d="M213.43,176.88c0.03,0,0.04-0.01,0.08-0.01c1.66-0.08,2.67-1.61,3.28-3.69c-0.6,0.47-1.4,0.91-2.25,1.3
				L213.43,176.88z"/>
			<path class="st3" d="M125.62,194.15l-0.03,0.44c0.15-0.09,0.29-0.18,0.45-0.28C125.9,194.25,125.76,194.2,125.62,194.15z"/>
			<path class="st3" d="M331.78,183.8h3.53l-3.3-17.89C332.37,171.38,332.08,178.66,331.78,183.8z"/>
			<path class="st3" d="M79.77,130.95l4.34,3.43c5.24,0,7.59-7.41,7.59-7.41s7.41,0.9,12.46,0.9c2.07,0,3.17-3.23,3.75-7.05
				c0.84-5.52,0.59-12.28,0.59-12.28s1.82-0.21,2.89-1.26c1.31-1.3,0-4.7-2.89-7.23s-1.99-11.56-3.07-16.44
				c-0.79-3.57-5.16-7.23-7.45-8.94c-0.39,0.18-0.68,0.27-0.68,0.27c-0.54,0.54-6.86,2.17-10.3,4.52
				c-3.43,2.35,0.54,8.85-1.08,10.84c-1.63,1.99-6.68,2.53-7.23,3.97c-0.54,1.45,0.18,7.77-1.81,8.67c0,0-3.97-6.14-7.77-5.24
				c-3.79,0.9-6.68,3.07-6.32,6.68c0.36,3.61,1.08,7.77-1.45,7.05c-0.11-0.03-0.23-0.11-0.35-0.2c0.06,0.98,0.12,1.86,0.17,2.56
				C61.53,118.52,79.77,130.95,79.77,130.95z"/>
			<path class="st3" d="M62.78,104.4c-0.36-3.61,2.53-5.78,6.32-6.68c3.79-0.9,7.77,5.24,7.77,5.24c1.99-0.9,1.26-7.23,1.81-8.67
				c0.54-1.45,5.6-1.99,7.23-3.97c1.63-1.99-2.35-8.49,1.08-10.84c3.43-2.35,9.75-3.97,10.3-4.52c0,0,0.29-0.09,0.68-0.27
				c2.22-1.01,7.7-4.8-18.74-10.03C60.94,61.04,52.2,75.05,52.49,82.72c0.35,9.33,5.82,26.43,8.5,28.52
				c0.12,0.09,0.24,0.17,0.35,0.2C63.87,112.16,63.15,108.01,62.78,104.4z"/>
			<path class="st3" d="M118.37,174.01c-0.7,7.02-1.97,12.44-2.78,15.42c0.58,1.18,1.34,2.08,2.12,2.77l3.57,0.27
				c0.01-0.05,0.01-0.1,0.02-0.16c0.28-2.73,0.96-7.79,2.37-10.6c0.71-1.43,2.76-1.94,5.08-2.02c-1.13-1.91-1.86-3.4-1.63-3.71
				c0.28-0.38,1.84,1.38,3.68,3.74c1.78,0.1,3.54,0.37,4.87,0.61c1.36,0.25,2.26,0.48,2.26,0.48c0.36-2.71-3.07-4.15-7.41-7.77
				c-2.74-2.28-6.76-15.92-9.37-25.68C121.61,157.39,119.09,166.78,118.37,174.01z"/>
			<path class="st3" d="M132.74,190.95c0.93-0.35,1.88-0.66,2.82-0.89c-0.18-0.26-0.74-1.06-1.49-2.16
				c-2.41,2.05-5.1,3.74-6.28,2.51c-1.26-1.31,1.15-4.14,3.62-6.48c-0.95-1.45-1.89-2.94-2.66-4.24c-2.32,0.08-4.37,0.59-5.08,2.02
				c-1.41,2.81-2.09,7.88-2.37,10.6c0.09,0.06,0.19,0.12,0.29,0.18c1.12,0.65,2.67,1.16,4.03,1.65c0.14,0.05,0.28,0.1,0.42,0.15
				C127.79,193.23,130.2,191.92,132.74,190.95z"/>
			<path class="st3" d="M132.93,182.56c1.51-1.3,2.74-2.23,2.74-2.23c-1.33-0.25-3.1-0.51-4.87-0.61
				C131.49,180.61,132.21,181.58,132.93,182.56z"/>
			<path class="st3" d="M135.69,186.44c1.16,1.68,1.97,2.94,2.02,3.13l-0.7,0.2c1.01-0.16,2-0.21,2.92-0.11
				c1.08,0.12,2.2,0.28,3.33,0.47c-0.53-2.15-2.55-4.72-4.56-6.85C138.54,183.51,137.3,184.91,135.69,186.44z"/>
			<path class="st3" d="M198.26,126.91l-4.73-0.73v-3.46c0,0,5.83,1.09,7.28-1.27c1.46-2.37,1.82-2.37,1.82-6.19
				c0-3.82,3.46-8.37,3.09-10.56c-0.36-2.18-4.19-18.02-7.83-19.84c-3.64-1.82-12.56-1.46-12.56-1.46s-6.37,15.29-5.64,22.03
				c0.73,6.74,1.64,12.01,1.27,15.47c-0.36,3.46,2.55,5.83,1.27,8.92c-1.11,2.69-4.42,0.02-6.46,1.19c0.12,0.2,0.24,0.41,0.37,0.61
				c2.66,4.29,6.79,8.64,12.54,8.36c9.71-0.47,13.71-1.76,13.67-11.27C197.47,130.14,198.26,126.91,198.26,126.91z"/>
			<path class="st3" d="M161.49,128.55c3.46-2.37,6.01-3.82,6.01-3.82s-3.64,4.19-1.27,9.28c2.37,5.1,4.19,10.01,4.19,13.47
				c0,3.46,1.46-2.91,1.64-4.92c0.18-2,0.73-9.83,2.91-10.74c0.24-0.38,0.52-0.64,0.82-0.81c2.04-1.17,5.35,1.5,6.46-1.19
				c1.27-3.09-1.64-5.46-1.27-8.92c0.36-3.46-0.55-8.74-1.27-15.47c-0.73-6.74,5.64-22.03,5.64-22.03s8.92-0.36,12.56,1.46
				c3.64,1.82,7.46,17.66,7.83,19.84c0.36,2.18-3.09,6.74-3.09,10.56c0,3.82-0.36,3.82-1.82,6.19c-1.46,2.37-7.28,1.27-7.28,1.27
				v3.46l4.73,0.73c0,0-0.79,3.23,4.1,1.8c0.79-0.23,1.71-0.57,2.82-1.07c8.01-3.64,0-2.91,3.09-4.19c0.82-0.34,1.76-0.93,2.65-1.71
				c2.49-2.18,4.59-5.87,2.45-9.75c-2.91-5.28-6.74-2.18-4.92-8.74c1.82-6.55-4.92-9.1-5.46-13.11c-0.55-4,2.73-6.01-4.19-10.01
				c-6.92-4-15.29-10.56-21.3-2.73c0,0-7.65,0-8.19,7.83s-0.18,12.01-2.55,14.02c-2.37,2-7.83,6.37-7.46,13.29
				c0.36,6.92-4.38,10.85-6.55,12.38c-2.18,1.52-3.64,1.64-3.64,1.64s0.26,0.13,0.69,0.32
				C151.94,127.82,158.61,130.53,161.49,128.55z"/>
			<path class="st3" d="M332.01,165.91c-0.19-2.97-0.57-5.41-1.23-6.69L332.01,165.91z"/>
			<path class="st3" d="M213.18,177.43l0.25-0.54l1.11-2.39c-2.45,1.15-5.35,1.93-5.35,1.93s-0.09,0.85-0.57,1.6
				c-0.05,0.08-0.12,0.14-0.19,0.19l0.15,5.59h1.62l0.04-0.05L213.18,177.43z"/>
			<path class="st3" d="M206.36,183.02c-0.19,0.33-0.41,0.58-0.63,0.78h1.31l-0.59-4.95L206.36,183.02z"/>
			<path class="st3" d="M244.28,165.02c-2.87,1.18-5.15,2.34-8.14,2.43c-2.78,0.08-6.18-0.77-11.28-3.44l-7.31-2.52
				c0,0,0.01,0.16,0.03,0.43c0.25,0.16,0.38,0.27,0.38,0.27c1.98,1.51,1.32,8.67-0.75,10.65c-0.12,0.12-0.26,0.23-0.41,0.35
				c-0.61,2.07-1.63,3.61-3.28,3.69c-0.03,0-0.05,0.01-0.08,0.01l-0.25,0.54c1.64,1.21,10.5,4.17,18.08,6.37
				c5.18,1.51,9.76,2.66,11,2.66c1.14,0,3.03-0.97,5.34-2.66c4.86-3.56,11.55-10.32,16.85-18.02c7.82-11.35,8.83-0.5,8.83-0.5
				l-2.08,18.52h60.58c0.3-5.14,0.59-12.41,0.23-17.89l-1.23-6.69c0.67,1.27,1.04,3.71,1.23,6.69l3.3,17.89h21.11
				c-2.89-13.68-11.19-47.9-23.58-56.69c-0.08,0.41-0.2,0.78-0.36,1.04c-1.53,2.42-8.54,4.46-13.65,1.15
				c-5.1-3.32-3.7-2.81-3.19,2.68c0.51,5.48-5.36,9.44-11.22,10.46c0,0-1.28,13.14-10.08,14.54c-8.13,1.3-12.67-16.46-13.31-19.16
				c-1.64-0.69-3.04-1.98-3.4-3.29c-0.77-2.81-1.79-2.04-1.79-2.04c-2.17,2.68-3.06,2.3-3.06,2.3c-6.37-1.25-3.2-7.27-1.99-11.11
				c-3.75,1.3-8.11,3.72-10.14,8.32c-2.55,5.78-6.59,17.73-10.65,25.61C248.06,161.41,246.09,164.28,244.28,165.02z"/>
			<path class="st3" d="M162.17,176.44l-2.11-10.28c0,0-3.2,4.79-1.6,8.63c0.15,0.36,0.32,0.69,0.51,1.01
				C159.77,175.73,160.99,176,162.17,176.44z"/>
			<path class="st3" d="M145.56,190.54c4.91,0.93,9.62,2.16,11.7,2.55c0.14,0.03,0.26,0.07,0.38,0.11c0.33,0.12,0.58,0.3,0.75,0.52
				c0.2,0.25,0.32,0.55,0.38,0.87c0.22,0.09,0.38,0.05,0.43-0.25c0.05-0.03,0.08-0.07,0.12-0.1c1.11-0.95,0.03-2.93,0.15-4.51
				c0.17-2.23,1.32-4.05,1.09-4.71c-0.01-0.04,2.39-3.08,3.22-4.13c-2.88-1.79-5.69-3.69-5.73-4.34c-0.03-0.47,0.33-0.7,0.91-0.76
				c-0.19-0.32-0.36-0.66-0.51-1.01c-1.6-3.84,1.6-8.63,1.6-8.63l2.11,10.28c0.36,0.14,0.72,0.29,1.06,0.45
				c0.31,0.15,0.65,0.35,1.02,0.59c2.35-0.53,6.45,0.08,8.37,0.54c1.61,0.38,1.96,3.71,2.03,5.77h28.63
				c-1.84-0.88-4.88-2.46-5.21-3.51c-0.47-1.51,1.98-2.54,1.51-4.05c-0.47-1.51,0.75-1.98,0.75-1.98s-1.04-2.54-1.04-5.94
				c0-3.39,2.59-2.92,2.59-2.92s-0.52-1.98,0.99-2.73c1.51-0.75,6.03-1.7,9.61-1.89c2.16-0.11,3.69,0.42,4.58,0.87l0.53-10.19
				l18.22,15.34c0,0,0.12,0.24,0.33,0.65c2.99-0.09,5.26-1.25,8.14-2.43c1.81-0.74,3.78-3.61,5.75-7.42l-16.17-15.45
				c0,0-14.09-16.98-20.59-19.69c-0.81-0.34-1.59-0.57-2.34-0.72c-0.89,0.78-1.83,1.38-2.65,1.71c-3.09,1.27,4.92,0.55-3.09,4.19
				c-1.11,0.51-2.03,0.84-2.82,1.07c0.05,9.51-3.96,10.8-13.67,11.27c-5.75,0.28-9.88-4.07-12.54-8.36
				c-0.13-0.2-0.25-0.41-0.37-0.61c-0.31,0.18-0.58,0.43-0.82,0.81c-2.18,0.91-2.73,8.74-2.91,10.74c-0.18,2-1.64,8.37-1.64,4.92
				c0-3.46-1.82-8.37-4.19-13.47c-2.37-5.1,1.27-9.28,1.27-9.28s-2.55,1.46-6.01,3.82c-2.89,1.97-9.56-0.73-11.69-1.69
				c-3.75,2.28-2.54,5.13-3.56,7.34c-0.93,2.01-6.08,38.11-7.55,49.08c2.01,2.13,4.03,4.7,4.56,6.85
				C144.02,190.26,144.79,190.39,145.56,190.54z"/>
			<path class="st3" d="M24.66,144.86c0,10.35,17.43,52.58,17.71,57.75c0.22,4.15,0.79,10.92,6.62,13.86
				c1.44,0.73,3.2,1.23,5.37,1.39c0.85,0.06,1.99,0.11,3.37,0.14c15.01,0.36,58.44-0.99,65.21-1.2c0.51-0.02,0.92-0.41,0.96-0.92
				l0.12-1.54c-0.23-0.2-0.47-0.42-0.71-0.66c-2.94-2.94,1.91-11.12,2.39-13.38c0.05-0.24,0.08-0.37,0.08-0.37
				c0.15-0.15-1.47-4.54-0.19-5.35l0.03-0.44c-1.37-0.49-2.92-1-4.03-1.65l-0.3-0.02l-3.57-0.27l-2.88-0.22c0,0,0.31-0.91,0.76-2.56
				c0.81-2.98,2.08-8.4,2.78-15.42c0.72-7.23,3.24-16.61,2.79-26.65c-0.23-5.09-1.22-10.35-3.61-15.58
				c-4.55-9.98-7.87-11.29-9.65-10.96c-0.58,3.82-1.68,7.05-3.75,7.05c-5.06,0-12.46-0.9-12.46-0.9s-2.35,7.41-7.59,7.41l-4.34-3.43
				c0,0-18.23-12.44-18.6-17.15c0,0-18.78,10.65-29.4,20.49C27.58,138.18,24.66,141.93,24.66,144.86z"/>
			<path class="st3" d="M299.96,132.99c0.6-5.86,2.65-8.63,2.51-11.55c-0.04-0.83-0.25-1.67-0.73-2.6
				c-2.17-4.21-5.48-1.53-4.46-4.08c1.02-2.55,5.1-3.95,1.91-10.46c-3.19-6.5-4.08-3.95-4.59-5.99c-0.51-2.04,7.01-7.01-0.38-11.1
				c-7.4-4.08-12.88-8.29-17.85-5.48c0,0-6.25,12.75-5.36,19.9c0.71,5.67,3.22,13.81,4.36,18.39c0.21,0.85,0.62,1.62,1.17,2.27
				c0.73,0.87,1.71,1.52,2.85,1.81c1.71,0.44,4.08,0.79,7.11,0.72c0.12,0.64,0.27,1.46,0.43,2.37c0.53,3.21,1,7.61-0.48,9.63
				c-1.3,1.78-3.51,1.79-5.4,0.99c0.64,2.7,5.18,20.46,13.31,19.16c8.8-1.4,10.08-14.54,10.08-14.54S299.19,140.52,299.96,132.99z"
				/>
			<path class="st3" d="M272.79,134.78c0,0,0.89,0.38,3.06-2.3c0,0,1.02-0.77,1.79,2.04c0.36,1.3,1.76,2.6,3.4,3.29
				c1.89,0.8,4.1,0.79,5.4-0.99c1.48-2.02,1.01-6.43,0.48-9.63c-0.15-0.91-0.31-1.73-0.43-2.37c-3.03,0.07-5.4-0.29-7.11-0.72
				c-1.14-0.29-2.12-0.94-2.85-1.81c-0.54-0.65-0.95-1.42-1.17-2.27c-1.13-4.58-3.65-12.72-4.36-18.39
				c-0.89-7.14,5.36-19.9,5.36-19.9c4.97-2.81,10.46,1.4,17.85,5.48c7.4,4.08-0.13,9.05,0.38,11.1c0.51,2.04,1.4-0.51,4.59,5.99
				c3.19,6.5-0.89,7.91-1.91,10.46c-1.02,2.55,2.3-0.13,4.46,4.08c0.48,0.93,0.69,1.77,0.73,2.6c0.14,2.93-1.92,5.69-2.51,11.55
				c-0.77,7.52,4.46,9.44,4.46,9.44c5.87-1.02,11.73-4.97,11.22-10.46c-0.51-5.48-1.91-5.99,3.19-2.68
				c5.1,3.32,12.12,1.28,13.65-1.15c0.17-0.27,0.28-0.63,0.36-1.04c0.67-3.35-1.16-10.96-0.36-14.13c0.89-3.57-6.63-5.61-9.05-10.08
				c-2.42-4.46-1.15-20.41-10.84-24.49s-5.87-7.65-16.07-3.83c-0.87,0.33-7.65-3.83-17.73,0.13s-11.61,10.71-11.1,14.28
				c0.51,3.57,2.55,18.75,0.64,20.79s-4.72,3.44-2.42,7.27c2.3,3.83,6.12,2.55,4.97,6.38c-0.02,0.08-0.05,0.16-0.07,0.24
				C269.6,127.51,266.42,133.53,272.79,134.78z"/>
			<path class="st3" d="M169.74,181.98c0,0-3.17-2.99-5.49-4.5c-0.36-0.24-0.71-0.44-1.02-0.59c-0.34-0.16-0.7-0.31-1.06-0.45
				c-1.18-0.45-2.4-0.71-3.2-0.64c-0.58,0.05-0.94,0.28-0.91,0.76c0.04,0.65,2.85,2.55,5.73,4.34c3.06,1.9,6.2,3.67,6.2,3.67
				L169.74,181.98z"/>
			<path class="st3" d="M178.57,195.19c0,0-1.35-0.79-2.02-0.34c0,0,0.82-1.22,0.84-2.4c0.01-0.45-0.1-0.89-0.42-1.26
				c-0.11-0.14-0.25-0.26-0.43-0.38c0,0,0.79-0.71,1.48-1.65c0.77-1.06,1.41-2.41,0.65-3.4c-1.12-1.46-4.04-0.34-4.04-0.34
				s0.03-0.68,0-1.63c-0.06-2.06-0.41-5.39-2.03-5.77c-1.92-0.46-6.02-1.06-8.37-0.54c2.32,1.51,5.49,4.5,5.49,4.5l0.25,2.59
				c0,0-3.14-1.77-6.2-3.67c-0.83,1.04-3.23,4.08-3.22,4.13c0.23,0.65-0.91,2.48-1.09,4.71c-0.12,1.59,0.96,3.57-0.15,4.51
				l3.52,1.96c0,0,3.03,5.72,5.39,6.51c2.36,0.79,6.48-0.87,7.52-1.91C176.55,200.02,180.81,196.54,178.57,195.19z"/>
			<path class="st3" d="M176.55,190.82c0.17,0.11,0.31,0.24,0.43,0.38l6.86,6.05l3.92,2l-2.67-3.92l-7.06-6.17
				C177.34,190.11,176.55,190.82,176.55,190.82z"/>
			<path class="st3" d="M208.59,183.8l-0.15-5.59c-0.62,0.43-1.98-0.09-1.98-0.09l-0.01,0.73l0.59,4.95l1.57,13.12l0.25-3.25
				L208.59,183.8z"/>
			<path class="st3" d="M217.96,162.19c0,0-0.13-0.11-0.38-0.27c-0.13-0.08-0.31-0.18-0.51-0.28c-0.88-0.44-2.42-0.98-4.58-0.87
				c-3.58,0.19-8.11,1.13-9.61,1.89c-1.51,0.75-0.99,2.73-0.99,2.73s-2.59-0.47-2.59,2.92c0,3.39,1.04,5.94,1.04,5.94
				s-1.23,0.47-0.75,1.98c0.47,1.51-1.98,2.54-1.51,4.05c0.33,1.05,3.37,2.63,5.21,3.51c0.81,0.39,1.39,0.64,1.39,0.64
				s0.52-0.15,1.06-0.64c0.22-0.2,0.44-0.45,0.63-0.78l0.08-4.17l0.01-0.73c0,0,1.35,0.52,1.98,0.09c0.07-0.05,0.14-0.11,0.19-0.19
				c0.47-0.75,0.57-1.6,0.57-1.6s2.9-0.78,5.35-1.93c0.85-0.4,1.64-0.84,2.25-1.3c0.15-0.11,0.29-0.23,0.41-0.35
				C219.28,170.86,219.94,163.7,217.96,162.19z"/>
			<path class="st3" d="M130.8,179.72c-1.84-2.37-3.4-4.12-3.68-3.74c-0.23,0.31,0.5,1.8,1.63,3.71c0.77,1.3,1.72,2.8,2.66,4.24
				c0.52-0.49,1.03-0.95,1.52-1.37C132.21,181.58,131.49,180.61,130.8,179.72z"/>
			<path class="st3" d="M135.55,190.06c0.49-0.12,0.97-0.21,1.45-0.29l0.7-0.2c-0.05-0.19-0.86-1.45-2.02-3.13
				c-0.51,0.48-1.06,0.98-1.62,1.46C134.82,189,135.37,189.8,135.55,190.06z"/>
			<path class="st3" d="M158.17,197.97c0,0,0.88-1.93,0.61-3.37c-0.06-0.32-0.18-0.62-0.38-0.87c-0.18-0.22-0.43-0.4-0.75-0.52
				c-0.12-0.04-0.24-0.09-0.38-0.11c-2.08-0.39-6.8-1.62-11.7-2.55c-0.77-0.15-1.54-0.28-2.31-0.41c-1.13-0.19-2.25-0.35-3.33-0.47
				c-0.92-0.1-1.91-0.05-2.92,0.11c-0.48,0.07-0.96,0.17-1.45,0.29c-0.94,0.23-1.89,0.54-2.82,0.89c-2.54,0.97-4.95,2.27-6.7,3.35
				c-0.16,0.1-0.3,0.19-0.45,0.28c-1.28,0.8,0.34,5.2,0.19,5.35c0,0-0.03,0.13-0.08,0.37c-0.48,2.26-5.33,10.44-2.39,13.38
				c0.24,0.24,0.48,0.46,0.71,0.66c2.86,2.49,5.03,1.96,11.21,3.13c6.68,1.26,11.92-0.54,14.81-0.72c2.89-0.18,1.08-5.24,1.08-5.24
				c2.53-0.54,0.72-4.52,0.72-4.52l3.25,0.36c3.97,0,0.9-5.78,0.9-5.78l3.43,1.63C163.04,203.39,158.17,197.97,158.17,197.97z"/>
			<path class="st3" d="M135.67,180.33c0,0-1.23,0.92-2.74,2.23c-0.49,0.42-1.01,0.89-1.52,1.37c-2.48,2.33-4.89,5.17-3.62,6.48
				c1.18,1.23,3.87-0.46,6.28-2.51c0.56-0.48,1.11-0.97,1.62-1.46c1.61-1.53,2.85-2.93,3-3.16L135.67,180.33z"/>
		</g>
		<g>
			<path class="st4" d="M209.21,182.34l-0.04,0.05h21.05c-7.58-2.2-16.43-5.16-18.08-6.37L209.21,182.34z"/>
			<path class="st4" d="M120.25,191.07l0.3,0.02c-0.1-0.06-0.2-0.12-0.29-0.18C120.26,190.97,120.26,191.02,120.25,191.07z"/>
			<path class="st4" d="M263.42,164.37c-5.3,7.7-11.99,14.46-16.85,18.02h23.6l2.08-18.52
				C272.25,163.87,271.24,153.02,263.42,164.37z"/>
			<path class="st4" d="M216.52,160.09l7.31,2.52c5.1,2.67,8.5,3.52,11.28,3.44c-0.21-0.41-0.33-0.65-0.33-0.65l-18.22-15.34
				l-0.53,10.19c0.2,0.1,0.37,0.2,0.51,0.28C216.53,160.24,216.52,160.09,216.52,160.09z"/>
			<path class="st18" d="M212.4,175.48c0.03,0,0.04-0.01,0.08-0.01c1.66-0.08,2.67-1.61,3.28-3.69c-0.6,0.47-1.4,0.91-2.25,1.3
				L212.4,175.48z"/>
			<path class="st4" d="M124.59,192.74l-0.03,0.44c0.15-0.09,0.29-0.18,0.45-0.28C124.87,192.85,124.73,192.79,124.59,192.74z"/>
			<path class="st4" d="M330.75,182.39h3.53l-3.3-17.89C331.34,169.98,331.05,177.26,330.75,182.39z"/>
			<path class="st28" d="M76.84,130.5l4.34,3.43c5.24,0,7.59-7.41,7.59-7.41s7.41,0.9,12.46,0.9c2.07,0,3.17-3.23,3.75-7.05
				c0.84-5.52,0.59-12.28,0.59-12.28s1.82-0.21,2.89-1.26c1.31-1.3,0-4.7-2.89-7.23c-2.89-2.53-1.99-11.56-3.07-16.44
				c-0.79-3.57-5.16-7.23-7.45-8.94c-0.39,0.18-0.68,0.27-0.68,0.27c-0.54,0.54-6.86,2.17-10.3,4.52
				c-3.43,2.35,0.54,8.85-1.08,10.84c-1.63,1.99-6.68,2.53-7.23,3.97c-0.54,1.45,0.18,7.77-1.81,8.67c0,0-3.97-6.14-7.77-5.24
				c-3.79,0.9-6.68,3.07-6.32,6.68c0.36,3.61,1.08,7.77-1.45,7.05c-0.11-0.03-0.23-0.11-0.35-0.2c0.06,0.98,0.12,1.86,0.17,2.56
				C58.6,118.06,76.84,130.5,76.84,130.5z"/>
			<path class="st7" d="M61.76,102.99c-0.36-3.61,2.53-5.78,6.32-6.68c3.79-0.9,7.77,5.24,7.77,5.24c1.99-0.9,1.26-7.23,1.81-8.67
				c0.54-1.45,5.6-1.99,7.23-3.97c1.63-1.99-2.35-8.49,1.08-10.84c3.43-2.35,9.75-3.97,10.3-4.52c0,0,0.29-0.09,0.68-0.27
				c2.22-1.01,7.7-4.8-18.74-10.03c-18.28-3.61-27.02,10.4-26.74,18.06c0.35,9.33,5.82,26.43,8.5,28.52
				c0.12,0.09,0.24,0.17,0.35,0.2C62.84,110.76,62.12,106.61,61.76,102.99z"/>
			<path class="st2" d="M117.34,172.6c-0.7,7.02-1.97,12.44-2.78,15.42c0.58,1.18,1.34,2.08,2.12,2.77l3.57,0.27
				c0.01-0.05,0.01-0.1,0.02-0.16c0.28-2.73,0.96-7.79,2.37-10.6c0.71-1.43,2.76-1.94,5.08-2.02c-1.13-1.91-1.86-3.4-1.63-3.71
				c0.28-0.38,1.84,1.38,3.68,3.74c1.78,0.1,3.54,0.37,4.87,0.61c1.36,0.25,2.26,0.48,2.26,0.48c0.36-2.71-3.07-4.15-7.41-7.77
				c-2.74-2.28-6.76-15.92-9.37-25.68C120.58,155.99,118.06,165.38,117.34,172.6z"/>
			<path class="st23" d="M131.71,189.55c0.93-0.35,1.88-0.66,2.82-0.89c-0.18-0.26-0.74-1.06-1.49-2.16
				c-2.41,2.05-5.1,3.74-6.28,2.51c-1.26-1.31,1.15-4.14,3.62-6.48c-0.95-1.45-1.89-2.94-2.66-4.24c-2.32,0.08-4.37,0.59-5.08,2.02
				c-1.41,2.81-2.09,7.88-2.37,10.6c0.09,0.06,0.19,0.12,0.29,0.18c1.12,0.65,2.67,1.16,4.03,1.65c0.14,0.05,0.28,0.1,0.42,0.15
				C126.76,191.82,129.17,190.52,131.71,189.55z"/>
			<path class="st23" d="M131.9,181.16c1.51-1.3,2.74-2.23,2.74-2.23c-1.33-0.25-3.1-0.51-4.87-0.61
				C130.46,179.2,131.18,180.18,131.9,181.16z"/>
			<path class="st23" d="M134.66,185.04c1.16,1.68,1.97,2.94,2.02,3.13l-0.7,0.2c1.01-0.16,2-0.21,2.92-0.11
				c1.08,0.12,2.2,0.28,3.33,0.47c-0.53-2.15-2.55-4.72-4.56-6.85C137.51,182.11,136.27,183.51,134.66,185.04z"/>
			<path class="st24" d="M195.34,125.51l-4.73-0.73v-3.46c0,0,5.83,1.09,7.28-1.27c1.46-2.37,1.82-2.37,1.82-6.19
				c0-3.82,3.46-8.37,3.09-10.56c-0.36-2.18-4.19-18.02-7.83-19.84c-3.64-1.82-12.56-1.46-12.56-1.46s-6.37,15.29-5.64,22.03
				c0.73,6.74,1.64,12.01,1.27,15.47c-0.36,3.46,2.55,5.83,1.27,8.92c-1.11,2.69-4.42,0.02-6.46,1.19c0.12,0.2,0.24,0.41,0.37,0.61
				c2.66,4.29,6.79,8.64,12.54,8.36c9.71-0.47,13.71-1.76,13.67-11.27C194.54,128.74,195.34,125.51,195.34,125.51z"/>
			<path class="st29" d="M160.46,127.15c3.46-2.37,6.01-3.82,6.01-3.82s-3.64,4.19-1.27,9.28c2.37,5.1,4.19,10.01,4.19,13.47
				c0,3.46,1.46-2.91,1.64-4.92c0.18-2,0.73-9.83,2.91-10.74c0.24-0.38,0.52-0.64,0.82-0.81c2.04-1.17,5.35,1.5,6.46-1.19
				c1.27-3.09-1.64-5.46-1.27-8.92c0.36-3.46-0.55-8.74-1.27-15.47c-0.73-6.74,5.64-22.03,5.64-22.03s8.92-0.36,12.56,1.46
				c3.64,1.82,7.46,17.66,7.83,19.84c0.36,2.18-3.09,6.74-3.09,10.56c0,3.82-0.36,3.82-1.82,6.19c-1.46,2.37-7.28,1.27-7.28,1.27
				v3.46l4.73,0.73c0,0-0.79,3.23,4.1,1.8c0.79-0.23,1.71-0.57,2.82-1.07c8.01-3.64,0-2.91,3.09-4.19c0.82-0.34,1.76-0.93,2.65-1.71
				c2.49-2.18,4.59-5.87,2.45-9.75c-2.91-5.28-6.74-2.18-4.92-8.74c1.82-6.55-4.92-9.1-5.46-13.11c-0.55-4,2.73-6.01-4.19-10.01
				c-6.92-4-15.29-10.56-21.3-2.73c0,0-7.65,0-8.19,7.83s-0.18,12.01-2.55,14.02c-2.37,2-7.83,6.37-7.46,13.29
				c0.36,6.92-4.38,10.85-6.55,12.38c-2.18,1.52-3.64,1.64-3.64,1.64s0.26,0.13,0.69,0.32
				C150.91,126.42,157.58,129.12,160.46,127.15z"/>
			<path class="st8" d="M330.98,164.5c-0.19-2.97-0.57-5.41-1.23-6.69L330.98,164.5z"/>
			<path class="st10" d="M212.15,176.02l0.25-0.54l1.11-2.39c-2.45,1.15-5.35,1.93-5.35,1.93s-0.09,0.85-0.57,1.6
				c-0.05,0.08-0.12,0.14-0.19,0.19l0.15,5.59h1.62l0.04-0.05L212.15,176.02z"/>
			<path class="st8" d="M205.34,181.62c-0.19,0.33-0.41,0.58-0.63,0.78h1.31l-0.59-4.95L205.34,181.62z"/>
			<path class="st18" d="M243.25,164.57c-2.87,1.18-5.15,2.34-8.14,2.43c-2.78,0.08-6.18-0.77-11.28-3.44l-7.31-2.52
				c0,0,0.01,0.16,0.03,0.43c0.25,0.16,0.38,0.27,0.38,0.27c1.98,1.51,1.32,8.67-0.75,10.65c-0.12,0.12-0.26,0.23-0.41,0.35
				c-0.61,2.07-1.63,3.61-3.28,3.69c-0.03,0-0.05,0.01-0.08,0.01l-0.25,0.54c1.64,1.21,10.5,4.17,18.08,6.37
				c5.18,1.51,9.76,2.66,11,2.66c1.14,0,3.03-0.97,5.34-2.66c4.86-3.56,11.55-10.32,16.85-18.02c7.82-11.35,8.83-0.5,8.83-0.5
				l-2.08,18.52h60.58c0.3-5.14,0.59-12.41,0.23-17.89l-1.23-6.69c0.67,1.27,1.04,3.71,1.23,6.69l3.3,17.89h21.11
				c-2.89-13.68-11.19-47.9-23.58-56.69c-0.08,0.41-0.2,0.78-0.36,1.04c-1.53,2.42-8.54,4.46-13.65,1.15
				c-5.1-3.32-3.7-2.81-3.19,2.68c0.51,5.48-5.36,9.44-11.22,10.46c0,0-1.28,13.14-10.08,14.54c-8.13,1.3-12.67-16.46-13.31-19.16
				c-1.64-0.69-3.04-1.98-3.4-3.29c-0.77-2.81-1.79-2.04-1.79-2.04c-2.17,2.68-3.06,2.3-3.06,2.3c-6.37-1.25-3.2-7.27-1.99-11.11
				c-3.75,1.3-8.11,3.72-10.14,8.32c-2.55,5.78-6.59,17.73-10.65,25.61C247.03,160.96,245.06,163.83,243.25,164.57z"/>
			<path class="st4" d="M161.14,175.04l-2.11-10.28c0,0-3.2,4.79-1.6,8.63c0.15,0.36,0.32,0.69,0.51,1.01
				C158.74,174.33,159.96,174.6,161.14,175.04z"/>
			<path class="st10" d="M144.53,190.08c4.91,0.93,9.62,2.16,11.7,2.55c0.14,0.03,0.26,0.07,0.38,0.11c0.33,0.12,0.58,0.3,0.75,0.52
				c0.2,0.25,0.32,0.55,0.38,0.87c0.22,0.09,0.38,0.05,0.43-0.25c0.05-0.03,0.08-0.07,0.12-0.1c1.11-0.95,0.03-2.93,0.15-4.51
				c0.17-2.23,1.32-4.05,1.09-4.71c-0.02-0.04,2.39-3.08,3.22-4.13c-2.88-1.79-5.69-3.69-5.73-4.34c-0.03-0.47,0.33-0.7,0.91-0.76
				c-0.19-0.32-0.36-0.66-0.51-1.01c-1.6-3.84,1.6-8.63,1.6-8.63l2.11,10.28c0.36,0.14,0.72,0.29,1.06,0.45
				c0.31,0.15,0.65,0.35,1.02,0.59c2.35-0.53,6.45,0.08,8.37,0.54c1.61,0.38,1.96,3.71,2.03,5.77h28.63
				c-1.84-0.88-4.88-2.46-5.21-3.51c-0.47-1.51,1.98-2.54,1.51-4.05c-0.47-1.51,0.75-1.98,0.75-1.98s-1.04-2.54-1.04-5.94
				c0-3.39,2.59-2.92,2.59-2.92s-0.52-1.98,0.99-2.73c1.51-0.75,6.03-1.7,9.61-1.89c2.16-0.11,3.69,0.42,4.58,0.87l0.53-10.19
				l18.22,15.34c0,0,0.12,0.24,0.33,0.65c2.99-0.09,5.26-1.25,8.14-2.43c1.81-0.74,3.78-3.61,5.75-7.42l-16.17-15.45
				c0,0-14.09-16.98-20.59-19.69c-0.81-0.34-1.59-0.57-2.34-0.72c-0.89,0.78-1.83,1.38-2.65,1.71c-3.09,1.27,4.92,0.55-3.09,4.19
				c-1.11,0.51-2.03,0.84-2.82,1.07c0.05,9.51-3.96,10.8-13.67,11.27c-5.75,0.28-9.88-4.07-12.54-8.36
				c-0.13-0.2-0.25-0.41-0.37-0.61c-0.31,0.18-0.58,0.43-0.82,0.81c-2.18,0.91-2.73,8.74-2.91,10.74c-0.18,2-1.64,8.37-1.64,4.92
				c0-3.46-1.82-8.37-4.19-13.47c-2.37-5.1,1.27-9.28,1.27-9.28s-2.55,1.46-6.01,3.82c-2.89,1.97-9.56-0.73-11.69-1.69
				c-3.75,2.28-2.54,5.13-3.56,7.34c-0.93,2.01-6.08,38.11-7.55,49.08c2.01,2.13,4.03,4.7,4.56,6.85
				C142.99,189.8,143.76,189.94,144.53,190.08z"/>
			<path class="st2" d="M21.73,144.41c0,10.35,17.43,52.58,17.71,57.75c0.22,4.15,0.79,10.92,6.62,13.86
				c1.44,0.73,3.2,1.23,5.37,1.39c0.85,0.06,1.99,0.11,3.37,0.14c15.01,0.36,58.44-0.99,65.21-1.2c0.51-0.02,0.92-0.41,0.96-0.92
				l0.12-1.54c-0.23-0.2-0.47-0.42-0.71-0.66c-2.94-2.94,1.91-11.12,2.39-13.38c0.05-0.24,0.08-0.37,0.08-0.37
				c0.15-0.15-1.47-4.54-0.19-5.35l0.03-0.44c-1.37-0.49-2.92-1-4.03-1.65l-0.3-0.02l-3.57-0.27l-2.88-0.22c0,0,0.31-0.91,0.76-2.56
				c0.81-2.98,2.08-8.4,2.78-15.42c0.72-7.23,3.24-16.61,2.79-26.65c-0.23-5.09-1.22-10.35-3.61-15.58
				c-4.55-9.98-7.87-11.29-9.65-10.96c-0.58,3.82-1.68,7.05-3.75,7.05c-5.06,0-12.46-0.9-12.46-0.9s-2.35,7.41-7.59,7.41l-4.34-3.43
				c0,0-18.23-12.44-18.6-17.15c0,0-18.78,10.65-29.4,20.49C24.65,137.72,21.73,141.48,21.73,144.41z"/>
			<path class="st26" d="M299.88,131.59c0.6-5.86,2.65-8.63,2.51-11.55c-0.04-0.83-0.25-1.67-0.73-2.6
				c-2.17-4.21-5.48-1.53-4.46-4.08c1.02-2.55,5.1-3.95,1.91-10.46c-3.19-6.5-4.08-3.95-4.59-5.99c-0.51-2.04,7.01-7.01-0.38-11.1
				c-7.4-4.08-12.88-8.29-17.85-5.48c0,0-6.25,12.75-5.36,19.9c0.71,5.67,3.22,13.81,4.36,18.39c0.21,0.85,0.62,1.62,1.17,2.27
				c0.73,0.87,1.71,1.52,2.85,1.81c1.71,0.44,4.08,0.79,7.11,0.72c0.12,0.64,0.27,1.46,0.43,2.37c0.53,3.21,1,7.61-0.48,9.63
				c-1.3,1.78-3.51,1.79-5.4,0.99c0.64,2.7,5.18,20.46,13.31,19.16c8.8-1.4,10.08-14.54,10.08-14.54S299.11,139.11,299.88,131.59z"
				/>
			<path class="st1" d="M271.76,133.37c0,0,0.89,0.38,3.06-2.3c0,0,1.02-0.77,1.79,2.04c0.36,1.3,1.76,2.6,3.4,3.29
				c1.89,0.8,4.1,0.79,5.4-0.99c1.48-2.02,1.01-6.43,0.48-9.63c-0.15-0.91-0.31-1.73-0.43-2.37c-3.03,0.07-5.4-0.29-7.11-0.72
				c-1.14-0.29-2.12-0.94-2.85-1.81c-0.54-0.65-0.95-1.42-1.17-2.27c-1.13-4.58-3.65-12.72-4.36-18.39
				c-0.89-7.14,5.36-19.9,5.36-19.9c4.97-2.81,10.46,1.4,17.85,5.48c7.4,4.08-0.13,9.05,0.38,11.1s1.4-0.51,4.59,5.99
				c3.19,6.5-0.89,7.91-1.91,10.46c-1.02,2.55,2.3-0.13,4.46,4.08c0.48,0.93,0.69,1.77,0.73,2.6c0.14,2.93-1.92,5.69-2.51,11.55
				c-0.77,7.52,4.46,9.44,4.46,9.44c5.87-1.02,11.73-4.97,11.22-10.46c-0.51-5.48-1.91-5.99,3.19-2.68
				c5.1,3.32,12.12,1.28,13.65-1.15c0.17-0.27,0.28-0.63,0.36-1.04c0.67-3.35-1.16-10.96-0.36-14.13c0.89-3.57-6.63-5.61-9.05-10.08
				c-2.42-4.46-1.15-20.41-10.84-24.49c-9.69-4.08-5.87-7.65-16.07-3.83c-0.87,0.33-7.65-3.83-17.73,0.13s-11.61,10.71-11.1,14.28
				c0.51,3.57,2.55,18.75,0.64,20.79c-1.91,2.04-4.72,3.44-2.42,7.27c2.3,3.83,6.12,2.55,4.97,6.38c-0.02,0.08-0.05,0.16-0.07,0.24
				C268.57,126.1,265.39,132.12,271.76,133.37z"/>
			<path class="st7" d="M168.71,180.58c0,0-3.17-2.99-5.49-4.5c-0.36-0.24-0.71-0.44-1.02-0.59c-0.34-0.16-0.7-0.31-1.06-0.45
				c-1.18-0.45-2.4-0.71-3.2-0.64c-0.58,0.05-0.94,0.28-0.91,0.76c0.04,0.65,2.85,2.55,5.73,4.34c3.06,1.9,6.2,3.67,6.2,3.67
				L168.71,180.58z"/>
			<path class="st24" d="M177.54,193.79c0,0-1.35-0.79-2.02-0.34c0,0,0.82-1.22,0.84-2.4c0.01-0.45-0.1-0.89-0.42-1.26
				c-0.11-0.14-0.25-0.26-0.43-0.38c0,0,0.79-0.71,1.48-1.65c0.77-1.06,1.41-2.41,0.65-3.4c-1.12-1.46-4.04-0.34-4.04-0.34
				s0.03-0.68,0-1.63c-0.06-2.06-0.41-5.39-2.03-5.77c-1.92-0.46-6.02-1.06-8.37-0.54c2.32,1.51,5.49,4.5,5.49,4.5l0.25,2.59
				c0,0-3.14-1.77-6.2-3.67c-0.83,1.04-3.23,4.08-3.22,4.13c0.23,0.65-0.91,2.48-1.09,4.71c-0.12,1.59,0.96,3.57-0.15,4.51
				l3.52,1.96c0,0,3.03,5.72,5.39,6.51c2.36,0.79,6.48-0.87,7.52-1.91C175.52,198.62,179.78,195.14,177.54,193.79z"/>
			<path class="st7" d="M175.52,189.41c0.17,0.11,0.31,0.24,0.43,0.38l6.86,6.05l3.92,2l-2.67-3.92l-7.06-6.17
				C176.31,188.7,175.52,189.41,175.52,189.41z"/>
			<path class="st7" d="M207.56,182.39l-0.15-5.59c-0.62,0.43-1.98-0.09-1.98-0.09l-0.01,0.73l0.59,4.95l1.57,13.12l0.25-3.25
				L207.56,182.39z"/>
			<path class="st26" d="M216.93,160.78c0,0-0.13-0.11-0.38-0.27c-0.13-0.08-0.31-0.18-0.51-0.28c-0.88-0.44-2.42-0.98-4.58-0.87
				c-3.58,0.19-8.11,1.13-9.61,1.89c-1.51,0.75-0.99,2.73-0.99,2.73s-2.59-0.47-2.59,2.92c0,3.39,1.04,5.94,1.04,5.94
				s-1.23,0.47-0.75,1.98c0.47,1.51-1.98,2.54-1.51,4.05c0.33,1.05,3.37,2.63,5.21,3.51c0.81,0.39,1.39,0.64,1.39,0.64
				s0.52-0.15,1.06-0.64c0.22-0.2,0.44-0.45,0.63-0.78l0.08-4.17l0.01-0.73c0,0,1.35,0.52,1.98,0.09c0.07-0.05,0.14-0.11,0.19-0.19
				c0.47-0.75,0.57-1.6,0.57-1.6s2.9-0.78,5.35-1.93c0.85-0.4,1.64-0.84,2.25-1.3c0.15-0.11,0.29-0.23,0.41-0.35
				C218.25,169.46,218.91,162.29,216.93,160.78z"/>
			<path class="st7" d="M129.77,178.32c-1.84-2.37-3.4-4.12-3.68-3.74c-0.23,0.31,0.5,1.8,1.63,3.71c0.77,1.3,1.72,2.8,2.66,4.24
				c0.52-0.49,1.03-0.95,1.52-1.37C131.18,180.18,130.46,179.2,129.77,178.32z"/>
			<path class="st7" d="M134.53,188.66c0.49-0.12,0.97-0.21,1.45-0.29l0.7-0.2c-0.05-0.19-0.86-1.45-2.02-3.13
				c-0.51,0.48-1.06,0.98-1.62,1.46C133.79,187.6,134.34,188.4,134.53,188.66z"/>
			<path class="st23" d="M157.14,196.57c0,0,0.88-1.93,0.61-3.37c-0.06-0.32-0.18-0.62-0.38-0.87c-0.18-0.22-0.43-0.4-0.75-0.52
				c-0.12-0.04-0.24-0.09-0.38-0.11c-2.08-0.39-6.8-1.62-11.7-2.55c-0.77-0.15-1.54-0.28-2.31-0.41c-1.13-0.19-2.25-0.35-3.33-0.47
				c-0.92-0.1-1.91-0.05-2.92,0.11c-0.48,0.07-0.96,0.17-1.45,0.29c-0.94,0.23-1.89,0.54-2.82,0.89c-2.54,0.97-4.95,2.27-6.7,3.35
				c-0.16,0.1-0.3,0.19-0.45,0.28c-1.28,0.8,0.34,5.2,0.19,5.35c0,0-0.03,0.13-0.08,0.37c-0.48,2.26-5.33,10.44-2.39,13.38
				c0.24,0.24,0.48,0.46,0.71,0.66c2.86,2.49,5.03,1.96,11.21,3.13c6.68,1.26,11.92-0.54,14.81-0.72c2.89-0.18,1.08-5.24,1.08-5.24
				c2.53-0.54,0.72-4.52,0.72-4.52l3.25,0.36c3.97,0,0.9-5.78,0.9-5.78l3.43,1.63C162.01,201.99,157.14,196.57,157.14,196.57z"/>
			<path class="st23" d="M134.64,178.93c0,0-1.23,0.92-2.74,2.23c-0.49,0.42-1.01,0.89-1.52,1.37c-2.48,2.33-4.89,5.17-3.62,6.48
				c1.18,1.23,3.87-0.46,6.28-2.51c0.56-0.48,1.11-0.97,1.62-1.46c1.61-1.53,2.85-2.93,3-3.16L134.64,178.93z"/>
		</g>
		<g>
			<path class="st4" d="M209.18,183.4l-0.04,0.05h21.05c-7.58-2.2-16.43-5.16-18.08-6.37L209.18,183.4z"/>
			<path class="st4" d="M120.22,192.13l0.3,0.02c-0.1-0.06-0.2-0.12-0.29-0.18C120.23,192.03,120.23,192.08,120.22,192.13z"/>
			<path class="st4" d="M263.39,165.44c-5.3,7.7-11.99,14.46-16.85,18.02h23.6l2.08-18.52
				C272.22,164.93,271.21,154.09,263.39,165.44z"/>
			<path class="st4" d="M216.49,161.15l7.31,2.52c5.1,2.67,8.5,3.52,11.28,3.44c-0.21-0.41-0.33-0.65-0.33-0.65l-18.22-15.34
				l-0.53,10.19c0.2,0.1,0.37,0.2,0.51,0.28C216.5,161.31,216.49,161.15,216.49,161.15z"/>
			<path class="st4" d="M212.37,176.55c0.03,0,0.04-0.01,0.08-0.01c1.66-0.08,2.67-1.61,3.28-3.69c-0.6,0.47-1.4,0.91-2.25,1.3
				L212.37,176.55z"/>
			<path class="st4" d="M124.56,193.81l-0.03,0.44c0.15-0.09,0.29-0.18,0.45-0.28C124.84,193.91,124.7,193.86,124.56,193.81z"/>
			<path class="st4" d="M330.72,183.46h3.53l-3.3-17.89C331.31,171.04,331.02,178.32,330.72,183.46z"/>
			<path class="st8" d="M78.71,130.61l4.34,3.43c5.24,0,7.59-7.41,7.59-7.41s7.41,0.9,12.46,0.9c2.07,0,3.17-3.23,3.75-7.05
				c0.84-5.52,0.59-12.28,0.59-12.28s1.82-0.21,2.89-1.26c1.31-1.3,0-4.7-2.89-7.23c-2.89-2.53-1.99-11.56-3.07-16.44
				c-0.79-3.57-5.16-7.23-7.45-8.94c-0.39,0.18-0.68,0.27-0.68,0.27c-0.54,0.54-6.86,2.17-10.3,4.52
				c-3.43,2.35,0.54,8.85-1.08,10.84c-1.63,1.99-6.68,2.53-7.23,3.97c-0.54,1.45,0.18,7.77-1.81,8.67c0,0-3.97-6.14-7.77-5.24
				c-3.79,0.9-6.68,3.07-6.32,6.68c0.36,3.61,1.08,7.77-1.45,7.05c-0.11-0.03-0.23-0.11-0.35-0.2c0.06,0.98,0.12,1.86,0.17,2.56
				C60.47,118.18,78.71,130.61,78.71,130.61z"/>
			<path class="st8" d="M61.73,104.06c-0.36-3.61,2.53-5.78,6.32-6.68c3.79-0.9,7.77,5.24,7.77,5.24c1.99-0.9,1.26-7.23,1.81-8.67
				c0.54-1.45,5.6-1.99,7.23-3.97c1.63-1.99-2.35-8.49,1.08-10.84c3.43-2.35,9.75-3.97,10.3-4.52c0,0,0.29-0.09,0.68-0.27
				c2.22-1.01,7.7-4.8-18.74-10.03C59.88,60.7,51.14,74.71,51.43,82.38c0.35,9.33,5.82,26.43,8.5,28.52
				c0.12,0.09,0.24,0.17,0.35,0.2C62.81,111.83,62.09,107.67,61.73,104.06z"/>
			<path class="st8" d="M117.31,173.67c-0.7,7.02-1.97,12.44-2.78,15.42c0.58,1.18,1.34,2.08,2.12,2.77l3.57,0.27
				c0.01-0.05,0.01-0.1,0.02-0.16c0.28-2.73,0.96-7.79,2.37-10.6c0.71-1.43,2.76-1.94,5.08-2.02c-1.13-1.91-1.86-3.4-1.63-3.71
				c0.28-0.38,1.84,1.38,3.68,3.74c1.78,0.1,3.54,0.37,4.87,0.61c1.36,0.25,2.26,0.48,2.26,0.48c0.36-2.71-3.07-4.15-7.41-7.77
				c-2.74-2.28-6.76-15.92-9.37-25.68C120.55,157.06,118.03,166.44,117.31,173.67z"/>
			<path class="st8" d="M131.68,190.62c0.93-0.35,1.88-0.66,2.82-0.89c-0.18-0.26-0.74-1.06-1.49-2.16
				c-2.41,2.05-5.1,3.74-6.28,2.51c-1.26-1.31,1.15-4.14,3.62-6.48c-0.95-1.45-1.89-2.94-2.66-4.24c-2.32,0.08-4.37,0.59-5.08,2.02
				c-1.41,2.81-2.09,7.88-2.37,10.6c0.09,0.06,0.19,0.12,0.29,0.18c1.12,0.65,2.67,1.16,4.03,1.65c0.14,0.05,0.28,0.1,0.42,0.15
				C126.73,192.89,129.14,191.58,131.68,190.62z"/>
			<path class="st8" d="M131.87,182.22c1.51-1.3,2.74-2.23,2.74-2.23c-1.33-0.25-3.1-0.51-4.87-0.61
				C130.43,180.27,131.15,181.24,131.87,182.22z"/>
			<path class="st8" d="M134.63,186.1c1.16,1.68,1.97,2.94,2.02,3.13l-0.7,0.2c1.01-0.16,2-0.21,2.92-0.11
				c1.08,0.12,2.2,0.28,3.33,0.47c-0.53-2.15-2.55-4.72-4.56-6.85C137.48,183.17,136.24,184.57,134.63,186.1z"/>
			<path class="st8" d="M197.2,126.57l-4.73-0.73v-3.46c0,0,5.83,1.09,7.28-1.27c1.46-2.37,1.82-2.37,1.82-6.19
				c0-3.82,3.46-8.37,3.09-10.56c-0.36-2.18-4.19-18.02-7.83-19.84c-3.64-1.82-12.56-1.46-12.56-1.46s-6.37,15.29-5.64,22.03
				c0.73,6.74,1.64,12.01,1.27,15.47c-0.36,3.46,2.55,5.83,1.27,8.92c-1.11,2.69-4.42,0.02-6.46,1.19c0.12,0.2,0.24,0.41,0.37,0.61
				c2.66,4.29,6.79,8.64,12.54,8.36c9.71-0.47,13.71-1.76,13.67-11.27C196.41,129.8,197.2,126.57,197.2,126.57z"/>
			<path class="st8" d="M160.43,128.21c3.46-2.37,6.01-3.82,6.01-3.82s-3.64,4.19-1.27,9.28c2.37,5.1,4.19,10.01,4.19,13.47
				c0,3.46,1.46-2.91,1.64-4.92c0.18-2,0.73-9.83,2.91-10.74c0.24-0.38,0.52-0.64,0.82-0.81c2.04-1.17,5.35,1.5,6.46-1.19
				c1.27-3.09-1.64-5.46-1.27-8.92c0.36-3.46-0.55-8.74-1.27-15.47c-0.73-6.74,5.64-22.03,5.64-22.03s8.92-0.36,12.56,1.46
				c3.64,1.82,7.46,17.66,7.83,19.84c0.36,2.18-3.09,6.74-3.09,10.56c0,3.82-0.36,3.82-1.82,6.19c-1.46,2.37-7.28,1.27-7.28,1.27
				v3.46l4.73,0.73c0,0-0.79,3.23,4.1,1.8c0.79-0.23,1.71-0.57,2.82-1.07c8.01-3.64,0-2.91,3.09-4.19c0.82-0.34,1.76-0.93,2.65-1.71
				c2.49-2.18,4.59-5.87,2.45-9.75c-2.91-5.28-6.74-2.18-4.92-8.74c1.82-6.55-4.92-9.1-5.46-13.11c-0.55-4,2.73-6.01-4.19-10.01
				c-6.92-4-15.29-10.56-21.3-2.73c0,0-7.65,0-8.19,7.83s-0.18,12.01-2.55,14.02c-2.37,2-7.83,6.37-7.46,13.29
				c0.36,6.92-4.38,10.85-6.55,12.38c-2.18,1.52-3.64,1.64-3.64,1.64s0.26,0.13,0.69,0.32
				C150.88,127.48,157.55,130.19,160.43,128.21z"/>
			<path class="st8" d="M330.95,165.57c-0.19-2.97-0.57-5.41-1.23-6.69L330.95,165.57z"/>
			<path class="st8" d="M212.12,177.09l0.25-0.54l1.11-2.39c-2.45,1.15-5.35,1.93-5.35,1.93s-0.09,0.85-0.57,1.6
				c-0.05,0.08-0.12,0.14-0.19,0.19l0.15,5.59h1.62l0.04-0.05L212.12,177.09z"/>
			<path class="st8" d="M205.31,182.68c-0.19,0.33-0.41,0.58-0.63,0.78h1.31l-0.59-4.95L205.31,182.68z"/>
			<path class="st8" d="M243.22,164.68c-2.87,1.18-5.15,2.34-8.14,2.43c-2.78,0.08-6.18-0.77-11.28-3.44l-7.31-2.52
				c0,0,0.01,0.16,0.03,0.43c0.25,0.16,0.38,0.27,0.38,0.27c1.98,1.51,1.32,8.67-0.75,10.65c-0.12,0.12-0.26,0.23-0.41,0.35
				c-0.61,2.07-1.63,3.61-3.28,3.69c-0.03,0-0.05,0.01-0.08,0.01l-0.25,0.54c1.64,1.21,10.5,4.17,18.08,6.37
				c5.18,1.51,9.76,2.66,11,2.66c1.14,0,3.03-0.97,5.34-2.66c4.86-3.56,11.55-10.32,16.85-18.02c7.82-11.35,8.83-0.5,8.83-0.5
				l-2.08,18.52h60.58c0.3-5.14,0.59-12.41,0.23-17.89l-1.23-6.69c0.67,1.27,1.04,3.71,1.23,6.69l3.3,17.89h21.11
				c-2.89-13.68-11.19-47.9-23.58-56.69c-0.08,0.41-0.2,0.78-0.36,1.04c-1.53,2.42-8.54,4.46-13.65,1.15
				c-5.1-3.32-3.7-2.81-3.19,2.68c0.51,5.48-5.36,9.44-11.22,10.46c0,0-1.28,13.14-10.08,14.54c-8.13,1.3-12.67-16.46-13.31-19.16
				c-1.64-0.69-3.04-1.98-3.4-3.29c-0.77-2.81-1.79-2.04-1.79-2.04c-2.17,2.68-3.06,2.3-3.06,2.3c-6.37-1.25-3.2-7.27-1.99-11.11
				c-3.75,1.3-8.11,3.72-10.14,8.32c-2.55,5.78-6.59,17.73-10.65,25.61C247,161.08,245.03,163.94,243.22,164.68z"/>
			<path class="st4" d="M161.11,176.11L159,165.82c0,0-3.2,4.79-1.6,8.63c0.15,0.36,0.32,0.69,0.51,1.01
				C158.71,175.39,159.93,175.66,161.11,176.11z"/>
			<path class="st8" d="M355.36,183.46h-21.11h-3.53h-60.58h-23.6c-2.31,1.69-4.2,2.66-5.34,2.66c-1.24,0-5.82-1.15-11-2.66h-21.05
				h-1.62l0.27,9.86l-0.25,3.25l-1.57-13.12h-1.31c-0.54,0.49-1.06,0.64-1.06,0.64s-0.58-0.25-1.39-0.64h-28.63
				c0.03,0.95,0,1.63,0,1.63s2.92-1.12,4.04,0.34c0.76,0.99,0.12,2.34-0.65,3.4l7.06,6.17l2.67,3.92l-3.92-2l-6.86-6.05
				c0.31,0.37,0.42,0.81,0.42,1.26c-0.02,1.18-0.84,2.4-0.84,2.4c0.67-0.45,2.02,0.34,2.02,0.34c2.24,1.35-2.02,4.83-2.81,5.61
				c-1.03,1.03-5.16,2.69-7.52,1.91c-2.36-0.79-5.39-6.51-5.39-6.51l-3.52-1.96c-0.05,0.03-0.07,0.04-0.12,0.07
				c-0.04,0.33-0.22,0.38-0.44,0.29c0.27,1.45-0.61,3.37-0.61,3.37s4.88,5.42,1.26,5.24l-3.43-1.63c0,0,3.07,5.78-0.9,5.78
				l-3.25-0.36c0,0,1.81,3.97-0.72,4.52c0,0,1.81,5.06-1.08,5.24c-2.89,0.18-8.13,1.99-14.81,0.72c-6.18-1.17-8.35-0.65-11.21-3.13
				l-0.12,1.54c-0.04,0.51-0.45,0.9-0.96,0.92c-6.77,0.22-50.19,1.56-65.21,1.2c-1.38-0.03-2.52-0.08-3.37-0.14
				c-2.16-0.16-3.93-0.66-5.37-1.39l-26.07,7L0.74,229.9"/>
			<path class="st8" d="M144.5,190.2c4.91,0.93,9.62,2.16,11.7,2.55c0.14,0.03,0.26,0.07,0.38,0.11c0.33,0.12,0.58,0.3,0.75,0.52
				c0.2,0.25,0.32,0.55,0.38,0.87c0.22,0.09,0.38,0.05,0.43-0.25c0.05-0.03,0.08-0.07,0.12-0.1c1.11-0.95,0.03-2.93,0.15-4.51
				c0.17-2.23,1.32-4.05,1.09-4.71c-0.02-0.04,2.39-3.08,3.22-4.13c-2.88-1.79-5.69-3.69-5.73-4.34c-0.03-0.47,0.33-0.7,0.91-0.76
				c-0.19-0.32-0.36-0.66-0.51-1.01c-1.6-3.84,1.6-8.63,1.6-8.63l2.11,10.28c0.36,0.14,0.72,0.29,1.06,0.45
				c0.31,0.15,0.65,0.35,1.02,0.59c2.35-0.53,6.45,0.08,8.37,0.54c1.61,0.38,1.96,3.71,2.03,5.77h28.63
				c-1.84-0.88-4.88-2.46-5.21-3.51c-0.47-1.51,1.98-2.54,1.51-4.05c-0.47-1.51,0.75-1.98,0.75-1.98s-1.04-2.54-1.04-5.94
				c0-3.39,2.59-2.92,2.59-2.92s-0.52-1.98,0.99-2.73s6.03-1.7,9.61-1.89c2.16-0.11,3.69,0.42,4.58,0.87l0.53-10.19l18.22,15.34
				c0,0,0.12,0.24,0.33,0.65c2.99-0.09,5.26-1.25,8.14-2.43c1.81-0.74,3.78-3.61,5.75-7.42l-16.17-15.45
				c0,0-14.09-16.98-20.59-19.69c-0.81-0.34-1.59-0.57-2.34-0.72c-0.89,0.78-1.83,1.38-2.65,1.71c-3.09,1.27,4.92,0.55-3.09,4.19
				c-1.11,0.51-2.03,0.84-2.82,1.07c0.05,9.51-3.96,10.8-13.67,11.27c-5.75,0.28-9.88-4.07-12.54-8.36
				c-0.13-0.2-0.25-0.41-0.37-0.61c-0.31,0.18-0.58,0.43-0.82,0.81c-2.18,0.91-2.73,8.74-2.91,10.74c-0.18,2-1.64,8.37-1.64,4.92
				c0-3.46-1.82-8.37-4.19-13.47c-2.37-5.1,1.27-9.28,1.27-9.28s-2.55,1.46-6.01,3.82c-2.89,1.97-9.56-0.73-11.69-1.69
				c-3.75,2.28-2.54,5.13-3.56,7.34c-0.93,2.01-6.08,38.11-7.55,49.08c2.01,2.13,4.03,4.7,4.56,6.85
				C142.96,189.92,143.73,190.05,144.5,190.2z"/>
			<path class="st8" d="M23.6,144.52c0,10.35,17.43,52.58,17.71,57.75c0.22,4.15,0.79,10.92,6.62,13.86
				c1.44,0.73,3.2,1.23,5.37,1.39c0.85,0.06,1.99,0.11,3.37,0.14c15.01,0.36,58.44-0.99,65.21-1.2c0.51-0.02,0.92-0.41,0.96-0.92
				l0.12-1.54c-0.23-0.2-0.47-0.42-0.71-0.66c-2.94-2.94,1.91-11.12,2.39-13.38c0.05-0.24,0.08-0.37,0.08-0.37
				c0.15-0.15-1.47-4.54-0.19-5.35l0.03-0.44c-1.37-0.49-2.92-1-4.03-1.65l-0.3-0.02l-3.57-0.27l-2.88-0.22c0,0,0.31-0.91,0.76-2.56
				c0.81-2.98,2.08-8.4,2.78-15.42c0.72-7.23,3.24-16.61,2.79-26.65c-0.23-5.09-1.22-10.35-3.61-15.58
				c-4.55-9.98-7.87-11.29-9.65-10.96c-0.58,3.82-1.68,7.05-3.75,7.05c-5.06,0-12.46-0.9-12.46-0.9s-2.35,7.41-7.59,7.41l-4.34-3.43
				c0,0-18.23-12.44-18.6-17.15c0,0-18.78,10.65-29.4,20.49C26.52,137.84,23.6,141.59,23.6,144.52z"/>
			<path class="st8" d="M298.9,132.65c0.6-5.86,2.65-8.63,2.51-11.55c-0.04-0.83-0.25-1.67-0.73-2.6c-2.17-4.21-5.48-1.53-4.46-4.08
				c1.02-2.55,5.1-3.95,1.91-10.46c-3.19-6.5-4.08-3.95-4.59-5.99c-0.51-2.04,7.01-7.01-0.38-11.1c-7.4-4.08-12.88-8.29-17.85-5.48
				c0,0-6.25,12.75-5.36,19.9c0.71,5.67,3.22,13.81,4.36,18.39c0.21,0.85,0.62,1.62,1.17,2.27c0.73,0.87,1.71,1.52,2.85,1.81
				c1.71,0.44,4.08,0.79,7.11,0.72c0.12,0.64,0.27,1.46,0.43,2.37c0.53,3.21,1,7.61-0.48,9.63c-1.3,1.78-3.51,1.79-5.4,0.99
				c0.64,2.7,5.18,20.46,13.31,19.16c8.8-1.4,10.08-14.54,10.08-14.54S298.13,140.18,298.9,132.65z"/>
			<path class="st8" d="M271.73,134.44c0,0,0.89,0.38,3.06-2.3c0,0,1.02-0.77,1.79,2.04c0.36,1.3,1.76,2.6,3.4,3.29
				c1.89,0.8,4.1,0.79,5.4-0.99c1.48-2.02,1.01-6.43,0.48-9.63c-0.15-0.91-0.31-1.73-0.43-2.37c-3.03,0.07-5.4-0.29-7.11-0.72
				c-1.14-0.29-2.12-0.94-2.85-1.81c-0.54-0.65-0.95-1.42-1.17-2.27c-1.13-4.58-3.65-12.72-4.36-18.39
				c-0.89-7.14,5.36-19.9,5.36-19.9c4.97-2.81,10.46,1.4,17.85,5.48c7.4,4.08-0.13,9.05,0.38,11.1c0.51,2.04,1.4-0.51,4.59,5.99
				c3.19,6.5-0.89,7.91-1.91,10.46c-1.02,2.55,2.3-0.13,4.46,4.08c0.48,0.93,0.69,1.77,0.73,2.6c0.14,2.93-1.92,5.69-2.51,11.55
				c-0.77,7.52,4.46,9.44,4.46,9.44c5.87-1.02,11.73-4.97,11.22-10.46c-0.51-5.48-1.91-5.99,3.19-2.68
				c5.1,3.32,12.12,1.28,13.65-1.15c0.17-0.27,0.28-0.63,0.36-1.04c0.67-3.35-1.16-10.96-0.36-14.13c0.89-3.57-6.63-5.61-9.05-10.08
				c-2.42-4.46-1.15-20.41-10.84-24.49c-9.69-4.08-5.87-7.65-16.07-3.83c-0.87,0.33-7.65-3.83-17.73,0.13
				c-10.08,3.95-11.61,10.71-11.1,14.28c0.51,3.57,2.55,18.75,0.64,20.79s-4.72,3.44-2.42,7.27c2.3,3.83,6.12,2.55,4.97,6.38
				c-0.02,0.08-0.05,0.16-0.07,0.24C268.54,127.17,265.36,133.19,271.73,134.44z"/>
			<path class="st8" d="M168.68,181.65c0,0-3.17-2.99-5.49-4.5c-0.36-0.24-0.71-0.44-1.02-0.59c-0.34-0.16-0.7-0.31-1.06-0.45
				c-1.18-0.45-2.4-0.71-3.2-0.64c-0.58,0.05-0.94,0.28-0.91,0.76c0.04,0.65,2.85,2.55,5.73,4.34c3.06,1.9,6.2,3.67,6.2,3.67
				L168.68,181.65z"/>
			<path class="st8" d="M177.51,194.86c0,0-1.35-0.79-2.02-0.34c0,0,0.82-1.22,0.84-2.4c0.01-0.45-0.1-0.89-0.42-1.26
				c-0.11-0.14-0.25-0.26-0.43-0.38c0,0,0.79-0.71,1.48-1.65c0.77-1.06,1.41-2.41,0.65-3.4c-1.12-1.46-4.04-0.34-4.04-0.34
				s0.03-0.68,0-1.63c-0.06-2.06-0.41-5.39-2.03-5.77c-1.92-0.46-6.02-1.06-8.37-0.54c2.32,1.51,5.49,4.5,5.49,4.5l0.25,2.59
				c0,0-3.14-1.77-6.2-3.67c-0.83,1.04-3.23,4.08-3.22,4.13c0.23,0.65-0.91,2.48-1.09,4.71c-0.12,1.59,0.96,3.57-0.15,4.51
				l3.52,1.96c0,0,3.03,5.72,5.39,6.51c2.36,0.79,6.48-0.87,7.52-1.91C175.49,199.68,179.75,196.2,177.51,194.86z"/>
			<path class="st8" d="M175.49,190.48c0.17,0.11,0.31,0.24,0.43,0.38l6.86,6.05l3.92,2l-2.67-3.92l-7.06-6.17
				C176.28,189.77,175.49,190.48,175.49,190.48z"/>
			<path class="st8" d="M207.53,183.46l-0.15-5.59c-0.62,0.43-1.98-0.09-1.98-0.09l-0.01,0.73l0.59,4.95l1.57,13.12l0.25-3.25
				L207.53,183.46z"/>
			<path class="st8" d="M216.9,161.85c0,0-0.13-0.11-0.38-0.27c-0.13-0.08-0.31-0.18-0.51-0.28c-0.88-0.44-2.42-0.98-4.58-0.87
				c-3.58,0.19-8.11,1.13-9.61,1.89s-0.99,2.73-0.99,2.73s-2.59-0.47-2.59,2.92c0,3.39,1.04,5.94,1.04,5.94s-1.23,0.47-0.75,1.98
				c0.47,1.51-1.98,2.54-1.51,4.05c0.33,1.05,3.37,2.63,5.21,3.51c0.81,0.39,1.39,0.64,1.39,0.64s0.52-0.15,1.06-0.64
				c0.22-0.2,0.44-0.45,0.63-0.78l0.08-4.17l0.01-0.73c0,0,1.35,0.52,1.98,0.09c0.07-0.05,0.14-0.11,0.19-0.19
				c0.47-0.75,0.57-1.6,0.57-1.6s2.9-0.78,5.35-1.93c0.85-0.4,1.64-0.84,2.25-1.3c0.15-0.11,0.29-0.23,0.41-0.35
				C218.22,170.52,218.88,163.36,216.9,161.85z"/>
			<path class="st8" d="M129.74,179.38c-1.84-2.37-3.4-4.12-3.68-3.74c-0.23,0.31,0.5,1.8,1.63,3.71c0.77,1.3,1.72,2.8,2.66,4.24
				c0.52-0.49,1.03-0.95,1.52-1.37C131.15,181.24,130.43,180.27,129.74,179.38z"/>
			<path class="st8" d="M134.5,189.72c0.49-0.12,0.97-0.21,1.45-0.29l0.7-0.2c-0.05-0.19-0.86-1.45-2.02-3.13
				c-0.51,0.48-1.06,0.98-1.62,1.46C133.76,188.66,134.31,189.46,134.5,189.72z"/>
			<path class="st8" d="M157.11,197.63c0,0,0.88-1.93,0.61-3.37c-0.06-0.32-0.18-0.62-0.38-0.87c-0.18-0.22-0.43-0.4-0.75-0.52
				c-0.12-0.04-0.24-0.09-0.38-0.11c-2.08-0.39-6.8-1.62-11.7-2.55c-0.77-0.15-1.54-0.28-2.31-0.41c-1.13-0.19-2.25-0.35-3.33-0.47
				c-0.92-0.1-1.91-0.05-2.92,0.11c-0.48,0.07-0.96,0.17-1.45,0.29c-0.94,0.23-1.89,0.54-2.82,0.89c-2.54,0.97-4.95,2.27-6.7,3.35
				c-0.16,0.1-0.3,0.19-0.45,0.28c-1.28,0.8,0.34,5.2,0.19,5.35c0,0-0.03,0.13-0.08,0.37c-0.48,2.26-5.33,10.44-2.39,13.38
				c0.24,0.24,0.48,0.46,0.71,0.66c2.86,2.49,5.03,1.96,11.21,3.13c6.68,1.26,11.92-0.54,14.81-0.72c2.89-0.18,1.08-5.24,1.08-5.24
				c2.53-0.54,0.72-4.52,0.72-4.52l3.25,0.36c3.97,0,0.9-5.78,0.9-5.78l3.43,1.63C161.98,203.05,157.11,197.63,157.11,197.63z"/>
			<path class="st8" d="M134.61,180c0,0-1.23,0.92-2.74,2.23c-0.49,0.42-1.01,0.89-1.52,1.37c-2.48,2.33-4.89,5.17-3.62,6.48
				c1.18,1.23,3.87-0.46,6.28-2.51c0.56-0.48,1.11-0.97,1.62-1.46c1.61-1.53,2.85-2.93,3-3.16L134.61,180z"/>
		</g>
		<path class="st8" d="M107.43,108.21c0,0-3.13,0.95-4.57-0.67"/>
		<path class="st8" d="M104.73,113.41c-0.23,0.06-3.99,1.47-5.69,2.23c0,0,3.29,3.05,4.75,2.76"/>
		<path class="st8" d="M90.63,126.64c0,0-12.6-3.2-14.3-5.31"/>
		<path class="st8" d="M60.54,115.28c0,0.18,0,8.16,4.87,14.08c4.87,5.93,11.74,14.32,11.74,14.32s5.91-8.72,5.89-9.64"/>
		<path class="st8" d="M85.72,133.48c0,0,6.75,3.93,7.39,7.39l-1.76-14.38"/>
		<path class="st8" d="M120.53,192.16c0,0-16.1,0.12-22.78-0.02c-6.69-0.14-30.71,1.5-35.76-1.64s-15.97-40.26-13.1-45.17"/>
		<path class="st8" d="M84.37,133.86c0,0,2.05,22.11,5.32,31.12c3.28,9.01,1.5,26.88,1.5,26.88"/>
		<path class="st8" d="M117.39,176.58c0.41-0.82,7.64-5.73,9.42-5.32"/>
		<path class="st8" d="M154.94,201.25c0,0-6.98-4.61-14.35-4.61"/>
		<path class="st8" d="M150.78,206.66c0,0-2.96-2.93-11.15-1.15"/>
		<path class="st8" d="M150.06,211.18c0,0-10.83-0.08-11.38,0.74"/>
		<path class="st8" d="M175.99,190.25c0,0-4.97,2.71-10.15,1.07c-5.19-1.64-6.33-6.63-6.33-6.63"/>
		<path class="st8" d="M173.58,185.09c0,0-0.37,2.54-2.42,2.27c-2.05-0.27-2.23-3.13-2.23-3.13"/>
		<path class="st8" d="M175.93,194.22c0,0-4.62,4.8-7.29,4.86c-2.67,0.06-6.28-2.19-6.28-2.19"/>
		<path class="st8" d="M175.75,190.6c0,0-3.02,3.67-4.74,3.61c-1.72-0.06-6.16-0.24-8.71-2.49"/>
		<path class="st8" d="M159,165.82c0,0,2.03-9.53-0.78-12.47"/>
		<path class="st8" d="M215.74,167.43c0,0-1.95,0.43-3.32,2.09c-1.37,1.66-2.67,1.8-3.32,1.66c-1.36-0.3-2.45-1.6-1.8-2.81
			c1.15-2.16,2.96-3.82,2.96-3.82"/>
		<path class="st8" d="M203.55,165.7c0,0,5.05,9.6,4.58,10.39"/>
		<path class="st8" d="M205.4,177.78c0,0-5.32-7.3-4.57-12.86"/>
		<path class="st8" d="M205.28,181.13c0,0-5.65-4.11-6.01-7.21"/>
		<path class="st8" d="M204.67,183.46c0,0-5.13-3.13-6.15-7.56"/>
		<path class="st8" d="M166.44,124.39c0,0,4.41-2.39,2.14-8.69c-2.27-6.3,3.3-14.14,3.51-14.56"/>
		<path class="st8" d="M184.28,83.07c0,0-2.07-1.84-2.9-1.33"/>
		<path class="st8" d="M197.49,99.5c0,0,3.92,7.02,2.99,8.15s-4.85,2.17-4.85,2.17"/>
		<path class="st8" d="M198.83,112.3c-0.52,0.21-4.44,1.65-5.88,1.75c-1.45,0.1,3.3,2.68,6.19,0.52"/>
		<path class="st8" d="M296.17,117.67c0,0-7.23,7.01-10.74,6.81"/>
		<path class="st8" d="M287.09,124.17c0,0,7.02,10.84,5.37,15.79"/>
		<path class="st8" d="M273.36,100.53c0,0-2.27,4.95-2.06,6.3c0.21,1.34,4.44,2.79,5.88,2.37"/>
		<path class="st8" d="M281.31,112.61c0,0-3.72,2.48-5.06,3.41c-0.62,0.43,3.82,0.72,6.09-0.72"/>
		<g>
			<path class="st8" d="M162.36,196.88l-13.78,34.6c0,0,95.15-0.35,94.97-1.07s-24.46-36.26-24.46-36.26
				c-0.46,0-23.62,1.12-40.2,1.92"/>
			<path class="st8" d="M233.68,224.72c-1.1-0.28-78.15,2.86-78.15,2.86"/>
			<path class="st8" d="M225.69,218.94c-0.83,0-28.9,0.82-28.9,0.82"/>
			<line class="st8" x1="215.04" y1="199.78" x2="191.15" y2="201.95"/>
			<path class="st8" d="M184.13,207.92c0,0-0.92-2.61-5.51-0.55c-5.51,2.48-8.26,1.1-8.26,1.1"/>
		</g>
		<g>
			<polygon class="st8" points="307.57,203.27 245.9,208.05 267.18,245.84 347.53,237.15 			"/>
		</g>
		<circle class="st7" cx="97.36" cy="97.49" r="1.06"/>
		<circle class="st7" cx="190.2" cy="101.23" r="0.74"/>
		<circle class="st7" cx="200.67" cy="98.3" r="0.74"/>
		<circle class="st7" cx="281.42" cy="98.78" r="0.93"/>
		<circle class="st7" cx="271.43" cy="99.09" r="0.74"/>
		<line class="st8" x1="334.94" y1="231.94" x2="273.26" y2="239.76"/>
		<line class="st8" x1="324.51" y1="225.86" x2="291.07" y2="230.2"/>
	</g>
</g>
</svg>
