<?xml version="1.0" encoding="utf-8"?>
<!-- Generator: Adobe Illustrator 22.0.0, SVG Export Plug-In . SVG Version: 6.00 Build 0)  -->
<svg version="1.1" id="Layer_1" xmlns="http://www.w3.org/2000/svg" xmlns:xlink="http://www.w3.org/1999/xlink" x="0px" y="0px"
	 viewBox="0 0 95.869 59.272" enable-background="new 0 0 95.869 59.272" xml:space="preserve">
<g id="XMLID_1_">
	<path id="XMLID_2_" fill="#468FBA" d="M51.932,33.488c15.657,3.207,27.366,19.846,43.937,19.483v-3.76
		c-16.363,0.302-29.016-17.772-45.323-19.754c-17.88-2.173-29.882,15.907-46.271,19.295C2.817,49.054,1.396,49.184,0,49.197v3.76
		c0.786-0.001,1.58-0.026,2.39-0.107C20.17,51.067,33.305,29.672,51.932,33.488z"/>
	<path id="XMLID_10_" fill="#60A474" d="M4.275,35.882C2.817,36.184,1.396,36.314,0,36.327v3.76c0.786-0.001,1.58-0.026,2.39-0.107
		c17.78-1.784,30.915-23.178,49.542-19.362c15.657,3.207,27.366,19.846,43.937,19.483v-3.76
		c-16.363,0.302-29.016-17.773-45.323-19.754C32.665,14.414,20.664,32.493,4.275,35.882z"/>
	<path id="XMLID_11_" fill="#DF635C" d="M95.869,10.6C86.779,10.767,78.834,5.265,70.772,0H64.24
		c10.22,6.01,19.656,14.622,31.629,14.36V10.6z"/>
	<path id="XMLID_12_" fill="#DF635C" d="M30.775,0.001h-6.369c-6.445,4.237-12.855,8.636-20.131,10.14
		C2.817,10.443,1.396,10.573,0,10.586v3.76c0.786-0.001,1.58-0.026,2.39-0.107C12.761,13.199,21.553,5.49,30.775,0.001z"/>
	<path id="XMLID_13_" fill="#54565A" d="M11.268,59.272h7.382c10.668-6.609,20.728-15.485,33.282-12.913
		c8.915,1.826,16.518,7.999,24.472,12.913h7.626c-11.173-5.027-21.274-15.461-33.484-16.944
		C35.301,40.475,24.329,53.337,11.268,59.272z"/>
	<path id="XMLID_14_" fill="#F4C55C" d="M95.869,23.47C79.506,23.772,66.853,5.697,50.546,3.716
		C32.666,1.543,20.664,19.623,4.275,23.011C2.817,23.313,1.396,23.443,0,23.456v3.76c0.786-0.001,1.58-0.026,2.39-0.107
		C20.17,25.326,33.305,3.932,51.932,7.747c15.657,3.207,27.366,19.846,43.937,19.483V23.47z"/>
</g>
</svg>
