<svg width="33" height="32" viewBox="0 0 33 32" fill="none" xmlns="http://www.w3.org/2000/svg">
<circle cx="16" cy="16" r="16" fill="#DDDDDE"/>
<path d="M15.401 6.26036C15.7003 5.33905 17.0037 5.33905 17.3031 6.26036L19.0503 11.6379C19.1842 12.0499 19.5682 12.3289 20.0014 12.3289H25.6557C26.6244 12.3289 27.0272 13.5685 26.2435 14.1379L21.6691 17.4614C21.3186 17.7161 21.1719 18.1674 21.3058 18.5794L23.0531 23.957C23.3524 24.8783 22.2979 25.6444 21.5142 25.075L16.9398 21.7515C16.5893 21.4969 16.1147 21.4969 15.7642 21.7515L11.1898 25.075C10.4061 25.6444 9.35163 24.8783 9.65098 23.957L11.3982 18.5794C11.5321 18.1674 11.3855 17.7161 11.035 17.4614L6.46057 14.1379C5.67685 13.5685 6.07963 12.3289 7.04835 12.3289H12.7026C13.1359 12.3289 13.5198 12.0499 13.6537 11.6379L15.401 6.26036Z" fill="#BBBBBD"/>
<path d="M17.494 6.08156L19.2413 11.4591C19.4421 12.0771 20.0181 12.4956 20.6679 12.4956H26.3222C26.8065 12.4956 27.0079 13.1154 26.6161 13.4001L22.0417 16.7236C21.5159 17.1056 21.2959 17.7826 21.4968 18.4006L23.244 23.7782C23.3937 24.2388 22.8665 24.6219 22.4746 24.3372L17.9002 21.0137C17.3745 20.6317 16.6626 20.6317 16.1368 21.0137L11.5624 24.3372C11.1706 24.6219 10.6433 24.2388 10.793 23.7782L12.5403 18.4006C12.7411 17.7826 12.5211 17.1056 11.9954 16.7236L7.42096 13.4001C7.02911 13.1154 7.23049 12.4956 7.71486 12.4956H13.3691C14.019 12.4956 14.5949 12.0771 14.7957 11.4591L16.543 6.08156C16.6927 5.6209 17.3444 5.6209 17.494 6.08156Z" stroke="#76767B"/>
<circle cx="17" cy="16" r="15.5" stroke="#989A9C"/>
</svg>
