<?xml version="1.0" encoding="utf-8"?>
<!-- Generator: Adobe Illustrator 25.0.0, SVG Export Plug-In . SVG Version: 6.00 Build 0)  -->
<svg version="1.1" xmlns="http://www.w3.org/2000/svg" xmlns:xlink="http://www.w3.org/1999/xlink" x="0px" y="0px"
	 viewBox="0 0 841.89 467.72" style="enable-background:new 0 0 841.89 467.72;" xml:space="preserve">
<style type="text/css">
	.st0{fill:#F4F4F5;}
	.st1{fill:#FFFFFF;}
	.st2{fill:#61A575;}
	.st3{fill:none;stroke:#54575C;stroke-width:0.9369;stroke-miterlimit:10;}
	.st4{fill:#4890BA;}
	.st5{fill:#F5C65D;}
	.st6{fill:#E0635D;}
	.st7{fill:none;stroke:#54575C;stroke-width:1.0443;stroke-miterlimit:10;stroke-dasharray:104.4279,10.4428;}
	.st8{fill:#CF7B67;}
	.st9{fill:none;stroke:#54575C;stroke-width:0.9975;stroke-miterlimit:10;}
	.st10{fill:none;stroke:#54575C;stroke-width:0.9102;stroke-miterlimit:10;}
	.st11{fill:#C97F5F;}
	.st12{fill:#303038;}
	.st13{fill:#C3E1CC;}
	.st14{fill:none;stroke:#C3E1CC;stroke-width:1.0116;stroke-miterlimit:10;}
	.st15{fill:#FFD600;}
	.st16{fill:#F7AB19;}
	.st17{fill:#C67F16;}
	.st18{fill:#FFEBC5;}
	.st19{fill:#E4C399;}
	.st20{fill:#36311C;}
	.st21{fill:none;stroke:#54575C;stroke-linejoin:round;stroke-miterlimit:10;}
	.st22{fill:#DCEFFA;}
	.st23{fill:none;stroke:#54575C;stroke-miterlimit:10;}
	.st24{fill:#235485;}
	.st25{fill:#F0EDE6;}
	.st26{fill:none;stroke:#FFB62E;stroke-width:1.2988;stroke-miterlimit:10;}
	.st27{fill:#005EA2;}
	.st28{clip-path:url(#SVGID_2_);fill:none;}
	.st29{clip-path:url(#SVGID_2_);fill:#58B4FF;}
	.st30{clip-path:url(#SVGID_2_);}
	.st31{fill:none;stroke:#2491FF;stroke-width:1.2828;stroke-miterlimit:10;}
	.st32{fill:#58B4FF;}
	.st33{fill:#CFE8FF;}
	.st34{fill:#0B4778;}
	.st35{fill:#E8F5FF;}
	.st36{fill:#2491FF;}
	.st37{opacity:0.28;fill:#2491FF;}
	.st38{clip-path:url(#SVGID_4_);fill:#E8F5FF;}
	.st39{clip-path:url(#SVGID_4_);fill:#58B4FF;}
	.st40{fill:none;}
	.st41{clip-path:url(#SVGID_2_);fill:#CFE8FF;}
	.st42{clip-path:url(#SVGID_2_);fill:#0B4778;}
	.st43{clip-path:url(#SVGID_2_);fill:none;stroke:#0B4778;stroke-width:2.5657;stroke-miterlimit:10;}
	.st44{clip-path:url(#SVGID_2_);fill:#005EA2;}
	.st45{clip-path:url(#SVGID_2_);fill:none;stroke:#0B4778;stroke-width:1.2828;stroke-miterlimit:10;}
	.st46{clip-path:url(#SVGID_2_);fill:#2491FF;}
	.st47{fill:#0076D6;}
	.st48{fill:#112F4E;}
	.st49{clip-path:url(#SVGID_6_);fill:#CFE8FF;}
	.st50{clip-path:url(#SVGID_6_);}
	.st51{fill:none;stroke:#2491FF;stroke-width:1.3926;stroke-miterlimit:10;}
	.st52{opacity:0.43;fill:#005EA2;}
	.st53{fill:#2491FF;stroke:#A1D3FF;stroke-width:0.25;stroke-miterlimit:10;}
	.st54{fill:none;stroke:#54575C;stroke-width:1.0656;stroke-miterlimit:10;}
	.st55{fill:#54575C;}
	.st56{fill:none;stroke:#DCEFFA;stroke-width:2.3774;stroke-linecap:round;stroke-linejoin:round;stroke-miterlimit:10;}
	.st57{fill:#54575C;stroke:#DCEFFA;stroke-width:0.2664;stroke-miterlimit:10;}
	.st58{fill:#F0A58B;}
	.st59{clip-path:url(#SVGID_8_);}
	.st60{clip-path:url(#SVGID_8_);fill:#54575C;}
	.st61{clip-path:url(#SVGID_10_);fill:#FFFFFF;}
	.st62{clip-path:url(#SVGID_10_);}
	.st63{clip-path:url(#SVGID_10_);fill:#54575C;}
	.st64{clip-path:url(#SVGID_10_);fill:none;stroke:#54575C;stroke-width:1.0656;stroke-miterlimit:10;}
	.st65{clip-path:url(#SVGID_10_);fill:none;stroke:#54575C;stroke-width:3.1969;stroke-miterlimit:10;}
	.st66{fill:none;stroke:#54575C;stroke-width:1.3756;stroke-miterlimit:10;}
	.st67{clip-path:url(#SVGID_12_);fill:#DCEFFA;}
	.st68{clip-path:url(#SVGID_12_);fill:#235485;}
	.st69{clip-path:url(#SVGID_12_);fill:#4890BA;}
	.st70{clip-path:url(#SVGID_12_);}
	.st71{clip-path:url(#SVGID_12_);fill:#FFFFFF;}
	.st72{clip-path:url(#SVGID_12_);fill:none;stroke:#FFFFFF;stroke-width:1.7915;stroke-miterlimit:10;}
</style>
<g id="Layer_1">
</g>
<g id="Layer_2">
</g>
<g id="Layer_3">
	<rect class="st4" width="841.89" height="467.72"/>
	<path class="st54" d="M329.99,310.92c0,0-9.71-9.96-15.84-8.94c-6.13,1.02-6.39,14.56-5.36,16.35c1.02,1.79,5.88,13.54,11.49,12.52
		C322.56,330.43,330.24,319.35,329.99,310.92z"/>
	<path class="st54" d="M308.08,325.68c0,0,13,16.26,23.07,5.22"/>
	<line class="st54" x1="332.03" y1="299.94" x2="327.69" y2="291.51"/>
	<g>
		<circle class="st22" cx="259.61" cy="187.5" r="35.97"/>
	</g>
	<g>
		<circle class="st22" cx="169.43" cy="243.35" r="35.97"/>
		<g>
			<path class="st55" d="M182.46,219.83l-14.35,0l0,1.43l1.49,0l-0.01,41.36h0.01c0,0.04-0.01,0.07-0.01,0.11
				c0,2.29,2.57,4.15,5.75,4.15c3.18,0,5.75-1.86,5.75-4.15c0-0.04-0.01-0.07-0.01-0.11h0.01l0.01-41.36l1.35,0L182.46,219.83z
				 M179.47,239.15l-5.75,0l-0.01,22.54l-1.49,0l0.01-22.54l-1.14,0l0-17.89l8.38,0L179.47,239.15z"/>
			<path class="st55" d="M156.42,228.95l1.25,0l-0.01,34.39h0.01c0,0.03-0.01,0.06-0.01,0.09c0,1.91,2.16,3.45,4.82,3.45
				c2.66,0,4.82-1.54,4.82-3.45c0-0.03-0.01-0.06-0.01-0.09h0.01l0.01-34.39l1.13,0l0-1.19l-12.02,0L156.42,228.95z M165.93,243.82
				l-4.82,0l-0.01,18.74l-1.25,0l0.01-18.74l-0.95,0l0-14.87l7.02,0L165.93,243.82z"/>
		</g>
	</g>
	<g>
		<circle class="st22" cx="559.21" cy="98.76" r="35.97"/>
		<g>
			<g>
				<path class="st55" d="M575.62,83.15c-1.92-2.02-4.64-3.18-7.45-3.18c-2.65,0-5.16,1-7.07,2.82l-17.95,17.06
					c-4.1,3.9-4.27,10.41-0.37,14.52c1.92,2.02,4.64,3.18,7.45,3.18c2.65,0,5.16-1,7.07-2.81l17.95-17.07
					C579.36,93.77,579.53,87.25,575.62,83.15z M555.72,113.07c-1.48,1.41-3.43,2.18-5.49,2.18c-2.21,0-4.26-0.88-5.78-2.47
					c-3.03-3.18-2.9-8.23,0.28-11.26l8.34-7.93l0.75,0.75c2.66-2.47,6.8-6.3,9.22-8.55c0.47-0.43,1.19-0.41,1.63,0.06
					c0.43,0.47,0.41,1.19-0.06,1.63c-3.28,3.05-7.1,6.58-9.16,8.49l8.86,8.91L555.72,113.07z"/>
			</g>
			<line class="st56" x1="570.58" y1="86.35" x2="566.93" y2="90.01"/>
		</g>
	</g>
	<g>
		<circle class="st22" cx="648.22" cy="128.43" r="35.97"/>
		<path class="st55" d="M669.51,124.85c-2.1,0-3.8,1.7-3.8,3.8c0,0.02,0,0.03,0.01,0.05l-7.54,0.52c-0.06-1.25-0.3-2.44-0.72-3.55
			l3.37-1.69c0.27,0.34,0.69,0.56,1.16,0.56c0.83,0,1.5-0.67,1.5-1.5c0-0.83-0.67-1.5-1.5-1.5s-1.5,0.67-1.5,1.5
			c0,0.04,0.01,0.07,0.01,0.11l-3.39,1.7c-0.54-1.17-1.27-2.23-2.16-3.15l4.44-3.81c0.51,0.42,1.16,0.68,1.88,0.68
			c1.65,0,2.98-1.33,2.98-2.98c0-1.65-1.33-2.98-2.98-2.98c-1.64,0-2.98,1.33-2.98,2.98c0,0.61,0.18,1.17,0.5,1.64l-4.48,3.85
			c-0.69-0.61-1.44-1.16-2.26-1.59l3.99-11.01c0.21,0.05,0.43,0.08,0.66,0.08c1.64,0,2.98-1.33,2.98-2.98
			c0-1.65-1.33-2.98-2.98-2.98c-1.65,0-2.98,1.33-2.98,2.98c0,1.1,0.61,2.05,1.5,2.57l-3.97,10.95c-1.3-0.57-2.73-0.91-4.24-0.96
			v-6.46c0.86-0.2,1.5-0.97,1.5-1.89c0-1.08-0.87-1.95-1.95-1.95c-1.08,0-1.95,0.87-1.95,1.95c0,0.92,0.64,1.69,1.5,1.89v6.46
			c-1.92,0.07-3.71,0.6-5.28,1.49l-5.69-7.84c0.7-0.61,1.15-1.49,1.15-2.49c0-1.83-1.48-3.31-3.31-3.31c-1.83,0-3.31,1.48-3.31,3.31
			c0,1.83,1.48,3.31,3.31,3.31c0.51,0,0.99-0.12,1.42-0.33l5.67,7.81c-1.06,0.71-1.99,1.61-2.76,2.62l-3.31-2.4
			c0.11-0.21,0.18-0.44,0.18-0.69c0-0.83-0.67-1.5-1.5-1.5s-1.5,0.67-1.5,1.5s0.67,1.5,1.5,1.5c0.25,0,0.48-0.07,0.69-0.17
			l3.43,2.49c-0.68,1.04-1.18,2.2-1.5,3.44l-6.57-1.93c-0.03-1.35-1.13-2.43-2.48-2.43c-1.37,0-2.49,1.11-2.49,2.49
			c0,1.37,1.11,2.48,2.49,2.48c1.08,0,1.99-0.69,2.33-1.65l6.53,1.92c-0.11,0.66-0.19,1.33-0.19,2.01c0,0.55,0.05,1.09,0.13,1.63
			l-8.67,1.79c-0.5-0.95-1.48-1.6-2.62-1.6c-1.64,0-2.98,1.33-2.98,2.98c0,1.64,1.33,2.98,2.98,2.98c1.65,0,2.98-1.33,2.98-2.98
			c0-0.18-0.02-0.36-0.05-0.54l8.52-1.76c0.25,1.15,0.68,2.24,1.25,3.24l-4.36,2.35c-0.25-0.2-0.57-0.32-0.91-0.32
			c-0.83,0-1.5,0.67-1.5,1.5s0.67,1.5,1.5,1.5s1.5-0.67,1.5-1.5c0-0.16-0.03-0.31-0.08-0.45l4.31-2.32
			c0.45,0.67,0.98,1.29,1.56,1.85c-3.6,3.36-5.37,5.02-6.23,5.84c-0.31-0.2-0.67-0.32-1.06-0.32c-1.07,0-1.95,0.87-1.95,1.95
			c0,1.08,0.87,1.95,1.95,1.95c1.08,0,1.95-0.87,1.95-1.95c0-0.36-0.11-0.69-0.28-0.98c1.26-1.2,3.91-3.68,6.28-5.89
			c1.07,0.89,2.31,1.58,3.65,2.04l-3.55,8.23c-0.23-0.06-0.46-0.09-0.71-0.09c-1.65,0-2.98,1.33-2.98,2.98
			c0,1.64,1.33,2.98,2.98,2.98c1.65,0,2.98-1.33,2.98-2.98c0-1.08-0.58-2.02-1.45-2.54l3.58-8.32c0.94,0.24,1.91,0.39,2.93,0.39
			c0.79,0,1.55-0.08,2.29-0.23c0.35,2.82,0.59,4.68,0.76,5.91c-1.45,0.35-2.53,1.65-2.53,3.21c0,1.83,1.48,3.31,3.31,3.31
			c1.83,0,3.31-1.48,3.31-3.31c0-1.8-1.43-3.25-3.21-3.3c-0.23-1.69-0.53-4.04-0.78-6.03c0.75-0.21,1.48-0.5,2.16-0.85l5.15,10.23
			c-0.47,0.36-0.78,0.91-0.78,1.55c0,1.08,0.87,1.95,1.95,1.95c1.08,0,1.95-0.87,1.95-1.95c0-1.08-0.87-1.95-1.95-1.95
			c-0.12,0-0.24,0.01-0.36,0.04l-5.19-10.3c1.13-0.7,2.14-1.58,2.97-2.61l8.48,7.04c-0.16,0.28-0.25,0.6-0.25,0.94
			c0,1.08,0.87,1.95,1.95,1.95c1.08,0,1.95-0.87,1.95-1.95c0-1.08-0.87-1.95-1.95-1.95c-0.41,0-0.79,0.13-1.1,0.34l-8.54-7.09
			c0.33-0.49,0.62-1,0.88-1.54l6.08,2.88c-0.03,0.11-0.04,0.23-0.04,0.35c0,0.83,0.67,1.5,1.5,1.5s1.5-0.67,1.5-1.5
			s-0.67-1.5-1.5-1.5c-0.39,0-0.73,0.15-1,0.39l-6.19-2.92c0.47-1.2,0.74-2.5,0.79-3.87l7.65-0.53c0.42,1.64,1.9,2.86,3.67,2.86
			c2.1,0,3.8-1.7,3.8-3.8S671.61,124.85,669.51,124.85z M639.11,125.89c-2.37,4.67-0.74,9.42-0.74,9.42
			c-0.67-0.74-2.89-5.27-0.55-9.86c2.84-5.47,8.41-4.82,8.41-4.82S641.48,121.22,639.11,125.89z"/>
	</g>
	<g>
		<circle class="st22" cx="576.39" cy="204.22" r="35.97"/>
		<path class="st55" d="M598.81,213.57h-15.43V229h-15.15v-15.43H552.8v-15.15h15.43v-15.43h15.15v15.43h15.43V213.57z"/>
	</g>
	<g>
		<circle class="st22" cx="168.08" cy="133.98" r="35.97"/>
	</g>
	<path class="st57" d="M189.67,127.49c-1.59-3.78-3.86-5.99-6.05-7.28c-0.64-0.13-1.2-0.2-1.64-0.23c-0.7-0.05-1.13-0.01-1.13-0.01
		c-0.01-0.01-0.02-0.02-0.03-0.03c-0.62-0.53-1.23-0.98-1.84-1.38c-0.36-0.05-0.69-0.09-0.97-0.11c0.31,0.49,0.61,1.07,0.66,1.56
		c0.02,0.26-0.17,0.48-0.42,0.5c-0.04,0-0.09,0-0.13-0.01c-0.2-0.04-0.35-0.2-0.37-0.42c-0.04-0.43-0.5-1.16-0.89-1.68
		c-0.91-0.78-1.82-1.41-2.72-1.91c-5.22-2.94-10.06-1.68-12.2-0.83c0.11,0.05,0.23,0.1,0.34,0.15c0.01,0.01,0.03,0.01,0.04,0.02
		c0.88,0.4,1.9,0.97,2.7,1.75c0.24,0.23,0.46,0.48,0.64,0.75c0.15,0.21,0.1,0.5-0.11,0.65c-0.11,0.08-0.24,0.1-0.36,0.08
		c-0.11-0.02-0.22-0.09-0.29-0.19c-0.08-0.12-0.18-0.23-0.28-0.34c-0.02-0.03-0.05-0.06-0.07-0.08c-0.09-0.1-0.18-0.19-0.28-0.28
		c-0.01-0.01-0.02-0.02-0.04-0.03c-0.24-0.22-0.51-0.42-0.78-0.61c-0.77-0.52-1.61-0.89-2.24-1.14c-0.02-0.01-0.03-0.01-0.05-0.02
		c-0.08-0.03-0.16-0.06-0.24-0.09c-0.02-0.01-0.04-0.01-0.06-0.02c-0.08-0.03-0.16-0.06-0.23-0.08c-9.64-1.89-12.78,5.1-13.02,5.68
		c-0.02,0.05-0.04,0.11-0.06,0.16c-0.01,0.03-0.02,0.06-0.03,0.1c-0.01,0.03-0.02,0.05-0.03,0.08c-0.01,0.05-0.03,0.09-0.04,0.14
		c0,0.01-0.01,0.03-0.01,0.04c-0.02,0.05-0.03,0.11-0.05,0.17c0,0.01,0,0.01-0.01,0.02c-0.02,0.06-0.03,0.13-0.05,0.19c0,0,0,0,0,0
		c-0.16,0.74-0.21,1.61,0.12,2.43c0.02,0.04,0.03,0.09,0.05,0.13c0.11,0.23,0,0.51-0.23,0.61c-0.08,0.04-0.17,0.05-0.25,0.04
		c-0.05-0.01-0.09-0.02-0.14-0.04c-0.01,0-0.01-0.01-0.01-0.01c-0.04-0.02-0.08-0.05-0.12-0.08c-0.02-0.02-0.03-0.03-0.05-0.05
		c-0.02-0.02-0.04-0.05-0.05-0.08c-0.58-1.26-0.42-2.58-0.13-3.58c-5.41,1.43-6.24,6.84-6.33,9.25c0.75-0.53,1.72-1.08,2.83-1.34
		c0.25-0.06,0.5,0.1,0.56,0.34c0.06,0.25-0.1,0.5-0.35,0.56c-1.57,0.37-2.87,1.43-3.5,2.02c-0.8,0.85-2.28,3.07-1.55,7.41
		c0.71,4.26,3.69,5.62,5.23,6.04c0-0.1,0-0.2,0-0.3c0-0.02,0-0.05,0-0.07c0-0.07,0-0.15,0.01-0.22c0-0.01,0-0.02,0-0.04
		c0.01-0.08,0.01-0.17,0.02-0.25c0-0.01,0-0.02,0-0.03c0.01-0.08,0.02-0.17,0.03-0.25c0,0,0,0,0,0c0.01-0.08,0.03-0.16,0.04-0.23
		c0-0.02,0.01-0.05,0.01-0.07c0.01-0.05,0.02-0.11,0.03-0.16c0.01-0.02,0.01-0.05,0.02-0.07c0.02-0.07,0.03-0.13,0.05-0.2
		c0,0,0-0.01,0-0.01c0.02-0.07,0.03-0.13,0.05-0.19c0.01-0.02,0.01-0.04,0.02-0.06c0.01-0.04,0.03-0.09,0.04-0.13
		c0.01-0.02,0.01-0.04,0.02-0.05c0.02-0.05,0.03-0.1,0.05-0.15c0,0,0-0.01,0-0.01c0.02-0.05,0.03-0.1,0.05-0.14
		c0.01-0.01,0.01-0.03,0.01-0.04c0.01-0.03,0.02-0.06,0.03-0.09c0-0.01,0.01-0.02,0.01-0.03c0.03-0.08,0.05-0.14,0.07-0.18
		c0-0.01,0.01-0.01,0.01-0.02c0.01-0.02,0.01-0.03,0.02-0.04c0,0,0-0.01,0.01-0.01c0.01-0.01,0.01-0.02,0.01-0.03
		c0.11-0.23,0.38-0.33,0.62-0.22c0.23,0.11,0.33,0.38,0.22,0.62c0,0,0,0.01-0.01,0.02c0,0.01-0.01,0.02-0.02,0.04c0,0,0,0,0,0
		c-0.11,0.25-0.51,1.3-0.51,2.47c0,0,0,0,0,0c1.05,0.99,2.24,1.47,3.04,1.69c0.57,0.15,0.94,0.18,0.94,0.18c0,0,0,0.01,0,0.01
		c0.54,2.26,1.85,3.76,3.26,4.75c-0.04,0.05-0.08,0.1-0.12,0.16c0.04-0.06,0.09-0.11,0.13-0.17c0.49-0.64,0.96-1.17,1.38-1.62
		c0,0,0,0,0,0c0,0,0,0,0,0c0.09-0.09,0.17-0.18,0.26-0.26c0.01-0.01,0.03-0.03,0.04-0.04c0.81-0.79,1.45-1.25,1.86-1.49c0,0,0,0,0,0
		c0.13-0.08,0.23-0.13,0.3-0.17c0.01,0,0.01-0.01,0.02-0.01c0.02-0.01,0.03-0.02,0.05-0.02c0.01-0.01,0.02-0.01,0.03-0.01
		c0.01,0,0.02-0.01,0.02-0.01c0.01-0.01,0.02-0.01,0.03-0.01c0.24-0.1,0.51,0.02,0.6,0.26c0.1,0.24-0.02,0.51-0.25,0.6
		c-0.03,0.01-1.47,0.64-3.44,3.14c-0.02,0.02-0.03,0.04-0.05,0.06c0.01-0.02,0.02-0.03,0.04-0.05c0,0,0,0,0,0
		c-0.03,0.05-0.06,0.09-0.09,0.14c-1.95,2.96-1.77,6.12-1.77,6.12s0.65,0.2,1.73-0.02c0.49-0.1,1.07-0.29,1.72-0.62
		c0,0,0.76-1.85,2.26-4.12c0.05-0.08,0.1-0.15,0.15-0.23c1.52-2.26,3.76-4.89,6.7-6.52c0.01-0.01,0.02-0.02,0.03-0.03c0,0,0,0,0,0
		c0,0,0,0,0,0c0.28-0.24,0.85-0.61,1.43-0.95c0,0,0,0,0,0c0.07-0.04,0.14-0.08,0.21-0.12c0,0,0.01-0.01,0.01-0.01
		c0.07-0.04,0.13-0.08,0.19-0.11c0.01-0.01,0.02-0.01,0.03-0.02c0.06-0.03,0.12-0.07,0.17-0.1c0.01-0.01,0.03-0.02,0.04-0.02
		c0.05-0.03,0.1-0.06,0.15-0.09c0.02-0.01,0.04-0.02,0.06-0.03c0.04-0.02,0.09-0.05,0.13-0.07c0.02-0.01,0.04-0.02,0.06-0.04
		c0.04-0.02,0.07-0.04,0.11-0.06c0.02-0.01,0.04-0.02,0.07-0.04c0.03-0.01,0.05-0.03,0.08-0.04c0.05-0.03,0.09-0.05,0.12-0.07
		c0.23-0.12,0.51-0.04,0.63,0.19c0.12,0.22,0.04,0.51-0.18,0.63c-0.83,0.45-1.77,1-2.3,1.35c6.73,2.42,11.37-1.38,13.03-3.1
		c-1.89-0.67-3.25-1.99-3.33-2.07c-0.18-0.18-0.18-0.47,0-0.66c0.18-0.18,0.47-0.18,0.66,0c0.02,0.02,1.46,1.42,3.34,1.97
		c0-0.01,0.01-0.01,0.01-0.01C185.63,144.74,193.8,137.29,189.67,127.49z M178.21,122.91c0.24,0.08,0.38,0.34,0.3,0.58
		c-0.07,0.23-0.3,0.36-0.53,0.31c-0.02,0-0.03-0.01-0.05-0.01c-4.14-1.32-5.15-3.93-5.4-4.99c-0.1-0.24,0.02-0.5,0.26-0.59
		c0.24-0.1,0.51,0.03,0.61,0.26c0.01,0.01,0.02,0.06,0.04,0.12C173.65,119.5,174.53,121.73,178.21,122.91z M167.86,125.51
		c0.22-0.2,0.44-0.39,0.69-0.55c2.16-1.47,4.52-0.89,4.62-0.86c0.25,0.06,0.4,0.32,0.33,0.56c-0.06,0.25-0.31,0.4-0.56,0.33
		c-0.02-0.01-2.07-0.5-3.88,0.74c-1.49,1.02-2.42,2.91-2.76,5.63c-0.03,0.25-0.26,0.43-0.52,0.4c-0.01,0-0.02,0-0.03-0.01
		c-0.24-0.05-0.4-0.27-0.37-0.51c0.27-2.12,0.88-3.79,1.83-5.01c-2.44-1.08-4.55-1.71-6.33-1.9c-0.05,0.01-0.11,0.01-0.16,0
		c-0.01,0-0.01,0-0.02,0c-0.02,0-0.03-0.01-0.05-0.02c-2.96-0.26-4.98,0.75-6.03,3.03c-0.12,0.26-0.19,0.42-0.38,0.5
		c-0.09,0.04-0.19,0.05-0.28,0.03c-0.14-0.03-0.27-0.12-0.33-0.26c-0.08-0.18-0.04-0.38,0.08-0.51c0.02-0.04,0.04-0.09,0.07-0.15
		c1.32-2.87,3.82-3.74,6.64-3.57c0.34-2.45-1.84-3.64-1.93-3.69c-0.23-0.12-0.31-0.4-0.19-0.63c0.12-0.23,0.4-0.31,0.63-0.19
		c0.03,0.02,2.82,1.53,2.42,4.6C163.5,123.77,165.79,124.58,167.86,125.51z M153.5,134.29c-0.08-0.01-0.16-0.02-0.23-0.04
		c-0.57,0.85-2.44,3.9-1.66,6.51c0.44,1.5,1.71,2.64,3.75,3.39c0.24,0.09,0.36,0.35,0.28,0.59c-0.08,0.22-0.3,0.34-0.52,0.3
		c-0.02,0-0.05-0.01-0.07-0.02c-0.96-0.35-1.76-0.78-2.42-1.29c-0.42,0.72-1.35,2.53-1.48,4.5c-0.02,0.26-0.24,0.45-0.49,0.43
		c-0.02,0-0.04,0-0.06-0.01c-0.23-0.04-0.39-0.25-0.37-0.49c0.15-2.35,1.31-4.43,1.7-5.08c-0.57-0.6-0.97-1.29-1.2-2.07
		c-0.29-0.97-0.27-1.97-0.1-2.92c-2.19-1.63-3.9-2.2-4.93-1.64c-1.39,0.75-1.5,3.47-1.43,4.45c0.02,0.26-0.17,0.48-0.43,0.5
		c-0.04,0-0.08,0-0.13-0.01c-0.2-0.04-0.36-0.21-0.37-0.42c-0.01-0.17-0.29-4.15,1.91-5.34c1.34-0.72,3.22-0.22,5.61,1.48
		c0.41-1.38,1.09-2.54,1.49-3.17c-2.15-0.97-3.25-3.61-3.3-3.74c-0.1-0.24,0.02-0.51,0.26-0.6c0.24-0.1,0.51,0.02,0.6,0.25
		c0.01,0.03,1.34,3.22,3.71,3.5c1.72,0.2,3.62-1.12,5.65-3.95c0.15-0.21,0.44-0.25,0.65-0.1c0.21,0.15,0.25,0.44,0.1,0.65
		C157.77,133.09,155.58,134.54,153.5,134.29z M161.29,140.61c-0.14,0.15-3.3,3.65-0.65,6.99c0.16,0.2,0.13,0.49-0.07,0.65
		c-0.11,0.09-0.25,0.12-0.38,0.09c-0.1-0.02-0.2-0.08-0.27-0.17c-3.15-3.96,0.66-8.15,0.69-8.19c0.17-0.19,0.47-0.2,0.66-0.03
		C161.45,140.13,161.46,140.42,161.29,140.61z M182.15,138.41c-1.28,0.15-2.42,0.13-3.39-0.07c-1.08-0.21-1.96-0.63-2.65-1.26
		c-0.84-0.77-1.19-1.68-1.33-2.32c-0.07,0.04-0.14,0.08-0.21,0.13c-1.51,0.82-3.16,0.88-4.61,0.94c-1.87,0.07-3.48,0.13-4.48,1.67
		c-0.9,1.38-1.1,2.77-0.53,3.64c0.44,0.67,1.3,0.95,2.36,0.77c2.59-0.44,3.5-2.56,3.54-2.65c0.1-0.24,0.37-0.35,0.6-0.25
		c0.24,0.1,0.35,0.37,0.25,0.6c-0.04,0.11-1.13,2.69-4.24,3.22c-0.54,0.09-1.04,0.09-1.49,0c-0.77-0.15-1.39-0.55-1.8-1.18
		c-0.65-0.99-0.63-2.36,0.04-3.78c-0.82-0.42-2.86-1.3-4.59-0.67c-1.11,0.41-1.93,1.39-2.44,2.94c-0.07,0.23-0.3,0.36-0.53,0.31
		c-0.02,0-0.04-0.01-0.05-0.01c-0.24-0.08-0.38-0.34-0.3-0.58c0.6-1.83,1.61-3.01,3.01-3.52c2.1-0.76,4.42,0.25,5.35,0.73
		c0.01-0.02,0.03-0.04,0.04-0.06c1.26-1.94,3.27-2.01,5.22-2.09c1.42-0.05,2.88-0.11,4.2-0.83c2.92-1.58,1.76-5.06,1.71-5.21
		c-0.08-0.24,0.05-0.51,0.29-0.59c0.24-0.08,0.51,0.04,0.59,0.29c0.01,0.04,1.15,3.43-1.09,5.57c0.04,0.42,0.22,1.46,1.13,2.28
		c1.1,1,2.88,1.36,5.3,1.08c0.25-0.03,0.48,0.15,0.51,0.41C182.59,138.15,182.41,138.38,182.15,138.41z M187.11,128.6
		c-0.13,0.22-0.42,0.29-0.64,0.15c-0.02-0.01-2.31-1.39-3.88-0.34c0.76,1.36,0.98,3.05,0.63,5.02c-0.04,0.25-0.28,0.42-0.54,0.38
		c0,0-0.01,0-0.01,0c-0.25-0.05-0.41-0.29-0.37-0.53c0.36-2.06,0.05-3.73-0.91-4.99c-1.52-1.99-4.18-2.27-4.2-2.27
		c-0.26-0.03-0.44-0.25-0.42-0.51c0.02-0.25,0.25-0.44,0.51-0.42c0.12,0.01,3.01,0.32,4.78,2.54c2.05-1.39,4.76,0.25,4.88,0.32
		C187.18,128.09,187.24,128.38,187.11,128.6z"/>
	<g>
		<circle class="st54" cx="262.46" cy="187.08" r="35.97"/>
		<g>
			<path class="st55" d="M270.37,177.21c0.18-0.03,0.36-0.07,0.54-0.09c0.07-0.01,0.14-0.01,0.21-0.02l-0.24-2.69L270.37,177.21z"/>
			<path class="st55" d="M274.66,198.99l0.36-1.01c-0.14,0.12-0.28,0.25-0.42,0.37L274.66,198.99z"/>
			<path class="st55" d="M231.53,188.44c-0.02,0.31,8.97,1.13,13.91,1.56c-0.18-0.45-0.35-0.9-0.48-1.36L231.53,188.44z"/>
			<path class="st55" d="M293.06,190.9l-12.08-1.12c-0.14,0.45-0.3,0.89-0.5,1.33L293.06,190.9z"/>
			<path class="st55" d="M270.88,174.41l0.24,2.69c0.53-0.06,1.04-0.07,1.55-0.06l-0.76-8.42c-0.03-0.38-0.34-0.68-0.72-0.7
				c0,0-0.01,0-0.01,0c-0.39-0.02-0.73,0.25-0.8,0.63l-1.65,9.04c0.53-0.16,1.08-0.28,1.64-0.37L270.88,174.41z"/>
			<path class="st55" d="M275.02,197.98l-0.36,1.01l-0.06-0.64c-0.47,0.41-0.96,0.81-1.44,1.2l0.28,3.07
				c0.03,0.36,0.31,0.65,0.67,0.7c0.02,0,0.03,0,0.05,0.01c0.34,0.02,0.66-0.19,0.78-0.51l2.65-7.4
				C276.8,196.3,275.93,197.16,275.02,197.98z"/>
			<path class="st55" d="M250.22,184.55c0.14-0.29,0.46-0.47,0.77-0.43c0.32,0.03,0.59,0.26,0.67,0.58l2.35,9.05l2.01-4.67
				c0.13-0.3,0.44-0.47,0.77-0.47l9.8,0.7l2.14-11.73c-2.33,0.69-4.32,1.85-5.41,2.57c-1.26-1.22-3.61-3.14-6.53-3.96
				c-3.33-0.92-6.78-0.33-9.02,1.63c-1.95,1.7-3.02,4.25-3.19,7.58c-0.07,1.07,0.08,2.16,0.4,3.25l3.23,0.05L250.22,184.55z"/>
			<path class="st55" d="M277.58,195.41c1.21-1.37,2.22-2.82,2.9-4.31l-1.37,0.02L277.58,195.41z"/>
			<path class="st55" d="M270.91,177.12c-0.18,0.02-0.36,0.06-0.54,0.09l-2.38,13.07c-0.07,0.39-0.42,0.65-0.82,0.63l-9.94-0.71
				l-2.68,6.24c-0.13,0.3-0.44,0.47-0.77,0.47c-0.33-0.03-0.61-0.26-0.69-0.58l-2.39-9.21l-1.33,2.73
				c-0.14,0.28-0.43,0.45-0.74,0.43c0,0-1.3-0.11-3.17-0.27c3.06,7.46,13.14,14.61,15.48,16.2l0.8,0.54l0.86-0.44
				c1.55-0.79,6.26-3.3,10.58-6.75l-2.03-22.45C271.05,177.11,270.98,177.11,270.91,177.12z"/>
			<path class="st55" d="M275.02,197.98l2.83-7.91c0.11-0.32,0.42-0.53,0.76-0.51l2.37,0.22c0.21-0.68,0.35-1.38,0.4-2.07
				c0.25-3.38-0.49-6.05-2.18-7.94c-1.55-1.73-3.89-2.67-6.53-2.72l1.93,21.32C274.74,198.23,274.88,198.1,275.02,197.98z"/>
		</g>
	</g>
	<g>
		<circle class="st54" cx="166.37" cy="242.81" r="35.97"/>
	</g>
	<g>
		<circle class="st54" cx="556.15" cy="99.14" r="35.97"/>
	</g>
	<g>
		<circle class="st54" cx="646.11" cy="129.1" r="35.97"/>
	</g>
	<g>
		<circle class="st54" cx="575.8" cy="205.99" r="35.97"/>
	</g>
	<g>
		<g>
			<path class="st1" d="M363.07,454.46c2.28,1.32,9.37,7.07,16.78,13.26h167.95l-13.19-26.55c-0.94-1.89-1.14-4.05-0.62-6.1
				c3.29-12.93,2.12-43.44,1.6-48.15c-0.33-2.93,2.36-27.97,2.79-51.31c0.32-17.36-1.85-33.79-0.88-39.48
				c2.27-13.34-3.51-22.81-8.44-25.27c-6.75-3.36-18.73-14.76-18.73-14.76c0.23-6-9.86-19.5-13.64-24.34
				c-0.91-1.17-2.44-1.65-3.86-1.25c-8.42,2.38-10.92,9.74-11.53,15.51c0.22,8.86,0.5,21.45,0.35,24.07
				c-0.22,3.82,0.52,7.4,1.75,10.62c3.67,9.6,11.7,15.99,11.7,15.99s-8.77,8.19-8.77,19.88c0,6.17-1.71,15.69-3.15,23.68
				c-1.29,7.15-2.37,13.09-1.82,14.33l-10.43,23.29l-120.86,0.11l6.87,13.16l-14.22-0.23c0,0,6.7-3.7,7.35-12.92
				c0,0,1.99-9.8-17.02-24.42l-0.52-25.29c0,0,8.48-5.85,5.26-15.5c-3.22-9.65-4.39-17.55-4.39-17.55l0.23-15.09
				c-1.41-0.43-10.23-3.01-19.08-2.49c-9.65,0.57-14.47,8.51-16.74,19.01c-2.27,10.5,11.63,26.39,11.63,26.39
				s-13.9,9.08-12.48,30.65c1.42,21.57,27.24,36.04,27.24,36.04c-5.06,1.48-8.09,11.11-9.3,15.95c-0.45,1.78-0.29,3.67,0.56,5.3
				c10.13,19.55,36.27,25.56,36.27,25.56S357.68,451.34,363.07,454.46z"/>
			<path class="st1" d="M311.71,238.81c-12.72,13.27,0.2,27.23,10.97,35.08c2.46,1.79,9.66,5.57,10.95,6.24l0.69-45.04
				C320.36,233.52,311.71,238.81,311.71,238.81z"/>
			<path class="st1" d="M333.63,280.12l0,0.05c0.13,0.04,0.22,0.07,0.22,0.07S333.76,280.19,333.63,280.12z"/>
			<path class="st1" d="M348.11,349.21h122.17c3.51,0,6.35-2.84,6.35-6.35V98.23c0-3.51-2.84-6.35-6.35-6.35H348.11
				c-3.51,0-6.35,2.84-6.35,6.35v244.63C341.76,346.36,344.6,349.21,348.11,349.21z M436.97,102.37c0-1.21,0.98-2.18,2.18-2.18H468
				c1.21,0,2.18,0.98,2.18,2.18v50.31c0,1.21-0.98,2.18-2.18,2.18h-28.85c-1.21,0-2.18-0.98-2.18-2.18V102.37z"/>
			<path class="st1" d="M439.15,154.86H468c1.21,0,2.18-0.98,2.18-2.18v-50.31c0-1.21-0.98-2.18-2.18-2.18h-28.85
				c-1.21,0-2.18,0.98-2.18,2.18v50.31C436.97,153.89,437.95,154.86,439.15,154.86z"/>
			<path class="st1" d="M426.58,356.71h-31.85c-1.79,0-3.24,1.45-3.24,3.24v8.86c0,1.79,1.45,3.24,3.24,3.24h31.85
				c1.79,0,3.24-1.45,3.24-3.24v-8.86C429.81,358.16,428.37,356.71,426.58,356.71z"/>
			<path class="st1" d="M334.26,133.16c-0.85,0-1.53,0.69-1.53,1.53v22.35c0,0.85,0.69,1.53,1.53,1.53h1.24l0.39-25.42H334.26z"/>
			<path class="st1" d="M334.26,170.44c-0.85,0-1.53,0.69-1.53,1.53v22.35c0,0.85,0.69,1.53,1.53,1.53h0.67l0.39-25.42H334.26z"/>
			<path class="st1" d="M486.13,158.09c0.85,0,1.53-0.69,1.53-1.53v-22.35c0-0.85-0.69-1.53-1.53-1.53h-3.06l-0.49,25.42H486.13z"/>
			<path class="st1" d="M481.65,270.11c0.15-2.62-0.12-15.21-0.35-24.07c-0.13-5.11-0.24-8.98-0.24-8.98l1.51-78.97l0.49-25.42
				l0.22-45.4c0.18-9.56-6.79-18.44-16.35-18.56L352.6,67.36c-8.68-0.1-15.81,6.83-15.94,15.51l-0.77,50.29l-0.39,25.42l-0.18,11.86
				l-0.39,25.42l-0.6,39.22l-0.69,45.04c0.13,0.07,0.22,0.11,0.22,0.11s-0.09-0.03-0.22-0.07l-0.23,15.09c0,0,1.17,7.9,4.39,17.55
				s-5.26,15.5-5.26,15.5l0.52,25.29c19.01,14.62,17.02,24.42,17.02,24.42l120.86-0.11l10.43-23.29c-0.55-1.24,0.53-7.18,1.82-14.33
				l0.23-59.56C482.17,277.51,481.43,273.93,481.65,270.11z M429.81,368.8c0,1.79-1.45,3.24-3.24,3.24h-31.85
				c-1.79,0-3.24-1.45-3.24-3.24v-8.86c0-1.79,1.45-3.24,3.24-3.24h31.85c1.79,0,3.24,1.45,3.24,3.24V368.8z M476.63,342.86
				c0,3.51-2.84,6.35-6.35,6.35H348.11c-3.51,0-6.35-2.84-6.35-6.35V98.23c0-3.51,2.84-6.35,6.35-6.35h122.17
				c3.51,0,6.35,2.84,6.35,6.35V342.86z"/>
		</g>
		<g>
			<path class="st40" d="M343.07,392.25l14.22,0.23l-6.87-13.16C349.76,388.56,343.07,392.25,343.07,392.25z"/>
			<path class="st58" d="M363.43,455.77c2.12,1.23,8.38,6.27,15.2,11.94h168.88l-12.54-25.23c-0.94-1.89-1.14-4.05-0.62-6.1
				c3.29-12.93,2.12-43.44,1.6-48.15c-0.33-2.93,2.36-27.97,2.79-51.31c0.32-17.36-1.85-33.79-0.88-39.48
				c2.27-13.34-3.51-22.81-8.44-25.27c-6.75-3.36-18.73-14.76-18.73-14.76c0.23-6-9.86-19.5-13.64-24.34
				c-0.91-1.17-2.44-1.65-3.86-1.25c-8.42,2.38-10.92,9.74-11.53,15.51c0.22,8.86,0.5,21.45,0.35,24.07
				c-0.22,3.82,0.52,7.4,1.75,10.62c3.67,9.6,11.7,15.99,11.7,15.99s-8.77,8.19-8.77,19.88c0,6.17-1.71,15.69-3.15,23.68
				c-1.29,7.15-2.37,13.09-1.82,14.33l-10.43,23.29l-120.86,0.11l6.87,13.16l-14.22-0.23c0,0,6.7-3.7,7.35-12.92
				c0,0,1.98-9.8-17.02-24.42l-0.52-25.29c0,0,8.48-5.85,5.26-15.5c-3.22-9.65-4.39-17.55-4.39-17.55l0.23-15.09
				c-1.41-0.43-10.23-3.01-19.08-2.49c-9.65,0.57-14.47,8.51-16.74,19.01c-2.27,10.5,11.63,26.39,11.63,26.39
				s-13.9,9.08-12.48,30.65c1.42,21.57,27.24,36.04,27.24,36.04c-5.06,1.48-8.09,11.11-9.3,15.95c-0.45,1.78-0.29,3.67,0.56,5.3
				c10.13,19.55,36.27,25.56,36.27,25.56S358.03,452.65,363.43,455.77z"/>
			<path class="st58" d="M312.07,240.12c-12.72,13.27,0.2,27.23,10.97,35.08c2.46,1.79,9.66,5.57,10.95,6.24l0.69-45.04
				C320.71,234.84,312.07,240.12,312.07,240.12z"/>
			<path class="st54" d="M333.98,281.44l0,0.05c0.13,0.04,0.22,0.07,0.22,0.07S334.11,281.5,333.98,281.44z"/>
			<path class="st0" d="M348.46,350.52h122.17c3.51,0,6.35-2.84,6.35-6.35V99.55c0-3.51-2.84-6.35-6.35-6.35H348.46
				c-3.51,0-6.35,2.84-6.35,6.35v244.63C342.11,347.68,344.95,350.52,348.46,350.52z M437.32,103.69c0-1.21,0.98-2.18,2.18-2.18
				h28.85c1.21,0,2.18,0.98,2.18,2.18V154c0,1.21-0.98,2.18-2.18,2.18H439.5c-1.21,0-2.18-0.98-2.18-2.18V103.69z"/>
			<path class="st0" d="M439.5,156.18h28.85c1.21,0,2.18-0.98,2.18-2.18v-50.31c0-1.21-0.98-2.18-2.18-2.18H439.5
				c-1.21,0-2.18,0.98-2.18,2.18V154C437.32,155.2,438.3,156.18,439.5,156.18z"/>
			<path class="st0" d="M426.93,358.02h-31.85c-1.79,0-3.24,1.45-3.24,3.24v8.86c0,1.79,1.45,3.24,3.24,3.24h31.85
				c1.79,0,3.24-1.45,3.24-3.24v-8.86C430.17,359.47,428.72,358.02,426.93,358.02z"/>
			<path class="st55" d="M334.61,134.47c-0.85,0-1.53,0.69-1.53,1.53v22.35c0,0.85,0.69,1.53,1.53,1.53h1.24l0.39-25.42H334.61z"/>
			<path class="st55" d="M334.61,171.76c-0.85,0-1.53,0.69-1.53,1.53v22.35c0,0.85,0.69,1.53,1.53,1.53h0.67l0.39-25.42H334.61z"/>
			<path class="st55" d="M486.48,159.41c0.85,0,1.53-0.69,1.53-1.53v-22.35c0-0.85-0.69-1.53-1.53-1.53h-3.06l-0.49,25.42H486.48z"
				/>
			<path class="st55" d="M482.01,271.43c0.15-2.62-0.12-15.21-0.35-24.07c-0.13-5.11-0.24-8.98-0.24-8.98l1.51-78.98l0.49-25.42
				l0.22-45.4c0.18-9.56-6.79-18.44-16.35-18.55l-114.33-1.36c-8.68-0.1-15.81,6.83-15.94,15.51l-0.77,50.29l-0.39,25.42
				l-0.18,11.86l-0.39,25.42l-0.6,39.22l-0.69,45.04c0.13,0.07,0.22,0.11,0.22,0.11s-0.09-0.03-0.22-0.07l-0.23,15.09
				c0,0,1.17,7.9,4.39,17.55s-5.26,15.5-5.26,15.5l0.52,25.29c19.01,14.62,17.02,24.42,17.02,24.42l120.86-0.11l10.43-23.29
				c-0.55-1.24,0.53-7.18,1.82-14.33l0.23-59.56C482.53,278.83,481.79,275.25,482.01,271.43z M430.17,370.12
				c0,1.79-1.45,3.24-3.24,3.24h-31.85c-1.79,0-3.24-1.45-3.24-3.24v-8.86c0-1.79,1.45-3.24,3.24-3.24h31.85
				c1.79,0,3.24,1.45,3.24,3.24V370.12z M476.98,344.17c0,3.51-2.84,6.35-6.35,6.35H348.46c-3.51,0-6.35-2.84-6.35-6.35V99.55
				c0-3.51,2.84-6.35,6.35-6.35h122.17c3.51,0,6.35,2.84,6.35,6.35V344.17z"/>
		</g>
		<g>
			<defs>
				<path id="SVGID_7_" d="M476.26,343.25c0,3.51-2.84,6.35-6.35,6.35H347.73c-3.51,0-6.35-2.84-6.35-6.35V98.62
					c0-3.51,2.84-6.35,6.35-6.35h122.17c3.51,0,6.35,2.84,6.35,6.35V343.25z"/>
			</defs>
			<clipPath id="SVGID_2_">
				<use xlink:href="#SVGID_7_"  style="overflow:visible;"/>
			</clipPath>
			<g class="st30">
				<path class="st1" d="M478.92,259.27l-2.96-2.42L448,242.33c-0.54-4.03-16.67-20.17-16.67-20.17l-9.68,41.14l-0.54,0.58
					c-3.36,16.17-17.87,85.97-17.87,87.76c0,2.03-6.67-0.58-6.67-0.58s-12.18-97.76-13.63-108.21c-1.23-8.87,3.38-16.88,4.81-19.1
					l0.81-2.64c-4.66,0.67-13.52,16.43-18.25,19.06c-4.84,2.69-29.04,9.41-29.04,9.41h-4.3c0,0-0.27,90.08-0.54,92.23
					c-0.27,2.15,6.45,10.76,6.45,10.76s114.82,2.69,117.78,3.76c2.96,1.08,18.82-8.6,18.82-8.6L478.92,259.27z"/>
				<path class="st1" d="M384,235.88l3.73-12.12c-1.42,2.22-6.04,10.23-4.81,19.1c1.45,10.44,13.63,108.21,13.63,108.21
					s6.67,2.61,6.67,0.58c0-1.8,14.51-71.6,17.87-87.76l-14.78,15.82C406.32,279.71,392.61,241.8,384,235.88z"/>
				<path class="st1" d="M430.75,215.61c-1.8,2.1-3.97,4.3-6.46,6.38c-1.14,0.96-2.34,1.89-3.61,2.78
					c-3.59,2.51-7.42,3.4-10.83,3.51c-5.55,0.18-10-1.69-10.45-1.92c-0.48-0.24-0.95-0.54-1.43-0.89c-1.41-1.04-2.78-2.53-4.1-4.24
					c-1.3-1.7-2.54-3.6-3.67-5.49l-1.66,5.39l-0.81,2.64L384,235.88c8.6,5.92,22.32,43.83,22.32,43.83l14.78-15.82l0.54-0.58
					l9.68-41.14L430.75,215.61z"/>
				<path class="st1" d="M444.04,174.24c-2.45-1.22-5.87,4.53-5.87,4.16c0-0.37,1.83-17.74,1.59-18.72
					c-0.24-0.98-0.24-4.89-5.02-7.22c-4.77-2.32-4.89-6.61-7.83-6.85c-2.94-0.24-9.42-4.16-12.72-4.16c-3.3,0-7.95-0.61-10.28-0.49
					c-2.32,0.12-2.69,1.59-6.48,2.45c-3.79,0.86-6.85,0.61-9.42,3.18c-2.57,2.57-6.85,3.55-6.97,7.71
					c-0.12,4.16,0.37,20.92,0.37,20.92s-3.18-6.61-5.14-4.16c-1.96,2.45,0.86,20.31,2.08,22.39c1.22,2.08,3.67,4.4,3.67,4.4
					s0.61,5.87,2.57,8.2c0.97,1.15,3.01,5.35,5.61,9.68c1.13,1.88,2.37,3.79,3.67,5.49c1.31,1.71,2.69,3.2,4.1,4.24
					c0.47,0.35,0.95,0.66,1.43,0.89c0.45,0.23,4.9,2.09,10.45,1.92c3.41-0.11,7.25-0.99,10.83-3.51c1.27-0.89,2.47-1.82,3.61-2.78
					c2.49-2.09,4.66-4.28,6.46-6.38c3.5-4.09,5.57-7.81,5.71-9.56c0.24-3.06,0.49-9.66,0.49-9.66s1.47,0.49,2.32-0.49
					C440.13,194.92,446.49,175.47,444.04,174.24z"/>
			</g>
			<g class="st30">
				<path class="st22" d="M479.69,258.51l-2.96-2.42l-27.97-14.52c-0.54-4.03-16.67-20.17-16.67-20.17l-9.68,41.14l-0.54,0.58
					c-3.36,16.17-17.87,85.97-17.87,87.76c0,2.03-6.67-0.58-6.67-0.58s-12.18-97.76-13.63-108.21c-1.23-8.87,3.38-16.88,4.81-19.1
					l0.81-2.64c-4.66,0.67-13.52,16.43-18.25,19.06c-4.84,2.69-29.04,9.41-29.04,9.41h-4.3c0,0-0.27,90.08-0.54,92.23
					c-0.27,2.15,6.45,10.76,6.45,10.76s114.82,2.69,117.78,3.76c2.96,1.08,18.82-8.6,18.82-8.6L479.69,258.51z"/>
				<path class="st1" d="M384.77,235.11l3.73-12.12c-1.42,2.22-6.04,10.23-4.81,19.1c1.45,10.44,13.63,108.21,13.63,108.21
					s6.67,2.61,6.67,0.58c0-1.8,14.51-71.6,17.87-87.76l-14.78,15.82C407.09,278.94,393.38,241.03,384.77,235.11z"/>
				<path class="st11" d="M431.52,214.84c-1.8,2.1-3.97,4.3-6.46,6.38c-1.14,0.96-2.34,1.89-3.61,2.78
					c-3.59,2.51-7.42,3.4-10.83,3.51c-5.55,0.18-10-1.69-10.45-1.92c-0.48-0.24-0.95-0.54-1.43-0.89c-1.41-1.04-2.78-2.53-4.1-4.24
					c-1.3-1.7-2.54-3.6-3.67-5.49l-1.66,5.39l-0.81,2.64l-3.73,12.12c8.6,5.92,22.32,43.83,22.32,43.83l14.78-15.82l0.54-0.58
					l9.68-41.14L431.52,214.84z"/>
				<path class="st11" d="M444.81,173.48c-2.45-1.22-5.87,4.53-5.87,4.16c0-0.37,1.83-17.74,1.59-18.72
					c-0.24-0.98-0.24-4.89-5.02-7.22c-4.77-2.32-4.89-6.61-7.83-6.85c-2.94-0.24-9.42-4.16-12.72-4.16s-7.95-0.61-10.28-0.49
					c-2.32,0.12-2.69,1.59-6.48,2.45c-3.79,0.86-6.85,0.61-9.42,3.18c-2.57,2.57-6.85,3.55-6.97,7.71
					c-0.12,4.16,0.37,20.92,0.37,20.92s-3.18-6.61-5.14-4.16c-1.96,2.45,0.86,20.31,2.08,22.39c1.22,2.08,3.67,4.4,3.67,4.4
					s0.61,5.87,2.57,8.2c0.97,1.15,3.01,5.35,5.61,9.68c1.13,1.88,2.37,3.79,3.67,5.49c1.31,1.71,2.69,3.2,4.1,4.24
					c0.47,0.35,0.95,0.66,1.43,0.89c0.45,0.23,4.9,2.09,10.45,1.92c3.41-0.11,7.25-0.99,10.83-3.51c1.27-0.89,2.47-1.82,3.61-2.78
					c2.49-2.09,4.66-4.28,6.46-6.38c3.5-4.09,5.57-7.81,5.71-9.56c0.24-3.06,0.49-9.66,0.49-9.66s1.47,0.49,2.32-0.49
					C440.9,194.15,447.26,174.7,444.81,173.48z"/>
			</g>
			<path style="clip-path:url(#SVGID_2_);fill:#54575C;" d="M460.01,174.97c0.03-0.91-1.19-2.02-2.07-2.76
				c-1-0.84-1.64-1.65-1.52-3.03c0.27-3.08-0.75-5.51-3.52-7.19c-0.81-0.49-1.47-1.48-1.83-2.39c-0.6-1.52-0.97-3.13-1.47-4.96
				h-10.48c-1.19,0-2.16-0.97-2.16-2.16v-18.23c-0.04-0.04-0.08-0.09-0.13-0.13c0,0.69-0.01,1.39-0.01,2.15
				c-0.49-0.44-0.93-0.67-1.12-1.03c-1.39-2.64-3.79-3.66-6.52-4.03c-2.01-0.27-3.71-0.58-4.88-2.68c-1.02-1.84-3.04-2.57-5.16-1.83
				c-1.13,0.4-2,0.17-2.92-0.36c-1.78-1.01-3.53-1.09-5.37-0.03c-1.85,1.07-3.84,1.39-5.92,0.58c-1.26-0.49-2.47-0.26-3.75,0.16
				c-1.18,0.38-2.51,0.43-3.76,0.4c-1.43-0.04-2.6,0.12-3.74,1.2c-1.09,1.04-2.58,1.65-3.82,2.54c-1.84,1.3-3.37,2.86-4.14,5.08
				c-0.26,0.76-0.8,1.44-1.26,2.13c-0.23,0.35-0.79,0.64-0.8,0.97c-0.08,2.2-2,3.29-2.96,4.94c-0.64,1.1-2.05,1.77-2.37,3.16
				c-0.54,2.38-0.98,4.79-1.46,7.18c-0.02,0.08,0.03,0.17,0.02,0.26c-0.46,4.86-0.65,9.73-0.44,14.61c0.03,0.61-0.34,1.33-0.72,1.86
				c-1.22,1.69-1.44,3.63-1.61,5.61c-0.11,1.35-0.41,2.68-0.48,4.03c-0.18,3.42-1.76,6.21-3.73,8.88c-1.35,1.83-1.28,2.37-0.01,4.27
				c0.63-0.33,1.27-0.71,1.94-1.02c1.53-0.7,2.19-0.48,2.69,1.15c0.33,1.08,0.93,1.73,1.83,2.35c1.52,1.05,1.71,2.09,0.93,3.76
				c-0.22,0.46-0.65,0.93-0.62,1.37c0.14,2.05-0.35,3.86-1.44,5.62c-0.29,0.47-0.05,1.86,0.31,2.01c1.11,0.48,1.7,1.27,2.31,2.22
				c0.27,0.42,0.98,0.58,1.52,0.79c0.79,0.3,1.6,0.54,2.51,0.85c-0.03,1.09-0.72,2.27,0.67,2.91c0.19,0.09,0.12,0.95,0,1.42
				c-0.42,1.75-0.83,3.5-1.39,5.21c-0.41,1.23-0.64,2.33,0.7,3.27c-0.43,0.61-0.85,1.2-1.28,1.81c0.69-0.13,1.37-0.27,2.06-0.43
				c0.42-0.56,0.84-1.13,1.28-1.68c0.02-0.03,0.04-0.05,0.06-0.08c1.33-3.95,3.77-7.27,7.14-9.59c-2.05-3.22-4.1-6.44-6.13-9.67
				c-1.75-2.78-2.62-5.73-2.97-8.8c-1.48-0.97-2.7-2.21-3.61-3.75c-0.38-0.9-0.76-1.79-1.14-2.69c-0.32-1.21-0.43-2.42-0.36-3.63
				c-1.31-3.89-0.85-7.82-0.39-11.77c0.13-1.1,0.01-2.22,0.11-3.33c0.04-0.44,0.29-1.08,0.63-1.23c0.37-0.16,0.96,0.09,1.4,0.28
				c0.29,0.12,0.59,0.43,0.7,0.72c0.67,1.73,2.28,1.38,1.98-1.22c-0.37-3.24,0.23-6.73,0.05-9.98c-0.21-3.99-0.86-7.65,2.05-10.78
				c0.81-0.87,1.76-1.61,2.68-2.36c0.39-0.32,0.92-0.49,1.3-0.82c2.8-2.44,5.93-3.96,9.75-4.01c1.03-0.01,2.11-0.7,3.06-1.27
				c2.03-1.24,4.14-1.49,6.43-0.95c0.99,0.23,2.07,0.42,3.05,0.26c3.64-0.58,6.97,0.44,10.28,1.72c0.72,0.28,1.4,0.68,2.13,0.9
				c4.22,1.23,7.89,3.23,10.44,6.99c0.4,0.59,1.22,0.9,1.88,1.29c2.12,1.26,3.9,2.91,4.8,5.21c0.52,1.31,0.92,2.88,0.71,4.23
				c-0.89,5.93-1.2,11.89-1.45,17.87c0.22,0.27,2.14-3.66,3.8-4.78c1.34-0.9,2.4-0.4,2.48,1.21c0.08,1.61,0.08,3.31-0.34,4.84
				c-1.29,4.62-2.79,9.18-4.22,13.76c-0.25,0.79-0.42,1.67-1.84,1.99c0-0.8-1.56-0.84-1.72-0.63c-0.09,0.12,0.5,4.76,0.31,7.48
				c-0.21,2.98-1.18,5.71-2.93,8.13c-1.42,1.96-2.95,3.83-4.54,5.64c0.65,0.97,1.11,2.06,1.32,3.27c0.26,1.53,0.45,3.05,0.64,4.55
				c0.03-0.08,0.06-0.15,0.09-0.23c0.28-0.01,0.57-0.03,0.85-0.04c-0.21,1.47,0.56,2.33,1.34,3.19c3.22,1.14,6.09,3.41,8.2,6.02
				c0.33,0.41,0.65,0.84,0.97,1.26c0.56-0.36,1.15-0.74,2-1.29c0.55,0.73,1.1,1.47,1.7,2.27c2.5-0.97,2.86-3.09,3.11-5.12
				c1.1-0.26,1.4,0.23,1.55,1.02c0.26,1.39,0.57,2.77,0.86,4.14c3.14-0.53,3.63-1.36,2.74-4.13c-0.12-0.38-0.13-0.83-0.08-1.23
				c0.26-1.88,0.28-1.88-0.91-3.53c0.7-1.62,1.6-3.15,1.17-5.24c-0.46-2.26,0.99-4.42,1.9-6.4c0.74-1.62,1.03-2.79,0.05-4.2
				c0.73-1.46,1.54-2.88-0.08-4.21c-0.06-0.05-0.1-0.15-0.11-0.23c-0.18-3.06-0.36-6.13-0.52-9.19c-0.01-0.1,0.19-0.22,0.38-0.42
				c0.6,1.54,1.5,2.99,1.67,4.52c0.16,1.43-0.45,2.94-0.74,4.54c1.93-0.69,3.07-2.55,2.58-4.44c-0.34-1.33-0.35-2.52,0.18-3.75
				c0.1-0.23,0.23-0.56,0.15-0.74c-1.05-2.22,0.19-4.29,0.29-6.42c0.06-1.29-0.99-2.63-1.54-3.95c1.25-0.56,1.28-1.61,1.06-2.78
				c-0.13-0.66-0.56-1.63-0.29-1.94C462.28,179.79,459.94,177.39,460.01,174.97z M459.29,186.93c-0.27-0.66-0.54-1.31-0.87-2.14
				C459.53,185.45,459.54,185.46,459.29,186.93z"/>
		</g>
		<g>
			<path class="st40" d="M341.35,391.49l14.22,0.23l-6.87-13.16C348.05,387.8,341.35,391.49,341.35,391.49z"/>
			<path class="st54" d="M361.71,455.01c2.21,1.28,8.95,6.73,16.12,12.7h168.34l-12.92-25.99c-0.94-1.89-1.14-4.05-0.62-6.1
				c3.29-12.93,2.12-43.44,1.6-48.15c-0.33-2.93,2.36-27.97,2.79-51.31c0.32-17.36-1.85-33.79-0.88-39.48
				c2.27-13.34-3.51-22.81-8.44-25.27c-6.75-3.36-18.73-14.76-18.73-14.76c0.23-6-9.86-19.5-13.64-24.34
				c-0.91-1.17-2.44-1.65-3.86-1.24c-8.42,2.38-10.92,9.74-11.53,15.51c0.22,8.86,0.5,21.45,0.35,24.07
				c-0.22,3.82,0.52,7.4,1.75,10.62c3.67,9.6,11.7,15.99,11.7,15.99s-8.77,8.19-8.77,19.88c0,6.17-1.71,15.69-3.15,23.68
				c-1.29,7.15-2.37,13.09-1.82,14.33l-10.43,23.29l-120.86,0.11l6.87,13.16l-14.22-0.23c0,0,6.7-3.7,7.35-12.92
				c0,0,1.98-9.8-17.02-24.42l-0.52-25.29c0,0,8.48-5.85,5.26-15.5c-3.22-9.65-4.39-17.55-4.39-17.55l0.23-15.09
				c-1.41-0.43-10.23-3.01-19.08-2.49c-9.65,0.57-14.47,8.51-16.74,19.01c-2.27,10.5,11.63,26.39,11.63,26.39
				s-13.9,9.08-12.48,30.65c1.42,21.57,27.24,36.04,27.24,36.04c-5.06,1.48-8.09,11.11-9.3,15.95c-0.45,1.78-0.29,3.67,0.56,5.3
				c10.13,19.55,36.27,25.56,36.27,25.56S356.32,451.89,361.71,455.01z"/>
			<path class="st54" d="M310.35,239.36c-12.72,13.27,0.2,27.23,10.97,35.08c2.46,1.79,9.66,5.57,10.95,6.24l0.69-45.04
				C318.99,234.08,310.35,239.36,310.35,239.36z"/>
			<path class="st54" d="M332.26,280.68l0,0.05c0.13,0.04,0.22,0.07,0.22,0.07S332.39,280.74,332.26,280.68z"/>
			<path class="st54" d="M484.97,317.16c0-11.7,8.77-19.88,8.77-19.88s-8.03-6.39-11.7-15.99l-0.23,59.56
				C483.26,332.85,484.97,323.34,484.97,317.16z"/>
			<path class="st54" d="M346.74,349.76h122.17c3.51,0,6.35-2.84,6.35-6.35V98.78c0-3.51-2.84-6.35-6.35-6.35H346.74
				c-3.51,0-6.35,2.84-6.35,6.35v244.63C340.39,346.92,343.23,349.76,346.74,349.76z"/>
			<path class="st54" d="M425.21,357.26h-31.85c-1.79,0-3.24,1.45-3.24,3.24v8.86c0,1.79,1.45,3.24,3.24,3.24h31.85
				c1.79,0,3.24-1.45,3.24-3.24v-8.86C428.45,358.71,427,357.26,425.21,357.26z"/>
			<path class="st54" d="M332.89,133.71c-0.85,0-1.53,0.69-1.53,1.53v22.35c0,0.85,0.69,1.53,1.53,1.53h1.24l0.39-25.42H332.89z"/>
			<path class="st54" d="M332.89,170.99c-0.85,0-1.53,0.69-1.53,1.53v22.35c0,0.85,0.69,1.53,1.53,1.53h0.67l0.39-25.42H332.89z"/>
			<path class="st54" d="M484.76,158.65c0.85,0,1.53-0.69,1.53-1.53v-22.35c0-0.85-0.69-1.53-1.53-1.53h-3.06l-0.49,25.42H484.76z"
				/>
			<path class="st54" d="M480.29,270.67c0.15-2.62-0.12-15.21-0.35-24.07c-0.13-5.11-0.24-8.98-0.24-8.98l1.51-78.98l0.49-25.42
				l0.22-45.4c0.18-9.56-6.79-18.44-16.35-18.55l-114.33-1.36c-8.68-0.1-15.81,6.83-15.94,15.51l-0.77,50.29l-0.39,25.42
				l-0.18,11.86l-0.39,25.42l-0.6,39.22l-0.69,45.04c0.13,0.07,0.22,0.11,0.22,0.11s-0.09-0.03-0.22-0.07l-0.23,15.09
				c0,0,1.17,7.9,4.39,17.55s-5.26,15.5-5.26,15.5l0.52,25.29c19.01,14.62,17.02,24.42,17.02,24.42l120.86-0.11L480,355.18
				c-0.55-1.24,0.53-7.18,1.82-14.33l0.23-59.56C480.81,278.07,480.07,274.49,480.29,270.67z M428.45,369.36
				c0,1.79-1.45,3.24-3.24,3.24h-31.85c-1.79,0-3.24-1.45-3.24-3.24v-8.86c0-1.79,1.45-3.24,3.24-3.24h31.85
				c1.79,0,3.24,1.45,3.24,3.24V369.36z M475.27,343.41c0,3.51-2.84,6.35-6.35,6.35H346.74c-3.51,0-6.35-2.84-6.35-6.35V98.78
				c0-3.51,2.84-6.35,6.35-6.35h122.17c3.51,0,6.35,2.84,6.35,6.35V343.41z"/>
		</g>
		<path class="st54" d="M382.35,343.87c0,0,6.9,1.53,8.68-0.51"/>
		<path class="st54" d="M355.57,391.73c0,0,3.28,8.6,2.77,10.64"/>
		<path class="st54" d="M347.36,396.75c1.02,0.26,31.16,16.09,34.74,17.88s13.28,9.96,11.49,15.58s-10.35,18.71-43.23,6.93"/>
		<path class="st54" d="M387.72,426.63c0,0-1.53,10.22-5.36,11.49c-3.83,1.28-17.37-3.32-18.39-7.41
			c-1.02-4.09,4.85-11.75,8.94-11.24C376.99,419.99,387.97,424.08,387.72,426.63z"/>
		<path class="st54" d="M340.72,373.76c0,0,1.53,13.54-10.73,15.33c0,0-14.56-9.96-14.3-18.14c0.26-8.17,7.66-9.2,9.96-8.17
			C327.95,363.8,340.72,373.76,340.72,373.76z"/>
		<path class="st54" d="M341.35,391.49c0,0-7.02,6.53-18.51-1.17"/>
		<path class="st54" d="M508.98,256.67c0,0-2.99,6.23-7.08,5.21c-4.09-1.02-12.26-16.09-10.98-22.22c1.28-6.13,4.43-7.32,4.43-7.32"
			/>
		<path class="st54" d="M469.56,378.46c0,0-8.03,21.64-9.05,32.08c-1.02,10.47-0.26,18.9-0.26,18.9"/>
		<g>
			<defs>
				<path id="SVGID_9_" d="M475.27,343.41c0,3.51-2.84,6.35-6.35,6.35H346.74c-3.51,0-6.35-2.84-6.35-6.35V98.78
					c0-3.51,2.84-6.35,6.35-6.35h122.17c3.51,0,6.35,2.84,6.35,6.35V343.41z"/>
			</defs>
			<clipPath id="SVGID_4_">
				<use xlink:href="#SVGID_9_"  style="overflow:visible;"/>
			</clipPath>
			<path style="clip-path:url(#SVGID_4_);fill:#FFFFFF;" d="M421.5,206.79c0,0-8.52,1.44-15.36,1.08
				c-6.84-0.36-10.56-1.56-11.16-1.32c-0.6,0.24,3.24,3.36,4.56,4.2c1.32,0.84,8.04,4.68,14.4,1.68
				C420.3,209.44,421.5,206.79,421.5,206.79z"/>
			<g style="clip-path:url(#SVGID_4_);">
				<path class="st54" d="M477.93,259.43l-2.96-2.42l-27.97-14.52c-0.54-4.03-16.67-20.17-16.67-20.17l-9.68,41.14l-0.54,0.58
					c-3.36,16.17-17.87,85.97-17.87,87.76c0,2.03-6.67-0.58-6.67-0.58s-12.18-97.76-13.63-108.21c-1.23-8.87,3.38-16.88,4.81-19.1
					l0.81-2.64c-4.66,0.67-13.52,16.43-18.25,19.06c-4.84,2.69-29.04,9.41-29.04,9.41h-4.3c0,0-0.27,90.08-0.54,92.23
					c-0.27,2.15,6.45,10.76,6.45,10.76s114.82,2.69,117.78,3.76c2.96,1.08,18.82-8.6,18.82-8.6L477.93,259.43z"/>
				<path class="st54" d="M383.01,236.04l3.73-12.12c-1.42,2.22-6.04,10.23-4.81,19.1c1.45,10.44,13.63,108.21,13.63,108.21
					s6.67,2.61,6.67,0.58c0-1.8,14.51-71.6,17.87-87.76l-14.78,15.82C405.33,279.87,391.61,241.96,383.01,236.04z"/>
				<path class="st54" d="M429.75,215.77c-1.8,2.1-3.97,4.3-6.46,6.38c-1.14,0.96-2.34,1.89-3.61,2.78
					c-3.59,2.51-7.42,3.4-10.83,3.51c-5.55,0.18-10-1.69-10.45-1.92c-0.48-0.24-0.95-0.54-1.43-0.89c-1.41-1.04-2.78-2.53-4.1-4.24
					c-1.3-1.7-2.54-3.6-3.67-5.49l-1.66,5.39l-0.81,2.64l-3.73,12.12c8.6,5.92,22.32,43.83,22.32,43.83l14.78-15.82l0.54-0.58
					l9.68-41.14L429.75,215.77z"/>
				<path class="st54" d="M443.05,174.4c-2.45-1.22-5.87,4.53-5.87,4.16c0-0.37,1.83-17.74,1.59-18.72
					c-0.24-0.98-0.24-4.89-5.02-7.22c-4.77-2.32-4.89-6.61-7.83-6.85c-2.94-0.24-9.42-4.16-12.72-4.16c-3.3,0-7.95-0.61-10.28-0.49
					c-2.32,0.12-2.69,1.59-6.48,2.45c-3.79,0.86-6.85,0.61-9.42,3.18c-2.57,2.57-6.85,3.55-6.97,7.71
					c-0.12,4.16,0.37,20.92,0.37,20.92s-3.18-6.61-5.14-4.16c-1.96,2.45,0.86,20.31,2.08,22.39c1.22,2.08,3.67,4.4,3.67,4.4
					s0.61,5.87,2.57,8.2c0.97,1.15,3.01,5.35,5.61,9.68c1.13,1.88,2.37,3.79,3.67,5.49c1.31,1.71,2.69,3.2,4.1,4.24
					c0.47,0.35,0.95,0.66,1.43,0.89c0.45,0.23,4.9,2.09,10.45,1.92c3.41-0.11,7.25-0.99,10.83-3.51c1.27-0.89,2.47-1.82,3.61-2.78
					c2.49-2.09,4.66-4.28,6.46-6.38c3.5-4.09,5.57-7.81,5.71-9.56c0.24-3.06,0.49-9.66,0.49-9.66s1.47,0.49,2.32-0.49
					C439.14,195.08,445.5,175.63,443.05,174.4z"/>
			</g>
			<path style="clip-path:url(#SVGID_4_);fill:#54575C;" d="M458.76,174.62c0.03-0.91-1.19-2.02-2.07-2.76
				c-1-0.84-1.64-1.65-1.52-3.03c0.27-3.08-0.75-5.51-3.52-7.19c-0.81-0.49-1.47-1.48-1.83-2.39c-0.6-1.52-0.97-3.13-1.47-4.96
				h-10.48c-1.19,0-2.16-0.97-2.16-2.16v-18.23c-0.04-0.04-0.08-0.09-0.13-0.13c0,0.69-0.01,1.39-0.01,2.15
				c-0.49-0.44-0.93-0.67-1.12-1.03c-1.39-2.64-3.79-3.66-6.52-4.03c-2.01-0.27-3.71-0.58-4.88-2.68c-1.02-1.84-3.04-2.57-5.16-1.83
				c-1.13,0.4-2,0.17-2.92-0.36c-1.78-1.01-3.53-1.09-5.37-0.03c-1.85,1.07-3.84,1.39-5.92,0.58c-1.26-0.49-2.47-0.26-3.75,0.16
				c-1.18,0.38-2.51,0.43-3.76,0.4c-1.43-0.04-2.6,0.12-3.74,1.2c-1.09,1.04-2.58,1.65-3.82,2.54c-1.84,1.3-3.37,2.86-4.14,5.08
				c-0.26,0.76-0.8,1.44-1.26,2.13c-0.23,0.35-0.79,0.64-0.8,0.97c-0.08,2.2-2,3.29-2.96,4.94c-0.64,1.1-2.05,1.77-2.37,3.16
				c-0.54,2.38-0.98,4.79-1.46,7.18c-0.02,0.08,0.03,0.17,0.02,0.26c-0.46,4.86-0.65,9.73-0.44,14.61c0.03,0.61-0.34,1.33-0.72,1.86
				c-1.22,1.69-1.44,3.63-1.61,5.61c-0.11,1.35-0.41,2.68-0.48,4.03c-0.18,3.42-1.76,6.21-3.73,8.88c-1.35,1.83-1.28,2.37-0.01,4.27
				c0.63-0.33,1.27-0.71,1.94-1.02c1.53-0.7,2.19-0.48,2.69,1.15c0.33,1.08,0.93,1.73,1.83,2.35c1.52,1.05,1.71,2.09,0.93,3.76
				c-0.22,0.46-0.65,0.93-0.62,1.37c0.14,2.05-0.35,3.86-1.44,5.62c-0.29,0.47-0.05,1.86,0.31,2.01c1.11,0.48,1.7,1.27,2.31,2.22
				c0.27,0.42,0.98,0.58,1.52,0.79c0.79,0.3,1.6,0.54,2.51,0.85c-0.03,1.09-0.72,2.27,0.67,2.91c0.19,0.09,0.12,0.95,0,1.42
				c-0.42,1.75-0.83,3.5-1.39,5.21c-0.41,1.23-0.64,2.33,0.7,3.27c-0.43,0.61-0.85,1.2-1.28,1.81c0.69-0.13,1.37-0.27,2.06-0.43
				c0.42-0.56,0.84-1.13,1.28-1.68c0.02-0.03,0.04-0.05,0.06-0.08c1.33-3.95,3.77-7.27,7.14-9.59c-2.05-3.22-4.1-6.44-6.13-9.67
				c-1.75-2.78-2.62-5.73-2.97-8.8c-1.48-0.97-2.7-2.21-3.61-3.75c-0.38-0.9-0.76-1.79-1.14-2.69c-0.32-1.21-0.43-2.42-0.36-3.63
				c-1.31-3.89-0.85-7.82-0.39-11.77c0.13-1.1,0.01-2.22,0.11-3.33c0.04-0.44,0.29-1.08,0.63-1.23c0.37-0.16,0.96,0.09,1.4,0.28
				c0.29,0.12,0.59,0.43,0.7,0.72c0.67,1.73,2.28,1.38,1.98-1.22c-0.37-3.24,0.23-6.73,0.05-9.98c-0.21-3.99-0.86-7.65,2.05-10.78
				c0.81-0.87,1.76-1.61,2.68-2.36c0.39-0.32,0.92-0.49,1.3-0.82c2.8-2.44,5.93-3.96,9.75-4.01c1.03-0.01,2.11-0.7,3.06-1.27
				c2.03-1.24,4.14-1.49,6.43-0.95c0.99,0.23,2.07,0.42,3.05,0.26c3.64-0.58,6.97,0.44,10.28,1.72c0.72,0.28,1.4,0.68,2.13,0.9
				c4.22,1.23,7.89,3.23,10.44,6.99c0.4,0.59,1.22,0.9,1.88,1.29c2.12,1.26,3.9,2.91,4.8,5.21c0.52,1.31,0.92,2.88,0.71,4.23
				c-0.89,5.93-1.2,11.89-1.45,17.87c0.22,0.27,2.14-3.66,3.8-4.78c1.34-0.9,2.4-0.4,2.48,1.21c0.08,1.61,0.08,3.31-0.34,4.84
				c-1.29,4.62-2.79,9.18-4.22,13.76c-0.25,0.79-0.42,1.67-1.84,1.99c0-0.8-1.56-0.84-1.72-0.63c-0.09,0.12,0.5,4.76,0.31,7.48
				c-0.21,2.98-1.18,5.71-2.93,8.13c-1.42,1.96-2.95,3.83-4.54,5.64c0.65,0.97,1.11,2.06,1.32,3.27c0.26,1.53,0.45,3.05,0.64,4.55
				c0.03-0.08,0.06-0.15,0.09-0.23c0.28-0.01,0.57-0.03,0.85-0.04c-0.21,1.47,0.56,2.33,1.34,3.19c3.22,1.14,6.09,3.41,8.2,6.02
				c0.33,0.41,0.65,0.84,0.97,1.26c0.56-0.36,1.15-0.74,2-1.29c0.55,0.73,1.1,1.47,1.7,2.27c2.5-0.97,2.86-3.09,3.11-5.12
				c1.1-0.26,1.4,0.23,1.55,1.02c0.26,1.39,0.57,2.77,0.86,4.14c3.14-0.53,3.63-1.36,2.74-4.13c-0.12-0.38-0.13-0.83-0.08-1.23
				c0.26-1.88,0.28-1.88-0.91-3.53c0.7-1.62,1.6-3.15,1.17-5.24c-0.46-2.26,0.99-4.42,1.9-6.4c0.74-1.62,1.03-2.79,0.05-4.2
				c0.73-1.46,1.54-2.88-0.08-4.21c-0.06-0.05-0.1-0.15-0.11-0.23c-0.18-3.06-0.36-6.13-0.52-9.19c-0.01-0.1,0.19-0.22,0.38-0.42
				c0.6,1.54,1.5,2.99,1.67,4.52c0.16,1.43-0.45,2.94-0.74,4.54c1.93-0.69,3.07-2.55,2.58-4.44c-0.34-1.33-0.35-2.52,0.18-3.75
				c0.1-0.23,0.23-0.56,0.15-0.74c-1.05-2.22,0.19-4.29,0.29-6.42c0.06-1.29-0.99-2.63-1.54-3.95c1.25-0.56,1.28-1.61,1.06-2.78
				c-0.13-0.66-0.56-1.63-0.29-1.94C461.03,179.44,458.69,177.03,458.76,174.62z M458.04,186.58c-0.27-0.66-0.54-1.31-0.87-2.14
				C458.28,185.1,458.29,185.11,458.04,186.58z"/>
			
				<line style="clip-path:url(#SVGID_4_);fill:none;stroke:#54575C;stroke-width:1.0656;stroke-miterlimit:10;" x1="380.42" y1="175.38" x2="380.68" y2="200.91"/>
			<path style="clip-path:url(#SVGID_4_);fill:none;stroke:#54575C;stroke-width:1.0656;stroke-miterlimit:10;" d="M399.17,193.59
				c0,0-0.24,4.2,1.68,4.44c1.92,0.24,3.96,2.16,5.4,2.76s3.84-0.24,5.76-1.32c2.13-1.2,5.4-0.12,5.64-1.56
				c0.24-1.44-0.12-2.52-0.12-2.52"/>
			<path style="clip-path:url(#SVGID_4_);fill:none;stroke:#54575C;stroke-width:1.0656;stroke-miterlimit:10;" d="M413.58,178.11
				c0,0-1.32,9.84,0.48,15"/>
			
				<line style="clip-path:url(#SVGID_4_);fill:none;stroke:#54575C;stroke-width:1.0656;stroke-miterlimit:10;" x1="437.18" y1="178.56" x2="435.78" y2="199.71"/>
			<path style="clip-path:url(#SVGID_4_);fill:none;stroke:#54575C;stroke-width:1.0656;stroke-miterlimit:10;" d="M438.66,180.39
				c0,0,2.04-0.24,0.96,4.08c-1.08,4.32-1.08,5.28-1.08,5.28"/>
			<path style="clip-path:url(#SVGID_4_);fill:none;stroke:#54575C;stroke-width:1.0656;stroke-miterlimit:10;" d="M421.5,206.79
				c0,0-8.52,1.44-15.36,1.08c-6.84-0.36-10.56-1.56-11.16-1.32c-0.6,0.24,3.24,3.36,4.56,4.2c1.32,0.84,8.04,4.68,14.4,1.68
				C420.3,209.44,421.5,206.79,421.5,206.79z"/>
			<path style="clip-path:url(#SVGID_4_);fill:none;stroke:#54575C;stroke-width:1.0656;stroke-miterlimit:10;" d="M394.25,204.63
				c0,0-0.84,1.8-0.36,2.88"/>
			
				<line style="clip-path:url(#SVGID_4_);fill:none;stroke:#54575C;stroke-width:1.0656;stroke-miterlimit:10;" x1="388.25" y1="204.27" x2="388.25" y2="207.28"/>
			<circle style="clip-path:url(#SVGID_4_);fill:#54575C;" cx="424.14" cy="178.95" r="1.8"/>
			<circle style="clip-path:url(#SVGID_4_);fill:#54575C;" cx="394.31" cy="178.95" r="1.8"/>
			<path style="clip-path:url(#SVGID_4_);fill:none;stroke:#54575C;stroke-width:1.0656;stroke-miterlimit:10;" d="M377.24,231.48
				c0,0-17.11,33.97-15.58,37.8c1.53,3.83,6.9,5.36,6.9,5.36s-0.28,9.42,5.11,12.26c9.2,4.85,18.14,34.48,18.39,39.34"/>
			<path style="clip-path:url(#SVGID_4_);fill:none;stroke:#54575C;stroke-width:1.0656;stroke-miterlimit:10;" d="M430.58,224.73
				c-0.09,0.23,14.1,16.97,13.33,27.95l-13.03,6.13l7.41,7.66c0,0-25.8,33.72-26.82,40.1"/>
			<path style="clip-path:url(#SVGID_4_);fill:none;stroke:#54575C;stroke-width:3.1969;stroke-miterlimit:10;" d="M387.73,219.26
				c0,0-33.48,32.91-30.41,81.19"/>
			<path style="clip-path:url(#SVGID_4_);fill:none;stroke:#54575C;stroke-width:3.1969;stroke-miterlimit:10;" d="M435.74,228.16
				c0,0,26.57,26.05,25.03,74.59"/>
			
				<line style="clip-path:url(#SVGID_4_);fill:none;stroke:#54575C;stroke-width:3.1969;stroke-miterlimit:10;" x1="447.01" y1="242.49" x2="431.4" y2="307.6"/>
			<path style="clip-path:url(#SVGID_4_);fill:none;stroke:#54575C;stroke-width:3.1969;stroke-miterlimit:10;" d="M414.79,350.26
				c-0.26-1.02-3.07-12.52,5.36-16.35s10.22-26.31,12.26-30.4s14.05-22.48,25.03-6.9c10.98,15.58-3.03,32.86-2.81,36.02
				c0.51,7.41,0,17.37,0,17.37"/>
			<path style="clip-path:url(#SVGID_4_);fill:none;stroke:#54575C;stroke-width:3.1969;stroke-miterlimit:10;" d="M432.42,303.51
				c0,0,12.77-38.32,28.35-0.77"/>
			<circle style="clip-path:url(#SVGID_4_);fill:#54575C;" cx="356.68" cy="305.69" r="9.83"/>
			
				<circle style="clip-path:url(#SVGID_4_);fill:none;stroke:#54575C;stroke-width:1.0656;stroke-miterlimit:10;" cx="356.68" cy="305.69" r="9.83"/>
			<circle style="clip-path:url(#SVGID_4_);fill:#54575C;" cx="356.74" cy="300.24" r="6.54"/>
		</g>
		<g>
			<path class="st58" d="M459.15,134.41c0.64-2.3,2.69-22.01,1.54-24.19l-3.46,0.51l-2.3-1.41l-0.64-1.66l-1.42,1.96l-3.31,0.47
				c0,0-2.3,3.84-2.05,6.91c0.26,3.07-0.13,6.91-0.13,6.91l3.33,3.07c0,0,0.64,5.5-0.77,10.24c-0.74,2.5-0.98,5.37-1.05,7.54
				c0.01,0,0.02,0.01,0.02,0.01c2.17,0.31,6.49,2.36,10.1-0.14C458.87,140.49,458.8,135.68,459.15,134.41z"/>
			<path class="st22" d="M442.21,134.42c0.24-8.62,0.93-21.8,1.97-24.45c1.41-3.58,4.48-9.85,10.75-7.81c0,0,3.46-1.28,4.99,0.26
				c1.54,1.54,4.73,6.01,5.37,10.11c0.42,2.67,1.27,12.98,1.81,19.85l3.43,1.16v-31.1c0-1.21-0.98-2.18-2.18-2.18H439.5
				c-1.21,0-2.18,0.98-2.18,2.18v34l0.23-0.48L442.21,134.42z"/>
			<path class="st6" d="M439.5,154.93h28.85c1.21,0,2.18-0.98,2.18-2.18v-19.2l-3.43-1.16c0.29,3.68,0.49,6.38,0.49,6.38l0.13,2.05
				l-4.86,10.11l-1.15-2.05c0,0-2.43,2.69-2.43,2.3c0-0.17-0.16-3.13-0.27-6.54c-3.61,2.49-7.93,0.45-10.1,0.14
				c-0.01,0-0.02-0.01-0.02-0.01c-0.02,0.83-0.03,1.57-0.02,2.13c0.01,0.59-0.57,0.99-1.12,0.8l-1.4-0.49c0,0-0.13,2.18-1.15,1.92
				c-1.02-0.26-2.94-3.2-3.07-7.93c-0.03-1.24,0-3.72,0.08-6.77l-4.66,1.54l-0.23,0.48v16.31
				C437.31,153.96,438.29,154.93,439.5,154.93z"/>
			<path class="st55" d="M467.59,138.76c0,0-0.2-2.7-0.49-6.38c-0.54-6.87-1.39-17.18-1.81-19.85c-0.64-4.09-3.84-8.57-5.37-10.11
				c-1.54-1.54-4.99-0.26-4.99-0.26c-6.27-2.05-9.34,4.22-10.75,7.81c-1.04,2.65-1.73,15.83-1.97,24.45
				c-0.08,3.05-0.11,5.54-0.08,6.77c0.13,4.73,2.05,7.68,3.07,7.93c1.02,0.26,1.15-1.92,1.15-1.92l1.4,0.49
				c0.55,0.19,1.13-0.22,1.12-0.8c-0.01-0.56-0.01-1.3,0.02-2.13c0.07-2.17,0.31-5.05,1.05-7.54c1.41-4.73,0.77-10.24,0.77-10.24
				l-3.33-3.07c0,0,0.38-3.84,0.13-6.91c-0.26-3.07,2.05-6.91,2.05-6.91l3.31-0.47l1.42-1.96l0.64,1.66l2.3,1.41l3.46-0.51
				c1.15,2.18-0.9,21.88-1.54,24.19c-0.35,1.26-0.28,6.08-0.14,10.23c0.11,3.41,0.27,6.36,0.27,6.54c0,0.38,2.43-2.3,2.43-2.3
				l1.15,2.05l4.86-10.11L467.59,138.76z"/>
		</g>
		<path class="st1" d="M428.53,83.49h-47.71c-0.74,0-1.35-0.6-1.35-1.35v0c0-0.74,0.6-1.35,1.35-1.35h47.71
			c0.74,0,1.35,0.6,1.35,1.35v0C429.88,82.89,429.27,83.49,428.53,83.49z"/>
		<circle class="st1" cx="437.13" cy="82.03" r="1.38"/>
		<g>
			<path class="st1" d="M457.17,121.16c0.12-0.53-6.36-0.38-6.36-0.38s0.31,1.61,1.15,1.99
				C452.8,123.15,456.48,124.07,457.17,121.16z"/>
			<g>
				<path class="st54" d="M458.49,134.11c0.64-2.3,2.69-22.01,1.54-24.19l-3.46,0.51l-2.3-1.41l-0.64-1.66l-1.42,1.96l-3.31,0.47
					c0,0-2.3,3.84-2.05,6.91c0.26,3.07-0.13,6.91-0.13,6.91l3.33,3.07c0,0,0.64,5.5-0.77,10.24c-0.74,2.5-0.98,5.37-1.05,7.54
					c0.01,0,0.02,0.01,0.02,0.01c2.17,0.31,6.49,2.36,10.1-0.14C458.21,140.19,458.14,135.37,458.49,134.11z"/>
				<path class="st54" d="M441.55,134.12c0.24-8.62,0.93-21.8,1.97-24.45c1.41-3.58,4.48-9.85,10.75-7.81c0,0,3.46-1.28,4.99,0.26
					c1.54,1.54,4.73,6.01,5.37,10.11c0.42,2.67,1.27,12.98,1.81,19.85l3.43,1.16v-31.1c0-1.21-0.98-2.18-2.18-2.18h-28.85
					c-1.21,0-2.18,0.98-2.18,2.18v34l0.23-0.48L441.55,134.12z"/>
				<path class="st54" d="M438.84,154.63h28.85c1.21,0,2.18-0.98,2.18-2.18v-19.2l-3.43-1.16c0.29,3.68,0.49,6.38,0.49,6.38
					l0.13,2.05l-4.86,10.11l-1.15-2.05c0,0-2.43,2.69-2.43,2.3c0-0.17-0.16-3.13-0.27-6.54c-3.61,2.49-7.93,0.45-10.1,0.14
					c-0.01,0-0.02-0.01-0.02-0.01c-0.02,0.83-0.03,1.57-0.02,2.13c0.01,0.59-0.57,0.99-1.12,0.8l-1.4-0.49c0,0-0.13,2.18-1.15,1.92
					c-1.02-0.26-2.94-3.2-3.07-7.93c-0.03-1.24,0-3.72,0.08-6.77l-4.66,1.54l-0.23,0.48v16.31
					C436.65,153.65,437.63,154.63,438.84,154.63z"/>
				<path class="st55" d="M466.94,138.46c0,0-0.2-2.7-0.49-6.38c-0.54-6.87-1.39-17.18-1.81-19.85c-0.64-4.09-3.84-8.57-5.37-10.11
					c-1.54-1.54-4.99-0.26-4.99-0.26c-6.27-2.05-9.34,4.22-10.75,7.81c-1.04,2.65-1.73,15.83-1.97,24.45
					c-0.08,3.05-0.11,5.54-0.08,6.77c0.13,4.73,2.05,7.68,3.07,7.93c1.02,0.26,1.15-1.92,1.15-1.92l1.4,0.49
					c0.55,0.19,1.13-0.22,1.12-0.8c-0.01-0.56-0.01-1.3,0.02-2.13c0.07-2.17,0.31-5.05,1.05-7.54c1.41-4.73,0.77-10.24,0.77-10.24
					l-3.33-3.07c0,0,0.38-3.84,0.13-6.91c-0.26-3.07,2.05-6.91,2.05-6.91l3.31-0.47l1.42-1.96l0.64,1.66l2.3,1.41l3.46-0.51
					c1.15,2.18-0.9,21.88-1.54,24.19c-0.35,1.26-0.28,6.08-0.14,10.23c0.11,3.41,0.27,6.36,0.27,6.54c0,0.38,2.43-2.3,2.43-2.3
					l1.15,2.05l4.86-10.11L466.94,138.46z"/>
			</g>
			<path class="st54" d="M450.04,126.69c0,0,4.99,5.89,9.34-1.54"/>
			<line class="st54" x1="450.27" y1="132.35" x2="452.34" y2="136.04"/>
			<line class="st54" x1="458.49" y1="134.11" x2="457.17" y2="135.04"/>
			<path class="st54" d="M457.17,121.16c0.12-0.53-6.36-0.38-6.36-0.38s0.31,1.61,1.15,1.99
				C452.8,123.15,456.48,124.07,457.17,121.16z"/>
			<polyline class="st54" points="455.79,118.78 453.11,118.55 453.87,112.04 			"/>
			<circle class="st55" cx="450.42" cy="114.34" r="0.65"/>
			<circle class="st55" cx="458.17" cy="114.18" r="0.65"/>
		</g>
	</g>
	<g>
		<circle class="st54" cx="165.34" cy="134.9" r="35.97"/>
	</g>
</g>
</svg>
