<svg width="33" height="32" viewBox="0 0 33 32" fill="none" xmlns="http://www.w3.org/2000/svg">
<circle cx="16" cy="16" r="16" fill="#dfede3"/>
<circle cx="17" cy="16" r="15.5" stroke="#418152"/>
<path d="M15.4005 6.2603C15.6998 5.33899 17.0032 5.33899 17.3026 6.2603L19.0499 11.6378C19.1837 12.0499 19.5677 12.3288 20.0009 12.3288H25.6552C26.6239 12.3288 27.0267 13.5684 26.243 14.1378L21.6686 17.4613C21.3181 17.716 21.1714 18.1674 21.3053 18.5794L23.0526 23.9569C23.3519 24.8782 22.2974 25.6444 21.5137 25.075L16.9393 21.7515C16.5888 21.4968 16.1142 21.4968 15.7637 21.7515L11.1893 25.075C10.4056 25.6444 9.35114 24.8782 9.65049 23.9569L11.3978 18.5794C11.5316 18.1674 11.385 17.716 11.0345 17.4613L6.46008 14.1378C5.67636 13.5684 6.07914 12.3288 7.04786 12.3288H12.7021C13.1354 12.3288 13.5193 12.0499 13.6532 11.6378L15.4005 6.2603Z" fill="#bfdbc7"/>
<path d="M17.494 7.08156L19.2413 12.4591C19.4421 13.0771 20.0181 13.4956 20.6679 13.4956H26.3222C26.8065 13.4956 27.0079 14.1154 26.6161 14.4001L22.0417 17.7236C21.5159 18.1056 21.2959 18.7826 21.4968 19.4006L23.244 24.7782C23.3937 25.2388 22.8665 25.6219 22.4746 25.3372L17.9002 22.0137C17.3745 21.6317 16.6626 21.6317 16.1368 22.0137L11.5624 25.3372C11.1706 25.6219 10.6433 25.2388 10.793 24.7782L12.5403 19.4006C12.7411 18.7826 12.5211 18.1056 11.9954 17.7236L7.42096 14.4001C7.02911 14.1154 7.23049 13.4956 7.71486 13.4956H13.3691C14.019 13.4956 14.5949 13.0771 14.7957 12.4591L16.543 7.08156C16.6927 6.6209 17.3444 6.6209 17.494 7.08156Z" stroke="#418152"/>
</svg>
