<?xml version="1.0" encoding="UTF-8"?>
<svg id="Layer_1" xmlns="http://www.w3.org/2000/svg" xmlns:xlink="http://www.w3.org/1999/xlink" version="1.1" viewBox="0 0 841.89 467.72">
  <!-- Generator: Adobe Illustrator 29.0.0, SVG Export Plug-In . SVG Version: 2.1.0 Build 186)  -->
  <defs>
    <style>
      .st0, .st1, .st2 {
        fill: none;
      }

      .st1, .st3 {
        stroke-linejoin: round;
      }

      .st1, .st3, .st2 {
        stroke: #54575c;
      }

      .st1, .st2 {
        stroke-width: 1.44px;
      }

      .st4 {
        fill: #daa897;
      }

      .st3, .st5 {
        fill: #54575c;
      }

      .st6 {
        fill: #76767b;
      }

      .st2 {
        stroke-miterlimit: 10;
      }

      .st7 {
        fill: #fff;
      }

      .st8 {
        fill: #f4c55c;
      }

      .st9 {
        clip-path: url(#clippath);
      }
    </style>
    <clipPath id="clippath">
      <rect class="st0" x="-1.58" y="0" width="845.06" height="467.72"/>
    </clipPath>
  </defs>
  <g class="st9">
    <g>
      <rect class="st8" x="-1.58" y="0" width="845.06" height="467.72"/>
      <g>
        <path class="st7" d="M328.83,45.5c-.12,0-.23.04-.35.05.12.06.24.06.35-.05Z"/>
        <path class="st7" d="M707.65,545.39c-.11-11.08-2.5-22.33-5.55-33.05-4.99-17.57-11.71-34.91-12.85-53.14-.92-14.72-1.97-32.65-10.31-44.81-6.45-9.4-14.33-12.14-25-16.15-28.05-10.53-44.17-16.56-70.11-25.87-3.24-1.16-9.04-1.37-12.55-2.69-1.24-.47-10.63-5.64-18.06-9.16-4.29-2.04-7.75-2.13-9.08-4.05-11.17-15.99-32.16-37.38-41.77-44.68,2.06,3.19,3.22,7.1,3.31,10.91.18,7.53-2.89,14.72-6.02,21.57-7.49,16.43-15.61,32.57-23.72,48.7-25.34,50.4-50.62,100.86-73.51,152.41h305.22,0Z"/>
        <path class="st7" d="M351.29,545.39c3.03-33.34,1.09-67.2,6.95-100.21-3.57-7.97-4.55-17.08-4.33-25.99s1.6-17.74,2.33-26.63c.87-10.44.86-20.94,2.05-31.35.87-7.55,2.41-15.11,5.26-22.12-6.4,12.76-37.07,30.11-48.12,33.3-17.29,4.99-23.23,8.84-40.85,12.45-15.59,3.19-38.5,15.39-52.99,20.8-9.73,3.63-12.94,23.41-13.97,33.74-3.55,35.62-9.13,71.03-16.7,106.01h160.37Z"/>
        <path class="st7" d="M371.49,373.63c.61,8.94,1.36,18.31,6.24,25.82,2.56,3.93,6.27,7.45,6.89,12.1.23,1.7.02,3.48.58,5.1,1.26,3.63,5.72,5.02,7.91,8.18,3.27,4.71.43,11.03-1.83,16.3-5.88,13.72-7.33,29.29-4.08,43.86.27-11.46,2.45-22.87,6.44-33.62.46-1.25,1.03-2.59,2.2-3.24,2.88-1.61,6.28,2.2,9.5,1.46.88-3.95-.52-8-1.31-11.97s-.75-8.65,2.24-11.39c1.81-1.65,4.38-2.27,6.17-3.95,1.79-1.67,2.01-5.39-.36-5.99,10.18-6.37,20.5-12.86,28.51-21.81,4.93-5.51,8.91-11.88,14.42-16.79,4.59-4.09,10.12-7.05,14.63-11.24,4-3.72,7.09-8.3,10.13-12.84,3.49-5.19,6.97-10.38,10.46-15.56,3.38-5.03,6.82-10.2,8.16-16.1s.14-12.79-4.53-16.65c-2.61-14.29-1.06-15.43.73-35.07-1.82,6.4-4.24,12.51-8.06,17.99-7.1,10.19-18.17,16.83-29.18,22.58-8.37,4.37-20.19,8.75-32.58,13.73-13.67,5.49-28.26,11.2-44.99,6.9-2.58-.66-7.72-3.48-13.03-6.85.67,3.24.25,7.5.66,6.82,2.18,14.21,3.14,28.22,4.09,42.23h-.01Z"/>
        <path class="st7" d="M541.6,174.89c.09.28.17.56.26.84-1.3-1.8-2.83-3.43-4.56-4.83-1.66,6.53-3.22,13.07-4.69,19.64-.98-4.06-2.68-7.94-5-11.41-.05,4.5-.67,9-1.86,13.35-2.36-2.91-7.73-2.33-9.41,1.02-.89,1.77-.82,3.95-1.94,5.58-1.07,1.56-2.98,2.27-4.53,3.34-6.2,4.28-6.06,13.44-9.94,19.9-.32.53-.71,1.08-1.31,1.24-1.38.37-2.23-1.45-2.45-2.87-1.4-9.39-.81-18.95-.59-28.45s.03-19.17-2.84-28.22-8.8-17.53-17.43-21.5c-2.63-1.21-5.45-1.98-8.02-3.3-6.03-3.08-10.22-8.9-13.15-15-1.48-3.07-2.71-6.3-4.71-9.06-2-2.76-4.97-5.06-9.38-6.54-6.92.05-13.73-3.87-17.16-9.87-4.98-1.56-9.96-3.11-14.94-4.67-2.81-.88-5.7-1.8-7.93-3.71-1.61-1.38-2.83-3.24-4.66-4.31-1.66-.97-3.64-1.18-5.55-1.37-5.81-.59-11.61-1.17-17.42-1.76-2.32-.23-5.07-.78-5.94-2.94-.74,2.15-25.43,12.93-33.57,21.7-3.78,4.07-6.14,9.23-8.14,14.4-6.97,18.08-10.18,37.6-9.37,56.96-.49-1.8-6.73,57.45,6.79,97.69,3.7,11.03,18.07,25.91,26.62,37.78,2.44,3.38,11.96,12.24,17.95,16.04,5.31,3.37,10.45,6.18,13.03,6.85,15.94,4.1,31.79-1.87,44.99-6.9,13.2-5.03,23.77-9.13,32.58-13.73,11.01-5.75,22.08-12.39,29.18-22.58,3.82-5.49,6.25-11.6,8.06-17.99,3.44-12.11,4.71-25.24,9.21-37.08,3.69,6.09,12.85,6.95,18.94,3.27,6.09-3.68,9.52-10.59,11.35-17.46,1.83-6.88,2.41-14.06,4.49-20.87,1.74-5.7,4.56-11.24,4.51-17.2-.02-2.03-.55-4.13-1.48-6v.02Z"/>
        <path class="st7" d="M351.29,545.39h51.14c22.89-51.55,48.16-102.01,73.51-152.41,8.11-16.13,16.23-32.27,23.72-48.7,3.12-6.85,6.19-14.04,6.02-21.57-.09-3.8-1.25-7.72-3.31-10.91-1.28-1.99-2.92-3.69-4.87-4.92-1.12-.7-2.33-1.25-3.64-1.6,4.67,3.86,5.87,10.74,4.53,16.65-1.34,5.9-4.79,11.08-8.16,16.1-3.48,5.19-6.97,10.38-10.46,15.56-3.05,4.54-6.13,9.12-10.13,12.84-4.51,4.19-10.03,7.15-14.63,11.24-5.51,4.92-9.5,11.29-14.42,16.79-8.01,8.95-18.33,15.44-28.51,21.81,2.37.6,2.15,4.32.36,5.99s-4.36,2.29-6.17,3.95c-2.99,2.74-3.03,7.42-2.24,11.39s2.19,8.02,1.31,11.97c-3.22.75-6.62-3.07-9.5-1.46-1.16.65-1.73,1.99-2.2,3.24-3.99,10.75-6.17,22.16-6.44,33.62-3.25-14.57-1.8-30.14,4.08-43.86,2.26-5.27,5.09-11.59,1.83-16.3-2.19-3.15-6.65-4.55-7.91-8.18-.56-1.62-.35-3.4-.58-5.1-.62-4.65-4.33-8.17-6.89-12.1-4.88-7.51-5.63-16.88-6.24-25.82-.96-14.01-1.91-28.02-4.1-42.23-.41.68-.8,1.37-1.18,2.07-.68,1.26-1.31,2.54-1.89,3.84h0c-.26.59-.52,1.19-.76,1.79-2.85,7.01-4.4,14.58-5.26,22.12-1.19,10.4-1.19,20.91-2.05,31.35-.74,8.88-2.11,17.72-2.33,26.63s.76,18.03,4.33,25.99c-5.86,33.01-3.91,66.88-6.95,100.21h0Z"/>
      </g>
      <g>
        <path class="st1" d="M331.09,48.39c-.12,0-.23.04-.35.05.12.06.24.06.35-.05Z"/>
        <path class="st6" d="M709.82,545.39c-.45-10.14-2.69-20.38-5.47-30.17-4.99-17.57-11.71-34.91-12.85-53.14-.92-14.72-1.97-32.65-10.31-44.81-6.45-9.4-14.33-12.14-25-16.15-28.05-10.53-44.17-16.56-70.11-25.87-3.24-1.16-9.04-1.37-12.55-2.69-1.24-.47-10.63-5.64-18.06-9.16-4.29-2.04-7.75-2.13-9.08-4.05-11.17-15.99-32.16-37.38-41.77-44.68,2.06,3.19,3.22,7.1,3.31,10.91.18,7.53-2.89,14.72-6.02,21.57-7.49,16.43-15.61,32.57-23.72,48.7-24.87,49.45-49.67,98.98-72.22,149.52h303.85v.02Z"/>
        <path class="st6" d="M353.8,545.39c2.68-32.4,1.01-65.27,6.7-97.33-3.57-7.97-4.55-17.08-4.33-25.99s1.6-17.74,2.33-26.63c.87-10.44.86-20.94,2.05-31.35.87-7.55,2.41-15.11,5.26-22.12-6.4,12.76-37.07,30.11-48.12,33.3-17.29,4.99-23.23,8.84-40.85,12.45-15.59,3.19-38.5,15.39-52.99,20.8-9.73,3.63-12.94,23.41-13.97,33.74-3.45,34.64-8.83,69.08-16.09,103.13h160.01Z"/>
        <path class="st4" d="M373.75,376.52c.61,8.94,1.36,18.31,6.24,25.82,2.56,3.93,6.27,7.45,6.89,12.1.23,1.7.02,3.48.58,5.1,1.26,3.63,5.72,5.02,7.91,8.18,3.27,4.71.43,11.03-1.83,16.3-5.88,13.72-7.33,29.29-4.08,43.86.27-11.46,2.45-22.87,6.44-33.62.46-1.25,1.03-2.59,2.2-3.24,2.88-1.61,6.28,2.2,9.5,1.46.88-3.95-.52-8-1.31-11.97s-.75-8.65,2.24-11.39c1.81-1.65,4.38-2.27,6.17-3.95,1.79-1.67,2.01-5.39-.36-5.99,10.18-6.37,20.5-12.86,28.51-21.81,4.93-5.51,8.91-11.88,14.42-16.79,4.59-4.09,10.12-7.05,14.63-11.24,4-3.72,7.09-8.3,10.13-12.84,3.49-5.19,6.97-10.38,10.46-15.56,3.38-5.03,6.82-10.2,8.16-16.1s.14-12.79-4.53-16.65c-2.61-14.29-1.06-15.43.73-35.07-1.82,6.4-4.24,12.51-8.06,17.99-7.1,10.19-18.17,16.83-29.18,22.58-8.37,4.37-20.19,8.75-32.58,13.73-13.67,5.49-28.26,11.2-44.99,6.9-2.58-.66-7.72-3.48-13.03-6.85.67,3.24.25,7.5.66,6.82,2.18,14.21,3.14,28.22,4.09,42.23h-.01Z"/>
        <path class="st4" d="M543.85,177.78c.09.28.17.56.26.84-1.3-1.8-2.83-3.43-4.56-4.83-1.66,6.53-3.22,13.07-4.69,19.64-.98-4.06-2.68-7.94-5-11.41-.05,4.5-.67,9-1.86,13.35-2.36-2.91-7.73-2.33-9.41,1.02-.89,1.77-.82,3.95-1.94,5.58-1.07,1.56-2.98,2.27-4.53,3.34-6.2,4.28-6.06,13.44-9.94,19.9-.32.53-.71,1.08-1.31,1.24-1.38.37-2.23-1.45-2.45-2.87-1.4-9.39-.81-18.95-.59-28.45s.03-19.17-2.84-28.22-8.8-17.53-17.43-21.5c-2.63-1.21-5.45-1.98-8.02-3.3-6.03-3.08-10.22-8.9-13.15-15-1.48-3.07-2.71-6.3-4.71-9.06-2-2.76-4.97-5.06-9.38-6.54-6.92.05-13.73-3.87-17.16-9.87-4.98-1.56-9.96-3.11-14.94-4.67-2.81-.88-5.7-1.8-7.93-3.71-1.61-1.38-2.83-3.24-4.66-4.31-1.66-.97-3.64-1.18-5.55-1.37-5.81-.59-11.61-1.17-17.42-1.76-2.32-.23-5.07-.78-5.94-2.94-.74,2.15-25.43,12.93-33.57,21.7-3.78,4.07-6.14,9.23-8.14,14.4-6.97,18.08-10.18,37.6-9.37,56.96-.49-1.8-6.73,57.45,6.79,97.69,3.7,11.03,18.07,25.91,26.62,37.78,2.44,3.38,11.96,12.24,17.95,16.04,5.31,3.37,10.45,6.18,13.03,6.85,15.94,4.1,31.79-1.87,44.99-6.9,13.2-5.03,23.77-9.13,32.58-13.73,11.01-5.75,22.08-12.39,29.18-22.58,3.82-5.49,6.25-11.6,8.06-17.99,3.44-12.11,4.71-25.24,9.21-37.08,3.69,6.09,12.85,6.95,18.94,3.27,6.09-3.68,9.52-10.59,11.35-17.46,1.83-6.88,2.41-14.06,4.49-20.87,1.74-5.7,4.56-11.24,4.51-17.2-.02-2.03-.55-4.13-1.48-6v.02Z"/>
        <path class="st7" d="M353.8,545.39h52.17c22.55-50.54,47.35-100.07,72.22-149.52,8.11-16.13,16.23-32.27,23.72-48.7,3.12-6.85,6.2-14.04,6.02-21.57-.09-3.8-1.25-7.72-3.31-10.91-1.28-1.99-2.92-3.69-4.87-4.92-1.12-.7-2.33-1.25-3.64-1.6,4.67,3.86,5.87,10.74,4.53,16.65-1.34,5.9-4.79,11.08-8.16,16.1-3.49,5.19-6.97,10.38-10.46,15.56-3.05,4.54-6.13,9.12-10.13,12.84-4.51,4.19-10.03,7.15-14.63,11.24-5.51,4.92-9.5,11.29-14.42,16.79-8.01,8.95-18.33,15.44-28.51,21.81,2.37.6,2.15,4.32.36,5.99s-4.36,2.29-6.17,3.95c-2.99,2.74-3.03,7.42-2.24,11.39s2.19,8.02,1.31,11.97c-3.22.75-6.62-3.07-9.5-1.46-1.16.65-1.73,1.99-2.2,3.24-3.99,10.75-6.17,22.16-6.44,33.62-3.25-14.57-1.8-30.14,4.08-43.86,2.26-5.27,5.09-11.59,1.83-16.3-2.19-3.15-6.65-4.55-7.91-8.18-.56-1.62-.35-3.4-.58-5.1-.62-4.65-4.33-8.17-6.89-12.1-4.88-7.51-5.63-16.88-6.24-25.82-.96-14.01-1.91-28.02-4.09-42.23-.41.68-.8,1.37-1.18,2.07-.68,1.26-1.31,2.54-1.89,3.84h0c-.26.59-.52,1.19-.76,1.79-2.85,7.01-4.4,14.58-5.26,22.12-1.19,10.4-1.19,20.91-2.05,31.35-.74,8.88-2.11,17.72-2.33,26.63s.76,18.03,4.33,25.99c-5.69,32.06-4.02,64.92-6.7,97.33h0Z"/>
      </g>
      <g>
        <path class="st2" d="M371.38,155.03l-1.36-.58"/>
        <path class="st2" d="M408.29,226.42c3.38,3.91,4.08,9.93,1.68,14.52-.49.94-1.12,1.84-1.99,2.44-1.35.93-3.11,1.05-4.74.81s-3.18-.8-4.79-1.11c-4.96-.94-10.34.73-13.89,4.32"/>
        <path class="st2" d="M358.38,230.17c-1.72,2-2.98,4.4-3.65,6.96-.69,2.64-.55,5.88,1.6,7.56,1.02.79,2.4,1.1,3.66.82,1.82-.4,3.35-1.94,5.21-1.87,1.1.04,2.09.65,3.02,1.25,2.27,1.48,4.5,3.02,6.67,4.64"/>
        <path class="st2" d="M354.24,269.54c.82-.73,2.11-.61,3.1-.13s1.82,1.23,2.8,1.73c2.18,1.12,4.77.83,7.22.72,6.91-.32,13.8.97,20.72.84,4.4-.08,8.76-.74,13.12-1.4,9.17-1.38,18.35-2.77,27.52-4.15"/>
        <path class="st2" d="M398.06,284.64c-7.4,2.16-15.4,2.19-22.81.09"/>
        <path class="st2" d="M512.06,230.26c1.18,1.79,1.62,3.99,1.71,6.14.09,2.03-.25,4.35-1.93,5.49-.33.22-.72.4-1.11.34-.62-.08-1.05-.69-1.14-1.3s.09-1.23.27-1.83"/>
        <path class="st2" d="M519.72,229.05c.65,1.42,1.32,2.85,1.58,4.39s.07,3.22-.84,4.48-2.67,1.97-4.12,1.38"/>
        <path class="st2" d="M525.29,224.8c2.21,1.99,3.27,5.17,2.71,8.09-.21,1.1-.67,2.2-1.5,2.96s-2.1,1.09-3.12.63"/>
        <path class="st2" d="M418.36,417.41c8.02,4.37,11.83,13.69,14.32,22.47,1.83,6.47,3.28,13.05,4.33,19.69"/>
        <path class="st2" d="M431.43,444.2c-7.5,3.91-15.11,7.6-22.82,11.05-2.88-2.93-7.17-4.41-11.25-3.89"/>
        <path class="st2" d="M431.07,440.26c-5.85,4.03-12.43,7.01-19.32,8.75"/>
        <path class="st2" d="M412.61,431.87c.5,2.59,2.48,4.99,5.08,5.44s5.52-1.55,5.58-4.19c.04-1.75-1.05-3.31-2.22-4.62-.7-.78-1.49-1.55-2.5-1.83-1.48-.42-3.1.36-4.08,1.56s-1.41,2.73-1.87,3.64h.01Z"/>
        <path class="st2" d="M401.06,460.85c-2.31,3.03-1.8,7.84,1.11,10.29.83.7,1.86,1.23,2.95,1.24.8,0,1.58-.26,2.33-.57,2.35-.96,4.64-2.45,5.72-4.75,1.65-3.51-.52-8.22-4.23-9.35s-8.08,1.42-7.88,3.13h0Z"/>
        <path class="st2" d="M368.55,391.97c-.77-1.75-3.18-2.33-4.92-1.54s-2.84,2.59-3.36,4.43-.57,3.78-.81,5.68c-.7,5.55-3.08,10.78-3.78,16.33-.46,3.72-.15,7.5.34,11.22.71,5.38,1.81,10.71,3.28,15.93"/>
        <path class="st2" d="M364.65,397.72c-2.24,7.06-2.4,14.59-2.54,21.99-.14,7.15-.27,14.29-.41,21.44l2.95-43.43Z"/>
        <path class="st2" d="M293.48,467.21c2.27-5.73,4.55-11.45,6.82-17.18"/>
        <g>
          <path class="st1" d="M328.81,47.28c-.12,0-.23.04-.35.05.12.06.24.06.35-.05Z"/>
          <path class="st3" d="M539.87,157.36c.58-4.26,1.78-8.55,1.03-12.78-.48-2.69-1.75-5.29-1.55-8.02,1.61,1.49,3,3.21,4.11,5.09-.56-8.47-1.12-16.95-1.69-25.42-.38-9.15-1.11-17.19-1.84-25.22-.61-6.72-1.36-13.82-5.42-19.21-2.35-3.12-5.64-5.41-8.11-8.43-2.31-2.83-3.84-6.2-5.93-9.21-3.53-5.09-8.53-8.94-13.44-12.71-13.29-10.19-27.2-20.67-43.61-24-11.17-2.27-22.71-1.04-34.04.19-4.64-.79-10.34.09-15.73,1.91-4.27,1.45-8.37,3.49-12.82,4.25-5.12.87-10.35-.04-15.45-1s-10.29-1.99-15.44-1.36-10.36,3.21-12.76,7.81c-.39.75-.76,1.6-1.51,1.98-.98.5-2.14.02-3.19-.31-6.09-1.89-12.32,1.97-17.53,5.65-3.49,2.46-7.39,5.77-6.96,10.02.03.28.23.61.44.73.12-.02.23-.04.35-.05-.11.11-.23.11-.35.05-3.21.42-6.31,1.69-8.89,3.66-4.03,1.61-7.13,5.82-8.65,10.4s-1.6,9.53-1.13,14.34c2.44-.38,4.88-.75,7.32-1.13-6.65,1.91-11.82,8.16-12.44,15.05,4.88-4.03,10.71-6.91,16.88-8.34-5.24,2.46-10.35,5.46-14.24,9.75-3.89,4.29-6.46,10.03-5.95,15.8.51,5.79,3.99,10.95,4.91,16.69.24-5.95,2.15-11.82,5.44-16.77-3.46,6.66-5.27,14.15-5.25,21.65.02,6.19,1.27,12.3,2.51,18.36,1.55,7.56,3.12,15.13,4.98,22.62.45,1.81.91,3.63,1.4,5.43-.81-19.36,2.4-38.88,9.37-56.96,2-5.18,4.36-10.34,8.14-14.4,8.15-8.77,32.83-19.56,33.57-21.7.87,2.16,3.63,2.71,5.94,2.94,5.81.59,11.61,1.17,17.42,1.76,1.91.19,3.89.41,5.55,1.37,1.83,1.07,3.05,2.93,4.66,4.31,2.23,1.91,5.13,2.84,7.93,3.71,4.98,1.56,9.96,3.11,14.94,4.67,3.43,6.01,10.24,9.92,17.16,9.87,4.41,1.48,7.37,3.79,9.38,6.54,2,2.76,3.24,5.98,4.71,9.06,2.93,6.1,7.13,11.92,13.15,15,2.57,1.32,5.39,2.09,8.02,3.3,8.63,3.97,14.55,12.45,17.43,21.5s3.06,18.72,2.84,28.22-.81,19.05.59,28.45c.21,1.41,1.07,3.24,2.45,2.87.59-.16.99-.71,1.31-1.24,3.88-6.46,3.74-15.62,9.94-19.9,1.56-1.08,3.46-1.78,4.53-3.34,1.12-1.63,1.05-3.81,1.94-5.58,1.68-3.35,7.05-3.93,9.41-1.02,1.18-4.35,1.81-8.84,1.86-13.35,2.31,3.47,4.01,7.35,5,11.41,1.47-6.57,3.03-13.12,4.69-19.64,1.73,1.4,3.26,3.02,4.56,4.83-.1-.28-.17-.56-.26-.84-1.99-6.21-2.59-12.85-1.71-19.31h.03Z"/>
          <path class="st1" d="M707.6,545.39c-.34-10.51-2.63-21.13-5.52-31.28-4.99-17.57-11.71-34.91-12.85-53.14-.92-14.72-1.97-32.65-10.31-44.81-6.45-9.4-14.33-12.14-25-16.15-28.05-10.53-44.17-16.56-70.11-25.87-3.24-1.16-9.04-1.37-12.55-2.69-1.24-.47-10.63-5.64-18.06-9.16-4.29-2.04-7.75-2.13-9.08-4.05-11.17-15.99-32.16-37.38-41.77-44.68,2.06,3.19,3.22,7.1,3.31,10.91.18,7.53-2.89,14.72-6.02,21.57-7.49,16.43-15.61,32.57-23.72,48.7-25.05,49.82-50.05,99.7-72.73,150.63h304.41v.02Z"/>
          <path class="st1" d="M351.44,545.39c2.81-32.76,1.04-66.01,6.79-98.44-3.57-7.97-4.55-17.08-4.33-25.99s1.6-17.74,2.33-26.63c.87-10.44.86-20.94,2.05-31.35.87-7.55,2.41-15.11,5.26-22.12-6.4,12.76-37.07,30.11-48.12,33.3-17.29,4.99-23.23,8.84-40.85,12.45-15.59,3.19-38.5,15.39-52.99,20.8-9.73,3.63-12.94,23.41-13.97,33.74-3.49,35.02-8.94,69.83-16.32,104.24h160.15Z"/>
          <path class="st1" d="M371.47,375.4c.61,8.94,1.36,18.31,6.24,25.82,2.56,3.93,6.27,7.45,6.89,12.1.23,1.7.02,3.48.58,5.1,1.26,3.63,5.72,5.02,7.91,8.18,3.27,4.71.43,11.03-1.83,16.3-5.88,13.72-7.33,29.29-4.08,43.86.27-11.46,2.45-22.87,6.44-33.62.46-1.25,1.03-2.59,2.2-3.24,2.88-1.61,6.28,2.2,9.5,1.46.88-3.95-.52-8-1.31-11.97s-.75-8.65,2.24-11.39c1.81-1.65,4.38-2.27,6.17-3.95,1.79-1.67,2.01-5.39-.36-5.99,10.18-6.37,20.5-12.86,28.51-21.81,4.93-5.51,8.91-11.88,14.42-16.79,4.59-4.09,10.12-7.05,14.63-11.24,4-3.72,7.09-8.3,10.13-12.84,3.49-5.19,6.97-10.38,10.46-15.56,3.38-5.03,6.82-10.2,8.16-16.1s.14-12.79-4.53-16.65c-2.61-14.29-1.06-15.43.73-35.07-1.82,6.4-4.24,12.51-8.06,17.99-7.1,10.19-18.17,16.83-29.18,22.58-8.37,4.37-20.19,8.75-32.58,13.73-13.67,5.49-28.26,11.2-44.99,6.9-2.58-.66-7.72-3.48-13.03-6.85.67,3.24.25,7.5.66,6.82,2.18,14.21,3.14,28.22,4.09,42.23h-.01Z"/>
          <path class="st1" d="M541.58,176.66c.09.28.17.56.26.84-1.3-1.8-2.83-3.43-4.56-4.83-1.66,6.53-3.22,13.07-4.69,19.64-.98-4.06-2.68-7.94-5-11.41-.05,4.5-.67,9-1.86,13.35-2.36-2.91-7.73-2.33-9.41,1.02-.89,1.77-.82,3.95-1.94,5.58-1.07,1.56-2.98,2.27-4.53,3.34-6.2,4.28-6.06,13.44-9.94,19.9-.32.53-.71,1.08-1.31,1.24-1.38.37-2.23-1.45-2.45-2.87-1.4-9.39-.81-18.95-.59-28.45s.03-19.17-2.84-28.22-8.8-17.53-17.43-21.5c-2.63-1.21-5.45-1.98-8.02-3.3-6.03-3.08-10.22-8.9-13.15-15-1.48-3.07-2.71-6.3-4.71-9.06-2-2.76-4.97-5.06-9.38-6.54-6.92.05-13.73-3.87-17.16-9.87-4.98-1.56-9.96-3.11-14.94-4.67-2.81-.88-5.7-1.8-7.93-3.71-1.61-1.38-2.83-3.24-4.66-4.31-1.66-.97-3.64-1.18-5.55-1.37-5.81-.59-11.61-1.17-17.42-1.76-2.32-.23-5.07-.78-5.94-2.94-.74,2.15-25.43,12.93-33.57,21.7-3.78,4.07-6.14,9.23-8.14,14.4-6.97,18.08-10.18,37.6-9.37,56.96-.49-1.8-6.73,57.45,6.79,97.69,3.7,11.03,18.07,25.91,26.62,37.78,2.44,3.38,11.96,12.24,17.95,16.04,5.31,3.37,10.45,6.18,13.03,6.85,15.94,4.1,31.79-1.87,44.99-6.9,13.2-5.03,23.77-9.13,32.58-13.73,11.01-5.75,22.08-12.39,29.18-22.58,3.82-5.49,6.25-11.6,8.06-17.99,3.44-12.11,4.71-25.24,9.21-37.08,3.69,6.09,12.85,6.95,18.94,3.27,6.09-3.68,9.52-10.59,11.35-17.46,1.83-6.88,2.41-14.06,4.49-20.87,1.74-5.7,4.56-11.24,4.51-17.2-.02-2.03-.55-4.13-1.48-6v.02Z"/>
          <path class="st1" d="M351.44,545.39h51.75c22.68-50.93,47.68-100.82,72.73-150.63,8.11-16.13,16.23-32.27,23.72-48.7,3.12-6.85,6.2-14.04,6.02-21.57-.09-3.8-1.25-7.72-3.31-10.91-1.28-1.99-2.92-3.69-4.87-4.92-1.12-.7-2.33-1.25-3.64-1.6,4.67,3.86,5.87,10.74,4.53,16.65-1.34,5.9-4.79,11.08-8.16,16.1-3.49,5.19-6.97,10.38-10.46,15.56-3.05,4.54-6.13,9.12-10.13,12.84-4.51,4.19-10.03,7.15-14.63,11.24-5.51,4.92-9.5,11.29-14.42,16.79-8,8.95-18.33,15.44-28.51,21.81,2.37.6,2.15,4.32.36,5.99-1.79,1.67-4.36,2.29-6.17,3.95-2.99,2.74-3.03,7.42-2.24,11.39s2.19,8.02,1.31,11.97c-3.22.75-6.62-3.07-9.5-1.46-1.16.65-1.73,1.99-2.2,3.24-3.99,10.75-6.17,22.16-6.44,33.62-3.25-14.57-1.8-30.14,4.08-43.86,2.26-5.27,5.09-11.59,1.83-16.3-2.19-3.15-6.65-4.55-7.91-8.18-.56-1.62-.35-3.4-.58-5.1-.62-4.65-4.33-8.17-6.89-12.1-4.88-7.51-5.63-16.88-6.24-25.82-.96-14.01-1.91-28.02-4.09-42.23-.41.68-.8,1.37-1.18,2.07-.68,1.26-1.31,2.54-1.89,3.84h0c-.26.59-.52,1.19-.76,1.79-2.85,7.01-4.4,14.58-5.26,22.12-1.19,10.4-1.19,20.91-2.05,31.35-.74,8.88-2.11,17.72-2.33,26.63s.76,18.03,4.33,25.99c-5.75,32.42-3.98,65.68-6.79,98.44h0Z"/>
        </g>
        <path class="st2" d="M535.5,187.41c-1.36,2.47-2.35,5.17-2.68,7.97-.46,3.95.39,7.96-.05,11.91s-2.8,8.21-6.73,8.8"/>
        <path class="st2" d="M322.08,385.36c-9.2,12.08-19.2,24.08-25.2,37.08-2,2,1,6,3,7,6,2,11,5,16,9,1,1,1,3,.8,3.65-12.17-7.69-25.33-13.81-39.05-18.15.25,4.5-.75,8.5.25,13.5,7,35,10,69,16.18,102.7"/>
        <path class="st2" d="M545.59,360.47c3.81,14.01,4.72,30.15,4.69,44.66,0,2.11-.07,4.33-1.12,6.16-1.93,3.4-6.33,4.3-10.19,4.94-15.1,2.53-29.93,6.66-44.17,12.28"/>
        <path class="st2" d="M551.31,414.92c5.56,3.52,4.56,11.52,1.56,16.52-14,25-31,44-47,69-10,14-19,26-28.09,39.4"/>
        <path class="st2" d="M645.27,415.41c-25.02,34.3-39.26,76.35-40.22,118.8"/>
        <path class="st2" d="M537.81,185.95c-2.1,2.76-1.72,6.61-1.24,10.04.32,2.29.69,4.72,2.16,6.5.38.47,1.07.9,1.54.53.18-.14.27-.35.35-.56.95-2.53.82-5.45-.36-7.89"/>
        <path class="st2" d="M477.56,54.37c-7.48,4.4-11.44,12.95-13.86,21.28-2.09,7.21-4.04,15.56-10.68,19.06-5.08,2.68-11.5,1.45-16.38-1.58"/>
        <path class="st2" d="M471.19,52.66c-4.24,2.92-7.71,6.95-9.98,11.57-2.4,4.88-3.5,10.43-6.75,14.79-3.81,5.11-10.13,7.86-16.45,8.7s-12.72,0-19.03-.84"/>
        <path class="st2" d="M451.99,58.15c-4.38,4.55-6.63,10.99-11.61,14.88-5.57,4.35-13.25,4.53-20.3,4.05-9.21-.63-18.34-2.05-27.45-3.48"/>
        <path class="st2" d="M473.29,82.29c5.1-3.24,11.94-2.87,17.33-.14s9.5,7.5,12.65,12.66c4.41,7.22,7.22,15.42,8.16,23.84"/>
        <path class="st2" d="M473.28,93.36c10.92-1.04,21.09,6.98,26.04,16.78,4.95,9.8,5.78,21.08,6.53,32.03"/>
        <path class="st2" d="M361.19,72.6c-2.98-3.19-5.68-6.71-7.36-10.74s-2.28-8.62-1.01-12.79c1.25-4.13,4.19-7.53,7.4-10.42,4.08-3.67,9.7-6.85,14.83-4.91"/>
        <path class="st2" d="M354.07,74.42c-5.28-5.67-10.79-11.8-12.13-19.43-1.53-8.71,3.41-18.15,11.44-21.86"/>
        <path class="st2" d="M345.22,78.47c-4.11-2-8.22-4.01-12.19-6.27-2.48-1.41-4.98-3-6.59-5.36-2.26-3.32-2.39-7.59-2.45-11.6"/>
        <path class="st2" d="M380.46,37.43c2.38-.48,4.62-1.81,7.05-1.73,2.81.08,5.17,1.99,7.45,3.63,5.03,3.62,10.78,6.36,16.9,7.27s12.64-.12,17.84-3.5"/>
        <path class="st2" d="M474.82,28.1c-4.71.83-9.79.2-14.07,2.34-4.85,2.43-7.39,7.75-9.66,12.67s-4.99,10.21-9.96,12.37"/>
        <path class="st2" d="M446.48,26.39c-12.55,4.6-25.35,9.25-38.71,9.8"/>
        <path class="st2" d="M513.04,101.09l8.03,6.4c-1.93-4.3-.39-9.25-.09-13.95.46-7.22-2.28-14.58-7.34-19.74"/>
        <circle class="st5" cx="350.45" cy="184.39" r="8.35"/>
        <circle class="st5" cx="428.72" cy="183.35" r="8.35"/>
      </g>
      <path class="st2" d="M514.38,200.86s3.95,5.7,1.94,7.32-4.06,6.07-4.65,8.9,5.48-8.12,8.52-8.11,7.9-2.31,7.09-5.81-1.51-11.46-1.51-11.46"/>
    </g>
  </g>
</svg>