<svg xmlns="http://www.w3.org/2000/svg" viewBox="0 0 841.88976 467.71654"><defs><style>.cls-1{fill:#609c70;}.cls-2{fill:#fff;}.cls-3{fill:#90bcd6;}.cls-4{fill:#efc3b8;}.cls-5{fill:#917f6f;}.cls-6{fill:none;stroke-linejoin:round;}.cls-6,.cls-7,.cls-9{stroke:#54575c;}.cls-7,.cls-8,.cls-9{fill:#54575c;}.cls-7,.cls-9{stroke-miterlimit:10;}.cls-7{stroke-width:1.02381px;}.cls-9{stroke-width:0.8872px;}</style></defs><g id="Layer_3" data-name="Layer 3"><path class="cls-1" d="M0,0V467.71649H180.56628a7.71128,7.71128,0,0,1,.99933-.07049H816.95837a7.73253,7.73253,0,0,1,1.0008.07049h23.9306V0Z"/><path class="cls-2" d="M543.554,436.96369c-2.04926-7.17249-10.475-20.60706-24.59119-27.665-9.52917-4.76453-44.29925-6.42664-51.59436-6.636q-.23547.72107-.471,1.443c6.32831,14.13575,4.40241,38.70423,3.90766,44.64136-.41346,4.96094-.83,11.92163-3.397,17.38623l88.9538-.99219a23.56555,23.56555,0,0,0-2.04925-13.32019C551.65247,446.19379,544.471,440.17291,543.554,436.96369Z"/><path class="cls-2" d="M338.6275,446.18549c-5.63549-6.66016-15.88183-19.98047-21.005-27.66516s-8.70935-25.61585-8.70935-25.61585C284.322,412.88483,215.15924,418.52033,183.908,429.279c-31.25128,10.75855-40.98535,40.4729-40.98535,40.4729l239.52246-2.67114c-8.00116-.85156-13.71258-1.58581-15.12787-1.9397C361.16944,463.60419,344.263,452.84552,338.6275,446.18549Z"/><path class="cls-2" d="M466.89746,404.10565c-.89221,2.73413-1.78363,5.47119-2.651,8.14234,1.1128,6.79443,2.71924,18.20776,2.46588,23.78064a17.60242,17.60242,0,0,1-6.51861,12.494,11.78631,11.78631,0,0,1-4.05982,2.09814s-6.33166,4.27832-9.92529,5.47607c-3.59363,1.198-23.6153,1.369-23.6153,1.369-21.005,1.02466-40.41894-11.79284-47.079-14.8667s-12.29559-10.24633-18.95568-17.931c-6.66016-7.68481-20.49268-12.80786-23.56659-16.90649-1.406-1.87451-2.25367-7.24744-2.36939-13.48938-.13727-7.4054.75678-16.035,2.98535-21.51355.09339-.22962.19416-.52478.2981-.84827l-24.99292,20.994s3.58618,17.93115,8.70935,25.61585,15.36951,21.005,21.005,27.66516c5.6355,6.66,22.54194,17.4187,28.6897,18.95556,1.41529.35389,7.12671,1.08814,15.12787,1.9397l84.96307-.94751c2.567-5.4646,2.98352-12.42529,3.397-17.38623C471.29987,442.80988,473.22577,418.2414,466.89746,404.10565Z"/><path class="cls-2" d="M332.90167,236.30615c-1.01757-5.70691-1.94653-10.619-2.374-12.08441-.74255-2.5459-1.48492-9.62793-2.02362-15.70459-2.36389-.54089-3.99212-1.25183-7.90167-.72351-6.3316.85565-2.05347,9.24078-.68445,12.321,1.369,3.08026.34222,4.96264-2.738,10.26757-3.08026,5.30487.51337,9.583.34223,13.17664-.17108,3.59363-6.33161,16.59918-1.19788,26.18225,5.13379,9.583,12.66333,5.98938,15.91467,3.93585,1.51667-.95782,2.62342-4.11248,3.373-7.20611-.37744-5.12616-2.85956-29.07251-2.85956-29.07251S332.806,237.00025,332.90167,236.30615Z"/><path class="cls-2" d="M534.16718,247.66589c-.94116,4.23536-2.88507,6.444-3.59864,4.28077-1.51989,8.09454-5.39593,19.7879-5.64215,21.38812-.26568,1.72717-3.83111,15.82788-5.41284,22.04962a6.21245,6.21245,0,0,1,.79248,1.56567c1.19788,3.59363,1.95337,5.90192,5.64716,4.62043,8.38513-2.90912,5.476-9.41193,5.476-16.94147,0,0,1.369-17.96814,3.08026-22.24628,1.71125-4.2782,11.29425-20.87738,9.24079-24.64209-2.05353-3.76477-5.476-4.107-6.674-2.39581a3.58136,3.58136,0,0,1-2.34583.86322c-.08459.4823-.1615.98773-.221,1.53259C534.16394,240.90411,534.62805,245.592,534.16718,247.66589Z"/><path class="cls-2" d="M559.49378,138.31665c-.34223-1.369-6.50275-6.3316-6.16053-10.09637s-1.19787-3.59369-2.90911-4.96265c-1.71125-1.369-3.42255-.68451-2.738-2.39575.68451-1.71131,2.90912-5.64716,1.88238-7.70069s-6.16052-5.81823-5.476-8.0429c.68451-2.22461,8.04291-4.107,11.29431-5.30487,3.25134-1.19788-5.476-2.22467-10.78094-1.54016-5.30487.6845-6.845,2.22467-6.33161-.17109s2.22461-5.64715,1.369-8.89856c-.85559-3.2514-4.96265-10.6098-5.98938-12.83441s-1.88238-2.90912-1.19788-4.44928c.68451-1.5401,5.13379-9.75415,3.76478-10.6098-1.369-.85559-13.86121,4.27814-15.40131,4.44928-1.54016.17114-7.87177-6.845-18.99493-10.09637-11.12317-3.25141-22.75971-5.64716-23.27308-7.52955-.51342-1.88238-.85565-2.738,2.56684-4.7915,3.42254-2.05353,4.62042-2.56689,2.90918-4.27814-1.71131-1.7113-21.04847-1.02679-23.27307-1.02679-2.22467,0-.85566-1.19788,1.71124-3.42249,2.56689-2.22467,4.62036-4.44928,2.738-4.27813S445.353,36.83917,441.58826,37.866c-3.76477,1.02673-16.59918,1.71124-23.7865,8.214a180.50186,180.50186,0,0,0-14.03229,14.54571s-.17114-8.72741,3.76477-13.8612,19.5083-15.059,29.26245-15.23017c9.75422-.17114-6.50274-2.56689-9.24072-2.22467-2.738.34229-17.45483,4.10706-19.16608,5.30493s-1.7113-2.738-4.107-2.39575-10.952,9.41187-9.75415,5.30487,5.30493-11.46539,1.88238-9.583c-3.42248,1.88239-11.80767,14.54566-11.80767,14.54566s-4.96265-2.5669-6.67389.17114c-1.71125,2.738-3.59363,13.51892-5.81824,13.00556-2.22467-.51343-4.10706-2.39576-5.30493-.17115S355.68317,78.765,353.97193,79.44946s-4.62037,1.02674-5.30487,4.44928c-.68451,3.42249-2.90912,5.64716-4.96265,5.30487-2.05353-.34222-4.107,6.33167-4.62042,6.67389-.51337.34229-15.059-3.76477-14.54566-2.56689s12.32105,7.87183,11.12317,14.88794c-1.19787,7.01617-7.52954,25.84-6.845,28.92023s6.33166,5.64715,5.30487,9.75415c-1.02673,4.10705-7.87177,23.95758-7.3584,30.1181.51343,6.16052.68451,18.31048,1.0268,22.7597.13006,1.69129.384,5.0401.71435,8.76642.5387,6.07666,1.28107,13.15869,2.02362,15.70459.42743,1.46539,1.35639,6.3775,2.374,12.08441.61084-4.43243,2.97211-21.18969,4.55561-27.20794a10.72046,10.72046,0,0,1,.6-1.81794c1.71125-3.42248-.17114-17.11254,2.39576-21.39068s6.16052-14.37457,6.16052-14.37457-5.476,3.42254-4.96265.51336c.51337-2.90912,8.04291-21.39068,7.87177-22.07519s-2.90912,3.08026-2.22461.85565,9.583-16.59918,10.09643-18.82379a23.16455,23.16455,0,0,1,5.6471-9.0697c2.56689-2.39576,18.48156-17.45478,37.81878-20.19281,0,0,8.55628-4.27814,14.03229-1.5401,5.476,2.738,22.75971,12.83441,29.4336,14.03228s7.87176.68451,7.87176.68451-19.5083-11.29431-20.19281-13.51892c0,0,15.91467,3.93585,19.85059,5.6471s5.98938,1.7113,8.0429.85565,5.13379-1.369,6.845.85565c1.71124,2.22461,8.9508,5.88074,16.9414,8.04291,14.54572,3.93585,13.51892,1.5401,15.91467,1.5401s6.67395,6.67389,11.12317,9.92529c0,0,7.01618,6.33167,7.87183,5.30487.85559-1.02673,2.22461-4.62036,4.27814-2.39575,2.05346,2.22467,5.30487,8.55627,3.93585,9.0697-1.369.51337-3.59363-2.738-2.738-.68451.85559,2.05347,6.33161,8.8985,6.67389,12.66327s1.02674,11.12317.51337,15.74353c-.51337,4.62042-1.02673,13.00556.51337,16.94147a27.651,27.651,0,0,1,1.54016,11.46539c-.17115,3.42255.17108,12.66333.17108,12.66333l-.34027,9.613-.11512,3.25067-.15368,4.34155c-.62818,3.007-1.23718,6.20465-1.66345,9.07868-.58289,3.93023-.82312,7.251-.29438,8.62567.48035,1.2489.24585,3.85992-.34723,7.01874.71357,2.1632,2.65748-.04541,3.59864-4.28077.46087-2.07385-.00324-6.76178.34228-9.92523.05951-.54486.13642-1.05029.221-1.53259.51843-2.95612,1.40918-4.75385,1.49024-5.48358.08544-.76892,1.75445-10.4021,2.05352-14.7168.03681-.53113.05255-.98028.05274-1.36395a45.83605,45.83605,0,0,0,1.65851-5.8233c.85559-4.96265,4.27813-24.81324,4.96264-28.40686s6.16052-7.3584,6.845-9.75416c.68445-2.39575,1.88233-3.2514,3.08027-6.16052,1.19787-2.90918,0-12.321,1.71124-15.4013S559.836,139.68567,559.49378,138.31665Z"/><path class="cls-2" d="M533.31159,197.355a27.651,27.651,0,0,0-1.54016-11.46539c-1.5401-3.93591-1.02674-12.321-.51337-16.94147.51337-4.62036-.17114-11.97876-.51337-15.74353s-5.8183-10.6098-6.67389-12.66327c-.85565-2.05353,1.369,1.19788,2.738.68451,1.369-.51343-1.88239-6.845-3.93585-9.0697-2.05353-2.22461-3.42255,1.369-4.27814,2.39575-.85565,1.0268-7.87183-5.30487-7.87183-5.30487-4.44922-3.2514-8.72741-9.92529-11.12317-9.92529s-1.36895,2.39575-15.91467-1.5401c-7.9906-2.16217-15.23016-5.8183-16.9414-8.04291-1.71125-2.22467-4.79151-1.7113-6.845-.85565s-4.107.85565-8.0429-.85565-19.85059-5.6471-19.85059-5.6471c.68451,2.22461,20.19281,13.51892,20.19281,13.51892s-1.19788.51337-7.87176-.68451-23.95759-11.29431-29.4336-14.03228c-5.476-2.738-14.03229,1.5401-14.03229,1.5401-19.33722,2.738-35.25189,17.79705-37.81878,20.19281a23.16455,23.16455,0,0,0-5.6471,9.0697c-.51343,2.22461-9.41192,16.59918-10.09643,18.82379s2.05352-1.54016,2.22461-.85565-7.3584,19.16607-7.87177,22.07519c-.51337,2.90918,4.96265-.51336,4.96265-.51336s-3.59363,10.09643-6.16052,14.37457-.68451,17.9682-2.39576,21.39068a10.72046,10.72046,0,0,0-.6,1.81794c-1.5835,6.01825-3.94477,22.77551-4.55561,27.20794-.09564.6941-.14929,1.09223-.14929,1.09223s2.48212,23.94635,2.85956,29.07251c.031.42145.04956.73144.04956.87445,0,1.88238-1.88238,18.82385-2.738,26.01111-.85559,7.18725,2.5669,20.19281,4.27814,28.06463a42.244,42.244,0,0,0,4.3786,10.24652c3.40955,6.18518,7.594,12.22181,8.45587,14.05329,1.369,2.90912,17.11255,17.45483,17.11255,17.45483,1.88239,2.738,18.65265,16.08582,22.93079,19.85059a20.95012,20.95012,0,0,0,5.62854,2.882,166.88081,166.88081,0,0,0,17.30231,5.16088c2.45111.27088,4.77154.46521,6.99444.60608,27.26392,1.72779,37.76917-5.71069,41.09186-7.45117,1.85376-.971,9.03455-7.45141,15.95325-13.75757,6.49359-5.91894,12.75641-11.68432,14.16485-12.5957,2.90912-1.88239,15.74353-17.79706,15.74353-17.79706,1.53723-2.18445,4.57227-9.80664,7.01618-19.16608,2.72528-10.43695,4.7915-22.58856,4.7915-22.58856s.29212-1.14288.74768-2.93469c1.58173-6.22174,5.14716-20.32245,5.41284-22.04962.24622-1.60022,4.12226-13.29358,5.64215-21.38812.59308-3.15882.82758-5.76984.34723-7.01874-.52874-1.3747-.28851-4.69544.29438-8.62567.42627-2.874,1.03527-6.07172,1.66345-9.07868l.15368-4.34155.11512-3.25067.34027-9.613S533.14044,200.77753,533.31159,197.355Z"/><path class="cls-2" d="M456.13391,450.62079a11.78631,11.78631,0,0,0,4.05982-2.09814,17.60242,17.60242,0,0,0,6.51861-12.494c.25336-5.57288-1.35308-16.98621-2.46588-23.78064-4.014,12.36132-7.50671,23.28613-8.11255,25.70959A30.463,30.463,0,0,0,456.13391,450.62079Z"/><path class="cls-2" d="M477.04981,370.46649c-6.9187,6.30616-14.09949,12.78662-15.95325,13.75757-3.32269,1.74048-13.82794,9.179-41.09186,7.45117-2.2229-.14087-4.54333-.3352-6.99444-.60608a166.88081,166.88081,0,0,1-17.30231-5.16088,20.95012,20.95012,0,0,1-5.62854-2.882c-4.27814-3.76477-21.0484-17.11255-22.93079-19.85059,0,0-15.74359-14.54571-17.11255-17.45483-.86187-1.83148-5.04632-7.86811-8.45587-14.05329-.7962,4.93128-5.41028,33.19587-7.67413,40.24286-.10394.32349-.20471.61865-.2981.84827-2.22857,5.47851-3.12262,14.10815-2.98535,21.51355.11572,6.24194.96344,11.61487,2.36939,13.48938,3.07391,4.09863,16.90643,9.22168,23.56659,16.90649,6.66009,7.6847,12.29559,14.85718,18.95568,17.931s26.074,15.89136,47.079,14.8667c0,0,20.02167-.171,23.6153-1.369,3.59363-1.19775,9.92529-5.47607,9.92529-5.47607a30.463,30.463,0,0,1,0-12.66321c.60584-2.42346,4.09851-13.34827,8.11255-25.70959.86737-2.67115,1.75879-5.40821,2.651-8.14234q.23557-.72216.471-1.443c5.31482-16.27478,10.49841-31.9574,10.49841-31.9574Z"/><path class="cls-3" d="M545.12165,438.80182c-2.04926-7.17248-10.475-20.60705-24.59119-27.665-9.52918-4.76452-44.29926-6.42663-51.59436-6.636q-.23547.72106-.471,1.443c6.32831,14.13574,4.40241,38.70422,3.90765,44.64136-.41345,4.96093-.82995,11.92163-3.397,17.38623l88.9538-.99219a23.56551,23.56551,0,0,0-2.04926-13.32019C553.2201,448.03192,546.03858,442.01105,545.12165,438.80182Z"/><path class="cls-3" d="M340.19513,448.02362c-5.6355-6.66015-15.88183-19.98047-21.005-27.66516s-8.70935-25.61584-8.70935-25.61584c-24.59119,19.98034-93.75391,25.61584-125.00519,36.37451-31.25128,10.75854-40.98535,40.4729-40.98535,40.4729l239.52246-2.67114c-8.00116-.85157-13.71259-1.58582-15.12787-1.9397C362.73706,465.44232,345.83063,454.68366,340.19513,448.02362Z"/><path class="cls-3" d="M468.46509,405.94379c-.89221,2.73413-1.78363,5.47119-2.651,8.14233,1.11279,6.79444,2.71924,18.20777,2.46588,23.78064a17.60238,17.60238,0,0,1-6.51861,12.494,11.78625,11.78625,0,0,1-4.05982,2.09815s-6.33166,4.27832-9.92529,5.47607c-3.59363,1.198-23.6153,1.369-23.6153,1.369-21.005,1.02466-40.41894-11.79285-47.079-14.8667s-12.29559-10.24634-18.95569-17.931c-6.66015-7.68482-20.49267-12.80786-23.56659-16.9065-1.40594-1.87451-2.25366-7.24743-2.36938-13.48938-.13727-7.40539.75677-16.035,2.98535-21.51354.09339-.22962.19415-.52479.2981-.84827l-24.99292,20.994s3.58618,17.93115,8.70935,25.61584,15.3695,21.005,21.005,27.66516c5.6355,6.66,22.54193,17.4187,28.6897,18.95557,1.41528.35388,7.12671,1.08813,15.12787,1.9397l84.96307-.94751c2.567-5.4646,2.98352-12.4253,3.397-17.38623C472.8675,444.648,474.7934,420.07953,468.46509,405.94379Z"/><path class="cls-4" d="M334.4693,238.14429c-1.01758-5.70691-1.94653-10.619-2.374-12.08441-.74255-2.5459-1.48492-9.62793-2.02362-15.70459-2.36389-.5409-3.99213-1.25183-7.90167-.72351-6.33161.85565-2.05347,9.24078-.68445,12.321,1.369,3.08026.34222,4.96265-2.738,10.26758-3.08026,5.30487.51337,9.583.34223,13.17664s-6.33161,16.59918-1.19788,26.18225c5.13379,9.583,12.66333,5.98938,15.91467,3.93585,1.51667-.95783,2.62342-4.11249,3.373-7.20612-.37744-5.12616-2.85956-29.07251-2.85956-29.07251S334.37366,238.83838,334.4693,238.14429Z"/><path class="cls-4" d="M535.73481,249.504c-.94117,4.23535-2.88508,6.444-3.59864,4.28076-1.51989,8.09455-5.39593,19.78791-5.64215,21.38812-.26568,1.72718-3.83111,15.82789-5.41284,22.04963a6.21211,6.21211,0,0,1,.79248,1.56567c1.19788,3.59363,1.95337,5.90192,5.64716,4.62042,8.38513-2.90912,5.476-9.41192,5.476-16.94146,0,0,1.369-17.96814,3.08026-22.24628,1.71124-4.2782,11.29425-20.87738,9.24078-24.64209-2.05352-3.76477-5.476-4.10706-6.67395-2.39581a3.58135,3.58135,0,0,1-2.34582.86322c-.0846.4823-.1615.98773-.221,1.53259C535.73157,242.74225,536.19568,247.43018,535.73481,249.504Z"/><path class="cls-4" d="M534.87921,198.19312a27.65085,27.65085,0,0,0-1.54016-11.4654c-1.5401-3.93591-1.02673-12.321-.51336-16.94146.51336-4.62036-.17115-11.97876-.51337-15.74353-.34229-3.76477-5.8183-10.60981-6.67389-12.66327-.85565-2.05353,1.369,1.19787,2.738.68451,1.369-.51343-1.88239-6.845-3.93586-9.06971-2.05352-2.22461-3.42254,1.369-4.27813,2.39576-.85565,1.02679-7.87183-5.30487-7.87183-5.30487-4.44922-3.25141-8.72742-9.9253-11.12317-9.9253s-1.36895,2.39575-15.91467-1.5401c-7.9906-2.16217-15.23016-5.8183-16.94141-8.04291-1.71124-2.22467-4.7915-1.7113-6.845-.85565s-4.107.85565-8.04291-.85565c-3.93591-1.71124-19.85058-5.64709-19.85058-5.64709.68451,2.22461,20.19281,13.51892,20.19281,13.51892s-1.19788.51336-7.87177-.68451-23.95758-11.29431-29.43359-14.03229c-5.476-2.738-14.03229,1.5401-14.03229,1.5401-19.33722,2.738-35.25189,17.79706-37.81878,20.19281a23.16455,23.16455,0,0,0-5.6471,9.0697c-.51343,2.22461-9.41193,16.59918-10.09644,18.82379s2.05353-1.54016,2.22461-.85565c.17115.68451-7.35839,19.16608-7.87176,22.0752-.51337,2.90918,4.96265-.51337,4.96265-.51337s-3.59363,10.09644-6.16053,14.37457-.68451,17.9682-2.39575,21.39069a10.71905,10.71905,0,0,0-.6,1.81793c-1.5835,6.01825-3.94477,22.77551-4.55561,27.208-.09564.69409-.14929,1.09222-.14929,1.09222s2.48212,23.94635,2.85956,29.07251c.031.42145.04956.73145.04956.87445,0,1.88239-1.88239,18.82386-2.738,26.01111-.85559,7.18726,2.5669,20.19281,4.27814,28.06464a42.244,42.244,0,0,0,4.3786,10.24652c3.40955,6.18518,7.594,12.2218,8.45587,14.05328,1.369,2.90912,17.11255,17.45484,17.11255,17.45484,1.88239,2.738,18.65265,16.08581,22.93079,19.85058a20.95012,20.95012,0,0,0,5.62854,2.882,166.87941,166.87941,0,0,0,17.3023,5.16089c2.45111.27087,4.77155.46521,6.99445.60608,27.26392,1.72778,37.76916-5.71069,41.09186-7.45117,1.85376-.971,9.03454-7.45142,15.95324-13.75757,6.4936-5.91895,12.75641-11.68433,14.16486-12.5957,2.90912-1.88239,15.74353-17.79706,15.74353-17.79706,1.53723-2.18445,4.57227-9.80664,7.01618-19.16608,2.72528-10.437,4.7915-22.58856,4.7915-22.58856s.29211-1.14289.74768-2.93469c1.58173-6.22174,5.14716-20.32245,5.41284-22.04963.24622-1.60022,4.12226-13.29357,5.64215-21.38812.59308-3.15881.82758-5.76983.34723-7.01874-.52875-1.37469-.28851-4.69543.29437-8.62567.42627-2.874,1.03528-6.07171,1.66346-9.07867l.15368-4.34155.11512-3.25068.34027-9.613S534.70807,201.61566,534.87921,198.19312Z"/><path class="cls-3" d="M457.70154,452.45893a11.78625,11.78625,0,0,0,4.05982-2.09815,17.60238,17.60238,0,0,0,6.51861-12.494c.25336-5.57287-1.35309-16.9862-2.46588-23.78064-4.014,12.36133-7.50671,23.28614-8.11255,25.7096A30.463,30.463,0,0,0,457.70154,452.45893Z"/><path class="cls-4" d="M478.61743,371.30463c-6.9187,6.30615-14.09948,12.78662-15.95324,13.75757-3.3227,1.74048-13.82794,9.17895-41.09186,7.45117-2.2229-.14087-4.54334-.33521-6.99445-.60608a166.87941,166.87941,0,0,1-17.3023-5.16089,20.95012,20.95012,0,0,1-5.62854-2.882c-4.27814-3.76477-21.0484-17.11255-22.93079-19.85058,0,0-15.74359-14.54572-17.11255-17.45484-.86188-1.83148-5.04632-7.8681-8.45587-14.05328-.7962,4.93127-5.41028,33.19586-7.67413,40.24286-.10395.32348-.20471.61865-.2981.84826-2.22858,5.47852-3.12262,14.10816-2.98535,21.51355.11572,6.24195.96344,11.61487,2.36938,13.48938,3.07392,4.09864,16.90644,9.22168,23.56659,16.9065,6.6601,7.68469,12.2956,14.85718,18.95569,17.931s26.074,15.89136,47.079,14.8667c0,0,20.02167-.171,23.6153-1.369,3.59363-1.19775,9.92529-5.47607,9.92529-5.47607a30.463,30.463,0,0,1,0-12.66321c.60584-2.42346,4.09851-13.34827,8.11255-25.7096.86737-2.67114,1.75879-5.4082,2.651-8.14233q.23556-.72217.471-1.443c5.31482-16.27479,10.49841-31.9574,10.49841-31.9574Z"/><path class="cls-5" d="M560.0614,137.6958c-.34222-1.369-6.50274-6.3316-6.16052-10.09637s-1.19787-3.59369-2.90912-4.96265c-1.71124-1.369-3.42254-.68451-2.738-2.39575.6845-1.7113,2.90911-5.64716,1.88238-7.70068s-6.16052-5.81824-5.476-8.04291c.68451-2.22461,8.04291-4.107,11.29431-5.30487,3.25134-1.19788-5.476-2.22467-10.781-1.54016-5.30487.6845-6.845,2.22467-6.3316-.17109.51337-2.39575,2.22461-5.64715,1.369-8.89856-.85559-3.2514-4.96265-10.6098-5.98938-12.83441s-1.88239-2.90912-1.19788-4.44928c.68451-1.5401,5.13379-9.75415,3.76477-10.6098-1.369-.85559-13.8612,4.27814-15.4013,4.44928-1.54016.17114-7.87177-6.845-18.99494-10.09637-11.12317-3.25141-22.7597-5.64716-23.27307-7.52954-.51343-1.88239-.85565-2.738,2.56683-4.79151,3.42255-2.05353,4.62043-2.56689,2.90918-4.27814-1.7113-1.7113-21.04846-1.02679-23.27307-1.02679-2.22467,0-.85565-1.19788,1.71125-3.42249,2.56689-2.22467,4.62036-4.44928,2.738-4.27813s-19.85052,6.50274-23.61529,7.52954c-3.76477,1.02673-16.59919,1.71124-23.7865,8.214A180.50186,180.50186,0,0,0,404.3371,60.00482s-.17114-8.72741,3.76477-13.8612,19.5083-15.059,29.26245-15.23017c9.75421-.17114-6.50275-2.56689-9.24072-2.22467-2.738.34229-17.45484,4.10706-19.16608,5.30493-1.7113,1.19788-1.7113-2.738-4.10705-2.39575s-10.952,9.41187-9.75415,5.30487,5.30493-11.46539,1.88238-9.583C393.55622,29.20221,385.171,41.86548,385.171,41.86548s-4.96264-2.5669-6.67389.17114c-1.71124,2.738-3.59362,13.51892-5.81823,13.00556-2.22467-.51343-4.10706-2.39576-5.30494-.17115S356.2508,78.1441,354.53955,78.82861s-4.62036,1.02674-5.30487,4.44928c-.68451,3.42249-2.90912,5.64716-4.96264,5.30487-2.05353-.34222-4.107,6.33167-4.62043,6.67389-.51336.34229-15.059-3.76477-14.54565-2.56689s12.321,7.87183,11.12317,14.88794c-1.19788,7.01617-7.52954,25.84-6.845,28.92023s6.33166,5.64715,5.30487,9.75415c-1.02674,4.107-7.87177,23.95758-7.3584,30.1181.51343,6.16052.68451,18.31048,1.02679,22.7597.13007,1.69129.384,5.0401.71436,8.76642.5387,6.07666,1.28107,13.15869,2.02362,15.70459.42743,1.4654,1.35638,6.3775,2.374,12.08441.61084-4.43243,2.97211-21.18969,4.5556-27.20794a10.71937,10.71937,0,0,1,.6-1.81794c1.71124-3.42248-.17114-17.11254,2.39575-21.39068s6.16052-14.37457,6.16052-14.37457-5.476,3.42254-4.96264.51336c.51337-2.90912,8.04291-21.39068,7.87176-22.07519-.17108-.68451-2.90912,3.08026-2.22461.85565s9.583-16.59918,10.09644-18.82379a23.16463,23.16463,0,0,1,5.64709-9.0697c2.5669-2.39576,18.48157-17.45478,37.81879-20.19281,0,0,8.55628-4.27814,14.03229-1.5401,5.476,2.738,22.7597,12.83441,29.43359,14.03228s7.87177.68451,7.87177.68451-19.5083-11.29431-20.19281-13.51892c0,0,15.91467,3.93585,19.85058,5.6471,3.93592,1.7113,5.98938,1.7113,8.04291.85565s5.13379-1.369,6.845.85565c1.71125,2.22461,8.95081,5.88074,16.94141,8.04291,14.54571,3.93585,13.51892,1.5401,15.91467,1.5401s6.67395,6.67389,11.12317,9.92529c0,0,7.01618,6.33167,7.87183,5.30487.85559-1.02673,2.22461-4.62036,4.27813-2.39575,2.05347,2.22467,5.30487,8.55627,3.93586,9.0697-1.369.51337-3.59363-2.738-2.738-.68451.85559,2.05347,6.3316,8.8985,6.67389,12.66327.34222,3.76477,1.02673,11.12317.51337,15.74353-.51337,4.62042-1.02674,13.00556.51336,16.94147a27.6508,27.6508,0,0,1,1.54016,11.46539c-.17114,3.42255.17109,12.66333.17109,12.66333l-.34028,9.613-.11511,3.25067-.15368,4.34155c-.62818,3.007-1.23719,6.20465-1.66346,9.07868-.58288,3.93023-.82312,7.251-.29437,8.62567.48035,1.2489.24585,3.85992-.34723,7.01874.71356,2.1632,2.65747-.04541,3.59863-4.28077.46088-2.07385-.00323-6.76177.34229-9.92523.05951-.54486.13641-1.05029.221-1.53259.51843-2.95612,1.40918-4.75385,1.49023-5.48358.08545-.76892,1.75446-10.4021,2.05353-14.7168.0368-.53113.05255-.98028.05273-1.364a45.83268,45.83268,0,0,0,1.65851-5.8233c.85559-4.96265,4.27814-24.81324,4.96265-28.40686s6.16052-7.3584,6.845-9.75415c.68445-2.39576,1.88233-3.25141,3.08026-6.16053,1.19788-2.90918,0-12.321,1.71125-15.4013S560.40363,139.06482,560.0614,137.6958Z"/><path class="cls-6" d="M556.64323,464.674a23.56551,23.56551,0,0,0-2.04926-13.32019c-2.66022-5.62707-9.84174-11.64795-10.75867-14.85718-2.04925-7.17248-10.475-20.60705-24.59118-27.665-9.52918-4.76453-44.29926-6.42664-51.59436-6.636q-.23549.72107-.471,1.443c6.32831,14.13574,4.4024,38.70423,3.90765,44.64136-.41345,4.96094-.83,11.92163-3.397,17.38623"/><path class="cls-6" d="M382.72636,466.61367c-8.00116-.85156-13.71259-1.58582-15.12787-1.9397-6.14777-1.53686-23.0542-12.29553-28.6897-18.95556-5.6355-6.66016-15.88184-19.98047-21.005-27.66517s-8.70936-25.61584-8.70936-25.61584c-24.59118,19.98035-93.7539,25.61584-125.00518,36.37451-31.25129,10.75855-40.98536,40.4729-40.98536,40.4729"/><path class="cls-6" d="M467.68943,465.66616c2.567-5.4646,2.98352-12.42529,3.397-17.38623.49475-5.93713,2.42066-30.50562-3.90765-44.64136-.89221,2.73413-1.78363,5.47119-2.651,8.14234,1.11279,6.79443,2.71924,18.20776,2.46588,23.78064a17.60235,17.60235,0,0,1-6.51862,12.494,11.78617,11.78617,0,0,1-4.05981,2.09815s-6.33167,4.27832-9.92529,5.47607c-3.59363,1.198-23.6153,1.369-23.6153,1.369-21.005,1.02466-40.41895-11.79285-47.079-14.8667s-12.29559-10.24634-18.95569-17.931c-6.66015-7.68481-20.49267-12.80786-23.56659-16.90649-1.40594-1.87451-2.25366-7.24744-2.36938-13.48938-.13727-7.4054.75677-16.035,2.98535-21.51355.09338-.22962.19415-.52478.29809-.84827l-24.99292,20.994s3.58619,17.93115,8.70936,25.61584,15.3695,21.005,21.005,27.66517c5.6355,6.66,22.54193,17.4187,28.6897,18.95556,1.41528.35388,7.12671,1.08814,15.12787,1.9397"/><path class="cls-6" d="M333.183,235.83907c-1.01758-5.70691-1.94653-10.619-2.374-12.08441-.74256-2.5459-1.48493-9.62793-2.02362-15.70459-2.36389-.54089-3.99213-1.25183-7.90168-.72351-6.3316.85565-2.05346,9.24078-.68444,12.321,1.369,3.08026.34222,4.96264-2.738,10.26757-3.08026,5.30487.51337,9.583.34222,13.17664-.17108,3.59363-6.3316,16.59918-1.19787,26.18225,5.13379,9.583,12.66333,5.98938,15.91467,3.93585,1.51666-.95782,2.62341-4.11249,3.373-7.20611-.37745-5.12616-2.85956-29.07251-2.85956-29.07251S333.08732,236.53316,333.183,235.83907Z"/><path class="cls-6" d="M534.44846,247.19881c-.94116,4.23536-2.88507,6.444-3.59863,4.28077-1.5199,8.09454-5.39594,19.7879-5.64215,21.38812-.26569,1.72717-3.83112,15.82788-5.41284,22.04962a6.21228,6.21228,0,0,1,.79248,1.56567c1.19787,3.59363,1.95337,5.90192,5.64715,4.62043,8.38514-2.90912,5.476-9.41193,5.476-16.94147,0,0,1.36895-17.96814,3.08026-22.24628,1.71124-4.2782,11.29425-20.87738,9.24078-24.64209-2.05353-3.76477-5.476-4.10705-6.67395-2.39581a3.58135,3.58135,0,0,1-2.34582.86322c-.0846.4823-.1615.98773-.221,1.53259C534.44523,240.437,534.90934,245.125,534.44846,247.19881Z"/><path class="cls-6" d="M559.77506,137.84957c-.34222-1.369-6.50274-6.3316-6.16052-10.09637s-1.19788-3.59369-2.90912-4.96265c-1.71124-1.369-3.42255-.68451-2.738-2.39575.68451-1.71131,2.90912-5.64716,1.88239-7.70069s-6.16052-5.81823-5.476-8.0429c.68451-2.22461,8.0429-4.107,11.29431-5.30487,3.25134-1.19788-5.476-2.22467-10.78095-1.54017-5.30487.68451-6.845,2.22467-6.3316-.17108.51337-2.39575,2.22461-5.64715,1.369-8.89856-.85559-3.2514-4.96265-10.6098-5.98938-12.83441s-1.88239-2.90912-1.19788-4.44928c.68451-1.5401,5.13379-9.75415,3.76477-10.6098-1.369-.85559-13.86121,4.27814-15.40131,4.44928-1.54016.17114-7.87176-6.845-18.99493-10.09637-11.12317-3.25141-22.7597-5.64716-23.27307-7.52955-.51343-1.88238-.85565-2.738,2.56683-4.7915,3.42255-2.05353,4.62042-2.56689,2.90918-4.27814-1.7113-1.7113-21.04846-1.02679-23.27307-1.02679-2.22467,0-.85565-1.19788,1.71124-3.42249,2.5669-2.22467,4.62037-4.44928,2.738-4.27813s-19.85053,6.50274-23.6153,7.52954c-3.76477,1.02673-16.59918,1.71124-23.78649,8.214a180.50186,180.50186,0,0,0-14.03229,14.54571s-.17114-8.72742,3.76477-13.8612,19.5083-15.059,29.26245-15.23017c9.75421-.17114-6.50275-2.56689-9.24072-2.22467-2.738.34229-17.45484,4.10706-19.16608,5.30493-1.7113,1.19788-1.7113-2.738-4.10706-2.39575S393.6121,41.1636,394.81,37.0566s5.30494-11.46539,1.88239-9.583c-3.42249,1.88239-11.80768,14.54566-11.80768,14.54566s-4.96265-2.5669-6.67389.17114c-1.71124,2.738-3.59363,13.51892-5.81824,13.00556-2.22467-.51343-4.10705-2.39576-5.30493-.17115s-11.12317,23.27307-12.83441,23.95758-4.62036,1.02674-5.30487,4.44928-2.90912,5.64716-4.96265,5.30487c-2.05352-.34222-4.107,6.33167-4.62042,6.67389-.51336.34229-15.059-3.76477-14.54565-2.56689s12.321,7.87182,11.12317,14.88794c-1.19788,7.01617-7.52954,25.84-6.845,28.92022s6.33167,5.64716,5.30488,9.75415c-1.02674,4.10706-7.87177,23.95759-7.3584,30.11811s.68451,18.31048,1.02679,22.7597c.13007,1.69129.384,5.0401.71436,8.76642.53869,6.07666,1.28106,13.15869,2.02362,15.70459.42743,1.46539,1.35638,6.3775,2.374,12.08441.61084-4.43243,2.97211-21.18969,4.5556-27.20794a10.71937,10.71937,0,0,1,.6-1.81794c1.71124-3.42248-.17114-17.11255,2.39575-21.39068s6.16052-14.37458,6.16052-14.37458-5.476,3.42255-4.96264.51337c.51336-2.90912,8.0429-21.39068,7.87176-22.07519-.17108-.68451-2.90912,3.08026-2.22461.85565s9.583-16.59918,10.09644-18.82379a23.16461,23.16461,0,0,1,5.64709-9.06971c2.5669-2.39575,18.48157-17.45477,37.81879-20.19281,0,0,8.55627-4.27813,14.03229-1.5401,5.476,2.738,22.7597,12.83442,29.43359,14.03229s7.87177.68451,7.87177.68451-19.50831-11.29431-20.19281-13.51892c0,0,15.91467,3.93585,19.85058,5.64709,3.93591,1.71131,5.98938,1.71131,8.04291.85566s5.13379-1.369,6.845.85565c1.71124,2.22461,8.95081,5.88074,16.94141,8.04291,14.54571,3.93585,13.51892,1.5401,15.91467,1.5401s6.67395,6.67389,11.12317,9.92529c0,0,7.01617,6.33166,7.87183,5.30487.85559-1.02673,2.2246-4.62036,4.27813-2.39575,2.05347,2.22467,5.30487,8.55627,3.93585,9.0697-1.369.51337-3.59362-2.738-2.738-.68451.85559,2.05347,6.3316,8.8985,6.67389,12.66327.34222,3.76477,1.02673,11.12317.51336,15.74353-.51336,4.62042-1.02673,13.00555.51337,16.94147a27.651,27.651,0,0,1,1.54016,11.46539c-.17114,3.42255.17108,12.66333.17108,12.66333l-.34027,9.613-.11511,3.25067-.15369,4.34155c-.62817,3.007-1.23718,6.20465-1.66345,9.07868-.58288,3.93023-.82312,7.251-.29437,8.62567.48035,1.2489.24585,3.85992-.34723,7.01874.71356,2.1632,2.65747-.04541,3.59863-4.28077.46088-2.07385-.00323-6.76178.34229-9.92523.05951-.54486.13641-1.05029.221-1.53259.51843-2.95612,1.40918-4.75385,1.49023-5.48358.08545-.76892,1.75446-10.4021,2.05353-14.7168.0368-.53113.05255-.98029.05273-1.36395a45.83274,45.83274,0,0,0,1.65851-5.82331c.85559-4.96264,4.27814-24.81323,4.96265-28.40686s6.16052-7.35839,6.845-9.75415c.68445-2.39575,1.88232-3.2514,3.08026-6.16052,1.19788-2.90918,0-12.321,1.71124-15.4013S560.11729,139.21859,559.77506,137.84957Z"/><path class="cls-6" d="M533.59287,196.8879a27.651,27.651,0,0,0-1.54016-11.46539c-1.5401-3.93592-1.02673-12.321-.51337-16.94147.51337-4.62036-.17114-11.97876-.51336-15.74353-.34229-3.76477-5.8183-10.6098-6.67389-12.66327-.85565-2.05353,1.369,1.19788,2.738.68451,1.369-.51343-1.88238-6.845-3.93585-9.0697-2.05353-2.22461-3.42254,1.369-4.27813,2.39575-.85566,1.02679-7.87183-5.30487-7.87183-5.30487-4.44922-3.2514-8.72742-9.92529-11.12317-9.92529s-1.369,2.39575-15.91467-1.5401c-7.9906-2.16217-15.23017-5.8183-16.94141-8.04291-1.71124-2.22467-4.7915-1.71131-6.845-.85565s-4.107.85565-8.04291-.85566c-3.93591-1.71124-19.85058-5.64709-19.85058-5.64709.6845,2.22461,20.19281,13.51892,20.19281,13.51892s-1.19788.51337-7.87177-.68451-23.95758-11.29431-29.43359-14.03229c-5.476-2.738-14.03229,1.5401-14.03229,1.5401-19.33722,2.738-35.25189,17.79706-37.81879,20.19281a23.16461,23.16461,0,0,0-5.64709,9.06971c-.51343,2.22461-9.41193,16.59918-10.09644,18.82379s2.05353-1.54016,2.22461-.85565c.17114.68451-7.3584,19.16607-7.87176,22.07519-.51337,2.90918,4.96264-.51337,4.96264-.51337s-3.59363,10.09644-6.16052,14.37458-.68451,17.9682-2.39575,21.39068a10.71937,10.71937,0,0,0-.6,1.81794c-1.58349,6.01825-3.94476,22.77551-4.5556,27.20794-.09564.69409-.14929,1.09223-.14929,1.09223s2.48211,23.94635,2.85956,29.07251c.031.42144.04956.73144.04956.87445,0,1.88238-1.88239,18.82385-2.738,26.01111-.85559,7.18725,2.56689,20.19281,4.27814,28.06463a42.24365,42.24365,0,0,0,4.3786,10.24652c3.40954,6.18518,7.594,12.2218,8.45587,14.05329,1.369,2.90912,17.11255,17.45483,17.11255,17.45483,1.88238,2.738,18.65265,16.08582,22.93078,19.85059a20.95017,20.95017,0,0,0,5.62854,2.88195,166.88,166.88,0,0,0,17.30231,5.16089c2.45111.27088,4.77155.46521,6.99445.60608,27.26391,1.72779,37.76916-5.71069,41.09186-7.45117,1.85375-.971,9.03454-7.45142,15.95324-13.75757,6.49359-5.91894,12.75641-11.68432,14.16486-12.5957,2.90912-1.88239,15.74353-17.79706,15.74353-17.79706,1.53723-2.18445,4.57226-9.80664,7.01617-19.16608,2.72528-10.43695,4.79151-22.58856,4.79151-22.58856s.29211-1.14288.74768-2.93469c1.58172-6.22174,5.14715-20.32245,5.41284-22.04962.24621-1.60022,4.12225-13.29358,5.64215-21.38812.59308-3.15882.82758-5.76984.34723-7.01874-.52875-1.3747-.28851-4.69544.29437-8.62567.42627-2.874,1.03528-6.07172,1.66345-9.07868l.15369-4.34155.11511-3.25067.34027-9.613S533.42173,200.31045,533.59287,196.8879Z"/><path class="cls-6" d="M456.4152,450.15371a11.78617,11.78617,0,0,0,4.05981-2.09815,17.60235,17.60235,0,0,0,6.51862-12.494c.25336-5.57288-1.35309-16.98621-2.46588-23.78064-4.014,12.36132-7.50672,23.28613-8.11255,25.70959A30.463,30.463,0,0,0,456.4152,450.15371Z"/><path class="cls-6" d="M477.33109,369.99941c-6.9187,6.30615-14.09949,12.78662-15.95324,13.75757-3.3227,1.74048-13.828,9.179-41.09186,7.45117-2.2229-.14087-4.54334-.3352-6.99445-.60608a166.88,166.88,0,0,1-17.30231-5.16089,20.95017,20.95017,0,0,1-5.62854-2.88195c-4.27813-3.76477-21.0484-17.11255-22.93078-19.85059,0,0-15.74359-14.54571-17.11255-17.45483-.86188-1.83149-5.04633-7.86811-8.45587-14.05329-.79621,4.93128-5.41028,33.19586-7.67414,40.24286-.10394.32349-.20471.61865-.29809.84827-2.22858,5.47851-3.12262,14.10815-2.98535,21.51355.11572,6.24194.96344,11.61487,2.36938,13.48938,3.07392,4.09863,16.90644,9.22168,23.56659,16.90649,6.6601,7.68469,12.29559,14.85718,18.95569,17.931s26.074,15.89136,47.079,14.8667c0,0,20.02167-.171,23.6153-1.369,3.59362-1.19775,9.92529-5.47607,9.92529-5.47607a30.463,30.463,0,0,1,0-12.66321c.60583-2.42346,4.09851-13.34827,8.11255-25.70959.86737-2.67115,1.75879-5.40821,2.651-8.14234q.23556-.72216.471-1.443c5.31482-16.27478,10.49841-31.9574,10.49841-31.9574Z"/><path class="cls-7" d="M510.65867,204.04012c-26.38617-3.98541-55.2461-2.3363-63.35437-1.37427-8.10821.962-7.69593.27485-21.57617-3.43572-27.2811-7.293-55.32172-8.79543-83.41889-8.79542-1.86121,0-4.623,1.10016-7.00885,1.78656-3.78,1.08765-7.07513,2.02143-7.83343,2.61115-1.23682.962-.82453,6.32172-.68714,9.48254a9.93392,9.93392,0,0,0,1.924,5.35974s12.23108-1.78662,12.78083,3.29828c.50244,4.64746,2.74853,14.97962,7.28369,20.75165,4.53509,5.772,28.585,8.79535,36.83075,9.89478,8.24566,1.09942,19.37735,2.886,27.07333.68717s17.04111-26.24876,21.30136-28.99735a8.97244,8.97244,0,0,1,8.52057-.54969c2.82178,1.48515,5.73952,9.597,8.52052,16.49137,2.36575,5.86492,4.75018,10.55877,5.63457,12.6434.74756,1.76208,5.90936,4.53509,25.83649,8.658,19.92706,4.12286,32.57043,1.924,37.79272.82458,7.96277-1.67639,16.22333-23.11944,16.22333-23.11944a46.90723,46.90723,0,0,0,5.7652-1.34278c1.92395-.68713,2.886-18.27795,2.886-18.27795S537.0449,208.02553,510.65867,204.04012Zm-85.75513,9.26663c-.89862,3.66585-6.18426,16.68473-11.54394,23.14335-5.35975,6.45861-16.97522,5.76164-27.21082,4.57489-10.44452-1.211-26.79846-4.70941-31.74591-9.28425-4.94739-4.5749-5.35969-17.62664-5.22224-22.20148a15.9976,15.9976,0,0,1,.93015-4.58578,12.337,12.337,0,0,1,9.23269-8.034c.09345-.019.1443-.02839.14467-.02846,20.10629-3.67948,44.36409-1.06562,62.80426,7.6697C422.29246,204.56078,426.55264,206.57909,424.90354,213.30675Zm103.346,20.51535c-.3797,3.87163-2.714,12.36651-7.55841,15.41339-5.57418,3.50588-15.797,2.29943-22.06641,1.94175a111.68607,111.68607,0,0,1-21.86038-3.445c-4.867-1.272-11.023-2.22123-15.44229-4.6909-2.0614-1.1524-4.53515-6.91443-5.22228-10.65975-.68707-3.745-3.43517-15.98736-.82533-21.03,4.10482-7.93124,19.66339-5.62936,26.86273-5.51924A212.48679,212.48679,0,0,1,516.54994,209.17c5.33678.96163,11.84686,2.4163,12.26411,8.96771A100.05551,100.05551,0,0,1,528.24949,233.8221Z"/><path class="cls-6" d="M378.846,299.49942a11.40938,11.40938,0,0,1,4.09941.55138c4.25758,1.27126,10.86247,3.05917,15.13265,3.32605,6.72984.42062,19.989.33381,24.19517,2.01627s5.2887.15467,11.22617.515c9.40176.57063,22.67115,3.968,32.20105,5.53374a61.01424,61.01424,0,0,0,8.53035.77549"/><path class="cls-6" d="M419.32636,346.33879s12.87307.77549,17.37089,2.94685"/><path class="cls-6" d="M374.038,293.29553s-5.2733,1.70607-5.2733,2.63665"/><line class="cls-6" x1="418.39577" y1="235.90955" x2="414.05305" y2="247.23165"/><line class="cls-6" x1="455.61911" y1="240.71757" x2="458.56596" y2="260.41492"/><path class="cls-6" d="M461.20261,257.62317s6.97938,5.2733,7.28957,12.09758c.20713,4.55684-.15509,9.46093-16.28521,8.37525"/><path class="cls-6" d="M415.44893,249.8683s-8.84055,5.5835-11.4772,8.84055-3.4219,10.33668-.62039,12.718c3.10195,2.63665,5.11821,2.48156,11.78739,2.32646"/><path class="cls-6" d="M425.065,274.99406s2.01626,4.03253,6.359,4.34272c2.32055.16575,5.8937.46529,9.15074-1.86117"/><path class="cls-8" d="M424.86977,272.13922a1.50227,1.50227,0,0,0,1.28232-2.20843c-.70141-1.01092-3.33369-2.27307-5.3786-2.60025-3.87743-.62039-13.49992-1.0686-13.78488,2.27967-.13218,1.55309,7.37892-.2162,10.54347.85487A39.02269,39.02269,0,0,0,424.86977,272.13922Z"/><path class="cls-8" d="M448.48573,273.20781a8.75333,8.75333,0,0,0-3.02769.67678c-.94047.50942-1.72879,1.41033-2.27967,1.46041-.78364.07124-2.03033-1.46041.10686-2.814,2.71849-1.72171,4.23876-2.77835,8.94058-2.84959s9.11868,2.38653,9.26116,3.98942-.56992,2.066-1.70976,1.70975A28.3022,28.3022,0,0,0,448.48573,273.20781Z"/><path class="cls-6" d="M396.39131,92.46032A63.95077,63.95077,0,0,0,425.85748,87.409c18.24209-7.86936,29.04522-9.68174,29.04522-9.68174"/><path class="cls-6" d="M427.80358,93.7986a78.05481,78.05481,0,0,0,15.10774-1.86725c8.4875-1.86724,18.16325-5.77149,41.419.679"/><path class="cls-6" d="M475.50332,81.23711s.84875-1.18825,4.92275-.16975,27.32974,9.8455,27.32974,9.8455"/><path class="cls-6" d="M508.26506,109.0761s18.333,4.24375,28.00875-5.94125"/><path class="cls-6" d="M496.55231,110.7736a66.427,66.427,0,0,0,18.6725,7.29925c8.4924,1.69176,18.0675.10808,19.012-.679"/><path class="cls-6" d="M518.95931,124.18385s13.2405,2.54625,18.84225-1.358"/><path class="cls-6" d="M382.48034,99.2306s-13.92835,3.91616-21.3885,4.4135c-7.63875.50925-16.975-1.358-16.975-1.358"/><path class="cls-6" d="M370.08859,107.0391s-7.63875,3.0555-13.41025,3.56475-12.73125.679-12.73125.679"/><path class="cls-6" d="M384.88468,42.01925s-5.96909,26.31686-4.95059,30.56061"/><path class="cls-6" d="M357.69684,126.7301s-4.074,4.4135-4.4135,6.111"/><path class="cls-6" d="M329.85785,238.93483s-1.52775,16.63549-2.54625,17.31449-4.074.679-3.56475-3.395,2.20675-7.1295,1.86725-9.1665"/><path class="cls-6" d="M329.17885,231.46583s-3.56475,4.074-3.0555,6.79"/><path class="cls-6" d="M320.69135,214.83033s4.074.84875,4.4135,4.4135-2.20675,10.35475-2.037,17.14475-.3395,5.60174-.3395,5.60174"/><path class="cls-6" d="M535.93431,243.51807s3.7345-4.24375,4.58324-.679-8.99674,17.3145-10.35474,25.97175-1.86725,11.543-1.86725,11.543"/><circle class="cls-9" cx="391.78793" cy="212.22751" r="6.51689"/><circle class="cls-9" cx="485.66634" cy="222.00475" r="6.51689"/></g></svg>