<?xml version="1.0" encoding="UTF-8"?>
<svg id="Layer_1" xmlns="http://www.w3.org/2000/svg" version="1.1" viewBox="0 0 841.89 467.72">
  <!-- Generator: Adobe Illustrator 29.5.0, SVG Export Plug-In . SVG Version: 2.1.0 Build 137)  -->
  <defs>
    <style>
      .st0, .st1, .st2 {
        fill: none;
      }

      .st3 {
        fill: #efc3c2;
      }

      .st4 {
        fill: #55565a;
      }

      .st4, .st1, .st2 {
        stroke-miterlimit: 10;
      }

      .st4, .st2 {
        stroke: #55565a;
      }

      .st5 {
        fill: #df625c;
      }

      .st6 {
        fill: #69595f;
      }

      .st7 {
        fill: #1b5492;
      }

      .st1 {
        stroke: #291c1b;
      }

      .st8 {
        fill: #fff;
      }

      .st9 {
        fill: #1b2151;
      }
    </style>
  </defs>
  <rect class="st5" width="841.89" height="468.38"/>
  <g>
    <path class="st8" d="M304.21,164.66c.17-.14.33-.28.51-.4,0-.16-.02-.33-.03-.49-.16.3-.32.6-.48.9Z"/>
    <path class="st8" d="M328.71,183.08c.04.48.09.97.15,1.46.08-.48.05-.97-.15-1.46Z"/>
    <path class="st8" d="M304.21,164.66c-.67.55-1.27,1.2-1.73,1.93-.3.47-.54.97-.76,1.47.04.34.07.68.11,1.01.79-1.47,1.58-2.95,2.37-4.42Z"/>
    <path class="st8" d="M568.43,120.91c-4.55-7.5-6.68-16.45-6-25.21-1.79-2.51-3.58-5.02-5.37-7.54,1.36.33,2.72.66,4.07.98-3.44-2.76-5.42-7.25-5.14-11.65-13.31-26.21-35.73-47.69-62.48-59.86-15.75-7.16-32.94-11.08-50.22-11.62-8.6-.27-17.5.08-25.96,1.78-10.61,2.13-20.59,3.82-30.45,8.62-9.06,4.41-15.89,10.63-22.89,17.69-3.06,3.09-7.84,2.49-11.88,4.48-4.17,2.05-7.73,5.16-11.04,8.37-14.59,14.13-28.11,30.08-35.14,49.14-8.4,22.75-6.84,47.82-4.19,71.95.22-.51.46-1,.76-1.47.46-.73,1.06-1.38,1.73-1.93.16-.3.32-.6.48-.9,0,.16.02.33.03.49.21,3.53.42,7.06.62,10.58,2.35-3.2,4.71-6.4,7.06-9.6l-.76,17.55c2.88-2.41,5.77-4.83,8.65-7.24-.45,2.39-.9,4.86-.36,7.22.54,2.37,2.36,4.62,4.78,4.88,1.9.2,3.84-1.35,4.13-3.11-.06-.49-.11-.98-.15-1.46.2.48.23.98.15,1.46.42,3.37,1.39,6.96,2.96,10.15,1.05,2.12,2.35,4.06,3.93,5.64,2.25-3.69,4.8-7.26,5.94-11.46.02-.09.05-.17.08-.25,1.56-6.11,2.94-12.27,4.41-18.4.89-3.72,1.79-7.46,2.87-11.13.85-2.87,1.81-5.7,2.97-8.45,2.96-7.01,8.33-12.31,11.58-18.98,3.74-7.7,2.1-16.8.37-25.18-1.17-5.66-2.33-11.32-3.5-16.99-1.6-7.75-3.2-15.66-2.28-23.52.92-7.86,4.82-15.8,11.78-19.56,26.91,6.98,56.31,10.72,85.49,9.45,1.36-.06,6.89,6.42,8.21,7.5,3.03,2.49,6.19,4.82,9.47,6.98,6.63,4.37,13.71,8.05,21.07,11.02,7.45,3,15.19,5.28,23.08,6.8,4.34.83,7.43,1.02,11.06,3.6,3.48,2.48,9.72,5.31,11.98,8.85,2.1,3.3,2.53,9.1,3.4,12.91,2.3,10.15,4.24,20.38,5.82,30.66,1.19,7.75,2.17,15.54,2.95,23.34.25,2.51.48,5.03.69,7.54.43,5.16.76,10.32,1.01,15.5.09,1.93.16,3.86.23,5.79.02.54.05,1.09.06,1.63.05,1.72.95,5.93.17,7.42,2.45-4.69,4.9-9.37,7.34-14.06,3.6-8.47,5.92-18.69,6.93-29.08.03-.35.08-.7.11-1.05,1.77,1.49,3.55,2.99,5.32,4.48-5.97-14.02-8.04-29.67-5.91-44.76Z"/>
    <path class="st8" d="M518.48,344.59c-5.96,9.78-13.28,18.92-22.02,26.26,6.27-1.37,12.4-3.41,18.24-6.08,4.26-1.94,8.67-4.56,10.38-8.91,1.34-3.39.75-7.3-.77-10.62-.85-1.85-1.97-3.55-3.2-5.18-.85,1.52-1.73,3.03-2.63,4.52h0Z"/>
    <path class="st8" d="M568.91,162.24c-1.01,10.39-3.32,20.61-6.93,29.08-2.45,4.69-4.9,9.37-7.34,14.06.78-1.49-.12-5.7-.17-7.42-.02-.54-.05-1.09-.06-1.63-.07-1.93-.14-3.86-.23-5.79-.25-5.17-.58-10.34-1.01-15.5-.21-2.52-.44-5.03-.69-7.54-.78-7.8-1.76-15.59-2.95-23.34-1.58-10.28-3.52-20.51-5.82-30.66-.87-3.81-1.29-9.61-3.4-12.91-2.26-3.54-8.5-6.37-11.98-8.85-3.63-2.58-6.72-2.76-11.06-3.6-7.89-1.52-15.63-3.79-23.08-6.8-7.36-2.97-14.44-6.65-21.07-11.02-3.28-2.16-6.44-4.49-9.47-6.98-1.31-1.08-6.85-7.56-8.21-7.5-29.19,1.27-58.58-2.47-85.49-9.45-6.96,3.76-10.86,11.7-11.78,19.56-.92,7.86.68,15.77,2.28,23.52,1.17,5.66,2.33,11.32,3.5,16.99,1.73,8.38,3.37,17.49-.37,25.18-3.24,6.67-8.61,11.96-11.58,18.98-1.16,2.75-2.13,5.58-2.97,8.45-1.08,3.67-1.98,7.4-2.87,11.13-1.47,6.13-2.85,12.29-4.41,18.4-.02.09-.05.17-.08.25-1.14,4.2-3.69,7.77-5.94,11.46-1.58-1.57-2.89-3.52-3.93-5.64-1.57-3.19-2.55-6.79-2.96-10.15-.3,1.76-2.23,3.31-4.13,3.11-2.42-.26-4.23-2.51-4.78-4.88-.54-2.37-.09-4.84.36-7.22-2.88,2.41-5.77,4.83-8.65,7.24l.76-17.55c-2.35,3.2-4.71,6.4-7.06,9.6-.21-3.53-.42-7.06-.62-10.58-.18.12-.34.27-.51.4-.79,1.47-1.58,2.95-2.37,4.42-.04-.34-.07-.68-.11-1.01-.86,2.04-1.12,4.33-1.11,6.56.09,16.82,12.96,30.74,17.35,46.98,1.88,6.95,2.19,14.33,4.92,20.99,1.96,4.78,5.73,9.24,11.07,11.33,2.3,8.09,1.16,16.91.53,25.57-.61,8.28-.73,16.4,3.1,23.55,2.98,5.56,8,9.7,12.89,13.68,19.21,15.65,38.54,31.39,60.21,43.4,20.04,11.11,42.38,18.94,65.38,20.34,1.63.1,3.26.17,4.89.2,1.19.85,2.32,1.77,3.34,2.75,1.47,1.41,2.7,2.96,3.56,4.65.45-1.95.97-3.87,1.56-5.78.67-2.18,1.44-4.34,2.27-6.47.23-.59.47-1.17.71-1.75,1.39-1.03,2.74-2.1,4.06-3.22,8.73-7.35,16.06-16.48,22.02-26.26h0c.91-1.49,1.78-3,2.63-4.52,2.24-3.98,4.3-8.06,6.23-12.21,3.43-7.37,6.45-14.94,9.34-22.56,9.14-18,15.09-37.33,17.63-57.27,0,0,.01-.02.02-.02,4.36-5.03,5.27-11.2,5.29-17.85s2.31-15.24,4.3-21.59c1.74-5.57,5.39-10.34,7.67-15.71,3.49-8.23,1.57-20.78-2.65-30.61Z"/>
    <path class="st8" d="M555.01,378.65s-.02.06-.02.09c.08.16.17.32.25.48-.08-.19-.14-.39-.23-.58Z"/>
    <path class="st8" d="M555.24,379.23c-.08-.16-.17-.32-.25-.48-3.48-6.71-7.01-13.39-10.6-20.04-5.57-10.35-11.25-20.63-17.06-30.84-1.93,4.14-3.99,8.22-6.23,12.21,1.23,1.63,2.35,3.33,3.2,5.18,1.52,3.31,2.11,7.22.77,10.62-1.72,4.35-6.13,6.96-10.38,8.91-5.84,2.67-11.97,4.71-18.24,6.08-1.32,1.11-2.67,2.19-4.06,3.22-.24.58-.48,1.17-.71,1.75-.83,2.13-1.59,4.28-2.27,6.47-.59,1.9-1.1,3.83-1.56,5.78.8,1.57,1.28,3.25,1.29,5.05,4.02-1.64,9.53-1.11,13.93-2.41,5.6-1.66,9.53-6.52,13.36-10.92,5.23-6,12.51-12.09,20.23-10.18,5.08,1.26,8.66,5.66,11.86,9.81,3.05,3.96,6.11,7.91,9.16,11.87,3.56,4.61,7.12,9.22,10.67,13.83-4.29-8.67-8.68-17.29-13.13-25.88Z"/>
    <path class="st8" d="M656.49,467.38c-16.96-51.29-60.09-93.67-112.1-108.68,3.58,6.65,7.11,13.33,10.6,20.04,0-.03.02-.06.02-.09.08.19.15.39.23.58,4.46,8.59,8.84,17.21,13.13,25.88-3.56-4.61-7.12-9.22-10.67-13.83-3.05-3.96-6.11-7.91-9.16-11.87-3.2-4.14-6.78-8.55-11.86-9.81-7.73-1.92-15.01,4.17-20.23,10.18-3.83,4.4-7.77,9.26-13.36,10.92-4.4,1.31-9.91.77-13.93,2.41-.49.2-.94.44-1.38.71-.32-.18-.63-.35-.95-.52-9.12-4.89-19.63-7.18-29.95-6.46-16.1,9.61-30.63,20.96-43.83,33.6-6.7,6.41-13.06,13.15-19.1,20.17-33.85-36.09-68.75-71.2-104.64-105.27.98-1.24-10.81,3.1-20.21,10.2-3.2,2.42,2.43,2.05-10.6,11.13-33.16,23.12-103.15,68.4-126.7,88.22-11.27,9.48-17.85,16.61-21.69,22.5h546.39Z"/>
    <path class="st8" d="M487.86,388.06c-.86-1.68-2.09-3.23-3.56-4.65-1.02-.98-2.14-1.9-3.34-2.75-1.63-.03-3.27-.1-4.89-.2-22.99-1.4-45.34-9.23-65.38-20.34-21.67-12.01-41.01-27.75-60.21-43.4-4.89-3.99-9.91-8.12-12.89-13.68-3.84-7.15-3.71-15.27-3.1-23.55-6.51-2.69-20.97.74-26.6,5.49-7.42,6.25-4.98,14.29-7.62,23.62-1.69,5.98-3.26,12.15-5.74,17.82-1.39,3.17-3.06,6.19-5.22,8.92,35.89,34.07,70.79,69.18,104.64,105.27,6.04-7.02,12.4-13.76,19.1-20.17,13.2-12.64,27.73-23.99,43.83-33.6,10.33-.71,20.83,1.57,29.95,6.46.32.17.63.35.95.52.44-.27.89-.51,1.38-.71-.01-1.8-.49-3.48-1.29-5.05Z"/>
    <path class="st8" d="M334.2,284.89s-23.43,1.33-19.52,8.59,35.8,23.24,35.8,23.24c0,0-17.37-14.65-16.82-23.24l.54-8.59Z"/>
  </g>
  <g>
    <path class="st0" d="M302.21,163.66c.17-.14.33-.28.51-.4,0-.16-.02-.33-.03-.49-.16.3-.32.6-.48.9Z"/>
    <path class="st1" d="M326.7,182.08c.04.48.09.97.15,1.46.08-.48.05-.97-.15-1.46Z"/>
    <path class="st1" d="M302.21,163.66c-.67.55-1.27,1.2-1.73,1.93-.3.47-.54.97-.76,1.47.04.34.07.68.11,1.01.79-1.47,1.58-2.95,2.37-4.42Z"/>
    <path class="st6" d="M566.43,119.91c-4.55-7.5-6.68-16.45-6-25.21-1.79-2.51-3.58-5.02-5.37-7.54,1.36.33,2.72.66,4.07.98-3.44-2.76-5.42-7.25-5.14-11.65-13.31-26.21-35.73-47.69-62.48-59.86-15.75-7.16-32.94-11.08-50.22-11.62-8.6-.27-17.5.08-25.96,1.78-10.61,2.13-20.59,3.82-30.45,8.62-9.06,4.41-15.89,10.63-22.89,17.69-3.06,3.09-7.84,2.49-11.88,4.48-4.17,2.05-7.73,5.16-11.04,8.37-14.59,14.13-28.11,30.08-35.14,49.14-8.4,22.75-6.84,47.82-4.19,71.95.22-.51.46-1,.76-1.47.46-.73,1.06-1.38,1.73-1.93.16-.3.32-.6.48-.9,0,.16.02.33.03.49.21,3.53.42,7.06.62,10.58,2.35-3.2,4.71-6.4,7.06-9.6l-.76,17.55c2.88-2.41,5.77-4.83,8.65-7.24-.45,2.39-.9,4.86-.36,7.22.54,2.37,2.36,4.62,4.78,4.88,1.9.2,3.84-1.35,4.13-3.11-.06-.49-.11-.98-.15-1.46.2.48.23.98.15,1.46.42,3.37,1.39,6.96,2.96,10.15,1.05,2.12,2.35,4.06,3.93,5.64,2.25-3.69,4.8-7.26,5.94-11.46.02-.09.05-.17.08-.25,1.56-6.11,2.94-12.27,4.41-18.4.89-3.72,1.79-7.46,2.87-11.13.85-2.87,1.81-5.7,2.97-8.45,2.96-7.01,8.33-12.31,11.58-18.98,3.74-7.7,2.1-16.8.37-25.18-1.17-5.66-2.33-11.32-3.5-16.99-1.6-7.75-3.2-15.66-2.28-23.52.92-7.86,4.82-15.8,11.78-19.56,26.91,6.98,56.31,10.72,85.49,9.45,1.36-.06,6.89,6.42,8.21,7.5,3.03,2.49,6.19,4.82,9.47,6.98,6.63,4.37,13.71,8.05,21.07,11.02,7.45,3,15.19,5.28,23.08,6.8,4.34.83,7.43,1.02,11.06,3.6,3.48,2.48,9.72,5.31,11.98,8.85,2.1,3.3,2.53,9.1,3.4,12.91,2.3,10.15,4.24,20.38,5.82,30.66,1.19,7.75,2.17,15.54,2.95,23.34.25,2.51.48,5.03.69,7.54.43,5.16.76,10.32,1.01,15.5.09,1.93.16,3.86.23,5.79.02.54.05,1.09.06,1.63.05,1.72.95,5.93.17,7.42,2.45-4.69,4.9-9.37,7.34-14.06,3.6-8.47,5.92-18.69,6.93-29.08.03-.35.08-.7.11-1.05,1.77,1.49,3.55,2.99,5.32,4.48-5.97-14.02-8.04-29.67-5.91-44.76Z"/>
    <path class="st7" d="M518.48,344.59c-5.96,9.78-13.28,18.92-22.02,26.26,6.27-1.37,12.4-3.41,18.24-6.08,4.26-1.94,8.67-4.56,10.38-8.91,1.34-3.39.75-7.3-.77-10.62-.85-1.85-1.97-3.55-3.2-5.18-.85,1.52-1.73,3.03-2.63,4.52h0Z"/>
    <path class="st3" d="M566.91,161.24c-1.01,10.39-3.32,20.61-6.93,29.08-2.45,4.69-4.9,9.37-7.34,14.06.78-1.49-.12-5.7-.17-7.42-.02-.54-.05-1.09-.06-1.63-.07-1.93-.14-3.86-.23-5.79-.25-5.17-.58-10.34-1.01-15.5-.21-2.52-.44-5.03-.69-7.54-.78-7.8-1.76-15.59-2.95-23.34-1.58-10.28-3.52-20.51-5.82-30.66-.87-3.81-1.29-9.61-3.4-12.91-2.26-3.54-8.5-6.37-11.98-8.85-3.63-2.58-6.72-2.76-11.06-3.6-7.89-1.52-15.63-3.79-23.08-6.8-7.36-2.97-14.44-6.65-21.07-11.02-3.28-2.16-6.44-4.49-9.47-6.98-1.31-1.08-6.85-7.56-8.21-7.5-29.19,1.27-58.58-2.47-85.49-9.45-6.96,3.76-10.86,11.7-11.78,19.56-.92,7.86.68,15.77,2.28,23.52,1.17,5.66,2.33,11.32,3.5,16.99,1.73,8.38,3.37,17.49-.37,25.18-3.24,6.67-8.61,11.96-11.58,18.98-1.16,2.75-2.13,5.58-2.97,8.45-1.08,3.67-1.98,7.4-2.87,11.13-1.47,6.13-2.85,12.29-4.41,18.4-.02.09-.05.17-.08.25-1.14,4.2-3.69,7.77-5.94,11.46-1.58-1.57-2.89-3.52-3.93-5.64-1.57-3.19-2.55-6.79-2.96-10.15-.3,1.76-2.23,3.31-4.13,3.11-2.42-.26-4.23-2.51-4.78-4.88-.54-2.37-.09-4.84.36-7.22-2.88,2.41-5.77,4.83-8.65,7.24l.76-17.55c-2.35,3.2-4.71,6.4-7.06,9.6-.21-3.53-.42-7.06-.62-10.58-.18.12-.34.27-.51.4-.79,1.47-1.58,2.95-2.37,4.42-.04-.34-.07-.68-.11-1.01-.86,2.04-1.12,4.33-1.11,6.56.09,16.82,12.96,30.74,17.35,46.98,1.88,6.95,2.19,14.33,4.92,20.99,1.96,4.78,5.73,9.24,11.07,11.33,2.3,8.09,1.16,16.91.53,25.57-.61,8.28-.73,16.4,3.1,23.55,2.98,5.56,8,9.7,12.89,13.68,19.21,15.65,38.54,31.39,60.21,43.4,20.04,11.11,42.38,18.94,65.38,20.34,1.63.1,3.26.17,4.89.2,1.19.85,2.32,1.77,3.34,2.75,1.47,1.41,2.7,2.96,3.56,4.65.45-1.95.97-3.87,1.56-5.78.67-2.18,1.44-4.34,2.27-6.47.23-.59.47-1.17.71-1.75,1.39-1.03,2.74-2.1,4.06-3.22,8.73-7.35,16.06-16.48,22.02-26.26h0c.91-1.49,1.78-3,2.63-4.52,2.24-3.98,4.3-8.06,6.23-12.21,3.43-7.37,6.45-14.94,9.34-22.56,9.14-18,15.09-37.33,17.63-57.27,0,0,.01-.02.02-.02,4.36-5.03,5.27-11.2,5.29-17.85s2.31-15.24,4.3-21.59c1.74-5.57,5.39-10.34,7.67-15.71,3.49-8.23,1.57-20.78-2.65-30.61Z"/>
    <path class="st1" d="M553.01,377.65s-.02.06-.02.09c.08.16.17.32.25.48-.08-.19-.14-.39-.23-.58Z"/>
    <path class="st7" d="M555.24,379.23c-.08-.16-.17-.32-.25-.48-3.48-6.71-7.01-13.39-10.6-20.04-5.57-10.35-11.25-20.63-17.06-30.84-1.93,4.14-3.99,8.22-6.23,12.21,1.23,1.63,2.35,3.33,3.2,5.18,1.52,3.31,2.11,7.22.77,10.62-1.72,4.35-6.13,6.96-10.38,8.91-5.84,2.67-11.97,4.71-18.24,6.08-1.32,1.11-2.67,2.19-4.06,3.22-.24.58-.48,1.17-.71,1.75-.83,2.13-1.59,4.28-2.27,6.47-.59,1.9-1.1,3.83-1.56,5.78.8,1.57,1.28,3.25,1.29,5.05,4.02-1.64,9.53-1.11,13.93-2.41,5.6-1.66,9.53-6.52,13.36-10.92,5.23-6,12.51-12.09,20.23-10.18,5.08,1.26,8.66,5.66,11.86,9.81,3.05,3.96,6.11,7.91,9.16,11.87,3.56,4.61,7.12,9.22,10.67,13.83-4.29-8.67-8.68-17.29-13.13-25.88Z"/>
    <path class="st9" d="M654.49,466.38c-16.96-51.29-60.09-93.67-112.1-108.68,3.58,6.65,7.11,13.33,10.6,20.04,0-.03.02-.06.02-.09.08.19.15.39.23.58,4.46,8.59,8.84,17.21,13.13,25.88-3.56-4.61-7.12-9.22-10.67-13.83-3.05-3.96-6.11-7.91-9.16-11.87-3.2-4.14-6.78-8.55-11.86-9.81-7.73-1.92-15.01,4.17-20.23,10.18-3.83,4.4-7.77,9.26-13.36,10.92-4.4,1.31-9.91.77-13.93,2.41-.49.2-.94.44-1.38.71-.32-.18-.63-.35-.95-.52-9.12-4.89-19.63-7.18-29.95-6.46-16.1,9.61-30.63,20.96-43.83,33.6-6.7,6.41-13.06,13.15-19.1,20.17-33.85-36.09-68.75-71.2-104.64-105.27.98-1.24-10.81,3.1-20.21,10.2-3.2,2.42,2.43,2.05-10.6,11.13-33.16,23.12-103.15,68.4-126.7,88.22-11.27,9.48-17.85,16.61-21.69,22.5h546.39Z"/>
    <path class="st7" d="M485.86,387.06c-.86-1.68-2.09-3.23-3.56-4.65-1.02-.98-2.14-1.9-3.34-2.75-1.63-.03-3.27-.1-4.89-.2-22.99-1.4-45.34-9.23-65.38-20.34-21.67-12.01-41.01-27.75-60.21-43.4-4.89-3.99-9.91-8.12-12.89-13.68-3.84-7.15-3.71-15.27-3.1-23.55-6.51-2.69-20.97.74-26.6,5.49-7.42,6.25-4.98,14.29-7.62,23.62-1.69,5.98-3.26,12.15-5.74,17.82-1.39,3.17-3.06,6.19-5.22,8.92,35.89,34.07,70.79,69.18,104.64,105.27,6.04-7.02,12.4-13.76,19.1-20.17,13.2-12.64,27.73-23.99,43.83-33.6,10.33-.71,20.83,1.57,29.95,6.46.32.17.63.35.95.52.44-.27.89-.51,1.38-.71-.01-1.8-.49-3.48-1.29-5.05Z"/>
    <path class="st7" d="M332.2,283.89s-23.43,1.33-19.52,8.59,35.8,23.24,35.8,23.24c0,0-17.37-14.65-16.82-23.24l.54-8.59Z"/>
  </g>
  <path class="st2" d="M435.4,216.64c-1.17,3.34-2.06,6.87-1.74,10.4.32,3.53,2.04,7.08,5.1,8.87,3.54,2.08,8.01,1.45,11.99,2.48,3.93,1.02,7.01,4.79,13.59,4.77,12.92-.04,13.09-6.27,19.19-6.72,2.34-.17,4.78.39,6.95-.5,3.33-1.37,4.9-5.4,4.55-8.98s-2.19-6.82-3.99-9.93"/>
  <path class="st2" d="M476.11,213.88c-2.31-16.28-1.04-33.06,3.72-48.8"/>
  <path class="st8" d="M503.88,266.08c-13.4-3-27.21,2.65-40.93,2.25-9.12-.26-17.99-3.19-27.1-3.76-6.42-.4-12.84.37-19.23,1.14,3.6,4.46,8.65,7.58,14,9.64,5.35,2.06,11.03,3.1,16.7,3.96,10.07,1.52,20.35,2.47,30.41.86,10.05-1.61,19.95-6,26.15-14.1Z"/>
  <g>
    <path class="st2" d="M304.21,164.66c.17-.14.33-.28.51-.4,0-.16-.02-.33-.03-.49-.16.3-.32.6-.48.9Z"/>
    <path class="st2" d="M328.71,183.08c.04.48.09.97.15,1.46.08-.48.05-.97-.15-1.46Z"/>
    <path class="st2" d="M304.21,164.66c-.67.55-1.27,1.2-1.73,1.93-.3.47-.54.97-.76,1.47.04.34.07.68.11,1.01.79-1.47,1.58-2.95,2.37-4.42Z"/>
    <path class="st2" d="M568.43,120.91c-4.55-7.5-6.68-16.45-6-25.21-1.79-2.51-3.58-5.02-5.37-7.54,1.36.33,2.72.66,4.07.98-3.44-2.76-5.42-7.25-5.14-11.65-13.31-26.21-35.73-47.69-62.48-59.86-15.75-7.16-32.94-11.08-50.22-11.62-8.6-.27-17.5.08-25.96,1.78-10.61,2.13-20.59,3.82-30.45,8.62-9.06,4.41-15.89,10.63-22.89,17.69-3.06,3.09-7.84,2.49-11.88,4.48-4.17,2.05-7.73,5.16-11.04,8.37-14.59,14.13-28.11,30.08-35.14,49.14-8.4,22.75-6.84,47.82-4.19,71.95.22-.51.46-1,.76-1.47.46-.73,1.06-1.38,1.73-1.93.16-.3.32-.6.48-.9,0,.16.02.33.03.49.21,3.53.42,7.06.62,10.58,2.35-3.2,4.71-6.4,7.06-9.6l-.76,17.55c2.88-2.41,5.77-4.83,8.65-7.24-.45,2.39-.9,4.86-.36,7.22.54,2.37,2.36,4.62,4.78,4.88,1.9.2,3.84-1.35,4.13-3.11-.06-.49-.11-.98-.15-1.46.2.48.23.98.15,1.46.42,3.37,1.39,6.96,2.96,10.15,1.05,2.12,2.35,4.06,3.93,5.64,2.25-3.69,4.8-7.26,5.94-11.46.02-.09.05-.17.08-.25,1.56-6.11,2.94-12.27,4.41-18.4.89-3.72,1.79-7.46,2.87-11.13.85-2.87,1.81-5.7,2.97-8.45,2.96-7.01,8.33-12.31,11.58-18.98,3.74-7.7,2.1-16.8.37-25.18-1.17-5.66-2.33-11.32-3.5-16.99-1.6-7.75-3.2-15.66-2.28-23.52.92-7.86,4.82-15.8,11.78-19.56,26.91,6.98,56.31,10.72,85.49,9.45,1.36-.06,6.89,6.42,8.21,7.5,3.03,2.49,6.19,4.82,9.47,6.98,6.63,4.37,13.71,8.05,21.07,11.02,7.45,3,15.19,5.28,23.08,6.8,4.34.83,7.43,1.02,11.06,3.6,3.48,2.48,9.72,5.31,11.98,8.85,2.1,3.3,2.53,9.1,3.4,12.91,2.3,10.15,4.24,20.38,5.82,30.66,1.19,7.75,2.17,15.54,2.95,23.34.25,2.51.48,5.03.69,7.54.43,5.16.76,10.32,1.01,15.5.09,1.93.16,3.86.23,5.79.02.54.05,1.09.06,1.63.05,1.72.95,5.93.17,7.42,2.45-4.69,4.9-9.37,7.34-14.06,3.6-8.47,5.92-18.69,6.93-29.08.03-.35.08-.7.11-1.05,1.77,1.49,3.55,2.99,5.32,4.48-5.97-14.02-8.04-29.67-5.91-44.76Z"/>
    <path class="st2" d="M518.48,344.59c-5.96,9.78-13.28,18.92-22.02,26.26,6.27-1.37,12.4-3.41,18.24-6.08,4.26-1.94,8.67-4.56,10.38-8.91,1.34-3.39.75-7.3-.77-10.62-.85-1.85-1.97-3.55-3.2-5.18-.85,1.52-1.73,3.03-2.63,4.52h0Z"/>
    <path class="st2" d="M568.91,162.24c-1.01,10.39-3.32,20.61-6.93,29.08-2.45,4.69-4.9,9.37-7.34,14.06.78-1.49-.12-5.7-.17-7.42-.02-.54-.05-1.09-.06-1.63-.07-1.93-.14-3.86-.23-5.79-.25-5.17-.58-10.34-1.01-15.5-.21-2.52-.44-5.03-.69-7.54-.78-7.8-1.76-15.59-2.95-23.34-1.58-10.28-3.52-20.51-5.82-30.66-.87-3.81-1.29-9.61-3.4-12.91-2.26-3.54-8.5-6.37-11.98-8.85-3.63-2.58-6.72-2.76-11.06-3.6-7.89-1.52-15.63-3.79-23.08-6.8-7.36-2.97-14.44-6.65-21.07-11.02-3.28-2.16-6.44-4.49-9.47-6.98-1.31-1.08-6.85-7.56-8.21-7.5-29.19,1.27-58.58-2.47-85.49-9.45-6.96,3.76-10.86,11.7-11.78,19.56-.92,7.86.68,15.77,2.28,23.52,1.17,5.66,2.33,11.32,3.5,16.99,1.73,8.38,3.37,17.49-.37,25.18-3.24,6.67-8.61,11.96-11.58,18.98-1.16,2.75-2.13,5.58-2.97,8.45-1.08,3.67-1.98,7.4-2.87,11.13-1.47,6.13-2.85,12.29-4.41,18.4-.02.09-.05.17-.08.25-1.14,4.2-3.69,7.77-5.94,11.46-1.58-1.57-2.89-3.52-3.93-5.64-1.57-3.19-2.55-6.79-2.96-10.15-.3,1.76-2.23,3.31-4.13,3.11-2.42-.26-4.23-2.51-4.78-4.88-.54-2.37-.09-4.84.36-7.22-2.88,2.41-5.77,4.83-8.65,7.24l.76-17.55c-2.35,3.2-4.71,6.4-7.06,9.6-.21-3.53-.42-7.06-.62-10.58-.18.12-.34.27-.51.4-.79,1.47-1.58,2.95-2.37,4.42-.04-.34-.07-.68-.11-1.01-.86,2.04-1.12,4.33-1.11,6.56.09,16.82,12.96,30.74,17.35,46.98,1.88,6.95,2.19,14.33,4.92,20.99,1.96,4.78,5.73,9.24,11.07,11.33,2.3,8.09,1.16,16.91.53,25.57-.61,8.28-.73,16.4,3.1,23.55,2.98,5.56,8,9.7,12.89,13.68,19.21,15.65,38.54,31.39,60.21,43.4,20.04,11.11,42.38,18.94,65.38,20.34,1.63.1,3.26.17,4.89.2,1.19.85,2.32,1.77,3.34,2.75,1.47,1.41,2.7,2.96,3.56,4.65.45-1.95.97-3.87,1.56-5.78.67-2.18,1.44-4.34,2.27-6.47.23-.59.47-1.17.71-1.75,1.39-1.03,2.74-2.1,4.06-3.22,8.73-7.35,16.06-16.48,22.02-26.26h0c.91-1.49,1.78-3,2.63-4.52,2.24-3.98,4.3-8.06,6.23-12.21,3.43-7.37,6.45-14.94,9.34-22.56,9.14-18,15.09-37.33,17.63-57.27,0,0,.01-.02.02-.02,4.36-5.03,5.27-11.2,5.29-17.85s2.31-15.24,4.3-21.59c1.74-5.57,5.39-10.34,7.67-15.71,3.49-8.23,1.57-20.78-2.65-30.61Z"/>
    <path class="st2" d="M555.01,378.65s-.02.06-.02.09c.08.16.17.32.25.48-.08-.19-.14-.39-.23-.58Z"/>
    <path class="st2" d="M555.24,379.23c-.08-.16-.17-.32-.25-.48-3.48-6.71-7.01-13.39-10.6-20.04-5.57-10.35-11.25-20.63-17.06-30.84-1.93,4.14-3.99,8.22-6.23,12.21,1.23,1.63,2.35,3.33,3.2,5.18,1.52,3.31,2.11,7.22.77,10.62-1.72,4.35-6.13,6.96-10.38,8.91-5.84,2.67-11.97,4.71-18.24,6.08-1.32,1.11-2.67,2.19-4.06,3.22-.24.58-.48,1.17-.71,1.75-.83,2.13-1.59,4.28-2.27,6.47-.59,1.9-1.1,3.83-1.56,5.78.8,1.57,1.28,3.25,1.29,5.05,4.02-1.64,9.53-1.11,13.93-2.41,5.6-1.66,9.53-6.52,13.36-10.92,5.23-6,12.51-12.09,20.23-10.18,5.08,1.26,8.66,5.66,11.86,9.81,3.05,3.96,6.11,7.91,9.16,11.87,3.56,4.61,7.12,9.22,10.67,13.83-4.29-8.67-8.68-17.29-13.13-25.88Z"/>
    <path class="st2" d="M656.49,467.38c-16.96-51.29-60.09-93.67-112.1-108.68,3.58,6.65,7.11,13.33,10.6,20.04,0-.03.02-.06.02-.09.08.19.15.39.23.58,4.46,8.59,8.84,17.21,13.13,25.88-3.56-4.61-7.12-9.22-10.67-13.83-3.05-3.96-6.11-7.91-9.16-11.87-3.2-4.14-6.78-8.55-11.86-9.81-7.73-1.92-15.01,4.17-20.23,10.18-3.83,4.4-7.77,9.26-13.36,10.92-4.4,1.31-9.91.77-13.93,2.41-.49.2-.94.44-1.38.71-.32-.18-.63-.35-.95-.52-9.12-4.89-19.63-7.18-29.95-6.46-16.1,9.61-30.63,20.96-43.83,33.6-6.7,6.41-13.06,13.15-19.1,20.17-33.85-36.09-68.75-71.2-104.64-105.27.98-1.24-10.81,3.1-20.21,10.2-3.2,2.42,2.43,2.05-10.6,11.13-33.16,23.12-103.15,68.4-126.7,88.22-11.27,9.48-17.85,16.61-21.69,22.5h546.39Z"/>
    <path class="st2" d="M487.86,388.06c-.86-1.68-2.09-3.23-3.56-4.65-1.02-.98-2.14-1.9-3.34-2.75-1.63-.03-3.27-.1-4.89-.2-22.99-1.4-45.34-9.23-65.38-20.34-21.67-12.01-41.01-27.75-60.21-43.4-4.89-3.99-9.91-8.12-12.89-13.68-3.84-7.15-3.71-15.27-3.1-23.55-6.51-2.69-20.97.74-26.6,5.49-7.42,6.25-4.98,14.29-7.62,23.62-1.69,5.98-3.26,12.15-5.74,17.82-1.39,3.17-3.06,6.19-5.22,8.92,35.89,34.07,70.79,69.18,104.64,105.27,6.04-7.02,12.4-13.76,19.1-20.17,13.2-12.64,27.73-23.99,43.83-33.6,10.33-.71,20.83,1.57,29.95,6.46.32.17.63.35.95.52.44-.27.89-.51,1.38-.71-.01-1.8-.49-3.48-1.29-5.05Z"/>
  </g>
  <path class="st2" d="M334.33,281.81s-22.54,2.33-21.42,5.95,31.26,23.53,31.26,23.53"/>
  <path class="st2" d="M562.85,397.95s-21.1,18.19-26.13,20.98-36.56,8.37-44.09,10.05-38.23,0-48.84-1.67-34.34-3.36-34.34-3.36"/>
  <path class="st2" d="M401.37,303.12c-1.69,1.55,15.17,25.09,16.51,26.97,9.46,13.17,19.86,24.29,36.71,26.07,17.25,1.83,35.5-1.06,49.27-12.3,13.3-10.84,18.61-25.12,18.61-25.12"/>
  <path class="st2" d="M480.96,380.67s9.21-3.99,15.49-9.82"/>
  <line class="st2" x1="554.64" y1="205.38" x2="554.32" y2="248.01"/>
  <line class="st2" x1="333.96" y1="253.92" x2="335.75" y2="200.32"/>
  <path class="st2" d="M305.35,174.84s-1.93,7.17,2.26,16.93"/>
  <path class="st2" d="M328.52,197.63s5.88,7.81,1.97,11.44,1.56,5.02,1.34,10.33-1.65,10.76-1.65,10.76"/>
  <path class="st2" d="M561.99,191.32s-.43,16.35-1.82,21.1"/>
  <circle class="st4" cx="414.37" cy="173.44" r="6.58"/>
  <circle class="st4" cx="503.88" cy="173.44" r="6.58"/>
  <path class="st2" d="M377.37,253.92s-.37,20.25,4.47,27.1"/>
  <path class="st2" d="M319.33,191.32s-4.47,15.8,3.35,30.31"/>
  <path class="st2" d="M353,397.95s-70.17-42.32-83.91-52.42"/>
  <line class="st2" x1="412.54" y1="263.3" x2="416.62" y2="265.72"/>
  <line class="st2" x1="511.89" y1="260.7" x2="503.88" y2="266.08"/>
  <path class="st2" d="M503.88,266.08c-13.4-3-27.21,2.65-40.93,2.25-9.12-.26-17.99-3.19-27.1-3.76-6.42-.4-12.84.37-19.23,1.14,3.6,4.46,8.65,7.58,14,9.64,5.35,2.06,11.03,3.1,16.7,3.96,10.07,1.52,20.35,2.47,30.41.86,10.05-1.61,19.95-6,26.15-14.1Z"/>
</svg>