<?xml version="1.0" encoding="UTF-8"?>
<svg id="Layer_1" data-name="Layer 1" xmlns="http://www.w3.org/2000/svg" xmlns:xlink="http://www.w3.org/1999/xlink" viewBox="0 0 841.89 467.72">
  <defs>
    <style>
      .cls-1, .cls-2 {
        fill: none;
      }

      .cls-2, .cls-3 {
        stroke: #54575c;
        stroke-miterlimit: 10;
      }

      .cls-4 {
        fill: #eabc9a;
      }

      .cls-5 {
        fill: #fff;
      }

      .cls-3 {
        fill: #54575c;
      }

      .cls-6 {
        clip-path: url(#clippath);
      }

      .cls-7 {
        fill: #6ba5c8;
      }
    </style>
    <clipPath id="clippath">
      <rect class="cls-1" x="-1.58" y="0" width="845.06" height="467.72"/>
    </clipPath>
  </defs>
  <g class="cls-6">
    <rect class="cls-7" x="-1.58" y="0" width="845.06" height="467.72"/>
    <g>
      <g>
        <path class="cls-5" d="M613.44,467.19c-.43.04-.86.08-1.29.12.78,10.01-2.59,19.49-7.62,28.39H245.46c-3.29-29.08-6.59-58.16-9.88-87.24-1.6-14.1-1.38-25.88.84-39.9,2.13-13.51,5.9-28.72,11.42-41.23,3.72-8.42,7.44-16.84,11.16-25.26,8.46-19.15,17.33-35.64,36.8-43.32,13.82-5.45,23.66-5.9,34.48-7.35,6.8-.91,13.96-3.42,19.07-7.76.14-.53.29-1.07.42-1.61,4.82-20.2-.56-41.21-3.22-61.8-6.39-49.49,3.55-86.03,27.91-129.58,5.44-9.72,11.75-19.25,20.63-25.97,8.88-6.72,23.62-11.21,34.24-7.84,4.2-5.11,25.26-9.18,38.01-2.75,27.92,14.08,49.66,38.4,58.16,68.49,4.29,15.19,5.34,17.77,7.5,33.41,2.1,15.18,5.25,30.2,8.41,45.2,3.79,18.05,7.59,36.09,11.38,54.14,3.28,15.61,6.65,31.45,14.09,45.56,1.16,2.2,2.43,4.38,3.6,6.6,11.12,10.44,24.37,18.63,38.78,23.65-11.73-2.55-23.19-6.34-34.12-11.29-.16-.07-.32-.15-.48-.22.15,1.79-.02,3.65-.49,5.42,3.79,3.22,7.29,6.82,10.56,10.55,5.02,5.73,9.73,12.05,11.67,19.42,1.39,5.29,1.28,10.84,1.01,16.3-1.02,20.67-4.26,41.22-9.6,61.21,4.39,11.98,10.14,23.47,17.17,34.12-6.05-6.2-12.09-12.41-18.14-18.61,8.72,14.7,17.44,29.4,26.16,44.11,2.85,4.81,5.2,12.1.44,15.04Z"/>
        <path class="cls-4" d="M491.28,374.08c-2.43-5.55-3.97-11.39-4.16-17.57-.41-13.1,5.37-25.5,7.95-38.35,6.66-33.26-8.51-65.63-5.77-99.44,16.2-15.99,30.55-35.7,28.63-59.24-1.06-13.01-3.94-26.1-8.47-38.34-6.07-16.39-7.2-34.59-15.62-49.91-9.23-16.78-25.99-27.89-42.58-37.44-4.15-2.39-8.56-4.78-13.35-4.78-6.13,0-11.53,3.94-15.93,8.2-14.21,13.77-22.79,32.51-27.45,51.73-4.66,19.23-5.66,39.13-6.64,58.89-.62,12.55-1.23,25.32,1.9,37.49,3.3,12.84,10.59,24.38,13.89,37.23,4.01,15.59,2.21,33.14,10.94,46.67,5.62,8.7,14.96,14.53,20.38,23.36,11.25,18.32,2.5,43.44,12.12,62.67.42.84.87,1.66,1.35,2.46,12.41,5.49,25.06,10.43,37.92,14.77,1.63.55,3.26,1.08,4.9,1.6Z"/>
        <path class="cls-4" d="M565.09,294.32c4.84,6.9,9.79,14.04,11.61,22.27,1.28,5.8.93,11.82.9,17.76-.13,19.8,3.4,39.59,10.21,58.18,5.34-19.99,8.58-40.54,9.6-61.21.27-5.46.38-11.01-1.01-16.3-1.94-7.37-6.65-13.69-11.67-19.42-3.27-3.73-6.77-7.33-10.56-10.55-1.22,4.64-4.44,8.68-9.08,9.26Z"/>
        <path class="cls-4" d="M331.92,432.83c.09-2.08.62-4.46,1.34-6.94-1.35-6.63-1.83-13.44-1.35-20.2.69-9.66,3.24-19.25,2.4-28.9-1.56-17.79-14.39-33.02-16.33-50.77-3.24-29.62,23.73-53.58,31.38-82.37-5.12,4.34-12.27,6.84-19.07,7.76-10.83,1.45-20.66,1.9-34.48,7.35-19.47,7.68-28.34,24.18-36.8,43.32-3.72,8.42-7.44,16.84-11.16,25.26-5.53,12.51-9.29,27.72-11.42,41.23-2.21,14.02-2.43,25.8-.84,39.9,3.29,29.08,6.59,58.16,9.88,87.24h77.65c.75-3.23,1.72-6.6,2.68-10.48,3.93-15.87,5.42-36.06,6.12-52.39Z"/>
        <path class="cls-5" d="M575.89,469.26c-2.42-1.03-4.29-2.99-6.09-4.9-17.98-19.05-35.96-38.11-53.94-57.16-9.4-9.96-19.2-20.82-24.58-33.12-1.64-.52-3.27-1.05-4.9-1.6-12.86-4.34-25.51-9.27-37.92-14.77,3.53,5.93,8.5,10.94,13.03,16.19,18.29,21.18,30.17,47.82,33.7,75.58-11.17-2.07-14.15-16.19-17.5-27.04-5.47-17.71-17.75-32.37-29.74-46.5,7.78,16.67,12.15,34.93,12.76,53.32-4.22,1.2-8.9.72-12.79-1.3-14.93,10.84-29.86,21.69-44.79,32.53,1.41-3.76,2.83-7.52,4.24-11.28-6.27,6.75-13.49,12.62-21.38,17.39-.2-5.79,1.51-11.63,4.8-16.4-2.67-1.53-5.35-3.07-8.02-4.6,1.6-26.51-1.06-53.27-7.85-78.94.38,7.35-7.19,12.8-8.49,20.04-.65,3.61.34,7.29,1.32,10.83,5.08,18.37,10.17,36.74,15.25,55.11-10.74-7.52-18.76-18.85-22.28-31.48-1.8,7.53-4.03,14.95-6.63,22.24-1.77,4.97-3.72,9.87-5.85,14.69-7.47-9.33-12.58-20.49-14.96-32.2-.73,2.49-1.25,4.86-1.34,6.94-.7,16.33-2.19,36.53-6.12,52.39-.96,3.88-1.93,7.25-2.68,10.48h281.41c5.04-8.9,8.41-18.39,7.62-28.39l-26.82,2.6c-3.17.31-6.5.59-9.44-.66Z"/>
      </g>
      <g>
        <path class="cls-2" d="M480.39,144.95c1.95,1.33,2.57,3.95,2.49,6.31-.01.42-.05.85-.23,1.23-.19.41-.53.72-.89,1-3.52,2.79-8.5,2.96-12.31,5.35-1.5.94-2.79,2.21-4.38,3-1.97.99-4.34,1.15-6.43.45-2.47-.83-4.42-2.76-6.76-3.9-1.75-.85-3.73-1.25-5.68-1.14-2.48.14-5.17,1.02-7.3-.26-1.36-.83-2.13-2.44-2.2-4.03s.48-3.16,1.27-4.55c.81-1.42,1.89-2.68,3.16-3.71"/>
        <path class="cls-2" d="M445.9,146.84c-.18.72,1.04,1.81,1.39,1.28.25-.38.38-.86.25-1.29s-.57-.79-1.01-.73-.79.61-.62.75Z"/>
        <path class="cls-5" d="M451.1,174.74c10.61-2.56,21.77-.92,32.6-2.29,1.87-.24,3.75-.56,5.64-.48,1.08.05,2.15.24,3.18.55.79.24,1.13,1.18.69,1.88-.95,1.52-2.47,3.92-3.15,4.78-4.61,5.73-9.86,7.88-16.84,9.71-15.33,4.02-30.41,2.29-43.37-6.99-1.35-.96-2.79-2.1-3.09-3.72,9.95-.06,18.58-2.05,24.35-3.44Z"/>
        <path class="cls-2" d="M485.87,224.93c-7.43,3.39-15.15,6.85-23.31,6.8-4.38-.03-8.7-1.07-12.87-2.42-10.97-3.54-21.24-9.21-30.08-16.61"/>
        <path class="cls-2" d="M479.87,195.56c-4.27,1.91-8.6,3.75-13.17,4.73s-9.43,1.05-13.83-.55"/>
        <path class="cls-2" d="M451.1,174.74c10.61-2.56,21.77-.92,32.6-2.29,1.87-.24,3.75-.56,5.64-.48,1.08.05,2.15.24,3.18.55.79.24,1.13,1.18.69,1.88-.95,1.52-2.47,3.92-3.15,4.78-4.61,5.73-9.86,7.88-16.83,9.71-15.14,3.97-30.61,2.15-43.37-6.99-1.35-.96-2.79-2.1-3.09-3.72,9.95-.06,18.58-2.05,24.35-3.44Z"/>
      </g>
      <circle class="cls-3" cx="423.14" cy="115.85" r="5.5"/>
      <circle class="cls-3" cx="488.39" cy="112.22" r="5.5"/>
      <path class="cls-2" d="M386.88,175.66s21.37,54.39,53.42,59.89"/>
    </g>
    <g>
      <path class="cls-1" d="M495.56,319.97c6.66-33.26-8.51-65.63-5.77-99.44,16.2-15.99,30.55-35.7,28.63-59.24-1.06-13.01-3.94-26.1-8.47-38.34-6.07-16.39-7.2-34.59-15.62-49.91-9.23-16.78-27.77-19.89-44.36-29.44-4.15-2.39-8.56-4.78-13.35-4.78-6.13,0-11.53,3.94-15.93,8.2-14.21,13.77-21.01,24.5-25.67,43.73-4.66,19.23-5.66,39.13-6.64,58.89-.62,12.55-1.23,25.32,1.9,37.49,3.3,12.84,10.59,24.38,13.89,37.23,4.01,15.59,2.21,33.14,10.94,46.67,5.62,8.7,14.96,14.53,20.38,23.36,11.25,18.32,2.5,43.44,12.12,62.67.42.84.87,1.66,1.35,2.46,12.41,5.49,25.06,10.43,37.92,14.77,1.63.55,3.26,1.08,4.9,1.6-2.43-5.55-3.97-11.39-4.16-17.57-.41-13.1,5.37-25.5,7.95-38.35Z"/>
      <path class="cls-2" d="M565.59,296.13c4.84,6.9,9.79,14.04,11.61,22.27,1.28,5.8.93,11.82.9,17.76-.13,19.8,3.4,39.59,10.21,58.18,5.34-19.99,8.58-40.54,9.6-61.21.27-5.46.38-11.01-1.01-16.3-1.94-7.37-6.65-13.69-11.67-19.42-3.27-3.73-6.77-7.33-10.56-10.55-1.22,4.64-4.44,8.68-9.08,9.26Z"/>
      <path class="cls-2" d="M332.42,434.64c.09-2.08.62-4.46,1.34-6.94-1.35-6.63-1.83-13.44-1.35-20.2.69-9.66,3.24-19.25,2.4-28.9-1.56-17.79-14.39-33.02-16.33-50.77-3.24-29.62,23.73-53.58,31.38-82.37-5.12,4.34-12.27,6.84-19.07,7.76-10.83,1.45-20.66,1.9-34.48,7.35-19.47,7.68-28.34,24.18-36.8,43.32-3.72,8.42-7.44,16.84-11.16,25.26-5.53,12.51-9.29,27.72-11.42,41.23-2.21,14.02-2.43,25.8-.84,39.9,3.29,29.08,6.59,58.16,9.88,87.24h77.65c.75-3.23,1.72-6.6,2.68-10.48,3.93-15.87,5.42-36.06,6.12-52.39Z"/>
      <path class="cls-2" d="M612.65,469.12c-8.94.87-17.88,1.73-26.82,2.6-3.17.31-6.5.59-9.44-.66-2.42-1.03-4.29-2.99-6.09-4.9-17.98-19.05-35.96-38.11-53.94-57.16-9.4-9.96-19.2-20.82-24.58-33.12-1.64-.52-3.27-1.05-4.9-1.6-12.86-4.34-25.51-9.27-37.92-14.77,3.53,5.93,8.5,10.94,13.03,16.19,18.29,21.18,30.17,47.82,33.7,75.58-11.17-2.07-14.14-16.19-17.5-27.04-5.47-17.71-17.75-32.37-29.74-46.5,7.78,16.67,12.15,34.93,12.76,53.32-4.22,1.2-8.9.72-12.79-1.3-14.93,10.84-29.86,21.69-44.79,32.53,1.41-3.76,2.83-7.52,4.24-11.28-6.27,6.75-13.49,12.62-21.38,17.39-.2-5.79,1.51-11.63,4.8-16.4-2.67-1.53-5.35-3.07-8.02-4.6,1.6-26.51-1.06-53.27-7.85-78.94.38,7.35-7.19,12.8-8.49,20.04-.65,3.61.34,7.29,1.32,10.83,5.08,18.37,10.17,36.74,15.25,55.11-10.74-7.52-18.76-18.85-22.28-31.48-1.8,7.53-4.03,14.95-6.63,22.24-1.77,4.97-3.72,9.87-5.85,14.69-7.47-9.33-12.58-20.49-14.96-32.2-.73,2.49-1.25,4.86-1.34,6.94-.7,16.33-2.19,36.53-6.12,52.39-.96,3.88-1.93,7.25-2.68,10.48h281.41c5.04-8.9,8.41-18.39,7.62-28.39Z"/>
      <path class="cls-3" d="M613.49,453.96c-8.72-14.7-17.44-29.4-26.16-44.11,6.05,6.2,12.09,12.41,18.14,18.61-7.03-10.65-12.78-22.14-17.17-34.12-6.81-18.59-10.34-38.38-10.21-58.18.04-5.94.39-11.96-.9-17.76-1.82-8.23-6.77-15.37-11.61-22.27,4.65-.58,7.86-4.62,9.08-9.26.47-1.77.64-3.63.49-5.42.16.07.32.15.48.22,10.93,4.95,22.39,8.74,34.12,11.29-14.41-5.02-27.66-13.21-38.78-23.65-1.17-2.22-2.44-4.4-3.6-6.6-7.44-14.11-10.81-29.95-14.09-45.56-3.79-18.05-7.59-36.09-11.38-54.14-3.15-15-6.31-30.01-8.41-45.2-2.16-15.63-3.21-18.4-7.5-33.59-8.51-30.09-30.25-56.04-58.16-70.12-12.75-6.43-33.81-2.37-38.01,2.75-10.61-3.37-25.36,1.12-34.24,7.84-8.88,6.72-15.19,16.25-20.63,25.97-24.36,43.55-34.3,81.9-27.91,131.39,2.66,20.59,8.03,41.6,3.22,61.8-.13.54-.28,1.07-.42,1.61-7.65,28.8-34.61,52.76-31.38,82.37,1.94,17.75,14.77,32.98,16.33,50.77.85,9.65-1.71,19.24-2.4,28.9-.48,6.76,0,13.56,1.35,20.2,2.38,11.71,7.49,22.87,14.96,32.2,2.13-4.82,4.08-9.73,5.85-14.69,2.6-7.29,4.82-14.72,6.63-22.24,3.53,12.63,11.54,23.96,22.28,31.48-5.08-18.37-10.17-36.74-15.25-55.11-.98-3.54-1.97-7.22-1.32-10.83,1.3-7.24,8.87-12.7,8.49-20.04,6.79,25.67,9.45,52.43,7.85,78.94,2.67,1.53,5.35,3.07,8.02,4.6-3.29,4.77-5,10.61-4.8,16.4,7.89-4.77,15.1-10.64,21.38-17.39-1.41,3.76-2.83,7.52-4.24,11.28,14.93-10.84,29.86-21.69,44.79-32.53,3.89,2.03,8.57,2.5,12.79,1.3-.61-18.39-4.98-36.65-12.76-53.32,11.99,14.13,24.27,28.79,29.74,46.5,3.35,10.86,6.32,24.98,17.5,27.04-3.53-27.76-15.41-54.4-33.7-75.58-4.53-5.25-9.5-10.26-13.03-16.19-.48-.8-.93-1.62-1.35-2.46-9.62-19.23-.87-44.35-12.12-62.67-5.42-8.83-14.76-14.66-20.38-23.36-8.73-13.52-6.93-31.07-10.94-46.67-3.3-12.84-10.6-24.38-13.89-37.23-3.12-12.17-2.52-24.94-1.9-37.49.98-19.76,1.98-39.66,6.64-58.89,4.66-19.23,11.46-29.96,25.67-43.73,4.4-4.26,9.8-8.2,15.93-8.2,4.78,0,9.2,2.4,13.35,4.78,16.59,9.55,35.13,12.66,44.36,29.44,8.42,15.31,9.56,33.52,15.62,49.91,4.53,12.24,7.41,25.33,8.47,38.34,1.92,23.53-12.43,43.25-28.63,59.24-2.75,33.81,12.43,66.18,5.77,99.44-2.57,12.85-8.36,25.25-7.95,38.35.19,6.18,1.73,12.02,4.16,17.57,5.39,12.29,15.18,23.15,24.58,33.12,17.98,19.05,35.96,38.11,53.94,57.16,1.8,1.91,3.68,3.87,6.09,4.9,2.93,1.25,6.26.96,9.44.66,8.94-.87,17.88-1.73,26.82-2.6.43-.04.86-.08,1.29-.12,4.75-2.95,2.41-10.23-.44-15.04Z"/>
    </g>
    <path class="cls-3" d="M416.78,278.18v-51.54s-25.62-32.58-32.36-46.63,0,81.9,0,81.9l32.36,16.26Z"/>
  </g>
</svg>