<?xml version="1.0" encoding="UTF-8"?>
<svg id="Layer_1" xmlns="http://www.w3.org/2000/svg" xmlns:xlink="http://www.w3.org/1999/xlink" version="1.1" viewBox="0 0 841.89 467.72">
  <!-- Generator: Adobe Illustrator 29.0.0, SVG Export Plug-In . SVG Version: 2.1.0 Build 186)  -->
  <defs>
    <style>
      .st0, .st1 {
        fill: none;
      }

      .st1, .st2 {
        stroke: #55565a;
        stroke-miterlimit: 10;
      }

      .st3, .st2 {
        fill: #55565a;
      }

      .st4 {
        fill: #f4c45b;
      }

      .st5 {
        fill: #6ba5c7;
      }

      .st6 {
        fill: #fff;
      }

      .st7 {
        fill: #fcd5c8;
      }

      .st8 {
        clip-path: url(#clippath);
      }
    </style>
    <clipPath id="clippath">
      <rect class="st0" y="0" width="841.89" height="467.72"/>
    </clipPath>
  </defs>
  <g class="st8">
    <rect class="st4" y="0" width="841.89" height="467.72"/>
    <path class="st1" d="M417.3,61.06c7.33-3.21,13.8-8.66,21.68-10.02,6.87-1.19,13.9.93,20.24,3.83,13.22,6.05,25.21,16.3,30,30.03"/>
    <g>
      <path class="st6" d="M363.51,207.41c-.01.29.04.56.13.81.41-.14.82-.29-.13-.81Z"/>
      <path class="st6" d="M358.02,194.78c.78,3.39,1.47,5.13,1.49,6.26.21-1.05.57-.96.78-2.01.15,1.14.34,4.68.19,5.91.16-.5.33-1.02.69-1.39.36-.38.98-.57,1.42-.29.49.31.55.98.55,1.56.01,1.22.02,2.44.03,3.66.04-.12.24-.19.44-.26-.09-.26-.14-.53-.13-.81.95.53.54.67.13.81.28.8.95,1.49,1.5,2.17,1.2,1.49,1.93,3.35,2.07,5.26.51-.79.89-1.67,1.12-2.58,1.03,1.83,1.82,3.8,2.35,5.83,1,.4,1.39,1.16,1.78,1.91-.26-.35.31-.82.72-.66s.58.63.72,1.04c.23.7.46,1.4.69,2.09.73-.14.64-1.64,1.38-1.55.24.03.4.24.54.43.79,1.2,1.2,2.65,1.14,4.09,1.15-.91,1.91-2.31,2.03-3.77.67,1.87,1.34,3.73,2.01,5.6,2.44-2.04,2.63-4.86,4.22-6.64,1.44-1.61,4.08-2.49,4.26-4.64.04-.44-.04-.9.13-1.31.45-1.05,1.95-.83,3.09-.74,1.14.1,2.03-.46,2.08.23.45-2.46,3.34-3.5,5.77-4.08,1.74-.42,3.52-.84,5.3-.62.06-1.23,1.98-.78,3.17-1.09.46-.12.85-.41,1.24-.68,1.26-.88,2.91-1.69,4.25-.94.62.35,1.03.97,1.48,1.52,2,2.41,5.36,3.61,8.43,3.02s5.74-2.96,6.7-5.94c1.11-.15,1.64-1.3,2.4-1.73.84-.48,1.89,0,2.75.45,1.86-.37,3.41-.04,4.84.56-.34-.4,0-1.08.49-1.24.5-.16,1.04.04,1.49.31s.88.6,1.38.73c.79.21,1.61-.11,2.42-.2,1-.11,2.04.12,2.89.66-.14-.42.23-.87.66-.97s.88.06,1.27.27c.97.52,1.77,1.35,2.26,2.34-.13-.39-.26-.78-.38-1.16,2.11.45,4.22.9,6.32,1.34,1.99,0,3.39,1.64,3.26.69,6.61,4.64,10.28,13.15,9.11,21.15.47-1.66.94-3.32,1.42-4.98.48-.97.97-1.93,1.45-2.9.37-.74,1.15-1.61,1.85-1.18.04-1.06.08-2.12.13-3.18.59.41,1.19.81,1.78,1.22.27-1.34.54-2.67.82-4.01.54.16,1.03.49,1.38.93,2.52-2.97,5.04-5.93,7.56-8.9.88-1.03,1.76-2.07,2.39-3.27,2.09-3.96,1.09-8.76,1.31-13.24.12-2.45.61-4.87.76-7.32.17-2.9-.14-5.81-.31-8.71-.26-4.56-.12-9.13,0-13.7.17,4.23.67,8.44,1.5,12.58-.32-5.3-1.15-10.58-2-15.82l-5.2-32.18c-.32-2-.66-4.05-1.59-5.85-.86-1.68-2.19-3.06-3.53-4.4-9.01-9.03-17.85-11.87-27.3-20.43-31.61-28.65-46.33-25.37-49.41-24.17.12-1.55-4.36-1.32-4.24-2.87-2.59.48-5.11,1.36-7.44,2.61-1.98,1.06-4.41.74-5.97-.87-2.45,2.76-5.99,4.23-9.36,5.31-12.73,4.07-22.18,16.79-22.4,30.16,1.03-1.08,2.91,56.39-2.4,72.7.08.67.17,1.35.25,2.02.04-.35.07-.71.12-1.06.48,3.27,2.17,11.36,3.45,16.9l.06.02Z"/>
      <path class="st6" d="M457.82,318.08c1.71-2.25,2.92-4.93,5.05-6.79,3.82-3.34,10.44-4.05,11.87-8.92,1.24-4.2-2.49-8.17-3.17-12.49-.9-5.77,3.62-10.75,6.72-15.7,3.98-6.33,5.88-13.66,7.4-21.49-.07.05-.13.1-.2.15-1.99,2.96-2.82,5.02-3.37,7.15-1.02-.63-1.96-1.39-2.79-2.27.19,1.64.63,3.25,1.3,4.76-.87-.7-2.19-.58-3.15-.01-.96.57-1.65,1.5-2.3,2.4-2.96,1.68-4.95,3.56-6.94,5.44-.4.37-.81.77-.95,1.3-.19.71.09,1.62-.47,2.09-.94.78-2.47-1.02-3.47-.31-.81.57-.12,1.89-.41,2.84-.12.4-.42.71-.71,1.01-2.28,2.36-3.18,3.29-5.46,5.65l-1.68-1.42c.8,1.14.91,2.73.28,3.97-1.07-.61-2.07-1.34-2.98-2.16-.12,1.34-.49,2.66-1.11,3.85-.54-.56-1.07-1.13-1.61-1.69-.12.39-.24.79-.36,1.18-1.17-.24-2.14.81-3.05,1.59-1.64,1.41-3.83,2.15-5.99,2.02l-.23.54c0-.36-.59-.14-.78.16-.66,1.07-1.32,2.13-1.99,3.2l.27-2.79c-.81.38-1.62.76-2.44,1.13-.52-.63-.67-1.54-.39-2.3-.7.66-1.41,1.32-2.11,1.98-.24.23-.5.46-.82.55-.39.1-.79-.02-1.17-.15-1.65-.55-3.3-1.11-4.95-1.66-1.66.59-3.31.64-4.88,1.02-.58-.64-1.15-1.27-1.73-1.91-.43.63-.86,1.25-1.29,1.88-.09-1.35-1.44-2.31-2.76-2.57-1.33-.26-2.7-.03-4.05-.1-2.23-.11-4.4-1.08-5.98-2.65-1.64-1.63-3.69-4.12-5.65-2.89-.96-.57-.91-1.93-1.26-2.99s-2.13-1.73-2.38-.65c.12-1.74-1.7-3.33-3.42-2.98.59-1.81-1.06-3.96-2.96-3.86-.16-1.53-1.47-2.87-3-3.05.65-1.53-1.73-3.19-2.94-2.04-.03-.61-.15-1.14-.34-1.61-.09,3.08-.8,6.3-1.21,9.36-.95,7.1-.12,14.42,2.64,21.14.85,5.92,1.84,11.83,2.83,17.73.73,4.34,1.45,8.67,2.18,13.01,4.05,1.28,9.42,2.54,17.31,4.21,10.1,2.14,25.73.68,37.52-3.71,4.81-3.04,10.07-5.69,13.47-10.16h.06Z"/>
      <path class="st6" d="M495.56,203.05s-.01-.08-.02-.12c-.07,0-.14-.02-.21-.05.08.05.15.12.23.17h0Z"/>
      <path class="st6" d="M259.69,477.05c-.24-4.19-.57-8.38-1.57-12.45-.76-3.07-1.91-6.05-2.53-9.16-3.41-16.97,9.02-33.11,10.32-50.37.42-5.59-.29-11.49,2.07-16.57,1.51-3.26,4.16-5.87,5.69-9.12,3.23-6.83.96-14.92,1.91-22.42,1.01-7.93,5.57-14.88,9.06-22.08,2.19-4.5,3.98-9.17,5.58-13.92-3.86.76-7.61,1.89-11.03,3.82-3.2,1.8-5.99,4.23-8.74,6.65-6.09,5.36-12.2,10.86-16.7,17.61-3.61,5.4-6.1,11.45-8.56,17.46-11.2,27.3-22.44,54.75-29.06,83.51-2.05,8.92-3.65,17.95-4.79,27.03h48.35Z"/>
      <path class="st6" d="M396.74,370.76c1.97,11.72,3.94,23.48,4.21,35.36.19,8.29-.45,16.58-1.1,24.85-.87,11.14-1.73,22.27-2.6,33.41-.61-17.29-1.25-34.79-6.1-51.4-6.05,20.84-9.64,42.39-10.74,64.07h40.22c-.02-2.49-.17-4.98-.49-7.48-1.2-9.08-4.56-17.77-5.68-26.85-1.29-10.48.46-21.07,2.19-31.48,1.43-8.56,2.87-17.18,5.92-25.3,3.11-8.3,7.9-16.11,9.17-24.88,1.2-8.28-.7-17.4,3.61-24.57,2.14-3.55,5.45-6,9-8.25-11.79,4.4-27.42,5.86-37.52,3.71-7.9-1.67-13.27-2.93-17.31-4.21,1.43,8.51,2.86,17.03,4.29,25.54.98,5.83,1.96,11.65,2.93,17.48h0Z"/>
      <path class="st6" d="M527.2,477.05h13.63c-5.72-18.62-11.03-35.73-11.49-36.44-2.16,8.49-4.34,17.16-3.6,25.89.3,3.54,1.08,7.03,1.45,10.56h0Z"/>
      <path class="st6" d="M551.84,318.37c5.89,11.67,11.95,24.43,9.58,37.29-1.75,9.49-8,18.04-7.89,27.68.07,6.04,2.66,11.75,3.62,17.71.86,5.36.4,10.84.61,16.27.43,11.08,3.66,21.82,6.4,32.57,2.29,8.98,4.24,18.05,5.87,27.17h95.97c-.32-2.57-.6-5.15-.79-7.74-.66-8.8-.61-17.67-1.94-26.4-3.03-19.84-13.05-37.92-17.81-57.42-2.06-8.42-3.19-17.24-7.34-24.86-5.36-9.85-15.07-16.45-24.42-22.65-7.95-5.28-15.9-10.56-23.85-15.84-3.22-2.14-6.52-4.32-10.26-5.33-3.57-.97-7.39-.84-10.94-1.88-7.02-2.07-13.16-8.61-19.69-10.5.24.54.47,1.08.72,1.62-1.12-.36-2.28.72-2.47,1.87s.28,2.31.74,3.39c1.1,2.57,2.2,5.13,3.9,7.05h-.01Z"/>
      <path class="st6" d="M258.11,464.6c1.01,4.07,1.33,8.26,1.57,12.45h120.73c1.1-21.67,4.69-43.22,10.74-64.07,4.85,16.61,5.49,34.11,6.1,51.4.87-11.14,1.73-22.27,2.6-33.41.64-8.27,1.29-16.56,1.1-24.85-.27-11.88-2.24-23.64-4.21-35.36-.98-5.83-1.95-11.65-2.93-17.48-1.43-8.51-2.86-17.03-4.29-25.54-.73-4.34-1.45-8.67-2.18-13.01-.99-5.9-1.98-11.81-2.83-17.73-2.76-6.71-3.59-14.04-2.64-21.14.41-3.07,1.12-6.28,1.21-9.36-1.4-3.55-6.73-3.62-8.24-7.98l-.44-1.37c-2.41-1.61-5.14-3.98-4.45-6.79-.86.82-2.06-.58-2.4-1.72-1.51-5.11-2.7-10.32-3.56-15.58-.19-1.17-.91-3.48-1.04-4.05-2.63-11.58-5.04-23.2-7.23-34.87-.94-5.01-1.82-10.13-1.26-15.18-.08-.67-.17-1.35-.25-2.02,5.3-16.31,3.43-73.78,2.4-72.7.22-13.37,9.66-26.09,22.4-30.16,3.37-1.08,6.91-2.55,9.36-5.31,1.56,1.61,3.99,1.93,5.97.87,2.33-1.24,4.84-2.13,7.44-2.61-.12,1.55,4.36,1.32,4.24,2.87,3.07-1.19,17.8-4.47,49.41,24.17,9.45,8.57,18.29,11.4,27.3,20.43,1.33,1.34,2.66,2.72,3.53,4.4.93,1.81,1.27,3.85,1.59,5.85l5.2,32.18c.85,5.25,1.68,10.53,2,15.82.16,2.7.2,5.41.01,8.11-.32,4.65-1.26,9.31-.8,13.95.27,2.73,1,5.4,1.31,8.12,0,.04.01.08.02.12.02.17.05.34.07.52.26,3.04-.13,6.09-.59,9.11-1.73,11.42-4.47,22.7-8.17,33.64-.38,2.15-.76,4.28-1.17,6.37-1.52,7.83-3.41,15.16-7.4,21.49-3.11,4.94-7.63,9.93-6.72,15.7.68,4.32,4.41,8.3,3.17,12.49-1.44,4.87-8.05,5.57-11.87,8.92-2.13,1.86-3.34,4.54-5.05,6.79-3.4,4.47-8.66,7.12-13.47,10.16-3.55,2.24-6.86,4.69-9,8.25-4.31,7.17-2.42,16.29-3.61,24.57-1.27,8.77-6.05,16.58-9.17,24.88-3.05,8.12-4.49,16.74-5.92,25.3-1.74,10.41-3.48,21-2.19,31.48,1.12,9.09,4.48,17.78,5.68,26.85.33,2.5.47,4.99.49,7.48h106.57c-.38-3.52-1.15-7.02-1.45-10.56-.74-8.72,1.44-17.4,3.6-25.89.46.72,5.77,17.82,11.49,36.44h29.19c-1.62-9.13-3.58-18.19-5.87-27.17-2.74-10.74-5.97-21.49-6.4-32.57-.21-5.43.26-10.91-.61-16.27-.96-5.96-3.55-11.67-3.62-17.71-.11-9.65,6.14-18.2,7.89-27.68,2.37-12.86-3.69-25.61-9.58-37.29-1.7-1.92-2.8-4.48-3.9-7.05-.46-1.08-.93-2.23-.74-3.39s1.35-2.23,2.47-1.87c-.25-.54-.48-1.08-.72-1.62-3.15-6.96-5.97-14.07-8.43-21.3-.83-2.43-1.62-4.88-1.9-7.43-.31-2.72-.02-5.47.12-8.21.72-13.97-2.32-28.11-8.7-40.56,1.49,1.78,3.2,3.36,5.1,4.7-.84-2.55-2.22-4.87-3.37-7.29-6.61-13.83-5.47-29.95-4.18-45.22.6-4.14-.24-8.04.46-11.76.27-1.47.78-2.89,1-4.37.63-4.34-1.41-8.79-4.64-11.77-2.43-2.24-5.64-3.95-6.84-7.03-3.79-24.23-11.73-47.86-23.64-69.3-5.97-10.74-10.03-20.1-19.49-27.95-14.44-11.97-58.79-14.58-70.67-8.54-3.11,1.58-6.13,3.89-7.04,7.26-.85-3.9-3.24-6.44-6.02-7.5s-5.89-.88-8.82-.39c-6.98,1.19-20.15,6.56-29.7,22.06-11.45,18.61-18.92,48.33-20.9,56.33.94,9.87-7.45,18.41-8.22,28.47-.23,2.98.23,5.96.58,8.92,1.35,11.37,1.18,22.85,1.01,34.3-.05,3.16-.12,6.44-1.45,9.31-.92,1.99-2.41,3.69-3.23,5.72-2.26,5.54.86,11.89-.13,17.79-7.92,27.33-16.66,57.02-25.4,86.71-1.34,4.54-2.68,9.09-4.2,13.58-1.6,4.74-3.39,9.41-5.58,13.92-3.5,7.19-8.06,14.14-9.06,22.08-.95,7.5,1.32,15.58-1.91,22.42-1.53,3.24-4.19,5.86-5.69,9.12-2.36,5.09-1.65,10.98-2.07,16.57-1.3,17.26-13.73,33.4-10.32,50.37.62,3.11,1.77,6.08,2.53,9.16h-.08Z"/>
      <path class="st6" d="M457,239.04c-.75,1.24-1.58,2.44-2.09,3.79-.76,2.01-.75,4.29.02,6.3-.89.62-1.78,1.25-2.66,1.87,1.15,1.85.78,4.51-.83,5.98-2,1.82-5.68,2.19-6.15,4.85-.52-.78-1.04-1.56-1.55-2.35-.26.67-.52,1.33-.79,2-.33-1.07-.86-2.07-1.58-2.93-.33,1.22-.67,2.43-1,3.65-.31-1.37-2.09-2.16-3.31-1.46l-.48-1.34c-.41.89-.82,1.78-2,3.22-.45-.8-.9-1.61-1.34-2.41-.09-.16-.21-.34-.39-.33-.17,0-.28.17-.37.31-.41.7-.82,1.4-1.24,2.11-.28-.75-.56-1.51-.84-2.26-.11-.28-.31-.63-.61-.56-.15.03-.26.17-.34.3-.54.78-1.09,1.56-1.63,2.35-.18-.97-.36-1.94-.53-2.91-.7.73-1.33,1.54-1.88,2.4-.52-.87-.09-2.33-1.01-2.75-.76-.34-1.5.48-1.93,1.19-.44-.77-.89-1.54-1.33-2.31-.19.52-.48.99-.85,1.4-.02-.46.04-.92.16-1.36-.35.24-.71.49-1.42.75-.99-1.24-1.37-2.94-1-4.48-.84.85-1.69,1.69-2.55,2.52.04-.8-.76-1.34-1.28-1.95-1.64-1.91-.78-5.19-2.52-7.01-.02.54-.03,1.07-.05,1.61-1.02-.72-1.9-1.65-2.6-2.7-.48-2.01-1.41-3.91-2.7-5.52-.31.3-.34.83-.07,1.17-3.86-4.45-7.73-8.9-11.59-13.34-.52.62-1.3.77-2.16.69.56,1.35.16,3.08-1.04,3.95.7-.12,1.22.71,1.17,1.41-.06.7-2.26,1.17-2.46,1.85-.32,1.08,1.91.84,2.13,1.95l.34,2.68c-.64.2.24,1.33.36,2,.7,3.67,1.47,7.37.68,10.99.79-.18,1.58-.36,2.36-.54-.6,1.33-1.19,2.66-1.79,3.99,1.05-.3,2.1-.6,3.15-.9.05.63-.11,1.27-.46,1.79,1.62-.41,3.2.67,4.52,1.7,1.35,1.05,2.86,2.58,3.94,4.06.99-1.07,2.21-1.93,3.56-2.48-.76,1.26-1.52,2.53-2.28,3.79.97-1.22,2.79-1.68,4.23-1.06.37.16.73.41.84.79.07.26.01.53-.04.79-.23,1.03-.45,2.06-.68,3.08,1.78-1.73,3.68-3.33,5.69-4.79-.99,1.99-1.99,3.99-2.98,5.98l2.26-.61c.59-1.6,1.86-2.94,3.43-3.62-.01.84.11,1.67.37,2.47,1.3-.67,2.42-1.7,3.2-2.93-.01.61-.02,1.25.22,1.82.24.56.81,1.04,1.42.97.34-.04.63-.23.95-.35,1.21-.42,2.48.33,3.54,1.06-.08-1.02.95-1.85,1.97-1.92s1.99.41,2.86.92c.77.46,1.52.95,3.28,1.48.41-1.03.55-2.16.42-3.26,1.81.31,3.55.98,5.1,1.96-.22-.84-.44-1.67-.66-2.51,2.29.77,4.66,1.29,7.06,1.54-1.17-.26-1.83-1.82-1.19-2.84.64.15,1.29.31,1.93.46.15-.55-.04-1.17-.48-1.54,2.4-1.13,4.8-2.26,7.2-3.39-1.08.02-2.16-.2-3.14-.63.7-.15,2.07-.97,1.87-1.11l2.5-1.33s-3.16.46-3.8-.11c1.58-.84,3.28-1.47,5.03-1.85-.9-.23-1.61-1.08-1.68-2.01s.51-1.87,1.37-2.23c.51-1.71.62-3.53.33-5.29.39,1.66,1.2,3.21,2.33,4.48-.16-2.09-.1-4.2.19-6.28.3.32.87.18,1.14-.16.27-.34.33-.8.37-1.23.16-1.53.31-3.07.47-4.6.27.9.82,1.7,1.56,2.27.89-5.58.14-11.4-2.4-16.06l-1.47,3.9c-.78,3.89-2.24,7.64-4.29,11.03v-.02Z"/>
      <path class="st6" d="M495.63,203.57c-.01-.17-.05-.34-.07-.52-.08-.06-.15-.12-.23-.17.07.03.14.04.21.05-.31-2.72-1.04-5.39-1.31-8.12-.46-4.64.48-9.3.8-13.95.19-2.71.15-5.41-.01-8.11-.83-4.14-1.33-8.36-1.5-12.58-.13,4.57-.26,9.14,0,13.7.16,2.9.48,5.81.31,8.71-.15,2.45-.64,4.87-.76,7.32-.21,4.48.79,9.28-1.31,13.24-.63,1.2-1.52,2.24-2.39,3.27-2.52,2.97-5.04,5.93-7.56,8.9-.35-.44-.84-.77-1.38-.93-.27,1.34-.54,2.67-.82,4.01-.59-.41-1.19-.81-1.78-1.22-.04,1.06-.08,2.12-.13,3.18-.71-.43-1.48.44-1.85,1.18-.48.97-.97,1.93-1.45,2.9-.47,1.66-.94,3.32-1.42,4.98,1.16-7.99-2.5-16.5-9.11-21.15.13.95-1.27-.7-3.26-.69-2.11-.45-4.21-.9-6.32-1.34.13.39.26.78.38,1.16-.49-.99-1.29-1.82-2.26-2.34-.39-.21-.84-.37-1.27-.27-.43.1-.8.55-.66.97-.85-.54-1.89-.78-2.89-.66-.81.09-1.63.41-2.42.2-.51-.13-.93-.47-1.38-.73s-.99-.47-1.49-.31-.83.83-.49,1.24c-1.43-.6-2.98-.92-4.84-.56-.85-.46-1.9-.93-2.75-.45-.76.43-1.29,1.58-2.4,1.73-.96,2.98-3.63,5.35-6.7,5.94s-6.43-.61-8.43-3.02c-.45-.55-.86-1.17-1.48-1.52-1.34-.75-2.99.06-4.25.94-.39.27-.78.56-1.24.68-1.19.31-3.11-.13-3.17,1.09-1.78-.21-3.56.21-5.3.62-2.43.58-5.32,1.62-5.77,4.08-.05-.69-.94-.14-2.08-.23-1.14-.1-2.65-.31-3.09.74-.17.41-.09.87-.13,1.31-.18,2.15-2.82,3.03-4.26,4.64-1.59,1.77-1.78,4.6-4.22,6.64-.67-1.87-1.34-3.73-2.01-5.6-.13,1.46-.88,2.86-2.03,3.77.06-1.44-.35-2.89-1.14-4.09-.13-.2-.3-.41-.54-.43-.74-.09-.65,1.41-1.38,1.55-.23-.7-.46-1.4-.69-2.09-.14-.42-.32-.88-.72-1.04s-.97.31-.72.66c-.39-.76-.77-1.51-1.78-1.91-.53-2.04-1.32-4-2.35-5.83-.23.91-.6,1.79-1.12,2.58-.14-1.91-.87-3.77-2.07-5.26-.55-.68-1.23-1.38-1.5-2.17-.2.07-.41.14-.44.26-.01-1.22-.02-2.44-.03-3.66,0-.58-.06-1.26-.55-1.56-.44-.28-1.06-.09-1.42.29-.36.38-.53.89-.69,1.39.14-1.24-.04-4.77-.19-5.91-.21,1.05-.57.96-.78,2.01-.02-1.13-.71-2.87-1.49-6.26-1.28-5.54-2.97-13.63-3.45-16.9-.05.35-.08.71-.12,1.06-.56,5.05.32,10.17,1.26,15.18,2.19,11.67,4.6,23.29,7.23,34.87.13.57.85,2.88,1.04,4.05.85,5.26,2.04,10.47,3.56,15.58.34,1.14,1.54,2.54,2.4,1.72-.69,2.81,2.04,5.19,4.45,6.79l.44,1.37c1.51,4.37,6.84,4.43,8.24,7.98.19.47.31,1,.34,1.61,1.21-1.14,3.59.51,2.94,2.04,1.53.18,2.84,1.52,3,3.05,1.9-.1,3.55,2.05,2.96,3.86,1.71-.35,3.53,1.24,3.42,2.98.25-1.08,2.03-.41,2.38.65s.3,2.42,1.26,2.99c1.95-1.23,4.01,1.26,5.65,2.89,1.58,1.57,3.75,2.54,5.98,2.65,1.35.07,2.72-.16,4.05.1s2.68,1.22,2.76,2.57c.43-.63.86-1.25,1.29-1.88.58.64,1.15,1.27,1.73,1.91,1.57-.38,3.22-.43,4.88-1.02,1.65.55,3.3,1.11,4.95,1.66.38.13.78.26,1.17.15.32-.09.58-.32.82-.55.7-.66,1.41-1.32,2.11-1.98-.28.76-.13,1.68.39,2.3.81-.38,1.62-.76,2.44-1.13l-.27,2.79c.66-1.07,1.32-2.13,1.99-3.2.19-.31.78-.53.78-.16l.23-.54c2.16.14,4.36-.6,5.99-2.02.9-.78,1.88-1.83,3.05-1.59.12-.39.24-.79.36-1.18.54.56,1.07,1.13,1.61,1.69.61-1.2.99-2.51,1.11-3.85.91.82,1.92,1.55,2.98,2.16.64-1.24.53-2.83-.28-3.97l1.68,1.42c2.28-2.36,3.18-3.29,5.46-5.65.29-.3.59-.61.71-1.01.3-.95-.4-2.26.41-2.84,1-.71,2.52,1.09,3.47.31.56-.47.28-1.38.47-2.09.14-.52.55-.93.95-1.3,1.99-1.88,3.98-3.76,6.94-5.44.66-.9,1.34-1.83,2.3-2.4s2.28-.69,3.15.01c-.67-1.51-1.11-3.12-1.3-4.76.82.88,1.76,1.64,2.79,2.27.56-2.13,1.38-4.2,3.37-7.15.07-.05.13-.1.2-.15.41-2.09.78-4.22,1.17-6.37,3.7-10.95,6.44-22.22,8.17-33.64.46-3.02.85-6.07.59-9.11l-.08-.03ZM465.16,240.17c-.74-.57-1.3-1.38-1.56-2.27-.16,1.53-.31,3.07-.47,4.6-.04.43-.1.89-.37,1.23s-.84.48-1.14.16c-.28,2.08-.35,4.19-.19,6.28-1.13-1.27-1.94-2.82-2.33-4.48.29,1.76.18,3.58-.33,5.29-.86.36-1.44,1.3-1.37,2.23s.77,1.78,1.68,2.01c-1.75.39-3.45,1.01-5.03,1.85.65.57,3.8.11,3.8.11l-2.5,1.33c.2.14-1.16.96-1.87,1.11.99.43,2.07.65,3.14.63-2.4,1.13-4.8,2.26-7.2,3.39.43.37.63.99.48,1.54-.64-.15-1.29-.31-1.93-.46-.63,1.02.02,2.58,1.19,2.84-2.4-.25-4.77-.77-7.06-1.54.22.84.44,1.67.66,2.51-1.55-.98-3.29-1.65-5.1-1.96.13,1.1-.02,2.23-.42,3.26-1.76-.53-2.5-1.03-3.28-1.48-.88-.52-1.85-1-2.86-.92s-2.04.91-1.97,1.92c-1.06-.72-2.33-1.48-3.54-1.06-.32.11-.62.31-.95.35-.61.07-1.18-.4-1.42-.97-.24-.56-.23-1.2-.22-1.82-.79,1.23-1.9,2.26-3.2,2.93-.26-.8-.38-1.63-.37-2.47-1.57.68-2.84,2.01-3.43,3.62l-2.26.61c.99-1.99,1.99-3.99,2.98-5.98-2,1.46-3.9,3.06-5.69,4.79.23-1.03.45-2.06.68-3.08.06-.26.11-.53.04-.79-.11-.38-.47-.64-.84-.79-1.43-.62-3.25-.16-4.23,1.06.76-1.26,1.52-2.53,2.28-3.79-1.35.55-2.58,1.4-3.56,2.48-1.08-1.49-2.59-3.01-3.94-4.06-1.32-1.02-2.9-2.11-4.52-1.7.35-.52.52-1.16.46-1.79-1.05.3-2.1.6-3.15.9.6-1.33,1.19-2.66,1.79-3.99-.79.18-1.58.36-2.36.54.79-3.62.01-7.32-.68-10.99-.13-.67-1.01-1.8-.36-2l-.34-2.68c-.22-1.11-2.45-.87-2.13-1.95.2-.68,2.41-1.15,2.46-1.85.06-.7-.47-1.54-1.17-1.41,1.19-.87,1.6-2.61,1.04-3.95-.09-.22-.21-.44-.36-.64.62-.02.8-.28.85-.57-.33-.03-.66-.05-.99-.08.41-.16.85-.35,1.02-.75.17-.4-.21-.98-.61-.81.74-.19,1.38-.71,1.72-1.39-.01.62,1,.6,1.41.13s.61-1.15,1.18-1.39c.25-.1.52-.07.76.05.36.19.81-.04.92-.43l.28-1.02c-.08.49.36,1.95.66,2.2.37-.25.64-.65.73-1.09.94.15,1.88.31,2.82.46,1.26.14,2.54.8,3.31.03.44-.44.8-1.33,1.35-1.05.08.52.15,1.03.23,1.55.64-.5,1.09-1.23,1.24-2.02,1.01.74,2.11,1.35,3.27,1.81,1.2-.45,1.8.62,1.58,1.57.29-.81.57-1.62.86-2.43.08-.22.16-.45.32-.61.35-.37.97-.33,1.4-.07s.71.71.98,1.14l2.55-3.21c-.25.68.81,1.12,1.48.86s1.27-.84,1.99-.78c.57.05,1.06.55,1.09,1.12.75-.96,1.24-2.13,1.4-3.34.38,1.04.43,2.2.14,3.26,1.58-.15,4.43-.63,4.43-.63.23.09.46.18.7.28.3-.54.6-1.07.9-1.61.85-.21,1.23,1.75,1.99,1.31.19-.11.27-.35.39-.54.28-.43.87-.63,1.35-.46.48.18.8.71.73,1.22.21-1.16.41-2.31.62-3.47.41,1.02.84,2.03,1.28,3.04.06.13.15.28.29.27.1,0,.18-.11.24-.19.6-.78,1.7-1.04,2.67-.88.97.16,1.85.66,2.7,1.15l-.17-1.15c.62.91,2.35.52,2.52-.57.62.41,1.25.82,1.87,1.22.38-.74.76-1.48,1.15-2.23.36.43.73.86,1.09,1.3.14-.62.28-1.23.42-1.85,1.27.88,2.81,1.28,4.3,1.66.97.25,2.34.28,2.6-.69.03-.13.04-.27.12-.39.28-.45.95,0,1.25.43l1.9,2.75c.49.68.94,1.39,1.34,2.13,2.54,4.67,3.29,10.49,2.4,16.06h0Z"/>
      <g>
        <path class="st6" d="M423.07,249.42c-4.73-.09-10-2.17-14.57-4.58.2.54.38,1.1.52,1.66.7,1.05,1.58,1.97,2.6,2.7.02-.54.03-1.07.05-1.61,1.74,1.82.88,5.09,2.52,7.01.52.61,1.32,1.15,1.28,1.95.86-.83,1.71-1.67,2.55-2.52-.36,1.54.02,3.24,1,4.48.71-.26,1.06-.5,1.42-.75-.12.44-.18.9-.16,1.36.37-.41.66-.89.85-1.4.44.77.89,1.54,1.33,2.31.43-.71,1.17-1.54,1.93-1.19.92.42.49,1.88,1.01,2.75.54-.86,1.17-1.67,1.88-2.4.18.97.36,1.94.53,2.91.54-.78,1.09-1.56,1.63-2.35.09-.13.19-.27.34-.3.3-.07.5.28.61.56.28.75.56,1.51.84,2.26.41-.7.82-1.4,1.24-2.11.09-.15.2-.31.37-.31.18,0,.3.17.39.33.45.8.9,1.61,1.34,2.41,1.19-1.43,1.59-2.32,2-3.22l.48,1.34c1.22-.69,3,.1,3.31,1.46.33-1.22.67-2.43,1-3.65.71.86,1.25,1.86,1.58,2.93.26-.67.52-1.33.79-2,.52.78,1.04,1.56,1.55,2.35.47-2.66,4.15-3.03,6.15-4.85,1.61-1.47,1.98-4.12.83-5.98.89-.62,1.78-1.25,2.66-1.87-.77-2-.77-4.29-.02-6.3.51-1.35,1.34-2.55,2.09-3.79,1.28-2.12,2.33-4.38,3.13-6.73-9.83,18.72-31.41,17.21-37.06,17.11v.03Z"/>
        <path class="st6" d="M462.76,224.11c-.4-.74-.84-1.45-1.34-2.13l-1.9-2.75c-.3-.43-.97-.88-1.25-.43-.07.11-.08.26-.12.39-.26.97-1.63.93-2.6.69-1.5-.38-3.03-.78-4.3-1.66-.14.62-.28,1.23-.42,1.85-.36-.43-.73-.86-1.09-1.3-.38.74-.76,1.48-1.15,2.23-.62-.41-1.25-.82-1.87-1.22-.17,1.09-1.9,1.48-2.52.57l.17,1.15c-.85-.49-1.73-.99-2.7-1.15-.97-.16-2.07.1-2.67.88-.06.08-.14.18-.24.19-.14,0-.24-.14-.29-.27-.44-1-.87-2.02-1.28-3.04-.21,1.16-.41,2.31-.62,3.47.07-.51-.25-1.04-.73-1.22-.48-.18-1.07.02-1.35.46-.12.19-.2.43-.39.54-.76.44-1.14-1.52-1.99-1.31-.3.54-.6,1.07-.9,1.61-.23-.09-.46-.18-.7-.28,0,0-2.85.48-4.43.63.29-1.07.24-2.22-.14-3.26-.16,1.21-.65,2.38-1.4,3.34-.03-.57-.52-1.07-1.09-1.12-.72-.06-1.31.52-1.99.78-.67.26-1.73-.19-1.48-.86l-2.55,3.21c-.27-.43-.55-.87-.98-1.14s-1.05-.3-1.4.07c-.16.17-.24.39-.32.61-.29.81-.57,1.62-.86,2.43.22-.95-.39-2.02-1.58-1.57-1.16-.46-2.27-1.07-3.27-1.81-.16.79-.61,1.53-1.24,2.02-.08-.52-.15-1.03-.23-1.55-.56-.28-.91.61-1.35,1.05-.77.77-2.05.11-3.31-.03-.94-.15-1.88-.31-2.82-.46-.09.44-.36.84-.73,1.09-.3-.24-.74-1.71-.66-2.2l-.28,1.02c-.11.39-.55.62-.92.43-.23-.12-.51-.15-.76-.05-.57.23-.78.92-1.18,1.39s-1.42.48-1.41-.13c-.34.68-.98,1.2-1.72,1.39.4-.17.78.41.61.81s-.61.6-1.02.75c.33.03.66.05.99.08-.05.29-.23.55-.85.57.15.2.26.41.36.64.87.08,1.64-.07,2.16-.69,3.86,4.45,7.73,8.9,11.59,13.34-.27-.33-.24-.87.07-1.17.93,1.16,1.66,2.47,2.18,3.86,4.57,2.41,9.85,4.49,14.57,4.58,5.65.11,27.23,1.61,37.06-17.11.48-1.41.87-2.85,1.16-4.3l1.47-3.9h0Z"/>
      </g>
    </g>
    <g>
      <path class="st1" d="M360.5,207.41c-.01.29.04.56.13.81.41-.14.82-.29-.13-.81Z"/>
      <path class="st7" d="M355.02,194.78c.78,3.39,1.47,5.13,1.49,6.26.21-1.05.57-.96.78-2.01.15,1.14.34,4.68.19,5.91.16-.5.33-1.02.69-1.39.36-.38.98-.57,1.42-.29.49.31.55.98.55,1.56.01,1.22.02,2.44.03,3.66.04-.12.24-.19.44-.26-.09-.26-.14-.53-.13-.81.95.53.54.67.13.81.28.8.95,1.49,1.5,2.17,1.2,1.49,1.93,3.35,2.07,5.26.51-.79.89-1.67,1.12-2.58,1.03,1.83,1.82,3.8,2.35,5.83,1,.4,1.39,1.16,1.78,1.91-.26-.35.31-.82.72-.66s.58.63.72,1.04c.23.7.46,1.4.69,2.09.73-.14.64-1.64,1.38-1.55.24.03.4.24.54.43.79,1.2,1.2,2.65,1.14,4.09,1.15-.91,1.91-2.31,2.03-3.77.67,1.87,1.34,3.73,2.01,5.6,2.44-2.04,2.63-4.86,4.22-6.64,1.44-1.61,4.08-2.49,4.26-4.64.04-.44-.04-.9.13-1.31.45-1.05,1.95-.83,3.09-.74,1.14.1,2.03-.46,2.08.23.45-2.46,3.34-3.5,5.77-4.08,1.74-.42,3.52-.84,5.3-.62.06-1.23,1.98-.78,3.17-1.09.46-.12.85-.41,1.24-.68,1.26-.88,2.91-1.69,4.25-.94.62.35,1.03.97,1.48,1.52,2,2.41,5.36,3.61,8.43,3.02s5.74-2.96,6.7-5.94c1.11-.15,1.64-1.3,2.4-1.73.84-.48,1.89,0,2.75.45,1.86-.37,3.41-.04,4.84.56-.34-.4,0-1.08.49-1.24.5-.16,1.04.04,1.49.31s.88.6,1.38.73c.79.21,1.61-.11,2.42-.2,1-.11,2.04.12,2.89.66-.14-.42.23-.87.66-.97s.88.06,1.27.27c.97.52,1.77,1.35,2.26,2.34-.13-.39-.26-.78-.38-1.16,2.11.45,4.22.9,6.32,1.34,1.99,0,3.39,1.64,3.26.69,6.61,4.64,10.28,13.15,9.11,21.15.47-1.66.94-3.32,1.42-4.98.48-.97.97-1.93,1.45-2.9.37-.74,1.15-1.61,1.85-1.18.04-1.06.08-2.12.13-3.18.59.41,1.19.81,1.78,1.22.27-1.34.54-2.67.82-4.01.54.16,1.03.49,1.38.93,2.52-2.97,5.04-5.93,7.56-8.9.88-1.03,1.76-2.07,2.39-3.27,2.09-3.96,1.09-8.76,1.31-13.24.12-2.45.61-4.87.76-7.32.17-2.9-.14-5.81-.31-8.71-.26-4.56-.12-9.13,0-13.7.17,4.23.67,8.44,1.5,12.58-.32-5.3-1.15-10.58-2-15.82l-5.2-32.18c-.32-2-.66-4.05-1.59-5.85-.86-1.68-2.19-3.06-3.53-4.4-9.01-9.03-17.85-11.87-27.3-20.43-31.61-28.65-46.33-25.37-49.41-24.17.12-1.55-4.36-1.32-4.24-2.87-2.59.48-5.11,1.36-7.44,2.61-1.98,1.06-4.41.74-5.97-.87-2.45,2.76-5.99,4.23-9.36,5.31-12.73,4.07-22.18,16.79-22.4,30.16,1.03-1.08,2.91,56.39-2.4,72.7.08.67.17,1.35.25,2.02.04-.35.07-.71.12-1.06.48,3.27,2.17,11.36,3.45,16.9l.06.02Z"/>
      <path class="st7" d="M454.82,318.08c1.71-2.25,2.92-4.93,5.05-6.79,3.82-3.34,10.44-4.05,11.87-8.92,1.24-4.2-2.49-8.17-3.17-12.49-.9-5.77,3.62-10.75,6.72-15.7,3.98-6.33,5.88-13.66,7.4-21.49-.07.05-.13.1-.2.15-1.99,2.96-2.82,5.02-3.37,7.15-1.02-.63-1.96-1.39-2.79-2.27.19,1.64.63,3.25,1.3,4.76-.87-.7-2.19-.58-3.15-.01-.96.57-1.65,1.5-2.3,2.4-2.96,1.68-4.95,3.56-6.94,5.44-.4.37-.81.77-.95,1.3-.19.71.09,1.62-.47,2.09-.94.78-2.47-1.02-3.47-.31-.81.57-.12,1.89-.41,2.84-.12.4-.42.71-.71,1.01-2.28,2.36-3.18,3.29-5.46,5.65l-1.68-1.42c.8,1.14.91,2.73.28,3.97-1.07-.61-2.07-1.34-2.98-2.16-.12,1.34-.49,2.66-1.11,3.85-.54-.56-1.07-1.13-1.61-1.69-.12.39-.24.79-.36,1.18-1.17-.24-2.14.81-3.05,1.59-1.64,1.41-3.83,2.15-5.99,2.02l-.23.54c0-.36-.59-.14-.78.16-.66,1.07-1.32,2.13-1.99,3.2l.27-2.79c-.81.38-1.62.76-2.44,1.13-.52-.63-.67-1.54-.39-2.3-.7.66-1.41,1.32-2.11,1.98-.24.23-.5.46-.82.55-.39.1-.79-.02-1.17-.15-1.65-.55-3.3-1.11-4.95-1.66-1.66.59-3.31.64-4.88,1.02-.58-.64-1.15-1.27-1.73-1.91-.43.63-.86,1.25-1.29,1.88-.09-1.35-1.44-2.31-2.76-2.57-1.33-.26-2.7-.03-4.05-.1-2.23-.11-4.4-1.08-5.98-2.65-1.64-1.63-3.69-4.12-5.65-2.89-.96-.57-.91-1.93-1.26-2.99s-2.13-1.73-2.38-.65c.12-1.74-1.7-3.33-3.42-2.98.59-1.81-1.06-3.96-2.96-3.86-.16-1.53-1.47-2.87-3-3.05.65-1.53-1.73-3.19-2.94-2.04-.03-.61-.15-1.14-.34-1.61-.09,3.08-.8,6.3-1.21,9.36-.95,7.1-.12,14.42,2.64,21.14.85,5.92,1.84,11.83,2.83,17.73.73,4.34,1.45,8.67,2.18,13.01,4.05,1.28,9.42,2.54,17.31,4.21,10.1,2.14,25.73.68,37.52-3.71,4.81-3.04,10.07-5.69,13.47-10.16h.06Z"/>
      <path class="st1" d="M492.56,203.05s-.01-.08-.02-.12c-.07,0-.14-.02-.21-.05.08.05.15.12.23.17h0Z"/>
      <path class="st5" d="M393.73,370.76c1.97,11.72,3.94,23.48,4.21,35.36.19,8.29-.45,16.58-1.1,24.85-.87,11.14-1.73,22.27-2.6,33.41-.61-17.29-1.25-34.79-6.1-51.4-6.05,20.84-9.64,42.39-10.74,64.07h40.22c-.02-2.49-.17-4.98-.49-7.48-1.2-9.08-4.56-17.77-5.68-26.85-1.29-10.48.46-21.07,2.19-31.48,1.43-8.56,2.87-17.18,5.92-25.3,3.11-8.3,7.9-16.11,9.17-24.88,1.2-8.28-.7-17.4,3.61-24.57,2.14-3.55,5.45-6,9-8.25-11.79,4.4-27.42,5.86-37.52,3.71-7.9-1.67-13.27-2.93-17.31-4.21,1.43,8.51,2.86,17.03,4.29,25.54.98,5.83,1.96,11.65,2.93,17.48h0Z"/>
      <path class="st5" d="M256.68,477.05c-.24-4.19-.57-8.38-1.57-12.45-.76-3.07-1.91-6.05-2.53-9.16-3.41-16.97,9.02-33.11,10.32-50.37.42-5.59-.29-11.49,2.07-16.57,1.51-3.26,4.16-5.87,5.69-9.12,3.23-6.83.96-14.92,1.91-22.42,1.01-7.93,5.57-14.88,9.06-22.08,2.19-4.5,3.98-9.17,5.58-13.92-3.86.76-7.61,1.89-11.03,3.82-3.2,1.8-5.99,4.23-8.74,6.65-6.09,5.36-12.2,10.86-16.7,17.61-3.61,5.4-6.1,11.45-8.56,17.46-11.2,27.3-22.44,54.75-29.06,83.51-2.05,8.92-3.65,17.95-4.79,27.03h48.35Z"/>
      <path class="st5" d="M524.2,477.05h13.63c-5.72-18.62-11.03-35.73-11.49-36.44-2.16,8.49-4.34,17.16-3.6,25.89.3,3.54,1.08,7.03,1.45,10.56h0Z"/>
      <path class="st5" d="M548.83,318.37c5.89,11.67,11.95,24.43,9.58,37.29-1.75,9.49-8,18.04-7.89,27.68.07,6.04,2.66,11.75,3.62,17.71.86,5.36.4,10.84.61,16.27.43,11.08,3.66,21.82,6.4,32.57,2.29,8.98,4.24,18.05,5.87,27.17h95.97c-.32-2.57-.6-5.15-.79-7.74-.66-8.8-.61-17.67-1.94-26.4-3.03-19.84-13.05-37.92-17.81-57.42-2.06-8.42-3.19-17.24-7.34-24.86-5.36-9.85-15.07-16.45-24.42-22.65-7.95-5.28-15.9-10.56-23.85-15.84-3.22-2.14-6.52-4.32-10.26-5.33-3.57-.97-7.39-.84-10.94-1.88-7.02-2.07-13.16-8.61-19.69-10.5.24.54.47,1.08.72,1.62-1.12-.36-2.28.72-2.47,1.87s.28,2.31.74,3.39c1.1,2.57,2.2,5.13,3.9,7.05h-.01Z"/>
      <path class="st7" d="M454,239.04c-.75,1.24-1.58,2.44-2.09,3.79-.76,2.01-.75,4.29.02,6.3-.89.62-1.78,1.25-2.66,1.87,1.15,1.85.78,4.51-.83,5.98-2,1.82-5.68,2.19-6.15,4.85-.52-.78-1.04-1.56-1.55-2.35-.26.67-.52,1.33-.79,2-.33-1.07-.86-2.07-1.58-2.93-.33,1.22-.67,2.43-1,3.65-.31-1.37-2.09-2.16-3.31-1.46l-.48-1.34c-.41.89-.82,1.78-2,3.22-.45-.8-.9-1.61-1.34-2.41-.09-.16-.21-.34-.39-.33-.17,0-.28.17-.37.31-.41.7-.82,1.4-1.24,2.11-.28-.75-.56-1.51-.84-2.26-.11-.28-.31-.63-.61-.56-.15.03-.26.17-.34.3-.54.78-1.09,1.56-1.63,2.35-.18-.97-.36-1.94-.53-2.91-.7.73-1.33,1.54-1.88,2.4-.52-.87-.09-2.33-1.01-2.75-.76-.34-1.5.48-1.93,1.19-.44-.77-.89-1.54-1.33-2.31-.19.52-.48.99-.85,1.4-.02-.46.04-.92.16-1.36-.35.24-.71.49-1.42.75-.99-1.24-1.37-2.94-1-4.48-.84.85-1.69,1.69-2.55,2.52.04-.8-.76-1.34-1.28-1.95-1.64-1.91-.78-5.19-2.52-7.01-.02.54-.03,1.07-.05,1.61-1.02-.72-1.9-1.65-2.6-2.7-.48-2.01-1.41-3.91-2.7-5.52-.31.3-.34.83-.07,1.17-3.86-4.45-7.73-8.9-11.59-13.34-.52.62-1.3.77-2.16.69.56,1.35.16,3.08-1.04,3.95.7-.12,1.22.71,1.17,1.41-.06.7-2.26,1.17-2.46,1.85-.32,1.08,1.91.84,2.13,1.95l.34,2.68c-.64.2.24,1.33.36,2,.7,3.67,1.47,7.37.68,10.99.79-.18,1.58-.36,2.36-.54-.6,1.33-1.19,2.66-1.79,3.99,1.05-.3,2.1-.6,3.15-.9.05.63-.11,1.27-.46,1.79,1.62-.41,3.2.67,4.52,1.7,1.35,1.05,2.86,2.58,3.94,4.06.99-1.07,2.21-1.93,3.56-2.48-.76,1.26-1.52,2.53-2.28,3.79.97-1.22,2.79-1.68,4.23-1.06.37.16.73.41.84.79.07.26.01.53-.04.79-.23,1.03-.45,2.06-.68,3.08,1.78-1.73,3.68-3.33,5.69-4.79-.99,1.99-1.99,3.99-2.98,5.98l2.26-.61c.59-1.6,1.86-2.94,3.43-3.62-.01.84.11,1.67.37,2.47,1.3-.67,2.42-1.7,3.2-2.93-.01.61-.02,1.25.22,1.82.24.56.81,1.04,1.42.97.34-.04.63-.23.95-.35,1.21-.42,2.48.33,3.54,1.06-.08-1.02.95-1.85,1.97-1.92s1.99.41,2.86.92c.77.46,1.52.95,3.28,1.48.41-1.03.55-2.16.42-3.26,1.81.31,3.55.98,5.1,1.96-.22-.84-.44-1.67-.66-2.51,2.29.77,4.66,1.29,7.06,1.54-1.17-.26-1.83-1.82-1.19-2.84.64.15,1.29.31,1.93.46.15-.55-.04-1.17-.48-1.54,2.4-1.13,4.8-2.26,7.2-3.39-1.08.02-2.16-.2-3.14-.63.7-.15,2.07-.97,1.87-1.11l2.5-1.33s-3.16.46-3.8-.11c1.58-.84,3.28-1.47,5.03-1.85-.9-.23-1.61-1.08-1.68-2.01s.51-1.87,1.37-2.23c.51-1.71.62-3.53.33-5.29.39,1.66,1.2,3.21,2.33,4.48-.16-2.09-.1-4.2.19-6.28.3.32.87.18,1.14-.16.27-.34.33-.8.37-1.23.16-1.53.31-3.07.47-4.6.27.9.82,1.7,1.56,2.27.89-5.58.14-11.4-2.4-16.06l-1.47,3.9c-.78,3.89-2.24,7.64-4.29,11.03v-.02Z"/>
      <path class="st7" d="M387.16,222.17s71.4-8.36,78.36-4.15l-4.67,20.3s-3.22,24.9-27.51,24.27c-24.3-.63-42.13-25.44-42.13-25.44l-4.04-14.98h0Z"/>
    </g>
    <path class="st1" d="M408.51,204.18c-1.3-.33-2.78-.21-3.84-1.04-1.35-1.07-1.27-3.11-1.03-4.82.37-2.59.83-5.18,1.38-7.74"/>
    <path class="st1" d="M411.65,204.63c1.97.23,4.08.52,5.58,1.83.79.69,1.35,1.62,2.07,2.37,2.68,2.79,7.8,2.59,10.26-.39.98-1.19,1.54-2.69,2.56-3.85,1.96-2.23,5.15-2.8,8.09-3.23.76-.11,1.53-.22,2.2-.58.78-.41,1.37-1.1,1.82-1.85,1.78-2.92,1.35-7.31-1.56-9.1"/>
    <path class="st6" d="M458.86,221.81c-7.74,2.44-16.15,1.05-24.2,2.14-3.71.5-7.33,1.53-11.03,2.14-3.57.59-7.19.78-10.81.87-5.3.13-10.61.05-15.9-.26,4.1,1.66,7.54,4.58,11.39,6.75,6.75,3.8,14.62,5.2,22.36,5.37,2.27.05,4.57,0,6.77-.57,1.47-.38,2.88-.98,4.25-1.64,6.77-3.29,12.7-8.29,17.16-14.81h.01Z"/>
    <path class="st1" d="M590.55,473.63c6.71-22.09,16.46-43.25,28.88-62.7,3.56-5.57,7.33-11,11.32-16.28"/>
    <path class="st1" d="M593.4,471.69c7.44-11.16,14.88-22.32,22.31-33.48.69-1.04,1.4-2.11,1.65-3.33.51-2.49-.96-4.9-2.36-7.02"/>
    <path class="st1" d="M352.58,155.58c-3.3,11.84-6.81,24.08-14.73,33.48-4.85,5.75-11.51,10.81-12.69,18.24"/>
    <path class="st1" d="M351.2,139.66c-11.16,14.14-22.85,29.73-23,47.74"/>
    <path class="st1" d="M445.87,71.66c22.66,14.35,41.16,34.52,56.63,56.44,11.01,15.6,20.62,32.18,28.68,49.49"/>
    <path class="st1" d="M514.17,183.87c3.53,17.17,7.06,35,3.03,52.06-4.78,20.21-19.66,36.94-24.16,57.21-3.69,16.62.28,34.79,10.58,48.36"/>
    <path class="st1" d="M603,473.73c8.43-10.93,15.54-22.87,21.1-35.5"/>
    <circle class="st3" cx="390.84" cy="158.39" r="6.09"/>
    <circle class="st3" cx="456.62" cy="153.35" r="6.09"/>
    <g>
      <path class="st1" d="M363.51,206.57c-.01.29.04.56.13.81.41-.14.82-.29-.13-.81Z"/>
      <path class="st1" d="M358.02,193.94c.78,3.39,1.47,5.13,1.49,6.26.21-1.05.57-.96.78-2.01.15,1.14.34,4.68.19,5.91.16-.5.33-1.02.69-1.39.36-.38.98-.57,1.42-.29.49.31.55.98.55,1.56.01,1.22.02,2.44.03,3.66.04-.12.24-.19.44-.26-.09-.26-.14-.53-.13-.81.95.53.54.67.13.81.28.8.95,1.49,1.5,2.17,1.2,1.49,1.93,3.35,2.07,5.26.51-.79.89-1.67,1.12-2.58,1.03,1.83,1.82,3.8,2.35,5.83,1,.4,1.39,1.16,1.78,1.91-.26-.35.31-.82.72-.66s.58.63.72,1.04c.23.7.46,1.4.69,2.09.73-.14.64-1.64,1.38-1.55.24.03.4.24.54.43.79,1.2,1.2,2.65,1.14,4.09,1.15-.91,1.91-2.31,2.03-3.77.67,1.87,1.34,3.73,2.01,5.6,2.44-2.04,2.63-4.86,4.22-6.64,1.44-1.61,4.08-2.49,4.26-4.64.04-.44-.04-.9.13-1.31.45-1.05,1.95-.83,3.09-.74,1.14.1,2.03-.46,2.08.23.45-2.46,3.34-3.5,5.77-4.08,1.74-.42,3.52-.84,5.3-.62.06-1.23,1.98-.78,3.17-1.09.46-.12.85-.41,1.24-.68,1.26-.88,2.91-1.69,4.25-.94.62.35,1.03.97,1.48,1.52,2,2.41,5.36,3.61,8.43,3.02s5.74-2.96,6.7-5.94c1.11-.15,1.64-1.3,2.4-1.73.84-.48,1.89,0,2.75.45,1.86-.37,3.41-.04,4.84.56-.34-.4,0-1.08.49-1.24.5-.16,1.04.04,1.49.31s.88.6,1.38.73c.79.21,1.61-.11,2.42-.2,1-.11,2.04.12,2.89.66-.14-.42.23-.87.66-.97s.88.06,1.27.27c.97.52,1.77,1.35,2.26,2.34-.13-.39-.26-.78-.38-1.16,2.11.45,4.22.9,6.32,1.34,1.99,0,3.39,1.64,3.26.69,6.61,4.64,10.28,13.15,9.11,21.15.47-1.66.94-3.32,1.42-4.98.48-.97.97-1.93,1.45-2.9.37-.74,1.15-1.61,1.85-1.18.04-1.06.08-2.12.13-3.18.59.41,1.19.81,1.78,1.22.27-1.34.54-2.67.82-4.01.54.16,1.03.49,1.38.93,2.52-2.97,5.04-5.93,7.56-8.9.88-1.03,1.76-2.07,2.39-3.27,2.09-3.96,1.09-8.76,1.31-13.24.12-2.45.61-4.87.76-7.32.17-2.9-.14-5.81-.31-8.71-.26-4.56-.12-9.13,0-13.7.17,4.23.67,8.44,1.5,12.58-.32-5.3-1.15-10.58-2-15.82l-5.2-32.18c-.32-2-.66-4.05-1.59-5.85-.86-1.68-2.19-3.06-3.53-4.4-9.01-9.03-17.85-11.87-27.3-20.43-31.61-28.65-46.33-25.37-49.41-24.17.12-1.55-4.36-1.32-4.24-2.87-2.59.48-5.11,1.36-7.44,2.61-1.98,1.06-4.41.74-5.97-.87-2.45,2.76-5.99,4.23-9.36,5.31-12.73,4.07-22.18,16.79-22.4,30.16,1.03-1.08,2.91,56.39-2.4,72.7.08.67.17,1.35.25,2.02.04-.35.07-.71.12-1.06.48,3.27,2.17,11.36,3.45,16.9l.06.02Z"/>
      <path class="st1" d="M457.82,317.24c1.71-2.25,2.92-4.93,5.05-6.79,3.82-3.34,10.44-4.05,11.87-8.92,1.24-4.2-2.49-8.17-3.17-12.49-.9-5.77,3.62-10.75,6.72-15.7,3.98-6.33,5.88-13.66,7.4-21.49-.07.05-.13.1-.2.15-1.99,2.96-2.82,5.02-3.37,7.15-1.02-.63-1.96-1.39-2.79-2.27.19,1.64.63,3.25,1.3,4.76-.87-.7-2.19-.58-3.15-.01-.96.57-1.65,1.5-2.3,2.4-2.96,1.68-4.95,3.56-6.94,5.44-.4.37-.81.77-.95,1.3-.19.71.09,1.62-.47,2.09-.94.78-2.47-1.02-3.47-.31-.81.57-.12,1.89-.41,2.84-.12.4-.42.71-.71,1.01-2.28,2.36-3.18,3.29-5.46,5.65l-1.68-1.42c.8,1.14.91,2.73.28,3.97-1.07-.61-2.07-1.34-2.98-2.16-.12,1.34-.49,2.66-1.11,3.85-.54-.56-1.07-1.13-1.61-1.69-.12.39-.24.79-.36,1.18-1.17-.24-2.14.81-3.05,1.59-1.64,1.41-3.83,2.15-5.99,2.02l-.23.54c0-.36-.59-.14-.78.16-.66,1.07-1.32,2.13-1.99,3.2l.27-2.79c-.81.38-1.62.76-2.44,1.13-.52-.63-.67-1.54-.39-2.3-.7.66-1.41,1.32-2.11,1.98-.24.23-.5.46-.82.55-.39.1-.79-.02-1.17-.15-1.65-.55-3.3-1.11-4.95-1.66-1.66.59-3.31.64-4.88,1.02-.58-.64-1.15-1.27-1.73-1.91-.43.63-.86,1.25-1.29,1.88-.09-1.35-1.44-2.31-2.76-2.57-1.33-.26-2.7-.03-4.05-.1-2.23-.11-4.4-1.08-5.98-2.65-1.64-1.63-3.69-4.12-5.65-2.89-.96-.57-.91-1.93-1.26-2.99s-2.13-1.73-2.38-.65c.12-1.74-1.7-3.33-3.42-2.98.59-1.81-1.06-3.96-2.96-3.86-.16-1.53-1.47-2.87-3-3.05.65-1.53-1.73-3.19-2.94-2.04-.03-.61-.15-1.14-.34-1.61-.09,3.08-.8,6.3-1.21,9.36-.95,7.1-.12,14.42,2.64,21.14.85,5.92,1.84,11.83,2.83,17.73.73,4.34,1.45,8.67,2.18,13.01,4.05,1.28,9.42,2.54,17.31,4.21,10.1,2.14,25.73.68,37.52-3.71,4.81-3.04,10.07-5.69,13.47-10.16h.06Z"/>
      <path class="st1" d="M495.56,202.21s-.01-.08-.02-.12c-.07,0-.14-.02-.21-.05.08.05.15.12.23.17h0Z"/>
      <path class="st1" d="M396.74,369.92c1.97,11.72,3.94,23.48,4.21,35.36.19,8.29-.45,16.58-1.1,24.85-.87,11.14-1.73,22.27-2.6,33.41-.61-17.29-1.25-34.79-6.1-51.4-6.12,21.11-9.73,42.95-10.77,64.91h40.27c.01-2.77-.14-5.55-.5-8.33-1.2-9.08-4.56-17.77-5.68-26.85-1.29-10.48.46-21.07,2.19-31.48,1.43-8.56,2.87-17.18,5.92-25.3,3.11-8.3,7.9-16.11,9.17-24.88,1.2-8.28-.7-17.4,3.61-24.57,2.14-3.55,5.45-6,9-8.25-11.79,4.4-27.42,5.86-37.52,3.71-7.9-1.67-13.27-2.93-17.31-4.21,1.43,8.51,2.86,17.03,4.29,25.54.98,5.83,1.96,11.65,2.93,17.48h-.01Z"/>
      <path class="st1" d="M259.73,477.05c-.25-4.47-.55-8.96-1.62-13.3-.76-3.07-1.91-6.05-2.53-9.16-3.41-16.97,9.02-33.11,10.32-50.37.42-5.59-.29-11.49,2.07-16.57,1.51-3.26,4.16-5.87,5.69-9.12,3.23-6.83.96-14.92,1.91-22.42,1.01-7.93,5.57-14.88,9.06-22.08,2.19-4.5,3.98-9.17,5.58-13.92-3.86.76-7.61,1.89-11.03,3.82-3.2,1.8-5.99,4.23-8.74,6.65-6.09,5.36-12.2,10.86-16.7,17.61-3.61,5.4-6.1,11.45-8.56,17.46-11.2,27.3-22.44,54.75-29.06,83.51-2.12,9.2-3.75,18.51-4.9,27.88h48.51Z"/>
      <path class="st1" d="M527.28,477.05h13.82c-5.82-18.95-11.29-36.56-11.75-37.29-2.16,8.49-4.34,17.16-3.6,25.89.32,3.82,1.2,7.59,1.53,11.4h0Z"/>
      <path class="st1" d="M551.84,317.52c5.89,11.67,11.95,24.43,9.58,37.29-1.75,9.49-8,18.04-7.89,27.68.07,6.04,2.66,11.75,3.62,17.71.86,5.36.4,10.84.61,16.27.43,11.08,3.66,21.82,6.4,32.57,2.36,9.26,4.36,18.61,6.01,28.02h95.94c-.37-2.85-.68-5.72-.9-8.59-.66-8.8-.61-17.67-1.94-26.4-3.03-19.84-13.05-37.92-17.81-57.42-2.06-8.42-3.19-17.24-7.34-24.86-5.36-9.85-15.07-16.45-24.42-22.65-7.95-5.28-15.9-10.56-23.85-15.84-3.22-2.14-6.52-4.32-10.26-5.33-3.57-.97-7.39-.84-10.94-1.88-7.02-2.07-13.16-8.61-19.69-10.5.24.54.47,1.08.72,1.62-1.12-.36-2.28.72-2.47,1.87s.28,2.31.74,3.39c1.1,2.57,2.2,5.13,3.9,7.05h-.01Z"/>
      <path class="st2" d="M258.11,463.75c1.07,4.34,1.37,8.83,1.62,13.3h120.64c1.04-21.96,4.65-43.8,10.77-64.91,4.85,16.61,5.49,34.11,6.1,51.4.87-11.14,1.73-22.27,2.6-33.41.64-8.27,1.29-16.56,1.1-24.85-.27-11.88-2.24-23.64-4.21-35.36-.98-5.83-1.95-11.65-2.93-17.48-1.43-8.51-2.86-17.03-4.29-25.54-.73-4.34-1.45-8.67-2.18-13.01-.99-5.9-1.98-11.81-2.83-17.73-2.76-6.71-3.59-14.04-2.64-21.14.41-3.07,1.12-6.28,1.21-9.36-1.4-3.55-6.73-3.62-8.24-7.98l-.44-1.37c-2.41-1.61-5.14-3.98-4.45-6.79-.86.82-2.06-.58-2.4-1.72-1.51-5.11-2.7-10.32-3.56-15.58-.19-1.17-.91-3.48-1.04-4.05-2.63-11.58-5.04-23.2-7.23-34.87-.94-5.01-1.82-10.13-1.26-15.18-.08-.67-.17-1.35-.25-2.02,5.3-16.31,3.43-73.78,2.4-72.7.22-13.37,9.66-26.09,22.4-30.16,3.37-1.08,6.91-2.55,9.36-5.31,1.56,1.61,3.99,1.93,5.97.87,2.33-1.24,4.84-2.13,7.44-2.61-.12,1.55,4.36,1.32,4.24,2.87,3.07-1.19,17.8-4.47,49.41,24.17,9.45,8.57,18.29,11.4,27.3,20.43,1.33,1.34,2.66,2.72,3.53,4.4.93,1.81,1.27,3.85,1.59,5.85l5.2,32.18c.85,5.25,1.68,10.53,2,15.82.16,2.7.2,5.41.01,8.11-.32,4.65-1.26,9.31-.8,13.95.27,2.73,1,5.4,1.31,8.12,0,.04.01.08.02.12.02.17.05.34.07.52.26,3.04-.13,6.09-.59,9.11-1.73,11.42-4.47,22.7-8.17,33.64-.38,2.15-.76,4.28-1.17,6.37-1.52,7.83-3.41,15.16-7.4,21.49-3.11,4.94-7.63,9.93-6.72,15.7.68,4.32,4.41,8.3,3.17,12.49-1.44,4.87-8.05,5.57-11.87,8.92-2.13,1.86-3.34,4.54-5.05,6.79-3.4,4.47-8.66,7.12-13.47,10.16-3.55,2.24-6.86,4.69-9,8.25-4.31,7.17-2.42,16.29-3.61,24.57-1.27,8.77-6.05,16.58-9.17,24.88-3.05,8.12-4.49,16.74-5.92,25.3-1.74,10.41-3.48,21-2.19,31.48,1.12,9.09,4.48,17.78,5.68,26.85.37,2.78.52,5.56.5,8.33h106.64c-.33-3.81-1.2-7.58-1.53-11.4-.74-8.72,1.44-17.4,3.6-25.89.46.73,5.93,18.34,11.75,37.29h29.07c-1.65-9.41-3.65-18.76-6.01-28.02-2.74-10.74-5.97-21.49-6.4-32.57-.21-5.43.26-10.91-.61-16.27-.96-5.96-3.55-11.67-3.62-17.71-.11-9.65,6.14-18.2,7.89-27.68,2.37-12.86-3.69-25.61-9.58-37.29-1.7-1.92-2.8-4.48-3.9-7.05-.46-1.08-.93-2.23-.74-3.39s1.35-2.23,2.47-1.87c-.25-.54-.48-1.08-.72-1.62-3.15-6.96-5.97-14.07-8.43-21.3-.83-2.43-1.62-4.88-1.9-7.43-.31-2.72-.02-5.47.12-8.21.72-13.97-2.32-28.11-8.7-40.56,1.49,1.78,3.2,3.36,5.1,4.7-.84-2.55-2.22-4.87-3.37-7.29-6.61-13.83-5.47-29.95-4.18-45.22.6-4.14-.24-8.04.46-11.76.27-1.47.78-2.89,1-4.37.63-4.34-1.41-8.79-4.64-11.77-2.43-2.24-5.64-3.95-6.84-7.03-3.79-24.23-11.73-47.86-23.64-69.3-5.97-10.74-10.03-20.1-19.49-27.95-14.44-11.97-58.79-14.58-70.67-8.54-3.11,1.58-6.13,3.89-7.04,7.26-.85-3.9-3.24-6.44-6.02-7.5s-5.89-.88-8.82-.39c-6.98,1.19-20.15,6.56-29.7,22.06-11.45,18.61-18.92,48.33-20.9,56.33.94,9.87-7.45,18.41-8.22,28.47-.23,2.98.23,5.96.58,8.92,1.35,11.37,1.18,22.85,1.01,34.3-.05,3.16-.12,6.44-1.45,9.31-.92,1.99-2.41,3.69-3.23,5.72-2.26,5.54.86,11.89-.13,17.79-7.92,27.33-16.66,57.02-25.4,86.71-1.34,4.54-2.68,9.09-4.2,13.58-1.6,4.74-3.39,9.41-5.58,13.92-3.5,7.19-8.06,14.14-9.06,22.08-.95,7.5,1.32,15.58-1.91,22.42-1.53,3.24-4.19,5.86-5.69,9.12-2.36,5.09-1.65,10.98-2.07,16.57-1.3,17.26-13.73,33.4-10.32,50.37.62,3.11,1.77,6.08,2.53,9.16h-.07Z"/>
      <path class="st1" d="M457,238.19c-.75,1.24-1.58,2.44-2.09,3.79-.76,2.01-.75,4.29.02,6.3-.89.62-1.78,1.25-2.66,1.87,1.15,1.85.78,4.51-.83,5.98-2,1.82-5.68,2.19-6.15,4.85-.52-.78-1.04-1.56-1.55-2.35-.26.67-.52,1.33-.79,2-.33-1.07-.86-2.07-1.58-2.93-.33,1.22-.67,2.43-1,3.65-.31-1.37-2.09-2.16-3.31-1.46l-.48-1.34c-.41.89-.82,1.78-2,3.22-.45-.8-.9-1.61-1.34-2.41-.09-.16-.21-.34-.39-.33-.17,0-.28.17-.37.31-.41.7-.82,1.4-1.24,2.11-.28-.75-.56-1.51-.84-2.26-.11-.28-.31-.63-.61-.56-.15.03-.26.17-.34.3-.54.78-1.09,1.56-1.63,2.35-.18-.97-.36-1.94-.53-2.91-.7.73-1.33,1.54-1.88,2.4-.52-.87-.09-2.33-1.01-2.75-.76-.34-1.5.48-1.93,1.19-.44-.77-.89-1.54-1.33-2.31-.19.52-.48.99-.85,1.4-.02-.46.04-.92.16-1.36-.35.24-.71.49-1.42.75-.99-1.24-1.37-2.94-1-4.48-.84.85-1.69,1.69-2.55,2.52.04-.8-.76-1.34-1.28-1.95-1.64-1.91-.78-5.19-2.52-7.01-.02.54-.03,1.07-.05,1.61-1.02-.72-1.9-1.65-2.6-2.7-.48-2.01-1.41-3.91-2.7-5.52-.31.3-.34.83-.07,1.17-3.86-4.45-7.73-8.9-11.59-13.34-.52.62-1.3.77-2.16.69.56,1.35.16,3.08-1.04,3.95.7-.12,1.22.71,1.17,1.41-.06.7-2.26,1.17-2.46,1.85-.32,1.08,1.91.84,2.13,1.95l.34,2.68c-.64.2.24,1.33.36,2,.7,3.67,1.47,7.37.68,10.99.79-.18,1.58-.36,2.36-.54-.6,1.33-1.19,2.66-1.79,3.99,1.05-.3,2.1-.6,3.15-.9.05.63-.11,1.27-.46,1.79,1.62-.41,3.2.67,4.52,1.7,1.35,1.05,2.86,2.58,3.94,4.06.99-1.07,2.21-1.93,3.56-2.48-.76,1.26-1.52,2.53-2.28,3.79.97-1.22,2.79-1.68,4.23-1.06.37.16.73.41.84.79.07.26.01.53-.04.79-.23,1.03-.45,2.06-.68,3.08,1.78-1.73,3.68-3.33,5.69-4.79-.99,1.99-1.99,3.99-2.98,5.98l2.26-.61c.59-1.6,1.86-2.94,3.43-3.62-.01.84.11,1.67.37,2.47,1.3-.67,2.42-1.7,3.2-2.93-.01.61-.02,1.25.22,1.82.24.56.81,1.04,1.42.97.34-.04.63-.23.95-.35,1.21-.42,2.48.33,3.54,1.06-.08-1.02.95-1.85,1.97-1.92s1.99.41,2.86.92c.77.46,1.52.95,3.28,1.48.41-1.03.55-2.16.42-3.26,1.81.31,3.55.98,5.1,1.96-.22-.84-.44-1.67-.66-2.51,2.29.77,4.66,1.29,7.06,1.54-1.17-.26-1.83-1.82-1.19-2.84.64.15,1.29.31,1.93.46.15-.55-.04-1.17-.48-1.54,2.4-1.13,4.8-2.26,7.2-3.39-1.08.02-2.16-.2-3.14-.63.7-.15,2.07-.97,1.87-1.11l2.5-1.33s-3.16.46-3.8-.11c1.58-.84,3.28-1.47,5.03-1.85-.9-.23-1.61-1.08-1.68-2.01s.51-1.87,1.37-2.23c.51-1.71.62-3.53.33-5.29.39,1.66,1.2,3.21,2.33,4.48-.16-2.09-.1-4.2.19-6.28.3.32.87.18,1.14-.16.27-.34.33-.8.37-1.23.16-1.53.31-3.07.47-4.6.27.9.82,1.7,1.56,2.27.89-5.58.14-11.4-2.4-16.06l-1.47,3.9c-.78,3.89-2.24,7.64-4.29,11.03v-.02Z"/>
      <path class="st2" d="M495.63,202.72c-.01-.17-.05-.34-.07-.52-.08-.06-.15-.12-.23-.17.07.03.14.04.21.05-.31-2.72-1.04-5.39-1.31-8.12-.46-4.64.48-9.3.8-13.95.19-2.71.15-5.41-.01-8.11-.83-4.14-1.33-8.36-1.5-12.58-.13,4.57-.26,9.14,0,13.7.16,2.9.48,5.81.31,8.71-.15,2.45-.64,4.87-.76,7.32-.21,4.48.79,9.28-1.31,13.24-.63,1.2-1.52,2.24-2.39,3.27-2.52,2.97-5.04,5.93-7.56,8.9-.35-.44-.84-.77-1.38-.93-.27,1.34-.54,2.67-.82,4.01-.59-.41-1.19-.81-1.78-1.22-.04,1.06-.08,2.12-.13,3.18-.71-.43-1.48.44-1.85,1.18-.48.97-.97,1.93-1.45,2.9-.47,1.66-.94,3.32-1.42,4.98,1.16-7.99-2.5-16.5-9.11-21.15.13.95-1.27-.7-3.26-.69-2.11-.45-4.21-.9-6.32-1.34.13.39.26.78.38,1.16-.49-.99-1.29-1.82-2.26-2.34-.39-.21-.84-.37-1.27-.27-.43.1-.8.55-.66.97-.85-.54-1.89-.78-2.89-.66-.81.09-1.63.41-2.42.2-.51-.13-.93-.47-1.38-.73s-.99-.47-1.49-.31-.83.83-.49,1.24c-1.43-.6-2.98-.92-4.84-.56-.85-.46-1.9-.93-2.75-.45-.76.43-1.29,1.58-2.4,1.73-.96,2.98-3.63,5.35-6.7,5.94s-6.43-.61-8.43-3.02c-.45-.55-.86-1.17-1.48-1.52-1.34-.75-2.99.06-4.25.94-.39.27-.78.56-1.24.68-1.19.31-3.11-.13-3.17,1.09-1.78-.21-3.56.21-5.3.62-2.43.58-5.32,1.62-5.77,4.08-.05-.69-.94-.14-2.08-.23-1.14-.1-2.65-.31-3.09.74-.17.41-.09.87-.13,1.31-.18,2.15-2.82,3.03-4.26,4.64-1.59,1.77-1.78,4.6-4.22,6.64-.67-1.87-1.34-3.73-2.01-5.6-.13,1.46-.88,2.86-2.03,3.77.06-1.44-.35-2.89-1.14-4.09-.13-.2-.3-.41-.54-.43-.74-.09-.65,1.41-1.38,1.55-.23-.7-.46-1.4-.69-2.09-.14-.42-.32-.88-.72-1.04s-.97.31-.72.66c-.39-.76-.77-1.51-1.78-1.91-.53-2.04-1.32-4-2.35-5.83-.23.91-.6,1.79-1.12,2.58-.14-1.91-.87-3.77-2.07-5.26-.55-.68-1.23-1.38-1.5-2.17-.2.07-.41.14-.44.26-.01-1.22-.02-2.44-.03-3.66,0-.58-.06-1.26-.55-1.56-.44-.28-1.06-.09-1.42.29-.36.38-.53.89-.69,1.39.14-1.24-.04-4.77-.19-5.91-.21,1.05-.57.96-.78,2.01-.02-1.13-.71-2.87-1.49-6.26-1.28-5.54-2.97-13.63-3.45-16.9-.05.35-.08.71-.12,1.06-.56,5.05.32,10.17,1.26,15.18,2.19,11.67,4.6,23.29,7.23,34.87.13.57.85,2.88,1.04,4.05.85,5.26,2.04,10.47,3.56,15.58.34,1.14,1.54,2.54,2.4,1.72-.69,2.81,2.04,5.19,4.45,6.79l.44,1.37c1.51,4.37,6.84,4.43,8.24,7.98.19.47.31,1,.34,1.61,1.21-1.14,3.59.51,2.94,2.04,1.53.18,2.84,1.52,3,3.05,1.9-.1,3.55,2.05,2.96,3.86,1.71-.35,3.53,1.24,3.42,2.98.25-1.08,2.03-.41,2.38.65s.3,2.42,1.26,2.99c1.95-1.23,4.01,1.26,5.65,2.89,1.58,1.57,3.75,2.54,5.98,2.65,1.35.07,2.72-.16,4.05.1s2.68,1.22,2.76,2.57c.43-.63.86-1.25,1.29-1.88.58.64,1.15,1.27,1.73,1.91,1.57-.38,3.22-.43,4.88-1.02,1.65.55,3.3,1.11,4.95,1.66.38.13.78.26,1.17.15.32-.09.58-.32.82-.55.7-.66,1.41-1.32,2.11-1.98-.28.76-.13,1.68.39,2.3.81-.38,1.62-.76,2.44-1.13l-.27,2.79c.66-1.07,1.32-2.13,1.99-3.2.19-.31.78-.53.78-.16l.23-.54c2.16.14,4.36-.6,5.99-2.02.9-.78,1.88-1.83,3.05-1.59.12-.39.24-.79.36-1.18.54.56,1.07,1.13,1.61,1.69.61-1.2.99-2.51,1.11-3.85.91.82,1.92,1.55,2.98,2.16.64-1.24.53-2.83-.28-3.97l1.68,1.42c2.28-2.36,3.18-3.29,5.46-5.65.29-.3.59-.61.71-1.01.3-.95-.4-2.26.41-2.84,1-.71,2.52,1.09,3.47.31.56-.47.28-1.38.47-2.09.14-.52.55-.93.95-1.3,1.99-1.88,3.98-3.76,6.94-5.44.66-.9,1.34-1.83,2.3-2.4s2.28-.69,3.15.01c-.67-1.51-1.11-3.12-1.3-4.76.82.88,1.76,1.64,2.79,2.27.56-2.13,1.38-4.2,3.37-7.15.07-.05.13-.1.2-.15.41-2.09.78-4.22,1.17-6.37,3.7-10.95,6.44-22.22,8.17-33.64.46-3.02.85-6.07.59-9.11l-.08-.03ZM465.16,239.32c-.74-.57-1.3-1.38-1.56-2.27-.16,1.53-.31,3.07-.47,4.6-.04.43-.1.89-.37,1.23s-.84.48-1.14.16c-.28,2.08-.35,4.19-.19,6.28-1.13-1.27-1.94-2.82-2.33-4.48.29,1.76.18,3.58-.33,5.29-.86.36-1.44,1.3-1.37,2.23s.77,1.78,1.68,2.01c-1.75.39-3.45,1.01-5.03,1.85.65.57,3.8.11,3.8.11l-2.5,1.33c.2.14-1.16.96-1.87,1.11.99.43,2.07.65,3.14.63-2.4,1.13-4.8,2.26-7.2,3.39.43.37.63.99.48,1.54-.64-.15-1.29-.31-1.93-.46-.63,1.02.02,2.58,1.19,2.84-2.4-.25-4.77-.77-7.06-1.54.22.84.44,1.67.66,2.51-1.55-.98-3.29-1.65-5.1-1.96.13,1.1-.02,2.23-.42,3.26-1.76-.53-2.5-1.03-3.28-1.48-.88-.52-1.85-1-2.86-.92s-2.04.91-1.97,1.92c-1.06-.72-2.33-1.48-3.54-1.06-.32.11-.62.31-.95.35-.61.07-1.18-.4-1.42-.97-.24-.56-.23-1.2-.22-1.82-.79,1.23-1.9,2.26-3.2,2.93-.26-.8-.38-1.63-.37-2.47-1.57.68-2.84,2.01-3.43,3.62l-2.26.61c.99-1.99,1.99-3.99,2.98-5.98-2,1.46-3.9,3.06-5.69,4.79.23-1.03.45-2.06.68-3.08.06-.26.11-.53.04-.79-.11-.38-.47-.64-.84-.79-1.43-.62-3.25-.16-4.23,1.06.76-1.26,1.52-2.53,2.28-3.79-1.35.55-2.58,1.4-3.56,2.48-1.08-1.49-2.59-3.01-3.94-4.06-1.32-1.02-2.9-2.11-4.52-1.7.35-.52.52-1.16.46-1.79-1.05.3-2.1.6-3.15.9.6-1.33,1.19-2.66,1.79-3.99-.79.18-1.58.36-2.36.54.79-3.62.01-7.32-.68-10.99-.13-.67-1.01-1.8-.36-2l-.34-2.68c-.22-1.11-2.45-.87-2.13-1.95.2-.68,2.41-1.15,2.46-1.85.06-.7-.47-1.54-1.17-1.41,1.19-.87,1.6-2.61,1.04-3.95-.09-.22-.21-.44-.36-.64.62-.02.8-.28.85-.57-.33-.03-.66-.05-.99-.08.41-.16.85-.35,1.02-.75.17-.4-.21-.98-.61-.81.74-.19,1.38-.71,1.72-1.39-.01.62,1,.6,1.41.13s.61-1.15,1.18-1.39c.25-.1.52-.07.76.05.36.19.81-.04.92-.43l.28-1.02c-.08.49.36,1.95.66,2.2.37-.25.64-.65.73-1.09.94.15,1.88.31,2.82.46,1.26.14,2.54.8,3.31.03.44-.44.8-1.33,1.35-1.05.08.52.15,1.03.23,1.55.64-.5,1.09-1.23,1.24-2.02,1.01.74,2.11,1.35,3.27,1.81,1.2-.45,1.8.62,1.58,1.57.29-.81.57-1.62.86-2.43.08-.22.16-.45.32-.61.35-.37.97-.33,1.4-.07s.71.71.98,1.14l2.55-3.21c-.25.68.81,1.12,1.48.86s1.27-.84,1.99-.78c.57.05,1.06.55,1.09,1.12.75-.96,1.24-2.13,1.4-3.34.38,1.04.43,2.2.14,3.26,1.58-.15,4.43-.63,4.43-.63.23.09.46.18.7.28.3-.54.6-1.07.9-1.61.85-.21,1.23,1.75,1.99,1.31.19-.11.27-.35.39-.54.28-.43.87-.63,1.35-.46.48.18.8.71.73,1.22.21-1.16.41-2.31.62-3.47.41,1.02.84,2.03,1.28,3.04.06.13.15.28.29.27.1,0,.18-.11.24-.19.6-.78,1.7-1.04,2.67-.88.97.16,1.85.66,2.7,1.15l-.17-1.15c.62.91,2.35.52,2.52-.57.62.41,1.25.82,1.87,1.22.38-.74.76-1.48,1.15-2.23.36.43.73.86,1.09,1.3.14-.62.28-1.23.42-1.85,1.27.88,2.81,1.28,4.3,1.66.97.25,2.34.28,2.6-.69.03-.13.04-.27.12-.39.28-.45.95,0,1.25.43l1.9,2.75c.49.68.94,1.39,1.34,2.13,2.54,4.67,3.29,10.49,2.4,16.06h0Z"/>
      <g>
        <path class="st2" d="M423.07,248.57c-4.73-.09-10-2.17-14.57-4.58.2.54.38,1.1.52,1.66.7,1.05,1.58,1.97,2.6,2.7.02-.54.03-1.07.05-1.61,1.74,1.82.88,5.09,2.52,7.01.52.61,1.32,1.15,1.28,1.95.86-.83,1.71-1.67,2.55-2.52-.36,1.54.02,3.24,1,4.48.71-.26,1.06-.5,1.42-.75-.12.44-.18.9-.16,1.36.37-.41.66-.89.85-1.4.44.77.89,1.54,1.33,2.31.43-.71,1.17-1.54,1.93-1.19.92.42.49,1.88,1.01,2.75.54-.86,1.17-1.67,1.88-2.4.18.97.36,1.94.53,2.91.54-.78,1.09-1.56,1.63-2.35.09-.13.19-.27.34-.3.3-.07.5.28.61.56.28.75.56,1.51.84,2.26.41-.7.82-1.4,1.24-2.11.09-.15.2-.31.37-.31.18,0,.3.17.39.33.45.8.9,1.61,1.34,2.41,1.19-1.43,1.59-2.32,2-3.22l.48,1.34c1.22-.69,3,.1,3.31,1.46.33-1.22.67-2.43,1-3.65.71.86,1.25,1.86,1.58,2.93.26-.67.52-1.33.79-2,.52.78,1.04,1.56,1.55,2.35.47-2.66,4.15-3.03,6.15-4.85,1.61-1.47,1.98-4.12.83-5.98.89-.62,1.78-1.25,2.66-1.87-.77-2-.77-4.29-.02-6.3.51-1.35,1.34-2.55,2.09-3.79,1.28-2.12,2.33-4.38,3.13-6.73-9.83,18.72-31.41,17.21-37.06,17.11v.03Z"/>
        <path class="st1" d="M462.76,223.26c-.4-.74-.84-1.45-1.34-2.13l-1.9-2.75c-.3-.43-.97-.88-1.25-.43-.07.11-.08.26-.12.39-.26.97-1.63.93-2.6.69-1.5-.38-3.03-.78-4.3-1.66-.14.62-.28,1.23-.42,1.85-.36-.43-.73-.86-1.09-1.3-.38.74-.76,1.48-1.15,2.23-.62-.41-1.25-.82-1.87-1.22-.17,1.09-1.9,1.48-2.52.57l.17,1.15c-.85-.49-1.73-.99-2.7-1.15-.97-.16-2.07.1-2.67.88-.06.08-.14.18-.24.19-.14,0-.24-.14-.29-.27-.44-1-.87-2.02-1.28-3.04-.21,1.16-.41,2.31-.62,3.47.07-.51-.25-1.04-.73-1.22-.48-.18-1.07.02-1.35.46-.12.19-.2.43-.39.54-.76.44-1.14-1.52-1.99-1.31-.3.54-.6,1.07-.9,1.61-.23-.09-.46-.18-.7-.28,0,0-2.85.48-4.43.63.29-1.07.24-2.22-.14-3.26-.16,1.21-.65,2.38-1.4,3.34-.03-.57-.52-1.07-1.09-1.12-.72-.06-1.31.52-1.99.78-.67.26-1.73-.19-1.48-.86l-2.55,3.21c-.27-.43-.55-.87-.98-1.14s-1.05-.3-1.4.07c-.16.17-.24.39-.32.61-.29.81-.57,1.62-.86,2.43.22-.95-.39-2.02-1.58-1.57-1.16-.46-2.27-1.07-3.27-1.81-.16.79-.61,1.53-1.24,2.02-.08-.52-.15-1.03-.23-1.55-.56-.28-.91.61-1.35,1.05-.77.77-2.05.11-3.31-.03-.94-.15-1.88-.31-2.82-.46-.09.44-.36.84-.73,1.09-.3-.24-.74-1.71-.66-2.2l-.28,1.02c-.11.39-.55.62-.92.43-.23-.12-.51-.15-.76-.05-.57.23-.78.92-1.18,1.39s-1.42.48-1.41-.13c-.34.68-.98,1.2-1.72,1.39.4-.17.78.41.61.81s-.61.6-1.02.75c.33.03.66.05.99.08-.05.29-.23.55-.85.57.15.2.26.41.36.64.87.08,1.64-.07,2.16-.69,3.86,4.45,7.73,8.9,11.59,13.34-.27-.33-.24-.87.07-1.17.93,1.16,1.66,2.47,2.18,3.86,4.57,2.41,9.85,4.49,14.57,4.58,5.65.11,27.23,1.61,37.06-17.11.48-1.41.87-2.85,1.16-4.3l1.47-3.9h0Z"/>
      </g>
    </g>
    <path class="st1" d="M458.86,221.81c-7.74,2.44-16.15,1.05-24.2,2.14-3.71.5-7.33,1.53-11.03,2.14-3.57.59-7.19.78-10.81.87-5.3.13-10.61.05-15.9-.26,4.1,1.66,7.54,4.58,11.39,6.75,6.75,3.8,14.62,5.2,22.36,5.37,2.27.05,4.57,0,6.77-.57,1.47-.38,2.88-.98,4.25-1.64,6.77-3.29,12.7-8.29,17.16-14.81h.01Z"/>
    <line class="st1" x1="447.14" y1="194.2" x2="456.62" y2="200.32"/>
    <path class="st1" d="M415.36,192.92s5.54-35.52,3.36-39.57"/>
  </g>
</svg>