<?xml version="1.0" encoding="UTF-8"?>
<svg id="Layer_1" xmlns="http://www.w3.org/2000/svg" xmlns:xlink="http://www.w3.org/1999/xlink" version="1.1" viewBox="0 0 841.89 467.72">
  <!-- Generator: Adobe Illustrator 29.0.0, SVG Export Plug-In . SVG Version: 2.1.0 Build 186)  -->
  <defs>
    <style>
      .st0, .st1, .st2, .st3, .st4 {
        fill: none;
      }

      .st5 {
        fill: #322215;
      }

      .st6 {
        fill: #55565a;
      }

      .st1 {
        stroke: #0055a6;
      }

      .st1, .st2, .st3, .st4 {
        stroke-miterlimit: 10;
      }

      .st1, .st4 {
        stroke-width: .75px;
      }

      .st7 {
        fill: #fcd2c2;
      }

      .st8 {
        fill: #97999b;
      }

      .st9 {
        fill: #fff;
      }

      .st10 {
        fill: #bb3932;
      }

      .st11 {
        clip-path: url(#clippath);
      }

      .st2 {
        stroke-width: .68px;
      }

      .st2, .st3, .st4 {
        stroke: #55565a;
      }

      .st3 {
        stroke-width: .67px;
      }

      .st12 {
        fill: #543e30;
      }
    </style>
    <clipPath id="clippath">
      <rect class="st0" width="841.89" height="467.72"/>
    </clipPath>
  </defs>
  <g class="st11">
    <rect class="st10" width="841.89" height="467.72"/>
    <g>
      <g>
        <path class="st9" d="M332.43,196.82c.92-1.44,1.75-2.89,2.44-4.4-.89,1.43-1.69,2.9-2.44,4.4Z"/>
        <path class="st9" d="M513.24,209.75c2.6-10.18,7.23-20.16,5.99-30.51-.74-6.16-3.54-11.95-4.08-18.12.81.69,1.62,1.38,2.43,2.07-.18-4.48-2-8.87-5.25-12.43,1.22.06,2.13-1.27,2.14-2.5.01-1.22-.58-2.36-1.05-3.49-.5-1.21-.52-3.08.76-3.3-1.45-3.4-3.34-6.62-5.6-9.55,1.06-.63,2.12-1.26,3.18-1.9-1.71-.77-3.57-1.21-5.45-1.29.64-3.31,3.49-5.73,4.8-8.83,1.35-3.19.9-7.08-1.16-9.88-1.7,3.12-4.59,5.57-7.95,6.74l.65-2.1c-.03-8.51-.72-17.02-2.06-25.42-.96.98-1.92,1.96-2.88,2.94,1.85-8.98-4.34-18.85-13.22-21.1,1.74-2.18.31-5.43-1.5-7.56-4.3-5.05-10.72-8.24-17.76-7.92-4.69-5.86-12.04-9.5-19.55-9.67-.8-.02-1.61,0-2.39-.18-.83-.2-1.59-.62-2.34-1.03-3.47-1.87-7.14-3.48-11.04-4.02-3.9-.55-8.07.06-11.31,2.31-2.18-3.09-7.11-3.75-8.78-.98-8.05-3.08-17.2-3.2-25.33-.35-1.69.59-3.48,1.45-4.83,2.32-3.51,2.56-8.28-.05-12.57-.72-3.84-.6-7.73.48-11.44,1.66-5.05,1.6-10.04,3.41-14.95,5.4-2.03.83-4.19,1.81-5.27,3.72-.84,1.49-.95,3.44-2.27,4.53-.48.4-1.09.63-1.59,1.01-1.11.85-1.58,2.44-1.1,3.76.48,1.31,1.87,2.23,3.26,2.16-7.38.45-14.3,4.26-19.47,9.54-5.17,5.28-8.74,11.96-11.37,18.87.76-.11,1.56.41.97,2.08-4.52,4.69-6.73,11.51-5.83,17.96-1.75,2.16-3.43,4.37-5.04,6.64-1.24,1.75-2.48,3.99-1.52,5.91.43.85,1.27,1.57,1.26,2.52-.02,1-.96,1.69-1.74,2.32-3.98,3.24-5.33,9.3-3.1,13.92.7-5.74,1.78-12.14,6.44-15.56,1.13,4.5.43,9.44-1.91,13.44-1.05,1.8-2.42,3.42-3.31,5.3-.89,1.88-1.25,4.19-.23,6.01.84-2.8,2.08-5.48,3.66-7.93,1.32,4.12.86,8.78-1.23,12.57-1.1,1.99-2.63,3.76-3.4,5.91-1.19,3.32-.39,6.98.18,10.46,3.03,18.76-1.37,38.65,4.73,56.4l1.8,4.57c.13.33.26.66.39,1,1.06-1.76.87-4.41,2.67-5.41,1.47-.81,3.32.11,4.49,1.32s2.06,2.74,3.53,3.55c1.07.6,2.34.74,3.45,1.24,1.57.71,2.75,2.06,3.75,3.46,3.86,5.35,5.94,11.66,7.73,18.05.59,2.13,1.15,4.27,1.74,6.38,3.04,11.03,6.04,18.22,10.72,27.59-.01-.06-.03-.13-.04-.19-1.97-10.24-7.91-25.3-7.91-25.3,1.11-12.71.56-25.52,1.51-38.24.82-11.04.86-23.24,5.77-33.1-.61.95-1.24,1.89-1.92,2.83.41-4.22,1.41-8.39,2.95-12.34-1.31.85-2.61,1.7-3.92,2.55,4.84-14.69,3.31-30.92,8.36-45.54.79-2.27,3.74-4.51,5.07-6.51,2.52-3.77,6.42-6.59,11.68-7.84,4.36.6,8.77.83,13.17.7-.72-1.4-1.45-2.8-2.17-4.19,8.13,2.45,16.81,3.02,25.19,1.66-.65-.76-1.06-1.72-1.14-2.72,7.04.34,14.1.17,21.11-.52-1.58-1.67-2.91-3.57-3.93-5.63,5.46,1.8,10.91,2.6,16.37,4.41,3.37,1.11,7.34,2.15,10.23.09-.42-1.55-.85-2.09-1.27-3.64,2.63,2.48,13.27.47,15.42-.4,1.83-.74,3.87.43,5.83.62,8.37.79,16.95,1.63,24.48,5.39,7.03,3.5,12.77,10.51,15.74,17.21,4.49,5.68,5.53,13.25,7.43,20.24,1.31,4.84,3.11,9.56,4.02,14.5.87,4.71.91,9.52,1.15,14.3.82,15.93,3.97,31.65,7.1,47.29.18-5.73-1.59-11.35-1.78-17.08-.14-4.21.58-8.34,1.63-12.45Z"/>
        <path class="st9" d="M516.76,252.68c-.07-6.12.54-12.24.47-18.36-.09-8.33-1.45-16.64-3.99-24.57-1.05,4.11-1.77,8.24-1.63,12.45.19,5.73,1.96,11.35,1.78,17.08-3.13-15.65-6.27-31.36-7.1-47.29-.25-4.78-.29-9.59-1.15-14.3-.91-4.94-2.7-9.66-4.02-14.5-1.9-6.99-2.93-14.56-7.43-20.24-2.97-6.71-8.71-13.71-15.74-17.21-7.52-3.75-16.11-4.6-24.48-5.39-1.96-.18-4.01-1.36-5.83-.62-2.15.87-12.79,2.88-15.42.4.42,1.55.85,2.09,1.27,3.64-2.89,2.06-6.86,1.02-10.23-.09-5.46-1.8-10.91-2.6-16.37-4.41,1.02,2.06,2.34,3.97,3.93,5.63-7.01.69-14.08.86-21.11.52.08,1,.48,1.96,1.14,2.72-8.38,1.36-17.06.79-25.19-1.66.72,1.4,1.45,2.8,2.17,4.19-4.4.13-8.81-.1-13.17-.7-5.25,1.25-9.16,4.07-11.68,7.84-1.34,2-4.29,4.23-5.07,6.51-5.05,14.62-3.52,30.85-8.36,45.54,1.31-.85,2.61-1.7,3.92-2.55-1.54,3.95-2.54,8.12-2.95,12.34.68-.94,1.31-1.88,1.92-2.83.75-1.5,1.56-2.97,2.44-4.4-.69,1.51-1.52,2.97-2.44,4.4-4.91,9.86-4.95,22.06-5.77,33.1-.94,12.72-.4,25.53-1.51,38.24,0,0,5.94,15.05,7.91,25.3.22.59-7.64-16.37-10.68-27.4-.58-2.11-1.14-4.25-1.74-6.38-1.78-6.4-3.87-12.71-7.73-18.05-1.01-1.4-2.18-2.75-3.75-3.46-1.12-.5-2.38-.65-3.45-1.24-1.47-.82-2.36-2.35-3.53-3.55s-3.02-2.13-4.49-1.32c-1.8.99-1.61,3.64-2.67,5.41-.13-.33-.26-.66-.39-1-.1,1.76-.2,3.53-.41,5.28-.46,3.83-1.51,7.62-1.36,11.47.25,6.87,4.19,13.02,5.7,19.73.77,3.44.9,7,1.71,10.43,2.02,8.59,8.1,15.66,14.76,21.45,1.18,1.02,2.4,2.03,3.84,2.63,1.21.5,2.53.68,3.83.76,3.33.19,9.22-.96,13.54-2.43.3,1.51.56,3.04.78,4.59.24,1.69.46,3.41.66,5.13.77,6.6,1.4,13.37,3.22,19.91.45,1.62.92,3.23,1.41,4.84,3.44,11.2,8.1,22.15,15.82,30.89,5.81,6.08,13.14,10.53,20.4,14.94,5.2,3.16,10.4,6.32,15.64,9.4,3.85,2.27,7.76,4.5,11.95,6.05,5.67,2.09,11.74,2.86,17.77,3.23,16.8,1.05,33.79-.86,49.93-5.62,4.88-.95,9.72-3.46,13.52-7.16.04-.04.07-.07.11-.11,1.56-1.53,2.91-3.24,4.16-5.04,1.25-1.81,2.38-3.7,3.47-5.61.26-.44.5-.89.76-1.34,10.61-18.7,18.83-39.3,19.25-60.77.14-7.27-.61-14.57.03-21.82.54-6.05,2.05-11.99,2.52-18.04.7-8.84-.81-17.69-.91-26.56Z"/>
        <path class="st9" d="M312.38,426.5c-27.35,12.03-53.76,26.19-78.92,42.29h97.77c-.32-.45-.63-.9-.94-1.36-4.61-6.87-7.92-14.52-12.25-21.56-3.15-5.13-7.01-10.54-6.32-16.52.11-.98.35-1.93.66-2.86Z"/>
        <path class="st9" d="M509.71,468.79h128.42c-36.49-23.88-78.68-37.39-120.27-50.6-3.16-1-6.33-2.01-9.53-2.96,2.62,17.71,3.07,35.74,1.37,53.56Z"/>
        <path class="st9" d="M330.29,467.44c.31.46.62.91.94,1.36h62.74c-5.8-3.49-11.04-7.74-15.32-13.07-3.02-3.77-5.48-7.96-8.45-11.77-5.78-7.43-13.49-13.47-18.77-21.13-1.13-1.64-2.16-3.35-3.02-5.17-3.9-8.18-4.22-17.55-4.33-26.62-.07-6.37-.08-12.77-.16-19.17-1.67.46-3.26,1.34-4.55,2.47-2.85,2.49-4.58,5.98-6.25,9.38-6.24,12.72-12.49,25.45-18.73,38.17-.74,1.5-1.48,3.03-2.01,4.61-.31.93-.54,1.88-.66,2.86-.69,5.98,3.16,11.39,6.32,16.52,4.33,7.04,7.64,14.7,12.25,21.56Z"/>
        <path class="st9" d="M497.82,446.86c-4.43,8.06-9.87,15.65-16.55,21.93h28.44c1.7-17.82,1.24-35.85-1.37-53.56-.8-5.4-1.78-10.77-2.98-16.1-1.6-7.11-3.96-14.71-9.49-19.26-.25.45-.5.9-.76,1.34-1.1,1.9-2.23,3.8-3.47,5.61.08.23.15.45.23.68,2.78,8.32,5.22,16.74,7.37,25.24.54,2.14,1.08,4.29,1.58,6.44,1.27,5.48,2.42,11.17,1.39,16.71-.72,3.89-2.48,7.51-4.38,10.97Z"/>
        <path class="st9" d="M344.07,391.05c.11,9.06.43,18.44,4.33,26.62.87,1.82,1.89,3.53,3.02,5.17,5.29,7.66,12.99,13.69,18.77,21.13,2.97,3.81,5.42,8,8.45,11.77,4.28,5.33,9.52,9.58,15.32,13.07h87.3c6.68-6.29,12.12-13.88,16.55-21.93,1.91-3.47,3.67-7.08,4.38-10.97,1.02-5.54-.12-11.22-1.39-16.71-.5-2.15-1.03-4.3-1.58-6.44-2.14-8.5-4.59-16.93-7.37-25.24-.08-.22-.15-.45-.23-.68-1.24,1.8-2.6,3.51-4.16,5.04-.04.04-.07.07-.11.11-3.8,3.71-8.64,6.21-13.52,7.16-16.15,4.76-33.13,6.67-49.93,5.62-6.03-.38-12.1-1.15-17.77-3.23-4.2-1.54-8.1-3.78-11.95-6.05-5.24-3.08-10.45-6.24-15.64-9.4-7.27-4.41-14.59-8.87-20.4-14.94-7.72-8.74-12.38-19.69-15.82-30.89,1.13,10.44,1.46,21.04,1.58,31.63.08,6.4.08,12.81.16,19.17Z"/>
      </g>
      <g>
        <path class="st1" d="M332.43,200.52c.92-1.44,1.75-2.89,2.44-4.4-.89,1.43-1.69,2.9-2.44,4.4Z"/>
        <path class="st7" d="M514.55,255.65c-.07-6.12.54-12.24.47-18.36-.09-8.33-1.45-16.64-3.99-24.57-1.05,4.11-1.77,8.24-1.63,12.45.19,5.73,1.96,11.35,1.78,17.08-3.13-15.65-6.27-31.36-7.1-47.29-.25-4.78-.29-9.59-1.15-14.3-.91-4.94-2.7-9.66-4.02-14.5-1.9-6.99-2.93-14.56-7.43-20.24-2.97-6.71-8.71-13.71-15.74-17.21-7.52-3.75-16.11-4.6-24.48-5.39-1.96-.18-4.01-1.36-5.83-.62-2.15.87-12.79,2.88-15.42.4.42,1.55.85,2.09,1.27,3.64-2.89,2.06-6.86,1.02-10.23-.09-5.46-1.8-10.91-2.6-16.37-4.41,1.02,2.06,2.34,3.97,3.93,5.63-7.01.69-14.08.86-21.11.52.08,1,.48,1.96,1.14,2.72-8.38,1.36-17.06.79-25.19-1.66.72,1.4,1.45,2.8,2.17,4.19-4.4.13-8.81-.1-13.17-.7-5.25,1.25-9.16,4.07-11.68,7.84-1.34,2-4.29,4.23-5.07,6.51-5.05,14.62-3.52,30.85-8.36,45.54,1.31-.85,2.61-1.7,3.92-2.55-1.54,3.95-2.54,8.12-2.95,12.34.68-.94,1.31-1.88,1.92-2.83.75-1.5,1.56-2.97,2.44-4.4-.69,1.51-1.52,2.97-2.44,4.4-4.91,9.86-4.95,22.06-5.77,33.1-.94,12.72-.4,25.53-1.51,38.24,0,0,5.94,15.05,7.91,25.3.22.59-7.64-16.37-10.68-27.4-.58-2.11-1.14-4.25-1.74-6.38-1.78-6.4-3.87-12.71-7.73-18.05-1.01-1.4-2.18-2.75-3.75-3.46-1.12-.5-2.38-.65-3.45-1.24-1.47-.82-2.36-2.35-3.53-3.55s-3.02-2.13-4.49-1.32c-1.8.99-3.26,7.94-3.47,9.69-.46,3.83-1.51,7.62-1.36,11.47.25,6.87,4.19,13.02,5.7,19.73.77,3.44.9,7,1.71,10.43,2.02,8.59,8.1,15.66,14.76,21.45,1.18,1.02,2.4,2.03,3.84,2.63,1.21.5,2.53.68,3.83.76,3.33.19,9.22-.96,13.54-2.43.3,1.51.56,3.04.78,4.59.24,1.69.46,3.41.66,5.13.77,6.6,1.4,13.37,3.22,19.91.45,1.62.92,3.23,1.41,4.84,3.44,11.2,8.1,22.15,15.82,30.89,5.81,6.08,13.14,10.53,20.4,14.94,5.2,3.16,10.4,6.32,15.64,9.4,3.85,2.27,7.76,4.5,11.95,6.05,5.67,2.09,11.74,2.86,17.77,3.23,16.8,1.05,33.79-.86,49.93-5.62,4.88-.95,9.72-3.46,13.52-7.16.04-.04.07-.07.11-.11,1.56-1.53,2.91-3.24,4.16-5.04,1.25-1.81,2.38-3.7,3.47-5.61.26-.44.5-.89.76-1.34,10.61-18.7,18.83-39.3,19.25-60.77.14-7.27-.61-14.57.03-21.82.54-6.05,2.05-11.99,2.52-18.04.7-8.84-.81-17.69-.91-26.56Z"/>
        <path class="st8" d="M312.38,430.2c-27.35,12.03-53.76,26.19-78.92,42.29h97.77c-.32-.45-.63-.9-.94-1.36-4.61-6.87-7.92-14.52-12.25-21.56-3.15-5.13-7.01-10.54-6.32-16.52.11-.98.35-1.93.66-2.86Z"/>
        <path class="st8" d="M509.71,472.5h128.42c-36.49-23.88-78.68-37.39-120.27-50.6-3.16-1-6.33-2.01-9.53-2.96,2.62,17.71,3.07,35.74,1.37,53.56Z"/>
        <path class="st8" d="M330.29,471.14c.31.46.62.91.94,1.36h62.74c-5.8-3.49-11.04-7.74-15.32-13.07-3.02-3.77-5.48-7.96-8.45-11.77-5.78-7.43-13.49-13.47-18.77-21.13-1.13-1.64-2.16-3.35-3.02-5.17-3.9-8.18-4.22-17.55-4.33-26.62-.07-6.37-.08-12.77-.16-19.17-1.67.46-3.26,1.34-4.55,2.47-2.85,2.49-4.58,5.98-6.25,9.38-6.24,12.72-12.49,25.45-18.73,38.17-.74,1.5-1.48,3.03-2.01,4.61-.31.93-.54,1.88-.66,2.86-.69,5.98,3.16,11.39,6.32,16.52,4.33,7.04,7.64,14.7,12.25,21.56Z"/>
        <path class="st7" d="M344.07,391.05c.11,9.06.43,18.44,4.33,26.62.87,1.82,1.89,3.53,3.02,5.17,5.29,7.66,12.99,13.69,18.77,21.13,2.97,3.81,5.42,8,8.45,11.77,4.28,5.33,9.52,9.58,15.32,13.07h87.3c6.68-6.29,12.12-13.88,16.55-21.93,1.91-3.47,3.67-7.08,4.38-10.97,1.02-5.54-.12-11.22-1.39-16.71-.5-2.15-1.03-4.3-1.58-6.44-2.14-8.5-4.59-16.93-7.37-25.24-.08-.22-.15-.45-.23-.68-1.24,1.8-2.6,3.51-4.16,5.04-.04.04-.07.07-.11.11-3.8,3.71-8.64,6.21-13.52,7.16-16.15,4.76-33.13,6.67-49.93,5.62-6.03-.38-12.1-1.15-17.77-3.23-4.2-1.54-8.1-3.78-11.95-6.05-5.24-3.08-10.45-6.24-15.64-9.4-7.27-4.41-14.59-8.87-20.4-14.94-7.72-8.74-12.38-19.69-15.82-30.89,1.13,10.44,1.46,21.04,1.58,31.63.08,6.4.08,12.81.16,19.17Z"/>
        <path class="st8" d="M497.82,450.56c-4.43,8.06-9.87,15.65-16.55,21.93h28.44c1.7-17.82,1.24-35.85-1.37-53.56-.8-5.4-1.78-10.77-2.98-16.1-1.6-7.11-3.96-14.71-9.49-19.26-.25.45-.5.9-.76,1.34-1.1,1.9-2.23,3.8-3.47,5.61.08.23.15.45.23.68,2.78,8.32,5.22,16.74,7.37,25.24.54,2.14,1.08,4.29,1.58,6.44,1.27,5.48,2.42,11.17,1.39,16.71-.72,3.89-2.48,7.51-4.38,10.97Z"/>
        <path class="st12" d="M513.24,209.75c2.6-10.18,7.23-20.16,5.99-30.51-.74-6.16-3.54-11.95-4.08-18.12.81.69,1.62,1.38,2.43,2.07-.18-4.48-2-8.87-5.25-12.43,1.22.06,2.13-1.27,2.14-2.5.01-1.22-.58-2.36-1.05-3.49-.5-1.21-.52-3.08.76-3.3-1.45-3.4-3.34-6.62-5.6-9.55,1.06-.63,2.12-1.26,3.18-1.9-1.71-.77-3.57-1.21-5.45-1.29.64-3.31,3.49-5.73,4.8-8.83,1.35-3.19.9-7.08-1.16-9.88-1.7,3.12-4.59,5.57-7.95,6.74l.65-2.1c-.03-8.51-.72-17.02-2.06-25.42-.96.98-1.92,1.96-2.88,2.94,1.85-8.98-4.34-18.85-13.22-21.1,1.74-2.18.31-5.43-1.5-7.56-4.3-5.05-10.72-8.24-17.76-7.92-4.69-5.86-12.04-9.5-19.55-9.67-.8-.02-1.61,0-2.39-.18-.83-.2-1.59-.62-2.34-1.03-3.47-1.87-7.14-3.48-11.04-4.02-3.9-.55-8.07.06-11.31,2.31-2.18-3.09-7.11-3.75-8.78-.98-8.05-3.08-17.2-3.2-25.33-.35-1.69.59-3.48,1.45-4.83,2.32-3.51,2.56-8.28-.05-12.57-.72-3.84-.6-7.73.48-11.44,1.66-5.05,1.6-10.04,3.41-14.95,5.4-2.03.83-4.19,1.81-5.27,3.72-.84,1.49-.95,3.44-2.27,4.53-.48.4-1.09.63-1.59,1.01-1.11.85-1.58,2.44-1.1,3.76.48,1.31,1.87,2.23,3.26,2.16-7.38.45-14.3,4.26-19.47,9.54-5.17,5.28-8.74,11.96-11.37,18.87.76-.11,1.56.41.97,2.08-4.52,4.69-6.73,11.51-5.83,17.96-1.75,2.16-3.43,4.37-5.04,6.64-1.24,1.75-2.48,3.99-1.52,5.91.43.85,1.27,1.57,1.26,2.52-.02,1-.96,1.69-1.74,2.32-3.98,3.24-5.33,9.3-3.1,13.92.7-5.74,1.78-12.14,6.44-15.56,1.13,4.5.43,9.44-1.91,13.44-1.05,1.8-2.42,3.42-3.31,5.3-.89,1.88-1.25,4.19-.23,6.01.84-2.8,2.08-5.48,3.66-7.93,1.32,4.12.86,8.78-1.23,12.57-1.1,1.99-2.63,3.76-3.4,5.91-1.19,3.32-.39,6.98.18,10.46,3.03,18.76-1.37,38.65,4.73,56.4l1.8,4.57c.13.33.26.66.39,1,1.06-1.76.87-4.41,2.67-5.41,1.47-.81,3.32.11,4.49,1.32s2.06,2.74,3.53,3.55c1.07.6,2.34.74,3.45,1.24,1.57.71,2.75,2.06,3.75,3.46,3.86,5.35,5.11,10.66,8.48,16.88,1.05,1.94.78,6.11,1.37,8.22,3.04,11.03,5.66,17.56,10.33,26.93-.01-.06-.03-.13-.04-.19-1.97-10.24-7.91-25.3-7.91-25.3,1.11-12.71.56-25.52,1.51-38.24.82-11.04.86-23.24,5.77-33.1-.61.95-1.24,1.89-1.92,2.83.41-4.22,1.41-8.39,2.95-12.34-1.31.85-2.61,1.7-3.92,2.55,4.84-14.69,3.31-30.92,8.36-45.54.79-2.27,3.74-4.51,5.07-6.51,2.52-3.77,6.42-6.59,11.68-7.84,4.36.6,8.77.83,13.17.7-.72-1.4-1.45-2.8-2.17-4.19,8.13,2.45,16.81,3.02,25.19,1.66-.65-.76-1.06-1.72-1.14-2.72,7.04.34,14.1.17,21.11-.52-1.58-1.67-2.91-3.57-3.93-5.63,5.46,1.8,10.91,2.6,16.37,4.41,3.37,1.11,7.34,2.15,10.23.09-.42-1.55-.85-2.09-1.27-3.64,2.63,2.48,13.27.47,15.42-.4,1.83-.74,3.87.43,5.83.62,8.37.79,16.95,1.63,24.48,5.39,7.03,3.5,12.77,10.51,15.74,17.21,4.49,5.68,5.53,13.25,7.43,20.24,1.31,4.84,3.11,9.56,4.02,14.5.87,4.71.91,9.52,1.15,14.3.82,15.93,3.97,31.65,7.1,47.29.18-5.73-1.59-11.35-1.78-17.08-.14-4.21.58-8.34,1.63-12.45Z"/>
      </g>
      <path class="st4" d="M313.64,258.09c-2.96-5.49-6.24-10.81-9.83-15.91-1.35-1.92-2.83-3.89-4.95-4.91-.36-.18-.79-.32-1.16-.15-.27.12-.44.38-.58.64-1.13,2.06-1.07,4.53-.98,6.87.1,2.84.21,5.68.31,8.52.13,3.43.3,7.05,2.14,9.96,1.12,1.78,2.78,3.14,4.09,4.78,2.42,3.03,3.58,7.04,3.16,10.9"/>
      <path class="st4" d="M317.66,269.47c-.53-2.83-1.18-5.87-3.34-7.77-.43-.38-.92-.7-1.49-.8-1.52-.27-2.85,1.3-3.01,2.84s.46,3.03.91,4.51c.74,2.43,1.03,5,.84,7.53-.2,2.83-.97,5.82.17,8.42.2.47.5.94.97,1.14.38.16.81.12,1.22.08,2.12-.23,4.72-.87,5.17-2.95-.14,1.84.16,3.72.87,5.42.31.73.79,1.51,1.56,1.67.88.18,1.7-.51,2.17-1.27,1.36-2.21.92-5.12-.2-7.46-1.12-2.34-4.45-3.85-5.87-11.36Z"/>
      <path class="st4" d="M463.36,278.46c1.54,2.58,3.81,4.64,5.54,7.09s2.94,5.61,1.94,8.44c-1.11,3.12-4.42,4.76-6.83,7.04-2.72,2.58-4.37,6.13-7.1,8.71-.81.77-1.74,1.45-2.82,1.73-2.32.6-4.71-.78-7.11-.7"/>
      <path class="st4" d="M439.33,307.35c-4.78-2.07-9.85-3.46-15.02-4.11-1.81-.23-3.72-.4-5.21-1.45s-2.27-3.35-1.08-4.73"/>
      <path class="st4" d="M456.86,291.7c-2.76-10.48-5.08-21.13-5.72-31.95-.28-4.81-.24-9.65-1.07-14.39-1.21-6.92-4.25-13.41-5.74-20.28"/>
      <path class="st4" d="M485.64,327.4c-9.58,2.77-19.17,5.54-28.75,8.31-2.37.68-4.75,1.37-7.2,1.68-1.99.25-4.01.25-6.02.24-14.1-.08-28.2-.73-42.26-1.95"/>
      <path class="st4" d="M460.2,350.83c-7.24,3.2-15.63,3.72-23.22,1.47"/>
      <path class="st5" d="M439.85,357.12c-.68,2.31-1.35,4.62-2.03,6.93.89-1.51,2.57-2.53,4.32-2.62-.62,1.9-.85,3.93-.66,5.92,1-.85,2.01-1.71,3.01-2.56-.14,2.18-.27,4.36-.41,6.54.51-2.02,1.41-3.94,2.63-5.64.33-.46.72-.94,1.27-1.1.49-.15,1.01-.03,1.5.12,1.62.51,3.1,1.42,4.29,2.63-.24-.97-.38-1.97-.41-2.97-.01-.41.08-.94.48-1.02.21-.04.43.07.62.18,1.46.83,2.92,1.67,4.38,2.5.06-1.52-.11-3.05-.52-4.52,2.24.48,4.55.68,6.84.59.09-.37-.2-.71-.47-.99-1.38-1.42-2.77-2.85-4.15-4.27,1.93-.5,3.99-.47,5.9.07-.7-1.09-1.48-2.25-2.7-2.69-.74-.27-1.56-.23-2.35-.19-5.54.32-11.07.83-16.58,1.54-2.15.27-4.6.48-6.2-.98.7.88,1.39,1.96,1.23,2.52Z"/>
      <g>
        <path class="st4" d="M332.43,196.82c.92-1.44,1.75-2.89,2.44-4.4-.89,1.43-1.69,2.9-2.44,4.4Z"/>
        <path class="st4" d="M333.11,293.65c-.01-.06-.03-.13-.04-.19-1.97-10.24-7.91-25.3-7.91-25.3,1.11-12.71.56-25.52,1.51-38.24.82-11.04.86-23.24,5.77-33.1-.61.95-1.24,1.89-1.92,2.83.41-4.22,1.41-8.39,2.95-12.34-1.31.85-2.61,1.7-3.92,2.55,4.84-14.69,3.31-30.92,8.36-45.54.79-2.27,3.74-4.51,5.07-6.51,2.52-3.77,6.42-6.59,11.68-7.84,4.36.6,8.77.83,13.17.7-.72-1.4-1.45-2.8-2.17-4.19,8.13,2.45,16.81,3.02,25.19,1.66-.65-.76-1.06-1.72-1.14-2.72,7.04.34,14.1.17,21.11-.52-1.58-1.67-2.91-3.57-3.93-5.63,5.46,1.8,10.91,2.6,16.37,4.41,3.37,1.11,7.34,2.15,10.23.09-.42-1.55-.85-2.09-1.27-3.64,2.63,2.48,13.27.47,15.42-.4,1.83-.74,3.87.43,5.83.62,8.37.79,16.95,1.63,24.48,5.39,7.03,3.5,12.77,10.51,15.74,17.21,4.49,5.68,5.53,13.25,7.43,20.24,1.31,4.84,3.11,9.56,4.02,14.5.87,4.71.91,9.52,1.15,14.3.82,15.93,3.97,31.65,7.1,47.29.18-5.73-1.59-11.35-1.78-17.08-.14-4.21.58-8.34,1.63-12.45,2.6-10.18,7.23-20.16,5.99-30.51-.74-6.16-3.54-11.95-4.08-18.12.81.69,1.62,1.38,2.43,2.07-.18-4.48-2-8.87-5.25-12.43,1.22.06,2.13-1.27,2.14-2.5.01-1.22-.58-2.36-1.05-3.49-.5-1.21-.52-3.08.76-3.3-1.45-3.4-3.34-6.62-5.6-9.55,1.06-.63,2.12-1.26,3.18-1.9-1.71-.77-3.57-1.21-5.45-1.29.64-3.31,3.49-5.73,4.8-8.83,1.35-3.19.9-7.08-1.16-9.88-1.7,3.12-4.59,5.57-7.95,6.74l.65-2.1c-.03-8.51-.72-17.02-2.06-25.42-.96.98-1.92,1.96-2.88,2.94,1.85-8.98-4.34-18.85-13.22-21.1,1.74-2.18.31-5.43-1.5-7.56-4.3-5.05-10.72-8.24-17.76-7.92-4.69-5.86-12.04-9.5-19.55-9.67-.8-.02-1.61,0-2.39-.18-.83-.2-1.59-.62-2.34-1.03-3.47-1.87-7.14-3.48-11.04-4.02-3.9-.55-8.07.06-11.31,2.31-2.18-3.09-7.11-3.75-8.78-.98-8.05-3.08-17.2-3.2-25.33-.35-1.69.59-3.48,1.45-4.83,2.32-3.51,2.56-8.28-.05-12.57-.72-3.84-.6-7.73.48-11.44,1.66-5.05,1.6-10.04,3.41-14.95,5.4-2.03.83-4.19,1.81-5.27,3.72-.84,1.49-.95,3.44-2.27,4.53-.48.4-1.09.63-1.59,1.01-1.11.85-1.58,2.44-1.1,3.76.48,1.31,1.87,2.23,3.26,2.16-7.38.45-14.3,4.26-19.47,9.54-5.17,5.28-8.74,11.96-11.37,18.87.76-.11,1.56.41.97,2.08-4.52,4.69-6.73,11.51-5.83,17.96-1.75,2.16-3.43,4.37-5.04,6.64-1.24,1.75-2.48,3.99-1.52,5.91.43.85,1.27,1.57,1.26,2.52-.02,1-.96,1.69-1.74,2.32-3.98,3.24-5.33,9.3-3.1,13.92.7-5.74,1.78-12.14,6.44-15.56,1.13,4.5.43,9.44-1.91,13.44-1.05,1.8-2.42,3.42-3.31,5.3-.89,1.88-1.25,4.19-.23,6.01.84-2.8,2.08-5.48,3.66-7.93,1.32,4.12.86,8.78-1.23,12.57-1.1,1.99-2.63,3.76-3.4,5.91-1.19,3.32-.39,6.98.18,10.46,3.03,18.76-1.37,38.65,4.73,56.4l1.8,4.57c.13.33.26.66.39,1,1.06-1.76.87-4.41,2.67-5.41,1.47-.81,3.32.11,4.49,1.32s2.06,2.74,3.53,3.55c1.07.6,2.34.74,3.45,1.24,1.57.71,2.75,2.06,3.75,3.46"/>
        <path class="st4" d="M312.93,241.62c-1.01-1.4-2.18-2.75-3.75-3.46-1.12-.5-2.38-.65-3.45-1.24-1.47-.82-2.36-2.35-3.53-3.55s-3.02-2.13-4.49-1.32c-1.8.99-1.61,3.64-2.67,5.41-.13-.33-.26-.66-.39-1-.1,1.76-.2,3.53-.41,5.28-.46,3.83-1.51,7.62-1.36,11.47.25,6.87,4.19,13.02,5.7,19.73.77,3.44.9,7,1.71,10.43,2.02,8.59,8.1,15.66,14.76,21.45,1.18,1.02,2.4,2.03,3.84,2.63,1.21.5,2.53.68,3.83.76,3.33.19,9.22-.96,13.54-2.43.3,1.51.56,3.04.78,4.59.24,1.69.46,3.41.66,5.13.77,6.6,1.4,13.37,3.22,19.91.45,1.62.92,3.23,1.41,4.84"/>
        <path class="st4" d="M491.64,386.82c1.25-1.81,2.38-3.7,3.47-5.61.26-.44.5-.89.76-1.34,10.61-18.7,18.83-39.3,19.25-60.77.14-7.27-.61-14.57.03-21.82.54-6.05,2.05-11.99,2.52-18.04.7-8.84-.81-17.69-.91-26.56-.07-6.12.54-12.24.47-18.36-.09-8.33-1.45-16.64-3.99-24.57-1.05,4.11-1.77,8.24-1.63,12.45.19,5.73,1.96,11.35,1.78,17.08-3.13-15.65-6.27-31.36-7.1-47.29-.25-4.78-.29-9.59-1.15-14.3-.91-4.94-2.7-9.66-4.02-14.5-1.9-6.99-2.93-14.56-7.43-20.24-2.97-6.71-8.71-13.71-15.74-17.21-7.52-3.75-16.11-4.6-24.48-5.39-1.96-.18-4.01-1.36-5.83-.62-2.15.87-12.79,2.88-15.42.4.42,1.55.85,2.09,1.27,3.64-2.89,2.06-6.86,1.02-10.23-.09-5.46-1.8-10.91-2.6-16.37-4.41,1.02,2.06,2.34,3.97,3.93,5.63-7.01.69-14.08.86-21.11.52.08,1,.48,1.96,1.14,2.72-8.38,1.36-17.06.79-25.19-1.66.72,1.4,1.45,2.8,2.17,4.19-4.4.13-8.81-.1-13.17-.7-5.25,1.25-9.16,4.07-11.68,7.84-1.34,2-4.29,4.23-5.07,6.51-5.05,14.62-3.52,30.85-8.36,45.54,1.31-.85,2.61-1.7,3.92-2.55-1.54,3.95-2.54,8.12-2.95,12.34.68-.94,1.31-1.88,1.92-2.83.75-1.5,1.56-2.97,2.44-4.4-.69,1.51-1.52,2.97-2.44,4.4-4.91,9.86-4.95,22.06-5.77,33.1-.94,12.72-.4,25.53-1.51,38.24,0,0,5.94,15.05,7.91,25.3"/>
        <path class="st4" d="M378.56,386.08c5.2,3.16,10.4,6.32,15.64,9.4,3.85,2.27,7.76,4.5,11.95,6.05,5.67,2.09,11.74,2.86,17.77,3.23,16.8,1.05,33.79-.86,49.93-5.62"/>
        <path class="st4" d="M312.38,426.5c-27.35,12.03-53.76,26.19-78.92,42.29h97.77c-.32-.45-.63-.9-.94-1.36-4.61-6.87-7.92-14.52-12.25-21.56-3.15-5.13-7.01-10.54-6.32-16.52.11-.98.35-1.93.66-2.86Z"/>
        <path class="st4" d="M509.71,468.79h128.42c-36.49-23.88-78.68-37.39-120.27-50.6-3.16-1-6.33-2.01-9.53-2.96,2.62,17.71,3.07,35.74,1.37,53.56Z"/>
        <path class="st4" d="M330.29,467.44c.31.46.62.91.94,1.36h62.74c-5.8-3.49-11.04-7.74-15.32-13.07-3.02-3.77-5.48-7.96-8.45-11.77-5.78-7.43-13.49-13.47-18.77-21.13-1.13-1.64-2.16-3.35-3.02-5.17-3.9-8.18-4.22-17.55-4.33-26.62-.07-6.37-.08-12.77-.16-19.17-1.67.46-3.26,1.34-4.55,2.47-2.85,2.49-4.58,5.98-6.25,9.38-6.24,12.72-12.49,25.45-18.73,38.17-.74,1.5-1.48,3.03-2.01,4.61-.31.93-.54,1.88-.66,2.86-.69,5.98,3.16,11.39,6.32,16.52,4.33,7.04,7.64,14.7,12.25,21.56Z"/>
        <path class="st4" d="M497.82,446.86c-4.43,8.06-9.87,15.65-16.55,21.93h28.44c1.7-17.82,1.24-35.85-1.37-53.56-.8-5.4-1.78-10.77-2.98-16.1-1.6-7.11-3.96-14.71-9.49-19.26-.25.45-.5.9-.76,1.34-1.1,1.9-2.23,3.8-3.47,5.61.08.23.15.45.23.68,2.78,8.32,5.22,16.74,7.37,25.24.54,2.14,1.08,4.29,1.58,6.44,1.27,5.48,2.42,11.17,1.39,16.71-.72,3.89-2.48,7.51-4.38,10.97Z"/>
        <path class="st4" d="M473.86,399.13c-16.15,4.76-33.13,6.67-49.93,5.62-6.03-.38-12.1-1.15-17.77-3.23-4.2-1.54-8.1-3.78-11.95-6.05-5.24-3.08-10.45-6.24-15.64-9.4"/>
        <path class="st4" d="M487.48,391.86s-.07.07-.11.11"/>
        <path class="st4" d="M342.33,340.25c1.13,10.44,1.46,21.04,1.58,31.63.08,6.4.08,12.81.16,19.17.11,9.06.43,18.44,4.33,26.62.87,1.82,1.89,3.53,3.02,5.17,5.29,7.66,12.99,13.69,18.77,21.13,2.97,3.81,5.42,8,8.45,11.77,4.28,5.33,9.52,9.58,15.32,13.07h87.3c6.68-6.29,12.12-13.88,16.55-21.93,1.91-3.47,3.67-7.08,4.38-10.97,1.02-5.54-.12-11.22-1.39-16.71-.5-2.15-1.03-4.3-1.58-6.44-2.14-8.5-4.59-16.93-7.37-25.24-.08-.22-.15-.45-.23-.68"/>
      </g>
      <path class="st4" d="M387.06,322.66l-1.37,9.04"/>
      <path class="st4" d="M494.07,306.71c.36,2.26.71,4.51,1.07,6.77"/>
      <path class="st4" d="M428.57,289.27c-.02-4.85-.05-9.69-.07-14.54"/>
      <circle class="st6" cx="383.1" cy="237.42" r="7.14"/>
      <circle class="st6" cx="477.26" cy="226.6" r="7.22"/>
      <path class="st4" d="M439.85,357.12c-.68,2.31-1.35,4.62-2.03,6.93.89-1.51,2.57-2.53,4.32-2.62-.62,1.9-.85,3.93-.66,5.92,1-.85,2.01-1.71,3.01-2.56-.14,2.18-.27,4.36-.41,6.54.51-2.02,1.41-3.94,2.63-5.64.33-.46.72-.94,1.27-1.1.49-.15,1.01-.03,1.5.12,1.62.51,3.1,1.42,4.29,2.63-.24-.97-.38-1.97-.41-2.97-.01-.41.08-.94.48-1.02.21-.04.43.07.62.18,1.46.83,2.92,1.67,4.38,2.5.06-1.52-.11-3.05-.52-4.52,2.24.48,4.55.68,6.84.59.09-.37-.2-.71-.47-.99-1.38-1.42-2.77-2.85-4.15-4.27,1.93-.5,3.99-.47,5.9.07-.7-1.09-1.48-2.25-2.7-2.69-.74-.27-1.56-.23-2.35-.19-5.54.32-11.07.83-16.58,1.54-2.15.27-4.6.48-6.2-.98.7.88,1.39,1.96,1.23,2.52Z"/>
      <path class="st3" d="M405.05,121.33c-.27-.44-5.91-7.31-11.45-17.69-7.42-13.91-16.82-32.81-33.51-38.29,0,0-16.86-5.83-17.48-9.57"/>
      <path class="st3" d="M411.09,120.28c-.21-.62-11.65-13.74-13.53-33.71s-6.66-32.88-14.15-38.5"/>
      <path class="st3" d="M415.67,119.45c-.62-1.46-23.52-63.89,14.57-77.63"/>
      <path class="st3" d="M432.32,117.16s-21.44-70.97,15.4-69.93"/>
      <path class="st2" d="M464.97,119.45s-11.29-58.27,18.96-53.48"/>
      <g>
        <path class="st12" d="M519.43,309.38c-.1-.78-1.56-16.8-1.76-17.19-.2-.39-1.46-4.88-1.46-4.88l-.98,21.09s-7.42,11.82-8.2,11.82-5.86.49-5.86.49l-7.81-11.42-11.33-4.49,4,3.61s-8.2-2.64-8.5-2.83c-.29-.2,4.1,4.98,4.1,4.98,0,0-12.89-6.84-14.65-7.62-1.76-.78,1.17,2.54,1.17,2.54l-4.49-1.07-.98,2.44-2.64-.68s-1.27,5.66-7.81,5.86-12.3-2.73-12.3-2.73l-8.5-1.46-2.54,1.76-6.84-2.83s-5.37,7.13-8.5,8.2c-3.12,1.07-4.49,1.46-8.2,2.44-3.71.98-6.15-.59-6.15-.59l-3.32,1.95-3.03-2.05s-3.42,2.34-5.27,6.64c-1.86,4.3-1.19,11.57-1.19,11.57,0,0,3,22.89,1.42,22.1-.68-.34-3.84-1.24-6-5.37-2.87-5.5-4.8-14.63-4.89-15.63-.16-1.74-.79,10.73-6.47,5.37-5.23-4.94-4.98-5.73-4.9-5.83l-4.57,5.2s-.95-1.74-.63-4.89-1.1,5.68-4.1,2.68-.16-8.37-3.79-11.52c-3.63-3.16-3.79-9.63-3.79-9.63,0,0-9.15-10.89-9.15-14.05s-8.52-15.78-9.63-21.31c-1.1-5.52-5.13-13.1-3.83-19.1,1.3-6-.23-31.25-.26-32.83-.02-1.58-15.33,1.1-15.33,1.1,0,0,5.37,11.05,6.79,15.78,1.42,4.74,4.42,11.52,4.42,11.52l2.05,12,2.05,4.1.28,5.89s7.25,20.37,9.67,31.76c2.42,11.39,8.29,39.01,13.12,44.19,4.83,5.18,10.7,15.54,12.77,16.92,2.07,1.38,19.33,17.26,20.72,17.61,1.38.35,19.68,8.63,19.68,8.63l17.61,7.6h7.25s3.77-1.75,4.75-1.56c.98.2,3.42,3.21,6.54,1.56,3.12-1.66,3.91-2.24,6.15-1.56,2.25.68,4.49-1.27,4.49-1.27l1.76.68,2.15-1.56s7.03,2.15,11.13-.2,4.2-1.46,4.2-1.46c0,0,2.34.39,2.83.39s3.22.98,4.1-1.27c.88-2.25,4.59-2.64,4.59-2.64l.98.59.68-3.03,1.95,1.66,1.56-4.69,2.25.88,1.17-4.39h1.56l1.17-2.93s3.71-3.91,3.71-5.18,3.22-2.83,3.22-2.83l3.71-7.81,6.54-9.28v-2.73s4.2-12.5,4.2-12.89,2.83-6.25,2.83-6.25c0,0,2.73-18.36,2.83-18.65.1-.29,1.56-10.64,1.46-11.42ZM484.91,329.86s2.37,8.21,2.84,8.68-3.63,3.47-3.63,3.47l2.84,4.26h-4.74s5.05,7.89,2.68,7.89-9.31,6.31-9.31,6.31l1.1,5.52.32,3.79-4.42,1.26-1.26,4.89s-2.53,2.21-8.05,2.37c-5.52.16-8.84,1.58-10.26,1.58s-10.58,1.26-12-.79-8.68,1.24-9.31,1.17c-.63-.07-6.47-1.8-6.47-1.8,0,0-7.73-.32-8.52-1.89-.79-1.58-4.58-7.1-4.58-7.1l2.82-4.58-6.61,2.37s-5.68-2.37-5.68-3.63.47-7.42.47-7.42l-5.37,2.05s-2.53-.47.63-4.58.79-6.31.79-7.89-1.89-4.1-1.89-4.1l-2.05,2.05,1.42-5.21,3.95-4.58,7.42.95,5.05-2.53h5.52l2.68-1.74h6.79l6.63-1.42h3.63l3.47-1.1h7.89l5.21-1.1h3.79l-1.58-2.21h9l3-1.26s3.79,1.42,9,0c5.21-1.42,10.42,2.21,10.42,2.21l-3.63,4.1Z"/>
        <path class="st12" d="M365.58,335.56h.01s0,0-.01,0Z"/>
        <path class="st12" d="M449.87,354.01c-4.1,0-12.94-.95-12.94-.95l-6.47,6.16,3.31,1.26,3.16,1.74-5.68,6.31,5.68-2.05v3s3.95-3,4.97-3.16,2.92,4.42,2.92,4.42l2.21-3.95,3.95,1.26s-2.21-3,0-3c1.17,0,2.79,1.02,4.05,1.98.6.45,1.42-.12,1.21-.84l-.53-1.78,6.16,2.68-2.27-3.06c-.23-.31.11-.71.45-.54l5.45,2.66-4.26-5.37,6.16,1.1-2.84-3,1.42-4.42,2.99.09,1.12-3.56-5.37-.79s-10.73,3.79-14.84,3.79Z"/>
      </g>
      <g>
        <path class="st4" d="M312.51,241.06c1.22.88,3.87,6.47,3.87,6.47,1.42,4.74,5.33,11,5.33,11l2.05,12,2.05,4.1.28,5.89s7.25,20.37,9.67,31.76c2.42,11.39,8.29,39.01,13.12,44.19,4.83,5.18,10.7,15.54,12.77,16.92,2.07,1.38,19.33,17.26,20.72,17.61,1.38.35,19.68,8.63,19.68,8.63l17.61,7.6h7.25s3.77-1.75,4.75-1.56c.98.2,3.42,3.21,6.54,1.56,3.12-1.66,3.91-2.24,6.15-1.56,2.25.68,4.49-1.27,4.49-1.27l1.76.68,2.15-1.56s7.03,2.15,11.13-.2,4.2-1.46,4.2-1.46c0,0,2.34.39,2.83.39s3.22.98,4.1-1.27c.88-2.25,4.59-2.64,4.59-2.64l.98.59.68-3.03,1.95,1.66,1.56-4.69,2.25.88,1.17-4.39h1.56l1.17-2.93s3.71-3.91,3.71-5.18,3.22-2.83,3.22-2.83l3.71-7.81,6.54-9.28v-2.73s4.2-12.5,4.2-12.89,2.83-6.25,2.83-6.25c0,0,2.73-18.36,2.83-18.65.1-.29,1.56-10.64,1.46-11.42-.1-.78-1.56-16.8-1.76-17.19-.2-.39-1.46-4.88-1.46-4.88l-.98,21.09s-7.42,11.82-8.2,11.82-5.86.49-5.86.49l-7.81-11.42-11.33-4.49,4,3.61s-8.2-2.64-8.5-2.83c-.29-.2,4.1,4.98,4.1,4.98,0,0-12.89-6.84-14.65-7.62-1.76-.78,1.17,2.54,1.17,2.54l-4.49-1.07-.98,2.44-2.64-.68s-1.27,5.66-7.81,5.86-12.3-2.73-12.3-2.73l-8.5-1.46-2.54,1.76-6.84-2.83s-5.37,7.13-8.5,8.2c-3.12,1.07-4.49,1.46-8.2,2.44-3.71.98-6.15-.59-6.15-.59l-3.32,1.95-3.03-2.05s-3.42,2.34-5.27,6.64c-1.86,4.3-1.19,11.57-1.19,11.57,0,0,3,22.89,1.42,22.1-.68-.34-3.84-1.24-6-5.37-2.87-5.5-4.8-14.63-4.89-15.63-.16-1.74-.79,10.73-6.47,5.37-5.23-4.94-4.98-5.73-4.9-5.83l-4.57,5.2s-.95-1.74-.63-4.89-1.1,5.68-4.1,2.68-.16-8.37-3.79-11.52c-3.63-3.16-3.79-9.63-3.79-9.63,0,0-9.15-10.89-9.15-14.05s-8.52-15.78-9.63-21.31c-1.1-5.52-5.13-13.1-3.83-19.1,1.3-6-.23-31.25-.26-32.83M484.91,329.86s2.37,8.21,2.84,8.68-3.63,3.47-3.63,3.47l2.84,4.26h-4.74s5.05,7.89,2.68,7.89-9.31,6.31-9.31,6.31l1.1,5.52.32,3.79-4.42,1.26-1.26,4.89s-2.53,2.21-8.05,2.37c-5.52.16-8.84,1.58-10.26,1.58s-10.58,1.26-12-.79-8.68,1.24-9.31,1.17c-.63-.07-6.47-1.8-6.47-1.8,0,0-7.73-.32-8.52-1.89-.79-1.58-4.58-7.1-4.58-7.1l2.82-4.58-6.61,2.37s-5.68-2.37-5.68-3.63.47-7.42.47-7.42l-5.37,2.05s-2.53-.47.63-4.58.79-6.31.79-7.89-1.89-4.1-1.89-4.1l-2.05,2.05,1.42-5.21,3.95-4.58,7.42.95,5.05-2.53h5.52l2.68-1.74h6.79l6.63-1.42h3.63l3.47-1.1h7.89l5.21-1.1h3.79l-1.58-2.21h9l3-1.26s3.79,1.42,9,0c5.21-1.42,10.42,2.21,10.42,2.21l-3.63,4.1Z"/>
        <path class="st4" d="M365.58,335.56h.01s0,0-.01,0Z"/>
        <path class="st4" d="M449.87,354.01c-4.1,0-12.94-.95-12.94-.95l-6.47,6.16,3.31,1.26,3.16,1.74-5.68,6.31,5.68-2.05v3s3.95-3,4.97-3.16,2.92,4.42,2.92,4.42l2.21-3.95,3.95,1.26s-2.21-3,0-3c1.17,0,2.79,1.02,4.05,1.98.6.45,1.42-.12,1.21-.84l-.53-1.78,6.16,2.68-2.27-3.06c-.23-.31.11-.71.45-.54l5.45,2.66-4.26-5.37,6.16,1.1-2.84-3,1.42-4.42,2.99.09,1.12-3.56-5.37-.79s-10.73,3.79-14.84,3.79Z"/>
      </g>
    </g>
  </g>
</svg>