<svg width="842" height="468" viewBox="0 0 842 468" fill="none" xmlns="http://www.w3.org/2000/svg">
<g clip-path="url(#clip0_60_94)">
<mask id="mask0_60_94" style="mask-type:luminance" maskUnits="userSpaceOnUse" x="0" y="0" width="842" height="466">
<path d="M841.89 0H0V465.87H841.89V0Z" fill="white"/>
</mask>
<g mask="url(#mask0_60_94)">
<path d="M841.89 0H0V465.87H841.89V0Z" fill="#F0D288"/>
<path d="M578.59 458.07C578.43 461.56 578.03 465.03 577.42 468.47H586.75C610.72 468.16 634.69 467.86 658.65 467.55C666.72 443.08 640.71 404.82 630.33 394.7C609.68 374.55 565.98 368.74 547.96 357C549.31 361.86 550.8 366.68 552.29 371.46C561.62 401.41 570.95 431.37 578.59 458.07Z" fill="white"/>
<path d="M301.16 412.54C310.43 424.45 322.06 434.52 335.16 442C334.46 440.45 333.69 438.94 332.85 437.47C325.99 425.52 314.38 416.39 301.16 412.54Z" fill="white"/>
<path d="M339.8 468.47C340.43 459.92 339.03 451.23 335.72 443.32C312.34 442.03 289.57 431.6 273.37 414.69C277.07 419.98 279.88 425.89 281.64 432.1C266.61 423.89 256.48 407.39 255.96 390.27C248.08 411.95 246.78 435.98 252.29 458.38C236.2 441.44 229.28 417.85 229.78 394.25C224.99 397.81 220.64 401.9 216.97 406.66C203.67 423.87 201.1 446.63 197.26 468.46H339.79L339.8 468.47Z" fill="white"/>
<path d="M512.64 468.47C511.63 466.65 510.54 464.88 509.33 463.19C509.62 464.94 509.83 466.7 510.01 468.47H512.64Z" fill="white"/>
<path d="M557.82 468.47C557.49 458.56 555.7 448.7 552.38 439.35C551.56 449.25 549.51 459.04 546.37 468.47H557.81H557.82Z" fill="white"/>
<path d="M335.16 442C335.36 442.44 335.54 442.89 335.72 443.33C336.39 443.37 337.05 443.4 337.72 443.42C336.86 442.96 336.01 442.48 335.16 442Z" fill="white"/>
<path d="M466.63 438.46C466.63 438.46 466.56 438.48 466.52 438.49C466.58 438.67 466.64 438.86 466.7 439.04C466.68 438.85 466.66 438.65 466.63 438.46Z" fill="white"/>
<path d="M466.52 438.49C466.02 436.96 465.52 435.41 465.03 433.87C465.53 435.41 466.03 436.95 466.52 438.49Z" fill="white"/>
<path d="M458.72 412.9C459.09 414.29 459.48 415.67 459.87 417.06C459.48 415.68 459.09 414.29 458.72 412.9Z" fill="white"/>
<path d="M456.56 404.32C456.79 405.31 457.03 406.3 457.27 407.28C457.03 406.29 456.79 405.31 456.56 404.32Z" fill="white"/>
<path d="M457.62 408.7C457.87 409.7 458.13 410.7 458.4 411.7C458.14 410.7 457.88 409.7 457.62 408.7Z" fill="white"/>
<path d="M330.42 162.13C332.8 155.87 334.52 149.37 335.55 142.76C334.52 149.37 332.8 155.88 330.42 162.13Z" fill="white"/>
<path d="M359.3 325.5C359.03 323.3 358.72 321.11 358.37 318.92C358.72 321.1 359.03 323.3 359.3 325.5Z" fill="white"/>
<path d="M473.51 423.16C468.57 410.75 465.37 397.65 464.05 384.35C465.37 397.64 468.57 410.74 473.51 423.16Z" fill="white"/>
<path d="M351.62 385.46C351.04 386.85 350.43 388.24 349.79 389.65C350.44 388.25 351.05 386.85 351.62 385.46Z" fill="white"/>
<path d="M348.27 273C348.21 273.19 348.18 273.31 348.21 273.33C349.66 274.75 351.39 276.49 353.4 278.44C351.59 276.67 349.87 274.88 348.27 273Z" fill="white"/>
<path d="M345.05 402.67C345.14 401.85 345.28 401.03 345.45 400.22C345.28 401.03 345.15 401.85 345.05 402.67Z" fill="white"/>
<path d="M454.55 394.65C454.8 396.05 455.07 397.44 455.35 398.84C455.06 397.45 454.8 396.05 454.55 394.65Z" fill="white"/>
<path d="M490.38 137.76C490.64 138.01 490.89 138.28 491.11 138.58C490.88 138.28 490.64 138.01 490.38 137.76Z" fill="white"/>
<path d="M454.4 350.35C454.11 351.68 453.84 353.01 453.61 354.34C453.84 353.01 454.1 351.68 454.4 350.35Z" fill="white"/>
<path d="M345.45 400.22C345.88 398.2 346.55 396.24 347.47 394.42C346.54 396.24 345.87 398.2 345.45 400.22Z" fill="white"/>
<path d="M486.53 154.37C491.31 163.07 487.46 172.56 485.91 182.37C484.89 188.8 482.47 205.16 480.66 217.79C484.13 218.71 487.12 219.43 488.13 219.52C491.93 219.86 496.17 218.32 497.86 214.9C500.19 210.18 495.87 204.42 497.33 199.37C501.89 183.55 495.25 170.64 493.4 162.81C492.92 160.77 491.98 152.61 489.9 152.38C489.11 152.29 488.35 152.48 487.67 152.84C487.32 153.33 486.95 153.84 486.54 154.37H486.53Z" fill="white"/>
<path d="M301.16 412.54C310.43 424.45 322.06 434.52 335.16 442C334.46 440.46 333.69 438.94 332.85 437.47C325.99 425.52 314.38 416.39 301.16 412.54Z" fill="white"/>
<path d="M335.16 442C335.36 442.44 335.54 442.89 335.72 443.33C336.39 443.37 337.05 443.4 337.72 443.42C336.86 442.96 336.01 442.48 335.16 442Z" fill="white"/>
<path d="M452.78 360.34C452.7 361.06 452.64 361.78 452.58 362.49C452.64 361.77 452.7 361.05 452.78 360.34Z" fill="white"/>
<path d="M453.23 386.02C453.35 387 453.48 387.98 453.62 388.97C453.48 387.99 453.35 387.01 453.23 386.02Z" fill="white"/>
<path d="M353.4 278.44C354.46 279.48 355.55 280.51 356.68 281.55C355.51 280.47 354.42 279.43 353.4 278.44Z" fill="white"/>
<path d="M356.57 309.13C356.13 306.96 355.66 304.8 355.17 302.64C355.66 304.8 356.13 306.97 356.57 309.13Z" fill="white"/>
<path d="M354.43 299.39C353.93 297.23 353.41 295.07 352.89 292.9C353.41 295.06 353.93 297.22 354.43 299.39Z" fill="white"/>
<path d="M348.21 273.33C349.44 278.81 350.77 284.24 352.09 289.66C350.77 284.25 349.44 278.82 348.21 273.33Z" fill="white"/>
<path d="M357.66 366.64C356.57 371.43 355.12 376.32 353.25 381.32C353.06 381.81 352.87 382.31 352.68 382.81C352.87 382.31 353.07 381.82 353.25 381.32C355.12 376.32 356.57 371.44 357.66 366.64Z" fill="white"/>
<path d="M466.69 439.04C466.67 438.85 466.65 438.65 466.62 438.46C466.58 438.47 466.55 438.48 466.51 438.49C466.57 438.67 466.63 438.86 466.69 439.04Z" fill="white"/>
<path d="M352.14 468.47H494.67C489.59 454.97 482.76 439.52 473.52 423.16C473.52 423.18 473.54 423.2 473.55 423.23C473.55 423.22 473.55 423.21 473.54 423.2C473.54 423.19 473.54 423.18 473.53 423.17C472.98 421.79 472.46 420.4 471.96 419C471.83 418.65 471.71 418.3 471.59 417.96C470.6 415.16 469.7 412.33 468.88 409.48C468.78 409.12 468.68 408.77 468.58 408.41C467.79 405.55 467.08 402.67 466.47 399.76C466.39 399.4 466.32 399.03 466.24 398.67C465.94 397.22 465.66 395.76 465.41 394.3C465.41 394.3 465.41 394.3 465.41 394.29C465.16 392.83 464.94 391.37 464.74 389.9C464.69 389.53 464.64 389.16 464.59 388.79C464.4 387.32 464.22 385.85 464.07 384.37C464.01 386.35 463.98 388.34 463.95 390.32C463.95 390.84 463.94 391.37 463.93 391.89C463.92 393.78 463.91 395.67 463.93 397.56C463.93 398.08 463.95 398.61 463.95 399.13C463.96 400.03 463.97 400.92 463.99 401.82C464 402.31 464.02 402.8 464.03 403.29C464.05 404.09 464.07 404.89 464.09 405.69C464.14 407.32 464.2 408.96 464.28 410.59C464.32 411.55 464.38 412.52 464.43 413.48C464.48 414.38 464.53 415.28 464.59 416.19C464.65 417.21 464.71 418.24 464.79 419.26C464.9 420.88 465.03 422.5 465.16 424.11C465.24 425.05 465.33 425.98 465.41 426.92C465.52 428.08 465.63 429.23 465.74 430.38C465.82 431.13 465.89 431.88 465.97 432.63C466.18 434.57 466.4 436.52 466.64 438.46C466.66 438.65 466.68 438.85 466.71 439.04C466.65 438.86 466.59 438.67 466.53 438.49C465.65 438.77 464.75 439.06 463.84 439.36C462.93 439.66 462.01 439.97 461.08 440.3C454.2 442.68 446.89 445.6 440.57 448.45C439.87 448.77 439.18 449.08 438.5 449.4C437.15 450.03 435.86 450.65 434.63 451.26C432.19 452.48 430.04 453.65 428.31 454.71C424.24 457.21 419.3 456.7 414.43 454.85C413.21 454.39 412 453.84 410.81 453.24C410.41 453.04 410.02 452.83 409.62 452.62C408.83 452.19 408.06 451.75 407.3 451.29C406.16 450.6 405.06 449.87 404 449.14C403.65 448.9 403.3 448.65 402.96 448.41C401.94 447.68 400.97 446.95 400.08 446.25C397.99 444.62 396.27 443.15 395.12 442.17C392.32 439.78 389.14 438.05 385.75 436.67C383.49 435.75 381.15 434.99 378.77 434.29C375.21 433.24 371.57 432.34 368.05 431.27C365.12 430.38 362.13 429.25 359.33 427.84C357.09 426.71 354.96 425.39 353.07 423.86C352.36 423.29 351.7 422.67 351.07 422.04C349.59 420.56 348.31 418.92 347.34 417.08C346.79 416.03 346.33 414.92 345.99 413.74C345.76 412.96 345.57 412.16 345.41 411.35C344.85 408.52 344.72 405.56 345.05 402.68C345.14 401.86 345.28 401.04 345.45 400.23C345.88 398.21 346.55 396.25 347.47 394.43C348.29 392.83 349.05 391.24 349.78 389.66C334.68 393.36 333.66 427.14 360.08 453.65C363.95 457.54 358.69 463.42 352.14 468.49V468.47ZM477.19 431.58C476.76 430.67 476.34 429.77 475.93 428.85C476.76 430.7 477.63 432.52 478.54 434.33C478.08 433.42 477.63 432.5 477.2 431.58H477.19ZM474.7 426.06C475.02 426.81 475.35 427.56 475.68 428.31C475.68 428.31 475.68 428.3 475.68 428.29C475.35 427.55 475.02 426.8 474.7 426.05V426.06Z" fill="white"/>
<path d="M409.61 452.62C408.82 452.19 408.05 451.75 407.29 451.29C408.05 451.75 408.82 452.2 409.61 452.62Z" fill="white"/>
<path d="M402.96 448.41C401.94 447.68 400.97 446.95 400.08 446.25C400.98 446.95 401.94 447.68 402.96 448.41Z" fill="white"/>
<path d="M438.48 449.4C437.13 450.03 435.84 450.65 434.61 451.26C435.83 450.65 437.12 450.03 438.48 449.4Z" fill="white"/>
<path d="M407.29 451.28C406.15 450.59 405.05 449.86 403.99 449.13C405.04 449.86 406.15 450.58 407.29 451.28Z" fill="white"/>
<path d="M359.34 427.84C362.14 429.26 365.13 430.38 368.06 431.27C365.13 430.38 362.14 429.25 359.34 427.84Z" fill="white"/>
<path d="M385.75 436.68C389.13 438.06 392.32 439.79 395.12 442.18C396.27 443.16 397.98 444.63 400.08 446.26C397.99 444.63 396.27 443.16 395.12 442.18C392.32 439.79 389.14 438.06 385.75 436.68Z" fill="white"/>
<path d="M440.55 448.45C446.87 445.6 454.19 442.68 461.06 440.3C461.99 439.98 462.91 439.66 463.82 439.36C462.91 439.66 461.99 439.97 461.06 440.3C454.18 442.68 446.87 445.6 440.55 448.45Z" fill="white"/>
<path d="M351.07 422.03C351.7 422.67 352.37 423.28 353.07 423.85C352.36 423.28 351.7 422.66 351.07 422.03Z" fill="white"/>
<path d="M479.02 435.33C478.85 435 478.69 434.67 478.53 434.34C478.7 434.67 478.85 435 479.02 435.33Z" fill="white"/>
<path d="M466.69 439.04C466.67 438.85 466.65 438.65 466.62 438.46C466.64 438.65 466.66 438.85 466.69 439.04Z" fill="white"/>
<path d="M487.66 152.85C488.85 151.19 489.77 149.69 490.47 148.35C489.77 149.69 488.85 151.18 487.66 152.85Z" fill="white"/>
<path d="M490.37 137.75C490.37 137.75 490.37 137.75 490.38 137.76C490.38 137.76 490.38 137.76 490.37 137.75Z" fill="white"/>
<path d="M446.3 53.9498C442.68 45.5998 435.42 39.2898 427.52 34.7698C426.83 34.3698 426.12 34.0098 425.42 33.6298C409.66 25.2998 390.8 22.9598 373.49 27.2898C355.41 31.8098 340.45 44.3698 329.35 59.3298C301.94 96.2798 280.94 159.03 280.03 178.88C279.12 198.73 274.26 276.2 263.84 298.59C253.41 320.98 240.42 342.41 233.88 366.22C231.39 375.28 230 384.78 229.79 394.27C229.29 417.87 236.2 441.46 252.3 458.4C246.79 436 248.09 411.97 255.97 390.29C256.49 407.41 266.62 423.91 281.65 432.12C279.89 425.91 277.08 420 273.38 414.71C289.58 431.62 312.36 442.05 335.73 443.34C335.54 442.9 335.36 442.45 335.17 442.01C322.06 434.53 310.44 424.46 301.17 412.55C314.4 416.4 326.01 425.53 332.86 437.48C333.7 438.95 334.47 440.46 335.17 442.01C336.02 442.49 336.87 442.97 337.73 443.43C337.06 443.41 336.4 443.38 335.73 443.34C339.04 451.25 340.44 459.94 339.81 468.49H352.15C358.7 463.42 363.96 457.53 360.09 453.65C333.67 427.15 334.69 393.37 349.79 389.66C350.44 388.26 351.05 386.86 351.62 385.47C351.99 384.58 352.34 383.7 352.68 382.82C352.87 382.32 353.07 381.83 353.25 381.33C355.12 376.33 356.57 371.45 357.66 366.65C360.92 352.27 360.91 338.71 359.3 325.5C359.03 323.3 358.72 321.11 358.37 318.92C357.84 315.64 357.24 312.38 356.57 309.13C356.13 306.96 355.66 304.8 355.17 302.64C354.93 301.56 354.68 300.48 354.43 299.4C353.93 297.24 353.41 295.08 352.89 292.91C352.63 291.83 352.37 290.75 352.1 289.66C350.78 284.25 349.45 278.82 348.22 273.33C348.2 273.31 348.22 273.19 348.28 273C345.69 269.96 343.39 266.69 341.44 262.86C337.71 255.55 335.14 247.72 332.42 240C329.01 230.32 325.35 220.26 323.79 210.07C321.65 196.11 322.24 181.4 327.54 168.93C327.89 168.19 328.23 167.44 328.56 166.69C329.22 165.19 329.85 163.67 330.43 162.13C332.81 155.87 334.53 149.37 335.56 142.76C335.92 140.44 336.2 138.12 336.39 135.78C336.52 134.14 336.61 132.5 336.66 130.86C336.7 129.57 335.81 119.28 339.34 113.36C348.24 98.4198 368.34 80.0998 378.04 74.8498C385.95 70.5698 405.5 66.4498 421.91 66.5398C428.11 66.5698 434.26 67.8098 438.56 68.9398C441.41 69.6898 443.44 70.3798 444.13 70.6398C446.08 65.4598 448.13 58.1598 446.3 53.9498Z" fill="white"/>
<path d="M452.24 370.4C452.24 372.42 452.28 374.44 452.38 376.46C452.28 374.44 452.23 372.42 452.24 370.4Z" fill="white"/>
<path d="M466.9 314.1C465.85 317.39 464.65 320.64 463.41 323.88C464.65 320.65 465.85 317.4 466.9 314.1Z" fill="white"/>
<path d="M452.58 362.5C452.36 365.13 452.25 367.77 452.24 370.4C452.25 367.76 452.36 365.13 452.58 362.5Z" fill="white"/>
<path d="M453.61 354.34C453.26 356.34 452.99 358.34 452.78 360.35C452.99 358.34 453.27 356.34 453.61 354.34Z" fill="white"/>
<path d="M459.66 333.57C459.05 335.19 458.45 336.81 457.88 338.44C458.45 336.81 459.05 335.18 459.66 333.57Z" fill="white"/>
<path d="M457.27 407.28C457.39 407.75 457.5 408.22 457.62 408.69C457.5 408.22 457.38 407.75 457.27 407.28Z" fill="white"/>
<path d="M466.39 268.6C465.02 270.88 461.65 274.89 456.87 279.45C446.15 289.67 428.34 302.66 410.04 305.2C403.93 306.05 397.77 304.18 391.8 302.43C373.15 296.95 363.65 288.01 356.68 281.56C355.55 280.52 354.46 279.49 353.4 278.45C351.39 276.5 349.66 274.76 348.21 273.34C349.44 278.82 350.77 284.25 352.09 289.67C352.35 290.75 352.62 291.83 352.88 292.92C353.4 295.08 353.92 297.24 354.42 299.41C354.67 300.49 354.92 301.57 355.16 302.65C355.65 304.81 356.12 306.98 356.56 309.14C357.23 312.39 357.83 315.65 358.36 318.93C358.71 321.11 359.02 323.31 359.29 325.51C360.9 338.72 360.91 352.27 357.65 366.66C356.56 371.45 355.11 376.34 353.24 381.34C353.05 381.83 352.86 382.33 352.67 382.83C352.33 383.71 351.98 384.59 351.61 385.48C351.03 386.87 350.42 388.26 349.78 389.67C349.05 391.25 348.29 392.84 347.47 394.44C346.54 396.26 345.87 398.22 345.45 400.24C345.28 401.05 345.15 401.87 345.05 402.69C344.72 405.57 344.85 408.53 345.41 411.36C345.57 412.17 345.76 412.97 345.99 413.75C346.33 414.93 346.79 416.04 347.34 417.09C348.31 418.93 349.59 420.57 351.07 422.05C351.7 422.69 352.37 423.3 353.07 423.87C354.96 425.4 357.09 426.72 359.33 427.85C362.13 429.27 365.12 430.39 368.05 431.28C371.57 432.35 375.21 433.25 378.77 434.3C381.15 435 383.49 435.76 385.75 436.68C389.13 438.06 392.32 439.79 395.12 442.18C396.27 443.16 397.98 444.63 400.08 446.26C400.98 446.96 401.94 447.69 402.96 448.42C403.3 448.66 403.65 448.91 404 449.15C405.05 449.88 406.16 450.6 407.3 451.3C408.06 451.76 408.83 452.21 409.62 452.63C410.01 452.84 410.41 453.05 410.81 453.25C412 453.85 413.21 454.4 414.43 454.86C419.3 456.71 424.24 457.21 428.31 454.72C430.04 453.66 432.19 452.49 434.63 451.27C435.85 450.66 437.14 450.04 438.5 449.41C439.18 449.1 439.87 448.78 440.57 448.46C446.89 445.61 454.21 442.69 461.08 440.31C462.01 439.99 462.93 439.68 463.84 439.37C464.75 439.07 465.65 438.78 466.53 438.5C466.03 436.97 465.53 435.43 465.04 433.88C464.91 433.49 464.79 433.1 464.66 432.71C463.64 429.52 462.63 426.31 461.66 423.09C461.54 422.7 461.43 422.32 461.31 421.93C460.83 420.32 460.35 418.7 459.89 417.08C459.89 417.08 459.89 417.08 459.89 417.07C459.5 415.69 459.11 414.3 458.74 412.91C458.63 412.51 458.53 412.1 458.42 411.7C458.16 410.7 457.9 409.7 457.64 408.7C457.52 408.23 457.4 407.76 457.29 407.29C457.05 406.3 456.81 405.32 456.58 404.33C456.48 403.9 456.38 403.47 456.28 403.04C455.96 401.65 455.66 400.26 455.37 398.87V398.85C455.08 397.46 454.82 396.06 454.57 394.66C454.49 394.24 454.42 393.81 454.35 393.39C454.18 392.4 454.02 391.42 453.87 390.43C453.8 389.94 453.72 389.46 453.65 388.97C453.51 387.99 453.38 387.01 453.26 386.02C453.21 385.58 453.15 385.15 453.1 384.71C452.94 383.31 452.8 381.91 452.68 380.51C452.57 379.16 452.48 377.82 452.41 376.47C452.31 374.45 452.26 372.43 452.27 370.41C452.28 367.77 452.39 365.14 452.61 362.51C452.67 361.79 452.73 361.07 452.81 360.36C453.02 358.35 453.3 356.35 453.64 354.35C453.87 353.02 454.13 351.69 454.43 350.36C454.58 349.7 454.73 349.03 454.9 348.37C455.73 345.01 456.77 341.72 457.91 338.45C458.48 336.82 459.08 335.19 459.69 333.58C460.92 330.34 462.2 327.12 463.44 323.89C464.68 320.66 465.88 317.41 466.93 314.11C467.46 312.46 467.95 310.81 468.39 309.13C472.04 295.38 467.11 282.89 466.42 268.61L466.39 268.6Z" fill="white"/>
<path d="M453.63 388.96C453.7 389.45 453.77 389.93 453.85 390.42C453.78 389.93 453.7 389.45 453.63 388.96Z" fill="white"/>
<path d="M491.83 139.81C491.64 139.36 491.39 138.96 491.11 138.59C490.88 138.29 490.64 138.02 490.38 137.77C490.38 137.77 490.38 137.77 490.37 137.76C487.88 135.4 463.99 113.73 459.08 108.95C454.17 104.17 447.14 96.5298 444.15 90.3598C441.98 85.8898 443.48 72.4198 444.24 70.6898C444.21 70.6798 444.17 70.6598 444.13 70.6498C443.44 70.3898 441.41 69.6998 438.56 68.9498C434.26 67.8198 428.11 66.5798 421.91 66.5498C405.49 66.4598 385.95 70.5798 378.04 74.8598C368.34 80.0998 348.24 98.4298 339.34 113.37C335.81 119.29 336.7 129.59 336.66 130.87C336.61 132.51 336.52 134.15 336.39 135.79C336.2 138.13 335.92 140.45 335.56 142.77C334.53 149.38 332.81 155.89 330.43 162.14C329.85 163.68 329.22 165.2 328.56 166.7C328.23 167.45 327.89 168.2 327.54 168.94C322.24 181.41 321.65 196.12 323.79 210.08C325.35 220.27 329.01 230.33 332.42 240.01C335.14 247.73 337.71 255.55 341.44 262.87C343.39 266.7 345.69 269.97 348.28 273.01C349.88 274.89 351.59 276.68 353.41 278.45C354.43 279.44 355.52 280.48 356.69 281.56C363.66 288.01 373.16 296.94 391.81 302.43C397.78 304.19 403.94 306.05 410.05 305.2C428.35 302.66 446.16 289.67 456.88 279.45C461.66 274.89 465.03 270.88 466.4 268.6C472.02 259.23 477.3 243.16 478.61 232.65C478.93 230.05 479.72 224.44 480.67 217.79C482.48 205.16 484.91 188.8 485.92 182.37C487.47 172.56 491.32 163.08 486.54 154.37C486.94 153.84 487.31 153.34 487.67 152.84C488.86 151.17 489.78 149.68 490.48 148.34C491.41 146.55 491.94 145.03 492.17 143.73C492.29 143.08 492.33 142.49 492.31 141.94C492.28 141.12 492.11 140.41 491.85 139.79L491.83 139.81Z" fill="white"/>
<path d="M463.98 401.82C464.1 407.64 464.37 413.45 464.77 419.26C464.36 413.45 464.1 407.64 463.98 401.82Z" fill="white"/>
<path d="M552.29 371.47C550.8 366.68 549.31 361.86 547.96 357.01C544.82 345.67 542.49 334.14 542.97 322.44C543.72 304.05 551.32 286.61 553.6 268.35C557 241.08 548.38 213.89 539.88 187.76C529.06 154.48 518.19 121.11 503.31 89.4399C493.11 67.7299 479.81 45.6899 458.27 35.1499C448.1 30.1799 435.09 28.6799 425.42 33.6399C426.12 34.0099 426.83 34.3799 427.52 34.7799C435.42 39.3099 442.68 45.6099 446.3 53.9599C448.13 58.1799 446.08 65.4799 444.13 70.6499C444.17 70.6699 444.21 70.6799 444.24 70.6899C443.48 72.4199 441.98 85.8999 444.15 90.3599C447.14 96.5299 454.17 104.16 459.08 108.95C463.99 113.73 487.88 135.4 490.38 137.77C490.64 138.02 490.89 138.29 491.11 138.59C491.39 138.96 491.64 139.36 491.83 139.81C492.09 140.43 492.26 141.14 492.29 141.96C492.31 142.51 492.27 143.1 492.15 143.75C491.92 145.05 491.39 146.57 490.46 148.36C489.76 149.7 488.84 151.19 487.65 152.86C488.11 152.62 488.79 156.47 488.91 156.76C489.89 159.09 491.23 158.57 492.5 160.55C493.03 161.37 493.27 162.33 493.5 163.28C494.84 168.67 496.44 174.01 496.83 179.57C497.24 185.47 494.9 190.9 494.9 196.54C493.44 201.59 500.16 210.2 497.83 214.92C496.14 218.34 491.91 219.88 488.1 219.54C487.09 219.45 484.1 218.73 480.63 217.81C479.68 224.45 478.89 230.07 478.57 232.67C477.27 243.18 471.98 259.25 466.36 268.62C467.05 282.9 471.98 295.39 468.33 309.14C467.89 310.81 467.39 312.47 466.87 314.12C465.82 317.41 464.62 320.66 463.38 323.9C462.14 327.13 460.86 330.36 459.63 333.59C459.02 335.21 458.42 336.83 457.85 338.46C456.71 341.72 455.67 345.02 454.84 348.38C454.68 349.04 454.52 349.71 454.37 350.37C454.08 351.7 453.81 353.03 453.58 354.36C453.23 356.36 452.96 358.36 452.75 360.37C452.67 361.09 452.61 361.81 452.55 362.52C452.33 365.15 452.22 367.79 452.21 370.42C452.21 372.44 452.25 374.46 452.35 376.48C452.42 377.83 452.51 379.17 452.62 380.52C452.74 381.92 452.88 383.32 453.04 384.72C453.09 385.16 453.15 385.59 453.2 386.03C453.32 387.01 453.45 387.99 453.59 388.98C453.66 389.47 453.73 389.95 453.81 390.44C453.96 391.43 454.12 392.41 454.29 393.4C454.36 393.82 454.43 394.25 454.51 394.67C454.76 396.07 455.03 397.46 455.31 398.86V398.88C455.6 400.27 455.9 401.66 456.22 403.05C456.32 403.48 456.42 403.91 456.52 404.34C456.75 405.33 456.99 406.32 457.23 407.3C457.35 407.77 457.46 408.24 457.58 408.71C457.83 409.71 458.09 410.71 458.36 411.71C458.47 412.11 458.57 412.52 458.68 412.92C459.05 414.31 459.44 415.69 459.84 417.1C460.3 418.72 460.78 420.34 461.26 421.95C461.38 422.34 461.49 422.72 461.61 423.11C462.58 426.33 463.59 429.54 464.61 432.73C464.74 433.12 464.86 433.51 464.99 433.9C465.49 435.44 465.99 436.98 466.48 438.52C466.52 438.51 466.55 438.5 466.59 438.49C465.79 432.11 465.18 425.7 464.73 419.29C464.32 413.48 464.06 407.67 463.94 401.85C463.82 396.03 463.84 390.21 464.01 384.39C465.33 397.68 468.53 410.78 473.47 423.2C482.71 439.56 489.54 455.01 494.62 468.51H509.97C509.79 466.74 509.57 464.98 509.29 463.23C510.5 464.92 511.59 466.69 512.6 468.51H546.34C549.48 459.08 551.52 449.3 552.35 439.39C555.67 448.74 557.46 458.6 557.79 468.51H577.38C577.99 465.07 578.39 461.6 578.55 458.11C570.91 431.41 561.58 401.46 552.25 371.5L552.29 371.47Z" fill="white"/>
<path d="M486.68 209.87C486.77 211.4 486.86 212.96 487.44 214.37C488.03 215.78 489.21 217.04 490.71 217.3C492.59 217.62 494.41 216.3 495.41 214.68C496.46 212.99 496.86 210.83 496.19 208.95C495.53 207.07 493.7 205.58 491.7 205.59C489.71 205.59 486.51 207.08 486.66 209.87H486.68Z" fill="white"/>
<path d="M576.04 459.74C575.88 463.23 575.48 466.7 574.87 470.14H584.2C608.17 469.83 632.14 469.53 656.1 469.22C664.17 444.75 638.16 406.49 627.78 396.37C607.13 376.22 563.43 370.41 545.41 358.67C546.76 363.53 548.25 368.35 549.74 373.13C559.07 403.08 568.4 433.04 576.04 459.74Z" fill="#37383B"/>
<path d="M298.61 414.21C307.88 426.12 319.51 436.19 332.61 443.67C331.91 442.12 331.14 440.61 330.3 439.14C323.44 427.19 311.83 418.06 298.61 414.21Z" fill="#37383B"/>
<path d="M337.25 470.14C337.88 461.59 336.48 452.9 333.17 444.99C309.79 443.7 287.02 433.27 270.82 416.36C274.52 421.65 277.33 427.56 279.09 433.77C264.06 425.56 253.93 409.06 253.41 391.94C245.53 413.62 244.23 437.65 249.74 460.05C233.65 443.11 226.73 419.52 227.23 395.92C222.44 399.48 218.09 403.57 214.42 408.33C201.12 425.54 198.55 448.3 194.71 470.13H337.24L337.25 470.14Z" fill="#37383B"/>
<path d="M510.09 470.14C509.08 468.32 507.99 466.55 506.78 464.86C507.07 466.61 507.28 468.37 507.46 470.14H510.09Z" stroke="#55575A" stroke-miterlimit="10"/>
<path d="M555.28 470.14C554.95 460.23 553.16 450.37 549.84 441.02C549.02 450.92 546.97 460.71 543.83 470.14H555.27H555.28Z" fill="#37383B"/>
<path d="M332.61 443.66C332.81 444.1 332.99 444.55 333.17 444.99C333.84 445.03 334.5 445.06 335.17 445.08C334.31 444.62 333.46 444.14 332.61 443.66Z" stroke="#55575A" stroke-miterlimit="10"/>
<path d="M464.08 440.12C464.08 440.12 464.01 440.14 463.97 440.15C464.03 440.33 464.09 440.52 464.15 440.7C464.13 440.51 464.11 440.31 464.08 440.12Z" stroke="#55575A" stroke-miterlimit="10"/>
<path d="M483.99 156.04C488.77 164.74 484.92 174.23 483.37 184.04C482.35 190.47 479.93 206.83 478.12 219.46C481.59 220.38 484.58 221.1 485.59 221.19C489.39 221.53 493.63 219.99 495.32 216.57C497.65 211.85 493.33 206.09 494.79 201.04C499.35 185.22 492.71 172.31 490.86 164.48C490.38 162.44 489.44 154.28 487.36 154.05C486.57 153.96 485.81 154.15 485.13 154.51C484.78 155 484.41 155.51 484 156.04H483.99Z" fill="#E0A691"/>
<path d="M298.61 414.21C307.88 426.12 319.51 436.19 332.61 443.67C331.91 442.13 331.14 440.61 330.3 439.14C323.44 427.19 311.83 418.06 298.61 414.21Z" fill="#37383B"/>
<path d="M333 144.43C333.36 142.11 333.64 139.79 333.83 137.45" stroke="#55575A" stroke-miterlimit="10"/>
<path d="M350.85 280.11C351.91 281.15 353 282.18 354.13 283.22C352.96 282.14 351.87 281.1 350.85 280.11Z" stroke="#55575A" stroke-miterlimit="10"/>
<path d="M354.02 310.8C353.58 308.63 353.11 306.47 352.62 304.31C353.11 306.47 353.58 308.64 354.02 310.8Z" stroke="#55575A" stroke-miterlimit="10"/>
<path d="M351.88 301.06C351.38 298.9 350.86 296.74 350.34 294.57C350.86 296.73 351.38 298.89 351.88 301.06Z" stroke="#55575A" stroke-miterlimit="10"/>
<path d="M345.66 275C346.89 280.48 348.22 285.91 349.54 291.33C348.22 285.92 346.89 280.49 345.66 275Z" stroke="#55575A" stroke-miterlimit="10"/>
<path d="M350.7 382.99C352.57 377.99 354.02 373.1 355.11 368.31C354.02 373.11 352.57 377.99 350.7 382.99ZM350.7 382.99C350.51 383.48 350.32 383.98 350.13 384.48C350.32 383.98 350.52 383.49 350.7 382.99Z" stroke="#55575A" stroke-miterlimit="10"/>
<path d="M464.15 440.71C464.13 440.52 464.11 440.32 464.08 440.13C464.04 440.14 464.01 440.15 463.97 440.16C464.03 440.34 464.09 440.53 464.15 440.71Z" stroke="#55575A" stroke-miterlimit="10"/>
<path d="M349.59 470.14H492.12C487.04 456.64 480.21 441.19 470.97 424.83C470.97 424.85 470.99 424.87 471 424.9C471 424.89 471 424.88 470.99 424.87C470.99 424.86 470.99 424.85 470.98 424.84C470.43 423.46 469.91 422.07 469.41 420.67C469.28 420.32 469.16 419.97 469.04 419.63C468.05 416.83 467.15 414 466.33 411.15C466.23 410.79 466.13 410.44 466.03 410.08C465.24 407.22 464.53 404.34 463.92 401.43C463.84 401.07 463.77 400.7 463.69 400.34C463.39 398.89 463.11 397.43 462.86 395.97C462.86 395.97 462.86 395.97 462.86 395.96C462.61 394.5 462.39 393.04 462.19 391.57C462.14 391.2 462.09 390.83 462.04 390.46C461.85 388.99 461.67 387.52 461.52 386.04C461.46 388.02 461.43 390.01 461.4 391.99C461.4 392.51 461.39 393.04 461.38 393.56C461.37 395.45 461.36 397.34 461.38 399.23C461.38 399.75 461.4 400.28 461.4 400.8C461.41 401.7 461.42 402.59 461.44 403.49C461.45 403.98 461.47 404.47 461.48 404.96C461.5 405.76 461.52 406.56 461.54 407.36C461.59 408.99 461.65 410.63 461.73 412.26C461.77 413.22 461.83 414.19 461.88 415.15C461.93 416.05 461.98 416.95 462.04 417.86C462.1 418.88 462.16 419.91 462.24 420.93C462.35 422.55 462.48 424.17 462.61 425.78C462.69 426.72 462.78 427.65 462.86 428.59C462.97 429.75 463.08 430.9 463.19 432.05C463.27 432.8 463.34 433.55 463.42 434.3C463.63 436.24 463.85 438.19 464.09 440.13C464.11 440.32 464.13 440.52 464.16 440.71C464.1 440.53 464.04 440.34 463.98 440.16C463.1 440.44 462.2 440.73 461.29 441.03C460.38 441.33 459.46 441.64 458.53 441.97C451.65 444.35 444.34 447.27 438.02 450.12C437.32 450.44 436.63 450.75 435.95 451.07C434.6 451.7 433.31 452.32 432.08 452.93C429.64 454.15 427.49 455.32 425.76 456.38C421.69 458.88 416.75 458.37 411.88 456.52C410.66 456.06 409.45 455.51 408.26 454.91C407.86 454.71 407.47 454.5 407.07 454.29C406.28 453.86 405.51 453.42 404.75 452.96C403.61 452.27 402.51 451.54 401.45 450.81C401.1 450.57 400.75 450.32 400.41 450.08C399.39 449.35 398.42 448.62 397.53 447.92C395.44 446.29 393.72 444.82 392.57 443.84C389.77 441.45 386.59 439.72 383.2 438.34C380.94 437.42 378.6 436.66 376.22 435.96C372.66 434.91 369.02 434.01 365.5 432.94C362.57 432.05 359.58 430.92 356.78 429.51C354.54 428.38 352.41 427.06 350.52 425.53C349.81 424.96 349.15 424.34 348.52 423.71C347.04 422.23 345.76 420.59 344.79 418.75C344.24 417.7 343.78 416.59 343.44 415.41C343.21 414.63 343.02 413.83 342.86 413.02C342.3 410.19 342.17 407.23 342.5 404.35C342.59 403.53 342.73 402.71 342.9 401.9C343.33 399.88 344 397.92 344.92 396.1C345.74 394.5 346.5 392.91 347.23 391.33C332.13 395.03 331.11 428.81 357.53 455.32C361.4 459.21 356.14 465.09 349.59 470.16V470.14ZM474.64 433.25C474.21 432.34 473.79 431.44 473.38 430.52C474.21 432.37 475.08 434.19 475.99 436C475.53 435.09 475.08 434.17 474.65 433.25H474.64ZM472.16 427.73C472.48 428.48 472.81 429.23 473.14 429.98C473.14 429.98 473.14 429.97 473.14 429.96C472.81 429.22 472.48 428.47 472.16 427.72V427.73Z" fill="#37383B"/>
<path d="M407.06 454.28C406.27 453.85 405.5 453.41 404.74 452.95C405.5 453.41 406.27 453.86 407.06 454.28Z" stroke="#55575A" stroke-miterlimit="10"/>
<path d="M411.87 456.52C410.65 456.06 409.44 455.51 408.25 454.91" stroke="#55575A" stroke-miterlimit="10"/>
<path d="M400.41 450.07C399.39 449.34 398.42 448.61 397.53 447.91C398.43 448.61 399.39 449.34 400.41 450.07Z" stroke="#55575A" stroke-miterlimit="10"/>
<path d="M435.93 451.06C434.58 451.69 433.29 452.31 432.06 452.92C433.28 452.31 434.57 451.69 435.93 451.06Z" stroke="#55575A" stroke-miterlimit="10"/>
<path d="M404.75 452.95C403.61 452.26 402.51 451.53 401.45 450.8C402.5 451.53 403.61 452.25 404.75 452.95Z" stroke="#55575A" stroke-miterlimit="10"/>
<path d="M365.51 432.94C362.58 432.05 359.59 430.93 356.79 429.51C359.59 430.92 362.58 432.05 365.51 432.94ZM365.51 432.94C369.03 434.01 372.67 434.91 376.23 435.96" stroke="#55575A" stroke-miterlimit="10"/>
<path d="M392.58 443.84C389.78 441.45 386.59 439.72 383.21 438.34C386.6 439.72 389.78 441.45 392.58 443.84ZM392.58 443.84C393.73 444.82 395.44 446.29 397.54 447.92C395.45 446.29 393.73 444.82 392.58 443.84Z" stroke="#55575A" stroke-miterlimit="10"/>
<path d="M458.51 441.96C451.64 444.34 444.32 447.26 438 450.11C444.32 447.26 451.63 444.34 458.51 441.96ZM458.51 441.96C459.44 441.64 460.36 441.32 461.27 441.02C460.36 441.32 459.44 441.63 458.51 441.96Z" stroke="#55575A" stroke-miterlimit="10"/>
<path d="M356.79 429.51C354.55 428.38 352.42 427.06 350.53 425.53" stroke="#55575A" stroke-miterlimit="10"/>
<path d="M348.52 423.7C349.15 424.34 349.82 424.95 350.52 425.52C349.81 424.95 349.15 424.33 348.52 423.7Z" stroke="#55575A" stroke-miterlimit="10"/>
<path d="M383.21 438.34C380.95 437.42 378.61 436.66 376.23 435.96" stroke="#55575A" stroke-miterlimit="10"/>
<path d="M476.48 436.99C476.31 436.66 476.15 436.33 475.99 436C476.16 436.33 476.31 436.66 476.48 436.99Z" stroke="#55575A" stroke-miterlimit="10"/>
<path d="M464.15 440.71C464.13 440.52 464.11 440.32 464.08 440.13C464.1 440.32 464.12 440.52 464.15 440.71Z" stroke="#55575A" stroke-miterlimit="10"/>
<path d="M488.56 140.25C488.84 140.62 489.09 141.02 489.28 141.47" stroke="#55575A" stroke-miterlimit="10"/>
<path d="M485.11 154.51C486.3 152.85 487.22 151.35 487.92 150.01C487.22 151.35 486.3 152.84 485.11 154.51Z" stroke="#55575A" stroke-miterlimit="10"/>
<path d="M487.82 139.42C487.82 139.42 487.82 139.42 487.83 139.43C487.83 139.43 487.83 139.43 487.82 139.42Z" stroke="#55575A" stroke-miterlimit="10"/>
<path d="M443.75 55.6099C440.13 47.2599 432.87 40.9499 424.97 36.4299C424.28 36.0299 423.57 35.6699 422.87 35.2899C407.11 26.9599 388.25 24.6199 370.94 28.9499C352.86 33.4699 337.9 46.0299 326.8 60.9899C299.39 97.9399 278.39 160.69 277.48 180.54C276.57 200.39 271.71 277.86 261.29 300.25C250.86 322.64 237.87 344.07 231.33 367.88C228.84 376.94 227.45 386.44 227.24 395.93C226.74 419.53 233.65 443.12 249.75 460.06C244.24 437.66 245.54 413.63 253.42 391.95C253.94 409.07 264.07 425.57 279.1 433.78C277.34 427.57 274.53 421.66 270.83 416.37C287.03 433.28 309.81 443.71 333.18 445C332.99 444.56 332.81 444.11 332.62 443.67C319.51 436.19 307.89 426.12 298.62 414.21C311.85 418.06 323.46 427.19 330.31 439.14C331.15 440.61 331.92 442.12 332.62 443.67C333.47 444.15 334.32 444.63 335.18 445.09C334.51 445.07 333.85 445.04 333.18 445C336.49 452.91 337.89 461.6 337.26 470.15H349.6C356.15 465.08 361.41 459.19 357.54 455.31C331.12 428.81 332.14 395.03 347.24 391.32C347.89 389.92 348.5 388.52 349.07 387.13C349.44 386.24 349.79 385.36 350.13 384.48C350.32 383.98 350.52 383.49 350.7 382.99C352.57 377.99 354.02 373.11 355.11 368.31C358.37 353.93 358.36 340.37 356.75 327.16C356.48 324.96 356.17 322.77 355.82 320.58C355.29 317.3 354.69 314.04 354.02 310.79C353.58 308.62 353.11 306.46 352.62 304.3C352.38 303.22 352.13 302.14 351.88 301.06C351.38 298.9 350.86 296.74 350.34 294.57C350.08 293.49 349.82 292.41 349.55 291.32C348.23 285.91 346.9 280.48 345.67 274.99C345.65 274.97 345.67 274.85 345.73 274.66C343.14 271.62 340.84 268.35 338.89 264.52C335.16 257.21 332.59 249.38 329.87 241.66C326.46 231.98 322.8 221.92 321.24 211.73C319.1 197.77 319.69 183.06 324.99 170.59C325.34 169.85 325.68 169.1 326.01 168.35C326.67 166.85 327.3 165.33 327.88 163.79C330.26 157.53 331.98 151.03 333.01 144.42C333.37 142.1 333.65 139.78 333.84 137.44C333.97 135.8 334.06 134.16 334.11 132.52C334.15 131.23 333.26 120.94 336.79 115.02C345.69 100.08 365.79 81.7599 375.49 76.5099C383.4 72.2299 402.95 68.1099 419.36 68.1999C425.56 68.2299 431.71 69.4699 436.01 70.5999C438.86 71.3499 440.89 72.0399 441.58 72.2999C443.53 67.1199 445.58 59.8199 443.75 55.6099Z" fill="#775243"/>
<path d="M449.7 372.07C449.7 374.09 449.74 376.11 449.84 378.13C449.74 376.11 449.69 374.09 449.7 372.07Z" stroke="#55575A" stroke-miterlimit="10"/>
<path d="M464.35 315.76C463.3 319.05 462.1 322.3 460.86 325.54C462.1 322.31 463.3 319.06 464.35 315.76Z" stroke="#55575A" stroke-miterlimit="10"/>
<path d="M450.03 364.16C449.81 366.79 449.7 369.43 449.69 372.06C449.7 369.42 449.81 366.79 450.03 364.16Z" stroke="#55575A" stroke-miterlimit="10"/>
<path d="M451.07 356C450.72 358 450.45 360 450.24 362.01C450.45 360 450.73 358 451.07 356Z" stroke="#55575A" stroke-miterlimit="10"/>
<path d="M457.11 335.23C456.5 336.85 455.9 338.47 455.33 340.1C455.9 338.47 456.5 336.84 457.11 335.23Z" stroke="#55575A" stroke-miterlimit="10"/>
<path d="M453.71 404.7C453.81 405.13 453.91 405.56 454.01 405.99" stroke="#55575A" stroke-miterlimit="10"/>
<path d="M452.8 400.5V400.52" stroke="#55575A" stroke-miterlimit="10"/>
<path d="M451.78 395.05C451.85 395.47 451.92 395.9 452 396.32" stroke="#55575A" stroke-miterlimit="10"/>
<path d="M455.85 413.36C455.96 413.76 456.06 414.17 456.17 414.57" stroke="#55575A" stroke-miterlimit="10"/>
<path d="M454.72 408.95C454.84 409.42 454.95 409.89 455.07 410.36C454.95 409.89 454.83 409.42 454.72 408.95Z" stroke="#55575A" stroke-miterlimit="10"/>
<path d="M450.52 386.37C450.57 386.81 450.63 387.24 450.68 387.68" stroke="#55575A" stroke-miterlimit="10"/>
<path d="M463.84 270.26C462.47 272.54 459.1 276.55 454.32 281.11C443.6 291.33 425.79 304.32 407.49 306.86C401.38 307.71 395.22 305.84 389.25 304.09C370.6 298.61 361.1 289.67 354.13 283.22C353 282.18 351.91 281.15 350.85 280.11C348.84 278.16 347.11 276.42 345.66 275C346.89 280.48 348.22 285.91 349.54 291.33C349.8 292.41 350.07 293.49 350.33 294.58C350.85 296.74 351.37 298.9 351.87 301.07C352.12 302.15 352.37 303.23 352.61 304.31C353.1 306.47 353.57 308.64 354.01 310.8C354.68 314.05 355.28 317.31 355.81 320.59C356.16 322.77 356.47 324.97 356.74 327.17C358.35 340.38 358.36 353.93 355.1 368.32C354.01 373.11 352.56 378 350.69 383C350.5 383.49 350.31 383.99 350.12 384.49C349.78 385.37 349.43 386.25 349.06 387.14C348.48 388.53 347.87 389.92 347.23 391.33C346.5 392.91 345.74 394.5 344.92 396.1C343.99 397.92 343.32 399.88 342.9 401.9C342.73 402.71 342.6 403.53 342.5 404.35C342.17 407.23 342.3 410.19 342.86 413.02C343.02 413.83 343.21 414.63 343.44 415.41C343.78 416.59 344.24 417.7 344.79 418.75C345.76 420.59 347.04 422.23 348.52 423.71C349.15 424.35 349.82 424.96 350.52 425.53C352.41 427.06 354.54 428.38 356.78 429.51C359.58 430.93 362.57 432.05 365.5 432.94C369.02 434.01 372.66 434.91 376.22 435.96C378.6 436.66 380.94 437.42 383.2 438.34C386.58 439.72 389.77 441.45 392.57 443.84C393.72 444.82 395.43 446.29 397.53 447.92C398.43 448.62 399.39 449.35 400.41 450.08C400.75 450.32 401.1 450.57 401.45 450.81C402.5 451.54 403.61 452.26 404.75 452.96C405.51 453.42 406.28 453.87 407.07 454.29C407.46 454.5 407.86 454.71 408.26 454.91C409.45 455.51 410.66 456.06 411.88 456.52C416.75 458.37 421.69 458.87 425.76 456.38C427.49 455.32 429.64 454.15 432.08 452.93C433.3 452.32 434.59 451.7 435.95 451.07C436.63 450.76 437.32 450.44 438.02 450.12C444.34 447.27 451.66 444.35 458.53 441.97C459.46 441.65 460.38 441.34 461.29 441.03C462.2 440.73 463.1 440.44 463.98 440.16C463.48 438.63 462.98 437.09 462.49 435.54C462.36 435.15 462.24 434.76 462.11 434.37C461.09 431.18 460.08 427.97 459.11 424.75C458.99 424.36 458.88 423.98 458.76 423.59C458.28 421.98 457.8 420.36 457.34 418.74C457.34 418.74 457.34 418.74 457.34 418.73C456.95 417.35 456.56 415.96 456.19 414.57C456.08 414.17 455.98 413.76 455.87 413.36C455.61 412.36 455.35 411.36 455.09 410.36C454.97 409.89 454.85 409.42 454.74 408.95C454.5 407.96 454.26 406.98 454.03 405.99C453.93 405.56 453.83 405.13 453.73 404.7C453.41 403.31 453.11 401.92 452.82 400.53V400.51C452.53 399.12 452.27 397.72 452.02 396.32C451.94 395.9 451.87 395.47 451.8 395.05C451.63 394.06 451.47 393.08 451.32 392.09C451.25 391.6 451.17 391.12 451.1 390.63C450.96 389.65 450.83 388.67 450.71 387.68C450.66 387.24 450.6 386.81 450.55 386.37C450.39 384.97 450.25 383.57 450.13 382.17C450.02 380.82 449.93 379.48 449.86 378.13C449.76 376.11 449.71 374.09 449.72 372.07C449.73 369.43 449.84 366.8 450.06 364.17C450.12 363.45 450.18 362.73 450.26 362.02C450.47 360.01 450.75 358.01 451.09 356.01C451.32 354.68 451.58 353.35 451.88 352.02C452.03 351.36 452.18 350.69 452.35 350.03C453.18 346.67 454.22 343.38 455.36 340.11C455.93 338.48 456.53 336.85 457.14 335.24C458.37 332 459.65 328.78 460.89 325.55C462.13 322.32 463.33 319.07 464.38 315.77C464.91 314.12 465.4 312.47 465.84 310.79C469.49 297.04 464.56 284.55 463.87 270.27L463.84 270.26Z" fill="#E0A691"/>
<path d="M451.08 390.63C451.15 391.12 451.22 391.6 451.3 392.09C451.23 391.6 451.15 391.12 451.08 390.63Z" stroke="#55575A" stroke-miterlimit="10"/>
<path d="M489.28 141.47C489.09 141.02 488.84 140.62 488.56 140.25C488.33 139.95 488.09 139.68 487.83 139.43C487.83 139.43 487.83 139.43 487.82 139.42C485.33 137.06 461.44 115.39 456.53 110.61C451.62 105.83 444.59 98.1899 441.6 92.0199C439.43 87.5499 440.93 74.0799 441.69 72.3499C441.66 72.3399 441.62 72.3199 441.58 72.3099C440.89 72.0499 438.86 71.3599 436.01 70.6099C431.71 69.4799 425.56 68.2399 419.36 68.2099C402.94 68.1199 383.4 72.2399 375.49 76.5199C365.79 81.7599 345.69 100.09 336.79 115.03C333.26 120.95 334.15 131.25 334.11 132.53C334.06 134.17 333.97 135.81 333.84 137.45C333.65 139.79 333.37 142.11 333.01 144.43C331.98 151.04 330.26 157.55 327.88 163.8C327.3 165.34 326.67 166.86 326.01 168.36C325.68 169.11 325.34 169.86 324.99 170.6C319.69 183.07 319.1 197.78 321.24 211.74C322.8 221.93 326.46 231.99 329.87 241.67C332.59 249.39 335.16 257.21 338.89 264.53C340.84 268.36 343.14 271.63 345.73 274.67C347.33 276.55 349.04 278.34 350.86 280.11C351.88 281.1 352.97 282.14 354.14 283.22C361.11 289.67 370.61 298.6 389.26 304.09C395.23 305.85 401.39 307.71 407.5 306.86C425.8 304.32 443.61 291.33 454.33 281.11C459.11 276.55 462.48 272.54 463.85 270.26C469.47 260.89 474.75 244.82 476.06 234.31C476.38 231.71 477.17 226.1 478.12 219.45C479.93 206.82 482.36 190.46 483.37 184.03C484.92 174.22 488.77 164.74 483.99 156.03C484.39 155.5 484.76 155 485.12 154.5C486.31 152.83 487.23 151.34 487.93 150C488.86 148.21 489.39 146.69 489.62 145.39C489.74 144.74 489.78 144.15 489.76 143.6C489.73 142.78 489.56 142.07 489.3 141.45L489.28 141.47Z" fill="#E0A691"/>
<path d="M461.43 403.48C461.55 409.3 461.82 415.11 462.22 420.92C461.81 415.11 461.55 409.3 461.43 403.48Z" stroke="#55575A" stroke-miterlimit="10"/>
<path d="M549.74 373.13C548.25 368.34 546.76 363.52 545.41 358.67C542.27 347.33 539.94 335.8 540.42 324.1C541.17 305.71 548.77 288.27 551.05 270.01C554.45 242.74 545.83 215.55 537.33 189.42C526.51 156.14 515.64 122.77 500.76 91.1001C490.56 69.3901 477.26 47.3501 455.72 36.8101C445.55 31.8401 432.54 30.3401 422.87 35.3001C423.57 35.6701 424.28 36.0401 424.97 36.4401C432.87 40.9701 440.13 47.2701 443.75 55.6201C445.58 59.8401 443.53 67.1401 441.58 72.3101C441.62 72.3301 441.66 72.3401 441.69 72.3501C440.93 74.0801 439.43 87.5601 441.6 92.0201C444.59 98.1901 451.62 105.82 456.53 110.61C461.44 115.39 485.33 137.06 487.83 139.43C488.09 139.68 488.34 139.95 488.56 140.25C488.84 140.62 489.09 141.02 489.28 141.47C489.54 142.09 489.71 142.8 489.74 143.62C489.76 144.17 489.72 144.76 489.6 145.41C489.37 146.71 488.84 148.23 487.91 150.02C487.21 151.36 486.29 152.85 485.1 154.52C485.56 154.28 486.24 158.13 486.36 158.42C487.34 160.75 488.68 160.23 489.95 162.21C490.48 163.03 490.72 163.99 490.95 164.94C492.29 170.33 493.89 175.67 494.28 181.23C494.69 187.13 492.35 192.56 492.35 198.2C490.89 203.25 497.61 211.86 495.28 216.58C493.59 220 489.36 221.54 485.55 221.2C484.54 221.11 481.55 220.39 478.08 219.47C477.13 226.11 476.34 231.73 476.02 234.33C474.72 244.84 469.43 260.91 463.81 270.28C464.5 284.56 469.43 297.05 465.78 310.8C465.34 312.47 464.84 314.13 464.32 315.78C463.27 319.07 462.07 322.32 460.83 325.56C459.59 328.79 458.31 332.02 457.08 335.25C456.47 336.87 455.87 338.49 455.3 340.12C454.16 343.38 453.12 346.68 452.29 350.04C452.13 350.7 451.97 351.37 451.82 352.03C451.53 353.36 451.26 354.69 451.03 356.02C450.68 358.02 450.41 360.02 450.2 362.03C450.12 362.75 450.06 363.47 450 364.18C449.78 366.81 449.67 369.45 449.66 372.08C449.66 374.1 449.7 376.12 449.8 378.14C449.87 379.49 449.96 380.83 450.07 382.18C450.19 383.58 450.33 384.98 450.49 386.38C450.54 386.82 450.6 387.25 450.65 387.69C450.77 388.67 450.9 389.65 451.04 390.64C451.11 391.13 451.18 391.61 451.26 392.1C451.41 393.09 451.57 394.07 451.74 395.06C451.81 395.48 451.88 395.91 451.96 396.33C452.21 397.73 452.48 399.12 452.76 400.52V400.54C453.05 401.93 453.35 403.32 453.67 404.71C453.77 405.14 453.87 405.57 453.97 406C454.2 406.99 454.44 407.98 454.68 408.96C454.8 409.43 454.91 409.9 455.03 410.37C455.28 411.37 455.54 412.37 455.81 413.37C455.92 413.77 456.02 414.18 456.13 414.58C456.5 415.97 456.89 417.35 457.29 418.76C457.75 420.38 458.23 422 458.71 423.61C458.83 424 458.94 424.38 459.06 424.77C460.03 427.99 461.04 431.2 462.06 434.39C462.19 434.78 462.31 435.17 462.44 435.56C462.94 437.1 463.44 438.64 463.93 440.18C463.97 440.17 464 440.16 464.04 440.15C463.24 433.77 462.63 427.36 462.18 420.95C461.77 415.14 461.51 409.33 461.39 403.51C461.27 397.69 461.29 391.87 461.46 386.05C462.78 399.34 465.98 412.44 470.92 424.86C480.16 441.22 486.99 456.67 492.07 470.17H507.42C507.24 468.4 507.02 466.64 506.74 464.89C507.95 466.58 509.04 468.35 510.05 470.17H543.79C546.93 460.74 548.97 450.96 549.8 441.05C553.12 450.4 554.91 460.26 555.24 470.17H574.83C575.44 466.73 575.84 463.26 576 459.77C568.36 433.07 559.03 403.12 549.7 373.16L549.74 373.13Z" fill="#775243"/>
<path d="M462.47 435.54C462.34 435.15 462.22 434.76 462.09 434.37" stroke="#55575A" stroke-miterlimit="10"/>
<path d="M459.1 424.75C458.98 424.36 458.87 423.98 458.75 423.59" stroke="#55575A" stroke-miterlimit="10"/>
<path d="M457.32 418.73C457.32 418.73 457.32 418.73 457.32 418.74C457.32 418.74 457.32 418.74 457.32 418.73Z" stroke="#55575A" stroke-miterlimit="10"/>
<path d="M484.13 211.54C484.22 213.07 484.31 214.63 484.89 216.04C485.48 217.45 486.66 218.71 488.16 218.97C490.04 219.29 491.86 217.97 492.86 216.35C493.91 214.66 494.31 212.5 493.64 210.62C492.98 208.74 491.15 207.25 489.15 207.26C487.16 207.26 483.96 208.75 484.11 211.54H484.13Z" fill="white"/>
<path d="M380.93 255.65C381.69 255.65 403.48 268.9 432.73 255.65" stroke="#55575A" stroke-miterlimit="10"/>
<path d="M380.32 205.68C380.32 205.68 379.41 211.32 385.65 211.77C391.89 212.22 393.27 211.77 393.27 211.77C393.27 211.77 393.73 216.8 401.5 217.25H407.9" stroke="#55575A" stroke-miterlimit="10"/>
<path d="M410.939 213.45C410.939 213.45 411.089 210 414.289 210.46C417.489 210.92 424.339 212.38 426.169 204.31" stroke="#55575A" stroke-miterlimit="10"/>
<path d="M394.079 173.54C394.079 173.54 392.809 201.27 392.199 204.31" stroke="#55575A" stroke-miterlimit="10"/>
<path d="M485.769 209.87C485.859 211.4 485.949 212.96 486.529 214.37C487.119 215.78 488.299 217.04 489.799 217.3C491.679 217.62 493.499 216.3 494.499 214.68C495.549 212.99 495.949 210.83 495.279 208.95C494.619 207.07 492.789 205.58 490.789 205.59C488.799 205.59 485.599 207.08 485.749 209.87H485.769Z" stroke="#55575A" stroke-miterlimit="10"/>
<path d="M577.68 458.07C577.52 461.56 577.12 465.03 576.51 468.47H585.84C609.81 468.16 633.78 467.86 657.74 467.55C665.81 443.08 639.8 404.82 629.42 394.7C608.77 374.55 565.07 368.74 547.05 357C548.4 361.86 549.89 366.68 551.38 371.46C560.71 401.41 570.04 431.37 577.68 458.07Z" stroke="#55575A" stroke-miterlimit="10"/>
<path d="M300.239 412.54C309.509 424.45 321.139 434.52 334.239 442C333.539 440.45 332.769 438.94 331.929 437.47C325.069 425.52 313.459 416.39 300.239 412.54Z" stroke="#55575A" stroke-miterlimit="10"/>
<path d="M338.89 468.47C339.52 459.92 338.12 451.23 334.81 443.32C311.43 442.03 288.66 431.6 272.46 414.69C276.16 419.98 278.97 425.89 280.73 432.1C265.7 423.89 255.57 407.39 255.05 390.27C247.17 411.95 245.87 435.98 251.38 458.38C235.29 441.44 228.37 417.85 228.87 394.25C224.08 397.81 219.73 401.9 216.06 406.66C202.76 423.87 200.19 446.63 196.35 468.46H338.88L338.89 468.47Z" stroke="#55575A" stroke-miterlimit="10"/>
<path d="M511.719 468.469C510.709 466.649 509.619 464.879 508.409 463.189C508.699 464.939 508.909 466.699 509.089 468.469H511.719Z" stroke="#55575A" stroke-miterlimit="10"/>
<path d="M556.91 468.47C556.58 458.56 554.79 448.7 551.47 439.35C550.65 449.25 548.6 459.04 545.46 468.47H556.9H556.91Z" stroke="#55575A" stroke-miterlimit="10"/>
<path d="M334.25 442C334.45 442.44 334.63 442.89 334.81 443.33C335.48 443.37 336.14 443.4 336.81 443.42C335.95 442.96 335.1 442.48 334.25 442Z" stroke="#55575A" stroke-miterlimit="10"/>
<path d="M465.71 438.46C465.71 438.46 465.64 438.48 465.6 438.49C465.66 438.67 465.72 438.86 465.78 439.04C465.76 438.85 465.74 438.65 465.71 438.46Z" stroke="#55575A" stroke-miterlimit="10"/>
<path d="M463.139 384.359C462.619 402.419 463.479 420.529 465.719 438.459C470.489 436.969 474.809 435.839 478.119 435.329C470.009 419.469 464.899 402.089 463.139 384.359Z" stroke="#55575A" stroke-miterlimit="10"/>
<path d="M334.64 142.76C335 140.44 335.28 138.12 335.47 135.78" stroke="#55575A" stroke-miterlimit="10"/>
<path d="M352.49 278.44C353.55 279.48 354.64 280.51 355.77 281.55C354.6 280.47 353.51 279.43 352.49 278.44Z" stroke="#55575A" stroke-miterlimit="10"/>
<path d="M355.66 309.13C355.22 306.96 354.75 304.8 354.26 302.64C354.75 304.8 355.22 306.97 355.66 309.13Z" stroke="#55575A" stroke-miterlimit="10"/>
<path d="M353.51 299.39C353.01 297.23 352.49 295.07 351.97 292.9C352.49 295.06 353.01 297.22 353.51 299.39Z" stroke="#55575A" stroke-miterlimit="10"/>
<path d="M347.3 273.33C348.53 278.81 349.86 284.24 351.18 289.66C349.86 284.25 348.53 278.82 347.3 273.33Z" stroke="#55575A" stroke-miterlimit="10"/>
<path d="M352.34 381.32C354.21 376.32 355.66 371.43 356.75 366.64C355.66 371.44 354.21 376.32 352.34 381.32ZM352.34 381.32C352.15 381.81 351.96 382.31 351.77 382.81C351.96 382.31 352.16 381.82 352.34 381.32Z" stroke="#55575A" stroke-miterlimit="10"/>
<path d="M465.78 439.04C465.76 438.85 465.74 438.65 465.71 438.46C465.67 438.47 465.64 438.48 465.6 438.49C465.66 438.67 465.72 438.86 465.78 439.04Z" stroke="#55575A" stroke-miterlimit="10"/>
<path d="M472.6 423.16C481.84 439.52 488.67 454.97 493.75 468.47H351.23L351.22 468.48C357.77 463.41 363.03 457.53 359.16 453.64C332.74 427.13 333.76 393.35 348.86 389.65C348.13 391.23 347.37 392.82 346.55 394.42C345.63 396.24 344.96 398.2 344.53 400.22C344.36 401.03 344.22 401.85 344.13 402.67C343.8 405.55 343.93 408.51 344.49 411.34C344.65 412.15 344.84 412.95 345.07 413.73C345.41 414.91 345.87 416.02 346.42 417.07C347.39 418.91 348.67 420.55 350.15 422.03C350.78 422.66 351.44 423.28 352.15 423.85C354.04 425.38 356.17 426.7 358.41 427.83C361.21 429.24 364.2 430.37 367.13 431.26C370.65 432.33 374.29 433.23 377.85 434.28C380.23 434.98 382.57 435.74 384.83 436.66C388.22 438.04 391.4 439.77 394.2 442.16C395.35 443.14 397.07 444.61 399.16 446.24C400.05 446.94 401.02 447.67 402.04 448.4C402.38 448.64 402.73 448.89 403.08 449.13C404.14 449.86 405.24 450.59 406.38 451.28C407.14 451.74 407.91 452.18 408.7 452.61C409.1 452.82 409.49 453.03 409.89 453.23C411.08 453.83 412.29 454.38 413.51 454.84C418.38 456.69 423.32 457.2 427.39 454.7C429.12 453.64 431.27 452.47 433.71 451.25C434.94 450.64 436.23 450.02 437.58 449.39C438.26 449.07 438.95 448.76 439.65 448.44C445.97 445.59 453.28 442.67 460.16 440.29C461.09 439.96 462.01 439.65 462.92 439.35C463.83 439.05 464.73 438.76 465.61 438.48C465.67 438.66 465.73 438.85 465.79 439.03C465.76 438.84 465.74 438.64 465.72 438.45C464.92 432.07 464.31 425.67 463.86 419.25C463.46 413.44 463.19 407.63 463.07 401.81C462.95 395.99 462.97 390.17 463.14 384.35C464.46 397.65 467.66 410.75 472.6 423.16ZM472.6 423.16C474.11 426.95 475.79 430.68 477.62 434.33" stroke="#55575A" stroke-miterlimit="10"/>
<path d="M408.7 452.62C407.91 452.19 407.14 451.75 406.38 451.29C407.14 451.75 407.91 452.2 408.7 452.62Z" stroke="#55575A" stroke-miterlimit="10"/>
<path d="M413.51 454.85C412.29 454.39 411.08 453.84 409.89 453.24" stroke="#55575A" stroke-miterlimit="10"/>
<path d="M402.05 448.41C401.03 447.68 400.06 446.95 399.17 446.25C400.07 446.95 401.03 447.68 402.05 448.41Z" stroke="#55575A" stroke-miterlimit="10"/>
<path d="M437.57 449.399C436.22 450.029 434.93 450.649 433.7 451.259C434.92 450.649 436.21 450.029 437.57 449.399Z" stroke="#55575A" stroke-miterlimit="10"/>
<path d="M406.38 451.28C405.24 450.59 404.14 449.86 403.08 449.13C404.13 449.86 405.24 450.58 406.38 451.28Z" stroke="#55575A" stroke-miterlimit="10"/>
<path d="M367.14 431.27C364.21 430.38 361.22 429.26 358.42 427.84C361.22 429.25 364.21 430.38 367.14 431.27ZM367.14 431.27C370.66 432.34 374.3 433.24 377.86 434.29" stroke="#55575A" stroke-miterlimit="10"/>
<path d="M394.21 442.18C391.41 439.79 388.22 438.06 384.84 436.68C388.23 438.06 391.41 439.79 394.21 442.18ZM394.21 442.18C395.36 443.16 397.07 444.63 399.17 446.26C397.08 444.63 395.36 443.16 394.21 442.18Z" stroke="#55575A" stroke-miterlimit="10"/>
<path d="M460.15 440.299C453.28 442.679 445.96 445.599 439.64 448.449C445.96 445.599 453.27 442.679 460.15 440.299ZM460.15 440.299C461.08 439.979 462 439.659 462.91 439.359C462 439.659 461.08 439.969 460.15 440.299Z" stroke="#55575A" stroke-miterlimit="10"/>
<path d="M358.42 427.839C356.18 426.709 354.05 425.389 352.16 423.859" stroke="#55575A" stroke-miterlimit="10"/>
<path d="M350.16 422.029C350.79 422.669 351.46 423.279 352.16 423.849C351.45 423.279 350.79 422.659 350.16 422.029Z" stroke="#55575A" stroke-miterlimit="10"/>
<path d="M384.84 436.68C382.58 435.76 380.24 435 377.86 434.3" stroke="#55575A" stroke-miterlimit="10"/>
<path d="M478.11 435.33C477.94 435 477.78 434.67 477.62 434.34C477.79 434.67 477.94 435 478.11 435.33Z" stroke="#55575A" stroke-miterlimit="10"/>
<path d="M465.78 439.04C465.76 438.85 465.74 438.65 465.71 438.46C465.73 438.65 465.75 438.85 465.78 439.04Z" stroke="#55575A" stroke-miterlimit="10"/>
<path d="M490.2 138.58C490.48 138.95 490.73 139.35 490.92 139.8" stroke="#55575A" stroke-miterlimit="10"/>
<path d="M486.75 152.85C487.94 151.19 488.86 149.69 489.56 148.35C488.86 149.69 487.94 151.18 486.75 152.85Z" stroke="#55575A" stroke-miterlimit="10"/>
<path d="M489.46 137.75C489.46 137.75 489.46 137.75 489.47 137.76C489.47 137.76 489.47 137.76 489.46 137.75Z" stroke="#55575A" stroke-miterlimit="10"/>
<path d="M334.81 443.34C311.44 442.05 288.66 431.62 272.46 414.71C276.16 420 278.97 425.91 280.73 432.12C265.7 423.91 255.57 407.41 255.05 390.29C247.17 411.97 245.87 436 251.38 458.4C235.28 441.46 228.37 417.87 228.87 394.27C229.08 384.78 230.47 375.28 232.96 366.22C239.5 342.41 252.49 320.98 262.92 298.59C273.34 276.2 278.2 198.73 279.11 178.88C280.02 159.03 301.02 96.2798 328.43 59.3298C339.53 44.3698 354.49 31.8098 372.57 27.2898C389.88 22.9598 408.74 25.2998 424.5 33.6298C425.2 34.0098 425.91 34.3698 426.6 34.7698C434.5 39.2898 441.76 45.5998 445.38 53.9498C447.21 58.1598 445.16 65.4598 443.21 70.6398C442.52 70.3798 440.49 69.6898 437.64 68.9398C433.34 67.8098 427.19 66.5698 420.99 66.5398C404.58 66.4498 385.03 70.5698 377.12 74.8498C367.42 80.0998 347.32 98.4198 338.42 113.36C334.89 119.28 335.78 129.57 335.74 130.86C335.69 132.5 335.6 134.14 335.47 135.78C335.28 138.12 335 140.44 334.64 142.76C333.61 149.37 331.89 155.87 329.51 162.13C328.93 163.67 328.3 165.19 327.64 166.69C327.31 167.44 326.97 168.19 326.62 168.93C321.32 181.4 320.73 196.11 322.87 210.07C324.43 220.26 328.09 230.32 331.5 240C334.22 247.72 336.79 255.55 340.52 262.86C342.47 266.69 344.77 269.96 347.36 273C347.3 273.19 347.28 273.31 347.3 273.33C348.53 278.82 349.86 284.25 351.18 289.66C351.45 290.75 351.71 291.83 351.97 292.91C352.49 295.08 353.01 297.24 353.51 299.4C353.76 300.48 354.01 301.56 354.25 302.64C354.74 304.8 355.21 306.96 355.65 309.13C356.32 312.38 356.92 315.64 357.45 318.92C357.8 321.11 358.11 323.3 358.38 325.5C359.99 338.71 360 352.27 356.74 366.65C355.65 371.45 354.2 376.33 352.33 381.33C352.15 381.83 351.95 382.32 351.76 382.82C351.42 383.7 351.07 384.58 350.7 385.47C350.13 386.86 349.52 388.26 348.87 389.66C333.77 393.37 332.75 427.15 359.17 453.65C363.04 457.53 357.78 463.42 351.23 468.49H338.89C339.52 459.94 338.12 451.25 334.81 443.34ZM334.81 443.34C334.62 442.9 334.44 442.45 334.25 442.01M334.81 443.34C335.48 443.38 336.14 443.41 336.81 443.43C335.95 442.97 335.1 442.49 334.25 442.01M334.25 442.01C321.14 434.53 309.52 424.46 300.25 412.55C313.48 416.4 325.09 425.53 331.94 437.48C332.78 438.95 333.55 440.46 334.25 442.01Z" stroke="#55575A" stroke-miterlimit="10"/>
<path d="M451.33 370.399C451.33 372.419 451.37 374.439 451.47 376.459C451.37 374.439 451.32 372.419 451.33 370.399Z" stroke="#55575A" stroke-miterlimit="10"/>
<path d="M465.99 314.1C464.94 317.39 463.74 320.64 462.5 323.88C463.74 320.65 464.94 317.4 465.99 314.1Z" stroke="#55575A" stroke-miterlimit="10"/>
<path d="M451.67 362.5C451.45 365.13 451.34 367.77 451.33 370.4C451.34 367.76 451.45 365.13 451.67 362.5Z" stroke="#55575A" stroke-miterlimit="10"/>
<path d="M452.7 354.34C452.35 356.34 452.08 358.34 451.87 360.35C452.08 358.34 452.36 356.34 452.7 354.34Z" stroke="#55575A" stroke-miterlimit="10"/>
<path d="M458.75 333.569C458.14 335.189 457.54 336.809 456.97 338.439C457.54 336.809 458.14 335.179 458.75 333.569Z" stroke="#55575A" stroke-miterlimit="10"/>
<path d="M455.35 403.04C455.45 403.47 455.55 403.9 455.65 404.33" stroke="#55575A" stroke-miterlimit="10"/>
<path d="M454.44 398.84V398.86" stroke="#55575A" stroke-miterlimit="10"/>
<path d="M453.42 393.38C453.49 393.8 453.56 394.23 453.64 394.65" stroke="#55575A" stroke-miterlimit="10"/>
<path d="M457.49 411.689C457.6 412.089 457.7 412.499 457.81 412.899" stroke="#55575A" stroke-miterlimit="10"/>
<path d="M456.36 407.279C456.48 407.749 456.59 408.219 456.71 408.689C456.59 408.219 456.47 407.749 456.36 407.279Z" stroke="#55575A" stroke-miterlimit="10"/>
<path d="M452.16 384.7C452.21 385.14 452.27 385.57 452.32 386.01" stroke="#55575A" stroke-miterlimit="10"/>
<path d="M465.48 268.6C464.11 270.88 460.74 274.89 455.96 279.45C445.24 289.67 427.43 302.66 409.13 305.2C403.02 306.05 396.86 304.18 390.89 302.43C372.24 296.95 362.74 288.01 355.77 281.56C354.64 280.52 353.55 279.49 352.49 278.45C350.48 276.5 348.75 274.76 347.3 273.34C348.53 278.82 349.86 284.25 351.18 289.67C351.44 290.75 351.71 291.83 351.97 292.92C352.49 295.08 353.01 297.24 353.51 299.41C353.76 300.49 354.01 301.57 354.25 302.65C354.74 304.81 355.21 306.98 355.65 309.14C356.32 312.39 356.92 315.65 357.45 318.93C357.8 321.11 358.11 323.31 358.38 325.51C359.99 338.72 360 352.27 356.74 366.66C355.65 371.45 354.2 376.34 352.33 381.34C352.14 381.83 351.95 382.33 351.76 382.83C351.42 383.71 351.07 384.59 350.7 385.48C350.12 386.87 349.51 388.26 348.87 389.67C348.14 391.25 347.38 392.84 346.56 394.44C345.63 396.26 344.96 398.22 344.54 400.24C344.37 401.05 344.24 401.87 344.14 402.69C343.81 405.57 343.94 408.53 344.5 411.36C344.66 412.17 344.85 412.97 345.08 413.75C345.42 414.93 345.88 416.04 346.43 417.09C347.4 418.93 348.68 420.57 350.16 422.05C350.79 422.69 351.46 423.3 352.16 423.87C354.05 425.4 356.18 426.72 358.42 427.85C361.22 429.27 364.21 430.39 367.14 431.28C370.66 432.35 374.3 433.25 377.86 434.3C380.24 435 382.58 435.76 384.84 436.68C388.22 438.06 391.41 439.79 394.21 442.18C395.36 443.16 397.07 444.63 399.17 446.26C400.07 446.96 401.03 447.69 402.05 448.42C402.39 448.66 402.74 448.91 403.09 449.15C404.14 449.88 405.25 450.6 406.39 451.3C407.15 451.76 407.92 452.21 408.71 452.63C409.1 452.84 409.5 453.05 409.9 453.25C411.09 453.85 412.3 454.4 413.52 454.86C418.39 456.71 423.33 457.21 427.4 454.72C429.13 453.66 431.28 452.49 433.72 451.27C434.94 450.66 436.23 450.04 437.59 449.41C438.27 449.1 438.96 448.78 439.66 448.46C445.98 445.61 453.3 442.69 460.17 440.31C461.1 439.99 462.02 439.68 462.93 439.37C463.84 439.07 464.74 438.78 465.62 438.5C465.12 436.97 464.62 435.43 464.13 433.88C464 433.49 463.88 433.1 463.75 432.71C462.73 429.52 461.72 426.31 460.75 423.09C460.63 422.7 460.52 422.32 460.4 421.93C459.92 420.32 459.44 418.7 458.98 417.08C458.98 417.08 458.98 417.08 458.98 417.07C458.59 415.69 458.2 414.3 457.83 412.91C457.72 412.51 457.62 412.1 457.51 411.7C457.25 410.7 456.99 409.7 456.73 408.7C456.61 408.23 456.49 407.76 456.38 407.29C456.14 406.3 455.9 405.32 455.67 404.33C455.57 403.9 455.47 403.47 455.37 403.04C455.05 401.65 454.75 400.26 454.46 398.87V398.85C454.17 397.46 453.91 396.06 453.66 394.66C453.58 394.24 453.51 393.81 453.44 393.39C453.27 392.4 453.11 391.42 452.96 390.43C452.89 389.94 452.81 389.46 452.74 388.97C452.6 387.99 452.47 387.01 452.35 386.02C452.3 385.58 452.24 385.15 452.19 384.71C452.03 383.31 451.89 381.91 451.77 380.51C451.66 379.16 451.57 377.82 451.5 376.47C451.4 374.45 451.35 372.43 451.36 370.41C451.37 367.77 451.48 365.14 451.7 362.51C451.76 361.79 451.82 361.07 451.9 360.36C452.11 358.35 452.39 356.35 452.73 354.35C452.96 353.02 453.22 351.69 453.52 350.36C453.67 349.7 453.82 349.03 453.99 348.37C454.82 345.01 455.86 341.72 457 338.45C457.57 336.82 458.17 335.19 458.78 333.58C460.01 330.34 461.29 327.12 462.53 323.89C463.77 320.66 464.97 317.41 466.02 314.11C466.55 312.46 467.04 310.81 467.48 309.13C471.13 295.38 466.2 282.89 465.51 268.61L465.48 268.6Z" stroke="#55575A" stroke-miterlimit="10"/>
<path d="M452.71 388.96C452.78 389.45 452.85 389.93 452.93 390.42C452.86 389.93 452.78 389.45 452.71 388.96Z" stroke="#55575A" stroke-miterlimit="10"/>
<path d="M490.92 139.81C490.73 139.36 490.48 138.96 490.2 138.59C489.97 138.29 489.73 138.02 489.47 137.77C489.47 137.77 489.47 137.77 489.46 137.76C486.97 135.4 463.08 113.73 458.17 108.95C453.26 104.17 446.23 96.5298 443.24 90.3598C441.07 85.8898 442.57 72.4198 443.33 70.6898C443.3 70.6798 443.26 70.6598 443.22 70.6498C442.53 70.3898 440.5 69.6998 437.65 68.9498C433.35 67.8198 427.2 66.5798 421 66.5498C404.58 66.4598 385.04 70.5798 377.13 74.8598C367.43 80.0998 347.33 98.4298 338.43 113.37C334.9 119.29 335.79 129.59 335.75 130.87C335.7 132.51 335.61 134.15 335.48 135.79C335.29 138.13 335.01 140.45 334.65 142.77C333.62 149.38 331.9 155.89 329.52 162.14C328.94 163.68 328.31 165.2 327.65 166.7C327.32 167.45 326.98 168.2 326.63 168.94C321.33 181.41 320.74 196.12 322.88 210.08C324.44 220.27 328.1 230.33 331.51 240.01C334.23 247.73 336.8 255.55 340.53 262.87C342.48 266.7 344.78 269.97 347.37 273.01C348.97 274.89 350.68 276.68 352.5 278.45C353.52 279.44 354.61 280.48 355.78 281.56C362.75 288.01 372.25 296.94 390.9 302.43C396.87 304.19 403.03 306.05 409.14 305.2C427.44 302.66 445.25 289.67 455.97 279.45C460.75 274.89 464.12 270.88 465.49 268.6C471.11 259.23 476.39 243.16 477.7 232.65C478.02 230.05 478.81 224.44 479.76 217.79C481.57 205.16 484 188.8 485.01 182.37C486.56 172.56 490.41 163.08 485.63 154.37C486.03 153.84 486.4 153.34 486.76 152.84C487.95 151.17 488.87 149.68 489.57 148.34C490.5 146.55 491.03 145.03 491.26 143.73C491.38 143.08 491.42 142.49 491.4 141.94C491.37 141.12 491.2 140.41 490.94 139.79L490.92 139.81Z" stroke="#55575A" stroke-miterlimit="10"/>
<path d="M463.07 401.819C463.19 407.639 463.46 413.449 463.86 419.259C463.45 413.449 463.19 407.639 463.07 401.819Z" stroke="#55575A" stroke-miterlimit="10"/>
<path d="M551.38 371.47C549.89 366.68 548.4 361.86 547.05 357.01C543.91 345.67 541.58 334.14 542.06 322.44C542.81 304.05 550.41 286.61 552.69 268.35C556.09 241.08 547.47 213.89 538.97 187.76C528.15 154.48 517.28 121.11 502.4 89.4399C492.2 67.7299 478.9 45.6899 457.36 35.1499C447.19 30.1799 434.18 28.6799 424.51 33.6399C425.21 34.0099 425.92 34.3799 426.61 34.7799C434.51 39.3099 441.77 45.6099 445.39 53.9599C447.22 58.1799 445.17 65.4799 443.22 70.6499C443.26 70.6699 443.3 70.6799 443.33 70.6899C442.57 72.4199 441.07 85.8999 443.24 90.3599C446.23 96.5299 453.26 104.16 458.17 108.95C463.08 113.73 486.97 135.4 489.47 137.77C489.73 138.02 489.98 138.29 490.2 138.59C490.48 138.96 490.73 139.36 490.92 139.81C491.18 140.43 491.35 141.14 491.38 141.96C491.4 142.51 491.36 143.1 491.24 143.75C491.01 145.05 490.48 146.57 489.55 148.36C488.85 149.7 487.93 151.19 486.74 152.86C487.2 152.62 487.88 156.47 488 156.76C488.98 159.09 490.32 158.57 491.59 160.55C492.12 161.37 492.36 162.33 492.59 163.28C493.93 168.67 495.53 174.01 495.92 179.57C496.33 185.47 493.99 190.9 493.99 196.54C492.53 201.59 499.25 210.2 496.92 214.92C495.23 218.34 491 219.88 487.19 219.54C486.18 219.45 483.19 218.73 479.72 217.81C478.77 224.45 477.98 230.07 477.66 232.67C476.36 243.18 471.07 259.25 465.45 268.62C466.14 282.9 471.07 295.39 467.42 309.14C466.98 310.81 466.48 312.47 465.96 314.12C464.91 317.41 463.71 320.66 462.47 323.9C461.23 327.13 459.95 330.36 458.72 333.59C458.11 335.21 457.51 336.83 456.94 338.46C455.8 341.72 454.76 345.02 453.93 348.38C453.77 349.04 453.61 349.71 453.46 350.37C453.17 351.7 452.9 353.03 452.67 354.36C452.32 356.36 452.05 358.36 451.84 360.37C451.76 361.09 451.7 361.81 451.64 362.52C451.42 365.15 451.31 367.79 451.3 370.42C451.3 372.44 451.34 374.46 451.44 376.48C451.51 377.83 451.6 379.17 451.71 380.52C451.83 381.92 451.97 383.32 452.13 384.72C452.18 385.16 452.24 385.59 452.29 386.03C452.41 387.01 452.54 387.99 452.68 388.98C452.75 389.47 452.82 389.95 452.9 390.44C453.05 391.43 453.21 392.41 453.38 393.4C453.45 393.82 453.52 394.25 453.6 394.67C453.85 396.07 454.12 397.46 454.4 398.86V398.88C454.69 400.27 454.99 401.66 455.31 403.05C455.41 403.48 455.51 403.91 455.61 404.34C455.84 405.33 456.08 406.32 456.32 407.3C456.44 407.77 456.55 408.24 456.67 408.71C456.92 409.71 457.18 410.71 457.45 411.71C457.56 412.11 457.66 412.52 457.77 412.92C458.14 414.31 458.53 415.69 458.93 417.1C459.39 418.72 459.87 420.34 460.35 421.95C460.47 422.34 460.58 422.72 460.7 423.11C461.67 426.33 462.68 429.54 463.7 432.73C463.83 433.12 463.95 433.51 464.08 433.9C464.58 435.44 465.08 436.98 465.57 438.52C465.61 438.51 465.64 438.5 465.68 438.49C464.88 432.11 464.27 425.7 463.82 419.29C463.41 413.48 463.15 407.67 463.03 401.85C462.91 396.03 462.93 390.21 463.1 384.39C464.42 397.68 467.62 410.78 472.56 423.2C481.8 439.56 488.63 455.01 493.71 468.51H509.06C508.88 466.74 508.66 464.98 508.38 463.23C509.59 464.92 510.68 466.69 511.69 468.51H545.43C548.57 459.08 550.61 449.3 551.44 439.39C554.76 448.74 556.55 458.6 556.88 468.51H576.47C577.08 465.07 577.48 461.6 577.64 458.11C570 431.41 560.67 401.46 551.34 371.5L551.38 371.47Z" stroke="#55575A" stroke-miterlimit="10"/>
<path d="M464.11 433.87C463.98 433.48 463.86 433.09 463.73 432.7" stroke="#55575A" stroke-miterlimit="10"/>
<path d="M460.73 423.08C460.61 422.69 460.5 422.31 460.38 421.92" stroke="#55575A" stroke-miterlimit="10"/>
<path d="M458.96 417.06C458.96 417.06 458.96 417.06 458.96 417.07C458.96 417.07 458.96 417.07 458.96 417.06Z" stroke="#55575A" stroke-miterlimit="10"/>
<path d="M403.77 238.31C395.08 236.13 374.84 236.07 366.58 236.14C369.03 239.65 374.87 246.77 384.63 251.28C397.98 257.45 412.08 255.29 418.12 255.04C423.4 254.82 435 249.53 441.22 236.47C428.24 234.89 413.11 240.65 403.77 238.31Z" fill="white"/>
<path d="M443.859 236.9C430.349 234.05 413.759 240.81 403.779 238.31C392.719 235.54 362.979 236.19 362.979 236.19" stroke="#55575A" stroke-miterlimit="10"/>
<path d="M490.329 172.3C499.339 191.1 489.009 194.63 489.009 194.63C489.009 194.63 487.349 200.67 485.849 199.5C484.349 198.33 492.279 184.39 490.329 179.19" stroke="#55575A" stroke-miterlimit="10"/>
<path d="M480.58 121.08C480.58 121.08 484.36 132.79 507.52 170.57C530.69 208.35 530.19 232.78 513.06 262.74C495.94 292.7 464.57 345.61 463.85 364.99" stroke="#55575A" stroke-miterlimit="10"/>
<path d="M327.329 262.74C327.329 262.74 301.529 248.64 292.959 222.45C284.399 196.26 331.819 118.1 331.819 118.1" stroke="#55575A" stroke-miterlimit="10"/>
<path d="M286.92 412.8C285.41 411.83 251.16 399.74 279.87 372.54C308.58 345.34 336.25 304.21 334.25 274.32" stroke="#55575A" stroke-miterlimit="10"/>
<path d="M525.47 262.74C524.66 265.26 470.98 362.94 498.57 384.36C526.16 405.78 563.44 435 563.44 435" stroke="#55575A" stroke-miterlimit="10"/>
<path d="M458.17 66.5396C458.17 66.5396 488.6 74.5995 494.66 130.28" stroke="#55575A" stroke-miterlimit="10"/>
<path d="M362.47 168.14C366.551 168.14 369.86 164.831 369.86 160.75C369.86 156.668 366.551 153.36 362.47 153.36C358.389 153.36 355.08 156.668 355.08 160.75C355.08 164.831 358.389 168.14 362.47 168.14Z" fill="#55575A"/>
<path d="M441.22 166.91C445.301 166.91 448.61 163.601 448.61 159.52C448.61 155.438 445.301 152.13 441.22 152.13C437.139 152.13 433.83 155.438 433.83 159.52C433.83 163.601 437.139 166.91 441.22 166.91Z" fill="#55575A"/>
<path d="M491.929 145.33C490.839 143.84 486.789 139.11 485.109 139.87C486.049 140.12 486.609 140.39 486.679 140.68C487.229 142.95 487.639 148.08 487.009 150.33C486.899 150.72 486.789 151.11 486.679 151.5C486.669 151.83 486.679 152.16 486.719 152.49C486.889 153.81 487.729 155.16 489.029 155.46C490.209 155.74 491.469 155.06 492.169 154.06C492.869 153.07 493.099 151.82 493.169 150.61C493.279 148.77 493.019 146.82 491.929 145.33Z" fill="white"/>
<path d="M486.68 140.68C486.61 140.39 486.05 140.12 485.11 139.87C478.65 138.14 453.96 137.43 442.72 139.68C431 142.02 417.88 145.87 405.8 147.87C403.46 148.26 401.09 148.33 398.73 148.04C385.96 146.49 371.41 142.53 358.26 140.68C343.89 138.66 316.67 142.95 315.93 143.83C315.19 144.72 314.87 145.9 314.82 147.05C314.75 149 315.41 150.89 316.06 152.73L317.83 157.73C319.72 163.09 321.62 168.45 323.51 173.81C325.69 179.02 328.62 184.03 333.44 186.65C336.52 188.32 340.07 188.83 343.56 189.16C352.61 190.02 378.32 188.96 384.28 185.55C389.82 182.38 392.91 165.87 395.83 162.75C399.58 158.75 406.65 158.55 410.61 162.34C414.24 165.82 414.87 171.3 416.98 175.86C418.92 180.05 422.31 183.63 426.57 185.42C431.57 187.52 437.31 187.06 442.59 187.26C447.93 187.46 453.28 187.28 458.57 186.5C464.36 185.65 471.14 184.32 475.64 180.01C479.66 176.17 481.32 170.54 482.82 165.18C484.1 160.62 485.38 156.06 486.65 151.5C486.76 151.11 486.87 150.72 486.98 150.33C487.61 148.08 487.2 142.95 486.65 140.68H486.68ZM389.59 169.36C388.42 174.38 385.79 179.13 381.83 182.44C377.87 185.75 353.68 186.98 346.48 185.67C341.7 184.8 335.84 182.56 332.34 179.18C327.34 174.35 325.37 153.1 329.78 149.21C332.28 147 335.7 146.26 339.03 146.04C351.3 145.25 377.68 145.98 390.18 155.52C391.91 156.84 390.5 165.45 389.59 169.36ZM474.48 175.8C471.8 180.27 466.23 181.96 461.12 182.98C454.5 184.3 431.09 185.73 426.83 183.48C414.79 177.12 412.33 157.43 415.46 152.91C417.14 150.48 431.36 145.44 443.9 143.5C452.15 142.23 471.59 143.65 474.46 146.16C476.83 148.24 477.77 151.51 478.15 154.64C479.1 162.4 477.58 170.64 474.48 175.8Z" fill="white"/>
<path d="M491.769 148.76C490.679 147.27 486.629 142.54 484.949 143.3C485.889 143.55 486.449 143.82 486.519 144.11C487.069 146.38 487.479 151.51 486.849 153.76C486.739 154.15 486.629 154.54 486.519 154.93C486.509 155.26 486.519 155.59 486.559 155.92C486.729 157.24 487.569 158.59 488.869 158.89C490.049 159.17 491.309 158.49 492.009 157.49C492.709 156.5 492.939 155.25 493.009 154.04C493.119 152.2 492.859 150.25 491.769 148.76Z" fill="#37383B"/>
<path d="M486.51 144.11C486.44 143.82 485.88 143.55 484.94 143.3C478.48 141.57 453.79 140.86 442.55 143.11C430.83 145.45 417.71 149.3 405.63 151.3C403.29 151.69 400.92 151.76 398.56 151.47C385.79 149.92 371.24 145.96 358.09 144.11C343.72 142.09 316.5 146.38 315.76 147.26C315.02 148.15 314.7 149.33 314.65 150.48C314.58 152.43 315.24 154.32 315.89 156.16L317.66 161.16C319.55 166.52 321.45 171.88 323.34 177.24C325.52 182.45 328.45 187.46 333.27 190.08C336.35 191.75 339.9 192.26 343.39 192.59C352.44 193.45 378.15 192.39 384.11 188.98C389.65 185.81 392.74 169.3 395.66 166.18C399.41 162.18 406.48 161.98 410.44 165.77C414.07 169.25 414.7 174.73 416.81 179.29C418.75 183.48 422.14 187.06 426.4 188.85C431.4 190.95 437.14 190.49 442.42 190.69C447.76 190.89 453.11 190.71 458.4 189.93C464.19 189.08 470.97 187.75 475.47 183.44C479.49 179.6 481.15 173.97 482.65 168.61C483.93 164.05 485.21 159.49 486.48 154.93C486.59 154.54 486.7 154.15 486.81 153.76C487.44 151.51 487.03 146.38 486.48 144.11H486.51ZM389.43 172.79C388.26 177.81 385.63 182.56 381.67 185.87C377.71 189.18 353.52 190.41 346.32 189.1C341.54 188.23 335.68 185.99 332.18 182.61C327.18 177.78 325.21 156.53 329.62 152.64C332.12 150.43 335.54 149.69 338.87 149.47C351.14 148.68 377.52 149.41 390.02 158.95C391.75 160.27 390.34 168.88 389.43 172.79ZM474.31 179.23C471.63 183.7 466.06 185.39 460.95 186.41C454.33 187.73 430.92 189.16 426.66 186.91C414.62 180.55 412.16 160.86 415.29 156.34C416.97 153.91 431.19 148.87 443.73 146.93C451.98 145.66 471.42 147.08 474.29 149.59C476.66 151.67 477.6 154.94 477.98 158.07C478.93 165.83 477.41 174.07 474.31 179.23Z" fill="#37383B"/>
<path d="M491.88 147.569C490.79 146.079 486.74 141.349 485.06 142.109C486 142.359 486.56 142.629 486.63 142.919C487.18 145.189 487.59 150.319 486.96 152.569C486.85 152.959 486.74 153.349 486.63 153.739C486.62 154.069 486.63 154.399 486.67 154.729C486.84 156.049 487.68 157.399 488.98 157.699C490.16 157.979 491.42 157.299 492.12 156.299C492.82 155.309 493.05 154.059 493.12 152.849C493.23 151.009 492.97 149.059 491.88 147.569Z" stroke="#55575A" stroke-miterlimit="10"/>
<path d="M486.62 142.92C486.55 142.63 485.99 142.36 485.05 142.11C478.59 140.38 453.9 139.67 442.66 141.92C430.94 144.26 417.82 148.11 405.74 150.11C403.4 150.5 401.03 150.57 398.67 150.28C385.9 148.73 371.35 144.77 358.2 142.92C343.83 140.9 316.61 145.19 315.87 146.07C315.13 146.96 314.81 148.14 314.76 149.29C314.69 151.24 315.35 153.13 316 154.97L317.77 159.97C319.66 165.33 321.56 170.69 323.45 176.05C325.63 181.26 328.56 186.27 333.38 188.89C336.46 190.56 340.01 191.07 343.5 191.4C352.55 192.26 378.26 191.2 384.22 187.79C389.76 184.62 392.85 168.11 395.77 164.99C399.52 160.99 406.59 160.79 410.55 164.58C414.18 168.06 414.81 173.54 416.92 178.1C418.86 182.29 422.25 185.87 426.51 187.66C431.51 189.76 437.25 189.3 442.53 189.5C447.87 189.7 453.22 189.52 458.51 188.74C464.3 187.89 471.08 186.56 475.58 182.25C479.6 178.41 481.26 172.78 482.76 167.42C484.04 162.86 485.32 158.3 486.59 153.74C486.7 153.35 486.81 152.96 486.92 152.57C487.55 150.32 487.14 145.19 486.59 142.92H486.62ZM389.54 171.6C388.37 176.62 385.74 181.37 381.78 184.68C377.82 187.99 353.63 189.22 346.43 187.91C341.65 187.04 335.79 184.8 332.29 181.42C327.29 176.59 325.32 155.34 329.73 151.45C332.23 149.24 335.65 148.5 338.98 148.28C351.25 147.49 377.63 148.22 390.13 157.76C391.86 159.08 390.45 167.69 389.54 171.6ZM474.42 178.03C471.74 182.5 466.17 184.19 461.06 185.21C454.44 186.53 431.03 187.96 426.77 185.71C414.73 179.35 412.27 159.66 415.4 155.14C417.08 152.71 431.3 147.67 443.84 145.73C452.09 144.46 471.53 145.88 474.4 148.39C476.77 150.47 477.71 153.74 478.09 156.87C479.04 164.63 477.52 172.87 474.42 178.03Z" stroke="#55575A" stroke-miterlimit="10"/>
<path d="M403.77 238.31C395.08 236.13 374.84 236.07 366.58 236.14C369.03 239.65 374.87 246.77 384.63 251.28C397.98 257.45 412.08 255.29 418.12 255.04C423.4 254.82 435 249.53 441.22 236.47C428.24 234.89 413.11 240.65 403.77 238.31Z" stroke="#55575A" stroke-miterlimit="10"/>
</g>
</g>
<defs>
<clipPath id="clip0_60_94">
<rect width="841.89" height="467.72" fill="white"/>
</clipPath>
</defs>
</svg>
