<?xml version="1.0" encoding="UTF-8"?>
<svg id="Layer_1" xmlns="http://www.w3.org/2000/svg" xmlns:xlink="http://www.w3.org/1999/xlink" version="1.1" viewBox="0 0 841.89 467.72">
  <!-- Generator: Adobe Illustrator 29.0.0, SVG Export Plug-In . SVG Version: 2.1.0 Build 186)  -->
  <defs>
    <style>
      .st0, .st1, .st2 {
        fill: none;
      }

      .st3 {
        fill: #ecceaa;
      }

      .st4 {
        fill: #f4e1de;
      }

      .st5, .st6 {
        fill: #ecc66c;
      }

      .st7, .st8 {
        fill: #55565a;
      }

      .st8, .st1, .st2, .st6 {
        stroke-miterlimit: 10;
        stroke-width: .76px;
      }

      .st8, .st1, .st6 {
        stroke: #55565a;
      }

      .st9 {
        fill: #fff;
      }

      .st10 {
        fill: #1c1d1f;
      }

      .st11 {
        fill: #524530;
      }

      .st2 {
        stroke: #1c1d1f;
      }

      .st12 {
        clip-path: url(#clippath);
      }
    </style>
    <clipPath id="clippath">
      <rect class="st0" y="0" width="841.89" height="467.72"/>
    </clipPath>
  </defs>
  <g class="st12">
    <rect class="st4" y="0" width="841.89" height="467.72"/>
    <g>
      <path class="st9" d="M428.19,471.19c-2.78-3.03-4.66-6.76-6.51-10.44-3.55-7.09-7.11-14.17-10.66-21.26-5.15-10.27-10.31-20.55-14.71-31.17-5.46-13.17-9.75-26.79-14.02-40.39-7.31-23.24-14.61-46.47-21.92-69.71-5.63,1.17-11.11,2.75-15.83,5.95-2.24,1.52-4.28,3.39-6.77,4.48-2.88,1.26-6.12,1.37-9.27,1.39-11.38.06-22.77-.82-34.01-2.61-5.7.37-11.4.76-16.69,2.83-4.79,1.87-8.97,5.03-12.87,8.38-7.15,6.13-13.65,13.02-19.34,20.53-8.36,11.02-14.93,23.26-22.21,35.03-9.88,15.97-21.12,31.13-29.7,47.83-8.59,16.7-14.49,35.41-12.64,54.09,26.91-2.75,53.96-4.76,81.01-4.94,18.08-.21,35.79-.41,53.5-.61,22.91-.26,45.86-.52,68.71,1.2,17.57,1.33,35.1,3.82,52.63,5.68-3.24-1.62-6.26-3.61-8.7-6.26h0Z"/>
      <path class="st9" d="M634.5,363.48c-2.18-2.88-4.45-5.75-7.32-7.93-3.57-2.71-7.88-4.21-12.11-5.68-11.87-4.11-23.73-8.22-35.6-12.33-5-1.73-10.08-3.5-14.38-6.59-4.16-2.98-7.44-7.08-11.64-10.02-6.01-4.2-13.55-5.78-19.97-9.22.51.52,1.03,1.04,1.51,1.59,7.6,8.65,9.23,20.87,10.47,32.32,4.59,42.16,8.52,85.41-.61,126.64,9.32-1.11,18.66-1.87,28.05-1.75,22.26.27,44.34,5.36,66.59,4.47,15.41-.62,32.54-3.66,44.89,5.58-5.78-42.84-23.97-82.87-49.88-117.08h0Z"/>
      <path class="st9" d="M533.8,154.35c-.28-.56-.67-1.08-.84-1.69-.4-1.36.3-2.76.55-4.16.56-3.1-1.1-6.12-1.71-9.21-.44-2.21-.33-4.48-.45-6.73-.14-2.58-.58-5.13-1.02-7.67-.24-1.37-.48-2.75-.91-4.08-.8-2.43-2.29-4.62-4.22-6.3l3.56,14.63s4.73,16.47-1.13,22.06c-3.8,3.62-2.68,9.42-1.41,13.07l1.41,3.33s-.73-1.35-1.41-3.33l-23.97-56.44c-5.12-9.43-10.42-18.65-17.16-27.12-1.22-1.53-6.22-2.99-7.71-4.27-1.72-1.47-3.73-2.57-5.63-3.8-13.38-8.71-21.97-24.7-37.15-29.62-5.09-1.65-10.55-1.88-15.99-1.85-8.3,6.61-17.04,12.76-26.54,17.48-9.43,4.69-19.99,8.27-26.7,16.39-6.38,7.73-8.1,18.21-9.04,28.19-1.84,19.44-1.63,39.08.63,58.48.58,5.01,1.31,10.02,2.8,14.84,1.85,5.96,4.85,11.55,6.16,17.64,1.78,8.34,1.36,17.43,5.32,25.18,4.06,7.5,4.69,16.2,9.25,23.41.65,1.02,1.36,1.99,2.11,2.93,3.09,3.9,6.97,7.17,11.21,9.83.77.48,1.55.95,2.34,1.4,3.93,2.22,8.09,3.99,12.33,5.56,2.44.9,4.9,1.74,7.37,2.55,5.41,1.78,21.69,11.01,25.05,12.54,12.22,5.59,30.8-1.03,34.42-2.83.13-.06.26-.13.39-.19,2.93-1.46,5.87-2.92,8.6-4.72,10.91-7.17,17.58-18.84,25.22-29.58.05-.08.11-.15.17-.23,1.72-2.41,3.48-4.77,5.36-7.02,2.99-3.58,6.3-6.93,8.73-10.91,3.05-4.99,4.58-10.75,5.65-16.49,1.93-10.41,2.39-21.49-1.58-31.4,3.66-4.07,5.99-9.31,6.58-14.76.19-1.73.18-3.57-.6-5.13l-.04.02Z"/>
      <path class="st9" d="M545.47,345.63c-1.25-11.45-2.87-23.67-10.47-32.32-.48-.55-.99-1.07-1.51-1.59-1.52-.82-2.99-1.74-4.35-2.82-6.79-5.42-10.09-14.3-10.67-22.97-.15-2.3-.13-4.61.02-6.9-3.15,1.61-6.45,3.23-10.02,4.88.56-4.99.94-10,1.13-15.02h0c.19-5.01.21-10.02.04-15.02-.15-4.3-.43-8.61-.19-12.91.01-.22.04-.45.05-.67-7.64,10.74-14.3,22.41-25.22,29.58-2.73,1.8-5.67,3.26-8.6,4.72-.13.06-.26.13-.39.19-3.62,1.8-22.21,8.42-34.42,2.83-3.36-1.54-19.64-10.76-25.05-12.54-2.47-.81-4.93-1.65-7.37-2.55-4.24-1.57-8.39-3.35-12.33-5.56-.79-.45-1.57-.91-2.34-1.4.17,2.36.27,4.77.32,7.21.14,6.87-.19,14.11-.92,21.97-1.86,2.52-4.26,4.52-6.98,6.13-4.6,2.73-10.11,4.33-15.4,5.38-3.44.68-6.97,1.25-10.43,1.96,7.31,23.24,14.61,46.47,21.92,69.71,4.28,13.6,8.56,27.22,14.02,40.39,4.41,10.61,9.56,20.9,14.71,31.17,3.55,7.09,7.11,14.17,10.66,21.26,1.85,3.68,3.73,7.41,6.51,10.44,2.44,2.66,5.46,4.64,8.7,6.26,16.52,1.76,33.05,2.96,49.62,2.08,19.56-1.03,38.91-4.94,58.35-7.26,9.13-41.23,5.21-84.48.61-126.64h0Z"/>
      <path class="st9" d="M526.2,164.28c.69,1.98,1.41,3.33,1.41,3.33l-1.41-3.33Z"/>
      <path class="st9" d="M547.78,172.4c-1.93-8.69-4.36-17.25-7.13-25.7-5.74-17.5-12.99-34.54-20.46-51.39-4.18-9.42-5.51-20.59-11.12-29.19-.32-.49-.64-.97-.99-1.44-9.3-12.62-25.06-24.54-38.14-33.18-6.53-4.31-13.89-7.35-21.38-9.63-7.48-2.29-15.67.67-22.67,4.17-3.18-7.04-12.56-9.35-21.09-8.37s-16.44,4.79-24.1,8.65c-8.61,4.34-17.34,8.99-23.8,16.15-6.21,6.89-9.89,15.64-14.78,23.52-5.87,9.46-13.53,17.74-18.95,27.46-4.91,8.82-7.84,18.59-10.73,28.27-11,36.8-22.11,74.46-20.35,112.83,1.12,24.34,7.38,49.09,1.45,72.73.31.05.62.09.93.14,11.24,1.8,22.63,2.68,34.01,2.61,3.15-.02,6.39-.13,9.27-1.39,2.48-1.09,4.52-2.96,6.77-4.48,4.72-3.2,10.2-4.78,15.83-5.95,3.47-.72,6.99-1.28,10.43-1.96,5.3-1.05,10.8-2.65,15.4-5.38,2.71-1.61,5.12-3.61,6.98-6.13.74-7.86,1.06-15.11.92-21.97-.05-2.45-.15-4.85-.32-7.21-4.24-2.66-8.12-5.93-11.21-9.83-.75-.94-1.46-1.91-2.11-2.93-4.56-7.21-5.19-15.91-9.25-23.41-3.96-7.76-3.53-16.85-5.32-25.18-1.31-6.1-4.31-11.69-6.16-17.64-1.49-4.81-2.22-9.83-2.8-14.84-2.26-19.4-2.47-39.04-.63-58.48.94-9.98,2.66-20.46,9.04-28.19,6.71-8.12,17.27-11.7,26.7-16.39,9.5-4.73,18.23-10.87,26.54-17.48,5.44-.03,10.9.2,15.99,1.85,15.19,4.93,23.77,20.91,37.15,29.62,1.9,1.24,3.91,2.33,5.63,3.8,1.49,1.27,6.49,2.73,7.71,4.27,6.73,8.47,12.04,17.69,17.16,27.12l23.97,56.44c-1.26-3.65-2.38-9.45,1.41-13.07,5.86-5.58,1.13-22.06,1.13-22.06l-3.56-14.63c1.93,1.67,3.42,3.87,4.22,6.3.44,1.32.67,2.71.91,4.08.44,2.54.88,5.09,1.02,7.67.12,2.25.02,4.52.45,6.73.61,3.09,2.27,6.11,1.71,9.21-.25,1.39-.95,2.8-.55,4.16.18.6.56,1.12.84,1.69.78,1.56.79,3.39.6,5.13-.59,5.44-2.92,10.68-6.58,14.76,3.97,9.91,3.51,20.99,1.58,31.4-1.07,5.75-2.6,11.51-5.65,16.49-2.43,3.98-5.74,7.33-8.73,10.91-1.88,2.25-3.64,4.61-5.36,7.02-.05.08-.11.15-.17.23-.02.22-.04.45-.05.67-.24,4.3.05,8.61.19,12.91.17,5,.16,10.01-.04,15.01h0c-.19,5.03-.57,10.04-1.13,15.03,3.57-1.65,6.87-3.27,10.02-4.88.45-.23.91-.46,1.35-.69,3.65-1.88,7.12-3.75,10.58-5.62,3.99-2.15,8.07-4.37,10.98-7.84,2.72-3.24,4.2-7.31,5.43-11.35,7.92-26.17,6.87-54.43.95-81.12l.06-.03Z"/>
    </g>
    <g>
      <path class="st10" d="M431.19,473.19c-2.78-3.03-4.66-6.76-6.51-10.44-3.55-7.09-7.11-14.17-10.66-21.26-5.15-10.27-10.31-20.55-14.71-31.17-5.46-13.17-9.75-26.79-14.02-40.39-7.31-23.24-14.61-46.47-21.92-69.71-5.63,1.17-11.11,2.75-15.83,5.95-2.24,1.52-4.28,3.39-6.77,4.48-2.88,1.26-6.12,1.37-9.27,1.39-11.38.06-22.77-.82-34.01-2.61-5.7.37-11.4.76-16.69,2.83-4.79,1.87-8.97,5.03-12.87,8.38-7.15,6.13-13.65,13.02-19.34,20.53-8.36,11.02-14.93,23.26-22.21,35.03-9.88,15.97-21.12,31.13-29.7,47.83-8.59,16.7-14.49,35.41-12.64,54.09,26.91-2.75,53.96-4.76,81.01-4.94,18.08-.21,35.79-.41,53.5-.61,22.91-.26,45.86-.52,68.71,1.2,17.57,1.33,35.1,3.82,52.63,5.68-3.24-1.62-6.26-3.61-8.7-6.26h0Z"/>
      <path class="st10" d="M632.5,367.48c-2.18-2.88-4.45-5.75-7.32-7.93-3.57-2.71-7.88-4.21-12.11-5.68-11.87-4.11-23.73-8.22-35.6-12.33-5-1.73-10.08-3.5-14.38-6.59-4.16-2.98-7.44-7.08-11.64-10.02-6.01-4.2-13.55-5.78-19.97-9.22.51.52,1.03,1.04,1.51,1.59,7.6,8.65,9.23,20.87,10.47,32.32,4.59,42.16,8.52,85.41-.61,126.64,9.32-1.11,18.66-1.87,28.05-1.75,22.26.27,44.34,5.36,66.59,4.47,15.41-.62,32.54-3.66,44.89,5.58-5.78-42.84-23.97-82.87-49.88-117.08h0Z"/>
      <path class="st3" d="M533.8,159.8c-.28-.56-.67-1.08-.84-1.69-.4-1.36.3-2.76.55-4.16.56-3.1-1.1-6.12-1.71-9.21-.44-2.21-.33-4.48-.45-6.73-.14-2.58-.58-5.13-1.02-7.67-.24-1.37-.48-2.75-.91-4.08-.8-2.43-2.29-4.62-4.22-6.3l3.56,14.63s4.73,16.47-1.13,22.06c-3.8,3.62-2.68,9.42-1.41,13.07l1.41,3.33s-.73-1.35-1.41-3.33l-23.97-56.44c-5.12-9.43-10.42-18.65-17.16-27.12-1.22-1.53-6.22-2.99-7.71-4.27-1.72-1.47-3.73-2.57-5.63-3.8-13.38-8.71-21.97-24.7-37.15-29.62-5.09-1.65-10.55-1.88-15.99-1.85-8.3,6.61-17.04,12.76-26.54,17.48-9.43,4.69-19.99,8.27-26.7,16.39-6.38,7.73-8.1,18.21-9.04,28.19-1.84,19.44-1.63,39.08.63,58.48.58,5.01,1.31,10.02,2.8,14.84,1.85,5.96,4.85,11.55,6.16,17.64,1.78,8.34,1.36,17.43,5.32,25.18,4.06,7.5,4.69,16.2,9.25,23.41.65,1.02,1.36,1.99,2.11,2.93,3.09,3.9,6.97,7.17,11.21,9.83.77.48,1.55.95,2.34,1.4,3.93,2.22,8.09,3.99,12.33,5.56,2.44.9,4.9,1.74,7.37,2.55,5.41,1.78,21.69,11.01,25.05,12.54,12.22,5.59,30.8-1.03,34.42-2.83.13-.06.26-.13.39-.19,2.93-1.46,5.87-2.92,8.6-4.72,10.91-7.17,17.58-18.84,25.22-29.58.05-.08.11-.15.17-.23,1.72-2.41,3.48-4.77,5.36-7.02,2.99-3.58,6.3-6.93,8.73-10.91,3.05-4.99,4.58-10.75,5.65-16.49,1.93-10.41,2.39-21.49-1.58-31.4,3.66-4.07,5.99-9.31,6.58-14.76.19-1.73.18-3.57-.6-5.13l-.04.02Z"/>
      <path class="st3" d="M545.69,349.56c-1.25-11.45-2.87-23.67-10.47-32.32-.48-.55-.99-1.07-1.51-1.59-1.52-.82-2.99-1.74-4.35-2.82-6.79-5.42-10.09-14.3-10.67-22.97-.15-2.3-.13-4.61.02-6.9-3.15,1.61-6.45,3.23-10.02,4.88.56-4.99.94-10,1.13-15.02h0c.19-5.01.21-10.02.04-15.02-.15-4.3-.43-8.61-.19-12.91.01-.22.04-.45.05-.67-7.64,10.74-14.3,22.41-25.22,29.58-2.73,1.8-5.67,3.26-8.6,4.72-.13.06-.26.13-.39.19-3.62,1.8-22.21,8.42-34.42,2.83-3.36-1.54-19.64-10.76-25.05-12.54-2.47-.81-4.93-1.65-7.37-2.55-4.24-1.57-8.39-3.35-12.33-5.56-.79-.45-1.57-.91-2.34-1.4.17,2.36.27,4.77.32,7.21.14,6.87-.19,14.11-.92,21.97-1.86,2.52-4.26,4.52-6.98,6.13-4.6,2.73-10.11,4.33-15.4,5.38-3.44.68-6.97,1.25-10.43,1.96,7.31,23.24,14.61,46.47,21.92,69.71,4.28,13.6,8.56,27.22,14.02,40.39,4.41,10.61,9.56,20.9,14.71,31.17,3.55,7.09,7.11,14.17,10.66,21.26,1.85,3.68,3.73,7.41,6.51,10.44,2.44,2.66,5.46,4.64,8.7,6.26,16.52,1.76,33.05,2.96,49.62,2.08,19.56-1.03,38.91-4.94,58.35-7.26,9.13-41.23,5.21-84.48.61-126.64h0Z"/>
      <path class="st1" d="M526.2,166.28c.69,1.98,1.41,3.33,1.41,3.33l-1.41-3.33Z"/>
      <path class="st8" d="M547.78,174.4c-1.93-8.69-4.36-17.25-7.13-25.7-5.74-17.5-12.99-34.54-20.46-51.39-4.18-9.42-5.51-20.59-11.12-29.19-.32-.49-.64-.97-.99-1.44-9.3-12.62-25.06-24.54-38.14-33.18-6.53-4.31-13.89-7.35-21.38-9.63-7.48-2.29-15.67.67-22.67,4.17-3.18-7.04-12.56-9.35-21.09-8.37s-16.44,4.79-24.1,8.65c-8.61,4.34-17.34,8.99-23.8,16.15-6.21,6.89-9.89,15.64-14.78,23.52-5.87,9.46-13.53,17.74-18.95,27.46-4.91,8.82-7.84,18.59-10.73,28.27-11,36.8-22.11,74.46-20.35,112.83,1.12,24.34,7.38,49.09,1.45,72.73.31.05.62.09.93.14,11.24,1.8,22.63,2.68,34.01,2.61,3.15-.02,6.39-.13,9.27-1.39,2.48-1.09,4.52-2.96,6.77-4.48,4.72-3.2,10.2-4.78,15.83-5.95,3.47-.72,6.99-1.28,10.43-1.96,5.3-1.05,10.8-2.65,15.4-5.38,2.71-1.61,5.12-3.61,6.98-6.13.74-7.86,1.06-15.11.92-21.97-.05-2.45-.15-4.85-.32-7.21-4.24-2.66-8.12-5.93-11.21-9.83-.75-.94-1.46-1.91-2.11-2.93-4.56-7.21-5.19-15.91-9.25-23.41-3.96-7.76-3.53-16.85-5.32-25.18-1.31-6.1-4.31-11.69-6.16-17.64-1.49-4.81-2.22-9.83-2.8-14.84-2.26-19.4-2.47-39.04-.63-58.48.94-9.98,2.66-20.46,9.04-28.19,6.71-8.12,17.27-11.7,26.7-16.39,9.5-4.73,18.23-10.87,26.54-17.48,5.44-.03,10.9.2,15.99,1.85,15.19,4.93,23.77,20.91,37.15,29.62,1.9,1.24,3.91,2.33,5.63,3.8,1.49,1.27,6.49,2.73,7.71,4.27,6.73,8.47,12.04,17.69,17.16,27.12l23.97,56.44c-1.26-3.65-2.38-9.45,1.41-13.07,5.86-5.58,1.13-22.06,1.13-22.06l-3.56-14.63c1.93,1.67,3.42,3.87,4.22,6.3.44,1.32.67,2.71.91,4.08.44,2.54.88,5.09,1.02,7.67.12,2.25.02,4.52.45,6.73.61,3.09,2.27,6.11,1.71,9.21-.25,1.39-.95,2.8-.55,4.16.18.6.56,1.12.84,1.69.78,1.56.79,3.39.6,5.13-.59,5.44-2.92,10.68-6.58,14.76,3.97,9.91,3.51,20.99,1.58,31.4-1.07,5.75-2.6,11.51-5.65,16.49-2.43,3.98-5.74,7.33-8.73,10.91-1.88,2.25-3.64,4.61-5.36,7.02-.05.08-.11.15-.17.23-.02.22-.04.45-.05.67-.24,4.3.05,8.61.19,12.91.17,5,.16,10.01-.04,15.01h0c-.19,5.03-.57,10.04-1.13,15.03,3.57-1.65,6.87-3.27,10.02-4.88.45-.23.91-.46,1.35-.69,3.65-1.88,7.12-3.75,10.58-5.62,3.99-2.15,8.07-4.37,10.98-7.84,2.72-3.24,4.2-7.31,5.43-11.35,7.92-26.17,6.87-54.43.95-81.12l.06-.03Z"/>
    </g>
    <path class="st1" d="M461.73,183.62c-2.57.08-6.94,1.67-10.5,4.76-1.25,1.09-3.02,2.69-3.98,4.41-3.63,6.52-13.24,1.3-14.68,1.21-1.99-.12-4,.06-5.95.52-.8.19-1.62.45-2.23.99-.9.8-1.35,2.21-2.51,2.52"/>
    <path class="st5" d="M437.14,133.22c-8.52-.57-15.82,1.51-22.19,7.2l.71,1.98s3.58-2.95,9.2-5.39,12.71-1.72,12.71-1.72l-.43-2.07h0Z"/>
    <path class="st1" d="M437.14,140.42c1.98,1.77,3.71,3.82,5.12,6.06"/>
    <path class="st1" d="M414.51,150.99l-1.29,4.38c-.21.7-.29,1.68.4,1.94,1.05-1.24,1.45-3.01.89-6.33h0Z"/>
    <path class="st5" d="M493.47,111.76c1.59-.73,3.48-1.83,5.13-2.42.18-.07.37-.14.52-.27.43-.39.25-1.1,0-1.62-.36-.73-.87-1.47-1.64-1.71-.75-.23-1.55.04-2.28.32-1.52.57-3.03,1.14-4.55,1.71l2.84,3.99h-.02Z"/>
    <path class="st1" d="M498.98,108.3c4.77-.6,9.6-.67,14.38-.23-.26-.1-.51-.21-.77-.31"/>
    <path class="st1" d="M419.15,197.41c-1.13-1.94-2.94-3.47-3.76-5.55-.99-2.5-.28-5.57,1.71-7.37"/>
    <path class="st1" d="M422.57,187.77c-.72-1.3-1.46-2.66-1.54-4.14-.08-1.35.39-2.67.61-4,.69-4.2-1.12-8.36-2.87-12.24"/>
    <path class="st1" d="M464.39,184.49c.36-1.89,1.55-5.72,1.21-7.62s-2.09-4.31-3.88-5.01"/>
    <path class="st1" d="M402.04,218.95c-.84,1.45-1.86,4.61-1.15,6.13"/>
    <path class="st1" d="M477.53,232.41c-8.19,6.95-23.17,12.3-33.92,12.5"/>
    <path class="st1" d="M519.1,200.93s-3.26-30.28-2.02-33.54"/>
    <path class="st1" d="M383.13,222.66s4.96,15.89,12.4,20.02"/>
    <path class="st1" d="M502.19,190.95s2.63-4.44-7.31-7.33"/>
    <g>
      <path class="st9" d="M417.05,226.06c-1.45.69-3.37.81-5.38.62,3.74.75,7.59,1.42,10.9,2.11,1.1.23,2.58,1.16,4.75,2.02-1.09-3.55-1.45-7.54-1.55-10.37-2.86,1.78-5.48,4.07-8.73,5.62h.01Z"/>
      <path class="st9" d="M411.66,226.68c-2.7-.55-5.36-1.14-7.7-1.83,2.06.74,4.96,1.57,7.7,1.83Z"/>
      <path class="st9" d="M481.21,199.16c.99,1.65,2.55,4.36,4.2,7.65,3.08-4,6.03-8.19,7.76-10.52-1.26.48-7.4,1.53-11.96,2.87h0Z"/>
      <path class="st9" d="M479.11,199.84c-3.01,1.11-19.3,11.73-23.74,13.75-2.93,1.33-18.6,3.55-23.43,4.35-2.32.38-4.3,1.33-6.17,2.5.1,2.83.45,6.82,1.55,10.37,4.24,1.68,11.09,3.09,22.77-1.52,3.43-1.35,7.25-2.75,10.63-4.21,2.64-1.14,13.66-6.13,18.26-10.69,1.93-1.91,4.21-4.69,6.43-7.58-1.65-3.29-3.21-6.01-4.2-7.65-.75.22-1.46.45-2.1.68h0Z"/>
    </g>
    <polygon class="st6" points="356.8 156.12 359.72 160.1 360.22 153.88 356.02 152.28 356.8 156.12"/>
    <g>
      <path class="st1" d="M428.19,470.97c-2.78-3.03-4.66-6.76-6.51-10.44-3.55-7.09-7.11-14.17-10.66-21.26-5.15-10.27-10.31-20.55-14.71-31.17-5.46-13.17-9.75-26.79-14.02-40.39-7.31-23.24-14.61-46.47-21.92-69.71-5.63,1.17-11.11,2.75-15.83,5.95-2.24,1.52-4.28,3.39-6.77,4.48-2.88,1.26-6.12,1.37-9.27,1.39-11.38.06-22.77-.82-34.01-2.61-5.7.37-11.4.76-16.69,2.83-4.79,1.87-8.97,5.03-12.87,8.38-7.15,6.13-13.65,13.02-19.34,20.53-8.36,11.02-14.93,23.26-22.21,35.03-9.88,15.97-21.12,31.13-29.7,47.83-8.59,16.7-14.49,35.41-12.64,54.09,26.91-2.75,53.96-4.76,81.01-4.94,18.08-.21,35.79-.41,53.5-.61,22.91-.26,45.86-.52,68.71,1.2,17.57,1.33,35.1,3.82,52.63,5.68-3.24-1.62-6.26-3.61-8.7-6.26h0Z"/>
      <path class="st1" d="M634.5,363.26c-2.18-2.88-4.45-5.75-7.32-7.93-3.57-2.71-7.88-4.21-12.11-5.68-11.87-4.11-23.73-8.22-35.6-12.33-5-1.73-10.08-3.5-14.38-6.59-4.16-2.98-7.44-7.08-11.64-10.02-6.01-4.2-13.55-5.78-19.97-9.22.51.52,1.03,1.04,1.51,1.59,7.6,8.65,9.23,20.87,10.47,32.32,4.59,42.16,8.52,85.41-.61,126.64,9.32-1.11,18.66-1.87,28.05-1.75,22.26.27,44.34,5.36,66.59,4.47,15.41-.62,32.54-3.66,44.89,5.58-5.78-42.84-23.97-82.87-49.88-117.08Z"/>
      <path class="st1" d="M533.8,154.13c-.28-.56-.67-1.08-.84-1.69-.4-1.36.3-2.76.55-4.16.56-3.1-1.1-6.12-1.71-9.21-.44-2.21-.33-4.48-.45-6.73-.14-2.58-.58-5.13-1.02-7.67-.24-1.37-.48-2.75-.91-4.08-.8-2.43-2.29-4.62-4.22-6.3l3.56,14.63s4.73,16.47-1.13,22.06c-3.8,3.62-2.68,9.42-1.41,13.07l1.41,3.33s-.73-1.35-1.41-3.33l-23.97-56.44c-5.12-9.43-10.42-18.65-17.16-27.12-1.22-1.53-6.22-2.99-7.71-4.27-1.72-1.47-3.73-2.57-5.63-3.8-13.38-8.71-21.97-24.7-37.15-29.62-5.09-1.65-10.55-1.88-15.99-1.85-8.3,6.61-17.04,12.76-26.54,17.48-9.43,4.69-19.99,8.27-26.7,16.39-6.38,7.73-8.1,18.21-9.04,28.19-1.84,19.44-1.63,39.08.63,58.48.58,5.01,1.31,10.02,2.8,14.84,1.85,5.96,4.85,11.55,6.16,17.64,1.78,8.34,1.36,17.43,5.32,25.18,4.06,7.5,4.69,16.2,9.25,23.41.65,1.02,1.36,1.99,2.11,2.93,3.09,3.9,6.97,7.17,11.21,9.83.77.48,1.55.95,2.34,1.4,3.93,2.22,8.09,3.99,12.33,5.56,2.44.9,4.9,1.74,7.37,2.55,5.41,1.78,21.69,11.01,25.05,12.54,12.22,5.59,30.8-1.03,34.42-2.83.13-.06.26-.13.39-.19,2.93-1.46,5.87-2.92,8.6-4.72,10.91-7.17,17.58-18.84,25.22-29.58.05-.08.11-.15.17-.23,1.72-2.41,3.48-4.77,5.36-7.02,2.99-3.58,6.3-6.93,8.73-10.91,3.05-4.99,4.58-10.75,5.65-16.49,1.93-10.41,2.39-21.49-1.58-31.4,3.66-4.07,5.99-9.31,6.58-14.76.19-1.73.18-3.57-.6-5.13l-.04.02Z"/>
      <path class="st1" d="M545.47,345.41c-1.25-11.45-2.87-23.67-10.47-32.32-.48-.55-.99-1.07-1.51-1.59-1.52-.82-2.99-1.74-4.35-2.82-6.79-5.42-10.09-14.3-10.67-22.97-.15-2.3-.13-4.61.02-6.9-3.15,1.61-6.45,3.23-10.02,4.88.56-4.99.94-10,1.13-15.02h0c.19-5.01.21-10.02.04-15.02-.15-4.3-.43-8.61-.19-12.91.01-.22.04-.45.05-.67-7.64,10.74-14.3,22.41-25.22,29.58-2.73,1.8-5.67,3.26-8.6,4.72-.13.06-.26.13-.39.19-3.62,1.8-22.21,8.42-34.42,2.83-3.36-1.54-19.64-10.76-25.05-12.54-2.47-.81-4.93-1.65-7.37-2.55-4.24-1.57-8.39-3.35-12.33-5.56-.79-.45-1.57-.91-2.34-1.4.17,2.36.27,4.77.32,7.21.14,6.87-.19,14.11-.92,21.97-1.86,2.52-4.26,4.52-6.98,6.13-4.6,2.73-10.11,4.33-15.4,5.38-3.44.68-6.97,1.25-10.43,1.96,7.31,23.24,14.61,46.47,21.92,69.71,4.28,13.6,8.56,27.22,14.02,40.39,4.41,10.61,9.56,20.9,14.71,31.17,3.55,7.09,7.11,14.17,10.66,21.26,1.85,3.68,3.73,7.41,6.51,10.44,2.44,2.66,5.46,4.64,8.7,6.26,16.52,1.76,33.05,2.96,49.62,2.08,19.56-1.03,38.91-4.94,58.35-7.26,9.13-41.23,5.21-84.48.61-126.64h0Z"/>
      <path class="st1" d="M526.2,164.06c.69,1.98,1.41,3.33,1.41,3.33l-1.41-3.33Z"/>
      <path class="st11" d="M547.78,172.18c-1.93-8.69-4.36-17.25-7.13-25.7-5.74-17.5-12.99-34.54-20.46-51.39-4.18-9.42-5.51-20.59-11.12-29.19-.32-.49-.64-.97-.99-1.44-9.3-12.62-25.06-24.54-38.14-33.18-6.53-4.31-13.89-7.35-21.38-9.63-7.48-2.29-15.67.67-22.67,4.17-3.18-7.04-12.56-9.35-21.09-8.37s-16.44,4.79-24.1,8.65c-8.61,4.34-17.34,8.99-23.8,16.15-6.21,6.89-9.89,15.64-14.78,23.52-5.87,9.46-13.53,17.74-18.95,27.46-4.91,8.82-7.84,18.59-10.73,28.27-11,36.8-22.11,74.46-20.35,112.83,1.12,24.34,7.38,49.09,1.45,72.73.31.05.62.09.93.14,11.24,1.8,22.63,2.68,34.01,2.61,3.15-.02,6.39-.13,9.27-1.39,2.48-1.09,4.52-2.96,6.77-4.48,4.72-3.2,10.2-4.78,15.83-5.95,3.47-.72,6.99-1.28,10.43-1.96,5.3-1.05,10.8-2.65,15.4-5.38,2.71-1.61,5.12-3.61,6.98-6.13.74-7.86,1.06-15.11.92-21.97-.05-2.45-.15-4.85-.32-7.21-4.24-2.66-8.12-5.93-11.21-9.83-.75-.94-1.46-1.91-2.11-2.93-4.56-7.21-5.19-15.91-9.25-23.41-3.96-7.76-3.53-16.85-5.32-25.18-1.31-6.1-4.31-11.69-6.16-17.64-1.49-4.81-2.22-9.83-2.8-14.84-2.26-19.4-2.47-39.04-.63-58.48.94-9.98,2.66-20.46,9.04-28.19,6.71-8.12,17.27-11.7,26.7-16.39,9.5-4.73,18.23-10.87,26.54-17.48,5.44-.03,10.9.2,15.99,1.85,15.19,4.93,23.77,20.91,37.15,29.62,1.9,1.24,3.91,2.33,5.63,3.8,1.49,1.27,6.49,2.73,7.71,4.27,6.73,8.47,12.04,17.69,17.16,27.12l23.97,56.44c-1.26-3.65-2.38-9.45,1.41-13.07,5.86-5.58,1.13-22.06,1.13-22.06l-3.56-14.63c1.93,1.67,3.42,3.87,4.22,6.3.44,1.32.67,2.71.91,4.08.44,2.54.88,5.09,1.02,7.67.12,2.25.02,4.52.45,6.73.61,3.09,2.27,6.11,1.71,9.21-.25,1.39-.95,2.8-.55,4.16.18.6.56,1.12.84,1.69.78,1.56.79,3.39.6,5.13-.59,5.44-2.92,10.68-6.58,14.76,3.97,9.91,3.51,20.99,1.58,31.4-1.07,5.75-2.6,11.51-5.65,16.49-2.43,3.98-5.74,7.33-8.73,10.91-1.88,2.25-3.64,4.61-5.36,7.02-.05.08-.11.15-.17.23-.02.22-.04.45-.05.67-.24,4.3.05,8.61.19,12.91.17,5,.16,10.01-.04,15.01h0c-.19,5.03-.57,10.04-1.13,15.03,3.57-1.65,6.87-3.27,10.02-4.88.45-.23.91-.46,1.35-.69,3.65-1.88,7.12-3.75,10.58-5.62,3.99-2.15,8.07-4.37,10.98-7.84,2.72-3.24,4.2-7.31,5.43-11.35,7.92-26.17,6.87-54.43.95-81.12l.06-.03Z"/>
    </g>
    <circle class="st7" cx="394.38" cy="157.79" r="6.27"/>
    <circle class="st7" cx="465.67" cy="132" r="6.27"/>
    <path class="st1" d="M381.65,292.91c6.46,18.59,52.98,66.93,99.56,66.93,0,0,46.41,0,61.94-29.53"/>
    <path class="st1" d="M379.83,291.82c6.46,18.59,52.98,66.93,99.56,66.93,0,0,46.41,0,61.94-29.53"/>
    <g>
      <path class="st1" d="M411.66,226.68c-2.7-.55-5.36-1.14-7.7-1.83,2.06.74,4.96,1.57,7.7,1.83Z"/>
      <path class="st1" d="M481.21,199.16c-.75.22-1.46.45-2.1.68-3.01,1.11-19.3,11.73-23.74,13.75-2.93,1.33-18.6,3.55-23.43,4.35-2.32.38-4.3,1.33-6.17,2.5-2.86,1.78-5.48,4.07-8.73,5.62-1.45.69-3.37.81-5.38.62,3.74.75,7.59,1.42,10.9,2.11,1.1.23,2.58,1.16,4.75,2.02,4.24,1.68,11.09,3.09,22.77-1.52,3.43-1.35,7.25-2.75,10.63-4.21,2.64-1.14,13.66-6.13,18.26-10.69,1.93-1.91,4.21-4.69,6.43-7.58,3.08-4,6.03-8.19,7.76-10.52-1.26.48-7.4,1.53-11.96,2.87h.01Z"/>
    </g>
    <path class="st1" d="M439,210.06s4.18-1.98,13.41-3.29c2.92-.42,5.04-1.27,11.28-5.84"/>
    <path class="st2" d="M403.96,46.24s-38.69-1.37-45.85,20.53-12.18,71.98-17.65,105.1-14.6,59.11,0,101.99"/>
    <path class="st2" d="M420.94,32.56s-23.04-16.42-52.67,15.51c-29.63,31.93-37.84,124.76-39.21,142.89"/>
    <path class="st2" d="M427.84,37.19s6.13-16.77,27.76-8.85"/>
    <path class="st2" d="M471.94,44.42s-6.06-8.72-30.22-3.45c0,0,20.53,11.2,35.82,26.26s38.98,46.27,47.66,47.08"/>
    <path class="st2" d="M526.2,264.28s14.97-34.55,11.77-54.22"/>
    <path class="st5" d="M532.7,166.01s3.13.89,5.49,3.81c3.57,4.43,5.82,12.18-3.68,17.94v5.81s7.28-4.07,9.28-11.3c2.57-9.3-4.32-18.05-10.3-18.44l-.78,2.17h-.01Z"/>
    <path class="st1" d="M532.7,166.01s3.13.89,5.49,3.81c3.57,4.43,5.82,12.18-3.68,17.94v5.81s7.28-4.07,9.28-11.3c2.57-9.3-4.32-18.05-10.3-18.44l-.78,2.17h-.01Z"/>
    <path class="st1" d="M493.47,111.76c1.59-.73,3.48-1.83,5.13-2.42.18-.07.37-.14.52-.27.43-.39.25-1.1,0-1.62-.36-.73-.87-1.47-1.64-1.71-.75-.23-1.55.04-2.28.32-1.52.57-3.03,1.14-4.55,1.71l2.84,3.99h-.02Z"/>
    <path class="st1" d="M437.14,133.22c-8.52-.57-15.82,1.51-22.19,7.2l.71,1.98s3.58-2.95,9.2-5.39,12.71-1.72,12.71-1.72l-.43-2.07h0Z"/>
    <path class="st5" d="M389.62,187.4c-4.31,0-7.44-1.21-11.21-2.68l-.46-.18c-4.36-1.69-15.98-11.35-18.67-22.39-1.42-5.81-.15-11,3.76-15.43,14.38-16.3,37.17-15.53,45.62-11.54,6.01,2.84,8.46,8.73,10.28,14.04,2.08,6.05,2.36,12.59.79,18.42-3.43,12.73-17.64,17.38-20.45,18.18h0c-3.94,1.12-7.02,1.58-9.65,1.58h-.01ZM395.32,134.73c-9.67,0-21.89,3.24-30.78,13.32-3.45,3.91-4.57,8.5-3.32,13.63,2.49,10.21,13.5,19.47,17.45,21l.46.18c5.93,2.3,9.85,3.82,19.59,1.04h0c15-4.28,18.51-14.73,19.07-16.78,1.47-5.45,1.2-11.58-.75-17.25-2.1-6.1-4.47-10.62-9.24-12.88-2.8-1.32-7.27-2.26-12.48-2.26h0Z"/>
    <path class="st5" d="M467.44,159.73c-15.7,0-29.25-13.37-31.29-26.36-.58-3.69.96-10.05,5.7-15.96,4.93-6.14,14.84-13.71,34.09-14.9,6.39-.4,11.61,1.31,15.47,5.09,7.59,7.42,7.32,20.27,7.27,21.71h0c-.43,11.13-8.41,28.38-28.64,30.29-.87.08-1.74.12-2.6.12h0ZM477.71,104.45c-.54,0-1.08.02-1.64.05-18.51,1.15-27.97,8.33-32.65,14.16-4.34,5.4-5.78,11.25-5.29,14.4,2.02,12.82,16.01,26.04,31.72,24.55,18.95-1.79,26.42-17.95,26.83-28.38.05-1.35.31-13.39-6.67-20.2-3.11-3.04-7.25-4.57-12.31-4.57h.01Z"/>
    <path class="st1" d="M389.62,187.4c-4.31,0-7.44-1.21-11.21-2.68l-.46-.18c-4.36-1.69-15.98-11.35-18.67-22.39-1.42-5.81-.15-11,3.76-15.43,14.38-16.3,37.17-15.53,45.62-11.54,6.01,2.84,8.46,8.73,10.28,14.04,2.08,6.05,2.36,12.59.79,18.42-3.43,12.73-17.64,17.38-20.45,18.18h0c-3.94,1.12-7.02,1.58-9.65,1.58h-.01ZM395.32,134.73c-9.67,0-21.89,3.24-30.78,13.32-3.45,3.91-4.57,8.5-3.32,13.63,2.49,10.21,13.5,19.47,17.45,21l.46.18c5.93,2.3,9.85,3.82,19.59,1.04h0c15-4.28,18.51-14.73,19.07-16.78,1.47-5.45,1.2-11.58-.75-17.25-2.1-6.1-4.47-10.62-9.24-12.88-2.8-1.32-7.27-2.26-12.48-2.26h0Z"/>
    <path class="st1" d="M467.44,159.73c-15.7,0-29.25-13.37-31.29-26.36-.58-3.69.96-10.05,5.7-15.96,4.93-6.14,14.84-13.71,34.09-14.9,6.39-.4,11.61,1.31,15.47,5.09,7.59,7.42,7.32,20.27,7.27,21.71h0c-.43,11.13-8.41,28.38-28.64,30.29-.87.08-1.74.12-2.6.12h0ZM477.71,104.45c-.54,0-1.08.02-1.64.05-18.51,1.15-27.97,8.33-32.65,14.16-4.34,5.4-5.78,11.25-5.29,14.4,2.02,12.82,16.01,26.04,31.72,24.55,18.95-1.79,26.42-17.95,26.83-28.38.05-1.35.31-13.39-6.67-20.2-3.11-3.04-7.25-4.57-12.31-4.57h.01Z"/>
  </g>
</svg>