<?xml version="1.0" encoding="UTF-8"?>
<svg id="Layer_1" data-name="Layer 1" xmlns="http://www.w3.org/2000/svg" viewBox="0 0 841.89 467.72">
  <defs>
    <style>
      .cls-1 {
        fill: #55565a;
      }

      .cls-1, .cls-2 {
        stroke: #55565a;
        stroke-miterlimit: 10;
      }

      .cls-3 {
        fill: #988365;
      }

      .cls-4 {
        fill: #fff;
      }

      .cls-5 {
        fill: #1c1d20;
      }

      .cls-6 {
        fill: #5f9c70;
      }

      .cls-7 {
        fill: #fcd1c5;
      }

      .cls-2 {
        fill: none;
      }
    </style>
  </defs>
  <rect class="cls-6" width="841.89" height="468.32"/>
  <g>
    <path class="cls-4" d="M497.67,201.2c-3.5,17.35-4.93,35.83-7.76,53.75,2.33-.42,4.51-2.24,5.52-4.41,1.42-3.06,1.21-6.56,1.25-9.91.17-12.73,4.42-25.05,6.7-37.59.33-1.79.61-3.64.17-5.41-.2-.82-.61-1.62-1.16-2.28-1.07,2.31-2.64,4.95-4.72,5.84Z"/>
    <path class="cls-4" d="M329.62,216.68c-.48,1.31-.95,2.62-1.43,3.94,4.94,14.45,5.53,30.66,14.1,43.28.34.49.79,1.03,1.38,1,.33-.02.61-.21.86-.44-1.93-5.59-3.71-11.24-5.47-16.88-3.2-10.28-6.34-20.58-9.45-30.89Z"/>
    <path class="cls-4" d="M504.51,180.71c-.56-2.81-1.67-5.48-2.6-8.2-4.69-13.73-2.6-27.41-3.09-41.56-.37-10.76-.89-21.68-4.31-31.89-4.01-11.97-16.77-30.32-31.65-24.78-2.63.98-4.21,2.03-6.81.39-3.31-2.09-5.79-5.59-9.21-7.74-7.28-4.56-15.75-6.86-24.19-8.06-7.74-1.1-15.6-1.31-23.38-.63-14.18,1.24-28.18,5.54-40.33,13.01-11.8,7.25-22.91,15.27-31.7,26.14-2.76,3.41-5.42,6.95-7.38,10.88-6.21,12.47-11.82,24.54-15.04,38.24,1.95-2.37,3.9-4.74,5.84-7.1-.94,7.5-1.88,14.99-2.82,22.49l2.22-3.26c-.81,1.19.12,6.08.14,7.59.05,2.69-.05,5.43.18,8.11.41,4.84.36,9.74.5,14.65,1.92-2.17,3.84-4.35,5.75-6.52-3.82,14.05-5.42,28.69-4.74,43.23,2.23-5.23,5.14-10.17,8.63-14.66-.21,7.17.98,14.37,3.48,21.09l4.19-11.51c.48-1.31.95-2.62,1.43-3.94.4-1.11.81-2.22,1.21-3.33l.11-.3c2.01,2.85,3.3,6.21,3.72,9.67-1.25-10.49.73-22.4,2.64-32.7,1.93-10.39,4.38-22.48,9.52-31.8.58,1.48,1.14,2.89,1.99,4.31.33-13.61,1.51-27.19,3.53-40.66.36-2.42.81-4.97,2.39-6.84,2.92-3.45,7.17-2.08,10.72-3.86,3.96-1.99,6.76-5.87,11.8-5.42,2.39.21,4.37,2.04,6.84,2.31,3.51.39,5.5-.6,8.15-2.45,3.35-2.34,7.13-4.03,10.99-5.36,5.05-1.74,10.34-2.77,15.68-3.03,2.76-.13,5.58.38,8.31.22,2.38-.14,4.64-.9,7.11-.82,1.39.05,4.68-.34,5.85.36,1.11.66,1.05,2.38,2.64,2.97.51-2.2,3.81-2.3,5.62-.95,1.81,1.35,2.9,3.51,4.78,4.76,1.88,1.24,5.23.7,5.36-1.55,3.81,5.55,8.91,10.19,14.8,13.46.67.37,1.38.75,1.81,1.38.51.74.54,1.7.45,2.59-.22,2.04-1.05,3.96-1.4,5.98-.48,2.79.38,4.2,2.09,6.15,1.74,1.99,2.45,3.58,3.26,6.39,1.66,5.83,2.7,11.81,3.77,17.77,1.47,8.21,2.95,16.53,6.2,24.26,1.36,3.25,3.4,6.06,3.93,9.55.35,2.32.7,4.63,1.1,6.94.27,1.58.56,3.16.89,4.75.8.17,1.55.07,2.24-.23,2.08-.89,3.65-3.53,4.72-5.84.37-.81.69-1.58.94-2.22,1.55-3.92,2.01-8.29,1.18-12.44Z"/>
    <path class="cls-4" d="M495.43,201.43c-.33-1.58-.62-3.17-.89-4.75-.4-2.31-.75-4.62-1.1-6.94-.53-3.49-2.56-6.31-3.93-9.55-3.25-7.73-4.72-16.05-6.2-24.26-1.07-5.96-2.11-11.94-3.77-17.77-.8-2.81-1.51-4.4-3.26-6.39-1.71-1.95-2.57-3.35-2.09-6.15.35-2.02,1.17-3.94,1.4-5.98.1-.89.06-1.85-.45-2.59-.43-.63-1.14-1.01-1.81-1.38-5.88-3.26-10.99-7.91-14.8-13.46-.12,2.25-3.47,2.79-5.36,1.55-1.88-1.24-2.97-3.41-4.78-4.76-1.81-1.35-5.1-1.25-5.62.95-1.58-.59-1.53-2.31-2.64-2.97-1.18-.7-4.46-.31-5.85-.36-2.47-.08-4.73.68-7.11.82-2.72.16-5.55-.35-8.31-.22-5.33.26-10.63,1.29-15.68,3.03-3.86,1.33-7.64,3.02-10.99,5.36-2.66,1.85-4.64,2.84-8.15,2.45-2.47-.27-4.45-2.1-6.84-2.31-5.04-.45-7.83,3.43-11.8,5.42-3.55,1.78-7.8.41-10.72,3.86-1.58,1.87-2.03,4.42-2.39,6.84-2.02,13.46-3.19,27.05-3.53,40.66-.85-1.42-1.41-2.83-1.99-4.31-5.14,9.31-7.58,21.41-9.52,31.8-1.92,10.3-3.89,22.21-2.64,32.7-.41-3.47-1.7-6.82-3.72-9.67l-.11.3c-.4,1.11-.81,2.22-1.21,3.33,3.11,10.31,6.25,20.61,9.45,30.89,1.75,5.65,3.54,11.29,5.47,16.88,2.47,7.16,5.2,14.22,8.5,21.04,3.16,6.54,6.85,12.81,10.99,18.78,1.08,1.56,2.2,3.1,3.34,4.62,2.28,3.03,4.69,5.96,7.21,8.79.33.37.65.76.99,1.13,10.61,11.66,22.33,19.36,38.08,20.08,8.28.38,18.51.64,26.05-2.81,8.4-3.84,15.45-8.68,21.48-14.62,5.07-4.99,9.42-10.75,13.24-17.36.5-.86.99-1.73,1.46-2.61,1.06-1.97,2.05-3.98,2.97-6.01,5.7-12.61,8.81-26.39,11.05-40.52,2.83-17.92,4.26-36.4,7.76-53.75-.69.29-1.44.4-2.24.23Z"/>
    <path class="cls-4" d="M446.14,468.32c-4.69-3.43-8.97-7.41-14.1-10.46-4.45-2.65-9.09-4.98-13.87-6.96-3.97-1.65-7.82-1.47-11.84-2.83-8.46-2.87-16.13-8-22.14-14.59-3.53-3.87-6.51-8.24-8.82-12.93-1.35-2.73-4.07-9.19-8.21-8.1-1.5.39-2.32,2.29-3.28,3.34-1.65,1.79-3.61,3.31-5.59,4.73-7.77,5.55-17.06,8.99-26.59,9.69,1.33-.1,4.49-5.55,5.27-6.67,1.73-2.48,3.3-5.07,4.7-7.74,2.81-5.35,4.97-11.05,6.41-16.92,3.21-13.07,1.2-25.02.17-38.16-.38-4.78-2.67-16.95-1.56-21.61.08-.33.17-.66.26-.99-2.17-.09-4.34.26-6.49.61-4.4.72-8.79,1.44-13.19,2.16-3.57.59-7.37,1.27-10.04,3.71-3.01,2.74-4.54,7.56-8.52,8.36-3.12.63-6.28-1.67-9.4-1.04-3.55.72-5.29,4.74-8.27,6.78-3,2.04-6.91,1.9-10.46,2.61-3.41.69-6.62,2.27-9.28,4.51-2.69,2.26-3.31,3.85-6.76,4.52-6.98,1.34-13.94,3.23-19.51,7.87-7.07,5.89-10.57,15.03-16.87,21.75-10.43,11.13-28.64,16.05-32.72,30.75-1.29,4.63-.86,9.54-1.02,14.35-.27,8.06-2.32,16.03-5.84,23.27h257.59Z"/>
    <path class="cls-4" d="M661.94,468.32c-8.5-16.44-6.48-36.24-7.81-54.8-1.37-19.02-9.38-40.75-27.77-45.79-9.62-2.63-19.27-.81-27.33-7.68-3.45-2.94-6.69-6.36-10.92-7.98-5.83-2.23-12.54-.66-18.48-2.58-7.17-2.31-12.21-9.36-19.55-11.06-6.57-1.52-13.51,1.6-20.11.24-3.29-.68-6.26-2.44-9.51-3.27-2.56-.65-5.05-.58-7.51-.3,8.89,14.44,22.14,25.98,30.05,40.99,1.09,2.08,2.11,4.36,1.81,6.69,0,6.39-8.22,7.7-12.71,7.27.67-.8,1.43-1.73,1.87-2.71.48-1.05.6-2.32.03-3.33-.83-1.48-2.76-1.86-4.45-1.98-6.13-.41-12.35.76-17.91,3.38.31,7.24.69,12.08-2.7,18.75-1.85,3.65-4,7.14-6.42,10.44-2.79,3.8-5.94,7.35-8.45,11.36-2.11,3.36-2.47,6.89-4.02,10.29-1.8,3.96-6.35,7.69-9.09,11.1-3.06,3.8-6.05,7.66-9.04,11.52-2.44,3.15-4.88,6.29-7.32,9.44h197.35Z"/>
    <path class="cls-4" d="M363.87,415.79c.96-1.05,1.79-2.94,3.28-3.34,4.15-1.09,6.87,5.36,8.21,8.1,2.32,4.69,5.3,9.06,8.82,12.93,6.01,6.6,13.68,11.72,22.14,14.59,4.02,1.36,7.87,1.18,11.84,2.83,4.78,1.98,9.42,4.31,13.87,6.96,5.13,3.05,9.41,7.02,14.1,10.46h2.96c-7.06-9.55-16.87-17.05-27.96-21.3-4.19-1.61-8.6-2.79-12.44-5.11-3.84-2.32-7.15-6.12-7.44-10.6-.13-1.95.3-4.04-.6-5.78-.87-1.68-2.72-2.55-4.39-3.44-17.16-9.1-24.95-30.29-24.02-49.7.23-4.86.91-9.69,1.48-14.52.5-4.2.91-8.4.88-12.63-.1-12.41-4.02-24.32-7.24-36.36-1.14-1.52-2.26-3.05-3.34-4.62-2.18,12.58-13.61,21.14-17.09,33.84-.09.33-.18.66-.26.99-1.11,4.67,1.19,16.83,1.56,21.61,1.04,13.15,3.05,25.09-.17,38.16-1.44,5.87-3.6,11.57-6.41,16.92-1.41,2.67-2.98,5.26-4.7,7.74-.78,1.11-3.93,6.57-5.27,6.67,9.53-.7,18.83-4.13,26.59-9.69,1.98-1.41,3.94-2.94,5.59-4.73Z"/>
    <path class="cls-4" d="M464.59,468.32c2.44-3.15,4.88-6.29,7.32-9.44,2.99-3.86,5.98-7.72,9.04-11.52,2.74-3.41,7.29-7.13,9.09-11.1,1.55-3.4,1.91-6.93,4.02-10.29,2.51-4,5.66-7.56,8.45-11.36,2.42-3.3,4.57-6.79,6.42-10.44,3.39-6.67,3.01-11.5,2.7-18.75,5.56-2.62,11.78-3.79,17.91-3.38,1.69.11,3.61.5,4.45,1.98.57,1,.44,2.28-.03,3.33-.44.98-1.21,1.9-1.87,2.71,4.49.43,12.71-.88,12.71-7.27.29-2.33-.72-4.61-1.81-6.69-7.91-15.01-21.16-26.56-30.05-40.99-.26-.42-.53-.84-.79-1.27-4.6-7.79-7.82-16.36-12.91-23.84-4.84-7.1-11.95-13.34-20.39-14.52-.92,2.04-1.91,4.04-2.97,6.01-.48.89-.97,1.75-1.46,2.61.47,10.63,2.99,21.16,7.38,30.85,1.34,2.94,2.85,5.81,4.52,8.57,4.37,7.21,10.05,14.34,10.21,22.77.08,3.98-1.11,7.85-2.29,11.65-2.8,9.01-5.59,18.02-8.39,27.03-1,3.21-2,6.44-3.64,9.37-2.26,4.05-5.61,7.35-8.4,11.04-9.64,12.73-12.36,29.59-21.1,42.86-.02.02-.03.05-.05.07h11.93Z"/>
    <path class="cls-4" d="M373.73,357.87c-.57,4.83-1.25,9.66-1.48,14.52-.93,19.4,6.85,40.6,24.02,49.7,1.67.88,3.52,1.76,4.39,3.44.9,1.74.47,3.83.6,5.78.29,4.48,3.6,8.28,7.44,10.6,3.84,2.32,8.25,3.5,12.44,5.11,11.09,4.26,20.9,11.76,27.96,21.3h3.56s.03-.05.05-.07c8.74-13.27,11.47-30.13,21.1-42.86,2.8-3.69,6.15-7,8.4-11.04,1.63-2.93,2.64-6.16,3.64-9.37,2.8-9.01,5.59-18.02,8.39-27.03,1.18-3.8,2.37-7.68,2.29-11.65-.16-8.43-5.84-15.56-10.21-22.77-1.68-2.77-3.19-5.63-4.52-8.57-4.4-9.69-6.91-20.22-7.38-30.85-3.82,6.61-8.17,12.37-13.24,17.36-6.03,5.94-13.08,10.78-21.48,14.62-7.54,3.44-17.77,3.18-26.05,2.81-15.75-.72-27.47-8.43-38.08-20.08-.34-.37-.66-.76-.99-1.13-2.52-2.83-4.93-5.77-7.21-8.79,3.23,12.04,7.14,23.95,7.24,36.36.03,4.23-.38,8.43-.88,12.63Z"/>
  </g>
  <g>
    <path class="cls-7" d="M497.67,202.2c-3.5,17.35-4.93,35.83-7.76,53.75,2.33-.42,4.51-2.24,5.52-4.41,1.42-3.06,1.21-6.56,1.25-9.91.17-12.73,4.42-25.05,6.7-37.59.33-1.79.61-3.64.17-5.41-.2-.82-.61-1.62-1.16-2.28-1.07,2.31-2.64,4.95-4.72,5.84Z"/>
    <path class="cls-7" d="M329.62,217.68c-.48,1.31-.95,2.62-1.43,3.94,4.94,14.45,5.53,30.66,14.1,43.28.34.49.79,1.03,1.38,1,.33-.02.61-.21.86-.44-1.93-5.59-3.71-11.24-5.47-16.88-3.2-10.28-6.34-20.58-9.45-30.89Z"/>
    <path class="cls-3" d="M504.51,181.71c-.56-2.81-1.67-5.48-2.6-8.2-4.69-13.73-2.6-27.41-3.09-41.56-.37-10.76-.89-21.68-4.31-31.89-4.01-11.97-16.77-30.32-31.65-24.78-2.63.98-4.21,2.03-6.81.39-3.31-2.09-5.79-5.59-9.21-7.74-7.28-4.56-15.75-6.86-24.19-8.06-7.74-1.1-15.6-1.31-23.38-.63-14.18,1.24-28.18,5.54-40.33,13.01-11.8,7.25-22.91,15.27-31.7,26.14-2.76,3.41-5.42,6.95-7.38,10.88-6.21,12.47-11.82,24.54-15.04,38.24,1.95-2.37,3.9-4.74,5.84-7.1-.94,7.5-1.88,14.99-2.82,22.49l2.22-3.26c-.81,1.19.12,6.08.14,7.59.05,2.69-.05,5.43.18,8.11.41,4.84.36,9.74.5,14.65,1.92-2.17,3.84-4.35,5.75-6.52-3.82,14.05-5.42,28.69-4.74,43.23,2.23-5.23,5.14-10.17,8.63-14.66-.21,7.17.98,14.37,3.48,21.09l4.19-11.51c.48-1.31.95-2.62,1.43-3.94.4-1.11.81-2.22,1.21-3.33l.11-.3c2.01,2.85,3.3,6.21,3.72,9.67-1.25-10.49.73-22.4,2.64-32.7,1.93-10.39,4.38-22.48,9.52-31.8.58,1.48,1.14,2.89,1.99,4.31.33-13.61,1.51-27.19,3.53-40.66.36-2.42.81-4.97,2.39-6.84,2.92-3.45,7.17-2.08,10.72-3.86,3.96-1.99,6.76-5.87,11.8-5.42,2.39.21,4.37,2.04,6.84,2.31,3.51.39,5.5-.6,8.15-2.45,3.35-2.34,7.13-4.03,10.99-5.36,5.05-1.74,10.34-2.77,15.68-3.03,2.76-.13,5.58.38,8.31.22,2.38-.14,4.64-.9,7.11-.82,1.39.05,4.68-.34,5.85.36,1.11.66,1.05,2.38,2.64,2.97.51-2.2,3.81-2.3,5.62-.95,1.81,1.35,2.9,3.51,4.78,4.76,1.88,1.24,5.23.7,5.36-1.55,3.81,5.55,8.91,10.19,14.8,13.46.67.37,1.38.75,1.81,1.38.51.74.54,1.7.45,2.59-.22,2.04-1.05,3.96-1.4,5.98-.48,2.79.38,4.2,2.09,6.15,1.74,1.99,2.45,3.58,3.26,6.39,1.66,5.83,2.7,11.81,3.77,17.77,1.47,8.21,2.95,16.53,6.2,24.26,1.36,3.25,3.4,6.06,3.93,9.55.35,2.32.7,4.63,1.1,6.94.27,1.58.56,3.16.89,4.75.8.17,1.55.07,2.24-.23,2.08-.89,3.65-3.53,4.72-5.84.37-.81.69-1.58.94-2.22,1.55-3.92,2.01-8.29,1.18-12.44Z"/>
    <path class="cls-7" d="M495.43,202.43c-.33-1.58-.62-3.17-.89-4.75-.4-2.31-.75-4.62-1.1-6.94-.53-3.49-2.56-6.31-3.93-9.55-3.25-7.73-4.72-16.05-6.2-24.26-1.07-5.96-2.11-11.94-3.77-17.77-.8-2.81-1.51-4.4-3.26-6.39-1.71-1.95-2.57-3.35-2.09-6.15.35-2.02,1.17-3.94,1.4-5.98.1-.89.06-1.85-.45-2.59-.43-.63-1.14-1.01-1.81-1.38-5.88-3.26-10.99-7.91-14.8-13.46-.12,2.25-3.47,2.79-5.36,1.55-1.88-1.24-2.97-3.41-4.78-4.76-1.81-1.35-5.1-1.25-5.62.95-1.58-.59-1.53-2.31-2.64-2.97-1.18-.7-4.46-.31-5.85-.36-2.47-.08-4.73.68-7.11.82-2.72.16-5.55-.35-8.31-.22-5.33.26-10.63,1.29-15.68,3.03-3.86,1.33-7.64,3.02-10.99,5.36-2.66,1.85-4.64,2.84-8.15,2.45-2.47-.27-4.45-2.1-6.84-2.31-5.04-.45-7.83,3.43-11.8,5.42-3.55,1.78-7.8.41-10.72,3.86-1.58,1.87-2.03,4.42-2.39,6.84-2.02,13.46-3.19,27.05-3.53,40.66-.85-1.42-1.41-2.83-1.99-4.31-5.14,9.31-7.58,21.41-9.52,31.8-1.92,10.3-3.89,22.21-2.64,32.7-.41-3.47-1.7-6.82-3.72-9.67l-.11.3c-.4,1.11-.81,2.22-1.21,3.33,3.11,10.31,6.25,20.61,9.45,30.89,1.75,5.65,3.54,11.29,5.47,16.88,2.47,7.16,5.2,14.22,8.5,21.04,3.16,6.54,6.85,12.81,10.99,18.78,1.08,1.56,2.2,3.1,3.34,4.62,2.28,3.03,4.69,5.96,7.21,8.79.33.37.65.76.99,1.13,10.61,11.66,22.33,19.36,38.08,20.08,8.28.38,18.51.64,26.05-2.81,8.4-3.84,15.45-8.68,21.48-14.62,5.07-4.99,9.42-10.75,13.24-17.36.5-.86.99-1.73,1.46-2.61,1.06-1.97,2.05-3.98,2.97-6.01,5.7-12.61,8.81-26.39,11.05-40.52,2.83-17.92,4.26-36.4,7.76-53.75-.69.29-1.44.4-2.24.23Z"/>
    <path class="cls-5" d="M446.14,469.33c-4.69-3.43-8.97-7.41-14.1-10.46-4.45-2.65-9.09-4.98-13.87-6.96-3.97-1.65-7.82-1.47-11.84-2.83-8.46-2.87-16.13-8-22.14-14.59-3.53-3.87-6.51-8.24-8.82-12.93-1.35-2.73-4.07-9.19-8.21-8.1-1.5.39-2.32,2.29-3.28,3.34-1.65,1.79-3.61,3.31-5.59,4.73-7.77,5.55-17.06,8.99-26.59,9.69,1.33-.1,4.49-5.55,5.27-6.67,1.73-2.48,3.3-5.07,4.7-7.74,2.81-5.35,4.97-11.05,6.41-16.92,3.21-13.07,1.2-25.02.17-38.16-.38-4.78-2.67-16.95-1.56-21.61.08-.33.17-.66.26-.99-2.17-.09-4.34.26-6.49.61-4.4.72-8.79,1.44-13.19,2.16-3.57.59-7.37,1.27-10.04,3.71-3.01,2.74-4.54,7.56-8.52,8.36-3.12.63-6.28-1.67-9.4-1.04-3.55.72-5.29,4.74-8.27,6.78-3,2.04-6.91,1.9-10.46,2.61-3.41.69-6.62,2.27-9.28,4.51-2.69,2.26-3.31,3.85-6.76,4.52-6.98,1.34-13.94,3.23-19.51,7.87-7.07,5.89-10.57,15.03-16.87,21.75-10.43,11.13-28.64,16.05-32.72,30.75-1.29,4.63-.86,9.54-1.02,14.35-.27,8.06-2.32,16.03-5.84,23.27h257.59Z"/>
    <path class="cls-5" d="M661.94,469.33c-8.5-16.44-6.48-36.24-7.81-54.8-1.37-19.02-9.38-40.75-27.77-45.79-9.62-2.63-19.27-.81-27.33-7.68-3.45-2.94-6.69-6.36-10.92-7.98-5.83-2.23-12.54-.66-18.48-2.58-7.17-2.31-12.21-9.36-19.55-11.06-6.57-1.52-13.51,1.6-20.11.24-3.29-.68-6.26-2.44-9.51-3.27-2.56-.65-5.05-.58-7.51-.3,8.89,14.44,22.14,25.98,30.05,40.99,1.09,2.08,2.11,4.36,1.81,6.69,0,6.39-8.22,7.7-12.71,7.27.67-.8,1.43-1.73,1.87-2.71.48-1.05.6-2.32.03-3.33-.83-1.48-2.76-1.86-4.45-1.98-6.13-.41-12.35.76-17.91,3.38.31,7.24.69,12.08-2.7,18.75-1.85,3.65-4,7.14-6.42,10.44-2.79,3.8-5.94,7.35-8.45,11.36-2.11,3.36-2.47,6.89-4.02,10.29-1.8,3.96-6.35,7.69-9.09,11.1-3.06,3.8-6.05,7.66-9.04,11.52-2.44,3.15-4.88,6.29-7.32,9.44h197.35Z"/>
    <path class="cls-5" d="M363.87,416.79c.96-1.05,1.79-2.94,3.28-3.34,4.15-1.09,6.87,5.36,8.21,8.1,2.32,4.69,5.3,9.06,8.82,12.93,6.01,6.6,13.68,11.72,22.14,14.59,4.02,1.36,7.87,1.18,11.84,2.83,4.78,1.98,9.42,4.31,13.87,6.96,5.13,3.05,9.41,7.02,14.1,10.46h2.96c-7.06-9.55-16.87-17.05-27.96-21.3-4.19-1.61-8.6-2.79-12.44-5.11-3.84-2.32-7.15-6.12-7.44-10.6-.13-1.95.3-4.04-.6-5.78-.87-1.68-2.72-2.55-4.39-3.44-17.16-9.1-24.95-30.29-24.02-49.7.23-4.86.91-9.69,1.48-14.52.5-4.2.91-8.4.88-12.63-.1-12.41-4.02-24.32-7.24-36.36-1.14-1.52-2.26-3.05-3.34-4.62-2.18,12.58-13.61,21.14-17.09,33.84-.09.33-.18.66-.26.99-1.11,4.67,1.19,16.83,1.56,21.61,1.04,13.15,3.05,25.09-.17,38.16-1.44,5.87-3.6,11.57-6.41,16.92-1.41,2.67-2.98,5.26-4.7,7.74-.78,1.11-3.93,6.57-5.27,6.67,9.53-.7,18.83-4.13,26.59-9.69,1.98-1.41,3.94-2.94,5.59-4.73Z"/>
    <path class="cls-5" d="M464.59,469.33c2.44-3.15,4.88-6.29,7.32-9.44,2.99-3.86,5.98-7.72,9.04-11.52,2.74-3.41,7.29-7.13,9.09-11.1,1.55-3.4,1.91-6.93,4.02-10.29,2.51-4,5.66-7.56,8.45-11.36,2.42-3.3,4.57-6.79,6.42-10.44,3.39-6.67,3.01-11.5,2.7-18.75,5.56-2.62,11.78-3.79,17.91-3.38,1.69.11,3.61.5,4.45,1.98.57,1,.44,2.28-.03,3.33-.44.98-1.21,1.9-1.87,2.71,4.49.43,12.71-.88,12.71-7.27.29-2.33-.72-4.61-1.81-6.69-7.91-15.01-21.16-26.56-30.05-40.99-.26-.42-.53-.84-.79-1.27-4.6-7.79-7.82-16.36-12.91-23.84-4.84-7.1-11.95-13.34-20.39-14.52-.92,2.04-1.91,4.04-2.97,6.01-.48.89-.97,1.75-1.46,2.61.47,10.63,2.99,21.16,7.38,30.85,1.34,2.94,2.85,5.81,4.52,8.57,4.37,7.21,10.05,14.34,10.21,22.77.08,3.98-1.11,7.85-2.29,11.65-2.8,9.01-5.59,18.02-8.39,27.03-1,3.21-2,6.44-3.64,9.37-2.26,4.05-5.61,7.35-8.4,11.04-9.64,12.73-12.36,29.59-21.1,42.86-.02.02-.03.05-.05.07h11.93Z"/>
    <path class="cls-7" d="M373.73,358.87c-.57,4.83-1.25,9.66-1.48,14.52-.93,19.4,6.85,40.6,24.02,49.7,1.67.88,3.52,1.76,4.39,3.44.9,1.74.47,3.83.6,5.78.29,4.48,3.6,8.28,7.44,10.6,3.84,2.32,8.25,3.5,12.44,5.11,11.09,4.26,20.9,11.76,27.96,21.3h3.56s.03-.05.05-.07c8.74-13.27,11.47-30.13,21.1-42.86,2.8-3.69,6.15-7,8.4-11.04,1.63-2.93,2.64-6.16,3.64-9.37,2.8-9.01,5.59-18.02,8.39-27.03,1.18-3.8,2.37-7.68,2.29-11.65-.16-8.43-5.84-15.56-10.21-22.77-1.68-2.77-3.19-5.63-4.52-8.57-4.4-9.69-6.91-20.22-7.38-30.85-3.82,6.61-8.17,12.37-13.24,17.36-6.03,5.94-13.08,10.78-21.48,14.62-7.54,3.44-17.77,3.18-26.05,2.81-15.75-.72-27.47-8.43-38.08-20.08-.34-.37-.66-.76-.99-1.13-2.52-2.83-4.93-5.77-7.21-8.79,3.23,12.04,7.14,23.95,7.24,36.36.03,4.23-.38,8.43-.88,12.63Z"/>
  </g>
  <path class="cls-2" d="M435.45,246.14c-2.44-2.17-6.3-1.54-9.22-.06s-5.52,3.67-8.7,4.44c-6.92,1.67-13.48-3.9-20.56-4.68-.96-.11-2.11-.03-2.64.78s.61,2.17,1.29,1.48"/>
  <path class="cls-2" d="M393.53,250.74c-4.58-1.02-7.75-6.22-6.56-10.76.82-3.13,3.25-5.51,5.18-8.1,3.69-4.95,5.68-10.92,7.62-16.78"/>
  <path class="cls-2" d="M438.07,247.86c2-2.17,4.09-4.55,4.45-7.48.34-2.79-.99-5.52-2.67-7.76-1.69-2.24-3.76-4.19-5.29-6.54"/>
  <path class="cls-4" d="M433.31,272.85c-16.17,2.62-32.61,3.53-48.97,2.76,1.46,2.48,3.16,4.82,5.08,6.97,1.25,1.4,2.61,2.73,4.2,3.74,1.46.93,3.09,1.56,4.75,2.06,10.77,3.27,22.43,1.21,33.23-1.96,2.64-.77,5.27-1.62,7.73-2.85,4.93-2.48,8.93-6.4,12.7-10.48-5.7-2.41-12.48-1.25-18.72-.24Z"/>
  <g>
    <path class="cls-2" d="M497.67,200.4c-3.5,17.35-4.93,35.83-7.76,53.75,2.33-.42,4.51-2.24,5.52-4.41,1.42-3.06,1.21-6.56,1.25-9.91.17-12.73,4.42-25.05,6.7-37.59.33-1.79.61-3.64.17-5.41-.2-.82-.61-1.62-1.16-2.28-1.07,2.31-2.64,4.95-4.72,5.84Z"/>
    <path class="cls-2" d="M329.62,215.87c-.48,1.31-.95,2.62-1.43,3.94,4.94,14.45,5.53,30.66,14.1,43.28.34.49.79,1.03,1.38,1,.33-.02.61-.21.86-.44-1.93-5.59-3.71-11.24-5.47-16.88-3.2-10.28-6.34-20.58-9.45-30.89Z"/>
    <path class="cls-2" d="M504.51,179.91c-.56-2.81-1.67-5.48-2.6-8.2-4.69-13.73-2.6-27.41-3.09-41.56-.37-10.76-.89-21.68-4.31-31.89-4.01-11.97-16.77-30.32-31.65-24.78-2.63.98-4.21,2.03-6.81.39-3.31-2.09-5.79-5.59-9.21-7.74-7.28-4.56-15.75-6.86-24.19-8.06-7.74-1.1-15.6-1.31-23.38-.63-14.18,1.24-28.18,5.54-40.33,13.01-11.8,7.25-22.91,15.27-31.7,26.14-2.76,3.41-5.42,6.95-7.38,10.88-6.21,12.47-11.82,24.54-15.04,38.24,1.95-2.37,3.9-4.74,5.84-7.1-.94,7.5-1.88,14.99-2.82,22.49l2.22-3.26c-.81,1.19.12,6.08.14,7.59.05,2.69-.05,5.43.18,8.11.41,4.84.36,9.74.5,14.65,1.92-2.17,3.84-4.35,5.75-6.52-3.82,14.05-5.42,28.69-4.74,43.23,2.23-5.23,5.14-10.17,8.63-14.66-.21,7.17.98,14.37,3.48,21.09l4.19-11.51c.48-1.31.95-2.62,1.43-3.94.4-1.11.81-2.22,1.21-3.33l.11-.3c2.01,2.85,3.3,6.21,3.72,9.67-1.25-10.49.73-22.4,2.64-32.7,1.93-10.39,4.38-22.48,9.52-31.8.58,1.48,1.14,2.89,1.99,4.31.33-13.61,1.51-27.19,3.53-40.66.36-2.42.81-4.97,2.39-6.84,2.92-3.45,7.17-2.08,10.72-3.86,3.96-1.99,6.76-5.87,11.8-5.42,2.39.21,4.37,2.04,6.84,2.31,3.51.39,5.5-.6,8.15-2.45,3.35-2.34,7.13-4.03,10.99-5.36,5.05-1.74,10.34-2.77,15.68-3.03,2.76-.13,5.58.38,8.31.22,2.38-.14,4.64-.9,7.11-.82,1.39.05,4.68-.34,5.85.36,1.11.66,1.05,2.38,2.64,2.97.51-2.2,3.81-2.3,5.62-.95,1.81,1.35,2.9,3.51,4.78,4.76,1.88,1.24,5.23.7,5.36-1.55,3.81,5.55,8.91,10.19,14.8,13.46.67.37,1.38.75,1.81,1.38.51.74.54,1.7.45,2.59-.22,2.04-1.05,3.96-1.4,5.98-.48,2.79.38,4.2,2.09,6.15,1.74,1.99,2.45,3.58,3.26,6.39,1.66,5.83,2.7,11.81,3.77,17.77,1.47,8.21,2.95,16.53,6.2,24.26,1.36,3.25,3.4,6.06,3.93,9.55.35,2.32.7,4.63,1.1,6.94.27,1.58.56,3.16.89,4.75.8.17,1.55.07,2.24-.23,2.08-.89,3.65-3.53,4.72-5.84.37-.81.69-1.58.94-2.22,1.55-3.92,2.01-8.29,1.18-12.44Z"/>
    <path class="cls-2" d="M495.43,200.63c-.33-1.58-.62-3.17-.89-4.75-.4-2.31-.75-4.62-1.1-6.94-.53-3.49-2.56-6.31-3.93-9.55-3.25-7.73-4.72-16.05-6.2-24.26-1.07-5.96-2.11-11.94-3.77-17.77-.8-2.81-1.51-4.4-3.26-6.39-1.71-1.95-2.57-3.35-2.09-6.15.35-2.02,1.17-3.94,1.4-5.98.1-.89.06-1.85-.45-2.59-.43-.63-1.14-1.01-1.81-1.38-5.88-3.26-10.99-7.91-14.8-13.46-.12,2.25-3.47,2.79-5.36,1.55-1.88-1.24-2.97-3.41-4.78-4.76-1.81-1.35-5.1-1.25-5.62.95-1.58-.59-1.53-2.31-2.64-2.97-1.18-.7-4.46-.31-5.85-.36-2.47-.08-4.73.68-7.11.82-2.72.16-5.55-.35-8.31-.22-5.33.26-10.63,1.29-15.68,3.03-3.86,1.33-7.64,3.02-10.99,5.36-2.66,1.85-4.64,2.84-8.15,2.45-2.47-.27-4.45-2.1-6.84-2.31-5.04-.45-7.83,3.43-11.8,5.42-3.55,1.78-7.8.41-10.72,3.86-1.58,1.87-2.03,4.42-2.39,6.84-2.02,13.46-3.19,27.05-3.53,40.66-.85-1.42-1.41-2.83-1.99-4.31-5.14,9.31-7.58,21.41-9.52,31.8-1.92,10.3-3.89,22.21-2.64,32.7-.41-3.47-1.7-6.82-3.72-9.67l-.11.3c-.4,1.11-.81,2.22-1.21,3.33,3.11,10.31,6.25,20.61,9.45,30.89,1.75,5.65,3.54,11.29,5.47,16.88,2.47,7.16,5.2,14.22,8.5,21.04,3.16,6.54,6.85,12.81,10.99,18.78,1.08,1.56,2.2,3.1,3.34,4.62,2.28,3.03,4.69,5.96,7.21,8.79.33.37.65.76.99,1.13,10.61,11.66,22.33,19.36,38.08,20.08,8.28.38,18.51.64,26.05-2.81,8.4-3.84,15.45-8.68,21.48-14.62,5.07-4.99,9.42-10.75,13.24-17.36.5-.86.99-1.73,1.46-2.61,1.06-1.97,2.05-3.98,2.97-6.01,5.7-12.61,8.81-26.39,11.05-40.52,2.83-17.92,4.26-36.4,7.76-53.75-.69.29-1.44.4-2.24.23Z"/>
    <path class="cls-2" d="M446.14,467.52c-4.69-3.43-8.97-7.41-14.1-10.46-4.45-2.65-9.09-4.98-13.87-6.96-3.97-1.65-7.82-1.47-11.84-2.83-8.46-2.87-16.13-8-22.14-14.59-3.53-3.87-6.51-8.24-8.82-12.93-1.35-2.73-4.07-9.19-8.21-8.1-1.5.39-2.32,2.29-3.28,3.34-1.65,1.79-3.61,3.31-5.59,4.73-7.77,5.55-17.06,8.99-26.59,9.69,1.33-.1,4.49-5.55,5.27-6.67,1.73-2.48,3.3-5.07,4.7-7.74,2.81-5.35,4.97-11.05,6.41-16.92,3.21-13.07,1.2-25.02.17-38.16-.38-4.78-2.67-16.95-1.56-21.61.08-.33.17-.66.26-.99-2.17-.09-4.34.26-6.49.61-4.4.72-8.79,1.44-13.19,2.16-3.57.59-7.37,1.27-10.04,3.71-3.01,2.74-4.54,7.56-8.52,8.36-3.12.63-6.28-1.67-9.4-1.04-3.55.72-5.29,4.74-8.27,6.78-3,2.04-6.91,1.9-10.46,2.61-3.41.69-6.62,2.27-9.28,4.51-2.69,2.26-3.31,3.85-6.76,4.52-6.98,1.34-13.94,3.23-19.51,7.87-7.07,5.89-10.57,15.03-16.87,21.75-10.43,11.13-28.64,16.05-32.72,30.75-1.29,4.63-.86,9.54-1.02,14.35-.27,8.06-2.32,16.03-5.84,23.27h257.59Z"/>
    <path class="cls-2" d="M661.94,467.52c-8.5-16.44-6.48-36.24-7.81-54.8-1.37-19.02-9.38-40.75-27.77-45.79-9.62-2.63-19.27-.81-27.33-7.68-3.45-2.94-6.69-6.36-10.92-7.98-5.83-2.23-12.54-.66-18.48-2.58-7.17-2.31-12.21-9.36-19.55-11.06-6.57-1.52-13.51,1.6-20.11.24-3.29-.68-6.26-2.44-9.51-3.27-2.56-.65-5.05-.58-7.51-.3,8.89,14.44,22.14,25.98,30.05,40.99,1.09,2.08,2.11,4.36,1.81,6.69,0,6.39-8.22,7.7-12.71,7.27.67-.8,1.43-1.73,1.87-2.71.48-1.05.6-2.32.03-3.33-.83-1.48-2.76-1.86-4.45-1.98-6.13-.41-12.35.76-17.91,3.38.31,7.24.69,12.08-2.7,18.75-1.85,3.65-4,7.14-6.42,10.44-2.79,3.8-5.94,7.35-8.45,11.36-2.11,3.36-2.47,6.89-4.02,10.29-1.8,3.96-6.35,7.69-9.09,11.1-3.06,3.8-6.05,7.66-9.04,11.52-2.44,3.15-4.88,6.29-7.32,9.44h197.35Z"/>
    <path class="cls-2" d="M363.87,414.99c.96-1.05,1.79-2.94,3.28-3.34,4.15-1.09,6.87,5.36,8.21,8.1,2.32,4.69,5.3,9.06,8.82,12.93,6.01,6.6,13.68,11.72,22.14,14.59,4.02,1.36,7.87,1.18,11.84,2.83,4.78,1.98,9.42,4.31,13.87,6.96,5.13,3.05,9.41,7.02,14.1,10.46h2.96c-7.06-9.55-16.87-17.05-27.96-21.3-4.19-1.61-8.6-2.79-12.44-5.11-3.84-2.32-7.15-6.12-7.44-10.6-.13-1.95.3-4.04-.6-5.78-.87-1.68-2.72-2.55-4.39-3.44-17.16-9.1-24.95-30.29-24.02-49.7.23-4.86.91-9.69,1.48-14.52.5-4.2.91-8.4.88-12.63-.1-12.41-4.02-24.32-7.24-36.36-1.14-1.52-2.26-3.05-3.34-4.62-2.18,12.58-13.61,21.14-17.09,33.84-.09.33-.18.66-.26.99-1.11,4.67,1.19,16.83,1.56,21.61,1.04,13.15,3.05,25.09-.17,38.16-1.44,5.87-3.6,11.57-6.41,16.92-1.41,2.67-2.98,5.26-4.7,7.74-.78,1.11-3.93,6.57-5.27,6.67,9.53-.7,18.83-4.13,26.59-9.69,1.98-1.41,3.94-2.94,5.59-4.73Z"/>
    <path class="cls-2" d="M464.59,467.52c2.44-3.15,4.88-6.29,7.32-9.44,2.99-3.86,5.98-7.72,9.04-11.52,2.74-3.41,7.29-7.13,9.09-11.1,1.55-3.4,1.91-6.93,4.02-10.29,2.51-4,5.66-7.56,8.45-11.36,2.42-3.3,4.57-6.79,6.42-10.44,3.39-6.67,3.01-11.5,2.7-18.75,5.56-2.62,11.78-3.79,17.91-3.38,1.69.11,3.61.5,4.45,1.98.57,1,.44,2.28-.03,3.33-.44.98-1.21,1.9-1.87,2.71,4.49.43,12.71-.88,12.71-7.27.29-2.33-.72-4.61-1.81-6.69-7.91-15.01-21.16-26.56-30.05-40.99-.26-.42-.53-.84-.79-1.27-4.6-7.79-7.82-16.36-12.91-23.84-4.84-7.1-11.95-13.34-20.39-14.52-.92,2.04-1.91,4.04-2.97,6.01-.48.89-.97,1.75-1.46,2.61.47,10.63,2.99,21.16,7.38,30.85,1.34,2.94,2.85,5.81,4.52,8.57,4.37,7.21,10.05,14.34,10.21,22.77.08,3.98-1.11,7.85-2.29,11.65-2.8,9.01-5.59,18.02-8.39,27.03-1,3.21-2,6.44-3.64,9.37-2.26,4.05-5.61,7.35-8.4,11.04-9.64,12.73-12.36,29.59-21.1,42.86-.02.02-.03.05-.05.07h11.93Z"/>
    <path class="cls-2" d="M373.73,357.07c-.57,4.83-1.25,9.66-1.48,14.52-.93,19.4,6.85,40.6,24.02,49.7,1.67.88,3.52,1.76,4.39,3.44.9,1.74.47,3.83.6,5.78.29,4.48,3.6,8.28,7.44,10.6,3.84,2.32,8.25,3.5,12.44,5.11,11.09,4.26,20.9,11.76,27.96,21.3h3.56s.03-.05.05-.07c8.74-13.27,11.47-30.13,21.1-42.86,2.8-3.69,6.15-7,8.4-11.04,1.63-2.93,2.64-6.16,3.64-9.37,2.8-9.01,5.59-18.02,8.39-27.03,1.18-3.8,2.37-7.68,2.29-11.65-.16-8.43-5.84-15.56-10.21-22.77-1.68-2.77-3.19-5.63-4.52-8.57-4.4-9.69-6.91-20.22-7.38-30.85-3.82,6.61-8.17,12.37-13.24,17.36-6.03,5.94-13.08,10.78-21.48,14.62-7.54,3.44-17.77,3.18-26.05,2.81-15.75-.72-27.47-8.43-38.08-20.08-.34-.37-.66-.76-.99-1.13-2.52-2.83-4.93-5.77-7.21-8.79,3.23,12.04,7.14,23.95,7.24,36.36.03,4.23-.38,8.43-.88,12.63Z"/>
  </g>
  <circle class="cls-1" cx="368.96" cy="194.84" r="6.91"/>
  <circle class="cls-1" cx="452.84" cy="189.77" r="6.91"/>
  <path class="cls-2" d="M490.3,90.51c-5.05-5.75-12.29-10.58-18.74-3.63-4.1,4.41-5.85,11.83-2.7,17.15,2.92,4.93,7.94,8.18,10.72,13.32,4.52,8.36,7.05,18.29,10.33,27.2,1.89,5.14,3.83,10.36,7.08,14.77"/>
  <path class="cls-2" d="M462.08,104.11c.94-16.08-8.28-32.32-22.56-39.75"/>
  <path class="cls-2" d="M352.11,112.94c8.88-14.48,19.33-28.56,33.68-37.65,14.35-9.09,33.35-12.38,48.49-4.66,4.9,2.5,9.33,6.15,12.02,10.94s3.48,10.8,1.37,15.88"/>
  <path class="cls-2" d="M444.05,93.66c-1.95-3.44-3.96-6.94-6.9-9.58s-7.04-4.32-10.88-3.39c-5.5,1.32-8.51,7.16-13.11,10.46-4.33,3.1-9.92,3.83-15.24,3.78s-10.67-.75-15.95-.11c-8.34,1.02-16.2,5.55-21.25,12.27"/>
  <path class="cls-2" d="M374.13,67.54c-14.39,11.69-24.15,28.3-30.45,45.74-6.3,17.44-9.38,35.85-12.44,54.14"/>
  <path class="cls-2" d="M314.31,212.69c1.99-10.51,10.29-26.47,9.5-37.13-1.36-18.41,1.39-37.12,8-54.36"/>
  <path class="cls-2" d="M307.26,352.91c2.02,11.12-.5,22.56-3.98,33.31s-7.93,21.25-9.94,32.37c-2.02,11.12-1.34,23.26,4.84,32.73"/>
  <path class="cls-2" d="M272.78,460.32c-.24-26.23-8.33-52.35-22.97-74.12l-3.63,15.98c-1.87-3.04-3.74-6.08-5.61-9.12-5.41,9.24-1.52,20.91,2.47,30.85,5.68,14.15,11.36,28.3,17.04,42.45"/>
  <path class="cls-2" d="M552.58,459.23c-10.48-33.01-9.6-69.53,2.47-101.99"/>
  <path class="cls-2" d="M602.88,361.54c-21.55,23.75-28.41,59.84-17.06,89.83-.27-10.98-.51-22.15,2.46-32.73,2.97-10.57,9.7-20.65,19.8-24.95,5.03-2.14,10.67-2.77,15.45-5.43s8.58-8.56,6.25-13.51"/>
  <path class="cls-2" d="M472.93,321.05c-3.35,22.17-4.47,44.68-3.32,67.08"/>
  <g>
    <path class="cls-4" d="M500.45,172.22l-.02-.02c-.08.01-.17-.02-.12-.1l.12.1c.06,0,.11-.03.11-.09,0-.15-23.81-4.07-35.72-4.07-4.24,0-8.48.05-12.69.55-10.81,1.28-21.24,4.53-29.86,11.17-7.56-1.16-17.4-.75-23.06,2.08-5.39-3.46-11.01-7.71-17.54-8.24-35.82-2.93-53.48,5.45-59.74,8.17-.26.11-.53.24-.68.48-.17.27-.14.62-.1.94l.53,4.53c.06.55.13,1.12.41,1.6.38.66,1.08,1.06,1.72,1.47,1.28.83,2.43,1.88,3.38,3.08,5.63,7.11,3.56,18.17,9.08,25.37,3.61,7.8,11.78,13.61,20.61,15.04,34.46,5.57,44.97-22.8,45.86-35.94.07-1.05.1-2.13-.2-3.14-.37-1.28-1.25-2.41-1.36-3.73-.17-1.9,1.34-3.63,3.11-4.35,1.77-.72,9.35-1.1,11.81-1.05,1.15.02,2.33.15,3.33.7s1.79,1.63,1.7,2.78c-.07.96-.71,1.76-1.14,2.62-1.14,2.28-.8,5-.23,7.48,1.87,8.07,6.01,15.6,11.83,21.5,3.53,3.19,10.99,8.93,25.6,8.93,6.72,0,32.39,0,35.87-33.11.34-3.23.42-6.53,1.36-9.64.94-3.11,3.91-6.11,6.92-7.35-.2-2.59-.45-5.19-.87-7.76ZM378.77,228.69c-13.28,6.06-33.46,1.93-40.07-11.58-16.26-33.23,3.51-43.4,31.7-41.72,28.19,1.67,27.07,17.57,27.07,17.57,0,0,2.3,26.15-18.7,35.73ZM488.93,191.85c-1.19,42.7-39.28,36-51.83,29.3-12.56-6.7-32.27-45.23,13.21-49.47,12.31-1.15,20.56-.13,25.47.99,6.07,1.39,10.91,6.02,12.38,12.06.93,3.84.78,7.11.78,7.11Z"/>
    <path class="cls-4" d="M500.43,172.2l-.12-.1c-.05.07.04.11.12.1Z"/>
  </g>
  <g>
    <path class="cls-5" d="M500.45,174.02l-.02-.02c-.08.01-.17-.02-.12-.1l.12.1c.06,0,.11-.03.11-.09,0-.15-23.81-4.07-35.72-4.07-4.24,0-8.48.05-12.69.55-10.81,1.28-21.24,4.53-29.86,11.17-7.56-1.16-17.4-.75-23.06,2.08-5.39-3.46-11.01-7.71-17.54-8.24-35.82-2.93-53.48,5.45-59.74,8.17-.26.11-.53.24-.68.48-.17.27-.14.62-.1.94l.53,4.53c.06.55.13,1.12.41,1.6.38.66,1.08,1.06,1.72,1.47,1.28.83,2.43,1.88,3.38,3.08,5.63,7.11,3.56,18.17,9.08,25.37,3.61,7.8,11.78,13.61,20.61,15.04,34.46,5.57,44.97-22.8,45.86-35.94.07-1.05.1-2.13-.2-3.14-.37-1.28-1.25-2.41-1.36-3.73-.17-1.9,1.34-3.63,3.11-4.35,1.77-.72,9.35-1.1,11.81-1.05,1.15.02,2.33.15,3.33.7s1.79,1.63,1.7,2.78c-.07.96-.71,1.76-1.14,2.62-1.14,2.28-.8,5-.23,7.48,1.87,8.07,6.01,15.6,11.83,21.5,3.53,3.19,10.99,8.93,25.6,8.93,6.72,0,32.39,0,35.87-33.11.34-3.23.42-6.53,1.36-9.64.94-3.11,3.91-6.11,6.92-7.35-.2-2.59-.45-5.19-.87-7.76ZM378.77,230.48c-13.28,6.06-33.46,1.93-40.07-11.58-16.26-33.23,3.51-43.4,31.7-41.72,28.19,1.67,27.07,17.57,27.07,17.57,0,0,2.3,26.15-18.7,35.73ZM488.93,193.64c-1.19,42.7-39.28,36-51.83,29.3-12.56-6.7-32.27-45.23,13.21-49.47,12.31-1.15,20.56-.13,25.47.99,6.07,1.39,10.91,6.02,12.38,12.06.93,3.84.78,7.11.78,7.11Z"/>
    <path class="cls-5" d="M500.43,174l-.12-.1c-.05.07.04.11.12.1Z"/>
  </g>
  <g>
    <path class="cls-2" d="M500.45,172.22l-.02-.02c-.08.01-.17-.02-.12-.1l.12.1c.06,0,.11-.03.11-.09,0-.15-23.81-4.07-35.72-4.07-4.24,0-8.48.05-12.69.55-10.81,1.28-21.24,4.53-29.86,11.17-7.56-1.16-17.4-.75-23.06,2.08-5.39-3.46-11.01-7.71-17.54-8.24-35.82-2.93-53.48,5.45-59.74,8.17-.26.11-.53.24-.68.48-.17.27-.14.62-.1.94l.53,4.53c.06.55.13,1.12.41,1.6.38.66,1.08,1.06,1.72,1.47,1.28.83,2.43,1.88,3.38,3.08,5.63,7.11,3.56,18.17,9.08,25.37,3.61,7.8,11.78,13.61,20.61,15.04,34.46,5.57,44.97-22.8,45.86-35.94.07-1.05.1-2.13-.2-3.14-.37-1.28-1.25-2.41-1.36-3.73-.17-1.9,1.34-3.63,3.11-4.35,1.77-.72,9.35-1.1,11.81-1.05,1.15.02,2.33.15,3.33.7s1.79,1.63,1.7,2.78c-.07.96-.71,1.76-1.14,2.62-1.14,2.28-.8,5-.23,7.48,1.87,8.07,6.01,15.6,11.83,21.5,3.53,3.19,10.99,8.93,25.6,8.93,6.72,0,32.39,0,35.87-33.11.34-3.23.42-6.53,1.36-9.64.94-3.11,3.91-6.11,6.92-7.35-.2-2.59-.45-5.19-.87-7.76ZM378.77,228.69c-13.28,6.06-33.46,1.93-40.07-11.58-16.26-33.23,3.51-43.4,31.7-41.72,28.19,1.67,27.07,17.57,27.07,17.57,0,0,2.3,26.15-18.7,35.73ZM488.93,191.85c-1.19,42.7-39.28,36-51.83,29.3-12.56-6.7-32.27-45.23,13.21-49.47,12.31-1.15,20.56-.13,25.47.99,6.07,1.39,10.91,6.02,12.38,12.06.93,3.84.78,7.11.78,7.11Z"/>
    <path class="cls-2" d="M500.43,172.2l-.12-.1c-.05.07.04.11.12.1Z"/>
  </g>
  <path class="cls-2" d="M433.31,272.85c-16.17,2.62-32.61,3.53-48.97,2.76,1.46,2.48,3.16,4.82,5.08,6.97,1.25,1.4,2.61,2.73,4.2,3.74,1.46.93,3.09,1.56,4.75,2.06,10.77,3.27,22.43,1.21,33.23-1.96,2.64-.77,5.27-1.62,7.73-2.85,4.93-2.48,8.93-6.4,12.7-10.48-5.7-2.41-12.48-1.25-18.72-.24Z"/>
  <path class="cls-2" d="M453.74,273.93c-6.02-3.51-13.55-2.2-20.43-1.08-15.83,2.56-31.91,3.51-47.93,2.82-.61-.03-1.22-.05-1.83-.09-1.17-.06-2.33.37-3.09,1.27,0,0-.01.02-.02.03"/>
</svg>