<?xml version="1.0" encoding="UTF-8"?>
<svg id="Layer_1" xmlns="http://www.w3.org/2000/svg" xmlns:xlink="http://www.w3.org/1999/xlink" version="1.1" viewBox="0 0 841.89 467.72">
  <!-- Generator: Adobe Illustrator 29.0.0, SVG Export Plug-In . SVG Version: 2.1.0 Build 186)  -->
  <defs>
    <style>
      .st0, .st1, .st2 {
        fill: none;
      }

      .st3 {
        fill: #55565a;
      }

      .st4 {
        fill: #826257;
      }

      .st5 {
        fill: #f8dc9d;
      }

      .st6 {
        fill: #fff;
      }

      .st7 {
        fill: #1b2151;
      }

      .st8 {
        fill: #ffb1b2;
      }

      .st1 {
        stroke-linejoin: round;
      }

      .st1, .st2 {
        stroke: #55565a;
      }

      .st9 {
        clip-path: url(#clippath);
      }

      .st2 {
        stroke-miterlimit: 10;
      }
    </style>
    <clipPath id="clippath">
      <rect class="st0" width="841.89" height="467.72"/>
    </clipPath>
  </defs>
  <g class="st9">
    <rect class="st5" width="841.89" height="467.72"/>
    <g>
      <g>
        <path class="st6" d="M390.84,301.94c1.98,4.98,7.22,7.8,10.45,12.08,1.06,1.41,1.92,2.99,3.21,4.19,1.27,1.17,2.87,1.89,4.44,2.59,4.12,1.84,8.24,3.67,12.35,5.51,3.62,1.62,7.76,3.25,11.43,1.74,1.63-.67,3.49-1.94,4.96-.97.56.37.91.99,1.47,1.35.76.48,1.74.36,2.63.23,6.67-.98,13.55-2.03,19.25-5.63,6.9-4.36,11.22-11.95,17.96-16.57,0-2.03-2.91-3.03-3.11-5.05-.09-.91.42-1.75.87-2.54,5.1-8.82,9.46-21.32,4.06-27.98-3.58-4.42-9.97-5.33-15.64-4.87s-11.34,1.97-16.96,1.11c-2.63-.4-5.33-1.31-7.88-.56-1.12.33-2.13.96-3.24,1.3-1.56.48-3.23.35-4.86.22-6.52-.51-13.05-1.03-19.57-1.54-1.61-.13-3.26-.25-4.79.25-1.22.4-2.3,1.17-3.53,1.53-1.47.43-3.09.26-4.53.79-3.6,1.32-4.97,6.48-8.74,7.12-1.15.19-2.65.09-3.1,1.16-.36.84.27,1.75.76,2.53,3.98,6.34-.66,15.05,2.11,22.01Z"/>
        <path class="st6" d="M345.34,238.9c-.39-5.12-.77-10.24-1.16-15.36-.64-8.57-1.28-17.28.45-25.7.81-3.96-1.57-7.27-4.41-8.85.28-1.66.56-3.32.85-4.98-1.2,1.04-2.97,2.12-4.22,1.14-1.87-1.47.63-4.23.92-6.59.33-2.63-2.33-4.63-4.8-5.6-1.79-.7-3.78-1.31-5.24-2.48-.83,1.62-.8,3.58-.72,5.43.64,14.61,1.51,29.22,2.38,43.82.24,4.07.49,8.18,1.61,12.1,1.25,4.37,3.58,8.43,6.73,11.71,1.7,1.77,3.78,3.37,6.21,3.65,1.05.12,2.08-.03,3.05-.37-.28-.73-.58-1.46-.8-2.2-.56-1.85-.71-3.79-.86-5.71Z"/>
        <path class="st6" d="M528.38,172.73c1.33-6.88.77-13.96.2-20.94-.49-6.04-.99-12.08-1.48-18.12-.26-3.18-.54-6.42-1.84-9.33-1.97-4.38-6.04-7.47-8.39-11.66-1.91-3.41-2.58-7.37-3.98-11.02-2.23-5.85-6.38-10.94-11.93-13.27-7.89-10.54-20.06-17.76-33.08-19.64-1.17-.17-2.45-.28-3.47.33-1.24.73-1.73,2.3-2.87,3.19-2.37,1.86-6.09-.1-8.77,1.26-2.15,1.09-2.86,3.92-4.86,5.28-4.06,2.78-9.61-2.2-14.32-.77-1.42.43-2.69,1.44-4.18,1.48-2.51.07-4.13-2.48-5.89-4.27-6.47-6.59-18.37-4.16-24.33-9.93-18.45,10.39-34.14,25.64-45.05,43.79-1.78,2.96-3.48,6.17-3.53,9.62-.02,1.99.51,3.98.31,5.96-.23,2.33-1.43,4.43-2.1,6.67-1.36,4.56-.45,9.45.22,14.16,1.52,10.69,1.79,21.49,1.65,32.32-.27,21.68-2.13,43.48,1.31,64.73.3,1.84.63,3.68,1.01,5.51.94,4.52,2.32,9.26,5.79,12.3-1.59-1.57.44-4.6,2.67-4.43,2.24.16,3.85,2.27,4.56,4.4.71,2.13.83,4.43,1.72,6.49,2.27,5.3,9.02,7.91,10.51,13.47,2.89-1.09,3.48-4.8,4.17-7.81,1.97-8.57,8.57-15.93,16.3-18.82,4.9-1.37,10.04-1.57,15.12-1.76,4.6-.17,9.23-.34,13.44-.04.63.42,1.3.74,1.99.99.81.77,1.68,1.48,2.61,2.1,3.44,2.27,8.24,3.25,11.57.82,1.4-1.02,2.36-2.51,3.51-3.81.01-.01.03-.02.04-.04,12.05-.76,24.19,2.22,35.99,5.18,1.03.26,2.07.52,3.01,1.03.95.51,1.75,1.26,2.55,1.99,2.49,2.31,4.98,4.62,7.47,6.93,1.88,1.75,4.89,3.52,6.72,1.72,1,.92,2.01,1.84,3.01,2.76.28.26.6.53.98.54.44.02.8-.3,1.12-.61,5.08-4.86,10.34-9.98,12.65-16.63.87-2.51,1.32-5.21,2.72-7.46.69-1.1,1.59-2.08,2.09-3.28.75-1.79.51-3.82.37-5.76-.26-3.46-.19-6.94.23-10.39.44-3.64,1.25-7.23,1.77-10.86,1.27-8.88.76-18.01-.65-26.11-2.5-5.69.12-12.16,1.3-18.27Z"/>
        <path class="st6" d="M547.02,172.88c-1.54,1.28-1,3.75-1.67,5.64-.81,2.29-3.75,3.55-5.96,2.54-.3,2.79-.61,5.58-.91,8.37-2.03,4.08-2.98,10.87-2.57,17.58.45,7.35,2.32,15.49-1.89,21.52-.67.96-1.48,1.83-1.98,2.88-1.06,2.23-.59,4.84-.37,7.3.17,1.99.2,3.91.13,5.79,1.08.36,2.3.38,3.39.05,2.14-.65,3.82-2.3,5.28-4,6.05-7.08,9.79-16.12,10.5-25.41.9-11.69-2.84-23.58-.52-35.07.43-2.11,1.04-4.28,1.12-6.4-1.11-1.29-3.23-1.89-4.54-.8Z"/>
        <path class="st6" d="M555.22,161.3c-2.57-12.11,8.89-24.11,5.84-36.11-1.62-6.36-7.14-11.43-7.7-17.97-.5-5.83,2.87-12.62-.95-17.05-1.54-1.79-3.94-2.64-5.56-4.36-2.17-2.29-2.6-5.67-3.4-8.72s-2.55-6.38-6.76-6.88c-1.72-4.04-7.5-13.8-18.51-10.95-2.25.58-2.98-3.5-4.28-5.42-2.92-4.3-17.18-5.04-21.44-8.03-6.77-4.76-12.24-8.98-20.27-11-5.36-1.35-11.25-4.36-12.84-4.37-2.56,0-5.13,0-7.66.41-2.82.46-5.62,1.45-8.45,1.13-2.27-.26-4.36-1.34-6.52-2.08-6.8-2.32-14.71-1.08-20.48,3.2-1.42,1.05-2.89,2.34-4.65,2.29-1.43-.04-2.67-.97-4.07-1.27-2.12-.46-4.24.56-6.17,1.54-4.92,2.51-9.95,5.1-13.7,9.15-2.43,2.61-4.37,5.86-7.54,7.5-3.84,1.98-8.95,1.28-12.1,4.25-2.01,1.89-2.64,4.78-3.85,7.26-1.2,2.48-3.72,4.89-6.38,4.16-.74-.2-1.45-.64-2.22-.59-.89.06-1.6.77-2.13,1.49-1.91,2.58-2.73,5.95-3.96,9.69-2.41-1.91-5.87,1.11-6.45,4.13-.58,3.02.1,6.37-1.44,9.03-2,3.46-7.1,4.5-8.47,8.26-1.38,3.78,1.82,8.44-.36,11.83-1.44,2.24-4.55,2.7-6.5,4.51-2.75,2.56-2.47,7.01-1.27,10.57,1.2,3.56,3.13,7.03,2.99,10.79-.16,4.35-2.92,9.33-.03,12.59.78.88,1.89,1.46,2.56,2.43,1.7,2.47-.24,5.74-2.11,8.09-1.87,2.34-3.78,5.65-2.04,8.09.35.64.84,1.15,1.39,1.59,1.46,1.16,3.45,1.77,5.24,2.48,2.47.97,5.12,2.96,4.8,5.6-.29,2.36-2.8,5.12-.92,6.59,1.25.98,3.02-.1,4.22-1.14-.28,1.66-.56,3.32-.85,4.98,2.84,1.58,5.22,4.89,4.41,8.85-1.73,8.42-1.09,17.13-.45,25.7.39,5.12.77,10.24,1.16,15.36.14,1.93.29,3.87.86,5.71.23.74.52,1.47.8,2.2.43,1.1.82,2.2.92,3.37.16,1.88-.48,3.73-.7,5.6-.46,3.82.77,7.62,1.99,11.26,1.88,5.63,3.76,11.27,5.64,16.9,1.2,3.58,2.42,7.22,4.59,10.31,1.71,2.44,1.44,6.22,4.67,7.53,1.45.59.14,3.14.6,4.63.63,2.02,2.34,3.46,3.9,4.9.04.04.09.08.14.12,4.07,3.78,7.36,8.4,9.6,13.48,1.07,2.43,2.14,5.22,4.58,6.29,1.14.5,2.48.56,3.5,1.27,1.65,1.16,1.83,3.5,2.84,5.24.93,1.6,2.54,2.65,4.09,3.64,9.06,5.8,17.31,14.81,28.07,14.61,1.81-.03,3.67-.24,5.4.31,1.21.39,2.27,1.12,3.43,1.65,7.19,3.27,15.41-2.26,23.28-1.61,1.74.15,3.5.6,5.22.27,1.33-.25,6.62-3.17,7.78-3.86,2.88-1.71,3.33-2.02,6.21-3.72,3.45,2.24,7.89-3.22,9.57-6.98.39-.88.76-1.86,1.6-2.35,1.86-1.08,5.55.29,6.94-1.6l3.82-7.53c.39-.78.8-1.56,1.38-2.21.77-.86,1.81-1.42,2.8-2.02,2.93-1.82,6.2-3.92,9.11-6.32-.71-1.35-.36-2.95.6-1.45,1.02-2.38,3-4.2,5.34-5.27.11-.05.22-.1.33-.15,1.37-2.25,2.18-4.68,2.13-7.32,4.07-1.43,5.31-9.33,6.5-13.48.75-2.61.75-6.44.96-9.14,1.13-14.37,7.43-25.19,7.98-38.69.08-1.87.05-3.8-.13-5.79-.21-2.46-.69-5.07.37-7.3.5-1.05,1.31-1.93,1.98-2.88,4.22-6.04,2.34-14.17,1.89-21.52-.41-6.71.54-13.5,2.57-17.58.3-2.79.61-5.58.91-8.37,2.21,1,5.16-.25,5.96-2.54.67-1.89.13-4.35,1.67-5.64,1.31-1.09,3.43-.5,4.54.8,0,0,0,0,0,0,1.11,1.3,1.46,3.06,1.78,4.74,3.25-.48,4.89-4.4,4.55-7.66-.34-3.27-2-6.25-2.68-9.46ZM478.99,306.46c-6.73,4.62-11.05,12.21-17.96,16.57-5.69,3.6-12.58,4.66-19.25,5.63-.89.13-1.87.24-2.63-.23-.56-.35-.91-.98-1.47-1.35-1.48-.97-3.33.29-4.96.97-3.67,1.51-7.8-.12-11.43-1.74-4.12-1.84-8.24-3.67-12.35-5.51-1.57-.7-3.18-1.42-4.44-2.59-1.3-1.2-2.15-2.78-3.21-4.19-3.23-4.28-8.47-7.09-10.45-12.08-2.76-6.96,1.88-15.67-2.11-22.01-.49-.78-1.12-1.68-.76-2.53.46-1.07,1.96-.96,3.1-1.16,3.78-.64,5.15-5.8,8.74-7.12,1.44-.53,3.05-.36,4.53-.79,1.23-.36,2.31-1.13,3.53-1.53,1.53-.5,3.19-.38,4.79-.25,6.52.51,13.05,1.03,19.57,1.54,1.63.13,3.3.25,4.86-.22,1.12-.34,2.13-.98,3.24-1.3,2.55-.75,5.25.16,7.88.56,5.62.86,11.3-.65,16.96-1.11s12.06.45,15.64,4.87c5.4,6.66,1.04,19.16-4.06,27.98-.46.79-.96,1.63-.87,2.54.19,2.02,3.1,3.02,3.11,5.05ZM527.07,190.99c1.41,8.1,1.92,17.23.65,26.11-.52,3.63-1.33,7.22-1.77,10.86-.42,3.44-.49,6.93-.23,10.39.15,1.94.39,3.97-.37,5.76-.5,1.2-1.41,2.17-2.09,3.28-1.4,2.26-1.85,4.96-2.72,7.46-2.32,6.64-7.57,11.76-12.65,16.63-.31.3-.68.62-1.12.61-.38-.02-.7-.29-.98-.54-1-.92-2.01-1.84-3.01-2.76-1.83,1.8-4.84.03-6.72-1.72-2.49-2.31-4.98-4.62-7.47-6.93-.79-.74-1.6-1.48-2.55-1.99-.93-.5-1.98-.77-3.01-1.03-11.8-2.96-23.94-5.94-35.99-5.18-.01.01-.03.02-.04.04-1.15,1.3-2.11,2.79-3.51,3.81-3.33,2.43-8.13,1.45-11.57-.82-.93-.62-1.8-1.33-2.61-2.1-.69-.25-1.36-.57-1.99-.99-4.2-.3-8.83-.13-13.44.04-5.08.19-10.22.39-15.12,1.76-7.73,2.89-14.33,10.25-16.3,18.82-.69,3.01-1.28,6.72-4.17,7.81-1.49-5.57-8.24-8.18-10.51-13.47-.88-2.06-1.01-4.37-1.72-6.49-.71-2.13-2.32-4.24-4.56-4.4-2.24-.16-4.27,2.86-2.67,4.43-3.47-3.04-4.85-7.78-5.79-12.3-.38-1.83-.71-3.67-1.01-5.51-3.44-21.26-1.58-43.05-1.31-64.73.13-10.83-.13-21.63-1.65-32.32-.67-4.71-1.58-9.6-.22-14.16.67-2.24,1.87-4.35,2.1-6.67.19-1.98-.34-3.97-.31-5.96.04-3.46,1.74-6.66,3.53-9.62,10.91-18.15,26.59-33.4,45.05-43.79,5.96,5.78,17.86,3.35,24.33,9.93,1.76,1.79,3.38,4.34,5.89,4.27,1.49-.04,2.75-1.05,4.18-1.48,4.71-1.43,10.26,3.55,14.32.77,1.99-1.36,2.7-4.19,4.86-5.28,2.68-1.37,6.4.59,8.77-1.26,1.13-.89,1.63-2.46,2.87-3.19,1.02-.6,2.29-.5,3.47-.33,13.03,1.88,25.2,9.1,33.08,19.64,5.55,2.33,9.7,7.43,11.93,13.27,1.39,3.66,2.06,7.61,3.98,11.02,2.35,4.19,6.42,7.28,8.39,11.66,1.31,2.91,1.58,6.15,1.84,9.33.49,6.04.99,12.08,1.48,18.12.57,6.98,1.14,14.07-.2,20.94-1.18,6.11-3.81,12.57-1.3,18.27Z"/>
        <path class="st6" d="M513.92,313.62c.1-.16.2-.32.3-.48-.11.05-.22.1-.33.15.01.11.02.22.03.33Z"/>
        <path class="st6" d="M513.92,313.62c-.01-.11-.02-.22-.03-.33-2.34,1.08-4.32,2.9-5.34,5.27-.96-1.5-1.31.1-.6,1.45,2.34-1.93,4.45-4.06,5.97-6.4Z"/>
        <path class="st6" d="M678.08,436.33c-14.4-9.03-41.33-21.59-46.61-23.68-6.42-2.55-24.84-15.19-31.46-17.13-10.63-3.12-20.61-8.46-29.12-15.54-.06.52-.21,1.05-.4,1.54-2.45,6.45-8.88,10.35-14.9,13.74-20.78,11.71-41.92,23.29-64.88,29.76-2.08.59-4.24,1.16-5.96,2.47-1.88,1.43-3.04,3.58-4.15,5.66l-26.46,49.7c117.29-1.25,231.5-2.09,234.82-.67,5.97-2.21,11.94-4.43,17.91-6.64,2.32-17.04-14.21-30.08-28.79-39.21Z"/>
        <path class="st6" d="M458.22,434.13c-2.15,1.15-4.54,1.79-6.9,2.37-10.36,2.56-20.9,4.42-31.52,5.57-8.57.92-17.79,1.24-25.19-3.19-2.86-1.71-5.25-4.05-7.21-6.75,2.45,17.16,6.21,34.23,5.57,51.4,14.36-.17,28.96-.33,43.59-.49,9.7-16.24,17.31-33.6,24.79-51.04-.98.8-2.01,1.53-3.13,2.13Z"/>
        <path class="st6" d="M324.87,384.03c-12.42,10.13-28.1,17.46-42.93,23.93-15.93,6.94-16.36,7.13-39.67,17.28-3.16,1.38-6.38,2.79-8.94,5.11-7.28,6.59-7.14,18.31-13.19,26.04-3.89,4.97-9.88,7.73-15.02,11.39s-9.9,9.27-9.12,15.54c.2,1.65,1.77,3.63,3.14,2.69,0,0,83.43-1.17,181.43-2.33-.92-19.34-8.33-38.12-18.67-54.58-10.36-16.5-23.56-30.97-37.03-45.07Z"/>
        <path class="st6" d="M387.4,432.13c-2.29-3.16-14.08-97.65-16.09-107.63-.05-.27-.11-.54-.16-.8-5.41-.68-13.65,1.51-18.09,4.9-6.65,5.08-10.74,12.73-14.78,20.05s-19.82,21.76-20.48,23.96c-.82,2.75,1.33,5.43,3.32,7.5,1.25,1.3,2.5,2.61,3.75,3.91,13.47,14.1,26.67,28.57,37.03,45.07,10.34,16.46,17.75,35.24,18.67,54.58,4.11-.05,8.24-.1,12.39-.15.64-17.18-3.11-34.25-5.57-51.4Z"/>
        <path class="st6" d="M514.35,327.59c.65-3.7-2.55-8.5-5.98-6.95-.17-.19-.31-.4-.43-.62-2.91,2.41-6.18,4.51-9.11,6.32-.98.61-2.02,1.17-2.8,2.02-.58.65-.98,1.43-1.38,2.21l-3.82,7.53c-1.38,1.89-5.08.51-6.94,1.6-.83.48-1.2,1.47-1.6,2.35-1.68,3.76-6.11,9.22-9.57,6.98-2.88,1.71-3.33,2.02-6.21,3.72-1.16.69-6.45,3.6-7.78,3.86-1.72.33-3.48-.12-5.22-.27-7.87-.66-16.09,4.88-23.28,1.61-1.16-.52-2.22-1.26-3.43-1.65-1.73-.55-3.59-.35-5.4-.31-10.76.2-19-8.81-28.07-14.61-1.55-.99-3.17-2.05-4.09-3.64-1.01-1.74-1.19-4.08-2.84-5.24-1.02-.72-2.36-.77-3.5-1.27-2.44-1.07-3.5-3.86-4.58-6.29-2.24-5.08-5.53-9.7-9.6-13.48-.04-.04-.09-.08-.14-.12,3.03,5.57,16.5,117.65,18.79,120.81,1.96,2.7,4.35,5.03,7.21,6.75,7.39,4.43,16.62,4.11,25.19,3.19,10.62-1.14,21.15-3,31.52-5.57,2.37-.59,4.75-1.22,6.9-2.37,1.12-.6,2.15-1.33,3.13-2.13,7.57-17.65,15-35.37,24.33-52.1.96-1.72,1.93-3.44,2.94-5.14,2.93-4.96,6.24-10.01,11.26-12.82,4.1-2.29,9.49-3.31,11.56-7.53,2.42-4.94-1.46-10.76-.78-16.22.47-3.73,3.04-6.91,3.68-10.62Z"/>
        <path class="st6" d="M570.87,378.98c-.23-1.2-1.21-2.09-2.11-2.91-15.64-14.04-28.23-31.46-36.65-50.71-1.96-4.48-3.97-9.38-8.2-11.85-2.92-1.71-6.6-1.68-9.7-.36-.1.16-.19.32-.3.48-1.52,2.34-3.63,4.46-5.97,6.4.11.22.25.43.43.62,3.43-1.55,6.62,3.25,5.98,6.95-.65,3.7-3.22,6.89-3.68,10.62-.69,5.46,3.19,11.28.78,16.22-2.07,4.22-7.46,5.23-11.56,7.53-5.02,2.81-8.34,7.86-11.26,12.82-1,1.7-1.98,3.42-2.94,5.14-9.33,16.73-16.76,34.45-24.33,52.1-7.48,17.44-15.09,34.8-24.79,51.04,5.86-.06,11.73-.13,17.58-.19l26.46-49.7c1.11-2.08,2.27-4.23,4.15-5.66,1.72-1.31,3.88-1.88,5.96-2.47,22.96-6.47,44.1-18.05,64.88-29.76,6.01-3.39,12.45-7.29,14.9-13.74.19-.5.34-1.02.4-1.54.04-.33.05-.67-.02-1Z"/>
      </g>
      <path class="st6" d="M451.81,305.47c1.06,1.8,2.13,3.6,3.19,5.4.24.41.5.89.35,1.35-.13.43-.56.67-.95.9-2.11,1.24-3.92,2.99-5.22,5.06-.62.98-1.18,2.09-2.19,2.65-1.82,1-3.99-.21-5.9-1.03-.45-.19-.97-.37-1.41-.15-.7.34-.75,1.45-1.45,1.79-.76.37-1.54-.4-2.31-.77-1.24-.59-2.71-.06-4.08-.19-.76-.07-1.47-.35-2.18-.62-2.38-.91-4.75-1.82-7.13-2.73-.29-.11-.6-.23-.81-.47-.46-.51-.29-1.32-.05-1.97,1.68-4.56,5.17-8.42,9.54-10.55,1.85.11,3.68.4,5.48.86-.15.47.15,1.04.64,1.17-.52-.84.76-1.74,1.74-1.62s1.98.68,2.91.35c.56-.2.98-.68,1.54-.86,1.74-.56,3.83,1.95,5.15.7.4-.38.57-1.04,1.1-1.21.61-.19,1.15.44,1.46,1,.71,1.3,1.24,2.71.59.94Z"/>
    </g>
    <g>
      <g>
        <path class="st8" d="M392.48,301.64c1.98,4.98,7.22,7.8,10.45,12.08,1.06,1.41,1.92,2.99,3.21,4.19,1.27,1.17,2.87,1.89,4.44,2.59,4.12,1.84,8.24,3.67,12.35,5.51,3.62,1.62,7.76,3.25,11.43,1.74,1.63-.67,3.49-1.94,4.96-.97.56.37.91.99,1.47,1.35.76.48,1.74.36,2.63.23,6.67-.98,13.55-2.03,19.25-5.63,6.9-4.36,11.22-11.95,17.96-16.57,0-2.03-2.91-3.03-3.11-5.05-.09-.91.42-1.75.87-2.54,5.1-8.82,9.46-21.32,4.06-27.98-3.58-4.42-9.97-5.33-15.64-4.87s-11.34,1.97-16.96,1.11c-2.63-.4-5.33-1.31-7.88-.56-1.12.33-2.13.96-3.24,1.3-1.56.48-3.23.35-4.86.22-6.52-.51-13.05-1.03-19.57-1.54-1.61-.13-3.26-.25-4.79.25-1.22.4-2.3,1.17-3.53,1.53-1.47.43-3.09.26-4.53.79-3.6,1.32-4.97,6.48-8.74,7.12-1.15.19-2.65.09-3.1,1.16-.36.84.27,1.75.76,2.53,3.98,6.34-.66,15.05,2.11,22.01Z"/>
        <path class="st8" d="M346.98,238.6c-.39-5.12-.77-10.24-1.16-15.36-.64-8.57-1.28-17.28.45-25.7.81-3.96-1.57-7.27-4.41-8.85.28-1.66.56-3.32.85-4.98-1.2,1.04-2.97,2.12-4.22,1.14-1.87-1.47.63-4.23.92-6.59.33-2.63-2.33-4.63-4.8-5.6-1.79-.7-3.78-1.31-5.24-2.48-.83,1.62-.8,3.58-.72,5.43.64,14.61,1.51,29.22,2.38,43.82.24,4.07.49,8.18,1.61,12.1,1.25,4.37,3.58,8.43,6.73,11.71,1.7,1.77,3.78,3.37,6.21,3.65,1.05.12,2.08-.03,3.05-.37-.28-.73-.58-1.46-.8-2.2-.56-1.85-.71-3.79-.86-5.71Z"/>
        <path class="st8" d="M531.23,173.43c1.33-6.88.77-13.96.2-20.94-.49-6.04-.99-12.08-1.48-18.12-.26-3.18-.54-6.42-1.84-9.33-1.97-4.38-6.04-7.47-8.39-11.66-1.91-3.41-2.58-7.37-3.98-11.02-2.23-5.85-6.38-10.94-11.93-13.27-7.89-10.54-20.06-17.76-33.08-19.64-1.17-.17-2.45-.28-3.47.33-1.24.73-1.73,2.3-2.87,3.19-2.37,1.86-6.09-.1-8.77,1.26-2.15,1.09-2.86,3.92-4.86,5.28-4.06,2.78-9.61-2.2-14.32-.77-1.42.43-2.69,1.44-4.18,1.48-2.51.07-4.13-2.48-5.89-4.27-6.47-6.59-18.37-4.16-24.33-9.93-18.45,10.39-34.14,25.64-45.05,43.79-1.78,2.96-3.48,6.17-3.53,9.62-.02,1.99.51,3.98.31,5.96-.23,2.33-1.43,4.43-2.1,6.67-1.36,4.56-.45,9.45.22,14.16,1.52,10.69,1.79,21.49,1.65,32.32-.27,21.68-2.13,43.48,1.31,64.73.3,1.84.63,3.68,1.01,5.51.94,4.52,2.32,9.26,5.79,12.3-1.59-1.57.44-4.6,2.67-4.43,2.24.16,3.85,2.27,4.56,4.4.71,2.13.83,4.43,1.72,6.49,2.27,5.3,9.02,7.91,10.51,13.47,2.89-1.09,3.48-4.8,4.17-7.81,1.97-8.57,8.57-15.93,16.3-18.82,4.9-1.37,10.04-1.57,15.12-1.76,4.6-.17,9.23-.34,13.44-.04.63.42,1.3.74,1.99.99.81.77,1.68,1.48,2.61,2.1,3.44,2.27,8.24,3.25,11.57.82,1.4-1.02,2.36-2.51,3.51-3.81.01-.01.03-.02.04-.04,12.05-.76,24.19,2.22,35.99,5.18,1.03.26,2.07.52,3.01,1.03.95.51,1.75,1.26,2.55,1.99,2.49,2.31,4.98,4.62,7.47,6.93,1.88,1.75,4.89,3.52,6.72,1.72,1,.92,2.01,1.84,3.01,2.76.28.26.6.53.98.54.44.02.8-.3,1.12-.61,5.08-4.86,10.34-9.98,12.65-16.63.87-2.51,1.32-5.21,2.72-7.46.69-1.1,1.59-2.08,2.09-3.28.75-1.79.51-3.82.37-5.76-.26-3.46-.19-6.94.23-10.39.44-3.64,1.25-7.23,1.77-10.86,1.27-8.88.76-18.01-.65-26.11-2.5-5.69.12-12.16,1.3-18.27Z"/>
        <path class="st8" d="M545.02,172.58c-1.54,1.28-1,3.75-1.67,5.64-.81,2.29-3.75,3.55-5.96,2.54-.3,2.79-.61,5.58-.91,8.37-2.03,4.08-2.98,10.87-2.57,17.58.45,7.35,2.32,15.49-1.89,21.52-.67.96-1.48,1.83-1.98,2.88-1.06,2.23-.59,4.84-.37,7.3.17,1.99.2,3.91.13,5.79,1.08.36,2.3.38,3.39.05,2.14-.65,3.82-2.3,5.28-4,6.05-7.08,9.79-16.12,10.5-25.41.9-11.69-2.84-23.58-.52-35.07.43-2.11,1.04-4.28,1.12-6.4-1.11-1.29-3.23-1.89-4.54-.8Z"/>
        <path class="st4" d="M515.56,313.33c.1-.16.2-.32.3-.48-.11.05-.22.1-.33.15.01.11.02.22.03.33Z"/>
        <path class="st4" d="M556.86,161c-2.57-12.11,8.89-24.11,5.84-36.11-1.62-6.36-7.14-11.43-7.7-17.97-.5-5.83,2.87-12.62-.95-17.05-1.54-1.79-3.94-2.64-5.56-4.36-2.17-2.29-2.6-5.67-3.4-8.72s-2.55-6.38-6.76-6.88c-1.72-4.04-7.5-13.8-18.51-10.95-2.25.58-2.98-3.5-4.28-5.42-2.92-4.3-17.18-5.04-21.44-8.03-6.77-4.76-12.24-8.98-20.27-11-5.36-1.35-11.25-4.36-12.84-4.37-2.56,0-5.13,0-7.66.41-2.82.46-5.62,1.45-8.45,1.13-2.27-.26-4.36-1.34-6.52-2.08-6.8-2.32-14.71-1.08-20.48,3.2-1.42,1.05-2.89,2.34-4.65,2.29-1.43-.04-2.67-.97-4.07-1.27-2.12-.46-4.24.56-6.17,1.54-4.92,2.51-9.95,5.1-13.7,9.15-2.43,2.61-4.37,5.86-7.54,7.5-3.84,1.98-8.95,1.28-12.1,4.25-2.01,1.89-2.64,4.78-3.85,7.26-1.2,2.48-3.72,4.89-6.38,4.16-.74-.2-1.45-.64-2.22-.59-.89.06-1.6.77-2.13,1.49-1.91,2.58-2.73,5.95-3.96,9.69-2.41-1.91-5.87,1.11-6.45,4.13-.58,3.02.1,6.37-1.44,9.03-2,3.46-7.1,4.5-8.47,8.26-1.38,3.78,1.82,8.44-.36,11.83-1.44,2.24-4.55,2.7-6.5,4.51-2.75,2.56-2.47,7.01-1.27,10.57,1.2,3.56,3.13,7.03,2.99,10.79-.16,4.35-2.92,9.33-.03,12.59.78.88,1.89,1.46,2.56,2.43,1.7,2.47-.24,5.74-2.11,8.09-1.87,2.34-3.78,5.65-2.04,8.09.35.64.84,1.15,1.39,1.59,1.46,1.16,3.45,1.77,5.24,2.48,2.47.97,5.12,2.96,4.8,5.6-.29,2.36-2.8,5.12-.92,6.59,1.25.98,3.02-.1,4.22-1.14-.28,1.66-.56,3.32-.85,4.98,2.84,1.58,5.22,4.89,4.41,8.85-1.73,8.42-1.09,17.13-.45,25.7.39,5.12.77,10.24,1.16,15.36.14,1.93.29,3.87.86,5.71.23.74.52,1.47.8,2.2.43,1.1.82,2.2.92,3.37.16,1.88-.48,3.73-.7,5.6-.46,3.82.77,7.62,1.99,11.26,1.88,5.63,3.76,11.27,5.64,16.9,1.2,3.58,2.42,7.22,4.59,10.31,1.71,2.44,1.44,6.22,4.67,7.53,1.45.59.14,3.14.6,4.63.63,2.02,2.34,3.46,3.9,4.9.04.04.09.08.14.12,4.07,3.78,7.36,8.4,9.6,13.48,1.07,2.43,2.14,5.22,4.58,6.29,1.14.5,2.48.56,3.5,1.27,1.65,1.16,1.83,3.5,2.84,5.24.93,1.6,2.54,2.65,4.09,3.64,9.06,5.8,17.31,14.81,28.07,14.61,1.81-.03,3.67-.24,5.4.31,1.21.39,2.27,1.12,3.43,1.65,7.19,3.27,15.41-2.26,23.28-1.61,1.74.15,3.5.6,5.22.27,1.33-.25,6.62-3.17,7.78-3.86,2.88-1.71,3.33-2.02,6.21-3.72,3.45,2.24,7.89-3.22,9.57-6.98.39-.88.76-1.86,1.6-2.35,1.86-1.08,5.55.29,6.94-1.6l3.82-7.53c.39-.78.8-1.56,1.38-2.21.77-.86,1.81-1.42,2.8-2.02,2.93-1.82,6.2-3.92,9.11-6.32,2.34-1.93,4.45-4.06,5.97-6.4-.01-.11-.02-.22-.03-.33.11-.05.22-.1.33-.15,1.37-2.25,2.18-4.68,2.13-7.32,4.07-1.43,5.31-9.33,6.5-13.48.75-2.61.75-6.44.96-9.14,1.13-14.37,7.43-25.19,7.98-38.69.08-1.87.05-3.8-.13-5.79-.21-2.46-.69-5.07.37-7.3.5-1.05,1.31-1.93,1.98-2.88,4.22-6.04,2.34-14.17,1.89-21.52-.41-6.71.54-13.5,2.57-17.58.3-2.79.61-5.58.91-8.37,2.21,1,5.16-.25,5.96-2.54.67-1.89.13-4.35,1.67-5.64,1.31-1.09,3.43-.5,4.54.8,0,0,0,0,0,0,1.11,1.3,1.46,3.06,1.78,4.74,3.25-.48,4.89-4.4,4.55-7.66-.34-3.27-2-6.25-2.68-9.46ZM478.4,298.57c-.46.79-.96,1.63-.87,2.54.19,2.02,3.1,3.02,3.11,5.05-6.73,4.62-11.05,12.21-17.96,16.57-5.69,3.6-12.58,4.66-19.25,5.63-.89.13-1.87.24-2.63-.23-.56-.35-.91-.98-1.47-1.35-1.48-.97-3.33.29-4.96.97-3.67,1.51-7.8-.12-11.43-1.74-4.12-1.84-8.24-3.67-12.35-5.51-1.57-.7-3.18-1.42-4.44-2.59-1.3-1.2-2.15-2.78-3.21-4.19-3.23-4.28-8.47-7.09-10.45-12.08-2.76-6.96,1.88-15.67-2.11-22.01-.49-.78-1.12-1.68-.76-2.53.46-1.07,1.96-.96,3.1-1.16,3.78-.64,5.15-5.8,8.74-7.12,1.44-.53,3.05-.36,4.53-.79,1.23-.36,2.31-1.13,3.53-1.53,1.53-.5,3.19-.38,4.79-.25,6.52.51,13.05,1.03,19.57,1.54,1.63.13,3.3.25,4.86-.22,1.12-.34,2.13-.98,3.24-1.3,2.55-.75,5.25.16,7.88.56,5.62.86,11.3-.65,16.96-1.11s12.06.45,15.64,4.87c5.4,6.66,1.04,19.16-4.06,27.98ZM528.71,190.7c1.41,8.1,1.92,17.23.65,26.11-.52,3.63-1.33,7.22-1.77,10.86-.42,3.44-.49,6.93-.23,10.39.15,1.94.39,3.97-.37,5.76-.5,1.2-1.41,2.17-2.09,3.28-1.4,2.26-1.85,4.96-2.72,7.46-2.32,6.64-7.57,11.76-12.65,16.63-.31.3-.68.62-1.12.61-.38-.02-.7-.29-.98-.54-1-.92-2.01-1.84-3.01-2.76-1.83,1.8-4.84.03-6.72-1.72-2.49-2.31-4.98-4.62-7.47-6.93-.79-.74-1.6-1.48-2.55-1.99-.93-.5-1.98-.77-3.01-1.03-11.8-2.96-23.94-5.94-35.99-5.18-.01.01-.03.02-.04.04-1.15,1.3-2.11,2.79-3.51,3.81-3.33,2.43-8.13,1.45-11.57-.82-.93-.62-1.8-1.33-2.61-2.1-.69-.25-1.36-.57-1.99-.99-4.2-.3-8.83-.13-13.44.04-5.08.19-10.22.39-15.12,1.76-7.73,2.89-14.33,10.25-16.3,18.82-.69,3.01-1.28,6.72-4.17,7.81-1.49-5.57-8.24-8.18-10.51-13.47-.88-2.06-1.01-4.37-1.72-6.49-.71-2.13-2.32-4.24-4.56-4.4-2.24-.16-4.27,2.86-2.67,4.43-3.47-3.04-4.85-7.78-5.79-12.3-.38-1.83-.71-3.67-1.01-5.51-3.44-21.26-1.58-43.05-1.31-64.73.13-10.83-.13-21.63-1.65-32.32-.67-4.71-1.58-9.6-.22-14.16.67-2.24,1.87-4.35,2.1-6.67.19-1.98-.34-3.97-.31-5.96.04-3.46,1.74-6.66,3.53-9.62,10.91-18.15,26.59-33.4,45.05-43.79,5.96,5.78,17.86,3.35,24.33,9.93,1.76,1.79,3.38,4.34,5.89,4.27,1.49-.04,2.75-1.05,4.18-1.48,4.71-1.43,10.26,3.55,14.32.77,1.99-1.36,2.7-4.19,4.86-5.28,2.68-1.37,6.4.59,8.77-1.26,1.13-.89,1.63-2.46,2.87-3.19,1.02-.6,2.29-.5,3.47-.33,13.03,1.88,25.2,9.1,33.08,19.64,5.55,2.33,9.7,7.43,11.93,13.27,1.39,3.66,2.06,7.61,3.98,11.02,2.35,4.19,6.42,7.28,8.39,11.66,1.31,2.91,1.58,6.15,1.84,9.33.49,6.04.99,12.08,1.48,18.12.57,6.98,1.14,14.07-.2,20.94-1.18,6.11-3.81,12.57-1.3,18.27Z"/>
        <path class="st7" d="M673.39,436.92c-14.4-9.03-41.33-21.59-46.61-23.68-6.42-2.55-24.84-15.19-31.46-17.13-10.63-3.12-20.61-8.46-29.12-15.54-.06.52-.21,1.05-.4,1.54-2.45,6.45-8.88,10.35-14.9,13.74-20.78,11.71-41.92,23.29-64.88,29.76-2.08.59-4.24,1.16-5.96,2.47-1.88,1.43-3.04,3.58-4.15,5.66l-26.46,49.7c117.29-1.25,231.5-2.09,234.82-.67,5.97-2.21,11.94-4.43,17.91-6.64,2.32-17.04-14.21-30.08-28.79-39.21Z"/>
        <path class="st3" d="M459.86,433.83c-2.15,1.15-4.54,1.79-6.9,2.37-10.36,2.56-20.9,4.42-31.52,5.57-8.57.92-17.79,1.24-25.19-3.19-2.86-1.71-5.25-4.05-7.21-6.75,2.45,17.16,6.21,34.23,5.57,51.4,14.36-.17,28.96-.33,43.59-.49,9.7-16.24,17.31-33.6,24.79-51.04-.98.8-2.01,1.53-3.13,2.13Z"/>
        <path class="st7" d="M328.51,384.74c-12.42,10.13-28.1,17.46-42.93,23.93-15.93,6.94-16.36,7.13-39.67,17.28-3.16,1.38-6.38,2.79-8.94,5.11-7.28,6.59-7.14,18.31-13.19,26.04-3.89,4.97-9.88,7.73-15.02,11.39s-9.9,9.27-9.12,15.54c.2,1.65,1.77,3.63,3.14,2.69,0,0,83.43-1.17,181.43-2.33-.92-19.34-8.33-38.12-18.67-54.58-10.36-16.5-23.56-30.97-37.03-45.07Z"/>
        <path class="st7" d="M387.04,431.84c-2.29-3.16-14.08-97.65-16.09-107.63-.05-.27-.11-.54-.16-.8-5.41-.68-13.65,1.51-18.09,4.9-6.65,5.08-10.74,12.73-14.78,20.05s-19.82,21.76-20.48,23.96c-.82,2.75,1.33,5.43,3.32,7.5,1.25,1.3,2.5,2.61,3.75,3.91,13.47,14.1,26.67,28.57,37.03,45.07,10.34,16.46,17.75,35.24,18.67,54.58,4.11-.05,8.24-.1,12.39-.15.64-17.18-3.11-34.25-5.57-51.4Z"/>
        <path class="st8" d="M515.99,327.29c.65-3.7-2.55-8.5-5.98-6.95-.17-.19-.31-.4-.43-.62-2.91,2.41-6.18,4.51-9.11,6.32-.98.61-2.02,1.17-2.8,2.02-.58.65-.98,1.43-1.38,2.21l-3.82,7.53c-1.38,1.89-5.08.51-6.94,1.6-.83.48-1.2,1.47-1.6,2.35-1.68,3.76-6.11,9.22-9.57,6.98-2.88,1.71-3.33,2.02-6.21,3.72-1.16.69-6.45,3.6-7.78,3.86-1.72.33-3.48-.12-5.22-.27-7.87-.66-16.09,4.88-23.28,1.61-1.16-.52-2.22-1.26-3.43-1.65-1.73-.55-3.59-.35-5.4-.31-10.76.2-19-8.81-28.07-14.61-1.55-.99-3.17-2.05-4.09-3.64-1.01-1.74-1.19-4.08-2.84-5.24-1.02-.72-2.36-.77-3.5-1.27-2.44-1.07-3.5-3.86-4.58-6.29-2.24-5.08-5.53-9.7-9.6-13.48-.04-.04-.09-.08-.14-.12,3.03,5.57,16.5,117.65,18.79,120.81,1.96,2.7,4.35,5.03,7.21,6.75,7.39,4.43,16.62,4.11,25.19,3.19,10.62-1.14,21.15-3,31.52-5.57,2.37-.59,4.75-1.22,6.9-2.37,1.12-.6,2.15-1.33,3.13-2.13,7.57-17.65,15-35.37,24.33-52.1.96-1.72,1.93-3.44,2.94-5.14,2.93-4.96,6.24-10.01,11.26-12.82,4.1-2.29,9.49-3.31,11.56-7.53,2.42-4.94-1.46-10.76-.78-16.22.47-3.73,3.04-6.91,3.68-10.62Z"/>
        <path class="st7" d="M568.87,378.98c-.23-1.2-1.21-2.09-2.11-2.91-15.64-14.04-28.23-31.46-36.65-50.71-1.96-4.48-3.97-9.38-8.2-11.85-2.92-1.71-6.6-1.68-9.7-.36-.1.16-.19.32-.3.48-1.52,2.34-3.63,4.46-5.97,6.4.11.22.25.43.43.62,3.43-1.55,6.62,3.25,5.98,6.95-.65,3.7-3.22,6.89-3.68,10.62-.69,5.46,3.19,11.28.78,16.22-2.07,4.22-7.46,5.23-11.56,7.53-5.02,2.81-8.34,7.86-11.26,12.82-1,1.7-1.98,3.42-2.94,5.14-9.33,16.73-16.76,34.45-24.33,52.1-7.48,17.44-15.09,34.8-24.79,51.04,5.86-.06,11.73-.13,17.58-.19l26.46-49.7c1.11-2.08,2.27-4.23,4.15-5.66,1.72-1.31,3.88-1.88,5.96-2.47,22.96-6.47,44.1-18.05,64.88-29.76,6.01-3.39,12.45-7.29,14.9-13.74.19-.5.34-1.02.4-1.54.04-.33.05-.67-.02-1Z"/>
      </g>
      <path class="st4" d="M453.45,305.17c1.06,1.8,2.13,3.6,3.19,5.4.24.41.5.89.35,1.35-.13.43-.56.67-.95.9-2.11,1.24-3.92,2.99-5.22,5.06-.62.98-1.18,2.09-2.19,2.65-1.82,1-3.99-.21-5.9-1.03-.45-.19-.97-.37-1.41-.15-.7.34-.75,1.45-1.45,1.79-.76.37-1.54-.4-2.31-.77-1.24-.59-2.71-.06-4.08-.19-.76-.07-1.47-.35-2.18-.62-2.38-.91-4.75-1.82-7.13-2.73-.29-.11-.6-.23-.81-.47-.46-.51-.29-1.32-.05-1.97,1.68-4.56,5.17-8.42,9.54-10.55,1.85.11,3.68.4,5.48.86-.15.47.15,1.04.64,1.17-.52-.84.76-1.74,1.74-1.62s1.98.68,2.91.35c.56-.2.98-.68,1.54-.86,1.74-.56,3.83,1.95,5.15.7.4-.38.57-1.04,1.1-1.21.61-.19,1.15.44,1.46,1,.71,1.3,1.24,2.71.59.94Z"/>
    </g>
    <path class="st2" d="M441.52,237.03c-.29-21.43-.79-33.59.83-54.96"/>
    <path class="st6" d="M475.55,272.21c-24.94-1.28-49.94,2.08-74.89.92,10.13,8.17,21.94,14.73,34.82,16.56,2.11.3,4.3.47,6.35-.13,2.31-.67,19.69-7.69,21.53-8.25,2.03-.62,3.87-1.74,5.64-2.92,2.91-1.93,5.7-4.02,8.36-6.28-.36.1-.71.15-1.81.09Z"/>
    <path class="st2" d="M457.61,296.1c-8.73,4.43-19.09,5.56-28.57,3.12"/>
    <path class="st2" d="M451.81,305.47c1.06,1.8,2.13,3.6,3.19,5.4.24.41.5.89.35,1.35-.13.43-.56.67-.95.9-2.11,1.24-3.92,2.99-5.22,5.06-.62.98-1.18,2.09-2.19,2.65-1.82,1-3.99-.21-5.9-1.03-.45-.19-.97-.37-1.41-.15-.7.34-.75,1.45-1.45,1.79-.76.37-1.54-.4-2.31-.77-1.24-.59-2.71-.06-4.08-.19-.76-.07-1.47-.35-2.18-.62-2.38-.91-4.75-1.82-7.13-2.73-.29-.11-.6-.23-.81-.47-.46-.51-.29-1.32-.05-1.97,1.68-4.56,5.17-8.42,9.54-10.55,1.85.11,3.68.4,5.48.86-.15.47.15,1.04.64,1.17-.52-.84.76-1.74,1.74-1.62s1.98.68,2.91.35c.56-.2.98-.68,1.54-.86,1.74-.56,3.83,1.95,5.15.7.4-.38.57-1.04,1.1-1.21.61-.19,1.15.44,1.46,1,.71,1.3,1.24,2.71.59.94Z"/>
    <path class="st2" d="M543.56,186.39c.72,7.82,1.45,15.65-2.01,24.82-.39,4.49-.77,8.99-1.16,13.48-.11,1.32-.24,2.69-.92,3.83-.52.88-1.32,1.54-2.11,2.19-1.1.91-2.21,1.81-3.31,2.72"/>
    <path class="st2" d="M337.7,226.36l-5.6-8.88c-.43-.68-.87-1.38-1-2.17-.22-1.29.38-2.56.91-3.76,3.37-7.69,4.02-16.55,1.82-24.65-.15-.54-.35-1.13-.86-1.36s-1.25.31-.97.79"/>
    <path class="st2" d="M337.54,203.68c-1.01,5.96-.82,12.12.55,18"/>
    <g>
      <path class="st2" d="M390.84,301.94c1.98,4.98,7.22,7.8,10.45,12.08,1.06,1.41,1.92,2.99,3.21,4.19,1.27,1.17,2.87,1.89,4.44,2.59,4.12,1.84,8.24,3.67,12.35,5.51,3.62,1.62,7.76,3.25,11.43,1.74,1.63-.67,3.49-1.94,4.96-.97.56.37.91.99,1.47,1.35.76.48,1.74.36,2.63.23,6.67-.98,13.55-2.03,19.25-5.63,6.9-4.36,11.22-11.95,17.96-16.57,0-2.03-2.91-3.03-3.11-5.05-.09-.91.42-1.75.87-2.54,5.1-8.82,9.46-21.32,4.06-27.98-3.58-4.42-9.97-5.33-15.64-4.87s-11.34,1.97-16.96,1.11c-2.63-.4-5.33-1.31-7.88-.56-1.12.33-2.13.96-3.24,1.3-1.56.48-3.23.35-4.86.22-6.52-.51-13.05-1.03-19.57-1.54-1.61-.13-3.26-.25-4.79.25-1.22.4-2.3,1.17-3.53,1.53-1.47.43-3.09.26-4.53.79-3.6,1.32-4.97,6.48-8.74,7.12-1.15.19-2.65.09-3.1,1.16-.36.84.27,1.75.76,2.53,3.98,6.34-.66,15.05,2.11,22.01Z"/>
      <path class="st2" d="M345.34,238.9c-.39-5.12-.77-10.24-1.16-15.36-.64-8.57-1.28-17.28.45-25.7.81-3.96-1.57-7.27-4.41-8.85.28-1.66.56-3.32.85-4.98-1.2,1.04-2.97,2.12-4.22,1.14-1.87-1.47.63-4.23.92-6.59.33-2.63-2.33-4.63-4.8-5.6-1.79-.7-3.78-1.31-5.24-2.48-.83,1.62-.8,3.58-.72,5.43.64,14.61,1.51,29.22,2.38,43.82.24,4.07.49,8.18,1.61,12.1,1.25,4.37,3.58,8.43,6.73,11.71,1.7,1.77,3.78,3.37,6.21,3.65,1.05.12,2.08-.03,3.05-.37-.28-.73-.58-1.46-.8-2.2-.56-1.85-.71-3.79-.86-5.71Z"/>
      <path class="st2" d="M528.38,172.73c1.33-6.88.77-13.96.2-20.94-.49-6.04-.99-12.08-1.48-18.12-.26-3.18-.54-6.42-1.84-9.33-1.97-4.38-6.04-7.47-8.39-11.66-1.91-3.41-2.58-7.37-3.98-11.02-2.23-5.85-6.38-10.94-11.93-13.27-7.89-10.54-20.06-17.76-33.08-19.64-1.17-.17-2.45-.28-3.47.33-1.24.73-1.73,2.3-2.87,3.19-2.37,1.86-6.09-.1-8.77,1.26-2.15,1.09-2.86,3.92-4.86,5.28-4.06,2.78-9.61-2.2-14.32-.77-1.42.43-2.69,1.44-4.18,1.48-2.51.07-4.13-2.48-5.89-4.27-6.47-6.59-18.37-4.16-24.33-9.93-18.45,10.39-34.14,25.64-45.05,43.79-1.78,2.96-3.48,6.17-3.53,9.62-.02,1.99.51,3.98.31,5.96-.23,2.33-1.43,4.43-2.1,6.67-1.36,4.56-.45,9.45.22,14.16,1.52,10.69,1.79,21.49,1.65,32.32-.27,21.68-2.13,43.48,1.31,64.73.3,1.84.63,3.68,1.01,5.51.94,4.52,2.32,9.26,5.79,12.3-1.59-1.57.44-4.6,2.67-4.43,2.24.16,3.85,2.27,4.56,4.4.71,2.13.83,4.43,1.72,6.49,2.27,5.3,9.02,7.91,10.51,13.47,2.89-1.09,3.48-4.8,4.17-7.81,1.97-8.57,8.57-15.93,16.3-18.82,4.9-1.37,10.04-1.57,15.12-1.76,4.6-.17,9.23-.34,13.44-.04.63.42,1.3.74,1.99.99.81.77,1.68,1.48,2.61,2.1,3.44,2.27,8.24,3.25,11.57.82,1.4-1.02,2.36-2.51,3.51-3.81.01-.01.03-.02.04-.04,12.05-.76,24.19,2.22,35.99,5.18,1.03.26,2.07.52,3.01,1.03.95.51,1.75,1.26,2.55,1.99,2.49,2.31,4.98,4.62,7.47,6.93,1.88,1.75,4.89,3.52,6.72,1.72,1,.92,2.01,1.84,3.01,2.76.28.26.6.53.98.54.44.02.8-.3,1.12-.61,5.08-4.86,10.34-9.98,12.65-16.63.87-2.51,1.32-5.21,2.72-7.46.69-1.1,1.59-2.08,2.09-3.28.75-1.79.51-3.82.37-5.76-.26-3.46-.19-6.94.23-10.39.44-3.64,1.25-7.23,1.77-10.86,1.27-8.88.76-18.01-.65-26.11-2.5-5.69.12-12.16,1.3-18.27Z"/>
      <path class="st2" d="M547.02,172.88c-1.54,1.28-1,3.75-1.67,5.64-.81,2.29-3.75,3.55-5.96,2.54-.3,2.79-.61,5.58-.91,8.37-2.03,4.08-2.98,10.87-2.57,17.58.45,7.35,2.32,15.49-1.89,21.52-.67.96-1.48,1.83-1.98,2.88-1.06,2.23-.59,4.84-.37,7.3.17,1.99.2,3.91.13,5.79,1.08.36,2.3.38,3.39.05,2.14-.65,3.82-2.3,5.28-4,6.05-7.08,9.79-16.12,10.5-25.41.9-11.69-2.84-23.58-.52-35.07.43-2.11,1.04-4.28,1.12-6.4-1.11-1.29-3.23-1.89-4.54-.8Z"/>
      <path class="st2" d="M555.22,161.3c-2.57-12.11,8.89-24.11,5.84-36.11-1.62-6.36-7.14-11.43-7.7-17.97-.5-5.83,2.87-12.62-.95-17.05-1.54-1.79-3.94-2.64-5.56-4.36-2.17-2.29-2.6-5.67-3.4-8.72s-2.55-6.38-6.76-6.88c-1.72-4.04-7.5-13.8-18.51-10.95-2.25.58-2.98-3.5-4.28-5.42-2.92-4.3-17.18-5.04-21.44-8.03-6.77-4.76-12.24-8.98-20.27-11-5.36-1.35-11.25-4.36-12.84-4.37-2.56,0-5.13,0-7.66.41-2.82.46-5.62,1.45-8.45,1.13-2.27-.26-4.36-1.34-6.52-2.08-6.8-2.32-14.71-1.08-20.48,3.2-1.42,1.05-2.89,2.34-4.65,2.29-1.43-.04-2.67-.97-4.07-1.27-2.12-.46-4.24.56-6.17,1.54-4.92,2.51-9.95,5.1-13.7,9.15-2.43,2.61-4.37,5.86-7.54,7.5-3.84,1.98-8.95,1.28-12.1,4.25-2.01,1.89-2.64,4.78-3.85,7.26-1.2,2.48-3.72,4.89-6.38,4.16-.74-.2-1.45-.64-2.22-.59-.89.06-1.6.77-2.13,1.49-1.91,2.58-2.73,5.95-3.96,9.69-2.41-1.91-5.87,1.11-6.45,4.13-.58,3.02.1,6.37-1.44,9.03-2,3.46-7.1,4.5-8.47,8.26-1.38,3.78,1.82,8.44-.36,11.83-1.44,2.24-4.55,2.7-6.5,4.51-2.75,2.56-2.47,7.01-1.27,10.57,1.2,3.56,3.13,7.03,2.99,10.79-.16,4.35-2.92,9.33-.03,12.59.78.88,1.89,1.46,2.56,2.43,1.7,2.47-.24,5.74-2.11,8.09-1.87,2.34-3.78,5.65-2.04,8.09.35.64.84,1.15,1.39,1.59,1.46,1.16,3.45,1.77,5.24,2.48,2.47.97,5.12,2.96,4.8,5.6-.29,2.36-2.8,5.12-.92,6.59,1.25.98,3.02-.1,4.22-1.14-.28,1.66-.56,3.32-.85,4.98,2.84,1.58,5.22,4.89,4.41,8.85-1.73,8.42-1.09,17.13-.45,25.7.39,5.12.77,10.24,1.16,15.36.14,1.93.29,3.87.86,5.71.23.74.52,1.47.8,2.2.43,1.1.82,2.2.92,3.37.16,1.88-.48,3.73-.7,5.6-.46,3.82.77,7.62,1.99,11.26,1.88,5.63,3.76,11.27,5.64,16.9,1.2,3.58,2.42,7.22,4.59,10.31,1.71,2.44,1.44,6.22,4.67,7.53,1.45.59.14,3.14.6,4.63.63,2.02,2.34,3.46,3.9,4.9.04.04.09.08.14.12,4.07,3.78,7.36,8.4,9.6,13.48,1.07,2.43,2.14,5.22,4.58,6.29,1.14.5,2.48.56,3.5,1.27,1.65,1.16,1.83,3.5,2.84,5.24.93,1.6,2.54,2.65,4.09,3.64,9.06,5.8,17.31,14.81,28.07,14.61,1.81-.03,3.67-.24,5.4.31,1.21.39,2.27,1.12,3.43,1.65,7.19,3.27,15.41-2.26,23.28-1.61,1.74.15,3.5.6,5.22.27,1.33-.25,6.62-3.17,7.78-3.86,2.88-1.71,3.33-2.02,6.21-3.72,3.45,2.24,7.89-3.22,9.57-6.98.39-.88.76-1.86,1.6-2.35,1.86-1.08,5.55.29,6.94-1.6l3.82-7.53c.39-.78.8-1.56,1.38-2.21.77-.86,1.81-1.42,2.8-2.02,2.93-1.82,6.2-3.92,9.11-6.32-.71-1.35-.36-2.95.6-1.45,1.02-2.38,3-4.2,5.34-5.27.11-.05.22-.1.33-.15,1.37-2.25,2.18-4.68,2.13-7.32,4.07-1.43,5.31-9.33,6.5-13.48.75-2.61.75-6.44.96-9.14,1.13-14.37,7.43-25.19,7.98-38.69.08-1.87.05-3.8-.13-5.79-.21-2.46-.69-5.07.37-7.3.5-1.05,1.31-1.93,1.98-2.88,4.22-6.04,2.34-14.17,1.89-21.52-.41-6.71.54-13.5,2.57-17.58.3-2.79.61-5.58.91-8.37,2.21,1,5.16-.25,5.96-2.54.67-1.89.13-4.35,1.67-5.64,1.31-1.09,3.43-.5,4.54.8,0,0,0,0,0,0,1.11,1.3,1.46,3.06,1.78,4.74,3.25-.48,4.89-4.4,4.55-7.66-.34-3.27-2-6.25-2.68-9.46ZM478.99,306.46c-6.73,4.62-11.05,12.21-17.96,16.57-5.69,3.6-12.58,4.66-19.25,5.63-.89.13-1.87.24-2.63-.23-.56-.35-.91-.98-1.47-1.35-1.48-.97-3.33.29-4.96.97-3.67,1.51-7.8-.12-11.43-1.74-4.12-1.84-8.24-3.67-12.35-5.51-1.57-.7-3.18-1.42-4.44-2.59-1.3-1.2-2.15-2.78-3.21-4.19-3.23-4.28-8.47-7.09-10.45-12.08-2.76-6.96,1.88-15.67-2.11-22.01-.49-.78-1.12-1.68-.76-2.53.46-1.07,1.96-.96,3.1-1.16,3.78-.64,5.15-5.8,8.74-7.12,1.44-.53,3.05-.36,4.53-.79,1.23-.36,2.31-1.13,3.53-1.53,1.53-.5,3.19-.38,4.79-.25,6.52.51,13.05,1.03,19.57,1.54,1.63.13,3.3.25,4.86-.22,1.12-.34,2.13-.98,3.24-1.3,2.55-.75,5.25.16,7.88.56,5.62.86,11.3-.65,16.96-1.11s12.06.45,15.64,4.87c5.4,6.66,1.04,19.16-4.06,27.98-.46.79-.96,1.63-.87,2.54.19,2.02,3.1,3.02,3.11,5.05ZM527.07,190.99c1.41,8.1,1.92,17.23.65,26.11-.52,3.63-1.33,7.22-1.77,10.86-.42,3.44-.49,6.93-.23,10.39.15,1.94.39,3.97-.37,5.76-.5,1.2-1.41,2.17-2.09,3.28-1.4,2.26-1.85,4.96-2.72,7.46-2.32,6.64-7.57,11.76-12.65,16.63-.31.3-.68.62-1.12.61-.38-.02-.7-.29-.98-.54-1-.92-2.01-1.84-3.01-2.76-1.83,1.8-4.84.03-6.72-1.72-2.49-2.31-4.98-4.62-7.47-6.93-.79-.74-1.6-1.48-2.55-1.99-.93-.5-1.98-.77-3.01-1.03-11.8-2.96-23.94-5.94-35.99-5.18-.01.01-.03.02-.04.04-1.15,1.3-2.11,2.79-3.51,3.81-3.33,2.43-8.13,1.45-11.57-.82-.93-.62-1.8-1.33-2.61-2.1-.69-.25-1.36-.57-1.99-.99-4.2-.3-8.83-.13-13.44.04-5.08.19-10.22.39-15.12,1.76-7.73,2.89-14.33,10.25-16.3,18.82-.69,3.01-1.28,6.72-4.17,7.81-1.49-5.57-8.24-8.18-10.51-13.47-.88-2.06-1.01-4.37-1.72-6.49-.71-2.13-2.32-4.24-4.56-4.4-2.24-.16-4.27,2.86-2.67,4.43-3.47-3.04-4.85-7.78-5.79-12.3-.38-1.83-.71-3.67-1.01-5.51-3.44-21.26-1.58-43.05-1.31-64.73.13-10.83-.13-21.63-1.65-32.32-.67-4.71-1.58-9.6-.22-14.16.67-2.24,1.87-4.35,2.1-6.67.19-1.98-.34-3.97-.31-5.96.04-3.46,1.74-6.66,3.53-9.62,10.91-18.15,26.59-33.4,45.05-43.79,5.96,5.78,17.86,3.35,24.33,9.93,1.76,1.79,3.38,4.34,5.89,4.27,1.49-.04,2.75-1.05,4.18-1.48,4.71-1.43,10.26,3.55,14.32.77,1.99-1.36,2.7-4.19,4.86-5.28,2.68-1.37,6.4.59,8.77-1.26,1.13-.89,1.63-2.46,2.87-3.19,1.02-.6,2.29-.5,3.47-.33,13.03,1.88,25.2,9.1,33.08,19.64,5.55,2.33,9.7,7.43,11.93,13.27,1.39,3.66,2.06,7.61,3.98,11.02,2.35,4.19,6.42,7.28,8.39,11.66,1.31,2.91,1.58,6.15,1.84,9.33.49,6.04.99,12.08,1.48,18.12.57,6.98,1.14,14.07-.2,20.94-1.18,6.11-3.81,12.57-1.3,18.27Z"/>
      <path class="st2" d="M513.92,313.62c.1-.16.2-.32.3-.48-.11.05-.22.1-.33.15.01.11.02.22.03.33Z"/>
      <path class="st2" d="M513.92,313.62c-.01-.11-.02-.22-.03-.33-2.34,1.08-4.32,2.9-5.34,5.27-.96-1.5-1.31.1-.6,1.45,2.34-1.93,4.45-4.06,5.97-6.4Z"/>
      <path class="st2" d="M678.08,436.33c-14.4-9.03-71.44-38.87-78.07-40.81-10.63-3.12-20.61-8.46-29.12-15.54-.06.52-.21,1.05-.4,1.54-2.45,6.45-8.88,10.35-14.9,13.74-20.78,11.71-41.92,23.29-64.88,29.76-2.08.59-4.24,1.16-5.96,2.47-1.88,1.43-3.04,3.58-4.15,5.66l-26.46,49.7c117.29-1.25,231.5-2.09,234.82-.67,5.97-2.21,11.94-4.43,17.91-6.64,2.32-17.04-14.21-30.08-28.79-39.21Z"/>
      <path class="st2" d="M458.22,434.13c-2.15,1.15-4.54,1.79-6.9,2.37-10.36,2.56-20.9,4.42-31.52,5.57-8.57.92-17.79,1.24-25.19-3.19-2.86-1.71-5.25-4.05-7.21-6.75,2.45,17.16,6.21,34.23,5.57,51.4,14.36-.17,28.96-.33,43.59-.49,9.7-16.24,17.31-33.6,24.79-51.04-.98.8-2.01,1.53-3.13,2.13Z"/>
      <path class="st2" d="M324.87,384.03c-12.42,10.13-28.1,17.46-42.93,23.93-13.22,5.76-26.45,11.52-39.67,17.28-3.16,1.38-6.38,2.79-8.94,5.11-7.28,6.59-7.14,18.31-13.19,26.04-3.89,4.97-9.88,7.73-15.02,11.39s-9.9,9.27-9.12,15.54c.2,1.65,1.77,3.63,3.14,2.69,0,0,83.43-1.17,181.43-2.33-.92-19.34-8.33-38.12-18.67-54.58-10.36-16.5-23.56-30.97-37.03-45.07Z"/>
      <path class="st2" d="M387.4,432.13c-2.29-3.16-14.08-97.65-16.09-107.63-.05-.27-.11-.54-.16-.8-5.41-.68-13.65,1.51-18.09,4.9-6.65,5.08-10.74,12.73-14.78,20.05s-8.52,14.85-15.59,19.33c-1.94,1.23-4.24,2.43-4.9,4.63-.82,2.75,1.33,5.43,3.32,7.5,1.25,1.3,2.5,2.61,3.75,3.91,13.47,14.1,26.67,28.57,37.03,45.07,10.34,16.46,17.75,35.24,18.67,54.58,4.11-.05,8.24-.1,12.39-.15.64-17.18-3.11-34.25-5.57-51.4Z"/>
      <path class="st2" d="M514.35,327.59c.65-3.7-2.55-8.5-5.98-6.95-.17-.19-.31-.4-.43-.62-2.91,2.41-6.18,4.51-9.11,6.32-.98.61-2.02,1.17-2.8,2.02-.58.65-.98,1.43-1.38,2.21l-3.82,7.53c-1.38,1.89-5.08.51-6.94,1.6-.83.48-1.2,1.47-1.6,2.35-1.68,3.76-6.11,9.22-9.57,6.98-2.88,1.71-3.33,2.02-6.21,3.72-1.16.69-6.45,3.6-7.78,3.86-1.72.33-3.48-.12-5.22-.27-7.87-.66-16.09,4.88-23.28,1.61-1.16-.52-2.22-1.26-3.43-1.65-1.73-.55-3.59-.35-5.4-.31-10.76.2-19-8.81-28.07-14.61-1.55-.99-3.17-2.05-4.09-3.64-1.01-1.74-1.19-4.08-2.84-5.24-1.02-.72-2.36-.77-3.5-1.27-2.44-1.07-3.5-3.86-4.58-6.29-2.24-5.08-5.53-9.7-9.6-13.48-.04-.04-.09-.08-.14-.12,3.03,5.57,16.5,117.65,18.79,120.81,1.96,2.7,4.35,5.03,7.21,6.75,7.39,4.43,16.62,4.11,25.19,3.19,10.62-1.14,21.15-3,31.52-5.57,2.37-.59,4.75-1.22,6.9-2.37,1.12-.6,2.15-1.33,3.13-2.13,7.57-17.65,15-35.37,24.33-52.1.96-1.72,1.93-3.44,2.94-5.14,2.93-4.96,6.24-10.01,11.26-12.82,4.1-2.29,9.49-3.31,11.56-7.53,2.42-4.94-1.46-10.76-.78-16.22.47-3.73,3.04-6.91,3.68-10.62Z"/>
      <path class="st2" d="M570.87,378.98c-.23-1.2-1.21-2.09-2.11-2.91-15.64-14.04-28.23-31.46-36.65-50.71-1.96-4.48-3.97-9.38-8.2-11.85-2.92-1.71-6.6-1.68-9.7-.36-.1.16-.19.32-.3.48-1.52,2.34-3.63,4.46-5.97,6.4.11.22.25.43.43.62,3.43-1.55,6.62,3.25,5.98,6.95-.65,3.7-3.22,6.89-3.68,10.62-.69,5.46,3.19,11.28.78,16.22-2.07,4.22-7.46,5.23-11.56,7.53-5.02,2.81-8.34,7.86-11.26,12.82-1,1.7-1.98,3.42-2.94,5.14-9.33,16.73-16.76,34.45-24.33,52.1-7.48,17.44-15.09,34.8-24.79,51.04,5.86-.06,11.73-.13,17.58-.19l26.46-49.7c1.11-2.08,2.27-4.23,4.15-5.66,1.72-1.31,3.88-1.88,5.96-2.47,22.96-6.47,44.1-18.05,64.88-29.76,6.01-3.39,12.45-7.29,14.9-13.74.19-.5.34-1.02.4-1.54.04-.33.05-.67-.02-1Z"/>
    </g>
    <path class="st2" d="M462.27,232.78c1.29,2.91,2.57,6.29,1.18,9.14-1.75,3.6-6.5,4.15-10.21,5.65-2.38.96-4.53,2.48-6.23,4.4-1.15,1.3-2.11,2.79-3.51,3.81-3.33,2.43-8.13,1.45-11.57-.82-2.81-1.85-5.1-4.48-6.56-7.52-.26-.54-.52-1.14-1.04-1.45-.41-.25-.9-.28-1.37-.34-3.95-.5-7.43-3.65-8.32-7.54s.87-8.23,4.22-10.4"/>
    <circle class="st3" cx="398.86" cy="190.79" r="6.59"/>
    <circle class="st3" cx="474.67" cy="190.79" r="6.59"/>
    <path class="st1" d="M475.55,272.21c-24.94-1.28-49.94,2.08-74.89.92,10.13,8.17,21.94,14.73,34.82,16.56,2.11.3,4.3.47,6.35-.13,2.31-.67,19.69-7.69,21.53-8.25,2.03-.62,3.87-1.74,5.64-2.92,2.91-1.93,5.7-4.02,8.36-6.28-.36.1-.71.15-1.81.09Z"/>
  </g>
</svg>