<?xml version="1.0" encoding="UTF-8"?>
<svg id="Layer_1" data-name="Layer 1" xmlns="http://www.w3.org/2000/svg" xmlns:xlink="http://www.w3.org/1999/xlink" viewBox="0 0 841.89 467.72">
  <defs>
    <style>
      .cls-1, .cls-2 {
        fill: none;
      }

      .cls-2, .cls-3 {
        stroke: #55565a;
        stroke-miterlimit: 10;
      }

      .cls-4 {
        fill: #55565a;
      }

      .cls-3, .cls-5 {
        fill: #fff;
      }

      .cls-6 {
        fill: #1b5492;
      }

      .cls-7 {
        fill: #5f9c70;
      }

      .cls-8 {
        fill: #fcd1c9;
      }

      .cls-9 {
        clip-path: url(#clippath);
      }
    </style>
    <clipPath id="clippath">
      <rect class="cls-1" y="0" width="841.89" height="467.72"/>
    </clipPath>
  </defs>
  <g class="cls-9">
    <rect class="cls-7" y="0" width="841.89" height="467.72"/>
    <g>
      <path class="cls-5" d="M523.8,130.7c.69-9.66.93-19.27,1.18-28.89.09-3.39.11-7-1.69-9.88-1.51-2.42-4.16-4.01-5.43-6.56-.83-1.66-.99-3.57-1.2-5.41-.62-5.46-1.78-10.87-3.46-16.11-2.28-7.13-6.46-14.76-13.76-16.42-1.94-.44-4.07-.44-5.76-1.51-2.86-1.82-3.2-5.76-4.7-8.79-1.83-3.71-5.48-6.12-9.02-8.26-10.3-6.22-21.37-11.78-33.33-13.04-6.26-.66-12.61-.12-18.88-.74-4.97-.49-9.85-1.69-14.79-2.45-29.21-4.46-60.41,8.38-78.02,32.1-6,4.85-10.71,9.41-14.21,14.87-3.5,5.45-5.75,11.97-4.95,18.41.39,3.14,1.49,6.25,1.11,9.39-.63,5.14-4.98,8.96-6.99,13.73-1.41,3.33-1.63,7.03-1.65,10.64-.03,4.52.25,9.05.52,13.57.18,2.94.35,5.88.53,8.83.48,8.06.97,16.14.51,24.2.06.05.12.11.18.16,9.28,7.94,14.9,20.17,15.58,32.73-2.19-24.96.55-50.35,7.98-74.28,1.38-4.44,3.15-9.14,6.99-11.76,4.09-2.8,10.6-3.56,11.56-8.41,12.1,6.81,27.69,6.95,39.91.35,4.07,3.42,10.59,3.48,14.71.11,14.59,6.42,31.63,7.02,46.64,1.66,5.39,2.28,11.7,2.28,17.08,0-1.95,1.93-4.28,3.46-6.81,4.5,3.37,1.94,7.79,1.91,11.13-.06,3.09,6.98,6.74,13.7,10.91,20.08,2.16,3.31,4.46,6.54,6.36,10,5.25,9.62,7.11,20.66,8.9,31.48,1.37,8.25,2.64,17.17-1.19,24.6.47-.46-.11,1.58-.29,3.66,3.57-5.49,6.18-11.6,7.68-17.97,1.4-5.96,2.06-12.59,6.37-16.95,1.36-1.37,3.01-2.43,4.34-3.84,1.32-1.4,2.32-3.34,1.91-5.22-.17-.8-.51-1.83.18-2.28.44-.28,1.02-.09,1.5.1,1.27.52,2.54,1.04,3.81,1.56.2.08.4.16.59.24-1.85-5.85-2.55-12.05-2.06-18.16v.02Z"/>
      <path class="cls-5" d="M530.1,173.35c-.22-5.87-1.26-11.66-2.3-17.44-.38-2.11-.77-4.26-1.8-6.14-.22-.4-.47-.77-.75-1.14-1.27-.52-2.54-1.04-3.81-1.56-.48-.2-1.06-.39-1.5-.1-.69.45-.35,1.48-.18,2.28.41,1.88-.58,3.82-1.91,5.22s-2.98,2.46-4.34,3.84c-4.31,4.35-4.97,10.99-6.37,16.95-1.51,6.37-4.11,12.48-7.68,17.97.18-2.07.77-4.11.29-3.66,3.83-7.43,2.55-16.35,1.19-24.6-1.79-10.81-3.66-21.86-8.9-31.48-1.89-3.47-4.2-6.69-6.36-10-4.17-6.38-7.82-13.11-10.91-20.08-3.35,1.97-7.76,2-11.13.06,2.54-1.04,4.87-2.57,6.81-4.5-5.39,2.28-11.7,2.28-17.08,0-15,5.36-32.05,4.76-46.64-1.66-4.12,3.36-10.64,3.31-14.71-.11-12.22,6.6-27.8,6.46-39.91-.35-.96,4.85-7.48,5.63-11.56,8.41-3.84,2.62-5.61,7.32-6.99,11.76-7.44,23.93-10.17,49.32-7.98,74.28-.68-12.57-6.3-24.79-15.58-32.73-1.24.89-2.43,1.81-3.4,2.95-4.55,5.4-2.61,13.46-1.13,20.37,1.56,7.28,2.31,14.73,2.25,22.18-.03,3-.17,6.06.7,8.95.76,2.5,2.25,4.71,3.85,6.78,2.68,3.46,5.91,6.72,10.04,8.18s9.31.65,11.92-2.86c1.98,9.57,5.82,19.36,11.52,27.94.8,1.2,1.63,2.38,2.5,3.54,2.73,3.66,5.71,7.12,8.69,10.58,3.63,4.21,7.26,8.42,11.35,12.19,14.24,13.14,33.87,20.23,53.22,19.28h0c11.15-1.92,22.74-4.02,31.84-10.74,4.59-3.39,8.29-7.79,11.93-12.19,9.47-11.44,18.83-23.25,26.01-36.17,2.96-5.32,5.56-10.82,7.63-16.58,1.05-1.57,1.53-2.28,2.01-2.99,2.06,1.69,4.94,2.07,7.58,1.69,5.78-.83,10.7-4.96,13.76-9.94,3.06-4.98,4.51-10.76,5.64-16.5,1.43-7.2,2.43-14.53,2.15-21.87l.02-.02Z"/>
      <path class="cls-5" d="M422.43,298.59c-.29.02-.59.03-.89.04,0,.03.09.69.89-.04Z"/>
      <path class="cls-5" d="M655.46,443.98c-2.45-4.24-5.22-8.39-9.01-11.49-1.51-1.24-3.17-2.31-4.45-3.77-1.53-1.75-2.48-4.03-4.32-5.45-1.82-1.39-4.21-1.72-6.43-2.33-4.95-1.37-9.28-4.29-13.53-7.17-8.14-5.53-16.28-11.05-25.13-17.2-18.11-16.05-37.96-30.14-59.09-41.95-4.01-2.24-8.15-4.43-12.67-5.2-2.84-.48-5.71-.4-8.59-.2,3.04,2.85,6.07,5.69,9.11,8.53,1.45,1.36,2.93,2.75,3.88,4.5,2.31,4.27.88,9.8-2.2,13.55-3.08,3.76-7.49,6.12-11.81,8.35-17.75,9.15-35.88,17.56-54.33,25.18-5.27,2.18-10.6,4.3-16.16,5.62-22.47,5.32-45.68-2.97-67.27-11.17-3.96-1.51-7.97-3.03-11.39-5.52-6.19-4.52-9.96-12.18-9.76-19.85.03-1.24.16-2.49.54-3.67.42-1.32,1.14-2.54,1.81-3.77,1.33-2.49,2.4-5.06,3.26-7.69-37.29,25.32-75.33,49.89-117.28,66.17-12.5,4.85-25.51,9.06-36.29,17.04-15.44,11.43-24.56,29.27-33.15,46.46,0,0,498.78-3.02,499.88-4.7-2.71-15.49-7.77-30.64-15.64-44.26h0Z"/>
      <path class="cls-5" d="M525.22,362.24c-.95-1.75-2.43-3.14-3.88-4.5-3.04-2.85-6.07-5.69-9.11-8.53-1.39-1.31-2.79-2.61-4.18-3.91-4.22-3.95-8.53-8.04-10.86-13.33-2-4.57-2.36-9.66-2.66-14.64-1.57-25.91-2.65-51.85-3.23-77.8-7.18,12.92-16.54,24.74-26.01,36.17-3.64,4.39-7.35,8.8-11.93,12.19-9.09,6.73-20.69,8.83-31.84,10.74h0c.29-.02,0,.03,0,0-19.35.95-38.98-6.14-53.22-19.28-4.09-3.77-7.72-7.98-11.35-12.19-2.99-3.46-5.97-6.92-8.69-10.58,2.21,19.07,5.76,37.99,9.14,56.9,2.94,16.48,5.57,34.21.49,49.79-.86,2.63-1.93,5.2-3.26,7.69-.65,1.23-1.38,2.44-1.81,3.77-.38,1.19-.52,2.43-.54,3.67-.21,7.66,3.56,15.33,9.76,19.85,3.42,2.49,7.43,4.03,11.39,5.52,21.59,8.19,44.8,16.48,67.27,11.17,5.56-1.32,10.88-3.43,16.16-5.62,18.45-7.62,36.59-16.02,54.33-25.18,4.32-2.23,8.73-4.59,11.81-8.35,3.08-3.76,4.52-9.28,2.2-13.55h.02Z"/>
    </g>
    <g>
      <path class="cls-4" d="M522.65,130.32c.69-9.66.93-19.27,1.18-28.89.09-3.39.11-7-1.69-9.88-1.51-2.42-4.16-4.01-5.43-6.56-.83-1.66-.99-3.57-1.2-5.41-.62-5.46-1.78-10.87-3.46-16.11-2.28-7.13-6.46-14.76-13.76-16.42-1.94-.44-4.07-.44-5.76-1.51-2.86-1.82-3.2-5.76-4.7-8.79-1.83-3.71-5.48-6.12-9.02-8.26-10.3-6.22-21.37-11.78-33.33-13.04-6.26-.66-12.61-.12-18.88-.74-4.97-.49-9.85-1.69-14.79-2.45-29.21-4.46-60.41,8.38-78.02,32.1-6,4.85-10.71,9.41-14.21,14.87-3.5,5.45-5.75,11.97-4.95,18.41.39,3.14,1.49,6.25,1.11,9.39-.63,5.14-4.98,8.96-6.99,13.73-1.41,3.33-1.63,7.03-1.65,10.64-.03,4.52.25,9.05.52,13.57.18,2.94.35,5.88.53,8.83.48,8.06.97,16.14.51,24.2.06.05.12.11.18.16,9.28,7.94,14.9,20.17,15.58,32.73-2.19-24.96.55-50.35,7.98-74.28,1.38-4.44,3.15-9.14,6.99-11.76,4.09-2.8,10.6-3.56,11.56-8.41,12.1,6.81,27.69,6.95,39.91.35,4.07,3.42,10.59,3.48,14.71.11,14.59,6.42,31.63,7.02,46.64,1.66,5.39,2.28,11.7,2.28,17.08,0-1.95,1.93-4.28,3.46-6.81,4.5,3.37,1.94,7.79,1.91,11.13-.06,3.09,6.98,6.74,13.7,10.91,20.08,2.16,3.31,4.46,6.54,6.36,10,5.25,9.62,7.11,20.66,8.9,31.48,1.37,8.25,2.64,17.17-1.19,24.6.47-.46-.11,1.58-.29,3.66,3.57-5.49,6.18-11.6,7.68-17.97,1.4-5.96,2.06-12.59,6.37-16.95,1.36-1.37,3.01-2.43,4.34-3.84,1.32-1.4,2.32-3.34,1.91-5.22-.17-.8-.51-1.83.18-2.28.44-.28,1.02-.09,1.5.1,1.27.52,2.54,1.04,3.81,1.56.2.08.4.16.59.24-1.85-5.85-2.55-12.05-2.06-18.16v.02Z"/>
      <path class="cls-8" d="M530.68,174.79c-.22-5.81-1.26-11.55-2.3-17.27-.38-2.09-.77-4.22-1.8-6.08-.22-.4-.47-.77-.75-1.13-1.27-.52-2.54-1.03-3.81-1.55-.48-.2-1.06-.39-1.5-.1-.69.44-.35,1.46-.18,2.25.41,1.87-.58,3.79-1.91,5.17-1.32,1.39-2.98,2.43-4.34,3.79-4.31,4.31-4.97,10.87-6.37,16.77-1.51,6.31-4.11,12.35-7.68,17.79.18-2.06.77-4.07.29-3.61,3.83-7.36,2.55-16.2,1.19-24.36-1.79-10.7-3.66-21.64-8.9-31.17-1.89-3.43-4.2-6.63-6.36-9.9-4.17-6.32-7.82-12.98-10.91-19.88-3.35,1.95-7.76,1.98-11.13.06,2.54-1.02,4.87-2.55,6.81-4.46-5.39,2.25-11.7,2.25-17.08,0-15,5.31-32.05,4.71-46.64-1.64-4.12,3.33-10.64,3.28-14.71-.11-12.22,6.53-27.8,6.4-39.91-.34-.96,4.81-7.48,5.57-11.56,8.34-3.84,2.6-5.61,7.25-6.99,11.65-7.44,23.7-10.17,48.84-7.98,73.55-.68-12.44-6.3-24.54-15.58-32.41-1.24.88-2.43,1.79-3.4,2.92-4.55,5.35-2.61,13.33-1.13,20.16,1.56,7.21,2.31,14.58,2.25,21.95-.03,2.98-.17,6.01.7,8.85.76,2.48,2.25,4.67,3.85,6.72,2.68,3.42,5.91,6.66,10.04,8.1,4.13,1.45,9.31.65,11.92-2.83,1.98,9.47,5.82,19.17,11.52,27.67.8,1.2,1.63,2.36,2.5,3.51,2.73,3.62,5.71,7.05,8.69,10.48,3.63,4.16,7.26,8.34,11.35,12.07,14.24,13.01,33.87,20.04,53.22,19.09h0c11.15-1.9,22.74-3.98,31.84-10.64,4.59-3.35,8.29-7.72,11.93-12.07,9.47-11.33,18.83-23.02,26.01-35.82,2.96-5.26,5.56-10.72,7.63-16.41,1.05-1.55,1.53-2.25,2.01-2.97,2.06,1.68,4.94,2.05,7.58,1.68,5.78-.83,10.7-4.91,13.76-9.84,3.06-4.93,4.51-10.66,5.64-16.34,1.43-7.13,2.43-14.38,2.15-21.65h.02Z"/>
      <path class="cls-8" d="M424.13,300.64c1.12-.2,2.24-.39,3.36-.59,9.7-1.77,19.45-4.13,27.32-9.95,4.59-3.39,8.29-7.79,11.93-12.19,9.47-11.44,18.83-23.25,26.01-36.17.58,25.95,1.64,51.89,3.23,77.8.3,4.98.65,10.07,2.66,14.64,2.32,5.28,6.64,9.39,10.86,13.33,1.39,1.31,2.79,2.61,4.18,3.91,3.04,2.85,6.07,5.69,9.11,8.53,1.45,1.36,2.93,2.75,3.88,4.5,2.31,4.27.88,9.8-2.2,13.55-3.08,3.76-7.49,6.12-11.81,8.35-17.75,9.15-35.88,17.56-54.33,25.18-5.27,2.18-10.6,4.3-16.16,5.62-22.47,5.32-45.68-2.97-67.27-11.17-3.96-1.51-7.97-3.03-11.39-5.52-6.19-4.52-9.96-12.18-9.76-19.85.03-1.24.16-2.49.54-3.67.42-1.32,1.14-2.54,1.81-3.77,1.33-2.49,2.4-5.06,3.26-7.69,5.08-15.58,2.45-33.31-.49-49.79-3.38-18.91-6.92-37.83-9.14-56.9,2.73,3.66,5.71,7.12,8.69,10.58,3.63,4.21,7.26,8.42,11.35,12.19,14.11,13.02,33.51,20.1,52.67,19.3.18,0,1.31-.16,1.69-.22h0Z"/>
      <path class="cls-6" d="M655.9,446.21c-2.45-4.24-5.22-8.39-9.01-11.49-1.51-1.24-3.17-2.31-4.45-3.77-1.53-1.75-2.48-4.03-4.32-5.45-1.82-1.39-4.21-1.72-6.43-2.33-4.95-1.37-9.28-4.29-13.53-7.17-8.14-5.53-16.28-11.05-25.13-17.2-18.11-16.05-37.96-30.14-59.09-41.95-4.01-2.24-8.15-4.43-12.67-5.2-2.84-.48-5.71-.4-8.59-.2,3.04,2.85,6.07,5.69,9.11,8.53,1.45,1.36,2.93,2.75,3.88,4.5,2.31,4.27.88,9.8-2.2,13.55-3.08,3.76-7.49,6.12-11.81,8.35-17.75,9.15-35.88,17.56-54.33,25.18-5.27,2.18-10.6,4.3-16.16,5.62-22.47,5.32-45.68-2.97-67.27-11.17-3.96-1.51-7.97-3.03-11.39-5.52-6.19-4.52-9.96-12.18-9.76-19.85.03-1.24.16-2.49.54-3.67.42-1.32,1.14-2.54,1.81-3.77,1.33-2.49,2.4-5.06,3.26-7.69-37.29,25.32-75.33,49.89-117.28,66.17-12.5,4.85-25.51,9.06-36.29,17.04-15.44,11.43-24.56,29.27-33.15,46.46,0,0,498.78-3.02,499.88-4.7-2.71-15.49-7.77-30.64-15.64-44.26h0Z"/>
    </g>
    <path class="cls-2" d="M427.72,200.7c-4.11-.7-8.5.49-11.7,3.17"/>
    <path class="cls-2" d="M413.64,207.35c-1.69.93-3.42,1.88-5.32,2.3s-4,.25-5.57-.9c-1.26-.93-2.02-2.37-2.87-3.67-1.09-1.67-2.46-3.23-4.23-4.14s-4.03-1.07-5.73-.03"/>
    <path class="cls-2" d="M396.75,204.81c-1.15-.68-2.54-.81-3.8-1.25s-2.54-1.42-2.57-2.75"/>
    <path class="cls-2" d="M388.29,199.34c-2.76-2.8-3.23-7.56-1.05-10.83,1.39-2.1,3.61-3.48,5.76-4.78"/>
    <path class="cls-2" d="M399.35,195.26c2.34-14.78,3.42-29.76,3.24-44.72"/>
    <path class="cls-2" d="M430.71,199.36c1.58-2.06,2.86-4.69,2.19-7.2-.22-.83-.66-1.6-1.09-2.36-.58-1.02-1.15-2.02-1.72-3.04"/>
    <path class="cls-3" d="M428.13,226.71c-9.85.32-19.63,2.15-29.49,2.01-2.37-.03-4.76-.18-7.12,0-2.51.18-4.99.71-7.48,1.03-1.98.26-3.96.38-5.95.43,1.58.89,3.16,1.78,4.74,2.67,1.2.67,2.4,1.35,3.65,1.94,5.76,2.72,12.26,3.45,18.62,3.53,8.17.1,16.41-.83,24.16-3.43,5.82-1.96,11.36-4.9,16.08-8.83-5.6.74-11.52.48-17.2.66h0Z"/>
    <path class="cls-2" d="M466.89,227.75c.89-5.05,1.18-10.68-1.76-14.87"/>
    <path class="cls-2" d="M361.08,230.92c-1.22-5.08-.59-10.59,1.75-15.27.41-.82.89-1.63,1.58-2.22.9-.76,2.09-1.07,3.24-1.32"/>
    <g>
      <path class="cls-2" d="M522.96,130.39c.69-9.66.93-19.27,1.18-28.89.09-3.39.11-7-1.69-9.88-1.51-2.42-4.16-4.01-5.43-6.56-.83-1.66-.99-3.57-1.2-5.41-.62-5.46-1.78-10.87-3.46-16.11-2.28-7.13-6.46-14.76-13.76-16.42-1.94-.44-4.07-.44-5.76-1.51-2.86-1.82-3.2-5.76-4.7-8.79-1.83-3.71-5.48-6.12-9.02-8.26-10.3-6.22-21.37-11.78-33.33-13.04-6.26-.66-12.61-.12-18.88-.74-4.97-.49-9.85-1.69-14.79-2.45-29.21-4.46-60.41,8.38-78.02,32.1-6,4.85-10.71,9.41-14.21,14.87-3.5,5.45-5.75,11.97-4.95,18.41.39,3.14,1.49,6.25,1.11,9.39-.63,5.14-4.98,8.96-6.99,13.73-1.41,3.33-1.63,7.03-1.65,10.64-.03,4.52.25,9.05.52,13.57.18,2.94.35,5.88.53,8.83.48,8.06.97,16.14.51,24.2.06.05.12.11.18.16,9.28,7.94,14.9,20.17,15.58,32.73-2.19-24.96.55-50.35,7.98-74.28,1.38-4.44,3.15-9.14,6.99-11.76,4.09-2.8,10.6-3.56,11.56-8.41,12.1,6.81,27.69,6.95,39.91.35,4.07,3.42,10.59,3.48,14.71.11,14.59,6.42,31.63,7.02,46.64,1.66,5.39,2.28,11.7,2.28,17.08,0-1.95,1.93-4.28,3.46-6.81,4.5,3.37,1.94,7.79,1.91,11.13-.06,3.09,6.98,6.74,13.7,10.91,20.08,2.16,3.31,4.46,6.54,6.36,10,5.25,9.62,7.11,20.66,8.9,31.48,1.37,8.25,2.64,17.17-1.19,24.6.47-.46-.11,1.58-.29,3.66,3.57-5.49,6.18-11.6,7.68-17.97,1.4-5.96,2.06-12.59,6.37-16.95,1.36-1.37,3.01-2.43,4.34-3.84,1.32-1.4,2.32-3.34,1.91-5.22-.17-.8-.51-1.83.18-2.28.44-.28,1.02-.09,1.5.1,1.27.52,2.54,1.04,3.81,1.56.2.08.4.16.59.24-1.85-5.85-2.55-12.05-2.06-18.16v.02Z"/>
      <path class="cls-2" d="M529.27,173.04c-.22-5.87-1.26-11.66-2.3-17.44-.38-2.11-.77-4.26-1.8-6.14-.22-.4-.47-.77-.75-1.14-1.27-.52-2.54-1.04-3.81-1.56-.48-.2-1.06-.39-1.5-.1-.69.45-.35,1.48-.18,2.28.41,1.88-.58,3.82-1.91,5.22s-2.98,2.46-4.34,3.84c-4.31,4.35-4.97,10.99-6.37,16.95-1.51,6.37-4.11,12.48-7.68,17.97.18-2.07.77-4.11.29-3.66,3.83-7.43,2.55-16.35,1.19-24.6-1.79-10.81-3.66-21.86-8.9-31.48-1.89-3.47-4.2-6.69-6.36-10-4.17-6.38-7.82-13.11-10.91-20.08-3.35,1.97-7.76,2-11.13.06,2.54-1.04,4.87-2.57,6.81-4.5-5.39,2.28-11.7,2.28-17.08,0-15,5.36-32.05,4.76-46.64-1.66-4.12,3.36-10.64,3.31-14.71-.11-12.22,6.6-27.8,6.46-39.91-.35-.96,4.85-7.48,5.63-11.56,8.41-3.84,2.62-5.61,7.32-6.99,11.76-7.44,23.93-10.17,49.32-7.98,74.28-.68-12.57-6.3-24.79-15.58-32.73-1.24.89-2.43,1.81-3.4,2.95-4.55,5.4-2.61,13.46-1.13,20.37,1.56,7.28,2.31,14.73,2.25,22.18-.03,3-.17,6.06.7,8.95.76,2.5,2.25,4.71,3.85,6.78,2.68,3.46,5.91,6.72,10.04,8.18s9.31.65,11.92-2.86c1.98,9.57,5.82,19.36,11.52,27.94.8,1.2,1.63,2.38,2.5,3.54,2.73,3.66,5.71,7.12,8.69,10.58,3.63,4.21,7.26,8.42,11.35,12.19,14.24,13.14,33.87,20.23,53.22,19.28h0c11.15-1.92,22.74-4.02,31.84-10.74,4.59-3.39,8.29-7.79,11.93-12.19,9.47-11.44,18.83-23.25,26.01-36.17,2.96-5.32,5.56-10.82,7.63-16.58,1.05-1.57,1.53-2.28,2.01-2.99,2.06,1.69,4.94,2.07,7.58,1.69,5.78-.83,10.7-4.96,13.76-9.94,3.06-4.98,4.51-10.76,5.64-16.5,1.43-7.2,2.43-14.53,2.15-21.87l.02-.02Z"/>
      <path class="cls-2" d="M654.61,443.67c-2.45-4.24-5.22-8.39-9.01-11.49-1.51-1.24-3.17-2.31-4.45-3.77-1.53-1.75-2.48-4.03-4.32-5.45-1.82-1.39-4.21-1.72-6.43-2.33-4.95-1.37-9.28-4.29-13.53-7.17-8.14-5.53-16.28-11.05-25.13-17.2-18.11-16.05-37.96-30.14-59.09-41.95-4.01-2.24-8.15-4.43-12.67-5.2-2.84-.48-5.71-.4-8.59-.2,3.04,2.85,6.07,5.69,9.11,8.53,1.45,1.36,2.93,2.75,3.88,4.5,2.31,4.27.88,9.8-2.2,13.55-3.08,3.76-7.49,6.12-11.81,8.35-17.75,9.15-35.88,17.56-54.33,25.18-5.27,2.18-10.6,4.3-16.16,5.62-22.47,5.32-45.68-2.97-67.27-11.17-3.96-1.51-7.97-3.03-11.39-5.52-6.19-4.52-9.96-12.18-9.76-19.85.03-1.24.16-2.49.54-3.67.42-1.32,1.14-2.54,1.81-3.77,1.33-2.49,2.4-5.06,3.26-7.69-37.29,25.32-75.33,49.89-117.28,66.17-12.5,4.85-25.51,9.06-36.29,17.04-15.44,11.43-24.56,29.27-33.15,46.46,0,0,498.78-3.02,499.88-4.7-2.71-15.49-7.77-30.64-15.64-44.26h0Z"/>
    </g>
    <path class="cls-2" d="M418.28,363.1c-2.84-4.11-5.55-8.48-6.49-13.39s.23-10.5,4.09-13.7"/>
    <path class="cls-2" d="M517.82,159.87c.37-1.05.76-2.12,1.51-2.95s1.96-1.33,2.99-.93c.6.23,1.07.73,1.46,1.24,1.33,1.72,2.19,3.81,2.45,5.97.3,2.49-.18,5.02-.51,7.51-.91,6.91-.64,13.97.81,20.78"/>
    <path class="cls-2" d="M519.12,164.41c.58,4.03,1.15,8.06,1.73,12.1"/>
    <path class="cls-2" d="M510.44,176.53l5.45,11.79c.46,1.01.93,2.02,1.12,3.11.23,1.35,0,2.79-.66,3.98-.82-1.22-1.67-2.49-2.94-3.23s-3.08-.79-4.07.3c-.46.51-.69,1.19-.87,1.86-.42,1.55-.69,3.15-.79,4.75-.03.58-.06,1.2-.35,1.71s-.95.87-1.48.61c-.67-.33-.64-1.29-.48-2.02.55-2.65,1.28-5.26,2.18-7.81"/>
    <path class="cls-2" d="M332.9,220.28c-4.07-8.82-6.19-18.52-6.19-28.23"/>
    <path class="cls-2" d="M315.43,171.76c-2.68,8.09-4.09,16.6-4.15,25.13"/>
    <path class="cls-2" d="M313.55,168.24c-.83-1.07-1.77-2.05-2.8-2.92-.41-.35-.95-.71-1.46-.55-.39.12-.64.49-.82.85-1.17,2.31-.9,5.06-.62,7.63.66,5.85,1.32,11.69,1.98,17.54"/>
    <path class="cls-2" d="M320.06,184.44l-4.81,11.18c-.65,1.52-1.32,3.23-.75,4.78.32.88.99,1.57,1.68,2.19.4.36.86.73,1.4.74.72,0,1.26-.62,1.7-1.2,1.01-1.31,2-2.62,3.01-3.92,1.29,3.79,2.33,7.68,3.11,11.61"/>
    <path class="cls-2" d="M499.14,217.27c2.11-11.05,4.22-22.1,5.81-33.24"/>
    <circle class="cls-4" cx="374.48" cy="157.37" r="6.84"/>
    <circle class="cls-4" cx="442.79" cy="152.6" r="6.84"/>
    <path class="cls-2" d="M456.57,222.44c-8.34,4.96-18.74,3.96-28.45,4.28-9.85.32-19.63,2.15-29.49,2.01-2.37-.03-4.76-.18-7.12,0-2.51.18-4.99.71-7.48,1.03-4.61.59-9.28.5-13.93.4"/>
    <path class="cls-2" d="M400.46,246.16s14.08,1.28,28.83-3.42"/>
    <path class="cls-2" d="M402.61,263.32s17.98.81,25.1,0"/>
  </g>
</svg>