<?xml version="1.0" encoding="UTF-8"?>
<svg id="Layer_1" xmlns="http://www.w3.org/2000/svg" xmlns:xlink="http://www.w3.org/1999/xlink" version="1.1" viewBox="0 0 841.89 467.72">
  <!-- Generator: Adobe Illustrator 29.0.0, SVG Export Plug-In . SVG Version: 2.1.0 Build 186)  -->
  <defs>
    <style>
      .st0, .st1 {
        fill: none;
      }

      .st2 {
        fill: #deece2;
      }

      .st1 {
        stroke: #55565a;
        stroke-miterlimit: 10;
      }

      .st3 {
        fill: #fbbfba;
      }

      .st4 {
        fill: #55565a;
      }

      .st5 {
        fill: #fff;
      }

      .st6 {
        fill: #e5817d;
      }

      .st7 {
        fill: #b79c9d;
      }

      .st8 {
        clip-path: url(#clippath);
      }
    </style>
    <clipPath id="clippath">
      <rect class="st0" y="0" width="841.89" height="467.72"/>
    </clipPath>
  </defs>
  <g class="st8">
    <rect class="st2" y="0" width="841.89" height="467.72"/>
    <g>
      <path class="st5" d="M349.46,212.51c-.69.51-1.57.37-2.3-.1h0c-.33-2.12-.88-4.2-1.64-6.2-.83-2.18-1.91-4.26-3.19-6.22-3.71-5.67-9.15-10.23-15.5-12.62-3.68-1.38-8.06-1.9-11.68-.72-1.68.55-3.2,1.46-4.41,2.83-3.22,3.65-1.35,29.74,2.09,36.76,1.11,2.27,2.49,4.42,3.63,6.67,0-.73.04-1.47.13-2.2.45-3.73,2.22-7.46,5.38-9.47,3.28-2.08,7.49-2.03,11.29-1.22,2.62.56,5.17,1.43,7.84,1.68,2.66.25,5.55-.22,7.52-2.02,1.98-1.8,2.61-5.18.85-7.19v.02Z"/>
      <path class="st5" d="M695.73,464.76c-.39-3.47-.54-7.05-1.96-10.24-1.61-3.63-4.69-6.35-7.68-8.96-10.28-8.96-20.55-17.92-30.83-26.89-14.89-12.98-29.85-26.02-46.47-36.69-15.78-10.13-34.41-18.27-52.85-14.84-7.38,1.37-14.83,4.57-22.12,2.8-7.3-1.77-12.58-8.11-19.42-11.23-7.02-3.19-14.84-2.66-22.34-.38,2.58,14.94,2.54,30.34-.18,45.26-1.38,7.55-3.49,15.13-7.78,21.49-4.29,6.37-11.03,11.42-18.67,12.17-10.56,1.04-20.09-5.97-28.03-13.01-4.6-4.07-9.17-8.45-12.54-13.52-.84.28-1.69.49-2.57.63-.08.68-.31,1.35-.74,1.99-1.56,2.34-4.89,2.67-7.67,2.22-2.78-.46-5.58-1.46-8.34-.91-3.79.76-6.34,4.15-9.07,6.88-12.11,12.1-31.13,12.94-48.25,13.03-1.86,0-3.88-.04-5.32-1.21-.53-.43-.93-.98-1.33-1.53-10.04-13.85-18.13-29.1-23.97-45.18-.47-1.28-.91-2.75-.27-3.95.89-1.66,3.23-1.79,4.71-2.96,1-.8,1.54-2.03,2.04-3.21.87-2.06,1.72-4.14,2.56-6.22-28.98,13.01-56.29,29.55-83.48,46.04-17.74,10.75-35.47,21.51-53.21,32.26-4.21,2.55-8.47,5.15-11.89,8.69-8.82,9.16-10.51,22.84-11.73,35.5.62-.76,15.22.8,15.22.8l523.39-1.61c-4.95-8.29-8.11-17.64-9.19-27.24l-.02.02Z"/>
      <path class="st5" d="M421.65,411.49c-2.77.35-5.59-.05-8.31-.73-10.07-2.52-18.67-8.66-26.74-15.33-1.82-1.5-3.61-3.03-5.38-4.55-7.11-6.09-14.22-12.17-21.33-18.26-5.55-4.75-11.5-10.23-12.21-17.5.47.24.9-.39,1.06-.89,3.23-10.43,4.16-21.24,4.43-32.18-3.4.93-6.58,3.12-8.88,5.85-3.78,4.5-5.69,10.22-7.62,15.77-3.11,8.96-6.47,17.84-10.05,26.63-.84,2.08-1.69,4.15-2.56,6.22-.5,1.18-1.04,2.41-2.04,3.21-1.48,1.17-3.82,1.3-4.71,2.96-.64,1.2-.2,2.67.27,3.95,5.84,16.08,13.94,31.33,23.97,45.18.4.55.81,1.1,1.33,1.53,1.44,1.18,3.46,1.22,5.32,1.21,17.12-.09,36.14-.93,48.25-13.03,2.73-2.73,5.29-6.12,9.07-6.88,2.76-.55,5.56.45,8.34.91s6.11.13,7.67-2.22c.43-.64.66-1.31.74-1.99-.21.04-.42.09-.63.12v.02Z"/>
      <path class="st5" d="M492.06,358.34c-.88-5.1-2.06-10.14-3.55-15.1-.24-.79-.49-1.58-.83-2.33-4.21,4.51-8.03,9.38-12.14,13.97-1.46,1.63-2.97,3.23-4.6,4.68-1.56,1.39-3.24,2.64-5.08,3.62-.25.13-.54.26-.84.39v.03c-6.2,16.36-16.98,30.95-30.79,41.67-2.86,2.22-5.97,4.32-9.37,5.45,3.37,5.07,7.95,9.45,12.54,13.52,7.95,7.04,17.47,14.05,28.03,13.01,7.64-.75,14.38-5.8,18.67-12.17,4.29-6.37,6.4-13.94,7.78-21.49,2.72-14.92,2.76-30.32.18-45.26h0Z"/>
      <path class="st5" d="M465.01,363.58c-2.53,1.06-6.98,1.91-12.7,2.02-.22,0-.45.01-.67.01-8.75.07-20.28-1.63-32.3-7-9.13-4.08-34.66-26.27-38.99-31.96-6.08-8-12.82-15.48-18.95-23.45-2.13-2.77-4.19-5.61-5.65-8.78-.88-1.92-1.52-3.92-2.03-5.96-.67,11.15-.27,22.44-.55,33.59-.27,10.93-1.2,21.74-4.43,32.18-.16.51-.59,1.14-1.06.89.71,7.27,6.66,12.75,12.21,17.5,7.11,6.09,14.22,12.17,21.33,18.26,1.77,1.52,3.57,3.05,5.38,4.55,8.08,6.67,16.68,12.81,26.74,15.33,2.71.68,5.53,1.08,8.31.73.21-.03.42-.08.63-.12.87-.15,1.73-.36,2.57-.63,3.4-1.13,6.51-3.23,9.37-5.45,13.81-10.73,24.6-25.32,30.79-41.67v-.03h0Z"/>
      <path class="st5" d="M532.95,178.57c.12-1.57.33-3.15.59-4.72.54-3.26,1.32-6.53,2.1-9.83-1.87.19-3.77.37-5.68.5-7.57.5-15.28.09-21.29-4.26-2.96-2.14-5.24-5.07-7.38-8.03-2.14-2.96-4.24-6.09-5.02-9.66s.01-7.71,2.44-10.12c-3.09,4.6-35.29,7.82-37.69,8.62-2.86.95,13.91,8.38,10.93,7.99-3.29-.43-18.5-.2-17.52-7.23.65-4.7,15.94-17.28,19.48-18.31-4.49-3.66-7.83-8.72-9.42-14.3-6.22,30.46-35.69,23.4-36.15,13.99-.02-.34-.69-.08-.13.47-1.44,2.95-3.1,5.86-5.49,8.11-5.27,4.95-13.11,5.85-20.33,5.74,1.16,2.64.9,5.76-.17,8.44-1.07,2.68-2.77,5.12-4.84,7.14-10.47,10.21-21.44,4.45-21.83,1.16-7.51,11.75-6.98,18.97-10.26,32.53-.62,2.56-1.16,5.17-1.11,7.8.04,2.11.47,4.2.42,6.31-.05,2.44-.73,4.81-1.45,7.14-1.74,5.61-3.74,11.14-6,16.56-1.32,3.15-2.84,6.42-5.64,8.39-1.81,1.27-3.99,1.88-6.12,2.43-5.3,1.38-11.42,2.44-15.84-.79-1.81-1.32-3.38-3.38-5.62-3.42-2.24-.05-4.02,2.11-4.39,4.32-.37,2.21.31,4.44.92,6.6.15.54.29,1.17-.05,1.63-.12.16-.27.26-.45.32,2.39,9.59,5.63,23.05,8.9,25.64,4.52,3.57,10.48,5.33,16.18,4.53.99-.14,2-.37,2.82-.94,1.9-1.33,2.19-3.98,2.3-6.3.72,4.3,1.34,8.52,1.97,12.73.43,2.92.88,5.86,1.59,8.71.51,2.04,1.15,4.05,2.03,5.96,1.46,3.17,3.52,6.02,5.65,8.78,6.13,7.97,12.87,15.45,18.95,23.45,4.33,5.7,29.86,27.89,38.99,31.96,12.03,5.37,23.56,7.06,32.3,7,.23,0,.45,0,.67-.01,5.72-.11,10.17-.96,12.7-2.02.31-.13.6-.26.84-.39,1.84-.98,3.52-2.23,5.08-3.62,1.63-1.45,3.15-3.05,4.6-4.68,4.12-4.6,7.93-9.47,12.14-13.97.65-.69,1.3-1.38,1.97-2.05,3.72-3.75,7.8-7.13,11.42-10.98,7.63-8.08,13.09-18.01,17.14-28.35,3.13-7.97,10.43-42.39,10.42-51.33,0-8.31-.01-16.63-.02-24.94,0-4.5,0-9.04.94-13.44,1.16-5.37,3.68-10.36,4.94-15.7-1.4-5.04-1.95-10.32-1.55-15.54l.02-.02Z"/>
      <g>
        <path class="st5" d="M587.71,170.14c-.79-.13-1.58.17-2.32.47-3.35,1.35-6.7,2.7-10.05,4.05,4.21-2.04,7.84-5.53,9.44-9.93s.95-9.7-2.16-13.21c-1.12,3.26-2.51,6.43-4.15,9.47-2.26,4.2-6.04,8.65-10.77,8-4.34-.6-6.82-5.14-8.61-9.13-.72-1.6-1.46-3.29-1.33-5.04.11-1.53.87-2.94,1.69-4.24,1.17-1.85,2.49-3.6,3.95-5.23,2.05-2.29,4.46-4.5,5.21-7.48.74-2.98-1.32-6.86-4.37-6.51-1.37.16-2.5,1.1-3.5,2.05-1.51,1.45-2.9,3.04-4.14,4.73.88-2.74,1.42-6.13,1.86-9.36.78-5.67,1.54-11.6-.34-17.01-1.98-5.69-6.6-10.01-11.21-13.91-8.26-6.99-17.28-13.55-27.74-16.28-2.78-.72-5.69-1.15-8.58-1.14,6.42-5.24,7.81-13.69,1.12-22.66-2.61-3.87-6.49-7.22-10.9-8.86,1.52-1.94,2.66-4.13,3.12-6.72,1.17-7.58-4.75-13.99-10.56-17.91-4.78-3.2-11-4.72-16.58-2.86-2.76.88-5.32,2.53-7.09,4.87l.71.55c4.56-3.31,10.03-3.19,14.08-1.42,5.12,2.27,11.29,8.24,11.84,13.82-.23,4.69-6.08,7.74-10.27,10.75-1.3-3.25-3.85-5.91-6.93-7.71-1.55-.91-3.26-1.63-4.48-2.95-1.03-1.11-1.65-2.59-2.85-3.5-1.54-1.16-3.63-1.13-5.47-1.71-3.53-1.1-6.29-4.46-9.98-4.58-2.69-.08-5.16,1.68-6.66,3.92-1.5,2.23-2.2,4.89-2.87,7.49-3.87-.6-7.79-.93-11.71-.99-3-2.73-6.82-4.73-10.56-6.66-6.73-3.48-14.54-7.04-21.58-4.26-5.19,2.05-8.51,7.05-11.49,11.77-4.47-3.36-11.12-3.45-15.69-.21s-6.68,9.54-5,14.87c-2.82-2.6-7.72-1.78-10.27,1.09s-3.02,7.12-2.18,10.86c.81,3.56,3.29,7.25,6.93,7.49-3.61.06-6.86,2.43-8.91,5.39s-3.11,6.49-4.14,9.95c-3.05-.46-6.55-1-9.15.8-1.43.99-2.35,2.55-3.13,4.1-4.6,9.1-6.04,19.75-4.04,29.74.35,1.75.66,3.92-.77,4.99-1.21.91-2.91.42-4.43.49-2.68.13-4.95,2.22-6.09,4.64-1.14,2.43-1.37,5.17-1.57,7.85-.23,2.93-.46,5.86-.68,8.8-.07.92-.17,1.9-.74,2.62-.6.77-1.6,1.08-2.5,1.44-4.65,1.86-13.28,1.45-14.17,6.38-.89,4.92,5.98,15.01,9.68,18.39.94.85,2.07,1.76,2.1,3.03.03,1.13-.84,2.15-1.64,3.12,3.62-1.18,8-.67,11.68.72,6.35,2.38,11.79,6.94,15.5,12.62,1.28,1.96,2.36,4.04,3.19,6.22.76,2,1.32,4.08,1.64,6.2h0c.73.47,1.61.62,2.3.1,1.77,2.01,1.13,5.39-.85,7.19s-4.86,2.27-7.52,2.02-5.22-1.13-7.84-1.68c-3.8-.81-8.01-.86-11.29,1.22-3.17,2.01-4.94,5.74-5.38,9.47-.09.73-.12,1.47-.13,2.2-.03,3,.56,6.01,1.24,8.94.16.68.35,1.41.85,1.89.37.35.96.5,1.41.34.17-.06.33-.16.45-.32.33-.45.2-1.08.05-1.63-.61-2.16-1.29-4.39-.92-6.6s2.15-4.37,4.39-4.32c2.24.05,3.81,2.1,5.62,3.42,4.41,3.24,10.54,2.17,15.84.79,2.14-.56,4.32-1.16,6.12-2.43,2.79-1.97,4.32-5.24,5.64-8.39,2.26-5.42,4.27-10.95,6-16.56.72-2.33,1.4-4.7,1.45-7.14.05-2.11-.38-4.2-.42-6.31-.05-2.63.49-5.24,1.11-7.8,3.28-13.55,2.75-20.77,10.26-32.53.39,3.29,11.36,9.05,21.83-1.16,2.07-2.02,3.76-4.45,4.84-7.14,1.07-2.68,1.33-5.79.17-8.44,7.22.11,15.06-.79,20.33-5.74,2.39-2.25,4.05-5.16,5.49-8.11-.56-.55.11-.81.13-.47.46,9.41,29.92,16.47,36.15-13.99,1.59,5.57,4.92,10.63,9.42,14.3-3.53,1.03-18.83,13.61-19.48,18.31-.97,7.02,14.23,6.8,17.52,7.23,2.98.39-13.79-7.04-10.93-7.99,2.4-.8,34.6-4.02,37.69-8.62-2.43,2.41-3.22,6.55-2.44,10.12.78,3.57,2.88,6.7,5.02,9.66,2.14,2.96,4.42,5.89,7.38,8.03,6.02,4.34,13.72,4.76,21.29,4.26,1.91-.13,3.82-.31,5.68-.5-.78,3.3-1.56,6.56-2.1,9.83-.26,1.57-.47,3.14-.59,4.72-.4,5.22.15,10.5,1.55,15.54.49,1.77,1.1,3.51,1.8,5.2-1.78,4.64-3,9.49-3.6,14.44-1.23,9.34.12,14.33,8.35,19.51.07.04.13.09.2.13.04,9.9-2.56,19.83-7.73,28.28-1.31,2.16-2.94,4.26-4.34,6.4-2.63,3.67-3.72,9.61.15,12.91,2.35,2.05,6.02,1.38,8.24-.28,2.99-1.97,4.63-5.28,7.18-7.55,3.82-3.78,9.39-1.57,11.67,2.72,2.57,4.4.65,9.75-2.43,13.46-2.13,2.61-4.86,4.63-7.75,6.37-2.91,1.77-6.01,3.3-8.97,5.13-1.42,1.08-3.85,1.85-3.88,3.97.99,5.61,7.99,8.67,13.04,6.57l-.34-.83c-3.41.45-7.23-1.46-8.5-4.62,3.88-1.76,7.52-3.02,11.81-4.95,5.42-2.37,11.33-6.91,14.17-12.84,4.52-8.6,1.13-19.67-7.76-24.06-4.56-2.46-10.47-1.87-14.81.83,2.26-4.37,3.9-9.08,4.89-13.94,4.35,3.7,10.53,4.7,16.04,3.42,13.34-3.38,25.23-17.95,21.5-32.05-.9-3.56-3.14-6.42-5.97-8.09,3.38.91,7.06.6,8.8-2.24.37-.62.62-1.36.43-2.06-.28-.99-1.31-1.53-2.27-1.91-3.08-1.22-6.37-1.92-9.68-2.05-4.31-.17-9.53.2-11.95-3.38-1.52-2.25-1.19-5.35.12-7.72,1.32-2.37,3.46-4.15,5.6-5.82,5.25-4.1,10.76-7.88,16.61-11.06,1.62-.88,3.36-1.81,4.21-3.44s.2-4.15-1.61-4.45l.06.02ZM508.84,67.88c1.72,3.8-.15,7.33-3.24,10.22-1.15,1.05-2.5,1.94-3.95,2.73,2.22-3.52,2.99-7.95,1.98-11.99-1.26-5.04-4.83-8.85-9.09-12.01,6.03-1,12.05,6.16,14.3,11.05ZM494.67,54.71c-.27.33-.71.86-1.15,1.38-.12-.08-.24-.17-.36-.25.5-.38,1.01-.75,1.51-1.13h0ZM486.83,50.51c-.12.27-.21.53-.31.8-.06-.22-.13-.45-.2-.66l.51-.14ZM535.49,274.85s.02-.06.03-.1c.03.05.06.11.07.16.05.29-.08-.06-.1-.06h0ZM537.39,305.34c-.05-.18-.1-.35-.13-.53-.03-.21.06-.31.14-.04.03.12.04.34-.01.58h0ZM542.27,184.48c1.19,4.46,6.87,7.07,11.03,5.07-3.65,3.36-7.29,6.72-10.94,10.08-1.77,1.64-3.58,3.33-4.87,5.34.14-2.69.39-5.37.74-8.04l-.74-.32c.24-6.09,1.41-12.15,3.49-17.88.97,1.72.78,3.84,1.29,5.74h0ZM538.66,221.64c-.36-.83-.58-1.96-.77-3.25-.06-.51-.11-1.02-.16-1.54.18-.4.35-.8.52-1.2.94,2.69,1.67,5.45,2.17,8.26-.7-.62-1.31-1.34-1.76-2.27ZM572.74,237.41c-2.97,4.79-7.37,9.14-12.78,10.98-4.4,1.52-9.91.88-13.28-2.38.34-3.1.43-6.23.24-9.34.73.29,1.48.53,2.28.68,4.74.87,9.4-1.82,12.56-5.06,3.18-3.16,5.36-7,8.54-10.02,2.28-1.99,4.43.81,4.87,3.07,1.04,4.14-.26,8.45-2.42,12.07h0ZM574.17,212.95h0c-3.09-.71-6.49-.1-9.48,2.34-4.46,3.63-7.19,9.49-11.22,12.62-.99.68-1.87,1.19-2.81,1.32-1.33.06-3.82-1.46-5.27-2.21-1.26-4.87-3.28-9.52-6.07-13.74,3.36-6.86,8.85-12.66,15.53-16.36,2.51,3.28,4.56,6.87,6.61,10.46,4.95.23,8.79,3.42,12.71,5.58h0Z"/>
        <path class="st5" d="M310.72,264.64c-.76-.21-1.27-.34-1.4-.31-.15.01.07.31.13.7-.06.94-.59-.1-.54-.68.67-5.92,7.48-8.86,12.39-11.26l-.05-.9c-6.09.18-13.07,1.62-16.99,6.86-2.75,3.33-3.56,9.39.67,11.94,3.62,2.16,7.77,2.52,10.7,5.49,4.65,4.3,1.43,11.32-3.03,14.45-3.11,2.34-7.09,3.56-10.99,3.24-4.63-.19-13.06-4.45-12.57-9.81.26-1.85,1.46-3.54,2.68-5.15l-.71-.56c-3.36,1.67-6.61,5.54-5.2,10.04,2.18,6.72,8.1,11.17,15.19,12.64,10.45,2.02,22.09-4.41,25.18-14.82,3.33-11.26-5-19.69-15.45-21.88h-.01Z"/>
      </g>
    </g>
    <g>
      <path class="st3" d="M351.34,216.6c-.69.51-1.57.37-2.3-.1h0c-.33-2.12-.88-4.2-1.64-6.2-.83-2.18-1.91-4.26-3.19-6.22-3.71-5.67-9.15-10.23-15.5-12.62-3.68-1.38-8.06-1.9-11.68-.72-1.68.55-3.2,1.46-4.41,2.83-3.22,3.65-1.35,29.74,2.09,36.76,1.11,2.27,2.49,4.42,3.63,6.67,0-.73.04-1.47.13-2.2.45-3.73,2.22-7.46,5.38-9.47,3.28-2.08,7.49-2.03,11.29-1.22,2.62.56,5.17,1.43,7.84,1.68,2.66.25,5.55-.22,7.52-2.02,1.98-1.8,2.61-5.18.85-7.19v.02Z"/>
      <path class="st6" d="M694.61,469.85c-.39-3.47-.54-7.05-1.96-10.24-1.61-3.63-4.69-6.35-7.68-8.96-10.28-8.96-20.55-17.92-30.83-26.89-14.89-12.98-29.85-26.02-46.47-36.69-15.78-10.13-34.41-18.27-52.85-14.84-7.38,1.37-14.83,4.57-22.12,2.8-7.3-1.77-12.58-8.11-19.42-11.23-7.02-3.19-14.84-2.66-22.34-.38,2.58,14.94,2.54,30.34-.18,45.26-1.38,7.55-3.49,15.13-7.78,21.49-4.29,6.37-11.03,11.42-18.67,12.17-10.56,1.04-20.09-5.97-28.03-13.01-4.6-4.07-9.17-8.45-12.54-13.52-.84.28-1.69.49-2.57.63-.08.68-.31,1.35-.74,1.99-1.56,2.34-4.89,2.67-7.67,2.22-2.78-.46-5.58-1.46-8.34-.91-3.79.76-6.34,4.15-9.07,6.88-12.11,12.1-31.13,12.94-48.25,13.03-1.86,0-3.88-.04-5.32-1.21-.53-.43-.93-.98-1.33-1.53-10.04-13.85-18.13-29.1-23.97-45.18-.47-1.28-.91-2.75-.27-3.95.89-1.66,3.23-1.79,4.71-2.96,1-.8,1.54-2.03,2.04-3.21.87-2.06,1.72-4.14,2.56-6.22-28.98,13.01-56.29,29.55-83.48,46.04-17.74,10.75-35.47,21.51-53.21,32.26-4.21,2.55-8.47,5.15-11.89,8.69-8.82,9.16-10.51,22.84-11.73,35.5.62-.76,15.22.8,15.22.8l523.39-1.61c-4.95-8.29-8.11-17.64-9.19-27.24l-.02.02Z"/>
      <path class="st6" d="M421.53,415.58c-2.77.35-5.59-.05-8.31-.73-10.07-2.52-18.67-8.66-26.74-15.33-1.82-1.5-3.61-3.03-5.38-4.55-7.11-6.09-14.22-12.17-21.33-18.26-5.55-4.75-11.5-10.23-12.21-17.5.47.24.9-.39,1.06-.89,3.23-10.43,4.16-21.24,4.43-32.18-3.4.93-6.58,3.12-8.88,5.85-3.78,4.5-5.69,10.22-7.62,15.77-3.11,8.96-6.47,17.84-10.05,26.63-.84,2.08-1.69,4.15-2.56,6.22-.5,1.18-1.04,2.41-2.04,3.21-1.48,1.17-3.82,1.3-4.71,2.96-.64,1.2-.2,2.67.27,3.95,5.84,16.08,13.94,31.33,23.97,45.18.4.55.81,1.1,1.33,1.53,1.44,1.18,3.46,1.22,5.32,1.21,17.12-.09,36.14-.93,48.25-13.03,2.73-2.73,5.29-6.12,9.07-6.88,2.76-.55,5.56.45,8.34.91s6.11.13,7.67-2.22c.43-.64.66-1.31.74-1.99-.21.04-.42.09-.63.12v.02Z"/>
      <path class="st6" d="M491.94,362.43c-.88-5.1-2.06-10.14-3.55-15.1-.24-.79-.49-1.58-.83-2.33-4.21,4.51-8.03,9.38-12.14,13.97-1.46,1.63-2.97,3.23-4.6,4.68-1.56,1.39-3.24,2.64-5.08,3.62-.25.13-.54.26-.84.39v.03c-6.2,16.36-16.98,30.95-30.79,41.67-2.86,2.22-5.97,4.32-9.37,5.45,3.37,5.07,7.95,9.45,12.54,13.52,7.95,7.04,17.47,14.05,28.03,13.01,7.64-.75,14.38-5.8,18.67-12.17,4.29-6.37,6.4-13.94,7.78-21.49,2.72-14.92,2.76-30.32.18-45.26h0Z"/>
      <path class="st3" d="M465.01,363.58c-2.53,1.06-6.98,1.91-12.7,2.02-.22,0-.45.01-.67.01-8.75.07-20.28-1.63-32.3-7-9.13-4.08-34.66-26.27-38.99-31.96-6.08-8-12.82-15.48-18.95-23.45-2.13-2.77-4.19-5.61-5.65-8.78-.88-1.92-1.52-3.92-2.03-5.96-.67,11.15-.27,22.44-.55,33.59-.27,10.93-1.2,21.74-4.43,32.18-.16.51-.59,1.14-1.06.89.71,7.27,6.66,12.75,12.21,17.5,7.11,6.09,14.22,12.17,21.33,18.26,1.77,1.52,3.57,3.05,5.38,4.55,8.08,6.67,16.68,12.81,26.74,15.33,2.71.68,5.53,1.08,8.31.73.21-.03.42-.08.63-.12.87-.15,1.73-.36,2.57-.63,3.4-1.13,6.51-3.23,9.37-5.45,13.81-10.73,24.6-25.32,30.79-41.67v-.03h0Z"/>
      <path class="st3" d="M528.82,182.66c.12-1.57.33-3.15.59-4.72.54-3.26,1.32-6.53,2.1-9.83-1.87.19-3.77.37-5.68.5-7.57.5-15.28.09-21.29-4.26-2.96-2.14-5.24-5.07-7.38-8.03-2.14-2.96-4.24-6.09-5.02-9.66s.01-7.71,2.44-10.12c-3.09,4.6-35.29,7.82-37.69,8.62-2.86.95,13.91,8.38,10.93,7.99-3.29-.43-18.5-.2-17.52-7.23.65-4.7,15.94-17.28,19.48-18.31-4.49-3.66-7.83-8.72-9.42-14.3-6.22,30.46-35.69,23.4-36.15,13.99-.02-.34-.69-.08-.13.47-1.44,2.95-3.1,5.86-5.49,8.11-5.27,4.95-13.11,5.85-20.33,5.74,1.16,2.64.9,5.76-.17,8.44-1.07,2.68-2.77,5.12-4.84,7.14-10.47,10.21-21.44,4.45-21.83,1.16-7.51,11.75-6.98,18.97-10.26,32.53-.62,2.56-1.16,5.17-1.11,7.8.04,2.11.47,4.2.42,6.31-.05,2.44-.73,4.81-1.45,7.14-1.74,5.61-3.74,11.14-6,16.56-1.32,3.15-2.84,6.42-5.64,8.39-1.81,1.27-3.99,1.88-6.12,2.43-5.3,1.38-11.42,2.44-15.84-.79-1.81-1.32-3.38-3.38-5.62-3.42-2.24-.05-4.02,2.11-4.39,4.32-.37,2.21.31,4.44.92,6.6.15.54.29,1.17-.05,1.63-.12.16-.27.26-.45.32,2.39,9.59,5.63,23.05,8.9,25.64,4.52,3.57,10.48,5.33,16.18,4.53.99-.14,2-.37,2.82-.94,1.9-1.33,2.19-3.98,2.3-6.3.72,4.3,1.34,8.52,1.97,12.73.43,2.92.88,5.86,1.59,8.71.51,2.04,1.15,4.05,2.03,5.96,1.46,3.17,3.52,6.02,5.65,8.78,6.13,7.97,12.87,15.45,18.95,23.45,4.33,5.7,29.86,27.89,38.99,31.96,12.03,5.37,23.56,7.06,32.3,7,.23,0,.45,0,.67-.01,5.72-.11,10.17-.96,12.7-2.02.31-.13.6-.26.84-.39,1.84-.98,3.52-2.23,5.08-3.62,1.63-1.45,3.15-3.05,4.6-4.68,4.12-4.6,7.93-9.47,12.14-13.97.65-.69,1.3-1.38,1.97-2.05,3.72-3.75,7.8-7.13,11.42-10.98,7.63-8.08,13.09-18.01,17.14-28.35,3.13-7.97,10.43-42.39,10.42-51.33,0-8.31-.01-16.63-.02-24.94,0-4.5,0-9.04.94-13.44,1.16-5.37,3.68-10.36,4.94-15.7-1.4-5.04-1.95-10.32-1.55-15.54l.02-.02Z"/>
      <g>
        <path class="st7" d="M587.59,174.23c-.79-.13-1.58.17-2.32.47-3.35,1.35-6.7,2.7-10.05,4.05,4.21-2.04,7.84-5.53,9.44-9.93s.95-9.7-2.16-13.21c-1.12,3.26-2.51,6.43-4.15,9.47-2.26,4.2-6.04,8.65-10.77,8-4.34-.6-6.82-5.14-8.61-9.13-.72-1.6-1.46-3.29-1.33-5.04.11-1.53.87-2.94,1.69-4.24,1.17-1.85,2.49-3.6,3.95-5.23,2.05-2.29,4.46-4.5,5.21-7.48.74-2.98-1.32-6.86-4.37-6.51-1.37.16-2.5,1.1-3.5,2.05-1.51,1.45-2.9,3.04-4.14,4.73.88-2.74,1.42-6.13,1.86-9.36.78-5.67,1.54-11.6-.34-17.01-1.98-5.69-6.6-10.01-11.21-13.91-8.26-6.99-17.28-13.55-27.74-16.28-2.78-.72-5.69-1.15-8.58-1.14,6.42-5.24,7.81-13.69,1.12-22.66-2.61-3.87-6.49-7.22-10.9-8.86,1.52-1.94,2.66-4.13,3.12-6.72,1.17-7.58-4.75-13.99-10.56-17.91-4.78-3.2-11-4.72-16.58-2.86-2.76.88-5.32,2.53-7.09,4.87l.71.55c4.56-3.31,10.03-3.19,14.08-1.42,5.12,2.27,11.29,8.24,11.84,13.82-.23,4.69-6.08,7.74-10.27,10.75-1.3-3.25-3.85-5.91-6.93-7.71-1.55-.91-3.26-1.63-4.48-2.95-1.03-1.11-1.65-2.59-2.85-3.5-1.54-1.16-3.63-1.13-5.47-1.71-3.53-1.1-6.29-4.46-9.98-4.58-2.69-.08-5.16,1.68-6.66,3.92-1.5,2.23-2.2,4.89-2.87,7.49-3.87-.6-7.79-.93-11.71-.99-3-2.73-6.82-4.73-10.56-6.66-6.73-3.48-14.54-7.04-21.58-4.26-5.19,2.05-8.51,7.05-11.49,11.77-4.47-3.36-11.12-3.45-15.69-.21s-6.68,9.54-5,14.87c-2.82-2.6-7.72-1.78-10.27,1.09s-3.02,7.12-2.18,10.86c.81,3.56,3.29,7.25,6.93,7.49-3.61.06-6.86,2.43-8.91,5.39s-3.11,6.49-4.14,9.95c-3.05-.46-6.55-1-9.15.8-1.43.99-2.35,2.55-3.13,4.1-4.6,9.1-6.04,19.75-4.04,29.74.35,1.75.66,3.92-.77,4.99-1.21.91-2.91.42-4.43.49-2.68.13-4.95,2.22-6.09,4.64-1.14,2.43-1.37,5.17-1.57,7.85-.23,2.93-.46,5.86-.68,8.8-.07.92-.17,1.9-.74,2.62-.6.77-1.6,1.08-2.5,1.44-4.65,1.86-13.28,1.45-14.17,6.38-.89,4.92,5.98,15.01,9.68,18.39.94.85,2.07,1.76,2.1,3.03.03,1.13-.84,2.15-1.64,3.12,3.62-1.18,8-.67,11.68.72,6.35,2.38,11.79,6.94,15.5,12.62,1.28,1.96,2.36,4.04,3.19,6.22.76,2,1.32,4.08,1.64,6.2h0c.73.47,1.61.62,2.3.1,1.77,2.01,1.13,5.39-.85,7.19s-4.86,2.27-7.52,2.02-5.22-1.13-7.84-1.68c-3.8-.81-8.01-.86-11.29,1.22-3.17,2.01-4.94,5.74-5.38,9.47-.09.73-.12,1.47-.13,2.2-.03,3,.56,6.01,1.24,8.94.16.68.35,1.41.85,1.89.37.35.96.5,1.41.34.17-.06.33-.16.45-.32.33-.45.2-1.08.05-1.63-.61-2.16-1.29-4.39-.92-6.6s2.15-4.37,4.39-4.32c2.24.05,3.81,2.1,5.62,3.42,4.41,3.24,10.54,2.17,15.84.79,2.14-.56,4.32-1.16,6.12-2.43,2.79-1.97,4.32-5.24,5.64-8.39,2.26-5.42,4.27-10.95,6-16.56.72-2.33,1.4-4.7,1.45-7.14.05-2.11-.38-4.2-.42-6.31-.05-2.63.49-5.24,1.11-7.8,3.28-13.55,2.75-20.77,10.26-32.53.39,3.29,11.36,9.05,21.83-1.16,2.07-2.02,3.76-4.45,4.84-7.14,1.07-2.68,1.33-5.79.17-8.44,7.22.11,15.06-.79,20.33-5.74,2.39-2.25,4.05-5.16,5.49-8.11-.56-.55.11-.81.13-.47.46,9.41,29.92,16.47,36.15-13.99,1.59,5.57,4.92,10.63,9.42,14.3-3.53,1.03-18.83,13.61-19.48,18.31-.97,7.02,14.23,6.8,17.52,7.23,2.98.39-13.79-7.04-10.93-7.99,2.4-.8,34.6-4.02,37.69-8.62-2.43,2.41-3.22,6.55-2.44,10.12.78,3.57,2.88,6.7,5.02,9.66,2.14,2.96,4.42,5.89,7.38,8.03,6.02,4.34,13.72,4.76,21.29,4.26,1.91-.13,3.82-.31,5.68-.5-.78,3.3-1.56,6.56-2.1,9.83-.26,1.57-.47,3.14-.59,4.72-.4,5.22.15,10.5,1.55,15.54.49,1.77,1.1,3.51,1.8,5.2-1.78,4.64-3,9.49-3.6,14.44-1.23,9.34.12,14.33,8.35,19.51.07.04.13.09.2.13.04,9.9-2.56,19.83-7.73,28.28-1.31,2.16-2.94,4.26-4.34,6.4-2.63,3.67-3.72,9.61.15,12.91,2.35,2.05,6.02,1.38,8.24-.28,2.99-1.97,4.63-5.28,7.18-7.55,3.82-3.78,9.39-1.57,11.67,2.72,2.57,4.4.65,9.75-2.43,13.46-2.13,2.61-4.86,4.63-7.75,6.37-2.91,1.77-6.01,3.3-8.97,5.13-1.42,1.08-3.85,1.85-3.88,3.97.99,5.61,7.99,8.67,13.04,6.57l-.34-.83c-3.41.45-7.23-1.46-8.5-4.62,3.88-1.76,7.52-3.02,11.81-4.95,5.42-2.37,11.33-6.91,14.17-12.84,4.52-8.6,1.13-19.67-7.76-24.06-4.56-2.46-10.47-1.87-14.81.83,2.26-4.37,3.9-9.08,4.89-13.94,4.35,3.7,10.53,4.7,16.04,3.42,13.34-3.38,25.23-17.95,21.5-32.05-.9-3.56-3.14-6.42-5.97-8.09,3.38.91,7.06.6,8.8-2.24.37-.62.62-1.36.43-2.06-.28-.99-1.31-1.53-2.27-1.91-3.08-1.22-6.37-1.92-9.68-2.05-4.31-.17-9.53.2-11.95-3.38-1.52-2.25-1.19-5.35.12-7.72,1.32-2.37,3.46-4.15,5.6-5.82,5.25-4.1,10.76-7.88,16.61-11.06,1.62-.88,3.36-1.81,4.21-3.44s.2-4.15-1.61-4.45l.06.02ZM508.71,71.97c1.72,3.8-.15,7.33-3.24,10.22-1.15,1.05-2.5,1.94-3.95,2.73,2.22-3.52,2.99-7.95,1.98-11.99-1.26-5.04-4.83-8.85-9.09-12.01,6.03-1,12.05,6.16,14.3,11.05ZM494.55,58.8c-.27.33-.71.86-1.15,1.38-.12-.08-.24-.17-.36-.25.5-.38,1.01-.75,1.51-1.13h0ZM486.7,54.6c-.12.27-.21.53-.31.8-.06-.22-.13-.45-.2-.66l.51-.14ZM535.37,278.94s.02-.06.03-.1c.03.05.06.11.07.16.05.29-.08-.06-.1-.06h0ZM537.26,309.43c-.05-.18-.1-.35-.13-.53-.03-.21.06-.31.14-.04.03.12.04.34-.01.58h0ZM542.15,188.57c1.19,4.46,6.87,7.07,11.03,5.07-3.65,3.36-7.29,6.72-10.94,10.08-1.77,1.64-3.58,3.33-4.87,5.34.14-2.69.39-5.37.74-8.04l-.74-.32c.24-6.09,1.41-12.15,3.49-17.88.97,1.72.78,3.84,1.29,5.74h0ZM538.54,225.73c-.36-.83-.58-1.96-.77-3.25-.06-.51-.11-1.02-.16-1.54.18-.4.35-.8.52-1.2.94,2.69,1.67,5.45,2.17,8.26-.7-.62-1.31-1.34-1.76-2.27ZM572.61,241.5c-2.97,4.79-7.37,9.14-12.78,10.98-4.4,1.52-9.91.88-13.28-2.38.34-3.1.43-6.23.24-9.34.73.29,1.48.53,2.28.68,4.74.87,9.4-1.82,12.56-5.06,3.18-3.16,5.36-7,8.54-10.02,2.28-1.99,4.43.81,4.87,3.07,1.04,4.14-.26,8.45-2.42,12.07h0ZM574.05,217.04h0c-3.09-.71-6.49-.1-9.48,2.34-4.46,3.63-7.19,9.49-11.22,12.62-.99.68-1.87,1.19-2.81,1.32-1.33.06-3.82-1.46-5.27-2.21-1.26-4.87-3.28-9.52-6.07-13.74,3.36-6.86,8.85-12.66,15.53-16.36,2.51,3.28,4.56,6.87,6.61,10.46,4.95.23,8.79,3.42,12.71,5.58h0Z"/>
        <path class="st7" d="M310.6,268.73c-.76-.21-1.27-.34-1.4-.31-.15.01.07.31.13.7-.06.94-.59-.1-.54-.68.67-5.92,7.48-8.86,12.39-11.26l-.05-.9c-6.09.18-13.07,1.62-16.99,6.86-2.75,3.33-3.56,9.39.67,11.94,3.62,2.16,7.77,2.52,10.7,5.49,4.65,4.3,1.43,11.32-3.03,14.45-3.11,2.34-7.09,3.56-10.99,3.24-4.63-.19-13.06-4.45-12.57-9.81.26-1.85,1.46-3.54,2.68-5.15l-.71-.56c-3.36,1.67-6.61,5.54-5.2,10.04,2.18,6.72,8.1,11.17,15.19,12.64,10.45,2.02,22.09-4.41,25.18-14.82,3.33-11.26-5-19.69-15.45-21.88h-.01Z"/>
      </g>
    </g>
    <path class="st1" d="M493.11,297.43c-.57-1.04-1.87-1.51-3.05-1.44s-2.3.56-3.4,1.01c-5.87,2.39-12.25,3.67-18.57,3.23-6.2-.43-12.15-2.47-18.25-3.67-2.49-.49-5.02-.84-7.46-1.54-2.09-.6-4.1-1.44-6.13-2.22-4.85-1.87-9.82-3.4-14.79-4.92-1.75-.54-3.73-1.05-5.33-.15"/>
    <path class="st1" d="M473.51,270.23c-6.2-3.16-13.4-4.33-20.29-3.3-1.96.3-4.18.71-5.77-.48"/>
    <path class="st1" d="M475.5,273.32c2.95.49,6.11.95,8.81-.32,2.08-.98,3.78-2.95,6.07-3.1"/>
    <path class="st1" d="M489.4,271.32c3.86.21,7.77-1.66,10.03-4.79.41-.56.77-1.17.94-1.84.42-1.6-.24-3.26-.89-4.78-1.55-3.63-3.11-7.26-4.85-10.93-6.31-10.54-2.99-24.36-7.4-35.83"/>
    <path class="st1" d="M446.42,261.21c-.36-1.87-.69-3.82-.23-5.67.54-2.15,2.11-3.93,3.95-5.17s3.95-2,6.05-2.73c-.26-.04-.52-.08-.78-.12"/>
    <g>
      <path class="st1" d="M349.32,213.98c-.69.51-1.57.37-2.3-.1h0c-.33-2.12-.88-4.2-1.64-6.2-.83-2.18-1.91-4.26-3.19-6.22-3.71-5.67-9.15-10.23-15.5-12.62-3.68-1.38-8.06-1.9-11.68-.72-1.68.55-3.2,1.46-4.41,2.83-3.22,3.65-1.35,29.74,2.09,36.76,1.11,2.27,2.49,4.42,3.63,6.67,0-.73.04-1.47.13-2.2.45-3.73,2.22-7.46,5.38-9.47,3.28-2.08,7.49-2.03,11.29-1.22,2.62.56,5.17,1.43,7.84,1.68,2.66.25,5.55-.22,7.52-2.02,1.98-1.8,2.61-5.18.85-7.19v.02Z"/>
      <path class="st1" d="M695.6,466.23c-.39-3.47-.54-7.05-1.96-10.24-1.61-3.63-4.69-6.35-7.68-8.96-10.28-8.96-20.55-17.92-30.83-26.89-14.89-12.98-29.85-26.02-46.47-36.69-15.78-10.13-34.41-18.27-52.85-14.84-7.38,1.37-14.83,4.57-22.12,2.8-7.3-1.77-12.58-8.11-19.42-11.23-7.02-3.19-14.84-2.66-22.34-.38,2.58,14.94,2.54,30.34-.18,45.26-1.38,7.55-3.49,15.13-7.78,21.49-4.29,6.37-11.03,11.42-18.67,12.17-10.56,1.04-20.09-5.97-28.03-13.01-4.6-4.07-9.17-8.45-12.54-13.52-.84.28-1.69.49-2.57.63-.08.68-.31,1.35-.74,1.99-1.56,2.34-4.89,2.67-7.67,2.22-2.78-.46-5.58-1.46-8.34-.91-3.79.76-6.34,4.15-9.07,6.88-12.11,12.1-31.13,12.94-48.25,13.03-1.86,0-3.88-.04-5.32-1.21-.53-.43-.93-.98-1.33-1.53-10.04-13.85-18.13-29.1-23.97-45.18-.47-1.28-.91-2.75-.27-3.95.89-1.66,3.23-1.79,4.71-2.96,1-.8,1.54-2.03,2.04-3.21.87-2.06,1.72-4.14,2.56-6.22-28.98,13.01-56.29,29.55-83.48,46.04-17.74,10.75-35.47,21.51-53.21,32.26-4.21,2.55-8.47,5.15-11.89,8.69-8.82,9.16-10.51,22.84-11.73,35.5.62-.76,15.22.8,15.22.8l523.39-1.61c-4.95-8.29-8.11-17.64-9.19-27.24l-.02.02Z"/>
      <path class="st1" d="M421.51,412.96c-2.77.35-5.59-.05-8.31-.73-10.07-2.52-18.67-8.66-26.74-15.33-1.82-1.5-3.61-3.03-5.38-4.55-7.11-6.09-14.22-12.17-21.33-18.26-5.55-4.75-11.5-10.23-12.21-17.5.47.24.9-.39,1.06-.89,3.23-10.43,4.16-21.24,4.43-32.18-3.4.93-6.58,3.12-8.88,5.85-3.78,4.5-5.69,10.22-7.62,15.77-3.11,8.96-6.47,17.84-10.05,26.63-.84,2.08-1.69,4.15-2.56,6.22-.5,1.18-1.04,2.41-2.04,3.21-1.48,1.17-3.82,1.3-4.71,2.96-.64,1.2-.2,2.67.27,3.95,5.84,16.08,13.94,31.33,23.97,45.18.4.55.81,1.1,1.33,1.53,1.44,1.18,3.46,1.22,5.32,1.21,17.12-.09,36.14-.93,48.25-13.03,2.73-2.73,5.29-6.12,9.07-6.88,2.76-.55,5.56.45,8.34.91s6.11.13,7.67-2.22c.43-.64.66-1.31.74-1.99-.21.04-.42.09-.63.12v.02Z"/>
      <path class="st1" d="M491.92,359.82c-.88-5.1-2.06-10.14-3.55-15.1-.24-.79-.49-1.58-.83-2.33-4.21,4.51-8.03,9.38-12.14,13.97-1.46,1.63-2.97,3.23-4.6,4.68-1.56,1.39-3.24,2.64-5.08,3.62-.25.13-.54.26-.84.39v.03c-6.2,16.36-16.98,30.95-30.79,41.67-2.86,2.22-5.97,4.32-9.37,5.45,3.37,5.07,7.95,9.45,12.54,13.52,7.95,7.04,17.47,14.05,28.03,13.01,7.64-.75,14.38-5.8,18.67-12.17,4.29-6.37,6.4-13.94,7.78-21.49,2.72-14.92,2.76-30.32.18-45.26h0Z"/>
      <path class="st1" d="M464.88,365.05c-2.53,1.06-6.98,1.91-12.7,2.02-.22,0-.45.01-.67.01-8.75.07-20.28-1.63-32.3-7-9.13-4.08-34.66-26.27-38.99-31.96-6.08-8-12.82-15.48-18.95-23.45-2.13-2.77-4.19-5.61-5.65-8.78-.88-1.92-1.52-3.92-2.03-5.96-.67,11.15-.27,22.44-.55,33.59-.27,10.93-1.2,21.74-4.43,32.18-.16.51-.59,1.14-1.06.89.71,7.27,6.66,12.75,12.21,17.5,7.11,6.09,14.22,12.17,21.33,18.26,1.77,1.52,3.57,3.05,5.38,4.55,8.08,6.67,16.68,12.81,26.74,15.33,2.71.68,5.53,1.08,8.31.73.21-.03.42-.08.63-.12.87-.15,1.73-.36,2.57-.63,3.4-1.13,6.51-3.23,9.37-5.45,13.81-10.73,24.6-25.32,30.79-41.67v-.03h0Z"/>
      <path class="st1" d="M532.81,180.04c.12-1.57.33-3.15.59-4.72.54-3.26,1.32-6.53,2.1-9.83-1.87.19-3.77.37-5.68.5-7.57.5-15.28.09-21.29-4.26-2.96-2.14-5.24-5.07-7.38-8.03-2.14-2.96-4.24-6.09-5.02-9.66s.01-7.71,2.44-10.12c-3.09,4.6-35.29,7.82-37.69,8.62-2.86.95,13.91,8.38,10.93,7.99-3.29-.43-18.5-.2-17.52-7.23.65-4.7,15.94-17.28,19.48-18.31-4.49-3.66-7.83-8.72-9.42-14.3-6.22,30.46-35.69,23.4-36.15,13.99-.02-.34-.69-.08-.13.47-1.44,2.95-3.1,5.86-5.49,8.11-5.27,4.95-13.11,5.85-20.33,5.74,1.16,2.64.9,5.76-.17,8.44-1.07,2.68-2.77,5.12-4.84,7.14-10.47,10.21-21.44,4.45-21.83,1.16-7.51,11.75-6.98,18.97-10.26,32.53-.62,2.56-1.16,5.17-1.11,7.8.04,2.11.47,4.2.42,6.31-.05,2.44-.73,4.81-1.45,7.14-1.74,5.61-3.74,11.14-6,16.56-1.32,3.15-2.84,6.42-5.64,8.39-1.81,1.27-3.99,1.88-6.12,2.43-5.3,1.38-11.42,2.44-15.84-.79-1.81-1.32-3.38-3.38-5.62-3.42-2.24-.05-4.02,2.11-4.39,4.32-.37,2.21.31,4.44.92,6.6.15.54.29,1.17-.05,1.63-.12.16-.27.26-.45.32,2.39,9.59,5.63,23.05,8.9,25.64,4.52,3.57,10.48,5.33,16.18,4.53.99-.14,2-.37,2.82-.94,1.9-1.33,2.19-3.98,2.3-6.3.72,4.3,1.34,8.52,1.97,12.73.43,2.92.88,5.86,1.59,8.71.51,2.04,1.15,4.05,2.03,5.96,1.46,3.17,3.52,6.02,5.65,8.78,6.13,7.97,12.87,15.45,18.95,23.45,4.33,5.7,29.86,27.89,38.99,31.96,12.03,5.37,23.56,7.06,32.3,7,.23,0,.45,0,.67-.01,5.72-.11,10.17-.96,12.7-2.02.31-.13.6-.26.84-.39,1.84-.98,3.52-2.23,5.08-3.62,1.63-1.45,3.15-3.05,4.6-4.68,4.12-4.6,7.93-9.47,12.14-13.97.65-.69,1.3-1.38,1.97-2.05,3.72-3.75,7.8-7.13,11.42-10.98,7.63-8.08,13.09-18.01,17.14-28.35,3.13-7.97,10.43-42.39,10.42-51.33,0-8.31-.01-16.63-.02-24.94,0-4.5,0-9.04.94-13.44,1.16-5.37,3.68-10.36,4.94-15.7-1.4-5.04-1.95-10.32-1.55-15.54l.02-.02Z"/>
      <g>
        <path class="st1" d="M587.58,171.61c-.79-.13-1.58.17-2.32.47-3.35,1.35-6.7,2.7-10.05,4.05,4.21-2.04,7.84-5.53,9.44-9.93s.95-9.7-2.16-13.21c-1.12,3.26-2.51,6.43-4.15,9.47-2.26,4.2-6.04,8.65-10.77,8-4.34-.6-6.82-5.14-8.61-9.13-.72-1.6-1.46-3.29-1.33-5.04.11-1.53.87-2.94,1.69-4.24,1.17-1.85,2.49-3.6,3.95-5.23,2.05-2.29,4.46-4.5,5.21-7.48.74-2.98-1.32-6.86-4.37-6.51-1.37.16-2.5,1.1-3.5,2.05-1.51,1.45-2.9,3.04-4.14,4.73.88-2.74,1.42-6.13,1.86-9.36.78-5.67,1.54-11.6-.34-17.01-1.98-5.69-6.6-10.01-11.21-13.91-8.26-6.99-17.28-13.55-27.74-16.28-3.46-.9-7.12-1.33-10.67-1.04,8.26-5,10.77-14.3,3.35-24.23-2.61-3.87-6.49-7.22-10.9-8.86,1.52-1.94,2.66-4.13,3.12-6.72,1.17-7.58-4.75-13.99-10.56-17.91-4.78-3.2-11-4.72-16.58-2.86-2.76.88-5.32,2.53-7.09,4.87l.71.55c4.56-3.31,10.03-3.19,14.08-1.42,5.12,2.27,11.29,8.24,11.84,13.82-.24,4.91-6.65,8.03-10.86,11.19-1.4-2.78-3.73-5.06-6.48-6.67-1.55-.91-3.26-1.63-4.48-2.95-1.03-1.11-1.65-2.59-2.85-3.5-1.54-1.16-3.63-1.13-5.47-1.71-3.53-1.1-6.29-4.46-9.98-4.58-2.69-.08-5.16,1.68-6.66,3.92-1.5,2.23-2.2,4.89-2.87,7.49-3.87-.6-7.79-.93-11.71-.99-3-2.73-6.82-4.73-10.56-6.66-6.73-3.48-14.54-7.04-21.58-4.26-5.19,2.05-8.51,7.05-11.49,11.77-4.47-3.36-11.12-3.45-15.69-.21s-6.68,9.54-5,14.87c-2.82-2.6-7.72-1.78-10.27,1.09s-3.02,7.12-2.18,10.86c.81,3.56,3.29,7.25,6.93,7.49-3.61.06-6.86,2.43-8.91,5.39s-3.11,6.49-4.14,9.95c-3.05-.46-6.55-1-9.15.8-1.43.99-2.35,2.55-3.13,4.1-4.6,9.1-6.04,19.75-4.04,29.74.35,1.75.66,3.92-.77,4.99-1.21.91-2.91.42-4.43.49-2.68.13-4.95,2.22-6.09,4.64-1.14,2.43-1.37,5.17-1.57,7.85-.23,2.93-.46,5.86-.68,8.8-.07.92-.17,1.9-.74,2.62-.6.77-1.6,1.08-2.5,1.44-4.65,1.86-13.28,1.45-14.17,6.38-.89,4.92,5.98,15.01,9.68,18.39.94.85,2.07,1.76,2.1,3.03.03,1.13-.84,2.15-1.64,3.12,3.62-1.18,8-.67,11.68.72,6.35,2.38,11.79,6.94,15.5,12.62,1.28,1.96,2.36,4.04,3.19,6.22.76,2,1.32,4.08,1.64,6.2h0c.73.47,1.61.62,2.3.1,1.77,2.01,1.13,5.39-.85,7.19s-4.86,2.27-7.52,2.02-5.22-1.13-7.84-1.68c-3.8-.81-8.01-.86-11.29,1.22-3.17,2.01-4.94,5.74-5.38,9.47-.09.73-.12,1.47-.13,2.2-.03,3,.56,6.01,1.24,8.94.16.68.35,1.41.85,1.89.37.35.96.5,1.41.34.17-.06.33-.16.45-.32.33-.45.2-1.08.05-1.63-.61-2.16-1.29-4.39-.92-6.6s2.15-4.37,4.39-4.32c2.24.05,3.81,2.1,5.62,3.42,4.41,3.24,10.54,2.17,15.84.79,2.14-.56,4.32-1.16,6.12-2.43,2.79-1.97,4.32-5.24,5.64-8.39,2.26-5.42,4.27-10.95,6-16.56.72-2.33,1.4-4.7,1.45-7.14.05-2.11-.38-4.2-.42-6.31-.05-2.63.49-5.24,1.11-7.8,3.28-13.55,2.75-20.77,10.26-32.53.39,3.29,11.36,9.05,21.83-1.16,2.07-2.02,3.76-4.45,4.84-7.14,1.07-2.68,1.33-5.79.17-8.44,7.22.11,15.06-.79,20.33-5.74,2.39-2.25,4.05-5.16,5.49-8.11-.56-.55.11-.81.13-.47.46,9.41,29.92,16.47,36.15-13.99,1.59,5.57,4.92,10.63,9.42,14.3-3.53,1.03-18.83,13.61-19.48,18.31-.97,7.02,14.23,6.8,17.52,7.23,2.98.39-13.79-7.04-10.93-7.99,2.4-.8,34.6-4.02,37.69-8.62-2.43,2.41-3.22,6.55-2.44,10.12.78,3.57,2.88,6.7,5.02,9.66,2.14,2.96,4.42,5.89,7.38,8.03,6.02,4.34,13.72,4.76,21.29,4.26,1.91-.13,3.82-.31,5.68-.5-.78,3.3-1.56,6.56-2.1,9.83-.26,1.57-.47,3.14-.59,4.72-.4,5.22.15,10.5,1.55,15.54.44,1.59.97,3.14,1.58,4.67-1.59,4.35-2.69,8.89-3.24,13.5-.49,3.74-.56,6.77.05,9.41-.11.17-.2.33-.32.49.14-.02.28-.05.42-.09.99,3.75,3.44,6.7,8.2,9.7.07.04.13.09.2.13.04,9.9-2.56,19.83-7.73,28.28-1.31,2.16-2.94,4.26-4.34,6.4-2.63,3.67-3.72,9.61.15,12.91,2.35,2.05,6.02,1.38,8.24-.28,2.99-1.97,4.63-5.28,7.18-7.55,3.82-3.78,9.39-1.57,11.67,2.72,2.57,4.4.65,9.75-2.43,13.46-2.13,2.61-4.86,4.63-7.75,6.37-2.91,1.77-6.01,3.3-8.97,5.13-1.42,1.08-3.85,1.85-3.88,3.97.99,5.61,7.99,8.67,13.04,6.57l-.34-.83c-3.41.45-7.23-1.46-8.5-4.62,3.88-1.76,7.52-3.02,11.81-4.95,5.42-2.37,11.33-6.91,14.17-12.84,4.52-8.6,1.13-19.67-7.76-24.06-4.56-2.46-10.47-1.87-14.81.83,2.26-4.37,3.9-9.08,4.89-13.94,4.35,3.7,10.53,4.7,16.04,3.42,13.34-3.38,25.23-17.95,21.5-32.05-.62-2.44-1.87-4.56-3.51-6.18,2.53.15,4.91-.56,6.2-2.68.37-.62.62-1.36.43-2.06-.28-.99-1.31-1.53-2.27-1.91-3.08-1.22-6.37-1.92-9.68-2.05-4.31-.17-9.53.2-11.95-3.38-1.52-2.25-1.19-5.35.12-7.72,1.32-2.37,3.46-4.15,5.6-5.82,5.25-4.1,10.76-7.88,16.61-11.06,1.62-.88,3.36-1.81,4.21-3.44s.2-4.15-1.61-4.45h.06ZM508.84,67.88c1.72,3.8-.15,7.33-3.24,10.22-.9.83-1.93,1.55-3.02,2.21,1.38-3.12,1.75-6.69.92-10-1.4-5.59-5.65-9.68-10.52-13.03,6.52-2.72,13.43,5.28,15.87,10.6h-.01ZM494.67,54.71c-.46.55-1.42,1.71-1.98,2.38-.21-.14-.42-.28-.63-.42.86-.64,1.74-1.29,2.6-1.95h.01ZM486.83,50.51c-.25.58-.45,1.16-.61,1.75-.16-.49-.35-.97-.56-1.43l1.17-.32h0ZM535.49,274.85s.02-.06.03-.1c.03.05.06.11.07.16.05.29-.08-.06-.1-.06h0ZM537.39,305.34c-.05-.18-.1-.35-.13-.53-.03-.21.06-.31.14-.04.03.12.04.34-.01.58h0ZM542.14,185.95c1.19,4.46,6.87,7.07,11.03,5.07-3.65,3.36-7.29,6.72-10.94,10.08-1.74,1.6-3.51,3.26-4.79,5.23.12-3.14,1.51-20.85,3.41-26.12.97,1.72.78,3.84,1.29,5.74h0ZM538.66,221.64c-.36-.83-.58-1.96-.77-3.25-.02-.2-.04-.4-.06-.6.17-.39.34-.79.5-1.17.05-.11.1-.22.15-.33.83,2.49,1.49,5.03,1.95,7.62-.7-.62-1.31-1.34-1.76-2.27h-.01ZM572.74,237.41c-2.97,4.79-7.37,9.14-12.78,10.98-4.4,1.52-9.91.88-13.28-2.38.34-3.1.43-6.23.24-9.34.73.29,1.48.53,2.28.68,4.74.87,9.4-1.82,12.56-5.06,3.18-3.16,5.36-7,8.54-10.02,2.28-1.99,4.43.81,4.87,3.07,1.04,4.14-.26,8.45-2.42,12.07h0ZM571.12,212.69c-2.18.13-4.4.95-6.43,2.6-4.46,3.63-7.19,9.49-11.22,12.62-.99.68-1.87,1.19-2.81,1.32-1.33.06-3.82-1.46-5.27-2.21-1.21-4.67-3.12-9.14-5.73-13.22,3.39-6.44,8.68-11.88,15.06-15.41,2.51,3.28,4.56,6.87,6.61,10.46,3.72.17,6.82,2.02,9.79,3.84Z"/>
        <path class="st1" d="M310.72,264.64c-.76-.21-1.27-.34-1.4-.31-.15.01.07.31.13.7-.06.94-.59-.1-.54-.68.67-5.92,7.48-8.86,12.39-11.26l-.05-.9c-6.09.18-13.07,1.62-16.99,6.86-2.75,3.33-3.56,9.39.67,11.94,3.62,2.16,7.77,2.52,10.7,5.49,4.65,4.3,1.43,11.32-3.03,14.45-3.11,2.34-7.09,3.56-10.99,3.24-4.63-.19-13.06-4.45-12.57-9.81.26-1.85,1.46-3.54,2.68-5.15l-.71-.56c-3.36,1.67-6.61,5.54-5.2,10.04,2.18,6.72,8.1,11.17,15.19,12.64,10.45,2.02,22.09-4.41,25.18-14.82,3.33-11.26-5-19.69-15.45-21.88h-.01Z"/>
      </g>
    </g>
    <path class="st5" d="M551.55,219.95c1.68-.49,8.68.11,9.78,1.47s.28,3.27-.68,4.74c-.84,1.29-8.6.68-9.05.25-.86-.84-.84-2.24-.52-3.4s.9-2.27.46-3.05h0Z"/>
    <path class="st5" d="M527.7,225.12c8.02-.68,16.03-1.36,23.95-1.8l.18,2.07c-8.32.88-16.63,1.77-24.95,2.65.12-1.16.42-2.31.82-2.93h0Z"/>
    <path class="st1" d="M501.35,300.59c.96-3.04,1.2-6.3.7-9.45"/>
    <path class="st1" d="M336.68,238.9s6.45,3.67,3.87,8.6-3.56,2.89-10.91-3.56"/>
    <circle class="st4" cx="428.55" cy="205.13" r="7.06"/>
    <circle class="st4" cx="509.36" cy="219.78" r="6.64"/>
    <path class="st1" d="M339.81,221.27s-3.87-27.51-14.75-28.69-12.17,7.45-12.35,11.71"/>
    <path class="st1" d="M551.55,219.95c1.68-.49,8.68.11,9.78,1.47s.28,3.27-.68,4.74c-.84,1.29-8.6.68-9.05.25-.86-.84-.84-2.24-.52-3.4s.9-2.27.46-3.05h0Z"/>
    <path class="st1" d="M527.7,225.12c8.02-.68,16.03-1.36,23.95-1.8l.18,2.07c-8.32.88-16.63,1.77-24.95,2.65.12-1.16.42-2.31.82-2.93h0Z"/>
    <g>
      <path class="st5" d="M496.87,205.23c-2.12-3.24-5.84-5.17-9.64-5.89-3.8-.71-7.72-.34-11.55.23-3.56.53-7.09,1.23-10.58,2.07.33,1.09.61,2.19.81,3.3.06,0,.11,0,.17-.03,6.93-2.79,14.7-3.45,22.01-1.88,1.47.32,2.96.74,4.17,1.63,1.5,1.1,2.42,2.79,3.26,4.95.61-.88,1.35-1.78,2.19-2.67-.19-.61-.48-1.19-.83-1.73v.02Z"/>
      <path class="st5" d="M382.7,192.58h-25.79s-4.21,1.74-4.23,2.55c8.25.99,22.58.31,29.76-.13,2.68-.16,4.38-.3,4.38-.3v-2.13h-4.12Z"/>
      <path class="st5" d="M465.91,204.95c-.21-1.11-.48-2.21-.81-3.3-.95-3.11-2.4-6.08-4.25-8.74-7.15-10.29-37.46-20.32-53.14-8.29-2.42,1.86-4.36,4.1-5.86,6.61-.19-.03-.37-.06-.56-.07-5.18-.48-10.4-.6-15.6-.38-.56.02-1.14.06-1.65.29-.63.29-1.09.86-1.35,1.52h4.12v2.13s-1.69.13-4.38.3c.04.39.09.78.14,1.16.04.26.09.54.3.71.18.15.43.16.66.16,5.21.13,10.42.24,15.63.36-3.16,10.56-.7,23.52,5.08,32.89,3.58,5.79,10.1,9.52,15.5,11.63,3.88,1.52,9.03,2.94,18.18,1.28,15.4-2.79,25.46-21.05,26.92-24.85,1.64-4.27,1.89-8.9,1.06-13.39v-.02ZM452.8,231.66c-7.84,8.16-20.26,11.97-31.07,8.62-7.78-2.41-14.31-8.3-17.92-15.59-3.61-7.3-4.35-15.88-2.5-23.81.28-1.18.54-2.43.86-3.66.24-.92.51-1.82.85-2.68.68-1.74,1.61-3.31,3.08-4.41,15.31-11.51,29.76-7.71,36.1-5.98,8.88,2.43,18.32,9.95,19.58,17.44.05.29.08.58.12.88.26,1.77.4,3.52.41,5.25.06,8.91-3.12,17.28-9.51,23.93h0Z"/>
      <path class="st5" d="M552.81,222.21c-.33-4.34-1.29-8.76-3.76-12.33-1.63-2.36-3.85-4.25-6.24-5.82-1.01-.66-2.04-1.29-3.08-1.88,6.75,6,9.56,15.46,9.76,19.81.39,8.42.3,23.66-18.48,31.43-4.72,1.95-13.07,2.83-17.95,1.31-5.2-1.62-9.55-5.45-12.42-10.08-2.87-4.63-4.35-10.01-4.98-15.42-.59-5.08-2.74-19.13,13.55-27.69,4.69-2.46,8.89-3.85,12.64-4.4-2.53-.03-5.18.2-7.99.75-6.63,1.3-12.44,5.12-16.16,9.08-.84.89-1.58,1.79-2.19,2.67-.52.75-.97,1.49-1.31,2.2-2.84,5.96-2.5,14.36-1.05,20.79,7.21,32.07,32.58,25.87,36.83,24.7,7.77-2.14,14.3-6.26,18.21-12.88,3.9-6.62,5.19-14.57,4.61-22.23h.01Z"/>
      <path class="st5" d="M539.73,202.17s-4.13-5.06-17.86-5.04"/>
    </g>
    <g>
      <path class="st1" d="M495.87,205.23c-2.12-3.24-5.84-5.17-9.64-5.89-3.8-.71-7.72-.34-11.55.23-3.56.53-7.09,1.23-10.58,2.07.33,1.09.61,2.19.81,3.3.06,0,.11,0,.17-.03,6.93-2.79,14.7-3.45,22.01-1.88,1.47.32,2.96.74,4.17,1.63,1.5,1.1,2.42,2.79,3.26,4.95.61-.88,1.35-1.78,2.19-2.67-.19-.61-.48-1.19-.83-1.73v.02Z"/>
      <path class="st1" d="M381.7,192.58h-25.79s-4.21,1.74-4.23,2.55c8.25.99,22.58.31,29.76-.13,2.68-.16,4.38-.3,4.38-.3v-2.13h-4.12Z"/>
      <path class="st1" d="M464.91,204.95c-.21-1.11-.48-2.21-.81-3.3-.95-3.11-2.4-6.08-4.25-8.74-7.15-10.29-37.46-20.32-53.14-8.29-2.42,1.86-4.36,4.1-5.86,6.61-.19-.03-.37-.06-.56-.07-5.18-.48-10.4-.6-15.6-.38-.56.02-1.14.06-1.65.29-.63.29-1.09.86-1.35,1.52h4.12v2.13s-1.69.13-4.38.3c.04.39.09.78.14,1.16.04.26.09.54.3.71.18.15.43.16.66.16,5.21.13,10.42.24,15.63.36-3.16,10.56-.7,23.52,5.08,32.89,3.58,5.79,10.1,9.52,15.5,11.63,3.88,1.52,9.03,2.94,18.18,1.28,15.4-2.79,25.46-21.05,26.92-24.85,1.64-4.27,1.89-8.9,1.06-13.39v-.02ZM451.8,231.66c-7.84,8.16-20.26,11.97-31.07,8.62-7.78-2.41-14.31-8.3-17.92-15.59-3.61-7.3-4.35-15.88-2.5-23.81.28-1.18.54-2.43.86-3.66.24-.92.51-1.82.85-2.68.68-1.74,1.61-3.31,3.08-4.41,15.31-11.51,29.76-7.71,36.1-5.98,8.88,2.43,18.32,9.95,19.58,17.44.05.29.08.58.12.88.26,1.77.4,3.52.41,5.25.06,8.91-3.12,17.28-9.51,23.93h0Z"/>
      <path class="st1" d="M551.81,222.21c-.33-4.34-1.29-8.76-3.76-12.33-1.63-2.36-3.85-4.25-6.24-5.82-1.01-.66-2.04-1.29-3.08-1.88,6.75,6,9.56,15.46,9.76,19.81.39,8.42.3,23.66-18.48,31.43-4.72,1.95-13.07,2.83-17.95,1.31-5.2-1.62-9.55-5.45-12.42-10.08-2.87-4.63-4.35-10.01-4.98-15.42-.59-5.08-2.74-19.13,13.55-27.69,4.69-2.46,8.89-3.85,12.64-4.4-2.53-.03-5.18.2-7.99.75-6.63,1.3-12.44,5.12-16.16,9.08-.84.89-1.58,1.79-2.19,2.67-.52.75-.97,1.49-1.31,2.2-2.84,5.96-2.5,14.36-1.05,20.79,7.21,32.07,32.58,25.87,36.83,24.7,7.77-2.14,14.3-6.26,18.21-12.88,3.9-6.62,5.19-14.57,4.61-22.23h.01Z"/>
      <path class="st1" d="M538.73,202.17s-4.13-5.06-17.86-5.04"/>
    </g>
    <path class="st1" d="M498.56,133.93s44.75-22.99-5.19-43.76"/>
    <path class="st1" d="M475.5,70.91c10.44,21.75-34.41,25.4-48.06,26.53-7.23.6-16.23.8-23.18-1.45-6.36-2.05,24.52,6.72,23.91,15.28-.86,11.99-20.35,13.43-28.83,14.21"/>
    <path class="st1" d="M364.1,125.48s-33.89,24.35-16.43,43.57-12.27,18.41-12.27,18.41"/>
    <path class="st1" d="M522.51,101.6c5.04,0,47.12,21.04,16.57,40.59"/>
    <path class="st1" d="M522.51,121.89s-28.7,36.86,36.46,39.44"/>
    <path class="st1" d="M394.2,273.82s-7.67,11.95-3.07,22.05"/>
  </g>
</svg>