<?xml version="1.0" encoding="UTF-8"?>
<svg id="Layer_1" data-name="Layer 1" xmlns="http://www.w3.org/2000/svg" viewBox="0 0 841.89 467.72">
  <defs>
    <style>
      .cls-1, .cls-2 {
        fill: none;
      }

      .cls-3 {
        fill: #bd9b7d;
      }

      .cls-3, .cls-4, .cls-5, .cls-6 {
        opacity: .98;
      }

      .cls-4 {
        fill: #bf6e76;
      }

      .cls-5, .cls-7 {
        fill: #fff;
      }

      .cls-8 {
        fill: #fbe8be;
      }

      .cls-6 {
        fill: #eebaa7;
      }

      .cls-2 {
        stroke: #54575c;
        stroke-miterlimit: 10;
        stroke-width: 1.44px;
      }

      .cls-9 {
        fill: #54575c;
      }
    </style>
  </defs>
  <rect class="cls-8" width="841.89" height="467.72"/>
  <g>
    <g>
      <path class="cls-7" d="M485.89,193.49s.05.08.08.12c-.03-.04-.05-.08-.08-.12Z"/>
      <path class="cls-7" d="M486.21,194.04s0,.02.01.03c0,0,0-.02-.01-.03Z"/>
      <path class="cls-7" d="M486.44,194.54c.02.06.05.11.07.17-.02-.06-.05-.12-.07-.17Z"/>
      <path class="cls-7" d="M486.67,195.1c.03.07.05.14.08.21-.02-.07-.05-.14-.08-.21Z"/>
      <path class="cls-7" d="M485.09,192.66c-.09-.05-.19-.08-.29-.1.1.07.52.28.7.44-.13-.14-.27-.26-.41-.33Z"/>
      <path class="cls-7" d="M477.22,211.31c-.26-.54-.49-1.1-.69-1.67.2.57.43,1.13.69,1.67Z"/>
      <path class="cls-7" d="M476.26,208.78c-.17-.58-.3-1.17-.4-1.76.1.59.23,1.18.4,1.76Z"/>
      <path class="cls-7" d="M477.22,211.31c.65,1.36,1.49,2.63,2.49,3.76.02.03.02.06.04.09-.02-.03-.02-.06-.04-.09-1-1.12-1.84-2.4-2.49-3.76Z"/>
      <path class="cls-7" d="M485.63,193.13s.06.07.09.11c-.03-.04-.06-.08-.09-.11Z"/>
      <path class="cls-7" d="M486.89,195.73c.02.06.04.13.06.19-.02-.07-.04-.13-.06-.19Z"/>
      <path class="cls-7" d="M444.57,361.66c-1.44-6.98-1.85-14.39-1.71-21.68-.14,7.29-1.14,8.2.3,15.18,1.67,15.07,7.55,25.41,15.09,32.07-7.54-6.66-11.64-15.69-13.68-25.57Z"/>
      <path class="cls-7" d="M550.02,326.98c-.88-.53-1.77-1.06-2.65-1.59.86.57,1.75,1.1,2.65,1.59Z"/>
      <path class="cls-7" d="M562.78,367.98c-.7-.76-1.5-1.42-2.42-1.94.65.87,1.48,1.51,2.42,1.94Z"/>
      <path class="cls-7" d="M521.59,431.08c-.04-.61-.08-1.21-.15-1.82-.48.6-.32,1.26.15,1.82Z"/>
      <path class="cls-7" d="M323.6,467.95c-2.15-24.42,1.87-49.11,3.41-73.78-5.5,5.65-13.57,8.77-21.44,8.12-.54-.04-1.08-.11-1.61-.19-.25-.04-.5-.09-.74-.13-.28-.05-.56-.09-.83-.15-.33-.07-.66-.16-.99-.24-.18-.05-.37-.09-.55-.14-.39-.11-.77-.23-1.15-.36-.12-.04-.23-.07-.35-.11-.43-.15-.85-.31-1.27-.47-.06-.03-.13-.05-.19-.08-.45-.18-.9-.38-1.34-.59-.03-.01-.06-.03-.08-.04-.46-.22-.92-.45-1.37-.7,0,0-.01,0-.02-.01-.46-.25-.91-.52-1.36-.79,0,0,0,0,0,0-2.14,14.88,2.93,36.68,2.93,36.68-19.2-3.73-14.79-32.83-11.74-45.5-.29-.47-.56-.95-.81-1.44-5.5,8.27-16.34,13.17-25.83,10.25-1.78-.55-3.46-1.41-4.97-2.5-4.34,18.29-6.09,37.77-14.73,54.42-3.01,5.81-6.9,11.68-9.09,17.75h94.14Z"/>
      <path class="cls-7" d="M629.06,467.95c-1.3-9.4-10.3-22.05-15.86-27.81-7.57-7.84-14.14-16.77-18.41-26.8-3.23-7.57-5.11-15.65-8.35-23.22-3.64-8.51-9.07-16.21-15.72-22.66-2.47,1.34-5.54,1.61-7.93.51,2.49,2.71,3.55,6.77,3.23,10.52-.41,4.8-2.66,9.24-4.96,13.47-2.37,4.35-4.91,8.75-8.71,11.93-3.8,3.18-9.14,4.96-13.82,3.31,1.45,6.54,1,12.09-1.48,16.85-2.48,4.76-7.41,8.56-12.77,8.31-.97-.05-2.08-.59-2.68-1.29.74,11.55-3.88,23.37-12.35,31.28-2.35,2.19-4.98,4.06-7.8,5.59h127.62Z"/>
      <path class="cls-7" d="M464.73,467.95c-3.49-2.38-6.2-5.62-7.23-9.69,7.3-1.42,14.71-2.87,21.32-6.29,6.6-3.42,12.39-9.15,14.1-16.39,1.75-7.42-1.01-15.26-5.21-21.62-.03,10.37-6.26,18.6-14.65,22.34-8.39,3.74-18.68,2.88-26.33-2.21,7.85-.16,15.95-.38,23.08-3.67s13.06-10.5,12.3-18.32c-1.14-11.81-14.97-17.02-23.86-24.88-7.54-6.66-13.42-17-15.09-32.07-.25.21-30.31,30.18-36.51,37.58-10.51,12.55-19.54,26.33-30.67,38.33-6.94,7.48-14.64,14.21-22.32,20.92-6.09,5.32-12.18,10.64-18.26,15.96h129.35Z"/>
      <path class="cls-5" d="M335.38,467.95c6.09-5.32,12.18-10.64,18.26-15.96,7.68-6.71,15.38-13.44,22.32-20.92,11.13-12,20.16-25.78,30.67-38.33,6.19-7.4,36.26-37.37,36.51-37.58-1.44-6.98-.43-7.89-.3-15.18.06-3.17.22-6.32.44-9.4.47-6.48,1.86-14.07,7.69-16.88.04-.02.08-.05.12-.07-.04-.03-.08-.05-.12-.08-1.92-1.41-4.12-2.42-6.43-2.95,2.69-4.03,4.99-8.26,6.98-12.63.17-3.39.35-6.77.48-10.16-1.37,2.57-2.85,5.19-4.4,7.94-11.81,20.91-29.18,29.28-33.69,33.85-.73.74-1.44,1.51-2.14,2.28-1.53,1.68-3.07,3.36-4.87,4.74-3.03,2.3-6.68,3.61-10.32,4.71-8.57,2.58-17.56,4.12-26.48,3.36-8.64-.74-17.22-3.77-23.78-9.42-.21-.18-.43-.36-.64-.55-.06-.06-.11-.13-.17-.19-.06-.07-.12-.13-.18-.2.02.07.04.13.06.19.26.83.51,1.64.73,2.4-1.74,12.67-8.48,24.69-18.74,32.36.39,8.29.15,16.59-.37,24.9-1.54,24.67-5.56,49.36-3.41,73.78h11.78Z"/>
      <path class="cls-7" d="M485.97,193.61c.08.13.16.28.24.43-.08-.16-.16-.3-.24-.43Z"/>
      <path class="cls-7" d="M486.22,194.07c.08.15.15.31.22.48-.07-.17-.15-.33-.22-.48Z"/>
      <path class="cls-7" d="M478.27,215.78c.35.02.69.04,1.02.08-.33-.04-.67-.07-1.02-.08Z"/>
      <path class="cls-7" d="M472.42,214.8c.86.64,2,.83,3.21.9-1.21-.07-2.35-.26-3.21-.9Z"/>
      <path class="cls-7" d="M485.72,193.24c.06.08.12.16.18.25-.06-.09-.12-.18-.18-.25Z"/>
      <path class="cls-7" d="M475.63,215.7c.35.02.7.03,1.05.04-.35,0-.71-.02-1.05-.04Z"/>
      <path class="cls-7" d="M485.55,193.04s-.03-.03-.05-.04c.04.04.08.08.12.13-.02-.03-.05-.06-.07-.09Z"/>
      <path class="cls-7" d="M479.75,215.16c.09.15.11.32.03.46.07-.14.06-.31-.03-.46Z"/>
      <path class="cls-7" d="M472.42,214.8c-.25-.18-.47-.4-.67-.66.2.26.42.48.67.66Z"/>
      <path class="cls-7" d="M479.78,215.62c-.09.16-.27.28-.49.25.22.03.4-.09.49-.25Z"/>
      <path class="cls-7" d="M486.52,194.71c.05.13.1.25.15.39-.05-.13-.1-.26-.15-.39Z"/>
      <path class="cls-7" d="M486.74,195.31c.05.14.1.28.15.43-.05-.15-.1-.29-.15-.43Z"/>
      <path class="cls-7" d="M486.95,195.93c.07.21.13.43.19.65-.06-.22-.13-.44-.19-.65Z"/>
      <path class="cls-7" d="M462.15,258.34c-.68,11.72-5.03,19.89-10.14,29.46,5.12-9.57,9.46-17.09,10.14-28.81.09-1.61,1.13-7.62,2.02-8.3,1-.76,2.15-1.64,3.3-2.13-1.16.49-2.4.84-3.41,1.6-.89.68-1.83,6.56-1.92,8.18Z"/>
      <path class="cls-5" d="M488.08,201.7c-.17-1.76-.5-3.57-.93-5.12-.06-.22-.13-.44-.19-.65-.02-.07-.04-.13-.06-.19-.05-.15-.1-.29-.15-.43-.02-.07-.05-.14-.08-.21-.05-.13-.1-.26-.15-.39-.02-.06-.05-.12-.07-.17-.07-.17-.15-.33-.22-.48,0,0,0-.02-.01-.03-.08-.16-.16-.3-.24-.43-.03-.04-.05-.08-.08-.12-.06-.09-.12-.18-.18-.25-.03-.04-.06-.08-.09-.11-.04-.05-.08-.09-.12-.13-.18-.16-.59-.37-.7-.44-1.47-.26-2.94-.52-4.41-.78-.4.58-.91,1.08-1.53,1.43,3.1,3.17,4.51,7.89,3.67,12.24-2.21-1.28-4.42-2.55-6.63-3.83-.35,1.78-.36,3.61-.06,5.39.1.59.23,1.18.4,1.76.08.29.17.58.27.86.2.57.43,1.13.69,1.67.65,1.36,1.49,2.63,2.49,3.76.02.03.02.06.04.09.09.15.11.32.03.46-.09.16-.27.28-.49.25-.33-.04-.67-.07-1.02-.08-.52-.02-1.06-.03-1.59-.04-.35,0-.71-.02-1.05-.04-1.21-.07-2.35-.26-3.21-.9-.25-.18-.47-.4-.67-.66-.49-.65-.69-1.47-.85-2.26-.22-1.11-.56-2.82-.99-4.92-.13-.65-.27-1.34-.42-2.06-.94-4.6-2.17-10.54-3.4-16.4-1.95-9.28-3.91-18.34-4.74-21.47-.68-2.55-1.4-5.2-3.11-7.21-1.68-1.98-4.11-3.11-6.35-4.42-4.42-2.58-8.32-6.03-11.43-10.09-1.06-1.39-2.05-2.88-2.53-4.57-.82-2.88-.13-6.13-1.46-8.81-.82-1.64-2.22-2.75-3.84-3.62-2.67-.44-5.07-1-7.21-1.6-6.35-1.8-11.8-5.69-16.2-10.61-2.11-2.36-5.96-4.45-14-3.36-12.59,1.7-67.35-2.23-81.12-6.33-5.97-1.77-9.48.23-11.56,3.07-3.57,14.44-16.85,29.72-16.35,37.86.96,15.5,3.31,54.99,4.38,70.48.92,13.34,6.21,25.93,10.78,38.5,5.75,15.84,10.52,32.21,19.16,46.68,6.85,11.47,15.93,21.41,24.8,31.31.06.07.12.14.18.2.06.06.11.13.17.19.21.19.42.37.64.55,6.56,5.65,15.14,8.69,23.78,9.42,8.92.76,17.91-.78,26.48-3.36,3.64-1.09,7.29-2.41,10.32-4.71,1.81-1.37,3.34-3.05,4.87-4.74.7-.77,1.41-1.54,2.14-2.28,4.51-4.57,21.88-12.94,33.69-33.85,1.55-2.75,3.02-5.37,4.4-7.94,5.12-9.57,9.46-17.74,10.14-29.46.09-1.61,1.03-7.5,1.92-8.18,1-.76,2.25-1.11,3.41-1.6,14.09-5.96,21.99-32.89,20.6-46.87Z"/>
      <path class="cls-5" d="M244.06,198.81c2.06,1.65,4.54,2.83,6.21,4.88,2.61,3.2,2.67,7.7,2.65,11.82-.12,24.28,2.27,50.83,19.04,68.4,2.03,2.13,4.38,4.36,4.65,7.29.3,3.24-2.08,6.08-4.48,8.29-8.46,7.77-19.2,13.02-30.53,14.91-.23,3.72,11.96,8.29,17.04,4.36-7.38,5.4-9.35,16.9-4.19,24.46,1.63,2.38,3.86,4.42,4.81,7.15,1.57,4.5-.84,9.44-3.88,13.11s-6.84,6.86-8.81,11.21c-3.32,7.35.2,16.4,6.73,21.11,1.51,1.09,3.18,1.95,4.97,2.5,9.49,2.93,20.33-1.98,25.83-10.25.26.49.53.97.81,1.44-3.04,12.67-7.46,41.78,11.74,45.5,0,0-5.07-21.8-2.93-36.68,0,0,0,0,0,0,.44.28.9.54,1.36.79,0,0,.01,0,.02.01.45.25.91.48,1.37.7.03.01.06.03.08.04.44.21.89.41,1.34.59.06.03.13.05.19.08.42.17.84.33,1.27.47.11.04.23.07.35.11.38.13.77.25,1.15.36.18.05.37.09.55.14.33.08.66.17.99.24.28.06.56.1.83.15.25.04.49.1.74.13.53.08,1.07.14,1.61.19,7.87.65,15.94-2.47,21.44-8.12.52-8.31.76-16.61.37-24.9,10.27-7.67,17.01-19.7,18.74-32.36-.22-.77-.46-1.57-.73-2.4-.02-.06-.04-.13-.06-.19-8.87-9.9-17.95-19.84-24.8-31.31-8.64-14.47-13.4-30.84-19.16-46.68-4.57-12.57-9.86-25.16-10.78-38.5-1.07-15.49-3.43-54.98-4.38-70.48-.5-8.14,12.78-23.42,16.35-37.86,2.07-2.84,5.59-4.84,11.56-3.07,13.77,4.09,68.53,8.03,81.12,6.33,8.03-1.09,11.88.99,14,3.36,4.39,4.92,9.85,8.81,16.2,10.61,2.13.61,4.54,1.16,7.21,1.6,1.62.87,3.02,1.98,3.84,3.62,1.34,2.68.64,5.93,1.46,8.81.48,1.68,1.47,3.18,2.53,4.57,3.1,4.06,7.01,7.51,11.43,10.09,2.24,1.31,4.67,2.44,6.35,4.42,1.71,2.01,2.43,4.66,3.11,7.21.83,3.13,2.79,12.19,4.74,21.47,1.61,6.76,4.52,21.88,4.81,23.38.16.8.36,1.61.85,2.26.2.26.42.48.67.66.86.64,2,.83,3.21.9.35.02.7.03,1.05.04.53.01,1.07.02,1.59.04.35.02.69.04,1.02.08.22.03.4-.09.49-.25.07-.14.06-.31-.03-.46-.02-.03-.02-.06-.04-.09-1-1.12-1.84-2.4-2.49-3.76-.26-.54-.49-1.1-.69-1.67-.1-.29-.19-.57-.27-.86-.17-.58-.3-1.17-.4-1.76-.3-1.78-.29-3.61.06-5.39,2.21,1.28,4.42,2.55,6.63,3.83.84-4.35-.57-9.07-3.67-12.24.62-.34,1.13-.85,1.53-1.43,1.47.26,2.94.52,4.41.78.1.02.19.05.29.1.14.07.28.19.41.33.01.01.04.03.05.04.02.03.05.06.07.09.03.04.06.07.09.11.06.08.12.16.18.25.03.04.05.08.08.12.08.13.16.28.24.43,0,0,0,.02.01.03.08.15.15.31.22.48.02.06.05.11.07.17.05.13.1.25.15.39.03.07.05.14.08.21.05.14.1.28.15.43.02.06.04.13.06.19.07.21.13.43.19.65.43,1.55.76,3.36.93,5.12,1.39,13.97-6.51,40.9-20.6,46.87-1.16.49-2.3,1.37-3.3,2.13-.89.68-1.93,6.69-2.02,8.3-.68,11.72-5.03,19.24-10.14,28.81-.13,3.38-.3,6.77-.48,10.16-1.99,4.37-4.3,8.6-6.98,12.63,2.32.53,4.52,1.55,6.43,2.95.04.03.08.05.12.08-.04.02-.08.05-.12.07-5.82,2.81-7.22,10.41-7.69,16.88-.22,3.08-.38,6.23-.44,9.4-.14,7.29.27,14.7,1.71,21.68,2.04,9.88,6.13,18.91,13.68,25.57,8.89,7.85,22.72,13.07,23.86,24.88.76,7.81-5.18,15.03-12.3,18.32s-15.23,3.5-23.08,3.67c7.65,5.09,17.94,5.96,26.33,2.21,8.39-3.74,14.62-11.97,14.65-22.34,4.2,6.37,6.96,14.2,5.21,21.62-1.71,7.24-7.5,12.97-14.1,16.39-6.6,3.42-14.02,4.88-21.32,6.29,1.02,4.07,3.74,7.31,7.23,9.69h36.71c2.82-1.53,5.45-3.4,7.8-5.59,8.47-7.9,13.1-19.72,12.35-31.28-.47-.56-.63-1.22-.15-1.82.07.61.11,1.21.15,1.82.6.71,1.71,1.25,2.68,1.29,5.36.25,10.29-3.55,12.77-8.31,2.48-4.76,2.93-10.3,1.48-16.85,4.67,1.65,10.02-.13,13.82-3.31,3.8-3.18,6.34-7.58,8.71-11.93,2.3-4.24,4.55-8.67,4.96-13.47.32-3.75-.75-7.8-3.23-10.52-.94-.43-1.78-1.06-2.42-1.94.92.51,1.73,1.18,2.42,1.94,2.39,1.1,5.47.83,7.93-.51.83-.45,1.59-1.01,2.23-1.69,3.29-3.47,4.02-8.66,3.72-13.44-.2-3.2-.82-6.48-2.6-9.15-1.94-2.91-5.03-4.8-8.02-6.6-5.34-3.21-10.68-6.41-16.02-9.62-.91-.5-1.8-1.03-2.65-1.59.88.53,1.77,1.06,2.65,1.59,4.2,2.29,8.89,3.73,13.65,3.5,8.9-.43,16.41-6.42,23.24-12.14-14.48,6.92-32.67,5.31-45.71-4.05-3.2-2.29-10.03-8.2-11.64-11.79-1.61-3.59,8.69-.3,11.16-2.6-15.26-10.79-7.32-25.57-7.74-36.02.42,5.82,2.81,11.48,6.69,15.84,1.69,1.89,3.66,3.57,4.94,5.76,2.37,4.07,1.75,9.65-1.45,13.11,4.74.77,9.2-3.42,10.25-8.1s-.48-9.56-2.46-13.93c-1.98-4.37-4.45-8.6-5.43-13.3-1.18-5.64-.11-11.49,1.12-17.12,1.03,5.26,6.08,9.45,11.44,9.49,1.52-2.44-1.5-5.43-3.95-6.49-.72-.31-1.43-.66-2.04-1.15-3.81-3.1-2.24-5.45-.79-7.47,3.17-4.4,5.96-15.29.95-23.77-10.26-17.34-19.72-54.03-24.09-67-9.16-27.22-18.42-54.67-33-79.41-5.75-9.76-13.35-19.78-24.42-22.21-10.24-18.07-27.77-31.86-47.73-37.56-12.91-3.69-36.5-1.7-49.92-1.45-26.42.51-34.69-1.18-53.02,17.86-3.4,3.54-11.72,2.23-17.86,16.74-7.74,9.49-19.26,8.49-30.45,13.45-12.34,5.46-21.51,16.62-26.93,28.98-5.45,12.41-7.47,26.04-8.67,39.54-1.34,15.09-1.59,30.25-1.03,45.39.36,9.66,1.07,21.45,8.92,27.73Z"/>
    </g>
    <g>
      <path class="cls-1" d="M483.1,195.17s.05.08.08.12c-.03-.04-.05-.08-.08-.12Z"/>
      <path class="cls-1" d="M483.42,195.72s0,.02.01.03c0,0,0-.02-.01-.03Z"/>
      <path class="cls-1" d="M483.65,196.22c.02.06.05.11.07.17-.02-.06-.05-.12-.07-.17Z"/>
      <path class="cls-1" d="M483.88,196.78c.03.07.05.14.08.21-.02-.07-.05-.14-.08-.21Z"/>
      <path class="cls-1" d="M482.3,194.34c-.09-.05-.19-.08-.29-.1.1.07.52.28.7.44-.13-.14-.27-.26-.41-.33Z"/>
      <path class="cls-1" d="M474.43,212.99c-.26-.54-.49-1.1-.69-1.67.2.57.43,1.13.69,1.67Z"/>
      <path class="cls-1" d="M473.47,210.45c-.17-.58-.3-1.17-.4-1.76.1.59.23,1.18.4,1.76Z"/>
      <path class="cls-1" d="M474.43,212.99c.65,1.36,1.49,2.63,2.49,3.76.02.03.02.06.04.09-.02-.03-.02-.06-.04-.09-1-1.12-1.84-2.4-2.49-3.76Z"/>
      <path class="cls-1" d="M482.83,194.8s.06.07.09.11c-.03-.04-.06-.08-.09-.11Z"/>
      <path class="cls-1" d="M484.1,197.41c.02.06.04.13.06.19-.02-.07-.04-.13-.06-.19Z"/>
      <path class="cls-1" d="M441.78,363.33c-1.44-6.98-1.85-14.39-1.71-21.68-.14,7.29-1.14,8.2.3,15.18,1.67,15.07,7.55,25.41,15.09,32.07-7.54-6.66-11.64-15.69-13.68-25.57Z"/>
      <path class="cls-1" d="M547.23,328.66c-.88-.53-1.77-1.06-2.65-1.59.86.57,1.75,1.1,2.65,1.59Z"/>
      <path class="cls-1" d="M559.99,369.66c-.7-.76-1.5-1.42-2.42-1.94.65.87,1.48,1.51,2.42,1.94Z"/>
      <path class="cls-1" d="M518.8,432.76c-.04-.61-.08-1.21-.15-1.82-.48.6-.32,1.26.15,1.82Z"/>
      <path class="cls-9" d="M320.66,467.95c-1.83-23.87,2.05-48,3.56-72.1-5.5,5.65-13.57,8.77-21.44,8.12-.54-.04-1.08-.11-1.61-.19-.25-.04-.5-.09-.74-.13-.28-.05-.56-.09-.83-.15-.33-.07-.66-.16-.99-.24-.18-.05-.37-.09-.55-.14-.39-.11-.77-.23-1.15-.36-.12-.04-.23-.07-.35-.11-.43-.15-.85-.31-1.27-.47-.06-.03-.13-.05-.19-.08-.45-.18-.9-.38-1.34-.59-.03-.01-.06-.03-.08-.04-.46-.22-.92-.45-1.37-.7,0,0-.01,0-.02-.01-.46-.25-.91-.52-1.36-.79,0,0,0,0,0,0-2.14,14.88,2.93,36.68,2.93,36.68-19.2-3.73-14.79-32.83-11.74-45.5-.29-.47-.56-.95-.81-1.44-5.5,8.27-16.34,13.17-25.83,10.25-1.78-.55-3.46-1.41-4.97-2.5-4.34,18.29-6.09,37.77-14.73,54.42-2.74,5.27-6.2,10.59-8.46,16.08h93.36Z"/>
      <path class="cls-9" d="M625.96,467.95c-2.03-9.18-10.32-20.71-15.56-26.13-7.57-7.84-14.14-16.77-18.41-26.8-3.23-7.57-5.11-15.65-8.35-23.22-3.64-8.51-9.07-16.21-15.72-22.66-2.47,1.34-5.54,1.61-7.93.51,2.49,2.71,3.55,6.77,3.23,10.52-.41,4.8-2.66,9.24-4.96,13.47-2.37,4.35-4.91,8.75-8.71,11.93-3.8,3.18-9.14,4.96-13.82,3.31,1.45,6.54,1,12.09-1.48,16.85-2.48,4.76-7.41,8.56-12.77,8.31-.97-.05-2.08-.59-2.68-1.29.74,11.55-3.88,23.37-12.35,31.28-1.56,1.45-3.25,2.75-5.03,3.92h124.54Z"/>
      <path class="cls-9" d="M459.8,467.95c-2.43-2.15-4.28-4.83-5.08-8.02,7.3-1.42,14.71-2.87,21.32-6.29,6.6-3.42,12.39-9.15,14.1-16.39,1.75-7.42-1.01-15.26-5.21-21.62-.03,10.37-6.26,18.6-14.65,22.34-8.39,3.74-18.68,2.88-26.33-2.21,7.85-.16,15.95-.38,23.08-3.67s13.06-10.5,12.3-18.32c-1.14-11.81-14.97-17.02-23.86-24.88-7.54-6.66-13.42-17-15.09-32.07-.25.21-30.31,30.18-36.51,37.58-10.51,12.55-19.54,26.33-30.67,38.33-6.94,7.48-14.64,14.21-22.32,20.92-5.45,4.76-10.9,9.52-16.35,14.28h125.29Z"/>
      <path class="cls-6" d="M337.46,467.95c5.02-4.39,10.05-8.78,15.07-13.17,7.68-6.71,15.38-13.44,22.32-20.92,11.13-12,20.16-25.78,30.67-38.33,6.19-7.4,36.26-37.37,36.51-37.58-1.44-6.98-.43-7.89-.3-15.18.06-3.17.22-6.32.44-9.4.47-6.48,1.86-14.07,7.69-16.88.04-.02.08-.05.12-.07-.04-.03-.08-.05-.12-.08-1.92-1.41-4.12-2.42-6.43-2.95,2.69-4.03,4.99-8.26,6.98-12.63.17-3.39.35-6.77.48-10.16-1.37,2.57-2.85,5.19-4.4,7.94-11.81,20.91-29.18,29.28-33.69,33.85-.73.74-1.44,1.51-2.14,2.28-1.53,1.68-3.07,3.36-4.87,4.74-3.03,2.3-6.68,3.61-10.32,4.71-8.57,2.58-17.56,4.12-26.48,3.36-8.64-.74-17.22-3.77-23.78-9.42-.21-.18-.43-.36-.64-.55-.06-.06-.11-.13-.17-.19-.06-.07-.12-.13-.18-.2.02.07.04.13.06.19.26.83.51,1.64.73,2.4-1.74,12.67-8.48,24.69-18.74,32.36.39,8.29.15,16.59-.37,24.9-1.48,23.73-5.28,47.48-3.66,70.99h15.22Z"/>
      <path class="cls-2" d="M483.18,195.28c.08.13.16.28.24.43-.08-.16-.16-.3-.24-.43Z"/>
      <path class="cls-2" d="M483.43,195.74c.08.15.15.31.22.48-.07-.17-.15-.33-.22-.48Z"/>
      <path class="cls-2" d="M475.48,217.45c.35.02.69.04,1.02.08-.33-.04-.67-.07-1.02-.08Z"/>
      <path class="cls-2" d="M469.63,216.47c.86.64,2,.83,3.21.9-1.21-.07-2.35-.26-3.21-.9Z"/>
      <path class="cls-2" d="M482.92,194.91c.06.08.12.16.18.25-.06-.09-.12-.18-.18-.25Z"/>
      <path class="cls-2" d="M472.84,217.38c.35.02.7.03,1.05.04-.35,0-.71-.02-1.05-.04Z"/>
      <path class="cls-2" d="M482.76,194.71s-.03-.03-.05-.04c.04.04.08.08.12.13-.02-.03-.05-.06-.07-.09Z"/>
      <path class="cls-2" d="M476.96,216.83c.09.15.11.32.03.46.07-.14.06-.31-.03-.46Z"/>
      <path class="cls-2" d="M469.63,216.47c-.25-.18-.47-.4-.67-.66.2.26.42.48.67.66Z"/>
      <path class="cls-2" d="M476.99,217.29c-.09.16-.27.28-.49.25.22.03.4-.09.49-.25Z"/>
      <path class="cls-2" d="M483.72,196.39c.05.13.1.25.15.39-.05-.13-.1-.26-.15-.39Z"/>
      <path class="cls-2" d="M483.95,196.98c.05.14.1.28.15.43-.05-.15-.1-.29-.15-.43Z"/>
      <path class="cls-2" d="M484.16,197.6c.07.21.13.43.19.65-.06-.22-.13-.44-.19-.65Z"/>
      <path class="cls-2" d="M459.36,260.02c-.68,11.72-5.03,19.89-10.14,29.46,5.12-9.57,9.46-17.09,10.14-28.81.09-1.61,1.13-7.62,2.02-8.3,1-.76,2.15-1.64,3.3-2.13-1.16.49-2.4.84-3.41,1.6-.89.68-1.83,6.56-1.92,8.18Z"/>
      <path class="cls-6" d="M489.75,200.37c-.17-1.76-.5-3.57-.93-5.12-.06-.22-.13-.44-.19-.65-.02-.07-.04-.13-.06-.19-.05-.15-.1-.29-.15-.43-.02-.07-.05-.14-.08-.21-.05-.13-.1-.26-.15-.39-.02-.06-.05-.12-.07-.17-.07-.17-.15-.33-.22-.48,0,0,0-.02-.01-.03-.08-.16-.16-.3-.24-.43-.03-.04-.05-.08-.08-.12-.06-.09-.12-.18-.18-.25-.03-.04-.06-.08-.09-.11-.04-.05-.08-.09-.12-.13-.18-.16-.59-.37-.7-.44-1.47-.26-2.94-.52-4.41-.78-.4.58-.91,1.08-1.53,1.43,3.1,3.17,4.51,7.89,3.67,12.24-2.21-1.28-4.42-2.55-6.63-3.83-.35,1.78-.36,3.61-.06,5.39.1.59.23,1.18.4,1.76.08.29.17.58.27.86.2.57.43,1.13.69,1.67.65,1.36,1.49,2.63,2.49,3.76.02.03.02.06.04.09.09.15.11.32.03.46-.09.16-.27.28-.49.25-.33-.04-.67-.07-1.02-.08-.52-.02-1.06-.03-1.59-.04-.35,0-.71-.02-1.05-.04-1.21-.07-2.35-.26-3.21-.9-.25-.18-.47-.4-.67-.66-.49-.65-.69-1.47-.85-2.26-.22-1.11-.56-2.82-.99-4.92-.13-.65-.27-1.34-.42-2.06-.94-4.6-2.17-10.54-3.4-16.4-1.95-9.28-3.91-18.34-4.74-21.47-.68-2.55-1.4-5.2-3.11-7.21-1.68-1.98-4.11-3.11-6.35-4.42-4.42-2.58-8.32-6.03-11.43-10.09-1.06-1.39-2.05-2.88-2.53-4.57-.82-2.88-.13-6.13-1.46-8.81-.82-1.64-2.22-2.75-3.84-3.62-2.67-.44-5.07-1-7.21-1.6-6.35-1.8-11.8-5.69-16.2-10.61-2.11-2.36-5.96-4.45-14-3.36-12.59,1.7-67.35-2.23-81.12-6.33-5.97-1.77-9.48.23-11.56,3.07-3.57,14.44-16.85,29.72-16.35,37.86.96,15.5,3.31,54.99,4.38,70.48.92,13.34,6.21,25.93,10.78,38.5,5.75,15.84,10.52,32.21,19.16,46.68,6.85,11.47,15.93,21.41,24.8,31.31.06.07.12.14.18.2.06.06.11.13.17.19.21.19.42.37.64.55,6.56,5.65,15.14,8.69,23.78,9.42,8.92.76,17.91-.78,26.48-3.36,3.64-1.09,7.29-2.41,10.32-4.71,1.81-1.37,3.34-3.05,4.87-4.74.7-.77,1.41-1.54,2.14-2.28,4.51-4.57,21.88-12.94,33.69-33.85,1.55-2.75,3.02-5.37,4.4-7.94,5.12-9.57,9.46-17.74,10.14-29.46.09-1.61,1.03-7.5,1.92-8.18,1-.76,2.25-1.11,3.41-1.6,14.09-5.96,21.99-32.89,20.6-46.87Z"/>
      <path class="cls-3" d="M242.27,200.48c2.06,1.65,4.54,2.83,6.21,4.88,2.61,3.2,2.67,7.7,2.65,11.82-.12,24.28,2.27,50.83,19.04,68.4,2.03,2.13,4.38,4.36,4.65,7.29.3,3.24-2.08,6.08-4.48,8.29-8.46,7.77-19.2,13.02-30.53,14.91-.23,3.72,11.96,8.29,17.04,4.36-7.38,5.4-9.35,16.9-4.19,24.46,1.63,2.38,3.86,4.42,4.81,7.15,1.57,4.5-.84,9.44-3.88,13.11s-6.84,6.86-8.81,11.21c-3.32,7.35.2,16.4,6.73,21.11,1.51,1.09,3.18,1.95,4.97,2.5,9.49,2.93,20.33-1.98,25.83-10.25.26.49.53.97.81,1.44-3.04,12.67-7.46,41.78,11.74,45.5,0,0-5.07-21.8-2.93-36.68,0,0,0,0,0,0,.44.28.9.54,1.36.79,0,0,.01,0,.02.01.45.25.91.48,1.37.7.03.01.06.03.08.04.44.21.89.41,1.34.59.06.03.13.05.19.08.42.17.84.33,1.27.47.11.04.23.07.35.11.38.13.77.25,1.15.36.18.05.37.09.55.14.33.08.66.17.99.24.28.06.56.1.83.15.25.04.49.1.74.13.53.08,1.07.14,1.61.19,7.87.65,15.94-2.47,21.44-8.12.52-8.31.76-16.61.37-24.9,10.27-7.67,17.01-19.7,18.74-32.36-.22-.77-.46-1.57-.73-2.4-.02-.06-.04-.13-.06-.19-8.87-9.9-17.95-19.84-24.8-31.31-8.64-14.47-13.4-30.84-19.16-46.68-4.57-12.57-9.86-25.16-10.78-38.5-1.07-15.49-3.43-54.98-4.38-70.48-.5-8.14,12.78-23.42,16.35-37.86,2.07-2.84,5.59-4.84,11.56-3.07,13.77,4.09,68.53,8.03,81.12,6.33,8.03-1.09,11.88.99,14,3.36,4.39,4.92,9.85,8.81,16.2,10.61,2.13.61,4.54,1.16,7.21,1.6,1.62.87,3.02,1.98,3.84,3.62,1.34,2.68.64,5.93,1.46,8.81.48,1.68,1.47,3.18,2.53,4.57,3.1,4.06,7.01,7.51,11.43,10.09,2.24,1.31,4.67,2.44,6.35,4.42,1.71,2.01,2.43,4.66,3.11,7.21.83,3.13,2.79,12.19,4.74,21.47,1.61,6.76,4.52,21.88,4.81,23.38.16.8.36,1.61.85,2.26.2.26.42.48.67.66.86.64,2,.83,3.21.9.35.02.7.03,1.05.04.53.01,1.07.02,1.59.04.35.02.69.04,1.02.08.22.03.4-.09.49-.25.07-.14.06-.31-.03-.46-.02-.03-.02-.06-.04-.09-1-1.12-1.84-2.4-2.49-3.76-.26-.54-.49-1.1-.69-1.67-.1-.29-.19-.57-.27-.86-.17-.58-.3-1.17-.4-1.76-.3-1.78-.29-3.61.06-5.39,2.21,1.28,4.42,2.55,6.63,3.83.84-4.35-.57-9.07-3.67-12.24.62-.34,1.13-.85,1.53-1.43,1.47.26,2.94.52,4.41.78.1.02.19.05.29.1.14.07.28.19.41.33.01.01.04.03.05.04.02.03.05.06.07.09.03.04.06.07.09.11.06.08.12.16.18.25.03.04.05.08.08.12.08.13.16.28.24.43,0,0,0,.02.01.03.08.15.15.31.22.48.02.06.05.11.07.17.05.13.1.25.15.39.03.07.05.14.08.21.05.14.1.28.15.43.02.06.04.13.06.19.07.21.13.43.19.65.43,1.55.76,3.36.93,5.12,1.39,13.97-6.51,40.9-20.6,46.87-1.16.49-2.3,1.37-3.3,2.13-.89.68-1.93,6.69-2.02,8.3-.68,11.72-5.03,19.24-10.14,28.81-.13,3.38-.3,6.77-.48,10.16-1.99,4.37-4.3,8.6-6.98,12.63,2.32.53,4.52,1.55,6.43,2.95.04.03.08.05.12.08-.04.02-.08.05-.12.07-5.82,2.81-7.22,10.41-7.69,16.88-.22,3.08-.38,6.23-.44,9.4-.14,7.29.27,14.7,1.71,21.68,2.04,9.88,6.13,18.91,13.68,25.57,8.89,7.85,22.72,13.07,23.86,24.88.76,7.81-5.18,15.03-12.3,18.32s-15.23,3.5-23.08,3.67c7.65,5.09,17.94,5.96,26.33,2.21,8.39-3.74,14.62-11.97,14.65-22.34,4.2,6.37,6.96,14.2,5.21,21.62-1.71,7.24-7.5,12.97-14.1,16.39-6.6,3.42-14.02,4.88-21.32,6.29.8,3.19,2.65,5.86,5.08,8.02h41.62c1.78-1.17,3.47-2.46,5.03-3.92,8.47-7.9,13.1-19.72,12.35-31.28-.47-.56-.63-1.22-.15-1.82.07.61.11,1.21.15,1.82.6.71,1.71,1.25,2.68,1.29,5.36.25,10.29-3.55,12.77-8.31,2.48-4.76,2.93-10.3,1.48-16.85,4.67,1.65,10.02-.13,13.82-3.31,3.8-3.18,6.34-7.58,8.71-11.93,2.3-4.24,4.55-8.67,4.96-13.47.32-3.75-.75-7.8-3.23-10.52-.94-.43-1.78-1.06-2.42-1.94.92.51,1.73,1.18,2.42,1.94,2.39,1.1,5.47.83,7.93-.51.83-.45,1.59-1.01,2.23-1.69,3.29-3.47,4.02-8.66,3.72-13.44-.2-3.2-.82-6.48-2.6-9.15-1.94-2.91-5.03-4.8-8.02-6.6-5.34-3.21-10.68-6.41-16.02-9.62-.91-.5-1.8-1.03-2.65-1.59.88.53,1.77,1.06,2.65,1.59,4.2,2.29,8.89,3.73,13.65,3.5,8.9-.43,16.41-6.42,23.24-12.14-14.48,6.92-32.67,5.31-45.71-4.05-3.2-2.29-10.03-8.2-11.64-11.79-1.61-3.59,8.69-.3,11.16-2.6-15.26-10.79-7.32-25.57-7.74-36.02.42,5.82,2.81,11.48,6.69,15.84,1.69,1.89,3.66,3.57,4.94,5.76,2.37,4.07,1.75,9.65-1.45,13.11,4.74.77,9.2-3.42,10.25-8.1s-.48-9.56-2.46-13.93c-1.98-4.37-4.45-8.6-5.43-13.3-1.18-5.64-.11-11.49,1.12-17.12,1.03,5.26,6.08,9.45,11.44,9.49,1.52-2.44-1.5-5.43-3.95-6.49-.72-.31-1.43-.66-2.04-1.15-3.81-3.1-2.24-5.45-.79-7.47,3.17-4.4,5.96-15.29.95-23.77-10.26-17.34-19.72-54.03-24.09-67-9.16-27.22-18.42-54.67-33-79.41-5.75-9.76-13.35-19.78-24.42-22.21-10.24-18.07-27.77-31.86-47.73-37.56-12.91-3.69-36.5-1.7-49.92-1.45-26.42.51-34.69-1.18-53.02,17.86-3.4,3.54-11.72,2.23-17.86,16.74-7.74,9.49-19.26,8.49-30.45,13.45-12.34,5.46-21.51,16.62-26.93,28.98-5.45,12.41-7.47,26.04-8.67,39.54-1.34,15.09-1.59,30.25-1.03,45.39.36,9.66,1.07,21.45,8.92,27.73Z"/>
    </g>
    <path class="cls-2" d="M352.89,201.61c1.34,8.32-2.55,40.51-5.64,43.6-5.21,5.21-5.1,9.34-4.64,10.22.41.79,1.27,1.22,2.08,1.58,1,.45,2.02.87,3.08,1.13,2.02.49,4.37.49,5.79,2.01.96,1.03,1.24,2.53,2.1,3.65,1.46,1.92,4.16,2.28,6.57,2.47,1.43.11,2.87.21,4.29,0,7.01-1.07,11.06-9.26,17.95-10.92,1.51-.36,3.1-.39,4.52-1.01,1.98-.86,4.12-2.85,4.54-5.03.48-2.53-1.36-5.42-2.59-7.52"/>
    <path class="cls-2" d="M346.45,336.55c.02.07.04.13.06.19.04,0,.08,0,.12.01-.06-.07-.12-.13-.18-.2Z"/>
    <path class="cls-2" d="M452.22,315.86s-.08-.05-.12-.08c0,.05,0,.1,0,.15.04-.02.08-.05.12-.07Z"/>
    <path class="cls-2" d="M346.8,336.94c-.06-.06-.11-.13-.17-.19-.04,0-.08,0-.12-.01.26.83.51,1.64.73,2.4.08-.55.14-1.1.2-1.66-.21-.18-.43-.36-.64-.55Z"/>
    <path class="cls-2" d="M339.05,467.95c5.24-4.57,10.47-9.15,15.71-13.72,7.68-6.71,15.38-13.44,22.32-20.92,11.13-12,20.16-25.78,30.67-38.33,6.19-7.4,36.26-37.37,36.51-37.58-1.44-6.98-.43-7.89-.3-15.18.06-3.17.22-6.32.44-9.4.47-6.48,1.86-14.07,7.69-16.88,0-.05,0-.1,0-.15-1.92-1.41-4.12-2.42-6.43-2.95,2.69-4.03,4.99-8.26,6.98-12.63.17-3.39.35-6.77.48-10.16-1.37,2.57-2.85,5.19-4.4,7.94-11.81,20.91-29.18,29.28-33.69,33.85-.73.74-1.44,1.51-2.14,2.28-1.53,1.68-3.07,3.36-4.87,4.74-3.03,2.3-6.68,3.61-10.32,4.71-8.57,2.58-17.56,4.12-26.48,3.36-8.64-.74-17.22-3.77-23.78-9.42-.06.55-.12,1.1-.2,1.66-1.74,12.67-8.48,24.69-18.74,32.36.39,8.29.15,16.59-.37,24.9-1.49,23.92-5.33,47.86-3.61,71.55h14.54Z"/>
    <path class="cls-8" d="M471.84,248.01l.6-4.72c.1-.76.52-1.77,1.27-1.59,1.27,1.98-.37,4.66.23,6.94.41,1.57,1.79,2.66,2.62,4.05,1.27,2.11,1.21,4.73,1.1,7.18-.13,3.13-.27,6.31-1.28,9.27-.44,1.3-1.08,2.57-2.12,3.46s-2.58,1.29-3.82.73c-1.36-.61-2.03-2.14-2.5-3.55-1.82-5.48-2.46-11.35-1.87-17.1.04-.44.14-.93.52-1.15.43-.24.99.06,1.22.49s.23.94.22,1.43c-.04,4.7.68,9.4,2.14,13.86.16.49.34,1,.73,1.34.79.69,2.1.33,2.77-.48s.83-1.9.93-2.94c.57-5.86-.27-11.86-2.75-17.23Z"/>
    <g>
      <path class="cls-1" d="M487.01,195.72s.05.08.08.12c-.03-.04-.05-.08-.08-.12Z"/>
      <path class="cls-1" d="M487.33,196.27s0,.02.01.03c0,0,0-.02-.01-.03Z"/>
      <path class="cls-1" d="M487.56,196.77c.02.06.05.11.07.17-.02-.06-.05-.12-.07-.17Z"/>
      <path class="cls-1" d="M487.78,197.33c.03.07.05.14.08.21-.02-.07-.05-.14-.08-.21Z"/>
      <path class="cls-1" d="M486.21,194.9c-.09-.05-.19-.08-.29-.1.1.07.52.28.7.44-.13-.14-.27-.26-.41-.33Z"/>
      <path class="cls-1" d="M478.33,213.55c-.26-.54-.49-1.1-.69-1.67.2.57.43,1.13.69,1.67Z"/>
      <path class="cls-1" d="M477.37,211.01c-.17-.58-.3-1.17-.4-1.76.1.59.23,1.18.4,1.76Z"/>
      <path class="cls-1" d="M478.33,213.55c.65,1.36,1.49,2.63,2.49,3.76.02.03.02.06.04.09-.02-.03-.02-.06-.04-.09-1-1.12-1.84-2.4-2.49-3.76Z"/>
      <path class="cls-1" d="M486.74,195.36s.06.07.09.11c-.03-.04-.06-.08-.09-.11Z"/>
      <path class="cls-1" d="M488.01,197.97c.02.06.04.13.06.19-.02-.07-.04-.13-.06-.19Z"/>
      <path class="cls-1" d="M445.68,363.89c-1.44-6.98-1.85-14.39-1.71-21.68-.14,7.29-1.14,8.2.3,15.18,1.67,15.07,7.55,25.41,15.09,32.07-7.54-6.66-11.64-15.69-13.68-25.57Z"/>
      <path class="cls-1" d="M551.14,329.21c-.88-.53-1.77-1.06-2.65-1.59.86.57,1.75,1.1,2.65,1.59Z"/>
      <path class="cls-1" d="M563.9,370.22c-.7-.76-1.5-1.42-2.42-1.94.65.87,1.48,1.51,2.42,1.94Z"/>
      <path class="cls-1" d="M522.71,433.31c-.04-.61-.08-1.21-.15-1.82-.48.6-.32,1.26.15,1.82Z"/>
      <path class="cls-2" d="M324.52,467.95c-1.72-23.69,2.12-47.63,3.61-71.55-5.5,5.65-13.57,8.77-21.44,8.12-.54-.04-1.08-.11-1.61-.19-.25-.04-.5-.09-.74-.13-.28-.05-.56-.09-.83-.15-.33-.07-.66-.16-.99-.24-.18-.05-.37-.09-.55-.14-.39-.11-.77-.23-1.15-.36-.12-.04-.23-.07-.35-.11-.43-.15-.85-.31-1.27-.47-.06-.03-.13-.05-.19-.08-.45-.18-.9-.38-1.34-.59-.03-.01-.06-.03-.08-.04-.46-.22-.92-.45-1.37-.7,0,0-.01,0-.02-.01-.46-.25-.91-.52-1.36-.79,0,0,0,0,0,0-2.14,14.88,2.93,36.68,2.93,36.68-19.2-3.73-14.79-32.83-11.74-45.5-.29-.47-.56-.95-.81-1.44-5.5,8.27-16.34,13.17-25.83,10.25-1.78-.55-3.46-1.41-4.97-2.5-4.34,18.29-6.09,37.77-14.73,54.42-2.64,5.09-5.97,10.23-8.22,15.52h93.08Z"/>
      <path class="cls-2" d="M629.73,467.95c-2.23-9.08-10.29-20.26-15.42-25.58-7.57-7.84-14.14-16.77-18.41-26.8-3.23-7.57-5.11-15.65-8.35-23.22-3.64-8.51-9.07-16.21-15.72-22.66-2.47,1.34-5.54,1.61-7.93.51,2.49,2.71,3.55,6.77,3.23,10.52-.41,4.8-2.66,9.24-4.96,13.47-2.37,4.35-4.91,8.75-8.71,11.93-3.8,3.18-9.14,4.96-13.82,3.31,1.45,6.54,1,12.09-1.48,16.85-2.48,4.76-7.41,8.56-12.77,8.31-.97-.05-2.08-.59-2.68-1.29.74,11.55-3.88,23.37-12.35,31.28-1.32,1.23-2.73,2.34-4.21,3.36h123.58Z"/>
      <path class="cls-2" d="M463.09,467.95c-2.13-2.05-3.74-4.54-4.47-7.46,7.3-1.42,14.71-2.87,21.32-6.29,6.6-3.42,12.39-9.15,14.1-16.39,1.75-7.42-1.01-15.26-5.21-21.62-.03,10.37-6.26,18.6-14.65,22.34-8.39,3.74-18.68,2.88-26.33-2.21,7.85-.16,15.95-.38,23.08-3.67s13.06-10.5,12.3-18.32c-1.14-11.81-14.97-17.02-23.86-24.88-7.54-6.66-13.42-17-15.09-32.07-.25.21-30.31,30.18-36.51,37.58-10.51,12.55-19.54,26.33-30.67,38.33-6.94,7.48-14.64,14.21-22.32,20.92-5.24,4.57-10.47,9.15-15.71,13.72h124.04Z"/>
      <path class="cls-2" d="M339.05,467.95c5.24-4.57,10.47-9.15,15.71-13.72,7.68-6.71,15.38-13.44,22.32-20.92,11.13-12,20.16-25.78,30.67-38.33,6.19-7.4,36.26-37.37,36.51-37.58-1.44-6.98-.43-7.89-.3-15.18.06-3.17.22-6.32.44-9.4.47-6.48,1.86-14.07,7.69-16.88.04-.02.08-.05.12-.07-.04-.03-.08-.05-.12-.08-1.92-1.41-4.12-2.42-6.43-2.95,2.69-4.03,4.99-8.26,6.98-12.63.17-3.39.35-6.77.48-10.16-1.37,2.57-2.85,5.19-4.4,7.94-11.81,20.91-29.18,29.28-33.69,33.85-.73.74-1.44,1.51-2.14,2.28-1.53,1.68-3.07,3.36-4.87,4.74-3.03,2.3-6.68,3.61-10.32,4.71-8.57,2.58-17.56,4.12-26.48,3.36-8.64-.74-17.22-3.77-23.78-9.42-.21-.18-.43-.36-.64-.55-.06-.06-.11-.13-.17-.19-.06-.07-.12-.13-.18-.2.02.07.04.13.06.19.26.83.51,1.64.73,2.4-1.74,12.67-8.48,24.69-18.74,32.36.39,8.29.15,16.59-.37,24.9-1.49,23.92-5.33,47.86-3.61,71.55h14.54Z"/>
      <path class="cls-2" d="M487.09,195.84c.08.13.16.28.24.43-.08-.16-.16-.3-.24-.43Z"/>
      <path class="cls-2" d="M487.34,196.3c.08.15.15.31.22.48-.07-.17-.15-.33-.22-.48Z"/>
      <path class="cls-2" d="M479.39,218.01c.35.02.69.04,1.02.08-.33-.04-.67-.07-1.02-.08Z"/>
      <path class="cls-2" d="M473.53,217.03c.86.64,2,.83,3.21.9-1.21-.07-2.35-.26-3.21-.9Z"/>
      <path class="cls-2" d="M486.83,195.47c.06.08.12.16.18.25-.06-.09-.12-.18-.18-.25Z"/>
      <path class="cls-2" d="M476.75,217.93c.35.02.7.03,1.05.04-.35,0-.71-.02-1.05-.04Z"/>
      <path class="cls-2" d="M486.67,195.27s-.03-.03-.05-.04c.04.04.08.08.12.13-.02-.03-.05-.06-.07-.09Z"/>
      <path class="cls-2" d="M480.87,217.39c.09.15.11.32.03.46.07-.14.06-.31-.03-.46Z"/>
      <path class="cls-2" d="M473.53,217.03c-.25-.18-.47-.4-.67-.66.2.26.42.48.67.66Z"/>
      <path class="cls-2" d="M480.9,217.85c-.09.16-.27.28-.49.25.22.03.4-.09.49-.25Z"/>
      <path class="cls-2" d="M487.63,196.95c.05.13.1.25.15.39-.05-.13-.1-.26-.15-.39Z"/>
      <path class="cls-2" d="M487.86,197.54c.05.14.1.28.15.43-.05-.15-.1-.29-.15-.43Z"/>
      <path class="cls-2" d="M488.07,198.16c.07.21.13.43.19.65-.06-.22-.13-.44-.19-.65Z"/>
      <path class="cls-2" d="M463.27,260.58c-.68,11.72-5.03,19.89-10.14,29.46,5.12-9.57,9.46-17.09,10.14-28.81.09-1.61,1.13-7.62,2.02-8.3,1-.76,2.15-1.64,3.3-2.13-1.16.49-2.4.84-3.41,1.6-.89.68-1.83,6.56-1.92,8.18Z"/>
      <path class="cls-2" d="M489.2,203.93c-.17-1.76-.5-3.57-.93-5.12-.06-.22-.13-.44-.19-.65-.02-.07-.04-.13-.06-.19-.05-.15-.1-.29-.15-.43-.02-.07-.05-.14-.08-.21-.05-.13-.1-.26-.15-.39-.02-.06-.05-.12-.07-.17-.07-.17-.15-.33-.22-.48,0,0,0-.02-.01-.03-.08-.16-.16-.3-.24-.43-.03-.04-.05-.08-.08-.12-.06-.09-.12-.18-.18-.25-.03-.04-.06-.08-.09-.11-.04-.05-.08-.09-.12-.13-.18-.16-.59-.37-.7-.44-1.47-.26-2.94-.52-4.41-.78-.4.58-.91,1.08-1.53,1.43,3.1,3.17,4.51,7.89,3.67,12.24-2.21-1.28-4.42-2.55-6.63-3.83-.35,1.78-.36,3.61-.06,5.39.1.59.23,1.18.4,1.76.08.29.17.58.27.86.2.57.43,1.13.69,1.67.65,1.36,1.49,2.63,2.49,3.76.02.03.02.06.04.09.09.15.11.32.03.46-.09.16-.27.28-.49.25-.33-.04-.67-.07-1.02-.08-.52-.02-1.06-.03-1.59-.04-.35,0-.71-.02-1.05-.04-1.21-.07-2.35-.26-3.21-.9-.25-.18-.47-.4-.67-.66-.49-.65-.69-1.47-.85-2.26-.22-1.11-.56-2.82-.99-4.92-.13-.65-.27-1.34-.42-2.06-.94-4.6-2.17-10.54-3.4-16.4-1.95-9.28-3.91-18.34-4.74-21.47-.68-2.55-1.4-5.2-3.11-7.21-1.68-1.98-4.11-3.11-6.35-4.42-4.42-2.58-8.32-6.03-11.43-10.09-1.06-1.39-2.05-2.88-2.53-4.57-.82-2.88-.13-6.13-1.46-8.81-.82-1.64-2.22-2.75-3.84-3.62-2.67-.44-5.07-1-7.21-1.6-6.35-1.8-11.8-5.69-16.2-10.61-2.11-2.36-5.96-4.45-14-3.36-12.59,1.7-67.35-2.23-81.12-6.33-5.97-1.77-9.48.23-11.56,3.07-3.57,14.44-16.85,29.72-16.35,37.86.96,15.5,3.31,54.99,4.38,70.48.92,13.34,6.21,25.93,10.78,38.5,5.75,15.84,10.52,32.21,19.16,46.68,6.85,11.47,15.93,21.41,24.8,31.31.06.07.12.14.18.2.06.06.11.13.17.19.21.19.42.37.64.55,6.56,5.65,15.14,8.69,23.78,9.42,8.92.76,17.91-.78,26.48-3.36,3.64-1.09,7.29-2.41,10.32-4.71,1.81-1.37,3.34-3.05,4.87-4.74.7-.77,1.41-1.54,2.14-2.28,4.51-4.57,21.88-12.94,33.69-33.85,1.55-2.75,3.02-5.37,4.4-7.94,5.12-9.57,9.46-17.74,10.14-29.46.09-1.61,1.03-7.5,1.92-8.18,1-.76,2.25-1.11,3.41-1.6,14.09-5.96,21.99-32.89,20.6-46.87Z"/>
      <path class="cls-2" d="M245.18,201.04c2.06,1.65,4.54,2.83,6.21,4.88,2.61,3.2,2.67,7.7,2.65,11.82-.12,24.28,2.27,50.83,19.04,68.4,2.03,2.13,4.38,4.36,4.65,7.29.3,3.24-2.08,6.08-4.48,8.29-8.46,7.77-19.2,13.02-30.53,14.91-.23,3.72,11.96,8.29,17.04,4.36-7.38,5.4-9.35,16.9-4.19,24.46,1.63,2.38,3.86,4.42,4.81,7.15,1.57,4.5-.84,9.44-3.88,13.11s-6.84,6.86-8.81,11.21c-3.32,7.35.2,16.4,6.73,21.11,1.51,1.09,3.18,1.95,4.97,2.5,9.49,2.93,20.33-1.98,25.83-10.25.26.49.53.97.81,1.44-3.04,12.67-7.46,41.78,11.74,45.5,0,0-5.07-21.8-2.93-36.68,0,0,0,0,0,0,.44.28.9.54,1.36.79,0,0,.01,0,.02.01.45.25.91.48,1.37.7.03.01.06.03.08.04.44.21.89.41,1.34.59.06.03.13.05.19.08.42.17.84.33,1.27.47.11.04.23.07.35.11.38.13.77.25,1.15.36.18.05.37.09.55.14.33.08.66.17.99.24.28.06.56.1.83.15.25.04.49.1.74.13.53.08,1.07.14,1.61.19,7.87.65,15.94-2.47,21.44-8.12.52-8.31.76-16.61.37-24.9,10.27-7.67,17.01-19.7,18.74-32.36-.22-.77-.46-1.57-.73-2.4-.02-.06-.04-.13-.06-.19-8.87-9.9-17.95-19.84-24.8-31.31-8.64-14.47-13.4-30.84-19.16-46.68-4.57-12.57-9.86-25.16-10.78-38.5-1.07-15.49-3.43-54.98-4.38-70.48-.5-8.14,12.78-23.42,16.35-37.86,2.07-2.84,5.59-4.84,11.56-3.07,13.77,4.09,68.53,8.03,81.12,6.33,8.03-1.09,11.88.99,14,3.36,4.39,4.92,9.85,8.81,16.2,10.61,2.13.61,4.54,1.16,7.21,1.6,1.62.87,3.02,1.98,3.84,3.62,1.34,2.68.64,5.93,1.46,8.81.48,1.68,1.47,3.18,2.53,4.57,3.1,4.06,7.01,7.51,11.43,10.09,2.24,1.31,4.67,2.44,6.35,4.42,1.71,2.01,2.43,4.66,3.11,7.21.83,3.13,2.79,12.19,4.74,21.47,1.61,6.76,4.52,21.88,4.81,23.38.16.8.36,1.61.85,2.26.2.26.42.48.67.66.86.64,2,.83,3.21.9.35.02.7.03,1.05.04.53.01,1.07.02,1.59.04.35.02.69.04,1.02.08.22.03.4-.09.49-.25.07-.14.06-.31-.03-.46-.02-.03-.02-.06-.04-.09-1-1.12-1.84-2.4-2.49-3.76-.26-.54-.49-1.1-.69-1.67-.1-.29-.19-.57-.27-.86-.17-.58-.3-1.17-.4-1.76-.3-1.78-.29-3.61.06-5.39,2.21,1.28,4.42,2.55,6.63,3.83.84-4.35-.57-9.07-3.67-12.24.62-.34,1.13-.85,1.53-1.43,1.47.26,2.94.52,4.41.78.1.02.19.05.29.1.14.07.28.19.41.33.01.01.04.03.05.04.02.03.05.06.07.09.03.04.06.07.09.11.06.08.12.16.18.25.03.04.05.08.08.12.08.13.16.28.24.43,0,0,0,.02.01.03.08.15.15.31.22.48.02.06.05.11.07.17.05.13.1.25.15.39.03.07.05.14.08.21.05.14.1.28.15.43.02.06.04.13.06.19.07.21.13.43.19.65.43,1.55.76,3.36.93,5.12,1.39,13.97-6.51,40.9-20.6,46.87-1.16.49-2.3,1.37-3.3,2.13-.89.68-1.93,6.69-2.02,8.3-.68,11.72-5.03,19.24-10.14,28.81-.13,3.38-.3,6.77-.48,10.16-1.99,4.37-4.3,8.6-6.98,12.63,2.32.53,4.52,1.55,6.43,2.95.04.03.08.05.12.08-.04.02-.08.05-.12.07-5.82,2.81-7.22,10.41-7.69,16.88-.22,3.08-.38,6.23-.44,9.4-.14,7.29.27,14.7,1.71,21.68,2.04,9.88,6.13,18.91,13.68,25.57,8.89,7.85,22.72,13.07,23.86,24.88.76,7.81-5.18,15.03-12.3,18.32s-15.23,3.5-23.08,3.67c7.65,5.09,17.94,5.96,26.33,2.21,8.39-3.74,14.62-11.97,14.65-22.34,4.2,6.37,6.96,14.2,5.21,21.62-1.71,7.24-7.5,12.97-14.1,16.39-6.6,3.42-14.02,4.88-21.32,6.29.73,2.92,2.34,5.4,4.47,7.46h43.06c1.48-1.02,2.89-2.13,4.21-3.36,8.47-7.9,13.1-19.72,12.35-31.28-.47-.56-.63-1.22-.15-1.82.07.61.11,1.21.15,1.82.6.71,1.71,1.25,2.68,1.29,5.36.25,10.29-3.55,12.77-8.31,2.48-4.76,2.93-10.3,1.48-16.85,4.67,1.65,10.02-.13,13.82-3.31,3.8-3.18,6.34-7.58,8.71-11.93,2.3-4.24,4.55-8.67,4.96-13.47.32-3.75-.75-7.8-3.23-10.52-.94-.43-1.78-1.06-2.42-1.94.92.51,1.73,1.18,2.42,1.94,2.39,1.1,5.47.83,7.93-.51.83-.45,1.59-1.01,2.23-1.69,3.29-3.47,4.02-8.66,3.72-13.44-.2-3.2-.82-6.48-2.6-9.15-1.94-2.91-5.03-4.8-8.02-6.6-5.34-3.21-10.68-6.41-16.02-9.62-.91-.5-1.8-1.03-2.65-1.59.88.53,1.77,1.06,2.65,1.59,4.2,2.29,8.89,3.73,13.65,3.5,8.9-.43,16.41-6.42,23.24-12.14-14.48,6.92-32.67,5.31-45.71-4.05-3.2-2.29-10.03-8.2-11.64-11.79-1.61-3.59,8.69-.3,11.16-2.6-15.26-10.79-7.32-25.57-7.74-36.02.42,5.82,2.81,11.48,6.69,15.84,1.69,1.89,3.66,3.57,4.94,5.76,2.37,4.07,1.75,9.65-1.45,13.11,4.74.77,9.2-3.42,10.25-8.1s-.48-9.56-2.46-13.93c-1.98-4.37-4.45-8.6-5.43-13.3-1.18-5.64-.11-11.49,1.12-17.12,1.03,5.26,6.08,9.45,11.44,9.49,1.52-2.44-1.5-5.43-3.95-6.49-.72-.31-1.43-.66-2.04-1.15-3.81-3.1-2.24-5.45-.79-7.47,3.17-4.4,5.96-15.29.95-23.77-10.26-17.34-19.72-54.03-24.09-67-9.16-27.22-18.42-54.67-33-79.41-5.75-9.76-13.35-19.78-24.42-22.21-10.24-18.07-27.77-31.86-47.73-37.56-12.91-3.69-36.5-1.7-49.92-1.45-26.42.51-34.69-1.18-53.02,17.86-3.4,3.54-11.72,2.23-17.86,16.74-7.74,9.49-19.26,8.49-30.45,13.45-12.34,5.46-21.51,16.62-26.93,28.98-5.45,12.41-7.47,26.04-8.67,39.54-1.34,15.09-1.59,30.25-1.03,45.39.36,9.66,1.07,21.45,8.92,27.73Z"/>
    </g>
    <path class="cls-2" d="M305.57,97.86s-45.77-34.6-45.77,65.86c0,85.54,44.09,100.46,44.09,100.46"/>
    <path class="cls-2" d="M270.41,247.44s-8.37,11.72,35.16,36.84c0,0,10.05,24.56-12.28,41.3,0,0-32.37,0-33.49,4.47"/>
    <path class="cls-2" d="M337.94,333.39s-11.72,46.33-55.81,48.56c0,0,10.6,13.95,34.6,3.91"/>
    <path class="cls-2" d="M293.85,283.16s-8.48,34.33-34.1,37.82"/>
    <path class="cls-2" d="M378.69,108.46s48.56-28.47,76.46,20.09c17.28,30.07,7.31,40.7,7.31,40.7"/>
    <path class="cls-2" d="M326.78,101.76s36.28-26.22,65.86-40.19c20.09-9.49,53.02-6.7,80.37,70.33,0,0,7.26,18.42-2.23,39.63"/>
    <path class="cls-2" d="M545.57,213.95s-26.79-2.79-41.86-48.56"/>
    <path class="cls-2" d="M547.78,248.36s-42.4-7.62-55.79-37.76"/>
    <path class="cls-2" d="M519.9,244.09s-10.05,30.7-62.51,43.53"/>
    <path class="cls-2" d="M528.27,243.53s-5.58,54.7-65.86,65.3"/>
    <path class="cls-2" d="M484.17,304.37s-22.88,40.74,20.09,54.14c42.98,13.4,33.49,39.63,33.49,39.63"/>
    <path class="cls-2" d="M520.45,427.72s-1.67-42.98-48.56-58.6"/>
    <path class="cls-2" d="M532.73,249.67s-9.49,63.63-37.95,77.58"/>
    <path class="cls-2" d="M504.83,329.48s42.98,13.4,46.88,35.16"/>
    <path class="cls-2" d="M284.92,107.9s0,50.79-9.49,63.63c-7.28,9.85-7.26,31.81-1.12,42.98"/>
    <circle class="cls-9" cx="327.06" cy="199.72" r="7.53"/>
    <circle class="cls-9" cx="411.9" cy="196.09" r="7.53"/>
    <path class="cls-2" d="M535.52,186.04c-11.16,0-35.72-21.21-56.93-94.88-21.21-73.67-54.7-72.56-82.6-74.79s-65.86,68.09-65.86,68.09"/>
    <path class="cls-2" d="M321.2,29.21s-10.05,36.28-.56,60.28c0,0-7.81-31.81-40.19-32.37"/>
    <path class="cls-2" d="M320.9,305.29s.3,61.59-52.17,50.43c0,0,10.05,13.4,39.07,5.58"/>
    <path class="cls-4" d="M416.64,275.34s-10.97,3.24-20.09,4.47c-11.72,1.57-22.54,1.29-25.67,2.23-1.47.44-6.14-.95-9.49-1.3-9.41-.98-21.21-2.79-21.21-2.79,0,0,0,10.79,22.33,21.95,2.85,1.43,7.41,2.19,12.44,1.7,5.68-.55,11.98-2.7,17.14-7.28,5.02-4.47,24.56-18.98,24.56-18.98Z"/>
    <path class="cls-2" d="M336.03,277.68c1.46-.58,3.15.11,4.34,1.14s2.05,2.39,3.18,3.49c1.86,1.82,4.32,2.88,6.77,3.78,9.9,3.63,20.73,5.29,31.05,3.13,5.47-1.14,10.67-3.32,15.82-5.48,5.12-2.15,10.24-4.3,15.36-6.45"/>
    <path class="cls-2" d="M472.87,216.37c-.56,13.95-7.48,34.23-7.48,34.23"/>
    <path class="cls-2" d="M471.84,248.01l.6-4.72c.1-.76.52-1.77,1.27-1.59,1.27,1.98-.37,4.66.23,6.94.41,1.57,1.79,2.66,2.62,4.05,1.27,2.11,1.21,4.73,1.1,7.18-.13,3.13-.27,6.31-1.28,9.27-.44,1.3-1.08,2.57-2.12,3.46s-2.58,1.29-3.82.73c-1.36-.61-2.03-2.14-2.5-3.55-1.82-5.48-2.46-11.35-1.87-17.1.04-.44.14-.93.52-1.15.43-.24.99.06,1.22.49s.23.94.22,1.43c-.04,4.7.68,9.4,2.14,13.86.16.49.34,1,.73,1.34.79.69,2.1.33,2.77-.48s.83-1.9.93-2.94c.57-5.86-.27-11.86-2.75-17.23Z"/>
    <path class="cls-2" d="M351.06,341.21c3.29,15.49,5.26,31.56,5.16,47.4"/>
    <path class="cls-2" d="M427.62,373.58l-57.67,43.53-5.21-1.12s-24.93-37.95-20.09-65.49"/>
    <circle class="cls-7" cx="366.5" cy="419.34" r="3.81"/>
    <circle class="cls-2" cx="366.5" cy="419.34" r="3.81"/>
    <path class="cls-2" d="M406.03,257.48s21.21,16.19,23.44,21.77"/>
    <path class="cls-2" d="M327.34,269.21s-8.93,2.23-5.02,11.16"/>
  </g>
</svg>