<?xml version="1.0" encoding="UTF-8"?>
<svg id="Layer_1" xmlns="http://www.w3.org/2000/svg" xmlns:xlink="http://www.w3.org/1999/xlink" version="1.1" viewBox="0 0 841.89 467.72">
  <!-- Generator: Adobe Illustrator 29.0.0, SVG Export Plug-In . SVG Version: 2.1.0 Build 186)  -->
  <defs>
    <style>
      .st0, .st1, .st2, .st3 {
        fill: none;
      }

      .st1, .st2, .st4 {
        stroke: #55565a;
      }

      .st1, .st4, .st3 {
        stroke-miterlimit: 10;
      }

      .st5, .st4 {
        fill: #55565a;
      }

      .st6 {
        fill: #f7ceb4;
      }

      .st7 {
        fill: #fff;
      }

      .st2 {
        stroke-miterlimit: 10;
        stroke-width: 1px;
      }

      .st8 {
        fill: #1b2151;
      }

      .st9 {
        fill: #e5817d;
      }

      .st10 {
        fill: #f2c1be;
      }

      .st3 {
        stroke: #054ea1;
        stroke-width: .9px;
      }

      .st11 {
        clip-path: url(#clippath);
      }
    </style>
    <clipPath id="clippath">
      <rect class="st0" y="0" width="841.89" height="468.21"/>
    </clipPath>
  </defs>
  <g class="st11">
    <rect class="st9" y="0" width="841.89" height="468.21"/>
    <g>
      <path class="st7" d="M440.56,390.43c.24.02.48.05.72.07-.06-.31-.11-.62-.17-.93-.18.29-.37.57-.55.86Z"/>
      <path class="st7" d="M349.32,216.48c3.87-8.94,7.8-18.12,8.27-27.85.23-4.84-.38-9.85,1.21-14.43,2.3-6.62,8.63-10.89,12.63-16.65,5.72-8.24,6.28-18.87,9.27-28.44,3.47-11.08,13.69-14.92,22.7-22.27,6.59-5.38,11.04-15.37,19.19-17.81,19.27-5.76,36.6-7.9,54.25,1.76,7.54,4.12,34.18,19.78,44.43,42.99,3.85,8.71,6.69,18.67,8.83,28.88,1.86-8.76,2.19-21.66-5.09-37.29-3.5-7.53-12.38-23.7-18.39-29.42-11-10.47-22.75-20.54-36.65-26.63-6.77-2.96-13.93-4.93-21.1-6.7-5.76-1.43-11.59-2.75-17.52-2.92-16.31-.48-31.49,7.65-45.69,15.68-15.73,8.9-29.91,19.56-39.02,35.17-5.33,9.13-9.91,18.7-12.11,29.04-2.75,12.92-5.24,26.05-4.68,39.25.25,6.03,1.15,11.99,2.3,17.91,4.02.48,8.25,2.39,10.68,4.77,3.95,3.89,5.76,9.47,6.51,14.96h-.02Z"/>
      <path class="st7" d="M550.43,357.63c.25,1.62-.52,3.21-1.27,4.68-2.83,5.53-5.66,11.06-8.48,16.59-.35.69-.72,1.45-.55,2.21.24,1.11,1.48,1.66,2.56,2.01,5.42,1.76,11.06,2.81,16.75,3.11,1.55.08,3.22.15,4.47,1.07,1.28.94,1.84,2.57,2.21,4.12,2.69,11.31-.99,23.04-4.18,34.22-4.01,14.02-7.32,28.25-10.35,42.57h105.84c-5.12-18.96-7.58-38.58-12.84-57.51-1.28-4.6-2.76-9.24-5.54-13.11-3.31-4.62-8.2-7.82-13.03-10.8-28.15-17.38-58.43-31.29-89.94-41.37,3.76,2.38,7.42,4.87,10.84,7.61,1.55,1.24,3.23,2.66,3.53,4.62l-.02-.02Z"/>
      <path class="st7" d="M309.64,468.2c-7.9-17.74-16.12-35.31-25.48-52.32,8.74-7.45,18.78-13.37,29.52-17.44-7.28-4.59-14.15-9.84-20.5-15.64-1.22-1.12-2.52-2.47-2.46-4.13.05-1.36,1.01-2.5,1.92-3.51,3.13-3.49,6.25-6.97,9.38-10.46-3.4,1.62-6.83,3.18-10.23,4.74-29.19,13.38-57.93,27.87-85.27,44.72-7.04,4.34-14.24,9.1-18.4,16.24-3.83,6.58-4.63,14.42-5.5,21.98-.61,5.28-1.32,10.55-2.08,15.81h129.1Z"/>
      <path class="st7" d="M392.1,468.2h94.77c.17-8.6.44-17.18.91-25.73-1.02-2.04-2.13-4.04-3.34-5.97-4.43-7.09-10.08-13.43-13.8-20.92-2.02-4.07-3.44-8.43-5.8-12.31s-5.91-7.36-10.37-8.2c-1.12-.21-2.52-.57-3.44-1.19-.33.48-.71.91-1.24,1.14-2.68,1.15-5.81-3.7-8.02-1.79-.16-.91-.33-1.83-.49-2.74-.24-.02-.48-.05-.72-.07-1.48,2.29-3.06,4.56-4.15,7.02-8.54,19.37-20.51,37.21-35.21,52.44-3.03-19.88-17.71-35.7-26.41-53.82-3.04-6.32-5.34-12.93-7.22-19.67,2.79,20.61,6.55,41.04,12.82,60.84,3.34,10.53,7.37,20.8,11.7,30.96h0Z"/>
      <path class="st7" d="M481.63,353.84c-10.5,5.11-23.28,6.43-34.93,1.98-15.31-5.02-30.69-10.07-44.97-17.52-.99-.52-1.95-1.02-2.9-1.52-11.42-6.05-19.81-11.25-27.51-21.23-.52,1.49-1.11,2.96-1.78,4.39.14.17.27.35.41.52,9.23,11.51,18.81,22.84,29.95,32.52,11.55,10.04,24.61,18.16,37.29,26.73.85.57,1.72,1.18,2.24,2.06.41.7.56,1.53.71,2.33.33,1.83.65,3.65.98,5.48.06.31.11.62.17.93.16.91.33,1.83.49,2.74,2.21-1.91,5.34,2.94,8.02,1.79.53-.23.91-.66,1.24-1.14-.74-.49-1.17-1.15-.89-2.03.06-.19.15-.35.27-.5.42-.57,1.17-.9,1.85-1.18,1.01-.41,2-.86,2.98-1.32,4.63-2.18,8.97-4.92,12.95-8.12,11.1-8.92,19.41-21.39,23.31-35.09-3.26,3.62-6.61,6.59-9.88,8.19h0Z"/>
      <path class="st7" d="M440.13,384.09c-.14-.8-.29-1.62-.71-2.33-.52-.88-1.39-1.49-2.24-2.06-12.68-8.57-25.74-16.69-37.29-26.73-11.14-9.68-20.72-21.01-29.95-32.52-.14-.17-.27-.34-.41-.52.67-1.43,1.26-2.89,1.78-4.39-.65-.84-1.29-1.71-1.93-2.62-.9.55-1.74,1.2-2.52,1.91-3.46,3.15-5.77,7.76-6.64,12.43-1.32,7.05,0,14.29,1.32,21.34,1.52,8.15,3.06,16.35,5.13,24.39.15-.05.29-.11.44-.16.15,1.19.31,2.38.47,3.57,1.88,6.75,4.18,13.35,7.22,19.67,8.71,18.12,23.38,33.94,26.41,53.82,14.69-15.23,26.67-33.08,35.21-52.44,1.09-2.46,2.66-4.73,4.15-7.02.19-.29.37-.57.55-.86-.33-1.83-.65-3.65-.98-5.48h0Z"/>
      <path class="st7" d="M366.67,373c.29,1.14.6,2.27.91,3.4-.16-1.19-.32-2.38-.47-3.57-.15.05-.29.11-.44.16h0Z"/>
      <path class="st7" d="M551.59,468.2c3.03-14.32,6.34-28.55,10.35-42.57,3.2-11.18,6.87-22.91,4.18-34.22-.37-1.55-.93-3.18-2.21-4.12-1.25-.92-2.92-.98-4.47-1.07-5.69-.3-11.33-1.35-16.75-3.11-1.08-.35-2.31-.9-2.56-2.01-.17-.76.2-1.52.55-2.21,2.83-5.53,5.66-11.06,8.48-16.59.75-1.46,1.52-3.05,1.27-4.68-.3-1.96-1.98-3.38-3.53-4.62-3.42-2.74-7.08-5.23-10.84-7.61-10.06-6.37-20.85-11.95-29.88-19.31-2.72,3.89-5.77,8.36-9,12.62,1.17,8.79,1.38,17.71,1.3,26.59,0,.52,0,1.04-.01,1.56-.36,27.22-3.11,54.42-8.23,81.16-.74-1.89-1.57-3.73-2.48-5.55-.47,8.55-.74,17.13-.91,25.73h64.74Z"/>
      <path class="st7" d="M497.2,338.7c-.26.34-.52.68-.78,1.02-1.41,1.83-2.85,3.6-4.31,5.26-.2.22-.4.45-.59.67-3.9,13.7-12.21,26.16-23.31,35.09-3.98,3.2-8.32,5.94-12.95,8.12-.98.46-1.97.91-2.98,1.32-.68.28-1.43.61-1.85,1.18-.11.15-.21.31-.27.5-.28.87.15,1.53.89,2.03.92.61,2.32.98,3.44,1.19,4.46.84,8.01,4.32,10.37,8.2s3.78,8.24,5.8,12.31c3.72,7.49,9.37,13.82,13.8,20.92,1.21,1.93,2.32,3.93,3.34,5.97.9,1.81,1.74,3.66,2.48,5.55,5.11-26.74,7.87-53.93,8.23-81.16,0-.52,0-1.04.01-1.56.08-8.88-.13-17.8-1.3-26.59l-.02-.02Z"/>
      <path class="st7" d="M309.64,468.2h82.46c-4.33-10.16-8.36-20.43-11.7-30.96-6.27-19.8-10.03-40.23-12.82-60.84-.31-1.13-.62-2.27-.91-3.4-2.06-8.03-3.6-16.24-5.13-24.39-1.32-7.05-2.64-14.29-1.32-21.34.87-4.67,3.18-9.28,6.64-12.43.78-.71,1.62-1.36,2.52-1.91-.22-.31-.44-.61-.66-.94-.32-.47-.62-.96-.93-1.44-1.45-2.25-2.78-4.56-3.99-6.92-8.86,2.75-16.3,10.38-22.74,17.56-13.01,14.5-26.03,29.01-39.04,43.51-3.13,3.49-6.25,6.97-9.38,10.46-.91,1.02-1.87,2.15-1.92,3.51-.06,1.65,1.24,3.01,2.46,4.13,6.35,5.81,13.22,11.05,20.5,15.64-10.74,4.06-20.78,9.99-29.52,17.44,9.36,17,17.58,34.58,25.48,52.32h0Z"/>
      <path class="st7" d="M548.28,198.35c-.25-1.93-.51-3.86-.38-5.11-4.07,2.22-8.31,4.14-12.66,5.74.08.93.17,1.84.24,2.75,4.05-1.8,8.39-2.96,12.8-3.39h0Z"/>
      <path class="st7" d="M537.51,229.56c-.55-6.23-1.03-16.19-2.03-27.83-.08-.91-.16-1.82-.24-2.75-1.03-11.31-2.57-24-5.15-36.32-2.14-10.21-4.98-20.17-8.83-28.88-10.26-23.21-36.89-38.87-44.43-42.99-17.64-9.66-34.98-7.53-54.25-1.76-8.15,2.44-12.59,12.43-19.19,17.81-9.01,7.35-19.23,11.19-22.7,22.27-2.99,9.57-3.55,20.2-9.27,28.44-4,5.76-10.33,10.03-12.63,16.65-1.59,4.58-.97,9.58-1.21,14.43-.47,9.73-4.4,18.91-8.27,27.85-.75-5.49-2.57-11.08-6.51-14.96-2.42-2.39-6.66-4.29-10.68-4.77-2.53-.3-4.97-.05-6.83,1.02-4.19,2.4-5.27,12.1-5.23,16.93s3.15,5.84,4.85,10.35c4.61,12.21,9.97,24.17,13.84,36.63,2.89,9.29,13.68,10.74,13.68,10.74,2.53,8.67,5.73,20.31,11.35,31.23,1.21,2.35,2.54,4.67,3.99,6.92.31.48.61.96.93,1.44.22.32.44.62.66.94.64.91,1.28,1.78,1.93,2.62,7.7,9.98,16.09,15.18,27.51,21.23.95.5,1.91,1.01,2.9,1.52,14.28,7.45,29.67,12.5,44.97,17.52,11.65,4.44,24.43,3.12,34.93-1.98,3.28-1.59,6.62-4.57,9.88-8.19.2-.22.4-.45.59-.67,1.46-1.66,2.9-3.43,4.31-5.26.26-.34.52-.68.78-1.02,3.22-4.25,6.27-8.73,9-12.62,1.54-2.2,2.97-4.21,4.27-5.89,22.08-28.51,30.23-54.71,27.05-90.64h.03Z"/>
    </g>
    <g>
      <path class="st0" d="M441.86,393.87c.24.02.48.05.72.07-.06-.31-.11-.62-.17-.93-.18.29-.37.57-.55.86Z"/>
      <path class="st4" d="M349.61,216.91c3.87-8.94,7.8-18.12,8.27-27.85.23-4.84-.38-9.85,1.21-14.43,2.3-6.62,8.63-10.89,12.63-16.65,5.72-8.24,6.28-18.87,9.27-28.44,3.47-11.08,13.69-14.92,22.7-22.27,6.59-5.38,11.04-15.37,19.19-17.81,19.27-5.76,36.6-7.9,54.25,1.76,7.54,4.12,34.18,19.78,44.43,42.99,3.85,8.71,6.69,18.67,8.83,28.88,1.86-8.76,2.19-21.66-5.09-37.29-3.5-7.53-12.38-23.7-18.39-29.42-11-10.47-22.75-20.54-36.65-26.63-6.77-2.96-13.93-4.93-21.1-6.7-5.76-1.43-11.59-2.75-17.52-2.92-16.31-.48-31.49,7.65-45.69,15.68-15.73,8.9-29.91,19.56-39.02,35.17-5.33,9.13-9.91,18.7-12.11,29.04-2.75,12.92-5.24,26.05-4.68,39.25.25,6.03,1.15,11.99,2.3,17.91,4.02.48,8.25,2.39,10.68,4.77,3.95,3.89,5.76,9.47,6.51,14.96h-.02Z"/>
      <path class="st8" d="M551.73,361.06c.25,1.62-.52,3.21-1.27,4.68-2.83,5.53-5.66,11.06-8.48,16.59-.35.69-.72,1.45-.55,2.21.24,1.11,1.48,1.66,2.56,2.01,5.42,1.76,11.06,2.81,16.75,3.11,1.55.08,3.22.15,4.47,1.07,1.28.94,1.84,2.57,2.21,4.12,2.69,11.31-.99,23.04-4.18,34.22-4.01,14.02-7.32,28.25-10.35,42.57h105.84c-5.12-18.96-7.58-38.58-12.84-57.51-1.28-4.6-2.76-9.24-5.54-13.11-3.31-4.62-8.2-7.82-13.03-10.8-28.15-17.38-58.43-31.29-89.94-41.37,3.76,2.38,7.42,4.87,10.84,7.61,1.55,1.24,3.23,2.66,3.53,4.62l-.02-.02Z"/>
      <path class="st8" d="M310.93,471.63c-7.9-17.74-16.12-35.31-25.48-52.32,8.74-7.45,18.78-13.37,29.52-17.44-7.28-4.59-14.15-9.84-20.5-15.64-1.22-1.12-2.52-2.47-2.46-4.13.05-1.36,1.01-2.5,1.92-3.51,3.13-3.49,6.25-6.97,9.38-10.46-3.4,1.62-6.83,3.18-10.23,4.74-29.19,13.38-57.93,27.87-85.27,44.72-7.04,4.34-14.24,9.1-18.4,16.24-3.83,6.58-4.63,14.42-5.5,21.98-.61,5.28-1.32,10.55-2.08,15.81h129.1Z"/>
      <path class="st10" d="M393.39,471.63h94.77c.17-8.6.44-17.18.91-25.73-1.02-2.04-2.13-4.04-3.34-5.97-4.43-7.09-10.08-13.43-13.8-20.92-2.02-4.07-3.44-8.43-5.8-12.31s-5.91-7.36-10.37-8.2c-1.12-.21-2.52-.57-3.44-1.19-.33.48-.71.91-1.24,1.14-2.68,1.15-5.81-3.7-8.02-1.79-.16-.91-.33-1.83-.49-2.74-.24-.02-.48-.05-.72-.07-1.48,2.29-3.06,4.56-4.15,7.02-8.54,19.37-20.51,37.21-35.21,52.44-3.03-19.88-17.71-35.7-26.41-53.82-3.04-6.32-5.34-12.93-7.22-19.67,2.79,20.61,6.55,41.04,12.82,60.84,3.34,10.53,7.37,20.8,11.7,30.96h0Z"/>
      <path class="st6" d="M482.92,357.27c-10.5,5.11-23.28,6.43-34.93,1.98-15.31-5.02-30.69-10.07-44.97-17.52-.99-.52-1.95-1.02-2.9-1.52-11.42-6.05-19.81-11.25-27.51-21.23-.52,1.49-1.11,2.96-1.78,4.39.14.17.27.35.41.52,9.23,11.51,18.81,22.84,29.95,32.52,11.55,10.04,24.61,18.16,37.29,26.73.85.57,1.72,1.18,2.24,2.06.41.7.56,1.53.71,2.33.33,1.83.65,3.65.98,5.48.06.31.11.62.17.93.16.91.33,1.83.49,2.74,2.21-1.91,5.34,2.94,8.02,1.79.53-.23.91-.66,1.24-1.14-.74-.49-1.17-1.15-.89-2.03.06-.19.15-.35.27-.5.42-.57,1.17-.9,1.85-1.18,1.01-.41,2-.86,2.98-1.32,4.63-2.18,8.97-4.92,12.95-8.12,11.1-8.92,19.41-21.39,23.31-35.09-3.26,3.62-6.61,6.59-9.88,8.19h0Z"/>
      <path class="st10" d="M441.43,387.52c-.14-.8-.29-1.62-.71-2.33-.52-.88-1.39-1.49-2.24-2.06-12.68-8.57-25.74-16.69-37.29-26.73-11.14-9.68-20.72-21.01-29.95-32.52-.14-.17-.27-.34-.41-.52.67-1.43,1.26-2.89,1.78-4.39-.65-.84-1.29-1.71-1.93-2.62-.9.55-1.74,1.2-2.52,1.91-3.46,3.15-5.77,7.76-6.64,12.43-1.32,7.05,0,14.29,1.32,21.34,1.52,8.15,3.06,16.35,5.13,24.39.15-.05.29-.11.44-.16.15,1.19.31,2.38.47,3.57,1.88,6.75,4.18,13.35,7.22,19.67,8.71,18.12,23.38,33.94,26.41,53.82,14.69-15.23,26.67-33.08,35.21-52.44,1.09-2.46,2.66-4.73,4.15-7.02.19-.29.37-.57.55-.86-.33-1.83-.65-3.65-.98-5.48h0Z"/>
      <path class="st3" d="M367.96,376.43c.29,1.14.6,2.27.91,3.4-.16-1.19-.32-2.38-.47-3.57-.15.05-.29.11-.44.16h0Z"/>
      <path class="st8" d="M552.88,471.63c3.03-14.32,6.34-28.55,10.35-42.57,3.2-11.18,6.87-22.91,4.18-34.22-.37-1.55-.93-3.18-2.21-4.12-1.25-.92-2.92-.98-4.47-1.07-5.69-.3-11.33-1.35-16.75-3.11-1.08-.35-2.31-.9-2.56-2.01-.17-.76.2-1.52.55-2.21,2.83-5.53,5.66-11.06,8.48-16.59.75-1.46,1.52-3.05,1.27-4.68-.3-1.96-1.98-3.38-3.53-4.62-3.42-2.74-7.08-5.23-10.84-7.61-10.06-6.37-20.85-11.95-29.88-19.31-2.72,3.89-5.77,8.36-9,12.62,1.17,8.79,1.38,17.71,1.3,26.59,0,.52,0,1.04-.01,1.56-.36,27.22-3.11,54.42-8.23,81.16-.74-1.89-1.57-3.73-2.48-5.55-.47,8.55-.74,17.13-.91,25.73h64.74Z"/>
      <path class="st10" d="M498.49,342.14c-.26.34-.52.68-.78,1.02-1.41,1.83-2.85,3.6-4.31,5.26-.2.22-.4.45-.59.67-3.9,13.7-12.21,26.16-23.31,35.09-3.98,3.2-8.32,5.94-12.95,8.12-.98.46-1.97.91-2.98,1.32-.68.28-1.43.61-1.85,1.18-.11.15-.21.31-.27.5-.28.87.15,1.53.89,2.03.92.61,2.32.98,3.44,1.19,4.46.84,8.01,4.32,10.37,8.2s3.78,8.24,5.8,12.31c3.72,7.49,9.37,13.82,13.8,20.92,1.21,1.93,2.32,3.93,3.34,5.97.9,1.81,1.74,3.66,2.48,5.55,5.11-26.74,7.87-53.93,8.23-81.16,0-.52,0-1.04.01-1.56.08-8.88-.13-17.8-1.3-26.59l-.02-.02Z"/>
      <path class="st8" d="M310.93,471.63h82.46c-4.33-10.16-8.36-20.43-11.7-30.96-6.27-19.8-10.03-40.23-12.82-60.84-.31-1.13-.62-2.27-.91-3.4-2.06-8.03-3.6-16.24-5.13-24.39-1.32-7.05-2.64-14.29-1.32-21.34.87-4.67,3.18-9.28,6.64-12.43.78-.71,1.62-1.36,2.52-1.91-.22-.31-.44-.61-.66-.94-.32-.47-.62-.96-.93-1.44-1.45-2.25-2.78-4.56-3.99-6.92-8.86,2.75-16.3,10.38-22.74,17.56-13.01,14.5-26.03,29.01-39.04,43.51-3.13,3.49-6.25,6.97-9.38,10.46-.91,1.02-1.87,2.15-1.92,3.51-.06,1.65,1.24,3.01,2.46,4.13,6.35,5.81,13.22,11.05,20.5,15.64-10.74,4.06-20.78,9.99-29.52,17.44,9.36,17,17.58,34.58,25.48,52.32h0Z"/>
      <path class="st5" d="M548.28,198.35c-.25-1.93-.51-3.86-.38-5.11-4.07,2.22-8.31,4.14-12.66,5.74.08.93.17,1.84.24,2.75,4.05-1.8,8.39-2.96,12.8-3.39h0Z"/>
      <path class="st6" d="M538.8,233c-.55-6.23-1.03-16.19-2.03-27.83-.08-.91-.16-1.82-.24-2.75-1.03-11.31-2.57-24-5.15-36.32-2.14-10.21-4.98-20.17-8.83-28.88-10.26-23.21-36.89-38.87-44.43-42.99-17.64-9.66-34.98-7.53-54.25-1.76-8.15,2.44-12.59,12.43-19.19,17.81-9.01,7.35-19.23,11.19-22.7,22.27-2.99,9.57-3.55,20.2-9.27,28.44-4,5.76-10.33,10.03-12.63,16.65-1.59,4.58-.97,9.58-1.21,14.43-.47,9.73-4.4,18.91-8.27,27.85-.75-5.49-2.57-11.08-6.51-14.96-2.42-2.39-6.66-4.29-10.68-4.77-2.53-.3-4.97-.05-6.83,1.02-4.19,2.4-5.27,12.1-5.23,16.93s3.15,5.84,4.85,10.35c4.61,12.21,9.97,24.17,13.84,36.63,2.89,9.29,13.68,10.74,13.68,10.74,2.53,8.67,5.73,20.31,11.35,31.23,1.21,2.35,2.54,4.67,3.99,6.92.31.48.61.96.93,1.44.22.32.44.62.66.94.64.91,1.28,1.78,1.93,2.62,7.7,9.98,16.09,15.18,27.51,21.23.95.5,1.91,1.01,2.9,1.52,14.28,7.45,29.67,12.5,44.97,17.52,11.65,4.44,24.43,3.12,34.93-1.98,3.28-1.59,6.62-4.57,9.88-8.19.2-.22.4-.45.59-.67,1.46-1.66,2.9-3.43,4.31-5.26.26-.34.52-.68.78-1.02,3.22-4.25,6.27-8.73,9-12.62,1.54-2.2,2.97-4.21,4.27-5.89,22.08-28.51,30.23-54.71,27.05-90.64h.03Z"/>
    </g>
    <path class="st1" d="M460.42,260.67c-3.79-3.98-9.99-5.46-15.17-3.62"/>
    <path class="st1" d="M472.97,263.42c1.5-.74,2.76-1.87,4.03-2.95s2.6-2.15,4.17-2.74,3.42-.62,4.82.3"/>
    <path class="st1" d="M487.94,259.01c2.35-.71,4.06-2.89,4.66-5.27s.2-4.92-.63-7.22c-1.21-3.35-3.33-6.37-6.08-8.64"/>
    <path class="st1" d="M442.37,256.88c-2.26-.32-4.34-1.69-5.52-3.65s-1.42-4.44-.65-6.58c1-2.77,3.46-4.71,5.88-6.39"/>
    <path class="st1" d="M470.8,264.4c-2.87.66-5.95.43-8.69-.65"/>
    <path class="st7" d="M416.1,283.88c9.45-4.43,20.21-6.02,30.54-4.5,5.66.83,11.23,2.58,16.95,2.56,4.25-.02,8.43-1.01,12.6-1.85s8.45-1.53,12.66-.95,8.41,2.62,10.67,6.02c-1.77,3.33-4.34,6.22-7.04,8.52-11.76,7.09-25.95,10.06-39.57,8.3s-26.58-8.25-36.82-18.09h0Z"/>
    <path class="st1" d="M349.5,250.2c-2.38-4.71-4.82-9.73-4.41-14.99.25-3.2,1.57-6.33,1.21-9.51-.24-2.14-1.22-4.12-2.18-6.05-1.74-3.49-3.49-6.99-5.23-10.48-.51-1.03-1.05-2.09-1.88-2.88-1.63-1.53-4.04-1.77-6.27-1.93-1.21-.09-2.49-.16-3.58.37-.92.45-1.6,1.29-2.09,2.18-2.16,3.89-1.28,8.76.25,12.94s3.67,8.26,3.92,12.71"/>
    <path class="st1" d="M332.25,215.53c-1.57,5.34.78,11,.65,16.56-.06,2.56-.63,5.18.06,7.64.95,3.39,4.03,5.67,6.92,7.68"/>
    <path class="st1" d="M341.31,229.99c.93,3.71,1.38,7.54,1.33,11.36"/>
    <path class="st1" d="M353.16,270.57c-1.5-7.31,1.26-14.93.13-22.3-.71-4.63-2.94-9-3.04-13.69"/>
    <path class="st4" d="M553.82,188.67c-3.03-1.16-6.73-.52-9.34-2.44-1-.74-10.76-10.78-33.97-10.63-12.16.07-23.64,7.95-27.85,12.07-.51.5-1.24.68-1.92.48-8.23-2.4-17.17-2.42-25.76-.25.43-.11-15.74-11.83-18.74-12.96-12.47-4.71-32.24-7.51-43.73,1.22-7.66,5.82-18.27,5.15-27.47,7.94-3.2.97-6.24,2.36-9.28,3.75-6.24,2.86-12.71,6.8-19.12,9.83.74,1.1,0,0,3.85,1.79,10.39-3.09,16.33-6.82,29.37-10.13,2.19-.56,4.28-1.68,6.54-1.65s4.68,1.16,5.5,3.27c.32.82.38,1.72.44,2.61.22,3.38.43,6.76.69,10.26-.21,11.26,9.94,29.75,27.95,31.88,7.34.87,15.69.13,22.67-2.29,7.98-2.77,14.13-9.54,17.65-17.22,3.52-7.68,4.66-16.24,5.62-23.96,5.39-3.2,20.43-3.73,21.34,2.55-.94,7.05-.53,14.36,1.84,21.07,2.36,6.71,6.75,12.81,12.74,16.65,6.08,3.89,22.97,8.58,33.71,3.56,13.81-6.46,21.09-24.82,20.7-37.42-.22-2.73,5.71-1.89,6.39-2.92,1.36-2.06,1.44-4.89.19-7.02v-.04ZM452.27,200.58c-1.12,7.86-4.5,16.15-10.16,22.6s-14.04,10.32-22.62,10.32c-16.51,0-24.29-8.21-26.12-10.1-5.5-5.66-7.37-13.92-7.82-21.79-.3-5.33,0-10.92,2.63-15.56,3.32-5.86,9.86-9.54,16.53-10.49,21.72-3.12,33.08,2.98,36.29,4.8,1.28.72,2.56,1.45,3.74,2.32,5.48,4.02,8.49,11.17,7.53,17.9h0ZM539.67,217.27c-8.8,29.61-41.79,16.55-46.78,12.98-7.81-5.57-10.74-13.23-11.81-22.75-.6-5.37.75-10.78,2.74-15.8.7-1.76,1.45-3.59,2.88-4.85,12.72-11.19,49.72-16.16,55.19,6.29,2.21,9.08.45,15.18-2.21,24.13h0Z"/>
    <g>
      <path class="st1" d="M440.23,390.13c.24.02.48.05.72.07-.06-.31-.11-.62-.17-.93-.18.29-.37.57-.55.86Z"/>
      <path class="st1" d="M348.98,216.17c3.87-8.94,7.8-18.12,8.27-27.85.23-4.84-.38-9.85,1.21-14.43,2.3-6.62,8.63-10.89,12.63-16.65,5.72-8.24,6.28-18.87,9.27-28.44,3.47-11.08,13.69-14.92,22.7-22.27,6.59-5.38,11.04-15.37,19.19-17.81,19.27-5.76,36.6-7.9,54.25,1.76,7.54,4.12,34.18,19.78,44.43,42.99,3.85,8.71,6.69,18.67,8.83,28.88,1.86-8.76,2.19-21.66-5.09-37.29-3.5-7.53-12.38-23.7-18.39-29.42-11-10.47-22.75-20.54-36.65-26.63-6.77-2.96-13.93-4.93-21.1-6.7-5.76-1.43-11.59-2.75-17.52-2.92-16.31-.48-31.49,7.65-45.69,15.68-15.73,8.9-29.91,19.56-39.02,35.17-5.33,9.13-9.91,18.7-12.11,29.04-2.75,12.92-5.24,26.05-4.68,39.25.25,6.03,1.15,11.99,2.3,17.91,4.02.48,8.25,2.39,10.68,4.77,3.95,3.89,5.76,9.47,6.51,14.96h-.02Z"/>
      <path class="st1" d="M550.09,357.32c.25,1.62-.52,3.21-1.27,4.68-2.83,5.53-5.66,11.06-8.48,16.59-.35.69-.72,1.45-.55,2.21.24,1.11,1.48,1.66,2.56,2.01,5.42,1.76,11.06,2.81,16.75,3.11,1.55.08,3.22.15,4.47,1.07,1.28.94,1.84,2.57,2.21,4.12,2.69,11.31-.99,23.04-4.18,34.22-4.01,14.02-7.32,28.25-10.35,42.57h105.84c-5.12-18.96-7.58-38.58-12.84-57.51-1.28-4.6-2.76-9.24-5.54-13.11-3.31-4.62-8.2-7.82-13.03-10.8-28.15-17.38-58.43-31.29-89.94-41.37,3.76,2.38,7.42,4.87,10.84,7.61,1.55,1.24,3.23,2.66,3.53,4.62l-.02-.02Z"/>
      <path class="st1" d="M309.3,467.89c-7.9-17.74-16.12-35.31-25.48-52.32,8.74-7.45,18.78-13.37,29.52-17.44-7.28-4.59-14.15-9.84-20.5-15.64-1.22-1.12-2.52-2.47-2.46-4.13.05-1.36,1.01-2.5,1.92-3.51,3.13-3.49,6.25-6.97,9.38-10.46-3.4,1.62-6.83,3.18-10.23,4.74-29.19,13.38-57.93,27.87-85.27,44.72-7.04,4.34-14.24,9.1-18.4,16.24-3.83,6.58-4.63,14.42-5.5,21.98-.61,5.28-1.32,10.55-2.08,15.81h129.1Z"/>
      <path class="st1" d="M391.76,467.89h94.77c.17-8.6.44-17.18.91-25.73-1.02-2.04-2.13-4.04-3.34-5.97-4.43-7.09-10.08-13.43-13.8-20.92-2.02-4.07-3.44-8.43-5.8-12.31s-5.91-7.36-10.37-8.2c-1.12-.21-2.52-.57-3.44-1.19-.33.48-.71.91-1.24,1.14-2.68,1.15-5.81-3.7-8.02-1.79-.16-.91-.33-1.83-.49-2.74-.24-.02-.48-.05-.72-.07-1.48,2.29-3.06,4.56-4.15,7.02-8.54,19.37-20.51,37.21-35.21,52.44-3.03-19.88-17.71-35.7-26.41-53.82-3.04-6.32-5.34-12.93-7.22-19.67,2.79,20.61,6.55,41.04,12.82,60.84,3.34,10.53,7.37,20.8,11.7,30.96h0Z"/>
      <path class="st1" d="M481.29,353.53c-10.5,5.11-23.28,6.43-34.93,1.98-15.31-5.02-30.69-10.07-44.97-17.52-.99-.52-1.95-1.02-2.9-1.52-11.42-6.05-19.81-11.25-27.51-21.23-.52,1.49-1.11,2.96-1.78,4.39.14.17.27.35.41.52,9.23,11.51,18.81,22.84,29.95,32.52,11.55,10.04,24.61,18.16,37.29,26.73.85.57,1.72,1.18,2.24,2.06.41.7.56,1.53.71,2.33.33,1.83.65,3.65.98,5.48.06.31.11.62.17.93.16.91.33,1.83.49,2.74,2.21-1.91,5.34,2.94,8.02,1.79.53-.23.91-.66,1.24-1.14-.74-.49-1.17-1.15-.89-2.03.06-.19.15-.35.27-.5.42-.57,1.17-.9,1.85-1.18,1.01-.41,2-.86,2.98-1.32,4.63-2.18,8.97-4.92,12.95-8.12,11.1-8.92,19.41-21.39,23.31-35.09-3.26,3.62-6.61,6.59-9.88,8.19h0Z"/>
      <path class="st1" d="M439.8,383.78c-.14-.8-.29-1.62-.71-2.33-.52-.88-1.39-1.49-2.24-2.06-12.68-8.57-25.74-16.69-37.29-26.73-11.14-9.68-20.72-21.01-29.95-32.52-.14-.17-.27-.34-.41-.52.67-1.43,1.26-2.89,1.78-4.39-.65-.84-1.29-1.71-1.93-2.62-.9.55-1.74,1.2-2.52,1.91-3.46,3.15-5.77,7.76-6.64,12.43-1.32,7.05,0,14.29,1.32,21.34,1.52,8.15,3.06,16.35,5.13,24.39.15-.05.29-.11.44-.16.15,1.19.31,2.38.47,3.57,1.88,6.75,4.18,13.35,7.22,19.67,8.71,18.12,23.38,33.94,26.41,53.82,14.69-15.23,26.67-33.08,35.21-52.44,1.09-2.46,2.66-4.73,4.15-7.02.19-.29.37-.57.55-.86-.33-1.83-.65-3.65-.98-5.48h0Z"/>
      <path class="st1" d="M366.33,372.69c.29,1.14.6,2.27.91,3.4-.16-1.19-.32-2.38-.47-3.57-.15.05-.29.11-.44.16h0Z"/>
      <path class="st1" d="M551.25,467.89c3.03-14.32,6.34-28.55,10.35-42.57,3.2-11.18,6.87-22.91,4.18-34.22-.37-1.55-.93-3.18-2.21-4.12-1.25-.92-2.92-.98-4.47-1.07-5.69-.3-11.33-1.35-16.75-3.11-1.08-.35-2.31-.9-2.56-2.01-.17-.76.2-1.52.55-2.21,2.83-5.53,5.66-11.06,8.48-16.59.75-1.46,1.52-3.05,1.27-4.68-.3-1.96-1.98-3.38-3.53-4.62-3.42-2.74-7.08-5.23-10.84-7.61-10.06-6.37-20.85-11.95-29.88-19.31-2.72,3.89-5.77,8.36-9,12.62,1.17,8.79,1.38,17.71,1.3,26.59,0,.52,0,1.04-.01,1.56-.36,27.22-3.11,54.42-8.23,81.16-.74-1.89-1.57-3.73-2.48-5.55-.47,8.55-.74,17.13-.91,25.73h64.74Z"/>
      <path class="st1" d="M496.86,338.4c-.26.34-.52.68-.78,1.02-1.41,1.83-2.85,3.6-4.31,5.26-.2.22-.4.45-.59.67-3.9,13.7-12.21,26.16-23.31,35.09-3.98,3.2-8.32,5.94-12.95,8.12-.98.46-1.97.91-2.98,1.32-.68.28-1.43.61-1.85,1.18-.11.15-.21.31-.27.5-.28.87.15,1.53.89,2.03.92.61,2.32.98,3.44,1.19,4.46.84,8.01,4.32,10.37,8.2s3.78,8.24,5.8,12.31c3.72,7.49,9.37,13.82,13.8,20.92,1.21,1.93,2.32,3.93,3.34,5.97.9,1.81,1.74,3.66,2.48,5.55,5.11-26.74,7.87-53.93,8.23-81.16,0-.52,0-1.04.01-1.56.08-8.88-.13-17.8-1.3-26.59l-.02-.02Z"/>
      <path class="st1" d="M309.3,467.89h82.46c-4.33-10.16-8.36-20.43-11.7-30.96-6.27-19.8-10.03-40.23-12.82-60.84-.31-1.13-.62-2.27-.91-3.4-2.06-8.03-3.6-16.24-5.13-24.39-1.32-7.05-2.64-14.29-1.32-21.34.87-4.67,3.18-9.28,6.64-12.43.78-.71,1.62-1.36,2.52-1.91-.22-.31-.44-.61-.66-.94-.32-.47-.62-.96-.93-1.44-1.45-2.25-2.78-4.56-3.99-6.92-8.86,2.75-16.3,10.38-22.74,17.56-13.01,14.5-26.03,29.01-39.04,43.51-3.13,3.49-6.25,6.97-9.38,10.46-.91,1.02-1.87,2.15-1.92,3.51-.06,1.65,1.24,3.01,2.46,4.13,6.35,5.81,13.22,11.05,20.5,15.64-10.74,4.06-20.78,9.99-29.52,17.44,9.36,17,17.58,34.58,25.48,52.32h0Z"/>
      <path class="st1" d="M537.17,229.26c-.55-6.23-1.03-16.19-2.03-27.83-.08-.91-.16-1.82-.24-2.75-1.03-11.31-2.57-24-5.15-36.32-2.14-10.21-4.98-20.17-8.83-28.88-10.26-23.21-36.89-38.87-44.43-42.99-17.64-9.66-34.98-7.53-54.25-1.76-8.15,2.44-12.59,12.43-19.19,17.81-9.01,7.35-19.23,11.19-22.7,22.27-2.99,9.57-3.55,20.2-9.27,28.44-4,5.76-10.33,10.03-12.63,16.65-1.59,4.58-.97,9.58-1.21,14.43-.47,9.73-4.4,18.91-8.27,27.85-.75-5.49-2.57-11.08-6.51-14.96-2.42-2.39-6.66-4.29-10.68-4.77-2.53-.3-4.97-.05-6.83,1.02-4.19,2.4-5.27,12.1-5.23,16.93s3.15,5.84,4.85,10.35c4.61,12.21,9.97,24.17,13.84,36.63,2.89,9.29,13.68,10.74,13.68,10.74,2.53,8.67,5.73,20.31,11.35,31.23,1.21,2.35,2.54,4.67,3.99,6.92.31.48.61.96.93,1.44.22.32.44.62.66.94.64.91,1.28,1.78,1.93,2.62,7.7,9.98,16.09,15.18,27.51,21.23.95.5,1.91,1.01,2.9,1.52,14.28,7.45,29.67,12.5,44.97,17.52,11.65,4.44,24.43,3.12,34.93-1.98,3.28-1.59,6.62-4.57,9.88-8.19.2-.22.4-.45.59-.67,1.46-1.66,2.9-3.43,4.31-5.26.26-.34.52-.68.78-1.02,3.22-4.25,6.27-8.73,9-12.62,1.54-2.2,2.97-4.21,4.27-5.89,22.08-28.51,30.23-54.71,27.05-90.64h.03Z"/>
    </g>
    <path class="st1" d="M453,397.2c-7.99,4.14-16.55,8.86-20.15,17.1-2.05,4.68-2.21,9.94-2.21,15.04"/>
    <path class="st1" d="M463.71,409.12c-.44,18.15,2.84,36.15,5.28,54.15"/>
    <path class="st1" d="M449.47,405.09c-2.4,1.63-4.4,3.86-5.77,6.42,1.53,2.44,4.67,3.75,7.48,3.14s5.12-3.11,5.5-5.97c.14-1.08,0-2.28-.74-3.09-.7-.77-1.8-1.04-2.83-1.11-1.64-.1-3.22.31-3.64.6h0Z"/>
    <circle class="st5" cx="418.95" cy="194.33" r="5.17"/>
    <circle class="st5" cx="503.34" cy="197.18" r="5.17"/>
    <path class="st1" d="M416.1,283.88c9.45-4.43,20.21-6.02,30.54-4.5,5.66.83,11.23,2.58,16.95,2.56,4.25-.02,8.43-1.01,12.6-1.85s8.45-1.53,12.66-.95,8.41,2.62,10.67,6.02c-1.77,3.33-4.34,6.22-7.04,8.52-11.76,7.09-25.95,10.06-39.57,8.3s-26.58-8.25-36.82-18.09h0Z"/>
    <rect class="st7" x="339.9" y="258.5" width="8.21" height="8.21" transform="translate(-51.58 87.08) rotate(-13.43)"/>
    <rect class="st7" x="340.43" y="256.63" width="8.21" height="8.21" transform="translate(-51.14 87.15) rotate(-13.43)"/>
    <rect class="st2" x="339.9" y="258.5" width="8.21" height="8.21" transform="translate(-51.58 87.08) rotate(-13.43)"/>
  </g>
</svg>