<?xml version="1.0" encoding="UTF-8"?>
<svg id="Layer_1" xmlns="http://www.w3.org/2000/svg" xmlns:xlink="http://www.w3.org/1999/xlink" version="1.1" viewBox="0 0 841.89 467.72">
  <!-- Generator: Adobe Illustrator 29.0.0, SVG Export Plug-In . SVG Version: 2.1.0 Build 186)  -->
  <defs>
    <style>
      .st0, .st1 {
        fill: none;
      }

      .st2, .st3 {
        fill: #55565a;
      }

      .st4 {
        fill: #f8afa8;
      }

      .st3, .st1 {
        stroke: #55565a;
        stroke-miterlimit: 10;
        stroke-width: .81px;
      }

      .st5 {
        fill: #df625c;
      }

      .st6 {
        fill: #6ba5c7;
      }

      .st7 {
        fill: #fff;
      }

      .st8 {
        fill: #e5817d;
      }

      .st9 {
        clip-path: url(#clippath);
      }
    </style>
    <clipPath id="clippath">
      <rect class="st0" y="0" width="841.89" height="467.72"/>
    </clipPath>
  </defs>
  <g class="st9">
    <rect class="st6" y="0" width="841.89" height="467.72"/>
    <g>
      <path class="st7" d="M506.62,200.61c-.29-1.45-.83-2.83-1.44-4.17-.91-4.2-1.94-8.42-4.17-12.08-1.8-2.95-4.3-5.42-6.07-8.38l-.18-.33c-.28-.49-.54-.99-.79-1.5-1.31-2.7-2.25-5.6-3.76-8.2-.7-1.21-1.52-2.33-2.43-3.38-3.93-4.51-9.57-7.49-15.3-9.47-7.04-2.44-14.48-3.66-21.46-6.28-4.72-1.77-9.2-4.17-14.01-5.71-8.02-2.57-16.6-2.65-25.01-2.3-13.98.6-28.17,2.42-40.88,8.29-12.7,5.87-23.85,16.27-27.97,29.64-1.59,5.17-2.1,10.61-3.26,15.89-1.47,6.69-3.99,13.28-5.38,19.95,2.12,2.31,2.35,6.15,2.79,9.44,1.77,13.3,11.43,24.97,11.27,38.38,0,.61-.02,1.28.38,1.75.85.99,2.6.15,3.71.83.9.55.99,1.8,1.06,2.85.51,7.35,5.9,14.12,12.95,16.27-1.06-5.21-.36-10.59.34-15.85.14-1.04.28-2.11.76-3.05,1.54-3.05,5.64-3.49,9.05-3.53-.25-1.86,1.32-2.76,2.59-2.72,1.27.05,2.59.54,3.76.04,1.22-.52,1.77-1.89,2.49-3.01,1.45-2.26,3.91-3.72,6.5-4.42,2.59-.71,13.54.1,13.54.1,4.8-.02,6.61.08,10.14,3.34,1.2,1.11,2.17,2.56,3.66,3.22,2.89,1.27,6.06-.95,8.32-3.16,2.25-2.21,4.95-4.76,8.06-4.22.87.15,1.71.55,2.59.53,1.35-.04,2.46-1.03,3.71-1.53,1.99-.8,4.32-.29,6.17.8,1.85,1.1,3.31,2.73,4.25,4.76.37-1.74.24-3.58-.36-5.25,2.43,1.04,4.61,2.67,6.29,4.72-.1-.99-.06-1.99.13-2.97.04-.23.12-.48.33-.57.15-.07.33-.03.49.02l7.63,2.01c.37.1.77.21,1.02.51.29.34.31.84.5,1.24s1.74.41,1.59.49c2.33.31,4.39-1.35,6.39-2.58.2-.12.41-.24.64-.25.6,0,.91.69,1.26,1.18.76,1.06,2.19,1.35,3.49,1.55.82.13,1.65.25,2.46.11,2.34-.42,3.65-2.83,5.34-4.5-.4,3.22-3.84,7.97-3.5,7.77,0,0,4.36.33,8.81-4.7-.71,1.12-.1,2.69.97,3.48,1.06.79,2.44,1,3.75,1.19.39-16.18,4.18-32.06,6.54-48.08.21-1.46.41-2.93.47-4.4.05-1.26,0-2.51-.25-3.74l.03-.02Z"/>
      <path class="st7" d="M338.25,116.38c5.71-5.79,11.64-11.35,17.92-16.52,4.01-3.29,8.22-6.43,12.98-8.51,3.88-1.69,8.04-2.64,12.2-3.45,25.2-4.88,51.36-4.77,76.52.33,5.81,1.18,11.72,2.68,16.57,6.09,2.81,1.98,5.16,4.53,7.49,7.05,12.65,13.73,25.47,27.74,35.1,43.62-1.02-7.54-2.87-14.96-5.53-22.09-2.08-5.57-4.65-10.95-7.21-16.31-2.05-4.3-4.1-8.6-6.16-12.9-1.7-3.56-3.42-7.15-5.85-10.25-3.76-4.81-9.01-8.18-14.15-11.47-5.72-3.65-11.44-7.31-17.15-10.96-8.68-5.55-17.67-11.21-40.48-15.19-8.73-1.53-17.71-.64-26.02,2.47-19.82,7.42-40.57,13.94-53.39,30.31-5.25,6.7-8.72,14.6-12.14,22.4-4.6,10.5-9.25,21.19-10.63,32.58-.59,4.88-.57,9.8-.4,14.72,1.18-4.97,2.66-9.91,5.16-14.36,3.8-6.77,9.75-12.08,15.15-17.55h.02Z"/>
      <path class="st7" d="M531,210.2c-2.05-7.32-6.18-14.59-4.68-22.04.42-2.07,1.26-4.03,1.8-6.07,1.96-7.5-.39-15.43-3.48-22.53-2.2-5.05-4.77-9.88-7.61-14.56-9.63-15.88-22.45-29.88-35.1-43.62-2.33-2.53-4.68-5.08-7.49-7.05-4.85-3.41-10.76-4.92-16.57-6.09-25.16-5.1-51.32-5.21-76.52-.33-4.16.81-8.32,1.76-12.2,3.45-4.61,2.01-8.71,5.03-12.61,8.21-7.44,6.08-14.27,12.85-21.09,19.61-4.57,4.53-9.21,9.14-12.36,14.76-2.5,4.45-3.98,9.39-5.16,14.36-.1.4-.19.81-.29,1.21-4.89,21.52-5.42,44.03-1.53,65.75,1.47,8.2,3.6,16.4,7.7,23.66,3.23,5.73,7.82,10.84,13.45,14.14-.73-2.51-1.59-4.99-3.1-7.1-1.11-1.55-2.55-2.88-3.39-4.59-1.66-3.39-.61-7.39-.68-11.16-.06-3.38-1.04-6.69-1.07-10.06-.03-3.38,1.21-7.12,4.24-8.61.49.3.91.65,1.27,1.05,1.39-6.67,3.91-13.26,5.38-19.95,1.16-5.28,1.67-10.72,3.26-15.89,4.12-13.37,15.26-23.78,27.97-29.64,12.7-5.87,26.9-7.69,40.88-8.29,8.41-.36,17-.27,25.01,2.3,4.8,1.54,9.28,3.94,14.01,5.71,6.98,2.62,14.41,3.84,21.46,6.28,5.72,1.98,11.37,4.97,15.3,9.47.91,1.04,1.72,2.16,2.43,3.38,1.51,2.6,2.44,5.5,3.76,8.2.26.5.53,1,.79,1.5l.18.33c1.76,2.97,4.27,5.44,6.07,8.38,2.23,3.66,3.26,7.88,4.17,12.08.61,1.35,1.15,2.73,1.44,4.17.24,1.23.3,2.49.25,3.74,1.56,7.33,9.38,9.94,10.49,13.23,1.65,4.86,4.38,22.37,5.49,21.15,9.35-10.25,11.9-15.12,8.14-28.53h-.01Z"/>
      <path class="st7" d="M345.53,382.57c-.18-1.39-1.28-2.44-2.22-3.49-7.27-8.15-6.16-20.43-6.34-31.36-.01-.83-.04-1.67-.23-2.48-.23-.97-.68-1.87-1.06-2.79-.66-1.62-.73-3.51-.5-5.42.64-5.12,3.56-10.32,3.56-10.32-1.8-1.36-1.81-4.16-.86-6.21s2.61-3.68,3.78-5.62,1.78-4.52.51-6.39c-.29-.42-.65-.78-1.05-1.1-2.33,1.86-4.9,3.47-7.59,4.96,1.01,3.24,1.24,6.53-.28,9.52-1.9,3.74-5.96,5.73-9.44,8.06-2.29,1.54-4.55,3.65-5.63,6.09-.56,1.27-.81,2.62-.58,4.03.53,3.2,3.43,5.81,3.3,9.05-.12,2.96-2.76,5.34-2.99,8.3-.17,2.2,1.03,4.24,2.21,6.1,3.28,5.17,6.75,10.25,10.82,14.83,4.08,4.59,8.76,8.68,13.15,12.98.05-2,.34-3.99.93-5.92.28-.92.62-1.86.5-2.81h0Z"/>
      <path class="st7" d="M590.29,341.83c-3.1-3.3-6.76-6.07-10.77-8.16-6.67-3.47-14.2-5.03-21-8.21-.6-.28-1.2-.57-1.79-.88-3.69-1.94-7.17-4.81-9.56-8.23-.87-1.24-1.59-2.55-2.11-3.92-5.7-3.84-11.39-7.67-17.09-11.51.05.23.09.46.12.69.34,2.81-.93,5.45-2.15,8.06-.26.54-.51,1.08-.74,1.63-.31.7-.58,1.54-.21,2.21.25.45.72.71,1.12,1.02,1.69,1.33,2.12,3.66,2.44,5.78.67,4.46,1.31,9.19-.35,12.09.28,3.38-2.7,6.28-2.8,9.67-.05,1.97.88,3.85.94,5.81.15,4.67-4.34,7.98-8.33,10.41,2.23,4.59,4.49,9.3,4.99,14.38.51,5.08-1.1,10.68-5.27,13.61,2.09,3.18,3.69,6.68,4.73,10.35.2.7.37,1.42.41,2.14,1.47-.4,2.95-.78,4.45-1.1,5.71-1.23,11.62-1.82,17.03-4.02,8.07-3.28,14.35-9.81,21.98-14.02,6.11-3.38,13-5.21,19.02-8.75,5.41-3.19,10.25-8.4,10.99-14.49.08-.69.13-1.38.1-2.09-.17-4.73-2.89-9.02-6.13-12.47h-.02Z"/>
      <path class="st7" d="M634.08,370.21c-3.58-2.06-7.15-4.12-10.73-6.18-1.16-.67-2.36-1.37-3.19-2.42-1.29-1.64-1.49-3.84-1.79-5.9-1.97-13.57-10.55-26.02-22.53-32.7-6.93-3.86-14.75-5.81-22.54-7.32-3.17-.61-6.42-1.16-9.6-.63-3.24.53-6.36,2.16-9.63,1.84-2.71-.26-5.09-1.83-7.35-3.35-.55-.37-1.11-.75-1.66-1.12.53,1.37,1.25,2.68,2.11,3.92,2.38,3.42,5.87,6.29,9.56,8.23.59.31,1.19.6,1.79.88,6.8,3.18,14.33,4.74,21,8.21,4.01,2.09,7.67,4.86,10.77,8.16,3.24,3.45,5.96,7.74,6.13,12.47.03.71-.02,1.4-.1,2.09-.74,6.09-5.58,11.3-10.99,14.49-6.02,3.55-12.91,5.38-19.02,8.75-7.62,4.21-13.91,10.74-21.98,14.02-5.41,2.2-11.32,2.8-17.03,4.02-1.5.32-2.98.7-4.45,1.1.02.45,0,.9-.12,1.34-.24.93-.84,1.72-1.48,2.43-4.76,5.22-13.05,7.41-15.46,14.06-.59,1.63-.74,3.33-.71,5.06,10.46.67,21.43-2.23,31.15-6.57,14.58-6.51,27.75-16.02,42.68-21.71,5.78-2.2,11.76-3.81,17.75-5.35,7.36-1.9,14.75-3.7,22.16-5.41,5.34-1.23,11.69-3.66,14.19-7.94.77-1.31,1.17-2.79,1.07-4.47h0Z"/>
      <path class="st7" d="M686.78,421.79c-7.73-7.1-17.25-12.06-24.81-19.34-7.13-6.86-12.35-15.61-19.99-21.9-.02-.01-.04-.03-.05-.05-2.76-2.26-5.77-4.15-8.92-5.83-2.5,4.28-8.85,6.7-14.19,7.94-7.41,1.71-14.8,3.51-22.16,5.41-5.99,1.54-11.97,3.15-17.75,5.35-14.93,5.69-28.09,15.2-42.68,21.71-9.72,4.34-20.69,7.24-31.15,6.57.03,1.76.25,3.55.37,5.32.03.47.06.94.07,1.4.31,9.83-5.16,19.63-13.69,24.54-2.18,1.25-4.83,2.61-5.13,5.1-.15,1.22.34,2.45.3,3.68-.1,2.75-2.71,4.68-5.2,5.86-4.11,1.95-8.62,3.07-11.91,2.91-2.08,4.37-6.58,7.5-11.4,7.94-4.83.43-9.8-1.85-12.63-5.78-6.37,1.03-12.88,1.18-19.29.44-1.7-.2-3.42-.46-4.97-1.2-1.46-.7-2.69-1.79-4.11-2.56-5.37-2.9-12.1-.74-18-2.3-3.88-1.03-7.14-3.6-10.27-6.11-1.69-1.35-3.49-2.86-4-4.96-.46-1.85.18-3.79.18-5.7s-1.16-4.16-3.46-4.45c-5.09,1.47-10.81,2.89-15.49.4-2.52-1.34-4.36-3.65-5.99-5.99-1.94-2.8-3.66-5.74-5.17-8.79-1.98-4-3.6-8.19-4.78-12.5-.14-.52-.26-1.07-.34-1.63-1.32-.11-2.63-.25-3.94-.44-3.17-.45-6.44-1.19-8.9-3.24-1.67-1.39-2.84-3.29-4.43-4.77-1.96-1.83-4.47-2.94-6.92-4.04-7.45-3.33-14.82-6.84-22.11-10.51-12.36-6.23-24.86-13.3-33.21-24.32-2.85.93-5.68,1.95-8.48,3.07-23.27,9.24-44.42,24.78-53.3,47.76-3,7.77-4.47,16.03-6.69,24.05-3.75,13.55-9.66,26.38-15.53,39.15l2.04,1s526.99-10.23,525.98-10.86c-6.31-18.98-13.16-38.81-27.89-52.34h-.01Z"/>
      <path class="st7" d="M352.78,410.23c-5.66-4.47-8.85-11.75-8.69-18.94-4.39-4.3-9.07-8.39-13.15-12.98-4.07-4.58-7.54-9.66-10.82-14.83-1.18-1.86-2.38-3.9-2.21-6.1.22-2.96,2.87-5.34,2.99-8.3.13-3.24-2.78-5.85-3.3-9.05-.23-1.41.02-2.77.58-4.03,1.08-2.44,3.33-4.56,5.63-6.09,3.48-2.33,7.54-4.32,9.44-8.06,1.52-2.99,1.29-6.28.28-9.52-11.31,6.23-24.85,10.2-32.37,20.57-1.74,2.4-3.1,5.07-5.02,7.32-2.59,3.03-6.07,5.13-9.4,7.32-5.16,3.4-10.09,7.16-14.73,11.24-1.82,1.6-3.74,3.54-3.76,5.96-.01,1.75.99,3.33,2.03,4.74.12.16.25.32.37.48,8.35,11.02,20.85,18.08,33.21,24.32,7.29,3.67,14.66,7.18,22.11,10.51,2.45,1.1,4.96,2.21,6.92,4.04,1.59,1.48,2.76,3.38,4.43,4.77,2.46,2.05,5.73,2.79,8.9,3.24,1.31.19,2.62.33,3.94.44-.45-2.92-.03-6.2,2.62-7.05h0Z"/>
      <path class="st7" d="M528.52,320.31c-.32-2.12-.76-4.46-2.44-5.78-.4-.31-.87-.57-1.12-1.02-.37-.67-.09-1.51.21-2.21.24-.54.49-1.08.74-1.63,1.22-2.6,2.49-5.25,2.15-8.06-.03-.23-.07-.46-.12-.69-.35-1.63-1.16-3.15-1.79-4.71-1.7-4.19-2.06-9.2.26-13.08.84-1.41,2.02-2.63,2.65-4.15.82-1.95.67-4.16.31-6.24-.42-2.43-1.15-4.92-2.83-6.72-1.68-1.81-4.51-2.74-6.7-1.6,1.9-3.39,5.22-16.29,5.65-19.37.33-2.38-.72-5.09-2.65-6.32-1.11,1.22-4.42-17.08-5.49-21.15-.88-3.35-8.93-5.9-10.49-13.23-.06,1.47-.26,2.94-.47,4.4-2.36,16.01-6.16,31.89-6.54,48.08-1.31-.19-2.68-.4-3.75-1.19-1.06-.79-1.67-2.36-.97-3.48-4.45,5.03-8.81,4.7-8.81,4.7-.34.2,3.09-4.55,3.5-7.77-1.69,1.67-3.01,4.08-5.34,4.5-.81.15-1.65.02-2.46-.11-1.29-.2-2.73-.48-3.49-1.55-.35-.49-.65-1.19-1.26-1.18-.23,0-.44.13-.64.25-2,1.23-4.06,2.9-6.39,2.58.15-.08-1.4-.09-1.59-.49s-.21-.9-.5-1.24c-.25-.29-.65-.41-1.02-.51l-7.63-2.01c-.16-.04-.33-.08-.49-.02-.21.09-.29.35-.33.57-.19.98-.23,1.98-.13,2.97-1.68-2.05-3.85-3.68-6.29-4.72.61,1.67.73,3.51.36,5.25-.94-2.03-2.4-3.66-4.25-4.76-1.85-1.1-4.17-1.6-6.17-.8-1.25.5-2.36,1.49-3.71,1.53-.88.02-1.72-.37-2.59-.53-3.11-.54-5.8,2.01-8.06,4.22-2.25,2.21-5.43,4.43-8.32,3.16-1.5-.66-2.46-2.11-3.66-3.22-3.53-3.25-5.34-3.36-10.14-3.34,0,0-10.95-.81-13.54-.1-2.59.71-5.05,2.17-6.5,4.42-.72,1.12-1.27,2.49-2.49,3.01-1.17.5-2.49,0-3.76-.04-1.27-.05-2.84.86-2.59,2.72-3.41.04-7.51.48-9.05,3.53-.48.94-.62,2.01-.76,3.05-.7,5.26-1.4,10.65-.34,15.85-7.05-2.15-12.44-8.92-12.95-16.27-.07-1.05-.16-2.3-1.06-2.85-1.11-.67-2.87.16-3.71-.83-.4-.46-.39-1.14-.38-1.75.17-13.41-9.49-25.09-11.27-38.38-.44-3.29-.67-7.13-2.79-9.44-.37-.4-.78-.76-1.27-1.05-3.03,1.49-4.27,5.23-4.24,8.61s1.01,6.69,1.07,10.06c.07,3.77-.98,7.78.68,11.16.84,1.71,2.28,3.04,3.39,4.59,1.51,2.11,2.37,4.59,3.1,7.1.16.57.32,1.14.48,1.7,1.68,6.11,3.33,12.83.7,18.6-1.11,2.43-2.91,4.5-4,6.94s-1.3,5.61.56,7.53c1.04,1.07,2.52,1.55,3.81,2.29,1.29.74,2.51,2.02,2.34,3.5-.07.64-.4,1.22-.75,1.77-1.82,2.83-4.47,6.25-2.7,9.11.79,1.28,2.26,1.94,3.43,2.88.4.32.76.68,1.05,1.1,1.27,1.87.66,4.46-.51,6.39-1.17,1.94-2.83,3.57-3.78,5.62s-.94,4.84.86,6.21c0,0-2.92,5.2-3.56,10.32-.24,1.91-.17,3.81.5,5.42.38.92.83,1.82,1.06,2.79.19.81.21,1.65.23,2.48.18,10.92-.93,23.21,6.34,31.36.93,1.05,2.04,2.1,2.22,3.49.12.95-.22,1.89-.5,2.81-.59,1.92-.88,3.91-.93,5.92-.17,7.18,3.02,14.47,8.69,18.94-2.65.85-3.07,4.12-2.62,7.05.09.56.2,1.12.34,1.63,1.18,4.31,2.8,8.49,4.78,12.5,1.51,3.05,3.23,6,5.17,8.79,1.63,2.34,3.47,4.65,5.99,5.99,4.68,2.49,10.39,1.07,15.49-.4,2.3.29,3.45,2.54,3.46,4.45s-.63,3.84-.18,5.7c.52,2.1,2.31,3.61,4,4.96,3.14,2.51,6.39,5.08,10.27,6.11,5.9,1.56,12.63-.6,18,2.3,1.42.77,2.66,1.86,4.11,2.56,1.54.74,3.27,1.01,4.97,1.2,6.41.74,12.92.59,19.29-.44,2.83,3.93,7.81,6.21,12.63,5.78,4.83-.43,9.32-3.56,11.4-7.94,3.29.16,7.8-.96,11.91-2.91,2.48-1.18,5.1-3.11,5.2-5.86.04-1.23-.45-2.45-.3-3.68.31-2.49,2.96-3.85,5.13-5.1,8.53-4.9,14-14.7,13.69-24.54-.01-.47-.04-.93-.07-1.4-.12-1.77-.34-3.56-.37-5.32-.03-1.73.12-3.43.71-5.06,2.4-6.65,10.7-8.84,15.46-14.06.65-.71,1.24-1.5,1.48-2.43.11-.44.14-.89.12-1.34-.04-.72-.21-1.45-.41-2.14-1.04-3.66-2.64-7.17-4.73-10.35,4.17-2.93,5.78-8.53,5.27-13.61s-2.77-9.79-4.99-14.38c3.99-2.43,8.48-5.74,8.33-10.41-.06-1.97-1-3.85-.94-5.81.09-3.39,3.08-6.29,2.8-9.67,1.66-2.91,1.02-7.63.35-12.09l-.02.03Z"/>
    </g>
    <g>
      <path class="st4" d="M505.82,202.88c-.29-1.45-.83-2.83-1.44-4.17-.91-4.2-1.94-8.42-4.17-12.08-1.8-2.95-4.3-5.42-6.07-8.38l-.18-.33c-.28-.49-.54-.99-.79-1.5-1.31-2.7-2.25-5.6-3.76-8.2-.7-1.21-1.52-2.33-2.43-3.38-3.93-4.51-9.57-7.49-15.3-9.47-7.04-2.44-14.48-3.66-21.46-6.28-4.72-1.77-9.2-4.17-14.01-5.71-8.02-2.57-16.6-2.65-25.01-2.3-13.98.6-28.17,2.42-40.88,8.29-12.7,5.87-23.85,16.27-27.97,29.64-1.59,5.17-2.1,10.61-3.26,15.89-1.47,6.69-3.99,13.28-5.38,19.95,2.12,2.31,2.35,6.15,2.79,9.44,1.77,13.3,11.43,24.97,11.27,38.38,0,.61-.02,1.28.38,1.75.85.99,2.6.15,3.71.83.9.55.99,1.8,1.06,2.85.51,7.35,5.9,14.12,12.95,16.27-1.06-5.21-.36-10.59.34-15.85.14-1.04.28-2.11.76-3.05,1.54-3.05,5.64-3.49,9.05-3.53-.25-1.86,1.32-2.76,2.59-2.72,1.27.05,2.59.54,3.76.04,1.22-.52,1.77-1.89,2.49-3.01,1.45-2.26,3.91-3.72,6.5-4.42,2.59-.71,13.54.1,13.54.1,4.8-.02,6.61.08,10.14,3.34,1.2,1.11,2.17,2.56,3.66,3.22,2.89,1.27,6.06-.95,8.32-3.16,2.25-2.21,4.95-4.76,8.06-4.22.87.15,1.71.55,2.59.53,1.35-.04,2.46-1.03,3.71-1.53,1.99-.8,4.32-.29,6.17.8,1.85,1.1,3.31,2.73,4.25,4.76.37-1.74.24-3.58-.36-5.25,2.43,1.04,4.61,2.67,6.29,4.72-.1-.99-.06-1.99.13-2.97.04-.23.12-.48.33-.57.15-.07.33-.03.49.02l7.63,2.01c.37.1.77.21,1.02.51.29.34.31.84.5,1.24s1.74.41,1.59.49c2.33.31,4.39-1.35,6.39-2.58.2-.12.41-.24.64-.25.6,0,.91.69,1.26,1.18.76,1.06,2.19,1.35,3.49,1.55.82.13,1.65.25,2.46.11,2.34-.42,3.65-2.83,5.34-4.5-.4,3.22-3.84,7.97-3.5,7.77,0,0,4.36.33,8.81-4.7-.71,1.12-.1,2.69.97,3.48,1.06.79,2.44,1,3.75,1.19.39-16.18,4.18-32.06,6.54-48.08.21-1.46.41-2.93.47-4.4.05-1.26,0-2.51-.25-3.74l.03-.02Z"/>
      <path class="st8" d="M335.44,114.65c5.71-5.79,11.64-11.35,17.92-16.52,4.01-3.29,8.22-6.43,12.98-8.51,3.88-1.69,8.04-2.64,12.2-3.45,25.2-4.88,51.36-4.77,76.52.33,5.81,1.18,11.72,2.68,16.57,6.09,2.81,1.98,5.16,4.53,7.49,7.05,12.65,13.73,25.47,27.74,35.1,43.62-1.02-7.54-2.87-14.96-5.53-22.09-2.08-5.57-4.65-10.95-7.21-16.31-2.05-4.3-4.1-8.6-6.16-12.9-1.7-3.56-3.42-7.15-5.85-10.25-3.76-4.81-9.01-8.18-14.15-11.47-5.72-3.65-11.44-7.31-17.15-10.96-8.68-5.55-17.67-11.21-40.48-15.19-8.73-1.53-17.71-.64-26.02,2.47-19.82,7.42-40.57,13.94-53.39,30.31-5.25,6.7-8.72,14.6-12.14,22.4-4.6,10.5-9.25,21.19-10.63,32.58-.59,4.88-.57,9.8-.4,14.72,1.18-4.97,2.66-9.91,5.16-14.36,3.8-6.77,9.75-12.08,15.15-17.55h.02Z"/>
      <path class="st5" d="M531.19,209.47c-2.05-7.32-6.18-14.59-4.68-22.04.42-2.07,1.26-4.03,1.8-6.07,1.96-7.5-.39-15.43-3.48-22.53-2.2-5.05-4.77-9.88-7.61-14.56-9.63-15.88-22.45-29.88-35.1-43.62-2.33-2.53-4.68-5.08-7.49-7.05-4.85-3.41-10.76-4.92-16.57-6.09-25.16-5.1-51.32-5.21-76.52-.33-4.16.81-8.32,1.76-12.2,3.45-4.61,2.01-8.71,5.03-12.61,8.21-7.44,6.08-14.27,12.85-21.09,19.61-4.57,4.53-9.21,9.14-12.36,14.76-2.5,4.45-3.98,9.39-5.16,14.36-.1.4-.19.81-.29,1.21-4.89,21.52-5.42,44.03-1.53,65.75,1.47,8.2,3.6,16.4,7.7,23.66,3.23,5.73,7.82,10.84,13.45,14.14-.73-2.51-1.59-4.99-3.1-7.1-1.11-1.55-2.55-2.88-3.39-4.59-1.66-3.39-.61-7.39-.68-11.16-.06-3.38-1.04-6.69-1.07-10.06-.03-3.38,1.21-7.12,4.24-8.61.49.3.91.65,1.27,1.05,1.39-6.67,3.91-13.26,5.38-19.95,1.16-5.28,1.67-10.72,3.26-15.89,4.12-13.37,15.26-23.78,27.97-29.64,12.7-5.87,26.9-7.69,40.88-8.29,8.41-.36,17-.27,25.01,2.3,4.8,1.54,9.28,3.94,14.01,5.71,6.98,2.62,14.41,3.84,21.46,6.28,5.72,1.98,11.37,4.97,15.3,9.47.91,1.04,1.72,2.16,2.43,3.38,1.51,2.6,2.44,5.5,3.76,8.2.26.5.53,1,.79,1.5l.18.33c1.76,2.97,4.27,5.44,6.07,8.38,2.23,3.66,3.26,7.88,4.17,12.08.61,1.35,1.15,2.73,1.44,4.17.24,1.23.3,2.49.25,3.74,1.56,7.33,9.38,9.94,10.49,13.23,1.65,4.86,4.38,22.37,5.49,21.15,9.35-10.25,11.9-15.12,8.14-28.53h-.01Z"/>
      <path class="st8" d="M345.73,382.85c-.18-1.39-1.28-2.44-2.22-3.49-7.27-8.15-6.16-20.43-6.34-31.36-.01-.83-.04-1.67-.23-2.48-.23-.97-.68-1.87-1.06-2.79-.66-1.62-.73-3.51-.5-5.42.64-5.12,3.56-10.32,3.56-10.32-1.8-1.36-1.81-4.16-.86-6.21s2.61-3.68,3.78-5.62,1.78-4.52.51-6.39c-.29-.42-.65-.78-1.05-1.1-2.33,1.86-4.9,3.47-7.59,4.96,1.01,3.24,1.24,6.53-.28,9.52-1.9,3.74-5.96,5.73-9.44,8.06-2.29,1.54-4.55,3.65-5.63,6.09-.56,1.27-.81,2.62-.58,4.03.53,3.2,3.43,5.81,3.3,9.05-.12,2.96-2.76,5.34-2.99,8.3-.17,2.2,1.03,4.24,2.21,6.1,3.28,5.17,6.75,10.25,10.82,14.83,4.08,4.59,8.76,8.68,13.15,12.98.05-2,.34-3.99.93-5.92.28-.92.62-1.86.5-2.81h0Z"/>
      <path class="st8" d="M586.8,343.2c-3.1-3.3-6.76-6.07-10.77-8.16-6.67-3.47-14.2-5.03-21-8.21-.6-.28-1.2-.57-1.79-.88-3.69-1.94-7.17-4.81-9.56-8.23-.87-1.24-1.59-2.55-2.11-3.92-5.7-3.84-11.39-7.67-17.09-11.51.05.23.09.46.12.69.34,2.81-.93,5.45-2.15,8.06-.26.54-.51,1.08-.74,1.63-.31.7-.58,1.54-.21,2.21.25.45.72.71,1.12,1.02,1.69,1.33,2.12,3.66,2.44,5.78.67,4.46,1.31,9.19-.35,12.09.28,3.38-2.7,6.28-2.8,9.67-.05,1.97.88,3.85.94,5.81.15,4.67-4.34,7.98-8.33,10.41,2.23,4.59,4.49,9.3,4.99,14.38.51,5.08-1.1,10.68-5.27,13.61,2.09,3.18,3.69,6.68,4.73,10.35.2.7.37,1.42.41,2.14,1.47-.4,2.95-.78,4.45-1.1,5.71-1.23,11.62-1.82,17.03-4.02,8.07-3.28,14.35-9.81,21.98-14.02,6.11-3.38,13-5.21,19.02-8.75,5.41-3.19,10.25-8.4,10.99-14.49.08-.69.13-1.38.1-2.09-.17-4.73-2.89-9.02-6.13-12.47h-.02Z"/>
      <path class="st8" d="M630.29,370.2c-3.58-2.06-7.15-4.12-10.73-6.18-1.16-.67-2.36-1.37-3.19-2.42-1.29-1.64-1.49-3.84-1.79-5.9-1.97-13.57-10.55-26.02-22.53-32.7-6.93-3.86-14.75-5.81-22.54-7.32-3.17-.61-6.42-1.16-9.6-.63-3.24.53-6.36,2.16-9.63,1.84-2.71-.26-5.09-1.83-7.35-3.35-.55-.37-1.11-.75-1.66-1.12.53,1.37,1.25,2.68,2.11,3.92,2.38,3.42,5.87,6.29,9.56,8.23.59.31,1.19.6,1.79.88,6.8,3.18,14.33,4.74,21,8.21,4.01,2.09,7.67,4.86,10.77,8.16,3.24,3.45,5.96,7.74,6.13,12.47.03.71-.02,1.4-.1,2.09-.74,6.09-5.58,11.3-10.99,14.49-6.02,3.55-12.91,5.38-19.02,8.75-7.62,4.21-13.91,10.74-21.98,14.02-5.41,2.2-11.32,2.8-17.03,4.02-1.5.32-2.98.7-4.45,1.1.02.45,0,.9-.12,1.34-.24.93-.84,1.72-1.48,2.43-4.76,5.22-13.05,7.41-15.46,14.06-.59,1.63-.74,3.33-.71,5.06,10.46.67,21.43-2.23,31.15-6.57,14.58-6.51,27.75-16.02,42.68-21.71,5.78-2.2,11.76-3.81,17.75-5.35,7.36-1.9,14.75-3.7,22.16-5.41,5.34-1.23,11.69-3.66,14.19-7.94.77-1.31,1.17-2.79,1.07-4.47h0Z"/>
      <path class="st8" d="M689.54,421.79c-7.73-7.1-17.25-12.06-24.81-19.34-7.13-6.86-12.35-15.61-19.99-21.9-.02-.01-.04-.03-.05-.05-2.76-2.26-5.77-4.15-8.92-5.83-2.5,4.28-8.85,6.7-14.19,7.94-7.41,1.71-14.8,3.51-22.16,5.41-5.99,1.54-11.97,3.15-17.75,5.35-14.93,5.69-28.09,15.2-42.68,21.71-9.72,4.34-20.69,7.24-31.15,6.57.03,1.76.25,3.55.37,5.32.03.47.06.94.07,1.4.31,9.83-5.16,19.63-13.69,24.54-2.18,1.25-4.83,2.61-5.13,5.1-.15,1.22.34,2.45.3,3.68-.1,2.75-2.71,4.68-5.2,5.86-4.11,1.95-8.62,3.07-11.91,2.91-2.08,4.37-6.58,7.5-11.4,7.94-4.83.43-9.8-1.85-12.63-5.78-6.37,1.03-12.88,1.18-19.29.44-1.7-.2-3.42-.46-4.97-1.2-1.46-.7-2.69-1.79-4.11-2.56-5.37-2.9-12.1-.74-18-2.3-3.88-1.03-7.14-3.6-10.27-6.11-1.69-1.35-3.49-2.86-4-4.96-.46-1.85.18-3.79.18-5.7s-1.16-4.16-3.46-4.45c-5.09,1.47-10.81,2.89-15.49.4-2.52-1.34-4.36-3.65-5.99-5.99-1.94-2.8-3.66-5.74-5.17-8.79-1.98-4-3.6-8.19-4.78-12.5-.14-.52-.26-1.07-.34-1.63-1.32-.11-2.63-.25-3.94-.44-3.17-.45-6.44-1.19-8.9-3.24-1.67-1.39-2.84-3.29-4.43-4.77-1.96-1.83-4.47-2.94-6.92-4.04-7.45-3.33-14.82-6.84-22.11-10.51-12.36-6.23-24.86-13.3-33.21-24.32-2.85.93-5.68,1.95-8.48,3.07-23.27,9.24-44.42,24.78-53.3,47.76-3,7.77-4.47,16.03-6.69,24.05-3.75,13.55-9.66,26.38-15.53,39.15l2.04,1s526.99-10.23,525.98-10.86c-6.31-18.98-13.16-38.81-27.89-52.34h-.01Z"/>
      <path class="st8" d="M352.98,412.51c-5.66-4.47-8.85-11.75-8.69-18.94-4.39-4.3-9.07-8.39-13.15-12.98-4.07-4.58-7.54-9.66-10.82-14.83-1.18-1.86-2.38-3.9-2.21-6.1.22-2.96,2.87-5.34,2.99-8.3.13-3.24-2.78-5.85-3.3-9.05-.23-1.41.02-2.77.58-4.03,1.08-2.44,3.33-4.56,5.63-6.09,3.48-2.33,7.54-4.32,9.44-8.06,1.52-2.99,1.29-6.28.28-9.52-11.31,6.23-24.85,10.2-32.37,20.57-1.74,2.4-3.1,5.07-5.02,7.32-2.59,3.03-6.07,5.13-9.4,7.32-5.16,3.4-10.09,7.16-14.73,11.24-1.82,1.6-3.74,3.54-3.76,5.96-.01,1.75.99,3.33,2.03,4.74.12.16.25.32.37.48,8.35,11.02,20.85,18.08,33.21,24.32,7.29,3.67,14.66,7.18,22.11,10.51,2.45,1.1,4.96,2.21,6.92,4.04,1.59,1.48,2.76,3.38,4.43,4.77,2.46,2.05,5.73,2.79,8.9,3.24,1.31.19,2.62.33,3.94.44-.45-2.92-.03-6.2,2.62-7.05h0Z"/>
      <path class="st2" d="M528.72,320.59c-.32-2.12-.76-4.46-2.44-5.78-.4-.31-.87-.57-1.12-1.02-.37-.67-.09-1.51.21-2.21.24-.54.49-1.08.74-1.63,1.22-2.6,2.49-5.25,2.15-8.06-.03-.23-.07-.46-.12-.69-.35-1.63-1.16-3.15-1.79-4.71-1.7-4.19-2.06-9.2.26-13.08.84-1.41,2.02-2.63,2.65-4.15.82-1.95.67-4.16.31-6.24-.42-2.43-1.15-4.92-2.83-6.72-1.68-1.81-4.51-2.74-6.7-1.6,1.9-3.39,5.22-16.29,5.65-19.37.33-2.38-.72-5.09-2.65-6.32-1.11,1.22-4.42-17.08-5.49-21.15-.88-3.35-8.93-5.9-10.49-13.23-.06,1.47-.26,2.94-.47,4.4-2.36,16.01-6.16,31.89-6.54,48.08-1.31-.19-2.68-.4-3.75-1.19-1.06-.79-1.67-2.36-.97-3.48-4.45,5.03-8.81,4.7-8.81,4.7-.34.2,3.09-4.55,3.5-7.77-1.69,1.67-3.01,4.08-5.34,4.5-.81.15-1.65.02-2.46-.11-1.29-.2-2.73-.48-3.49-1.55-.35-.49-.65-1.19-1.26-1.18-.23,0-.44.13-.64.25-2,1.23-4.06,2.9-6.39,2.58.15-.08-1.4-.09-1.59-.49s-.21-.9-.5-1.24c-.25-.29-.65-.41-1.02-.51l-7.63-2.01c-.16-.04-.33-.08-.49-.02-.21.09-.29.35-.33.57-.19.98-.23,1.98-.13,2.97-1.68-2.05-3.85-3.68-6.29-4.72.61,1.67.73,3.51.36,5.25-.94-2.03-2.4-3.66-4.25-4.76-1.85-1.1-4.17-1.6-6.17-.8-1.25.5-2.36,1.49-3.71,1.53-.88.02-1.72-.37-2.59-.53-3.11-.54-5.8,2.01-8.06,4.22-2.25,2.21-5.43,4.43-8.32,3.16-1.5-.66-2.46-2.11-3.66-3.22-3.53-3.25-5.34-3.36-10.14-3.34,0,0-10.95-.81-13.54-.1-2.59.71-5.05,2.17-6.5,4.42-.72,1.12-1.27,2.49-2.49,3.01-1.17.5-2.49,0-3.76-.04-1.27-.05-2.84.86-2.59,2.72-3.41.04-7.51.48-9.05,3.53-.48.94-.62,2.01-.76,3.05-.7,5.26-1.4,10.65-.34,15.85-7.05-2.15-12.44-8.92-12.95-16.27-.07-1.05-.16-2.3-1.06-2.85-1.11-.67-2.87.16-3.71-.83-.4-.46-.39-1.14-.38-1.75.17-13.41-9.49-25.09-11.27-38.38-.44-3.29-.67-7.13-2.79-9.44-.37-.4-.78-.76-1.27-1.05-3.03,1.49-4.27,5.23-4.24,8.61s1.01,6.69,1.07,10.06c.07,3.77-.98,7.78.68,11.16.84,1.71,2.28,3.04,3.39,4.59,1.51,2.11,2.37,4.59,3.1,7.1.16.57.32,1.14.48,1.7,1.68,6.11,3.33,12.83.7,18.6-1.11,2.43-2.91,4.5-4,6.94s-1.3,5.61.56,7.53c1.04,1.07,2.52,1.55,3.81,2.29,1.29.74,2.51,2.02,2.34,3.5-.07.64-.4,1.22-.75,1.77-1.82,2.83-4.47,6.25-2.7,9.11.79,1.28,2.26,1.94,3.43,2.88.4.32.76.68,1.05,1.1,1.27,1.87.66,4.46-.51,6.39-1.17,1.94-2.83,3.57-3.78,5.62s-.94,4.84.86,6.21c0,0-2.92,5.2-3.56,10.32-.24,1.91-.17,3.81.5,5.42.38.92.83,1.82,1.06,2.79.19.81.21,1.65.23,2.48.18,10.92-.93,23.21,6.34,31.36.93,1.05,2.04,2.1,2.22,3.49.12.95-.22,1.89-.5,2.81-.59,1.92-.88,3.91-.93,5.92-.17,7.18,3.02,14.47,8.69,18.94-2.65.85-3.07,4.12-2.62,7.05.09.56.2,1.12.34,1.63,1.18,4.31,2.8,8.49,4.78,12.5,1.51,3.05,3.23,6,5.17,8.79,1.63,2.34,3.47,4.65,5.99,5.99,4.68,2.49,10.39,1.07,15.49-.4,2.3.29,3.45,2.54,3.46,4.45s-.63,3.84-.18,5.7c.52,2.1,2.31,3.61,4,4.96,3.14,2.51,6.39,5.08,10.27,6.11,5.9,1.56,12.63-.6,18,2.3,1.42.77,2.66,1.86,4.11,2.56,1.54.74,3.27,1.01,4.97,1.2,6.41.74,12.92.59,19.29-.44,2.83,3.93,7.81,6.21,12.63,5.78,4.83-.43,9.32-3.56,11.4-7.94,3.29.16,7.8-.96,11.91-2.91,2.48-1.18,5.1-3.11,5.2-5.86.04-1.23-.45-2.45-.3-3.68.31-2.49,2.96-3.85,5.13-5.1,8.53-4.9,14-14.7,13.69-24.54-.01-.47-.04-.93-.07-1.4-.12-1.77-.34-3.56-.37-5.32-.03-1.73.12-3.43.71-5.06,2.4-6.65,10.7-8.84,15.46-14.06.65-.71,1.24-1.5,1.48-2.43.11-.44.14-.89.12-1.34-.04-.72-.21-1.45-.41-2.14-1.04-3.66-2.64-7.17-4.73-10.35,4.17-2.93,5.78-8.53,5.27-13.61s-2.77-9.79-4.99-14.38c3.99-2.43,8.48-5.74,8.33-10.41-.06-1.97-1-3.85-.94-5.81.09-3.39,3.08-6.29,2.8-9.67,1.66-2.91,1.02-7.63.35-12.09l-.02.03Z"/>
    </g>
    <path class="st1" d="M415.08,250.87c-1.22-1.48-2.72-2.81-4.55-3.41s-4.03-.3-5.36,1.09"/>
    <path class="st1" d="M400.88,247c-1.15-1.67-3.07-2.78-3.84-4.66-.75-1.83-.21-3.91.45-5.77.69-1.95,1.59-3.96,3.3-5.12"/>
    <path class="st1" d="M402.79,241.51c-.03-2.16-.91-4.22-1.21-6.36s.21-4.69,2.12-5.7"/>
    <path class="st1" d="M438.2,246.43c-2.25-.71-4.56-1.2-6.9-1.47-1.08-.12-2.18-.2-3.23.08s-2.03.97-2.41,1.99c.35.12.76.05,1.05-.17"/>
    <path class="st1" d="M441.71,246.4c2.55-2.19,4.15-5.44,4.33-8.8.08-1.51-.19-3.18-1.35-4.16-1.02-.87-2.58-1.04-3.37-2.12"/>
    <path class="st1" d="M436.97,238.73c.22-6.11-1.8-12.29-5.6-17.08"/>
    <g>
      <path class="st1" d="M506.62,200.61c-.29-1.45-.83-2.83-1.44-4.17-.91-4.2-1.94-8.42-4.17-12.08-1.8-2.95-4.3-5.42-6.07-8.38l-.18-.33c-.28-.49-.54-.99-.79-1.5-1.31-2.7-2.25-5.6-3.76-8.2-.7-1.21-1.52-2.33-2.43-3.38-3.93-4.51-9.57-7.49-15.3-9.47-7.04-2.44-14.48-3.66-21.46-6.28-4.72-1.77-9.2-4.17-14.01-5.71-8.02-2.57-16.6-2.65-25.01-2.3-13.98.6-28.17,2.42-40.88,8.29-12.7,5.87-23.85,16.27-27.97,29.64-1.59,5.17-2.1,10.61-3.26,15.89-1.47,6.69-3.99,13.28-5.38,19.95,2.12,2.31,2.35,6.15,2.79,9.44,1.77,13.3,11.43,24.97,11.27,38.38,0,.61-.02,1.28.38,1.75.85.99,2.6.15,3.71.83.9.55.99,1.8,1.06,2.85.51,7.35,5.9,14.12,12.95,16.27-1.06-5.21-.36-10.59.34-15.85.14-1.04.28-2.11.76-3.05,1.54-3.05,5.64-3.49,9.05-3.53-.25-1.86,1.32-2.76,2.59-2.72,1.27.05,2.59.54,3.76.04,1.22-.52,1.77-1.89,2.49-3.01,1.45-2.26,3.91-3.72,6.5-4.42,2.59-.71,13.54.1,13.54.1,4.8-.02,6.61.08,10.14,3.34,1.2,1.11,2.17,2.56,3.66,3.22,2.89,1.27,6.06-.95,8.32-3.16,2.25-2.21,4.95-4.76,8.06-4.22.87.15,1.71.55,2.59.53,1.35-.04,2.46-1.03,3.71-1.53,1.99-.8,4.32-.29,6.17.8,1.85,1.1,3.31,2.73,4.25,4.76.37-1.74.24-3.58-.36-5.25,2.43,1.04,4.61,2.67,6.29,4.72-.1-.99-.06-1.99.13-2.97.04-.23.12-.48.33-.57.15-.07.33-.03.49.02l7.63,2.01c.37.1.77.21,1.02.51.29.34.31.84.5,1.24s1.74.41,1.59.49c2.33.31,4.39-1.35,6.39-2.58.2-.12.41-.24.64-.25.6,0,.91.69,1.26,1.18.76,1.06,2.19,1.35,3.49,1.55.82.13,1.65.25,2.46.11,2.34-.42,3.65-2.83,5.34-4.5-.4,3.22-3.84,7.97-3.5,7.77,0,0,4.36.33,8.81-4.7-.71,1.12-.1,2.69.97,3.48,1.06.79,2.44,1,3.75,1.19.39-16.18,4.18-32.06,6.54-48.08.21-1.46.41-2.93.47-4.4.05-1.26,0-2.51-.25-3.74l.03-.02Z"/>
      <path class="st1" d="M338.25,116.38c5.71-5.79,11.64-11.35,17.92-16.52,4.01-3.29,8.22-6.43,12.98-8.51,3.88-1.69,8.04-2.64,12.2-3.45,25.2-4.88,51.36-4.77,76.52.33,5.81,1.18,11.72,2.68,16.57,6.09,2.81,1.98,5.16,4.53,7.49,7.05,12.65,13.73,25.47,27.74,35.1,43.62-1.02-7.54-2.87-14.96-5.53-22.09-2.08-5.57-4.65-10.95-7.21-16.31-2.05-4.3-4.1-8.6-6.16-12.9-1.7-3.56-3.42-7.15-5.85-10.25-3.76-4.81-9.01-8.18-14.15-11.47-5.72-3.65-11.44-7.31-17.15-10.96-8.24-5.26-16.76-10.63-37.12-14.58-10.52-2.04-21.4-1.1-31.45,2.62-19.18,7.12-38.94,13.74-51.32,29.54-5.25,6.7-8.72,14.6-12.14,22.4-4.6,10.5-9.25,21.19-10.63,32.58-.59,4.88-.57,9.8-.4,14.72,1.18-4.97,2.66-9.91,5.16-14.36,3.8-6.77,9.75-12.08,15.15-17.55h.02Z"/>
      <path class="st1" d="M531,210.2c-2.05-7.32-6.18-14.59-4.68-22.04.42-2.07,1.26-4.03,1.8-6.07,1.96-7.5-.39-15.43-3.48-22.53-2.2-5.05-4.77-9.88-7.61-14.56-9.63-15.88-22.45-29.88-35.1-43.62-2.33-2.53-4.68-5.08-7.49-7.05-4.85-3.41-10.76-4.92-16.57-6.09-25.16-5.1-51.32-5.21-76.52-.33-4.16.81-8.32,1.76-12.2,3.45-4.61,2.01-8.71,5.03-12.61,8.21-7.44,6.08-14.27,12.85-21.09,19.61-4.57,4.53-9.21,9.14-12.36,14.76-2.5,4.45-3.98,9.39-5.16,14.36-.1.4-.19.81-.29,1.21-4.89,21.52-5.42,44.03-1.53,65.75,1.47,8.2,3.6,16.4,7.7,23.66,3.23,5.73,7.82,10.84,13.45,14.14-.73-2.51-1.59-4.99-3.1-7.1-1.11-1.55-2.55-2.88-3.39-4.59-1.66-3.39-.61-7.39-.68-11.16-.06-3.38-1.04-6.69-1.07-10.06-.03-3.38,1.21-7.12,4.24-8.61.49.3.91.65,1.27,1.05,1.39-6.67,3.91-13.26,5.38-19.95,1.16-5.28,1.67-10.72,3.26-15.89,4.12-13.37,15.26-23.78,27.97-29.64,12.7-5.87,26.9-7.69,40.88-8.29,8.41-.36,17-.27,25.01,2.3,4.8,1.54,9.28,3.94,14.01,5.71,6.98,2.62,14.41,3.84,21.46,6.28,5.72,1.98,11.37,4.97,15.3,9.47.91,1.04,1.72,2.16,2.43,3.38,1.51,2.6,2.44,5.5,3.76,8.2.26.5.53,1,.79,1.5l.18.33c1.76,2.97,4.27,5.44,6.07,8.38,2.23,3.66,3.26,7.88,4.17,12.08.61,1.35,1.15,2.73,1.44,4.17.24,1.23.3,2.49.25,3.74,1.56,7.33,9.38,9.94,10.49,13.23,1.65,4.86,4.38,22.37,5.49,21.15,9.35-10.25,11.9-15.12,8.14-28.53h-.01Z"/>
      <path class="st1" d="M345.53,382.57c-.18-1.39-1.28-2.44-2.22-3.49-7.27-8.15-6.16-20.43-6.34-31.36-.01-.83-.04-1.67-.23-2.48-.23-.97-.68-1.87-1.06-2.79-.66-1.62-.73-3.51-.5-5.42.64-5.12,3.56-10.32,3.56-10.32-1.8-1.36-1.81-4.16-.86-6.21s2.61-3.68,3.78-5.62,1.78-4.52.51-6.39c-.29-.42-.65-.78-1.05-1.1-2.33,1.86-4.9,3.47-7.59,4.96,1.01,3.24,1.24,6.53-.28,9.52-1.9,3.74-5.96,5.73-9.44,8.06-2.29,1.54-4.55,3.65-5.63,6.09-.56,1.27-.81,2.62-.58,4.03.53,3.2,3.43,5.81,3.3,9.05-.12,2.96-2.76,5.34-2.99,8.3-.17,2.2,1.03,4.24,2.21,6.1,3.28,5.17,6.75,10.25,10.82,14.83,4.08,4.59,8.76,8.68,13.15,12.98.05-2,.34-3.99.93-5.92.28-.92.62-1.86.5-2.81h0Z"/>
      <path class="st1" d="M590.29,341.83c-3.1-3.3-6.76-6.07-10.77-8.16-6.67-3.47-14.2-5.03-21-8.21-.6-.28-1.2-.57-1.79-.88-3.69-1.94-7.17-4.81-9.56-8.23-.87-1.24-1.59-2.55-2.11-3.92-5.7-3.84-11.39-7.67-17.09-11.51.05.23.09.46.12.69.34,2.81-.93,5.45-2.15,8.06-.26.54-.51,1.08-.74,1.63-.31.7-.58,1.54-.21,2.21.25.45.72.71,1.12,1.02,1.69,1.33,2.12,3.66,2.44,5.78.67,4.46,1.31,9.19-.35,12.09.28,3.38-2.7,6.28-2.8,9.67-.05,1.97.88,3.85.94,5.81.15,4.67-4.34,7.98-8.33,10.41,2.23,4.59,4.49,9.3,4.99,14.38.51,5.08-1.1,10.68-5.27,13.61,2.09,3.18,3.69,6.68,4.73,10.35.2.7.37,1.42.41,2.14,1.47-.4,2.95-.78,4.45-1.1,5.71-1.23,11.62-1.82,17.03-4.02,8.07-3.28,14.35-9.81,21.98-14.02,6.11-3.38,13-5.21,19.02-8.75,5.41-3.19,10.25-8.4,10.99-14.49.08-.69.13-1.38.1-2.09-.17-4.73-2.89-9.02-6.13-12.47h-.02Z"/>
      <path class="st1" d="M634.08,370.21c-3.58-2.06-7.15-4.12-10.73-6.18-1.16-.67-2.36-1.37-3.19-2.42-1.29-1.64-1.49-3.84-1.79-5.9-1.97-13.57-10.55-26.02-22.53-32.7-6.93-3.86-14.75-5.81-22.54-7.32-3.17-.61-6.42-1.16-9.6-.63-3.24.53-6.36,2.16-9.63,1.84-2.71-.26-5.09-1.83-7.35-3.35-.55-.37-1.11-.75-1.66-1.12.53,1.37,1.25,2.68,2.11,3.92,2.38,3.42,5.87,6.29,9.56,8.23.59.31,1.19.6,1.79.88,6.8,3.18,14.33,4.74,21,8.21,4.01,2.09,7.67,4.86,10.77,8.16,3.24,3.45,5.96,7.74,6.13,12.47.03.71-.02,1.4-.1,2.09-.74,6.09-5.58,11.3-10.99,14.49-6.02,3.55-12.91,5.38-19.02,8.75-7.62,4.21-13.91,10.74-21.98,14.02-5.41,2.2-11.32,2.8-17.03,4.02-1.5.32-2.98.7-4.45,1.1.02.45,0,.9-.12,1.34-.24.93-.84,1.72-1.48,2.43-4.76,5.22-13.05,7.41-15.46,14.06-.59,1.63-.74,3.33-.71,5.06,10.46.67,21.43-2.23,31.15-6.57,14.58-6.51,27.75-16.02,42.68-21.71,5.78-2.2,11.76-3.81,17.75-5.35,7.36-1.9,14.75-3.7,22.16-5.41,5.34-1.23,11.69-3.66,14.19-7.94.77-1.31,1.17-2.79,1.07-4.47h0Z"/>
      <path class="st1" d="M686.78,421.79c-7.73-7.1-17.25-12.06-24.81-19.34-7.13-6.86-12.35-15.61-19.99-21.9-.02-.01-.04-.03-.05-.05-2.76-2.26-5.77-4.15-8.92-5.83-2.5,4.28-8.85,6.7-14.19,7.94-7.41,1.71-14.8,3.51-22.16,5.41-5.99,1.54-11.97,3.15-17.75,5.35-14.93,5.69-28.09,15.2-42.68,21.71-9.72,4.34-20.69,7.24-31.15,6.57.03,1.76.25,3.55.37,5.32.03.47.06.94.07,1.4.31,9.83-5.16,19.63-13.69,24.54-2.18,1.25-4.83,2.61-5.13,5.1-.15,1.22.34,2.45.3,3.68-.1,2.75-2.71,4.68-5.2,5.86-4.11,1.95-8.62,3.07-11.91,2.91-2.08,4.37-6.58,7.5-11.4,7.94-4.83.43-9.8-1.85-12.63-5.78-6.37,1.03-12.88,1.18-19.29.44-1.7-.2-3.42-.46-4.97-1.2-1.46-.7-2.69-1.79-4.11-2.56-5.37-2.9-12.1-.74-18-2.3-3.88-1.03-7.14-3.6-10.27-6.11-1.69-1.35-3.49-2.86-4-4.96-.46-1.85.18-3.79.18-5.7s-1.16-4.16-3.46-4.45c-5.09,1.47-10.81,2.89-15.49.4-2.52-1.34-4.36-3.65-5.99-5.99-1.94-2.8-3.66-5.74-5.17-8.79-1.98-4-3.6-8.19-4.78-12.5-.14-.52-.26-1.07-.34-1.63-1.32-.11-2.63-.25-3.94-.44-3.17-.45-6.44-1.19-8.9-3.24-1.67-1.39-2.84-3.29-4.43-4.77-1.96-1.83-4.47-2.94-6.92-4.04-7.45-3.33-14.82-6.84-22.11-10.51-12.36-6.23-24.86-13.3-33.21-24.32-2.85.93-5.68,1.95-8.48,3.07-23.27,9.24-44.42,24.78-53.3,47.76-3,7.77-4.47,16.03-6.69,24.05-3.75,13.55-9.66,26.38-15.53,39.15l2.04,1s526.99-10.23,525.98-10.86c-6.31-18.98-13.16-38.81-27.89-52.34h-.01Z"/>
      <path class="st1" d="M352.78,410.23c-5.66-4.47-8.85-11.75-8.69-18.94-4.39-4.3-9.07-8.39-13.15-12.98-4.07-4.58-7.54-9.66-10.82-14.83-1.18-1.86-2.38-3.9-2.21-6.1.22-2.96,2.87-5.34,2.99-8.3.13-3.24-2.78-5.85-3.3-9.05-.23-1.41.02-2.77.58-4.03,1.08-2.44,3.33-4.56,5.63-6.09,3.48-2.33,7.54-4.32,9.44-8.06,1.52-2.99,1.29-6.28.28-9.52-11.31,6.23-24.85,10.2-32.37,20.57-1.74,2.4-3.1,5.07-5.02,7.32-2.59,3.03-6.07,5.13-9.4,7.32-5.16,3.4-10.09,7.16-14.73,11.24-1.82,1.6-3.74,3.54-3.76,5.96-.01,1.75.99,3.33,2.03,4.74.12.16.25.32.37.48,8.35,11.02,20.85,18.08,33.21,24.32,7.29,3.67,14.66,7.18,22.11,10.51,2.45,1.1,4.96,2.21,6.92,4.04,1.59,1.48,2.76,3.38,4.43,4.77,2.46,2.05,5.73,2.79,8.9,3.24,1.31.19,2.62.33,3.94.44-.45-2.92-.03-6.2,2.62-7.05h0Z"/>
      <path class="st1" d="M528.52,320.31c-.32-2.12-.76-4.46-2.44-5.78-.4-.31-.87-.57-1.12-1.02-.37-.67-.09-1.51.21-2.21.24-.54.49-1.08.74-1.63,1.22-2.6,2.49-5.25,2.15-8.06-.03-.23-.07-.46-.12-.69-.35-1.63-1.16-3.15-1.79-4.71-1.7-4.19-2.06-9.2.26-13.08.84-1.41,2.02-2.63,2.65-4.15.82-1.95.67-4.16.31-6.24-.42-2.43-1.15-4.92-2.83-6.72-1.68-1.81-4.51-2.74-6.7-1.6,1.9-3.39,5.22-16.29,5.65-19.37.33-2.38-.72-5.09-2.65-6.32-1.11,1.22-4.42-17.08-5.49-21.15-.88-3.35-8.93-5.9-10.49-13.23-.06,1.47-.26,2.94-.47,4.4-2.36,16.01-6.16,31.89-6.54,48.08-1.31-.19-2.68-.4-3.75-1.19-1.06-.79-1.67-2.36-.97-3.48-4.45,5.03-8.81,4.7-8.81,4.7-.34.2,3.09-4.55,3.5-7.77-1.69,1.67-3.01,4.08-5.34,4.5-.81.15-1.65.02-2.46-.11-1.29-.2-2.73-.48-3.49-1.55-.35-.49-.65-1.19-1.26-1.18-.23,0-.44.13-.64.25-2,1.23-4.06,2.9-6.39,2.58.15-.08-1.4-.09-1.59-.49s-.21-.9-.5-1.24c-.25-.29-.65-.41-1.02-.51l-7.63-2.01c-.16-.04-.33-.08-.49-.02-.21.09-.29.35-.33.57-.19.98-.23,1.98-.13,2.97-1.68-2.05-3.85-3.68-6.29-4.72.61,1.67.73,3.51.36,5.25-.94-2.03-2.4-3.66-4.25-4.76-1.85-1.1-4.17-1.6-6.17-.8-1.25.5-2.36,1.49-3.71,1.53-.88.02-1.72-.37-2.59-.53-3.11-.54-5.8,2.01-8.06,4.22-2.25,2.21-5.43,4.43-8.32,3.16-1.5-.66-2.46-2.11-3.66-3.22-3.53-3.25-5.34-3.36-10.14-3.34,0,0-10.95-.81-13.54-.1-2.59.71-5.05,2.17-6.5,4.42-.72,1.12-1.27,2.49-2.49,3.01-1.17.5-2.49,0-3.76-.04-1.27-.05-2.84.86-2.59,2.72-3.41.04-7.51.48-9.05,3.53-.48.94-.62,2.01-.76,3.05-.7,5.26-1.4,10.65-.34,15.85-7.05-2.15-12.44-8.92-12.95-16.27-.07-1.05-.16-2.3-1.06-2.85-1.11-.67-2.87.16-3.71-.83-.4-.46-.39-1.14-.38-1.75.17-13.41-9.49-25.09-11.27-38.38-.44-3.29-.67-7.13-2.79-9.44-.37-.4-.78-.76-1.27-1.05-3.03,1.49-4.27,5.23-4.24,8.61s1.01,6.69,1.07,10.06c.07,3.77-.98,7.78.68,11.16.84,1.71,2.28,3.04,3.39,4.59,1.51,2.11,2.37,4.59,3.1,7.1.16.57.32,1.14.48,1.7,1.68,6.11,3.33,12.83.7,18.6-1.11,2.43-2.91,4.5-4,6.94s-1.3,5.61.56,7.53c1.04,1.07,2.52,1.55,3.81,2.29,1.29.74,2.51,2.02,2.34,3.5-.07.64-.4,1.22-.75,1.77-1.82,2.83-4.47,6.25-2.7,9.11.79,1.28,2.26,1.94,3.43,2.88.4.32.76.68,1.05,1.1,1.27,1.87.66,4.46-.51,6.39-1.17,1.94-2.83,3.57-3.78,5.62s-.94,4.84.86,6.21c0,0-2.92,5.2-3.56,10.32-.24,1.91-.17,3.81.5,5.42.38.92.83,1.82,1.06,2.79.19.81.21,1.65.23,2.48.18,10.92-.93,23.21,6.34,31.36.93,1.05,2.04,2.1,2.22,3.49.12.95-.22,1.89-.5,2.81-.59,1.92-.88,3.91-.93,5.92-.17,7.18,3.02,14.47,8.69,18.94-2.65.85-3.07,4.12-2.62,7.05.09.56.2,1.12.34,1.63,1.18,4.31,2.8,8.49,4.78,12.5,1.51,3.05,3.23,6,5.17,8.79,1.63,2.34,3.47,4.65,5.99,5.99,4.68,2.49,10.39,1.07,15.49-.4,2.3.29,3.45,2.54,3.46,4.45s-.63,3.84-.18,5.7c.52,2.1,2.31,3.61,4,4.96,3.14,2.51,6.39,5.08,10.27,6.11,5.9,1.56,12.63-.6,18,2.3,1.42.77,2.66,1.86,4.11,2.56,1.54.74,3.27,1.01,4.97,1.2,6.41.74,12.92.59,19.29-.44,2.83,3.93,7.81,6.21,12.63,5.78,4.83-.43,9.32-3.56,11.4-7.94,3.29.16,7.8-.96,11.91-2.91,2.48-1.18,5.1-3.11,5.2-5.86.04-1.23-.45-2.45-.3-3.68.31-2.49,2.96-3.85,5.13-5.1,8.53-4.9,14-14.7,13.69-24.54-.01-.47-.04-.93-.07-1.4-.12-1.77-.34-3.56-.37-5.32-.03-1.73.12-3.43.71-5.06,2.4-6.65,10.7-8.84,15.46-14.06.65-.71,1.24-1.5,1.48-2.43.11-.44.14-.89.12-1.34-.04-.72-.21-1.45-.41-2.14-1.04-3.66-2.64-7.17-4.73-10.35,4.17-2.93,5.78-8.53,5.27-13.61s-2.77-9.79-4.99-14.38c3.99-2.43,8.48-5.74,8.33-10.41-.06-1.97-1-3.85-.94-5.81.09-3.39,3.08-6.29,2.8-9.67,1.66-2.91,1.02-7.63.35-12.09l-.02.03Z"/>
    </g>
    <path class="st4" d="M398.77,277.62l8.06-2.67,6,2.67,3.56-3.56,9.27.89,2.73-.89,8,3.56,4.92-4.67s4.75.24,5.75,1.33c.55.6.44,3.21.44,3.21l3.15-.73,3.96-.92s-3.46,4.92-8.57,5.81-33.62,1.79-36.47,1.11c-2.23-.54-14.46-3.93-10.8-5.14h0Z"/>
    <circle class="st3" cx="380.48" cy="200.98" r="6.22"/>
    <circle class="st3" cx="459.64" cy="193.3" r="6.22"/>
  </g>
</svg>