<?xml version="1.0" encoding="UTF-8"?>
<svg id="Layer_1" xmlns="http://www.w3.org/2000/svg" version="1.1" viewBox="0 0 841.89 467.72">
  <!-- Generator: Adobe Illustrator 29.0.0, SVG Export Plug-In . SVG Version: 2.1.0 Build 186)  -->
  <defs>
    <style>
      .st0, .st1 {
        fill: none;
      }

      .st1 {
        stroke: #54565a;
        stroke-miterlimit: 10;
      }

      .st2 {
        fill: #37383b;
      }

      .st3 {
        fill: #fff;
      }

      .st4 {
        fill: #dae9f1;
      }

      .st5 {
        fill: #66676a;
      }

      .st6 {
        fill: #54565a;
      }

      .st7 {
        fill: #866e69;
      }

      .st8 {
        fill: #f4b9b3;
      }
    </style>
  </defs>
  <rect class="st4" x="-1.67" y="-.71" width="841.89" height="469.13"/>
  <g>
    <path class="st3" d="M479.72,347.14c.63-.25,1.25-.53,1.86-.84-.61.31-1.23.59-1.86.84Z"/>
    <path class="st3" d="M478.77,347.48c.28-.09.57-.2.85-.3-.28.11-.56.21-.85.3Z"/>
    <path class="st3" d="M497.33,328.77c-2.05,3.68-4.46,7.4-7.24,10.61,2.84-3.2,5.31-6.92,7.41-10.6-.05,0-.11,0-.16-.01h-.01Z"/>
    <path class="st3" d="M633.97,387.08c-35.75-26.49-82.96-43.51-112.42-53.72,16.09,20.88,46.81,39.44,46.81,39.44,0,0-1.42,6.15-1.42,10.88s25.07,26.01,33.11,29.8c7.33,3.45,11.91,46.21,12.66,53.73l56.51.04s-3.79-56.85-35.25-80.17h0Z"/>
    <path class="st3" d="M353.17,386.04c.47-8.04-23.65-12.3-28.85-17.5s-2.36-44.93-2.36-44.93c0,0-21.28,12.3-43.99,18.45-22.7,6.15-30.43,17.03-30.43,17.03,0,0-7.09,7.57-20.81,10.41s-28.38,13.24-35,53.92c-6.62,40.67-6.62,43.51-6.62,43.51l179.84.12c-6.66-9.35-28.49-40.39-34.48-53.57-7.09-15.61,22.23-19.39,22.7-27.43h0Z"/>
    <path class="st3" d="M459.46,405.46c-2.46.05-4,0-4-.13,0-.36-3.75-6.89-5.73-13.17-5.31,13.32-9.65,26.35-10,34.09,0,.08-.04.02-.09-.17-.8-1.48-7.03-12.94-15.5-28.71-15.17-26.89-37.35-65.65-47.52-85.3,1.07,4.11,2.28,8.37,3.61,12.74,16.49,54.13,51.29,125.57,59.58,142.29h22.12c-3.11-13.98-2.85-49.89-2.47-61.64h0Z"/>
    <path class="st3" d="M515.69,423.11c-3.44,1.53-4.21-25.05-4.21-25.05-5.08-13.8-10.63-24.04-15.8-31.6l1.27,2.15s1.72,25.62-3.25,30.98c-.83.9-2.47,1.67-4.6,2.33,1.77,2.99,3.38,6.41,3.83,9.53,1.01,6.93,20.24,46.24,25.1,55.7l32.31.02-26.47-82.5c-1.3,14.82-5.33,37.18-8.18,38.45h0Z"/>
    <path class="st3" d="M600.05,413.48c-8.04-3.78-33.11-25.07-33.11-29.8s1.42-10.88,1.42-10.88c0,0-30.72-18.57-46.81-39.44-2.96-3.83-5.42-7.75-7.11-11.64,0,0,1.22,4.08,2.75,10.2,2.33,9.31,5.4,23.35,6.05,35.07.65,4.14,1.04,7.51,1.04,9.65s-.16,4.94-.43,8.02l26.47,82.5,62.38.04c-.75-7.52-5.33-50.28-12.66-53.73h.01Z"/>
    <path class="st3" d="M376.61,312.06c-2.48-4.79-4.25-8.46-5.02-10.53-2.81-7.54-5.07-15.08-6.23-21.31-5.5,7.59-13.23,17.67-20.71,25.41-10.43,10.79-20.46,13.69-22.7,17.97,0,0-2.84,39.73,2.36,44.93s29.32,9.46,28.85,17.5-29.8,11.82-22.7,27.43c5.99,13.18,27.82,44.22,34.48,53.57l74.87.05c-8.29-16.72-43.09-88.16-59.58-142.29-1.33-4.38-2.54-8.63-3.61-12.74h-.01Z"/>
    <path class="st3" d="M497.49,328.78c-2.1,3.68-4.57,7.4-7.41,10.6-2.42,2.8-5.13,5.2-8.12,6.84l1.79.02,11.93,20.22c5.17,7.56,10.72,17.8,15.8,31.6,0,0,.76,26.58,4.21,25.05,2.85-1.27,6.88-23.62,8.18-38.45.27-3.08.43-5.85.43-8.02s-.39-5.51-1.04-9.65c-.66-11.72-3.72-25.77-6.05-35.07-.33-.1-6.59-25.15-6.68-26.41-.17-2.52-.49-6.38-2.51-7.53-.54,6.52-1.28,12.06-2.27,13.84-1.26,2.27-4.01,9.51-8.26,16.96h0Z"/>
    <path class="st3" d="M424.13,397.37c8.47,15.78,14.69,27.23,15.5,28.71-.04-.13-.09-.32-.15-.57-1.22-2.92-7.29-13.85-15.35-28.15h0Z"/>
    <path class="st3" d="M489.1,401.92c-7.86,2.45-22.57,3.4-29.64,3.54-.38,11.75-.64,47.66,2.47,61.65l56.1.04c-4.86-9.46-24.08-48.77-25.1-55.7-.46-3.12-2.06-6.54-3.83-9.53h0Z"/>
    <path class="st3" d="M481.97,346.23s-.08.05-.12.07h-.25c-.61.31-1.23.6-1.86.84-.04.01-.07.03-.11.04-.28.11-.56.21-.85.3-.33.11-.66.2-.99.29-1.22.32-2.48.53-3.78.57-1.19.04-2.63-.18-4.25-.6-2.67,5.39-12.36,25.2-20.03,44.42,1.98,6.28,5.73,12.81,5.73,13.17,0,.12,1.54.18,4,.13,7.08-.13,21.79-1.09,29.64-3.54,2.13-.66,3.76-1.43,4.6-2.33,4.97-5.35,3.25-30.98,3.25-30.98l-1.27-2.15-11.93-20.22-1.79-.02h0Z"/>
    <path class="st3" d="M365.36,177.14s1.91-1.53,1.91-8.22-1.71-27.58,4.03-35.61,2.7-20.54,1.17-24.75.19-20.95,21.42-34.14c21.23-13.19,27.58-13.53,43.84-15.06,6.2-.58,14.3-.05,30.11,3.54,7.35,1.67,14.41.26,20.81,3.54,15.93,8.17,30.12,21.32,29.53,27.39-1.34,13.77,1.15,12.81,5.74,20.65,4.59,7.84.96,7.84,5.74,13.77,1.94,2.41,5.16,9.03,5.74,16.06.84,10.28-1.53,21.42-1.53,21.42,0,0,9.04-20.91,13.48-21.77.29-2.58.31-5.43-.67-7.29-2.1-4.02,2.29-7.46-1.53-15.11s-3.06-15.11-5.16-18.36-1.91-2.87-.57-3.63c1.34-.76-6.88-9.18-7.27-11.09-.38-1.91-10.52-16.06-15.87-26.58-5.35-10.52-31.47-20.92-40.46-25.57-32.52-16.83-64.54.23-70.85,3.1s-34.36,20.99-39.9,30.55c-5.55,9.56-5.98,6.66-11.9,20.81,0,0-3.06,1.72-5.35,3.82s-3.74,7.2-3.55,20.02c.19,12.81,1.34,10.13-1.72,17.78-3.06,7.65,1.78,21.04,1.97,25.82.08,2.02.06,4.54,0,6.79,9.54,2.19,20.86,12.11,20.86,12.11h-.02Z"/>
    <path class="st3" d="M490.08,339.38c-2.5,2.82-5.28,5.23-8.35,6.84h.23c2.99-1.64,5.69-4.04,8.12-6.84Z"/>
    <path class="st3" d="M477.78,347.77c.33-.09.66-.19.99-.29-.33.11-.66.2-.99.29Z"/>
    <path class="st3" d="M479.62,347.18s.07-.03.11-.04c-.04.01-.07.03-.11.04Z"/>
    <path class="st3" d="M481.84,346.3s.08-.05.12-.07h-.23s-.1.05-.15.07h.26Z"/>
    <path class="st3" d="M439.72,426.25s-.03-.06-.09-.17c.05.18.08.25.09.17Z"/>
    <path class="st3" d="M439.63,426.08c.06.11.09.17.09.17,0-.1-.08-.36-.23-.73.06.24.11.44.15.57h0Z"/>
    <path class="st3" d="M551.26,162.29s.57-18.93-3.82-18.36c-.03,0-.07.02-.1.03-4.43.86-13.48,21.77-13.48,21.77,0,0,2.37-11.14,1.53-21.42-.57-7.03-3.79-13.65-5.74-16.06-4.78-5.93-1.15-5.93-5.74-13.77-4.59-7.84-7.08-6.88-5.74-20.65.59-6.07-13.6-19.22-29.53-27.39-6.41-3.28-13.46-1.87-20.81-3.54-15.81-3.59-23.91-4.13-30.11-3.54-16.25,1.53-22.61,1.86-43.84,15.06-21.22,13.19-22.95,29.94-21.42,34.14s4.57,16.72-1.17,24.75c-5.74,8.03-4.03,28.92-4.03,35.61s-1.91,8.22-1.91,8.22c0,0-11.32-9.92-20.86-12.11-.51-.12-13.49-8.52-4.84,20.76,1.61,5.46,6.28,17.82,15.7,25.45,3.75,3.04-.56,10.43.52,13.59,1.77,5.18,7.5,8.05,12.59,6.03,2.64-1.04,3.71-2.8,3.71-2.8,0,0,4.99,9.01,6.2,19.48.58,5.02-2.12,14.81-2.12,15.75,0,6.13.29,14.98.47,20.03.1.15.66,1.2.91,1.39.58.88.9,1.35,1.32,2.05,1.3,2.13,18.86,12.44,39.22,26.93,3.81,2.71,7.69,5.41,11.56,8.02,12.81,8.64,38.5,25.63,40,26.02,1.63.42,3.06.64,4.25.6,1.3-.04,2.56-.25,3.78-.57.33-.09.66-.19.99-.29.28-.09.57-.2.85-.3.04-.01.07-.03.11-.04.63-.25,1.25-.53,1.86-.84.05-.03.1-.05.15-.07,3.07-1.61,5.85-4.02,8.35-6.84,2.78-3.21,5.19-6.93,7.24-10.61.05,0,.11,0,.16.01,4.25-7.44,6.99-14.68,8.26-16.96.99-1.77,1.72-7.32,2.27-13.84,1.04-12.44,1.37-28.42,1.37-28.42,20.84-12.43,25.47-44.38,25.47-44.38l3.78-.56c6.12,1.72,4.02-12.43,3.25-18.93-.76-6.5,2.49-9.37,2.49-9.37,8.03-17.78,6.88-34.04,6.88-34.04h.02Z"/>
    <path class="st3" d="M429.75,321.72c-3.87-2.61-7.76-5.31-11.56-8.02-20.36-14.49-37.92-24.79-39.22-26.93-.42-.7-.96-1.49-1.54-2.37-.24-.2-.38-.31-.38-.31l-.02-.31c-.1-.15-.2-.31-.3-.46-1.9-2.96-.89-15.09-.5-16.24.03-.09-4.12,3.51-5.5,5.52-1.33,1.93-3.17,4.57-5.38,7.62,1.16,6.23,3.42,13.77,6.23,21.31.77,2.07,2.54,5.73,5.02,10.53,10.17,19.65,32.36,58.41,47.52,85.3,8.06,14.3,14.13,25.22,15.35,28.15.15.37.24.63.23.73.35-7.74,4.69-20.77,10-34.09,7.66-19.21,17.35-39.02,20.03-44.42-1.49-.39-27.19-17.38-40-26.02h.02Z"/>
    <path class="st3" d="M534.85,225.19s1.49-21.48,0-33.88-1-25.58-1-25.58"/>
    <path class="st3" d="M371.3,219.21s-7.89-35.42-5.94-42.07"/>
  </g>
  <g>
    <path class="st0" d="M481.66,347.61c.63-.25,1.25-.53,1.86-.84-.61.31-1.23.59-1.86.84Z"/>
    <path class="st0" d="M480.71,347.95c.28-.09.57-.2.85-.3-.28.11-.56.21-.85.3Z"/>
    <path class="st0" d="M499.27,329.24c-2.05,3.68-4.46,7.4-7.24,10.61,2.84-3.2,5.31-6.92,7.41-10.6-.05,0-.11,0-.16-.01h-.01Z"/>
    <path class="st5" d="M635.91,389.55c-35.75-26.49-82.96-43.51-112.42-53.72,16.09,20.88,46.81,39.44,46.81,39.44,0,0-1.42,6.15-1.42,10.88s25.07,26.01,33.11,29.8c7.33,3.45,11.91,46.21,12.66,53.73l56.51.04s-3.79-56.85-35.25-80.17Z"/>
    <path class="st5" d="M355.11,386.52c.47-8.04-23.65-12.3-28.85-17.5s-2.36-44.93-2.36-44.93c0,0-21.28,12.3-43.99,18.45-22.7,6.15-30.43,17.03-30.43,17.03,0,0-7.09,7.57-20.81,10.41s-28.38,13.24-35,53.92c-6.62,40.67-6.62,43.51-6.62,43.51l179.84.12c-6.66-9.35-28.49-40.39-34.48-53.57-7.09-15.61,22.23-19.39,22.7-27.43h0Z"/>
    <path class="st3" d="M461.4,405.93c-2.46.05-4,0-4-.13,0-.36-3.75-6.89-5.73-13.17-5.31,13.32-9.65,26.35-10,34.09,0,.08-.04.02-.09-.17-.8-1.48-7.03-12.94-15.5-28.71-15.17-26.89-37.35-65.65-47.52-85.3,1.07,4.11,2.28,8.37,3.61,12.74,16.49,54.13,51.29,125.57,59.58,142.29h22.12c-3.11-13.98-2.85-49.89-2.47-61.64h0Z"/>
    <path class="st3" d="M517.63,423.58c-3.44,1.53-4.21-25.05-4.21-25.05-5.08-13.8-10.63-24.04-15.8-31.6l1.27,2.15s1.72,25.62-3.25,30.98c-.83.9-2.47,1.67-4.6,2.33,1.77,2.99,3.38,6.41,3.83,9.53,1.01,6.93,20.24,46.24,25.1,55.7l32.31.02-26.47-82.5c-1.3,14.82-5.33,37.18-8.18,38.45h0Z"/>
    <path class="st5" d="M599.99,413.95c-8.04-3.78-33.11-25.07-33.11-29.8s1.42-10.88,1.42-10.88c0,0-30.72-18.57-46.81-39.44-2.96-3.83-5.42-7.75-7.11-11.64,0,0,1.22,4.08,2.75,10.2,2.33,9.31,5.4,23.35,6.05,35.07.65,4.14,1.04,7.51,1.04,9.65s-.16,4.94-.43,8.02l26.47,82.5,62.38.04c-.75-7.52-5.33-50.28-12.66-53.73h.01Z"/>
    <path class="st5" d="M378.55,312.54c-2.48-4.79-4.25-8.46-5.02-10.53-2.81-7.54-5.07-15.08-6.23-21.31-5.5,7.59-13.23,17.67-20.71,25.41-10.43,10.79-20.46,13.69-22.7,17.97,0,0-2.84,39.73,2.36,44.93s29.32,9.46,28.85,17.5-29.8,11.82-22.7,27.43c5.99,13.18,27.82,44.22,34.48,53.57l74.87.05c-8.29-16.72-43.09-88.16-59.58-142.29-1.33-4.38-2.54-8.63-3.61-12.74h-.01Z"/>
    <path class="st3" d="M499.43,329.25c-2.1,3.68-4.57,7.4-7.41,10.6-2.42,2.8-5.13,5.2-8.12,6.84l1.79.02,11.93,20.22c5.17,7.56,10.72,17.8,15.8,31.6,0,0,.76,26.58,4.21,25.05,2.85-1.27,6.88-23.62,8.18-38.45.27-3.08.43-5.85.43-8.02s-.39-5.51-1.04-9.65c-.66-11.72-3.72-25.77-6.05-35.07-.33-.1-6.59-25.15-6.68-26.41-.17-2.52-.49-6.38-2.51-7.53-.54,6.52-1.28,12.06-2.27,13.84-1.26,2.27-4.01,9.51-8.26,16.96h0Z"/>
    <path class="st4" d="M426.07,397.84c8.47,15.78,14.69,27.23,15.5,28.71-.04-.13-.09-.32-.15-.57-1.22-2.92-7.29-13.85-15.35-28.15h0Z"/>
    <path class="st2" d="M491.04,402.39c-7.86,2.45-22.57,3.4-29.64,3.54-.38,11.75-.64,47.66,2.47,61.65l56.1.04c-4.86-9.46-24.08-48.77-25.1-55.7-.46-3.12-2.06-6.54-3.83-9.53h0Z"/>
    <path class="st2" d="M483.9,346.7s-.08.05-.12.07h-.25c-.61.31-1.23.6-1.86.84-.04.01-.07.03-.11.04-.28.11-.56.21-.85.3-.33.11-.66.2-.99.29-1.22.32-2.48.53-3.78.57-1.19.04-2.63-.18-4.25-.6-2.67,5.39-12.36,25.2-20.03,44.42,1.98,6.28,5.73,12.81,5.73,13.17,0,.12,1.54.18,4,.13,7.08-.13,21.79-1.09,29.64-3.54,2.13-.66,3.76-1.43,4.6-2.33,4.97-5.35,3.25-30.98,3.25-30.98l-1.27-2.15-11.93-20.22-1.79-.02h0Z"/>
    <path class="st7" d="M365.3,178.62s1.91-1.53,1.91-8.22-1.71-27.58,4.03-35.61,2.7-20.54,1.17-24.75.19-20.95,21.42-34.14c21.23-13.19,27.58-13.53,43.84-15.06,6.2-.58,14.3-.05,30.11,3.54,7.35,1.67,14.41.26,20.81,3.54,15.93,8.17,30.12,21.32,29.53,27.39-1.34,13.77,1.15,12.81,5.74,20.65,4.59,7.84.96,7.84,5.74,13.77,1.94,2.41,5.16,9.03,5.74,16.06.84,10.28-1.53,21.42-1.53,21.42,0,0,9.04-20.91,13.48-21.77.29-2.58.31-5.43-.67-7.29-2.1-4.02,2.29-7.46-1.53-15.11s-3.06-15.11-5.16-18.36-1.91-2.87-.57-3.63c1.34-.76-6.88-9.18-7.27-11.09-.38-1.91-10.52-16.06-15.87-26.58-5.35-10.52-31.47-20.92-40.46-25.57-32.52-16.83-64.54.23-70.85,3.1s-34.36,20.99-39.9,30.55c-5.55,9.56-5.98,6.66-11.9,20.81,0,0-3.06,1.72-5.35,3.82s-3.74,7.2-3.55,20.02c.19,12.81,1.34,10.13-1.72,17.78-3.06,7.65,1.78,21.04,1.97,25.82.08,2.02.06,4.54,0,6.79,9.54,2.19,20.86,12.11,20.86,12.11h-.02Z"/>
    <path class="st1" d="M492.02,339.85c-2.5,2.82-5.28,5.23-8.35,6.84h.23c2.99-1.64,5.69-4.04,8.12-6.84Z"/>
    <path class="st1" d="M479.72,348.25c.33-.09.66-.19.99-.29-.33.11-.66.2-.99.29Z"/>
    <path class="st1" d="M481.55,347.65s.07-.03.11-.04c-.04.01-.07.03-.11.04Z"/>
    <path class="st1" d="M483.78,346.77s.08-.05.12-.07h-.23s-.1.05-.15.07h.26Z"/>
    <path class="st4" d="M441.66,426.72s-.03-.06-.09-.17c.05.18.08.25.09.17Z"/>
    <path class="st4" d="M441.57,426.55c.06.11.09.17.09.17,0-.1-.08-.36-.23-.73.06.24.11.44.15.57h0Z"/>
    <path class="st8" d="M551,162.76s.57-18.93-3.82-18.36c-.03,0-.07.02-.1.03-4.43.86-13.48,21.77-13.48,21.77,0,0,2.37-11.14,1.53-21.42-.57-7.03-3.79-13.65-5.74-16.06-4.78-5.93-1.15-5.93-5.74-13.77-4.59-7.84-7.08-6.88-5.74-20.65.59-6.07-13.6-19.22-29.53-27.39-6.41-3.28-13.46-1.87-20.81-3.54-15.81-3.59-23.91-4.13-30.11-3.54-16.25,1.53-22.61,1.86-43.84,15.06-21.22,13.19-22.95,29.94-21.42,34.14s4.57,16.72-1.17,24.75c-5.74,8.03-4.03,28.92-4.03,35.61s-1.91,8.22-1.91,8.22c0,0-11.32-9.92-20.86-12.11-.51-.12-13.49-8.52-4.84,20.76,1.61,5.46,6.28,17.82,15.7,25.45,3.75,3.04-.56,10.43.52,13.59,1.77,5.18,7.5,8.05,12.59,6.03,2.64-1.04,3.71-2.8,3.71-2.8,0,0,4.99,9.01,6.2,19.48.58,5.02-2.12,14.81-2.12,15.75,0,6.13.29,14.98.47,20.03.1.15.2.31.3.46l.02.31s.13.11.38.31c.58.88,1.11,1.67,1.54,2.37,1.3,2.13,18.86,12.44,39.22,26.93,3.81,2.71,7.69,5.41,11.56,8.02,12.81,8.64,38.5,25.63,40,26.02,1.63.42,3.06.64,4.25.6,1.3-.04,2.56-.25,3.78-.57.33-.09.66-.19.99-.29.28-.09.57-.2.85-.3.04-.01.07-.03.11-.04.63-.25,1.25-.53,1.86-.84.05-.03.1-.05.15-.07,3.07-1.61,5.85-4.02,8.35-6.84,2.78-3.21,5.19-6.93,7.24-10.61.05,0,.11,0,.16.01,4.25-7.44,6.99-14.68,8.26-16.96.99-1.77,1.72-7.32,2.27-13.84,1.04-12.44,1.37-28.42,1.37-28.42,20.84-12.43,25.47-44.38,25.47-44.38l3.78-.56c6.12,1.72,4.02-12.43,3.25-18.93-.76-6.5,2.49-9.37,2.49-9.37,8.03-17.78,6.88-34.04,6.88-34.04h.01Z"/>
    <path class="st3" d="M432.04,322.19c-3.87-2.61-7.76-5.31-11.56-8.02-20.36-14.49-37.92-24.79-39.22-26.93-.42-.7-.96-1.49-1.54-2.37-.24-.2-.4-.61-.4-.61-.1-.15-.2-.31-.3-.46-1.9-2.96-1.88-15.09-1.49-16.24-.92,0-3.12,3.51-4.51,5.52-1.33,1.93-3.17,4.57-5.38,7.62,1.16,6.23,3.42,13.77,6.23,21.31.77,2.07,2.54,5.73,5.02,10.53,10.17,19.65,32.36,58.41,47.52,85.3,8.06,14.3,14.13,25.22,15.35,28.15.15.37.24.63.23.73.35-7.74,4.69-20.77,10-34.09,7.66-19.21,17.35-39.02,20.03-44.42-1.49-.39-27.19-17.38-40-26.02h.02Z"/>
    <path class="st8" d="M536.79,225.66s1.49-21.48,0-33.88-1-25.58-1-25.58"/>
    <path class="st8" d="M373.24,219.68s-7.89-35.42-5.94-42.07"/>
  </g>
  <g>
    <path class="st1" d="M354.88,176.8s-8.51-11.2-11.64-8.51-.9,25.98,5.82,30.01"/>
    <path class="st1" d="M360.59,183.33s5.37,3.14,2.69,9.85-.9,10.75,3.14,12.99"/>
    <path class="st1" d="M533.92,177.95s6.27,16.12,3.58,19.26"/>
    <path class="st1" d="M538.17,164.55s6.05-14.36,8.74-11.68-2.69,30.46-2.69,30.46"/>
  </g>
  <g>
    <path class="st0" d="M479.79,347.14c.63-.25,1.25-.53,1.86-.84-.61.31-1.23.59-1.86.84Z"/>
    <path class="st0" d="M478.84,347.48c.28-.09.57-.2.85-.3-.28.11-.56.21-.85.3Z"/>
    <path class="st0" d="M497.4,328.77c-2.05,3.68-4.46,7.4-7.24,10.61,2.84-3.2,5.31-6.92,7.41-10.6-.05,0-.11,0-.16-.01h-.01Z"/>
    <path class="st1" d="M634.04,387.08c-35.75-26.49-82.96-43.51-112.42-53.72,16.09,20.88,46.81,39.44,46.81,39.44,0,0-1.42,6.15-1.42,10.88s25.07,26.01,33.11,29.8c7.33,3.45,11.91,46.21,12.66,53.73l56.51.04s-3.79-56.85-35.25-80.17h0Z"/>
    <path class="st1" d="M353.24,386.04c.47-8.04-23.65-12.3-28.85-17.5s-2.36-44.93-2.36-44.93c0,0-21.28,12.3-43.99,18.45-22.7,6.15-30.43,17.03-30.43,17.03,0,0-7.09,7.57-20.81,10.41s-28.38,13.24-35,53.92c-6.62,40.67-6.62,43.51-6.62,43.51l179.84.12c-6.66-9.35-28.49-40.39-34.48-53.57-7.09-15.61,22.23-19.39,22.7-27.43h0Z"/>
    <path class="st1" d="M459.53,405.46c-2.46.05-4,0-4-.13,0-.36-3.75-6.89-5.73-13.17-5.31,13.32-9.65,26.35-10,34.09,0,.08-.04.02-.09-.17-.8-1.48-7.03-12.94-15.5-28.71-15.17-26.89-37.35-65.65-47.52-85.3,1.07,4.11,2.28,8.37,3.61,12.74,16.49,54.13,51.29,125.57,59.58,142.29h22.12c-3.11-13.98-2.85-49.89-2.47-61.64h0Z"/>
    <path class="st1" d="M515.76,423.11c-3.44,1.53-4.21-25.05-4.21-25.05-5.08-13.8-10.63-24.04-15.8-31.6l1.27,2.15s1.72,25.62-3.25,30.98c-.83.9-2.47,1.67-4.6,2.33,1.77,2.99,3.38,6.41,3.83,9.53,1.01,6.93,20.24,46.24,25.1,55.7l32.31.02-26.47-82.5c-1.3,14.82-5.33,37.18-8.18,38.45h0Z"/>
    <path class="st1" d="M600.12,413.48c-8.04-3.78-33.11-25.07-33.11-29.8s1.42-10.88,1.42-10.88c0,0-30.72-18.57-46.81-39.44-2.96-3.83-5.42-7.75-7.11-11.64,0,0,1.22,4.08,2.75,10.2,2.33,9.31,5.4,23.35,6.05,35.07.65,4.14,1.04,7.51,1.04,9.65s-.16,4.94-.43,8.02l26.47,82.5,62.38.04c-.75-7.52-5.33-50.28-12.66-53.73h.01Z"/>
    <path class="st1" d="M376.68,312.06c-2.48-4.79-4.25-8.46-5.02-10.53-2.81-7.54-5.07-15.08-6.23-21.31-5.5,7.59-13.23,17.67-20.71,25.41-10.43,10.79-20.46,13.69-22.7,17.97,0,0-2.84,39.73,2.36,44.93s29.32,9.46,28.85,17.5-29.8,11.82-22.7,27.43c5.99,13.18,27.82,44.22,34.48,53.57l74.87.05c-8.29-16.72-43.09-88.16-59.58-142.29-1.33-4.38-2.54-8.63-3.61-12.74h-.01Z"/>
    <path class="st1" d="M497.56,328.78c-2.1,3.68-4.57,7.4-7.41,10.6-2.42,2.8-5.13,5.2-8.12,6.84l1.79.02,11.93,20.22c5.17,7.56,10.72,17.8,15.8,31.6,0,0,.76,26.58,4.21,25.05,2.85-1.27,6.88-23.62,8.18-38.45.27-3.08.43-5.85.43-8.02s-.39-5.51-1.04-9.65c-.66-11.72-3.72-25.77-6.05-35.07-.33-.1-6.59-25.15-6.68-26.41-.17-2.52-.49-6.38-2.51-7.53-.54,6.52-1.28,12.06-2.27,13.84-1.26,2.27-4.01,9.51-8.26,16.96h0Z"/>
    <path class="st1" d="M424.2,397.37c8.47,15.78,14.69,27.23,15.5,28.71-.04-.13-.09-.32-.15-.57-1.22-2.92-7.29-13.85-15.35-28.15h0Z"/>
    <path class="st1" d="M489.17,401.92c-7.86,2.45-22.57,3.4-29.64,3.54-.38,11.75-.64,47.66,2.47,61.65l56.1.04c-4.86-9.46-24.08-48.77-25.1-55.7-.46-3.12-2.06-6.54-3.83-9.53h0Z"/>
    <path class="st1" d="M482.04,346.23s-.08.05-.12.07h-.25c-.61.31-1.23.6-1.86.84-.04.01-.07.03-.11.04-.28.11-.56.21-.85.3-.33.11-.66.2-.99.29-1.22.32-2.48.53-3.78.57-1.19.04-2.63-.18-4.25-.6-2.67,5.39-12.36,25.2-20.03,44.42,1.98,6.28,5.73,12.81,5.73,13.17,0,.12,1.54.18,4,.13,7.08-.13,21.79-1.09,29.64-3.54,2.13-.66,3.76-1.43,4.6-2.33,4.97-5.35,3.25-30.98,3.25-30.98l-1.27-2.15-11.93-20.22-1.79-.02h0Z"/>
    <path class="st1" d="M365.43,177.14s1.91-1.53,1.91-8.22-1.71-27.58,4.03-35.61,2.7-20.54,1.17-24.75.19-20.95,21.42-34.14c21.23-13.19,27.58-13.53,43.84-15.06,6.2-.58,14.3-.05,30.11,3.54,7.35,1.67,14.41.26,20.81,3.54,15.93,8.17,30.12,21.32,29.53,27.39-1.34,13.77,1.15,12.81,5.74,20.65,4.59,7.84.96,7.84,5.74,13.77,1.94,2.41,5.16,9.03,5.74,16.06.84,10.28-1.53,21.42-1.53,21.42,0,0,9.04-20.91,13.48-21.77.29-2.58.31-5.43-.67-7.29-2.1-4.02,2.29-7.46-1.53-15.11s-3.06-15.11-5.16-18.36-1.91-2.87-.57-3.63c1.34-.76-6.88-9.18-7.27-11.09-.38-1.91-10.52-16.06-15.87-26.58-5.35-10.52-31.47-20.92-40.46-25.57-32.52-16.83-64.54.23-70.85,3.1s-34.36,20.99-39.9,30.55c-5.55,9.56-5.98,6.66-11.9,20.81,0,0-3.06,1.72-5.35,3.82s-3.74,7.2-3.55,20.02c.19,12.81,1.34,10.13-1.72,17.78-3.06,7.65,1.78,21.04,1.97,25.82.08,2.02.06,4.54,0,6.79,9.54,2.19,20.86,12.11,20.86,12.11h-.02Z"/>
    <path class="st1" d="M490.15,339.38c-2.5,2.82-5.28,5.23-8.35,6.84h.23c2.99-1.64,5.69-4.04,8.12-6.84Z"/>
    <path class="st1" d="M477.85,347.77c.33-.09.66-.19.99-.29-.33.11-.66.2-.99.29Z"/>
    <path class="st1" d="M479.69,347.18s.07-.03.11-.04c-.04.01-.07.03-.11.04Z"/>
    <path class="st1" d="M481.91,346.3s.08-.05.12-.07h-.23s-.1.05-.15.07h.26Z"/>
    <path class="st1" d="M439.79,426.25s-.03-.06-.09-.17c.05.18.08.25.09.17Z"/>
    <path class="st1" d="M439.7,426.08c.06.11.09.17.09.17,0-.1-.08-.36-.23-.73.06.24.11.44.15.57h0Z"/>
    <path class="st1" d="M551.33,162.29s.57-18.93-3.82-18.36c-.03,0-.07.02-.1.03-4.43.86-13.48,21.77-13.48,21.77,0,0,2.37-11.14,1.53-21.42-.57-7.03-3.79-13.65-5.74-16.06-4.78-5.93-1.15-5.93-5.74-13.77-4.59-7.84-7.08-6.88-5.74-20.65.59-6.07-13.6-19.22-29.53-27.39-6.41-3.28-13.46-1.87-20.81-3.54-15.81-3.59-23.91-4.13-30.11-3.54-16.25,1.53-22.61,1.86-43.84,15.06-21.22,13.19-22.95,29.94-21.42,34.14s4.57,16.72-1.17,24.75c-5.74,8.03-4.03,28.92-4.03,35.61s-1.91,8.22-1.91,8.22c0,0-11.32-9.92-20.86-12.11-.51-.12-13.49-8.52-4.84,20.76,1.61,5.46,6.28,17.82,15.7,25.45,3.75,3.04-.56,10.43.52,13.59,1.77,5.18,7.5,8.05,12.59,6.03,2.64-1.04,3.71-2.8,3.71-2.8,0,0,4.99,9.01,6.2,19.48.58,5.02-2.12,14.81-2.12,15.75,0,6.13.29,14.98.47,20.03.1.15.2.31.3.46,0,0,1.51,2.29,1.94,2.98,1.3,2.13,18.86,12.44,39.22,26.93,3.81,2.71,7.69,5.41,11.56,8.02,12.81,8.64,38.5,25.63,40,26.02,1.63.42,3.06.64,4.25.6,1.3-.04,2.56-.25,3.78-.57.33-.09.66-.19.99-.29.28-.09.57-.2.85-.3.04-.01.07-.03.11-.04.63-.25,1.25-.53,1.86-.84.05-.03.1-.05.15-.07,3.07-1.61,5.85-4.02,8.35-6.84,2.78-3.21,5.19-6.93,7.24-10.61.05,0,.11,0,.16.01,4.25-7.44,6.99-14.68,8.26-16.96.99-1.77,1.72-7.32,2.27-13.84,1.04-12.44,1.37-28.42,1.37-28.42,20.84-12.43,25.47-44.38,25.47-44.38l3.78-.56c6.12,1.72,4.02-12.43,3.25-18.93-.76-6.5,2.49-9.37,2.49-9.37,8.03-17.78,6.88-34.04,6.88-34.04h.01Z"/>
    <path class="st1" d="M429.82,321.72c-3.87-2.61-7.76-5.31-11.56-8.02-20.36-14.49-37.92-24.79-39.22-26.93-.42-.7-1.94-2.98-1.94-2.98-.1-.15-.2-.31-.3-.46-1.9-2.96-.89-15.09-.5-16.24.03-.09-4.12,3.51-5.5,5.52-1.33,1.93-3.17,4.57-5.38,7.62,1.16,6.23,3.42,13.77,6.23,21.31.77,2.07,2.54,5.73,5.02,10.53,10.17,19.65,32.36,58.41,47.52,85.3,8.06,14.3,14.13,25.22,15.35,28.15.15.37.24.63.23.73.35-7.74,4.69-20.77,10-34.09,7.66-19.21,17.35-39.02,20.03-44.42-1.49-.39-27.19-17.38-40-26.02h.02Z"/>
    <path class="st1" d="M534.92,225.19s1.49-21.48,0-33.88c-1.49-12.4-1-25.58-1-25.58"/>
    <path class="st1" d="M371.37,219.21s-7.89-35.42-5.94-42.07"/>
    <path class="st1" d="M376.68,225.19s15.5,40.51,34.1,47.6c18.6,7.08,37.68,11.87,59.04,10.63,21.36-1.24,39.63-13.85,39.63-13.85"/>
    <path class="st1" d="M439.81,180.49s-12.78,11.94-4.63,17.69"/>
    <path class="st1" d="M439.88,198.18s7.17-1.31,8.65,2.72,14.75,3.43,19.49,0,5.51-8.01,9.32-7.19"/>
    <path class="st1" d="M480.73,192.42s8.05-11.86-3.39-17.8"/>
    <path class="st3" d="M443.07,219.21c-5.16-.64-16.06.27-22.82.96,2.01,1.99,6.2,5.9,9.01,7,3.81,1.48,35.4,6.96,51.16,0,7.83-3.46,11.71-6.08,13.52-7.86-11.02.32-43.81.78-50.87-.09h0Z"/>
    <path class="st1" d="M414.42,220.81s20.85-2.57,28.65-1.6,46.99.31,53.56,0"/>
    <path class="st1" d="M443.07,260.11c-.08-.28,25.21-7.8,40.42-1.95"/>
    <path class="st1" d="M443.07,219.21c-5.16-.64-16.06.27-22.82.96,2.01,1.99,6.2,5.9,9.01,7,3.81,1.48,35.4,6.96,51.16,0,7.83-3.46,11.71-6.08,13.52-7.86-11.02.32-43.81.78-50.87-.09h0Z"/>
  </g>
  <circle class="st6" cx="411.57" cy="151.86" r="6.06"/>
  <circle class="st6" cx="490.57" cy="145.8" r="6.06"/>
</svg>