<?xml version="1.0" encoding="UTF-8"?>
<svg id="Layer_1" xmlns="http://www.w3.org/2000/svg" xmlns:xlink="http://www.w3.org/1999/xlink" version="1.1" viewBox="0 0 841.89 467.72">
  <!-- Generator: Adobe Illustrator 29.0.0, SVG Export Plug-In . SVG Version: 2.1.0 Build 186)  -->
  <defs>
    <style>
      .st0, .st1 {
        fill: none;
      }

      .st2 {
        fill: #fdf3df;
      }

      .st3 {
        fill: #f6d17d;
      }

      .st1 {
        stroke: #55565a;
        stroke-miterlimit: 10;
      }

      .st4 {
        fill: #ea9923;
      }

      .st5 {
        fill: #885e40;
      }

      .st6 {
        fill: #55565a;
      }

      .st7 {
        fill: #fff;
      }

      .st8 {
        fill: #e4b19f;
      }

      .st9 {
        clip-path: url(#clippath);
      }
    </style>
    <clipPath id="clippath">
      <rect class="st0" y="0" width="841.89" height="469.18"/>
    </clipPath>
  </defs>
  <g class="st9">
    <rect class="st3" y="0" width="841.89" height="469.18"/>
    <g>
      <g>
        <polygon class="st7" points="327.99 414.43 360.75 546.51 489.97 559.87 470.17 366.71 450.13 321.93 318.86 360.81 327.99 414.43"/>
        <g>
          <path class="st7" d="M329.84,314.7c.28-2.05.62-4.1.88-6.16,1.74-13.48-.04-27.08-2.54-40.51-7.21-15.27-6.32-33.39-11.03-49.77-1.85,3.11-5.7,4.47-8.87,3.58s-5.59-3.62-6.81-6.68c-.38-.96-.68-1.99-1.33-2.79-.65-.8-1.58-1.31-2.39-1.95-1.95-1.55-3.26-5.04-4.03-8.11-1.11,4.89-2.09,9.81-5.88,12.82-2.62,2.09-6.26,2.89-8.34,5.51-3.82,4.81-.11,11.67,2.88,17.03,2.6,4.65,4.67,9.74,4.88,15.06s-1.69,10.92-5.85,14.25c-3.26,2.6-7.57,3.62-10.79,6.27-5.52,4.53-6.22,13.8-1.45,19.11,4.41,4.91,12.48,6.68,14.51,12.96,1.36,4.19-.69,8.71-3.18,12.34s-5.56,7.07-6.59,11.35c-1.1,4.55.29,9.33,2.21,13.6,3.2,7.1,7.93,13.5,13.19,18.2,3.04-5.03,6.26-9.95,9.77-14.67,8.77-11.81,19.2-22.34,30.76-31.44h0Z"/>
          <path class="st7" d="M489.11,217.79c-.06,3.95-1.13,8.05-3.85,10.91s-5.59,6.93-9.03,4.99c-.71-.4-3.11-3.74-3.9-3.95-2.86-.77-4.88,2.7-5.82,5.5-2.29,6.87-5.66,31.53-13.08,40.89-1.48,1.87-3.08,3.63-4.76,5.32.4,5.92.73,11.84.97,17.76h.02c1.48.25,2.78,1.1,3.99,1.97,5.99,4.28,11.2,9.54,16.52,14.66,11.3,2.62,22.19,6.99,32.17,12.9,1.56.92,3.13,1.9,4.91,2.25,2.37.46,4.79-.24,7.17-.66.34-1.82.39-3.69-.26-5.4-.77-2.02-2.42-3.58-3.48-5.46-2.85-5.04-1.11-11.38,1.13-16.72,2.24-5.34,4.98-10.97,3.89-16.66-2.3-12-19.64-16.26-22.15-28.22-.7-3.33-.09-6.77.52-10.12l4.36-23.91c.69-3.8,1.39-7.68.8-11.5-.59-3.82-2.7-7.62-6.23-9.19-.37-.17-.76-.29-1.15-.39-1.25,2.46-2.35,4.96-2.7,7.68-.31,2.43,0,4.89-.05,7.34h.01Z"/>
          <path class="st7" d="M447.35,383.57c-.2,2.14-.42,4.32-1.24,6.31-.99,2.42-2.77,4.4-4.52,6.33-13.39,14.78-26.79,29.56-40.18,44.35-1.86,2.06-3.77,4.19-4.69,6.81-1.4,3.98-.28,8.35.84,12.42-10.25-6.53-19.88-14.05-28.71-22.41,7.31-1.87,11.43-11.4,7.79-18.01-1.41-2.55-3.66-4.52-5.78-6.52-15.47-14.55-26.2-33.33-33.18-53.51,7.52,41.21,21.97,81.24,32.58,121.85,10.05-4.25,21.66-4.77,32.03-1.31,11.44,3.82,21.19,12.41,26.42,23.27,4.66,9.69,5.72,20.66,6.71,31.36.31,3.39.63,6.78,2.74,10.16.25-26.98-7.99-53.98-23.26-76.23-2.67-3.89-5.59-7.7-7.28-12.11-1.69-4.41-2.01-9.64.47-13.66,3.25-5.29,10.35-6.99,16.5-6.1,6.15.89,11.8,3.78,17.7,5.72,1.73.57,3.67,1.05,5.34.31,1.21-.54,2.06-1.63,2.8-2.72,8.36-12.38,7.35-28.59,6.03-43.47l-3.42-38.4c-.98-6.55-2-13.09-3.04-19.62-.34,15.08-1.21,30.15-2.63,45.17h-.02Z"/>
          <path class="st7" d="M449.99,310.79c-.08-3.86-.2-7.72-.35-11.58-.24-5.92-.56-11.85-.97-17.76-2.15,2.15-4.43,4.18-6.8,6.11-7,5.69-14.8,10.6-22.07,15.84-20.28,11.96-48.02,9.95-66.58-4.83-1.98-1.58-3.84-3.28-5.63-5.06-3.6-3.58-6.89-7.5-10.08-11.47-2.85-3.55-5.65-7.18-7.86-11.16-.52-.94-1.01-1.89-1.46-2.86,2.5,13.43,4.28,27.02,2.54,40.51-.27,2.06-.6,4.1-.88,6.16-.21,1.51-.38,3.03-.45,4.56-.21,4.58.45,9.15,1.3,13.67.05.29.11.57.16.86.26,1.34.55,2.68.83,4.01,1.56,7.28,3.54,14.5,5.98,21.55,6.98,20.18,17.7,38.96,33.18,53.51,2.13,2,4.37,3.96,5.78,6.52,3.64,6.61-.48,16.14-7.79,18.01,8.83,8.36,18.46,15.87,28.71,22.41-1.12-4.07-2.23-8.44-.84-12.42.92-2.62,2.83-4.75,4.69-6.81,13.39-14.78,26.79-29.56,40.18-44.35,1.75-1.93,3.54-3.92,4.52-6.33.81-1.99,1.03-4.17,1.24-6.31,1.42-15.02,2.29-30.09,2.63-45.17.04-1.78.08-3.56.1-5.33.1-7.43.07-14.85-.09-22.28h.01Z"/>
          <path class="st7" d="M675.12,523.92c1.25-9.93,4.45-21.75-2.81-28.64-4.61-4.38-13.22-6.74-12.56-13.07.21-2.05,1.5-3.81,2.36-5.68,3.54-7.72-.31-16.63-3.92-24.31-12.67-26.92-23.07-54.91-31.07-83.56-.74-2.65-1.5-5.39-3.24-7.52-2.01-2.45-5.06-3.77-8.03-4.87-9.44-3.49-19.37-5.64-29.4-6.36-13.62-.98-28.18.44-40.05-6.31-5.79-3.29-10.5-8.35-16.53-11.19-4.71-2.22-10.1-2.96-15.23-2.11-.07.01-.13.02-.2.04-2.39.41-4.8,1.12-7.17.66-1.78-.35-3.35-1.32-4.91-2.25-9.98-5.92-20.87-10.28-32.17-12.9,4.54,4.37,9.16,8.65,14.4,12.12,4.69,3.11,9.8,5.52,14.52,8.57,3.3,2.13,6.37,4.55,9.27,7.18,8.83,8.01,15.99,17.94,22.97,27.7-9.94,3.73-19.88,7.46-29.82,11.2,11.93,6.92,26.63,5.76,40.37,6.99,1.7.15,3.51.39,4.81,1.5,2.09,1.79,2,4.99,1.7,7.72-3.37,30.7-11.32,60.69-19.3,90.52-5.57,20.81-11.19,41.69-19.39,61.61-.68,1.66-1.41,3.33-2.25,4.92,1.38.84,2.86,1.51,4.43,1.97,6.42,1.88,13.28.15,19.96.25,5.7.09,11.29,1.53,16.9,2.55,42.62,7.77,85.68-8.46,128.94-10.94-2.76-8.27-3.64-17.15-2.56-25.8h-.02Z"/>
          <path class="st7" d="M546.69,391.1c-1.3-1.11-3.11-1.35-4.81-1.5-13.74-1.22-28.44-.06-40.37-6.99,9.94-3.73,19.88-7.46,29.82-11.2-6.98-9.76-14.15-19.69-22.97-27.7-2.89-2.62-5.96-5.04-9.27-7.18-4.72-3.05-9.83-5.47-14.52-8.57-5.24-3.48-9.86-7.75-14.4-12.12-5.32-5.12-10.53-10.38-16.52-14.66-1.22-.87-2.52-1.72-3.99-1.97h-.02c.15,3.86.27,7.72.35,11.58.16,7.42.19,14.85.09,22.28-.02,1.78-.06,3.56-.1,5.33,1.04,6.54,2.06,13.08,3.04,19.62,3.16,21.03,5.91,42.11,7.63,63.3,3.69,45.4,2.7,91.63,14.45,135.64.94,3.51,2.31,7.43,5.63,8.89,1.85.82,3.97.69,5.99.55,5.63-.4,11.64-.94,16.03-4.49,2-1.62,3.48-3.74,4.69-6.04.85-1.59,1.57-3.26,2.25-4.92,8.2-19.93,13.82-40.8,19.39-61.61,7.98-29.83,15.94-59.82,19.3-90.52.3-2.73.39-5.94-1.7-7.72h0Z"/>
          <path class="st7" d="M286.03,463c-2.34-6.4-4.7-12.91-5.13-19.71-.26-4.13.29-8.54,2.85-11.79,5.53-7.03,17.07-5.3,24.11-10.82,1.79-1.4,3.32-3.65,2.7-5.84-.4-1.43-1.62-2.46-2.82-3.32-5.15-3.69-11.31-5.95-17.63-6.46-4.39-.36-9.25-.03-12.66-2.81-2.88-2.35-3.87-6.42-3.43-10.1.45-3.68,2.12-7.09,3.8-10.4,3.29-6.49,6.73-12.92,10.44-19.19-3.11.9-6.21,1.86-9.23,3.01-10.38,3.97-20.61,11.27-23.17,22.09-1.13,4.79-.77,4.18-3.73,8.12-4.78-6.15-14.06-.64-21.52,1.6-7.46,2.24-14.2,6.6-21.77,8.43-4.05.98-8.37,1.25-12.01,3.28-7.2,4.02-9.25,13.31-10.08,21.52-2.95,29.33.31,59.09-3.56,88.31-1.26,9.49-3.27,19.04-2.17,28.54.2,1.76.58,3.64,1.86,4.87,1.18,1.14,2.9,1.49,4.52,1.75,30.74,4.91,61.75-4.53,92.78-6.95,18.71-1.46,38.1-.49,55.8-6.27-4.26-3.06-8.41-6.26-12.24-9.84-19.14-17.86-28.74-43.42-37.72-68.01h.01Z"/>
          <path class="st7" d="M381.98,543.55c-1.99-21.09-6.37-41.8-11.74-62.36-10.6-40.61-25.06-80.65-32.58-121.85-2.44-7.05-4.42-14.27-5.98-21.55-.29-1.34-.58-2.67-.83-4.01-.06-.29-.11-.57-.16-.86-.85-4.51-1.52-9.08-1.3-13.67.07-1.53.25-3.04.45-4.56-11.55,9.1-21.99,19.64-30.76,31.44-3.51,4.72-6.73,9.64-9.77,14.67-.35.58-.7,1.16-1.05,1.74-3.71,6.26-7.15,12.7-10.44,19.19-1.68,3.31-3.35,6.72-3.8,10.4-.45,3.68.55,7.75,3.43,10.1,3.41,2.78,8.27,2.45,12.66,2.81,6.31.51,12.48,2.77,17.63,6.46,1.2.86,2.42,1.9,2.82,3.32.62,2.19-.91,4.43-2.7,5.84-7.04,5.52-18.57,3.79-24.11,10.82-2.56,3.25-3.11,7.66-2.85,11.79.43,6.8,2.79,13.31,5.13,19.71,8.98,24.59,18.58,50.15,37.72,68.01,3.83,3.58,7.99,6.78,12.24,9.84,2.29,1.65,4.61,3.26,6.93,4.87,2.48,1.72,5.01,3.46,7.91,4.29,2.97.84,6.12.67,9.19.49,5.77-.34,11.54-.68,17.31-1.02,1.26-.07,2.63-.19,3.57-1.04,1.28-1.16,1.24-3.15,1.07-4.87h0Z"/>
          <path class="st7" d="M494.27,157.14c2.04-3.34.21-7.62-.38-11.21-1.46-7.55-2.93-15.11-4.39-22.66-.63-3.26-1.27-6.58-.86-9.88.34-2.79,1.42-5.46,1.66-8.26.78-9.25-7.38-16.5-11.43-24.86-2.16-4.46-3.21-9.47-5.91-13.63-3.29-5.07-8.66-8.35-13.86-11.45-6.51-3.89-13.02-7.78-19.54-11.67-3.89-2.32-7.86-4.68-12.27-5.72-6.7-1.58-13.95,0-20.43-2.31-2.17-.77-4.31-1.98-6.6-1.77-2.12.19-3.96,1.58-6.05,1.97-3.93.72-7.61-2.2-11.59-2.52-6.5-.53-11.65,5.72-18.08,6.81-2.4.41-4.9.07-7.25.69-5.81,1.51-9.5,8.41-15.51,8.65-2.53.1-5.08-1.05-7.54-.43-1.88.47-3.34,1.9-4.7,3.28-3.33,3.35-6.81,6.96-7.87,11.57-.64,2.78-.34,5.69-.83,8.49-2.06,11.77-17.29,19.44-15.73,31.29.33,2.52,1.46,4.92,1.53,7.47.06,1.9-.48,3.76-1.01,5.59-2.31,7.95-4.62,15.9-6.92,23.86-.75,2.6-1.52,5.3-1.14,7.97.23,1.64.89,3.18,1.56,4.72,2.38.66,4.44,2.56,5.58,4.81,1.49,2.96,1.64,6.42,1.43,9.73-.26,4.07-.86,8.69,1.86,11.73.5,2.26,1.09,4.63,1.76,7.08,2.23,8.16,5.37,17.15,9.25,25.83.15.34.45.76.81.63.3-.11.34-.5.34-.81l-.24-18.98c-.02-1.65-.04-3.3-.06-4.95-.05-3.84-.1-7.7-.88-11.46-.75-3.6-2.13-7.47-.56-10.79,1.56-3.3,5.88-5.7,5.15-9.28-.2-1-.81-1.89-.96-2.9-.27-1.85,1.04-3.52,2.24-4.97,8.47-10.24,15.22-23.06,13.74-36.27,7.66,3.02,17.2.21,22-6.48,7.51-1.64,12.05-10.62,19.52-14.79,4.24-2.37,9.19-3.04,14.01-3.68,1.27-.17,2.64-.32,3.78.29.98.52,1.6,1.51,2.36,2.32,2.03,2.13,5.12,2.92,8.06,2.93s5.83-.65,8.75-.97c7.03-.76,14.27.51,20.63,3.62,3.99,1.95,7.6,4.59,11.51,6.69,4.79,2.56,10.01,4.29,14.73,6.99s9.08,6.64,10.58,11.87c-.73,8.86-1.25,17.9-1.39,26.94-.05,3.23-.04,6.53,1.03,9.57,1.14,3.26,3.94,6.28,7.39,6.31,1.99,0,3.9-.95,5.88-.89,2.13.07,4.02,1.3,5.79,2.48.16.04.32.09.47.14.08-1.54-.01-3.09-.32-4.6-.15-.74-.35-1.5-.16-2.23.18-.71.68-1.27,1.06-1.89h0Z"/>
          <path class="st7" d="M493.7,165.86c-.16-.05-.31-.1-.47-.14-1.77-1.19-3.66-2.42-5.79-2.48-1.99-.06-3.89.91-5.88.89-3.45-.03-6.25-3.05-7.39-6.31-1.07-3.04-1.08-6.35-1.03-9.57.14-9.04.66-18.08,1.39-26.94-1.5-5.23-5.86-9.17-10.58-11.87s-9.94-4.42-14.73-6.99c-3.91-2.09-7.53-4.74-11.51-6.69-6.35-3.11-13.6-4.38-20.63-3.62-2.92.32-5.82.98-8.75.97-2.94-.01-6.03-.8-8.06-2.93-.77-.8-1.38-1.8-2.36-2.32-1.13-.6-2.5-.45-3.78-.29-4.82.63-9.77,1.31-14.01,3.68-7.47,4.17-12.01,13.15-19.52,14.79-4.8,6.69-14.34,9.5-22,6.48,1.48,13.21-5.27,26.03-13.74,36.27-1.19,1.44-2.51,3.11-2.24,4.97.15,1.01.75,1.9.96,2.9.73,3.58-3.59,5.98-5.15,9.28-1.57,3.32-.19,7.19.56,10.79.78,3.76.83,7.62.88,11.46.02,1.65.04,3.3.06,4.95l.24,18.98c0,.31-.04.71-.34.81-.36.13-.65-.28-.81-.63-3.88-8.68-7.02-17.68-9.25-25.83-.67-2.44-1.26-4.82-1.76-7.08-2.72-3.04-2.12-7.66-1.86-11.73.21-3.31.06-6.76-1.43-9.73-1.13-2.25-3.2-4.15-5.58-4.81-.75-.21-1.53-.3-2.33-.24-2.73.22-5.08,2.15-6.52,4.48s-2.11,5.04-2.77,7.69c-.92,3.73-1.84,7.58-1.28,11.38.78,5.35,4.38,9.87,5.78,15.09.87,3.26.58,4.45,1.11,7.78.14.87.34,1.91.61,2.99.76,3.07,2.08,6.56,4.03,8.11.81.64,1.75,1.15,2.39,1.95.65.81.94,1.83,1.33,2.79,1.22,3.06,3.64,5.79,6.81,6.68s7.02-.47,8.87-3.58c4.7,16.38,3.81,34.5,11.03,49.77.46.96.94,1.92,1.46,2.86,2.22,3.98,5.01,7.6,7.86,11.16,3.18,3.97,6.47,7.89,10.08,11.47,1.79,1.78,3.66,3.49,5.63,5.06,18.56,14.77,46.29,16.79,66.58,4.83,7.27-5.24,15.07-10.16,22.07-15.84,2.38-1.93,4.66-3.96,6.8-6.11,1.68-1.69,3.28-3.45,4.76-5.32,7.42-9.36,10.79-34.01,13.08-40.89.94-2.81,2.96-6.27,5.82-5.5.78.21,3.19,3.55,3.9,3.95,3.44,1.94,6.31-2.13,9.03-4.99s3.79-6.96,3.85-10.91c.04-2.45-.27-4.91.05-7.34.35-2.72,1.45-5.22,2.7-7.68.85-1.66,1.76-3.29,2.57-4.95,3.15-6.45,4.78-13.63,4.71-20.8-.04-4.55-1.43-9.91-5.45-11.15h0Z"/>
        </g>
      </g>
      <g>
        <polygon class="st7" points="330.97 414.21 363.72 546.29 492.94 559.65 473.15 366.48 453.11 321.7 321.83 360.59 330.97 414.21"/>
        <g>
          <path class="st5" d="M332.81,314.48c.28-2.05.62-4.1.88-6.16,1.74-13.48-.04-27.08-2.54-40.51-7.21-15.27-6.32-33.39-11.03-49.77-1.85,3.11-5.7,4.47-8.87,3.58s-5.59-3.62-6.81-6.68c-.38-.96-.68-1.99-1.33-2.79-.65-.8-1.58-1.31-2.39-1.95-1.95-1.55-3.26-5.04-4.03-8.11-1.11,4.89-2.09,9.81-5.88,12.82-2.62,2.09-6.26,2.89-8.34,5.51-3.82,4.81-.11,11.67,2.88,17.03,2.6,4.65,4.67,9.74,4.88,15.06s-1.69,10.92-5.85,14.25c-3.26,2.6-7.57,3.62-10.79,6.27-5.52,4.53-6.22,13.8-1.45,19.11,4.41,4.91,12.48,6.68,14.51,12.96,1.36,4.19-.69,8.71-3.18,12.34s-5.56,7.07-6.59,11.35c-1.1,4.55.29,9.33,2.21,13.6,3.2,7.1,7.93,13.5,13.19,18.2,3.04-5.03,6.26-9.95,9.77-14.67,8.77-11.81,19.2-22.34,30.76-31.44Z"/>
          <path class="st5" d="M492.09,217.56c-.06,3.95-1.13,8.05-3.85,10.91s-5.59,6.93-9.03,4.99c-.71-.4-3.11-3.74-3.9-3.95-2.86-.77-4.88,2.7-5.82,5.5-2.29,6.87-5.66,31.53-13.08,40.89-1.48,1.87-3.08,3.63-4.76,5.32.4,5.92.73,11.84.97,17.76h.02c1.48.25,2.78,1.1,3.99,1.97,5.99,4.28,11.2,9.54,16.52,14.66,11.3,2.62,22.19,6.99,32.17,12.9,1.56.92,3.13,1.9,4.91,2.25,2.37.46,4.79-.24,7.17-.66.34-1.82.39-3.69-.26-5.4-.77-2.02-2.42-3.58-3.48-5.46-2.85-5.04-1.11-11.38,1.13-16.72s4.98-10.97,3.89-16.66c-2.3-12-19.64-16.26-22.15-28.22-.7-3.33-.09-6.77.52-10.12l4.36-23.91c.69-3.8,1.39-7.68.8-11.5-.59-3.82-2.7-7.62-6.23-9.19-.37-.17-.76-.29-1.15-.39-1.25,2.46-2.35,4.96-2.7,7.68-.31,2.43,0,4.89-.05,7.34h.01Z"/>
          <path class="st7" d="M450.33,383.35c-.2,2.14-.42,4.32-1.24,6.31-.99,2.42-2.77,4.4-4.52,6.33-13.39,14.78-26.79,29.56-40.18,44.35-1.86,2.06-3.77,4.19-4.69,6.81-1.4,3.98-.28,8.35.84,12.42-10.25-6.53-19.88-14.05-28.71-22.41,7.31-1.87,11.43-11.4,7.79-18.01-1.41-2.55-3.66-4.52-5.78-6.52-15.47-14.55-26.2-33.33-33.18-53.51,7.52,41.21,21.97,81.24,32.58,121.85,10.05-4.25,21.66-4.77,32.03-1.31,11.44,3.82,21.19,12.41,26.42,23.27,4.66,9.69,5.72,20.66,6.71,31.36.31,3.39.63,6.78,2.74,10.16.25-26.98-7.99-53.98-23.26-76.23-2.67-3.89-5.59-7.7-7.28-12.11-1.69-4.41-2.01-9.64.47-13.66,3.25-5.29,10.35-6.99,16.5-6.1,6.15.89,11.8,3.78,17.7,5.72,1.73.57,3.67,1.05,5.34.31,1.21-.54,2.06-1.63,2.8-2.72,8.36-12.38,7.35-28.59,6.03-43.47l-3.42-38.4c-.98-6.55-2-13.09-3.04-19.62-.34,15.08-1.21,30.15-2.63,45.17h-.02Z"/>
          <path class="st8" d="M454.42,311.18c-.08-3.86-.2-7.72-.35-11.58-.24-5.92-.56-11.85-.97-17.76-2.15,2.15-4.43,4.18-6.8,6.11-7,5.69-14.8,10.6-22.07,15.84-20.28,11.96-48.02,9.95-66.58-4.83-1.98-1.58-3.84-3.28-5.63-5.06-3.6-3.58-6.89-7.5-10.08-11.47-2.85-3.55-5.65-7.18-7.86-11.16-.52-.94-1.01-1.89-1.46-2.86,2.5,13.43,4.28,27.02,2.54,40.51-.27,2.06-.6,4.1-.88,6.16-.21,1.51-.38,3.03-.45,4.56-.21,4.58.45,9.15,1.3,13.67.05.29.11.57.16.86.26,1.34.55,2.68.83,4.01,1.56,7.28,3.54,14.5,5.98,21.55,6.98,20.18,17.7,38.96,33.18,53.51,2.13,2,4.37,3.96,5.78,6.52,3.64,6.61-.48,16.14-7.79,18.01,8.83,8.36,18.46,15.87,28.71,22.41-1.12-4.07-2.23-8.44-.84-12.42.92-2.62,2.83-4.75,4.69-6.81,13.39-14.78,26.79-29.56,40.18-44.35,1.75-1.93,3.54-3.92,4.52-6.33.81-1.99,1.03-4.17,1.24-6.31,1.42-15.02,2.29-30.09,2.63-45.17.04-1.78.08-3.56.1-5.33.1-7.43.07-14.85-.09-22.28h.01Z"/>
          <path class="st2" d="M678.09,523.7c1.25-9.93,4.45-21.75-2.81-28.64-4.61-4.38-13.22-6.74-12.56-13.07.21-2.05,1.5-3.81,2.36-5.68,3.54-7.72-.31-16.63-3.92-24.31-12.67-26.92-23.07-54.91-31.07-83.56-.74-2.65-1.5-5.39-3.24-7.52-2.01-2.45-5.06-3.77-8.03-4.87-9.44-3.49-19.37-5.64-29.4-6.36-13.62-.98-28.18.44-40.05-6.31-5.79-3.29-10.5-8.35-16.53-11.19-4.71-2.22-10.1-2.96-15.23-2.11-.07.01-.13.02-.2.04-2.39.41-4.8,1.12-7.17.66-1.78-.35-3.35-1.32-4.91-2.25-9.98-5.92-20.87-10.28-32.17-12.9,4.54,4.37,9.16,8.65,14.4,12.12,4.69,3.11,9.8,5.52,14.52,8.57,3.3,2.13,6.37,4.55,9.27,7.18,8.83,8.01,15.99,17.94,22.97,27.7-9.94,3.73-19.88,7.46-29.82,11.2,11.93,6.92,26.63,5.76,40.37,6.99,1.7.15,3.51.39,4.81,1.5,2.09,1.79,2,4.99,1.7,7.72-3.37,30.7-11.32,60.69-19.3,90.52-5.57,20.81-11.19,41.69-19.39,61.61-.68,1.66-1.41,3.33-2.25,4.92,1.38.84,2.86,1.51,4.43,1.97,6.42,1.88,13.28.15,19.96.25,5.7.09,11.29,1.53,16.9,2.55,42.62,7.77,85.68-8.46,128.94-10.94-2.76-8.27-3.64-17.15-2.56-25.8h-.02Z"/>
          <path class="st2" d="M548.52,392.85c-1.3-1.11-3.11-1.35-4.81-1.5-13.74-1.22-28.44-.06-40.37-6.99,9.94-3.73,19.88-7.46,29.82-11.2-6.98-9.76-14.15-19.69-22.97-27.7-2.89-2.62-5.96-5.04-9.27-7.18-4.72-3.05-9.83-5.47-14.52-8.57-5.24-3.48-9.86-7.75-14.4-12.12-5.32-5.12-10.53-10.38-16.52-14.66-1.22-.87-2.52-1.72-3.99-1.97h-.02c.15,3.86.27,7.72.35,11.58.16,7.42.19,14.85.09,22.28-.02,1.78-.06,3.56-.1,5.33,1.04,6.54,2.06,13.08,3.04,19.62,3.16,21.03,5.91,42.11,7.63,63.3,3.69,45.4,2.7,91.63,14.45,135.64.94,3.51,2.31,7.43,5.63,8.89,1.85.82,3.97.69,5.99.55,5.63-.4,11.64-.94,16.03-4.49,2-1.62,3.48-3.74,4.69-6.04.85-1.59,1.57-3.26,2.25-4.92,8.2-19.93,13.82-40.8,19.39-61.61,7.98-29.83,15.94-59.82,19.3-90.52.3-2.73.39-5.94-1.7-7.72h0Z"/>
          <path class="st2" d="M289.01,462.78c-2.34-6.4-4.7-12.91-5.13-19.71-.26-4.13.29-8.54,2.85-11.79,5.53-7.03,17.07-5.3,24.11-10.82,1.79-1.4,3.32-3.65,2.7-5.84-.4-1.43-1.62-2.46-2.82-3.32-5.15-3.69-11.31-5.95-17.63-6.46-4.39-.36-9.25-.03-12.66-2.81-2.88-2.35-3.87-6.42-3.43-10.1.45-3.68,2.12-7.09,3.8-10.4,3.29-6.49,6.73-12.92,10.44-19.19-3.11.9-6.21,1.86-9.23,3.01-10.38,3.97-20.61,11.27-23.17,22.09-1.13,4.79-.77,4.18-3.73,8.12-4.78-6.15-14.06-.64-21.52,1.6-7.46,2.24-14.2,6.6-21.77,8.43-4.05.98-8.37,1.25-12.01,3.28-7.2,4.02-9.25,13.31-10.08,21.52-2.95,29.33.31,59.09-3.56,88.31-1.26,9.49-3.27,19.04-2.17,28.54.2,1.76.58,3.64,1.86,4.87,1.18,1.14,2.9,1.49,4.52,1.75,30.74,4.91,61.75-4.53,92.78-6.95,18.71-1.46,38.1-.49,55.8-6.27-4.26-3.06-8.41-6.26-12.24-9.84-19.14-17.86-28.74-43.42-37.72-68.01h.01Z"/>
          <path class="st2" d="M387.24,541.85c-1.99-21.09-6.37-41.8-11.74-62.36-10.6-40.61-25.06-80.65-32.58-121.85-2.44-7.05-4.42-14.27-5.98-21.55-.29-1.34-.58-2.67-.83-4.01-.06-.29-.11-.57-.16-.86-.85-4.51-1.52-9.08-1.3-13.67.07-1.53.25-3.04.45-4.56-11.55,9.1-21.99,19.64-30.76,31.44-3.51,4.72-6.73,9.64-9.77,14.67-.35.58-.7,1.16-1.05,1.74-3.71,6.26-7.15,12.7-10.44,19.19-1.68,3.31-3.35,6.72-3.8,10.4-.45,3.68.55,7.75,3.43,10.1,3.41,2.78,8.27,2.45,12.66,2.81,6.31.51,12.48,2.77,17.63,6.46,1.2.86,2.42,1.9,2.82,3.32.62,2.19-.91,4.43-2.7,5.84-7.04,5.52-18.57,3.79-24.11,10.82-2.56,3.25-3.11,7.66-2.85,11.79.43,6.8,2.79,13.31,5.13,19.71,8.98,24.59,18.58,50.15,37.72,68.01,3.83,3.58,7.99,6.78,12.24,9.84,2.29,1.65,4.61,3.26,6.93,4.87,2.48,1.72,5.01,3.46,7.91,4.29,2.97.84,6.12.67,9.19.49,5.77-.34,11.54-.68,17.31-1.02,1.26-.07,2.63-.19,3.57-1.04,1.28-1.16,1.24-3.15,1.07-4.87h0Z"/>
          <path class="st5" d="M497.25,156.92c2.04-3.34.21-7.62-.38-11.21-1.46-7.55-2.93-15.11-4.39-22.66-.63-3.26-1.27-6.58-.86-9.88.34-2.79,1.42-5.46,1.66-8.26.78-9.25-7.38-16.5-11.43-24.86-2.16-4.46-3.21-9.47-5.91-13.63-3.29-5.07-8.66-8.35-13.86-11.45-6.51-3.89-13.02-7.78-19.54-11.67-3.89-2.32-7.86-4.68-12.27-5.72-6.7-1.58-13.95,0-20.43-2.31-2.17-.77-4.31-1.98-6.6-1.77-2.12.19-3.96,1.58-6.05,1.97-3.93.72-7.61-2.2-11.59-2.52-6.5-.53-11.65,5.72-18.08,6.81-2.4.41-4.9.07-7.25.69-5.81,1.51-9.5,8.41-15.51,8.65-2.53.1-5.08-1.05-7.54-.43-1.88.47-3.34,1.9-4.7,3.28-3.33,3.35-6.81,6.96-7.87,11.57-.64,2.78-.34,5.69-.83,8.49-2.06,11.77-17.29,19.44-15.73,31.29.33,2.52,1.46,4.92,1.53,7.47.06,1.9-.48,3.76-1.01,5.59-2.31,7.95-4.62,15.9-6.92,23.86-.75,2.6-1.52,5.3-1.14,7.97.23,1.64.89,3.18,1.56,4.72,2.38.66,4.44,2.56,5.58,4.81,1.49,2.96,1.64,6.42,1.43,9.73-.26,4.07-.86,8.69,1.86,11.73.5,2.26,1.09,4.63,1.76,7.08,2.23,8.16,5.37,17.15,9.25,25.83.15.34.45.76.81.63.3-.11.34-.5.34-.81l-.24-18.98c-.02-1.65-.04-3.3-.06-4.95-.05-3.84-.1-7.7-.88-11.46-.75-3.6-2.13-7.47-.56-10.79,1.56-3.3,5.88-5.7,5.15-9.28-.2-1-.81-1.89-.96-2.9-.27-1.85,1.04-3.52,2.24-4.97,8.47-10.24,15.22-23.06,13.74-36.27,7.66,3.02,17.2.21,22-6.48,7.51-1.64,12.05-10.62,19.52-14.79,4.24-2.37,9.19-3.04,14.01-3.68,1.27-.17,2.64-.32,3.78.29.98.52,1.6,1.51,2.36,2.32,2.03,2.13,5.12,2.92,8.06,2.93s5.83-.65,8.75-.97c7.03-.76,14.27.51,20.63,3.62,3.99,1.95,7.6,4.59,11.51,6.69,4.79,2.56,10.01,4.29,14.73,6.99s9.08,6.64,10.58,11.87c-.73,8.86-1.25,17.9-1.39,26.94-.05,3.23-.04,6.53,1.03,9.57,1.14,3.26,3.94,6.28,7.39,6.31,1.99,0,3.9-.95,5.88-.89,2.13.07,4.02,1.3,5.79,2.48.16.04.32.09.47.14.08-1.54-.01-3.09-.32-4.6-.15-.74-.35-1.5-.16-2.23.18-.71.68-1.27,1.06-1.89h0Z"/>
          <path class="st8" d="M494.68,165.64c-.16-.05-.31-.1-.47-.14-1.77-1.19-3.66-2.42-5.79-2.48-1.99-.06-3.89.91-5.88.89-3.45-.03-6.25-3.05-7.39-6.31-1.07-3.04-1.08-6.35-1.03-9.57.14-9.04.66-18.08,1.39-26.94-1.5-5.23-5.86-9.17-10.58-11.87s-9.94-4.42-14.73-6.99c-3.91-2.09-7.53-4.74-11.51-6.69-6.35-3.11-13.6-4.38-20.63-3.62-2.92.32-5.82.98-8.75.97-2.94-.01-6.03-.8-8.06-2.93-.77-.8-1.38-1.8-2.36-2.32-1.13-.6-2.5-.45-3.78-.29-4.82.63-9.77,1.31-14.01,3.68-7.47,4.17-12.01,13.15-19.52,14.79-4.8,6.69-14.34,9.5-22,6.48,1.48,13.21-5.27,26.03-13.74,36.27-1.19,1.44-2.51,3.11-2.24,4.97.15,1.01.75,1.9.96,2.9.73,3.58-3.59,5.98-5.15,9.28-1.57,3.32-.19,7.19.56,10.79.78,3.76.83,7.62.88,11.46.02,1.65.04,3.3.06,4.95l.24,18.98c0,.31-.04.71-.34.81-.36.13-.65-.28-.81-.63-3.88-8.68-7.02-17.68-9.25-25.83-.67-2.44-1.26-4.82-1.76-7.08-2.72-3.04-2.12-7.66-1.86-11.73.21-3.31.06-6.76-1.43-9.73-1.13-2.25-3.2-4.15-5.58-4.81-.75-.21-1.53-.3-2.33-.24-2.73.22-5.08,2.15-6.52,4.48s-2.11,5.04-2.77,7.69c-.92,3.73-1.84,7.58-1.28,11.38.78,5.35,4.38,9.87,5.78,15.09.87,3.26.58,4.45,1.11,7.78.14.87.34,1.91.61,2.99.76,3.07,2.08,6.56,4.03,8.11.81.64,1.75,1.15,2.39,1.95.65.81.94,1.83,1.33,2.79,1.22,3.06,3.64,5.79,6.81,6.68s7.02-.47,8.87-3.58c4.7,16.38,3.81,34.5,11.03,49.77.46.96.94,1.92,1.46,2.86,2.22,3.98,5.01,7.6,7.86,11.16,3.18,3.97,6.47,7.89,10.08,11.47,1.79,1.78,3.66,3.49,5.63,5.06,18.56,14.77,46.29,16.79,66.58,4.83,7.27-5.24,15.07-10.16,22.07-15.84,2.38-1.93,4.66-3.96,6.8-6.11,1.68-1.69,3.28-3.45,4.76-5.32,7.42-9.36,10.79-34.01,13.08-40.89.94-2.81,2.96-6.27,5.82-5.5.78.21,3.19,3.55,3.9,3.95,3.44,1.94,6.31-2.13,9.03-4.99s3.79-6.96,3.85-10.91c.04-2.45-.27-4.91.05-7.34.35-2.72,1.45-5.22,2.7-7.68.85-1.66,1.76-3.29,2.57-4.95,3.15-6.45,4.78-13.63,4.71-20.8-.04-4.55-1.43-9.91-5.45-11.15h0Z"/>
        </g>
      </g>
      <path class="st1" d="M381.58,222.55c-2.91,2.34-3.26,7.22-.72,9.95,2.32,2.49,6.23,3,8.51,5.53,5.85,6.49,9.35,11.63,18.12,5.05,2.07-1.55,4.27-2.99,6.71-3.84,1.88-.65,3.93-.97,5.56-2.11,2.11-1.48,3.16-4.16,3.09-6.73s-1.12-5.03-2.52-7.19"/>
      <path class="st1" d="M433.42,256.16c-13.32,2.8-24.5,7.36-36.82,6.24-14.27-1.29-30.22-9.95-36.25-11.57"/>
      <path class="st1" d="M357.26,423.65c1.66-3.59,3.79-7.58,7.62-8.55,1.45-.37,3.01-.24,4.38.37,3.67,1.63,5.13,6.32,4.41,10.27s-3.09,7.37-5.29,10.74-4.34,7.01-4.5,11.02"/>
      <path class="st1" d="M449.48,375.28c-3.17,17.14-6.35,34.32-11.43,51-.52,1.69-1.06,3.43-.91,5.19s1.18,3.57,2.87,4.09"/>
      <g>
        <path class="st1" d="M330.11,314.87c.28-2.05.62-4.1.88-6.16,1.74-13.48-.04-27.08-2.54-40.51-7.21-15.27-6.32-33.39-11.03-49.77-1.85,3.11-5.7,4.47-8.87,3.58s-5.59-3.62-6.81-6.68c-.38-.96-.68-1.99-1.33-2.79-.65-.8-1.58-1.31-2.39-1.95-1.95-1.55-3.26-5.04-4.03-8.11-1.11,4.89-2.09,9.81-5.88,12.82-2.62,2.09-6.26,2.89-8.34,5.51-3.82,4.81-.11,11.67,2.88,17.03,2.6,4.65,4.67,9.74,4.88,15.06s-1.69,10.92-5.85,14.25c-3.26,2.6-7.57,3.62-10.79,6.27-5.52,4.53-6.22,13.8-1.45,19.11,4.41,4.91,12.48,6.68,14.51,12.96,1.36,4.19-.69,8.71-3.18,12.34s-5.56,7.07-6.59,11.35c-1.1,4.55.29,9.33,2.21,13.6,3.2,7.1,7.93,13.5,13.19,18.2,3.04-5.03,6.26-9.95,9.77-14.67,8.77-11.81,19.2-22.34,30.76-31.44h0Z"/>
        <path class="st1" d="M489.38,217.96c-.06,3.95-1.13,8.05-3.85,10.91s-5.59,6.93-9.03,4.99c-.71-.4-3.11-3.74-3.9-3.95-2.86-.77-4.88,2.7-5.82,5.5-2.29,6.87-5.66,31.53-13.08,40.89-1.48,1.87-3.08,3.63-4.76,5.32.4,5.92.73,11.84.97,17.76h.02c1.48.25,2.78,1.1,3.99,1.97,5.99,4.28,11.2,9.54,16.52,14.66,11.3,2.62,22.19,6.99,32.17,12.9,1.56.92,3.13,1.9,4.91,2.25,2.37.46,4.79-.24,7.17-.66.34-1.82.39-3.69-.26-5.4-.77-2.02-2.42-3.58-3.48-5.46-2.85-5.04-1.11-11.38,1.13-16.72,2.24-5.34,4.98-10.97,3.89-16.66-2.3-12-19.64-16.26-22.15-28.22-.7-3.33-.09-6.77.52-10.12l4.36-23.91c.69-3.8,1.39-7.68.8-11.5-.59-3.82-2.7-7.62-6.23-9.19-.37-.17-.76-.29-1.15-.39-1.25,2.46-2.35,4.96-2.7,7.68-.31,2.43,0,4.89-.05,7.34h.01Z"/>
        <path class="st1" d="M447.62,383.74c-.2,2.14-.42,4.32-1.24,6.31-.99,2.42-2.77,4.4-4.52,6.33-13.39,14.78-26.79,29.56-40.18,44.35-1.86,2.06-3.77,4.19-4.69,6.81-1.4,3.98-.28,8.35.84,12.42-10.25-6.53-19.88-14.05-28.71-22.41,7.31-1.87,11.43-11.4,7.79-18.01-1.41-2.55-3.66-4.52-5.78-6.52-15.47-14.55-26.2-33.33-33.18-53.51,7.52,41.21,21.97,81.24,32.58,121.85,10.05-4.25,21.66-4.77,32.03-1.31,11.44,3.82,21.19,12.41,26.42,23.27,4.66,9.69,5.72,20.66,6.71,31.36.31,3.39.63,6.78,2.74,10.16.25-26.98-7.99-53.98-23.26-76.23-2.67-3.89-5.59-7.7-7.28-12.11-1.69-4.41-2.01-9.64.47-13.66,3.25-5.29,10.35-6.99,16.5-6.1,6.15.89,11.8,3.78,17.7,5.72,1.73.57,3.67,1.05,5.34.31,1.21-.54,2.06-1.63,2.8-2.72,8.36-12.38,7.35-28.59,6.03-43.47l-3.42-38.4c-.98-6.55-2-13.09-3.04-19.62-.34,15.08-1.21,30.15-2.63,45.17h-.02Z"/>
        <path class="st1" d="M450.26,310.96c-.08-3.86-.2-7.72-.35-11.58-.24-5.92-.56-11.85-.97-17.76-2.15,2.15-4.43,4.18-6.8,6.11-7,5.69-14.8,10.6-22.07,15.84-20.28,11.96-48.02,9.95-66.58-4.83-1.98-1.58-3.84-3.28-5.63-5.06-3.6-3.58-6.89-7.5-10.08-11.47-2.85-3.55-5.65-7.18-7.86-11.16-.52-.94-1.01-1.89-1.46-2.86,2.5,13.43,4.28,27.02,2.54,40.51-.27,2.06-.6,4.1-.88,6.16-.21,1.51-.38,3.03-.45,4.56-.21,4.58.45,9.15,1.3,13.67.05.29.11.57.16.86.26,1.34.55,2.68.83,4.01,1.56,7.28,3.54,14.5,5.98,21.55,6.98,20.18,17.7,38.96,33.18,53.51,2.13,2,4.37,3.96,5.78,6.52,3.64,6.61-.48,16.14-7.79,18.01,8.83,8.36,18.46,15.87,28.71,22.41-1.12-4.07-2.23-8.44-.84-12.42.92-2.62,2.83-4.75,4.69-6.81,13.39-14.78,26.79-29.56,40.18-44.35,1.75-1.93,3.54-3.92,4.52-6.33.81-1.99,1.03-4.17,1.24-6.31,1.42-15.02,2.29-30.09,2.63-45.17.04-1.78.08-3.56.1-5.33.1-7.43.07-14.85-.09-22.28h.01Z"/>
        <path class="st1" d="M675.39,524.09c1.25-9.93,4.45-21.75-2.81-28.64-4.61-4.38-13.22-6.74-12.56-13.07.21-2.05,1.5-3.81,2.36-5.68,3.54-7.72-.31-16.63-3.92-24.31-12.67-26.92-23.07-54.91-31.07-83.56-.74-2.65-1.5-5.39-3.24-7.52-2.01-2.45-5.06-3.77-8.03-4.87-9.44-3.49-19.37-5.64-29.4-6.36-13.62-.98-28.18.44-40.05-6.31-5.79-3.29-10.5-8.35-16.53-11.19-4.71-2.22-10.1-2.96-15.23-2.11-.07.01-.13.02-.2.04-2.39.41-4.8,1.12-7.17.66-1.78-.35-3.35-1.32-4.91-2.25-9.98-5.92-20.87-10.28-32.17-12.9,4.54,4.37,9.16,8.65,14.4,12.12,4.69,3.11,9.8,5.52,14.52,8.57,3.3,2.13,6.37,4.55,9.27,7.18,8.83,8.01,15.99,17.94,22.97,27.7-9.94,3.73-19.88,7.46-29.82,11.2,11.93,6.92,26.63,5.76,40.37,6.99,1.7.15,3.51.39,4.81,1.5,2.09,1.79,2,4.99,1.7,7.72-3.37,30.7-11.32,60.69-19.3,90.52-5.57,20.81-11.19,41.69-19.39,61.61-.68,1.66-1.41,3.33-2.25,4.92,1.38.84,2.86,1.51,4.43,1.97,6.42,1.88,13.28.15,19.96.25,5.7.09,11.29,1.53,16.9,2.55,42.62,7.77,85.68-8.46,128.94-10.94-2.76-8.27-3.64-17.15-2.56-25.8h-.02Z"/>
        <path class="st1" d="M546.96,391.27c-1.3-1.11-3.11-1.35-4.81-1.5-13.74-1.22-28.44-.06-40.37-6.99,9.94-3.73,19.88-7.46,29.82-11.2-6.98-9.76-14.15-19.69-22.97-27.7-2.89-2.62-5.96-5.04-9.27-7.18-4.72-3.05-9.83-5.47-14.52-8.57-5.24-3.48-9.86-7.75-14.4-12.12-5.32-5.12-10.53-10.38-16.52-14.66-1.22-.87-2.52-1.72-3.99-1.97h-.02c.15,3.86.27,7.72.35,11.58.16,7.42.19,14.85.09,22.28-.02,1.78-.06,3.56-.1,5.33,1.04,6.54,2.06,13.08,3.04,19.62,3.16,21.03,5.91,42.11,7.63,63.3,3.69,45.4,2.7,91.63,14.45,135.64.94,3.51,2.31,7.43,5.63,8.89,1.85.82,3.97.69,5.99.55,5.63-.4,11.64-.94,16.03-4.49,2-1.62,3.48-3.74,4.69-6.04.85-1.59,1.57-3.26,2.25-4.92,8.2-19.93,13.82-40.8,19.39-61.61,7.98-29.83,15.94-59.82,19.3-90.52.3-2.73.39-5.94-1.7-7.72h0Z"/>
        <path class="st1" d="M286.3,463.17c-2.34-6.4-4.7-12.91-5.13-19.71-.26-4.13.29-8.54,2.85-11.79,5.53-7.03,17.07-5.3,24.11-10.82,1.79-1.4,3.32-3.65,2.7-5.84-.4-1.43-1.62-2.46-2.82-3.32-5.15-3.69-11.31-5.95-17.63-6.46-4.39-.36-9.25-.03-12.66-2.81-2.88-2.35-3.87-6.42-3.43-10.1.45-3.68,2.12-7.09,3.8-10.4,3.29-6.49,6.73-12.92,10.44-19.19-3.11.9-6.21,1.86-9.23,3.01-10.38,3.97-20.61,11.27-23.17,22.09-1.13,4.79-.77,4.18-3.73,8.12-4.78-6.15-14.06-.64-21.52,1.6-7.46,2.24-14.2,6.6-21.77,8.43-4.05.98-8.37,1.25-12.01,3.28-7.2,4.02-9.25,13.31-10.08,21.52-2.95,29.33.31,59.09-3.56,88.31-1.26,9.49-3.27,19.04-2.17,28.54.2,1.76.58,3.64,1.86,4.87,1.18,1.14,2.9,1.49,4.52,1.75,30.74,4.91,61.75-4.53,92.78-6.95,18.71-1.46,38.1-.49,55.8-6.27-4.26-3.06-8.41-6.26-12.24-9.84-19.14-17.86-28.74-43.42-37.72-68.01h.01Z"/>
        <path class="st1" d="M382.25,543.72c-1.99-21.09-6.37-41.8-11.74-62.36-10.6-40.61-25.06-80.65-32.58-121.85-2.44-7.05-4.42-14.27-5.98-21.55-.29-1.34-.58-2.67-.83-4.01-.06-.29-.11-.57-.16-.86-.85-4.51-1.52-9.08-1.3-13.67.07-1.53.25-3.04.45-4.56-11.55,9.1-21.99,19.64-30.76,31.44-3.51,4.72-6.73,9.64-9.77,14.67-.35.58-.7,1.16-1.05,1.74-3.71,6.26-7.15,12.7-10.44,19.19-1.68,3.31-3.35,6.72-3.8,10.4-.45,3.68.55,7.75,3.43,10.1,3.41,2.78,8.27,2.45,12.66,2.81,6.31.51,12.48,2.77,17.63,6.46,1.2.86,2.42,1.9,2.82,3.32.62,2.19-.91,4.43-2.7,5.84-7.04,5.52-18.57,3.79-24.11,10.82-2.56,3.25-3.11,7.66-2.85,11.79.43,6.8,2.79,13.31,5.13,19.71,8.98,24.59,18.58,50.15,37.72,68.01,3.83,3.58,7.99,6.78,12.24,9.84,2.29,1.65,4.61,3.26,6.93,4.87,2.48,1.72,5.01,3.46,7.91,4.29,2.97.84,6.12.67,9.19.49,5.77-.34,11.54-.68,17.31-1.02,1.26-.07,2.63-.19,3.57-1.04,1.28-1.16,1.24-3.15,1.07-4.87h0Z"/>
        <path class="st1" d="M494.54,157.31c2.04-3.34.21-7.62-.38-11.21-1.46-7.55-2.93-15.11-4.39-22.66-.63-3.26-1.27-6.58-.86-9.88.34-2.79,1.42-5.46,1.66-8.26.78-9.25-7.38-16.5-11.43-24.86-2.16-4.46-3.21-9.47-5.91-13.63-3.29-5.07-8.66-8.35-13.86-11.45-6.51-3.89-13.02-7.78-19.54-11.67-3.89-2.32-7.86-4.68-12.27-5.72-6.7-1.58-13.95,0-20.43-2.31-2.17-.77-4.31-1.98-6.6-1.77-2.12.19-3.96,1.58-6.05,1.97-3.93.72-7.61-2.2-11.59-2.52-6.5-.53-11.65,5.72-18.08,6.81-2.4.41-4.9.07-7.25.69-5.81,1.51-9.5,8.41-15.51,8.65-2.53.1-5.08-1.05-7.54-.43-1.88.47-3.34,1.9-4.7,3.28-3.33,3.35-6.81,6.96-7.87,11.57-.64,2.78-.34,5.69-.83,8.49-2.06,11.77-17.29,19.44-15.73,31.29.33,2.52,1.46,4.92,1.53,7.47.06,1.9-.48,3.76-1.01,5.59-2.31,7.95-4.62,15.9-6.92,23.86-.75,2.6-1.52,5.3-1.14,7.97.23,1.64.89,3.18,1.56,4.72,2.38.66,4.44,2.56,5.58,4.81,1.49,2.96,1.64,6.42,1.43,9.73-.26,4.07-.86,8.69,1.86,11.73.5,2.26,1.09,4.63,1.76,7.08,2.23,8.16,5.37,17.15,9.25,25.83.15.34.45.76.81.63.3-.11.34-.5.34-.81l-.24-18.98c-.02-1.65-.04-3.3-.06-4.95-.05-3.84-.1-7.7-.88-11.46-.75-3.6-2.13-7.47-.56-10.79,1.56-3.3,5.88-5.7,5.15-9.28-.2-1-.81-1.89-.96-2.9-.27-1.85,1.04-3.52,2.24-4.97,8.47-10.24,15.22-23.06,13.74-36.27,7.66,3.02,17.2.21,22-6.48,7.51-1.64,12.05-10.62,19.52-14.79,4.24-2.37,9.19-3.04,14.01-3.68,1.27-.17,2.64-.32,3.78.29.98.52,1.6,1.51,2.36,2.32,2.03,2.13,5.12,2.92,8.06,2.93s5.83-.65,8.75-.97c7.03-.76,14.27.51,20.63,3.62,3.99,1.95,7.6,4.59,11.51,6.69,4.79,2.56,10.01,4.29,14.73,6.99s9.08,6.64,10.58,11.87c-.73,8.86-1.25,17.9-1.39,26.94-.05,3.23-.04,6.53,1.03,9.57,1.14,3.26,3.94,6.28,7.39,6.31,1.99,0,3.9-.95,5.88-.89,2.13.07,4.02,1.3,5.79,2.48.16.04.32.09.47.14.08-1.54-.01-3.09-.32-4.6-.15-.74-.35-1.5-.16-2.23.18-.71.68-1.27,1.06-1.89h0Z"/>
        <path class="st1" d="M493.97,166.03c-.16-.05-.31-.1-.47-.14-1.77-1.19-3.66-2.42-5.79-2.48-1.99-.06-3.89.91-5.88.89-1.63,0-3.12-.7-4.35-1.76-1.37-1.18-2.44-2.83-3.04-4.55-1.07-3.04-1.08-6.35-1.03-9.57.14-9.04.66-18.08,1.39-26.94-1.5-5.23-5.86-9.17-10.58-11.87s-9.94-4.42-14.73-6.99c-3.91-2.09-7.53-4.74-11.51-6.69-6.35-3.11-13.6-4.38-20.63-3.62-2.92.32-5.82.98-8.75.97-2.94-.01-6.03-.8-8.06-2.93-.77-.8-1.38-1.8-2.36-2.32-1.13-.6-2.5-.45-3.78-.29-4.82.63-9.77,1.31-14.01,3.68-7.47,4.17-12.01,13.15-19.52,14.79-4.8,6.69-14.34,9.5-22,6.48,1.48,13.21-5.27,26.03-13.74,36.27-1.19,1.44-2.51,3.11-2.24,4.97.15,1.01.75,1.9.96,2.9.73,3.58-3.59,5.98-5.15,9.28-1.57,3.32-.19,7.19.56,10.79.78,3.76.83,7.62.88,11.46.02,1.65.04,3.3.06,4.95l.24,18.98c0,.31-.04.71-.34.81-.36.13-.65-.28-.81-.63-3.88-8.68-7.02-17.68-9.25-25.83-.67-2.44-1.26-4.82-1.76-7.08-2.72-3.04-2.12-7.66-1.86-11.73.21-3.31.06-6.76-1.43-9.73-1.13-2.25-3.2-4.15-5.58-4.81-.75-.21-1.53-.3-2.33-.24-2.73.22-5.08,2.15-6.52,4.48s-2.11,5.04-2.77,7.69c-.92,3.73-1.84,7.58-1.28,11.38.78,5.35,4.38,9.87,5.78,15.09.87,3.26.58,4.45,1.11,7.78.14.87.34,1.91.61,2.99.76,3.07,2.08,6.56,4.03,8.11.81.64,1.75,1.15,2.39,1.95.65.81.94,1.83,1.33,2.79,1.22,3.06,3.64,5.79,6.81,6.68s7.02-.47,8.87-3.58c4.7,16.38,3.81,34.5,11.03,49.77.46.96.94,1.92,1.46,2.86,2.22,3.98,5.01,7.6,7.86,11.16,3.18,3.97,6.47,7.89,10.08,11.47,1.79,1.78,3.66,3.49,5.63,5.06,18.56,14.77,46.29,16.79,66.58,4.83,7.27-5.24,15.07-10.16,22.07-15.84,2.38-1.93,4.66-3.96,6.8-6.11,1.68-1.69,3.28-3.45,4.76-5.32,7.42-9.36,10.79-34.01,13.08-40.89.47-1.4,1.21-2.97,2.19-4.09s2.2-1.8,3.63-1.41c.78.21,3.19,3.55,3.9,3.95,3.44,1.94,6.31-2.13,9.03-4.99s3.79-6.96,3.85-10.91c.04-2.45-.27-4.91.05-7.34.35-2.72,1.45-5.22,2.7-7.68.85-1.66,1.76-3.29,2.57-4.95,3.15-6.45,4.78-13.63,4.71-20.8-.04-4.55-1.43-9.91-5.45-11.15h0Z"/>
      </g>
      <path class="st1" d="M457.17,416.33c-1.53-.93-2.77-2.27-4.21-3.33s-3.25-1.85-5-1.45c-2.15.49-3.56,2.62-5.63,3.41"/>
      <path class="st1" d="M444.53,421.23c.94,1.41.22,3.69,1.57,4.72.38.29.86.41,1.33.51,2.41.49,5.17.43,7-1.2,1.86-1.65,2.18-4.73.79-6.78s-4.29-2.91-6.61-2.02-3.9,3.37-4.08,4.78h0Z"/>
      <path class="st1" d="M294.93,189.73c-2.74-7.59-5.51-15.63-4-23.55.25-1.3.63-2.62,1.47-3.65s2.22-1.71,3.5-1.39c1.79.44,2.67,2.46,2.9,4.84.24,8.32-.38,16.66-1.86,24.85-.53,2.94-1.07,6.33.84,8.63.87,1.04,2.12,1.68,3.14,2.57"/>
      <path class="st1" d="M304.56,181.17c-.45,3.03-.89,6.24.34,9.04.39.88.92,1.68,1.41,2.51,1.61,2.76,2.6,5.83,3.59,8.87"/>
      <path class="st1" d="M490.6,179.71c1.2-1.48,2.64-2.77,4.24-3.8.41-.27.97-.04,1.11.44,1.29,4.28-.27,9-1.83,13.27-2.61,7.14-5.22,14.28-7.83,21.41"/>
      <circle class="st6" cx="366.12" cy="184.58" r="5.76"/>
      <circle class="st6" cx="439.18" cy="188.78" r="5.76"/>
      <line class="st1" x1="409.44" y1="194.52" x2="412.4" y2="226.16"/>
      <path class="st1" d="M307.75,233.27c-4.64-.23-9.26,2.86-10.82,7.24s.06,9.69,3.8,12.45c2.32,1.71,5.21,2.44,7.71,3.86,2.5,1.42,4.77,4.04,4.29,6.87-.31,1.82-1.66,3.25-2.88,4.63-14.43,16.32-17.67,41.6-7.84,61.04"/>
      <path class="st1" d="M478.86,237.73c-.29,7.35-.55,14.92,2.04,21.8s8.79,12.95,16.14,13.03c2.95.03,5.82-.88,8.76-1.09s6.25.46,7.95,2.86c1.85,2.6,1.16,6.16.4,9.26-2.4,9.72-4.79,19.45-7.19,29.17"/>
      <path class="st1" d="M470.36,241.79c2.2,7.29-1.17,14.94-3.64,22.14-2.47,7.21-3.73,16.13,1.54,21.63,2.57,2.68,6.26,3.99,9.16,6.32,5.78,4.65,7.55,13.6,3.98,20.1"/>
      <path class="st1" d="M476.44,154.15c7.45-14.07,10.53-30.43,8.69-46.25"/>
      <path class="st1" d="M361.64,100.08c-6.24,1.58-12.84-2.28-16.44-7.61s-4.89-11.85-6.09-18.18c-1.46-7.72-2.93-15.45-4.39-23.17"/>
      <path class="st1" d="M342.08,111.31c-8.44-2.74-15.51-9.42-18.71-17.7s-2.46-17.98,1.95-25.68"/>
      <path class="st1" d="M426.93,87.64c-1.22-5.03,1.18-10.23,4.15-14.47s6.62-8.12,8.46-12.96c1.83-4.84,1.22-11.17-3.09-14.03"/>
      <path class="st1" d="M435.99,256.7s2.59-2.18,0-4.92"/>
      <path class="st1" d="M359.78,253.29s-2.59-2.18,0-4.92"/>
      <path class="st1" d="M260.14,405.63c12.83,44.16,30.62,86.89,52.93,127.1"/>
      <path class="st1" d="M553.76,354.54c3.36,20.14,6.71,40.29,10.07,60.43.3,1.79.62,3.64,1.64,5.14,1.93,2.86,6.04,3.64,9.29,2.49s5.73-3.85,7.55-6.78c5-8.04,5.84-18.14,4.1-27.44-1.74-9.3-5.85-17.98-10.21-26.38"/>
      <path class="st1" d="M605.78,552.65c-1.82-50.07,4.86-100.44,19.67-148.3"/>
      <path class="st2" d="M309.55,210.42c.41.9.83,1.82.95,2.81s-.07,2.06-.76,2.78c-.4.42-.94.69-1.5.88-1.68.58-3.66.45-5.09-.61s-2.13-3.11-1.4-4.73c.57-1.25,1.89-2.07,3.25-2.26s2.76.18,4.54,1.13h0Z"/>
      <path class="st2" d="M479.99,227c-.12.83-.24,1.68-.13,2.51s.5,1.67,1.19,2.14c.48.32,1.06.45,1.64.45,1.25,0,2.47-.66,3.18-1.69s.88-2.4.44-3.57c-.23-.62-.62-1.17-1.03-1.69-.28-.36-.59-.71-1-.92-.4-.2-.87-.24-1.32-.19-2.13.23-3.77,2.55-2.97,2.95h0Z"/>
      <path class="st1" d="M309.55,209.42c.41.9.83,1.82.95,2.81s-.07,2.06-.76,2.78c-.4.42-.94.69-1.5.88-1.68.58-3.66.45-5.09-.61s-2.13-3.11-1.4-4.73c.57-1.25,1.89-2.07,3.25-2.26s2.76.18,4.54,1.13h0Z"/>
      <path class="st1" d="M479.99,226c-.12.83-.24,1.68-.13,2.51s.5,1.67,1.19,2.14c.48.32,1.06.45,1.64.45,1.25,0,2.47-.66,3.18-1.69s.88-2.4.44-3.57c-.23-.62-.62-1.17-1.03-1.69-.28-.36-.59-.71-1-.92-.4-.2-.87-.24-1.32-.19-2.13.23-3.77,2.55-2.97,2.95h0Z"/>
      <path class="st1" d="M468.97,231.32s7.32-43.56,9.71-59.51"/>
      <g>
        <path class="st7" d="M325.73,165.72c-5.82-4.63-11.65-9.25-17.47-13.88-.12-.1-.25-.2-.41-.21-.42-.02-.55.56-.53.99.17,2.93.36,5.93,1.56,8.61,1.97,4.4,6.3,7.19,10.41,9.7,1.89,1.16,3.79,2.31,5.69,3.46-.17-2.73.11-5.73.75-8.68h0Z"/>
        <path class="st7" d="M491.08,165.26c-.09-.43-.26-.92-.68-1.07-.57-.19-1.08.4-1.37.92-2.52,4.54-3.23,8.84-5.75,13.01.82.25,1.64.48,2.46.75.09,2.47-.05,4.39-.19,6.31-.1,1.37-.26,2.85-.97,3.99,0,0,.01,0,.02,0,1.28-.77,2.08-2.15,2.52-3.57.45-1.42.59-2.92.88-4.38,1.08-5.36,4.17-10.59,3.08-15.95h0Z"/>
        <path class="st7" d="M485.73,178.87c-.81-.26-1.64-.5-2.46-.75-20.41-6.1-42.52-6.38-63.52-2.98-5.65.91-5.62,2.07-12.6,1.61-5.68-.37-11.19-2.01-16.3-4.52-14.68-7.21-47.67-11.44-65.1-6.6,0,.03-.01.06-.02.09-.63,2.94-.91,5.95-.75,8.68.05.74.12,1.45.23,2.14,3.11,1.46,4.78,4.92,5.49,8.28s.71,6.86,1.69,10.15c1.25,4.19,4.11,7.89,7.86,10.14,2.02,1.21,4.27,2.01,6.52,2.73,10.14,3.26,20.95,5.19,31.47,3.5,3.26-.53,6.55-1.44,9.2-3.42,6.02-4.51,7.27-13.36,12.21-18.64.73-.78,1.73-1.25,2.79-1.36,2.35-.23,4.75,0,7.01.66.76.22,1.51.5,2.14.96.8.58,1.38,1.43,1.81,2.32,1.53,3.13,1.46,6.77,2.24,10.16.65,2.81,6.3,15.51,28.76,15.51,5.22,0,11,.04,16.13-.92s9.75-4.07,12.32-8.62c1.45-2.58,6.49-15.12,7.94-16.39.89-.78,2.27-.84,3.15-1.64.25-.23.45-.5.63-.78.71-1.14.87-2.61.97-3.99.14-1.92.28-3.85.19-6.31h0ZM383.5,203.73c-4.06,3.08-9.29,4.31-14.39,4.36s-10.14-.98-15.14-2c-5.21-1.07-10.93-2.46-14-6.81-1.49-2.11-2.15-4.69-2.63-7.23-.56-2.97-.9-5.97-1.02-8.99-.12-2.91.05-6.06,1.89-8.32,1.73-2.12,4.54-2.97,7.22-3.48,8.38-1.6,17.04-.99,25.44.43,6.91,1.17,13.84,2.92,19.9,6.45,1.11.64,2.58,1.19,2.94,2.42,1.31,4.51-4,18.45-10.22,23.17h.01ZM472.02,198.94c-1.54,4.14-3.78,8.21-7.39,10.74-2.92,2.05-6.5,2.93-10.04,3.44-8.15,1.16-16.55.51-24.43-1.89-1.78-.54-3.55-1.18-5.06-2.27-1.32-.94-2.39-2.19-3.34-3.51-3.7-5.13-5.67-11.49-5.51-17.82.02-.92.09-1.84.37-2.72.62-1.93,2.23-3.38,3.96-4.43,4.04-2.45,8.89-3.1,13.6-3.56,6.84-.67,13.74-1.05,20.58-.35,4.62.47,9.2,1.44,13.62,2.88,1.36.44,2.73.94,3.88,1.79,1.15.85,2.07,2.11,1.59,2.02,1.05,5.23.03,10.68-1.83,15.68h0Z"/>
      </g>
      <g>
        <path class="st4" d="M324.4,166.72c-5.82-4.63-11.65-9.25-17.47-13.88-.12-.1-.25-.2-.41-.21-.42-.02-.55.56-.53.99.17,2.93.36,5.93,1.56,8.61,1.97,4.4,6.3,7.19,10.41,9.7,1.89,1.16,3.79,2.31,5.69,3.46-.17-2.73.11-5.73.75-8.68h0Z"/>
        <path class="st4" d="M489.76,166.26c-.09-.43-.26-.92-.68-1.07-.57-.19-1.08.4-1.37.92-2.52,4.54-3.23,8.84-5.75,13.01.82.25,1.64.48,2.46.75.09,2.47-.05,4.39-.19,6.31-.1,1.37-.26,2.85-.97,3.99,0,0,.01,0,.02,0,1.28-.77,2.08-2.15,2.52-3.57.45-1.42.59-2.92.88-4.38,1.08-5.36,4.17-10.59,3.08-15.95h0Z"/>
        <path class="st4" d="M484.41,179.87c-.81-.26-1.64-.5-2.46-.75-20.41-6.1-42.52-6.38-63.52-2.98-5.65.91-5.62,2.07-12.6,1.61-5.68-.37-11.19-2.01-16.3-4.52-14.68-7.21-47.67-11.44-65.1-6.6,0,.03-.01.06-.02.09-.63,2.94-.91,5.95-.75,8.68.05.74.12,1.45.23,2.14,3.11,1.46,4.78,4.92,5.49,8.28s.71,6.86,1.69,10.15c1.25,4.19,4.11,7.89,7.86,10.14,2.02,1.21,4.27,2.01,6.52,2.73,10.14,3.26,20.95,5.19,31.47,3.5,3.26-.53,6.55-1.44,9.2-3.42,6.02-4.51,7.27-13.36,12.21-18.64.73-.78,1.73-1.25,2.79-1.36,2.35-.23,4.75,0,7.01.66.76.22,1.51.5,2.14.96.8.58,1.38,1.43,1.81,2.32,1.53,3.13,1.46,6.77,2.24,10.16.65,2.81,6.3,15.51,28.76,15.51,5.22,0,11,.04,16.13-.92s9.75-4.07,12.32-8.62c1.45-2.58,6.49-15.12,7.94-16.39.89-.78,2.27-.84,3.15-1.64.25-.23.45-.5.63-.78.71-1.14.87-2.61.97-3.99.14-1.92.28-3.85.19-6.31h0ZM382.18,204.73c-4.06,3.08-9.29,4.31-14.39,4.36s-10.14-.98-15.14-2c-5.21-1.07-10.93-2.46-14-6.81-1.49-2.11-2.15-4.69-2.63-7.23-.56-2.97-.9-5.97-1.02-8.99-.12-2.91.05-6.06,1.89-8.32,1.73-2.12,4.54-2.97,7.22-3.48,8.38-1.6,17.04-.99,25.44.43,6.91,1.17,13.84,2.92,19.9,6.45,1.11.64,2.58,1.19,2.94,2.42,1.31,4.51-4,18.45-10.22,23.17h.01ZM470.7,199.94c-1.54,4.14-3.78,8.21-7.39,10.74-2.92,2.05-6.5,2.93-10.04,3.44-8.15,1.16-16.55.51-24.43-1.89-1.78-.54-3.55-1.18-5.06-2.27-1.32-.94-2.39-2.19-3.34-3.51-3.7-5.13-5.67-11.49-5.51-17.82.02-.92.09-1.84.37-2.72.62-1.93,2.23-3.38,3.96-4.43,4.04-2.45,8.89-3.1,13.6-3.56,6.84-.67,13.74-1.05,20.58-.35,4.62.47,9.2,1.44,13.62,2.88,1.36.44,2.73.94,3.88,1.79,1.15.85,2.07,2.11,1.59,2.02,1.05,5.23.03,10.68-1.83,15.68h0Z"/>
      </g>
      <g>
        <path class="st1" d="M324.73,165.3c-5.82-4.63-11.65-9.25-17.47-13.88-.12-.1-.25-.2-.41-.21-.42-.02-.55.56-.53.99.17,2.93.36,5.93,1.56,8.61,1.97,4.4,6.3,7.19,10.41,9.7,1.89,1.16,3.79,2.31,5.69,3.46-.17-2.73.11-5.73.75-8.68h0Z"/>
        <path class="st1" d="M490.09,164.84c-.09-.43-.26-.92-.68-1.07-.57-.19-1.08.4-1.37.92-2.52,4.54-3.23,8.84-5.75,13.01.82.25,1.64.48,2.46.75.09,2.47-.05,4.39-.19,6.31-.1,1.37-.26,2.85-.97,3.99,0,0,.01,0,.02,0,1.28-.77,2.08-2.15,2.52-3.57.45-1.42.59-2.92.88-4.38,1.08-5.36,4.17-10.59,3.08-15.95h0Z"/>
        <path class="st1" d="M484.73,178.45c-.81-.26-1.64-.5-2.46-.75-20.41-6.1-42.52-6.38-63.52-2.98-5.65.91-5.62,2.07-12.6,1.61-5.68-.37-11.19-2.01-16.3-4.52-14.68-7.21-47.67-11.44-65.1-6.6,0,.03-.01.06-.02.09-.63,2.94-.91,5.95-.75,8.68.05.74.12,1.45.23,2.14,3.11,1.46,4.78,4.92,5.49,8.28s.71,6.86,1.69,10.15c1.25,4.19,4.11,7.89,7.86,10.14,2.02,1.21,4.27,2.01,6.52,2.73,10.14,3.26,20.95,5.19,31.47,3.5,3.26-.53,6.55-1.44,9.2-3.42,6.02-4.51,7.27-13.36,12.21-18.64.73-.78,1.73-1.25,2.79-1.36,2.35-.23,4.75,0,7.01.66.76.22,1.51.5,2.14.96.8.58,1.38,1.43,1.81,2.32,1.53,3.13,1.46,6.77,2.24,10.16.65,2.81,6.3,15.51,28.76,15.51,5.22,0,11,.04,16.13-.92s9.75-4.07,12.32-8.62c1.45-2.58,6.49-15.12,7.94-16.39.89-.78,2.27-.84,3.15-1.64.25-.23.45-.5.63-.78.71-1.14.87-2.61.97-3.99.14-1.92.28-3.85.19-6.31h0ZM382.51,203.31c-4.06,3.08-9.29,4.31-14.39,4.36s-10.14-.98-15.14-2c-5.21-1.07-10.93-2.46-14-6.81-1.49-2.11-2.15-4.69-2.63-7.23-.56-2.97-.9-5.97-1.02-8.99-.12-2.91.05-6.06,1.89-8.32,1.73-2.12,4.54-2.97,7.22-3.48,8.38-1.6,17.04-.99,25.44.43,6.91,1.17,13.84,2.92,19.9,6.45,1.11.64,2.58,1.19,2.94,2.42,1.31,4.51-4,18.45-10.22,23.17h.01ZM471.03,198.52c-1.54,4.14-3.78,8.21-7.39,10.74-2.92,2.05-6.5,2.93-10.04,3.44-8.15,1.16-16.55.51-24.43-1.89-1.78-.54-3.55-1.18-5.06-2.27-1.32-.94-2.39-2.19-3.34-3.51-3.7-5.13-5.67-11.49-5.51-17.82.02-.92.09-1.84.37-2.72.62-1.93,2.23-3.38,3.96-4.43,4.04-2.45,8.89-3.1,13.6-3.56,6.84-.67,13.74-1.05,20.58-.35,4.62.47,9.2,1.44,13.62,2.88,1.36.44,2.73.94,3.88,1.79,1.15.85,2.07,2.11,1.59,2.02,1.05,5.23.03,10.68-1.83,15.68h0Z"/>
      </g>
    </g>
  </g>
</svg>