<?xml version="1.0" encoding="UTF-8"?>
<svg id="Layer_1" xmlns="http://www.w3.org/2000/svg" xmlns:xlink="http://www.w3.org/1999/xlink" version="1.1" viewBox="0 0 841.89 467.72">
  <!-- Generator: Adobe Illustrator 29.0.0, SVG Export Plug-In . SVG Version: 2.1.0 Build 186)  -->
  <defs>
    <style>
      .st0, .st1 {
        fill: none;
      }

      .st1 {
        stroke: #55565a;
        stroke-miterlimit: 10;
      }

      .st2 {
        fill: #55565a;
      }

      .st3 {
        fill: #1b5492;
      }

      .st4 {
        fill: #c1b4a9;
      }

      .st5 {
        fill: #37383b;
      }

      .st6 {
        fill: #fff;
      }

      .st7 {
        fill: #1b2151;
      }

      .st8 {
        fill: #fabfb4;
      }

      .st9 {
        clip-path: url(#clippath);
      }
    </style>
    <clipPath id="clippath">
      <rect class="st0" y="0" width="841.89" height="469.72"/>
    </clipPath>
  </defs>
  <g class="st9">
    <rect class="st3" y="0" width="841.89" height="469.72"/>
    <g>
      <path class="st6" d="M292.32,91.68c.04-.24.1-.48.15-.72-.21.19-.31.44-.15.72Z"/>
      <path class="st6" d="M542.4,145.32l-12.65-17.3c2.73,1.9,6.02,2.99,9.34,3.08-2.78-4.92-5.56-9.84-8.35-14.76,1.89,1.25,3.33,3.17,4,5.34-.85-11.16-2.34-22.55-7.46-32.51-5.12-9.96-14.03-17.69-25.17-18.83-.07-12.57-3.91-25.1-10.89-35.56-2.24.2-4.49.4-6.73.6-6.8-9.04-19.75-12.88-30.38-9.01-1.07-2.09-2.15-4.18-3.22-6.27.32,1.75.65,3.49.97,5.24-12.72-14.86-35.91-14.23-54.78-9.07s-38.69,12.79-58.1,10.26c-8.09-1.05-16.59,3.74-19.87,11.21-2.01,4.58-2.22,9.94-5.02,14.08-2.88,4.26-8.2,6.73-10.11,11.51,2.33-.33,4.53-1.46,6.16-3.15-.85,3.28-1.4,7.36-4.11,9.39-6.9,5.18-11.8,12.94-13.55,21.39.37-.32,1.09-.43,1.46-.01.58.65.4,1.65.21,2.5-2.4,11.03.52,22.84,6.74,32.26-.25,4.45-2.18,8.79-5.32,11.95,1.23-.69,2.45-1.38,3.68-2.07,1.41,12.41-5.09,25.34-1.03,37.15,1.17,3.41,3.2,7.07,1.77,10.38-.42.98-1.14,1.88-1.19,2.94-.02.53.13,1.03.37,1.51.29.09.58.2.86.32,3.72,1.63,6.25,5.17,8.03,8.81,3.34,1.66,6.07,4.43,7.85,7.7,1.45,2.67,2.28,5.67,2.29,8.7.68,1.62,1.26,3.31,1.67,5.09,4.22-8.45,6.02-18.09,5.16-27.5-.45-4.9-1.61-9.85-.67-14.68,1.7-8.75,9.96-15.51,10.31-24.42.26-6.65-3.99-12.58-5.43-19.07-4.12-18.52,14.33-36.54,9.03-54.75,19.23,4.28,39.19-2.82,56.5-12.21,1.44-.78,2.99-1.61,4.63-1.46,1.98.18,3.51,1.73,5.15,2.87,4.69,3.26,11.42,3.21,16.07-.11,1.06-.76,2.03-1.67,3.25-2.13,1.32-.49,2.77-.38,4.17-.31,13.23.65,26.63-2.74,37.95-9.61,10,2.11,17.56,10.85,22.89,19.57,8.12,13.29,14.31,27.37,19.83,41.92,2.41,6.36,4.83,12.72,7.24,19.08-.21-.77-1.48-.65-1.87.04-.39.7-.17,1.56.05,2.33.43,1.48.86,2.96,1.29,4.44.24.82.45,1.81-.1,2.47-.36.43-1.09.33-1.46,0,.57,2.49,1.14,4.99,1.7,7.48-1.32-.95-2.64-1.9-3.96-2.85,7.18,18.38,14.72,38.02,11.23,57.44,1.13-6.77,2.55-14.08,7.63-18.7,1.09-.99,2.37-1.88,2.95-3.23.43-.98.24-2.28-.45-3.01.93.16,2.05-.34,2.59-1.18.76-1.18.71-2.69.62-4.1-.03-.41-.07-.81-.09-1.22-.44-6.29-1.19-12.56-2.27-18.78.44,1.09,1.87,1.64,2.93,1.13-.77-4.04-1.64-8.47-2.41-12.51,2.56.99,5.47,1.04,8.06.16v.02Z"/>
      <path class="st6" d="M513.86,144.67l-.16-.68c-.14.27-.04.51.16.68Z"/>
      <path class="st6" d="M513.06,312.81c-.34-.1-.67-.18-1.01-.28.23.31.46.63.68.95.11-.22.22-.45.34-.67h-.01Z"/>
      <path class="st6" d="M703.85,473.58c-16.97-25.31-44.33-41.63-71.94-54.52-27.61-12.89-64.5-26-89.51-43.41,0,0-8.94,27.35-1.98,43.52,6.95,16.17-1.74,30.66-5.79,35.29-1.75,2-16.05,11.18-31.78,21h162.95c13.1,0,24.96-1.44,38.06-1.89h-.01Z"/>
      <path class="st6" d="M337.59,397.1c-5.63-17.58-9.26-37.52-13.33-43.76-.86-1.32,10.75-8.6,6.77-18.65-4.33-10.93-.49-22.05,5.37-31.46-1.2-2.65-2.3-5.35-3.27-8.09-13.44,11-25.22,28.06-21.57,40.86.7,2.43.15,6.3-9.16,9.39-5.16,1.71-11.42,3.21-18.31,4.66-27,5.67-63.85,10.5-83.89,23.92-14.6,9.78-26.95,22.56-38.27,36-16.87,20.03-28.72,42.52-41.26,65.5h219.11c2.14-8.76,4.48-17.53,6.68-23.9,3.39-9.86-2.47-34.5-8.86-54.47h-.01Z"/>
      <path class="st6" d="M512.05,312.53c-.33-.44-.68-.86-1.03-1.27-.16.3-.33.59-.5.89.51.12,1.02.25,1.53.38h0Z"/>
      <path class="st6" d="M486.53,430.71c-3.44-3.11-10.75,6.06-16.81,8.11-7.69,2.6-20.33-3.54-26.61-1-2.05.93-4.21,1.93-5.51,3.76-.95,1.33-1.36,2.97-1.74,4.57-.39,1.6-.71,3.21-1.01,4.81-.87,4.72-1.5,9.44-2.63,14.17-5.99-1.37-13.17-2.58-19.25-1.68-12.19-14.17-25.52-27.67-39.55-40.03,1.27-9.85,1.54-19.95-.73-29.62-2.27-9.67-7.25-18.91-15.07-25.04-3.13-2.45-6.86-4.61-8.36-8.29-.77-1.87-.86-3.94-.94-5.95-.45-11.05-.9-22.11-1.36-33.16-4.11-5.68-7.65-11.77-10.55-18.14-5.87,9.41-9.7,20.53-5.37,31.46,3.98,10.05-7.63,17.33-6.77,18.65,4.07,6.24,7.7,26.17,13.33,43.76,6.4,19.97,12.25,44.61,8.86,54.47-2.19,6.37-4.54,15.14-6.68,23.9h133.9c6.78-12.67,14.32-27.39,19.06-38.6-1.62-1.78-3.65-3.83-6.23-6.16h.02Z"/>
      <path class="st6" d="M509.78,356.68c-3.12-12.64-3.21-26.06-2.39-39.37-6.59,10.18-14.8,19.41-23.13,28.21-8.66,9.16-18,18.72-30.22,21.83-6.79,1.72-13.81-.67-20.81-.4-6.6.26-13.35,3.13-19.85,2-7.28-1.26-13.87-4.97-20.19-8.79-4.29-2.59-8.46-5.29-12.57-8.09-3.75-2.55-7.46-5.18-11.14-7.89-8.64-6.35-16.24-14.11-22.53-22.8.45,11.05.9,22.11,1.36,33.16.08,2.02.18,4.09.94,5.95,1.51,3.68,5.23,5.83,8.36,8.29,7.82,6.12,12.8,15.37,15.07,25.04,2.27,9.67,2,19.77.73,29.62,14.03,12.35,27.36,25.85,39.55,40.03,6.08-.9,13.26.3,19.25,1.68,1.13-4.72,1.76-9.44,2.63-14.17.3-1.6.62-3.21,1.01-4.81.38-1.59.79-3.23,1.74-4.57,1.31-1.83,3.46-2.84,5.51-3.76,17.4-7.85,35.13-16.06,48.74-29.45,13.61-13.38,22.5-33.17,17.93-51.7h.01Z"/>
      <path class="st6" d="M547.98,180.53c-1.13-3.55-3.74-4.02-7.4-5.05-1.47-.41-3-.44-4.49-.17.03.41.07.81.09,1.22.09,1.4.14,2.91-.62,4.1-.54.84-1.66,1.35-2.59,1.18.69.72.87,2.03.45,3.01-.59,1.35-1.86,2.24-2.95,3.23-5.08,4.62-6.5,11.92-7.63,18.7,3.5-19.42-4.05-39.06-11.23-57.44,1.32.95,2.64,1.9,3.96,2.85-.57-2.49-1.14-4.99-1.7-7.48-.2-.18-.3-.42-.16-.68l.16.68c.37.32,1.1.42,1.46,0,.55-.66.34-1.64.1-2.47-.43-1.48-.86-2.96-1.29-4.44-.22-.77-.44-1.63-.05-2.33s1.66-.81,1.87-.04c-2.41-6.36-4.83-12.72-7.24-19.08-5.52-14.56-11.71-28.64-19.83-41.92-5.33-8.72-12.9-17.46-22.89-19.57-11.32,6.87-24.72,10.27-37.95,9.61-1.4-.07-2.85-.18-4.17.31-1.22.45-2.19,1.37-3.25,2.13-4.64,3.32-11.38,3.37-16.07.11-1.63-1.14-3.16-2.68-5.15-2.87-1.64-.15-3.18.67-4.63,1.46-17.31,9.39-37.27,16.49-56.5,12.21,5.3,18.22-13.15,36.23-9.03,54.75,1.45,6.49,5.69,12.43,5.43,19.07-.35,8.91-8.62,15.67-10.31,24.42-.94,4.83.22,9.78.67,14.68.87,9.41-.94,19.05-5.16,27.5-.41-1.78-.99-3.47-1.67-5.09-.01-3.03-.84-6.04-2.29-8.7-1.79-3.27-4.51-6.04-7.85-7.7-1.78-3.65-4.32-7.18-8.03-8.81-.28-.12-.57-.23-.86-.32-3.6-1.15-8.06-.1-9.83,3.21-1.83,3.42-.38,7.8,6.18,17.07s5.06,27.07,6.08,31.48c1.63,6.99,3.35,14.19,7.52,20.03,4.17,5.84,11.47,10.06,18.47,8.46.33,6.16,1.29,12.27,2.79,18.24.77,3.07,1.68,6.1,2.74,9.08.97,2.74,2.07,5.44,3.27,8.09,2.89,6.37,6.44,12.46,10.55,18.14,6.29,8.7,13.89,16.45,22.53,22.8,3.68,2.71,7.39,5.34,11.14,7.89,4.11,2.8,8.28,5.5,12.57,8.09,6.32,3.82,12.91,7.53,20.19,8.79,6.51,1.12,13.26-1.74,19.85-2,7-.28,14.02,2.12,20.81.4,12.21-3.1,21.56-12.67,30.22-21.83,8.33-8.8,16.54-18.03,23.13-28.21,1.09-1.69,2.14-3.41,3.14-5.15.17-.29.33-.59.5-.89.72-1.3,1.42-2.6,2.09-3.93,6.69-13.44,8.46-27.22,8.07-42.75-.02-.88.84-1.47,1.66-1.17,3.46,1.28,8.26-1,10.17-4.56,2.37-4.41,1.95-9.72,2.41-14.71.6-6.35,2.71-12.44,3.86-18.71.86-4.75,1.11-9.81-.21-14.38-1.05-3.63-.81-7.54.73-11,1.69-3.8,3.79-7.37,6.4-10.6,2.02-2.49,2.77-5.87,1.79-8.92h-.02Z"/>
      <path class="st6" d="M534.62,454.47c4.06-4.64,12.75-19.12,5.79-35.29-6.95-16.17,1.98-43.52,1.98-43.52.2-8.23,1.94-17.44,0-25.5-2.8-11.61-2.76-18.97-11.37-27.15-5-4.75-11.28-8.23-17.97-10.2-.12.23-.23.45-.34.67,21.27,31.32-10.66,134-12.3,133.45-1.37-.46-1.66-3.43-7.68-10.06-4.74,11.2-12.28,25.93-19.06,38.6h29.16c15.73-9.82,30.03-19.01,31.78-21h.01Z"/>
      <path class="st6" d="M512.73,313.48c-.22-.32-.45-.64-.68-.95-.51-.14-1.02-.27-1.53-.38-1,1.75-2.04,3.46-3.14,5.15-.82,13.31-.73,26.73,2.39,39.37,4.58,18.53-4.32,38.32-17.93,51.7s-31.34,21.6-48.74,29.45c6.28-2.54,18.92,3.6,26.61,1,6.06-2.05,13.37-11.22,16.81-8.11,2.58,2.33,4.61,4.38,6.23,6.16,6.02,6.63,6.31,9.61,7.68,10.06,1.64.55,33.56-102.13,12.3-133.45h0Z"/>
    </g>
    <g>
      <path class="st1" d="M291.32,96.27c.04-.24.1-.48.15-.72-.21.19-.31.44-.15.72Z"/>
      <path class="st1" d="M512.86,149.26l-.16-.68c-.14.27-.04.51.16.68Z"/>
      <path class="st1" d="M512.06,317.4c-.34-.1-.67-.18-1.01-.28.23.31.46.63.68.95.11-.22.22-.45.34-.67h-.01Z"/>
      <path class="st5" d="M702.85,478.17c-16.97-25.31-44.33-41.63-71.94-54.52-27.61-12.89-64.5-26-89.51-43.41,0,0-8.94,27.35-1.98,43.52,6.95,16.17-1.74,30.66-5.79,35.29-1.75,2-16.05,11.18-31.78,21h162.95c13.1,0,24.96-1.44,38.06-1.89h-.01Z"/>
      <path class="st5" d="M336.59,401.69c-5.63-17.58-9.26-37.52-13.33-43.76-.86-1.32,10.75-8.6,6.77-18.65-4.33-10.93-.49-22.05,5.37-31.46-1.2-2.65-2.3-5.35-3.27-8.09-13.44,11-25.22,28.06-21.57,40.86.7,2.43.15,6.3-9.16,9.39-5.16,1.71-11.42,3.21-18.31,4.66-27,5.67-63.85,10.5-83.89,23.92-14.6,9.78-26.95,22.56-38.27,36-16.87,20.03-28.72,42.52-41.26,65.5h219.11c2.14-8.76,4.48-17.53,6.68-23.9,3.39-9.86-2.47-34.5-8.86-54.47h-.01Z"/>
      <path class="st1" d="M511.05,317.13c-.33-.44-.68-.86-1.03-1.27-.16.3-.33.59-.5.89.51.12,1.02.25,1.53.38h0Z"/>
      <path class="st8" d="M508.78,361.27c-3.12-12.64-3.21-26.06-2.39-39.37-6.59,10.18-14.8,19.41-23.13,28.21-8.66,9.16-18,18.72-30.22,21.83-6.79,1.72-13.81-.67-20.81-.4-6.6.26-13.35,3.13-19.85,2-7.28-1.26-13.87-4.97-20.19-8.79-4.29-2.59-8.46-5.29-12.57-8.09-3.75-2.55-7.46-5.18-11.14-7.89-8.64-6.35-16.24-14.11-22.53-22.8.45,11.05.9,22.11,1.36,33.16.08,2.02.18,4.09.94,5.95,1.51,3.68,5.23,5.83,8.36,8.29,7.82,6.12,12.8,15.37,15.07,25.04,2.27,9.67,2,19.77.73,29.62,14.03,12.35,27.36,25.85,39.55,40.03,6.08-.9,13.26.3,19.25,1.68,1.13-4.72,1.76-9.44,2.63-14.17.3-1.6.62-3.21,1.01-4.81.38-1.59.79-3.23,1.74-4.57,1.31-1.83,3.46-2.84,5.51-3.76,17.4-7.85,35.13-16.06,48.74-29.45,13.61-13.38,22.5-33.17,17.93-51.7h.01Z"/>
      <path class="st5" d="M535.62,459.06c4.06-4.64,12.75-19.12,5.79-35.29-6.95-16.17,1.98-43.52,1.98-43.52.2-8.23,1.94-17.44,0-25.5-2.8-11.61-2.76-18.97-11.37-27.15-5-4.75-11.28-8.23-17.97-10.2-.12.23-.23.45-.34.67,21.27,31.32-10.66,134-12.3,133.45-1.37-.46-1.66-3.43-7.68-10.06-4.74,11.2-12.28,25.93-19.06,38.6h29.16c15.73-9.82,30.03-19.01,31.78-21h.01Z"/>
      <path class="st7" d="M511.73,318.08c-.22-.32-.45-.64-.68-.95-.51-.14-1.02-.27-1.53-.38-1,1.75-2.04,3.46-3.14,5.15-.82,13.31-.73,26.73,2.39,39.37,4.58,18.53-4.32,38.32-17.93,51.7s-31.34,21.6-48.74,29.45c6.28-2.54,18.92,3.6,26.61,1,6.06-2.05,13.37-11.22,16.81-8.11,2.58,2.33,4.61,4.38,6.23,6.16,6.02,6.63,6.31,9.61,7.68,10.06,1.64.55,33.56-102.13,12.3-133.45h0Z"/>
      <path class="st7" d="M488.53,436.3c-3.44-3.11-10.75,6.06-16.81,8.11-7.69,2.6-20.33-3.54-26.61-1-2.05.93-4.21,1.93-5.51,3.76-.95,1.33-1.36,2.97-1.74,4.57-.39,1.6-.71,3.21-1.01,4.81-.87,4.72-1.5,9.44-2.63,14.17-5.99-1.37-13.17-2.58-19.25-1.68-12.19-14.17-25.52-27.67-39.55-40.03,1.27-9.85,1.54-19.95-.73-29.62-2.27-9.67-7.25-18.91-15.07-25.04-3.13-2.45-6.86-4.61-8.36-8.29-.77-1.87-.86-3.94-.94-5.95-.45-11.05-.9-22.11-1.36-33.16-4.11-5.68-7.65-11.77-10.55-18.14-5.87,9.41-9.7,20.53-5.37,31.46,3.98,10.05-7.63,17.33-6.77,18.65,4.07,6.24,7.7,26.17,13.33,43.76,6.4,19.97,12.25,44.61,8.86,54.47-2.19,6.37-4.54,15.14-6.68,23.9h133.9c6.78-12.67,14.32-27.39,19.06-38.6-1.62-1.78-3.65-3.83-6.23-6.16h.02Z"/>
      <path class="st8" d="M548.98,181.15c-1.13-3.55-3.74-4.02-7.4-5.05-1.47-.41-3-.44-4.49-.17.03.41.07.81.09,1.22.09,1.4.14,2.91-.62,4.1-.54.84-1.66,1.35-2.59,1.18.69.72.87,2.03.45,3.01-.59,1.35-1.86,2.24-2.95,3.23-5.08,4.62-6.5,11.92-7.63,18.7,3.5-19.42-4.05-39.06-11.23-57.44,1.32.95,2.64,1.9,3.96,2.85-.57-2.49-1.14-4.99-1.7-7.48-.2-.18-.3-.42-.16-.68l.16.68c.37.32,1.1.42,1.46,0,.55-.66.34-1.64.1-2.47-.43-1.48-.86-2.96-1.29-4.44-.22-.77-.44-1.63-.05-2.33s1.66-.81,1.87-.04c-2.41-6.36-4.83-12.72-7.24-19.08-5.52-14.56-11.71-28.64-19.83-41.92-5.33-8.72-12.9-17.46-22.89-19.57-11.32,6.87-24.72,10.27-37.95,9.61-1.4-.07-2.85-.18-4.17.31-1.22.45-2.19,1.37-3.25,2.13-4.64,3.32-11.38,3.37-16.07.11-1.63-1.14-3.16-2.68-5.15-2.87-1.64-.15-3.18.67-4.63,1.46-17.31,9.39-37.27,16.49-56.5,12.21,5.3,18.22-13.15,36.23-9.03,54.75,1.45,6.49,5.69,12.43,5.43,19.07-.35,8.91-8.62,15.67-10.31,24.42-.94,4.83.22,9.78.67,14.68.87,9.41-.94,19.05-5.16,27.5-.41-1.78-.99-3.47-1.67-5.09-.01-3.03-.84-6.04-2.29-8.7-1.79-3.27-4.51-6.04-7.85-7.7-1.78-3.65-4.32-7.18-8.03-8.81-.28-.12-.57-.23-.86-.32-3.6-1.15-8.06-.1-9.83,3.21-1.83,3.42-.38,7.8,6.18,17.07s5.06,27.07,6.08,31.48c1.63,6.99,3.35,14.19,7.52,20.03,4.17,5.84,11.47,10.06,18.47,8.46.33,6.16,1.29,12.27,2.79,18.24.77,3.07,1.68,6.1,2.74,9.08.97,2.74,2.07,5.44,3.27,8.09,2.89,6.37,6.44,12.46,10.55,18.14,6.29,8.7,13.89,16.45,22.53,22.8,3.68,2.71,7.39,5.34,11.14,7.89,4.11,2.8,8.28,5.5,12.57,8.09,6.32,3.82,12.91,7.53,20.19,8.79,6.51,1.12,13.26-1.74,19.85-2,7-.28,14.02,2.12,20.81.4,12.21-3.1,21.56-12.67,30.22-21.83,8.33-8.8,16.54-18.03,23.13-28.21,1.09-1.69,2.14-3.41,3.14-5.15.17-.29.33-.59.5-.89.72-1.3,1.42-2.6,2.09-3.93,6.69-13.44,8.46-27.22,8.07-42.75-.02-.88.84-1.47,1.66-1.17,3.46,1.28,8.26-1,10.17-4.56,2.37-4.41,1.95-9.72,2.41-14.71.6-6.35,2.71-12.44,3.86-18.71.86-4.75,1.11-9.81-.21-14.38-1.05-3.63-.81-7.54.73-11,1.69-3.8,3.79-7.37,6.4-10.6,2.02-2.49,2.77-5.87,1.79-8.92h-.02Z"/>
      <path class="st4" d="M540.47,148.26l-12.65-17.3c2.73,1.9,6.02,2.99,9.34,3.08-2.78-4.92-5.56-9.84-8.35-14.76,1.89,1.25,3.33,3.17,4,5.34-.85-11.16-2.34-22.55-7.46-32.51-5.12-9.96-14.03-17.69-25.17-18.83-.07-12.57-3.91-25.1-10.89-35.56-2.24.2-4.49.4-6.73.6-6.8-9.04-19.75-12.88-30.38-9.01-1.07-2.09-2.15-4.18-3.22-6.27.32,1.75.65,3.49.97,5.24-12.72-14.86-35.91-14.23-54.78-9.07s-38.69,12.79-58.1,10.26c-8.09-1.05-16.59,3.74-19.87,11.21-2.01,4.58-2.22,9.94-5.02,14.08-2.88,4.26-8.2,6.73-10.11,11.51,2.33-.33,4.53-1.46,6.16-3.15-.85,3.28-1.4,7.36-4.11,9.39-6.9,5.18-11.8,12.94-13.55,21.39.37-.32,1.09-.43,1.46-.01.58.65.4,1.65.21,2.5-2.4,11.03.52,22.84,6.74,32.26-.25,4.45-2.18,8.79-5.32,11.95,1.23-.69,2.45-1.38,3.68-2.07,1.41,12.41-5.09,25.34-1.03,37.15,1.17,3.41,3.2,7.07,1.77,10.38-.42.98-1.14,1.88-1.19,2.94-.02.53.13,1.03.37,1.51.29.09.58.2.86.32,3.72,1.63,6.25,5.17,8.03,8.81,3.34,1.66,6.07,4.43,7.85,7.7,1.45,2.67,2.28,5.67,2.29,8.7.68,1.62,1.26,3.31,1.67,5.09,4.22-8.45,6.02-18.09,5.16-27.5-.45-4.9-1.61-9.85-.67-14.68,1.7-8.75,9.96-15.51,10.31-24.42.26-6.65-3.99-12.58-5.43-19.07-4.12-18.52,14.33-36.54,9.03-54.75,19.23,4.28,39.19-2.82,56.5-12.21,1.44-.78,2.99-1.61,4.63-1.46,1.98.18,3.51,1.73,5.15,2.87,4.69,3.26,11.42,3.21,16.07-.11,1.06-.76,2.03-1.67,3.25-2.13,1.32-.49,2.77-.38,4.17-.31,13.23.65,26.63-2.74,37.95-9.61,10,2.11,17.56,10.85,22.89,19.57,8.12,13.29,14.31,27.37,19.83,41.92,2.41,6.36,4.83,12.72,7.24,19.08-.21-.77-1.48-.65-1.87.04-.39.7-.17,1.56.05,2.33.43,1.48.86,2.96,1.29,4.44.24.82.45,1.81-.1,2.47-.36.43-1.09.33-1.46,0,.57,2.49,1.14,4.99,1.7,7.48-1.32-.95-2.64-1.9-3.96-2.85,7.18,18.38,14.72,38.02,11.23,57.44,1.13-6.77,2.55-14.08,7.63-18.7,1.09-.99,2.37-1.88,2.95-3.23.43-.98.24-2.28-.45-3.01.93.16,2.05-.34,2.59-1.18.76-1.18.71-2.69.62-4.1-.03-.41-.07-.81-.09-1.22-.44-6.29-1.19-12.56-2.27-18.78.44,1.09,1.87,1.64,2.93,1.13-.77-4.04-1.64-8.47-2.41-12.51,2.56.99,5.47,1.04,8.06.16v.02Z"/>
    </g>
    <g>
      <path class="st1" d="M293.17,92.28c.04-.24.1-.48.15-.72-.21.19-.31.44-.15.72Z"/>
      <path class="st1" d="M543.24,145.92l-12.65-17.3c2.73,1.9,6.02,2.99,9.34,3.08-2.78-4.92-5.56-9.84-8.35-14.76,1.89,1.25,3.33,3.17,4,5.34-.85-11.16-2.34-22.55-7.46-32.51-5.12-9.96-14.03-17.69-25.17-18.83-.07-12.57-3.91-25.1-10.89-35.56-2.24.2-4.49.4-6.73.6-6.8-9.04-19.75-12.88-30.38-9.01-1.07-2.09-2.15-4.18-3.22-6.27.32,1.75.65,3.49.97,5.24-12.72-14.86-35.91-14.23-54.78-9.07s-38.69,12.79-58.1,10.26c-8.09-1.05-16.59,3.74-19.87,11.21-2.01,4.58-2.22,9.94-5.02,14.08-2.88,4.26-8.2,6.73-10.11,11.51,2.33-.33,4.53-1.46,6.16-3.15-.85,3.28-1.4,7.36-4.11,9.39-6.9,5.18-11.8,12.94-13.55,21.39.37-.32,1.09-.43,1.46-.01.58.65.4,1.65.21,2.5-2.4,11.03.52,22.84,6.74,32.26-.25,4.45-2.18,8.79-5.32,11.95,1.23-.69,2.45-1.38,3.68-2.07,1.41,12.41-5.09,25.34-1.03,37.15,1.17,3.41,3.2,7.07,1.77,10.38-.42.98-1.14,1.88-1.19,2.94-.02.53.13,1.03.37,1.51.29.09.58.2.86.32,3.72,1.63,6.25,5.17,8.03,8.81,3.34,1.66,6.07,4.43,7.85,7.7,1.45,2.67,2.28,5.67,2.29,8.7.68,1.62,1.26,3.31,1.67,5.09,4.22-8.45,6.02-18.09,5.16-27.5-.45-4.9-1.61-9.85-.67-14.68,1.7-8.75,9.96-15.51,10.31-24.42.26-6.65-3.99-12.58-5.43-19.07-4.12-18.52,14.33-36.54,9.03-54.75,19.23,4.28,39.19-2.82,56.5-12.21,1.44-.78,2.99-1.61,4.63-1.46,1.98.18,3.51,1.73,5.15,2.87,4.69,3.26,11.42,3.21,16.07-.11,1.06-.76,2.03-1.67,3.25-2.13,1.32-.49,2.77-.38,4.17-.31,13.23.65,26.63-2.74,37.95-9.61,10,2.11,17.56,10.85,22.89,19.57,8.12,13.29,14.31,27.37,19.83,41.92,2.41,6.36,4.83,12.72,7.24,19.08-.21-.77-1.48-.65-1.87.04-.39.7-.17,1.56.05,2.33.43,1.48.86,2.96,1.29,4.44.24.82.45,1.81-.1,2.47-.36.43-1.09.33-1.46,0,.57,2.49,1.14,4.99,1.7,7.48-1.32-.95-2.64-1.9-3.96-2.85,7.18,18.38,14.72,38.02,11.23,57.44,1.13-6.77,2.55-14.08,7.63-18.7,1.09-.99,2.37-1.88,2.95-3.23.43-.98.24-2.28-.45-3.01.93.16,2.05-.34,2.59-1.18.76-1.18.71-2.69.62-4.1-.03-.41-.07-.81-.09-1.22-.44-6.29-1.19-12.56-2.27-18.78.44,1.09,1.87,1.64,2.93,1.13-.77-4.04-1.64-8.47-2.41-12.51,2.56.99,5.47,1.04,8.06.16v.02Z"/>
      <path class="st1" d="M514.7,145.27l-.16-.68c-.14.27-.04.51.16.68Z"/>
      <path class="st1" d="M513.9,313.41c-.34-.1-.67-.18-1.01-.28.23.31.46.63.68.95.11-.22.22-.45.34-.67h-.01Z"/>
      <path class="st1" d="M704.69,474.18c-16.97-25.31-44.33-41.63-71.94-54.52-27.61-12.89-64.5-26-89.51-43.41,0,0-8.94,27.35-1.98,43.52,6.95,16.17-1.74,30.66-5.79,35.29-1.75,2-16.05,11.18-31.78,21h162.95c13.1,0,24.96-1.44,38.06-1.89h-.01Z"/>
      <path class="st1" d="M338.43,397.7c-5.63-17.58-9.26-37.52-13.33-43.76-.86-1.32,10.75-8.6,6.77-18.65-4.33-10.93-.49-22.05,5.37-31.46-1.2-2.65-2.3-5.35-3.27-8.09-13.44,11-25.22,28.06-21.57,40.86.7,2.43.15,6.3-9.16,9.39-5.16,1.71-11.42,3.21-18.31,4.66-27,5.67-63.85,10.5-83.89,23.92-14.6,9.78-26.95,22.56-38.27,36-16.87,20.03-28.72,42.52-41.26,65.5h219.11c2.14-8.76,4.48-17.53,6.68-23.9,3.39-9.86-2.47-34.5-8.86-54.47h-.01Z"/>
      <path class="st1" d="M512.89,313.14c-.33-.44-.68-.86-1.03-1.27-.16.3-.33.59-.5.89.51.12,1.02.25,1.53.38h0Z"/>
      <path class="st1" d="M487.37,431.31c-3.44-3.11-10.75,6.06-16.81,8.11-7.69,2.6-20.33-3.54-26.61-1-2.05.93-4.21,1.93-5.51,3.76-.95,1.33-1.36,2.97-1.74,4.57-.39,1.6-.71,3.21-1.01,4.81-.87,4.72-1.5,9.44-2.63,14.17-5.99-1.37-13.17-2.58-19.25-1.68-12.19-14.17-25.52-27.67-39.55-40.03,1.27-9.85,1.54-19.95-.73-29.62-2.27-9.67-7.25-18.91-15.07-25.04-3.13-2.45-6.86-4.61-8.36-8.29-.77-1.87-.86-3.94-.94-5.95-.45-11.05-.9-22.11-1.36-33.16-4.11-5.68-7.65-11.77-10.55-18.14-5.87,9.41-9.7,20.53-5.37,31.46,3.98,10.05-7.63,17.33-6.77,18.65,4.07,6.24,7.7,26.17,13.33,43.76,6.4,19.97,12.25,44.61,8.86,54.47-2.19,6.37-4.54,15.14-6.68,23.9h133.9c6.78-12.67,14.32-27.39,19.06-38.6-1.62-1.78-3.65-3.83-6.23-6.16h.02Z"/>
      <path class="st1" d="M510.62,357.28c-3.12-12.64-3.21-26.06-2.39-39.37-6.59,10.18-14.8,19.41-23.13,28.21-8.66,9.16-18,18.72-30.22,21.83-6.79,1.72-13.81-.67-20.81-.4-6.6.26-13.35,3.13-19.85,2-7.28-1.26-13.87-4.97-20.19-8.79-4.29-2.59-8.46-5.29-12.57-8.09-3.75-2.55-7.46-5.18-11.14-7.89-8.64-6.35-16.24-14.11-22.53-22.8.45,11.05.9,22.11,1.36,33.16.08,2.02.18,4.09.94,5.95,1.51,3.68,5.23,5.83,8.36,8.29,7.82,6.12,12.8,15.37,15.07,25.04,2.27,9.67,2,19.77.73,29.62,14.03,12.35,27.36,25.85,39.55,40.03,6.08-.9,13.26.3,19.25,1.68,1.13-4.72,1.76-9.44,2.63-14.17.3-1.6.62-3.21,1.01-4.81.38-1.59.79-3.23,1.74-4.57,1.31-1.83,3.46-2.84,5.51-3.76,17.4-7.85,35.13-16.06,48.74-29.45,13.61-13.38,22.5-33.17,17.93-51.7h.01Z"/>
      <path class="st1" d="M548.82,181.14c-1.13-3.55-3.74-4.02-7.4-5.05-1.47-.41-3-.44-4.49-.17.03.41.07.81.09,1.22.09,1.4.14,2.91-.62,4.1-.54.84-1.66,1.35-2.59,1.18.69.72.87,2.03.45,3.01-.59,1.35-1.86,2.24-2.95,3.23-5.08,4.62-6.5,11.92-7.63,18.7,3.5-19.42-4.05-39.06-11.23-57.44,1.32.95,2.64,1.9,3.96,2.85-.57-2.49-1.14-4.99-1.7-7.48-.2-.18-.3-.42-.16-.68l.16.68c.37.32,1.1.42,1.46,0,.55-.66.34-1.64.1-2.47-.43-1.48-.86-2.96-1.29-4.44-.22-.77-.44-1.63-.05-2.33s1.66-.81,1.87-.04c-2.41-6.36-4.83-12.72-7.24-19.08-5.52-14.56-11.71-28.64-19.83-41.92-5.33-8.72-12.9-17.46-22.89-19.57-11.32,6.87-24.72,10.27-37.95,9.61-1.4-.07-2.85-.18-4.17.31-1.22.45-2.19,1.37-3.25,2.13-4.64,3.32-11.38,3.37-16.07.11-1.63-1.14-3.16-2.68-5.15-2.87-1.64-.15-3.18.67-4.63,1.46-17.31,9.39-37.27,16.49-56.5,12.21,5.3,18.22-13.15,36.23-9.03,54.75,1.45,6.49,5.69,12.43,5.43,19.07-.35,8.91-8.62,15.67-10.31,24.42-.94,4.83.22,9.78.67,14.68.87,9.41-.94,19.05-5.16,27.5-.41-1.78-.99-3.47-1.67-5.09-.01-3.03-.84-6.04-2.29-8.7-1.79-3.27-4.51-6.04-7.85-7.7-1.78-3.65-4.32-7.18-8.03-8.81-.28-.12-.57-.23-.86-.32-3.6-1.15-8.06-.1-9.83,3.21-1.83,3.42-.38,7.8,6.18,17.07s5.06,27.07,6.08,31.48c1.63,6.99,3.35,14.19,7.52,20.03,4.17,5.84,11.47,10.06,18.47,8.46.33,6.16,1.29,12.27,2.79,18.24.77,3.07,1.68,6.1,2.74,9.08.97,2.74,2.07,5.44,3.27,8.09,2.89,6.37,6.44,12.46,10.55,18.14,6.29,8.7,13.89,16.45,22.53,22.8,3.68,2.71,7.39,5.34,11.14,7.89,4.11,2.8,8.28,5.5,12.57,8.09,6.32,3.82,12.91,7.53,20.19,8.79,6.51,1.12,13.26-1.74,19.85-2,7-.28,14.02,2.12,20.81.4,12.21-3.1,21.56-12.67,30.22-21.83,8.33-8.8,16.54-18.03,23.13-28.21,1.09-1.69,2.14-3.41,3.14-5.15.17-.29.33-.59.5-.89.72-1.3,1.42-2.6,2.09-3.93,6.69-13.44,8.46-27.22,8.07-42.75-.02-.88.84-1.47,1.66-1.17,3.46,1.28,8.26-1,10.17-4.56,2.37-4.41,1.95-9.72,2.41-14.71.6-6.35,2.71-12.44,3.86-18.71.86-4.75,1.11-9.81-.21-14.38-1.05-3.63-.81-7.54.73-11,1.69-3.8,3.79-7.37,6.4-10.6,2.02-2.49,2.77-5.87,1.79-8.92h-.02Z"/>
      <path class="st1" d="M535.46,455.07c4.06-4.64,12.75-19.12,5.79-35.29-6.95-16.17,1.98-43.52,1.98-43.52.2-8.23,1.94-17.44,0-25.5-2.8-11.61-2.76-18.97-11.37-27.15-5-4.75-11.28-8.23-17.97-10.2-.12.23-.23.45-.34.67,21.27,31.32-10.66,134-12.3,133.45-1.37-.46-1.66-3.43-7.68-10.06-4.74,11.2-12.28,25.93-19.06,38.6h29.16c15.73-9.82,30.03-19.01,31.78-21h.01Z"/>
      <path class="st1" d="M513.57,314.09c-.22-.32-.45-.64-.68-.95-.51-.14-1.02-.27-1.53-.38-1,1.75-2.04,3.46-3.14,5.15-.82,13.31-.73,26.73,2.39,39.37,4.58,18.53-4.32,38.32-17.93,51.7s-31.34,21.6-48.74,29.45c6.28-2.54,18.92,3.6,26.61,1,6.06-2.05,13.37-11.22,16.81-8.11,2.58,2.33,4.61,4.38,6.23,6.16,6.02,6.63,6.31,9.61,7.68,10.06,1.64.55,33.56-102.13,12.3-133.45h0Z"/>
    </g>
    <path class="st1" d="M318.7,222.2s-8.59,7.9-2.4,14.08,7.9,13.4,4.81,12.02-11.34-10.99-14.77-11.34,1.02-6.29,6.87-14.77"/>
    <path class="st1" d="M293.32,198.15s7.56-9.66,23.32,18.55"/>
    <path class="st1" d="M302.55,201.24s1.4,16.49,0,18.89"/>
    <path class="st1" d="M328.44,268.43s-3.54-14.62-3.38-18.06"/>
    <path class="st1" d="M522.4,262.38s2.41-38.79,1.38-49.62c0,0,10.19,9.7,5.98,16.02s-5.79,14.22-1.58,11.85,10-12.37,8.82-16.32-4.61-13.61-4.61-13.61"/>
    <path class="st1" d="M528.19,206.63c0-.76,6.58-22.34,17.64-19.18"/>
    <path class="st1" d="M537.01,190.18s2.76,2.96,1.45,6.69"/>
    <path class="st1" d="M474.53,293.59s-20.3,4.5-33.16,3.64-28.3,3.64-33.44,4.07-19.29-3-25.3-2.14"/>
    <path class="st1" d="M418.28,326.82s21.58-9.22,39.81-3.22"/>
    <path class="st1" d="M410.92,255.86s0-2.14,3.22-1.07,5.79,5.23,8.58,7.59,13.87,4.5,18.38,0,3.49-9.48,9.06-7.89"/>
    <path class="st1" d="M416.5,262.38s-16.48,2.21-16.94-8.19c-.32-7.33,1.72-10.97,1.72-10.97"/>
    <path class="st1" d="M452.72,259.4s9.65-5.21,7.72-9.97"/>
    <path class="st1" d="M420.94,190.18l-4.06,48.94"/>
    <path class="st1" d="M425.93,307.95s14.58.86,21.22-1.93"/>
    <path class="st1" d="M460.7,55.41s4.32-15.23-5.75-28.44"/>
    <path class="st1" d="M422.8,58.53s5.78-20.87-18.49-20.65c-28.5.26-33.42,17.54-52.44,15.32"/>
    <path class="st1" d="M410.92,63.64s5.57-19.46-28.3-12.42c-16.32,3.39-31.48,21.93-51.77,7.31"/>
    <path class="st1" d="M430.54,55.41s9.41-22.47-19.62-22.47"/>
    <path class="st1" d="M506.27,95.44s4.72,14.17,19.19,25.22"/>
    <path class="st1" d="M330.86,83.92s-24.05,8.5-25.73,19.6"/>
    <circle class="st2" cx="377.77" cy="196.88" r="6.69"/>
    <circle class="st2" cx="473.53" cy="193.55" r="6.69"/>
    <ellipse class="st6" cx="359.84" cy="408.79" rx="6.45" ry="8.06"/>
    <path class="st1" d="M527.43,326.82s13.54,24.6,9.99,41.04-19.34,50.92-19.34,50.92c0,0,19.34,15.47,12.89,19.02s-30.94,33.2-30.94,33.2"/>
    <path class="st1" d="M309.9,353.44s29.23,103.57,24.57,114.27"/>
    <line class="st1" x1="359.84" y1="430.13" x2="399.52" y2="466.22"/>
    <ellipse class="st1" cx="359.84" cy="408.79" rx="6.45" ry="8.06"/>
  </g>
</svg>