<?xml version="1.0" encoding="UTF-8"?>
<svg id="Layer_1" xmlns="http://www.w3.org/2000/svg" xmlns:xlink="http://www.w3.org/1999/xlink" version="1.1" viewBox="0 0 841.89 467.72">
  <!-- Generator: Adobe Illustrator 29.0.0, SVG Export Plug-In . SVG Version: 2.1.0 Build 186)  -->
  <defs>
    <style>
      .st0, .st1, .st2 {
        fill: none;
      }

      .st3 {
        fill: #fbd0cf;
      }

      .st4 {
        fill: #55565a;
      }

      .st5 {
        fill: #f4c45b;
      }

      .st6 {
        fill: #80544f;
      }

      .st7 {
        fill: #fff;
      }

      .st1 {
        stroke-width: .95px;
      }

      .st1, .st2 {
        stroke: #55565a;
        stroke-miterlimit: 10;
      }

      .st2 {
        stroke-width: 1.13px;
      }

      .st8 {
        fill: #1b2151;
      }

      .st9 {
        fill: #5f9c70;
      }

      .st10 {
        clip-path: url(#clippath);
      }
    </style>
    <clipPath id="clippath">
      <rect class="st0" y="0" width="841.89" height="467.72"/>
    </clipPath>
  </defs>
  <g class="st10">
    <rect class="st9" y="0" width="841.89" height="470.76"/>
    <g>
      <path class="st7" d="M488.15,205.91c5.38-7.38,8.48-15.28,9.36-24.37-5.55-.07-10.96-.99-16.23-2.57,1.7,7.94,3.83,18.59,5.45,28.99.47-.69.93-1.38,1.42-2.05Z"/>
      <path class="st7" d="M313.35,247.97c.18.98.37,1.98.59,2.98,1.67,7.68,8.9,13.13,16.69,12.04,2.25-.32,4.24-1.13,5.79-2.56,0,0-3.37-12.5-7.67-33.47-2.92,8.63-8.06,16.71-15.4,21.01h0Z"/>
      <path class="st7" d="M365.77,323.3c-.04-3.01-.23-5.86-.52-8.58-2.38,1.6-4.73,3.28-6.29,5.44-1.47,2.04-2.18,4.52-3.27,6.8-3.38,7.06-10.78,10.95-18.59,11.44,8.25,21.33,12.91,44.88,7.65,67.13-3.6,15.26-17.66,28.15-14.19,43.44,1.93,8.52-.64,16.72-4,24.95h110.74s-72.66-83.91-75.5-118.84c0,0,4.15-19.12,3.97-31.79h0Z"/>
      <path class="st7" d="M512.33,150.67c-2.1,1.17-4.02-.22-5.27-2.28s-1.45-4.56-1.87-6.93c-1.69-9.51-47.04-73.07-70.21-91.11-23.17-18.04-51.38-36.06-81.25-21.75-7.19,3.44-15.76,4.8-23.61,7.15-17.89,5.37-37.55,37.77-43.54,51.04-5.59,12.37-10.76,30.24-21.9,38-31.6,21.98-23.34,71.75-18.79,109.97.49,4.14,1.14,8.35.34,12.44-1.05,5.38-4.46,9.93-7.13,14.72-9.23,16.53.82,22.05-.78,37.23-.71,6.71-3.92,13-9.11,17.31-25.39,21.07,3.55,69.85,3.55,69.85.21,2.27.47,4.6-.12,6.81-.65,2.42-2.26,4.45-3.86,6.38-8.75,10.58-18.37,20.67-24.63,32.89-3.3,6.43-5.63,13.4-9.71,19.36-5.77,8.44-15.36,16.01-14.38,26.18,4.73-3.23,9.75-6.98,14.48-10.21-3.17,5.52-2.79,12.34-1.89,18.64,2.42,16.97,7.95,33.48,16.24,48.49,1.34-5.3,3.38-10.42,6.06-15.19l2.03,12.52c.76-2.76,1.51-5.53,2.27-8.29-.04,5.23-.08,10.45-.13,15.68l4.68-5.53.64,9.78,3.08-6.95,1.32,21.88c6.95-12.11,12.85-24.81,17.62-37.93,2.12,12.79,9.43,24.98,19.28,33.41l-.08-15.03c2.8,10.07,7.38,19.64,13.46,28.15l.25-24.83c12.49-10.91,19.44-27.42,18.7-43.99,2.25,17.09,14.2,33.06,30.31,39.18-5.88-11.84-12.36-25.55-10.53-38.64,1.2-8.64,5.33-16.89,8.68-25.11,3.36-8.23,5.93-16.43,4-24.95-3.46-15.29,10.59-28.18,14.19-43.44,5.26-22.26.6-45.8-7.65-67.13,7.81-.49,15.21-4.39,18.59-11.44,1.09-2.27,1.8-4.75,3.27-6.8,1.56-2.16,3.91-3.84,6.29-5.44-.49-4.58-1.28-8.74-2.16-12.5-.43-1.82-.87-3.54-1.32-5.17-.49-.39-.98-.8-1.46-1.21-10.79-9.23-19.12-22.74-23.89-35.41-1.54,1.43-3.54,2.24-5.79,2.56-7.79,1.09-15.02-4.35-16.69-12.04-.22-1-.41-2-.59-2.98,7.34-4.3,12.48-12.38,15.4-21.01.17-.5.35-1.01.5-1.51,8.81-28.77.16-59.72,1.01-89.8.18-6.43-.23-17.36,2.46-23.2s9.52-9.79,15.82-11.08c9.71-1.97,14.86-8.89,23.73-13.29,22.88,1.43,59.57,76,109.01,90.88,5.27,1.59,10.67,2.5,16.23,2.57-.88,9.09-3.98,16.99-9.36,24.37-.49.67-.95,1.36-1.42,2.05,1.86,11.97,3.05,23.61,2.13,30.42-.64,4.77-2.17,11.43-4.47,18.81h0s-.09,9.96,2.7,22.92c.23-2.46.46-5.35.69-7.54,2.23,1.01,4.65,1.62,7.1,1.79-.76-3.72-1.1-7.52-1.03-11.31l4.3.16c-.89-4.88-4.61-8.75-6.37-13.39-2.27-5.99-.88-13.2,3.45-17.93,3.72-1.96,7.32-4.14,10.78-6.52-2,3.74-3.36,7.82-4.01,12,5.59-10.79,9.11-22.65,10.3-34.74.47,3.77,1.79,8.36,2.26,12.13,10.4-19.37,4.18-43.08-2.25-64.1l.05-.02Z"/>
      <path class="st7" d="M486.74,207.96c-1.62-10.4-3.75-21.05-5.45-28.99-49.44-14.89-86.13-89.45-109.01-90.88-8.88,4.4-14.02,11.32-23.73,13.29-6.31,1.28-13.13,5.23-15.82,11.08-2.69,5.84-2.28,16.77-2.46,23.2-.84,30.08,7.81,61.02-1.01,89.8-.16.51-.33,1.01-.5,1.51,4.3,20.97,7.67,33.47,7.67,33.47,4.76,12.68,13.1,26.18,23.89,35.41.48.41.97.81,1.46,1.21,3.73,3,13.03,5.62,17.28,7.38,57.11,17.13,54.51,13.03,69.3,7.41,3.54-1.34,6.9-3.63,10.08-6.61,9.07-8.5,16.54-22.59,21.86-36.24,1.57-4.03,2.95-8.01,4.13-11.81,2.29-7.39,3.82-14.05,4.47-18.81.92-6.81-.27-18.45-2.13-30.42h-.03Z"/>
      <path class="st7" d="M509.31,323.3c-7.25-6.82-12.38-15.15-16.02-23.56-2.92-6.73-4.87-13.51-6.19-19.63-2.79-12.97-2.7-22.92-2.7-22.92h0c-1.18,3.79-2.56,7.78-4.13,11.81-5.32,13.65-12.79,27.74-21.86,36.24-3.17,2.97-6.54,5.26-10.08,6.61-14.79,5.62-12.19,9.72-69.3-7.41-4.24-1.76-13.54-4.39-17.28-7.38.45,1.63.89,3.36,1.32,5.17.88,3.76,1.67,7.92,2.16,12.5.29,2.71.48,5.57.52,8.58.17,12.67-3.97,31.79-3.97,31.79,2.84,34.92,75.5,118.84,75.5,118.84h82.85s8.05-20.49,9.54-38.37-20.36-112.25-20.36-112.25v-.02Z"/>
      <path class="st7" d="M692.06,446.36c-9.58-81.46-31.15-92.84-61.1-104.82-11.58-4.63-19.83-5.68-25.62-5.22,5.44,6.73,50.17,126.95,49.58,137.62h43.13l-5.99-27.57h0Z"/>
      <path class="st7" d="M605.34,336.31c-.05-.06-.1-.13-.14-.17-4.79-4.79-17.37.6-34.14,0s-41.31-10.78-41.31-10.78c0,0-11.4-19.17-31.17-24.56-2.01-.55-3.76-.88-5.29-1.06,3.64,8.41,8.78,16.74,16.02,23.56,0,0,21.85,94.37,20.36,112.25s-9.54,38.37-9.54,38.37h134.78c.59-10.67-44.14-130.89-49.58-137.62h.01Z"/>
    </g>
    <g>
      <path class="st6" d="M510.59,150.67c-2.1,1.17-4.02-.22-5.27-2.28s-1.45-4.56-1.87-6.93c-1.69-9.51-47.04-73.07-70.21-91.11-23.17-18.04-51.38-36.06-81.25-21.75-7.19,3.44-15.76,4.8-23.61,7.15-17.89,5.37-37.55,37.77-43.54,51.04-5.59,12.37-10.76,30.24-21.9,38-31.6,21.98-23.34,71.75-18.79,109.97.49,4.14,1.14,8.35.34,12.44-1.05,5.38-4.46,9.93-7.13,14.72-9.23,16.53.82,22.05-.78,37.23-.71,6.71-3.92,13-9.11,17.31-25.39,21.07,3.55,69.85,3.55,69.85.21,2.27.47,4.6-.12,6.81-.65,2.42-2.26,4.45-3.86,6.38-8.75,10.58-18.37,20.67-24.63,32.89-3.3,6.43-5.63,13.4-9.71,19.36-5.77,8.44-15.36,16.01-14.38,26.18,4.73-3.23,9.75-6.98,14.48-10.21-3.17,5.52-2.79,12.34-1.89,18.64,2.42,16.97,7.95,33.48,16.24,48.49,1.34-5.3,3.38-10.42,6.06-15.19l2.03,12.52c.76-2.76,1.51-5.53,2.27-8.29-.04,5.23-.08,10.45-.13,15.68l4.68-5.53.64,9.78,3.08-6.95,1.32,21.88c6.95-12.11,12.85-24.81,17.62-37.93,2.12,12.79,9.43,24.98,19.28,33.41l-.08-15.03c2.8,10.07,7.38,19.64,13.46,28.15l.25-24.83c12.49-10.91,19.44-27.42,18.7-43.99,2.25,17.09,14.2,33.06,30.31,39.18-5.88-11.84-12.36-25.55-10.53-38.64,1.2-8.64,5.33-16.89,8.68-25.11,3.36-8.23,5.93-16.43,4-24.95-3.46-15.29,10.59-28.18,14.19-43.44,5.26-22.26.6-45.8-7.65-67.13,7.81-.49,15.21-4.39,18.59-11.44,1.09-2.27,1.8-4.75,3.27-6.8,1.56-2.16,3.91-3.84,6.29-5.44-.49-4.58-1.28-8.74-2.16-12.5-.43-1.82-.87-3.54-1.32-5.17-.49-.39-.98-.8-1.46-1.21-10.79-9.23-19.12-22.74-23.89-35.41-1.54,1.43-3.54,2.24-5.79,2.56-7.79,1.09-15.02-4.35-16.69-12.04-.22-1-.41-2-.59-2.98,7.34-4.3,12.48-12.38,15.4-21.01.17-.5.35-1.01.5-1.51,8.81-28.77.16-59.72,1.01-89.8.18-6.43-.23-17.36,2.46-23.2s9.52-9.79,15.82-11.08c9.71-1.97,14.86-8.89,23.73-13.29,22.88,1.43,59.57,76,109.01,90.88,5.27,1.59,10.67,2.5,16.23,2.57-.88,9.09-3.98,16.99-9.36,24.37-.49.67-.95,1.36-1.42,2.05,1.86,11.97,3.05,23.61,2.13,30.42-.64,4.77-2.17,11.43-4.47,18.81h0s-.09,9.96,2.7,22.92c.23-2.46.46-5.35.69-7.54,2.23,1.01,4.65,1.62,7.1,1.79-.76-3.72-1.1-7.52-1.03-11.31l4.3.16c-.89-4.88-4.61-8.75-6.37-13.39-2.27-5.99-.88-13.2,3.45-17.93,3.72-1.96,7.32-4.14,10.78-6.52-2,3.74-3.36,7.82-4.01,12,5.59-10.79,9.11-22.65,10.3-34.74.47,3.77,1.79,8.36,2.26,12.13,10.4-19.37,4.18-43.08-2.25-64.1l.05-.02Z"/>
      <path class="st3" d="M486.41,205.91c5.38-7.38,8.48-15.28,9.36-24.37-5.55-.07-10.96-.99-16.23-2.57,1.7,7.94,3.83,18.59,5.45,28.99.47-.69.93-1.38,1.42-2.05Z"/>
      <path class="st3" d="M311.61,247.97c.18.98.37,1.98.59,2.98,1.67,7.68,8.9,13.13,16.69,12.04,2.25-.32,4.24-1.13,5.79-2.56,0,0-3.37-12.5-7.67-33.47-2.92,8.63-8.06,16.71-15.4,21.01h0Z"/>
      <path class="st8" d="M362.89,323.3c-.04-3.01-.23-5.86-.52-8.58-2.38,1.6-4.73,3.28-6.29,5.44-1.47,2.04-2.18,4.52-3.27,6.8-3.38,7.06-10.78,10.95-18.59,11.44,8.25,21.33,12.91,44.88,7.65,67.13-3.6,15.26-17.66,28.15-14.19,43.44,1.93,8.52-.64,16.72-4,24.95h110.74s-72.66-83.91-75.5-118.84c0,0,4.15-19.12,3.97-31.79h0Z"/>
      <path class="st3" d="M487.26,207.96c-1.62-10.4-3.75-21.05-5.45-28.99-49.44-14.89-86.13-89.45-109.01-90.88-8.88,4.4-14.02,11.32-23.73,13.29-6.31,1.28-13.13,5.23-15.82,11.08-2.69,5.84-2.28,16.77-2.46,23.2-.84,30.08,7.81,61.02-1.01,89.8-.16.51-.33,1.01-.5,1.51,4.3,20.97,7.67,33.47,7.67,33.47,4.76,12.68,13.1,26.18,23.89,35.41.48.41.97.81,1.46,1.21,3.73,3,13.03,5.62,17.28,7.38,57.11,17.13,54.51,13.03,69.3,7.41,3.54-1.34,6.9-3.63,10.08-6.61,9.07-8.5,16.54-22.59,21.86-36.24,1.57-4.03,2.95-8.01,4.13-11.81,2.29-7.39,3.82-14.05,4.47-18.81.92-6.81-.27-18.45-2.13-30.42h-.03Z"/>
      <path class="st3" d="M509.84,323.3c-7.25-6.82-12.38-15.15-16.02-23.56-2.92-6.73-4.87-13.51-6.19-19.63-2.79-12.97-2.7-22.92-2.7-22.92h0c-1.18,3.79-2.56,7.78-4.13,11.81-5.32,13.65-12.79,27.74-21.86,36.24-3.17,2.97-6.54,5.26-10.08,6.61-14.79,5.62-12.19,9.72-69.3-7.41-4.24-1.76-13.54-4.39-17.28-7.38.45,1.63.89,3.36,1.32,5.17.88,3.76,1.67,7.92,2.16,12.5.29,2.71.48,5.57.52,8.58.17,12.67-3.97,31.79-3.97,31.79,2.84,34.92,75.5,118.84,75.5,118.84h82.85s8.05-20.49,9.54-38.37-20.36-112.25-20.36-112.25v-.02Z"/>
      <path class="st3" d="M689.18,446.36c-9.58-81.46-31.15-92.84-61.1-104.82-11.58-4.63-19.83-5.68-25.62-5.22,5.44,6.73,50.17,126.95,49.58,137.62h43.13l-5.99-27.57h0Z"/>
      <path class="st8" d="M608.14,337.45c-.05-.06-.1-.13-.14-.17-4.79-4.79-17.37.6-34.14,0s-41.31-10.78-41.31-10.78c0,0-11.4-19.17-31.17-24.56-2.01-.55-3.76-.88-5.29-1.06,3.64,8.41,8.78,16.74,16.02,23.56,0,0,21.85,94.37,20.36,112.25s-9.54,38.37-9.54,38.37h134.78c.59-10.67-44.14-130.89-49.58-137.62h.01Z"/>
    </g>
    <g>
      <path class="st0" d="M488.5,205.46c5.38-7.38,8.48-15.28,9.36-24.37-5.55-.07-10.96-.99-16.23-2.57,1.7,7.94,3.83,18.59,5.45,28.99.47-.69.93-1.38,1.42-2.05Z"/>
      <path class="st2" d="M313.7,247.53c.18.98.37,1.98.59,2.98,1.67,7.68,8.9,13.13,16.69,12.04,2.25-.32,4.24-1.13,5.79-2.56,0,0-3.37-12.5-7.67-33.47-2.92,8.63-8.06,16.71-15.4,21.01h0Z"/>
      <path class="st2" d="M366.12,322.86c-.04-3.01-.23-5.86-.52-8.58-2.38,1.6-4.73,3.28-6.29,5.44-1.47,2.04-2.18,4.52-3.27,6.8-3.38,7.06-10.78,10.95-18.59,11.44,8.25,21.33,12.91,44.88,7.65,67.13-3.6,15.26-17.66,28.15-14.19,43.44,1.93,8.52-.64,16.72-4,24.95h110.74s-72.66-83.91-75.5-118.84c0,0,4.15-19.12,3.97-31.79h0Z"/>
      <path class="st2" d="M512.68,150.22c-2.1,1.17-4.02-.22-5.27-2.28s-1.45-4.56-1.87-6.93c-1.69-9.51-47.04-73.07-70.21-91.11-23.17-18.04-51.38-36.06-81.25-21.75-7.19,3.44-15.76,4.8-23.61,7.15-17.89,5.37-37.55,37.77-43.54,51.04-5.59,12.37-10.76,30.24-21.9,38-31.6,21.98-23.34,71.75-18.79,109.97.49,4.14,1.14,8.35.34,12.44-1.05,5.38-4.46,9.93-7.13,14.72-9.23,16.53.82,22.05-.78,37.23-.71,6.71-3.92,13-9.11,17.31-25.39,21.07,3.55,69.85,3.55,69.85.21,2.27.47,4.6-.12,6.81-.65,2.42-2.26,4.45-3.86,6.38-8.75,10.58-18.37,20.67-24.63,32.89-3.3,6.43-5.63,13.4-9.71,19.36-5.77,8.44-15.36,16.01-14.38,26.18,4.73-3.23,9.75-6.98,14.48-10.21-3.17,5.52-2.79,12.34-1.89,18.64,2.42,16.97,7.95,33.48,16.24,48.49,1.34-5.3,3.38-10.42,6.06-15.19l2.03,12.52c.76-2.76,1.51-5.53,2.27-8.29-.04,5.23-.08,10.45-.13,15.68l4.68-5.53.64,9.78,3.08-6.95,1.32,21.88c6.95-12.11,12.85-24.81,17.62-37.93,2.12,12.79,9.43,24.98,19.28,33.41l-.08-15.03c2.8,10.07,7.38,19.64,13.46,28.15l.25-24.83c12.49-10.91,19.44-27.42,18.7-43.99,2.25,17.09,14.2,33.06,30.31,39.18-5.88-11.84-12.36-25.55-10.53-38.64,1.2-8.64,5.33-16.89,8.68-25.11,3.36-8.23,5.93-16.43,4-24.95-3.46-15.29,10.59-28.18,14.19-43.44,5.26-22.26.6-45.8-7.65-67.13,7.81-.49,15.21-4.39,18.59-11.44,1.09-2.27,1.8-4.75,3.27-6.8,1.56-2.16,3.91-3.84,6.29-5.44-.49-4.58-1.28-8.74-2.16-12.5-.43-1.82-.87-3.54-1.32-5.17-.49-.39-.98-.8-1.46-1.21-10.79-9.23-19.12-22.74-23.89-35.41-1.54,1.43-3.54,2.24-5.79,2.56-7.79,1.09-15.02-4.35-16.69-12.04-.22-1-.41-2-.59-2.98,7.34-4.3,12.48-12.38,15.4-21.01.17-.5.35-1.01.5-1.51,8.81-28.77.16-59.72,1.01-89.8.18-6.43-.23-17.36,2.46-23.2s9.52-9.79,15.82-11.08c9.71-1.97,14.86-8.89,23.73-13.29,22.88,1.43,59.57,76,109.01,90.88,5.27,1.59,10.67,2.5,16.23,2.57-.88,9.09-3.98,16.99-9.36,24.37-.49.67-.95,1.36-1.42,2.05,1.86,11.97,3.05,23.61,2.13,30.42-.64,4.77-2.17,11.43-4.47,18.81h0s-.09,9.96,2.7,22.92c.23-2.46.46-5.35.69-7.54,2.23,1.01,4.65,1.62,7.1,1.79-.76-3.72-1.1-7.52-1.03-11.31l4.3.16c-.89-4.88-4.61-8.75-6.37-13.39-2.27-5.99-.88-13.2,3.45-17.93,3.72-1.96,7.32-4.14,10.78-6.52-2,3.74-3.36,7.82-4.01,12,5.59-10.79,9.11-22.65,10.3-34.74.47,3.77,1.79,8.36,2.26,12.13,10.4-19.37,4.18-43.08-2.25-64.1l.05-.02Z"/>
      <path class="st2" d="M487.09,207.51c-1.62-10.4-3.75-21.05-5.45-28.99-49.44-14.89-86.13-89.45-109.01-90.88-8.88,4.4-14.02,11.32-23.73,13.29-6.31,1.28-13.13,5.23-15.82,11.08-2.69,5.84-2.28,16.77-2.46,23.2-.84,30.08,7.81,61.02-1.01,89.8-.16.51-.33,1.01-.5,1.51,4.3,20.97,7.67,33.47,7.67,33.47,4.76,12.68,13.1,26.18,23.89,35.41.48.41.97.81,1.46,1.21,3.73,3,13.03,5.62,17.28,7.38,57.11,17.13,54.51,13.03,69.3,7.41,3.54-1.34,6.9-3.63,10.08-6.61,9.07-8.5,16.54-22.59,21.86-36.24,1.57-4.03,2.95-8.01,4.13-11.81,2.29-7.39,3.82-14.05,4.47-18.81.92-6.81-.27-18.45-2.13-30.42h-.03Z"/>
      <path class="st2" d="M509.66,322.86c-7.25-6.82-12.38-15.15-16.02-23.56-2.92-6.73-4.87-13.51-6.19-19.63-2.79-12.97-2.7-22.92-2.7-22.92h0c-1.18,3.79-2.56,7.78-4.13,11.81-5.32,13.65-12.79,27.74-21.86,36.24-3.17,2.97-6.54,5.26-10.08,6.61-14.79,5.62-12.19,9.72-69.3-7.41-4.24-1.76-13.54-4.39-17.28-7.38.45,1.63.89,3.36,1.32,5.17.88,3.76,1.67,7.92,2.16,12.5.29,2.71.48,5.57.52,8.58.17,12.67-3.97,31.79-3.97,31.79,2.84,34.92,75.5,118.84,75.5,118.84h82.85s8.05-20.49,9.54-38.37-20.36-112.25-20.36-112.25v-.02Z"/>
      <path class="st2" d="M692.41,445.91c-9.58-81.46-31.15-92.84-61.1-104.82-11.58-4.63-19.83-5.68-25.62-5.22,5.44,6.73,50.17,126.95,49.58,137.62h43.13l-5.99-27.57h0Z"/>
      <path class="st2" d="M605.69,335.87c-.05-.06-.1-.13-.14-.17-4.79-4.79-17.37.6-34.14,0s-41.31-10.78-41.31-10.78c0,0-11.4-19.17-31.17-24.56-2.01-.55-3.76-.88-5.29-1.06,3.64,8.41,8.78,16.74,16.02,23.56,0,0,21.85,94.37,20.36,112.25s-9.54,38.37-9.54,38.37h134.78c.59-10.67-44.14-130.89-49.58-137.62h.01Z"/>
    </g>
    <line class="st2" x1="313.7" y1="247.53" x2="292.43" y2="262.68"/>
    <path class="st2" d="M280.66,228.91s37.42,95.7,46.24,124.04c8.82,28.34,17.38,25.93-27.53,115.49"/>
    <path class="st2" d="M362.12,89.63s-12.49-24.59-11.69-40.63c.8-16.04,5.83-17.11,5.83-17.11"/>
    <path class="st2" d="M505.7,158.26c-36.84,26.54-89.77-63.28-89.77-63.28,0,0-27.95-43.84-53.81-29.94"/>
    <path class="st2" d="M509.49,164.19c-2.07-16.24,9.37,44.67-11.62,55.9"/>
    <path class="st2" d="M336.77,62.31s-43.57,33.2-53.98,104.31c-3.62,24.7-33.51,24.07-33.15,35.33,1.07,33.15,26.2,97.34,40.91,122.65,26.59,45.73,17.36,100.25-29.68,117.9"/>
    <path class="st2" d="M249.64,197.63s30.6-124.04,79.46-142.75"/>
    <path class="st2" d="M274.24,312.05s23.13,60.37-21.92,87.68,11.23,94.1,11.23,94.1"/>
    <path class="st2" d="M337.45,337.96s-14.89-48.06-36.98-75.28"/>
    <path class="st2" d="M499.58,129.23s-12,26.91-53.48-3.66"/>
    <line class="st2" x1="530.1" y1="324.92" x2="605.69" y2="476.94"/>
    <path class="st2" d="M362.14,354.65s-13.54,87.77,10.92,118.84"/>
    <path class="st2" d="M365.73,378.29s2.86,61.12,16.54,90.14"/>
    <path class="st2" d="M430.95,204.04c4.15,2.35,6.53,6.44,6.69,10.46s-4.27,5.63-8.83,12.01-14.15,5.88-17.43,5.33c-6.5-1.09-5.09,1.43-11.53,2.77-2.25.47-4.11-.09-5.57-1.01-2.99-1.89-4.41-5.48-3.97-9"/>
    <path class="st7" d="M419.99,248.46c-5.9,2.78-19.24,9.28-30.63,12.51,3.26,1.23,8.09,2.73,13.19,3.12,9.07.7,36.42-5.72,48.14-22.47,1.99-2.85,3.65-5.26,5.04-7.32-4.01.89-9.94,2.22-13.29,3.09-5.39,1.4-15.05,7.58-22.44,11.06h-.01Z"/>
    <path class="st2" d="M398.54,211.25s-.74-20.66-8.35-28.45"/>
    <path class="st5" d="M319.54,258.98l.23-.83-.72-.48c-1.69-1.12-.96-3.75,1.06-3.84l.86-.04.23-.83c.54-1.95,3.27-2.07,3.98-.17l.3.81.86-.04c2.03-.09,2.98,2.47,1.39,3.73l-.68.54.3.81c.71,1.9-1.43,3.6-3.12,2.48l-.72-.48-.68.54c-1.59,1.26-3.86-.24-3.32-2.2h.03Z"/>
    <path class="st2" d="M422.54,315.35s-9.91-3.3-19.82-11.06"/>
    <circle class="st4" cx="362.12" cy="193.83" r="6.25"/>
    <circle class="st4" cx="431.4" cy="166.86" r="6.25"/>
    <path class="st2" d="M368.36,278.8s-10.26-7.69-9.96-16.12"/>
    <path class="st2" d="M481.64,238.14s2.73-12.31,0-20.37"/>
    <path class="st2" d="M419.99,248.46c-5.9,2.78-19.24,9.28-30.63,12.51,3.26,1.23,8.09,2.73,13.19,3.12,9.07.7,36.42-5.72,48.14-22.47,1.99-2.85,3.65-5.26,5.04-7.32-4.01.89-9.94,2.22-13.29,3.09-5.39,1.4-15.05,7.58-22.44,11.06h-.01Z"/>
    <path class="st2" d="M459.9,233.39s-12.08,2.61-17.46,4.01c-5.39,1.4-15.05,7.58-22.44,11.06-7.4,3.49-26.51,12.82-38.79,14.23"/>
    <path class="st2" d="M319.54,258.98l.23-.83-.72-.48c-1.69-1.12-.96-3.75,1.06-3.84l.86-.04.23-.83c.54-1.95,3.27-2.07,3.98-.17l.3.81.86-.04c2.03-.09,2.98,2.47,1.39,3.73l-.68.54.3.81c.71,1.9-1.43,3.6-3.12,2.48l-.72-.48-.68.54c-1.59,1.26-3.86-.24-3.32-2.2h.03Z"/>
    <path class="st5" d="M487.87,199.83l.55-.65-.62-1.33c-.62-1.33.98-2.59,2.13-1.68l.61.48.41-.48c1-1.18,2.93-.44,2.87,1.1l-.07,1.91,1.5,1.19c1.21.96.53,2.91-1.01,2.91h-.63l-.03.78c-.05,1.47-2.04,1.87-2.66.54l-.62-1.33h-.85c-1.78,0-2.74-2.08-1.6-3.44h.02Z"/>
    <path class="st1" d="M487.87,199.83l.55-.65-.62-1.33c-.62-1.33.98-2.59,2.13-1.68l.61.48.41-.48c1-1.18,2.93-.44,2.87,1.1l-.07,1.91,1.5,1.19c1.21.96.53,2.91-1.01,2.91h-.63l-.03.78c-.05,1.47-2.04,1.87-2.66.54l-.62-1.33h-.85c-1.78,0-2.74-2.08-1.6-3.44h.02Z"/>
  </g>
</svg>