<?xml version="1.0" encoding="utf-8"?>
<!-- Generator: Adobe Illustrator 24.0.3, SVG Export Plug-In . SVG Version: 6.00 Build 0)  -->
<svg version="1.1" id="Layer_1" xmlns="http://www.w3.org/2000/svg" xmlns:xlink="http://www.w3.org/1999/xlink" x="0px" y="0px"
	 viewBox="0 0 800 800" style="enable-background:new 0 0 800 800;" xml:space="preserve">
<style type="text/css">
	.st0{clip-path:url(#SVGID_2_);fill:#F6C65D;}
	.st1{clip-path:url(#SVGID_2_);}
	.st2{fill:none;stroke:#55585C;stroke-width:1.7089;stroke-miterlimit:10;}
	.st3{fill:#FFFFFF;}
	.st4{fill:#245486;}
	.st5{fill:#D2956C;}
	.st6{fill:#55585C;}
	.st7{clip-path:url(#SVGID_4_);fill:#E1635D;}
	.st8{clip-path:url(#SVGID_4_);}
	.st9{fill:#806A57;}
	.st10{fill:#F9E3D9;}
	.st11{clip-path:url(#SVGID_4_);fill:#FFFFFF;}
	.st12{clip-path:url(#SVGID_6_);fill:#DDEFFA;}
	.st13{clip-path:url(#SVGID_6_);}
	.st14{fill:#E1635D;}
	.st15{fill:#FAC8AF;}
	.st16{fill:none;}
	.st17{clip-path:url(#SVGID_8_);fill:#488FBA;}
	.st18{clip-path:url(#SVGID_8_);}
	.st19{fill:#B19465;}
	.st20{fill:#FAD4CB;}
	.st21{clip-path:url(#SVGID_10_);fill:#60A675;}
	.st22{clip-path:url(#SVGID_10_);}
	.st23{fill:#E1A27B;}
</style>
<g>
	<defs>
		<rect id="SVGID_9_" x="0.36" y="0.36" width="799.28" height="799.28"/>
	</defs>
	<clipPath id="SVGID_2_">
		<use xlink:href="#SVGID_9_"  style="overflow:visible;"/>
	</clipPath>
	<rect x="0.36" y="0.36" style="clip-path:url(#SVGID_2_);fill:#60A675;" width="799.28" height="799.28"/>
	<g class="st1">
		<g>
			<path class="st3" d="M575.78,320.08c0,0-0.99,12.28-0.76,31.02c0.16,13.2,0.92,29.6,3.06,47.19c2.41,19.79,4.44,37.09,5.81,50.69
				c4.96,3.94,16.04,1.06,16.04,1.06c18.98-6.9,6.9-118.46,6.9-136.28c0-17.83-10.35-32.78-20.13-21.85
				c-0.96,1.07-1.93,2.58-2.9,4.41c-2.79,5.26-5.57,13.26-8.09,21.79L575.78,320.08z"/>
			<path class="st3" d="M163.65,800.28c-4.3-48.49-9.96-113.34-10.57-125.39c-9.88,6.92-21.85,15.39-36.06,25.59
				c-50.96,36.59-131.98,53.58-160.73,64.03c-25.75,9.36-31.58,31.3-32.51,35.77H163.65z"/>
			<path class="st3" d="M652.55,800.28h223.67c-25.96-23.73-80.87-57.82-118.91-65.82c-43.62-9.18-123.53-62.73-142.32-75.61
				C629.31,686.62,653.13,739.15,652.55,800.28z"/>
			<path class="st3" d="M153.07,674.89c0.61,12.04,6.28,76.9,10.57,125.39h114.8c-3.9-9.2-7.98-20.74-13.19-35.12
				c-9.09-25.1-16.35-81.49-20.45-119.54c-1.43-13.25-2.47-24.27-3.08-30.98c-6.08-11.67-13.14-19.78-18.28-28.05
				c-8.01,15.4-20.03,35.67-31.3,43.47c-19.18,13.28-39.84,27.3-39.1,44.27C153.05,674.49,153.06,674.69,153.07,674.89z"/>
			<path class="st3" d="M571.18,784.13l-7.57,16.15h88.94c0.58-61.13-23.24-113.66-37.56-141.44c-3.93-7.63-7.16-13.43-8.94-16.99
				c-5.87-11.75-27.98-42.65-42.2-62.12c-2.21,3.71-4.7,7.99-7.37,12.62c0.93,15.18,2.54,37.4,4.35,61.38
				C565.36,713.47,571.18,784.13,571.18,784.13z"/>
			<path class="st3" d="M265.26,765.15c5.21,14.38,9.28,25.93,13.19,35.12h285.16l7.57-16.15c0,0-5.82-70.66-10.34-130.4
				c-1.81-23.98-3.42-46.2-4.35-61.38c-4.03,6.98-8.47,14.75-13.03,22.62c-7.69,13.26-15.7,26.71-22.56,36.92
				c-5.21,7.75-9.75,13.63-12.98,16.09c-5.73,4.37-18.24,13.7-37.38,25.88c-21.16,13.46-50.35,29.63-85.68,29.33
				c-1.48-0.01-38.53-8.05-72.45-35.08c-5.5-4.38-11.17-8.7-16.86-13.15c-11.6-9.07-23.27-18.69-33.7-30.56
				c-7.29-8.3-13.98-17.68-19.59-28.75c-0.17-0.34-0.35-0.67-0.53-1.01c0.61,6.7,1.65,17.72,3.08,30.98
				C248.92,683.67,256.17,740.05,265.26,765.15z"/>
			<path class="st3" d="M182.16,417.74l0.51,3.04c0.23,0.69,0.36,1.08,0.36,1.08S182.72,420.39,182.16,417.74z"/>
			<path class="st3" d="M163.58,382.72c-3.12-3.64-6.45-6.23-9.87-6.86c-15.53-2.88-6.33,29.9,6.9,44.28
				c13.23,14.38,20.7,50.03,25.3,69c3.06,12.62,7.37,22.4,9.92,27.56c-6.13-29.78-14.76-80.5-19.29-107.67
				c-0.77-4.63-2.26-9.11-4.46-13.25C169.54,390.96,166.66,386.32,163.58,382.72z"/>
			<path class="st3" d="M182.68,420.78l0.41,2.44c-0.04-0.88-0.05-1.36-0.05-1.36S182.91,421.47,182.68,420.78z"/>
			<path class="st3" d="M183.09,423.22l0.16,0.96l-0.21-2.32C183.03,421.86,183.05,422.34,183.09,423.22z"/>
			<path class="st3" d="M288.84,631.17c0,0,1.32-10.31,2.04-24.02c0.09-1.64,0.16-3.31,0.23-5.04c0.18-4.63,0.27-9.52,0.22-14.46
				c-0.13-11.55-1.07-23.32-3.63-32.38c0,0,44.28-24.73,79.35-31.05c35.08-6.33,87.4-16.68,118.46-5.18l14.81,60.12l4.74,19.23
				c0,0,11.38-9.57,24.37-22.42c15.31-15.16,32.85-34.88,36.59-48.88c6.9-25.88,13.8-56.35,13.8-73.03
				c0-10.06-5.86-49.41-10.51-79.06c-0.51-3.26-1-6.38-1.48-9.35c-0.53-3.33-1.03-6.44-1.48-9.27
				c-0.21,1.04-30.81-87.48-35.41-111.64c-4.6-24.15-32.78-77.05-36.23-81.65c-3.45-4.6-13.8-7.48-24.73-8.63
				c-10.93-1.15-38.53,5.75-46,6.33c-7.48,0.58-17.83,0.58-23.58-2.3c-5.75-2.88-9.78,4.6-21.28,3.45
				c-11.5-1.15-5.75,0.58-16.1,1.73c-10.35,1.15-29.9,8.05-43.13,8.05s-10.35-0.58-12.65,8.05s-13.23,2.88-24.15,2.3
				c-10.93-0.58-10.35-4.03-18.98,3.45c-8.63,7.48-13.23,8.63-29.33,9.2c-16.1,0.58-13.8,0-18.4,4.6c-2.11,2.11-6.39,1.2-10.41-0.41
				c-2.69-1.07-5.53,1.05-5.21,3.92c0.06,0.53,0.09,1.09,0.09,1.66c0,6.33-28.18,6.33-28.18,6.33l-8.63,41.98
				c-7.7,21.48,4.88,96.66,12.98,139.17c2.21,11.62,4.09,20.79,5.13,25.76c0.55,2.65,0.87,4.12,0.87,4.12l0.21,2.32l16.43,97.56
				c0.12,0.72,0.3,1.43,0.53,2.13l9.8,27.26c0.3,0.89,2.16,5.82,2.75,6.76c5.15,8.31,9.53,15.06,14.07,22.04
				c6.91,10.61,13.31,19.65,19.76,27.07C259.08,621.37,271.79,629.62,288.84,631.17z"/>
			<path class="st3" d="M242.26,615.65c5.61,11.07,12.3,20.45,19.59,28.75c10.43,11.86,22.1,21.49,33.7,30.56
				c5.69,4.45,11.36,8.77,16.86,13.15c33.93,27.03,70.97,35.06,72.45,35.08c35.33,0.3,64.52-15.86,85.68-29.33
				c19.14-12.17,31.64-21.51,37.38-25.88c3.23-2.46,7.77-8.34,12.98-16.09c6.86-10.21,14.87-23.66,22.56-36.92
				c4.56-7.86,9.01-15.63,13.03-22.62c2.67-4.63,5.16-8.91,7.37-12.62c0.54-0.9,1.06-1.78,1.57-2.61c5.88-9.73,9.8-31.82,12.4-55.04
				c3.89-20.04,7.19-39.22,7.73-42.71c0.61-4-0.09-14.75-1.66-30.39c-1.37-13.6-3.4-30.9-5.81-50.69
				c-2.14-17.59-2.9-33.99-3.06-47.19c-0.23-18.74,0.76-31.02,0.76-31.02l-0.06-1.98c2.51-8.52,5.3-16.53,8.09-21.79
				c-0.2-12.99-1.2-25.38-4-30.29c-6.9-12.08-20.7-53.48-25.88-69c-5.18-15.53-36.8-74.75-36.8-74.75s-2.3-25.3-14.38-32.2
				c-12.08-6.9-14.38-18.98-19.55-24.73c-5.18-5.75-35.08-19.55-40.83-26.45c-5.75-6.9-14.38-13.23-42.55-12.08
				c-28.18,1.15-15.53-6.33-45.43-5.75c-29.9,0.58-77.63,5.18-92.58,9.78c-14.95,4.6-18.98,16.68-32.78,23.58
				c-13.8,6.9-39.1,21.28-47.73,31.63c-8.63,10.35-18.98,22.43-23.58,37.38c-4.6,14.95,0.57,18.98-7.48,31.63
				c-8.05,12.65,3.45,36.23,2.3,45.43c-1.15,9.2-12.08,86.25-9.2,101.2c2.88,14.95,2.88,43.7,9.2,52.33
				c4.21,5.74,8.68,18.88,11.02,28.71c3.09,3.6,5.96,8.24,8.51,13.05c2.19,4.15,3.68,8.63,4.46,13.25
				c4.53,27.16,13.16,77.89,19.29,107.67c0.94,1.9,2.87,15.01,12.91,38.9c2.99,7.12,6.8,15.55,11.67,25.55
				c0.9,1.85,1.93,3.65,3.04,5.44c5.14,8.28,12.2,16.38,18.28,28.05C241.91,614.98,242.09,615.3,242.26,615.65z M476,589.77
				c-20.98,55.16-34.52,45.34-43.65,47.04s-13.2-25.72-13.2-25.72l-40.95,3.72c0,0,3.05,30.12-23.01,36.55
				c-26.06,6.43-64.63-93.06-64.63-93.06c20.3-15.9,79.88-28.69,102.19-33.5c34.52-7.44,84.6,0,84.6,0
				C487.17,558.63,476,589.77,476,589.77z M212.75,557.89c-0.79-1.27-2.17-5.06-2.75-6.76l-9.8-27.26c-0.23-0.69-0.41-1.4-0.53-2.13
				l-16.43-97.56l-0.16-0.96l-0.41-2.44l-0.51-3.04c-1.04-4.97-2.91-14.14-5.13-25.76c-8.1-42.51-20.68-117.69-12.98-139.17
				l8.63-41.98c0,0,28.18,0,28.18-6.33c0-0.57-0.03-1.13-0.09-1.66c-0.32-2.87,2.52-5,5.21-3.92c4.02,1.61,8.3,2.52,10.41,0.41
				c4.6-4.6,2.3-4.03,18.4-4.6c16.1-0.58,20.7-1.73,29.33-9.2c8.63-7.48,8.05-4.03,18.98-3.45c10.93,0.58,21.85,6.33,24.15-2.3
				s-0.57-8.05,12.65-8.05s32.78-6.9,43.13-8.05c10.35-1.15,4.6-2.88,16.1-1.73c11.5,1.15,15.53-6.33,21.28-3.45
				c5.75,2.88,16.1,2.88,23.58,2.3c7.48-0.58,35.08-7.48,46-6.33c10.93,1.15,21.28,4.03,24.73,8.63c3.45,4.6,31.63,57.5,36.23,81.65
				c4.6,24.15,35.2,112.68,35.41,111.64c0.46,2.83,0.95,5.94,1.48,9.27c0.47,2.97,0.97,6.09,1.48,9.35
				c4.65,29.65,10.51,69,10.51,79.06c0,16.68-6.9,47.15-13.8,73.03c-3.73,14-21.27,33.72-36.59,48.88
				c-12.98,12.85-24.37,22.42-24.37,22.42l-4.74-19.23l-14.81-60.12c-31.05-11.5-83.38-1.15-118.46,5.18
				c-35.08,6.33-79.35,31.05-79.35,31.05c2.56,9.06,3.5,20.83,3.63,32.38c0.06,4.94-0.04,9.83-0.22,14.46
				c-0.07,1.72-0.14,3.4-0.23,5.04c-0.72,13.71-2.04,24.02-2.04,24.02c-17.05-1.55-29.75-9.8-42.26-24.18
				c-6.45-7.42-12.85-16.46-19.76-27.07C222.28,572.95,217.9,566.19,212.75,557.89z"/>
			<path class="st3" d="M392.76,524.8c-22.31,4.81-81.89,17.6-102.19,33.5c0,0,38.58,99.49,64.63,93.06
				c26.06-6.43,23.01-36.55,23.01-36.55l40.95-3.72c0,0,4.06,27.41,13.2,25.72s22.67,8.12,43.65-47.04c0,0,11.17-31.13,1.35-64.97
				C477.36,524.8,427.28,517.35,392.76,524.8z M397.5,585.37c-20.49,4.21-82.57-23.01-82.57-23.01c4.48-1.28,32.91-5.78,53.8-7.44
				c8.53-0.68,16.03-0.25,19.78,0.08c1.7,0.15,3.37-0.33,4.78-1.28c21.57-14.39,67.14-24.18,67.14-24.18S416.44,581.47,397.5,585.37
				z"/>
			<path class="st3" d="M388.51,554.99c-3.75-0.32-11.25-0.76-19.78-0.08c-20.89,1.67-49.32,6.16-53.8,7.44
				c0,0,62.08,27.22,82.57,23.01c18.94-3.89,62.94-55.83,62.94-55.83s-45.57,9.79-67.14,24.18
				C391.88,554.66,390.21,555.14,388.51,554.99z"/>
		</g>
		<g>
			<path class="st23" d="M270.72,763.28c5.57,15.38,9.85,27.51,14,37h283.47l8.45-18.02c0,0-5.82-70.66-10.34-130.4
				c-1.81-23.98-3.42-46.2-4.35-61.38c-4.03,6.98-8.47,14.75-13.03,22.62c-7.69,13.26-15.7,26.71-22.56,36.92
				c-5.21,7.75-9.75,13.63-12.98,16.09c-5.73,4.37-18.24,13.7-37.38,25.88c-21.16,13.46-50.35,29.63-85.68,29.33
				c-1.48-0.01-38.53-8.05-72.45-35.08c-5.5-4.38-11.17-8.7-16.86-13.15c-11.6-9.07-23.27-18.69-33.7-30.56
				c-7.29-8.3-13.98-17.68-19.59-28.75c-0.17-0.34-0.35-0.67-0.53-1.01c0.61,6.7,1.65,17.72,3.08,30.98
				C254.38,681.79,261.63,738.18,270.72,763.28z"/>
			<path class="st23" d="M581.24,318.21c0,0-0.99,12.28-0.76,31.02c0.16,13.2,0.92,29.6,3.06,47.19
				c2.41,19.79,4.44,37.09,5.81,50.69c4.96,3.94,16.04,1.06,16.04,1.06c18.98-6.9,6.9-118.46,6.9-136.28
				c0-17.83-10.35-32.78-20.13-21.85c-0.96,1.07-1.93,2.58-2.9,4.41c-2.79,5.26-5.57,13.26-8.09,21.79L581.24,318.21z"/>
			<path class="st4" d="M168.21,800.28c-4.15-46.97-9.11-104.08-9.68-115.3c-9.88,6.92-21.85,15.39-36.06,25.59
				C71.52,747.15-9.5,764.14-38.25,774.59c-16.57,6.03-24.87,17.25-28.95,25.68H168.21z"/>
			<path class="st4" d="M869.7,800.28c-28.49-22.37-74.02-48.81-106.93-55.74c-43.62-9.18-123.53-62.73-142.32-75.61
				c13.52,26.24,35.52,74.56,37.43,131.35H869.7z"/>
			<path class="st4" d="M158.53,684.98c0.57,11.22,5.53,68.33,9.68,115.3h111.66c-2.74-7.2-5.7-15.49-9.15-25.04
				c-9.09-25.1-16.35-81.49-20.45-119.54c-1.43-13.25-2.47-24.27-3.08-30.98c-6.08-11.67-13.14-19.78-18.28-28.05
				c-8.01,15.4-20.03,35.67-31.3,43.47c-19.18,13.28-39.84,27.3-39.1,44.27C158.51,684.57,158.52,684.78,158.53,684.98z"/>
			<path class="st4" d="M576.64,794.22l-2.84,6.06h84.09c-1.92-56.79-23.91-105.11-37.43-131.35c-3.93-7.63-7.16-13.43-8.94-16.99
				c-5.87-11.75-27.98-42.65-42.2-62.12c-2.21,3.71-4.7,7.99-7.37,12.62c0.93,15.18,2.53,37.4,4.35,61.38
				C570.82,723.56,576.64,794.22,576.64,794.22z"/>
			<path class="st3" d="M187.62,415.87l0.51,3.04c0.23,0.69,0.36,1.08,0.36,1.08S188.18,418.51,187.62,415.87z"/>
			<path class="st23" d="M169.04,380.84c-3.12-3.64-6.45-6.23-9.87-6.86c-15.53-2.88-6.33,29.9,6.9,44.28
				c13.23,14.38,20.7,50.03,25.3,69c3.06,12.62,7.37,22.4,9.92,27.56c-6.13-29.78-14.76-80.5-19.29-107.67
				c-0.77-4.63-2.26-9.11-4.46-13.25C175,389.08,172.12,384.45,169.04,380.84z"/>
			<path class="st3" d="M188.14,418.91l0.41,2.44c-0.04-0.88-0.05-1.36-0.05-1.36S188.37,419.6,188.14,418.91z"/>
			<path class="st3" d="M188.55,421.35l0.16,0.96l-0.21-2.32C188.49,419.99,188.51,420.47,188.55,421.35z"/>
			<path class="st3" d="M294.3,629.3c0,0,1.32-10.31,2.04-24.02c0.09-1.64,0.16-3.31,0.23-5.04c0.18-4.63,0.27-9.52,0.22-14.46
				c-0.13-11.55-1.07-23.32-3.63-32.38c0,0,44.28-24.73,79.35-31.05c35.08-6.33,87.4-16.68,118.46-5.18l14.81,60.12l4.74,19.23
				c0,0,11.38-9.57,24.37-22.42c15.31-15.16,32.85-34.88,36.59-48.88c6.9-25.88,13.8-56.35,13.8-73.03
				c0-10.06-5.86-49.41-10.51-79.06c-0.51-3.26-1-6.38-1.48-9.35c-0.53-3.33-1.03-6.44-1.48-9.27
				c-0.21,1.04-30.81-87.48-35.41-111.64c-4.6-24.15-32.78-77.05-36.23-81.65c-3.45-4.6-13.8-7.48-24.73-8.63
				c-10.93-1.15-38.53,5.75-46,6.33c-7.48,0.58-17.83,0.58-23.58-2.3c-5.75-2.88-9.78,4.6-21.28,3.45
				c-11.5-1.15-5.75,0.58-16.1,1.73c-10.35,1.15-29.9,8.05-43.13,8.05s-10.35-0.58-12.65,8.05c-2.3,8.63-13.23,2.88-24.15,2.3
				c-10.93-0.58-10.35-4.03-18.98,3.45c-8.63,7.48-13.23,8.63-29.33,9.2c-16.1,0.58-13.8,0-18.4,4.6c-2.11,2.11-6.39,1.2-10.41-0.41
				c-2.69-1.07-5.53,1.05-5.21,3.92c0.06,0.53,0.09,1.09,0.09,1.66c0,6.33-28.18,6.33-28.18,6.33l-8.63,41.98
				c-7.7,21.48,4.88,96.66,12.98,139.17c2.21,11.62,4.09,20.79,5.13,25.76c0.55,2.65,0.87,4.12,0.87,4.12l0.21,2.32l16.43,97.56
				c0.12,0.72,0.3,1.43,0.53,2.13l9.8,27.26c0.3,0.89,2.16,5.82,2.75,6.76c5.15,8.31,9.53,15.06,14.07,22.04
				c6.91,10.61,13.31,19.65,19.76,27.07C264.54,619.5,277.25,627.75,294.3,629.3z"/>
			<path class="st23" d="M481.46,587.89c-20.98,55.16-34.52,45.34-43.65,47.04c-9.14,1.69-13.2-25.72-13.2-25.72l-40.95,3.72
				c0,0,3.05,30.12-23.01,36.55c-26.06,6.43-64.63-93.06-64.63-93.06c20.3-15.9,79.88-28.69,102.19-33.5c34.52-7.44,84.6,0,84.6,0
				C492.63,556.76,481.46,587.89,481.46,587.89z M218.21,556.01c-0.79-1.27-2.17-5.06-2.75-6.76l-9.8-27.26
				c-0.23-0.69-0.41-1.4-0.53-2.13l-16.43-97.56l-0.16-0.96l-0.41-2.44l-0.51-3.04c-1.04-4.97-2.91-14.14-5.13-25.76
				c-8.1-42.51-20.68-117.69-12.98-139.17l8.63-41.98c0,0,28.18,0,28.18-6.33c0-0.57-0.03-1.13-0.09-1.66
				c-0.32-2.87,2.52-5,5.21-3.92c4.02,1.61,8.3,2.52,10.41,0.41c4.6-4.6,2.3-4.03,18.4-4.6c16.1-0.58,20.7-1.73,29.33-9.2
				c8.63-7.48,8.05-4.03,18.98-3.45c10.93,0.58,21.85,6.33,24.15-2.3c2.3-8.63-0.57-8.05,12.65-8.05s32.78-6.9,43.13-8.05
				c10.35-1.15,4.6-2.88,16.1-1.73c11.5,1.15,15.53-6.33,21.28-3.45c5.75,2.88,16.1,2.88,23.58,2.3c7.48-0.58,35.08-7.48,46-6.33
				c10.93,1.15,21.28,4.03,24.73,8.63c3.45,4.6,31.63,57.5,36.23,81.65c4.6,24.15,35.2,112.68,35.41,111.64
				c0.46,2.83,0.95,5.94,1.48,9.27c0.47,2.97,0.97,6.09,1.48,9.35c4.65,29.65,10.51,69,10.51,79.06c0,16.68-6.9,47.15-13.8,73.03
				c-3.73,14-21.27,33.72-36.59,48.88c-12.98,12.85-24.37,22.42-24.37,22.42l-4.74-19.23l-14.81-60.12
				c-31.05-11.5-83.38-1.15-118.46,5.18c-35.08,6.33-79.35,31.05-79.35,31.05c2.56,9.06,3.5,20.83,3.63,32.38
				c0.06,4.94-0.04,9.83-0.22,14.46c-0.07,1.72-0.14,3.4-0.23,5.04c-0.72,13.71-2.04,24.02-2.04,24.02
				c-17.05-1.55-29.75-9.8-42.26-24.18c-6.45-7.42-12.85-16.46-19.76-27.07C227.74,571.07,223.36,564.32,218.21,556.01z"/>
			<path class="st23" d="M398.22,522.92c-22.31,4.81-81.89,17.6-102.19,33.5c0,0,38.58,99.49,64.63,93.06
				c26.06-6.43,23.01-36.55,23.01-36.55l40.95-3.72c0,0,4.06,27.41,13.2,25.72c9.14-1.69,22.67,8.12,43.65-47.04
				c0,0,11.17-31.13,1.35-64.97C482.82,522.92,432.74,515.48,398.22,522.92z M402.96,583.49c-20.49,4.21-82.57-23.01-82.57-23.01
				c4.48-1.28,32.91-5.78,53.8-7.44c8.53-0.68,16.03-0.25,19.78,0.08c1.7,0.15,3.37-0.33,4.78-1.28
				c21.57-14.39,67.14-24.18,67.14-24.18S421.9,579.6,402.96,583.49z"/>
			<path class="st3" d="M393.97,553.11c-3.75-0.32-11.25-0.76-19.78-0.08c-20.89,1.67-49.32,6.16-53.8,7.44
				c0,0,62.08,27.22,82.57,23.01c18.94-3.89,62.94-55.83,62.94-55.83s-45.57,9.79-67.14,24.18
				C397.34,552.78,395.67,553.26,393.97,553.11z"/>
		</g>
		<circle class="st6" cx="273.48" cy="393.3" r="8.68"/>
		<circle class="st6" cx="445.76" cy="355.19" r="8.68"/>
		<g>
			<path class="st2" d="M575.78,320.08c0,0-0.99,12.28-0.76,31.02c0.16,13.2,0.92,29.6,3.06,47.19c2.41,19.79,4.44,37.09,5.81,50.69
				c4.96,3.94,16.04,1.06,16.04,1.06c18.98-6.9,6.9-118.46,6.9-136.28c0-17.83-10.35-32.78-20.13-21.85
				c-0.96,1.07-1.93,2.58-2.9,4.41c-2.79,5.26-5.57,13.26-8.09,21.79L575.78,320.08z"/>
			<path class="st2" d="M163.65,800.28c-4.3-48.49-9.96-113.34-10.57-125.39c-9.88,6.92-21.85,15.39-36.06,25.59
				c-50.96,36.59-131.98,53.58-160.73,64.03c-25.75,9.36-31.58,31.3-32.51,35.77"/>
			<path class="st2" d="M876.22,800.28c-25.96-23.73-80.87-57.82-118.91-65.82c-43.62-9.18-123.53-62.73-142.32-75.61
				c14.31,27.78,38.13,80.3,37.56,141.44"/>
			<path class="st2" d="M278.45,800.28c-3.9-9.2-7.98-20.74-13.19-35.12c-9.09-25.1-16.35-81.49-20.45-119.54
				c-1.43-13.25-2.47-24.27-3.08-30.98c-6.08-11.67-13.14-19.78-18.28-28.05c-8.01,15.4-20.03,35.67-31.3,43.47
				c-19.18,13.28-39.84,27.3-39.1,44.27c0.01,0.17,0.02,0.38,0.03,0.57c0.61,12.04,6.28,76.9,10.57,125.39"/>
			<path class="st2" d="M652.55,800.28c0.58-61.13-23.24-113.66-37.56-141.44c-3.93-7.63-7.16-13.43-8.94-16.99
				c-5.87-11.75-27.98-42.65-42.2-62.12c-2.21,3.71-4.7,7.99-7.37,12.62c0.93,15.18,2.54,37.4,4.35,61.38
				c4.52,59.74,10.34,130.4,10.34,130.4l-7.57,16.15"/>
			<path class="st2" d="M563.61,800.28l7.57-16.15c0,0-5.82-70.66-10.34-130.4c-1.81-23.98-3.42-46.2-4.35-61.38
				c-4.03,6.98-8.47,14.75-13.03,22.62c-7.69,13.26-15.7,26.71-22.56,36.92c-5.21,7.75-9.75,13.63-12.98,16.09
				c-5.73,4.37-18.24,13.7-37.38,25.88c-21.16,13.46-50.35,29.63-85.68,29.33c-1.48-0.01-38.53-8.05-72.45-35.08
				c-5.5-4.38-11.17-8.7-16.86-13.15c-11.6-9.07-23.27-18.69-33.7-30.56c-7.29-8.3-13.98-17.68-19.59-28.75
				c-0.17-0.34-0.35-0.67-0.53-1.01c0.61,6.7,1.65,17.72,3.08,30.98c4.1,38.05,11.35,94.44,20.45,119.54
				c5.21,14.38,9.28,25.93,13.19,35.12"/>
			<path class="st2" d="M182.16,417.74l0.51,3.04c0.23,0.69,0.36,1.08,0.36,1.08S182.72,420.39,182.16,417.74z"/>
			<path class="st2" d="M163.58,382.72c-3.12-3.64-6.45-6.23-9.87-6.86c-15.53-2.88-6.33,29.9,6.9,44.28
				c13.23,14.38,20.7,50.03,25.3,69c3.06,12.62,7.37,22.4,9.92,27.56c-6.13-29.78-14.76-80.5-19.29-107.67
				c-0.77-4.63-2.26-9.11-4.46-13.25C169.54,390.96,166.66,386.32,163.58,382.72z"/>
			<path class="st2" d="M182.68,420.78l0.41,2.44c-0.04-0.88-0.05-1.36-0.05-1.36S182.91,421.47,182.68,420.78z"/>
			<path class="st2" d="M183.09,423.22l0.16,0.96l-0.21-2.32C183.03,421.86,183.05,422.34,183.09,423.22z"/>
			<path class="st2" d="M288.84,631.17c0,0,1.32-10.31,2.04-24.02c0.09-1.64,0.16-3.31,0.23-5.04c0.18-4.63,0.27-9.52,0.22-14.46
				c-0.13-11.55-1.07-23.32-3.63-32.38c0,0,44.28-24.73,79.35-31.05c35.08-6.33,87.4-16.68,118.46-5.18l14.81,60.12l4.74,19.23
				c0,0,11.38-9.57,24.37-22.42c15.31-15.16,32.85-34.88,36.59-48.88c6.9-25.88,13.8-56.35,13.8-73.03
				c0-10.06-5.86-49.41-10.51-79.06c-0.51-3.26-1-6.38-1.48-9.35c-0.53-3.33-1.03-6.44-1.48-9.27
				c-0.21,1.04-30.81-87.48-35.41-111.64c-4.6-24.15-32.78-77.05-36.23-81.65c-3.45-4.6-13.8-7.48-24.73-8.63
				c-10.93-1.15-38.53,5.75-46,6.33c-7.48,0.58-17.83,0.58-23.58-2.3c-5.75-2.88-9.78,4.6-21.28,3.45
				c-11.5-1.15-5.75,0.58-16.1,1.73c-10.35,1.15-29.9,8.05-43.13,8.05s-10.35-0.58-12.65,8.05s-13.23,2.88-24.15,2.3
				c-10.93-0.58-10.35-4.03-18.98,3.45c-8.63,7.48-13.23,8.63-29.33,9.2c-16.1,0.58-13.8,0-18.4,4.6c-2.11,2.11-6.39,1.2-10.41-0.41
				c-2.69-1.07-5.53,1.05-5.21,3.92c0.06,0.53,0.09,1.09,0.09,1.66c0,6.33-28.18,6.33-28.18,6.33l-8.63,41.98
				c-7.7,21.48,4.88,96.66,12.98,139.17c2.21,11.62,4.09,20.79,5.13,25.76c0.55,2.65,0.87,4.12,0.87,4.12l0.21,2.32l16.43,97.56
				c0.12,0.72,0.3,1.43,0.53,2.13l9.8,27.26c0.3,0.89,2.16,5.82,2.75,6.76c5.15,8.31,9.53,15.06,14.07,22.04
				c6.91,10.61,13.31,19.65,19.76,27.07C259.08,621.37,271.79,629.62,288.84,631.17z"/>
			<path class="st6" d="M242.26,615.65c5.61,11.07,12.3,20.45,19.59,28.75c10.43,11.86,22.1,21.49,33.7,30.56
				c5.69,4.45,11.36,8.77,16.86,13.15c33.93,27.03,70.97,35.06,72.45,35.08c35.33,0.3,64.52-15.86,85.68-29.33
				c19.14-12.17,31.64-21.51,37.38-25.88c3.23-2.46,7.77-8.34,12.98-16.09c6.86-10.21,14.87-23.66,22.56-36.92
				c4.56-7.86,9.01-15.63,13.03-22.62c2.67-4.63,5.16-8.91,7.37-12.62c0.54-0.9,1.06-1.78,1.57-2.61c5.88-9.73,9.8-31.82,12.4-55.04
				c3.89-20.04,7.19-39.22,7.73-42.71c0.61-4-0.09-14.75-1.66-30.39c-1.37-13.6-3.4-30.9-5.81-50.69
				c-2.14-17.59-2.9-33.99-3.06-47.19c-0.23-18.74,0.76-31.02,0.76-31.02l-0.06-1.98c2.51-8.52,5.3-16.53,8.09-21.79
				c-0.2-12.99-1.2-25.38-4-30.29c-6.9-12.08-20.7-53.48-25.88-69c-5.18-15.53-36.8-74.75-36.8-74.75s-2.3-25.3-14.38-32.2
				c-12.08-6.9-14.38-18.98-19.55-24.73c-5.18-5.75-35.08-19.55-40.83-26.45c-5.75-6.9-14.38-13.23-42.55-12.08
				c-28.18,1.15-15.53-6.33-45.43-5.75c-29.9,0.58-77.63,5.18-92.58,9.78c-14.95,4.6-18.98,16.68-32.78,23.58
				c-13.8,6.9-39.1,21.28-47.73,31.63c-8.63,10.35-18.98,22.43-23.58,37.38c-4.6,14.95,0.57,18.98-7.48,31.63
				c-8.05,12.65,3.45,36.23,2.3,45.43c-1.15,9.2-12.08,86.25-9.2,101.2c2.88,14.95,2.88,43.7,9.2,52.33
				c4.21,5.74,8.68,18.88,11.02,28.71c3.09,3.6,5.96,8.24,8.51,13.05c2.19,4.15,3.68,8.63,4.46,13.25
				c4.53,27.16,13.16,77.89,19.29,107.67c0.94,1.9,2.87,15.01,12.91,38.9c2.99,7.12,6.8,15.55,11.67,25.55
				c0.9,1.85,1.93,3.65,3.04,5.44c5.14,8.28,12.2,16.38,18.28,28.05C241.91,614.98,242.09,615.3,242.26,615.65z M476,589.77
				c-20.98,55.16-34.52,45.34-43.65,47.04s-13.2-25.72-13.2-25.72l-40.95,3.72c0,0,3.05,30.12-23.01,36.55
				c-26.06,6.43-64.63-93.06-64.63-93.06c20.3-15.9,79.88-28.69,102.19-33.5c34.52-7.44,84.6,0,84.6,0
				C487.17,558.63,476,589.77,476,589.77z M212.75,557.89c-0.79-1.27-2.17-5.06-2.75-6.76l-9.8-27.26c-0.23-0.69-0.41-1.4-0.53-2.13
				l-16.43-97.56l-0.16-0.96l-0.41-2.44l-0.51-3.04c-1.04-4.97-2.91-14.14-5.13-25.76c-8.1-42.51-20.68-117.69-12.98-139.17
				l8.63-41.98c0,0,28.18,0,28.18-6.33c0-0.57-0.03-1.13-0.09-1.66c-0.32-2.87,2.52-5,5.21-3.92c4.02,1.61,8.3,2.52,10.41,0.41
				c4.6-4.6,2.3-4.03,18.4-4.6c16.1-0.58,20.7-1.73,29.33-9.2c8.63-7.48,8.05-4.03,18.98-3.45c10.93,0.58,21.85,6.33,24.15-2.3
				s-0.57-8.05,12.65-8.05s32.78-6.9,43.13-8.05c10.35-1.15,4.6-2.88,16.1-1.73c11.5,1.15,15.53-6.33,21.28-3.45
				c5.75,2.88,16.1,2.88,23.58,2.3c7.48-0.58,35.08-7.48,46-6.33c10.93,1.15,21.28,4.03,24.73,8.63c3.45,4.6,31.63,57.5,36.23,81.65
				c4.6,24.15,35.2,112.68,35.41,111.64c0.46,2.83,0.95,5.94,1.48,9.27c0.47,2.97,0.97,6.09,1.48,9.35
				c4.65,29.65,10.51,69,10.51,79.06c0,16.68-6.9,47.15-13.8,73.03c-3.73,14-21.27,33.72-36.59,48.88
				c-12.98,12.85-24.37,22.42-24.37,22.42l-4.74-19.23l-14.81-60.12c-31.05-11.5-83.38-1.15-118.46,5.18
				c-35.08,6.33-79.35,31.05-79.35,31.05c2.56,9.06,3.5,20.83,3.63,32.38c0.06,4.94-0.04,9.83-0.22,14.46
				c-0.07,1.72-0.14,3.4-0.23,5.04c-0.72,13.71-2.04,24.02-2.04,24.02c-17.05-1.55-29.75-9.8-42.26-24.18
				c-6.45-7.42-12.85-16.46-19.76-27.07C222.28,572.95,217.9,566.19,212.75,557.89z"/>
			<path class="st2" d="M392.76,524.8c-22.31,4.81-81.89,17.6-102.19,33.5c0,0,38.58,99.49,64.63,93.06
				c26.06-6.43,23.01-36.55,23.01-36.55l40.95-3.72c0,0,4.06,27.41,13.2,25.72s22.67,8.12,43.65-47.04c0,0,11.17-31.13,1.35-64.97
				C477.36,524.8,427.28,517.35,392.76,524.8z M397.5,585.37c-20.49,4.21-82.57-23.01-82.57-23.01c4.48-1.28,32.91-5.78,53.8-7.44
				c8.53-0.68,16.03-0.25,19.78,0.08c1.7,0.15,3.37-0.33,4.78-1.28c21.57-14.39,67.14-24.18,67.14-24.18S416.44,581.47,397.5,585.37
				z"/>
			<path class="st2" d="M388.51,554.99c-3.75-0.32-11.25-0.76-19.78-0.08c-20.89,1.67-49.32,6.16-53.8,7.44
				c0,0,62.08,27.22,82.57,23.01c18.94-3.89,62.94-55.83,62.94-55.83s-45.57,9.79-67.14,24.18
				C391.88,554.66,390.21,555.14,388.51,554.99z"/>
		</g>
		<path class="st2" d="M337.94,365.82c0,0,27.62,51.09,7.59,104.94"/>
		<path class="st2" d="M327.84,466.48c0,0-9.53,15.73-6.42,26.14s11.96,10.63,13.51,10.19c3.22-0.92,11.08-3.77,16.17-1.77
			c5.1,1.99,19.72,11.52,33.01,3.1c13.29-8.42,19.95-14.42,24.37-17.28c7.53-4.87,25.7-8.64,21.27-24.15"/>
		<path class="st2" d="M249.11,572.16c0,0-1.77-12.36-3.83-17.96c-2.06-5.59-7.65-10.01-5.3-13.83"/>
		<path class="st2" d="M589.69,328.72c0,0,7.06,66.53,1.77,84.48"/>
		<path class="st2" d="M571.18,784.13c0,0,35.68-76.77-12.89-155.99"/>
	</g>
</g>
</svg>
