<?xml version="1.0" encoding="utf-8"?>
<!-- Generator: Adobe Illustrator 24.0.3, SVG Export Plug-In . SVG Version: 6.00 Build 0)  -->
<svg version="1.1" id="Layer_1" xmlns="http://www.w3.org/2000/svg" xmlns:xlink="http://www.w3.org/1999/xlink" x="0px" y="0px"
	 viewBox="0 0 800 800" style="enable-background:new 0 0 800 800;" xml:space="preserve">
<style type="text/css">
	.st0{clip-path:url(#SVGID_2_);fill:#F6C65D;}
	.st1{clip-path:url(#SVGID_2_);}
	.st2{fill:none;stroke:#55585C;stroke-width:1.7089;stroke-miterlimit:10;}
	.st3{fill:#FFFFFF;}
	.st4{fill:#245486;}
	.st5{fill:#D2956C;}
	.st6{fill:#55585C;}
	.st7{clip-path:url(#SVGID_4_);fill:#E1635D;}
	.st8{clip-path:url(#SVGID_4_);}
	.st9{fill:#806A57;}
	.st10{fill:#F9E3D9;}
	.st11{clip-path:url(#SVGID_4_);fill:#FFFFFF;}
	.st12{clip-path:url(#SVGID_6_);fill:#DDEFFA;}
	.st13{clip-path:url(#SVGID_6_);}
	.st14{fill:#E1635D;}
	.st15{fill:#FAC8AF;}
	.st16{fill:none;}
	.st17{clip-path:url(#SVGID_8_);fill:#488FBA;}
	.st18{clip-path:url(#SVGID_8_);}
	.st19{fill:#B19465;}
	.st20{fill:#FAD4CB;}
	.st21{clip-path:url(#SVGID_10_);fill:#60A675;}
	.st22{clip-path:url(#SVGID_10_);}
	.st23{fill:#E1A27B;}
</style>
<g>
	<defs>
		<rect id="SVGID_1_" x="0.36" y="0.36" width="799.28" height="799.28"/>
	</defs>
	<clipPath id="SVGID_2_">
		<use xlink:href="#SVGID_1_"  style="overflow:visible;"/>
	</clipPath>
	<rect x="0.36" y="0.36" class="st0" width="799.28" height="799.28"/>
	<g class="st1">
		<path class="st2" d="M397.91,752.24c0.17,9.89,0.34,19.77,0.52,29.66"/>
		<g>
			<path class="st3" d="M524.93,799.64h298.77c-6.57-17.4-14.66-38.12-19.26-47.32c-8.66-17.31-37.1-42.04-102.63-46.99
				c-59.41-4.48-155.4-45.55-172.83-53.19C536.35,699.93,530.95,758.29,524.93,799.64z"/>
			<path class="st3" d="M278.64,799.64c-8.28-51.67-39.62-106.31-40.53-122.75c0,0-58.12,42.04-164.46,69.25
				c-65.71,16.81-88.92,38.34-97.36,53.5H278.64z"/>
			<path class="st3" d="M456.07,657.25c-13.95,13.15-28.65,23.49-44.3,27.56c-31.86,8.29-51.53-4.14-67.31-17.5
				c-6.82-5.78-12.92-11.73-18.96-16.25c-6.44-4.83-18.78-17.12-32.53-31.89c3.22,8.82,7.85,19.24,14.41,30.02
				c1.74,2.86,8.75,10.3,18.25,19.83c28.1,28.17,78.01,74.56,78.01,74.56c41.22-31.54,65.37-62.67,79.51-88.76
				c10.68-19.7,15.66-36.5,17.95-48.42C486.87,623.62,471.96,642.26,456.07,657.25z"/>
			<path class="st3" d="M468,799.64c-29.05-29.16-64.36-56.07-64.36-56.07l-75.02,56.07H468z"/>
			<path class="st3" d="M328.62,799.64l75.02-56.07c0,0-49.91-46.39-78.01-74.56c-9.5-9.52-16.51-16.96-18.25-19.83
				c-6.56-10.77-11.18-21.2-14.41-30.02c-3.38-3.64-6.85-7.42-10.34-11.28c-2,5.83-5.05,12.79-9.63,19.42
				c-13.3,19.27-35.51,38.32-34.88,49.59c0.91,16.44,32.25,71.08,40.53,122.75H328.62z"/>
			<path class="st3" d="M468,799.64h56.93c6.01-41.35,11.42-99.71,4.05-147.5c-3.36-21.79-9.38-41.37-19.21-56.13
				c-2.86,3.37-5.75,6.84-8.67,10.37c-2.3,11.92-7.28,28.73-17.95,48.42c-14.14,26.08-38.29,57.22-79.51,88.76
				C403.64,743.57,438.95,770.49,468,799.64z"/>
			<path class="st3" d="M655.02,228.85c-4.9-6.56-10.8-11.25-18.22-13.97c-0.64-1.03-7.23-2.42-8.57-2.98
				c-5.01-2.1-4.41-3.68-9.42-5.78c-2.29-0.96-10.17-7.15-12.92-9.19c0.07-0.21-0.06-0.28-0.3-0.28c-0.19-1.18-0.37-2.33-0.54-3.46
				c7.18,2.49,15.32,5.55,20.73,9.54c5.86,4.33,17.37-0.13,13.4-4.96c-9.45-11.51-21.82-19.28-34.89-25.86c0-0.3,0-0.61,0-0.92
				c0,0,0-0.01,0-0.01c3.34-8.17,1.81-13.25-2.06-18.39c-0.37-1.18-0.79-2.34-1.31-3.46c-3.02-6.45-8.43-9.79-14.62-11.72
				c-0.84-1.88-2.54-3.37-5.14-3.54c-6.16-0.39-12.32-0.78-18.49-1.17c-2.67-0.17-6.43,0.07-9.02-0.66
				c-3.12-0.88-4.29-2.78-6.82-4.27c-4.25-2.51-10.57,1.25-16.21,5.38c-5.46,4-13.21,1.58-15.65-4.73
				c-2.6-6.72-4.6-14.33-7.91-18.94c-6.02-8.39-9.74-17.7-14.91-26.53c-3.87-6.6-9.3-12.13-17.15-13.33
				c-6.17-0.94-12.03,1.87-17.88,3.47c-1.42-0.57-2.84-1.02-4.25-1.39c-0.7-2.99-3-5.44-5.98-6.27c-3.98-1.11-7.33,0.36-9.91,2.91
				c-8.22-4.74-18.41-8.39-26.68-13.55c-11.05-6.9-30.76-14.31-43.52-16.94c-27.47-5.66-45.28-8.04-73.08-5.04
				c-0.96-0.26-2.06-0.25-3.3,0.19c-20.98,7.47-30.2,6.08-51.78,9.22c-21.46,3.12-44.47,15.5-58.76,30.63
				c-7.84,8.31-28.85,15.81-35.63,25c-2.24,3.04,4.24,3.69,4.63,7.47c0.44,4.26,5.33,6.95,4.12,10.91
				c-1.03,3.35-6.5,6.96-8.41,10.23c-2.1,3.59-3.47,7.84-3.62,12.03c-0.3,7.99,3.45,15.05,9.77,19.54
				c-1.16,6.67-10.09,11.49-14.95,15.17c-5.46,4.13-10.3,8.41-14.33,13.99c-1.94,2.69-0.38,6.59,2.15,8.18
				c5.24,3.32,9.25-5.51,14.29-8.12c1.34-0.69,19.06-13.81,23.87-16.53c-4.22,5.05-16.21,24.07-19.82,29.58
				c-0.21,0.32-0.36,0.64-0.5,0.96c-0.54,0.47-1.02,1.06-1.41,1.84c-2.63,5.29,1.92,10.2-2.75,13.52
				c-4.96,3.52-18.89,5.33-22.06,10.61c-2.27,3.78,0.61,9.19,5.16,9c3.13-0.13,6.2-0.48,9.22-1.09
				c-5.41,9.31-12.46,17.54-20.97,24.57c-1.47,1.22-2.05,2.65-2.01,4.04c-5.27,4.96-10.73,11.11-9.09,16.59
				c2.84,9.51,14.87,0.19,21.38,3.6c-1.87,5.42-4.44,16.7-6.73,21.42c-2.51,5.16-2.77,21.85-0.61,26.93
				c2.27,5.33,18.1-2.04,18.97-2.45c0.01,0.27-4.1,10.28-4.05,10.53c-2.13,4.36-1.04,10.52,4.98,12.32
				c3.15,0.95,7.18-7.3,10.09-5.72c0.22,0.12,0.53,8.99,0.64,8.97c-0.03,0.2-0.04,0.48-0.05,0.85c-0.02,1.87,0.77,4.15,1.69,5.73
				c3.57,6.11,8.76,6.23,13.97,4.59c-2.07,4.09-4.84,9.75-8.56,17.62c-14.9,31.48-4.32,29.27,10.67,16.1
				c13.02-11.44,18.71-9.85,18.71-9.85l-7.5,24.38c0.63,29.38,17.5-7.5,17.5-1.25s13.13,0.63,13.13,0.63s-12.45,49.14-2.5,43.76
				c8.22-4.45,12.13-19.68,14.21-36.76c3.04-24.88,2.2-53.69,5.17-58.88c5-8.75,1.25-29.38,1.25-43.76
				c0-14.38,6.25-41.25,13.75-52.51c7.5-11.25,3.13-16.88,5.63-27.5c2.5-10.63,14.38-32.5,23.75-34.38
				c9.38-1.88,19.38-17.5,32.5-20.63c13.13-3.13,8.13-6.88,15.63-12.5c7.5-5.63,67.51-15.63,73.76-18.75
				c6.25-3.13,53.13,14.38,61.88,13.13c8.75-1.25,5.63-4.38,5.63-4.38c37.11,12.86,59.1,47.96,70.92,74.72
				c3.75,21.2,4.64,39.25,8.68,45.33c0.32,0.49,0.67,0.9,1.03,1.22c11.88,10.63,23.75,27.5,19.38,56.26
				c-4.38,28.75-6.25,38.13,1.88,54.38l-0.63,26.25c0,0,1.01,12.3,1.28,30.14c0.93-0.27,1.85-0.82,2.67-1.81
				c3.5-4.22,5.05-8.96,7.88-13.42c-0.14-2.24,0.84-3.12,2.95-2.63c2.22-0.1,4.45-0.11,6.67-0.02c2.12-0.19,4.28-0.4,6.02-1.69
				c3.9-2.88,3.58-8.25,3.74-12.54c0.1-2.9,0.14-5.8,0.14-8.69c2.87,0.94,9.74,2,10.97,1.7c3.95-0.95,6.83-4.19,8.15-7.9
				c1.64-4.6,0.37-9.13-1.25-13.53c-0.73-1.97-1.48-3.94-2.24-5.9c3.62-6.13,6.97-13.24,8.9-20.51c0.79,2.92,1.71,5.75,2.96,8.35
				c2.66,5.54,11.12,2.6,11.15-3.02c0.07-13.75,0.76-27.45,2.07-41.13c7.32-5.17,8.88-11.34-0.38-17.85
				c0.85-1.24,8.21-0.7,8.49-2.46c1.07-6.61-7.11-14.05-12.51-16.56c0,0-0.67-3.99-0.67-3.99c8.04-2.23,3-10.28,4.02-13.41
				c7.58,4.45,18.82,21.6,20.78,31.06c1.35,6.52,6.58,2.96,6.03-3.8c-1.78-22.14-13.18-35.3-20.14-62.3
				c-0.98-3.79-5.4-5.47-8.37-7.7c8.16,1.62,16.27,3.38,23.88,6.87C651.6,239.22,659.01,234.19,655.02,228.85z"/>
			<path class="st3" d="M554.95,450.65c0-0.24-0.01-0.48-0.01-0.72c-0.28-17.84-1.28-30.14-1.28-30.14l0.63-26.25
				c-8.13-16.25-6.25-25.63-1.88-54.38c4.38-28.75-7.5-45.63-19.38-56.26c-0.37-0.33-0.71-0.74-1.03-1.22
				c-4.04-6.07-4.94-24.12-8.68-45.33c-11.82-26.76-33.81-61.86-70.92-74.72c0,0,3.13,3.13-5.63,4.38
				c-8.75,1.25-55.63-16.25-61.88-13.13c-6.25,3.13-66.26,13.13-73.76,18.75c-7.5,5.63-2.5,9.38-15.63,12.5
				c-13.13,3.13-23.13,18.75-32.5,20.63c-9.38,1.88-21.25,23.75-23.75,34.38c-2.5,10.63,1.88,16.25-5.63,27.5
				c-7.5,11.25-13.75,38.13-13.75,52.51c0,14.38,3.75,35-1.25,43.76c-2.96,5.19-2.13,34-5.17,58.88c0.06,0.2,0.11,0.38,0.17,0.5
				c3.75,9.38,8.75,38.75,6.88,48.13c-1.88,9.38,7.5,10.63,6.88,13.13c-0.62,2.5,2.5,45.63,1.88,55.63
				c-0.37,5.99,27.03,39.53,53.38,68.71c3.49,3.86,6.96,7.65,10.34,11.28c13.75,14.77,26.09,27.06,32.53,31.89
				c6.04,4.53,12.13,10.48,18.96,16.25c15.78,13.36,35.45,25.79,67.31,17.5c15.66-4.08,30.36-14.41,44.3-27.56
				c15.89-14.99,30.8-33.63,45.03-50.86c2.92-3.53,5.81-7.01,8.67-10.37c6.63-7.81,13.13-15.06,19.51-21.21
				C552.59,552.33,555.5,489.06,554.95,450.65z"/>
		</g>
		<g>
			<path class="st4" d="M525.18,799.64h295.03c-5.96-15.6-12.55-32.18-16.53-40.14c-8.66-17.31-37.1-42.04-102.63-46.99
				c-59.41-4.48-155.4-45.55-172.83-53.19C535.17,704.41,530.75,758.9,525.18,799.64z"/>
			<path class="st4" d="M273.16,799.64c-9.82-49.46-38.36-99.89-39.23-115.57c0,0-58.12,42.04-164.46,69.25
				c-55.9,14.3-81.04,32.01-92.5,46.32H273.16z"/>
			<path class="st5" d="M451.89,663.95c-13.95,13.15-28.65,23.49-44.3,27.56c-31.86,8.29-51.53-4.14-67.31-17.5
				c-6.82-5.78-12.92-11.73-18.96-16.25c-6.44-4.83-18.78-17.12-32.53-31.89c3.22,8.82,7.85,19.24,14.41,30.02
				c1.74,2.86,8.75,10.3,18.25,19.83c28.1,28.17,78.01,74.56,78.01,74.56c41.22-31.54,65.37-62.67,79.51-88.76
				c10.68-19.7,15.66-36.5,17.95-48.42C482.69,630.32,467.78,648.96,451.89,663.95z"/>
			<path class="st4" d="M451.08,799.64c-25.7-24-51.62-43.77-51.62-43.77l-58.55,43.77H451.08z"/>
			<path class="st4" d="M334.04,799.64l65.41-48.89c0,0-49.91-46.39-78.01-74.56c-9.5-9.52-16.51-16.96-18.25-19.83
				c-6.56-10.77-11.18-21.2-14.41-30.02c-3.38-3.64-6.85-7.42-10.34-11.28c-2,5.83-5.05,12.79-9.63,19.42
				c-13.3,19.27-35.51,38.32-34.88,49.59c0.87,15.68,29.41,66.11,39.23,115.57H334.04z"/>
			<path class="st4" d="M521.76,799.64c5.57-40.74,9.99-95.23,3.04-140.31c-3.36-21.79-9.38-41.37-19.21-56.13
				c-2.86,3.37-5.75,6.84-8.67,10.37c-2.3,11.92-7.28,28.73-17.95,48.42c-14.14,26.08-38.29,57.22-79.51,88.76
				c0,0,29.71,22.65,57.05,48.89H521.76z"/>
			<path class="st5" d="M550.77,452.7c0-0.24-0.01-0.48-0.01-0.72c-0.28-17.84-1.28-30.14-1.28-30.14l0.63-26.25
				c-8.13-16.25-6.25-25.63-1.88-54.38c4.38-28.75-7.5-45.63-19.38-56.26c-0.37-0.33-0.71-0.74-1.03-1.22
				c-4.04-6.07-4.94-24.12-8.68-45.33c-11.82-26.76-33.81-61.86-70.92-74.72c0,0,3.13,3.13-5.63,4.38
				c-8.75,1.25-55.63-16.25-61.88-13.13c-6.25,3.13-66.26,13.13-73.76,18.75c-7.5,5.63-2.5,9.38-15.63,12.5
				c-13.13,3.13-23.13,18.75-32.5,20.63c-9.38,1.88-21.25,23.75-23.75,34.38c-2.5,10.63,1.88,16.25-5.63,27.5
				c-7.5,11.25-13.75,38.13-13.75,52.51c0,14.38,3.75,35-1.25,43.76c-2.96,5.19-2.13,34-5.17,58.88c0.06,0.2,0.11,0.38,0.17,0.5
				c3.75,9.38,8.75,38.75,6.88,48.13c-1.88,9.38,7.5,10.63,6.88,13.13c-0.62,2.5,3.3,45.58,4.25,55.55
				c1.16,12.2,24.66,39.61,51.01,68.79c3.49,3.86,6.96,7.65,10.34,11.28c13.75,14.77,26.09,27.06,32.53,31.89
				c6.04,4.53,12.13,10.48,18.96,16.25c15.78,13.36,35.45,25.79,67.31,17.5c15.66-4.08,30.36-14.41,44.3-27.56
				c15.89-14.99,30.8-33.63,45.03-50.86c2.92-3.53,5.81-7.01,8.67-10.37c6.63-7.81,13.13-15.06,19.51-21.21
				C548.41,554.39,551.31,491.11,550.77,452.7z"/>
		</g>
		<g>
			<path class="st2" d="M823.71,799.64c-6.57-17.4-14.66-38.12-19.26-47.32c-8.66-17.31-37.1-42.04-102.63-46.99
				c-59.41-4.48-155.4-45.55-172.83-53.19c7.37,47.79,1.96,106.14-4.05,147.5"/>
			<path class="st2" d="M278.64,799.64c-8.28-51.67-39.62-106.31-40.53-122.75c0,0-58.12,42.04-164.46,69.25
				c-65.71,16.81-88.92,38.34-97.36,53.5"/>
			<path class="st2" d="M456.07,657.25c-13.95,13.15-28.65,23.49-44.3,27.56c-31.86,8.29-51.53-4.14-67.31-17.5
				c-6.82-5.78-12.92-11.73-18.96-16.25c-6.44-4.83-18.78-17.12-32.53-31.89c3.22,8.82,7.85,19.24,14.41,30.02
				c1.74,2.86,8.75,10.3,18.25,19.83c28.1,28.17,78.01,74.56,78.01,74.56c41.22-31.54,65.37-62.67,79.51-88.76
				c10.68-19.7,15.66-36.5,17.95-48.42C486.87,623.62,471.96,642.26,456.07,657.25z"/>
			<path class="st2" d="M468,799.64c-29.05-29.16-64.36-56.07-64.36-56.07l-75.02,56.07"/>
			<path class="st2" d="M328.62,799.64l75.02-56.07c0,0-49.91-46.39-78.01-74.56c-9.5-9.52-16.51-16.96-18.25-19.83
				c-6.56-10.77-11.18-21.2-14.41-30.02c-3.38-3.64-6.85-7.42-10.34-11.28c-2,5.83-5.05,12.79-9.63,19.42
				c-13.3,19.27-35.51,38.32-34.88,49.59c0.91,16.44,32.25,71.08,40.53,122.75"/>
			<path class="st2" d="M524.93,799.64c6.01-41.35,11.42-99.71,4.05-147.5c-3.36-21.79-9.38-41.37-19.21-56.13
				c-2.86,3.37-5.75,6.84-8.67,10.37c-2.3,11.92-7.28,28.73-17.95,48.42c-14.14,26.08-38.29,57.22-79.51,88.76
				c0,0,35.31,26.92,64.36,56.07"/>
			<path class="st6" d="M655.02,228.85c-4.9-6.56-10.8-11.25-18.22-13.97c-0.64-1.03-7.23-2.42-8.57-2.98
				c-5.01-2.1-4.41-3.68-9.42-5.78c-2.29-0.96-10.17-7.15-12.92-9.19c0.07-0.21-0.06-0.28-0.3-0.28c-0.19-1.18-0.37-2.33-0.54-3.46
				c7.18,2.49,15.32,5.55,20.73,9.54c5.86,4.33,17.37-0.13,13.4-4.96c-9.45-11.51-21.82-19.28-34.89-25.86c0-0.3,0-0.61,0-0.92
				c0,0,0-0.01,0-0.01c3.34-8.17,1.81-13.25-2.06-18.39c-0.37-1.18-0.79-2.34-1.31-3.46c-3.02-6.45-8.43-9.79-14.62-11.72
				c-0.84-1.88-2.54-3.37-5.14-3.54c-6.16-0.39-12.32-0.78-18.49-1.17c-2.67-0.17-6.43,0.07-9.02-0.66
				c-3.12-0.88-4.29-2.78-6.82-4.27c-4.25-2.51-10.57,1.25-16.21,5.38c-5.46,4-13.21,1.58-15.65-4.73
				c-2.6-6.72-4.6-14.33-7.91-18.94c-6.02-8.39-9.74-17.7-14.91-26.53c-3.87-6.6-9.3-12.13-17.15-13.33
				c-6.17-0.94-12.03,1.87-17.88,3.47c-1.42-0.57-2.84-1.02-4.25-1.39c-0.7-2.99-3-5.44-5.98-6.27c-3.98-1.11-7.33,0.36-9.91,2.91
				c-8.22-4.74-18.41-8.39-26.68-13.55c-11.05-6.9-30.76-14.31-43.52-16.94c-27.47-5.66-45.28-8.04-73.08-5.04
				c-0.96-0.26-2.06-0.25-3.3,0.19c-20.98,7.47-30.2,6.08-51.78,9.22c-21.46,3.12-44.47,15.5-58.76,30.63
				c-7.84,8.31-28.85,15.81-35.63,25c-2.24,3.04,4.24,3.69,4.63,7.47c0.44,4.26,5.33,6.95,4.12,10.91
				c-1.03,3.35-6.5,6.96-8.41,10.23c-2.1,3.59-3.47,7.84-3.62,12.03c-0.3,7.99,3.45,15.05,9.77,19.54
				c-1.16,6.67-10.09,11.49-14.95,15.17c-5.46,4.13-10.3,8.41-14.33,13.99c-1.94,2.69-0.38,6.59,2.15,8.18
				c5.24,3.32,9.25-5.51,14.29-8.12c1.34-0.69,19.06-13.81,23.87-16.53c-4.22,5.05-16.21,24.07-19.82,29.58
				c-0.21,0.32-0.36,0.64-0.5,0.96c-0.54,0.47-1.02,1.06-1.41,1.84c-2.63,5.29,1.92,10.2-2.75,13.52
				c-4.96,3.52-18.89,5.33-22.06,10.61c-2.27,3.78,0.61,9.19,5.16,9c3.13-0.13,6.2-0.48,9.22-1.09
				c-5.41,9.31-12.46,17.54-20.97,24.57c-1.47,1.22-2.05,2.65-2.01,4.04c-5.27,4.96-10.73,11.11-9.09,16.59
				c2.84,9.51,14.87,0.19,21.38,3.6c-1.87,5.42-4.44,16.7-6.73,21.42c-2.51,5.16-2.77,21.85-0.61,26.93
				c2.27,5.33,18.1-2.04,18.97-2.45c0.01,0.27-4.1,10.28-4.05,10.53c-2.13,4.36-1.04,10.52,4.98,12.32
				c3.15,0.95,7.18-7.3,10.09-5.72c0.22,0.12,0.53,8.99,0.64,8.97c-0.03,0.2-0.04,0.48-0.05,0.85c-0.02,1.87,0.77,4.15,1.69,5.73
				c3.57,6.11,8.76,6.23,13.97,4.59c-2.07,4.09-4.84,9.75-8.56,17.62c-14.9,31.48-4.32,29.27,10.67,16.1
				c13.02-11.44,18.71-9.85,18.71-9.85l-7.5,24.38c0.63,29.38,17.5-7.5,17.5-1.25s13.13,0.63,13.13,0.63s-12.45,49.14-2.5,43.76
				c8.22-4.45,12.13-19.68,14.21-36.76c3.04-24.88,2.2-53.69,5.17-58.88c5-8.75,1.25-29.38,1.25-43.76
				c0-14.38,6.25-41.25,13.75-52.51c7.5-11.25,3.13-16.88,5.63-27.5c2.5-10.63,14.38-32.5,23.75-34.38
				c9.38-1.88,19.38-17.5,32.5-20.63c13.13-3.13,8.13-6.88,15.63-12.5c7.5-5.63,67.51-15.63,73.76-18.75
				c6.25-3.13,53.13,14.38,61.88,13.13c8.75-1.25,5.63-4.38,5.63-4.38c37.11,12.86,59.1,47.96,70.92,74.72
				c3.75,21.2,4.64,39.25,8.68,45.33c0.32,0.49,0.67,0.9,1.03,1.22c11.88,10.63,23.75,27.5,19.38,56.26
				c-4.38,28.75-6.25,38.13,1.88,54.38l-0.63,26.25c0,0,1.01,12.3,1.28,30.14c0.93-0.27,1.85-0.82,2.67-1.81
				c3.5-4.22,5.05-8.96,7.88-13.42c-0.14-2.24,0.84-3.12,2.95-2.63c2.22-0.1,4.45-0.11,6.67-0.02c2.12-0.19,4.28-0.4,6.02-1.69
				c3.9-2.88,3.58-8.25,3.74-12.54c0.1-2.9,0.14-5.8,0.14-8.69c2.87,0.94,9.74,2,10.97,1.7c3.95-0.95,6.83-4.19,8.15-7.9
				c1.64-4.6,0.37-9.13-1.25-13.53c-0.73-1.97-1.48-3.94-2.24-5.9c3.62-6.13,6.97-13.24,8.9-20.51c0.79,2.92,1.71,5.75,2.96,8.35
				c2.66,5.54,11.12,2.6,11.15-3.02c0.07-13.75,0.76-27.45,2.07-41.13c7.32-5.17,8.88-11.34-0.38-17.85
				c0.85-1.24,8.21-0.7,8.49-2.46c1.07-6.61-7.11-14.05-12.51-16.56c0,0-0.67-3.99-0.67-3.99c8.04-2.23,3-10.28,4.02-13.41
				c7.58,4.45,18.82,21.6,20.78,31.06c1.35,6.52,6.58,2.96,6.03-3.8c-1.78-22.14-13.18-35.3-20.14-62.3
				c-0.98-3.79-5.4-5.47-8.37-7.7c8.16,1.62,16.27,3.38,23.88,6.87C651.6,239.22,659.01,234.19,655.02,228.85z"/>
			<path class="st2" d="M554.95,450.65c0-0.24-0.01-0.48-0.01-0.72c-0.28-17.84-1.28-30.14-1.28-30.14l0.63-26.25
				c-8.13-16.25-6.25-25.63-1.88-54.38c4.38-28.75-7.5-45.63-19.38-56.26c-0.37-0.33-0.71-0.74-1.03-1.22
				c-4.04-6.07-4.94-24.12-8.68-45.33c-11.82-26.76-33.81-61.86-70.92-74.72c0,0,3.13,3.13-5.63,4.38
				c-8.75,1.25-55.63-16.25-61.88-13.13c-6.25,3.13-66.26,13.13-73.76,18.75c-7.5,5.63-2.5,9.38-15.63,12.5
				c-13.13,3.13-23.13,18.75-32.5,20.63c-9.38,1.88-21.25,23.75-23.75,34.38c-2.5,10.63,1.88,16.25-5.63,27.5
				c-7.5,11.25-13.75,38.13-13.75,52.51c0,14.38,3.75,35-1.25,43.76c-2.96,5.19-2.13,34-5.17,58.88c0.06,0.2,0.11,0.38,0.17,0.5
				c3.75,9.38,8.75,38.75,6.88,48.13c-1.88,9.38,7.5,10.63,6.88,13.13c-0.62,2.5-1.59,46.23,1.88,55.63
				c4.59,12.44,27.03,39.53,53.38,68.71c3.49,3.86,6.96,7.65,10.34,11.28c13.75,14.77,26.09,27.06,32.53,31.89
				c6.04,4.53,12.13,10.48,18.96,16.25c15.78,13.36,35.45,25.79,67.31,17.5c15.66-4.08,30.36-14.41,44.3-27.56
				c15.89-14.99,30.8-33.63,45.03-50.86c2.92-3.53,5.81-7.01,8.67-10.37c6.63-7.81,13.13-15.06,19.51-21.21
				C552.59,552.33,555.5,489.06,554.95,450.65z"/>
		</g>
		<path class="st2" d="M337.2,453.63c0,0-19.74,15.34-3.04,30.36c1.47,1.32,3.66,1.51,5.62,1.22c4.26-0.62,13.06-1.42,20.8,1.02
			c10.68,3.37,14.47,14.73,30.4,13.06c12.63-1.33,23.99-19.17,36.33-14.93c10.99,3.78,22.67,0.29,19.42-17.64"/>
		<path class="st3" d="M438.07,549.19c-13.08,1.74-28.5,10.21-49.99,9.3c-35.03-1.47-63.02-7.62-78.82-11.93
			c10.22,10.28,49.04,47.93,72.43,50.87c31.43,3.96,68.46-21.17,81.09-52.61C453.92,545.99,442.78,548.56,438.07,549.19z"/>
		<path class="st2" d="M438.07,546.57c-13.08,1.74-28.5,10.21-49.99,9.3c-35.03-1.47-63.02-7.62-78.82-11.93
			c10.22,10.28,49.04,47.93,72.43,50.87c31.43,3.96,68.46-21.17,81.09-52.61C453.92,543.37,442.78,545.94,438.07,546.57z"/>
		<line class="st2" x1="463.65" y1="542.21" x2="479.05" y2="540.76"/>
		<path class="st2" d="M310.13,543.94c0,0-7.5-3.19-12.44-2.9"/>
		<path class="st2" d="M273.57,521.58c0,0-6.1,23.25,5.81,28.19"/>
		<path class="st2" d="M258.16,523.61c0,0-0.58,5.81,3.2,6.98"/>
		<path class="st2" d="M501.43,518.38c0,0,6.1,22.38-1.16,33.42"/>
		<path class="st2" d="M522.65,517.8c0,0,6.39,4.94,5.23,14.82"/>
		<line class="st2" x1="426.14" y1="681.65" x2="408.7" y2="732.31"/>
		<path class="st2" d="M224.33,415.06c0,0,6.64,44.02,1.66,56.47"/>
		<path class="st2" d="M404.55,351.11c0,0-2.49,56.47,4.15,86.37"/>
		<circle class="st6" cx="302.41" cy="381.7" r="8.68"/>
		<circle class="st6" cx="473.46" cy="377.6" r="8.68"/>
	</g>
</g>
</svg>
