<?xml version="1.0" encoding="UTF-8"?>
<svg id="Layer_1" xmlns="http://www.w3.org/2000/svg" xmlns:xlink="http://www.w3.org/1999/xlink" version="1.1" viewBox="0 0 841.89 467.72">
  <!-- Generator: Adobe Illustrator 29.0.0, SVG Export Plug-In . SVG Version: 2.1.0 Build 186)  -->
  <defs>
    <style>
      .st0, .st1 {
        fill: none;
      }

      .st2 {
        fill: #ea9923;
      }

      .st1 {
        stroke: #757779;
        stroke-miterlimit: 10;
        stroke-width: .72px;
      }

      .st3 {
        fill: #ddddde;
      }

      .st4 {
        fill: #fff;
      }

      .st5 {
        fill: #1c1d1f;
      }

      .st6 {
        fill: #ecb591;
      }

      .st7 {
        clip-path: url(#clippath);
      }

      .st8 {
        fill: #757779;
      }
    </style>
    <clipPath id="clippath">
      <rect class="st0" y="0" width="841.89" height="467.46"/>
    </clipPath>
  </defs>
  <g class="st7">
    <rect class="st2" y="0" width="841.89" height="467.46"/>
    <g>
      <path class="st4" d="M450.83,511.27c1.52-4.35,3.3-8.62,5.13-12.78,9.55-21.76,20.72-44.04,26.85-66.82-7.57,7.81-12.84,17.96-21.72,24.26-3.93,2.78-8.4,4.69-12.86,6.5-7.67,3.11-15.81,6.07-24.02,5.04-4.89-.61-9.48-2.6-14-4.58-9.53-4.16-19.28-8.47-26.81-15.65-1.27-1.22-2.46-2.51-3.61-3.84,4.86,22.85,10.65,45.49,17.31,67.88h53.73,0Z"/>
      <path class="st4" d="M248.93,511.27c2.88-11.92,4.86-24.18,6.87-36.19,2.83-16.88,7.61-44.38,12.54-73.17-32.7,14.07-64.97,30.57-86.72,58.31-8.57,10.93-15.21,23.32-20.05,36.33-1.78,4.79-3.36,9.73-4.92,14.72h92.28Z"/>
      <path class="st4" d="M568.63,511.27h143.55c1.34-5.27,2.88-11.04,5.13-17.93,1.11-3.41,2.19-7,1.52-10.52-.66-3.48-12.32-39.12-14.61-41.82-33.38-39.22-62.95-40.74-110.21-61.19-14.85-6.43-30.6-12.94-46.43-15.23-1.2,7.64-2.35,15.28-2.54,23.01-.37,14.99,2.88,29.81,6.11,44.45,5.83,26.41,11.66,52.82,17.48,79.23h0Z"/>
      <path class="st4" d="M486.17,384.2c-.24-1.42-.51-2.83-.81-4.24-2.8-13.31-7.9-26.31-7.53-39.88.06-2.15.26-4.28.57-6.38-1.25,1.12-2.51,2.22-3.77,3.32-4.14,3.61-8.28,7.23-12.41,10.84-3.95,3.45-8.15,6.58-12.58,9.39-23.32,14.81-46.74,0-49.75-1.59-13.56-7.15-25.97-16.45-36.72-27.38,1.4,18.08,3.36,36.11,5.87,54.06,2.87,20.47,6.46,40.83,10.76,61.04,1.15,1.33,2.34,2.63,3.61,3.84,7.52,7.19,17.27,11.49,26.81,15.65,4.52,1.97,9.11,3.97,14,4.58,8.21,1.03,16.35-1.93,24.02-5.04,4.46-1.81,8.93-3.71,12.86-6.5,8.88-6.3,14.15-16.45,21.72-24.26,4.19-15.6,6.03-31.42,3.36-47.47v.02Z"/>
      <path class="st4" d="M397.11,511.27c-6.66-22.39-12.45-45.03-17.31-67.88-4.3-20.21-7.89-40.58-10.76-61.04-2.52-17.96-4.48-35.99-5.87-54.06-3.29-3.34-6.43-6.84-9.39-10.47-7.77-9.52-20.76-30.66-22-42.2-4.4-41.05.6-84.55,9.05-124.96,3.91-18.72,8.55-38.09,20.62-52.93,9.27-11.72,23.61-18.63,38.31-21.73,14.71-3.1,29.91-2.71,44.91-1.83,2.1.12,4.21.26,6.3.51,1.7.21,3.39.49,5.05.92,4.39,1.13,4.49,4.59,6.14,7.77.64,1.22,1.5,2.41,2.94,3.4,13,8.96,28.56,19.73,32.96,34.9,5.46,11.98,5.92,25.13,11.81,37.51,1.92,4.04,1.43,5.78,3.26,9.86,3.12,6.95,6.28,16.65,5.98,24.26-.43,10.79-.85,21.58-1.28,32.36.49,1.63-1.06,14.31.28,13.92,1.25-.36,6.46-14.38,7.43-15.3,2.19-2.1,3.55-4.9,3.55-4.9,0,0,1.15,14.71-4.76,21.05-1.18,1.27-3.88,3.41-6.38,5.2.54-.07,1.1-.12,1.67-.12,5.23,0,9.47,3.1,9.47,6.92s-4.24,6.92-9.47,6.92c-1.14,0-2.22-.15-3.23-.42-.67,9.28-1.99,18.48-5.34,27.12-3.55,9.15-9.25,17.27-14.9,25.3-1.5,3.65-3.51,6.93-5.82,9.97-3.46,4.55-7.62,8.56-11.92,12.4-.31,2.1-.51,4.22-.57,6.38-.37,13.57,4.73,26.57,7.53,39.88.3,1.41.58,2.82.81,4.24,2.67,16.05.83,31.88-3.36,47.47-6.13,22.78-17.3,45.06-26.85,66.82-1.83,4.16-3.6,8.43-5.13,12.78h117.8c-5.83-26.41-11.66-52.82-17.48-79.23-3.23-14.64-6.48-29.46-6.11-44.45.19-7.72,1.34-15.37,2.54-23.01.65-4.13,1.31-8.26,1.85-12.4,2.29-17.74,2.21-35.69,1.85-53.57-1.32-66.5-5.4-137.93-34.79-197.6-8.11-16.46-19.72-36.84-35.89-39.15.36-.57.68-9.1-1.48-11.92-2.16-2.83-7-3.84-9.19-1.03-.92-8.36-8.16-14.48-15.75-18.11-25.57-12.25-52.59-2.6-65.23,2.6-7.39,3.05-14.04,7.65-20.29,12.64-19.54,15.63-35.67,35.49-46.94,57.83-5.92,11.73-10.5,24.1-14.38,36.65-14.94,48.42-19.28,99.11-21.33,149.17-.43,10.51-9.27,63.24-17.67,112.22-4.94,28.79-9.72,56.29-12.54,73.17-2.01,12.01-3.99,24.27-6.87,36.19h148.18v-.02Z"/>
      <path class="st4" d="M517.01,246.46c-.16,4.14-.33,8.31-.63,12.46,1.01.27,2.1.42,3.23.42,5.23,0,9.47-3.1,9.47-6.92s-4.24-6.92-9.47-6.92c-.57,0-1.12.05-1.67.12-.31.22-.62.44-.92.65v.19h-.01Z"/>
      <path class="st4" d="M517.94,245.62c2.5-1.79,5.2-3.93,6.38-5.2,5.91-6.35,4.76-21.05,4.76-21.05,0,0-1.35,2.8-3.55,4.9-.96.92-6.18,14.94-7.43,15.3-1.34.39.21-12.29-.28-13.92-.27,6.7-.53,13.41-.8,20.11.29-.06.6-.1.9-.14h.02Z"/>
      <path class="st4" d="M517.02,246.27c.3-.21.61-.43.92-.65-.31.04-.61.08-.9.14,0,.17-.01.34-.02.51h0Z"/>
      <path class="st4" d="M513.14,169.02c-1.83-4.08-1.34-5.82-3.26-9.86-5.89-12.38-6.35-25.53-11.81-37.51-4.41-15.17-19.96-25.94-32.96-34.9-1.44-.99-2.3-2.18-2.94-3.4-1.65-3.18-1.75-6.64-6.14-7.77-1.66-.43-3.35-.71-5.05-.92-2.09-.25-4.2-.39-6.3-.51-15-.87-30.21-1.27-44.91,1.83-14.71,3.1-29.04,10.01-38.31,21.73-12.07,14.83-16.71,34.21-20.62,52.93-8.45,40.41-13.61,83.93-9.05,124.96,1.44,12.99,14.23,32.68,22,42.2,2.97,3.63,6.1,7.13,9.39,10.47,10.75,10.93,23.16,20.23,36.72,27.38,3.01,1.58,26.43,16.4,49.75,1.59,4.43-2.81,8.63-5.94,12.58-9.39,4.14-3.61,8.28-7.23,12.41-10.84,1.26-1.1,2.52-2.2,3.77-3.32,4.3-3.84,8.46-7.85,11.92-12.4,2.31-3.04,4.31-6.32,5.82-9.97,5.64-8.03,11.34-16.15,14.9-25.3,3.36-8.63,4.67-17.84,5.34-27.12.3-4.15.47-8.32.63-12.46v-.19l.03-.51c.27-6.7.53-13.41.8-20.11.43-10.79.85-21.58,1.28-32.36.3-7.61-2.85-17.31-5.98-24.26h-.01Z"/>
    </g>
    <g>
      <path class="st3" d="M448.9,511.27c1.49-4.2,3.21-8.33,4.97-12.35,9.55-21.76,20.72-44.04,26.85-66.82-7.57,7.81-12.84,17.96-21.72,24.26-3.93,2.78-8.4,4.69-12.86,6.5-7.67,3.11-15.81,6.07-24.02,5.04-4.89-.61-9.48-2.6-14-4.58-9.53-4.16-19.28-8.47-26.81-15.65-1.27-1.22-2.46-2.51-3.61-3.84,4.83,22.7,10.57,45.2,17.18,67.44h54.02Z"/>
      <path class="st3" d="M247.41,511.27c2.57-11.15,4.42-22.56,6.3-33.76,2.83-16.88,7.61-44.38,12.54-73.17-32.7,14.07-64.97,30.57-86.72,58.31-8.57,10.93-15.21,23.32-20.05,36.33-1.49,4.01-2.84,8.12-4.15,12.29h92.08Z"/>
      <path class="st3" d="M566,511.27h144.71c1.2-4.61,2.6-9.65,4.5-15.49,1.11-3.41,2.19-7,1.52-10.52-.66-3.48-12.32-39.12-14.61-41.82-33.38-39.22-62.95-40.74-110.21-61.19-14.85-6.43-30.6-12.94-46.43-15.23-1.2,7.64-2.35,15.28-2.54,23.01-.37,14.99,2.88,29.81,6.11,44.45,5.65,25.6,11.3,51.2,16.95,76.8h0Z"/>
      <path class="st6" d="M486.08,384.63c-.24-1.42-.51-2.83-.81-4.24-2.8-13.31-7.9-26.31-7.53-39.88.06-2.15.26-4.28.57-6.38-1.25,1.12-2.51,2.22-3.77,3.32-4.14,3.61-8.28,7.23-12.41,10.84-3.95,3.45-8.15,6.58-12.58,9.39-23.32,14.81-46.74,0-49.75-1.59-13.56-7.15-25.97-16.45-36.72-27.38,1.4,18.08,3.36,36.11,5.87,54.06,2.87,20.47,6.46,40.83,10.76,61.04,1.15,1.33,2.34,2.63,3.61,3.84,7.52,7.19,17.27,11.49,26.81,15.65,4.52,1.97,9.11,3.97,14,4.58,8.21,1.03,16.35-1.93,24.02-5.04,4.46-1.81,8.93-3.71,12.86-6.5,8.88-6.3,14.15-16.45,21.72-24.26,4.19-15.6,6.03-31.42,3.36-47.47v.02Z"/>
      <path class="st5" d="M394.88,511.27c-6.61-22.24-12.35-44.75-17.18-67.44-4.3-20.21-7.89-40.58-10.76-61.04-2.52-17.96-4.48-35.99-5.87-54.06-3.29-3.34-6.43-6.84-9.39-10.47-7.77-9.52-20.76-30.66-22-42.2-4.4-41.05.6-84.55,9.05-124.96,3.91-18.72,8.55-38.09,20.62-52.93,9.27-11.72,23.61-18.63,38.31-21.73,14.71-3.1,29.91-2.71,44.91-1.83,2.1.12,4.21.26,6.3.51,1.7.21,3.39.49,5.05.92,4.39,1.13,4.49,4.59,6.14,7.77.64,1.22,1.5,2.41,2.94,3.4,13,8.96,28.56,19.73,32.96,34.9,5.46,11.98,5.92,25.13,11.81,37.51,1.92,4.04,1.43,5.78,3.26,9.86,3.12,6.95,6.28,16.65,5.98,24.26-.43,10.79-.85,21.58-1.28,32.36.49,1.63-1.06,14.31.28,13.92,1.25-.36,6.46-14.38,7.43-15.3,2.19-2.1,3.55-4.9,3.55-4.9,0,0,1.15,14.71-4.76,21.05-1.18,1.27-3.88,3.41-6.38,5.2.54-.07,1.1-.12,1.67-.12,5.23,0,9.47,3.1,9.47,6.92s-4.24,6.92-9.47,6.92c-1.14,0-2.22-.15-3.23-.42-.67,9.28-1.99,18.48-5.34,27.12-3.55,9.15-9.25,17.27-14.9,25.3-1.5,3.65-3.51,6.93-5.82,9.97-3.46,4.55-7.62,8.56-11.92,12.4-.31,2.1-.51,4.22-.57,6.38-.37,13.57,4.73,26.57,7.53,39.88.3,1.41.58,2.82.81,4.24,2.67,16.05.83,31.88-3.36,47.47-6.13,22.78-17.3,45.06-26.85,66.82-1.77,4.02-3.48,8.15-4.97,12.35h117.55c-5.8-26.27-11.59-52.54-17.39-78.8-3.23-14.64-6.48-29.46-6.11-44.45.19-7.72,1.34-15.37,2.54-23.01.65-4.13,1.31-8.26,1.85-12.4,2.29-17.74,2.21-35.69,1.85-53.57-1.32-66.5-5.4-137.93-34.79-197.6-8.11-16.46-19.72-36.84-35.89-39.15.36-.57.68-9.1-1.48-11.92-2.16-2.83-7-3.84-9.19-1.03-.92-8.36-8.16-14.48-15.75-18.11-25.57-12.25-52.59-2.6-65.23,2.6-7.39,3.05-14.04,7.65-20.29,12.64-19.54,15.63-35.67,35.49-46.94,57.83-5.92,11.73-10.5,24.1-14.38,36.65-14.94,48.42-19.28,99.11-21.33,149.17-.43,10.51-9.27,63.24-17.67,112.22-4.94,28.79-9.72,56.29-12.54,73.17-1.99,11.86-3.94,23.98-6.77,35.76h147.95v-.03Z"/>
      <path class="st1" d="M514.92,246.89c-.16,4.14-.33,8.31-.63,12.46,1.01.27,2.1.42,3.23.42,5.23,0,9.47-3.1,9.47-6.92s-4.24-6.92-9.47-6.92c-.57,0-1.12.05-1.67.12-.31.22-.62.44-.92.65v.19h-.01Z"/>
      <path class="st6" d="M515.85,246.05c2.5-1.79,5.2-3.93,6.38-5.2,5.91-6.35,4.76-21.05,4.76-21.05,0,0-1.35,2.8-3.55,4.9-.96.92-6.18,14.94-7.43,15.3-1.34.39.21-12.29-.28-13.92-.27,6.7-.53,13.41-.8,20.11.29-.06.6-.1.9-.14h.02Z"/>
      <path class="st1" d="M514.92,246.7c.3-.21.61-.43.92-.65-.31.04-.61.08-.9.14,0,.17-.01.34-.02.51h0Z"/>
      <path class="st6" d="M512.05,168.45c-1.83-4.08-1.34-5.82-3.26-9.86-5.89-12.38-6.35-25.53-11.81-37.51-4.41-15.17-19.96-25.94-32.96-34.9-1.44-.99-2.3-2.18-2.94-3.4-1.65-3.18-1.75-6.64-6.14-7.77-1.66-.43-3.35-.71-5.05-.92-2.09-.25-4.2-.39-6.3-.51-15-.87-30.21-1.27-44.91,1.83-14.71,3.1-29.04,10.01-38.31,21.73-12.07,14.83-16.71,34.21-20.62,52.93-8.45,40.41-13.61,83.93-9.05,124.96,1.44,12.99,14.23,32.68,22,42.2,2.97,3.63,6.1,7.13,9.39,10.47,10.75,10.93,23.16,20.23,36.72,27.38,3.01,1.58,26.43,16.4,49.75,1.59,4.43-2.81,8.63-5.94,12.58-9.39,4.14-3.61,8.28-7.23,12.41-10.84,1.26-1.1,2.52-2.2,3.77-3.32,4.3-3.84,8.46-7.85,11.92-12.4,2.31-3.04,4.31-6.32,5.82-9.97,5.64-8.03,11.34-16.15,14.9-25.3,3.36-8.63,4.67-17.84,5.34-27.12.3-4.15.47-8.32.63-12.46v-.19l.03-.51c.27-6.7.53-13.41.8-20.11.43-10.79.85-21.58,1.28-32.36.3-7.61-2.85-17.31-5.98-24.26h-.01Z"/>
    </g>
    <g>
      <path class="st4" d="M386.84,288.96c.73,1.22,1.68,2.29,2.65,3.34,2.33,2.54,4.8,5.01,7.73,6.82,2.22,1.37,4.66,2.34,7.14,3.15,9.2,3.02,19.15,4.01,28.65,2.13,10.97-2.17,21.13-8.21,28.27-16.8.49-.59.98-1.21,1.29-1.91.72-1.6.48-3.39.41-5.17-15.13,2.63-30.04,7.58-45.32,6.47-11.15-.81-21.82-4.82-32.78-6.92-.05,3.14.36,6.23,1.96,8.89Z"/>
      <path class="st1" d="M462.98,280.53c.08,1.78.31,3.57-.41,5.17-.32.7-.8,1.32-1.29,1.91-7.14,8.6-17.3,14.64-28.27,16.8-9.5,1.88-19.45.89-28.65-2.13-2.48-.81-4.92-1.78-7.14-3.15-2.93-1.81-5.4-4.28-7.73-6.82-.96-1.05-1.92-2.12-2.65-3.34-1.6-2.66-2.01-5.75-1.96-8.89-2.47-.47-4.96-.85-7.47-1.07,5.83,9.88,13.38,18.75,22.22,26.07,2.12,1.76,4.32,3.43,6.74,4.74,7.03,3.8,15.45,4.24,23.37,3.15,4.69-.64,9.37-1.82,13.5-4.14,4.5-2.54,8.14-6.32,11.65-10.11,5.7-6.14,11.32-12.55,14.6-19.15-2.18.26-4.34.59-6.51.96h0Z"/>
    </g>
    <path class="st1" d="M455.88,245.22c1.41,3.95-.05,8.74-3.42,11.24-2,1.48-4.46,2.15-6.86,2.78-4.32,1.15-8.64,2.3-12.96,3.44-2.29.61-4.6,1.22-6.97,1.29-3.36.1-6.75-.92-9.48-2.87-1.77-1.26-3.27-2.89-5.08-4.09-3.48-2.3-7.88-2.87-11.4-5.12-1.81-1.16-3.45-2.96-3.5-5.11-.07-2.86,2.56-4.97,4.92-6.58"/>
    <path class="st1" d="M433,242.48c-.16-17.92-.32-35.83-.48-53.75,0-1.09.02-2.3.76-3.1"/>
    <g>
      <path class="st1" d="M450.76,511.27c1.54-4.42,3.35-8.77,5.2-12.99,9.55-21.76,20.72-44.04,26.85-66.82-7.57,7.81-12.84,17.96-21.72,24.26-3.93,2.78-8.4,4.69-12.86,6.5-7.67,3.11-15.81,6.07-24.02,5.04-4.89-.61-9.48-2.6-14-4.58-9.53-4.16-19.28-8.47-26.81-15.65-1.27-1.22-2.46-2.51-3.61-3.84,4.88,22.92,10.68,45.63,17.38,68.09h53.59,0Z"/>
      <path class="st1" d="M248.87,511.27c2.91-11.98,4.9-24.32,6.92-36.4,2.83-16.88,7.61-44.38,12.54-73.17-32.7,14.07-64.97,30.57-86.72,58.31-8.57,10.93-15.21,23.32-20.05,36.33-1.81,4.86-3.4,9.87-4.98,14.93h92.29Z"/>
      <path class="st1" d="M568.68,511.27h143.45c1.35-5.33,2.9-11.16,5.18-18.14,1.11-3.41,2.19-7,1.52-10.52-.66-3.48-12.32-39.12-14.61-41.82-33.38-39.22-62.95-40.74-110.21-61.19-14.85-6.43-30.6-12.94-46.43-15.23-1.2,7.64-2.35,15.28-2.54,23.01-.37,14.99,2.88,29.81,6.11,44.45,5.84,26.48,11.69,52.96,17.53,79.45h0Z"/>
      <path class="st1" d="M486.17,383.99c-.24-1.42-.51-2.83-.81-4.24-2.8-13.31-7.9-26.31-7.53-39.88.06-2.15.26-4.28.57-6.38-1.25,1.12-2.51,2.22-3.77,3.32-4.14,3.61-8.28,7.23-12.41,10.84-3.95,3.45-8.15,6.58-12.58,9.39-23.32,14.81-46.74,0-49.75-1.59-13.56-7.15-25.97-16.45-36.72-27.38,1.4,18.08,3.36,36.11,5.87,54.06,2.87,20.47,6.46,40.83,10.76,61.04,1.15,1.33,2.34,2.63,3.61,3.84,7.52,7.19,17.27,11.49,26.81,15.65,4.52,1.97,9.11,3.97,14,4.58,8.21,1.03,16.35-1.93,24.02-5.04,4.46-1.81,8.93-3.71,12.86-6.5,8.88-6.3,14.15-16.45,21.72-24.26,4.19-15.6,6.03-31.42,3.36-47.47v.02Z"/>
      <path class="st1" d="M397.17,511.27c-6.69-22.45-12.5-45.17-17.38-68.09-4.3-20.21-7.89-40.58-10.76-61.04-2.52-17.96-4.48-35.99-5.87-54.06-3.29-3.34-6.43-6.84-9.39-10.47-7.77-9.52-20.76-30.66-22-42.2-4.4-41.05.6-84.55,9.05-124.96,3.91-18.72,8.55-38.09,20.62-52.93,9.27-11.72,23.61-18.63,38.31-21.73,14.71-3.1,29.91-2.71,44.91-1.83,2.1.12,4.21.26,6.3.51,1.7.21,3.39.49,5.05.92,4.39,1.13,4.49,4.59,6.14,7.77.64,1.22,1.5,2.41,2.94,3.4,13,8.96,28.56,19.73,32.96,34.9,5.46,11.98,5.92,25.13,11.81,37.51,1.92,4.04,1.43,5.78,3.26,9.86,3.12,6.95,6.28,16.65,5.98,24.26-.43,10.79-.85,21.58-1.28,32.36.49,1.63-1.06,14.31.28,13.92,1.25-.36,6.46-14.38,7.43-15.3,2.19-2.1,3.55-4.9,3.55-4.9,0,0,1.15,14.71-4.76,21.05-1.18,1.27-3.88,3.41-6.38,5.2.54-.07,1.1-.12,1.67-.12,5.23,0,9.47,3.1,9.47,6.92s-4.24,6.92-9.47,6.92c-1.14,0-2.22-.15-3.23-.42-.67,9.28-1.99,18.48-5.34,27.12-3.55,9.15-9.25,17.27-14.9,25.3-1.5,3.65-3.51,6.93-5.82,9.97-3.46,4.55-7.62,8.56-11.92,12.4-.31,2.1-.51,4.22-.57,6.38-.37,13.57,4.73,26.57,7.53,39.88.3,1.41.58,2.82.81,4.24,2.67,16.05.83,31.88-3.36,47.47-6.13,22.78-17.3,45.06-26.85,66.82-1.86,4.23-3.66,8.57-5.2,12.99h117.92c-5.84-26.48-11.69-52.96-17.53-79.45-3.23-14.64-6.48-29.46-6.11-44.45.19-7.72,1.34-15.37,2.54-23.01.65-4.13,1.31-8.26,1.85-12.4,2.29-17.74,2.21-35.69,1.85-53.57-1.32-66.5-6.69-140.38-36.08-200.04-8.11-16.46-18.51-33.66-34.6-36.7.36-.57,3.13-18.13-10.67-12.96-.92-8.36-8.39-14.03-15.75-18.11-21.66-11.99-52.59-2.6-65.23,2.6-7.39,3.05-14.04,7.65-20.29,12.64-19.54,15.63-35.67,35.49-46.94,57.83-5.92,11.73-10.5,24.1-14.38,36.65-14.94,48.42-19.28,99.11-21.33,149.17-.43,10.51-9.27,63.24-17.67,112.22-4.94,28.79-9.72,56.29-12.54,73.17-2.02,12.08-4.02,24.42-6.92,36.4h148.3,0Z"/>
      <path class="st4" d="M517.01,246.24c-.16,4.14-.33,8.31-.63,12.46,1.01.27,2.1.42,3.23.42,5.23,0,9.47-3.1,9.47-6.92s-4.24-6.92-9.47-6.92c-.57,0-1.12.05-1.67.12-.31.22-.62.44-.92.65v.19h-.01Z"/>
      <path class="st1" d="M517.94,245.4c2.5-1.79,5.2-3.93,6.38-5.2,5.91-6.35,4.76-21.05,4.76-21.05,0,0-1.35,2.8-3.55,4.9-.96.92-6.18,14.94-7.43,15.3-1.34.39.21-12.29-.28-13.92-.27,6.7-.53,13.41-.8,20.11.29-.06.6-.1.9-.14h.02Z"/>
      <path class="st1" d="M517.02,246.05c.3-.21.61-.43.92-.65-.31.04-.61.08-.9.14,0,.17-.01.34-.02.51h0Z"/>
      <path class="st1" d="M513.14,168.81c-1.83-4.08-1.34-5.82-3.26-9.86-5.89-12.38-6.35-25.53-11.81-37.51-4.41-15.17-19.96-25.94-32.96-34.9-1.44-.99-2.3-2.18-2.94-3.4-1.65-3.18-1.75-6.64-6.14-7.77-1.66-.43-3.35-.71-5.05-.92-2.09-.25-4.2-.39-6.3-.51-15-.87-30.21-1.27-44.91,1.83-14.71,3.1-29.04,10.01-38.31,21.73-12.07,14.83-16.71,34.21-20.62,52.93-8.45,40.41-13.61,83.93-9.05,124.96,1.44,12.99,14.23,32.68,22,42.2,2.97,3.63,6.1,7.13,9.39,10.47,10.75,10.93,23.16,20.23,36.72,27.38,3.01,1.58,26.43,16.4,49.75,1.59,4.43-2.81,8.63-5.94,12.58-9.39,4.14-3.61,8.28-7.23,12.41-10.84,1.26-1.1,2.52-2.2,3.77-3.32,4.3-3.84,8.46-7.85,11.92-12.4,2.31-3.04,4.31-6.32,5.82-9.97,5.64-8.03,11.34-16.15,14.9-25.3,3.36-8.63,4.67-17.84,5.34-27.12.3-4.15.47-8.32.63-12.46v-.19l.03-.51c.27-6.7.53-13.41.8-20.11.43-10.79.85-21.58,1.28-32.36.3-7.61-2.85-17.31-5.98-24.26h-.01Z"/>
    </g>
    <circle class="st8" cx="379.96" cy="194.51" r="6.88"/>
    <circle class="st8" cx="468.49" cy="192.5" r="6.88"/>
    <path class="st1" d="M449.82,68.78s9.1-22.54-16.54-28.41c-45.79-10.48-90.56,49.66-96.62,116.95l-60.13,223.95,48.29-144.41s17.52,206.91.95,248.1"/>
    <path class="st1" d="M535.52,211.29s4.65,119.79-6.44,161.45,1.74,93.27,7.4,119.79"/>
    <path class="st1" d="M468.49,81.56s49.45,39.48,65.13,104.06"/>
    <path class="st1" d="M456.42,70.2s21.81-11.36,55.9,38.82"/>
    <path class="st1" d="M445.08,65.94s-30.3-44.98-91.38,37.4"/>
    <g>
      <path class="st1" d="M386.84,288.96c.73,1.22,1.68,2.29,2.65,3.34,2.33,2.54,4.8,5.01,7.73,6.82,2.22,1.37,4.66,2.34,7.14,3.15,9.2,3.02,19.15,4.01,28.65,2.13,10.97-2.17,21.13-8.21,28.27-16.8.49-.59.98-1.21,1.29-1.91.72-1.6.48-3.39.41-5.17-15.13,2.63-30.04,7.58-45.32,6.47-11.15-.81-21.82-4.82-32.78-6.92-.05,3.14.36,6.23,1.96,8.89Z"/>
      <path class="st8" d="M462.98,280.53c.08,1.78.31,3.57-.41,5.17-.32.7-.8,1.32-1.29,1.91-7.14,8.6-17.3,14.64-28.27,16.8-9.5,1.88-19.45.89-28.65-2.13-2.48-.81-4.92-1.78-7.14-3.15-2.93-1.81-5.4-4.28-7.73-6.82-.96-1.05-1.92-2.12-2.65-3.34-1.6-2.66-2.01-5.75-1.96-8.89-2.47-.47-4.96-.85-7.47-1.07,5.83,9.88,13.38,18.75,22.22,26.07,2.12,1.76,4.32,3.43,6.74,4.74,7.03,3.8,15.45,4.24,23.37,3.15,4.69-.64,9.37-1.82,13.5-4.14,4.5-2.54,8.14-6.32,11.65-10.11,5.7-6.14,11.32-12.55,14.6-19.15-2.18.26-4.34.59-6.51.96h0Z"/>
    </g>
  </g>
</svg>