<?xml version="1.0" encoding="UTF-8"?>
<svg id="Layer_1" data-name="Layer 1" xmlns="http://www.w3.org/2000/svg" viewBox="0 0 841.89 467.72">
  <defs>
    <style>
      .cls-1 {
        fill: #55565a;
      }

      .cls-2 {
        fill: #df625c;
      }

      .cls-3 {
        fill: #f4c45b;
      }

      .cls-4 {
        fill: #edbdaa;
      }

      .cls-5 {
        fill: #fff;
      }

      .cls-6 {
        fill: #70553e;
      }

      .cls-7 {
        fill: none;
        stroke: #55565a;
        stroke-miterlimit: 10;
      }
    </style>
  </defs>
  <rect class="cls-3" width="841.89" height="467.72"/>
  <g>
    <path class="cls-5" d="M629.74,466.69c6.78-.41,13.57-.81,20.35-1.22-5.06-13.57-14.04-24.62-25.05-33.91-4.95-1.28-9.97-2.23-15.06-2.64-9.87-.8-20.06.47-28.95,4.82-13.48,6.6-22.44,19.32-29.32,32.94h78.02Z"/>
    <path class="cls-5" d="M261.96,466.69c3.63-15.94,9.46-31.25,19.05-44.36-18.27,8.57-32.77,25.08-38.75,44.36h19.7Z"/>
    <path class="cls-5" d="M451.69,78.19c-2.85-6.49-7.28-15.22-11.45-16.72-4.57-1.65-9.59.05-14.12,1.79-5.75,2.21-11.58,4.57-16.29,8.55-2.14,1.81-3.99,3.91-5.73,6.1h43.85c1.25-.03,2.51.08,3.74.28Z"/>
    <path class="cls-5" d="M573.04,235.68c11-13.74,4.66-33.87-2.12-50.11-5.83-13.95-11.66-27.93-18.6-41.36-7.59-14.7-16.47-28.7-25.33-42.67-11.6-18.28-24.75-37.77-43.87-46.8-4.34-2.05-9.52-.64-12.14,3.38-3.82-14.13-17.79-23.64-32.14-26.54-14.35-2.9-29.17-.42-43.6,2.05-20.02,3.44-41,7.29-56.82,20.04-15.71,12.66-23.98,32.23-36.88,47.75-7.72,9.28-17.1,17.1-24.47,26.66-7.37,9.55-12.74,21.66-10.51,33.52,1.39,7.41,5.63,14.2,5.96,21.73.82,18.89-22.78,34.17-17.7,52.37,2.82,10.12,14.23,17.94,12.29,28.26-1.08,5.73-6.14,9.91-8.03,15.43-3.15,9.14,3.01,18.63,8.84,26.35,10.8,14.29,21.59,28.57,32.39,42.86,7.59,10.04,16.54,20.9,29.03,22.42,9.61,1.17,18.9-3.59,28.38-5.54,1.17-11.56-.12-23.18-2.05-34.71-3.26-3.39-6.35-6.94-9.25-10.65-11.48-14.72-19.82-32.07-22.6-50.27-1.03-10.27-1.39-20.61-1.08-30.93l.27-.18c-.15-5.81-.3-11.62-.44-17.43-.04-1.49-.06-3.04.57-4.38.71-1.5,2.14-2.53,3.12-3.87,2.77-3.78,1.53-9.12,2.94-13.58.68-2.15,1.97-4.05,3.22-5.92,7.32-10.9,14.52-22.78,14.72-35.91.07-4.61-.7-9.45,1.2-13.65,2.9-6.43,10.7-8.79,15.92-13.53,7.35-6.68,9.05-17.55,14.82-25.63,4.57-6.39,11.45-10.71,16.77-16.49,3-3.25,5.5-6.97,8.25-10.43,1.75-2.2,3.59-4.29,5.73-6.1,4.7-3.98,10.53-6.34,16.29-8.55,4.53-1.74,9.56-3.43,14.12-1.79,4.17,1.51,8.61,10.23,11.45,16.72,4.13.68,8.06,2.63,11.04,5.58,1.41,1.39,2.61,2.99,3.77,4.62,2.16,3.04,4.18,6.19,7.14,8.41,5.23,3.91,12.51,4.21,17.73,8.13,4.74,3.56,7,9.53,8.24,15.34,1.23,5.8,1.71,11.83,3.95,17.32,1.87,4.58,4.89,8.57,7.41,12.83,2.52,4.25,4.6,9.04,4.25,13.97-.29,4.05-2.2,8.04-1.42,12.03,0,0,1.61,7.38,2.71,15.2.64,4.52,1.1,9.18.99,12.67-.01.36-.03.71-.05,1.04-.14,1.93-.36,3.9.05,5.79.41,1.89,1.6,3.75,3.43,4.38,1,.34,2.14.28,3.1-.17,2.84-1.32,4.67-3.22,7.29-4.94l4.05-11.38c.84.28,1.64.69,2.33,1.23,2.68,2.1,4,5.49,4.78,8.81,2.39,10.16.72,21.22-4.58,30.22-1.82,3.09-4.04,5.95-5.45,9.24-.96,2.23-1.52,4.61-2.33,6.9-2.49,6.98-7.26,12.88-11.94,18.63-1.91,2.34-3.85,4.72-6.38,6.37-2.52,1.65-5.76,2.49-8.6,1.48l-1.41-1.42c-.58,6.14-1.68,12.12-4.76,17.13-4.43,5.5-9.04,10.86-13.8,16.08,2.27,12.58,6.55,24.69,13.57,35.34,6.18,9.39,14.06,17.13,22.95,23.79,3.96.32,8.03,1.15,11.93,1.58,8.4.93,19.36-2.64,19.51-11.09.2-10.4-16.44-15.49-15.45-25.85.41-4.35,3.97-7.65,7.39-10.36,3.42-2.71,7.18-5.59,8.32-9.81,1.14-4.21-2.29-9.72-6.52-8.67,7.13-3.51,14.42-7.14,19.83-12.96,5.41-5.82,8.59-14.4,5.9-21.87-2.65-7.35-10.51-12.98-9.99-20.77.49-7.23,7.86-11.65,12.39-17.31Z"/>
    <path class="cls-5" d="M492.26,466.69c.09-.1.18-.2.28-.3,8.02-8.18,17.59-14.63,27.09-21.03,11.9-8.02,23.8-16.03,35.7-24.05,8.8-5.93,18.08-12,28.07-15.12-2.07-.98-4.15-1.94-6.21-2.88-19.64-8.91-40.41-17.73-57.46-30.51-8.89-6.66-16.77-14.4-22.95-23.79-7.02-10.65-11.3-22.75-13.57-35.34-6.24,6.85-12.74,13.46-19.51,19.79-10.25,9.59-21.33,18.7-34.38,23.87-13.05,5.17-28.46,5.92-40.94-.59-11.92-7.28-23.07-15.92-32.74-25.97,1.93,11.53,3.23,23.15,2.05,34.71-.06.59-.11,1.18-.19,1.77-1.99,16.01-9.76,32.14-23.73,40.21-4.64,2.68-9.66,4.33-14.85,5.55-11.89,16.22-21.02,34.46-26.92,53.69h200.23Z"/>
    <path class="cls-5" d="M542.48,209.04c-.78-3.32-2.1-6.71-4.78-8.81-.69-.54-1.49-.95-2.33-1.23l-4.05,11.38c-2.62,1.72-4.45,3.62-7.29,4.94-.96.45-2.1.51-3.1.17-1.84-.63-3.02-2.48-3.43-4.38-.41-1.89-.19-3.86-.05-5.79.02-.33.04-.68.05-1.04.11-3.48-.36-8.15-.99-12.67-1.1-7.83-2.71-15.2-2.71-15.2-.78-3.99,1.13-7.98,1.42-12.03.35-4.93-1.73-9.72-4.25-13.97-2.52-4.25-5.54-8.25-7.41-12.83-2.25-5.49-2.72-11.52-3.95-17.32-1.23-5.8-3.49-11.77-8.24-15.34-5.22-3.92-12.5-4.21-17.73-8.13-2.96-2.22-4.98-5.37-7.14-8.41-1.16-1.63-2.36-3.22-3.77-4.62-2.98-2.94-6.91-4.89-11.04-5.58-1.24-.2-2.49-.31-3.74-.28h-43.85c-2.75,3.46-5.25,7.17-8.25,10.42-5.32,5.78-12.2,10.1-16.77,16.49-5.77,8.08-7.47,18.95-14.82,25.63-5.22,4.74-13.02,7.1-15.92,13.53-1.89,4.2-1.13,9.05-1.2,13.65-.2,13.12-7.4,25.01-14.72,35.91-1.26,1.87-2.54,3.77-3.22,5.92-1.41,4.46-.18,9.8-2.94,13.58-.98,1.34-2.41,2.36-3.12,3.87-.64,1.35-.61,2.9-.57,4.38.15,5.81.3,11.62.44,17.43l-.27.18c-.31,10.32.05,20.66,1.08,30.93,2.79,18.21,11.12,35.55,22.6,50.27,2.9,3.71,5.99,7.26,9.25,10.65,9.67,10.05,20.82,18.69,32.74,25.97,12.48,6.52,27.89,5.76,40.94.59,13.05-5.17,24.13-14.28,34.38-23.87,6.77-6.33,13.27-12.94,19.51-19.79,4.76-5.22,9.37-10.58,13.8-16.08,3.08-5.02,4.17-10.99,4.76-17.13l1.41,1.42c2.84,1.02,6.08.18,8.6-1.48,2.52-1.65,4.47-4.03,6.38-6.37,4.68-5.75,9.45-11.64,11.94-18.63.82-2.29,1.38-4.67,2.33-6.9,1.41-3.29,3.64-6.16,5.45-9.24,5.29-9,6.97-20.06,4.58-30.22Z"/>
    <path class="cls-5" d="M551.72,466.69c6.88-13.62,15.84-26.34,29.32-32.94,8.89-4.36,19.08-5.62,28.95-4.82,5.09.41,10.11,1.36,15.06,2.64-12.22-10.3-26.94-18.42-41.64-25.37-9.99,3.12-19.27,9.19-28.07,15.12-11.9,8.02-23.8,16.03-35.7,24.05-9.5,6.4-19.07,12.86-27.09,21.03-.09.1-.19.2-.28.3h59.46Z"/>
    <path class="cls-5" d="M292.03,466.69c5.9-19.23,15.03-37.46,26.92-53.69-8.99,2.11-18.5,2.91-27.43,5.41-3.61,1.01-7.12,2.33-10.51,3.92-9.59,13.11-15.42,28.41-19.05,44.36h30.07Z"/>
  </g>
  <g>
    <path class="cls-4" d="M542.34,210.52c-.78-3.32-2.1-6.71-4.78-8.81-.69-.54-1.49-.95-2.33-1.23l-4.05,11.38c-2.62,1.72-4.45,3.62-7.29,4.94-.96.45-2.1.51-3.1.17-1.84-.63-3.02-2.48-3.43-4.38-.41-1.89-.19-3.86-.05-5.79.02-.33.04-.68.05-1.04.11-3.48-.36-8.15-.99-12.67-1.1-7.83-2.71-15.2-2.71-15.2-.78-3.99,1.13-7.98,1.42-12.03.35-4.93-1.73-9.72-4.25-13.97s-5.54-8.25-7.41-12.83c-2.25-5.49-2.72-11.52-3.95-17.32-1.23-5.8-3.49-11.77-8.24-15.34-5.22-3.92-12.5-4.21-17.73-8.13-2.96-2.22-4.98-5.37-7.14-8.41-1.16-1.63-2.36-3.22-3.77-4.62-2.98-2.94-6.91-4.89-11.04-5.58-1.24-.2-2.49-.31-3.74-.28h-43.85c-2.75,3.46-5.25,7.17-8.25,10.42-5.32,5.78-12.2,10.1-16.77,16.49-5.77,8.08-7.47,18.95-14.82,25.63-5.22,4.74-13.02,7.1-15.92,13.53-1.89,4.2-1.13,9.05-1.2,13.65-.2,13.12-7.4,25.01-14.72,35.91-1.26,1.87-2.54,3.77-3.22,5.92-1.41,4.46-.18,9.8-2.94,13.58-.98,1.34-2.41,2.36-3.12,3.87-.64,1.35-.61,2.9-.57,4.38.15,5.81.3,11.62.44,17.43l-.27.18c-.31,10.32.05,20.66,1.08,30.93,2.79,18.21,11.12,35.55,22.6,50.27,2.9,3.71,5.99,7.26,9.25,10.65,9.67,10.05,20.82,18.69,32.74,25.97,12.48,6.52,27.89,5.76,40.94.59,13.05-5.17,24.13-14.28,34.38-23.87,6.77-6.33,13.27-12.94,19.51-19.79,4.76-5.22,9.37-10.58,13.8-16.08,3.08-5.02,4.17-10.99,4.76-17.13l1.41,1.42c2.84,1.02,6.08.18,8.6-1.48,2.52-1.65,4.47-4.03,6.38-6.37,4.68-5.75,9.45-11.64,11.94-18.63.82-2.29,1.38-4.67,2.33-6.9,1.41-3.29,3.64-6.16,5.45-9.24,5.29-9,6.97-20.06,4.58-30.22Z"/>
    <path class="cls-4" d="M627.6,468.16c6.78-.41,13.57-.81,20.35-1.22-5.06-13.57-14.04-24.62-25.05-33.91-4.95-1.28-9.97-2.23-15.06-2.64-9.87-.8-20.06.47-28.95,4.82-13.48,6.6-22.44,19.32-29.32,32.94h78.02Z"/>
    <path class="cls-4" d="M259.82,468.16c3.63-15.94,9.46-31.25,19.05-44.36-18.27,8.57-32.77,25.08-38.75,44.36h19.7Z"/>
    <path class="cls-6" d="M449.55,79.66c-2.85-6.49-7.28-15.22-11.45-16.72-4.57-1.65-9.59.05-14.12,1.79-5.75,2.21-11.58,4.57-16.29,8.55-2.14,1.81-3.99,3.91-5.73,6.1h43.85c1.25-.03,2.51.08,3.74.28Z"/>
    <path class="cls-6" d="M570.9,237.15c11-13.74,4.66-33.87-2.12-50.11-5.83-13.95-11.66-27.93-18.6-41.36-7.59-14.7-16.47-28.7-25.33-42.67-11.6-18.28-24.75-37.77-43.87-46.8-4.34-2.05-9.52-.64-12.14,3.38-3.82-14.13-17.79-23.64-32.14-26.54-14.35-2.9-29.17-.42-43.6,2.05-20.02,3.44-41,7.29-56.82,20.04-15.71,12.66-23.98,32.23-36.88,47.75-7.72,9.28-17.1,17.1-24.47,26.66-7.37,9.55-12.74,21.66-10.51,33.52,1.39,7.41,5.63,14.2,5.96,21.73.82,18.89-22.78,34.17-17.7,52.37,2.82,10.12,14.23,17.94,12.29,28.26-1.08,5.73-6.14,9.91-8.03,15.43-3.15,9.14,3.01,18.63,8.84,26.35,10.8,14.29,21.59,28.57,32.39,42.86,7.59,10.04,16.54,20.9,29.03,22.42,9.61,1.17,18.9-3.59,28.38-5.54,1.17-11.56-.12-23.18-2.05-34.71-3.26-3.39-6.35-6.94-9.25-10.65-11.48-14.72-19.82-32.07-22.6-50.27-1.03-10.27-1.39-20.61-1.08-30.93l.27-.18c-.15-5.81-.3-11.62-.44-17.43-.04-1.49-.06-3.04.57-4.38.71-1.5,2.14-2.53,3.12-3.87,2.77-3.78,1.53-9.12,2.94-13.58.68-2.15,1.97-4.05,3.22-5.92,7.32-10.9,14.52-22.78,14.72-35.91.07-4.61-.7-9.45,1.2-13.65,2.9-6.43,10.7-8.79,15.92-13.53,7.35-6.68,9.05-17.55,14.82-25.63,4.57-6.39,11.45-10.71,16.77-16.49,3-3.25,5.5-6.97,8.25-10.43,1.75-2.2,3.59-4.29,5.73-6.1,4.7-3.98,10.53-6.34,16.29-8.55,4.53-1.74,9.56-3.43,14.12-1.79,4.17,1.51,8.61,10.23,11.45,16.72,4.13.68,8.06,2.63,11.04,5.58,1.41,1.39,2.61,2.99,3.77,4.62,2.16,3.04,4.18,6.19,7.14,8.41,5.23,3.91,12.51,4.21,17.73,8.13,4.74,3.56,7,9.53,8.24,15.34,1.23,5.8,1.71,11.83,3.95,17.32,1.87,4.58,4.89,8.57,7.41,12.83s4.6,9.04,4.25,13.97c-.29,4.05-2.2,8.04-1.42,12.03,0,0,1.61,7.38,2.71,15.2.64,4.52,1.1,9.18.99,12.67-.01.36-.03.71-.05,1.04-.14,1.93-.36,3.9.05,5.79.41,1.89,1.6,3.75,3.43,4.38,1,.34,2.14.28,3.1-.17,2.84-1.32,4.67-3.22,7.29-4.94l4.05-11.38c.84.28,1.64.69,2.33,1.23,2.68,2.1,4,5.49,4.78,8.81,2.39,10.16.72,21.22-4.58,30.22-1.82,3.09-4.04,5.95-5.45,9.24-.96,2.23-1.52,4.61-2.33,6.9-2.49,6.98-7.26,12.88-11.94,18.63-1.91,2.34-3.85,4.72-6.38,6.37-2.52,1.65-5.76,2.49-8.6,1.48l-1.41-1.42c-.58,6.14-1.68,12.12-4.76,17.13-4.43,5.5-9.04,10.86-13.8,16.08,2.27,12.58,6.55,24.69,13.57,35.34,6.18,9.39,14.06,17.13,22.95,23.79,3.96.32,8.03,1.15,11.93,1.58,8.4.93,19.36-2.64,19.51-11.09.2-10.4-16.44-15.49-15.45-25.85.41-4.35,3.97-7.65,7.39-10.36,3.42-2.71,7.18-5.59,8.32-9.81,1.14-4.21-2.29-9.72-6.52-8.67,7.13-3.51,14.42-7.14,19.83-12.96,5.41-5.82,8.59-14.4,5.9-21.87-2.65-7.35-10.51-12.98-9.99-20.77.49-7.23,7.86-11.65,12.39-17.31Z"/>
    <path class="cls-4" d="M490.12,468.16c.09-.1.18-.2.28-.3,8.02-8.18,17.59-14.63,27.09-21.03,11.9-8.02,23.8-16.03,35.7-24.05,8.8-5.93,18.08-12,28.07-15.12-2.07-.98-4.15-1.94-6.21-2.88-19.64-8.91-40.41-17.73-57.46-30.51-8.89-6.66-16.77-14.4-22.95-23.79-7.02-10.65-11.3-22.75-13.57-35.34-6.24,6.85-12.74,13.46-19.51,19.79-10.25,9.59-21.33,18.7-34.38,23.87-13.05,5.17-28.46,5.92-40.94-.59-11.92-7.28-23.07-15.92-32.74-25.97,1.93,11.53,3.23,23.15,2.05,34.71-.06.59-.11,1.18-.19,1.77-1.99,16.01-9.76,32.14-23.73,40.21-4.64,2.68-9.66,4.33-14.85,5.55-11.89,16.22-21.02,34.46-26.92,53.69h200.23Z"/>
    <path class="cls-2" d="M549.58,468.16c6.88-13.62,15.84-26.34,29.32-32.94,8.89-4.36,19.08-5.62,28.95-4.82,5.09.41,10.11,1.36,15.06,2.64-12.22-10.3-26.94-18.42-41.64-25.37-9.99,3.12-19.27,9.19-28.07,15.12-11.9,8.02-23.8,16.03-35.7,24.05-9.5,6.4-19.07,12.86-27.09,21.03-.09.1-.19.2-.28.3h59.46Z"/>
    <path class="cls-2" d="M289.89,468.16c5.9-19.23,15.03-37.46,26.92-53.69-8.99,2.11-18.5,2.91-27.43,5.41-3.61,1.01-7.12,2.33-10.51,3.92-9.59,13.11-15.42,28.41-19.05,44.36h30.07Z"/>
  </g>
  <path class="cls-7" d="M457.35,79.43c3.31-8.75-.54-19.42-8.3-24.65s-18.58-5.02-26.55-.13"/>
  <path class="cls-7" d="M475.53,86.61c-2.16-7.11-.48-15.13-3.55-21.9-1.11-2.46-2.8-4.6-4.47-6.72-2.29-2.9-4.72-5.92-8.12-7.36-1.73-.73-4.06-1.54-4.01-3.42.01-.49.21-.97.2-1.46-.03-1.09-1.05-1.85-1.99-2.39-2.95-1.7-6.2-2.87-9.56-3.44"/>
  <path class="cls-7" d="M436.98,241.72c2.17,2.02,3.03,5.35,2.1,8.17-.92,2.82-3.58,4.99-6.53,5.34"/>
  <path class="cls-7" d="M433.51,251.73c-3.16.16-6.1,1.62-8.79,3.28s-5.24,3.59-8.14,4.84-6.29,1.79-9.21.57c-2.79-1.16-4.72-3.69-6.85-5.83s-5.02-4.06-7.98-3.46"/>
  <path class="cls-7" d="M396.53,254.52c-2.53-.67-5.1-1.42-7.27-2.88s-3.93-3.77-4.09-6.39c-.13-2.04.73-4.05,1.96-5.68s2.83-2.95,4.42-4.25"/>
  <path class="cls-7" d="M454.5,284.26c-15.07-.93-30.15-1.86-45.22-2.8-14.57-.9-29.14-1.8-43.71-2.7"/>
  <path class="cls-5" d="M370.83,279.51c9.03,12.02,23.46,19.81,38.46,20.77,15,.95,30.31-4.95,40.78-15.73"/>
  <path class="cls-7" d="M516.4,223.56c5.89,2.45,10.52,7.95,11.47,14.26.95,6.31-2.07,13.15-7.6,16.32-1.66.95-3.58,1.64-4.75,3.16-1.54,2-1.32,4.78-1.55,7.29s-1.55,5.45-4.07,5.63"/>
  <path class="cls-7" d="M507.31,254.9c2.06-4.54,2.48-9.62,3.15-14.56.68-4.94,1.72-10.04,5.11-12.96,4.36,6.43,4.22,15.58-.34,21.87"/>
  <path class="cls-7" d="M531.23,210.27c4.19-.42,7.98,3.28,8.86,7.4.88,4.12-.53,8.41-2.51,12.13s-4.56,7.12-6.3,10.96c-2.75,6.06-3.3,12.87-5.3,19.22s-6.19,12.76-12.68,14.23"/>
  <g>
    <path class="cls-7" d="M629.65,466.58c6.78-.41,13.57-.81,20.35-1.22-5.06-13.57-14.04-24.62-25.05-33.91-4.95-1.28-9.97-2.23-15.06-2.64-9.87-.8-20.06.47-28.95,4.82-13.48,6.6-22.44,19.32-29.32,32.94h78.02Z"/>
    <path class="cls-7" d="M261.87,466.58c3.63-15.94,9.46-31.25,19.05-44.36-18.27,8.57-32.77,25.08-38.75,44.36h19.7Z"/>
    <path class="cls-7" d="M451.6,78.08c-2.85-6.49-7.28-15.22-11.45-16.72-4.57-1.65-9.59.05-14.12,1.79-5.75,2.21-11.58,4.57-16.29,8.55-2.14,1.81-3.99,3.91-5.73,6.1h43.85c1.25-.03,2.51.08,3.74.28Z"/>
    <path class="cls-7" d="M572.96,235.57c11-13.74,4.66-33.87-2.12-50.11-5.83-13.95-11.66-27.93-18.6-41.36-7.59-14.7-16.47-28.7-25.33-42.67-11.6-18.28-24.75-37.77-43.87-46.8-4.34-2.05-9.52-.64-12.14,3.38-3.82-14.13-17.79-23.64-32.14-26.54-14.35-2.9-29.17-.42-43.6,2.05-20.02,3.44-41,7.29-56.82,20.04-15.71,12.66-23.98,32.23-36.88,47.75-7.72,9.28-17.1,17.1-24.47,26.66s-12.74,21.66-10.51,33.52c1.39,7.41,5.63,14.2,5.96,21.73.82,18.89-22.78,34.17-17.7,52.37,2.82,10.12,14.23,17.94,12.29,28.26-1.08,5.73-6.14,9.91-8.03,15.43-3.15,9.14,3.01,18.63,8.84,26.35,10.8,14.29,21.59,28.57,32.39,42.86,7.59,10.04,16.54,20.9,29.03,22.42,9.61,1.17,18.9-3.59,28.38-5.54,1.17-11.56-.12-23.18-2.05-34.71-3.26-3.39-6.35-6.94-9.25-10.65-11.48-14.72-19.82-32.07-22.6-50.27-1.03-10.27-1.39-20.61-1.08-30.93l.27-.18c-.15-5.81-.3-11.62-.44-17.43-.04-1.49-.06-3.04.57-4.38.71-1.5,2.14-2.53,3.12-3.87,2.77-3.78,1.53-9.12,2.94-13.58.68-2.15,1.97-4.05,3.22-5.92,7.32-10.9,14.52-22.78,14.72-35.91.07-4.61-.7-9.45,1.2-13.65,2.9-6.43,10.7-8.79,15.92-13.53,7.35-6.68,9.05-17.55,14.82-25.63,4.57-6.39,11.45-10.71,16.77-16.49,3-3.25,5.5-6.97,8.25-10.43,1.75-2.2,3.59-4.29,5.73-6.1,4.7-3.98,10.53-6.34,16.29-8.55,4.53-1.74,9.56-3.43,14.12-1.79,4.17,1.51,8.61,10.23,11.45,16.72,4.13.68,8.06,2.63,11.04,5.58,1.41,1.39,2.61,2.99,3.77,4.62,2.16,3.04,4.18,6.19,7.14,8.41,5.23,3.91,12.51,4.21,17.73,8.13,4.74,3.56,7,9.53,8.24,15.34,1.23,5.8,1.71,11.83,3.95,17.32,1.87,4.58,4.89,8.57,7.41,12.83s4.6,9.04,4.25,13.97c-.29,4.05-2.2,8.04-1.42,12.03,0,0,1.61,7.38,2.71,15.2.64,4.52,1.1,9.18.99,12.67-.01.36-.03.71-.05,1.04-.14,1.93-.36,3.9.05,5.79.41,1.89,1.6,3.75,3.43,4.38,1,.34,2.14.28,3.1-.17,2.84-1.32,4.67-3.22,7.29-4.94l4.05-11.38c.84.28,1.64.69,2.33,1.23,2.68,2.1,4,5.49,4.78,8.81,2.39,10.16.72,21.22-4.58,30.22-1.82,3.09-4.04,5.95-5.45,9.24-.96,2.23-1.52,4.61-2.33,6.9-2.49,6.98-7.26,12.88-11.94,18.63-1.91,2.34-3.85,4.72-6.38,6.37-2.52,1.65-5.76,2.49-8.6,1.48l-1.41-1.42c-.58,6.14-1.68,12.12-4.76,17.13-4.43,5.5-9.04,10.86-13.8,16.08,2.27,12.58,6.55,24.69,13.57,35.34,6.18,9.39,14.06,17.13,22.95,23.79,3.96.32,8.03,1.15,11.93,1.58,8.4.93,19.36-2.64,19.51-11.09.2-10.4-16.44-15.49-15.45-25.85.41-4.35,3.97-7.65,7.39-10.36,3.42-2.71,7.18-5.59,8.32-9.81,1.14-4.21-2.29-9.72-6.52-8.67,7.13-3.51,14.42-7.14,19.83-12.96,5.41-5.82,8.59-14.4,5.9-21.87-2.65-7.35-10.51-12.98-9.99-20.77.49-7.23,7.86-11.65,12.39-17.31Z"/>
    <path class="cls-7" d="M492.17,466.58c.09-.1.18-.2.28-.3,8.02-8.18,17.59-14.63,27.09-21.03,11.9-8.02,23.8-16.03,35.7-24.05,8.8-5.93,18.08-12,28.07-15.12-2.07-.98-4.15-1.94-6.21-2.88-19.64-8.91-40.41-17.73-57.46-30.51-8.89-6.66-16.77-14.4-22.95-23.79-7.02-10.65-11.3-22.75-13.57-35.34-6.24,6.85-12.74,13.46-19.51,19.79-10.25,9.59-21.33,18.7-34.38,23.87-13.05,5.17-28.46,5.92-40.94-.59-11.92-7.28-23.07-15.92-32.74-25.97,1.93,11.53,3.23,23.15,2.05,34.71-.06.59-.11,1.18-.19,1.77-1.99,16.01-9.76,32.14-23.73,40.21-4.64,2.68-9.66,4.33-14.85,5.55-11.89,16.22-21.02,34.46-26.92,53.69h200.23Z"/>
    <path class="cls-7" d="M542.39,208.94c-.78-3.32-2.1-6.71-4.78-8.81-.69-.54-1.49-.95-2.33-1.23l-4.05,11.38c-2.62,1.72-4.45,3.62-7.29,4.94-.96.45-2.1.51-3.1.17-1.84-.63-3.02-2.48-3.43-4.38-.41-1.89-.19-3.86-.05-5.79.02-.33.04-.68.05-1.04.11-3.48-.36-8.15-.99-12.67-1.1-7.83-2.71-15.2-2.71-15.2-.78-3.99,1.13-7.98,1.42-12.03.35-4.93-1.73-9.72-4.25-13.97s-5.54-8.25-7.41-12.83c-2.25-5.49-2.72-11.52-3.95-17.32-1.23-5.8-3.49-11.77-8.24-15.34-5.22-3.92-12.5-4.21-17.73-8.13-2.96-2.22-4.98-5.37-7.14-8.41-1.16-1.63-2.36-3.22-3.77-4.62-2.98-2.94-6.91-4.89-11.04-5.58-1.24-.2-2.49-.31-3.74-.28h-43.85c-2.75,3.46-5.25,7.17-8.25,10.42-5.32,5.78-12.2,10.1-16.77,16.49-5.77,8.08-7.47,18.95-14.82,25.63-5.22,4.74-13.02,7.1-15.92,13.53-1.89,4.2-1.13,9.05-1.2,13.65-.2,13.12-7.4,25.01-14.72,35.91-1.26,1.87-2.54,3.77-3.22,5.92-1.41,4.46-.18,9.8-2.94,13.58-.98,1.34-2.41,2.36-3.12,3.87-.64,1.35-.61,2.9-.57,4.38.15,5.81.3,11.62.44,17.43l-.27.18c-.31,10.32.05,20.66,1.08,30.93,2.79,18.21,11.12,35.55,22.6,50.27,2.9,3.71,5.99,7.26,9.25,10.65,9.67,10.05,20.82,18.69,32.74,25.97,12.48,6.52,27.89,5.76,40.94.59,13.05-5.17,24.13-14.28,34.38-23.87,6.77-6.33,13.27-12.94,19.51-19.79,4.76-5.22,9.37-10.58,13.8-16.08,3.08-5.02,4.17-10.99,4.76-17.13l1.41,1.42c2.84,1.02,6.08.18,8.6-1.48,2.52-1.65,4.47-4.03,6.38-6.37,4.68-5.75,9.45-11.64,11.94-18.63.82-2.29,1.38-4.67,2.33-6.9,1.41-3.29,3.64-6.16,5.45-9.24,5.29-9,6.97-20.06,4.58-30.22Z"/>
    <path class="cls-7" d="M551.63,466.58c6.88-13.62,15.84-26.34,29.32-32.94,8.89-4.36,19.08-5.62,28.95-4.82,5.09.41,10.11,1.36,15.06,2.64-12.22-10.3-26.94-18.42-41.64-25.37-9.99,3.12-19.27,9.19-28.07,15.12-11.9,8.02-23.8,16.03-35.7,24.05-9.5,6.4-19.07,12.86-27.09,21.03-.09.1-.19.2-.28.3h59.46Z"/>
    <path class="cls-7" d="M291.94,466.58c5.9-19.23,15.03-37.46,26.92-53.69-8.99,2.11-18.5,2.91-27.43,5.41-3.61,1.01-7.12,2.33-10.51,3.92-9.59,13.11-15.42,28.41-19.05,44.36h30.07Z"/>
  </g>
  <path class="cls-7" d="M396.25,58.49c-24.78,8.67-44.39,30.79-50.02,56.43-2.87,13.09-2.48,27.27-9.09,38.92-4.71,8.29-12.48,14.34-18.55,21.7-14.08,17.09-18.19,41.84-10.38,62.56"/>
  <path class="cls-7" d="M307.58,253.69c-9.59-1.8-17.02-9.93-20.68-18.98s-4.21-19.01-4.7-28.75c-.9-17.67-1.15-37.33,10.57-50.58,6.15-6.95,14.9-11.17,21.12-18.05,6.22-6.88,8.97-18.8,1.95-24.86"/>
  <path class="cls-7" d="M489.48,81.98c21.21,13.14,34.76,37.82,34.47,62.77-.09,8.09-1.52,16.33.38,24.19,3.42,14.15,16.49,23.51,28.61,31.57"/>
  <path class="cls-7" d="M547.53,253.01c-.86,8.31-5.39,15.82-10.76,22.22-5.36,6.4-11.64,12-16.94,18.46-6.16,7.51-10.93,16.16-14.01,25.37-.86,2.57-1.58,5.42-.55,7.92,1.33,3.25,5,4.7,8.14,6.27,3.14,1.57,6.44,4.4,5.86,7.86"/>
  <path class="cls-7" d="M313.72,266.13c2.08,7.56.22,16.1-4.83,22.11s-13.14,9.32-20.95,8.57"/>
  <circle class="cls-1" cx="375.03" cy="190.85" r="7.77"/>
  <circle class="cls-1" cx="462.27" cy="198.62" r="7.77"/>
  <path class="cls-7" d="M454.5,284.26c-15.07-.93-30.15-1.86-45.22-2.8-14.57-.9-29.14-1.8-43.71-2.7"/>
  <path class="cls-7" d="M370.83,279.51c9.03,12.02,23.46,19.81,38.46,20.77,15,.95,30.31-4.95,40.78-15.73"/>
</svg>