<?xml version="1.0" encoding="UTF-8"?>
<svg id="Layer_1" xmlns="http://www.w3.org/2000/svg" version="1.1" viewBox="0 0 841.89 467.72">
  <!-- Generator: Adobe Illustrator 29.0.0, SVG Export Plug-In . SVG Version: 2.1.0 Build 186)  -->
  <defs>
    <style>
      .st0 {
        fill: #ea9923;
      }

      .st1 {
        fill: #615353;
      }

      .st2 {
        fill: #55565a;
      }

      .st3 {
        fill: #1b5492;
      }

      .st4 {
        fill: #fddfd3;
      }

      .st5 {
        fill: #eca19e;
      }

      .st6 {
        fill: #fff;
      }

      .st7 {
        fill: #bb3932;
      }

      .st8 {
        fill: none;
        stroke: #55565a;
        stroke-miterlimit: 10;
        stroke-width: .96px;
      }
    </style>
  </defs>
  <rect class="st5" y="-3.98" width="841.89" height="473.99"/>
  <g>
    <g>
      <path class="st6" d="M306.33,232.68c1.36-4.47-.78-9.86-5.01-11.84-1.88-.88-4-1.11-5.89-1.96-1.3-.59-2.5-1.65-3.03-2.91.89,6.55,1.78,13.09,2.68,19.64.22,1.63.51,3.35.98,4.96,4.58-.32,8.94-3.49,10.28-7.88Z"/>
      <path class="st6" d="M682.31,470.01c-3.57-12.53-5.08-26-10.44-37.92-4.82-10.72-12.59-19.82-20.55-28.47-7.82-8.49-12.8-11.74-23.66-15.68-9.14-3.32-22.65-8.34-32.25-9.81-12.4-1.9-24.18-6.58-36.37-9.56-8.74-2.13-17.66-3.37-26.61-4.34,10.7,34.24,16.73,69.93,17.86,105.78h132.03Z"/>
      <path class="st6" d="M532.76,470.01c-15.61-4.91-34.18-.23-48.13-8.95-2.01-1.26-3.91-2.79-6.19-3.43-5.34-1.52-10.8,2.33-14.06,6.83-1.28,1.77-2.38,3.67-3.47,5.56h71.85Z"/>
      <path class="st6" d="M460.91,470.01c1.1-1.89,2.2-3.79,3.47-5.56,3.26-4.5,8.71-8.34,14.06-6.83,2.28.65,4.18,2.18,6.19,3.43,13.95,8.73,32.52,4.04,48.13,8.95h17.52c-1.13-35.85-7.15-71.54-17.86-105.78-.29-.94-.57-1.88-.87-2.81-16.63-4.12-31.72-14.02-42.35-27.44-2.11,3.68-4.37,7.28-6.8,10.79-.21,3.7-.74,7.48-1.25,11.27-.64,4.83-1.24,9.67-1.09,14.38.13,4.18.88,8.32,1.24,12.49,2,23.77-8.88,46.51-19.48,67.87-1.98,3.98-3.98,8.01-6.91,11.36-2.37,2.7-5.27,4.87-8.05,7.15-.29.24-.57.48-.85.72h14.89Z"/>
      <path class="st6" d="M232.47,470.01c-.49-.59-.89-1.24-1.18-1.96,8.73-27.94,18.52-55.55,29.32-82.76,1.49-3.76,3.04-7.57,5.51-10.77,1.47-1.9,3.19-3.51,5.08-4.94-2.38.1-4.51.27-5.54.68-2.88,1.15-13.96,12.98-16.77,14.29-11.54,5.41-24.15,8.04-36.63,10.62-7.6,1.57-15.4-.62-23,.95-7.75,1.61-15.3,6.98-23.05,8.59-4.66.96-9.54,2.04-13.11,5.18-5.11,4.49-33.59,46.43-34.03,53.22-.19,2.89.19,5.12,1,6.89h112.41Z"/>
      <path class="st6" d="M315.36,470.01c-2.65-5.18-5.35-10.33-9.45-14.41-1.71-1.71-3.75-3.24-6.13-3.64-2.74-.46-5.49.64-8.05,1.72-12.95,5.44-25.89,10.89-38.84,16.33h62.47Z"/>
      <path class="st6" d="M252.89,470.01c12.95-5.44,25.89-10.89,38.84-16.33,2.57-1.08,5.31-2.18,8.05-1.72,2.38.4,4.42,1.94,6.13,3.64,4.1,4.08,6.8,9.22,9.45,14.41h18.11c-.54-.48-1.08-.97-1.6-1.46-6.48-6.16-10.92-14.12-15.27-21.94-3.74-6.74-7.55-13.68-8.67-21.31-.84-5.73-.11-11.61-1.13-17.31-.76-4.26-2.49-8.35-2.68-12.67-.17-3.82.87-7.57,1.75-11.29,1.29-5.44,2.23-10.94,2.93-16.46,1.25-9.84,1.68-19.79,1.65-29.77-5.48,3.46-8.23,10.39-12.73,15.31-7.03,7.69-18.32,10.32-26.52,16.48-1.89,1.42-3.62,3.03-5.08,4.94-2.47,3.2-4.01,7.01-5.51,10.77-10.8,27.21-20.58,54.82-29.32,82.76.29.72.69,1.38,1.18,1.96h20.42Z"/>
      <path class="st6" d="M306.81,407.99c1.02,5.7.3,11.58,1.13,17.31,1.12,7.63,4.92,14.56,8.67,21.31,4.34,7.82,8.78,15.77,15.27,21.94.52.49,1.06.98,1.6,1.46h112.54c.29-.24.57-.49.85-.72,2.78-2.28,5.68-4.45,8.05-7.15,2.93-3.34,4.94-7.38,6.91-11.36,10.6-21.37,21.48-44.11,19.48-67.87-.35-4.17-1.1-8.31-1.24-12.49-.15-4.71.45-9.55,1.09-14.38.5-3.79,1.03-7.57,1.25-11.27-1.66,2.4-3.38,4.76-5.19,7.06-3.87,4.92-8.1,9.6-13.02,13.48-1.74,1.38-3.57,2.63-5.45,3.79-10.3,6.36-22.46,9.59-34.59,10.58-13.25,1.08-26.57-.34-38.62-2.96-1.88-.41-3.7-1-5.46-1.78-13.78-6.15-39.17-18.9-53.49-36.43-6.85-8.39-12.44-17.42-16.95-26,.44,8.42.78,16.86.8,25.28.03,9.98-.41,19.93-1.65,29.77-.7,5.53-1.65,11.02-2.93,16.46-.88,3.72-1.92,7.48-1.75,11.29.19,4.32,1.92,8.42,2.68,12.67Z"/>
      <path class="st6" d="M526.89,243.46c0-.38.01-.76.02-1.13-.04.38-.04.76-.02,1.13Z"/>
      <path class="st6" d="M561.78,240.14c-12.89-5.33-23.79-15.33-30.19-27.72,5.65-.76,11.3-1.53,16.95-2.29,2.56-.35,5.17-.71,7.5-1.82,2.77-1.32,4.94-3.62,6.88-5.99,1.57-1.93,3.07-4.01,3.68-6.42,1.35-5.36-1.93-10.69-5.06-15.25-3.03-4.42-6.11-8.89-10.22-12.32-2.17-1.81-4.66-3.37-6.12-5.78-2.63-4.34-1.16-9.86-.51-14.9.75-5.77.28-11.7-1.37-17.28,1.14-6.01-2.64-10.46-6.16-14.14-1.99-2.08-4-4.18-6.39-5.78-1.9-1.27-4.01-2.2-6.04-3.25-5.16-2.67-9.88-6.18-13.94-10.34-1.73-4.39,1.74-4.87,3.76-4.63,4.64.56,8.34-4.64,7.98-9.3-.36-4.66-3.46-8.6-6.62-12.05-3.15-3.44-6.61-6.89-8-11.35-.46-1.48-.7-3.07-1.58-4.34-1.5-2.15-4.35-2.73-6.82-3.59-9.29-3.22-15.73-12.08-24.96-15.45-8.2-3-17.45-1.25-25.88-3.57-5.69-1.57-10.74-4.93-16.35-6.76-10.81-3.53-23.44-.75-31.78,6.99,1.51-2.81,2.64-5.01,3.78-7.2.55-1.07,1.07-2.46.29-3.37-.8-.94-2.31-.59-3.45-.12-2.55,1.04-5.01,2.3-7.35,3.74,2.49-3.05,5.02-7.5,2.55-10.56-1.57-1.94-4.59-2.15-6.86-1.12-2.27,1.03-3.96,3.01-5.49,4.98-3.21,4.14-6.21,8.82-6.49,14.06-23.02-4.33-48.19,7.31-59.78,27.66-4.34-2.37-9.22-1.37-12.71,1.1-3.49,2.47-5.91,6.15-8.23,9.74-7.33,11.31-14.94,24.98-10.01,37.53-7.67,3.59-15.72,8.35-18.53,16.34-2.81,7.97.44,16.68,3.65,24.51-9.67.59-18.68,7.33-21.98,16.44-1.13,3.12-1.12,7.49,1.93,8.79,1.44.61,3.12.28,4.64.68,4.29,1.13,4.97,7.29,2.86,11.19-2.11,3.91-5.89,6.7-8.04,10.58-4.41,7.98.57,19.51,9.4,21.76,2,.51,4.11.61,6.05,1.34,7.08,2.68,8.43,13,4.23,19.3s-11.81,9.31-19.12,11.28c2.77,3.51,8.28-.55,12.73-.12,5.56.54,7.5,7.64,7.55,13.22.07,6.78,10.26,10.42,8.92,17.07-1.79,8.83-15.63,20.57-19.78,28.57,9.48,2.05,23.11-18.99,24.64-28.57s-6.75-7.37-9.47-16.69c-.53-1.83-1.04-3.79-.51-5.62.55-1.89,2.11-3.3,3.65-4.54,1.58-1.28,3.27-2.52,5.04-3.55,2.75-1.6,5.72-2.69,8.87-2.63,5.18.09,10.52,4.62,9.63,9.72,2.32-2.42,4.74-6.12,2.69-8.77-1.27-1.64-3.63-1.84-5.45-2.82-2.28-1.21-3.54-3.46-4.31-5.99,5.97,3.11,13.9,1.93,18.68-2.82,4.86-4.83,6.06-12.94,2.8-18.96-1.9-3.52-5.04-6.18-7.52-9.32s-4.4-7.25-3.2-11.07c1.01-3.23,3.97-5.43,6.91-7.12,6.69-3.85,14.18-6.29,21.85-7.13,2-.22,4.11-.36,5.77-1.49,3.17-2.14,3.3-6.68,3.02-10.49-.66-9.01-1.77-18-3.31-26.9-1.34-7.75-2.76-16.57,2.09-22.76,1.84-2.34,4.39-4.01,6.94-5.54,11.38-6.85,23.72-12.11,36.54-15.55,13.83.06,25.78,4.58,40.06,7.33,3.37.65,25.46-.63,30.39,4.66,2.51,1.53-1.97,14.1-2.93,18.33-.92,4.04.49,8.25,2.29,11.98,9.31,19.33,28.88,31.94,49.2,38.83-4.17,9.45-8.59,21.05-3.75,30.82,2.32,4.69,6.51,8.23,8.97,12.85,2.12,3.99,2.82,8.56,3.49,13.02.63,4.21,1.25,8.49,1.55,12.76.43,6.22.15,12.41-1.86,18.27,6.49-6.34,2.33-19.35,9.63-24.73-1.29,2.68-1.33,5.76-1.35,8.73-.09,14.54-.1,29.53,5.4,42.99-1.01-17.97-1.29-35.98-.85-53.97.17,4.58,3.92,8.43,6.49,12.4,6.74,10.43,9.36,25.23,3.5,36.18-8.04,15.03,2.3,19.86-1.14,30.33-2.61,7.91-12.62,17.35-16.04,24.94,6.05-7.97,18.41-11.23,20.69-20.98,1.29-5.52-1.3-11.09-2.43-16.65-1.7-8.39,0-17.11,2.56-25.28,2.38-7.6,5.55-15.64,3.3-23.29-1.44-4.87-4.91-8.85-7.35-13.3-2.62-4.79-4.06-10.22-4.15-15.68,1.14,3.16,4.49,4.84,7.55,6.22,6.96,3.13,13.92,6.26,20.88,9.39,2.56,1.15,5.19,2.32,8,2.5,2.8.18,5.86-.84,7.35-3.22-4.09-3.41-9.41-4.86-14.33-6.89ZM306.33,232.68c-1.34,4.39-5.7,7.56-10.28,7.88-.48-1.61-.76-3.33-.98-4.96-.89-6.55-1.78-13.09-2.68-19.64.53,1.27,1.74,2.33,3.03,2.91,1.89.85,4.02,1.08,5.89,1.96,4.23,1.99,6.38,7.37,5.01,11.84Z"/>
      <path class="st6" d="M292.08,272.32c-1.07,7.76-4.05,32.14.34,33.95,6.59,2.71,9.09-1.72,9.69-9.9-5.32-12.83-7.7-22.17-7.85-22.46-.44-.8-1.33-1.19-2.17-1.58Z"/>
      <path class="st6" d="M501.19,324.04c3.2-2.5,2.32-12.22,1.26-18.93-1.92,5.28-4.06,10.5-6.42,15.61,1.44,2.92,3.21,4.85,5.16,3.32Z"/>
      <path class="st6" d="M514.37,239.41c-.67-4.47-1.38-9.03-3.49-13.02-2.45-4.62-6.65-8.16-8.97-12.85-4.83-9.77-.42-21.37,3.75-30.82-20.32-6.89-39.89-19.5-49.2-38.83-1.8-3.74-3.21-7.94-2.29-11.98.96-4.22,5.44-16.8,2.93-18.33-4.94-5.29-27.02-4.01-30.39-4.66-14.28-2.75-26.23-7.27-40.06-7.33-12.83,3.45-25.17,8.7-36.54,15.55-2.55,1.54-5.1,3.2-6.94,5.54-4.85,6.19-3.43,15.01-2.09,22.76,1.54,8.91,2.64,17.89,3.31,26.9.28,3.81.15,8.35-3.02,10.49-1.66,1.12-3.77,1.27-5.77,1.49-7.67.84-15.16,3.28-21.85,7.13-2.94,1.69-5.9,3.88-6.91,7.12-1.19,3.82.72,7.94,3.2,11.07s5.62,5.8,7.52,9.32c3.26,6.03,2.06,14.13-2.8,18.96-4.78,4.75-12.71,5.92-18.68,2.82.77,2.53,2.03,4.78,4.31,5.99,1.83.97,4.19,1.18,5.45,2.82,2.05,2.65-.38,6.35-2.69,8.77.89-5.11-4.44-9.63-9.63-9.72-3.15-.05-6.12,1.04-8.87,2.63-.1.9-.19,1.79-.26,2.68-.54,6.97,1.06,15.24,7.36,18.28.1.05.2.1.31.15.84.39,1.74.78,2.17,1.58.15.29,2.53,9.63,7.85,22.46,2.06,4.97,4.56,10.45,7.55,16.14,4.5,8.58,10.1,17.61,16.95,26,14.32,17.53,39.71,30.28,53.49,36.43,1.75.78,3.58,1.37,5.46,1.78,12.05,2.62,25.36,4.04,38.62,2.96,12.12-.99,24.29-4.22,34.59-10.58,1.88-1.16,3.7-2.41,5.45-3.79,4.91-3.88,9.15-8.56,13.02-13.48,1.81-2.3,3.53-4.67,5.19-7.06,2.42-3.51,4.69-7.11,6.8-10.79,2.47-4.32,4.74-8.75,6.83-13.26,2.36-5.11,4.5-10.33,6.42-15.61,6.34-17.4,10.46-35.51,13.47-52.94-.29-4.27-.91-8.55-1.55-12.76Z"/>
    </g>
    <g>
      <path class="st4" d="M308.76,230.77c1.36-4.47-.78-9.86-5.01-11.84-1.88-.88-4-1.11-5.89-1.96-1.3-.59-2.5-1.65-3.03-2.91.89,6.55,1.78,13.09,2.68,19.64.22,1.63.51,3.35.98,4.96,4.58-.32,8.94-3.49,10.28-7.88Z"/>
      <path class="st3" d="M685.02,470.01c-3.77-12.8-5.22-26.65-10.71-38.88-4.82-10.72-12.59-19.82-20.55-28.47-7.82-8.49-12.8-11.74-23.66-15.68-9.14-3.32-22.65-8.34-32.25-9.81-12.4-1.9-24.18-6.58-36.37-9.56-8.74-2.13-17.66-3.37-26.61-4.34,10.8,34.54,16.83,70.56,17.89,106.74h132.27Z"/>
      <path class="st3" d="M537.88,470.01c-16.13-6.46-36.05-.68-50.81-9.91-2.01-1.26-3.91-2.79-6.19-3.43-5.34-1.52-10.8,2.33-14.06,6.83-1.49,2.06-2.74,4.31-4.03,6.52h75.09Z"/>
      <path class="st3" d="M460.3,470.01c1.5-2.51,2.89-5.11,4.6-7.47,3.26-4.5,8.71-8.34,14.06-6.83,2.28.65,4.18,2.18,6.19,3.43,15.02,9.39,35.38,3.24,51.65,10.25.46.2.93.41,1.4.62h12.66c-.97-36.5-7.02-72.85-17.91-107.7-.29-.94-.57-1.88-.87-2.81-16.63-4.12-31.72-14.02-42.35-27.44-2.11,3.68-4.37,7.28-6.8,10.79-.21,3.7-.74,7.48-1.25,11.27-.64,4.83-1.24,9.67-1.09,14.38.13,4.18.88,8.32,1.24,12.49,2,23.77-8.88,46.51-19.48,67.87-1.98,3.98-3.98,8.01-6.91,11.36-2.37,2.7-5.27,4.87-8.05,7.15-1.04.86-2.08,1.74-3.09,2.64h16Z"/>
      <path class="st3" d="M250.6,470.01h68.17c-2.99-5.82-5.83-11.74-10.43-16.32-1.71-1.71-3.75-3.24-6.13-3.64-2.74-.46-5.49.64-8.05,1.72-13.34,5.61-26.68,11.22-40.03,16.83-1.16.49-2.34.97-3.53,1.41Z"/>
      <path class="st3" d="M237.18,470.01c-1.53-.91-2.78-2.21-3.45-3.88,8.73-27.94,18.52-55.55,29.32-82.76,1.49-3.76,3.04-7.57,5.51-10.77,1.47-1.9,3.19-3.51,5.08-4.94-2.38.1-4.51.27-5.54.68-2.88,1.15-13.96,12.98-16.77,14.29-11.54,5.41-24.15,8.04-36.63,10.62-7.6,1.57-15.4-.62-23,.95-7.75,1.61-15.3,6.98-23.05,8.59-4.66.96-9.54,2.04-13.11,5.18-5.11,4.49-33.59,46.43-34.03,53.22-.27,4.05.59,6.82,2.18,8.81h113.5Z"/>
      <path class="st3" d="M245.01,469.68c3.84,0,7.5-1.51,11.04-3,13.34-5.61,26.68-11.22,40.03-16.83,2.57-1.08,5.31-2.18,8.05-1.72,2.38.4,4.42,1.94,6.13,3.64,5.11,5.09,8.05,11.83,11.43,18.24h20.54c-2-1.78-4.1-3.48-6-5.29-6.48-6.16-10.92-14.12-15.27-21.94-3.74-6.74-7.55-13.68-8.67-21.31-.84-5.73-.11-11.61-1.13-17.31-.76-4.26-2.49-8.35-2.68-12.67-.17-3.82.87-7.57,1.75-11.29,1.29-5.44,2.23-10.94,2.93-16.46,1.25-9.84,1.68-19.79,1.65-29.77-5.48,3.46-8.23,10.39-12.73,15.31-7.03,7.69-18.32,10.32-26.52,16.48-1.89,1.42-3.62,3.03-5.08,4.94-2.47,3.2-4.01,7.01-5.51,10.77-10.8,27.21-20.58,54.82-29.32,82.76,1.42,3.57,5.52,5.47,9.36,5.47Z"/>
      <path class="st4" d="M309.24,406.08c1.02,5.7.3,11.58,1.13,17.31,1.12,7.63,4.92,14.56,8.67,21.31,4.34,7.82,8.78,15.77,15.27,21.94,1.21,1.15,2.51,2.26,3.8,3.37h108.11c1.01-.9,2.04-1.78,3.09-2.64,2.78-2.28,5.68-4.45,8.05-7.15,2.93-3.34,4.94-7.38,6.91-11.36,10.6-21.37,21.48-44.11,19.48-67.87-.35-4.17-1.1-8.31-1.24-12.49-.15-4.71.45-9.55,1.09-14.38.5-3.79,1.03-7.57,1.25-11.27-1.66,2.4-3.38,4.76-5.19,7.06-3.87,4.92-8.1,9.6-13.02,13.48-1.74,1.38-3.57,2.63-5.45,3.79-10.3,6.36-22.46,9.59-34.59,10.58-13.25,1.08-26.57-.34-38.62-2.96-1.88-.41-3.7-1-5.46-1.78-13.78-6.15-39.17-18.9-53.49-36.43-6.85-8.39-12.44-17.42-16.95-26,.44,8.42.78,16.86.8,25.28.03,9.98-.41,19.93-1.65,29.77-.7,5.53-1.65,11.02-2.93,16.46-.88,3.72-1.92,7.48-1.75,11.29.19,4.32,1.92,8.42,2.68,12.67Z"/>
      <path class="st8" d="M529.32,241.55c0-.38.01-.76.02-1.13-.04.38-.04.76-.02,1.13Z"/>
      <path class="st0" d="M294.51,270.41c-1.07,7.76-4.05,32.14.34,33.95,6.59,2.71,9.09-1.72,9.69-9.9-5.32-12.83-7.7-22.17-7.85-22.46-.44-.8-1.33-1.19-2.17-1.58Z"/>
      <path class="st0" d="M503.62,322.12c3.2-2.5,2.32-12.22,1.26-18.93-1.92,5.28-4.06,10.5-6.42,15.61,1.44,2.92,3.21,4.85,5.16,3.32Z"/>
      <path class="st4" d="M514.89,235.58c-.67-4.47-1.38-9.03-3.49-13.02-2.45-4.62-6.65-8.16-8.97-12.85-4.83-9.77-.42-21.37,3.75-30.82-20.32-6.89-39.89-19.5-49.2-38.83-1.8-3.74-3.21-7.94-2.29-11.98.96-4.22,5.44-16.8,2.93-18.33-4.94-5.29-27.02-4.01-30.39-4.66-14.28-2.75-26.23-7.27-40.06-7.33-12.83,3.45-25.17,8.7-36.54,15.55-2.55,1.54-5.1,3.2-6.94,5.54-4.85,6.19-3.43,15.01-2.09,22.76,1.54,8.91,2.64,17.89,3.31,26.9.28,3.81.15,8.35-3.02,10.49-1.66,1.12-3.77,1.27-5.77,1.49-7.67.84-15.16,3.28-21.85,7.13-2.94,1.69-5.9,3.88-6.91,7.12-1.19,3.82.72,7.94,3.2,11.07s5.62,5.8,7.52,9.32c3.26,6.03,2.06,14.13-2.8,18.96-4.78,4.75-12.71,5.92-18.68,2.82.77,2.53,2.03,4.78,4.31,5.99,1.83.97,4.19,1.18,5.45,2.82,2.05,2.65-.38,6.35-2.69,8.77.89-5.11-4.44-9.63-9.63-9.72-3.15-.05-6.12,1.04-8.87,2.63-.1.9-.19,1.79-.26,2.68-.54,6.97,1.06,15.24,7.36,18.28.1.05.2.1.31.15.84.39,1.74.78,2.17,1.58.15.29,2.53,9.63,7.85,22.46,2.06,4.97,4.56,10.45,7.55,16.14,4.5,8.58,10.1,17.61,16.95,26,14.32,17.53,39.71,30.28,53.49,36.43,1.75.78,3.58,1.37,5.46,1.78,12.05,2.62,25.36,4.04,38.62,2.96,12.12-.99,24.29-4.22,34.59-10.58,1.88-1.16,3.7-2.41,5.45-3.79,4.91-3.88,9.15-8.56,13.02-13.48,1.81-2.3,3.53-4.67,5.19-7.06,2.42-3.51,4.69-7.11,6.8-10.79,2.47-4.32,4.74-8.75,6.83-13.26,2.36-5.11,4.5-10.33,6.42-15.61,6.34-17.4,10.46-35.51,13.47-52.94-.29-4.27-.91-8.55-1.55-12.76Z"/>
      <path class="st1" d="M562.3,243.01c-12.89-5.33-23.79-15.33-30.19-27.72,5.65-.76,11.3-1.53,16.95-2.29,2.56-.35,5.17-.71,7.5-1.82,2.77-1.32,4.94-3.62,6.88-5.99,1.57-1.93,3.07-4.01,3.68-6.42,1.35-5.36-1.93-10.69-5.06-15.25-3.03-4.42-6.11-8.89-10.22-12.32-2.17-1.81-4.66-3.37-6.12-5.78-2.63-4.34-1.16-9.86-.51-14.9.75-5.77.28-11.7-1.37-17.28,1.14-6.01-2.64-10.46-6.16-14.14-1.99-2.08-4-4.18-6.39-5.78-1.9-1.27-4.01-2.2-6.04-3.25-5.16-2.67-9.88-6.18-13.94-10.34-1.73-4.39,1.74-4.87,3.76-4.63,4.64.56,8.34-4.64,7.98-9.3-.36-4.66-3.46-8.6-6.62-12.05-3.15-3.44-6.61-6.89-8-11.35-.46-1.48-.7-3.07-1.58-4.34-1.5-2.15-4.35-2.73-6.82-3.59-9.29-3.22-15.73-12.08-24.96-15.45-8.2-3-17.45-1.25-25.88-3.57-5.69-1.57-10.74-4.93-16.35-6.76-10.81-3.53-23.44-.75-31.78,6.99,1.51-2.81,2.64-5.01,3.78-7.2.55-1.07,1.07-2.46.29-3.37-.8-.94-2.31-.59-3.45-.12-2.55,1.04-5.01,2.3-7.35,3.74,2.49-3.05,5.02-7.5,2.55-10.56-1.57-1.94-4.59-2.15-6.86-1.12-2.27,1.03-3.96,3.01-5.49,4.98-3.21,4.14-6.21,8.82-6.49,14.06-23.02-4.33-48.19,7.31-59.78,27.66-4.34-2.37-9.22-1.37-12.71,1.1-3.49,2.47-5.91,6.15-8.23,9.74-7.33,11.31-14.94,24.98-10.01,37.53-7.67,3.59-15.72,8.35-18.53,16.34-2.81,7.97.44,16.68,3.65,24.51-9.67.59-18.68,7.33-21.98,16.44-1.13,3.12-1.12,7.49,1.93,8.79,1.44.61,3.12.28,4.64.68,4.29,1.13,4.97,7.29,2.86,11.19-2.11,3.91-5.89,6.7-8.04,10.58-4.41,7.98.57,19.51,9.4,21.76,2,.51,4.11.61,6.05,1.34,7.08,2.68,8.43,13,4.23,19.3s-11.81,9.31-19.12,11.28c2.77,3.51,8.28-.55,12.73-.12,5.56.54,7.5,7.64,7.55,13.22.07,6.78,10.26,10.42,8.92,17.07-1.79,8.83-15.63,20.57-19.78,28.57,9.48,2.05,23.11-18.99,24.64-28.57s-6.75-7.37-9.47-16.69c-.53-1.83-1.04-3.79-.51-5.62.55-1.89,2.11-3.3,3.65-4.54,1.58-1.28,3.27-2.52,5.04-3.55,2.75-1.6,5.72-2.69,8.87-2.63,5.18.09,10.52,4.62,9.63,9.72,2.32-2.42,4.74-6.12,2.69-8.77-1.27-1.64-3.63-1.84-5.45-2.82-2.28-1.21-3.54-3.46-4.31-5.99,5.97,3.11,13.9,1.93,18.68-2.82,4.86-4.83,6.06-12.94,2.8-18.96-1.9-3.52-5.04-6.18-7.52-9.32s-4.4-7.25-3.2-11.07c1.01-3.23,3.97-5.43,6.91-7.12,6.69-3.85,14.18-6.29,21.85-7.13,2-.22,4.11-.36,5.77-1.49,3.17-2.14,3.3-6.68,3.02-10.49-.66-9.01-1.77-18-3.31-26.9-1.34-7.75-2.76-16.57,2.09-22.76,1.84-2.34,4.39-4.01,6.94-5.54,11.38-6.85,23.72-12.11,36.54-15.55,13.83.06,25.78,4.58,40.06,7.33,3.37.65,25.46-.63,30.39,4.66,2.51,1.53-1.97,14.1-2.93,18.33-.92,4.04.49,8.25,2.29,11.98,9.31,19.33,28.88,31.94,49.2,38.83-4.17,9.45-8.59,21.05-3.75,30.82,2.32,4.69,6.51,8.23,8.97,12.85,2.12,3.99,2.82,8.56,3.49,13.02.63,4.21,1.25,8.49,1.55,12.76.43,6.22.15,12.41-1.86,18.27,6.49-6.34,2.33-19.35,9.63-24.73-1.29,2.68-1.33,5.76-1.35,8.73-.09,14.54-.1,29.53,5.4,42.99-1.01-17.97-1.29-35.98-.85-53.97.17,4.58,3.92,8.43,6.49,12.4,6.74,10.43,9.36,25.23,3.5,36.18-8.04,15.03,2.3,19.86-1.14,30.33-2.61,7.91-12.62,17.35-16.04,24.94,6.05-7.97,18.41-11.23,20.69-20.98,1.29-5.52-1.3-11.09-2.43-16.65-1.7-8.39,0-17.11,2.56-25.28,2.38-7.6,5.55-15.64,3.3-23.29-1.44-4.87-4.91-8.85-7.35-13.3-2.62-4.79-4.06-10.22-4.15-15.68,1.14,3.16,4.49,4.84,7.55,6.22,6.96,3.13,13.92,6.26,20.88,9.39,2.56,1.15,5.19,2.32,8,2.5,2.8.18,5.86-.84,7.35-3.22-4.09-3.41-9.41-4.86-14.33-6.89ZM306.84,235.56c-1.34,4.39-5.7,7.56-10.28,7.88-.48-1.61-.76-3.33-.98-4.96-.89-6.55-1.78-13.09-2.68-19.64.53,1.27,1.74,2.33,3.03,2.91,1.89.85,4.02,1.08,5.89,1.96,4.23,1.99,6.38,7.37,5.01,11.84Z"/>
    </g>
    <path class="st8" d="M392.42,270.18c-3.25,5.6-3.9,10.67-3.03,12.54s2.91,2.91,4.91,3.41,4.1.6,6.04,1.31c5.6,2.03,6.97,5.66,12.56,7.69,4.73,1.72,11.59,2.67,16.26.78,2.46-.99,3.69-2.85,6.08-4.05,2.61-1.31,5.76-2.82,8.26-4.22,1.53-.86,2.42-2.55,2.32-4.31-.18-2.96-.83-7.94-3.13-10.52-3.42-3.82-3.85-10.65-3.85-10.65"/>
    <path class="st8" d="M449.59,317.23c-26.99,5.92-55.74,3.53-81.39-6.75"/>
    <path class="st8" d="M437.05,260.01c-.19,4.92-.37,9.84-.56,14.76.05-.34.1-.68.15-1.02"/>
    <path class="st8" d="M295.3,269.17c-1.32-7.38-2.09-14.87-2.31-22.36"/>
    <path class="st8" d="M423.95,89.22c7.98-.86,16.01-1.37,24.03-1.52,2.5-.05,5.15-.02,7.29,1.27,2.5,1.51,3.76,4.4,4.87,7.1,4.25,10.39,8.58,21.61,6.08,32.55-.69,3.01-1.89,5.94-1.97,9.02-.08,3.03.92,5.98,2.19,8.73,8.8,19.04,32.26,29.94,52.49,24.38"/>
    <path class="st8" d="M539.19,160.76c-4.03-8.5-12.18-14.92-21.39-16.85-3.37-.71-6.95-.87-9.96-2.53-3.59-1.98-5.77-5.73-7.78-9.3-5.65-10.04-11.29-20.09-16.94-30.13"/>
    <path class="st8" d="M389.11,63.18c5.13-14.64,22.13-22.77,37.58-21.3,15.45,1.47,29.19,10.7,40.04,21.8,13.74,14.07,23.77,31.26,33.66,48.26"/>
    <path class="st8" d="M402.68,83.03l20.16-8c1.64-.65,3.32-1.31,5.09-1.38,1.19-.04,2.37.18,3.53.41,4.6.9,9.2,1.79,13.8,2.69,1.27.25,2.56.5,3.74,1.04,1.46.67,2.69,1.74,3.9,2.8,4.85,4.25,9.71,8.5,14.56,12.75"/>
    <path class="st8" d="M338.56,148.01c-1.02-13.18-3.82-26.37-2.28-39.5,1.54-13.13,8.68-26.74,21.18-31.05,5.15-1.77,11.18-1.72,15.72,1.29s6.98,9.34,4.6,14.24"/>
    <path class="st8" d="M394.77,93c-5.41-9.91-12.1-19.12-19.84-27.33-.71-.75-1.45-1.51-2.38-1.93-1.21-.55-2.6-.47-3.92-.36-6,.51-11.96,1.58-17.76,3.18-6.12,1.69-12.85,4.76-14.62,10.86"/>
    <g>
      <path class="st8" d="M306.89,232.9c1.36-4.47-.78-9.86-5.01-11.84-1.88-.88-4-1.11-5.89-1.96-1.3-.59-2.5-1.65-3.03-2.91.89,6.55,1.78,13.09,2.68,19.64.22,1.63.51,3.35.98,4.96,4.58-.32,8.94-3.49,10.28-7.88Z"/>
      <path class="st8" d="M682.82,470.01c-3.52-12.47-5.05-25.85-10.38-37.7-4.82-10.72-12.59-19.82-20.55-28.47-7.82-8.49-12.8-11.74-23.66-15.68-9.14-3.32-22.65-8.34-32.25-9.81-12.4-1.9-24.18-6.58-36.37-9.56-8.74-2.13-17.66-3.37-26.61-4.34,10.68,34.17,16.7,69.78,17.85,105.56h131.98Z"/>
      <path class="st8" d="M532.62,470.01c-15.46-4.56-33.67-.14-47.42-8.74-2.01-1.26-3.91-2.79-6.19-3.43-5.34-1.52-10.8,2.33-14.06,6.83-1.23,1.7-2.29,3.52-3.35,5.34h71.01Z"/>
      <path class="st8" d="M461.61,470.01c1.06-1.82,2.12-3.65,3.35-5.34,3.26-4.5,8.71-8.34,14.06-6.83,2.28.65,4.18,2.18,6.19,3.43,13.74,8.6,31.96,4.18,47.42,8.74h18.23c-1.15-35.78-7.17-71.4-17.85-105.56-.29-.94-.57-1.88-.87-2.81-16.63-4.12-31.72-14.02-42.35-27.44-2.11,3.68-4.37,7.28-6.8,10.79-.21,3.7-.74,7.48-1.25,11.27-.64,4.83-1.24,9.67-1.09,14.38.13,4.18.88,8.32,1.24,12.49,2,23.77-8.88,46.51-19.48,67.87-1.98,3.98-3.98,8.01-6.91,11.36-2.37,2.7-5.27,4.87-8.05,7.15-.2.17-.4.34-.6.51h14.77Z"/>
      <path class="st8" d="M315.81,470.01c-2.62-5.11-5.3-10.17-9.34-14.19-1.71-1.71-3.75-3.24-6.13-3.64-2.75-.46-5.49.64-8.05,1.72-12.77,5.37-25.55,10.74-38.32,16.11h61.84Z"/>
      <path class="st8" d="M232.86,470.01c-.41-.53-.75-1.11-1-1.74,8.73-27.94,18.52-55.55,29.32-82.76,1.49-3.76,3.04-7.57,5.51-10.77,1.47-1.9,3.19-3.51,5.08-4.94-2.38.1-4.51.27-5.54.68-2.88,1.15-13.96,12.98-16.77,14.29-11.54,5.41-24.15,8.04-36.63,10.62-7.6,1.57-15.4-.62-23,.95-7.75,1.61-15.3,6.98-23.05,8.59-4.66.96-9.54,2.04-13.11,5.18-5.11,4.49-33.59,46.43-34.03,53.22-.18,2.77.16,4.94.9,6.67h112.33Z"/>
      <path class="st8" d="M253.97,470.01c12.77-5.37,25.55-10.74,38.32-16.11,2.57-1.08,5.31-2.18,8.05-1.72,2.38.4,4.42,1.94,6.13,3.64,4.04,4.02,6.72,9.08,9.34,14.19h17.98c-.46-.41-.91-.82-1.35-1.24-6.48-6.16-10.92-14.12-15.27-21.94-3.74-6.74-7.55-13.68-8.67-21.31-.84-5.73-.11-11.61-1.13-17.31-.76-4.26-2.49-8.35-2.68-12.67-.17-3.82.87-7.57,1.75-11.29,1.29-5.44,2.23-10.94,2.93-16.46,1.25-9.84,1.68-19.79,1.65-29.77-5.48,3.46-8.23,10.39-12.73,15.31-7.03,7.69-18.32,10.32-26.52,16.48-1.89,1.42-3.62,3.03-5.08,4.94-2.47,3.2-4.01,7.01-5.51,10.77-10.8,27.21-20.58,54.82-29.32,82.76.25.64.59,1.22,1,1.74h21.11Z"/>
      <path class="st8" d="M452.78,464.58c1.53-1.78,3.53-3.78,5.53-5.78,11-19,21-39,23-61,1-18-1-36,1.67-52.82-6.44,9.34-.57,9.63,0,0-6.44,9.34-13.9,18.31-23.65,24.34"/>
      <path class="st8" d="M327.17,338.73c-6.55-8.03-12.14-16.82-16.95-26,1.12,21.52,1.64,43.3-2.33,64.58-1.59,6.49-3.59,13.49-2.59,20.49,2,12,2,23,5,35,4,12,11,22,18.68,31.74"/>
      <path class="st8" d="M527.46,243.68c0-.38.01-.76.02-1.13-.04.38-.04.76-.02,1.13Z"/>
      <path class="st8" d="M562.34,240.35c-12.89-5.33-23.79-15.33-30.19-27.72,5.65-.76,11.3-1.53,16.95-2.29,2.56-.35,5.17-.71,7.5-1.82,2.77-1.32,4.94-3.62,6.88-5.99,1.57-1.93,3.07-4.01,3.68-6.42,1.35-5.36-1.93-10.69-5.06-15.25-3.03-4.42-6.11-8.89-10.22-12.32-2.17-1.81-4.66-3.37-6.12-5.78-2.63-4.34-1.16-9.86-.51-14.9.75-5.77.28-11.7-1.37-17.28,1.14-6.01-2.64-10.46-6.16-14.14-1.99-2.08-4-4.18-6.39-5.78-1.9-1.27-4.01-2.2-6.04-3.25-5.16-2.67-9.88-6.18-13.94-10.34-1.73-4.39,1.74-4.87,3.76-4.63,4.64.56,8.34-4.64,7.98-9.3s-3.46-8.6-6.62-12.05c-3.15-3.44-6.61-6.89-8-11.35-.46-1.48-.7-3.07-1.58-4.34-1.5-2.15-4.35-2.73-6.82-3.59-9.29-3.22-15.73-12.08-24.96-15.45-8.2-3-17.45-1.25-25.88-3.57-5.69-1.57-10.74-4.93-16.35-6.76-10.81-3.53-23.44-.75-31.78,6.99,1.51-2.81,2.64-5.01,3.78-7.2.55-1.07,1.07-2.46.29-3.37-.8-.94-2.31-.59-3.45-.12-2.55,1.04-5.01,2.3-7.35,3.74,2.49-3.05,5.02-7.5,2.55-10.56-1.57-1.94-4.59-2.15-6.86-1.12-2.27,1.03-3.96,3.01-5.49,4.98-3.21,4.14-6.21,8.82-6.49,14.06-23.02-4.33-48.19,7.31-59.78,27.66-4.34-2.37-9.22-1.37-12.71,1.1-3.49,2.47-5.91,6.15-8.23,9.74-7.33,11.31-14.94,24.98-10.01,37.53-7.67,3.59-15.72,8.35-18.53,16.34-2.81,7.97.44,16.68,3.65,24.51-9.67.59-18.68,7.33-21.98,16.44-1.13,3.12-1.12,7.49,1.93,8.79,1.44.61,3.12.28,4.64.68,4.29,1.13,4.97,7.29,2.86,11.19-2.11,3.91-5.89,6.7-8.04,10.58-4.41,7.98.57,19.51,9.4,21.76,2,.51,4.11.61,6.05,1.34,7.08,2.68,8.43,13,4.23,19.3-4.19,6.3-11.81,9.31-19.12,11.28,2.77,3.51,8.28-.55,12.73-.12,5.56.54,7.5,7.64,7.55,13.22.07,6.78,10.26,10.42,8.92,17.07-1.79,8.83-15.63,20.57-19.78,28.57,9.48,2.05,23.11-18.99,24.64-28.57,1.53-9.58-6.75-7.37-9.47-16.69-.53-1.83-1.04-3.79-.51-5.62.55-1.89,2.11-3.3,3.65-4.54,1.58-1.28,3.27-2.52,5.04-3.55,2.75-1.6,5.72-2.69,8.87-2.63,5.18.09,10.52,4.62,9.63,9.72,2.32-2.42,4.74-6.12,2.69-8.77-1.27-1.64-3.63-1.84-5.45-2.82-2.28-1.21-3.54-3.46-4.31-5.99,5.97,3.11,13.9,1.93,18.68-2.82,4.86-4.83,6.06-12.94,2.8-18.96-1.9-3.52-5.04-6.18-7.52-9.32s-4.4-7.25-3.2-11.07c1.01-3.23,3.97-5.43,6.91-7.12,6.69-3.85,14.18-6.29,21.85-7.13,2-.22,4.11-.36,5.77-1.49,3.17-2.14,3.3-6.68,3.02-10.49-.66-9.01-1.77-18-3.31-26.9-1.34-7.75-2.76-16.57,2.09-22.76,1.84-2.34,4.39-4.01,6.94-5.54,11.38-6.85,23.72-12.11,36.54-15.55,13.83.06,25.78,4.58,40.06,7.33,3.37.65,25.46-.63,30.39,4.66,2.51,1.53-1.97,14.1-2.93,18.33-.92,4.04.49,8.25,2.29,11.98,9.31,19.33,28.88,31.94,49.2,38.83-4.17,9.45-8.59,21.05-3.75,30.82,2.32,4.69,6.51,8.23,8.97,12.85,2.12,3.99,2.82,8.56,3.49,13.02.63,4.21,1.25,8.49,1.55,12.76.43,6.22.15,12.41-1.86,18.27,6.49-6.34,2.33-19.35,9.63-24.73-1.29,2.68-1.33,5.76-1.35,8.73-.09,14.54-.1,29.53,5.4,42.99-1.01-17.97-1.29-35.98-.85-53.97.17,4.58,3.92,8.43,6.49,12.4,6.74,10.43,9.36,25.23,3.5,36.18-8.04,15.03,2.3,19.86-1.14,30.33-2.61,7.91-12.62,17.35-16.04,24.94,6.05-7.97,18.41-11.23,20.69-20.98,1.29-5.52-1.3-11.09-2.43-16.65-1.7-8.39,0-17.11,2.56-25.28,2.38-7.6,5.55-15.64,3.3-23.29-1.44-4.87-4.91-8.85-7.35-13.3-2.62-4.79-4.06-10.22-4.15-15.68,1.14,3.16,4.49,4.84,7.55,6.22,6.96,3.13,13.92,6.26,20.88,9.39,2.56,1.15,5.19,2.32,8,2.5,2.8.18,5.86-.84,7.35-3.22-4.09-3.41-9.41-4.86-14.33-6.89ZM306.89,232.9c-1.34,4.39-5.7,7.56-10.28,7.88-.48-1.61-.76-3.33-.98-4.96-.89-6.55-1.78-13.09-2.68-19.64.53,1.27,1.74,2.33,3.03,2.91,1.89.85,4.02,1.08,5.89,1.96,4.23,1.99,6.38,7.37,5.01,11.84Z"/>
      <path class="st8" d="M292.65,272.54c-1.07,7.76-4.05,32.14.34,33.95,6.59,2.71,9.09-1.72,9.69-9.9-5.32-12.83-7.7-22.17-7.85-22.46-.44-.8-1.33-1.19-2.17-1.58Z"/>
      <path class="st8" d="M501.76,324.26c3.2-2.5,2.32-12.22,1.26-18.93-1.92,5.28-4.06,10.5-6.42,15.61,1.44,2.92,3.21,4.85,5.16,3.32Z"/>
      <path class="st8" d="M514.94,239.62c-.67-4.47-1.38-9.03-3.49-13.02-2.45-4.62-6.65-8.16-8.97-12.85-4.83-9.77-.42-21.37,3.75-30.82-20.32-6.89-39.89-19.5-49.2-38.83-1.8-3.74-3.21-7.94-2.29-11.98.96-4.22,5.44-16.8,2.93-18.33-4.94-5.29-27.02-4.01-30.39-4.66-14.28-2.75-26.23-7.27-40.06-7.33-12.83,3.45-25.17,8.7-36.54,15.55-2.55,1.54-5.1,3.2-6.94,5.54-4.85,6.19-3.43,15.01-2.09,22.76,1.54,8.91,2.64,17.89,3.31,26.9.28,3.81.15,8.35-3.02,10.49-1.66,1.12-3.77,1.27-5.77,1.49-7.67.84-15.16,3.28-21.85,7.13-2.94,1.69-5.9,3.88-6.91,7.12-1.19,3.82.72,7.94,3.2,11.07s5.62,5.8,7.52,9.32c3.26,6.03,2.06,14.13-2.8,18.96-4.78,4.75-12.71,5.92-18.68,2.82.77,2.53,2.03,4.78,4.31,5.99,1.83.97,4.19,1.18,5.45,2.82,2.05,2.65-.38,6.35-2.69,8.77.89-5.11-4.44-9.63-9.63-9.72-3.15-.05-6.12,1.04-8.87,2.63-.1.9-.19,1.79-.26,2.68-.54,6.97,1.06,15.24,7.36,18.28.1.05.2.1.31.15.84.39,1.74.78,2.17,1.58.15.29,2.53,9.63,7.85,22.46,2.06,4.97,4.56,10.45,7.55,16.14,4.5,8.58,10.1,17.61,16.95,26,14.32,17.53,58.21,41.32,91.85,38.13,12.11-1.15,30.01-1.18,40.31-7.54,1.88-1.16,3.7-2.41,5.45-3.79,4.91-3.88,9.15-8.56,13.02-13.48,1.81-2.3,3.53-4.67,5.19-7.06,2.42-3.51,4.69-7.11,6.8-10.79,2.47-4.32,4.74-8.75,6.83-13.26,2.36-5.11,4.5-10.33,6.42-15.61,6.34-17.4,10.46-35.51,13.47-52.94-.29-4.27-.91-8.55-1.55-12.76Z"/>
    </g>
    <circle class="st2" cx="372.3" cy="217.86" r="7.64"/>
    <circle class="st2" cx="466.33" cy="225.5" r="7.64"/>
    <path class="st6" d="M533.75,223.69c-.05-1-.21-2.07-.9-2.8-.63-.67-1.58-.9-2.48-1.11-31.17-7.07-63.92-7.1-95.11-.08-3.87.87-7.83,1.85-11.75,1.28-3.63-.53-6.91-2.36-10.16-4.05-29.25-15.21-62.98-21.69-95.78-18.4-3.12-1.69-5.41-3.41-7.69-5.12-.18-1.57-1.41-2.7-2.67-3.8-.28-.25-.65-.51-1.01-.39-.27.1-.41.38-.53.64-.69,1.52-1.39,3.03-2.08,4.55-1.43,3.13-2.87,6.77-1.39,9.88,1.6,3.36,5.73,4.4,9.24,5.65,4.95,1.75,9.7,4.85,11.98,9.58,1.54,3.2,1.81,6.83,2.22,10.35.89,7.61,2.53,15.13,4.9,22.41,1.61,4.64,5.44,9.04,10.04,11.97,4.6,2.93,9.95,4.38,15.27,5.57,26.86,5.98,35.04-2.8,38.58-5.65,3.31-2.67,6.21-5.77,8.76-9.08,5.27-6.84,9.21-14.6,13.11-22.3,3.71-1.82,8.46-2.33,12.37-.67.97.41,1.92.98,2.5,1.85.42.63.62,1.37.8,2.1.65,2.65,4.4,20.45,5.97,23.02,4.73,7.73,11.38,24.25,43.95,22.63,9.05-.45,18.04-3.42,24.18-10.09,4.6-5,7.32-11.4,10.21-17.56,1.48-3.15,3.03-6.28,4.65-9.37,2-3.81,4.69-8.01,8.95-8.58,2.94-4.12,4.1-8.3,3.89-12.43ZM406.06,237.04c-.69,2.75-1.77,5.39-2.91,7.99-2.25,5.12-4.83,10.21-8.75,14.2-5.16,5.25-12.37,8.22-19.69,9.02s-14.63-.88-21.74-2.78c-20.42-5.46-22.92-23.91-22.98-28.32-.34-24.96,3.84-29.17,18.09-31.1,10.21-1.39,20.71-.21,30.72,2.23,8.89,2.17,17.46,6.05,24.47,11.88,1.86,1.55,3.07,3.73,3.41,6.13.51,3.64.26,7.27-.62,10.75ZM516.53,239.38c-.3,3.18-2.63,25.7-24.47,36.69-7.56,3.8-16.79,3.18-25.08,1.48-8.29-1.69-16.15-5.93-21.61-12.38-.97-1.15-1.87-2.36-2.61-3.67-1.52-2.68-2.38-5.69-2.89-8.72-1.38-8.18-1.69-17.08,1.66-24.67.42-.95,4.35-8.65,38.28-8.65,20.92,0,26,3.77,32.1,7.07.72.39,1.45.79,1.99,1.4.71.8,1.02,1.86,1.31,2.88.79,2.8,1.59,5.67,1.32,8.56Z"/>
    <path class="st7" d="M533.5,222.27c-.05-1-.21-2.07-.9-2.8-.63-.67-1.58-.9-2.48-1.11-31.17-7.07-63.92-7.1-95.11-.08-3.87.87-7.83,1.85-11.75,1.28-3.63-.53-6.91-2.36-10.16-4.05-29.25-15.21-62.98-21.69-95.78-18.4-3.12-1.69-5.41-3.41-7.69-5.12-.18-1.57-1.41-2.7-2.67-3.8-.28-.25-.65-.51-1.01-.39-.27.1-.41.38-.53.64-.69,1.52-1.39,3.03-2.08,4.55-1.43,3.13-2.87,6.77-1.39,9.88,1.6,3.36,5.73,4.4,9.24,5.65,4.95,1.75,9.7,4.85,11.98,9.58,1.54,3.2,1.81,6.83,2.22,10.35.89,7.61,2.53,15.13,4.9,22.41,1.61,4.64,5.44,9.04,10.04,11.97,4.6,2.93,9.95,4.38,15.27,5.57,26.86,5.98,35.04-2.8,38.58-5.65,3.31-2.67,6.21-5.77,8.76-9.08,5.27-6.84,9.21-14.6,13.11-22.3,3.71-1.82,8.46-2.33,12.37-.67.97.41,1.92.98,2.5,1.85.42.63.62,1.37.8,2.1.65,2.65,4.4,20.45,5.97,23.02,4.73,7.73,11.38,24.25,43.95,22.63,9.05-.45,18.04-3.42,24.18-10.09,4.6-5,7.32-11.4,10.21-17.56,1.48-3.15,3.03-6.28,4.65-9.37,2-3.81,4.69-8.01,8.95-8.58,2.94-4.12,4.1-8.3,3.89-12.43ZM405.81,235.62c-.69,2.75-1.77,5.39-2.91,7.99-2.25,5.12-4.83,10.21-8.75,14.2-5.16,5.25-12.37,8.22-19.69,9.02s-14.63-.88-21.74-2.78c-20.42-5.46-22.92-23.91-22.98-28.32-.34-24.96,3.84-29.17,18.09-31.1,10.21-1.39,20.71-.21,30.72,2.23,8.89,2.17,17.46,6.05,24.47,11.88,1.86,1.55,3.07,3.73,3.41,6.13.51,3.64.26,7.27-.62,10.75ZM516.28,237.96c-.3,3.18-2.63,25.7-24.47,36.69-7.56,3.8-16.79,3.18-25.08,1.48-8.29-1.69-16.15-5.93-21.61-12.38-.97-1.15-1.87-2.36-2.61-3.67-1.52-2.68-2.38-5.69-2.89-8.72-1.38-8.18-1.69-17.08,1.66-24.67.42-.95,4.35-8.65,38.28-8.65,20.92,0,26,3.77,32.1,7.07.72.39,1.45.79,1.99,1.4.71.8,1.02,1.86,1.31,2.88.79,2.8,1.59,5.67,1.32,8.56Z"/>
    <path class="st8" d="M533.75,223.69c-.05-1-.21-2.07-.9-2.8-.63-.67-1.58-.9-2.48-1.11-31.17-7.07-63.92-7.1-95.11-.08-3.87.87-7.83,1.85-11.75,1.28-3.63-.53-6.91-2.36-10.16-4.05-29.25-15.21-62.98-21.69-95.78-18.4-3.12-1.69-5.41-3.41-7.69-5.12-.18-1.57-1.41-2.7-2.67-3.8-.28-.25-.65-.51-1.01-.39-.27.1-.41.38-.53.64-.69,1.52-1.39,3.03-2.08,4.55-1.43,3.13-2.87,6.77-1.39,9.88,1.6,3.36,5.73,4.4,9.24,5.65,4.95,1.75,9.7,4.85,11.98,9.58,1.54,3.2,1.81,6.83,2.22,10.35.89,7.61,2.53,15.13,4.9,22.41,1.61,4.64,5.44,9.04,10.04,11.97,4.6,2.93,9.95,4.38,15.27,5.57,26.86,5.98,35.04-2.8,38.58-5.65,3.31-2.67,6.21-5.77,8.76-9.08,5.27-6.84,9.21-14.6,13.11-22.3,3.71-1.82,8.46-2.33,12.37-.67.97.41,1.92.98,2.5,1.85.42.63.62,1.37.8,2.1.65,2.65,4.4,20.45,5.97,23.02,4.73,7.73,11.38,24.25,43.95,22.63,9.05-.45,18.04-3.42,24.18-10.09,4.6-5,7.32-11.4,10.21-17.56,1.48-3.15,3.03-6.28,4.65-9.37,2-3.81,4.69-8.01,8.95-8.58,2.94-4.12,4.1-8.3,3.89-12.43ZM406.06,237.04c-.69,2.75-1.77,5.39-2.91,7.99-2.25,5.12-4.83,10.21-8.75,14.2-5.16,5.25-12.37,8.22-19.69,9.02s-14.63-.88-21.74-2.78c-20.42-5.46-22.92-23.91-22.98-28.32-.34-24.96,3.84-29.17,18.09-31.1,10.21-1.39,20.71-.21,30.72,2.23,8.89,2.17,17.46,6.05,24.47,11.88,1.86,1.55,3.07,3.73,3.41,6.13.51,3.64.26,7.27-.62,10.75ZM516.53,239.38c-.3,3.18-2.63,25.7-24.47,36.69-7.56,3.8-16.79,3.18-25.08,1.48-8.29-1.69-16.15-5.93-21.61-12.38-.97-1.15-1.87-2.36-2.61-3.67-1.52-2.68-2.38-5.69-2.89-8.72-1.38-8.18-1.69-17.08,1.66-24.67.42-.95,4.35-8.65,38.28-8.65,20.92,0,26,3.77,32.1,7.07.72.39,1.45.79,1.99,1.4.71.8,1.02,1.86,1.31,2.88.79,2.8,1.59,5.67,1.32,8.56Z"/>
    <ellipse class="st6" cx="439.24" cy="275.54" rx="1.13" ry="1.93"/>
    <ellipse class="st8" cx="439.24" cy="275.54" rx="1.13" ry="1.93"/>
    <path class="st8" d="M389.04,327.2s21.67,15.01,45.62,2.56"/>
  </g>
</svg>