<?xml version="1.0" encoding="UTF-8"?>
<svg id="Layer_1" xmlns="http://www.w3.org/2000/svg" xmlns:xlink="http://www.w3.org/1999/xlink" version="1.1" viewBox="0 0 841.89 467.72">
  <!-- Generator: Adobe Illustrator 29.0.0, SVG Export Plug-In . SVG Version: 2.1.0 Build 186)  -->
  <defs>
    <style>
      .st0, .st1 {
        fill: none;
      }

      .st2 {
        fill: #fdf3df;
      }

      .st3 {
        fill: #ca896e;
      }

      .st4 {
        fill: #bbbbbd;
      }

      .st5 {
        fill: #55565a;
      }

      .st6 {
        opacity: .57;
      }

      .st6, .st7 {
        fill: #fff;
      }

      .st8 {
        fill: #1c1d1f;
      }

      .st9 {
        fill: #5f9c70;
      }

      .st10 {
        clip-path: url(#clippath);
      }

      .st1 {
        stroke: #55565a;
        stroke-miterlimit: 10;
        stroke-width: .84px;
      }
    </style>
    <clipPath id="clippath">
      <rect class="st0" width="841.89" height="470.14"/>
    </clipPath>
  </defs>
  <g class="st10">
    <rect class="st9" width="841.89" height="470.14"/>
    <g>
      <polygon class="st7" points="500.04 474.63 474.66 333.37 374.23 296.82 241.92 474.63 500.04 474.63"/>
      <g>
        <path class="st7" d="M343.03,184.98c.71-6.64,1.42-13.28,2.12-19.92.41-3.81.81-7.63,1.62-11.38.1-.48.21-.95.32-1.42-.84-1.82-1.71-4.01-2.32-5.98-.19-.14-.37-.29-.57-.42-3.23-1.38-3.35,8.69-3.59,13.23-.41,7.72,2.08,14.68.54,22.26-.71,3.51-2.56,6.92-2.03,10.46.37,2.54,2.06,4.83,4.35,5.99-.06-.64-.1-1.14-.13-1.46-1.11-3.65-.71-7.56-.31-11.35Z"/>
        <path class="st7" d="M482.99,142.95c-.44-3.79-1.61-7.46-2.15-11.23-.72-5.03-.3-10.15-.22-15.23.18-12.05-1.62-24.25-6.48-35.28-4.85-11.03-12.9-20.83-22.65-26.61-4.55-2.54-9.77-3.89-14.98-3.87-1.99,0-4.02.2-5.94-.33-1.94-.53-3.74-1.8-5.74-1.65-1.6.12-2.98,1.12-4.4,1.87-4.02,2.1-9.81,1.79-12.11-2.19h-.02c-4.25,2.28-7.26,5.1-12.32,7.77-3.25,1.72-6.23,3.89-9.03,6.28-5.1,4.34-13.82,8.13-17.77,13.78-5.54,7.92-11.17,16.04-13.83,25.33-1.33,4.65-1.89,9.49-2.43,14.3-1.32,11.58-2.64,23.17-3.96,34.75-.12,1.02-.23,2.04-.35,3.06-.04.37-.53.46-.7.13-.25-.48-.51-1.02-.78-1.59-.11.47-.22.95-.32,1.42-.8,3.75-1.21,7.57-1.62,11.38-.71,6.64-1.42,13.28-2.12,19.92-.4,3.79-.8,7.7.31,11.35.03.32.07.81.13,1.46.62,6.61,3.03,29.44,9.35,47.21,5.48,15.4,15.84,25.67,16.98,27.54,1.8,2.98,3.34,6.12,5.22,9.05.24.37.48.73.73,1.09.09.12.17.25.25.37,2.35,3.32,9.8,14.15,34.68,12.25,3.6-.27,7.22-.54,10.74-1.38,5.06-1.21,9.79-3.5,14.36-5.98,5.58-3.02,10.98-6.37,16.2-9.98,5.01-3.47,9.83-7.2,14.45-11.18.13-1.11.24-2.22.29-3.33-.2-3.99.93-7.36,2.14-10.6.66-1.77,1.34-3.5,1.85-5.27,1.93-6.75,3.66-13.2,4.41-20.18.87-8.03,1.21-16.45,3.06-24.32,1.75-7.43,2.7-15.06,2.81-22.7.05-7.83.87-16.39,1.68-24.95.4-4.16.79-8.36.31-12.51Z"/>
        <path class="st7" d="M277.04,474.63c12.71-30.02,28.31-58.91,43.85-87.62,16.49-30.47,33.6-61.7,59.16-84.85-.58-4.53-1.81-9.85-3.03-14.61-1.51-1.04-8.84,3.29-11.03,4.47-1.18.63-13.09.66-28.59,3.52-6.09,1.12-13.75,4.65-20,5.85-15.41,2.96-29.53,5.92-33.66,7.77-19.34,8.66-21.25,17.8-29.68,37.25-12.25,28.27-38.25,67.16-50.72,90.57-8.73,16.39-13.84,26.69-18.86,37.66h92.54Z"/>
        <path class="st7" d="M451.98,277.97c-5.22,3.61-10.62,6.96-16.2,9.98-4.57,2.48-9.3,4.76-14.36,5.98-3.51.84-7.13,1.1-10.74,1.38-24.88,1.9-32.33-8.93-34.68-12.25-.09-.12-.17-.25-.25-.37.4,1.51.84,3.14,1.27,4.86,1.22,4.76,2.45,10.08,3.03,14.61.47,3.71.51,6.88-.28,8.77-.61,1.45-.82,3.02-1.5,4.44-7.12,14.86-9.15,32.1-5.68,48.21.69,3.23,1.6,6.59.73,9.77-.54,2-1.75,3.74-2.93,5.44-2.68,3.85-5.36,7.7-8.04,11.56,4.46-3.7,8.91-7.4,13.37-11.1,2.15-1.78,4.37-3.61,7.04-4.42.81-.25,1.69-.42,2.31-1,.75-.7.92-1.79,1.17-2.79,1.3-5.3,5.63-9.4,10.45-11.96,1.82-.96,3.71-1.75,5.65-2.44.12-.19.23-.39.36-.58,3.4-5.24,8.25-9.4,11.69-14.61,1.75-2.64,3.13-5.56,5.29-7.88,1.71-1.84,8.18-11.29,14.54-17.32,3.36-3.19,7.93-3.24,9.04-5.48,1.56-3.14,2.74-6.51,4.78-9.35,1.43-1.99,3.25-3.67,4.92-5.47,4.44-4.74,7.93-10.36,10.29-16.42,1.59-4.08,2.67-8.36,3.18-12.71-4.62,3.97-9.44,7.71-14.45,11.18Z"/>
        <path class="st7" d="M483.21,238.66h0c.11-1.74.18-3.5.22-5.25l-.22,5.25Z"/>
        <g>
          <path class="st7" d="M502.97,156.65c.35-6.55,3.46-9.32,2.77-14.85-.69-5.53-3.79-7.64-4.82-13.51-1.04-5.88-.9-23.13-6.86-27.28l-.38,9.06c.07,1.17.13,2.35.18,3.52.87,21.21-1.28,42.37-2.98,63.56-.92,11.47-4.76,25.24-4.86,36.73-.03,3.52-2.51,16-2.58,19.53l-.22,5.25s14.57-52.95,14.92-58.83c.35-5.88,4.49-16.63,4.84-23.18Z"/>
          <path class="st7" d="M597.58,474.63c9.26-29.65,17.99-59.68,21.22-90.58.65-6.2,1.05-12.66-1.14-18.5-1.17-3.14-3.05-5.97-5-8.69-7.26-10.14-16.22-19.56-27.7-24.43-3.92-1.66-8.12-2.8-11.6-5.25-2.9-2.04-5.13-4.89-7.77-7.26-4.81-4.32-10.85-6.96-16.77-9.53-4.37-1.89-8.74-3.79-13.11-5.68-5.88,17.08-11.76,34.16-17.64,51.25-5.86,17.02-11.75,34.15-14.48,51.94-4.26,16.07-9.04,32.77-15.38,48.91-2.37,6.03-4.96,11.98-7.75,17.82h117.13Z"/>
          <path class="st7" d="M347.1,152.25c.26.57.53,1.11.78,1.59.17.33.66.24.7-.13.12-1.02.23-2.04.35-3.06,1.32-11.58,2.64-23.17,3.96-34.75.55-4.81,1.1-9.64,2.43-14.3,2.66-9.29,8.29-17.41,13.83-25.33,3.95-5.66,12.68-9.44,17.77-13.78,2.8-2.39,5.78-4.56,9.03-6.28,5.06-2.67,8.07-5.5,12.32-7.78,0,0,.01,0,.02,0,2.3,3.98,8.1,4.29,12.11,2.19,1.42-.75,2.8-1.75,4.4-1.87,2-.15,3.81,1.12,5.74,1.65,1.92.53,3.95.33,5.94.33,5.21-.02,10.43,1.33,14.98,3.87,9.75,5.78,17.8,15.58,22.65,26.61,4.85,11.03,6.66,23.23,6.48,35.28-.08,5.08-.49,10.2.22,15.23.54,3.78,1.71,7.44,2.15,11.23.49,4.15.09,8.35-.31,12.51-.82,8.56-1.63,17.12-1.68,24.95-.12,7.64-1.06,15.26-2.81,22.7-1.85,7.86-2.2,16.28-3.06,24.32-.75,6.98-2.48,13.43-4.41,20.18-.51,1.77-1.19,3.5-1.85,5.27-1.21,3.25-2.34,6.61-2.14,10.6-.06,1.11-.16,2.22-.29,3.33-.51,4.35-1.59,8.63-3.18,12.71-2.36,6.05-5.85,11.67-10.29,16.42-1.68,1.79-3.49,3.47-4.92,5.47-2.05,2.85-3.22,6.21-4.78,9.35-1.11,2.24-5.68,2.29-9.04,5.48-6.36,6.04-12.83,15.48-14.54,17.32-2.16,2.32-3.55,5.24-5.29,7.88-3.44,5.21-8.29,9.38-11.69,14.61-.12.19-.24.39-.36.58-5,8.07-6.51,18-11.8,25.9-2.65,3.96-6.32,7.59-6.95,12.31-.29,2.14.06,4.49-1.1,6.32-.75,1.19-2.01,1.95-3.07,2.88-6.4,5.64-4.3,16.35-7.49,22.34-7.01,15.63-12.43,31.9-17.56,48.24h126.08c2.8-5.84,5.38-11.79,7.75-17.82,6.34-16.14,11.13-32.84,15.38-48.91,2.74-17.79,8.62-34.92,14.48-51.94,5.88-17.08,11.76-34.16,17.64-51.25.09-.27.19-.54.28-.81,2.23-6.47,4.47-13.03,4.87-19.86.34-5.7-.63-11.42-.38-17.13.47-10.62,5.14-20.71,5.71-31.33.45-8.39-1.67-16.69-2.32-25.07-1.33-17.03,1.21-34.6-3.72-50.96-1.84-6.1-2.82-11.9-3.66-18.22-.75-5.63.38-11.38-.29-17.01-1.28-10.65-8.78-19.67-10.67-30.22-.56-3.1-.63-6.32-1.81-9.24-1.2-2.97-3.46-5.37-5.66-7.7-2.89-3.05-5.78-6.1-8.8-8.7-3.78-3.26-6.86-7.22-9.17-11.65-1.1-2.11-2.66-3.98-4.55-5.42-1.18-.89-2.5-1.65-3.4-2.82-2.01-2.63-1.83-7.24-6.74-6.63-.61.08-1.2.28-1.79.48-4.75,1.66-6.71-4.95-10.82-7.63-3.46-2.25-9.2-1.14-13.29-2.38-7.75-2.35-15.95-2.77-24.01-1.94-6.02.62-12.12,1.33-17.69,3.68-4.77,2.01-9.16,5.43-11.55,9.95-5.8-3.32-14.04-1.92-18.19,3.39-2.26,2.9-3.81,7-7.41,7.8-1.6.36-3.36-.07-4.87.58-1.26.55-2.11,1.74-2.88,2.87-3.86,5.65-7.72,11.3-11.58,16.95-1.19,1.74-2.42,3.53-4.19,4.67-1.14.74-2.46,1.17-3.64,1.85-2.45,1.41-4.25,3.91-4.8,6.68-.16.79-.18,1.72.39,2.3.52.53,1.34.57,2.03.83,2.55.96,2.79,4.64,1.54,7.06s-3.46,4.25-4.63,6.71c-2.25,4.76-.07,10.3.43,15.54.57,5.95,1.07,9.84-2.59,14.57-.54.7-1.77,4.94-1.9,5.81-.14.93.21,2.63.81,4.53.61,1.97,1.48,4.16,2.32,5.98Z"/>
        </g>
        <path class="st7" d="M490.87,177.15l-7.44,56.26c-.04,1.75-.11,3.5-.22,5.25,0,0,14.57-52.95,14.92-58.83.35-5.88,4.49-16.63,4.84-23.18.35-6.55,3.46-9.32,2.77-14.85-.69-5.53-3.79-7.64-4.82-13.51-1.04-5.88-.9-23.13-6.86-27.28l-.38,9.06c.07,1.17.13,2.35.18,3.52.87,21.21-1.28,42.37-2.98,63.56Z"/>
      </g>
    </g>
    <g>
      <polygon class="st2" points="500.04 474.63 474.66 333.37 374.23 296.82 241.92 474.63 500.04 474.63"/>
      <g>
        <path class="st3" d="M343.03,184.98c.71-6.64,1.42-13.28,2.12-19.92.41-3.81.81-7.63,1.62-11.38.1-.48.21-.95.32-1.42-.84-1.82-1.71-4.01-2.32-5.98-.19-.14-.37-.29-.57-.42-3.23-1.38-3.35,8.69-3.59,13.23-.41,7.72,2.08,14.68.54,22.26-.71,3.51-2.56,6.92-2.03,10.46.37,2.54,2.06,4.83,4.35,5.99-.06-.64-.1-1.14-.13-1.46-1.11-3.65-.71-7.56-.31-11.35Z"/>
        <path class="st3" d="M484.5,142.95c-.44-3.79-1.61-7.46-2.15-11.23-.72-5.03-.3-10.15-.22-15.23.18-12.05-1.62-24.25-6.48-35.28-4.85-11.03-12.9-20.83-22.65-26.61-4.55-2.54-9.77-3.89-14.98-3.87-1.99,0-4.02.2-5.94-.33-1.94-.53-3.74-1.8-5.74-1.65-1.6.12-2.98,1.12-4.4,1.87-4.02,2.1-9.81,1.79-12.11-2.19h-.02c-4.25,2.28-7.26,5.1-12.32,7.77-3.25,1.72-6.23,3.89-9.03,6.28-5.1,4.34-13.82,8.13-17.77,13.78-5.54,7.92-11.17,16.04-13.83,25.33-1.33,4.65-1.89,9.49-2.43,14.3-1.32,11.58-6.01,37.31-6.11,37.78-.8,3.75-1.21,7.57-1.62,11.38-.71,6.64-1.42,13.28-2.12,19.92-.4,3.79-.8,7.7.31,11.35.03.32.07.81.13,1.46.62,6.61,3.03,29.44,9.35,47.21,5.48,15.4,15.84,25.67,16.98,27.54,1.8,2.98,3.34,6.12,5.22,9.05.24.37.48.73.73,1.09.09.12.17.25.25.37,2.35,3.32,9.8,14.15,34.68,12.25,3.6-.27,7.22-.54,10.74-1.38,5.06-1.21,9.79-3.5,14.36-5.98,5.58-3.02,10.98-6.37,16.2-9.98,5.01-3.47,9.83-7.2,14.45-11.18.13-1.11.24-2.22.29-3.33-.2-3.99.93-7.36,2.14-10.6.66-1.77,1.34-3.5,1.85-5.27,1.93-6.75,3.66-13.2,4.41-20.18.87-8.03,1.21-16.45,3.06-24.32,1.75-7.43,2.7-15.06,2.81-22.7.05-7.83.87-16.39,1.68-24.95.4-4.16.79-8.36.31-12.51Z"/>
        <path class="st4" d="M277.76,474.63c12.58-29.42,27.88-57.77,43.13-85.95,16.49-30.47,33.6-61.7,59.16-84.85-.58-4.53-1.81-9.85-3.03-14.61-1.51-1.04-8.84,3.29-11.03,4.47-1.18.63-13.09.66-28.59,3.52-6.09,1.12-13.75,4.65-20,5.85-15.41,2.96-29.53,5.92-33.66,7.77-19.34,8.66-21.25,17.8-29.68,37.25-12.25,28.27-38.25,67.16-50.72,90.57-8.28,15.55-13.31,25.62-18.09,35.99h92.49Z"/>
        <path class="st3" d="M452.82,279.65c-5.22,3.61-10.62,6.96-16.2,9.98-4.57,2.48-9.3,4.76-14.36,5.98-3.51.84-7.13,1.1-10.74,1.38-24.88,1.9-32.33-8.93-34.68-12.25-.09-.12-.17-.25-.25-.37.4,1.51.84,3.14,1.27,4.86,1.22,4.76,2.45,10.08,3.03,14.61.47,3.71.51,6.88-.28,8.77-.61,1.45-.82,3.02-1.5,4.44-7.12,14.86-9.15,32.1-5.68,48.21.69,3.23,1.6,6.59.73,9.77-.54,2-1.75,3.74-2.93,5.44-2.68,3.85-5.36,7.7-8.04,11.56,4.46-3.7,8.91-7.4,13.37-11.1,2.15-1.78,4.37-3.61,7.04-4.42.81-.25,1.69-.42,2.31-1,.75-.7.92-1.79,1.17-2.79,1.3-5.3,5.63-9.4,10.45-11.96,1.82-.96,3.71-1.75,5.65-2.44.12-.19.23-.39.36-.58,3.4-5.24,8.25-9.4,11.69-14.61,1.75-2.64,3.13-5.56,5.29-7.88,1.71-1.84,8.18-11.29,14.54-17.32,3.36-3.19,7.93-3.24,9.04-5.48,1.56-3.14,2.74-6.51,4.78-9.35,1.43-1.99,3.25-3.67,4.92-5.47,4.44-4.74,7.93-10.36,10.29-16.42,1.59-4.08,2.67-8.36,3.18-12.71-4.62,3.97-9.44,7.71-14.45,11.18Z"/>
        <path class="st3" d="M483.21,238.66h0c.11-1.74.18-3.5.22-5.25l-.22,5.25Z"/>
        <path class="st3" d="M502.14,156.65c.35-6.55,3.46-9.32,2.77-14.85-.69-5.53-3.79-7.64-4.82-13.51-1.04-5.88-.9-23.13-6.86-27.28l-.38,9.06c.07,1.17.13,2.35.18,3.52.87,21.21-1.28,42.37-2.98,63.56-.92,11.47-4.76,25.24-4.86,36.73-.03,3.52-2.51,16-2.58,19.53l-.22,5.25s14.57-52.95,14.92-58.83c.35-5.88,4.49-16.63,4.84-23.18Z"/>
        <path class="st4" d="M596.17,474.63c9.16-29.38,17.76-59.14,20.96-89.74.65-6.2,1.05-12.66-1.14-18.5-1.17-3.14-3.05-5.97-5-8.69-7.26-10.14-16.22-19.56-27.7-24.43-3.92-1.66-8.12-2.8-11.6-5.25-2.9-2.04-5.13-4.89-7.77-7.26-4.81-4.32-10.85-6.96-16.77-9.53-4.37-1.89-8.74-3.79-13.11-5.68-5.88,17.08-11.76,34.16-17.64,51.25-5.86,17.02-11.75,34.15-14.48,51.94-4.26,16.07-9.04,32.77-15.38,48.91-2.26,5.74-4.72,11.41-7.37,16.98h117Z"/>
        <path class="st8" d="M347.1,152.25c.26.57.53,1.11.78,1.59.17.33.66.24.7-.13.12-1.02.23-2.04.35-3.06,1.32-11.58,2.64-23.17,3.96-34.75.55-4.81,1.1-9.64,2.43-14.3,2.66-9.29,8.29-17.41,13.83-25.33,3.95-5.66,12.68-9.44,17.77-13.78,2.8-2.39,5.78-4.56,9.03-6.28,5.06-2.67,8.07-5.5,12.32-7.78,0,0,.01,0,.02,0,2.3,3.98,8.1,4.29,12.11,2.19,1.42-.75,2.8-1.75,4.4-1.87,2-.15,3.81,1.12,5.74,1.65,1.92.53,3.95.33,5.94.33,5.21-.02,10.43,1.33,14.98,3.87,9.75,5.78,17.8,15.58,22.65,26.61,4.85,11.03,6.66,23.23,6.48,35.28-.08,5.08-.49,10.2.22,15.23.54,3.78,1.71,7.44,2.15,11.23.49,4.15.09,8.35-.31,12.51-.82,8.56-1.63,17.12-1.68,24.95-.12,7.64-1.06,15.26-2.81,22.7-1.85,7.86-2.2,16.28-3.06,24.32-.75,6.98-2.48,13.43-4.41,20.18-.51,1.77-1.19,3.5-1.85,5.27-1.21,3.25-2.34,6.61-2.14,10.6-.06,1.11-.16,2.22-.29,3.33-.51,4.35-1.59,8.63-3.18,12.71-2.36,6.05-5.85,11.67-10.29,16.42-1.68,1.79-3.49,3.47-4.92,5.47-2.05,2.85-3.22,6.21-4.78,9.35-1.11,2.24-5.68,2.29-9.04,5.48-6.36,6.04-12.83,15.48-14.54,17.32-2.16,2.32-3.55,5.24-5.29,7.88-3.44,5.21-8.29,9.38-11.69,14.61-.12.19-.24.39-.36.58-5,8.07-6.51,18-11.8,25.9-2.65,3.96-6.32,7.59-6.95,12.31-.29,2.14.06,4.49-1.1,6.32-.75,1.19-2.01,1.95-3.07,2.88-6.4,5.64-4.3,16.35-7.49,22.34-7.01,15.63-12.43,31.9-17.56,48.24h126.08c2.8-5.84,5.38-11.79,7.75-17.82,6.34-16.14,11.13-32.84,15.38-48.91,2.74-17.79,8.62-34.92,14.48-51.94,5.88-17.08,11.76-34.16,17.64-51.25.09-.27.19-.54.28-.81,2.23-6.47,4.47-13.03,4.87-19.86.34-5.7-.63-11.42-.38-17.13.47-10.62,5.14-20.71,5.71-31.33.45-8.39-1.67-16.69-2.32-25.07-1.33-17.03,1.21-34.6-3.72-50.96-1.84-6.1-2.82-11.9-3.66-18.22-.75-5.63.38-11.38-.29-17.01-1.28-10.65-8.78-19.67-10.67-30.22-.56-3.1-.63-6.32-1.81-9.24-1.2-2.97-3.46-5.37-5.66-7.7-2.89-3.05-5.78-6.1-8.8-8.7-3.78-3.26-6.86-7.22-9.17-11.65-1.1-2.11-2.66-3.98-4.55-5.42-1.18-.89-2.5-1.65-3.4-2.82-2.01-2.63-1.83-7.24-6.74-6.63-.61.08-1.2.28-1.79.48-4.75,1.66-6.71-4.95-10.82-7.63-3.46-2.25-9.2-1.14-13.29-2.38-7.75-2.35-15.95-2.77-24.01-1.94-6.02.62-12.12,1.33-17.69,3.68-4.77,2.01-9.16,5.43-11.55,9.95-5.8-3.32-14.04-1.92-18.19,3.39-2.26,2.9-3.81,7-7.41,7.8-1.6.36-3.36-.07-4.87.58-1.26.55-2.11,1.74-2.88,2.87-3.86,5.65-7.72,11.3-11.58,16.95-1.19,1.74-2.42,3.53-4.19,4.67-1.14.74-2.46,1.17-3.64,1.85-2.45,1.41-4.25,3.91-4.8,6.68-.16.79-.18,1.72.39,2.3.52.53,1.34.57,2.03.83,2.55.96,2.79,4.64,1.54,7.06s-3.46,4.25-4.63,6.71c-2.25,4.76-.07,10.3.43,15.54.57,5.95,1.07,9.84-2.59,14.57-.54.7-1.77,4.94-1.9,5.81-.14.93.21,2.63.81,4.53.61,1.97,1.48,4.16,2.32,5.98Z"/>
        <path class="st3" d="M490.87,177.15l-7.44,56.26c-.04,1.75-.11,3.5-.22,5.25,0,0,14.57-52.95,14.92-58.83.35-5.88,4.49-16.63,4.84-23.18.35-6.55,3.46-9.32,2.77-14.85-.69-5.53-3.79-7.64-4.82-13.51-1.04-5.88-.9-23.13-6.86-27.28l-.38,9.06c.07,1.17.13,2.35.18,3.52.87,21.21-1.28,42.37-2.98,63.56Z"/>
      </g>
    </g>
    <path class="st1" d="M426.45,205.76c-3.48-1.11-7.25-2.21-10.7-1.02-1.19.41-2.29,1.09-3.19,1.97"/>
    <path class="st1" d="M398.73,204.77c-1.79-1.95-8.56-7.24-11.41-4.91"/>
    <path class="st1" d="M399.08,207.11c-.08.6,3.62,3.51,10.79,3.22,1.03-.04,2.04-.25,3.01-.6,1.35-.48,3.52-1.19,5.21-1.41"/>
    <path class="st1" d="M382.57,199.32c-.82-3.15-.41-6.6,1.12-9.47,1.53-2.87,4.16-5.13,7.23-6.21"/>
    <path class="st1" d="M428.57,208.69c2.35-.42,4.92-.97,6.35-2.88,1.15-1.55,1.25-3.69.71-5.54s-1.62-3.5-2.69-5.1"/>
    <path class="st7" d="M434.55,232.76c-13.74.61-27.82,2.21-41.01-1.69-6.77-2-13.18-5.42-20.09-6.67,4.04,5.64,8.69,10.8,14.86,13.76,5.45,2.61,11.63,3.27,17.67,3.29,11.46.05,23.32-2.25,32.84-8.44-1.37-.31-2.87-.31-4.27-.25Z"/>
    <path class="st1" d="M402.7,263.73l-7.62-.19"/>
    <path class="st1" d="M450.88,232.59c.68-3.86-1.01-8.04-4.17-10.36"/>
    <path class="st1" d="M362.59,385.04c1.47-10.12,2.02-20.38,1.62-30.6-.15-3.82-.56-7.95-3.13-10.78-2.28-2.5-6.39-4.99-4.92-8.04"/>
    <path class="st1" d="M362.36,390.33c-14.69,22.68-22.69,49.68-34.19,75.09"/>
    <g>
      <path class="st1" d="M343.03,184.98c.71-6.64,1.42-13.28,2.12-19.92.41-3.81.81-7.63,1.62-11.38.1-.48.21-.95.32-1.42-.84-1.82-1.71-4.01-2.32-5.98-.19-.14-.37-.29-.57-.42-3.23-1.38-3.35,8.69-3.59,13.23-.41,7.72,2.08,14.68.54,22.26-.71,3.51-2.56,6.92-2.03,10.46.37,2.54,2.06,4.83,4.35,5.99-.06-.64-.1-1.14-.13-1.46-1.11-3.65-.71-7.56-.31-11.35Z"/>
      <path class="st1" d="M482.99,142.95c-.44-3.79-1.61-7.46-2.15-11.23-.72-5.03-.3-10.15-.22-15.23.18-12.05-1.62-24.25-6.48-35.28-4.85-11.03-12.9-20.83-22.65-26.61-4.55-2.54-9.77-3.89-14.98-3.87-1.99,0-4.02.2-5.94-.33-1.94-.53-3.74-1.8-5.74-1.65-1.6.12-2.98,1.12-4.4,1.87-4.02,2.1-9.81,1.79-12.11-2.19h-.02c-4.25,2.28-7.26,5.1-12.32,7.77-3.25,1.72-6.23,3.89-9.03,6.28-5.1,4.34-13.82,8.13-17.77,13.78-5.54,7.92-11.17,16.04-13.83,25.33-1.33,4.65-1.89,9.49-2.43,14.3-1.32,11.58-2.64,23.17-3.96,34.75-.12,1.02-.23,2.04-.35,3.06-.04.37-.53.46-.7.13-.25-.48-.51-1.02-.78-1.59-.11.47-.22.95-.32,1.42-.8,3.75-1.21,7.57-1.62,11.38-.71,6.64-1.42,13.28-2.12,19.92-.4,3.79-.8,7.7.31,11.35.03.32.07.81.13,1.46.62,6.61,3.03,29.44,9.35,47.21,5.48,15.4,15.84,25.67,16.98,27.54,1.8,2.98,3.34,6.12,5.22,9.05.24.37.48.73.73,1.09.09.12.17.25.25.37,2.35,3.32,9.8,14.15,34.68,12.25,3.6-.27,7.22-.54,10.74-1.38,5.06-1.21,9.79-3.5,14.36-5.98,5.58-3.02,10.98-6.37,16.2-9.98,5.01-3.47,9.83-7.2,14.45-11.18.13-1.11.24-2.22.29-3.33-.2-3.99.93-7.36,2.14-10.6.66-1.77,1.34-3.5,1.85-5.27,1.93-6.75,3.66-13.2,4.41-20.18.87-8.03,1.21-16.45,3.06-24.32,1.75-7.43,2.7-15.06,2.81-22.7.05-7.83.87-16.39,1.68-24.95.4-4.16.79-8.36.31-12.51Z"/>
      <path class="st1" d="M277.04,474.63c12.71-30.02,28.31-58.91,43.85-87.62,16.49-30.47,33.6-61.7,59.16-84.85-.58-4.53-1.81-9.85-3.03-14.61-1.51-1.04-8.84,3.29-11.03,4.47-1.18.63-13.09.66-28.59,3.52-6.09,1.12-13.75,4.65-20,5.85-15.41,2.96-29.53,5.92-33.66,7.77-19.34,8.66-21.25,17.8-29.68,37.25-12.25,28.27-38.25,67.16-50.72,90.57-8.73,16.39-13.84,26.69-18.86,37.66h92.54Z"/>
      <path class="st1" d="M451.98,277.97c-5.22,3.61-10.62,6.96-16.2,9.98-4.57,2.48-9.3,4.76-14.36,5.98-3.51.84-7.13,1.1-10.74,1.38-24.88,1.9-32.33-8.93-34.68-12.25-.09-.12-.17-.25-.25-.37.4,1.51.84,3.14,1.27,4.86,1.22,4.76,2.45,10.08,3.03,14.61.47,3.71.51,6.88-.28,8.77-.61,1.45-.82,3.02-1.5,4.44-7.12,14.86-9.15,32.1-5.68,48.21.69,3.23,1.6,6.59.73,9.77-.54,2-1.75,3.74-2.93,5.44-2.68,3.85-5.36,7.7-8.04,11.56,4.46-3.7,8.91-7.4,13.37-11.1,2.15-1.78,4.37-3.61,7.04-4.42.81-.25,1.69-.42,2.31-1,.75-.7.92-1.79,1.17-2.79,1.3-5.3,5.63-9.4,10.45-11.96,1.82-.96,3.71-1.75,5.65-2.44.12-.19.23-.39.36-.58,3.4-5.24,8.25-9.4,11.69-14.61,1.75-2.64,3.13-5.56,5.29-7.88,1.71-1.84,8.18-11.29,14.54-17.32,3.36-3.19,7.93-3.24,9.04-5.48,1.56-3.14,2.74-6.51,4.78-9.35,1.43-1.99,3.25-3.67,4.92-5.47,4.44-4.74,7.93-10.36,10.29-16.42,1.59-4.08,2.67-8.36,3.18-12.71-4.62,3.97-9.44,7.71-14.45,11.18Z"/>
      <path class="st1" d="M490.87,177.15l-7.44,56.26c-.04,1.75-.11,3.5-.22,5.25,0,0,14.57-52.95,14.92-58.83.35-5.88,4.49-16.63,4.84-23.18.35-6.55,3.46-9.32,2.77-14.85-.69-5.53-3.79-7.64-4.82-13.51-1.04-5.88-.9-23.13-6.86-27.28l-.38,9.06c.07,1.17.13,2.35.18,3.52.87,21.21-1.28,42.37-2.98,63.56Z"/>
      <path class="st1" d="M483.21,238.66h0c.11-1.74.18-3.5.22-5.25l-.22,5.25Z"/>
      <g>
        <path class="st0" d="M502.97,156.65c.35-6.55,3.46-9.32,2.77-14.85-.69-5.53-3.79-7.64-4.82-13.51-1.04-5.88-.9-23.13-6.86-27.28l-.38,9.06c.07,1.17.13,2.35.18,3.52.87,21.21-1.28,42.37-2.98,63.56-.92,11.47-4.76,25.24-4.86,36.73-.03,3.52-2.51,16-2.58,19.53l-.22,5.25s14.57-52.95,14.92-58.83c.35-5.88,4.49-16.63,4.84-23.18Z"/>
        <path class="st1" d="M597.58,474.63c9.26-29.65,17.99-59.68,21.22-90.58.65-6.2,1.05-12.66-1.14-18.5-1.17-3.14-3.05-5.97-5-8.69-7.26-10.14-16.22-19.56-27.7-24.43-3.92-1.66-8.12-2.8-11.6-5.25-2.9-2.04-5.13-4.89-7.77-7.26-4.81-4.32-10.85-6.96-16.77-9.53-4.37-1.89-8.74-3.79-13.11-5.68-5.88,17.08-11.76,34.16-17.64,51.25-5.86,17.02-11.75,34.15-14.48,51.94-4.26,16.07-9.04,32.77-15.38,48.91-2.37,6.03-4.96,11.98-7.75,17.82h117.13Z"/>
        <path class="st1" d="M347.1,152.25c.26.57.53,1.11.78,1.59.17.33.66.24.7-.13.12-1.02.23-2.04.35-3.06,1.32-11.58,2.64-23.17,3.96-34.75.55-4.81,1.1-9.64,2.43-14.3,2.66-9.29,8.29-17.41,13.83-25.33,3.95-5.66,12.68-9.44,17.77-13.78,2.8-2.39,5.78-4.56,9.03-6.28,5.06-2.67,8.07-5.5,12.32-7.78,0,0,.01,0,.02,0,2.3,3.98,8.1,4.29,12.11,2.19,1.42-.75,2.8-1.75,4.4-1.87,2-.15,3.81,1.12,5.74,1.65,1.92.53,3.95.33,5.94.33,5.21-.02,10.43,1.33,14.98,3.87,9.75,5.78,17.8,15.58,22.65,26.61,4.85,11.03,6.66,23.23,6.48,35.28-.08,5.08-.49,10.2.22,15.23.54,3.78,1.71,7.44,2.15,11.23.49,4.15.09,8.35-.31,12.51-.82,8.56-1.63,17.12-1.68,24.95-.12,7.64-1.06,15.26-2.81,22.7-1.85,7.86-2.2,16.28-3.06,24.32-.75,6.98-2.48,13.43-4.41,20.18-.51,1.77-1.19,3.5-1.85,5.27-1.21,3.25-2.34,6.61-2.14,10.6-.06,1.11-.16,2.22-.29,3.33-.51,4.35-1.59,8.63-3.18,12.71-2.36,6.05-5.85,11.67-10.29,16.42-1.68,1.79-3.49,3.47-4.92,5.47-2.05,2.85-3.22,6.21-4.78,9.35-1.11,2.24-5.68,2.29-9.04,5.48-6.36,6.04-12.83,15.48-14.54,17.32-2.16,2.32-3.55,5.24-5.29,7.88-3.44,5.21-8.29,9.38-11.69,14.61-.12.19-.24.39-.36.58-5,8.07-6.51,18-11.8,25.9-2.65,3.96-6.32,7.59-6.95,12.31-.29,2.14.06,4.49-1.1,6.32-.75,1.19-2.01,1.95-3.07,2.88-6.4,5.64-4.3,16.35-7.49,22.34-7.01,15.63-12.43,31.9-17.56,48.24h126.08c2.8-5.84,5.38-11.79,7.75-17.82,6.34-16.14,11.13-32.84,15.38-48.91,2.74-17.79,8.62-34.92,14.48-51.94,5.88-17.08,11.76-34.16,17.64-51.25.09-.27.19-.54.28-.81,2.23-6.47,4.47-13.03,4.87-19.86.34-5.7-.63-11.42-.38-17.13.47-10.62,5.14-20.71,5.71-31.33.45-8.39-1.67-16.69-2.32-25.07-1.33-17.03,1.21-34.6-3.72-50.96-1.84-6.1-2.82-11.9-3.66-18.22-.75-5.63.38-11.38-.29-17.01-1.28-10.65-8.78-19.67-10.67-30.22-.56-3.1-.63-6.32-1.81-9.24-1.2-2.97-3.46-5.37-5.66-7.7-2.89-3.05-5.78-6.1-8.8-8.7-3.78-3.26-6.86-7.22-9.17-11.65-1.1-2.11-2.66-3.98-4.55-5.42-1.18-.89-2.5-1.65-3.4-2.82-2.01-2.63-1.83-7.24-6.74-6.63-.61.08-1.2.28-1.79.48-4.75,1.66-6.71-4.95-10.82-7.63-3.46-2.25-9.2-1.14-13.29-2.38-7.75-2.35-15.95-2.77-24.01-1.94-6.02.62-12.12,1.33-17.69,3.68-4.77,2.01-9.16,5.43-11.55,9.95-5.8-3.32-14.04-1.92-18.19,3.39-2.26,2.9-3.81,7-7.41,7.8-1.6.36-3.36-.07-4.87.58-1.26.55-2.11,1.74-2.88,2.87-3.86,5.65-7.72,11.3-11.58,16.95-1.19,1.74-2.42,3.53-4.19,4.67-1.14.74-2.46,1.17-3.64,1.85-2.45,1.41-4.25,3.91-4.8,6.68-.16.79-.18,1.72.39,2.3.52.53,1.34.57,2.03.83,2.55.96,2.79,4.64,1.54,7.06s-3.46,4.25-4.63,6.71c-2.25,4.76-.07,10.3.43,15.54.57,5.95,1.07,9.84-2.59,14.57-.54.7-1.77,4.94-1.9,5.81-.14.93.21,2.63.81,4.53.61,1.97,1.48,4.16,2.32,5.98Z"/>
      </g>
    </g>
    <circle class="st6" cx="425.56" cy="193.72" r="1.61"/>
    <circle class="st5" cx="374.83" cy="155.51" r="5.03"/>
    <circle class="st5" cx="455.34" cy="163.59" r="5.03"/>
    <path class="st1" d="M345.79,159.56c.09-.68-.66-8.71-5.29-8.27"/>
    <path class="st1" d="M483.21,238.66c-2.54,15.36-4.54,30.36-10.54,44.36-9,22-27,38-39,59-11,19-23,35-36,53l-9,15c-3,5-5,11-6,17-1,14-6,26-9.21,38.55"/>
    <path class="st1" d="M494.06,101.01s.12-24.82-10.84-31.97c-10.97-7.15-8.27-17.82-22.84-20.35s-29.07-11.82-45.77-6.1"/>
    <path class="st1" d="M434.55,232.76c-13.74.61-27.82,2.21-41.01-1.69-6.77-2-13.18-5.42-20.09-6.67,4.04,5.64,8.69,10.8,14.86,13.76,5.45,2.61,11.63,3.27,17.67,3.29,11.46.05,23.32-2.25,32.84-8.44-1.37-.31-2.87-.31-4.27-.25Z"/>
    <path class="st1" d="M441.8,234.6c-1.75-1.89-4.67-1.95-7.25-1.84-13.74.61-27.82,2.21-41.01-1.69-7.49-2.21-14.53-6.17-22.3-7"/>
    <path class="st1" d="M505.74,141.8s1.94-2.96,0-16.22.57-46.15-15.8-65.25"/>
    <path class="st1" d="M500.1,56.81s21.23,73.65,16.57,88.9c-4.66,15.25-36.84,149.82-36.84,149.82,0,0-22.15,71.86-26.58,100.93-6.54,42.9-10.28,48.96-6.54,73.68"/>
    <path class="st1" d="M467.25,293.4s-29.96,94.2-31.31,100.73,2.38-4.2-3.69,22.85c-6.06,27.05-4.11,32.64-3.69,40.1"/>
    <path class="st1" d="M406.14,452.5s-3.04-43.04,2.45-49.31,18.08-35.64,27.36-45.44c9.28-9.79,27.21-42.79,28.85-56.58"/>
    <path class="st1" d="M373.45,293.4s-68.97,89.07-91.82,143.16"/>
    <ellipse class="st6" cx="370.7" cy="395.5" rx="6.53" ry="5.16"/>
    <path class="st1" d="M235.47,441.7s19.59-57.36,34.97-67.15"/>
    <path class="st1" d="M514.36,73.3s11.63,63.87,12.1,86.26c.47,22.39-26.13,121.8-29.15,127.82-3.02,6.02-27.48,76.44-30.87,93.69s-10.86,59.76-11.32,62.52"/>
    <path class="st1" d="M469.1,443.6s9.57-61.59,14.11-69.05,30.59-87.16,34.12-102.11,19.38-87.9,18.45-98.99c-.93-11.09-.96-56.16-3.8-62.35"/>
    <circle class="st1" cx="425.56" cy="193.72" r="1.61"/>
    <ellipse class="st1" cx="370.7" cy="395.5" rx="6.53" ry="5.16"/>
  </g>
</svg>