<?xml version="1.0" encoding="UTF-8"?>
<svg id="Layer_1" xmlns="http://www.w3.org/2000/svg" xmlns:xlink="http://www.w3.org/1999/xlink" version="1.1" viewBox="0 0 841.89 467.72">
  <!-- Generator: Adobe Illustrator 29.0.0, SVG Export Plug-In . SVG Version: 2.1.0 Build 186)  -->
  <defs>
    <style>
      .st0, .st1 {
        fill: none;
      }

      .st2, .st3 {
        fill: #55565a;
      }

      .st3, .st1 {
        stroke: #55565a;
        stroke-miterlimit: 10;
      }

      .st4 {
        fill: #1b5492;
      }

      .st5 {
        fill: #dfaea0;
      }

      .st6 {
        fill: #97999b;
      }

      .st7 {
        fill: #fff;
      }

      .st8 {
        clip-path: url(#clippath);
      }
    </style>
    <clipPath id="clippath">
      <rect class="st0" width="841.89" height="469.96"/>
    </clipPath>
  </defs>
  <g class="st8">
    <rect class="st6" width="841.89" height="469.96"/>
    <g>
      <path class="st7" d="M282.61,255.9c.04-.73.06-1.46.07-2.19-.03.73-.05,1.46-.07,2.19Z"/>
      <path class="st7" d="M312.7,299.51c0,.44-.02.88-.02,1.32.16-.42.19-.87.02-1.32Z"/>
      <path class="st7" d="M357.28,354.95c-.07-.31-.15-.62-.23-.94,0,.32.06.64.23.94Z"/>
      <path class="st7" d="M307.73,294.82c.25-.35.44-.74.52-1.18-.18.39-.35.78-.52,1.18Z"/>
      <path class="st7" d="M483.5,214.31c-.03-9.52-.07-19.14-2.21-28.42-2.14-9.28-6.61-18.32-14.06-24.24,1.58-.47,3.16-.95,4.74-1.42-4.39-2.31-6.99-7.61-6.12-12.5-.11-1.01-.21-2.01-.32-3.02.47.05.95.11,1.42.16-4.1-4.11-4.09-10.6-5.18-16.3-1.81-9.47-7.5-18.13-14.69-24.01l-12.08-.87c4.32,3.25,6.28,9.33,4.66,14.49-3.1-6.05-8.13-11.09-14.18-14.18-7.46,3.58-15.85,5.19-24.11,4.63,2.98,4.63,3.6,10.7,1.61,15.84-1.95-5.85-5.61-11.12-10.42-14.99.66,2.18-.41,4.75-2.41,5.83.96-2.33-1.68-4.97-4.17-4.63-2.49.33-4.29,2.75-4.74,5.22-.45,2.47.15,5,.74,7.45-3.18-7.69-8.53-14.47-15.28-19.35-.18,4.22-5.69,7.14-9.28,4.91-3.44-6.15-12.49-8.24-18.28-4.23-8.49-2.61-18.23-.74-23.93,4.81-14.2,5.4-23.09,22.03-19.7,36.83,1.21,5.3,3.8,10.44,3.37,15.85-.68,8.57-8.43,14.62-12.62,22.12-3.93,7.03-4.69,15.42-4.31,23.47.38,8.05,1.82,16.04,1.93,24.1.1,7.3-.88,14.57-1.2,21.86,0,.73-.03,1.47-.07,2.19-.02.65-.04,1.31-.04,1.96-.01,8.68,1.57,17.77,6.91,24.62,0,0,2.55-3.18,3.9-4.47-.7,4.46.38,9.18,2.95,12.9.78-1.44,1.56-2.88,2.33-4.32.11,1.96.22,3.97.94,5.79s2.18,3.48,4.09,3.92c1.48.34,3.18-.29,4.04-1.48.16-.4.34-.79.52-1.18-.08.44-.27.83-.52,1.18-.5,1.21-.88,2.47-.83,3.77.07,1.72,1.12,3.53,2.8,3.91,1.22.27,2.56-.57,2.98-1.66,0-.44,0-.88.02-1.32.17.44.14.9-.02,1.32,0,1.5.08,3.01.57,4.42.63,1.83,2.06,3.5,3.96,3.86,1.9.35,4.1-1.07,4.09-3.01-.26,3.37.3,6.8,1.61,9.92,1.38-.59,2.51-1.73,3.09-3.11.49,1.58,2.91,2.09,4,.85,0,0,4.92,16.64,9.29,26.14,1.28-2.11,3.28-3.77,5.6-4.63-.23,1.86-.47,3.76-.09,5.6.38,1.84,1.48,3.63,3.22,4.34,1.11.45,2.37.42,3.51.78,3.25,1.02,4.66,4.63,5.52,8.01.03-1.31,1.4-2.6,2.83-2.68,1.77-.1,3.37.97,4.81,2,1.44,1.03,3.04,2.11,4.81,2.01,1.58-.08,2.95-1.09,4.23-2.01,7.2-5.18,15.29-9.11,23.81-11.58,2.33-.68,5.06-1.58,5.77-3.9,2.65.83,4.63,3.16,6.76,5.02,1.56,1.36,3.2,2.47,5.24,2.54,3.79.13,6.64-3.63,7.53-7.32,1.16,0,2.33,0,4.99-.64.31-.94.63-1.88.94-2.82.73-2.2,1.46-4.39,2.19-6.59,4.36,1.17,8.27-3.2,9.78-7.46s2.02-9.15,5.2-12.36c11.1-4.74,22.15-10.61,29.78-19.96,8.17-10.01,11.66-23.18,12.13-36.09.47-12.91-1.84-25.74-4.33-37.86Z"/>
      <path class="st7" d="M403.56,474.03c.05-.06.1-.13.15-.19,2.04-2.44,4.36-4.8,5.34-7.82.98-3.02.06-6.98-2.9-8.15-2.24-.89-4.72.06-7.07.59-2.27.51-4.61.56-6.9.23-5.43,3.43-11.21,6.25-17.37,8.19-6.15,1.94-12.66,3.02-18.3,6.14-.57.32-1.13.66-1.67,1.01h48.72Z"/>
      <path class="st7" d="M324.02,440.43c2.7,11.36,5.98,22.55,10.03,33.6h20.79c.55-.36,1.1-.7,1.67-1.01,5.65-3.12,12.15-4.2,18.3-6.14,6.16-1.94,11.94-4.76,17.37-8.19,7.7-4.87,14.68-10.99,20.98-17.71,2.02-2.16,3.98-4.37,5.86-6.63,11.87-14.26,21.44-30.27,32.54-45.13,9.89-13.24,21.03-25.62,29.41-39.86,4.74-8.05,7.65-19.17,9.32-28.97,1.28-7.54,1.82-14.3,1.88-18.28.02-1.48-.21-8.32-.77-14.59-2.34,12.73-5.82,25.34-10.63,37.42-2.15,5.4-5.44,11.41-11.18,12.33,1.04,1.22,2.08,2.45,3.12,3.67-5.97-.52-9.33,9.2-15.24,8.2-9.86,8.86-20.46,16.91-31.64,24.04,1.1,1.77,3.05,2.5,4.77,2.31-15.91,10.45-34.33,17.06-53.27,19.07-.29-.74-.59-1.47-.88-2.21-2.35,1.85-4.69,3.7-7.04,5.55l-1.6-5.04c-1.67.29-3.33.59-5,.88-.26-1.3.08-2.71.92-3.74-2.94-.23-5.87-.45-8.81-.68-15.68-12.07-33.05-25.1-44.83-42.76-.13-.2-.26-.4-.39-.61.69,5.89,1.36,11.74,2.04,17.54,3.1,26.51,6.35,52.1,12.26,76.93Z"/>
      <path class="st7" d="M293.12,474.03c.14-.37.3-.73.43-1.1-.8-.91-1.59-1.83-2.35-2.77-2.06-2.53-3.97-5.25-5.36-8.19-.66-1.41-1.21-2.87-1.58-4.39-1.61-6.68.24-13.65,2.07-20.27,4.6-16.65,9.26-33.39,15.2-49.6-20.22,16.06-46.43,23.27-71.23,31.32-19.06,6.19-37.85,13.19-56.31,20.98-12.14,5.13-24.4,10.77-33.88,19.93-4.33,4.19-7.91,8.95-10.96,14.07h163.97Z"/>
      <path class="st7" d="M285.85,461.97c1.38,2.94,3.29,5.66,5.36,8.19.76.94,1.55,1.86,2.35,2.77.32.37.64.73.96,1.1h39.54c-4.06-11.05-7.33-22.24-10.03-33.6-5.91-24.83-9.16-50.42-12.26-76.93-3.85,7.88-7.21,15.98-10.23,24.22-5.94,16.2-10.59,32.95-15.2,49.6-1.83,6.62-3.67,13.59-2.07,20.27.37,1.52.92,2.98,1.58,4.39Z"/>
      <path class="st7" d="M438.35,474.03c4.49-7.49,8.98-14.97,13.47-22.46-.07-.07-.14-.14-.21-.22-4.8,7.48-9.46,15.05-14.02,22.67h.76Z"/>
      <path class="st7" d="M399.09,458.45c2.35-.53,4.83-1.48,7.07-.59,2.95,1.18,3.88,5.13,2.9,8.15-.98,3.02-3.3,5.38-5.34,7.82-.05.06-.1.13-.15.19h34.04c4.57-7.62,9.23-15.19,14.02-22.67,4.51-7.04,9.12-14.02,13.84-20.92,11.82-17.33,24.47-34.62,30.71-54.66,4.49-14.39,5.06-30.74-.17-44.6-1.44-3.82-3.33-7.44-5.69-10.79-1.67,9.8-4.58,20.92-9.32,28.97-8.38,14.24-19.52,26.62-29.41,39.86-11.1,14.86-20.67,30.87-32.54,45.13-1.88,2.26-3.84,4.47-5.86,6.63-6.3,6.72-13.28,12.84-20.98,17.71,2.29.34,4.64.28,6.9-.23Z"/>
      <path class="st7" d="M539.86,399.87c-7.03,21.32-14.06,52.83-21.1,74.16-.39,1.17-.77-1.17-1.17,0l187.09-1.73s-48.25-34.12-59.95-37.53c-11.7-3.41-36.56-16.08-51.18-22.42-9.46-4.1-34.84-19.83-51.57-30.42.04.2.09.4.14.6,1.47,5.73-.4,11.73-2.26,17.35Z"/>
      <path class="st7" d="M438.35,474.03h76.75c.91-2.19,1.73,2.25,2.49,0,.4-1.17.79,1.17,1.17,0l21.1-74.16c1.85-5.62,3.72-11.62,2.26-17.35-.05-.2-.09-.4-.14-.6-1-4.56-.14-8.65-4.7-9.95-16.32-4.67-22.76-23.99-32.6-35.07-1.99-2.24-4.12-4.57-6.98-5.45-.55-.17-1.13-.26-1.71-.27,5.23,13.86,4.66,30.21.17,44.6-6.24,20.03-18.89,37.32-30.71,54.66-4.71,6.91-9.32,13.88-13.84,20.92.07.07.14.14.21.22-4.49,7.49-8.98,14.97-13.47,22.46Z"/>
      <g>
        <path class="st7" d="M357.05,354.01c0,.32.06.64.23.94-.07-.31-.15-.62-.23-.94Z"/>
        <path class="st7" d="M483.5,214.31c0-.13,0-.26,0-.39-.03-9.4-.1-18.88-2.21-28.03-2.14-9.28-6.61-18.32-14.06-24.24,1.58-.47,3.16-.95,4.74-1.42-4.39-2.31-6.99-7.61-6.12-12.5-.11-1.01-.21-2.01-.32-3.02.47.05.95.11,1.42.16-4.1-4.11-4.09-10.6-5.18-16.3-1.81-9.47-7.5-18.13-14.69-24.01l-12.08-.87c4.32,3.25,6.28,9.33,4.66,14.49-3.1-6.05-8.13-11.09-14.18-14.18-7.46,3.58-15.85,5.19-24.11,4.63,2.98,4.63,3.6,10.7,1.61,15.84-1.95-5.85-5.61-11.12-10.42-14.99.66,2.18-.41,4.75-2.41,5.83.96-2.33-1.68-4.97-4.17-4.63-2.49.33-4.29,2.75-4.74,5.22-.45,2.47.15,5,.74,7.45-3.18-7.69-8.53-14.47-15.28-19.35-.18,4.22-5.69,7.14-9.28,4.91-3.44-6.15-12.49-8.24-18.28-4.23-8.49-2.61-18.23-.74-23.93,4.81-14.2,5.4-23.09,22.03-19.7,36.83,1.21,5.3,3.8,10.44,3.37,15.85-.68,8.57-8.43,14.62-12.62,22.12-2.36,4.23-3.58,8.94-4.09,13.77-.34,3.21-.38,6.48-.22,9.7.38,8.05,1.82,16.04,1.93,24.1.1,7.3-.88,14.57-1.2,21.86.04-2.74-.13-5.53-.67-8.45-3.01-16.1.07-33.05-5.03-48.81-.14-1.25-.27-2.52-.41-3.82-1.59-.71-3.35-.95-4.98-.41-2.53.84-4.2,3.39-4.74,6-.55,2.61-.17,5.32.21,7.96,1.48,10.39,2.96,20.78,4.45,31.17.74,5.16,6.13,12.25,8.53,16.88,2.4,4.63-3.99,21.66,1.2,22.11-.25-7.29,1.05-13.76,1.38-20.43-.02.65-.04,1.31-.04,1.96,0,4.3.38,8.71,1.42,12.89,1.06,4.25,2.79,8.28,5.49,11.73,0,0,2.55-3.18,3.9-4.47-.7,4.46.38,9.18,2.95,12.9.78-1.44,1.56-2.88,2.33-4.32.11,1.96.22,3.97.94,5.79s2.18,3.48,4.09,3.92c1.48.34,3.18-.29,4.04-1.48-.5,1.21-.88,2.47-.83,3.77.07,1.72,1.12,3.53,2.8,3.91,1.22.27,2.56-.57,2.98-1.66,0,1.5.08,3.01.57,4.42.63,1.83,2.06,3.5,3.96,3.86,1.9.35,4.1-1.07,4.09-3.01-.26,3.37.3,6.8,1.61,9.92,1.38-.59,2.51-1.73,3.09-3.11.49,1.58,2.91,2.09,4,.85,0,0,4.92,16.64,9.29,26.14,1.28-2.11,3.28-3.77,5.6-4.63-.23,1.86-.47,3.76-.09,5.6.38,1.84,1.48,3.63,3.22,4.34,1.11.45,2.37.42,3.51.78,3.25,1.02,4.66,4.63,5.52,8.01.03-1.31,1.4-2.6,2.83-2.68,1.77-.1,3.37.97,4.81,2,1.44,1.03,3.04,2.11,4.81,2.01,1.58-.08,2.95-1.09,4.23-2.01,7.2-5.18,15.29-9.11,23.81-11.58,2.33-.68,5.06-1.58,5.77-3.9,2.65.83,4.63,3.16,6.76,5.02,1.56,1.36,3.2,2.47,5.24,2.54,3.79.13,6.64-3.63,7.53-7.32,1.16,0,2.33,0,4.99-.64.31-.94.63-1.88.94-2.82.73-2.2,1.46-4.39,2.19-6.59,4.36,1.17,8.27-3.2,9.78-7.46s2.02-9.15,5.2-12.36c11.1-4.74,22.15-10.61,29.78-19.96,5.16-6.32,8.45-13.91,10.29-21.89,1.08-4.65,1.66-9.44,1.84-14.2.47-12.91-1.84-25.74-4.33-37.86Z"/>
        <path class="st7" d="M508.69,196.02c.4-3.42-.14-7.25-2.68-9.58-2.81-2.57-7.37-2.46-10.62-.48-.86.52-1.64,1.16-2.34,1.86-1.12,7.51-2.68,14.94-4.88,22.24.48,7.81,1.65,16.12,2.83,24.43l3.71,26.18c-.24,3.77-.59,7.56-1.02,11.35,1.91.02,3.83-.6,5.27-1.86,2.45-2.14,3.32-5.9,2.06-8.89-.67-1.6-1.89-3.02-2.01-4.75-.12-1.73.88-3.31,1.76-4.79,5.98-10,8.54-22.01,7.16-33.59-.47-3.98-1.4-7.95-1.09-11.95.27-3.43,1.44-6.74,1.84-10.16Z"/>
        <path class="st7" d="M496.18,137.73c.25-13.05.5-26.22-1.91-39.05-2.42-12.83-7.72-25.47-17.39-33.7-14.44-17.24-34.16-30-55.8-36.12-13.4-3.79-27.35-5.06-41.05-7.55-3.94-.72-8.09-1.52-11.86-.17-2.93,1.05-5.27,3.29-8.09,4.6-4.34,2.01-9.35,1.66-14.06,2.49-5.28.93-10.17,3.36-14.85,5.96-15.22,8.44-29.24,19.04-39.87,29.54-4.37,3.3-6.34,8.82-8.08,14.02-3.24,9.69-6.5,19.42-8.36,29.47-3.44,18.55-2.06,37.61-.67,56.43.74,10.03,1.48,20.06,2.39,28.99.13,1.3.27,2.57.41,3.82,5.1,15.76,2.03,32.7,5.03,48.81.55,2.92.71,5.71.67,8.45.32-7.29,1.3-14.56,1.2-21.86-.11-8.06-1.55-16.04-1.93-24.1-.15-3.21-.12-6.48.22-9.7.51-4.83,1.72-9.55,4.09-13.77,4.2-7.51,11.95-13.55,12.62-22.12.43-5.42-2.16-10.56-3.37-15.85-3.39-14.81,5.5-31.43,19.7-36.83,5.7-5.55,15.44-7.42,23.93-4.81,5.79-4.01,14.85-1.92,18.28,4.23,3.59,2.22,9.1-.69,9.28-4.91,6.74,4.88,12.1,11.66,15.28,19.35-.59-2.44-1.19-4.97-.74-7.45.45-2.47,2.25-4.89,4.74-5.22,2.49-.33,5.13,2.31,4.17,4.63,2-1.08,3.07-3.65,2.41-5.83,4.81,3.87,8.47,9.14,10.42,14.99,1.99-5.14,1.37-11.21-1.61-15.84,8.25.56,16.65-1.05,24.11-4.63,6.05,3.09,11.09,8.13,14.18,14.18,1.62-5.16-.34-11.24-4.66-14.49l12.08.87c7.19,5.87,12.88,14.54,14.69,24.01,1.09,5.7,1.08,12.19,5.18,16.3-.47-.05-.95-.11-1.42-.16.11,1.01.21,2.01.32,3.02-.87,4.89,1.73,10.19,6.12,12.5-1.58.47-3.16.95-4.74,1.42,7.46,5.92,11.92,14.97,14.06,24.24,2.12,9.15,2.18,18.63,2.21,28.03,0,.13,0,.26,0,.39,2.49,12.12,4.81,24.95,4.33,37.86-.17,4.75-.76,9.54-1.84,14.2-1.85,7.98-5.13,15.57-10.29,21.89-7.63,9.35-18.67,15.23-29.78,19.96-3.17,3.21-3.69,8.1-5.2,12.36s-5.42,8.63-9.78,7.46c-.73,2.2-1.46,4.39-2.19,6.59-.31.94-.63,1.88-.94,2.82-2.66.65-3.82.65-4.99.64-.89,3.69-3.74,7.45-7.53,7.32-2.04-.07-3.67-1.18-5.24-2.54-2.13-1.86-4.11-4.19-6.76-5.02-.7,2.32-3.44,3.23-5.77,3.9-8.52,2.47-16.61,6.4-23.81,11.58-1.29.93-2.65,1.93-4.23,2.01-1.77.09-3.37-.98-4.81-2.01-1.44-1.03-3.04-2.1-4.81-2-1.42.08-2.8,1.37-2.83,2.68.08.32.16.63.23.94-.17-.3-.24-.62-.23-.94-.86-3.38-2.28-6.99-5.52-8.01-1.15-.36-2.4-.33-3.51-.78-1.74-.71-2.84-2.5-3.22-4.34-.38-1.84-.15-3.74.09-5.6-2.31.86-4.32,2.52-5.6,4.63-4.37-9.5-9.29-26.14-9.29-26.14-1.09,1.25-3.51.74-4-.85-.58,1.38-1.71,2.52-3.09,3.11-1.31-3.12-1.86-6.55-1.61-9.92.01,1.93-2.19,3.36-4.09,3.01-1.9-.35-3.33-2.03-3.96-3.86-.48-1.41-.57-2.92-.57-4.42-.42,1.09-1.76,1.93-2.98,1.66-1.68-.38-2.74-2.19-2.8-3.91-.05-1.3.33-2.55.83-3.77-.86,1.19-2.56,1.82-4.04,1.48-1.92-.44-3.37-2.09-4.09-3.92s-.84-3.83-.94-5.79c-.78,1.44-1.56,2.88-2.33,4.32-2.57-3.72-3.65-8.43-2.95-12.9-1.35,1.29-3.9,4.47-3.9,4.47-2.69-3.45-4.43-7.48-5.49-11.73-1.04-4.18-1.43-8.58-1.42-12.89,0-.65.02-1.31.04-1.96-.33,6.68-1.63,13.14-1.38,20.43.22,6.58,4.05,15.86,7.04,24.08,1,2.74.87,6.57,1.86,8.53,1.83,3.62,3.99,4.05,5.13,6.31,1.37,2.72,1.69,7.2,3.89,11.56,3.29,6.51,6.59,13.04,10.59,19.14.13.2.26.41.39.61,11.79,17.66,29.15,30.69,44.83,42.76,2.94.23,5.87.45,8.81.68-.84,1.03-1.19,2.44-.92,3.74,1.67-.29,3.33-.59,5-.88l1.6,5.04c2.35-1.85,4.69-3.7,7.04-5.55.29.74.59,1.47.88,2.21,18.93-2.01,37.36-8.62,53.27-19.07-1.72.19-3.67-.54-4.77-2.31,11.18-7.13,21.77-15.18,31.64-24.04,5.91,1.01,9.26-8.72,15.24-8.2-1.04-1.22-2.08-2.45-3.12-3.67,5.74-.93,9.03-6.93,11.18-12.33,4.81-12.08,8.29-24.68,10.63-37.42.95-5.15,1.69-10.33,2.27-15.5.43-3.79.78-7.58,1.02-11.35l-3.71-26.18c-1.18-8.31-2.36-16.61-2.83-24.43,2.2-7.29,3.76-14.73,4.88-22.24,2.46-16.49,2.82-33.37,3.14-50.09Z"/>
      </g>
    </g>
    <g>
      <path class="st1" d="M282.45,255.58c.04-.73.06-1.46.07-2.19-.03.73-.05,1.46-.07,2.19Z"/>
      <path class="st1" d="M312.54,299.19c0,.44-.02.88-.02,1.32.16-.42.19-.87.02-1.32Z"/>
      <path class="st5" d="M357.12,354.63c-.07-.31-.15-.62-.23-.94,0,.32.06.64.23.94Z"/>
      <path class="st1" d="M307.58,294.49c.25-.35.44-.74.52-1.18-.18.39-.35.78-.52,1.18Z"/>
      <path class="st7" d="M403.41,473.7c.05-.06.1-.13.15-.19,2.04-2.44,4.36-4.8,5.34-7.82.98-3.02.06-6.98-2.9-8.15-2.24-.89-4.72.06-7.07.59-2.27.51-4.61.56-6.9.23-5.43,3.43-11.21,6.25-17.37,8.19-6.15,1.94-12.66,3.02-18.3,6.14-.57.32-1.13.66-1.67,1.01h48.72Z"/>
      <path class="st5" d="M324.43,440.1c2.7,11.36,5.98,22.55,10.03,33.6h20.79c.55-.36,1.1-.7,1.67-1.01,5.65-3.12,12.15-4.2,18.3-6.14,6.16-1.94,11.94-4.76,17.37-8.19,7.7-4.87,14.68-10.99,20.98-17.71,2.02-2.16,3.98-4.37,5.86-6.63,11.87-14.26,21.44-30.27,32.54-45.13,9.89-13.24,21.03-25.62,29.41-39.86,4.74-8.05,7.65-19.17,9.32-28.97,1.28-7.54,1.82-14.3,1.88-18.28.02-1.48-.21-8.32-.77-14.59-2.34,12.73-5.82,25.34-10.63,37.42-2.15,5.4-5.44,11.41-11.18,12.33,1.04,1.22,2.08,2.45,3.12,3.67-5.97-.52-9.33,9.2-15.24,8.2-9.86,8.86-20.46,16.91-31.64,24.04,1.1,1.77,3.05,2.5,4.77,2.31-15.91,10.45-34.33,17.06-53.27,19.07-.29-.74-.59-1.47-.88-2.21-2.35,1.85-4.69,3.7-7.04,5.55l-1.6-5.04c-1.67.29-3.33.59-5,.88-.26-1.3.08-2.71.92-3.74-2.94-.23-5.87-.45-8.81-.68-15.68-12.07-33.05-25.1-44.83-42.76-.13-.2-.26-.4-.39-.61.69,5.89,1.36,11.74,2.04,17.54,3.1,26.51,6.35,52.1,12.26,76.93Z"/>
      <path class="st4" d="M292.97,479.25c.14-.37.3-.73.43-1.1-.8-.91-1.59-1.83-2.35-2.77-2.06-2.53-3.97-5.25-5.36-8.19-.66-1.41-1.21-2.87-1.58-4.39-1.61-6.68.24-13.65,2.07-20.27,4.6-16.65,9.26-33.39,15.2-49.6-20.22,16.06-46.43,23.27-71.23,31.32-19.06,6.19-37.85,13.19-56.31,20.98-12.14,5.13-24.4,10.77-33.88,19.93-4.33,4.19-7.91,8.95-10.96,14.07h163.97Z"/>
      <path class="st7" d="M285.69,461.65c1.38,2.94,3.29,5.66,5.36,8.19.76.94,1.55,1.86,2.35,2.77.32.37.64.73.96,1.1h39.54c-4.06-11.05-7.33-22.24-10.03-33.6-5.91-24.83-9.16-50.42-12.26-76.93-3.85,7.88-7.21,15.98-10.23,24.22-5.94,16.2-10.59,32.95-15.2,49.6-1.83,6.62-3.67,13.59-2.07,20.27.37,1.52.92,2.98,1.58,4.39Z"/>
      <path class="st1" d="M438.2,473.7c4.49-7.49,8.98-14.97,13.47-22.46-.07-.07-.14-.14-.21-.22-4.8,7.48-9.46,15.05-14.02,22.67h.76Z"/>
      <path class="st7" d="M398.94,458.13c2.35-.53,4.83-1.48,7.07-.59,2.95,1.18,3.88,5.13,2.9,8.15-.98,3.02-3.3,5.38-5.34,7.82-.05.06-.1.13-.15.19h34.04c4.57-7.62,9.23-15.19,14.02-22.67,4.51-7.04,9.12-14.02,13.84-20.92,11.82-17.33,24.47-34.62,30.71-54.66,4.49-14.39,5.06-30.74-.17-44.6-1.44-3.82-3.33-7.44-5.69-10.79-1.67,9.8-4.58,20.92-9.32,28.97-8.38,14.24-19.52,26.62-29.41,39.86-11.1,14.86-20.67,30.87-32.54,45.13-1.88,2.26-3.84,4.47-5.86,6.63-6.3,6.72-13.28,12.84-20.98,17.71,2.29.34,4.64.28,6.9-.23Z"/>
      <path class="st4" d="M539.71,405.09c-7.03,21.32-14.06,52.83-21.1,74.16-.39,1.17-.77-1.17-1.17,0l187.09-1.73s-48.25-34.12-59.95-37.53c-11.7-3.41-36.56-16.08-51.18-22.42-9.46-4.1-34.84-19.83-51.57-30.42.04.2.09.4.14.6,1.47,5.73-.4,11.73-2.26,17.35Z"/>
      <path class="st4" d="M438.2,479.25h76.75c.91-2.19,1.73,2.25,2.49,0,.4-1.17.79,1.17,1.17,0l21.1-74.16c1.85-5.62,3.72-11.62,2.26-17.35-.05-.2-.09-.4-.14-.6-1-4.56-.14-8.65-4.7-9.95-16.32-4.67-22.76-23.99-32.6-35.07-1.99-2.24-4.12-4.57-6.98-5.45-.55-.17-1.13-.26-1.71-.27,5.23,13.86,4.66,30.21.17,44.6-6.24,20.03-18.89,37.32-30.71,54.66-4.71,6.91-9.32,13.88-13.84,20.92.07.07.14.14.21.22-4.49,7.49-8.98,14.97-13.47,22.46Z"/>
      <path class="st1" d="M356.89,353.69c0,.32.06.64.23.94-.07-.31-.15-.62-.23-.94Z"/>
      <path class="st5" d="M481.21,213.99c0-.13,0-.26,0-.39-.03-9.4-.1-18.88-2.21-28.03-2.14-9.28-6.61-18.32-14.06-24.24,1.58-.47,3.16-.95,4.74-1.42-4.39-2.31-6.99-7.61-6.12-12.5-.11-1.01-.21-2.01-.32-3.02.47.05.95.11,1.42.16-4.1-4.11-4.09-10.6-5.18-16.3-1.81-9.47-7.5-18.13-14.69-24.01l-12.08-.87c4.32,3.25,6.28,9.33,4.66,14.49-3.1-6.05-8.13-11.09-14.18-14.18-7.46,3.58-15.85,5.19-24.11,4.63,2.98,4.63,3.6,10.7,1.61,15.84-1.95-5.85-5.61-11.12-10.42-14.99.66,2.18-.41,4.75-2.41,5.83.96-2.33-1.68-4.97-4.17-4.63-2.49.33-4.29,2.75-4.74,5.22-.45,2.47.15,5,.74,7.45-3.18-7.69-8.53-14.47-15.28-19.35-.18,4.22-5.69,7.14-9.28,4.91-3.44-6.15-12.49-8.24-18.28-4.23-8.49-2.61-18.23-.74-23.93,4.81-14.2,5.4-23.09,22.03-19.7,36.83,1.21,5.3,3.8,10.44,3.37,15.85-.68,8.57-8.43,14.62-12.62,22.12-2.36,4.23-3.58,8.94-4.09,13.77-.34,3.21-.38,6.48-.22,9.7.38,8.05,1.82,16.04,1.93,24.1.1,7.3-.88,14.57-1.2,21.86.04-2.74-.13-5.53-.67-8.45-3.01-16.1.07-33.05-5.03-48.81-.14-1.25-.27-2.52-.41-3.82-1.59-.71-3.35-.95-4.98-.41-2.53.84-4.2,3.39-4.74,6-.55,2.61-.17,5.32.21,7.96,1.48,10.39,2.96,20.78,4.45,31.17.74,5.16,6.13,12.25,8.53,16.88,2.4,4.63-3.99,21.66,1.2,22.11-.25-7.29,1.05-13.76,1.38-20.43-.02.65-.04,1.31-.04,1.96,0,4.3.38,8.71,1.42,12.89,1.06,4.25,2.79,8.28,5.49,11.73,0,0,2.55-3.18,3.9-4.47-.7,4.46.38,9.18,2.95,12.9.78-1.44,1.56-2.88,2.33-4.32.11,1.96.22,3.97.94,5.79s2.18,3.48,4.09,3.92c1.48.34,3.18-.29,4.04-1.48-.5,1.21-.88,2.47-.83,3.77.07,1.72,1.12,3.53,2.8,3.91,1.22.27,2.56-.57,2.98-1.66,0,1.5.08,3.01.57,4.42.63,1.83,2.06,3.5,3.96,3.86,1.9.35,4.1-1.07,4.09-3.01-.26,3.37.3,6.8,1.61,9.92,1.38-.59,2.51-1.73,3.09-3.11.49,1.58,2.91,2.09,4,.85,0,0,4.92,16.64,9.29,26.14,1.28-2.11,3.28-3.77,5.6-4.63-.23,1.86-.47,3.76-.09,5.6.38,1.84,1.48,3.63,3.22,4.34,1.11.45,2.37.42,3.51.78,3.25,1.02,4.66,4.63,5.52,8.01.03-1.31,1.4-2.6,2.83-2.68,1.77-.1,3.37.97,4.81,2,1.44,1.03,3.04,2.11,4.81,2.01,1.58-.08,2.95-1.09,4.23-2.01,7.2-5.18,15.29-9.11,23.81-11.58,2.33-.68,5.06-1.58,5.77-3.9,2.65.83,4.63,3.16,6.76,5.02,1.56,1.36,3.2,2.47,5.24,2.54,3.79.13,6.64-3.63,7.53-7.32,1.16,0,2.33,0,4.99-.64.31-.94.63-1.88.94-2.82.73-2.2,1.46-4.39,2.19-6.59,4.36,1.17,8.27-3.2,9.78-7.46s2.02-9.15,5.2-12.36c11.1-4.74,22.15-10.61,29.78-19.96,5.16-6.32,8.45-13.91,10.29-21.89,1.08-4.65,1.66-9.44,1.84-14.2.47-12.91-1.84-25.74-4.33-37.86Z"/>
      <path class="st5" d="M508.54,195.7c.4-3.42-.14-7.25-2.68-9.58-2.81-2.57-7.37-2.46-10.62-.48-.86.52-1.64,1.16-2.34,1.86-1.12,7.51-2.68,14.94-4.88,22.24.48,7.81,1.65,16.12,2.83,24.43l3.71,26.18c-.24,3.77-.59,7.56-1.02,11.35,1.91.02,3.83-.6,5.27-1.86,2.45-2.14,3.32-5.9,2.06-8.89-.67-1.6-1.89-3.02-2.01-4.75-.12-1.73.88-3.31,1.76-4.79,5.98-10,8.54-22.01,7.16-33.59-.47-3.98-1.4-7.95-1.09-11.95.27-3.43,1.44-6.74,1.84-10.16Z"/>
      <path class="st2" d="M496.03,137.41c.25-13.05.5-26.22-1.91-39.05-2.42-12.83-7.72-25.47-17.39-33.7-14.44-17.24-34.16-30-55.8-36.12-13.4-3.79-27.35-5.06-41.05-7.55-3.94-.72-8.09-1.52-11.86-.17-2.93,1.05-5.27,3.29-8.09,4.6-4.34,2.01-9.35,1.66-14.06,2.49-5.28.93-10.17,3.36-14.85,5.96-15.22,8.44-29.24,19.04-39.87,29.54-4.37,3.3-6.34,8.82-8.08,14.02-3.24,9.69-6.5,19.42-8.36,29.47-3.44,18.55-2.06,37.61-.67,56.43.74,10.03,1.48,20.06,2.39,28.99.13,1.3.27,2.57.41,3.82,5.1,15.76,2.03,32.7,5.03,48.81.55,2.92.71,5.71.67,8.45.32-7.29,1.3-14.56,1.2-21.86-.11-8.06-1.55-16.04-1.93-24.1-.15-3.21-.12-6.48.22-9.7.51-4.83,1.72-9.55,4.09-13.77,4.2-7.51,11.95-13.55,12.62-22.12.43-5.42-2.16-10.56-3.37-15.85-3.39-14.81,5.5-31.43,19.7-36.83,5.7-5.55,15.44-7.42,23.93-4.81,5.79-4.01,14.85-1.92,18.28,4.23,3.59,2.22,9.1-.69,9.28-4.91,6.74,4.88,12.1,11.66,15.28,19.35-.59-2.44-1.19-4.97-.74-7.45.45-2.47,2.25-4.89,4.74-5.22,2.49-.33,5.13,2.31,4.17,4.63,2-1.08,3.07-3.65,2.41-5.83,4.81,3.87,8.47,9.14,10.42,14.99,1.99-5.14,1.37-11.21-1.61-15.84,8.25.56,16.65-1.05,24.11-4.63,6.05,3.09,11.09,8.13,14.18,14.18,1.62-5.16-.34-11.24-4.66-14.49l12.08.87c7.19,5.87,12.88,14.54,14.69,24.01,1.09,5.7,1.08,12.19,5.18,16.3-.47-.05-.95-.11-1.42-.16.11,1.01.21,2.01.32,3.02-.87,4.89,1.73,10.19,6.12,12.5-1.58.47-3.16.95-4.74,1.42,7.46,5.92,11.92,14.97,14.06,24.24,2.12,9.15,2.18,18.63,2.21,28.03,0,.13,0,.26,0,.39,2.49,12.12,4.81,24.95,4.33,37.86-.17,4.75-.76,9.54-1.84,14.2-1.85,7.98-5.13,15.57-10.29,21.89-7.63,9.35-18.67,15.23-29.78,19.96-3.17,3.21-3.69,8.1-5.2,12.36s-5.42,8.63-9.78,7.46c-.73,2.2-1.46,4.39-2.19,6.59-.31.94-.63,1.88-.94,2.82-2.66.65-3.82.65-4.99.64-.89,3.69-3.74,7.45-7.53,7.32-2.04-.07-3.67-1.18-5.24-2.54-2.13-1.86-4.11-4.19-6.76-5.02-.7,2.32-3.44,3.23-5.77,3.9-8.52,2.47-16.61,6.4-23.81,11.58-1.29.93-2.65,1.93-4.23,2.01-1.77.09-3.37-.98-4.81-2.01-1.44-1.03-3.04-2.1-4.81-2-1.42.08-2.8,1.37-2.83,2.68.08.32.16.63.23.94-.17-.3-.24-.62-.23-.94-.86-3.38-2.28-6.99-5.52-8.01-1.15-.36-2.4-.33-3.51-.78-1.74-.71-2.84-2.5-3.22-4.34-.38-1.84-.15-3.74.09-5.6-2.31.86-4.32,2.52-5.6,4.63-4.37-9.5-9.29-26.14-9.29-26.14-1.09,1.25-3.51.74-4-.85-.58,1.38-1.71,2.52-3.09,3.11-1.31-3.12-1.86-6.55-1.61-9.92.01,1.93-2.19,3.36-4.09,3.01-1.9-.35-3.33-2.03-3.96-3.86-.48-1.41-.57-2.92-.57-4.42-.42,1.09-1.76,1.93-2.98,1.66-1.68-.38-2.74-2.19-2.8-3.91-.05-1.3.33-2.55.83-3.77-.86,1.19-2.56,1.82-4.04,1.48-1.92-.44-3.37-2.09-4.09-3.92s-.84-3.83-.94-5.79c-.78,1.44-1.56,2.88-2.33,4.32-2.57-3.72-3.65-8.43-2.95-12.9-1.35,1.29-3.9,4.47-3.9,4.47-2.69-3.45-4.43-7.48-5.49-11.73-1.04-4.18-1.43-8.58-1.42-12.89,0-.65.02-1.31.04-1.96-.33,6.68-1.63,13.14-1.38,20.43.22,6.58,4.05,15.86,7.04,24.08,1,2.74.87,6.57,1.86,8.53,1.83,3.62,3.99,4.05,5.13,6.31,1.37,2.72,1.69,7.2,3.89,11.56,3.29,6.51,6.59,13.04,10.59,19.14.13.2.26.41.39.61,11.79,17.66,29.15,30.69,44.83,42.76,2.94.23,5.87.45,8.81.68-.84,1.03-1.19,2.44-.92,3.74,1.67-.29,3.33-.59,5-.88l1.6,5.04c2.35-1.85,4.69-3.7,7.04-5.55.29.74.59,1.47.88,2.21,18.93-2.01,37.36-8.62,53.27-19.07-1.72.19-3.67-.54-4.77-2.31,11.18-7.13,21.77-15.18,31.64-24.04,5.91,1.01,9.26-8.72,15.24-8.2-1.04-1.22-2.08-2.45-3.12-3.67,5.74-.93,9.03-6.93,11.18-12.33,4.81-12.08,8.29-24.68,10.63-37.42.95-5.15,1.69-10.33,2.27-15.5.43-3.79.78-7.58,1.02-11.35l-3.71-26.18c-1.18-8.31-2.36-16.61-2.83-24.43,2.2-7.29,3.76-14.73,4.88-22.24,2.46-16.49,2.82-33.37,3.14-50.09Z"/>
    </g>
    <path class="st1" d="M352.71,256.67c-.83-1.1-.29-2.84.88-3.57s2.71-.61,3.97-.04,2.28,1.54,3.28,2.49c4.26,4.06,9.23,8.39,15.11,8.13,6.03-.27,10.66-5.24,16.13-7.78,2.38-1.1,4.97-1.75,7.59-1.9"/>
    <path class="st1" d="M393,259.58c2.98,0,6.02-.02,8.84-.96s5.45-2.99,6.3-5.85c.68-2.31.12-4.84-1.01-6.97s-2.79-3.92-4.42-5.68"/>
    <path class="st1" d="M354.11,259.15c-1.83-.34-3.68-.68-5.39-1.41s-3.31-1.88-4.23-3.5c-1.34-2.36-1.05-5.32-.29-7.93,1.4-4.81,4.61-9.4,9.35-11.01"/>
    <path class="st7" d="M367.42,289.16c-10.95-1.46-21.36-4.24-31.74-.45,8.65,7.47,18.8,13.37,29.89,16.15,11.09,2.77,24.29.47,34.73-4.18,6.97-3.1,11.86-6.1,17.82-10.86,1.31-1.04,2.73-2.31,2.77-3.99-1.13.26-37.06,5.52-53.46,3.33Z"/>
    <path class="st1" d="M395.68,316.88c-12.78,6.53-28.69,6.56-41.49.07"/>
    <path class="st3" d="M401.16,319.52l9.46.67c-3.56,1.04-7.12,2.09-10.69,3.13l3.89,5.89c-1.73-.72-3.88-.26-5.17,1.1s-1.62,3.54-.8,5.22c-.61-1.24-1.26-2.54-2.39-3.34s-2.89-.88-3.76.2c-1.03,1.28-.27,3.29-1.06,4.73-.75,1.35-2.56,1.67-4.1,1.5s-3.08-.66-4.59-.35-2.91,1.94-2.24,3.34c-.47-1.19-1.04-2.34-1.71-3.42-1.02,2.45-3.53,4.2-6.18,4.31s-5.3-1.45-6.5-3.82c-.59,1.62-1.17,3.24-1.76,4.86.25-1.68-.63-3.46-2.1-4.29s-3.46-.64-4.76.46c.63-2.48-2.13-5.12-4.58-4.36-.61-2.28-2.16-4.3-4.21-5.47,1.61-2.32,1.25-5.8-.82-7.74.47-.4.95-.79,1.42-1.19-.87-.61-1.74-1.21-2.61-1.82,1.84.63,4.09-.56,4.61-2.43,10.44,6.44,23.64,8.21,35.41,4.75,5.37-1.58,10.42-2.27,15.24-1.93Z"/>
    <path class="st1" d="M273.48,225.91l2.82-14.6c.24-1.22.47-2.49.19-3.7s-1.22-2.37-2.47-2.48"/>
    <path class="st1" d="M270.55,199.29c7.38,8.5,11.39,19.86,10.98,31.11"/>
    <path class="st1" d="M505.74,191.64c-8.02,5.23-13.93,13.61-16.17,22.92"/>
    <path class="st1" d="M501.21,200.39l3.35,29.66"/>
    <path class="st1" d="M502.33,236.72c-2.1,2.88-3.92,5.92-5.47,9.12-.33.92-.33,1.81,0,2.68.62,2.38.74,4.51.61,6.96"/>
    <path class="st1" d="M492.59,221.7l.67,11.64"/>
    <path class="st1" d="M358.35,241.4c2.11-9.15,4.21-18.3,6.32-27.46.53-2.3,1.06-4.65.93-7.01s-1.03-4.79-2.89-6.25c.03.4.06.81.09,1.21"/>
    <path class="st1" d="M280.43,408.15c-13.24,13.32-26.48,26.64-39.72,39.96-2.05,2.07-4.2,4.29-4.82,7.14-1.45,6.67,5.75,11.71,11.88,14.72"/>
    <circle class="st3" cx="336.46" cy="203.1" r="7.1"/>
    <circle class="st3" cx="423.86" cy="200.68" r="7.1"/>
    <path class="st3" d="M433.45,288.45c-.44-7.56-3.98-15.39-10.68-18.92-4.83-2.55-10.53-2.57-15.97-2.95-5.23-.37-17.95-6.65-20.93-7-3.13,2.04-6.28,3.94-9.94,4.1-1.73.08-3.39-.25-4.97-.85-5.11.63-10.32.49-15.38-.48-.07.34-.13.67-1.3,1.44-3.63-1.74-7.87.17-11.43,2.05-3.19,1.69-6.38,3.37-9.54,5.11-4.24,2.33-8.69,5.03-10.64,9.46-2.52,5.72-.08,12.27,2.15,18.11s4.16,12.73,1.47,18.49c-.08.4-3.3,7.59-3.3,7.59,4.49-4.87,8.22-10.67,9.48-17.17.76-3.95.59-8.03-.03-12-.34-2.17-.8-4.42-.18-6.53s2.79-3.95,4.9-3.34l.39-3.76c1.73,1.13,3.57,2.29,5.63,2.39s4.35-1.32,4.41-3.38l5.89.63c2.07,1.08,5.03,1.72,8,1.77,1.98.29,3.9-.64,5.79-1.28,1.9-.64,4.22-.9,5.69.46.61.92,2.19.94,3.13.33s1.61-1.61,2.64-2.03c1.03-.42,2.6.34,2.28,1.4.81-1.45,2.92-1.25,4.52-.83,1.6.42,3.67.71,4.59-.67.24-.37.37-.82.69-1.13.54-.51,1.46-.39,2.04.07s.91,1.16,1.22,1.83l.78-2.1,5.6,2.36c3.24-2.1,8.04-1.24,10.35,1.86,2.31-.7,4.19-1.52,6.17-1.45,1.97.06,4.06,1.3,4.42,3.24,1.66-.84,3.78.16,4.81,1.71,1.04,1.55,1.26,3.48,1.46,5.33.66,6.13,1.32,12.26,1.98,18.39,2.12-7.27,4.26-14.71,3.82-22.27Z"/>
    <g>
      <path class="st1" d="M283.01,255.59c.04-.73.06-1.46.07-2.19-.03.73-.05,1.46-.07,2.19Z"/>
      <path class="st1" d="M313.11,299.2c0,.44-.02.88-.02,1.32.16-.42.19-.87.02-1.32Z"/>
      <path class="st1" d="M357.68,354.64c-.07-.31-.15-.62-.23-.94,0,.32.06.64.23.94Z"/>
      <path class="st1" d="M308.14,294.51c.25-.35.44-.74.52-1.18-.18.39-.35.78-.52,1.18Z"/>
      <path class="st1" d="M483.91,214c-.03-9.52-.07-19.14-2.21-28.42-2.14-9.28-6.61-18.32-14.06-24.24,1.58-.47,3.16-.95,4.74-1.42-4.39-2.31-6.99-7.61-6.12-12.5-.11-1.01-.21-2.01-.32-3.02.47.05.95.11,1.42.16-4.1-4.11-4.09-10.6-5.18-16.3-1.81-9.47-7.5-18.13-14.69-24.01l-12.08-.87c4.32,3.25,6.28,9.33,4.66,14.49-3.1-6.05-8.13-11.09-14.18-14.18-7.46,3.58-15.85,5.19-24.11,4.63,2.98,4.63,3.6,10.7,1.61,15.84-1.95-5.85-5.61-11.12-10.42-14.99.66,2.18-.41,4.75-2.41,5.83.96-2.33-1.68-4.97-4.17-4.63-2.49.33-4.29,2.75-4.74,5.22-.45,2.47.15,5,.74,7.45-3.18-7.69-8.53-14.47-15.28-19.35-.18,4.22-5.69,7.14-9.28,4.91-3.44-6.15-12.49-8.24-18.28-4.23-8.49-2.61-18.23-.74-23.93,4.81-14.2,5.4-23.09,22.03-19.7,36.83,1.21,5.3,3.8,10.44,3.37,15.85-.68,8.57-8.43,14.62-12.62,22.12-3.93,7.03-4.69,15.42-4.31,23.47.38,8.05,1.82,16.04,1.93,24.1.1,7.3-.88,14.57-1.2,21.86,0,.73-.03,1.47-.07,2.19-.02.65-.04,1.31-.04,1.96-.01,8.68,1.57,17.77,6.91,24.62,0,0,2.55-3.18,3.9-4.47-.7,4.46.38,9.18,2.95,12.9.78-1.44,1.56-2.88,2.33-4.32.11,1.96.22,3.97.94,5.79s2.18,3.48,4.09,3.92c1.48.34,3.18-.29,4.04-1.48.16-.4.34-.79.52-1.18-.08.44-.27.83-.52,1.18-.5,1.21-.88,2.47-.83,3.77.07,1.72,1.12,3.53,2.8,3.91,1.22.27,2.56-.57,2.98-1.66,0-.44,0-.88.02-1.32.17.44.14.9-.02,1.32,0,1.5.08,3.01.57,4.42.63,1.83,2.06,3.5,3.96,3.86,1.9.35,4.1-1.07,4.09-3.01-.26,3.37.3,6.8,1.61,9.92,1.38-.59,2.51-1.73,3.09-3.11.49,1.58,2.91,2.09,4,.85,0,0,4.92,16.64,9.29,26.14,1.28-2.11,3.28-3.77,5.6-4.63-.23,1.86-.47,3.76-.09,5.6.38,1.84,1.48,3.63,3.22,4.34,1.11.45,2.37.42,3.51.78,3.25,1.02,4.66,4.63,5.52,8.01.03-1.31,1.4-2.6,2.83-2.68,1.77-.1,3.37.97,4.81,2,1.44,1.03,3.04,2.11,4.81,2.01,1.58-.08,2.95-1.09,4.23-2.01,7.2-5.18,15.29-9.11,23.81-11.58,2.33-.68,5.06-1.58,5.77-3.9,2.65.83,4.63,3.16,6.76,5.02,1.56,1.36,3.2,2.47,5.24,2.54,3.79.13,6.64-3.63,7.53-7.32,1.16,0,2.33,0,4.99-.64.31-.94.63-1.88.94-2.82.73-2.2,1.46-4.39,2.19-6.59,4.36,1.17,8.27-3.2,9.78-7.46s2.02-9.15,5.2-12.36c11.1-4.74,22.15-10.61,29.78-19.96,8.17-10.01,11.66-23.18,12.13-36.09.47-12.91-1.84-25.74-4.33-37.86Z"/>
      <path class="st1" d="M403.97,473.71c.05-.06.1-.13.15-.19,2.04-2.44,4.36-4.8,5.34-7.82.98-3.02.06-6.98-2.9-8.15-2.24-.89-4.72.06-7.07.59-2.27.51-4.61.56-6.9.23-5.43,3.43-11.21,6.25-17.37,8.19-6.15,1.94-12.66,3.02-18.3,6.14-.57.32-1.13.66-1.67,1.01h48.72Z"/>
      <path class="st1" d="M324.43,440.11c2.7,11.36,5.98,22.55,10.03,33.6h20.79c.55-.36,1.1-.7,1.67-1.01,5.65-3.12,12.15-4.2,18.3-6.14,6.16-1.94,11.94-4.76,17.37-8.19,7.7-4.87,14.68-10.99,20.98-17.71,2.02-2.16,3.98-4.37,5.86-6.63,11.87-14.26,21.44-30.27,32.54-45.13,9.89-13.24,21.03-25.62,29.41-39.86,4.74-8.05,7.65-19.17,9.32-28.97,1.28-7.54,1.82-14.3,1.88-18.28.02-1.48-.21-8.32-.77-14.59-2.34,12.73-5.82,25.34-10.63,37.42-2.15,5.4-5.44,11.41-11.18,12.33,1.04,1.22,2.08,2.45,3.12,3.67-5.97-.52-9.33,9.2-15.24,8.2-9.86,8.86-20.46,16.91-31.64,24.04,1.1,1.77,3.05,2.5,4.77,2.31-15.91,10.45-34.33,17.06-53.27,19.07-.29-.74-.59-1.47-.88-2.21-2.35,1.85-4.69,3.7-7.04,5.55l-1.6-5.04c-1.67.29-3.33.59-5,.88-.26-1.3.08-2.71.92-3.74-2.94-.23-5.87-.45-8.81-.68-15.68-12.07-33.05-25.1-44.83-42.76-.13-.2-.26-.4-.39-.61.69,5.89,1.36,11.74,2.04,17.54,3.1,26.51,6.35,52.1,12.26,76.93Z"/>
      <path class="st1" d="M293.53,473.71c.14-.37.3-.73.43-1.1-.8-.91-1.59-1.83-2.35-2.77-2.06-2.53-3.97-5.25-5.36-8.19-.66-1.41-1.21-2.87-1.58-4.39-1.61-6.68.24-13.65,2.07-20.27,4.6-16.65,9.26-33.39,15.2-49.6-20.22,16.06-46.43,23.27-71.23,31.32-19.06,6.19-37.85,13.19-56.31,20.98-12.14,5.13-24.4,10.77-33.88,19.93-4.33,4.19-7.91,8.95-10.96,14.07h163.97Z"/>
      <path class="st1" d="M286.25,461.66c1.38,2.94,3.29,5.66,5.36,8.19.76.94,1.55,1.86,2.35,2.77.32.37.64.73.96,1.1h39.54c-4.06-11.05-7.33-22.24-10.03-33.6-5.91-24.83-9.16-50.42-12.26-76.93-3.85,7.88-7.21,15.98-10.23,24.22-5.94,16.2-10.59,32.95-15.2,49.6-1.83,6.62-3.67,13.59-2.07,20.27.37,1.52.92,2.98,1.58,4.39Z"/>
      <path class="st1" d="M438.76,473.71c4.49-7.49,8.98-14.97,13.47-22.46-.07-.07-.14-.14-.21-.22-4.8,7.48-9.46,15.05-14.02,22.67h.76Z"/>
      <path class="st1" d="M399.5,458.14c2.35-.53,4.83-1.48,7.07-.59,2.95,1.18,3.88,5.13,2.9,8.15-.98,3.02-3.3,5.38-5.34,7.82-.05.06-.1.13-.15.19h34.04c4.57-7.62,9.23-15.19,14.02-22.67,4.51-7.04,9.12-14.02,13.84-20.92,11.82-17.33,24.47-34.62,30.71-54.66,4.49-14.39,5.06-30.74-.17-44.6-1.44-3.82-3.33-7.44-5.69-10.79-1.67,9.8-4.58,20.92-9.32,28.97-8.38,14.24-19.52,26.62-29.41,39.86-11.1,14.86-20.67,30.87-32.54,45.13-1.88,2.26-3.84,4.47-5.86,6.63-6.3,6.72-13.28,12.84-20.98,17.71,2.29.34,4.64.28,6.9-.23Z"/>
      <path class="st1" d="M540.27,399.56l-21.1,63.97c-.39,1.17-.77,2.34-1.17,3.51l187.09,4.94s-48.25-34.12-59.95-37.53c-11.7-3.41-36.56-16.08-51.18-22.42-9.46-4.1-34.84-19.83-51.57-30.42.04.2.09.4.14.6,1.47,5.73-.4,11.73-2.26,17.35Z"/>
      <path class="st1" d="M438.76,473.71h76.75c.91-2.19,1.73-4.42,2.49-6.67.4-1.17.79-2.34,1.17-3.51l21.1-63.97c1.85-5.62,3.72-11.62,2.26-17.35-.05-.2-.09-.4-.14-.6-1-4.56-.14-8.65-4.7-9.95-16.32-4.67-22.76-23.99-32.6-35.07-1.99-2.24-4.12-4.57-6.98-5.45-.55-.17-1.13-.26-1.71-.27,5.23,13.86,4.66,30.21.17,44.6-6.24,20.03-18.89,37.32-30.71,54.66-4.71,6.91-9.32,13.88-13.84,20.92.07.07.14.14.21.22-4.49,7.49-8.98,14.97-13.47,22.46Z"/>
      <g>
        <path class="st1" d="M357.45,353.7c0,.32.06.64.23.94-.07-.31-.15-.62-.23-.94Z"/>
        <path class="st1" d="M483.91,214c0-.13,0-.26,0-.39-.03-9.4-.1-18.88-2.21-28.03-2.14-9.28-6.61-18.32-14.06-24.24,1.58-.47,3.16-.95,4.74-1.42-4.39-2.31-6.99-7.61-6.12-12.5-.11-1.01-.21-2.01-.32-3.02.47.05.95.11,1.42.16-4.1-4.11-4.09-10.6-5.18-16.3-1.81-9.47-7.5-18.13-14.69-24.01l-12.08-.87c4.32,3.25,6.28,9.33,4.66,14.49-3.1-6.05-8.13-11.09-14.18-14.18-7.46,3.58-15.85,5.19-24.11,4.63,2.98,4.63,3.6,10.7,1.61,15.84-1.95-5.85-5.61-11.12-10.42-14.99.66,2.18-.41,4.75-2.41,5.83.96-2.33-1.68-4.97-4.17-4.63-2.49.33-4.29,2.75-4.74,5.22-.45,2.47.15,5,.74,7.45-3.18-7.69-8.53-14.47-15.28-19.35-.18,4.22-5.69,7.14-9.28,4.91-3.44-6.15-12.49-8.24-18.28-4.23-8.49-2.61-18.23-.74-23.93,4.81-14.2,5.4-23.09,22.03-19.7,36.83,1.21,5.3,3.8,10.44,3.37,15.85-.68,8.57-8.43,14.62-12.62,22.12-2.36,4.23-3.58,8.94-4.09,13.77-.34,3.21-.38,6.48-.22,9.7.38,8.05,1.82,16.04,1.93,24.1.1,7.3-.88,14.57-1.2,21.86.04-2.74-.13-5.53-.67-8.45-3.01-16.1.07-33.05-5.03-48.81-.14-1.25-.27-2.52-.41-3.82-1.59-.71-3.35-.95-4.98-.41-2.53.84-4.2,3.39-4.74,6-.55,2.61-.17,5.32.21,7.96,1.48,10.39,2.96,20.78,4.45,31.17.74,5.16,6.13,12.25,8.53,16.88,2.4,4.63-3.99,21.66,1.2,22.11-.25-7.29,1.05-13.76,1.38-20.43-.02.65-.04,1.31-.04,1.96,0,4.3.38,8.71,1.42,12.89,1.06,4.25,2.79,8.28,5.49,11.73,0,0,2.55-3.18,3.9-4.47-.7,4.46.38,9.18,2.95,12.9.78-1.44,1.56-2.88,2.33-4.32.11,1.96.22,3.97.94,5.79s2.18,3.48,4.09,3.92c1.48.34,3.18-.29,4.04-1.48-.5,1.21-.88,2.47-.83,3.77.07,1.72,1.12,3.53,2.8,3.91,1.22.27,2.56-.57,2.98-1.66,0,1.5.08,3.01.57,4.42.63,1.83,2.06,3.5,3.96,3.86,1.9.35,4.1-1.07,4.09-3.01-.26,3.37.3,6.8,1.61,9.92,1.38-.59,2.51-1.73,3.09-3.11.49,1.58,2.91,2.09,4,.85,0,0,4.92,16.64,9.29,26.14,1.28-2.11,3.28-3.77,5.6-4.63-.23,1.86-.47,3.76-.09,5.6.38,1.84,1.48,3.63,3.22,4.34,1.11.45,2.37.42,3.51.78,3.25,1.02,4.66,4.63,5.52,8.01.03-1.31,1.4-2.6,2.83-2.68,1.77-.1,3.37.97,4.81,2,1.44,1.03,3.04,2.11,4.81,2.01,1.58-.08,2.95-1.09,4.23-2.01,7.2-5.18,15.29-9.11,23.81-11.58,2.33-.68,5.06-1.58,5.77-3.9,2.65.83,4.63,3.16,6.76,5.02,1.56,1.36,3.2,2.47,5.24,2.54,3.79.13,6.64-3.63,7.53-7.32,1.16,0,2.33,0,4.99-.64.31-.94.63-1.88.94-2.82.73-2.2,1.46-4.39,2.19-6.59,4.36,1.17,8.27-3.2,9.78-7.46s2.02-9.15,5.2-12.36c11.1-4.74,22.15-10.61,29.78-19.96,5.16-6.32,8.45-13.91,10.29-21.89,1.08-4.65,1.66-9.44,1.84-14.2.47-12.91-1.84-25.74-4.33-37.86Z"/>
        <path class="st1" d="M509.1,195.71c.4-3.42-.14-7.25-2.68-9.58-2.81-2.57-7.37-2.46-10.62-.48-.86.52-1.64,1.16-2.34,1.86-1.12,7.51-2.68,14.94-4.88,22.24.48,7.81,1.65,16.12,2.83,24.43l3.71,26.18c-.24,3.77-.59,7.56-1.02,11.35,1.91.02,3.83-.6,5.27-1.86,2.45-2.14,3.32-5.9,2.06-8.89-.67-1.6-1.89-3.02-2.01-4.75-.12-1.73.88-3.31,1.76-4.79,5.98-10,8.54-22.01,7.16-33.59-.47-3.98-1.4-7.95-1.09-11.95.27-3.43,1.44-6.74,1.84-10.16Z"/>
        <path class="st1" d="M496.59,137.42c.25-13.05.5-26.22-1.91-39.05-2.42-12.83-7.72-25.47-17.39-33.7-14.44-17.24-34.16-30-55.8-36.12-13.4-3.79-27.35-5.06-41.05-7.55-3.94-.72-8.09-1.52-11.86-.17-2.93,1.05-5.27,3.29-8.09,4.6-4.34,2.01-9.35,1.66-14.06,2.49-5.28.93-10.17,3.36-14.85,5.96-15.22,8.44-29.24,19.04-39.87,29.54-4.37,3.3-6.34,8.82-8.08,14.02-3.24,9.69-6.5,19.42-8.36,29.47-3.44,18.55-2.06,37.61-.67,56.43.74,10.03,1.48,20.06,2.39,28.99.13,1.3.27,2.57.41,3.82,5.1,15.76,2.03,32.7,5.03,48.81.55,2.92.71,5.71.67,8.45.32-7.29,1.3-14.56,1.2-21.86-.11-8.06-1.55-16.04-1.93-24.1-.15-3.21-.12-6.48.22-9.7.51-4.83,1.72-9.55,4.09-13.77,4.2-7.51,11.95-13.55,12.62-22.12.43-5.42-2.16-10.56-3.37-15.85-3.39-14.81,5.5-31.43,19.7-36.83,5.7-5.55,15.44-7.42,23.93-4.81,5.79-4.01,14.85-1.92,18.28,4.23,3.59,2.22,9.1-.69,9.28-4.91,6.74,4.88,12.1,11.66,15.28,19.35-.59-2.44-1.19-4.97-.74-7.45.45-2.47,2.25-4.89,4.74-5.22,2.49-.33,5.13,2.31,4.17,4.63,2-1.08,3.07-3.65,2.41-5.83,4.81,3.87,8.47,9.14,10.42,14.99,1.99-5.14,1.37-11.21-1.61-15.84,8.25.56,16.65-1.05,24.11-4.63,6.05,3.09,11.09,8.13,14.18,14.18,1.62-5.16-.34-11.24-4.66-14.49l12.08.87c7.19,5.87,12.88,14.54,14.69,24.01,1.09,5.7,1.08,12.19,5.18,16.3-.47-.05-.95-.11-1.42-.16.11,1.01.21,2.01.32,3.02-.87,4.89,1.73,10.19,6.12,12.5-1.58.47-3.16.95-4.74,1.42,7.46,5.92,11.92,14.97,14.06,24.24,2.12,9.15,2.18,18.63,2.21,28.03,0,.13,0,.26,0,.39,2.49,12.12,4.81,24.95,4.33,37.86-.17,4.75-.76,9.54-1.84,14.2-1.85,7.98-5.13,15.57-10.29,21.89-7.63,9.35-18.67,15.23-29.78,19.96-3.17,3.21-3.69,8.1-5.2,12.36s-5.42,8.63-9.78,7.46c-.73,2.2-1.46,4.39-2.19,6.59-.31.94-.63,1.88-.94,2.82-2.66.65-3.82.65-4.99.64-.89,3.69-3.74,7.45-7.53,7.32-2.04-.07-3.67-1.18-5.24-2.54-2.13-1.86-4.11-4.19-6.76-5.02-.7,2.32-3.44,3.23-5.77,3.9-8.52,2.47-16.61,6.4-23.81,11.58-1.29.93-2.65,1.93-4.23,2.01-1.77.09-3.37-.98-4.81-2.01-1.44-1.03-3.04-2.1-4.81-2-1.42.08-2.8,1.37-2.83,2.68.08.32.16.63.23.94-.17-.3-.24-.62-.23-.94-.86-3.38-2.28-6.99-5.52-8.01-1.15-.36-2.4-.33-3.51-.78-1.74-.71-2.84-2.5-3.22-4.34-.38-1.84-.15-3.74.09-5.6-2.31.86-4.32,2.52-5.6,4.63-4.37-9.5-9.29-26.14-9.29-26.14-1.09,1.25-3.51.74-4-.85-.58,1.38-1.71,2.52-3.09,3.11-1.31-3.12-1.86-6.55-1.61-9.92.01,1.93-2.19,3.36-4.09,3.01-1.9-.35-3.33-2.03-3.96-3.86-.48-1.41-.57-2.92-.57-4.42-.42,1.09-1.76,1.93-2.98,1.66-1.68-.38-2.74-2.19-2.8-3.91-.05-1.3.33-2.55.83-3.77-.86,1.19-2.56,1.82-4.04,1.48-1.92-.44-3.37-2.09-4.09-3.92s-.84-3.83-.94-5.79c-.78,1.44-1.56,2.88-2.33,4.32-2.57-3.72-3.65-8.43-2.95-12.9-1.35,1.29-3.9,4.47-3.9,4.47-2.69-3.45-4.43-7.48-5.49-11.73-1.04-4.18-1.43-8.58-1.42-12.89,0-.65.02-1.31.04-1.96-.33,6.68-1.63,13.14-1.38,20.43.22,6.58,4.05,15.86,7.04,24.08,1,2.74.87,6.57,1.86,8.53,1.83,3.62,3.99,4.05,5.13,6.31,1.37,2.72,1.69,7.2,3.89,11.56,3.29,6.51,6.59,13.04,10.59,19.14.13.2.26.41.39.61,11.79,17.66,29.15,30.69,44.83,42.76,2.94.23,5.87.45,8.81.68-.84,1.03-1.19,2.44-.92,3.74,1.67-.29,3.33-.59,5-.88l1.6,5.04c2.35-1.85,4.69-3.7,7.04-5.55.29.74.59,1.47.88,2.21,18.93-2.01,37.36-8.62,53.27-19.07-1.72.19-3.67-.54-4.77-2.31,11.18-7.13,21.77-15.18,31.64-24.04,5.91,1.01,9.26-8.72,15.24-8.2-1.04-1.22-2.08-2.45-3.12-3.67,5.74-.93,9.03-6.93,11.18-12.33,4.81-12.08,8.29-24.68,10.63-37.42.95-5.15,1.69-10.33,2.27-15.5.43-3.79.78-7.58,1.02-11.35l-3.71-26.18c-1.18-8.31-2.36-16.61-2.83-24.43,2.2-7.29,3.76-14.73,4.88-22.24,2.46-16.49,2.82-33.37,3.14-50.09Z"/>
      </g>
    </g>
    <path class="st1" d="M367.42,289.16c-10.95-1.46-21.36-4.24-31.74-.45,8.65,7.47,18.8,13.37,29.89,16.15,11.09,2.77,24.29.47,34.73-4.18,6.97-3.1,11.86-6.1,17.82-10.86,1.31-1.04,2.73-2.31,2.77-3.99-1.13.26-37.06,5.52-53.46,3.33Z"/>
  </g>
</svg>