<?xml version="1.0" encoding="UTF-8"?>
<svg id="Layer_1" xmlns="http://www.w3.org/2000/svg" xmlns:xlink="http://www.w3.org/1999/xlink" version="1.1" viewBox="0 0 841.89 467.72">
  <!-- Generator: Adobe Illustrator 29.0.0, SVG Export Plug-In . SVG Version: 2.1.0 Build 186)  -->
  <defs>
    <style>
      .st0, .st1 {
        fill: none;
      }

      .st2 {
        fill: #5f544c;
      }

      .st3 {
        fill: #55565a;
      }

      .st4 {
        fill: #df625c;
      }

      .st5 {
        fill: #6ba5c7;
      }

      .st6 {
        fill: #e6b49f;
      }

      .st7 {
        fill: #fff;
      }

      .st8 {
        clip-path: url(#clippath);
      }

      .st1 {
        stroke: #55565a;
        stroke-miterlimit: 10;
        stroke-width: .97px;
      }
    </style>
    <clipPath id="clippath">
      <rect class="st0" width="841.89" height="469.84"/>
    </clipPath>
  </defs>
  <g class="st8">
    <rect class="st4" width="841.89" height="469.84"/>
    <g>
      <path class="st7" d="M323.66,217.94c1.51-26.65,8.22-53,19.66-77.12-3.62-14.89-4.73-30.79-.14-45.41,4.59-14.62,15.57-27.76,30.23-32.23,10.21-4.28,21.78-.6,32.59,1.98,5.88,1.4,11.85,2.47,17.86,3.11,11.4,1.21,23,.87,34.2-1.57,5.12-1.11,10.27-2.67,15.5-2.28,4.22.31,8.25,1.89,12.06,3.75,22.01,10.8,38.29,32.56,42.44,56.72,1.89,10.12-4.37,20.8-4.33,31.69.03,6.83,2.53,13.38,4.35,19.96,3.24,11.69,4.35,23.67,4.18,35.74,2.27-1.06,4.73-1.68,7.21-1.79,5.68-25.84,7.63-52.46,5.61-78.5-.68-16.61-4.31-33.09-10.67-48.45-1.14-2.76-2.38-5.51-3.01-8.43-.56-2.58-.63-5.24-1.07-7.85-.99-5.9-3.93-11.45-8.25-15.59-1.78-1.71-3.88-3.32-4.58-5.68-.81-2.72.49-5.64.14-8.46-.43-3.47-3.33-6.23-6.58-7.54-3.25-1.31-6.82-1.45-10.32-1.66-8.62-.51-17.31-1.54-25.43-4.49-3.07-1.11-6.86-2.38-9.28-.18-4.75-5.45-13.5-6.87-22.29-2.16-8.45-4.89-19.63-4.64-27.85.63-.33-3.61-4.98-4.96-8.6-4.68-7.16.55-13.78,3.83-20.2,7.04-15.03,7.53-31.43,16.6-36.92,33.39-2.69,2.34-5.37,4.69-8.06,7.03-.96.84-1.97,1.75-2.34,2.98-.22.74-.18,1.53-.36,2.28-.31,1.25-1.19,2.26-2.05,3.22-7.3,8.18-14.68,17.23-16.08,28.1-.48,3.71-.23,7.48-.54,11.2-.62,7.31-3.4,14.26-4.87,21.45-1.59,7.77-1.62,15.86-.09,23.65.75,3.81,1.86,7.57,2.23,11.44.66,6.88-1.05,13.66-2.44,20.49.23.44.41.89.53,1.38,4.89,8.04,7.55,17.44,7.57,26.85Z"/>
      <path class="st7" d="M549.35,213.46c-1.46-1.29-3.3-2.07-5.19-2.54-1.55-.38-3.13-.51-4.7-.44-2.48.11-4.94.73-7.21,1.79-.09,6.06-.5,12.14-1.14,18.22-1.38,13.11-3.79,26.24-6.22,39.13-.48,8.21-.91,17.15-2.47,25.94.42-.17.83-.35,1.22-.54,7.32-3.62,13.24-9.71,17.5-16.68s6.94-14.8,8.83-22.74c2.23-9.38,3.4-19.01,3.48-28.65.04-4.85-.45-10.28-4.09-13.48Z"/>
      <path class="st7" d="M521.72,471.04h170.52s-46.78-44.17-69.95-49.35c-11.77-2.63-24.12-2.49-35.64-6.08-16.35-5.09-14.17-11.57-27.73-22.04-5.6-4.33-26.2-7.54-35.59-11.96-4.78-2.25-8.21-4.57-11.11-6.59,10.14,30.8,13.41,63.83,9.49,96.02Z"/>
      <path class="st7" d="M491.07,435.87c-4.58-1.14-8.02,3.94-10.35,8.04-6.35,11.18-15.74,20.49-26.75,27.12h58.5c-5.22-9.75-10.45-19.49-15.67-29.24-1.34-2.5-2.98-5.24-5.73-5.92Z"/>
      <path class="st7" d="M223.28,381.6c-8.07,2.24-3.69,4.52-11.76,6.77-8.25,2.29-13.06-2.82-20.68,1.07-24.26,12.36-104.74,81.6-104.74,81.6h208.74c-9.67-35.08-19.35-70.17-29.02-105.25-12.64,4.7-38.31,14.65-42.54,15.82Z"/>
      <path class="st7" d="M528.07,176.53c-1.82-6.59-4.33-13.13-4.35-19.96-.04-10.89,6.22-21.57,4.33-31.69-4.15-24.16-20.43-45.92-42.44-56.72-3.8-1.87-7.83-3.44-12.06-3.75-5.23-.39-10.38,1.17-15.5,2.28-11.2,2.43-22.8,2.78-34.2,1.57-6.01-.64-11.98-1.7-17.86-3.11-10.81-2.58-22.38-6.26-32.59-1.98-14.66,4.47-25.64,17.61-30.23,32.23-4.59,14.62-3.49,30.52.14,45.41-11.43,24.12-18.15,50.47-19.66,77.12-.02-9.42-2.68-18.81-7.57-26.85-.12-.48-.3-.94-.53-1.38-1.72-3.31-6.16-5.11-9.91-4.15-4.45,1.14-7.69,5.2-9.12,9.57-1.43,4.37-1.35,9.07-1.26,13.67.36,17.98.93,36.6,8.82,52.77,2.21,4.54,5.13,8.96,9.46,11.55s10.34,2.9,13.36-.29c1.19,8.92,3.48,17.67,6.72,26.06,6.1,15.8,15.62,30.3,27.86,42.02,3.97,3.8,8.23,7.29,12.71,10.47,14.87,10.57,32.24,17.63,50.28,20.31,4.12.61,8.31.55,12.4-.23,7.25-1.38,19.59-4.18,27.45-8.51,7.86-4.32,15-9.79,21.86-15.6,3.35-2.84,6.64-5.76,9.91-8.67.63-.56,1.27-1.13,1.9-1.7,5.47-4.89,10.85-9.95,14.93-16.03,5.16-7.7,7.91-16.47,9.5-25.4,1.56-8.79,1.99-17.73,2.47-25.94,2.43-12.89,4.84-26.02,6.22-39.13.64-6.08,1.05-12.16,1.14-18.22.18-12.07-.94-24.05-4.18-35.74Z"/>
      <path class="st7" d="M381.42,464.65c-.88-3.71-1.78-7.41-3.32-10.9-2.74-6.19-8.41-11.87-15.18-11.63-3.31.12-6.33,1.6-9.17,3.39-.93.59-1.85,1.21-2.75,1.82-11.54,7.9-23.09,15.8-34.63,23.7h66.68c-.62-2.11-1.12-4.25-1.63-6.39Z"/>
      <path class="st7" d="M392,468.45c-4.09-9.84-10.2-18.98-17-27.25-11.01-13.4-23.94-25.12-34.92-38.54-6.33-7.74-12.05-16.25-16.07-25.37-.81-1.84-1.56-3.71-2.22-5.6-1.75-4.99-2.95-10.14-3.43-15.44-.03-.33-.05-.66-.07-.99-.1-1.77-.02-3.61.4-5.29.48-1.9,1.4-3.59,3.02-4.69.34-.23.71-.43,1.08-.6,2.37-1.07,3.95-3.37,4.37-5.94,1.19-7.28,2.37-14.56,3.56-21.84-4.1-.97-8.55-.78-12.63.34-6.8,1.87-12.76,5.99-18.18,10.5-13.02,10.84-23.68,24.19-34.24,37.44h0c9.73,35.29,19.46,70.59,29.19,105.88h21.53c11.54-7.9,23.09-15.8,34.63-23.7.9-.62,1.81-1.24,2.75-1.82,2.84-1.79,5.86-3.27,9.17-3.39,6.77-.24,12.44,5.44,15.18,11.63,1.54,3.48,2.44,7.18,3.32,10.9.51,2.14,1.01,4.28,1.63,6.39h9.96c-.32-.87-.66-1.73-1.01-2.59Z"/>
      <path class="st7" d="M512.23,375.02c-.6-1.81-1.2-3.61-1.85-5.41-1.82-5.09-3.89-10.2-7.36-14.35-1.51-1.8-3.32-3.4-5.34-4.61-.26,4.76-.68,9.5-1.25,14.23-3.67,30.01-13.65,59.26-29.26,85.16-3.6,5.97-7.68,11.96-13.61,15.63-7.38,4.58-16.53,4.95-25.22,5.18-.44.01-.87.02-1.31.03-.06.05-.12.1-.18.16h27.11c11.01-6.63,20.4-15.94,26.75-27.12,2.33-4.1,5.77-9.18,10.35-8.04,2.75.68,4.39,3.43,5.73,5.92,5.22,9.75,10.45,19.49,15.67,29.24h9.24c3.92-32.19.65-65.22-9.49-96.02Z"/>
      <path class="st7" d="M497.99,336.99c-.63.57-1.27,1.13-1.9,1.7-3.27,2.91-6.56,5.83-9.91,8.67-6.86,5.81-13.99,11.28-21.86,15.6-7.87,4.33-20.21,7.13-27.46,8.51-4.02.76-8.13.85-12.18.26-18.12-2.66-35.57-9.73-50.49-20.35-4.48-3.18-8.74-6.67-12.71-10.47-12.24-11.72-21.76-26.21-27.86-42.02-.98,6-1.95,12-2.93,17.99-1.19,7.28-2.37,14.56-3.56,21.84-.42,2.57-2,4.86-4.37,5.94-.37.17-.74.37-1.08.6-1.62,1.1-2.54,2.79-3.02,4.69-.42,1.68-.5,3.53-.4,5.29.02.33.04.67.07.99.48,5.3,1.68,10.45,3.43,15.44.66,1.89,1.41,3.76,2.22,5.6,4.02,9.12,9.74,17.63,16.07,25.37,10.98,13.42,23.91,25.15,34.92,38.54,6.8,8.27,12.91,17.41,17,27.25.36.86.69,1.72,1.01,2.59h33.85c.06-.05.12-.1.18-.16.44-.01.87-.02,1.31-.03,8.69-.23,17.84-.6,25.22-5.18,5.93-3.68,10-9.66,13.61-15.63,15.61-25.9,25.6-55.14,29.26-85.16.58-4.73.99-9.48,1.25-14.23.25-4.55.35-9.11.31-13.67Z"/>
    </g>
    <g>
      <path class="st6" d="M549.35,214.43c-1.46-1.29-3.3-2.07-5.19-2.54-1.55-.38-3.13-.51-4.7-.44-2.48.11-4.94.73-7.21,1.79-.09,6.06-.5,12.14-1.14,18.22-1.38,13.11-3.79,26.24-6.22,39.13-.48,8.21-.91,17.15-2.47,25.94.42-.17.83-.35,1.22-.54,7.32-3.62,13.24-9.71,17.5-16.68s6.94-14.8,8.83-22.74c2.23-9.38,3.4-19.01,3.48-28.65.04-4.85-.45-10.28-4.09-13.48Z"/>
      <path class="st5" d="M521.72,472.01h170.52s-46.78-44.17-69.95-49.35c-11.77-2.63-24.12-2.49-35.64-6.08-16.35-5.09-14.17-11.57-27.73-22.04-5.6-4.33-26.2-7.54-35.59-11.96-4.78-2.25-8.21-4.57-11.11-6.59,10.14,30.8,13.41,63.83,9.49,96.02Z"/>
      <path class="st5" d="M491.07,436.84c-4.58-1.14-8.02,3.94-10.35,8.04-6.35,11.18-15.74,20.49-26.75,27.12h58.5c-5.22-9.75-10.45-19.49-15.67-29.24-1.34-2.5-2.98-5.24-5.73-5.92Z"/>
      <path class="st5" d="M223.28,382.58c-8.07,2.24-3.69,4.52-11.76,6.77-8.25,2.29-13.06-2.82-20.68,1.07-24.26,12.36-104.74,81.6-104.74,81.6h208.74c-9.67-35.08-19.35-70.17-29.02-105.25-12.64,4.7-38.31,14.65-42.54,15.82Z"/>
      <path class="st6" d="M525.74,179.36c-1.82-6.59-4.33-13.13-4.35-19.96-.04-10.89,6.22-21.57,4.33-31.69-4.15-24.16-20.43-45.92-42.44-56.72-3.8-1.87-7.83-3.44-12.06-3.75-5.23-.39-10.38,1.17-15.5,2.28-11.2,2.43-22.8,2.78-34.2,1.57-6.01-.64-11.98-1.7-17.86-3.11-10.81-2.58-22.38-6.26-32.59-1.98-14.66,4.47-25.64,17.61-30.23,32.23-4.59,14.62-3.49,30.52.14,45.41-11.43,24.12-18.15,50.47-19.66,77.12-.02-9.42-2.68-18.81-7.57-26.85-.12-.48-.3-.94-.53-1.38-1.72-3.31-6.16-5.11-9.91-4.15-4.45,1.14-7.69,5.2-9.12,9.57-1.43,4.37-1.35,9.07-1.26,13.67.36,17.98.93,36.6,8.82,52.77,2.21,4.54,5.13,8.96,9.46,11.55s10.34,2.9,13.36-.29c1.19,8.92,3.48,17.67,6.72,26.06,6.1,15.8,15.62,30.3,27.86,42.02,3.97,3.8,8.23,7.29,12.71,10.47,14.87,10.57,32.24,17.63,50.28,20.31,4.12.61,8.31.55,12.4-.23,7.25-1.38,19.59-4.18,27.45-8.51,7.86-4.32,15-9.79,21.86-15.6,3.35-2.84,6.64-5.76,9.91-8.67.63-.56,1.27-1.13,1.9-1.7,5.47-4.89,10.85-9.95,14.93-16.03,5.16-7.7,7.91-16.47,9.5-25.4,1.56-8.79,1.99-17.73,2.47-25.94,2.43-12.89,4.84-26.02,6.22-39.13.64-6.08,1.05-12.16,1.14-18.22.18-12.07-.94-24.05-4.18-35.74Z"/>
      <path class="st5" d="M381.42,465.62c-.88-3.71-1.78-7.41-3.32-10.9-2.74-6.19-8.41-11.87-15.18-11.63-3.31.12-6.33,1.6-9.17,3.39-.93.59-1.85,1.21-2.75,1.82-11.54,7.9-23.09,15.8-34.63,23.7h66.68c-.62-2.11-1.12-4.25-1.63-6.39Z"/>
      <path class="st5" d="M392,471.37c-4.09-9.84-10.2-18.98-17-27.25-11.01-13.4-23.94-25.12-34.92-38.54-6.33-7.74-12.05-16.25-16.07-25.37-.81-1.84-1.56-3.71-2.22-5.6-1.75-4.99-2.95-10.14-3.43-15.44-.03-.33-.05-.66-.07-.99-.1-1.77-.02-3.61.4-5.29.48-1.9,1.4-3.59,3.02-4.69.34-.23.71-.43,1.08-.6,2.37-1.07,3.95-3.37,4.37-5.94,1.19-7.28,2.37-14.56,3.56-21.84-4.1-.97-8.55-.78-12.63.34-6.8,1.87-12.76,5.99-18.18,10.5-13.02,10.84-23.68,24.19-34.24,37.44h0c9.73,35.29,19.46,70.59,29.19,105.88h21.53c11.54-7.9,23.09-15.8,34.63-23.7.9-.62,1.81-1.24,2.75-1.82,2.84-1.79,5.86-3.27,9.17-3.39,6.77-.24,12.44,5.44,15.18,11.63,1.54,3.48,2.44,7.18,3.32,10.9.51,2.14,1.01,4.28,1.63,6.39h9.96c-.32-.87-.66-1.73-1.01-2.59Z"/>
      <path class="st5" d="M510.29,375.99c-.6-1.81-1.2-3.61-1.85-5.41-1.82-5.09-3.89-10.2-7.36-14.35-1.51-1.8-3.32-3.4-5.34-4.61-.26,4.76-.68,9.5-1.25,14.23-3.67,30.01-13.65,59.26-29.26,85.16-3.6,5.97-7.68,11.96-13.61,15.63-7.38,4.58-16.53,4.95-25.22,5.18-.44.01-.87.02-1.31.03-.06.05-.12.1-.18.16h27.11c11.01-6.63,20.4-15.94,26.75-27.12,2.33-4.1,5.77-9.18,10.35-8.04,2.75.68,4.39,3.43,5.73,5.92,5.22,9.75,10.45,19.49,15.67,29.24h9.24c3.92-32.19.65-65.22-9.49-96.02Z"/>
      <path class="st6" d="M499,338.93c-.63.57-1.27,1.13-1.9,1.7-3.27,2.91-6.56,5.83-9.91,8.67-6.86,5.81-13.99,11.28-21.86,15.6-7.87,4.33-20.21,7.13-27.46,8.51-4.02.76-8.13.85-12.18.26-18.12-2.66-35.57-9.73-50.49-20.35-4.48-3.18-8.74-6.67-12.71-10.47-12.24-11.72-21.76-26.21-27.86-42.02-.98,6-1.95,12-2.93,17.99-1.19,7.28-2.37,14.56-3.56,21.84-.42,2.57-2,4.86-4.37,5.94-.37.17-.74.37-1.08.6-1.62,1.1-2.54,2.79-3.02,4.69-.42,1.68-.5,3.53-.4,5.29.02.33.04.67.07.99.48,5.3,1.68,10.45,3.43,15.44.66,1.89,1.41,3.76,2.22,5.6,4.02,9.12,9.74,17.63,16.07,25.37,10.98,13.42,23.91,25.15,34.92,38.54,6.8,8.27,12.91,17.41,17,27.25.36.86.69,1.72,1.01,2.59h33.85c.06-.05.12-.1.18-.16.44-.01.87-.02,1.31-.03,8.69-.23,17.84-.6,25.22-5.18,5.93-3.68,10-9.66,13.61-15.63,15.61-25.9,25.6-55.14,29.26-85.16.58-4.73.99-9.48,1.25-14.23.25-4.55.35-9.11.31-13.67Z"/>
      <path class="st2" d="M323.66,218.91c1.51-26.65,8.22-53,19.66-77.12-3.62-14.89-4.73-30.79-.14-45.41,4.59-14.62,15.57-27.76,30.23-32.23,10.21-4.28,21.78-.6,32.59,1.98,5.88,1.4,11.85,2.47,17.86,3.11,11.4,1.21,23,.87,34.2-1.57,5.12-1.11,10.27-2.67,15.5-2.28,4.22.31,8.25,1.89,12.06,3.75,22.01,10.8,38.29,32.56,42.44,56.72,1.89,10.12-4.37,20.8-4.33,31.69.03,6.83,2.53,13.38,4.35,19.96,3.24,11.69,4.35,23.67,4.18,35.74,2.27-1.06,4.73-1.68,7.21-1.79,5.68-25.84,7.63-52.46,5.61-78.5-.68-16.61-4.31-33.09-10.67-48.45-1.14-2.76-2.38-5.51-3.01-8.43-.56-2.58-.63-5.24-1.07-7.85-.99-5.9-3.93-11.45-8.25-15.59-1.78-1.71-3.88-3.32-4.58-5.68-.81-2.72.49-5.64.14-8.46-.43-3.47-3.33-6.23-6.58-7.54-3.25-1.31-6.82-1.45-10.32-1.66-8.62-.51-17.31-1.54-25.43-4.49-3.07-1.11-6.86-2.38-9.28-.18-4.75-5.45-13.5-6.87-22.29-2.16-8.45-4.89-19.63-4.64-27.85.63-.33-3.61-4.98-4.96-8.6-4.68-7.16.55-13.78,3.83-20.2,7.04-15.03,7.53-31.43,16.6-36.92,33.39-2.69,2.34-5.37,4.69-8.06,7.03-.96.84-1.97,1.75-2.34,2.98-.22.74-.18,1.53-.36,2.28-.31,1.25-1.19,2.26-2.05,3.22-7.3,8.18-14.68,17.23-16.08,28.1-.48,3.71-.23,7.48-.54,11.2-.62,7.31-3.4,14.26-4.87,21.45-1.59,7.77-1.62,15.86-.09,23.65.75,3.81,1.86,7.57,2.23,11.44.66,6.88-1.05,13.66-2.44,20.49.23.44.41.89.53,1.38,4.89,8.04,7.55,17.44,7.57,26.85Z"/>
    </g>
    <path class="st1" d="M456.17,243.2c-4.39-17.81-6.03-36.29-4.86-54.59"/>
    <path class="st1" d="M462.83,242.19c2.39,1.53,3.89,4.35,3.82,7.19-.07,2.84-1.72,5.58-4.18,6.98-4.39,2.49-9.97.58-14.9,1.66-2.41.53-4.61,1.77-6.96,2.5s-5.13.89-7.11-.58c-3.02-2.24-5-5.76-8.32-7.52-1.6-.85-9.46-2.03-12.46-2.43-2.94-.39-6.13-1.24-7.82-3.69-2.13-3.07-.9-7.53,1.74-10.17s6.32-3.9,9.87-5.06"/>
    <path class="st7" d="M460.84,287.88c-30.56,4.08-41.95-.61-61.94-6.65-5.35-1.62-12.81-2.99-18.07-1.1,3.44,5.87,10.79,9.69,16.98,12.5,6.2,2.81,12.94,4.2,19.67,5.21,10.6,1.59,21.4,2.27,32.05,1,10.65-1.26,21.16-4.53,30.14-10.39-1.17-.31-13.46-1.29-18.83-.57Z"/>
    <path class="st1" d="M491.93,290.67c1.24-2.97,2.49-6.02,2.63-9.23.14-3.21-1.07-6.68-3.8-8.38"/>
    <path class="st1" d="M362.51,269.73c.05,5.66.43,11.31,1.16,16.92l.58-.69"/>
    <path class="st1" d="M326.67,271.65c-1.86-11.25-2.3-22.74-1.31-34.1"/>
    <path class="st1" d="M320.32,215.5c-1.56-6.75-4.5-13.18-8.61-18.76-1.29-1.76-2.9-3.56-5.06-3.88-2.04-.3-4.09.86-5.35,2.5s-1.85,3.68-2.29,5.69c-2.55,11.82-.39,24.08,1.76,35.98"/>
    <path class="st1" d="M306.66,192.86c4.25,9.23,1.08,20-1.97,29.69s-5.82,20.69-.94,29.61"/>
    <path class="st1" d="M321.27,221.96c-2.19,3.32-4.4,6.7-5.62,10.49s-1.34,8.11.57,11.6c.76,1.38,1.82,2.62,2.29,4.13s.08,3.47-1.36,4.1-3.36-1.35-2.29-2.51"/>
    <path class="st1" d="M534.16,229.51c.8-2.57,1.65-5.24,3.48-7.2,1.84-1.97,4.96-3.01,7.29-1.65,2.86,1.68,2.99,5.7,2.76,9.01-.57,8.24-1.15,16.53-3.16,24.54-2.01,8.01-5.54,15.81-11.31,21.72"/>
    <path class="st1" d="M530.26,238.95c1.51,2.05,3.04,4.13,4.03,6.48,1,2.35,1.44,5.02.7,7.46-.97,3.23-3.86,5.73-4.31,9.07-.24,1.79.26,3.64-.07,5.42s-2.11,3.55-3.77,2.83"/>
    <g>
      <path class="st1" d="M323.69,218.52c1.51-26.65,8.22-53,19.66-77.12-3.62-14.89-4.73-30.79-.14-45.41,4.59-14.62,15.57-27.76,30.23-32.23,10.21-4.28,21.78-.6,32.59,1.98,5.88,1.4,11.85,2.47,17.86,3.11,11.4,1.21,23,.87,34.2-1.57,5.12-1.11,10.27-2.67,15.5-2.28,4.22.31,8.25,1.89,12.06,3.75,22.01,10.8,38.29,32.56,42.44,56.72,1.89,10.12-4.37,20.8-4.33,31.69.03,6.83,2.53,13.38,4.35,19.96,3.24,11.69,4.35,23.67,4.18,35.74,2.27-1.06,4.73-1.68,7.21-1.79,5.68-25.84,7.63-52.46,5.61-78.5-.68-16.61-4.31-33.09-10.67-48.45-1.14-2.76-2.38-5.51-3.01-8.43-.56-2.58-.63-5.24-1.07-7.85-.99-5.9-3.93-11.45-8.25-15.59-1.78-1.71-3.88-3.32-4.58-5.68-.81-2.72.49-5.64.14-8.46-.43-3.47-3.33-6.23-6.58-7.54-3.25-1.31-6.82-1.45-10.32-1.66-8.62-.51-17.31-1.54-25.43-4.49-3.07-1.11-6.86-2.38-9.28-.18-4.75-5.45-13.5-6.87-22.29-2.16-8.45-4.89-19.63-4.64-27.85.63-.33-3.61-4.98-4.96-8.6-4.68-7.16.55-13.78,3.83-20.2,7.04-15.03,7.53-31.43,16.6-36.92,33.39-2.69,2.34-5.37,4.69-8.06,7.03-.96.84-1.97,1.75-2.34,2.98-.22.74-.18,1.53-.36,2.28-.31,1.25-1.19,2.26-2.05,3.22-7.3,8.18-14.68,17.23-16.08,28.1-.48,3.71-.23,7.48-.54,11.2-.62,7.31-3.4,14.26-4.87,21.45-1.59,7.77-1.62,15.86-.09,23.65.75,3.81,1.86,7.57,2.23,11.44.66,6.88-1.05,13.66-2.44,20.49.23.44.41.89.53,1.38,4.89,8.04,7.55,17.44,7.57,26.85Z"/>
      <path class="st1" d="M549.38,214.04c-1.46-1.29-3.3-2.07-5.19-2.54-1.55-.38-3.13-.51-4.7-.44-2.48.11-4.94.73-7.21,1.79-.09,6.06-.5,12.14-1.14,18.22-1.38,13.11-3.79,26.24-6.22,39.13-.48,8.21-.91,17.15-2.47,25.94.42-.17.83-.35,1.22-.54,7.32-3.62,13.24-9.71,17.5-16.68s6.94-14.8,8.83-22.74c2.23-9.38,3.4-19.01,3.48-28.65.04-4.85-.45-10.28-4.09-13.48Z"/>
      <path class="st1" d="M521.75,471.62h170.52s-46.78-44.17-69.95-49.35c-11.77-2.63-24.12-2.49-35.64-6.08-16.35-5.09-14.17-11.57-27.73-22.04-5.6-4.33-26.2-7.54-35.59-11.96-4.78-2.25-8.21-4.57-11.11-6.59,10.14,30.8,13.41,63.83,9.49,96.02Z"/>
      <path class="st1" d="M491.11,436.45c-4.58-1.14-8.02,3.94-10.35,8.04-6.35,11.18-15.74,20.49-26.75,27.12h58.5c-5.22-9.75-10.45-19.49-15.67-29.24-1.34-2.5-2.98-5.24-5.73-5.92Z"/>
      <path class="st1" d="M223.32,382.19c-8.07,2.24-3.69,4.52-11.76,6.77-8.25,2.29-13.06-2.82-20.68,1.07-24.26,12.36-104.74,81.6-104.74,81.6h208.74c-9.67-35.08-19.35-70.17-29.02-105.25-12.64,4.7-38.31,14.65-42.54,15.82Z"/>
      <path class="st1" d="M528.11,177.11c-1.82-6.59-4.33-13.13-4.35-19.96-.04-10.89,6.22-21.57,4.33-31.69-4.15-24.16-20.43-45.92-42.44-56.72-3.8-1.87-7.83-3.44-12.06-3.75-5.23-.39-10.38,1.17-15.5,2.28-11.2,2.43-22.8,2.78-34.2,1.57-6.01-.64-11.98-1.7-17.86-3.11-10.81-2.58-22.38-6.26-32.59-1.98-14.66,4.47-25.64,17.61-30.23,32.23-4.59,14.62-3.49,30.52.14,45.41-11.43,24.12-18.15,50.47-19.66,77.12-.02-9.42-2.68-18.81-7.57-26.85-.12-.48-.3-.94-.53-1.38-1.72-3.31-6.16-5.11-9.91-4.15-4.45,1.14-7.69,5.2-9.12,9.57-1.43,4.37-1.35,9.07-1.26,13.67.36,17.98.93,36.6,8.82,52.77,2.21,4.54,5.13,8.96,9.46,11.55,4.33,2.59,10.34,2.9,13.36-.29,1.19,8.92,3.48,17.67,6.72,26.06,6.1,15.8,15.62,30.3,27.86,42.02,3.97,3.8,8.23,7.29,12.71,10.47,14.87,10.57,32.24,17.63,50.28,20.31,4.12.61,8.31.55,12.4-.23,7.25-1.38,19.59-4.18,27.45-8.51,7.86-4.32,15-9.79,21.86-15.6,3.35-2.84,6.64-5.76,9.91-8.67.63-.56,1.27-1.13,1.9-1.7,5.47-4.89,10.85-9.95,14.93-16.03,5.16-7.7,7.91-16.47,9.5-25.4,1.56-8.79,1.99-17.73,2.47-25.94,2.43-12.89,4.84-26.02,6.22-39.13.64-6.08,1.05-12.16,1.14-18.22.18-12.07-.94-24.05-4.18-35.74Z"/>
      <path class="st1" d="M381.46,465.23c-.88-3.71-1.78-7.41-3.32-10.9-2.74-6.19-8.41-11.87-15.18-11.63-3.31.12-6.33,1.6-9.17,3.39-.93.59-1.85,1.21-2.75,1.82-11.54,7.9-23.09,15.8-34.63,23.7h66.68c-.62-2.11-1.12-4.25-1.63-6.39Z"/>
      <path class="st1" d="M392.03,469.03c-4.09-9.84-10.2-18.98-17-27.25-11.01-13.4-23.94-25.12-34.92-38.54-6.33-7.74-12.05-16.25-16.07-25.37-.81-1.84-1.56-3.71-2.22-5.6-1.75-4.99-2.95-10.14-3.43-15.44-.03-.33-.05-.66-.07-.99-.1-1.77-.02-3.61.4-5.29.48-1.9,1.4-3.59,3.02-4.69.34-.23.71-.43,1.08-.6,2.37-1.07,3.95-3.37,4.37-5.94,1.19-7.28,2.37-14.56,3.56-21.84-4.1-.97-8.55-.78-12.63.34-6.8,1.87-12.76,5.99-18.18,10.5-13.02,10.84-23.68,24.19-34.24,37.44h0c9.73,35.29,19.46,70.59,29.19,105.88h21.53c11.54-7.9,23.09-15.8,34.63-23.7.9-.62,1.81-1.24,2.75-1.82,2.84-1.79,5.86-3.27,9.17-3.39,6.77-.24,12.44,5.44,15.18,11.63,1.54,3.48,2.44,7.18,3.32,10.9.51,2.14,1.01,4.28,1.63,6.39h9.96c-.32-.87-.66-1.73-1.01-2.59Z"/>
      <path class="st1" d="M512.26,375.6c-.6-1.81-1.2-3.61-1.85-5.41-1.82-5.09-3.89-10.2-7.36-14.35-1.51-1.8-3.32-3.4-5.34-4.61-.26,4.76-.68,9.5-1.25,14.23-3.67,30.01-13.65,59.26-29.26,85.16-3.6,5.97-7.68,11.96-13.61,15.63-7.38,4.58-16.53,4.95-25.22,5.18-.44.01-.87.02-1.31.03-.06.05-.12.1-.18.16h27.11c11.01-6.63,20.4-15.94,26.75-27.12,2.33-4.1,5.77-9.18,10.35-8.04,2.75.68,4.39,3.43,5.73,5.92,5.22,9.75,10.45,19.49,15.67,29.24h9.24c3.92-32.19.65-65.22-9.49-96.02Z"/>
      <path class="st1" d="M498.03,337.57c-.63.57-1.27,1.13-1.9,1.7-3.27,2.91-6.56,5.83-9.91,8.67-6.86,5.81-13.99,11.28-21.86,15.6-7.87,4.33-20.21,7.13-27.46,8.51-4.02.76-8.13.85-12.18.26-18.12-2.66-35.57-9.73-50.49-20.35-4.48-3.18-8.74-6.67-12.71-10.47-12.24-11.72-21.76-26.21-27.86-42.02-.98,6-1.95,12-2.93,17.99-1.19,7.28-2.37,14.56-3.56,21.84-.42,2.57-2,4.86-4.37,5.94-.37.17-.74.37-1.08.6-1.62,1.1-2.54,2.79-3.02,4.69-.42,1.68-.5,3.53-.4,5.29.02.33.04.67.07.99.48,5.3,1.68,10.45,3.43,15.44.66,1.89,1.41,3.76,2.22,5.6,4.02,9.12,9.74,17.63,16.07,25.37,10.98,13.42,23.91,25.15,34.92,38.54,6.8,8.27,12.91,17.41,17,27.25.36.86.69,1.72,1.01,2.59h33.85c.06-.05.12-.1.18-.16.44-.01.87-.02,1.31-.03,8.69-.23,17.84-.6,25.22-5.18,5.93-3.68,10-9.66,13.61-15.63,15.61-25.9,25.6-55.14,29.26-85.16.58-4.73.99-9.48,1.25-14.23.25-4.55.35-9.11.31-13.67Z"/>
    </g>
    <circle class="st3" cx="388.2" cy="185.37" r="7.49"/>
    <circle class="st3" cx="479.67" cy="196.11" r="7.49"/>
    <path class="st1" d="M460.84,287.88c-30.56,4.08-41.95-.61-61.94-6.65-5.35-1.62-12.81-2.99-18.07-1.1,3.44,5.87,10.79,9.69,16.98,12.5,6.2,2.81,12.94,4.2,19.67,5.21,10.6,1.59,21.4,2.27,32.05,1,10.65-1.26,21.16-4.53,30.14-10.39-1.17-.31-13.46-1.29-18.83-.57Z"/>
  </g>
</svg>