<?xml version="1.0" encoding="UTF-8"?>
<svg id="Layer_1" xmlns="http://www.w3.org/2000/svg" xmlns:xlink="http://www.w3.org/1999/xlink" version="1.1" viewBox="0 0 841.89 467.72">
  <!-- Generator: Adobe Illustrator 29.0.0, SVG Export Plug-In . SVG Version: 2.1.0 Build 186)  -->
  <defs>
    <style>
      .st0, .st1, .st2 {
        fill: none;
      }

      .st3 {
        fill: #fed4ba;
      }

      .st4 {
        fill: #ea9923;
      }

      .st5 {
        fill: #55565a;
      }

      .st6 {
        fill: #fff;
      }

      .st7 {
        fill: #1c1d1f;
      }

      .st8 {
        fill: #e5c491;
      }

      .st1 {
        stroke-linejoin: round;
      }

      .st1, .st2 {
        stroke: #55565a;
      }

      .st9 {
        fill: #5f9c70;
      }

      .st10 {
        clip-path: url(#clippath);
      }

      .st2 {
        stroke-miterlimit: 10;
      }
    </style>
    <clipPath id="clippath">
      <rect class="st0" width="841.89" height="466.37"/>
    </clipPath>
  </defs>
  <g class="st10">
    <rect class="st9" width="841.89" height="466.37"/>
    <g>
      <path class="st6" d="M508.42,299.11c.19-.39-.13-.76-.48-.77.04.49.09.99.13,1.48.11-.24.22-.47.34-.71Z"/>
      <path class="st6" d="M285.44,283.15c1.08-.69,2.14-1.41,3.16-2.19-1.05.73-2.11,1.46-3.16,2.19Z"/>
      <path class="st6" d="M504.74,260.52c.45-.68.89-1.39,1.34-2.1,0-.1,0-.21-.01-.31-.43.8-.86,1.6-1.32,2.39,0,0,0,.01,0,.02Z"/>
      <path class="st6" d="M452.86,298.56c19.07-4.04,38.1-17.12,51.8-37.93.03-.04.05-.08.08-.12,0,0,0-.01,0-.02.46-.79.88-1.59,1.32-2.39,10.51-19.28,14.57-40.82,14.44-62.09-.13-22.2-4.64-44.17-10.87-65.48-2.62-8.95-5.59-17.91-10.46-25.86-4.77-7.79-11.55-14.63-20.02-18.03-.27-.11-.41-.4-.3-.67.98-2.39-.97-5.42-3.43-5.97-.46-.1-.56-.71-.16-.96h0c.47-.29.23-1.01-.32-.98-1.41.09-2.86.22-4.43.49-.48.08-.8-.46-.51-.85,1.13-1.51,2.11-3.12,2.94-4.8.08-.16.16-.32.23-.48-.42-.71-.93-1.35-1.51-1.91,0,0-.02-.02-.02-.02-2.91-2.8-7.62-3.76-11.68-2.81-5.13,1.21-9.36,4.75-13.12,8.44-10.53,10.32-18.89,22.45-26.74,34.98-5.85,9.34-11.43,18.91-17.41,28.13-11.29,17.4-25.08,34.37-43.25,44.39-2.76,1.52-5.62,2.88-8.59,4.06,2.34,11.97,4.45,23.99,7.48,35.8,4.2,16.37,10.36,32.55,20.7,45.88.45.59.9,1.17,1.37,1.75,2.53,3.09,5.31,5.97,8.27,8.63,17.74,15.94,42.36,23.71,64.17,18.8Z"/>
      <path class="st6" d="M674.51,427.73c.71-10.33-.65-21.31-6.75-29.67-6.95-9.53-23.88-14.08-34.9-18.29-36.35-13.91-71.81-27.12-103.02-46.75-6.9,1.71-11.72,1.15-15.24-.44,10.29,28.53,19.41,57.64,23.22,87.7,5.83,46.01-.94,92.48-8.8,138.3,76.39.06,134.7.05,134.18-.09,9.36-14.18,10.8-32.15,9.82-49.12-.98-16.97-4.07-33.92-2.64-50.85.87-10.32,3.42-20.45,4.12-30.78Z"/>
      <path class="st6" d="M333.95,345.43c-5.65-3.8-10.4-8.79-15.09-13.73l5.68,23.06c-8.42-.54-16.07-7.21-18.77-15.25,1.1,4.85.22,10.12-2.39,14.36-1.14-8.84-2.24-15.63-2.77-22.31-13.58,4.39-28.29,5.77-42.52,7.96-19.47,2.99-40.06,8.55-52.71,23.64-11.04,13.16-14,31.26-14.39,48.42s1.36,34.55-2.01,51.38c-3.57,17.83-12.84,35.1-10.53,53.14.83,6.48,3.14,12.68,4.25,19.12,1.11,6.44.84,13.55-3.41,17.96-.81,1.65-1.61,3.3-2.42,4.96,0,0,48.1.07,114.04.16,15.08-69.6,32.93-138.64,53.6-207.9-3.74-1.04-7.32-2.81-10.56-4.99Z"/>
      <path class="st6" d="M537.82,420.28c-3.81-30.06-12.93-59.17-23.22-87.7-.09-.04-.18-.08-.26-.12.57,1.95,1.04,3.95.95,5.94.02,0,.05,0,.07,0-.04.11-.07.23-.11.34-.02.24-.03.47-.07.71-.21,1.41-.73,2.73-1.37,4-21.28,69.75-42.56,139.49-63.83,209.24-.59,1.93-1.22,3.92-2,5.81,28.02.03,55.53.06,81.03.07,7.86-45.82,14.63-92.29,8.8-138.3Z"/>
      <path class="st6" d="M515.19,339.45c.04-.24.05-.47.07-.71-.48,1.57-.96,3.14-1.44,4.71.64-1.28,1.16-2.6,1.37-4Z"/>
      <path class="st6" d="M513.82,343.45c-.44.87-.93,1.72-1.42,2.56-3.79,6.51-7.66,13.11-13.14,18.27-7.33,6.89-17.13,10.72-27.06,12.34-9.93,1.62-20.07,1.19-30.11.5-22.64-1.56-45.73-4.57-65.93-14.9-5.76-2.95-11.67-7.23-14.31-12.84-2.83,1.04-5.73,1.8-8.74,2-2.91.19-5.81-.19-8.62-.97-20.67,69.26-38.52,138.3-53.6,207.9,46.95.06,102.95.14,157.08.19.78-1.89,1.41-3.88,2-5.81,21.28-69.75,42.56-139.49,63.83-209.24Z"/>
      <path class="st6" d="M515.36,338.4s-.05,0-.07,0c0,.12-.02.23-.03.35.04-.11.07-.23.11-.34Z"/>
      <path class="st6" d="M501.43,320.91c-.52.26-1.01-.4-.63-.83,3.1-3.49,3.51-6.05,1.99-6.39-.42-.1-.98-.03-1.69.24-.51.2-.93-.45-.57-.86,3.89-4.44,4.9-7.73,7.54-13.25-.05-.49-.09-.99-.13-1.48-.13,0-.26.04-.37.15-2.22,2.19-3.72,3.11-5.86,4.29-.55.31-1.08-.43-.61-.85,2.38-2.17,4.56-4.54,6.54-7.08,2.47-3.16,4.63-6.58,6.39-10.19.27-.56-.49-1.05-.89-.57-1.72,2.09-3.69,3.98-5.85,5.63-1.51,1.15-3.1,2.2-4.78,3.09-.52.28-1.03-.36-.66-.82.63-.78,1.14-1.65,1.54-2.55,1-2.24,1.09-7.02,1.33-9.46.72-7.15.49-12.05-.06-19.21,0-.1.02-.19.06-.28-.03.04-.05.08-.08.12-13.7,20.8-32.73,33.89-51.8,37.93-21.81,4.92-46.43-2.86-64.17-18.8.29,4.31.38,8.63.28,12.94-.3,12.48-2.22,24.92-5.72,36.9-.1.34-.19.69-.3,1.03-.33,1.09-.68,2.19-1.08,3.28-.95,2.58-2.17,5.05-4.08,7-1.44,1.47-3.18,2.57-5.01,3.54-.94.5-1.9.96-2.86,1.42-2.64,1.25-5.31,2.52-8.06,3.52,2.64,5.61,8.55,9.9,14.31,12.84,20.2,10.33,43.29,13.34,65.93,14.9,10.04.69,20.18,1.13,30.11-.5,9.93-1.62,19.72-5.45,27.06-12.34,5.49-5.16,9.35-11.76,13.14-18.27.49-.84.98-1.69,1.42-2.56.48-1.57.96-3.14,1.44-4.71,0-.12.03-.23.03-.35.09-1.99-.38-3.99-.95-5.94-8.23-3.91-9.1-13.44-12.91-11.55Z"/>
      <path class="st6" d="M305.77,339.51c2.7,8.04,10.35,14.71,18.77,15.25l-5.68-23.06c4.69,4.94,9.44,9.92,15.09,13.73,3.23,2.17,6.81,3.95,10.56,4.99,2.81.78,5.7,1.15,8.62.97,3.01-.19,5.91-.96,8.74-2,2.74-1.01,5.42-2.27,8.06-3.52.96-.46,1.92-.92,2.86-1.42,1.83-.97,3.57-2.07,5.01-3.54,1.9-1.95,3.13-4.42,4.08-7,.4-1.08.75-2.18,1.08-3.28.1-.34.2-.69.3-1.03,3.5-11.98,5.43-24.42,5.72-36.9.1-4.32.01-8.64-.28-12.94-2.96-2.66-5.74-5.54-8.27-8.63-.47-.57-.92-1.16-1.37-1.75-10.33-13.33-16.5-29.51-20.7-45.88-3.03-11.81-5.13-23.83-7.48-35.8,2.97-1.18,5.83-2.54,8.59-4.06,18.16-10.02,31.96-27,43.25-44.39,5.98-9.22,11.56-18.79,17.41-28.13,7.85-12.53,16.21-24.66,26.74-34.98,3.76-3.69,7.99-7.23,13.12-8.44,4.05-.95,8.77,0,11.68,2.81h0s0,.01.01.02c.58.56,1.59,1.75,1.51,1.91-.84,1.69-2.05,3.78-3.18,5.29-.29.39.03.93.51.85,1.57-.27,3.02-.41,4.43-.49.55-.03.78.69.32.98h0c-.4.25-.3.86.16.96,2.46.55,4.42,3.58,3.43,5.97-.11.27.03.56.3.67,8.47,3.4,15.25,10.24,20.02,18.03,4.87,7.95,7.84,16.91,10.46,25.86,6.23,21.3,10.74,43.28,10.87,65.48.12,21.26-3.93,42.8-14.44,62.09,0,.1,0,.21.01.31-.44.71-.89,1.41-1.34,2.1-.05.09-.07.18-.06.28.56,7.16.78,12.06.06,19.21-.25,2.44-.33,7.22-1.33,9.46-.4.9-.91,1.77-1.54,2.55-.37.46.14,1.1.66.82,1.67-.9,3.27-1.94,4.78-3.09,2.15-1.65,4.13-3.54,5.85-5.63.4-.48,1.16,0,.89.57-1.76,3.61-3.91,7.02-6.39,10.19-1.98,2.54-4.16,4.91-6.54,7.08-.47.42.06,1.16.61.85,2.13-1.18,3.64-2.1,5.86-4.29.11-.11.24-.16.37-.15.35,0,.67.37.48.77-.12.24-.23.48-.34.71-2.65,5.52-3.65,8.81-7.54,13.25-.36.41.06,1.05.57.86.7-.27,1.26-.34,1.69-.24,1.52.34,1.11,2.9-1.99,6.39-.38.43.11,1.09.63.83,3.81-1.89,4.68,7.64,12.91,11.55.09.04.18.08.26.12,3.51,1.59,8.34,2.15,15.24.44,2.81-.7,5.96-1.77,9.51-3.31.2-.09.43-.1.6.03l11.02,8.73c.41.32.99-.07.84-.57l-3.62-12.38c-.16-.56.56-.93.93-.47,4.29,5.39,9.92,9.72,16.24,12.46.41.18.84-.21.72-.64l-4.52-15.99c-.2-.72-.35-1.63.22-2.1.68-.55,1.67,0,2.36.54,2.47,1.95,4.94,3.9,7.41,5.84.87.69,1.95,1.42,3.01,1.07,1.15-.38,1.54-1.79,1.7-3,.51-3.97.4-8.02-.35-11.96-.46-2.44-1.16-4.99-.43-7.37.68-2.23,2.49-3.91,4.11-5.59,4.83-5.01,8.56-11.07,10.13-17.09.08-.3.38-.46.67-.37l16.35,5.46c.54.18.95-.5.53-.89l-18.83-17.71c-.14-.13-.2-.33-.14-.52,1.12-4.05,1.25-8.38.39-12.49-1.09-5.2-3.71-9.93-5.86-14.79-8.31-18.83-9.54-39.9-11.58-59.72,0-.02,0-.04,0-.06.3-14.77-4.78-29.59-14.08-41.07-4.1-5.06-8.97-9.47-12.78-14.74-6.13-8.46-9.23-18.65-13.33-28.26-5.51-12.9-12.95-24.97-22-35.69-10.43-12.34-24.23-23.38-40.27-24.57-22.05-17.97-45.4-8.88-54.53-5.15-21.3,8.72-45.86,21.99-61.37,38.98-15.52,17-22.32,37.85-36.71,55.81-6.16,7.69-12.58,15.3-16.95,24.13-4.37,8.83-6.53,19.19-3.67,28.62-7.42,5.13-15.39,11.41-17.69,20.45-4.16,16.4,12.32,32.19,10.01,48.95-1.51,10.95-7.85,21.22-17.48,26.64-9.63,5.43-17.99,9.63-31.73,14.2,15.29,5.56,33.11,3.43,46.78-5.34,1.05-.73,2.11-1.46,3.16-2.19-1.02.77-2.09,1.5-3.16,2.19-10.18,7.04-20.36,14.08-30.55,21.12,8.02-.51,16.09-1.03,23.85-3.13,5.52-1.49,10.91-3.85,15.44-7.28.95-.72,2.2.38,1.62,1.42l-20.68,37.26c13.19-7.87,21.61-10.73,26.43-25.32-1.45,9.73-1.54,16.97-.95,24.34.54,6.68,1.63,13.47,2.77,22.31,2.61-4.23,3.49-9.5,2.39-14.36Z"/>
    </g>
    <g>
      <path class="st0" d="M505.7,301.18c.19-.39-.13-.76-.48-.77.04.49.09.99.13,1.48.11-.24.22-.47.34-.71Z"/>
      <path class="st2" d="M282.72,285.21c1.08-.69,2.14-1.41,3.16-2.19-1.05.73-2.11,1.46-3.16,2.19Z"/>
      <path class="st2" d="M502.02,262.58c.45-.68.89-1.39,1.34-2.1,0-.1,0-.21-.01-.31-.43.8-.86,1.6-1.32,2.39,0,0,0,.01,0,.02Z"/>
      <path class="st3" d="M454.19,300.18c19.07-4.04,38.1-17.12,51.8-37.93.03-.04.05-.08.08-.12,0,0,0-.01,0-.02.46-.79.88-1.59,1.32-2.39,10.51-19.28,14.57-40.82,14.44-62.09-.13-22.2-4.64-44.17-10.87-65.48-2.62-8.95-5.59-17.91-10.46-25.86-4.77-7.79-11.55-14.63-20.02-18.03-.27-.11-.41-.4-.3-.67.98-2.39-.97-5.42-3.43-5.97-.46-.1-.56-.71-.16-.96h0c.47-.29.23-1.01-.32-.98-1.41.09-2.86.22-4.43.49-.48.08-.8-.46-.51-.85,1.13-1.51,2.11-3.12,2.94-4.8.08-.16.16-.32.23-.48-.42-.71-.93-1.35-1.51-1.91,0,0-.02-.02-.02-.02-2.91-2.8-7.62-3.76-11.68-2.81-5.13,1.21-9.36,4.75-13.12,8.44-10.53,10.32-18.89,22.45-26.74,34.98-5.85,9.34-11.43,18.91-17.41,28.13-11.29,17.4-25.08,34.37-43.25,44.39-2.76,1.52-5.62,2.88-8.59,4.06,2.34,11.97,4.45,23.99,7.48,35.8,4.2,16.37,10.36,32.55,20.7,45.88.45.59.9,1.17,1.37,1.75,2.53,3.09,5.31,5.97,8.27,8.63,17.74,15.94,42.36,23.71,64.17,18.8Z"/>
      <path class="st7" d="M671.79,429.8c.71-10.33-.65-21.31-6.75-29.67-6.95-9.53-23.88-14.08-34.9-18.29-36.35-13.91-71.81-27.12-103.02-46.75-6.9,1.71-11.72,1.15-15.24-.44,10.29,28.53,19.41,57.64,23.22,87.7,5.83,46.01-.94,92.48-8.8,138.3,76.39.06,134.7.05,134.18-.09,9.36-14.18,10.8-32.15,9.82-49.12-.98-16.97-4.07-33.92-2.64-50.85.87-10.32,3.42-20.45,4.12-30.78Z"/>
      <path class="st7" d="M331.23,347.49c-5.65-3.8-10.4-8.79-15.09-13.73l5.68,23.06c-8.42-.54-16.07-7.21-18.77-15.25,1.1,4.85.22,10.12-2.39,14.36-1.14-8.84-2.24-15.63-2.77-22.31-13.58,4.39-28.29,5.77-42.52,7.96-19.47,2.99-40.06,8.55-52.71,23.64-11.04,13.16-14,31.26-14.39,48.42s1.36,34.55-2.01,51.38c-3.57,17.83-12.84,35.1-10.53,53.14.83,6.48,3.14,12.68,4.25,19.12,1.11,6.44.84,13.55-3.41,17.96-.81,1.65-1.61,3.3-2.42,4.96,0,0,48.1.07,114.04.16,15.08-69.6,32.93-138.64,53.6-207.9-3.74-1.04-7.32-2.81-10.56-4.99Z"/>
      <path class="st7" d="M535.1,422.34c-3.81-30.06-12.93-59.17-23.22-87.7-.09-.04-.18-.08-.26-.12.57,1.95,1.04,3.95.95,5.94.02,0,.05,0,.07,0-.04.11-.07.23-.11.34-.02.24-.03.47-.07.71-.21,1.41-.73,2.73-1.37,4-21.28,69.75-42.56,139.49-63.83,209.24-.59,1.93-1.22,3.92-2,5.81,28.02.03,55.53.06,81.03.07,7.86-45.82,14.63-92.29,8.8-138.3Z"/>
      <path class="st2" d="M512.47,341.52c.04-.24.05-.47.07-.71-.48,1.57-.96,3.14-1.44,4.71.64-1.28,1.16-2.6,1.37-4Z"/>
      <path class="st6" d="M511.1,345.52c-.44.87-.93,1.72-1.42,2.56-3.79,6.51-7.66,13.11-13.14,18.27-7.33,6.89-17.13,10.72-27.06,12.34-9.93,1.62-20.07,1.19-30.11.5-22.64-1.56-45.73-4.57-65.93-14.9-5.76-2.95-11.67-7.23-14.31-12.84-2.83,1.04-5.73,1.8-8.74,2-2.91.19-5.81-.19-8.62-.97-20.67,69.26-38.52,138.3-53.6,207.9,46.95.06,102.95.14,157.08.19.78-1.89,1.41-3.88,2-5.81,21.28-69.75,42.56-139.49,63.83-209.24Z"/>
      <path class="st2" d="M512.64,340.46s-.05,0-.07,0c0,.12-.02.23-.03.35.04-.11.07-.23.11-.34Z"/>
      <path class="st3" d="M502.3,321.17c-.52.26-1.01-.4-.63-.83,3.1-3.49,3.51-6.05,1.99-6.39-.42-.1-.98-.03-1.69.24-.51.2-.93-.45-.57-.86,3.89-4.44,4.9-7.73,7.54-13.25-.05-.49-.09-.99-.13-1.48-.13,0-.26.04-.37.15-2.22,2.19-3.72,3.11-5.86,4.29-.55.31-1.08-.43-.61-.85,2.38-2.17,4.56-4.54,6.54-7.08,2.47-3.16,4.63-6.58,6.39-10.19.27-.56-.49-1.05-.89-.57-1.72,2.09-3.69,3.98-5.85,5.63-1.51,1.15-3.1,2.2-4.78,3.09-.52.28-1.03-.36-.66-.82.63-.78,1.14-1.65,1.54-2.55,1-2.24,1.09-7.02,1.33-9.46.72-7.15.49-12.05-.06-19.21,0-.1.02-.19.06-.28-.03.04-.05.08-.08.12-13.7,20.8-32.73,33.89-51.8,37.93-21.81,4.92-46.43-2.86-64.17-18.8.29,4.31.38,8.63.28,12.94-.3,12.48-2.22,24.92-5.72,36.9-.1.34-.19.69-.3,1.03-.33,1.09-.68,2.19-1.08,3.28-.95,2.58-2.17,5.05-4.08,7-1.44,1.47-3.18,2.57-5.01,3.54-.94.5-1.9.96-2.86,1.42-2.64,1.25-5.31,2.52-8.06,3.52,2.64,5.61,8.55,9.9,14.31,12.84,20.2,10.33,43.29,13.34,65.93,14.9,10.04.69,20.18,1.13,30.11-.5,9.93-1.62,19.72-5.45,27.06-12.34,5.49-5.16,9.35-11.76,13.14-18.27.49-.84.98-1.69,1.42-2.56.48-1.57.96-3.14,1.44-4.71,0-.12.03-.23.03-.35.09-1.99-.38-3.99-.95-5.94-8.23-3.91-9.1-13.44-12.91-11.55Z"/>
      <path class="st8" d="M303.05,341.58c2.7,8.04,10.35,14.71,18.77,15.25l-5.68-23.06c4.69,4.94,9.44,9.92,15.09,13.73,3.23,2.17,6.81,3.95,10.56,4.99,2.81.78,5.7,1.15,8.62.97,3.01-.19,5.91-.96,8.74-2,2.74-1.01,5.42-2.27,8.06-3.52.96-.46,1.92-.92,2.86-1.42,1.83-.97,3.57-2.07,5.01-3.54,1.9-1.95,3.13-4.42,4.08-7,.4-1.08.75-2.18,1.08-3.28.1-.34.2-.69.3-1.03,3.5-11.98,5.43-24.42,5.72-36.9.1-4.32.01-8.64-.28-12.94-2.96-2.66-5.74-5.54-8.27-8.63-.47-.57-.92-1.16-1.37-1.75-10.33-13.33-16.5-29.51-20.7-45.88-3.03-11.81-5.13-23.83-7.48-35.8,2.97-1.18,5.83-2.54,8.59-4.06,18.16-10.02,31.96-27,43.25-44.39,5.98-9.22,11.56-18.79,17.41-28.13,7.85-12.53,16.21-24.66,26.74-34.98,3.76-3.69,7.99-7.23,13.12-8.44,4.05-.95,8.77,0,11.68,2.81h0s0,.01.01.02c.58.56,1.59,1.75,1.51,1.91-.84,1.69-2.05,3.78-3.18,5.29-.29.39.03.93.51.85,1.57-.27,3.02-.41,4.43-.49.55-.03.78.69.32.98h0c-.4.25-.3.86.16.96,2.46.55,4.42,3.58,3.43,5.97-.11.27.03.56.3.67,8.47,3.4,15.25,10.24,20.02,18.03,4.87,7.95,7.84,16.91,10.46,25.86,6.23,21.3,10.74,43.28,10.87,65.48.12,21.26-3.93,42.8-14.44,62.09,0,.1,0,.21.01.31-.44.71-.89,1.41-1.34,2.1-.05.09-.07.18-.06.28.56,7.16.78,12.06.06,19.21-.25,2.44-.33,7.22-1.33,9.46-.4.9-.91,1.77-1.54,2.55-.37.46.14,1.1.66.82,1.67-.9,3.27-1.94,4.78-3.09,2.15-1.65,4.13-3.54,5.85-5.63.4-.48,1.16,0,.89.57-1.76,3.61-3.91,7.02-6.39,10.19-1.98,2.54-4.16,4.91-6.54,7.08-.47.42.06,1.16.61.85,2.13-1.18,3.64-2.1,5.86-4.29.11-.11.24-.16.37-.15.35,0,.67.37.48.77-.12.24-.23.48-.34.71-2.65,5.52-3.65,8.81-7.54,13.25-.36.41.06,1.05.57.86.7-.27,1.26-.34,1.69-.24,1.52.34,1.11,2.9-1.99,6.39-.38.43.11,1.09.63.83,3.81-1.89,4.68,7.64,12.91,11.55.09.04.18.08.26.12,3.51,1.59,8.34,2.15,15.24.44,2.81-.7,5.96-1.77,9.51-3.31.2-.09.43-.1.6.03l11.02,8.73c.41.32.99-.07.84-.57l-3.62-12.38c-.16-.56.56-.93.93-.47,4.29,5.39,9.92,9.72,16.24,12.46.41.18.84-.21.72-.64l-4.52-15.99c-.2-.72-.35-1.63.22-2.1.68-.55,1.67,0,2.36.54,2.47,1.95,4.94,3.9,7.41,5.84.87.69,1.95,1.42,3.01,1.07,1.15-.38,1.54-1.79,1.7-3,.51-3.97.4-8.02-.35-11.96-.46-2.44-1.16-4.99-.43-7.37.68-2.23,2.49-3.91,4.11-5.59,4.83-5.01,8.56-11.07,10.13-17.09.08-.3.38-.46.67-.37l16.35,5.46c.54.18.95-.5.53-.89l-18.83-17.71c-.14-.13-.2-.33-.14-.52,1.12-4.05,1.25-8.38.39-12.49-1.09-5.2-3.71-9.93-5.86-14.79-8.31-18.83-9.54-39.9-11.58-59.72,0-.02,0-.04,0-.06.3-14.77-4.78-29.59-14.08-41.07-4.1-5.06-8.97-9.47-12.78-14.74-6.13-8.46-9.23-18.65-13.33-28.26-5.51-12.9-12.95-24.97-22-35.69-10.43-12.34-24.23-23.38-40.27-24.57-22.05-17.97-45.4-8.88-54.53-5.15-21.3,8.72-45.86,21.99-61.37,38.98-15.52,17-22.32,37.85-36.71,55.81-6.16,7.69-12.58,15.3-16.95,24.13-4.37,8.83-6.53,19.19-3.67,28.62-7.42,5.13-15.39,11.41-17.69,20.45-4.16,16.4,12.32,32.19,10.01,48.95-1.51,10.95-7.85,21.22-17.48,26.64-9.63,5.43-17.99,9.63-31.73,14.2,15.29,5.56,33.11,3.43,46.78-5.34,1.05-.73,2.11-1.46,3.16-2.19-1.02.77-2.09,1.5-3.16,2.19-10.18,7.04-20.36,14.08-30.55,21.12,8.02-.51,16.09-1.03,23.85-3.13,5.52-1.49,10.91-3.85,15.44-7.28.95-.72,2.2.38,1.62,1.42l-20.68,37.26c13.19-7.87,21.61-10.73,26.43-25.32-1.45,9.73-1.54,16.97-.95,24.34.54,6.68,1.63,13.47,2.77,22.31,2.61-4.23,3.49-9.5,2.39-14.36Z"/>
    </g>
    <path class="st2" d="M425.77,227.14c-3.27-2.94-7.58-4.72-11.98-4.93"/>
    <path class="st2" d="M438.19,224.5c2.85-2.6,6.66-4.13,10.52-4.22"/>
    <path class="st2" d="M446.3,210.76c1.56-.53,3.36.26,4.32,1.6s1.16,3.1.88,4.73c-.23,1.34-.8,2.67-1.86,3.51s-2.67,1.07-3.77.28"/>
    <path class="st2" d="M437.5,229.11c-1.32,1.36-3.11,2.26-4.99,2.5s-3.84-.17-5.46-1.15"/>
    <path class="st2" d="M416.68,226.72c-1.36-.57-2.74-1.15-3.93-2.04s-2.17-2.13-2.44-3.58c-.4-2.17.81-4.28,2.09-6.08s2.74-3.64,2.91-5.84"/>
    <path class="st2" d="M450.82,222.21c1.35-1.22,2.72-2.46,3.76-3.95,1.04-1.5,1.74-3.3,1.59-5.12-.16-1.92-1.25-3.66-2.65-4.99-1.4-1.33-3.09-2.29-4.76-3.24"/>
    <path class="st2" d="M478.4,233.88l.79,3.5"/>
    <path class="st2" d="M421.15,216.36c2.17-13.71,1.59-27.85-1.68-41.35"/>
    <path class="st2" d="M587.72,552.33c3.05-42.54,7.31-85,12.78-127.3,8.04,20.95,11.78,43.54,10.92,65.97"/>
    <path class="st2" d="M656,395.24c9.19,15.22,9.03,34.59,4.08,51.67-4.95,17.08-14.2,32.53-22.63,48.19-8.43,15.66-16.25,32.16-17.89,49.86"/>
    <path class="st2" d="M217.38,376.38c-5.88,56.66-11.77,113.33-17.65,169.99"/>
    <path class="st2" d="M230.77,351.92c-4.48,13.6-11.55,26.35-20.71,37.35"/>
    <path class="st2" d="M312.1,356.82c-45.53,54.44-76.08,121.28-87.44,191.34"/>
    <g>
      <path class="st0" d="M507.55,299.81c.19-.39-.13-.76-.48-.77.04.49.09.99.13,1.48.11-.24.22-.47.34-.71Z"/>
      <path class="st2" d="M284.57,283.85c1.08-.69,2.14-1.41,3.16-2.19-1.05.73-2.11,1.46-3.16,2.19Z"/>
      <path class="st2" d="M503.87,261.22c.45-.68.89-1.39,1.34-2.1,0-.1,0-.21-.01-.31-.43.8-.86,1.6-1.32,2.39,0,0,0,.01,0,.02Z"/>
      <path class="st1" d="M451.99,299.26c19.07-4.04,38.1-17.12,51.8-37.93.03-.04.05-.08.08-.12,0,0,0-.01,0-.02.46-.79.88-1.59,1.32-2.39,10.51-19.28,14.57-40.82,14.44-62.09-.13-22.2-4.64-44.17-10.87-65.48-2.62-8.95-5.59-17.91-10.46-25.86-4.77-7.79-11.55-14.63-20.02-18.03-.27-.11-.41-.4-.3-.67.98-2.39-.97-5.42-3.43-5.97-.46-.1-.56-.71-.16-.96h0c.47-.29.23-1.01-.32-.98-1.41.09-2.86.22-4.43.49-.48.08-.8-.46-.51-.85,1.13-1.51,2.11-3.12,2.94-4.8.08-.16.16-.32.23-.48-.42-.71-.93-1.35-1.51-1.91,0,0-.02-.02-.02-.02-2.91-2.8-7.62-3.76-11.68-2.81-5.13,1.21-9.36,4.75-13.12,8.44-10.53,10.32-18.89,22.45-26.74,34.98-5.85,9.34-11.43,18.91-17.41,28.13-11.29,17.4-25.08,34.37-43.25,44.39-2.76,1.52-5.62,2.88-8.59,4.06,2.34,11.97,4.45,23.99,7.48,35.8,4.2,16.37,10.36,32.55,20.7,45.88.45.59.9,1.17,1.37,1.75,2.53,3.09,5.31,5.97,8.27,8.63,17.74,15.94,42.36,23.71,64.17,18.8Z"/>
      <path class="st2" d="M673.64,428.43c.71-10.33-.65-21.31-6.75-29.67-6.95-9.53-23.88-14.08-34.9-18.29-36.35-13.91-71.81-27.12-103.02-46.75-6.9,1.71-11.72,1.15-15.24-.44,10.29,28.53,19.41,57.64,23.22,87.7,5.83,46.01-.94,92.48-8.8,138.3,76.39.06,134.7.05,134.18-.09,9.36-14.18,10.8-32.15,9.82-49.12-.98-16.97-4.07-33.92-2.64-50.85.87-10.32,3.42-20.45,4.12-30.78Z"/>
      <path class="st2" d="M333.08,346.13c-5.65-3.8-10.4-8.79-15.09-13.73l5.68,23.06c-8.42-.54-16.07-7.21-18.77-15.25,1.1,4.85.22,10.12-2.39,14.36-1.14-8.84-2.24-15.63-2.77-22.31-13.58,4.39-28.29,5.77-42.52,7.96-19.47,2.99-40.06,8.55-52.71,23.64-11.04,13.16-14,31.26-14.39,48.42s1.36,34.55-2.01,51.38c-3.57,17.83-12.84,35.1-10.53,53.14.83,6.48,3.14,12.68,4.25,19.12,1.11,6.44.84,13.55-3.41,17.96-.81,1.65-1.61,3.3-2.42,4.96,0,0,48.1.07,114.04.16,15.08-69.6,32.93-138.64,53.6-207.9-3.74-1.04-7.32-2.81-10.56-4.99Z"/>
      <path class="st2" d="M536.95,420.98c-3.81-30.06-12.93-59.17-23.22-87.7-.09-.04-.18-.08-.26-.12.57,1.95,1.04,3.95.95,5.94.02,0,.05,0,.07,0-.04.11-.07.23-.11.34-.02.24-.03.47-.07.71-.21,1.41-.73,2.73-1.37,4-21.28,69.75-42.56,139.49-63.83,209.24-.59,1.93-1.22,3.92-2,5.81,28.02.03,55.53.06,81.03.07,7.86-45.82,14.63-92.29,8.8-138.3Z"/>
      <path class="st2" d="M514.32,340.15c.04-.24.05-.47.07-.71-.48,1.57-.96,3.14-1.44,4.71.64-1.28,1.16-2.6,1.37-4Z"/>
      <path class="st2" d="M512.95,344.15c-.44.87-.93,1.72-1.42,2.56-3.79,6.51-7.66,13.11-13.14,18.27-7.33,6.89-17.13,10.72-27.06,12.34-9.93,1.62-20.07,1.19-30.11.5-22.64-1.56-45.73-4.57-65.93-14.9-5.76-2.95-11.67-7.23-14.31-12.84-2.83,1.04-5.73,1.8-8.74,2-2.91.19-5.81-.19-8.62-.97-20.67,69.26-38.52,138.3-53.6,207.9,46.95.06,102.95.14,157.08.19.78-1.89,1.41-3.88,2-5.81,21.28-69.75,42.56-139.49,63.83-209.24Z"/>
      <path class="st2" d="M514.49,339.1s-.05,0-.07,0c0,.12-.02.23-.03.35.04-.11.07-.23.11-.34Z"/>
      <path class="st2" d="M500.55,321.61c-.52.26-1.01-.4-.63-.83,3.1-3.49,3.51-6.05,1.99-6.39-.42-.1-.98-.03-1.69.24-.51.2-.93-.45-.57-.86,3.89-4.44,4.9-7.73,7.54-13.25-.05-.49-.09-.99-.13-1.48-.13,0-.26.04-.37.15-2.22,2.19-3.72,3.11-5.86,4.29-.55.31-1.08-.43-.61-.85,2.38-2.17,4.56-4.54,6.54-7.08,2.47-3.16,4.63-6.58,6.39-10.19.27-.56-.49-1.05-.89-.57-1.72,2.09-3.69,3.98-5.85,5.63-1.51,1.15-3.1,2.2-4.78,3.09-.52.28-1.03-.36-.66-.82.63-.78,1.14-1.65,1.54-2.55,1-2.24,1.09-7.02,1.33-9.46.72-7.15.49-12.05-.06-19.21,0-.1.02-.19.06-.28-.03.04-.05.08-.08.12-13.7,20.8-32.73,33.89-51.8,37.93-21.81,4.92-46.43-2.86-64.17-18.8.29,4.31.38,8.63.28,12.94-.3,12.48-2.22,24.92-5.72,36.9-.1.34-.19.69-.3,1.03-.33,1.09-.68,2.19-1.08,3.28-.95,2.58-2.17,5.05-4.08,7-1.44,1.47-3.18,2.57-5.01,3.54-.94.5-1.9.96-2.86,1.42-2.64,1.25-5.31,2.52-8.06,3.52,2.64,5.61,8.55,9.9,14.31,12.84,20.2,10.33,43.29,13.34,65.93,14.9,10.04.69,20.18,1.13,30.11-.5,9.93-1.62,19.72-5.45,27.06-12.34,5.49-5.16,9.35-11.76,13.14-18.27.49-.84.98-1.69,1.42-2.56.48-1.57.96-3.14,1.44-4.71,0-.12.03-.23.03-.35.09-1.99-.38-3.99-.95-5.94-8.23-3.91-9.1-13.44-12.91-11.55Z"/>
      <path class="st1" d="M304.9,340.21c2.7,8.04,10.35,14.71,18.77,15.25l-5.68-23.06c4.69,4.94,9.44,9.92,15.09,13.73,3.23,2.17,6.81,3.95,10.56,4.99,2.81.78,5.7,1.15,8.62.97,3.01-.19,5.91-.96,8.74-2,2.74-1.01,5.42-2.27,8.06-3.52.96-.46,1.92-.92,2.86-1.42,1.83-.97,3.57-2.07,5.01-3.54,1.9-1.95,3.13-4.42,4.08-7,.4-1.08.75-2.18,1.08-3.28.1-.34.2-.69.3-1.03,3.5-11.98,5.43-24.42,5.72-36.9.1-4.32.01-8.64-.28-12.94-2.96-2.66-5.74-5.54-8.27-8.63-.47-.57-.92-1.16-1.37-1.75-10.33-13.33-16.5-29.51-20.7-45.88-3.03-11.81-5.13-23.83-7.48-35.8,2.97-1.18,5.83-2.54,8.59-4.06,18.16-10.02,31.96-27,43.25-44.39,5.98-9.22,11.56-18.79,17.41-28.13,7.85-12.53,16.21-24.66,26.74-34.98,3.76-3.69,7.99-7.23,13.12-8.44,4.05-.95,8.77,0,11.68,2.81h0s0,.01.01.02c.58.56,1.59,1.75,1.51,1.91-.84,1.69-2.05,3.78-3.18,5.29-.29.39.03.93.51.85,1.57-.27,3.02-.41,4.43-.49.55-.03.78.69.32.98h0c-.4.25-.3.86.16.96,2.46.55,4.42,3.58,3.43,5.97-.11.27.03.56.3.67,8.47,3.4,15.25,10.24,20.02,18.03,4.87,7.95,7.84,16.91,10.46,25.86,6.23,21.3,10.74,43.28,10.87,65.48.12,21.26-3.93,42.8-14.44,62.09,0,.1,0,.21.01.31-.44.71-.89,1.41-1.34,2.1-.05.09-.07.18-.06.28.56,7.16.78,12.06.06,19.21-.25,2.44-.33,7.22-1.33,9.46-.4.9-.91,1.77-1.54,2.55-.37.46.14,1.1.66.82,1.67-.9,3.27-1.94,4.78-3.09,2.15-1.65,4.13-3.54,5.85-5.63.4-.48,1.16,0,.89.57-1.76,3.61-3.91,7.02-6.39,10.19-1.98,2.54-4.16,4.91-6.54,7.08-.47.42.06,1.16.61.85,2.13-1.18,3.64-2.1,5.86-4.29.11-.11.24-.16.37-.15.35,0,.67.37.48.77-.12.24-.23.48-.34.71-2.65,5.52-3.65,8.81-7.54,13.25-.36.41.06,1.05.57.86.7-.27,1.26-.34,1.69-.24,1.52.34,1.11,2.9-1.99,6.39-.38.43.11,1.09.63.83,3.81-1.89,4.68,7.64,12.91,11.55.09.04.18.08.26.12,3.51,1.59,8.34,2.15,15.24.44,2.81-.7,5.96-1.77,9.51-3.31.2-.09.43-.1.6.03l11.02,8.73c.41.32.99-.07.84-.57l-3.62-12.38c-.16-.56.56-.93.93-.47,4.29,5.39,9.92,9.72,16.24,12.46.41.18.84-.21.72-.64l-4.52-15.99c-.2-.72-.35-1.63.22-2.1.68-.55,1.67,0,2.36.54,2.47,1.95,4.94,3.9,7.41,5.84.87.69,1.95,1.42,3.01,1.07,1.15-.38,1.54-1.79,1.7-3,.51-3.97.4-8.02-.35-11.96-.46-2.44-1.16-4.99-.43-7.37.68-2.23,2.49-3.91,4.11-5.59,4.83-5.01,8.56-11.07,10.13-17.09.08-.3.38-.46.67-.37l16.35,5.46c.54.18.95-.5.53-.89l-18.83-17.71c-.14-.13-.2-.33-.14-.52,1.12-4.05,1.25-8.38.39-12.49-1.09-5.2-3.71-9.93-5.86-14.79-8.31-18.83-9.54-39.9-11.58-59.72,0-.02,0-.04,0-.06.3-14.77-4.78-29.59-14.08-41.07-4.1-5.06-8.97-9.47-12.78-14.74-6.13-8.46-9.23-18.65-13.33-28.26-5.51-12.9-12.95-24.97-22-35.69-10.43-12.34-24.23-23.38-40.27-24.57-22.05-17.97-45.4-8.88-54.53-5.15-21.3,8.72-45.86,21.99-61.37,38.98-15.52,17-22.32,37.85-36.71,55.81-6.16,7.69-12.58,15.3-16.95,24.13-4.37,8.83-6.53,19.19-3.67,28.62-7.42,5.13-15.39,11.41-17.69,20.45-4.16,16.4,12.32,32.19,10.01,48.95-1.51,10.95-7.85,21.22-17.48,26.64-9.63,5.43-17.99,9.63-31.73,14.2,15.29,5.56,33.11,3.43,46.78-5.34,1.05-.73,2.11-1.46,3.16-2.19-1.02.77-2.09,1.5-3.16,2.19-10.18,7.04-20.36,14.08-30.55,21.12,8.02-.51,16.09-1.03,23.85-3.13,5.52-1.49,10.91-3.85,15.44-7.28.95-.72,2.2.38,1.62,1.42l-20.68,37.26c13.19-7.87,21.61-10.73,26.43-25.32-1.45,9.73-1.54,16.97-.95,24.34.54,6.68,1.63,13.47,2.77,22.31,2.61-4.23,3.49-9.5,2.39-14.36Z"/>
    </g>
    <path class="st1" d="M350,188.4s-26.33,6.45-35.78,17.46"/>
    <path class="st1" d="M312.1,197.13s-15.73-31.2,13.15-44.85c28.88-13.65,57.4-41.35,74.72-61.44,10.54-12.23,66.54-76.67,81.77-28.36"/>
    <path class="st1" d="M439.44,44.76s-36.22-.57-61.67,39.25c-18.69,29.25-20.48,44.11-30.98,50.41"/>
    <path class="st1" d="M479.2,79.81s26.1,9.27,33.75,41.13,33.38,29.54,31.28,67.46-7.35,64.7,32.56,83.61"/>
    <path class="st1" d="M527.99,197.13s-5.82,72.76,31.47,101.91"/>
    <path class="st1" d="M539.15,322.95s-22.79-42.21-16.97-84.01"/>
    <path class="st1" d="M350,205.87s12.36,60.74-5.5,87.53c-17.85,26.78-30.81,27.34-30.28,48.41"/>
    <path class="st4" d="M376.28,267.55s-5.31,16.73-23.37,7.92l1.76-27.38s5.15-5.24,10.4-.87c0,0,7.27,18.36,11.21,20.33Z"/>
    <path class="st2" d="M344.5,350.42s15.72,34.42,76.44,38.62c52.87,3.66,81.18-9.39,81.18-9.39"/>
    <circle class="st5" cx="393.87" cy="175.92" r="6.1"/>
    <circle class="st5" cx="468.63" cy="167.67" r="6.1"/>
    <path class="st1" d="M376.28,267.55s-5.31,16.73-23.37,7.92l1.76-27.38s5.15-5.24,10.4-.87c0,0,7.27,18.36,11.21,20.33Z"/>
    <path class="st2" d="M473.61,238.3c-21.6,13.63-49.02,17.67-73.63,10.84"/>
  </g>
</svg>