<?xml version="1.0" encoding="UTF-8"?>
<svg id="Layer_1" data-name="Layer 1" xmlns="http://www.w3.org/2000/svg" xmlns:xlink="http://www.w3.org/1999/xlink" viewBox="0 0 841.89 467.72">
  <defs>
    <style>
      .cls-1, .cls-2 {
        fill: none;
      }

      .cls-2 {
        stroke: #545d62;
        stroke-miterlimit: 10;
      }

      .cls-3 {
        fill: #de9d42;
      }

      .cls-4 {
        fill: #37383b;
      }

      .cls-5 {
        fill: #fff;
      }

      .cls-6 {
        fill: #6f4f47;
      }

      .cls-7 {
        fill: #545d62;
      }

      .cls-8 {
        fill: #2b538e;
      }

      .cls-9 {
        fill: #fac8c9;
      }

      .cls-10 {
        clip-path: url(#clippath);
      }
    </style>
    <clipPath id="clippath">
      <rect class="cls-1" width="841.89" height="467.7"/>
    </clipPath>
  </defs>
  <g class="cls-10">
    <rect class="cls-3" width="841.89" height="467.7"/>
    <g>
      <path class="cls-5" d="M600.01,154.72c3.28-5.33,3.78-12.17,1.74-18.09-1.77-5.14-5.69-9.8-10.94-11.22-3.61-.98-7.76-.05-10.58,2.4-.68.59-1.29,1.27-1.77,2.04-.45.7-.71,1.99-1.7,1.81-.89-.16-2.16-1.56-2.83-2.14-.95-.82-1.84-1.72-2.66-2.66-.93-1.07-1.78-2.23-2.22-3.57s-.4-2.9.37-4.08c.62-.95,1.69-1.68,1.81-2.81.12-1.08-.72-2.02-1.58-2.7-.92-.73-1.93-1.35-3-1.83-.28-.13-1.36-.37-1.34-.71.02-.42,1.03-.75,1.33-.9,2.2-1.04,4.6-1.59,6.88-2.42,2.9-1.05,5.85-2.77,6.97-5.64,1.12-2.87-.69-6.89-3.77-6.9-4.01-.01-5.46,5.71-9.16,7.26-4.83,2.02-9.11-4.01-10.19-9.13s-2.13-11.52-9.94-14.75c2.27-6.32,4.25-14.24-.44-19.05-2.77-2.85-7.04-3.55-10.48-5.53.73-7.58-4.51-14.39-10.07-19.6-4.92-4.6-10.7-8.83-17.39-9.55-6.23-.67-12.04,2-16.62,6.03-1.88,1.65-2.62,3.13-5.26,3.12-2.81-.01-5.61-1.88-8.61-1.87-4.23,0-8.72,2.17-10.26,6.1-3.4-5.17-2.76-12.64,1.47-17.16,2.36-2.53,5.73-4,9.16-4.27s7.08,2.49,9.51-.13c-6.16-3.56-14.19-7.07-19.88-2.81-2.34,1.75-3.71,4.54-4.47,7.36-1.6,5.97-.71,12.56,2.4,17.9-6.11-.75-12.51,1.39-16.94,5.67-2.4-5.74-2.07-12.21-3.2-18.32-1.13-6.12-4.65-12.67-10.75-13.88-5.05-1-10.05,2.05-13.66,5.72-3.61,3.66-6.5,8.2-7.4,13.26-.9,5.06.43,10.66,4.15,14.21-6.42.23-13.2,1.43-17.98,5.72-4.78,4.29-6.49,12.47-2.1,17.15-5.18-1.53-11.29,1.52-13.18,6.58-1.98,5.3.87,10.29,4.99,13.45-4.92.5-9-2.43-13.97.53-2.57,1.53-4.56,4.04-7.39,5.01-2.03.7-4.24.51-6.35.82-3.53.51-5.44,2.45-8.17,4.39-2.92,2.07-2.68,1.46-6.45,1.29-5.44-.24-10.95,2.4-14.3,6.67-4.52,5.76-5.38,13.86-3.33,20.89-12.25,10.79-14.55,31.13-5.02,44.38-.13-.18-4.26,8.81-4.49,9.82-.76,3.37-.92,7.08-.93,10.54-.02,7.14.51,13.91-6.09,18.62-3.41,2.43-7.62,3.37-11.68,4.39-4.06,1.02-8.25,2.28-11.3,5.14s-4.56,7.81-2.32,11.34c6.13-8.26,15.7-13.12,24.91-17.69,3.08-1.53,6.13-3.19,9.28-4.55,1.24,3.05-2.02,9.54-2.33,13.09-.15,1.72-.66,14.37,1.38,14.86-4.74-1.14-9.81.7-13.58,3.78-3.77,3.08-6.45,7.28-8.87,11.51-2.87,5.01-5.56,10.56-4.91,16.3.65,5.74,6.05,11.27,11.67,9.93-4.67-4.26-7.55-10.77-6.41-16.98,1.14-6.21,6.87-11.59,13.18-11.32,2.04.09,4.19.83,5.34,2.52,2.02,2.95.64,8.03,3.83,9.65-4.39,2.18-8.65,4.89-11.66,8.76s-4.62,9.07-3.27,13.79c.21.72.5,1.45,1.07,1.94,1.18,1,3.06.52,4.26-.46,3.6-2.92,3.54-8.94,7.35-11.57,2.7-1.87,6.61-1.23,9.12.88,2.51,2.11,3.8,5.39,4.26,8.64-4.99.27-9.93,1.35-14.58,3.19-1.58.62-3.15,1.36-4.38,2.52-2.58,2.45-3.18,6.32-3.17,9.88,0,3.72.57,7.6,2.76,10.61,2.19,3,6.37,4.8,9.77,3.3,3.4-1.5,4.63-6.86,1.65-9.09.05-1.44,2.1-1.99,3.35-1.27,1.24.72,1.89,2.12,2.67,3.32,2.5,3.84,8.5,5.96,11.65,2.63,1.7-1.8,1.96-4.64,1.09-6.95-.87-2.32-2.69-4.16-4.71-5.59-4.11-2.92-9.24-4.38-14.27-4.05-1,.06-2.01.2-2.89.68-1.3.71-2.11,2.07-2.73,3.42-1.25,2.72-1.99,5.69-2.16,8.68-4.16-2.48-3.88-9.19-.38-12.54,3.49-3.35,8.85-3.91,13.64-3.23,4.79.68,9.4,2.4,13.98,2.4.44-.36.85-.73,1.26-1.12-.3-5.91-.45-11.89-1.04-18.03-1.45.1-2.99-.05-4.36-.29-.95-.17-1.97-.38-2.63-1.08-.65-.7-.79-1.71-.9-2.65-.89-7.51-1.78-15.01-2.66-22.52-.3-2.54-.62-5.15-1.78-7.43-1.07-2.12-2.8-3.82-4.04-5.85-3.44-5.66-7.56-13.93,2.7-18.1.68-.28,1.19-.91,1.88-1.13.06-.02.12-.04.19-.05,1.9-.36,3.51,1.32,4.71,2.84,1.87,2.37,3.73,4.74,5.6,7.1-.49,3.12-.78,6.26-.85,9.42.09.02.18.05.27.06,2.15-1.53,2.69-4.19,3.27-6.87.45-2.09.93-4.2,2.22-5.8.58-.73,1.31-1.33,1.96-2,.21-.22.41-.44.59-.67,1.26-1.63,1.62-3.75,1.98-5.78,1.09-5.99,2.58-11.9,4.44-17.69.97-.7,1.92-1.41,2.76-2.25,2.94-2.98,3.73-7.61,2.56-11.6-.67-2.28-1.97-4.35-3.88-5.78,9-7.56,18-15.13,27-22.69,1.63-1.37,3.3-2.76,5.15-3.8.24-.21.47-.43.71-.64,2.79-2.51,5.8-5.12,9.5-5.73,4.44-.73,8.73,1.55,12.99,2.97,1.92.64,3.89,1.09,5.89,1.37,5.26.75,10.69.29,15.75-1.34.09-.02.18-.03.27-.05,6.48-1.24,12.78-3.53,19.35-4.03.23-.02.45-.02.68-.03,2.01.22,4.01.44,6.02.66,3.64.4,8.04,1.4,9.11,4.9.52,1.73.02,3.59.15,5.39s1.38,3.85,3.18,3.64c1.03-.12,1.81-.95,2.45-1.76,1.83-2.35,3.22-5.04,4.08-7.89,1.75.64,3.48,1.3,5.2,1.96.52.2,1.04.4,1.56.6,5.53,2.17,11.14,4.72,14.56,9.52.9,1.26,1.18,2.85,1.14,4.61-.15,6.37-4.61,15-.23,18.45,4.91,3.87,10.68-3.16,11.1-.26.24,1.63-.34,4.21-.93,6.83-.75,3.34-1.51,6.76-.62,8.4,1.69,3.14,6.56.8,6.97,6.2.72,9.31-5.22,29.66-5.17,34.39.13,12.03-.42,31.78-2.57,43.62-.46,2.53-.94,5.05-1.45,7.57-.23,1.16-.48,2.31-.72,3.46-.22,1.03-.56,1.84.71,1.96,1.89.18,4.38-1.08,5.92-2.06,1.78-1.13,3.31-2.66,4.38-4.48-.44.74,5.73,3.14,6.34,3.29,2.22.53,4.31.59,6.41-.29,2.25-.95,5.04-.46,7.43-.41,2.85.06,5.74.08,8.55-.49,7.88-1.6,14.33-8.67,15.19-16.67,6.4.78,13.12-1.77,17.4-6.6,4.28-4.83,5.99-11.81,4.44-18.07-1.1-4.46-4.48-8.91-9.07-9.06.49.02,1.96-1.64,2.36-1.99.74-.64,1.46-1.3,2.21-1.91,1.33-1.07,2.46-2.68,2.96-4.35.5-1.67.18-3.72-1.23-4.76-.55-.41-1.3-.72-1.46-1.39-.15-.62.31-1.2.59-1.78,1.35-2.72-.78-5.23-2.28-7.3-1.43-1.98-3.65-1.96-5.97-2.03.33-2.77.66-5.54.99-8.32,5.11,2.64,10.91,5.01,16.48,3.56,5.57-1.45,9.79-8.52,6.42-13.18-3.92,1.29-8.11,2.59-12.11,1.57s-7.44-5.38-5.9-9.21c.96-2.39,3.41-3.77,5.23-5.59,5.28-5.25,4.51-15.21-1.51-19.59,6.26.14,12.36-3.46,15.63-8.79Z"/>
      <path class="cls-5" d="M519.81,203.61c-.42-5.4-5.29-3.06-6.97-6.2-.88-1.64-.12-5.06.62-8.4.59-2.62,1.16-5.2.93-6.83-.42-2.9-6.2,4.13-11.1.26-4.37-3.45.08-12.09.23-18.45.04-1.76-.24-3.35-1.14-4.61-3.42-4.79-9.03-7.35-14.56-9.52-.52-.2-1.04-.41-1.56-.6-1.72-.66-3.46-1.32-5.2-1.96-.87,2.85-2.25,5.54-4.08,7.89-.64.81-1.42,1.64-2.45,1.76-1.79.21-3.05-1.84-3.18-3.64s.38-3.66-.15-5.39c-1.06-3.51-5.46-4.5-9.11-4.9-2.01-.22-4.01-.44-6.02-.66-.23.01-.45.02-.68.03-6.58.5-12.87,2.79-19.35,4.03-.09.02-.18.03-.27.05-5.05,1.64-10.49,2.09-15.75,1.34-2-.29-3.97-.74-5.89-1.37-4.27-1.42-8.56-3.71-12.99-2.97-3.7.61-6.71,3.22-9.5,5.73-.24.21-.47.43-.71.64-1.85,1.04-3.52,2.42-5.15,3.8-9,7.56-18,15.13-27,22.69,1.92,1.43,3.22,3.5,3.88,5.78,1.17,3.99.38,8.62-2.56,11.6-.83.85-1.79,1.56-2.76,2.25-1.87,5.79-3.36,11.71-4.44,17.69-.37,2.02-.73,4.15-1.98,5.78-.18.24-.38.46-.59.67-.65.67-1.38,1.27-1.96,2-1.28,1.61-1.76,3.71-2.22,5.8-.58,2.68-1.12,5.34-3.27,6.87-.1,0-.18-.04-.27-.06.07-3.15.36-6.3.85-9.42-1.87-2.37-3.73-4.74-5.6-7.1-1.2-1.52-2.81-3.21-4.71-2.84-.07.01-.13.03-.19.05-.69.22-1.2.85-1.88,1.13-10.26,4.17-6.14,12.45-2.7,18.1,1.23,2.03,2.96,3.74,4.04,5.85,1.16,2.28,1.48,4.89,1.78,7.43.89,7.51,1.78,15.01,2.66,22.52.11.94.25,1.96.9,2.65.66.71,1.68.91,2.63,1.08,1.37.25,2.91.4,4.36.29.58,6.13.73,12.12,1.04,18.03.43,8.41,1.21,16.67,4.02,25.01.09.25.16.51.25.76,13.44,38.1,51.97,61.52,68.52,65.59,9.8,2.41,21.3,3.96,30.21-1.04,1.41-.79,2.75-1.74,4.01-2.88,1.52-1.38,3.01-2.76,4.48-4.16,5.67-5.4,10.93-10.95,15.96-16.81,3.52-4.1,6.94-8.35,10.31-12.81,12.5-16.56,19.4-22.05,26.04-52.11.83-3.74,1.65-7.86,2.48-12.43,2.15-11.84,2.69-31.59,2.57-43.62-.05-4.73,5.88-25.07,5.17-34.39Z"/>
      <path class="cls-5" d="M459.69,442.75c-2.15,1.76-4.55,3.22-7.09,4.31-8.17,3.49-15.38,2.05-23.83,2.01-7.82-.03-15.96.86-23.85,1.07-17.92.49-35.83.97-53.75,1.46-3.96.11-7.98.2-11.93-.13,1.05.79,2.09,1.6,3.1,2.45,5.69,4.77,10.72,10.77,13.17,17.69,2.51.27,5.1.16,7.64.03,33.24-1.63,66.49-3.27,99.73-4.9-.56-5.22-1.21-10.4-1.94-15.57-.39-2.81-.81-5.61-1.24-8.41Z"/>
      <path class="cls-5" d="M558.36,444.85c-1.76-9.16-2.91-17.95-6.13-26.92-3.42-9.51-8.65-18.67-16.6-25.1-4.16-3.36-8.19-7.51-13.2-9.39-3.69-1.39-7.51-2.51-11.25-3.76-5.96-1.99-11.88-2.64-18.07-3.29-.13-2.89-2.7-4.99-5.04-6.7-4.94-3.58-9.87-7.17-14.81-10.75-5.03,5.86-10.29,11.41-15.96,16.81-1.47,1.39-2.95,2.78-4.48,4.16-1.26,1.14-2.61,2.09-4.01,2.88.08.7.2,1.42.38,2.2,3.17,13.5,5.38,27.2,7.8,40.86.83,5.01,1.64,9.98,2.41,14.94.1.65.2,1.3.3,1.95.43,2.8.85,5.61,1.24,8.41.72,5.16,1.38,10.34,1.94,15.57.22,2.05.43,4.1.62,6.17,31.06-.18,62.11-.35,93.17-.53,1.28,0,2.57-11.59,2.67-12.87.38-4.93-.03-9.8-.96-14.65Z"/>
      <path class="cls-5" d="M459.39,440.8c-.77-4.96-1.58-9.93-2.41-14.94-2.43-13.66-4.63-27.36-7.8-40.86-.18-.77-.3-1.49-.38-2.2-8.91,5-20.41,3.45-30.21,1.04-16.55-4.07-55.08-27.49-68.52-65.59-.09-.25-.16-.51-.25-.76-.2,1.62-.44,3.24-.72,4.85-2.12,12.27-6.35,24.14-12,35.21-5.92,11.6-16.98,19.8-26.32,28.74-7.39,7.09-14.78,14.18-22.17,21.26-2.88,2.76-5.76,5.52-8.64,8.28,10.16-.09,18.89,6.98,25.93,14.3,5.47,5.69,10.79,11.95,17.35,16.15,1.88,1.2,3.85,2.25,5.97,3.05,3.21,1.22,6.58,1.83,10.01,2.12,3.95.34,7.97.24,11.93.13,17.92-.49,35.83-.97,53.75-1.46,7.89-.21,16.03-1.11,23.85-1.07,8.45.04,15.66,1.48,23.83-2.01,2.54-1.08,4.94-2.55,7.09-4.31-.1-.65-.2-1.3-.3-1.95Z"/>
      <path class="cls-5" d="M328.47,467.05c-15.73-5-31.72-9.51-48.15-11.11-16.42-1.6-33.41-.18-48.58,6.32-5.2,2.23-10.17,5.04-15.6,6.62-3.11.91-6.45,1.37-9.67,1.07-2.14,3.41-3.87,6.98-5.02,10.53,8.76,1.15,18.33.21,27.2.26,9.13.05,18.25.11,27.38.16,18.25.11,36.5.21,54.76.32,9.98.06,19.96.17,29.94.17,7.09.04,15.1-.3,19.85-5.58-1.51-.84-3.03-1.69-4.54-2.53.32,1.11.57,2.24.74,3.39-9.37-3.39-18.81-6.6-28.31-9.62Z"/>
      <path class="cls-5" d="M356.03,473.28c-.16-.57-.34-1.13-.54-1.68-2.45-6.92-7.47-12.92-13.17-17.69-1.01-.85-2.05-1.65-3.1-2.45-3.42-.29-6.79-.9-10.01-2.12-2.12-.8-4.09-1.85-5.97-3.05-6.56-4.2-11.87-10.45-17.35-16.15-7.04-7.32-15.77-14.39-25.93-14.3,2.88-2.76,5.76-5.52,8.64-8.28-1.32-1.09-2.87-1.82-5.12-2.1-7.1-.87-14.72-.18-21.87-.24-3.87-.03-8.12.07-11.03,2.62-3.08,2.69-3.62,7.17-5.23,10.93-1.86,4.35-5.25,7.84-8.56,11.22-4.25,4.34-8.5,8.68-12.75,13.01-8.13,8.29-16.25,16.59-24.38,24.88,2.1,1.2,4.42,1.84,6.81,2.06,3.21.3,6.56-.16,9.67-1.07,5.43-1.59,10.4-4.4,15.6-6.62,15.17-6.49,32.15-7.92,48.58-6.32,16.42,1.6,32.42,6.11,48.15,11.11,9.5,3.02,18.94,6.23,28.31,9.62-.18-1.15-.43-2.28-.74-3.39Z"/>
    </g>
    <g>
      <path class="cls-6" d="M597.9,156.71c3.28-5.33,3.78-12.17,1.74-18.09-1.77-5.14-5.69-9.8-10.94-11.22-3.61-.98-7.76-.05-10.58,2.4-.68.59-1.29,1.27-1.77,2.04-.45.7-.71,1.99-1.7,1.81-.89-.16-2.16-1.56-2.83-2.14-.95-.82-1.84-1.72-2.66-2.66-.93-1.07-1.78-2.23-2.22-3.57s-.4-2.9.37-4.08c.62-.95,1.69-1.68,1.81-2.81.12-1.08-.72-2.02-1.58-2.7-.92-.73-1.93-1.35-3-1.83-.28-.13-1.36-.37-1.34-.71.02-.42,1.03-.75,1.33-.9,2.2-1.04,4.6-1.59,6.88-2.42,2.9-1.05,5.85-2.77,6.97-5.64,1.12-2.87-.69-6.89-3.77-6.9-4.01-.01-5.46,5.71-9.16,7.26-4.83,2.02-9.11-4.01-10.19-9.13s-2.13-11.52-9.94-14.75c2.27-6.32,4.25-14.24-.44-19.05-2.77-2.85-7.04-3.55-10.48-5.53.73-7.58-4.51-14.39-10.07-19.6-4.92-4.6-10.7-8.83-17.39-9.55-6.23-.67-12.04,2-16.62,6.03-1.88,1.65-2.62,3.13-5.26,3.12-2.81-.01-5.61-1.88-8.61-1.87-4.23,0-8.72,2.17-10.26,6.1-3.4-5.17-2.76-12.64,1.47-17.16,2.36-2.53,5.73-4,9.16-4.27s7.08,2.49,9.51-.13c-6.16-3.56-14.19-7.07-19.88-2.81-2.34,1.75-3.71,4.54-4.47,7.36-1.6,5.97-.71,12.56,2.4,17.9-6.11-.75-12.51,1.39-16.94,5.67-2.4-5.74-2.07-12.21-3.2-18.32-1.13-6.12-4.65-12.67-10.75-13.88-5.05-1-10.05,2.05-13.66,5.72-3.61,3.66-6.5,8.2-7.4,13.26-.9,5.06.43,10.66,4.15,14.21-6.42.23-13.2,1.43-17.98,5.72-4.78,4.29-6.49,12.47-2.1,17.15-5.18-1.53-11.29,1.52-13.18,6.58-1.98,5.3.87,10.29,4.99,13.45-4.92.5-9-2.43-13.97.53-2.57,1.53-4.56,4.04-7.39,5.01-2.03.7-4.24.51-6.35.82-3.53.51-5.44,2.45-8.17,4.39-2.92,2.07-2.68,1.46-6.45,1.29-5.44-.24-10.95,2.4-14.3,6.67-4.52,5.76-5.38,13.86-3.33,20.89-12.25,10.79-14.55,31.13-5.02,44.38-.13-.18-4.26,8.81-4.49,9.82-.76,3.37-.92,7.08-.93,10.54-.02,7.14.51,13.91-6.09,18.62-3.41,2.43-7.62,3.37-11.68,4.39-4.06,1.02-8.25,2.28-11.3,5.14s-4.56,7.81-2.32,11.34c6.13-8.26,15.7-13.12,24.91-17.69,3.08-1.53,6.13-3.19,9.28-4.55,1.24,3.05-2.02,9.54-2.33,13.09-.15,1.72-.66,14.37,1.38,14.86-4.74-1.14-9.81.7-13.58,3.78-3.77,3.08-6.45,7.28-8.87,11.51-2.87,5.01-5.56,10.56-4.91,16.3.65,5.74,6.05,11.27,11.67,9.93-4.67-4.26-7.55-10.77-6.41-16.98,1.14-6.21,6.87-11.59,13.18-11.32,2.04.09,4.19.83,5.34,2.52,2.02,2.95.64,8.03,3.83,9.65-4.39,2.18-8.65,4.89-11.66,8.76s-4.62,9.07-3.27,13.79c.21.72.5,1.45,1.07,1.94,1.18,1,3.06.52,4.26-.46,3.6-2.92,3.54-8.94,7.35-11.57,2.7-1.87,6.61-1.23,9.12.88,2.51,2.11,3.8,5.39,4.26,8.64-4.99.27-9.93,1.35-14.58,3.19-1.58.62-3.15,1.36-4.38,2.52-2.58,2.45-3.18,6.32-3.17,9.88,0,3.72.57,7.6,2.76,10.61,2.19,3,6.37,4.8,9.77,3.3,3.4-1.5,4.63-6.86,1.65-9.09.05-1.44,2.1-1.99,3.35-1.27,1.24.72,1.89,2.12,2.67,3.32,2.5,3.84,8.5,5.96,11.65,2.63,1.7-1.8,1.96-4.64,1.09-6.95-.87-2.32-2.69-4.16-4.71-5.59-4.11-2.92-9.24-4.38-14.27-4.05-1,.06-2.01.2-2.89.68-1.3.71-2.11,2.07-2.73,3.42-1.25,2.72-1.99,5.69-2.16,8.68-4.16-2.48-3.88-9.19-.38-12.54,3.49-3.35,8.85-3.91,13.64-3.23,4.79.68,9.4,2.4,13.98,2.4.44-.36.85-.73,1.26-1.12-.3-5.91-.45-11.89-1.04-18.03-1.45.1-2.99-.05-4.36-.29-.95-.17-1.97-.38-2.63-1.08-.65-.7-.79-1.71-.9-2.65-.89-7.51-1.78-15.01-2.66-22.52-.3-2.54-.62-5.15-1.78-7.43-1.07-2.12-2.8-3.82-4.04-5.85-3.44-5.66-7.56-13.93,2.7-18.1.68-.28,1.19-.91,1.88-1.13.06-.02.12-.04.19-.05,1.9-.36,3.51,1.32,4.71,2.84,1.87,2.37,3.73,4.74,5.6,7.1-.49,3.12-.78,6.26-.85,9.42.09.02.18.05.27.06,2.15-1.53,2.69-4.19,3.27-6.87.45-2.09.93-4.2,2.22-5.8.58-.73,1.31-1.33,1.96-2,.21-.22.41-.44.59-.67,1.26-1.63,1.62-3.75,1.98-5.78,1.09-5.99,2.58-11.9,4.44-17.69.97-.7,1.92-1.41,2.76-2.25,2.94-2.98,3.73-7.61,2.56-11.6-.67-2.28-1.97-4.35-3.88-5.78,9-7.56,18-15.13,27-22.69,1.63-1.37,3.3-2.76,5.15-3.8.24-.21.47-.43.71-.64,2.79-2.51,5.8-5.12,9.5-5.73,4.44-.73,8.73,1.55,12.99,2.97,1.92.64,3.89,1.09,5.89,1.37,5.26.75,10.69.29,15.75-1.34.09-.02.18-.03.27-.05,6.48-1.24,12.78-3.53,19.35-4.03.23-.02.45-.02.68-.03,2.01.22,4.01.44,6.02.66,3.64.4,8.04,1.4,9.11,4.9.52,1.73.02,3.59.15,5.39s1.38,3.85,3.18,3.64c1.03-.12,1.81-.95,2.45-1.76,1.83-2.35,3.22-5.04,4.08-7.89,1.75.64,3.48,1.3,5.2,1.96.52.2,1.04.4,1.56.6,5.53,2.17,11.14,4.72,14.56,9.52.9,1.26,1.18,2.85,1.14,4.61-.15,6.37-4.61,15-.23,18.45,4.91,3.87,10.68-3.16,11.1-.26.24,1.63-.34,4.21-.93,6.83-.75,3.34-1.51,6.76-.62,8.4,1.69,3.14,6.56.8,6.97,6.2.72,9.31-5.22,29.66-5.17,34.39.13,12.03-.42,31.78-2.57,43.62-.46,2.53-.94,5.05-1.45,7.57-.23,1.16-.48,2.31-.72,3.46-.22,1.03-.56,1.84.71,1.96,1.89.18,4.38-1.08,5.92-2.06,1.78-1.13,3.31-2.66,4.38-4.48-.44.74,5.73,3.14,6.34,3.29,2.22.53,4.31.59,6.41-.29,2.25-.95,5.04-.46,7.43-.41,2.85.06,5.74.08,8.55-.49,7.88-1.6,14.33-8.67,15.19-16.67,6.4.78,13.12-1.77,17.4-6.6,4.28-4.83,5.99-11.81,4.44-18.07-1.1-4.46-4.48-8.91-9.07-9.06.49.02,1.96-1.64,2.36-1.99.74-.64,1.46-1.3,2.21-1.91,1.33-1.07,2.46-2.68,2.96-4.35.5-1.67.18-3.72-1.23-4.76-.55-.41-1.3-.72-1.46-1.39-.15-.62.31-1.2.59-1.78,1.35-2.72-.78-5.23-2.28-7.3-1.43-1.98-3.65-1.96-5.97-2.03.33-2.77.66-5.54.99-8.32,5.11,2.64,10.91,5.01,16.48,3.56,5.57-1.45,9.79-8.52,6.42-13.18-3.92,1.29-8.11,2.59-12.11,1.57s-7.44-5.38-5.9-9.21c.96-2.39,3.41-3.77,5.23-5.59,5.28-5.25,4.51-15.21-1.51-19.59,6.26.14,12.36-3.46,15.63-8.79Z"/>
      <path class="cls-9" d="M517.7,205.6c-.42-5.4-5.29-3.06-6.97-6.2-.88-1.64-.12-5.06.62-8.4.59-2.62,1.16-5.2.93-6.83-.42-2.9-6.2,4.13-11.1.26-4.37-3.45.08-12.09.23-18.45.04-1.76-.24-3.35-1.14-4.61-3.42-4.79-9.03-7.35-14.56-9.52-.52-.2-1.04-.41-1.56-.6-1.72-.66-3.46-1.32-5.2-1.96-.87,2.85-2.25,5.54-4.08,7.89-.64.81-1.42,1.64-2.45,1.76-1.79.21-3.05-1.84-3.18-3.64s.38-3.66-.15-5.39c-1.06-3.51-5.46-4.5-9.11-4.9-2.01-.22-4.01-.44-6.02-.66-.23.01-.45.02-.68.03-6.58.5-12.87,2.79-19.35,4.03-.09.02-.18.03-.27.05-5.05,1.64-10.49,2.09-15.75,1.34-2-.29-3.97-.74-5.89-1.37-4.27-1.42-8.56-3.71-12.99-2.97-3.7.61-6.71,3.22-9.5,5.73-.24.21-.47.43-.71.64-1.85,1.04-3.52,2.42-5.15,3.8-9,7.56-18,15.13-27,22.69,1.92,1.43,3.22,3.5,3.88,5.78,1.17,3.99.38,8.62-2.56,11.6-.83.85-1.79,1.56-2.76,2.25-1.87,5.79-3.36,11.71-4.44,17.69-.37,2.02-.73,4.15-1.98,5.78-.18.24-.38.46-.59.67-.65.67-1.38,1.27-1.96,2-1.28,1.61-1.76,3.71-2.22,5.8-.58,2.68-1.12,5.34-3.27,6.87-.1,0-.18-.04-.27-.06.07-3.15.36-6.3.85-9.42-1.87-2.37-3.73-4.74-5.6-7.1-1.2-1.52-2.81-3.21-4.71-2.84-.07.01-.13.03-.19.05-.69.22-1.2.85-1.88,1.13-10.26,4.17-6.14,12.45-2.7,18.1,1.23,2.03,2.96,3.74,4.04,5.85,1.16,2.28,1.48,4.89,1.78,7.43.89,7.51,1.78,15.01,2.66,22.52.11.94.25,1.96.9,2.65.66.71,1.68.91,2.63,1.08,1.37.25,2.91.4,4.36.29.58,6.13.73,12.12,1.04,18.03.43,8.41,1.21,16.67,4.02,25.01.09.25.16.51.25.76,13.44,38.1,51.97,61.52,68.52,65.59,9.8,2.41,21.3,3.96,30.21-1.04,1.41-.79,2.75-1.74,4.01-2.88,1.52-1.38,3.01-2.76,4.48-4.16,5.67-5.4,10.93-10.95,15.96-16.81,3.52-4.1,6.94-8.35,10.31-12.81,12.5-16.56,19.4-22.05,26.04-52.11.83-3.74,1.65-7.86,2.48-12.43,2.15-11.84,2.69-31.59,2.57-43.62-.05-4.73,5.88-25.07,5.17-34.39Z"/>
      <path class="cls-4" d="M457.57,444.74c-2.15,1.76-4.55,3.22-7.09,4.31-8.17,3.49-15.38,2.05-23.83,2.01-7.82-.03-15.96.86-23.85,1.07-17.92.49-35.83.97-53.75,1.46-3.96.11-7.98.2-11.93-.13,1.05.79,2.09,1.6,3.1,2.45,5.69,4.77,10.72,10.77,13.17,17.69,2.51.27,5.1.16,7.64.03,33.24-1.63,66.49-3.27,99.73-4.9-.56-5.22-1.21-10.4-1.94-15.57-.39-2.81-.81-5.61-1.24-8.41Z"/>
      <path class="cls-8" d="M556.24,446.84c-1.76-9.16-2.91-17.95-6.13-26.92-3.42-9.51-8.65-18.67-16.6-25.1-4.16-3.36-8.19-7.51-13.2-9.39-3.69-1.39-7.51-2.51-11.25-3.76-5.96-1.99-11.88-2.64-18.07-3.29-.13-2.89-2.7-4.99-5.04-6.7-4.94-3.58-9.87-7.17-14.81-10.75-5.03,5.86-10.29,11.41-15.96,16.81-1.47,1.39-2.95,2.78-4.48,4.16-1.26,1.14-2.61,2.09-4.01,2.88.08.7.2,1.42.38,2.2,3.17,13.5,5.38,27.2,7.8,40.86.83,5.01,1.64,9.98,2.41,14.94.1.65.2,1.3.3,1.95.43,2.8.85,5.61,1.24,8.41.72,5.16,1.38,10.34,1.94,15.57.22,2.05.43,4.1.62,6.17,31.06-.18,62.11-.35,93.17-.53,1.28,0,2.57-11.59,2.67-12.87.38-4.93-.03-9.8-.96-14.65Z"/>
      <path class="cls-9" d="M457.27,442.79c-.77-4.96-1.58-9.93-2.41-14.94-2.43-13.66-4.63-27.36-7.8-40.86-.18-.77-.3-1.49-.38-2.2-8.91,5-20.41,3.45-30.21,1.04-16.55-4.07-55.08-27.49-68.52-65.59-.09-.25-.16-.51-.25-.76-.2,1.62-.44,3.24-.72,4.85-2.12,12.27-6.35,24.14-12,35.21-5.92,11.6-16.98,19.8-26.32,28.74-7.39,7.09-14.78,14.18-22.17,21.26-2.88,2.76-5.76,5.52-8.64,8.28,10.16-.09,18.89,6.98,25.93,14.3,5.47,5.69,10.79,11.95,17.35,16.15,1.88,1.2,3.85,2.25,5.97,3.05,3.21,1.22,6.58,1.83,10.01,2.12,3.95.34,7.97.24,11.93.13,17.92-.49,35.83-.97,53.75-1.46,7.89-.21,16.03-1.11,23.85-1.07,8.45.04,15.66,1.48,23.83-2.01,2.54-1.08,4.94-2.55,7.09-4.31-.1-.65-.2-1.3-.3-1.95Z"/>
      <path class="cls-8" d="M326.35,469.04c-15.73-5-31.72-9.51-48.15-11.11-16.42-1.6-33.41-.18-48.58,6.32-5.2,2.23-10.17,5.04-15.6,6.62-3.11.91-6.45,1.37-9.67,1.07-2.14,3.41-3.87,6.98-5.02,10.53,8.76,1.15,18.33.21,27.2.26,9.13.05,18.25.11,27.38.16,18.25.11,36.5.21,54.76.32,9.98.06,19.96.17,29.94.17,7.09.04,15.1-.3,19.85-5.58-1.51-.84-3.03-1.69-4.54-2.53.32,1.11.57,2.24.74,3.39-9.37-3.39-18.81-6.6-28.31-9.62Z"/>
      <path class="cls-8" d="M353.92,475.27c-.16-.57-.34-1.13-.54-1.68-2.45-6.92-7.47-12.92-13.17-17.69-1.01-.85-2.05-1.65-3.1-2.45-3.42-.29-6.79-.9-10.01-2.12-2.12-.8-4.09-1.85-5.97-3.05-6.56-4.2-11.87-10.45-17.35-16.15-7.04-7.32-15.77-14.39-25.93-14.3,2.88-2.76,5.76-5.52,8.64-8.28-1.32-1.09-2.87-1.82-5.12-2.1-7.1-.87-14.72-.18-21.87-.24-3.87-.03-8.12.07-11.03,2.62-3.08,2.69-3.62,7.17-5.23,10.93-1.86,4.35-5.25,7.84-8.56,11.22-4.25,4.34-8.5,8.68-12.75,13.01-8.13,8.29-16.25,16.59-24.38,24.88,2.1,1.2,4.42,1.84,6.81,2.06,3.21.3,6.56-.16,9.67-1.07,5.43-1.59,10.4-4.4,15.6-6.62,15.17-6.49,32.15-7.92,48.58-6.32,16.42,1.6,32.42,6.11,48.15,11.11,9.5,3.02,18.94,6.23,28.31,9.62-.18-1.15-.43-2.28-.74-3.39Z"/>
    </g>
    <path class="cls-5" d="M433.87,319.23c-2.88-.39-5.66-1.26-8.45-2.06-7.32-2.1-14.77-3.75-22.2-5.4-1.72-.38-2.53-.44-3.74.05,5.24,5.32,10.92,10.2,16.98,14.56,5.13,3.69,10.78,7.11,17.07,7.73,7.41.73,16.54-1.37,22.59-5.7,4.26-3.05,8.84-7.62,13.37-11.4-11.27-2.55-24.41,3.74-35.62,2.22Z"/>
    <path class="cls-2" d="M455.22,243.81c1.08,4.72.75,9.65,1.42,14.44.86,6.19,3.41,12.13,7.3,17.02"/>
    <path class="cls-2" d="M419.09,276.45c-1.4.72-2.65,1.78-3.41,3.15s-1.91,10.69,7.56,11.03c1.89.07,7.06-.52,14.5,5.69,1.85,1.54,4.32,2.18,6.69,2.59s4.91.16,6.99-1.04c1.02-.58,1.91-1.38,2.96-1.9,1.57-.79,3.39-.92,5.04-1.53,3.23-1.21,5.58-4.3,6.27-7.68.58-2.87.05-5.94-1.46-8.45"/>
    <g>
      <path class="cls-5" d="M362.13,226.14c.19-1.24.76-2.38,1.37-3.48-7.6-2.95-15.24-5.78-22.93-8.48-1.57-.55-3.25-1.1-4.86-.7-.65.16-1.37.67-1.23,1.33.05.26.23.47.41.66,1.65,1.73,3.98,2.62,6.2,3.5,7.45,2.95,14.69,6.44,21.65,10.42-.61-.92-.79-2.14-.62-3.24Z"/>
      <path class="cls-5" d="M531.38,242.92c-9.15-6.33-22.42-11.35-33.51-12.2-4.74-.36-20.51-1-23.63-.9-8.52.26-9.24,2.56-13.45,5.4-1.42.95-3.13,1.37-4.83,1.17-3.02-.35-6.02-.7-8.91-1.15-2.45-.38-4.6-1.76-6.11-3.73-3.09-4.05-7.58-7.02-12.36-8.89-5.89-2.3-12.24-3.1-18.53-3.69-11.8-1.09-23.72-1.49-35.47.03-4.11.54-9.28.55-10.7,3.03-.13.22-.25.44-.37.66-.62,1.1-1.18,2.24-1.37,3.48-.17,1.11.01,2.33.62,3.24.21.31.47.59.78.82.54.39,1.2.61,1.64,1.11.73.81.64,2.04.51,3.12-.63,5.03-2.41,11.03-1.06,15.92,1.09,3.93,3.75,7.04,7.18,8.46,5.38,2.23,10.58,4.09,16.36,5.17,6.93,1.29,14,1.81,21.04,1.85,5.79.04,11.93.84,17.52-1.11s8.16-7.44,10.46-12.44c2.34-5.07,1.42-7.86,6.33-11.11,2.41-1.59,5.41-2.18,8.11-1.16,4.32,1.64,5.21,6.17,6.08,10.19.9,4.14,3.1,14.47,4.47,16.14,1.22,1.49,2.85,2.6,4.52,3.56,12.01,6.87,29.53,7.14,43.36,6.5,3.15-.15,6.53-.38,8.62-2.25,5.59-6.19,6.15-13.74,9.3-21.46.34-.84.77-1.74,1.59-2.11.43-.2.93-.23,1.34-.46.74-.41,1-1.32,1.21-2.14.41-1.64.65-3.76-.72-5.07ZM437.21,241.62c-2.09,7.17-3.63,15.79-10.25,20.23-3.86,2.59-9.59,1.68-14.08,1.79s-9.21-.07-13.79-.4c-8.56-.62-18.56-3.81-26.6-6.83-8.26-3.1-5.1-19.15-4.07-25.66.35-2.23,1-4.4,2.08-6.38,2.38-4.37,24.43-3.91,34.96-3.27,5.08.31,10.17.78,15.1,2.03,8.99,2.27,19.91,7.32,16.66,18.48ZM521.93,263.4c-.91,2.68-2.29,6.92-4.31,8.9-2.16,2.11-13.92,1.92-16.94,1.79-7.95-.32-15.89-1.22-23.71-2.67-3.16-.59-6.42-1.32-8.95-3.31-2.42-1.9-3.88-3.82-5.23-6.58-1.78-3.62-1.42-9.47-1.6-13.39-.6-13.03,9.58-14.75,20.24-14.74,10.85.02,23.01.58,33.22,4.59,3,1.18,7.68,2.36,9.36,5.12,1.4,2.3-.75,16.42-2.07,20.28Z"/>
    </g>
    <g>
      <path class="cls-4" d="M362.13,227.53c.19-1.24.76-2.38,1.37-3.48-7.6-2.95-15.24-5.78-22.93-8.48-1.57-.55-3.25-1.1-4.86-.7-.65.16-1.37.67-1.23,1.33.05.26.23.47.41.66,1.65,1.73,3.98,2.62,6.2,3.5,7.45,2.95,14.69,6.44,21.65,10.42-.61-.92-.79-2.14-.62-3.24Z"/>
      <path class="cls-4" d="M531.38,244.31c-9.15-6.33-22.42-11.35-33.51-12.2-4.74-.36-20.51-1-23.63-.9-8.52.26-9.24,2.56-13.45,5.4-1.42.95-3.13,1.37-4.83,1.17-3.02-.35-6.02-.7-8.91-1.15-2.45-.38-4.6-1.76-6.11-3.73-3.09-4.05-7.58-7.02-12.36-8.89-5.89-2.3-12.24-3.1-18.53-3.69-11.8-1.09-23.72-1.49-35.47.03-4.11.54-9.28.55-10.7,3.03-.13.22-.25.44-.37.66-.62,1.1-1.18,2.24-1.37,3.48-.17,1.11.01,2.33.62,3.24.21.31.47.59.78.82.54.39,1.2.61,1.64,1.11.73.81.64,2.04.51,3.12-.63,5.03-2.41,11.03-1.06,15.92,1.09,3.93,3.75,7.04,7.18,8.46,5.38,2.23,10.58,4.09,16.36,5.17,6.93,1.29,14,1.81,21.04,1.85,5.79.04,11.93.84,17.52-1.11,5.41-1.88,8.16-7.44,10.46-12.44,2.34-5.07,1.42-7.86,6.33-11.11,2.41-1.59,5.41-2.18,8.11-1.16,4.32,1.64,5.21,6.17,6.08,10.19.9,4.14,3.1,14.47,4.47,16.14,1.22,1.49,2.85,2.6,4.52,3.56,12.01,6.87,29.53,7.14,43.36,6.5,3.15-.15,6.53-.38,8.62-2.25,5.59-6.19,6.15-13.74,9.3-21.46.34-.84.77-1.74,1.59-2.11.43-.2.93-.23,1.34-.46.74-.41,1-1.32,1.21-2.14.41-1.64.65-3.76-.72-5.07ZM437.21,243.02c-2.09,7.17-3.63,15.79-10.25,20.23-3.86,2.59-9.59,1.68-14.08,1.79s-9.21-.07-13.79-.4c-8.56-.62-18.56-3.81-26.6-6.83-8.26-3.1-5.1-19.15-4.07-25.66.35-2.23,1-4.4,2.08-6.38,2.38-4.37,24.43-3.91,34.96-3.27,5.08.31,10.17.78,15.1,2.03,8.99,2.27,19.91,7.32,16.66,18.48ZM521.93,264.8c-.91,2.68-2.29,6.92-4.31,8.9-2.16,2.11-13.92,1.92-16.94,1.79-7.95-.32-15.89-1.22-23.71-2.67-3.16-.59-6.42-1.32-8.95-3.31-2.42-1.9-3.88-3.82-5.23-6.58-1.78-3.62-1.42-9.47-1.6-13.39-.6-13.03,9.58-14.75,20.24-14.74s23.01.58,33.22,4.59c3,1.18,7.68,2.36,9.36,5.12,1.4,2.3-.75,16.42-2.07,20.28Z"/>
    </g>
    <g>
      <path class="cls-2" d="M600.01,154.72c3.28-5.33,3.78-12.17,1.74-18.09-1.77-5.14-5.69-9.8-10.94-11.22-3.61-.98-7.76-.05-10.58,2.4-.68.59-1.29,1.27-1.77,2.04-.45.7-.71,1.99-1.7,1.81-.89-.16-2.16-1.56-2.83-2.14-.95-.82-1.84-1.72-2.66-2.66-.93-1.07-1.78-2.23-2.22-3.57s-.4-2.9.37-4.08c.62-.95,1.69-1.68,1.81-2.81.12-1.08-.72-2.02-1.58-2.7-.92-.73-1.93-1.35-3-1.83-.28-.13-1.36-.37-1.34-.71.02-.42,1.03-.75,1.33-.9,2.2-1.04,4.6-1.59,6.88-2.42,2.9-1.05,5.85-2.77,6.97-5.64,1.12-2.87-.69-6.89-3.77-6.9-4.01-.01-5.46,5.71-9.16,7.26-4.83,2.02-9.11-4.01-10.19-9.13s-2.13-11.52-9.94-14.75c2.27-6.32,4.25-14.24-.44-19.05-2.77-2.85-7.04-3.55-10.48-5.53.73-7.58-4.51-14.39-10.07-19.6-4.92-4.6-10.7-8.83-17.39-9.55-6.23-.67-12.04,2-16.62,6.03-1.88,1.65-2.62,3.13-5.26,3.12-2.81-.01-5.61-1.88-8.61-1.87-4.23,0-8.72,2.17-10.26,6.1-3.4-5.17-2.76-12.64,1.47-17.16,2.36-2.53,5.73-4,9.16-4.27s7.08,2.49,9.51-.13c-6.16-3.56-14.19-7.07-19.88-2.81-2.34,1.75-3.71,4.54-4.47,7.36-1.6,5.97-.71,12.56,2.4,17.9-6.11-.75-12.51,1.39-16.94,5.67-2.4-5.74-2.07-12.21-3.2-18.32-1.13-6.12-4.65-12.67-10.75-13.88-5.05-1-10.05,2.05-13.66,5.72-3.61,3.66-6.5,8.2-7.4,13.26-.9,5.06.43,10.66,4.15,14.21-6.42.23-13.2,1.43-17.98,5.72-4.78,4.29-6.49,12.47-2.1,17.15-5.18-1.53-11.29,1.52-13.18,6.58-1.98,5.3.87,10.29,4.99,13.45-4.92.5-9-2.43-13.97.53-2.57,1.53-4.56,4.04-7.39,5.01-2.03.7-4.24.51-6.35.82-3.53.51-5.44,2.45-8.17,4.39-2.92,2.07-2.68,1.46-6.45,1.29-5.44-.24-10.95,2.4-14.3,6.67-4.52,5.76-5.38,13.86-3.33,20.89-12.25,10.79-14.55,31.13-5.02,44.38-.13-.18-4.26,8.81-4.49,9.82-.76,3.37-.92,7.08-.93,10.54-.02,7.14.51,13.91-6.09,18.62-3.41,2.43-7.62,3.37-11.68,4.39s-8.25,2.28-11.3,5.14-4.56,7.81-2.32,11.34c6.13-8.26,15.7-13.12,24.91-17.69,3.08-1.53,6.13-3.19,9.28-4.55,1.24,3.05-2.02,9.54-2.33,13.09-.15,1.72-.66,14.37,1.38,14.86-4.74-1.14-9.81.7-13.58,3.78-3.77,3.08-6.45,7.28-8.87,11.51-2.87,5.01-5.56,10.56-4.91,16.3.65,5.74,6.05,11.27,11.67,9.93-4.67-4.26-7.55-10.77-6.41-16.98,1.14-6.21,6.87-11.59,13.18-11.32,2.04.09,4.19.83,5.34,2.52,2.02,2.95.64,8.03,3.83,9.65-4.39,2.18-8.65,4.89-11.66,8.76s-4.62,9.07-3.27,13.79c.21.72.5,1.45,1.07,1.94,1.18,1,3.06.52,4.26-.46,3.6-2.92,3.54-8.94,7.35-11.57,2.7-1.87,6.61-1.23,9.12.88,2.51,2.11,3.8,5.39,4.26,8.64-4.99.27-9.93,1.35-14.58,3.19-1.58.62-3.15,1.36-4.38,2.52-2.58,2.45-3.18,6.32-3.17,9.88,0,3.72.57,7.6,2.76,10.61,2.19,3,6.37,4.8,9.77,3.3,3.4-1.5,4.63-6.86,1.65-9.09.05-1.44,2.1-1.99,3.35-1.27,1.24.72,1.89,2.12,2.67,3.32,2.5,3.84,8.5,5.96,11.65,2.63,1.7-1.8,1.96-4.64,1.09-6.95-.87-2.32-2.69-4.16-4.71-5.59-4.11-2.92-9.24-4.38-14.27-4.05-1,.06-2.01.2-2.89.68-1.3.71-2.11,2.07-2.73,3.42-1.25,2.72-1.99,5.69-2.16,8.68-4.16-2.48-3.88-9.19-.38-12.54,3.49-3.35,8.85-3.91,13.64-3.23,4.79.68,9.4,2.4,13.98,2.4.44-.36.85-.73,1.26-1.12-.3-5.91-.45-11.89-1.04-18.03-1.45.1-2.99-.05-4.36-.29-.95-.17-1.97-.38-2.63-1.08-.65-.7-.79-1.71-.9-2.65-.89-7.51-1.78-15.01-2.66-22.52-.3-2.54-.62-5.15-1.78-7.43-1.07-2.12-2.8-3.82-4.04-5.85-3.44-5.66-7.56-13.93,2.7-18.1.68-.28,1.19-.91,1.88-1.13.06-.02.12-.04.19-.05,1.9-.36,3.51,1.32,4.71,2.84,1.87,2.37,3.73,4.74,5.6,7.1-.49,3.12-.78,6.26-.85,9.42.09.02.18.05.27.06,2.15-1.53,2.69-4.19,3.27-6.87.45-2.09.93-4.2,2.22-5.8.58-.73,1.31-1.33,1.96-2,.21-.22.41-.44.59-.67,1.26-1.63,1.62-3.75,1.98-5.78,1.09-5.99,2.58-11.9,4.44-17.69.97-.7,1.92-1.41,2.76-2.25,2.94-2.98,3.73-7.61,2.56-11.6-.67-2.28-1.97-4.35-3.88-5.78,9-7.56,18-15.13,27-22.69,1.63-1.37,3.3-2.76,5.15-3.8.24-.21.47-.43.71-.64,2.79-2.51,5.8-5.12,9.5-5.73,4.44-.73,8.73,1.55,12.99,2.97,1.92.64,3.89,1.09,5.89,1.37,5.26.75,10.69.29,15.75-1.34.09-.02.18-.03.27-.05,6.48-1.24,12.78-3.53,19.35-4.03.23-.02.45-.02.68-.03,2.01.22,4.01.44,6.02.66,3.64.4,8.04,1.4,9.11,4.9.52,1.73.02,3.59.15,5.39s1.38,3.85,3.18,3.64c1.03-.12,1.81-.95,2.45-1.76,1.83-2.35,3.22-5.04,4.08-7.89,1.75.64,3.48,1.3,5.2,1.96.52.2,1.04.4,1.56.6,5.53,2.17,11.14,4.72,14.56,9.52.9,1.26,1.18,2.85,1.14,4.61-.15,6.37-4.61,15-.23,18.45,4.91,3.87,10.68-3.16,11.1-.26.24,1.63-.34,4.21-.93,6.83-.75,3.34-1.51,6.76-.62,8.4,1.69,3.14,6.56.8,6.97,6.2.72,9.31-5.22,29.66-5.17,34.39.13,12.03-.42,31.78-2.57,43.62-.46,2.53-.94,5.05-1.45,7.57-.23,1.16-.48,2.31-.72,3.46-.22,1.03-.56,1.84.71,1.96,1.89.18,4.38-1.08,5.92-2.06,1.78-1.13,3.31-2.66,4.38-4.48-.44.74,5.73,3.14,6.34,3.29,2.22.53,4.31.59,6.41-.29,2.25-.95,5.04-.46,7.43-.41,2.85.06,5.74.08,8.55-.49,7.88-1.6,14.33-8.67,15.19-16.67,6.4.78,13.12-1.77,17.4-6.6,4.28-4.83,5.99-11.81,4.44-18.07-1.1-4.46-4.48-8.91-9.07-9.06.49.02,1.96-1.64,2.36-1.99.74-.64,1.46-1.3,2.21-1.91,1.33-1.07,2.46-2.68,2.96-4.35.5-1.67.18-3.72-1.23-4.76-.55-.41-1.3-.72-1.46-1.39-.15-.62.31-1.2.59-1.78,1.35-2.72-.78-5.23-2.28-7.3-1.43-1.98-3.65-1.96-5.97-2.03.33-2.77.66-5.54.99-8.32,5.11,2.64,10.91,5.01,16.48,3.56,5.57-1.45,9.79-8.52,6.42-13.18-3.92,1.29-8.11,2.59-12.11,1.57s-7.44-5.38-5.9-9.21c.96-2.39,3.41-3.77,5.23-5.59,5.28-5.25,4.51-15.21-1.51-19.59,6.26.14,12.36-3.46,15.63-8.79Z"/>
      <path class="cls-2" d="M519.81,203.61c-.42-5.4-5.29-3.06-6.97-6.2-.88-1.64-.12-5.06.62-8.4.59-2.62,1.16-5.2.93-6.83-.42-2.9-6.2,4.13-11.1.26-4.37-3.45.08-12.09.23-18.45.04-1.76-.24-3.35-1.14-4.61-3.42-4.79-9.03-7.35-14.56-9.52-.52-.2-1.04-.41-1.56-.6-1.72-.66-3.46-1.32-5.2-1.96-.87,2.85-2.25,5.54-4.08,7.89-.64.81-1.42,1.64-2.45,1.76-1.79.21-3.05-1.84-3.18-3.64s.38-3.66-.15-5.39c-1.06-3.51-5.46-4.5-9.11-4.9-2.01-.22-4.01-.44-6.02-.66-.23.01-.45.02-.68.03-6.58.5-12.87,2.79-19.35,4.03-.09.02-.18.03-.27.05-5.05,1.64-10.49,2.09-15.75,1.34-2-.29-3.97-.74-5.89-1.37-4.27-1.42-8.56-3.71-12.99-2.97-3.7.61-6.71,3.22-9.5,5.73-.24.21-.47.43-.71.64-1.85,1.04-3.52,2.42-5.15,3.8-9,7.56-18,15.13-27,22.69,1.92,1.43,3.22,3.5,3.88,5.78,1.17,3.99.38,8.62-2.56,11.6-.83.85-1.79,1.56-2.76,2.25-1.87,5.79-3.36,11.71-4.44,17.69-.37,2.02-.73,4.15-1.98,5.78-.18.24-.38.46-.59.67-.65.67-1.38,1.27-1.96,2-1.28,1.61-1.76,3.71-2.22,5.8-.58,2.68-1.12,5.34-3.27,6.87-.1,0-.18-.04-.27-.06.07-3.15.36-6.3.85-9.42-1.87-2.37-3.73-4.74-5.6-7.1-1.2-1.52-2.81-3.21-4.71-2.84-.07.01-.13.03-.19.05-.69.22-1.2.85-1.88,1.13-10.26,4.17-6.14,12.45-2.7,18.1,1.23,2.03,2.96,3.74,4.04,5.85,1.16,2.28,1.48,4.89,1.78,7.43.89,7.51,1.78,15.01,2.66,22.52.11.94.25,1.96.9,2.65.66.71,1.68.91,2.63,1.08,1.37.25,2.91.4,4.36.29.58,6.13.73,12.12,1.04,18.03.43,8.41,1.21,16.67,4.02,25.01.09.25.16.51.25.76,13.44,38.1,51.97,61.52,68.52,65.59,9.8,2.41,21.3,3.96,30.21-1.04,1.41-.79,2.75-1.74,4.01-2.88,1.52-1.38,3.01-2.76,4.48-4.16,5.67-5.4,10.93-10.95,15.96-16.81,3.52-4.1,6.94-8.35,10.31-12.81,12.5-16.56,19.4-22.05,26.04-52.11.83-3.74,1.65-7.86,2.48-12.43,2.15-11.84,2.69-31.59,2.57-43.62-.05-4.73,5.88-25.07,5.17-34.39Z"/>
      <path class="cls-2" d="M459.69,442.75c-2.15,1.76-4.55,3.22-7.09,4.31-8.17,3.49-15.38,2.05-23.83,2.01-7.82-.03-15.96.86-23.85,1.07-17.92.49-35.83.97-53.75,1.46-3.96.11-7.98.2-11.93-.13,1.05.79,2.09,1.6,3.1,2.45,5.69,4.77,10.72,10.77,13.17,17.69,2.51.27,5.1.16,7.64.03,33.24-1.63,66.49-3.27,99.73-4.9-.56-5.22-1.21-10.4-1.94-15.57-.39-2.81-.81-5.61-1.24-8.41Z"/>
      <path class="cls-2" d="M558.36,444.85c-1.76-9.16-2.91-17.95-6.13-26.92-3.42-9.51-8.65-18.67-16.6-25.1-4.16-3.36-8.19-7.51-13.2-9.39-3.69-1.39-7.51-2.51-11.25-3.76-5.96-1.99-11.88-2.64-18.07-3.29-.13-2.89-2.7-4.99-5.04-6.7-4.94-3.58-9.87-7.17-14.81-10.75-5.03,5.86-10.29,11.41-15.96,16.81-1.47,1.39-2.95,2.78-4.48,4.16-1.26,1.14-2.61,2.09-4.01,2.88.08.7.2,1.42.38,2.2,3.17,13.5,5.38,27.2,7.8,40.86.83,5.01,1.64,9.98,2.41,14.94.1.65.2,1.3.3,1.95.43,2.8.85,5.61,1.24,8.41.72,5.16,1.38,10.34,1.94,15.57.22,2.05.43,4.1.62,6.17,31.06-.18,62.11-.35,93.17-.53,1.28,0,2.57-11.59,2.67-12.87.38-4.93-.03-9.8-.96-14.65Z"/>
      <path class="cls-2" d="M459.39,440.8c-.77-4.96-1.58-9.93-2.41-14.94-2.43-13.66-4.63-27.36-7.8-40.86-.18-.77-.3-1.49-.38-2.2-8.91,5-20.41,3.45-30.21,1.04-16.55-4.07-55.08-27.49-68.52-65.59-.09-.25-.16-.51-.25-.76-.2,1.62-.44,3.24-.72,4.85-2.12,12.27-6.35,24.14-12,35.21-5.92,11.6-16.98,19.8-26.32,28.74-7.39,7.09-14.78,14.18-22.17,21.26-2.88,2.76-5.76,5.52-8.64,8.28,10.16-.09,18.89,6.98,25.93,14.3,5.47,5.69,10.79,11.95,17.35,16.15,1.88,1.2,3.85,2.25,5.97,3.05,3.21,1.22,6.58,1.83,10.01,2.12,3.95.34,7.97.24,11.93.13,17.92-.49,35.83-.97,53.75-1.46,7.89-.21,16.03-1.11,23.85-1.07,8.45.04,15.66,1.48,23.83-2.01,2.54-1.08,4.94-2.55,7.09-4.31-.1-.65-.2-1.3-.3-1.95Z"/>
      <path class="cls-2" d="M328.47,467.05c-15.73-5-31.72-9.51-48.15-11.11-16.42-1.6-33.41-.18-48.58,6.32-5.2,2.23-10.17,5.04-15.6,6.62-3.11.91-6.45,1.37-9.67,1.07-2.14,3.41-3.87,6.98-5.02,10.53,8.76,1.15,18.33.21,27.2.26,9.13.05,18.25.11,27.38.16,18.25.11,36.5.21,54.76.32,9.98.06,19.96.17,29.94.17,7.09.04,15.1-.3,19.85-5.58-1.51-.84-3.03-1.69-4.54-2.53.32,1.11.57,2.24.74,3.39-9.37-3.39-18.81-6.6-28.31-9.62Z"/>
      <path class="cls-2" d="M356.03,473.28c-.16-.57-.34-1.13-.54-1.68-2.45-6.92-7.47-12.92-13.17-17.69-1.01-.85-2.05-1.65-3.1-2.45-3.42-.29-6.79-.9-10.01-2.12-2.12-.8-4.09-1.85-5.97-3.05-6.56-4.2-11.87-10.45-17.35-16.15-7.04-7.32-15.77-14.39-25.93-14.3,2.88-2.76,5.76-5.52,8.64-8.28-1.32-1.09-2.87-1.82-5.12-2.1-7.1-.87-14.72-.18-21.87-.24-3.87-.03-8.12.07-11.03,2.62-3.08,2.69-3.62,7.17-5.23,10.93-1.86,4.35-5.25,7.84-8.56,11.22-4.25,4.34-8.5,8.68-12.75,13.01-8.13,8.29-16.25,16.59-24.38,24.88,2.1,1.2,4.42,1.84,6.81,2.06,3.21.3,6.56-.16,9.67-1.07,5.43-1.59,10.4-4.4,15.6-6.62,15.17-6.49,32.15-7.92,48.58-6.32,16.42,1.6,32.42,6.11,48.15,11.11,9.5,3.02,18.94,6.23,28.31,9.62-.18-1.15-.43-2.28-.74-3.39Z"/>
    </g>
    <circle class="cls-7" cx="402.38" cy="233.41" r="6.97"/>
    <circle class="cls-7" cx="485.83" cy="242.2" r="6.97"/>
    <path class="cls-2" d="M350.57,331.18c.55,23.23-6.29,46.57-19.28,65.83"/>
    <path class="cls-2" d="M465.17,431.83c11.71-1.62,20.92-11.53,25.16-22.55,4.25-11.03,4.32-15.94,4.46-27.76"/>
    <path class="cls-2" d="M215.64,457.64c33.66-13.83,71.78-16.55,107.07-7.65"/>
    <path class="cls-2" d="M256.1,406.54c-.52,1.25.35,2.72,1.54,3.37s2.6.7,3.95.79c5.42.37,10.77,1.71,15.73,3.92"/>
    <path class="cls-2" d="M472.47,317.92c-11.88-4.65-26.39,2.98-38.6,1.31-2.88-.39-5.66-1.26-8.45-2.06-7.32-2.1-14.77-3.75-22.2-5.4-2.23-.5-2.92-.45-4.94.63"/>
    <path class="cls-2" d="M328.55,230.12c-.34-.52-4.82-8.4.69-8.76s11.36,4.38,11.36,4.38"/>
    <path class="cls-2" d="M341.81,241.14s-3.62,8.44-1.21,11.71,4.65,10.16,4.65,13.6"/>
    <path class="cls-2" d="M346.28,271.44c-.17-.69,0-30.3,0-30.3"/>
    <path class="cls-2" d="M334.47,238.9c-.24-.52,3.4-12.03-.92-14.79"/>
    <path class="cls-2" d="M433.87,319.23c-2.88-.39-5.66-1.26-8.45-2.06-7.32-2.1-14.77-3.75-22.2-5.4-1.72-.38-2.53-.44-3.74.05,5.24,5.32,10.92,10.2,16.98,14.56,5.13,3.69,10.78,7.11,17.07,7.73,7.41.73,16.54-1.37,22.59-5.7,4.26-3.05,8.84-7.62,13.37-11.4-11.27-2.55-24.41,3.74-35.62,2.22Z"/>
    <g>
      <path class="cls-2" d="M362.13,226.14c.19-1.24.76-2.38,1.37-3.48-7.6-2.95-15.24-5.78-22.93-8.48-1.57-.55-3.25-1.1-4.86-.7-.65.16-1.37.67-1.23,1.33.05.26.23.47.41.66,1.65,1.73,3.98,2.62,6.2,3.5,7.45,2.95,14.69,6.44,21.65,10.42-.61-.92-.79-2.14-.62-3.24Z"/>
      <path class="cls-2" d="M531.38,242.92c-9.15-6.33-22.42-11.35-33.51-12.2-4.74-.36-20.51-1-23.63-.9-8.52.26-9.24,2.56-13.45,5.4-1.42.95-3.13,1.37-4.83,1.17-3.02-.35-6.02-.7-8.91-1.15-2.45-.38-4.6-1.76-6.11-3.73-3.09-4.05-7.58-7.02-12.36-8.89-5.89-2.3-12.24-3.1-18.53-3.69-11.8-1.09-23.72-1.49-35.47.03-4.11.54-9.28.55-10.7,3.03-.13.22-.25.44-.37.66-.62,1.1-1.18,2.24-1.37,3.48-.17,1.11.01,2.33.62,3.24.21.31.47.59.78.82.54.39,1.2.61,1.64,1.11.73.81.64,2.04.51,3.12-.63,5.03-2.41,11.03-1.06,15.92,1.09,3.93,3.75,7.04,7.18,8.46,5.38,2.23,10.58,4.09,16.36,5.17,6.93,1.29,14,1.81,21.04,1.85,5.79.04,11.93.84,17.52-1.11s8.16-7.44,10.46-12.44c2.34-5.07,1.42-7.86,6.33-11.11,2.41-1.59,5.41-2.18,8.11-1.16,4.32,1.64,5.21,6.17,6.08,10.19.9,4.14,3.1,14.47,4.47,16.14,1.22,1.49,2.85,2.6,4.52,3.56,12.01,6.87,29.53,7.14,43.36,6.5,3.15-.15,6.53-.38,8.62-2.25,5.59-6.19,6.15-13.74,9.3-21.46.34-.84.77-1.74,1.59-2.11.43-.2.93-.23,1.34-.46.74-.41,1-1.32,1.21-2.14.41-1.64.65-3.76-.72-5.07ZM437.21,241.62c-2.09,7.17-3.63,15.79-10.25,20.23-3.86,2.59-9.59,1.68-14.08,1.79s-9.21-.07-13.79-.4c-8.56-.62-18.56-3.81-26.6-6.83-8.26-3.1-5.1-19.15-4.07-25.66.35-2.23,1-4.4,2.08-6.38,2.38-4.37,24.43-3.91,34.96-3.27,5.08.31,10.17.78,15.1,2.03,8.99,2.27,19.91,7.32,16.66,18.48ZM521.93,263.4c-.91,2.68-2.29,6.92-4.31,8.9-2.16,2.11-13.92,1.92-16.94,1.79-7.95-.32-15.89-1.22-23.71-2.67-3.16-.59-6.42-1.32-8.95-3.31-2.42-1.9-3.88-3.82-5.23-6.58-1.78-3.62-1.42-9.47-1.6-13.39-.6-13.03,9.58-14.75,20.24-14.74,10.85.02,23.01.58,33.22,4.59,3,1.18,7.68,2.36,9.36,5.12,1.4,2.3-.75,16.42-2.07,20.28Z"/>
    </g>
  </g>
</svg>