<?xml version="1.0" encoding="UTF-8"?>
<svg id="Layer_1" xmlns="http://www.w3.org/2000/svg" xmlns:xlink="http://www.w3.org/1999/xlink" version="1.1" viewBox="0 0 841.89 467.72">
  <!-- Generator: Adobe Illustrator 29.0.0, SVG Export Plug-In . SVG Version: 2.1.0 Build 186)  -->
  <defs>
    <style>
      .st0, .st1 {
        fill: none;
      }

      .st2 {
        fill: #55565a;
      }

      .st3 {
        fill: #fff;
      }

      .st4 {
        fill: #1c1d1f;
      }

      .st5 {
        fill: #fae8be;
      }

      .st6 {
        fill: #f7bcac;
      }

      .st7 {
        clip-path: url(#clippath);
      }

      .st8 {
        fill: #5b483f;
      }

      .st1 {
        stroke: #55565a;
        stroke-miterlimit: 10;
      }
    </style>
    <clipPath id="clippath">
      <rect class="st0" width="841.89" height="465.73"/>
    </clipPath>
  </defs>
  <g class="st7">
    <rect class="st5" width="841.89" height="465.73"/>
    <g>
      <path class="st3" d="M493.92,142.23c-1.28-13.07-3.77-25.95-8.14-38.34-4.32-12.25-54.02-35.91-68.27-37.62-1.29-.16-2.58-.31-3.88-.45-7.7-.82-15.6-1.32-23.26-.47-4.56.51-9.02,1.49-13.31,3.16-10.56,4.13-38.16,29.77-39.6,40.93-.07.56-9.16,41.49-6.9,64.44.69,7,1.89,14,1.47,21.03-.42,6.91-2.41,13.64-3.03,20.53-.84,9.46.94,18.97,3.32,28.16,1.67,6.48,3.68,12.91,6.11,19.16,1.08,2.76,2.23,5.49,3.49,8.16,3.18,6.75,6.97,13.19,11.53,19.1,10.24,13.26,24.01,23.43,38.55,31.75,7.47,4.28,15.36,8.17,23.88,9.47,8.29,1.27,16.79,0,24.87-2.23,18.96-5.25,35.75-15.57,51.47-27.68-.22-2.07-.43-4.15-.62-6.22-.78-8.33-1.35-16.66-1.53-24.97-.61-27.89,3.03-55.69,4.45-83.55.75-14.74.84-29.67-.6-44.36Z"/>
      <path class="st3" d="M506.47,472.22c1.75-.08,3.5-.15,5.26-.23,1.16-4.01,1.91-8.14,2.14-12.31-2.22,4.32-4.7,8.51-7.4,12.54Z"/>
      <path class="st3" d="M673.88,467.38c-.25-10.94-8.35-17.01-12.75-27.12-4.42-10.16-5.14-24.35-12.23-32.76-1.71-2.03-8.98-14.89-15.38-17.48-4.65-1.89-11.86-3-13.1-4.48-2.81-3.34-.61-8.16-3.58-11.36-16.19-17.39-20.82-2.01-49.96-21.39-.82,15.53-1.57,31.04-2.03,46.47-.34,11.4-.55,23.03-4.33,33.79-3.73,10.62-11.68,20.43-22.51,23.38-1.31,5.1-3.27,10.02-5.79,14.64,47.21-2.16,94.42-4.37,141.66-3.7Z"/>
      <path class="st3" d="M537.59,456.55c.14-.04.28-.09.42-.12.61-2.39,1.08-4.81,1.4-7.27-.61,2.46-1.21,4.93-1.82,7.39Z"/>
      <path class="st3" d="M502.47,392.56c-.63-15.68-2.49-31.46-4.6-47.28-1.95-14.63-4.09-29.3-5.65-43.96-15.71,12.11-32.51,22.43-51.47,27.68-8.08,2.24-16.58,3.5-24.87,2.23-8.51-1.3-16.4-5.19-23.88-9.47-14.54-8.32-28.31-18.48-38.55-31.75-4.57-5.91-8.35-12.35-11.53-19.1.2,13.46.4,26.93.6,40.39.13,8.68.29,17.46,2.46,25.85.06.24.11.48.17.72,3.53,12.91,11.76,23.99,20.44,34.18,12.55,14.73,26.44,28.32,41.41,40.59,13.64,11.18,28.17,21.27,43.44,30.09-15.98-1.97-31.97-3.93-47.95-5.9,10.19,12.35,20.38,24.7,30.57,37.06-24.65-6.53-47.89-18.31-67.73-34.32-17.16-13.84-31.66-30.69-44.96-48.27-3.22-4.25-6.38-8.57-9.39-12.98-3.48,8.94-7.56,17.72-11.61,26.27,4.53-10.11,7.16-21.06,7.74-32.13.08-1.62.13-3.24.12-4.86-.71.62-1.32,1.34-1.85,2.11-1.1,1.61-1.8,3.51-1.97,5.45.09-2.76.18-5.52.27-8.27.32-9.96.65-19.92.97-29.88-2.18,6.17-4.55,12.3-7.15,18.34-9.01,20.97-20.78,40.75-37.25,56.38,1.18-7.72,6.38-14.11,10.75-20.59,10.37-15.41,16.56-32.76,20.48-50.91-2.57-7.94-4.39-16.11-5.81-24.37-5.65.7-36.67,21.48-78.07,29.41-21.56,4.13-38.65,23.71-46.82,44.09-4.41,10.99-17.83,10.2-9.35,26.47,2.88,5.51-11.67,24.2-12.02,30.4-.6,10.6-15.9,17.08-16.26,27.69,4.49-2.28,38.6.16,43.48,1.39,15.75,3.95,32.28,1.61,48.44,0,63.1-6.28,126.7-1.06,190.11-.66,28.14.18,56.28-.6,84.41-1.7,3.09-7.75,5.8-15.63,7.85-23.72,4.73-18.65,5.79-37.57,5.03-56.64Z"/>
      <path class="st3" d="M553.58,124.54c-4.8-15.4-12.63-29.52-20.01-43.86C497.8,11.16,444.37,4.49,432.61,4.1c-7.12-.24-14,5.77-18.98,13.08-.9-1.56-1.96-2.64-3.2-3.01-26.99-8.08-55.39,12.69-75.97,31.93s-32.85,45.81-40.96,72.79c-8.7,28.93-4.52,65.54-5.85,95.72-1.33,30.18-8.17,53.93-4.46,83.91.72,5.78,1.51,11.58,2.5,17.33,1.42,8.26,3.24,16.43,5.81,24.37-3.92,18.15-10.11,35.5-20.48,50.91-4.36,6.48-9.56,12.87-10.75,20.59,16.48-15.62,28.25-35.41,37.25-56.38,2.59-6.04,4.97-12.17,7.15-18.34-.32,9.96-.65,19.92-.97,29.88-.09,2.76-.18,5.52-.27,8.27.18-1.94.87-3.84,1.97-5.45.53-.78,1.14-1.49,1.85-2.11,0,1.62-.04,3.24-.12,4.86-.58,11.06-3.21,22.02-7.74,32.13,4.05-8.55,8.13-17.33,11.61-26.27,3.02,4.41,6.18,8.73,9.39,12.98,13.29,17.58,27.8,34.43,44.96,48.27,19.84,16.01,43.08,27.79,67.73,34.32-10.19-12.35-20.38-24.7-30.57-37.06,15.98,1.97,31.97,3.93,47.95,5.9-15.27-8.82-29.8-18.91-43.44-30.09-14.97-12.27-28.86-25.85-41.41-40.59-8.68-10.19-16.92-21.27-20.44-34.18-.07-.24-.11-.48-.17-.72-2.17-8.4-2.33-17.18-2.46-25.85-.2-13.46-.4-26.93-.6-40.39-1.26-2.67-2.41-5.4-3.49-8.16-2.44-6.25-4.44-12.68-6.11-19.16-2.38-9.2-4.16-18.7-3.32-28.16.61-6.89,2.61-13.62,3.03-20.53.43-7.02-.77-14.02-1.47-21.03-2.27-22.95,6.88-64.71,7.18-65.8,3.28-11.75,29.17-35.59,39.32-39.56,4.29-1.68,8.76-2.66,13.31-3.16,7.66-.85,15.56-.35,23.26.47,1.29.14,2.58.3,3.88.45,14.25,1.71,63.96,25.38,68.27,37.62,4.37,12.39,6.86,25.27,8.14,38.34,1.44,14.69,1.35,29.61.6,44.36-1.42,27.86-5.06,55.66-4.45,83.55.18,8.31.74,16.64,1.53,24.97.19,2.07.4,4.15.62,6.22,1.56,14.66,3.7,29.33,5.65,43.96,2.11,15.82,3.97,31.61,4.6,47.28.76,19.07-.3,37.99-5.03,56.64-2.05,8.09-4.77,15.97-7.85,23.72,5.63-.22,11.26-.46,16.89-.7,2.7-4.04,5.18-8.22,7.4-12.54-.23,4.17-.98,8.3-2.14,12.31,6.83-.3,13.66-.61,20.49-.92,2.52-4.63,4.48-9.54,5.79-14.64-.14.04-.28.09-.42.12.61-2.46,1.21-4.93,1.82-7.39-.31,2.46-.78,4.88-1.4,7.27,10.84-2.94,18.78-12.76,22.51-23.38,3.78-10.76,3.99-22.39,4.33-33.79.46-15.43,1.22-30.94,2.03-46.47,4.06-77.17,9.55-155.01-13.3-228.25Z"/>
    </g>
    <g>
      <path class="st6" d="M493.92,142.01c-1.28-13.07-3.77-25.95-8.14-38.34-4.32-12.25-54.02-35.91-68.27-37.62-1.29-.16-2.58-.31-3.88-.45-7.7-.82-15.6-1.32-23.26-.47-4.56.51-9.02,1.49-13.31,3.16-10.56,4.13-38.16,29.77-39.6,40.93-.07.56-9.16,41.49-6.9,64.44.69,7,1.89,14,1.47,21.03-.42,6.91-2.41,13.64-3.03,20.53-.84,9.46.94,18.97,3.32,28.16,1.67,6.48,3.68,12.91,6.11,19.16,1.08,2.76,2.23,5.49,3.49,8.16,3.18,6.75,6.97,13.19,11.53,19.1,10.24,13.26,24.01,23.43,38.55,31.75,7.47,4.28,15.36,8.17,23.88,9.47,8.29,1.27,16.79,0,24.87-2.23,18.96-5.25,35.75-15.57,51.47-27.68-.22-2.07-.43-4.15-.62-6.22-.78-8.33-1.35-16.66-1.53-24.97-.61-27.89,3.03-55.69,4.45-83.55.75-14.74.84-29.67-.6-44.36Z"/>
      <path class="st4" d="M506.47,472c1.75-.08,3.5-.15,5.26-.23,1.16-4.01,1.91-8.14,2.14-12.31-2.22,4.32-4.7,8.51-7.4,12.54Z"/>
      <path class="st4" d="M671.88,467.15c-.25-10.94-8.35-17.01-12.75-27.12-4.42-10.16-5.14-24.35-12.23-32.76-1.71-2.03-8.98-14.89-15.38-17.48-4.65-1.89-11.86-3-13.1-4.48-2.81-3.34-.61-8.16-3.58-11.36-16.19-17.39-20.82-2.01-49.96-21.39-.82,15.53-1.57,31.04-2.03,46.47-.34,11.4-.55,23.03-4.33,33.79-3.73,10.62-11.68,20.43-22.51,23.38-1.31,5.1-3.27,10.02-5.79,14.64,47.21-2.16,94.42-4.37,141.66-3.7Z"/>
      <path class="st4" d="M537.59,456.33c.14-.04.28-.09.42-.12.61-2.39,1.08-4.81,1.4-7.27-.61,2.46-1.21,4.93-1.82,7.39Z"/>
      <path class="st4" d="M504.47,392.56c-.63-15.68-2.49-31.46-4.6-47.28-1.95-14.63-4.09-29.3-5.65-43.96-15.71,12.11-32.51,22.43-51.47,27.68-8.08,2.24-16.58,3.5-24.87,2.23-8.51-1.3-16.4-5.19-23.88-9.47-14.54-8.32-28.31-18.48-38.55-31.75-4.57-5.91-8.35-12.35-11.53-19.1.2,13.46.4,26.93.6,40.39.13,8.68.29,17.46,2.46,25.85.06.24.11.48.17.72,3.53,12.91,11.76,23.99,20.44,34.18,12.55,14.73,26.44,28.32,41.41,40.59,13.64,11.18,28.17,21.27,43.44,30.09-15.98-1.97-31.97-3.93-47.95-5.9,10.19,12.35,20.38,24.7,30.57,37.06-24.65-6.53-47.89-18.31-67.73-34.32-17.16-13.84-31.66-30.69-44.96-48.27-3.22-4.25-6.38-8.57-9.39-12.98-3.48,8.94-7.56,17.72-11.61,26.27,4.53-10.11,7.16-21.06,7.74-32.13.08-1.62.13-3.24.12-4.86-.71.62-1.32,1.34-1.85,2.11-1.1,1.61-1.8,3.51-1.97,5.45.09-2.76.18-5.52.27-8.27.32-9.96.65-19.92.97-29.88-2.18,6.17-4.55,12.3-7.15,18.34-9.01,20.97-20.78,40.75-37.25,56.38,1.18-7.72,6.38-14.11,10.75-20.59,10.37-15.41,16.56-32.76,20.48-50.91-2.57-7.94-4.39-16.11-5.81-24.37-5.65.7-36.67,21.48-78.07,29.41-21.56,4.13-38.65,23.71-46.82,44.09-4.41,10.99-17.83,10.2-9.35,26.47,2.88,5.51-11.67,24.2-12.02,30.4-.6,10.6-15.9,17.08-16.26,27.69,4.49-2.28,38.6.16,43.48,1.39,15.75,3.95,32.28,1.61,48.44,0,63.1-6.28,126.7-1.06,190.11-.66,28.14.18,56.28-.6,84.41-1.7,3.09-7.75,5.8-15.63,7.85-23.72,4.73-18.65,5.79-37.57,5.03-56.64Z"/>
      <path class="st8" d="M553.58,124.32c-4.8-15.4-12.63-29.52-20.01-43.86C497.8,10.94,444.37,4.26,432.61,3.88c-7.12-.24-14,5.77-18.98,13.08-.9-1.56-1.96-2.64-3.2-3.01-26.99-8.08-55.39,12.69-75.97,31.93s-32.85,45.81-40.96,72.79c-8.7,28.93-4.52,65.54-5.85,95.72-1.33,30.18-8.17,53.93-4.46,83.91.72,5.78,1.51,11.58,2.5,17.33,1.42,8.26,3.24,16.43,5.81,24.37-3.92,18.15-10.11,35.5-20.48,50.91-4.36,6.48-9.56,12.87-10.75,20.59,16.48-15.62,28.25-35.41,37.25-56.38,2.59-6.04,4.97-12.17,7.15-18.34-.32,9.96-.65,19.92-.97,29.88-.09,2.76-.18,5.52-.27,8.27.18-1.94.87-3.84,1.97-5.45.53-.78,1.14-1.49,1.85-2.11,0,1.62-.04,3.24-.12,4.86-.58,11.06-3.21,22.02-7.74,32.13,4.05-8.55,8.13-17.33,11.61-26.27,3.02,4.41,6.18,8.73,9.39,12.98,13.29,17.58,27.8,34.43,44.96,48.27,19.84,16.01,43.08,27.79,67.73,34.32-10.19-12.35-20.38-24.7-30.57-37.06,15.98,1.97,31.97,3.93,47.95,5.9-15.27-8.82-29.8-18.91-43.44-30.09-14.97-12.27-28.86-25.85-41.41-40.59-8.68-10.19-16.92-21.27-20.44-34.18-.07-.24-.11-.48-.17-.72-2.17-8.4-2.33-17.18-2.46-25.85-.2-13.46-.4-26.93-.6-40.39-1.26-2.67-2.41-5.4-3.49-8.16-2.44-6.25-4.44-12.68-6.11-19.16-2.38-9.2-4.16-18.7-3.32-28.16.61-6.89,2.61-13.62,3.03-20.53.43-7.02-.77-14.02-1.47-21.03-2.27-22.95,6.88-64.71,7.18-65.8,3.28-11.75,29.17-35.59,39.32-39.56,4.29-1.68,8.76-2.66,13.31-3.16,7.66-.85,15.56-.35,23.26.47,1.29.14,2.58.3,3.88.45,14.25,1.71,63.96,25.38,68.27,37.62,4.37,12.39,6.86,25.27,8.14,38.34,1.44,14.69,1.35,29.61.6,44.36-1.42,27.86-5.06,55.66-4.45,83.55.18,8.31.74,16.64,1.53,24.97.19,2.07.4,4.15.62,6.22,1.56,14.66,3.7,29.33,5.65,43.96,2.11,15.82,3.97,31.61,4.6,47.28.76,19.07-.3,37.99-5.03,56.64-2.05,8.09-4.77,15.97-7.85,23.72,5.63-.22,11.26-.46,16.89-.7,2.7-4.04,5.18-8.22,7.4-12.54-.23,4.17-.98,8.3-2.14,12.31,6.83-.3,13.66-.61,20.49-.92,2.52-4.63,4.48-9.54,5.79-14.64-.14.04-.28.09-.42.12.61-2.46,1.21-4.93,1.82-7.39-.31,2.46-.78,4.88-1.4,7.27,10.84-2.94,18.78-12.76,22.51-23.38,3.78-10.76,3.99-22.39,4.33-33.79.46-15.43,1.22-30.94,2.03-46.47,4.06-77.17,9.55-155.01-13.3-228.25Z"/>
    </g>
    <path class="st1" d="M440.09,234.12c1.37,2.19,2.76,4.43,3.46,6.92.7,2.49.62,5.32-.81,7.48-2.49,3.77-7.73,4.1-12.17,4.93-4.28.81-8.36,2.42-12.62,3.32s-8.9,1.04-12.75-.97c-2.46-1.29-4.63-3.44-7.4-3.62-1.1-.07-2.21.19-3.31.04-2.29-.31-4.03-2.4-4.56-4.65s-.06-4.61.62-6.82c.98-3.19,2.39-6.25,4.18-9.06"/>
    <path class="st1" d="M458.44,275.08c-15.39,1.57-30.85,3.14-46.31,2.51-15.46-.63-31.04-3.55-44.85-10.52"/>
    <path class="st1" d="M428.94,214.55c-2.18-9.26-4.36-18.91-2.25-28.18"/>
    <path class="st1" d="M211.66,363.08c8.04,31.11,16.09,62.22,24.13,93.34,2.18,8.43,4.37,16.9,7.69,24.95"/>
    <path class="st1" d="M229.16,461.08c-10.45-20.1-21.39-40.8-39.05-54.98-2.47-1.98-5.37-3.91-8.51-3.58,14.48,16.61,27.93,34.12,47.57,58.55Z"/>
    <path class="st1" d="M597.93,384.26c1.32,12.2,5.7,24.07,5.5,36.34-.29,17.33-10.53,34.14-25.79,42.35,26-9.3,46.2-33.23,51.01-60.42,6.24,7.95,6,19.52,2.04,28.82s-11.06,16.85-18.01,24.18"/>
    <g>
      <path class="st1" d="M493.92,142.19c-1.28-13.07-3.77-25.95-8.14-38.34-4.32-12.25-54.02-35.91-68.27-37.62-1.29-.16-2.58-.31-3.88-.45-7.7-.82-15.6-1.32-23.26-.47-4.56.51-9.02,1.49-13.31,3.16-10.56,4.13-38.16,29.77-39.6,40.93-.07.56-9.16,41.49-6.9,64.44.69,7,1.89,14,1.47,21.03-.42,6.91-2.41,13.64-3.03,20.53-.84,9.46.94,18.97,3.32,28.16,1.67,6.48,3.68,12.91,6.11,19.16,1.08,2.76,2.23,5.49,3.49,8.16,3.18,6.75,6.97,13.19,11.53,19.1,10.24,13.26,24.01,23.43,38.55,31.75,7.47,4.28,15.36,8.17,23.88,9.47,8.29,1.27,16.79,0,24.87-2.23,18.96-5.25,35.75-15.57,51.47-27.68-.22-2.07-.43-4.15-.62-6.22-.78-8.33-1.35-16.66-1.53-24.97-.61-27.89,3.03-55.69,4.45-83.55.75-14.74.84-29.67-.6-44.36Z"/>
      <path class="st1" d="M506.47,472.19c1.75-.08,3.5-.15,5.26-.23,1.16-4.01,1.91-8.14,2.14-12.31-2.22,4.32-4.7,8.51-7.4,12.54Z"/>
      <path class="st1" d="M673.88,467.34c-.25-10.94-8.35-17.01-12.75-27.12-4.42-10.16-5.14-24.35-12.23-32.76-1.71-2.03-8.98-14.89-15.38-17.48-4.65-1.89-11.86-3-13.1-4.48-2.81-3.34-.61-8.16-3.58-11.36-16.19-17.39-20.82-2.01-49.96-21.39-.82,15.53-1.57,31.04-2.03,46.47-.34,11.4-.55,23.03-4.33,33.79-3.73,10.62-11.68,20.43-22.51,23.38-1.31,5.1-3.27,10.02-5.79,14.64,47.21-2.16,94.42-4.37,141.66-3.7Z"/>
      <path class="st1" d="M537.59,456.51c.14-.04.28-.09.42-.12.61-2.39,1.08-4.81,1.4-7.27-.61,2.46-1.21,4.93-1.82,7.39Z"/>
      <path class="st1" d="M502.47,392.53c-.63-15.68-2.49-31.46-4.6-47.28-1.95-14.63-4.09-29.3-5.65-43.96-15.71,12.11-32.51,22.43-51.47,27.68-8.08,2.24-16.58,3.5-24.87,2.23-8.51-1.3-16.4-5.19-23.88-9.47-14.54-8.32-28.31-18.48-38.55-31.75-4.57-5.91-8.35-12.35-11.53-19.1.2,13.46.4,26.93.6,40.39.13,8.68.29,17.46,2.46,25.85.06.24.11.48.17.72,3.53,12.91,11.76,23.99,20.44,34.18,12.55,14.73,26.44,28.32,41.41,40.59,13.64,11.18,28.17,21.27,43.44,30.09-15.98-1.97-31.97-3.93-47.95-5.9,10.19,12.35,20.38,24.7,30.57,37.06-24.65-6.53-47.89-18.31-67.73-34.32-17.16-13.84-31.66-30.69-44.96-48.27-3.22-4.25-6.38-8.57-9.39-12.98-3.48,8.94-7.56,17.72-11.61,26.27,4.53-10.11,7.16-21.06,7.74-32.13.08-1.62.13-3.24.12-4.86-.71.62-1.32,1.34-1.85,2.11-1.1,1.61-1.8,3.51-1.97,5.45.09-2.76.18-5.52.27-8.27.32-9.96.65-19.92.97-29.88-2.18,6.17-4.55,12.3-7.15,18.34-9.01,20.97-20.78,40.75-37.25,56.38,1.18-7.72,6.38-14.11,10.75-20.59,10.37-15.41,16.56-32.76,20.48-50.91-2.57-7.94-4.39-16.11-5.81-24.37-5.65.7-36.67,21.48-78.07,29.41-21.56,4.13-38.65,23.71-46.82,44.09-4.41,10.99-17.83,10.2-9.35,26.47,2.88,5.51-11.67,24.2-12.02,30.4-.6,10.6-15.9,17.08-16.26,27.69,4.49-2.28,38.6.16,43.48,1.39,15.75,3.95,32.28,1.61,48.44,0,63.1-6.28,126.7-1.06,190.11-.66,28.14.18,56.28-.6,84.41-1.7,3.09-7.75,5.8-15.63,7.85-23.72,4.73-18.65,5.79-37.57,5.03-56.64Z"/>
      <path class="st1" d="M553.58,124.5c-4.8-15.4-12.63-29.52-20.01-43.86C497.8,11.13,444.37,4.45,432.61,4.06c-7.12-.24-14,5.77-18.98,13.08-.9-1.56-1.96-2.64-3.2-3.01-26.99-8.08-55.39,12.69-75.97,31.93s-32.85,45.81-40.96,72.79c-8.7,28.93-4.52,65.54-5.85,95.72-1.33,30.18-8.17,53.93-4.46,83.91.72,5.78,1.51,11.58,2.5,17.33,1.42,8.26,3.24,16.43,5.81,24.37-3.92,18.15-10.11,35.5-20.48,50.91-4.36,6.48-9.56,12.87-10.75,20.59,16.48-15.62,28.25-35.41,37.25-56.38,2.59-6.04,4.97-12.17,7.15-18.34-.32,9.96-.65,19.92-.97,29.88-.09,2.76-.18,5.52-.27,8.27.18-1.94.87-3.84,1.97-5.45.53-.78,1.14-1.49,1.85-2.11,0,1.62-.04,3.24-.12,4.86-.58,11.06-3.21,22.02-7.74,32.13,4.05-8.55,8.13-17.33,11.61-26.27,3.02,4.41,6.18,8.73,9.39,12.98,13.29,17.58,27.8,34.43,44.96,48.27,19.84,16.01,43.08,27.79,67.73,34.32-10.19-12.35-20.38-24.7-30.57-37.06,15.98,1.97,31.97,3.93,47.95,5.9-15.27-8.82-29.8-18.91-43.44-30.09-14.97-12.27-28.86-25.85-41.41-40.59-8.68-10.19-16.92-21.27-20.44-34.18-.07-.24-.11-.48-.17-.72-2.17-8.4-2.33-17.18-2.46-25.85-.2-13.46-.4-26.93-.6-40.39-1.26-2.67-2.41-5.4-3.49-8.16-2.44-6.25-4.44-12.68-6.11-19.16-2.38-9.2-4.16-18.7-3.32-28.16.61-6.89,2.61-13.62,3.03-20.53.43-7.02-.77-14.02-1.47-21.03-2.27-22.95,6.88-64.71,7.18-65.8,3.28-11.75,29.17-35.59,39.32-39.56,4.29-1.68,8.76-2.66,13.31-3.16,7.66-.85,15.56-.35,23.26.47,1.29.14,2.58.3,3.88.45,14.25,1.71,63.96,25.38,68.27,37.62,4.37,12.39,6.86,25.27,8.14,38.34,1.44,14.69,1.35,29.61.6,44.36-1.42,27.86-5.06,55.66-4.45,83.55.18,8.31.74,16.64,1.53,24.97.19,2.07.4,4.15.62,6.22,1.56,14.66,3.7,29.33,5.65,43.96,2.11,15.82,3.97,31.61,4.6,47.28.76,19.07-.3,37.99-5.03,56.64-2.05,8.09-4.77,15.97-7.85,23.72,5.63-.22,11.26-.46,16.89-.7,2.7-4.04,5.18-8.22,7.4-12.54-.23,4.17-.98,8.3-2.14,12.31,6.83-.3,13.66-.61,20.49-.92,2.52-4.63,4.48-9.54,5.79-14.64-.14.04-.28.09-.42.12.61-2.46,1.21-4.93,1.82-7.39-.31,2.46-.78,4.88-1.4,7.27,10.84-2.94,18.78-12.76,22.51-23.38,3.78-10.76,3.99-22.39,4.33-33.79.46-15.43,1.22-30.94,2.03-46.47,4.06-77.17,9.55-155.01-13.3-228.25Z"/>
    </g>
    <path class="st1" d="M371.58,378.83s45.47,60.62,131.12,5.43"/>
    <circle class="st2" cx="373.17" cy="183.09" r="6.99"/>
    <circle class="st2" cx="465.47" cy="182.33" r="6.99"/>
    <path class="st1" d="M404.98,59.87s-76.87-15.09-86.2,44.54-11.49,176.72-5.85,209.76"/>
    <path class="st1" d="M502.69,255.69s-.55-137.46-7.64-162.02c-9.03-31.28-9.4-43.82-57.92-42.91"/>
  </g>
</svg>