<?xml version="1.0" encoding="UTF-8"?>
<svg id="Layer_1" xmlns="http://www.w3.org/2000/svg" xmlns:xlink="http://www.w3.org/1999/xlink" version="1.1" viewBox="0 0 841.89 467.72">
  <!-- Generator: Adobe Illustrator 29.0.0, SVG Export Plug-In . SVG Version: 2.1.0 Build 186)  -->
  <defs>
    <style>
      .st0, .st1, .st2 {
        fill: none;
      }

      .st3 {
        fill: #deece2;
      }

      .st4 {
        fill: #55565a;
      }

      .st4, .st1, .st2 {
        stroke-miterlimit: 10;
      }

      .st4, .st2 {
        stroke: #55565a;
      }

      .st5 {
        fill: #1b5492;
      }

      .st6 {
        fill: #a58563;
      }

      .st7 {
        fill: #fdd9cc;
      }

      .st8 {
        fill: #fff;
      }

      .st9 {
        fill: #ccb680;
      }

      .st1 {
        stroke: #0057a7;
        stroke-width: 1.07px;
      }

      .st10 {
        clip-path: url(#clippath);
      }
    </style>
    <clipPath id="clippath">
      <rect class="st0" width="841.89" height="467.72"/>
    </clipPath>
  </defs>
  <g class="st10">
    <rect class="st3" width="841.89" height="467.72"/>
    <g>
      <path class="st8" d="M423.21,25.37c.43-.83.85-1.93,1.29-2.76-.61,1.12-1.29,2.76-1.29,2.76Z"/>
      <path class="st8" d="M423.21,25.37c-.47,6.05-2.28,29.55-2.1,29.8-.18-.26,2.1-29.8,2.1-29.8Z"/>
      <path class="st8" d="M424.5,22.61c.14-.26.28-.49.41-.67-.14.19-.27.41-.41.67Z"/>
      <path class="st8" d="M516.35,196.36c-.34-2.47-1.47-4.76-2.72-6.93-3.2-5.53-7.28-10.5-10.87-15.79-18.83-27.76-23.83-63.85-45.95-89.07-2.27-2.58-4.85-5.13-8.16-6.06-1.62-.46-3.33-.5-5.01-.64-5.84-.48-11.57-2.15-16.76-4.88-1.26-.66-2.48-1.38-3.7-2.1-2.48-1.46-4.96-2.93-7.44-4.39-1.05.74-2.5.42-3.75.09-10.14-2.68-20.84-3.18-31.18-1.45-2.12.36-4.32.84-5.98,2.21-1.04.85-1.81,1.99-2.55,3.12-10.37,15.85-18.83,32.94-23.94,50.34-.34.24-.58,15.14-1,22.27-.26,4.39-.72,8.75-1.49,13.09-1.26,7.1-3.31,14.04-4.33,21.18-1.67,11.78-.46,23.75.89,36.73,5.67,21.05,12.94,42.67,28.36,58.09,1.16,1.16,2.37,2.28,3.6,3.37,4.44,3.96,9.24,9.08,13.57,13.16.45.42.9.84,1.33,1.27,4.7,4.64,8.86,8.57,14.75,11.56,7.36,3.73,16.14,3.08,24.26,1.63,17.05-3.04,33.91-9.42,46.8-20.99,15.14-13.58,23.41-32.8,30.34-52.12.87-2.41,3.07-8.11,3.34-8.54.21-.36.41-.71.61-1.07,3.34-5.83,5.44-11.7,6.59-17.75.4-2.09.69-4.23.4-6.33Z"/>
      <path class="st8" d="M634.72,398.16c-14.86-14.05-34.42-21.89-53.8-28.45-7.07,14.45-17.7,27.58-32.49,33.52-.6.24-1.34.46-1.86.06-4.83,11.69-10.82,22.9-17.84,33.42-4.43,9.18-11.16,20.67-20.65,29.56-9.49,8.89-21.94,15.03-34.94,15.27-2.65.05-5.86-.54-6.78-3.02-.48-1.3-.15-2.76.28-4.08,3.12-9.58,10.77-16.85,17.31-24.52s12.45-17.21,10.91-27.17c-1.48-9.6-9.53-17.01-11.91-26.43-.16-.62-.49-1.4-1.12-1.34-.29.03-.52.24-.73.44-2.94,2.77-5.9,5.59-8.05,9.01-3.38,5.37-4.49,11.8-5.59,18.05-1.64,9.29-3.41,18.56-5.9,27.66-1.66,6.1-3.68,12.18-6.97,17.58-3.97,6.51-9.55,11.64-15.79,16.07,6,.14,12,.28,18.01.43,54.76,1.3,109.53,2.59,164.24,5.38,17.37.88,35.56,1.77,51.33-5.56-6.51-31.09-14.58-64.03-37.66-85.84Z"/>
      <path class="st8" d="M245.79,471.37c1.49-13.53,3.91-28.73,15.01-36.61,7.34-5.21,17.62-6.41,23-13.63,5.71-7.66,3.28-18.33,2.01-27.81s.48-21.53,9.53-24.6c-7.31,1.71-13.2-5.65-15.76-12.95-.95.55-1.9,1.11-2.82,1.7-12.19,7.82-21.86,18.99-30.56,30.57-20.48,27.26-36.63,57.77-47.67,90.02l48.09,1.14c-.38-.74-.68-1.52-.85-2.34-.39-1.8-.19-3.67.01-5.51Z"/>
      <path class="st8" d="M587.09,340.47c-1.62-6.44-6.12-12.05-6.74-18.66-.36-3.81.61-7.59,1.3-11.35,2.35-12.79,1.48-26.14-2.42-38.54,0,0-27.86-85.25-32.04-121.62-1.47-12.77-.46-22.24-3.78-34.65-2.96-11.03-8-21.38-13.17-31.56-8.88-17.48-18.7-35.3-34.41-47.03-8.06-6.02-17.34-10.17-26.58-14.17-10.41-4.52-21.63-9.03-32.8-6.97-4.26.79-8.46,2.69-11.38,5.82-.06.06-.11.14-.17.22-.13.18-.26.41-.41.67-.43.83-.86,1.93-1.29,2.76,0,0-2.28,29.55-2.1,29.8-.58,1.34-1.17,2.68-1.75,4.02-.8,1.84-1.6,3.68-2.4,5.51-.28.64-.58,1.31-1.14,1.74-.03.02-.06.03-.09.05,2.48,1.46,4.96,2.93,7.44,4.39,1.22.72,2.45,1.44,3.7,2.1,5.18,2.73,10.92,4.4,16.76,4.88,1.68.14,3.39.18,5.01.64,3.31.94,5.89,3.48,8.16,6.06,22.11,25.21,27.12,61.31,45.95,89.07,3.59,5.29,7.67,10.26,10.87,15.79,1.25,2.16,2.38,4.45,2.72,6.93.29,2.1,0,4.25-.4,6.33-1.16,6.05-3.25,11.92-6.59,17.75-.03.66-.06,1.32-.1,1.98-1.61,24.57-9.46,48.49-11.47,73.08-.73,8.96-.7,18.08-3.1,26.75-2.33,8.42-6.85,16.05-11.41,23.5-1.51,2.47-3.04,4.93-4.62,7.36-3.42,5.25-7.09,10.33-11.42,14.84-7.52,7.81-17.19,14.2-21.33,24.21-.91,2.21-4.2,7.12-4.72,7.42-.71,2.6-1.29,5.25-1.77,7.9-.84,4.65-1.43,9.43-.61,14.09.77,4.39,2.76,8.48,3.66,12.84,1.37,6.61.18,13.49-1.59,20.01-2.76,10.21-6.95,20.02-12.38,29.1,3.44.08,6.87.16,10.31.24,6.24-4.42,11.82-9.56,15.79-16.07,3.29-5.4,5.31-11.47,6.97-17.58,2.48-9.1,4.25-18.37,5.9-27.66,1.1-6.24,2.22-12.68,5.59-18.05,2.15-3.42,5.12-6.23,8.05-9.01.21-.2.44-.41.73-.44.63-.06.97.72,1.12,1.34,2.38,9.42,10.43,16.83,11.91,26.43,1.54,9.96-4.37,19.5-10.91,27.17s-14.19,14.93-17.31,24.52c-.43,1.32-.76,2.78-.28,4.08.92,2.48,4.14,3.06,6.78,3.02,13-.24,25.46-6.38,34.94-15.27,9.49-8.89,16.22-20.38,20.65-29.56,7.02-10.52,13-21.73,17.84-33.42.51.4,1.26.18,1.86-.06,14.79-5.94,25.42-19.06,32.49-33.52.92-1.88,1.78-3.78,2.58-5.69,3.12-7.46,5.56-15.71,3.59-23.55Z"/>
      <path class="st8" d="M442.45,434.41c-.9-4.36-2.89-8.45-3.66-12.84-.82-4.66-.24-9.44.61-14.09.48-2.65,1.06-5.29,1.77-7.9-3.03,1.78-7.18,1.34-10.8.71-13.16-2.28-26.27-4.88-39.31-7.78-.27-.06-.54-.13-.82-.2,1.22,6.2,1.62,12.33-.26,18.37-3.84,12.35-16,19.89-27.37,26.06,9.29-7,18.16-15.49,21.83-26.52s.54-25.04-9.64-30.67c-5.16,30.37-13.64,62.5-36.99,82.6-8.98,7.73-19.56,13.12-30.17,18.51,40.27.95,80.55,1.91,120.82,2.86,5.43-9.07,9.62-18.89,12.38-29.1,1.76-6.52,2.95-13.4,1.59-20.01Z"/>
      <path class="st8" d="M403.23,20.62c-3.13,1.37-5.94,3.37-8.71,5.37-10.92,7.9-21.57,16.15-31.94,24.75-6.75,7.47-12.28,14.85-17.66,22.34-5.16,7.17-10.22,14.52-13.51,22.71-2.63,6.56-4.06,13.53-5.93,20.34-3.26,11.9-7.94,23.96-6.24,36.18.34,2.41.92,4.82.75,7.26-.16,2.29-.99,4.47-1.52,6.7-1.12,4.73-.91,9.77.61,14.38,1.79,5.43,5.39,10.94,3.68,16.4-1.08,34.3-17.69,68.75-36.09,100.7-2.84,4.92-5.74,9.86-7.57,15.24-2.1,6.19-2.71,12.8-2.72,19.33-.01,7.33.71,14.69,2.68,21.74.16.57.34,1.14.54,1.71,2.55,7.3,8.45,14.65,15.76,12.95-9.05,3.07-10.81,15.13-9.53,24.6s3.71,20.14-2.01,27.81c-5.38,7.22-15.66,8.42-23,13.63-11.11,7.88-13.53,23.08-15.01,36.61-.2,1.83-.4,3.7-.01,5.51.18.82.47,1.6.85,2.34l31.91.76s.05,0,.07,0l20.14.48h.29c2.87.07,5.75.14,8.62.21,10.61-5.39,21.19-10.78,30.17-18.51,23.35-20.09,31.82-52.23,36.99-82.6,10.18,5.63,13.31,19.64,9.64,30.67s-12.55,19.52-21.83,26.52c11.37-6.17,23.52-13.71,27.37-26.06,1.88-6.04,1.47-12.17.26-18.37.06-1.53-3.84-11.98-5.98-15.01-3.4-4.81-9.2-7.93-11.26-13.45-1.86-4.98-.11-10.59,2.38-15.29,2.49-4.7,5.74-9.08,7.15-14.21.06-.21.09-.41.14-.62,1.3-5.33.6-10.95-.22-16.39-2.12-14.04-4.82-27.99-8.08-41.81-1.23-1.1-2.43-2.21-3.6-3.37-15.42-15.42-22.68-37.03-28.36-58.09-1.35-12.98-2.56-24.96-.89-36.73,1.01-7.14,3.07-14.08,4.33-21.18.77-4.33,1.23-8.7,1.49-13.09.42-7.14.66-22.04,1-22.27,5.1-17.4,13.57-34.49,23.94-50.34.74-1.13,1.5-2.27,2.55-3.12,1.67-1.36,3.86-1.85,5.98-2.21,10.34-1.73,21.05-1.23,31.18,1.45,1.25.33,2.71.65,3.75-.09.03-.02.06-.03.09-.05.55-.43.86-1.1,1.14-1.74.8-1.84,1.6-3.68,2.4-5.51.58-1.34,1.17-2.68,1.75-4.02-.18-.26,1.63-23.75,2.1-29.8,0,0,.68-1.64,1.29-2.76.13-.26.27-.48.41-.67.06-.08.11-.16.17-.22-6.69-3.47-14.91-4.14-21.84-1.1Z"/>
      <path class="st8" d="M508.74,221.51c-.26.44-2.47,6.13-3.34,8.54-6.93,19.32-15.2,38.54-30.34,52.12-12.89,11.57-29.75,17.95-46.8,20.99-8.12,1.45-16.9,2.1-24.26-1.63-5.89-2.99-10.05-6.91-14.75-11.56-.44-.43-.89-.85-1.33-1.27-4.33-4.08-9.13-9.19-13.57-13.16,3.26,13.82,5.96,27.77,8.08,41.81.82,5.44,1.52,11.06.22,16.39-.05.21-.08.41-.14.62-1.41,5.13-4.67,9.51-7.15,14.21-2.49,4.7-4.24,10.31-2.38,15.29,2.06,5.52,7.87,8.64,11.26,13.45,2.14,3.03,5.98,13.46,5.98,15.01,0,.28.55.14.82.2,13.04,2.91,26.15,5.5,39.31,7.78,3.62.63,7.77,1.07,10.8-.71.52-.3,3.8-5.22,4.72-7.42,4.15-10.02,13.82-16.4,21.33-24.21,4.34-4.51,8.01-9.59,11.42-14.84,1.58-2.43,3.11-4.89,4.62-7.36,4.56-7.45,9.08-15.08,11.41-23.5,2.4-8.67,2.37-17.79,3.1-26.75,2.01-24.59,9.86-48.51,11.47-73.08.04-.66.06-1.32.1-1.98-.2.36-.4.71-.61,1.07Z"/>
    </g>
    <g>
      <path class="st7" d="M520.21,199.05c-.34-2.47-1.47-4.76-2.72-6.93-3.2-5.53-7.28-10.5-10.87-15.79-18.83-27.76-23.83-63.85-45.95-89.07-2.27-2.58-4.85-5.13-8.16-6.06-1.62-.46-3.33-.5-5.01-.64-5.84-.48-11.57-2.15-16.76-4.88-1.26-.66-2.48-1.38-3.7-2.1-2.48-1.46-4.96-2.93-7.44-4.39-1.05.74-2.5.42-3.75.09-10.14-2.68-20.84-3.18-31.18-1.45-2.12.36-4.32.84-5.98,2.21-1.04.85-1.81,1.99-2.55,3.12-10.37,15.85-18.83,32.94-23.94,50.34-.34.24-.58,15.14-1,22.27-.26,4.39-.72,8.75-1.49,13.09-1.26,7.1-3.31,14.04-4.33,21.18-1.67,11.78-.46,23.75.89,36.73,5.67,21.05,12.94,42.67,28.36,58.09,1.16,1.16,2.37,2.28,3.6,3.37,4.44,3.96,9.24,9.08,13.57,13.16.45.42.9.84,1.33,1.27,4.7,4.64,8.86,8.57,14.75,11.56,7.36,3.73,16.14,3.08,24.26,1.63,17.05-3.04,33.91-9.42,46.8-20.99,15.14-13.58,23.41-32.8,30.34-52.12.87-2.41,3.07-8.11,3.34-8.54.21-.36.41-.71.61-1.07,3.34-5.83,5.44-11.7,6.59-17.75.4-2.09.69-4.23.4-6.33Z"/>
      <path class="st7" d="M512.6,224.19c-.26.44-2.47,6.13-3.34,8.54-6.93,19.32-15.2,38.54-30.34,52.12-12.89,11.57-29.75,17.95-46.8,20.99-8.12,1.45-16.9,2.1-24.26-1.63-5.89-2.99-10.05-6.91-14.75-11.56-.44-.43-.89-.85-1.33-1.27-4.33-4.08-9.13-9.19-13.57-13.16,3.26,13.82,5.96,27.77,8.08,41.81.82,5.44,1.52,11.06.22,16.39-.05.21-.08.41-.14.62-1.41,5.13-4.67,9.51-7.15,14.21-2.49,4.7-4.24,10.31-2.38,15.29,2.06,5.52,7.87,8.64,11.26,13.45,2.14,3.03,5.98,13.46,5.98,15.01,0,.28.55.14.82.2,13.04,2.91,26.15,5.5,39.31,7.78,3.62.63,7.77,1.07,10.8-.71.52-.3,3.8-5.22,4.72-7.42,4.15-10.02,13.82-16.4,21.33-24.21,4.34-4.51,8.01-9.59,11.42-14.84,1.58-2.43,3.11-4.89,4.62-7.36,4.56-7.45,9.08-15.08,11.41-23.5,2.4-8.67,2.37-17.79,3.1-26.75,2.01-24.59,9.86-48.51,11.47-73.08.04-.66.06-1.32.1-1.98-.2.36-.4.71-.61,1.07Z"/>
      <path class="st6" d="M427.07,28.06c.43-.83.85-1.93,1.29-2.76-.61,1.12-1.29,2.76-1.29,2.76Z"/>
      <path class="st6" d="M427.07,28.06c-.47,6.05-2.28,29.55-2.1,29.8-.18-.26,2.1-29.8,2.1-29.8Z"/>
      <path class="st6" d="M428.36,25.3c.14-.26.28-.49.41-.67-.14.19-.27.41-.41.67Z"/>
      <path class="st5" d="M631.41,400.24c-14.86-14.05-34.42-21.89-53.8-28.45-7.07,14.45-17.7,27.58-32.49,33.52-.6.24-1.34.46-1.86.06-4.83,11.69-10.82,22.9-17.84,33.42-4.43,9.18-11.16,20.67-20.65,29.56-9.49,8.89-21.94,15.03-34.94,15.27-2.65.05-5.86-.54-6.78-3.02-.48-1.3-.15-2.76.28-4.08,3.12-9.58,10.77-16.85,17.31-24.52s12.45-17.21,10.91-27.17c-1.48-9.6-9.53-17.01-11.91-26.43-.16-.62-.49-1.4-1.12-1.34-.29.03-.52.24-.73.44-2.94,2.77-5.9,5.59-8.05,9.01-3.38,5.37-4.49,11.8-5.59,18.05-1.64,9.29-3.41,18.56-5.9,27.66-1.66,6.1-3.68,12.18-6.97,17.58-3.97,6.51-9.55,11.64-15.79,16.07,6,.14,12,.28,18.01.43,54.76,1.3,109.53,2.59,164.24,5.38,17.37.88,35.56,1.77,51.33-5.56-6.51-31.09-14.58-64.03-37.66-85.84Z"/>
      <path class="st5" d="M249.65,474.06c1.49-13.53,3.91-28.73,15.01-36.61,7.34-5.21,17.62-6.41,23-13.63,5.71-7.66,3.28-18.33,2.01-27.81s.48-21.53,9.53-24.6c-7.31,1.71-13.2-5.65-15.76-12.95-.95.55-1.9,1.11-2.82,1.7-12.19,7.82-21.86,18.99-30.56,30.57-20.48,27.26-36.63,57.77-47.67,90.02l48.09,1.14c-.38-.74-.68-1.52-.85-2.34-.39-1.8-.19-3.67.01-5.51Z"/>
      <path class="st9" d="M590.95,343.16c-1.62-6.44-6.12-12.05-6.74-18.66-.36-3.81.61-7.59,1.3-11.35,2.35-12.79,1.48-26.14-2.42-38.54,0,0-27.86-85.25-32.04-121.62-1.47-12.77-.46-22.24-3.78-34.65-2.96-11.03-8-21.38-13.17-31.56-8.88-17.48-18.7-35.3-34.41-47.03-8.06-6.02-17.34-10.17-26.58-14.17-10.41-4.52-21.63-9.03-32.8-6.97-4.26.79-8.46,2.69-11.38,5.82-.06.06-.11.14-.17.22-.13.18-.26.41-.41.67-.43.83-.86,1.93-1.29,2.76,0,0-2.28,29.55-2.1,29.8-.58,1.34-1.17,2.68-1.75,4.02-.8,1.84-1.6,3.68-2.4,5.51-.28.64-.58,1.31-1.14,1.74-.03.02-.06.03-.09.05,2.48,1.46,4.96,2.93,7.44,4.39,1.22.72,2.45,1.44,3.7,2.1,5.18,2.73,10.92,4.4,16.76,4.88,1.68.14,3.39.18,5.01.64,3.31.94,5.89,3.48,8.16,6.06,22.11,25.21,27.12,61.31,45.95,89.07,3.59,5.29,7.67,10.26,10.87,15.79,1.25,2.16,2.38,4.45,2.72,6.93.29,2.1,0,4.25-.4,6.33-1.16,6.05-3.25,11.92-6.59,17.75-.03.66-.06,1.32-.1,1.98-1.61,24.57-9.46,48.49-11.47,73.08-.73,8.96-.7,18.08-3.1,26.75-2.33,8.42-6.85,16.05-11.41,23.5-1.51,2.47-3.04,4.93-4.62,7.36-3.42,5.25-7.09,10.33-11.42,14.84-7.52,7.81-17.19,14.2-21.33,24.21-.91,2.21-4.2,7.12-4.72,7.42-.71,2.6-1.29,5.25-1.77,7.9-.84,4.65-1.43,9.43-.61,14.09.77,4.39,2.76,8.48,3.66,12.84,1.37,6.61.18,13.49-1.59,20.01-2.76,10.21-6.95,20.02-12.38,29.1,3.44.08,6.87.16,10.31.24,6.24-4.42,11.82-9.56,15.79-16.07,3.29-5.4,5.31-11.47,6.97-17.58,2.48-9.1,4.25-18.37,5.9-27.66,1.1-6.24,2.22-12.68,5.59-18.05,2.15-3.42,5.12-6.23,8.05-9.01.21-.2.44-.41.73-.44.63-.06.97.72,1.12,1.34,2.38,9.42,10.43,16.83,11.91,26.43,1.54,9.96-4.37,19.5-10.91,27.17s-14.19,14.93-17.31,24.52c-.43,1.32-.76,2.78-.28,4.08.92,2.48,4.14,3.06,6.78,3.02,13-.24,25.46-6.38,34.94-15.27,9.49-8.89,16.22-20.38,20.65-29.56,7.02-10.52,13-21.73,17.84-33.42.51.4,1.26.18,1.86-.06,14.79-5.94,25.42-19.06,32.49-33.52.92-1.88,1.78-3.78,2.58-5.69,3.12-7.46,5.56-15.71,3.59-23.55Z"/>
      <path class="st5" d="M446.31,437.1c-.9-4.36-2.89-8.45-3.66-12.84-.82-4.66-.24-9.44.61-14.09.48-2.65,1.06-5.29,1.77-7.9-3.03,1.78-7.18,1.34-10.8.71-13.16-2.28-26.27-4.88-39.31-7.78-.27-.06-.54-.13-.82-.2,1.22,6.2,1.62,12.33-.26,18.37-3.84,12.35-16,19.89-27.37,26.06,9.29-7,18.16-15.49,21.83-26.52s.54-25.04-9.64-30.67c-5.16,30.37-13.64,62.5-36.99,82.6-8.98,7.73-19.56,13.12-30.17,18.51,40.27.95,80.55,1.91,120.82,2.86,5.43-9.07,9.62-18.89,12.38-29.1,1.76-6.52,2.95-13.4,1.59-20.01Z"/>
      <path class="st9" d="M407.09,23.31c-3.13,1.37-5.94,3.37-8.71,5.37-10.92,7.9-21.57,16.15-31.94,24.75-6.75,7.47-12.28,14.85-17.66,22.34-5.16,7.17-10.22,14.52-13.51,22.71-2.63,6.56-4.06,13.53-5.93,20.34-3.26,11.9-7.94,23.96-6.24,36.18.34,2.41.92,4.82.75,7.26-.16,2.29-.99,4.47-1.52,6.7-1.12,4.73-.91,9.77.61,14.38,1.79,5.43,5.39,10.94,3.68,16.4-1.08,34.3-17.69,68.75-36.09,100.7-2.84,4.92-5.74,9.86-7.57,15.24-2.1,6.19-2.71,12.8-2.72,19.33-.01,7.33.71,14.69,2.68,21.74.16.57.34,1.14.54,1.71,2.55,7.3,8.45,14.65,15.76,12.95-9.05,3.07-10.81,15.13-9.53,24.6s3.71,20.14-2.01,27.81c-5.38,7.22-15.66,8.42-23,13.63-11.11,7.88-13.53,23.08-15.01,36.61-.2,1.83-.4,3.7-.01,5.51.18.82.47,1.6.85,2.34l31.91.76s.05,0,.07,0l20.14.48h.29c2.87.07,5.75.14,8.62.21,10.61-5.39,21.19-10.78,30.17-18.51,23.35-20.09,31.82-52.23,36.99-82.6,10.18,5.63,13.31,19.64,9.64,30.67s-12.55,19.52-21.83,26.52c11.37-6.17,23.52-13.71,27.37-26.06,1.88-6.04,1.47-12.17.26-18.37.06-1.53-3.84-11.98-5.98-15.01-3.4-4.81-9.2-7.93-11.26-13.45-1.86-4.98-.11-10.59,2.38-15.29,2.49-4.7,5.74-9.08,7.15-14.21.06-.21.09-.41.14-.62,1.3-5.33.6-10.95-.22-16.39-2.12-14.04-8.82-27.99-12.08-41.81-1.23-1.1-2.43-2.21-3.6-3.37-15.42-15.42-22.68-37.03-28.36-58.09-1.35-12.98-2.56-24.96-.89-36.73,1.01-7.14,3.07-14.08,4.33-21.18.77-4.33,1.23-8.7,1.49-13.09.42-7.14.66-22.04,1-22.27,5.1-17.4,17.57-34.49,27.94-50.34.74-1.13,1.5-2.27,2.55-3.12,1.67-1.36,3.86-1.85,5.98-2.21,10.34-1.73,21.05-1.23,31.18,1.45,1.25.33,2.71.65,3.75-.09.03-.02.06-.03.09-.05.55-.43.86-1.1,1.14-1.74.8-1.84,1.6-3.68,2.4-5.51.58-1.34,1.17-2.68,1.75-4.02-.18-.26,1.63-23.75,2.1-29.8,0,0,.68-1.64,1.29-2.76.13-.26.27-.48.41-.67.06-.08.11-.16.17-.22-6.69-3.47-14.91-4.14-21.84-1.1Z"/>
    </g>
    <path class="st2" d="M430.57,229.45c2.39-.31,4.95-.69,6.73-2.33,1.04-.96,1.7-2.25,2.26-3.54.41-.93.79-1.91.78-2.92-.01-1.25-.61-2.4-1.2-3.5-.8-1.48-1.64-2.98-2.94-4.04"/>
    <path class="st2" d="M405.68,202.78c5.57-11.27,6.63-17.64,5.86-30.19"/>
    <path class="st2" d="M459.56,246.19c-7.23,3.46-15.38,4.44-23.38,4.95-8.88.56-17.79.6-26.67-.01-5.02-.35-10.05-.91-14.86-2.4-5.4-1.67-10.37-4.45-15.3-7.22"/>
    <g>
      <path class="st0" d="M423.74,26.45c.43-.83.85-1.93,1.29-2.76-.61,1.12-1.29,2.76-1.29,2.76Z"/>
      <path class="st1" d="M423.74,26.45c-.47,6.05-2.28,29.55-2.1,29.8-.18-.26,2.1-29.8,2.1-29.8Z"/>
      <path class="st1" d="M425.03,23.69c.14-.26.28-.49.41-.67-.14.19-.27.41-.41.67Z"/>
      <path class="st2" d="M516.88,197.44c-.34-2.47-1.47-4.76-2.72-6.93-3.2-5.53-7.28-10.5-10.87-15.79-18.83-27.76-23.83-63.85-45.95-89.07-2.27-2.58-4.85-5.13-8.16-6.06-1.62-.46-3.33-.5-5.01-.64-5.84-.48-11.57-2.15-16.76-4.88-1.26-.66-2.48-1.38-3.7-2.1-2.48-1.46-4.96-2.93-7.44-4.39-1.05.74-2.5.42-3.75.09-10.14-2.68-20.84-3.18-31.18-1.45-2.12.36-4.32.84-5.98,2.21-1.04.85-1.81,1.99-2.55,3.12-10.37,15.85-18.83,32.94-23.94,50.34-.34.24-.58,15.14-1,22.27-.26,4.39-.72,8.75-1.49,13.09-1.26,7.1-3.31,14.04-4.33,21.18-1.67,11.78-.46,23.75.89,36.73,5.67,21.05,12.94,42.67,28.36,58.09,1.16,1.16,2.37,2.28,3.6,3.37,4.44,3.96,9.24,9.08,13.57,13.16.45.42.9.84,1.33,1.27,4.7,4.64,8.86,8.57,14.75,11.56,7.36,3.73,16.14,3.08,24.26,1.63,17.05-3.04,33.91-9.42,46.8-20.99,15.14-13.58,23.41-32.8,30.34-52.12.87-2.41,3.07-8.11,3.34-8.54.21-.36.41-.71.61-1.07,3.34-5.83,5.44-11.7,6.59-17.75.4-2.09.69-4.23.4-6.33Z"/>
      <path class="st2" d="M635.24,399.24c-14.86-14.05-34.42-21.89-53.8-28.45-7.07,14.45-17.7,27.58-32.49,33.52-.6.24-1.34.46-1.86.06-4.83,11.69-10.82,22.9-17.84,33.42-4.43,9.18-11.16,20.67-20.65,29.56-9.49,8.89-21.94,15.03-34.94,15.27-2.65.05-5.86-.54-6.78-3.02-.48-1.3-.15-2.76.28-4.08,3.12-9.58,10.77-16.85,17.31-24.52s12.45-17.21,10.91-27.17c-1.48-9.6-9.53-17.01-11.91-26.43-.16-.62-.49-1.4-1.12-1.34-.29.03-.52.24-.73.44-2.94,2.77-5.9,5.59-8.05,9.01-3.38,5.37-4.49,11.8-5.59,18.05-1.64,9.29-3.41,18.56-5.9,27.66-1.66,6.1-3.68,12.18-6.97,17.58-3.97,6.51-9.55,11.64-15.79,16.07,6,.14,12,.28,18.01.43,54.76,1.3,109.53,2.59,164.24,5.38,17.37.88,35.56,1.77,51.33-5.56-6.51-31.09-14.58-64.03-37.66-85.84Z"/>
      <path class="st2" d="M246.32,472.45c1.49-13.53,3.91-28.73,15.01-36.61,7.34-5.21,17.62-6.41,23-13.63,5.71-7.66,3.28-18.33,2.01-27.81s.48-21.53,9.53-24.6c-7.31,1.71-13.2-5.65-15.76-12.95-.95.55-1.9,1.11-2.82,1.7-12.19,7.82-21.86,18.99-30.56,30.57-20.48,27.26-36.63,57.77-47.67,90.02l48.09,1.14c-.38-.74-.68-1.52-.85-2.34-.39-1.8-.19-3.67.01-5.51Z"/>
      <path class="st2" d="M587.62,341.55c-1.62-6.44-6.12-12.05-6.74-18.66-.36-3.81.61-7.59,1.3-11.35,2.35-12.79,1.48-26.14-2.42-38.54,0,0-27.86-85.25-32.04-121.62-1.47-12.77-.46-22.24-3.78-34.65-2.96-11.03-8-21.38-13.17-31.56-8.88-17.48-18.7-35.3-34.41-47.03-8.06-6.02-17.34-10.17-26.58-14.17-10.41-4.52-21.63-9.03-32.8-6.97-4.26.79-8.46,2.69-11.38,5.82-.06.06-.11.14-.17.22-.13.18-.26.41-.41.67-.43.83-.86,1.93-1.29,2.76,0,0-2.28,29.55-2.1,29.8-.58,1.34-1.17,2.68-1.75,4.02-.8,1.84-1.6,3.68-2.4,5.51-.28.64-.58,1.31-1.14,1.74-.03.02-.06.03-.09.05,2.48,1.46,4.96,2.93,7.44,4.39,1.22.72,2.45,1.44,3.7,2.1,5.18,2.73,10.92,4.4,16.76,4.88,1.68.14,3.39.18,5.01.64,3.31.94,5.89,3.48,8.16,6.06,22.11,25.21,27.12,61.31,45.95,89.07,3.59,5.29,7.67,10.26,10.87,15.79,1.25,2.16,2.38,4.45,2.72,6.93.29,2.1,0,4.25-.4,6.33-1.16,6.05-3.25,11.92-6.59,17.75-.03.66-.06,1.32-.1,1.98-1.61,24.57-9.46,48.49-11.47,73.08-.73,8.96-.7,18.08-3.1,26.75-2.33,8.42-6.85,16.05-11.41,23.5-1.51,2.47-3.04,4.93-4.62,7.36-3.42,5.25-7.09,10.33-11.42,14.84-7.52,7.81-17.19,14.2-21.33,24.21-.91,2.21-4.2,7.12-4.72,7.42-.71,2.6-1.29,5.25-1.77,7.9-.84,4.65-1.43,9.43-.61,14.09.77,4.39,2.76,8.48,3.66,12.84,1.37,6.61.18,13.49-1.59,20.01-2.76,10.21-6.95,20.02-12.38,29.1,3.44.08,6.87.16,10.31.24,6.24-4.42,11.82-9.56,15.79-16.07,3.29-5.4,5.31-11.47,6.97-17.58,2.48-9.1,4.25-18.37,5.9-27.66,1.1-6.24,2.22-12.68,5.59-18.05,2.15-3.42,5.12-6.23,8.05-9.01.21-.2.44-.41.73-.44.63-.06.97.72,1.12,1.34,2.38,9.42,10.43,16.83,11.91,26.43,1.54,9.96-4.37,19.5-10.91,27.17s-14.19,14.93-17.31,24.52c-.43,1.32-.76,2.78-.28,4.08.92,2.48,4.14,3.06,6.78,3.02,13-.24,25.46-6.38,34.94-15.27,9.49-8.89,16.22-20.38,20.65-29.56,7.02-10.52,13-21.73,17.84-33.42.51.4,1.26.18,1.86-.06,14.79-5.94,25.42-19.06,32.49-33.52.92-1.88,1.78-3.78,2.58-5.69,3.12-7.46,5.56-15.71,3.59-23.55Z"/>
      <path class="st2" d="M442.98,435.49c-.9-4.36-2.89-8.45-3.66-12.84-.82-4.66-.24-9.44.61-14.09.48-2.65,1.06-5.29,1.77-7.9-3.03,1.78-7.18,1.34-10.8.71-13.16-2.28-26.27-4.88-39.31-7.78-.27-.06-.54-.13-.82-.2,1.22,6.2,1.62,12.33-.26,18.37-3.84,12.35-16,19.89-27.37,26.06,9.29-7,18.16-15.49,21.83-26.52s.54-25.04-9.64-30.67c-5.16,30.37-13.64,62.5-36.99,82.6-8.98,7.73-19.56,13.12-30.17,18.51,40.27.95,80.55,1.91,120.82,2.86,5.43-9.07,9.62-18.89,12.38-29.1,1.76-6.52,2.95-13.4,1.59-20.01Z"/>
      <path class="st2" d="M403.76,21.7c-3.13,1.37-5.94,3.37-8.71,5.37-10.92,7.9-21.57,16.15-31.94,24.75-6.75,7.47-12.28,14.85-17.66,22.34-5.16,7.17-10.22,14.52-13.51,22.71-2.63,6.56-4.06,13.53-5.93,20.34-3.26,11.9-7.94,23.96-6.24,36.18.34,2.41.92,4.82.75,7.26-.16,2.29-.99,4.47-1.52,6.7-1.12,4.73-.91,9.77.61,14.38,1.79,5.43,5.39,10.94,3.68,16.4-1.08,34.3-17.69,68.75-36.09,100.7-2.84,4.92-5.74,9.86-7.57,15.24-2.1,6.19-2.71,12.8-2.72,19.33-.01,7.33.71,14.69,2.68,21.74.16.57.34,1.14.54,1.71,2.55,7.3,8.45,14.65,15.76,12.95-9.05,3.07-10.81,15.13-9.53,24.6s3.71,20.14-2.01,27.81c-5.38,7.22-15.66,8.42-23,13.63-11.11,7.88-13.53,23.08-15.01,36.61-.2,1.83-.4,3.7-.01,5.51.18.82.47,1.6.85,2.34l31.91.76s.05,0,.07,0l20.14.48h.29c2.87.07,5.75.14,8.62.21,10.61-5.39,21.19-10.78,30.17-18.51,23.35-20.09,31.82-52.23,36.99-82.6,10.18,5.63,13.31,19.64,9.64,30.67s-12.55,19.52-21.83,26.52c11.37-6.17,23.52-13.71,27.37-26.06,1.88-6.04,1.47-12.17.26-18.37.06-1.53-3.84-11.98-5.98-15.01-3.4-4.81-9.2-7.93-11.26-13.45-1.86-4.98-.11-10.59,2.38-15.29,2.49-4.7,5.74-9.08,7.15-14.21.06-.21.09-.41.14-.62,1.3-5.33.6-10.95-.22-16.39-2.12-14.04-4.82-27.99-8.08-41.81-1.23-1.1-2.43-2.21-3.6-3.37-15.42-15.42-22.68-37.03-28.36-58.09-1.35-12.98-2.56-24.96-.89-36.73,1.01-7.14,3.07-14.08,4.33-21.18.77-4.33,1.23-8.7,1.49-13.09.42-7.14.66-22.04,1-22.27,5.1-17.4,13.57-34.49,23.94-50.34.74-1.13,1.5-2.27,2.55-3.12,1.67-1.36,3.86-1.85,5.98-2.21,10.34-1.73,21.05-1.23,31.18,1.45,1.25.33,2.71.65,3.75-.09.03-.02.06-.03.09-.05.55-.43.86-1.1,1.14-1.74.8-1.84,1.6-3.68,2.4-5.51.58-1.34,1.17-2.68,1.75-4.02-.18-.26,1.63-23.75,2.1-29.8,0,0,.68-1.64,1.29-2.76.13-.26.27-.48.41-.67.06-.08.11-.16.17-.22-6.69-3.47-14.91-4.14-21.84-1.1Z"/>
      <path class="st2" d="M509.27,222.59c-.26.44-2.47,6.13-3.34,8.54-6.93,19.32-15.2,38.54-30.34,52.12-12.89,11.57-29.75,17.95-46.8,20.99-8.12,1.45-16.9,2.1-24.26-1.63-5.89-2.99-10.05-6.91-14.75-11.56-.44-.43-.89-.85-1.33-1.27-4.33-4.08-9.13-9.19-13.57-13.16,3.26,13.82,5.96,27.77,8.08,41.81.82,5.44,1.52,11.06.22,16.39-.05.21-.08.41-.14.62-1.41,5.13-4.67,9.51-7.15,14.21-2.49,4.7-4.24,10.31-2.38,15.29,2.06,5.52,7.87,8.64,11.26,13.45,2.14,3.03,5.98,13.46,5.98,15.01,0,.28.55.14.82.2,13.04,2.91,26.15,5.5,39.31,7.78,3.62.63,7.77,1.07,10.8-.71.52-.3,3.8-5.22,4.72-7.42,4.15-10.02,13.82-16.4,21.33-24.21,4.34-4.51,8.01-9.59,11.42-14.84,1.58-2.43,3.11-4.89,4.62-7.36,4.56-7.45,9.08-15.08,11.41-23.5,2.4-8.67,2.37-17.79,3.1-26.75,2.01-24.59,9.86-48.51,11.47-73.08.04-.66.06-1.32.1-1.98-.2.36-.4.71-.61,1.07Z"/>
    </g>
    <path class="st2" d="M392.78,217.22c.7-1.6,1.48-3.15,2.34-4.67-.86,1.52-1.64,3.08-2.34,4.67-.19.43-.37.87-.38,1.34,0,.5.2.98.43,1.43.66,1.29,1.54,2.48,2.59,3.48-1.05-1.01-1.93-2.19-2.59-3.48-.23-.45-.43-.92-.43-1.43,0-.47.19-.91.38-1.34Z"/>
    <path class="st2" d="M348.86,121.89s-27.63,37.57-25.81,68.99"/>
    <path class="st2" d="M409.66,59.17s-14.05-15.37-30.3-11.35-28.74,49.2-35.17,60.56-21.22,41.25-21.22,41.25"/>
    <path class="st2" d="M514.16,190.52s24.18,32.11,35.53,41.61c9.45,7.91-10.98,51.09,1.51,60.93"/>
    <path class="st2" d="M514.16,243.86s-8.75,42.77,12.07,59.42,60.18,33.31,45.04,62.83"/>
    <path class="st2" d="M483.47,397.39s48.43-29.01,52.22-66.86"/>
    <path class="st2" d="M547.1,404.36s4.86-16.41-16.71-33.58"/>
    <path class="st2" d="M368.78,276.41s5.34,68.03-37.09,87.55c-21.95,10.1-29.52,21.07-26.11,60.06"/>
    <path class="st2" d="M423.52,226.29s4.87-2.59,9.08,1.14"/>
    <path class="st2" d="M404.22,227.44s-1.62-5.03-7.14-4.87"/>
    <circle class="st4" cx="382.76" cy="167.23" r="5.89"/>
    <circle class="st4" cx="462.84" cy="170.19" r="5.89"/>
    <path class="st2" d="M548.77,206.17s-43.16-41.99-55.99-122.47"/>
    <path class="st2" d="M552.28,198.99c-.19-1.11-28.55-70.35-33.71-96.87s-37.84-76.61-89.46-72.19"/>
  </g>
</svg>