<?xml version="1.0" encoding="utf-8"?>
<!-- Generator: Adobe Illustrator 24.0.3, SVG Export Plug-In . SVG Version: 6.00 Build 0)  -->
<svg version="1.1" id="Layer_1" xmlns="http://www.w3.org/2000/svg" xmlns:xlink="http://www.w3.org/1999/xlink" x="0px" y="0px"
	 viewBox="0 0 800 800" style="enable-background:new 0 0 800 800;" xml:space="preserve">
<style type="text/css">
	.st0{clip-path:url(#SVGID_2_);fill:#F6C65D;}
	.st1{clip-path:url(#SVGID_2_);}
	.st2{fill:none;stroke:#55585C;stroke-width:1.7089;stroke-miterlimit:10;}
	.st3{fill:#FFFFFF;}
	.st4{fill:#245486;}
	.st5{fill:#D2956C;}
	.st6{fill:#55585C;}
	.st7{clip-path:url(#SVGID_4_);fill:#E1635D;}
	.st8{clip-path:url(#SVGID_4_);}
	.st9{fill:#806A57;}
	.st10{fill:#F9E3D9;}
	.st11{clip-path:url(#SVGID_4_);fill:#FFFFFF;}
	.st12{clip-path:url(#SVGID_6_);fill:#DDEFFA;}
	.st13{clip-path:url(#SVGID_6_);}
	.st14{fill:#E1635D;}
	.st15{fill:#FAC8AF;}
	.st16{fill:none;}
	.st17{clip-path:url(#SVGID_8_);fill:#488FBA;}
	.st18{clip-path:url(#SVGID_8_);}
	.st19{fill:#B19465;}
	.st20{fill:#FAD4CB;}
	.st21{clip-path:url(#SVGID_10_);fill:#60A675;}
	.st22{clip-path:url(#SVGID_10_);}
	.st23{fill:#E1A27B;}
</style>
<g>
	<defs>
		<rect id="SVGID_1_" x="-819.64" y="0.36" width="799.28" height="799.28"/>
	</defs>
	<clipPath id="SVGID_2_">
		<use xlink:href="#SVGID_1_"  style="overflow:visible;"/>
	</clipPath>
	<g class="st1">
		<g>
			<path class="st3" d="M-295.07,799.64H3.71c-6.57-17.4-14.66-38.12-19.26-47.32c-8.66-17.31-37.1-42.04-102.63-46.99
				c-59.41-4.48-155.4-45.55-172.83-53.19C-283.65,699.93-289.05,758.29-295.07,799.64z"/>
		</g>
		<g>
			<path class="st4" d="M-294.82,799.64H0.21c-5.96-15.6-12.55-32.18-16.53-40.14c-8.66-17.31-37.1-42.04-102.63-46.99
				c-59.41-4.48-155.4-45.55-172.83-53.19C-284.83,704.41-289.25,758.9-294.82,799.64z"/>
		</g>
		<g>
			<path class="st2" d="M3.71,799.64c-6.57-17.4-14.66-38.12-19.26-47.32c-8.66-17.31-37.1-42.04-102.63-46.99
				c-59.41-4.48-155.4-45.55-172.83-53.19c7.37,47.79,1.96,106.14-4.05,147.5"/>
		</g>
	</g>
</g>
<g>
	<defs>
		<rect id="SVGID_3_" x="0.36" y="0.36" width="799.28" height="799.28"/>
	</defs>
	<clipPath id="SVGID_4_">
		<use xlink:href="#SVGID_3_"  style="overflow:visible;"/>
	</clipPath>
	<rect x="0.36" y="0.36" class="st7" width="799.28" height="799.28"/>
	<g class="st8">
		<g>
			<path class="st3" d="M201.92,493.64c0.18-0.14,0.27-0.23,0.27-0.23S202.07,493.11,201.92,493.64z"/>
			<path class="st3" d="M174.72,372.07c-0.01-0.03-0.02-0.06-0.02-0.06L174.72,372.07z"/>
			<path class="st3" d="M174.72,372.07l-0.02-0.06l-0.02,0.14C174.73,372.16,174.73,372.12,174.72,372.07z"/>
			<path class="st3" d="M599.22,491.51c-10.86,16.29-19.91,40.73-41.63,36.2l-6.34-9.96c0,0-10.7,63.56-33.39,90.93
				c25.5,5.52,29.08,39.61,50.92,64.18c8.52,9.59,21.53,19.78,37.35,29.71c6.08-2.94,10.05-7.36,17.91-11.99
				c17.73-10.43,67.78-6.26,63.61-56.31c-4.17-50.05-51.1-12.51-46.93-52.14c0,0,38.58-56.31,34.41-78.21
				c-4.17-21.9-36.5-26.07-41.71-50.05c-2.91-13.37-12.94-51.05-21.26-81.78c-0.7,1.18-1.39,2.36-2.1,3.56
				C610.08,375.66,610.08,475.22,599.22,491.51z"/>
			<path class="st3" d="M604.84,384.04c2.98-3.82,4.94-6.81,5.24-8.38C608.62,378.16,606.85,380.98,604.84,384.04z"/>
			<path class="st3" d="M635.93,276.02c-7.6-14.88-10.44-50.32-19.31-73.43c-8.86-23.1-31.33-53.17-38.93-58.87
				s-29.43-51.91-39.25-58.55c-9.81-6.65-24.73-14.78-54.12-16.77c-18.67-1.27-27.85-15.83-42.41-18.99
				c-14.56-3.16-52.54-16.77-65.83-14.56c-13.29,2.22-26.27,9.18-39.25,21.52c-12.98,12.34-16.14,15.83-29.43,15.19
				c0,0-39.25,7.91-45.89,26.59c-6.65,18.67-9.81,12.98-23.42,21.84c-13.61,8.86-12.03,11.39-22.16,24.69
				c-10.13,13.29-14.56,24.69-23.1,36.4c-8.55,11.71-22.79,59.19-24.05,72.16c-1.27,12.98,0,59.82-1.58,70.58
				c-1.58,10.76-3.16,36.4,2.53,43.04c3.83,4.47,4.76,5.26,4.96,5.29l0.02-0.14c0,0,10.73,13.41,17.44,6.37
				c6.71-7.04,10.73-60.36,10.73-60.36s-3.02-26.16,4.36-33.87c7.38-7.71,32.19-30.18,45.27-57.01c0,0,6.37-12.41,20.46-17.1
				c14.08-4.69,24.82-9.39,36.22-18.44c11.4-9.05,26.16-4.69,29.51-5.7c3.35-1.01,22.13,4.69,26.49-4.02
				c4.36-8.72,6.71-4.69,12.74,3.02c6.04,7.71,9.39,18.78,18.11,16.1c8.72-2.68,15.09-13.75,29.84-10.73
				c13.48,2.76,12.69,14.74,30.84,7.86c4.2-1.59,8.92-1.04,12.67,1.43c4.24,2.8,22.22,16.52,25.57,20.89
				c5.84,7.61,10.22,19.32,15.76,16.77c8.72-4.02,21.13-17.44,30.18,4.36c8.29,19.95,10.73,68.74,9.72,83.5
				c-0.24,3.48-0.49,7.65-0.66,12.17c-0.56,14.63-0.26,33.05,4.35,44.84c6.04,15.43,5.7,50.3,5.7,50.3s31.97-31.87,44.84-48.33
				c2.01-3.07,3.78-5.89,5.24-8.38c0.71-1.21,1.4-2.38,2.1-3.56c15.87-26.94,29.09-47.92,28.23-73.86
				C639.5,271.16,643.52,290.9,635.93,276.02z"/>
			<path class="st3" d="M149.19,799.64c11.72-32.06,32.41-83.24,52.67-106.76c-1.14,0.64-2.15,1.15-2.98,1.49
				c-11.92,4.77-125.37,33.84-146.34,45.76c-13.75,7.81-24.83,38.97-30.84,59.51H149.19z"/>
			<path class="st3" d="M604.84,384.04C591.97,400.51,560,432.37,560,432.37s0.34-34.88-5.7-50.3c-4.61-11.79-4.91-30.21-4.35-44.84
				c0.17-4.52,0.43-8.69,0.66-12.17c1.01-14.75-1.44-63.55-9.72-83.5c-9.05-21.8-21.46-8.38-30.18-4.36
				c-5.54,2.56-9.92-9.16-15.76-16.77c-3.35-4.36-21.33-18.09-25.57-20.89c-3.75-2.48-8.47-3.02-12.67-1.43
				c-18.16,6.88-17.37-5.1-30.84-7.86c-14.75-3.02-21.13,8.05-29.84,10.73c-8.72,2.68-12.07-8.38-18.11-16.1
				c-6.04-7.71-8.38-11.74-12.74-3.02c-4.36,8.72-23.14,3.02-26.49,4.02c-3.35,1.01-18.11-3.35-29.51,5.7
				c-11.4,9.05-22.13,13.75-36.22,18.44c-14.08,4.69-20.46,17.1-20.46,17.1c-13.08,26.83-37.89,49.29-45.27,57.01
				c-7.38,7.71-4.36,33.87-4.36,33.87s-4.02,53.32-10.73,60.36c-6.71,7.04-17.44-6.37-17.44-6.37s0.01,0.03,0.02,0.06
				c0.01,0.04,0.01,0.09-0.04,0.08l-1.65,10.26l-0.34,36.55c0,0,6.37,61.03,14.42,71.09c7.13,8.91,13.46,4.67,14.82,3.58
				c0.15-0.53,0.27-0.23,0.27-0.23s-0.1,0.09-0.27,0.23c-0.35,1.23-0.87,6.96-0.4,31.63c0.67,35.21,13.23,47.46,16.43,56
				c1.98,5.27,20.03,28.4,39.22,52.32c19.89,24.82,41,50.49,46.63,58c11.07,14.75,13.08,16.43,46.95,21.46
				c33.87,5.03,60.7-13.75,69.75-21.46c6.76-5.76,43.09-33.41,71.1-57.8c6.09-5.3,11.79-10.45,16.7-15.18
				c1.58-1.52,3.07-2.99,4.47-4.42c1.03-1.05,2.03-2.08,2.96-3.07c0.72-0.77,1.43-1.58,2.12-2.42
				c22.69-27.37,33.39-90.93,33.39-90.93l6.34,9.96c21.72,4.53,30.77-19.91,41.63-36.2c10.86-16.29,10.86-115.85,10.86-115.85
				C609.79,377.24,607.83,380.23,604.84,384.04z"/>
			<path class="st3" d="M149.19,799.64h72.24c7.03-36.96,25.88-109.8,32.82-119.71c8.86-12.66,4.64-34.17,4.64-34.17
				s-0.27,0.15-0.71,0.41c-2.45,1.44-9.18,12.64-20.53,19.71c-15.8,9.84-37.22,25.38-34.02,25.02c-0.59,0.64-1.18,1.3-1.77,1.99
				C181.6,716.4,160.91,767.58,149.19,799.64z"/>
			<path class="st3" d="M507.86,660.74c-7.08,34.9-24.28,109.06-41.64,138.91h84.94c10.98-25.62,27.78-72.28,36.28-99.34
				c1.11-3.53,1.78-6.49,2.18-8.94c-8.43-6.26-15.51-12.49-20.84-18.49c-21.84-24.57-25.42-58.66-50.92-64.18
				c-0.7,0.84-1.4,1.65-2.12,2.42c-0.93,0.99-1.93,2.02-2.96,3.07c-1.4,1.43-2.89,2.9-4.47,4.42c1.93,7.43,3.85,17.39,2.8,24.76
				C510.73,645.96,509.6,652.17,507.86,660.74z"/>
			<path class="st3" d="M780.17,799.64c-8.09-16.06-25.58-38.45-62.27-48.57c-39.88-11-81.12-29.26-111.77-48.49
				c-5.93-3.72-11.46-7.48-16.51-11.23c-0.4,2.46-1.07,5.41-2.18,8.94c-8.5,27.06-25.3,73.72-36.28,99.34H780.17z"/>
			<path class="st3" d="M221.43,799.64h57.12c7.79-50.03,0.32-114.34-4.16-144.71c-5.57-6.88-11.44-14.15-17.21-21.35
				c0.28,4.62,0.71,9.39,1,12.58c0.45-0.26,4.93,21.11-3.93,33.76C247.3,689.85,228.45,762.68,221.43,799.64z"/>
			<path class="st3" d="M278.54,799.64h187.68c17.37-29.84,34.57-104,41.64-138.91c1.74-8.56,2.87-14.77,3.24-17.37
				c1.05-7.38-0.87-17.33-2.8-24.76c-4.92,4.74-10.61,9.88-16.7,15.18c-28.01,24.39-64.34,52.04-71.1,57.8
				c-9.05,7.71-35.88,26.49-69.75,21.46c-33.87-5.03-35.88-6.71-46.95-21.46c-4-5.33-15.8-19.82-29.42-36.66
				C278.86,685.3,286.33,749.61,278.54,799.64z"/>
		</g>
		<g>
			<path class="st3" d="M197.93,500.65c0.18-0.14,0.27-0.23,0.27-0.23S198.08,500.12,197.93,500.65z"/>
			<path class="st3" d="M170.73,379.09c-0.01-0.03-0.02-0.06-0.02-0.06L170.73,379.09z"/>
			<path class="st3" d="M170.73,379.09l-0.02-0.06l-0.02,0.14C170.74,379.18,170.74,379.13,170.73,379.09z"/>
			<path class="st9" d="M593.98,492.28c-10.86,16.29-19.91,40.73-41.63,36.2l-6.34-9.96c0,0-10.7,63.56-33.39,90.93
				c25.5,5.52,29.08,39.61,50.92,64.18c8.52,9.59,21.53,19.78,37.35,29.71c6.08-2.94,10.05-7.36,17.91-11.99
				c17.73-10.43,67.78-6.26,63.61-56.31c-4.17-50.05-51.1-12.51-46.93-52.14c0,0,38.58-56.31,34.41-78.21
				c-4.17-21.9-36.5-26.07-41.71-50.05c-2.91-13.37-12.94-51.05-21.26-81.78c-0.7,1.18-1.39,2.36-2.1,3.56
				C604.84,376.43,604.84,475.99,593.98,492.28z"/>
			<path class="st3" d="M600.85,391.06c2.98-3.82,4.94-6.81,5.24-8.38C604.63,385.17,602.86,387.99,600.85,391.06z"/>
			<path class="st9" d="M631.93,283.04c-7.6-14.88-10.44-50.32-19.31-73.43c-8.86-23.1-31.33-53.17-38.93-58.87
				s-29.43-51.91-39.25-58.55c-9.81-6.65-24.73-14.78-54.12-16.77c-18.67-1.27-27.85-15.83-42.41-18.99
				c-14.56-3.16-52.54-16.77-65.83-14.56c-13.29,2.22-26.27,9.18-39.25,21.52c-12.98,12.34-16.14,15.83-29.43,15.19
				c0,0-39.25,7.91-45.89,26.59c-6.65,18.67-9.81,12.98-23.42,21.84c-13.61,8.86-12.03,11.39-22.16,24.69
				c-10.13,13.29-14.56,24.69-23.1,36.4c-8.55,11.71-22.79,59.19-24.05,72.16c-1.27,12.98,0,59.82-1.58,70.58
				c-1.58,10.76-3.16,36.4,2.53,43.04c3.83,4.47,4.76,5.26,4.96,5.29l0.02-0.14c0,0,10.73,13.41,17.44,6.37
				c6.71-7.04,10.73-60.36,10.73-60.36s-3.02-26.16,4.36-33.87s32.19-30.18,45.27-57.01c0,0,6.37-12.41,20.46-17.1
				c14.08-4.69,24.82-9.39,36.22-18.44c11.4-9.05,26.16-4.69,29.51-5.7c3.35-1.01,22.13,4.69,26.49-4.02
				c4.36-8.72,6.71-4.69,12.74,3.02c6.04,7.71,9.39,18.78,18.11,16.1c8.72-2.68,15.09-13.75,29.84-10.73
				c13.48,2.76,12.69,14.74,30.84,7.86c4.2-1.59,8.92-1.04,12.67,1.43c4.24,2.8,22.22,16.52,25.57,20.89
				c5.84,7.61,10.22,19.32,15.76,16.77c8.72-4.02,21.13-17.44,30.18,4.36c8.29,19.95,10.73,68.74,9.72,83.5
				c-0.24,3.48-0.49,7.65-0.66,12.17c-0.56,14.63-0.26,33.05,4.35,44.84c6.04,15.43,5.7,50.3,5.7,50.3s31.97-31.87,44.84-48.33
				c2.01-3.07,3.78-5.89,5.24-8.38c0.71-1.21,1.4-2.38,2.1-3.56c15.87-26.94,29.09-47.92,28.23-73.86
				C635.51,278.17,639.53,297.91,631.93,283.04z"/>
			<path class="st6" d="M147.79,799.64c12.03-32.1,29.21-76.66,48.04-98.53c-1.14,0.64-0.12-0.06-0.95,0.27
				c-11.92,4.77-125.37,33.84-146.34,45.76c-12.26,6.96-22.4,32.48-28.71,52.5H147.79z"/>
			<path class="st6" d="M149.5,799.64h71.03c7.86-38.46,24.91-103.38,31.43-112.7c8.86-12.66,4.64-34.17,4.64-34.17
				s-0.27,0.15-0.71,0.41c-2.45,1.44-9.18,12.64-20.53,19.71c-15.8,9.84-28.71,18.93-34.02,25.02c-0.59,0.64-1.18,1.3-1.77,1.99
				C180.73,721.77,161.52,767.55,149.5,799.64z"/>
			<path class="st6" d="M503.87,667.75c-6.57,32.41-21.88,98.7-37.94,131.89h84.17c10.86-26.45,25.57-67.58,33.34-92.33
				c1.11-3.53,1.78-6.49,2.18-8.94c-8.43-6.26-15.51-12.49-20.84-18.49c-21.84-24.57-25.42-58.66-50.92-64.18
				c-0.7,0.84-1.4,1.65-2.12,2.42c-0.93,0.99-1.93,2.02-2.96,3.07c-1.4,1.43-2.89,2.9-4.47,4.42c1.93,7.43,3.85,17.39,2.8,24.76
				C506.74,652.98,505.61,659.18,503.87,667.75z"/>
			<path class="st6" d="M777.35,799.64c-9.38-15.03-26.73-32.84-58.32-41.55c-39.88-11-81.12-29.26-111.77-48.49
				c-5.93-3.72-11.46-7.48-16.51-11.23c-0.4,2.46-1.07,5.41-2.18,8.94c-7.77,24.75-22.49,65.88-33.34,92.33H777.35z"/>
			<path class="st6" d="M218.82,799.64h56.72c6.12-48.88-0.88-108.73-5.15-137.7c-5.57-6.88-7.47-8.96-13.24-16.15
				c-2.03,2.21-3.68,4.79-3.68,4.79s5.64,23.71-3.22,36.36C243.72,696.26,226.68,761.19,218.82,799.64z"/>
			<path class="st10" d="M275.54,799.64h190.4c16.06-33.19,31.36-99.48,37.94-131.89c1.74-8.56,2.87-14.77,3.24-17.37
				c1.05-7.38-0.87-17.33-2.8-24.76c-4.92,4.74-10.61,9.88-16.7,15.18c-28.01,24.39-64.34,52.04-71.1,57.8
				c-9.05,7.71-35.88,26.49-69.75,21.46c-33.87-5.03-35.88-6.71-46.95-21.46c-4-5.33-15.8-19.82-29.42-36.66
				C274.66,690.91,281.66,750.76,275.54,799.64z"/>
			<path class="st10" d="M604.26,382.51c-12.87,16.46-44.84,48.33-44.84,48.33s0.34-34.88-5.7-50.3
				c-4.61-11.79-4.91-30.21-4.35-44.84c0.17-4.52,0.43-8.69,0.66-12.17c1.01-14.75-1.44-63.55-9.72-83.5
				c-9.05-21.8-21.46-8.38-30.18-4.36c-5.54,2.56-9.92-9.16-15.76-16.77c-3.35-4.36-21.33-18.09-25.57-20.89
				c-3.75-2.48-8.47-3.02-12.67-1.43c-18.16,6.88-17.37-5.1-30.84-7.86c-14.75-3.02-21.13,8.05-29.84,10.73
				c-8.72,2.68-12.07-8.38-18.11-16.1c-6.04-7.71-8.38-11.74-12.74-3.02c-4.36,8.72-23.14,3.02-26.49,4.02
				c-3.35,1.01-18.11-3.35-29.51,5.7c-11.4,9.05-22.13,13.75-36.22,18.44c-14.08,4.69-20.46,17.1-20.46,17.1
				c-13.08,26.83-37.89,49.29-45.27,57.01c-7.38,7.71-4.36,33.87-4.36,33.87s-4.02,53.32-10.73,60.36
				c-6.71,7.04-17.44-6.37-17.44-6.37s0.01,0.03,0.02,0.06c0.01,0.04,0.01,0.09-0.04,0.08l-1.65,10.26l-0.34,36.55
				c0,0,6.37,61.03,14.42,71.09c7.13,8.91,13.46,4.67,14.82,3.58c0.15-0.53,0.27-0.23,0.27-0.23s-0.1,0.09-0.27,0.23
				c-0.35,1.23-0.87,6.96-0.4,31.63c0.67,35.21,13.23,47.46,16.43,56c1.98,5.27,20.03,28.4,39.22,52.32
				c19.89,24.82,41,50.49,46.63,58c11.07,14.75,13.08,16.43,46.95,21.46c33.87,5.03,60.7-13.75,69.75-21.46
				c6.76-5.76,43.09-33.41,71.1-57.8c6.09-5.3,11.79-10.45,16.7-15.18c1.58-1.52,3.07-2.99,4.47-4.42c1.03-1.05,2.03-2.08,2.96-3.07
				c0.72-0.77,1.43-1.58,2.12-2.42c22.69-27.37,33.39-90.93,33.39-90.93l6.34,9.96c21.72,4.53,30.77-19.91,41.63-36.2
				c10.86-16.29,10.86-115.85,10.86-115.85C609.21,375.71,607.25,378.7,604.26,382.51z"/>
		</g>
		<circle class="st6" cx="300.07" cy="395.29" r="8.68"/>
		<circle class="st6" cx="451.16" cy="404.61" r="8.68"/>
		<g>
			<path class="st2" d="M201.92,493.64c0.18-0.14,0.27-0.23,0.27-0.23S202.07,493.11,201.92,493.64z"/>
			<path class="st2" d="M174.72,372.07c-0.01-0.03-0.02-0.06-0.02-0.06L174.72,372.07z"/>
			<path class="st2" d="M174.72,372.07l-0.02-0.06l-0.02,0.14C174.73,372.16,174.73,372.12,174.72,372.07z"/>
			<path class="st2" d="M599.22,491.51c-10.86,16.29-19.91,40.73-41.63,36.2l-6.34-9.96c0,0-10.7,63.56-33.39,90.93
				c25.5,5.52,29.08,39.61,50.92,64.18c8.52,9.59,21.53,19.78,37.35,29.71c6.08-2.94,10.05-7.36,17.91-11.99
				c17.73-10.43,67.78-6.26,63.61-56.31c-4.17-50.05-51.1-12.51-46.93-52.14c0,0,38.58-56.31,34.41-78.21
				c-4.17-21.9-36.5-26.07-41.71-50.05c-2.91-13.37-12.94-51.05-21.26-81.78c-0.7,1.18-1.39,2.36-2.1,3.56
				C610.08,375.66,610.08,475.22,599.22,491.51z"/>
			<path class="st2" d="M604.84,384.04c2.98-3.82,4.94-6.81,5.24-8.38C608.62,378.16,606.85,380.98,604.84,384.04z"/>
			<path class="st2" d="M635.93,276.02c-7.6-14.88-10.44-50.32-19.31-73.43c-8.86-23.1-31.33-53.17-38.93-58.87
				s-29.43-51.91-39.25-58.55c-9.81-6.65-24.73-14.78-54.12-16.77c-18.67-1.27-27.85-15.83-42.41-18.99
				c-14.56-3.16-52.54-16.77-65.83-14.56c-13.29,2.22-26.27,9.18-39.25,21.52c-12.98,12.34-16.14,15.83-29.43,15.19
				c0,0-39.25,7.91-45.89,26.59c-6.65,18.67-9.81,12.98-23.42,21.84c-13.61,8.86-12.03,11.39-22.16,24.69
				c-10.13,13.29-14.56,24.69-23.1,36.4c-8.55,11.71-22.79,59.19-24.05,72.16c-1.27,12.98,0,59.82-1.58,70.58
				c-1.58,10.76-3.16,36.4,2.53,43.04c3.83,4.47,4.76,5.26,4.96,5.29l0.02-0.14c0,0,10.73,13.41,17.44,6.37
				c6.71-7.04,10.73-60.36,10.73-60.36s-3.02-26.16,4.36-33.87c7.38-7.71,32.19-30.18,45.27-57.01c0,0,6.37-12.41,20.46-17.1
				c14.08-4.69,24.82-9.39,36.22-18.44c11.4-9.05,26.16-4.69,29.51-5.7c3.35-1.01,22.13,4.69,26.49-4.02
				c4.36-8.72,6.71-4.69,12.74,3.02c6.04,7.71,9.39,18.78,18.11,16.1c8.72-2.68,15.09-13.75,29.84-10.73
				c13.48,2.76,12.69,14.74,30.84,7.86c4.2-1.59,8.92-1.04,12.67,1.43c4.24,2.8,22.22,16.52,25.57,20.89
				c5.84,7.61,10.22,19.32,15.76,16.77c8.72-4.02,21.13-17.44,30.18,4.36c8.29,19.95,10.73,68.74,9.72,83.5
				c-0.24,3.48-0.49,7.65-0.66,12.17c-0.56,14.63-0.26,33.05,4.35,44.84c6.04,15.43,5.7,50.3,5.7,50.3s31.97-31.87,44.84-48.33
				c2.01-3.07,3.78-5.89,5.24-8.38c0.71-1.21,1.4-2.38,2.1-3.56c15.87-26.94,29.09-47.92,28.23-73.86
				C639.5,271.16,643.52,290.9,635.93,276.02z"/>
			<path class="st2" d="M149.19,799.64c11.72-32.06,32.41-83.24,52.67-106.76c-1.14,0.64-2.15,1.15-2.98,1.49
				c-11.92,4.77-125.37,33.84-146.34,45.76c-13.75,7.81-24.83,38.97-30.84,59.51H149.19z"/>
			<path class="st2" d="M604.84,384.04C591.97,400.51,560,432.37,560,432.37s0.34-34.88-5.7-50.3c-4.61-11.79-4.91-30.21-4.35-44.84
				c0.17-4.52,0.43-8.69,0.66-12.17c1.01-14.75-1.44-63.55-9.72-83.5c-9.05-21.8-21.46-8.38-30.18-4.36
				c-5.54,2.56-9.92-9.16-15.76-16.77c-3.35-4.36-21.33-18.09-25.57-20.89c-3.75-2.48-8.47-3.02-12.67-1.43
				c-18.16,6.88-17.37-5.1-30.84-7.86c-14.75-3.02-21.13,8.05-29.84,10.73c-8.72,2.68-12.07-8.38-18.11-16.1
				c-6.04-7.71-8.38-11.74-12.74-3.02c-4.36,8.72-23.14,3.02-26.49,4.02c-3.35,1.01-18.11-3.35-29.51,5.7
				c-11.4,9.05-22.13,13.75-36.22,18.44c-14.08,4.69-20.46,17.1-20.46,17.1c-13.08,26.83-37.89,49.29-45.27,57.01
				c-7.38,7.71-4.36,33.87-4.36,33.87s-4.02,53.32-10.73,60.36c-6.71,7.04-17.44-6.37-17.44-6.37s0.01,0.03,0.02,0.06
				c0.01,0.04,0.01,0.09-0.04,0.08l-1.65,10.26l-0.34,36.55c0,0,6.37,61.03,14.42,71.09c7.13,8.91,13.46,4.67,14.82,3.58
				c0.15-0.53,0.27-0.23,0.27-0.23s-0.1,0.09-0.27,0.23c-0.35,1.23-0.87,6.96-0.4,31.63c0.67,35.21,13.23,47.46,16.43,56
				c1.98,5.27,20.03,28.4,39.22,52.32c19.89,24.82,41,50.49,46.63,58c11.07,14.75,13.08,16.43,46.95,21.46
				c33.87,5.03,60.7-13.75,69.75-21.46c6.76-5.76,43.09-33.41,71.1-57.8c6.09-5.3,11.79-10.45,16.7-15.18
				c1.58-1.52,3.07-2.99,4.47-4.42c1.03-1.05,2.03-2.08,2.96-3.07c0.72-0.77,1.43-1.58,2.12-2.42
				c22.69-27.37,33.39-90.93,33.39-90.93l6.34,9.96c21.72,4.53,30.77-19.91,41.63-36.2c10.86-16.29,10.86-115.85,10.86-115.85
				C609.79,377.24,607.83,380.23,604.84,384.04z"/>
			<path class="st2" d="M149.19,799.64h72.24c7.03-36.96,25.88-109.8,32.82-119.71c8.86-12.66,4.64-34.17,4.64-34.17
				s-0.27,0.15-0.71,0.41c-2.45,1.44-9.18,12.64-20.53,19.71c-15.8,9.84-29.98,21.24-34.02,25.02c-0.59,0.64-1.18,1.3-1.77,1.99
				C181.6,716.4,160.91,767.58,149.19,799.64z"/>
			<path class="st2" d="M551.16,799.64c10.98-25.62,27.78-72.28,36.28-99.34c1.11-3.53,1.78-6.49,2.18-8.94
				c-8.43-6.26-15.51-12.49-20.84-18.49c-21.84-24.57-25.42-58.66-50.92-64.18c-0.7,0.84-1.4,1.65-2.12,2.42
				c-0.93,0.99-1.93,2.02-2.96,3.07c-1.4,1.43-2.89,2.9-4.47,4.42c1.93,7.43,3.85,17.39,2.8,24.76c-0.37,2.59-1.5,8.8-3.24,17.37
				c-7.08,34.9-24.28,109.06-41.64,138.91"/>
			<path class="st2" d="M780.17,799.64c-8.09-16.06-25.58-38.45-62.27-48.57c-39.88-11-81.12-29.26-111.77-48.49
				c-5.93-3.72-11.46-7.48-16.51-11.23c-0.4,2.46-1.07,5.41-2.18,8.94c-8.5,27.06-25.3,73.72-36.28,99.34"/>
			<path class="st2" d="M278.54,799.64c7.79-50.03,0.32-114.34-4.16-144.71c-5.57-6.88-11.44-14.15-17.21-21.35
				c0.28,4.62,0.71,9.39,1,12.58c0.45-0.26,4.93,21.11-3.93,33.76c-6.94,9.92-25.79,82.75-32.82,119.71"/>
			<path class="st2" d="M466.22,799.64c17.37-29.84,34.57-104,41.64-138.91c1.74-8.56,2.87-14.77,3.24-17.37
				c1.05-7.38-0.87-17.33-2.8-24.76c-4.92,4.74-10.61,9.88-16.7,15.18c-28.01,24.39-64.34,52.04-71.1,57.8
				c-9.05,7.71-35.88,26.49-69.75,21.46c-33.87-5.03-35.88-6.71-46.95-21.46c-4-5.33-15.8-19.82-29.42-36.66
				c4.48,30.37,11.95,94.68,4.16,144.71"/>
		</g>
		<path class="st2" d="M272.95,210.04c0,0-11.85-44.84-10.48-59.27c1.37-14.43,15.8-58.39,15.8-58.39"/>
		<path class="st2" d="M344.9,187.19c0,0-34.35-7.56-38.47-17.17"/>
		<path class="st2" d="M300.94,174.13c0,0-46.02-50.15,17.86-103.73"/>
		<path class="st2" d="M458.24,57.36c0,0-51.52,27.48-73.5,107.85"/>
		<path class="st2" d="M387.49,199.55c0,0-8.93-39.15-6.87-68.69"/>
		<path class="st2" d="M456.71,198.12c0,0,12.53-17.8,31.07-18.49"/>
		<path class="st2" d="M479.54,96.51c0,0-55.64,39.84-72.81,98.92"/>
		<path class="st2" d="M197.21,360.98c-2.06-0.69-17.12-11.8-28.15-68.03"/>
		<path class="st2" d="M619.41,206.96c0,0-9.29,45.27-22.05,53.47c-15.43,9.92-36.93,17.09-39.14,25.91
			c-2.2,8.82-3.31,12.68-8.27,13.78"/>
		<path class="st2" d="M619.41,287.44c0,0-25.91,79.93-55.12,102.53"/>
		<path class="st2" d="M193.32,386.66c0,0,13.23,82.68,7.72,97.57"/>
		<path class="st2" d="M180.64,396.03c0,0,10.47,47.96,6.06,61.74"/>
		<path class="st2" d="M571.46,421.93c0,0-21.12,71.49-20.2,95.83"/>
		<path class="st2" d="M586.89,428c0,0,3.31,33.07-2.76,47.4"/>
		<path class="st2" d="M511.92,530.52c0,0-9.92,49.06-23.7,62.29"/>
		<path class="st2" d="M217.02,512.88c0,0,18.19,29.21,15.43,46.3"/>
		<path class="st3" d="M291.53,551.35c0,0,4.73,23.14,10.14,27.64c5.41,4.51,40.55,26.13,66.32,23.61c0,0,16.94-2.16,32.44-9.37
			c15.5-7.21,32.8-12.8,35.5-29.74c0,0,0.36-1.98-7.57-2.16c-7.93-0.18-27.66,6.29-59.02,6.47c-18.99,0.11-44.9-6.77-60.54-11.89
			C298.62,552.59,291.53,551.35,291.53,551.35z"/>
		<path class="st2" d="M318.44,481.89c0,0-4.73,15.37,4.73,21.67s20.48,13.25,22.43,14.76s9.93,7.98,15.8,7.07
			c5.87-0.9,35.52-7.98,36.27-8.28c0.75-0.3,17.16-2.11,13.24-18.36"/>
		<path class="st2" d="M398.42,398.83c0,0-10.99,45.9-9.18,72.84"/>
		<path class="st2" d="M291.53,547.94c0,0-12.94-3.02-16.85,0.46"/>
		<path class="st2" d="M435.94,560.08c0,0,12.71,2.24,14.89,0.06"/>
		<path class="st2" d="M291.53,547.94c0,0,4.73,23.14,10.14,27.64c5.41,4.51,40.55,26.13,66.32,23.61c0,0,16.94-2.16,32.44-9.37
			c15.5-7.21,32.8-12.8,35.5-29.74c0,0,0.36-1.98-7.57-2.16s-27.66,6.29-59.02,6.47c-18.99,0.11-44.9-6.77-60.54-11.89
			C298.62,549.17,291.53,547.94,291.53,547.94z"/>
	</g>
</g>
</svg>
