<?xml version="1.0" encoding="UTF-8"?>
<svg id="Layer_1" xmlns="http://www.w3.org/2000/svg" xmlns:xlink="http://www.w3.org/1999/xlink" version="1.1" viewBox="0 0 841.89 467.72">
  <!-- Generator: Adobe Illustrator 29.0.0, SVG Export Plug-In . SVG Version: 2.1.0 Build 186)  -->
  <defs>
    <style>
      .st0, .st1 {
        fill: none;
      }

      .st2 {
        fill: #f6d17d;
      }

      .st3 {
        fill: #55565a;
      }

      .st4 {
        fill: #4b342c;
      }

      .st5 {
        fill: #37383b;
      }

      .st6 {
        fill: #fff;
      }

      .st7 {
        fill: #fcd1c3;
      }

      .st8 {
        clip-path: url(#clippath);
      }

      .st1 {
        stroke: #55565a;
        stroke-miterlimit: 10;
      }
    </style>
    <clipPath id="clippath">
      <rect class="st0" width="841.89" height="467.72"/>
    </clipPath>
  </defs>
  <g class="st8">
    <rect class="st2" width="841.89" height="467.72"/>
    <g>
      <path class="st6" d="M506.2,219.16c3.18-.14,6.35-.47,9.49-1.01,1.3-.23,2.62-.5,3.73-1.21,1.21-.77,2.05-1.99,2.84-3.18,6.7-10.12,12.08-21.11,15.96-32.61.84-2.49,1.62-5.15,1.09-7.73-.56-2.7-2.46-4.89-4.29-6.94-2.95-3.31-5.9-6.62-8.86-9.93,1.54,9.34,3.07,18.68,4.61,28.02-3.09-2.83-5.99-5.87-8.67-9.1,3.46,9.56,6.97,19.66,5.25,29.68-1.64-9.84-5.42-19.32-11.01-27.59.65,7.01,1.3,14.03,1.95,21.04-1.93-3.82-3.87-7.64-5.8-11.46.7,3.07-1.68,5.5-4.32,7.59-.28,5.66-.64,11.31-1.15,16.96-.23,2.5-.49,4.99-.82,7.48Z"/>
      <path class="st6" d="M307.89,238.89c.5-2.46,1-4.92,1.51-7.38-.56,2.45-1.05,4.91-1.51,7.38Z"/>
      <path class="st6" d="M338.29,184.96c-.55-5.46-.81-10.94-.79-16.42-2.5,9.23-4.7,18.54-6.59,27.92-.36,1.78-.7,3.63-.28,5.39.37,1.51,1.27,2.83,2.16,4.1,1.35,1.91,2.74,3.8,4.15,5.67.02-.53.04-1.06.06-1.59.37-8.56,1.42-17.13,1.28-25.05Z"/>
      <path class="st6" d="M449.24,74.44c10.25,11.49,18.6,24.52,26.91,37.48,6.78,10.58,13.55,21.17,20.33,31.75-11.89-11.37-19.43-26.39-28.22-40.3-8.79-13.9-19.84-27.52-35.28-33.2,7.99,5.96,14.58,13.79,19.09,22.68-4.51-6.03-10.28-10.99-16-15.89-2.77-2.38-5.64-4.81-9.11-5.95-5.2-1.71-11.02-.29-16.24-1.93-2.73-.86-5.18-2.56-6.95-4.81-.62-.79-1.19-1.67-2.07-2.15-.64-.35-1.39-.44-2.12-.46-.15,0-.3,0-.46,0-3.36,0-6.68.56-9.88,1.55-5.08,1.56-9.87,4.21-14.09,7.47-6.89,5.31-12.42,12.15-17.53,19.18-2.89,3.97-5.71,8.12-7.05,12.84.57-.65,1.15-1.29,1.72-1.94-9.7,21.19-14.74,44.48-14.8,67.78-.01,5.48.25,10.97.79,16.42.14,7.92-.91,16.49-1.28,25.05-.02.53-.04,1.06-.06,1.59-.26,8.06.24,16.26,3.27,23.71,1.99,4.89,5,9.29,8.16,13.53,3.74,5.01,7.7,9.84,11.8,14.56,5.48,6.3,11.2,12.4,16.97,18.45,1.32,1.38,2.64,2.77,3.96,4.15,6,5.51,13.81,10.13,22.3,12.81,8.49,2.68,17.68,3.37,26.35,1.36,7.62-1.77,14.63-5.53,21.25-9.7,10.12-6.36,19.61-13.74,28.26-21.98,2.72-2.65,5.42-5.49,8.01-8.5,3.52-4.09,6.82-8.51,9.64-13.24,2.71-4.55,4.99-9.38,6.57-14.51,1.32-4.26,2.14-8.65,2.73-13.08.33-2.49.59-4.98.82-7.48.52-5.64.88-11.3,1.15-16.96.6-12.23.75-24.5.88-36.75.37-32.78-31.57-61.95-59.82-83.54Z"/>
      <path class="st6" d="M669.59,466.57l-22.47-60.43c-2.08-5.6-4.21-11.28-7.79-16.07-5.15-6.88-12.83-11.31-20.17-15.78-18-10.96-35.17-23.28-51.35-36.77-.13,2.05-.29,4.09-.54,6.14-4.61,38.81-31.32,72.05-63.13,94.76,12.36-9.38,21.24-23.26,24.55-38.42-14.73,23.32-36.1,42.41-60.93,54.43,13.39-10.27,27.37-21.32,33.57-37.01-15.52,14.57-32.75,27.32-51.23,37.9,13.8-17.7,28.01-36.23,32.62-58.2-1.67,1.04-3.35,2.08-5.02,3.12-12.39,24.69-29.79,46.88-51.85,63.41-4.99,3.74-10.2,7.18-15.47,10.51,124.9-.86,257.59-1.81,257.59-1.81,2.38.08,2.45-3.54,1.62-5.77Z"/>
      <path class="st6" d="M354.45,424.97c-.26,1.12-.52,2.24-.79,3.36-.57-2.3-1.13-4.59-1.7-6.89-.57-.78-1.15-1.55-1.74-2.31-2.3,13.12-6.54,25.9-12.57,37.77-4.88-10.22-9.75-20.44-14.63-30.65.95,6.6,1.22,13.29.83,19.94-6.52-16.04-11.59-32.67-15.14-49.62-3.91,13.04-6.6,26.45-8.01,40-5.58-25.14-9.16-50.71-10.71-76.41-.52-8.67-.78-17.59,2.09-25.79.73-2.07,1.7-4.1,2.88-5.98-2.82,1.66-5.61,3.4-8.33,5.22-5.06,3.39-9.94,7.11-15.47,9.67-8.08,3.74-17.24,4.84-25.12,9-18.42,9.74-24.6,32.63-29.21,52.96-5.44,24.03-11.32,48.24-22.36,70.27-.35.11,91.52-.49,194.42-1.2-14.59-13.37-23.02-32.67-34.44-49.33Z"/>
      <path class="st6" d="M353.66,428.32c.27-1.12.53-2.24.79-3.36-.82-1.19-1.64-2.37-2.49-3.53.57,2.3,1.13,4.59,1.7,6.89Z"/>
      <path class="st6" d="M479.25,268.49c-8.65,8.25-18.14,15.63-28.26,21.98-6.62,4.16-13.63,7.93-21.25,9.7-8.67,2.01-17.86,1.32-26.35-1.36-8.49-2.68-16.29-7.29-22.3-12.81-1.32-1.38-2.64-2.76-3.96-4.15.63,3.89,1.13,7.81,1.49,11.73.8,8.78.76,18.11-1.61,26.5-1.44,5.11-3.74,9.87-7.24,13.95-2.5,2.91-5.59,5.46-7.05,9-1.26,3.06-1.12,6.49-1.03,9.79.68,24.22-1.76,48.52-7.24,72.12,11.42,16.67,19.85,35.96,34.44,49.33,7.12-.05,14.28-.1,21.48-.15,5.27-3.33,10.48-6.77,15.47-10.51,22.06-16.53,39.45-38.72,51.85-63.41-.02.01-.04.02-.05.03-.1-24.33-.2-48.72,1.78-72.95.44-5.37.98-10.73,1.64-16.08,1.66-13.33,4.08-26.56,5.38-39.93.36-3.76.63-7.54.81-11.32-2.59,3.01-5.29,5.85-8.01,8.5Z"/>
      <path class="st6" d="M350.22,419.12c.59.76,1.17,1.53,1.74,2.31-.42-1.7-.84-3.39-1.26-5.09-.14.93-.32,1.85-.48,2.78Z"/>
      <path class="st6" d="M562.79,284.57c-4.39-25.15-8.78-50.3-13.17-75.45,2.88,11.67,7.2,23,12.82,33.63-.13-44.12-6.45-88.96-25.44-128.78-18.99-39.82-51.74-74.3-93.35-88.96-9.44-3.32-19.52-5.63-29.43-4.22-9.91,1.41-19.63,7.11-23.75,16.23-.85,1.89-1.45,3.87-1.85,5.9,1,1.16,1.88,2.44,2.71,3.72,3.1,4.8,5.85,9.83,8.24,15.02.74.02,1.48.11,2.12.46.88.48,1.45,1.36,2.07,2.15,1.77,2.25,4.22,3.95,6.95,4.81,5.22,1.65,11.04.22,16.24,1.93,3.47,1.14,6.34,3.57,9.11,5.95,5.72,4.9,11.49,9.85,16,15.89-4.52-8.89-11.1-16.71-19.09-22.68,15.44,5.67,26.49,19.3,35.28,33.2,8.79,13.9,16.33,28.93,28.22,40.3-6.78-10.58-13.55-21.17-20.33-31.75-8.3-12.97-16.65-26-26.91-37.48,28.25,21.59,60.19,50.75,59.82,83.54-.14,12.25-.29,24.51-.88,36.75,2.65-2.1,5.02-4.52,4.32-7.59,1.93,3.82,3.87,7.64,5.8,11.46-.65-7.01-1.3-14.03-1.95-21.04,5.59,8.27,9.37,17.75,11.01,27.59,1.72-10.02-1.8-20.12-5.25-29.68,2.68,3.23,5.58,6.27,8.67,9.1-1.54-9.34-3.07-18.68-4.61-28.02,2.95,3.31,5.9,6.62,8.86,9.93,1.83,2.06,3.74,4.24,4.29,6.94.53,2.58-.25,5.23-1.09,7.73-3.88,11.5-9.26,22.49-15.96,32.61-.79,1.2-1.63,2.41-2.84,3.18-1.11.71-2.44.98-3.73,1.21-3.14.55-6.31.87-9.49,1.01-.59,4.43-1.42,8.82-2.73,13.08-1.59,5.13-3.86,9.96-6.57,14.51-2.82,4.74-6.12,9.15-9.64,13.24-.18,3.78-.45,7.55-.81,11.32-1.29,13.37-3.72,26.6-5.38,39.93-.67,5.35-1.2,10.71-1.64,16.08-1.98,24.23-1.88,48.62-1.78,72.95.02-.01.04-.02.05-.03,1.67-1.04,3.35-2.08,5.02-3.12-4.61,21.97-18.81,40.5-32.62,58.2,18.48-10.58,35.71-23.33,51.23-37.9-6.2,15.7-20.18,26.74-33.57,37.01,24.83-12.02,46.2-31.1,60.93-54.43-3.32,15.16-12.19,29.04-24.55,38.42,31.81-22.71,58.52-55.95,63.13-94.76.24-2.04.41-4.09.54-6.14,1.08-17.68-1.97-35.45-5.02-52.96Z"/>
      <path class="st6" d="M391.33,46.65c-.83-1.28-1.71-2.57-2.71-3.72-.95-1.09-2.01-2.07-3.25-2.81-7.38-4.4-16.62,1.34-22.59,7.52-17.5,18.1-28.1,41.84-35.13,66.01-7.03,24.17-10.82,49.16-16.74,73.63-4.67,19.32-10.69,38.38-13.26,58.08-2.65,20.32-1.57,40.95-3.6,61.34,4.62-22.6,9.23-45.2,13.85-67.8.46-2.47.95-4.93,1.51-7.38-.5,2.46-1,4.92-1.51,7.38-3.65,19.66-4.09,33.74-1.32,50.55,1.44,8.74-.06,17.75-4.52,25.4-2.81,4.82-5.22,10.55-7.09,13.54-1.18,1.89-2.15,3.91-2.88,5.98-2.87,8.2-2.61,17.12-2.09,25.79,1.55,25.7,5.13,51.28,10.71,76.41,1.41-13.54,4.1-26.95,8.01-40,3.55,16.95,8.62,33.57,15.14,49.62.4-6.65.12-13.35-.83-19.94,4.88,10.22,9.75,20.44,14.63,30.65,6.04-11.87,10.27-24.65,12.57-37.77.16-.93.34-1.85.48-2.78.42,1.7.84,3.39,1.26,5.09.85,1.16,1.68,2.34,2.49,3.53,5.48-23.6,7.93-47.9,7.24-72.12-.09-3.31-.22-6.73,1.03-9.79,1.45-3.55,4.55-6.1,7.05-9,3.5-4.07,5.8-8.84,7.24-13.95,2.37-8.39,2.41-17.72,1.61-26.5-.36-3.93-.87-7.84-1.49-11.73-5.76-6.05-11.49-12.15-16.97-18.45-4.1-4.72-8.06-9.55-11.8-14.56-3.16-4.23-6.17-8.64-8.16-13.53-3.03-7.45-3.52-15.66-3.27-23.71-1.41-1.87-2.8-3.75-4.15-5.67-.9-1.27-1.8-2.59-2.16-4.1-.43-1.76-.08-3.61.28-5.39,1.88-9.38,4.08-18.69,6.59-27.92.05-23.3,5.1-46.59,14.8-67.78-.57.65-1.15,1.29-1.72,1.94,1.34-4.72,4.16-8.87,7.05-12.84,5.11-7.03,10.65-13.88,17.53-19.18,4.22-3.25,9.01-5.9,14.09-7.47,3.2-.99,6.52-1.55,9.88-1.55.15,0,.3,0,.46,0-2.39-5.19-5.14-10.22-8.24-15.02Z"/>
    </g>
    <g>
      <path class="st7" d="M505.93,217.35c3.18-.14,6.35-.47,9.49-1.01,1.3-.23,2.62-.5,3.73-1.21,1.21-.77,2.05-1.99,2.84-3.18,6.7-10.12,12.08-21.11,15.96-32.61.84-2.49,1.62-5.15,1.09-7.73-.56-2.7-2.46-4.89-4.29-6.94-2.95-3.31-5.9-6.62-8.86-9.93,1.54,9.34,3.07,18.68,4.61,28.02-3.09-2.83-5.99-5.87-8.67-9.1,3.46,9.56,6.97,19.66,5.25,29.68-1.64-9.84-5.42-19.32-11.01-27.59.65,7.01,1.3,14.03,1.95,21.04-1.93-3.82-3.87-7.64-5.8-11.46.7,3.07-1.68,5.5-4.32,7.59-.28,5.66-.64,11.31-1.15,16.96-.23,2.5-.49,4.99-.82,7.48Z"/>
      <path class="st1" d="M307.62,239.09c.5-2.46,1-4.92,1.51-7.38-.56,2.45-1.05,4.91-1.51,7.38Z"/>
      <path class="st7" d="M338.01,185.16c-.55-5.46-.81-10.94-.79-16.42-2.5,9.23-4.7,18.54-6.59,27.92-.36,1.78-.7,3.63-.28,5.39.37,1.51,1.27,2.83,2.16,4.1,1.35,1.91,2.74,3.8,4.15,5.67.02-.53.04-1.06.06-1.59.37-8.56,1.42-17.13,1.28-25.05Z"/>
      <path class="st7" d="M451.81,74.44c10.25,11.49,18.6,24.52,26.91,37.48,6.78,10.58,13.55,21.17,20.33,31.75-11.89-11.37-19.43-26.39-28.22-40.3-8.79-13.9-19.84-27.52-35.28-33.2,7.99,5.96,14.58,13.79,19.09,22.68-4.51-6.03-10.28-10.99-16-15.89-2.77-2.38-5.64-4.81-9.11-5.95-5.2-1.71-11.02-.29-16.24-1.93-2.73-.86-5.18-2.56-6.95-4.81-.62-.79-1.19-1.67-2.07-2.15-.64-.35-1.39-.44-2.12-.46-.15,0-.3,0-.46,0-3.36,0-6.68.56-9.88,1.55-5.08,1.56-9.87,4.21-14.09,7.47-6.89,5.31-12.42,12.15-17.53,19.18-2.89,3.97-5.71,8.12-7.05,12.84.57-.65,1.15-1.29,1.72-1.94-9.7,21.19-14.74,44.48-14.8,67.78-.01,5.48.25,10.97.79,16.42.14,7.92-.91,16.49-1.28,25.05-.02.53-.04,1.06-.06,1.59-.26,8.06.24,16.26,3.27,23.71,1.99,4.89,5,9.29,8.16,13.53,3.74,5.01,7.7,9.84,11.8,14.56,5.48,6.3,11.2,12.4,16.97,18.45,1.32,1.38,2.64,2.77,3.96,4.15,6,5.51,13.81,10.13,22.3,12.81,8.49,2.68,17.68,3.37,26.35,1.36,7.62-1.77,14.63-5.53,21.25-9.7,10.12-6.36,19.61-13.74,28.26-21.98,2.72-2.65,5.42-5.49,8.01-8.5,3.52-4.09,6.82-8.51,9.64-13.24,2.71-4.55,4.99-9.38,6.57-14.51,1.32-4.26,2.14-8.65,2.73-13.08.33-2.49.59-4.98.82-7.48.52-5.64.88-11.3,1.15-16.96.6-12.23.75-24.5.88-36.75.37-32.78-31.57-61.95-59.82-83.54Z"/>
      <path class="st5" d="M666.66,467.21l-22.47-60.43c-2.08-5.6-4.21-11.28-7.79-16.07-5.15-6.88-12.83-11.31-20.17-15.78-18-10.96-35.17-23.28-51.35-36.77-.13,2.05-.29,4.09-.54,6.14-4.61,38.81-31.32,72.05-63.13,94.76,12.36-9.38,21.24-23.26,24.55-38.42-14.73,23.32-36.1,42.41-60.93,54.43,13.39-10.27,27.37-21.32,33.57-37.01-15.52,14.57-32.75,27.32-51.23,37.9,13.8-17.7,28.01-36.23,32.62-58.2-1.67,1.04-3.35,2.08-5.02,3.12-12.39,24.69-29.79,46.88-51.85,63.41-4.99,3.74-10.2,7.18-15.47,10.51,124.9-.86,257.59-1.81,257.59-1.81,2.38.08,2.45-3.54,1.62-5.77Z"/>
      <path class="st5" d="M357.62,424.97c-.26,1.12-.52,2.24-.79,3.36-.57-2.3-1.13-4.59-1.7-6.89-.57-.78-1.15-1.55-1.74-2.31-2.3,13.12-6.54,25.9-12.57,37.77-4.88-10.22-9.75-20.44-14.63-30.65.95,6.6,1.22,13.29.83,19.94-6.52-16.04-11.59-32.67-15.14-49.62-3.91,13.04-6.6,26.45-8.01,40-5.58-25.14-9.16-50.71-10.71-76.41-.52-8.67-.78-17.59,2.09-25.79.73-2.07,1.7-4.1,2.88-5.98-2.82,1.66-5.61,3.4-8.33,5.22-5.06,3.39-9.94,7.11-15.47,9.67-8.08,3.74-17.24,4.84-25.12,9-18.42,9.74-24.6,32.63-29.21,52.96-5.44,24.03-11.32,48.24-22.36,70.27-.35.11,91.52-.49,194.42-1.2-14.59-13.37-23.02-32.67-34.44-49.33Z"/>
      <path class="st1" d="M353.39,428.52c.27-1.12.53-2.24.79-3.36-.82-1.19-1.64-2.37-2.49-3.53.57,2.3,1.13,4.59,1.7,6.89Z"/>
      <path class="st7" d="M478.97,271.69c-8.65,8.25-18.14,15.63-28.26,21.98-6.62,4.16-13.63,7.93-21.25,9.7-8.67,2.01-17.86,1.32-26.35-1.36-8.49-2.68-16.29-7.29-22.3-12.81-1.32-1.38-2.64-2.76-3.96-4.15.63,3.89,1.13,7.81,1.49,11.73.8,8.78.76,18.11-1.61,26.5-1.44,5.11-3.74,9.87-7.24,13.95-2.5,2.91-5.59,5.46-7.05,9-1.26,3.06-1.12,6.49-1.03,9.79.68,24.22-1.76,48.52-7.24,72.12,11.42,16.67,19.85,35.96,34.44,49.33,7.12-.05,14.28-.1,21.48-.15,5.27-3.33,10.48-6.77,15.47-10.51,22.06-16.53,39.45-38.72,51.85-63.41-.02.01-.04.02-.05.03-.1-24.33-.2-48.72,1.78-72.95.44-5.37.98-10.73,1.64-16.08,1.66-13.33,4.08-26.56,5.38-39.93.36-3.76.63-7.54.81-11.32-2.59,3.01-5.29,5.85-8.01,8.5Z"/>
      <path class="st1" d="M349.95,419.32c.59.76,1.17,1.53,1.74,2.31-.42-1.7-.84-3.39-1.26-5.09-.14.93-.32,1.85-.48,2.78Z"/>
      <path class="st4" d="M562.52,284.77c-4.39-25.15-8.78-50.3-13.17-75.45,2.88,11.67,7.2,23,12.82,33.63-.13-44.12-6.45-88.96-25.44-128.78-18.99-39.82-51.74-74.3-93.35-88.96-9.44-3.32-19.52-5.63-29.43-4.22-9.91,1.41-19.63,7.11-23.75,16.23-.85,1.89-1.45,3.87-1.85,5.9,1,1.16,1.88,2.44,2.71,3.72,3.1,4.8,5.85,9.83,8.24,15.02.74.02,1.48.11,2.12.46.88.48,1.45,1.36,2.07,2.15,1.77,2.25,4.22,3.95,6.95,4.81,5.22,1.65,11.04.22,16.24,1.93,3.47,1.14,6.34,3.57,9.11,5.95,5.72,4.9,11.49,9.85,16,15.89-4.52-8.89-11.1-16.71-19.09-22.68,15.44,5.67,26.49,19.3,35.28,33.2,8.79,13.9,16.33,28.93,28.22,40.3-6.78-10.58-13.55-21.17-20.33-31.75-8.3-12.97-16.65-26-26.91-37.48,28.25,21.59,60.19,50.75,59.82,83.54-.14,12.25-.29,24.51-.88,36.75,2.65-2.1,5.02-4.52,4.32-7.59,1.93,3.82,3.87,7.64,5.8,11.46-.65-7.01-1.3-14.03-1.95-21.04,5.59,8.27,9.37,17.75,11.01,27.59,1.72-10.02-1.8-20.12-5.25-29.68,2.68,3.23,5.58,6.27,8.67,9.1-1.54-9.34-3.07-18.68-4.61-28.02,2.95,3.31,5.9,6.62,8.86,9.93,1.83,2.06,3.74,4.24,4.29,6.94.53,2.58-.25,5.23-1.09,7.73-3.88,11.5-9.26,22.49-15.96,32.61-.79,1.2-1.63,2.41-2.84,3.18-1.11.71-2.44.98-3.73,1.21-3.14.55-6.31.87-9.49,1.01-.59,4.43-1.42,8.82-2.73,13.08-1.59,5.13-3.86,9.96-6.57,14.51-2.82,4.74-6.12,9.15-9.64,13.24-.18,3.78-.45,7.55-.81,11.32-1.29,13.37-3.72,26.6-5.38,39.93-.67,5.35-1.2,10.71-1.64,16.08-1.98,24.23-1.88,48.62-1.78,72.95.02-.01.04-.02.05-.03,1.67-1.04,3.35-2.08,5.02-3.12-4.61,21.97-18.81,40.5-32.62,58.2,18.48-10.58,35.71-23.33,51.23-37.9-6.2,15.7-20.18,26.74-33.57,37.01,24.83-12.02,46.2-31.1,60.93-54.43-3.32,15.16-12.19,29.04-24.55,38.42,31.81-22.71,58.52-55.95,63.13-94.76.24-2.04.41-4.09.54-6.14,1.08-17.68-1.97-35.45-5.02-52.96Z"/>
      <path class="st4" d="M391.06,46.85c-.83-1.28-1.71-2.57-2.71-3.72-.95-1.09-2.01-2.07-3.25-2.81-7.38-4.4-16.62,1.34-22.59,7.52-17.5,18.1-28.1,41.84-35.13,66.01-7.03,24.17-10.82,49.16-16.74,73.63-4.67,19.32-10.69,38.38-13.26,58.08-2.65,20.32-1.57,40.95-3.6,61.34,4.62-22.6,9.23-45.2,13.85-67.8.46-2.47.95-4.93,1.51-7.38-.5,2.46-1,4.92-1.51,7.38-3.65,19.66-4.09,33.74-1.32,50.55,1.44,8.74-.06,17.75-4.52,25.4-2.81,4.82-5.22,10.55-7.09,13.54-1.18,1.89-2.15,3.91-2.88,5.98-2.87,8.2-2.61,17.12-2.09,25.79,1.55,25.7,5.13,51.28,10.71,76.41,1.41-13.54,4.1-26.95,8.01-40,3.55,16.95,8.62,33.57,15.14,49.62.4-6.65.12-13.35-.83-19.94,4.88,10.22,9.75,20.44,14.63,30.65,6.04-11.87,10.27-24.65,12.57-37.77.16-.93.34-1.85.48-2.78.42,1.7.84,3.39,1.26,5.09.85,1.16,1.68,2.34,2.49,3.53,5.48-23.6,7.93-47.9,7.24-72.12-.09-3.31-.22-6.73,1.03-9.79,1.45-3.55,4.55-6.1,7.05-9,3.5-4.07,5.8-8.84,7.24-13.95,2.37-8.39,2.41-17.72,1.61-26.5-.36-3.93-.87-7.84-1.49-11.73-5.76-6.05-11.49-12.15-16.97-18.45-4.1-4.72-8.06-9.55-11.8-14.56-3.16-4.23-6.17-8.64-8.16-13.53-3.03-7.45-3.52-15.66-3.27-23.71-1.41-1.87-2.8-3.75-4.15-5.67-.9-1.27-1.8-2.59-2.16-4.1-.43-1.76-.08-3.61.28-5.39,1.88-9.38,4.08-18.69,6.59-27.92.05-23.3,5.1-46.59,14.8-67.78-.57.65-1.15,1.29-1.72,1.94,1.34-4.72,4.16-8.87,7.05-12.84,5.11-7.03,10.65-13.88,17.53-19.18,4.22-3.25,9.01-5.9,14.09-7.47,3.2-.99,6.52-1.55,9.88-1.55.15,0,.3,0,.46,0-2.39-5.19-5.14-10.22-8.24-15.02Z"/>
    </g>
    <path class="st1" d="M429.38,205.96c-2.04.11-4.07.35-6.07.72-1.4.26-2.96.72-3.58,1.99"/>
    <path class="st1" d="M428.12,211.37c2.75-1,5.67-1.94,7.71-4.05,2.08-2.15,2.93-5.41,2.17-8.3s-3.09-5.31-5.96-6.17"/>
    <path class="st1" d="M406.67,208.5c-1.68-2.11-3.82-3.84-6.24-5.04-.51-.26-1.05-.49-1.62-.53s-1.19.14-1.54.59"/>
    <path class="st1" d="M409.66,212.26c2.13.51,7.57.9,8.09,0"/>
    <path class="st1" d="M397.59,209.44c-2.81-1.37-5.85-2.98-7.03-5.88-.85-2.11-.53-4.54.39-6.62,1.39-3.14,4.11-5.65,7.35-6.78"/>
    <path class="st6" d="M400.23,230.75c-5.94-.23-11.92-.6-17.74-1.74-.27-.05-.45.28-.26.47,1.47,1.44,3.15,2.69,4.87,3.83,4.14,2.76,8.54,5.13,13.12,7.09,5.1,2.18,10.47,3.94,16.01,4.39,6.94.56,13.2-.65,19.56-3.51,4.9-2.2,11.02-5.13,15.43-8.5.32-.25.15-.76-.26-.77-10.1-.17-21.23-.71-31.09-.8-6.55-.06-13.09-.21-19.64-.46Z"/>
    <g>
      <path class="st1" d="M506.44,219.8c3.18-.14,6.35-.47,9.49-1.01,1.3-.23,2.62-.5,3.73-1.21,1.21-.77,2.05-1.99,2.84-3.18,6.7-10.12,12.08-21.11,15.96-32.61.84-2.49,1.62-5.15,1.09-7.73-.56-2.7-2.46-4.89-4.29-6.94-2.95-3.31-5.9-6.62-8.86-9.93,1.54,9.34,3.07,18.68,4.61,28.02-3.09-2.83-5.99-5.87-8.67-9.1,3.46,9.56,6.97,19.66,5.25,29.68-1.64-9.84-5.42-19.32-11.01-27.59.65,7.01,1.3,14.03,1.95,21.04-1.93-3.82-3.87-7.64-5.8-11.46.7,3.07-1.68,5.5-4.32,7.59-.28,5.66-.64,11.31-1.15,16.96-.23,2.5-.49,4.99-.82,7.48Z"/>
      <path class="st1" d="M308.12,239.53c.5-2.46,1-4.92,1.51-7.38-.56,2.45-1.05,4.91-1.51,7.38Z"/>
      <path class="st1" d="M338.52,185.61c-.55-5.46-.81-10.94-.79-16.42-2.5,9.23-4.7,18.54-6.59,27.92-.36,1.78-.7,3.63-.28,5.39.37,1.51,1.27,2.83,2.16,4.1,1.35,1.91,2.74,3.8,4.15,5.67.02-.53.04-1.06.06-1.59.37-8.56,1.42-17.13,1.28-25.05Z"/>
      <path class="st1" d="M449.47,75.08c10.25,11.49,18.6,24.52,26.91,37.48,6.78,10.58,13.55,21.17,20.33,31.75-11.89-11.37-19.43-26.39-28.22-40.3-8.79-13.9-19.84-27.52-35.28-33.2,7.99,5.96,14.58,13.79,19.09,22.68-4.51-6.03-10.28-10.99-16-15.89-2.77-2.38-5.64-4.81-9.11-5.95-5.2-1.71-11.02-.29-16.24-1.93-2.73-.86-5.18-2.56-6.95-4.81-.62-.79-1.19-1.67-2.07-2.15-.64-.35-1.39-.44-2.12-.46-.15,0-.3,0-.46,0-3.36,0-6.68.56-9.88,1.55-5.08,1.56-9.87,4.21-14.09,7.47-6.89,5.31-12.42,12.15-17.53,19.18-2.89,3.97-5.71,8.12-7.05,12.84.57-.65,1.15-1.29,1.72-1.94-9.7,21.19-14.74,44.48-14.8,67.78-.01,5.48.25,10.97.79,16.42.14,7.92-.91,16.49-1.28,25.05-.02.53-.04,1.06-.06,1.59-.26,8.06.24,16.26,3.27,23.71,1.99,4.89,5,9.29,8.16,13.53,3.74,5.01,7.7,9.84,11.8,14.56,5.48,6.3,11.2,12.4,16.97,18.45,1.32,1.38,2.64,2.77,3.96,4.15,6,5.51,13.81,10.13,22.3,12.81,8.49,2.68,17.68,3.37,26.35,1.36,7.62-1.77,14.63-5.53,21.25-9.7,10.12-6.36,19.61-13.74,28.26-21.98,2.72-2.65,5.42-5.49,8.01-8.5,3.52-4.09,6.82-8.51,9.64-13.24,2.71-4.55,4.99-9.38,6.57-14.51,1.32-4.26,2.14-8.65,2.73-13.08.33-2.49.59-4.98.82-7.48.52-5.64.88-11.3,1.15-16.96.6-12.23.75-24.5.88-36.75.37-32.78-31.57-61.95-59.82-83.54Z"/>
      <path class="st1" d="M669.82,467.21l-22.47-60.43c-2.08-5.6-4.21-11.28-7.79-16.07-5.15-6.88-12.83-11.31-20.17-15.78-18-10.96-35.17-23.28-51.35-36.77-.13,2.05-.29,4.09-.54,6.14-4.61,38.81-31.32,72.05-63.13,94.76,12.36-9.38,21.24-23.26,24.55-38.42-14.73,23.32-36.1,42.41-60.93,54.43,13.39-10.27,27.37-21.32,33.57-37.01-15.52,14.57-32.75,27.32-51.23,37.9,13.8-17.7,28.01-36.23,32.62-58.2-1.67,1.04-3.35,2.08-5.02,3.12-12.39,24.69-29.79,46.88-51.85,63.41-4.99,3.74-10.2,7.18-15.47,10.51,124.9-.86,257.59-1.81,257.59-1.81,2.38.08,2.45-3.54,1.62-5.77Z"/>
      <path class="st1" d="M354.69,425.61c-.26,1.12-.52,2.24-.79,3.36-.57-2.3-1.13-4.59-1.7-6.89-.57-.78-1.15-1.55-1.74-2.31-2.3,13.12-6.54,25.9-12.57,37.77-4.88-10.22-9.75-20.44-14.63-30.65.95,6.6,1.22,13.29.83,19.94-6.52-16.04-11.59-32.67-15.14-49.62-3.91,13.04-6.6,26.45-8.01,40-5.58-25.14-9.16-50.71-10.71-76.41-.52-8.67-.78-17.59,2.09-25.79.73-2.07,1.7-4.1,2.88-5.98-2.82,1.66-5.61,3.4-8.33,5.22-5.06,3.39-9.94,7.11-15.47,9.67-8.08,3.74-17.24,4.84-25.12,9-18.42,9.74-24.6,32.63-29.21,52.96-5.44,24.03-11.32,48.24-22.36,70.27-.35.11,91.52-.49,194.42-1.2-14.59-13.37-23.02-32.67-34.44-49.33Z"/>
      <path class="st1" d="M353.9,428.96c.27-1.12.53-2.24.79-3.36-.82-1.19-1.64-2.37-2.49-3.53.57,2.3,1.13,4.59,1.7,6.89Z"/>
      <path class="st1" d="M479.48,269.13c-8.65,8.25-18.14,15.63-28.26,21.98-6.62,4.16-13.63,7.93-21.25,9.7-8.67,2.01-17.86,1.32-26.35-1.36-8.49-2.68-16.29-7.29-22.3-12.81-1.32-1.38-2.64-2.76-3.96-4.15.63,3.89,1.13,7.81,1.49,11.73.8,8.78.76,18.11-1.61,26.5-1.44,5.11-3.74,9.87-7.24,13.95-2.5,2.91-5.59,5.46-7.05,9-1.26,3.06-1.12,6.49-1.03,9.79.68,24.22-1.76,48.52-7.24,72.12,11.42,16.67,19.85,35.96,34.44,49.33,7.12-.05,14.28-.1,21.48-.15,5.27-3.33,10.48-6.77,15.47-10.51,22.06-16.53,39.45-38.72,51.85-63.41-.02.01-.04.02-.05.03-.1-24.33-.2-48.72,1.78-72.95.44-5.37.98-10.73,1.64-16.08,1.66-13.33,4.08-26.56,5.38-39.93.36-3.76.63-7.54.81-11.32-2.59,3.01-5.29,5.85-8.01,8.5Z"/>
      <path class="st1" d="M350.46,419.76c.59.76,1.17,1.53,1.74,2.31-.42-1.7-.84-3.39-1.26-5.09-.14.93-.32,1.85-.48,2.78Z"/>
      <path class="st1" d="M563.02,285.21c-4.39-25.15-8.78-50.3-13.17-75.45,2.88,11.67,7.2,23,12.82,33.63-.13-44.12-6.45-88.96-25.44-128.78-18.99-39.82-51.74-74.3-93.35-88.96-9.44-3.32-19.52-5.63-29.43-4.22-9.91,1.41-19.63,7.11-23.75,16.23-.85,1.89-1.45,3.87-1.85,5.9,1,1.16,1.88,2.44,2.71,3.72,3.1,4.8,5.85,9.83,8.24,15.02.74.02,1.48.11,2.12.46.88.48,1.45,1.36,2.07,2.15,1.77,2.25,4.22,3.95,6.95,4.81,5.22,1.65,11.04.22,16.24,1.93,3.47,1.14,6.34,3.57,9.11,5.95,5.72,4.9,11.49,9.85,16,15.89-4.52-8.89-11.1-16.71-19.09-22.68,15.44,5.67,26.49,19.3,35.28,33.2,8.79,13.9,16.33,28.93,28.22,40.3-6.78-10.58-13.55-21.17-20.33-31.75-8.3-12.97-16.65-26-26.91-37.48,28.25,21.59,60.19,50.75,59.82,83.54-.14,12.25-.29,24.51-.88,36.75,2.65-2.1,5.02-4.52,4.32-7.59,1.93,3.82,3.87,7.64,5.8,11.46-.65-7.01-1.3-14.03-1.95-21.04,5.59,8.27,9.37,17.75,11.01,27.59,1.72-10.02-1.8-20.12-5.25-29.68,2.68,3.23,5.58,6.27,8.67,9.1-1.54-9.34-3.07-18.68-4.61-28.02,2.95,3.31,5.9,6.62,8.86,9.93,1.83,2.06,3.74,4.24,4.29,6.94.53,2.58-.25,5.23-1.09,7.73-3.88,11.5-9.26,22.49-15.96,32.61-.79,1.2-1.63,2.41-2.84,3.18-1.11.71-2.44.98-3.73,1.21-3.14.55-6.31.87-9.49,1.01-.59,4.43-1.42,8.82-2.73,13.08-1.59,5.13-3.86,9.96-6.57,14.51-2.82,4.74-6.12,9.15-9.64,13.24-.18,3.78-.45,7.55-.81,11.32-1.29,13.37-3.72,26.6-5.38,39.93-.67,5.35-1.2,10.71-1.64,16.08-1.98,24.23-1.88,48.62-1.78,72.95.02-.01.04-.02.05-.03,1.67-1.04,3.35-2.08,5.02-3.12-4.61,21.97-18.81,40.5-32.62,58.2,18.48-10.58,35.71-23.33,51.23-37.9-6.2,15.7-20.18,26.74-33.57,37.01,24.83-12.02,46.2-31.1,60.93-54.43-3.32,15.16-12.19,29.04-24.55,38.42,31.81-22.71,58.52-55.95,63.13-94.76.24-2.04.41-4.09.54-6.14,1.08-17.68-1.97-35.45-5.02-52.96Z"/>
      <path class="st1" d="M391.56,47.29c-.83-1.28-1.71-2.57-2.71-3.72-.95-1.09-2.01-2.07-3.25-2.81-7.38-4.4-16.62,1.34-22.59,7.52-17.5,18.1-28.1,41.84-35.13,66.01-7.03,24.17-10.82,49.16-16.74,73.63-4.67,19.32-10.69,38.38-13.26,58.08-2.65,20.32-1.57,40.95-3.6,61.34,4.62-22.6,9.23-45.2,13.85-67.8.46-2.47.95-4.93,1.51-7.38-.5,2.46-1,4.92-1.51,7.38-3.65,19.66-4.09,33.74-1.32,50.55,1.44,8.74-.06,17.75-4.52,25.4-2.81,4.82-5.22,10.55-7.09,13.54-1.18,1.89-2.15,3.91-2.88,5.98-2.87,8.2-2.61,17.12-2.09,25.79,1.55,25.7,5.13,51.28,10.71,76.41,1.41-13.54,4.1-26.95,8.01-40,3.55,16.95,8.62,33.57,15.14,49.62.4-6.65.12-13.35-.83-19.94,4.88,10.22,9.75,20.44,14.63,30.65,6.04-11.87,10.27-24.65,12.57-37.77.16-.93.34-1.85.48-2.78.42,1.7.84,3.39,1.26,5.09.85,1.16,1.68,2.34,2.49,3.53,5.48-23.6,7.93-47.9,7.24-72.12-.09-3.31-.22-6.73,1.03-9.79,1.45-3.55,4.55-6.1,7.05-9,3.5-4.07,5.8-8.84,7.24-13.95,2.37-8.39,2.41-17.72,1.61-26.5-.36-3.93-.87-7.84-1.49-11.73-5.76-6.05-11.49-12.15-16.97-18.45-4.1-4.72-8.06-9.55-11.8-14.56-3.16-4.23-6.17-8.64-8.16-13.53-3.03-7.45-3.52-15.66-3.27-23.71-1.41-1.87-2.8-3.75-4.15-5.67-.9-1.27-1.8-2.59-2.16-4.1-.43-1.76-.08-3.61.28-5.39,1.88-9.38,4.08-18.69,6.59-27.92.05-23.3,5.1-46.59,14.8-67.78-.57.65-1.15,1.29-1.72,1.94,1.34-4.72,4.16-8.87,7.05-12.84,5.11-7.03,10.65-13.88,17.53-19.18,4.22-3.25,9.01-5.9,14.09-7.47,3.2-.99,6.52-1.55,9.88-1.55.15,0,.3,0,.46,0-2.39-5.19-5.14-10.22-8.24-15.02Z"/>
    </g>
    <path class="st1" d="M416.9,183.75c.24-16.04.12-21.71.36-37.75"/>
    <circle class="st3" cx="383" cy="153.23" r="5"/>
    <circle class="st3" cx="457.53" cy="154.75" r="5"/>
    <path class="st1" d="M400.23,230.75c-5.94-.23-11.92-.6-17.74-1.74-.27-.05-.45.28-.26.47,1.47,1.44,3.15,2.69,4.87,3.83,4.14,2.76,8.54,5.13,13.12,7.09,5.1,2.18,10.47,3.94,16.01,4.39,6.94.56,13.2-.65,19.56-3.51,4.9-2.2,11.02-5.13,15.43-8.5.32-.25.15-.76-.26-.77-10.1-.17-21.23-.71-31.09-.8-6.55-.06-13.09-.21-19.64-.46Z"/>
  </g>
</svg>