<?xml version="1.0" encoding="UTF-8"?>
<svg id="Layer_1" xmlns="http://www.w3.org/2000/svg" xmlns:xlink="http://www.w3.org/1999/xlink" version="1.1" viewBox="0 0 841.89 467.72">
  <!-- Generator: Adobe Illustrator 29.0.0, SVG Export Plug-In . SVG Version: 2.1.0 Build 186)  -->
  <defs>
    <style>
      .st0, .st1 {
        fill: none;
      }

      .st2 {
        fill: #fdf3df;
      }

      .st3 {
        fill: #55565a;
      }

      .st4 {
        fill: #fff;
      }

      .st5 {
        fill: #412020;
      }

      .st6 {
        fill: #1c1d20;
      }

      .st7 {
        fill: #fac8a2;
      }

      .st8 {
        clip-path: url(#clippath);
      }

      .st1 {
        stroke: #55565a;
        stroke-miterlimit: 10;
      }
    </style>
    <clipPath id="clippath">
      <rect class="st0" width="841.89" height="468.35"/>
    </clipPath>
  </defs>
  <g class="st8">
    <rect class="st2" y="-.32" width="841.89" height="468.35"/>
    <g>
      <g>
        <path class="st4" d="M425.32,52.78c.23,2.67.21,5.33,0,7.98,3.15-.53,6.46.45,9.18,2.18,3,1.91,5.37,4.63,7.62,7.37,14.35,17.51,31.86,52.54,42.92,67.8,14.34,19.78,9.99,88.56,4.52,100.68-1.39,2.64-2.86,5.23-4.4,7.78,6.07-3.89,11.01-9.75,14.81-15.97,16.64-27.27,15.27-61.99,7.64-93-8.32-33.8-23.56-66.07-45.76-92.87-9.47-11.43-20.94-22.29-35.39-25.7-6.11-1.44-13.93-.68-16.66,4.97-.16.32-.29.65-.4.99,9.34,5.83,14.97,16.77,15.93,27.8Z"/>
        <path class="st4" d="M485.03,138.12c-11.06-15.26-28.56-50.29-42.92-67.8-2.25-2.75-4.63-5.47-7.62-7.37-2.71-1.73-6.03-2.71-9.18-2.18-.33.05-.65.11-.97.2-2.17-.61-4.36-.93-6.55-1.01-10.81-.42-21.78,4.97-31.84,10.22-6.24,3.26-12.72,6.72-16.8,12.47-2.72,3.83-4.16,8.4-5.65,12.86-9.07,27.3-8.91,42.41-23.8,67.03-3.58,10.04-10.92,26.83-8.39,37.96,2.29,10.05,3.27,25.7,6.54,35.47,3.75,11.2,9.41,20.7,16.04,28.68,3.8,4.58,7.92,8.66,12.18,12.26,19.74,16.72,42.42,23.35,50.09,23.23,14.86-.23,28.39-8.63,39.56-18.42,3.49-3.06,6.83-6.28,10.02-9.65,7.35-7.77,13.86-16.33,19.4-25.49,1.54-2.55,3.02-5.14,4.4-7.78,5.47-12.12,9.83-80.9-4.52-100.68Z"/>
        <path class="st4" d="M467.87,342.51c-.94-2.8-2.39-11.02-3.54-19.43-1.03-7.5-1.82-15.15-1.8-19.2.05-9.54,2.09-21.23,3.22-31.81-3.19,3.37-6.53,6.59-10.02,9.65-11.17,9.79-24.7,18.19-39.56,18.42-7.67.12-30.35-6.51-50.09-23.23,9.28,22.69,20.71,44.5,34.11,65.03.78,1.2,1.57,2.39,2.37,3.58,18.95,4.16,38.29,6.54,57.68,7.06,3.25.09,7.26-.35,8.51-3.35.88-2.14-.14-4.52-.88-6.71Z"/>
        <path class="st4" d="M294.6,437.17c-1.82-3.6-3.28-7.38-4.27-11.37-2.06-8.27-2.02-16.79-1.65-25.35-.32-1.05-.62-2.1-.88-3.16-.67-2.7-1.12-5.44-1.38-8.21-3.8-2.04-7.56-4.15-11.27-6.36-4.61-2.75-9.25-5.78-13.39-9.27-15.8,5.51-44.99,36.52-43.53,54.35.73,8.93-.97,17.88-1.46,26.83,2.51-1.94,5.74-2.78,8.85-3.52,22.81-5.47,45.83-10.11,68.97-13.93Z"/>
        <path class="st4" d="M332.61,473.12c-10.26-5.75-20.23-12.94-28.07-21.67-3.92-4.37-7.31-9.12-9.93-14.28-23.15,3.82-46.16,8.46-68.97,13.93-3.11.75-6.35,1.59-8.85,3.52-.28.21-.55.43-.81.67-7.47,7.02-1.6,20.63-7.26,29.18,34.51,4.77,69.56.79,104.4.88,15.68.04,31.34.89,47.01,1.39-9.25-4.39-18.6-8.64-27.52-13.64Z"/>
        <path class="st4" d="M451.11,427.07c-6.94-27.85-26.6-50.41-43.16-73.86-1.81-2.56-3.58-5.14-5.32-7.74-.8-1.19-1.59-2.38-2.37-3.58-13.42-20.52-24.87-42.32-34.16-65-4.26-3.6-8.38-7.68-12.19-12.25-6.63-7.97-12.3-17.46-16.06-28.67-3.28-9.77-4.28-25.42-6.57-35.47-2.54-11.12,4.79-27.92,8.36-37.97,14.87-24.63,14.7-39.73,23.75-67.04,1.48-4.46,2.92-9.03,5.64-12.87,4.07-5.74,10.55-9.21,16.79-12.48,10.05-5.26,21.02-10.66,31.83-10.25,2.19.08,4.38.4,6.55,1.01.32-.09.65-.14.97-.2.22-2.65.24-5.32,0-7.98-.97-11.03-6.61-21.96-15.95-27.78-.51-.32-1.03-.64-1.57-.92-12.14-6.53-27.32-3.76-39.79,2.12-30.27,14.27-50.3,44.64-60.71,76.44-10.41,31.8-12.62,65.59-16.63,98.81-2.89,23.97-6.76,47.99-8.41,72.04-4.01,8.77-8.61,17.26-13.8,25.39-5.64,8.83-11.99,17.3-16.26,26.88s-6.31,20.66-2.9,30.57c2.37,6.91,7.07,12.5,12.71,17.25,4.14,3.49,8.78,6.52,13.4,9.26,3.71,2.21,7.47,4.32,11.27,6.35.26,2.76.72,5.51,1.39,8.21.26,1.06.56,2.11.88,3.16-.37,8.56-.4,17.08,1.67,25.34,1,3.99,2.45,7.77,4.28,11.37,2.62,5.15,6.01,9.9,9.94,14.27,7.84,8.72,17.82,15.91,28.09,21.65,8.92,4.99,18.27,9.24,27.53,13.62,6.6.21,13.2.34,19.8.33-3.46-5.4-6.91-10.8-10.37-16.2,6.9,5.77,14.14,11.12,21.68,16.03,12.42,8.09,25.63,14.97,39.38,20.49.74-7.57.06-15.28-1.96-22.62-.78-2.86-1.76-5.66-2.95-8.37,3.72,2.58,7.43,5.16,11.15,7.74,4.27-.33,8.54-.66,12.81-.98,4.45-18.44,5.84-37.76,1.27-56.1Z"/>
        <path class="st4" d="M612.28,431.83c-22.44-59.54-53.17-67.09-69.82-66.51,20.09,22.01,35.01,48.72,43.14,77.39,9.91.52,19.88-3.7,26.69-10.88Z"/>
        <path class="st4" d="M616.93,425.65c-1.29,2.25-2.86,4.31-4.64,6.18-6.81,7.18-16.78,11.4-26.69,10.88-8.13-28.67-23.05-55.38-43.14-77.39-1.61-1.77-3.25-3.51-4.92-5.22-6.72,2.5-14.25-.58-20.13-4.68s-11.12-9.34-17.8-11.94c-4.28-1.67-8.94-2.15-13.26-3.72-5.59-2.02-10.41-5.93-13.74-10.84-2.02-2.98-5-4.99-8.28-5.84,1.15,8.4,2.6,16.63,3.54,19.43.74,2.19,1.76,4.57.88,6.71-1.24,3.01-5.25,3.44-8.51,3.35-19.39-.52-38.74-2.9-57.68-7.06,1.74,2.6,3.51,5.19,5.32,7.75,16.54,23.46,36.18,46.03,43.1,73.89,4.56,18.34,3.15,37.66-1.31,56.1,12.85-.95,25.71-1.78,38.59-2.06,49.53-1.07,99.98,5.94,148.1-5.87-5.3-16.98-11.8-33.59-19.42-49.67Z"/>
      </g>
      <g>
        <path class="st5" d="M424.16,53.88c.23,2.67.21,5.33,0,7.98,3.15-.53,6.46.45,9.18,2.18,3,1.91,5.37,4.63,7.62,7.37,14.35,17.51,31.86,52.54,42.92,67.8,14.34,19.78,9.99,88.56,4.52,100.68-1.39,2.64-2.86,5.23-4.4,7.78,6.07-3.89,11.01-9.75,14.81-15.97,16.64-27.27,15.27-61.99,7.64-93-8.32-33.8-23.56-66.07-45.76-92.87-9.47-11.43-20.94-22.29-35.39-25.7-6.11-1.44-13.93-.68-16.66,4.97-.16.32-.29.65-.4.99,9.34,5.83,14.97,16.77,15.93,27.8Z"/>
        <path class="st7" d="M483.52,138.12c-11.06-15.26-28.56-50.29-42.92-67.8-2.25-2.75-4.63-5.47-7.62-7.37-2.71-1.73-6.03-2.71-9.18-2.18-.33.05-.65.11-.97.2-2.17-.61-4.36-.93-6.55-1.01-10.81-.42-21.78,4.97-31.84,10.22-6.24,3.26-12.72,6.72-16.8,12.47-2.72,3.83-4.16,8.4-5.65,12.86-9.07,27.3-8.91,42.41-23.8,67.03-3.58,10.04-10.92,26.83-8.39,37.96,2.29,10.05,3.27,25.7,6.54,35.47,3.75,11.2,9.41,20.7,16.04,28.68,3.8,4.58,7.92,8.66,12.18,12.26,19.74,16.72,42.42,23.35,50.09,23.23,14.86-.23,28.39-8.63,39.56-18.42,3.49-3.06,6.83-6.28,10.02-9.65,7.35-7.77,13.86-16.33,19.4-25.49,1.54-2.55,3.02-5.14,4.4-7.78,5.47-12.12,9.83-80.9-4.52-100.68Z"/>
        <path class="st7" d="M466.35,342.51c-.94-2.8-2.39-11.02-3.54-19.43-1.03-7.5-1.82-15.15-1.8-19.2.05-9.54,2.09-21.23,3.22-31.81-3.19,3.37-6.53,6.59-10.02,9.65-11.17,9.79-24.7,18.19-39.56,18.42-7.67.12-30.35-6.51-50.09-23.23,9.28,22.69,20.71,44.5,34.11,65.03.78,1.2,1.57,2.39,2.37,3.58,18.95,4.16,38.29,6.54,57.68,7.06,3.25.09,7.26-.35,8.51-3.35.88-2.14-.14-4.52-.88-6.71Z"/>
        <path class="st7" d="M293.09,437.17c-1.82-3.6-3.28-7.38-4.27-11.37-2.06-8.27-2.02-16.79-1.65-25.35-.32-1.05-.62-2.1-.88-3.16-.67-2.7-1.12-5.44-1.38-8.21-3.8-2.04-7.56-4.15-11.27-6.36-4.61-2.75-9.25-5.78-13.39-9.27-15.8,5.51-44.99,36.52-43.53,54.35.73,8.93-.97,17.88-1.46,26.83,2.51-1.94,5.74-2.78,8.85-3.52,22.81-5.47,45.83-10.11,68.97-13.93Z"/>
        <path class="st6" d="M331.09,473.12c-10.26-5.75-20.23-12.94-28.07-21.67-3.92-4.37-7.31-9.12-9.93-14.28-23.15,3.82-46.16,8.46-68.97,13.93-3.11.75-6.35,1.59-8.85,3.52-.28.21-.55.43-.81.67-7.47,7.02-1.6,20.63-7.26,29.18,34.51,4.77,69.56.79,104.4.88,15.68.04,31.34.89,47.01,1.39-9.25-4.39-18.6-8.64-27.52-13.64Z"/>
        <path class="st5" d="M452.59,427.07c-6.94-27.85-26.6-50.41-43.16-73.86-1.81-2.56-3.58-5.14-5.32-7.74-.8-1.19-1.59-2.38-2.37-3.58-13.42-20.52-24.87-42.32-34.16-65-4.26-3.6-8.38-7.68-12.19-12.25-6.63-7.97-12.3-17.46-16.06-28.67-3.28-9.77-4.28-25.42-6.57-35.47-2.54-11.12,4.79-27.92,8.36-37.97,14.87-24.63,14.7-39.73,23.75-67.04,1.48-4.46,2.92-9.03,5.64-12.87,4.07-5.74,10.55-9.21,16.79-12.48,10.05-5.26,21.02-10.66,31.83-10.25,2.19.08,4.38.4,6.55,1.01.32-.09.65-.14.97-.2.22-2.65.24-5.32,0-7.98-.97-11.03-6.61-21.96-15.95-27.78-.51-.32-1.03-.64-1.57-.92-12.14-6.53-27.32-3.76-39.79,2.12-30.27,14.27-50.3,44.64-60.71,76.44-10.41,31.8-12.62,65.59-16.63,98.81-2.89,23.97-6.76,47.99-8.41,72.04-4.01,8.77-8.61,17.26-13.8,25.39-5.64,8.83-11.99,17.3-16.26,26.88-4.27,9.57-6.31,20.66-2.9,30.57,2.37,6.91,7.07,12.5,12.71,17.25,4.14,3.49,8.78,6.52,13.4,9.26,3.71,2.21,7.47,4.32,11.27,6.35.26,2.76.72,5.51,1.39,8.21.26,1.06.56,2.11.88,3.16-.37,8.56-.4,17.08,1.67,25.34,1,3.99,2.45,7.77,4.28,11.37,2.62,5.15,6.01,9.9,9.94,14.27,7.84,8.72,17.82,15.91,28.09,21.65,8.92,4.99,18.27,9.24,27.53,13.62,6.6.21,13.2.34,19.8.33-3.46-5.4-6.91-10.8-10.37-16.2,6.9,5.77,14.14,11.12,21.68,16.03,12.42,8.09,25.63,14.97,39.38,20.49.74-7.57.06-15.28-1.96-22.62-.78-2.86-1.76-5.66-2.95-8.37,3.72,2.58,7.43,5.16,11.15,7.74,4.27-.33,8.54-.66,12.81-.98,4.45-18.44,5.84-37.76,1.27-56.1Z"/>
        <path class="st7" d="M610.77,431.83c-22.44-59.54-53.17-67.09-69.82-66.51,20.09,22.01,35.01,48.72,43.14,77.39,9.91.52,19.88-3.7,26.69-10.88Z"/>
        <path class="st6" d="M615.41,425.65c-1.29,2.25-2.86,4.31-4.64,6.18-6.81,7.18-16.78,11.4-26.69,10.88-8.13-28.67-23.05-55.38-43.14-77.39-1.61-1.77-3.25-3.51-4.92-5.22-6.72,2.5-14.25-.58-20.13-4.68s-11.12-9.34-17.8-11.94c-4.28-1.67-8.94-2.15-13.26-3.72-5.59-2.02-10.41-5.93-13.74-10.84-2.02-2.98-5-4.99-8.28-5.84,1.15,8.4,2.6,16.63,3.54,19.43.74,2.19,1.76,4.57.88,6.71-1.24,3.01-5.25,3.44-8.51,3.35-19.39-.52-38.74-2.9-57.68-7.06,1.74,2.6,3.51,5.19,5.32,7.75,16.54,23.46,36.18,46.03,43.1,73.89,4.56,18.34,3.15,37.66-1.31,56.1,12.85-.95,25.71-1.78,38.59-2.06,49.53-1.07,99.98,5.94,148.1-5.87-5.3-16.98-11.8-33.59-19.42-49.67Z"/>
      </g>
      <path class="st1" d="M421.01,205.46c2.19-3.55,6.25-5.87,10.42-5.95.59-.01,1.27.06,1.61.55.35.5.14,1.24-.32,1.63s-1.11.5-1.72.48c-.73-.02-1.46-.19-2.12-.5"/>
      <path class="st1" d="M418.99,207.19c-2.13.67-4.34,1.11-6.56,1.34-.63.06-1.28.11-1.9-.04s-1.22-.52-1.49-1.09"/>
      <path class="st1" d="M390.92,204.71c-2.34-2.32-4.37-5.24-4.38-8.53,0-5.21,5.12-8.71,6.49-8.86"/>
      <path class="st1" d="M433.69,203.71c1.33.14,2.7.16,3.97-.27,2.2-.75,3.79-2.84,4.24-5.11s-.18-4.68-1.4-6.65c-1.22-1.97-3.01-3.54-4.96-4.8"/>
      <path class="st4" d="M450.54,226.33c-4.01-2.36-8.87-2.9-13.51-2.57-4.64.32-9.19,1.45-13.79,2.18-5.61.89-11.29,1.2-16.97,1.17-4.77-.02-9.56-.27-14.28.4-2.74.39-5.42,1.09-8.1,1.79-1.47.38-2.95.77-4.42,1.15-.09.02-.19.05-.24.14-.07.11,0,.25.06.36,3.39,5.86,9.23,10.05,15.59,12.35,6.37,2.3,13.25,2.83,20.01,2.56,5.45-.22,10.94-.96,16.04-2.91,4.68-1.79,8.91-4.55,13.11-7.3,1.4-.91,2.81-1.84,3.93-3.08,1.57-1.74,2.47-3.99,2.57-6.24Z"/>
      <g>
        <path class="st1" d="M424.78,51.81c.23,2.67.21,5.33,0,7.98,3.15-.53,6.46.45,9.18,2.18,3,1.91,5.37,4.63,7.62,7.37,14.35,17.51,31.86,52.54,42.92,67.8,14.34,19.78,9.99,88.56,4.52,100.68-1.39,2.64-2.86,5.23-4.4,7.78,6.07-3.89,11.01-9.75,14.81-15.97,16.64-27.27,15.27-61.99,7.64-93-8.32-33.8-23.56-66.07-45.76-92.87-9.47-11.43-20.94-22.29-35.39-25.7-6.11-1.44-13.93-.68-16.66,4.97-.16.32-.29.65-.4.99,9.34,5.83,14.97,16.77,15.93,27.8Z"/>
        <path class="st1" d="M484.49,137.15c-11.06-15.26-28.56-50.29-42.92-67.8-2.25-2.75-4.63-5.47-7.62-7.37-2.71-1.73-6.03-2.71-9.18-2.18-.33.05-.65.11-.97.2-2.17-.61-4.36-.93-6.55-1.01-10.81-.42-21.78,4.97-31.84,10.22-6.24,3.26-12.72,6.72-16.8,12.47-2.72,3.83-4.16,8.4-5.65,12.86-9.07,27.3-8.91,42.41-23.8,67.03-3.58,10.04-10.92,26.83-8.39,37.96,2.29,10.05,3.27,25.7,6.54,35.47,3.75,11.2,9.41,20.7,16.04,28.68,3.8,4.58,7.92,8.66,12.18,12.26,19.74,16.72,42.42,23.35,50.09,23.23,14.86-.23,28.39-8.63,39.56-18.42,3.49-3.06,6.83-6.28,10.02-9.65,7.35-7.77,13.86-16.33,19.4-25.49,1.54-2.55,3.02-5.14,4.4-7.78,5.47-12.12,9.83-80.9-4.52-100.68Z"/>
        <path class="st1" d="M379.37,486.13c.77,0,1.55.01,2.32,0,3-.02,5.99-.08,8.98-.17-7.53-4.91-14.77-10.27-21.66-16.05,3.45,5.4,6.91,10.8,10.36,16.2Z"/>
        <path class="st1" d="M467.32,341.54c-.94-2.8-2.39-11.02-3.54-19.43-1.03-7.5-1.82-15.15-1.8-19.2.05-9.54,2.09-21.23,3.22-31.81-3.19,3.37-6.53,6.59-10.02,9.65-11.17,9.79-24.7,18.19-39.56,18.42-7.67.12-30.35-6.51-50.09-23.23,9.28,22.69,20.71,44.5,34.11,65.03.78,1.2,1.57,2.39,2.37,3.58,18.95,4.16,38.29,6.54,57.68,7.06,3.25.09,7.26-.35,8.51-3.35.88-2.14-.14-4.52-.88-6.71Z"/>
        <path class="st1" d="M294.06,436.2c-1.82-3.6-3.28-7.38-4.27-11.37-2.06-8.27-2.02-16.79-1.65-25.35-.32-1.05-.62-2.1-.88-3.16-.67-2.7-1.12-5.44-1.38-8.21-3.8-2.04-7.56-4.15-11.27-6.36-4.61-2.75-9.25-5.78-13.39-9.27-15.8,5.51-44.45,38.66-43.53,54.35.52,8.94-.97,17.88-1.46,26.83,2.51-1.94,5.74-2.78,8.85-3.52,22.81-5.47,45.83-10.11,68.97-13.93Z"/>
        <path class="st1" d="M332.06,472.14c-10.26-5.75-20.23-12.94-28.07-21.67-3.92-4.37-7.31-9.12-9.93-14.28-23.15,3.82-46.16,8.46-68.97,13.93-3.11.75-6.35,1.59-8.85,3.52-.28.21-.55.43-.81.67-7.47,7.02-1.6,20.63-7.26,29.18,34.51,4.77,69.56.79,104.4.88,15.68.04,31.34.89,47.01,1.39-9.25-4.39-18.6-8.64-27.52-13.64Z"/>
        <path class="st1" d="M450.44,426.18c-6.92-27.86-26.56-50.43-43.1-73.89-1.81-2.56-3.58-5.14-5.32-7.75-.8-1.19-1.58-2.38-2.37-3.58-13.4-20.53-24.83-42.34-34.11-65.03-4.26-3.61-8.38-7.68-12.18-12.26-6.62-7.97-12.29-17.47-16.04-28.68-3.27-9.77-4.26-25.42-6.54-35.47-2.53-11.13,4.81-27.92,8.39-37.96,14.89-24.62,14.73-39.72,23.8-67.03,1.48-4.46,2.92-9.03,5.65-12.86,4.08-5.74,10.56-9.2,16.8-12.47,10.06-5.26,21.03-10.64,31.84-10.22,2.19.08,4.38.4,6.55,1.01.32-.09.65-.14.97-.2.22-2.65.24-5.32,0-7.98-.96-11.03-6.59-21.96-15.93-27.8-.51-.32-1.03-.64-1.57-.93-12.13-6.54-27.32-3.78-39.79,2.09-30.28,14.25-50.33,44.6-60.77,76.4-10.43,31.8-12.67,65.58-16.7,98.8-2.91,23.97-6.8,47.99-8.46,72.03-4.01,8.77-8.63,17.26-13.82,25.38-5.65,8.83-12,17.29-16.28,26.86s-6.32,20.65-2.93,30.57c2.37,6.91,7.06,12.51,12.7,17.26,4.14,3.49,8.78,6.52,13.39,9.27,3.7,2.21,7.47,4.33,11.27,6.36.26,2.77.71,5.51,1.38,8.21.26,1.06.56,2.11.88,3.16-.38,8.56-.42,17.08,1.65,25.35.99,3.99,2.45,7.78,4.27,11.37,2.62,5.15,6.01,9.91,9.93,14.28,7.84,8.73,17.81,15.92,28.07,21.67,8.92,5,18.26,9.25,27.52,13.64,6.6.21,13.2.35,19.8.34-3.45-5.4-6.91-10.8-10.36-16.2,6.89,5.77,14.13,11.13,21.66,16.05,12.41,8.1,25.61,14.99,39.36,20.52.75-7.57.07-15.28-1.94-22.62-.78-2.86-1.76-5.66-2.94-8.38,3.72,2.58,7.43,5.17,11.15,7.75,4.27-.33,8.54-.66,12.81-.97,4.47-18.44,5.87-37.76,1.31-56.1Z"/>
        <path class="st1" d="M611.74,430.86c-22.44-59.54-53.17-67.09-69.82-66.51,20.09,22.01,35.01,48.72,43.14,77.39,9.91.52,19.88-3.7,26.69-10.88Z"/>
        <path class="st1" d="M616.38,424.67c-1.29,2.25-2.86,4.31-4.64,6.18-6.81,7.18-16.78,11.4-26.69,10.88-8.13-28.67-23.05-55.38-43.14-77.39-1.61-1.77-3.25-3.51-4.92-5.22-6.72,2.5-14.25-.58-20.13-4.68s-11.12-9.34-17.8-11.94c-4.28-1.67-8.94-2.15-13.26-3.72-5.59-2.02-10.41-5.93-13.74-10.84-2.02-2.98-5-4.99-8.28-5.84,1.15,8.4,2.6,16.63,3.54,19.43.74,2.19,1.76,4.57.88,6.71-1.24,3.01-5.25,3.44-8.51,3.35-19.39-.52-38.74-2.9-57.68-7.06,1.74,2.6,3.51,5.19,5.32,7.75,16.54,23.46,36.18,46.03,43.1,73.89,4.56,18.34,3.15,37.66-1.31,56.1,12.85-.95,25.71-1.78,38.59-2.06,49.53-1.07,99.98,5.94,148.1-5.87-5.3-16.98-11.8-33.59-19.42-49.67Z"/>
      </g>
      <circle class="st3" cx="374.96" cy="153.15" r="5.65"/>
      <circle class="st3" cx="447.69" cy="148.81" r="5.65"/>
      <path class="st1" d="M395.77,203.8s4.99-4.69,9.87,0"/>
      <path class="st1" d="M450.54,226.33c-4.01-2.36-8.87-2.9-13.51-2.57-4.64.32-9.19,1.45-13.79,2.18-5.61.89-11.29,1.2-16.97,1.17-4.77-.02-9.56-.27-14.28.4-2.74.39-5.42,1.09-8.1,1.79-1.47.38-2.95.77-4.42,1.15-.09.02-.19.05-.24.14-.07.11,0,.25.06.36,3.39,5.86,9.23,10.05,15.59,12.35,6.37,2.3,13.25,2.83,20.01,2.56,5.45-.22,10.94-.96,16.04-2.91,4.68-1.79,8.91-4.55,13.11-7.3,1.4-.91,2.81-1.84,3.93-3.08,1.57-1.74,2.47-3.99,2.57-6.24Z"/>
    </g>
  </g>
</svg>