<?xml version="1.0" encoding="UTF-8"?>
<svg id="Layer_1" xmlns="http://www.w3.org/2000/svg" xmlns:xlink="http://www.w3.org/1999/xlink" version="1.1" viewBox="0 0 841.89 467.72">
  <!-- Generator: Adobe Illustrator 29.0.0, SVG Export Plug-In . SVG Version: 2.1.0 Build 186)  -->
  <defs>
    <style>
      .st0, .st1 {
        fill: none;
      }

      .st2 {
        fill: #fdf3df;
      }

      .st3 {
        fill: #55565a;
      }

      .st4 {
        fill: #a07570;
      }

      .st5 {
        fill: #37383b;
      }

      .st6 {
        fill: #fff;
      }

      .st7 {
        fill: #ddddde;
      }

      .st8 {
        clip-path: url(#clippath);
      }

      .st1 {
        stroke: #55565a;
        stroke-miterlimit: 10;
      }
    </style>
    <clipPath id="clippath">
      <rect class="st0" y=".19" width="841.89" height="466.52"/>
    </clipPath>
  </defs>
  <g class="st8">
    <rect class="st7" y=".19" width="841.89" height="466.52"/>
    <g>
      <path class="st6" d="M549.85,196.31c.65-6.07.2-9.87-1.19-13.29-.47-1.15-1.04-2.49-.43-3.57.28-.49.77-.86.92-1.4.13-.47-.03-.97-.19-1.43-1.51-4.37-3.02-8.74-4.52-13.12-.84-2.42-1.68-4.87-3.03-7.04-.93-1.51-2.12-2.93-2.44-4.67-.32-1.74.73-3.9,2.5-3.94-3.46-4.06-4.51-10.03-2.65-15.03-1.38-.26-2.03-1.91-2-3.32.04-1.41.5-2.81.27-4.2-.25-1.5-1.27-2.74-2.25-3.91-3.16-3.77-6.37-7.81-7.28-12.65-.12-.63-.2-1.29-.49-1.86-.28-.55-.74-.99-1.19-1.42-3.11-2.94-6.22-5.88-9.32-8.83-1.29.91-2.65,1.84-4.22,1.99-1.57.15-3.36-.81-3.54-2.37-5,1.5-10.72.38-14.78-2.91-1.06-.86-2.05-1.88-3.33-2.37-1.62-.62-3.49-.3-5.1-.97-1.31-.54-2.28-1.67-3.48-2.44-2.32-1.49-5.25-1.49-7.96-2.05-5.49-1.14-10.74-4.76-16.22-3.57-2.96-1.61-6.51,2.15-9.8.88-1.52-.59-2.51-2.13-4.02-2.72-1.62-.64-3.46-.05-5.02.74-1.56.79-3.06,1.79-4.79,2.03s-3.78-.62-4.14-2.33c-.62,1.93-3.27,1.93-5.3,2.05-3.32.19-6.39,1.69-9.54,2.73-3.15,1.04-6.77,1.6-9.68,0-.36,1.02-.8,2.13-1.74,2.67-.95.53-2.49-.04-2.41-1.12-8.2,3.99-16.67,7.43-25.33,10.28.66.59-.22,1.98-1.26,2.29s-2.22.13-3.18.64c-.84.44-1.34,1.31-1.8,2.13-3.52,6.3-7.04,12.6-10.56,18.9-1.32,2.37-2.67,4.8-3.05,7.49-.26,1.82-.06,3.67-.07,5.51-.01,2.65-.45,5.27-.89,7.88-.99,5.87-1.98,11.75-2.98,17.62-.4,2.37-.89,4.91-2.61,6.59-.56.55-1.24.99-1.67,1.64-.42.64-.55,1.41-.68,2.16-1.68,9.94-3.37,19.95-3.12,30.02.15,6.16,1.02,12.27,1.41,18.42.74,11.67-.26,23.45-2.97,34.83-.19,1.98-.28,4.05-.31,6.18.02.57.04,1.13.07,1.7.15,3.6.36,7.22.51,10.83.12,1.3.25,2.6.4,3.9.22,1.93.76,4.22,2.59,4.85.67.24,1.42.19,2.11.38,3.46.96,4,7.1,7.59,6.98.98-.04,2.15-.55,2.82.16.31.33.38.81.44,1.27.18,1.5.36,2.99.53,4.49,3.37.17,6.35,2.45,8.23,5.25,1.88,2.8,2.85,6.1,3.79,9.34,2.08-2.77,3.92-5.78,6.18-8.44.42-.49.9-1,1.54-1.13.45-.09.91.02,1.37.03,2.76.07,4.18-3.19,6.27-4.99,2.83-2.43,7.07-2.13,10.69-1.21s7.3,2.32,10.97,1.64c.58-.11,1.23-.33,1.46-.87.16-.38.08-.81.14-1.21.26-1.79,2.78-1.98,4.52-1.51,1.74.47,4.02.96,5.01-.55.3-.46.41-1.04.76-1.46.53-.64,1.44-.76,2.26-.84,2.7-.26,5.39-.52,8.09-.78,2.92.17,6.02.4,9.21.65,1.14,1.05,2.28,2.11,3.6,2.9,2.05,1.22,4.44,1.72,6.78,2.19,3.52.7,7.11,1.37,10.68.98,1.21-.13,2.43-.4,3.48-1.01,1-.59,1.79-1.47,2.63-2.28.31-.31.66-.58.98-.87.33,0,.66,0,.99-.02,2.96-.11,5.94-.43,8.89-.12,4.33.46,8.52,2.25,12.86,1.97,2.89-.19,6.14-1.22,8.46.51.85.63,1.47,1.59,2.44,2.01.75.33,1.59.29,2.41.26,5.11-.16,10.24.4,15.2,1.67,2.47-.72,4.83.53,6.29,2.32s2.21,4.04,2.93,6.24c1.12,3.42,2.25,6.86,2.59,10.44.24,2.46.09,4.96-.46,7.37.64.34,1.27-.45,1.57-1.11,2.1-4.68,4.06-9.43,5.88-14.23,5.37-5.83,7.49-9.41,8.45-13.28.44-1.77.76-3.78,2.22-4.86.5-.37,1.11-.6,1.55-1.04.87-.86.88-2.22,1.08-3.42.47-2.9,2.37-5.54,4.98-6.89.91-.47,1.96-.85,2.49-1.73.33-.55.4-1.22.45-1.86,2.05-26.1-9.35-51.57-9.54-77.75Z"/>
      <path class="st6" d="M335.78,281.01c-.99-2.52-1.07-5.39-.26-7.99-.33-1.61-.67-3.25-.45-4.88.22-1.63,1.11-3.26,2.62-3.92-1.39-2.14-2.17-4.69-2.2-7.24,0-.67.63-1.6,1.08-1.1-2.87-4.22,1.69-10,.36-14.92-.35-1.32-1.13-2.68-.64-3.95.21-.56.65-1.01.87-1.57.27-.68.18-1.44.1-2.17-.52-4.3-.59-4.9-1.11-9.2l-.03-2.16c.33-1.76.48-3.54.54-5.32-.82-.91-1.69-1.76-2.68-2.51-1.38-1.04-3.08-1.89-4.78-1.58-1.71.32-3.03,1.79-3.64,3.42-.61,1.63-.63,3.42-.63,5.16.09,20.92,3.77,41.81,10.76,61.53.39-.26.31-1.06.1-1.59Z"/>
      <path class="st6" d="M343,272.01c-.15-3.61-.35-7.23-.51-10.83-.02-.57-.05-1.13-.07-1.7-.05,4.03.17,8.26.57,12.53Z"/>
      <path class="st6" d="M562.96,217.87c.18.69.56,1.33.61,2.04.14,2.01-2.3,3.66-1.81,5.61.22.89,1.01,1.51,1.44,2.32.81,1.53.23,3.39-.18,5.08-.41,1.69-.49,3.78.9,4.82.48.36,1.12.57,1.41,1.1.46.86-.32,1.86-.38,2.83-.1,1.4,1.22,2.42,1.94,3.63,1.05,1.77.69,4.26-.83,5.65l-.32,1.02-1.49,4.7c-.15.48-.31.97-.27,1.48.08,1.08,1.01,1.93,1.17,3,.16,1.1-.51,2.13-1.01,3.12-1.07,2.13-1.44,4.61-1.03,6.96.22,1.27.67,2.5.73,3.78.1,1.85-.59,3.64-1.33,5.33-.3.68-.62,1.39-.56,2.13.03.36.15.69.31,1.01,2.98-3.21,5.66-6.69,7.28-10.73.96-2.4,1.53-4.93,2.04-7.46,2.41-11.94,3.61-24.13,3.59-36.31,0-3.2-.1-6.43-.89-9.54s-2.33-6.1-4.8-8.13c-1.22-1-2.75-1.76-4.32-1.6-.47.59-.9,1.11-1.22,1.39-.11,2.3-1.56,4.55-.96,6.77Z"/>
      <path class="st6" d="M392.38,334.16c-1.13.64-2.26,1.52-2.55,2.78-.28,1.19.26,2.4.72,3.54,1.52,3.76,2.3,7.82,2.39,11.18,4.94,4.5,4.42,12.5,8.03,18.12.57.88,1.26,1.8,1.16,2.85-.1.99-.89,1.76-1.23,2.69-1.01,2.81,2.26,5.34,2.67,8.3.38,2.72-1.69,5.68-.34,8.07.81-.23,1.62-.46,2.43-.69,1.26,2,.07,4.62.31,6.97.29,2.78,2.55,4.89,4.67,6.73,1.19-.4,1.87-1.61,2.62-2.61.75-1.01,1.96-1.96,3.15-1.56,1.52.51,1.57,2.62,1.46,3.92.73,1.13,1.58,2.19,2.53,3.14.96-.43,1.78-1.15,3.3-1.74.91,1.39,2.56,2.27,4.23,2.25,1.11-.01,2.22-.39,3.32-.23,1.46.21,2.6,1.33,3.91,2.01s3.27.74,3.92-.59c1.07,1.35,2.82,1.98,4.52,2.24,5.13.79,10.23-1.19,15.15-2.85,4.1-1.38,8.28-2.57,12.54-3.31,1.12-.19,2.55-.21,3.05.81-.03-1.63,1.92-2.45,3.5-2.83,1.96-.47,4.15-.91,5.9.09.48-.85.96-1.71,1.99-2.68,1.89-1.1,3.89-2.23,6.07-2.32.46-.02.94,0,1.37-.19.73-.32,1.07-1.16,1.64-1.72.72-.7,1.78-.9,2.67-1.37,1.74-.91,2.82-2.95,2.6-4.9-.09-.79-.37-1.56-.34-2.36.02-.8.49-1.67,1.28-1.78.71-.1,1.38.45,2.1.44.81-.02,1.41-.72,2.08-.2-.48-2.08-.96-4.15-1.43-6.23,1.25,1.51,3.86.35,4.72-1.41s.73-3.84,1.4-5.67c.58-1.58,1.71-2.89,2.59-4.32,1.27-2.07,2.03-4.41,2.77-6.72,1.15-3.59,2.3-7.17,3.43-10.77.56-1.78,1.11-3.59,1.13-5.45.02-2.82-1.28-5.62-3.44-7.42.67-1.1,1.93-1.82,3.22-1.84,1.06-3.4-2.27-6.37-4.51-9.14-2.87-3.55-4.26-8.27-3.78-12.81-.67-.04-1.35.17-2.62.45-.99-2.18-1.98-4.35-2.96-6.53-.05.53-.11,1.05-.16,1.58-.71-.77-2.06-.82-2.83-.12-.11-1.46-2.12-2.35-3.27-1.46-.22-.84-.65-1.63-1.23-2.28-.2,1.14-1.79,1.45-2.85.98-1.06-.47-1.87-1.39-2.92-1.87s-2.64-.21-4.19.9l-5.4-2.33c-.45-.19-.95-.39-1.41-.22-.88.33-.98,1.75-1.88,2-1.22-.58-1.74-2.49-3.09-2.43-1.33.06-1.75,2.02-3,2.47-.18-1.51-2.16-2.07-3.63-1.71-1.47.35-2.84,1.24-4.36,1.23-1.1,0-2.21-.49-3.28-.25-.57.13-1.09.47-1.67.56-1.65.27-3.68-1.35-4.47-.29-2.97-.78-5.95-1.55-8.92-2.33-.26,1-1.44,1.4-2.45,1.64-.86.2-1.75.41-2.61.23-.86-.18-1.69-.86-1.73-1.74-.92.86-1.85,1.71-2.77,2.57-.23.21-.48.44-.8.46-.42.03-.76-.32-1.06-.62-1.45-1.48-3.35-2.51-5.38-2.92-.32-.06-.66-.11-.95.01-.3.12-.5.39-.68.65-.63.9-1.18,1.87-1.63,2.88-.57-1.34-2.7-1.6-4.74-.73-2.08-.34-4.17-.68-6.25-1.03-.37.78-.75,1.55-1.12,2.33-.08.17-.17.35-.33.46-.24.16-.55.11-.82.03-.76-.25-1.39-.79-2.1-1.15s-1.65-.5-2.27,0c-.25.21-.42.5-.69.68-.6.41-1.42.11-2.02-.3-.6-.41-1.18-.94-1.9-.99-.04.72-.09,1.44-.13,2.16-.01.2-.03.41-.17.55-.14.15-.36.18-.57.19-1.47.13-2.93.26-4.4.4,0,0-1.72,1.05-1.17,2.1-.22,1.6-.43,3.2-.65,4.81-1,.08-1.97.49-2.71,1.16.38.45.76.89,1.13,1.34-1.03,1.78-2.67,3.2-4.58,3.96.56.83,1.12,1.66,1.68,2.49-.19.94.18,1.97.92,2.58-2.06,1.07-3.92,2.54-5.43,4.3,1.43.55,2.69,1.51,3.61,2.74Z"/>
      <path class="st6" d="M512.75,453.12c-.45-6.86-1.2-13.74-1.27-20.6-.78.49-1.61.87-2.51,1.07.06,1.85-1.26,3.51-2.88,4.41s-3.49,1.16-6.81,1.17c-2.55,3.77-5.75,7.11-9.42,9.81-.9-1.49-3.08-1.5-4.71-.9-1.63.6-3.17,1.64-4.9,1.65-1.71.01-3.26-.98-4.94-1.33-3.41-.7-6.71,1.31-10.08,2.16-4.85,1.23-10,.04-14.64-1.83-.73,3.07-4.98,3.51-8.02,2.67-3.04-.84-6.48-2.22-9.14-.53-.31-.97-.62-1.95-.93-2.92-1.23,2.72-5.18,2.27-8.02,1.37-3.44-1.09-7.23-2.46-8.88-5.67-1.18.26-2.38.36-3.59.35,6.75,9.91,13.38,19.9,19.66,30.11,1.39,2.27,2.76,4.56,4,6.91,7.49,1.35,15.18,1.16,22.8.94,16.12-.47,32.26-.98,48.32-2.42,2.14-.19,4.49-.53,6.23-1.67.35-8.24.26-16.51-.29-24.74Z"/>
      <path class="st6" d="M674.65,487.83c-1.27-6.18-3-12.26-5.18-18.18-1.42-3.86-3.99-8.31-8.1-8.19-1.97.06-3.88,1.23-5.8.81-1.37-.31-2.43-1.37-3.49-2.3-6.97-6.13-16.79-7.93-24.35-13.32-7.16-5.11-11.87-13.13-19.15-18.05-7.34-4.95-16.65-6.32-23.99-11.26-5.64-3.8-9.77-9.48-15.19-13.59-3.82-2.9-8.18-4.94-12.66-6.72,3.53,7.26,6.34,15.07,9.72,22.37,4.82,10.42,11.04,20.13,16.06,30.45,4.39,9.02,7.88,18.74,8.4,28.71,16.9,1.28,33.71,3.81,50.24,7.57,9.59,2.18,19.12,4.78,28.9,5.9,1.66.19,3.73.14,4.51-1.34.46-.86.29-1.9.09-2.86Z"/>
      <path class="st6" d="M590.91,478.56c-.52-9.97-4.02-19.68-8.4-28.71-5.02-10.32-11.24-20.04-16.06-30.45-3.37-7.29-6.19-15.11-9.72-22.37-3.53-7.27-7.78-13.99-14.02-19.08-.21-.17-.42-.33-.65-.49-.26,1.07-.51,2.14-.77,3.2-1.21,4.99-2.46,9.97-3.74,14.94-.69,2.65-1.64,5.62-4.13,6.77,1.35.6,1.22,2.69.25,3.79-.98,1.1-2.45,1.61-3.64,2.48-4.32,3.12-4.35,10.11-8.74,13.13-.43.3-.9.55-1.37.8-1,.53-2.02,1.03-2.74,1.89-.68.83-1,1.88-1.42,2.87-.88,2.1-2.37,4.01-4.28,5.2.07,6.86.82,13.74,1.27,20.6.54,8.23.63,16.49.29,24.74-.79,18.84-3.9,37.59-9.26,55.68,6.33-1.21,12.56-2.95,18.59-5.22,6.02-2.79,11.45-7.2,15.98-12.39,1.98-2.27,3.87-4.74,6.51-6.18,3.17-1.72,7.03-1.72,10.3-3.23,4.28-1.98,7.04-6.3,8.61-10.74,1.57-4.44,2.2-9.17,3.6-13.67.55-1.78,1.53-3.74,3.11-4.49.96.02,1.91.03,2.87.06,1.75.95,2.76,3.5,3.14,5.67,1.7,9.47,1.28,19.31-1.21,28.61,9.88-5.85,15.21-17.61,15.64-29.08.05-1.44.04-2.88-.04-4.32Z"/>
      <path class="st6" d="M349.26,447.16c-4.94-13.45-12.92-25.57-21.6-36.97,1.19-1.2,2.25-2.49,3.2-3.85-7.15,3.38-14.79,5.97-22.1,9.03-21.44,8.97-40.75,22.39-61.9,32.04-5.91,2.7-11.99,5.12-17.34,8.81-10.32,7.12-16.99,18.29-23.34,29.11,8.45-.11,16.75,1.96,25.12,3.1,15.87,2.16,31.98.97,47.94-.34,25.1-2.05,50.35-4.41,74.79-10.25.71-10.34-1.18-20.91-4.78-30.68Z"/>
      <path class="st6" d="M437.89,485.57c-.66-1.56-1.41-3.07-2.2-4.56-1.25-2.35-2.61-4.64-4-6.91-6.28-10.21-12.91-20.19-19.66-30.11-6.36-.08-12.67-3.84-15.44-9.61-1.29.4-2.63.49-3.96.33-2.52-.29-4.98-1.46-6.91-3.14-2.95-2.56-4.85-6.13-6.28-9.76-.49-1.25-.98-2.58-1.99-3.46-.89-.78-2.07-1.12-3.11-1.69-2.64-1.45-4.25-4.6-3.88-7.59.11-.85.35-1.75.03-2.54-.3-.75-1.03-1.22-1.66-1.72-2.99-2.42-4.14-6.37-5.73-9.87-3.28-7.25-8.95-13.29-11.76-20.74l.37.12c.4-2.83-.15-5.79-1.54-8.29-.62-1.12-1.43-2.24-1.43-3.52,0-.27.04-.55.09-.82-9.75,12.67-8.93,31.76-17.98,44.65-.95,1.36-2.01,2.64-3.2,3.85,8.68,11.4,16.66,23.52,21.6,36.97,3.59,9.78,5.49,20.34,4.78,30.68-.27,3.88-.89,7.73-1.94,11.5,13.09-4.49,27.29-4.67,41.06-3.32,13.77,1.34,27.38,4.14,41.16,5.44,1.13.11,2.37.17,3.27-.51,1.54-1.17,1.06-3.59.3-5.37Z"/>
      <g>
        <path class="st6" d="M516.38,338.35c.67-1.1,1.93-1.82,3.22-1.84,1.06-3.4-2.27-6.37-4.51-9.14-2.87-3.55-4.26-8.27-3.78-12.81-.67-.04-1.35.17-2.62.45-.99-2.18-1.98-4.35-2.96-6.53-.05.53-.11,1.05-.16,1.58-.71-.77-2.06-.82-2.83-.12-.11-1.46-2.12-2.35-3.27-1.46-.22-.84-.65-1.63-1.23-2.28-.2,1.14-1.79,1.45-2.85.98-1.06-.47-1.87-1.39-2.92-1.87s-2.64-.21-4.19.9l-5.4-2.33c-.45-.19-.95-.39-1.41-.22-.88.33-.98,1.75-1.88,2-1.22-.58-1.74-2.49-3.09-2.43-1.33.06-1.75,2.02-3,2.47-.18-1.51-2.16-2.07-3.63-1.71-1.47.35-2.84,1.24-4.36,1.23-1.1,0-2.21-.49-3.28-.25-.57.13-1.09.47-1.67.56-1.65.27-3.68-1.35-4.47-.29-2.97-.78-5.95-1.55-8.92-2.33-.26,1-1.44,1.4-2.45,1.64-.86.2-1.75.41-2.61.23-.86-.18-1.69-.86-1.73-1.74-.92.86-1.85,1.71-2.77,2.57-.23.21-.48.44-.8.46-.42.03-.76-.32-1.06-.62-1.45-1.48-3.35-2.51-5.38-2.92-.32-.06-.66-.11-.95.01-.3.12-.5.39-.68.65-.63.9-1.18,1.87-1.63,2.88-.57-1.34-2.7-1.6-4.74-.73-2.08-.34-4.17-.68-6.25-1.03-.37.78-.75,1.55-1.12,2.33-.08.17-.17.35-.33.46-.24.16-.55.11-.82.03-.76-.25-1.39-.79-2.1-1.15s-1.65-.5-2.27,0c-.25.21-.42.5-.69.68-.6.41-1.42.11-2.02-.3-.6-.41-1.18-.94-1.9-.99-.04.72-.09,1.44-.13,2.16-.01.2-.03.41-.17.55-.14.15-.36.18-.57.19-1.47.13-2.93.26-4.4.4,0,0-1.72,1.05-1.17,2.1-.22,1.6-.43,3.2-.65,4.81-1,.08-1.97.49-2.71,1.16.38.45.76.89,1.13,1.34-1.03,1.78-2.67,3.2-4.58,3.96.56.83,1.12,1.66,1.68,2.49-.19.94.18,1.97.92,2.58-2.06,1.07-3.92,2.54-5.43,4.3,1.43.55,2.69,1.51,3.61,2.74-1.13.64-2.26,1.52-2.55,2.78-.28,1.19.26,2.4.72,3.54,1.52,3.76,2.3,7.82,2.39,11.18,4.94,4.5,4.42,12.5,8.03,18.12.57.88,1.26,1.8,1.16,2.85-.1.99-.89,1.76-1.23,2.69-1.01,2.81,2.26,5.34,2.67,8.3.38,2.72-1.69,5.68-.34,8.07.81-.23,1.62-.46,2.43-.69,1.26,2,.07,4.62.31,6.97.29,2.78,2.55,4.89,4.67,6.73,1.19-.4,1.87-1.61,2.62-2.61.75-1.01,1.96-1.96,3.15-1.56,1.52.51,1.57,2.62,1.46,3.92.73,1.13,1.58,2.19,2.53,3.14.96-.43,1.78-1.15,3.3-1.74.91,1.39,2.56,2.27,4.23,2.25,1.11-.01,2.22-.39,3.32-.23,1.46.21,2.6,1.33,3.91,2.01s3.27.74,3.92-.59c1.07,1.35,2.82,1.98,4.52,2.24,5.13.79,10.23-1.19,15.15-2.85,4.1-1.38,8.28-2.57,12.54-3.31,1.12-.19,2.55-.21,3.05.81-.03-1.63,1.92-2.45,3.5-2.83,1.96-.47,4.15-.91,5.9.09.48-.85.96-1.71,1.99-2.68,1.89-1.1,3.89-2.23,6.07-2.32.46-.02.94,0,1.37-.19.73-.32,1.07-1.16,1.64-1.72.72-.7,1.78-.9,2.67-1.37,1.74-.91,2.82-2.95,2.6-4.9-.09-.79-.37-1.56-.34-2.36.02-.8.49-1.67,1.28-1.78.71-.1,1.38.45,2.1.44.81-.02,1.41-.72,2.08-.2-.48-2.08-.96-4.15-1.43-6.23,1.25,1.51,3.86.35,4.72-1.41s.73-3.84,1.4-5.67c.58-1.58,1.71-2.89,2.59-4.32,1.27-2.07,2.03-4.41,2.77-6.72,1.15-3.59,2.3-7.17,3.43-10.77.56-1.78,1.11-3.59,1.13-5.45.02-2.82-1.28-5.62-3.44-7.42Z"/>
        <path class="st6" d="M566.87,245.31c-.72-1.2-2.04-2.23-1.94-3.63.07-.97.84-1.97.38-2.83-.28-.53-.92-.74-1.41-1.1-1.39-1.04-1.31-3.13-.9-4.82.41-1.69.99-3.54.18-5.08-.43-.81-1.21-1.43-1.44-2.32-.49-1.95,1.95-3.6,1.81-5.61-.05-.71-.42-1.35-.61-2.04-.59-2.23.85-4.47.96-6.77.32-.29.75-.8,1.22-1.39.24-.3.48-.6.72-.92.23-.29.46-.6.53-.97.24-1.37-1.72-1.83-2.81-2.68-1.07-.83-1.39-2.33-1.25-3.68.14-1.34.64-2.62.92-3.94,1.05-4.95-1.15-10.11-.36-15.11.51-3.24,2.27-6.37,1.76-9.62-.3-1.93-1.39-3.67-1.81-5.58-.83-3.71.9-7.64.04-11.34-.31-1.34-.95-2.57-1.39-3.87-1.47-4.3-.74-9,0-13.49.29-3.51,3.03-5.07,2.42-7.16-.34-1.17-1.58-1.77-2.5-2.57-3.1-2.7-2.49-7.73-4.54-11.29-1.04-1.8-2.8-3.32-3.02-5.39-.11-1.03.2-2.08.09-3.11-.3-2.69-3.21-4.27-4.37-6.71-1.06-2.22-.72-5.21-2.62-6.78-.93-.77-2.19-.99-3.28-1.51-4.07-1.93-4.87-7.28-7.41-11-2.57-3.76-7.05-5.92-9.46-9.78-1.07-1.71-1.75-3.77-3.35-4.99-.95-.72-2.13-1.07-3.13-1.71-1.05-.68-1.87-1.66-2.75-2.55-3.3-3.28-7.82-5.31-12.47-5.58-4.7-4.06-9.6-8.08-15.24-7.66-1.63.12-3.26.63-4.89.39-.98-.14-1.9-.55-2.81-.95-7.83-3.36-16.1-5.61-24.46-7.27-4.42-.88-8.9-1.6-13.41-1.59-8.15.03-16.08,2.44-23.87,4.84-3.74-2.38-7.27-1.9-10.19-.66-2.92,1.24-5.53,3.14-8.46,4.37-1.45.61-3.1,1.14-3.9,2.5-.35.59-.5,1.29-.9,1.85-.56.77-1.5,1.14-2.38,1.49-12.87,5.09-24.34,13.66-32.88,24.55-3.49,2.19-6.36,6.13-8.91,10.06-1.02,1.56-2.01,3.15-2.93,4.77-4.85,8.45-8.05,17.85-9.35,27.5-1.93.06-3.26.12-4.54.41,0,2.8.53,5.6,1.53,8.21-.46-.41-1.12.23-1.37.79-3.43,7.57-1.2,16.33-.95,24.63.22,7.69-1.32,15.35-1.27,23.04.04,4.92.73,9.82,1.29,14.71.57,4.96,1,9.94,1.29,14.93.14,2.41.24,4.84.16,7.25-.06,1.79-.22,3.56-.54,5.32l.03,2.16c.52,4.3.59,4.9,1.11,9.2.09.73.17,1.49-.1,2.17-.22.56-.65,1.01-.87,1.57-.48,1.27.29,2.64.64,3.95,1.33,4.93-3.23,10.7-.36,14.92-.45-.5-1.09.43-1.08,1.1.03,2.56.81,5.1,2.2,7.24-1.5.66-2.39,2.29-2.62,3.92-.22,1.63.11,3.27.45,4.88-.81,2.61-.73,5.47.26,7.99.21.53.3,1.34-.1,1.59-.07.04-.15.08-.25.08-.56,1.83-.26,3.9.78,5.5.3.47.67.91.78,1.46.19.93-.42,1.81-.86,2.65-1.91,3.6-.78,8.53,2.52,10.93-.91-.12-1.71.74-1.87,1.64-.16.9.15,1.81.45,2.68.96,2.75,1.92,5.5,2.88,8.24-.73-.06-.75.72-.48,1.25.27.54.73.95,1.01,1.48,1.01,1.92-.75,4.08-1.19,6.2-.4,1.94.44,4.08,2.06,5.23-1.02.24-1.37,1.58-1.05,2.58.32.99,1.06,1.79,1.53,2.72,1.01,1.99.69,4.36.9,6.59.21,2.23,1.39,4.76,3.61,5.03-.72,3.81-.06,7.87,1.83,11.26.29.53.62,1.06.72,1.66.1.64-.08,1.28-.2,1.92-.05.27-.09.55-.09.82,0,1.28.81,2.4,1.43,3.52,1.39,2.5,1.93,5.46,1.54,8.29l-.37-.12c2.81,7.45,8.48,13.49,11.76,20.74,1.59,3.5,2.74,7.45,5.73,9.87.63.51,1.35.98,1.66,1.72.32.8.08,1.69-.03,2.54-.37,2.99,1.23,6.14,3.88,7.59,1.04.57,2.22.91,3.11,1.69,1.01.89,1.49,2.21,1.99,3.46,1.43,3.64,3.33,7.2,6.28,9.76,1.93,1.67,4.39,2.85,6.91,3.14,1.33.15,2.67.06,3.96-.33,2.77,5.77,9.08,9.53,15.44,9.61,1.2.02,2.4-.09,3.59-.35,1.64,3.21,5.43,4.58,8.88,5.67,2.84.9,6.79,1.35,8.02-1.37.31.97.62,1.95.93,2.92,2.66-1.69,6.1-.31,9.14.53,3.04.84,7.28.4,8.02-2.67,4.64,1.87,9.79,3.06,14.64,1.83,3.37-.86,6.67-2.86,10.08-2.16,1.68.35,3.23,1.34,4.94,1.33,1.74-.01,3.27-1.05,4.9-1.65,1.63-.6,3.81-.59,4.71.9,3.67-2.7,6.87-6.04,9.42-9.81,3.31,0,5.19-.28,6.81-1.17s2.94-2.56,2.88-4.41c.9-.21,1.74-.59,2.51-1.07,1.9-1.19,3.39-3.11,4.28-5.2.42-.99.74-2.05,1.42-2.87.71-.86,1.73-1.36,2.74-1.89.47-.25.94-.5,1.37-.8,4.39-3.02,4.42-10.01,8.74-13.13,1.2-.86,2.67-1.37,3.64-2.48.98-1.1,1.1-3.18-.25-3.79,2.48-1.15,3.44-4.12,4.13-6.77,1.29-4.97,2.53-9.95,3.74-14.94.26-1.07.52-2.14.77-3.2,2.17-9.03,4.34-18.07,7.55-26.78,2.28-1.97,3.73-4.6,3.96-7.36.07-.76.05-1.55.35-2.24.26-.59.72-1.05,1.05-1.6.6-.98.77-2.22.44-3.33-.11-.36-.26-.74-.15-1.1.14-.46.65-.68,1.05-.95,1.3-.9,1.61-2.69,1.57-4.27-.04-1.58-.3-3.23.28-4.7.4-1,1.16-1.82,1.7-2.75s.85-2.14.3-3.07c-.25-.42-.65-.73-.88-1.16-.65-1.22.29-2.63.83-3.91,1.25-2.98.3-6.67,2.03-9.41,1.4-1.98,2.67-3.77,3.01-5.85.34-2.08-.56-4.52-2.54-5.23-.25-.09-.52-.16-.69-.35-.48-.54.17-1.32.68-1.85,1.56-1.62,1.9-4.28.79-6.24-.35-.62-.84-1.2-1.15-1.83-.16-.32-.28-.65-.31-1.01-.06-.74.26-1.45.56-2.13.75-1.69,1.43-3.48,1.33-5.33-.07-1.28-.51-2.52-.73-3.78-.41-2.35-.05-4.83,1.03-6.96.5-.99,1.18-2.02,1.01-3.12-.16-1.07-1.09-1.92-1.17-3-.04-.5.12-1,.27-1.48l1.49-4.7.32-1.02c1.52-1.39,1.89-3.88.83-5.65ZM518.69,351.22c-1.13,3.59-2.28,7.18-3.43,10.77-.74,2.31-1.5,4.65-2.77,6.72-.88,1.44-2.01,2.74-2.59,4.32-.67,1.83-.55,3.91-1.4,5.67s-3.47,2.91-4.72,1.41c.48,2.08.96,4.15,1.43,6.23-.66-.52-1.27.18-2.08.2-.72.02-1.38-.54-2.1-.44-.79.11-1.25.99-1.28,1.78-.02.8.26,1.57.34,2.36.22,1.95-.86,3.99-2.6,4.9-.89.47-1.94.67-2.67,1.37-.58.55-.91,1.39-1.64,1.72-.42.19-.91.16-1.37.19-2.19.1-4.18,1.22-6.07,2.32-1.02.97-1.51,1.83-1.99,2.68-1.75-1-3.94-.56-5.9-.09-1.59.38-3.53,1.2-3.5,2.83-.5-1.02-1.94-1-3.05-.81-4.26.74-8.44,1.93-12.54,3.31-4.92,1.66-10.02,3.64-15.15,2.85-1.7-.26-3.45-.89-4.52-2.24-.65,1.33-2.61,1.27-3.92.59s-2.45-1.8-3.91-2.01c-1.1-.16-2.21.22-3.32.23-1.67.02-3.31-.86-4.23-2.25-1.52.59-2.35,1.31-3.3,1.74-.95-.95-1.8-2.01-2.53-3.14.11-1.31.06-3.41-1.46-3.92-1.19-.4-2.4.56-3.15,1.56-.75,1.01-1.43,2.21-2.62,2.61-2.11-1.84-4.37-3.94-4.67-6.73-.25-2.35.95-4.97-.31-6.97-.81.23-1.62.46-2.43.69-1.34-2.4.73-5.35.34-8.07-.42-2.96-3.69-5.49-2.67-8.3.34-.93,1.13-1.7,1.23-2.69.1-1.04-.59-1.97-1.16-2.85-3.61-5.62-3.1-13.62-8.03-18.12-.09-3.36-.87-7.42-2.39-11.18-.46-1.13-1-2.34-.72-3.54.29-1.26,1.42-2.14,2.55-2.78-.91-1.23-2.18-2.19-3.61-2.74,1.52-1.76,3.37-3.23,5.43-4.3-.74-.61-1.11-1.64-.92-2.58-.56-.83-1.12-1.66-1.68-2.49,1.91-.76,3.55-2.18,4.58-3.96-.38-.45-.76-.89-1.13-1.34.74-.67,1.71-1.08,2.71-1.16.22-1.6.43-3.2.65-4.81-.55-1.05,1.17-2.1,1.17-2.1,1.47-.13,2.93-.26,4.4-.4.2-.02.43-.05.57-.19.14-.14.15-.36.17-.55.04-.72.09-1.44.13-2.16.72.05,1.3.58,1.9.99.6.41,1.42.71,2.02.3.27-.18.44-.48.69-.68.62-.51,1.55-.37,2.27,0s1.34.9,2.1,1.15c.27.09.59.13.82-.03.16-.11.25-.29.33-.46.37-.78.75-1.55,1.12-2.33,2.08.34,4.17.68,6.25,1.03,2.04-.87,4.17-.61,4.74.73.45-1.01.99-1.97,1.63-2.88.18-.26.39-.53.68-.65.3-.12.64-.08.95-.01,2.03.41,3.93,1.44,5.38,2.92.3.3.64.65,1.06.62.31-.02.57-.24.8-.46.92-.86,1.85-1.71,2.77-2.57.05.88.87,1.56,1.73,1.74.86.18,1.75-.02,2.61-.23,1.01-.24,2.19-.64,2.45-1.64,2.97.78,5.95,1.55,8.92,2.33.78-1.06,2.81.56,4.47.29.58-.09,1.1-.43,1.67-.56,1.07-.25,2.18.24,3.28.25,1.52,0,2.88-.88,4.36-1.23,1.48-.35,3.46.21,3.63,1.71,1.25-.45,1.67-2.41,3-2.47,1.35-.06,1.87,1.85,3.09,2.43.91-.25,1-1.68,1.88-2,.46-.17.96.03,1.41.22l5.4,2.33c1.55-1.11,3.14-1.38,4.19-.9s1.86,1.4,2.92,1.87c1.06.47,2.65.16,2.85-.98.58.65,1.01,1.44,1.23,2.28,1.16-.89,3.16,0,3.27,1.46.78-.7,2.12-.65,2.83.12.05-.53.11-1.05.16-1.58.99,2.18,1.98,4.35,2.96,6.53,1.27-.28,1.95-.49,2.62-.45-.48,4.54.91,9.25,3.78,12.81,2.24,2.77,5.57,5.74,4.51,9.14-1.29.02-2.55.74-3.22,1.84,2.17,1.8,3.47,4.61,3.44,7.42-.02,1.86-.57,3.67-1.13,5.45ZM559.39,274.06c-.05.64-.12,1.31-.45,1.86-.53.88-1.58,1.26-2.49,1.73-2.61,1.36-4.51,3.99-4.98,6.89-.19,1.2-.21,2.57-1.08,3.42-.44.44-1.05.67-1.55,1.04-1.46,1.08-1.78,3.09-2.22,4.86-.97,3.88-3.09,7.45-8.45,13.28-1.82,4.8-3.78,9.55-5.88,14.23-.3.66-.93,1.45-1.57,1.11.56-2.41.7-4.91.46-7.37-.34-3.58-1.47-7.03-2.59-10.44-.72-2.2-1.47-4.45-2.93-6.24s-3.82-3.04-6.29-2.32c-4.95-1.26-10.09-1.82-15.2-1.67-.81.03-1.66.06-2.41-.26-.97-.42-1.59-1.38-2.44-2.01-2.32-1.73-5.57-.7-8.46-.51-4.34.29-8.54-1.51-12.86-1.97-2.95-.31-5.93,0-8.89.12-.33.01-.66.01-.99.02-.33.29-.67.56-.98.87-.83.81-1.62,1.69-2.63,2.28-1.05.62-2.27.88-3.48,1.01-3.57.39-7.16-.28-10.68-.98-2.34-.47-4.73-.97-6.78-2.19-1.32-.79-2.46-1.85-3.6-2.9-3.19-.25-6.29-.48-9.21-.65-2.7.26-5.39.52-8.09.78-.82.08-1.73.2-2.26.84-.35.42-.46,1-.76,1.46-.99,1.51-3.27,1.02-5.01.55-1.74-.47-4.26-.28-4.52,1.51-.06.41.02.84-.14,1.21-.23.54-.88.76-1.46.87-3.67.68-7.35-.72-10.97-1.64s-7.86-1.22-10.69,1.21c-2.09,1.8-3.51,5.06-6.27,4.99-.46-.01-.92-.13-1.37-.03-.64.13-1.12.64-1.54,1.13-2.26,2.66-4.11,5.67-6.18,8.44-.94-3.24-1.91-6.54-3.79-9.34-1.88-2.8-4.86-5.07-8.23-5.25-.18-1.5-.36-2.99-.53-4.49-.05-.45-.12-.94-.44-1.27-.68-.71-1.84-.19-2.82-.16-3.58.13-4.13-6.02-7.59-6.98-.69-.19-1.43-.14-2.11-.38-1.83-.64-2.36-2.93-2.59-4.85-.15-1.3-.28-2.6-.4-3.9-.4-4.27-.62-8.5-.57-12.53.03-2.12.12-4.19.31-6.18,2.71-11.38,3.72-23.16,2.97-34.83-.39-6.15-1.26-12.26-1.41-18.42-.25-10.08,1.44-20.09,3.12-30.02.13-.75.26-1.52.68-2.16.43-.66,1.11-1.1,1.67-1.64,1.72-1.68,2.21-4.22,2.61-6.59.99-5.87,1.98-11.75,2.98-17.62.44-2.61.88-5.23.89-7.88,0-1.84-.19-3.69.07-5.51.38-2.68,1.73-5.12,3.05-7.49,3.52-6.3,7.04-12.6,10.56-18.9.46-.83.97-1.69,1.8-2.13.96-.5,2.14-.32,3.18-.64s1.92-1.7,1.26-2.29c8.66-2.86,17.13-6.29,25.33-10.28-.08,1.08,1.47,1.65,2.41,1.12.95-.53,1.38-1.64,1.74-2.67,2.91,1.6,6.53,1.05,9.68,0,3.15-1.04,6.23-2.54,9.54-2.73,2.03-.12,4.68-.12,5.3-2.05.35,1.71,2.41,2.57,4.14,2.33s3.23-1.25,4.79-2.03c1.56-.79,3.39-1.38,5.02-.74,1.51.59,2.51,2.14,4.02,2.72,3.29,1.27,6.84-2.5,9.8-.88,5.47-1.19,10.73,2.43,16.22,3.57,2.7.56,5.63.56,7.96,2.05,1.2.77,2.16,1.9,3.48,2.44,1.6.66,3.48.35,5.1.97,1.28.49,2.26,1.51,3.33,2.37,4.06,3.29,9.77,4.41,14.78,2.91.18,1.56,1.97,2.53,3.54,2.37,1.57-.15,2.93-1.09,4.22-1.99,3.11,2.94,6.22,5.88,9.32,8.83.45.43.91.87,1.19,1.42.29.57.37,1.23.49,1.86.9,4.84,4.12,8.88,7.28,12.65.98,1.17,2,2.41,2.25,3.91.23,1.39-.23,2.79-.27,4.2-.04,1.41.61,3.06,2,3.32-1.87,5-.82,10.97,2.65,15.03-1.77.04-2.82,2.2-2.5,3.94.32,1.74,1.51,3.17,2.44,4.67,1.35,2.18,2.19,4.62,3.03,7.04,1.51,4.37,3.02,8.74,4.52,13.12.16.46.32.96.19,1.43-.15.54-.65.91-.92,1.4-.61,1.08-.04,2.42.43,3.57,1.39,3.42,1.84,7.22,1.19,13.29.19,26.18,11.59,51.65,9.54,77.75Z"/>
        <path class="st6" d="M549.85,196.31c.65-6.07.2-9.87-1.19-13.29-.47-1.15-1.04-2.49-.43-3.57.28-.49.77-.86.92-1.4.13-.47-.03-.97-.19-1.43-1.51-4.37-3.02-8.74-4.52-13.12-.84-2.42-1.68-4.87-3.03-7.04-.93-1.51-2.12-2.93-2.44-4.67-.32-1.74.73-3.9,2.5-3.94-3.46-4.06-4.51-10.03-2.65-15.03-1.38-.26-2.03-1.91-2-3.32.04-1.41.5-2.81.27-4.2-.25-1.5-1.27-2.74-2.25-3.91-3.16-3.77-6.37-7.81-7.28-12.65-.12-.63-.2-1.29-.49-1.86-.28-.55-.74-.99-1.19-1.42-3.11-2.94-6.22-5.88-9.32-8.83-1.29.91-2.65,1.84-4.22,1.99-1.57.15-3.36-.81-3.54-2.37-5,1.5-10.72.38-14.78-2.91-1.06-.86-2.05-1.88-3.33-2.37-1.62-.62-3.49-.3-5.1-.97-1.31-.54-2.28-1.67-3.48-2.44-2.32-1.49-5.25-1.49-7.96-2.05-5.49-1.14-10.74-4.76-16.22-3.57-2.96-1.61-6.51,2.15-9.8.88-1.52-.59-2.51-2.13-4.02-2.72-1.62-.64-3.46-.05-5.02.74-1.56.79-3.06,1.79-4.79,2.03s-3.78-.62-4.14-2.33c-.62,1.93-3.27,1.93-5.3,2.05-3.32.19-6.39,1.69-9.54,2.73-3.15,1.04-6.77,1.6-9.68,0-.36,1.02-.8,2.13-1.74,2.67-.95.53-2.49-.04-2.41-1.12-8.2,3.99-16.67,7.43-25.33,10.28.66.59-.22,1.98-1.26,2.29s-2.22.13-3.18.64c-.84.44-1.34,1.31-1.8,2.13-3.52,6.3-7.04,12.6-10.56,18.9-1.32,2.37-2.67,4.8-3.05,7.49-.26,1.82-.06,3.67-.07,5.51-.01,2.65-.45,5.27-.89,7.88-.99,5.87-1.98,11.75-2.98,17.62-.4,2.37-.89,4.91-2.61,6.59-.56.55-1.24.99-1.67,1.64-.42.64-.55,1.41-.68,2.16-1.68,9.94-3.37,19.95-3.12,30.02.15,6.16,1.02,12.27,1.41,18.42.74,11.67-.26,23.45-2.97,34.83-.19,1.98-.28,4.05-.31,6.18-.05,4.03.17,8.26.57,12.53.12,1.3.25,2.6.4,3.9.22,1.93.76,4.22,2.59,4.85.67.24,1.42.19,2.11.38,3.46.96,4,7.1,7.59,6.98.98-.04,2.15-.55,2.82.16.31.33.38.81.44,1.27.18,1.5.36,2.99.53,4.49,3.37.17,6.35,2.45,8.23,5.25,1.88,2.8,2.85,6.1,3.79,9.34,2.08-2.77,3.92-5.78,6.18-8.44.42-.49.9-1,1.54-1.13.45-.09.91.02,1.37.03,2.76.07,4.18-3.19,6.27-4.99,2.83-2.43,7.07-2.13,10.69-1.21s7.3,2.32,10.97,1.64c.58-.11,1.23-.33,1.46-.87.16-.38.08-.81.14-1.21.26-1.79,2.78-1.98,4.52-1.51,1.74.47,4.02.96,5.01-.55.3-.46.41-1.04.76-1.46.53-.64,1.44-.76,2.26-.84,2.7-.26,5.39-.52,8.09-.78,2.92.17,6.02.4,9.21.65,1.14,1.05,2.28,2.11,3.6,2.9,2.05,1.22,4.44,1.72,6.78,2.19,3.52.7,7.11,1.37,10.68.98,1.21-.13,2.43-.4,3.48-1.01,1-.59,1.79-1.47,2.63-2.28.31-.31.66-.58.98-.87.33,0,.66,0,.99-.02,2.96-.11,5.94-.43,8.89-.12,4.33.46,8.52,2.25,12.86,1.97,2.89-.19,6.14-1.22,8.46.51.85.63,1.47,1.59,2.44,2.01.75.33,1.59.29,2.41.26,5.11-.16,10.24.4,15.2,1.67,2.47-.72,4.83.53,6.29,2.32s2.21,4.04,2.93,6.24c1.12,3.42,2.25,6.86,2.59,10.44.24,2.46.09,4.96-.46,7.37.64.34,1.27-.45,1.57-1.11,2.1-4.68,4.06-9.43,5.88-14.23,5.37-5.83,7.49-9.41,8.45-13.28.44-1.77.76-3.78,2.22-4.86.5-.37,1.11-.6,1.55-1.04.87-.86.88-2.22,1.08-3.42.47-2.9,2.37-5.54,4.98-6.89.91-.47,1.96-.85,2.49-1.73.33-.55.4-1.22.45-1.86,2.05-26.1-9.35-51.57-9.54-77.75Z"/>
      </g>
    </g>
    <g>
      <path class="st4" d="M551.8,197.29c.65-6.07.2-9.87-1.19-13.29-.47-1.15-1.04-2.49-.43-3.57.28-.49.77-.86.92-1.4.13-.47-.03-.97-.19-1.43-1.51-4.37-3.02-8.74-4.52-13.12-.84-2.42-1.68-4.87-3.03-7.04-.93-1.51-2.12-2.93-2.44-4.67-.32-1.74.73-3.9,2.5-3.94-3.46-4.06-4.51-10.03-2.65-15.03-1.38-.26-2.03-1.91-2-3.32.04-1.41.5-2.81.27-4.2-.25-1.5-1.27-2.74-2.25-3.91-3.16-3.77-6.37-7.81-7.28-12.65-.12-.63-.2-1.29-.49-1.86-.28-.55-.74-.99-1.19-1.42-3.11-2.94-6.22-5.88-9.32-8.83-1.29.91-2.65,1.84-4.22,1.99-1.57.15-3.36-.81-3.54-2.37-5,1.5-10.72.38-14.78-2.91-1.06-.86-2.05-1.88-3.33-2.37-1.62-.62-3.49-.3-5.1-.97-1.31-.54-2.28-1.67-3.48-2.44-2.32-1.49-5.25-1.49-7.96-2.05-5.49-1.14-10.74-4.76-16.22-3.57-2.96-1.61-6.51,2.15-9.8.88-1.52-.59-2.51-2.13-4.02-2.72-1.62-.64-3.46-.05-5.02.74-1.56.79-3.06,1.79-4.79,2.03s-3.78-.62-4.14-2.33c-.62,1.93-3.27,1.93-5.3,2.05-3.32.19-6.39,1.69-9.54,2.73-3.15,1.04-6.77,1.6-9.68,0-.36,1.02-.8,2.13-1.74,2.67-.95.53-2.49-.04-2.41-1.12-8.2,3.99-16.67,7.43-25.33,10.28.66.59-.22,1.98-1.26,2.29s-2.22.13-3.18.64c-.84.44-1.34,1.31-1.8,2.13-3.52,6.3-7.04,12.6-10.56,18.9-1.32,2.37-2.67,4.8-3.05,7.49-.26,1.82-.06,3.67-.07,5.51-.01,2.65-.45,5.27-.89,7.88-.99,5.87-1.98,11.75-2.98,17.62-.4,2.37-.89,4.91-2.61,6.59-.56.55-1.24.99-1.67,1.64-.42.64-.55,1.41-.68,2.16-1.68,9.94-3.37,19.95-3.12,30.02.15,6.16,1.02,12.27,1.41,18.42.74,11.67-.26,23.45-2.97,34.83-.19,1.98-.28,4.05-.31,6.18.02.57.04,1.13.07,1.7.15,3.6.36,7.22.51,10.83.12,1.3.25,2.6.4,3.9.22,1.93.76,4.22,2.59,4.85.67.24,1.42.19,2.11.38,3.46.96,4,7.1,7.59,6.98.98-.04,2.15-.55,2.82.16.31.33.38.81.44,1.27.18,1.5.36,2.99.53,4.49,3.37.17,6.35,2.45,8.23,5.25,1.88,2.8,2.85,6.1,3.79,9.34,2.08-2.77,3.92-5.78,6.18-8.44.42-.49.9-1,1.54-1.13.45-.09.91.02,1.37.03,2.76.07,4.18-3.19,6.27-4.99,2.83-2.43,7.07-2.13,10.69-1.21s7.3,2.32,10.97,1.64c.58-.11,1.23-.33,1.46-.87.16-.38.08-.81.14-1.21.26-1.79,2.78-1.98,4.52-1.51,1.74.47,4.02.96,5.01-.55.3-.46.41-1.04.76-1.46.53-.64,1.44-.76,2.26-.84,2.7-.26,5.39-.52,8.09-.78,2.92.17,6.02.4,9.21.65,1.14,1.05,2.28,2.11,3.6,2.9,2.05,1.22,4.44,1.72,6.78,2.19,3.52.7,7.11,1.37,10.68.98,1.21-.13,2.43-.4,3.48-1.01,1-.59,1.79-1.47,2.63-2.28.31-.31.66-.58.98-.87.33,0,.66,0,.99-.02,2.96-.11,5.94-.43,8.89-.12,4.33.46,8.52,2.25,12.86,1.97,2.89-.19,6.14-1.22,8.46.51.85.63,1.47,1.59,2.44,2.01.75.33,1.59.29,2.41.26,5.11-.16,10.24.4,15.2,1.67,2.47-.72,4.83.53,6.29,2.32s2.21,4.04,2.93,6.24c1.12,3.42,2.25,6.86,2.59,10.44.24,2.46.09,4.96-.46,7.37.64.34,1.27-.45,1.57-1.11,2.1-4.68,4.06-9.43,5.88-14.23,5.37-5.83,7.49-9.41,8.45-13.28.44-1.77.76-3.78,2.22-4.86.5-.37,1.11-.6,1.55-1.04.87-.86.88-2.22,1.08-3.42.47-2.9,2.37-5.54,4.98-6.89.91-.47,1.96-.85,2.49-1.73.33-.55.4-1.22.45-1.86,2.05-26.1-9.35-51.57-9.54-77.75Z"/>
      <path class="st4" d="M337.73,281.98c-.99-2.52-1.07-5.39-.26-7.99-.33-1.61-.67-3.25-.45-4.88.22-1.63,1.11-3.26,2.62-3.92-1.39-2.14-2.17-4.69-2.2-7.24,0-.67.63-1.6,1.08-1.1-2.87-4.22,1.69-10,.36-14.92-.35-1.32-1.13-2.68-.64-3.95.21-.56.65-1.01.87-1.57.27-.68.18-1.44.1-2.17-.52-4.3-.59-4.9-1.11-9.2l-.03-2.16c.33-1.76.48-3.54.54-5.32-.82-.91-1.69-1.76-2.68-2.51-1.38-1.04-3.08-1.89-4.78-1.58-1.71.32-3.03,1.79-3.64,3.42-.61,1.63-.63,3.42-.63,5.16.09,20.92,3.77,41.81,10.76,61.53.39-.26.31-1.06.1-1.59Z"/>
      <path class="st1" d="M344.95,272.98c-.15-3.61-.35-7.23-.51-10.83-.02-.57-.05-1.13-.07-1.7-.05,4.03.17,8.26.57,12.53Z"/>
      <path class="st4" d="M564.91,218.85c.18.69.56,1.33.61,2.04.14,2.01-2.3,3.66-1.81,5.61.22.89,1.01,1.51,1.44,2.32.81,1.53.23,3.39-.18,5.08-.41,1.69-.49,3.78.9,4.82.48.36,1.12.57,1.41,1.1.46.86-.32,1.86-.38,2.83-.1,1.4,1.22,2.42,1.94,3.63,1.05,1.77.69,4.26-.83,5.65l-.32,1.02-1.49,4.7c-.15.48-.31.97-.27,1.48.08,1.08,1.01,1.93,1.17,3,.16,1.1-.51,2.13-1.01,3.12-1.07,2.13-1.44,4.61-1.03,6.96.22,1.27.67,2.5.73,3.78.1,1.85-.59,3.64-1.33,5.33-.3.68-.62,1.39-.56,2.13.03.36.15.69.31,1.01,2.98-3.21,5.66-6.69,7.28-10.73.96-2.4,1.53-4.93,2.04-7.46,2.41-11.94,3.61-24.13,3.59-36.31,0-3.2-.1-6.43-.89-9.54s-2.33-6.1-4.8-8.13c-1.22-1-2.75-1.76-4.32-1.6-.47.59-.9,1.11-1.22,1.39-.11,2.3-1.56,4.55-.96,6.77Z"/>
      <path class="st4" d="M394.33,335.14c-1.13.64-2.26,1.52-2.55,2.78-.28,1.19.26,2.4.72,3.54,1.52,3.76,2.3,7.82,2.39,11.18,4.94,4.5,4.42,12.5,8.03,18.12.57.88,1.26,1.8,1.16,2.85-.1.99-.89,1.76-1.23,2.69-1.01,2.81,2.26,5.34,2.67,8.3.38,2.72-1.69,5.68-.34,8.07.81-.23,1.62-.46,2.43-.69,1.26,2,.07,4.62.31,6.97.29,2.78,2.55,4.89,4.67,6.73,1.19-.4,1.87-1.61,2.62-2.61.75-1.01,1.96-1.96,3.15-1.56,1.52.51,1.57,2.62,1.46,3.92.73,1.13,1.58,2.19,2.53,3.14.96-.43,1.78-1.15,3.3-1.74.91,1.39,2.56,2.27,4.23,2.25,1.11-.01,2.22-.39,3.32-.23,1.46.21,2.6,1.33,3.91,2.01s3.27.74,3.92-.59c1.07,1.35,2.82,1.98,4.52,2.24,5.13.79,10.23-1.19,15.15-2.85,4.1-1.38,8.28-2.57,12.54-3.31,1.12-.19,2.55-.21,3.05.81-.03-1.63,1.92-2.45,3.5-2.83,1.96-.47,4.15-.91,5.9.09.48-.85.96-1.71,1.99-2.68,1.89-1.1,3.89-2.23,6.07-2.32.46-.02.94,0,1.37-.19.73-.32,1.07-1.16,1.64-1.72.72-.7,1.78-.9,2.67-1.37,1.74-.91,2.82-2.95,2.6-4.9-.09-.79-.37-1.56-.34-2.36.02-.8.49-1.67,1.28-1.78.71-.1,1.38.45,2.1.44.81-.02,1.41-.72,2.08-.2-.48-2.08-.96-4.15-1.43-6.23,1.25,1.51,3.86.35,4.72-1.41s.73-3.84,1.4-5.67c.58-1.58,1.71-2.89,2.59-4.32,1.27-2.07,2.03-4.41,2.77-6.72,1.15-3.59,2.3-7.17,3.43-10.77.56-1.78,1.11-3.59,1.13-5.45.02-2.82-1.28-5.62-3.44-7.42.67-1.1,1.93-1.82,3.22-1.84,1.06-3.4-2.27-6.37-4.51-9.14-2.87-3.55-4.26-8.27-3.78-12.81-.67-.04-1.35.17-2.62.45-.99-2.18-1.98-4.35-2.96-6.53-.05.53-.11,1.05-.16,1.58-.71-.77-2.06-.82-2.83-.12-.11-1.46-2.12-2.35-3.27-1.46-.22-.84-.65-1.63-1.23-2.28-.2,1.14-1.79,1.45-2.85.98-1.06-.47-1.87-1.39-2.92-1.87s-2.64-.21-4.19.9l-5.4-2.33c-.45-.19-.95-.39-1.41-.22-.88.33-.98,1.75-1.88,2-1.22-.58-1.74-2.49-3.09-2.43-1.33.06-1.75,2.02-3,2.47-.18-1.51-2.16-2.07-3.63-1.71-1.47.35-2.84,1.24-4.36,1.23-1.1,0-2.21-.49-3.28-.25-.57.13-1.09.47-1.67.56-1.65.27-3.68-1.35-4.47-.29l-8.92-2.33c-.26,1-1.44,1.4-2.45,1.64-.86.2-1.75.41-2.61.23-.86-.18-1.69-.86-1.73-1.74-.92.86-1.85,1.71-2.77,2.57-.23.21-.48.44-.8.46-.42.03-.76-.32-1.06-.62-1.45-1.48-3.35-2.51-5.38-2.92-.32-.06-.66-.11-.95.01-.3.12-.5.39-.68.65-.63.9-1.18,1.87-1.63,2.88-.57-1.34-2.7-1.6-4.74-.73-2.08-.34-4.17-.68-6.25-1.03-.37.78-.75,1.55-1.12,2.33-.08.17-.17.35-.33.46-.24.16-.55.11-.82.03-.76-.25-1.39-.79-2.1-1.15s-1.65-.5-2.27,0c-.25.21-.42.5-.69.68-.6.41-1.42.11-2.02-.3-.6-.41-1.18-.94-1.9-.99-.04.72-.09,1.44-.13,2.16-.01.2-.03.41-.17.55-.14.15-.36.18-.57.19-1.47.13-2.93.26-4.4.4,0,0-1.72,1.05-1.17,2.1-.22,1.6-.43,3.2-.65,4.81-1,.08-1.97.49-2.71,1.16.38.45.76.89,1.13,1.34-1.03,1.78-2.67,3.2-4.58,3.96.56.83,1.12,1.66,1.68,2.49-.19.94.18,1.97.92,2.58-2.06,1.07-3.92,2.54-5.43,4.3,1.43.55,2.69,1.51,3.61,2.74Z"/>
      <path class="st4" d="M514.7,454.1c-.45-6.86-1.2-13.74-1.27-20.6-.78.49-1.61.87-2.51,1.07.06,1.85-1.26,3.51-2.88,4.41s-3.49,1.16-6.81,1.17c-2.55,3.77-5.75,7.11-9.42,9.81-.9-1.49-3.08-1.5-4.71-.9-1.63.6-3.17,1.64-4.9,1.65-1.71.01-3.26-.98-4.94-1.33-3.41-.7-6.71,1.31-10.08,2.16-4.85,1.23-10,.04-14.64-1.83-.73,3.07-4.98,3.51-8.02,2.67-3.04-.84-6.48-2.22-9.14-.53-.31-.97-.62-1.95-.93-2.92-1.23,2.72-5.18,2.27-8.02,1.37-3.44-1.09-7.23-2.46-8.88-5.67-1.18.26-2.38.36-3.59.35,6.75,9.91,13.38,19.9,19.66,30.11,1.39,2.27,2.76,4.56,4,6.91,7.49,1.35,15.18,1.16,22.8.94,16.12-.47,32.26-.98,48.32-2.42,2.14-.19,4.49-.53,6.23-1.67.35-8.24.26-16.51-.29-24.74Z"/>
      <path class="st2" d="M672.7,488.81c-1.27-6.18-3-12.26-5.18-18.18-1.42-3.86-3.99-8.31-8.1-8.19-1.97.06-3.88,1.23-5.8.81-1.37-.31-2.43-1.37-3.49-2.3-6.97-6.13-16.79-7.93-24.35-13.32-7.16-5.11-11.87-13.13-19.15-18.05-7.34-4.95-16.65-6.32-23.99-11.26-5.64-3.8-9.77-9.48-15.19-13.59-3.82-2.9-8.18-4.94-12.66-6.72,3.53,7.26,6.34,15.07,9.72,22.37,4.82,10.42,11.04,20.13,16.06,30.45,4.39,9.02,7.88,18.74,8.4,28.71,16.9,1.28,33.71,3.81,50.24,7.57,9.59,2.18,19.12,4.78,28.9,5.9,1.66.19,3.73.14,4.51-1.34.46-.86.29-1.9.09-2.86Z"/>
      <path class="st2" d="M588.97,479.53c-.52-9.97-4.02-19.68-8.4-28.71-5.02-10.32-11.24-20.04-16.06-30.45-3.37-7.29-6.19-15.11-9.72-22.37-3.53-7.27-7.78-13.99-14.02-19.08-.21-.17-.42-.33-.65-.49-.26,1.07-.51,2.14-.77,3.2-1.21,4.99-2.46,9.97-3.74,14.94-.69,2.65-1.64,5.62-4.13,6.77,1.35.6,1.22,2.69.25,3.79-.98,1.1-2.45,1.61-3.64,2.48-4.32,3.12-4.35,10.11-8.74,13.13-.43.3-.9.55-1.37.8-1,.53-2.02,1.03-2.74,1.89-.68.83-1,1.88-1.42,2.87-.88,2.1-2.37,4.01-4.28,5.2.07,6.86.82,13.74,1.27,20.6.54,8.23.63,16.49.29,24.74-.79,18.84-3.9,37.59-9.26,55.68,6.33-1.21,12.56-2.95,18.59-5.22,6.02-2.79,11.45-7.2,15.98-12.39,1.98-2.27,3.87-4.74,6.51-6.18,3.17-1.72,7.03-1.72,10.3-3.23,4.28-1.98,7.04-6.3,8.61-10.74,1.57-4.44,2.2-9.17,3.6-13.67.55-1.78,1.53-3.74,3.11-4.49.96.02,1.91.03,2.87.06,1.75.95,2.76,3.5,3.14,5.67,1.7,9.47,1.28,19.31-1.21,28.61,9.88-5.85,15.21-17.61,15.64-29.08.05-1.44.04-2.88-.04-4.32Z"/>
      <path class="st2" d="M351.21,448.13c-4.94-13.45-12.92-25.57-21.6-36.97,1.19-1.2,2.25-2.49,3.2-3.85-7.15,3.38-14.79,5.97-22.1,9.03-21.44,8.97-40.75,22.39-61.9,32.04-5.91,2.7-11.99,5.12-17.34,8.81-10.32,7.12-16.99,18.29-23.34,29.11,8.45-.11,16.75,1.96,25.12,3.1,15.87,2.16,31.98.97,47.94-.34,25.1-2.05,50.35-4.41,74.79-10.25.71-10.34-1.18-20.91-4.78-30.68Z"/>
      <path class="st2" d="M439.84,486.54c-.66-1.56-1.41-3.07-2.2-4.56-1.25-2.35-2.61-4.64-4-6.91-6.28-10.21-12.91-20.19-19.66-30.11-6.36-.08-12.67-3.84-15.44-9.61-1.29.4-2.63.49-3.96.33-2.52-.29-4.98-1.46-6.91-3.14-2.95-2.56-4.85-6.13-6.28-9.76-.49-1.25-.98-2.58-1.99-3.46-.89-.78-2.07-1.12-3.11-1.69-2.64-1.45-4.25-4.6-3.88-7.59.11-.85.35-1.75.03-2.54-.3-.75-1.03-1.22-1.66-1.72-2.99-2.42-4.14-6.37-5.73-9.87-3.28-7.25-8.95-13.29-11.76-20.74l.37.12c.4-2.83-.15-5.79-1.54-8.29-.62-1.12-1.43-2.24-1.43-3.52,0-.27.04-.55.09-.82-9.75,12.67-8.93,31.76-17.98,44.65-.95,1.36-2.01,2.64-3.2,3.85,8.68,11.4,16.66,23.52,21.6,36.97,3.59,9.78,5.49,20.34,4.78,30.68-.27,3.88-.89,7.73-1.94,11.5,13.09-4.49,27.29-4.67,41.06-3.32,13.77,1.34,27.38,4.14,41.16,5.44,1.13.11,2.37.17,3.27-.51,1.54-1.17,1.06-3.59.3-5.37Z"/>
      <g>
        <path class="st1" d="M518.33,339.32c.67-1.1,1.93-1.82,3.22-1.84,1.06-3.4-2.27-6.37-4.51-9.14-2.87-3.55-4.26-8.27-3.78-12.81-.67-.04-1.35.17-2.62.45-.99-2.18-1.98-4.35-2.96-6.53-.05.53-.11,1.05-.16,1.58-.71-.77-2.06-.82-2.83-.12-.11-1.46-2.12-2.35-3.27-1.46-.22-.84-.65-1.63-1.23-2.28-.2,1.14-1.79,1.45-2.85.98-1.06-.47-1.87-1.39-2.92-1.87s-2.64-.21-4.19.9l-5.4-2.33c-.45-.19-.95-.39-1.41-.22-.88.33-.98,1.75-1.88,2-1.22-.58-1.74-2.49-3.09-2.43-1.33.06-1.75,2.02-3,2.47-.18-1.51-2.16-2.07-3.63-1.71-1.47.35-2.84,1.24-4.36,1.23-1.1,0-2.21-.49-3.28-.25-.57.13-1.09.47-1.67.56-1.65.27-3.68-1.35-4.47-.29l-8.92-2.33c-.26,1-1.44,1.4-2.45,1.64-.86.2-1.75.41-2.61.23-.86-.18-1.69-.86-1.73-1.74-.92.86-1.85,1.71-2.77,2.57-.23.21-.48.44-.8.46-.42.03-.76-.32-1.06-.62-1.45-1.48-3.35-2.51-5.38-2.92-.32-.06-.66-.11-.95.01-.3.12-.5.39-.68.65-.63.9-1.18,1.87-1.63,2.88-.57-1.34-2.7-1.6-4.74-.73-2.08-.34-4.17-.68-6.25-1.03-.37.78-.75,1.55-1.12,2.33-.08.17-.17.35-.33.46-.24.16-.55.11-.82.03-.76-.25-1.39-.79-2.1-1.15s-1.65-.5-2.27,0c-.25.21-.42.5-.69.68-.6.41-1.42.11-2.02-.3-.6-.41-1.18-.94-1.9-.99-.04.72-.09,1.44-.13,2.16-.01.2-.03.41-.17.55-.14.15-.36.18-.57.19-1.47.13-2.93.26-4.4.4,0,0-1.72,1.05-1.17,2.1-.22,1.6-.43,3.2-.65,4.81-1,.08-1.97.49-2.71,1.16.38.45.76.89,1.13,1.34-1.03,1.78-2.67,3.2-4.58,3.96.56.83,1.12,1.66,1.68,2.49-.19.94.18,1.97.92,2.58-2.06,1.07-3.92,2.54-5.43,4.3,1.43.55,2.69,1.51,3.61,2.74-1.13.64-2.26,1.52-2.55,2.78-.28,1.19.26,2.4.72,3.54,1.52,3.76,2.3,7.82,2.39,11.18,4.94,4.5,4.42,12.5,8.03,18.12.57.88,1.26,1.8,1.16,2.85-.1.99-.89,1.76-1.23,2.69-1.01,2.81,2.26,5.34,2.67,8.3.38,2.72-1.69,5.68-.34,8.07.81-.23,1.62-.46,2.43-.69,1.26,2,.07,4.62.31,6.97.29,2.78,2.55,4.89,4.67,6.73,1.19-.4,1.87-1.61,2.62-2.61.75-1.01,1.96-1.96,3.15-1.56,1.52.51,1.57,2.62,1.46,3.92.73,1.13,1.58,2.19,2.53,3.14.96-.43,1.78-1.15,3.3-1.74.91,1.39,2.56,2.27,4.23,2.25,1.11-.01,2.22-.39,3.32-.23,1.46.21,2.6,1.33,3.91,2.01s3.27.74,3.92-.59c1.07,1.35,2.82,1.98,4.52,2.24,5.13.79,10.23-1.19,15.15-2.85,4.1-1.38,8.28-2.57,12.54-3.31,1.12-.19,2.55-.21,3.05.81-.03-1.63,1.92-2.45,3.5-2.83,1.96-.47,4.15-.91,5.9.09.48-.85.96-1.71,1.99-2.68,1.89-1.1,3.89-2.23,6.07-2.32.46-.02.94,0,1.37-.19.73-.32,1.07-1.16,1.64-1.72.72-.7,1.78-.9,2.67-1.37,1.74-.91,2.82-2.95,2.6-4.9-.09-.79-.37-1.56-.34-2.36.02-.8.49-1.67,1.28-1.78.71-.1,1.38.45,2.1.44.81-.02,1.41-.72,2.08-.2-.48-2.08-.96-4.15-1.43-6.23,1.25,1.51,3.86.35,4.72-1.41s.73-3.84,1.4-5.67c.58-1.58,1.71-2.89,2.59-4.32,1.27-2.07,2.03-4.41,2.77-6.72,1.15-3.59,2.3-7.17,3.43-10.77.56-1.78,1.11-3.59,1.13-5.45.02-2.82-1.28-5.62-3.44-7.42Z"/>
        <path class="st5" d="M568.82,246.28c-.72-1.2-2.04-2.23-1.94-3.63.07-.97.84-1.97.38-2.83-.28-.53-.92-.74-1.41-1.1-1.39-1.04-1.31-3.13-.9-4.82.41-1.69.99-3.54.18-5.08-.43-.81-1.21-1.43-1.44-2.32-.49-1.95,1.95-3.6,1.81-5.61-.05-.71-.42-1.35-.61-2.04-.59-2.23.85-4.47.96-6.77.32-.29.75-.8,1.22-1.39.24-.3.48-.6.72-.92.23-.29.46-.6.53-.97.24-1.37-1.72-1.83-2.81-2.68-1.07-.83-1.39-2.33-1.25-3.68.14-1.34.64-2.62.92-3.94,1.05-4.95-1.15-10.11-.36-15.11.51-3.24,2.27-6.37,1.76-9.62-.3-1.93-1.39-3.67-1.81-5.58-.83-3.71.9-7.64.04-11.34-.31-1.34-.95-2.57-1.39-3.87-1.47-4.3-.74-9,0-13.49.29-3.51,3.03-5.07,2.42-7.16-.34-1.17-1.58-1.77-2.5-2.57-3.1-2.7-2.49-7.73-4.54-11.29-1.04-1.8-2.8-3.32-3.02-5.39-.11-1.03.2-2.08.09-3.11-.3-2.69-3.21-4.27-4.37-6.71-1.06-2.22-.72-5.21-2.62-6.78-.93-.77-2.19-.99-3.28-1.51-4.07-1.93-4.87-7.28-7.41-11-2.57-3.76-7.05-5.92-9.46-9.78-1.07-1.71-1.75-3.77-3.35-4.99-.95-.72-2.13-1.07-3.13-1.71-1.05-.68-1.87-1.66-2.75-2.55-3.3-3.28-7.82-5.31-12.47-5.58-4.7-4.06-9.6-8.08-15.24-7.66-1.63.12-3.26.63-4.89.39-.98-.14-1.9-.55-2.81-.95-7.83-3.36-16.1-5.61-24.46-7.27-4.42-.88-8.9-1.6-13.41-1.59-8.15.03-16.08,2.44-23.87,4.84-3.74-2.38-7.27-1.9-10.19-.66-2.92,1.24-5.53,3.14-8.46,4.37-1.45.61-3.1,1.14-3.9,2.5-.35.59-.5,1.29-.9,1.85-.56.77-1.5,1.14-2.38,1.49-12.87,5.09-24.34,13.66-32.88,24.55-3.49,2.19-6.36,6.13-8.91,10.06-1.02,1.56-2.01,3.15-2.93,4.77-4.85,8.45-8.05,17.85-9.35,27.5-1.93.06-3.26.12-4.54.41,0,2.8.53,5.6,1.53,8.21-.46-.41-1.12.23-1.37.79-3.43,7.57-1.2,16.33-.95,24.63.22,7.69-1.32,15.35-1.27,23.04.04,4.92.73,9.82,1.29,14.71.57,4.96,1,9.94,1.29,14.93.14,2.41.24,4.84.16,7.25-.06,1.79-.22,3.56-.54,5.32l.03,2.16c.52,4.3.59,4.9,1.11,9.2.09.73.17,1.49-.1,2.17-.22.56-.65,1.01-.87,1.57-.48,1.27.29,2.64.64,3.95,1.33,4.93-3.23,10.7-.36,14.92-.45-.5-1.09.43-1.08,1.1.03,2.56.81,5.1,2.2,7.24-1.5.66-2.39,2.29-2.62,3.92-.22,1.63.11,3.27.45,4.88-.81,2.61-.73,5.47.26,7.99.21.53.3,1.34-.1,1.59-.07.04-.15.08-.25.08-.56,1.83-.26,3.9.78,5.5.3.47.67.91.78,1.46.19.93-.42,1.81-.86,2.65-1.91,3.6-.78,8.53,2.52,10.93-.91-.12-1.71.74-1.87,1.64-.16.9.15,1.81.45,2.68.96,2.75,1.92,5.5,2.88,8.24-.73-.06-.75.72-.48,1.25.27.54.73.95,1.01,1.48,1.01,1.92-.75,4.08-1.19,6.2-.4,1.94.44,4.08,2.06,5.23-1.02.24-1.37,1.58-1.05,2.58.32.99,1.06,1.79,1.53,2.72,1.01,1.99.69,4.36.9,6.59.21,2.23,1.39,4.76,3.61,5.03-.72,3.81-.06,7.87,1.83,11.26.29.53.62,1.06.72,1.66.1.64-.08,1.28-.2,1.92-.05.27-.09.55-.09.82,0,1.28.81,2.4,1.43,3.52,1.39,2.5,1.93,5.46,1.54,8.29l-.37-.12c2.81,7.45,8.48,13.49,11.76,20.74,1.59,3.5,2.74,7.45,5.73,9.87.63.51,1.35.98,1.66,1.72.32.8.08,1.69-.03,2.54-.37,2.99,1.23,6.14,3.88,7.59,1.04.57,2.22.91,3.11,1.69,1.01.89,1.49,2.21,1.99,3.46,1.43,3.64,3.33,7.2,6.28,9.76,1.93,1.67,4.39,2.85,6.91,3.14,1.33.15,2.67.06,3.96-.33,2.77,5.77,9.08,9.53,15.44,9.61,1.2.02,2.4-.09,3.59-.35,1.64,3.21,5.43,4.58,8.88,5.67,2.84.9,6.79,1.35,8.02-1.37.31.97.62,1.95.93,2.92,2.66-1.69,6.1-.31,9.14.53,3.04.84,7.28.4,8.02-2.67,4.64,1.87,9.79,3.06,14.64,1.83,3.37-.86,6.67-2.86,10.08-2.16,1.68.35,3.23,1.34,4.94,1.33,1.74-.01,3.27-1.05,4.9-1.65,1.63-.6,3.81-.59,4.71.9,3.67-2.7,6.87-6.04,9.42-9.81,3.31,0,5.19-.28,6.81-1.17s2.94-2.56,2.88-4.41c.9-.21,1.74-.59,2.51-1.07,1.9-1.19,3.39-3.11,4.28-5.2.42-.99.74-2.05,1.42-2.87.71-.86,1.73-1.36,2.74-1.89.47-.25.94-.5,1.37-.8,4.39-3.02,4.42-10.01,8.74-13.13,1.2-.86,2.67-1.37,3.64-2.48.98-1.1,1.1-3.18-.25-3.79,2.48-1.15,3.44-4.12,4.13-6.77,1.29-4.97,2.53-9.95,3.74-14.94.26-1.07.52-2.14.77-3.2,2.17-9.03,4.34-18.07,7.55-26.78,2.28-1.97,3.73-4.6,3.96-7.36.07-.76.05-1.55.35-2.24.26-.59.72-1.05,1.05-1.6.6-.98.77-2.22.44-3.33-.11-.36-.26-.74-.15-1.1.14-.46.65-.68,1.05-.95,1.3-.9,1.61-2.69,1.57-4.27-.04-1.58-.3-3.23.28-4.7.4-1,1.16-1.82,1.7-2.75s.85-2.14.3-3.07c-.25-.42-.65-.73-.88-1.16-.65-1.22.29-2.63.83-3.91,1.25-2.98.3-6.67,2.03-9.41,1.4-1.98,2.67-3.77,3.01-5.85.34-2.08-.56-4.52-2.54-5.23-.25-.09-.52-.16-.69-.35-.48-.54.17-1.32.68-1.85,1.56-1.62,1.9-4.28.79-6.24-.35-.62-.84-1.2-1.15-1.83-.16-.32-.28-.65-.31-1.01-.06-.74.26-1.45.56-2.13.75-1.69,1.43-3.48,1.33-5.33-.07-1.28-.51-2.52-.73-3.78-.41-2.35-.05-4.83,1.03-6.96.5-.99,1.18-2.02,1.01-3.12-.16-1.07-1.09-1.92-1.17-3-.04-.5.12-1,.27-1.48l1.49-4.7.32-1.02c1.52-1.39,1.89-3.88.83-5.65ZM520.64,352.19c-1.13,3.59-2.28,7.18-3.43,10.77-.74,2.31-1.5,4.65-2.77,6.72-.88,1.44-2.01,2.74-2.59,4.32-.67,1.83-.55,3.91-1.4,5.67s-3.47,2.91-4.72,1.41c.48,2.08.96,4.15,1.43,6.23-.66-.52-1.27.18-2.08.2-.72.02-1.38-.54-2.1-.44-.79.11-1.25.99-1.28,1.78-.02.8.26,1.57.34,2.36.22,1.95-.86,3.99-2.6,4.9-.89.47-1.94.67-2.67,1.37-.58.55-.91,1.39-1.64,1.72-.42.19-.91.16-1.37.19-2.19.1-4.18,1.22-6.07,2.32-1.02.97-1.51,1.83-1.99,2.68-1.75-1-3.94-.56-5.9-.09-1.59.38-3.53,1.2-3.5,2.83-.5-1.02-1.94-1-3.05-.81-4.26.74-8.44,1.93-12.54,3.31-4.92,1.66-10.02,3.64-15.15,2.85-1.7-.26-3.45-.89-4.52-2.24-.65,1.33-2.61,1.27-3.92.59s-2.45-1.8-3.91-2.01c-1.1-.16-2.21.22-3.32.23-1.67.02-3.31-.86-4.23-2.25-1.52.59-2.35,1.31-3.3,1.74-.95-.95-1.8-2.01-2.53-3.14.11-1.31.06-3.41-1.46-3.92-1.19-.4-2.4.56-3.15,1.56-.75,1.01-1.43,2.21-2.62,2.61-2.11-1.84-4.37-3.94-4.67-6.73-.25-2.35.95-4.97-.31-6.97-.81.23-1.62.46-2.43.69-1.34-2.4.73-5.35.34-8.07-.42-2.96-3.69-5.49-2.67-8.3.34-.93,1.13-1.7,1.23-2.69.1-1.04-.59-1.97-1.16-2.85-3.61-5.62-3.1-13.62-8.03-18.12-.09-3.36-.87-7.42-2.39-11.18-.46-1.13-1-2.34-.72-3.54.29-1.26,1.42-2.14,2.55-2.78-.91-1.23-2.18-2.19-3.61-2.74,1.52-1.76,3.37-3.23,5.43-4.3-.74-.61-1.11-1.64-.92-2.58-.56-.83-1.12-1.66-1.68-2.49,1.91-.76,3.55-2.18,4.58-3.96-.38-.45-.76-.89-1.13-1.34.74-.67,1.71-1.08,2.71-1.16.22-1.6.43-3.2.65-4.81-.55-1.05,1.17-2.1,1.17-2.1,1.47-.13,2.93-.26,4.4-.4.2-.02.43-.05.57-.19.14-.14.15-.36.17-.55.04-.72.09-1.44.13-2.16.72.05,1.3.58,1.9.99.6.41,1.42.71,2.02.3.27-.18.44-.48.69-.68.62-.51,1.55-.37,2.27,0s1.34.9,2.1,1.15c.27.09.59.13.82-.03.16-.11.25-.29.33-.46.37-.78.75-1.55,1.12-2.33,2.08.34,4.17.68,6.25,1.03,2.04-.87,4.17-.61,4.74.73.45-1.01.99-1.97,1.63-2.88.18-.26.39-.53.68-.65.3-.12.64-.08.95-.01,2.03.41,3.93,1.44,5.38,2.92.3.3.64.65,1.06.62.31-.02.57-.24.8-.46.92-.86,1.85-1.71,2.77-2.57.05.88.87,1.56,1.73,1.74.86.18,1.75-.02,2.61-.23,1.01-.24,2.19-.64,2.45-1.64l8.92,2.33c.78-1.06,2.81.56,4.47.29.58-.09,1.1-.43,1.67-.56,1.07-.25,2.18.24,3.28.25,1.52,0,2.88-.88,4.36-1.23,1.48-.35,3.46.21,3.63,1.71,1.25-.45,1.67-2.41,3-2.47,1.35-.06,1.87,1.85,3.09,2.43.91-.25,1-1.68,1.88-2,.46-.17.96.03,1.41.22l5.4,2.33c1.55-1.11,3.14-1.38,4.19-.9s1.86,1.4,2.92,1.87c1.06.47,2.65.16,2.85-.98.58.65,1.01,1.44,1.23,2.28,1.16-.89,3.16,0,3.27,1.46.78-.7,2.12-.65,2.83.12.05-.53.11-1.05.16-1.58.99,2.18,1.98,4.35,2.96,6.53,1.27-.28,1.95-.49,2.62-.45-.48,4.54.91,9.25,3.78,12.81,2.24,2.77,5.57,5.74,4.51,9.14-1.29.02-2.55.74-3.22,1.84,2.17,1.8,3.47,4.61,3.44,7.42-.02,1.86-.57,3.67-1.13,5.45ZM561.34,275.04c-.05.64-.12,1.31-.45,1.86-.53.88-1.58,1.26-2.49,1.73-2.61,1.36-4.51,3.99-4.98,6.89-.19,1.2-.21,2.57-1.08,3.42-.44.44-1.05.67-1.55,1.04-1.46,1.08-1.78,3.09-2.22,4.86-.97,3.88-3.09,7.45-8.45,13.28-1.82,4.8-3.78,9.55-5.88,14.23-.3.66-.93,1.45-1.57,1.11.56-2.41.7-4.91.46-7.37-.34-3.58-1.47-7.03-2.59-10.44-.72-2.2-1.47-4.45-2.93-6.24s-3.82-3.04-6.29-2.32c-4.95-1.26-10.09-1.82-15.2-1.67-.81.03-1.66.06-2.41-.26-.97-.42-1.59-1.38-2.44-2.01-2.32-1.73-5.57-.7-8.46-.51-4.34.29-8.54-1.51-12.86-1.97-2.95-.31-5.93,0-8.89.12-.33.01-.66.01-.99.02-.33.29-.67.56-.98.87-.83.81-1.62,1.69-2.63,2.28-1.05.62-2.27.88-3.48,1.01-3.57.39-7.16-.28-10.68-.98-2.34-.47-4.73-.97-6.78-2.19-1.32-.79-2.46-1.85-3.6-2.9-3.19-.25-6.29-.48-9.21-.65-2.7.26-5.39.52-8.09.78-.82.08-1.73.2-2.26.84-.35.42-.46,1-.76,1.46-.99,1.51-3.27,1.02-5.01.55-1.74-.47-4.26-.28-4.52,1.51-.06.41.02.84-.14,1.21-.23.54-.88.76-1.46.87-3.67.68-7.35-.72-10.97-1.64s-7.86-1.22-10.69,1.21c-2.09,1.8-3.51,5.06-6.27,4.99-.46-.01-.92-.13-1.37-.03-.64.13-1.12.64-1.54,1.13-2.26,2.66-4.11,5.67-6.18,8.44-.94-3.24-1.91-6.54-3.79-9.34-1.88-2.8-4.86-5.07-8.23-5.25-.18-1.5-.36-2.99-.53-4.49-.05-.45-.12-.94-.44-1.27-.68-.71-1.84-.19-2.82-.16-3.58.13-4.13-6.02-7.59-6.98-.69-.19-1.43-.14-2.11-.38-1.83-.64-2.36-2.93-2.59-4.85-.15-1.3-.28-2.6-.4-3.9-.4-4.27-.62-8.5-.57-12.53.03-2.12.12-4.19.31-6.18,2.71-11.38,3.72-23.16,2.97-34.83-.39-6.15-1.26-12.26-1.41-18.42-.25-10.08,1.44-20.09,3.12-30.02.13-.75.26-1.52.68-2.16.43-.66,1.11-1.1,1.67-1.64,1.72-1.68,2.21-4.22,2.61-6.59.99-5.87,1.98-11.75,2.98-17.62.44-2.61.88-5.23.89-7.88,0-1.84-.19-3.69.07-5.51.38-2.68,1.73-5.12,3.05-7.49,3.52-6.3,7.04-12.6,10.56-18.9.46-.83.97-1.69,1.8-2.13.96-.5,2.14-.32,3.18-.64s1.92-1.7,1.26-2.29c8.66-2.86,17.13-6.29,25.33-10.28-.08,1.08,1.47,1.65,2.41,1.12.95-.53,1.38-1.64,1.74-2.67,2.91,1.6,6.53,1.05,9.68,0,3.15-1.04,6.23-2.54,9.54-2.73,2.03-.12,4.68-.12,5.3-2.05.35,1.71,2.41,2.57,4.14,2.33s3.23-1.25,4.79-2.03c1.56-.79,3.39-1.38,5.02-.74,1.51.59,2.51,2.14,4.02,2.72,3.29,1.27,6.84-2.5,9.8-.88,5.47-1.19,10.73,2.43,16.22,3.57,2.7.56,5.63.56,7.96,2.05,1.2.77,2.16,1.9,3.48,2.44,1.6.66,3.48.35,5.1.97,1.28.49,2.26,1.51,3.33,2.37,4.06,3.29,9.77,4.41,14.78,2.91.18,1.56,1.97,2.53,3.54,2.37,1.57-.15,2.93-1.09,4.22-1.99,3.11,2.94,6.22,5.88,9.32,8.83.45.43.91.87,1.19,1.42.29.57.37,1.23.49,1.86.9,4.84,4.12,8.88,7.28,12.65.98,1.17,2,2.41,2.25,3.91.23,1.39-.23,2.79-.27,4.2-.04,1.41.61,3.06,2,3.32-1.87,5-.82,10.97,2.65,15.03-1.77.04-2.82,2.2-2.5,3.94.32,1.74,1.51,3.17,2.44,4.67,1.35,2.18,2.19,4.62,3.03,7.04,1.51,4.37,3.02,8.74,4.52,13.12.16.46.32.96.19,1.43-.15.54-.65.91-.92,1.4-.61,1.08-.04,2.42.43,3.57,1.39,3.42,1.84,7.22,1.19,13.29.19,26.18,11.59,51.65,9.54,77.75Z"/>
        <path class="st1" d="M551.8,197.29c.65-6.07.2-9.87-1.19-13.29-.47-1.15-1.04-2.49-.43-3.57.28-.49.77-.86.92-1.4.13-.47-.03-.97-.19-1.43-1.51-4.37-3.02-8.74-4.52-13.12-.84-2.42-1.68-4.87-3.03-7.04-.93-1.51-2.12-2.93-2.44-4.67-.32-1.74.73-3.9,2.5-3.94-3.46-4.06-4.51-10.03-2.65-15.03-1.38-.26-2.03-1.91-2-3.32.04-1.41.5-2.81.27-4.2-.25-1.5-1.27-2.74-2.25-3.91-3.16-3.77-6.37-7.81-7.28-12.65-.12-.63-.2-1.29-.49-1.86-.28-.55-.74-.99-1.19-1.42-3.11-2.94-6.22-5.88-9.32-8.83-1.29.91-2.65,1.84-4.22,1.99-1.57.15-3.36-.81-3.54-2.37-5,1.5-10.72.38-14.78-2.91-1.06-.86-2.05-1.88-3.33-2.37-1.62-.62-3.49-.3-5.1-.97-1.31-.54-2.28-1.67-3.48-2.44-2.32-1.49-5.25-1.49-7.96-2.05-5.49-1.14-10.74-4.76-16.22-3.57-2.96-1.61-6.51,2.15-9.8.88-1.52-.59-2.51-2.13-4.02-2.72-1.62-.64-3.46-.05-5.02.74-1.56.79-3.06,1.79-4.79,2.03s-3.78-.62-4.14-2.33c-.62,1.93-3.27,1.93-5.3,2.05-3.32.19-6.39,1.69-9.54,2.73-3.15,1.04-6.77,1.6-9.68,0-.36,1.02-.8,2.13-1.74,2.67-.95.53-2.49-.04-2.41-1.12-8.2,3.99-16.67,7.43-25.33,10.28.66.59-.22,1.98-1.26,2.29s-2.22.13-3.18.64c-.84.44-1.34,1.31-1.8,2.13-3.52,6.3-7.04,12.6-10.56,18.9-1.32,2.37-2.67,4.8-3.05,7.49-.26,1.82-.06,3.67-.07,5.51-.01,2.65-.45,5.27-.89,7.88-.99,5.87-1.98,11.75-2.98,17.62-.4,2.37-.89,4.91-2.61,6.59-.56.55-1.24.99-1.67,1.64-.42.64-.55,1.41-.68,2.16-1.68,9.94-3.37,19.95-3.12,30.02.15,6.16,1.02,12.27,1.41,18.42.74,11.67-.26,23.45-2.97,34.83-.19,1.98-.28,4.05-.31,6.18-.05,4.03.17,8.26.57,12.53.12,1.3.25,2.6.4,3.9.22,1.93.76,4.22,2.59,4.85.67.24,1.42.19,2.11.38,3.46.96,4,7.1,7.59,6.98.98-.04,2.15-.55,2.82.16.31.33.38.81.44,1.27.18,1.5.36,2.99.53,4.49,3.37.17,6.35,2.45,8.23,5.25,1.88,2.8,2.85,6.1,3.79,9.34,2.08-2.77,3.92-5.78,6.18-8.44.42-.49.9-1,1.54-1.13.45-.09.91.02,1.37.03,2.76.07,4.18-3.19,6.27-4.99,2.83-2.43,7.07-2.13,10.69-1.21s7.3,2.32,10.97,1.64c.58-.11,1.23-.33,1.46-.87.16-.38.08-.81.14-1.21.26-1.79,2.78-1.98,4.52-1.51,1.74.47,4.02.96,5.01-.55.3-.46.41-1.04.76-1.46.53-.64,1.44-.76,2.26-.84,2.7-.26,5.39-.52,8.09-.78,2.92.17,6.02.4,9.21.65,1.14,1.05,2.28,2.11,3.6,2.9,2.05,1.22,4.44,1.72,6.78,2.19,3.52.7,7.11,1.37,10.68.98,1.21-.13,2.43-.4,3.48-1.01,1-.59,1.79-1.47,2.63-2.28.31-.31.66-.58.98-.87.33,0,.66,0,.99-.02,2.96-.11,5.94-.43,8.89-.12,4.33.46,8.52,2.25,12.86,1.97,2.89-.19,6.14-1.22,8.46.51.85.63,1.47,1.59,2.44,2.01.75.33,1.59.29,2.41.26,5.11-.16,10.24.4,15.2,1.67,2.47-.72,4.83.53,6.29,2.32s2.21,4.04,2.93,6.24c1.12,3.42,2.25,6.86,2.59,10.44.24,2.46.09,4.96-.46,7.37.64.34,1.27-.45,1.57-1.11,2.1-4.68,4.06-9.43,5.88-14.23,5.37-5.83,7.49-9.41,8.45-13.28.44-1.77.76-3.78,2.22-4.86.5-.37,1.11-.6,1.55-1.04.87-.86.88-2.22,1.08-3.42.47-2.9,2.37-5.54,4.98-6.89.91-.47,1.96-.85,2.49-1.73.33-.55.4-1.22.45-1.86,2.05-26.1-9.35-51.57-9.54-77.75Z"/>
      </g>
    </g>
    <path class="st6" d="M503.79,321.88c-5.9-2.35-12.51-2.16-18.77-1.08-6.26,1.08-12.34,3.01-18.6,4.06-21.39,3.59-43.03-3.25-64.69-4.3-1.31-.06-2.87.02-3.58,1.12-.73,1.15-.08,2.65.64,3.81,7.75,12.5,21.8,19.62,35.73,24.36,4.67,1.59,9.43,2.99,14.34,3.5,9.14.95,18.41-1.28,26.72-5.2s15.74-9.48,22.73-15.44c1.85-1.58,3.71-3.23,4.84-5.37s1.53-5.11.64-5.46Z"/>
    <path class="st1" d="M412.53,267.59c.04,3.05.08,6.15.97,9.07.89,2.92,2.77,5.68,5.56,6.93,5.05,2.25,11.25-1.04,16.36,1.08,3.16,1.31,5.2,4.42,8.13,6.17,2.05,1.22,4.44,1.72,6.78,2.19,3.52.7,7.11,1.37,10.68.98,1.21-.13,2.43-.4,3.48-1.01,1-.59,1.79-1.47,2.63-2.28,5.28-5.17,12.5-7.98,19.78-9.21,2.07-.35,4.25-.61,6.01-1.76,2.77-1.82,3.84-5.5,3.45-8.79s-1.97-6.31-3.52-9.24"/>
    <path class="st1" d="M421.45,249.77c4.65-8.99,8.99-18.15,13.01-27.43,1.24-2.87,2.48-5.87,2.34-8.99"/>
    <path class="st1" d="M474.38,240.2c-3.05-7.32-5.88-14.73-8.49-22.21-.14-.4.02-1.08.39-.89"/>
    <path class="st1" d="M284.78,353.1c1.75.89,3.6,1.59,5.49,2.1"/>
    <path class="st1" d="M330.13,244.94c-.55-5.24-1.33-10.45-2.32-15.63-.33-1.7-.68-3.41-.6-5.13s.63-3.5,1.87-4.7c2.26,3.96,4.32,8.03,3.65,13.22-.3,9.2-.6,18.41-.9,27.61-.06,1.98-.09,4.1.99,5.76"/>
    <path class="st1" d="M564.81,229.26c.74-3.42,1.7-6.79,2.88-10.09.27-.77.77-1.67,1.58-1.61.66.05,1.06.74,1.31,1.36,2.79,6.86,1.39,14.61,1.77,22,.17,3.28.7,6.56.51,9.85-.21,3.57-1.28,7.05-2.71,10.33-.93,2.13-2.01,4.22-2.48,6.5"/>
    <g>
      <path class="st1" d="M549.82,196.31c.65-6.07.2-9.87-1.19-13.29-.47-1.15-1.04-2.49-.43-3.57.28-.49.77-.86.92-1.4.13-.47-.03-.97-.19-1.43-1.51-4.37-3.02-8.74-4.52-13.12-.84-2.42-1.68-4.87-3.03-7.04-.93-1.51-2.12-2.93-2.44-4.67-.32-1.74.73-3.9,2.5-3.94-3.46-4.06-4.51-10.03-2.65-15.03-1.38-.26-2.03-1.91-2-3.32.04-1.41.5-2.81.27-4.2-.25-1.5-1.27-2.74-2.25-3.91-3.16-3.77-6.37-7.81-7.28-12.65-.12-.63-.2-1.29-.49-1.86-.28-.55-.74-.99-1.19-1.42-3.11-2.94-6.22-5.88-9.32-8.83-1.29.91-2.65,1.84-4.22,1.99-1.57.15-3.36-.81-3.54-2.37-5,1.5-10.72.38-14.78-2.91-1.06-.86-2.05-1.88-3.33-2.37-1.62-.62-3.49-.3-5.1-.97-1.31-.54-2.28-1.67-3.48-2.44-2.32-1.49-5.25-1.49-7.96-2.05-5.49-1.14-10.74-4.76-16.22-3.57-2.96-1.61-6.51,2.15-9.8.88-1.52-.59-2.51-2.13-4.02-2.72-1.62-.64-3.46-.05-5.02.74-1.56.79-3.06,1.79-4.79,2.03s-3.78-.62-4.14-2.33c-.62,1.93-3.27,1.93-5.3,2.05-3.32.19-6.39,1.69-9.54,2.73-3.15,1.04-6.77,1.6-9.68,0-.36,1.02-.8,2.13-1.74,2.67-.95.53-2.49-.04-2.41-1.12-8.2,3.99-16.67,7.43-25.33,10.28.66.59-.22,1.98-1.26,2.29s-2.22.13-3.18.64c-.84.44-1.34,1.31-1.8,2.13-3.52,6.3-7.04,12.6-10.56,18.9-1.32,2.37-2.67,4.8-3.05,7.49-.26,1.82-.06,3.67-.07,5.51-.01,2.65-.45,5.27-.89,7.88-.99,5.87-1.98,11.75-2.98,17.62-.4,2.37-.89,4.91-2.61,6.59-.56.55-1.24.99-1.67,1.64-.42.64-.55,1.41-.68,2.16-1.68,9.94-3.37,19.95-3.12,30.02.15,6.16,1.02,12.27,1.41,18.42.74,11.67-.26,23.45-2.97,34.83-.19,1.98-.28,4.05-.31,6.18.02.57.04,1.13.07,1.7.15,3.6.36,7.22.51,10.83.12,1.3.25,2.6.4,3.9.22,1.93.76,4.22,2.59,4.85.67.24,1.42.19,2.11.38,3.46.96,4,7.1,7.59,6.98.98-.04,2.15-.55,2.82.16.31.33.38.81.44,1.27.18,1.5.36,2.99.53,4.49,3.37.17,6.35,2.45,8.23,5.25,1.88,2.8,2.85,6.1,3.79,9.34,2.08-2.77,3.92-5.78,6.18-8.44.42-.49.9-1,1.54-1.13.45-.09.91.02,1.37.03,2.76.07,4.18-3.19,6.27-4.99,2.83-2.43,7.07-2.13,10.69-1.21s7.3,2.32,10.97,1.64c.58-.11,1.23-.33,1.46-.87.16-.38.08-.81.14-1.21.26-1.79,2.78-1.98,4.52-1.51,1.74.47,4.02.96,5.01-.55.3-.46.41-1.04.76-1.46.53-.64,1.44-.76,2.26-.84,2.7-.26,5.39-.52,8.09-.78,2.92.17,6.02.4,9.21.65,1.14,1.05,2.28,2.11,3.6,2.9,2.05,1.22,4.44,1.72,6.78,2.19,3.52.7,7.11,1.37,10.68.98,1.21-.13,2.43-.4,3.48-1.01,1-.59,1.79-1.47,2.63-2.28.31-.31.66-.58.98-.87.33,0,.66,0,.99-.02,2.96-.11,5.94-.43,8.89-.12,4.33.46,8.52,2.25,12.86,1.97,2.89-.19,6.14-1.22,8.46.51.85.63,1.47,1.59,2.44,2.01.75.33,1.59.29,2.41.26,5.11-.16,10.24.4,15.2,1.67,2.47-.72,4.83.53,6.29,2.32s2.21,4.04,2.93,6.24c1.12,3.42,2.25,6.86,2.59,10.44.24,2.46.09,4.96-.46,7.37.64.34,1.27-.45,1.57-1.11,2.1-4.68,4.06-9.43,5.88-14.23,5.37-5.83,7.49-9.41,8.45-13.28.44-1.77.76-3.78,2.22-4.86.5-.37,1.11-.6,1.55-1.04.87-.86.88-2.22,1.08-3.42.47-2.9,2.37-5.54,4.98-6.89.91-.47,1.96-.85,2.49-1.73.33-.55.4-1.22.45-1.86,2.05-26.1-9.35-51.57-9.54-77.75Z"/>
      <path class="st1" d="M335.75,281.01c-.99-2.52-1.07-5.39-.26-7.99-.33-1.61-.67-3.25-.45-4.88.22-1.63,1.11-3.26,2.62-3.92-1.39-2.14-2.17-4.69-2.2-7.24,0-.67.63-1.6,1.08-1.1-2.87-4.22,1.69-10,.36-14.92-.35-1.32-1.13-2.68-.64-3.95.21-.56.65-1.01.87-1.57.27-.68.18-1.44.1-2.17-.52-4.3-.59-4.9-1.11-9.2l-.03-2.16c.33-1.76.48-3.54.54-5.32-.82-.91-1.69-1.76-2.68-2.51-1.38-1.04-3.08-1.89-4.78-1.58-1.71.32-3.03,1.79-3.64,3.42-.61,1.63-.63,3.42-.63,5.16.09,20.92,3.77,41.81,10.76,61.53.39-.26.31-1.06.1-1.59Z"/>
      <path class="st1" d="M342.97,272.01c-.15-3.61-.35-7.23-.51-10.83-.02-.57-.05-1.13-.07-1.7-.05,4.03.17,8.26.57,12.53Z"/>
      <path class="st1" d="M562.93,217.87c.18.69.56,1.33.61,2.04.14,2.01-2.3,3.66-1.81,5.61.22.89,1.01,1.51,1.44,2.32.81,1.53.23,3.39-.18,5.08-.41,1.69-.49,3.78.9,4.82.48.36,1.12.57,1.41,1.1.46.86-.32,1.86-.38,2.83-.1,1.4,1.22,2.42,1.94,3.63,1.05,1.77.69,4.26-.83,5.65l-.32,1.02-1.49,4.7c-.15.48-.31.97-.27,1.48.08,1.08,1.01,1.93,1.17,3,.16,1.1-.51,2.13-1.01,3.12-1.07,2.13-1.44,4.61-1.03,6.96.22,1.27.67,2.5.73,3.78.1,1.85-.59,3.64-1.33,5.33-.3.68-.62,1.39-.56,2.13.03.36.15.69.31,1.01,2.98-3.21,5.66-6.69,7.28-10.73.96-2.4,1.53-4.93,2.04-7.46,2.41-11.94,3.61-24.13,3.59-36.31,0-3.2-.1-6.43-.89-9.54s-2.33-6.1-4.8-8.13c-1.22-1-2.75-1.76-4.32-1.6-.47.59-.9,1.11-1.22,1.39-.11,2.3-1.56,4.55-.96,6.77Z"/>
      <path class="st1" d="M392.35,334.16c-1.13.64-2.26,1.52-2.55,2.78-.28,1.19.26,2.4.72,3.54,1.52,3.76,2.3,7.82,2.39,11.18,4.94,4.5,4.42,12.5,8.03,18.12.57.88,1.26,1.8,1.16,2.85-.1.99-.89,1.76-1.23,2.69-1.01,2.81,2.26,5.34,2.67,8.3.38,2.72-1.69,5.68-.34,8.07.81-.23,1.62-.46,2.43-.69,1.26,2,.07,4.62.31,6.97.29,2.78,2.55,4.89,4.67,6.73,1.19-.4,1.87-1.61,2.62-2.61.75-1.01,1.96-1.96,3.15-1.56,1.52.51,1.57,2.62,1.46,3.92.73,1.13,1.58,2.19,2.53,3.14.96-.43,1.78-1.15,3.3-1.74.91,1.39,2.56,2.27,4.23,2.25,1.11-.01,2.22-.39,3.32-.23,1.46.21,2.6,1.33,3.91,2.01s3.27.74,3.92-.59c1.07,1.35,2.82,1.98,4.52,2.24,5.13.79,10.23-1.19,15.15-2.85,4.1-1.38,8.28-2.57,12.54-3.31,1.12-.19,2.55-.21,3.05.81-.03-1.63,1.92-2.45,3.5-2.83,1.96-.47,4.15-.91,5.9.09.48-.85.96-1.71,1.99-2.68,1.89-1.1,3.89-2.23,6.07-2.32.46-.02.94,0,1.37-.19.73-.32,1.07-1.16,1.64-1.72.72-.7,1.78-.9,2.67-1.37,1.74-.91,2.82-2.95,2.6-4.9-.09-.79-.37-1.56-.34-2.36.02-.8.49-1.67,1.28-1.78.71-.1,1.38.45,2.1.44.81-.02,1.41-.72,2.08-.2-.48-2.08-.96-4.15-1.43-6.23,1.25,1.51,3.86.35,4.72-1.41s.73-3.84,1.4-5.67c.58-1.58,1.71-2.89,2.59-4.32,1.27-2.07,2.03-4.41,2.77-6.72,1.15-3.59,2.3-7.17,3.43-10.77.56-1.78,1.11-3.59,1.13-5.45.02-2.82-1.28-5.62-3.44-7.42.67-1.1,1.93-1.82,3.22-1.84,1.06-3.4-2.27-6.37-4.51-9.14-2.87-3.55-4.26-8.27-3.78-12.81-.67-.04-1.35.17-2.62.45-.99-2.18-1.98-4.35-2.96-6.53-.05.53-.11,1.05-.16,1.58-.71-.77-2.06-.82-2.83-.12-.11-1.46-2.12-2.35-3.27-1.46-.22-.84-.65-1.63-1.23-2.28-.2,1.14-1.79,1.45-2.85.98-1.06-.47-1.87-1.39-2.92-1.87s-2.64-.21-4.19.9l-5.4-2.33c-.45-.19-.95-.39-1.41-.22-.88.33-.98,1.75-1.88,2-1.22-.58-1.74-2.49-3.09-2.43-1.33.06-1.75,2.02-3,2.47-.18-1.51-2.16-2.07-3.63-1.71-1.47.35-2.84,1.24-4.36,1.23-1.1,0-2.21-.49-3.28-.25-.57.13-1.09.47-1.67.56-1.65.27-3.68-1.35-4.47-.29-2.97-.78-5.95-1.55-8.92-2.33-.26,1-1.44,1.4-2.45,1.64-.86.2-1.75.41-2.61.23-.86-.18-1.69-.86-1.73-1.74-.92.86-1.85,1.71-2.77,2.57-.23.21-.48.44-.8.46-.42.03-.76-.32-1.06-.62-1.45-1.48-3.35-2.51-5.38-2.92-.32-.06-.66-.11-.95.01-.3.12-.5.39-.68.65-.63.9-1.18,1.87-1.63,2.88-.57-1.34-2.7-1.6-4.74-.73-2.08-.34-4.17-.68-6.25-1.03-.37.78-.75,1.55-1.12,2.33-.08.17-.17.35-.33.46-.24.16-.55.11-.82.03-.76-.25-1.39-.79-2.1-1.15s-1.65-.5-2.27,0c-.25.21-.42.5-.69.68-.6.41-1.42.11-2.02-.3-.6-.41-1.18-.94-1.9-.99-.04.72-.09,1.44-.13,2.16-.01.2-.03.41-.17.55-.14.15-.36.18-.57.19-1.47.13-2.93.26-4.4.4,0,0-1.72,1.05-1.17,2.1-.22,1.6-.43,3.2-.65,4.81-1,.08-1.97.49-2.71,1.16.38.45.76.89,1.13,1.34-1.03,1.78-2.67,3.2-4.58,3.96.56.83,1.12,1.66,1.68,2.49-.19.94.18,1.97.92,2.58-2.06,1.07-3.92,2.54-5.43,4.3,1.43.55,2.69,1.51,3.61,2.74Z"/>
      <path class="st1" d="M512.72,453.12c-.45-6.86-1.2-13.74-1.27-20.6-.78.49-1.61.87-2.51,1.07.06,1.85-1.26,3.51-2.88,4.41s-3.49,1.16-6.81,1.17c-2.55,3.77-5.75,7.11-9.42,9.81-.9-1.49-3.08-1.5-4.71-.9-1.63.6-3.17,1.64-4.9,1.65-1.71.01-3.26-.98-4.94-1.33-3.41-.7-6.71,1.31-10.08,2.16-4.85,1.23-10,.04-14.64-1.83-.73,3.07-4.98,3.51-8.02,2.67-3.04-.84-6.48-2.22-9.14-.53-.31-.97-.62-1.95-.93-2.92-1.23,2.72-5.18,2.27-8.02,1.37-3.44-1.09-7.23-2.46-8.88-5.67-1.18.26-2.38.36-3.59.35,6.75,9.91,13.38,19.9,19.66,30.11,1.39,2.27,2.76,4.56,4,6.91,7.49,1.35,15.18,1.16,22.8.94,16.12-.47,32.26-.98,48.32-2.42,2.14-.19,4.49-.53,6.23-1.67.35-8.24.26-16.51-.29-24.74Z"/>
      <path class="st1" d="M674.62,487.83c-1.27-6.18-3-12.26-5.18-18.18-1.42-3.86-3.99-8.31-8.1-8.19-1.97.06-3.88,1.23-5.8.81-1.37-.31-2.43-1.37-3.49-2.3-6.97-6.13-16.79-7.93-24.35-13.32-7.16-5.11-11.87-13.13-19.15-18.05-7.34-4.95-16.65-6.32-23.99-11.26-5.64-3.8-9.77-9.48-15.19-13.59-3.82-2.9-8.18-4.94-12.66-6.72,3.53,7.26,6.34,15.07,9.72,22.37,4.82,10.42,11.04,20.13,16.06,30.45,4.39,9.02,7.88,18.74,8.4,28.71,16.9,1.28,33.71,3.81,50.24,7.57,9.59,2.18,19.12,4.78,28.9,5.9,1.66.19,3.73.14,4.51-1.34.46-.86.29-1.9.09-2.86Z"/>
      <path class="st1" d="M582.48,449.85c-5.02-10.32-11.24-20.04-16.06-30.45-3.37-7.29-6.19-15.11-9.72-22.37-3.53-7.27-7.78-13.99-14.02-19.08-.21-.17-.42-.33-.65-.49-.26,1.07-.51,2.14-.77,3.2-1.21,4.99-2.46,9.97-3.74,14.94-.69,2.65-1.64,5.62-4.13,6.77,1.35.6,1.22,2.69.25,3.79-.98,1.1-2.45,1.61-3.64,2.48-4.32,3.12-4.35,10.11-8.74,13.13-.43.3-.9.55-1.37.8-1,.53-2.02,1.03-2.74,1.89-.68.83-1,1.88-1.42,2.87-.88,2.1-2.37,4.01-4.28,5.2.07,6.86.82,13.74,1.27,20.6.54,8.23.63,16.49.29,24.74-.79,18.84-3.9,37.59-9.26,55.68,6.33-1.21,12.56-2.95,18.59-5.22,6.02-2.79,11.45-7.2,15.98-12.39,1.98-2.27,3.87-4.74,6.51-6.18,3.17-1.72,7.03-1.72,10.3-3.23,4.28-1.98,7.04-6.3,8.61-10.74,1.57-4.44,2.2-9.17,3.6-13.67.55-1.78,1.53-3.74,3.11-4.49.36-.17.73-.3,1.15-.33.64-.04,1.21.11,1.72.38,5.85.14,11.71.44,17.54.88-.52-9.97-4.02-19.68-8.4-28.71Z"/>
      <path class="st1" d="M349.23,447.16c-4.94-13.45-12.92-25.57-21.6-36.97,1.19-1.2,2.25-2.49,3.2-3.85-7.15,3.38-14.79,5.97-22.1,9.03-21.44,8.97-40.75,22.39-61.9,32.04-5.91,2.7-11.99,5.12-17.34,8.81-10.32,7.12-16.99,18.29-23.34,29.11,8.45-.11,16.75,1.96,25.12,3.1,15.87,2.16,31.98.97,47.94-.34,25.1-2.05,50.35-4.41,74.79-10.25.71-10.34-1.18-20.91-4.78-30.68Z"/>
      <path class="st1" d="M437.86,485.57c-.66-1.56-1.41-3.07-2.2-4.56-1.25-2.35-2.61-4.64-4-6.91-6.28-10.21-12.91-20.19-19.66-30.11-6.36-.08-12.67-3.84-15.44-9.61-1.29.4-2.63.49-3.96.33-2.52-.29-4.98-1.46-6.91-3.14-2.95-2.56-4.85-6.13-6.28-9.76-.49-1.25-.98-2.58-1.99-3.46-.89-.78-2.07-1.12-3.11-1.69-2.64-1.45-4.25-4.6-3.88-7.59.11-.85.35-1.75.03-2.54-.3-.75-1.03-1.22-1.66-1.72-2.99-2.42-4.14-6.37-5.73-9.87-3.28-7.25-8.95-13.29-11.76-20.74l.37.12c.4-2.83-.15-5.79-1.54-8.29-.62-1.12-1.43-2.24-1.43-3.52,0-.27.04-.55.09-.82-9.75,12.67-8.93,31.76-17.98,44.65-.95,1.36-2.01,2.64-3.2,3.85,8.68,11.4,16.66,23.52,21.6,36.97,3.59,9.78,5.49,20.34,4.78,30.68-.27,3.88-.89,7.73-1.94,11.5,13.09-4.49,27.29-4.67,41.06-3.32,13.77,1.34,27.38,4.14,41.16,5.44,1.13.11,2.37.17,3.27-.51,1.54-1.17,1.06-3.59.3-5.37Z"/>
      <g>
        <path class="st1" d="M516.35,338.35c.67-1.1,1.93-1.82,3.22-1.84,1.06-3.4-2.27-6.37-4.51-9.14-2.87-3.55-4.26-8.27-3.78-12.81-.67-.04-1.35.17-2.62.45-.99-2.18-1.98-4.35-2.96-6.53-.05.53-.11,1.05-.16,1.58-.71-.77-2.06-.82-2.83-.12-.11-1.46-2.12-2.35-3.27-1.46-.22-.84-.65-1.63-1.23-2.28-.2,1.14-1.79,1.45-2.85.98-1.06-.47-1.87-1.39-2.92-1.87s-2.64-.21-4.19.9l-5.4-2.33c-.45-.19-.95-.39-1.41-.22-.88.33-.98,1.75-1.88,2-1.22-.58-1.74-2.49-3.09-2.43-1.33.06-1.75,2.02-3,2.47-.18-1.51-2.16-2.07-3.63-1.71-1.47.35-2.84,1.24-4.36,1.23-1.1,0-2.21-.49-3.28-.25-.57.13-1.09.47-1.67.56-1.65.27-3.68-1.35-4.47-.29-2.97-.78-5.95-1.55-8.92-2.33-.26,1-1.44,1.4-2.45,1.64-.86.2-1.75.41-2.61.23-.86-.18-1.69-.86-1.73-1.74-.92.86-1.85,1.71-2.77,2.57-.23.21-.48.44-.8.46-.42.03-.76-.32-1.06-.62-1.45-1.48-3.35-2.51-5.38-2.92-.32-.06-.66-.11-.95.01-.3.12-.5.39-.68.65-.63.9-1.18,1.87-1.63,2.88-.57-1.34-2.7-1.6-4.74-.73-2.08-.34-4.17-.68-6.25-1.03-.37.78-.75,1.55-1.12,2.33-.08.17-.17.35-.33.46-.24.16-.55.11-.82.03-.76-.25-1.39-.79-2.1-1.15s-1.65-.5-2.27,0c-.25.21-.42.5-.69.68-.6.41-1.42.11-2.02-.3-.6-.41-1.18-.94-1.9-.99-.04.72-.09,1.44-.13,2.16-.01.2-.03.41-.17.55-.14.15-.36.18-.57.19-1.47.13-2.93.26-4.4.4,0,0-1.72,1.05-1.17,2.1-.22,1.6-.43,3.2-.65,4.81-1,.08-1.97.49-2.71,1.16.38.45.76.89,1.13,1.34-1.03,1.78-2.67,3.2-4.58,3.96.56.83,1.12,1.66,1.68,2.49-.19.94.18,1.97.92,2.58-2.06,1.07-3.92,2.54-5.43,4.3,1.43.55,2.69,1.51,3.61,2.74-1.13.64-2.26,1.52-2.55,2.78-.28,1.19.26,2.4.72,3.54,1.52,3.76,2.3,7.82,2.39,11.18,4.94,4.5,4.42,12.5,8.03,18.12.57.88,1.26,1.8,1.16,2.85-.1.99-.89,1.76-1.23,2.69-1.01,2.81,2.26,5.34,2.67,8.3.38,2.72-1.69,5.68-.34,8.07.81-.23,1.62-.46,2.43-.69,1.26,2,.07,4.62.31,6.97.29,2.78,2.55,4.89,4.67,6.73,1.19-.4,1.87-1.61,2.62-2.61.75-1.01,1.96-1.96,3.15-1.56,1.52.51,1.57,2.62,1.46,3.92.73,1.13,1.58,2.19,2.53,3.14.96-.43,1.78-1.15,3.3-1.74.91,1.39,2.56,2.27,4.23,2.25,1.11-.01,2.22-.39,3.32-.23,1.46.21,2.6,1.33,3.91,2.01s3.27.74,3.92-.59c1.07,1.35,2.82,1.98,4.52,2.24,5.13.79,10.23-1.19,15.15-2.85,4.1-1.38,8.28-2.57,12.54-3.31,1.12-.19,2.55-.21,3.05.81-.03-1.63,1.92-2.45,3.5-2.83,1.96-.47,4.15-.91,5.9.09.48-.85.96-1.71,1.99-2.68,1.89-1.1,3.89-2.23,6.07-2.32.46-.02.94,0,1.37-.19.73-.32,1.07-1.16,1.64-1.72.72-.7,1.78-.9,2.67-1.37,1.74-.91,2.82-2.95,2.6-4.9-.09-.79-.37-1.56-.34-2.36.02-.8.49-1.67,1.28-1.78.71-.1,1.38.45,2.1.44.81-.02,1.41-.72,2.08-.2-.48-2.08-.96-4.15-1.43-6.23,1.25,1.51,3.86.35,4.72-1.41s.73-3.84,1.4-5.67c.58-1.58,1.71-2.89,2.59-4.32,1.27-2.07,2.03-4.41,2.77-6.72,1.15-3.59,2.3-7.17,3.43-10.77.56-1.78,1.11-3.59,1.13-5.45.02-2.82-1.28-5.62-3.44-7.42Z"/>
        <path class="st1" d="M566.84,245.31c-.72-1.2-2.04-2.23-1.94-3.63.07-.97.84-1.97.38-2.83-.28-.53-.92-.74-1.41-1.1-1.39-1.04-1.31-3.13-.9-4.82.41-1.69.99-3.54.18-5.08-.43-.81-1.21-1.43-1.44-2.32-.49-1.95,1.95-3.6,1.81-5.61-.05-.71-.42-1.35-.61-2.04-.59-2.23.85-4.47.96-6.77.32-.29.75-.8,1.22-1.39.24-.3.48-.6.72-.92.23-.29.46-.6.53-.97.24-1.37-1.72-1.83-2.81-2.68-1.07-.83-1.39-2.33-1.25-3.68.14-1.34.64-2.62.92-3.94,1.05-4.95-1.15-10.11-.36-15.11.51-3.24,2.27-6.37,1.76-9.62-.3-1.93-1.39-3.67-1.81-5.58-.83-3.71.9-7.64.04-11.34-.31-1.34-.95-2.57-1.39-3.87-1.47-4.3-.74-9,0-13.49.29-3.51,3.03-5.07,2.42-7.16-.34-1.17-1.58-1.77-2.5-2.57-3.1-2.7-2.49-7.73-4.54-11.29-1.04-1.8-2.8-3.32-3.02-5.39-.11-1.03.2-2.08.09-3.11-.3-2.69-3.21-4.27-4.37-6.71-1.06-2.22-.72-5.21-2.62-6.78-.93-.77-2.19-.99-3.28-1.51-4.07-1.93-4.87-7.28-7.41-11-2.57-3.76-7.05-5.92-9.46-9.78-1.07-1.71-1.75-3.77-3.35-4.99-.95-.72-2.13-1.07-3.13-1.71-1.05-.68-1.87-1.66-2.75-2.55-3.3-3.28-7.82-5.31-12.47-5.58-4.7-4.06-9.6-8.08-15.24-7.66-1.63.12-3.26.63-4.89.39-.98-.14-1.9-.55-2.81-.95-7.83-3.36-16.1-5.61-24.46-7.27-4.42-.88-8.9-1.6-13.41-1.59-8.15.03-16.08,2.44-23.87,4.84-3.74-2.38-7.27-1.9-10.19-.66-2.92,1.24-5.53,3.14-8.46,4.37-1.45.61-3.1,1.14-3.9,2.5-.35.59-.5,1.29-.9,1.85-.56.77-1.5,1.14-2.38,1.49-12.87,5.09-24.34,13.66-32.88,24.55-3.49,2.19-6.36,6.13-8.91,10.06-1.02,1.56-2.01,3.15-2.93,4.77-4.85,8.45-8.05,17.85-9.35,27.5-1.93.06-3.26.12-4.54.41,0,2.8.53,5.6,1.53,8.21-.46-.41-1.12.23-1.37.79-3.43,7.57-1.2,16.33-.95,24.63.22,7.69-1.32,15.35-1.27,23.04.04,4.92.73,9.82,1.29,14.71.57,4.96,1,9.94,1.29,14.93.14,2.41.24,4.84.16,7.25-.06,1.79-.22,3.56-.54,5.32l.03,2.16c.52,4.3.59,4.9,1.11,9.2.09.73.17,1.49-.1,2.17-.22.56-.65,1.01-.87,1.57-.48,1.27.29,2.64.64,3.95,1.33,4.93-3.23,10.7-.36,14.92-.45-.5-1.09.43-1.08,1.1.03,2.56.81,5.1,2.2,7.24-1.5.66-2.39,2.29-2.62,3.92-.22,1.63.11,3.27.45,4.88-.81,2.61-.73,5.47.26,7.99.21.53.3,1.34-.1,1.59-.07.04-.15.08-.25.08-.56,1.83-.26,3.9.78,5.5.3.47.67.91.78,1.46.19.93-.42,1.81-.86,2.65-1.91,3.6-.78,8.53,2.52,10.93-.91-.12-1.71.74-1.87,1.64-.16.9.15,1.81.45,2.68.96,2.75,1.92,5.5,2.88,8.24-.73-.06-.75.72-.48,1.25.27.54.73.95,1.01,1.48,1.01,1.92-.75,4.08-1.19,6.2-.4,1.94.44,4.08,2.06,5.23-1.02.24-1.37,1.58-1.05,2.58.32.99,1.06,1.79,1.53,2.72,1.01,1.99.69,4.36.9,6.59.21,2.23,1.39,4.76,3.61,5.03-.72,3.81-.06,7.87,1.83,11.26.29.53.62,1.06.72,1.66.1.64-.08,1.28-.2,1.92-.05.27-.09.55-.09.82,0,1.28.81,2.4,1.43,3.52,1.39,2.5,1.93,5.46,1.54,8.29l-.37-.12c2.81,7.45,8.48,13.49,11.76,20.74,1.59,3.5,2.74,7.45,5.73,9.87.63.51,1.35.98,1.66,1.72.32.8.08,1.69-.03,2.54-.37,2.99,1.23,6.14,3.88,7.59,1.04.57,2.22.91,3.11,1.69,1.01.89,1.49,2.21,1.99,3.46,1.43,3.64,3.33,7.2,6.28,9.76,1.93,1.67,4.39,2.85,6.91,3.14,1.33.15,2.67.06,3.96-.33,2.77,5.77,9.08,9.53,15.44,9.61,1.2.02,2.4-.09,3.59-.35,1.64,3.21,5.43,4.58,8.88,5.67,2.84.9,6.79,1.35,8.02-1.37.31.97.62,1.95.93,2.92,2.66-1.69,6.1-.31,9.14.53,3.04.84,7.28.4,8.02-2.67,4.64,1.87,9.79,3.06,14.64,1.83,3.37-.86,6.67-2.86,10.08-2.16,1.68.35,3.23,1.34,4.94,1.33,1.74-.01,3.27-1.05,4.9-1.65,1.63-.6,3.81-.59,4.71.9,3.67-2.7,6.87-6.04,9.42-9.81,3.31,0,5.19-.28,6.81-1.17s2.94-2.56,2.88-4.41c.9-.21,1.74-.59,2.51-1.07,1.9-1.19,3.39-3.11,4.28-5.2.42-.99.74-2.05,1.42-2.87.71-.86,1.73-1.36,2.74-1.89.47-.25.94-.5,1.37-.8,4.39-3.02,4.42-10.01,8.74-13.13,1.2-.86,2.67-1.37,3.64-2.48.98-1.1,1.1-3.18-.25-3.79,2.48-1.15,3.44-4.12,4.13-6.77,1.29-4.97,2.53-9.95,3.74-14.94.26-1.07.52-2.14.77-3.2,2.17-9.03,4.34-18.07,7.55-26.78,2.28-1.97,3.73-4.6,3.96-7.36.07-.76.05-1.55.35-2.24.26-.59.72-1.05,1.05-1.6.6-.98.77-2.22.44-3.33-.11-.36-.26-.74-.15-1.1.14-.46.65-.68,1.05-.95,1.3-.9,1.61-2.69,1.57-4.27-.04-1.58-.3-3.23.28-4.7.4-1,1.16-1.82,1.7-2.75s.85-2.14.3-3.07c-.25-.42-.65-.73-.88-1.16-.65-1.22.29-2.63.83-3.91,1.25-2.98.3-6.67,2.03-9.41,1.4-1.98,2.67-3.77,3.01-5.85.34-2.08-.56-4.52-2.54-5.23-.25-.09-.52-.16-.69-.35-.48-.54.17-1.32.68-1.85,1.56-1.62,1.9-4.28.79-6.24-.35-.62-.84-1.2-1.15-1.83-.16-.32-.28-.65-.31-1.01-.06-.74.26-1.45.56-2.13.75-1.69,1.43-3.48,1.33-5.33-.07-1.28-.51-2.52-.73-3.78-.41-2.35-.05-4.83,1.03-6.96.5-.99,1.18-2.02,1.01-3.12-.16-1.07-1.09-1.92-1.17-3-.04-.5.12-1,.27-1.48l1.49-4.7.32-1.02c1.52-1.39,1.89-3.88.83-5.65ZM518.66,351.22c-1.13,3.59-2.28,7.18-3.43,10.77-.74,2.31-1.5,4.65-2.77,6.72-.88,1.44-2.01,2.74-2.59,4.32-.67,1.83-.55,3.91-1.4,5.67s-3.47,2.91-4.72,1.41c.48,2.08.96,4.15,1.43,6.23-.66-.52-1.27.18-2.08.2-.72.02-1.38-.54-2.1-.44-.79.11-1.25.99-1.28,1.78-.02.8.26,1.57.34,2.36.22,1.95-.86,3.99-2.6,4.9-.89.47-1.94.67-2.67,1.37-.58.55-.91,1.39-1.64,1.72-.42.19-.91.16-1.37.19-2.19.1-4.18,1.22-6.07,2.32-1.02.97-1.51,1.83-1.99,2.68-1.75-1-3.94-.56-5.9-.09-1.59.38-3.53,1.2-3.5,2.83-.5-1.02-1.94-1-3.05-.81-4.26.74-8.44,1.93-12.54,3.31-4.92,1.66-10.02,3.64-15.15,2.85-1.7-.26-3.45-.89-4.52-2.24-.65,1.33-2.61,1.27-3.92.59s-2.45-1.8-3.91-2.01c-1.1-.16-2.21.22-3.32.23-1.67.02-3.31-.86-4.23-2.25-1.52.59-2.35,1.31-3.3,1.74-.95-.95-1.8-2.01-2.53-3.14.11-1.31.06-3.41-1.46-3.92-1.19-.4-2.4.56-3.15,1.56-.75,1.01-1.43,2.21-2.62,2.61-2.11-1.84-4.37-3.94-4.67-6.73-.25-2.35.95-4.97-.31-6.97-.81.23-1.62.46-2.43.69-1.34-2.4.73-5.35.34-8.07-.42-2.96-3.69-5.49-2.67-8.3.34-.93,1.13-1.7,1.23-2.69.1-1.04-.59-1.97-1.16-2.85-3.61-5.62-3.1-13.62-8.03-18.12-.09-3.36-.87-7.42-2.39-11.18-.46-1.13-1-2.34-.72-3.54.29-1.26,1.42-2.14,2.55-2.78-.91-1.23-2.18-2.19-3.61-2.74,1.52-1.76,3.37-3.23,5.43-4.3-.74-.61-1.11-1.64-.92-2.58-.56-.83-1.12-1.66-1.68-2.49,1.91-.76,3.55-2.18,4.58-3.96-.38-.45-.76-.89-1.13-1.34.74-.67,1.71-1.08,2.71-1.16.22-1.6.43-3.2.65-4.81-.55-1.05,1.17-2.1,1.17-2.1,1.47-.13,2.93-.26,4.4-.4.2-.02.43-.05.57-.19.14-.14.15-.36.17-.55.04-.72.09-1.44.13-2.16.72.05,1.3.58,1.9.99.6.41,1.42.71,2.02.3.27-.18.44-.48.69-.68.62-.51,1.55-.37,2.27,0s1.34.9,2.1,1.15c.27.09.59.13.82-.03.16-.11.25-.29.33-.46.37-.78.75-1.55,1.12-2.33,2.08.34,4.17.68,6.25,1.03,2.04-.87,4.17-.61,4.74.73.45-1.01.99-1.97,1.63-2.88.18-.26.39-.53.68-.65.3-.12.64-.08.95-.01,2.03.41,3.93,1.44,5.38,2.92.3.3.64.65,1.06.62.31-.02.57-.24.8-.46.92-.86,1.85-1.71,2.77-2.57.05.88.87,1.56,1.73,1.74.86.18,1.75-.02,2.61-.23,1.01-.24,2.19-.64,2.45-1.64,2.97.78,5.95,1.55,8.92,2.33.78-1.06,2.81.56,4.47.29.58-.09,1.1-.43,1.67-.56,1.07-.25,2.18.24,3.28.25,1.52,0,2.88-.88,4.36-1.23,1.48-.35,3.46.21,3.63,1.71,1.25-.45,1.67-2.41,3-2.47,1.35-.06,1.87,1.85,3.09,2.43.91-.25,1-1.68,1.88-2,.46-.17.96.03,1.41.22l5.4,2.33c1.55-1.11,3.14-1.38,4.19-.9s1.86,1.4,2.92,1.87c1.06.47,2.65.16,2.85-.98.58.65,1.01,1.44,1.23,2.28,1.16-.89,3.16,0,3.27,1.46.78-.7,2.12-.65,2.83.12.05-.53.11-1.05.16-1.58.99,2.18,1.98,4.35,2.96,6.53,1.27-.28,1.95-.49,2.62-.45-.48,4.54.91,9.25,3.78,12.81,2.24,2.77,5.57,5.74,4.51,9.14-1.29.02-2.55.74-3.22,1.84,2.17,1.8,3.47,4.61,3.44,7.42-.02,1.86-.57,3.67-1.13,5.45ZM559.36,274.06c-.05.64-.12,1.31-.45,1.86-.53.88-1.58,1.26-2.49,1.73-2.61,1.36-4.51,3.99-4.98,6.89-.19,1.2-.21,2.57-1.08,3.42-.44.44-1.05.67-1.55,1.04-1.46,1.08-1.78,3.09-2.22,4.86-.97,3.88-3.09,7.45-8.45,13.28-1.82,4.8-3.78,9.55-5.88,14.23-.3.66-.93,1.45-1.57,1.11.56-2.41.7-4.91.46-7.37-.34-3.58-1.47-7.03-2.59-10.44-.72-2.2-1.47-4.45-2.93-6.24s-3.82-3.04-6.29-2.32c-4.95-1.26-10.09-1.82-15.2-1.67-.81.03-1.66.06-2.41-.26-.97-.42-1.59-1.38-2.44-2.01-2.32-1.73-5.57-.7-8.46-.51-4.34.29-8.54-1.51-12.86-1.97-2.95-.31-5.93,0-8.89.12-.33.01-.66.01-.99.02-.33.29-.67.56-.98.87-.83.81-1.62,1.69-2.63,2.28-1.05.62-2.27.88-3.48,1.01-3.57.39-7.16-.28-10.68-.98-2.34-.47-4.73-.97-6.78-2.19-1.32-.79-2.46-1.85-3.6-2.9-3.19-.25-6.29-.48-9.21-.65-2.7.26-5.39.52-8.09.78-.82.08-1.73.2-2.26.84-.35.42-.46,1-.76,1.46-.99,1.51-3.27,1.02-5.01.55-1.74-.47-4.26-.28-4.52,1.51-.06.41.02.84-.14,1.21-.23.54-.88.76-1.46.87-3.67.68-7.35-.72-10.97-1.64s-7.86-1.22-10.69,1.21c-2.09,1.8-3.51,5.06-6.27,4.99-.46-.01-.92-.13-1.37-.03-.64.13-1.12.64-1.54,1.13-2.26,2.66-4.11,5.67-6.18,8.44-.94-3.24-1.91-6.54-3.79-9.34-1.88-2.8-4.86-5.07-8.23-5.25-.18-1.5-.36-2.99-.53-4.49-.05-.45-.12-.94-.44-1.27-.68-.71-1.84-.19-2.82-.16-3.58.13-4.13-6.02-7.59-6.98-.69-.19-1.43-.14-2.11-.38-1.83-.64-2.36-2.93-2.59-4.85-.15-1.3-.28-2.6-.4-3.9-.4-4.27-.62-8.5-.57-12.53.03-2.12.12-4.19.31-6.18,2.71-11.38,3.72-23.16,2.97-34.83-.39-6.15-1.26-12.26-1.41-18.42-.25-10.08,1.44-20.09,3.12-30.02.13-.75.26-1.52.68-2.16.43-.66,1.11-1.1,1.67-1.64,1.72-1.68,2.21-4.22,2.61-6.59.99-5.87,1.98-11.75,2.98-17.62.44-2.61.88-5.23.89-7.88,0-1.84-.19-3.69.07-5.51.38-2.68,1.73-5.12,3.05-7.49,3.52-6.3,7.04-12.6,10.56-18.9.46-.83.97-1.69,1.8-2.13.96-.5,2.14-.32,3.18-.64s1.92-1.7,1.26-2.29c8.66-2.86,17.13-6.29,25.33-10.28-.08,1.08,1.47,1.65,2.41,1.12.95-.53,1.38-1.64,1.74-2.67,2.91,1.6,6.53,1.05,9.68,0,3.15-1.04,6.23-2.54,9.54-2.73,2.03-.12,4.68-.12,5.3-2.05.35,1.71,2.41,2.57,4.14,2.33s3.23-1.25,4.79-2.03c1.56-.79,3.39-1.38,5.02-.74,1.51.59,2.51,2.14,4.02,2.72,3.29,1.27,6.84-2.5,9.8-.88,5.47-1.19,10.73,2.43,16.22,3.57,2.7.56,5.63.56,7.96,2.05,1.2.77,2.16,1.9,3.48,2.44,1.6.66,3.48.35,5.1.97,1.28.49,2.26,1.51,3.33,2.37,4.06,3.29,9.77,4.41,14.78,2.91.18,1.56,1.97,2.53,3.54,2.37,1.57-.15,2.93-1.09,4.22-1.99,3.11,2.94,6.22,5.88,9.32,8.83.45.43.91.87,1.19,1.42.29.57.37,1.23.49,1.86.9,4.84,4.12,8.88,7.28,12.65.98,1.17,2,2.41,2.25,3.91.23,1.39-.23,2.79-.27,4.2-.04,1.41.61,3.06,2,3.32-1.87,5-.82,10.97,2.65,15.03-1.77.04-2.82,2.2-2.5,3.94.32,1.74,1.51,3.17,2.44,4.67,1.35,2.18,2.19,4.62,3.03,7.04,1.51,4.37,3.02,8.74,4.52,13.12.16.46.32.96.19,1.43-.15.54-.65.91-.92,1.4-.61,1.08-.04,2.42.43,3.57,1.39,3.42,1.84,7.22,1.19,13.29.19,26.18,11.59,51.65,9.54,77.75Z"/>
        <path class="st1" d="M549.82,196.31c.65-6.07.2-9.87-1.19-13.29-.47-1.15-1.04-2.49-.43-3.57.28-.49.77-.86.92-1.4.13-.47-.03-.97-.19-1.43-1.51-4.37-3.02-8.74-4.52-13.12-.84-2.42-1.68-4.87-3.03-7.04-.93-1.51-2.12-2.93-2.44-4.67-.32-1.74.73-3.9,2.5-3.94-3.46-4.06-4.51-10.03-2.65-15.03-1.38-.26-2.03-1.91-2-3.32.04-1.41.5-2.81.27-4.2-.25-1.5-1.27-2.74-2.25-3.91-3.16-3.77-6.37-7.81-7.28-12.65-.12-.63-.2-1.29-.49-1.86-.28-.55-.74-.99-1.19-1.42-3.11-2.94-6.22-5.88-9.32-8.83-1.29.91-2.65,1.84-4.22,1.99-1.57.15-3.36-.81-3.54-2.37-5,1.5-10.72.38-14.78-2.91-1.06-.86-2.05-1.88-3.33-2.37-1.62-.62-3.49-.3-5.1-.97-1.31-.54-2.28-1.67-3.48-2.44-2.32-1.49-5.25-1.49-7.96-2.05-5.49-1.14-10.74-4.76-16.22-3.57-2.96-1.61-6.51,2.15-9.8.88-1.52-.59-2.51-2.13-4.02-2.72-1.62-.64-3.46-.05-5.02.74-1.56.79-3.06,1.79-4.79,2.03s-3.78-.62-4.14-2.33c-.62,1.93-3.27,1.93-5.3,2.05-3.32.19-6.39,1.69-9.54,2.73-3.15,1.04-6.77,1.6-9.68,0-.36,1.02-.8,2.13-1.74,2.67-.95.53-2.49-.04-2.41-1.12-8.2,3.99-16.67,7.43-25.33,10.28.66.59-.22,1.98-1.26,2.29s-2.22.13-3.18.64c-.84.44-1.34,1.31-1.8,2.13-3.52,6.3-7.04,12.6-10.56,18.9-1.32,2.37-2.67,4.8-3.05,7.49-.26,1.82-.06,3.67-.07,5.51-.01,2.65-.45,5.27-.89,7.88-.99,5.87-1.98,11.75-2.98,17.62-.4,2.37-.89,4.91-2.61,6.59-.56.55-1.24.99-1.67,1.64-.42.64-.55,1.41-.68,2.16-1.68,9.94-3.37,19.95-3.12,30.02.15,6.16,1.02,12.27,1.41,18.42.74,11.67-.26,23.45-2.97,34.83-.19,1.98-.28,4.05-.31,6.18-.05,4.03.17,8.26.57,12.53.12,1.3.25,2.6.4,3.9.22,1.93.76,4.22,2.59,4.85.67.24,1.42.19,2.11.38,3.46.96,4,7.1,7.59,6.98.98-.04,2.15-.55,2.82.16.31.33.38.81.44,1.27.18,1.5.36,2.99.53,4.49,3.37.17,6.35,2.45,8.23,5.25,1.88,2.8,2.85,6.1,3.79,9.34,2.08-2.77,3.92-5.78,6.18-8.44.42-.49.9-1,1.54-1.13.45-.09.91.02,1.37.03,2.76.07,4.18-3.19,6.27-4.99,2.83-2.43,7.07-2.13,10.69-1.21s7.3,2.32,10.97,1.64c.58-.11,1.23-.33,1.46-.87.16-.38.08-.81.14-1.21.26-1.79,2.78-1.98,4.52-1.51,1.74.47,4.02.96,5.01-.55.3-.46.41-1.04.76-1.46.53-.64,1.44-.76,2.26-.84,2.7-.26,5.39-.52,8.09-.78,2.92.17,6.02.4,9.21.65,1.14,1.05,2.28,2.11,3.6,2.9,2.05,1.22,4.44,1.72,6.78,2.19,3.52.7,7.11,1.37,10.68.98,1.21-.13,2.43-.4,3.48-1.01,1-.59,1.79-1.47,2.63-2.28.31-.31.66-.58.98-.87.33,0,.66,0,.99-.02,2.96-.11,5.94-.43,8.89-.12,4.33.46,8.52,2.25,12.86,1.97,2.89-.19,6.14-1.22,8.46.51.85.63,1.47,1.59,2.44,2.01.75.33,1.59.29,2.41.26,5.11-.16,10.24.4,15.2,1.67,2.47-.72,4.83.53,6.29,2.32s2.21,4.04,2.93,6.24c1.12,3.42,2.25,6.86,2.59,10.44.24,2.46.09,4.96-.46,7.37.64.34,1.27-.45,1.57-1.11,2.1-4.68,4.06-9.43,5.88-14.23,5.37-5.83,7.49-9.41,8.45-13.28.44-1.77.76-3.78,2.22-4.86.5-.37,1.11-.6,1.55-1.04.87-.86.88-2.22,1.08-3.42.47-2.9,2.37-5.54,4.98-6.89.91-.47,1.96-.85,2.49-1.73.33-.55.4-1.22.45-1.86,2.05-26.1-9.35-51.57-9.54-77.75Z"/>
      </g>
    </g>
    <circle class="st3" cx="396.53" cy="219.42" r="9.73"/>
    <circle class="st3" cx="507.13" cy="218.04" r="9.73"/>
    <path class="st1" d="M503.79,321.88c-5.9-2.35-12.51-2.16-18.77-1.08-6.26,1.08-12.34,3.01-18.6,4.06-21.39,3.59-43.03-3.25-64.69-4.3-1.31-.06-2.87.02-3.58,1.12-.73,1.15-.08,2.65.64,3.81,7.75,12.5,21.8,19.62,35.73,24.36,4.67,1.59,9.43,2.99,14.34,3.5,9.14.95,18.41-1.28,26.72-5.2s15.74-9.48,22.73-15.44c1.85-1.58,3.71-3.23,4.84-5.37s1.53-5.11.64-5.46Z"/>
  </g>
</svg>