<?xml version="1.0" encoding="UTF-8"?>
<svg id="Layer_1" data-name="Layer 1" xmlns="http://www.w3.org/2000/svg" viewBox="0 0 841.89 467.72">
  <defs>
    <style>
      .cls-1 {
        fill: #55565a;
      }

      .cls-1, .cls-2 {
        stroke: #55565a;
        stroke-miterlimit: 10;
      }

      .cls-3 {
        fill: #76767b;
      }

      .cls-4 {
        fill: #6ba5c7;
      }

      .cls-5 {
        fill: #37383b;
      }

      .cls-6 {
        fill: #fff;
      }

      .cls-7 {
        fill: #e4ad97;
      }

      .cls-2 {
        fill: none;
      }
    </style>
  </defs>
  <rect class="cls-4" x="0" y="-.9" width="841.89" height="469.51"/>
  <g>
    <path class="cls-6" d="M323.98,239.36c-.39-.41-.76-.83-1.16-1.23-.81-.81-1.7-1.62-2.82-1.85-3.21-.66-4.15,3.76-3.48,6.97,1.22,5.84,5.6,11.19,3.72,16.85-.5,1.52-.51,8.6,1.26,11.7,2.84,4.96,3.03,8.93,4.62,15.08s4.56,14.49,4.95,20.19c.34,4.91-.79,6.9.55,11.64.36,1.29.9,2.65,2.03,3.38,2,1.3,5.31,2.97,6.96,1.01-5.27-27.22-9.85-57.07-14.06-73.21-.92-3.52-1.84-7.11-2.56-10.54Z"/>
    <path class="cls-6" d="M310.92,174.29c-.19.88-.34,1.77-.43,2.67l.43-2.67Z"/>
    <path class="cls-6" d="M323.58,222.83c-.82-14.82-1.58-30.07,3.25-44.1,1.74-5.06,4.19-9.86,5.66-15,2.77-9.67,2.02-20.23,5.78-29.56.99,5.99,4.13,11.61,8.72,15.59.13-13.22,3.49-26.41,9.7-38.08,5.87-11.02,16.41-21.61,28.83-20.29,1.4,2.69,2.79,5.38,4.19,8.06-.47-5.22,4.76-9.53,9.97-10.04,5.21-.51,10.27,1.69,15.04,3.83,7.13-9.46,25.41-3.45,29.55-3.04s3.67-3.21,5.02-3.63c2.71-.83,50.23,18.42,59.52,58.14.89,3.79-1.33,7.72-1.16,11.61.35,7.95,6.1,14.42,10.45,21.08,7.6,11.64,6.64,25,7.73,34.8.42,3.74.78,7.48,1.12,11.23.79-1.48,1.69-2.88,2.81-4.15,2.96-3.36,7.71-5.48,11.98-4.88.5-5.59,1-11.18,1.5-16.77.27-3.07.58-6.25,2.08-8.94.94-1.7,2.36-3.24,2.55-5.17.3-3.07-2.59-6.39-.85-8.93,1.26-1.84,4.26-1.88,5.37-3.81,1.84-3.21-3.48-7.25-1.66-10.47,1.31-2.31,5.73-2.76,5.29-5.38-.18-1.1-1.25-1.78-2.13-2.45-3.05-2.32-4.92-6.12-4.89-9.96,1.87-.32,3.49-1.82,4.78-4.28-2.22-2.9-4.44-5.8-6.65-8.69,4.61-.97,5.25-7.63,3.04-11.8s-6.08-7.51-7.18-12.1c-.39-1.66-.42-3.47-1.36-4.89-.72-1.09-1.88-1.79-3-2.46-6.13-3.65-12.25-7.3-18.38-10.95,1.93-1.73,4.38-2.87,6.95-3.23-7.64-3.75-11.65-12.09-17.31-18.43-9.04-10.13-23.31-15.33-35.32-13.72-3.96,1.43-7.92,2.86-11.89,4.28-2.73-14.72-17.6-24.86-32.49-26.45-14.89-1.59-29.65,3.63-43.23,9.91-19.08,8.83-37.35,20.14-51.52,35.67-14.17,15.53-24.01,35.65-24.48,56.67,1.81-3.14,3.63-6.27,5.44-9.4-3.94,11.37-6.44,23.23-7.42,35.22,2.54-4.92,5.07-9.83,7.61-14.75-1.24,7.35-3.5,14.54-4.47,23.56-.4,2.54-.81,5.08-1.21,7.62.77-3.57,2.37-6.96,4.68-9.78-2.84,8.54-3.76,17.71-2.67,26.64.7-1.6,1.4-3.19,2.11-4.79,1.44,8.02-.61,16.36.76,24.4.98,5.74,3.67,11.11,4.3,16.9.43,3.89.45,8.75,3.65,10.68-1.27-6.32-1.77-11.99-.18-15.51Z"/>
    <path class="cls-6" d="M545.53,215.78c-1.16-.75-2.44-1.19-3.76-1.37-4.27-.6-9.02,1.52-11.98,4.88-1.12,1.27-2.03,2.67-2.81,4.15.4,4.48.76,8.96,1.06,13.44,1.52,23.19,1.55,46.48.1,69.67.92.08,1.9.12,2.85.3,4.47.81,9.03-4.27,10.52-8.56,1.49-4.29-.09-4.7,1.28-9.03.77-2.42,2-4.69,2.68-7.14,1.49-5.35.29-11.02.12-16.57-.33-11.14,3.54-21.95,4.92-33.01.76-6.11.2-13.42-4.97-16.76Z"/>
    <path class="cls-6" d="M528.03,236.88c-.29-4.49-.65-8.97-1.06-13.44-.34-3.75-.7-7.49-1.12-11.23-1.09-9.8-.13-23.16-7.73-34.8-4.35-6.66-10.1-13.13-10.45-21.08-.17-3.89,2.04-7.82,1.16-11.61-9.29-39.72-56.81-58.97-59.52-58.14-1.36.41-.88,4.04-5.02,3.63s-22.42-6.42-29.55,3.04c-4.78-2.15-9.83-4.35-15.04-3.83-5.21.51-10.44,4.83-9.97,10.04-1.4-2.69-2.79-5.38-4.19-8.06-12.42-1.32-22.96,9.27-28.83,20.29-6.21,11.67-9.57,24.85-9.7,38.08-4.59-3.98-7.73-9.6-8.72-15.59-3.76,9.34-3.01,19.89-5.78,29.56-1.47,5.14-3.92,9.95-5.66,15-4.84,14.03-4.07,29.28-3.25,44.1-1.59,3.51-1.09,9.18.18,15.51.07.34.14.68.21,1.02.72,3.43,1.64,7.01,2.56,10.54,4.21,16.13,8.79,45.99,14.06,73.21,2.31,11.91,4.75,23.3,7.35,32.82,1.36,4.99,2.77,9.49,4.23,13.25,1.28,3.29,2.61,5.91,4.08,8.19,2.26,3.51,4.83,6.19,7.98,9.15,1.9,1.79,4,3.67,6.37,5.92,2.5,2.36,7.05,6.06,12.13,9.87,7.69,5.78,16.58,11.83,21.36,13.94,7.44,5.08,36.31,3.41,55.63,1,16.93-2.12,35.43-19.09,45.39-28.44,1.75-1.64,3.32-3.34,4.75-5.08,10.91-13.28,13.1-28.83,14.02-35.36,1.95-13.88,3.36-27.83,4.24-41.81,1.45-23.2,1.42-46.48-.1-69.67Z"/>
    <path class="cls-6" d="M275.15,468.19c-.02-.07-.04-.14-.06-.21-1.53-5.89-1.18-12.08-.83-18.15.66-11.31,6.68-17.59,13-26.99,2.85-4.23,5.9-8.35,9.09-12.37-10.87.43-22.9,3.16-31.24,6.1-15.21,5.36-28.42,4.61-43.71,9.74-15.29,5.13-28.3,21.15-41.11,30.96-4.98,3.81-14.59,7.36-21.17,10.94h116.03Z"/>
    <path class="cls-6" d="M275.15,468.19h84.21c-.52-1.3-1-2.61-1.46-3.91-3.28-9.2-6.55-18.4-9.83-27.6-4.19-11.75-8.42-23.77-8.64-36.24-.04-2.42.17-5.09,1.88-6.8,1.32-1.32,3.24-1.77,4.95-2.52,5.39-2.37,8.78-7.98,9.99-13.76-1.47-2.28-2.81-4.9-4.08-8.19-1.46-3.76-2.86-8.26-4.23-13.25-14.2,6.82-22.21,22.33-33.6,34.17-6.25,6.49-12.35,13.27-17.99,20.37-3.19,4.02-6.25,8.14-9.09,12.37-6.32,9.4-12.34,15.69-13,26.99-.35,6.07-.69,12.26.83,18.15.02.07.04.14.06.21Z"/>
    <path class="cls-6" d="M348.08,436.69c3.28,9.2,6.55,18.4,9.83,27.6.46,1.3.94,2.61,1.46,3.91h149.81c.43-1.15.81-2.31,1.14-3.48,6.46-22.42.09-46.55-.62-69.87-.11-3.73-.08-7.44.17-11.12-1.43,1.74-3,3.44-4.75,5.08-9.97,9.35-28.47,26.33-45.39,28.44-19.31,2.41-48.19,4.08-55.63-1-4.77-2.11-13.67-8.16-21.36-13.94-5.08-3.82-9.63-7.51-12.13-9.87-2.37-2.24-4.47-4.13-6.37-5.92-3.15-2.96-5.72-5.65-7.98-9.15-1.21,5.78-4.6,11.39-9.99,13.76-1.71.75-3.63,1.2-4.95,2.52-1.71,1.71-1.93,4.38-1.88,6.8.22,12.48,4.45,24.49,8.64,36.24Z"/>
    <path class="cls-6" d="M655.08,468.19c-4.5-2.41-8.85-5.08-13.03-8.01-8.96-6.3-18.05-14.12-29-14.24-8.58-.1-17.98,4.52-25.21-.11-2.37-1.52-4.09-3.84-6.01-5.9-8.35-8.98-30.61-12.95-44.51-16.11,13.36,14.93,27.83,29.2,40.78,44.37h76.97Z"/>
    <path class="cls-6" d="M510.32,464.72c-.34,1.17-.72,2.33-1.14,3.48h68.93c-12.96-15.17-27.42-29.44-40.78-44.37-3.97-4.44-7.85-8.93-11.55-13.52-1.39-1.72-10.64-10.53-16.07-15.45.72,23.32,7.08,47.44.62,69.87Z"/>
  </g>
  <g>
    <path class="cls-7" d="M322.98,240.36c-.39-.41-.76-.83-1.16-1.23-.81-.81-1.7-1.62-2.82-1.85-3.21-.66-4.15,3.76-3.48,6.97,1.22,5.84,5.6,11.19,3.72,16.85-.5,1.52-.51,8.6,1.26,11.7,2.84,4.96,3.03,8.93,4.62,15.08s4.56,14.49,4.95,20.19c.34,4.91-.79,6.9.55,11.64.36,1.29.9,2.65,2.03,3.38,2,1.3,5.31,2.97,6.96,1.01-5.27-27.22-9.85-57.07-14.06-73.21-.92-3.52-1.84-7.11-2.56-10.54Z"/>
    <path class="cls-3" d="M322.58,223.83c-.82-14.82-1.58-30.07,3.25-44.1,1.74-5.06,4.19-9.86,5.66-15,2.77-9.67,2.02-20.23,5.78-29.56.99,5.99,4.13,11.61,8.72,15.59.13-13.22,3.49-26.41,9.7-38.08,5.87-11.02,16.41-21.61,28.83-20.29,1.4,2.69,2.79,5.38,4.19,8.06-.47-5.22,4.76-9.53,9.97-10.04,5.21-.51,10.27,1.69,15.04,3.83,7.13-9.46,25.41-3.45,29.55-3.04s3.67-3.21,5.02-3.63c2.71-.83,50.23,18.42,59.52,58.14.89,3.79-1.33,7.72-1.16,11.61.35,7.95,6.1,14.42,10.45,21.08,7.6,11.64,6.64,25,7.73,34.8.42,3.74.78,7.48,1.12,11.23.79-1.48,1.69-2.88,2.81-4.15,2.96-3.36,7.71-5.48,11.98-4.88.5-5.59,1-11.18,1.5-16.77.27-3.07.58-6.25,2.08-8.94.94-1.7,2.36-3.24,2.55-5.17.3-3.07-2.59-6.39-.85-8.93,1.26-1.84,4.26-1.88,5.37-3.81,1.84-3.21-3.48-7.25-1.66-10.47,1.31-2.31,5.73-2.76,5.29-5.38-.18-1.1-1.25-1.78-2.13-2.45-3.05-2.32-4.92-6.12-4.89-9.96,1.87-.32,3.49-1.82,4.78-4.28-2.22-2.9-4.44-5.8-6.65-8.69,4.61-.97,5.25-7.63,3.04-11.8s-6.08-7.51-7.18-12.1c-.39-1.66-.42-3.47-1.36-4.89-.72-1.09-1.88-1.79-3-2.46-6.13-3.65-12.25-7.3-18.38-10.95,1.93-1.73,4.38-2.87,6.95-3.23-7.64-3.75-11.65-12.09-17.31-18.43-9.04-10.13-23.31-15.33-35.32-13.72-3.96,1.43-7.92,2.86-11.89,4.28-2.73-14.72-17.6-24.86-32.49-26.45-14.89-1.59-29.65,3.63-43.23,9.91-19.08,8.83-37.35,20.14-51.52,35.67-14.17,15.53-24.01,35.65-24.48,56.67,1.81-3.14,3.63-6.27,5.44-9.4-3.94,11.37-6.44,23.23-7.42,35.22,2.54-4.92,5.07-9.83,7.61-14.75-1.24,7.35-3.5,14.54-4.47,23.56-.4,2.54-.81,5.08-1.21,7.62.77-3.57,2.37-6.96,4.68-9.78-2.84,8.54-3.76,17.71-2.67,26.64.7-1.6,1.4-3.19,2.11-4.79,1.44,8.02-.61,16.36.76,24.4.98,5.74,3.67,11.11,4.3,16.9.43,3.89.45,8.75,3.65,10.68-1.27-6.32-1.77-11.99-.18-15.51Z"/>
    <path class="cls-7" d="M544.53,216.79c-1.16-.75-2.44-1.19-3.76-1.37-4.27-.6-9.02,1.52-11.98,4.88-1.12,1.27-2.03,2.67-2.81,4.15.4,4.48.76,8.96,1.06,13.44,1.52,23.19,1.55,46.48.1,69.67.92.08,1.9.12,2.85.3,4.47.81,9.03-4.27,10.52-8.56,1.49-4.29-.09-4.7,1.28-9.03.77-2.42,2-4.69,2.68-7.14,1.49-5.35.29-11.02.12-16.57-.33-11.14,3.54-21.95,4.92-33.01.76-6.11.2-13.42-4.97-16.76Z"/>
    <path class="cls-7" d="M527.03,237.89c-.29-4.49-.65-8.97-1.06-13.44-.34-3.75-.7-7.49-1.12-11.23-1.09-9.8-.13-23.16-7.73-34.8-4.35-6.66-10.1-13.13-10.45-21.08-.17-3.89,2.04-7.82,1.16-11.61-9.29-39.72-56.81-58.97-59.52-58.14-1.36.41-.88,4.04-5.02,3.63s-22.42-6.42-29.55,3.04c-4.78-2.15-9.83-4.35-15.04-3.83-5.21.51-10.44,4.83-9.97,10.04-1.4-2.69-2.79-5.38-4.19-8.06-12.42-1.32-22.96,9.27-28.83,20.29-6.21,11.67-9.57,24.85-9.7,38.08-4.59-3.98-7.73-9.6-8.72-15.59-3.76,9.34-3.01,19.89-5.78,29.56-1.47,5.14-3.92,9.95-5.66,15-4.84,14.03-4.07,29.28-3.25,44.1-1.59,3.51-1.09,9.18.18,15.51.07.34.14.68.21,1.02.72,3.43,1.64,7.01,2.56,10.54,4.21,16.13,8.79,45.99,14.06,73.21,2.31,11.91,4.75,23.3,7.35,32.82,1.36,4.99,2.77,9.49,4.23,13.25,1.28,3.29,2.61,5.91,4.08,8.19,2.26,3.51,4.83,6.19,7.98,9.15,1.9,1.79,4,3.67,6.37,5.92,2.5,2.36,7.05,6.06,12.13,9.87,7.69,5.78,16.58,11.83,21.36,13.94,7.44,5.08,36.31,3.41,55.63,1,16.93-2.12,35.43-19.09,45.39-28.44,1.75-1.64,3.32-3.34,4.75-5.08,10.91-13.28,13.1-28.83,14.02-35.36,1.95-13.88,3.36-27.83,4.24-41.81,1.45-23.2,1.42-46.48-.1-69.67Z"/>
    <path class="cls-6" d="M274.15,469.2c-.02-.07-.04-.14-.06-.21-1.53-5.89-1.18-12.08-.83-18.15.66-11.31,6.68-17.59,13-26.99,2.85-4.23,5.9-8.35,9.09-12.37-10.87.43-22.9,3.16-31.24,6.1-15.21,5.36-28.42,4.61-43.71,9.74-15.29,5.13-28.3,21.15-41.11,30.96-4.98,3.81-14.59,7.36-21.17,10.94h116.03Z"/>
    <path class="cls-6" d="M274.15,469.2h84.21c-.52-1.3-1-2.61-1.46-3.91-3.28-9.2-6.55-18.4-9.83-27.6-4.19-11.75-8.42-23.77-8.64-36.24-.04-2.42.17-5.09,1.88-6.8,1.32-1.32,3.24-1.77,4.95-2.52,5.39-2.37,8.78-7.98,9.99-13.76-1.47-2.28-2.81-4.9-4.08-8.19-1.46-3.76-2.86-8.26-4.23-13.25-14.2,6.82-22.21,22.33-33.6,34.17-6.25,6.49-12.35,13.27-17.99,20.37-3.19,4.02-6.25,8.14-9.09,12.37-6.32,9.4-12.34,15.69-13,26.99-.35,6.07-.69,12.26.83,18.15.02.07.04.14.06.21Z"/>
    <path class="cls-7" d="M347.08,437.69c3.28,9.2,6.55,18.4,9.83,27.6.46,1.3.94,2.61,1.46,3.91h149.81c.43-1.15.81-2.31,1.14-3.48,6.46-22.42.09-46.55-.62-69.87-.11-3.73-.08-7.44.17-11.12-1.43,1.74-3,3.44-4.75,5.08-9.97,9.35-28.47,26.33-45.39,28.44-19.31,2.41-48.19,4.08-55.63-1-4.77-2.11-13.67-8.16-21.36-13.94-5.08-3.82-9.63-7.51-12.13-9.87-2.37-2.24-4.47-4.13-6.37-5.92-3.15-2.96-5.72-5.65-7.98-9.15-1.21,5.78-4.6,11.39-9.99,13.76-1.71.75-3.63,1.2-4.95,2.52-1.71,1.71-1.93,4.38-1.88,6.8.22,12.48,4.45,24.49,8.64,36.24Z"/>
    <path class="cls-6" d="M654.08,469.2c-4.5-2.41-8.85-5.08-13.03-8.01-8.96-6.3-18.05-14.12-29-14.24-8.58-.1-17.98,4.52-25.21-.11-2.37-1.52-4.09-3.84-6.01-5.9-8.35-8.98-30.61-12.95-44.51-16.11,13.36,14.93,27.83,29.2,40.78,44.37h76.97Z"/>
    <path class="cls-6" d="M509.32,465.72c-.34,1.17-.72,2.33-1.14,3.48h68.93c-12.96-15.17-27.42-29.44-40.78-44.37-3.97-4.44-7.85-8.93-11.55-13.52-1.39-1.72-10.64-10.53-16.07-15.45.72,23.32,7.08,47.44.62,69.87Z"/>
  </g>
  <path class="cls-2" d="M469.81,331.92c-4.52.29-8.24,4.08-12.75,4.4-2.28.16-4.52-.58-6.8-.73-3.74-.25-7.36,1.11-11.01,1.97-5.93,1.4-12.09,1.52-18.18,1.63-1.43.03-2.87.05-4.3.08-5.36.1-10.73.2-16.09.11-4.84-.08-9.77-.33-14.34-1.94"/>
  <path class="cls-2" d="M444.01,288.37c-1.28-1.67-2.82-2.49-4.92-2.64-.91-.06-1.81.21-2.65.57-4.45,1.91-8.62,6.15-13.65,6.47-3.6.23-7.21-.79-10.55-2.02-2.74-1.01-6.52-3.88-9.55-3.54-1.43.16-2.63,1.33-3.09,2.69s-.28,1.89.22,3.24"/>
  <path class="cls-2" d="M393.65,293.15c-6.09-12.85,7.05-25.89,9.21-37.99"/>
  <path class="cls-2" d="M450.97,287.38c2.66-3.94,3.03-9.07,2.06-13.73s-3.12-8.96-5.2-13.24c-7.66-15.71-14.58-31.77-20.75-48.12"/>
  <path class="cls-2" d="M454.9,374.56c-5.12-1.39-10.36-2.79-15.66-2.44-4.65.31-9.12,1.95-13.75,2.4-4.03.39-8.08-.13-12.1-.65"/>
  <g>
    <path class="cls-2" d="M324.43,239.34c-.39-.41-.76-.83-1.16-1.23-.81-.81-1.7-1.62-2.82-1.85-3.21-.66-4.15,3.76-3.48,6.97,1.22,5.84,5.6,11.19,3.72,16.85-.5,1.52-.51,8.6,1.26,11.7,2.84,4.96,3.03,8.93,4.62,15.08s4.56,14.49,4.95,20.19c.34,4.91-.79,6.9.55,11.64.36,1.29.9,2.65,2.03,3.38,2,1.3,5.31,2.97,6.96,1.01-5.27-27.22-9.85-57.07-14.06-73.21-.92-3.52-1.84-7.11-2.56-10.54Z"/>
    <path class="cls-2" d="M311.37,174.27c-.19.88-.34,1.77-.43,2.67l.43-2.67Z"/>
    <path class="cls-2" d="M327.29,178.71c1.74-5.06,4.19-9.86,5.66-15,2.77-9.67,2.02-20.23,5.78-29.56.99,5.99,4.13,11.61,8.72,15.59.13-13.22,3.49-26.41,9.7-38.08,5.87-11.02,16.41-21.61,28.83-20.29,1.4,2.69,2.79,5.38,4.19,8.06-.47-5.22,4.76-9.53,9.97-10.04,5.21-.51,10.27,1.69,15.04,3.83,7.13-9.46,25.41-3.45,29.55-3.04s3.67-3.21,5.02-3.63c2.71-.83,50.23,18.42,59.52,58.14.89,3.79-1.33,7.72-1.16,11.61.35,7.95,6.1,14.42,10.45,21.08,7.6,11.64,6.64,25,7.73,34.8.42,3.74.78,7.48,1.12,11.23.79-1.48,1.69-2.88,2.81-4.15,2.96-3.36,7.71-5.48,11.98-4.88.5-5.59,1-11.18,1.5-16.77.27-3.07.58-6.25,2.08-8.94.94-1.7,2.36-3.24,2.55-5.17.3-3.07-2.59-6.39-.85-8.93,1.26-1.84,4.26-1.88,5.37-3.81,1.84-3.21-3.48-7.25-1.66-10.47,1.31-2.31,5.73-2.76,5.29-5.38-.18-1.1-1.25-1.78-2.13-2.45-3.05-2.32-4.92-6.12-4.89-9.96,1.87-.32,3.49-1.82,4.78-4.28-2.22-2.9-4.44-5.8-6.65-8.69,4.61-.97,5.25-7.63,3.04-11.8s-6.08-7.51-7.18-12.1c-.39-1.66-.42-3.47-1.36-4.89-.72-1.09-1.88-1.79-3-2.46-6.13-3.65-12.25-7.3-18.38-10.95,1.93-1.73,4.38-2.87,6.95-3.23-7.64-3.75-11.65-12.09-17.31-18.43-9.04-10.13-23.31-15.33-35.32-13.72-3.96,1.43-7.92,2.86-11.89,4.28-2.73-14.72-17.6-24.86-32.49-26.45-14.89-1.59-29.65,3.63-43.23,9.91-19.08,8.83-37.35,20.14-51.52,35.67-14.17,15.53-24.01,35.65-24.48,56.67,1.81-3.14,3.63-6.27,5.44-9.4-3.94,11.37-6.44,23.23-7.42,35.22,2.54-4.92,5.07-9.83,7.61-14.75-1.24,7.35-3.5,14.54-4.47,23.56-.4,2.54-.81,5.08-1.21,7.62.77-3.57,2.37-6.96,4.68-9.78-2.84,8.54-3.76,17.71-2.67,26.64.7-1.6,1.4-3.19,2.11-4.79,1.44,8.02-.61,16.36.76,24.4.98,5.74,3.67,11.11,4.3,16.9.43,3.89.45,8.75,3.65,10.68-1.27-6.32-1.76-45.58,3.07-59.61Z"/>
    <path class="cls-2" d="M545.98,215.77c-1.16-.75-2.44-1.19-3.76-1.37-4.27-.6-9.02,1.52-11.98,4.88-1.12,1.27-2.03,2.67-2.81,4.15.4,4.48.76,8.96,1.06,13.44,1.52,23.19,1.55,46.48.1,69.67.92.08,1.9.12,2.85.3,4.47.81,9.03-4.27,10.52-8.56,1.49-4.29-.09-4.7,1.28-9.03.77-2.42,2-4.69,2.68-7.14,1.49-5.35.29-11.02.12-16.57-.33-11.14,3.54-21.95,4.92-33.01.76-6.11.2-13.42-4.97-16.76Z"/>
    <path class="cls-2" d="M528.48,236.87c-.29-4.49-.65-8.97-1.06-13.44-.34-3.75-.7-7.49-1.12-11.23-1.09-9.8-.13-23.16-7.73-34.8-4.35-6.66-10.1-13.13-10.45-21.08-.17-3.89,2.04-7.82,1.16-11.61-9.29-39.72-56.81-58.97-59.52-58.14-1.36.41-.88,4.04-5.02,3.63s-22.42-6.42-29.55,3.04c-4.78-2.15-9.83-4.35-15.04-3.83-5.21.51-10.44,4.83-9.97,10.04-1.4-2.69-2.79-5.38-4.19-8.06-12.42-1.32-22.96,9.27-28.83,20.29-6.21,11.67-9.57,24.85-9.7,38.08-4.59-3.98-7.73-9.6-8.72-15.59-3.76,9.34-3.01,19.89-5.78,29.56-1.47,5.14-3.92,9.95-5.66,15-4.84,14.03-4.34,53.28-3.07,59.61.07.34.14.68.21,1.02.72,3.43,1.64,7.01,2.56,10.54,4.21,16.13,8.79,45.99,14.06,73.21,2.31,11.91,4.75,23.3,7.35,32.82,1.36,4.99,2.77,9.49,4.23,13.25,1.28,3.29,2.61,5.91,4.08,8.19,2.26,3.51,4.83,6.19,7.98,9.15,1.9,1.79,4,3.67,6.37,5.92,2.5,2.36,7.05,6.06,12.13,9.87,7.69,5.78,16.58,11.83,21.36,13.94,7.44,5.08,36.31,3.41,55.63,1,16.93-2.12,35.43-19.09,45.39-28.44,1.75-1.64,3.32-3.34,4.75-5.08,10.91-13.28,13.1-28.83,14.02-35.36,1.95-13.88,3.36-27.83,4.24-41.81,1.45-23.2,1.42-46.48-.1-69.67Z"/>
    <path class="cls-2" d="M275.6,468.17c-.02-.07-.04-.14-.06-.21-1.53-5.89-1.18-12.08-.83-18.15.66-11.31,6.68-17.59,13-26.99,2.85-4.23,5.9-8.35,9.09-12.37-10.87.43-22.9,3.16-31.24,6.1-15.21,5.36-28.42,4.61-43.71,9.74-15.29,5.13-28.3,21.15-41.11,30.96-4.98,3.81-14.59,7.36-21.17,10.94h116.03Z"/>
    <path class="cls-2" d="M275.6,468.17h84.21c-.52-1.3-1-2.61-1.46-3.91-3.28-9.2-6.55-18.4-9.83-27.6-4.19-11.75-8.42-23.77-8.64-36.24-.04-2.42.17-5.09,1.88-6.8,1.32-1.32,3.24-1.77,4.95-2.52,5.39-2.37,8.78-7.98,9.99-13.76-1.47-2.28-2.81-4.9-4.08-8.19-1.46-3.76-2.86-8.26-4.23-13.25-14.2,6.82-22.21,22.33-33.6,34.17-6.25,6.49-12.35,13.27-17.99,20.37-3.19,4.02-6.25,8.14-9.09,12.37-6.32,9.4-12.34,15.69-13,26.99-.35,6.07-.69,12.26.83,18.15.02.07.04.14.06.21Z"/>
    <path class="cls-2" d="M348.53,436.67c3.28,9.2,6.55,18.4,9.83,27.6.46,1.3.94,2.61,1.46,3.91h149.81c.43-1.15.81-2.31,1.14-3.48,6.46-22.42.09-46.55-.62-69.87-.11-3.73-.08-7.44.17-11.12-1.43,1.74-3,3.44-4.75,5.08-9.97,9.35-28.47,26.33-45.39,28.44-19.31,2.41-48.19,4.08-55.63-1-4.77-2.11-13.67-8.16-21.36-13.94-5.08-3.82-9.63-7.51-12.13-9.87-2.37-2.24-4.47-4.13-6.37-5.92-3.15-2.96-5.72-5.65-7.98-9.15-1.21,5.78-4.6,11.39-9.99,13.76-1.71.75-3.63,1.2-4.95,2.52-1.71,1.71-1.93,4.38-1.88,6.8.22,12.48,4.45,24.49,8.64,36.24Z"/>
    <path class="cls-2" d="M655.53,468.17c-4.5-2.41-8.85-5.08-13.03-8.01-8.96-6.3-18.05-14.12-29-14.24-8.58-.1-17.98,4.52-25.21-.11-2.37-1.52-4.09-3.84-6.01-5.9-8.35-8.98-30.61-12.95-44.51-16.11,13.36,14.93,27.83,29.2,40.78,44.37h76.97Z"/>
    <path class="cls-2" d="M510.77,464.7c-.34,1.17-.72,2.33-1.14,3.48h68.93c-12.96-15.17-27.42-29.44-40.78-44.37-3.97-4.44-7.85-8.93-11.55-13.52-1.39-1.72-10.64-10.53-16.07-15.45.72,23.32,7.08,47.44.62,69.87Z"/>
  </g>
  <g>
    <path class="cls-6" d="M531.68,195.22c-1.89,1.18-4.29,4.06-6.13,6.81l.75,10.16c2.52-1.26,5.18-12.6,6.25-17.63.02-.07.01-.14.01-.21-.22.34-.52.64-.88.86Z"/>
    <path class="cls-6" d="M533.03,192.18l-1.11-7.44c-.22-1.45-1.4-2.57-2.86-2.71-62.37-5.88-87.55,5.42-96.44,11.15-1.4.9-3.79,2.13-5.36,2.69-2.09.74-4.42,1.44-6.85,2.01-4.08.95-8.26.98-12.31.22-3.3-.61-16.53-6.33-27.28-6.15-24.78.42-50.05,2.75-72.77,12.65-1.82,2.66-1.8,6.48-1.1,10.16.3,1.55.84,3.25,2.23,4,1.71.92,4.03.02,5.65,1.09.66.44,1.09,1.14,1.48,1.83,1.2,2.12,2.22,4.33,3.05,6.61-1.34-8.72-1.88-20.38,4.08-23.84,14.65-8.51,75.9-15.2,81.59,1.01.35,1.01.22,6.53-.55,13.19,1.67.14,1.97-4.21,2.67-6.34.8-2.41.85-5.47,2.79-7.04,3.23-2.63,8.84-3,10.98-2.98,7.51.08,7.56,6.57,8.1,8.82.54,2.25,3.08,7,5.05,5.79-.02-.93-.05-1.97-.07-3.04-2.3-7.72-3.36-14.85-1.36-16.4,20.88-16.19,69.36-13.25,75.73-13.13,6.35.12,14.37,8.62,14.47,13.18.07,3.04.05,6.48-.12,9.95.25-1.13,1.37-3.23,2.83-5.41,1.85-2.75,4.24-5.63,6.13-6.81.36-.22.65-.52.88-.86.41-.63.59-1.4.47-2.17Z"/>
  </g>
  <g>
    <path class="cls-5" d="M533.58,196.29c-1.89,1.18-4.29,4.06-6.13,6.81l.75,10.16c2.52-1.26,5.18-12.6,6.25-17.63.02-.07.01-.14.01-.21-.22.34-.52.64-.88.86Z"/>
    <path class="cls-5" d="M534.93,193.26l-1.11-7.44c-.22-1.45-1.4-2.57-2.86-2.71-62.37-5.88-87.55,5.42-96.44,11.15-1.4.9-3.79,2.13-5.36,2.69-2.09.74-4.42,1.44-6.85,2.01-4.08.95-8.26.98-12.31.22-3.3-.61-16.53-6.33-27.28-6.15-24.78.42-50.05,2.75-72.77,12.65-1.82,2.66-1.8,6.48-1.1,10.16.3,1.55.84,3.25,2.23,4,1.71.92,4.03.02,5.65,1.09.66.44,1.09,1.14,1.48,1.83,1.2,2.12,2.22,4.33,3.05,6.61-1.34-8.72-1.88-20.38,4.08-23.84,14.65-8.51,75.9-15.2,81.59,1.01.35,1.01.22,6.53-.55,13.19,1.67.14,1.97-4.21,2.67-6.34.8-2.41.85-5.47,2.79-7.04,3.23-2.63,8.84-3,10.98-2.98,7.51.08,7.56,6.57,8.1,8.82.54,2.25,3.08,7,5.05,5.79-.02-.93-.05-1.97-.07-3.04-2.3-7.72-3.36-14.85-1.36-16.4,20.88-16.19,69.36-13.25,75.73-13.13,6.35.12,14.37,8.62,14.47,13.18.07,3.04.05,6.48-.12,9.95.25-1.13,1.37-3.23,2.83-5.41,1.85-2.75,4.24-5.63,6.13-6.81.36-.22.65-.52.88-.86.41-.63.59-1.4.47-2.17Z"/>
  </g>
  <g>
    <path class="cls-2" d="M406.92,205.46c-5.68-16.2-66.94-9.52-81.59-1.01-5.96,3.46-5.42,15.13-4.08,23.84.63,4.09,1.44,7.53,1.84,9.17,1.25,5.14,2.49,11.47,7.2,13.89,23.69,12.13,62.39-1.51,68.03-6.66,4.41-4.02,6.92-16.27,8.05-26.05.77-6.66.9-12.18.55-13.19Z"/>
    <path class="cls-2" d="M524.73,197.49c-.1-4.55-8.12-13.06-14.47-13.18-6.37-.12-54.85-3.05-75.73,13.13-2,1.55-.94,8.68,1.36,16.4,2.45,8.21,6.29,17.08,9.37,20.65,5.98,6.93,7.96,10.37,17.03,11.55,10.27,1.34,52.3-5.82,56.7-12.69,1.74-2.72,3.16-9.66,3.94-12.8.96-3.89,1.46-8.53,1.68-13.11.17-3.47.19-6.91.12-9.95Z"/>
    <path class="cls-2" d="M533.58,195.22c-1.89,1.18-4.29,4.06-6.13,6.81l.75,10.16c2.52-1.26,5.18-12.6,6.25-17.63.02-.07.01-.14.01-.21-.22.34-.52.64-.88.86Z"/>
    <path class="cls-2" d="M534.93,192.18l-1.11-7.44c-.22-1.45-1.4-2.57-2.86-2.71-62.37-5.88-87.55,5.42-96.44,11.15-1.4.9-3.79,2.13-5.36,2.69-2.09.74-4.42,1.44-6.85,2.01-4.08.95-8.26.98-12.31.22-3.3-.61-16.53-6.33-27.28-6.15-24.78.42-50.05,2.75-72.77,12.65-1.82,2.66-1.8,6.48-1.1,10.16.3,1.55.84,3.25,2.23,4,1.71.92,4.03.02,5.65,1.09.66.44,1.09,1.14,1.48,1.83,1.2,2.12,2.22,4.33,3.05,6.61-1.34-8.72-1.88-20.38,4.08-23.84,14.65-8.51,75.9-15.2,81.59,1.01.35,1.01.22,6.53-.55,13.19,1.67.14,1.97-4.21,2.67-6.34.8-2.41.85-5.47,2.79-7.04,3.23-2.63,8.84-3,10.98-2.98,7.51.08,7.56,6.57,8.1,8.82.54,2.25,3.08,7,5.05,5.79-.02-.93-.05-1.97-.07-3.04-2.3-7.72-3.36-14.85-1.36-16.4,20.88-16.19,69.36-13.25,75.73-13.13,6.35.12,14.37,8.62,14.47,13.18.07,3.04.05,6.48-.12,9.95.25-1.13,1.37-3.23,2.83-5.41,1.85-2.75,4.24-5.63,6.13-6.81.36-.22.65-.52.88-.86.41-.63.59-1.4.47-2.17Z"/>
  </g>
  <circle class="cls-1" cx="375.89" cy="221.04" r="7.81"/>
  <circle class="cls-1" cx="469.81" cy="216.33" r="7.81"/>
  <path class="cls-2" d="M356.45,378.62s0,28.84-2.11,43.61"/>
  <path class="cls-2" d="M339.89,400.43s-4.85-34.52,8.51-44.52"/>
  <path class="cls-2" d="M588.29,445.82s16.07,26.97,25.75,19.9-12.65-10.44-4.84-19.73"/>
  <path class="cls-2" d="M532.56,234.65c-.39-1.12,5.38-17.2,11.89-13.61s2.98,25.16,2.98,25.16"/>
  <path class="cls-2" d="M540.47,230.56s2.77,17.87,4.36,22.48-3.98,32.05-9.67,32.68"/>
  <path class="cls-2" d="M532.17,249.84s3.73,6.95,2.99,10.77-4.1,13.11-2.61,15.35"/>
  <path class="cls-2" d="M328.44,283.02s-1.68-42.55-8-46.76"/>
  <path class="cls-2" d="M345.41,77.04s42.42-44.82,75.91-40.35c0,0,40.67-.31,35.44,44.87"/>
  <path class="cls-2" d="M467.09,91.2s1.12-30.85,33.49-27.05"/>
  <path class="cls-2" d="M488.3,103.73s29.02-16.99,52.47,4.87"/>
  <path class="cls-2" d="M345.41,127.77s2.26-42.91,38.29-59.06c21.74-9.74,45.16-21.5,56.95,11.87"/>
  <path class="cls-2" d="M331.25,155.02s2.69,7.49-13.78,17.4"/>
  <path class="cls-2" d="M508.18,124.42s24.23,17.57,30.7,40.92"/>
</svg>