<?xml version="1.0" encoding="UTF-8"?>
<svg id="Layer_1" xmlns="http://www.w3.org/2000/svg" xmlns:xlink="http://www.w3.org/1999/xlink" version="1.1" viewBox="0 0 841.89 467.72">
  <!-- Generator: Adobe Illustrator 29.0.0, SVG Export Plug-In . SVG Version: 2.1.0 Build 186)  -->
  <defs>
    <style>
      .st0, .st1 {
        fill: none;
      }

      .st2 {
        fill: #55565a;
      }

      .st3 {
        fill: #f9bda2;
      }

      .st4 {
        fill: #fff;
      }

      .st5 {
        fill: #ddddde;
      }

      .st6 {
        fill: #e5817d;
      }

      .st7 {
        fill: #1c1d20;
      }

      .st8 {
        fill: #bfdbc7;
      }

      .st9 {
        clip-path: url(#clippath);
      }

      .st1 {
        stroke: #55565a;
        stroke-miterlimit: 10;
      }
    </style>
    <clipPath id="clippath">
      <rect class="st0" width="841.89" height="467.72"/>
    </clipPath>
  </defs>
  <g class="st9">
    <rect class="st6" width="841.89" height="467.72"/>
    <g>
      <path class="st4" d="M303.2,287.98c.09.68.18,1.36.29,2.04-.13-.85-.28-1.7-.43-2.55-2.95-10.85-6.27-21.56-8.39-32.41-2.36-5.85-6.22-11.62-12.28-11.76,1.77,6.19,1.99,12.81.65,19.1-1.54-6-4.15-11.72-7.67-16.81-3.58,4.94-2.27,11.82-.18,17.55,1.64,4.48,3.69,9.09,3.98,13.75,2.57,7.12,5.12,14.25,6.91,21.57,1.74,7.12,2.78,14.52,6.09,21.06,3.31,6.54,9.58,12.22,16.91,12.25.47,0,.95-.04,1.4-.15-.65-3.2-1.08-6.36-1.2-9.41-.47-11.76-3.07-23.06-6.08-34.21Z"/>
      <path class="st4" d="M303.48,290.01c-.1-.68-.2-1.36-.29-2.04-.05-.17-.09-.34-.14-.51.14.85.29,1.7.43,2.55Z"/>
      <path class="st4" d="M572.1,284.34c-.72-7.97-3.44-15.69-3.73-23.68-.29-7.78,1.73-15.45,2.23-23.21.24-3.78.1-7.59-.39-11.35-.83,1.5-1.73,2.97-2.7,4.38.99-7.09-.3-14.48-3.65-20.8,1.72,10.44,1.92,21.13.63,31.64-.71,5.77-1.86,11.49-3.46,17.08-.27,2.54-.47,5.07-.56,7.6-.46,14.45,3.01,29.05.36,43.26.22-.27.43-.55.65-.82.88-1.13,11.35-16.13,10.63-24.09Z"/>
      <path class="st4" d="M574.02,151.6c-12.19-27.82-27.18-54.41-44.65-79.26-10.93-15.54-23.03-30.6-38.39-41.78-15.36-11.19-34.4-18.27-53.3-16.28-2.74.29-5.55.8-7.86,2.31-.6.39-1.15.85-1.67,1.35-5.82.08-11.72,1.73-17.38.39-5.99-1.42-11.01-6.06-17.14-6.61,1.64,3.45,3.28,6.9,4.92,10.36-12.25-4.68-26.41-1.61-37.66,5.14-11.25,6.75-20.09,16.79-28.44,26.9-14.19,17.19-27.55,35.08-39.99,53.58-6.46,9.6-12.77,19.6-15.5,30.84-2.41,9.93-1.9,20.37-3.94,30.38-3.33,16.3-13.36,31.16-13.57,47.8-.1,8.17,2.2,16.16,4.49,24,2.48,8.5,4.96,17,7.43,25.51,1.56,5.34,3.32,11,7.57,14.59.24-1.31.29-2.61.21-3.91-.29-4.66-2.34-9.27-3.98-13.75-2.1-5.73-3.4-12.61.18-17.55,3.53,5.09,6.14,10.81,7.67,16.81,1.34-6.29,1.12-12.92-.65-19.1,6.06.14,9.92,5.91,12.28,11.76,2.13,10.86,5.44,21.57,8.39,32.41.05.17.09.34.14.51-.3-2.32-.52-4.65-.67-6.99-.56-8.99-.1-18.06.37-27.08,1.22-23.5,2.45-47.03,5.13-70.41,1.3-11.29,2.95-22.61,6.34-33.46,7.02-22.45,21.63-42.45,40.88-55.96,8.71-6.11,18.88-11.05,29.51-10.6,1.94.08,3.98.32,5.73-.5,2.69-1.25,4.07-4.72,6.97-5.33,2.03-.43,4.02.72,5.99,1.4,4.48,1.55,9.36-.01,12.89-3.11,1.02,2.49,2.69,4.56,5.4,5.46,0,0-.34-.15.08.36,6.84-5.64,16.4-7.78,24.99-5.61,6.07,1.54,11.47,5.04,16.31,9.02,7.69,6.33,14.22,13.94,20.7,21.51,20.33,23.74,40.67,47.49,61,71.23,5.49,6.42,11.31,15.17,7.28,22.6-.84,1.54-2.1,3.03-2,4.78.12,1.96,1.87,3.34,3.25,4.75,4.9,5.02,5.87,12.59,6.4,19.59.73,9.8,1.09,19.64,1.07,29.47.07-.23.13-.47.19-.7,1.6-5.59,2.76-11.3,3.46-17.08,1.28-10.51,1.09-21.19-.63-31.64,3.35,6.32,4.65,13.71,3.65,20.8.98-1.41,1.87-2.88,2.7-4.38,4.64-8.38,7.02-18.01,6.73-27.58,2.06,3.02,3.4,6.53,3.86,10.15,7.89-18.09,1.15-39-6.77-57.07Z"/>
      <path class="st4" d="M560.47,266c.08-2.53.28-5.07.56-7.6-.07.23-.13.47-.19.7.02-9.83-.34-19.66-1.07-29.47-.52-7-1.49-14.56-6.4-19.59-1.37-1.41-3.13-2.79-3.25-4.75-.1-1.75,1.16-3.24,2-4.78,4.02-7.43-1.79-16.19-7.28-22.6-20.33-23.74-40.67-47.49-61-71.23-6.48-7.57-13.01-15.18-20.7-21.51-4.84-3.98-10.24-7.49-16.31-9.02-8.59-2.17-18.16-.02-24.99,5.61-.42-.51-.08-.36-.08-.36-2.71-.9-4.38-2.97-5.4-5.46-3.53,3.1-8.4,4.66-12.89,3.11-1.97-.68-3.95-1.83-5.99-1.4-2.9.62-4.29,4.08-6.97,5.33-1.76.82-3.8.58-5.73.5-10.63-.45-20.8,4.48-29.51,10.6-19.25,13.51-33.87,33.51-40.88,55.96-3.39,10.85-5.04,22.16-6.34,33.46-2.68,23.38-3.91,46.9-5.13,70.41-.47,9.02-.93,18.09-.37,27.08.15,2.34.36,4.67.67,6.99,3.02,11.15,5.62,22.45,6.08,34.21.12,3.06.54,6.22,1.2,9.41,3.6,17.6,14.24,36.27,20.82,44.82,3.17,4.12,6.94,7.69,11.03,10.93,5.21,4.13,10.94,7.73,16.57,11.24,10.67,6.65,21.89,12.43,34.18,16.04,2.38.7,4.58,1.91,6.38,3.62,8.57,8.13,19.74,13.5,31.45,15.07,10.89,1.46,22.02.53,32.51-2.74,14.77-4.6,28.59-13.06,40.36-23.1,2.69-2.29,5.26-4.71,7.84-7.12,2.81-2.63,5.61-5.26,8.31-8,3.89-3.95,7.53-8.13,10.92-12.5,7.24-9.32,13.32-19.49,18.19-30.16,6.04-13.22,12-40.72,11.79-40.44,2.66-14.21-.82-28.81-.36-43.26Z"/>
      <path class="st4" d="M722.4,485.51c-4.35-8.91-12.98-15-21.99-19.13-9.01-4.14-18.67-6.69-27.7-10.79-11.16-5.07-33.02-11.09-43.84-16.86-19.27-10.27-28.91-16.68-49.66-23.46-8.32-2.72-16.56-5.73-24.67-9.01-2.22-.9-4.45-1.83-6.43-3.18-2.93-2-5.18-4.84-7.78-7.26-2.5-2.32-5.17-3.5-7.37-4.08.97,5.81,1.85,11.63,2.63,17.47,1.04,7.8,1.92,15.74.62,23.5-.94,5.62-2.99,10.99-5.34,16.18-4.13,9.14-9.18,17.86-15.07,25.98-2.94,4.06-6.15,8-9.8,11.41,41.06-2.23,82.13-4.3,123.25-4.47,9.88-.04,19.8.03,29.55,1.62,20.21,3.31,40.44,13.13,60.29,8.08,1.66-.42,3.54-1.19,3.96-2.85.27-1.06-.16-2.17-.64-3.16Z"/>
      <path class="st4" d="M341.18,391.95c-24.73,5.22-125.92,43.63-146.23,51.54-11.24,4.38-21.66,10.61-32.02,16.81-1.91,1.14-3.83,2.3-5.43,3.84-1.43,1.38-2.57,3.02-3.7,4.66-4.46,6.47-8.93,12.94-13.39,19.41,23.27-.51,46.43-5.77,69.65-4.05,11.39.85,22.6,3.37,33.97,4.4,35.62,3.26,71.11-8.06,106.68-10.43-7.46-11.5-14.43-23.54-16.45-37-2.49-16.54,2.74-32.77,6.93-49.18Z"/>
      <path class="st4" d="M535.59,409.21c-.78-5.84-1.66-11.66-2.63-17.47-.66-3.97-1.37-7.93-2.12-11.88-3.39,4.36-7.03,8.54-10.92,12.5-2.7,2.74-5.5,5.37-8.31,8-2.58,2.41-5.16,4.83-7.84,7.12-11.77,10.04-25.59,18.5-40.36,23.1-10.49,3.27-21.62,4.2-32.51,2.74-11.71-1.57-22.88-6.94-31.45-15.07-1.8-1.71-4-2.92-6.38-3.62-12.29-3.61-23.5-9.39-34.18-16.04-5.63-3.51-11.36-7.1-16.57-11.24-.37,1.54-.75,3.07-1.14,4.61-4.19,16.41-9.42,32.64-6.93,49.18,2.02,13.46,8.99,25.5,16.45,37,1.11,1.71,2.23,3.41,3.35,5.1,2.21,3.34,4.47,6.74,7.61,9.24,4.28,3.41,9.79,4.83,15.16,5.88,27.61,5.43,56.06,3.73,84.15,2.01,13.36-.82,27.37-1.84,38.63-9.07,2.29-1.47,4.4-3.17,6.39-5.03,3.66-3.41,6.86-7.35,9.8-11.41,5.89-8.12,10.95-16.84,15.07-25.98,2.34-5.19,4.4-10.56,5.34-16.18,1.3-7.76.42-15.71-.62-23.5Z"/>
    </g>
    <g>
      <path class="st3" d="M558.77,261.25c.08-2.53.28-5.07.56-7.6-.07.23-.13.47-.19.7.02-9.83-.34-19.66-1.07-29.47-.52-7-1.49-14.56-6.4-19.59-1.37-1.41-3.13-2.79-3.25-4.75-.1-1.75,1.16-3.24,2-4.78,4.02-7.43-1.79-16.19-7.28-22.6-20.33-23.74-40.67-47.49-61-71.23-6.48-7.57-13.01-15.18-20.7-21.51-4.84-3.98-10.24-7.49-16.31-9.02-8.59-2.17-18.16-.02-24.99,5.61-.42-.51-.08-.36-.08-.36-2.71-.9-4.38-2.97-5.4-5.46-3.53,3.1-8.4,4.66-12.89,3.11-1.97-.68-3.95-1.83-5.99-1.4-2.9.62-4.29,4.08-6.97,5.33-1.76.82-3.8.58-5.73.5-10.63-.45-20.8,4.48-29.51,10.6-19.25,13.51-33.87,33.51-40.88,55.96-3.39,10.85-5.04,22.16-6.34,33.46-2.68,23.38-3.91,46.9-5.13,70.41-.47,9.02-.93,18.09-.37,27.08.15,2.34.36,4.67.67,6.99,3.02,11.15,5.62,22.45,6.08,34.21.12,3.06.54,6.22,1.2,9.41,3.6,17.6,14.24,36.27,20.82,44.82,3.17,4.12,6.94,7.69,11.03,10.93,5.21,4.13,10.94,7.73,16.57,11.24,10.67,6.65,21.89,12.43,34.18,16.04,2.38.7,4.58,1.91,6.38,3.62,8.57,8.13,19.74,13.5,31.45,15.07,10.89,1.46,22.02.53,32.51-2.74,14.77-4.6,28.59-13.06,40.36-23.1,2.69-2.29,5.26-4.71,7.84-7.12,2.81-2.63,5.61-5.26,8.31-8,3.89-3.95,7.53-8.13,10.92-12.5,7.24-9.32,13.32-19.49,18.19-30.16,6.04-13.22,12-40.72,11.79-40.44,2.66-14.21-.82-28.81-.36-43.26Z"/>
      <path class="st3" d="M301.5,283.23c.09.68.18,1.36.29,2.04-.13-.85-.28-1.7-.43-2.55-2.95-10.85-6.27-21.56-8.39-32.41-2.36-5.85-6.22-11.62-12.28-11.76,1.77,6.19,1.99,12.81.65,19.1-1.54-6-4.15-11.72-7.67-16.81-3.58,4.94-2.27,11.82-.18,17.55,1.64,4.48,3.69,9.09,3.98,13.75,2.57,7.12,5.12,14.25,6.91,21.57,1.74,7.12,2.78,14.52,6.09,21.06,3.31,6.54,9.58,12.22,16.91,12.25.47,0,.95-.04,1.4-.15-.65-3.2-1.08-6.36-1.2-9.41-.47-11.76-3.07-23.06-6.08-34.21Z"/>
      <path class="st1" d="M301.78,285.27c-.1-.68-.2-1.36-.29-2.04-.05-.17-.09-.34-.14-.51.14.85.29,1.7.43,2.55Z"/>
      <path class="st3" d="M570.4,279.6c-.72-7.97-3.44-15.69-3.73-23.68-.29-7.78,1.73-15.45,2.23-23.21.24-3.78.1-7.59-.39-11.35-.83,1.5-1.73,2.97-2.7,4.38.99-7.09-.3-14.48-3.65-20.8,1.72,10.44,1.92,21.13.63,31.64-.71,5.77-1.86,11.49-3.46,17.08-.27,2.54-.47,5.07-.56,7.6-.46,14.45,3.01,29.05.36,43.26.22-.27.43-.55.65-.82.88-1.13,11.35-16.13,10.63-24.09Z"/>
      <path class="st2" d="M572.33,150.17c-12.19-27.82-27.18-54.41-44.65-79.26-10.93-15.54-23.03-30.6-38.39-41.78-15.36-11.19-34.4-18.27-53.3-16.28-2.74.29-5.55.8-7.86,2.31-.6.39-1.15.85-1.67,1.35-5.82.08-11.72,1.73-17.38.39-5.99-1.42-11.01-6.06-17.14-6.61,1.64,3.45,3.28,6.9,4.92,10.36-12.25-4.68-26.41-1.61-37.66,5.14s-20.09,16.79-28.44,26.9c-14.19,17.19-27.55,35.08-39.99,53.58-6.46,9.6-12.77,19.6-15.5,30.84-2.41,9.93-1.9,20.37-3.94,30.38-3.33,16.3-13.36,31.16-13.57,47.8-.1,8.17,2.2,16.16,4.49,24,2.48,8.5,4.96,17,7.43,25.51,1.56,5.34,3.32,11,7.57,14.59.24-1.31.29-2.61.21-3.91-.29-4.66-2.34-9.27-3.98-13.75-2.1-5.73-3.4-12.61.18-17.55,3.53,5.09,6.14,10.81,7.67,16.81,1.34-6.29,1.12-12.92-.65-19.1,6.06.14,9.92,5.91,12.28,11.76,2.13,10.86,5.44,21.57,8.39,32.41.05.17.09.34.14.51-.3-2.32-.52-4.65-.67-6.99-.56-8.99-.1-18.06.37-27.08,1.22-23.5,2.45-47.03,5.13-70.41,1.3-11.29,2.95-22.61,6.34-33.46,7.02-22.45,21.63-42.45,40.88-55.96,8.71-6.11,18.88-11.05,29.51-10.6,1.94.08,3.98.32,5.73-.5,2.69-1.25,4.07-4.72,6.97-5.33,2.03-.43,4.02.72,5.99,1.4,4.48,1.55,9.36-.01,12.89-3.11,1.02,2.49,2.69,4.56,5.4,5.46,0,0-.34-.15.08.36,6.84-5.64,16.4-7.78,24.99-5.61,6.07,1.54,11.47,5.04,16.31,9.02,7.69,6.33,14.22,13.94,20.7,21.51,20.33,23.74,40.67,47.49,61,71.23,5.49,6.42,11.31,15.17,7.28,22.6-.84,1.54-2.1,3.03-2,4.78.12,1.96,1.87,3.34,3.25,4.75,4.9,5.02,5.87,12.59,6.4,19.59.73,9.8,1.09,19.64,1.07,29.47.07-.23.13-.47.19-.7,1.6-5.59,2.76-11.3,3.46-17.08,1.28-10.51,1.09-21.19-.63-31.64,3.35,6.32,4.65,13.71,3.65,20.8.98-1.41,1.87-2.88,2.7-4.38,4.64-8.38,7.02-18.01,6.73-27.58,2.06,3.02,3.4,6.53,3.86,10.15,7.89-18.09,1.15-39-6.77-57.07Z"/>
      <path class="st8" d="M720.7,487.71c-4.35-8.91-12.98-15-21.99-19.13-9.01-4.14-18.67-6.69-27.7-10.79-11.16-5.07-33.02-11.09-43.84-16.86-19.27-10.27-28.91-16.68-49.66-23.46-8.32-2.72-16.56-5.73-24.67-9.01-2.22-.9-4.45-1.83-6.43-3.18-2.93-2-5.18-4.84-7.78-7.26-2.5-2.32-5.17-3.5-7.37-4.08.97,5.81,1.85,11.63,2.63,17.47,1.04,7.8,1.92,15.74.62,23.5-.94,5.62-2.99,10.99-5.34,16.18-4.13,9.14-9.18,17.86-15.07,25.98-2.94,4.06-6.15,8-9.8,11.41,41.06-2.23,82.13-4.3,123.25-4.47,9.88-.04,19.8.03,29.55,1.62,20.21,3.31,40.44,13.13,60.29,8.08,1.66-.42,3.54-1.19,3.96-2.85.27-1.06-.16-2.17-.64-3.16Z"/>
      <path class="st8" d="M339.48,394.16c-24.73,5.22-125.92,43.63-146.23,51.54-11.24,4.38-21.66,10.61-32.02,16.81-1.91,1.14-3.83,2.3-5.43,3.84-1.43,1.38-2.57,3.02-3.7,4.66-4.46,6.47-8.93,12.94-13.39,19.41,23.27-.51,46.43-5.77,69.65-4.05,11.39.85,22.6,3.37,33.97,4.4,35.62,3.26,71.11-8.06,106.68-10.43-7.46-11.5-14.43-23.54-16.45-37-2.49-16.54,2.74-32.77,6.93-49.18Z"/>
      <path class="st3" d="M533.89,408.61c-.78-5.84-1.66-11.66-2.63-17.47-.66-3.97-1.37-7.93-2.12-11.88-3.39,4.36-7.03,8.54-10.92,12.5-2.7,2.74-5.5,5.37-8.31,8-2.58,2.41-5.16,4.83-7.84,7.12-11.77,10.04-25.59,18.5-40.36,23.1-10.49,3.27-21.62,4.2-32.51,2.74-11.71-1.57-22.88-6.94-31.45-15.07-1.8-1.71-4-2.92-6.38-3.62-12.29-3.61-23.5-9.39-34.18-16.04-5.63-3.51-11.36-7.1-16.57-11.24-.37,1.54-.75,3.07-1.14,4.61-4.19,16.41-9.42,32.64-6.93,49.18,2.02,13.46,8.99,25.5,16.45,37,1.11,1.71,2.23,3.41,3.35,5.1,2.21,3.34,4.47,6.74,7.61,9.24,4.28,3.41,9.79,4.83,15.16,5.88,27.61,5.43,56.06,3.73,84.15,2.01,13.36-.82,27.37-1.84,38.63-9.07,2.29-1.47,4.4-3.17,6.39-5.03,3.66-3.41,6.86-7.35,9.8-11.41,5.89-8.12,10.95-16.84,15.07-25.98,2.34-5.19,4.4-10.56,5.34-16.18,1.3-7.76.42-15.71-.62-23.5Z"/>
    </g>
    <path class="st1" d="M435.78,289.1c-1.74-2.3-3.51-4.62-5.79-6.39-2.28-1.77-5.17-2.94-8.02-2.56-1.21.16-2.37.59-3.44,1.17-.86.47-1.69,1.08-2.09,1.97-.43.96-.28,2.12.24,3.03s1.37,1.61,2.29,2.11c2.5,1.37,5.69,1.4,8.22.08"/>
    <path class="st1" d="M462.86,284.75c1.18.36,2.58-.18,3.21-1.25.71-1.2,1.24-1.97.43-3.11-1.09-1.54-2.96-2.4-4.83-2.61-1.87-.22-3.77.14-5.59.62-.53.14-1.08.3-1.51.64-.36.29-4.08,4.55-4.59,5.97"/>
    <path class="st1" d="M496.66,330.48c-11.42,3.7-22.88,7.41-34.68,9.6-9.69,1.8-19.54,2.57-29.37,3.24-10.65.73-21.4,1.35-31.97-.13-5.03-.7-9.98-1.87-14.92-3.04-2.36-.56-4.72-1.11-7.08-1.67"/>
    <path class="st1" d="M409.84,292.17c-4.12-4.79-8.15-10.28-8.31-16.59-.11-4.44,1.88-8.9,5.26-11.78"/>
    <path class="st1" d="M470.26,287.79c2.35-3.22,4.5-6.72,5.25-10.64s-.15-8.35-3.12-11.01c-2.25-2.02-5.68-3.16-6.49-6.07"/>
    <path class="st1" d="M286.29,256.87c-.36,7.97-.63,16.37,3.08,23.43,1.8,3.43,4.46,6.35,6.38,9.71s3.06,7.55,1.52,11.11"/>
    <g>
      <path class="st1" d="M302.91,287.05c.09.68.18,1.36.29,2.04-.13-.85-.28-1.7-.43-2.55-2.95-10.85-6.27-21.56-8.39-32.41-2.36-5.85-6.22-11.62-12.28-11.76,1.77,6.19,1.99,12.81.65,19.1-1.54-6-4.15-11.72-7.67-16.81-3.58,4.94-2.27,11.82-.18,17.55,1.64,4.48,3.69,9.09,3.98,13.75,2.57,7.12,5.12,14.25,6.91,21.57,1.74,7.12,2.78,14.52,6.09,21.06,3.31,6.54,9.58,12.22,16.91,12.25.47,0,.95-.04,1.4-.15-.65-3.2-1.08-6.36-1.2-9.41-.47-11.76-3.07-23.06-6.08-34.21Z"/>
      <path class="st1" d="M303.2,289.08c-.1-.68-.2-1.36-.29-2.04-.05-.17-.09-.34-.14-.51.14.85.29,1.7.43,2.55Z"/>
      <path class="st1" d="M571.81,283.41c-.72-7.97-3.44-15.69-3.73-23.68-.29-7.78,1.73-15.45,2.23-23.21.24-3.78.1-7.59-.39-11.35-.83,1.5-1.73,2.97-2.7,4.38.99-7.09-.3-14.48-3.65-20.8,1.72,10.44,1.92,21.13.63,31.64-.71,5.77-1.86,11.49-3.46,17.08-.27,2.54-.47,5.07-.56,7.6-.46,14.45,3.01,29.05.36,43.26.22-.27.43-.55.65-.82.88-1.13,11.35-16.13,10.63-24.09Z"/>
      <path class="st1" d="M573.74,150.67c-12.19-27.82-27.18-54.41-44.65-79.26-10.93-15.54-23.03-30.6-38.39-41.78-15.36-11.19-34.4-18.27-53.3-16.28-2.74.29-5.55.8-7.86,2.31-.6.39-1.15.85-1.67,1.35-5.82.08-11.72,1.73-17.38.39-5.99-1.42-11.01-6.06-17.14-6.61,1.64,3.45,3.28,6.9,4.92,10.36-12.25-4.68-26.41-1.61-37.66,5.14-11.25,6.75-20.09,16.79-28.44,26.9-14.19,17.19-27.55,35.08-39.99,53.58-6.46,9.6-12.77,19.6-15.5,30.84-2.41,9.93-1.9,20.37-3.94,30.38-3.33,16.3-13.36,31.16-13.57,47.8-.1,8.17,2.2,16.16,4.49,24,2.48,8.5,4.96,17,7.43,25.51,1.56,5.34,3.32,11,7.57,14.59.24-1.31.29-2.61.21-3.91-.29-4.66-2.34-9.27-3.98-13.75-2.1-5.73-3.4-12.61.18-17.55,3.53,5.09,6.14,10.81,7.67,16.81,1.34-6.29,1.12-12.92-.65-19.1,6.06.14,9.92,5.91,12.28,11.76,2.13,10.86,5.44,21.57,8.39,32.41.05.17.09.34.14.51-.3-2.32-.52-4.65-.67-6.99-.56-8.99-.1-18.06.37-27.08,1.22-23.5,2.45-47.03,5.13-70.41,1.3-11.29,2.95-22.61,6.34-33.46,7.02-22.45,21.63-42.45,40.88-55.96,8.71-6.11,18.88-11.05,29.51-10.6,1.94.08,3.98.32,5.73-.5,2.69-1.25,4.07-4.72,6.97-5.33,2.03-.43,4.02.72,5.99,1.4,4.48,1.55,9.36-.01,12.89-3.11,1.02,2.49,2.69,4.56,5.4,5.46,0,0-.34-.15.08.36,6.84-5.64,16.4-7.78,24.99-5.61,6.07,1.54,11.47,5.04,16.31,9.02,7.69,6.33,14.22,13.94,20.7,21.51,20.33,23.74,40.67,47.49,61,71.23,5.49,6.42,11.31,15.17,7.28,22.6-.84,1.54-2.1,3.03-2,4.78.12,1.96,1.87,3.34,3.25,4.75,4.9,5.02,5.87,12.59,6.4,19.59.73,9.8,1.09,19.64,1.07,29.47.07-.23.13-.47.19-.7,1.6-5.59,2.76-11.3,3.46-17.08,1.28-10.51,1.09-21.19-.63-31.64,3.35,6.32,4.65,13.71,3.65,20.8.98-1.41,1.87-2.88,2.7-4.38,4.64-8.38,7.02-18.01,6.73-27.58,2.06,3.02,3.4,6.53,3.86,10.15,7.89-18.09,1.15-39-6.77-57.07Z"/>
      <path class="st1" d="M560.18,265.07c.08-2.53.28-5.07.56-7.6-.07.23-.13.47-.19.7.02-9.83-.34-19.66-1.07-29.47-.52-7-1.49-14.56-6.4-19.59-1.37-1.41-3.13-2.79-3.25-4.75-.1-1.75,1.16-3.24,2-4.78,4.02-7.43-1.79-16.19-7.28-22.6-20.33-23.74-40.67-47.49-61-71.23-6.48-7.57-13.01-15.18-20.7-21.51-4.84-3.98-10.24-7.49-16.31-9.02-8.59-2.17-18.16-.02-24.99,5.61-.42-.51-.08-.36-.08-.36-2.71-.9-4.38-2.97-5.4-5.46-3.53,3.1-8.4,4.66-12.89,3.11-1.97-.68-3.95-1.83-5.99-1.4-2.9.62-4.29,4.08-6.97,5.33-1.76.82-3.8.58-5.73.5-10.63-.45-20.8,4.48-29.51,10.6-19.25,13.51-33.87,33.51-40.88,55.96-3.39,10.85-5.04,22.16-6.34,33.46-2.68,23.38-3.91,46.9-5.13,70.41-.47,9.02-.93,18.09-.37,27.08.15,2.34.36,4.67.67,6.99,3.02,11.15,5.62,22.45,6.08,34.21.12,3.06.54,6.22,1.2,9.41,3.6,17.6,14.24,36.27,20.82,44.82,3.17,4.12,6.94,7.69,11.03,10.93,5.21,4.13,10.94,7.73,16.57,11.24,10.67,6.65,21.89,12.43,34.18,16.04,2.38.7,4.58,1.91,6.38,3.62,8.57,8.13,19.74,13.5,31.45,15.07,10.89,1.46,22.02.53,32.51-2.74,14.77-4.6,28.59-13.06,40.36-23.1,2.69-2.29,5.26-4.71,7.84-7.12,2.81-2.63,5.61-5.26,8.31-8,3.89-3.95,7.53-8.13,10.92-12.5,7.24-9.32,13.32-19.49,18.19-30.16,6.04-13.22,12-40.72,11.79-40.44,2.66-14.21-.82-28.81-.36-43.26Z"/>
      <path class="st1" d="M722.11,484.58c-4.35-8.91-12.98-15-21.99-19.13-9.01-4.14-18.67-6.69-27.7-10.79-11.16-5.07-33.02-11.09-43.84-16.86-19.27-10.27-28.91-16.68-49.66-23.46-8.32-2.72-16.56-5.73-24.67-9.01-2.22-.9-4.45-1.83-6.43-3.18-2.93-2-5.18-4.84-7.78-7.26-2.5-2.32-5.17-3.5-7.37-4.08.97,5.81,1.85,11.63,2.63,17.47,1.04,7.8,1.92,15.74.62,23.5-.94,5.62-2.99,10.99-5.34,16.18-4.13,9.14-9.18,17.86-15.07,25.98-2.94,4.06-6.15,8-9.8,11.41,41.06-2.23,82.13-4.3,123.25-4.47,9.88-.04,19.8.03,29.55,1.62,20.21,3.31,40.44,13.13,60.29,8.08,1.66-.42,3.54-1.19,3.96-2.85.27-1.06-.16-2.17-.64-3.16Z"/>
      <path class="st1" d="M340.9,391.02c-24.73,5.22-125.92,43.63-146.23,51.54-11.24,4.38-21.66,10.61-32.02,16.81-1.91,1.14-3.83,2.3-5.43,3.84-1.43,1.38-2.57,3.02-3.7,4.66-4.46,6.47-8.93,12.94-13.39,19.41,23.27-.51,46.43-5.77,69.65-4.05,11.39.85,22.6,3.37,33.97,4.4,35.62,3.26,71.11-8.06,106.68-10.43-7.46-11.5-14.43-23.54-16.45-37-2.49-16.54,2.74-32.77,6.93-49.18Z"/>
      <path class="st1" d="M535.31,408.28c-.78-5.84-1.66-11.66-2.63-17.47-.66-3.97-1.37-7.93-2.12-11.88-3.39,4.36-7.03,8.54-10.92,12.5-2.7,2.74-5.5,5.37-8.31,8-2.58,2.41-5.16,4.83-7.84,7.12-11.77,10.04-25.59,18.5-40.36,23.1-10.49,3.27-21.62,4.2-32.51,2.74-11.71-1.57-22.88-6.94-31.45-15.07-1.8-1.71-4-2.92-6.38-3.62-12.29-3.61-23.5-9.39-34.18-16.04-5.63-3.51-11.36-7.1-16.57-11.24-.37,1.54-.75,3.07-1.14,4.61-4.19,16.41-9.42,32.64-6.93,49.18,2.02,13.46,8.99,25.5,16.45,37,1.11,1.71,2.23,3.41,3.35,5.1,2.21,3.34,4.47,6.74,7.61,9.24,4.28,3.41,9.79,4.83,15.16,5.88,27.61,5.43,56.06,3.73,84.15,2.01,13.36-.82,27.37-1.84,38.63-9.07,2.29-1.47,4.4-3.17,6.39-5.03,3.66-3.41,6.86-7.35,9.8-11.41,5.89-8.12,10.95-16.84,15.07-25.98,2.34-5.19,4.4-10.56,5.34-16.18,1.3-7.76.42-15.71-.62-23.5Z"/>
    </g>
    <path class="st5" d="M449.98,285c.41,1.01.65,1.27.65,2.43,0,4.76-3.86,8.62-8.62,8.62s-8.62-3.86-8.62-8.62c0-.55-.09-.75,0-1.28-.61-1.16-2.26-2.02-2.64-2.55-.58,1.41-.7,2.41-.7,4.04,0,6.66,5.4,12.06,12.06,12.06s12.06-5.4,12.06-12.06c0-2.45-.73-3.89-1.99-5.8-.42.4-2.15,3-2.21,3.16Z"/>
    <path class="st5" d="M310.35,331.53s0-.02,0-.03c-1.04,1.32-2.3,2.11-3.67,2.11-3.55,0-6.43-5.27-6.43-11.78s2.88-11.78,6.43-11.78c-5.28,0-9.55,5.64-9.55,12.59s4.28,12.59,9.55,12.59c1.57,0,3.04-.51,4.34-1.39-.36-.66-.6-1.43-.68-2.31Z"/>
    <path class="st5" d="M560.96,288.56c2.79,0,5.05,4.14,5.05,9.25s-2.26,9.25-5.05,9.25c-.16,0-.31-.02-.46-.04-.05.42-.11.85-.18,1.26.21.02.42.05.64.05,4.14,0,7.5-4.43,7.5-9.89s-3.36-9.89-7.5-9.89Z"/>
    <circle class="st2" cx="373.83" cy="219.07" r="10.32"/>
    <circle class="st2" cx="486.07" cy="208.75" r="10.32"/>
    <path class="st4" d="M555.58,183.67c-9.79-3.14-20.27-3.29-30.55-3.02-26.65.7-53.86,4.23-77.37,16.45-2.5-1.71-5.79-1.74-8.77-1.22-2.98.52-5.89,1.53-8.91,1.69-2.36.13-4.72-.26-7.08-.15-2.36.11-4.85.84-6.49,2.68-15.04-6.54-31.85-8.02-48.24-7.21-11.9.59-23.71,2.33-35.49,4.07-9.57,1.41-19.2,2.84-28.71,5.89.77,5.48,1.59,10.94,2.44,16.74,2.25,1.18,4.9,1.8,6.63,3.66,1.1,1.18,1.69,2.73,2.26,4.24,5.4,14.3,12.34,28.11,23.12,38.96,15.82,15.93,48.38,6.43,51.84,5.3,16.85-5.5,24.89-18.05,28.26-30.6,1.64-6.09,4.26-18.9,4.26-18.9,0,0-2.91-8.03-3.72-10.9,1.26-1.01,2.52-2.02,3.64-2.88,6.26-2.25,13.15-2.73,19.66-1.37.91.19,1.81.42,2.66.78-.07.29.35,9.13-.03,12.53,3.91,6.32,4.36,11.78,7.26,17.84,3.2,6.68,8.67,11.97,14.34,16.73,4.4,3.68,9.17,6.97,14.52,9.04,13.35,5.19,36.72-.2,46.22-6.36,5.17-3.35,9.14-8.38,12.17-13.75,2.87-5.08,4.6-10.74,5.81-16.45,1.69-7.97,2.41-16.15,2.17-23.84l8.04-3.14c.79-5.29.99-10.67.08-16.79ZM411.87,238.46c-1.21,4.04-3.28,7.79-5.74,11.22-7.45,10.37-19.14,18.09-30.85,18.76-16.32,2.91-26.04-3.45-28.81-4.91-2.72-1.44-4.96-3.67-6.93-6.04-7.52-9.04-13.4-22.54-13.18-34.3.04-2.36,1.79-9.26,5.98-13.51,12.95-13.16,51.82-10.95,55.96-9.99,5.86,1.37,14.44,4.13,18.71,8.37,7.77,7.72,7.99,19.9,4.86,30.4ZM499.5,257.89c-5.74.35-11.59.69-17.19-.62-9.74-2.28-17.9-9.56-22.42-18.48-4.52-8.92-5.62-19.31-4.38-29.23.59-4.72,6.31-9.99,11.67-12.22,49.33-20.55,69.36-.52,70.19,2.88,12.22,50.14-31.3,57.28-37.87,57.68Z"/>
    <path class="st7" d="M555.27,185.01c-9.79-3.14-20.27-3.29-30.55-3.02-26.65.7-53.86,4.23-77.37,16.45-2.5-1.71-5.79-1.74-8.77-1.22-2.98.52-5.89,1.53-8.91,1.69-2.36.13-4.72-.26-7.08-.15-2.36.11-4.85.84-6.49,2.68-15.04-6.54-31.85-8.02-48.24-7.21-11.9.59-23.71,2.33-35.49,4.07-9.57,1.41-19.2,2.84-28.71,5.89.77,5.48,1.59,10.94,2.44,16.74,2.25,1.18,4.9,1.8,6.63,3.66,1.1,1.18,1.69,2.73,2.26,4.24,5.4,14.3,12.34,28.11,23.12,38.96,15.82,15.93,48.38,6.43,51.84,5.3,16.85-5.5,24.89-18.05,28.26-30.6,1.64-6.09,4.26-18.9,4.26-18.9,0,0-2.91-8.03-3.72-10.9,1.26-1.01,2.52-2.02,3.64-2.88,6.26-2.25,13.15-2.73,19.66-1.37.91.19,1.81.42,2.66.78-.07.29.35,9.13-.03,12.53,3.91,6.32,4.36,11.78,7.26,17.84,3.2,6.68,8.67,11.97,14.34,16.73,4.4,3.68,9.17,6.97,14.52,9.04,13.35,5.19,36.72-.2,46.22-6.36,5.17-3.35,9.14-8.38,12.17-13.75,2.87-5.08,4.6-10.74,5.81-16.45,1.69-7.97,2.41-16.15,2.17-23.84l8.04-3.14c.79-5.29.99-10.67.08-16.79ZM411.56,239.81c-1.21,4.04-3.28,7.79-5.74,11.22-7.45,10.37-19.14,18.09-30.85,18.76-16.32,2.91-26.04-3.45-28.81-4.91-2.72-1.44-4.96-3.67-6.93-6.04-7.52-9.04-13.4-22.54-13.18-34.3.04-2.36,1.79-9.26,5.98-13.51,12.95-13.16,51.82-10.95,55.96-9.99,5.86,1.37,14.44,4.13,18.71,8.37,7.77,7.72,7.99,19.9,4.86,30.4ZM499.19,259.23c-5.74.35-11.59.69-17.19-.62-9.74-2.28-17.9-9.56-22.42-18.48-4.52-8.92-5.62-19.31-4.38-29.23.59-4.72,6.31-9.99,11.67-12.22,49.33-20.55,69.36-.52,70.19,2.88,12.22,50.14-31.3,57.28-37.87,57.68Z"/>
    <path class="st1" d="M555.58,183.67c-9.79-3.14-20.27-3.29-30.55-3.02-26.65.7-53.86,4.23-77.37,16.45-2.5-1.71-5.79-1.74-8.77-1.22-2.98.52-5.89,1.53-8.91,1.69-2.36.13-4.72-.26-7.08-.15-2.36.11-4.85.84-6.49,2.68-15.04-6.54-31.85-8.02-48.24-7.21-11.9.59-23.71,2.33-35.49,4.07-9.57,1.41-19.2,2.84-28.71,5.89.77,5.48,1.59,10.94,2.44,16.74,2.25,1.18,4.9,1.8,6.63,3.66,1.1,1.18,1.69,2.73,2.26,4.24,5.4,14.3,12.34,28.11,23.12,38.96,15.82,15.93,48.38,6.43,51.84,5.3,16.85-5.5,24.89-18.05,28.26-30.6,1.64-6.09,4.26-18.9,4.26-18.9,0,0-2.91-8.03-3.72-10.9,1.26-1.01,2.52-2.02,3.64-2.88,6.26-2.25,13.15-2.73,19.66-1.37.91.19,1.81.42,2.66.78-.07.29.35,9.13-.03,12.53,3.91,6.32,4.36,11.78,7.26,17.84,3.2,6.68,8.67,11.97,14.34,16.73,4.4,3.68,9.17,6.97,14.52,9.04,13.35,5.19,36.72-.2,46.22-6.36,5.17-3.35,9.14-8.38,12.17-13.75,2.87-5.08,4.6-10.74,5.81-16.45,1.69-7.97,2.41-16.15,2.17-23.84l8.04-3.14c.79-5.29.99-10.67.08-16.79ZM411.87,238.46c-1.21,4.04-3.28,7.79-5.74,11.22-7.45,10.37-19.14,18.09-30.85,18.76-16.32,2.91-26.04-3.45-28.81-4.91-2.72-1.44-4.96-3.67-6.93-6.04-7.52-9.04-13.4-22.54-13.18-34.3.04-2.36,1.79-9.26,5.98-13.51,12.95-13.16,51.82-10.95,55.96-9.99,5.86,1.37,14.44,4.13,18.71,8.37,7.77,7.72,7.99,19.9,4.86,30.4ZM499.5,257.89c-5.74.35-11.59.69-17.19-.62-9.74-2.28-17.9-9.56-22.42-18.48-4.52-8.92-5.62-19.31-4.38-29.23.59-4.72,6.31-9.99,11.67-12.22,49.33-20.55,69.36-.52,70.19,2.88,12.22,50.14-31.3,57.28-37.87,57.68Z"/>
    <path class="st1" d="M449.98,285c.41,1.01.65,1.27.65,2.43,0,4.76-3.86,8.62-8.62,8.62s-8.62-3.86-8.62-8.62c0-.55-.09-.75,0-1.28-.61-1.16-2.26-2.02-2.64-2.55-.58,1.41-.7,2.41-.7,4.04,0,6.66,5.4,12.06,12.06,12.06s12.06-5.4,12.06-12.06c0-2.45-.73-3.89-1.99-5.8-.42.4-2.15,3-2.21,3.16Z"/>
    <path class="st1" d="M310.35,331.53s0-.02,0-.03c-1.04,1.32-2.3,2.11-3.67,2.11-3.55,0-6.43-5.27-6.43-11.78s2.88-11.78,6.43-11.78c-5.28,0-9.55,5.64-9.55,12.59s4.28,12.59,9.55,12.59c1.57,0,3.04-.51,4.34-1.39-.36-.66-.6-1.43-.68-2.31Z"/>
    <path class="st1" d="M560.96,288.56c2.79,0,5.05,4.14,5.05,9.25s-2.26,9.25-5.05,9.25c-.16,0-.31-.02-.46-.04-.05.42-.11.85-.18,1.26.21.02.42.05.64.05,4.14,0,7.5-4.43,7.5-9.89s-3.36-9.89-7.5-9.89Z"/>
  </g>
</svg>