<?xml version="1.0" encoding="UTF-8"?>
<svg id="Layer_1" xmlns="http://www.w3.org/2000/svg" xmlns:xlink="http://www.w3.org/1999/xlink" version="1.1" viewBox="0 0 841.89 467.72">
  <!-- Generator: Adobe Illustrator 29.0.0, SVG Export Plug-In . SVG Version: 2.1.0 Build 186)  -->
  <defs>
    <style>
      .st0, .st1 {
        fill: none;
      }

      .st2 {
        fill: #bbbbbd;
      }

      .st3 {
        fill: #55565a;
      }

      .st4 {
        fill: #76767b;
      }

      .st5 {
        fill: #fff;
      }

      .st6 {
        fill: #b5d2e3;
      }

      .st7 {
        fill: #fcd1c9;
      }

      .st8 {
        clip-path: url(#clippath);
      }

      .st1 {
        stroke: #55565a;
        stroke-miterlimit: 10;
      }
    </style>
    <clipPath id="clippath">
      <rect class="st0" width="841.89" height="467.72"/>
    </clipPath>
  </defs>
  <g class="st8">
    <rect class="st6" width="841.89" height="467.72"/>
    <g>
      <path class="st5" d="M281.75,295.1c-2.69-8.53-4.41-17.36-5.04-26.29-1.12-15.69-1.27-31.27-5.56-45.39-.99-3.26-2.01-6.58-3.93-9.39-1.92-2.81-4.93-5.1-8.33-5.29-4.7-.27-8.87,3.55-10.52,7.96s-1.35,9.28-.95,13.97c.45,5.33,1,10.67,2.34,15.85,2,7.73,5.75,14.94,7.43,22.74,1.19,5.52,1.33,11.22,2.51,16.74,1.46,6.86,4.48,13.28,7.66,19.53.58,1.14,1.18,2.3,2.07,3.22,1.22,1.27,2.9,1.99,4.52,2.68,2.19.93,4.46,1.88,6.84,1.81,1.29-.04,2.62-.47,3.71-1.49-.98-4.06-1.74-8.14-2.23-12.23-.18-1.48-.35-2.95-.53-4.43Z"/>
      <path class="st5" d="M321.29,405.41c3.34,7.96,7.14,15.7,11.79,22.99,10.02,15.7,23.57,28.67,38.26,40.29h36.1c7.61-6.07,16.7-12.77,24.8-17.21,7.74-4.24,21.39-13.42,29.2-17.53,17.35-9.14,31.96-23.41,41.51-40.55,1.55-2.79,2.99-5.7,3.5-8.85.46-2.81.16-5.68-.15-8.5-.77-7.23-1.54-14.46-2.31-21.69-.45-4.19-.89-8.37-1.34-12.56-5.13,10.56-12.46,19.79-22.78,26.83-6.23,4.25-13.13,7.41-20.01,10.51-16.07,7.25-32.36,14.34-49.57,18.23-17.2,3.89-35.53,4.44-52.22-1.27-16.11-5.51-29.8-16.52-41.68-28.72-3.8-3.9-7.46-7.95-10.81-12.25-1.38-1.76-2.69-3.57-3.96-5.4l9.2,27.1c3.26,9.59,6.55,19.24,10.47,28.57Z"/>
      <path class="st5" d="M504.5,468.69c9.36-16.53,15.83-34.71,18.9-53.46.76-4.65-1.19-26.49-2.28-32.61-1.45-8.12-12.53-30.35-15.67-29.67-.67.14-1.06.85-1.46,1.41.77,7.23,1.54,14.46,2.31,21.69.3,2.83.6,5.7.15,8.5-.51,3.15-1.95,6.06-3.5,8.85-9.54,17.14-24.15,31.41-41.51,40.55-7.81,4.11-21.46,13.29-29.2,17.53-8.1,4.44-17.2,11.14-24.8,17.21h97.06Z"/>
      <path class="st5" d="M245.26,468.69c.84-.14,1.68-.29,2.53-.43.98-1.81,2.26-3.47,3.72-4.9,1.17-1.15,2.45-2.16,3.8-3.08-8.25,2.67-16.56,5.18-24.96,7.33-1.45.37-2.9.73-4.35,1.08h19.27Z"/>
      <path class="st5" d="M296.46,468.69c1.37-2.7,2.71-5.41,4.01-8.14,1.18-2.48,2.33-4.98,3.45-7.48,5.13-11.45,9.65-23.18,13.54-35.11-1.44.94-2.77,2.09-3.94,3.32-3.21,3.38-5.58,7.47-8.6,11.02-10.24,12.07-26.43,16.76-40.87,23.25-3.02,1.36-6.03,2.85-8.75,4.73-1.34.93-2.63,1.94-3.8,3.08-1.46,1.43-2.74,3.1-3.72,4.9-.08.14-.15.29-.22.43h48.88Z"/>
      <path class="st5" d="M371.34,468.69c-14.69-11.62-28.24-24.59-38.26-40.29-4.65-7.28-8.45-15.02-11.79-22.99-1.2,4.21-2.47,8.39-3.83,12.55-3.89,11.93-8.41,23.65-13.54,35.11-1.12,2.51-2.27,5-3.45,7.48-1.3,2.73-2.64,5.44-4.01,8.14h74.88Z"/>
      <path class="st5" d="M595.17,468.69h79.16c-.38-5.87-7.74-9.67-13.85-11.54-33.16-10.12-66.33-20.24-99.49-30.36,8.25,11.36,16.66,22.63,26.63,32.35,2.82,2.75,5.91,6.05,7.55,9.55Z"/>
      <path class="st5" d="M523.4,415.24c-3.07,18.75-9.54,36.93-18.9,53.46h90.68c-1.64-3.5-4.73-6.8-7.55-9.55-9.97-9.72-18.38-20.99-26.63-32.35-4.96-6.83-12.71-10.85-17.88-17.44-6.79-8.67-13.64-19.72-22-26.73,1.1,6.11,3.04,27.96,2.28,32.61Z"/>
      <path class="st5" d="M542.04,201.54c-1.39-4.3-3.46-8.77-7.43-10.93-2.54-1.39-5.97-1.21-8.33.25.34.6.57,1.24.43,1.89-.35,1.67-2.34,1.81-4.19,2.01-.46.05-.9.1-1.32.18-2.43.47-3.95,2.31-4.9,4.63-.89,2.19-1.27,4.8-1.4,7.13-.82,14.09-1.59,28.53,2.55,42.02-2.25-2.16-4.49-4.33-6.74-6.49,2.5,18.15,3.5,36.97,2.31,54.97,2.1,1.26,4.68,1.85,7.13,1.61,4.5-.45,8.5-3.18,11.54-6.53,7.98-8.8,10.07-21.42,10.29-33.29.08-4.36-.04-8.73.45-13.06.46-4.12,1.47-8.16,2.12-12.26,1.68-10.71.81-21.82-2.52-32.13Z"/>
      <path class="st5" d="M526.29,190.86c-.17-.31-.37-.6-.56-.89-4.24-6.27-6.51-13.86-6.39-21.43.06-3.87.71-7.8-.18-11.56-.97-4.12-3.67-7.57-5.7-11.27-4.78-8.72-5.89-18.92-8.56-28.5-4.86-17.45-15.25-33.32-29.31-44.75-6.58-5.35-13.9-9.73-21.18-14.08-8.59-5.13-17.19-10.27-25.78-15.4-4.83-2.88-9.7-5.79-15.02-7.62-8.09-2.78-16.83-2.94-25.38-2.71-12.17.32-24.33,1.34-36.38,3.08-5.94.85-13.4,3.59-13.31,9.59,1.77.23,3.47.94,4.88,2.03-4.43-.57-9.08.95-12.33,4.02-1.85,1.75-3.28,3.98-5.42,5.36-2.1,1.35-4.67,1.74-6.96,2.73-6.66,2.85-10.27,10.24-16.46,14.01-3.04,1.85-6.57,2.74-9.64,4.52-10.09,5.82-12.66,18.98-13.84,32.91-3.71-.46-7.29,2.03-9.23,5.22s-2.55,7-3.06,10.7c-1.83,13.34-2.76,26.78-3.68,40.21-.4,5.89-.81,11.77-1.21,17.66-.26,3.81-.52,7.67.17,11.42.51,2.77,1.52,5.42,2.53,8.05,3.69,9.62,7.92,18.85,9.85,32.94.5-2.31,2.42-7.83,3.64-10.77,3.14-7.6,5.56-15.64,5.67-23.86.07-5.07-.72-10.12-.59-15.19.1-3.86.73-7.69,1.35-11.5,2.33-14.16,4.66-28.32,6.99-42.48.85-5.14,1.7-10.32,3.5-15.2,1.76-4.8,4.4-9.23,6.32-13.98,1.57-3.88,2.67-8,4.96-11.5,2.29-3.5,6.18-6.37,10.22-5.99,14.52-19.53,39.18-31.06,63.48-29.7,4.03.23,8.32.73,11.68-1.05,12.25-.93,24.49,3.11,35.04,9.41,10.54,6.31,19.6,14.8,25.01,24.55,14.24,12.7,15.15,34.1,19.74,52.61,3.72,14.97,10.48,29.18,19.76,41.51,3.25-2.38,7.08,2.19,8.37,6.01,2.67,7.93,4.5,16.14,5.48,24.44.02.17.04.33.06.5.43,3.8.79,7.89,2.9,9.12,1.17,5.95,2.19,12.05,3.04,18.22,2.25,2.16,4.49,4.33,6.74,6.49-4.14-13.49-3.37-27.93-2.55-42.02.13-2.33.51-4.94,1.4-7.13.94-2.33,2.46-4.16,4.9-4.63.41-.08.86-.13,1.32-.18,1.85-.2,3.85-.34,4.19-2.01.14-.66-.1-1.29-.43-1.89Z"/>
      <path class="st5" d="M510.73,242.24c-.85-6.17-1.87-12.26-3.04-18.22-2.11-1.23-2.47-5.32-2.9-9.12-.02-.17-.04-.33-.06-.5-.98-8.31-2.81-16.52-5.48-24.44-1.28-3.82-5.12-8.39-8.37-6.01-9.28-12.33-16.04-26.53-19.76-41.51-4.6-18.52-5.51-39.91-19.74-52.61-5.42-9.75-14.47-18.24-25.01-24.55-10.54-6.31-22.79-10.35-35.04-9.41-3.37,1.77-7.66,1.27-11.68,1.05-24.3-1.36-48.96,10.17-63.48,29.7-4.04-.38-7.93,2.49-10.22,5.99-2.29,3.5-3.39,7.62-4.96,11.5-1.92,4.74-4.55,9.18-6.32,13.98-1.8,4.89-2.65,10.06-3.5,15.2-2.33,14.16-4.66,28.32-6.99,42.48-.63,3.81-1.26,7.64-1.35,11.5-.13,5.07.66,10.12.59,15.19-.11,8.23-2.5,16.27-5.67,23.86-.92,2.19-1.91,4.38-2.41,6.7-.07.31-.13.62-.17.93-.39,2.57-.76,5.25-.45,7.83,1.29,10.83,1.13,20.95,2.42,31.78.83,6.97,2.47,13.88,4.6,21.54.4,1.43.35,2.95.53,4.43.49,4.09,1.24,8.17,2.23,12.23,3.24,13.37,9.1,26.4,17.12,37.99,1.27,1.84,2.58,3.64,3.96,5.4,3.36,4.29,7.01,8.34,10.81,12.25,11.88,12.2,25.57,23.21,41.68,28.72,16.69,5.71,35.02,5.16,52.22,1.27,17.2-3.89,33.49-10.98,49.57-18.23,6.88-3.1,13.77-6.27,20.01-10.51,10.32-7.03,17.65-16.27,22.78-26.83,5.58-11.5,8.55-24.57,9.87-38.1.21-2.15.38-4.32.52-6.5,1.2-18,.2-36.81-2.31-54.97Z"/>
    </g>
    <g>
      <path class="st7" d="M283.64,291.78c-2.69-8.53-4.41-17.36-5.04-26.29-1.12-15.69-1.27-31.27-5.56-45.39-.99-3.26-2.01-6.58-3.93-9.39-1.92-2.81-4.93-5.1-8.33-5.29-4.7-.27-8.87,3.55-10.52,7.96s-1.35,9.28-.95,13.97c.45,5.33,1,10.67,2.34,15.85,2,7.73,5.75,14.94,7.43,22.74,1.19,5.52,1.33,11.22,2.51,16.74,1.46,6.86,4.48,13.28,7.66,19.53.58,1.14,1.18,2.3,2.07,3.22,1.22,1.27,2.9,1.99,4.52,2.68,2.19.93,4.46,1.88,6.84,1.81,1.29-.04,2.62-.47,3.71-1.49-.98-4.06-1.74-8.14-2.23-12.23-.18-1.48-.35-2.95-.53-4.43Z"/>
      <path class="st7" d="M323.18,402.09c3.34,7.96,7.14,15.7,11.79,22.99,10.02,15.7,23.57,28.67,38.26,40.29h36.1c7.61-6.07,16.7-12.77,24.8-17.21,7.74-4.24,21.39-13.42,29.2-17.53,17.35-9.14,31.96-23.41,41.51-40.55,1.55-2.79,2.99-5.7,3.5-8.85.46-2.81.16-5.68-.15-8.5-.77-7.23-1.54-14.46-2.31-21.69-.45-4.19-.89-8.37-1.34-12.56-5.13,10.56-12.46,19.79-22.78,26.83-6.23,4.25-13.13,7.41-20.01,10.51-16.07,7.25-32.36,14.34-49.57,18.23-17.2,3.89-35.53,4.44-52.22-1.27-16.11-5.51-29.8-16.52-41.68-28.72-3.8-3.9-7.46-7.95-10.81-12.25-1.38-1.76-2.69-3.57-3.96-5.4l9.2,27.1c3.26,9.59,6.55,19.24,10.47,28.57Z"/>
      <path class="st5" d="M506.39,465.38c9.36-16.53,15.83-34.71,18.9-53.46.76-4.65-1.19-26.49-2.28-32.61-1.45-8.12-12.53-30.35-15.67-29.67-.67.14-1.06.85-1.46,1.41.77,7.23,1.54,14.46,2.31,21.69.3,2.83.6,5.7.15,8.5-.51,3.15-1.95,6.06-3.5,8.85-9.54,17.14-24.15,31.41-41.51,40.55-7.81,4.11-21.46,13.29-29.2,17.53-8.1,4.44-17.2,11.14-24.8,17.21h97.06Z"/>
      <path class="st4" d="M247.16,465.38c.84-.14,1.68-.29,2.53-.43.98-1.81,2.26-3.47,3.72-4.9,1.17-1.15,2.45-2.16,3.8-3.08-8.25,2.67-16.56,5.18-24.96,7.33-1.45.37-2.9.73-4.35,1.08h19.27Z"/>
      <path class="st4" d="M297.35,471.38c1.37-2.7,2.71-5.41,4.01-8.14,1.18-2.48,2.33-4.98,3.45-7.48,5.13-11.45,9.65-23.18,13.54-35.11-1.44.94-2.77,2.09-3.94,3.32-3.21,3.38-5.58,7.47-8.6,11.02-10.24,12.07-26.43,16.76-40.87,23.25-3.02,1.36-6.03,2.85-8.75,4.73-1.34.93-2.63,1.94-3.8,3.08-1.46,1.43-2.74,3.1-3.72,4.9-.08.14-.15.29-.22.43h48.88Z"/>
      <path class="st5" d="M373.23,465.38c-14.69-11.62-28.24-24.59-38.26-40.29-4.65-7.28-8.45-15.02-11.79-22.99-1.2,4.21-2.47,8.39-3.83,12.55-3.89,11.93-8.41,23.65-13.54,35.11-1.12,2.51-2.27,5-3.45,7.48-1.3,2.73-2.64,5.44-4.01,8.14h74.88Z"/>
      <path class="st4" d="M596.06,471.38h79.16c-.38-5.87-7.74-9.67-13.85-11.54-33.16-10.12-66.33-20.24-99.49-30.36,8.25,11.36,16.66,22.63,26.63,32.35,2.82,2.75,5.91,6.05,7.55,9.55Z"/>
      <path class="st4" d="M524.29,417.92c-3.07,18.75-9.54,36.93-18.9,53.46h90.68c-1.64-3.5-4.73-6.8-7.55-9.55-9.97-9.72-18.38-20.99-26.63-32.35-4.96-6.83-12.71-10.85-17.88-17.44-6.79-8.67-13.64-19.72-22-26.73,1.1,6.11,3.04,27.96,2.28,32.61Z"/>
      <path class="st7" d="M543.93,198.22c-1.39-4.3-3.46-8.77-7.43-10.93-2.54-1.39-5.97-1.21-8.33.25.34.6.57,1.24.43,1.89-.35,1.67-2.34,1.81-4.19,2.01-.46.05-.9.1-1.32.18-2.43.47-3.95,2.31-4.9,4.63-.89,2.19-1.27,4.8-1.4,7.13-.82,14.09-1.59,28.53,2.55,42.02-2.25-2.16-4.49-4.33-6.74-6.49,2.5,18.15,3.5,36.97,2.31,54.97,2.1,1.26,4.68,1.85,7.13,1.61,4.5-.45,8.5-3.18,11.54-6.53,7.98-8.8,10.07-21.42,10.29-33.29.08-4.36-.04-8.73.45-13.06.46-4.12,1.47-8.16,2.12-12.26,1.68-10.71.81-21.82-2.52-32.13Z"/>
      <path class="st7" d="M512.62,238.92c-.85-6.17-1.87-12.26-3.04-18.22-2.11-1.23-2.47-5.32-2.9-9.12-.02-.17-.04-.33-.06-.5-.98-8.31-2.81-16.52-5.48-24.44-1.28-3.82-5.12-8.39-8.37-6.01-9.28-12.33-16.04-26.53-19.76-41.51-4.6-18.52-5.51-39.91-19.74-52.61-5.42-9.75-14.47-18.24-25.01-24.55-10.54-6.31-22.79-10.35-35.04-9.41-3.37,1.77-7.66,1.27-11.68,1.05-24.3-1.36-48.96,10.17-63.48,29.7-4.04-.38-7.93,2.49-10.22,5.99-2.29,3.5-3.39,7.62-4.96,11.5-1.92,4.74-4.55,9.18-6.32,13.98-1.8,4.89-2.65,10.06-3.5,15.2-2.33,14.16-4.66,28.32-6.99,42.48-.63,3.81-1.26,7.64-1.35,11.5-.13,5.07.66,10.12.59,15.19-.11,8.23-2.5,16.27-5.67,23.86-.92,2.19-1.91,4.38-2.41,6.7-.07.31-.13.62-.17.93-.39,2.57-.76,5.25-.45,7.83,1.29,10.83,1.13,20.95,2.42,31.78.83,6.97,2.47,13.88,4.6,21.54.4,1.43.35,2.95.53,4.43.49,4.09,1.24,8.17,2.23,12.23,3.24,13.37,9.1,26.4,17.12,37.99,1.27,1.84,2.58,3.64,3.96,5.4,3.36,4.29,7.01,8.34,10.81,12.25,11.88,12.2,25.57,23.21,41.68,28.72,16.69,5.71,35.02,5.16,52.22,1.27,17.2-3.89,33.49-10.98,49.57-18.23,6.88-3.1,13.77-6.27,20.01-10.51,10.32-7.03,17.65-16.27,22.78-26.83,5.58-11.5,8.55-24.57,9.87-38.1.21-2.15.38-4.32.52-6.5,1.2-18,.2-36.81-2.31-54.97Z"/>
      <path class="st4" d="M528.18,187.54c-.17-.31-.37-.6-.56-.89-4.24-6.27-6.51-13.86-6.39-21.43.06-3.87.71-7.8-.18-11.56-.97-4.12-3.67-7.57-5.7-11.27-4.78-8.72-5.89-18.92-8.56-28.5-4.86-17.45-15.25-33.32-29.31-44.75-6.58-5.35-13.9-9.73-21.18-14.08-8.59-5.13-17.19-10.27-25.78-15.4-4.83-2.88-9.7-5.79-15.02-7.62-8.09-2.78-16.83-2.94-25.38-2.71-12.17.32-24.33,1.34-36.38,3.08-5.94.85-13.4,3.59-13.31,9.59,1.77.23,3.47.94,4.88,2.03-4.43-.57-9.08.95-12.33,4.02-1.85,1.75-3.28,3.98-5.42,5.36-2.1,1.35-4.67,1.74-6.96,2.73-6.66,2.85-10.27,10.24-16.46,14.01-3.04,1.85-6.57,2.74-9.64,4.52-10.09,5.82-12.66,18.98-13.84,32.91-3.71-.46-7.29,2.03-9.23,5.22s-2.55,7-3.06,10.7c-1.83,13.34-2.76,26.78-3.68,40.21-.4,5.89-.81,11.77-1.21,17.66-.26,3.81-.52,7.67.17,11.42.51,2.77,1.52,5.42,2.53,8.05,3.69,9.62,7.92,18.85,9.85,32.94.5-2.31,2.42-7.83,3.64-10.77,3.14-7.6,5.56-15.64,5.67-23.86.07-5.07-.72-10.12-.59-15.19.1-3.86.73-7.69,1.35-11.5,2.33-14.16,4.66-28.32,6.99-42.48.85-5.14,1.7-10.32,3.5-15.2,1.76-4.8,4.4-9.23,6.32-13.98,1.57-3.88,2.67-8,4.96-11.5,2.29-3.5,6.18-6.37,10.22-5.99,14.52-19.53,39.18-31.06,63.48-29.7,4.03.23,8.32.73,11.68-1.05,12.25-.93,24.49,3.11,35.04,9.41,10.54,6.31,19.6,14.8,25.01,24.55,14.24,12.7,15.15,34.1,19.74,52.61,3.72,14.97,10.48,29.18,19.76,41.51,3.25-2.38,7.08,2.19,8.37,6.01,2.67,7.93,4.5,16.14,5.48,24.44.02.17.04.33.06.5.43,3.8.79,7.89,2.9,9.12,1.17,5.95,2.19,12.05,3.04,18.22,2.25,2.16,4.49,4.33,6.74,6.49-4.14-13.49-3.37-27.93-2.55-42.02.13-2.33.51-4.94,1.4-7.13.94-2.33,2.46-4.16,4.9-4.63.41-.08.86-.13,1.32-.18,1.85-.2,3.85-.34,4.19-2.01.14-.66-.1-1.29-.43-1.89Z"/>
    </g>
    <path class="st1" d="M270.62,236.68c-2.56-6.18-6.83-11.64-12.21-15.6-.94-.7-1.98-1.37-3.15-1.45-1.69-.12-3.26,1.07-4.05,2.57s-.92,3.25-.91,4.94c.08,12.85,7.54,24.37,10.82,36.8"/>
    <path class="st1" d="M263.25,243.87c1.19,6.85,1.1,13.87,2.17,20.74s3.51,13.88,8.72,18.48c1.64-3.17.57-7.05-.92-10.29-.27-.58-.55-1.27-.25-1.83.27-.52.91-.7,1.39-1.04,1.36-.94,1.36-2.94,1-4.55-.7-3.14-2.21-6.09-4.36-8.49"/>
    <path class="st1" d="M365.52,283.45c.82-2.58,3.9-4.18,6.48-3.39,1.62.5,2.88,1.74,4.15,2.85,2.4,2.1,9.33,10.57,14.71,6.32"/>
    <path class="st1" d="M393.6,285.95c1.31-1.52,2.28-3.31,3.52-4.9s2.88-3,4.86-3.33c2.9-.49,5.61,1.42,7.85,3.33"/>
    <path class="st1" d="M366.2,289.23c-3.25-1.72-6.46-3.53-9.61-5.42-.78-.47-1.57-.95-2.15-1.66-.48-.58-.78-1.28-1.02-1.99-1.24-3.66-.53-8.26,2.64-10.48"/>
    <path class="st1" d="M408.72,287.2c2.36-1.62,4.64-3.35,6.82-5.2.71-.6,1.43-1.24,1.89-2.05.49-.86.65-1.85.72-2.83.25-3.84-1.05-7.75-3.55-10.67-1.67-1.95-3.86-3.49-5.15-5.71"/>
    <path class="st1" d="M439.93,317.75c-23.43,2.34-46.92,4.42-70.46,4.62-6.52.05-25.52,3.11-28.2,1.88"/>
    <g>
      <path class="st1" d="M281.75,295.1c-2.69-8.53-4.41-17.36-5.04-26.29-1.12-15.69-1.27-31.27-5.56-45.39-.99-3.26-2.01-6.58-3.93-9.39-1.92-2.81-4.93-5.1-8.33-5.29-4.7-.27-8.87,3.55-10.52,7.96s-1.35,9.28-.95,13.97c.45,5.33,1,10.67,2.34,15.85,2,7.73,5.75,14.94,7.43,22.74,1.19,5.52,1.33,11.22,2.51,16.74,1.46,6.86,4.48,13.28,7.66,19.53.58,1.14,1.18,2.3,2.07,3.22,1.22,1.27,2.9,1.99,4.52,2.68,2.19.93,4.46,1.88,6.84,1.81,1.29-.04,2.62-.47,3.71-1.49-.98-4.06-1.74-8.14-2.23-12.23-.18-1.48-.35-2.95-.53-4.43Z"/>
      <path class="st1" d="M321.29,405.41c3.34,7.96,7.14,15.7,11.79,22.99,10.02,15.7,23.57,28.67,38.26,40.29h36.1c7.61-6.07,16.7-12.77,24.8-17.21,7.74-4.24,21.39-13.42,29.2-17.53,17.35-9.14,31.96-23.41,41.51-40.55,1.55-2.79,2.99-5.7,3.5-8.85.46-2.81.16-5.68-.15-8.5-.77-7.23-1.54-14.46-2.31-21.69-.45-4.19-.89-8.37-1.34-12.56-5.13,10.56-12.46,19.79-22.78,26.83-6.23,4.25-13.13,7.41-20.01,10.51-16.07,7.25-32.36,14.34-49.57,18.23-17.2,3.89-35.53,4.44-52.22-1.27-16.11-5.51-29.8-16.52-41.68-28.72-3.8-3.9-7.46-7.95-10.81-12.25-1.38-1.76-2.69-3.57-3.96-5.4l9.2,27.1c3.26,9.59,6.55,19.24,10.47,28.57Z"/>
      <path class="st1" d="M504.5,468.69c9.36-16.53,15.83-34.71,18.9-53.46.76-4.65-1.19-26.49-2.28-32.61-1.45-8.12-12.53-30.35-15.67-29.67-.67.14-1.06.85-1.46,1.41.77,7.23,1.54,14.46,2.31,21.69.3,2.83.6,5.7.15,8.5-.51,3.15-1.95,6.06-3.5,8.85-9.54,17.14-24.15,31.41-41.51,40.55-7.81,4.11-21.46,13.29-29.2,17.53-8.1,4.44-17.2,11.14-24.8,17.21h97.06Z"/>
      <path class="st1" d="M245.26,468.69c.84-.14,1.68-.29,2.53-.43.98-1.81,2.26-3.47,3.72-4.9,1.17-1.15,2.45-2.16,3.8-3.08-8.25,2.67-16.56,5.18-24.96,7.33-1.45.37-2.9.73-4.35,1.08h19.27Z"/>
      <path class="st1" d="M296.46,468.69c1.37-2.7,2.71-5.41,4.01-8.14,1.18-2.48,2.33-4.98,3.45-7.48,5.13-11.45,9.65-23.18,13.54-35.11-1.44.94-2.77,2.09-3.94,3.32-3.21,3.38-5.58,7.47-8.6,11.02-10.24,12.07-26.43,16.76-40.87,23.25-3.02,1.36-6.03,2.85-8.75,4.73-1.34.93-2.63,1.94-3.8,3.08-1.46,1.43-2.74,3.1-3.72,4.9-.08.14-.15.29-.22.43h48.88Z"/>
      <path class="st1" d="M371.34,468.69c-14.69-11.62-28.24-24.59-38.26-40.29-4.65-7.28-8.45-15.02-11.79-22.99-1.2,4.21-2.47,8.39-3.83,12.55-3.89,11.93-8.41,23.65-13.54,35.11-1.12,2.51-2.27,5-3.45,7.48-1.3,2.73-2.64,5.44-4.01,8.14h74.88Z"/>
      <path class="st1" d="M595.17,468.69h79.16c-.38-5.87-7.74-9.67-13.85-11.54-33.16-10.12-66.33-20.24-99.49-30.36,8.25,11.36,16.66,22.63,26.63,32.35,2.82,2.75,5.91,6.05,7.55,9.55Z"/>
      <path class="st1" d="M523.4,415.24c-3.07,18.75-9.54,36.93-18.9,53.46h90.68c-1.64-3.5-4.73-6.8-7.55-9.55-9.97-9.72-18.38-20.99-26.63-32.35-4.96-6.83-12.71-10.85-17.88-17.44-6.79-8.67-13.64-19.72-22-26.73,1.1,6.11,3.04,27.96,2.28,32.61Z"/>
      <path class="st1" d="M542.04,201.54c-1.39-4.3-3.46-8.77-7.43-10.93-2.54-1.39-5.97-1.21-8.33.25.34.6.57,1.24.43,1.89-.35,1.67-2.34,1.81-4.19,2.01-.46.05-.9.1-1.32.18-2.43.47-3.95,2.31-4.9,4.63-.89,2.19-1.27,4.8-1.4,7.13-.82,14.09-1.59,28.53,2.55,42.02-2.25-2.16-4.49-4.33-6.74-6.49,2.5,18.15,3.5,36.97,2.31,54.97,2.1,1.26,4.68,1.85,7.13,1.61,4.5-.45,8.5-3.18,11.54-6.53,7.98-8.8,10.07-21.42,10.29-33.29.08-4.36-.04-8.73.45-13.06.46-4.12,1.47-8.16,2.12-12.26,1.68-10.71.81-21.82-2.52-32.13Z"/>
      <path class="st1" d="M526.29,190.86c-.17-.31-.37-.6-.56-.89-4.24-6.27-6.51-13.86-6.39-21.43.06-3.87.71-7.8-.18-11.56-.97-4.12-3.67-7.57-5.7-11.27-4.78-8.72-5.89-18.92-8.56-28.5-4.86-17.45-15.25-33.32-29.31-44.75-6.58-5.35-13.9-9.73-21.18-14.08-8.59-5.13-17.19-10.27-25.78-15.4-4.83-2.88-9.7-5.79-15.02-7.62-8.09-2.78-16.83-2.94-25.38-2.71-12.17.32-24.33,1.34-36.38,3.08-5.94.85-13.4,3.59-13.31,9.59,1.77.23,3.47.94,4.88,2.03-4.43-.57-9.08.95-12.33,4.02-1.85,1.75-3.28,3.98-5.42,5.36-2.1,1.35-4.67,1.74-6.96,2.73-6.66,2.85-10.27,10.24-16.46,14.01-3.04,1.85-6.57,2.74-9.64,4.52-10.09,5.82-12.66,18.98-13.84,32.91-3.71-.46-7.29,2.03-9.23,5.22s-2.55,7-3.06,10.7c-1.83,13.34-2.76,26.78-3.68,40.21-.4,5.89-.81,11.77-1.21,17.66-.26,3.81-.52,7.67.17,11.42.51,2.77,1.52,5.42,2.53,8.05,3.69,9.62,7.92,18.85,9.85,32.94.5-2.31,2.42-7.83,3.64-10.77,3.14-7.6,5.56-15.64,5.67-23.86.07-5.07-.72-10.12-.59-15.19.1-3.86.73-7.69,1.35-11.5,2.33-14.16,4.66-28.32,6.99-42.48.85-5.14,1.7-10.32,3.5-15.2,1.76-4.8,4.4-9.23,6.32-13.98,1.57-3.88,2.67-8,4.96-11.5,2.29-3.5,6.18-6.37,10.22-5.99,14.52-19.53,39.18-31.06,63.48-29.7,4.03.23,8.32.73,11.68-1.05,12.25-.93,24.49,3.11,35.04,9.41,10.54,6.31,19.6,14.8,25.01,24.55,14.24,12.7,15.15,34.1,19.74,52.61,3.72,14.97,10.48,29.18,19.76,41.51,3.25-2.38,7.08,2.19,8.37,6.01,2.67,7.93,4.5,16.14,5.48,24.44.02.17.04.33.06.5.43,3.8.79,7.89,2.9,9.12,1.17,5.95,2.19,12.05,3.04,18.22,2.25,2.16,4.49,4.33,6.74,6.49-4.14-13.49-3.37-27.93-2.55-42.02.13-2.33.51-4.94,1.4-7.13.94-2.33,2.46-4.16,4.9-4.63.41-.08.86-.13,1.32-.18,1.85-.2,3.85-.34,4.19-2.01.14-.66-.1-1.29-.43-1.89Z"/>
      <path class="st1" d="M510.73,242.24c-.85-6.17-1.87-12.26-3.04-18.22-2.11-1.23-2.47-5.32-2.9-9.12-.02-.17-.04-.33-.06-.5-.98-8.31-2.81-16.52-5.48-24.44-1.28-3.82-5.12-8.39-8.37-6.01-9.28-12.33-16.04-26.53-19.76-41.51-4.6-18.52-5.51-39.91-19.74-52.61-5.42-9.75-14.47-18.24-25.01-24.55-10.54-6.31-22.79-10.35-35.04-9.41-3.37,1.77-7.66,1.27-11.68,1.05-24.3-1.36-48.96,10.17-63.48,29.7-4.04-.38-7.93,2.49-10.22,5.99-2.29,3.5-3.39,7.62-4.96,11.5-1.92,4.74-4.55,9.18-6.32,13.98-1.8,4.89-2.65,10.06-3.5,15.2-2.33,14.16-4.66,28.32-6.99,42.48-.63,3.81-1.26,7.64-1.35,11.5-.13,5.07.66,10.12.59,15.19-.11,8.23-2.5,16.27-5.67,23.86-.92,2.19-1.91,4.38-2.41,6.7-.07.31-.13.62-.17.93-.39,2.57-.76,5.25-.45,7.83,1.29,10.83,1.13,20.95,2.42,31.78.83,6.97,2.47,13.88,4.6,21.54.4,1.43.35,2.95.53,4.43.49,4.09,1.24,8.17,2.23,12.23,3.24,13.37,9.1,26.4,17.12,37.99,1.27,1.84,2.58,3.64,3.96,5.4,3.36,4.29,7.01,8.34,10.81,12.25,11.88,12.2,25.57,23.21,41.68,28.72,16.69,5.71,35.02,5.16,52.22,1.27,17.2-3.89,33.49-10.98,49.57-18.23,6.88-3.1,13.77-6.27,20.01-10.51,10.32-7.03,17.65-16.27,22.78-26.83,5.58-11.5,8.55-24.57,9.87-38.1.21-2.15.38-4.32.52-6.5,1.2-18,.2-36.81-2.31-54.97Z"/>
    </g>
    <path class="st1" d="M520.36,214.01c1.27-3.17,2.6-6.43,5.02-8.84,2.42-2.41,6.23-3.77,9.33-2.34,2.61,1.2,4.08,4,4.95,6.73,4.17,13.08-1.35,27.02-2.9,40.66-1.1,9.68-.3,20.05-5.18,28.48-1.54,2.66-4.49,5.27-7.35,4.15"/>
    <path class="st1" d="M524.83,219.75c4.73,13.65,4.27,29.02-1.26,42.36"/>
    <path class="st1" d="M517.76,255.41l1.48,8.73"/>
    <path class="st1" d="M378.81,352.28s9.69-3.03,22.91,0"/>
    <circle class="st3" cx="335.93" cy="222.52" r="7.17"/>
    <circle class="st3" cx="436.98" cy="215.35" r="7.17"/>
    <g>
      <path class="st2" d="M505.09,197.41c-1.07-2.41-2.23-4.78-3.46-7.1-.34-.65-14.05,1.44-22.76,3.79,1.06,3.46,1.57,6.85,2.07,10.23.03.19.05.37.08.56,5.81-2.95,15.26-1.58,21.96-3.48,1.01-.28,2.16-.7,2.5-1.69.26-.76-.06-1.58-.39-2.32Z"/>
      <path class="st2" d="M481.02,204.89c-.02-.19-.05-.38-.08-.56-.5-3.38-1.01-6.77-2.07-10.23-.03-.09-.05-.18-.07-.26-15.56-1.33-31.19-1.83-46.81-1.5-10.85.23-22.71,2.82-32.78,6.88-5.72,2.31-10.28,3.79-16.31,5.1-5.62,1.22-40.97-7.48-60.8-5.82-8.43.71-42.26,5.75-44.08,7.32-2.42,2.09-1.47,8.75-.11,14.03,2.81-.41,6.14-2.87,8.64-1.53,2.28,1.22,3.36,5.72,4.36,8.11,1.93,4.63,2.88,9.61,4.47,14.37,1.59,4.76,13.75,28.9,56.37,16.7,3.91-1.12,6.77-4.56,9.3-7.74,2.33-2.93,4.09-6.27,5.83-9.58,2.04-3.89,7.36-18.36,9.81-20.42,2.45-2.06,6.06-3.08,8.91-1.64,2.15,1.08,5.27,4.24,6.34,6.4,3.61,7.29,9.14,24.01,26.58,25.56,5.03.45,35.44,6.87,49.34-9.09,3.84-4.41,5.78-10.06,6.76-15.82.98-5.76,1.77-11.84,5.19-16.57.44-.6.92-1.2,1.13-1.91.17-.57.14-1.18.07-1.78ZM360.15,245.63c-3.09,3.81-7.65,7.15-12.29,8.74-11.6,3.95-24.99,3.55-35.54-2.68s-17.58-18.72-15.82-30.85c.77-5.32,3.49-10.99,7.67-12.13,10.01-2.73,20.11-5.47,30.47-6.11,10.36-.65,21.12.94,29.99,6.33.97.59,1.86,1.32,2.49,2.26,4.79,7.13-2.82,29.33-6.97,34.45ZM467.83,232.29c-4.63,9.25-15.84,13.31-26.24,14.54-11.3,1.33-23.37.15-32.86-6.04s-15.54-18.23-12.22-28.94c.67-2.15,3.31-6.55,7.25-9.05,3.94-2.5,8.65-3.49,13.27-4.26,9.97-1.68,20.07-2.58,30.18-2.71,4.84-.06,9.85.1,14.26,2.06,1.27.57,2.51,1.3,3.37,2.38.86,1.08,1.28,2.43,1.69,3.75,2.86,9.26,5.64,19.6,1.3,28.28Z"/>
    </g>
    <g>
      <path class="st1" d="M504.09,197.41c-1.07-2.41-2.23-4.78-3.46-7.1-.34-.65-14.05,1.44-22.76,3.79,1.06,3.46,1.57,6.85,2.07,10.23.03.19.05.37.08.56,5.81-2.95,15.26-1.58,21.96-3.48,1.01-.28,2.16-.7,2.5-1.69.26-.76-.06-1.58-.39-2.32Z"/>
      <path class="st1" d="M480.02,204.89c-.02-.19-.05-.38-.08-.56-.5-3.38-1.01-6.77-2.07-10.23-.03-.09-.05-.18-.07-.26-15.56-1.33-31.19-1.83-46.81-1.5-10.85.23-22.71,2.82-32.78,6.88-5.72,2.31-10.28,3.79-16.31,5.1-5.62,1.22-40.97-7.48-60.8-5.82-8.43.71-42.26,5.75-44.08,7.32-2.42,2.09-1.47,8.75-.11,14.03,2.81-.41,6.14-2.87,8.64-1.53,2.28,1.22,3.36,5.72,4.36,8.11,1.93,4.63,2.88,9.61,4.47,14.37,1.59,4.76,13.75,28.9,56.37,16.7,3.91-1.12,6.77-4.56,9.3-7.74,2.33-2.93,4.09-6.27,5.83-9.58,2.04-3.89,7.36-18.36,9.81-20.42,2.45-2.06,6.06-3.08,8.91-1.64,2.15,1.08,5.27,4.24,6.34,6.4,3.61,7.29,9.14,24.01,26.58,25.56,5.03.45,35.44,6.87,49.34-9.09,3.84-4.41,5.78-10.06,6.76-15.82.98-5.76,1.77-11.84,5.19-16.57.44-.6.92-1.2,1.13-1.91.17-.57.14-1.18.07-1.78ZM359.15,245.63c-3.09,3.81-7.65,7.15-12.29,8.74-11.6,3.95-24.99,3.55-35.54-2.68s-17.58-18.72-15.82-30.85c.77-5.32,3.49-10.99,7.67-12.13,10.01-2.73,20.11-5.47,30.47-6.11,10.36-.65,21.12.94,29.99,6.33.97.59,1.86,1.32,2.49,2.26,4.79,7.13-2.82,29.33-6.97,34.45ZM466.83,232.29c-4.63,9.25-15.84,13.31-26.24,14.54-11.3,1.33-23.37.15-32.86-6.04s-15.54-18.23-12.22-28.94c.67-2.15,3.31-6.55,7.25-9.05,3.94-2.5,8.65-3.49,13.27-4.26,9.97-1.68,20.07-2.58,30.18-2.71,4.84-.06,9.85.1,14.26,2.06,1.27.57,2.51,1.3,3.37,2.38.86,1.08,1.28,2.43,1.69,3.75,2.86,9.26,5.64,19.6,1.3,28.28Z"/>
    </g>
  </g>
</svg>