<?xml version="1.0" encoding="UTF-8"?>
<svg id="Layer_1" xmlns="http://www.w3.org/2000/svg" xmlns:xlink="http://www.w3.org/1999/xlink" version="1.1" viewBox="0 0 841.89 467.72">
  <!-- Generator: Adobe Illustrator 29.0.0, SVG Export Plug-In . SVG Version: 2.1.0 Build 186)  -->
  <defs>
    <style>
      .st0, .st1 {
        fill: none;
      }

      .st2 {
        fill: #ea9923;
      }

      .st3 {
        fill: #55565a;
      }

      .st4 {
        fill: #76767b;
      }

      .st5 {
        fill: #f4c45b;
      }

      .st6 {
        fill: #fff;
      }

      .st7 {
        fill: #b5d2e3;
      }

      .st8 {
        clip-path: url(#clippath);
      }

      .st9 {
        fill: #f9b6aa;
      }

      .st1 {
        stroke: #55565a;
        stroke-miterlimit: 10;
      }
    </style>
    <clipPath id="clippath">
      <rect class="st0" width="841.89" height="469.1"/>
    </clipPath>
  </defs>
  <g class="st8">
    <rect class="st5" width="841.89" height="469.1"/>
    <g>
      <path class="st6" d="M514.16,355.9c-.13.41-.25.83-.37,1.25.33-.08.66-.15.99-.17-.17-.39-.38-.76-.6-1.13,0,.02-.01.03-.02.05Z"/>
      <path class="st6" d="M541.96,271.42c-.47,1.55-1.13,3.15-2.43,4.11-.89.66-1.95.91-3.02.84-1.2,20.77-6.07,41.5-14.48,60.71-2.72,6.21-5.81,12.29-7.85,18.75.22.37.43.74.6,1.13,1.77-.14,3.61.5,5.22,1.33,4.62,2.39,8.29,6.26,11.67,10.21.77.91,1.54,1.82,2.29,2.75,3.12-.4,6.17-1.35,8.93-2.88,3.01-1.67,5.8-4.15,6.78-7.45s-.41-7.44-3.63-8.66c4.28-.16,8.52-1.37,12.24-3.51,1.11-.64,2.21-1.4,2.83-2.51.9-1.61.61-3.61.07-5.37-1.23-3.99-3.69-7.6-6.96-10.21-.68-.55-1.47-1.18-1.47-2.05,0-1.61,2.28-1.87,3.89-1.79,7.38.39,14.78-4.13,17.8-10.87,1.32-2.96,1.74-6.7-.28-9.23-3.67-4.6-11.9-1.81-16.25-5.78-1.66-1.51-2.42-3.75-3.08-5.89-2.68-8.64-4.81-17.71-3.55-26.67.8-5.66,2.93-11.09,3.35-16.79.52-7.01-1.7-14.18-6.07-19.68-1.76-2.2-4.44-4.3-7.14-3.5-.64.19-1.19.52-1.69.93.11,2.97.32,5.94.68,8.9,1.37,11.08,4.78,22.47,1.55,33.16Z"/>
      <path class="st6" d="M540.41,238.26c-.37-2.96-.57-5.93-.68-8.9-.27-7.29.11-14.61.62-21.9.23-3.34.46-6.86-1.01-9.88-1.46-3.01-5.27-5.17-8.25-3.63-.19.1-.36.22-.53.34-.86.6-1.51,1.43-2,2.39.08.89.18,1.77.28,2.66.73,6.18,1.99,12.31,3.07,18.46,1.07,6.09,1.93,12.2,2.64,18.34,1.46,12.64,2.17,25.37,2.09,38.1-.03.71-.08,1.42-.12,2.14,1.07.06,2.13-.18,3.02-.84,1.3-.97,1.97-2.56,2.43-4.11,3.22-10.69-.18-22.08-1.55-33.16Z"/>
      <path class="st6" d="M552.92,136.37c-.57-2.43-4.42-.96-6.72-1.96-1.58-.68-2.25-2.57-2.36-4.29-.28-4.25,1.75-8.29,2.36-12.5.6-4.21-1.16-9.53-5.37-10.14,6.49-8.87,5.53-22.39-2.15-30.25-2.2-2.25-4.93-4.08-8-4.73-7.71-1.62-15.83,4.35-23.25,1.75-.72-4.64-1.51-9.46-4.21-13.3-2.7-3.84-7.94-6.33-12.22-4.4-.79.36-1.62.87-2.47.67-.82-.19-1.34-.96-1.74-1.7-2.44-4.55-3.02-10.21-6.68-13.86-2.08-2.07-4.9-3.2-7.71-4.05-12.17-3.67-25.64-2.81-37.24,2.38-2.35,1.05-4.7,2.34-6.25,4.39-2.43,3.23-2.26,8.15.39,11.2-16.34-7.94-36.98-4.83-51.37,6.67-2.21,1.76-4.46,4.19-4.07,6.99-12.29,1.96-26,4.8-32.89,15.17-2.58,3.89-3.89,8.46-5.65,12.78-1.24,3.03-2.74,6.05-2.94,9.32,0,.09,0,.18,0,.27-4.07-.05-8.07,1.12-11.92,2.46-7.26,2.51-14.46,5.65-20.26,10.69-9.7,8.43-14.57,22.07-12.41,34.73,1,5.86,3.37,11.98,1.25,17.53-1.38,3.62-4.46,6.29-6.57,9.53-3.94,6.05-4.21,14.3-.69,20.6,2.67,4.78,7.41,8.76,7.8,14.22.21,2.95-.93,5.81-1.7,8.66-2.28,8.44-1.32,17.71,2.64,25.5,2.64,5.19,6.54,9.73,8.61,15.17,3.55,9.34,1.37,20.46,6.41,29.09.88,1.5,1.98,2.96,2.21,4.68.26,1.98-.7,3.94-1.97,5.48-4.79,5.81-13.41,6.98-18.81,12.23-3.92,3.81-5.7,9.68-4.58,15.03s5.14,9.99,10.26,11.9c-5.54-2.36-12.43,1.2-14.83,6.73-2.4,5.53-.9,12.19,2.62,17.08,7.5,10.43,24.17,12.6,34.09,4.45.51-.42,1-.87,1.48-1.33.05-2.18.63-4.37,1.64-6.31,1.89-3.62,5.05-6.43,8.48-8.64,2.9-1.87,6.31-3.71,7.3-7.02.56-1.87.21-3.88.47-5.81.71-5.27,5.93-9.01,11.19-9.81.04,0,.07,0,.11-.01-.45-2.95-.79-5.95-1.36-8.87-2.07-10.77-7.24-21.05-7.07-32.01,0-.58.02-1.21-.31-1.69-.49-.7-1.47-.77-2.32-.85-4.24-.39-8.28-2.64-10.84-6.04-2.29-3.05-3.37-6.83-4.21-10.55-1.8-7.96-2.76-16.1-2.86-24.26-.04-3.48.06-7.02-.83-10.38-.56-2.1-1.49-4.08-2.14-6.15-2.08-6.7-.9-14.33,3.1-20.09.59-.85,1.33-1.72,2.34-1.92.88-.18,1.77.18,2.59.55,2.4,1.08,4.7,2.36,6.91,3.79.13.89.35,1.75.73,2.56.73,1.54,1.98,2.75,3.08,4.05,4.05,4.76,6.27,11.04,6.13,17.29,3.03-3.47-1.03-9.77,2-13.24,1.26-1.45,3.56-2.05,4.14-3.88.81-2.52-2.23-4.46-3.35-6.86-1.33-2.84.21-6.2,2.2-8.62.78-.94,1.63-1.85,2.45-2.77,1.28-1.44,2.47-2.94,3.11-4.74,1.41-4-.18-8.71,1.7-12.51.88-1.78,2.43-3.13,3.41-4.86s1.16-4.23-.43-5.42c-1.75-1.31-4.98-.54-5.78-2.58.62-.68,1.62-.88,2.29-1.5,1.46-1.36.69-3.75-.04-5.6-3.39-8.61-3.68-18.4-1.49-25.51.66-.93,1.25-1.89,1.64-2.96.56-1.54.45-3.44-.27-5.16.38-1.88.8-3.75,1.3-5.61.15-.56.32-1.15.74-1.55.6-.57,1.52-.62,2.24-1.02,1.02-.58,1.46-1.75,1.99-2.82,1.12-.21,2.26-.4,3.4-.52,0,0,18.89,5.06,31.28,1.45l-7.44-7.66s23.04,8.11,27.97,7.44c4.93-.68-7.24-8.29-3.63-7.89,2.03.23,24.26,7.28,33.13,5.03l-3.38-4.57s12.5,5.67,20.22,5.99c13.43.56,26.19,6.21,39.59,7.27,2.72.22,5.58.44,8.32.94,4.4.8,8.52,2.31,11.34,5.66.99,1.18,3.13,7.46,5.24,13.15,1.09,2.96,2.49,6.04,4.39,8.55.43,3.49.81,7,1.18,10.49,1.31,8.11.23,17.24.69,26.16.06,1.13.14,2.25.25,3.38.49-.96,1.14-1.79,2-2.39,1.33-3.6,2.64-7.2,2.67-11,.02-3.54-1.09-7-1.4-10.53-.33-3.83.28-7.66.37-11.5.32.12.65.24.99.33,5.69,1.58,11.79-2.08,14.93-7.08,3.14-5,4-11.06,4.79-16.91.06-.41.11-.83.01-1.24Z"/>
      <path class="st6" d="M688.97,473.44c-22.91-26.97-51.58-45.3-85.41-59.63-8.93-3.78-18.22-7.02-27.87-7.95-5.77-.55-12.29-2.34-18.69-3.59,2.59,3.39,5.25,6.71,8.06,9.92,6.25,7.13,13.2,13.66,18.96,21.19,5.76,7.53,10.38,16.32,11.01,25.78-7.33-9.06-15.78-17.21-25.1-24.21-3.76-2.82-8.92-5.52-12.86-2.96-5.14,3.33-3.63,12.92-9.32,15.19-2.23.89-4.78.2-7.14.62-5.38.97-7.96,6.94-11.47,11.13-5.89,7.03-15.58,9.71-23.33,14.52h183.16Z"/>
      <path class="st6" d="M486.38,473.44c-.02-1.04-.03-2.07-.03-3.11-2.24-6.86-5.22-13.48-8.88-19.71-.13.01-.26.03-.39.04-.49-1.03-.98-2.07-1.48-3.11-.46-.72-.91-1.45-1.38-2.15.12,0,.24.01.36.02-4.57-9.43-9.65-18.7-17.71-25.19-3.01-2.43-6.33-4.37-9.79-6.07-6.5-.78-13.26-.16-19.83.49-6.88.67-14,1.43-19.95,4.95-4.73,2.8-8.33,7.13-11.82,11.38-5.82,7.06-11.64,14.12-17.45,21.19-22.3-19.41-33.2-49.32-55.15-69.12-1.13-1.02-2.3-2.03-3.34-3.13-35.06,9.8-67.94,22.57-101.9,38.76-14.02,6.69-27.9,14.14-39.33,24.66-8.96,8.24-16.33,18.6-19.98,30.12h328.05Z"/>
      <path class="st6" d="M477.08,450.66c.13-.01.26-.03.39-.04-.61-1.03-1.23-2.06-1.87-3.07.5,1.04.99,2.07,1.48,3.11Z"/>
      <path class="st6" d="M378.02,452.16c5.82-7.06,11.64-14.12,17.45-21.19,3.5-4.24,7.09-8.58,11.82-11.38,5.95-3.52,13.07-4.27,19.95-4.95,6.57-.64,13.32-1.26,19.83-.49-5.58-2.74-11.55-4.83-17.28-7.28-5.75-2.46-11.33-5.31-16.61-8.67-3.41-2.17-6.69-4.54-9.94-6.94-9.69-7.14-19.19-14.54-28.5-22.16-8.35-6.84-16.55-13.86-24.58-21.07-1.77-2.41-2.88-5.09-3.66-7.9-.58-2.11-.98-4.3-1.32-6.52-.04,0-.07,0-.11.01-5.26.79-10.48,4.53-11.19,9.81-.26,1.93.08,3.95-.47,5.81-.99,3.31-4.4,5.14-7.3,7.02-3.43,2.21-6.59,5.02-8.48,8.64-1.01,1.94-1.59,4.13-1.64,6.31-.05,1.89.3,3.77,1.17,5.46.61,1.2,1.45,2.24,2.37,3.22,1.05,1.1,2.21,2.11,3.34,3.13,21.95,19.8,32.85,49.71,55.15,69.12Z"/>
      <path class="st6" d="M505.81,473.44c7.75-4.81,17.44-7.49,23.33-14.52,3.51-4.19,6.09-10.17,11.47-11.13,2.36-.42,4.91.27,7.14-.62,5.69-2.27,4.18-11.85,9.32-15.19,3.94-2.56,9.1.14,12.86,2.96,9.32,7,17.77,15.15,25.1,24.21-.63-9.46-5.24-18.25-11.01-25.78-5.76-7.53-12.71-14.06-18.96-21.19-2.81-3.21-5.47-6.53-8.06-9.92-7.81-10.23-14.9-21.04-23.05-31-.75-.92-1.52-1.84-2.29-2.75-3.38-3.96-7.04-7.83-11.67-10.21-1.61-.83-3.45-1.46-5.22-1.33-.33.03-.66.09-.99.17-3,10.25-3.4,21.1-3.77,31.79,3.78,2.24,8.25,6.58,9.84,12.24.08.29.16.59.23.89.51,2.33.49,4.76.23,7.14-1.12,10.26-6.43,19.53-11.63,28.45-.79,1.35-1.6,2.71-2.54,3.96-1.89,3.96-4.29,7.66-7.15,10.98-1.88,2.18-3.97,4.22-5.35,6.74-2.35,4.3-2.4,9.55-4.06,14.11h16.23Z"/>
      <path class="st6" d="M534.54,236.15c-.71-6.14-1.58-12.26-2.64-18.34-1.08-6.14-2.33-12.27-3.07-18.46-.11-.89-.2-1.77-.28-2.66-.1-1.12-.19-2.25-.25-3.38-.46-8.93.63-18.06-.69-26.16-.37-3.49-.75-6.99-1.18-10.49-1.9-2.51-3.29-5.6-4.39-8.55-2.1-5.69-4.25-11.97-5.24-13.15-2.82-3.36-6.94-4.87-11.34-5.66-2.75-.5-5.6-.72-8.32-.94-13.4-1.07-26.16-6.72-39.59-7.27-7.73-.32-20.22-5.99-20.22-5.99l3.38,4.57c-8.88,2.25-31.1-4.8-33.13-5.03-3.61-.4,8.56,7.21,3.63,7.89-4.93.68-27.97-7.44-27.97-7.44l7.44,7.66c-12.4,3.61-31.28-1.45-31.28-1.45-1.14.12-2.28.3-3.4.52-.53,1.06-.97,2.24-1.99,2.82-.72.41-1.64.45-2.24,1.02-.42.4-.59.99-.74,1.55-.5,1.85-.92,3.73-1.3,5.61.72,1.72.84,3.62.27,5.16-.39,1.07-.98,2.03-1.64,2.96-2.19,7.11-1.9,16.89,1.49,25.51.73,1.85,1.5,4.25.04,5.6-.67.63-1.67.83-2.29,1.5.79,2.04,4.02,1.27,5.78,2.58,1.59,1.19,1.4,3.69.43,5.42s-2.53,3.09-3.41,4.86c-1.89,3.8-.29,8.51-1.7,12.51-.64,1.8-1.83,3.3-3.11,4.74-.82.92-1.67,1.82-2.45,2.77-1.99,2.42-3.53,5.79-2.2,8.62,1.12,2.39,4.16,4.34,3.35,6.86-.59,1.83-2.88,2.43-4.14,3.88-3.03,3.47,1.03,9.76-2,13.24.15-6.25-2.08-12.53-6.13-17.29-1.1-1.3-2.35-2.51-3.08-4.05-.39-.81-.6-1.67-.73-2.56-2.21-1.43-4.51-2.71-6.91-3.79-.82-.37-1.71-.73-2.59-.55-1.02.21-1.75,1.07-2.34,1.92-4.01,5.76-5.18,13.39-3.1,20.09.64,2.07,1.58,4.05,2.14,6.15.89,3.36.79,6.9.83,10.38.1,8.16,1.06,16.3,2.86,24.26.84,3.72,1.91,7.5,4.21,10.55,2.56,3.4,6.6,5.66,10.84,6.04.85.08,1.83.15,2.32.85.33.48.32,1.11.31,1.69-.17,10.96,5,21.24,7.07,32.01.56,2.92.91,5.91,1.36,8.87.34,2.22.73,4.41,1.32,6.52.78,2.81,1.89,5.49,3.66,7.9,8.03,7.21,16.23,14.23,24.58,21.07,9.31,7.63,18.82,15.02,28.5,22.16,3.25,2.4,6.53,4.77,9.94,6.94,5.28,3.35,10.86,6.21,16.61,8.67,5.73,2.45,11.7,4.55,17.28,7.28,3.46,1.7,6.78,3.64,9.79,6.07,8.05,6.49,13.13,15.76,17.71,25.19,6.59.46,13.27-.11,19.69-1.69,4.54-1.12,8.95-2.73,13.1-4.86-.37.93-.78,1.84-1.21,2.74.94-1.25,1.75-2.61,2.54-3.96,5.2-8.92,10.51-18.19,11.63-28.45.26-2.38.28-4.8-.23-7.14-.07-.3-.15-.6-.23-.89-1.59-5.66-6.06-9.99-9.84-12.24.37-10.69.77-21.54,3.77-31.79.12-.42.24-.83.37-1.25,0-.02.01-.03.02-.05,2.05-6.46,5.14-12.54,7.85-18.75,8.4-19.2,13.28-39.94,14.48-60.71.04-.71.09-1.42.12-2.14.08-12.73-.63-25.45-2.09-38.1Z"/>
      <path class="st6" d="M474.22,445.4c.48.71.92,1.43,1.38,2.15-.34-.71-.68-1.42-1.03-2.13-.12,0-.24-.01-.36-.02Z"/>
      <path class="st6" d="M477.47,450.62c3.65,6.23,6.64,12.85,8.88,19.71.34,1.03.65,2.07.96,3.11h2.27c1.66-4.56,1.71-9.81,4.06-14.11,1.38-2.52,3.47-4.56,5.35-6.74,2.86-3.32,5.27-7.03,7.15-10.98.43-.9.84-1.81,1.21-2.74-4.15,2.13-8.56,3.74-13.1,4.86-6.42,1.58-13.1,2.15-19.69,1.69.34.71.69,1.42,1.03,2.13.64,1.01,1.27,2.03,1.87,3.07Z"/>
    </g>
    <g>
      <path class="st1" d="M511.38,355.9c-.13.41-.25.83-.37,1.25.33-.08.66-.15.99-.17-.17-.39-.38-.76-.6-1.13,0,.02-.01.03-.02.05Z"/>
      <path class="st4" d="M539.18,271.42c-.47,1.55-1.13,3.15-2.43,4.11-.89.66-1.95.91-3.02.84-1.2,20.77-6.07,41.5-14.48,60.71-2.72,6.21-5.81,12.29-7.85,18.75.22.37.43.74.6,1.13,1.77-.14,3.61.5,5.22,1.33,4.62,2.39,8.29,6.26,11.67,10.21.77.91,1.54,1.82,2.29,2.75,3.12-.4,6.17-1.35,8.93-2.88,3.01-1.67,5.8-4.15,6.78-7.45s-.41-7.44-3.63-8.66c4.28-.16,8.52-1.37,12.24-3.51,1.11-.64,2.21-1.4,2.83-2.51.9-1.61.61-3.61.07-5.37-1.23-3.99-3.69-7.6-6.96-10.21-.68-.55-1.47-1.18-1.47-2.05,0-1.61,2.28-1.87,3.89-1.79,7.38.39,14.78-4.13,17.8-10.87,1.32-2.96,1.74-6.7-.28-9.23-3.67-4.6-11.9-1.81-16.25-5.78-1.66-1.51-2.42-3.75-3.08-5.89-2.68-8.64-4.81-17.71-3.55-26.67.8-5.66,2.93-11.09,3.35-16.79.52-7.01-1.7-14.18-6.07-19.68-1.76-2.2-4.44-4.3-7.14-3.5-.64.19-1.19.52-1.69.93.11,2.97.32,5.94.68,8.9,1.37,11.08,4.78,22.47,1.55,33.16Z"/>
      <path class="st9" d="M537.63,238.26c-.37-2.96-.57-5.93-.68-8.9-.27-7.29.11-14.61.62-21.9.23-3.34.46-6.86-1.01-9.88-1.46-3.01-5.27-5.17-8.25-3.63-.19.1-.36.22-.53.34-.86.6-1.51,1.43-2,2.39.08.89.18,1.77.28,2.66.73,6.18,1.99,12.31,3.07,18.46,1.07,6.09,1.93,12.2,2.64,18.34,1.46,12.64,2.17,25.37,2.09,38.1-.03.71-.08,1.42-.12,2.14,1.07.06,2.13-.18,3.02-.84,1.3-.97,1.97-2.56,2.43-4.11,3.22-10.69-.18-22.08-1.55-33.16Z"/>
      <path class="st4" d="M550.13,136.37c-.57-2.43-4.42-.96-6.72-1.96-1.58-.68-2.25-2.57-2.36-4.29-.28-4.25,1.75-8.29,2.36-12.5.6-4.21-1.16-9.53-5.37-10.14,6.49-8.87,5.53-22.39-2.15-30.25-2.2-2.25-4.93-4.08-8-4.73-7.71-1.62-15.83,4.35-23.25,1.75-.72-4.64-1.51-9.46-4.21-13.3-2.7-3.84-7.94-6.33-12.22-4.4-.79.36-1.62.87-2.47.67-.82-.19-1.34-.96-1.74-1.7-2.44-4.55-3.02-10.21-6.68-13.86-2.08-2.07-4.9-3.2-7.71-4.05-12.17-3.67-25.64-2.81-37.24,2.38-2.35,1.05-4.7,2.34-6.25,4.39-2.43,3.23-2.26,8.15.39,11.2-16.34-7.94-36.98-4.83-51.37,6.67-2.21,1.76-4.46,4.19-4.07,6.99-12.29,1.96-26,4.8-32.89,15.17-2.58,3.89-3.89,8.46-5.65,12.78-1.24,3.03-2.74,6.05-2.94,9.32,0,.09,0,.18,0,.27-4.07-.05-8.07,1.12-11.92,2.46-7.26,2.51-14.46,5.65-20.26,10.69-9.7,8.43-14.57,22.07-12.41,34.73,1,5.86,3.37,11.98,1.25,17.53-1.38,3.62-4.46,6.29-6.57,9.53-3.94,6.05-4.21,14.3-.69,20.6,2.67,4.78,7.41,8.76,7.8,14.22.21,2.95-.93,5.81-1.7,8.66-2.28,8.44-1.32,17.71,2.64,25.5,2.64,5.19,6.54,9.73,8.61,15.17,3.55,9.34,1.37,20.46,6.41,29.09.88,1.5,1.98,2.96,2.21,4.68.26,1.98-.7,3.94-1.97,5.48-4.79,5.81-13.41,6.98-18.81,12.23-3.92,3.81-5.7,9.68-4.58,15.03s5.14,9.99,10.26,11.9c-5.54-2.36-12.43,1.2-14.83,6.73-2.4,5.53-.9,12.19,2.62,17.08,7.5,10.43,24.17,12.6,34.09,4.45.51-.42,1-.87,1.48-1.33.05-2.18.63-4.37,1.64-6.31,1.89-3.62,5.05-6.43,8.48-8.64,2.9-1.87,6.31-3.71,7.3-7.02.56-1.87.21-3.88.47-5.81.71-5.27,5.93-9.01,11.19-9.81.04,0,.07,0,.11-.01-.45-2.95-.79-5.95-1.36-8.87-2.07-10.77-7.24-21.05-7.07-32.01,0-.58.02-1.21-.31-1.69-.49-.7-1.47-.77-2.32-.85-4.24-.39-8.28-2.64-10.84-6.04-2.29-3.05-3.37-6.83-4.21-10.55-1.8-7.96-2.76-16.1-2.86-24.26-.04-3.48.06-7.02-.83-10.38-.56-2.1-1.49-4.08-2.14-6.15-2.08-6.7-.9-14.33,3.1-20.09.59-.85,1.33-1.72,2.34-1.92.88-.18,1.77.18,2.59.55,2.4,1.08,4.7,2.36,6.91,3.79.13.89.35,1.75.73,2.56.73,1.54,1.98,2.75,3.08,4.05,4.05,4.76,6.27,11.04,6.13,17.29,3.03-3.47-1.03-9.77,2-13.24,1.26-1.45,3.56-2.05,4.14-3.88.81-2.52-2.23-4.46-3.35-6.86-1.33-2.84.21-6.2,2.2-8.62.78-.94,1.63-1.85,2.45-2.77,1.28-1.44,2.47-2.94,3.11-4.74,1.41-4-.18-8.71,1.7-12.51.88-1.78,2.43-3.13,3.41-4.86s1.16-4.23-.43-5.42c-1.75-1.31-4.98-.54-5.78-2.58.62-.68,1.62-.88,2.29-1.5,1.46-1.36.69-3.75-.04-5.6-3.39-8.61-3.68-18.4-1.49-25.51.66-.93,1.25-1.89,1.64-2.96.56-1.54.45-3.44-.27-5.16.38-1.88.8-3.75,1.3-5.61.15-.56.32-1.15.74-1.55.6-.57,1.52-.62,2.24-1.02,1.02-.58,1.46-1.75,1.99-2.82,1.12-.21,2.26-.4,3.4-.52,0,0,18.89,5.06,31.28,1.45l-7.44-7.66s23.04,8.11,27.97,7.44c4.93-.68-7.24-8.29-3.63-7.89,2.03.23,24.26,7.28,33.13,5.03l-3.38-4.57s12.5,5.67,20.22,5.99c13.43.56,26.19,6.21,39.59,7.27,2.72.22,5.58.44,8.32.94,4.4.8,8.52,2.31,11.34,5.66.99,1.18,3.13,7.46,5.24,13.15,1.09,2.96,2.49,6.04,4.39,8.55.43,3.49.81,7,1.18,10.49,1.31,8.11.23,17.24.69,26.16.06,1.13.14,2.25.25,3.38.49-.96,1.14-1.79,2-2.39,1.33-3.6,2.64-7.2,2.67-11,.02-3.54-1.09-7-1.4-10.53-.33-3.83.28-7.66.37-11.5.32.12.65.24.99.33,5.69,1.58,11.79-2.08,14.93-7.08,3.14-5,4-11.06,4.79-16.91.06-.41.11-.83.01-1.24Z"/>
      <path class="st7" d="M686.19,473.44c-22.91-26.97-51.58-45.3-85.41-59.63-8.93-3.78-18.22-7.02-27.87-7.95-5.77-.55-12.29-2.34-18.69-3.59,2.59,3.39,5.25,6.71,8.06,9.92,6.25,7.13,13.2,13.66,18.96,21.19,5.76,7.53,10.38,16.32,11.01,25.78-7.33-9.06-15.78-17.21-25.1-24.21-3.76-2.82-8.92-5.52-12.86-2.96-5.14,3.33-3.63,12.92-9.32,15.19-2.23.89-4.78.2-7.14.62-5.38.97-7.96,6.94-11.47,11.13-5.89,7.03-15.58,9.71-23.33,14.52h183.16Z"/>
      <path class="st7" d="M483.6,473.44c-.02-1.04-.03-2.07-.03-3.11-2.24-6.86-5.22-13.48-8.88-19.71-.13.01-.26.03-.39.04-.49-1.03-.98-2.07-1.48-3.11-.46-.72-.91-1.45-1.38-2.15.12,0,.24.01.36.02-4.57-9.43-9.65-18.7-17.71-25.19-3.01-2.43-6.33-4.37-9.79-6.07-6.5-.78-13.26-.16-19.83.49-6.88.67-14,1.43-19.95,4.95-4.73,2.8-8.33,7.13-11.82,11.38-5.82,7.06-11.64,14.12-17.45,21.19-22.3-19.41-33.2-49.32-55.15-69.12-1.13-1.02-2.3-2.03-3.34-3.13-35.06,9.8-67.94,22.57-101.9,38.76-14.02,6.69-27.9,14.14-39.33,24.66-8.96,8.24-16.33,18.6-19.98,30.12h328.05Z"/>
      <path class="st1" d="M474.3,450.66c.13-.01.26-.03.39-.04-.61-1.03-1.23-2.06-1.87-3.07.5,1.04.99,2.07,1.48,3.11Z"/>
      <path class="st7" d="M375.24,452.16c5.82-7.06,11.64-14.12,17.45-21.19,3.5-4.24,7.09-8.58,11.82-11.38,5.95-3.52,13.07-4.27,19.95-4.95,6.57-.64,13.32-1.26,19.83-.49-5.58-2.74-11.55-4.83-17.28-7.28-5.75-2.46-11.33-5.31-16.61-8.67-3.41-2.17-6.69-4.54-9.94-6.94-9.69-7.14-19.19-14.54-28.5-22.16-8.35-6.84-16.55-13.86-24.58-21.07-1.77-2.41-2.88-5.09-3.66-7.9-.58-2.11-.98-4.3-1.32-6.52-.04,0-.07,0-.11.01-5.26.79-10.48,4.53-11.19,9.81-.26,1.93.08,3.95-.47,5.81-.99,3.31-4.4,5.14-7.3,7.02-3.43,2.21-6.59,5.02-8.48,8.64-1.01,1.94-1.59,4.13-1.64,6.31-.05,1.89.3,3.77,1.17,5.46.61,1.2,1.45,2.24,2.37,3.22,1.05,1.1,2.21,2.11,3.34,3.13,21.95,19.8,32.85,49.71,55.15,69.12Z"/>
      <path class="st1" d="M484.53,473.44c-.3-1.04-.62-2.08-.96-3.11,0,1.04,0,2.07.03,3.11h.93Z"/>
      <path class="st7" d="M503.03,473.44c7.75-4.81,17.44-7.49,23.33-14.52,3.51-4.19,6.09-10.17,11.47-11.13,2.36-.42,4.91.27,7.14-.62,5.69-2.27,4.18-11.85,9.32-15.19,3.94-2.56,9.1.14,12.86,2.96,9.32,7,17.77,15.15,25.1,24.21-.63-9.46-5.24-18.25-11.01-25.78-5.76-7.53-12.71-14.06-18.96-21.19-2.81-3.21-5.47-6.53-8.06-9.92-7.81-10.23-14.9-21.04-23.05-31-.75-.92-1.52-1.84-2.29-2.75-3.38-3.96-7.04-7.83-11.67-10.21-1.61-.83-3.45-1.46-5.22-1.33-.33.03-.66.09-.99.17-3,10.25-3.4,21.1-3.77,31.79,3.78,2.24,8.25,6.58,9.84,12.24.08.29.16.59.23.89.51,2.33.49,4.76.23,7.14-1.12,10.26-6.43,19.53-11.63,28.45-.79,1.35-1.6,2.71-2.54,3.96-1.89,3.96-4.29,7.66-7.15,10.98-1.88,2.18-3.97,4.22-5.35,6.74-2.35,4.3-2.4,9.55-4.06,14.11h16.23Z"/>
      <path class="st9" d="M531.76,236.15c-.71-6.14-1.58-12.26-2.64-18.34-1.08-6.14-2.33-12.27-3.07-18.46-.11-.89-.2-1.77-.28-2.66-.1-1.12-.19-2.25-.25-3.38-.46-8.93.63-18.06-.69-26.16-.37-3.49-.75-6.99-1.18-10.49-1.9-2.51-3.29-5.6-4.39-8.55-2.1-5.69-4.25-11.97-5.24-13.15-2.82-3.36-6.94-4.87-11.34-5.66-2.75-.5-5.6-.72-8.32-.94-13.4-1.07-26.16-6.72-39.59-7.27-7.73-.32-20.22-5.99-20.22-5.99l3.38,4.57c-8.88,2.25-31.1-4.8-33.13-5.03-3.61-.4,8.56,7.21,3.63,7.89-4.93.68-27.97-7.44-27.97-7.44l7.44,7.66c-12.4,3.61-31.28-1.45-31.28-1.45-1.14.12-2.28.3-3.4.52-.53,1.06-.97,2.24-1.99,2.82-.72.41-1.64.45-2.24,1.02-.42.4-.59.99-.74,1.55-.5,1.85-.92,3.73-1.3,5.61.72,1.72.84,3.62.27,5.16-.39,1.07-.98,2.03-1.64,2.96-2.19,7.11-1.9,16.89,1.49,25.51.73,1.85,1.5,4.25.04,5.6-.67.63-1.67.83-2.29,1.5.79,2.04,4.02,1.27,5.78,2.58,1.59,1.19,1.4,3.69.43,5.42s-2.53,3.09-3.41,4.86c-1.89,3.8-.29,8.51-1.7,12.51-.64,1.8-1.83,3.3-3.11,4.74-.82.92-1.67,1.82-2.45,2.77-1.99,2.42-3.53,5.79-2.2,8.62,1.12,2.39,4.16,4.34,3.35,6.86-.59,1.83-2.88,2.43-4.14,3.88-3.03,3.47,1.03,9.76-2,13.24.15-6.25-2.08-12.53-6.13-17.29-1.1-1.3-2.35-2.51-3.08-4.05-.39-.81-.6-1.67-.73-2.56-2.21-1.43-4.51-2.71-6.91-3.79-.82-.37-1.71-.73-2.59-.55-1.02.21-1.75,1.07-2.34,1.92-4.01,5.76-5.18,13.39-3.1,20.09.64,2.07,1.58,4.05,2.14,6.15.89,3.36.79,6.9.83,10.38.1,8.16,1.06,16.3,2.86,24.26.84,3.72,1.91,7.5,4.21,10.55,2.56,3.4,6.6,5.66,10.84,6.04.85.08,1.83.15,2.32.85.33.48.32,1.11.31,1.69-.17,10.96,5,21.24,7.07,32.01.56,2.92.91,5.91,1.36,8.87.34,2.22.73,4.41,1.32,6.52.78,2.81,1.89,5.49,3.66,7.9,8.03,7.21,16.23,14.23,24.58,21.07,9.31,7.63,18.82,15.02,28.5,22.16,3.25,2.4,6.53,4.77,9.94,6.94,5.28,3.35,10.86,6.21,16.61,8.67,5.73,2.45,11.7,4.55,17.28,7.28,3.46,1.7,6.78,3.64,9.79,6.07,8.05,6.49,13.13,15.76,17.71,25.19,6.59.46,13.27-.11,19.69-1.69,4.54-1.12,8.95-2.73,13.1-4.86-.37.93-.78,1.84-1.21,2.74.94-1.25,1.75-2.61,2.54-3.96,5.2-8.92,10.51-18.19,11.63-28.45.26-2.38.28-4.8-.23-7.14-.07-.3-.15-.6-.23-.89-1.59-5.66-6.06-9.99-9.84-12.24.37-10.69.77-21.54,3.77-31.79.12-.42.24-.83.37-1.25,0-.02.01-.03.02-.05,2.05-6.46,5.14-12.54,7.85-18.75,8.4-19.2,13.28-39.94,14.48-60.71.04-.71.09-1.42.12-2.14.08-12.73-.63-25.45-2.09-38.1Z"/>
      <path class="st1" d="M471.43,445.4c.48.71.92,1.43,1.38,2.15-.34-.71-.68-1.42-1.03-2.13-.12,0-.24-.01-.36-.02Z"/>
      <path class="st6" d="M474.69,450.62c3.65,6.23,6.64,12.85,8.88,19.71.34,1.03.65,2.07.96,3.11h2.27c1.66-4.56,1.71-9.81,4.06-14.11,1.38-2.52,3.47-4.56,5.35-6.74,2.86-3.32,5.27-7.03,7.15-10.98.43-.9.84-1.81,1.21-2.74-4.15,2.13-8.56,3.74-13.1,4.86-6.42,1.58-13.1,2.15-19.69,1.69.34.71.69,1.42,1.03,2.13.64,1.01,1.27,2.03,1.87,3.07Z"/>
    </g>
    <path class="st1" d="M428.52,316.26c14.19-2.42,28.6-3.52,42.99-3.28-.42.21-.84.43-1.27.64"/>
    <g>
      <path class="st6" d="M461.23,294.68c-12.23,1.86-22.7,1.7-33.72.83-.24.38-.49.76-.72,1.15-.27-.43-.55-.86-.84-1.28-1.72-.15-3.46-.3-5.22-.48-.22.86-.34,1.68-.37,2.49-1.01-.73-1.86-1.69-2.48-2.77-3.67-.37-7.47-.78-11.48-1.17,9.48,11.95,43.03,18.12,82.49-3.58-6.58-.17-18.94,3.37-25.43,4.47-.69.12-1.35.21-2.03.31-.18.34-.37.67-.55,1.01.17-.31.27-.64.35-.97Z"/>
      <path class="st4" d="M498.81,281.96c-.7-1.48-1.31-3.05-2.48-4.19-1.17-1.14-3.1-1.71-4.33-1.06-1.89-.93-3.78-1.86-5.67-2.79.73,1.21-1.16,2.47-2.54,2.16-1.38-.31-2.63-1.31-4.04-1.19-.88.07-1.73.58-2.59.38-1.53-.35-2.28-2.75-3.81-2.43-.98.2-1.37,1.43-2.26,1.9-1.12.58-2.41-.25-3.57-.76-1.77-.77-3.8-.76-5.7-.38-1.97.4-3.85,1.18-5.83,1.54-2.45.45-4.96.24-7.45.14-5.38-.21-10.71.55-13.31.81-2.62.27-5.24.53-7.85.8-1.57.16-3.18.33-4.58,1.05-.73.37-1.39.89-2.14,1.22-2.27,1.01-4.92.23-7.37.63-2.95.48-5.49,2.66-8.47,2.82-1.08.06-2.17-.15-3.24.02-3.54.57-5.05,4.68-6.27,8.05-3.4,9.39-9.72,17.7-17.86,23.49,8.02-2.56,15.35-7.25,21.04-13.46-.58,1.77-.64,3.7-.15,5.5,3.17-4.47,5.88-9.26,8.07-14.28.12.48.25.96.37,1.44,3.42-.25,6.8-1.06,9.96-2.4.11,1.28.51,2.52,1.15,3.64.62,1.08,1.46,2.04,2.48,2.77.03-.81.15-1.62.37-2.49,1.76.17,3.5.33,5.22.48.29.42.57.84.84,1.28.23-.39.47-.77.72-1.15,1.21-1.9,2.6-3.69,4.16-5.32l2.14,3.83c2.09-.66,4.03-1.82,5.59-3.37.95,1.15,2.8-.01,3.61-1.26.26-.4.57-.85,1.05-.87.85-.04,1.05,1.19,1.69,1.75.88.78,2.28,0,2.99-.93.71-.94,1.3-2.14,2.44-2.45.59-.16,1.21-.04,1.81.08,2.24.47,4.54,1.07,6.28,2.56,1.47,1.26,2.36,3.33,1.96,5.15-.07.33-.18.66-.35.97.18-.34.37-.67.55-1.01,1.25-2.28,2.5-4.56,3.75-6.83,2.49-.39,5.1,0,7.37,1.11,1.62.8,3.9,1.82,4.93.33.39-.56.48-1.39,1.1-1.66.56-.24,1.16.14,1.7.41,3.05,1.55,6.64-.08,10-.73.82-.16,1.69-.25,2.47.04.58.22,1.07.62,1.54,1.03,4.1,3.49,8.21,7.04,12.98,9.54s10.33,3.87,15.58,2.7c-10.33-1.98-19.54-9.12-24.02-18.63Z"/>
    </g>
    <path class="st1" d="M445.24,270.64c1.12,2.24,3.43,3.85,5.93,4.12s5.09-.82,6.66-2.78c1.14-1.42,1.74-3.23,2.98-4.55,1.94-2.07,4.98-2.54,7.72-3.32,2.73-.77,5.7-2.4,6.14-5.21.26-1.67-.5-3.38-1.64-4.64s-2.61-2.15-4.06-3.03c-1.64-.99-3.29-1.98-4.93-2.97"/>
    <path class="st1" d="M442.68,269.45c-2.22-2.28-5.62-2.93-8.81-3.01-.91-.02-1.84,0-2.67.35-.64.27-1.19.73-1.85.97-.51.19-1.07.24-1.62.28-1.93.16-4.02.28-5.66-.76-2.48-1.58-2.79-5.31-1.38-7.89s4.03-4.24,6.63-5.63c1.17-.63,2.39-1.24,3.3-2.21"/>
    <path class="st1" d="M456.41,249.22c-3.25-11.08-6.19-22.25-8.8-33.5"/>
    <path class="st1" d="M410.66,350.37c13.14,9.92,29.06,16.87,45.53,16.81,16.47-.06,33.34-7.96,41.72-22.14"/>
    <path class="st1" d="M526.63,204.33c.65-2.1,1.02-4.32,2.12-6.22s3.22-3.46,5.38-3.03c1.45.29,2.62,1.43,3.27,2.75s.86,2.82.96,4.29c.38,5.41-.5,10.85-.21,16.27.19,3.53.87,7.01,1.55,10.47"/>
    <path class="st1" d="M333.24,260.74c.83-4.77,1.65-9.59,1.45-14.43s-1.52-9.77-4.58-13.53c-1.6-1.97-3.61-3.56-5.3-5.45-1.41-1.59-2.59-3.38-3.48-5.31-.53-1.15-.99-2.39-1.92-3.25s-2.55-1.14-3.42-.22c-.53.55-.64,1.37-.72,2.13-.42,4.08-.44,8.19-.08,12.28"/>
    <path class="st1" d="M320.31,229.43c1.96,10.39-1.74,21.18-.1,31.62.21,1.31.52,2.65,1.33,3.7,1.38,1.79,3.83,2.29,6.05,2.66"/>
    <path class="st1" d="M327.46,240.98c2.45,2.23,3.93,5.48,4.01,8.79.08,3.43-1.28,6.77-1.19,10.2"/>
    <path class="st1" d="M531.44,212.95c.88-2.33,1.82-4.63,2.82-6.91.24-.54.79-1.19,1.28-.86.25.17.3.51.33.81.54,6.35.58,12.74.12,19.1-.18,2.52-.43,5.18.63,7.48"/>
    <g>
      <path class="st1" d="M513.37,354.67c-.13.41-.25.83-.37,1.25.33-.08.66-.15.99-.17-.17-.39-.38-.76-.6-1.13,0,.02-.01.03-.02.05Z"/>
      <path class="st1" d="M541.17,270.2c-.47,1.55-1.13,3.15-2.43,4.11-.89.66-1.95.91-3.02.84-1.2,20.77-6.07,41.5-14.48,60.71-2.72,6.21-5.81,12.29-7.85,18.75.22.37.43.74.6,1.13,1.77-.14,3.61.5,5.22,1.33,4.62,2.39,8.29,6.26,11.67,10.21.77.91,1.54,1.82,2.29,2.75,3.12-.4,6.17-1.35,8.93-2.88,3.01-1.67,5.8-4.15,6.78-7.45s-.41-7.44-3.63-8.66c4.28-.16,8.52-1.37,12.24-3.51,1.11-.64,2.21-1.4,2.83-2.51.9-1.61.61-3.61.07-5.37-1.23-3.99-3.69-7.6-6.96-10.21-.68-.55-1.47-1.18-1.47-2.05,0-1.61,2.28-1.87,3.89-1.79,7.38.39,14.78-4.13,17.8-10.87,1.32-2.96,1.74-6.7-.28-9.23-3.67-4.6-11.9-1.81-16.25-5.78-1.66-1.51-2.42-3.75-3.08-5.89-2.68-8.64-4.81-17.71-3.55-26.67.8-5.66,2.93-11.09,3.35-16.79.52-7.01-1.7-14.18-6.07-19.68-1.76-2.2-4.44-4.3-7.14-3.5-.64.19-1.19.52-1.69.93.11,2.97.32,5.94.68,8.9,1.37,11.08,4.78,22.47,1.55,33.16Z"/>
      <path class="st1" d="M539.62,237.03c-.37-2.96-.57-5.93-.68-8.9-.27-7.29.11-14.61.62-21.9.23-3.34.46-6.86-1.01-9.88-1.46-3.01-5.27-5.17-8.25-3.63-.19.1-.36.22-.53.34-.86.6-1.51,1.43-2,2.39.08.89.18,1.77.28,2.66.73,6.18,1.99,12.31,3.07,18.46,1.07,6.09,1.93,12.2,2.64,18.34,1.46,12.64,2.17,25.37,2.09,38.1-.03.71-.08,1.42-.12,2.14,1.07.06,2.13-.18,3.02-.84,1.3-.97,1.97-2.56,2.43-4.11,3.22-10.69-.18-22.08-1.55-33.16Z"/>
      <path class="st1" d="M552.12,135.14c-.57-2.43-4.42-.96-6.72-1.96-1.58-.68-2.25-2.57-2.36-4.29-.28-4.25,1.75-8.29,2.36-12.5.6-4.21-1.16-9.53-5.37-10.14,6.49-8.87,5.53-22.39-2.15-30.25-2.2-2.25-4.93-4.08-8-4.73-7.71-1.62-15.83,4.35-23.25,1.75-.72-4.64-1.51-9.46-4.21-13.3-2.7-3.84-7.94-6.33-12.22-4.4-.79.36-1.62.87-2.47.67-.82-.19-1.34-.96-1.74-1.7-2.44-4.55-3.02-10.21-6.68-13.86-2.08-2.07-4.9-3.2-7.71-4.05-12.17-3.67-25.64-2.81-37.24,2.38-2.35,1.05-4.7,2.34-6.25,4.39-2.43,3.23-2.26,8.15.39,11.2-16.34-7.94-36.98-4.83-51.37,6.67-2.21,1.76-4.46,4.19-4.07,6.99-12.29,1.96-26,4.8-32.89,15.17-2.58,3.89-3.89,8.46-5.65,12.78-1.24,3.03-2.74,6.05-2.94,9.32,0,.09,0,.18,0,.27-4.07-.05-8.07,1.12-11.92,2.46-7.26,2.51-14.46,5.65-20.26,10.69-9.7,8.43-14.57,22.07-12.41,34.73,1,5.86,3.37,11.98,1.25,17.53-1.38,3.62-4.46,6.29-6.57,9.53-3.94,6.05-4.21,14.3-.69,20.6,2.67,4.78,7.41,8.76,7.8,14.22.21,2.95-.93,5.81-1.7,8.66-2.28,8.44-1.32,17.71,2.64,25.5,2.64,5.19,6.54,9.73,8.61,15.17,3.55,9.34,1.37,20.46,6.41,29.09.88,1.5,1.98,2.96,2.21,4.68.26,1.98-.7,3.94-1.97,5.48-4.79,5.81-13.41,6.98-18.81,12.23-3.92,3.81-5.7,9.68-4.58,15.03s5.14,9.99,10.26,11.9c-5.54-2.36-12.43,1.2-14.83,6.73-2.4,5.53-.9,12.19,2.62,17.08,7.5,10.43,24.17,12.6,34.09,4.45.51-.42,1-.87,1.48-1.33.05-2.18.63-4.37,1.64-6.31,1.89-3.62,5.05-6.43,8.48-8.64,2.9-1.87,6.31-3.71,7.3-7.02.56-1.87.21-3.88.47-5.81.71-5.27,5.93-9.01,11.19-9.81.04,0,.07,0,.11-.01-.45-2.95-.79-5.95-1.36-8.87-2.07-10.77-7.24-21.05-7.07-32.01,0-.58.02-1.21-.31-1.69-.49-.7-1.47-.77-2.32-.85-4.24-.39-8.28-2.64-10.84-6.04-2.29-3.05-3.37-6.83-4.21-10.55-1.8-7.96-2.76-16.1-2.86-24.26-.04-3.48.06-7.02-.83-10.38-.56-2.1-1.49-4.08-2.14-6.15-2.08-6.7-.9-14.33,3.1-20.09.59-.85,1.33-1.72,2.34-1.92.88-.18,1.77.18,2.59.55,2.4,1.08,4.7,2.36,6.91,3.79.13.89.35,1.75.73,2.56.73,1.54,1.98,2.75,3.08,4.05,4.05,4.76,6.27,11.04,6.13,17.29,3.03-3.47-1.03-9.77,2-13.24,1.26-1.45,3.56-2.05,4.14-3.88.81-2.52-2.23-4.46-3.35-6.86-1.33-2.84.21-6.2,2.2-8.62.78-.94,1.63-1.85,2.45-2.77,1.28-1.44,2.47-2.94,3.11-4.74,1.41-4-.18-8.71,1.7-12.51.88-1.78,2.43-3.13,3.41-4.86s1.16-4.23-.43-5.42c-1.75-1.31-4.98-.54-5.78-2.58.62-.68,1.62-.88,2.29-1.5,1.46-1.36.69-3.75-.04-5.6-3.39-8.61-3.68-18.4-1.49-25.51.66-.93,1.25-1.89,1.64-2.96.56-1.54.45-3.44-.27-5.16.38-1.88.8-3.75,1.3-5.61.15-.56.32-1.15.74-1.55.6-.57,1.52-.62,2.24-1.02,1.02-.58,1.46-1.75,1.99-2.82,1.12-.21,2.26-.4,3.4-.52,0,0,18.89,5.06,31.28,1.45l-7.44-7.66s23.04,8.11,27.97,7.44c4.93-.68-7.24-8.29-3.63-7.89,2.03.23,24.26,7.28,33.13,5.03l-3.38-4.57s12.5,5.67,20.22,5.99c13.43.56,26.19,6.21,39.59,7.27,2.72.22,5.58.44,8.32.94,4.4.8,8.52,2.31,11.34,5.66.99,1.18,3.13,7.46,5.24,13.15,1.09,2.96,2.49,6.04,4.39,8.55.43,3.49.81,7,1.18,10.49,1.31,8.11.23,17.24.69,26.16.06,1.13.14,2.25.25,3.38.49-.96,1.14-1.79,2-2.39,1.33-3.6,2.64-7.2,2.67-11,.02-3.54-1.09-7-1.4-10.53-.33-3.83.28-7.66.37-11.5.32.12.65.24.99.33,5.69,1.58,11.79-2.08,14.93-7.08,3.14-5,4-11.06,4.79-16.91.06-.41.11-.83.01-1.24Z"/>
      <path class="st1" d="M688.18,472.21c-22.91-26.97-51.58-45.3-85.41-59.63-8.93-3.78-18.22-7.02-27.87-7.95-5.77-.55-12.29-2.34-18.69-3.59,2.59,3.39,5.25,6.71,8.06,9.92,6.25,7.13,13.2,13.66,18.96,21.19,5.76,7.53,10.38,16.32,11.01,25.78-7.33-9.06-15.78-17.21-25.1-24.21-3.76-2.82-8.92-5.52-12.86-2.96-5.14,3.33-3.63,12.92-9.32,15.19-2.23.89-4.78.2-7.14.62-5.38.97-7.96,6.94-11.47,11.13-5.89,7.03-15.58,9.71-23.33,14.52h183.16Z"/>
      <path class="st1" d="M485.59,472.21c-.02-1.04-.03-2.07-.03-3.11-2.24-6.86-5.22-13.48-8.88-19.71-.13.01-.26.03-.39.04-.49-1.03-.98-2.07-1.48-3.11-.46-.72-.91-1.45-1.38-2.15.12,0,.24.01.36.02-4.57-9.43-9.65-18.7-17.71-25.19-3.01-2.43-6.33-4.37-9.79-6.07-6.5-.78-13.26-.16-19.83.49-6.88.67-14,1.43-19.95,4.95-4.73,2.8-8.33,7.13-11.82,11.38-5.82,7.06-11.64,14.12-17.45,21.19-22.3-19.41-33.2-49.32-55.15-69.12-1.13-1.02-2.3-2.03-3.34-3.13-35.06,9.8-67.94,22.57-101.9,38.76-14.02,6.69-27.9,14.14-39.33,24.66-8.96,8.24-16.33,18.6-19.98,30.12h328.05Z"/>
      <path class="st1" d="M476.29,449.44c.13-.01.26-.03.39-.04-.61-1.03-1.23-2.06-1.87-3.07.5,1.04.99,2.07,1.48,3.11Z"/>
      <path class="st1" d="M377.23,450.93c5.82-7.06,11.64-14.12,17.45-21.19,3.5-4.24,7.09-8.58,11.82-11.38,5.95-3.52,13.07-4.27,19.95-4.95,6.57-.64,13.32-1.26,19.83-.49-5.58-2.74-11.55-4.83-17.28-7.28-5.75-2.46-11.33-5.31-16.61-8.67-3.41-2.17-6.69-4.54-9.94-6.94-9.69-7.14-19.19-14.54-28.5-22.16-8.35-6.84-16.55-13.86-24.58-21.07-1.77-2.41-2.88-5.09-3.66-7.9-.58-2.11-.98-4.3-1.32-6.52-.04,0-.07,0-.11.01-5.26.79-10.48,4.53-11.19,9.81-.26,1.93.08,3.95-.47,5.81-.99,3.31-4.4,5.14-7.3,7.02-3.43,2.21-6.59,5.02-8.48,8.64-1.01,1.94-1.59,4.13-1.64,6.31-.05,1.89.3,3.77,1.17,5.46.61,1.2,1.45,2.24,2.37,3.22,1.05,1.1,2.21,2.11,3.34,3.13,21.95,19.8,32.85,49.71,55.15,69.12Z"/>
      <path class="st1" d="M486.52,472.21c-.3-1.04-.62-2.08-.96-3.11,0,1.04,0,2.07.03,3.11h.93Z"/>
      <path class="st1" d="M505.02,472.21c7.75-4.81,17.44-7.49,23.33-14.52,3.51-4.19,6.09-10.17,11.47-11.13,2.36-.42,4.91.27,7.14-.62,5.69-2.27,4.18-11.85,9.32-15.19,3.94-2.56,9.1.14,12.86,2.96,9.32,7,17.77,15.15,25.1,24.21-.63-9.46-5.24-18.25-11.01-25.78-5.76-7.53-12.71-14.06-18.96-21.19-2.81-3.21-5.47-6.53-8.06-9.92-7.81-10.23-14.9-21.04-23.05-31-.75-.92-1.52-1.84-2.29-2.75-3.38-3.96-7.04-7.83-11.67-10.21-1.61-.83-3.45-1.46-5.22-1.33-.33.03-.66.09-.99.17-3,10.25-3.4,21.1-3.77,31.79,3.78,2.24,8.25,6.58,9.84,12.24.08.29.16.59.23.89.51,2.33.49,4.76.23,7.14-1.12,10.26-6.43,19.53-11.63,28.45-.79,1.35-1.6,2.71-2.54,3.96-1.89,3.96-4.29,7.66-7.15,10.98-1.88,2.18-3.97,4.22-5.35,6.74-2.35,4.3-2.4,9.55-4.06,14.11h16.23Z"/>
      <path class="st1" d="M533.75,234.92c-.71-6.14-1.58-12.26-2.64-18.34-1.08-6.14-2.33-12.27-3.07-18.46-.11-.89-.2-1.77-.28-2.66-.1-1.12-.19-2.25-.25-3.38-.46-8.93.63-18.06-.69-26.16-.37-3.49-.75-6.99-1.18-10.49-1.9-2.51-3.29-5.6-4.39-8.55-2.1-5.69-4.25-11.97-5.24-13.15-2.82-3.36-6.94-4.87-11.34-5.66-2.75-.5-5.6-.72-8.32-.94-13.4-1.07-26.16-6.72-39.59-7.27-7.73-.32-20.22-5.99-20.22-5.99l3.38,4.57c-8.88,2.25-31.1-4.8-33.13-5.03-3.61-.4,8.56,7.21,3.63,7.89-4.93.68-27.97-7.44-27.97-7.44l7.44,7.66c-12.4,3.61-31.28-1.45-31.28-1.45-1.14.12-2.28.3-3.4.52-.53,1.06-.97,2.24-1.99,2.82-.72.41-1.64.45-2.24,1.02-.42.4-.59.99-.74,1.55-.5,1.85-.92,3.73-1.3,5.61.72,1.72.84,3.62.27,5.16-.39,1.07-.98,2.03-1.64,2.96-2.19,7.11-1.9,16.89,1.49,25.51.73,1.85,1.5,4.25.04,5.6-.67.63-1.67.83-2.29,1.5.79,2.04,4.02,1.27,5.78,2.58,1.59,1.19,1.4,3.69.43,5.42s-2.53,3.09-3.41,4.86c-1.89,3.8-.29,8.51-1.7,12.51-.64,1.8-1.83,3.3-3.11,4.74-.82.92-1.67,1.82-2.45,2.77-1.99,2.42-3.53,5.79-2.2,8.62,1.12,2.39,4.16,4.34,3.35,6.86-.59,1.83-2.88,2.43-4.14,3.88-3.03,3.47,1.03,9.76-2,13.24.15-6.25-2.08-12.53-6.13-17.29-1.1-1.3-2.35-2.51-3.08-4.05-.39-.81-.6-1.67-.73-2.56-2.21-1.43-4.51-2.71-6.91-3.79-.82-.37-1.71-.73-2.59-.55-1.02.21-1.75,1.07-2.34,1.92-4.01,5.76-5.18,13.39-3.1,20.09.64,2.07,1.58,4.05,2.14,6.15.89,3.36.79,6.9.83,10.38.1,8.16,1.06,16.3,2.86,24.26.84,3.72,1.91,7.5,4.21,10.55,2.56,3.4,6.6,5.66,10.84,6.04.85.08,1.83.15,2.32.85.33.48.32,1.11.31,1.69-.17,10.96,5,21.24,7.07,32.01.56,2.92.91,5.91,1.36,8.87.34,2.22.73,4.41,1.32,6.52.78,2.81,1.89,5.49,3.66,7.9,8.03,7.21,16.23,14.23,24.58,21.07,9.31,7.63,18.82,15.02,28.5,22.16,3.25,2.4,6.53,4.77,9.94,6.94,5.28,3.35,10.86,6.21,16.61,8.67,5.73,2.45,11.7,4.55,17.28,7.28,3.46,1.7,6.78,3.64,9.79,6.07,8.05,6.49,13.13,15.76,17.71,25.19,6.59.46,13.27-.11,19.69-1.69,4.54-1.12,8.95-2.73,13.1-4.86-.37.93-.78,1.84-1.21,2.74.94-1.25,1.75-2.61,2.54-3.96,5.2-8.92,10.51-18.19,11.63-28.45.26-2.38.28-4.8-.23-7.14-.07-.3-.15-.6-.23-.89-1.59-5.66-6.06-9.99-9.84-12.24.37-10.69.77-21.54,3.77-31.79.12-.42.24-.83.37-1.25,0-.02.01-.03.02-.05,2.05-6.46,5.14-12.54,7.85-18.75,8.4-19.2,13.28-39.94,14.48-60.71.04-.71.09-1.42.12-2.14.08-12.73-.63-25.45-2.09-38.1Z"/>
      <path class="st1" d="M473.43,444.18c.48.71.92,1.43,1.38,2.15-.34-.71-.68-1.42-1.03-2.13-.12,0-.24-.01-.36-.02Z"/>
      <path class="st1" d="M476.68,449.4c3.65,6.23,6.64,12.85,8.88,19.71.34,1.03.65,2.07.96,3.11h2.27c1.66-4.56,1.71-9.81,4.06-14.11,1.38-2.52,3.47-4.56,5.35-6.74,2.86-3.32,5.27-7.03,7.15-10.98.43-.9.84-1.81,1.21-2.74-4.15,2.13-8.56,3.74-13.1,4.86-6.42,1.58-13.1,2.15-19.69,1.69.34.71.69,1.42,1.03,2.13.64,1.01,1.27,2.03,1.87,3.07Z"/>
    </g>
    <path class="st1" d="M365.14,219.92s-1.06-19.14,11.64-22.61,43.2-7.11,54.49,0,2.22,30.98-6.25,39.46c-7.76,7.77-16.92,20.49-38.43,17.08-5.76-.91-11.04-3.85-14.57-8.49-3.78-4.97-7.32-12.99-6.88-25.43Z"/>
    <path class="st1" d="M485.51,244.48c-22.08-7.26-28.58-24.8-30.09-28.77s-7.32-25.52,19.31-29c28.95-3.78,44.22-5.07,48.12,12.7,2.37,10.77,1.64,19.1,0,25.13-2.24,8.27-15.26,27.19-37.34,19.93Z"/>
    <path class="st1" d="M436.55,206.23s1.93-3.48,2.84-3.78,10.75-.6,10.75-.6l3.69,2.19"/>
    <polyline class="st1" points="412.17 193.22 414.01 190.95 473.26 185.51 474.72 186.72"/>
    <polygon class="st1" points="523.55 203.16 524.08 207.13 531.44 206.23 531.44 204.03 523.55 203.16"/>
    <polygon class="st1" points="365.11 216.66 353.95 217.97 353.95 219.92 365.11 221.19 365.11 216.66"/>
    <path class="st1" d="M353.95,217.97s-22.17-9.48-24.09-8.42.65,6.16.65,6.16"/>
    <path class="st1" d="M322.07,141.15s-6.91,9.98-4.99,14.39l2.7-4.8s-4.33,15.74-3.04,17.08,4.17-6.52,4.17-6.52c0,0-2.96,17.08-5.99,17.27l4.85-.96-2.89,9.59,2.89-2.82s-2.89,10.31-2.51,9.73,2.51-1.73,2.51-1.73l1.14,7.87,3.91-1.15-2.76,7.13,2.76-1.01,1.66,6.16"/>
    <path class="st1" d="M341.55,124.33s-13.77-14.16,6.41-34.82"/>
    <path class="st1" d="M380.74,106.92s-12.43-41.01,29.92-45.14"/>
    <path class="st1" d="M406.4,106.92s-7.67-41.6,22.12-41.6,34.07,25.67,48.16,19.03"/>
    <path class="st2" d="M331.47,271.94s-1.77-1.8-2.63-1.12-6.13,8.73-5.15,11.58,5.84,1.54,7.13.94,3.61-2.42,3.91-5.93.47-6.91-.73-6.76-2.52,1.27-2.52,1.27Z"/>
    <path class="st2" d="M535.85,261.53s1.76.55,3.03,0,2.3,8.67,2.3,8.67c0,0-1.33.66-4.56.46l-.77-9.13Z"/>
    <circle class="st3" cx="406.01" cy="220.19" r="5.65"/>
    <circle class="st3" cx="481.59" cy="215.24" r="5.65"/>
    <g>
      <path class="st1" d="M461.23,294.68c-12.23,1.86-22.7,1.7-33.72.83-.24.38-.49.76-.72,1.15-.27-.43-.55-.86-.84-1.28-1.72-.15-3.46-.3-5.22-.48-.22.86-.34,1.68-.37,2.49-1.01-.73-1.86-1.69-2.48-2.77-3.67-.37-7.47-.78-11.48-1.17,9.48,11.95,43.03,18.12,82.49-3.58-6.58-.17-18.94,3.37-25.43,4.47-.69.12-1.35.21-2.03.31-.18.34-.37.67-.55,1.01.17-.31.27-.64.35-.97Z"/>
      <path class="st1" d="M498.81,281.96c-.7-1.48-1.31-3.05-2.48-4.19-1.17-1.14-3.1-1.71-4.33-1.06-1.89-.93-3.78-1.86-5.67-2.79.73,1.21-1.16,2.47-2.54,2.16-1.38-.31-2.63-1.31-4.04-1.19-.88.07-1.73.58-2.59.38-1.53-.35-2.28-2.75-3.81-2.43-.98.2-1.37,1.43-2.26,1.9-1.12.58-2.41-.25-3.57-.76-1.77-.77-3.8-.76-5.7-.38-1.97.4-3.85,1.18-5.83,1.54-2.45.45-4.96.24-7.45.14-5.38-.21-10.71.55-13.31.81-2.62.27-5.24.53-7.85.8-1.57.16-3.18.33-4.58,1.05-.73.37-1.39.89-2.14,1.22-2.27,1.01-4.92.23-7.37.63-2.95.48-5.49,2.66-8.47,2.82-1.08.06-2.17-.15-3.24.02-3.54.57-5.05,4.68-6.27,8.05-3.4,9.39-9.72,17.7-17.86,23.49,8.02-2.56,15.35-7.25,21.04-13.46-.58,1.77-.64,3.7-.15,5.5,3.17-4.47,5.88-9.26,8.07-14.28.12.48.25.96.37,1.44,3.42-.25,6.8-1.06,9.96-2.4.11,1.28.51,2.52,1.15,3.64.62,1.08,1.46,2.04,2.48,2.77.03-.81.15-1.62.37-2.49,1.76.17,3.5.33,5.22.48.29.42.57.84.84,1.28.23-.39.47-.77.72-1.15,1.21-1.9,2.6-3.69,4.16-5.32l2.14,3.83c2.09-.66,4.03-1.82,5.59-3.37.95,1.15,2.8-.01,3.61-1.26.26-.4.57-.85,1.05-.87.85-.04,1.05,1.19,1.69,1.75.88.78,2.28,0,2.99-.93.71-.94,1.3-2.14,2.44-2.45.59-.16,1.21-.04,1.81.08,2.24.47,4.54,1.07,6.28,2.56,1.47,1.26,2.36,3.33,1.96,5.15-.07.33-.18.66-.35.97.18-.34.37-.67.55-1.01,1.25-2.28,2.5-4.56,3.75-6.83,2.49-.39,5.1,0,7.37,1.11,1.62.8,3.9,1.82,4.93.33.39-.56.48-1.39,1.1-1.66.56-.24,1.16.14,1.7.41,3.05,1.55,6.64-.08,10-.73.82-.16,1.69-.25,2.47.04.58.22,1.07.62,1.54,1.03,4.1,3.49,8.21,7.04,12.98,9.54s10.33,3.87,15.58,2.7c-10.33-1.98-19.54-9.12-24.02-18.63Z"/>
    </g>
    <path class="st1" d="M331.47,271.94s-1.77-1.8-2.63-1.12-6.13,8.73-5.15,11.58,5.84,1.54,7.13.94,3.61-2.42,3.91-5.93.47-6.91-.73-6.76-2.52,1.27-2.52,1.27Z"/>
    <path class="st1" d="M535.85,261.53s1.76.55,3.03,0,2.3,8.67,2.3,8.67c0,0-1.33.66-4.56.46l-.77-9.13Z"/>
    <path class="st1" d="M484.66,358.54c15.61-4.21,28.55-12.6,39.57-29.95"/>
    <path class="st1" d="M350.38,325.7s24.42,36.92,76.2,34.19"/>
  </g>
</svg>