<svg xmlns="http://www.w3.org/2000/svg" viewBox="0 0 841.88976 467.71654"><defs><style>.cls-1{fill:#df635c;}.cls-2{fill:#fff;}.cls-3{fill:#f9e0de;}.cls-4{fill:#f3bba2;}.cls-5,.cls-8,.cls-9{fill:#54575c;}.cls-10,.cls-5,.cls-6,.cls-7,.cls-8{stroke:#54575c;stroke-miterlimit:10;}.cls-5{stroke-width:0.733px;}.cls-10,.cls-6,.cls-7{fill:none;}.cls-6,.cls-8{stroke-width:0.7688px;}.cls-7{stroke-width:0.75571px;}.cls-10{stroke-width:0.75406px;}</style></defs><g id="Layer_3" data-name="Layer 3"><rect class="cls-1" x="1.59949" y="1.85808" width="841.88976" height="467.62195"/><path class="cls-2" d="M532.82565,370.145c-6.7774-3.98662-15.68925-3.56937-23.87048-1.67706,1.35914,2.71626,2.83175,5.51992,4.31483,8.26029,5.518,10.19608,11.12718,19.44586,11.12718,19.44586S541.25412,375.10294,532.82565,370.145Z"/><path class="cls-2" d="M687.02464,470.82881c-8.82451-15.1463-76.17047-32.3565-90.73773-36.72666a155.12414,155.12414,0,0,1-16.12076-5.90922l-15.93448,42.63588Z"/><path class="cls-2" d="M469.77886,470.82881l-7.85144-.03812H375.164c-1.255-6.27471-5.10616-14.23312-9.50781-21.83946a189.36054,189.36054,0,0,0-22.46111,21.87758Z"/><path class="cls-2" d="M564.23167,470.82881l15.93448-42.63588,2.23856-5.9898s-31.73063-46.10857-49.57906-52.05811c8.42847,4.95792-8.42847,26.02909-8.42847,26.02909-4.63438,3.92912-11.47981,16.98907-17.97363,31.10905-9.48458,20.62306-18.21923,43.50753-18.21923,43.50753h-26.2769l7.85144.03812Z"/><path class="cls-2" d="M282.94673,252.64247s-4.95785-67.42762-4.46211-76.84771a34.84032,34.84032,0,0,1,5.94948-16.85687c4.958-14.87376,44.62121-29.2517,56.02441-29.2517s13.38633-3.47055,30.739,0,28.26014-.49581,45.11708-.49581,21.319,5.20585,32.72225,14.62588,14.37794,23.30216,12.39482,27.26852c-1.98324,3.9663,1.48725,8.42847,8.42847,29.2517,6.941,20.82323,20.32742,44.12539,20.32742,44.12539l.49575-13.13845s7.66819-6.56777,16.08353-8.31532c.37-19.08288,1.18586-54.23338,2.26078-59.6081,1.48737-7.43685,3.96636-6.9411,1.48737-15.86532-2.479-8.92428,1.98324-5.45373,3.47048-8.42847,1.4875-2.97474-5.45373-10.90739-9.42-22.3106-3.96636-11.40321-18.34431-20.82323-27.76439-25.78115-9.42-4.95792-3.47049-13.38639-9.91572-20.32749-6.44535-6.941-14.87381-2.97473-23.798-9.91577-8.92434-6.9411-20.32755-7.93272-27.76427-7.43691-7.437.49581-13.8822-4.46211-23.30229-3.9663-3.31058.17424-7.13747,3.63324-10.41158,3.9663-6.04237.6147-11.59176-1.809-18.34431-1.48737-10.41158.49581-18.3443,34.70543-20.82329,27.26852-2.479-7.43684-10.90733-6.9411-10.90733-6.9411-24.29379-12.39476-28.756-10.90739-41.15072-7.43684S252.20773,106.384,252.20773,106.384c-19.83168,21.81486-6.44536,97.17513-2.97474,102.13305,3.47048,4.95792.99149-8.92422,1.48724-14.87376.49575-5.94947,3.47049,1.98318,9.91584,7.93266,6.44535,5.94954,7.43684,26.77277,9.91583,36.1928s3.47049,2.97474,7.437,8.42847c1.7047,2.34414,4.87468,8.26074,7.93575,14.24536C285.5874,254.07544,282.94673,252.64247,282.94673,252.64247Z"/><path class="cls-2" d="M515.473,223.39077a15.8764,15.8764,0,0,0-8.70613-.38267c-8.41534,1.74755-16.08353,8.31532-16.08353,8.31532l-.49575,13.13845,1.23811,12.99981,2.72813,28.64672s1.13575,10.88335,2.66275,24.0909c3.272.76659,7.01745,1.0428,9.73208-.5408,5.9496-3.47055,17.84855-51.5623,18.3443-55.52866S526.3803,227.35713,515.473,223.39077Z"/><path class="cls-2" d="M513.27,376.72825c-1.48308-2.74037-2.95569-5.544-4.31483-8.26029-2.729-5.45392-4.9894-10.53754-5.877-13.94038-1.67517-6.42119-4.29349-27.30531-6.26159-44.32828-1.527-13.20755-2.66275-24.0909-2.66275-24.0909l-2.72813-28.64672-1.23811-12.99981s-13.38644-23.30216-20.32742-44.12539c-6.94122-20.82323-10.41171-25.2854-8.42847-29.2517,1.98312-3.96636-.99162-17.8485-12.39482-27.26852s-15.86532-14.62588-32.72225-14.62588-27.7644,3.96636-45.11708.49581-19.3358,0-30.739,0-51.06643,14.37794-56.02441,29.2517a34.84032,34.84032,0,0,0-5.94948,16.85687c-.49574,9.42009,4.46211,76.84771,4.46211,76.84771s2.64067,1.433,2.9779,7.80007c.18931,3.5724-.3438,8.692-2.48215,15.9979-5.94948,20.32748,5.45373,63.46132,12.89058,79.32663,7.437,15.86532,26.27689,48.58757,52.05805,67.42762a269.84979,269.84979,0,0,1,17.26509,25.75654c4.40165,7.60634,8.25279,15.56475,9.50781,21.83946H488.20432s8.73465-22.88447,18.21923-43.50753c6.49382-14.12,13.33925-27.17993,17.97363-31.10905C524.39718,396.17411,518.788,386.92433,513.27,376.72825Z"/><path class="cls-3" d="M534.8293,367.04818c-6.77741-3.98662-15.68925-3.56937-23.87048-1.67706,1.35914,2.71626,2.83175,5.51992,4.31482,8.26029,5.518,10.19608,11.12719,19.44585,11.12719,19.44585S543.25777,372.00609,534.8293,367.04818Z"/><path class="cls-3" d="M689.02829,467.732c-8.82451-15.1463-76.17047-32.3565-90.73773-36.72666a155.12329,155.12329,0,0,1-16.12076-5.90922L566.23532,467.732Z"/><path class="cls-3" d="M471.78251,467.732l-7.85144-.03812H377.16765c-1.255-6.27471-5.10615-14.23312-9.5078-21.83946A189.35975,189.35975,0,0,0,345.19874,467.732Z"/><path class="cls-3" d="M566.23532,467.732l15.93448-42.63588,2.23856-5.9898s-31.73063-46.10857-49.57906-52.05811c8.42847,4.95791-8.42847,26.02908-8.42847,26.02908-4.63438,3.92913-11.47981,16.98908-17.97363,31.10906-9.48458,20.62306-18.21923,43.50753-18.21923,43.50753h-26.2769l7.85144.03812Z"/><path class="cls-4" d="M517.47662,220.29393a15.8764,15.8764,0,0,0-8.70613-.38267c-8.41534,1.74755-16.08353,8.31532-16.08353,8.31532l-.49575,13.13845,1.23811,12.99981,2.72813,28.64672s1.13575,10.88335,2.66275,24.0909c3.272.76659,7.01745,1.0428,9.73208-.5408,5.9496-3.47055,17.84855-51.5623,18.3443-55.52866S528.384,224.26029,517.47662,220.29393Z"/><path class="cls-4" d="M515.27364,373.63141c-1.48307-2.74037-2.95568-5.544-4.31482-8.26029-2.729-5.45392-4.98941-10.53755-5.877-13.94038-1.67517-6.42119-4.29349-27.30531-6.26159-44.32828-1.527-13.20755-2.66275-24.0909-2.66275-24.0909l-2.72813-28.64672L492.19121,241.365s-13.38645-23.30216-20.32742-44.12539c-6.94122-20.82323-10.41171-25.28541-8.42847-29.2517,1.98312-3.96636-.99162-17.8485-12.39482-27.26852s-15.86532-14.62588-32.72225-14.62588-27.7644,3.96636-45.11708.49581-19.3358,0-30.739,0-51.06643,14.37794-56.02441,29.2517a34.84032,34.84032,0,0,0-5.94948,16.85687c-.49574,9.42009,4.46211,76.84771,4.46211,76.84771s2.64066,1.433,2.97789,7.80007c.18932,3.5724-.34379,8.692-2.48214,15.9979-5.94948,20.32748,5.45373,63.46132,12.89057,79.32663,7.437,15.86532,26.2769,48.58757,52.058,67.42762a269.84881,269.84881,0,0,1,17.2651,25.75654c4.40165,7.60634,8.25278,15.56475,9.5078,21.83946H490.208s8.73465-22.88447,18.21923-43.50753c6.49382-14.12,13.33925-27.17993,17.97363-31.10906C526.40083,393.07726,520.79161,383.82749,515.27364,373.63141Z"/><path class="cls-5" d="M501.89538,225.96476c-.488-.474-1.34213-6.16176-1.34213-6.16176s-12.93291-5.68778-19.39941-6.51725c-6.46641-.82946-15.00712-1.30343-15.00712-1.30343-6.46641-4.73981-8.17462-2.96241-14.031-2.4884-5.85645.474-26.476,2.1329-26.476,2.1329-12.60324.862-30.19688,3.31427-40.72273,7.79156-11.17848,4.75493-14.91336,11.52317-14.91336,11.52317s-1.95218-.11852-10.98082.82946a70.93152,70.93152,0,0,0-17.69129,4.62129l-1.70825-.948c-21.07344-8.73858-45.92554.15445-66.61688,5.80628-3.90427,1.06644-17.44732,4.85832-17.44732,4.85832s.00218,4.35939-.12193,5.80625a13.51744,13.51744,0,0,0,1.342,6.04324,59.54057,59.54057,0,0,1,7.19858,1.65893c4.0263,1.185,8.17463,12.08652,8.17463,12.08652s4.75837,16.70782,18.42336,19.55171,30.50217-1.89591,30.50217-1.89591c17.69138-4.38435,18.42337-7.5837,20.6196-10.0721,2.271-2.57318,5.2464-18.48526,5.2464-18.48526l.854-13.03445s-.854-6.39874,7.44263-7.82069c8.29657-1.42194,10.98073,2.72538,10.98073,2.72538a123.82972,123.82972,0,0,0,6.58853,14.33794,82.02665,82.02665,0,0,0,8.41859,11.731c5.85645,7.34667,23.66977,6.28023,23.66977,6.28023,13.909-.3555,27.818-5.92477,27.818-5.92477,14.39715-5.21378,17.44732-15.99683,17.69137-16.82633s2.68417-19.90717,2.8062-22.51408,6.71056-6.39873,6.71056-6.39873,4.39229-.711,5.61239-.711.854-1.65893.854-1.65893,13.909,1.06645,19.03341,1.65893,7.19849,2.01439,7.19849,2.01439,7.56466,3.55489,8.41868,3.55489S502.38349,226.43872,501.89538,225.96476ZM338.1593,278.10263c-2.8062,4.02886-11.59087,7.46519-19.27748,9.3611-7.68651,1.896-22.2056,3.31791-30.13617,1.185-7.93057-2.13289-15.00712-19.31472-15.00712-19.31472s-5.73442-15.16736-2.31782-20.5002c2.81839-4.39787,46.552-13.34459,52.94017-13.07483a27.74683,27.74683,0,0,1,14.28644,4.78073s5.2444,10.70889,5.36843,15.28587C344.25971,264.83119,340.49572,274.74835,338.1593,278.10263Zm108.466-25.95044c-.122,2.13289-4.88031,12.79747-22.81566,17.41881-20.51055,5.28484-30.62419,3.08087-33.79647,1.89591-2.74246-1.02443-9.88275-7.5837-13.543-14.33793-3.66022-6.75424-3.66022-13.37726-3.66022-18.36675,0-5.4508,5.2464-10.30908,5.2464-10.30908,8.0526-6.51725,24.27982-9.47961,30.86825-10.90156s22.81566-1.89591,27.81809-1.54046a11.27528,11.27528,0,0,1,7.56449,3.43637s4.20761,6.162,4.27035,12.79748C448.69949,245.161,446.74731,250.01929,446.62528,252.15219Z"/><line class="cls-6" x1="347.80972" y1="251.04617" x2="345.05447" y2="293.40814"/><path class="cls-7" d="M335.19391,292.24316s-3.10614,7.84381-2.11217,10.9299,3.23038,8.22957,6.21228,7.458,4.1001-4.372,5.83954-4.11479,4.59709,4.50055,8.6972,6.30077,9.93965,1.15728,12.30031-.51435,8.32446-9.51544,13.79127-10.9299c3.0158-.7803,7.33049-1.67163,8.82143-.51435s3.97586,0,5.34257-2.57174c.49375-.9291,2.7334-4.62913,1.98793-13.373"/><path class="cls-6" d="M383.91023,371.62621s-9.77262,3.08609-13.63023,3.08609"/><line class="cls-6" x1="329.81131" y1="317.85432" x2="320.68163" y2="331.61313"/><path class="cls-6" d="M340.38243,417.0244s18.88826,16.94093,35.88374,17.22419c17.22419.28707,35.30959-4.88019,53.96914-19.52075"/><path class="cls-6" d="M494.57746,250.85788s7.17674-16.65,12.91814-19.52075,10.62159-2.00949,11.19573,4.88018,2.00949,13.49229,0,18.94662-3.44484,10.04744-3.15777,14.92763A30.97052,30.97052,0,0,1,505.199,294.4925"/><path class="cls-6" d="M498.41583,255.73807s-.57414,3.15777,1.72242,4.88019,8.89917,5.74139,7.75089,11.76986-9.76038,10.62159-8.89917,16.363"/><circle class="cls-8" cx="318.64493" cy="250.33052" r="7.85363"/><circle class="cls-8" cx="414.31844" cy="233.65933" r="7.85363"/><path class="cls-2" d="M331.86024,351.13316c-.28637-.162-1.881-2.679-1.55527-2.69446a49.28114,49.28114,0,0,0,11.14612-1.88612c4.08221-1.41446,7.78253-3.90083,10.6277-3.77225s14.91764-.82655,20.36058-2.62677,12.86513-5.915,19.91621-5.52924,21.77177-.12859,23.99843-.38576a22.78155,22.78155,0,0,0,2.52807-.42326c.36686-.08533,4.61747.78736,4.48007,1.1511-.60116,1.59141-4.30575,4.525-9.07243,8.62227-6.43257,5.52924-24.14215,13.21512-24.88437,13.4723s-15.60525,4.56662-23.646,5.081a56.46056,56.46056,0,0,1-19.05029-2.31456,53.44252,53.44252,0,0,1-7.5459-3.9862C337.24474,354.68664,334.71166,352.74641,331.86024,351.13316Z"/><path class="cls-6" d="M532.82565,370.145c-6.7774-3.98662-15.68925-3.56937-23.87048-1.67706,1.35914,2.71626,2.83175,5.51992,4.31483,8.26029,5.518,10.19608,11.12718,19.44586,11.12718,19.44586S541.25412,375.10294,532.82565,370.145Z"/><path class="cls-6" d="M687.02464,470.82881c-8.82451-15.1463-76.17047-32.3565-90.73773-36.72666a155.12414,155.12414,0,0,1-16.12076-5.90922l-15.93448,42.63588"/><path class="cls-6" d="M375.164,470.79069c-1.255-6.27471-5.10616-14.23312-9.50781-21.83946a189.36054,189.36054,0,0,0-22.46111,21.87758"/><path class="cls-6" d="M564.23167,470.82881l15.93448-42.63588,2.23856-5.9898s-31.73063-46.10857-49.57906-52.05811c8.42847,4.95792-8.42847,26.02909-8.42847,26.02909-4.63438,3.92912-11.47981,16.98907-17.97363,31.10905-9.48458,20.62306-18.21923,43.50753-18.21923,43.50753"/><path class="cls-9" d="M282.94673,252.64247s-4.95785-67.42762-4.46211-76.84771a34.84032,34.84032,0,0,1,5.94948-16.85687c4.958-14.87376,44.62121-29.2517,56.02441-29.2517s13.38633-3.47055,30.739,0,28.26014-.49581,45.11708-.49581,21.319,5.20585,32.72225,14.62588,14.37794,23.30216,12.39482,27.26852c-1.98324,3.9663,1.48725,8.42847,8.42847,29.2517,6.941,20.82323,20.32742,44.12539,20.32742,44.12539l.49575-13.13845s7.66819-6.56777,16.08353-8.31532c.37-19.08288,1.18586-54.23338,2.26078-59.6081,1.48737-7.43685,3.96636-6.9411,1.48737-15.86532-2.479-8.92428,1.98324-5.45373,3.47048-8.42847,1.4875-2.97474-5.45373-10.90739-9.42-22.3106-3.96636-11.40321-18.34431-20.82323-27.76439-25.78115-9.42-4.95792-3.47049-13.38639-9.91572-20.32749-6.44535-6.941-14.87381-2.97473-23.798-9.91577-8.92434-6.9411-20.32755-7.93272-27.76427-7.43691-7.437.49581-13.8822-4.46211-23.30229-3.9663-3.31058.17424-7.13747,3.63324-10.41158,3.9663-6.04237.6147-11.59176-1.809-18.34431-1.48737-10.41158.49581-18.3443,34.70543-20.82329,27.26852-2.479-7.43684-10.90733-6.9411-10.90733-6.9411-24.29379-12.39476-28.756-10.90739-41.15072-7.43684S252.20773,106.384,252.20773,106.384c-19.83168,21.81486-6.44536,97.17513-2.97474,102.13305,3.47048,4.95792.99149-8.92422,1.48724-14.87376.49575-5.94947,3.47049,1.98318,9.91584,7.93266,6.44535,5.94954,7.43684,26.77277,9.91583,36.1928s3.47049,2.97474,7.437,8.42847c1.7047,2.34414,4.87468,8.26074,7.93575,14.24536C285.5874,254.07544,282.94673,252.64247,282.94673,252.64247Z"/><path class="cls-6" d="M515.473,223.39077a15.8764,15.8764,0,0,0-8.70613-.38267c-8.41534,1.74755-16.08353,8.31532-16.08353,8.31532l-.49575,13.13845,1.23811,12.99981,2.72813,28.64672s1.13575,10.88335,2.66275,24.0909c3.272.76659,7.01745,1.0428,9.73208-.5408,5.9496-3.47055,17.84855-51.5623,18.3443-55.52866S526.3803,227.35713,515.473,223.39077Z"/><path class="cls-6" d="M488.20432,470.79069s8.73465-22.88447,18.21923-43.50753c6.49382-14.12,13.33925-27.17993,17.97363-31.10905,0,0-5.60921-9.24978-11.12718-19.44586-1.48308-2.74037-2.95569-5.544-4.31483-8.26029-2.729-5.45392-4.9894-10.53754-5.877-13.94038-1.67517-6.42119-4.29349-27.30531-6.26159-44.32828-1.527-13.20755-2.66275-24.0909-2.66275-24.0909l-2.72813-28.64672-1.23811-12.99981s-13.38644-23.30216-20.32742-44.12539c-6.94122-20.82323-10.41171-25.2854-8.42847-29.2517,1.98312-3.96636-.99162-17.8485-12.39482-27.26852s-15.86532-14.62588-32.72225-14.62588-27.7644,3.96636-45.11708.49581-19.3358,0-30.739,0-51.06643,14.37794-56.02441,29.2517a34.84032,34.84032,0,0,0-5.94948,16.85687c-.49574,9.42009,4.46211,76.84771,4.46211,76.84771s2.64067,1.433,2.9779,7.80007c.18931,3.5724-.3438,8.692-2.48215,15.9979-5.94948,20.32748,5.45373,63.46132,12.89058,79.32663,7.437,15.86532,26.27689,48.58757,52.05805,67.42762a269.84979,269.84979,0,0,1,17.26509,25.75654c4.40165,7.60634,8.25279,15.56475,9.50781,21.83946"/><path class="cls-10" d="M331.86024,351.13316c-.28637-.162-1.881-2.679-1.55527-2.69446a49.28114,49.28114,0,0,0,11.14612-1.88612c4.08221-1.41446,7.78253-3.90083,10.6277-3.77225s14.91764-.82655,20.36058-2.62677,12.86513-5.915,19.91621-5.52924,21.77177-.12859,23.99843-.38576a22.78155,22.78155,0,0,0,2.52807-.42326c.36686-.08533,4.61747.78736,4.48007,1.1511-.60116,1.59141-4.30575,4.525-9.07243,8.62227-6.43257,5.52924-24.14215,13.21512-24.88437,13.4723s-15.60525,4.56662-23.646,5.081a56.46056,56.46056,0,0,1-19.05029-2.31456,53.44252,53.44252,0,0,1-7.5459-3.9862C337.24474,354.68664,334.71166,352.74641,331.86024,351.13316Z"/></g></svg>