<?xml version="1.0" encoding="UTF-8"?>
<svg id="Layer_1" xmlns="http://www.w3.org/2000/svg" xmlns:xlink="http://www.w3.org/1999/xlink" version="1.1" viewBox="0 0 841.89 467.72">
  <!-- Generator: Adobe Illustrator 29.0.0, SVG Export Plug-In . SVG Version: 2.1.0 Build 186)  -->
  <defs>
    <style>
      .st0, .st1 {
        fill: none;
      }

      .st2 {
        fill: #f6d17d;
      }

      .st3 {
        fill: #55565a;
      }

      .st4 {
        fill: #63462c;
      }

      .st5 {
        fill: #4f351c;
      }

      .st6 {
        fill: #37383b;
      }

      .st7 {
        fill: #fff;
      }

      .st8 {
        fill: #fdd5c2;
      }

      .st9 {
        clip-path: url(#clippath);
      }

      .st1 {
        stroke: #55565a;
        stroke-miterlimit: 10;
      }
    </style>
    <clipPath id="clippath">
      <rect class="st0" width="841.89" height="467.72"/>
    </clipPath>
  </defs>
  <g class="st9">
    <rect class="st2" width="841.89" height="467.72"/>
    <g>
      <path class="st7" d="M525.51,243.06c3.15-14.53,5.73-28.77,1.87-43.13,1.4,5.53-2.35,8.48-8.74,4.83-2.1,11.23-4.03,20.9-5.95,30.58-2.22-2-4.45-4.01-6.67-6.01-.95,2.23-2.02,4.41-3.17,6.54-2.18,4.03-4.7,7.87-7.54,11.46-.81,6.47-1.08,12.96-.05,19.31.16.97.33,1.93.56,2.9.48,2.1,1.19,4.26,2.58,5.86.22.25.45.5.71.72,3.69,3.2,9.6,1.61,13.4-1.47,1.2-.98,2.29-2.07,3.28-3.25,3.1-3.67,5.27-8.16,7.21-12.61,2.67-6.12,5.09-12.39,6.95-18.8-1.59,1.16-3.12,2.2-4.43,3.06Z"/>
      <path class="st7" d="M523.86,287.53c-1-2-2.01-4-3.01-6-1.69-3.37-3.38-6.75-5.07-10.12-.99,1.17-2.07,2.27-3.28,3.25-3.79,3.08-9.47,4.38-13.4,1.47-1.57-1.16-3.03-4.47-3.25-4.72-1.13,2.81-2.7,6.53-3.88,9.32-1.86,4.37-.86,11.77-2.96,16.01.06,1.65.13,3.24.22,4.78,1.72,3.35,3.94,6.49,6.39,9.26.39.44.81.87,1.34,1.14,2.46,1.22,4.8-1.65,6.63-3.69,3.26-3.63,8.4-5.48,13.23-4.75,1.1.17,2.39.4,3.19-.38.53-.52.64-1.33.69-2.07.35-5.73-1.4-11.57-4.84-16.17,2.67.89,5.34,1.79,8.01,2.68Z"/>
      <path class="st7" d="M495.81,269.54c-.22-.96-.4-1.93-.56-2.9-1.04-6.36-.76-12.85.05-19.31-2.34,2.97-4.88,5.77-7.63,8.37,1.82-7.86,3.65-15.73,5.47-23.59-3.09,8.11-7.8,15.6-13.76,21.91,6.41-15.3,6.54-32.4,6.57-48.99-3.51,11.57-9.82,22.28-18.24,30.95,7.53-10.33,11.01-23.3,10.88-36.08-.14-12.78-3.75-25.37-9.33-36.87-15.24-7.11-31.45-12.31-45.58-21.33-14.13-9.02-26.1-22.26-30.9-38.32-22.16-1.84-44.75-20.31-61.69-34.71,0,0-14.03,2.73-21.05,7.19-7.02,4.45-12.35,11.15-16.72,18.23-12,19.45-17.51,42.22-20.71,64.85-3.2,22.63-3.42,24.39-7.45,46.89-.23,1.27-1.1,33.38-1.72,33.09-.49-.23-.86-.98-1.15-2.09.11,7.74.35,13.53.76,15.96,6.03,35.77,28.15,60.1,38.46,94.88.64,2.16,1.28,4.33,1.96,6.49,2.21,7,4.83,13.84,9.27,19.65,9.33,12.21,16.95,6.38,26.15,7.26.77.07,1.53.16,2.28.26,7.65.96,14.34,2.78,21.91,1.56.55-.09,1.09-.19,1.65-.31,26.6-5.82,52.68-15.26,75.34-30.36,2.42-1.61,4.79-3.29,7.12-5.03,11.57-8.64,21.97-18.87,30.26-30.68,3.96-5.63,7.4-11.57,10.51-17.7.35-.68.69-1.37,1.03-2.06,2.1-4.24,1.1-11.64,2.96-16.01,1.19-2.78,4.32-9.07,3.83-11.17Z"/>
      <path class="st7" d="M329.76,468.25c.95.87,1.94,1.68,2.98,2.44h38.23c1.48-2.61,2.29-5.69,3.34-8.55,1.5-4.08,3.61-7.87,6.06-11.47,2.63-3.86,5.65-7.5,8.73-11.02,8.19-9.39,16.9-18.3,25.61-27.2,13.88-14.2,27.77-28.39,41.65-42.59,9.72-9.94,19.45-19.88,29.67-29.31,2.51-2.32,5.2-4.85,5.81-8.21.27-1.46.11-2.97-.05-4.45-.96-8.64-2-16.48-2.55-26.39-.08-1.54-.16-3.13-.22-4.78-.34.69-.68,1.38-1.03,2.06-3.12,6.12-6.56,12.06-10.51,17.7-8.29,11.81-18.69,22.04-30.26,30.68-2.33,1.74-4.71,3.42-7.12,5.03-22.67,15.1-48.74,24.53-75.34,30.36-.56.12-1.1.22-1.65.31-7.57,1.23-14.26-.59-21.91-1.56.25,12.64-.15,25.31-.55,37.94-.13,3.99-.55,8.57-3.8,10.89-1.69,1.21-3.89,1.57-5.52,2.86-2.1,1.66-2.83,4.48-3.38,7.1-1.07,5.1-1.91,10.24-2.54,15.41-.28,2.28-.5,4.65.18,6.84.72,2.33,2.4,4.24,4.2,5.88Z"/>
      <path class="st7" d="M282.46,470.69c-3.07-11.38-2.88-23.64-1.05-35.37,2.3-14.73,7.01-28.95,10.54-43.43,1.35-5.53,2.54-11.13,3.94-16.65-8.76,3.03-23.32,8.63-26.4,10.28-5.07,2.72-10.15,5.44-14.8,8.82-7.71,5.61-14.02,12.87-20.27,20.07-14.94,17.21-30.33,35.34-38.45,56.28h86.49Z"/>
      <path class="st7" d="M332.74,470.69c-1.04-.76-2.03-1.57-2.98-2.44-1.8-1.65-3.47-3.56-4.2-5.88-.68-2.2-.45-4.56-.18-6.84.63-5.17,1.47-10.32,2.54-15.41.55-2.62,1.28-5.44,3.38-7.1,1.63-1.29,3.83-1.65,5.52-2.86,3.25-2.33,3.67-6.9,3.8-10.89.41-12.64.81-25.31.55-37.94-.75-.09-1.51-.18-2.28-.26-9.2-.88-16.82,4.94-26.15-7.26-4.44-5.81-7.07-12.65-9.27-19.65-.62,1.03-1.17,2.1-1.64,3.16-2.59,5.77-4.4,11.81-5.95,17.94-1.4,5.52-2.59,11.12-3.94,16.65-3.53,14.48-8.24,28.71-10.54,43.43-1.83,11.73-2.02,23.99,1.05,35.37h50.28Z"/>
      <path class="st7" d="M676.83,470.69c-3.07-2.46-6.21-4.86-9.33-7.24-11.2-8.55-25.21-19.85-37.02-29.52-2.98.81-6.36.1-9.43-.72-8.07-2.17-15.98-4.9-24.48-4.12-14.59-4.61-30.52-2.74-45.19,1.6-14.67,4.34-28.52,11.06-42.89,16.3-26.05,9.51-54.03,14.3-79.95,23.69h248.29Z"/>
      <path class="st7" d="M607.07,414.58s0,0,0,0c-1.28-1.08-1.18-.98,0,0Z"/>
      <path class="st7" d="M428.54,470.69c25.92-9.39,53.9-14.18,79.95-23.69,14.37-5.25,28.22-11.96,42.89-16.3,14.67-4.34,30.6-6.21,45.19-1.6,8.5-.78,16.42,1.95,24.48,4.12,3.07.82,6.45,1.53,9.43.72.72-.19,1.42-.48,2.08-.87,2.74-1.62,4.23-4.78,4.81-7.91.94-5.1-.74-11.26-5.5-13.32-2.09-.91-4.45-.9-6.64-1.5s-4.45-2.17-4.58-4.44c-.07-1.21.48-2.36,1.04-3.44,5.18-9.95,12.49-19.08,14.77-30.07.78-3.74.92-7.72-.4-11.31-1.31-3.59-4.27-6.72-8.01-7.51-6.26-1.33-12.39,3.91-18.74,3.08-.74-.1-1.53-.31-1.98-.9-.49-.64-.46-1.52-.42-2.32.28-6.06-.49-12.16-2.26-17.96-1.12-3.67-2.66-7.3-2.67-11.14-.01-3.6,1.32-7.04,2.48-10.44,1.99-5.8,3.54-11.75,4.64-17.78.41-2.27.74-4.72-.25-6.81-1.11-2.34-3.61-3.65-5.99-4.67-15.32-6.56-32.46-7.61-49.09-6.59-11.01.68-21.95,2.21-32.91,3.51,1,2,2.01,4,3.01,6-2.67-.89-5.34-1.79-8.01-2.68,3.44,4.6,5.19,10.44,4.84,16.17-.05.74-.15,1.55-.69,2.07-.8.78-2.09.54-3.19.38-4.83-.73-9.97,1.12-13.23,4.75-1.83,2.04-4.18,4.91-6.63,3.69-.53-.26-.95-.69-1.34-1.14-2.44-2.78-4.67-5.92-6.39-9.26.55,9.91,1.59,17.74,2.55,26.39.16,1.48.32,2.98.05,4.45-.62,3.36-3.3,5.9-5.81,8.21-10.22,9.43-19.95,19.37-29.67,29.31-13.88,14.2-27.77,28.39-41.65,42.59-8.71,8.9-17.42,17.82-25.61,27.2-3.07,3.52-6.09,7.16-8.73,11.02-2.45,3.59-4.56,7.38-6.06,11.47-1.05,2.86-1.86,5.94-3.34,8.55h57.57Z"/>
      <path class="st7" d="M607.07,414.58s0,0,0,0c-1.18-.98-1.28-1.08,0,0Z"/>
      <path class="st7" d="M554.61,201.65c-3.72.65-9.4-4.18-14.11-9.12-.53-2.41-.97-4.83-1.33-7.3,0-.02,0-.04,0-.06,7.35.86,14.17-2.73,14.17-2.73-5.52,1.29-11.19-1.6-15.02-4.29-.12-1.21-.25-2.4-.36-3.64-.42-4.75-.76-9.71-1.2-15.03,1.48-17.76-.66-35.8-6.24-52.72-2.44-7.4-5.53-14.58-8.61-21.74-4.28-9.94-9.09-20.51-15.51-23.87-24.84-17.92-54.03-29.74-84.34-34.15-2.2-.32-4.46-.62-6.43-1.65-1.76-.92-3.17-2.37-4.71-3.62-7.24-5.82-17.11-6.88-26.39-7.31-11.83-.55-23.9-.42-35.21,3.08-9.64,2.98-18.36,8.29-26.97,13.55l-43.27,26.43c-12.73,7.78-26.57,17.02-28.72,30.53-3,16.5-3.23,33.51-.69,50.09,2.88-3.61,4.76-8.02,5.35-12.6-.12,13.37-.24,26.8-2.23,40.02-1.1,7.3-2.78,14.58-2.68,21.96.07,5.09.97,23.08,1.88,28.09,1.04,5.76,8.56-16.12,9.6-10.36.6,3.32-1.07,24.67.72,31.59.29,1.11.66,1.86,1.15,2.09.62.3,1.49-31.82,1.72-33.09,4.04-22.5,4.25-24.26,7.45-46.89,3.2-22.63,8.71-45.39,20.71-64.85,4.37-7.08,9.7-13.78,16.72-18.23,7.02-4.45,21.05-7.19,21.05-7.19,16.94,14.4,39.53,32.87,61.69,34.71,4.8,16.06,16.77,29.3,30.9,38.32,14.13,9.02,30.35,14.22,45.58,21.33,5.58,11.5,9.19,24.09,9.33,36.87.14,12.78-3.35,25.76-10.88,36.08,8.42-8.67,14.73-19.38,18.24-30.95-.04,16.59-.17,33.69-6.57,48.99,5.96-6.31,10.67-13.8,13.76-21.91-1.82,7.86-3.65,15.73-5.47,23.59,2.74-2.6,5.29-5.41,7.63-8.37,2.84-3.59,5.36-7.43,7.54-11.46,1.15-2.13,2.22-4.31,3.17-6.54,2.22,2,4.45,4.01,6.67,6.01,1.93-9.68,3.85-19.35,5.95-30.58,6.4,3.65,10.15.7,8.74-4.83,3.86,14.35,1.28,28.6-1.87,43.13,1.31-.86,2.85-1.9,4.43-3.06,4.35-3.19,9.07-7.33,10.45-11.4,2.02-5.92,3.78-12.06,3.58-18.31-.08-2.68-.53-5.31-1.11-7.93,5.67.52,11.75-.71,11.75-.71Z"/>
    </g>
    <g>
      <path class="st6" d="M676.83,474.18c-3.07-2.46-6.21-4.86-9.33-7.24-11.2-8.55-25.21-19.85-37.02-29.52-2.98.81-6.36.1-9.43-.72-8.07-2.17-15.98-4.9-24.48-4.12-14.59-4.61-30.52-2.74-45.19,1.6-14.67,4.34-28.52,11.06-42.89,16.3-26.05,9.51-54.03,14.3-79.95,23.69h248.29Z"/>
      <path class="st6" d="M424.46,472.74c25.92-9.39,53.9-14.18,79.95-23.69,14.37-5.25,28.22-11.96,42.89-16.3,14.67-4.34,30.6-6.21,45.19-1.6,8.5-.78,16.42,1.95,24.48,4.12,3.07.82,6.45,1.53,9.43.72.72-.19,1.42-.48,2.08-.87,2.74-1.62,4.23-4.78,4.81-7.91.94-5.1-.74-11.26-5.5-13.32-2.09-.91-4.45-.9-6.64-1.5s-4.45-2.17-4.58-4.44c-.07-1.21.48-2.36,1.04-3.44,5.18-9.95,12.49-19.08,14.77-30.07.78-3.74.92-7.72-.4-11.31-1.31-3.59-4.27-6.72-8.01-7.51-6.26-1.33-12.39,3.91-18.74,3.08-.74-.1-1.53-.31-1.98-.9-.49-.64-.46-1.52-.42-2.32.28-6.06-.49-12.16-2.26-17.96-1.12-3.67-2.66-7.3-2.67-11.14-.01-3.6,1.32-7.04,2.48-10.44,1.99-5.8,3.54-11.75,4.64-17.78.41-2.27.74-4.72-.25-6.81-1.11-2.34-3.61-3.65-5.99-4.67-15.32-6.56-32.46-7.61-49.09-6.59-11.01.68-21.95,2.21-32.91,3.51,1,2,2.01,4,3.01,6-2.67-.89-5.34-1.79-8.01-2.68,3.44,4.6,5.19,10.44,4.84,16.17-.05.74-.15,1.55-.69,2.07-.8.78-2.09.54-3.19.38-4.83-.73-9.97,1.12-13.23,4.75-1.83,2.04-4.18,4.91-6.63,3.69-.53-.26-.95-.69-1.34-1.14-2.44-2.78-4.67-5.92-6.39-9.26.55,9.91,1.59,17.74,2.55,26.39.16,1.48.32,2.98.05,4.45-.62,3.36-3.3,5.9-5.81,8.21-10.22,9.43-19.95,19.37-29.67,29.31-13.88,14.2-27.77,28.39-41.65,42.59-8.71,8.9-17.42,17.82-25.61,27.2-3.07,3.52-6.09,7.16-8.73,11.02-2.45,3.59-4.56,7.38-6.06,11.47-1.05,2.86-1.86,5.94-3.34,8.55h57.57Z"/>
      <path class="st6" d="M336.48,471.06c-1.04-.76-2.03-1.57-2.98-2.44-1.8-1.65-3.47-3.56-4.2-5.88-.68-2.2-.45-4.56-.18-6.84.63-5.17,1.47-10.32,2.54-15.41.55-2.62,1.28-5.44,3.38-7.1,1.63-1.29,3.83-1.65,5.52-2.86,3.25-2.33,3.67-6.9,3.8-10.89.41-12.64.81-25.31.55-37.94-.75-.09-1.51-.18-2.28-.26-9.2-.88-16.82,4.94-26.15-7.26-4.44-5.81-7.07-12.65-9.27-19.65-.62,1.03-1.17,2.1-1.64,3.16-2.59,5.77-4.4,11.81-5.95,17.94-1.4,5.52-2.59,11.12-3.94,16.65-3.53,14.48-8.24,28.71-10.54,43.43-1.83,11.73-2.02,23.99,1.05,35.37h50.28Z"/>
      <path class="st8" d="M500.17,269.54c-.22-.96-.4-1.93-.56-2.9-1.04-6.36-.76-12.85.05-19.31-2.34,2.97-4.88,5.77-7.63,8.37,1.82-7.86,3.65-15.73,5.47-23.59-3.09,8.11-7.8,15.6-13.76,21.91,6.41-15.3,6.54-32.4,6.57-48.99-3.51,11.57-9.82,22.28-18.24,30.95,7.53-10.33,11.01-23.3,10.88-36.08-.14-12.78-3.75-25.37-9.33-36.87-15.24-7.11-31.45-12.31-45.58-21.33-14.13-9.02-26.1-22.26-30.9-38.32-22.16-1.84-44.75-20.31-61.69-34.71,0,0-14.03,2.73-21.05,7.19-7.02,4.45-12.35,11.15-16.72,18.23-12,19.45-17.51,42.22-20.71,64.85-3.2,22.63-3.42,24.39-7.45,46.89-.23,1.27-1.1,33.38-1.72,33.09-.49-.23-.86-.98-1.15-2.09.11,7.74.35,13.53.76,15.96,6.03,35.77,28.15,60.1,38.46,94.88.64,2.16,1.28,4.33,1.96,6.49,2.21,7,4.83,13.84,9.27,19.65,9.33,12.21,16.95,6.38,26.15,7.26.77.07,1.53.16,2.28.26,7.65.96,14.34,2.78,21.91,1.56.55-.09,1.09-.19,1.65-.31,26.6-5.82,52.68-15.26,75.34-30.36,2.42-1.61,4.79-3.29,7.12-5.03,11.57-8.64,21.97-18.87,30.26-30.68,3.96-5.63,7.4-11.57,10.51-17.7.35-.68.69-1.37,1.03-2.06,2.1-4.24,1.1-11.64,2.96-16.01,1.19-2.78,4.32-9.07,3.83-11.17Z"/>
      <path class="st8" d="M526.86,243.06c3.15-14.53,5.73-28.77,1.87-43.13,1.4,5.53-2.35,8.48-8.74,4.83-2.1,11.23-4.03,20.9-5.95,30.58-2.22-2-4.45-4.01-6.67-6.01-.95,2.23-2.02,4.41-3.17,6.54-2.18,4.03-4.7,7.87-7.54,11.46-.81,6.47-1.08,12.96-.05,19.31.16.97.33,1.93.56,2.9.48,2.1,1.19,4.26,2.58,5.86.22.25.45.5.71.72,3.69,3.2,9.6,1.61,13.4-1.47,1.2-.98,2.29-2.07,3.28-3.25,3.1-3.67,5.27-8.16,7.21-12.61,2.67-6.12,5.09-12.39,6.95-18.8-1.59,1.16-3.12,2.2-4.43,3.06Z"/>
      <path class="st5" d="M525.22,287.53c-1-2-2.01-4-3.01-6-1.69-3.37-3.38-6.75-5.07-10.12-.99,1.17-2.07,2.27-3.28,3.25-3.79,3.08-9.47,4.38-13.4,1.47-1.57-1.16-3.03-4.47-3.25-4.72-1.13,2.81-2.7,6.53-3.88,9.32-1.86,4.37-.86,11.77-2.96,16.01.06,1.65.13,3.24.22,4.78,1.72,3.35,3.94,6.49,6.39,9.26.39.44.81.87,1.34,1.14,2.46,1.22,4.8-1.65,6.63-3.69,3.26-3.63,8.4-5.48,13.23-4.75,1.1.17,2.39.4,3.19-.38.53-.52.64-1.33.69-2.07.35-5.73-1.4-11.57-4.84-16.17,2.67.89,5.34,1.79,8.01,2.68Z"/>
      <path class="st8" d="M331.11,468.25c.95.87,1.94,1.68,2.98,2.44h38.23c1.48-2.61,2.29-5.69,3.34-8.55,1.5-4.08,3.61-7.87,6.06-11.47,2.63-3.86,5.65-7.5,8.73-11.02,8.19-9.39,16.9-18.3,25.61-27.2,13.88-14.2,27.77-28.39,41.65-42.59,9.72-9.94,19.45-19.88,29.67-29.31,2.51-2.32,5.2-4.85,5.81-8.21.27-1.46.11-2.97-.05-4.45-.96-8.64-2-16.48-2.55-26.39-.08-1.54-.16-3.13-.22-4.78-.34.69-.68,1.38-1.03,2.06-3.12,6.12-6.56,12.06-10.51,17.7-8.29,11.81-18.69,22.04-30.26,30.68-2.33,1.74-4.71,3.42-7.12,5.03-22.67,15.1-48.74,24.53-75.34,30.36-.56.12-1.1.22-1.65.31-7.57,1.23-14.26-.59-21.91-1.56.25,12.64-.15,25.31-.55,37.94-.13,3.99-.55,8.57-3.8,10.89-1.69,1.21-3.89,1.57-5.52,2.86-2.1,1.66-2.83,4.48-3.38,7.1-1.07,5.1-1.91,10.24-2.54,15.41-.28,2.28-.5,4.65.18,6.84.72,2.33,2.4,4.24,4.2,5.88Z"/>
      <path class="st6" d="M283.81,471.69c-3.07-11.38-2.88-23.64-1.05-35.37,2.3-14.73,7.01-28.95,10.54-43.43,1.35-5.53,2.54-11.13,3.94-16.65-8.76,3.03-23.32,8.63-26.4,10.28-5.07,2.72-10.15,5.44-14.8,8.82-7.71,5.61-14.02,12.87-20.27,20.07-14.94,17.21-30.33,35.34-38.45,56.28h86.49Z"/>
      <path class="st6" d="M608.42,414.58s0,0,0,0c-1.28-1.08-1.18-.98,0,0Z"/>
      <path class="st6" d="M608.42,414.58s0,0,0,0c-1.18-.98-1.28-1.08,0,0Z"/>
      <path class="st4" d="M555.97,201.65c-3.72.65-9.4-4.18-14.11-9.12-.53-2.41-.97-4.83-1.33-7.3,0-.02,0-.04,0-.06,7.35.86,14.17-2.73,14.17-2.73-5.52,1.29-11.19-1.6-15.02-4.29-.12-1.21-.25-2.4-.36-3.64-.42-4.75-.76-9.71-1.2-15.03,1.48-17.76-.66-35.8-6.24-52.72-2.44-7.4-5.53-14.58-8.61-21.74-4.28-9.94-9.09-20.51-15.51-23.87-24.84-17.92-54.03-29.74-84.34-34.15-2.2-.32-4.46-.62-6.43-1.65-1.76-.92-3.17-2.37-4.71-3.62-7.24-5.82-17.11-6.88-26.39-7.31-11.83-.55-23.9-.42-35.21,3.08-9.64,2.98-18.36,8.29-26.97,13.55l-43.27,26.43c-12.73,7.78-26.57,17.02-28.72,30.53-3,16.5-3.23,33.51-.69,50.09,2.88-3.61,4.76-8.02,5.35-12.6-.12,13.37-.24,26.8-2.23,40.02-1.1,7.3-2.78,14.58-2.68,21.96.07,5.09.97,23.08,1.88,28.09,1.04,5.76,8.56-16.12,9.6-10.36.6,3.32-1.07,24.67.72,31.59.29,1.11.66,1.86,1.15,2.09.62.3,1.49-31.82,1.72-33.09,4.04-22.5,4.25-24.26,7.45-46.89,3.2-22.63,8.71-45.39,20.71-64.85,4.37-7.08,9.7-13.78,16.72-18.23,7.02-4.45,21.05-7.19,21.05-7.19,16.94,14.4,39.53,32.87,61.69,34.71,4.8,16.06,16.77,29.3,30.9,38.32,14.13,9.02,30.35,14.22,45.58,21.33,5.58,11.5,9.19,24.09,9.33,36.87.14,12.78-3.35,25.76-10.88,36.08,8.42-8.67,14.73-19.38,18.24-30.95-.04,16.59-.17,33.69-6.57,48.99,5.96-6.31,10.67-13.8,13.76-21.91-1.82,7.86-3.65,15.73-5.47,23.59,2.74-2.6,5.29-5.41,7.63-8.37,2.84-3.59,5.36-7.43,7.54-11.46,1.15-2.13,2.22-4.31,3.17-6.54,2.22,2,4.45,4.01,6.67,6.01,1.93-9.68,3.85-19.35,5.95-30.58,6.4,3.65,10.15.7,8.74-4.83,3.86,14.35,1.28,28.6-1.87,43.13,1.31-.86,2.85-1.9,4.43-3.06,4.35-3.19,9.07-7.33,10.45-11.4,2.02-5.92,3.78-12.06,3.58-18.31-.08-2.68-.53-5.31-1.11-7.93,5.67.52,11.75-.71,11.75-.71Z"/>
    </g>
    <path class="st1" d="M327.06,263.64c-7.36-4.57-15-9.42-19.41-16.87-.56-.94-1.48-2.08-2.49-1.66.4,1.26.92,2.48,1.54,3.65"/>
    <path class="st1" d="M301.89,244.72c.27-2.31.76-4.59,1.44-6.81.2-.65.42-1.3.83-1.84.6-.78,1.52-1.23,2.4-1.68,3.45-1.76,6.78-3.98,9.06-7.11.65-.89,2.26-6.54,2.26-6.54,4.42-12.74,8.9-25.77,9.05-39.26.03-2.41-.26-5.17-2.22-6.59"/>
    <path class="st1" d="M353.79,250.05c-6.5,4.19-13.21,8.48-20.81,9.89-.37.07-.76.13-1.1-.02-.48-.21-.71-.77-.77-1.29-.16-1.51.78-2.96,2.01-3.84s2.73-1.29,4.2-1.69c6.27-1.7,12.53-3.4,18.8-5.1.95-.26,1.94-.52,2.91-.37,1.73.25,3.01,1.69,4.12,3.03"/>
    <path class="st1" d="M361.16,253.15c1.59-.45,3.27-.42,4.91-.6s3.35-.61,4.54-1.76c.82-.8,1.31-1.87,1.71-2.94.99-2.64,1.54-5.63.46-8.23-1.11-2.65-3.66-4.35-6.08-5.9"/>
    <path class="st1" d="M417.76,290.63c1.2-4.43,3.71-5.01,1.34-8.94-2.07-3.42-8.2-13.59-12.13-14.35"/>
    <path class="st7" d="M378.1,288.61c-6.66-.04-13.32-.08-19.97.31-9.37.55-18.7,1.94-28.08,2.01-8.43.06-16.84-.94-25.26-1.21,2.69,4.44,4.78,9.36,8.83,12.53,4.84,3.79,12.87,6.44,19.01,6.48,17.05.14,24.09.49,40.74-3.22,9.33-2.08,26.24-8.83,33.6-16.75-9.62-.05-19.24-.11-28.87-.16Z"/>
    <path class="st1" d="M504.95,240.89c-.38,3.39-.75,6.77-1.13,10.16,2.17.26,4.54.47,6.36-.74,1.63-1.09,2.39-3.07,3.19-4.86,1.11-2.48,2.48-4.84,4.09-7.02,1.03-1.39,2.27-2.79,3.95-3.18.93-.21,1.93-.1,2.82-.45,1.68-.66,2.33-2.67,2.63-4.45.39-2.26.56-4.56.51-6.86-.05-2.34-.39-4.85-1.94-6.6-1.62-1.83-4.18-2.45-6.58-2.96"/>
    <path class="st1" d="M399.54,93.45c3.37,13.08,9.47,25.67,18.97,35.27,9.5,9.61,22.59,16,36.09,15.95,13.51-.06,27.15-7.13,33.67-18.96"/>
    <path class="st1" d="M466.77,149.26c12.22,2.71,24.8,3.73,37.3,3.04,6.67-.37,13.76-1.42,18.75-5.86,4.21-3.75,6.3-10.12,4.07-15.3"/>
    <path class="st1" d="M319.41,62.77c-8.82.24-17.64.93-26.39,2.06-4.48.58-9.45,1.58-12.02,5.29-3.94,5.69-.27,15.03-5.56,19.5-3.53,2.97-9.65,2.2-12.15,6.08-1.07,1.66-1.13,3.75-1.06,5.72.19,5.33,1.14,10.63,2.81,15.69"/>
    <g>
      <path class="st1" d="M525.51,243.43c3.15-14.53,5.73-28.77,1.87-43.13,1.4,5.53-2.35,8.48-8.74,4.83-2.1,11.23-4.03,20.9-5.95,30.58-2.22-2-4.45-4.01-6.67-6.01-.95,2.23-2.02,4.41-3.17,6.54-2.18,4.03-4.7,7.87-7.54,11.46-.81,6.47-1.08,12.96-.05,19.31.16.97.33,1.93.56,2.9.48,2.1,1.19,4.26,2.58,5.86.22.25.45.5.71.72,3.69,3.2,9.6,1.61,13.4-1.47,1.2-.98,2.29-2.07,3.28-3.25,3.1-3.67,5.27-8.16,7.21-12.61,2.67-6.12,5.09-12.39,6.95-18.8-1.59,1.16-3.12,2.2-4.43,3.06Z"/>
      <path class="st1" d="M523.86,287.9c-1-2-2.01-4-3.01-6-1.69-3.37-3.38-6.75-5.07-10.12-.99,1.17-2.07,2.27-3.28,3.25-3.79,3.08-9.47,4.38-13.4,1.47-1.57-1.16-3.03-4.47-3.25-4.72-1.13,2.81-2.7,6.53-3.88,9.32-1.86,4.37-.86,11.77-2.96,16.01.06,1.65.13,3.24.22,4.78,1.72,3.35,3.94,6.49,6.39,9.26.39.44.81.87,1.34,1.14,2.46,1.22,4.8-1.65,6.63-3.69,3.26-3.63,8.4-5.48,13.23-4.75,1.1.17,2.39.4,3.19-.38.53-.52.64-1.33.69-2.07.35-5.73-1.4-11.57-4.84-16.17,2.67.89,5.34,1.79,8.01,2.68Z"/>
      <path class="st1" d="M495.81,269.92c-.22-.96-.4-1.93-.56-2.9-1.04-6.36-.76-12.85.05-19.31-2.34,2.97-4.88,5.77-7.63,8.37,1.82-7.86,3.65-15.73,5.47-23.59-3.09,8.11-7.8,15.6-13.76,21.91,6.41-15.3,6.54-32.4,6.57-48.99-3.51,11.57-9.82,22.28-18.24,30.95,7.53-10.33,11.01-23.3,10.88-36.08-.14-12.78-3.75-25.37-9.33-36.87-15.24-7.11-31.45-12.31-45.58-21.33-14.13-9.02-26.1-22.26-30.9-38.32-22.16-1.84-44.75-20.31-61.69-34.71,0,0-14.03,2.73-21.05,7.19-7.02,4.45-12.35,11.15-16.72,18.23-12,19.45-17.51,42.22-20.71,64.85-3.2,22.63-3.42,24.39-7.45,46.89-.23,1.27-1.1,33.38-1.72,33.09-.49-.23-.86-.98-1.15-2.09.11,7.74.35,13.53.76,15.96,6.03,35.77,28.15,60.1,38.46,94.88.64,2.16,1.28,4.33,1.96,6.49,2.21,7,4.83,13.84,9.27,19.65,9.33,12.21,16.95,6.38,26.15,7.26.77.07,1.53.16,2.28.26,7.65.96,14.34,2.78,21.91,1.56.55-.09,1.09-.19,1.65-.31,26.6-5.82,52.68-15.26,75.34-30.36,2.42-1.61,4.79-3.29,7.12-5.03,11.57-8.64,21.97-18.87,30.26-30.68,3.96-5.63,7.4-11.57,10.51-17.7.35-.68.69-1.37,1.03-2.06,2.1-4.24,1.1-11.64,2.96-16.01,1.19-2.78,4.32-9.07,3.83-11.17Z"/>
      <path class="st1" d="M329.76,468.63c.95.87,1.94,1.68,2.98,2.44h38.23c1.48-2.61,2.29-5.69,3.34-8.55,1.5-4.08,3.61-7.87,6.06-11.47,2.63-3.86,5.65-7.5,8.73-11.02,8.19-9.39,16.9-18.3,25.61-27.2,13.88-14.2,27.77-28.39,41.65-42.59,9.72-9.94,19.45-19.88,29.67-29.31,2.51-2.32,5.2-4.85,5.81-8.21.27-1.46.11-2.97-.05-4.45-.96-8.64-2-16.48-2.55-26.39-.08-1.54-.16-3.13-.22-4.78-.34.69-.68,1.38-1.03,2.06-3.12,6.12-6.56,12.06-10.51,17.7-8.29,11.81-18.69,22.04-30.26,30.68-2.33,1.74-4.71,3.42-7.12,5.03-22.67,15.1-48.74,24.53-75.34,30.36-.56.12-1.1.22-1.65.31-7.57,1.23-14.26-.59-21.91-1.56.25,12.64-.15,25.31-.55,37.94-.13,3.99-.55,8.57-3.8,10.89-1.69,1.21-3.89,1.57-5.52,2.86-2.1,1.66-2.83,4.48-3.38,7.1-1.07,5.1-1.91,10.24-2.54,15.41-.28,2.28-.5,4.65.18,6.84.72,2.33,2.4,4.24,4.2,5.88Z"/>
      <path class="st1" d="M282.46,471.06c-3.07-11.38-2.88-23.64-1.05-35.37,2.3-14.73,7.01-28.95,10.54-43.43,1.35-5.53,2.54-11.13,3.94-16.65-8.76,3.03-23.32,8.63-26.4,10.28-5.07,2.72-10.15,5.44-14.8,8.82-7.71,5.61-14.02,12.87-20.27,20.07-14.94,17.21-30.33,35.34-38.45,56.28h86.49Z"/>
      <path class="st1" d="M332.74,471.06c-1.04-.76-2.03-1.57-2.98-2.44-1.8-1.65-3.47-3.56-4.2-5.88-.68-2.2-.45-4.56-.18-6.84.63-5.17,1.47-10.32,2.54-15.41.55-2.62,1.28-5.44,3.38-7.1,1.63-1.29,3.83-1.65,5.52-2.86,3.25-2.33,3.67-6.9,3.8-10.89.41-12.64.81-25.31.55-37.94-.75-.09-1.51-.18-2.28-.26-9.2-.88-16.82,4.94-26.15-7.26-4.44-5.81-7.07-12.65-9.27-19.65-.62,1.03-1.17,2.1-1.64,3.16-2.59,5.77-4.4,11.81-5.95,17.94-1.4,5.52-2.59,11.12-3.94,16.65-3.53,14.48-8.24,28.71-10.54,43.43-1.83,11.73-2.02,23.99,1.05,35.37h50.28Z"/>
      <path class="st1" d="M676.83,471.06c-3.07-2.46-6.21-4.86-9.33-7.24-11.2-8.55-25.21-19.85-37.02-29.52-2.98.81-6.36.1-9.43-.72-8.07-2.17-15.98-4.9-24.48-4.12-14.59-4.61-30.52-2.74-45.19,1.6-14.67,4.34-28.52,11.06-42.89,16.3-26.05,9.51-54.03,14.3-79.95,23.69h248.29Z"/>
      <path class="st1" d="M607.07,414.96s0,0,0,0c-1.28-1.08-1.18-.98,0,0Z"/>
      <path class="st1" d="M428.54,471.06c25.92-9.39,53.9-14.18,79.95-23.69,14.37-5.25,28.22-11.96,42.89-16.3,14.67-4.34,30.6-6.21,45.19-1.6,8.5-.78,16.42,1.95,24.48,4.12,3.07.82,6.45,1.53,9.43.72.72-.19,1.42-.48,2.08-.87,2.74-1.62,4.23-4.78,4.81-7.91.94-5.1-.74-11.26-5.5-13.32-2.09-.91-4.45-.9-6.64-1.5s-4.45-2.17-4.58-4.44c-.07-1.21.48-2.36,1.04-3.44,5.18-9.95,12.49-19.08,14.77-30.07.78-3.74.92-7.72-.4-11.31-1.31-3.59-4.27-6.72-8.01-7.51-6.26-1.33-12.39,3.91-18.74,3.08-.74-.1-1.53-.31-1.98-.9-.49-.64-.46-1.52-.42-2.32.28-6.06-.49-12.16-2.26-17.96-1.12-3.67-2.66-7.3-2.67-11.14-.01-3.6,1.32-7.04,2.48-10.44,1.99-5.8,3.54-11.75,4.64-17.78.41-2.27.74-4.72-.25-6.81-1.11-2.34-3.61-3.65-5.99-4.67-15.32-6.56-32.46-7.61-49.09-6.59-11.01.68-21.95,2.21-32.91,3.51,1,2,2.01,4,3.01,6-2.67-.89-5.34-1.79-8.01-2.68,3.44,4.6,5.19,10.44,4.84,16.17-.05.74-.15,1.55-.69,2.07-.8.78-2.09.54-3.19.38-4.83-.73-9.97,1.12-13.23,4.75-1.83,2.04-4.18,4.91-6.63,3.69-.53-.26-.95-.69-1.34-1.14-2.44-2.78-4.67-5.92-6.39-9.26.55,9.91,1.59,17.74,2.55,26.39.16,1.48.32,2.98.05,4.45-.62,3.36-3.3,5.9-5.81,8.21-10.22,9.43-19.95,19.37-29.67,29.31-13.88,14.2-27.77,28.39-41.65,42.59-8.71,8.9-17.42,17.82-25.61,27.2-3.07,3.52-6.09,7.16-8.73,11.02-2.45,3.59-4.56,7.38-6.06,11.47-1.05,2.86-1.86,5.94-3.34,8.55h57.57Z"/>
      <path class="st1" d="M607.07,414.96s0,0,0,0c-1.18-.98-1.28-1.08,0,0Z"/>
      <path class="st1" d="M554.61,202.03c-3.72.65-9.4-4.18-14.11-9.12-.53-2.41-.97-4.83-1.33-7.3,0-.02,0-.04,0-.06,7.35.86,14.17-2.73,14.17-2.73-5.52,1.29-11.19-1.6-15.02-4.29-.12-1.21-.25-2.4-.36-3.64-.42-4.75-.76-9.71-1.2-15.03,1.48-17.76-.66-35.8-6.24-52.72-2.44-7.4-5.53-14.58-8.61-21.74-4.28-9.94-9.09-20.51-15.51-23.87-24.84-17.92-54.03-29.74-84.34-34.15-2.2-.32-4.46-.62-6.43-1.65-1.76-.92-3.17-2.37-4.71-3.62-7.24-5.82-17.11-6.88-26.39-7.31-11.83-.55-23.9-.42-35.21,3.08-9.64,2.98-18.36,8.29-26.97,13.55l-43.27,26.43c-12.73,7.78-26.57,17.02-28.72,30.53-3,16.5-3.23,33.51-.69,50.09,2.88-3.61,4.76-8.02,5.35-12.6-.12,13.37-.24,26.8-2.23,40.02-1.1,7.3-2.78,14.58-2.68,21.96.07,5.09.97,23.08,1.88,28.09,1.04,5.76,8.56-16.12,9.6-10.36.6,3.32-1.07,24.67.72,31.59.29,1.11.66,1.86,1.15,2.09.62.3,1.49-31.82,1.72-33.09,4.04-22.5,4.25-24.26,7.45-46.89,3.2-22.63,8.71-45.39,20.71-64.85,4.37-7.08,9.7-13.78,16.72-18.23,7.02-4.45,21.05-7.19,21.05-7.19,16.94,14.4,39.53,32.87,61.69,34.71,4.8,16.06,16.77,29.3,30.9,38.32,14.13,9.02,30.35,14.22,45.58,21.33,5.58,11.5,9.19,24.09,9.33,36.87.14,12.78-3.35,25.76-10.88,36.08,8.42-8.67,14.73-19.38,18.24-30.95-.04,16.59-.17,33.69-6.57,48.99,5.96-6.31,10.67-13.8,13.76-21.91-1.82,7.86-3.65,15.73-5.47,23.59,2.74-2.6,5.29-5.41,7.63-8.37,2.84-3.59,5.36-7.43,7.54-11.46,1.15-2.13,2.22-4.31,3.17-6.54,2.22,2,4.45,4.01,6.67,6.01,1.93-9.68,3.85-19.35,5.95-30.58,6.4,3.65,10.15.7,8.74-4.83,3.86,14.35,1.28,28.6-1.87,43.13,1.31-.86,2.85-1.9,4.43-3.06,4.35-3.19,9.07-7.33,10.45-11.4,2.02-5.92,3.78-12.06,3.58-18.31-.08-2.68-.53-5.31-1.11-7.93,5.67.52,11.75-.71,11.75-.71Z"/>
    </g>
    <path class="st1" d="M491.83,332.71s118.42-42.7,103.57-46.65c-36.6-9.72-72.57-.2-72.57-.2"/>
    <path class="st1" d="M601.97,324.69s-91.24,29.19-67.55,35.27,79.23,13.62,85.02,32.19"/>
    <path class="st1" d="M603.65,383.65s14.49,11.29,18.03,19.17"/>
    <path class="st1" d="M296.27,289.76c11.26-.56,22.5,1.26,33.77,1.17,9.39-.07,18.71-1.47,28.08-2.01,6.65-.39,13.31-.35,19.97-.31,11.76.07,23.51.13,35.27.2"/>
    <path class="st1" d="M420.09,321.85s21.62-25.35,23.81-37.81"/>
    <circle class="st3" cx="307.05" cy="190.14" r="9.06"/>
    <circle class="st3" cx="402.62" cy="187.75" r="9.06"/>
    <path class="st1" d="M378.1,288.61c-6.66-.04-13.32-.08-19.97.31-9.37.55-18.7,1.94-28.08,2.01-8.43.06-16.84-.94-25.26-1.21,2.69,4.44,4.78,9.36,8.83,12.53,4.84,3.79,12.87,6.44,19.01,6.48,17.05.14,24.09.49,40.74-3.22,9.33-2.08,26.24-8.83,33.6-16.75-9.62-.05-19.24-.11-28.87-.16Z"/>
    <path class="st1" d="M325.11,338.43s25.27-2.03,36.04,1.52"/>
  </g>
</svg>