<?xml version="1.0" encoding="utf-8"?>
<!-- Generator: Adobe Illustrator 24.0.3, SVG Export Plug-In . SVG Version: 6.00 Build 0)  -->
<svg version="1.1" id="Layer_1" xmlns="http://www.w3.org/2000/svg" xmlns:xlink="http://www.w3.org/1999/xlink" x="0px" y="0px"
	 viewBox="0 0 800 800" style="enable-background:new 0 0 800 800;" xml:space="preserve">
<style type="text/css">
	.st0{clip-path:url(#SVGID_2_);fill:#F6C65D;}
	.st1{clip-path:url(#SVGID_2_);}
	.st2{fill:none;stroke:#55585C;stroke-width:1.7089;stroke-miterlimit:10;}
	.st3{fill:#FFFFFF;}
	.st4{fill:#245486;}
	.st5{fill:#D2956C;}
	.st6{fill:#55585C;}
	.st7{clip-path:url(#SVGID_4_);fill:#E1635D;}
	.st8{clip-path:url(#SVGID_4_);}
	.st9{fill:#806A57;}
	.st10{fill:#F9E3D9;}
	.st11{clip-path:url(#SVGID_4_);fill:#FFFFFF;}
	.st12{clip-path:url(#SVGID_6_);fill:#DDEFFA;}
	.st13{clip-path:url(#SVGID_6_);}
	.st14{fill:#E1635D;}
	.st15{fill:#FAC8AF;}
	.st16{fill:none;}
	.st17{clip-path:url(#SVGID_8_);fill:#488FBA;}
	.st18{clip-path:url(#SVGID_8_);}
	.st19{fill:#B19465;}
	.st20{fill:#FAD4CB;}
	.st21{clip-path:url(#SVGID_10_);fill:#60A675;}
	.st22{clip-path:url(#SVGID_10_);}
	.st23{fill:#E1A27B;}
</style>
<g>
	<defs>
		<rect id="SVGID_7_" x="0.36" y="0.36" width="799.28" height="799.28"/>
	</defs>
	<clipPath id="SVGID_2_">
		<use xlink:href="#SVGID_7_"  style="overflow:visible;"/>
	</clipPath>
	<rect x="0.36" y="0.36" style="clip-path:url(#SVGID_2_);fill:#488FBA;" width="799.28" height="799.28"/>
	<g class="st1">
		<path class="st2" d="M243.33,171.07c0,0,60.16-87.67,76.11-99.07"/>
		<path class="st2" d="M302.58,91.16c0,0,52.56,36.01,69.99,105.76"/>
		<path class="st2" d="M318.81,72.51c0,0,6.6-2.92,16.08,0.89c24.85,9.97,72.08,43.67,91.59,129.33"/>
		<path class="st2" d="M319.44,72c0,0,6.71-7.72,12.15-10.64c5.44-2.91,9.97-12.38,9.97-12.38"/>
		<g>
			<path class="st3" d="M658.63,799.56h77.41l69.19-1.23c-1.58-6.32-116.92-62.95-141.35-75.11
				C665.45,747.62,660.78,784.46,658.63,799.56z"/>
			<path class="st3" d="M148.11,799.56c8.72-26.32,26.99-79.36,41.82-108.62c-15.94,4.87-111.89,34.27-142.92,46.09
				c-24,9.14-43.12,43.34-52.24,62.53H148.11z"/>
			<path class="st3" d="M658.63,799.56c2.14-15.11,6.82-51.94,5.25-76.34c-0.73-11.29-2.79-19.92-7.07-22.49
				c-12.19-7.32-50.18-44.11-68.01-61.65l-2.54-0.36l-1.19-0.17c0,0-63.5,105.65-109.63,102.67l-26.72,58.35H658.63z"/>
			<path class="st3" d="M645.22,197.95c-13.18-22.92-57.87-94.54-87.09-122.61c-29.22-28.07-89.95-37.81-123.76-45.26
				c-30.3-6.68-80.85,13.8-91.01,18.12c-1.08,0.46-2.31,0.41-3.32-0.2c-32.46-19.62-74.53,54.65-101.05,79.48
				c-26.03,24.37-38.39,88.23-41.82,120.89c-3.44,32.66,18.3,87.82,20.26,88.06c0.1-1.72,0.21-3.39,0.36-4.99
				c5.36-56.88,15.88-110.63,15.88-110.63c0.48-6.69,0.13-14.68-0.36-21.15c-0.61-8.06,1.54-16.08,6.07-22.78l0.28-0.42l3.65-5.4
				l0.84,6.83c12.05,85.4,110.81,150.2,127.63,160.66c0.39,0.24,0.81-0.27,0.49-0.61l-19.26-20.83l21.22,14.54
				c0.28,0.19,0.59-0.17,0.36-0.41c-10.58-11.51-17-30.74-17-30.74c7.45,14.9,32.08,30.37,32.08,30.37l27.72,21.2
				c0.21,0.16,0.48-0.11,0.31-0.32l-62.98-77.6c0,0,56.15,49.85,75.63,74.48c19.48,24.64,96.25,77.35,96.25,77.35
				s-8.09,5.27-10.31,19.48c-5.43,34.8-8.61,101.42-11.46,116.88c-2.18,11.84-4.71,25.39-10.98,43.48
				c-2.52,7.27-5.65,15.29-9.61,24.22c-4.29,9.69-9.55,20.46-16.08,32.57c-27.5,50.99-99.69,104.28-99.69,104.28
				c95.68-1.15,103.13-54.43,103.13-54.43l-2.86,27.5c2.18,0.7,4.4,1.11,6.67,1.26c46.14,2.99,109.63-102.67,109.63-102.67
				l1.19,0.17l2.54,0.36l0.27,0.04c9.74,0.57,17.19-12.03,17.19-12.03s38.39-10.89,80.79-76.2c9.63-14.83,21.06-30.42,22.06-59.69
				c0.93-27.21-7.75-60.54-14.24-95.34c-2.14-11.45-1.73-25.83-3.71-36.52C677.06,283.48,651.71,209.24,645.22,197.95z"/>
			<path class="st3" d="M291.57,640.48c-18.88-19.75-42.18-67.89-60.58-111.94c-21.77-52.14-20.05-63.02-19.48-80.21
				c0.18-5.42,3.14-33.83,5.16-68.75c0.26-4.43,0.34-9.27,0.38-14.23c-8.72,18.2-25.1,51.5-33.71,63.56
				c-12.1,16.94-36.3,116.15-8.07,164.55c18.14,31.1,48.59,51.86,68.05,62.74c8.89-1.45,16.7-2.43,21.48-4.66
				C275.42,646.57,288.53,641.61,291.57,640.48z"/>
			<path class="st3" d="M448.71,799.56l26.72-58.35c-2.27-0.15-4.5-0.56-6.67-1.26l2.86-27.5c0,0-7.45,53.28-103.13,54.43
				c0,0,72.19-53.28,99.69-104.28c6.53-12.1,11.79-22.87,16.08-32.57c3.96-8.93,7.09-16.95,9.61-24.22l-1.05,1.21
				c-10.45,8.96-20.57,16.58-30.36,23.08c-78.98,52.41-135.7,30.14-157.22,19.99c-1.41-0.66-2.68-1.28-3.78-1.82
				c-2.57-1.25-5.29-3.3-8.11-6.02c-0.48-0.46-0.95-0.94-1.44-1.44c-0.29,0.55-0.77,1.5-1.43,2.8c-1.48,2.95-3.8,7.71-6.58,13.87
				c-13.81,30.64-38.74,95.66-26.08,142.07H448.71z"/>
			<path class="st3" d="M430.37,348.64c-19.48-24.64-75.63-74.48-75.63-74.48l62.98,77.6c0.17,0.21-0.1,0.48-0.31,0.32l-27.72-21.2
				c0,0-24.64-15.47-32.08-30.37c0,0,6.42,19.23,17,30.74c0.23,0.25-0.09,0.6-0.36,0.41l-21.22-14.54l19.26,20.83
				c0.31,0.34-0.1,0.85-0.49,0.61C354.98,328.1,256.21,263.3,244.16,177.9l-0.84-6.83l-3.65,5.4l-0.28,0.42
				c-4.52,6.7-6.68,14.72-6.07,22.78c0.49,6.47,0.84,14.47,0.36,21.15c0,0-10.53,53.75-15.88,110.63c-0.15,1.59-0.27,3.26-0.36,4.99
				c-0.49,8.82-0.34,19.12-0.41,28.91c-0.03,4.96-0.12,9.8-0.38,14.23c-2.02,34.92-4.98,63.33-5.16,68.75
				c-0.57,17.19-2.29,28.07,19.48,80.21c18.4,44.05,41.7,92.19,60.58,111.94c0.12,0.12,0.23,0.23,0.35,0.35
				c0.48,0.5,0.96,0.98,1.44,1.44c2.82,2.72,5.54,4.77,8.11,6.02c1.1,0.54,2.37,1.15,3.78,1.82
				c21.52,10.15,78.24,32.42,157.22-19.99c9.79-6.5,19.91-14.12,30.36-23.08l1.05-1.21c6.27-18.09,8.8-31.64,10.98-43.48
				c2.85-15.46,6.03-82.08,11.46-116.88c2.22-14.21,10.31-19.48,10.31-19.48S449.85,373.27,430.37,348.64z"/>
			<path class="st3" d="M257.83,799.56c-12.66-46.4,12.27-111.43,26.08-142.07c2.78-6.16,5.1-10.93,6.58-13.87
				c0.65-1.3,1.14-2.24,1.43-2.8c-0.12-0.12-0.23-0.23-0.35-0.35c-3.04,1.13-16.14,6.09-26.77,11.05
				c-4.78,2.23-12.59,3.21-21.48,4.66c-13.6,2.23-29.73,5.58-41.43,16.31c-3.45,3.17-7.55,9.76-11.95,18.44
				c-14.83,29.26-33.1,82.3-41.82,108.62H257.83z"/>
		</g>
		<g>
			<path class="st19" d="M291.57,640.48c-18.88-19.75-42.56-72.65-60.96-116.71c-21.77-52.14-19.67-58.26-19.1-75.44
				c0.18-5.42,3.14-33.83,5.16-68.75c0.26-4.43,0.34-9.27,0.38-14.23c-8.72,18.2-16.49,47.93-25.1,59.99
				c-12.1,16.94-36.3,116.15-8.07,164.55c18.14,31.1,48.59,51.86,68.05,62.74c8.89-1.45,8.09,1.14,12.87-1.09
				C275.42,646.57,288.53,641.61,291.57,640.48z"/>
			<path class="st14" d="M662.45,799.56h138.47c-25.79-16.14-113.26-59.1-134.16-69.51C668.14,751.32,664.76,782.03,662.45,799.56z"
				/>
			<path class="st14" d="M149.46,799.56c9.35-27.86,25.89-74.88,39.54-101.79c-15.94,4.87-111.89,34.27-142.92,46.09
				c-21.35,8.13-38.84,36.11-48.87,55.7H149.46z"/>
			<path class="st14" d="M658.64,799.56c2.31-17.54,5.68-48.24,4.31-69.51c-0.73-11.29-2.79-19.92-7.07-22.49
				c-12.19-7.32-50.18-44.12-68.01-61.65l-2.54-0.36l-1.19-0.17c0,0-63.5,105.65-109.63,102.67l-23.6,51.52H658.64z"/>
			<path class="st20" d="M448.77,799.56l25.74-56.2c-2.27-0.15-4.5-0.56-6.67-1.26l2.86-27.5c0,0-7.45,53.28-103.13,54.43
				c0,0,72.19-53.28,99.69-104.28c6.53-12.1,11.79-22.87,16.08-32.57c3.96-8.93,7.09-16.95,9.61-24.22l-1.05,1.21
				c-10.45,8.96-20.57,16.58-30.36,23.08c-78.98,52.41-135.7,30.14-157.22,19.99c-1.41-0.66-2.68-1.28-3.78-1.82
				c-2.57-1.25-5.29-3.3-8.11-6.02c-0.48-0.46-0.95-0.94-1.44-1.44c-0.29,0.55-0.77,1.5-1.43,2.8c-1.48,2.95-3.8,7.71-6.58,13.87
				c-13.6,30.17-37.96,93.67-26.6,139.91H448.77z"/>
			<path class="st20" d="M437.07,341.25c-19.48-24.64-75.63-74.48-75.63-74.48l62.98,77.6c0.17,0.21-0.1,0.48-0.31,0.32l-27.72-21.2
				c0,0-24.64-15.47-32.08-30.37c0,0,6.42,19.23,17,30.74c0.23,0.25-0.09,0.6-0.36,0.41l-21.22-14.54l19.26,20.83
				c0.31,0.34-0.1,0.85-0.49,0.61c-16.81-10.46-115.58-75.26-127.63-160.66l-0.84-6.83l-3.65,5.4l-0.28,0.42
				c-4.52,6.7-6.68,14.72-6.07,22.78c0.49,6.47,0.84,14.47,0.36,21.15c0,0-10.53,53.75-15.88,110.63c-0.15,1.59-0.27,3.26-0.36,4.99
				c-0.49,8.82-0.34,19.12-0.41,28.91c-0.03,4.96-0.12,9.8-0.38,14.23c-2.02,34.92-4.98,63.33-5.16,68.75
				c-0.57,17.19-2.29,28.07,19.48,80.21c18.4,44.05,41.7,92.19,60.58,111.94c0.12,0.12,0.23,0.23,0.35,0.35
				c0.48,0.5,0.96,0.98,1.44,1.44c2.82,2.72,5.54,4.77,8.11,6.02c1.1,0.54,2.37,1.15,3.78,1.82
				c21.52,10.15,78.24,32.42,157.22-19.99c9.79-6.5,19.91-14.12,30.36-23.08l1.05-1.21c6.27-18.09,8.8-31.64,10.98-43.48
				c2.85-15.46,6.03-82.08,11.46-116.88c2.22-14.21,10.31-19.48,10.31-19.48S456.55,365.89,437.07,341.25z"/>
			<path class="st14" d="M255.36,799.56c-8.72-45.76,14.48-106.07,27.62-135.24c2.78-6.16,5.1-10.93,6.58-13.87
				c0.65-1.3,1.14-2.24,1.43-2.8c-0.12-0.12-0.23-0.23-0.35-0.35c-3.04,1.13-16.14,6.09-26.77,11.05
				c-4.78,2.23-12.59,3.21-21.48,4.66c-13.6,2.23-29.73,5.58-41.43,16.31c-3.45,3.17-7.55,9.76-11.95,18.44
				c-13.64,26.91-30.18,73.94-39.54,101.79H255.36z"/>
			<path class="st19" d="M643.34,204.87c-13.18-22.92-57.87-94.54-87.09-122.61C527.04,54.19,466.3,44.45,432.5,37
				c-30.3-6.68-80.85,13.8-91.01,18.12c-1.08,0.46-2.31,0.41-3.32-0.2c-32.46-19.62-74.53,54.65-101.05,79.48
				c-26.03,24.37-38.39,88.23-41.82,120.89c-3.44,32.66,18.3,87.82,20.26,88.06c0.1-1.72,0.21-3.39,0.36-4.99
				c5.36-56.88,15.88-110.63,15.88-110.63c0.48-6.69,0.13-14.68-0.36-21.15c-0.61-8.06,1.54-16.08,6.07-22.78l0.28-0.42l3.65-5.4
				l0.84,6.83c12.05,85.4,110.81,150.2,127.63,160.66c0.39,0.24,0.81-0.27,0.49-0.61l-19.26-20.83l21.22,14.54
				c0.28,0.19,0.59-0.17,0.36-0.41c-10.58-11.51-17-30.74-17-30.74c7.45,14.9,32.08,30.37,32.08,30.37l27.72,21.2
				c0.21,0.16,0.48-0.11,0.31-0.32l-62.98-77.6c0,0,56.15,49.85,75.63,74.48c19.48,24.64,96.25,77.35,96.25,77.35
				s-8.09,5.27-10.31,19.48c-5.43,34.8-8.61,101.42-11.46,116.88c-2.18,11.84-4.71,25.39-10.98,43.48
				c-2.52,7.27-5.65,15.29-9.61,24.22c-4.29,9.69-9.55,20.46-16.08,32.57c-27.5,50.99-99.69,104.28-99.69,104.28
				c95.68-1.15,103.13-54.43,103.13-54.43l-2.86,27.5c2.18,0.7,4.4,1.11,6.67,1.26c46.14,2.99,109.63-102.67,109.63-102.67
				l1.19,0.17l2.54,0.36l0.27,0.04c9.74,0.57,17.19-12.03,17.19-12.03s38.39-10.89,80.79-76.2c9.63-14.83,21.06-30.42,22.06-59.69
				c0.93-27.21-7.75-60.54-14.24-95.34c-2.14-11.45-1.73-25.83-3.71-36.52C675.18,290.4,649.83,216.16,643.34,204.87z"/>
		</g>
		<circle class="st6" cx="287.69" cy="363.88" r="8.68"/>
		<path class="st6" d="M452.93,370.91c-4.8,0-8.68,3.89-8.68,8.68s3.89,8.68,8.68,8.68s8.68-3.89,8.68-8.68l0.05-2.2L452.93,370.91"
			/>
		<g>
			<path class="st2" d="M805.23,798.33c-1.58-6.32-116.92-62.95-141.35-75.11c1.57,24.4-3.1,61.24-5.25,76.34"/>
			<path class="st2" d="M148.11,799.56c8.72-26.32,26.99-79.36,41.82-108.62c-15.94,4.87-111.89,34.27-142.92,46.09
				c-24,9.14-43.12,43.34-52.24,62.53"/>
			<path class="st2" d="M658.63,799.56c2.14-15.11,6.82-51.94,5.25-76.34c-0.73-11.29-2.79-19.92-7.07-22.49
				c-12.19-7.32-50.18-44.11-68.01-61.65l-2.54-0.36l-1.19-0.17c0,0-63.5,105.65-109.63,102.67l-26.72,58.35"/>
			<path class="st2" d="M645.22,197.95c-13.18-22.92-57.87-94.54-87.09-122.61c-29.22-28.07-89.95-37.81-123.76-45.26
				c-30.3-6.68-80.85,13.8-91.01,18.12c-1.08,0.46-2.31,0.41-3.32-0.2c-32.46-19.62-74.53,54.65-101.05,79.48
				c-26.03,24.37-38.39,88.23-41.82,120.89c-3.44,32.66,18.3,87.82,20.26,88.06c0.1-1.72,0.21-3.39,0.36-4.99
				c5.36-56.88,15.88-110.63,15.88-110.63c0.48-6.69,0.13-14.68-0.36-21.15c-0.61-8.06,1.54-16.08,6.07-22.78l0.28-0.42l3.65-5.4
				l0.84,6.83c12.05,85.4,110.81,150.2,127.63,160.66c0.39,0.24,0.81-0.27,0.49-0.61l-19.26-20.83l21.22,14.54
				c0.28,0.19,0.59-0.17,0.36-0.41c-10.58-11.51-17-30.74-17-30.74c7.45,14.9,32.08,30.37,32.08,30.37l27.72,21.2
				c0.21,0.16,0.48-0.11,0.31-0.32l-62.98-77.6c0,0,56.15,49.85,75.63,74.48c19.48,24.64,96.25,77.35,96.25,77.35
				s-8.09,5.27-10.31,19.48c-5.43,34.8-8.61,101.42-11.46,116.88c-2.18,11.84-4.71,25.39-10.98,43.48
				c-2.52,7.27-5.65,15.29-9.61,24.22c-4.29,9.69-9.55,20.46-16.08,32.57c-27.5,50.99-99.69,104.28-99.69,104.28
				c95.68-1.15,103.13-54.43,103.13-54.43l-2.86,27.5c2.18,0.7,4.4,1.11,6.67,1.26c46.14,2.99,109.63-102.67,109.63-102.67
				l1.19,0.17l2.54,0.36l0.27,0.04c9.74,0.57,17.19-12.03,17.19-12.03s38.39-10.89,80.79-76.2c9.63-14.83,21.06-30.42,22.06-59.69
				c0.93-27.21-7.75-60.54-14.24-95.34c-2.14-11.45-1.73-25.83-3.71-36.52C677.06,283.48,651.71,209.24,645.22,197.95z"/>
			<path class="st2" d="M291.57,640.48c-18.88-19.75-42.18-67.89-60.58-111.94c-21.77-52.14-20.05-63.02-19.48-80.21
				c0.18-5.42,3.14-33.83,5.16-68.75c0.26-4.43,0.34-9.27,0.38-14.23c-8.72,18.2-25.1,51.5-33.71,63.56
				c-12.1,16.94-36.3,116.15-8.07,164.55c18.14,31.1,48.59,51.86,68.05,62.74c8.89-1.45,16.7-2.43,21.48-4.66
				C275.42,646.57,288.53,641.61,291.57,640.48z"/>
			<path class="st2" d="M448.71,799.56l26.72-58.35c-2.27-0.15-4.5-0.56-6.67-1.26l2.86-27.5c0,0-7.45,53.28-103.13,54.43
				c0,0,72.19-53.28,99.69-104.28c6.53-12.1,11.79-22.87,16.08-32.57c3.96-8.93,7.09-16.95,9.61-24.22l-1.05,1.21
				c-10.45,8.96-20.57,16.58-30.36,23.08c-78.98,52.41-135.7,30.14-157.22,19.99c-1.41-0.66-2.68-1.28-3.78-1.82
				c-2.57-1.25-5.29-3.3-8.11-6.02c-0.48-0.46-0.95-0.94-1.44-1.44c-0.29,0.55-0.77,1.5-1.43,2.8c-1.48,2.95-3.8,7.71-6.58,13.87
				c-13.81,30.64-38.74,95.66-26.08,142.07"/>
			<path class="st2" d="M430.37,348.64c-19.48-24.64-75.63-74.48-75.63-74.48l62.98,77.6c0.17,0.21-0.1,0.48-0.31,0.32l-27.72-21.2
				c0,0-24.64-15.47-32.08-30.37c0,0,6.42,19.23,17,30.74c0.23,0.25-0.09,0.6-0.36,0.41l-21.22-14.54l19.26,20.83
				c0.31,0.34-0.1,0.85-0.49,0.61C354.98,328.1,256.21,263.3,244.16,177.9l-0.84-6.83l-3.65,5.4l-0.28,0.42
				c-4.52,6.7-6.68,14.72-6.07,22.78c0.49,6.47,0.84,14.47,0.36,21.15c0,0-10.53,53.75-15.88,110.63c-0.15,1.59-0.27,3.26-0.36,4.99
				c-0.49,8.82-0.34,19.12-0.41,28.91c-0.03,4.96-0.12,9.8-0.38,14.23c-2.02,34.92-4.98,63.33-5.16,68.75
				c-0.57,17.19-2.29,28.07,19.48,80.21c18.4,44.05,41.7,92.19,60.58,111.94c0.12,0.12,0.23,0.23,0.35,0.35
				c0.48,0.5,0.96,0.98,1.44,1.44c2.82,2.72,5.54,4.77,8.11,6.02c1.1,0.54,2.37,1.15,3.78,1.82
				c21.52,10.15,78.24,32.42,157.22-19.99c9.79-6.5,19.91-14.12,30.36-23.08l1.05-1.21c6.27-18.09,8.8-31.64,10.98-43.48
				c2.85-15.46,6.03-82.08,11.46-116.88c2.22-14.21,10.31-19.48,10.31-19.48S449.85,373.27,430.37,348.64z"/>
			<path class="st2" d="M257.83,799.56c-12.66-46.4,12.27-111.43,26.08-142.07c2.78-6.16,5.1-10.93,6.58-13.87
				c0.65-1.3,1.14-2.24,1.43-2.8c-0.12-0.12-0.23-0.23-0.35-0.35c-3.04,1.13-16.14,6.09-26.77,11.05
				c-4.78,2.23-12.59,3.21-21.48,4.66c-13.6,2.23-29.73,5.58-41.43,16.31c-3.45,3.17-7.55,9.76-11.95,18.44
				c-14.83,29.26-33.1,82.3-41.82,108.62"/>
		</g>
		<path class="st2" d="M291.91,640.83c0,0,42.85,101.76,41.26,135.28"/>
		<path class="st2" d="M444.92,542.24c0,0-83.01,47.09-182.78-25.54"/>
		<path class="st2" d="M250.44,506.62c0,0-4.84,6.22-2.53,11.06"/>
		<path class="st2" d="M472.7,532.18c0,0,6.91,8.52,3.45,15.43"/>
		<path class="st2" d="M396.7,479.44c0,0,3.22,28.33-19.58,30.63c0,0-19.81-0.92-22.11-0.23c-2.3,0.69-17.27,7.37-23.03,5.53
			s-16.81-3.45-29.02-16.12c-12.21-12.67-10.36-20.96-5.99-26.72c1.96-2.57,12.66-14.28,19.12-34.09
			c8-24.53,11.77-58.27,11.52-64.26"/>
		<path class="st2" d="M370.44,407.35c0,0-2.53,23.95-0.69,26.95"/>
		<path class="st2" d="M230.97,635.47c0,0-34.87-81.37-19.55-171.73"/>
		<path class="st2" d="M283.28,643.93c0,0-70.28-60.24-58.12-128.93"/>
		<path class="st2" d="M357.61,300.51c-1.07,0.78-30.74-49.82-36.14-72.06c-0.2-0.84-0.44-1.67-0.74-2.48
			c-3.48-9.27-25.72-68.46-27.44-72.37"/>
		<path class="st2" d="M353.02,317.12c0,0-14.72-17.02-28.12-39.73c-9.85-16.69-18.22-37.86-23.38-50.48
			c-10.1-24.71-19.66-63.5-19.66-63.5"/>
		<path class="st2" d="M396.63,313.52c0,0-30.82-42.24-43.04-62.17s-45.16-77.58-48.62-80.23"/>
		<path class="st2" d="M503.96,409.43c0,0-15.08-14.17-28.43-31.88c-16.78-22.26-32.93-49.84-36.93-58.71
			c-7.17-15.94-28.16-48.88-28.16-48.88"/>
		<path class="st2" d="M526.63,425.98c0,0,14,6.3,15.06,5.5c1.06-0.8-30.57-71.33-37.46-87.94c-10.36-24.97-12.75-46.76-12.75-46.76
			"/>
		<path class="st2" d="M694.87,395.86c0,0-37.76-126.91-87.29-216.05"/>
		<path class="st2" d="M471.62,712.46c0,0,24.49-47.27,28.86-98.69c4.37-51.42,28.48-126.29,28.48-126.29"/>
		<path class="st2" d="M487.48,677.53c0,0,66.86-84.19,74.29-151.67s11.14-125.67-31.57-250.72"/>
		<path class="st2" d="M586.26,638.72c0,0,19.47-42.9,17.61-101.09c-1.86-58.19-8.05-151.67-8.05-151.67"/>
		<path class="st2" d="M606.26,627.09c0,0,50.22-49.85,41.56-221.33"/>
	</g>
</g>
</svg>
