<?xml version="1.0" encoding="UTF-8"?>
<svg id="Layer_1" xmlns="http://www.w3.org/2000/svg" xmlns:xlink="http://www.w3.org/1999/xlink" version="1.1" viewBox="0 0 841.89 467.72">
  <!-- Generator: Adobe Illustrator 29.5.0, SVG Export Plug-In . SVG Version: 2.1.0 Build 137)  -->
  <defs>
    <style>
      .st0, .st1 {
        fill: none;
      }

      .st2 {
        fill: #343637;
      }

      .st3 {
        fill: #bbbbbd;
      }

      .st1 {
        stroke: #545d62;
        stroke-miterlimit: 10;
      }

      .st4 {
        fill: #dce8ef;
      }

      .st5 {
        fill: #fff;
      }

      .st6 {
        fill: #d1a48c;
      }

      .st7 {
        fill: #545d62;
      }

      .st8 {
        clip-path: url(#clippath);
      }
    </style>
    <clipPath id="clippath">
      <rect class="st0" width="841.89" height="467.72"/>
    </clipPath>
  </defs>
  <g class="st8">
    <rect class="st4" width="841.89" height="467.72"/>
    <g>
      <path class="st5" d="M516.58,226.87c-.28-1.12-1.05-2.05-1.78-2.95-21.04-26.04-23.52-61.97-35.35-93.3-4.53-11.99-10.5-23.44-17.73-34.02-3.74-5.47-7.91-10.8-13.41-14.49-5.5-3.68-12.57-5.52-18.88-3.49-8.71,2.8-19.95-.97-30.33,1.58-9.96,2.44-16.96,11.24-22.35,19.95-13.29,21.46-24.35,93.78-29.24,97.73-2.93,6.58-.82,4.87,1.13,12.33,3.15,12.04,2.22,24.78,4.4,37.03,1.69,9.5,5.24,18.56,8.76,27.54.55,1.4,4.53,5.93,9.6,11.18.53.55,1.07,1.1,1.62,1.66,6.41,6.53,14.06,13.76,18.76,17.37,7.31,5.61,14.61,11.22,22.12,16.56,3.22,2.29,6.54,4.56,10.32,5.7,4.07,1.22,8.39.55,12.63.61,18.61.24,39.99-18.29,53.22-33.02,1.18-1.32,2.3-2.6,3.35-3.84,3.13-3.72,5.62-7.02,7.23-9.47,3.83-5.81,6.19-12.46,8.16-19.13,3.12-10.56,5.35-21.35,7.58-32.13.23-1.12.46-2.29.18-3.4Z"/>
      <path class="st5" d="M276.87,493.14c1.86-1.59,3.85-3.17,4.92-5.36,3.3-6.72-3.37-13.73-8.49-19.2-10.26-10.97-16.4-26.78-12.48-41.28,3.92-14.49,17.02-26.01,22.76-39.28-7.22,2.5-14.67,4.34-22.22,5.48-6.4.96-12.99,1.45-18.96,3.96-5.97,2.51-11.37,7.58-12.12,14.01-.2,1.72-.08,3.52-.81,5.09-1.17,2.52-4.09,3.59-6.61,4.77-15.91,7.47-22.57,26.22-26.94,43.24-6.25,24.33-11.03,49.04-14.31,73.95-.21,1.59-.33,3.42.8,4.56.83.83,2.1,1.01,3.28,1.07,6.59.35,13.14-1.57,19.73-1.25,7.24.35,14.04,3.37,21.12,4.94,7.93,1.76,15.99,1.68,24.52,1.2.88-21.17,9.68-42.07,25.81-55.9Z"/>
      <path class="st5" d="M487.57,519.12c2.8-3.74,6.84-6.37,9.9-9.92s5.04-8.78,2.76-12.87c-1.01-1.81-2.71-3.11-4.28-4.45-9.9-8.45-16.52-20.66-18.19-33.57-5.46,12.32-10.98,24.87-12.54,38.25-1.56,13.38,1.42,27.96,10.96,37.48-15.3-13.18-23.56-34.09-21.41-54.16,3.13-29.24,25.81-52.2,37.08-79.38-25.34,20.91-61.01,29-92.8,20.43-4.65-1.25-9.24-2.83-13.85-4.3.05,1.52.03,3.05-.11,4.59-1.21,12.68-9.95,23.6-20.43,30.85-8.76,6.06-20.47,13.17-18.46,23.63,1.34,6.96,8.41,11,12.88,16.5,7.88,9.68,7.24,24.27,1.42,35.31-3.09,5.85-7.37,10.88-12.23,15.38,45.15-3.09,90.38-5.06,135.62-5.95-1.04-6.29-.08-12.76,3.7-17.81Z"/>
      <path class="st5" d="M610.72,374.53c-3.73,4.5-5.51,10.26-7.15,15.87-3.81,13.04-7.33,26.17-10.56,39.37,0,0,58.21,36.01,20.59,80.63-5.42,6.43-9.18,14.59-16.71,18.33,8.32-18.49,8.4-40.51.22-59.07,2.56,7.07-.38,14.96-4.42,21.31-4.04,6.34-19.51,29.27-17.5,34.66,1.74,4.67,5.46,8.28,9.59,11.15,11.52.19,23.04.44,34.56.77,29.42.86,58.83,2.18,84.96,3.87-5.91-30.28-11.45-60.63-16.59-91.05-3.24-19.17-6.84-39.48-19.75-54.02-13.5-15.21-34.38-20.98-54.5-24.71-.95.93-1.89,1.87-2.74,2.89Z"/>
      <path class="st5" d="M476.58,364.42c-8.1-1.45-14.81,4.75-21.5,7.31-21.62,8.28-46.88,6.11-66.99-5.27-1.37-.77-2.71-1.59-4.02-2.44-.68,1.23-1.44,2.41-2.21,3.58-2.56,3.89-5.15,7.62-4.64,12.6,1.28,12.38,7.54,24.17,7.97,36.43,4.61,1.47,9.2,3.05,13.85,4.3,31.79,8.57,67.46.48,92.8-20.43.11-.27.23-.54.34-.81,1.2-2.96-10.63-21.28-15.6-35.27Z"/>
      <path class="st5" d="M489.68,320.49c-1.04-6.36-2.08-12.83-1.16-19.21.32-2.2.88-4.33,1.56-6.44-13.24,14.73-34.62,33.26-53.22,33.02-4.24-.05-8.57.61-12.63-.61-3.78-1.13-7.11-3.41-10.32-5.7-7.5-5.34-14.81-10.95-22.12-16.56-4.7-3.61-12.36-10.84-18.76-17.37,7.66,23.85,15.66,49.05,13.28,69.88-.27,2.41-1.14,4.52-2.23,6.5,1.32.86,2.66,1.67,4.02,2.44,20.11,11.38,45.37,13.55,66.99,5.27,6.69-2.56,13.4-8.77,21.5-7.31-1.28-3.61-.61-6.53-.61-7.85,0-.65.04-1.3.1-1.95,1.23-13.77,14.85-26.56,13.61-34.13Z"/>
      <path class="st5" d="M593.01,429.77c3.23-13.2,6.75-26.33,10.56-39.37,1.64-5.61,3.42-11.37,7.15-15.87.85-1.02,1.79-1.96,2.74-2.89,1.35-1.32,2.72-2.63,3.9-4.1,8.18-10.27,4.42-25.85-3.27-36.49s-18.64-18.62-26.16-29.38c-4.91-7.03-8.3-15.9-5.95-24.14,1.15-4.01,3.56-7.53,5.56-11.19,7.13-13.06,9.14-28.83,4.13-43.53-5.15-17.93-9-31.52-18.59-47.52-15.49-25.85-27.48-54.24-42.98-80.09-10.4-17.36-30.51-35.24-46.49-47.65-14.7-11.41-35-17.41-52.33-11.43-16.49-6.63-36.15-.6-49.93,10.79-14.15,11.69-28.41,27.91-37.21,44.02-23.35,42.73-42.42,56.93-45.01,136.23-.28,8.67-.69,17.39-2.53,25.87-3.24,14.95-11.84,28.07-18.54,41.82-6.7,13.75-11.61,29.65-6.91,44.21,3.91,12.12,14.16,22.12,15.08,34.83.36,5.04-.74,9.69-2.67,14.16-5.74,13.27-18.85,24.79-22.76,39.28-3.92,14.5,2.23,30.32,12.48,41.28,5.12,5.47,11.79,12.47,8.49,19.2-1.08,2.2-3.07,3.77-4.92,5.36-16.13,13.83-24.94,34.73-25.81,55.9,9.98-.56,20.61-1.65,32.44-.97,12.46-1.14,24.92-2.19,37.39-3.17,10.34-5.54,19.89-13.68,21.81-25.01.11,9.63-5.69,17.77-13.12,24.34,6.22-.47,12.45-.92,18.68-1.35,4.87-4.5,9.15-9.53,12.23-15.38,5.82-11.04,6.46-25.63-1.42-35.31-4.47-5.49-11.54-9.54-12.88-16.5-2.02-10.46,9.7-17.57,18.46-23.63,10.47-7.24,19.21-18.17,20.43-30.85.15-1.54.17-3.07.11-4.59-.43-12.26-6.69-24.05-7.97-36.43-.51-4.98,2.08-8.72,4.64-12.6.77-1.17,1.53-2.35,2.21-3.58,1.09-1.98,1.95-4.1,2.23-6.5,2.38-20.84-5.62-46.03-13.28-69.88-.55-.56-1.09-1.11-1.62-1.66-5.07-5.25-9.05-9.78-9.6-11.18-3.52-8.98-7.06-18.04-8.76-27.54-2.18-12.25-1.25-24.99-4.4-37.03-1.95-7.46-4.07-5.75-1.13-12.33,4.9-3.94,15.96-76.26,29.24-97.73,5.4-8.72,12.4-17.51,22.35-19.95,10.38-2.55,21.62,1.23,30.33-1.58,6.3-2.03,13.37-.19,18.88,3.49,5.5,3.68,9.68,9.02,13.41,14.49,7.23,10.58,13.21,22.03,17.73,34.02,11.83,31.32,14.31,67.25,35.35,93.3.73.9,1.5,1.82,1.78,2.95.28,1.11.05,2.28-.18,3.4-2.23,10.78-4.46,21.57-7.58,32.13-1.97,6.67-4.33,13.32-8.16,19.13-1.61,2.45-4.1,5.75-7.23,9.47-1.04,1.24-2.16,2.52-3.35,3.84-.68,2.1-1.24,4.24-1.56,6.44-.92,6.37.12,12.85,1.16,19.21,1.24,7.57-12.38,20.35-13.61,34.13-.06.65-.1,1.3-.1,1.95,0,1.32-.67,4.24.61,7.85,4.97,13.98,16.8,32.3,15.6,35.27-.11.27-.23.54-.34.81-11.27,27.17-33.95,50.14-37.08,79.38-2.15,20.07,6.11,40.98,21.41,54.16-9.54-9.51-12.52-24.1-10.96-37.48,1.56-13.38,7.08-25.93,12.54-38.25,1.67,12.91,8.29,25.12,18.19,33.57,1.58,1.34,3.27,2.65,4.28,4.45,2.28,4.08.3,9.32-2.76,12.87s-7.09,6.17-9.9,9.92c-3.78,5.05-4.73,11.52-3.7,17.81,33.63-.66,67.28-.71,100.91-.15-4.13-2.87-7.86-6.48-9.59-11.15-2.01-5.4,13.46-28.32,17.5-34.66,4.04-6.34,6.98-14.24,4.42-21.31,8.18,18.55,8.1,40.57-.22,59.07,7.53-3.74,11.29-11.9,16.71-18.33,37.62-44.62-20.59-80.63-20.59-80.63Z"/>
    </g>
    <g>
      <path class="st6" d="M517.08,228.83c-.28-1.12-1.05-2.05-1.78-2.95-21.04-26.04-23.52-61.97-35.35-93.3-4.53-11.99-10.5-23.44-17.73-34.02-3.74-5.47-7.91-10.8-13.41-14.49-5.5-3.68-12.57-5.52-18.88-3.49-8.71,2.8-19.95-.97-30.33,1.58-9.96,2.44-16.96,11.24-22.35,19.95-13.29,21.46-24.35,93.78-29.24,97.73-2.93,6.58-.82,4.87,1.13,12.33,3.15,12.04,2.22,24.78,4.4,37.03,1.69,9.5,5.24,18.56,8.76,27.54.55,1.4,4.53,5.93,9.6,11.18.53.55,1.07,1.1,1.62,1.66,6.41,6.53,14.06,13.76,18.76,17.37,7.31,5.61,14.61,11.22,22.12,16.56,3.22,2.29,6.54,4.56,10.32,5.7,4.07,1.22,8.39.55,12.63.61,18.61.24,39.99-18.29,53.22-33.02,1.18-1.32,2.3-2.6,3.35-3.84,3.13-3.72,5.62-7.02,7.23-9.47,3.83-5.81,6.19-12.46,8.16-19.13,3.12-10.56,5.35-21.35,7.58-32.13.23-1.12.46-2.29.18-3.4Z"/>
      <path class="st3" d="M277.38,495.09c1.86-1.59,3.85-3.17,4.92-5.36,3.3-6.72-3.37-13.73-8.49-19.2-10.26-10.97-16.4-26.78-12.48-41.28,3.92-14.49,17.02-26.01,22.76-39.28-7.22,2.5-14.67,4.34-22.22,5.48-6.4.96-12.99,1.45-18.96,3.96-5.97,2.51-11.37,7.58-12.12,14.01-.2,1.72-.08,3.52-.81,5.09-1.17,2.52-4.09,3.59-6.61,4.77-15.91,7.47-22.57,26.22-26.94,43.24-6.25,24.33-11.03,49.04-14.31,73.95-.21,1.59-.33,3.42.8,4.56.83.83,2.1,1.01,3.28,1.07,6.59.35,13.14-1.57,19.73-1.25,7.24.35,14.04,3.37,21.12,4.94,7.93,1.76,15.99,1.68,24.52,1.2.88-21.17,9.68-42.07,25.81-55.9Z"/>
      <path class="st3" d="M488.08,521.07c2.8-3.74,6.84-6.37,9.9-9.92s5.04-8.78,2.76-12.87c-1.01-1.81-2.71-3.11-4.28-4.45-9.9-8.45-16.52-20.66-18.19-33.57-5.46,12.32-10.98,24.87-12.54,38.25-1.56,13.38,1.42,27.96,10.96,37.48-15.3-13.18-23.56-34.09-21.41-54.16,3.13-29.24,25.81-52.2,37.08-79.38-25.34,20.91-61.01,29-92.8,20.43-4.65-1.25-9.24-2.83-13.85-4.3.05,1.52.03,3.05-.11,4.59-1.21,12.68-9.95,23.6-20.43,30.85-8.76,6.06-20.47,13.17-18.46,23.63,1.34,6.96,8.41,11,12.88,16.5,7.88,9.68,7.24,24.27,1.42,35.31-3.09,5.85-7.37,10.88-12.23,15.38,45.15-3.09,90.38-5.06,135.62-5.95-1.04-6.29-.08-12.76,3.7-17.81Z"/>
      <path class="st3" d="M611.23,376.48c-3.73,4.5-5.51,10.26-7.15,15.87-3.81,13.04-7.33,26.17-10.56,39.37,0,0,58.21,36.01,20.59,80.63-5.42,6.43-9.18,14.59-16.71,18.33,8.32-18.49,8.4-40.51.22-59.07,2.56,7.07-.38,14.96-4.42,21.31-4.04,6.34-19.51,29.27-17.5,34.66,1.74,4.67,5.46,8.28,9.59,11.15,11.52.19,23.04.44,34.56.77,29.42.86,58.83,2.18,84.96,3.87-5.91-30.28-11.45-60.63-16.59-91.05-3.24-19.17-6.84-39.48-19.75-54.02-13.5-15.21-34.38-20.98-54.5-24.71-.95.93-1.89,1.87-2.74,2.89Z"/>
      <path class="st3" d="M477.08,366.37c-8.1-1.45-14.81,4.75-21.5,7.31-21.62,8.28-46.88,6.11-66.99-5.27-1.37-.77-2.71-1.59-4.02-2.44-.68,1.23-1.44,2.41-2.21,3.58-2.56,3.89-5.15,7.62-4.64,12.6,1.28,12.38,7.54,24.17,7.97,36.43,4.61,1.47,9.2,3.05,13.85,4.3,31.79,8.57,67.46.48,92.8-20.43.11-.27.23-.54.34-.81,1.2-2.96-10.63-21.28-15.6-35.27Z"/>
      <path class="st6" d="M490.18,322.44c-1.04-6.36-2.08-12.83-1.16-19.21.32-2.2.88-4.33,1.56-6.44-13.24,14.73-34.62,33.26-53.22,33.02-4.24-.05-8.57.61-12.63-.61-3.78-1.13-7.11-3.41-10.32-5.7-7.5-5.34-14.81-10.95-22.12-16.56-4.7-3.61-12.36-10.84-18.76-17.37,7.66,23.85,15.66,49.05,13.28,69.88-.27,2.41-1.14,4.52-2.23,6.5,1.32.86,2.66,1.67,4.02,2.44,20.11,11.38,45.37,13.55,66.99,5.27,6.69-2.56,13.4-8.77,21.5-7.31-1.28-3.61-.61-6.53-.61-7.85,0-.65.04-1.3.1-1.95,1.23-13.77,14.85-26.56,13.61-34.13Z"/>
      <path class="st2" d="M593.51,431.72c3.23-13.2,6.75-26.33,10.56-39.37,1.64-5.61,3.42-11.37,7.15-15.87.85-1.02,1.79-1.96,2.74-2.89,1.35-1.32,2.72-2.63,3.9-4.1,8.18-10.27,4.42-25.85-3.27-36.49s-18.64-18.62-26.16-29.38c-4.91-7.03-8.3-15.9-5.95-24.14,1.15-4.01,3.56-7.53,5.56-11.19,7.13-13.06,9.14-28.83,4.13-43.53-5.15-17.93-9-31.52-18.59-47.52-15.49-25.85-27.48-54.24-42.98-80.09-10.4-17.36-30.51-35.24-46.49-47.65-14.7-11.41-35-17.41-52.33-11.43-16.49-6.63-36.15-.6-49.93,10.79-14.15,11.69-28.41,27.91-37.21,44.02-23.35,42.73-42.42,56.93-45.01,136.23-.28,8.67-.69,17.39-2.53,25.87-3.24,14.95-11.84,28.07-18.54,41.82-6.7,13.75-11.61,29.65-6.91,44.21,3.91,12.12,14.16,22.12,15.08,34.83.36,5.04-.74,9.69-2.67,14.16-5.74,13.27-18.85,24.79-22.76,39.28-3.92,14.5,2.23,30.32,12.48,41.28,5.12,5.47,11.79,12.47,8.49,19.2-1.08,2.2-3.07,3.77-4.92,5.36-16.13,13.83-24.94,34.73-25.81,55.9,9.98-.56,20.61-1.65,32.44-.97,12.46-1.14,24.92-2.19,37.39-3.17,10.34-5.54,19.89-13.68,21.81-25.01.11,9.63-5.69,17.77-13.12,24.34,6.22-.47,12.45-.92,18.68-1.35,4.87-4.5,9.15-9.53,12.23-15.38,5.82-11.04,6.46-25.63-1.42-35.31-4.47-5.49-11.54-9.54-12.88-16.5-2.02-10.46,9.7-17.57,18.46-23.63,10.47-7.24,19.21-18.17,20.43-30.85.15-1.54.17-3.07.11-4.59-.43-12.26-6.69-24.05-7.97-36.43-.51-4.98,2.08-8.72,4.64-12.6.77-1.17,1.53-2.35,2.21-3.58,1.09-1.98,1.95-4.1,2.23-6.5,2.38-20.84-5.62-46.03-13.28-69.88-.55-.56-1.09-1.11-1.62-1.66-5.07-5.25-9.05-9.78-9.6-11.18-3.52-8.98-7.06-18.04-8.76-27.54-2.18-12.25-1.25-24.99-4.4-37.03-1.95-7.46-4.07-5.75-1.13-12.33,4.9-3.94,15.96-76.26,29.24-97.73,5.4-8.72,12.4-17.51,22.35-19.95,10.38-2.55,21.62,1.23,30.33-1.58,6.3-2.03,13.37-.19,18.88,3.49,5.5,3.68,9.68,9.02,13.41,14.49,7.23,10.58,13.21,22.03,17.73,34.02,11.83,31.32,14.31,67.25,35.35,93.3.73.9,1.5,1.82,1.78,2.95.28,1.11.05,2.28-.18,3.4-2.23,10.78-4.46,21.57-7.58,32.13-1.97,6.67-4.33,13.32-8.16,19.13-1.61,2.45-4.1,5.75-7.23,9.47-1.04,1.24-2.16,2.52-3.35,3.84-.68,2.1-1.24,4.24-1.56,6.44-.92,6.37.12,12.85,1.16,19.21,1.24,7.57-12.38,20.35-13.61,34.13-.06.65-.1,1.3-.1,1.95,0,1.32-.67,4.24.61,7.85,4.97,13.98,16.8,32.3,15.6,35.27-.11.27-.23.54-.34.81-11.27,27.17-33.95,50.14-37.08,79.38-2.15,20.07,6.11,40.98,21.41,54.16-9.54-9.51-12.52-24.1-10.96-37.48,1.56-13.38,7.08-25.93,12.54-38.25,1.67,12.91,8.29,25.12,18.19,33.57,1.58,1.34,3.27,2.65,4.28,4.45,2.28,4.08.3,9.32-2.76,12.87s-7.09,6.17-9.9,9.92c-3.78,5.05-4.73,11.52-3.7,17.81,33.63-.66,67.28-.71,100.91-.15-4.13-2.87-7.86-6.48-9.59-11.15-2.01-5.4,13.46-28.32,17.5-34.66,4.04-6.34,6.98-14.24,4.42-21.31,8.18,18.55,8.1,40.57-.22,59.07,7.53-3.74,11.29-11.9,16.71-18.33,37.62-44.62-20.59-80.63-20.59-80.63Z"/>
    </g>
    <path class="st1" d="M453.08,244.08c2.38-1.22,4.98-2.7,5.74-5.26.49-1.66.09-3.44-.43-5.09-.99-3.13-2.42-6.13-4.22-8.88"/>
    <path class="st1" d="M449.93,242.31c-2.18-.13-4.38-.26-6.53.08s-4.29,1.19-5.81,2.76c-.86.89-1.5,1.99-2.46,2.76-1.4,1.13-3.3,1.44-5.11,1.44-3.8,0-7.59-1.2-10.7-3.38-1.79-1.25-3.48-2.88-5.64-3.2-1.82-.27-3.67.46-5.12,1.58"/>
    <path class="st1" d="M446.91,231.33c-7.3-21.07-7.65-28.43-5.84-46.74"/>
    <path class="st1" d="M480.64,254.48c-5.69,3.9-11.59,7.64-18.12,9.85-6.48,2.19-13.4,2.81-19.96,4.75-3.23.96-6.4,2.25-9.74,2.67-7.09.9-14-2.15-21-3.61-4.96-1.03-10.14-1.29-14.84-3.17-4.95-1.97-9.11-5.63-14.11-7.47"/>
    <g>
      <path class="st1" d="M515.24,226.87c-.28-1.12-1.05-2.05-1.78-2.95-21.04-26.04-23.52-61.97-35.35-93.3-4.53-11.99-10.5-23.44-17.73-34.02-3.74-5.47-7.91-10.8-13.41-14.49-5.5-3.68-12.57-5.52-18.88-3.49-8.71,2.8-19.95-.97-30.33,1.58-9.96,2.44-16.96,11.24-22.35,19.95-13.29,21.46-24.35,93.78-29.24,97.73-2.93,6.58-.82,4.87,1.13,12.33,3.15,12.04,2.22,24.78,4.4,37.03,1.69,9.5,5.24,18.56,8.76,27.54.55,1.4,4.53,5.93,9.6,11.18.53.55,1.07,1.1,1.62,1.66,6.41,6.53,14.06,13.76,18.76,17.37,7.31,5.61,14.61,11.22,22.12,16.56,3.22,2.29,6.54,4.56,10.32,5.7,4.07,1.22,8.39.55,12.63.61,18.61.24,39.99-18.29,53.22-33.02,1.18-1.32,2.3-2.6,3.35-3.84,3.13-3.72,5.62-7.02,7.23-9.47,3.83-5.81,6.19-12.46,8.16-19.13,3.12-10.56,5.35-21.35,7.58-32.13.23-1.12.46-2.29.18-3.4Z"/>
      <path class="st1" d="M275.53,493.14c1.86-1.59,3.85-3.17,4.92-5.36,3.3-6.72-3.37-13.73-8.49-19.2-10.26-10.97-16.4-26.78-12.48-41.28,3.92-14.49,17.02-26.01,22.76-39.28-7.22,2.5-14.67,4.34-22.22,5.48-6.4.96-12.99,1.45-18.96,3.96-5.97,2.51-11.37,7.58-12.12,14.01-.2,1.72-.08,3.52-.81,5.09-1.17,2.52-4.09,3.59-6.61,4.77-15.91,7.47-22.57,26.22-26.94,43.24-6.25,24.33-11.03,49.04-14.31,73.95-.21,1.59-.33,3.42.8,4.56.83.83,2.1,1.01,3.28,1.07,6.59.35,13.14-1.57,19.73-1.25,7.24.35,14.04,3.37,21.12,4.94,7.93,1.76,15.99,1.68,24.52,1.2.88-21.17,9.68-42.07,25.81-55.9Z"/>
      <path class="st1" d="M486.23,519.12c2.8-3.74,6.84-6.37,9.9-9.92s5.04-8.78,2.76-12.87c-1.01-1.81-2.71-3.11-4.28-4.45-9.9-8.45-16.52-20.66-18.19-33.57-5.46,12.32-10.98,24.87-12.54,38.25-1.56,13.38,1.42,27.96,10.96,37.48-15.3-13.18-23.56-34.09-21.41-54.16,3.13-29.24,25.81-52.2,37.08-79.38-25.34,20.91-61.01,29-92.8,20.43-4.65-1.25-9.24-2.83-13.85-4.3.05,1.52.03,3.05-.11,4.59-1.21,12.68-9.95,23.6-20.43,30.85-8.76,6.06-20.47,13.17-18.46,23.63,1.34,6.96,8.41,11,12.88,16.5,7.88,9.68,7.24,24.27,1.42,35.31-3.09,5.85-7.37,10.88-12.23,15.38,45.15-3.09,90.38-5.06,135.62-5.95-1.04-6.29-.08-12.76,3.7-17.81Z"/>
      <path class="st1" d="M609.38,374.53c-3.73,4.5-5.51,10.26-7.15,15.87-3.81,13.04-7.33,26.17-10.56,39.37,0,0,58.21,36.01,20.59,80.63-5.42,6.43-9.18,14.59-16.71,18.33,8.32-18.49,8.4-40.51.22-59.07,2.56,7.07-.38,14.96-4.42,21.31-4.04,6.34-19.51,29.27-17.5,34.66,1.74,4.67,5.46,8.28,9.59,11.15,11.52.19,23.04.44,34.56.77,29.42.86,58.83,2.18,84.96,3.87-5.91-30.28-11.45-60.63-16.59-91.05-3.24-19.17-6.84-39.48-19.75-54.02-13.5-15.21-34.38-20.98-54.5-24.71-.95.93-1.89,1.87-2.74,2.89Z"/>
      <path class="st1" d="M475.24,364.42c-8.1-1.45-14.81,4.75-21.5,7.31-21.62,8.28-46.88,6.11-66.99-5.27-1.37-.77-2.71-1.59-4.02-2.44-.68,1.23-1.44,2.41-2.21,3.58-2.56,3.89-5.15,7.62-4.64,12.6,1.28,12.38,7.54,24.17,7.97,36.43,4.61,1.47,9.2,3.05,13.85,4.3,31.79,8.57,67.46.48,92.8-20.43.11-.27.23-.54.34-.81,1.2-2.96-10.63-21.28-15.6-35.27Z"/>
      <path class="st1" d="M488.34,320.49c-1.04-6.36-2.08-12.83-1.16-19.21.32-2.2.88-4.33,1.56-6.44-13.24,14.73-34.62,33.26-53.22,33.02-4.24-.05-8.57.61-12.63-.61-3.78-1.13-7.11-3.41-10.32-5.7-7.5-5.34-14.81-10.95-22.12-16.56-4.7-3.61-12.36-10.84-18.76-17.37,7.66,23.85,15.66,49.05,13.28,69.88-.27,2.41-1.14,4.52-2.23,6.5,1.32.86,2.66,1.67,4.02,2.44,20.11,11.38,45.37,13.55,66.99,5.27,6.69-2.56,13.4-8.77,21.5-7.31-1.28-3.61-.61-6.53-.61-7.85,0-.65.04-1.3.1-1.95,1.23-13.77,14.85-26.56,13.61-34.13Z"/>
      <path class="st1" d="M591.67,429.77c3.23-13.2,6.75-26.33,10.56-39.37,1.64-5.61,3.42-11.37,7.15-15.87.85-1.02,1.79-1.96,2.74-2.89,1.35-1.32,2.72-2.63,3.9-4.1,8.18-10.27,4.42-25.85-3.27-36.49s-18.64-18.62-26.16-29.38c-4.91-7.03-8.3-15.9-5.95-24.14,1.15-4.01,3.56-7.53,5.56-11.19,7.13-13.06,9.14-28.83,4.13-43.53-5.15-17.93-9-31.52-18.59-47.52-15.49-25.85-27.48-54.24-42.98-80.09-10.4-17.36-30.51-35.24-46.49-47.65-14.7-11.41-35-17.41-52.33-11.43-16.49-6.63-36.15-.6-49.93,10.79-14.15,11.69-28.41,27.91-37.21,44.02-23.35,42.73-42.42,56.93-45.01,136.23-.28,8.67-.69,17.39-2.53,25.87-3.24,14.95-11.84,28.07-18.54,41.82-6.7,13.75-11.61,29.65-6.91,44.21,3.91,12.12,14.16,22.12,15.08,34.83.36,5.04-.74,9.69-2.67,14.16-5.74,13.27-18.85,24.79-22.76,39.28-3.92,14.5,2.23,30.32,12.48,41.28,5.12,5.47,11.79,12.47,8.49,19.2-1.08,2.2-3.07,3.77-4.92,5.36-16.13,13.83-24.94,34.73-25.81,55.9,9.98-.56,20.61-1.65,32.44-.97,12.46-1.14,24.92-2.19,37.39-3.17,10.34-5.54,19.89-13.68,21.81-25.01.11,9.63-5.69,17.77-13.12,24.34,6.22-.47,12.45-.92,18.68-1.35,4.87-4.5,9.15-9.53,12.23-15.38,5.82-11.04,6.46-25.63-1.42-35.31-4.47-5.49-11.54-9.54-12.88-16.5-2.02-10.46,9.7-17.57,18.46-23.63,10.47-7.24,19.21-18.17,20.43-30.85.15-1.54.17-3.07.11-4.59-.43-12.26-6.69-24.05-7.97-36.43-.51-4.98,2.08-8.72,4.64-12.6.77-1.17,1.53-2.35,2.21-3.58,1.09-1.98,1.95-4.1,2.23-6.5,2.38-20.84-5.62-46.03-13.28-69.88-.55-.56-1.09-1.11-1.62-1.66-5.07-5.25-9.05-9.78-9.6-11.18-3.52-8.98-7.06-18.04-8.76-27.54-2.18-12.25-1.25-24.99-4.4-37.03-1.95-7.46-4.07-5.75-1.13-12.33,4.9-3.94,15.96-76.26,29.24-97.73,5.4-8.72,12.4-17.51,22.35-19.95,10.38-2.55,21.62,1.23,30.33-1.58,6.3-2.03,13.37-.19,18.88,3.49,5.5,3.68,9.68,9.02,13.41,14.49,7.23,10.58,13.21,22.03,17.73,34.02,11.83,31.32,14.31,67.25,35.35,93.3.73.9,1.5,1.82,1.78,2.95.28,1.11.05,2.28-.18,3.4-2.23,10.78-4.46,21.57-7.58,32.13-1.97,6.67-4.33,13.32-8.16,19.13-1.61,2.45-4.1,5.75-7.23,9.47-1.04,1.24-2.16,2.52-3.35,3.84-.68,2.1-1.24,4.24-1.56,6.44-.92,6.37.12,12.85,1.16,19.21,1.24,7.57-12.38,20.35-13.61,34.13-.06.65-.1,1.3-.1,1.95,0,1.32-.67,4.24.61,7.85,4.97,13.98,16.8,32.3,15.6,35.27-.11.27-.23.54-.34.81-11.27,27.17-33.95,50.14-37.08,79.38-2.15,20.07,6.11,40.98,21.41,54.16-9.54-9.51-12.52-24.1-10.96-37.48,1.56-13.38,7.08-25.93,12.54-38.25,1.67,12.91,8.29,25.12,18.19,33.57,1.58,1.34,3.27,2.65,4.28,4.45,2.28,4.08.3,9.32-2.76,12.87s-7.09,6.17-9.9,9.92c-3.78,5.05-4.73,11.52-3.7,17.81,33.63-.66,67.28-.71,100.91-.15-4.13-2.87-7.86-6.48-9.59-11.15-2.01-5.4,13.46-28.32,17.5-34.66,4.04-6.34,6.98-14.24,4.42-21.31,8.18,18.55,8.1,40.57-.22,59.07,7.53-3.74,11.29-11.9,16.71-18.33,37.62-44.62-20.59-80.63-20.59-80.63Z"/>
    </g>
    <path class="st1" d="M405.33,244.08s-11.53-7.32-3.35-15.51"/>
    <path class="st1" d="M420.94,242.18c-2.6-1.33-11.53-11-2.6-20.67"/>
    <circle class="st7" cx="389.81" cy="191.54" r="6.96"/>
    <circle class="st7" cx="472.46" cy="188.22" r="6.96"/>
    <path class="st1" d="M515.24,226.87s46.88,17.51,36.76,45.04-34.39,34.39-11.79,60.27,41.86,16.34,46.88,44.55"/>
    <path class="st1" d="M346.16,197.89s-11.07,47.34-41.21,55.7c-9.34,2.59,6.7,34.04,6.7,34.04"/>
    <path class="st1" d="M351.7,247.25s-38.38,73.29-79.82,84.93"/>
    <path class="st1" d="M415.49,79.61s-2.03-33.95,14.46-43.52"/>
    <path class="st1" d="M500.02,249.35s-5.69,18.29-15.82,29.17"/>
  </g>
</svg>