<?xml version="1.0" encoding="UTF-8"?>
<svg id="Layer_1" data-name="Layer 1" xmlns="http://www.w3.org/2000/svg" xmlns:xlink="http://www.w3.org/1999/xlink" viewBox="0 0 841.89 467.72">
  <defs>
    <style>
      .cls-1, .cls-2 {
        fill: none;
      }

      .cls-3 {
        fill: #55565a;
      }

      .cls-4 {
        fill: #fff;
      }

      .cls-5 {
        fill: #ddddde;
      }

      .cls-6 {
        fill: #e2baa7;
      }

      .cls-7 {
        fill: #5f9c70;
      }

      .cls-8 {
        fill: #77665f;
      }

      .cls-9 {
        clip-path: url(#clippath);
      }

      .cls-2 {
        stroke: #55565a;
        stroke-miterlimit: 10;
      }
    </style>
    <clipPath id="clippath">
      <rect class="cls-1" width="841.89" height="467.72"/>
    </clipPath>
  </defs>
  <g class="cls-9">
    <rect class="cls-7" width="841.89" height="467.72"/>
    <g>
      <path class="cls-4" d="M345.02,64.38c.57.31,1.14.62,1.71.93-.51-.42-1.09-.72-1.71-.93Z"/>
      <path class="cls-4" d="M320.98,200.56c.97,1.21,1.86,2.47,2.68,3.77.26-3.04.56-6.09.92-9.12,2.23-19.05,6.39-38.23,3.72-57.21,1.42,3.52,1.86,2.47,2.29,1.42,4.64-2.21,7.14-8.12,5.48-12.98,2.49,4.07,4.99,8.14,7.48,12.22-3.73-8.98-.95-19.75,5.16-27.31,6.11-7.57,15.05-12.35,24.24-15.57,5.02-1.76,10.41-3.12,15.62-2.07,5.98,1.2,10.92,5.41,16.7,7.37,12.98,4.41,26.7-3.1,38.34-10.32,3.74,1.45,7.34,3.93,10.38,6.97-.21-2.13,1.63-4.04,3.7-4.61,2.06-.57,4.26-.11,6.33.47,18.88,5.3,34.34,21.32,38.97,40.38-2.61,7.01,4.58,15.84,1.13,23.17-.99,2.09-2.74,3.74-3.8,5.79-2.53,4.91-.61,10.82,1.01,16.1,3.32,10.83,5.17,22.1,5.58,33.41,1.17-.76,2.71-.91,3.96,1.51,1.89-2.33,3.85-4.71,6.44-6.22,1.36-.79,2.95-1.28,4.52-1.35,2.16-2.67,4.04-5.5,5.31-8.69,2.49-6.25,2.35-13.18,2.72-19.89.64-11.73,2.91-23.34,3.35-35.08s-1.12-24-7.46-33.89c-1.95-3.04-4.42-6.09-4.47-9.7-.03-2.03.73-3.98,1.17-5.97,2.4-10.73-6.12-22.57-19.23-23.55-6.77-11.16-21.66-16.61-34.03-12.47-1.8-15.04-13.07-28.52-27.55-32.97s-31.37.38-41.31,11.82c-7.94-2.74-17.57.71-21.46,9.75-7.58-4.67-17.08-6.11-25.71-3.91-8.63,2.2-16.27,8.03-20.69,15.76,4.18,2.27,8.36,4.54,12.54,6.81.61.2,1.19.5,1.71.93-.57-.31-1.14-.62-1.71-.93-2.17-.72-4.79-.14-6.71,1.21-2.47,1.73-4.06,4.43-5.53,7.06-6.5,11.59-12.35,23.55-17.68,38.48-1.82,7.76-2.09,15.79-2.34,23.75-.36,11.21-.72,22.43-1.09,33.64-.23,7.15-.46,14.36.71,21.41.32,1.93.75,3.83,1.26,5.71,2.74.41,5.5,2.6,7.35,4.9Z"/>
      <path class="cls-4" d="M321.91,257.43c.08-13.46.17-26.94.87-40.37.22-4.25.51-8.49.88-12.73-.82-1.3-1.71-2.56-2.68-3.77-1.85-2.3-4.61-4.49-7.35-4.9-1.25-.19-2.49,0-3.64.7-2.78,1.72-3.19,5.53-3.3,8.79-.49,13.89-.98,27.77-1.47,41.66-.15,4.37-.23,9.05,2.14,12.73,2.08,3.24,5.79,5.15,9.56,5.9,1.66.33,3.34.46,5.03.48-.07-2.83-.06-5.67-.04-8.48Z"/>
      <path class="cls-4" d="M510.86,213.93c-1.25-2.42-2.78-2.27-3.96-1.51.14,3.85.12,7.7-.09,11.54-.35,6.74-1.22,13.45-2.62,20.06-.77,8.4-2.58,16.91-5.35,25.18,0,.26-.01.52-.03.78,3.27,3.64,9.07,5.46,13.94,4.06,5.93-1.7,10.25-7.07,12.24-12.91,1.99-5.84,1.99-12.15,1.79-18.31-.2-6.16-.57-12.41.71-18.44.64-2.99,1.68-5.92,1.81-8.97s-.88-6.4-3.46-8.04c-1.2-.77-2.61-1.06-4.04-1-1.57.07-3.16.56-4.52,1.35-2.6,1.5-4.55,3.89-6.44,6.22Z"/>
      <path class="cls-4" d="M498.65,269.8c.05.06.11.12.17.18.01-.26.02-.52.03-.78-.07.2-.13.4-.19.6Z"/>
      <path class="cls-4" d="M506.9,212.42c-.41-11.32-2.26-22.58-5.58-33.41-1.62-5.28-3.54-11.19-1.01-16.1,1.06-2.06,2.81-3.7,3.8-5.79,3.45-7.32-3.74-16.16-1.13-23.17-4.63-19.05-20.09-35.08-38.97-40.38-2.06-.58-4.26-1.04-6.33-.47-2.06.57-3.91,2.48-3.7,4.61-3.04-3.04-6.63-5.52-10.38-6.97-11.65,7.22-25.37,14.73-38.34,10.32-5.78-1.96-10.72-6.16-16.7-7.37-5.21-1.05-10.6.31-15.62,2.07-9.18,3.22-18.13,8-24.24,15.57-6.11,7.57-8.89,18.33-5.16,27.31-2.49-4.07-4.99-8.14-7.48-12.22,1.66,4.86-.84,10.78-5.48,12.98-.44,1.05-.87,2.11-2.29-1.42,2.67,18.99-1.5,38.17-3.72,57.21-.35,3.04-.66,6.08-.92,9.12-.37,4.24-.65,8.48-.88,12.73-.7,13.43-.79,26.91-.87,40.37-.02,2.81-.03,5.65.04,8.48.18,7.54.94,15.05,3.73,22.01,3.39,8.45,9.51,15.36,16.51,21.31,2.74,2.33,5.62,4.53,8.52,6.6,11.3,8.06,23.56,15.05,36.95,18.73,27.22,7.49,57.73.08,79.48-17.92,14.76-12.22,25.42-28.98,31.52-46.86.07-.2.13-.4.19-.6,2.77-8.27,4.58-16.78,5.35-25.18,1.4-6.6,2.27-13.32,2.62-20.06.2-3.84.22-7.7.09-11.54Z"/>
      <path class="cls-4" d="M558.43,396.66c-9.18-7.95-18.54-13.3-30.07-17.1-5.11-1.68-10.41-5.39-15.78-5.57,2.38,2.37,5.02,4.5,7.95,6.3,3.82,2.36,8.68,5.26,8.14,9.72-.39,3.18-3.47,5.23-6.28,6.79-20.12,11.21-41.41,20.17-62.66,29.05-28.08,11.73-58,23.61-88.06,18.9-11.28-1.77-23.76-7.6-26.07-18.78-1.59-7.73,2.25-15.39,4.4-22.99.8-2.82,1.36-5.66,1.72-8.52-47.02,25.47-92.66,53.49-136.64,83.91,74.09-12.03,149.73-4.16,224.68-.04,77.4,4.25,155.02,4.47,232.44.64-40.21-24.08-78.32-51.66-113.76-82.32Z"/>
      <path class="cls-4" d="M520.52,380.3c-2.93-1.81-5.57-3.93-7.95-6.3-12.13-12.11-17.29-30.83-17.72-48.38-.46-18.6,3.22-37.06,3.96-55.63-.06-.06-.12-.12-.17-.18-6.1,17.89-16.76,34.64-31.52,46.86-21.74,18-52.26,25.4-79.48,17.92-13.38-3.68-25.65-10.67-36.95-18.73-2.9-2.07-5.78-4.27-8.52-6.6-2.06,28.31,13.11,57.37,9.53,85.23-.37,2.85-.92,5.69-1.72,8.52-2.15,7.6-5.99,15.26-4.4,22.99,2.3,11.18,14.79,17.02,26.07,18.78,30.06,4.71,59.98-7.17,88.06-18.9,21.25-8.88,42.54-17.84,62.66-29.05,2.8-1.56,5.89-3.61,6.28-6.79.54-4.46-4.32-7.36-8.14-9.72Z"/>
    </g>
    <g>
      <path class="cls-2" d="M346.02,66.01c.57.31,1.14.62,1.71.93-.51-.42-1.09-.72-1.71-.93Z"/>
      <path class="cls-8" d="M321.98,202.18c.97,1.21,1.86,2.47,2.68,3.77.26-3.04.56-6.09.92-9.12,2.23-19.05,6.39-38.23,3.72-57.21,1.42,3.52,1.86,2.47,2.29,1.42,4.64-2.21,7.14-8.12,5.48-12.98,2.49,4.07,4.99,8.14,7.48,12.22-3.73-8.98-.95-19.75,5.16-27.31,6.11-7.57,15.05-12.35,24.24-15.57,5.02-1.76,10.41-3.12,15.62-2.07,5.98,1.2,10.92,5.41,16.7,7.37,12.98,4.41,26.7-3.1,38.34-10.32,3.74,1.45,7.34,3.93,10.38,6.97-.21-2.13,1.63-4.04,3.7-4.61,2.06-.57,4.26-.11,6.33.47,18.88,5.3,34.34,21.32,38.97,40.38-2.61,7.01,4.58,15.84,1.13,23.17-.99,2.09-2.74,3.74-3.8,5.79-2.53,4.91-.61,10.82,1.01,16.1,3.32,10.83,5.17,22.1,5.58,33.41,1.17-.76,2.71-.91,3.96,1.51,1.89-2.33,3.85-4.71,6.44-6.22,1.36-.79,2.95-1.28,4.52-1.35,2.16-2.67,4.04-5.5,5.31-8.69,2.49-6.25,2.35-13.18,2.72-19.89.64-11.73,2.91-23.34,3.35-35.08s-1.12-24-7.46-33.89c-1.95-3.04-4.42-6.09-4.47-9.7-.03-2.03.73-3.98,1.17-5.97,2.4-10.73-6.12-22.57-19.23-23.55-6.77-11.16-21.66-16.61-34.03-12.47-1.8-15.04-13.07-28.52-27.55-32.97s-31.37.38-41.31,11.82c-7.94-2.74-17.57.71-21.46,9.75-7.58-4.67-17.08-6.11-25.71-3.91-8.63,2.2-16.27,8.03-20.69,15.76,4.18,2.27,8.36,4.54,12.54,6.81.61.2,1.19.5,1.71.93-.57-.31-1.14-.62-1.71-.93-2.17-.72-4.79-.14-6.71,1.21-2.47,1.73-4.06,4.43-5.53,7.06-6.5,11.59-12.35,23.55-17.68,38.48-1.82,7.76-2.09,15.79-2.34,23.75-.36,11.21-.72,22.43-1.09,33.64-.23,7.15-.46,14.36.71,21.41.32,1.93.75,3.83,1.26,5.71,2.74.41,5.5,2.6,7.35,4.9Z"/>
      <path class="cls-6" d="M322.91,259.06c.08-13.46.17-26.94.87-40.37.22-4.25.51-8.49.88-12.73-.82-1.3-1.71-2.56-2.68-3.77-1.85-2.3-4.61-4.49-7.35-4.9-1.25-.19-2.49,0-3.64.7-2.78,1.72-3.19,5.53-3.3,8.79-.49,13.89-.98,27.77-1.47,41.66-.15,4.37-.23,9.05,2.14,12.73,2.08,3.24,5.79,5.15,9.56,5.9,1.66.33,3.34.46,5.03.48-.07-2.83-.06-5.67-.04-8.48Z"/>
      <path class="cls-6" d="M511.86,215.55c-1.25-2.42-2.78-2.27-3.96-1.51.14,3.85.12,7.7-.09,11.54-.35,6.74-1.22,13.45-2.62,20.06-.77,8.4-2.58,16.91-5.35,25.18,0,.26-.01.52-.03.78,3.27,3.64,9.07,5.46,13.94,4.06,5.93-1.7,10.25-7.07,12.24-12.91,1.99-5.84,1.99-12.15,1.79-18.31-.2-6.16-.57-12.41.71-18.44.64-2.99,1.68-5.92,1.81-8.97s-.88-6.4-3.46-8.04c-1.2-.77-2.61-1.06-4.04-1-1.57.07-3.16.56-4.52,1.35-2.6,1.5-4.55,3.89-6.44,6.22Z"/>
      <path class="cls-6" d="M499.65,271.42c.05.06.11.12.17.18.01-.26.02-.52.03-.78-.07.2-.13.4-.19.6Z"/>
      <path class="cls-6" d="M507.9,214.04c-.41-11.32-2.26-22.58-5.58-33.41-1.62-5.28-3.54-11.19-1.01-16.1,1.06-2.06,2.81-3.7,3.8-5.79,3.45-7.32-3.74-16.16-1.13-23.17-4.63-19.05-20.09-35.08-38.97-40.38-2.06-.58-4.26-1.04-6.33-.47-2.06.57-3.91,2.48-3.7,4.61-3.04-3.04-6.63-5.52-10.38-6.97-11.65,7.22-25.37,14.73-38.34,10.32-5.78-1.96-10.72-6.16-16.7-7.37-5.21-1.05-10.6.31-15.62,2.07-9.18,3.22-18.13,8-24.24,15.57-6.11,7.57-8.89,18.33-5.16,27.31-2.49-4.07-4.99-8.14-7.48-12.22,1.66,4.86-.84,10.78-5.48,12.98-.44,1.05-.87,2.11-2.29-1.42,2.67,18.99-1.5,38.17-3.72,57.21-.35,3.04-.66,6.08-.92,9.12-.37,4.24-.65,8.48-.88,12.73-.7,13.43-.79,26.91-.87,40.37-.02,2.81-.03,5.65.04,8.48.18,7.54.94,15.05,3.73,22.01,3.39,8.45,9.51,15.36,16.51,21.31,2.74,2.33,5.62,4.53,8.52,6.6,11.3,8.06,23.56,15.05,36.95,18.73,27.22,7.49,57.73.08,79.48-17.92,14.76-12.22,25.42-28.98,31.52-46.86.07-.2.13-.4.19-.6,2.77-8.27,4.58-16.78,5.35-25.18,1.4-6.6,2.27-13.32,2.62-20.06.2-3.84.22-7.7.09-11.54Z"/>
      <path class="cls-5" d="M559.43,398.29c-9.18-7.95-18.54-13.3-30.07-17.1-5.11-1.68-10.41-5.39-15.78-5.57,2.38,2.37,5.02,4.5,7.95,6.3,3.82,2.36,8.68,5.26,8.14,9.72-.39,3.18-3.47,5.23-6.28,6.79-20.12,11.21-41.41,20.17-62.66,29.05-28.08,11.73-58,23.61-88.06,18.9-11.28-1.77-23.76-7.6-26.07-18.78-1.59-7.73,2.25-15.39,4.4-22.99.8-2.82,1.36-5.66,1.72-8.52-47.02,25.47-92.66,53.49-136.64,83.91,74.09-12.03,149.73-4.16,224.68-.04,77.4,4.25,155.02,4.47,232.44.64-40.21-24.08-78.32-51.66-113.76-82.32Z"/>
      <path class="cls-6" d="M521.52,381.92c-2.93-1.81-5.57-3.93-7.95-6.3-12.13-12.11-17.29-30.83-17.72-48.38-.46-18.6,3.22-37.06,3.96-55.63-.06-.06-.12-.12-.17-.18-6.1,17.89-16.76,34.64-31.52,46.86-21.74,18-52.26,25.4-79.48,17.92-13.38-3.68-25.65-10.67-36.95-18.73-2.9-2.07-5.78-4.27-8.52-6.6-2.06,28.31,13.11,57.37,9.53,85.23-.37,2.85-.92,5.69-1.72,8.52-2.15,7.6-5.99,15.26-4.4,22.99,2.3,11.18,14.79,17.02,26.07,18.78,30.06,4.71,59.98-7.17,88.06-18.9,21.25-8.88,42.54-17.84,62.66-29.05,2.8-1.56,5.89-3.61,6.28-6.79.54-4.46-4.32-7.36-8.14-9.72Z"/>
    </g>
    <path class="cls-4" d="M448.24,271.2c-12.3-9.1-28.12-12.4-43.41-12.08-15.29.31-27.39,4.33-42.25,7.96,8.75,6.99,17.68,8.06,28.86,8.86,19.17,1.37,38.85,1.65,56.8-4.73Z"/>
    <path class="cls-2" d="M419.47,178.99c-2.21,9.48-2.79,18.52-.37,27.68"/>
    <path class="cls-2" d="M315.48,207.4c-4.02,6.52-6.12,14.19-5.99,21.85"/>
    <path class="cls-2" d="M316.95,232c-.05,6.88-1.41,13.74-4,20.11"/>
    <path class="cls-2" d="M519.26,220.65c.51,7.17,1.02,14.35,1.54,21.52"/>
    <path class="cls-2" d="M512.58,235.09c1.08,5.69,2.16,11.38,3.23,17.07.29,1.51.54,3.21-.34,4.48-1.19,1.71-4.31,1.35-5.08-.58"/>
    <g>
      <path class="cls-2" d="M344.02,65.52c.57.31,1.14.62,1.71.93-.51-.42-1.09-.72-1.71-.93Z"/>
      <path class="cls-2" d="M319.97,201.7c.97,1.21,1.86,2.47,2.68,3.77.26-3.04.56-6.09.92-9.12,2.23-19.05,6.39-38.23,3.72-57.21,1.42,3.52,1.86,2.47,2.29,1.42,4.64-2.21,7.14-8.12,5.48-12.98,2.49,4.07,4.99,8.14,7.48,12.22-3.73-8.98-.95-19.75,5.16-27.31,6.11-7.57,15.05-12.35,24.24-15.57,5.02-1.76,10.41-3.12,15.62-2.07,5.98,1.2,10.92,5.41,16.7,7.37,12.98,4.41,26.7-3.1,38.34-10.32,3.74,1.45,7.34,3.93,10.38,6.97-.21-2.13,1.63-4.04,3.7-4.61,2.06-.57,4.26-.11,6.33.47,18.88,5.3,34.34,21.32,38.97,40.38-2.61,7.01,4.58,15.84,1.13,23.17-.99,2.09-2.74,3.74-3.8,5.79-2.53,4.91-.61,10.82,1.01,16.1,3.32,10.83,5.17,22.1,5.58,33.41,1.17-.76,2.71-.91,3.96,1.51,1.89-2.33,3.85-4.71,6.44-6.22,1.36-.79,2.95-1.28,4.52-1.35,2.16-2.67,4.04-5.5,5.31-8.69,2.49-6.25,2.35-13.18,2.72-19.89.64-11.73,2.91-23.34,3.35-35.08.44-11.74-1.12-24-7.46-33.89-1.95-3.04-4.42-6.09-4.47-9.7-.03-2.03.73-3.98,1.17-5.97,2.4-10.73-6.12-22.57-19.23-23.55-6.77-11.16-21.66-16.61-34.03-12.47-1.8-15.04-13.07-28.52-27.55-32.97s-31.37.38-41.31,11.82c-7.94-2.74-17.57.71-21.46,9.75-7.58-4.67-17.08-6.11-25.71-3.91-8.63,2.2-16.27,8.03-20.69,15.76,4.18,2.27,8.36,4.54,12.54,6.81.61.2,1.19.5,1.71.93-.57-.31-1.14-.62-1.71-.93-2.17-.72-4.79-.14-6.71,1.21-2.47,1.73-4.06,4.43-5.53,7.06-6.5,11.59-12.35,23.55-17.68,38.48-1.82,7.76-2.09,15.79-2.34,23.75-.36,11.21-.72,22.43-1.09,33.64-.23,7.15-.46,14.36.71,21.41.32,1.93.75,3.83,1.26,5.71,2.74.41,5.5,2.6,7.35,4.9Z"/>
      <path class="cls-2" d="M320.91,258.57c.08-13.46.17-26.94.87-40.37.22-4.25.51-8.49.88-12.73-.82-1.3-1.71-2.56-2.68-3.77-1.85-2.3-4.61-4.49-7.35-4.9-1.25-.19-2.49,0-3.64.7-2.78,1.72-3.19,5.53-3.3,8.79-.49,13.89-.98,27.77-1.47,41.66-.15,4.37-.23,9.05,2.14,12.73,2.08,3.24,5.79,5.15,9.56,5.9,1.66.33,3.34.46,5.03.48-.07-2.83-.06-5.67-.04-8.48Z"/>
      <path class="cls-2" d="M509.86,215.07c-1.25-2.42-2.78-2.27-3.96-1.51.14,3.85.12,7.7-.09,11.54-.35,6.74-1.22,13.45-2.62,20.06-.77,8.4-2.58,16.91-5.35,25.18,0,.26-.01.52-.03.78,3.27,3.64,9.07,5.46,13.94,4.06,5.93-1.7,10.25-7.07,12.24-12.91,1.99-5.84,1.99-12.15,1.79-18.31-.2-6.16-.57-12.41.71-18.44.64-2.99,1.68-5.92,1.81-8.97s-.88-6.4-3.46-8.04c-1.2-.77-2.61-1.06-4.04-1-1.57.07-3.16.56-4.52,1.35-2.6,1.5-4.55,3.89-6.44,6.22Z"/>
      <path class="cls-2" d="M497.65,270.94c.05.06.11.12.17.18.01-.26.02-.52.03-.78-.07.2-.13.4-.19.6Z"/>
      <path class="cls-2" d="M505.9,213.56c-.41-11.32-2.26-22.58-5.58-33.41-1.62-5.28-3.54-11.19-1.01-16.1,1.06-2.06,2.81-3.7,3.8-5.79,3.45-7.32-3.74-16.16-1.13-23.17-4.63-19.05-20.09-35.08-38.97-40.38-2.06-.58-4.26-1.04-6.33-.47-2.06.57-3.91,2.48-3.7,4.61-3.04-3.04-6.63-5.52-10.38-6.97-11.65,7.22-25.37,14.73-38.34,10.32-5.78-1.96-10.72-6.16-16.7-7.37-5.21-1.05-10.6.31-15.62,2.07-9.18,3.22-18.13,8-24.24,15.57-6.11,7.57-8.89,18.33-5.16,27.31-2.49-4.07-4.99-8.14-7.48-12.22,1.66,4.86-.84,10.78-5.48,12.98-.44,1.05-.87,2.11-2.29-1.42,2.67,18.99-1.5,38.17-3.72,57.21-.35,3.04-.66,6.08-.92,9.12-.37,4.24-.65,8.48-.88,12.73-.7,13.43-.79,26.91-.87,40.37-.02,2.81-.03,5.65.04,8.48.18,7.54.94,15.05,3.73,22.01,3.39,8.45,9.51,15.36,16.51,21.31,2.74,2.33,5.62,4.53,8.52,6.6,11.3,8.06,23.56,15.05,36.95,18.73,27.22,7.49,57.73.08,79.48-17.92,14.76-12.22,25.42-28.98,31.52-46.86.07-.2.13-.4.19-.6,2.77-8.27,4.58-16.78,5.35-25.18,1.4-6.6,2.27-13.32,2.62-20.06.2-3.84.22-7.7.09-11.54Z"/>
      <path class="cls-2" d="M557.43,397.8c-9.18-7.95-18.54-13.3-30.07-17.1-5.11-1.68-10.41-5.39-15.78-5.57,2.38,2.37,5.02,4.5,7.95,6.3,3.82,2.36,8.68,5.26,8.14,9.72-.39,3.18-3.47,5.23-6.28,6.79-20.12,11.21-41.41,20.17-62.66,29.05-28.08,11.73-58,23.61-88.06,18.9-11.28-1.77-23.76-7.6-26.07-18.78-1.59-7.73,2.25-15.39,4.4-22.99.8-2.82,1.36-5.66,1.72-8.52-47.02,25.47-92.66,53.49-136.64,83.91,74.09-12.03,149.73-4.16,224.68-.04,77.4,4.25,155.02,4.47,232.44.64-40.21-24.08-78.32-51.66-113.76-82.32Z"/>
      <path class="cls-2" d="M519.52,381.44c-2.93-1.81-5.57-3.93-7.95-6.3-12.13-12.11-17.29-30.83-17.72-48.38-.46-18.6,3.22-37.06,3.96-55.63-.06-.06-.12-.12-.17-.18-6.1,17.89-16.76,34.64-31.52,46.86-21.74,18-52.26,25.4-79.48,17.92-13.38-3.68-25.65-10.67-36.95-18.73-2.9-2.07-5.78-4.27-8.52-6.6-2.06,28.31,13.11,57.37,9.53,85.23-.37,2.85-.92,5.69-1.72,8.52-2.15,7.6-5.99,15.26-4.4,22.99,2.3,11.18,14.79,17.02,26.07,18.78,30.06,4.71,59.98-7.17,88.06-18.9,21.25-8.88,42.54-17.84,62.66-29.05,2.8-1.56,5.89-3.61,6.28-6.79.54-4.46-4.32-7.36-8.14-9.72Z"/>
    </g>
    <path class="cls-2" d="M390.44,212.7s-9.25,0-11.01,5.63c-2.22,7.08-.88,10.95,3.96,10.92s7.65-4,13.36,4.15c2.93,4.18,14.59,2.63,16.69-1.99s9.37-5.25,14.65-2.16c5.29,3.08,10.32-5.42.66-14"/>
    <circle class="cls-3" cx="369.68" cy="190.51" r="7.1"/>
    <circle class="cls-3" cx="450.73" cy="193.63" r="7.1"/>
    <path class="cls-2" d="M376.78,90.02c-1.98-.44-35.46-9.69-43.39,9.25-7.93,18.94-3.56,22.88-12.5,26.87"/>
    <path class="cls-2" d="M418.5,99.71c-5.83-18.46-18.46-49.47-40.63-52.84"/>
    <path class="cls-2" d="M431.62,87.37s-8.37-27.31-3.96-34.8,3.53-19.82-10.13-22.47"/>
    <path class="cls-2" d="M442.77,90.44c.33-2.64,5.8-30.79,4.61-40.5-1.2-9.71-6.04-20.2-23.66-22.89"/>
    <path class="cls-2" d="M456.68,94.24c5.26-8.25,21-12.35,30-11.84,12.38.69,26.17,6.72,29.4,19.86"/>
    <path class="cls-2" d="M452.77,89.14c0-1.32,3.07-25.16,15.41-30.86"/>
    <path class="cls-2" d="M558.43,400.29s-91.18,63.52-167.87,66.69-63.98-20.28-62.95-29.55,15.95-22.55,22.39-34.44"/>
    <path class="cls-2" d="M448.24,271.2c-12.3-9.1-28.12-12.4-43.41-12.08-15.29.31-27.39,4.33-42.25,7.96,8.75,6.99,17.68,8.06,28.86,8.86,19.17,1.37,38.85,1.65,56.8-4.73Z"/>
  </g>
</svg>