<?xml version="1.0" encoding="UTF-8"?>
<svg id="Layer_1" xmlns="http://www.w3.org/2000/svg" xmlns:xlink="http://www.w3.org/1999/xlink" version="1.1" viewBox="0 0 841.89 467.72">
  <!-- Generator: Adobe Illustrator 29.0.0, SVG Export Plug-In . SVG Version: 2.1.0 Build 186)  -->
  <defs>
    <style>
      .st0, .st1 {
        fill: none;
      }

      .st2 {
        fill: #deece2;
      }

      .st3 {
        fill: #55565a;
      }

      .st4 {
        fill: #f7c4b5;
      }

      .st5 {
        opacity: .65;
      }

      .st5, .st6 {
        fill: #fff;
      }

      .st7 {
        fill: #968178;
      }

      .st8 {
        fill: #97999b;
      }

      .st9 {
        fill: #37383b;
      }

      .st10 {
        clip-path: url(#clippath);
      }

      .st1 {
        stroke: #55565a;
        stroke-miterlimit: 10;
      }
    </style>
    <clipPath id="clippath">
      <rect class="st0" y="-1.06" width="841.89" height="467.72"/>
    </clipPath>
  </defs>
  <g class="st10">
    <rect class="st2" y="-1.06" width="841.89" height="467.72"/>
    <g>
      <path class="st6" d="M520.54,184.67c-.27-4.36-1.87-8.9-4.95-11.87-1.47-1.42-3.83-1.37-5.31.04-.09.08-.17.16-.26.24-.32,1.32-.67,2.63-1.11,3.91-.5,1.46-1.09,2.9-1.37,4.41-.35,1.88-.22,3.8-.09,5.71.33,4.74-.05,7.64-.68,10.11.91,6.39,1.45,12.84,1.59,19.3.01.13.01.22,0,.3.09,4.28,0,8.56-.25,12.84-.24,4.02-.08,10.35-.56,12.86h0c2.92.16,5.57-1.98,6.89-4.59s1.58-5.58,1.77-8.48c.62-9.42.77-18.89,2.33-28.2.92-5.5,2.35-11.01,2-16.58Z"/>
      <path class="st6" d="M510.03,152s.86-.66.97-.5c.86-.4,1.19-1.5,1.05-2.44s-.65-1.77-1.07-2.63c-.42-.85-.37-1.95-.37-1.95-.66-5.11-1.32-10.22-1.98-15.33-.13-1.03.1-2.49,1.13-2.47.33,0,.66.19.98.1.62-.18.53-1.08.29-1.69-.85-2.21-1.71-4.43-2.56-6.64.13.01.24.05.36.1-1.24-1.12-2.48-2.25-3.72-3.37-.19-.17-.38-.35-.46-.59-.22-.67.55-1.22,1.2-1.46.66-.24,1.46-.61,1.46-1.31,0-.49-.44-.86-.8-1.19-3.22-2.91-3.6-7.95-5.43-11.29-.02-2.48-1.77-4.59-3.58-6.28-1.81-1.69-3.85-3.3-4.8-5.59-1.19-2.86-.42-6.13-.83-9.2-.04-.31-.1-.64-.31-.88-.32-.36-.85-.38-1.32-.49-2.13-.49-3.13-2.95-3.43-5.12-.3-2.17-.33-4.56-1.75-6.23-1.52-1.78-4.3-2.25-5.66-3.09-.47-3.13-1.14-6.24-1.99-9.29-.19,2.28-.62,4.54-1.29,6.73-1.57-4.42-4.08-8.51-7.33-11.91-.55,1.44-.84,2.97-.86,4.51-.76-1.02-1.53-2.04-1.6-3.14-8.38-8.32-18.83-14.54-30.15-17.94-1.4-.42-2.82-.8-4.23-1.17-1.78-.48-3.56-.95-5.34-1.43-4.72-1.26-9.48-2.53-14.36-2.84-4.06-.26-8.14.15-12.18.67-2.92.37-5.86.81-8.81.65-2.55-.14-5.07-.72-7.63-.83-9.89-.43-18.6,6.05-26.28,12.31-.87.71-1.75,1.43-2.78,1.88-1.26.55-2.66.67-3.97,1.1-4.91,1.61-7.33,6.99-9.19,11.81-2.06,5.36-4.13,10.72-6.1,16.18-7.59,14.58-18.57,27.62-22.99,43.45-.27.95-.51,1.93-.38,2.91.18,1.39,1.06,2.58,1.48,3.92.64,2.05.15,4.25-.28,6.36-2.23,10.91-2.7,22.17-1.39,33.22.69,5.79,1.87,11.64.57,16.98.57.52,1.12,1.07,1.66,1.62,2.71-.36,5.54.21,7.77,1.76.1,3.75.33,7.49.66,11.23,2.03,5.04,3.06,10.44,4.01,15.79,2.37,13.32,3.51,10.1,2-3.88-.31-2.9-.63-5.82-.33-8.72.12-1.18.35-2.35.59-3.51.28-1.35.58-2.69.79-4.05.49-3.19.05-16.59-.09-20.76-.04-1.16-.06-2.35.35-3.43.61-1.6,2.05-2.69,3.31-3.85,1.93-1.77,3.56-3.84,5.18-5.9,1.18-1.5,2.4-3.08,2.8-4.95.4-1.87-.28-4.12-2.03-4.9.04-2.62,2.57-4.47,3.58-6.9.95-2.28.48-4.86.19-7.31-1.07-9.01.52-18.31,3.56-24.63,1.51-5.02,6.18-8.31,10.55-11.2,2.56-1.7,5.16-3.41,8.08-4.37,3.94-1.29,8.19-1.12,12.33-.93,5.88.27,11.8.54,17.51,1.96,2.17.54,4.75,1.15,6.41-.34,1-.89,1.33-2.29,1.95-3.48.62-1.19,1.92-2.3,3.18-1.84.64.24,1.08.82,1.57,1.3,2.33,2.24,6,2.06,9.22,1.73,5.15-.54,10.83-1.38,14.16-5.34.63,1.33,2.37,1.82,3.81,1.49,1.44-.33,2.64-1.28,4.16-2.19,3.5,2.32,8.15,1.51,12.18.31,2.2-.66,4.36-1.41,6.5-2.24.52-.2,1.05-.41,1.6-.37.47.04.91.25,1.34.47,1.79.9,3.58,1.8,5.37,2.7,1.26.63,2.54,1.28,3.52,2.29.81.82,1.37,1.85,2.03,2.79,1.42,2.02,3.34,3.7,5.53,4.84.88.46,1.91.96,2.81,2.95,3.03,4.84,5.72,9.9,8.03,15.13-.91.81-2.13,1.25-3.34,1.2,2.43,4.99,4.51,10.16,6.21,15.45.23.7.32,1.7-.38,1.96-.44.17-.98-.11-1.39.12-.62.34-.3,1.29.09,1.88,6.4,9.69,10.92,20.6,13.25,31.97-2.04,2.44-1.32,6.08-.5,9.15.18.67.36,1.35.54,2.02.6,2.23,1.2,4.47,1.8,6.7.05.18.1.36.14.54l-.28-.28-1.04-1.02c.19.72.36,1.44.53,2.16,1.17,4.79,2.11,9.64,2.83,14.51.68-2.95,1.05-5.97.83-9.13-.13-1.9-.26-3.83.09-5.71.28-1.52.87-2.95,1.37-4.41.44-1.28.8-2.59,1.11-3.91.56-2.33.94-4.7,1.09-7.09.11-1.76.37-3.93,2.01-4.58-1.46-2.98-2.5-6.16-3.08-9.43Z"/>
      <path class="st6" d="M508.35,216.83c0-.1,0-.2,0-.3-.14-6.46-.68-12.91-1.59-19.3-.05-.33-.09-.65-.14-.98-.73-4.88-1.66-9.72-2.83-14.51-.18-.72-.35-1.44-.53-2.16l1.04,1.02c.04-.09.09-.17.13-.26-.6-2.23-1.2-4.47-1.8-6.7-.18-.67-.36-1.35-.54-2.02-.83-3.07-1.54-6.71.5-9.15-2.33-11.37-6.86-22.29-13.25-31.97-.39-.59-.72-1.54-.09-1.88.41-.23.95.05,1.39-.12.69-.26.6-1.26.38-1.96-1.7-5.29-3.77-10.46-6.21-15.45,1.21.05,2.44-.4,3.34-1.2-2.31-5.22-5-10.28-8.03-15.13-.9-1.98-1.93-2.49-2.81-2.95-2.19-1.14-4.1-2.82-5.53-4.84-.66-.94-1.23-1.97-2.03-2.79-.98-1.01-2.27-1.66-3.52-2.29-1.79-.9-3.58-1.8-5.37-2.7-.42-.21-.86-.43-1.34-.47-.55-.04-1.09.17-1.6.37-2.13.84-4.3,1.59-6.5,2.24-4.02,1.2-8.68,2.02-12.18-.31-1.52.91-2.72,1.86-4.16,2.19-1.44.33-3.18-.16-3.81-1.49-3.33,3.97-9.01,4.8-14.16,5.34-3.22.34-6.89.52-9.22-1.73-.49-.48-.93-1.06-1.57-1.3-1.26-.46-2.56.65-3.18,1.84-.62,1.19-.95,2.59-1.95,3.48-1.66,1.49-4.24.88-6.41.34-5.71-1.41-11.63-1.69-17.51-1.96-4.14-.19-8.39-.37-12.33.93-2.92.96-5.52,2.67-8.08,4.37-4.37,2.89-9.04,6.18-10.55,11.2-3.04,6.31-4.63,15.62-3.56,24.63.29,2.45.76,5.03-.19,7.31-1.01,2.42-3.54,4.27-3.58,6.9,1.75.78,2.43,3.03,2.03,4.9-.4,1.87-1.62,3.44-2.8,4.95-1.62,2.06-3.25,4.13-5.18,5.9-1.26,1.15-2.7,2.25-3.31,3.85-.41,1.08-.39,2.27-.35,3.43.14,4.17.57,17.57.09,20.76-.21,1.36-.51,2.7-.79,4.05-.24,1.16-.47,2.33-.59,3.51-.3,2.9.02,5.82.33,8.72,1.52,13.98.37,17.19-2,3.88-.95-5.36-1.98-10.75-4.01-15.79,1.45,16.36,4.96,32.58,9.07,48.52.56,3.38,1.29,6.73,2.18,10.05,3.22,12.03,8.56,23.58,15.63,34.05,8.09,11.99,18.44,22.56,30.45,30.8,6.13,4.21,12.65,7.82,19.17,11.41,6.29,3.46,12.66,6.93,19.56,8.91,6.78,1.95,13.99,2.42,20.97,1.37,9.78-2.24,19.14-9.05,26.51-17.25,7.37-8.2,12.99-17.8,18.55-27.33.99-1.7,1.99-3.4,2.98-5.11,1.91-3.28,3.83-6.56,5.74-9.83,3.09-5.3,6.2-10.61,8.69-16.22,2.57-5.78,4.46-11.86,5.66-18.07,0,0,0,0,0,0,.48-2.5.32-8.84.56-12.86.25-4.27.33-8.56.25-12.84Z"/>
      <path class="st6" d="M508.82,118.56c.2.18.39.35.59.53-.13-.24-.34-.42-.59-.53Z"/>
      <path class="st6" d="M331.45,239.74c-4.1-15.94-7.62-32.16-9.07-48.52-.33-3.74-.56-7.48-.66-11.23-2.23-1.55-5.06-2.12-7.77-1.76-2.57.34-5.02,1.51-6.72,3.48-2.3,2.67-3.15,6.35-3.03,9.88.12,3.52,1.12,6.95,2.18,10.31,2.8,8.94,6,17.76,9.58,26.41,1.03,2.49,2.1,4.99,2.57,7.64.29,1.63.35,3.31.74,4.92,1.48,6.07,8.33,10.06,14.36,8.92-.89-3.32-1.62-6.67-2.18-10.05Z"/>
      <path class="st6" d="M489.44,306.15c-.27-2.63-.53-5.26-.8-7.89-.14-1.34-.27-2.68-.41-4.02-.26-2.53-.52-5.07-.77-7.6-.99,1.7-1.99,3.4-2.98,5.11-5.56,9.53-11.18,19.12-18.55,27.33-7.37,8.2-16.73,15.01-26.51,17.25-6.98,1.06-14.18.58-20.97-1.37-6.9-1.99-13.27-5.45-19.56-8.91-6.52-3.58-13.04-7.2-19.17-11.41-12-8.24-22.35-18.81-30.45-30.8-.66,3.67-1.22,7.36-1.67,11.06-.06.53-.14,1.06-.2,1.59-.61,5.41-1,10.85-1.16,16.3-.09,3.02-.09,6.11.86,8.97,1.08,3.23,3.3,5.93,5.56,8.49,21.47,24.34,50.1,42.28,81.37,51,2.29.64,4.66,1.26,6.52,2.73,1.75,1.39,2.88,3.38,3.88,5.4.14.28.27.55.41.83,6.66,13.66,13.32,27.32,19.98,40.98,2.38-5.94,1.53-12.74-.61-18.78-2.14-6.03-5.49-11.55-8.21-17.35-1.33-2.83-2.51-6.08-1.4-9,1.06-2.78,3.97-4.44,6.85-5.2,2.88-.76,5.91-.83,8.78-1.64,4.51-1.27,8.09-4.15,10.91-7.84,3.51-4.61,5.83-10.5,7.23-16.18,1.26-5.08,2.09-10.27,2.49-15.48.86-11.18-.28-22.41-1.41-33.56Z"/>
      <path class="st5" d="M440.54,383.98c-1.86-1.47-4.23-2.1-6.52-2.73-31.26-8.72-59.89-26.67-81.37-51-2.25-2.55-4.48-5.26-5.56-8.49-.96-2.87-.95-5.95-.86-8.97.16-5.45.55-10.89,1.16-16.3.06-.53.14-1.06.2-1.59-.49.05-.97.16-1.44.34-2.32.85-4.3,3.08-5.66,5.29-3.7,6-5.7,12.87-7.67,19.64-1.23,4.24-2.47,8.49-3.7,12.74-.21.73-.43,1.47-.64,2.2-.48,1.66-.97,3.37-.88,5.1.14,2.68,1.64,5.06,2.96,7.4,4.44,7.84,7.32,16.37,9.85,25.05,9.34,15,19.29,29.62,29.81,43.81,5.76,7.78,11.68,15.43,17.78,22.94-.74-7.52,2.28-15.03,6.77-21.11,4.49-6.08,10.39-10.95,16.22-15.76,3.35-2.76,6.73-5.55,10.54-7.63,6.95-3.81,14.92-5.1,22.89-5.5-1-2.02-2.12-4.01-3.88-5.4Z"/>
      <path class="st5" d="M368.84,454.17c5.47,16.33,9.6,33.1,12.32,50.11.13.79.25,1.58.38,2.37h189.68c-7.48-28.54-15.42-56.99-25.47-84.7.11,1.96.13,3.93.04,5.9-4.6-3.68-8.48-8.02-11.99-12.71-10.57-14.14-17.75-31.44-31-43.23-3.22-2.86-6.98-5.44-11.27-5.86-4.29-.41-9.09,2.03-10.06,6.22-.13-.29-.23-.59-.35-.88-2.82,3.7-6.4,6.57-10.91,7.84-2.87.81-5.9.89-8.78,1.64-2.88.76-5.79,2.41-6.85,5.2-1.12,2.92.07,6.17,1.4,9,2.72,5.8,6.07,11.32,8.21,17.35,2.14,6.03,2.99,12.83.61,18.78-6.66-13.66-13.32-27.32-19.98-40.98-.13-.28-.27-.55-.41-.83-7.96.4-15.94,1.69-22.89,5.5-3.81,2.09-7.19,4.87-10.54,7.63-5.83,4.81-11.73,9.68-16.22,15.76-4.49,6.08-7.51,13.59-6.77,21.11-6.1-7.51-12.02-15.17-17.78-22.94-10.52-14.2-20.47-28.82-29.81-43.81,1.62,5.54,3.1,11.14,4.76,16.65,6.64,22.05,16.36,43.05,23.67,64.88Z"/>
      <path class="st5" d="M545.76,421.94c-1.41-3.89-2.85-7.76-4.35-11.62-10.26-26.44-22.66-52.07-31.88-78.88-.41-1.19-.82-2.38-1.22-3.58-2.87-8.65-5.39-17.45-9.28-25.69-1.43-3.02-3.85-6.42-7.17-6.01-1.4.17-2.46.96-3.23,2.1.27,2.63.53,5.26.8,7.89,1.13,11.16,2.27,22.38,1.41,33.56-.4,5.22-1.23,10.4-2.49,15.48-1.4,5.67-3.72,11.57-7.23,16.18.11.29.22.59.35.88.97-4.2,5.77-6.64,10.06-6.22,4.29.41,8.05,3,11.27,5.86,13.26,11.79,20.44,29.09,31,43.23,3.51,4.69,7.39,9.04,11.99,12.71.09-1.97.07-3.94-.04-5.9Z"/>
      <path class="st6" d="M620.9,414.27c-6.98,1.5-13.81,3.68-20.37,6.5,8.6,4.73,14.07,13.81,16.89,23.21,2.82,9.4,3.36,19.3,4.46,29.06,1.29,11.33,3.38,22.57,6.24,33.61h53.49c-2.32-25.69-4.65-51.38-6.97-77.07-.82-9.12-1.79-18.66-6.87-26.28-4.73-7.11-12.43-11.61-20-15.58-20-10.5-41.14-19.13-63.14-24.07.17.14.35.27.51.42,15.61,13.46,22.27,34.59,35.74,50.2Z"/>
      <path class="st6" d="M545.76,421.94c10.05,27.71,17.99,56.16,25.47,84.7h56.91c-2.86-11.04-4.95-22.28-6.24-33.61-1.11-9.75-1.64-19.66-4.46-29.06-2.82-9.4-8.29-18.47-16.89-23.21,6.56-2.81,13.39-4.99,20.37-6.5-13.47-15.61-20.13-36.74-35.74-50.2-.17-.14-.35-.28-.51-.42-6.64-5.59-14.51-9.54-22.44-13.06-12.98-5.76-26.36-10.56-39.85-15.01-4.26-1.41-8.54-2.78-12.82-4.13,9.22,26.81,21.62,52.44,31.88,78.88,1.5,3.86,2.94,7.73,4.35,11.62Z"/>
      <path class="st6" d="M307.4,506.64c-9.05-21.89-19.28-43.3-30.66-64.08-.7-1.27-1.42-2.65-1.23-4.09.17-1.25.99-2.29,1.79-3.26,4.99-6.1,9.99-12.2,14.98-18.31l-19.63-9.22c-1.74-.82-3.76-2.04-3.75-3.96,0-.99.57-1.88,1.12-2.7,6.5-9.76,13.01-19.52,19.73-29.13-39.46,20.27-77.73,42.86-114.54,67.62-4.99,3.35-10.01,6.81-13.88,11.41-8.53,10.15-10.19,24.15-13.34,37.03-1.55,6.36-3.55,12.61-5.96,18.7h165.35Z"/>
      <path class="st6" d="M271.86,407.31l20.42,9.59c-4.99,6.1-9.99,12.2-14.98,18.31-.8.97-1.62,2.01-1.79,3.26-.19,1.44.53,2.82,1.23,4.09,11.38,20.78,21.61,42.19,30.66,64.08h74.15c-.13-.79-.25-1.58-.38-2.37-2.72-17-6.85-33.78-12.32-50.11-7.32-21.83-17.03-42.84-23.67-64.88-1.66-5.51-3.14-11.11-4.76-16.65-2.53-8.68-5.4-17.21-9.85-25.05-1.32-2.33-2.82-4.72-2.96-7.4-.09-1.73.4-3.43.88-5.1.21-.73.43-1.47.64-2.2-.01,0-.03-.02-.04-.02-2.51-1.38-5.62-.96-7.79.92-.38.33-.76.66-1.13,1-8.31,7.41-15.3,16.26-21.91,25.25-2.88,3.92-5.7,7.87-8.49,11.85-6.73,9.61-13.23,19.37-19.73,29.13-.92,1.38-1.89,2.93-.19,4.84.56.63,1.27,1.09,2.02,1.45Z"/>
    </g>
    <g>
      <path class="st8" d="M315.71,505.55c-9.05-21.89-19.28-43.3-30.66-64.08-.7-1.27-1.42-2.65-1.23-4.09.17-1.25.99-2.29,1.79-3.26,4.99-6.1,9.99-12.2,14.98-18.31l-19.63-9.22c-1.74-.82-3.76-2.04-3.75-3.96,0-.99.57-1.88,1.12-2.7,6.5-9.76,13.01-19.52,19.73-29.13-39.46,20.27-77.73,42.86-114.54,67.62-4.99,3.35-10.01,6.81-13.88,11.41-8.53,10.15-10.19,24.15-13.34,37.03-1.55,6.36-3.55,12.61-5.96,18.7h165.35Z"/>
      <path class="st8" d="M272.93,410.34l20.42,9.59c-4.99,6.1-9.99,12.2-14.98,18.31-.8.97-1.62,2.01-1.79,3.26-.19,1.44.53,2.82,1.23,4.09,11.38,20.78,21.61,42.19,30.66,64.08h74.15c-.13-.79-.25-1.58-.38-2.37-2.72-17-6.85-33.78-12.32-50.11-7.32-21.83-17.03-42.84-23.67-64.88-1.66-5.51-3.14-11.11-4.76-16.65-2.53-8.68-5.4-17.21-9.85-25.05-1.32-2.33-2.82-4.72-2.96-7.4-.09-1.73.4-3.43.88-5.1.21-.73.43-1.47.64-2.2-.01,0-.03-.02-.04-.02-2.51-1.38-5.62-.96-7.79.92-.38.33-.76.66-1.13,1-8.31,7.41-15.3,16.26-21.91,25.25-2.88,3.92-5.7,7.87-8.49,11.85-6.73,9.61-13.23,19.37-19.73,29.13-.92,1.38-1.89,2.93-.19,4.84.56.63,1.27,1.09,2.02,1.45Z"/>
      <path class="st4" d="M519.15,184.67c-.27-4.36-1.87-8.9-4.95-11.87-1.47-1.42-3.83-1.37-5.31.04-.09.08-.17.16-.26.24-.32,1.32-.67,2.63-1.11,3.91-.5,1.46-1.09,2.9-1.37,4.41-.35,1.88-.22,3.8-.09,5.71.33,4.74-.05,7.64-.68,10.11.91,6.39,1.45,12.84,1.59,19.3.01.13.01.22,0,.3.09,4.28,0,8.56-.25,12.84-.24,4.02-.08,10.35-.56,12.86h0c2.92.16,5.57-1.98,6.89-4.59s1.58-5.58,1.77-8.48c.62-9.42.77-18.89,2.33-28.2.92-5.5,2.35-11.01,2-16.58Z"/>
      <path class="st4" d="M503.64,216.83c0-.1,0-.2,0-.3-.14-6.46-.68-12.91-1.59-19.3-.05-.33-.09-.65-.14-.98-.73-4.88-1.66-9.72-2.83-14.51-.18-.72-.35-1.44-.53-2.16l1.04,1.02c.04-.09.09-.17.13-.26-.6-2.23-1.2-4.47-1.8-6.7-.18-.67-.36-1.35-.54-2.02-.83-3.07-1.54-6.71.5-9.15-2.33-11.37-6.86-22.29-13.25-31.97-.39-.59-.72-1.54-.09-1.88.41-.23.95.05,1.39-.12.69-.26.6-1.26.38-1.96-1.7-5.29-3.77-10.46-6.21-15.45,1.21.05,2.44-.4,3.34-1.2-2.31-5.22-5-10.28-8.03-15.13-.9-1.98-1.93-2.49-2.81-2.95-2.19-1.14-4.1-2.82-5.53-4.84-.66-.94-1.23-1.97-2.03-2.79-.98-1.01-2.27-1.66-3.52-2.29-1.79-.9-3.58-1.8-5.37-2.7-.42-.21-.86-.43-1.34-.47-.55-.04-1.09.17-1.6.37-2.13.84-4.3,1.59-6.5,2.24-4.02,1.2-8.68,2.02-12.18-.31-1.52.91-2.72,1.86-4.16,2.19-1.44.33-3.18-.16-3.81-1.49-3.33,3.97-9.01,4.8-14.16,5.34-3.22.34-6.89.52-9.22-1.73-.49-.48-.93-1.06-1.57-1.3-1.26-.46-2.56.65-3.18,1.84-.62,1.19-.95,2.59-1.95,3.48-1.66,1.49-4.24.88-6.41.34-5.71-1.41-11.63-1.69-17.51-1.96-4.14-.19-8.39-.37-12.33.93-2.92.96-5.52,2.67-8.08,4.37-4.37,2.89-9.04,6.18-10.55,11.2-3.04,6.31-4.63,15.62-3.56,24.63.29,2.45.76,5.03-.19,7.31-1.01,2.42-3.54,4.27-3.58,6.9,1.75.78,2.43,3.03,2.03,4.9-.4,1.87-1.62,3.44-2.8,4.95-1.62,2.06-3.25,4.13-5.18,5.9-1.26,1.15-2.7,2.25-3.31,3.85-.41,1.08-.39,2.27-.35,3.43.14,4.17.57,17.57.09,20.76-.21,1.36-.51,2.7-.79,4.05-.24,1.16-.47,2.33-.59,3.51-.3,2.9.02,5.82.33,8.72,1.52,13.98.37,17.19-2,3.88-.95-5.36-1.98-10.75-4.01-15.79,1.45,16.36,4.96,32.58,9.07,48.52.56,3.38,1.29,6.73,2.18,10.05,3.22,12.03,8.56,23.58,15.63,34.05,8.09,11.99,18.44,22.56,30.45,30.8,6.13,4.21,12.65,7.82,19.17,11.41,6.29,3.46,12.66,6.93,19.56,8.91,6.78,1.95,13.99,2.42,20.97,1.37,9.78-2.24,19.14-9.05,26.51-17.25,7.37-8.2,12.99-17.8,18.55-27.33.99-1.7,1.99-3.4,2.98-5.11,1.91-3.28,3.83-6.56,5.74-9.83,3.09-5.3,6.2-10.61,8.69-16.22,2.57-5.78,4.46-11.86,5.66-18.07,0,0,0,0,0,0,.48-2.5.32-8.84.56-12.86.25-4.27.33-8.56.25-12.84Z"/>
      <path class="st1" d="M507.43,118.56c.2.18.39.35.59.53-.13-.24-.34-.42-.59-.53Z"/>
      <path class="st4" d="M330.06,239.74c-4.1-15.94-7.62-32.16-9.07-48.52-.33-3.74-.56-7.48-.66-11.23-2.23-1.55-5.06-2.12-7.77-1.76-2.57.34-5.02,1.51-6.72,3.48-2.3,2.67-3.15,6.35-3.03,9.88.12,3.52,1.12,6.95,2.18,10.31,2.8,8.94,6,17.76,9.58,26.41,1.03,2.49,2.1,4.99,2.57,7.64.29,1.63.35,3.31.74,4.92,1.48,6.07,8.33,10.06,14.36,8.92-.89-3.32-1.62-6.67-2.18-10.05Z"/>
      <path class="st4" d="M488.05,306.15c-.27-2.63-.53-5.26-.8-7.89-.14-1.34-.27-2.68-.41-4.02-.26-2.53-.52-5.07-.77-7.6-.99,1.7-1.99,3.4-2.98,5.11-5.56,9.53-11.18,19.12-18.55,27.33-7.37,8.2-16.73,15.01-26.51,17.25-6.98,1.06-14.18.58-20.97-1.37-6.9-1.99-13.27-5.45-19.56-8.91-6.52-3.58-13.04-7.2-19.17-11.41-12-8.24-22.35-18.81-30.45-30.8-.66,3.67-1.22,7.36-1.67,11.06-.06.53-.14,1.06-.2,1.59-.61,5.41-1,10.85-1.16,16.3-.09,3.02-.09,6.11.86,8.97,1.08,3.23,3.3,5.93,5.56,8.49,21.47,24.34,50.1,42.28,81.37,51,2.29.64,4.66,1.26,6.52,2.73,1.75,1.39,2.88,3.38,3.88,5.4.14.28.27.55.41.83,6.66,13.66,13.32,27.32,19.98,40.98,2.38-5.94,1.53-12.74-.61-18.78-2.14-6.03-5.49-11.55-8.21-17.35-1.33-2.83-2.51-6.08-1.4-9,1.06-2.78,3.97-4.44,6.85-5.2,2.88-.76,5.91-.83,8.78-1.64,4.51-1.27,8.09-4.15,10.91-7.84,3.51-4.61,5.83-10.5,7.23-16.18,1.26-5.08,2.09-10.27,2.49-15.48.86-11.18-.28-22.41-1.41-33.56Z"/>
      <path class="st5" d="M439.15,383.98c-1.86-1.47-4.23-2.1-6.52-2.73-31.26-8.72-59.89-26.67-81.37-51-2.25-2.55-4.48-5.26-5.56-8.49-.96-2.87-.95-5.95-.86-8.97.16-5.45.55-10.89,1.16-16.3.06-.53.14-1.06.2-1.59-.49.05-.97.16-1.44.34-2.32.85-4.3,3.08-5.66,5.29-3.7,6-5.7,12.87-7.67,19.64-1.23,4.24-2.47,8.49-3.7,12.74-.21.73-.43,1.47-.64,2.2-.48,1.66-.97,3.37-.88,5.1.14,2.68,1.64,5.06,2.96,7.4,4.44,7.84,7.32,16.37,9.85,25.05,9.34,15,19.29,29.62,29.81,43.81,5.76,7.78,11.68,15.43,17.78,22.94-.74-7.52,2.28-15.03,6.77-21.11,4.49-6.08,10.39-10.95,16.22-15.76,3.35-2.76,6.73-5.55,10.54-7.63,6.95-3.81,14.92-5.1,22.89-5.5-1-2.02-2.12-4.01-3.88-5.4Z"/>
      <path class="st5" d="M367.45,454.17c5.47,16.33,9.6,33.1,12.32,50.11.13.79.25,1.58.38,2.37h189.68c-7.48-28.54-15.42-56.99-25.47-84.7.11,1.96.13,3.93.04,5.9-4.6-3.68-8.48-8.02-11.99-12.71-10.57-14.14-17.75-31.44-31-43.23-3.22-2.86-6.98-5.44-11.27-5.86-4.29-.41-9.09,2.03-10.06,6.22-.13-.29-.23-.59-.35-.88-2.82,3.7-6.4,6.57-10.91,7.84-2.87.81-5.9.89-8.78,1.64-2.88.76-5.79,2.41-6.85,5.2-1.12,2.92.07,6.17,1.4,9,2.72,5.8,6.07,11.32,8.21,17.35,2.14,6.03,2.99,12.83.61,18.78-6.66-13.66-13.32-27.32-19.98-40.98-.13-.28-.27-.55-.41-.83-7.96.4-15.94,1.69-22.89,5.5-3.81,2.09-7.19,4.87-10.54,7.63-5.83,4.81-11.73,9.68-16.22,15.76-4.49,6.08-7.51,13.59-6.77,21.11-6.1-7.51-12.02-15.17-17.78-22.94-10.52-14.2-20.47-28.82-29.81-43.81,1.62,5.54,3.1,11.14,4.76,16.65,6.64,22.05,16.36,43.05,23.67,64.88Z"/>
      <path class="st5" d="M544.37,421.94c-1.41-3.89-2.85-7.76-4.35-11.62-10.26-26.44-22.66-52.07-31.88-78.88-.41-1.19-.82-2.38-1.22-3.58-2.87-8.65-5.39-17.45-9.28-25.69-1.43-3.02-3.85-6.42-7.17-6.01-1.4.17-2.46.96-3.23,2.1.27,2.63.53,5.26.8,7.89,1.13,11.16,2.27,22.38,1.41,33.56-.4,5.22-1.23,10.4-2.49,15.48-1.4,5.67-3.72,11.57-7.23,16.18.11.29.22.59.35.88.97-4.2,5.77-6.64,10.06-6.22,4.29.41,8.05,3,11.27,5.86,13.26,11.79,20.44,29.09,31,43.23,3.51,4.69,7.39,9.04,11.99,12.71.09-1.97.07-3.94-.04-5.9Z"/>
      <path class="st8" d="M621.97,420.3c-6.98,1.5-13.81,3.68-20.37,6.5,8.6,4.73,14.07,13.81,16.89,23.21,2.82,9.4,3.36,19.3,4.46,29.06,1.29,11.33,3.38,22.57,6.24,33.61h53.49c-2.32-25.69-4.65-51.38-6.97-77.07-.82-9.12-1.79-18.66-6.87-26.28-4.73-7.11-12.43-11.61-20-15.58-20-10.5-41.14-19.13-63.14-24.07.17.14.35.27.51.42,15.61,13.46,22.27,34.59,35.74,50.2Z"/>
      <path class="st8" d="M546.82,427.97c10.05,27.71,17.99,56.16,25.47,84.7h56.91c-2.86-11.04-4.95-22.28-6.24-33.61-1.11-9.75-1.64-19.66-4.46-29.06-2.82-9.4-8.29-18.47-16.89-23.21,6.56-2.81,13.39-4.99,20.37-6.5-13.47-15.61-20.13-36.74-35.74-50.2-.17-.14-.35-.28-.51-.42-6.64-5.59-14.51-9.54-22.44-13.06-12.98-5.76-26.36-10.56-39.85-15.01-4.26-1.41-8.54-2.78-12.82-4.13,9.22,26.81,21.62,52.44,31.88,78.88,1.5,3.86,2.94,7.73,4.35,11.62Z"/>
      <path class="st7" d="M508.64,152s.86-.66.97-.5c.86-.4,1.19-1.5,1.05-2.44s-.65-1.77-1.07-2.63c-.42-.85-.37-1.95-.37-1.95-.66-5.11-1.32-10.22-1.98-15.33-.13-1.03.1-2.49,1.13-2.47.33,0,.66.19.98.1.62-.18.53-1.08.29-1.69-.85-2.21-1.71-4.43-2.56-6.64.13.01.24.05.36.1-1.24-1.12-2.48-2.25-3.72-3.37-.19-.17-.38-.35-.46-.59-.22-.67.55-1.22,1.2-1.46.66-.24,1.46-.61,1.46-1.31,0-.49-.44-.86-.8-1.19-3.22-2.91-3.6-7.95-5.43-11.29-.02-2.48-1.77-4.59-3.58-6.28-1.81-1.69-3.85-3.3-4.8-5.59-1.19-2.86-.42-6.13-.83-9.2-.04-.31-.1-.64-.31-.88-.32-.36-.85-.38-1.32-.49-2.13-.49-3.13-2.95-3.43-5.12-.3-2.17-.33-4.56-1.75-6.23-1.52-1.78-4.3-2.25-5.66-3.09-.47-3.13-1.14-6.24-1.99-9.29-.19,2.28-.62,4.54-1.29,6.73-1.57-4.42-4.08-8.51-7.33-11.91-.55,1.44-.84,2.97-.86,4.51-.76-1.02-1.53-2.04-1.6-3.14-8.38-8.32-18.83-14.54-30.15-17.94-1.4-.42-2.82-.8-4.23-1.17-1.78-.48-3.56-.95-5.34-1.43-4.72-1.26-9.48-2.53-14.36-2.84-4.06-.26-8.14.15-12.18.67-2.92.37-5.86.81-8.81.65-2.55-.14-5.07-.72-7.63-.83-9.89-.43-18.6,6.05-26.28,12.31-.87.71-1.75,1.43-2.78,1.88-1.26.55-2.66.67-3.97,1.1-4.91,1.61-7.33,6.99-9.19,11.81-2.06,5.36-4.13,10.72-6.1,16.18-7.59,14.58-18.57,27.62-22.99,43.45-.27.95-.51,1.93-.38,2.91.18,1.39,1.06,2.58,1.48,3.92.64,2.05.15,4.25-.28,6.36-2.23,10.91-2.7,22.17-1.39,33.22.69,5.79,1.87,11.64.57,16.98.57.52,1.12,1.07,1.66,1.62,2.71-.36,5.54.21,7.77,1.76.1,3.75.33,7.49.66,11.23,2.03,5.04,3.06,10.44,4.01,15.79,2.37,13.32,3.51,10.1,2-3.88-.31-2.9-.63-5.82-.33-8.72.12-1.18.35-2.35.59-3.51.28-1.35.58-2.69.79-4.05.49-3.19.05-16.59-.09-20.76-.04-1.16-.06-2.35.35-3.43.61-1.6,2.05-2.69,3.31-3.85,1.93-1.77,3.56-3.84,5.18-5.9,1.18-1.5,2.4-3.08,2.8-4.95.4-1.87-.28-4.12-2.03-4.9.04-2.62,2.57-4.47,3.58-6.9.95-2.28.48-4.86.19-7.31-1.07-9.01.52-18.31,3.56-24.63,1.51-5.02,6.18-8.31,10.55-11.2,2.56-1.7,5.16-3.41,8.08-4.37,3.94-1.29,8.19-1.12,12.33-.93,5.88.27,11.8.54,17.51,1.96,2.17.54,4.75,1.15,6.41-.34,1-.89,1.33-2.29,1.95-3.48.62-1.19,1.92-2.3,3.18-1.84.64.24,1.08.82,1.57,1.3,2.33,2.24,6,2.06,9.22,1.73,5.15-.54,10.83-1.38,14.16-5.34.63,1.33,2.37,1.82,3.81,1.49,1.44-.33,2.64-1.28,4.16-2.19,3.5,2.32,8.15,1.51,12.18.31,2.2-.66,4.36-1.41,6.5-2.24.52-.2,1.05-.41,1.6-.37.47.04.91.25,1.34.47,1.79.9,3.58,1.8,5.37,2.7,1.26.63,2.54,1.28,3.52,2.29.81.82,1.37,1.85,2.03,2.79,1.42,2.02,3.34,3.7,5.53,4.84.88.46,1.91.96,2.81,2.95,3.03,4.84,5.72,9.9,8.03,15.13-.91.81-2.13,1.25-3.34,1.2,2.43,4.99,4.51,10.16,6.21,15.45.23.7.32,1.7-.38,1.96-.44.17-.98-.11-1.39.12-.62.34-.3,1.29.09,1.88,6.4,9.69,10.92,20.6,13.25,31.97-2.04,2.44-1.32,6.08-.5,9.15.18.67.36,1.35.54,2.02.6,2.23,1.2,4.47,1.8,6.7.05.18.1.36.14.54l-.28-.28-1.04-1.02c.19.72.36,1.44.53,2.16,1.17,4.79,2.11,9.64,2.83,14.51.68-2.95,1.05-5.97.83-9.13-.13-1.9-.26-3.83.09-5.71.28-1.52.87-2.95,1.37-4.41.44-1.28.8-2.59,1.11-3.91.56-2.33.94-4.7,1.09-7.09.11-1.76.37-3.93,2.01-4.58-1.46-2.98-2.5-6.16-3.08-9.43Z"/>
    </g>
    <path class="st6" d="M435.28,261.88c-2.04.34-4.11.47-6.17.59-5.07.29-10.18.48-15.22-.2-4.99-.67-9.81-2.2-14.71-3.34-3.18-.75-6.41-1.32-9.65-1.75,9.37,8.63,21.71,14.16,34.42,14.21,13.46.05,27.03-6.49,34.58-17.57-7.85,2.2-15.15,6.71-23.25,8.06Z"/>
    <path class="st1" d="M415.63,234c-2.56-1.79-5.61-3.09-8.73-2.86-.4.03-.82.09-1.16.31s-.57.64-.46,1.03.66.61.95.34"/>
    <path class="st1" d="M433.59,232.42c1.35-1.15,2.83-2.14,4.41-2.95.45-.23.92-.45,1.43-.51,1-.12,1.95.41,2.79.95.19.12.4.28.39.5,0,.19-.17.34-.33.45-.39.26-.82.46-1.27.59"/>
    <path class="st1" d="M397.33,222.22c-.66,3.05-.09,10.21,3.19,10.81.86.16,1.48.93,2.32,1.19,0,0,7.27.89,8.99.72"/>
    <path class="st1" d="M432.91,236.08c-3.18.99-6.48,1.64-9.8,1.93-.97.08-1.96.13-2.89-.14s-1.8-.92-2.1-1.84"/>
    <path class="st1" d="M442.24,234.17c2.19-1.41,7.49-4.55,7.48-8.99,0-2.84-2.83-4.86-4.88-6.82-2.5-2.4-5-4.79-7.5-7.19"/>
    <path class="st1" d="M415.1,221.1c-.59-10.11-1.32-20.22-2.2-30.31"/>
    <path class="st1" d="M508.6,118.02c.2.18.39.35.59.53-.13-.24-.34-.42-.59-.53Z"/>
    <path class="st1" d="M503.56,181.2c.16-.39.33-.77.5-1.14l-1.04-1.02c.19.72.36,1.44.53,2.16Z"/>
    <path class="st1" d="M504.35,180.33c-.05-.18-.1-.36-.14-.54-.04.09-.09.17-.13.26l.28.28Z"/>
    <path class="st1" d="M331.23,239.2c-4.1-15.94-7.62-32.16-9.07-48.52-.33-3.74-.56-7.48-.66-11.23-2.23-1.55-5.06-2.12-7.77-1.76-2.57.34-5.02,1.51-6.72,3.48-2.3,2.67-3.15,6.35-3.03,9.88.12,3.52,1.12,6.95,2.18,10.31,2.8,8.94,6,17.76,9.58,26.41,1.03,2.49,2.1,4.99,2.57,7.64.29,1.63.35,3.31.74,4.92,1.48,6.07,8.33,10.06,14.36,8.92-.89-3.32-1.62-6.67-2.18-10.05Z"/>
    <path class="st1" d="M504.2,179.8c-.04.09-.09.17-.13.26l.28.28c-.05-.18-.1-.36-.14-.54Z"/>
    <path class="st1" d="M520.32,184.13c-.27-4.36-1.87-8.9-4.95-11.87-1.47-1.42-3.83-1.37-5.31.04-.09.08-.17.16-.26.24-.32,1.32-.67,2.63-1.11,3.91-.5,1.46-1.09,2.9-1.37,4.41-.35,1.88-.22,3.8-.09,5.71.33,4.74-.05,7.64-.68,10.11.91,6.39,1.45,12.84,1.59,19.3.01.13.01.22,0,.3.09,4.28,0,8.56-.25,12.84-.24,4.02-.08,10.35-.56,12.86h0c2.92.16,5.57-1.98,6.89-4.59s1.58-5.58,1.77-8.48c.62-9.42.77-18.89,2.33-28.2.92-5.5,2.35-11.01,2-16.58Z"/>
    <path class="st1" d="M508.13,215.99c0,.1,0,.2,0,.3,0-.07.01-.16,0-.3Z"/>
    <path class="st1" d="M506.39,195.71c.05.33.1.65.14.98.63-2.47,1.02-5.37.68-10.11.22,3.17-.15,6.19-.83,9.13Z"/>
    <path class="st1" d="M509.81,151.46s.86-.66.97-.5c.86-.4,1.19-1.5,1.05-2.44s-.65-1.77-1.07-2.63c-.42-.85-.37-1.95-.37-1.95-.66-5.11-1.32-10.22-1.98-15.33-.13-1.03.1-2.49,1.13-2.47.33,0,.66.19.98.1.62-.18.53-1.08.29-1.69-.85-2.21-1.71-4.43-2.56-6.64.13.01.24.05.36.1-1.24-1.12-2.48-2.25-3.72-3.37-.19-.17-.38-.35-.46-.59-.22-.67.55-1.22,1.2-1.46.66-.24,1.46-.61,1.46-1.31,0-.49-.44-.86-.8-1.19-3.22-2.91-3.6-7.95-5.43-11.29-.02-2.48-1.77-4.59-3.58-6.28-1.81-1.69-3.85-3.3-4.8-5.59-1.19-2.86-.42-6.13-.83-9.2-.04-.31-.1-.64-.31-.88-.32-.36-.85-.38-1.32-.49-2.13-.49-3.13-2.95-3.43-5.12-.3-2.17-.33-4.56-1.75-6.23-1.52-1.78-4.3-2.25-5.66-3.09-.47-3.13-1.14-6.24-1.99-9.29-.19,2.28-.62,4.54-1.29,6.73-1.57-4.42-4.08-8.51-7.33-11.91-.55,1.44-.84,2.97-.86,4.51-.76-1.02-1.53-2.04-1.6-3.14-8.38-8.32-18.83-14.54-30.15-17.94-1.4-.42-2.82-.8-4.23-1.17-1.78-.48-3.56-.95-5.34-1.43-4.72-1.26-9.48-2.53-14.36-2.84-4.06-.26-8.14.15-12.18.67-2.92.37-5.86.81-8.81.65-2.55-.14-5.07-.72-7.63-.83-9.89-.43-18.6,6.05-26.28,12.31-.87.71-1.75,1.43-2.78,1.88-1.26.55-2.66.67-3.97,1.1-4.91,1.61-7.33,6.99-9.19,11.81-2.06,5.36-4.13,10.72-6.1,16.18-7.59,14.58-18.57,27.62-22.99,43.45-.27.95-.51,1.93-.38,2.91.18,1.39,1.06,2.58,1.48,3.92.64,2.05.15,4.25-.28,6.36-2.23,10.91-2.7,22.17-1.39,33.22.69,5.79,1.87,11.64.57,16.98.57.52,1.12,1.07,1.66,1.62,2.71-.36,5.54.21,7.77,1.76.1,3.75.33,7.49.66,11.23,2.03,5.04,3.06,10.44,4.01,15.79,2.37,13.32,3.51,10.1,2-3.88-.31-2.9-.63-5.82-.33-8.72.12-1.18.35-2.35.59-3.51.28-1.35.58-2.69.79-4.05.49-3.19.05-16.59-.09-20.76-.04-1.16-.06-2.35.35-3.43.61-1.6,2.05-2.69,3.31-3.85,1.93-1.77,3.56-3.84,5.18-5.9,1.18-1.5,2.4-3.08,2.8-4.95.4-1.87-.28-4.12-2.03-4.9.04-2.62,2.57-4.47,3.58-6.9.95-2.28.48-4.86.19-7.31-1.07-9.01.52-18.31,3.56-24.63,1.51-5.02,6.18-8.31,10.55-11.2,2.56-1.7,5.16-3.41,8.08-4.37,3.94-1.29,8.19-1.12,12.33-.93,5.88.27,11.8.54,17.51,1.96,2.17.54,4.75,1.15,6.41-.34,1-.89,1.33-2.29,1.95-3.48.62-1.19,1.92-2.3,3.18-1.84.64.24,1.08.82,1.57,1.3,2.33,2.24,6,2.06,9.22,1.73,5.15-.54,10.83-1.38,14.16-5.34.63,1.33,2.37,1.82,3.81,1.49,1.44-.33,2.64-1.28,4.16-2.19,3.5,2.32,8.15,1.51,12.18.31,2.2-.66,4.36-1.41,6.5-2.24.52-.2,1.05-.41,1.6-.37.47.04.91.25,1.34.47,1.79.9,3.58,1.8,5.37,2.7,1.26.63,2.54,1.28,3.52,2.29.81.82,1.37,1.85,2.03,2.79,1.42,2.02,3.34,3.7,5.53,4.84.88.46,1.91.96,2.81,2.95,3.03,4.84,5.72,9.9,8.03,15.13-.91.81-2.13,1.25-3.34,1.2,2.43,4.99,4.51,10.16,6.21,15.45.23.7.32,1.7-.38,1.96-.44.17-.98-.11-1.39.12-.62.34-.3,1.29.09,1.88,6.4,9.69,10.92,20.6,13.25,31.97-2.04,2.44-1.32,6.08-.5,9.15.18.67.36,1.35.54,2.02.6,2.23,1.2,4.47,1.8,6.7.05.18.1.36.14.54l-.28-.28-1.04-1.02c.19.72.36,1.44.53,2.16,1.17,4.79,2.11,9.64,2.83,14.51.68-2.95,1.05-5.97.83-9.13-.13-1.9-.26-3.83.09-5.71.28-1.52.87-2.95,1.37-4.41.44-1.28.8-2.59,1.11-3.91.56-2.33.94-4.7,1.09-7.09.11-1.76.37-3.93,2.01-4.58-1.46-2.98-2.5-6.16-3.08-9.43Z"/>
    <path class="st1" d="M508.13,216.28c0-.1,0-.2,0-.3-.14-6.46-.68-12.91-1.59-19.3-.05-.33-.09-.65-.14-.98-.73-4.88-1.66-9.72-2.83-14.51-.18-.72-.35-1.44-.53-2.16l1.04,1.02c.04-.09.09-.17.13-.26-.6-2.23-1.2-4.47-1.8-6.7-.18-.67-.36-1.35-.54-2.02-.83-3.07-1.54-6.71.5-9.15-2.33-11.37-6.86-22.29-13.25-31.97-.39-.59-.72-1.54-.09-1.88.41-.23.95.05,1.39-.12.69-.26.6-1.26.38-1.96-1.7-5.29-3.77-10.46-6.21-15.45,1.21.05,2.44-.4,3.34-1.2-2.31-5.22-5-10.28-8.03-15.13-.9-1.98-1.93-2.49-2.81-2.95-2.19-1.14-4.1-2.82-5.53-4.84-.66-.94-1.23-1.97-2.03-2.79-.98-1.01-2.27-1.66-3.52-2.29-1.79-.9-3.58-1.8-5.37-2.7-.42-.21-.86-.43-1.34-.47-.55-.04-1.09.17-1.6.37-2.13.84-4.3,1.59-6.5,2.24-4.02,1.2-8.68,2.02-12.18-.31-1.52.91-2.72,1.86-4.16,2.19-1.44.33-3.18-.16-3.81-1.49-3.33,3.97-9.01,4.8-14.16,5.34-3.22.34-6.89.52-9.22-1.73-.49-.48-.93-1.06-1.57-1.3-1.26-.46-2.56.65-3.18,1.84-.62,1.19-.95,2.59-1.95,3.48-1.66,1.49-4.24.88-6.41.34-5.71-1.41-11.63-1.69-17.51-1.96-4.14-.19-8.39-.37-12.33.93-2.92.96-5.52,2.67-8.08,4.37-4.37,2.89-9.04,6.18-10.55,11.2-3.04,6.31-4.63,15.62-3.56,24.63.29,2.45.76,5.03-.19,7.31-1.01,2.42-3.54,4.27-3.58,6.9,1.75.78,2.43,3.03,2.03,4.9-.4,1.87-1.62,3.44-2.8,4.95-1.62,2.06-3.25,4.13-5.18,5.9-1.26,1.15-2.7,2.25-3.31,3.85-.41,1.08-.39,2.27-.35,3.43.14,4.17.57,17.57.09,20.76-.21,1.36-.51,2.7-.79,4.05-.24,1.16-.47,2.33-.59,3.51-.3,2.9.02,5.82.33,8.72,1.52,13.98.37,17.19-2,3.88-.95-5.36-1.98-10.75-4.01-15.79,1.45,16.36,4.96,32.58,9.07,48.52.56,3.38,1.29,6.73,2.18,10.05,3.22,12.03,8.56,23.58,15.63,34.05,8.09,11.99,18.44,22.56,30.45,30.8,6.13,4.21,12.65,7.82,19.17,11.41,6.29,3.46,12.66,6.93,19.56,8.91,6.78,1.95,13.99,2.42,20.97,1.37,9.78-2.24,19.14-9.05,26.51-17.25,7.37-8.2,12.99-17.8,18.55-27.33.99-1.7,1.99-3.4,2.98-5.11,1.91-3.28,3.83-6.56,5.74-9.83,3.09-5.3,6.2-10.61,8.69-16.22,2.57-5.78,4.46-11.86,5.66-18.07,0,0,0,0,0,0,.48-2.5.32-8.84.56-12.86.25-4.27.33-8.56.25-12.84Z"/>
    <path class="st1" d="M489.22,305.61c-.27-2.63-.53-5.26-.8-7.89-.14-1.34-.27-2.68-.41-4.02-.26-2.53-.52-5.07-.77-7.6-.99,1.7-1.99,3.4-2.98,5.11-5.56,9.53-11.18,19.12-18.55,27.33-7.37,8.2-16.73,15.01-26.51,17.25-6.98,1.06-14.18.58-20.97-1.37-6.9-1.99-13.27-5.45-19.56-8.91-6.52-3.58-13.04-7.2-19.17-11.41-12-8.24-22.35-18.81-30.45-30.8-.66,3.67-1.22,7.36-1.67,11.06-.06.53-.14,1.06-.2,1.59-.61,5.41-1,10.85-1.16,16.3-.09,3.02-.09,6.11.86,8.97,1.08,3.23,3.3,5.93,5.56,8.49,21.47,24.34,50.1,42.28,81.37,51,2.29.64,4.66,1.26,6.52,2.73,1.75,1.39,2.88,3.38,3.88,5.4.14.28.27.55.41.83,6.66,13.66,13.32,27.32,19.98,40.98,2.38-5.94,1.53-12.74-.61-18.78-2.14-6.03-5.49-11.55-8.21-17.35-1.33-2.83-2.51-6.08-1.4-9,1.06-2.78,3.97-4.44,6.85-5.2,2.88-.76,5.91-.83,8.78-1.64,4.51-1.27,8.09-4.15,10.91-7.84,3.51-4.61,5.83-10.5,7.23-16.18,1.26-5.08,2.09-10.27,2.49-15.48.86-11.18-.28-22.41-1.41-33.56Z"/>
    <path class="st1" d="M440.32,383.44c-1.86-1.47-4.23-2.1-6.52-2.73-31.26-8.72-59.89-26.67-81.37-51-2.25-2.55-4.48-5.26-5.56-8.49-.96-2.87-.95-5.95-.86-8.97.16-5.45.55-10.89,1.16-16.3.06-.53.14-1.06.2-1.59-.49.05-.97.16-1.44.34-2.32.85-4.3,3.08-5.66,5.29-3.7,6-5.7,12.87-7.67,19.64-1.23,4.24-2.47,8.49-3.7,12.74-.21.73-.43,1.47-.64,2.2-.48,1.66-.97,3.37-.88,5.1.14,2.68,1.64,5.06,2.96,7.4,4.44,7.84,7.32,16.37,9.85,25.05,9.34,15,19.29,29.62,29.81,43.81,5.76,7.78,11.68,15.43,17.78,22.94-.74-7.52,2.28-15.03,6.77-21.11,4.49-6.08,10.39-10.95,16.22-15.76,3.35-2.76,6.73-5.55,10.54-7.63,6.95-3.81,14.92-5.1,22.89-5.5-1-2.02-2.12-4.01-3.88-5.4Z"/>
    <path class="st1" d="M368.62,453.63c5.47,16.33,9.6,33.1,12.32,50.11.13.79.25,1.58.38,2.37h189.68c-7.48-28.54-15.42-56.99-25.47-84.7.11,1.96.13,3.93.04,5.9-4.6-3.68-8.48-8.02-11.99-12.71-10.57-14.14-17.75-31.44-31-43.23-3.22-2.86-6.98-5.44-11.27-5.86-4.29-.41-9.09,2.03-10.06,6.22-.13-.29-.23-.59-.35-.88-2.82,3.7-6.4,6.57-10.91,7.84-2.87.81-5.9.89-8.78,1.64-2.88.76-5.79,2.41-6.85,5.2-1.12,2.92.07,6.17,1.4,9,2.72,5.8,6.07,11.32,8.21,17.35,2.14,6.03,2.99,12.83.61,18.78-6.66-13.66-13.32-27.32-19.98-40.98-.13-.28-.27-.55-.41-.83-7.96.4-15.94,1.69-22.89,5.5-3.81,2.09-7.19,4.87-10.54,7.63-5.83,4.81-11.73,9.68-16.22,15.76-4.49,6.08-7.51,13.59-6.77,21.11-6.1-7.51-12.02-15.17-17.78-22.94-10.52-14.2-20.47-28.82-29.81-43.81,1.62,5.54,3.1,11.14,4.76,16.65,6.64,22.05,16.36,43.05,23.67,64.88Z"/>
    <path class="st1" d="M545.53,421.4c-1.41-3.89-2.85-7.76-4.35-11.62-10.26-26.44-22.66-52.07-31.88-78.88-.41-1.19-.82-2.38-1.22-3.58-2.87-8.65-5.39-17.45-9.28-25.69-1.43-3.02-3.85-6.42-7.17-6.01-1.4.17-2.46.96-3.23,2.1.27,2.63.53,5.26.8,7.89,1.13,11.16,2.27,22.38,1.41,33.56-.4,5.22-1.23,10.4-2.49,15.48-1.4,5.67-3.72,11.57-7.23,16.18.11.29.22.59.35.88.97-4.2,5.77-6.64,10.06-6.22,4.29.41,8.05,3,11.27,5.86,13.26,11.79,20.44,29.09,31,43.23,3.51,4.69,7.39,9.04,11.99,12.71.09-1.97.07-3.94-.04-5.9Z"/>
    <path class="st1" d="M620.68,413.73c-6.98,1.5-13.81,3.68-20.37,6.5,8.6,4.73,14.07,13.81,16.89,23.21,2.82,9.4,3.36,19.3,4.46,29.06,1.29,11.33,3.38,22.57,6.24,33.61h53.49c-2.32-25.69-4.65-51.38-6.97-77.07-.82-9.12-1.79-18.66-6.87-26.28-4.73-7.11-12.43-11.61-20-15.58-20-10.5-41.14-19.13-63.14-24.07.17.14.35.27.51.42,15.61,13.46,22.27,34.59,35.74,50.2Z"/>
    <path class="st1" d="M545.53,421.4c10.05,27.71,17.99,56.16,25.47,84.7h56.91c-2.86-11.04-4.95-22.28-6.24-33.61-1.11-9.75-1.64-19.66-4.46-29.06-2.82-9.4-8.29-18.47-16.89-23.21,6.56-2.81,13.39-4.99,20.37-6.5-13.47-15.61-20.13-36.74-35.74-50.2-.17-.14-.35-.28-.51-.42-6.64-5.59-14.51-9.54-22.44-13.06-12.98-5.76-26.36-10.56-39.85-15.01-4.26-1.41-8.54-2.78-12.82-4.13,9.22,26.81,21.62,52.44,31.88,78.88,1.5,3.86,2.94,7.73,4.35,11.62Z"/>
    <path class="st1" d="M307.17,506.1c-9.05-21.89-19.28-43.3-30.66-64.08-.7-1.27-1.42-2.65-1.23-4.09.17-1.25.99-2.29,1.79-3.26,4.99-6.1,9.99-12.2,14.98-18.31l-19.63-9.22c-1.74-.82-3.76-2.04-3.75-3.96,0-.99.57-1.88,1.12-2.7,6.5-9.76,13.01-19.52,19.73-29.13-39.46,20.27-77.73,42.86-114.54,67.62-4.99,3.35-10.01,6.81-13.88,11.41-8.53,10.15-10.19,24.15-13.34,37.03-1.55,6.36-3.55,12.61-5.96,18.7h165.35Z"/>
    <path class="st1" d="M271.64,406.77l20.42,9.59c-4.99,6.1-9.99,12.2-14.98,18.31-.8.97-1.62,2.01-1.79,3.26-.19,1.44.53,2.82,1.23,4.09,11.38,20.78,21.61,42.19,30.66,64.08h74.15c-.13-.79-.25-1.58-.38-2.37-2.72-17-6.85-33.78-12.32-50.11-7.32-21.83-17.03-42.84-23.67-64.88-1.66-5.51-3.14-11.11-4.76-16.65-2.53-8.68-5.4-17.21-9.85-25.05-1.32-2.33-2.82-4.72-2.96-7.4-.09-1.73.4-3.43.88-5.1.21-.73.43-1.47.64-2.2-.01,0-.03-.02-.04-.02-2.51-1.38-5.62-.96-7.79.92-.38.33-.76.66-1.13,1-8.31,7.41-15.3,16.26-21.91,25.25-2.88,3.92-5.7,7.87-8.49,11.85-6.73,9.61-13.23,19.37-19.73,29.13-.92,1.38-1.89,2.93-.19,4.84.56.63,1.27,1.09,2.02,1.45Z"/>
    <circle class="st3" cx="380.13" cy="185.32" r="6.02"/>
    <circle class="st3" cx="457.99" cy="181.73" r="6.02"/>
    <path class="st1" d="M464.01,252.75c-10.03,1.05-18.78,7.48-28.73,9.14-2.04.34-4.11.47-6.17.59-5.07.29-10.18.48-15.22-.2-4.99-.67-9.81-2.2-14.71-3.34-5.62-1.32-11.36-2.14-17.12-2.47"/>
    <g>
      <path class="st6" d="M331.71,173.4c.01-.42.04-.86.19-1.27h-12.08s-.36,6.24,0,6.38c.28.11,8.31.58,11.96.79-.09-1.97-.13-3.94-.07-5.9Z"/>
      <path class="st6" d="M510.64,167.89c.38-.86-1-1.16-1.93-1.04-3.75.49-7.58.52-11.31-.08-2.68-.43-5.31-1.17-7.99-1.62-3.7-.61-25.42-.29-32.47.16-16.38,1.04-26.92,6.74-34.34,7.03-7.87.3-14.01-2.64-21.73-4.2-5.05-1.02-10.25-1.05-15.4-.97-17.2.28-34.36,1.78-51.5,3.28-1.29.38-1.84,1-2.08,1.66-.15.42-.18.86-.19,1.27-.06,1.97-.02,3.94.07,5.9.02.5.03,1,.07,1.5,2.51-.32,5.04-.45,6.96.87,2.09,1.44,2.79,4.16,3.21,6.66.72,4.3,1.05,8.68,2.33,12.84,1.28,4.16,4.64,7.37,8.46,9.47,2.48,1.37,5.35,1.82,8.15,2.25,4.09.63,31.48,1.58,39.53-2.6,7.43-3.86,8.62-13.98,12.65-21.32.7-1.28,1.54-2.57,2.81-3.3,1.21-.69,2.66-.8,4.05-.88,2.11-.13,4.48-.17,6.04,1.25,1.54,1.4,5.28,23.51,17.59,25.11,6.54.49,16.19,1.76,23.37,1.15,5.78-.49,11.65-1.27,16.91-3.71,5.26-2.44,9.9-6.8,11.41-12.4.83-3.08.68-6.33,1.03-9.5s1.33-6.51,3.81-8.51c1.37-1.11,3.08-1.7,4.75-2.28,2.11-.73,4.22-1.46,6.32-2.18-.03-1.96-.23-3.92-.59-5.85ZM406.58,195.24c-1.5,4.1-2.85,9-6.67,11.11-9.71,5.35-33.34,4.04-42.58,2.27-2-.38-5.38-3.07-6.09-4.24-5.96-9.83-5.82-28.61.12-31.25,7.49-3.32,44.81-2.91,48.17-2.09,1.94.47,3.84,1.21,5.63,2.24,2.59,1.49,4.21,4.26,4.3,7.25.14,4.97-1.15,10-2.88,14.71ZM492.65,192.55c-.15,2.32-.5,4.67-1.53,6.74-2.27,4.56-7.35,6.95-12.26,8.31-3.33.92-6.75,1.52-10.2,1.79-4.8.37-9.63.1-14.44-.18-4.04-.23-8.21-.5-11.81-2.33-3.35-1.71-5.93-4.66-7.77-7.94-1.84-3.27-7.44-17.57-2.49-24.36,13.58-6.22,28.99-7.24,43.88-6.54,1.84.09,3.67.28,5.49.56,1.52.23,3.29.51,5.06.89,3.89.82,6.66,4.24,6.77,8.21.13,4.94-.37,9.94-.7,14.86Z"/>
    </g>
    <g>
      <path class="st9" d="M332.71,174.4c.01-.42.04-.86.19-1.27h-12.08s-.36,6.24,0,6.38c.28.11,8.31.58,11.96.79-.09-1.97-.13-3.94-.07-5.9Z"/>
      <path class="st9" d="M511.64,168.9c.38-.86-1-1.16-1.93-1.04-3.75.49-7.58.52-11.31-.08-2.68-.43-5.31-1.17-7.99-1.62-3.7-.61-25.42-.29-32.47.16-16.38,1.04-26.92,6.74-34.34,7.03-7.87.3-14.01-2.64-21.73-4.2-5.05-1.02-10.25-1.05-15.4-.97-17.2.28-34.36,1.78-51.5,3.28-1.29.38-1.84,1-2.08,1.66-.15.42-.18.86-.19,1.27-.06,1.97-.02,3.94.07,5.9.02.5.03,1,.07,1.5,2.51-.32,5.04-.45,6.96.87,2.09,1.44,2.79,4.16,3.21,6.66.72,4.3,1.05,8.68,2.33,12.84,1.28,4.16,4.64,7.37,8.46,9.47,2.48,1.37,5.35,1.82,8.15,2.25,4.09.63,31.48,1.58,39.53-2.6,7.43-3.86,8.62-13.98,12.65-21.32.7-1.28,1.54-2.57,2.81-3.3,1.21-.69,2.66-.8,4.05-.88,2.11-.13,4.48-.17,6.04,1.25,1.54,1.4,5.28,23.51,17.59,25.11,6.54.49,16.19,1.76,23.37,1.15,5.78-.49,11.65-1.27,16.91-3.71,5.26-2.44,9.9-6.8,11.41-12.4.83-3.08.68-6.33,1.03-9.5s1.33-6.51,3.81-8.51c1.37-1.11,3.08-1.7,4.75-2.28,2.11-.73,4.22-1.46,6.32-2.18-.03-1.96-.23-3.92-.59-5.85ZM407.58,196.24c-1.5,4.1-2.85,9-6.67,11.11-9.71,5.35-33.34,4.04-42.58,2.27-2-.38-5.38-3.07-6.09-4.24-5.96-9.83-5.82-28.61.12-31.25,7.49-3.32,44.81-2.91,48.17-2.09,1.94.47,3.84,1.21,5.63,2.24,2.59,1.49,4.21,4.26,4.3,7.25.14,4.97-1.15,10-2.88,14.71ZM493.65,193.55c-.15,2.32-.5,4.67-1.53,6.74-2.27,4.56-7.35,6.95-12.26,8.31-3.33.92-6.75,1.52-10.2,1.79-4.8.37-9.63.1-14.44-.18-4.04-.23-8.21-.5-11.81-2.33-3.35-1.71-5.93-4.66-7.77-7.94-1.84-3.27-7.44-17.57-2.49-24.36,13.58-6.22,28.99-7.24,43.88-6.54,1.84.09,3.67.28,5.49.56,1.52.23,3.29.51,5.06.89,3.89.82,6.66,4.24,6.77,8.21.13,4.94-.37,9.94-.7,14.86Z"/>
    </g>
    <path class="st1" d="M464.58,430.65s-14.23,20.25-8.99,32.53,15.91,37.36,15.91,37.36"/>
    <path class="st1" d="M493.36,371.35s-13.85,11.23-26.66,25.1"/>
    <path class="st1" d="M435.28,261.88c-2.04.34-4.11.47-6.17.59-5.07.29-10.18.48-15.22-.2-4.99-.67-9.81-2.2-14.71-3.34-3.18-.75-6.41-1.32-9.65-1.75,9.37,8.63,21.71,14.16,34.42,14.21,13.46.05,27.03-6.49,34.58-17.57-7.85,2.2-15.15,6.71-23.25,8.06Z"/>
    <path class="st1" d="M322.16,190.68s-7.61-10.77-11.38-5.36.51,22.54,2.26,25.85,6.63,11.5,6.63,11.5"/>
    <path class="st1" d="M323.36,216.28s-2.33,3.34-3.69,11.23"/>
    <path class="st1" d="M511.24,180.06s4.83-8.52,5.41,0-6.54,36.03-5.41,41.84"/>
    <g>
      <path class="st1" d="M331.71,173.4c.01-.42.04-.86.19-1.27h-12.08s-.36,6.24,0,6.38c.28.11,8.31.58,11.96.79-.09-1.97-.13-3.94-.07-5.9Z"/>
      <path class="st1" d="M510.64,167.89c.38-.86-1-1.16-1.93-1.04-3.75.49-7.58.52-11.31-.08-2.68-.43-5.31-1.17-7.99-1.62-3.7-.61-25.42-.29-32.47.16-16.38,1.04-26.92,6.74-34.34,7.03-7.87.3-14.01-2.64-21.73-4.2-5.05-1.02-10.25-1.05-15.4-.97-17.2.28-34.36,1.78-51.5,3.28-1.29.38-1.84,1-2.08,1.66-.15.42-.18.86-.19,1.27-.06,1.97-.02,3.94.07,5.9.02.5.03,1,.07,1.5,2.51-.32,5.04-.45,6.96.87,2.09,1.44,2.79,4.16,3.21,6.66.72,4.3,1.05,8.68,2.33,12.84,1.28,4.16,4.64,7.37,8.46,9.47,2.48,1.37,5.35,1.82,8.15,2.25,4.09.63,31.48,1.58,39.53-2.6,7.43-3.86,8.62-13.98,12.65-21.32.7-1.28,1.54-2.57,2.81-3.3,1.21-.69,2.66-.8,4.05-.88,2.11-.13,4.48-.17,6.04,1.25,1.54,1.4,5.28,23.51,17.59,25.11,6.54.49,16.19,1.76,23.37,1.15,5.78-.49,11.65-1.27,16.91-3.71,5.26-2.44,9.9-6.8,11.41-12.4.83-3.08.68-6.33,1.03-9.5s1.33-6.51,3.81-8.51c1.37-1.11,3.08-1.7,4.75-2.28,2.11-.73,4.22-1.46,6.32-2.18-.03-1.96-.23-3.92-.59-5.85ZM406.58,195.24c-1.5,4.1-2.85,9-6.67,11.11-9.71,5.35-33.34,4.04-42.58,2.27-2-.38-5.38-3.07-6.09-4.24-5.96-9.83-5.82-28.61.12-31.25,7.49-3.32,44.81-2.91,48.17-2.09,1.94.47,3.84,1.21,5.63,2.24,2.59,1.49,4.21,4.26,4.3,7.25.14,4.97-1.15,10-2.88,14.71ZM492.65,192.55c-.15,2.32-.5,4.67-1.53,6.74-2.27,4.56-7.35,6.95-12.26,8.31-3.33.92-6.75,1.52-10.2,1.79-4.8.37-9.63.1-14.44-.18-4.04-.23-8.21-.5-11.81-2.33-3.35-1.71-5.93-4.66-7.77-7.94-1.84-3.27-7.44-17.57-2.49-24.36,13.58-6.22,28.99-7.24,43.88-6.54,1.84.09,3.67.28,5.49.56,1.52.23,3.29.51,5.06.89,3.89.82,6.66,4.24,6.77,8.21.13,4.94-.37,9.94-.7,14.86Z"/>
    </g>
  </g>
</svg>