<?xml version="1.0" encoding="utf-8"?>
<!-- Generator: Adobe Illustrator 24.0.3, SVG Export Plug-In . SVG Version: 6.00 Build 0)  -->
<svg version="1.1" xmlns="http://www.w3.org/2000/svg" xmlns:xlink="http://www.w3.org/1999/xlink" x="0px" y="0px"
	 viewBox="0 0 841.89 467.72" style="enable-background:new 0 0 841.89 467.72;" xml:space="preserve">
<style type="text/css">
	.st0{clip-path:url(#SVGID_2_);fill:#4890BA;}
	.st1{clip-path:url(#SVGID_2_);}
	.st2{fill:#FFFFFF;}
	.st3{fill:none;stroke:#54575C;stroke-miterlimit:10;}
	.st4{fill:#DCEFFA;}
	.st5{fill:#54575C;}
	.st6{fill:#F4F4F5;}
	.st7{fill:#61A575;}
	.st8{fill:none;}
	.st9{fill:#E0635D;}
	.st10{fill:#4890BA;}
	.st11{fill:#FFA16B;}
	.st12{fill:#F5C65D;}
	.st13{fill:#F29862;}
	.st14{fill:#235485;}
	.st15{fill:none;stroke:#54575C;stroke-linejoin:round;stroke-miterlimit:10;}
</style>
<g id="Layer_1">
</g>
<g id="Layer_2">
</g>
<g id="Layer_3">
	<g>
		<defs>
			<rect id="SVGID_1_" width="841.89" height="467.72"/>
		</defs>
		<clipPath id="SVGID_2_">
			<use xlink:href="#SVGID_1_"  style="overflow:visible;"/>
		</clipPath>
		<rect class="st0" width="841.89" height="467.72"/>
		<g class="st1">
			<g>
				<path class="st2" d="M589.56,311.75l-148.57-55.91L17.82,287.08c-2.28,0.17-4.05,2.07-4.05,4.35l0,0c0,1.56,0.83,3.01,2.18,3.79
					l18.31,10.63l6.11,245.58l28.26,2.26l-8.23-232.67l67.78,39.34l6.94,242.89l33.05,17.28l-4.89-258.65l259.36-27.18l0.47,181.82
					l28.66,4.05l-4.64-188.27l92.98-9.12l-3.49,232.1l31.97,3.19l-2.7-237.82l23.67-2.32L589.56,311.75z"/>
				<path class="st3" d="M590.85,313.35l-148.57-55.91l-426.73,31.5c-0.27,0.02-0.48,0.25-0.48,0.52l-0.01,3.57
					c0,1.56,0.83,3.01,2.18,3.79l18.31,10.63l6.11,245.58l28.26,2.26l-8.23-232.67l67.78,39.34l6.94,242.89l33.05,17.28
					l-4.89-258.65l259.36-27.18l0.47,181.82l28.66,4.05L448.4,333.9l92.98-9.12l-3.49,232.1l31.97,3.19l-2.7-237.82l23.67-2.32
					L590.85,313.35z"/>
				<path class="st4" d="M433.19,255.23l-413.1,30.49c-4.29,0.32-5.6,5.99-1.87,8.15l106.9,62.06l456.64-44.79L433.19,255.23z"/>
				<path class="st3" d="M439.62,256.38L19.08,287.42c-2.03,0.15-2.65,2.84-0.89,3.86l103.11,59.86c6.65,3.86,14.35,5.54,22.01,4.78
					l444.87-43.63L439.62,256.38z"/>
				<path class="st5" d="M253.05,328.99c23.85-2.25,116.7-12.19,137.89-14.46c1.59-0.17,2.04-2.16,0.72-3.15l-22.85-17.06
					c-1.34-1-2.99-1.46-4.6-1.28l-136.42,14.98c-1.58,0.17-2.11,2.09-0.88,3.18l16.42,14.54
					C246.01,328.13,249.56,329.32,253.05,328.99z"/>
				<path class="st3" d="M255.62,328.53c23.85-2.25,116.7-12.19,137.89-14.46c1.59-0.17,2.04-2.16,0.72-3.15l-22.85-17.06
					c-1.34-1-2.99-1.46-4.6-1.28l-136.42,14.98c-1.58,0.17-2.11,2.09-0.88,3.18l16.42,14.54
					C248.59,327.67,252.14,328.86,255.62,328.53z"/>
				<g>
					<path class="st5" d="M223.81,279.65c0.55,3.66,3.01,6.89,6.47,8.52l13.93,6.55c1.89,0.89,3.95,1.25,5.97,1.06l49.85-4.84
						c0.71-0.07,0.81-1.03,0.13-1.32l-27.05-11.58c-3.66-1.57-6.21-5-6.54-8.83l-0.62-7.02l-44.32,2.95L223.81,279.65z"/>
					<g>
						<path class="st5" d="M165.19,248.99l0.58,10.79c0.26,4.88,4.71,8.78,9.65,8.45l46.19-3.08l44.32-2.95l83.21-5.55
							c4.34-0.29,7.53-3.77,7.4-8.05l-0.31-9.92C306.8,241.37,187.34,247.89,165.19,248.99z"/>
						<path class="st6" d="M350.55,119.26c-0.15-4.77-4.34-8.71-9.19-8.65l-177.18,2.22c-4.61,0.06-8.1,3.72-7.85,8.26l6.96,128.85
							c22.15-1.09,141.6-7.62,191.04-10.33L350.55,119.26z"/>
					</g>
				</g>
				
					<ellipse transform="matrix(0.9945 -0.1047 0.1047 0.9945 -17.4229 27.9095)" class="st2" cx="257" cy="179.83" rx="47.28" ry="49.2"/>
				
					<ellipse transform="matrix(0.9945 -0.1047 0.1047 0.9945 -17.5335 27.6819)" class="st3" cx="254.78" cy="180.77" rx="47.28" ry="49.2"/>
				<g>
					<path class="st3" d="M224.61,278.5c0.55,3.66,3.01,6.89,6.47,8.52l13.93,6.55c1.89,0.89,3.95,1.25,5.97,1.06l49.85-4.84
						c0.71-0.07,0.81-1.03,0.13-1.32l-27.05-11.58c-3.66-1.57-6.21-5-6.54-8.83l-0.62-7.02l-44.32,2.95L224.61,278.5z"/>
					<g>
						<path class="st3" d="M166,247.84l0.58,10.79c0.26,4.88,4.71,8.78,9.65,8.45l46.19-3.08l44.32-2.95l83.21-5.55
							c4.34-0.29,7.53-3.77,7.4-8.05l-0.31-9.92C307.6,240.22,188.15,246.74,166,247.84z"/>
						<path class="st3" d="M353.26,117.16c-0.15-4.77-4.34-8.71-9.19-8.65l-177.18,2.22c-4.61,0.06-8.1,3.72-7.85,8.26L166,247.84
							c22.15-1.09,141.6-7.62,191.04-10.33L353.26,117.16z"/>
					</g>
				</g>
			</g>
			<g>
				<polygon class="st7" points="246.84,213.66 215.83,172.53 228.72,163.58 250.11,191.95 337.64,136.16 347.14,149.73 				"/>
			</g>
			<g>
				<polygon class="st3" points="247.09,214.24 216.08,173.1 228.97,164.16 250.36,192.53 337.89,136.73 347.39,150.3 				"/>
			</g>
		</g>
		<g class="st1">
			<g>
				<path class="st2" d="M667.78,317.25c0-1.15,0.01-2.3,0.03-3.42C667.79,314.95,667.78,316.1,667.78,317.25z"/>
				<path class="st2" d="M666.89,336.54c0,0-7.71-1.1-15.65-1.32C659.6,335.96,666.89,336.54,666.89,336.54z"/>
				<path class="st2" d="M369.05,366.39l1.31-0.07l-0.88-0.04C369.35,366.31,369.2,366.35,369.05,366.39z"/>
				<path class="st2" d="M461.06,370.77l-72.51-3.56l20.87,23.02l88.74-3.63l-3.26-14.55c-3.81-0.24-7.93-0.58-11.51-0.58
					C473.6,371.47,461.06,370.77,461.06,370.77z"/>
				<polygon class="st2" points="612.06,388.93 687.04,373.1 684.59,370.57 611.79,384.78 				"/>
				<path class="st2" d="M338.44,372.91c17.98-3.27,27.42-5.66,30.61-6.53c0.15-0.04,0.3-0.08,0.42-0.12l-4.94-0.24
					c-4.71-2.9,2.54-34.79,2.54-34.79s0.05,0,0.12,0.01c0.09,0.01,0.22,0.02,0.41,0.04c0.18,0.02,0.39,0.04,0.65,0.06
					c0.16,0.01,0.34,0.03,0.54,0.05c0,0,0.01,0,0.01,0c0.42,0.04,0.91,0.08,1.47,0.14c0.05,0.01,0.11,0.01,0.16,0.02
					c0.88,0.08,1.91,0.18,3.07,0.29c0.01,0,0.03,0,0.04,0c8.45,0.79,23.94,2.3,38.94,4.01c0,0,0,0,0,0
					c0.71,0.08,1.41,0.16,2.12,0.24c0.01,0,0.02,0,0.02,0c0.53-6.01,0.96-13.18-0.2-19.88c-1.93-11.19-10.97-56.6-8.08-70.75
					c-0.01,0-0.01-0.01-0.02-0.01c-0.67-0.32-1.33-0.65-1.99-0.98c-0.2-0.1-0.39-0.19-0.59-0.29c-0.57-0.28-1.14-0.57-1.7-0.86
					c-0.11-0.06-0.23-0.11-0.34-0.17c-0.66-0.34-1.31-0.67-1.96-1.01c-0.18-0.09-0.35-0.18-0.53-0.28
					c-0.53-0.28-1.07-0.56-1.59-0.85c-0.14-0.08-0.28-0.15-0.42-0.23c-0.63-0.34-1.26-0.69-1.88-1.03
					c-0.15-0.09-0.31-0.17-0.46-0.26c-0.51-0.28-1.01-0.57-1.51-0.86c-0.15-0.09-0.3-0.17-0.46-0.26c-0.61-0.35-1.2-0.7-1.79-1.06
					c-0.12-0.07-0.23-0.14-0.35-0.21c-0.49-0.3-0.98-0.59-1.45-0.89c-0.15-0.09-0.31-0.19-0.46-0.28c-0.57-0.36-1.13-0.72-1.68-1.08
					c-0.07-0.05-0.14-0.09-0.21-0.14c-0.48-0.32-0.96-0.64-1.42-0.96c-0.14-0.1-0.29-0.2-0.43-0.3c-0.52-0.36-1.02-0.72-1.52-1.07
					c-0.01-0.01-0.02-0.02-0.03-0.02c-0.5-0.36-0.98-0.73-1.45-1.09c-0.13-0.1-0.26-0.2-0.38-0.3c-0.41-0.32-0.81-0.64-1.2-0.96
					c-0.06-0.05-0.13-0.1-0.19-0.15c-0.44-0.36-0.86-0.73-1.26-1.09c-0.11-0.09-0.21-0.19-0.31-0.28c-0.34-0.3-0.66-0.61-0.98-0.91
					c-0.08-0.07-0.15-0.15-0.23-0.22c-0.37-0.36-0.72-0.72-1.06-1.09c-0.08-0.09-0.15-0.17-0.23-0.26c-0.27-0.3-0.53-0.6-0.78-0.9
					c-0.07-0.09-0.15-0.17-0.22-0.26c-0.29-0.36-0.57-0.72-0.83-1.08c-0.05-0.07-0.1-0.14-0.14-0.21c-0.21-0.3-0.41-0.6-0.59-0.91
					c-0.06-0.09-0.11-0.19-0.17-0.28c-0.21-0.36-0.4-0.72-0.57-1.08c-0.02-0.05-0.04-0.09-0.06-0.14c-0.15-0.32-0.27-0.63-0.39-0.95
					c-0.03-0.1-0.07-0.19-0.1-0.29c-0.12-0.36-0.22-0.71-0.3-1.07c-1.41-6.72-6.52-12.2-11.08-17.71
					c-0.68,4.71-2.99,10.82-8.82,18.11c-14.49,18.12-21.02,34.42-18.12,43.85s3.26,14.49-4.35,24.64
					c-7.61,10.15-9.78,42.4-13.05,55.44c-2.06,8.25-2.38,19.69,3.72,25.88C323.96,372.68,329.65,374.51,338.44,372.91z"/>
				<path class="st2" d="M419.8,336.7c0.02,0,0.04,0.01,0.07,0.01c1.69,0.2,3.35,0.41,4.97,0.61c0.04,0.01,0.09,0.01,0.13,0.02
					c0.81,0.1,1.61,0.2,2.4,0.31c0.02,0,0.04,0.01,0.06,0.01c0.75,0.1,1.49,0.2,2.22,0.29c0.07,0.01,0.14,0.02,0.21,0.03
					c0.74,0.1,1.46,0.2,2.18,0.3c0.07,0.01,0.14,0.02,0.22,0.03c0.65,0.09,1.3,0.18,1.93,0.27c0.08,0.01,0.16,0.02,0.24,0.03
					c0.66,0.1,1.31,0.19,1.95,0.29c0.11,0.02,0.22,0.03,0.33,0.05c0.57,0.09,1.13,0.17,1.68,0.26c0.08,0.01,0.16,0.02,0.24,0.04
					c0.6,0.09,1.17,0.19,1.74,0.28c0.11,0.02,0.22,0.04,0.32,0.05c0.51,0.08,1.01,0.17,1.49,0.25c0.06,0.01,0.13,0.02,0.19,0.03
					c0.51,0.09,1.01,0.18,1.49,0.27c0.11,0.02,0.23,0.04,0.34,0.06c0.44,0.08,0.87,0.16,1.28,0.25c0.04,0.01,0.08,0.02,0.12,0.02
					c0.43,0.09,0.84,0.17,1.23,0.26c0.1,0.02,0.19,0.04,0.29,0.06c0.39,0.09,0.76,0.17,1.11,0.26c16.31,3.99,18.84-3.26,18.84-3.26
					c10.15-11.96,21.02-11.96,21.02-11.96s0.73,0.08,2,0.26l-25.22-21.21c-0.72-0.61-0.95-1.62-0.55-2.48
					c0.58-1.24,2.17-1.59,3.22-0.72l31.28,25.9c0.51,0.1,1.04,0.21,1.57,0.33c0,0,0,0,0,0c-1.21-16.44-3-44.92-2.09-59.1
					c0.84-13.11-12.31-35.24-22.03-49.65c-1.46-0.26-3.32-0.57-5.43-0.96c-0.1-0.02-0.19-0.03-0.29-0.05
					c-0.45-0.08-0.92-0.17-1.39-0.27c-0.14-0.03-0.27-0.05-0.41-0.08c-0.46-0.09-0.93-0.19-1.4-0.29c-0.16-0.03-0.32-0.06-0.48-0.1
					c-0.46-0.1-0.93-0.2-1.4-0.31c-0.19-0.04-0.37-0.08-0.57-0.13c-0.66-0.15-1.33-0.31-2.01-0.48
					c-0.83,5.01-4.69,12.52-19.37,16.64c3.22,7.68,8.59,16.47,16.93,26.67c0,0-8,5.34-31.13-4.15c-0.82-0.34-1.65-0.68-2.49-1.03
					c-0.26-0.11-0.53-0.22-0.79-0.33c-0.6-0.25-1.2-0.5-1.81-0.76c-0.29-0.12-0.59-0.25-0.88-0.37c-0.62-0.26-1.24-0.53-1.86-0.79
					c-0.27-0.11-0.53-0.23-0.8-0.34c-1.76-0.76-3.55-1.54-5.34-2.35c-0.26-0.12-0.52-0.24-0.78-0.35c-0.64-0.29-1.28-0.58-1.93-0.87
					c-0.3-0.14-0.6-0.28-0.9-0.41c-0.64-0.3-1.28-0.6-1.93-0.9c-0.26-0.12-0.53-0.25-0.79-0.37c-0.9-0.42-1.8-0.85-2.69-1.28
					c-2.89,14.15,6.15,59.56,8.08,70.75c1.15,6.7,0.73,13.87,0.2,19.88c0.01,0,0.01,0,0.02,0C416.37,336.29,418.1,336.5,419.8,336.7
					z"/>
				<path class="st2" d="M476.47,219.17c-0.06-0.01-0.14-0.02-0.2-0.04c9.71,14.41,22.86,36.55,22.03,49.65
					c-0.91,14.18,0.88,42.66,2.09,59.1c0,0,0,0,0,0c0.82,0.18,1.67,0.37,2.52,0.57c0.1,0.02,0.2,0.05,0.31,0.07
					c0.82,0.19,1.65,0.4,2.48,0.62c0.15,0.04,0.3,0.08,0.45,0.12c0.83,0.22,1.67,0.45,2.5,0.69c0.13,0.04,0.26,0.08,0.39,0.12
					c0.87,0.26,1.75,0.53,2.61,0.82c8.36,2.79,15.19,7.81,18.48,9.06c7.61,2.9,6.52,7.97,3.26,10.15c-1.75,1.17-5.27,0.35-8.16-0.66
					l9.41,7.79l12.56-0.7c-2.41-11.69-7.66-38.03-7.66-45.57c0-9.78,7.97-63.05,0.36-76.46c-7.25-12.77,0.96-21.93-45.87-40.31
					C491.93,199.8,483.65,220.45,476.47,219.17z"/>
				<path class="st2" d="M515.63,356.97c0,0.47-0.03,0.9-0.07,1.31l12.04-0.67l-4.44-3.73C521.78,356.8,515.63,356.97,515.63,356.97
					z"/>
				<path class="st2" d="M462.9,216.47c-7.66-1.92-16.31-5.03-22.31-10.41c-1.85,7.3-1.67,16.04,2.94,27.06
					C458.21,229,462.07,221.48,462.9,216.47z"/>
				<path class="st2" d="M492.48,126.37c-0.59,1.76-28.78,37.86-39.43,56.03c-1.61,2.75-3.58,5.58-5.51,8.63
					c-0.77,1.22-1.53,2.47-2.27,3.76c-1.92,3.4-3.64,7.1-4.69,11.26c6,5.39,14.66,8.5,22.31,10.41c0.68,0.17,1.35,0.33,2.01,0.48
					c0.19,0.04,0.38,0.08,0.57,0.13c0.47,0.11,0.94,0.21,1.4,0.31c0.16,0.04,0.32,0.07,0.48,0.1c0.47,0.1,0.94,0.2,1.4,0.29
					c0.14,0.03,0.27,0.05,0.41,0.08c0.47,0.09,0.94,0.18,1.39,0.27c0.1,0.02,0.19,0.03,0.29,0.05c2.21,0.41,4.14,0.72,5.63,0.99
					c7.18,1.28,15.46-19.37,17.57-24.98c0.33-0.88,0.51-1.4,0.51-1.4s1.78,0,7.12-0.3s3.85-3.26,0-10.67
					c-3.85-7.41,5.63-34.09,5.63-46.25c0-6.24-2.03-11.3-4.01-14.75C501.01,124.36,492.48,126.37,492.48,126.37z"/>
				<path class="st2" d="M372.41,219.94c0.03,0.09,0.07,0.19,0.1,0.29c0.11,0.32,0.24,0.63,0.39,0.95c0.02,0.05,0.04,0.09,0.06,0.14
					c0.17,0.36,0.36,0.72,0.57,1.08c0.05,0.09,0.11,0.19,0.17,0.28c0.18,0.3,0.38,0.6,0.59,0.91c0.05,0.07,0.09,0.14,0.14,0.21
					c0.26,0.36,0.53,0.72,0.83,1.08c0.07,0.09,0.14,0.17,0.22,0.26c0.25,0.3,0.51,0.6,0.78,0.9c0.08,0.09,0.15,0.17,0.23,0.26
					c0.34,0.36,0.69,0.72,1.06,1.09c0.07,0.07,0.15,0.15,0.23,0.22c0.31,0.3,0.64,0.61,0.98,0.91c0.1,0.09,0.21,0.19,0.31,0.28
					c0.41,0.36,0.83,0.73,1.26,1.09c0.06,0.05,0.12,0.1,0.19,0.15c0.39,0.32,0.79,0.64,1.2,0.96c0.13,0.1,0.25,0.2,0.38,0.3
					c0.47,0.36,0.96,0.73,1.45,1.09c0.01,0.01,0.02,0.02,0.03,0.02c0.49,0.36,1,0.72,1.52,1.07c0.14,0.1,0.29,0.2,0.43,0.3
					c0.47,0.32,0.94,0.64,1.42,0.96c0.07,0.05,0.14,0.09,0.21,0.14c0.55,0.36,1.11,0.72,1.68,1.08c0.15,0.1,0.3,0.19,0.46,0.28
					c0.48,0.3,0.96,0.6,1.45,0.89c0.12,0.07,0.23,0.14,0.35,0.21c0.59,0.35,1.19,0.71,1.79,1.06c0.15,0.09,0.3,0.17,0.46,0.26
					c0.5,0.29,1,0.57,1.51,0.86c0.15,0.09,0.31,0.17,0.46,0.26c0.62,0.35,1.25,0.69,1.88,1.03c0.14,0.08,0.28,0.15,0.42,0.23
					c0.53,0.28,1.06,0.57,1.59,0.85c0.18,0.09,0.35,0.18,0.53,0.28c0.65,0.34,1.3,0.68,1.96,1.01c0.11,0.06,0.23,0.11,0.34,0.17
					c0.57,0.29,1.13,0.57,1.7,0.86c0.2,0.1,0.39,0.2,0.59,0.29c0.66,0.33,1.32,0.65,1.99,0.98c0.01,0,0.01,0.01,0.02,0.01
					c0.89,0.43,1.79,0.86,2.69,1.28c0.26,0.12,0.53,0.25,0.79,0.37c0.64,0.3,1.28,0.6,1.93,0.9c0.3,0.14,0.6,0.28,0.9,0.41
					c0.64,0.29,1.28,0.59,1.93,0.87c0.26,0.12,0.52,0.24,0.78,0.35c1.79,0.8,3.57,1.58,5.34,2.35c0.27,0.12,0.53,0.23,0.8,0.34
					c0.62,0.27,1.24,0.53,1.86,0.79c0.3,0.13,0.59,0.25,0.88,0.37c0.61,0.26,1.21,0.51,1.81,0.76c0.26,0.11,0.53,0.22,0.79,0.33
					c0.84,0.35,1.67,0.69,2.49,1.03c23.13,9.49,31.13,4.15,31.13,4.15c-8.35-10.2-13.72-18.99-16.93-26.67
					c-4.62-11.02-4.79-19.75-2.94-27.06c1.06-4.16,2.77-7.86,4.69-11.26c0.73-1.3,1.5-2.55,2.27-3.76c1.93-3.05,3.9-5.88,5.51-8.63
					c10.65-18.18,38.85-54.28,39.43-56.03c0,0,8.53-2.01,10.81-5.56c0.2-0.31,0.36-0.63,0.45-0.96
					c2.22-7.78-17.79-29.94-37.36-41.51c-19.57-11.56-34.98-5.93-39.43-5.34c-57.62,7.68-74.12,99.91-73.82,112.36
					c0.14,5.89,3.8,10.85,7.89,15.79c4.56,5.51,9.68,10.99,11.08,17.71C372.19,219.22,372.29,219.58,372.41,219.94z"/>
				<path class="st2" d="M585.78,193.26c2.22,0.3,4,3.02,5.17,5.44c0.26,0.22,0.52,0.45,0.79,0.71c0.05,0.05,0.14,0.01,0.24-0.09
					c1.22-1.16,5.53-11.65,5.53-13.7c0-2.24,1.3,0,2.8,0.75c1.49,0.75,6.15-1.86,6.34-5.22c0.19-3.35,1.68,5.4,6.34,2.42
					s6.15-7.64,6.15-7.64s4.1,4.47,13.05-0.56c0,0-1.68-0.75,7.64,3.17c9.32,3.91,13.98,4.85,13.98,4.85s-13.8-11.1-10.44-10.62
					c1.05,0.15,13.65,5.89,18.17,12.52c1.08,1.58,1.7,3.2,1.59,4.82c0,0,13.05-48.64-13.05-54.61c-26.09-5.96-25.16-3.35-25.16-3.35
					s-2.24-2.98-6.71-2.05s-11.37,0.56-7.64,3.17c3.73,2.61-3.17,1.3-5.96,3.54c-2.8,2.24-5.96,5.22-10.25,6.15
					c-4.29,0.93-10.44,2.61-12.49,12.11c0,0-2.42,5.96-4.29,9.51c-1.86,3.54,2.61,9.32,2.8,16.21c0.19,6.9-2.98,10.25,0,13.05
					c2.04,1.91,3.2,2.43,3.74,2.56C584.17,192.23,585.78,193.26,585.78,193.26z"/>
				<path class="st2" d="M662.94,192.14l-1.4-6.87c-4.51-6.62-17.11-12.37-18.17-12.52c-3.37-0.48,10.44,10.62,10.44,10.62
					s-4.66-0.93-13.98-4.85c-9.32-3.91-7.64-3.17-7.64-3.17c-8.95,5.03-13.05,0.56-13.05,0.56s-1.49,4.66-6.15,7.64
					s-6.15-5.78-6.34-2.42c-0.19,3.35-4.85,5.96-6.34,5.22c-1.49-0.75-2.8-2.98-2.8-0.75c0,2.06-4.32,12.54-5.53,13.7
					c-0.11,0.1-0.19,0.14-0.24,0.09c-0.27-0.26-0.53-0.49-0.79-0.71c-1.17-2.42-2.95-5.13-5.17-5.44c0,0-1.61-1.03-1.67,3.12
					c-0.02,1.14,0.08,2.66,0.36,4.71c1.3,9.51,4.1,16.03,7.83,16.59c3.19,0.48,5.29,15.94,12.82,23.67
					c1.28,1.31,2.71,2.41,4.33,3.17c11.18,5.22,19.76,8.76,32.8-1.12c0.16-0.12,0.31-0.24,0.47-0.37
					c12.54-9.68,11.83-16.61,11.83-17.71c0-1.12,0.93-10.25,0.93-10.25s0.75,3.91,3.91,0.37
					C662.57,211.9,668.53,192.89,662.94,192.14z"/>
				<path class="st2" d="M603.24,260.21l1.28-13.58c-3.32-0.45-4.62-0.62-4.62-0.62s-0.13,0-0.36-0.01
					c0.94,2.89,2.16,8.75,3.07,14.23C602.81,260.22,603.03,260.22,603.24,260.21z"/>
				<path class="st2" d="M659.14,284.67c-2.32-2.7-7.27-17.42-10.56-27.75c-0.34,0.33-13.47,12.91-45.34,3.29
					c-0.21,0.01-0.42,0.01-0.63,0.02c1.66,10.36,2.74,22.56,1.43,27.67c0,0-0.3,0.06-0.81,0.15c0.15,0.82,0.29,1.79,0.37,2.78
					c12.21,1.04,48.18,4.04,57.23,4.01C659.76,290.43,659.14,284.67,659.14,284.67z"/>
				<path class="st2" d="M645.77,247.91c-0.31,0.06-0.61,0.11-0.91,0.17l3.64,8.61C647.28,252.84,646.29,249.63,645.77,247.91z"/>
				<path class="st2" d="M648.58,256.92c-0.02-0.07-0.05-0.15-0.07-0.22l-3.64-8.61l-2.14-5.06c-0.16,0.12-0.31,0.24-0.47,0.37
					c-13.05,9.88-21.62,6.34-32.8,1.12c-1.62-0.76-3.05-1.85-4.33-3.17l-0.61,5.28l-1.55,13.5
					C635.04,269.9,648.24,257.25,648.58,256.92z"/>
				<path class="st2" d="M648.51,256.7c0.02,0.07,0.05,0.15,0.07,0.22c0,0,0.02-0.02,0.02-0.02L648.51,256.7z"/>
				<path class="st2" d="M591.59,288.01c-0.43-0.6-0.68-0.97-0.68-0.97C590.98,287.44,591.23,287.76,591.59,288.01z"/>
				<path class="st2" d="M602.75,285.74c0,0,0.24,0.96,0.48,2.31c0.51-0.09,0.81-0.15,0.81-0.15c2.05-8.01-1.75-33.44-4.5-41.9
					c-0.43-1.31-0.76-2.22-0.93-2.57c-1.29-2.58-15.23-0.09-16.53,1.85c-0.07,0.11-0.11,0.34-0.11,0.66
					c-0.13,5.29,8.33,37.85,8.94,41.1L602.75,285.74z"/>
				<path class="st2" d="M603.6,290.83c-0.08-0.99-0.23-1.96-0.37-2.78c-0.24-1.35-0.48-2.31-0.48-2.31l-11.84,1.29
					c0,0,0.25,0.38,0.68,0.97c1.24,1.73,4,5.34,6.67,7.33c1.12,0.83,2.22,1.39,3.19,1.39C603.6,296.72,603.85,293.7,603.6,290.83z"
					/>
				<path class="st2" d="M663.02,299.74c0.61,0.28,1.45-0.37,2.34-1.54c0.02-0.03,0.05-0.06,0.07-0.1c1.15-1.56,2.36-4,3.21-6.46
					c0.62-1.79,1.05-3.58,1.13-5.06c-0.08,0.24-0.18,0.39-0.3,0.46c-2.37,1.29-9.04-0.86-10.33-2.37c0,0,0.62,5.76,1.69,10.17
					C661.43,297.31,662.17,299.35,663.02,299.74z"/>
				<path class="st2" d="M665.28,246.83c-0.4-0.95-0.8-1.5-1.19-1.55c-3.44-0.43-18.73,1.29-18.73,1.29s0.15,0.49,0.41,1.35
					c0.52,1.71,1.51,4.93,2.74,8.78l0.09,0.2c0,0-0.01,0.01-0.02,0.02c3.29,10.33,8.25,25.05,10.56,27.75
					c1.29,1.51,7.96,3.66,10.33,2.37c0.12-0.06,0.21-0.22,0.3-0.46C671.23,282.49,668.25,253.85,665.28,246.83z"/>
				<path class="st2" d="M669.77,286.58c-0.08,1.48-0.52,3.27-1.13,5.06l0.84-0.08c0,0,4.31,13.99,8.83,15.5
					c0.9,0.3,2.74,0,5.09-0.66c7.85-2.22,21.47-8.56,25.7-10.56c0.82-0.39,1.29-0.62,1.29-0.62s-12.27-38.32-32.29-45.63
					c-4.22-1.54-8.56-2.38-12.8-2.75C668.25,253.85,671.23,282.49,669.77,286.58z"/>
				<path class="st2" d="M559.91,297.15c2.79-2.21,13.35,4.95,13.35,4.95l-1.08,30.14l0.76-0.03c0.3-0.37,0.6-0.74,0.9-1.12
					c9.58-11.88,20.74-26.75,24.42-35.75c-2.68-1.99-5.43-5.6-6.67-7.33c-0.36-0.25-0.61-0.57-0.68-0.97
					c-0.61-3.25-9.07-35.81-8.94-41.1c-6.32,0.4-13.18,1.29-17.32,3.22c-5.06,2.36-8.86,10.94-13.99,20.45
					c-4.25,7.87-6.67,16.57-9.69,25.4c0.12,0.18,4.79,1.36,9.51,2.12C554.58,297.77,558.71,298.1,559.91,297.15z"/>
				<path class="st2" d="M668.94,330.76c-0.13-0.52-0.25-1.08-0.36-1.68C668.69,329.68,668.81,330.24,668.94,330.76z"/>
				<path class="st2" d="M667.8,319.56c-0.02-0.77-0.02-1.54-0.03-2.31C667.78,318.02,667.79,318.79,667.8,319.56z"/>
				<path class="st2" d="M668,324.07c-0.08-1.09-0.13-2.21-0.16-3.36C667.87,321.85,667.92,322.98,668,324.07z"/>
				<path class="st2" d="M666.95,300.06c0.78,1.09,1.22,2.37,1.26,3.71C668.16,302.44,667.72,301.15,666.95,300.06z"/>
				<path class="st2" d="M464.32,302.38c-0.4,0.85-0.17,1.87,0.55,2.48l25.22,21.21c1.91,0.27,5.05,0.75,8.73,1.49l-31.28-25.9
					C466.49,300.78,464.9,301.14,464.32,302.38z"/>
				<path class="st2" d="M520.71,347.55c2.69,2.92,3.11,4.93,2.45,6.33l4.44,3.73l5.83,4.9l3.65,3.07l6.75,3.37l-3.73-6.58
					l-0.68-1.2l-4.77-3.95l-9.41-7.79C522.74,348.56,520.71,347.55,520.71,347.55z"/>
				<path class="st2" d="M523.16,353.88c0.66-1.39,0.24-3.41-2.45-6.33c0,0,2.03,1.01,4.52,1.88c2.89,1.01,6.41,1.82,8.16,0.66
					c3.26-2.17,4.35-7.25-3.26-10.15c-3.29-1.25-10.12-6.27-18.48-9.06c-0.86-0.29-1.73-0.56-2.61-0.82
					c-0.13-0.04-0.26-0.08-0.39-0.12c-0.83-0.24-1.67-0.47-2.5-0.69c-0.15-0.04-0.3-0.08-0.45-0.12c-0.83-0.22-1.67-0.42-2.48-0.62
					c-0.1-0.02-0.2-0.05-0.31-0.07c-0.86-0.2-1.7-0.39-2.52-0.57c0,0,0,0,0,0c-0.53-0.11-1.06-0.22-1.57-0.33
					c-3.67-0.74-6.81-1.22-8.73-1.49c-1.26-0.18-2-0.26-2-0.26s-10.87,0-21.02,11.96c0,0-2.54,7.25-18.84,3.26
					c-0.35-0.08-0.72-0.17-1.11-0.26c-0.09-0.02-0.19-0.04-0.29-0.06c-0.39-0.09-0.8-0.17-1.23-0.26c-0.04-0.01-0.08-0.02-0.12-0.02
					c-0.41-0.08-0.84-0.16-1.28-0.25c-0.11-0.02-0.22-0.04-0.34-0.06c-0.48-0.09-0.97-0.18-1.49-0.27
					c-0.06-0.01-0.13-0.02-0.19-0.03c-0.48-0.08-0.98-0.17-1.49-0.25c-0.11-0.02-0.21-0.04-0.32-0.05
					c-0.56-0.09-1.14-0.18-1.74-0.28c-0.08-0.01-0.16-0.02-0.24-0.04c-0.55-0.09-1.11-0.17-1.68-0.26
					c-0.11-0.02-0.22-0.03-0.33-0.05c-0.64-0.09-1.29-0.19-1.95-0.29c-0.08-0.01-0.16-0.02-0.24-0.03
					c-0.63-0.09-1.28-0.18-1.93-0.27c-0.07-0.01-0.14-0.02-0.22-0.03c-0.72-0.1-1.44-0.2-2.18-0.3c-0.07-0.01-0.14-0.02-0.21-0.03
					c-0.73-0.1-1.47-0.2-2.22-0.29c-0.02,0-0.04-0.01-0.06-0.01c-0.79-0.1-1.59-0.2-2.4-0.31c-0.04-0.01-0.09-0.01-0.13-0.02
					c-1.63-0.21-3.29-0.41-4.97-0.61c-0.02,0-0.04-0.01-0.07-0.01c-1.71-0.21-3.44-0.41-5.18-0.61c-0.01,0-0.03,0-0.04,0
					c-0.7-0.08-1.41-0.16-2.12-0.24c0,0,0,0,0,0c-15-1.71-30.49-3.21-38.94-4.01c-0.01,0-0.03,0-0.04,0
					c-1.17-0.11-2.2-0.21-3.07-0.29c-0.06-0.01-0.11-0.01-0.16-0.02c-0.56-0.05-1.05-0.1-1.47-0.14c0,0-0.01,0-0.01,0
					c-0.2-0.02-0.37-0.03-0.54-0.05c-0.26-0.02-0.48-0.04-0.65-0.06c-0.18-0.02-0.32-0.03-0.41-0.04c-0.07-0.01-0.12-0.01-0.12-0.01
					s-7.25,31.89-2.54,34.79l4.94,0.24l0.88,0.04l18.19,0.89l72.51,3.56c0,0,12.54,0.69,22.32,0.69c3.58,0,7.7,0.34,11.51,0.58
					c6.61,0.41,12.31,0.5,12.77-2.02c0.53-2.94-0.9-5.68-1.69-6.91c-0.28-0.44-0.48-0.7-0.48-0.7s1.04,0.41,2.45,0.65
					c1.22,0.21,2.71,0.3,4.05-0.09c1.73-0.5,3.22-1.81,3.56-4.7c0.05-0.4,0.07-0.84,0.07-1.31
					C515.63,356.97,521.78,356.8,523.16,353.88z"/>
				<path class="st2" d="M595.45,376.99c1.77-0.03,3.52-0.12,5.22-0.24c13.51-1.01,24.36-4.69,24.36-4.69l-4.28-6.8
					c-0.19,0.41-0.5,0.72-1,0.77c-1.94,0.22,0.65,2.15-4.31,2.58c-2.74,0.24-9.29-0.12-15-1.06c-4.62-0.77-8.7-1.92-9.75-3.46
					c-1.49-2.17-13.56-5.96-23.48-8.68c-2.07-0.57-4.06-1.09-5.82-1.55l-1.33,1.94l-8.46,12.36
					C551.6,368.17,579.62,377.25,595.45,376.99z"/>
				<path class="st2" d="M629.27,368.25l2.37,1.25l-0.9-2.37l-8.85-10.64c-0.51-0.21-0.84-0.36-0.84-0.36s4.17,5.91,2.33,6.15
					C626.84,365.9,628.65,367.76,629.27,368.25z"/>
				<path class="st2" d="M597.48,327.17c-0.86-1.03-2.35-1.25-3.47-0.51v0c-1.34,0.89-1.58,2.76-0.49,3.95
					c0.18,0.19,0.37,0.4,0.58,0.62c1.86,1.99,4.39,4.68,7.24,7.72c2.13-0.04,4.07,0.2,6.36,1.45c0.44,0.24,0.98,0.56,1.59,0.94
					l-8.67-10.42L597.48,327.17z"/>
				<path class="st2" d="M590.69,364.1c1.06,1.54,5.13,2.69,9.75,3.46c5.71,0.95,12.26,1.3,15,1.06c4.95-0.43,2.37-2.37,4.31-2.58
					c0.5-0.06,0.81-0.36,1-0.77c0.55-1.19,0.07-3.32,0.07-3.32s-1.94-1.08,1.72,0.22c0.36,0.13,0.62,0.15,0.82,0.13
					c1.84-0.24-2.33-6.15-2.33-6.15s0.34,0.16,0.84,0.36c1.75,0.72,5.66,2.12,5.83,0.28c0.07-0.76-1.49-2.46-3.8-4.5
					c-1.32-1.17-12.05-10.38-14.03-10.53c-0.21-0.13-0.41-0.26-0.6-0.38c-0.61-0.38-1.15-0.7-1.59-0.94
					c-2.29-1.25-4.24-1.49-6.36-1.45c-2.26,0.04-4.73,0.38-8.06,0.16c-0.58-0.04-1.19-0.12-1.84-0.25c-0.64-0.12-1.31-0.29-2-0.48
					c-0.34-0.1-0.69-0.2-1.04-0.31c-3.87-1.22-8.11-3.27-11.04-4.86c-0.34-0.18-0.69-0.34-1.05-0.48c-1.07-0.41-2.22-0.59-3.37-0.54
					l-0.76,0.03l1.08-30.14c0,0-10.56-7.16-13.35-4.95c-1.2,0.95-5.33,0.62-9.44-0.03c-0.98,10.48-3.52,36.94-4.55,41.58
					c-1.29,5.81,3.87,12.7,8.61,13.56c1.13,0.21,3.65,0.79,6.86,1.61c1.77,0.45,3.75,0.98,5.82,1.55
					C577.13,358.14,589.2,361.93,590.69,364.1z"/>
				<path class="st2" d="M658.56,360.82L658.56,360.82c0.08,0,0.16,0,0.23,0C658.71,360.82,658.64,360.82,658.56,360.82z"/>
				<path class="st2" d="M667.72,359.43c-0.03,0.02-0.06,0.03-0.1,0.05c-0.11,0.05-0.23,0.11-0.37,0.16
					c-0.02,0.01-0.04,0.02-0.06,0.03c-0.16,0.06-0.34,0.12-0.53,0.18c-0.05,0.02-0.11,0.03-0.16,0.05
					c-0.16,0.05-0.33,0.09-0.52,0.14c-0.05,0.01-0.1,0.03-0.16,0.04c-0.23,0.05-0.47,0.11-0.72,0.16c-0.07,0.01-0.15,0.03-0.22,0.04
					c-0.2,0.04-0.4,0.08-0.61,0.11c-0.09,0.01-0.17,0.03-0.26,0.04c-0.27,0.04-0.55,0.08-0.84,0.12c-0.08,0.01-0.17,0.02-0.26,0.03
					c-0.22,0.03-0.45,0.05-0.69,0.08c-0.11,0.01-0.22,0.02-0.34,0.03c-0.3,0.03-0.59,0.05-0.9,0.07c-0.08,0.01-0.17,0.01-0.26,0.01
					c-0.26,0.01-0.52,0.02-0.78,0.03c-0.12,0-0.24,0.01-0.37,0.01c-0.26,0-0.53,0.01-0.8,0c-0.08,0-0.16,0-0.23,0
					c-1.06,0.49-2.21,1-3.47,1.5c-6,2.44-9.09-0.66-9.09-0.66l0.15-0.13c-1.46,0.02-2.63-0.33-2.83-1.44
					c-0.18-0.24-0.29-0.53-0.31-0.88c-0.22-3.66,0.41-3.73,0.41-3.73s-2.11-0.79-3.07-2.52l-0.03,0.01
					c-0.03-0.05-0.04-0.12-0.06-0.18c-0.02-0.04-0.05-0.07-0.06-0.11c0,0-9.26,6.46-10.33,3.01c-0.34-1.1,0.97-2.51,2.9-3.92
					l-8.85,0.49c2.3,2.04,3.87,3.74,3.8,4.5c-0.17,1.84-4.08,0.44-5.83-0.28l8.85,10.64l0.95,2.4l-0.06-0.03l0.01,0.03l-2.38-1.28
					c-0.61-0.49-2.42-2.34-5.89-5.96c-0.2,0.03-0.46,0-0.82-0.13c-3.66-1.29-1.72-0.22-1.72-0.22s0.47,2.13-0.07,3.32l4.28,6.8
					c0,0-10.85,3.68-24.36,4.69l-0.81,10.36l11.93-2.33l72.8-14.22l2.97-0.58l-13.72-14.09c-2.3,0.55-5.47,3.05-5.83,3.35
					C667.94,359.31,667.84,359.37,667.72,359.43z"/>
				<path class="st2" d="M635.25,341.71c1-1.99,12.87-6.58,15.99-6.49C648.13,334.94,636.25,339.72,635.25,341.71z"/>
				<path class="st2" d="M670.55,334.18c-0.68-0.65-1.21-1.85-1.61-3.42c-0.13-0.52-0.25-1.08-0.36-1.68
					c-0.27-1.49-0.45-3.2-0.58-5.01c-0.08-1.09-0.13-2.21-0.16-3.36c-0.01-0.38-0.02-0.76-0.03-1.15c-0.02-0.77-0.02-1.54-0.03-2.31
					c0-1.15,0.01-2.3,0.03-3.42c0.07-3.73,0.25-7.14,0.39-9.39c0.01-0.22,0.02-0.45,0.01-0.67c-0.05-1.33-0.49-2.62-1.26-3.71
					c-0.13-0.18-0.27-0.36-0.42-0.53l-1.1-1.25l-0.08-0.09c-0.88,1.17-1.73,1.82-2.34,1.54c-0.85-0.39-1.59-2.43-2.18-4.89
					c-9.05,0.03-45.02-2.97-57.23-4.01c0.25,2.87,0,5.89-2.15,5.89c-0.97,0-2.07-0.56-3.19-1.39c-3.69,9-14.84,23.87-24.42,35.75
					c-0.3,0.38-0.6,0.75-0.9,1.12c1.16-0.05,2.3,0.13,3.37,0.54c0.36,0.14,0.71,0.3,1.05,0.48c2.93,1.59,7.17,3.64,11.04,4.86
					c0.35,0.11,0.7,0.22,1.04,0.31c0.69,0.19,1.36,0.36,2,0.48c0.64,0.12,1.26,0.21,1.84,0.25c3.33,0.22,5.8-0.13,8.06-0.16
					c-2.85-3.04-5.37-5.73-7.24-7.72c-0.21-0.22-0.4-0.43-0.58-0.62c-1.09-1.19-0.85-3.06,0.49-3.95v0
					c1.12-0.74,2.61-0.52,3.47,0.51l3.14,3.77l8.67,10.42c0.19,0.12,0.39,0.25,0.6,0.38c1.98,0.15,12.7,9.36,14.03,10.53l8.85-0.49
					c1.11-0.81,2.42-1.61,3.75-2.35c0.74-0.42,1.48-0.82,2.2-1.19c1.38-0.71,3.82-2.41,3.45-2.42c-2.7-0.04-7.63-0.48-7.22-3.2
					c0.04-0.28,0.12-0.58,0.29-0.92c1-1.99,12.88-6.77,15.99-6.49c7.94,0.22,15.65,1.32,15.65,1.32l4.19-1.76
					C670.91,334.57,670.75,334.37,670.55,334.18z"/>
				<path class="st2" d="M653.65,342.37l-0.32,0.32C653.46,342.59,653.57,342.48,653.65,342.37z"/>
				<path class="st2" d="M642.18,345.83c0.37,0.01-2.07,1.7-3.45,2.42c-0.72,0.37-1.46,0.77-2.2,1.19
					c-1.33,0.75-2.64,1.55-3.75,2.35c-1.93,1.41-3.25,2.82-2.9,3.92c1.08,3.44,10.33-3.01,10.33-3.01c0.02,0.04,0.04,0.07,0.06,0.11
					c-0.1-0.24-0.13-0.53-0.09-0.87c0.16-1.19,1.12-2.77,2.29-3.21c4.38-1.64,9.9-5.05,9.9-5.05l0.96-0.98
					c-0.76,0.64-1.96-0.63-3.49,0.21C646.58,344.7,642.18,345.83,642.18,345.83z"/>
				<path class="st2" d="M709.08,295.83c-4.22,2-17.85,8.34-25.7,10.56l10.63,18.74l-22.93,9.64l-4.19,1.76
					c0,0-7.29-0.58-15.65-1.32c-3.12-0.09-14.99,4.5-15.99,6.49c-0.17,0.33-0.25,0.63-0.29,0.92c-0.41,2.72,4.52,3.16,7.22,3.2
					c0,0,4.01-0.93,7-2.46c1.93-0.99,3.23,0.11,4.16-0.68l-0.96,0.98c0,0-5.52,3.4-9.9,5.05c-1.17,0.44-2.13,2.01-2.29,3.21
					c-0.04,0.34-0.01,0.63,0.09,0.87c0.03,0.06,0.06,0.11,0.1,0.17c0.95,1.73,3.07,2.52,3.07,2.52s-0.36,0.74-0.14,4.4
					c0,0.08,0.03,0.14,0.04,0.21c0.2,1.11,1.36,1.46,2.83,1.44l-0.15,0.13c0,0,3.09,3.09,9.09,0.66c1.25-0.51,2.41-1.02,3.47-1.5h0
					c0.08,0,0.16,0,0.23,0c0.27,0,0.53,0,0.8,0c0.12,0,0.24,0,0.37-0.01c0.26-0.01,0.52-0.02,0.78-0.03c0.09,0,0.17-0.01,0.26-0.01
					c0.3-0.02,0.6-0.04,0.9-0.07c0.11-0.01,0.22-0.02,0.34-0.03c0.23-0.02,0.46-0.05,0.69-0.08c0.09-0.01,0.17-0.02,0.26-0.03
					c0.29-0.04,0.57-0.08,0.84-0.12c0.09-0.01,0.18-0.03,0.26-0.04c0.21-0.04,0.41-0.07,0.61-0.11c0.07-0.01,0.15-0.03,0.22-0.04
					c0.25-0.05,0.49-0.1,0.72-0.16c0.06-0.01,0.11-0.03,0.16-0.04c0.18-0.05,0.35-0.09,0.52-0.14c0.06-0.02,0.11-0.03,0.16-0.05
					c0.19-0.06,0.37-0.12,0.53-0.18c0.02-0.01,0.04-0.02,0.06-0.03c0.14-0.05,0.26-0.11,0.37-0.16c0.03-0.02,0.07-0.03,0.1-0.05
					c0.11-0.06,0.22-0.12,0.29-0.18c0.36-0.3,3.54-2.81,5.83-3.35c5.95-1.41,17.26-3.35,28.13-4.28c7.99-0.68,14.95-2.6,19.76-4.75
					c4.27-1.91,6.84-4,6.93-5.58C729.6,325.63,713.44,301.92,709.08,295.83z"/>
			</g>
			<path class="st2" d="M846.28,335.63l-125.3,9.57c-4.81,2.15-11.77,4.07-19.76,4.75c-10.87,0.93-22.19,2.87-28.13,4.28
				l13.72,14.09l-2.97,0.58l2.45,2.53l-74.98,15.83l-0.27-4.15l-11.93,2.33l0.81-10.36c-1.7,0.13-3.45,0.21-5.22,0.24
				c-15.83,0.26-43.85-8.82-43.85-8.82l8.46-12.36l-12.85,0.71l-12.56,0.7l4.77,3.95l0.68,1.2l3.73,6.58l-6.75-3.37l-3.65-3.07
				l-5.83-4.9l-12.04,0.67c-0.34,2.89-1.83,4.19-3.56,4.7c-1.35,0.39-2.84,0.3-4.05,0.09l-1.97,0.04c0.79,1.24,2.22,3.97,1.69,6.91
				c-0.46,2.53-6.16,2.43-12.77,2.02l3.26,14.55l-88.74,3.63l-20.87-23.02l-18.19-0.89l-1.31,0.07c-3.19,0.87-12.62,3.26-30.61,6.53
				c-8.78,1.6-14.48-0.24-18.02-3.83L-1.06,399.13l-4.64,80.05h854.17L846.28,335.63z"/>
			<path class="st6" d="M846.28,338l-126.94,9.65c-4.81,2.15-11.77,4.07-19.76,4.75c-10.87,0.93-22.19,2.87-28.13,4.28l13.72,14.09
				l-2.97,0.58l2.45,2.53l-74.98,15.83l-0.27-4.15l-11.93,2.33l0.81-10.36c-1.7,0.13-3.45,0.21-5.22,0.24
				c-15.83,0.26-43.85-8.82-43.85-8.82l8.46-12.36l-12.85,0.71l-12.56,0.7l4.77,3.95l0.68,1.2l3.73,6.58l-6.75-3.37l-3.65-3.07
				l-5.83-4.9l-12.04,0.67c-0.34,2.89-1.83,4.19-3.56,4.7c-1.35,0.39-2.84,0.3-4.05,0.09l-1.97,0.04c0.79,1.24,2.22,3.97,1.69,6.91
				c-0.46,2.53-6.16,2.43-12.77,2.02l3.26,14.55l-88.74,3.63L386.15,368l-18.19-0.89l-1.31,0.07c-3.19,0.87-12.62,3.26-30.61,6.53
				c-8.78,1.6-14.48-0.24-18.02-3.83L-1.06,401.52l-4.64,77.66h854.17L846.28,338z"/>
		</g>
		<g class="st1">
			<g>
				<path class="st8" d="M666.17,315.21c0-1.15,0.01-2.3,0.03-3.42C666.18,312.91,666.17,314.05,666.17,315.21z"/>
				<path class="st8" d="M665.28,334.5c0,0-7.71-1.1-15.65-1.32C657.99,333.92,665.28,334.5,665.28,334.5z"/>
				<path class="st8" d="M367.44,364.34l1.31-0.07l-0.88-0.04C367.74,364.26,367.59,364.3,367.44,364.34z"/>
				<path class="st6" d="M459.45,368.73l-72.51-3.56l20.87,23.02l88.74-3.63l-3.26-14.55c-3.81-0.24-7.93-0.58-11.51-0.58
					C471.99,369.42,459.45,368.73,459.45,368.73z"/>
				<polygon class="st6" points="610.45,386.88 685.43,371.05 682.98,368.52 610.18,382.74 				"/>
				<path class="st8" d="M663.82,296.24l1.1,1.25c0.15,0.17,0.29,0.34,0.42,0.53c0.78,1.09,1.22,2.37,1.26,3.71
					c0.01,0.22,0,0.45-0.01,0.67c-0.14,2.25-0.32,5.66-0.39,9.39c-0.02,1.12-0.03,2.27-0.03,3.42c0,0.77,0.01,1.54,0.03,2.31
					c0.01,0.38,0.02,0.77,0.03,1.15c0.04,1.14,0.09,2.27,0.16,3.36c0.13,1.81,0.31,3.52,0.58,5.01c0.11,0.6,0.23,1.16,0.36,1.68
					c0.4,1.57,0.93,2.76,1.61,3.42c0.2,0.19,0.36,0.4,0.53,0.6l22.93-9.64l-10.63-18.74c-2.34,0.66-4.18,0.96-5.09,0.66
					c-4.52-1.51-8.83-15.5-8.83-15.5l-0.84,0.08c-0.85,2.46-2.06,4.9-3.21,6.46L663.82,296.24z"/>
				<path class="st9" d="M336.83,370.87c17.98-3.27,27.42-5.66,30.61-6.53c0.15-0.04,0.3-0.08,0.42-0.12l-4.94-0.24
					c-4.71-2.9,2.54-34.79,2.54-34.79s0.05,0,0.12,0.01c0.09,0.01,0.22,0.02,0.41,0.04c0.18,0.02,0.39,0.04,0.65,0.06
					c0.16,0.01,0.34,0.03,0.54,0.05c0,0,0.01,0,0.01,0c0.42,0.04,0.91,0.08,1.47,0.14c0.05,0.01,0.11,0.01,0.16,0.02
					c0.88,0.08,1.91,0.18,3.07,0.29c0.01,0,0.03,0,0.04,0c8.45,0.79,23.94,2.3,38.94,4.01c0,0,0,0,0,0
					c0.71,0.08,1.41,0.16,2.12,0.24c0.01,0,0.02,0,0.02,0c0.53-6.01,0.96-13.18-0.2-19.88c-1.93-11.19-10.97-56.6-8.08-70.75
					c-0.01,0-0.01-0.01-0.02-0.01c-0.67-0.32-1.33-0.65-1.99-0.98c-0.2-0.1-0.39-0.19-0.59-0.29c-0.57-0.28-1.14-0.57-1.7-0.86
					c-0.11-0.06-0.23-0.11-0.34-0.17c-0.66-0.34-1.31-0.67-1.96-1.01c-0.18-0.09-0.35-0.18-0.53-0.28
					c-0.53-0.28-1.07-0.56-1.59-0.85c-0.14-0.08-0.28-0.15-0.42-0.23c-0.63-0.34-1.26-0.69-1.88-1.03
					c-0.15-0.09-0.31-0.17-0.46-0.26c-0.51-0.28-1.01-0.57-1.51-0.86c-0.15-0.09-0.3-0.17-0.46-0.26c-0.61-0.35-1.2-0.7-1.79-1.06
					c-0.12-0.07-0.23-0.14-0.35-0.21c-0.49-0.3-0.98-0.59-1.45-0.89c-0.15-0.09-0.31-0.19-0.46-0.28c-0.57-0.36-1.13-0.72-1.68-1.08
					c-0.07-0.05-0.14-0.09-0.21-0.14c-0.48-0.32-0.96-0.64-1.42-0.96c-0.14-0.1-0.29-0.2-0.43-0.3c-0.52-0.36-1.02-0.72-1.52-1.07
					c-0.01-0.01-0.02-0.02-0.03-0.02c-0.5-0.36-0.98-0.73-1.45-1.09c-0.13-0.1-0.26-0.2-0.38-0.3c-0.41-0.32-0.81-0.64-1.2-0.96
					c-0.06-0.05-0.13-0.1-0.19-0.15c-0.44-0.36-0.86-0.73-1.26-1.09c-0.11-0.09-0.21-0.19-0.31-0.28c-0.34-0.3-0.66-0.61-0.98-0.91
					c-0.08-0.07-0.15-0.15-0.23-0.22c-0.37-0.36-0.72-0.72-1.06-1.09c-0.08-0.09-0.15-0.17-0.23-0.26c-0.27-0.3-0.53-0.6-0.78-0.9
					c-0.07-0.09-0.15-0.17-0.22-0.26c-0.29-0.36-0.57-0.72-0.83-1.08c-0.05-0.07-0.1-0.14-0.14-0.21c-0.21-0.3-0.41-0.6-0.59-0.91
					c-0.06-0.09-0.11-0.19-0.17-0.28c-0.21-0.36-0.4-0.72-0.57-1.08c-0.02-0.05-0.04-0.09-0.06-0.14c-0.15-0.32-0.27-0.63-0.39-0.95
					c-0.03-0.1-0.07-0.19-0.1-0.29c-0.12-0.36-0.22-0.71-0.3-1.07c-1.41-6.72-6.52-12.2-11.08-17.71
					c-0.68,4.71-2.99,10.82-8.82,18.11c-14.49,18.12-21.02,34.42-18.12,43.85s3.26,14.49-4.35,24.64
					c-7.61,10.15-9.78,42.4-13.05,55.44c-2.06,8.25-2.38,19.69,3.72,25.88C322.35,370.63,328.05,372.46,336.83,370.87z"/>
				<path class="st6" d="M418.2,334.65c0.02,0,0.04,0.01,0.07,0.01c1.69,0.2,3.35,0.41,4.97,0.61c0.04,0.01,0.09,0.01,0.13,0.02
					c0.81,0.1,1.61,0.2,2.4,0.31c0.02,0,0.04,0.01,0.06,0.01c0.75,0.1,1.49,0.2,2.22,0.29c0.07,0.01,0.14,0.02,0.21,0.03
					c0.74,0.1,1.46,0.2,2.18,0.3c0.07,0.01,0.14,0.02,0.22,0.03c0.65,0.09,1.3,0.18,1.93,0.27c0.08,0.01,0.16,0.02,0.24,0.03
					c0.66,0.1,1.31,0.19,1.95,0.29c0.11,0.02,0.22,0.03,0.33,0.05c0.57,0.09,1.13,0.17,1.68,0.26c0.08,0.01,0.16,0.02,0.24,0.04
					c0.6,0.09,1.17,0.19,1.74,0.28c0.11,0.02,0.22,0.04,0.32,0.05c0.51,0.08,1.01,0.17,1.49,0.25c0.06,0.01,0.13,0.02,0.19,0.03
					c0.51,0.09,1.01,0.18,1.49,0.27c0.11,0.02,0.23,0.04,0.34,0.06c0.44,0.08,0.87,0.16,1.28,0.25c0.04,0.01,0.08,0.02,0.12,0.02
					c0.43,0.09,0.84,0.17,1.23,0.26c0.1,0.02,0.19,0.04,0.29,0.06c0.39,0.09,0.76,0.17,1.11,0.26c16.31,3.99,18.84-3.26,18.84-3.26
					c10.15-11.96,21.02-11.96,21.02-11.96s0.73,0.08,2,0.26l-25.22-21.21c-0.72-0.61-0.95-1.62-0.55-2.48
					c0.58-1.24,2.17-1.59,3.22-0.72l31.28,25.9c0.51,0.1,1.04,0.21,1.57,0.33c0,0,0,0,0,0c-1.21-16.44-3-44.92-2.09-59.1
					c0.84-13.11-12.31-35.24-22.03-49.65c-1.46-0.26-3.32-0.57-5.43-0.96c-0.1-0.02-0.19-0.03-0.29-0.05
					c-0.45-0.08-0.92-0.17-1.39-0.27c-0.14-0.03-0.27-0.05-0.41-0.08c-0.46-0.09-0.93-0.19-1.4-0.29c-0.16-0.03-0.32-0.06-0.48-0.1
					c-0.46-0.1-0.93-0.2-1.4-0.31c-0.19-0.04-0.37-0.08-0.57-0.13c-0.66-0.15-1.33-0.31-2.01-0.48
					c-0.83,5.01-4.69,12.52-19.37,16.64c3.22,7.68,8.59,16.47,16.93,26.67c0,0-8,5.34-31.13-4.15c-0.82-0.34-1.65-0.68-2.49-1.03
					c-0.26-0.11-0.53-0.22-0.79-0.33c-0.6-0.25-1.2-0.5-1.81-0.76c-0.29-0.12-0.59-0.25-0.88-0.37c-0.62-0.26-1.24-0.53-1.86-0.79
					c-0.27-0.11-0.53-0.23-0.8-0.34c-1.76-0.76-3.55-1.54-5.34-2.35c-0.26-0.12-0.52-0.24-0.78-0.35c-0.64-0.29-1.28-0.58-1.93-0.87
					c-0.3-0.14-0.6-0.28-0.9-0.41c-0.64-0.3-1.28-0.6-1.93-0.9c-0.26-0.12-0.53-0.25-0.79-0.37c-0.9-0.42-1.8-0.85-2.69-1.28
					c-2.89,14.15,6.15,59.56,8.08,70.75c1.15,6.7,0.73,13.87,0.2,19.88c0.01,0,0.01,0,0.02,0
					C414.76,334.25,416.49,334.45,418.2,334.65z"/>
				<path class="st9" d="M474.86,217.12c-0.06-0.01-0.14-0.02-0.2-0.04c9.71,14.41,22.86,36.55,22.03,49.65
					c-0.91,14.18,0.88,42.66,2.09,59.1c0,0,0,0,0,0c0.82,0.18,1.67,0.37,2.52,0.57c0.1,0.02,0.2,0.05,0.31,0.07
					c0.82,0.19,1.65,0.4,2.48,0.62c0.15,0.04,0.3,0.08,0.45,0.12c0.83,0.22,1.67,0.45,2.5,0.69c0.13,0.04,0.26,0.08,0.39,0.12
					c0.87,0.26,1.75,0.53,2.61,0.82c8.36,2.79,15.19,7.81,18.48,9.06c7.61,2.9,6.52,7.97,3.26,10.15c-1.75,1.17-5.27,0.35-8.16-0.66
					l9.41,7.79l12.56-0.7c-2.41-11.69-7.66-38.03-7.66-45.57c0-9.78,7.97-63.05,0.36-76.46c-7.25-12.77,0.96-21.93-45.87-40.31
					C490.32,197.75,482.04,218.4,474.86,217.12z"/>
				<path class="st10" d="M514.03,354.92c0,0.47-0.03,0.9-0.07,1.31l12.04-0.67l-4.44-3.73
					C520.17,354.75,514.03,354.92,514.03,354.92z"/>
				<path class="st11" d="M461.29,214.43c-7.66-1.92-16.31-5.03-22.31-10.41c-1.85,7.3-1.67,16.04,2.94,27.06
					C456.6,226.95,460.46,219.43,461.29,214.43z"/>
				<path class="st11" d="M490.87,124.32c-0.59,1.76-28.78,37.86-39.43,56.03c-1.61,2.75-3.58,5.58-5.51,8.63
					c-0.77,1.22-1.53,2.47-2.27,3.76c-1.92,3.4-3.64,7.1-4.69,11.26c6,5.39,14.66,8.5,22.31,10.41c0.68,0.17,1.35,0.33,2.01,0.48
					c0.19,0.04,0.38,0.08,0.57,0.13c0.47,0.11,0.94,0.21,1.4,0.31c0.16,0.04,0.32,0.07,0.48,0.1c0.47,0.1,0.94,0.2,1.4,0.29
					c0.14,0.03,0.27,0.05,0.41,0.08c0.47,0.09,0.94,0.18,1.39,0.27c0.1,0.02,0.19,0.03,0.29,0.05c2.21,0.41,4.14,0.72,5.63,0.99
					c7.18,1.28,15.46-19.37,17.57-24.98c0.33-0.88,0.51-1.4,0.51-1.4s1.78,0,7.12-0.3s3.85-3.26,0-10.67
					c-3.85-7.41,5.63-34.09,5.63-46.25c0-6.24-2.03-11.3-4.01-14.75C499.4,122.31,490.87,124.32,490.87,124.32z"/>
				<path class="st12" d="M370.8,217.89c0.03,0.09,0.07,0.19,0.1,0.29c0.11,0.32,0.24,0.63,0.39,0.95c0.02,0.05,0.04,0.09,0.06,0.14
					c0.17,0.36,0.36,0.72,0.57,1.08c0.05,0.09,0.11,0.19,0.17,0.28c0.18,0.3,0.38,0.6,0.59,0.91c0.05,0.07,0.09,0.14,0.14,0.21
					c0.26,0.36,0.53,0.72,0.83,1.08c0.07,0.09,0.14,0.17,0.22,0.26c0.25,0.3,0.51,0.6,0.78,0.9c0.08,0.09,0.15,0.17,0.23,0.26
					c0.34,0.36,0.69,0.72,1.06,1.09c0.07,0.07,0.15,0.15,0.23,0.22c0.31,0.3,0.64,0.61,0.98,0.91c0.1,0.09,0.21,0.19,0.31,0.28
					c0.41,0.36,0.83,0.73,1.26,1.09c0.06,0.05,0.12,0.1,0.19,0.15c0.39,0.32,0.79,0.64,1.2,0.96c0.13,0.1,0.25,0.2,0.38,0.3
					c0.47,0.36,0.96,0.73,1.45,1.09c0.01,0.01,0.02,0.02,0.03,0.02c0.49,0.36,1,0.72,1.52,1.07c0.14,0.1,0.29,0.2,0.43,0.3
					c0.47,0.32,0.94,0.64,1.42,0.96c0.07,0.05,0.14,0.09,0.21,0.14c0.55,0.36,1.11,0.72,1.68,1.08c0.15,0.1,0.3,0.19,0.46,0.28
					c0.48,0.3,0.96,0.6,1.45,0.89c0.12,0.07,0.23,0.14,0.35,0.21c0.59,0.35,1.19,0.71,1.79,1.06c0.15,0.09,0.3,0.17,0.46,0.26
					c0.5,0.29,1,0.57,1.51,0.86c0.15,0.09,0.31,0.17,0.46,0.26c0.62,0.35,1.25,0.69,1.88,1.03c0.14,0.08,0.28,0.15,0.42,0.23
					c0.53,0.28,1.06,0.57,1.59,0.85c0.18,0.09,0.35,0.18,0.53,0.28c0.65,0.34,1.3,0.68,1.96,1.01c0.11,0.06,0.23,0.11,0.34,0.17
					c0.57,0.29,1.13,0.57,1.7,0.86c0.2,0.1,0.39,0.2,0.59,0.29c0.66,0.33,1.32,0.65,1.99,0.98c0.01,0,0.01,0.01,0.02,0.01
					c0.89,0.43,1.79,0.86,2.69,1.28c0.26,0.12,0.53,0.25,0.79,0.37c0.64,0.3,1.28,0.6,1.93,0.9c0.3,0.14,0.6,0.28,0.9,0.41
					c0.64,0.29,1.28,0.59,1.93,0.87c0.26,0.12,0.52,0.24,0.78,0.35c1.79,0.8,3.57,1.58,5.34,2.35c0.27,0.12,0.53,0.23,0.8,0.34
					c0.62,0.27,1.24,0.53,1.86,0.79c0.3,0.13,0.59,0.25,0.88,0.37c0.61,0.26,1.21,0.51,1.81,0.76c0.26,0.11,0.53,0.22,0.79,0.33
					c0.84,0.35,1.67,0.69,2.49,1.03c23.13,9.49,31.13,4.15,31.13,4.15c-8.35-10.2-13.72-18.99-16.93-26.67
					c-4.62-11.02-4.79-19.75-2.94-27.06c1.06-4.16,2.77-7.86,4.69-11.26c0.73-1.3,1.5-2.55,2.27-3.76c1.93-3.05,3.9-5.88,5.51-8.63
					c10.65-18.18,38.85-54.28,39.43-56.03c0,0,8.53-2.01,10.81-5.56c0.2-0.31,0.36-0.63,0.45-0.96
					c2.22-7.78-17.79-29.94-37.36-41.51c-19.57-11.56-34.98-5.93-39.43-5.34c-57.62,7.68-74.12,99.91-73.82,112.36
					c0.14,5.89,3.8,10.85,7.89,15.79c4.56,5.51,9.68,10.99,11.08,17.71C370.58,217.18,370.68,217.53,370.8,217.89z"/>
				<path class="st13" d="M664.44,189.04l-1.4-6.87c-4.51-6.62-17.11-12.37-18.17-12.52c-3.37-0.48,10.44,10.62,10.44,10.62
					s-4.66-0.93-13.98-4.85c-9.32-3.91-7.64-3.17-7.64-3.17c-8.95,5.03-13.05,0.56-13.05,0.56s-1.49,4.66-6.15,7.64
					s-6.15-5.78-6.34-2.42c-0.19,3.35-4.85,5.96-6.34,5.22c-1.49-0.75-2.8-2.98-2.8-0.75c0,2.06-4.32,12.54-5.53,13.7
					c-0.11,0.1-0.19,0.14-0.24,0.09c-0.27-0.26-0.53-0.49-0.79-0.71c-1.17-2.42-2.95-5.13-5.17-5.44c0,0-1.61-1.03-1.67,3.12
					c-0.02,1.14,0.08,2.66,0.36,4.71c1.3,9.51,4.1,16.03,7.83,16.59c3.19,0.48,5.29,15.94,12.82,23.67
					c1.28,1.31,2.71,2.41,4.33,3.17c11.18,5.22,19.76,8.76,32.8-1.12c0.16-0.12,0.31-0.24,0.47-0.37
					c12.54-9.68,11.83-16.61,11.83-17.71c0-1.12,0.93-10.25,0.93-10.25s0.75,3.91,3.91,0.37
					C664.07,208.8,670.03,189.79,664.44,189.04z"/>
				<path class="st13" d="M601.63,258.16l1.28-13.58c-3.32-0.45-4.62-0.62-4.62-0.62s-0.13,0-0.36-0.01
					c0.94,2.89,2.16,8.75,3.07,14.23C601.21,258.17,601.42,258.17,601.63,258.16z"/>
				<path class="st4" d="M657.53,282.62c-2.32-2.7-7.27-17.42-10.56-27.75c-0.34,0.33-13.47,12.91-45.34,3.29
					c-0.21,0.01-0.42,0.01-0.63,0.02c1.66,10.36,2.74,22.56,1.43,27.67c0,0-0.3,0.06-0.81,0.15c0.15,0.82,0.29,1.79,0.37,2.78
					c12.21,1.04,48.18,4.04,57.23,4.01C658.15,288.38,657.53,282.62,657.53,282.62z"/>
				<path class="st13" d="M644.16,245.87c-0.31,0.06-0.61,0.11-0.91,0.17l3.64,8.61C645.67,250.79,644.69,247.58,644.16,245.87z"/>
				<path class="st13" d="M650.13,253.82c-0.02-0.07-0.05-0.15-0.07-0.22l-3.64-8.61l-2.14-5.06c-0.16,0.12-0.31,0.24-0.47,0.37
					c-13.05,9.88-21.62,6.34-32.8,1.12c-1.62-0.76-3.05-1.85-4.33-3.17l-0.61,5.28l-1.55,13.5
					C636.58,266.8,649.78,254.15,650.13,253.82z"/>
				<path class="st9" d="M646.9,254.65c0.02,0.07,0.05,0.15,0.07,0.22c0,0,0.02-0.02,0.02-0.02L646.9,254.65z"/>
				<path class="st3" d="M589.98,285.96c-0.43-0.6-0.68-0.97-0.68-0.97C589.37,285.39,589.62,285.71,589.98,285.96z"/>
				<path class="st12" d="M601.14,283.7c0,0,0.24,0.96,0.48,2.31c0.51-0.09,0.81-0.15,0.81-0.15c2.05-8.01-1.75-33.44-4.5-41.9
					c-0.43-1.31-0.76-2.22-0.93-2.57c-1.29-2.58-15.23-0.09-16.53,1.85c-0.07,0.11-0.11,0.34-0.11,0.66
					c-0.13,5.29,8.33,37.85,8.94,41.1L601.14,283.7z"/>
				<path class="st12" d="M601.99,288.78c-0.08-0.99-0.23-1.96-0.37-2.78c-0.24-1.35-0.48-2.31-0.48-2.31l-11.84,1.29
					c0,0,0.25,0.38,0.68,0.97c1.24,1.73,4,5.34,6.67,7.33c1.12,0.83,2.22,1.39,3.19,1.39C601.99,294.67,602.24,291.66,601.99,288.78
					z"/>
				<path class="st12" d="M661.41,297.69c0.61,0.28,1.45-0.37,2.34-1.54c0.02-0.03,0.05-0.06,0.07-0.1c1.15-1.56,2.36-4,3.21-6.46
					c0.62-1.79,1.05-3.58,1.13-5.06c-0.08,0.24-0.18,0.39-0.3,0.46c-2.37,1.29-9.04-0.86-10.33-2.37c0,0,0.62,5.76,1.69,10.17
					C659.82,295.26,660.56,297.3,661.41,297.69z"/>
				<path class="st12" d="M663.67,244.78c-0.4-0.95-0.8-1.5-1.19-1.55c-3.44-0.43-18.73,1.29-18.73,1.29s0.15,0.49,0.41,1.35
					c0.52,1.71,1.51,4.93,2.74,8.78l0.09,0.2c0,0-0.01,0.01-0.02,0.02c3.29,10.33,8.25,25.05,10.56,27.75
					c1.29,1.51,7.96,3.66,10.33,2.37c0.12-0.06,0.21-0.22,0.3-0.46C669.62,280.45,666.64,251.81,663.67,244.78z"/>
				<path class="st4" d="M670.27,283.48c-0.08,1.48-0.52,3.27-1.13,5.06l0.84-0.08c0,0,4.31,13.99,8.83,15.5
					c0.9,0.3,2.74,0,5.09-0.66c7.85-2.22,21.47-8.56,25.7-10.56c0.82-0.39,1.29-0.62,1.29-0.62s-12.27-38.32-32.29-45.63
					c-4.22-1.54-8.56-2.38-12.8-2.75C668.75,250.75,671.72,279.39,670.27,283.48z"/>
				<path class="st4" d="M558.3,295.1c2.79-2.21,13.35,4.95,13.35,4.95l-1.08,30.14l0.76-0.03c0.3-0.37,0.6-0.74,0.9-1.12
					c9.58-11.88,20.74-26.75,24.42-35.75c-2.68-1.99-5.43-5.6-6.67-7.33c-0.36-0.25-0.61-0.57-0.68-0.97
					c-0.61-3.25-9.07-35.81-8.94-41.1c-6.32,0.4-13.18,1.29-17.32,3.22c-5.06,2.36-8.86,10.94-13.99,20.45
					c-4.25,7.87-6.67,16.57-9.69,25.4c0.12,0.18,4.79,1.36,9.51,2.12C552.97,295.73,557.1,296.06,558.3,295.1z"/>
				<path class="st8" d="M667.33,328.71c-0.13-0.52-0.25-1.08-0.36-1.68C667.08,327.63,667.2,328.19,667.33,328.71z"/>
				<path class="st8" d="M666.2,317.51c-0.02-0.77-0.02-1.54-0.03-2.31C666.17,315.98,666.18,316.75,666.2,317.51z"/>
				<path class="st8" d="M666.39,322.02c-0.08-1.09-0.13-2.21-0.16-3.36C666.26,319.81,666.32,320.93,666.39,322.02z"/>
				<path class="st8" d="M665.34,298.02c0.78,1.09,1.22,2.37,1.26,3.71C666.55,300.39,666.11,299.1,665.34,298.02z"/>
				<path class="st14" d="M463.93,299.11c-0.4,0.85-0.17,1.87,0.55,2.48l25.22,21.21c1.91,0.27,5.05,0.75,8.73,1.49l-31.28-25.9
					C466.1,297.52,464.51,297.87,463.93,299.11z"/>
				<path class="st14" d="M520.32,344.28c2.69,2.92,3.11,4.93,2.45,6.33l4.44,3.73l5.83,4.9l3.65,3.07l6.75,3.37l-3.73-6.58
					l-0.68-1.2l-4.77-3.95l-9.41-7.79C522.35,345.29,520.32,344.28,520.32,344.28z"/>
				<path class="st11" d="M521.55,353.41c0.66-1.39,0.24-3.41-2.45-6.33c0,0,2.03,1.01,4.52,1.88c2.89,1.01,6.41,1.82,8.16,0.66
					c3.26-2.17,4.35-7.25-3.26-10.15c-3.29-1.25-10.12-6.27-18.48-9.06c-0.86-0.29-1.73-0.56-2.61-0.82
					c-0.13-0.04-0.26-0.08-0.39-0.12c-0.83-0.24-1.67-0.47-2.5-0.69c-0.15-0.04-0.3-0.08-0.45-0.12c-0.83-0.22-1.67-0.42-2.48-0.62
					c-0.1-0.02-0.2-0.05-0.31-0.07c-0.86-0.2-1.7-0.39-2.52-0.57c0,0,0,0,0,0c-0.53-0.11-1.06-0.22-1.57-0.33
					c-3.67-0.74-6.81-1.22-8.73-1.49c-1.26-0.18-2-0.26-2-0.26s-10.87,0-21.02,11.96c0,0-2.54,7.25-18.84,3.26
					c-0.35-0.08-0.72-0.17-1.11-0.26c-0.09-0.02-0.19-0.04-0.29-0.06c-0.39-0.09-0.8-0.17-1.23-0.26c-0.04-0.01-0.08-0.02-0.12-0.02
					c-0.41-0.08-0.84-0.16-1.28-0.25c-0.11-0.02-0.22-0.04-0.34-0.06c-0.48-0.09-0.97-0.18-1.49-0.27
					c-0.06-0.01-0.13-0.02-0.19-0.03c-0.48-0.08-0.98-0.17-1.49-0.25c-0.11-0.02-0.21-0.04-0.32-0.05
					c-0.56-0.09-1.14-0.18-1.74-0.28c-0.08-0.01-0.16-0.02-0.24-0.04c-0.55-0.09-1.11-0.17-1.68-0.26
					c-0.11-0.02-0.22-0.03-0.33-0.05c-0.64-0.09-1.29-0.19-1.95-0.29c-0.08-0.01-0.16-0.02-0.24-0.03
					c-0.63-0.09-1.28-0.18-1.93-0.27c-0.07-0.01-0.14-0.02-0.22-0.03c-0.72-0.1-1.44-0.2-2.18-0.3c-0.07-0.01-0.14-0.02-0.21-0.03
					c-0.73-0.1-1.47-0.2-2.22-0.29c-0.02,0-0.04-0.01-0.06-0.01c-0.79-0.1-1.59-0.2-2.4-0.31c-0.04-0.01-0.09-0.01-0.13-0.02
					c-1.63-0.21-3.29-0.41-4.97-0.61c-0.02,0-0.04-0.01-0.07-0.01c-1.71-0.21-3.44-0.41-5.18-0.61c-0.01,0-0.03,0-0.04,0
					c-0.7-0.08-1.41-0.16-2.12-0.24c0,0,0,0,0,0c-15-1.71-30.49-3.21-38.94-4.01c-0.01,0-0.03,0-0.04,0
					c-1.17-0.11-2.2-0.21-3.07-0.29c-0.06-0.01-0.11-0.01-0.16-0.02c-0.56-0.05-1.05-0.1-1.47-0.14c0,0-0.01,0-0.01,0
					c-0.2-0.02-0.37-0.03-0.54-0.05c-0.26-0.02-0.48-0.04-0.65-0.06c-0.18-0.02-0.32-0.03-0.41-0.04c-0.07-0.01-0.12-0.01-0.12-0.01
					s-7.25,31.89-2.54,34.79l4.94,0.24l0.88,0.04l18.19,0.89l72.51,3.56c0,0,12.54,0.69,22.32,0.69c3.58,0,7.7,0.34,11.51,0.58
					c6.61,0.41,12.31,0.5,12.77-2.02c0.53-2.94-0.9-5.68-1.69-6.91c-0.28-0.44-0.48-0.7-0.48-0.7s1.04,0.41,2.45,0.65
					c1.22,0.21,2.71,0.3,4.05-0.09c1.73-0.5,3.22-1.81,3.56-4.7c0.05-0.4,0.07-0.84,0.07-1.31
					C514.03,356.5,520.17,356.33,521.55,353.41z"/>
				<path class="st6" d="M593.84,374.95c1.77-0.03,3.52-0.12,5.22-0.24c13.51-1.01,24.36-4.69,24.36-4.69l-4.28-6.8
					c-0.19,0.41-0.5,0.72-1,0.77c-1.94,0.22,0.65,2.15-4.31,2.58c-2.74,0.24-9.29-0.12-15-1.06c-4.62-0.77-8.7-1.92-9.75-3.46
					c-1.49-2.17-13.56-5.96-23.48-8.68c-2.07-0.57-4.06-1.09-5.82-1.55l-1.33,1.94l-8.46,12.36
					C549.99,366.12,578.02,375.21,593.84,374.95z"/>
				<path class="st14" d="M627.66,366.2l2.37,1.25l-0.9-2.37l-8.85-10.64c-0.51-0.21-0.84-0.36-0.84-0.36s4.17,5.91,2.33,6.15
					C625.23,363.86,627.05,365.71,627.66,366.2z"/>
				<path class="st14" d="M595.87,325.12c-0.86-1.03-2.35-1.25-3.47-0.51v0c-1.34,0.89-1.58,2.76-0.49,3.95
					c0.18,0.19,0.37,0.4,0.58,0.62c1.86,1.99,4.39,4.68,7.24,7.72c2.13-0.04,4.07,0.2,6.36,1.45c0.44,0.24,0.98,0.56,1.59,0.94
					l-8.67-10.42L595.87,325.12z"/>
				<path class="st8" d="M656.95,358.77L656.95,358.77c0.08,0,0.16,0,0.23,0C657.1,358.77,657.03,358.77,656.95,358.77z"/>
				<path class="st6" d="M666.11,357.38c-0.03,0.02-0.06,0.03-0.1,0.05c-0.11,0.05-0.23,0.11-0.37,0.16
					c-0.02,0.01-0.04,0.02-0.06,0.03c-0.16,0.06-0.34,0.12-0.53,0.18c-0.05,0.02-0.11,0.03-0.16,0.05
					c-0.16,0.05-0.33,0.09-0.52,0.14c-0.05,0.01-0.1,0.03-0.16,0.04c-0.23,0.05-0.47,0.11-0.72,0.16c-0.07,0.01-0.15,0.03-0.22,0.04
					c-0.2,0.04-0.4,0.08-0.61,0.11c-0.09,0.01-0.17,0.03-0.26,0.04c-0.27,0.04-0.55,0.08-0.84,0.12c-0.08,0.01-0.17,0.02-0.26,0.03
					c-0.22,0.03-0.45,0.05-0.69,0.08c-0.11,0.01-0.22,0.02-0.34,0.03c-0.3,0.03-0.59,0.05-0.9,0.07c-0.08,0.01-0.17,0.01-0.26,0.01
					c-0.26,0.01-0.52,0.02-0.78,0.03c-0.12,0-0.24,0.01-0.37,0.01c-0.26,0-0.53,0.01-0.8,0c-0.08,0-0.16,0-0.23,0
					c-1.06,0.49-2.21,1-3.47,1.5c-6,2.44-9.09-0.66-9.09-0.66l0.15-0.13c-1.46,0.02-2.63-0.33-2.83-1.44
					c-0.18-0.24-0.29-0.53-0.31-0.88c-0.22-3.66,0.41-3.73,0.41-3.73s-2.11-0.79-3.07-2.52l-0.03,0.01
					c-0.03-0.05-0.04-0.12-0.06-0.18c-0.02-0.04-0.05-0.07-0.06-0.11c0,0-9.26,6.46-10.33,3.01c-0.34-1.1,0.97-2.51,2.9-3.92
					l-8.85,0.49c2.3,2.04,3.87,3.74,3.8,4.5c-0.17,1.84-4.08,0.44-5.83-0.28l8.85,10.64l0.95,2.4l-0.06-0.03l0.01,0.03l-2.38-1.28
					c-0.61-0.49-2.42-2.34-5.89-5.96c-0.2,0.03-0.46,0-0.82-0.13c-3.66-1.29-1.72-0.22-1.72-0.22s0.47,2.13-0.07,3.32l4.28,6.8
					c0,0-10.85,3.68-24.36,4.69l-0.81,10.36l11.93-2.33l72.8-14.22l2.97-0.58l-13.72-14.09c-2.3,0.55-5.47,3.05-5.83,3.35
					C666.33,357.26,666.23,357.32,666.11,357.38z"/>
				<path class="st3" d="M633.64,339.66c1-1.99,12.87-6.58,15.99-6.49C646.52,332.9,634.64,337.67,633.64,339.66z"/>
				<path class="st12" d="M668.94,332.13c-0.68-0.65-1.21-1.85-1.61-3.42c-0.13-0.52-0.25-1.08-0.36-1.68
					c-0.27-1.49-0.45-3.2-0.58-5.01c-0.08-1.09-0.13-2.21-0.16-3.36c-0.01-0.38-0.02-0.76-0.03-1.15c-0.02-0.77-0.02-1.54-0.03-2.31
					c0-1.15,0.01-2.3,0.03-3.42c0.07-3.73,0.25-7.14,0.39-9.39c0.01-0.22,0.02-0.45,0.01-0.67c-0.05-1.33-0.49-2.62-1.26-3.71
					c-0.13-0.18-0.27-0.36-0.42-0.53l-1.1-1.25l-0.08-0.09c-0.88,1.17-1.73,1.82-2.34,1.54c-0.85-0.39-1.59-2.43-2.18-4.89
					c-9.05,0.03-45.02-2.97-57.23-4.01c0.25,2.87,0,5.89-2.15,5.89c-0.97,0-2.07-0.56-3.19-1.39c-3.69,9-14.84,23.87-24.42,35.75
					c-0.3,0.38-0.6,0.75-0.9,1.12c1.16-0.05,2.3,0.13,3.37,0.54c0.36,0.14,0.71,0.3,1.05,0.48c2.93,1.59,7.17,3.64,11.04,4.86
					c0.35,0.11,0.7,0.22,1.04,0.31c0.69,0.19,1.36,0.36,2,0.48c0.64,0.12,1.26,0.21,1.84,0.25c3.33,0.22,5.8-0.13,8.06-0.16
					c-2.85-3.04-5.37-5.73-7.24-7.72c-0.21-0.22-0.4-0.43-0.58-0.62c-1.09-1.19-0.85-3.06,0.49-3.95v0
					c1.12-0.74,2.61-0.52,3.47,0.51l3.14,3.77l8.67,10.42c0.19,0.12,0.39,0.25,0.6,0.38c1.98,0.15,12.7,9.36,14.03,10.53l8.85-0.49
					c1.11-0.81,2.42-1.61,3.75-2.35c0.74-0.42,1.48-0.82,2.2-1.19c1.38-0.71,3.82-2.41,3.45-2.42c-2.7-0.04-7.63-0.48-7.22-3.2
					c0.04-0.28,0.12-0.58,0.29-0.92c1-1.99,12.88-6.77,15.99-6.49c7.94,0.22,15.65,1.32,15.65,1.32l4.19-1.76
					C669.31,332.53,669.14,332.32,668.94,332.13z"/>
				<path class="st15" d="M652.04,340.32l-0.32,0.32C651.85,340.54,651.96,340.43,652.04,340.32z"/>
				<path class="st2" d="M640.57,343.78c0.37,0.01-2.07,1.7-3.45,2.42c-0.72,0.37-1.46,0.77-2.2,1.19
					c-1.33,0.75-2.64,1.55-3.75,2.35c-1.93,1.41-3.25,2.82-2.9,3.92c1.08,3.44,10.33-3.01,10.33-3.01c0.02,0.04,0.04,0.07,0.06,0.11
					c-0.1-0.24-0.13-0.53-0.09-0.87c0.16-1.19,1.12-2.77,2.29-3.21c4.38-1.64,9.9-5.05,9.9-5.05l0.96-0.98
					c-0.76,0.64-1.96-0.63-3.49,0.21C644.97,342.65,640.57,343.78,640.57,343.78z"/>
				<path class="st13" d="M709.05,294.31c-4.22,2-17.85,8.34-25.7,10.56l10.63,18.74l-22.93,9.64l-4.19,1.76
					c0,0-7.29-0.58-15.65-1.32c-3.12-0.09-14.99,4.5-15.99,6.49c-0.17,0.33-0.25,0.63-0.29,0.92c-0.41,2.72,4.52,3.16,7.22,3.2
					c0,0,4.01-0.93,7-2.46c1.93-0.99,3.23,0.11,4.16-0.68l-0.96,0.98c0,0-5.52,3.4-9.9,5.05c-1.17,0.44-2.13,2.01-2.29,3.21
					c-0.04,0.34-0.01,0.63,0.09,0.87c0.03,0.06,0.06,0.11,0.1,0.17c0.95,1.73,3.07,2.52,3.07,2.52s-0.36,0.74-0.14,4.4
					c0,0.08,0.03,0.14,0.04,0.21c0.2,1.11,1.36,1.46,2.83,1.44l-0.15,0.13c0,0,3.09,3.09,9.09,0.66c1.25-0.51,2.41-1.02,3.47-1.5h0
					c0.08,0,0.16,0,0.23,0c0.27,0,0.53,0,0.8,0c0.12,0,0.24,0,0.37-0.01c0.26-0.01,0.52-0.02,0.78-0.03c0.09,0,0.17-0.01,0.26-0.01
					c0.3-0.02,0.6-0.04,0.9-0.07c0.11-0.01,0.22-0.02,0.34-0.03c0.23-0.02,0.46-0.05,0.69-0.08c0.09-0.01,0.17-0.02,0.26-0.03
					c0.29-0.04,0.57-0.08,0.84-0.12c0.09-0.01,0.18-0.03,0.26-0.04c0.21-0.04,0.41-0.07,0.61-0.11c0.07-0.01,0.15-0.03,0.22-0.04
					c0.25-0.05,0.49-0.1,0.72-0.16c0.06-0.01,0.11-0.03,0.16-0.04c0.18-0.05,0.35-0.09,0.52-0.14c0.06-0.02,0.11-0.03,0.16-0.05
					c0.19-0.06,0.37-0.12,0.53-0.18c0.02-0.01,0.04-0.02,0.06-0.03c0.14-0.05,0.26-0.11,0.37-0.16c0.03-0.02,0.07-0.03,0.1-0.05
					c0.11-0.06,0.22-0.12,0.29-0.18c0.36-0.3,3.54-2.81,5.83-3.35c5.95-1.41,17.26-3.35,28.13-4.28c7.99-0.68,14.95-2.6,19.76-4.75
					c4.27-1.91,6.84-4,6.93-5.58C729.57,324.1,713.41,300.4,709.05,294.31z"/>
				<path class="st13" d="M590.13,362.05c1.06,1.54,5.13,2.69,9.75,3.46c5.71,0.95,12.26,1.3,15,1.06c4.95-0.43,2.37-2.37,4.31-2.58
					c0.5-0.06,0.81-0.36,1-0.77c0.55-1.19,0.07-3.32,0.07-3.32s-1.94-1.08,1.72,0.22c0.36,0.13,0.62,0.15,0.82,0.13
					c1.84-0.24-2.33-6.15-2.33-6.15s0.34,0.16,0.84,0.36c1.75,0.72,5.66,2.12,5.83,0.28c0.07-0.76-1.49-2.46-3.8-4.5
					c-1.32-1.17-12.05-10.38-14.03-10.53c-0.21-0.13-0.41-0.26-0.6-0.38c-0.61-0.38-1.15-0.7-1.59-0.94
					c-2.29-1.25-4.24-1.49-6.36-1.45c-2.26,0.04-4.73,0.38-8.06,0.16c-0.58-0.04-1.19-0.12-1.84-0.25c-0.64-0.12-1.31-0.29-2-0.48
					c-0.34-0.1-0.69-0.2-1.04-0.31c-3.87-1.22-8.11-3.27-11.04-4.86c-0.34-0.18-0.69-0.34-1.05-0.48c-1.07-0.41-2.22-0.59-3.37-0.54
					l-0.76,0.03l1.08-30.14c0,0-10.56-7.16-13.35-4.95c-1.2,0.95-5.33,0.62-9.44-0.03c-0.98,10.48-3.52,36.94-4.55,41.58
					c-1.29,5.81,3.87,12.7,8.61,13.56c1.13,0.21,3.65,0.79,6.86,1.61c1.77,0.45,3.75,0.98,5.82,1.55
					C576.58,356.09,588.64,359.88,590.13,362.05z"/>
			</g>
		</g>
		<g class="st1">
			<path class="st15" d="M596.2,324.66c0,0,2.28,3.14-3.69,3.69"/>
			<path class="st3" d="M539.02,359.34c0,0-1.26,4.34-2.34,4.41"/>
			<path class="st3" d="M629.42,231.14c0,0-7.43,2.94-11.58,2.42c0,0,5.7,9.33,8.98-0.52"/>
			<path class="st3" d="M625.8,215.6c0,0,2.42,5.18-4.66,4.15"/>
			<circle class="st5" cx="611.11" cy="208.34" r="1.73"/>
			<circle class="st5" cx="641.17" cy="209.55" r="1.73"/>
			<circle class="st5" cx="485.17" cy="174.73" r="1.73"/>
			<path class="st3" d="M481.66,198.01c0,0-5.06,1.52-10.13-1.01"/>
			<path class="st3" d="M366.68,329.42l-6.74-2.01c0,0,18.96-18.96,20.01-54.77"/>
			<path class="st3" d="M513.37,328.81c0,0,0-62.15-4.92-75.49"/>
			<path class="st3" d="M610.66,297.32l-3.49,17.46c-1.5,7.49,4.1,14.54,11.74,14.77l22.88,0.71c6.35,0.2,11.82-4.46,12.64-10.76
				l2.57-19.84L610.66,297.32z"/>
			<circle class="st5" cx="602.04" cy="294.56" r="3.93"/>
			<ellipse class="st5" cx="662.51" cy="297.32" rx="3.18" ry="3.51"/>
			<g>
				<path class="st8" d="M372.51,219.35c-0.15-0.32-0.27-0.63-0.39-0.95C372.24,218.71,372.36,219.03,372.51,219.35z"/>
				<path class="st8" d="M372.02,218.11c-0.12-0.36-0.22-0.71-0.3-1.07C371.8,217.4,371.9,217.75,372.02,218.11z"/>
				<path class="st8" d="M373.14,220.56c-0.21-0.36-0.4-0.72-0.57-1.08C372.74,219.84,372.93,220.2,373.14,220.56z"/>
				<path class="st8" d="M414.18,247.47c0.26,0.12,0.52,0.24,0.78,0.35C414.7,247.71,414.44,247.59,414.18,247.47z"/>
				<path class="st8" d="M411.35,246.19c0.3,0.14,0.6,0.28,0.9,0.41C411.95,246.46,411.65,246.32,411.35,246.19z"/>
				<path class="st8" d="M408.63,244.92c0.26,0.12,0.52,0.25,0.79,0.37C409.16,245.17,408.9,245.04,408.63,244.92z"/>
				<path class="st8" d="M379.94,228.04c-0.44-0.36-0.86-0.73-1.26-1.09C379.08,227.31,379.5,227.67,379.94,228.04z"/>
				<path class="st8" d="M373.9,221.74c-0.21-0.3-0.41-0.6-0.59-0.91C373.5,221.14,373.69,221.44,373.9,221.74z"/>
				<path class="st8" d="M381.33,229.15c-0.41-0.32-0.81-0.64-1.2-0.96C380.51,228.51,380.92,228.83,381.33,229.15z"/>
				<path class="st8" d="M374.87,223.04c-0.29-0.36-0.57-0.72-0.83-1.08C374.3,222.31,374.58,222.67,374.87,223.04z"/>
				<path class="st8" d="M375.87,224.19c-0.27-0.3-0.53-0.6-0.78-0.9C375.34,223.59,375.6,223.89,375.87,224.19z"/>
				<path class="st8" d="M377.16,225.53c-0.37-0.36-0.72-0.72-1.06-1.09C376.44,224.81,376.79,225.17,377.16,225.53z"/>
				<path class="st8" d="M476.08,217.34c-1.49-0.27-3.42-0.58-5.63-0.99c2.11,0.39,3.97,0.7,5.43,0.96
					C475.95,217.32,476.02,217.33,476.08,217.34z"/>
				<path class="st8" d="M468.78,216.03c0.47,0.09,0.94,0.18,1.39,0.27C469.72,216.21,469.25,216.12,468.78,216.03z"/>
				<path class="st8" d="M502.52,326.62c0.1,0.02,0.2,0.05,0.31,0.07C502.73,326.67,502.63,326.65,502.52,326.62z"/>
				<path class="st8" d="M420.3,250.17c0.27,0.12,0.53,0.23,0.8,0.34C420.83,250.4,420.57,250.29,420.3,250.17z"/>
				<path class="st8" d="M505.31,327.31c0.15,0.04,0.3,0.08,0.45,0.12C505.61,327.39,505.46,327.35,505.31,327.31z"/>
				<path class="st8" d="M466.97,215.66c0.47,0.1,0.94,0.2,1.4,0.29C467.92,215.86,467.44,215.76,466.97,215.66z"/>
				<path class="st8" d="M465.09,215.26c0.47,0.11,0.94,0.21,1.4,0.31C466.03,215.47,465.56,215.36,465.09,215.26z"/>
				<path class="st8" d="M422.96,251.31c0.3,0.13,0.59,0.25,0.88,0.37C423.55,251.56,423.26,251.44,422.96,251.31z"/>
				<path class="st8" d="M425.66,252.44c0.27,0.11,0.53,0.22,0.79,0.33C426.19,252.67,425.92,252.55,425.66,252.44z"/>
				<path class="st8" d="M462.51,214.65c0.68,0.17,1.35,0.33,2.01,0.48C463.86,214.98,463.19,214.82,462.51,214.65z"/>
				<path class="st8" d="M412.08,334.02C412.08,334.02,412.08,334.02,412.08,334.02C412.08,334.02,412.08,334.02,412.08,334.02z"/>
				<path class="st8" d="M369.87,329.71c0.05,0.01,0.11,0.01,0.16,0.02C369.97,329.72,369.92,329.71,369.87,329.71z"/>
				<path class="st8" d="M368.39,329.57C368.39,329.57,368.39,329.57,368.39,329.57C368.39,329.57,368.39,329.57,368.39,329.57z"/>
				<path class="st8" d="M405.93,243.63c-0.67-0.32-1.33-0.65-1.99-0.98C404.6,242.98,405.26,243.3,405.93,243.63z"/>
				<path class="st8" d="M373.1,330.01c0.01,0,0.03,0,0.04,0C373.13,330.01,373.11,330.01,373.1,330.01z"/>
				<path class="st8" d="M367.2,329.46c0.18,0.02,0.39,0.04,0.65,0.06C367.59,329.5,367.38,329.48,367.2,329.46z"/>
				<path class="st8" d="M508.26,328.12c0.13,0.04,0.26,0.08,0.39,0.12C508.52,328.2,508.4,328.16,508.26,328.12z"/>
				<path class="st8" d="M667.39,315.43c0-1.15,0.01-2.3,0.03-3.42C667.4,313.13,667.39,314.27,667.39,315.43z"/>
				<path class="st8" d="M666.5,334.72c0,0-7.71-1.1-15.65-1.32C659.21,334.14,666.5,334.72,666.5,334.72z"/>
				<polygon class="st8" points="631.26,367.71 631.25,367.68 628.88,366.42 				"/>
				<path class="st8" d="M366.68,329.42c0,0,0.05,0,0.12,0.01C366.72,329.42,366.68,329.42,366.68,329.42z"/>
				<path class="st8" d="M383.16,230.54c-0.5-0.36-0.98-0.73-1.45-1.09C382.18,229.81,382.66,230.18,383.16,230.54z"/>
				<path class="st8" d="M667.82,301.95c0.01,0.22,0,0.45-0.01,0.67c-0.14,2.25-0.32,5.66-0.39,9.39c0.07-3.73,0.25-7.14,0.39-9.39
					C667.83,302.39,667.83,302.17,667.82,301.95z"/>
				<path class="st8" d="M390.37,235.29c-0.49-0.3-0.98-0.59-1.45-0.89C389.39,234.69,389.88,234.99,390.37,235.29z"/>
				<path class="st8" d="M392.51,236.56c-0.61-0.35-1.2-0.7-1.79-1.06C391.31,235.85,391.91,236.21,392.51,236.56z"/>
				<path class="st8" d="M388.46,234.11c-0.57-0.36-1.13-0.72-1.68-1.08C387.33,233.39,387.89,233.75,388.46,234.11z"/>
				<path class="st8" d="M384.71,231.64c-0.52-0.36-1.02-0.72-1.52-1.07C383.69,230.92,384.19,231.28,384.71,231.64z"/>
				<path class="st8" d="M386.57,232.89c-0.48-0.32-0.96-0.64-1.42-0.96C385.61,232.25,386.08,232.57,386.57,232.89z"/>
				<path class="st8" d="M403.35,242.36c-0.57-0.28-1.14-0.57-1.7-0.86C402.21,241.79,402.78,242.07,403.35,242.36z"/>
				<path class="st8" d="M394.47,237.68c-0.51-0.28-1.01-0.57-1.51-0.86C393.46,237.11,393.97,237.39,394.47,237.68z"/>
				<path class="st8" d="M398.83,240.04c-0.53-0.28-1.07-0.56-1.59-0.85C397.76,239.48,398.29,239.76,398.83,240.04z"/>
				<path class="st8" d="M401.31,241.33c-0.66-0.34-1.31-0.67-1.96-1.01C400,240.66,400.65,240.99,401.31,241.33z"/>
				<path class="st8" d="M396.81,238.97c-0.63-0.34-1.26-0.69-1.88-1.03C395.55,238.28,396.18,238.62,396.81,238.97z"/>
				<path class="st8" d="M378.36,226.67c-0.34-0.3-0.66-0.61-0.98-0.91C377.7,226.06,378.03,226.36,378.36,226.67z"/>
				<path class="st8" d="M434.05,336.78c-0.08-0.01-0.16-0.02-0.24-0.03C433.89,336.76,433.97,336.77,434.05,336.78z"/>
				<path class="st8" d="M427.05,335.83c-0.02,0-0.04-0.01-0.06-0.01C427.01,335.82,427.03,335.83,427.05,335.83z"/>
				<path class="st8" d="M431.88,336.48c-0.07-0.01-0.14-0.02-0.22-0.03C431.73,336.46,431.81,336.47,431.88,336.48z"/>
				<path class="st8" d="M429.48,336.15c-0.07-0.01-0.14-0.02-0.21-0.03C429.34,336.13,429.41,336.14,429.48,336.15z"/>
				<path class="st8" d="M445.21,338.62c-0.04-0.01-0.08-0.02-0.12-0.02C445.13,338.61,445.18,338.62,445.21,338.62z"/>
				<path class="st8" d="M443.82,338.35c-0.11-0.02-0.22-0.04-0.34-0.06C443.59,338.31,443.7,338.33,443.82,338.35z"/>
				<path class="st8" d="M440.31,337.74c-0.11-0.02-0.21-0.04-0.32-0.05C440.09,337.7,440.2,337.72,440.31,337.74z"/>
				<path class="st8" d="M438.25,337.41c-0.08-0.01-0.16-0.02-0.24-0.04C438.09,337.38,438.17,337.4,438.25,337.41z"/>
				<path class="st8" d="M436.33,337.12c-0.11-0.02-0.22-0.03-0.33-0.05C436.11,337.08,436.22,337.1,436.33,337.12z"/>
				<path class="st8" d="M446.74,338.94c-0.09-0.02-0.19-0.04-0.29-0.06C446.55,338.9,446.64,338.92,446.74,338.94z"/>
				<path class="st8" d="M441.99,338.02c-0.06-0.01-0.13-0.02-0.19-0.03C441.86,338,441.93,338.01,441.99,338.02z"/>
				<path class="st8" d="M414.22,334.26c-0.01,0-0.02,0-0.02,0c0.01,0,0.03,0,0.04,0C414.23,334.27,414.23,334.26,414.22,334.26z"/>
				<polygon class="st8" points="500,326.06 500,326.06 500,326.06 				"/>
				<path class="st8" d="M419.48,334.88c-0.02,0-0.04-0.01-0.07-0.01C419.44,334.88,419.46,334.88,419.48,334.88z"/>
				<path class="st8" d="M424.59,335.51c-0.04-0.01-0.09-0.01-0.13-0.02C424.5,335.5,424.55,335.51,424.59,335.51z"/>
				<path class="st8" d="M368.66,364.56l1.31-0.07l-0.88-0.04C368.96,364.48,368.81,364.52,368.66,364.56z"/>
				<path class="st3" d="M460.67,368.95l-72.51-3.56l20.87,23.02l88.74-3.63l-3.26-14.55c-3.81-0.24-7.93-0.58-11.51-0.58
					C473.21,369.64,460.67,368.95,460.67,368.95z"/>
				<polygon class="st3" points="611.67,387.1 686.66,371.28 684.21,368.74 611.4,382.96 				"/>
				<path class="st8" d="M665.05,296.46l1.1,1.25c0.15,0.17,0.29,0.34,0.42,0.53c0.78,1.09,1.22,2.37,1.26,3.71
					c0.01,0.22,0,0.45-0.01,0.67c-0.14,2.25-0.32,5.66-0.39,9.39c-0.02,1.12-0.03,2.27-0.03,3.42c0,0.77,0.01,1.54,0.03,2.31
					c0.01,0.38,0.02,0.77,0.03,1.15c0.04,1.14,0.09,2.27,0.16,3.36c0.13,1.81,0.31,3.52,0.58,5.01c0.11,0.6,0.23,1.16,0.36,1.68
					c0.4,1.57,0.93,2.76,1.61,3.42c0.2,0.19,0.36,0.4,0.53,0.6l22.93-9.64L683,304.57c-2.34,0.66-4.18,0.96-5.09,0.66
					c-4.52-1.51-8.83-15.5-8.83-15.5l-0.84,0.08c-0.85,2.46-2.06,4.9-3.21,6.46L665.05,296.46z"/>
				<path class="st8" d="M591.36,197.58c-0.27-0.26-0.53-0.49-0.79-0.71c0.99,2.04,1.54,3.88,1.54,3.88l-0.5-3.26
					C591.5,197.6,591.41,197.64,591.36,197.58z"/>
				<path class="st3" d="M338.05,371.09c17.98-3.27,27.42-5.66,30.61-6.53c0.15-0.04,0.3-0.08,0.42-0.12l-4.94-0.24
					c-4.71-2.9,2.54-34.79,2.54-34.79s0.05,0,0.12,0.01c0.09,0.01,0.22,0.02,0.41,0.04c0.18,0.02,0.39,0.04,0.65,0.06
					c0.16,0.01,0.34,0.03,0.54,0.05c0,0,0.01,0,0.01,0c0.42,0.04,0.91,0.08,1.47,0.14c0.05,0.01,0.11,0.01,0.16,0.02
					c0.88,0.08,1.91,0.18,3.07,0.29c0.01,0,0.03,0,0.04,0c8.45,0.79,23.94,2.3,38.94,4.01c0,0,0,0,0,0
					c0.71,0.08,1.41,0.16,2.12,0.24c0.01,0,0.02,0,0.02,0c0.53-6.01,0.96-13.18-0.2-19.88c-1.93-11.19-10.97-56.6-8.08-70.75
					c-0.01,0-0.01-0.01-0.02-0.01c-0.67-0.32-1.33-0.65-1.99-0.98c-0.2-0.1-0.39-0.19-0.59-0.29c-0.57-0.28-1.14-0.57-1.7-0.86
					c-0.11-0.06-0.23-0.11-0.34-0.17c-0.66-0.34-1.31-0.67-1.96-1.01c-0.18-0.09-0.35-0.18-0.53-0.28
					c-0.53-0.28-1.07-0.56-1.59-0.85c-0.14-0.08-0.28-0.15-0.42-0.23c-0.63-0.34-1.26-0.69-1.88-1.03
					c-0.15-0.09-0.31-0.17-0.46-0.26c-0.51-0.28-1.01-0.57-1.51-0.86c-0.15-0.09-0.3-0.17-0.46-0.26c-0.61-0.35-1.2-0.7-1.79-1.06
					c-0.12-0.07-0.23-0.14-0.35-0.21c-0.49-0.3-0.98-0.59-1.45-0.89c-0.15-0.09-0.31-0.19-0.46-0.28c-0.57-0.36-1.13-0.72-1.68-1.08
					c-0.07-0.05-0.14-0.09-0.21-0.14c-0.48-0.32-0.96-0.64-1.42-0.96c-0.14-0.1-0.29-0.2-0.43-0.3c-0.52-0.36-1.02-0.72-1.52-1.07
					c-0.01-0.01-0.02-0.02-0.03-0.02c-0.5-0.36-0.98-0.73-1.45-1.09c-0.13-0.1-0.26-0.2-0.38-0.3c-0.41-0.32-0.81-0.64-1.2-0.96
					c-0.06-0.05-0.13-0.1-0.19-0.15c-0.44-0.36-0.86-0.73-1.26-1.09c-0.11-0.09-0.21-0.19-0.31-0.28c-0.34-0.3-0.66-0.61-0.98-0.91
					c-0.08-0.07-0.15-0.15-0.23-0.22c-0.37-0.36-0.72-0.72-1.06-1.09c-0.08-0.09-0.15-0.17-0.23-0.26c-0.27-0.3-0.53-0.6-0.78-0.9
					c-0.07-0.09-0.15-0.17-0.22-0.26c-0.29-0.36-0.57-0.72-0.83-1.08c-0.05-0.07-0.1-0.14-0.14-0.21c-0.21-0.3-0.41-0.6-0.59-0.91
					c-0.06-0.09-0.11-0.19-0.17-0.28c-0.21-0.36-0.4-0.72-0.57-1.08c-0.02-0.05-0.04-0.09-0.06-0.14c-0.15-0.32-0.27-0.63-0.39-0.95
					c-0.03-0.1-0.07-0.19-0.1-0.29c-0.12-0.36-0.22-0.71-0.3-1.07c-1.41-6.72-6.52-12.2-11.08-17.71
					c-0.68,4.71-2.99,10.82-8.82,18.11c-14.49,18.12-21.02,34.42-18.12,43.85s3.26,14.49-4.35,24.64
					c-7.61,10.15-9.78,42.4-13.05,55.44c-2.06,8.25-2.38,19.69,3.72,25.88C323.57,370.85,329.27,372.69,338.05,371.09z"/>
				<path class="st3" d="M419.42,334.88c0.02,0,0.04,0.01,0.07,0.01c1.69,0.2,3.35,0.41,4.97,0.61c0.04,0.01,0.09,0.01,0.13,0.02
					c0.81,0.1,1.61,0.2,2.4,0.31c0.02,0,0.04,0.01,0.06,0.01c0.75,0.1,1.49,0.2,2.22,0.29c0.07,0.01,0.14,0.02,0.21,0.03
					c0.74,0.1,1.46,0.2,2.18,0.3c0.07,0.01,0.14,0.02,0.22,0.03c0.65,0.09,1.3,0.18,1.93,0.27c0.08,0.01,0.16,0.02,0.24,0.03
					c0.66,0.1,1.31,0.19,1.95,0.29c0.11,0.02,0.22,0.03,0.33,0.05c0.57,0.09,1.13,0.17,1.68,0.26c0.08,0.01,0.16,0.02,0.24,0.04
					c0.6,0.09,1.17,0.19,1.74,0.28c0.11,0.02,0.22,0.04,0.32,0.05c0.51,0.08,1.01,0.17,1.49,0.25c0.06,0.01,0.13,0.02,0.19,0.03
					c0.51,0.09,1.01,0.18,1.49,0.27c0.11,0.02,0.23,0.04,0.34,0.06c0.44,0.08,0.87,0.16,1.28,0.25c0.04,0.01,0.08,0.02,0.12,0.02
					c0.43,0.09,0.84,0.17,1.23,0.26c0.1,0.02,0.19,0.04,0.29,0.06c0.39,0.09,0.76,0.17,1.11,0.26c16.31,3.99,18.84-3.26,18.84-3.26
					c10.15-11.96,21.02-11.96,21.02-11.96s0.73,0.08,2,0.26l-25.22-21.21c-0.72-0.61-0.95-1.62-0.55-2.48
					c0.58-1.24,2.17-1.59,3.22-0.72l31.28,25.9c0.51,0.1,1.04,0.21,1.57,0.33c0,0,0,0,0,0c-1.21-16.44-3-44.92-2.09-59.1
					c0.84-13.11-12.31-35.24-22.03-49.65c-1.46-0.26-3.32-0.57-5.43-0.96c-0.1-0.02-0.19-0.03-0.29-0.05
					c-0.45-0.08-0.92-0.17-1.39-0.27c-0.14-0.03-0.27-0.05-0.41-0.08c-0.46-0.09-0.93-0.19-1.4-0.29c-0.16-0.03-0.32-0.06-0.48-0.1
					c-0.46-0.1-0.93-0.2-1.4-0.31c-0.19-0.04-0.37-0.08-0.57-0.13c-0.66-0.15-1.33-0.31-2.01-0.48
					c-0.83,5.01-4.69,12.52-19.37,16.64c3.22,7.68,8.59,16.47,16.93,26.67c0,0-8,5.34-31.13-4.15c-0.82-0.34-1.65-0.68-2.49-1.03
					c-0.26-0.11-0.53-0.22-0.79-0.33c-0.6-0.25-1.2-0.5-1.81-0.76c-0.29-0.12-0.59-0.25-0.88-0.37c-0.62-0.26-1.24-0.53-1.86-0.79
					c-0.27-0.11-0.53-0.23-0.8-0.34c-1.76-0.76-3.55-1.54-5.34-2.35c-0.26-0.12-0.52-0.24-0.78-0.35c-0.64-0.29-1.28-0.58-1.93-0.87
					c-0.3-0.14-0.6-0.28-0.9-0.41c-0.64-0.3-1.28-0.6-1.93-0.9c-0.26-0.12-0.53-0.25-0.79-0.37c-0.9-0.42-1.8-0.85-2.69-1.28
					c-2.89,14.15,6.15,59.56,8.08,70.75c1.15,6.7,0.73,13.87,0.2,19.88c0.01,0,0.01,0,0.02,0
					C415.98,334.47,417.71,334.67,419.42,334.88z"/>
				<path class="st3" d="M476.08,217.34c-0.06-0.01-0.14-0.02-0.2-0.04c9.71,14.41,22.86,36.55,22.03,49.65
					c-0.91,14.18,0.88,42.66,2.09,59.1c0,0,0,0,0,0c0.82,0.18,1.67,0.37,2.52,0.57c0.1,0.02,0.2,0.05,0.31,0.07
					c0.82,0.19,1.65,0.4,2.48,0.62c0.15,0.04,0.3,0.08,0.45,0.12c0.83,0.22,1.67,0.45,2.5,0.69c0.13,0.04,0.26,0.08,0.39,0.12
					c0.87,0.26,1.75,0.53,2.61,0.82c8.36,2.79,15.19,7.81,18.48,9.06c7.61,2.9,6.52,7.97,3.26,10.15c-1.75,1.17-5.27,0.35-8.16-0.66
					l9.41,7.79l12.56-0.7c-2.41-11.69-7.66-38.03-7.66-45.57c0-9.78,7.97-63.05,0.36-76.46c-7.25-12.77,0.96-21.93-45.87-40.31
					C491.54,197.97,483.26,218.62,476.08,217.34z"/>
				<path class="st3" d="M505.59,361.28l1.97-0.04c-1.41-0.25-2.45-0.65-2.45-0.65S505.3,360.84,505.59,361.28z"/>
				<path class="st3" d="M515.25,355.15c0,0.47-0.03,0.9-0.07,1.31l12.04-0.67l-4.44-3.73
					C521.39,354.98,515.25,355.15,515.25,355.15z"/>
				<path class="st3" d="M846.28,338l-124.93,7.03c-4.81,2.15-11.77,4.07-19.76,4.75c-10.87,0.93-22.19,2.87-28.13,4.28l13.72,14.09
					l-2.97,0.58l2.45,2.53l-74.98,15.83l-0.27-4.15l-11.93,2.33l0.81-10.36c-1.7,0.13-3.45,0.21-5.22,0.24
					c-15.83,0.26-43.85-8.82-43.85-8.82l8.46-12.36l-12.85,0.71l-12.56,0.7l4.77,3.95l0.68,1.2l3.73,6.58l-6.75-3.37l-3.65-3.07
					l-5.83-4.9l-12.04,0.67c-0.34,2.89-1.83,4.19-3.56,4.7c-1.35,0.39-2.84,0.3-4.05,0.09l-1.97,0.04c0.79,1.24,2.22,3.97,1.69,6.91
					c-0.46,2.53-6.16,2.43-12.77,2.02l3.26,14.55l-88.74,3.63l-20.87-23.02l-18.19-0.89l-1.31,0.07
					c-3.19,0.87-12.62,3.26-30.61,6.53c-8.78,1.6-14.48-0.24-18.02-3.83L-1.06,401.52l-4.64,77.66h854.17L846.28,338z"/>
				<path class="st3" d="M462.51,214.65c-7.66-1.92-16.31-5.03-22.31-10.41c-1.85,7.3-1.67,16.04,2.94,27.06
					C457.83,227.17,461.68,219.65,462.51,214.65z"/>
				<path class="st3" d="M492.09,124.54c-0.59,1.76-28.78,37.86-39.43,56.03c-1.61,2.75-3.58,5.58-5.51,8.63
					c-0.77,1.22-1.53,2.47-2.27,3.76c-1.92,3.4-3.64,7.1-4.69,11.26c6,5.39,14.66,8.5,22.31,10.41c0.68,0.17,1.35,0.33,2.01,0.48
					c0.19,0.04,0.38,0.08,0.57,0.13c0.47,0.11,0.94,0.21,1.4,0.31c0.16,0.04,0.32,0.07,0.48,0.1c0.47,0.1,0.94,0.2,1.4,0.29
					c0.14,0.03,0.27,0.05,0.41,0.08c0.47,0.09,0.94,0.18,1.39,0.27c0.1,0.02,0.19,0.03,0.29,0.05c2.21,0.41,4.14,0.72,5.63,0.99
					c7.18,1.28,15.46-19.37,17.57-24.98c0.33-0.88,0.51-1.4,0.51-1.4s1.78,0,7.12-0.3s3.85-3.26,0-10.67
					c-3.85-7.41,5.63-34.09,5.63-46.25c0-6.24-2.03-11.3-4.01-14.75C500.62,122.53,492.09,124.54,492.09,124.54z"/>
				<path class="st3" d="M466.49,215.56c0.16,0.04,0.32,0.07,0.48,0.1C466.81,215.63,466.65,215.6,466.49,215.56z"/>
				<path class="st3" d="M468.37,215.95c0.14,0.03,0.27,0.05,0.41,0.08C468.64,216,468.51,215.98,468.37,215.95z"/>
				<path class="st3" d="M464.52,215.13c0.19,0.04,0.38,0.08,0.57,0.13C464.9,215.21,464.72,215.18,464.52,215.13z"/>
				<path class="st3" d="M470.17,216.3c0.1,0.02,0.19,0.03,0.29,0.05C470.36,216.33,470.27,216.31,470.17,216.3z"/>
				<path class="st3" d="M372.02,218.11c0.03,0.09,0.07,0.19,0.1,0.29c0.11,0.32,0.24,0.63,0.39,0.95c0.02,0.05,0.04,0.09,0.06,0.14
					c0.17,0.36,0.36,0.72,0.57,1.08c0.05,0.09,0.11,0.19,0.17,0.28c0.18,0.3,0.38,0.6,0.59,0.91c0.05,0.07,0.09,0.14,0.14,0.21
					c0.26,0.36,0.53,0.72,0.83,1.08c0.07,0.09,0.14,0.17,0.22,0.26c0.25,0.3,0.51,0.6,0.78,0.9c0.08,0.09,0.15,0.17,0.23,0.26
					c0.34,0.36,0.69,0.72,1.06,1.09c0.07,0.07,0.15,0.15,0.23,0.22c0.31,0.3,0.64,0.61,0.98,0.91c0.1,0.09,0.21,0.19,0.31,0.28
					c0.41,0.36,0.83,0.73,1.26,1.09c0.06,0.05,0.12,0.1,0.19,0.15c0.39,0.32,0.79,0.64,1.2,0.96c0.13,0.1,0.25,0.2,0.38,0.3
					c0.47,0.36,0.96,0.73,1.45,1.09c0.01,0.01,0.02,0.02,0.03,0.02c0.49,0.36,1,0.72,1.52,1.07c0.14,0.1,0.29,0.2,0.43,0.3
					c0.47,0.32,0.94,0.64,1.42,0.96c0.07,0.05,0.14,0.09,0.21,0.14c0.55,0.36,1.11,0.72,1.68,1.08c0.15,0.1,0.3,0.19,0.46,0.28
					c0.48,0.3,0.96,0.6,1.45,0.89c0.12,0.07,0.23,0.14,0.35,0.21c0.59,0.35,1.19,0.71,1.79,1.06c0.15,0.09,0.3,0.17,0.46,0.26
					c0.5,0.29,1,0.57,1.51,0.86c0.15,0.09,0.31,0.17,0.46,0.26c0.62,0.35,1.25,0.69,1.88,1.03c0.14,0.08,0.28,0.15,0.42,0.23
					c0.53,0.28,1.06,0.57,1.59,0.85c0.18,0.09,0.35,0.18,0.53,0.28c0.65,0.34,1.3,0.68,1.96,1.01c0.11,0.06,0.23,0.11,0.34,0.17
					c0.57,0.29,1.13,0.57,1.7,0.86c0.2,0.1,0.39,0.2,0.59,0.29c0.66,0.33,1.32,0.65,1.99,0.98c0.01,0,0.01,0.01,0.02,0.01
					c0.89,0.43,1.79,0.86,2.69,1.28c0.26,0.12,0.53,0.25,0.79,0.37c0.64,0.3,1.28,0.6,1.93,0.9c0.3,0.14,0.6,0.28,0.9,0.41
					c0.64,0.29,1.28,0.59,1.93,0.87c0.26,0.12,0.52,0.24,0.78,0.35c1.79,0.8,3.57,1.58,5.34,2.35c0.27,0.12,0.53,0.23,0.8,0.34
					c0.62,0.27,1.24,0.53,1.86,0.79c0.3,0.13,0.59,0.25,0.88,0.37c0.61,0.26,1.21,0.51,1.81,0.76c0.26,0.11,0.53,0.22,0.79,0.33
					c0.84,0.35,1.67,0.69,2.49,1.03c23.13,9.49,31.13,4.15,31.13,4.15c-8.35-10.2-13.72-18.99-16.93-26.67
					c-4.62-11.02-4.79-19.75-2.94-27.06c1.06-4.16,2.77-7.86,4.69-11.26c0.73-1.3,1.5-2.55,2.27-3.76c1.93-3.05,3.9-5.88,5.51-8.63
					c10.65-18.18,38.85-54.28,39.43-56.03c0,0,8.53-2.01,10.81-5.56c0.2-0.31,0.36-0.63,0.45-0.96
					c2.22-7.78-17.79-29.94-37.36-41.51c-19.57-11.56-34.98-5.93-39.43-5.34c-57.62,7.68-74.12,99.91-73.82,112.36
					c0.14,5.89,3.8,10.85,7.89,15.79c4.56,5.51,9.68,10.99,11.08,17.71C371.8,217.4,371.9,217.75,372.02,218.11z"/>
				<path class="st3" d="M399.35,240.32c-0.18-0.09-0.35-0.18-0.53-0.28C399,240.13,399.18,240.23,399.35,240.32z"/>
				<path class="st3" d="M381.71,229.45c-0.13-0.1-0.25-0.2-0.38-0.3C381.45,229.25,381.58,229.35,381.71,229.45z"/>
				<path class="st3" d="M386.78,233.03c-0.07-0.05-0.14-0.09-0.21-0.14C386.64,232.94,386.71,232.99,386.78,233.03z"/>
				<path class="st3" d="M388.91,234.4c-0.15-0.09-0.31-0.19-0.46-0.28C388.61,234.21,388.76,234.3,388.91,234.4z"/>
				<path class="st3" d="M405.93,243.63c0.01,0,0.01,0.01,0.02,0.01l0,0C405.94,243.63,405.94,243.63,405.93,243.63z"/>
				<path class="st3" d="M383.19,230.56c-0.01-0.01-0.02-0.02-0.03-0.02C383.17,230.55,383.18,230.56,383.19,230.56z"/>
				<path class="st3" d="M385.14,231.93c-0.14-0.1-0.29-0.2-0.43-0.3C384.85,231.74,385,231.84,385.14,231.93z"/>
				<path class="st3" d="M397.23,239.19c-0.14-0.08-0.28-0.15-0.42-0.23C396.95,239.04,397.09,239.12,397.23,239.19z"/>
				<path class="st3" d="M403.94,242.65c-0.2-0.1-0.39-0.19-0.59-0.29C403.55,242.45,403.74,242.55,403.94,242.65z"/>
				<path class="st3" d="M394.93,237.93c-0.15-0.09-0.31-0.17-0.46-0.26C394.63,237.76,394.78,237.85,394.93,237.93z"/>
				<path class="st3" d="M392.97,236.82c-0.15-0.09-0.3-0.17-0.46-0.26C392.66,236.65,392.81,236.73,392.97,236.82z"/>
				<path class="st3" d="M390.72,235.5c-0.12-0.07-0.23-0.14-0.35-0.21C390.49,235.36,390.6,235.43,390.72,235.5z"/>
				<path class="st3" d="M401.65,241.5c-0.11-0.06-0.23-0.11-0.34-0.17C401.42,241.39,401.53,241.44,401.65,241.5z"/>
				<path class="st3" d="M374.05,221.95c-0.05-0.07-0.1-0.14-0.14-0.21C373.95,221.81,374,221.88,374.05,221.95z"/>
				<path class="st3" d="M376.1,224.45c-0.08-0.09-0.15-0.17-0.23-0.26C375.95,224.28,376.02,224.36,376.1,224.45z"/>
				<path class="st3" d="M375.09,223.29c-0.07-0.09-0.15-0.17-0.22-0.26C374.94,223.12,375.02,223.21,375.09,223.29z"/>
				<path class="st3" d="M372.12,218.4c-0.03-0.1-0.07-0.19-0.1-0.29C372.05,218.21,372.09,218.3,372.12,218.4z"/>
				<path class="st3" d="M372.57,219.48c-0.02-0.05-0.04-0.09-0.06-0.14C372.53,219.39,372.55,219.44,372.57,219.48z"/>
				<path class="st3" d="M373.31,220.84c-0.06-0.09-0.11-0.19-0.17-0.28C373.2,220.65,373.26,220.74,373.31,220.84z"/>
				<path class="st3" d="M377.39,225.75c-0.08-0.07-0.15-0.15-0.23-0.22C377.23,225.61,377.31,225.68,377.39,225.75z"/>
				<path class="st3" d="M378.67,226.95c-0.11-0.09-0.21-0.19-0.31-0.28C378.47,226.76,378.57,226.85,378.67,226.95z"/>
				<path class="st3" d="M380.12,228.19c-0.06-0.05-0.13-0.1-0.19-0.15C380,228.09,380.06,228.14,380.12,228.19z"/>
				<path class="st3" d="M421.1,250.52c0.62,0.27,1.24,0.53,1.86,0.79C422.34,251.05,421.72,250.78,421.1,250.52z"/>
				<path class="st3" d="M414.96,247.83c1.79,0.8,3.57,1.58,5.34,2.35C418.53,249.41,416.75,248.63,414.96,247.83z"/>
				<path class="st3" d="M409.42,245.29c0.64,0.3,1.28,0.6,1.93,0.9C410.71,245.89,410.06,245.59,409.42,245.29z"/>
				<path class="st3" d="M405.95,243.64L405.95,243.64c0.89,0.43,1.79,0.86,2.69,1.28C407.74,244.5,406.84,244.07,405.95,243.64z"/>
				<path class="st3" d="M423.85,251.68c0.61,0.26,1.21,0.51,1.81,0.76C425.06,252.19,424.45,251.94,423.85,251.68z"/>
				<path class="st3" d="M426.45,252.78c0.84,0.35,1.67,0.69,2.49,1.03C428.12,253.47,427.29,253.12,426.45,252.78z"/>
				<path class="st3" d="M412.25,246.6c0.64,0.29,1.28,0.59,1.93,0.87C413.53,247.18,412.89,246.89,412.25,246.6z"/>
				<path class="st5" d="M585.39,191.43c2.22,0.3,4,3.02,5.17,5.44c0.26,0.22,0.52,0.45,0.79,0.71c0.05,0.05,0.14,0.01,0.24-0.09
					c1.22-1.16,5.53-11.65,5.53-13.7c0-2.24,1.3,0,2.8,0.75c1.49,0.75,6.15-1.86,6.34-5.22c0.19-3.35,1.68,5.4,6.34,2.42
					s6.15-7.64,6.15-7.64s4.1,4.47,13.05-0.56c0,0-1.68-0.75,7.64,3.17c9.32,3.91,13.98,4.85,13.98,4.85s-13.8-11.1-10.44-10.62
					c1.05,0.15,13.65,5.89,18.17,12.52c1.08,1.58,1.7,3.2,1.59,4.82c0,0,13.05-48.64-13.05-54.61c-26.09-5.96-25.16-3.35-25.16-3.35
					s-2.24-2.98-6.71-2.05c-4.47,0.93-11.37,0.56-7.64,3.17c3.73,2.61-3.17,1.3-5.96,3.54c-2.8,2.24-5.96,5.22-10.25,6.15
					c-4.29,0.93-10.44,2.61-12.49,12.11c0,0-2.42,5.96-4.29,9.51c-1.86,3.54,2.61,9.32,2.8,16.21c0.19,6.9-2.98,10.25,0,13.05
					c2.04,1.91,3.2,2.43,3.74,2.56C583.79,190.4,585.39,191.43,585.39,191.43z"/>
				<path class="st3" d="M641.86,241.57c0.16-0.12,0.31-0.24,0.47-0.37c12.54-9.68,11.83-16.61,11.83-17.71
					c0-1.12,0.93-10.25,0.93-10.25s0.75,3.91,3.91,0.37c3.17-3.54,9.13-22.55,3.54-23.3l-1.4-6.87
					c-4.51-6.62-17.11-12.37-18.17-12.52c-3.37-0.48,10.44,10.62,10.44,10.62s-4.66-0.93-13.98-4.85c-9.32-3.91-7.64-3.17-7.64-3.17
					c-8.95,5.03-13.05,0.56-13.05,0.56s-1.49,4.66-6.15,7.64s-6.15-5.78-6.34-2.42c-0.19,3.35-4.85,5.96-6.34,5.22
					c-1.49-0.75-2.8-2.98-2.8-0.75c0,2.06-4.32,12.54-5.53,13.7l0.5,3.26c0,0-0.55-1.84-1.54-3.88c-1.17-2.42-2.95-5.13-5.17-5.44
					c0,0-1.61-1.03-1.67,3.12c-0.02,1.14,0.08,2.66,0.36,4.71c1.3,9.51,4.1,16.03,7.83,16.59c3.19,0.48,5.29,15.94,12.82,23.67
					c1.28,1.31,2.71,2.41,4.33,3.17C620.24,247.91,628.82,251.45,641.86,241.57z"/>
				<path class="st3" d="M664.97,296.37l0.08,0.09l-0.01-0.19C665.01,296.3,664.99,296.34,664.97,296.37z"/>
				<path class="st3" d="M603.65,286.07c0,0-0.3,0.06-0.81,0.15c0.15,0.82,0.29,1.79,0.37,2.78c12.21,1.04,48.18,4.04,57.23,4.01
					c-1.07-4.41-1.69-10.17-1.69-10.17c-2.32-2.7-7.27-17.42-10.56-27.75c-0.34,0.33-13.54,12.98-45.62,3.21l1.55-13.5
					c-3.32-0.45-4.62-0.62-4.62-0.62s-0.13,0-0.36-0.01C601.9,252.63,605.7,278.06,603.65,286.07z"/>
				<path class="st3" d="M645.39,246.09c-0.31,0.06-0.61,0.11-0.91,0.17l3.64,8.61C646.89,251.02,645.91,247.8,645.39,246.09z"/>
				<path class="st3" d="M648.19,255.09c-0.02-0.07-0.05-0.15-0.07-0.22l-3.64-8.61l-2.14-5.06c-0.16,0.12-0.31,0.24-0.47,0.37
					c-13.05,9.88-21.62,6.34-32.8,1.12c-1.62-0.76-3.05-1.85-4.33-3.17l-0.61,5.28l-1.55,13.5
					C634.65,268.08,647.85,255.42,648.19,255.09z"/>
				<path class="st3" d="M648.21,255.07c0,0-0.01,0.01-0.02,0.02c3.29,10.33,8.25,25.05,10.56,27.75c0,0,8.61-4.31,10.33-0.43
					c0.27,0.6,0.35,1.41,0.3,2.34c1.46-4.09-1.52-32.72-4.49-39.75c-0.4-0.95-0.8-1.5-1.19-1.55c-3.44-0.43-18.73,1.29-18.73,1.29
					s0.15,0.49,0.41,1.35c0.52,1.71,1.51,4.93,2.74,8.78L648.21,255.07z"/>
				<path class="st3" d="M648.12,254.87c0.02,0.07,0.05,0.15,0.07,0.22c0,0,0.02-0.02,0.02-0.02L648.12,254.87z"/>
				<path class="st3" d="M591.2,286.18c-0.43-0.6-0.68-0.97-0.68-0.97C590.59,285.61,590.84,285.93,591.2,286.18z"/>
				<path class="st3" d="M602.36,283.92c0,0,0.24,0.96,0.48,2.31c0.51-0.09,0.81-0.15,0.81-0.15c2.05-8.01-1.75-33.44-4.5-41.9
					c-0.43-1.31-0.76-2.22-0.93-2.57c-1.29-2.58-15.23-0.09-16.53,1.85c-0.07,0.11-0.11,0.34-0.11,0.66
					c-0.13,5.29,8.33,37.85,8.94,41.1L602.36,283.92z"/>
				<path class="st3" d="M603.21,289.01c-0.08-0.99-0.23-1.96-0.37-2.78c-0.24-1.35-0.48-2.31-0.48-2.31l-11.84,1.29
					c0,0,0.25,0.38,0.68,0.97c1.24,1.73,4,5.34,6.67,7.33c1.12,0.83,2.22,1.39,3.19,1.39C603.21,294.9,603.46,291.88,603.21,289.01z
					"/>
				<path class="st3" d="M662.63,297.91c0.61,0.28,1.45-0.37,2.34-1.54c0.02-0.03,0.05-0.06,0.07-0.1c1.15-1.56,2.36-4,3.21-6.46
					c0.62-1.79,1.05-3.58,1.13-5.06c-0.08,0.24-0.18,0.39-0.3,0.46c-2.37,1.29-9.04-0.86-10.33-2.37c0,0,0.62,5.76,1.69,10.17
					C661.04,295.48,661.78,297.52,662.63,297.91z"/>
				<path class="st3" d="M669.09,285.21c0.12-0.06,0.21-0.22,0.3-0.46c0.05-0.94-0.03-1.74-0.3-2.34
					c-1.72-3.87-10.33,0.43-10.33,0.43C660.05,284.35,666.72,286.5,669.09,285.21z"/>
				<path class="st3" d="M669.39,284.75c-0.08,1.48-0.52,3.27-1.13,5.06l0.84-0.08c0,0,4.31,13.99,8.83,15.5
					c0.9,0.3,2.74,0,5.09-0.66c7.85-2.22,21.47-8.56,25.7-10.56c0.82-0.39,1.29-0.62,1.29-0.62s-12.27-38.32-32.29-45.63
					c-4.22-1.54-8.56-2.38-12.8-2.75C667.86,252.03,670.84,280.67,669.39,284.75z"/>
				<path class="st3" d="M559.52,295.33c2.79-2.21,13.35,4.95,13.35,4.95l-1.08,30.14l0.76-0.03c0.3-0.37,0.6-0.74,0.9-1.12
					c9.58-11.88,20.74-26.75,24.42-35.75c-2.68-1.99-5.43-5.6-6.67-7.33c-0.36-0.25-0.61-0.57-0.68-0.97
					c-0.61-3.25-9.07-35.81-8.94-41.1c-6.32,0.4-13.18,1.29-17.32,3.22c-5.06,2.36-8.86,10.94-13.99,20.45
					c-4.25,7.87-6.67,16.57-9.69,25.4c0.12,0.18,4.79,1.36,9.51,2.12C554.19,295.95,558.33,296.28,559.52,295.33z"/>
				<path class="st8" d="M668.55,328.93c-0.13-0.52-0.25-1.08-0.36-1.68C668.3,327.85,668.42,328.41,668.55,328.93z"/>
				<path class="st8" d="M667.42,317.74c-0.02-0.77-0.02-1.54-0.03-2.31C667.39,316.2,667.4,316.97,667.42,317.74z"/>
				<path class="st8" d="M667.61,322.24c-0.08-1.09-0.13-2.21-0.16-3.36C667.48,320.03,667.54,321.16,667.61,322.24z"/>
				<path class="st8" d="M666.56,298.24c0.78,1.09,1.22,2.37,1.26,3.71C667.78,300.61,667.34,299.32,666.56,298.24z"/>
				<path class="st3" d="M463.93,300.55c-0.4,0.85-0.17,1.87,0.55,2.48l25.22,21.21c1.91,0.27,5.05,0.75,8.73,1.49l-31.28-25.9
					C466.1,298.96,464.51,299.32,463.93,300.55z"/>
				<path class="st3" d="M520.32,345.72c2.69,2.92,3.11,4.93,2.45,6.33l4.44,3.73l5.83,4.9l3.65,3.07l6.75,3.37l-3.73-6.58
					l-0.68-1.2l-4.77-3.95l-9.41-7.79C522.35,346.73,520.32,345.72,520.32,345.72z"/>
				<path class="st3" d="M522.77,352.05c0.66-1.39,0.24-3.41-2.45-6.33c0,0,2.03,1.01,4.52,1.88c2.89,1.01,6.41,1.82,8.16,0.66
					c3.26-2.17,4.35-7.25-3.26-10.15c-3.29-1.25-10.12-6.27-18.48-9.06c-0.86-0.29-1.73-0.56-2.61-0.82
					c-0.13-0.04-0.26-0.08-0.39-0.12c-0.83-0.24-1.67-0.47-2.5-0.69c-0.15-0.04-0.3-0.08-0.45-0.12c-0.83-0.22-1.67-0.42-2.48-0.62
					c-0.1-0.02-0.2-0.05-0.31-0.07c-0.86-0.2-1.7-0.39-2.52-0.57c0,0,0,0,0,0c-0.53-0.11-1.06-0.22-1.57-0.33
					c-3.67-0.74-6.81-1.22-8.73-1.49c-1.26-0.18-2-0.26-2-0.26s-10.87,0-21.02,11.96c0,0-2.54,7.25-18.84,3.26
					c-0.35-0.08-0.72-0.17-1.11-0.26c-0.09-0.02-0.19-0.04-0.29-0.06c-0.39-0.09-0.8-0.17-1.23-0.26c-0.04-0.01-0.08-0.02-0.12-0.02
					c-0.41-0.08-0.84-0.16-1.28-0.25c-0.11-0.02-0.22-0.04-0.34-0.06c-0.48-0.09-0.97-0.18-1.49-0.27
					c-0.06-0.01-0.13-0.02-0.19-0.03c-0.48-0.08-0.98-0.17-1.49-0.25c-0.11-0.02-0.21-0.04-0.32-0.05
					c-0.56-0.09-1.14-0.18-1.74-0.28c-0.08-0.01-0.16-0.02-0.24-0.04c-0.55-0.09-1.11-0.17-1.68-0.26
					c-0.11-0.02-0.22-0.03-0.33-0.05c-0.64-0.09-1.29-0.19-1.95-0.29c-0.08-0.01-0.16-0.02-0.24-0.03
					c-0.63-0.09-1.28-0.18-1.93-0.27c-0.07-0.01-0.14-0.02-0.22-0.03c-0.72-0.1-1.44-0.2-2.18-0.3c-0.07-0.01-0.14-0.02-0.21-0.03
					c-0.73-0.1-1.47-0.2-2.22-0.29c-0.02,0-0.04-0.01-0.06-0.01c-0.79-0.1-1.59-0.2-2.4-0.31c-0.04-0.01-0.09-0.01-0.13-0.02
					c-1.63-0.21-3.29-0.41-4.97-0.61c-0.02,0-0.04-0.01-0.07-0.01c-1.71-0.21-3.44-0.41-5.18-0.61c-0.01,0-0.03,0-0.04,0
					c-0.7-0.08-1.41-0.16-2.12-0.24c0,0,0,0,0,0c-15-1.71-30.49-3.21-38.94-4.01c-0.01,0-0.03,0-0.04,0
					c-1.17-0.11-2.2-0.21-3.07-0.29c-0.06-0.01-0.11-0.01-0.16-0.02c-0.56-0.05-1.05-0.1-1.47-0.14c0,0-0.01,0-0.01,0
					c-0.2-0.02-0.37-0.03-0.54-0.05c-0.26-0.02-0.48-0.04-0.65-0.06c-0.18-0.02-0.32-0.03-0.41-0.04c-0.07-0.01-0.12-0.01-0.12-0.01
					s-7.25,31.89-2.54,34.79l4.94,0.24l0.88,0.04l18.19,0.89l72.51,3.56c0,0,12.54,0.69,22.32,0.69c3.58,0,7.7,0.34,11.51,0.58
					c6.61,0.41,12.31,0.5,12.77-2.02c0.53-2.94-0.9-5.68-1.69-6.91c-0.28-0.44-0.48-0.7-0.48-0.7s1.04,0.41,2.45,0.65
					c1.22,0.21,2.71,0.3,4.05-0.09c1.73-0.5,3.22-1.81,3.56-4.7c0.05-0.4,0.07-0.84,0.07-1.31
					C515.25,355.15,521.39,354.98,522.77,352.05z"/>
				<path class="st3" d="M373.14,330.01c8.45,0.79,23.95,2.3,38.94,4.01C397.08,332.31,381.59,330.81,373.14,330.01z"/>
				<path class="st3" d="M370.03,329.72c0.88,0.08,1.9,0.18,3.07,0.29C371.94,329.9,370.9,329.8,370.03,329.72z"/>
				<path class="st3" d="M368.4,329.57c0.42,0.04,0.91,0.08,1.47,0.14C369.31,329.66,368.82,329.61,368.4,329.57z"/>
				<path class="st3" d="M412.09,334.02c0.71,0.08,1.41,0.16,2.12,0.24C413.5,334.18,412.79,334.1,412.09,334.02z"/>
				<path class="st3" d="M367.85,329.52c0.16,0.01,0.34,0.03,0.54,0.05C368.19,329.55,368.01,329.54,367.85,329.52z"/>
				<path class="st3" d="M366.79,329.43c0.08,0.01,0.22,0.02,0.41,0.04C367.01,329.45,366.88,329.44,366.79,329.43z"/>
				<path class="st3" d="M447.85,339.2c-0.35-0.08-0.72-0.17-1.11-0.26C447.13,339.03,447.5,339.12,447.85,339.2z"/>
				<path class="st3" d="M436,337.07c-0.64-0.09-1.29-0.19-1.95-0.29C434.72,336.88,435.37,336.97,436,337.07z"/>
				<path class="st3" d="M419.42,334.88c-1.71-0.21-3.44-0.41-5.18-0.61C415.98,334.47,417.71,334.67,419.42,334.88z"/>
				<path class="st3" d="M438.01,337.37c-0.55-0.09-1.11-0.17-1.68-0.26C436.9,337.2,437.46,337.29,438.01,337.37z"/>
				<path class="st3" d="M445.09,338.6c-0.41-0.08-0.84-0.16-1.28-0.25C444.26,338.44,444.69,338.52,445.09,338.6z"/>
				<path class="st3" d="M446.45,338.88c-0.39-0.09-0.8-0.17-1.23-0.26C445.65,338.71,446.06,338.8,446.45,338.88z"/>
				<path class="st3" d="M424.46,335.5c-1.63-0.21-3.29-0.41-4.97-0.61C421.17,335.09,422.83,335.29,424.46,335.5z"/>
				<path class="st3" d="M426.99,335.82c-0.79-0.1-1.59-0.2-2.4-0.31C425.4,335.62,426.2,335.72,426.99,335.82z"/>
				<path class="st3" d="M429.27,336.12c-0.73-0.1-1.47-0.2-2.22-0.29C427.8,335.93,428.54,336.02,429.27,336.12z"/>
				<path class="st3" d="M433.81,336.75c-0.63-0.09-1.28-0.18-1.93-0.27C432.53,336.57,433.18,336.66,433.81,336.75z"/>
				<path class="st3" d="M443.48,338.29c-0.48-0.09-0.97-0.18-1.49-0.27C442.5,338.11,443,338.2,443.48,338.29z"/>
				<path class="st3" d="M439.99,337.69c-0.56-0.09-1.14-0.18-1.74-0.28C438.84,337.5,439.42,337.59,439.99,337.69z"/>
				<path class="st3" d="M431.66,336.45c-0.72-0.1-1.44-0.2-2.18-0.3C430.22,336.25,430.95,336.35,431.66,336.45z"/>
				<path class="st3" d="M500,326.06c-0.53-0.11-1.06-0.22-1.57-0.33C498.94,325.83,499.47,325.94,500,326.06z"/>
				<path class="st3" d="M441.8,337.99c-0.48-0.08-0.98-0.17-1.49-0.25C440.82,337.82,441.32,337.91,441.8,337.99z"/>
				<path class="st3" d="M502.83,326.69c0.82,0.19,1.65,0.4,2.48,0.62C504.48,327.09,503.65,326.89,502.83,326.69z"/>
				<path class="st3" d="M508.65,328.24c0.87,0.26,1.75,0.53,2.61,0.82C510.4,328.77,509.53,328.5,508.65,328.24z"/>
				<path class="st3" d="M505.77,327.43c0.83,0.22,1.67,0.45,2.5,0.69C507.43,327.88,506.6,327.65,505.77,327.43z"/>
				<path class="st3" d="M500,326.06c0.82,0.18,1.67,0.37,2.52,0.57C501.67,326.42,500.82,326.23,500,326.06z"/>
				<path class="st3" d="M595.07,375.17c1.77-0.03,3.52-0.12,5.22-0.24c13.51-1.01,24.36-4.69,24.36-4.69l-4.28-6.8
					c-0.19,0.41-0.5,0.72-1,0.77c-1.94,0.22,0.65,2.15-4.31,2.58c-2.74,0.24-9.29-0.12-15-1.06c-4.62-0.77-8.7-1.92-9.75-3.46
					c-1.49-2.17-13.56-5.96-23.48-8.68c-2.07-0.57-4.06-1.09-5.82-1.55l-1.33,1.94l-8.46,12.36
					C551.22,366.35,579.24,375.43,595.07,375.17z"/>
				<path class="st15" d="M628.88,366.42l2.37,1.25l-0.9-2.37l-8.85-10.64c-0.51-0.21-0.84-0.36-0.84-0.36s4.17,5.91,2.33,6.15
					C626.46,364.08,628.27,365.93,628.88,366.42z"/>
				<path class="st15" d="M597.09,325.35c-0.86-1.03-2.35-1.25-3.47-0.51v0c-1.34,0.89-1.58,2.76-0.49,3.95
					c0.18,0.19,0.37,0.4,0.58,0.62c1.86,1.99,4.39,4.68,7.24,7.72c2.13-0.04,4.07,0.2,6.36,1.45c0.44,0.24,0.98,0.56,1.59,0.94
					l-8.67-10.42L597.09,325.35z"/>
				<path class="st3" d="M590.3,362.27c1.06,1.54,5.13,2.69,9.75,3.46c5.71,0.95,12.26,1.3,15,1.06c4.95-0.43,2.37-2.37,4.31-2.58
					c0.5-0.06,0.81-0.36,1-0.77c0.55-1.19,0.07-3.32,0.07-3.32s-1.94-1.08,1.72,0.22c0.36,0.13,0.62,0.15,0.82,0.13
					c1.84-0.24-2.33-6.15-2.33-6.15s0.34,0.16,0.84,0.36c1.75,0.72,5.66,2.12,5.83,0.28c0.07-0.76-1.49-2.46-3.8-4.5
					c-1.32-1.17-12.05-10.38-14.03-10.53c-0.21-0.13-0.41-0.26-0.6-0.38c-0.61-0.38-1.15-0.7-1.59-0.94
					c-2.29-1.25-4.24-1.49-6.36-1.45c-2.26,0.04-4.73,0.38-8.06,0.16c-0.58-0.04-1.19-0.12-1.84-0.25c-0.64-0.12-1.31-0.29-2-0.48
					c-0.34-0.1-0.69-0.2-1.04-0.31c-3.87-1.22-8.11-3.27-11.04-4.86c-0.34-0.18-0.69-0.34-1.05-0.48c-1.07-0.41-2.22-0.59-3.37-0.54
					l-0.76,0.03l1.08-30.14c0,0-10.56-7.16-13.35-4.95c-1.2,0.95-5.33,0.62-9.44-0.03c-0.98,10.48-3.52,36.94-4.55,41.58
					c-1.29,5.81,3.87,12.7,8.61,13.56c1.13,0.21,3.65,0.79,6.86,1.61c1.77,0.45,3.75,0.98,5.82,1.55
					C576.74,356.31,588.81,360.1,590.3,362.27z"/>
				<path class="st3" d="M575.92,330.92c0.36,0.14,0.71,0.3,1.05,0.48c2.93,1.59,7.17,3.64,11.04,4.86
					c-3.87-1.22-8.11-3.27-11.04-4.86C576.63,331.21,576.28,331.05,575.92,330.92z"/>
				<path class="st3" d="M591.05,337.05c-0.64-0.12-1.31-0.29-2-0.48C589.74,336.77,590.41,336.93,591.05,337.05z"/>
				<path class="st8" d="M642.63,357.39c0.02,0.35,0.13,0.64,0.31,0.88c-0.01-0.07-0.03-0.13-0.04-0.21
					c-0.22-3.66,0.14-4.4,0.14-4.4S642.41,353.73,642.63,357.39z"/>
				<path class="st8" d="M658.17,358.99L658.17,358.99c0.08,0,0.16,0,0.23,0C658.33,358.99,658.25,358.99,658.17,358.99z"/>
				<path class="st15" d="M667.33,357.6c-0.03,0.02-0.06,0.03-0.1,0.05c-0.11,0.05-0.23,0.11-0.37,0.16
					c-0.02,0.01-0.04,0.02-0.06,0.03c-0.16,0.06-0.34,0.12-0.53,0.18c-0.05,0.02-0.11,0.03-0.16,0.05
					c-0.16,0.05-0.33,0.09-0.52,0.14c-0.05,0.01-0.1,0.03-0.16,0.04c-0.23,0.05-0.47,0.11-0.72,0.16c-0.07,0.01-0.15,0.03-0.22,0.04
					c-0.2,0.04-0.4,0.08-0.61,0.11c-0.09,0.01-0.17,0.03-0.26,0.04c-0.27,0.04-0.55,0.08-0.84,0.12c-0.08,0.01-0.17,0.02-0.26,0.03
					c-0.22,0.03-0.45,0.05-0.69,0.08c-0.11,0.01-0.22,0.02-0.34,0.03c-0.3,0.03-0.59,0.05-0.9,0.07c-0.08,0.01-0.17,0.01-0.26,0.01
					c-0.26,0.01-0.52,0.02-0.78,0.03c-0.12,0-0.24,0.01-0.37,0.01c-0.26,0-0.53,0.01-0.8,0c-0.08,0-0.16,0-0.23,0
					c-1.06,0.49-2.21,1-3.47,1.5c-6,2.44-9.09-0.66-9.09-0.66l0.15-0.13c-1.46,0.02-2.63-0.33-2.83-1.44
					c-0.18-0.24-0.29-0.53-0.31-0.88c-0.22-3.66,0.41-3.73,0.41-3.73s-2.11-0.79-3.07-2.52l-0.03,0.01
					c-0.03-0.05-0.04-0.12-0.06-0.18c-0.02-0.04-0.05-0.07-0.06-0.11c0,0-9.26,6.46-10.33,3.01c-0.34-1.1,0.97-2.51,2.9-3.92
					l-8.85,0.49c2.3,2.04,3.87,3.74,3.8,4.5c-0.17,1.84-4.08,0.44-5.83-0.28l8.85,10.64l0.95,2.4l-0.06-0.03l0.01,0.03l-2.38-1.28
					c-0.61-0.49-2.42-2.34-5.89-5.96c-0.2,0.03-0.46,0-0.82-0.13c-3.66-1.29-1.72-0.22-1.72-0.22s0.47,2.13-0.07,3.32l4.28,6.8
					c0,0-10.85,3.68-24.36,4.69l-0.81,10.36l11.93-2.33l72.8-14.22l2.97-0.58l-13.72-14.09c-2.3,0.55-5.47,3.05-5.83,3.35
					C667.55,357.48,667.45,357.54,667.33,357.6z"/>
				<polygon class="st15" points="631.31,367.71 630.35,365.31 631.25,367.68 				"/>
				<path class="st3" d="M634.86,339.88c1-1.99,12.87-6.58,15.99-6.49C647.74,333.12,635.86,337.89,634.86,339.88z"/>
				<path class="st3" d="M670.16,332.35c-0.68-0.65-1.21-1.85-1.61-3.42c-0.13-0.52-0.25-1.08-0.36-1.68
					c-0.27-1.49-0.45-3.2-0.58-5.01c-0.08-1.09-0.13-2.21-0.16-3.36c-0.01-0.38-0.02-0.76-0.03-1.15c-0.02-0.77-0.02-1.54-0.03-2.31
					c0-1.15,0.01-2.3,0.03-3.42c0.07-3.73,0.25-7.14,0.39-9.39c0.01-0.22,0.02-0.45,0.01-0.67c-0.05-1.33-0.49-2.62-1.26-3.71
					c-0.13-0.18-0.27-0.36-0.42-0.53l-1.1-1.25l-0.08-0.09c-0.88,1.17-1.73,1.82-2.34,1.54c-0.85-0.39-1.59-2.43-2.18-4.89
					c-9.05,0.03-45.02-2.97-57.23-4.01c0.25,2.87,0,5.89-2.15,5.89c-0.97,0-2.07-0.56-3.19-1.39c-3.69,9-14.84,23.87-24.42,35.75
					c-0.3,0.38-0.6,0.75-0.9,1.12c1.16-0.05,2.3,0.13,3.37,0.54c0.36,0.14,0.71,0.3,1.05,0.48c2.93,1.59,7.17,3.64,11.04,4.86
					c0.35,0.11,0.7,0.22,1.04,0.31c0.69,0.19,1.36,0.36,2,0.48c0.64,0.12,1.26,0.21,1.84,0.25c3.33,0.22,5.8-0.13,8.06-0.16
					c-2.85-3.04-5.37-5.73-7.24-7.72c-0.21-0.22-0.4-0.43-0.58-0.62c-1.09-1.19-0.85-3.06,0.49-3.95v0
					c1.12-0.74,2.61-0.52,3.47,0.51l3.14,3.77l8.67,10.42c0.19,0.12,0.39,0.25,0.6,0.38c1.98,0.15,12.7,9.36,14.03,10.53l8.85-0.49
					c1.11-0.81,2.42-1.61,3.75-2.35c0.74-0.42,1.48-0.82,2.2-1.19c1.38-0.71,3.82-2.41,3.45-2.42c-2.7-0.04-7.63-0.48-7.22-3.2
					c0.04-0.28,0.12-0.58,0.29-0.92c1-1.99,12.88-6.77,15.99-6.49c7.94,0.22,15.65,1.32,15.65,1.32l4.19-1.76
					C670.53,332.75,670.36,332.54,670.16,332.35z"/>
				<path class="st15" d="M639.94,351.15l0.03-0.01c-0.03-0.06-0.07-0.11-0.1-0.17C639.9,351.03,639.91,351.1,639.94,351.15z"/>
				<path class="st15" d="M653.26,340.54l-0.32,0.32C653.07,340.76,653.18,340.65,653.26,340.54z"/>
				<path class="st15" d="M641.79,344c0.37,0.01-2.07,1.7-3.45,2.42c-0.72,0.37-1.46,0.77-2.2,1.19c-1.33,0.75-2.64,1.55-3.75,2.35
					c-1.93,1.41-3.25,2.82-2.9,3.92c1.08,3.44,10.33-3.01,10.33-3.01c0.02,0.04,0.04,0.07,0.06,0.11c-0.1-0.24-0.13-0.53-0.09-0.87
					c0.16-1.19,1.12-2.77,2.29-3.21c4.38-1.64,9.9-5.05,9.9-5.05l0.96-0.98c-0.76,0.64-1.96-0.63-3.49,0.21
					C646.2,342.87,641.79,344,641.79,344z"/>
				<path class="st15" d="M708.69,294.01c-4.22,2-17.85,8.34-25.7,10.56l10.63,18.74l-22.93,9.64l-4.19,1.76
					c0,0-7.29-0.58-15.65-1.32c-3.12-0.09-14.99,4.5-15.99,6.49c-0.17,0.33-0.25,0.63-0.29,0.92c-0.41,2.72,4.52,3.16,7.22,3.2
					c0,0,4.01-0.93,7-2.46c1.93-0.99,3.23,0.11,4.16-0.68l-0.96,0.98c0,0-5.52,3.4-9.9,5.05c-1.17,0.44-2.13,2.01-2.29,3.21
					c-0.04,0.34-0.01,0.63,0.09,0.87c0.03,0.06,0.06,0.11,0.1,0.17c0.95,1.73,3.07,2.52,3.07,2.52s-0.36,0.74-0.14,4.4
					c0,0.08,0.03,0.14,0.04,0.21c0.2,1.11,1.36,1.46,2.83,1.44l-0.15,0.13c0,0,3.09,3.09,9.09,0.66c1.25-0.51,2.41-1.02,3.47-1.5h0
					c0.08,0,0.16,0,0.23,0c0.27,0,0.53,0,0.8,0c0.12,0,0.24,0,0.37-0.01c0.26-0.01,0.52-0.02,0.78-0.03c0.09,0,0.17-0.01,0.26-0.01
					c0.3-0.02,0.6-0.04,0.9-0.07c0.11-0.01,0.22-0.02,0.34-0.03c0.23-0.02,0.46-0.05,0.69-0.08c0.09-0.01,0.17-0.02,0.26-0.03
					c0.29-0.04,0.57-0.08,0.84-0.12c0.09-0.01,0.18-0.03,0.26-0.04c0.21-0.04,0.41-0.07,0.61-0.11c0.07-0.01,0.15-0.03,0.22-0.04
					c0.25-0.05,0.49-0.1,0.72-0.16c0.06-0.01,0.11-0.03,0.16-0.04c0.18-0.05,0.35-0.09,0.52-0.14c0.06-0.02,0.11-0.03,0.16-0.05
					c0.19-0.06,0.37-0.12,0.53-0.18c0.02-0.01,0.04-0.02,0.06-0.03c0.14-0.05,0.26-0.11,0.37-0.16c0.03-0.02,0.07-0.03,0.1-0.05
					c0.11-0.06,0.22-0.12,0.29-0.18c0.36-0.3,3.54-2.81,5.83-3.35c5.95-1.41,17.26-3.35,28.13-4.28c7.99-0.68,14.95-2.6,19.76-4.75
					c4.27-1.91,6.84-4,6.93-5.58C729.21,323.8,713.05,300.09,708.69,294.01z"/>
			</g>
			<path class="st3" d="M618.52,364.6c0,0-16.21-2-20.57-7.76"/>
			<path class="st3" d="M620.44,360.12c-0.44-0.39-10.98-5.01-12.64-7.45"/>
			<path class="st3" d="M621.5,354.67c0,0-6.99-4.88-8.73-6.89"/>
			<path class="st3" d="M658.4,358.99c0,0,4.48-2.82,5.57-3.92"/>
			<path class="st3" d="M643.04,353.66c0.47-0.09,11.29-4.32,14.85-7.5"/>
			<path class="st3" d="M645.76,359.71c0,0,9.78-3.06,13.16-5.77"/>
			<line class="st15" x1="693.63" y1="323.31" x2="703.35" y2="320.16"/>
			<path class="st15" d="M520.32,345.72c0,0-24.72-11.64-26.78-11.9"/>
			<path class="st15" d="M515.25,355.15c0,0-12.94-7.41-16.55-8.95c-3.61-1.55-5.41-1.55-5.41-1.55"/>
			<line class="st15" x1="504.44" y1="360.03" x2="485.03" y2="355.47"/>
			<path class="st15" d="M466.69,369.4c-1.68-0.42-6.99-4.89-8.25-8.67"/>
			<path class="st15" d="M572.87,300.28c0,0,5.17-8.9,4.37-11.28"/>
			<path class="st15" d="M426.57,71.18c0,0,61.59,27.22,65.52,53.37"/>
			<path class="st15" d="M438.52,214.5c0.34-1.34,10.27-87.27,21.66-95.98"/>
			<path class="st15" d="M413.34,378.73c1.23,0,71.13-3.29,71.13-3.29"/>
			<path class="st15" d="M422.8,395.18l-4.65,1.54l2.18,2.58l68.82,7.91c1.35,0.15,2.45-1.05,2.19-2.38v0
				c-0.17-0.85-0.86-1.49-1.72-1.59L422.8,395.18z"/>
			<path class="st15" d="M676.7,362.9c-1.24-0.31-4.95-4.02-10.67,0.15c-3.64,2.66-10.94,1.02-14.85,2.94
				c-9.13,4.49-18.87,2.78-19.92,1.71"/>
		</g>
	</g>
</g>
</svg>
