<svg id="Layer_1" data-name="Layer 1" xmlns="http://www.w3.org/2000/svg" xmlns:xlink="http://www.w3.org/1999/xlink" viewBox="0 0 841.89001 467.72"><defs><style>.cls-1,.cls-14,.cls-5,.cls-8{fill:none;}.cls-2{clip-path:url(#clip-path);}.cls-3{fill:#90bcd6;}.cls-4{fill:#fff;}.cls-14,.cls-5,.cls-8{stroke:#54575c;}.cls-5{stroke-miterlimit:10;}.cls-6{fill:#ddddde;}.cls-7{fill:#54575c;}.cls-8{stroke-miterlimit:9.99996;}.cls-9{fill:#4890ba;}.cls-10{fill:#f7b089;}.cls-11{fill:#f4c55c;}.cls-12{fill:#f29862;}.cls-13{fill:#235485;}.cls-14{stroke-linejoin:round;}</style><clipPath id="clip-path"><rect class="cls-1" width="841.89001" height="467.72"/></clipPath></defs><g id="Layer_3" data-name="Layer 3"><g class="cls-2"><rect class="cls-3" width="841.89001" height="467.72"/></g><g class="cls-2"><path class="cls-4" d="M589.56,311.75,440.99,255.84,17.82,287.08a4.37292,4.37292,0,0,0-4.05,4.35h0a4.37935,4.37935,0,0,0,2.18,3.79l18.31,10.63,6.11,245.58,28.26,2.26L60.4,321.02l67.78,39.34,6.94,242.89,33.05,17.28-4.89-258.65L422.64,334.7l.47,181.82,28.66,4.05L447.13,332.3l92.98-9.12-3.49,232.1,31.97,3.19-2.7-237.82,23.67-2.32Z"/><path class="cls-5" d="M590.85,313.35,442.28,257.44,15.55,288.94a.52265.52265,0,0,0-.48.52l-.01,3.57a4.37935,4.37935,0,0,0,2.18,3.79l18.31,10.63,6.11,245.58,28.26,2.26-8.23-232.67,67.78,39.34,6.94,242.89,33.05,17.28-4.89-258.65,259.36-27.18.47,181.82,28.66,4.05L448.4,333.9l92.98-9.12-3.49,232.1,31.97,3.19-2.7-237.82,23.67-2.32Z"/><path class="cls-6" d="M433.19,255.23,20.09,285.72a4.37527,4.37527,0,0,0-1.87,8.15l106.9,62.06,456.64-44.79Z"/><path class="cls-5" d="M439.62,256.38,19.08,287.42a2.07421,2.07421,0,0,0-.89,3.86L121.3,351.14a36.64319,36.64319,0,0,0,22.01,4.78l444.87-43.63Z"/><path class="cls-7" d="M253.05,328.99c23.85-2.25,116.7-12.19,137.89-14.46a1.71826,1.71826,0,0,0,.72-3.15l-22.85-17.06a6.51107,6.51107,0,0,0-4.6-1.28L227.79,308.02a1.782,1.782,0,0,0-.88,3.18l16.42,14.54A12.8754,12.8754,0,0,0,253.05,328.99Z"/><path class="cls-5" d="M255.62,328.53c23.85-2.25,116.7-12.19,137.89-14.46a1.71826,1.71826,0,0,0,.72-3.15l-22.85-17.06a6.511,6.511,0,0,0-4.6-1.28L230.36,307.56a1.782,1.782,0,0,0-.88,3.18l16.42,14.54A12.90168,12.90168,0,0,0,255.62,328.53Z"/><path class="cls-7" d="M223.81,279.65a11.42483,11.42483,0,0,0,6.47,8.52l13.93,6.55a11.48621,11.48621,0,0,0,5.97,1.06l49.85-4.84a.68064.68064,0,0,0,.13-1.32l-27.05-11.58a10.76185,10.76185,0,0,1-6.54-8.83l-.62-7.02-44.32,2.95Z"/><path class="cls-7" d="M165.19,248.99l.58,10.79a9.14433,9.14433,0,0,0,9.65,8.45l46.19-3.08,44.32-2.95,83.21-5.55a7.77539,7.77539,0,0,0,7.4-8.05l-.31-9.92C306.8,241.37,187.34,247.89,165.19,248.99Z"/><path class="cls-6" d="M350.55,119.26a9.14232,9.14232,0,0,0-9.19-8.65l-177.18,2.22a7.78809,7.78809,0,0,0-7.85,8.26l6.96,128.85c22.15-1.09,141.6-7.62,191.04-10.33Z"/><ellipse class="cls-4" cx="256.9918" cy="179.84253" rx="47.27982" ry="49.19981" transform="matrix(0.9945, -0.1047, 0.1047, 0.9945, -17.41711, 27.89559)"/><ellipse class="cls-8" cx="254.77182" cy="180.7822" rx="47.27982" ry="49.19981" transform="matrix(0.9945, -0.1047, 0.1047, 0.9945, -17.52769, 27.66833)"/><path class="cls-5" d="M224.61,278.5a11.42482,11.42482,0,0,0,6.47,8.52l13.93,6.55a11.48622,11.48622,0,0,0,5.97,1.06l49.85-4.84a.68064.68064,0,0,0,.13-1.32l-27.05-11.58a10.76187,10.76187,0,0,1-6.54-8.83l-.62-7.02-44.32,2.95Z"/><path class="cls-5" d="M166,247.84l.58,10.79a9.14432,9.14432,0,0,0,9.65,8.45L222.42,264l44.32-2.95,83.21-5.55a7.77538,7.77538,0,0,0,7.4-8.05l-.31-9.92C307.6,240.22,188.15,246.74,166,247.84Z"/><path class="cls-5" d="M353.26,117.16a9.14232,9.14232,0,0,0-9.19-8.65l-177.18,2.22a7.78809,7.78809,0,0,0-7.85,8.26L166,247.84c22.15-1.09,141.6-7.62,191.04-10.33Z"/><polygon class="cls-9" points="246.84 213.66 215.83 172.53 228.72 163.58 250.11 191.95 337.64 136.16 347.14 149.73 246.84 213.66"/><polygon class="cls-5" points="247.09 214.24 216.08 173.1 228.97 164.16 250.36 192.53 337.89 136.73 347.39 150.3 247.09 214.24"/></g><g class="cls-2"><path class="cls-4" d="M667.78,317.25c0-1.15.01-2.3.03-3.42C667.79,314.95,667.78,316.1,667.78,317.25Z"/><path class="cls-4" d="M666.89,336.54s-7.71-1.1-15.65-1.32C659.6,335.96,666.89,336.54,666.89,336.54Z"/><path class="cls-4" d="M369.05,366.39l1.31-.07-.88-.04C369.35,366.31,369.2,366.35,369.05,366.39Z"/><path class="cls-4" d="M461.06,370.77l-72.51-3.56,20.87,23.02,88.74-3.63-3.26-14.55c-3.81-.24-7.93-.58-11.51-.58C473.6,371.47,461.06,370.77,461.06,370.77Z"/><polygon class="cls-4" points="612.06 388.93 687.04 373.1 684.59 370.57 611.79 384.78 612.06 388.93"/><path class="cls-4" d="M338.44,372.91c17.98-3.27,27.42-5.66,30.61-6.53.15-.04.3-.08.42-.12l-4.94-.24c-4.71-2.9,2.54-34.79,2.54-34.79a.93917.93917,0,0,1,.12.01c.09.01.22.02.41.04.18.02.39.04.65.06.16.01.34.03.54.05h.01c.42.04.91.08,1.47.14.05.01.11.01.16.02.88.08,1.91.18,3.07.29h.04c8.45.79,23.94,2.3,38.94,4.01h0c.71.08,1.41.16,2.12.24h.02c.53-6.01.96-13.18-.2-19.88-1.93-11.19-10.97-56.6-8.08-70.75-.01,0-.01-.01-.02-.01-.67-.32-1.33-.65-1.99-.98-.2-.1-.39-.19-.59-.29-.57-.28-1.14-.57-1.7-.86-.11-.06-.23-.11-.34-.17-.66-.34-1.31-.67-1.96-1.01-.18-.09-.35-.18-.53-.28-.53-.28-1.07-.56-1.59-.85-.14-.08-.28-.15-.42-.23-.63-.34-1.26-.69-1.88-1.03-.15-.09-.31-.17-.46-.26-.51-.28-1.01-.57-1.51-.86-.15-.09-.3-.17-.46-.26-.61-.35-1.2-.7-1.79-1.06-.12-.07-.23-.14-.35-.21-.49-.3-.98-.59-1.45-.89-.15-.09-.31-.19-.46-.28q-.855-.54-1.68-1.08c-.07-.05-.14-.09-.21-.14-.48-.32-.96-.64-1.42-.96-.14-.1-.29-.2-.43-.3-.52-.36-1.02-.72-1.52-1.07-.01-.01-.02-.02-.03-.02-.5-.36-.98-.73-1.45-1.09-.13-.1-.26-.2-.38-.3q-.615-.48-1.2-.96c-.06-.05-.13-.1-.19-.15-.44-.36-.86-.73-1.26-1.09-.11-.09-.21-.19-.31-.28-.34-.3-.66-.61-.98-.91-.08-.07-.15-.15-.23-.22-.37-.36-.72-.72-1.06-1.09-.08-.09-.15-.17-.23-.26q-.405-.45-.78-.9c-.07-.09-.15-.17-.22-.26-.29-.36-.57-.72-.83-1.08-.05-.07-.1-.14-.14-.21-.21-.3-.41-.6-.59-.91-.06-.09-.11-.19-.17-.28q-.315-.54-.57-1.08c-.02-.05-.04-.09-.06-.14-.15-.32-.27-.63-.39-.95-.03-.1-.07-.19-.1-.29a10.69516,10.69516,0,0,1-.3-1.07c-1.41-6.72-6.52-12.2-11.08-17.71-.68,4.71-2.99,10.82-8.82,18.11-14.49,18.12-21.02,34.42-18.12,43.85s3.26,14.49-4.35,24.64-9.78,42.4-13.05,55.44c-2.06,8.25-2.38,19.69,3.72,25.88C323.96,372.68,329.65,374.51,338.44,372.91Z"/><path class="cls-4" d="M419.8,336.7c.02,0,.04.01.07.01,1.69.2,3.35.41,4.97.61.04.01.09.01.13.02.81.1,1.61.2,2.4.31.02,0,.04.01.06.01.75.1,1.49.2,2.22.29l.21.03c.74.1,1.46.2,2.18.3.07.01.14.02.22.03.65.09,1.3.18,1.93.27l.24.03c.66.1,1.31.19,1.95.29.11.02.22.03.33.05.57.09,1.13.17,1.68.26a1.9999,1.9999,0,0,1,.24.04c.6.09,1.17.19,1.74.28.11.02.22.04.32.05.51.08,1.01.17,1.49.25.06.01.13.02.19.03.51.09,1.01.18,1.49.27.11.02.23.04.34.06.44.08.87.16,1.28.25a.50142.50142,0,0,0,.12.02c.43.09.84.17,1.23.26.1.02.19.04.29.06.39.09.76.17,1.11.26,16.31,3.99,18.84-3.26,18.84-3.26,10.15-11.96,21.02-11.96,21.02-11.96s.73.08,2,.26l-25.22-21.21a2.08381,2.08381,0,0,1,2.67-3.2l31.28,25.9c.51.1,1.04.21,1.57.33h0c-1.21-16.44-3-44.92-2.09-59.1.84-13.11-12.31-35.24-22.03-49.65-1.46-.26-3.32-.57-5.43-.96-.1-.02-.19-.03-.29-.05-.45-.08-.92-.17-1.39-.27-.14-.03-.27-.05-.41-.08-.46-.09-.93-.19-1.4-.29-.16-.03-.32-.06-.48-.1-.46-.1-.93-.2-1.4-.31-.19-.04-.37-.08-.57-.13q-.99-.225-2.01-.48c-.83,5.01-4.69,12.52-19.37,16.64,3.22,7.68,8.59,16.47,16.93,26.67,0,0-8,5.34-31.13-4.15-.82-.34-1.65-.68-2.49-1.03-.26-.11-.53-.22-.79-.33-.6-.25-1.2-.5-1.81-.76-.29-.12-.59-.25-.88-.37-.62-.26-1.24-.53-1.86-.79-.27-.11-.53-.23-.8-.34-1.76-.76-3.55-1.54-5.34-2.35-.26-.12-.52-.24-.78-.35-.64-.29-1.28-.58-1.93-.87-.3-.14-.6-.28-.9-.41-.64-.3-1.28-.6-1.93-.9-.26-.12-.53-.25-.79-.37-.9-.42-1.8-.85-2.69-1.28-2.89,14.15,6.15,59.56,8.08,70.75,1.15,6.7.73,13.87.2,19.88h.02C416.37,336.29,418.1,336.5,419.8,336.7Z"/><path class="cls-4" d="M476.47,219.17a1.416,1.416,0,0,1-.2-.04c9.71,14.41,22.86,36.55,22.03,49.65-.91,14.18.88,42.66,2.09,59.1h0c.82.18,1.67.37,2.52.57.1.02.2.05.31.07.82.19,1.65.4,2.48.62l.45.12c.83.22,1.67.45,2.5.69l.39.12c.87.26,1.75.53,2.61.82,8.36,2.79,15.19,7.81,18.48,9.06,7.61,2.9,6.52,7.97,3.26,10.15-1.75,1.17-5.27.35-8.16-.66l9.41,7.79,12.56-.7c-2.41-11.69-7.66-38.03-7.66-45.57,0-9.78,7.97-63.05.36-76.46-7.25-12.77.96-21.93-45.87-40.31C491.93,199.8,483.65,220.45,476.47,219.17Z"/><path class="cls-4" d="M515.63,356.97c0,.47-.03.9-.07,1.31l12.04-.67-4.44-3.73C521.78,356.8,515.63,356.97,515.63,356.97Z"/><path class="cls-4" d="M462.9,216.47c-7.66-1.92-16.31-5.03-22.31-10.41-1.85,7.3-1.67,16.04,2.94,27.06C458.21,229,462.07,221.48,462.9,216.47Z"/><path class="cls-4" d="M492.48,126.37c-.59,1.76-28.78,37.86-39.43,56.03-1.61,2.75-3.58,5.58-5.51,8.63q-1.155,1.83-2.27,3.76a45.45932,45.45932,0,0,0-4.69,11.26c6,5.39,14.66,8.5,22.31,10.41q1.02.255,2.01.48c.19.04.38.08.57.13.47.11.94.21,1.4.31.16.04.32.07.48.1.47.1.94.2,1.4.29.14.03.27.05.41.08.47.09.94.18,1.39.27.1.02.19.03.29.05,2.21.41,4.14.72,5.63.99,7.18,1.28,15.46-19.37,17.57-24.98.33-.88.51-1.4.51-1.4s1.78,0,7.12-.3,3.85-3.26,0-10.67,5.63-34.09,5.63-46.25a29.643,29.643,0,0,0-4.01-14.75C501.01,124.36,492.48,126.37,492.48,126.37Z"/><path class="cls-4" d="M372.41,219.94c.03.09.07.19.1.29a9.49689,9.49689,0,0,0,.39.95c.02.05.04.09.06.14q.255.54.57,1.08c.05.09.11.19.17.28.18.3.38.6.59.91.05.07.09.14.14.21.26.36.53.72.83,1.08.07.09.14.17.22.26q.375.45.78.9c.08.09.15.17.23.26.34.36.69.72,1.06,1.09.07.07.15.15.23.22.31.3.64.61.98.91.1.09.21.19.31.28.41.36.83.73,1.26,1.09.06.05.12.1.19.15q.585.48,1.2.96c.13.1.25.2.38.3.47.36.96.73,1.45,1.09.01.01.02.02.03.02.49.36,1,.72,1.52,1.07.14.1.29.2.43.3.47.32.94.64,1.42.96.07.05.14.09.21.14q.825.54,1.68,1.08c.15.1.3.19.46.28.48.3.96.6,1.45.89.12.07.23.14.35.21.59.35,1.19.71,1.79,1.06.15.09.3.17.46.26.5.29,1,.57,1.51.86.15.09.31.17.46.26.62.35,1.25.69,1.88,1.03.14.08.28.15.42.23.53.28,1.06.57,1.59.85.18.09.35.18.53.28.65.34,1.3.68,1.96,1.01.11.06.23.11.34.17.57.29,1.13.57,1.7.86.2.1.39.2.59.29.66.33,1.32.65,1.99.98.01,0,.01.01.02.01.89.43,1.79.86,2.69,1.28.26.12.53.25.79.37.64.3,1.28.6,1.93.9.3.14.6.28.9.41.64.29,1.28.59,1.93.87.26.12.52.24.78.35q2.685,1.2,5.34,2.35c.27.12.53.23.8.34.62.27,1.24.53,1.86.79.3.13.59.25.88.37.61.26,1.21.51,1.81.76.26.11.53.22.79.33.84.35,1.67.69,2.49,1.03,23.13,9.49,31.13,4.15,31.13,4.15-8.35-10.2-13.72-18.99-16.93-26.67-4.62-11.02-4.79-19.75-2.94-27.06a45.84186,45.84186,0,0,1,4.69-11.26c.73-1.3,1.5-2.55,2.27-3.76,1.93-3.05,3.9-5.88,5.51-8.63,10.65-18.18,38.85-54.28,39.43-56.03,0,0,8.53-2.01,10.81-5.56a3.48606,3.48606,0,0,0,.45-.96c2.22-7.78-17.79-29.94-37.36-41.51-19.57-11.56-34.98-5.93-39.43-5.34-57.62,7.68-74.12,99.91-73.82,112.36.14,5.89,3.8,10.85,7.89,15.79,4.56,5.51,9.68,10.99,11.08,17.71C372.19,219.22,372.29,219.58,372.41,219.94Z"/><path class="cls-4" d="M585.78,193.26c2.22.3,4,3.02,5.17,5.44.26.22.52.45.79.71.05.05.14.01.24-.09,1.22-1.16,5.53-11.65,5.53-13.7,0-2.24,1.3,0,2.8.75,1.49.75,6.15-1.86,6.34-5.22.19-3.35,1.68,5.4,6.34,2.42a15.73052,15.73052,0,0,0,6.15-7.64s4.1,4.47,13.05-.56c0,0-1.68-.75,7.64,3.17,9.32,3.91,13.98,4.85,13.98,4.85s-13.8-11.1-10.44-10.62c1.05.15,13.65,5.89,18.17,12.52a7.71189,7.71189,0,0,1,1.59,4.82s13.05-48.64-13.05-54.61c-26.09-5.96-25.16-3.35-25.16-3.35a6.68764,6.68764,0,0,0-6.71-2.05c-4.47.93-11.37.56-7.64,3.17s-3.17,1.3-5.96,3.54c-2.8,2.24-5.96,5.22-10.25,6.15s-10.44,2.61-12.49,12.11c0,0-2.42,5.96-4.29,9.51-1.86,3.54,2.61,9.32,2.8,16.21.19,6.9-2.98,10.25,0,13.05,2.04,1.91,3.2,2.43,3.74,2.56C584.17,192.23,585.78,193.26,585.78,193.26Z"/><path class="cls-4" d="M662.94,192.14l-1.4-6.87c-4.51-6.62-17.11-12.37-18.17-12.52-3.37-.48,10.44,10.62,10.44,10.62s-4.66-.93-13.98-4.85c-9.32-3.91-7.64-3.17-7.64-3.17-8.95,5.03-13.05.56-13.05.56a15.73053,15.73053,0,0,1-6.15,7.64c-4.66,2.98-6.15-5.78-6.34-2.42-.19,3.35-4.85,5.96-6.34,5.22-1.49-.75-2.8-2.98-2.8-.75,0,2.06-4.32,12.54-5.53,13.7-.11.1-.19.14-.24.09-.27-.26-.53-.49-.79-.71-1.17-2.42-2.95-5.13-5.17-5.44,0,0-1.61-1.03-1.67,3.12a31.71,31.71,0,0,0,.36,4.71c1.3,9.51,4.1,16.03,7.83,16.59,3.19.48,5.29,15.94,12.82,23.67a15.012,15.012,0,0,0,4.33,3.17c11.18,5.22,19.76,8.76,32.8-1.12.16-.12.31-.24.47-.37,12.54-9.68,11.83-16.61,11.83-17.71,0-1.12.93-10.25.93-10.25s.75,3.91,3.91.37C662.57,211.9,668.53,192.89,662.94,192.14Z"/><path class="cls-4" d="M603.24,260.21l1.28-13.58c-3.32-.45-4.62-.62-4.62-.62s-.13,0-.36-.01a120.77951,120.77951,0,0,1,3.07,14.23C602.81,260.22,603.03,260.22,603.24,260.21Z"/><path class="cls-4" d="M659.14,284.67c-2.32-2.7-7.27-17.42-10.56-27.75-.34.33-13.47,12.91-45.34,3.29-.21.01-.42.01-.63.02,1.66,10.36,2.74,22.56,1.43,27.67,0,0-.3.06-.81.15.15.82.29,1.79.37,2.78,12.21,1.04,48.18,4.04,57.23,4.01A95.05713,95.05713,0,0,1,659.14,284.67Z"/><path class="cls-4" d="M645.77,247.91c-.31.06-.61.11-.91.17l3.64,8.61C647.28,252.84,646.29,249.63,645.77,247.91Z"/><path class="cls-4" d="M648.58,256.92c-.02-.07-.05-.15-.07-.22l-3.64-8.61-2.14-5.06c-.16.12-.31.24-.47.37-13.05,9.88-21.62,6.34-32.8,1.12a14.8292,14.8292,0,0,1-4.33-3.17l-.61,5.28-1.55,13.5C635.04,269.9,648.24,257.25,648.58,256.92Z"/><path class="cls-4" d="M648.51,256.7c.02.07.05.15.07.22l.02-.02Z"/><path class="cls-4" d="M591.59,288.01c-.43-.6-.68-.97-.68-.97A1.505,1.505,0,0,0,591.59,288.01Z"/><path class="cls-4" d="M602.75,285.74s.24.96.48,2.31c.51-.09.81-.15.81-.15,2.05-8.01-1.75-33.44-4.5-41.9-.43-1.31-.76-2.22-.93-2.57-1.29-2.58-15.23-.09-16.53,1.85a1.39289,1.39289,0,0,0-.11.66c-.13,5.29,8.33,37.85,8.94,41.1Z"/><path class="cls-4" d="M603.6,290.83c-.08-.99-.23-1.96-.37-2.78-.24-1.35-.48-2.31-.48-2.31l-11.84,1.29s.25.38.68.97a36.97547,36.97547,0,0,0,6.67,7.33,5.833,5.833,0,0,0,3.19,1.39C603.6,296.72,603.85,293.7,603.6,290.83Z"/><path class="cls-4" d="M663.02,299.74c.61.28,1.45-.37,2.34-1.54a.86428.86428,0,0,0,.07-.1,25.92152,25.92152,0,0,0,3.21-6.46,19.51775,19.51775,0,0,0,1.13-5.06.799.799,0,0,1-.3.46c-2.37,1.29-9.04-.86-10.33-2.37a95.04528,95.04528,0,0,0,1.69,10.17C661.43,297.31,662.17,299.35,663.02,299.74Z"/><path class="cls-4" d="M665.28,246.83c-.4-.95-.8-1.5-1.19-1.55-3.44-.43-18.73,1.29-18.73,1.29s.15.49.41,1.35c.52,1.71,1.51,4.93,2.74,8.78l.09.2-.02.02c3.29,10.33,8.25,25.05,10.56,27.75,1.29,1.51,7.96,3.66,10.33,2.37a.81142.81142,0,0,0,.3-.46C671.23,282.49,668.25,253.85,665.28,246.83Z"/><path class="cls-4" d="M669.77,286.58a19.93845,19.93845,0,0,1-1.13,5.06l.84-.08s4.31,13.99,8.83,15.5c.9.3,2.74,0,5.09-.66,7.85-2.22,21.47-8.56,25.7-10.56.82-.39,1.29-.62,1.29-.62s-12.27-38.32-32.29-45.63a49.9713,49.9713,0,0,0-12.8-2.75C668.25,253.85,671.23,282.49,669.77,286.58Z"/><path class="cls-4" d="M559.91,297.15c2.79-2.21,13.35,4.95,13.35,4.95l-1.08,30.14.76-.03c.3-.37.6-.74.9-1.12,9.58-11.88,20.74-26.75,24.42-35.75a36.66828,36.66828,0,0,1-6.67-7.33,1.5054,1.5054,0,0,1-.68-.97c-.61-3.25-9.07-35.81-8.94-41.1-6.32.4-13.18,1.29-17.32,3.22-5.06,2.36-8.86,10.94-13.99,20.45-4.25,7.87-6.67,16.57-9.69,25.4a63.70319,63.70319,0,0,0,9.51,2.12C554.58,297.77,558.71,298.1,559.91,297.15Z"/><path class="cls-4" d="M668.94,330.76q-.195-.78-.36-1.68Q668.745,329.98,668.94,330.76Z"/><path class="cls-4" d="M667.8,319.56c-.02-.77-.02-1.54-.03-2.31Q667.78507,318.405,667.8,319.56Z"/><path class="cls-4" d="M668,324.07c-.08-1.09-.13-2.21-.16-3.36C667.87,321.85,667.92,322.98,668,324.07Z"/><path class="cls-4" d="M666.95,300.06a6.698,6.698,0,0,1,1.26,3.71A6.88573,6.88573,0,0,0,666.95,300.06Z"/><path class="cls-4" d="M464.32,302.38a2.09267,2.09267,0,0,0,.55,2.48l25.22,21.21c1.91.27,5.05.75,8.73,1.49l-31.28-25.9A2.07833,2.07833,0,0,0,464.32,302.38Z"/><path class="cls-4" d="M520.71,347.55c2.69,2.92,3.11,4.93,2.45,6.33l4.44,3.73,5.83,4.9,3.65,3.07,6.75,3.37-3.73-6.58-.68-1.2-4.77-3.95-9.41-7.79A43.3884,43.3884,0,0,1,520.71,347.55Z"/><path class="cls-4" d="M523.16,353.88c.66-1.39.24-3.41-2.45-6.33a43.76637,43.76637,0,0,0,4.52,1.88c2.89,1.01,6.41,1.82,8.16.66,3.26-2.17,4.35-7.25-3.26-10.15-3.29-1.25-10.12-6.27-18.48-9.06-.86-.29-1.73-.56-2.61-.82l-.39-.12c-.83-.24-1.67-.47-2.5-.69l-.45-.12c-.83-.22-1.67-.42-2.48-.62-.1-.02-.2-.05-.31-.07q-1.29-.3-2.52-.57h0c-.53-.11-1.06-.22-1.57-.33-3.67-.74-6.81-1.22-8.73-1.49-1.26-.18-2-.26-2-.26s-10.87,0-21.02,11.96c0,0-2.54,7.25-18.84,3.26-.35-.08-.72-.17-1.11-.26-.09-.02-.19-.04-.29-.06-.39-.09-.8-.17-1.23-.26a.50126.50126,0,0,0-.12-.02c-.41-.08-.84-.16-1.28-.25-.11-.02-.22-.04-.34-.06-.48-.09-.97-.18-1.49-.27-.06-.01-.13-.02-.19-.03-.48-.08-.98-.17-1.49-.25-.11-.02-.21-.04-.32-.05-.56-.09-1.14-.18-1.74-.28a2.00057,2.00057,0,0,1-.24-.04c-.55-.09-1.11-.17-1.68-.26-.11-.02-.22-.03-.33-.05-.64-.09-1.29-.19-1.95-.29l-.24-.03c-.63-.09-1.28-.18-1.93-.27-.07-.01-.14-.02-.22-.03-.72-.1-1.44-.2-2.18-.3l-.21-.03c-.73-.1-1.47-.2-2.22-.29-.02,0-.04-.01-.06-.01-.79-.1-1.59-.2-2.4-.31-.04-.01-.09-.01-.13-.02-1.63-.21-3.29-.41-4.97-.61-.02,0-.04-.01-.07-.01-1.71-.21-3.44-.41-5.18-.61h-.04c-.7-.08-1.41-.16-2.12-.24h0c-15-1.71-30.49-3.21-38.94-4.01h-.04c-1.17-.11-2.2-.21-3.07-.29-.06-.01-.11-.01-.16-.02-.56-.05-1.05-.1-1.47-.14h-.01c-.2-.02-.37-.03-.54-.05-.26-.02-.48-.04-.65-.06-.18-.02-.32-.03-.41-.04a.93917.93917,0,0,0-.12-.01s-7.25,31.89-2.54,34.79l4.94.24.88.04,18.19.89,72.51,3.56s12.54.69,22.32.69c3.58,0,7.7.34,11.51.58,6.61.41,12.31.5,12.77-2.02a10.11783,10.11783,0,0,0-1.69-6.91c-.28-.44-.48-.7-.48-.7a13.62411,13.62411,0,0,0,2.45.65,9.2669,9.2669,0,0,0,4.05-.09c1.73-.5,3.22-1.81,3.56-4.7a10.68618,10.68618,0,0,0,.07-1.31C515.63,356.97,521.78,356.8,523.16,353.88Z"/><path class="cls-4" d="M595.45,376.99c1.77-.03,3.52-.12,5.22-.24a109.97253,109.97253,0,0,0,24.36-4.69l-4.28-6.8a1.208,1.208,0,0,1-1,.77c-1.94.22.65,2.15-4.31,2.58a76.28252,76.28252,0,0,1-15-1.06c-4.62-.77-8.7-1.92-9.75-3.46-1.49-2.17-13.56-5.96-23.48-8.68-2.07-.57-4.06-1.09-5.82-1.55l-1.33,1.94-8.46,12.36C551.6,368.17,579.62,377.25,595.45,376.99Z"/><path class="cls-4" d="M629.27,368.25l2.37,1.25-.9-2.37-8.85-10.64c-.51-.21-.84-.36-.84-.36s4.17,5.91,2.33,6.15C626.84,365.9,628.65,367.76,629.27,368.25Z"/><path class="cls-4" d="M597.48,327.17a2.62739,2.62739,0,0,0-3.47-.51h0a2.61587,2.61587,0,0,0-.49,3.95c.18.19.37.4.58.62,1.86,1.99,4.39,4.68,7.24,7.72a11.80576,11.80576,0,0,1,6.36,1.45c.44.24.98.56,1.59.94l-8.67-10.42Z"/><path class="cls-4" d="M590.69,364.1c1.06,1.54,5.13,2.69,9.75,3.46a75.50653,75.50653,0,0,0,15,1.06c4.95-.43,2.37-2.37,4.31-2.58a1.22539,1.22539,0,0,0,1-.77,6.60258,6.60258,0,0,0,.07-3.32s-1.94-1.08,1.72.22a1.84082,1.84082,0,0,0,.82.13c1.84-.24-2.33-6.15-2.33-6.15s.34.16.84.36c1.75.72,5.66,2.12,5.83.28.07-.76-1.49-2.46-3.8-4.5-1.32-1.17-12.05-10.38-14.03-10.53-.21-.13-.41-.26-.6-.38-.61-.38-1.15-.7-1.59-.94a11.82544,11.82544,0,0,0-6.36-1.45,76.33986,76.33986,0,0,1-8.06.16,14.41281,14.41281,0,0,1-1.84-.25c-.64-.12-1.31-.29-2-.48-.34-.1-.69-.2-1.04-.31a67.61189,67.61189,0,0,1-11.04-4.86,9.95791,9.95791,0,0,0-1.05-.48,8.40449,8.40449,0,0,0-3.37-.54l-.76.03,1.08-30.14s-10.56-7.16-13.35-4.95c-1.2.95-5.33.62-9.44-.03-.98,10.48-3.52,36.94-4.55,41.58-1.29,5.81,3.87,12.7,8.61,13.56,1.13.21,3.65.79,6.86,1.61,1.77.45,3.75.98,5.82,1.55C577.13,358.14,589.2,361.93,590.69,364.1Z"/><path class="cls-4" d="M667.72,359.43a.93423.93423,0,0,1-.1.05c-.11.05-.23.11-.37.16l-.06.03c-.16.06-.34.12-.53.18-.05.02-.11.03-.16.05-.16.05-.33.09-.52.14-.05.01-.1.03-.16.04-.23.05-.47.11-.72.16-.07.01-.15.03-.22.04-.2.04-.4.08-.61.11-.09.01-.17.03-.26.04q-.405.06-.84.12c-.08.01-.17.02-.26.03-.22.03-.45.05-.69.08-.11.01-.22.02-.34.03-.3.03-.59.05-.9.07a2.1729,2.1729,0,0,1-.26.01l-.78.03c-.12,0-.24.01-.37.01-.26,0-.53.01-.8,0h-.23c-1.06.49-2.21,1-3.47,1.5-6,2.44-9.09-.66-9.09-.66l.15-.13c-1.46.02-2.63-.33-2.83-1.44a1.5808,1.5808,0,0,1-.31-.88c-.22-3.66.41-3.73.41-3.73a6.52382,6.52382,0,0,1-3.07-2.52l-.03.01a.94952.94952,0,0,1-.06-.18.59719.59719,0,0,1-.06-.11s-9.26,6.46-10.33,3.01c-.34-1.1.97-2.51,2.9-3.92l-8.85.49c2.3,2.04,3.87,3.74,3.8,4.5-.17,1.84-4.08.44-5.83-.28l8.85,10.64.95,2.4-.06-.03.01.03-2.38-1.28c-.61-.49-2.42-2.34-5.89-5.96a1.707,1.707,0,0,1-.82-.13c-3.66-1.29-1.72-.22-1.72-.22a6.72675,6.72675,0,0,1-.07,3.32l4.28,6.8a109.97253,109.97253,0,0,1-24.36,4.69l-.81,10.36,11.93-2.33,72.8-14.22,2.97-.58-13.72-14.09c-2.3.55-5.47,3.05-5.83,3.35A.68845.68845,0,0,1,667.72,359.43Z"/><path class="cls-4" d="M635.25,341.71c1-1.99,12.87-6.58,15.99-6.49C648.13,334.94,636.25,339.72,635.25,341.71Z"/><path class="cls-4" d="M670.55,334.18a7.36,7.36,0,0,1-1.61-3.42q-.195-.78-.36-1.68a48.14064,48.14064,0,0,1-.58-5.01c-.08-1.09-.13-2.21-.16-3.36-.01-.38-.02-.76-.03-1.15-.02-.77-.02-1.54-.03-2.31,0-1.15.01-2.3.03-3.42.07-3.73.25-7.14.39-9.39.01-.22.02-.45.01-.67a6.88474,6.88474,0,0,0-1.26-3.71c-.13-.18-.27-.36-.42-.53l-1.1-1.25-.08-.09c-.88,1.17-1.73,1.82-2.34,1.54-.85-.39-1.59-2.43-2.18-4.89-9.05.03-45.02-2.97-57.23-4.01.25,2.87,0,5.89-2.15,5.89a5.83291,5.83291,0,0,1-3.19-1.39c-3.69,9-14.84,23.87-24.42,35.75-.3.38-.6.75-.9,1.12a8.37658,8.37658,0,0,1,3.37.54,9.94421,9.94421,0,0,1,1.05.48,67.60932,67.60932,0,0,0,11.04,4.86c.35.11.7.22,1.04.31.69.19,1.36.36,2,.48a16.14733,16.14733,0,0,0,1.84.25,79.15014,79.15014,0,0,0,8.06-.16c-2.85-3.04-5.37-5.73-7.24-7.72-.21-.22-.4-.43-.58-.62a2.61592,2.61592,0,0,1,.49-3.95h0a2.62739,2.62739,0,0,1,3.47.51l3.14,3.77,8.67,10.42c.19.12.39.25.6.38,1.98.15,12.7,9.36,14.03,10.53l8.85-.49a37.07385,37.07385,0,0,1,3.75-2.35c.74-.42,1.48-.82,2.2-1.19,1.38-.71,3.82-2.41,3.45-2.42-2.7-.04-7.63-.48-7.22-3.2a2.93133,2.93133,0,0,1,.29-.92c1-1.99,12.88-6.77,15.99-6.49,7.94.22,15.65,1.32,15.65,1.32l4.19-1.76A4.85935,4.85935,0,0,0,670.55,334.18Z"/><path class="cls-4" d="M653.65,342.37l-.32.32A1.61355,1.61355,0,0,0,653.65,342.37Z"/><path class="cls-4" d="M642.18,345.83c.37.01-2.07,1.7-3.45,2.42-.72.37-1.46.77-2.2,1.19a41.00151,41.00151,0,0,0-3.75,2.35c-1.93,1.41-3.25,2.82-2.9,3.92,1.08,3.44,10.33-3.01,10.33-3.01.02.04.04.07.06.11a1.7248,1.7248,0,0,1-.09-.87,4.35621,4.35621,0,0,1,2.29-3.21,70.25181,70.25181,0,0,0,9.9-5.05l.96-.98c-.76.64-1.96-.63-3.49.21A38.94592,38.94592,0,0,1,642.18,345.83Z"/><path class="cls-4" d="M709.08,295.83c-4.22,2-17.85,8.34-25.7,10.56l10.63,18.74-22.93,9.64-4.19,1.76s-7.29-.58-15.65-1.32c-3.12-.09-14.99,4.5-15.99,6.49a2.78124,2.78124,0,0,0-.29.92c-.41,2.72,4.52,3.16,7.22,3.2a36.09972,36.09972,0,0,0,7-2.46c1.93-.99,3.23.11,4.16-.68l-.96.98a71.43263,71.43263,0,0,1-9.9,5.05,4.33834,4.33834,0,0,0-2.29,3.21,1.72412,1.72412,0,0,0,.09.87,1.51705,1.51705,0,0,0,.1.17,6.47714,6.47714,0,0,0,3.07,2.52s-.36.74-.14,4.4a1.30987,1.30987,0,0,0,.04.21c.2,1.11,1.36,1.46,2.83,1.44l-.15.13s3.09,3.09,9.09.66c1.25-.51,2.41-1.02,3.47-1.5h1.03c.12,0,.24,0,.37-.01l.78-.03c.09,0,.17-.01.26-.01.3-.02.6-.04.9-.07.11-.01.22-.02.34-.03.23-.02.46-.05.69-.08.09-.01.17-.02.26-.03q.435-.06.84-.12c.09-.01.18-.03.26-.04.21-.04.41-.07.61-.11.07-.01.15-.03.22-.04.25-.05.49-.1.72-.16.06-.01.11-.03.16-.04.18-.05.35-.09.52-.14.06-.02.11-.03.16-.05.19-.06.37-.12.53-.18l.06-.03c.14-.05.26-.11.37-.16.03-.02.07-.03.1-.05a1.83652,1.83652,0,0,0,.29-.18c.36-.3,3.54-2.81,5.83-3.35a218.87848,218.87848,0,0,1,28.13-4.28,63.13393,63.13393,0,0,0,19.76-4.75c4.27-1.91,6.84-4,6.93-5.58C729.6,325.63,713.44,301.92,709.08,295.83Z"/><path class="cls-4" d="M846.28,335.63l-125.3,9.57a63.13393,63.13393,0,0,1-19.76,4.75,218.59177,218.59177,0,0,0-28.13,4.28l13.72,14.09-2.97.58,2.45,2.53-74.98,15.83-.27-4.15-11.93,2.33.81-10.36c-1.7.13-3.45.21-5.22.24-15.83.26-43.85-8.82-43.85-8.82l8.46-12.36-12.85.71-12.56.7,4.77,3.95.68,1.2,3.73,6.58-6.75-3.37-3.65-3.07-5.83-4.9-12.04.67c-.34,2.89-1.83,4.19-3.56,4.7a9.27127,9.27127,0,0,1-4.05.09l-1.97.04a10.13385,10.13385,0,0,1,1.69,6.91c-.46,2.53-6.16,2.43-12.77,2.02l3.26,14.55-88.74,3.63-20.87-23.02-18.19-.89-1.31.07c-3.19.87-12.62,3.26-30.61,6.53-8.78,1.6-14.48-.24-18.02-3.83L-1.06,399.13-5.7,479.18H848.47Z"/><path class="cls-6" d="M846.28,338l-126.94,9.65a63.13393,63.13393,0,0,1-19.76,4.75,218.59169,218.59169,0,0,0-28.13,4.28l13.72,14.09-2.97.58,2.45,2.53-74.98,15.83-.27-4.15-11.93,2.33.81-10.36c-1.7.13-3.45.21-5.22.24-15.83.26-43.85-8.82-43.85-8.82l8.46-12.36-12.85.71-12.56.7,4.77,3.95.68,1.2,3.73,6.58-6.75-3.37-3.65-3.07-5.83-4.9-12.04.67c-.34,2.89-1.83,4.19-3.56,4.7a9.27142,9.27142,0,0,1-4.05.09l-1.97.04a10.1338,10.1338,0,0,1,1.69,6.91c-.46,2.53-6.16,2.43-12.77,2.02l3.26,14.55-88.74,3.63L386.15,368l-18.19-.89-1.31.07c-3.19.87-12.62,3.26-30.61,6.53-8.78,1.6-14.48-.24-18.02-3.83L-1.06,401.52-5.7,479.18H848.47Z"/></g><g class="cls-2"><path class="cls-1" d="M666.17,315.21c0-1.15.01-2.3.03-3.42Q666.17,313.47,666.17,315.21Z"/><path class="cls-1" d="M665.28,334.5s-7.71-1.1-15.65-1.32C657.99,333.92,665.28,334.5,665.28,334.5Z"/><path class="cls-1" d="M367.44,364.34l1.31-.07-.88-.04C367.74,364.26,367.59,364.3,367.44,364.34Z"/><path class="cls-4" d="M459.45,368.73l-72.51-3.56,20.87,23.02,88.74-3.63-3.26-14.55c-3.81-.24-7.93-.58-11.51-.58C471.99,369.42,459.45,368.73,459.45,368.73Z"/><polygon class="cls-6" points="610.45 386.88 685.43 371.05 682.98 368.52 610.18 382.74 610.45 386.88"/><path class="cls-1" d="M663.82,296.24l1.1,1.25a5.42849,5.42849,0,0,1,.42.53,6.698,6.698,0,0,1,1.26,3.71c.01.22,0,.45-.01.67-.14,2.25-.32,5.66-.39,9.39-.02,1.12-.03,2.27-.03,3.42q0,1.155.03,2.31c.01.38.02.77.03,1.15.04,1.14.09,2.27.16,3.36a48.14432,48.14432,0,0,0,.58,5.01q.165.9.36,1.68a7.4114,7.4114,0,0,0,1.61,3.42,7.34758,7.34758,0,0,1,.53.6l22.93-9.64-10.63-18.74c-2.34.66-4.18.96-5.09.66-4.52-1.51-8.83-15.5-8.83-15.5l-.84.08a25.91964,25.91964,0,0,1-3.21,6.46Z"/><path class="cls-9" d="M336.83,370.87c17.98-3.27,27.42-5.66,30.61-6.53.15-.04.3-.08.42-.12l-4.94-.24c-4.71-2.9,2.54-34.79,2.54-34.79a.93937.93937,0,0,1,.12.01c.09.01.22.02.41.04.18.02.39.04.65.06.16.01.34.03.54.05h.01c.42.04.91.08,1.47.14.05.01.11.01.16.02.88.08,1.91.18,3.07.29h.04c8.45.79,23.94,2.3,38.94,4.01h0c.71.08,1.41.16,2.12.24h.02c.53-6.01.96-13.18-.2-19.88-1.93-11.19-10.97-56.6-8.08-70.75-.01,0-.01-.01-.02-.01-.67-.32-1.33-.65-1.99-.98-.2-.1-.39-.19-.59-.29-.57-.28-1.14-.57-1.7-.86-.11-.06-.23-.11-.34-.17-.66-.34-1.31-.67-1.96-1.01-.18-.09-.35-.18-.53-.28-.53-.28-1.07-.56-1.59-.85-.14-.08-.28-.15-.42-.23-.63-.34-1.26-.69-1.88-1.03-.15-.09-.31-.17-.46-.26-.51-.28-1.01-.57-1.51-.86-.15-.09-.3-.17-.46-.26-.61-.35-1.2-.7-1.79-1.06-.12-.07-.23-.14-.35-.21-.49-.3-.98-.59-1.45-.89-.15-.09-.31-.19-.46-.28q-.855-.54-1.68-1.08c-.07-.05-.14-.09-.21-.14-.48-.32-.96-.64-1.42-.96-.14-.1-.29-.2-.43-.3-.52-.36-1.02-.72-1.52-1.07-.01-.01-.02-.02-.03-.02-.5-.36-.98-.73-1.45-1.09-.13-.1-.26-.2-.38-.3q-.615-.48-1.2-.96c-.06-.05-.13-.1-.19-.15-.44-.36-.86-.73-1.26-1.09-.11-.09-.21-.19-.31-.28-.34-.3-.66-.61-.98-.91-.08-.07-.15-.15-.23-.22-.37-.36-.72-.72-1.06-1.09-.08-.09-.15-.17-.23-.26q-.405-.45-.78-.9c-.07-.09-.15-.17-.22-.26-.29-.36-.57-.72-.83-1.08-.05-.07-.1-.14-.14-.21-.21-.3-.41-.6-.59-.91-.06-.09-.11-.19-.17-.28q-.315-.54-.57-1.08c-.02-.05-.04-.09-.06-.14-.15-.32-.27-.63-.39-.95-.03-.1-.07-.19-.1-.29a10.69175,10.69175,0,0,1-.3-1.07c-1.41-6.72-6.52-12.2-11.08-17.71-.68,4.71-2.99,10.82-8.82,18.11-14.49,18.12-21.02,34.42-18.12,43.85s3.26,14.49-4.35,24.64-9.78,42.4-13.05,55.44c-2.06,8.25-2.38,19.69,3.72,25.88C322.35,370.63,328.05,372.46,336.83,370.87Z"/><path class="cls-6" d="M418.2,334.65c.02,0,.04.01.07.01,1.69.2,3.35.41,4.97.61.04.01.09.01.13.02.81.1,1.61.2,2.4.31.02,0,.04.01.06.01.75.1,1.49.2,2.22.29l.21.03c.74.1,1.46.2,2.18.3.07.01.14.02.22.03.65.09,1.3.18,1.93.27l.24.03c.66.1,1.31.19,1.95.29.11.02.22.03.33.05.57.09,1.13.17,1.68.26a2.00057,2.00057,0,0,1,.24.04c.6.09,1.17.19,1.74.28.11.02.22.04.32.05.51.08,1.01.17,1.49.25.06.01.13.02.19.03.51.09,1.01.18,1.49.27.11.02.23.04.34.06.44.08.87.16,1.28.25a.50142.50142,0,0,0,.12.02c.43.09.84.17,1.23.26.1.02.19.04.29.06.39.09.76.17,1.11.26,16.31,3.99,18.84-3.26,18.84-3.26,10.15-11.96,21.02-11.96,21.02-11.96s.73.08,2,.26l-25.22-21.21a2.08381,2.08381,0,0,1,2.67-3.2l31.28,25.9c.51.1,1.04.21,1.57.33h0c-1.21-16.44-3-44.92-2.09-59.1.84-13.11-12.31-35.24-22.03-49.65-1.46-.26-3.32-.57-5.43-.96-.1-.02-.19-.03-.29-.05-.45-.08-.92-.17-1.39-.27-.14-.03-.27-.05-.41-.08-.46-.09-.93-.19-1.4-.29-.16-.03-.32-.06-.48-.1-.46-.1-.93-.2-1.4-.31-.19-.04-.37-.08-.57-.13q-.99-.225-2.01-.48c-.83,5.01-4.69,12.52-19.37,16.64,3.22,7.68,8.59,16.47,16.93,26.67,0,0-8,5.34-31.13-4.15-.82-.34-1.65-.68-2.49-1.03-.26-.11-.53-.22-.79-.33-.6-.25-1.2-.5-1.81-.76-.29-.12-.59-.25-.88-.37-.62-.26-1.24-.53-1.86-.79-.27-.11-.53-.23-.8-.34-1.76-.76-3.55-1.54-5.34-2.35-.26-.12-.52-.24-.78-.35-.64-.29-1.28-.58-1.93-.87-.3-.14-.6-.28-.9-.41-.64-.3-1.28-.6-1.93-.9-.26-.12-.53-.25-.79-.37-.9-.42-1.8-.85-2.69-1.28-2.89,14.15,6.15,59.56,8.08,70.75,1.15,6.7.73,13.87.2,19.88h.02C414.76,334.25,416.49,334.45,418.2,334.65Z"/><path class="cls-9" d="M474.86,217.12a1.41612,1.41612,0,0,1-.2-.04c9.71,14.41,22.86,36.55,22.03,49.65-.91,14.18.88,42.66,2.09,59.1h0c.82.18,1.67.37,2.52.57.1.02.2.05.31.07.82.19,1.65.4,2.48.62l.45.12c.83.22,1.67.45,2.5.69l.39.12c.87.26,1.75.53,2.61.82,8.36,2.79,15.19,7.81,18.48,9.06,7.61,2.9,6.52,7.97,3.26,10.15-1.75,1.17-5.27.35-8.16-.66l9.41,7.79,12.56-.7c-2.41-11.69-7.66-38.03-7.66-45.57,0-9.78,7.97-63.05.36-76.46-7.25-12.77.96-21.93-45.87-40.31C490.32,197.75,482.04,218.4,474.86,217.12Z"/><path class="cls-9" d="M514.03,354.92c0,.47-.03.9-.07,1.31l12.04-.67-4.44-3.73C520.17,354.75,514.03,354.92,514.03,354.92Z"/><path class="cls-10" d="M461.29,214.43c-7.66-1.92-16.31-5.03-22.31-10.41-1.85,7.3-1.67,16.04,2.94,27.06C456.6,226.95,460.46,219.43,461.29,214.43Z"/><path class="cls-10" d="M490.87,124.32c-.59,1.76-28.78,37.86-39.43,56.03-1.61,2.75-3.58,5.58-5.51,8.63q-1.155,1.83-2.27,3.76A45.45977,45.45977,0,0,0,438.97,204c6,5.39,14.66,8.5,22.31,10.41q1.02.255,2.01.48c.19.04.38.08.57.13.47.11.94.21,1.4.31.16.04.32.07.48.1.47.1.94.2,1.4.29.14.03.27.05.41.08.47.09.94.18,1.39.27.1.02.19.03.29.05,2.21.41,4.14.72,5.63.99,7.18,1.28,15.46-19.37,17.57-24.98.33-.88.51-1.4.51-1.4s1.78,0,7.12-.3,3.85-3.26,0-10.67,5.63-34.09,5.63-46.25a29.64306,29.64306,0,0,0-4.01-14.75C499.4,122.31,490.87,124.32,490.87,124.32Z"/><path class="cls-11" d="M370.8,217.89c.03.09.07.19.1.29a9.4956,9.4956,0,0,0,.39.95c.02.05.04.09.06.14q.255.54.57,1.08c.05.09.11.19.17.28.18.3.38.6.59.91.05.07.09.14.14.21.26.36.53.72.83,1.08.07.09.14.17.22.26q.375.45.78.9c.08.09.15.17.23.26.34.36.69.72,1.06,1.09.07.07.15.15.23.22.31.3.64.61.98.91.1.09.21.19.31.28.41.36.83.73,1.26,1.09.06.05.12.1.19.15q.585.48,1.2.96c.13.1.25.2.38.3.47.36.96.73,1.45,1.09.01.01.02.02.03.02.49.36,1,.72,1.52,1.07.14.1.29.2.43.3.47.32.94.64,1.42.96.07.05.14.09.21.14q.825.54,1.68,1.08c.15.1.3.19.46.28.48.3.96.6,1.45.89.12.07.23.14.35.21.59.35,1.19.71,1.79,1.06.15.09.3.17.46.26.5.29,1,.57,1.51.86.15.09.31.17.46.26.62.35,1.25.69,1.88,1.03.14.08.28.15.42.23.53.28,1.06.57,1.59.85.18.09.35.18.53.28.65.34,1.3.68,1.96,1.01.11.06.23.11.34.17.57.29,1.13.57,1.7.86.2.1.39.2.59.29.66.33,1.32.65,1.99.98.01,0,.01.01.02.01.89.43,1.79.86,2.69,1.28.26.12.53.25.79.37.64.3,1.28.6,1.93.9.3.14.6.28.9.41.64.29,1.28.59,1.93.87.26.12.52.24.78.35q2.685,1.2,5.34,2.35c.27.12.53.23.8.34.62.27,1.24.53,1.86.79.3.13.59.25.88.37.61.26,1.21.51,1.81.76.26.11.53.22.79.33.84.35,1.67.69,2.49,1.03,23.13,9.49,31.13,4.15,31.13,4.15-8.35-10.2-13.72-18.99-16.93-26.67-4.62-11.02-4.79-19.75-2.94-27.06a45.84217,45.84217,0,0,1,4.69-11.26c.73-1.3,1.5-2.55,2.27-3.76,1.93-3.05,3.9-5.88,5.51-8.63,10.65-18.18,38.85-54.28,39.43-56.03,0,0,8.53-2.01,10.81-5.56a3.48581,3.48581,0,0,0,.45-.96c2.22-7.78-17.79-29.94-37.36-41.51-19.57-11.56-34.98-5.93-39.43-5.34-57.62,7.68-74.12,99.91-73.82,112.36.14,5.89,3.8,10.85,7.89,15.79,4.56,5.51,9.68,10.99,11.08,17.71A10.68312,10.68312,0,0,0,370.8,217.89Z"/><path class="cls-12" d="M664.44,189.04l-1.4-6.87c-4.51-6.62-17.11-12.37-18.17-12.52-3.37-.48,10.44,10.62,10.44,10.62s-4.66-.93-13.98-4.85c-9.32-3.91-7.64-3.17-7.64-3.17-8.95,5.03-13.05.56-13.05.56a15.73058,15.73058,0,0,1-6.15,7.64c-4.66,2.98-6.15-5.78-6.34-2.42-.19,3.35-4.85,5.96-6.34,5.22-1.49-.75-2.8-2.98-2.8-.75,0,2.06-4.32,12.54-5.53,13.7-.11.1-.19.14-.24.09-.27-.26-.53-.49-.79-.71-1.17-2.42-2.95-5.13-5.17-5.44,0,0-1.61-1.03-1.67,3.12a31.71019,31.71019,0,0,0,.36,4.71c1.3,9.51,4.1,16.03,7.83,16.59,3.19.48,5.29,15.94,12.82,23.67a15.01178,15.01178,0,0,0,4.33,3.17c11.18,5.22,19.76,8.76,32.8-1.12.16-.12.31-.24.47-.37,12.54-9.68,11.83-16.61,11.83-17.71,0-1.12.93-10.25.93-10.25s.75,3.91,3.91.37C664.07,208.8,670.03,189.79,664.44,189.04Z"/><path class="cls-12" d="M601.63,258.16l1.28-13.58c-3.32-.45-4.62-.62-4.62-.62s-.13,0-.36-.01a120.77542,120.77542,0,0,1,3.07,14.23C601.21,258.17,601.42,258.17,601.63,258.16Z"/><path class="cls-4" d="M657.53,282.62c-2.32-2.7-7.27-17.42-10.56-27.75-.34.33-13.47,12.91-45.34,3.29-.21.01-.42.01-.63.02,1.66,10.36,2.74,22.56,1.43,27.67,0,0-.3.06-.81.15.15.82.29,1.79.37,2.78,12.21,1.04,48.18,4.04,57.23,4.01A95.05461,95.05461,0,0,1,657.53,282.62Z"/><path class="cls-12" d="M644.16,245.87c-.31.06-.61.11-.91.17l3.64,8.61C645.67,250.79,644.69,247.58,644.16,245.87Z"/><path class="cls-12" d="M650.13,253.82c-.02-.07-.05-.15-.07-.22l-3.64-8.61-2.14-5.06c-.16.12-.31.24-.47.37-13.05,9.88-21.62,6.34-32.8,1.12a14.829,14.829,0,0,1-4.33-3.17l-.61,5.28-1.55,13.5C636.58,266.8,649.78,254.15,650.13,253.82Z"/><path class="cls-4" d="M646.9,254.65c.02.07.05.15.07.22l.02-.02Z"/><path class="cls-5" d="M589.98,285.96c-.43-.6-.68-.97-.68-.97A1.50535,1.50535,0,0,0,589.98,285.96Z"/><path class="cls-11" d="M601.14,283.7s.24.96.48,2.31c.51-.09.81-.15.81-.15,2.05-8.01-1.75-33.44-4.5-41.9-.43-1.31-.76-2.22-.93-2.57-1.29-2.58-15.23-.09-16.53,1.85a1.39284,1.39284,0,0,0-.11.66c-.13,5.29,8.33,37.85,8.94,41.1Z"/><path class="cls-11" d="M601.99,288.78c-.08-.99-.23-1.96-.37-2.78-.24-1.35-.48-2.31-.48-2.31l-11.84,1.29s.25.38.68.97a36.97547,36.97547,0,0,0,6.67,7.33,5.833,5.833,0,0,0,3.19,1.39C601.99,294.67,602.24,291.66,601.99,288.78Z"/><path class="cls-11" d="M661.41,297.69c.61.28,1.45-.37,2.34-1.54a.86428.86428,0,0,0,.07-.1,25.92169,25.92169,0,0,0,3.21-6.46,19.51725,19.51725,0,0,0,1.13-5.06.799.799,0,0,1-.3.46c-2.37,1.29-9.04-.86-10.33-2.37a95.04528,95.04528,0,0,0,1.69,10.17C659.82,295.26,660.56,297.3,661.41,297.69Z"/><path class="cls-11" d="M663.67,244.78c-.4-.95-.8-1.5-1.19-1.55-3.44-.43-18.73,1.29-18.73,1.29s.15.49.41,1.35c.52,1.71,1.51,4.93,2.74,8.78l.09.2-.02.02c3.29,10.33,8.25,25.05,10.56,27.75,1.29,1.51,7.96,3.66,10.33,2.37a.81149.81149,0,0,0,.3-.46C669.62,280.45,666.64,251.81,663.67,244.78Z"/><path class="cls-4" d="M670.27,283.48a19.93829,19.93829,0,0,1-1.13,5.06l.84-.08s4.31,13.99,8.83,15.5c.9.3,2.74,0,5.09-.66,7.85-2.22,21.47-8.56,25.7-10.56.82-.39,1.29-.62,1.29-.62s-12.27-38.32-32.29-45.63a49.97046,49.97046,0,0,0-12.8-2.75C668.75,250.75,671.72,279.39,670.27,283.48Z"/><path class="cls-4" d="M558.3,295.1c2.79-2.21,13.35,4.95,13.35,4.95l-1.08,30.14.76-.03c.3-.37.6-.74.9-1.12,9.58-11.88,20.74-26.75,24.42-35.75a36.66828,36.66828,0,0,1-6.67-7.33,1.50543,1.50543,0,0,1-.68-.97c-.61-3.25-9.07-35.81-8.94-41.1-6.32.4-13.18,1.29-17.32,3.22-5.06,2.36-8.86,10.94-13.99,20.45-4.25,7.87-6.67,16.57-9.69,25.4a63.70248,63.70248,0,0,0,9.51,2.12C552.97,295.73,557.1,296.06,558.3,295.1Z"/><path class="cls-1" d="M667.33,328.71q-.195-.78-.36-1.68Q667.135,327.93,667.33,328.71Z"/><path class="cls-1" d="M666.2,317.51c-.02-.77-.02-1.54-.03-2.31Q666.17,316.37,666.2,317.51Z"/><path class="cls-1" d="M666.39,322.02c-.08-1.09-.13-2.21-.16-3.36C666.26,319.81,666.32,320.93,666.39,322.02Z"/><path class="cls-1" d="M665.34,298.02a6.698,6.698,0,0,1,1.26,3.71A6.83033,6.83033,0,0,0,665.34,298.02Z"/><path class="cls-13" d="M463.93,299.11a2.0927,2.0927,0,0,0,.55,2.48L489.7,322.8c1.91.27,5.05.75,8.73,1.49l-31.28-25.9A2.08406,2.08406,0,0,0,463.93,299.11Z"/><path class="cls-13" d="M520.32,344.28c2.69,2.92,3.11,4.93,2.45,6.33l4.44,3.73,5.83,4.9,3.65,3.07,6.75,3.37-3.73-6.58-.68-1.2-4.77-3.95-9.41-7.79A43.3884,43.3884,0,0,1,520.32,344.28Z"/><path class="cls-10" d="M521.55,353.41c.66-1.39.24-3.41-2.45-6.33a43.76521,43.76521,0,0,0,4.52,1.88c2.89,1.01,6.41,1.82,8.16.66,3.26-2.17,4.35-7.25-3.26-10.15-3.29-1.25-10.12-6.27-18.48-9.06-.86-.29-1.73-.56-2.61-.82l-.39-.12c-.83-.24-1.67-.47-2.5-.69l-.45-.12c-.83-.22-1.67-.42-2.48-.62-.1-.02-.2-.05-.31-.07q-1.29-.3-2.52-.57h0c-.53-.11-1.06-.22-1.57-.33-3.67-.74-6.81-1.22-8.73-1.49-1.26-.18-2-.26-2-.26s-10.87,0-21.02,11.96c0,0-2.54,7.25-18.84,3.26-.35-.08-.72-.17-1.11-.26-.09-.02-.19-.04-.29-.06-.39-.09-.8-.17-1.23-.26a.50142.50142,0,0,0-.12-.02c-.41-.08-.84-.16-1.28-.25-.11-.02-.22-.04-.34-.06-.48-.09-.97-.18-1.49-.27-.06-.01-.13-.02-.19-.03-.48-.08-.98-.17-1.49-.25-.11-.02-.21-.04-.32-.05-.56-.09-1.14-.18-1.74-.28a1.9999,1.9999,0,0,1-.24-.04c-.55-.09-1.11-.17-1.68-.26-.11-.02-.22-.03-.33-.05-.64-.09-1.29-.19-1.95-.29l-.24-.03c-.63-.09-1.28-.18-1.93-.27-.07-.01-.14-.02-.22-.03-.72-.1-1.44-.2-2.18-.3l-.21-.03c-.73-.1-1.47-.2-2.22-.29-.02,0-.04-.01-.06-.01-.79-.1-1.59-.2-2.4-.31-.04-.01-.09-.01-.13-.02-1.63-.21-3.29-.41-4.97-.61-.02,0-.04-.01-.07-.01-1.71-.21-3.44-.41-5.18-.61h-.04c-.7-.08-1.41-.16-2.12-.24h0c-15-1.71-30.49-3.21-38.94-4.01h-.04c-1.17-.11-2.2-.21-3.07-.29-.06-.01-.11-.01-.16-.02-.56-.05-1.05-.1-1.47-.14h-.01c-.2-.02-.37-.03-.54-.05-.26-.02-.48-.04-.65-.06-.18-.02-.32-.03-.41-.04a.93937.93937,0,0,0-.12-.01s-7.25,31.89-2.54,34.79l4.94.24.88.04,18.19.89,72.51,3.56s12.54.69,22.32.69c3.58,0,7.7.34,11.51.58,6.61.41,12.31.5,12.77-2.02a10.1178,10.1178,0,0,0-1.69-6.91c-.28-.44-.48-.7-.48-.7a13.62381,13.62381,0,0,0,2.45.65,9.2669,9.2669,0,0,0,4.05-.09c1.73-.5,3.22-1.81,3.56-4.7a10.68618,10.68618,0,0,0,.07-1.31C514.03,356.5,520.17,356.33,521.55,353.41Z"/><path class="cls-4" d="M593.84,374.95c1.77-.03,3.52-.12,5.22-.24a109.9727,109.9727,0,0,0,24.36-4.69l-4.28-6.8a1.208,1.208,0,0,1-1,.77c-1.94.22.65,2.15-4.31,2.58a76.28314,76.28314,0,0,1-15-1.06c-4.62-.77-8.7-1.92-9.75-3.46-1.49-2.17-13.56-5.96-23.48-8.68-2.07-.57-4.06-1.09-5.82-1.55l-1.33,1.94-8.46,12.36C549.99,366.12,578.02,375.21,593.84,374.95Z"/><path class="cls-13" d="M627.66,366.2l2.37,1.25-.9-2.37-8.85-10.64c-.51-.21-.84-.36-.84-.36s4.17,5.91,2.33,6.15C625.23,363.86,627.05,365.71,627.66,366.2Z"/><path class="cls-13" d="M595.87,325.12a2.6274,2.6274,0,0,0-3.47-.51h0a2.61589,2.61589,0,0,0-.49,3.95c.18.19.37.4.58.62,1.86,1.99,4.39,4.68,7.24,7.72a11.80578,11.80578,0,0,1,6.36,1.45c.44.24.98.56,1.59.94l-8.67-10.42Z"/><path class="cls-4" d="M666.11,357.38a.93351.93351,0,0,1-.1.05c-.11.05-.23.11-.37.16l-.06.03c-.16.06-.34.12-.53.18-.05.02-.11.03-.16.05-.16.05-.33.09-.52.14-.05.01-.1.03-.16.04-.23.05-.47.11-.72.16-.07.01-.15.03-.22.04-.2.04-.4.08-.61.11-.09.01-.17.03-.26.04q-.405.06-.84.12c-.08.01-.17.02-.26.03-.22.03-.45.05-.69.08-.11.01-.22.02-.34.03-.3.03-.59.05-.9.07a2.173,2.173,0,0,1-.26.01l-.78.03c-.12,0-.24.01-.37.01-.26,0-.53.01-.8,0h-.23c-1.06.49-2.21,1-3.47,1.5-6,2.44-9.09-.66-9.09-.66l.15-.13c-1.46.02-2.63-.33-2.83-1.44a1.58077,1.58077,0,0,1-.31-.88c-.22-3.66.41-3.73.41-3.73a6.52383,6.52383,0,0,1-3.07-2.52l-.03.01a.94965.94965,0,0,1-.06-.18.59751.59751,0,0,1-.06-.11s-9.26,6.46-10.33,3.01c-.34-1.1.97-2.51,2.9-3.92l-8.85.49c2.3,2.04,3.87,3.74,3.8,4.5-.17,1.84-4.08.44-5.83-.28l8.85,10.64.95,2.4-.06-.03.01.03-2.38-1.28c-.61-.49-2.42-2.34-5.89-5.96a1.70688,1.70688,0,0,1-.82-.13c-3.66-1.29-1.72-.22-1.72-.22a6.72675,6.72675,0,0,1-.07,3.32l4.28,6.8a109.9727,109.9727,0,0,1-24.36,4.69l-.81,10.36,11.93-2.33,72.8-14.22,2.97-.58-13.72-14.09c-2.3.55-5.47,3.05-5.83,3.35A.68873.68873,0,0,1,666.11,357.38Z"/><path class="cls-5" d="M633.64,339.66c1-1.99,12.87-6.58,15.99-6.49C646.52,332.9,634.64,337.67,633.64,339.66Z"/><path class="cls-11" d="M668.94,332.13a7.35989,7.35989,0,0,1-1.61-3.42q-.195-.78-.36-1.68a48.14336,48.14336,0,0,1-.58-5.01c-.08-1.09-.13-2.21-.16-3.36-.01-.38-.02-.76-.03-1.15-.02-.77-.02-1.54-.03-2.31,0-1.15.01-2.3.03-3.42.07-3.73.25-7.14.39-9.39.01-.22.02-.45.01-.67a6.88474,6.88474,0,0,0-1.26-3.71c-.13-.18-.27-.36-.42-.53l-1.1-1.25-.08-.09c-.88,1.17-1.73,1.82-2.34,1.54-.85-.39-1.59-2.43-2.18-4.89-9.05.03-45.02-2.97-57.23-4.01.25,2.87,0,5.89-2.15,5.89a5.833,5.833,0,0,1-3.19-1.39c-3.69,9-14.84,23.87-24.42,35.75-.3.38-.6.75-.9,1.12a8.37656,8.37656,0,0,1,3.37.54,9.94531,9.94531,0,0,1,1.05.48,67.60906,67.60906,0,0,0,11.04,4.86c.35.11.7.22,1.04.31.69.19,1.36.36,2,.48a16.14717,16.14717,0,0,0,1.84.25,79.15014,79.15014,0,0,0,8.06-.16c-2.85-3.04-5.37-5.73-7.24-7.72-.21-.22-.4-.43-.58-.62a2.61593,2.61593,0,0,1,.49-3.95h0a2.62738,2.62738,0,0,1,3.47.51l3.14,3.77,8.67,10.42c.19.12.39.25.6.38,1.98.15,12.7,9.36,14.03,10.53l8.85-.49a37.07434,37.07434,0,0,1,3.75-2.35c.74-.42,1.48-.82,2.2-1.19,1.38-.71,3.82-2.41,3.45-2.42-2.7-.04-7.63-.48-7.22-3.2a2.9311,2.9311,0,0,1,.29-.92c1-1.99,12.88-6.77,15.99-6.49,7.94.22,15.65,1.32,15.65,1.32l4.19-1.76A4.74344,4.74344,0,0,0,668.94,332.13Z"/><path class="cls-14" d="M652.04,340.32l-.32.32A1.6128,1.6128,0,0,0,652.04,340.32Z"/><path class="cls-4" d="M640.57,343.78c.37.01-2.07,1.7-3.45,2.42-.72.37-1.46.77-2.2,1.19a41.00209,41.00209,0,0,0-3.75,2.35c-1.93,1.41-3.25,2.82-2.9,3.92,1.08,3.44,10.33-3.01,10.33-3.01.02.04.04.07.06.11a1.72494,1.72494,0,0,1-.09-.87,4.3562,4.3562,0,0,1,2.29-3.21,70.25155,70.25155,0,0,0,9.9-5.05l.96-.98c-.76.64-1.96-.63-3.49.21A38.94956,38.94956,0,0,1,640.57,343.78Z"/><path class="cls-12" d="M709.05,294.31c-4.22,2-17.85,8.34-25.7,10.56l10.63,18.74-22.93,9.64-4.19,1.76s-7.29-.58-15.65-1.32c-3.12-.09-14.99,4.5-15.99,6.49a2.78124,2.78124,0,0,0-.29.92c-.41,2.72,4.52,3.16,7.22,3.2a36.09972,36.09972,0,0,0,7-2.46c1.93-.99,3.23.11,4.16-.68l-.96.98a71.432,71.432,0,0,1-9.9,5.05,4.33837,4.33837,0,0,0-2.29,3.21,1.72417,1.72417,0,0,0,.09.87,1.51784,1.51784,0,0,0,.1.17,6.47714,6.47714,0,0,0,3.07,2.52s-.36.74-.14,4.4a1.30875,1.30875,0,0,0,.04.21c.2,1.11,1.36,1.46,2.83,1.44l-.15.13s3.09,3.09,9.09.66c1.25-.51,2.41-1.02,3.47-1.5h1.03c.12,0,.24,0,.37-.01l.78-.03c.09,0,.17-.01.26-.01.3-.02.6-.04.9-.07.11-.01.22-.02.34-.03.23-.02.46-.05.69-.08.09-.01.17-.02.26-.03q.435-.06.84-.12c.09-.01.18-.03.26-.04.21-.04.41-.07.61-.11.07-.01.15-.03.22-.04.25-.05.49-.1.72-.16.06-.01.11-.03.16-.04.18-.05.35-.09.52-.14.06-.02.11-.03.16-.05.19-.06.37-.12.53-.18l.06-.03c.14-.05.26-.11.37-.16.03-.02.07-.03.1-.05a1.83652,1.83652,0,0,0,.29-.18c.36-.3,3.54-2.81,5.83-3.35a218.87877,218.87877,0,0,1,28.13-4.28,63.13366,63.13366,0,0,0,19.76-4.75c4.27-1.91,6.84-4,6.93-5.58C729.57,324.1,713.41,300.4,709.05,294.31Z"/><path class="cls-12" d="M590.13,362.05c1.06,1.54,5.13,2.69,9.75,3.46a75.50658,75.50658,0,0,0,15,1.06c4.95-.43,2.37-2.37,4.31-2.58a1.22542,1.22542,0,0,0,1-.77,6.60258,6.60258,0,0,0,.07-3.32s-1.94-1.08,1.72.22a1.84089,1.84089,0,0,0,.82.13c1.84-.24-2.33-6.15-2.33-6.15s.34.16.84.36c1.75.72,5.66,2.12,5.83.28.07-.76-1.49-2.46-3.8-4.5-1.32-1.17-12.05-10.38-14.03-10.53-.21-.13-.41-.26-.6-.38-.61-.38-1.15-.7-1.59-.94a11.82547,11.82547,0,0,0-6.36-1.45,76.33715,76.33715,0,0,1-8.06.16,14.41088,14.41088,0,0,1-1.84-.25c-.64-.12-1.31-.29-2-.48-.34-.1-.69-.2-1.04-.31a67.61164,67.61164,0,0,1-11.04-4.86,9.95489,9.95489,0,0,0-1.05-.48,8.4043,8.4043,0,0,0-3.37-.54l-.76.03,1.08-30.14s-10.56-7.16-13.35-4.95c-1.2.95-5.33.62-9.44-.03-.98,10.48-3.52,36.94-4.55,41.58-1.29,5.81,3.87,12.7,8.61,13.56,1.13.21,3.65.79,6.86,1.61,1.77.45,3.75.98,5.82,1.55C576.58,356.09,588.64,359.88,590.13,362.05Z"/></g><g class="cls-2"><path class="cls-14" d="M596.2,324.66s2.28,3.14-3.69,3.69"/><path class="cls-5" d="M539.02,359.34s-1.26,4.34-2.34,4.41"/><path class="cls-5" d="M629.42,231.14s-7.43,2.94-11.58,2.42c0,0,5.7,9.33,8.98-.52"/><path class="cls-5" d="M625.8,215.6s2.42,5.18-4.66,4.15"/><circle class="cls-7" cx="611.10999" cy="208.33999" r="1.72999"/><circle class="cls-7" cx="641.16998" cy="209.55" r="1.72999"/><circle class="cls-7" cx="485.17001" cy="174.72999" r="1.73"/><path class="cls-5" d="M481.66,198.01A15.04727,15.04727,0,0,1,471.53,197"/><path class="cls-5" d="M366.68,329.42l-6.74-2.01s18.96-18.96,20.01-54.77"/><path class="cls-5" d="M513.37,328.81s0-62.15-4.92-75.49"/><path class="cls-5" d="M610.66,297.32l-3.49,17.46a12.35436,12.35436,0,0,0,11.74,14.77l22.88.71a12.36274,12.36274,0,0,0,12.64-10.76L657,299.66Z"/><circle class="cls-7" cx="602.03998" cy="294.55999" r="3.92999"/><ellipse class="cls-7" cx="662.51001" cy="297.32" rx="3.17999" ry="3.51001"/><path class="cls-1" d="M372.51,219.35c-.15-.32-.27-.63-.39-.95C372.24,218.71,372.36,219.03,372.51,219.35Z"/><path class="cls-1" d="M372.02,218.11a10.69175,10.69175,0,0,1-.3-1.07A10.69175,10.69175,0,0,0,372.02,218.11Z"/><path class="cls-1" d="M373.14,220.56q-.315-.54-.57-1.08Q372.825,220.02,373.14,220.56Z"/><path class="cls-1" d="M414.18,247.47c.26.12.52.24.78.35C414.7,247.71,414.44,247.59,414.18,247.47Z"/><path class="cls-1" d="M411.35,246.19c.3.14.6.28.9.41C411.95,246.46,411.65,246.32,411.35,246.19Z"/><path class="cls-1" d="M408.63,244.92c.26.12.52.25.79.37C409.16,245.17,408.9,245.04,408.63,244.92Z"/><path class="cls-1" d="M379.94,228.04c-.44-.36-.86-.73-1.26-1.09C379.08,227.31,379.5,227.67,379.94,228.04Z"/><path class="cls-1" d="M373.9,221.74c-.21-.3-.41-.6-.59-.91C373.5,221.14,373.69,221.44,373.9,221.74Z"/><path class="cls-1" d="M381.33,229.15q-.615-.48-1.2-.96C380.51,228.51,380.92,228.83,381.33,229.15Z"/><path class="cls-1" d="M374.87,223.04c-.29-.36-.57-.72-.83-1.08C374.3,222.31,374.58,222.67,374.87,223.04Z"/><path class="cls-1" d="M375.87,224.19q-.405-.45-.78-.9Q375.465,223.74,375.87,224.19Z"/><path class="cls-1" d="M377.16,225.53c-.37-.36-.72-.72-1.06-1.09C376.44,224.81,376.79,225.17,377.16,225.53Z"/><path class="cls-1" d="M476.08,217.34c-1.49-.27-3.42-.58-5.63-.99,2.11.39,3.97.7,5.43.96C475.95,217.32,476.02,217.33,476.08,217.34Z"/><path class="cls-1" d="M468.78,216.03c.47.09.94.18,1.39.27C469.72,216.21,469.25,216.12,468.78,216.03Z"/><path class="cls-1" d="M502.52,326.62c.1.02.2.05.31.07C502.73,326.67,502.63,326.65,502.52,326.62Z"/><path class="cls-1" d="M420.3,250.17c.27.12.53.23.8.34C420.83,250.4,420.57,250.29,420.3,250.17Z"/><path class="cls-1" d="M505.31,327.31l.45.12Z"/><path class="cls-1" d="M466.97,215.66c.47.1.94.2,1.4.29C467.92,215.86,467.44,215.76,466.97,215.66Z"/><path class="cls-1" d="M465.09,215.26c.47.11.94.21,1.4.31C466.03,215.47,465.56,215.36,465.09,215.26Z"/><path class="cls-1" d="M422.96,251.31c.3.13.59.25.88.37C423.55,251.56,423.26,251.44,422.96,251.31Z"/><path class="cls-1" d="M425.66,252.44c.27.11.53.22.79.33C426.19,252.67,425.92,252.55,425.66,252.44Z"/><path class="cls-1" d="M462.51,214.65q1.02.255,2.01.48Q463.53,214.905,462.51,214.65Z"/><path class="cls-1" d="M369.87,329.71c.05.01.11.01.16.02A.99918.99918,0,0,0,369.87,329.71Z"/><path class="cls-1" d="M405.93,243.63c-.67-.32-1.33-.65-1.99-.98C404.6,242.98,405.26,243.3,405.93,243.63Z"/><path class="cls-1" d="M367.2,329.46c.18.02.39.04.65.06C367.59,329.5,367.38,329.48,367.2,329.46Z"/><path class="cls-1" d="M508.26,328.12l.39.12C508.52,328.2,508.4,328.16,508.26,328.12Z"/><path class="cls-1" d="M667.39,315.43c0-1.15.01-2.3.03-3.42Q667.39,313.69,667.39,315.43Z"/><path class="cls-1" d="M666.5,334.72s-7.71-1.1-15.65-1.32C659.21,334.14,666.5,334.72,666.5,334.72Z"/><polygon class="cls-1" points="631.26 367.71 631.25 367.68 628.88 366.42 631.26 367.71"/><path class="cls-1" d="M366.68,329.42a.93937.93937,0,0,1,.12.01A1.08855,1.08855,0,0,0,366.68,329.42Z"/><path class="cls-1" d="M383.16,230.54c-.5-.36-.98-.73-1.45-1.09C382.18,229.81,382.66,230.18,383.16,230.54Z"/><path class="cls-1" d="M667.82,301.95c.01.22,0,.45-.01.67-.14,2.25-.32,5.66-.39,9.39.07-3.73.25-7.14.39-9.39A5.01448,5.01448,0,0,0,667.82,301.95Z"/><path class="cls-1" d="M390.37,235.29c-.49-.3-.98-.59-1.45-.89C389.39,234.69,389.88,234.99,390.37,235.29Z"/><path class="cls-1" d="M392.51,236.56c-.61-.35-1.2-.7-1.79-1.06C391.31,235.85,391.91,236.21,392.51,236.56Z"/><path class="cls-1" d="M388.46,234.11q-.855-.54-1.68-1.08Q387.605,233.57,388.46,234.11Z"/><path class="cls-1" d="M384.71,231.64c-.52-.36-1.02-.72-1.52-1.07C383.69,230.92,384.19,231.28,384.71,231.64Z"/><path class="cls-1" d="M386.57,232.89c-.48-.32-.96-.64-1.42-.96C385.61,232.25,386.08,232.57,386.57,232.89Z"/><path class="cls-1" d="M403.35,242.36c-.57-.28-1.14-.57-1.7-.86C402.21,241.79,402.78,242.07,403.35,242.36Z"/><path class="cls-1" d="M394.47,237.68c-.51-.28-1.01-.57-1.51-.86C393.46,237.11,393.97,237.39,394.47,237.68Z"/><path class="cls-1" d="M398.83,240.04c-.53-.28-1.07-.56-1.59-.85C397.76,239.48,398.29,239.76,398.83,240.04Z"/><path class="cls-1" d="M401.31,241.33c-.66-.34-1.31-.67-1.96-1.01C400,240.66,400.65,240.99,401.31,241.33Z"/><path class="cls-1" d="M396.81,238.97c-.63-.34-1.26-.69-1.88-1.03C395.55,238.28,396.18,238.62,396.81,238.97Z"/><path class="cls-1" d="M378.36,226.67c-.34-.3-.66-.61-.98-.91C377.7,226.06,378.03,226.36,378.36,226.67Z"/><path class="cls-1" d="M434.05,336.78l-.24-.03Z"/><path class="cls-1" d="M427.05,335.83c-.02,0-.04-.01-.06-.01C427.01,335.82,427.03,335.83,427.05,335.83Z"/><path class="cls-1" d="M431.88,336.48c-.07-.01-.14-.02-.22-.03C431.73,336.46,431.81,336.47,431.88,336.48Z"/><path class="cls-1" d="M429.48,336.15l-.21-.03Z"/><path class="cls-1" d="M445.21,338.62a.50142.50142,0,0,0-.12-.02A.6.6,0,0,0,445.21,338.62Z"/><path class="cls-1" d="M443.82,338.35c-.11-.02-.22-.04-.34-.06C443.59,338.31,443.7,338.33,443.82,338.35Z"/><path class="cls-1" d="M440.31,337.74c-.11-.02-.21-.04-.32-.05C440.09,337.7,440.2,337.72,440.31,337.74Z"/><path class="cls-1" d="M438.25,337.41a2.00024,2.00024,0,0,1-.24-.04C438.09,337.38,438.17,337.4,438.25,337.41Z"/><path class="cls-1" d="M436.33,337.12c-.11-.02-.22-.03-.33-.05C436.11,337.08,436.22,337.1,436.33,337.12Z"/><path class="cls-1" d="M446.74,338.94c-.09-.02-.19-.04-.29-.06C446.55,338.9,446.64,338.92,446.74,338.94Z"/><path class="cls-1" d="M441.99,338.02c-.06-.01-.13-.02-.19-.03C441.86,338,441.93,338.01,441.99,338.02Z"/><path class="cls-1" d="M414.22,334.26h.02C414.23,334.27,414.23,334.26,414.22,334.26Z"/><path class="cls-1" d="M419.48,334.88c-.02,0-.04-.01-.07-.01A.195.195,0,0,0,419.48,334.88Z"/><path class="cls-1" d="M424.59,335.51c-.04-.01-.09-.01-.13-.02A.58649.58649,0,0,0,424.59,335.51Z"/><path class="cls-1" d="M368.66,364.56l1.31-.07-.88-.04C368.96,364.48,368.81,364.52,368.66,364.56Z"/><path class="cls-5" d="M460.67,368.95l-72.51-3.56,20.87,23.02,88.74-3.63-3.26-14.55c-3.81-.24-7.93-.58-11.51-.58C473.21,369.64,460.67,368.95,460.67,368.95Z"/><polygon class="cls-5" points="611.67 387.1 686.66 371.28 684.21 368.74 611.4 382.96 611.67 387.1"/><path class="cls-1" d="M665.05,296.46l1.1,1.25a5.42742,5.42742,0,0,1,.42.53,6.6979,6.6979,0,0,1,1.26,3.71c.01.22,0,.45-.01.67-.14,2.25-.32,5.66-.39,9.39-.02,1.12-.03,2.27-.03,3.42q0,1.155.03,2.31c.01.38.02.77.03,1.15.04,1.14.09,2.27.16,3.36a48.145,48.145,0,0,0,.58,5.01q.165.9.36,1.68a7.41135,7.41135,0,0,0,1.61,3.42,7.34925,7.34925,0,0,1,.53.6l22.93-9.64L683,304.57c-2.34.66-4.18.96-5.09.66-4.52-1.51-8.83-15.5-8.83-15.5l-.84.08a25.91964,25.91964,0,0,1-3.21,6.46Z"/><path class="cls-1" d="M591.36,197.58c-.27-.26-.53-.49-.79-.71a28.98149,28.98149,0,0,1,1.54,3.88l-.5-3.26C591.5,197.6,591.41,197.64,591.36,197.58Z"/><path class="cls-5" d="M338.05,371.09c17.98-3.27,27.42-5.66,30.61-6.53.15-.04.3-.08.42-.12l-4.94-.24c-4.71-2.9,2.54-34.79,2.54-34.79a.93937.93937,0,0,1,.12.01c.09.01.22.02.41.04.18.02.39.04.65.06.16.01.34.03.54.05h.01c.42.04.91.08,1.47.14.05.01.11.01.16.02.88.08,1.91.18,3.07.29h.04c8.45.79,23.94,2.3,38.94,4.01h0c.71.08,1.41.16,2.12.24h.02c.53-6.01.96-13.18-.2-19.88-1.93-11.19-10.97-56.6-8.08-70.75-.01,0-.01-.01-.02-.01-.67-.32-1.33-.65-1.99-.98-.2-.1-.39-.19-.59-.29-.57-.28-1.14-.57-1.7-.86-.11-.06-.23-.11-.34-.17-.66-.34-1.31-.67-1.96-1.01-.18-.09-.35-.18-.53-.28-.53-.28-1.07-.56-1.59-.85-.14-.08-.28-.15-.42-.23-.63-.34-1.26-.69-1.88-1.03-.15-.09-.31-.17-.46-.26-.51-.28-1.01-.57-1.51-.86-.15-.09-.3-.17-.46-.26-.61-.35-1.2-.7-1.79-1.06-.12-.07-.23-.14-.35-.21-.49-.3-.98-.59-1.45-.89-.15-.09-.31-.19-.46-.28q-.855-.54-1.68-1.08c-.07-.05-.14-.09-.21-.14-.48-.32-.96-.64-1.42-.96-.14-.1-.29-.2-.43-.3-.52-.36-1.02-.72-1.52-1.07-.01-.01-.02-.02-.03-.02-.5-.36-.98-.73-1.45-1.09-.13-.1-.26-.2-.38-.3q-.615-.48-1.2-.96c-.06-.05-.13-.1-.19-.15-.44-.36-.86-.73-1.26-1.09-.11-.09-.21-.19-.31-.28-.34-.3-.66-.61-.98-.91-.08-.07-.15-.15-.23-.22-.37-.36-.72-.72-1.06-1.09-.08-.09-.15-.17-.23-.26q-.405-.45-.78-.9c-.07-.09-.15-.17-.22-.26-.29-.36-.57-.72-.83-1.08-.05-.07-.1-.14-.14-.21-.21-.3-.41-.6-.59-.91-.06-.09-.11-.19-.17-.28q-.315-.54-.57-1.08c-.02-.05-.04-.09-.06-.14-.15-.32-.27-.63-.39-.95-.03-.1-.07-.19-.1-.29a10.69175,10.69175,0,0,1-.3-1.07c-1.41-6.72-6.52-12.2-11.08-17.71-.68,4.71-2.99,10.82-8.82,18.11-14.49,18.12-21.02,34.42-18.12,43.85s3.26,14.49-4.35,24.64-9.78,42.4-13.05,55.44c-2.06,8.25-2.38,19.69,3.72,25.88C323.57,370.85,329.27,372.69,338.05,371.09Z"/><path class="cls-5" d="M419.42,334.88c.02,0,.04.01.07.01,1.69.2,3.35.41,4.97.61.04.01.09.01.13.02.81.1,1.61.2,2.4.31.02,0,.04.01.06.01.75.1,1.49.2,2.22.29l.21.03c.74.1,1.46.2,2.18.3.07.01.14.02.22.03.65.09,1.3.18,1.93.27l.24.03c.66.1,1.31.19,1.95.29.11.02.22.03.33.05.57.09,1.13.17,1.68.26a2.00024,2.00024,0,0,1,.24.04c.6.09,1.17.19,1.74.28.11.02.22.04.32.05.51.08,1.01.17,1.49.25.06.01.13.02.19.03.51.09,1.01.18,1.49.27.11.02.23.04.34.06.44.08.87.16,1.28.25a.50126.50126,0,0,0,.12.02c.43.09.84.17,1.23.26.1.02.19.04.29.06.39.09.76.17,1.11.26,16.31,3.99,18.84-3.26,18.84-3.26,10.15-11.96,21.02-11.96,21.02-11.96s.73.08,2,.26l-25.22-21.21a2.08381,2.08381,0,0,1,2.67-3.2l31.28,25.9c.51.1,1.04.21,1.57.33h0c-1.21-16.44-3-44.92-2.09-59.1.84-13.11-12.31-35.24-22.03-49.65-1.46-.26-3.32-.57-5.43-.96-.1-.02-.19-.03-.29-.05-.45-.08-.92-.17-1.39-.27-.14-.03-.27-.05-.41-.08-.46-.09-.93-.19-1.4-.29-.16-.03-.32-.06-.48-.1-.46-.1-.93-.2-1.4-.31-.19-.04-.37-.08-.57-.13q-.99-.225-2.01-.48c-.83,5.01-4.69,12.52-19.37,16.64,3.22,7.68,8.59,16.47,16.93,26.67,0,0-8,5.34-31.13-4.15-.82-.34-1.65-.68-2.49-1.03-.26-.11-.53-.22-.79-.33-.6-.25-1.2-.5-1.81-.76-.29-.12-.59-.25-.88-.37-.62-.26-1.24-.53-1.86-.79-.27-.11-.53-.23-.8-.34-1.76-.76-3.55-1.54-5.34-2.35-.26-.12-.52-.24-.78-.35-.64-.29-1.28-.58-1.93-.87-.3-.14-.6-.28-.9-.41-.64-.3-1.28-.6-1.93-.9-.26-.12-.53-.25-.79-.37-.9-.42-1.8-.85-2.69-1.28-2.89,14.15,6.15,59.56,8.08,70.75,1.15,6.7.73,13.87.2,19.88h.02C415.98,334.47,417.71,334.67,419.42,334.88Z"/><path class="cls-5" d="M476.08,217.34a1.41612,1.41612,0,0,1-.2-.04c9.71,14.41,22.86,36.55,22.03,49.65-.91,14.18.88,42.66,2.09,59.1h0c.82.18,1.67.37,2.52.57.1.02.2.05.31.07.82.19,1.65.4,2.48.62l.45.12c.83.22,1.67.45,2.5.69l.39.12c.87.26,1.75.53,2.61.82,8.36,2.79,15.19,7.81,18.48,9.06,7.61,2.9,6.52,7.97,3.26,10.15-1.75,1.17-5.27.35-8.16-.66l9.41,7.79,12.56-.7c-2.41-11.69-7.66-38.03-7.66-45.57,0-9.78,7.97-63.05.36-76.46-7.25-12.77.96-21.93-45.87-40.31C491.54,197.97,483.26,218.62,476.08,217.34Z"/><path class="cls-5" d="M505.59,361.28l1.97-.04a14.70607,14.70607,0,0,1-2.45-.65S505.3,360.84,505.59,361.28Z"/><path class="cls-5" d="M515.25,355.15c0,.47-.03.9-.07,1.31l12.04-.67-4.44-3.73C521.39,354.98,515.25,355.15,515.25,355.15Z"/><path class="cls-5" d="M846.28,338l-124.93,7.03a63.13366,63.13366,0,0,1-19.76,4.75,218.59523,218.59523,0,0,0-28.13,4.28l13.72,14.09-2.97.58,2.45,2.53-74.98,15.83-.27-4.15-11.93,2.33.81-10.36c-1.7.13-3.45.21-5.22.24-15.83.26-43.85-8.82-43.85-8.82l8.46-12.36-12.85.71-12.56.7,4.77,3.95.68,1.2,3.73,6.58-6.75-3.37-3.65-3.07-5.83-4.9-12.04.67c-.34,2.89-1.83,4.19-3.56,4.7a9.27143,9.27143,0,0,1-4.05.09l-1.97.04a10.1338,10.1338,0,0,1,1.69,6.91c-.46,2.53-6.16,2.43-12.77,2.02l3.26,14.55-88.74,3.63-20.87-23.02-18.19-.89-1.31.07c-3.19.87-12.62,3.26-30.61,6.53-8.78,1.6-14.48-.24-18.02-3.83L-1.06,401.52-5.7,479.18H848.47Z"/><path class="cls-5" d="M462.51,214.65c-7.66-1.92-16.31-5.03-22.31-10.41-1.85,7.3-1.67,16.04,2.94,27.06C457.83,227.17,461.68,219.65,462.51,214.65Z"/><path class="cls-5" d="M492.09,124.54c-.59,1.76-28.78,37.86-39.43,56.03-1.61,2.75-3.58,5.58-5.51,8.63q-1.155,1.83-2.27,3.76a45.45977,45.45977,0,0,0-4.69,11.26c6,5.39,14.66,8.5,22.31,10.41q1.02.255,2.01.48c.19.04.38.08.57.13.47.11.94.21,1.4.31.16.04.32.07.48.1.47.1.94.2,1.4.29.14.03.27.05.41.08.47.09.94.18,1.39.27.1.02.19.03.29.05,2.21.41,4.14.72,5.63.99,7.18,1.28,15.46-19.37,17.57-24.98.33-.88.51-1.4.51-1.4s1.78,0,7.12-.3,3.85-3.26,0-10.67,5.63-34.09,5.63-46.25a29.643,29.643,0,0,0-4.01-14.75C500.62,122.53,492.09,124.54,492.09,124.54Z"/><path class="cls-5" d="M466.49,215.56c.16.04.32.07.48.1C466.81,215.63,466.65,215.6,466.49,215.56Z"/><path class="cls-5" d="M468.37,215.95c.14.03.27.05.41.08C468.64,216,468.51,215.98,468.37,215.95Z"/><path class="cls-5" d="M464.52,215.13c.19.04.38.08.57.13C464.9,215.21,464.72,215.18,464.52,215.13Z"/><path class="cls-5" d="M470.17,216.3c.1.02.19.03.29.05A2.93084,2.93084,0,0,0,470.17,216.3Z"/><path class="cls-5" d="M372.02,218.11c.03.09.07.19.1.29a9.49549,9.49549,0,0,0,.39.95c.02.05.04.09.06.14q.255.54.57,1.08c.05.09.11.19.17.28.18.3.38.6.59.91.05.07.09.14.14.21.26.36.53.72.83,1.08.07.09.14.17.22.26q.375.45.78.9c.08.09.15.17.23.26.34.36.69.72,1.06,1.09.07.07.15.15.23.22.31.3.64.61.98.91.1.09.21.19.31.28.41.36.83.73,1.26,1.09.06.05.12.1.19.15q.585.48,1.2.96c.13.1.25.2.38.3.47.36.96.73,1.45,1.09.01.01.02.02.03.02.49.36,1,.72,1.52,1.07.14.1.29.2.43.3.47.32.94.64,1.42.96.07.05.14.09.21.14q.825.54,1.68,1.08c.15.1.3.19.46.28.48.3.96.6,1.45.89.12.07.23.14.35.21.59.35,1.19.71,1.79,1.06.15.09.3.17.46.26.5.29,1,.57,1.51.86.15.09.31.17.46.26.62.35,1.25.69,1.88,1.03.14.08.28.15.42.23.53.28,1.06.57,1.59.85.18.09.35.18.53.28.65.34,1.3.68,1.96,1.01.11.06.23.11.34.17.57.29,1.13.57,1.7.86.2.1.39.2.59.29.66.33,1.32.65,1.99.98.01,0,.01.01.02.01.89.43,1.79.86,2.69,1.28.26.12.53.25.79.37.64.3,1.28.6,1.93.9.3.14.6.28.9.41.64.29,1.28.59,1.93.87.26.12.52.24.78.35q2.685,1.2,5.34,2.35c.27.12.53.23.8.34.62.27,1.24.53,1.86.79.3.13.59.25.88.37.61.26,1.21.51,1.81.76.26.11.53.22.79.33.84.35,1.67.69,2.49,1.03,23.13,9.49,31.13,4.15,31.13,4.15-8.35-10.2-13.72-18.99-16.93-26.67-4.62-11.02-4.79-19.75-2.94-27.06a45.8418,45.8418,0,0,1,4.69-11.26c.73-1.3,1.5-2.55,2.27-3.76,1.93-3.05,3.9-5.88,5.51-8.63,10.65-18.18,38.85-54.28,39.43-56.03,0,0,8.53-2.01,10.81-5.56a3.48581,3.48581,0,0,0,.45-.96c2.22-7.78-17.79-29.94-37.36-41.51-19.57-11.56-34.98-5.93-39.43-5.34-57.62,7.68-74.12,99.91-73.82,112.36.14,5.89,3.8,10.85,7.89,15.79,4.56,5.51,9.68,10.99,11.08,17.71A10.67416,10.67416,0,0,0,372.02,218.11Z"/><path class="cls-5" d="M399.35,240.32c-.18-.09-.35-.18-.53-.28C399,240.13,399.18,240.23,399.35,240.32Z"/><path class="cls-5" d="M381.71,229.45c-.13-.1-.25-.2-.38-.3C381.45,229.25,381.58,229.35,381.71,229.45Z"/><path class="cls-5" d="M386.78,233.03c-.07-.05-.14-.09-.21-.14C386.64,232.94,386.71,232.99,386.78,233.03Z"/><path class="cls-5" d="M388.91,234.4c-.15-.09-.31-.19-.46-.28C388.61,234.21,388.76,234.3,388.91,234.4Z"/><path class="cls-5" d="M405.93,243.63c.01,0,.01.01.02.01h0C405.94,243.63,405.94,243.63,405.93,243.63Z"/><path class="cls-5" d="M383.19,230.56c-.01-.01-.02-.02-.03-.02C383.17,230.55,383.18,230.56,383.19,230.56Z"/><path class="cls-5" d="M385.14,231.93c-.14-.1-.29-.2-.43-.3C384.85,231.74,385,231.84,385.14,231.93Z"/><path class="cls-5" d="M397.23,239.19c-.14-.08-.28-.15-.42-.23C396.95,239.04,397.09,239.12,397.23,239.19Z"/><path class="cls-5" d="M403.94,242.65c-.2-.1-.39-.19-.59-.29C403.55,242.45,403.74,242.55,403.94,242.65Z"/><path class="cls-5" d="M394.93,237.93c-.15-.09-.31-.17-.46-.26C394.63,237.76,394.78,237.85,394.93,237.93Z"/><path class="cls-5" d="M392.97,236.82c-.15-.09-.3-.17-.46-.26C392.66,236.65,392.81,236.73,392.97,236.82Z"/><path class="cls-5" d="M390.72,235.5c-.12-.07-.23-.14-.35-.21C390.49,235.36,390.6,235.43,390.72,235.5Z"/><path class="cls-5" d="M401.65,241.5c-.11-.06-.23-.11-.34-.17C401.42,241.39,401.53,241.44,401.65,241.5Z"/><path class="cls-5" d="M374.05,221.95c-.05-.07-.1-.14-.14-.21C373.95,221.81,374,221.88,374.05,221.95Z"/><path class="cls-5" d="M376.1,224.45c-.08-.09-.15-.17-.23-.26C375.95,224.28,376.02,224.36,376.1,224.45Z"/><path class="cls-5" d="M375.09,223.29c-.07-.09-.15-.17-.22-.26C374.94,223.12,375.02,223.21,375.09,223.29Z"/><path class="cls-5" d="M372.12,218.4c-.03-.1-.07-.19-.1-.29C372.05,218.21,372.09,218.3,372.12,218.4Z"/><path class="cls-5" d="M372.57,219.48c-.02-.05-.04-.09-.06-.14C372.53,219.39,372.55,219.44,372.57,219.48Z"/><path class="cls-5" d="M373.31,220.84c-.06-.09-.11-.19-.17-.28A2.60063,2.60063,0,0,1,373.31,220.84Z"/><path class="cls-5" d="M377.39,225.75c-.08-.07-.15-.15-.23-.22A2.39112,2.39112,0,0,0,377.39,225.75Z"/><path class="cls-5" d="M378.67,226.95c-.11-.09-.21-.19-.31-.28A4.12689,4.12689,0,0,1,378.67,226.95Z"/><path class="cls-5" d="M380.12,228.19c-.06-.05-.13-.1-.19-.15C380,228.09,380.06,228.14,380.12,228.19Z"/><path class="cls-5" d="M421.1,250.52c.62.27,1.24.53,1.86.79C422.34,251.05,421.72,250.78,421.1,250.52Z"/><path class="cls-5" d="M414.96,247.83q2.685,1.2,5.34,2.35Q417.645,249.025,414.96,247.83Z"/><path class="cls-5" d="M409.42,245.29c.64.3,1.28.6,1.93.9C410.71,245.89,410.06,245.59,409.42,245.29Z"/><path class="cls-5" d="M405.95,243.64h0c.89.43,1.79.86,2.69,1.28C407.74,244.5,406.84,244.07,405.95,243.64Z"/><path class="cls-5" d="M423.85,251.68c.61.26,1.21.51,1.81.76C425.06,252.19,424.45,251.94,423.85,251.68Z"/><path class="cls-5" d="M426.45,252.78c.84.35,1.67.69,2.49,1.03C428.12,253.47,427.29,253.12,426.45,252.78Z"/><path class="cls-5" d="M412.25,246.6c.64.29,1.28.59,1.93.87C413.53,247.18,412.89,246.89,412.25,246.6Z"/><path class="cls-7" d="M585.39,191.43c2.22.3,4,3.02,5.17,5.44.26.22.52.45.79.71.05.05.14.01.24-.09,1.22-1.16,5.53-11.65,5.53-13.7,0-2.24,1.3,0,2.8.75,1.49.75,6.15-1.86,6.34-5.22.19-3.35,1.68,5.4,6.34,2.42a15.73053,15.73053,0,0,0,6.15-7.64s4.1,4.47,13.05-.56c0,0-1.68-.75,7.64,3.17,9.32,3.91,13.98,4.85,13.98,4.85s-13.8-11.1-10.44-10.62c1.05.15,13.65,5.89,18.17,12.52a7.7118,7.7118,0,0,1,1.59,4.82s13.05-48.64-13.05-54.61c-26.09-5.96-25.16-3.35-25.16-3.35a6.68762,6.68762,0,0,0-6.71-2.05c-4.47.93-11.37.56-7.64,3.17s-3.17,1.3-5.96,3.54c-2.8,2.24-5.96,5.22-10.25,6.15s-10.44,2.61-12.49,12.11c0,0-2.42,5.96-4.29,9.51-1.86,3.54,2.61,9.32,2.8,16.21.19,6.9-2.98,10.25,0,13.05,2.04,1.91,3.2,2.43,3.74,2.56C583.79,190.4,585.39,191.43,585.39,191.43Z"/><path class="cls-5" d="M641.86,241.57c.16-.12.31-.24.47-.37,12.54-9.68,11.83-16.61,11.83-17.71,0-1.12.93-10.25.93-10.25s.75,3.91,3.91.37c3.17-3.54,9.13-22.55,3.54-23.3l-1.4-6.87c-4.51-6.62-17.11-12.37-18.17-12.52-3.37-.48,10.44,10.62,10.44,10.62s-4.66-.93-13.98-4.85c-9.32-3.91-7.64-3.17-7.64-3.17-8.95,5.03-13.05.56-13.05.56a15.73056,15.73056,0,0,1-6.15,7.64c-4.66,2.98-6.15-5.78-6.34-2.42-.19,3.35-4.85,5.96-6.34,5.22-1.49-.75-2.8-2.98-2.8-.75,0,2.06-4.32,12.54-5.53,13.7l.5,3.26a28.98193,28.98193,0,0,0-1.54-3.88c-1.17-2.42-2.95-5.13-5.17-5.44,0,0-1.61-1.03-1.67,3.12a31.71047,31.71047,0,0,0,.36,4.71c1.3,9.51,4.1,16.03,7.83,16.59,3.19.48,5.29,15.94,12.82,23.67a15.01182,15.01182,0,0,0,4.33,3.17C620.24,247.91,628.82,251.45,641.86,241.57Z"/><path class="cls-5" d="M664.97,296.37l.08.09-.01-.19A.61024.61024,0,0,0,664.97,296.37Z"/><path class="cls-5" d="M603.65,286.07s-.3.06-.81.15c.15.82.29,1.79.37,2.78,12.21,1.04,48.18,4.04,57.23,4.01a95.04851,95.04851,0,0,1-1.69-10.17c-2.32-2.7-7.27-17.42-10.56-27.75-.34.33-13.54,12.98-45.62,3.21l1.55-13.5c-3.32-.45-4.62-.62-4.62-.62s-.13,0-.36-.01C601.9,252.63,605.7,278.06,603.65,286.07Z"/><path class="cls-5" d="M645.39,246.09c-.31.06-.61.11-.91.17l3.64,8.61C646.89,251.02,645.91,247.8,645.39,246.09Z"/><path class="cls-5" d="M648.19,255.09c-.02-.07-.05-.15-.07-.22l-3.64-8.61-2.14-5.06c-.16.12-.31.24-.47.37-13.05,9.88-21.62,6.34-32.8,1.12a14.82888,14.82888,0,0,1-4.33-3.17l-.61,5.28-1.55,13.5C634.65,268.08,647.85,255.42,648.19,255.09Z"/><path class="cls-5" d="M648.21,255.07l-.02.02c3.29,10.33,8.25,25.05,10.56,27.75,0,0,8.61-4.31,10.33-.43a5.188,5.188,0,0,1,.3,2.34c1.46-4.09-1.52-32.72-4.49-39.75-.4-.95-.8-1.5-1.19-1.55-3.44-.43-18.73,1.29-18.73,1.29s.15.49.41,1.35c.52,1.71,1.51,4.93,2.74,8.78Z"/><path class="cls-5" d="M648.12,254.87c.02.07.05.15.07.22l.02-.02Z"/><path class="cls-5" d="M591.2,286.18c-.43-.6-.68-.97-.68-.97A1.50543,1.50543,0,0,0,591.2,286.18Z"/><path class="cls-5" d="M602.36,283.92s.24.96.48,2.31c.51-.09.81-.15.81-.15,2.05-8.01-1.75-33.44-4.5-41.9-.43-1.31-.76-2.22-.93-2.57-1.29-2.58-15.23-.09-16.53,1.85a1.39284,1.39284,0,0,0-.11.66c-.13,5.29,8.33,37.85,8.94,41.1Z"/><path class="cls-5" d="M603.21,289.01c-.08-.99-.23-1.96-.37-2.78-.24-1.35-.48-2.31-.48-2.31l-11.84,1.29s.25.38.68.97a36.97527,36.97527,0,0,0,6.67,7.33,5.833,5.833,0,0,0,3.19,1.39C603.21,294.9,603.46,291.88,603.21,289.01Z"/><path class="cls-5" d="M662.63,297.91c.61.28,1.45-.37,2.34-1.54a.86428.86428,0,0,0,.07-.1,25.92169,25.92169,0,0,0,3.21-6.46,19.51732,19.51732,0,0,0,1.13-5.06.799.799,0,0,1-.3.46c-2.37,1.29-9.04-.86-10.33-2.37a95.04851,95.04851,0,0,0,1.69,10.17C661.04,295.48,661.78,297.52,662.63,297.91Z"/><path class="cls-5" d="M669.09,285.21a.81146.81146,0,0,0,.3-.46,5.168,5.168,0,0,0-.3-2.34c-1.72-3.87-10.33.43-10.33.43C660.05,284.35,666.72,286.5,669.09,285.21Z"/><path class="cls-5" d="M669.39,284.75a19.9379,19.9379,0,0,1-1.13,5.06l.84-.08s4.31,13.99,8.83,15.5c.9.3,2.74,0,5.09-.66,7.85-2.22,21.47-8.56,25.7-10.56.82-.39,1.29-.62,1.29-.62s-12.27-38.32-32.29-45.63a49.97037,49.97037,0,0,0-12.8-2.75C667.86,252.03,670.84,280.67,669.39,284.75Z"/><path class="cls-5" d="M559.52,295.33c2.79-2.21,13.35,4.95,13.35,4.95l-1.08,30.14.76-.03c.3-.37.6-.74.9-1.12,9.58-11.88,20.74-26.75,24.42-35.75a36.66806,36.66806,0,0,1-6.67-7.33,1.50543,1.50543,0,0,1-.68-.97c-.61-3.25-9.07-35.81-8.94-41.1-6.32.4-13.18,1.29-17.32,3.22-5.06,2.36-8.86,10.94-13.99,20.45-4.25,7.87-6.67,16.57-9.69,25.4a63.70283,63.70283,0,0,0,9.51,2.12C554.19,295.95,558.33,296.28,559.52,295.33Z"/><path class="cls-1" d="M668.55,328.93q-.195-.78-.36-1.68Q668.355,328.15,668.55,328.93Z"/><path class="cls-1" d="M667.42,317.74c-.02-.77-.02-1.54-.03-2.31Q667.39,316.585,667.42,317.74Z"/><path class="cls-1" d="M667.61,322.24c-.08-1.09-.13-2.21-.16-3.36C667.48,320.03,667.54,321.16,667.61,322.24Z"/><path class="cls-1" d="M666.56,298.24a6.6979,6.6979,0,0,1,1.26,3.71A6.67122,6.67122,0,0,0,666.56,298.24Z"/><path class="cls-5" d="M463.93,300.55a2.0927,2.0927,0,0,0,.55,2.48l25.22,21.21c1.91.27,5.05.75,8.73,1.49l-31.28-25.9A2.08986,2.08986,0,0,0,463.93,300.55Z"/><path class="cls-5" d="M520.32,345.72c2.69,2.92,3.11,4.93,2.45,6.33l4.44,3.73,5.83,4.9,3.65,3.07,6.75,3.37-3.73-6.58-.68-1.2-4.77-3.95-9.41-7.79A43.38715,43.38715,0,0,1,520.32,345.72Z"/><path class="cls-5" d="M522.77,352.05c.66-1.39.24-3.41-2.45-6.33a43.76509,43.76509,0,0,0,4.52,1.88c2.89,1.01,6.41,1.82,8.16.66,3.26-2.17,4.35-7.25-3.26-10.15-3.29-1.25-10.12-6.27-18.48-9.06-.86-.29-1.73-.56-2.61-.82l-.39-.12c-.83-.24-1.67-.47-2.5-.69l-.45-.12c-.83-.22-1.67-.42-2.48-.62-.1-.02-.2-.05-.31-.07q-1.29-.3-2.52-.57h0c-.53-.11-1.06-.22-1.57-.33-3.67-.74-6.81-1.22-8.73-1.49-1.26-.18-2-.26-2-.26s-10.87,0-21.02,11.96c0,0-2.54,7.25-18.84,3.26-.35-.08-.72-.17-1.11-.26-.09-.02-.19-.04-.29-.06-.39-.09-.8-.17-1.23-.26a.50142.50142,0,0,0-.12-.02c-.41-.08-.84-.16-1.28-.25-.11-.02-.22-.04-.34-.06-.48-.09-.97-.18-1.49-.27-.06-.01-.13-.02-.19-.03-.48-.08-.98-.17-1.49-.25-.11-.02-.21-.04-.32-.05-.56-.09-1.14-.18-1.74-.28a2.00024,2.00024,0,0,1-.24-.04c-.55-.09-1.11-.17-1.68-.26-.11-.02-.22-.03-.33-.05-.64-.09-1.29-.19-1.95-.29l-.24-.03c-.63-.09-1.28-.18-1.93-.27-.07-.01-.14-.02-.22-.03-.72-.1-1.44-.2-2.18-.3l-.21-.03c-.73-.1-1.47-.2-2.22-.29-.02,0-.04-.01-.06-.01-.79-.1-1.59-.2-2.4-.31-.04-.01-.09-.01-.13-.02-1.63-.21-3.29-.41-4.97-.61-.02,0-.04-.01-.07-.01-1.71-.21-3.44-.41-5.18-.61h-.04c-.7-.08-1.41-.16-2.12-.24h0c-15-1.71-30.49-3.21-38.94-4.01h-.04c-1.17-.11-2.2-.21-3.07-.29-.06-.01-.11-.01-.16-.02-.56-.05-1.05-.1-1.47-.14h-.01c-.2-.02-.37-.03-.54-.05-.26-.02-.48-.04-.65-.06-.18-.02-.32-.03-.41-.04a.93937.93937,0,0,0-.12-.01s-7.25,31.89-2.54,34.79l4.94.24.88.04,18.19.89,72.51,3.56s12.54.69,22.32.69c3.58,0,7.7.34,11.51.58,6.61.41,12.31.5,12.77-2.02a10.11779,10.11779,0,0,0-1.69-6.91c-.28-.44-.48-.7-.48-.7a13.62465,13.62465,0,0,0,2.45.65,9.26675,9.26675,0,0,0,4.05-.09c1.73-.5,3.22-1.81,3.56-4.7a10.68607,10.68607,0,0,0,.07-1.31C515.25,355.15,521.39,354.98,522.77,352.05Z"/><path class="cls-5" d="M373.14,330.01c8.45.79,23.95,2.3,38.94,4.01C397.08,332.31,381.59,330.81,373.14,330.01Z"/><path class="cls-5" d="M370.03,329.72c.88.08,1.9.18,3.07.29C371.94,329.9,370.9,329.8,370.03,329.72Z"/><path class="cls-5" d="M368.4,329.57c.42.04.91.08,1.47.14C369.31,329.66,368.82,329.61,368.4,329.57Z"/><path class="cls-5" d="M412.09,334.02c.71.08,1.41.16,2.12.24C413.5,334.18,412.79,334.1,412.09,334.02Z"/><path class="cls-5" d="M367.85,329.52c.16.01.34.03.54.05C368.19,329.55,368.01,329.54,367.85,329.52Z"/><path class="cls-5" d="M366.79,329.43c.08.01.22.02.41.04C367.01,329.45,366.88,329.44,366.79,329.43Z"/><path class="cls-5" d="M447.85,339.2c-.35-.08-.72-.17-1.11-.26C447.13,339.03,447.5,339.12,447.85,339.2Z"/><path class="cls-5" d="M436,337.07c-.64-.09-1.29-.19-1.95-.29C434.72,336.88,435.37,336.97,436,337.07Z"/><path class="cls-5" d="M419.42,334.88c-1.71-.21-3.44-.41-5.18-.61C415.98,334.47,417.71,334.67,419.42,334.88Z"/><path class="cls-5" d="M438.01,337.37c-.55-.09-1.11-.17-1.68-.26C436.9,337.2,437.46,337.29,438.01,337.37Z"/><path class="cls-5" d="M445.09,338.6c-.41-.08-.84-.16-1.28-.25C444.26,338.44,444.69,338.52,445.09,338.6Z"/><path class="cls-5" d="M446.45,338.88c-.39-.09-.8-.17-1.23-.26C445.65,338.71,446.06,338.8,446.45,338.88Z"/><path class="cls-5" d="M424.46,335.5c-1.63-.21-3.29-.41-4.97-.61C421.17,335.09,422.83,335.29,424.46,335.5Z"/><path class="cls-5" d="M426.99,335.82c-.79-.1-1.59-.2-2.4-.31C425.4,335.62,426.2,335.72,426.99,335.82Z"/><path class="cls-5" d="M429.27,336.12c-.73-.1-1.47-.2-2.22-.29C427.8,335.93,428.54,336.02,429.27,336.12Z"/><path class="cls-5" d="M433.81,336.75c-.63-.09-1.28-.18-1.93-.27C432.53,336.57,433.18,336.66,433.81,336.75Z"/><path class="cls-5" d="M443.48,338.29c-.48-.09-.97-.18-1.49-.27C442.5,338.11,443,338.2,443.48,338.29Z"/><path class="cls-5" d="M439.99,337.69c-.56-.09-1.14-.18-1.74-.28C438.84,337.5,439.42,337.59,439.99,337.69Z"/><path class="cls-5" d="M431.66,336.45c-.72-.1-1.44-.2-2.18-.3C430.22,336.25,430.95,336.35,431.66,336.45Z"/><path class="cls-5" d="M500,326.06c-.53-.11-1.06-.22-1.57-.33C498.94,325.83,499.47,325.94,500,326.06Z"/><path class="cls-5" d="M441.8,337.99c-.48-.08-.98-.17-1.49-.25C440.82,337.82,441.32,337.91,441.8,337.99Z"/><path class="cls-5" d="M502.83,326.69c.82.19,1.65.4,2.48.62C504.48,327.09,503.65,326.89,502.83,326.69Z"/><path class="cls-5" d="M508.65,328.24c.87.26,1.75.53,2.61.82C510.4,328.77,509.53,328.5,508.65,328.24Z"/><path class="cls-5" d="M505.77,327.43c.83.22,1.67.45,2.5.69C507.43,327.88,506.6,327.65,505.77,327.43Z"/><path class="cls-5" d="M500,326.06c.82.18,1.67.37,2.52.57C501.67,326.42,500.82,326.23,500,326.06Z"/><path class="cls-5" d="M595.07,375.17c1.77-.03,3.52-.12,5.22-.24a109.9727,109.9727,0,0,0,24.36-4.69l-4.28-6.8a1.208,1.208,0,0,1-1,.77c-1.94.22.65,2.15-4.31,2.58a76.28314,76.28314,0,0,1-15-1.06c-4.62-.77-8.7-1.92-9.75-3.46-1.49-2.17-13.56-5.96-23.48-8.68-2.07-.57-4.06-1.09-5.82-1.55l-1.33,1.94-8.46,12.36C551.22,366.35,579.24,375.43,595.07,375.17Z"/><path class="cls-14" d="M628.88,366.42l2.37,1.25-.9-2.37-8.85-10.64c-.51-.21-.84-.36-.84-.36s4.17,5.91,2.33,6.15C626.46,364.08,628.27,365.93,628.88,366.42Z"/><path class="cls-14" d="M597.09,325.35a2.62739,2.62739,0,0,0-3.47-.51h0a2.61588,2.61588,0,0,0-.49,3.95c.18.19.37.4.58.62,1.86,1.99,4.39,4.68,7.24,7.72a11.80578,11.80578,0,0,1,6.36,1.45c.44.24.98.56,1.59.94l-8.67-10.42Z"/><path class="cls-5" d="M590.3,362.27c1.06,1.54,5.13,2.69,9.75,3.46a75.50714,75.50714,0,0,0,15,1.06c4.95-.43,2.37-2.37,4.31-2.58a1.22543,1.22543,0,0,0,1-.77,6.60266,6.60266,0,0,0,.07-3.32s-1.94-1.08,1.72.22a1.84075,1.84075,0,0,0,.82.13c1.84-.24-2.33-6.15-2.33-6.15s.34.16.84.36c1.75.72,5.66,2.12,5.83.28.07-.76-1.49-2.46-3.8-4.5-1.32-1.17-12.05-10.38-14.03-10.53-.21-.13-.41-.26-.6-.38-.61-.38-1.15-.7-1.59-.94a11.82545,11.82545,0,0,0-6.36-1.45,76.337,76.337,0,0,1-8.06.16,14.41079,14.41079,0,0,1-1.84-.25c-.64-.12-1.31-.29-2-.48-.34-.1-.69-.2-1.04-.31a67.612,67.612,0,0,1-11.04-4.86,9.956,9.956,0,0,0-1.05-.48,8.40428,8.40428,0,0,0-3.37-.54l-.76.03,1.08-30.14s-10.56-7.16-13.35-4.95c-1.2.95-5.33.62-9.44-.03-.98,10.48-3.52,36.94-4.55,41.58-1.29,5.81,3.87,12.7,8.61,13.56,1.13.21,3.65.79,6.86,1.61,1.77.45,3.75.98,5.82,1.55C576.74,356.31,588.81,360.1,590.3,362.27Z"/><path class="cls-5" d="M575.92,330.92a9.94531,9.94531,0,0,1,1.05.48,67.60906,67.60906,0,0,0,11.04,4.86,67.61163,67.61163,0,0,1-11.04-4.86A7.0672,7.0672,0,0,0,575.92,330.92Z"/><path class="cls-5" d="M591.05,337.05c-.64-.12-1.31-.29-2-.48C589.74,336.77,590.41,336.93,591.05,337.05Z"/><path class="cls-1" d="M642.63,357.39a1.58083,1.58083,0,0,0,.31.88c-.01-.07-.03-.13-.04-.21-.22-3.66.14-4.4.14-4.4S642.41,353.73,642.63,357.39Z"/><path class="cls-14" d="M667.33,357.6a.93351.93351,0,0,1-.1.05c-.11.05-.23.11-.37.16l-.06.03c-.16.06-.34.12-.53.18-.05.02-.11.03-.16.05-.16.05-.33.09-.52.14-.05.01-.1.03-.16.04-.23.05-.47.11-.72.16-.07.01-.15.03-.22.04-.2.04-.4.08-.61.11-.09.01-.17.03-.26.04q-.405.06-.84.12c-.08.01-.17.02-.26.03-.22.03-.45.05-.69.08-.11.01-.22.02-.34.03-.3.03-.59.05-.9.07a2.173,2.173,0,0,1-.26.01l-.78.03c-.12,0-.24.01-.37.01-.26,0-.53.01-.8,0h-.23c-1.06.49-2.21,1-3.47,1.5-6,2.44-9.09-.66-9.09-.66l.15-.13c-1.46.02-2.63-.33-2.83-1.44a1.5808,1.5808,0,0,1-.31-.88c-.22-3.66.41-3.73.41-3.73a6.52383,6.52383,0,0,1-3.07-2.52l-.03.01a.94941.94941,0,0,1-.06-.18.59758.59758,0,0,1-.06-.11s-9.26,6.46-10.33,3.01c-.34-1.1.97-2.51,2.9-3.92l-8.85.49c2.3,2.04,3.87,3.74,3.8,4.5-.17,1.84-4.08.44-5.83-.28l8.85,10.64.95,2.4-.06-.03.01.03-2.38-1.28c-.61-.49-2.42-2.34-5.89-5.96a1.70688,1.70688,0,0,1-.82-.13c-3.66-1.29-1.72-.22-1.72-.22a6.72683,6.72683,0,0,1-.07,3.32l4.28,6.8a109.9727,109.9727,0,0,1-24.36,4.69l-.81,10.36,11.93-2.33,72.8-14.22,2.97-.58-13.72-14.09c-2.3.55-5.47,3.05-5.83,3.35A.68924.68924,0,0,1,667.33,357.6Z"/><polygon class="cls-14" points="631.31 367.71 630.35 365.31 631.25 367.68 631.31 367.71"/><path class="cls-5" d="M634.86,339.88c1-1.99,12.87-6.58,15.99-6.49C647.74,333.12,635.86,337.89,634.86,339.88Z"/><path class="cls-5" d="M670.16,332.35a7.35984,7.35984,0,0,1-1.61-3.42q-.195-.78-.36-1.68a48.1411,48.1411,0,0,1-.58-5.01c-.08-1.09-.13-2.21-.16-3.36-.01-.38-.02-.76-.03-1.15-.02-.77-.02-1.54-.03-2.31,0-1.15.01-2.3.03-3.42.07-3.73.25-7.14.39-9.39.01-.22.02-.45.01-.67a6.88468,6.88468,0,0,0-1.26-3.71c-.13-.18-.27-.36-.42-.53l-1.1-1.25-.08-.09c-.88,1.17-1.73,1.82-2.34,1.54-.85-.39-1.59-2.43-2.18-4.89-9.05.03-45.02-2.97-57.23-4.01.25,2.87,0,5.89-2.15,5.89a5.833,5.833,0,0,1-3.19-1.39c-3.69,9-14.84,23.87-24.42,35.75-.3.38-.6.75-.9,1.12a8.37671,8.37671,0,0,1,3.37.54,9.94531,9.94531,0,0,1,1.05.48,67.60906,67.60906,0,0,0,11.04,4.86c.35.11.7.22,1.04.31.69.19,1.36.36,2,.48a16.14492,16.14492,0,0,0,1.84.25,79.15014,79.15014,0,0,0,8.06-.16c-2.85-3.04-5.37-5.73-7.24-7.72-.21-.22-.4-.43-.58-.62a2.61593,2.61593,0,0,1,.49-3.95h0a2.62738,2.62738,0,0,1,3.47.51l3.14,3.77,8.67,10.42c.19.12.39.25.6.38,1.98.15,12.7,9.36,14.03,10.53l8.85-.49a37.07434,37.07434,0,0,1,3.75-2.35c.74-.42,1.48-.82,2.2-1.19,1.38-.71,3.82-2.41,3.45-2.42-2.7-.04-7.63-.48-7.22-3.2a2.9311,2.9311,0,0,1,.29-.92c1-1.99,12.88-6.77,15.99-6.49,7.94.22,15.65,1.32,15.65,1.32l4.19-1.76A4.73849,4.73849,0,0,0,670.16,332.35Z"/><path class="cls-14" d="M639.94,351.15l.03-.01c-.03-.06-.07-.11-.1-.17C639.9,351.03,639.91,351.1,639.94,351.15Z"/><path class="cls-14" d="M653.26,340.54l-.32.32A1.61415,1.61415,0,0,0,653.26,340.54Z"/><path class="cls-14" d="M641.79,344c.37.01-2.07,1.7-3.45,2.42-.72.37-1.46.77-2.2,1.19a41.00209,41.00209,0,0,0-3.75,2.35c-1.93,1.41-3.25,2.82-2.9,3.92,1.08,3.44,10.33-3.01,10.33-3.01.02.04.04.07.06.11a1.72494,1.72494,0,0,1-.09-.87,4.35619,4.35619,0,0,1,2.29-3.21,70.25065,70.25065,0,0,0,9.9-5.05l.96-.98c-.76.64-1.96-.63-3.49.21A38.70535,38.70535,0,0,1,641.79,344Z"/><path class="cls-14" d="M708.69,294.01c-4.22,2-17.85,8.34-25.7,10.56l10.63,18.74-22.93,9.64-4.19,1.76s-7.29-.58-15.65-1.32c-3.12-.09-14.99,4.5-15.99,6.49a2.78114,2.78114,0,0,0-.29.92c-.41,2.72,4.52,3.16,7.22,3.2a36.10009,36.10009,0,0,0,7-2.46c1.93-.99,3.23.11,4.16-.68l-.96.98a71.43116,71.43116,0,0,1-9.9,5.05,4.33833,4.33833,0,0,0-2.29,3.21,1.72428,1.72428,0,0,0,.09.87,1.51643,1.51643,0,0,0,.1.17,6.4771,6.4771,0,0,0,3.07,2.52s-.36.74-.14,4.4a1.30909,1.30909,0,0,0,.04.21c.2,1.11,1.36,1.46,2.83,1.44l-.15.13s3.09,3.09,9.09.66c1.25-.51,2.41-1.02,3.47-1.5h1.03c.12,0,.24,0,.37-.01l.78-.03c.09,0,.17-.01.26-.01.3-.02.6-.04.9-.07.11-.01.22-.02.34-.03.23-.02.46-.05.69-.08.09-.01.17-.02.26-.03q.435-.06.84-.12c.09-.01.18-.03.26-.04.21-.04.41-.07.61-.11.07-.01.15-.03.22-.04.25-.05.49-.1.72-.16.06-.01.11-.03.16-.04.18-.05.35-.09.52-.14.06-.02.11-.03.16-.05.19-.06.37-.12.53-.18l.06-.03c.14-.05.26-.11.37-.16.03-.02.07-.03.1-.05a1.83532,1.83532,0,0,0,.29-.18c.36-.3,3.54-2.81,5.83-3.35a218.88034,218.88034,0,0,1,28.13-4.28,63.13358,63.13358,0,0,0,19.76-4.75c4.27-1.91,6.84-4,6.93-5.58C729.21,323.8,713.05,300.09,708.69,294.01Z"/><path class="cls-5" d="M618.52,364.6s-16.21-2-20.57-7.76"/><path class="cls-5" d="M620.44,360.12c-.44-.39-10.98-5.01-12.64-7.45"/><path class="cls-5" d="M621.5,354.67s-6.99-4.88-8.73-6.89"/><path class="cls-5" d="M658.4,358.99a55.25968,55.25968,0,0,0,5.57-3.92"/><path class="cls-5" d="M643.04,353.66c.47-.09,11.29-4.32,14.85-7.5"/><path class="cls-5" d="M645.76,359.71s9.78-3.06,13.16-5.77"/><line class="cls-14" x1="693.63" y1="323.30999" x2="703.34998" y2="320.16"/><path class="cls-14" d="M520.32,345.72s-24.72-11.64-26.78-11.9"/><path class="cls-14" d="M515.25,355.15s-12.94-7.41-16.55-8.95a15.71067,15.71067,0,0,0-5.41-1.55"/><line class="cls-14" x1="504.44" y1="360.02999" x2="485.03" y2="355.47"/><path class="cls-14" d="M466.69,369.4c-1.68-.42-6.99-4.89-8.25-8.67"/><path class="cls-14" d="M572.87,300.28s5.17-8.9,4.37-11.28"/><path class="cls-14" d="M426.57,71.18s61.59,27.22,65.52,53.37"/><path class="cls-14" d="M438.52,214.5c.34-1.34,10.27-87.27,21.66-95.98"/><path class="cls-14" d="M413.34,378.73c1.23,0,71.13-3.29,71.13-3.29"/><path class="cls-9" d="M422.8,395.18l-4.65,1.54,2.18,2.58,68.82,7.91a2.00447,2.00447,0,0,0,2.19-2.38h0a1.98562,1.98562,0,0,0-1.72-1.59Z"/><path class="cls-14" d="M422.56059,394.22238l-4.65,1.54,2.18,2.58,68.82,7.91a2.00446,2.00446,0,0,0,2.19-2.38h0a1.98559,1.98559,0,0,0-1.72-1.59Z"/><path class="cls-14" d="M676.7,362.9c-1.24-.31-4.95-4.02-10.67.15-3.64,2.66-10.94,1.02-14.85,2.94-9.13,4.49-18.87,2.78-19.92,1.71"/></g></g></svg>