<?xml version="1.0" encoding="utf-8"?>
<!-- Generator: Adobe Illustrator 23.0.6, SVG Export Plug-In . SVG Version: 6.00 Build 0)  -->
<svg version="1.1" xmlns="http://www.w3.org/2000/svg" xmlns:xlink="http://www.w3.org/1999/xlink" x="0px" y="0px"
	 viewBox="0 0 841.89 467.72" style="enable-background:new 0 0 841.89 467.72;" xml:space="preserve">
<style type="text/css">
	.st0{fill:#DCEFFA;}
	.st1{fill:#FFFFFF;}
	.st2{clip-path:url(#SVGID_2_);}
	.st3{fill:#F4F4F5;}
	.st4{fill:#E0635D;}
	.st5{fill:#F5C65D;}
	.st6{fill:#61A575;}
	.st7{fill:none;stroke:#54575C;stroke-miterlimit:10;}
	.st8{fill:#4890BA;}
	.st9{fill:#235485;}
	.st10{fill:#FCD4B4;}
	.st11{fill:#D09487;}
	.st12{fill:#54575C;}
	.st13{fill:#54575C;stroke:#54575C;stroke-miterlimit:10;}
	.st14{fill:none;stroke:#54575C;stroke-linejoin:round;stroke-miterlimit:10;}
	.st15{fill:none;stroke:#54575C;stroke-width:0.8296;stroke-linejoin:round;stroke-miterlimit:10;}
	.st16{fill:none;stroke:#54575C;stroke-width:0.6837;stroke-linejoin:round;stroke-miterlimit:10;}
	.st17{fill:none;stroke:#54575C;stroke-width:0.7252;stroke-linejoin:round;stroke-miterlimit:10;}
</style>
<g id="Layer_1">
</g>
<g id="Layer_2">
</g>
<g id="Layer_3">
	<rect x="-10.65" y="-7.22" class="st0" width="860.13" height="479.14"/>
	<g>
		<circle class="st1" cx="686.16" cy="119.62" r="43.03"/>
		<circle class="st1" cx="112.5" cy="132.78" r="44.47"/>
		<path class="st1" d="M407.67,303.06c-0.49,0.18-0.99,0.36-1.51,0.5C406.98,304.12,407.44,303.82,407.67,303.06z"/>
		<path class="st1" d="M394.97,309.48c0,0-1.7-1.26-3.91-3.07c-0.48,0.41-0.89,0.77-1.22,1.06
			C391.74,308.51,393.48,309.24,394.97,309.48z"/>
		<path class="st1" d="M399.92,299.63c2.06,1.2,3.84,2.34,5.08,3.16l-4.91-3.27C400.03,299.56,399.97,299.59,399.92,299.63z"/>
		<path class="st1" d="M433.36,437.35c-13.6-1.84-27.2-6.98-27.2-6.98s-8.82,3.68-22.42,2.94c-8.77-0.47-14.62-1.41-17.68-2.01
			c-1.43,5-3.62,8.89-6.94,10.09c-12.13,4.41-63.95-5.88-63.95-5.88s-30.27,35.32-31.2,44.57l253.57,5.79
			c0,0-14.7-27.57-32.71-38.96c-8.73-5.52-20.04-8.28-29.89-9.49c0.08,0.11,0.12,0.21,0.12,0.3
			C455.04,439.19,446.95,439.19,433.36,437.35z"/>
		<path class="st1" d="M454.92,437.42c-1.16-1.61-10.66-5.03-17.89-13.3c-7.72-8.82-14.7-14.7-24.99-19.11
			c-6.24-2.67-20.97-5.07-31.62-6.55c-6.92-0.96-12.12-1.53-12.12-1.53s0.85,11.55-0.25,22.92c-0.38,4.01-1.01,8-2,11.46
			c3.06,0.6,8.91,1.53,17.68,2.01c13.6,0.74,22.42-2.94,22.42-2.94s13.6,5.15,27.2,6.98c13.6,1.84,21.69,1.84,21.69,0.37
			C455.04,437.62,455,437.53,454.92,437.42z"/>
		<path class="st1" d="M344.23,250.91c0.68,1.43,2.45,8.21,3.38,10.34c3.27-6.78,6.98-23.38,7.95-27.86
			c-1.71-0.49-2.7-0.77-2.7-0.77L344.23,250.91z"/>
		<path class="st1" d="M418.1,294.75l-0.22-0.37c-0.08,0.12-0.16,0.24-0.24,0.36L418.1,294.75z"/>
		<path class="st1" d="M259.51,12.46c-42.64-8.09-54.03,34.18-58.44,43.37c-4.41,9.19-7.72,11.76-7.72,11.76
			c-23.89,19.85-2.57,52.93-2.57,52.93s-3.86,17.68,17.39,25.98c3.26,1.27,7.1,2.33,11.65,3.06c34.18,5.51,37.49-24.26,34.92-33.08
			c-2.57-8.82-1.84-13.23,0.74-16.17c2.57-2.94,2.21-10.66,3.68-13.6c1.47-2.94,12.86-8.45,16.54-13.97
			c3.68-5.51,15.8-6.98,20.22-11.39s7.35-18.38,7.35-18.38C306.18,38.19,302.14,20.55,259.51,12.46z"/>
		<path class="st1" d="M310.52,128.17c3.09-2.01,6.14-4.53,6.69-5.44c0.47-0.79-1.19-3.41-2.77-6.51c-0.35,2.76-0.95,5.17-1.64,6.88
			C312.17,124.66,311.37,126.37,310.52,128.17z"/>
		<path class="st1" d="M314.75,109.03c-0.37-8.46-2.39-18.01-1.95-24.16c0.74-10.29-2.57-37.86-9.56-41.9c0,0-2.94,13.97-7.35,18.38
			s-16.54,5.88-20.22,11.39c-3.68,5.51-15.07,11.03-16.54,13.97c-1.47,2.94-1.1,10.66-3.68,13.6c-2.57,2.94-3.31,7.35-0.74,16.17
			c2.57,8.82-0.74,38.59-34.92,33.08c-4.55-0.73-8.39-1.79-11.65-3.06c-6.01,11.24-16.1,30.29-19.72,38.02
			c11.47-12.38,21.14-13.85,23.65-13.64c4.41,0.37,18.74-4.04,35.28,12.86c2.32,2.37,4.61,4.71,6.86,6.97
			c13.78,13.89,25.63,24.91,28.79,22.06c3.33-3-6.93-28.95-11.89-35.42c0.3-0.23,0.61-0.48,0.92-0.72
			c7.52-5.91,19.03-15.03,19.03-15.03s8.48,0.09,11.42-9.84c1.07-3.61,1.22-7.35,2.52-11.03c1.54-4.4,3.67-8.7,5.5-12.57
			c0.85-1.79,1.64-3.5,2.28-5.07c0.69-1.71,1.28-4.12,1.64-6.88C314.72,114,314.86,111.57,314.75,109.03z"/>
		<path class="st1" d="M406.64,211.24c-0.52,1.42-0.99,2.89-1.42,4.39C405.87,213.95,406.36,212.43,406.64,211.24z"/>
		<path class="st1" d="M380.42,398.45c-0.02-2.32-0.1-7.59-0.36-16.24c-0.22-7.17-9.42-45.67-18.66-78.38
			c-0.83-2.93-1.65-5.8-2.47-8.61c-0.53-1.83-1.07-3.62-1.59-5.38c-3.65-12.17-7.08-22.5-9.73-28.59c-0.93-2.14-2.7-8.92-3.38-10.34
			l8.63-18.29c0,0-25.36-24.99-36.39-34.18c-8.82-7.35-35.95-18.68-44.42-21.81c-0.31,0.25-0.62,0.49-0.92,0.72
			c4.96,6.47,15.22,32.42,11.89,35.42c-3.16,2.84-15.02-8.17-28.79-22.06c-2.25-2.26-4.54-4.6-6.86-6.97
			c-16.54-16.91-30.87-12.5-35.28-12.86c-2.52-0.21-12.18,1.26-23.65,13.64c-8.63,9.31-18.29,24.78-26.7,50.37
			c-19.59,59.59-24.49,235.1-22.86,244.9l125.03,0.57c0-0.08,0.03-0.19,0.04-0.27c0.93-9.24,31.2-44.57,31.2-44.57
			s51.82,10.29,63.95,5.88c3.32-1.21,5.51-5.09,6.94-10.09c0.99-3.46,1.62-7.44,2-11.46c1.09-11.38,0.25-22.92,0.25-22.92
			S373.5,397.49,380.42,398.45z"/>
		<path class="st1" d="M406.16,303.56c-0.3-0.2-0.69-0.47-1.16-0.77L406.16,303.56z"/>
		<path class="st1" d="M424.2,260.34c-0.02-0.33-0.04-0.52-0.04-0.52l-9.55-2.77c-0.76,5.59-2.82,14.64-5.31,22.94
			c-2.75,9.18-6.03,17.45-8.66,19.15c-0.19,0.12-0.37,0.24-0.55,0.37l4.91,3.27c0.46,0.31,0.85,0.57,1.16,0.77
			c0.52-0.14,1.02-0.32,1.51-0.5c2.35-0.86,4.37-2.14,6.11-3.72c1.48-1.34,2.76-2.89,3.86-4.6c0.08-0.12,0.16-0.24,0.24-0.36
			C425.3,282.45,424.42,263.66,424.2,260.34z"/>
		<path class="st1" d="M573.37,295.16c-3.93,3.27-8.52,6.66-11.38,9.87c-4.98,5.6-22.61-5.4-27.89-8.9l-22.66-0.27l-93.35-1.11
			l-0.46-0.01c-1.1,1.71-2.38,3.26-3.86,4.6c-1.74,1.58-3.76,2.86-6.11,3.72c-0.22,0.76-0.68,1.06-1.51,0.5l-1.16-0.77
			c-1.25-0.82-3.03-1.96-5.08-3.16c-5.4-3.14-12.71-6.67-17.33-5.84c-4.95,0.88,3.22,8.3,8.48,12.61c2.21,1.81,3.91,3.07,3.91,3.07
			c-1.49-0.24-3.24-0.96-5.13-2.01c-0.62,0.55-0.97,0.87-0.97,0.87l-29.04-11.76l-0.92-1.35c0.82,2.81,1.65,5.68,2.47,8.61
			c3.34,2.65,18.34,14.31,31.1,20.5c12.66,6.15,29.13-0.06,41.07-1.97c1.68-0.27,3.28-0.45,4.76-0.5
			c11.97-0.41,91.23,19.82,116,23.12s38.39-42.93,38.39-42.93L573.37,295.16z"/>
		<path class="st1" d="M575.6,276c0,0-18.38-17.27-31.24-16.54s-15.8,5.51-29.4,4.41c-11.61-0.94-73-2.95-90.75-3.52
			c0.22,3.31,1.09,22.1-6.33,34.03l0.22,0.37l93.35,1.11l22.66,0.27c5.28,3.5,22.91,14.5,27.89,8.9c2.86-3.22,7.45-6.6,11.38-9.87
			c4.15-3.46,7.56-6.77,7.37-9.61C580.37,280.04,578.9,275.63,575.6,276z"/>
		<path class="st1" d="M527.08,258.29c2.75-1.72,39.52-81.78,51.78-108.59c-4.82-2.16-9.6-3.92-13.8-4.94c0,0,0,25.83-21.03,35.04
			l-0.03,0.05c0,0-26.01,44.58-26.42,46.24c-0.41,1.65-18.16-59.03-18.16-59.03c-4.3-7.08-7.97-10.6-9.23-16.44
			c-5.33,2.78-15.92,9.15-20.08,11.07c-0.25,0.12-0.55,0.24-0.88,0.37l34.32,92.51C503.55,254.57,523.77,260.35,527.08,258.29z"/>
		<path class="st1" d="M579.87,123.56c-0.25-1.26-0.68-2.35-1.19-3.16c-2.89-4.54-9.91,2.48-9.91,2.48s6.61-11.91,4.13-18.58
			c-0.28-0.76-1.68-1.38-3.25-1.97c-2.12-0.81-4.56-1.57-5.01-2.57c-3.72-8.26-9.91-3.72-14.04-10.73
			c-4.13-7.02-3.3-5.37-11.97-7.02c-8.67-1.65-18.16,0.83-26.01,0c-7.84-0.83-8.26-3.3-9.08,2.48c-0.83,5.78-3.72,13.62-3.72,13.62
			s-4.54,18.99-8.67,37.15c-0.72,3.16-1.14,5.82-1.33,8.14c-0.23,2.85-0.08,5.18,0.35,7.21c1.26,5.83,4.93,9.36,9.23,16.44
			c14.04,17.75,26.42,4.54,26.42,4.54s0,0,14.86-4.13c14.86-4.13,15.69-15.27,17.75-19.82c1.36-2.99,3.79-3.29,5.29-3.15
			c0.78,0.07,1.31,0.26,1.31,0.26c3.18-1.35,5.75-2.92,7.8-4.6C579.54,134.68,580.76,127.99,579.87,123.56z"/>
		<path class="st1" d="M521.3,182.74c0,0-14.86-4.13-21.88-15.69c0,0,17.75,60.68,18.16,59.03c0.41-1.65,26.42-46.24,26.42-46.24
			l0.03-0.05C538.21,182.35,530.78,183.63,521.3,182.74z"/>
		<path class="st1" d="M565.06,144.76c0,0-0.54-0.19-1.31-0.26C564.21,144.58,564.65,144.66,565.06,144.76z"/>
		<path class="st1" d="M563.74,144.5c-1.5-0.14-3.93,0.16-5.29,3.15c-2.06,4.54-2.89,15.69-17.75,19.82
			c-14.86,4.13-14.86,4.13-14.86,4.13s-12.38,13.21-26.42-4.54c7.02,11.56,21.88,15.69,21.88,15.69c9.49,0.89,16.91-0.39,22.73-2.94
			c21.02-9.22,21.03-35.04,21.03-35.04C564.65,144.66,564.21,144.58,563.74,144.5z"/>
		<path class="st1" d="M641.43,326.81c-4.95,0-21.88-14.86-21.88-14.86l3.72-1.24c-4.95-10.32,6.19-35.09,8.26-43.35
			c2.06-8.26,2.06-52.43,1.65-71.42c-0.41-18.99-20.64-22.71-27.66-29.72c-4.86-4.86-15.84-11.69-26.66-16.53
			c-12.26,26.81-49.03,106.87-51.78,108.59c-3.3,2.06-23.53-3.72-23.53-3.72l-34.32-92.51c-6.63,2.61-27.84,7.71-32.56,12.43
			c-4.95,4.95-9.49,12.8-18.16,19.4c-5.58,4.25-9.28,10.23-11.86,17.35c-0.28,1.19-0.77,2.71-1.42,4.39
			c-0.77,2.68-1.43,5.48-1.99,8.39c-1.58,8.15-5.33,15.96-8.17,20.99c10.35,3.17,18.75,5.92,19.55,6.72c0.44,0.44,0.4,2.41,0,5.32
			l9.55,2.77c0,0,0.02,0.19,0.04,0.52c17.74,0.57,79.14,2.58,90.75,3.52c13.6,1.1,16.54-3.68,29.4-4.41S575.6,276,575.6,276
			c3.31-0.37,4.78,4.04,5.15,9.56c0.19,2.83-3.22,6.15-7.37,9.61l19.34,6.88c0,0-13.62,46.24-38.39,42.93s-104.03-23.53-116-23.12
			c-1.48,0.05-3.07,0.24-4.76,0.5c-0.89,5.65-4.27,28.33-3.91,46.97c0.26,13.63,8.67,24.75,14.78,31.06
			c9.14-1.09,22.14-2.32,32.89-2.08c0.1,0,0.2,0,0.3,0.01c9.75-20.16,55.08-25.95,81.24-30.64c25.65-4.59,79-35.82,82.65-40.32
			C641.8,327.01,641.79,326.81,641.43,326.81z"/>
		<path class="st1" d="M477.43,398.72c0.06-0.14,0.13-0.27,0.2-0.41c-0.1,0-0.2,0-0.3-0.01
			C477.36,398.45,477.4,398.59,477.43,398.72z"/>
		<path class="st1" d="M695.24,128.5c-4.17,0-7.99-1.43-11.04-3.82l-20.54,21.98l-4.54-4.13l20.96-22.4
			c-1.76-2.78-2.79-6.06-2.79-9.59c0-9.92,8.04-17.96,17.96-17.96s17.96,8.04,17.96,17.96S705.16,128.5,695.24,128.5z"/>
		<path class="st1" d="M695.24,92.58c-9.92,0-17.96,8.04-17.96,17.96c0,3.53,1.03,6.81,2.79,9.59l-20.96,22.4l4.54,4.13l20.54-21.98
			c3.05,2.38,6.87,3.82,11.04,3.82c9.92,0,17.96-8.04,17.96-17.96S705.16,92.58,695.24,92.58z M695.24,125.09
			c-3.27,0-6.28-1.09-8.7-2.91c-1.65-1.24-3.04-2.81-4.05-4.63c-1.15-2.08-1.8-4.47-1.8-7.01c0-8.04,6.51-14.55,14.55-14.55
			c8.04,0,14.55,6.51,14.55,14.55C709.79,118.57,703.28,125.09,695.24,125.09z"/>
		<path class="st1" d="M765.69,361.9c-14.04-18.58-40.46-27.66-51.6-27.66c-11.15,0-40.04,1.24-44.58-2.06s-8.26-6.61-14.86-4.54
			c-3.33,1.04-8.66,0.51-13.13-0.28c-3.64,4.5-56.99,35.73-82.65,40.32c-26.15,4.68-71.49,10.48-81.24,30.64
			c4.34,0.11,8.3,0.45,11.47,1.15c5.43,1.19,8.43,3.87,10.01,6.96c3.35,6.54,0.31,14.92,0.31,14.92l-7.24-0.64l1.46,1.46
			c0,0,17.75,5.37,21.05,17.75c2.21,8.27,1.47,13.78,3.81,18.37c1.16,2.28,3.08,4.34,6.51,6.4c10.32,6.19,16.93,16.93,16.93,16.93
			l87.93-4.13l-5.92-23.29l-6.46-25.42c0,0,26.44,17.74,68.79-0.02c2.87-1.2,5.81-2.57,8.82-4.11l9.08,52.84l69.35,1.65
			C773.53,479.14,779.72,380.48,765.69,361.9z"/>
		<path class="st1" d="M499.11,406.43c-1.58-3.09-4.58-5.77-10.01-6.96c-3.17-0.7-7.13-1.05-11.47-1.15
			c-0.07,0.14-0.13,0.27-0.2,0.41c-0.03-0.13-0.07-0.28-0.11-0.41c-10.75-0.23-23.75,0.99-32.89,2.08
			c-6.81,0.81-11.48,1.55-11.48,1.55l0.83,13.62l32.61,2.87l25.78,2.27l7.24,0.64C499.42,421.35,502.46,412.97,499.11,406.43z"/>
		<path class="st1" d="M142.54,116.39l-3.66-2.53c-0.5-0.34-0.36-1.11,0.23-1.26l4.87-1.22c0.79-0.2,1.58,0.32,1.71,1.12l0.9,5.42
			c0.11,0.68-0.67,1.14-1.2,0.71L142.54,116.39"/>
		<g>
			<rect x="379.8" y="173.53" class="st1" width="5.6" height="40.24"/>
			<path class="st1" d="M343.46,90.14v83.39h36.34h5.6h36.9V90.14H343.46z M382.89,157.64c-14.25,0-25.8-11.55-25.8-25.8
				c0-14.25,11.55-25.8,25.8-25.8c14.25,0,25.8,11.55,25.8,25.8C408.69,146.09,397.14,157.64,382.89,157.64z"/>
			
				<ellipse transform="matrix(0.9732 -0.2298 0.2298 0.9732 -20.0478 91.4963)" class="st1" cx="382.89" cy="131.84" rx="25.8" ry="25.8"/>
		</g>
		<path class="st1" d="M376.47,51.36h-7.4v-7.4c0-2.04-1.66-3.7-3.7-3.7h-0.82c-2.04,0-3.7,1.66-3.7,3.7v7.4h-7.4
			c-2.04,0-3.7,1.66-3.7,3.7v0.82c0,2.04,1.66,3.7,3.7,3.7h7.4v7.4c0,2.04,1.66,3.7,3.7,3.7h0.82c2.04,0,3.7-1.66,3.7-3.7v-7.4h7.4
			c2.04,0,3.7-1.66,3.7-3.7v-0.82C380.17,53.02,378.51,51.36,376.47,51.36z"/>
		<path class="st1" d="M157.96,53.69h-4.5V49.2c0-1.24-1.01-2.25-2.25-2.25h-0.5c-1.24,0-2.25,1.01-2.25,2.25v4.49h-4.49
			c-1.24,0-2.25,1.01-2.25,2.25v0.5c0,1.24,1.01,2.25,2.25,2.25h4.49v4.49c0,1.24,1.01,2.25,2.25,2.25h0.5
			c1.24,0,2.25-1.01,2.25-2.25v-4.49h4.5c1.24,0,2.25-1.01,2.25-2.25v-0.5C160.2,54.7,159.2,53.69,157.96,53.69z"/>
		<path class="st1" d="M463.41,100.68h-3.73v-3.73c0-1.03-0.84-1.87-1.87-1.87h-0.41c-1.03,0-1.87,0.84-1.87,1.87v3.73h-3.73
			c-1.03,0-1.87,0.84-1.87,1.87v0.41c0,1.03,0.84,1.87,1.87,1.87h3.73v3.73c0,1.03,0.84,1.87,1.87,1.87h0.41
			c1.03,0,1.87-0.84,1.87-1.87v-3.73h3.73c1.03,0,1.87-0.84,1.87-1.87v-0.41C465.28,101.51,464.44,100.68,463.41,100.68z"/>
		<path class="st1" d="M100.15,220.33h-7.06v-7.06c0-1.95-1.58-3.53-3.53-3.53h-0.78c-1.95,0-3.53,1.58-3.53,3.53v7.06h-7.06
			c-1.95,0-3.53,1.58-3.53,3.53v0.78c0,1.95,1.58,3.53,3.53,3.53h7.06v7.06c0,1.95,1.58,3.53,3.53,3.53h0.78
			c1.95,0,3.53-1.58,3.53-3.53v-7.06h7.06c1.95,0,3.53-1.58,3.53-3.53v-0.78C103.68,221.91,102.1,220.33,100.15,220.33z"/>
		<path class="st1" d="M692.64,197.92h-10.26v-10.26c0-2.84-2.3-5.14-5.14-5.14h-1.13c-2.84,0-5.14,2.3-5.14,5.14v10.26H660.7
			c-2.84,0-5.14,2.3-5.14,5.14v1.13c0,2.84,2.3,5.14,5.14,5.14h10.26v10.26c0,2.84,2.3,5.14,5.14,5.14h1.13
			c2.84,0,5.14-2.3,5.14-5.14v-10.26h10.26c2.84,0,5.14-2.3,5.14-5.14v-1.13C697.78,200.22,695.48,197.92,692.64,197.92z"/>
		<path class="st1" d="M740.49,76.71h-3.07v-3.07c0-0.85-0.69-1.54-1.54-1.54h-0.34c-0.85,0-1.54,0.69-1.54,1.54v3.07h-3.07
			c-0.85,0-1.54,0.69-1.54,1.54v0.34c0,0.85,0.69,1.54,1.54,1.54H734v3.07c0,0.85,0.69,1.54,1.54,1.54h0.34
			c0.85,0,1.54-0.69,1.54-1.54v-3.07h3.07c0.85,0,1.54-0.69,1.54-1.54v-0.34C742.02,77.4,741.34,76.71,740.49,76.71z"/>
		<circle class="st1" cx="171.88" cy="175.51" r="4.49"/>
		<circle class="st1" cx="615.34" cy="113.05" r="3.26"/>
		<circle class="st1" cx="702.25" cy="225.34" r="3.26"/>
		<g>
			<defs>
				<path id="SVGID_1_" d="M380.42,398.45c-0.02-2.32-0.1-7.59-0.36-16.24c-0.22-7.17-9.42-45.67-18.66-78.38
					c-0.83-2.93-1.65-5.8-2.47-8.61c-0.53-1.83-1.07-3.62-1.59-5.38c-3.65-12.17-7.08-22.5-9.73-28.59
					c-0.93-2.14-2.7-8.92-3.38-10.34l8.63-18.29c0,0-25.36-24.99-36.39-34.18c-8.82-7.35-35.95-18.68-44.42-21.81
					c-0.31,0.25-0.62,0.49-0.92,0.72c4.96,6.47,15.22,32.42,11.89,35.42c-3.16,2.84-15.02-8.17-28.79-22.06
					c-2.25-2.26-4.54-4.6-6.86-6.97c-16.54-16.91-30.87-12.5-35.28-12.86c-2.52-0.21-12.18,1.26-23.65,13.64
					c-8.63,9.31-18.29,24.78-26.7,50.37c-19.59,59.59-24.49,235.1-22.86,244.9l125.03,0.57c0-0.08,0.03-0.19,0.04-0.27
					c0.93-9.24,31.2-44.57,31.2-44.57s51.82,10.29,63.95,5.88c3.32-1.21,5.51-5.09,6.94-10.09c0.99-3.46,1.62-7.44,2-11.46
					c1.09-11.38,0.25-22.92,0.25-22.92S373.5,397.49,380.42,398.45z"/>
			</defs>
			<use xlink:href="#SVGID_1_"  style="overflow:visible;fill:#FFFFFF;"/>
			<clipPath id="SVGID_2_">
				<use xlink:href="#SVGID_1_"  style="overflow:visible;"/>
			</clipPath>
			<g class="st2">
				<path class="st1" d="M342.32,160.7c-13.06,13.3-28.09,22.63-44.28,28.93c-3.24,1.26-6.53,2.39-9.87,3.29
					c-6.33-0.12-12.64,0.22-18.94,0.81c-3.15,0.29-6.29,0.65-9.44,1.04c-13.29,2.55-25.29,3.55-37.82,4.57
					c-3.17,0.23-6.35,0.38-9.53,0.43c-6.37,0.1-12.78-0.21-19.24-1.15c-2.65-0.31-5.3-0.64-7.93-1c-7.9-1.07-15.68-2.34-23.29-3.73
					c-6.92-1.27-9.89,9.33-2.92,10.61c8.1,1.48,16.38,2.83,24.77,3.95c2.8,0.37,5.6,0.72,8.42,1.04c3.33,0.78,6.66,1.43,10,1.95
					c27.26,4.89,54.26-0.11,80.52-5.97c3.34-0.77,6.67-1.57,10-2.4c3.52-1.1,6.99-2.33,10.42-3.68
					c17.13-6.78,33.04-16.76,46.92-30.9C355.06,163.43,347.29,155.64,342.32,160.7z"/>
				<path class="st1" d="M322.54,150.2c-8.73,3.27-17.57,6.18-26.51,8.75c-2.23,0.64-4.47,1.26-6.72,1.85
					c-7.91,2.26-15.87,2.89-23.97,3.21c-2.7,0.11-5.42,0.18-8.16,0.26c-13.7,0.06-26.7,4.06-40.76,6.08
					c-2.69,0.51-5.38,0.97-8.08,1.34c-5.41,0.74-10.85,1.12-16.34,0.87c-2.61-0.05-5.22-0.13-7.83-0.24
					c-15.66-0.66-31.29-2.38-46.77-5.17c-6.92-1.25-9.89,9.35-2.92,10.61c15.52,2.8,31.18,4.59,46.88,5.36
					c3.14,0.15,6.28,0.27,9.42,0.34c3.37-0.51,6.74-1.03,10.09-1.56c3.36-0.52,6.71-1.05,10.05-1.54
					c19.57-3.02,40.57-5.02,60.1-7.67c3.35-0.26,6.7-0.47,10.06-0.64c3.36-0.16,6.72-0.28,10.08-0.34c2.9-0.76,5.79-1.56,8.66-2.39
					c8.64-2.5,17.19-5.34,25.63-8.5C332.04,158.34,329.19,147.71,322.54,150.2z"/>
				<path class="st1" d="M372.19,182.64c-3,1.71-5.96,3.5-8.89,5.34c-11.8,6.35-22.8,15.35-35.15,22.1
					c-3.02,1.68-6.09,3.28-9.22,4.76c-5.04,2.38-10.26,4.32-15.59,5.94c-2.67,0.81-5.36,1.54-8.08,2.21
					c-2.98,0.93-5.96,1.86-8.95,2.7c-20.87,5.34-42.32,12.34-64.29,14.4c-3.14,0.29-6.29,0.49-9.45,0.56
					c-13.08-1.33-24.08,0.67-37.08,3.67c-20,3-39,0-59.41,2.7c-2.67,0.3-5.36,0.68-8.04,1.14c-18.74,3.25-37.14,10.78-47.09,28.07
					c-3.54,6.15,5.96,11.69,9.5,5.55c6.77-11.76,18.45-17.83,31.06-21.09c3.15-0.82,6.36-1.46,9.57-1.96
					c29.41-3.41,57.41,2.59,86.41-6.41c6-2,12-2,18.1-1.94c3.03-0.14,6.07-0.33,9.09-0.6c24.19-2.1,47.68-8.28,70.48-15.52
					c2.65-0.62,5.29-1.28,7.9-2.01c2.61-0.73,5.21-1.52,7.77-2.39s5.1-1.82,7.61-2.87c21.04-9.68,39.04-23.68,59.29-34.89
					c3.07-1.73,3.23-4.98,1.84-7.36C378.2,182.37,375.27,180.88,372.19,182.64z"/>
				<path class="st1" d="M380.89,205c-22.39,11.32-42.39,24.32-62.86,36.92c-2.7,1.33-5.41,2.63-8.14,3.9
					c-2.73,1.27-5.48,2.51-8.24,3.72c-3.07,1.34-6.17,2.64-9.29,3.88c-16.71,10.14-35.28,14.92-54.12,18.78
					c-3.14,0.64-6.29,1.26-9.44,1.87c-3.43,0.33-6.84,0.71-10.19,1.16c-29.1,8.1-58.1,17.1-88.16,23.35
					c-2.61,0.8-5.19,1.64-7.76,2.51c-7.72,2.59-15.38,5.37-22.94,8.42c-6.48,2.61-3.65,13.26,2.92,10.61
					c8.32-3.35,16.74-6.39,25.24-9.18c2.83-0.94,5.68-1.86,8.55-2.84c28.06-9.77,57.06-17.77,86.78-21.35
					c3.35-0.16,6.71-0.23,10.09-0.21c3-0.35,5.99-0.78,8.96-1.3c14.83-2.57,29.17-7.22,42.38-14.42c3.13-1.51,6.22-3.08,9.27-4.74
					c2.69-1.46,5.36-2.98,8.01-4.57c2.71-1.09,5.42-2.22,8.11-3.39c2.69-1.16,5.38-2.37,8.05-3.61
					c24.41-14.19,45.41-31.19,70.41-43.19c0-1,0-3-0.33-4.24C386.8,204.86,383.91,203.44,380.89,205z"/>
				<path class="st1" d="M390.19,248.24c-16.7,4.08-31.7,14.08-47.18,20.69c-3.25,1.29-6.56,2.47-9.97,3.49
					c-3.27,0.92-6.57,1.68-9.86,2.41s-6.6,1.44-9.9,2.16c-23.65,10.04-46.42,20.89-70.19,29.21c-3.4,1.19-6.81,2.32-10.17,3.36
					c-28.42,2.77-47.42,24.77-65.82,42.52c-2.58,2.22-5.23,4.38-7.98,6.44c-2.75,2.06-5.61,4.01-8.61,5.81c-2,1-5,1-8.38,1.48
					c-2.73,0.25-5.45,0.21-8.16,0.02c-2.68-0.2-5.37-0.55-8.01-0.91c-6.92-0.96-9.92,9.64-2.92,10.61c2.35,0.32,4.73,0.65,7.11,0.92
					c2.39,0.27,4.78,0.48,7.18,0.56c15.59,0.16,27.14-7.26,37.79-16.85c2.66-2.4,5.27-4.93,7.87-7.51
					c12.53-11.32,23.53-26.32,41.63-30.16c2.92-0.76,5.86-1.37,8.8-1.94c2.95-0.57,5.89-1.11,8.82-1.73
					c3.18-0.8,6.33-1.73,9.44-2.74c21.78-7.11,41.72-18.71,62.43-27.98c2.59-0.58,5.18-1.14,7.76-1.71
					c2.59-0.57,5.17-1.14,7.75-1.73c2.74-1.04,5.71-2.03,8.84-3.01c21.06-6.32,45.06-11.32,59.41-29.65
					C396.41,249.38,393.39,247.24,390.19,248.24z"/>
				<path class="st1" d="M394.38,274.52c-13.88,8.8-30.88,11.8-48.23,15.23c-3.05,0.58-6.08,1.19-9.09,1.85s-6,1.41-8.97,2.23
					c-2.97,0.82-5.92,1.71-8.84,2.66c-2.47,0.85-4.85,1.87-7.16,3c-9.6,4.83-17.6,11.83-25.6,18.83c-10,7.33-20.89,12-31.9,16.05
					c-2.75,1.01-5.51,1.99-8.26,2.95c-32.84,14-55.84,44-88.37,57.33c-2.43,0.75-4.9,1.18-7.42,1.19c-2.52,0-5.07-0.42-7.68-1.41
					c-3.22-1.37-6.23,0.32-7.63,2.69c-1.4,2.37-1.17,5.43,2.08,6.81c10.94,4.27,20.87,3.42,30.1-0.15c3.07-1.19,6.07-2.69,9-4.4
					c2.89-2.01,5.73-4.1,8.57-6.25c19.51-15.82,39.51-31.82,63.23-41.93c3.25-1.61,6.51-3.19,9.79-4.76
					c3.28-1.57,6.57-3.13,9.86-4.71c2.28-1.25,4.52-2.55,6.72-3.89c11.01-6.71,21.17-14.52,31.6-22.83
					c2.52-1.57,5.05-3.15,7.58-4.76c3.03-1.34,6.12-2.43,9.25-3.44c3.12-1.01,6.28-1.94,9.46-2.79c3.18-0.85,6.39-1.61,9.64-2.28
					c20.4-5.43,50.4-2.43,59.37-25.07C400.08,274.25,397.25,272.64,394.38,274.52z"/>
				<path class="st1" d="M409.09,301.51c-12.59,1.81-25.59,3.81-38.27,7.64c-2.55,0.66-5.11,1.33-7.68,2
					c-5.14,1.33-10.3,2.63-15.53,3.78c-3.53,0.72-7.04,1.52-10.5,2.48c-3.46,0.96-6.88,2.07-10.2,3.42c-2.22,0.9-4.4,1.91-6.52,3.04
					c-2.49,2.25-4.93,4.53-7.33,6.83c-5.86,6.49-11.41,13.46-17.14,20.33c-1.43,1.72-2.87,3.43-4.34,5.13
					c-5.08,6.16-10.08,13.16-17.08,17.16c-11,7-22,10-31,19c-13,13-22,29-37.01,38.41c-2.06,1.43-4.13,2.77-6.28,3.95
					c-4.29,2.36-8.86,4.08-14,4.52c-2.87,0.57-5.77,0.97-8.71,1.25c-11.75,1.12-24,0.38-36,0.88c-2,0-2,5,0,6c10,6,22,6,33,5
					c3.75-0.25,7.34-0.81,10.8-1.65c3.46-0.84,6.77-1.95,9.97-3.3c3.12-1.02,5.93-2.54,8.58-4.29c2.65-1.76,5.15-3.76,7.66-5.76
					c25-19,44-44,73-59c6-4,10-9,14.78-13.72c1.94-1.96,3.82-3.98,5.63-6.07c5.42-6.26,10.2-13.11,14.07-20.74
					c2.23-2.29,4.93-4.11,8.34-4.75c2.12-1.1,4.31-2.11,6.59-3c2.27-0.89,4.63-1.67,7.08-2.31c2.9-0.77,5.81-1.49,8.74-2.17
					c2.93-0.69,5.87-1.35,8.81-1.98c2.83-1.37,5.99-2.35,9.35-3.12c15.62-4.12,33.62-3.12,47.74-14.49
					C414.94,303.44,412.54,301.07,409.09,301.51z"/>
				<path class="st1" d="M414.66,321.91c-20.16,3.41-37.16,15.41-53.93,24.96c-2.9,1.46-5.76,2.96-8.52,4.51
					c-2.67,1.89-5.33,3.82-7.97,5.77c-2.65,1.95-5.28,3.91-7.91,5.89c-2.28,1.83-4.6,3.63-6.94,5.39c-2.34,1.77-4.71,3.51-7.09,5.23
					c-4.11,3.21-8.28,6.29-12.51,9.27c-2.11,1.49-4.23,2.95-6.36,4.39c-26.94,16.02-54.94,31.02-76.99,53.13
					c-2.47,2.21-4.85,4.41-7.22,6.62c-2.35,2.21-4.68,4.43-7.01,6.68c-2.44,2.05-4.87,4.02-7.32,5.95
					c-7.34,5.79-14.96,11.28-23.09,16.46c-2.72,2.08-5.23,4.22-7.68,6.4c-14.69,13.07-28.53,27.06-40.65,42.6
					c-4.3,5.52,3.43,13.36,7.78,7.78c11.73-15.03,25.01-28.53,39.1-41.18c2.82-2.53,5.67-5.02,8.55-7.49
					c7.67-5.68,15.21-11.64,22.69-17.7c2.5-2.02,4.99-4.06,7.49-6.1c2.34-1.91,4.68-3.85,7.01-5.79c2.34-1.94,4.68-3.9,7.02-5.86
					c21.37-16.49,41.37-35.49,65.8-46.65c3.64-1.72,7.3-3.5,10.8-5.5c3.5-2,6.82-4.22,9.84-6.85c2.46-1.63,4.89-3.28,7.3-4.96
					c7.23-5.04,14.26-10.3,21.24-15.56c2.71-2.12,5.42-4.21,8.13-6.25c2.91-1.89,5.91-3.69,8.94-5.5
					c17.31-12.23,34.31-22.23,55.31-27.23c1-1,1-3,0.74-4.62C420.54,323.34,418.12,321.3,414.66,321.91z"/>
				<path class="st1" d="M418.6,339.53c-19.1,4.79-32.1,18.79-45.11,32.47c-2.37,2.22-4.73,4.32-6.99,6.46
					c-1.9,2.69-3.9,5.25-5.98,7.72c-18.01,20.14-42.01,34.14-63.01,52.14c-6,6-11,13-16.62,19.43c-1.36,1.63-2.72,3.26-4.07,4.9
					c-4.05,4.9-8.06,9.8-12.05,14.69c-4.44,5.44,3.3,13.27,7.78,7.78c4.63-5.67,9.29-11.39,14.01-17.1c1.57-1.9,3.16-3.81,4.75-5.71
					c4.2-6.99,10.2-11.99,15.2-17.99c19-17,40-29,56.7-46.88c2.08-2.09,4.13-4.2,6.16-6.33c2.03-2.13,4.04-4.28,6.03-6.44
					c14.11-15.35,30.11-27.35,49.11-35.35c1-1,1-4,0.6-5.57C424.36,340.93,421.95,338.61,418.6,339.53z"/>
				<path class="st1" d="M395.48,367.8c-2.98,6.52-5.98,12.52-9,19.98c-1.42,3.06-2.76,6.11-4.03,9.17
					c-6.35,15.31-10.76,31.25-12.11,47.72c0.11,3.33,0.41,6.66,0.93,10s1.23,6.69,2.17,10.03c1.91,6.8,12.53,3.91,10.61-2.92
					c-0.86-3.07-1.51-6.13-1.96-9.18s-0.71-6.1-0.79-9.13c0.13-13.21,3.3-26.37,8.29-38.77c1-2.48,2.07-4.93,3.2-7.34
					c2.72-10.03,16.72-21.03,10.34-32.03C400.73,363.83,397.39,364.23,395.48,367.8z"/>
			</g>
		</g>
	</g>
	<g>
		<g>
			<rect x="378.57" y="176.81" class="st3" width="5.6" height="40.24"/>
			<path class="st4" d="M342.23,93.42v83.39h36.34h5.6h36.9V93.42H342.23z M381.66,160.92c-14.25,0-25.8-11.55-25.8-25.8
				c0-14.25,11.55-25.8,25.8-25.8c14.25,0,25.8,11.55,25.8,25.8C407.46,149.37,395.91,160.92,381.66,160.92z"/>
			
				<ellipse transform="matrix(0.9732 -0.2298 0.2298 0.9732 -20.8342 91.3017)" class="st1" cx="381.66" cy="135.12" rx="25.8" ry="25.8"/>
		</g>
		<path class="st3" d="M635.67,326.32c-4.95,0-21.88-14.86-21.88-14.86l3.72-1.24c-4.95-10.32,6.19-35.09,8.26-43.35
			c2.06-8.26,2.06-52.43,1.65-71.42c-0.41-18.99-20.64-22.71-27.66-29.72c-4.86-4.86-15.84-11.69-26.66-16.53
			c-12.26,26.81-49.03,106.87-51.78,108.59c-3.3,2.06-23.53-3.72-23.53-3.72l-34.32-92.51c-6.63,2.61-27.84,7.71-32.56,12.43
			c-4.95,4.95-9.49,12.8-18.16,19.4c-5.58,4.25-9.28,10.23-11.86,17.35c-0.28,1.19-0.77,2.71-1.42,4.39
			c-0.77,2.68-1.43,5.48-1.99,8.39c-1.58,8.15-5.33,15.96-8.17,20.99c10.35,3.17,18.75,5.92,19.55,6.72c0.44,0.44,0.4,2.41,0,5.32
			l9.55,2.77c0,0,0.02,0.19,0.04,0.52c17.74,0.57,79.14,2.58,90.75,3.52c13.6,1.1,16.54-3.68,29.4-4.41s31.24,16.54,31.24,16.54
			c3.31-0.37,4.78,4.04,5.15,9.56c0.19,2.83-3.22,6.15-7.37,9.61l19.34,6.88c0,0-13.62,46.24-38.39,42.93s-104.03-23.53-116-23.12
			c-1.48,0.05-3.07,0.24-4.76,0.5c-0.89,5.65-4.27,28.33-3.91,46.97c0.26,13.63,8.67,24.75,14.78,31.06
			c9.14-1.09,22.14-2.32,32.89-2.08c0.1,0,0.2,0,0.3,0.01c9.75-20.16,55.08-25.95,81.24-30.64c25.65-4.59,79-35.82,82.65-40.32
			C636.04,326.52,636.03,326.32,635.67,326.32z"/>
		<circle class="st5" cx="685.69" cy="116.11" r="43.03"/>
		<circle class="st6" cx="107.5" cy="130.78" r="44.47"/>
		<path class="st7" d="M402.67,301.06c-0.49,0.18-0.99,0.36-1.51,0.5C401.98,302.12,402.44,301.82,402.67,301.06z"/>
		<path class="st7" d="M389.97,307.48c0,0-1.7-1.26-3.91-3.07c-0.48,0.41-0.89,0.77-1.22,1.06
			C386.74,306.51,388.48,307.24,389.97,307.48z"/>
		<path class="st7" d="M394.92,297.63c2.06,1.2,3.84,2.34,5.08,3.16l-4.91-3.27C395.03,297.56,394.97,297.59,394.92,297.63z"/>
		<path class="st8" d="M429.11,439.87c-13.6-1.84-27.2-6.98-27.2-6.98s-8.82,3.68-22.42,2.94c-8.77-0.47-14.62-1.41-17.68-2.01
			c-1.43,5-3.62,8.89-6.94,10.09c-12.13,4.41-63.95-5.88-63.95-5.88s-30.27,35.32-31.2,44.57l253.57,5.79
			c0,0-14.7-27.57-32.71-38.96c-8.73-5.52-20.04-8.28-29.89-9.49c0.08,0.11,0.12,0.21,0.12,0.3
			C450.79,441.71,442.71,441.71,429.11,439.87z"/>
		<path class="st9" d="M339.23,248.91c0.68,1.43,2.45,8.21,3.38,10.34c3.27-6.78,6.98-23.38,7.95-27.86
			c-1.71-0.49-2.7-0.77-2.7-0.77L339.23,248.91z"/>
		<path class="st7" d="M413.1,292.75l-0.22-0.37c-0.08,0.12-0.16,0.24-0.24,0.36L413.1,292.75z"/>
		<path class="st10" d="M309.93,125.8c3.09-2.01,6.14-4.53,6.69-5.44c0.47-0.79-1.19-3.41-2.77-6.51c-0.35,2.76-0.95,5.17-1.64,6.88
			C311.58,122.3,310.78,124.01,309.93,125.8z"/>
		<path class="st10" d="M309.75,107.03c-0.37-8.46-2.39-18.01-1.95-24.16c0.74-10.29-2.57-37.86-9.56-41.9
			c0,0-2.94,13.97-7.35,18.38s-16.54,5.88-20.22,11.39c-3.68,5.51-15.07,11.03-16.54,13.97c-1.47,2.94-1.1,10.66-3.68,13.6
			c-2.57,2.94-3.31,7.35-0.74,16.17c2.57,8.82-0.74,38.59-34.92,33.08c-4.55-0.73-8.39-1.79-11.65-3.06
			c-6.01,11.24-16.1,30.29-19.72,38.02c11.47-12.38,21.14-13.85,23.65-13.64c4.41,0.37,18.74-4.04,35.28,12.86
			c2.32,2.37,4.61,4.71,6.86,6.97c13.78,13.89,25.63,24.91,28.79,22.06c3.33-3-6.93-28.95-11.89-35.42c0.3-0.23,0.61-0.48,0.92-0.72
			c7.52-5.91,19.03-15.03,19.03-15.03s8.48,0.09,11.42-9.84c1.07-3.61,1.22-7.35,2.52-11.03c1.54-4.4,3.67-8.7,5.5-12.57
			c0.85-1.79,1.64-3.5,2.28-5.07c0.69-1.71,1.28-4.12,1.64-6.88C309.72,112,309.86,109.57,309.75,107.03z"/>
		<path class="st7" d="M401.64,209.24c-0.52,1.42-0.99,2.89-1.42,4.39C400.87,211.95,401.36,210.43,401.64,209.24z"/>
		<path class="st1" d="M375.42,396.45c-0.02-2.32-0.1-7.59-0.36-16.24c-0.22-7.17-9.42-45.67-18.66-78.38
			c-0.83-2.93-1.65-5.8-2.47-8.61c-0.53-1.83-1.07-3.62-1.59-5.38c-3.65-12.17-7.08-22.5-9.73-28.59c-0.93-2.14-2.7-8.92-3.38-10.34
			l8.63-18.29c0,0-25.36-24.99-36.39-34.18c-8.82-7.35-35.95-18.68-44.42-21.81c-0.31,0.25-0.62,0.49-0.92,0.72
			c4.96,6.47,15.22,32.42,11.89,35.42c-3.16,2.84-15.02-8.17-28.79-22.06c-2.25-2.26-4.54-4.6-6.86-6.97
			c-16.54-16.91-30.87-12.5-35.28-12.86c-2.52-0.21-12.18,1.26-23.65,13.64c-8.63,9.31-18.29,24.78-26.7,50.37
			c-19.59,59.59-24.49,235.1-22.86,244.9l125.03,0.57c0-0.08,0.03-0.19,0.04-0.27c0.93-9.24,31.2-44.57,31.2-44.57
			s51.82,10.29,63.95,5.88c3.32-1.21,5.51-5.09,6.94-10.09c0.99-3.46,1.62-7.44,2-11.46c1.09-11.38,0.25-22.92,0.25-22.92
			S368.5,395.49,375.42,396.45z"/>
		<path class="st7" d="M401.16,301.56c-0.3-0.2-0.69-0.47-1.16-0.77L401.16,301.56z"/>
		<path class="st9" d="M420.05,261.88c-0.02-0.33-0.04-0.52-0.04-0.52l-9.55-2.77c-0.76,5.59-2.82,14.64-5.31,22.94
			c-2.75,9.18-6.03,17.45-8.66,19.15c-0.19,0.12-0.37,0.24-0.55,0.37l4.91,3.27c0.46,0.31,0.85,0.57,1.16,0.77
			c0.52-0.14,1.02-0.32,1.51-0.5c2.35-0.86,4.37-2.14,6.11-3.72c1.48-1.34,2.76-2.89,3.86-4.6c0.08-0.12,0.16-0.24,0.24-0.36
			C421.14,283.99,420.27,265.2,420.05,261.88z"/>
		<path class="st11" d="M572.9,295.42c-3.93,3.27-8.52,6.66-11.38,9.87c-4.98,5.6-22.61-5.4-27.89-8.9l-22.66-0.27l-93.35-1.11
			l-0.46-0.01c-1.1,1.71-2.38,3.26-3.86,4.6c-1.74,1.58-3.76,2.86-6.11,3.72c-0.22,0.76-0.68,1.06-1.51,0.5l-1.16-0.77
			c-1.25-0.82-3.03-1.96-5.08-3.16c-5.4-3.14-12.71-6.67-17.33-5.84c-4.95,0.88,3.22,8.3,8.48,12.61c2.21,1.81,3.91,3.07,3.91,3.07
			c-1.49-0.24-3.24-0.96-5.13-2.01c-0.62,0.55-0.97,0.87-0.97,0.87l-29.04-11.76l-0.92-1.35c0.82,2.81,1.65,5.68,2.47,8.61
			c3.34,2.65,18.34,14.31,31.1,20.5c12.66,6.15,29.13-0.06,41.07-1.97c1.68-0.27,3.28-0.45,4.76-0.5
			c11.97-0.41,91.23,19.82,116,23.12s38.39-42.93,38.39-42.93L572.9,295.42z"/>
		<path class="st10" d="M571.35,278.52c0,0-18.38-17.27-31.24-16.54s-15.8,5.51-29.4,4.41c-11.61-0.94-73-2.95-90.75-3.52
			c0.22,3.31,1.09,22.1-6.33,34.03l0.22,0.37l93.35,1.11l22.66,0.27c5.28,3.5,22.91,14.5,27.89,8.9c2.86-3.22,7.45-6.6,11.38-9.87
			c4.15-3.46,7.56-6.77,7.37-9.61C576.13,282.56,574.66,278.15,571.35,278.52z"/>
		<path class="st3" d="M522.08,256.29c2.75-1.72,39.52-81.78,51.78-108.59c-4.82-2.16-9.6-3.92-13.8-4.94c0,0,0,25.83-21.03,35.04
			l-0.03,0.05c0,0-26.01,44.58-26.42,46.24c-0.41,1.65-18.16-59.03-18.16-59.03c-4.3-7.08-7.97-10.6-9.23-16.44
			c-5.33,2.78-15.92,9.15-20.08,11.07c-0.25,0.12-0.55,0.24-0.88,0.37l34.32,92.51C498.55,252.57,518.77,258.35,522.08,256.29z"/>
		<path class="st11" d="M583.17,120.81c-0.25-1.26-0.68-2.35-1.19-3.16c-2.89-4.54-9.91,2.48-9.91,2.48s6.61-11.91,4.13-18.58
			c-0.28-0.76-1.68-1.38-3.25-1.97c-2.12-0.81-4.56-1.57-5.01-2.57c-3.72-8.26-9.91-3.72-14.04-10.73
			c-4.13-7.02-3.3-5.37-11.97-7.02c-8.67-1.65-18.16,0.83-26.01,0c-7.84-0.83-8.26-3.3-9.08,2.48c-0.83,5.78-3.72,13.62-3.72,13.62
			s-4.54,18.99-8.67,37.15c-0.72,3.16-1.14,5.82-1.33,8.14c-0.23,2.85-0.08,5.18,0.35,7.21c1.26,5.83,4.93,9.36,9.23,16.44
			c14.04,17.75,26.42,4.54,26.42,4.54s0,0,14.86-4.13c14.86-4.13,15.69-15.27,17.75-19.82c1.36-2.99,3.79-3.29,5.29-3.15
			c0.78,0.07,1.31,0.26,1.31,0.26c3.18-1.35,5.75-2.92,7.8-4.6C582.84,131.92,584.06,125.24,583.17,120.81z"/>
		<path class="st1" d="M516.3,180.74c0,0-14.86-4.13-21.88-15.69c0,0,17.75,60.68,18.16,59.03c0.41-1.65,26.42-46.24,26.42-46.24
			l0.03-0.05C533.21,180.35,525.78,181.63,516.3,180.74z"/>
		<path class="st7" d="M560.06,142.76c0,0-0.54-0.19-1.31-0.26C559.21,142.58,559.65,142.66,560.06,142.76z"/>
		<path class="st11" d="M562.51,142.5c-1.5-0.14-3.93,0.16-5.29,3.15c-2.06,4.54-2.89,15.69-17.75,19.82
			c-14.86,4.13-14.86,4.13-14.86,4.13s-12.38,13.21-26.42-4.54c7.02,11.56,21.88,15.69,21.88,15.69c9.49,0.89,16.91-0.39,22.73-2.94
			c21.02-9.22,21.03-35.04,21.03-35.04C563.43,142.66,562.98,142.58,562.51,142.5z"/>
		<path class="st7" d="M472.43,396.72c0.06-0.14,0.13-0.27,0.2-0.41c-0.1,0-0.2,0-0.3-0.01
			C472.36,396.45,472.4,396.59,472.43,396.72z"/>
		<path class="st7" d="M690.24,126.5c-4.17,0-7.99-1.43-11.04-3.82l-20.54,21.98l-4.54-4.13l20.96-22.4
			c-1.76-2.78-2.79-6.06-2.79-9.59c0-9.92,8.04-17.96,17.96-17.96s17.96,8.04,17.96,17.96S700.16,126.5,690.24,126.5z"/>
		<path class="st12" d="M690.24,90.58c-9.92,0-17.96,8.04-17.96,17.96c0,3.53,1.03,6.81,2.79,9.59l-20.96,22.4l4.54,4.13
			l20.54-21.98c3.05,2.38,6.87,3.82,11.04,3.82c9.92,0,17.96-8.04,17.96-17.96S700.16,90.58,690.24,90.58z M690.24,123.09
			c-3.27,0-6.28-1.09-8.7-2.91c-1.65-1.24-3.04-2.81-4.05-4.63c-1.15-2.08-1.8-4.47-1.8-7.01c0-8.04,6.51-14.55,14.55-14.55
			c8.04,0,14.55,6.51,14.55,14.55C704.79,116.57,698.28,123.09,690.24,123.09z"/>
		<path class="st3" d="M762.19,364.43c-14.04-18.58-40.46-27.66-51.6-27.66c-11.15,0-40.04,1.24-44.58-2.06s-8.26-6.61-14.86-4.54
			c-3.33,1.04-8.66,0.51-13.13-0.28c-3.64,4.5-56.99,35.73-82.65,40.32c-26.15,4.68-71.49,10.48-81.24,30.64
			c4.34,0.11,8.3,0.45,11.47,1.15c5.43,1.19,8.43,3.87,10.01,6.96c3.35,6.54,0.31,14.92,0.31,14.92l-7.24-0.64l1.46,1.46
			c0,0,17.75,5.37,21.05,17.75c2.21,8.27,1.47,13.78,3.81,18.37c1.16,2.28,3.08,4.34,6.51,6.4c10.32,6.19,16.93,16.93,16.93,16.93
			l87.93-4.13l-5.92-23.29l-6.46-25.42c0,0,26.44,17.74,68.79-0.02c2.87-1.2,5.81-2.57,8.82-4.11l9.08,52.84l69.35,1.65
			C770.04,481.67,776.23,383.01,762.19,364.43z"/>
		<path class="st4" d="M493.35,408.2c-1.58-3.09-4.58-5.77-10.01-6.96c-3.17-0.7-7.13-1.05-11.47-1.15
			c-0.07,0.14-0.13,0.27-0.2,0.41c-0.03-0.13-0.07-0.28-0.11-0.41c-10.75-0.23-23.75,0.99-32.89,2.08
			c-6.81,0.81-11.48,1.55-11.48,1.55l0.83,13.62l32.61,2.87l25.78,2.27l7.24,0.64C493.66,423.12,496.7,414.74,493.35,408.2z"/>
		<path class="st1" d="M137.54,114.39l-3.66-2.53c-0.5-0.34-0.36-1.11,0.23-1.26l4.87-1.22c0.79-0.2,1.58,0.32,1.71,1.12l0.9,5.42
			c0.11,0.68-0.67,1.14-1.2,0.71L137.54,114.39"/>
		<path class="st8" d="M373.26,53.77h-7.4v-7.4c0-2.04-1.66-3.7-3.7-3.7h-0.82c-2.04,0-3.7,1.66-3.7,3.7v7.4h-7.4
			c-2.04,0-3.7,1.66-3.7,3.7v0.82c0,2.04,1.66,3.7,3.7,3.7h7.4v7.4c0,2.04,1.66,3.7,3.7,3.7h0.82c2.04,0,3.7-1.66,3.7-3.7v-7.4h7.4
			c2.04,0,3.7-1.66,3.7-3.7v-0.82C376.96,55.43,375.3,53.77,373.26,53.77z"/>
		<path class="st8" d="M156.87,51.84h-4.5v-4.49c0-1.24-1.01-2.25-2.25-2.25h-0.5c-1.24,0-2.25,1.01-2.25,2.25v4.49h-4.49
			c-1.24,0-2.25,1.01-2.25,2.25v0.5c0,1.24,1.01,2.25,2.25,2.25h4.49v4.49c0,1.24,1.01,2.25,2.25,2.25h0.5
			c1.24,0,2.25-1.01,2.25-2.25v-4.49h4.5c1.24,0,2.25-1.01,2.25-2.25v-0.5C159.12,52.85,158.11,51.84,156.87,51.84z"/>
		<path class="st8" d="M462.55,102.82h-3.73v-3.73c0-1.03-0.84-1.87-1.87-1.87h-0.41c-1.03,0-1.87,0.84-1.87,1.87v3.73h-3.73
			c-1.03,0-1.87,0.84-1.87,1.87v0.41c0,1.03,0.84,1.87,1.87,1.87h3.73v3.73c0,1.03,0.84,1.87,1.87,1.87h0.41
			c1.03,0,1.87-0.84,1.87-1.87v-3.73h3.73c1.03,0,1.87-0.84,1.87-1.87v-0.41C464.42,103.66,463.58,102.82,462.55,102.82z"/>
		<path class="st8" d="M98.46,223.16h-7.06v-7.06c0-1.95-1.58-3.53-3.53-3.53h-0.78c-1.95,0-3.53,1.58-3.53,3.53v7.06h-7.06
			c-1.95,0-3.53,1.58-3.53,3.53v0.78c0,1.95,1.58,3.53,3.53,3.53h7.06v7.06c0,1.95,1.58,3.53,3.53,3.53h0.78
			c1.95,0,3.53-1.58,3.53-3.53v-7.06h7.06c1.95,0,3.53-1.58,3.53-3.53v-0.78C101.99,224.74,100.41,223.16,98.46,223.16z"/>
		<path class="st8" d="M696.08,199.24h-10.26v-10.26c0-2.84-2.3-5.14-5.14-5.14h-1.13c-2.84,0-5.14,2.3-5.14,5.14v10.26h-10.26
			c-2.84,0-5.14,2.3-5.14,5.14v1.13c0,2.84,2.3,5.14,5.14,5.14h10.26v10.26c0,2.84,2.3,5.14,5.14,5.14h1.13
			c2.84,0,5.14-2.3,5.14-5.14v-10.26h10.26c2.84,0,5.14-2.3,5.14-5.14v-1.13C701.22,201.54,698.92,199.24,696.08,199.24z"/>
		<path class="st8" d="M738.56,74.71h-3.07v-3.07c0-0.85-0.69-1.54-1.54-1.54h-0.34c-0.85,0-1.54,0.69-1.54,1.54v3.07H729
			c-0.85,0-1.54,0.69-1.54,1.54v0.34c0,0.85,0.69,1.54,1.54,1.54h3.07v3.07c0,0.85,0.69,1.54,1.54,1.54h0.34
			c0.85,0,1.54-0.69,1.54-1.54v-3.07h3.07c0.85,0,1.54-0.69,1.54-1.54v-0.34C740.1,75.4,739.41,74.71,738.56,74.71z"/>
		<circle class="st5" cx="169.33" cy="175.37" r="4.49"/>
		<circle class="st5" cx="613.34" cy="114.31" r="3.26"/>
		<circle class="st5" cx="699.9" cy="225.2" r="3.26"/>
		<g>
			<defs>
				<path id="SVGID_3_" d="M382.97,406.9c-0.02-2.32-0.1-7.59-0.36-16.24c-0.22-7.17-9.42-45.67-18.66-78.38
					c-0.83-2.93-1.65-5.8-2.47-8.61c-0.53-1.83-1.07-3.62-1.59-5.38c-3.65-12.17-7.08-22.5-9.73-28.59
					c-0.93-2.14-2.7-8.92-3.38-10.34l8.63-18.29c0,0-25.36-24.99-36.39-34.18c-8.82-7.35-35.95-18.68-44.42-21.81
					c-0.31,0.25-0.62,0.49-0.92,0.72c4.96,6.47,15.22,32.42,11.89,35.42c-3.16,2.84-15.02-8.17-28.79-22.06
					c-2.25-2.26-4.54-4.6-6.86-6.97c-16.54-16.91-30.87-12.5-35.28-12.86c-2.52-0.21-12.18,1.26-23.65,13.64
					c-8.63,9.31-18.29,24.78-26.7,50.37c-19.59,59.59-24.49,235.1-22.86,244.9l125.03,0.57c0-0.08,0.03-0.19,0.04-0.27
					c0.93-9.24,31.2-44.57,31.2-44.57s51.82,10.29,63.95,5.88c3.32-1.21,5.51-5.09,6.94-10.09c0.99-3.46,1.62-7.44,2-11.46
					c1.09-11.38,0.25-22.92,0.25-22.92S376.05,405.94,382.97,406.9z"/>
			</defs>
			<use xlink:href="#SVGID_3_"  style="overflow:visible;fill:#F5C65D;"/>
			<clipPath id="SVGID_4_">
				<use xlink:href="#SVGID_3_"  style="overflow:visible;"/>
			</clipPath>
		</g>
		<path class="st3" d="M257.52,16.5c-42.64-8.09-54.03,34.18-58.44,43.37c-4.41,9.19-7.72,11.76-7.72,11.76
			c-23.89,19.85-2.57,52.93-2.57,52.93s-3.86,17.68,17.39,25.98c3.26,1.27,7.1,2.33,11.65,3.06c34.18,5.51,37.49-24.26,34.92-33.08
			c-2.57-8.82-1.84-13.23,0.74-16.17c2.57-2.94,2.21-10.66,3.68-13.6c1.47-2.94,12.86-8.45,16.54-13.97
			c3.68-5.51,15.8-6.98,20.22-11.39S301.26,47,301.26,47C304.2,42.23,300.16,24.58,257.52,16.5z"/>
		<path class="st8" d="M616.97,433.82l6.46,25.42c15.87-3.36,31.87-8.25,37.39-9.76c4.7-1.28,15.62-8.81,24.94-15.68
			C643.4,451.56,616.97,433.82,616.97,433.82z"/>
		<path class="st8" d="M493.12,427.22l-1.46-1.46l-25.78-2.27c7.62,11.28,33.49,28.43,52.11,39.86c-2.34-4.59-1.6-10.1-3.81-18.37
			C510.87,432.58,493.12,427.22,493.12,427.22z"/>
		<path class="st10" d="M449.17,439.19c-1.16-1.61-10.66-5.03-17.89-13.3c-7.72-8.82-14.7-14.7-24.99-19.11
			c-6.24-2.67-20.97-5.07-31.62-6.55c-6.92-0.96-12.12-1.53-12.12-1.53s0.85,11.55-0.25,22.92c-0.38,4.01-1.01,8-2,11.46
			c3.06,0.6,8.91,1.53,17.68,2.01c13.6,0.74,22.42-2.94,22.42-2.94s13.6,5.15,27.2,6.98c13.6,1.84,21.69,1.84,21.69,0.37
			C449.29,439.4,449.25,439.3,449.17,439.19z"/>
	</g>
	<g>
		<path class="st7" d="M407.15,303.1c-0.49,0.18-0.99,0.36-1.51,0.5C406.47,304.16,406.93,303.86,407.15,303.1z"/>
		<path class="st7" d="M394.46,309.52c0,0-1.7-1.26-3.91-3.07c-0.48,0.41-0.89,0.77-1.22,1.06
			C391.22,308.55,392.97,309.28,394.46,309.52z"/>
		<path class="st7" d="M399.4,299.67c2.06,1.2,3.84,2.34,5.08,3.16l-4.91-3.27C399.52,299.6,399.46,299.63,399.4,299.67z"/>
		<path class="st7" d="M395.7,231.49c-5.37,4.95-10.73,4.95-10.73,9.91c0,0.26,0,0.51,0,0.76c3.27,0.98,6.51,1.95,9.58,2.89
			c2.84-5.03,6.59-12.84,8.17-20.99c0.56-2.91,1.22-5.71,1.99-8.39C402.55,221.29,398.73,228.7,395.7,231.49z"/>
		<path class="st7" d="M432.84,437.39c-13.6-1.84-27.2-6.98-27.2-6.98s-8.82,3.68-22.42,2.94c-8.77-0.47-14.62-1.41-17.68-2.01
			c-1.43,5-3.62,8.89-6.94,10.09c-12.13,4.41-63.95-5.88-63.95-5.88s-30.27,35.32-31.2,44.57l253.57,5.79
			c0,0-14.7-27.57-32.71-38.96c-8.73-5.52-20.04-8.28-29.89-9.49c0.08,0.11,0.12,0.21,0.12,0.3
			C454.52,439.23,446.44,439.23,432.84,437.39z"/>
		<path class="st7" d="M454.41,437.46c-1.16-1.61-10.66-5.03-17.89-13.3c-7.72-8.82-14.7-14.7-24.99-19.11
			c-6.24-2.67-20.97-5.07-31.62-6.55c-6.92-0.96-12.12-1.53-12.12-1.53s0.85,11.55-0.25,22.92c-0.38,4.01-1.01,8-2,11.46
			c3.06,0.6,8.91,1.53,17.68,2.01c13.6,0.74,22.42-2.94,22.42-2.94s13.6,5.15,27.2,6.98c13.6,1.84,21.69,1.84,21.69,0.37
			C454.52,437.67,454.48,437.57,454.41,437.46z"/>
		<path class="st7" d="M343.72,250.95c0.68,1.43,2.45,8.21,3.38,10.34c3.27-6.78,6.98-23.38,7.95-27.86
			c-1.71-0.49-2.7-0.77-2.7-0.77L343.72,250.95z"/>
		<path class="st7" d="M417.58,294.79l-0.22-0.37c-0.08,0.12-0.16,0.24-0.24,0.36L417.58,294.79z"/>
		<path class="st7" d="M258.99,12.5c-42.64-8.09-54.03,34.18-58.44,43.37c-4.41,9.19-7.72,11.76-7.72,11.76
			c-23.89,19.85-2.57,52.93-2.57,52.93s-3.86,17.68,17.39,25.98c3.26,1.27,7.1,2.33,11.65,3.06c34.18,5.51,37.49-24.26,34.92-33.08
			c-2.57-8.82-1.84-13.23,0.74-16.17c2.57-2.94,2.21-10.66,3.68-13.6c1.47-2.94,12.86-8.45,16.54-13.97
			c3.68-5.51,15.8-6.98,20.22-11.39s7.35-18.38,7.35-18.38C305.67,38.23,301.63,20.59,258.99,12.5z"/>
		<path class="st7" d="M310.01,128.21c3.09-2.01,6.14-4.53,6.69-5.44c0.47-0.79-1.19-3.41-2.77-6.51c-0.35,2.76-0.95,5.17-1.64,6.88
			C311.65,124.7,310.86,126.41,310.01,128.21z"/>
		<path class="st7" d="M314.23,109.08c-0.37-8.46-2.39-18.01-1.95-24.16c0.74-10.29-2.57-37.86-9.56-41.9c0,0-2.94,13.97-7.35,18.38
			s-16.54,5.88-20.22,11.39c-3.68,5.51-15.07,11.03-16.54,13.97c-1.47,2.94-1.1,10.66-3.68,13.6c-2.57,2.94-3.31,7.35-0.74,16.17
			c2.57,8.82-0.74,38.59-34.92,33.08c-4.55-0.73-8.39-1.79-11.65-3.06c-6.01,11.24-16.1,30.29-19.72,38.02
			c11.47-12.38,21.14-13.85,23.65-13.64c4.41,0.37,18.74-4.04,35.28,12.86c2.32,2.37,4.61,4.71,6.86,6.97
			c13.78,13.89,25.63,24.91,28.79,22.06c3.33-3-6.93-28.95-11.89-35.42c0.3-0.23,0.61-0.48,0.92-0.72
			c7.52-5.91,19.03-15.03,19.03-15.03s8.48,0.09,11.42-9.84c1.07-3.61,1.22-7.35,2.52-11.03c1.54-4.4,3.67-8.7,5.5-12.57
			c0.85-1.79,1.64-3.5,2.28-5.07c0.69-1.71,1.28-4.12,1.64-6.88C314.21,114.04,314.34,111.61,314.23,109.08z"/>
		<path class="st12" d="M384.96,241.4c0-4.95,5.37-4.95,10.73-9.91c3.03-2.8,6.85-10.2,9.01-15.82c0.43-1.51,0.91-2.97,1.42-4.39
			c0.44-1.87,0.36-2.93-0.52-2.49c-3.3,1.65-44.17-7.43-44.17-7.43c4.67,6.54-0.28,24.57-3,33.05c6.27,1.8,16.52,4.77,26.53,7.76
			C384.96,241.91,384.96,241.66,384.96,241.4z"/>
		<path class="st7" d="M406.12,211.28c-0.52,1.42-0.99,2.89-1.42,4.39C405.35,213.99,405.84,212.47,406.12,211.28z"/>
		<path class="st12" d="M414.09,251.78c-0.8-0.8-9.2-3.55-19.55-6.72c-3.07-0.94-6.31-1.92-9.58-2.89
			c-10.01-2.99-20.26-5.95-26.53-7.76c-1.32-0.38-2.46-0.7-3.38-0.97c-0.97,4.48-4.68,21.08-7.95,27.86
			c2.64,6.09,6.08,16.42,9.73,28.59c0.53,1.76,1.06,3.55,1.59,5.38l0.92,1.35l29.04,11.76c0,0,0.35-0.32,0.97-0.87
			c0.33-0.29,0.75-0.66,1.22-1.06c-5.26-4.31-13.43-11.73-8.48-12.61c4.62-0.82,11.93,2.7,17.33,5.84c0.06-0.04,0.12-0.08,0.17-0.11
			c0.18-0.12,0.37-0.25,0.55-0.37c2.63-1.7,5.91-9.97,8.66-19.15c2.49-8.31,4.55-17.36,5.31-22.94
			C414.49,254.19,414.53,252.22,414.09,251.78z"/>
		<path class="st7" d="M379.9,398.49c-0.02-2.32-0.1-7.59-0.36-16.24c-0.22-7.17-9.42-45.67-18.66-78.38
			c-0.83-2.93-1.65-5.8-2.47-8.61c-0.53-1.83-1.07-3.62-1.59-5.38c-3.65-12.17-7.08-22.5-9.73-28.59c-0.93-2.14-2.7-8.92-3.38-10.34
			l8.63-18.29c0,0-25.36-24.99-36.39-34.18c-8.82-7.35-35.95-18.68-44.42-21.81c-0.31,0.25-0.62,0.49-0.92,0.72
			c4.96,6.47,15.22,32.42,11.89,35.42c-3.16,2.84-15.02-8.17-28.79-22.06c-2.25-2.26-4.54-4.6-6.86-6.97
			c-16.54-16.91-30.87-12.5-35.28-12.86c-2.52-0.21-12.18,1.26-23.65,13.64c-8.63,9.31-18.29,24.78-26.7,50.37
			c-19.59,59.59-24.49,235.1-22.86,244.9l125.03,0.57c0-0.08,0.03-0.19,0.04-0.27c0.93-9.24,31.2-44.57,31.2-44.57
			s51.82,10.29,63.95,5.88c3.32-1.21,5.51-5.09,6.94-10.09c0.99-3.46,1.62-7.44,2-11.46c1.09-11.38,0.25-22.92,0.25-22.92
			S372.98,397.53,379.9,398.49z"/>
		<path class="st7" d="M405.64,303.6c-0.3-0.2-0.69-0.47-1.16-0.77L405.64,303.6z"/>
		<path class="st7" d="M423.69,260.39c-0.02-0.33-0.04-0.52-0.04-0.52l-9.55-2.77c-0.76,5.59-2.82,14.64-5.31,22.94
			c-2.75,9.18-6.03,17.45-8.66,19.15c-0.19,0.12-0.37,0.24-0.55,0.37l4.91,3.27c0.46,0.31,0.85,0.57,1.16,0.77
			c0.52-0.14,1.02-0.32,1.51-0.5c2.35-0.86,4.37-2.14,6.11-3.72c1.48-1.34,2.76-2.89,3.86-4.6c0.08-0.12,0.16-0.24,0.24-0.36
			C424.78,282.49,423.91,263.7,423.69,260.39z"/>
		<path class="st7" d="M572.86,295.2c-3.93,3.27-8.52,6.66-11.38,9.87c-4.98,5.6-22.61-5.4-27.89-8.9l-22.66-0.27l-93.35-1.11
			l-0.46-0.01c-1.1,1.71-2.38,3.26-3.86,4.6c-1.74,1.58-3.76,2.86-6.11,3.72c-0.22,0.76-0.68,1.06-1.51,0.5l-1.16-0.77
			c-1.25-0.82-3.03-1.96-5.08-3.16c-5.4-3.14-12.71-6.67-17.33-5.84c-4.95,0.88,3.22,8.3,8.48,12.61c2.21,1.81,3.91,3.07,3.91,3.07
			c-1.49-0.24-3.24-0.96-5.13-2.01c-0.62,0.55-0.97,0.87-0.97,0.87l-29.04-11.76l-0.92-1.35c0.82,2.81,1.65,5.68,2.47,8.61
			c3.34,2.65,18.34,14.31,31.1,20.5c12.66,6.15,29.13-0.06,41.07-1.97c1.68-0.27,3.28-0.45,4.76-0.5
			c11.97-0.41,91.23,19.82,116,23.12s38.39-42.93,38.39-42.93L572.86,295.2z"/>
		<path class="st7" d="M575.08,276.04c0,0-18.38-17.27-31.24-16.54s-15.8,5.51-29.4,4.41c-11.61-0.94-73-2.95-90.75-3.52
			c0.22,3.31,1.09,22.1-6.33,34.03l0.22,0.37l93.35,1.11l22.66,0.27c5.28,3.5,22.91,14.5,27.89,8.9c2.86-3.22,7.45-6.6,11.38-9.87
			c4.15-3.46,7.56-6.77,7.37-9.61C579.86,280.08,578.39,275.67,575.08,276.04z"/>
		<path class="st12" d="M592.2,92.37c-1.65-18.16-1.65-12.38-4.95-16.93c0,0,5.78-12.38-4.95-18.99
			c-10.73-6.61-18.99-17.34-28.07-14.04c-9.08,3.3-7.02,7.02-11.15,4.95c-4.13-2.06-17.75-8.26-22.29-2.48
			c-4.54,5.78-20.23,12.38-21.88,23.53c-1.65,11.15-2.89,17.34-0.83,25.18l1.24,4.54c0,0,2.89-7.84,3.72-13.62
			c0.83-5.78,1.24-3.3,9.08-2.48c7.84,0.83,17.34-1.65,26.01,0c8.67,1.65,7.84,0,11.97,7.02c4.13,7.02,10.32,2.48,14.04,10.73
			c0.45,1,2.89,1.76,5.01,2.57c1.57,0.6,2.97,1.22,3.25,1.97c2.48,6.66-4.13,18.58-4.13,18.58s7.02-7.02,9.91-2.48
			c0.52,0.81,0.94,1.9,1.19,3.16C584.4,117.84,593.4,105.54,592.2,92.37z"/>
		<path class="st7" d="M526.56,258.33c2.75-1.72,39.52-81.78,51.78-108.59c-4.82-2.16-9.6-3.92-13.8-4.94c0,0,0,25.83-21.03,35.04
			l-0.03,0.05c0,0-26.01,44.58-26.42,46.24c-0.41,1.65-18.16-59.03-18.16-59.03c-4.3-7.08-7.97-10.6-9.23-16.44
			c-5.33,2.78-15.92,9.15-20.08,11.07c-0.25,0.12-0.55,0.24-0.88,0.37l34.32,92.51C503.03,254.61,523.26,260.39,526.56,258.33z"/>
		<path class="st7" d="M579.36,123.61c-0.25-1.26-0.68-2.35-1.19-3.16c-2.89-4.54-9.91,2.48-9.91,2.48s6.61-11.91,4.13-18.58
			c-0.28-0.76-1.68-1.38-3.25-1.97c-2.12-0.81-4.56-1.57-5.01-2.57c-3.72-8.26-9.91-3.72-14.04-10.73
			c-4.13-7.02-3.3-5.37-11.97-7.02c-8.67-1.65-18.16,0.83-26.01,0c-7.84-0.83-8.26-3.3-9.08,2.48c-0.83,5.78-3.72,13.62-3.72,13.62
			s-4.54,18.99-8.67,37.15c-0.72,3.16-1.14,5.82-1.33,8.14c-0.23,2.85-0.08,5.18,0.35,7.21c1.26,5.83,4.93,9.36,9.23,16.44
			c14.04,17.75,26.42,4.54,26.42,4.54s0,0,14.86-4.13c14.86-4.13,15.69-15.27,17.75-19.82c1.36-2.99,3.79-3.29,5.29-3.15
			c0.78,0.07,1.31,0.26,1.31,0.26c3.18-1.35,5.75-2.92,7.8-4.6C579.03,134.72,580.25,128.03,579.36,123.61z"/>
		<path class="st7" d="M520.78,182.78c0,0-14.86-4.13-21.88-15.69c0,0,17.75,60.68,18.16,59.03c0.41-1.65,26.42-46.24,26.42-46.24
			l0.03-0.05C537.7,182.39,530.27,183.67,520.78,182.78z"/>
		<path class="st7" d="M564.54,144.8c0,0-0.54-0.19-1.31-0.26C563.7,144.62,564.14,144.7,564.54,144.8z"/>
		<path class="st7" d="M563.23,144.54c-1.5-0.14-3.93,0.16-5.29,3.15c-2.06,4.54-2.89,15.69-17.75,19.82
			c-14.86,4.13-14.86,4.13-14.86,4.13s-12.38,13.21-26.42-4.54c7.02,11.56,21.88,15.69,21.88,15.69c9.49,0.89,16.91-0.39,22.73-2.94
			c21.02-9.22,21.03-35.04,21.03-35.04C564.14,144.7,563.7,144.62,563.23,144.54z"/>
		<path class="st7" d="M640.91,326.85c-4.95,0-21.88-14.86-21.88-14.86l3.72-1.24c-4.95-10.32,6.19-35.09,8.26-43.35
			c2.06-8.26,2.06-52.43,1.65-71.42c-0.41-18.99-20.64-22.71-27.66-29.72c-4.86-4.86-15.84-11.69-26.66-16.53
			c-12.26,26.81-49.03,106.87-51.78,108.59c-3.3,2.06-23.53-3.72-23.53-3.72l-34.32-92.51c-6.63,2.61-27.84,7.71-32.56,12.43
			c-4.95,4.95-9.49,12.8-18.16,19.4c-5.58,4.25-9.28,10.23-11.86,17.35c-0.28,1.19-0.77,2.71-1.42,4.39
			c-0.77,2.68-1.43,5.48-1.99,8.39c-1.58,8.15-5.33,15.96-8.17,20.99c10.35,3.17,18.75,5.92,19.55,6.72c0.44,0.44,0.4,2.41,0,5.32
			l9.55,2.77c0,0,0.02,0.19,0.04,0.52c17.74,0.57,79.14,2.58,90.75,3.52c13.6,1.1,16.54-3.68,29.4-4.41s31.24,16.54,31.24,16.54
			c3.31-0.37,4.78,4.04,5.15,9.56c0.19,2.83-3.22,6.15-7.37,9.61l19.34,6.88c0,0-13.62,46.24-38.39,42.93s-104.03-23.53-116-23.12
			c-1.48,0.05-3.07,0.24-4.76,0.5c-0.89,5.65-4.27,28.33-3.91,46.97c0.26,13.63,8.67,24.75,14.78,31.06
			c9.14-1.09,22.14-2.32,32.89-2.08c0.1,0,0.2,0,0.3,0.01c9.75-20.16,55.08-25.95,81.24-30.64c25.65-4.59,79-35.82,82.65-40.32
			C641.28,327.05,641.27,326.85,640.91,326.85z"/>
		<path class="st7" d="M476.91,398.77c0.06-0.14,0.13-0.27,0.2-0.41c-0.1,0-0.2,0-0.3-0.01
			C476.84,398.49,476.88,398.63,476.91,398.77z"/>
		<path class="st7" d="M694.73,128.54c-4.17,0-7.99-1.43-11.04-3.82l-20.54,21.98l-4.54-4.13l20.96-22.4
			c-1.76-2.78-2.79-6.06-2.79-9.59c0-9.92,8.04-17.96,17.96-17.96s17.96,8.04,17.96,17.96S704.64,128.54,694.73,128.54z"/>
		<path class="st7" d="M694.73,92.62c-9.92,0-17.96,8.04-17.96,17.96c0,3.53,1.03,6.81,2.79,9.59l-20.96,22.4l4.54,4.13l20.54-21.98
			c3.05,2.38,6.87,3.82,11.04,3.82c9.92,0,17.96-8.04,17.96-17.96S704.64,92.62,694.73,92.62z M694.73,125.13
			c-3.27,0-6.28-1.09-8.7-2.91c-1.65-1.24-3.04-2.81-4.05-4.63c-1.15-2.08-1.8-4.47-1.8-7.01c0-8.04,6.51-14.55,14.55-14.55
			c8.04,0,14.55,6.51,14.55,14.55C709.28,118.62,702.76,125.13,694.73,125.13z"/>
		<path class="st7" d="M616.97,428.82l6.46,25.42c15.87-3.36,31.87-8.25,37.39-9.76c4.7-1.28,15.62-8.81,24.94-15.68
			C643.4,446.56,616.97,428.82,616.97,428.82z"/>
		<path class="st7" d="M493.12,422.22l-1.46-1.46l-25.78-2.27c7.62,11.28,33.49,28.43,52.11,39.86c-2.34-4.59-1.6-10.1-3.81-18.37
			C510.87,427.58,493.12,422.22,493.12,422.22z"/>
		<path class="st7" d="M765.17,361.94c-14.04-18.58-40.46-27.66-51.6-27.66c-11.15,0-40.04,1.24-44.58-2.06s-8.26-6.61-14.86-4.54
			c-3.33,1.04-8.66,0.51-13.13-0.28c-3.64,4.5-56.99,35.73-82.65,40.32c-26.15,4.68-71.49,10.48-81.24,30.64
			c4.34,0.11,8.3,0.45,11.47,1.15c5.43,1.19,8.43,3.87,10.01,6.96c3.35,6.54,0.31,14.92,0.31,14.92l-7.24-0.64l1.46,1.46
			c0,0,17.75,5.37,21.05,17.75c2.21,8.27,1.47,13.78,3.81,18.37c1.16,2.28,3.08,4.34,6.51,6.4c10.32,6.19,16.93,16.93,16.93,16.93
			l87.93-4.13l-5.92-23.29l-6.46-25.42c0,0,26.44,17.74,68.79-0.02c2.87-1.2,5.81-2.57,8.82-4.11l9.08,52.84l69.35,1.65
			C773.01,479.19,779.21,380.52,765.17,361.94z"/>
		<path class="st7" d="M498.59,406.47c-1.58-3.09-4.58-5.77-10.01-6.96c-3.17-0.7-7.13-1.05-11.47-1.15
			c-0.07,0.14-0.13,0.27-0.2,0.41c-0.03-0.13-0.07-0.28-0.11-0.41c-10.75-0.23-23.75,0.99-32.89,2.08
			c-6.81,0.81-11.48,1.55-11.48,1.55l0.83,13.62l32.61,2.87l25.78,2.27l7.24,0.64C498.9,421.39,501.94,413.01,498.59,406.47z"/>
		<path class="st7" d="M78.79,150.78l15.8-21.09c0.4-0.74,1.39-0.9,2-0.32l16.93,16.25c1.35,1.3,3.52,1.17,4.71-0.28l23.79-28.92
			l-3.66-2.53c-0.5-0.34-0.36-1.11,0.23-1.26l4.87-1.22c0.79-0.2,1.58,0.32,1.71,1.12l0.9,5.42c0.11,0.68-0.67,1.14-1.2,0.71
			l-2.85-2.25"/>
		<path class="st7" d="M512.87,131.33c0,0-6.87,12.44-6.31,13.55c0.56,1.11,7.43,7.24,14.11,2.97"/>
		<path class="st7" d="M520.3,157.88c0,0-8.36,4.27-13.18,0.37"/>
		<path class="st7" d="M568.95,128.73c0,0,6.31-7.61,7.43-4.64s-5.38,14.67-10.03,15.97"/>
		<line class="st7" x1="568.26" y1="122.92" x2="544.07" y2="134.67"/>
		<path class="st7" d="M493.02,113.87l16.34,6.83c1.69,0.7,2.79,2.34,2.82,4.17l0.02,1.29l-0.47,0.69
			c-1.06,1.53-3.05,2.11-4.76,1.39l-15.92-6.72c-0.78-0.33-1.2-1.19-0.98-2.01l1.29-4.81C491.53,113.97,492.32,113.58,493.02,113.87
			z"/>
		<path class="st7" d="M521.11,127.31l1.45-0.98c1.18-0.8,2.67-0.98,4-0.48l15.68,5.53c1.61,0.6,2.44,2.39,1.85,4.01l-1.26,3.46
			c-0.64,1.76-2.6,2.64-4.34,1.95l-15.66-5.82c-1.62-0.64-2.81-2.04-3.21-3.73l-0.02-0.08
			C519.26,129.69,519.86,128.16,521.11,127.31z"/>
		<line class="st7" x1="511.72" y1="126.84" x2="519.93" y2="129.29"/>
		<ellipse class="st13" cx="503.31" cy="118.15" rx="2.32" ry="2.23"/>
		<ellipse class="st13" cx="531.81" cy="128.54" rx="2.32" ry="2.23"/>
		<path class="st7" d="M270.15,87.14c0,0-8.04-5.71-11.63,3.75c-3.58,9.46,0.76,18.76,13.13,18.38"/>
		<path class="st7" d="M269.4,92.02c0,0-7.5,3.38-3.75,6.38c3.75,3,6.38,5.25,6.38,5.25"/>
		<path class="st7" d="M197.4,63.89c0,0,39.38-5.25,36,39.38c-2.2,29.09-34.5,22.13-43.13,3.75"/>
		<path class="st7" d="M190.26,120.56c0,0,12.02,13.08,23.64,12.33"/>
		<path class="st7" d="M179.02,113.77c-12-47.25,30.38-26.25,30.38-26.25"/>
		<path class="st7" d="M216.15,86.77c0,0-7.13-18-26.25-17.25"/>
		<path class="st7" d="M299.4,30.89c0,0,2.02,20.27-18.07,32.75c-18.94,11.77-4.89,34.23-4.89,34.23"/>
		<path class="st7" d="M201.9,129.52c1.5,0.75,5.25,15.75,23.63,14.25"/>
		<path class="st7" d="M423.97,225.06c0,0,11.27,31.55,10.99,35.77"/>
		<path class="st7" d="M575.08,276.04c0,0-1.83,5.36-10.56,2.54c-8.73-2.82-9.86-7.04-9.86-7.04"/>
		<path class="st7" d="M464.81,236.33c1.97-3.38,0-40-2.82-58.59s25.63-28.73,27.68-27.08"/>
		<path class="st7" d="M487.06,261.68c-5.35-16.06-11.83-25.35-22.25-25.35c-10.42,0-15.49,10.26-15.49,25.35"/>
		<path class="st7" d="M564.54,144.8c0,0,9.84-1.71,14.91,16.32s1.13,73.52,6.48,73.8"/>
		<path class="st7" d="M554.1,261.96c0,0,14.37-28.17,12.96-32.67"/>
		<path class="st12" d="M592.2,302.08c10.92,2.47,30.55,8.67,30.55,8.67s-21.75,0.89-31.91-2.28"/>
		<path class="st14" d="M367.78,396.96c-1.25-1.86-20.27-12.53-51.82-18.1c-31.55-5.57-31.09-9.28-37.12-38.98
			c-6.03-29.7-12.99-71-25.06-90.02"/>
		<path class="st14" d="M343.72,250.95c0,0-10.59-23.83-10.59-28.01"/>
		<path class="st14" d="M168.4,261.92c0.93,2.78,25.99,52.9,32.48,82.6c6.5,29.7,10.18,60.27,49.19,78.89
			c20.42,9.74,44.58,12.15,44.58,12.15"/>
		<polyline class="st14" points="388.18,120.58 378.2,134.66 386.08,147.66 		"/>
		<circle class="st14" cx="685.64" cy="119.66" r="43.03"/>
		<circle class="st14" cx="111.98" cy="132.82" r="44.47"/>
		<path class="st13" d="M414.1,257.1c-0.02-1.13,38.06,9.55,42.48,37.16c1.09,6.8,1.31,8.74,0.54,13.32
			c-2.18,13.05-14.34,47.93-16.57,54.29c-5.88,16.77-5.68,36.89-1.42,39.26l3.03-0.27c0,0-7.89-4.62-3.26-26.11
			c4.62-21.48,20.67-59.01,20.4-72.88c-0.27-13.87-9.98-40.19-44.6-47.86L414.1,257.1z"/>
		<path class="st7" d="M616.97,428.82c0,0-3.9-21.78-16.15-28.18s-36.75-17.05-36.22-22.37"/>
		<g>
			<rect x="379.29" y="173.57" class="st7" width="5.6" height="40.24"/>
			<path class="st7" d="M342.95,90.19v83.39h36.34h5.6h36.9V90.19H342.95z M382.37,157.68c-14.25,0-25.8-11.55-25.8-25.8
				c0-14.25,11.55-25.8,25.8-25.8c14.25,0,25.8,11.55,25.8,25.8C408.17,146.13,396.62,157.68,382.37,157.68z"/>
			
				<ellipse transform="matrix(0.9732 -0.2298 0.2298 0.9732 -20.071 91.3789)" class="st7" cx="382.37" cy="131.88" rx="25.8" ry="25.8"/>
		</g>
		<path class="st14" d="M375.95,51.4h-7.4V44c0-2.04-1.66-3.7-3.7-3.7h-0.82c-2.04,0-3.7,1.66-3.7,3.7v7.4h-7.4
			c-2.04,0-3.7,1.66-3.7,3.7v0.82c0,2.04,1.66,3.7,3.7,3.7h7.4v7.4c0,2.04,1.66,3.7,3.7,3.7h0.82c2.04,0,3.7-1.66,3.7-3.7v-7.4h7.4
			c2.04,0,3.7-1.66,3.7-3.7v-0.82C379.65,53.06,378,51.4,375.95,51.4z"/>
		<path class="st14" d="M157.44,53.73h-4.5v-4.49c0-1.24-1.01-2.25-2.25-2.25h-0.5c-1.24,0-2.25,1.01-2.25,2.25v4.49h-4.49
			c-1.24,0-2.25,1.01-2.25,2.25v0.5c0,1.24,1.01,2.25,2.25,2.25h4.49v4.49c0,1.24,1.01,2.25,2.25,2.25h0.5
			c1.24,0,2.25-1.01,2.25-2.25v-4.49h4.5c1.24,0,2.25-1.01,2.25-2.25v-0.5C159.69,54.74,158.68,53.73,157.44,53.73z"/>
		<path class="st15" d="M462.89,100.72h-3.73v-3.73c0-1.03-0.84-1.87-1.87-1.87h-0.41c-1.03,0-1.87,0.84-1.87,1.87v3.73h-3.73
			c-1.03,0-1.87,0.84-1.87,1.87V103c0,1.03,0.84,1.87,1.87,1.87h3.73v3.73c0,1.03,0.84,1.87,1.87,1.87h0.41
			c1.03,0,1.87-0.84,1.87-1.87v-3.73h3.73c1.03,0,1.87-0.84,1.87-1.87v-0.41C464.76,101.55,463.92,100.72,462.89,100.72z"/>
		<path class="st14" d="M99.64,220.37h-7.06v-7.06c0-1.95-1.58-3.53-3.53-3.53h-0.78c-1.95,0-3.53,1.58-3.53,3.53v7.06h-7.06
			c-1.95,0-3.53,1.58-3.53,3.53v0.78c0,1.95,1.58,3.53,3.53,3.53h7.06v7.06c0,1.95,1.58,3.53,3.53,3.53h0.78
			c1.95,0,3.53-1.58,3.53-3.53v-7.06h7.06c1.95,0,3.53-1.58,3.53-3.53v-0.78C103.17,221.95,101.59,220.37,99.64,220.37z"/>
		<path class="st14" d="M692.12,197.96h-10.26V187.7c0-2.84-2.3-5.14-5.14-5.14h-1.13c-2.84,0-5.14,2.3-5.14,5.14v10.26h-10.26
			c-2.84,0-5.14,2.3-5.14,5.14v1.13c0,2.84,2.3,5.14,5.14,5.14h10.26v10.26c0,2.84,2.3,5.14,5.14,5.14h1.13
			c2.84,0,5.14-2.3,5.14-5.14v-10.26h10.26c2.84,0,5.14-2.3,5.14-5.14v-1.13C697.26,200.26,694.96,197.96,692.12,197.96z"/>
		<path class="st16" d="M739.97,76.75h-3.07v-3.07c0-0.85-0.69-1.54-1.54-1.54h-0.34c-0.85,0-1.54,0.69-1.54,1.54v3.07h-3.07
			c-0.85,0-1.54,0.69-1.54,1.54v0.34c0,0.85,0.69,1.54,1.54,1.54h3.07v3.07c0,0.85,0.69,1.54,1.54,1.54h0.34
			c0.85,0,1.54-0.69,1.54-1.54v-3.07h3.07c0.85,0,1.54-0.69,1.54-1.54v-0.34C741.51,77.44,740.82,76.75,739.97,76.75z"/>
		<circle class="st14" cx="171.37" cy="175.55" r="4.49"/>
		<circle class="st17" cx="614.83" cy="113.09" r="3.26"/>
		<circle class="st17" cx="701.73" cy="225.38" r="3.26"/>
		<path class="st12" d="M598.7,235.54c0-4.58-2.77-8.3-6.18-8.3c-0.94,0-1.82,0.29-2.62,0.79c-1.35-0.68-2.86-1.08-4.45-1.08
			c-5.78,0-10.46,5.03-10.46,11.23s4.68,11.23,10.46,11.23c4.08,0,7.6-2.51,9.33-6.17C597.07,242.05,598.7,239.05,598.7,235.54z"/>
	</g>
</g>
</svg>
