<svg xmlns="http://www.w3.org/2000/svg" xmlns:xlink="http://www.w3.org/1999/xlink" viewBox="0 0 841.88976 467.71654"><defs><style>.cls-1,.cls-11,.cls-12,.cls-3,.cls-7{fill:none;}.cls-2{fill:#dceffa;}.cls-3{stroke:#f4f4f5;}.cls-11,.cls-12,.cls-3,.cls-7{stroke-miterlimit:10;}.cls-4{font-size:30.50326px;}.cls-4,.cls-5{fill:#54575c;}.cls-4,.cls-6,.cls-9{font-family:Geomanist-Bold, Geomanist;font-weight:700;}.cls-5{font-size:13.30763px;font-family:Geomanist-Regular, Geomanist;}.cls-6,.cls-9{font-size:19.4824px;}.cls-6,.cls-8{fill:#e0635d;}.cls-7{stroke:#e0635d;}.cls-13,.cls-9{fill:#61a575;}.cls-10{clip-path:url(#clip-path);}.cls-11{stroke:#54575c;}.cls-12{stroke:#61a575;}</style><clipPath id="clip-path"><circle class="cls-1" cx="617.49867" cy="365.80534" r="24.00007"/></clipPath></defs><title>risk-utility-graph-without-api</title><g id="Layer_3" data-name="Layer 3"><rect class="cls-2" x="0.06622" width="841.82354" height="467.71654"/><rect class="cls-3" x="65.69283" y="76.56305" width="497.25954" height="331.50636"/><line class="cls-3" x1="65.69283" y1="366.63112" x2="562.95238" y2="366.63112"/><line class="cls-3" x1="65.69283" y1="325.19282" x2="562.95238" y2="325.19282"/><line class="cls-3" x1="65.69283" y1="283.75453" x2="562.95238" y2="283.75453"/><line class="cls-3" x1="65.69283" y1="242.31623" x2="562.95238" y2="242.31623"/><line class="cls-3" x1="65.69283" y1="200.87794" x2="562.95238" y2="200.87794"/><line class="cls-3" x1="65.69283" y1="159.43964" x2="562.95238" y2="159.43964"/><line class="cls-3" x1="65.69283" y1="118.00135" x2="562.95238" y2="118.00135"/><line class="cls-3" x1="521.51408" y1="76.56305" x2="521.51408" y2="408.06941"/><line class="cls-3" x1="480.07579" y1="76.56305" x2="480.07579" y2="408.06941"/><line class="cls-3" x1="438.63749" y1="76.56305" x2="438.63749" y2="408.06941"/><line class="cls-3" x1="397.1992" y1="76.56305" x2="397.1992" y2="408.06941"/><line class="cls-3" x1="355.7609" y1="76.56305" x2="355.7609" y2="408.06941"/><line class="cls-3" x1="314.3226" y1="76.56305" x2="314.3226" y2="408.06941"/><line class="cls-3" x1="272.88431" y1="76.56305" x2="272.88431" y2="408.06941"/><line class="cls-3" x1="231.44601" y1="76.56305" x2="231.44601" y2="408.06941"/><line class="cls-3" x1="190.00772" y1="76.56305" x2="190.00772" y2="408.06941"/><line class="cls-3" x1="148.56942" y1="76.56305" x2="148.56942" y2="408.06941"/><line class="cls-3" x1="107.13113" y1="76.56305" x2="107.13113" y2="408.06941"/><text class="cls-4" transform="translate(640.68734 89.35693)">WITHOUT <tspan x="0" y="36.604">AN API</tspan></text><text class="cls-5" transform="translate(658.89666 363.34084)">Solutions generally fall in<tspan x="0" y="15.96875">this area.</tspan></text><text class="cls-6" transform="translate(237.51503 435.06561)">Risk/User Authority</text><line class="cls-7" x1="64.10937" y1="408.57375" x2="564.58063" y2="408.57375"/><polygon class="cls-8" points="573.243 408.499 562.727 402.428 562.727 414.571 573.243 408.499"/><text class="cls-9" transform="translate(52.56793 256.41504) rotate(-90)">Utility</text><g class="cls-10"><path class="cls-11" d="M871.10859,229.6197c-79.36562,5.43876-96.85833,36.385-165.812,57.09569-34.00129,10.21251-73.99161,4.51262-100.68732-2.10378C511.1432,261.44652,494.97759,367.198,477.70485,407.08454c-15.03794,34.72586-34.77337,67.25569-57.74067,97.29269-14.16526,18.52555-30.006,40.39706-48.919,54.58182"/><path class="cls-11" d="M371.0452,558.95905c12.7802-9.40378,24.50732-22.0343,35.11965-34.71345,5.16866-6.1487,10.12731-12.28086,14.92177-18.05271A518.67915,518.67915,0,0,0,454.977,460.7726a397.354,397.354,0,0,0,26.94669-47.29367c1.64409-3.44061,3.25338-7.38266,4.92448-11.68636,11.57142-29.80084,24.1-76.78094,55.14449-98.67229,16.83611-11.87215,39.01182-16.94831,68.35459-10.53436,14.36463,3.13992,32.15645,6.05858,50.3285,5.49534a170.57162,170.57162,0,0,0,47.87383-7.86987c5.87628-1.87943,11.48571-3.812,16.98047-5.7927,33.554-12.12128,53.71973-24.67815,79.91173-37.33913,18.3325-8.86176,37.61317-15.00333,65.66416-17.479"/><path class="cls-11" d="M371.0452,558.95905c12.81536-9.24878,24.895-21.48241,35.76221-33.65482,5.30083-5.9375,10.43235-11.79359,15.40165-17.29567A555.47366,555.47366,0,0,0,457.5568,465.046a359.11994,359.11994,0,0,0,28.58569-45.17264c1.76671-3.365,3.47475-7.22025,5.25274-11.42123,12.66967-29.93544,25.172-77.05961,56.26223-97.60281,17.06407-11.27528,39.50548-15.76955,68.42769-10.28905,14.56482,2.75991,32.26835,5.29041,49.78734,3.47182a198.83263,198.83263,0,0,0,45.93-10.32466c5.68528-1.95643,11.24681-3.90393,16.89349-5.91093,34.02015-12.13913,53.56349-23.14684,79.16988-37.82751,18.59162-10.659,36.32066-17.4362,63.23741-20.38754"/><path class="cls-11" d="M371.0452,558.95905c12.85052-9.09378,25.29841-20.91847,36.40477-32.5962,5.44059-5.72047,10.73739-11.30632,15.88153-16.53863,12.94661-13.24756,25.35128-26.46265,36.80512-40.50491a323.85871,323.85871,0,0,0,30.22469-43.0516c1.89069-3.28937,3.70079-7.05718,5.581-11.15611,13.79348-30.07028,26.25757-77.32881,57.38-96.53332,17.29893-10.67455,40.01207-14.617,68.5008-10.04374,14.77148,2.37124,32.41531,4.451,49.24617,1.44831,16.67745-2.97535,29.17463-7.32961,43.98616-12.77946,5.49734-2.02273,11.00791-3.99586,16.8065-6.02916,34.48627-12.157,53.39387-21.70262,78.428-38.31589,18.85015-12.50943,35.02816-19.86906,60.81066-23.29607"/><path class="cls-11" d="M371.0452,558.95905c12.88569-8.93878,25.704-20.35354,37.04733-31.53758,5.58139-5.503,11.04243-10.819,16.36141-15.78158,13.35648-12.55553,26.25877-24.851,38.2625-38.04722,11.30194-12.42468,22.4449-25.91681,31.86369-40.93057,2.016-3.2136,3.93127-6.89317,5.90927-10.891,14.94323-30.20236,27.35611-77.58722,58.4977-95.46384,17.54054-10.069,40.5297-13.49086,68.5739-9.79843,14.98383,1.97285,32.58461,3.53443,48.705-.57521,16.79038-4.28043,27.61058-9.55931,42.04233-15.23426,5.30948-2.08782,10.769-4.08778,16.71951-6.14738,34.95239-12.17482,53.20037-20.33083,77.68617-38.80428,19.09675-14.40764,33.73565-22.30191,58.3839-26.20459"/><path class="cls-11" d="M371.0452,558.95905a336.88278,336.88278,0,0,0,37.6899-30.479c5.72323-5.285,11.35772-10.31978,16.84128-15.02454,13.79223-11.8334,27.15977-23.24093,39.71988-35.58953,11.75025-11.55237,23.58793-24.292,33.50268-38.80953a113.319,113.319,0,0,0,6.23755-10.62586c16.119-30.32866,28.46691-77.8335,59.61542-94.39435,17.78867-9.45777,41.05638-12.39127,68.647-9.55311,15.201,1.56367,32.76247,2.54,48.16385-2.59873,16.92279-5.64637,26.04679-11.78591,40.0985-17.68906,5.12178-2.15167,10.5301-4.17971,16.63251-6.26561,35.41852-12.19267,52.9769-19.0168,76.94433-39.29266,19.32335-16.34709,32.44314-24.73478,55.95714-29.11312"/><path class="cls-11" d="M371.0452,558.95905a400.71423,400.71423,0,0,0,38.33246-29.42033c5.86607-5.06629,11.66318-9.83084,17.32116-14.2675,14.20311-11.13726,28.05433-21.63359,41.17726-33.13184,12.19237-10.6829,24.73748-22.6645,35.14168-36.6885a102.80316,102.80316,0,0,0,6.56581-10.36073c17.32085-30.44631,29.58907-78.06645,60.73316-93.32488,18.04291-8.83976,41.59-11.318,68.72011-9.30779,15.42192,1.14268,32.93562,1.47219,47.62269-4.62225,17.05757-7.07808,24.48354-14.00917,38.15466-20.14385,4.93435-2.2142,10.29121-4.27163,16.54553-6.38384,35.88464-12.21052,52.72073-17.74711,76.20247-39.781,19.52477-18.32094,31.15064-27.16764,53.5304-32.02165"/><path class="cls-11" d="M371.0452,558.95905c12.99118-8.47378,26.9334-18.65053,38.975-28.36171,6.00987-4.84677,11.96815-9.34232,17.801-13.51046C442.434,506.6447,456.764,497.05661,470.4559,486.41274c12.62867-9.81735,25.8932-21.03372,36.78068-34.56746a93.77409,93.77409,0,0,0,6.89408-10.09561c18.54835-30.5525,30.7214-78.28492,61.85089-92.2554,18.30279-8.214,42.12852-10.27061,68.79322-9.06248,15.64559.70887,33.09242.33929,47.08152-6.64576,17.17748-8.57707,22.92115-16.22889,36.21083-22.59865a141.24288,141.24288,0,0,1,16.45854-6.50207c36.35076-12.22836,52.43154-16.51025,75.46062-40.26943,19.69816-20.32266,29.85813-29.60049,51.10364-34.93017"/><path class="cls-11" d="M371.0452,558.95905c13.02634-8.31878,27.347-18.07939,39.61758-27.30309,6.15456-4.62633,12.2727-8.85429,18.28092-12.75341,15.02138-9.74834,29.82567-18.43222,44.092-28.21646,13.05981-8.95676,27.05457-19.399,38.41968-32.44642a86.05151,86.05151,0,0,0,7.22234-9.83049c19.8011-30.64455,31.86253-78.48791,62.96862-91.18591,18.56769-7.57962,42.688-7.75015,68.86633-8.81717,15.85983-.64645,33.22368-.84777,46.54036-8.66928,17.26646-10.14138,21.36-18.44485,34.267-25.05344a114.1552,114.1552,0,0,1,16.37155-6.62029c36.81688-12.24622,52.11051-15.29673,74.71876-40.75782,19.8425-22.34634,28.56563-32.03336,48.67689-37.83871"/><path class="cls-11" d="M371.0452,558.95905c13.0615-8.16378,27.76221-17.50617,40.26014-26.24446,6.30006-4.40487,12.57689-8.36682,18.7608-11.99638,15.42908-9.05587,30.704-16.84051,45.5494-25.75876,13.4867-8.102,28.221-17.75976,40.05868-30.32539a79.47143,79.47143,0,0,0,7.55061-9.56536c21.0784-30.72,33.01088-78.67462,64.08635-90.11643,18.83684-6.93561,43.27084-6.79751,68.93943-8.57186,16.0594-1.11011,33.32284-2.07685,45.9992-10.69279,17.31078-11.76589,19.80049-20.65687,32.32317-27.50824a95.32347,95.32347,0,0,1,16.28456-6.73852c37.283-12.26407,51.75972-14.099,73.97691-41.24621,19.95806-24.3868,27.27312-34.46621,46.25014-40.74723"/><path class="cls-11" d="M371.0452,558.95905c13.09666-8.00878,28.17881-16.93073,40.90271-25.18584,6.44625-4.18226,12.88078-7.87994,19.24067-11.23933,15.83607-8.36489,31.57878-15.256,47.00678-23.30107,13.91048-7.25374,29.39185-16.1156,41.69768-28.20436a73.87465,73.87465,0,0,0,7.87887-9.30023c22.37941-30.77649,34.1647-78.84442,65.20409-89.047,19.10936-6.28118,43.75193-7.2763,69.01253-8.32655,16.32115-.67858,33.386-3.33573,45.45805-12.71631,17.29984-13.44282,18.24315-22.86477,30.37933-29.963a81.48591,81.48591,0,0,1,16.19757-6.85675c37.74911-12.28192,51.3817-12.91107,73.23505-41.73459,20.046-26.43968,25.98063-36.89907,43.82339-43.65576"/><path class="cls-11" d="M371.0452,558.95905c13.13183-7.85378,28.59658-16.35292,41.54527-24.12722,6.59306-3.95843,13.18449-7.39367,19.72055-10.48229,16.24257-7.67543,32.45143-13.6793,48.46416-20.84338,14.33241-6.41231,30.56636-14.46613,43.33668-26.08332a69.12246,69.12246,0,0,0,8.20714-9.03511c23.7031-30.81194,35.32209-78.99691,66.32182-87.97746,19.38428-5.61559,44.28871-6.324,69.08564-8.08124,16.54355-1.17235,33.41152-4.613,44.91688-14.73982,17.22669-15.16261,16.68854-25.06843,28.43549-32.41783a70.90144,70.90144,0,0,1,16.11059-6.975c38.21523-12.29976,50.97914-11.72854,72.4932-42.223,20.10792-28.50135,24.68812-39.33194,41.39663-46.56429"/><path class="cls-11" d="M371.0452,558.95905c13.167-7.69878,29.01525-15.77262,42.18783-23.0686a202.67986,202.67986,0,0,1,20.20043-9.72525c16.63546-7.01923,33.32329-12.11056,49.92154-18.38568,14.75379-5.57781,31.74381-12.81115,44.97568-23.96229a65.09743,65.09743,0,0,0,8.5354-8.77c25.04829-30.82446,36.48106-79.132,67.43955-86.908,19.66052-4.93824,44.82-5.39248,69.15875-7.83592,16.76228-1.68281,33.39978-5.89873,44.37572-16.76334,17.088-16.91469,15.13725-27.26776,26.49166-34.87262,3.82188-2.55979,8.8578-4.8232,16.02359-7.09321,38.68136-12.31761,50.55469-10.548,71.75136-42.71136,20.14588-30.5689,23.39561-41.76479,38.96987-49.47281"/><path class="cls-11" d="M371.0452,558.95905c13.20215-7.54378,29.43454-15.18979,42.83039-22.01a189.63449,189.63449,0,0,1,20.68031-8.96821c17.04533-6.3272,34.19572-10.5497,51.37892-15.928,15.17588-4.75,32.92342-11.15049,46.61468-21.84125a61.696,61.696,0,0,0,8.86367-8.50485c26.41365-30.81239,37.63954-79.24966,68.55728-85.83851,19.9369-4.24873,45.34372-4.48019,69.23185-7.59061,16.97592-2.21039,33.35253-7.18451,43.83456-18.78685,16.88392-18.68847,13.59-29.46276,24.54783-37.32742,3.63995-2.61247,8.61889-4.91512,15.9366-7.21144,39.14748-12.33546,50.11082-9.36706,71.0095-43.19974,20.16195-32.64,22.10311-44.19766,36.54313-52.38134"/><path class="cls-11" d="M371.0452,558.95905c13.23732-7.38878,29.85417-14.60437,43.47295-20.95135a179.62231,179.62231,0,0,1,21.16019-8.21117c17.45521-5.63516,35.07-8.99627,52.8363-13.4703,15.5998-3.92845,34.10446-9.48415,48.25367-19.72022a58.83125,58.83125,0,0,0,9.19194-8.23973c27.79775-30.77431,38.79549-79.35037,69.675-84.769,20.21222-3.54678,45.85822-3.58552,69.30495-7.3453,17.183-2.75536,33.27255-8.46385,43.2934-20.81037,16.61733-20.474,12.04743-31.65346,22.604-39.78222,3.4595-2.66388,8.38-5.007,15.84961-7.32966,39.6136-12.35331,49.64987-8.18389,70.26765-43.68812,20.15821-34.71284,20.8106-46.63052,34.11637-55.28987"/><path class="cls-11" d="M371.0452,558.95905c13.27248-7.23378,30.28093-13.99974,44.11552-19.89273a173.6,173.6,0,0,1,21.64006-7.45412c17.86508-4.94313,35.94711-7.44958,54.29368-11.01261,16.0265-3.11246,35.28622-7.81218,49.89267-17.59919a56.4305,56.4305,0,0,0,9.52021-7.9746c29.199-30.70909,39.94685-79.43471,70.79274-83.69954,20.48526-2.83234,46.36175-2.70676,69.37807-7.1,17.3822-3.31782,33.16322-9.7319,42.75223-22.83388,16.29328-22.2624,10.51038-33.84,20.66016-42.237,3.28074-2.71416,8.1411-5.099,15.76263-7.44789,40.07972-12.37115,49.17389-6.99729,69.52579-44.17651,20.13667-36.786,19.5181-49.06337,31.68962-58.19839"/><path class="cls-11" d="M371.0452,558.95905c13.30764-7.07878,30.69334-13.42585,44.75808-18.83411,25.396-9.76543,51.26777-11.53186,77.871-15.252,20.39513-2.852,46.24987-8.05735,61.38014-23.18763,30.61582-30.61582,41.0917-79.50351,71.91048-82.63005,36.89326-3.7428,90.66974,0,111.66224-31.71208s2.23325-42.43165,34.392-52.25793c40.54584-12.389,48.68474-5.80643,68.78394-44.66489s18.22559-51.49624,29.26287-61.10693"/></g><line class="cls-12" x1="64.10937" y1="74.15341" x2="64.10937" y2="408.57375"/><polygon class="cls-13" points="64.377 66.02 58.305 76.536 70.449 76.536 64.377 66.02"/><path class="cls-11" d="M562.95238,79.33331c-79.36562,5.43876-96.85834,36.385-165.812,57.09569-34.00128,10.21251-73.9916,4.51262-100.68731-2.10378C202.987,111.16013,186.82137,216.91163,169.54864,256.79815,154.5107,291.524,134.77527,324.05384,111.808,354.09084c-14.16526,18.52555-30.006,40.39706-48.919,54.58182"/><path class="cls-11" d="M62.889,408.67266c12.7802-9.40378,24.50732-22.0343,35.11966-34.71345,5.16865-6.1487,10.12731-12.28086,14.92177-18.05271a518.681,518.681,0,0,0,33.89035-45.42029,397.3526,397.3526,0,0,0,26.94669-47.29367c1.64409-3.44061,3.25339-7.38266,4.92448-11.68636,11.57143-29.80084,24.1-76.78094,55.1445-98.67229,16.83611-11.87215,39.01181-16.94831,68.35459-10.53436,14.36462,3.13992,32.15644,6.05858,50.32849,5.49534a170.57162,170.57162,0,0,0,47.87383-7.86987c5.87629-1.87943,11.48571-3.812,16.98048-5.7927,33.554-12.12128,53.71973-24.67815,79.91173-37.33913,18.33249-8.86176,37.61317-15.00333,65.66416-17.479"/><path class="cls-11" d="M62.889,408.67266c12.81537-9.24878,24.895-21.48241,35.76222-33.65482,5.30082-5.9375,10.43235-11.79359,15.40165-17.29567a555.47122,555.47122,0,0,0,35.34773-42.9626,359.11766,359.11766,0,0,0,28.58569-45.17264c1.76672-3.365,3.47475-7.22025,5.25275-11.42123,12.66966-29.93544,25.172-77.05961,56.26223-97.60281,17.06407-11.27528,39.50547-15.76955,68.42769-10.28905,14.56481,2.75991,32.26835,5.29041,49.78734,3.47182a198.83263,198.83263,0,0,0,45.93-10.32466c5.68527-1.95643,11.24681-3.90393,16.89348-5.91093,34.02016-12.13913,53.5635-23.14684,79.16988-37.82751,18.59163-10.659,36.32067-17.4362,63.23741-20.38754"/><path class="cls-11" d="M62.889,408.67266c12.85053-9.09378,25.29842-20.91847,36.40478-32.5962,5.44058-5.72047,10.73739-11.30632,15.88153-16.53863,12.94661-13.24756,25.35127-26.46265,36.80511-40.50491a323.85778,323.85778,0,0,0,30.22469-43.0516c1.89069-3.28938,3.7008-7.05718,5.581-11.15611,13.79349-30.07028,26.25758-77.32881,57.38-96.53332,17.29894-10.67455,40.01208-14.617,68.5008-10.04374,14.77148,2.37124,32.41532,4.451,49.24618,1.44831,16.67744-2.97535,29.17463-7.32961,43.98616-12.77946,5.49734-2.02273,11.00791-3.99586,16.80649-6.02916,34.48628-12.157,53.39388-21.70262,78.428-38.31589,18.85015-12.50943,35.02816-19.86906,60.81065-23.29607"/><path class="cls-11" d="M62.889,408.67266c12.88569-8.93878,25.704-20.35354,37.04734-31.53758,5.58139-5.503,11.04243-10.819,16.36141-15.78158,13.35648-12.55553,26.25876-24.851,38.26249-38.04722,11.30194-12.42468,22.44491-25.91681,31.86369-40.93057,2.016-3.21361,3.93128-6.89317,5.90928-10.891,14.94323-30.20236,27.3561-77.58722,58.49769-95.46384,17.54055-10.069,40.52971-13.49086,68.57391-9.79843,14.98383,1.97285,32.58461,3.53443,48.705-.57521,16.79037-4.28043,27.61058-9.55931,42.04233-15.23426,5.30948-2.08782,10.769-4.08778,16.7195-6.14738,34.9524-12.17482,53.20037-20.33083,77.68618-38.80428,19.09675-14.40764,33.73565-22.30191,58.3839-26.20459"/><path class="cls-11" d="M62.889,408.67266a336.88187,336.88187,0,0,0,37.6899-30.479c5.72323-5.285,11.35773-10.31978,16.84129-15.02454,13.79222-11.8334,27.15977-23.24093,39.71987-35.58953,11.75026-11.55237,23.58793-24.292,33.50269-38.80953a113.319,113.319,0,0,0,6.23754-10.62586c16.11905-30.32866,28.46692-77.8335,59.61543-94.39435,17.78866-9.45777,41.05638-12.39127,68.647-9.55312,15.201,1.56368,32.76247,2.54,48.16385-2.59872,16.92278-5.64637,26.04679-11.78591,40.09849-17.68906,5.12179-2.15167,10.53011-4.17971,16.63252-6.26561,35.41852-12.19267,52.97689-19.0168,76.94432-39.29266C526.30525,92.00363,539.425,83.61594,562.939,79.2376"/><path class="cls-11" d="M62.889,408.67266a400.71173,400.71173,0,0,0,38.33246-29.42033c5.86608-5.06629,11.66318-9.83084,17.32117-14.2675,14.20311-11.13726,28.05433-21.63359,41.17725-33.13184,12.19237-10.6829,24.73749-22.6645,35.14169-36.6885a102.80494,102.80494,0,0,0,6.56581-10.36073c17.32084-30.44631,29.58907-78.06645,60.73316-93.32488,18.04291-8.83976,41.59-11.318,68.72011-9.30779,15.42191,1.14268,32.93561,1.47219,47.62269-4.62225,17.05756-7.07808,24.48354-14.00917,38.15466-20.14385,4.93434-2.2142,10.2912-4.27163,16.54553-6.38384,35.88464-12.21052,52.72073-17.74711,76.20247-39.78105,19.52477-18.32093,31.15064-27.16763,53.53039-32.02164"/><path class="cls-11" d="M62.889,408.67266c12.99118-8.47378,26.93341-18.65053,38.975-28.36171,6.00987-4.84677,11.96815-9.34232,17.801-13.51046,14.61279-10.44218,28.94277-20.03027,42.63464-30.67414,12.62867-9.81735,25.8932-21.03372,36.78069-34.56746a93.77506,93.77506,0,0,0,6.89407-10.09561c18.54836-30.5525,30.7214-78.28492,61.85089-92.2554,18.30279-8.214,42.12853-10.27061,68.79322-9.06248,15.64559.70887,33.09242.33929,47.08153-6.64576,17.17747-8.57707,22.92114-16.22889,36.21083-22.59865a141.24288,141.24288,0,0,1,16.45854-6.50207c36.35075-12.22836,52.43154-16.51025,75.46061-40.26943C531.52822,93.80683,541.6882,84.529,562.93371,79.19932"/><path class="cls-11" d="M62.889,408.67266c13.02634-8.31878,27.347-18.07939,39.61759-27.30309,6.15456-4.62633,12.2727-8.85429,18.28091-12.75341,15.02139-9.74834,29.82568-18.43222,44.092-28.21646,13.05981-8.95676,27.05458-19.399,38.41969-32.44642a86.05271,86.05271,0,0,0,7.22234-9.83049c19.8011-30.64455,31.86253-78.48791,62.96862-91.18591,18.56768-7.57962,42.68794-7.75015,68.86633-8.81717,15.85983-.64645,33.22367-.84777,46.54036-8.66928,17.26645-10.14138,21.36-18.44485,34.267-25.05344a114.15472,114.15472,0,0,1,16.37155-6.62029c36.81687-12.24622,52.1105-15.29673,74.71876-40.75782,19.8425-22.34634,28.56563-32.03336,48.67689-37.83871"/><path class="cls-11" d="M62.889,408.67266c13.06151-8.16378,27.76221-17.50617,40.26015-26.24446,6.3-4.40487,12.57688-8.36682,18.76079-11.99638,15.42909-9.05587,30.704-16.84051,45.5494-25.75876,13.48671-8.102,28.221-17.75976,40.05869-30.32539a79.47138,79.47138,0,0,0,7.5506-9.56536c21.0784-30.72,33.01088-78.67462,64.08636-90.11643,18.83683-6.93561,43.27084-6.79751,68.93943-8.57186,16.0594-1.11011,33.32284-2.07685,45.9992-10.69279,17.31077-11.76589,19.80049-20.65687,32.32316-27.50824a95.32327,95.32327,0,0,1,16.28457-6.73852c37.283-12.26407,51.75972-14.099,73.9769-41.24621,19.95806-24.3868,27.27313-34.46621,46.25014-40.74723"/><path class="cls-11" d="M62.889,408.67266c13.09667-8.00878,28.17882-16.93073,40.90271-25.18584,6.44626-4.18226,12.88079-7.87994,19.24067-11.23933,15.83608-8.36489,31.57879-15.256,47.00678-23.30107,13.91049-7.25374,29.39185-16.1156,41.69769-28.20436a73.87465,73.87465,0,0,0,7.87887-9.30023c22.37941-30.7765,34.1647-78.84442,65.20408-89.04695,19.10937-6.28118,43.75194-7.2763,69.01254-8.32655,16.32115-.67858,33.386-3.33574,45.458-12.71631,17.29985-13.44282,18.24316-22.86477,30.37933-29.963a81.48617,81.48617,0,0,1,16.19757-6.85675c37.74912-12.28192,51.38171-12.91107,73.23506-41.73459,20.046-26.43968,25.98062-36.89907,43.82339-43.65576"/><path class="cls-11" d="M62.889,408.67266c13.13183-7.85378,28.59659-16.35292,41.54527-24.12722,6.59307-3.95843,13.18449-7.39368,19.72055-10.48229,16.24258-7.67543,32.45143-13.6793,48.46416-20.84338,14.33242-6.41231,30.56637-14.46613,43.33668-26.08332a69.12246,69.12246,0,0,0,8.20714-9.03511c23.7031-30.81194,35.32209-78.99691,66.32182-87.97746,19.38429-5.61559,44.28872-6.324,69.08564-8.08124,16.54355-1.17235,33.41153-4.613,44.91688-14.73982,17.2267-15.16261,16.68854-25.06843,28.4355-32.41783a70.90154,70.90154,0,0,1,16.11058-6.975c38.21524-12.29976,50.97915-11.72854,72.49321-42.223C541.63433,97.18569,546.21452,86.3551,562.923,79.12275"/><path class="cls-11" d="M62.889,408.67266c13.167-7.69878,29.01525-15.77263,42.18784-23.0686a202.67972,202.67972,0,0,1,20.20042-9.72525c16.63547-7.01923,33.3233-12.11056,49.92154-18.38568,14.7538-5.57781,31.74382-12.81115,44.97568-23.96229a65.0975,65.0975,0,0,0,8.53541-8.77c25.04829-30.82446,36.48106-79.132,67.43955-86.908,19.66052-4.93824,44.82-5.39248,69.15875-7.83592,16.76227-1.68281,33.39978-5.89873,44.37571-16.76334,17.088-16.91469,15.13726-27.26776,26.49167-34.87262,3.82188-2.55979,8.85779-4.8232,16.02359-7.09321,38.68136-12.31761,50.55468-10.548,71.75135-42.71136,20.14589-30.5689,23.39561-41.76479,38.96988-49.47281"/><path class="cls-11" d="M62.889,408.67266c13.20216-7.54378,29.43454-15.18979,42.8304-22.01a189.63519,189.63519,0,0,1,20.6803-8.96821c17.04534-6.3272,34.19573-10.5497,51.37892-15.928,15.17588-4.75,32.92343-11.15049,46.61468-21.84125a61.69555,61.69555,0,0,0,8.86367-8.50486c26.41366-30.81238,37.63955-79.24965,68.55729-85.8385,19.9369-4.24873,45.34372-4.48019,69.23185-7.59061,16.97591-2.21039,33.35253-7.18451,43.83455-18.78685,16.88393-18.68847,13.59-29.46276,24.54783-37.32743,3.64-2.61246,8.6189-4.91511,15.93661-7.21143,39.14748-12.33546,50.11082-9.36706,71.0095-43.19974,20.16195-32.64,22.1031-44.19766,36.54312-52.38134"/><path class="cls-11" d="M62.889,408.67266c13.23732-7.38878,29.85418-14.60437,43.473-20.95135a179.62218,179.62218,0,0,1,21.16018-8.21117c17.45521-5.63516,35.07-8.99627,52.8363-13.4703,15.59981-3.92845,34.10447-9.48415,48.25368-19.72022a58.83171,58.83171,0,0,0,9.19194-8.23973c27.79775-30.77431,38.79548-79.35037,69.675-84.769,20.21223-3.54678,45.85822-3.58552,69.305-7.3453,17.183-2.75536,33.27255-8.46385,43.29339-20.81037,16.61734-20.474,12.04744-31.65346,22.604-39.78222,3.45951-2.66388,8.38-5.007,15.84962-7.32966,39.6136-12.35331,49.64986-8.1839,70.26764-43.68812,20.15821-34.71284,20.8106-46.63052,34.11638-55.28987"/><path class="cls-11" d="M62.889,408.67266c13.27248-7.23378,30.28094-13.99974,44.11552-19.89273a173.60108,173.60108,0,0,1,21.64006-7.45412c17.86508-4.94313,35.94712-7.44958,54.29368-11.01261,16.02651-3.11246,35.28622-7.81218,49.89268-17.59919a56.43,56.43,0,0,0,9.5202-7.9746c29.199-30.70909,39.94685-79.43471,70.79275-83.69954,20.48526-2.83234,46.36175-2.70676,69.37806-7.1,17.3822-3.31782,33.16323-9.7319,42.75224-22.83388,16.29328-22.2624,10.51038-33.84,20.66016-42.237,3.28073-2.71416,8.14109-5.099,15.76263-7.44789,40.07972-12.37115,49.17388-6.99729,69.52579-44.17651,20.13666-36.786,19.51809-49.06337,31.68962-58.19839"/><path class="cls-11" d="M62.889,408.67266c13.30765-7.07878,30.69334-13.42585,44.75808-18.83411,25.396-9.76544,51.26778-11.53186,77.871-15.252,20.39513-2.852,46.24986-8.05735,61.38014-23.18763,30.61582-30.61582,41.0917-79.50351,71.91048-82.63,36.89326-3.7428,90.66974,0,111.66224-31.71208s2.23324-42.43165,34.392-52.25793c40.54583-12.389,48.68473-5.80643,68.78393-44.66489S551.87243,88.63773,562.9097,79.027"/></g></svg>