<?xml version="1.0" encoding="utf-8"?>
<!-- Generator: Adobe Illustrator 25.2.0, SVG Export Plug-In . SVG Version: 6.00 Build 0)  -->
<svg version="1.1" id="Layer_1" xmlns="http://www.w3.org/2000/svg" xmlns:xlink="http://www.w3.org/1999/xlink" x="0px" y="0px"
	 viewBox="0 0 566.93 595.28" style="enable-background:new 0 0 566.93 595.28;" xml:space="preserve">
<style type="text/css">
	.st0{fill:none;}
	.st1{fill:#906253;}
	.st2{fill:none;stroke:#54575C;stroke-miterlimit:10;}
	.st3{fill:#ECBB8F;}
	.st4{fill:none;stroke:#54575C;stroke-linejoin:round;stroke-miterlimit:10;}
	.st5{fill:#E0635D;}
	.st6{fill:#F5C65D;}
	.st7{fill:#4890BA;}
	.st8{fill:#54575C;}
	.st9{fill:#FFFFFF;}
	.st10{fill:none;stroke:#54575C;stroke-width:1;stroke-miterlimit:9.9999;}
	.st11{fill:#F4F4F5;}
</style>
<g>
	<g>
		<g>
			<path class="st0" d="M353.7,191.88c-1.45-1.04-3.34,3.37-5.89,8.31l11.07,2.21C356.62,197.77,354.99,192.8,353.7,191.88z"/>
			<path class="st0" d="M335.17,187.94c-4.36-2.9-7.97,1.77-11.38,7.45l11.32,2.26c0.26-0.63,0.54-1.24,0.85-1.83
				C339.9,188.33,335.17,187.94,335.17,187.94z"/>
			<path class="st1" d="M209.69,192.46c0,0-4.03-25.5-3.13-31.32c0.89-5.82,8.5-4.03,17.89-6.71c9.39-2.68,10.29-8.5,13.87-10.29
				c3.58-1.79,10.29,7.16,11.63,3.58c1.34-3.58,8.05-3.58,8.05-3.58c13.42-0.45,7.16,9.84,7.16,9.84
				c9.84,0.45,9.39,23.71,9.39,23.71s1.69-3.62,5.93-4.48c2.5-6.97,5.63-15.79,6.15-17.89c0.89-3.58-7.16-3.58-6.71-4.92
				s-3.13-12.08-9.84-15.66s-10.29,2.68-18.79,3.58c-8.5,0.89-6.26-1.79-23.26-5.37s-20.58,5.82-28.18,12.97
				c-7.61,7.16-4.47,14.76-1.34,27.29c1.3,5.21,3.92,10.17,6.76,14.34C207.35,186.78,209.69,192.46,209.69,192.46z"/>
			<path class="st2" d="M376.58,202.99c-0.01-0.04-0.02-0.07-0.02-0.07L376.58,202.99z"/>
			<path class="st3" d="M284.71,177.27c-1.5-0.28-2.79-0.24-3.92-0.01c-4.24,0.86-5.93,4.48-5.93,4.48s0.45-23.26-9.39-23.71
				c0,0,6.26-10.29-7.16-9.84c0,0-6.71,0-8.05,3.58s-8.05-5.37-11.63-3.58c-3.58,1.79-4.47,7.61-13.87,10.29
				c-9.39,2.68-17,0.89-17.89,6.71c-0.89,5.82,3.13,31.32,3.13,31.32s-2.34-5.68-4.42-4.9c-0.32,0.12-0.64,0.39-0.95,0.87
				c-2.24,3.58,1.79,25.5,8.5,26.39c0,0,4.03,10.74,11.18,17.45c0.57,0.54,1.23,1.14,1.94,1.77c8.15,7.28,24.36,20.04,28.48,18.81
				c3.52-1.06,15.07-8.49,21.36-14.22c1.7-1.55,3.03-2.98,3.7-4.12c3.13-5.37,0.89-33.55,0.89-33.55S291.87,178.61,284.71,177.27z"
				/>
			<path class="st2" d="M235.89,263.2c0,0,0.05-0.09,0.12-0.24C235.37,263.14,235.89,263.2,235.89,263.2z"/>
			<path class="st3" d="M373.41,186.36c-1.58-2.76-33.5-11.82-50.85-11.43c-9.26,0.21-14.14,8.74-16.07,17.01
				c-1.69,7.21-1.14,14.21,0.7,15.31c3.94,2.36,4.73,5.52,10.25-1.58c2.13-2.74,4.2-6.71,6.35-10.28
				c3.42-5.68,7.03-10.36,11.38-7.45c0,0,4.73,0.39,0.79,7.88c-0.31,0.59-0.59,1.2-0.85,1.83c-3.1,7.36-2.9,16.81,4,13.54
				c3.55-1.68,6.39-6.56,8.7-11.01c2.55-4.93,4.44-9.34,5.89-8.31c1.29,0.92,2.92,5.89,5.18,10.52c2.58,5.27,5.96,10.11,10.58,8.01
				c3.73-1.69,5.55-3.31,6.43-4.61l1.78,0.35l23.41,4.67C389.26,200.81,374.35,188.01,373.41,186.36z"/>
			<path class="st4" d="M316.75,318.41l-0.1,0.12C316.75,318.48,316.79,318.44,316.75,318.41z"/>
			<path class="st0" d="M242.75,320.32l32.96,34.13l5.19,62.54h5.27l-1.45-63.08l31.93-35.38
				C314.03,319.81,262.51,327.7,242.75,320.32z"/>
			<path class="st5" d="M242.75,320.32c19.76,7.38,71.28-0.51,73.9-1.8l0.1-0.12C301.73,307.48,232.72,316.57,242.75,320.32z"/>
			<g>
				<path class="st6" d="M438.94,250.21c-5.9-10.48-19.41-22.32-23.81-26.02l-6.94,39.42l-116.67-9.07
					c-2.98-3.71-4.88-7.91-6.01-12.34l-8.18-0.78c-6.29,5.74-17.83,13.17-21.36,14.22c-4.11,1.23-20.33-11.53-28.48-18.81
					c-6.46,0.16-34.61,0.94-47.13,2.33c-14.19,1.58-43.75,50.06-43.75,86.32s0,40.99,48.48,21.28c0,0,9.07,7.09,5.12,31.93
					c-3.94,24.83-2.36,72.33,8.67,76.67c0.15,0.06,0.33,0.12,0.49,0.17c8.61,3.13,43.23,6.55,73.71,4.89l23.71-2.35
					c3.74-0.55,7.47-1.18,11.18-1.92c0,0,6.4-0.79,15.07-1.97c1.85-0.25,3.46-1.73,4.8-4.04c4.95-8.55,6.16-36.74,1.51-49.76
					c-5.91-16.55-11.82-93.41,5.12-103.27c16.95-9.85,70.55,7.09,85.53-29.17C420.02,267.95,446.03,262.83,438.94,250.21z
					 M204.54,306.21c0,0-17.45,40.26-32.21,40.71c-9.87,0.3-21.14-11.21-26.19-21.54c-3.89-4.78-5.95-11.15-2.16-16.74
					c2.31-3.41,17.83-16.65,18.92-17.79c5.12-5.4,12.39-7.84,17.88-12.73c0.71-0.63,1.47-1.01,2.24-1.18
					c-0.73-0.78-1.21-1.84-1.24-3.19c-0.19-7.76-3.93-20.31,4.18-25.51c3.9-2.5,9-2.27,13.6-1.83c0.69-0.49,1.55-0.82,2.58-0.89
					c7.49-0.52,14.99-0.81,22.49-1.08c2.11-0.08,3.51,0.96,4.22,2.39c1.03,0.82,2.51,2.53,5.18,6.09c2.87,3.83,0.67,8.91,0.12,10.05
					c0.72-0.2,2.93-0.54,9.09-1.12c11.64-1.08,5.42,5.42,5.42,5.42c7.58,4.6-0.27,12.46-0.27,12.46s3.13-2.59,3.13,3.67
					s-32.21,15.21-32.21,15.21C215.72,306.21,204.54,306.21,204.54,306.21z M314.78,318.52l-31.93,35.38l1.45,51.76h-5.27
					l-5.19-51.21l-32.96-34.13c-10.03-3.74,58.99-12.83,74-1.91C314.93,318.44,314.88,318.48,314.78,318.52z"/>
			</g>
			<path class="st3" d="M250.24,279.72c0,0,7.85-7.85,0.27-12.46c0,0,6.23-6.5-5.42-5.42c-6.16,0.57-8.36,0.92-9.09,1.12
				c-0.07,0.15-0.12,0.24-0.12,0.24s-0.53-0.06,0.12-0.24c0.55-1.14,2.75-6.22-0.12-10.05c-6.4-8.54-5.96-6.5-8.94-6.77
				s-23.83,2.71-33.31,2.71s-10.24,20.17-7.83,29.17c0,0-35.34,25.5-39.82,34.45c-4.47,8.95,13.42,34.89,28.18,34.45
				c5.12-0.16,10.56-5.1,15.48-11.49c0,0,1.5-2.01,1.95-2.65c8.35-11.76,14.77-26.57,14.77-26.57s11.18,0,14.76-7.61
				c0,0,32.21-8.95,32.21-15.21C253.38,277.13,250.24,279.72,250.24,279.72z"/>
			<path class="st5" d="M314.09,318.01l-31.93,35.38l1.45,51.76h-5.27l-5.19-51.21l-32.96-34.13c-10.03-3.74,58.99-12.83,74-1.91
				C314.23,317.92,314.18,317.96,314.09,318.01z"/>
			<g>
				<path class="st7" d="M274.74,415.59c0,2.45,1.98,4.43,4.43,4.43s4.43-1.98,4.43-4.43s-4.43-6.54-4.43-6.54
					S274.74,413.14,274.74,415.59z"/>
			</g>
			<path class="st8" d="M396.82,208.99l-23.41-4.67l-1.78-0.35c-0.88,1.3-2.71,2.92-6.43,4.61c-4.62,2.1-8.01-2.73-10.58-8.01
				l-11.07-2.21c-2.3,4.45-5.14,9.32-8.7,11.01c-6.9,3.27-7.1-6.18-4-13.54l-11.32-2.26c-2.15,3.57-4.22,7.55-6.35,10.28
				c-5.52,7.09-6.31,3.94-10.25,1.58c-1.84-1.1-2.39-8.11-0.7-15.31l-9.4-1.88c0,0-15.54,29.18-9.71,52.15
				c1.12,4.43,3.03,8.63,6.01,12.34l116.67,9.07l6.94-39.42l1.73-9.85L396.82,208.99z"/>
		</g>
		<path class="st0" d="M349.85,189.69c-1.45-1.04-3.34,3.37-5.89,8.31l11.07,2.21C352.77,195.58,351.14,190.61,349.85,189.69z"/>
		<path class="st0" d="M331.32,185.75c-4.36-2.9-7.97,1.77-11.38,7.45l11.32,2.26c0.26-0.63,0.54-1.24,0.85-1.83
			C336.05,186.14,331.32,185.75,331.32,185.75z"/>
		<path class="st2" d="M209.26,193.07c0,0-4.03-25.5-3.13-31.32c0.89-5.82,8.5-4.03,17.89-6.71c9.39-2.68,10.29-8.5,13.87-10.29
			c3.58-1.79,10.29,7.16,11.63,3.58s8.05-3.58,8.05-3.58c13.42-0.45,7.16,9.84,7.16,9.84c9.84,0.45,9.39,23.71,9.39,23.71
			s1.69-3.62,5.93-4.48c2.5-6.97,5.63-15.79,6.15-17.89c0.89-3.58-7.16-3.58-6.71-4.92s-3.13-12.08-9.84-15.66
			s-10.29,2.68-18.79,3.58c-8.5,0.89-6.26-1.79-23.26-5.37s-20.58,5.82-28.18,12.97c-7.61,7.16-4.47,14.76-1.34,27.29
			c1.3,5.21,3.92,10.17,6.76,14.34C206.92,187.4,209.26,193.07,209.26,193.07z"/>
		<path class="st2" d="M181.97,275.83c0,0,0.74,4.41,2.87,9.77C183.58,282.07,182.72,278.62,181.97,275.83z"/>
		<path class="st2" d="M372.73,200.8c-0.01-0.04-0.02-0.07-0.02-0.07L372.73,200.8z"/>
		<path class="st2" d="M202.55,304.02c-0.56-0.13-1.07-0.3-1.59-0.46C201.48,303.73,202.01,303.88,202.55,304.02z"/>
		<path class="st2" d="M283.97,173.83c-1.5-0.28-2.79-0.24-3.92-0.01c-4.24,0.86-5.93,4.48-5.93,4.48s0.45-23.26-9.39-23.71
			c0,0,6.26-10.29-7.16-9.84c0,0-6.71,0-8.05,3.58s-8.05-5.37-11.63-3.58c-3.58,1.79-4.47,7.61-13.87,10.29
			c-9.39,2.68-17,0.89-17.89,6.71c-0.89,5.82,3.13,31.32,3.13,31.32s-2.34-5.68-4.42-4.9c-0.32,0.12-0.64,0.39-0.95,0.87
			c-2.24,3.58,1.79,25.5,8.5,26.39c0,0,4.03,10.74,11.18,17.45c0.57,0.54,1.23,1.14,1.94,1.77c8.15,7.28,24.36,20.04,28.48,18.81
			c3.52-1.06,15.07-8.49,21.36-14.22c1.7-1.55,3.03-2.98,3.7-4.12c3.13-5.37,0.89-33.55,0.89-33.55S291.13,175.18,283.97,173.83z"/>
		<path class="st2" d="M184.85,285.61c-2.13-5.36-2.87-9.77-2.87-9.77s-35.34,25.5-39.82,34.45c-4.47,8.95,13.42,34.89,28.18,34.45
			c14.76-0.45,32.21-40.71,32.21-40.71c-0.54-0.13-1.07-0.29-1.59-0.46C191.98,300.8,187.5,293.04,184.85,285.61z"/>
		<path class="st2" d="M232.04,261.01c0,0,0.05-0.09,0.12-0.24C231.52,260.95,232.04,261.01,232.04,261.01z"/>
		<path class="st4" d="M249.53,281.2c0-6.26-3.13-3.67-3.13-3.67s-11.1,13-44.14,8.67c33.04,4.33,44.14-8.67,44.14-8.67
			s7.85-7.85,0.27-12.46c0,0-13,15.43-49.55,12.19c36.56,3.25,49.55-12.19,49.55-12.19s6.23-6.5-5.42-5.42
			c-6.16,0.57-8.36,0.92-9.09,1.12c-0.07,0.15-0.12,0.24-0.12,0.24s-3.52,10.29-19.77-4.6c16.25,14.89,19.77,4.6,19.77,4.6
			s-0.53-0.06,0.12-0.24c0.55-1.14,2.75-6.22-0.12-10.05c-6.4-8.54-5.96-6.5-8.94-6.77s-23.83,2.71-33.31,2.71
			s-10.24,20.17-7.83,29.17c0.75,2.79,1.61,6.24,2.87,9.77c2.69,6.78,7.62,15.08,16.12,17.95c0.52,0.16,1.04,0.34,1.59,0.46
			c0,0,11.18,0,14.76-7.61C217.32,296.41,249.53,287.46,249.53,281.2z"/>
		<path class="st2" d="M200.96,303.55c-8.5-2.86-13.42-11.17-16.12-17.95C187.5,293.04,191.98,300.8,200.96,303.55z"/>
		<path class="st2" d="M397.24,208.63l-23.41-4.67l-1.78-0.35c-0.88,1.3-2.71,2.92-6.43,4.61c-4.62,2.1-8.01-2.73-10.58-8.01
			L343.97,198c-2.3,4.45-5.14,9.32-8.7,11.01c-6.9,3.27-7.1-6.18-4-13.54l-11.32-2.26c-2.15,3.57-4.22,7.55-6.35,10.28
			c-5.52,7.09-6.31,3.94-10.25,1.58c-1.84-1.1-2.39-8.11-0.7-15.31l-9.4-1.88c0,0-15.54,29.18-9.71,52.15
			c1.12,4.43,3.03,8.63,6.01,12.34l116.67,9.07l6.94-39.42l1.73-9.85L397.24,208.63z"/>
		<path class="st2" d="M369.56,184.17c-1.58-2.76-33.5-11.82-50.85-11.43c-9.26,0.21-14.14,8.74-16.07,17.01
			c-1.69,7.21-1.14,14.21,0.7,15.31c3.94,2.36,4.73,5.52,10.25-1.58c2.13-2.74,4.2-6.71,6.35-10.28c3.42-5.68,7.03-10.36,11.38-7.45
			c0,0,4.73,0.39,0.79,7.88c-0.31,0.59-0.59,1.2-0.85,1.83c-3.1,7.36-2.9,16.81,4,13.54c3.55-1.68,6.39-6.56,8.7-11.01
			c2.55-4.93,4.44-9.34,5.89-8.31c1.29,0.92,2.92,5.89,5.18,10.52c2.58,5.27,5.96,10.11,10.58,8.01c3.73-1.69,5.55-3.31,6.43-4.61
			l1.78,0.35l23.41,4.67C385.41,198.62,370.5,185.82,369.56,184.17z"/>
		<path class="st4" d="M312.91,316.22l-0.1,0.12C312.9,316.29,312.94,316.25,312.91,316.22z"/>
		<path class="st4" d="M238.9,318.13l32.96,34.13l5.19,52.83h5.27l-1.45-53.38l31.93-35.38
			C310.18,317.62,258.66,325.51,238.9,318.13z"/>
		<path class="st4" d="M238.9,318.13c19.76,7.38,71.28-0.51,73.9-1.8l0.1-0.12C297.89,305.3,228.87,314.39,238.9,318.13z"/>
		<g>
			<path class="st2" d="M436.96,248.03c-5.9-10.48-19.41-22.32-23.81-26.02l-6.94,39.42l-116.67-9.07
				c-2.98-3.71-4.88-7.91-6.01-12.34l-8.18-0.78c-6.29,5.74-17.83,13.17-21.36,14.22c-4.11,1.23-20.33-11.53-28.48-18.81
				c-6.46,0.16-34.61,0.94-47.13,2.33c-14.19,1.58-43.75,50.06-43.75,86.32s0,40.99,48.48,21.28c0,0,9.07,7.09,5.12,31.93
				c-3.94,24.83-2.36,72.33,8.67,76.67c0.15,0.06,0.33,0.12,0.49,0.17c8.61,3.13,43.23,6.55,73.71,4.89l23.71-2.35
				c3.74-0.55,7.47-1.18,11.18-1.92c0,0,6.4-0.79,15.07-1.97c1.85-0.25,3.46-1.73,4.8-4.04c4.95-8.55,6.16-36.74,1.51-49.76
				c-5.91-16.55-11.82-93.41,5.12-103.27c16.95-9.85,70.55,7.09,85.53-29.17C418.04,265.76,444.05,260.64,436.96,248.03z
				 M202.55,304.02c0,0-17.45,40.26-32.21,40.71c-14.76,0.45-32.66-25.5-28.18-34.45c4.47-8.95,39.82-34.45,39.82-34.45
				c-2.41-9.01-1.65-29.17,7.83-29.17s30.33-2.98,33.31-2.71c2.98,0.27,2.53-1.77,8.94,6.77c2.87,3.83,0.67,8.91,0.12,10.05
				c0.73-0.2,2.93-0.54,9.09-1.12c11.64-1.08,5.42,5.42,5.42,5.42c7.58,4.6-0.27,12.46-0.27,12.46s3.13-2.59,3.13,3.67
				c0,6.26-32.21,15.21-32.21,15.21C213.74,304.02,202.55,304.02,202.55,304.02z M312.8,316.34l-31.93,35.38l1.45,53.38h-5.27
				l-5.19-52.83l-32.96-34.13c-10.03-3.74,58.99-12.83,74-1.91C312.94,316.25,312.9,316.29,312.8,316.34z"/>
		</g>
		<g>
			<g>
				<g>
					<path class="st9" d="M53.5,463.12h472.04l-38.12-14.83H87.04c-0.06,0-0.12,0.01-0.17,0.03l-33.54,13.95
						C52.88,462.46,53.02,463.12,53.5,463.12z"/>
					<path class="st4" d="M41.82,462.29h472.04l-38.12-14.83H75.36c-0.06,0-0.12,0.01-0.17,0.03l-33.54,13.95
						C41.21,461.62,41.34,462.29,41.82,462.29z"/>
				</g>
			</g>
		</g>
		<g>
			<path class="st2" d="M274.85,415.67c0,2.45,1.98,4.43,4.43,4.43s4.43-1.98,4.43-4.43s-4.43-6.54-4.43-6.54
				S274.85,413.22,274.85,415.67z"/>
		</g>
		<path class="st8" d="M216.25,260.34c-1-0.25-61.7-10.49-61.7-10.49l-0.5,5.25l66.45,8.74L216.25,260.34z"/>
		<g>
			<circle class="st9" cx="303.29" cy="274.29" r="9.97"/>
			<circle class="st2" cx="303.14" cy="275.06" r="9.97"/>
			<g>
				<path class="st9" d="M298.62,280.17c-0.34-0.22-0.59-0.57-0.68-0.97l-1.53-6.82c-0.19-0.84,0.34-1.66,1.17-1.85
					c0.84-0.19,1.66,0.34,1.85,1.17l1.14,5.1l8.77-3.17c0.8-0.29,1.69,0.13,1.98,0.93s-0.13,1.69-0.93,1.98l-10.42,3.77
					c-0.42,0.15-0.88,0.11-1.27-0.1C298.67,280.2,298.65,280.19,298.62,280.17z"/>
			</g>
			<g>
				<path class="st2" d="M298.7,279.62c-0.34-0.22-0.59-0.57-0.68-0.97l-1.53-6.82c-0.19-0.84,0.34-1.66,1.17-1.85
					c0.84-0.19,1.66,0.34,1.85,1.17l1.14,5.1l8.77-3.17c0.8-0.29,1.69,0.13,1.98,0.93c0.29,0.8-0.13,1.69-0.93,1.98l-10.42,3.77
					c-0.42,0.15-0.88,0.11-1.27-0.1C298.75,279.65,298.73,279.63,298.7,279.62z"/>
			</g>
		</g>
		<g>
			<g>
				<path class="st9" d="M286.64,277.61l11.18,18.76c0.81,1.35,0.36,3.1-0.99,3.9l-26.33,15.7c-1.35,0.81-3.1,0.36-3.9-0.99
					l-11.18-18.76c-0.81-1.35-0.36-3.1,0.99-3.9l26.33-15.7C284.09,275.81,285.83,276.26,286.64,277.61z"/>
				<path class="st2" d="M286.58,276.85l11.18,18.76c0.81,1.35,0.36,3.1-0.99,3.9l-26.33,15.7c-1.35,0.81-3.1,0.36-3.9-0.99
					l-11.17-18.76c-0.81-1.35-0.36-3.1,0.99-3.9l26.33-15.7C284.03,275.05,285.78,275.5,286.58,276.85z"/>
				
					<rect x="261.48" y="284.23" transform="matrix(0.8589 -0.5121 0.5121 0.8589 -112.4566 183.5145)" class="st9" width="30.72" height="23.27"/>
				
					<rect x="260.84" y="283.82" transform="matrix(0.8589 -0.5121 0.5121 0.8589 -112.3368 183.1286)" class="st10" width="30.72" height="23.27"/>
			</g>
			<g>
				<path class="st8" d="M282.15,280.57l-21.51,12.83c-0.29,0.17-0.38,0.54-0.21,0.83l7.51,12.6c0.17,0.29,0.54,0.38,0.83,0.21
					l21.51-12.83c0.29-0.17,0.38-0.54,0.21-0.83l-7.51-12.6C282.81,280.49,282.43,280.4,282.15,280.57z M278.74,292.48l-1.79,3.21
					l-1.79,3.21c-0.24,0.42-0.84,0.43-1.09,0.02l-1.88-3.16l-1.88-3.16c-0.25-0.42,0.05-0.95,0.53-0.95l3.67-0.05l3.67-0.05
					C278.67,291.53,278.97,292.05,278.74,292.48z"/>
			</g>
			<line class="st2" x1="269.86" y1="309.29" x2="291.54" y2="296.37"/>
			<circle class="st9" cx="276.67" cy="305.17" r="0.76"/>
			<circle class="st9" cx="277.07" cy="304.93" r="0.76"/>
			<circle class="st2" cx="276.86" cy="305.06" r="0.76"/>
		</g>
		<g>
			<g>
				<path class="st2" d="M274.49,267.62c0.03-0.04,0.07-0.07,0.1-0.11l0,0L274.49,267.62L274.49,267.62z"/>
				<path class="st2" d="M274.36,267.75c0.03-0.04,0.07-0.07,0.1-0.11c0.01-0.01,0.02-0.02,0.03-0.03l0,0L274.36,267.75z"/>
				<path class="st9" d="M273,268.55c-3.05,2.21-6.99,7.41-6.99,7.41l-0.28-0.36l-7.95-10.3c0.08-0.23,0.17-0.46,0.26-0.68
					l-0.86,0.77l8.4,11.8l8.77-9.44C273.94,267.92,273.48,268.2,273,268.55z"/>
				<path class="st9" d="M281.61,259.4c0,0-5.95,3.46-7.02,8.1l7.85-8.45l-10.06-10.2l-0.45,0.6l9.14,9.41L281.61,259.4z"/>
				<path class="st9" d="M281.08,258.86l-9.14-9.41l-0.09-0.09c-2.79,1.63-6.08,8.08-6.13,8.38l8.77,9.87l0.1-0.11
					c1.07-4.64,7.02-8.1,7.02-8.1L281.08,258.86z"/>
				<path class="st9" d="M265.72,257.74c0,0-5.29,1.21-7.68,6.88c-0.09,0.22-0.18,0.45-0.26,0.68l7.95,10.3l0.28,0.36
					c0,0,3.95-5.2,6.99-7.41c0.48-0.35,0.95-0.63,1.37-0.79l0.13-0.14L265.72,257.74z"/>
			</g>
			<g>
				<path class="st2" d="M274.29,267.48c0.03-0.04,0.07-0.07,0.1-0.11l0,0L274.29,267.48L274.29,267.48z"/>
				<path class="st2" d="M274.16,267.62c0.03-0.04,0.07-0.07,0.1-0.11c0.01-0.01,0.02-0.02,0.03-0.03l0,0L274.16,267.62z"/>
				<path class="st2" d="M272.79,268.42c-3.05,2.21-6.99,7.41-6.99,7.41l-0.28-0.36l-7.95-10.3c0.08-0.23,0.17-0.46,0.26-0.68
					l-0.86,0.77l8.4,11.8l8.77-9.44C273.74,267.79,273.28,268.06,272.79,268.42z"/>
				<path class="st2" d="M281.41,259.27c0,0-5.95,3.46-7.02,8.1l7.85-8.45l-10.06-10.2l-0.45,0.6l9.14,9.41L281.41,259.27z"/>
				<path class="st2" d="M280.88,258.72l-9.14-9.41l-0.09-0.09c-2.79,1.63-6.08,8.08-6.13,8.38l8.77,9.87l0.1-0.11
					c1.07-4.64,7.02-8.1,7.02-8.1L280.88,258.72z"/>
				<path class="st2" d="M265.52,257.61c0,0-5.29,1.21-7.68,6.88c-0.09,0.22-0.18,0.45-0.26,0.68l7.95,10.3l0.28,0.36
					c0,0,3.95-5.2,6.99-7.41c0.48-0.35,0.95-0.63,1.37-0.79l0.13-0.14L265.52,257.61z"/>
			</g>
			<g>
				<path class="st9" d="M280.89,261.73l0.57-1.57c0.02-0.07,0.01-0.14-0.05-0.19c-0.05-0.05-0.14-0.07-0.21-0.04l-5.6,2.3
					c-0.07,0.03-0.11,0.09-0.12,0.16c0,0.07,0.03,0.13,0.09,0.17l5.08,3.13c0.06,0.04,0.15,0.04,0.21,0
					c0.06-0.04,0.09-0.11,0.08-0.18l-0.27-1.66l2.61,0.2c0.05,0,0.1-0.01,0.14-0.05c0.04-0.03,0.06-0.07,0.06-0.12l0.16-1.74
					c0-0.05-0.01-0.1-0.04-0.13c-0.03-0.04-0.08-0.06-0.13-0.07L280.89,261.73z"/>
				<path class="st2" d="M280.82,261.5l0.53-1.58c0.02-0.07,0-0.14-0.05-0.19c-0.06-0.05-0.14-0.06-0.21-0.03l-5.54,2.43
					c-0.06,0.03-0.11,0.09-0.11,0.16s0.03,0.13,0.09,0.17l5.16,3.01c0.07,0.04,0.15,0.04,0.21-0.01c0.06-0.04,0.09-0.11,0.08-0.18
					l-0.3-1.65l2.61,0.14c0.05,0,0.1-0.02,0.14-0.05s0.06-0.08,0.06-0.12l0.12-1.74c0-0.05-0.01-0.1-0.05-0.13
					c-0.03-0.04-0.08-0.06-0.13-0.06L280.82,261.5z"/>
			</g>
		</g>
		<path class="st2" d="M243.24,191.98c0,0-1.09,28.02,2.19,28.02s7.44-1.75,7.44-1.75"/>
		<path class="st2" d="M259,224.15c0,0-7.47,6.89-16.49,5.46c-0.62-0.1-1.26-0.24-1.89-0.42"/>
		<path class="st2" d="M210.62,206.21c0,0-1.31-8.54-3.5-8.32"/>
		<path class="st2" d="M183.12,344.59c0,0,7.36-7.71,2.98-12.52"/>
		<g>
			<g>
				<polygon class="st9" points="244.97,290.85 237.47,298.18 238.76,299.5 243.06,295.3 246.17,295.02 253.87,302.9 255.34,301.46 
									"/>
				<polygon class="st9" points="243.06,295.3 238.76,299.5 237.29,300.93 247.66,311.54 255.15,304.22 253.87,302.9 246.17,295.02 
									"/>
			</g>
			<polyline class="st9" points="243.06,295.3 244.64,296.92 246.37,295.22 			"/>
			<line class="st0" x1="242.17" y1="302" x2="245.77" y2="298.48"/>
			<line class="st0" x1="244.63" y1="304.49" x2="248.23" y2="300.97"/>
			<line class="st0" x1="246.81" y1="306.72" x2="250.41" y2="303.2"/>
		</g>
		<g>
			<g>
				<polygon class="st2" points="243.91,292.03 236.42,299.35 237.7,300.67 242,296.48 245.11,296.2 252.81,304.08 254.28,302.64 
									"/>
				<polygon class="st2" points="242,296.48 237.7,300.67 236.23,302.11 246.6,312.72 254.1,305.39 252.81,304.08 245.11,296.2 				
					"/>
			</g>
			<polyline class="st2" points="242,296.48 243.58,298.09 245.31,296.4 			"/>
			<line class="st2" x1="241.11" y1="303.18" x2="244.71" y2="299.66"/>
			<line class="st2" x1="243.57" y1="305.66" x2="247.17" y2="302.15"/>
			<line class="st2" x1="245.75" y1="307.9" x2="249.35" y2="304.38"/>
		</g>
		<path class="st2" d="M236.25,208.35h-14.6c-1.76,0-3.2-1.44-3.2-3.2v-7.37c0-1.76,1.44-3.2,3.2-3.2h14.6c1.76,0,3.2,1.44,3.2,3.2
			v7.37C239.45,206.91,238.01,208.35,236.25,208.35z"/>
		<path class="st2" d="M267.57,207.32h-14.6c-1.76,0-3.2-1.44-3.2-3.2v-7.37c0-1.76,1.44-3.2,3.2-3.2h14.6c1.76,0,3.2,1.44,3.2,3.2
			v7.37C270.77,205.88,269.33,207.32,267.57,207.32z"/>
		<circle class="st8" cx="230.4" cy="196.14" r="1.89"/>
		<circle class="st8" cx="261.2" cy="196.14" r="1.89"/>
		<line class="st2" x1="209.26" y1="193.07" x2="218.45" y2="197.79"/>
		<line class="st2" x1="239.45" y1="197.79" x2="249.77" y2="197.79"/>
		<path class="st2" d="M270.77,196.75l7.93-14.84c0,0,4.16,9.41,1.09,12.26"/>
		<g>
			<path class="st11" d="M279.5,430.89c-5.05,0-9.34-0.68-10.99-1.63c-0.47-0.27-0.74-0.56-0.74-0.87c0,0,2.35,23.5,2.35,23.53
				c0,1.38,2.91,2.5,9.39,2.5s9.39-1.12,9.39-2.5c0-0.11,2.24-22.66,2.24-22.66h-0.64C288.84,430.21,284.55,430.89,279.5,430.89z"/>
			<path class="st11" d="M279.5,425.89c-6.48,0-11.74,1.12-11.74,2.5c0,0.31,0.27,0.6,0.74,0.87c1.66,0.95,5.95,1.63,10.99,1.63
				s9.34-0.68,10.99-1.63c0.47-0.27,0.74-0.56,0.74-0.87C291.24,427.01,285.98,425.89,279.5,425.89z"/>
		</g>
		<g>
			<path class="st2" d="M282.14,430.94c-5.05,0-9.34-0.68-10.99-1.63c-0.47-0.27-0.74-0.56-0.74-0.87c0,0,2.35,23.5,2.35,23.53
				c0,1.38,2.91,2.5,9.39,2.5s9.39-1.12,9.39-2.5c0-0.11,2.24-22.66,2.24-22.66h-0.64C291.48,430.26,287.19,430.94,282.14,430.94z"
				/>
			<path class="st2" d="M282.14,425.94c-6.48,0-11.74,1.12-11.74,2.5c0,0.31,0.27,0.6,0.74,0.87c1.66,0.95,5.95,1.63,10.99,1.63
				s9.34-0.68,10.99-1.63c0.47-0.27,0.74-0.56,0.74-0.87C293.88,427.06,288.62,425.94,282.14,425.94z"/>
		</g>
	</g>
	<g>
		<path class="st9" d="M313.35,216.38c0.72,0.33,1.35,0.76,1.89,1.28c0.54,0.52,0.97,1.1,1.27,1.74c0.31,0.64,0.48,1.32,0.52,2.03
			c0.03,0.25,0.02,0.4-0.02,0.47c-0.05,0.07-0.14,0.1-0.27,0.1l-3.04-0.16c-0.13-0.02-0.22-0.05-0.25-0.11
			c-0.03-0.06-0.05-0.14-0.07-0.27c-0.07-0.79-0.32-1.47-0.73-2.02s-1.05-0.88-1.9-0.99c-1.12-0.13-2.04,0.21-2.78,1.04
			c-0.74,0.82-1.23,2.24-1.47,4.25c-0.24,1.99-0.11,3.47,0.38,4.45c0.5,0.97,1.34,1.53,2.55,1.67c0.86,0.1,1.63-0.02,2.31-0.38
			c0.68-0.36,1.28-1.03,1.8-2.02c0.08-0.13,0.24-0.15,0.51-0.08l2.13,0.73c0.07,0.02,0.13,0.07,0.19,0.15
			c0.05,0.07,0.05,0.22-0.01,0.44c-0.11,0.3-0.3,0.65-0.56,1.04c-0.27,0.39-0.6,0.78-1.01,1.18c-0.41,0.4-0.9,0.75-1.47,1.06
			c-0.57,0.31-1.22,0.54-1.95,0.68c-0.73,0.15-1.54,0.17-2.43,0.06c-1.53-0.18-2.82-0.71-3.87-1.57c-1.05-0.87-1.8-1.98-2.26-3.35
			c-0.45-1.37-0.58-2.91-0.37-4.62c0.21-1.72,0.69-3.17,1.45-4.34c0.76-1.17,1.74-2.03,2.96-2.58c1.21-0.55,2.59-0.73,4.14-0.55
			C311.83,215.82,312.63,216.04,313.35,216.38z"/>
		<path class="st9" d="M321.28,233.16c-1.06-0.81-1.83-1.89-2.29-3.23c-0.47-1.34-0.59-2.88-0.39-4.62
			c0.21-1.77,0.71-3.26,1.49-4.46c0.79-1.2,1.79-2.08,3.02-2.64c1.23-0.55,2.61-0.74,4.16-0.55c1.55,0.18,2.85,0.69,3.9,1.52
			c1.06,0.83,1.82,1.91,2.29,3.26c0.47,1.35,0.6,2.9,0.39,4.67c-0.21,1.74-0.7,3.21-1.47,4.4c-0.77,1.19-1.77,2.06-2.99,2.61
			c-1.23,0.55-2.61,0.73-4.16,0.54C323.67,234.48,322.35,233.98,321.28,233.16z M328.41,230.92c0.67-0.82,1.13-2.23,1.37-4.24
			c0.25-2.05,0.14-3.58-0.32-4.58c-0.46-1-1.29-1.57-2.5-1.71c-1.22-0.15-2.18,0.22-2.87,1.08c-0.69,0.87-1.16,2.32-1.4,4.36
			c-0.24,1.99-0.13,3.47,0.34,4.43c0.47,0.96,1.32,1.51,2.55,1.66C326.79,232.07,327.74,231.73,328.41,230.92z"/>
		<path class="st9" d="M348.06,234.75c-0.65,0.87-1.49,1.45-2.54,1.73c-1.04,0.28-2.26,0.34-3.64,0.17
			c-1.62-0.19-2.89-0.61-3.8-1.23c-0.91-0.63-1.53-1.47-1.85-2.53c-0.32-1.06-0.39-2.32-0.21-3.79l1.15-9.57
			c0.04-0.3,0.17-0.43,0.41-0.4l3.21,0.38c0.22,0.03,0.32,0.17,0.29,0.44l-1.21,10.11c-0.15,1.22,0.01,2.14,0.47,2.75
			c0.46,0.61,1.18,0.98,2.17,1.1c0.62,0.08,1.19,0.03,1.69-0.15c0.5-0.17,0.92-0.5,1.25-0.99c0.33-0.49,0.55-1.16,0.65-2.03
			l1.2-10.02c0.03-0.28,0.16-0.41,0.39-0.38l2.54,0.3c0.22,0.03,0.32,0.17,0.29,0.44l-1.2,10.02
			C349.13,232.66,348.71,233.88,348.06,234.75z"/>
		<path class="st9" d="M364.96,239.02c-0.08,0.11-0.2,0.16-0.34,0.14l-3.28-0.39c-0.25-0.03-0.4-0.18-0.44-0.46l-1.66-6.53
			c-0.06-0.22-0.26-0.35-0.59-0.39l-2.12-0.25c-0.1-0.01-0.18,0.01-0.22,0.06c-0.04,0.06-0.07,0.11-0.07,0.15l-0.74,6.18
			c-0.04,0.36-0.27,0.51-0.67,0.46l-2.83-0.34c-0.18-0.02-0.3-0.07-0.36-0.16c-0.06-0.08-0.08-0.2-0.06-0.35l1.88-15.68
			c0.03-0.28,0.17-0.41,0.41-0.38l6.96,0.83c1.99,0.24,3.5,0.82,4.51,1.74c1.01,0.92,1.43,2.11,1.26,3.57
			c-0.09,0.76-0.31,1.42-0.67,1.98c-0.35,0.56-0.79,1.01-1.29,1.35c-0.51,0.34-1.05,0.57-1.62,0.7c-0.14,0.03-0.18,0.14-0.13,0.32
			l2.15,7.02C365.07,238.77,365.05,238.91,364.96,239.02z M361.65,228.52c0.5-0.31,0.79-0.81,0.87-1.51
			c0.09-0.73-0.08-1.31-0.49-1.73c-0.42-0.43-1-0.69-1.76-0.78l-2.74-0.33c-0.28-0.03-0.44,0.08-0.47,0.33l-0.43,3.59
			c-0.03,0.25,0.06,0.39,0.27,0.42l2.74,0.33C360.48,228.93,361.15,228.83,361.65,228.52z"/>
		<path class="st9" d="M377.55,226.9c-0.45-0.34-1.12-0.56-2.01-0.67c-0.94-0.11-1.66-0.03-2.16,0.25c-0.5,0.28-0.78,0.68-0.84,1.2
			c-0.02,0.18,0,0.38,0.06,0.6c0.06,0.22,0.22,0.44,0.46,0.67c0.24,0.23,0.6,0.44,1.08,0.65l3.4,1.43c1.32,0.54,2.25,1.25,2.77,2.15
			c0.53,0.9,0.72,1.89,0.59,2.98c-0.12,1.04-0.5,1.91-1.13,2.61c-0.63,0.7-1.46,1.2-2.51,1.5c-1.05,0.3-2.25,0.36-3.62,0.2
			c-1.01-0.12-1.95-0.35-2.8-0.69c-0.86-0.34-1.6-0.76-2.22-1.28c-0.62-0.52-1.1-1.09-1.41-1.72c-0.06-0.16-0.07-0.28-0.05-0.38
			c0.03-0.09,0.11-0.19,0.26-0.27l1.86-0.98c0.19-0.08,0.34-0.11,0.45-0.08c0.11,0.03,0.2,0.1,0.28,0.21
			c0.3,0.49,0.61,0.9,0.93,1.24c0.31,0.34,0.69,0.6,1.14,0.79c0.45,0.19,0.99,0.32,1.63,0.4c0.97,0.12,1.76,0.06,2.38-0.18
			c0.62-0.23,0.96-0.67,1.04-1.31c0.03-0.25,0-0.5-0.09-0.73c-0.09-0.23-0.26-0.44-0.5-0.65c-0.24-0.2-0.59-0.41-1.05-0.61
			l-3.25-1.36c-0.85-0.36-1.54-0.8-2.08-1.34c-0.54-0.53-0.93-1.13-1.16-1.79c-0.23-0.66-0.3-1.33-0.22-2.02
			c0.11-0.95,0.48-1.78,1.1-2.47c0.62-0.7,1.43-1.2,2.45-1.53c1.01-0.32,2.16-0.41,3.44-0.26c0.85,0.1,1.63,0.29,2.34,0.57
			c0.71,0.28,1.35,0.63,1.9,1.04c0.55,0.41,0.99,0.89,1.3,1.42c0.05,0.08,0.08,0.17,0.1,0.27c0.02,0.1-0.04,0.2-0.17,0.28
			l-2.04,1.16c-0.1,0.05-0.18,0.06-0.25,0.03c-0.07-0.03-0.17-0.11-0.29-0.25C378.36,227.61,378,227.24,377.55,226.9z"/>
		<path class="st9" d="M385.07,224.82l11.24,1.35c0.22,0.03,0.32,0.17,0.29,0.42l-0.26,2.01c-0.04,0.31-0.21,0.45-0.52,0.41
			l-7.12-0.85c-0.28-0.03-0.44,0.07-0.47,0.31l-0.39,3.23c-0.03,0.25,0.07,0.39,0.29,0.42l4.73,0.57c0.25,0.03,0.36,0.17,0.34,0.4
			l-0.26,2.14c-0.01,0.09-0.05,0.16-0.1,0.21c-0.06,0.05-0.16,0.07-0.29,0.06l-4.77-0.57c-0.21-0.02-0.32,0.05-0.34,0.23l-0.42,3.5
			c-0.02,0.19,0.05,0.3,0.21,0.32l7.63,0.91c0.27,0.03,0.39,0.16,0.36,0.38l-0.25,2.12c-0.01,0.12-0.06,0.21-0.14,0.28
			c-0.08,0.07-0.19,0.09-0.36,0.07l-11.24-1.35c-0.33-0.04-0.47-0.22-0.44-0.53l1.88-15.66
			C384.7,224.91,384.83,224.79,385.07,224.82z"/>
	</g>
</g>
</svg>
