<?xml version="1.0" encoding="utf-8"?>
<!-- Generator: Adobe Illustrator 24.0.3, SVG Export Plug-In . SVG Version: 6.00 Build 0)  -->
<svg version="1.1" id="Layer_1" xmlns="http://www.w3.org/2000/svg" xmlns:xlink="http://www.w3.org/1999/xlink" x="0px" y="0px"
	 viewBox="0 0 566.93 595.28" style="enable-background:new 0 0 566.93 595.28;" xml:space="preserve">
<style type="text/css">
	.st0{fill:#54575C;}
	.st1{fill:none;stroke:#54575C;stroke-miterlimit:10;}
	.st2{fill-rule:evenodd;clip-rule:evenodd;fill:#F4F4F5;}
	.st3{fill:#FFFFFF;}
	.st4{fill:none;}
	.st5{fill:#E17E41;}
	.st6{fill:#F5C65D;}
	.st7{fill:#4890BA;}
	.st8{fill:#235485;}
	.st9{fill:#F4F4F5;stroke:#54575C;stroke-miterlimit:10;}
	.st10{fill:#3581AD;}
	.st11{fill:#DCEFFA;}
	.st12{fill:#906253;}
	.st13{fill:#ECBB8F;}
	.st14{fill:none;stroke:#54575C;stroke-linejoin:round;stroke-miterlimit:10;}
	.st15{fill:#E0635D;}
	.st16{fill:none;stroke:#54575C;stroke-miterlimit:10.0001;}
	.st17{fill:#F4F4F5;}
	.st18{fill:#C7895C;}
	.st19{fill:#61A575;}
	.st20{fill:none;stroke:#54575C;stroke-width:0.9549;stroke-miterlimit:10;}
</style>
<path class="st0" d="M294.01,461.57l-48.52-23.01l-27.64,3.26l12.38-10.48l-73.55,6.03c-1.47,0.12-1.75-2.04-0.29-2.29l86.74-15.08
	c0.89-0.07,1.79-0.06,2.68,0.05l74.74,17.83c0.79,0.19,0.59,1.37-0.22,1.29l-60.39-6.21L294.01,461.57z"/>
<ellipse class="st0" cx="317.93" cy="447.09" rx="8.61" ry="10.13"/>
<ellipse class="st0" cx="289.25" cy="465.86" rx="8.61" ry="10.13"/>
<rect x="236.47" y="336.81" class="st0" width="18.53" height="95.92"/>
<g>
	<g>
		<path class="st4" d="M221.16,152.64c0.02,0.02,0.04,0.04,0.06,0.07c0-0.01,0-0.02,0-0.03
			C221.2,152.66,221.18,152.65,221.16,152.64z"/>
		<path class="st4" d="M289.87,236.96l-0.73,1.49c13.86-2.35,26.54-4.05,26.54-4.05s0.01,0.05,0.02,0.11
			c0.69-2.3,1.4-4.65,2.11-7.02c-4.37-9.3-12.01-25.45-16.66-34.84c-1.53,4.18-3.48,7.95-5.92,10.94
			C298.03,216.8,289.87,236.96,289.87,236.96z"/>
		<path class="st4" d="M184.64,237.38c0,0,5.32,0.78,11.97,1.67l-0.28-21.28L184.64,237.38z"/>
		<path class="st18" d="M291.2,118.38c-6.2,4.39-48.42,8.65-48.42,8.65s-0.9-0.13-1.29,5.29c-0.39,5.42,11.06,9,11.06,9
			s-0.38,3.73-0.48,4.42c-0.5,3.57-0.93,11.97,9.13,20.63c9.29,7.99,15.21,1.84,21.35-3.28c1.8-1.5,3.23-2.82,4.14-3.52
			c1.19-0.92,2.8-4.28,4.47-8.53c3.92-9.99,8.18-24.91,8.18-24.91C298.82,122,291.2,118.38,291.2,118.38z"/>
		<path class="st15" d="M295.22,203.57c-2.05,2.5-4.44,4.46-7.24,5.66c-19.53,8.4-17.01,21-23.73,16.8
			c-6.72-4.2-8.19-14.91-0.42-26.05c7.77-11.13,2.94-11.76,5.46-18.27c1.65-4.27,8.65-13.07,13.26-18.62
			c-6.14,5.12-13.75,9.65-23.04,1.66c-10.07-8.66-7.75-21.03-7.25-24.6l-2.24,8.34c-2.23,5.54-10.16,24.16-11.83,24.16
			c-1.89,0-3.34-13.42-9.64-16.15c-2-0.86-4.54-2.32-7.32-3.84c0,0.01,0,0.02,0,0.03c1.45,12.21,2.59,38.13-12.18,49.39
			c-1.09,0.83-0.8,2.83-2.12,3.4l-9.56,17.53l-0.75,16.02c9.15,1.22,20.81,2.65,24.58,2.53c6.04-0.19,8.67-5.26,17.74-5.15
			c1.16-0.34,2.34-0.52,3.59-0.53c0.14-0.03,0.27-0.07,0.4-0.09c2.64-0.32,5.41,0.45,7.95,1.13c2.8,0.75,5.38,1.71,6.89,4.37
			c0.79,1.4,0.84,2.76,0.42,3.92c6.4-2.29,19.1-4.78,30.95-6.78l0.73-1.49C289.87,236.96,298.03,216.8,295.22,203.57z"/>
		<path class="st18" d="M304.88,195.26c4.66,9.4,8.55,22.92,12.93,32.22c4.62-15.38,9.51-31.6,12.28-40.66
			c-9.67-15.17-13.94-21.63-19.2-28.78C311.71,168.1,309.78,181.85,304.88,195.26z"/>
		<path class="st6" d="M304.99,145.59c-2.52-10.08,6.3-34.24,4.83-46.42c-1.47-12.18-21.42-18.48-21.42-18.48
			c-38.02-1.68-38.02,16.38-40.75,24.15c-2.73,7.77-12.39,7.35-12.6,17.85c-0.21,10.5-13.44,11.76-31.3,14.91
			c-17.85,3.15-9.24,2.73-19.53,12.18c-8.84,8.12-2.49,22.44-0.53,26.31c8.38-14.92,16-26.63,19.22-28.83
			c7.13-4.87,15.56,2.65,18.24,5.37c0.02,0.01,0.04,0.02,0.06,0.03c2.78,1.52,5.33,2.97,7.32,3.84c6.3,2.73,3.15,17.22,5.04,17.22
			c1.68,0,11.69-24.68,13.92-30.22c0.28-0.7,3.35-3.97,3.35-3.97s-4.47-1.06-4.08-6.48c0.39-5.42,0.61-7.1,0.61-7.1
			s42.23-4.26,48.42-8.65c0,0,7.62,3.62,8.14,7.75c0,0-6.66,17.71-10.59,27.7c-1.67,4.25-3.28,7.61-4.47,8.53
			c-0.91,0.7-2.34,2.02-4.14,3.52c-4.61,5.54-13.8,12.63-15.45,16.91c-2.52,6.51,2.31,7.14-5.46,18.27
			c-7.77,11.13-6.3,21.84,0.42,26.05c6.72,4.2,4.2-8.4,23.73-16.8c2.8-1.2,5.19-3.16,7.24-5.66c2.45-2.99,4.39-6.75,5.92-10.94
			c4.9-13.41,5.53-31.08,4.7-41.14C305.63,149,305.34,146.96,304.99,145.59z"/>
		<path class="st18" d="M315.68,234.39c0,0-12.68,1.7-26.54,4.05c-14.07,2.39-29.36,5.44-33.84,8.05
			c-1.98,1.16-10.74-1.03-16.86-1.64c-0.67,0.15-1.08,0.29-1.08,0.29s4.86,1.16,8.36,3.23h38.5h27.31c1.26-4.2,2.68-8.93,4.17-13.88
			C315.68,234.43,315.68,234.39,315.68,234.39z"/>
		<path class="st19" d="M96.64,248.71c-1.56,0.18-3.33,0.42-4.88,0.69c-3.8,0.67-6.49,14.09-5.37,16.78
			c0.29,0.69,3.45,1.35,7.98,1.95l1.32-0.92L96.64,248.71z"/>
		<path class="st1" d="M152.31,248.38h-0.03c0.01,0.01,0.02,0.01,0.03,0.02C152.31,248.39,152.31,248.38,152.31,248.38z"/>
		<path class="st18" d="M241.14,236.54c-10.92-1.05-13.44,4.83-19.95,5.04c-3.77,0.12-15.43-1.31-24.58-2.53
			c-6.64-0.89-11.97-1.67-11.97-1.67l11.69-19.61l7.22-12.11c1.33-0.57,2.56-1.24,3.71-1.99c16.67-10.83,15.41-38.75,13.97-50.96
			c-0.02-0.02-0.04-0.04-0.06-0.07c-2.68-2.73-11.11-10.25-18.24-5.37c-3.22,2.2-10.84,13.91-19.22,28.83
			c-14,24.92-29.14,55.79-30.41,69.29c0,0,3.6,1.91,3.6,1.91c1.51,0.85,2.66,1.78,3.56,2.73c0.85,0.22,1.66,0.52,2.51,0.98
			c0.58,0.32,2.7,2.2,2.88,2.1c-0.68-0.5-0.81-0.6-0.38-0.29c0.15,0.11,0.3,0.22,0.45,0.34c0.46,0.35,0.98,0.72,1.41,1.14
			c1.09,1.09,1.78,2.57,1.87,4.11c11.37-0.91,21.95-4.98,37.72-0.66c17.64,4.83,22.68,5.04,25.84,4.2c3.15-0.84,3.57-1.68,0-3.99
			c-3.57-2.31,10.5,3.36,11.97,1.89c0.11-0.11,0.2-0.23,0.27-0.35c0.61-1.03,0.04-2.5-0.93-3.48c-0.2-0.21-0.26-0.31-0.65-0.54
			c1.05,0.25,2.56,0.42,3.74-0.07c1.06-0.44,2.36-2.24,1.97-3.54c-0.25-0.85-0.89-1.63-1.74-2.33c-0.49-0.41-1.05-0.79-1.66-1.15
			c-3.5-2.07-8.36-3.23-8.36-3.23s0.4-0.14,1.08-0.29c1.19-0.27,3.23-0.6,5.44-0.34c3.65,0.44,7.74,2.33,9.03,1.68
			C255.42,244.94,252.06,237.59,241.14,236.54z"/>
		<path class="st1" d="M95.69,267.21l-1.32,0.92c0.41,0.05,0.83,0.11,1.27,0.16L95.69,267.21z"/>
		<path class="st19" d="M164.45,258.58c-0.1-0.57-0.24-1.1-0.43-1.56c-0.75-1.82-5.81-5.28-11.71-8.62
			c-0.01-0.01-0.02-0.01-0.03-0.02c-6.42-3.63-13.83-7.1-17.79-8.15c-1.14-0.3-2.72-0.33-4.55-0.16l0.54,8.31l1.48,22.72
			c0.04,0,0.07,0,0.07,0s6.94,0.22,10.74,1.34c3.8,1.12,21.03-3.58,21.03-3.58S165.17,262.66,164.45,258.58z"/>
		<path class="st8" d="M131.96,271.1l-1.48-22.72l-0.54-8.31l-0.15-2.3c-15.66-4.03-32.66,1.34-32.66,1.34l-0.49,9.6l-0.94,18.5
			l-0.06,1.08l-0.3,5.94c16.11,10.96,36.91,1.34,36.91,1.34L131.96,271.1z"/>
		<path class="st0" d="M197.92,455.76c0.56,1.12,6.82,5.71,15.32,10.73c8.49,5.02,19.22,10.46,28.69,13.28
			c8.18,2.43,16.87-0.15,20-1.6c10.4-4.8-10.96-13.23-17.6-16.8c-10.4-5.6-16-12.8-16-12.8l-13.6-15.2
			C214.72,433.36,196.32,452.56,197.92,455.76z"/>
		<path class="st0" d="M173.91,438.16c0,0-56.01,32.01-48.81,37.61c7.2,5.6,50.41,0,54.41-6.4c3.4-5.44,13.16-20.7,16.01-25.16
			C189.76,447.66,181.12,449.68,173.91,438.16z"/>
		<path class="st8" d="M171.16,324.77c-0.29,1-0.45,2.04-0.45,3.13c0,8.08,29.18,10.58,49.75,12.26
			c1.46-6.12-12.96-10.5-12.44-15.17L171.16,324.77z"/>
		<path class="st8" d="M343.16,325.77l-11.42-0.07c1.17,2.12,2.3,4.34,3.26,6.54C338.68,330.32,341.42,328.16,343.16,325.77z"/>
		<path class="st7" d="M335,332.24c-0.96-2.2-2.09-4.41-3.26-6.54l-47.66-0.28l-12.5,17.27l-6.57,9.07l-50.29,81.58l13.6,15.2
			c0,0,100.99-97.17,105.79-106.77C335.85,338.32,337.49,337.92,335,332.24z"/>
		<path class="st17" d="M318.6,282.16l-47.43-14.1c-1.88-0.56-3.88-0.58-5.77-0.07l-64.48,17.54c-2.17,0.59-2.68,3.45-0.84,4.75
			l19.67,9.51l7.21,3.49l10.6,5.12c3.17,2.24,7.27,2.66,10.82,1.12l7.06-2.41l22.13-7.55l41.23-14.07
			C320.32,284.84,320.19,282.63,318.6,282.16z"/>
		<path class="st7" d="M273.45,325.37l-65.42-0.38c-0.53,4.68,13.9,9.05,12.44,15.17c-8.9,37.36-47.49,96.48-46.55,98
			c7.2,11.53,15.85,9.5,21.61,6.05c3.84-2.3,6.4-5.25,6.4-5.25l63.09-87.18l6.57-9.07l12.5-17.27L273.45,325.37z"/>
		<path class="st3" d="M444.72,248.38H411.5l-1.96,5.83c-0.29,0.85-1.04,1.46-1.94,1.54c-10.68,1.05-77.49,7.56-96.31,9.39
			c-0.88,0.09-1.69-0.17-2.32-0.65c-4.92-0.69-27.71-2.42-37.2-3.13c-0.58-0.04-0.61-0.88-0.04-0.97l38.01-6.08
			c0.16-0.54,0.33-1.11,0.5-1.68c0.4-1.35,0.83-2.77,1.28-4.26h-27.31h-38.5c0.6,0.36,1.17,0.74,1.66,1.15
			c0.85,0.7,1.48,1.48,1.74,2.33c0.39,1.3-0.92,3.1-1.97,3.54c-0.96,0.4-2.15,0.37-3.12,0.2c-0.22-0.04-0.43-0.08-0.62-0.13
			c0.23,0.15,0.45,0.34,0.65,0.54c0.97,0.98,1.54,2.46,0.93,3.48c-0.07,0.12-0.16,0.24-0.27,0.35c-1.47,1.47-15.54-4.2-11.97-1.89
			c3.57,2.31,3.15,3.15,0,3.99c-3.15,0.84-8.19,0.63-25.84-4.2c-16.32-4.47-27.07,0.04-38.89,0.75c-0.96,0.06-1.93,0.09-2.91,0.09
			c-0.23,0-0.44-0.01-0.66-0.02c0.72,4.09-0.66,10.29-0.66,10.29s-17.23,4.7-21.03,3.58c-3.8-1.12-10.74-1.34-10.74-1.34
			s-0.03,0-0.07,0l0.29,4.48c0,0-20.81,9.62-36.91-1.34l0.3-5.94c-0.43-0.05-0.86-0.11-1.27-0.16l-71.21,49.6l131.26,0.76l38.6,0.22
			l68.51,0.4l11.13,0.06l49.91,0.29l11.96,0.07l199.36,1.16L444.72,248.38z M318.8,285.5l-41.23,14.07l-22.13,7.55l-7.06,2.41
			c-3.56,1.54-7.66,1.12-10.82-1.12l-10.6-5.12l-7.21-3.49l-19.67-9.51c-1.84-1.3-1.34-4.15,0.84-4.75l64.48-17.54
			c1.89-0.52,3.89-0.49,5.77,0.07l47.43,14.1C320.19,282.63,320.32,284.84,318.8,285.5z"/>
	</g>
	<path class="st1" d="M129.79,237.77c-3.27-1.02-14.64,6.96-32.66,1.34"/>
	<path class="st0" d="M120.3,239.72c-0.3-0.89-1.78-29.93-1.78-29.93l2.67,0.3l1.48,28.45"/>
	<path class="st0" d="M110.22,241.2l-0.7-16.54l-0.79-18.72c0,0,2.37-0.3,2.37,3.26s1.78,13.34,1.78,13.34l-0.89,2.96l0.59,15.41"/>
	<polyline class="st0" points="105.18,240.31 104.59,216.3 105.78,211.56 107.26,216.9 108.15,240.61 	"/>
</g>
<g>
	<g>
		<g>
			<path class="st0" d="M251.5,301.39l51.27-16.79c0.64-0.19,0.65-0.51,0-0.71l-28.58-8.59c-0.64-0.2-1.09-0.38-1.73-0.19
				l-48.06,14.31c-0.64,0.19-0.65,0.51,0,0.71l25.37,11.08C250.41,301.39,250.86,301.58,251.5,301.39z M255.84,288.68l2.6-2.92
				l2.6-2.92c0.34-0.39,1.93-0.5,2.85-0.21l7.02,2.2l7.02,2.2c0.92,0.29,0.5,0.77-0.78,0.87l-9.62,0.72l-9.62,0.72
				C256.65,289.42,255.49,289.06,255.84,288.68z"/>
		</g>
		<line class="st1" x1="267.52" y1="273.61" x2="218.93" y2="287.99"/>
		
			<ellipse transform="matrix(6.757368e-03 -1 1 6.757368e-03 -28.0313 528.2439)" class="st0" cx="251.9" cy="278.23" rx="0.63" ry="2.06"/>
	</g>
	<g>
		<path class="st17" d="M440.36,172.9l-98.9,4.24c-0.96,0.04-1.79,0.67-2.08,1.59c-0.39,1.24-0.99,3.2-1.76,5.7
			c-2.77,9.06-7.65,25.28-12.28,40.66c-0.71,2.37-1.42,4.72-2.11,7.02c-1.49,4.95-2.9,9.68-4.17,13.88
			c-0.45,1.49-0.87,2.91-1.28,4.26c-0.17,0.57-0.34,1.14-0.5,1.68c-0.77,2.55-1.43,4.77-1.96,6.55c-0.43,1.42,0.13,2.83,1.19,3.62
			c0.63,0.47,1.44,0.73,2.32,0.65c18.82-1.83,85.63-8.33,96.31-9.39c0.89-0.09,1.65-0.69,1.94-1.54l1.96-5.83l23.58-70.08
			C443.13,174.39,441.96,172.83,440.36,172.9z"/>
		<path class="st4" d="M225.76,151.57c0.02,0.02,0.04,0.04,0.06,0.07c0-0.01,0-0.02,0-0.03
			C225.8,151.59,225.78,151.58,225.76,151.57z"/>
		<path class="st4" d="M252.54,141.33c0,0-0.16,0.41-0.45,1.11l0.26-0.03C252.46,141.72,252.54,141.33,252.54,141.33z"/>
		<path class="st4" d="M294.47,235.88l-0.73,1.49c13.86-2.35,26.54-4.05,26.54-4.05s0.01,0.05,0.02,0.11
			c0.69-2.3,1.4-4.65,2.11-7.02c-4.37-9.3-12.01-25.45-16.66-34.84c-1.53,4.18-3.48,7.95-5.92,10.94
			C302.63,215.73,294.47,235.88,294.47,235.88z"/>
		<path class="st4" d="M189.24,236.3c0,0,5.32,0.78,11.97,1.67l-0.28-21.28L189.24,236.3z"/>
		<path class="st1" d="M295.8,117.31c-6.2,4.39-48.42,8.65-48.42,8.65s-0.9-0.13-1.29,5.29c-0.39,5.42,6.46,10.07,6.46,10.07
			s-0.09,0.39-0.18,1.08c-0.5,3.57-1.23,15.31,8.84,23.97c9.29,7.99,19.81,0.77,25.95-4.35c1.8-1.5,3.23-2.82,4.14-3.52
			c1.19-0.92,2.8-4.28,4.47-8.53c3.92-9.99,8.18-24.91,8.18-24.91C303.42,120.92,295.8,117.31,295.8,117.31z"/>
		<path class="st1" d="M299.82,202.5c-2.05,2.5-4.44,4.46-7.24,5.66c-19.53,8.4-17.01,21-23.73,16.8
			c-6.72-4.2-8.19-14.91-0.42-26.05c7.77-11.13,2.94-11.76,5.46-18.27c1.65-4.27,8.65-13.07,13.26-18.62
			c-6.14,5.12-16.66,12.34-25.95,4.35c-10.07-8.66-9.34-20.4-8.84-23.97l-0.26,0.03c-2.23,5.54-12.24,30.22-13.92,30.22
			c-1.89,0,1.26-14.49-5.04-17.22c-1.99-0.86-4.54-2.32-7.32-3.84c0,0.01,0,0.02,0,0.03c1.45,12.21,2.7,40.13-13.97,50.96
			c-1.15,0.75-2.38,1.42-3.71,1.99l-7.22,12.11l0.28,21.28c9.15,1.22,20.81,2.65,24.58,2.53c6.51-0.21,9.03-6.09,19.95-5.04
			c10.92,1.05,14.28,8.4,11.76,9.66c-1.3,0.65-5.38-1.24-9.03-1.68c-2.2-0.27-4.25,0.06-5.44,0.34c6.12,0.61,14.88,2.79,16.86,1.64
			c4.48-2.61,19.77-5.67,33.84-8.05l0.73-1.49C294.47,235.88,302.63,215.73,299.82,202.5z"/>
		<path class="st1" d="M305.74,191.56c4.66,9.4,12.29,25.54,16.66,34.84c4.62-15.38,9.51-31.6,12.28-40.66
			c-9.67-15.17-18.98-28.17-24.24-35.32C311.27,160.48,310.64,178.16,305.74,191.56z"/>
		<path class="st1" d="M309.59,144.51c-2.52-10.08,6.3-34.24,4.83-46.42C312.95,85.91,293,79.61,293,79.61
			c-38.02-1.68-38.02,16.38-40.75,24.15c-2.73,7.77-12.39,7.35-12.6,17.85c-0.21,10.5-13.44,11.76-31.3,14.91
			c-17.85,3.15-9.24,2.73-19.53,12.18c-8.84,8.12-2.49,22.44-0.53,26.31c8.38-14.92,16-26.63,19.22-28.83
			c7.13-4.87,15.56,2.65,18.24,5.37c0.02,0.01,0.04,0.02,0.06,0.03c2.78,1.52,5.33,2.97,7.32,3.84c6.3,2.73,3.15,17.22,5.04,17.22
			c1.68,0,11.69-24.68,13.92-30.22c0.28-0.7,0.45-1.11,0.45-1.11s-6.84-4.65-6.46-10.07c0.39-5.42,1.29-5.29,1.29-5.29
			s42.23-4.26,48.42-8.65c0,0,7.62,3.62,8.14,7.75c0,0-4.26,14.93-8.18,24.91c-1.67,4.25-3.28,7.61-4.47,8.53
			c-0.91,0.7-2.34,2.02-4.14,3.52c-4.61,5.54-11.61,14.34-13.26,18.62c-2.52,6.51,2.31,7.14-5.46,18.27
			c-7.77,11.13-6.3,21.84,0.42,26.05c6.72,4.2,4.2-8.4,23.73-16.8c2.8-1.2,5.19-3.16,7.24-5.66c2.45-2.99,4.39-6.75,5.92-10.94
			c4.9-13.41,5.53-31.08,4.7-41.14C310.23,147.92,309.94,145.89,309.59,144.51z"/>
		<path class="st1" d="M320.28,233.31c0,0-12.68,1.7-26.54,4.05c-14.07,2.39-29.36,5.44-33.84,8.05
			c-1.98,1.16-10.74-1.03-16.86-1.64c-0.67,0.15-1.08,0.29-1.08,0.29s4.86,1.16,8.36,3.23h38.5h27.31c1.26-4.2,2.68-8.93,4.17-13.88
			C320.28,233.36,320.28,233.31,320.28,233.31z"/>
		<path class="st1" d="M101.24,247.64c-1.56,0.18-3.33,0.42-4.88,0.69c-3.8,0.67-6.49,14.09-5.37,16.78
			c0.29,0.69,3.45,1.35,7.98,1.95l1.32-0.92L101.24,247.64z"/>
		<path class="st1" d="M156.91,247.3h-0.03c0.01,0.01,0.02,0.01,0.03,0.02C156.91,247.31,156.91,247.31,156.91,247.3z"/>
		<path class="st1" d="M245.74,235.46c-10.92-1.05-13.44,4.83-19.95,5.04c-3.77,0.12-15.43-1.31-24.58-2.53
			c-6.64-0.89-11.97-1.67-11.97-1.67l11.69-19.61l7.22-12.11c1.33-0.57,2.56-1.24,3.71-1.99c16.67-10.83,15.41-38.75,13.97-50.96
			c-0.02-0.02-0.04-0.04-0.06-0.07c-2.68-2.73-11.11-10.25-18.24-5.37c-3.22,2.2-10.84,13.91-19.22,28.83
			c-14,24.92-30.11,58.78-31.38,72.28c0,0,0,0.01,0,0.02c5.9,3.33,10.96,6.8,11.71,8.62c0.19,0.47,0.33,0.99,0.43,1.56
			c0.22,0.01,0.43,0.02,0.66,0.02c0.98,0,1.95-0.04,2.91-0.09c11.83-0.7,22.57-5.22,38.89-0.75c17.64,4.83,22.68,5.04,25.84,4.2
			c3.15-0.84,3.57-1.68,0-3.99c-3.57-2.31,10.5,3.36,11.97,1.89c0.11-0.11,0.2-0.23,0.27-0.35c0.61-1.03,0.04-2.5-0.93-3.48
			c-0.2-0.21-0.26-0.31-0.65-0.54c1.05,0.25,2.56,0.42,3.74-0.07c1.06-0.44,2.36-2.24,1.97-3.54c-0.25-0.85-0.89-1.63-1.74-2.33
			c-0.49-0.41-1.05-0.79-1.66-1.15c-3.5-2.07-8.36-3.23-8.36-3.23s0.4-0.14,1.08-0.29c1.19-0.27,3.23-0.6,5.44-0.34
			c3.65,0.44,7.74,2.33,9.03,1.68C260.02,243.86,256.66,236.51,245.74,235.46z"/>
		<path class="st1" d="M312.38,259.8c0.53-1.78,1.2-4,1.96-6.55l-38.01,6.08c-0.57,0.09-0.54,0.92,0.04,0.97
			c9.49,0.71,32.27,2.44,37.2,3.13C312.52,262.62,311.96,261.22,312.38,259.8z"/>
		<path class="st1" d="M437.41,174.21l-98.9,4.24c-0.96,0.04-1.79,0.67-2.08,1.59c-0.39,1.24-0.99,3.2-1.76,5.7
			c-2.77,9.06-7.65,25.28-12.28,40.66c-0.71,2.37-1.42,4.72-2.11,7.02c-1.49,4.95-2.9,9.68-4.17,13.88
			c-0.45,1.49-0.87,2.91-1.28,4.26c-0.17,0.57-0.34,1.14-0.5,1.68c-0.77,2.55-1.43,4.77-1.96,6.55c-0.43,1.42,0.13,2.83,1.19,3.62
			c0.63,0.47,1.44,0.73,2.32,0.65c18.82-1.83,85.63-8.33,96.31-9.39c0.89-0.09,1.65-0.69,1.94-1.54l1.96-5.83l23.58-70.08
			C440.18,175.7,439.01,174.15,437.41,174.21z"/>
		<path class="st1" d="M100.29,266.14l-1.32,0.92c0.41,0.05,0.83,0.11,1.27,0.16L100.29,266.14z"/>
		<path class="st1" d="M169.05,257.5c-0.1-0.57-0.24-1.1-0.43-1.56c-0.75-1.82-5.81-5.28-11.71-8.62c-0.01-0.01-0.02-0.01-0.03-0.02
			c-6.42-3.63-13.83-7.1-17.79-8.15c-1.14-0.3-2.72-0.33-4.55-0.16l0.54,8.31l1.48,22.72c0.04,0,0.07,0,0.07,0s6.94,0.22,10.74,1.34
			c3.8,1.12,21.03-3.58,21.03-3.58S169.77,261.59,169.05,257.5z"/>
		<path class="st1" d="M136.56,270.03l-1.48-22.72l-0.54-8.31l-0.15-2.3c-15.66-4.03-32.66,1.34-32.66,1.34l-0.49,9.6l-0.94,18.5
			l-0.06,1.08l-0.3,5.94c16.11,10.96,36.91,1.34,36.91,1.34L136.56,270.03z"/>
		<path class="st20" d="M202.31,454.73c0.56,1.12,6.82,5.71,15.32,10.73c8.49,5.02,19.22,10.46,28.69,13.28
			c8.18,2.43,16.87-0.15,20-1.6c10.4-4.8-10.96-13.23-17.6-16.8c-10.4-5.6-16-12.8-16-12.8l-13.6-15.2
			C219.12,432.33,200.71,451.53,202.31,454.73z"/>
		<path class="st20" d="M178.31,437.13c0,0-56.01,32.01-48.81,37.61c7.2,5.6,50.41,0,54.41-6.4c3.4-5.44,13.16-20.7,16.01-25.16
			C194.15,446.63,185.51,448.66,178.31,437.13z"/>
		<path class="st20" d="M175.56,323.74c-0.29,1-0.45,2.04-0.45,3.13c0,8.08,29.18,10.58,49.75,12.26
			c1.46-6.12-12.96-10.5-12.44-15.17L175.56,323.74z"/>
		<path class="st20" d="M347.55,324.75l-11.42-0.07c1.17,2.12,2.3,4.34,3.26,6.54C343.07,329.3,345.82,327.13,347.55,324.75z"/>
		<path class="st20" d="M339.39,331.22c-0.96-2.2-2.09-4.41-3.26-6.54l-47.66-0.28l-12.5,17.27l-6.57,9.07l-50.29,81.58l13.6,15.2
			c0,0,100.99-97.17,105.79-106.77C340.24,337.3,341.88,336.89,339.39,331.22z"/>
		<path class="st1" d="M323.2,281.09l-47.43-14.1c-1.88-0.56-3.88-0.58-5.77-0.07l-64.48,17.54c-2.17,0.59-2.68,3.45-0.84,4.75
			l19.67,9.51l7.21,3.49l10.6,5.12c3.17,2.24,7.27,2.66,10.82,1.12l7.06-2.41l22.13-7.55l41.23-14.07
			C324.92,283.76,324.79,281.56,323.2,281.09z"/>
		<path class="st20" d="M277.84,324.34l-65.42-0.38c-0.53,4.68,13.9,9.05,12.44,15.17c-8.9,37.36-47.49,96.48-46.55,98
			c7.2,11.53,15.85,9.5,21.61,6.05c3.84-2.3,6.4-5.25,6.4-5.25l63.09-87.18l6.57-9.07l12.5-17.27L277.84,324.34z"/>
		<path class="st1" d="M449.32,247.3H416.1l-1.96,5.83c-0.29,0.85-1.04,1.46-1.94,1.54c-10.68,1.05-77.49,7.56-96.31,9.39
			c-0.88,0.09-1.69-0.17-2.32-0.65c-4.92-0.69-27.71-2.42-37.2-3.13c-0.58-0.04-0.61-0.88-0.04-0.97l38.01-6.08
			c0.16-0.54,0.33-1.11,0.5-1.68c0.4-1.35,0.83-2.77,1.28-4.26h-27.31h-38.5c0.6,0.36,1.17,0.74,1.66,1.15
			c0.85,0.7,1.48,1.48,1.74,2.33c0.39,1.3-0.92,3.1-1.97,3.54c-0.96,0.4-2.15,0.37-3.12,0.2c-0.22-0.04-0.43-0.08-0.62-0.13
			c0.23,0.15,0.45,0.34,0.65,0.54c0.97,0.98,1.54,2.46,0.93,3.48c-0.07,0.12-0.16,0.24-0.27,0.35c-1.47,1.47-15.54-4.2-11.97-1.89
			c3.57,2.31,3.15,3.15,0,3.99c-3.15,0.84-8.19,0.63-25.84-4.2c-16.32-4.47-27.07,0.04-38.89,0.75c-0.96,0.06-1.93,0.09-2.91,0.09
			c-0.23,0-0.44-0.01-0.66-0.02c0.72,4.09-0.66,10.29-0.66,10.29s-17.23,4.7-21.03,3.58c-3.8-1.12-10.74-1.34-10.74-1.34
			s-0.03,0-0.07,0l0.29,4.48c0,0-20.81,9.62-36.91-1.34l0.3-5.94c-0.43-0.05-0.86-0.11-1.27-0.16l-71.21,49.6l131.26,0.76l38.6,0.22
			l68.51,0.4l11.13,0.06l49.91,0.29l11.96,0.07l199.36,1.16L449.32,247.3z M323.4,284.42l-41.23,14.07l-22.13,7.55l-7.06,2.41
			c-3.56,1.54-7.66,1.12-10.82-1.12l-10.6-5.12l-7.21-3.49l-19.67-9.51c-1.84-1.3-1.34-4.15,0.84-4.75l64.48-17.54
			c1.89-0.52,3.89-0.49,5.77,0.07l47.43,14.1C324.79,281.56,324.92,283.76,323.4,284.42z"/>
	</g>
	<path class="st1" d="M168.62,255.94c-1.93-1-22.68-6.33-28.01-2.48c0,0,6.82,12.45,4.15,17.19"/>
	<path class="st1" d="M157.5,258.2c-0.89-1.19-10.36-17.07-22.96-19.2"/>
	<path class="st1" d="M134.39,236.7c-3.27-1.02-14.64,6.96-32.66,1.34"/>
	<path class="st1" d="M124.9,238.64c-0.3-0.89-1.78-29.93-1.78-29.93l2.67,0.3l1.48,28.45"/>
	<path class="st1" d="M114.82,240.12l-0.7-16.54l-0.79-18.72c0,0,2.37-0.3,2.37,3.26s1.78,13.34,1.78,13.34l-0.89,2.96l0.59,15.41"
		/>
	<polyline class="st1" points="109.78,239.23 109.19,215.23 110.38,210.49 111.86,215.82 112.75,239.53 	"/>
	<polyline class="st1" points="169.35,262.94 208.17,274.5 265.37,263.54 249.58,258.42 	"/>
	<polyline class="st1" points="168.39,267.79 203.14,280.43 255,268.87 248.18,266.8 	"/>
	<path class="st0" d="M242.26,235.08c-0.89-0.59-20.75-27.56-20.75-27.56l2.37-1.48l21.86,29.42"/>
	<polygon class="st0" points="247.12,243.16 259.07,256.69 259.68,256.16 251.26,243.87 	"/>
	<path class="st1" d="M319.57,282.52c-1.87-0.21-45.86-13.9-45.86-13.9l-65.78,17.85l40.67,20.34L319.57,282.52z"/>
	<path class="st1" d="M282.15,152.68c0,0-4.86,4.86-6.95-1.11"/>
	<path class="st1" d="M279.79,160.18c0,0-11.81,1.81-15.7-5.14"/>
	<path class="st1" d="M295.8,117.31c0,0,8.6-29.78-2.8-37.7"/>
	<path class="st1" d="M308.68,130.31l-9.17,11.53c0,0-12.36-3.61-16.95-2.92l-3.06-0.42c0,0-13.06-6.67-24.31-2.92l-3.61-10
		c0,0-11.11-0.56-12.09-1.67"/>
	<path class="st1" d="M299.51,141.84c0,0-0.56,8.34-2.36,8.75s-8.61-0.42-11.53-2.5s-2.78-6.67-2.78-6.67s-2.54-1.87-4.81-1
		c0,0-0.9,4.5-4.22,5.87c-3.31,1.37-16.3-0.8-17.96-1.61s-0.32-9.06-0.32-9.06"/>
	<circle class="st0" cx="292.01" cy="144.21" r="1.11"/>
	<circle class="st0" cx="266.73" cy="139.76" r="1.11"/>
	<path class="st1" d="M248.62,254.52c0,0-6.38-3.55-9.55-3.62"/>
	<path class="st1" d="M208.14,204.59c0,0,8.74-18.47,8.74-23.76"/>
	<line class="st1" x1="236.71" y1="264.54" x2="208.07" y2="270.27"/>
	<g>
		
			<ellipse transform="matrix(0.6709 -0.7415 0.7415 0.6709 -35.6657 351.8023)" class="st3" cx="378.52" cy="216.08" rx="18.81" ry="15.42"/>
		
			<ellipse transform="matrix(0.6709 -0.7415 0.7415 0.6709 -36.6696 352.244)" class="st1" cx="378.52" cy="217.44" rx="18.81" ry="15.42"/>
		<g>
			<path class="st3" d="M372.59,228.65c-0.65-0.12-1.18-0.52-1.45-1.11l-4.77-10c-0.59-1.23,0.03-2.9,1.37-3.75
				c1.34-0.85,2.9-0.55,3.48,0.67l3.57,7.48l13.69-10.9c1.25-1,2.88-0.91,3.63,0.19s0.34,2.81-0.91,3.81L374.92,228
				c-0.65,0.52-1.44,0.76-2.17,0.68C372.69,228.67,372.64,228.66,372.59,228.65z"/>
		</g>
		<g>
			<path class="st1" d="M372.55,227.71c-0.65-0.12-1.18-0.52-1.45-1.11l-4.77-10c-0.59-1.23,0.03-2.9,1.37-3.75
				c1.34-0.85,2.9-0.55,3.48,0.67l3.57,7.48l13.69-10.9c1.25-1,2.88-0.91,3.63,0.19s0.34,2.81-0.91,3.81l-16.26,12.96
				c-0.65,0.52-1.44,0.76-2.17,0.68C372.65,227.73,372.6,227.72,372.55,227.71z"/>
		</g>
	</g>
</g>
<ellipse class="st0" cx="161.4" cy="443.7" rx="7.18" ry="8.45"/>
<line class="st1" x1="27.76" y1="542.09" x2="27.76" y2="316.66"/>
<line class="st1" x1="538.5" y1="319.63" x2="538.5" y2="547"/>
<line class="st1" x1="451.65" y1="324.01" x2="451.65" y2="472.83"/>
<line class="st1" x1="114.76" y1="324.01" x2="114.76" y2="467.92"/>
<line class="st1" x1="538.09" y1="324.75" x2="27.18" y2="323.03"/>
</svg>
