<?xml version="1.0" encoding="utf-8"?>
<!-- Generator: Adobe Illustrator 23.0.6, SVG Export Plug-In . SVG Version: 6.00 Build 0)  -->
<svg version="1.1" xmlns="http://www.w3.org/2000/svg" xmlns:xlink="http://www.w3.org/1999/xlink" x="0px" y="0px"
	 viewBox="0 0 841.89 467.72" style="enable-background:new 0 0 841.89 467.72;" xml:space="preserve">
<style type="text/css">
	.st0{clip-path:url(#SVGID_2_);fill:#4890BA;}
	.st1{clip-path:url(#SVGID_2_);}
	.st2{fill:#FFFFFF;}
	.st3{clip-path:url(#SVGID_2_);fill:#FFFFFF;}
	.st4{fill:#DE8A6B;}
	.st5{fill:#DCEFFA;}
	.st6{fill:none;stroke:#54575C;stroke-miterlimit:10;}
	.st7{fill:#F5C65D;}
	.st8{fill:#54575C;}
	.st9{fill:#B0675C;}
	.st10{fill:#D99C81;}
	.st11{fill:#F4F4F5;}
	.st12{fill:#4890BA;}
	.st13{fill:#E0635D;}
	.st14{fill:#EFB78F;}
	.st15{fill:none;stroke:#54575C;stroke-linejoin:round;stroke-miterlimit:10;}
	.st16{fill:#61A575;}
	.st17{fill:#F4B087;}
	.st18{fill:#D37A56;}
	.st19{fill:none;stroke:#54575C;stroke-width:1.0147;stroke-miterlimit:10;}
	.st20{fill:none;}
	.st21{fill:#DC9063;}
	.st22{fill:#F8D0B8;}
</style>
<g id="Layer_1">
</g>
<g id="Layer_2">
</g>
<g id="Layer_3">
	<g>
		<defs>
			<rect id="SVGID_1_" x="-1.92" y="-0.45" width="844.81" height="468.97"/>
		</defs>
		<clipPath id="SVGID_2_">
			<use xlink:href="#SVGID_1_"  style="overflow:visible;"/>
		</clipPath>
		<rect x="-1.92" y="-0.45" class="st0" width="844.81" height="468.97"/>
		<g class="st1">
			<path class="st2" d="M109.33,232.24c-6.82-2.45-3.5-3.85-1.92-5.24c1.57-1.4,1.92-8.74-4.55-10.84c0,0-1.92-0.35-1.57-2.62
				c0.35-2.27-2.97-6.47-6.82-6.12c-3.85,0.35-3.85,2.45-5.77-0.35c-1.92-2.8-3.15-5.94-9.96-4.2s-6.12,1.22-6.64,2.62
				c-0.52,1.4-2.1,0.52-3.85,1.05c-1.75,0.52,0,1.92-2.27,1.92s-6.99-2.1-10.14,1.4c-3.15,3.5-1.22,6.29-4.02,5.42
				c-2.8-0.87-5.94-2.27-8.57,3.15c-2.62,5.42,1.05,9.79,1.22,12.24c0.17,2.45-1.75,1.92-2.97,3.15c-1.22,1.22,1.05,2.45,1.22,4.02
				c0.17,1.57-2.62,3.5,0.87,7.87c3.5,4.37,1.92,4.37,0.52,4.89c-1.4,0.52-0.87,4.72,1.92,4.37c2.8-0.35,5.94-1.05,6.12-3.32
				c0.12-1.51,3.26,0.69,5.81,1.87c1.28,0.59,2.41,0.93,2.93,0.4c1.57-1.57-0.52-3.32,2.1-6.12c2.62-2.8,2.45-3.5,4.72-5.42
				s2.8-0.17,3.85-2.45c1.05-2.27-0.87-0.35,4.2-1.05s4.89-1.75,7.69-1.75c2.8,0,2.62,1.92,5.77,1.92c3.15,0,3.32,2.45,4.55,4.37
				c1.22,1.92-1.57,7.52,1.92,7.87c0,0,0.08,0.02,0.22,0.02c0.72,0.03,3.07-0.27,3.81-5.44c0.87-6.12-1.4-11.89-1.4-11.89
				s1.92-0.35,3.32,2.62c1.4,2.97,5.42,6.64,8.39,4.89C113,239.76,116.14,234.69,109.33,232.24z"/>
			<path class="st2" d="M95.69,251.3c-3.5-0.35-0.7-5.94-1.92-7.87c-1.22-1.92-1.4-4.37-4.55-4.37c-3.15,0-2.97-1.92-5.77-1.92
				c-2.8,0-2.62,1.05-7.69,1.75s-3.15-1.22-4.2,1.05c-1.05,2.27-1.57,0.52-3.85,2.45s-2.1,2.62-4.72,5.42
				c-2.62,2.8-0.52,4.55-2.1,6.12c-0.52,0.52-1.66,0.19-2.93-0.4c-1.32-0.29-3.24-0.17-3.01,3.2c0.35,5.07,2.62,8.92,6.64,6.82
				c0,0-1.22,8.22,2.45,11.89c0.62,0.62,1.36,1.35,2.18,2.13c4.06,3.83,10.3,8.86,15.82,7.84c3.78-0.7,7.49-3.77,10.03-7.54
				c1.93-2.86,3.18-6.13,3.25-9.07c0.1-3.77,0.35-11.4,0.56-17.46C95.77,251.31,95.69,251.3,95.69,251.3z"/>
			<path class="st2" d="M94.99,291.51c0,0-18.01,8.74-27.8,3.15l-0.27-4.77c-1.45,1.33-3.24,2.82-5.15,4.07
				c-0.58,0.38-1.17,0.69-1.78,0.98c6.32,4.19,25.91,13.37,41.13-4.16c-2.77-1.01-5.2-2.23-6.98-3.22L94.99,291.51z"/>
			<path class="st2" d="M94.15,287.56l-2.06-9.71c-2.54,3.77-6.26,6.84-10.03,7.54c-5.52,1.02-11.77-4-15.82-7.84l0.7,12.33
				l0.27,4.77c9.79,5.59,27.8-3.15,27.8-3.15L94.15,287.56z"/>
			<path class="st2" d="M67.37,255.67c0,0-5.59-1.22-6.47-1.75"/>
			<path class="st2" d="M52.16,251.65c0.35-1.4-2.97-7.52,0-11.36c2.97-3.85-0.35-3.5,6.12-8.39c0.45-0.34,2.56-0.55,2.97-0.87
				c5.5-4.35,7.24-8.26,10.49-6.47c3.5,1.92,1.4-0.17,2.97-1.4c1.57-1.22,11.36-6.12,14.68-0.35c3.32,5.77,0.7,4.55,4.72,7.17
				c4.02,2.62,4.2,4.02,4.2,4.02"/>
			<path class="st2" d="M80.18,257.94c0.34-1.69-0.67-3.36-2.33-3.83c-3.34-0.95-8.53-1.77-10.48,1.56
				c-2.97,5.07,1.05,10.14,6.29,9.27c5.24-0.87,5.94-3.67,6.29-5.77C80.03,258.75,80.1,258.33,80.18,257.94z"/>
			<path class="st2" d="M84.61,257.59c-0.34-1.69,0.67-3.36,2.33-3.83c3.34-0.95,8.53-1.77,10.48,1.56
				c2.97,5.07-1.05,10.14-6.29,9.27s-5.94-3.67-6.29-5.77C84.76,258.4,84.68,257.98,84.61,257.59z"/>
			<path class="st2" d="M79.78,256.54c0,0,3.81-0.58,4.93,0.12"/>
			<path class="st2" d="M82.64,257.58c0,0-0.23,3.04,0.46,5.86c0.55,2.24,2.8,4.89,0.92,5.4l-2.53-0.46"/>
			<path class="st2" d="M75.75,274c0.46,0.23,6.89,3.1,11.14-0.23"/>
			<path class="st2" d="M57.97,253.52c0,0,2.4,1.31,2.17,2.68"/>
			<path class="st2" d="M58.64,256.66c0,0-2.82-0.99-1.15,3.1c1.26,3.1,3.22,1.15,3.22,1.15"/>
			<circle class="st2" cx="73.3" cy="258.46" r="1.34"/>
			<circle class="st2" cx="91.26" cy="258.46" r="1.34"/>
			<path class="st2" d="M63.96,292.62c0,0,1.9,1.89,3.24,2.04"/>
			<path class="st2" d="M98.04,289.56c0,0-2.04,1.82-4.36,2.54"/>
			<g>
				<path class="st2" d="M125.44,294.33c-3.76-1.35-9.46-1.38-15.24-1.6c-3.12-0.12-6.26-0.93-9.07-1.95
					c-15.22,17.53-34.81,8.34-41.13,4.16c-2.66,1.28-5.23,2.47-7.31,2.86c-10.54,1.99-11.23,5.23-12.82,8.38
					c10.21,8.04,23.08,12.85,37.08,12.85C96.88,319.03,114.53,309.29,125.44,294.33z"/>
			</g>
		</g>
		<path class="st3" d="M77.74,198.64c-33.13,0-60,26.86-60,60c0,19.13,8.97,36.16,22.92,47.15c10.21,8.04,23.08,12.85,37.08,12.85
			c19.94,0,37.59-9.73,48.5-24.7c7.22-9.91,11.49-22.1,11.49-35.3C137.73,225.5,110.87,198.64,77.74,198.64z"/>
		<g class="st1">
			<g>
				<path class="st2" d="M77.74,197.84c-33.13,0-60,26.86-60,60c0,19.13,8.97,36.16,22.92,47.15c10.21,8.04,23.08,12.85,37.08,12.85
					c19.94,0,37.59-9.73,48.5-24.7c7.22-9.91,11.49-22.1,11.49-35.3C137.73,224.7,110.87,197.84,77.74,197.84z"/>
			</g>
			<g>
				<path class="st2" d="M75.59,200.7c-33.13,0-60,26.86-60,60c0,19.13,8.97,36.16,22.92,47.15c10.21,8.04,23.08,12.85,37.08,12.85
					c19.94,0,37.59-9.73,48.5-24.7c7.22-9.91,11.49-22.1,11.49-35.3C135.59,227.56,108.73,200.7,75.59,200.7z"/>
			</g>
			<g>
				<path class="st2" d="M109.33,232.24c-6.82-2.45-3.5-3.85-1.92-5.24c1.57-1.4,1.92-8.74-4.55-10.84c0,0-1.92-0.35-1.57-2.62
					c0.35-2.27-2.97-6.47-6.82-6.12c-3.85,0.35-3.85,2.45-5.77-0.35c-1.92-2.8-3.15-5.94-9.96-4.2s-6.12,1.22-6.64,2.62
					c-0.52,1.4-2.1,0.52-3.85,1.05c-1.75,0.52,0,1.92-2.27,1.92s-6.99-2.1-10.14,1.4c-3.15,3.5-1.22,6.29-4.02,5.42
					c-2.8-0.87-5.94-2.27-8.57,3.15c-2.62,5.42,1.05,9.79,1.22,12.24c0.17,2.45-1.75,1.92-2.97,3.15c-1.22,1.22,1.05,2.45,1.22,4.02
					c0.17,1.57-2.62,3.5,0.87,7.87c3.5,4.37,1.92,4.37,0.52,4.89c-1.4,0.52-0.87,4.72,1.92,4.37c2.8-0.35,5.94-1.05,6.12-3.32
					c0.12-1.51,3.26,0.69,5.81,1.87c1.28,0.59,2.41,0.93,2.93,0.4c1.57-1.57-0.52-3.32,2.1-6.12c2.62-2.8,2.45-3.5,4.72-5.42
					s2.8-0.17,3.85-2.45c1.05-2.27-0.87-0.35,4.2-1.05s4.89-1.75,7.69-1.75c2.8,0,2.62,1.92,5.77,1.92c3.15,0,3.32,2.45,4.55,4.37
					c1.22,1.92-1.57,7.52,1.92,7.87c0,0,0.08,0.02,0.22,0.02c0.72,0.03,3.07-0.27,3.81-5.44c0.87-6.12-1.4-11.89-1.4-11.89
					s1.92-0.35,3.32,2.62c1.4,2.97,5.42,6.64,8.39,4.89C113,239.76,116.14,234.69,109.33,232.24z"/>
				<path class="st2" d="M95.69,251.3c-3.5-0.35-0.7-5.94-1.92-7.87c-1.22-1.92-1.4-4.37-4.55-4.37c-3.15,0-2.97-1.92-5.77-1.92
					c-2.8,0-2.62,1.05-7.69,1.75s-3.15-1.22-4.2,1.05c-1.05,2.27-1.57,0.52-3.85,2.45s-2.1,2.62-4.72,5.42
					c-2.62,2.8-0.52,4.55-2.1,6.12c-0.52,0.52-1.66,0.19-2.93-0.4c-1.32-0.29-3.24-0.17-3.01,3.2c0.35,5.07,2.62,8.92,6.64,6.82
					c0,0-1.22,8.22,2.45,11.89c0.62,0.62,1.36,1.35,2.18,2.13c4.06,3.83,10.3,8.86,15.82,7.84c3.78-0.7,7.49-3.77,10.03-7.54
					c1.93-2.86,3.18-6.13,3.25-9.07c0.1-3.77,0.35-11.4,0.56-17.46C95.77,251.31,95.69,251.3,95.69,251.3z"/>
				<path class="st2" d="M94.99,291.51c0,0-18.01,8.74-27.8,3.15l-0.27-4.77c-1.45,1.33-3.24,2.82-5.15,4.07
					c-0.58,0.38-1.17,0.69-1.78,0.98c6.32,4.19,25.91,13.37,41.13-4.16c-2.77-1.01-5.2-2.23-6.98-3.22L94.99,291.51z"/>
				<path class="st2" d="M94.15,287.56l-2.06-9.71c-2.54,3.77-6.26,6.84-10.03,7.54c-5.52,1.02-11.77-4-15.82-7.84l0.7,12.33
					l0.27,4.77c9.79,5.59,27.8-3.15,27.8-3.15L94.15,287.56z"/>
				<path class="st2" d="M67.37,255.67c0,0-5.59-1.22-6.47-1.75"/>
				<path class="st2" d="M52.16,251.65c0.35-1.4-2.97-7.52,0-11.36c2.97-3.85-0.35-3.5,6.12-8.39c0.45-0.34,2.56-0.55,2.97-0.87
					c5.5-4.35,7.24-8.26,10.49-6.47c3.5,1.92,1.4-0.17,2.97-1.4c1.57-1.22,11.36-6.12,14.68-0.35c3.32,5.77,0.7,4.55,4.72,7.17
					c4.02,2.62,4.2,4.02,4.2,4.02"/>
				<path class="st2" d="M80.18,257.94c0.34-1.69-0.67-3.36-2.33-3.83c-3.34-0.95-8.53-1.77-10.48,1.56
					c-2.97,5.07,1.05,10.14,6.29,9.27c5.24-0.87,5.94-3.67,6.29-5.77C80.03,258.75,80.1,258.33,80.18,257.94z"/>
				<path class="st2" d="M84.61,257.59c-0.34-1.69,0.67-3.36,2.33-3.83c3.34-0.95,8.53-1.77,10.48,1.56
					c2.97,5.07-1.05,10.14-6.29,9.27s-5.94-3.67-6.29-5.77C84.76,258.4,84.68,257.98,84.61,257.59z"/>
				<path class="st2" d="M79.78,256.54c0,0,3.81-0.58,4.93,0.12"/>
				<path class="st2" d="M82.64,257.58c0,0-0.23,3.04,0.46,5.86c0.55,2.24,2.8,4.89,0.92,5.4l-2.53-0.46"/>
				<path class="st2" d="M75.75,274c0.46,0.23,6.89,3.1,11.14-0.23"/>
				<path class="st2" d="M57.97,253.52c0,0,2.4,1.31,2.17,2.68"/>
				<path class="st2" d="M58.64,256.66c0,0-2.82-0.99-1.15,3.1c1.26,3.1,3.22,1.15,3.22,1.15"/>
				<circle class="st2" cx="73.3" cy="258.46" r="1.34"/>
				<circle class="st2" cx="91.26" cy="258.46" r="1.34"/>
				<path class="st2" d="M63.96,292.62c0,0,1.9,1.89,3.24,2.04"/>
				<path class="st2" d="M98.04,289.56c0,0-2.04,1.82-4.36,2.54"/>
				<g>
					<path class="st2" d="M125.44,294.33c-3.76-1.35-9.46-1.38-15.24-1.6c-3.12-0.12-6.26-0.93-9.07-1.95
						c-15.22,17.53-34.81,8.34-41.13,4.16c-2.66,1.28-5.23,2.47-7.31,2.86c-10.54,1.99-11.23,5.23-12.82,8.38
						c10.21,8.04,23.08,12.85,37.08,12.85C96.88,319.03,114.53,309.29,125.44,294.33z"/>
				</g>
			</g>
			<g>
				<path class="st4" d="M94.9,248.91c-3.5-0.35-0.7-5.94-1.92-7.87c-1.22-1.92-1.4-4.37-4.55-4.37c-3.15,0-2.97-1.92-5.77-1.92
					c-2.8,0-2.62,1.05-7.69,1.75s-3.15-1.22-4.2,1.05c-1.05,2.27-1.57,0.52-3.85,2.45s-2.1,2.62-4.72,5.42
					c-2.62,2.8-0.52,4.55-2.1,6.12c-0.52,0.52-1.66,0.19-2.93-0.4c-1.32-0.29-3.24-0.17-3.01,3.2c0.35,5.07,2.62,8.92,6.64,6.82
					c0,0-1.22,8.22,2.45,11.89c0.62,0.62,1.36,1.35,2.18,2.13c4.06,3.83,10.3,8.86,15.82,7.84c3.78-0.7,7.49-3.77,10.03-7.54
					c1.93-2.86,3.18-6.13,3.25-9.07c0.1-3.77,0.35-11.4,0.56-17.46C94.98,248.93,94.9,248.91,94.9,248.91z"/>
				<path class="st5" d="M95.79,290.31c0,0-18.01,8.74-27.8,3.15l-0.27-4.77c-1.45,1.33-3.24,2.82-5.15,4.07
					c-0.58,0.38-1.17,0.69-1.78,0.98c6.32,4.19,25.91,13.37,41.13-4.16c-2.77-1.01-5.2-2.23-6.98-3.22L95.79,290.31z"/>
				<path class="st4" d="M93.36,287.36l-2.06-9.71c-2.54,3.77-6.26,6.84-10.03,7.54c-5.52,1.02-11.77-4-15.82-7.84l0.7,12.33
					l0.27,4.77c9.79,5.59,27.8-3.15,27.8-3.15L93.36,287.36z"/>
				<g>
					<path class="st5" d="M125.84,294.72c-3.76-1.35-9.46-1.38-15.24-1.6c-3.12-0.12-6.26-0.93-9.07-1.95
						c-15.22,17.53-34.81,8.34-41.13,4.16c-2.66,1.28-5.23,2.47-7.31,2.86c-10.54,1.99-11.23,5.23-12.82,8.38
						c10.21,8.04,23.08,12.85,37.08,12.85C97.28,319.42,114.93,309.69,125.84,294.72z"/>
				</g>
				<path class="st7" d="M109.13,231.05c-6.82-2.45-3.5-3.85-1.92-5.24c1.57-1.4,1.92-8.74-4.55-10.84c0,0-1.92-0.35-1.57-2.62
					c0.35-2.27-2.97-6.47-6.82-6.12c-3.85,0.35-3.85,2.45-5.77-0.35c-1.92-2.8-3.15-5.94-9.96-4.2s-6.12,1.22-6.64,2.62
					c-0.52,1.4-2.1,0.52-3.85,1.05c-1.75,0.52,0,1.92-2.27,1.92s-6.99-2.1-10.14,1.4c-3.15,3.5-1.22,6.29-4.02,5.42
					c-2.8-0.87-5.94-2.27-8.57,3.15c-2.62,5.42,1.05,9.79,1.22,12.24c0.17,2.45-1.75,1.92-2.97,3.15c-1.22,1.22,1.05,2.45,1.22,4.02
					c0.17,1.57-2.62,3.5,0.87,7.87c3.5,4.37,1.92,4.37,0.52,4.89c-1.4,0.52-0.87,4.72,1.92,4.37c2.8-0.35,5.94-1.05,6.12-3.32
					c0.12-1.51,3.26,0.69,5.81,1.87c1.28,0.59,2.41,0.93,2.93,0.4c1.57-1.57-0.52-3.32,2.1-6.12c2.62-2.8,2.45-3.5,4.72-5.42
					s2.8-0.17,3.85-2.45c1.05-2.27-0.87-0.35,4.2-1.05s4.89-1.75,7.69-1.75c2.8,0,2.62,1.92,5.77,1.92c3.15,0,3.32,2.45,4.55,4.37
					c1.22,1.92-1.57,7.52,1.92,7.87c0,0,0.08,0.02,0.22,0.02c0.72,0.03,3.07-0.27,3.81-5.44c0.87-6.12-1.4-11.89-1.4-11.89
					s1.92-0.35,3.32,2.62c1.4,2.97,5.42,6.64,8.39,4.89C112.8,238.57,115.95,233.5,109.13,231.05z"/>
			</g>
		</g>
		<g class="st1">
			<g>
				<path class="st6" d="M109.33,232.24c-6.82-2.45-3.5-3.85-1.92-5.24c1.57-1.4,1.92-8.74-4.55-10.84c0,0-1.92-0.35-1.57-2.62
					c0.35-2.27-2.97-6.47-6.82-6.12c-3.85,0.35-3.85,2.45-5.77-0.35c-1.92-2.8-3.15-5.94-9.96-4.2s-6.12,1.22-6.64,2.62
					c-0.52,1.4-2.1,0.52-3.85,1.05c-1.75,0.52,0,1.92-2.27,1.92s-6.99-2.1-10.14,1.4c-3.15,3.5-1.22,6.29-4.02,5.42
					c-2.8-0.87-5.94-2.27-8.57,3.15c-2.62,5.42,1.05,9.79,1.22,12.24c0.17,2.45-1.75,1.92-2.97,3.15c-1.22,1.22,1.05,2.45,1.22,4.02
					c0.17,1.57-2.62,3.5,0.87,7.87c3.5,4.37,1.92,4.37,0.52,4.89c-1.4,0.52-0.87,4.72,1.92,4.37c2.8-0.35,5.94-1.05,6.12-3.32
					c0.12-1.51,3.26,0.69,5.81,1.87c1.28,0.59,2.41,0.93,2.93,0.4c1.57-1.57-0.52-3.32,2.1-6.12c2.62-2.8,2.45-3.5,4.72-5.42
					s2.8-0.17,3.85-2.45c1.05-2.27-0.87-0.35,4.2-1.05s4.89-1.75,7.69-1.75c2.8,0,2.62,1.92,5.77,1.92c3.15,0,3.32,2.45,4.55,4.37
					c1.22,1.92-1.57,7.52,1.92,7.87c0,0,0.08,0.02,0.22,0.02c0.72,0.03,3.07-0.27,3.81-5.44c0.87-6.12-1.4-11.89-1.4-11.89
					s1.92-0.35,3.32,2.62c1.4,2.97,5.42,6.64,8.39,4.89C113,239.76,116.14,234.69,109.33,232.24z"/>
				<path class="st6" d="M95.69,251.3c-3.5-0.35-0.7-5.94-1.92-7.87c-1.22-1.92-1.4-4.37-4.55-4.37c-3.15,0-2.97-1.92-5.77-1.92
					c-2.8,0-2.62,1.05-7.69,1.75s-3.15-1.22-4.2,1.05c-1.05,2.27-1.57,0.52-3.85,2.45s-2.1,2.62-4.72,5.42
					c-2.62,2.8-0.52,4.55-2.1,6.12c-0.52,0.52-1.66,0.19-2.93-0.4c-1.32-0.29-3.24-0.17-3.01,3.2c0.35,5.07,2.62,8.92,6.64,6.82
					c0,0-1.22,8.22,2.45,11.89c0.62,0.62,1.36,1.35,2.18,2.13c4.06,3.83,10.3,8.86,15.82,7.84c3.78-0.7,7.49-3.77,10.03-7.54
					c1.93-2.86,3.18-6.13,3.25-9.07c0.1-3.77,0.35-11.4,0.56-17.46C95.77,251.31,95.69,251.3,95.69,251.3z"/>
				<path class="st6" d="M94.99,291.51c0,0-18.01,8.74-27.8,3.15l-0.27-4.77c-1.45,1.33-3.24,2.82-5.15,4.07
					c-0.58,0.38-1.17,0.69-1.78,0.98c6.32,4.19,25.91,13.37,41.13-4.16c-2.77-1.01-5.2-2.23-6.98-3.22L94.99,291.51z"/>
				<path class="st6" d="M94.15,287.56l-2.06-9.71c-2.54,3.77-6.26,6.84-10.03,7.54c-5.52,1.02-11.77-4-15.82-7.84l0.7,12.33
					l0.27,4.77c9.79,5.59,27.8-3.15,27.8-3.15L94.15,287.56z"/>
				<path class="st6" d="M67.37,255.67c0,0-5.59-1.22-6.47-1.75"/>
				<path class="st6" d="M52.16,251.65c0.35-1.4-2.97-7.52,0-11.36c2.97-3.85-0.35-3.5,6.12-8.39c0.45-0.34,2.56-0.55,2.97-0.87
					c5.5-4.35,7.24-8.26,10.49-6.47c3.5,1.92,1.4-0.17,2.97-1.4c1.57-1.22,11.36-6.12,14.68-0.35c3.32,5.77,0.7,4.55,4.72,7.17
					c4.02,2.62,4.2,4.02,4.2,4.02"/>
				<path class="st6" d="M80.18,257.94c0.34-1.69-0.67-3.36-2.33-3.83c-3.34-0.95-8.53-1.77-10.48,1.56
					c-2.97,5.07,1.05,10.14,6.29,9.27c5.24-0.87,5.94-3.67,6.29-5.77C80.03,258.75,80.1,258.33,80.18,257.94z"/>
				<path class="st6" d="M84.61,257.59c-0.34-1.69,0.67-3.36,2.33-3.83c3.34-0.95,8.53-1.77,10.48,1.56
					c2.97,5.07-1.05,10.14-6.29,9.27s-5.94-3.67-6.29-5.77C84.76,258.4,84.68,257.98,84.61,257.59z"/>
				<path class="st6" d="M79.78,256.54c0,0,3.81-0.58,4.93,0.12"/>
				<path class="st6" d="M82.64,257.58c0,0-0.23,3.04,0.46,5.86c0.55,2.24,2.8,4.89,0.92,5.4l-2.53-0.46"/>
				<path class="st6" d="M75.75,274c0.46,0.23,6.89,3.1,11.14-0.23"/>
				<path class="st6" d="M57.97,253.52c0,0,2.4,1.31,2.17,2.68"/>
				<path class="st6" d="M58.64,256.66c0,0-2.82-0.99-1.15,3.1c1.26,3.1,3.22,1.15,3.22,1.15"/>
				<circle class="st8" cx="73.3" cy="258.46" r="1.34"/>
				<circle class="st8" cx="91.26" cy="258.46" r="1.34"/>
				<path class="st6" d="M63.96,292.62c0,0,1.9,1.89,3.24,2.04"/>
				<path class="st6" d="M98.04,289.56c0,0-2.04,1.82-4.36,2.54"/>
				<g>
					<path class="st6" d="M125.44,294.33c-3.76-1.35-9.46-1.38-15.24-1.6c-3.12-0.12-6.26-0.93-9.07-1.95
						c-15.22,17.53-34.81,8.34-41.13,4.16c-2.66,1.28-5.23,2.47-7.31,2.86c-10.54,1.99-11.23,5.23-12.82,8.38
						c10.21,8.04,23.08,12.85,37.08,12.85C96.88,319.03,114.53,309.29,125.44,294.33z"/>
				</g>
			</g>
			<path class="st6" d="M76.94,199.04c-33.13,0-60,26.86-60,60c0,19.13,8.97,36.16,22.92,47.15c10.21,8.04,23.08,12.85,37.08,12.85
				c19.94,0,37.59-9.73,48.5-24.7c7.22-9.91,11.49-22.1,11.49-35.3C136.94,225.9,110.07,199.04,76.94,199.04z"/>
		</g>
		<g class="st1">
			<circle class="st2" cx="130.56" cy="95.39" r="71.8"/>
			<circle class="st2" cx="127.7" cy="98.25" r="71.8"/>
			<path class="st2" d="M162.97,121.52l-12.7-10.16l-1.14,0.94c-1.24-2.6-3.06-7.01-3.17-10.72c5.81-0.05,13.68-0.41,15.43-1.97
				c2.86-2.54,1.59-7.3,5.72-8.57c4.13-1.27,6.67-6.67,3.49-14.93c0,0,6.35-3.49,6.35-7.3c0,0-8.58-0.64-11.75-7.62
				c-3.18-6.99-13.02-25.73-27.63-19.37c0,0-16.2-11.12-25.09,3.81c0,0-4.45,0-5.72,5.08s-6.99,4.45-9.21,7.62
				c-2.22,3.18,4.76,22.55,2.54,26.04c-2.22,3.49-4.13,11.43,0.64,14.29c3.82,2.29,8.88,7.04,17.79,5.87v7.37
				c-1.17,0.02-1.59,0.41-1.59,0.41l-7.62,9.21c0,0-15.24,4.13-21.6,6.03c-4.77,1.43-8.65,6.99-12.03,14.1
				c13.17,15.61,32.86,25.53,54.88,25.53c24.21,0,45.61-12,58.62-30.36C184.06,121.53,162.97,121.52,162.97,121.52z"/>
			<path class="st8" d="M108.67,81.19c-0.32-6.35-0.32-18.42-0.32-23.18c0-4.76,8.58-11.43,8.58-11.43
				c12.39-3.18,10.16,1.59,12.7,9.85c2.54,8.26,13.97,6.67,14.61,9.85c0.64,3.18,6.03,13.02,6.03,13.02s-2.86,14.29-4.13,20.01
				c-0.16,0.71-0.21,1.48-0.19,2.29c5.81-0.05,13.68-0.41,15.43-1.97c2.86-2.54,1.59-7.3,5.72-8.57c4.13-1.27,6.67-6.67,3.49-14.93
				c0,0,6.35-3.49,6.35-7.3c0,0-8.58-0.64-11.75-7.62c-3.18-6.99-13.02-25.73-27.63-19.37c0,0-16.2-11.12-25.09,3.81
				c0,0-4.45,0-5.72,5.08s-6.99,4.45-9.21,7.62c-2.22,3.18,4.76,22.55,2.54,26.04c-2.22,3.49-4.13,11.43,0.64,14.29
				c3.82,2.29,8.88,7.04,17.79,5.87v-2.69C114.06,100.24,108.98,87.54,108.67,81.19z"/>
			<path class="st7" d="M130.56,170.47c24.21,0,45.61-12,58.62-30.36c-5.11-15.3-26.2-15.31-26.2-15.31l-12.7-10.16l-1.14,0.94
				c0.65,1.37,1.14,2.24,1.14,2.24l-8.58,18.1l-12.07,25.72c0,0-1.59-21.6-2.86-28.27c-1.27-6.67-8.26-14.93-8.26-14.93v-3.27
				c-1.17,0.02-1.59,0.41-1.59,0.41l-7.62,9.21c0,0-15.24,4.13-21.6,6.03c-4.77,1.43-8.65,6.99-12.03,14.1
				C88.84,160.55,108.54,170.47,130.56,170.47z"/>
			<path class="st9" d="M148.34,100.98c-0.03-0.8,0.03-1.58,0.19-2.29c1.27-5.72,4.13-20.01,4.13-20.01s-5.4-9.85-6.03-13.02
				c-0.64-3.18-12.07-1.59-14.61-9.85c-2.54-8.26-0.32-13.02-12.7-9.85c0,0-8.58,6.67-8.58,11.43c0,4.76,0,16.83,0.32,23.18
				c0.32,6.35,5.4,19.06,9.85,20.64v2.69v7.37v3.27c0,0,6.99,8.26,8.26,14.93c1.27,6.67,2.86,28.27,2.86,28.27l12.07-25.72
				l8.58-18.1c0,0-0.49-0.87-1.14-2.24C150.28,109.09,148.46,104.69,148.34,100.98z"/>
		</g>
		<g class="st1">
			<circle class="st6" cx="129.13" cy="98.25" r="71.8"/>
			<path class="st8" d="M107.24,84.04c-0.32-6.35-0.32-18.42-0.32-23.18c0-4.76,8.58-11.43,8.58-11.43
				c12.39-3.18,10.16,1.59,12.7,9.85c2.54,8.26,13.97,6.67,14.61,9.85c0.64,3.18,6.03,13.02,6.03,13.02s-2.86,14.29-4.13,20.01
				c-0.16,0.71-0.21,1.48-0.19,2.29c5.81-0.05,13.68-0.41,15.43-1.97c2.86-2.54,1.59-7.3,5.72-8.57c4.13-1.27,6.67-6.67,3.49-14.93
				c0,0,6.35-3.49,6.35-7.3c0,0-8.58-0.64-11.75-7.62c-3.18-6.99-13.02-25.73-27.63-19.37c0,0-16.2-11.12-25.09,3.81
				c0,0-4.45,0-5.72,5.08s-6.99,4.45-9.21,7.62c-2.22,3.18,4.76,22.55,2.54,26.04c-2.22,3.49-4.13,11.43,0.64,14.29
				c3.82,2.29,8.88,7.04,17.79,5.87v-2.69C112.64,103.1,107.55,90.4,107.24,84.04z"/>
			<path class="st6" d="M129.13,170.05c24.21,0,45.61-12,58.62-30.36c-5.11-15.3-26.2-15.31-26.2-15.31l-12.7-10.16l-1.14,0.94
				c0.65,1.37,1.14,2.24,1.14,2.24l-8.58,18.1l-12.07,25.72c0,0-1.59-21.6-2.86-28.27c-1.27-6.67-8.26-14.93-8.26-14.93v-3.27
				c-1.17,0.02-1.59,0.41-1.59,0.41l-7.62,9.21c0,0-15.24,4.13-21.6,6.03c-4.77,1.43-8.65,6.99-12.03,14.1
				C87.42,160.12,107.11,170.05,129.13,170.05z"/>
			<path class="st6" d="M144.53,104.43c-0.03-0.8,0.03-1.58,0.19-2.29c1.27-5.72,4.13-20.01,4.13-20.01s-5.4-9.85-6.03-13.02
				c-0.64-3.18-12.07-1.59-14.61-9.85c-2.54-8.26-0.32-13.02-12.7-9.85c0,0-8.58,6.67-8.58,11.43c0,4.76,0,16.83,0.32,23.18
				c0.32,6.35,5.4,19.06,9.85,20.64v2.69v7.37v3.27c0,0,6.99,8.26,8.26,14.93c1.27,6.67,2.86,28.27,2.86,28.27l12.07-25.72
				l8.58-18.1c0,0-0.49-0.87-1.14-2.24C146.46,112.55,144.64,108.14,144.53,104.43z"/>
			<path class="st6" d="M117.08,118.03c0,0-2.28-0.59-1.59-2.86"/>
			<path class="st6" d="M148.84,117.39c0,0,0.37-1.44,0-3.18"/>
			<path class="st6" d="M161.54,124.38c0,0-7.6,4.1-8.87,14.06c0,0-7.42-6.17-12.41-2.95"/>
			<path class="st6" d="M122.08,125.11c-0.42,0.14-7.3,4.35-8.28,9.4c0,0-5.83-8.06-5.93-10.13"/>
			<path class="st6" d="M117.08,104.69c0,0,8.37,3.72,14.41,0.49"/>
			<path class="st6" d="M132.93,89.85c0,0-6.7,3.63-12.95,2.5c0,0-0.34,3.63,8.52,0.91"/>
			<path class="st6" d="M124.13,78.72c0,0-3.17,2.6-1.77,4.57s4.75,1.11,4.75,1.11"/>
			<circle class="st8" cx="114.01" cy="74.93" r="1.33"/>
			<circle class="st8" cx="134.22" cy="73.32" r="1.33"/>
		</g>
		<g class="st1">
			<g>
				<g>
					<path class="st2" d="M249.34,386.83c-8.3,0-15.02-6.73-15.02-15.02v-0.4v-9.92c6.93-10.94,19.89-37.27,15.52-86.5
						c-0.81-9.07-8.37-17.11-11.33-28c-5.03-18.56-0.31-28.31,0.63-32.72c0.71-3.29,4.4-27.5-4.82-40.57
						c-3.11-4.41-7.7-7.56-14.37-8.19c0,0-12.27-1.26-13.21,23.28c0,0,0.94,11.33-0.63,15.73s-1.26,27.68-1.26,27.68
						s-6.61,5.35-6.29,11.33s-1.89,17.93-5.35,25.48c-3.46,7.55-10.38,16.04-8.49,30.2c1.89,14.16-5.35,48.13-16.04,65.44
						c-10.7,17.3-21.39,108.85-21.39,108.85l77.08-1.89c0,0,2.2-58.52,7.87-65.12c5.36-6.26,20.6-16.46,22.99-19.66H249.34z"/>
					<path class="st2" d="M593.73,92.28H249.34c-8.3,0-15.02,6.73-15.02,15.02v66.39c9.22,13.07,5.53,37.28,4.82,40.57
						c-0.94,4.4-5.66,14.16-0.63,32.72c2.95,10.89,10.52,18.93,11.33,28c4.37,49.23-8.59,75.56-15.52,86.5v9.92v0.4
						c0,8.3,6.73,15.02,15.02,15.02h5.87h298.96h4.44h35.11c1.85,0,3.62-0.35,5.26-0.96c-0.25-4.78-2.46-11.71-4.35-18.7
						c-3.15-11.64-5.02-30.44,5.35-59.46c9.44-26.43,1.57-40.9-0.94-45.93c-2.52-5.03-4.09-27.68,3.15-43.41
						c2.31-5.03,4.53-7.96,6.57-9.56V107.3C608.76,99,602.03,92.28,593.73,92.28z"/>
					<path class="st2" d="M672.66,427.56c-1.26-6.92-20.45-40.27-18.56-60.4c1.89-20.13,10.7-50.97,3.15-69.53
						s-22.02-40.27-22.02-40.27s-1.57-9.12-5.03-13.84c-2.24-3.05-8.81-31.77-11.64-33.98c-1.93-1.5-5.45-4.15-9.79-0.75
						c-2.04,1.6-4.25,4.53-6.57,9.56c-7.24,15.73-5.66,38.38-3.15,43.41c2.52,5.03,10.38,19.51,0.94,45.93
						c-10.36,29.02-8.49,47.82-5.35,59.46c1.89,6.98,4.1,13.92,4.35,18.7c-1.64,0.61-3.41,0.96-5.26,0.96h-35.11h-4.44
						c4.38,4.56,21.17,22.22,26.62,30.67c6.29,9.75,34.92,54.43,34.92,54.43h79.59C695.31,471.92,673.92,434.49,672.66,427.56z"/>
					<path class="st2" d="M225.36,176.95c0,0-8.67-6.63-14.8-2.04c0,0-1.02,16.07,0,18.62c1.02,2.55,8.67,1.28,10.46-0.26
						C222.81,191.75,225.62,178.48,225.36,176.95z"/>
					<path class="st2" d="M204.85,232.2c1.13,0.87,1.13,16.44-2.44,24.6c-3.57,8.16-7.14,21.94-6.89,22.96"/>
					<path class="st2" d="M235.82,402.45c0-1.02-5.36-19.13-13.01-25.25"/>
					<path class="st2" d="M635.22,257.37c0,0,0.07,13.97,1.86,17.8c1.79,3.83,13.77,37.75,13.77,37.75"/>
					<path class="st2" d="M625.35,230.01c0,0-3.28,3.33-6.38,3.57c-2.47,0.19-4.04,0.65-7.65-7.91c-0.68-1.6-3.26-6.12-1.73-8.16
						c1.53-2.04,4.28-7.14,10.65-4.85"/>
				</g>
				<g>
					<path class="st10" d="M245.58,388.72c-8.3,0-15.02-6.73-15.02-15.02v-0.4v-9.92c6.93-10.94,19.89-37.27,15.52-86.5
						c-0.81-9.07-8.37-17.11-11.33-28c-5.03-18.56-0.31-28.31,0.63-32.72c0.71-3.29,4.4-27.5-4.82-40.57
						c-3.11-4.41-7.7-7.56-14.37-8.19c0,0-12.27-1.26-13.21,23.28c0,0,0.94,11.33-0.63,15.73s-1.26,27.68-1.26,27.68
						s-6.61,5.35-6.29,11.33s-1.89,17.93-5.35,25.48c-3.46,7.55-10.38,16.04-8.49,30.2c1.89,14.16-5.35,48.13-16.04,65.44
						c-10.7,17.3-21.39,108.85-21.39,108.85l77.08-1.89c0,0,2.2-58.52,7.87-65.12c5.36-6.26,20.6-16.46,22.99-19.66H245.58z"/>
					<path class="st11" d="M594.24,89.05H249.85c-8.3,0-15.02,6.73-15.02,15.02v66.39c9.22,13.07,5.53,37.28,4.82,40.57
						c-0.94,4.4-5.66,14.16-0.63,32.72c2.95,10.89,10.52,18.93,11.33,28c4.37,49.23-8.59,75.56-15.52,86.5v9.92v0.4
						c0,8.3,6.73,15.02,15.02,15.02h5.87h298.96h4.44h35.11c1.85,0,3.62-0.35,5.26-0.96c-0.25-4.78-2.46-11.71-4.35-18.7
						c-3.15-11.64-5.02-30.44,5.35-59.46c9.44-26.43,1.57-40.9-0.94-45.93c-2.52-5.03-4.09-27.68,3.15-43.41
						c2.31-5.03,4.53-7.96,6.57-9.56V104.08C609.26,95.78,602.53,89.05,594.24,89.05z"/>
					<path class="st10" d="M675.73,428.61c-1.26-6.92-20.45-40.27-18.56-60.4c1.89-20.13,10.7-50.97,3.15-69.53
						s-22.02-40.27-22.02-40.27s-1.57-9.12-5.03-13.84c-2.24-3.05-8.81-31.77-11.64-33.98c-1.93-1.5-5.45-4.15-9.79-0.75
						c-2.04,1.6-4.25,4.53-6.57,9.56c-7.24,15.73-5.66,38.38-3.15,43.41c2.52,5.03,10.38,19.51,0.94,45.93
						c-10.36,29.02-8.49,47.82-5.35,59.46c1.89,6.98,4.1,13.92,4.35,18.7c-1.64,0.61-3.41,0.96-5.26,0.96h-35.11h-4.44
						c4.38,4.56,21.17,22.22,26.62,30.67c6.29,9.75,34.92,54.43,34.92,54.43h79.59C698.38,472.97,676.98,435.53,675.73,428.61z"/>
				</g>
				<g>
					<g>
						<path class="st2" d="M274.93,217c-2.26-1.2-4.41-3.55-3.07-5.08c1.68-1.92,5.63-2.63,4.19-4.07
							c-1.44-1.44-5.03-0.84-5.87-3.35c-0.84-2.51-0.24-7.78,1.2-8.86s-1.56,0.12-1.2-2.75c0.36-2.87,2.51-3.59,1.56-6.71
							s-3.83-11.74-0.24-14.73c3.59-2.99,4.55-2.63,4.31-4.79c-0.24-2.16,4.91-17.36,18.08-16.88c0,0,2.75,2.04,4.55,0.24
							c1.8-1.8,4.16-3.59,7.78-4.19c0.72-0.12,5.27-5.27,15.57,0.84c0,0,6.71-2.63,8.98,1.56c2.28,4.19,0,8.62,2.87,8.86
							c2.87,0.24,7.78,2.99,7.66,5.51c-0.12,2.51-1.8,2.39-2.16,3.11c-0.36,0.72,1.08,1.32,3.59,4.07c2.51,2.75,0.12,3.95,0.72,6.83
							c0.6,2.87,2.99,1.44,2.87,6.47s-3.83,7.66-0.72,11.38c3.11,3.71-2.28,4.31-3.35,7.78c-1.08,3.47,0.96,3.11-0.36,6.47
							c-0.99,2.52-2.59,5.38-6.13,6.13c4.57,0.98,10.62,2.42,12.48,3.56c1.8,1.11,3.48,5.62,4.58,9.23
							c6.62-9.23,10.53-20.53,10.53-32.76c0-31.09-25.2-56.3-56.3-56.3s-56.3,25.2-56.3,56.3c0,12.41,4.03,23.88,10.83,33.19
							C264.05,224.12,268.41,218.9,274.93,217z"/>
						<path class="st2" d="M307.06,251.16c18.87,0,35.56-9.29,45.77-23.54c-1.1-3.61-2.78-8.12-4.58-9.23
							c-1.86-1.14-7.91-2.59-12.48-3.56c-1.16,0.25-2.54,0.27-4.17-0.03c0,0-0.96,5.03-6.11,7.66c-5.15,2.63-7.07,8.26-12.81,8.5
							c-5.36,0.22-20.61-3.62-24.88-9.28c-1.2,0.37-2.83,0.44-5.06-0.18c-6.95-1.92-3.47-3.23-6.11-3.83
							c-0.54-0.12-1.13-0.36-1.72-0.67c-6.52,1.91-10.88,7.13-13.33,11.05C271.84,242.05,288.38,251.16,307.06,251.16z"/>
						<g>
							<path class="st2" d="M324.63,215.99c-1.25-0.2-2.36-0.58-3.36-0.98c-0.96-0.39-1.82-0.79-2.6-1.05
								c-2-0.67-1.56-8.31-1.11-12.88c-2.24,1.77-6.91,7.49-10.74,7.38c-4.07-0.12-12.33-8.26-12.57-9.94
								c-0.08-0.54-0.3-1.56-0.57-2.69c-0.06,6.12-0.21,16.15-0.63,16.61c0,0-0.35,0.47-0.85,1.04c-0.72,1.03-1.66,1.85-2.46,2.41
								c-0.12,0.08-0.22,0.18-0.31,0.29c-0.5,0.56-0.64,1.39-0.32,2.1c0.74,1.68-2.04,2.16-2.04,2.16c0.19,0.43,0.44,0.85,0.75,1.25
								c4.26,5.67,19.52,9.51,24.88,9.28c5.75-0.24,7.66-5.87,12.81-8.5c5.15-2.63,6.11-7.66,6.11-7.66
								C328.89,216.13,326.59,216.29,324.63,215.99z"/>
							<path class="st2" d="M326.1,184.62c0,0,0-5.99-1.92-8.38c-1.92-2.4,0-5.51-0.6-7.07c-0.6-1.56-5.63-4.31-6.35-5.63
								c-0.72-1.32-6.47-2.28-9.22-2.63c-2.75-0.36-2.87-1.2-2.87-1.2c-2.99,0-7.3,3.11-9.82,5.75c-2.51,2.63-4.43,10.42-4.67,11.62
								c-0.24,1.2-1.56,4.67-1.68,3.95s-1.44-0.72-2.16,0.6s1.44,5.63,1.56,6.59c0.12,0.96,0.36,4.19,1.8,2.87s2.16-0.6,2.16-0.6
								s0.21,0.79,0.49,1.88c0.23,0.91,0.51,2.02,0.77,3.08c0.03,0.13,0.06,0.24,0.09,0.37c0.27,1.13,0.5,2.16,0.57,2.69
								c0.24,1.68,8.5,9.82,12.57,9.94c3.83,0.11,8.51-5.6,10.74-7.38c0.14-0.11,0.27-0.21,0.39-0.29c2.04-1.32,5.39-7.9,5.39-7.9
								C329.45,191.08,326.1,184.62,326.1,184.62z"/>
							<path class="st2" d="M345.62,194.44c-3.11-3.71,0.6-6.35,0.72-11.38s-2.28-3.59-2.87-6.47c-0.6-2.87,1.8-4.07-0.72-6.83
								c-2.51-2.75-3.95-3.35-3.59-4.07c0.36-0.72,2.04-0.6,2.16-3.11c0.12-2.51-4.79-5.27-7.66-5.51c-2.87-0.24-0.6-4.67-2.87-8.86
								c-2.28-4.19-8.98-1.56-8.98-1.56c-10.3-6.11-14.85-0.96-15.57-0.84c-3.62,0.6-5.99,2.39-7.78,4.19
								c-1.8,1.8-4.55-0.24-4.55-0.24c-13.17-0.48-18.32,14.73-18.08,16.88c0.24,2.16-0.72,1.8-4.31,4.79
								c-3.59,2.99-0.72,11.62,0.24,14.73s-1.2,3.83-1.56,6.71c-0.36,2.87,2.63,1.68,1.2,2.75s-2.04,6.35-1.2,8.86
								c0.84,2.51,4.43,1.92,5.87,3.35c1.44,1.44-2.51,2.16-4.19,4.07c-1.33,1.52,0.81,3.87,3.07,5.08
								c0.58,0.31,1.18,0.55,1.72,0.67c2.63,0.6-0.84,1.92,6.11,3.83c2.23,0.62,3.86,0.55,5.06,0.18c-0.31-0.41-0.56-0.83-0.75-1.25
								c0,0,2.78-0.48,2.04-2.16c-0.32-0.71-0.18-1.54,0.32-2.1c0.09-0.11,0.2-0.2,0.31-0.29c0.8-0.57,1.74-1.38,2.46-2.41
								c0.5-0.57,0.85-1.04,0.85-1.04c0.42-0.46,0.58-10.49,0.63-16.61c-0.03-0.12-0.06-0.24-0.09-0.37
								c-0.25-1.05-0.53-2.17-0.77-3.08c-0.28-1.09-0.49-1.88-0.49-1.88s-0.72-0.72-2.16,0.6s-1.68-1.92-1.8-2.87
								c-0.12-0.96-2.28-5.27-1.56-6.59s2.04-1.32,2.16-0.6s1.44-2.75,1.68-3.95c0.24-1.2,2.16-8.98,4.67-11.62
								c2.51-2.63,6.83-5.75,9.82-5.75c0,0,0.12,0.84,2.87,1.2c2.75,0.36,8.5,1.32,9.22,2.63c0.72,1.32,5.75,4.07,6.35,5.63
								c0.6,1.56-1.32,4.67,0.6,7.07c1.92,2.39,1.92,8.38,1.92,8.38s3.35,6.47-2.75,8.26c0,0-3.35,6.59-5.39,7.9
								c-0.12,0.08-0.25,0.18-0.39,0.29c-0.45,4.57-0.89,12.22,1.11,12.88c0.78,0.26,1.64,0.66,2.6,1.05c1,0.4,2.11,0.79,3.36,0.98
								c1.96,0.31,4.25,0.14,6.98-1.19c1.63,0.3,3.01,0.28,4.17,0.03c3.54-0.75,5.14-3.61,6.13-6.13c1.32-3.35-0.72-2.99,0.36-6.47
								C343.34,198.75,348.73,198.15,345.62,194.44z"/>
						</g>
					</g>
				</g>
				<g>
					<g>
						<path class="st2" d="M274.27,217c-2.26-1.2-4.41-3.55-3.07-5.08c1.68-1.92,5.63-2.63,4.19-4.07
							c-1.44-1.44-5.03-0.84-5.87-3.35c-0.84-2.51-0.24-7.78,1.2-8.86s-1.56,0.12-1.2-2.75c0.36-2.87,2.51-3.59,1.56-6.71
							s-3.83-11.74-0.24-14.73c3.59-2.99,4.55-2.63,4.31-4.79c-0.24-2.16,4.91-17.36,18.08-16.88c0,0,2.75,2.04,4.55,0.24
							c1.8-1.8,4.16-3.59,7.78-4.19c0.72-0.12,5.27-5.27,15.57,0.84c0,0,6.71-2.63,8.98,1.56c2.28,4.19,0,8.62,2.87,8.86
							c2.87,0.24,7.78,2.99,7.66,5.51c-0.12,2.51-1.8,2.39-2.16,3.11c-0.36,0.72,1.08,1.32,3.59,4.07c2.51,2.75,0.12,3.95,0.72,6.83
							c0.6,2.87,2.99,1.44,2.87,6.47s-3.83,7.66-0.72,11.38c3.11,3.71-2.28,4.31-3.35,7.78c-1.08,3.47,0.96,3.11-0.36,6.47
							c-0.99,2.52-2.59,5.38-6.13,6.13c4.57,0.98,10.62,2.42,12.48,3.56c1.8,1.11,3.48,5.62,4.58,9.23
							c6.62-9.23,10.53-20.53,10.53-32.76c0-31.09-25.2-56.3-56.3-56.3s-56.3,25.2-56.3,56.3c0,12.41,4.03,23.88,10.83,33.19
							C263.4,224.12,267.75,218.9,274.27,217z"/>
						<path class="st12" d="M306.73,253.45c18.87,0,35.56-9.29,45.77-23.54c-1.1-3.61-2.78-8.12-4.58-9.23
							c-1.86-1.14-7.91-2.59-12.48-3.56c-1.16,0.25-2.54,0.27-4.17-0.03c0,0-0.96,5.03-6.11,7.66c-5.15,2.63-7.07,8.26-12.81,8.5
							c-5.36,0.22-20.61-3.62-24.88-9.28c-1.2,0.37-2.83,0.44-5.06-0.18c-6.95-1.92-3.47-3.23-6.11-3.83
							c-0.54-0.12-1.13-0.36-1.72-0.67c-6.52,1.91-10.88,7.13-13.33,11.05C271.51,244.34,288.05,253.45,306.73,253.45z"/>
						<g>
							<path class="st13" d="M346.93,194.11c-3.11-3.71,0.6-6.35,0.72-11.38s-2.28-3.59-2.87-6.47c-0.6-2.87,1.8-4.07-0.72-6.83
								c-2.51-2.75-3.95-3.35-3.59-4.07c0.36-0.72,2.04-0.6,2.16-3.11c0.12-2.51-4.79-5.27-7.66-5.51c-2.87-0.24-0.6-4.67-2.87-8.86
								c-2.28-4.19-8.98-1.56-8.98-1.56c-10.3-6.11-14.85-0.96-15.57-0.84c-3.62,0.6-5.99,2.39-7.78,4.19
								c-1.8,1.8-4.55-0.24-4.55-0.24c-13.17-0.48-18.32,14.73-18.08,16.88c0.24,2.16-0.72,1.8-4.31,4.79
								c-3.59,2.99-0.72,11.62,0.24,14.73s-1.2,3.83-1.56,6.71c-0.36,2.87,2.63,1.68,1.2,2.75s-2.04,6.35-1.2,8.86
								c0.84,2.51,4.43,1.92,5.87,3.35c1.44,1.44-2.51,2.16-4.19,4.07c-1.33,1.52,0.81,3.87,3.07,5.08
								c0.58,0.31,1.18,0.55,1.72,0.67c2.63,0.6-0.84,1.92,6.11,3.83c2.23,0.62,3.86,0.55,5.06,0.18c-0.31-0.41-0.56-0.83-0.75-1.25
								c0,0,2.78-0.48,2.04-2.16c-0.32-0.71-0.18-1.54,0.32-2.1c0.09-0.11,0.2-0.2,0.31-0.29c0.8-0.57,1.74-1.38,2.46-2.41
								c0.5-0.57,0.85-1.04,0.85-1.04c0.42-0.46,0.58-10.49,0.63-16.61c-0.03-0.12-0.06-0.24-0.09-0.37
								c-0.25-1.05-0.53-2.17-0.77-3.08c-0.28-1.09-0.49-1.88-0.49-1.88s-0.72-0.72-2.16,0.6s-1.68-1.92-1.8-2.87
								c-0.12-0.96-2.28-5.27-1.56-6.59s2.04-1.32,2.16-0.6s1.44-2.75,1.68-3.95c0.24-1.2,2.16-8.98,4.67-11.62
								c2.51-2.63,6.83-5.75,9.82-5.75c0,0,0.12,0.84,2.87,1.2c2.75,0.36,8.5,1.32,9.22,2.63c0.72,1.32,5.75,4.07,6.35,5.63
								c0.6,1.56-1.32,4.67,0.6,7.07c1.92,2.39,1.92,8.38,1.92,8.38s3.35,6.47-2.75,8.26c0,0-3.35,6.59-5.39,7.9
								c-0.12,0.08-0.25,0.18-0.39,0.29c-0.45,4.57-0.89,12.22,1.11,12.88c0.78,0.26,1.64,0.66,2.6,1.05c1,0.4,2.11,0.79,3.36,0.98
								c1.96,0.31,4.25,0.14,6.98-1.19c1.63,0.3,3.01,0.28,4.17,0.03c3.54-0.75,5.14-3.61,6.13-6.13c1.32-3.35-0.72-2.99,0.36-6.47
								C344.65,198.42,350.04,197.82,346.93,194.11z"/>
							<path class="st14" d="M323.65,217.29c-1.25-0.2-2.36-0.58-3.36-0.98c-0.96-0.39-1.82-0.79-2.6-1.05
								c-2-0.67-1.56-8.31-1.11-12.88c-2.24,1.77-6.91,7.49-10.74,7.38c-4.07-0.12-12.33-8.26-12.57-9.94
								c-0.08-0.54-0.3-1.56-0.57-2.69c-0.06,6.12-0.21,16.15-0.63,16.61c0,0-0.35,0.47-0.85,1.04c-0.72,1.03-1.66,1.85-2.46,2.41
								c-0.12,0.08-0.22,0.18-0.31,0.29c-0.5,0.56-0.64,1.39-0.32,2.1c0.74,1.68-2.04,2.16-2.04,2.16c0.19,0.43,0.44,0.85,0.75,1.25
								c4.26,5.67,19.52,9.51,24.88,9.28c5.75-0.24,7.66-5.87,12.81-8.5c5.15-2.63,6.11-7.66,6.11-7.66
								C327.9,217.44,325.61,217.6,323.65,217.29z"/>
							<path class="st14" d="M323.81,185.27c0,0,0-5.99-1.92-8.38c-1.92-2.4,0-5.51-0.6-7.07c-0.6-1.56-5.63-4.31-6.35-5.63
								c-0.72-1.32-6.47-2.28-9.22-2.63c-2.75-0.36-2.87-1.2-2.87-1.2c-2.99,0-7.3,3.11-9.82,5.75c-2.51,2.63-4.43,10.42-4.67,11.62
								c-0.24,1.2-1.56,4.67-1.68,3.95s-1.44-0.72-2.16,0.6s1.44,5.63,1.56,6.59c0.12,0.96,0.36,4.19,1.8,2.87s2.16-0.6,2.16-0.6
								s0.21,0.79,0.49,1.88c0.23,0.91,0.51,2.02,0.77,3.08c0.03,0.13,0.06,0.24,0.09,0.37c0.27,1.13,0.5,2.16,0.57,2.69
								c0.24,1.68,8.5,9.82,12.57,9.94c3.83,0.11,8.51-5.6,10.74-7.38c0.14-0.11,0.27-0.21,0.39-0.29c2.04-1.32,5.39-7.9,5.39-7.9
								C327.16,191.74,323.81,185.27,323.81,185.27z"/>
						</g>
					</g>
				</g>
				<g>
					<path class="st15" d="M500.43,264.44c27.04-0.01,54.07,0.04,81.11,0.16"/>
					<path class="st15" d="M432.06,264.6c20.27-0.08,40.55-0.14,60.83-0.15"/>
					<path class="st15" d="M377.49,264.6c16.02-0.21,32.02-0.21,48.1,0"/>
					<path class="st15" d="M537.32,284.73c15.18-0.34,29.18-0.34,44.22,0"/>
					<path class="st15" d="M466.65,284.48c21.66,0.02,43.32,0.11,64.97,0.25"/>
					<path class="st15" d="M377.49,284.73c27.41-0.18,54.82-0.27,82.23-0.26"/>
					<path class="st15" d="M563.53,304.64c6,0.06,12.01,0.13,18.01,0.22"/>
					<path class="st15" d="M542.74,304.5c4.16,0.02,8.31,0.04,12.47,0.07"/>
					<path class="st15" d="M487.73,304.51c15.83-0.06,31.66-0.09,47.49-0.05"/>
					<path class="st15" d="M415.12,304.87c21.66-0.19,43.33-0.3,64.99-0.34"/>
					<path class="st15" d="M377.49,304.87c10.02-0.48,21.02-0.48,31.17,0"/>
					<path class="st15" d="M518.65,325c20.85,0.39,41.85,0.39,62.89,0"/>
					<path class="st15" d="M463.51,325.27c16.29-0.04,32.59-0.13,48.88-0.27"/>
					<path class="st15" d="M413.85,325.23c13.99,0.06,27.98,0.07,41.97,0.05"/>
					<path class="st15" d="M377.49,325c9.79,0.08,19.58,0.15,29.38,0.2"/>
					<path class="st15" d="M541.1,345.29c13.48-0.03,26.96-0.08,40.44-0.16"/>
					<path class="st15" d="M443.98,345.13c29.59,0.17,59.17,0.23,88.76,0.18"/>
					<path class="st15" d="M377.49,345.13c20.02,0.26,40.02,0.26,60.3,0"/>
					<path class="st15" d="M428.64,365.26c24.65,0.06,49.3,0.09,73.94,0.09"/>
					<path class="st15" d="M377.49,365.26c15.02,0.13,29.02,0.13,44.22,0"/>
				</g>
				<g>
					<g>
						<line class="st15" x1="263.2" y1="264.32" x2="344.73" y2="264.32"/>
						<line class="st15" x1="264.29" y1="284.45" x2="345.82" y2="284.45"/>
						<line class="st15" x1="265.38" y1="304.59" x2="346.92" y2="304.59"/>
						<line class="st15" x1="266.48" y1="324.72" x2="348.01" y2="324.72"/>
						<line class="st15" x1="267.57" y1="344.85" x2="349.1" y2="344.85"/>
						<line class="st15" x1="268.66" y1="364.98" x2="350.19" y2="364.98"/>
					</g>
					<circle class="st8" cx="333.72" cy="264.12" r="3.1"/>
					<circle class="st8" cx="339.41" cy="284.26" r="3.1"/>
					<circle class="st8" cx="315.9" cy="304.67" r="3.1"/>
					<circle class="st8" cx="269.41" cy="324.56" r="3.1"/>
					<circle class="st8" cx="298.85" cy="344.19" r="3.1"/>
					<circle class="st8" cx="321.84" cy="364.85" r="3.1"/>
				</g>
				<g>
					<rect x="373.4" y="113.14" class="st12" width="82.86" height="20.3"/>
					<rect x="373.4" y="145.7" class="st16" width="156.93" height="20.3"/>
					<rect x="373.4" y="178.26" class="st7" width="119.62" height="20.3"/>
					<rect x="373.4" y="210.81" class="st13" width="158.58" height="20.3"/>
				</g>
				<g>
					<g>
						<path class="st15" d="M274.56,217.55c-2.26-1.2-4.41-3.55-3.07-5.08c1.68-1.92,5.63-2.63,4.19-4.07
							c-1.44-1.44-5.03-0.84-5.87-3.35c-0.84-2.51-0.24-7.78,1.2-8.86s-1.56,0.12-1.2-2.75c0.36-2.87,2.51-3.59,1.56-6.71
							s-3.83-11.74-0.24-14.73c3.59-2.99,4.55-2.63,4.31-4.79c-0.24-2.16,4.91-17.36,18.08-16.88c0,0,2.75,2.04,4.55,0.24
							c1.8-1.8,4.16-3.59,7.78-4.19c0.72-0.12,5.27-5.27,15.57,0.84c0,0,6.71-2.63,8.98,1.56c2.28,4.19,0,8.62,2.87,8.86
							c2.87,0.24,7.78,2.99,7.66,5.51c-0.12,2.51-1.8,2.39-2.16,3.11c-0.36,0.72,1.08,1.32,3.59,4.07c2.51,2.75,0.12,3.95,0.72,6.83
							c0.6,2.87,2.99,1.44,2.87,6.47s-3.83,7.66-0.72,11.38c3.11,3.71-2.28,4.31-3.35,7.78c-1.08,3.47,0.96,3.11-0.36,6.47
							c-0.99,2.52-2.59,5.38-6.13,6.13c4.57,0.98,10.62,2.42,12.48,3.56c1.8,1.11,3.48,5.62,4.58,9.23
							c6.62-9.23,10.53-20.53,10.53-32.76c0-31.09-25.2-56.3-56.3-56.3s-56.3,25.2-56.3,56.3c0,12.41,4.03,23.88,10.83,33.19
							C263.68,224.68,268.04,219.46,274.56,217.55z"/>
						<path class="st15" d="M306.7,251.71c18.87,0,35.56-9.29,45.77-23.54c-1.1-3.61-2.78-8.12-4.58-9.23
							c-1.86-1.14-7.91-2.59-12.48-3.56c-1.16,0.25-2.54,0.27-4.17-0.03c0,0-0.96,5.03-6.11,7.66c-5.15,2.63-7.07,8.26-12.81,8.5
							c-5.36,0.22-20.61-3.62-24.88-9.28c-1.2,0.37-2.83,0.44-5.06-0.18c-6.95-1.92-3.47-3.23-6.11-3.83
							c-0.54-0.12-1.13-0.36-1.72-0.67c-6.52,1.91-10.88,7.13-13.33,11.05C271.47,242.6,288.02,251.71,306.7,251.71z"/>
						<ellipse class="st15" cx="299.99" cy="181.58" rx="7.07" ry="7.07"/>
						<ellipse class="st15" cx="317.95" cy="181.46" rx="6.47" ry="7.07"/>
						<path class="st15" d="M311.72,180.62c0,0-4.3-0.6-4.66,0.96"/>
						<path class="st15" d="M324.42,181.46c0,0,2.51,0.24,2.28,0.96"/>
						<path class="st15" d="M292.92,181.58c0,0-3.41-1.26-4.85-1.02"/>
						<path class="st15" d="M309.33,180.38c0,0,1.68,8.74,1.56,9.34c-0.12,0.6-2.87,1.56-2.87,1.56"/>
						<path class="st15" d="M314.12,195.71c0,0-14.37-1.56-14.85-0.12s5.15,4.79,7.07,4.55
							C308.25,199.9,313.64,197.62,314.12,195.71z"/>
						<circle class="st8" cx="300.35" cy="180.86" r="1.08"/>
						<circle class="st8" cx="317.58" cy="181.58" r="1.08"/>
						<g>
							<path class="st15" d="M324.27,216.54c-1.25-0.2-2.36-0.58-3.36-0.98c-0.96-0.39-1.82-0.79-2.6-1.05
								c-2-0.67-1.56-8.31-1.11-12.88c-2.24,1.77-6.91,7.49-10.74,7.38c-4.07-0.12-12.33-8.26-12.57-9.94
								c-0.08-0.54-0.3-1.56-0.57-2.69c-0.06,6.12-0.21,16.15-0.63,16.61c0,0-0.35,0.47-0.85,1.04c-0.72,1.03-1.66,1.85-2.46,2.41
								c-0.12,0.08-0.22,0.18-0.31,0.29c-0.5,0.56-0.64,1.39-0.32,2.1c0.74,1.68-2.04,2.16-2.04,2.16c0.19,0.43,0.44,0.85,0.75,1.25
								c4.26,5.67,19.52,9.51,24.88,9.28c5.75-0.24,7.66-5.87,12.81-8.5c5.15-2.63,6.11-7.66,6.11-7.66
								C328.52,216.68,326.23,216.85,324.27,216.54z"/>
							<path class="st6" d="M325.73,185.17c0,0,0-5.99-1.92-8.38c-1.92-2.4,0-5.51-0.6-7.07c-0.6-1.56-5.63-4.31-6.35-5.63
								c-0.72-1.32-6.47-2.28-9.22-2.63c-2.75-0.36-2.87-1.2-2.87-1.2c-2.99,0-7.3,3.11-9.82,5.75c-2.51,2.63-4.43,10.42-4.67,11.62
								c-0.24,1.2-1.56,4.67-1.68,3.95s-1.44-0.72-2.16,0.6s1.44,5.63,1.56,6.59c0.12,0.96,0.36,4.19,1.8,2.87s2.16-0.6,2.16-0.6
								s0.21,0.79,0.49,1.88c0.23,0.91,0.51,2.02,0.77,3.08c0.03,0.13,0.06,0.24,0.09,0.37c0.27,1.13,0.5,2.16,0.57,2.69
								c0.24,1.68,8.5,9.82,12.57,9.94c3.83,0.11,8.51-5.6,10.74-7.38c0.14-0.11,0.27-0.21,0.39-0.29c2.04-1.32,5.39-7.9,5.39-7.9
								C329.09,191.64,325.73,185.17,325.73,185.17z"/>
							<path class="st15" d="M345.25,194.99c-3.11-3.71,0.6-6.35,0.72-11.38s-2.28-3.59-2.87-6.47c-0.6-2.87,1.8-4.07-0.72-6.83
								c-2.51-2.75-3.95-3.35-3.59-4.07c0.36-0.72,2.04-0.6,2.16-3.11c0.12-2.51-4.79-5.27-7.66-5.51c-2.87-0.24-0.6-4.67-2.87-8.86
								c-2.28-4.19-8.98-1.56-8.98-1.56c-10.3-6.11-14.85-0.96-15.57-0.84c-3.62,0.6-5.99,2.39-7.78,4.19
								c-1.8,1.8-4.55-0.24-4.55-0.24c-13.17-0.48-18.32,14.73-18.08,16.88c0.24,2.16-0.72,1.8-4.31,4.79
								c-3.59,2.99-0.72,11.62,0.24,14.73s-1.2,3.83-1.56,6.71c-0.36,2.87,2.63,1.68,1.2,2.75s-2.04,6.35-1.2,8.86
								c0.84,2.51,4.43,1.92,5.87,3.35c1.44,1.44-2.51,2.16-4.19,4.07c-1.33,1.52,0.81,3.87,3.07,5.08
								c0.58,0.31,1.18,0.55,1.72,0.67c2.63,0.6-0.84,1.92,6.11,3.83c2.23,0.62,3.86,0.55,5.06,0.18c-0.31-0.41-0.56-0.83-0.75-1.25
								c0,0,2.78-0.48,2.04-2.16c-0.32-0.71-0.18-1.54,0.32-2.1c0.09-0.11,0.2-0.2,0.31-0.29c0.8-0.57,1.74-1.38,2.46-2.41
								c0.5-0.57,0.85-1.04,0.85-1.04c0.42-0.46,0.58-10.49,0.63-16.61c-0.03-0.12-0.06-0.24-0.09-0.37
								c-0.25-1.05-0.53-2.17-0.77-3.08c-0.28-1.09-0.49-1.88-0.49-1.88s-0.72-0.72-2.16,0.6s-1.68-1.92-1.8-2.87
								c-0.12-0.96-2.28-5.27-1.56-6.59s2.04-1.32,2.16-0.6s1.44-2.75,1.68-3.95c0.24-1.2,2.16-8.98,4.67-11.62
								c2.51-2.63,6.83-5.75,9.82-5.75c0,0,0.12,0.84,2.87,1.2c2.75,0.36,8.5,1.32,9.22,2.63c0.72,1.32,5.75,4.07,6.35,5.63
								c0.6,1.56-1.32,4.67,0.6,7.07c1.92,2.39,1.92,8.38,1.92,8.38s3.35,6.47-2.75,8.26c0,0-3.35,6.59-5.39,7.9
								c-0.12,0.08-0.25,0.18-0.39,0.29c-0.45,4.57-0.89,12.22,1.11,12.88c0.78,0.26,1.64,0.66,2.6,1.05c1,0.4,2.11,0.79,3.36,0.98
								c1.96,0.31,4.25,0.14,6.98-1.19c1.63,0.3,3.01,0.28,4.17,0.03c3.54-0.75,5.14-3.61,6.13-6.13c1.32-3.35-0.72-2.99,0.36-6.47
								C342.98,199.3,348.37,198.7,345.25,194.99z"/>
						</g>
					</g>
					<path class="st15" d="M335.41,215.37c0,0-6.45,9.3-8.35,10.88c-1.9,1.58-12.34,14.55-31.48,4.75c0,0-11.93-5.62-13.2-8.95"/>
				</g>
				<g>
					<rect x="377.49" y="114.89" class="st15" width="82.86" height="20.3"/>
					<rect x="377.49" y="147.45" class="st15" width="156.93" height="20.3"/>
					<rect x="377.49" y="180.01" class="st15" width="119.62" height="20.3"/>
					<rect x="377.49" y="212.56" class="st15" width="158.58" height="20.3"/>
				</g>
				<g>
					<path class="st6" d="M249.34,386.83c-8.3,0-15.02-6.73-15.02-15.02v-0.4v-9.92c6.93-10.94,19.89-37.27,15.52-86.5
						c-0.81-9.07-8.37-17.11-11.33-28c-5.03-18.56-0.31-28.31,0.63-32.72c0.71-3.29,4.4-27.5-4.82-40.57
						c-3.11-4.41-7.7-7.56-14.37-8.19c0,0-12.27-1.26-13.21,23.28c0,0,0.94,11.33-0.63,15.73s-1.26,27.68-1.26,27.68
						s-6.61,5.35-6.29,11.33s-1.89,17.93-5.35,25.48c-3.46,7.55-10.38,16.04-8.49,30.2c1.89,14.16-5.35,48.13-16.04,65.44
						c-10.7,17.3-21.39,108.85-21.39,108.85l77.08-1.89c0,0,2.2-58.52,7.87-65.12c5.36-6.26,20.6-16.46,22.99-19.66H249.34z"/>
					<path class="st6" d="M593.73,92.28H249.34c-8.3,0-15.02,6.73-15.02,15.02v66.39c9.22,13.07,5.53,37.28,4.82,40.57
						c-0.94,4.4-5.66,14.16-0.63,32.72c2.95,10.89,10.52,18.93,11.33,28c4.37,49.23-8.59,75.56-15.52,86.5v9.92v0.4
						c0,8.3,6.73,15.02,15.02,15.02h5.87h298.96h4.44h35.11c1.85,0,3.62-0.35,5.26-0.96c-0.25-4.78-2.46-11.71-4.35-18.7
						c-3.15-11.64-5.02-30.44,5.35-59.46c9.44-26.43,1.57-40.9-0.94-45.93c-2.52-5.03-4.09-27.68,3.15-43.41
						c2.31-5.03,4.53-7.96,6.57-9.56V107.3C608.76,99,602.03,92.28,593.73,92.28z"/>
					<path class="st6" d="M672.66,427.56c-1.26-6.92-20.45-40.27-18.56-60.4c1.89-20.13,10.7-50.97,3.15-69.53
						s-22.02-40.27-22.02-40.27s-1.57-9.12-5.03-13.84c-2.24-3.05-8.81-31.77-11.64-33.98c-1.93-1.5-5.45-4.15-9.79-0.75
						c-2.04,1.6-4.25,4.53-6.57,9.56c-7.24,15.73-5.66,38.38-3.15,43.41c2.52,5.03,10.38,19.51,0.94,45.93
						c-10.36,29.02-8.49,47.82-5.35,59.46c1.89,6.98,4.1,13.92,4.35,18.7c-1.64,0.61-3.41,0.96-5.26,0.96h-35.11h-4.44
						c4.38,4.56,21.17,22.22,26.62,30.67c6.29,9.75,34.92,54.43,34.92,54.43h79.59C695.31,471.92,673.92,434.49,672.66,427.56z"/>
					<path class="st6" d="M225.36,176.95c0,0-8.67-6.63-14.8-2.04c0,0-1.02,16.07,0,18.62c1.02,2.55,8.67,1.28,10.46-0.26
						C222.81,191.75,225.62,178.48,225.36,176.95z"/>
					<path class="st6" d="M204.85,232.2c1.13,0.87,1.13,16.44-2.44,24.6c-3.57,8.16-7.14,21.94-6.89,22.96"/>
					<path class="st6" d="M235.82,402.45c0-1.02-5.36-19.13-13.01-25.25"/>
					<path class="st6" d="M635.22,257.37c0,0,0.07,13.97,1.86,17.8c1.79,3.83,13.77,37.75,13.77,37.75"/>
					<path class="st6" d="M625.35,230.01c0,0-3.28,3.33-6.38,3.57c-2.47,0.19-4.04,0.65-7.65-7.91c-0.68-1.6-3.26-6.12-1.73-8.16
						c1.53-2.04,4.28-7.14,10.65-4.85"/>
				</g>
			</g>
			<g>
				<path class="st2" d="M248.62,89.68h96.63c2.35-6.05,3.66-12.62,3.66-19.51c0-29.74-24.11-53.85-53.85-53.85
					s-53.85,24.11-53.85,53.85c0,7.05,1.37,13.78,3.83,19.95C246.2,89.85,247.39,89.68,248.62,89.68z"/>
				<path class="st2" d="M252.91,88.97h96.63c2.35-6.05,3.66-12.62,3.66-19.51c0-29.74-24.11-53.85-53.85-53.85
					s-53.85,24.11-53.85,53.85c0,7.05,1.37,13.78,3.83,19.95C250.49,89.13,251.68,88.97,252.91,88.97z"/>
				<path class="st2" d="M324.19,58.34c-2.8-6.76-2.56-4.2-0.23-6.06s0.7-2.8-1.17-3.73c-1.86-0.93-1.17-3.26,0.7-4.89
					c1.86-1.63-2.8-4.66-5.59-7.23c-2.8-2.56-1.4,1.4-6.29-1.63s-4.89-2.1-8.39-0.93s-2.8,0.7-6.99-0.47s-3.73,1.17-4.2,1.86
					c-0.47,0.7-6.29-3.03-7.23-3.03c-0.93,0,2.1,1.4,0,4.66c-2.1,3.26-5.13,2.56-5.13,7.23c0,4.66-6.53,4.66-3.96,11.42
					c1.28,3.38,2.04,7.18,2.33,9.98c-0.3,2.35-0.47,4.01-0.47,4.01c-0.37-0.37-0.78-0.43-1.1-0.11c-0.7,0.7-0.97,3.23,0.63,8.5
					c1.95,6.45,2.43,4.71,2.54,3.97c0.01-0.08,0.01-0.16,0.03-0.25c0,0-0.01,0.1-0.03,0.25c-0.48,3.56,1.02,6.14,2.33,7.73h36.15
					c2.03-4.48,2.69-11.53,2.69-11.53c3.73-0.47,3.37-11.6,3.37-11.6S326.99,65.1,324.19,58.34z"/>
				<path class="st6" d="M279.76,81.95c0.02-0.14,0.03-0.25,0.03-0.25C279.77,81.79,279.77,81.87,279.76,81.95z"/>
				<path class="st17" d="M326.39,66.36c-2.33,0.93-2.1-1.86-3.03-0.7c-0.93,1.17-0.23,1.86,0,0c0.23-1.86-3.5-9.32-3.26-12.59
					c0.23-3.26-4.2-6.76-8.86-7.69c-4.66-0.93-3.96-2.8-6.53-2.1c-2.56,0.7-4.2-1.17-6.53,0.47s-2.8,0.47-9.09,1.4
					c-6.29,0.93-3.5,2.56-5.59,5.36c-1.42,1.9-2.63,9.91-3.26,14.87c0.29,2.79,0.11,4.59-0.47,4.01c-0.37-0.37-0.78-0.43-1.1-0.11
					c-0.7,0.7-0.97,3.23,0.63,8.5c1.95,6.45,2.43,4.71,2.54,3.97c0.01-0.08,0.01-0.16,0.03-0.25c0,0-0.01,0.1-0.03,0.25
					c-0.48,3.56,1.02,6.14,2.33,7.73h36.15c2.03-4.48,2.69-11.53,2.69-11.53C326.75,77.5,326.39,66.36,326.39,66.36z"/>
				<g>
					<path class="st11" d="M277.02,65.58c-0.3,2.35-0.47,4.01-0.47,4.01C277.13,70.17,277.3,68.37,277.02,65.58z"/>
					<path class="st11" d="M323.16,58.4c-2.8-6.76-2.56-4.2-0.23-6.06s0.7-2.8-1.17-3.73c-1.86-0.93-1.17-3.26,0.7-4.89
						c1.86-1.63-2.8-4.66-5.59-7.23c-2.8-2.56-1.4,1.4-6.29-1.63s-4.89-2.1-8.39-0.93s-2.8,0.7-6.99-0.47s-3.73,1.17-4.2,1.86
						c-0.47,0.7-6.29-3.03-7.23-3.03c-0.93,0,2.1,1.4,0,4.66c-2.1,3.26-5.13,2.56-5.13,7.23c0,4.66-6.53,4.66-3.96,11.42
						c1.28,3.38,2.04,7.18,2.33,9.98c0.63-4.96,1.84-12.97,3.26-14.87c2.1-2.8-0.7-4.43,5.59-5.36c6.29-0.93,6.76,0.23,9.09-1.4
						s3.96,0.23,6.53-0.47c2.56-0.7,1.86,1.17,6.53,2.1c4.66,0.93,9.09,4.43,8.86,7.69c-0.23,3.26,3.5,10.72,3.26,12.59
						c-0.23,1.86-3.73,9.32-2.8,8.16c0.93-1.17,3.5-6.53,5.83-7.46C323.16,66.55,325.96,65.16,323.16,58.4z"/>
				</g>
			</g>
			<g>
				<path class="st6" d="M348.72,89.63c2.35-6.05,3.66-12.62,3.66-19.51c0-29.74-24.11-53.85-53.85-53.85s-53.85,24.11-53.85,53.85
					c0,7.05,1.37,13.78,3.83,19.95c1.15-0.28,2.34-0.44,3.57-0.44"/>
				<path class="st6" d="M279.65,81.89c0.02-0.14,0.03-0.25,0.03-0.25C279.66,81.73,279.66,81.81,279.65,81.89z"/>
				<path class="st6" d="M318.13,89.63c2.03-4.48,2.69-11.53,2.69-11.53c3.73-0.47,3.37-11.6,3.37-11.6
					c-2.33,0.93-4.89,6.29-5.83,7.46c-0.93,1.17,2.56-6.29,2.8-8.16c0.23-1.86-3.5-9.32-3.26-12.59c0.23-3.26-4.2-6.76-8.86-7.69
					c-4.66-0.93-3.96-2.8-6.53-2.1c-2.56,0.7-4.2-1.17-6.53,0.47s-2.8,0.47-9.09,1.4c-6.29,0.93-3.5,2.56-5.59,5.36
					c-1.42,1.9-2.63,9.91-3.26,14.87c0.29,2.79,0.11,4.59-0.47,4.01c-0.37-0.37-0.78-0.43-1.1-0.11c-0.7,0.7-0.97,3.23,0.63,8.5
					c1.95,6.45,2.43,4.71,2.54,3.97c0.01-0.08,0.01-0.16,0.03-0.25c0,0-0.01,0.1-0.03,0.25c-0.48,3.56,1.02,6.14,2.33,7.73"/>
				<g>
					<path class="st6" d="M278.04,65.52c-0.3,2.35-0.47,4.01-0.47,4.01C278.16,70.11,278.33,68.31,278.04,65.52z"/>
					<path class="st6" d="M324.19,58.34c-2.8-6.76-2.56-4.2-0.23-6.06s0.7-2.8-1.17-3.73c-1.86-0.93-1.17-3.26,0.7-4.89
						c1.86-1.63-2.8-4.66-5.59-7.23c-2.8-2.56-1.4,1.4-6.29-1.63s-4.89-2.1-8.39-0.93s-2.8,0.7-6.99-0.47s-3.73,1.17-4.2,1.86
						c-0.47,0.7-6.29-3.03-7.23-3.03c-0.93,0,2.1,1.4,0,4.66c-2.1,3.26-5.13,2.56-5.13,7.23c0,4.66-6.53,4.66-3.96,11.42
						c1.28,3.38,2.04,7.18,2.33,9.98c0.63-4.96,1.84-12.97,3.26-14.87c2.1-2.8-0.7-4.43,5.59-5.36c6.29-0.93,6.76,0.23,9.09-1.4
						s3.96,0.23,6.53-0.47c2.56-0.7,1.86,1.17,6.53,2.1c4.66,0.93,9.09,4.43,8.86,7.69c-0.23,3.26,3.5,10.72,3.26,12.59
						c-0.23,1.86-3.73,9.32-2.8,8.16c0.93-1.17,3.5-6.53,5.83-7.46C324.19,66.5,326.99,65.1,324.19,58.34z"/>
				</g>
				<path class="st6" d="M299.06,63.83c-0.14,2.29,2.86,13.57,0.26,14.86c-2.6,1.3-4.94-0.32-4.94-0.32"/>
				<path class="st6" d="M291.26,83.57c0,0,9.35,6.23,16.62-0.26"/>
				<path class="st6" d="M320.82,78.1c-0.68,0.02-1.55-0.22-1.46-0.95"/>
				<circle class="st8" cx="289.79" cy="68.08" r="1.28"/>
				<circle class="st8" cx="308.44" cy="67.75" r="1.28"/>
			</g>
		</g>
		<g class="st1">
			<ellipse class="st2" cx="748.84" cy="86.7" rx="61.98" ry="63.03"/>
			<ellipse class="st2" cx="745.99" cy="89.56" rx="61.98" ry="63.03"/>
			<path class="st2" d="M795.29,116.21c-6.88-2.44-8.43-7.32-12.42-7.76c-3.1-0.34-12.51-1.09-17.69-2.03c1.24-1.64,2.14-3,2.6-3.73
				c0.77-1.24,1.54-5.52,2.14-10.94c0.54-0.05,1.04-0.18,1.44-0.44c1.89-1.26,1.68-16.4-0.36-18.02c2.66-6.73,1.75-18.42-0.33-23.84
				c-2.17-5.65-7.76-12.2-20.85-15.08s-22.18,2.66-29.95,11.09c-7.28,7.9-3.06,24.18-1.4,29.3c-0.01,0.13-0.03,0.25-0.04,0.38
				c-1.14-1.61-4.9-6.49-6.76-3.5c-2.17,3.47-0.1,18.14,5.58,18c-0.17,4.26-0.02,7.4,0.63,8.4c0.8,1.22,1.99,3.03,3.55,5.1
				c-1.59,0.14-3.38,0.76-4.21,2.67c0,0-4.26-5.45-25.1,4.87c8.08,19.14,25.21,33.38,45.91,37.17c3.59,0.66,7.29,1.02,11.07,1.02
				c2.18,0,4.33-0.12,6.45-0.34c19.38-2.04,36.1-13.16,45.99-29.1C800.35,118.47,798.42,117.32,795.29,116.21z"/>
			<g>
				<path class="st12" d="M736.66,149.61c-1.12-4.3-3.34-12.17-5.15-17.81c-0.62-0.25-1.19-0.49-1.68-0.71
					c-4-1.85-7.26-16.19-8.87-25.02c-0.31-0.39-0.6-0.78-0.89-1.16c-1.59,0.14-3.38,0.76-4.21,2.67c0,0-4.26-5.45-25.1,4.87
					C698.82,131.58,715.95,145.82,736.66,149.61z"/>
				<path class="st12" d="M781.3,110.02c-3.1-0.34-12.51-1.09-17.69-2.03c-0.69,0.92-1.49,1.92-2.38,2.95
					c-0.36,8.15-1.48,18.32-4.77,21.49l-2.49,17.66c19.38-2.04,36.1-13.16,45.99-29.1c-1.18-0.93-3.11-2.08-6.23-3.19
					C786.85,115.35,785.29,110.47,781.3,110.02z"/>
				<path class="st18" d="M768.87,63.43c-2-8.87-0.89-17.53-13.75-19.52c-12.87-2-31.5-3.33-34.16,4.66
					c-0.2,0.59-2.39,14.67-3.84,27.97c-0.01,0.13-0.03,0.25-0.04,0.38c-1.14-1.61-4.9-6.49-6.76-3.5c-2.17,3.47-0.1,18.14,5.58,18
					c-0.17,4.26-0.02,7.4,0.63,8.4c0.8,1.22,1.99,3.03,3.55,5.1c0.28,0.38,0.58,0.76,0.89,1.16c4.12,5.25,10.42,11.75,18.63,15.04
					c8.26,3.31,16.63-3.87,21.85-9.95c0.89-1.04,1.69-2.04,2.38-2.95c1.24-1.64,2.14-3,2.6-3.73c1.57-2.52,3.15-17.65,3.21-29.4
					C769.67,70.25,769.45,66.01,768.87,63.43z"/>
				<path class="st2" d="M731.29,130.12c1.81,5.64,4.03,13.51,5.15,17.81c3.59,0.66,7.29,1.02,11.07,1.02
					c2.18,0,4.33-0.12,6.45-0.34l2.49-17.66C751.18,136.03,737.93,132.75,731.29,130.12z"/>
				<path class="st18" d="M740,117.32c-8.22-3.29-14.51-9.79-18.63-15.04c1.62,8.83,4.87,23.18,8.87,25.02
					c0.49,0.23,1.06,0.47,1.68,0.71c6.64,2.63,19.89,5.91,25.16,0.84c3.29-3.16,4.41-13.33,4.77-21.49
					C756.63,113.45,748.27,120.63,740,117.32z"/>
				<path class="st18" d="M766.85,78.05c0,0,1.59-4.51,3.63-2.88c2.04,1.62,2.25,16.76,0.36,18.02s-6.1-0.42-6.1-0.42L766.85,78.05z
					"/>
			</g>
			<g>
				<g>
					<path class="st8" d="M755.96,42.12c12.87,2,11.76,10.65,13.75,19.52c0.58,2.58,0.8,6.83,0.77,11.64
						c2.66-6.73,1.75-18.42-0.33-23.84c-2.17-5.65-7.76-12.2-20.85-15.08s-22.18,2.66-29.95,11.09c-7.28,7.9-3.06,24.18-1.4,29.3
						c1.46-13.3,3.65-27.38,3.84-27.97C724.46,38.79,743.09,40.12,755.96,42.12z"/>
					<path class="st19" d="M737.5,147.82c-1.12-4.3-3.34-12.17-5.15-17.81c-0.62-0.25-1.19-0.49-1.68-0.71
						c-4-1.85-7.26-16.19-8.87-25.02c-0.31-0.39-0.6-0.78-0.89-1.16c-1.59,0.14-3.38,0.76-4.21,2.67c0,0-4.26-5.45-25.1,4.87
						C699.67,129.79,716.8,144.03,737.5,147.82z"/>
					<path class="st19" d="M782.36,108.45c-3.1-0.34-12.51-1.09-17.69-2.03c-0.69,0.92-1.49,1.92-2.38,2.95
						c-0.36,8.15-1.48,18.32-4.77,21.49l-2.49,17.66c19.38-2.04,36.1-13.16,45.99-29.1c-1.18-0.93-3.11-2.08-6.23-3.19
						C787.91,113.77,786.35,108.89,782.36,108.45z"/>
					<path class="st19" d="M732.35,130.01c1.81,5.64,4.03,13.51,5.15,17.81c3.59,0.66,7.29,1.02,11.07,1.02
						c2.18,0,4.33-0.12,6.45-0.34l2.49-17.66C752.24,135.92,738.99,132.65,732.35,130.01z"/>
					<path class="st19" d="M740.43,119.32c-8.22-3.29-14.51-9.79-18.63-15.04c1.62,8.83,4.87,23.18,8.87,25.02
						c0.49,0.23,1.06,0.47,1.68,0.71c6.64,2.63,19.89,5.91,25.16,0.84c3.29-3.16,4.41-13.33,4.77-21.49
						C757.06,115.45,748.7,122.62,740.43,119.32z"/>
				</g>
				<path class="st19" d="M743.21,72.81c-0.15,1.66-3.93,15.25,0,16.16c3.93,0.91,8.16-1.66,8.16-1.66"/>
				<path class="st19" d="M754.23,98.34c0,0-25.17-2.28-20.39,0.91c0.91,0.6,4.08,5.29,9.36,4.68
					C748.49,103.32,753.78,99.54,754.23,98.34z"/>
				<path class="st19" d="M714.84,138.5c-0.1-10.95,0.02-29.43,1.86-32.72"/>
				<path class="st19" d="M737.5,147.82c-0.49-1.62-3.06-14.3-8.65-10.98c-2.38,1.41-5.24,3.4-7.75,5.21"/>
				<line class="st19" x1="766.01" y1="106.79" x2="776.73" y2="141.68"/>
				<path class="st19" d="M755.02,148.51c0,0,5.03-17.1,11.14-11.51c5.37,4.92,6.89,5.77,8.31,6.04"/>
				<circle class="st8" cx="732.94" cy="73.87" r="2.11"/>
				<circle class="st8" cx="757.55" cy="74.93" r="2.11"/>
				<ellipse class="st19" cx="748.57" cy="85.81" rx="61.98" ry="63.03"/>
				<path class="st19" d="M770.49,73.28c0.03-4.81-0.19-9.06-0.77-11.64c-2-8.87-0.89-17.53-13.75-19.52
					c-12.87-2-31.5-3.33-34.16,4.66c-0.2,0.59-2.39,14.67-3.84,27.97c-0.01,0.13-0.03,0.25-0.04,0.38c-1.14-1.61-4.9-6.49-6.76-3.5
					c-2.17,3.47-0.1,18.14,5.58,18c-0.17,4.26-0.02,7.4,0.63,8.4c0.8,1.22,1.99,3.03,3.55,5.1c0.28,0.38,0.58,0.76,0.89,1.16
					c4.12,5.25,10.42,11.75,18.63,15.04c8.26,3.31,16.63-3.87,21.85-9.95c0.89-1.04,1.69-2.04,2.38-2.95c1.24-1.64,2.14-3,2.6-3.73
					c0.77-1.24,1.54-5.52,2.14-10.94c0.54-0.05,1.04-0.18,1.44-0.44C772.74,90.03,772.53,74.9,770.49,73.28z"/>
			</g>
		</g>
		<g class="st1">
			<path class="st2" d="M593.94,41.09c-26.81,0-48.55,21.73-48.55,48.55c0,13.22,5.29,25.2,13.86,33.95
				c8.81,9,21.09,14.59,34.68,14.59c15.19,0,28.74-6.98,37.64-17.9c6.81-8.36,10.9-19.02,10.9-30.65
				C642.49,62.82,620.75,41.09,593.94,41.09z"/>
			<path class="st2" d="M591.08,43.95c-26.81,0-48.55,21.73-48.55,48.55c0,13.22,5.29,25.2,13.86,33.95
				c8.81,9,21.09,14.59,34.68,14.59c15.19,0,28.74-6.98,37.64-17.9c6.81-8.36,10.9-19.02,10.9-30.65
				C639.63,65.68,617.9,43.95,591.08,43.95z"/>
			<g>
				<path class="st2" d="M578.93,98.88c-0.06,0-0.13,0.02-0.2,0.09C578.8,98.97,578.86,98.93,578.93,98.88z"/>
				<path class="st2" d="M580.76,83.78c2.7-2.03,1.01-5.57,1.01-5.57s6.93-1.18,11.32-1.35c4.39-0.17,3.72-2.36,7.1-2.2
					c3.38,0.17,0.84-0.84,3.38-1.01c2.53-0.17,4.05,1.01,4.05,5.74c0,2.83,1.21,5.11,2.18,6.49c1.25,0.17,2.35,0.07,2.89-0.57
					c1.69-2.03-0.84-4.73,0.84-6.42c1.69-1.69,3.21-4.05,3.04-7.6c-0.17-3.55-2.7-1.35-3.89-3.55s-1.86-4.56-5.24-5.74
					c-3.38-1.18-3.72,1.35-6.42-0.34s-5.74-0.51-8.95,0s-5.07-1.18-8.78,0.84c-3.72,2.03-3.38,0-8.95,2.7
					c-5.57,2.7-1.86,9.12,0,10.64c1.86,1.52,2.7-1.35,1.86,2.03c-0.62,2.49,2.15,7.36,3.85,10.09
					C580.9,86.59,579.81,84.48,580.76,83.78z"/>
				<path class="st2" d="M581.43,97.63c0.68,2.2,2.87,12.67,4.22,9.97c1.35-2.7,0-5.74,2.7-7.26s2.53-1.52,4.9-1.69
					c2.37-0.17,9.46,1.69,9.63,3.89c0.17,2.2-0.84,4.9,1.18,3.21c2.03-1.69,4.9-2.53,5.07-6.93c0.03-0.73,1.7,4.56,3.89-4.56
					c0.83-3.46,0.84-8.62-2.03-6.93c0,0-0.55-0.53-1.2-1.45c-0.97-1.38-2.18-3.66-2.18-6.49c0-4.73-1.52-5.91-4.05-5.74
					c-2.53,0.17,0,1.18-3.38,1.01c-3.38-0.17-2.7,2.03-7.1,2.2c-4.39,0.17-11.32,1.35-11.32,1.35s1.69,3.55-1.01,5.57
					c-0.95,0.71,0.14,2.82-0.71,4.18c-0.08,0.13-0.18,0.26-0.31,0.38c-0.94,0.88-3.89-2.87-4.22,0.17
					c-0.34,3.04,1.86,11.99,3.21,10.47c0.07-0.08,0.13-0.1,0.2-0.09C579.75,98.33,580.81,95.6,581.43,97.63z"/>
				<path class="st2" d="M598.89,107.61c1.28-0.08,2.07-1.42,1.51-2.58c-0.3-0.62-0.62-1.27-0.9-1.83
					c-0.84-1.69-7.26-1.18-9.97-0.51c-2.7,0.68-2.26,4.16-1.69,4.56C589.03,108.08,595.26,107.84,598.89,107.61z"/>
				<g>
					<path class="st2" d="M595.39,139.61c15.19,0,28.74-6.98,37.64-17.9c-6.32-1.43-19.33-5.16-19.33-5.16s-2.92-5.41-5.72-7.98
						c0.13,2.23,0.85,16.58-2.89,18.45c-4.05,2.03-7.6,6.25-7.6,6.25s-11.51-11.52-15.31-21.64c-1.93,4.04-9.43,9.63-13.91,9.47
						c-2.51-0.09-5.39,1.96-7.56,3.91C569.51,134.02,581.79,139.61,595.39,139.61z"/>
				</g>
				<path class="st2" d="M605.08,127.02c3.74-1.87,3.02-16.22,2.89-18.45c-0.29-0.27-0.58-0.51-0.87-0.7
					c-1.87,3.67-4.33,7.78-6.75,10.03c-4.9,4.56-10.98-0.68-15.2-2.87c-1.13-0.59-2.01-2.11-2.73-3.99c-0.07,0.2-0.16,0.4-0.25,0.6
					c3.8,10.12,15.31,21.64,15.31,21.64S601.03,129.05,605.08,127.02z"/>
				<path class="st2" d="M609.14,98.81c-0.17,4.39-3.04,5.24-5.07,6.93c-2.03,1.69-1.01-1.01-1.18-3.21
					c-0.17-2.2-7.26-4.05-9.63-3.89c-2.36,0.17-2.2,0.17-4.9,1.69s-1.35,4.56-2.7,7.26c-1.35,2.7-3.55-7.77-4.22-9.97
					c-0.62-2.03-1.68,0.7-2.51,1.26c0.9,0.05,1.65,7.31,3.49,12.15c0.72,1.89,1.6,3.41,2.73,3.99c4.22,2.2,10.3,7.43,15.2,2.87
					c2.42-2.26,4.88-6.37,6.75-10.03c1.7-3.33,3.08-7.16,3.33-8.02C609.79,98.87,609.17,98.08,609.14,98.81z M589.54,102.7
					c2.7-0.68,9.12-1.18,9.97,0.51c0.28,0.56,0.6,1.21,0.9,1.83c0.55,1.15-0.24,2.5-1.51,2.58c-3.63,0.22-9.86,0.47-11.04-0.36
					C587.28,106.86,586.84,103.37,589.54,102.7z"/>
			</g>
			<g>
				<path class="st20" d="M577.7,99.13c-0.06,0-0.13,0.02-0.2,0.09C577.56,99.21,577.63,99.18,577.7,99.13z"/>
				<path class="st21" d="M579.96,99.35c0.68,2.2,2.87,12.67,4.22,9.97c1.35-2.7,0-5.74,2.7-7.26s2.53-1.52,4.9-1.69
					c2.37-0.17,9.46,1.69,9.63,3.89c0.17,2.2-0.84,4.9,1.18,3.21c2.03-1.69,4.9-2.53,5.07-6.93c0.03-0.73,1.7,4.56,3.89-4.56
					c0.83-3.46,0.84-8.62-2.03-6.93c0,0-0.55-0.53-1.2-1.45c-0.97-1.38-2.18-3.66-2.18-6.49c0-4.73-1.52-5.91-4.05-5.74
					c-2.53,0.17,0,1.18-3.38,1.01c-3.38-0.17-2.7,2.03-7.1,2.2c-4.39,0.17-11.32,1.35-11.32,1.35s1.69,3.55-1.01,5.57
					c-0.95,0.71,0.14,2.82-0.71,4.18c-0.08,0.13-0.18,0.26-0.31,0.38c-0.94,0.88-3.89-2.87-4.22,0.17
					c-0.34,3.04,1.86,11.99,3.21,10.47c0.07-0.08,0.13-0.1,0.2-0.09C578.28,100.05,579.33,97.32,579.96,99.35z"/>
				<path class="st21" d="M597.66,107.86c1.28-0.08,2.07-1.42,1.51-2.58c-0.3-0.62-0.62-1.27-0.9-1.83
					c-0.84-1.69-7.26-1.18-9.97-0.51c-2.7,0.68-2.26,4.16-1.69,4.56C587.8,108.33,594.03,108.08,597.66,107.86z"/>
				<g>
					<path class="st12" d="M592.43,140.84c15.19,0,28.74-6.98,37.64-17.9c-6.32-1.43-19.33-5.16-19.33-5.16s-2.92-5.41-5.72-7.98
						c0.13,2.23,0.85,16.58-2.89,18.45c-4.05,2.03-7.6,6.25-7.6,6.25s-11.51-11.52-15.31-21.64c-1.93,4.04-9.43,9.63-13.91,9.47
						c-2.51-0.09-5.39,1.96-7.56,3.91C566.56,135.25,578.84,140.84,592.43,140.84z"/>
				</g>
				<path class="st21" d="M603.12,128.99c3.74-1.87,3.02-16.22,2.89-18.45c-0.29-0.27-0.58-0.51-0.87-0.7
					c-1.87,3.67-4.33,7.78-6.75,10.03c-4.9,4.56-10.98-0.68-15.2-2.87c-1.13-0.59-2.01-2.11-2.73-3.99c-0.07,0.2-0.16,0.4-0.25,0.6
					c3.8,10.12,15.31,21.64,15.31,21.64S599.06,131.02,603.12,128.99z"/>
				<path class="st21" d="M607.91,99.06c-0.17,4.39-3.04,5.24-5.07,6.93c-2.03,1.69-1.01-1.01-1.18-3.21
					c-0.17-2.2-7.26-4.05-9.63-3.89c-2.36,0.17-2.2,0.17-4.9,1.69s-1.35,4.56-2.7,7.26c-1.35,2.7-3.55-7.77-4.22-9.97
					c-0.62-2.03-1.68,0.7-2.51,1.26c0.9,0.05,1.65,7.31,3.49,12.15c0.72,1.89,1.6,3.41,2.73,3.99c4.22,2.2,10.3,7.43,15.2,2.87
					c2.42-2.26,4.88-6.37,6.75-10.03c1.7-3.33,3.08-7.16,3.33-8.02C608.56,99.11,607.94,98.33,607.91,99.06z M588.31,102.94
					c2.7-0.68,9.12-1.18,9.97,0.51c0.28,0.56,0.6,1.21,0.9,1.83c0.55,1.15-0.24,2.5-1.51,2.58c-3.63,0.22-9.86,0.47-11.04-0.36
					C586.05,107.1,585.61,103.62,588.31,102.94z"/>
			</g>
			<g>
				<g>
					<path class="st20" d="M607.99,96.72c0.14-3.37,0.25-5.85,0.25-5.85S607.8,93.86,607.99,96.72z"/>
					<path class="st20" d="M577.7,98.88c-0.06,0-0.13,0.02-0.2,0.09C577.56,98.97,577.63,98.93,577.7,98.88z"/>
					<path class="st8" d="M579.53,83.78c2.7-2.03,1.01-5.57,1.01-5.57s6.93-1.18,11.32-1.35c4.39-0.17,3.72-2.36,7.1-2.2
						c3.38,0.17,0.84-0.84,3.38-1.01c2.53-0.17,4.05,1.01,4.05,5.74c0,2.83,1.21,5.11,2.18,6.49c1.25,0.17,2.35,0.07,2.89-0.57
						c1.69-2.03-0.84-4.73,0.84-6.42c1.69-1.69,3.21-4.05,3.04-7.6c-0.17-3.55-2.7-1.35-3.89-3.55s-1.86-4.56-5.24-5.74
						c-3.38-1.18-3.72,1.35-6.42-0.34s-5.74-0.51-8.95,0s-5.07-1.18-8.78,0.84c-3.72,2.03-3.38,0-8.95,2.7
						c-5.57,2.7-1.86,9.12,0,10.64c1.86,1.52,2.7-1.35,1.86,2.03c-0.62,2.49,2.15,7.36,3.85,10.09
						C579.67,86.59,578.58,84.48,579.53,83.78z"/>
					<path class="st6" d="M580.2,97.63c0.68,2.2,2.87,12.67,4.22,9.97c1.35-2.7,0-5.74,2.7-7.26s2.53-1.52,4.9-1.69
						c2.37-0.17,9.46,1.69,9.63,3.89c0.17,2.2-0.84,4.9,1.18,3.21c2.03-1.69,4.9-2.53,5.07-6.93c0.03-0.73,1.7,4.56,3.89-4.56
						c0.83-3.46,0.84-8.62-2.03-6.93c0,0-0.55-0.53-1.2-1.45c-0.97-1.38-2.18-3.66-2.18-6.49c0-4.73-1.52-5.91-4.05-5.74
						c-2.53,0.17,0,1.18-3.38,1.01c-3.38-0.17-2.7,2.03-7.1,2.2c-4.39,0.17-11.32,1.35-11.32,1.35s1.69,3.55-1.01,5.57
						c-0.95,0.71,0.14,2.82-0.71,4.18c-0.08,0.13-0.18,0.26-0.31,0.38c-0.94,0.88-3.89-2.87-4.22,0.17
						c-0.34,3.04,1.86,11.99,3.21,10.47c0.07-0.08,0.13-0.1,0.2-0.09C578.52,98.33,579.58,95.6,580.2,97.63z"/>
					<path class="st6" d="M597.66,107.61c1.28-0.08,2.07-1.42,1.51-2.58c-0.3-0.62-0.62-1.27-0.9-1.83
						c-0.84-1.69-7.26-1.18-9.97-0.51c-2.7,0.68-2.26,4.16-1.69,4.56C587.8,108.08,594.03,107.84,597.66,107.61z"/>
					<g>
						<path class="st6" d="M594.16,139.61c15.19,0,28.74-6.98,37.64-17.9c-6.32-1.43-19.33-5.16-19.33-5.16s-2.92-5.41-5.72-7.98
							c0.13,2.23,0.85,16.58-2.89,18.45c-4.05,2.03-7.6,6.25-7.6,6.25s-11.51-11.52-15.31-21.64c-1.93,4.04-9.43,9.63-13.91,9.47
							c-2.51-0.09-5.39,1.96-7.56,3.91C568.28,134.02,580.56,139.61,594.16,139.61z"/>
					</g>
					<path class="st6" d="M603.85,127.02c3.74-1.87,3.02-16.22,2.89-18.45c-0.29-0.27-0.58-0.51-0.87-0.7
						c-1.87,3.67-4.33,7.78-6.75,10.03c-4.9,4.56-10.98-0.68-15.2-2.87c-1.13-0.59-2.01-2.11-2.73-3.99c-0.07,0.2-0.16,0.4-0.25,0.6
						c3.8,10.12,15.31,21.64,15.31,21.64S599.8,129.05,603.85,127.02z"/>
					<path class="st8" d="M607.91,98.81c-0.17,4.39-3.04,5.24-5.07,6.93c-2.03,1.69-1.01-1.01-1.18-3.21
						c-0.17-2.2-7.26-4.05-9.63-3.89c-2.36,0.17-2.2,0.17-4.9,1.69s-1.35,4.56-2.7,7.26c-1.35,2.7-3.55-7.77-4.22-9.97
						c-0.62-2.03-1.68,0.7-2.51,1.26c0.9,0.05,1.65,7.31,3.49,12.15c0.72,1.89,1.6,3.41,2.73,3.99c4.22,2.2,10.3,7.43,15.2,2.87
						c2.42-2.26,4.88-6.37,6.75-10.03c1.7-3.33,3.08-7.16,3.33-8.02C608.56,98.87,607.94,98.08,607.91,98.81z M588.31,102.7
						c2.7-0.68,9.12-1.18,9.97,0.51c0.28,0.56,0.6,1.21,0.9,1.83c0.55,1.15-0.24,2.5-1.51,2.58c-3.63,0.22-9.86,0.47-11.04-0.36
						C586.05,106.86,585.61,103.37,588.31,102.7z"/>
					<path class="st6" d="M572.78,119.25c0,0,13.85,15.88,15.2,18.41s3.12-5.67,8.27-4.39c0.68,0.17,3.55,4.73,3.55,5.74"/>
					<path class="st6" d="M604.2,126.01c0,0,7.1,3.72,8.45,8.45c0.46,1.62,3.37-6.59-0.18-17.91"/>
					<path class="st6" d="M609.6,129.89c0,0-8.95,1.86-11.15,5.41"/>
					<path class="st6" d="M596.09,104.55c0,0-3.67,2.18-7.42,0.24"/>
					<path class="st6" d="M591.36,86.48c0,0-1.86,10.81,0,11.32c1.86,0.51,5.24-1.35,5.24-1.35"/>
					<circle class="st8" cx="585.91" cy="88.18" r="1.24"/>
					<circle class="st8" cx="600.35" cy="88.18" r="1.24"/>
				</g>
				<path class="st6" d="M594.14,42.52c-26.81,0-48.55,21.73-48.55,48.55c0,13.22,5.29,25.2,13.86,33.95
					c8.81,9,21.09,14.59,34.68,14.59c15.19,0,28.74-6.98,37.64-17.9c6.81-8.36,10.9-19.02,10.9-30.65
					C642.69,64.25,620.95,42.52,594.14,42.52z"/>
			</g>
		</g>
		<g class="st1">
			<circle class="st2" cx="745.07" cy="265.24" r="73.84"/>
			<circle class="st2" cx="746.5" cy="260.95" r="73.84"/>
			<path class="st2" d="M711.35,244.5c1.43,1.06,3.84,5.97,3.84,5.97s0.35-14.79-1.51-17.23c-1.86-2.44-3.96-6.4-1.16-11.29
				c2.76-4.84,9.18-22.78,13.37-24.51c-0.67-0.39-1.31-0.68-1.86-0.8c-2.8-0.59-7.66,4.71-11.05,8.55
				c-3.39,3.83-4.27,9.28-5.16,16.06c-0.88,6.78-3.39,11.93-3.68,16.5c-0.12,1.86,0.27,3.47,0.78,4.73
				C707.24,241.34,710.69,244.01,711.35,244.5z"/>
			<path class="st2" d="M764.1,205.77c4.54,4.07,10.59,11.99,11.41,18.98c0.81,6.99-0.23,21.54,1.86,18.51
				c2.1-3.03,1.16-12.57,3.73-12.92c0.74-0.1,1.54,0.03,2.31,0.34c1.51-2.43,1.92-3.82,1.92-3.82s-4.27-8.4-8.25-9.14
				c-3.98-0.74,0.74-7.22-2.21-7.96c-2.95-0.74-9.43-15.03-12.52-15.62c-1.42-0.27-2.75,0.96-3.77,2.36
				C759.23,196.65,759.55,201.7,764.1,205.77z"/>
			<path class="st2" d="M725.76,279.18c-0.01,0.36-0.01,0.73-0.01,1.11c0.13-0.25,0.25-0.5,0.38-0.75
				C726,279.42,725.88,279.3,725.76,279.18z"/>
			<path class="st2" d="M786.91,235.92c0-2.56-1.64-4.47-3.51-5.24c-0.76-0.32-1.56-0.45-2.31-0.34c-2.56,0.35-1.63,9.9-3.73,12.92
				c-2.1,3.03-1.05-11.53-1.86-18.51c-0.82-6.99-6.87-14.9-11.41-18.98c-4.54-4.07-4.86-9.12-5.53-9.26
				c-1.79-0.39-4.01-1.68-4.01-1.68c-7.92-2.44-24.33,1.16-28.52,2.56c-0.04,0.01-0.09,0.04-0.13,0.06
				c-4.19,1.73-10.61,19.67-13.37,24.51c-2.79,4.89-0.7,8.85,1.16,11.29c1.86,2.44,1.51,17.23,1.51,17.23s-2.42-4.92-3.84-5.97
				c-0.66-0.49-4.11-3.16-6.44-2.02c-0.92,0.45-2.07,1.45-3.46,3.33c-4.89,6.64,8.27,26.29,12.35,27.17c4.08,0.87,3.2-3.79,3.2-3.79
				s3.32,4.66,8.74,9.99c0.12,0.12,0.24,0.24,0.36,0.36c2.04,1.98,4.36,4.04,6.92,5.97c9.61,7.28,16.32,2.91,16.32,2.91
				s4.08,0,12.24-3.5c3.9-1.67,7.74-7.68,10.68-13.49c0.44-0.86,0.85-1.72,1.25-2.56c2.5-5.32,4.1-9.88,4.1-9.88
				c0.94-0.98,1.14,0.67,1.14,0.67s-0.35,6.17,4.19,1.98C787.5,257.46,786.91,239.53,786.91,235.92z"/>
			<path class="st2" d="M810.62,297.55c-7.42-1.3-12.49-10.69-18.14-11.16c-5.73-0.48-13.62-8-16.27-10.7
				c1.77,10.85-4.28,28.5-7.52,36.86c-0.19,0.81-0.41,1.59-0.66,2.34c-2.49,7.46-4.89,14.14-6.43,18.34
				C782.59,328.87,800.29,315.6,810.62,297.55z"/>
			<path class="st2" d="M737.99,320.15c-1.19,3.83-1.79,13.9-1.79,13.9c3.37,0.47,6.8,0.73,10.3,0.73c5.17,0,10.22-0.54,15.1-1.55
				c1.54-4.2,3.94-10.88,6.43-18.34c0.25-0.75,0.47-1.53,0.66-2.34c-1.12,2.89-1.9,4.68-1.9,4.68S748.98,320.25,737.99,320.15z"/>
			<path class="st2" d="M776.21,275.69c-0.18-0.18-0.33-0.34-0.46-0.47c-0.29-0.31-0.46-0.48-0.46-0.48l-1.17-6.94l-1.84,3.64
				c-2.94,5.81-6.77,11.82-10.68,13.49c-8.16,3.5-12.24,3.5-12.24,3.5s-5.49,3.58-13.67-1.15c-0.85-0.49-1.74-1.08-2.65-1.77
				c-2.56-1.94-4.88-3.99-6.92-5.97c-0.13,0.25-0.25,0.51-0.38,0.75c0,0,6.2,37.42,12.24,39.86c10.99,0.1,28.8-2.92,28.8-2.92
				s0.78-1.79,1.9-4.68C771.92,304.19,777.98,286.54,776.21,275.69z"/>
			<path class="st2" d="M725.74,280.29c-1.21,2.35-2.51,4.3-3.87,5.94c-3.01,3.63-6.38,5.7-10.04,7.05
				c-4.13,1.53-8.64,2.14-13.47,3.01c-6.76,1.21-11.24,3.35-13.77,4.89c11.4,17.5,30,29.86,51.6,32.87c0,0,0.6-10.08,1.79-13.9
				C731.95,317.71,725.74,280.29,725.74,280.29z"/>
			<path class="st2" d="M764.1,205.77c4.54,4.07,10.59,11.99,11.41,18.98c0.81,6.99-0.23,21.54,1.86,18.51
				c2.1-3.03,1.16-12.57,3.73-12.92c0.74-0.1,1.54,0.03,2.31,0.34c1.51-2.43,1.92-3.82,1.92-3.82s-4.27-8.4-8.25-9.14
				c-3.98-0.74,0.74-7.22-2.21-7.96c-2.95-0.74-9.43-15.03-12.52-15.62c-1.42-0.27-2.75,0.96-3.77,2.36
				C759.23,196.65,759.55,201.7,764.1,205.77z"/>
			<path class="st2" d="M725.76,279.18c-0.01,0.36-0.01,0.73-0.01,1.11c0.13-0.25,0.25-0.5,0.38-0.75
				C726,279.42,725.88,279.3,725.76,279.18z"/>
			<path class="st22" d="M785.29,239.99c0-2.56-1.64-4.47-3.51-5.24c-0.76-0.32-1.56-0.45-2.31-0.34c-2.56,0.35-1.63,9.9-3.73,12.92
				c-2.1,3.03-1.05-11.53-1.86-18.51c-0.82-6.99-6.87-14.9-11.41-18.98c-4.54-4.07-4.86-9.12-5.53-9.26
				c-1.79-0.39-4.01-1.68-4.01-1.68c-7.92-2.44-24.33,1.16-28.52,2.56c-0.04,0.01-0.09,0.04-0.13,0.06
				c-4.19,1.73-10.61,19.67-13.37,24.51c-2.79,4.89-0.7,8.85,1.16,11.29c1.86,2.44,1.51,17.23,1.51,17.23s-2.42-4.92-3.84-5.97
				c-0.66-0.49-4.11-3.16-6.44-2.02c-0.92,0.45-2.07,1.45-3.46,3.33c-4.89,6.64,8.27,26.29,12.35,27.17c4.08,0.87,3.2-3.79,3.2-3.79
				s3.32,4.66,8.74,9.99c0.12,0.12,0.24,0.24,0.36,0.36c2.04,1.98,4.36,4.04,6.92,5.97c9.61,7.28,16.32,2.91,16.32,2.91
				s4.08,0,12.24-3.5c3.9-1.67,7.74-7.68,10.68-13.49c0.44-0.86,0.85-1.72,1.25-2.56c2.5-5.32,4.1-9.88,4.1-9.88
				c0.94-0.98,1.14,0.67,1.14,0.67s-0.35,6.17,4.19,1.98C785.87,261.52,785.29,243.6,785.29,239.99z"/>
			<path class="st5" d="M809.81,302.02c-7.42-1.3-12.49-10.69-18.14-11.16c-5.73-0.48-13.62-8-16.27-10.7
				c1.77,10.85-4.28,28.5-7.52,36.86c-0.19,0.81-0.41,1.59-0.66,2.34c-2.49,7.46-4.89,14.14-6.43,18.34
				C781.77,333.34,799.48,320.07,809.81,302.02z"/>
			<path class="st2" d="M737.99,320.15c-1.19,3.83-1.79,13.9-1.79,13.9c3.37,0.47,6.8,0.73,10.3,0.73c5.17,0,10.22-0.54,15.1-1.55
				c1.54-4.2,3.94-10.88,6.43-18.34c0.25-0.75,0.47-1.53,0.66-2.34c-1.12,2.89-1.9,4.68-1.9,4.68S748.98,320.25,737.99,320.15z"/>
			<path class="st22" d="M776.21,280.56c-0.18-0.18-0.33-0.34-0.46-0.47c-0.29-0.31-0.46-0.48-0.46-0.48l-1.17-6.94l-1.84,3.64
				c-2.94,5.81-6.77,11.82-10.68,13.49c-8.16,3.5-12.24,3.5-12.24,3.5s-5.49,3.58-13.67-1.15c-0.85-0.49-1.74-1.08-2.65-1.77
				c-2.56-1.94-4.88-3.99-6.92-5.97c-0.13,0.25-0.25,0.51-0.38,0.75c0,0,6.2,37.42,12.24,39.86c10.99,0.1,28.8-2.92,28.8-2.92
				s0.78-1.79,1.9-4.68C771.92,309.06,777.98,291.41,776.21,280.56z"/>
			<path class="st5" d="M727.37,284.36c-1.21,2.35-2.51,4.3-3.87,5.94c-3.01,3.63-6.38,5.7-10.04,7.05
				c-4.13,1.53-8.64,2.14-13.47,3.01c-6.76,1.21-11.24,3.35-13.77,4.89c11.4,17.5,30,29.86,51.6,32.87c0,0,0.6-10.08,1.79-13.9
				C733.57,321.78,727.37,284.36,727.37,284.36z"/>
			<path class="st2" d="M711.35,244.5c1.43,1.06,3.84,5.97,3.84,5.97s0.35-14.79-1.51-17.23c-1.86-2.44-3.96-6.4-1.16-11.29
				c2.76-4.84,9.18-22.78,13.37-24.51c-0.67-0.39-1.31-0.68-1.86-0.8c-2.8-0.59-7.66,4.71-11.05,8.55
				c-3.39,3.83-4.27,9.28-5.16,16.06c-0.88,6.78-3.39,11.93-3.68,16.5c-0.12,1.86,0.27,3.47,0.78,4.73
				C707.24,241.34,710.69,244.01,711.35,244.5z"/>
		</g>
		<g class="st1">
			<path class="st6" d="M712.17,246.53c1.43,1.06,3.84,5.97,3.84,5.97s0.35-14.79-1.51-17.23c-1.86-2.44-3.96-6.4-1.16-11.29
				c2.76-4.84,9.18-22.78,13.37-24.51c-0.67-0.39-1.31-0.68-1.86-0.8c-2.8-0.59-7.66,4.71-11.05,8.55
				c-3.39,3.83-4.27,9.28-5.16,16.06c-0.88,6.78-3.39,11.93-3.68,16.5c-0.12,1.86,0.27,3.47,0.78,4.73
				C708.06,243.38,711.51,246.04,712.17,246.53z"/>
			<path class="st6" d="M764.91,207.8c4.54,4.07,10.59,11.99,11.41,18.98c0.81,6.99-0.23,21.54,1.86,18.51
				c2.1-3.03,1.16-12.57,3.73-12.92c0.74-0.1,1.54,0.03,2.31,0.34c1.51-2.43,1.92-3.82,1.92-3.82s-4.27-8.4-8.25-9.14
				c-3.98-0.74,0.74-7.22-2.21-7.96c-2.95-0.74-9.43-15.03-12.52-15.62c-1.42-0.27-2.75,0.96-3.77,2.36
				C760.04,198.69,760.37,203.73,764.91,207.8z"/>
			<path class="st6" d="M726.57,281.21c-0.01,0.36-0.01,0.73-0.01,1.11c0.13-0.25,0.25-0.5,0.38-0.75
				C726.81,281.45,726.69,281.33,726.57,281.21z"/>
			<path class="st6" d="M787.73,237.95c0-2.56-1.64-4.47-3.51-5.24c-0.76-0.32-1.56-0.45-2.31-0.34c-2.56,0.35-1.63,9.9-3.73,12.92
				c-2.1,3.03-1.05-11.53-1.86-18.51c-0.82-6.99-6.87-14.9-11.41-18.98c-4.54-4.07-4.86-9.12-5.53-9.26
				c-1.79-0.39-4.01-1.68-4.01-1.68c-7.92-2.44-24.33,1.16-28.52,2.56c-0.04,0.01-0.09,0.04-0.13,0.06
				c-4.19,1.73-10.61,19.67-13.37,24.51c-2.79,4.89-0.7,8.85,1.16,11.29c1.86,2.44,1.51,17.23,1.51,17.23s-2.42-4.92-3.84-5.97
				c-0.66-0.49-4.11-3.16-6.44-2.02c-0.92,0.45-2.07,1.45-3.46,3.33c-4.89,6.64,8.27,26.29,12.35,27.17c4.08,0.87,3.2-3.79,3.2-3.79
				s3.32,4.66,8.74,9.99c0.12,0.12,0.24,0.24,0.36,0.36c2.04,1.98,4.36,4.04,6.92,5.97c9.61,7.28,16.32,2.91,16.32,2.91
				s4.08,0,12.24-3.5c3.9-1.67,7.74-7.68,10.68-13.49c0.44-0.86,0.85-1.72,1.25-2.56c2.5-5.32,4.1-9.88,4.1-9.88
				c0.94-0.98,1.14,0.67,1.14,0.67s-0.35,6.17,4.19,1.98C788.31,259.49,787.73,241.56,787.73,237.95z"/>
			<path class="st6" d="M811.43,299.58c-7.42-1.3-12.49-10.69-18.14-11.16c-5.73-0.48-13.62-8-16.27-10.7
				c1.77,10.85-4.28,28.5-7.52,36.86c-0.19,0.81-0.41,1.59-0.66,2.34c-2.49,7.46-4.89,14.14-6.43,18.34
				C783.4,330.91,801.11,317.63,811.43,299.58z"/>
			<path class="st6" d="M738.8,322.18c-1.19,3.83-1.79,13.9-1.79,13.9c3.37,0.47,6.8,0.73,10.3,0.73c5.17,0,10.22-0.54,15.1-1.55
				c1.54-4.2,3.94-10.88,6.43-18.34c0.25-0.75,0.47-1.53,0.66-2.34c-1.12,2.89-1.9,4.68-1.9,4.68S749.79,322.28,738.8,322.18z"/>
			<path class="st6" d="M749.95,234.31c-0.09-1.2,0.38-2.36,1.29-3.16c1.48-1.29,4.15-3.06,9.19-3.18
				c7.44-0.18,12.7,1.09,12.88,2.72c0.18,1.63,2.72,13.79-9.43,14.7s-13.68-7.96-13.68-7.96L749.95,234.31z"/>
			<circle class="st6" cx="747.31" cy="262.98" r="73.84"/>
			<path class="st6" d="M740.65,237.47c-0.02-1.2-0.6-2.32-1.58-3.02c-1.6-1.15-4.42-2.66-9.45-2.31
				c-7.42,0.51-12.54,2.27-12.57,3.91c-0.03,1.64-1.42,13.98,10.77,13.75c12.19-0.23,12.88-9.2,12.88-9.2L740.65,237.47z"/>
			<path class="st6" d="M739.77,235.47c0.35-0.12,7.09-2.79,10.18-1.16"/>
			<path class="st6" d="M717,237.45c0,0-8.13,6.04-8.13,7.44"/>
			<path class="st6" d="M773.31,230.69c0,0,6.08,0.6,7.59,1.88"/>
			<path class="st6" d="M708.17,250.57c0,0-4.07-2.44-2.79,2.09c1.28,4.53,6.51,16.73,8.95,14.87"/>
			<path class="st6" d="M782.76,238.49c0,0,1.66-1.1,1.86,6.85c0.29,11.68-1.86,15.98-2.44,14.17"/>
			<path class="st6" d="M732.22,263.93c0,0,12.55,4.65,26.84-0.58"/>
			<path class="st6" d="M764.17,278.92c0,0-10.57,10.41-14,11.54"/>
			<path class="st6" d="M705.31,323.63c3.3-8.79,11.25-29.67,13.08-31.23"/>
			<g>
				<path class="st6" d="M777.02,277.72c-0.18-0.18-0.33-0.34-0.46-0.47c-0.29-0.31-0.46-0.48-0.46-0.48l-1.17-6.94l-1.84,3.64
					c-2.94,5.81-6.77,11.82-10.68,13.49c-8.16,3.5-12.24,3.5-12.24,3.5s-5.49,3.58-13.67-1.15c-0.85-0.49-1.74-1.08-2.65-1.77
					c-2.56-1.94-4.88-3.99-6.92-5.97c-0.13,0.25-0.25,0.51-0.38,0.75c0,0,6.2,37.42,12.24,39.86c10.99,0.1,28.8-2.92,28.8-2.92
					s0.78-1.79,1.9-4.68C772.74,306.22,778.79,288.57,777.02,277.72z"/>
				<path class="st6" d="M726.56,282.32c-1.21,2.35-2.51,4.3-3.87,5.94c-3.01,3.63-6.38,5.7-10.04,7.05
					c-4.13,1.53-8.64,2.14-13.47,3.01c-6.76,1.21-11.24,3.35-13.77,4.89c11.4,17.5,30,29.86,51.6,32.87c0,0,0.6-10.08,1.79-13.9
					C732.76,319.74,726.56,282.32,726.56,282.32z"/>
			</g>
			<path class="st6" d="M780.53,281.2c0.21,0.62,12.28,39.5,9.2,39.3c-1.49-0.1-24.03,4.93-24.85,7.8"/>
			<path class="st6" d="M707.6,325.21c0,0,25.24-8.53,31.21-3.03"/>
			<path class="st6" d="M741.89,235.07c0,0-5.54,22.18-0.21,22.18c5.34,0,11.5-4.72,11.5-4.72"/>
			<ellipse class="st8" cx="732.03" cy="239.79" rx="1.64" ry="1.75"/>
			<ellipse class="st8" cx="758.32" cy="235.68" rx="1.64" ry="1.75"/>
			<path class="st6" d="M755.65,234.25c0,0,8.42-1.23,11.91,2.26"/>
			<line class="st6" x1="733.47" y1="236.51" x2="728.34" y2="240.61"/>
		</g>
	</g>
</g>
</svg>
