<?xml version="1.0" encoding="UTF-8"?>
<svg id="Layer_3" data-name="Layer 3" xmlns="http://www.w3.org/2000/svg" viewBox="0 0 841.89 467.72">
  <defs>
    <style>
      .cls-1, .cls-2, .cls-3, .cls-4, .cls-5, .cls-6, .cls-7 {
        fill: none;
      }

      .cls-8 {
        fill: #e9bf9d;
      }

      .cls-9 {
        fill: #bbbbbd;
      }

      .cls-2, .cls-3, .cls-4, .cls-5, .cls-6, .cls-7 {
        stroke-miterlimit: 10;
      }

      .cls-2, .cls-3, .cls-5, .cls-6, .cls-7 {
        stroke: #54575c;
      }

      .cls-10 {
        fill: #76767b;
      }

      .cls-11 {
        fill: #e0635d;
      }

      .cls-12 {
        fill: #fbe8be;
      }

      .cls-3 {
        stroke-dasharray: 1.99 1.99;
      }

      .cls-3, .cls-7 {
        stroke-width: 1.04px;
      }

      .cls-13 {
        fill: #e99821;
      }

      .cls-14 {
        fill: #989a9c;
      }

      .cls-15 {
        fill: #984d30;
      }

      .cls-16 {
        fill: #fff;
      }

      .cls-17 {
        fill: #ddddde;
      }

      .cls-18 {
        fill: #dc8559;
      }

      .cls-4 {
        stroke: #e99821;
      }

      .cls-19 {
        fill: #c98262;
      }

      .cls-20 {
        fill: #f4c55c;
      }

      .cls-5 {
        stroke-width: 1.3px;
      }

      .cls-6 {
        stroke-width: .94px;
      }

      .cls-21 {
        fill: #54575c;
      }
    </style>
  </defs>
  <rect class="cls-12" x=".04" y=".53" width="838.67" height="467.33"/>
  <polygon class="cls-13" points="841.92 334.68 641.12 467.85 841.92 467.85 841.92 334.68"/>
  <g>
    <path class="cls-14" d="M435.16,274.92l-36.69-1.48-3.24,10.46h-52.76s1.98-12.64,1.98-12.64l-55.84-2.25v63.15l150.88-39.29c-1.43-3.02-2.76-6.86-3.76-11.74-.48-2.35-.65-4.41-.58-6.21Z"/>
    <path class="cls-1" d="M35.19,47.62c-3.24,12.31-1.6,67.06-.6,93.41h9.16c-2.53-15.15-9.84-63.41-2.22-74.69l-4.78-25.12c-.46,2.04-.98,4.18-1.56,6.4Z"/>
    <polygon class="cls-1" points="229.66 339.42 229.14 347.65 238.99 345.08 238.41 339.53 229.66 339.42"/>
    <path class="cls-1" d="M217.69,350.63l.59-.15c-.2.03-.4.07-.6.1v.06Z"/>
    <path class="cls-9" d="M217.69,350.58c-5.3.87-11.74,1.61-17.78,1.48-11.41-.25-35.14-9.89-42.38-12.94-1.2,7.47-2.7,17.38-4.1,28.25l64.27-16.74v-.06Z"/>
    <path class="cls-2" d="M229.11,348.22l.04-.57-10.86,2.83c6.29-1.06,10.82-2.25,10.82-2.25Z"/>
    <path class="cls-1" d="M93.45,61.7s.05-.13.14-.36c-.03-.01-.06-.02-.09-.03-.02.13-.03.25-.06.4Z"/>
    <path class="cls-1" d="M40.3,372.38l.55,15.25,8.72,1.53c-5.28-8.79-9.27-16.77-9.27-16.77Z"/>
    <path class="cls-15" d="M81.45,374.84l15.44,3.18c1.61-2.85,4.52-8.16,5.33-10.65,1.13-3.5-12.08-8.58-18.88-7.45-2.43.41-4.33,1.84-5.76,3.5.41,1.29.82,2.6,1.23,3.95l2.64,7.47Z"/>
    <path class="cls-13" d="M68.23,411.64c-5.36-1.99-12.8-12.74-18.66-22.49l-8.72-1.53,1.03,28.59c2.46,2.77,5,6.45,7.47,11.4,5.84,11.67,8.99,20.38,10.69,26.18l38.76,2.48,20.39-9.04v-45.89l-27.97-4.9-2.23,5.29s-10.57,13.67-20.76,9.9Z"/>
    <path class="cls-21" d="M.04,467.85h61.95s-.23-8.23-1.94-14.06c-1.7-5.8-4.86-14.51-10.69-26.18-2.47-4.94-5.01-8.63-7.47-11.4-3.55-3.99-6.95-6.04-9.79-7.04-1.97-.7-3.71-1.83-5.13-3.27-1.95-1.99-3.28-4.57-3.72-7.42-1.39-8.98-4.22-23.05-9.75-38.56-2.94-8.23-7.95-13.14-13.45-16.01v123.94Z"/>
    <path class="cls-9" d="M116.4,94.89l8.86,6.38c.34.25.83.11.98-.28,1.2-3.11,1.86-6.87,2.17-10.74l-8.83-7.56-3.18,12.19Z"/>
    <path class="cls-8" d="M128.5,78.6c-.06-1.1-.13-2.16-.21-3.17-1.91,1.28-4.69.11-7.97-.58-2.9-.6-7.5-.04-10.4.44-.43,1.47-.91,2.99-1.38,4.49,6.91,1.76,15.91-.15,19.96-1.18Z"/>
    <path class="cls-16" d="M119.58,82.7l8.83,7.56c.32-3.95.28-8.02.09-11.66-4.05,1.03-13.05,2.94-19.96,1.18-.69,2.21-1.36,4.38-1.81,6.26l9.67,8.85,3.18-12.19Z"/>
    <path class="cls-2" d="M101.41,71.62c-.29.79-.46,1.28-.46,1.28,0,0,.17-.47.46-1.28Z"/>
    <path class="cls-9" d="M93.51,61.3s.06.02.09.03c.28-.69.95-2.3,1.83-4.08-2.67-13.99-1.94-21.89,4.35-22.94,7.18-1.2,8.22-.37,7.47-8.59-.35-3.88,5.61-8.21,11.21-5.79,2.21.96,4.39,2.8,6.27,4.86.06-4.09-.92-9.72-6.45-11.22-8.97-2.43-7.29,5.7-11.02,5.65-3.74-.05-8.9-5.37-17.71,0-8.82,5.37-11.99,10.04-11.99,10.04,0,0-18.5-10.46-16.81,4.11,1.68,14.57,12.14,14.76,18.12,10.65h2.99s-4.11,2.85.19,8.62c2.36,3.17,6.04,6.01,9.53,7.77.23-.47.47-.9.74-1.27,0,0,1.67-1.14,1.21,2.15Z"/>
    <path class="cls-2" d="M104.69,74.75c-.15.36-.24.58-.24.58,0,0,.09-.21.24-.58Z"/>
    <path class="cls-8" d="M118.46,19.93c-5.6-2.42-11.56,1.91-11.21,5.79.75,8.22-.3,7.4-7.47,8.59-6.29,1.05-7.02,8.95-4.35,22.94,1.46-2.94,3.5-6.32,5.27-6.66,1.9-.36.02,6.19-1.82,11.56-1.25,3.66-2.49,6.78-2.49,6.78,0,0,1.48-3.36,3.3-7.06,2.4-4.86,5.39-10.31,6.43-9.51.65.51.17,3.3-.71,6.66-1.19,4.53-3.12,10.11-4,12.58,1.14-3.13,4.15-11.14,6.04-13.7.51-.69.93-.97,1.22-.68.09.09.17.24.24.46.56,1.99-.44,6.11-1.63,9.87-.79,2.5-1.67,4.84-2.23,6.28-.14.36-.26.66-.36.9.1-.24.23-.55.38-.9.73-1.68,1.98-4.44,3.22-6.34,1.2-1.84,2.37-2.87,3-1.3.12.3.18.68.21,1.1.09,1.48-.36,3.65-1.03,6.1-.17.61-.35,1.24-.54,1.88,2.9-.48,7.5-1.04,10.4-.44,3.28.68,6.05,1.85,7.97.58.54-.36,1.02-.91,1.41-1.73.12-.25.23-.52.33-.81,1.68-4.76,6.24-18.61,4.94-24.59-.38-1.73-1.92-3.81-2.59-7.31-.77-3.98-1.52-7.28-2.92-10.33-1.62-3.54-3.43-4.44-4.75-5.88-1.88-2.06-4.05-3.91-6.27-4.86Z"/>
    <path class="cls-21" d="M43.75,141.03h1.53c1.11-6.05,3.54-16.43,7.59-20.65,5.88-6.12,4.65-16.9,6.12-24.49s16.9-14.45,24-18.12c1.32-.68,3.64-1.31,6.56-1.88-.08-4.56.15-9.12,1.01-12.59-.32-.41-.66-.75-1.03-1.01-8.62-6.07-48.01,4.05-48.01,4.05-7.61,11.28-.31,59.55,2.22,74.69Z"/>
    <path class="cls-10" d="M128.3,75.43c.08,1.01.15,2.07.21,3.17.19,3.64.23,7.71-.09,11.66-.31,3.87-.97,7.62-2.17,10.74-.15.39-.64.53-.98.28l-8.86-6.38-9.67-8.85c-.29,1.17-.49,2.23-.57,3.13-.06.7-.05,1.3.06,1.77,1.06,4.41-1.06,12.47-3.4,12.67,0,0-6.22-7.28-8.82-9.24-.01-.01-.03-.03-.04-.04-1.15-.85-2.89-.41-2.89-.41,0,0-1.36-8.98-1.52-18.04-2.92.57-5.25,1.2-6.56,1.88-7.1,3.67-22.53,10.53-24,18.12s-.24,18.37-6.12,24.49c-4.05,4.22-6.47,14.61-7.59,20.65h124.76c1.46-5.63,3.5-10.42,5.16-13.79-3.19-3.92-6.61-11.12-7.08-25.24-.81-24.34-31.76-26.9-38.41-28.3-.39.82-.87,1.37-1.41,1.73Z"/>
    <path class="cls-8" d="M89.56,75.88c.16,9.06,1.52,18.04,1.52,18.04,0,0,1.74-.45,2.89.41.01.01.03.03.04.04,2.6,1.96,8.82,9.24,8.82,9.24,2.33-.2,4.46-8.26,3.4-12.67-.11-.46-.12-1.07-.06-1.77.08-.89.28-1.95.57-3.13.46-1.88,1.12-4.05,1.81-6.26.47-1.5.95-3.03,1.38-4.49.19-.64.37-1.27.54-1.88.67-2.45,1.12-4.62,1.03-6.1-.02-.43-.09-.8-.21-1.1-.63-1.58-1.8-.54-3,1.3-1.23,1.9-2.49,4.65-3.22,6.34-.15.35-.28.66-.38.9-.15.37-.24.58-.24.58,0,0,.09-.22.24-.58.09-.24.22-.54.36-.9.56-1.44,1.44-3.78,2.23-6.28,1.19-3.76,2.19-7.89,1.63-9.87-.06-.22-.14-.37-.24-.46-.29-.29-.71,0-1.22.68-1.89,2.57-4.9,10.57-6.04,13.7-.28.8-.46,1.28-.46,1.28,0,0,.17-.48.46-1.28.88-2.47,2.8-8.05,4-12.58.89-3.36,1.37-6.15.71-6.66-1.04-.81-4.03,4.65-6.43,9.51-1.82,3.7-3.3,7.06-3.3,7.06,0,0,1.23-3.12,2.49-6.78,1.84-5.37,3.72-11.92,1.82-11.56-1.77.34-3.81,3.71-5.27,6.66-.88,1.77-1.55,3.38-1.83,4.08-.09.23-.14.36-.14.36.02-.14.04-.27.06-.4.46-3.3-1.21-2.15-1.21-2.15-.27.37-.51.81-.74,1.27-.4.83-.73,1.8-.99,2.87-.86,3.46-1.09,8.03-1.01,12.59Z"/>
    <path class="cls-13" d="M149.77,336.72l11.8-54.27s-14.45-2.06-25.66-2.06-9.14-9.14-9.14-9.14c0,0,3.54-1.18,2.95-27.43-.35-15.41,5.81-39.75,11.67-58.25L.04,182.21v35.27c4.96-3.56,12.12-6.57,21-4.34,10.23,2.57,18.12,10.82,20.91,18.88,2.05,5.92.23,12.56.23,12.56,0,0-4.15,26.73-9.82,30.83-5.66,4.1-7.55,5.83-7.55,11.76l-.3,2.62c1.83.35,3.63.73,5.35,1.12l.61-7.01,78.52,6.56s-.82,28.18-2.83,47.38l49.85.64c-.42-.18-.65-.28-.65-.28l-5.6-1.47Z"/>
    <polygon class="cls-1" points="232.94 287.17 229.66 339.42 238.41 339.53 232.94 287.17"/>
    <path class="cls-18" d="M269.8,275.38c4.65-.26,1.18-5.31,1.18-5.31.04-.72-.25-1.31-.78-1.8-3.2-2.94-15.49-2.33-22.81-4.1-8.55-2.06-13.27-7.67-12.98-8.55s10.03,1.18,15.34-1.47c5.31-2.65,2.36-8.55-2.95-7.96s-16.52-2.36-23.66-2.36-17.04,8.85-17.04,8.85l2.95,14.75s21.82,5.01,32.74,6.19c2.44.26,7.78.27,12.46.55.64.04,1.28.08,1.89.13,5.53.45,9.65,1.32,13.67,1.09Z"/>
    <path class="cls-15" d="M41.95,232.03c-2.84-7.98-10.86-16.36-20.91-18.88-8.88-2.23-16.04.78-21,4.34v60.03c15.05-1.7,24.78,9.66,24.78,9.66,0-5.93,1.89-7.66,7.55-11.76,5.66-4.1,9.82-30.83,9.82-30.83,0,0,1.94-6.44-.23-12.56Z"/>
    <path class="cls-16" d="M.04,277.52v10.63c4.23-.35,8.5-.2,12.7.46l11.69,1.85.08-.67.3-2.62s-9.72-11.36-24.78-9.66Z"/>
    <path class="cls-21" d="M30.48,283.9l-.61,7.01c2.73.62,5.27,1.27,7.41,1.96,10.25,3.3,17.68,6.3,31.55,44.49,1.88,5.17,3.87,10.98,6.01,17.53,13.29.78,25.37,1.21,27.44.35,1.62-.67,2.9-7.95,3.89-17.4,2.02-19.2,2.83-47.38,2.83-47.38l-78.52-6.56Z"/>
    <path class="cls-16" d="M96.88,378.02l-15.44-3.18-2.64-7.47c-.42-1.34-.83-2.65-1.23-3.95-.94-2.97-1.85-5.82-2.73-8.53-2.14-6.55-4.13-12.36-6.01-17.53-13.87-38.18-21.31-41.19-31.55-44.49-2.14-.69-4.68-1.34-7.41-1.96-1.72-.39-3.52-.76-5.35-1.12l-.08.67-11.69-1.85c-4.21-.67-8.47-.81-12.7-.46v55.77c5.5,2.87,10.51,7.77,13.45,16.01,5.54,15.5,8.36,29.57,9.75,38.56.44,2.86,1.77,5.43,3.72,7.42,1.41,1.44,3.15,2.58,5.13,3.27,2.84,1,6.24,3.06,9.79,7.04l-1.03-28.59-.55-15.25s3.99,7.98,9.27,16.77c5.86,9.75,13.3,20.5,18.66,22.49,10.19,3.78,20.76-9.9,20.76-9.9l2.23-5.29,7.59-18.03-1.93-.4Z"/>
    <path class="cls-20" d="M247.93,161.44c4.39,2.39,8.64,5.54,10.96,9.53,2.04,3.49,2.81,10.13,2.93,17.46l26.79.64,4.25.1,3.91-48.15h-43.68c-1.06,7.69-2.92,13.78-4.53,17.85-.34.87-.54,1.72-.64,2.56Z"/>
    <path class="cls-1" d="M172.77,148.26c-.49.66-.88,1.4-1.22,2.19.51-.17,1-.34,1.47-.5-.17-1.08-.25-1.7-.25-1.7Z"/>
    <path class="cls-2" d="M237.91,177.52c-.61,1.3-1.1,2.77-1.41,4.46.47-1.49.96-2.98,1.41-4.46Z"/>
    <path class="cls-18" d="M238.35,113.18c-1.38-4.15-4.22-12.59-5.42-15.35-1.69-3.91-6.78-11.8-6.78-11.8l-4.72-1.18-15.57,32.96-7.55,15.99.76,7.21c4.5,4.27,10.54,9.31,17.05,10.48,2.89.52,5.64.48,8.12.13,1.93-.27,3.71-.74,5.28-1.27.27-.22.46-.33.46-.33.92-1.05,1.88-3.33,2.81-6.25.28-.87.56-1.8.83-2.76,2.96-10.4,5.5-25.5,5.5-25.5,0,0-.3-.92-.78-2.35Z"/>
    <path class="cls-16" d="M237.91,177.52c1.63-5.35,2.68-10.48.14-14.8-2.42-4.12-5.79-3.55-8.06-5.32-1.13-.88-1.77-1.72-2.1-2.49-.91-2.18.78-3.87,1.64-4.55-1.57.53-3.34,1-5.28,1.27-.02.9-.03,1.82-.05,2.76-.11,7.49-.06,15.73.48,20.71.34,3.16.98,7.67,1.71,12.49,1.8,11.85,4.19,25.55,4.19,25.55,0,0-3.8-12-9.3-25.67-3.74-9.3-8.27-19.37-12.93-26.97,3.24,7.43,1.52,13.46-1.7,18.18l6.03,5.31s-.58,1.37-.58,3.27c0,1.7.47,3.81,2.26,5.74,3.79,4.1,21.54,33.32,18.26,49.16,0,0,7.76-32.5,4.15-50.25-.29-1.44-.47-2.8-.56-4.08-.15-2.17-.03-4.11.29-5.84h0s0,0,0,0c.31-1.68.81-3.16,1.41-4.46Z"/>
    <polygon class="cls-2" points="236.5 181.99 236.5 181.98 236.5 181.99 236.5 181.99"/>
    <path class="cls-18" d="M226.39,187.6c-.73-4.82-1.37-9.34-1.71-12.49-.54-4.98-.58-13.23-.48-20.71.01-.93.03-1.85.05-2.76-2.49.35-5.23.39-8.12-.13-6.51-1.17-12.55-6.22-17.05-10.48l.83,7.83c.81.81,1.54,1.6,2.24,2.38,2.94,3.3,4.95,6.39,6.2,9.26,4.66,7.61,9.19,17.68,12.93,26.97,5.5,13.68,9.3,25.67,9.3,25.67,0,0-2.38-13.71-4.19-25.55Z"/>
    <path class="cls-21" d="M247.93,161.44c.1-.84.3-1.69.64-2.56,1.6-4.07,3.46-10.16,4.53-17.85,1.48-10.69,1.41-24.47-3.05-40.25-7.67-27.13-21.53-25.36-21.53-25.36,0,0-23-28.31-45.12,15.04,0,0-5.9,24.48-5.31,31.56,0,0-1.26,1.93-2.89,5.22-1.66,3.36-3.7,8.16-5.16,13.79-.85,3.28-1.51,6.85-1.78,10.59-.55,7.65.5,16.01,4.82,24.08,0,0-5.21-16.38-1.51-25.24.33-.8.73-1.54,1.22-2.19,0,0,.08.61.25,1.7.89,5.64,4.2,24.17,10.87,36.62,3.42,6.4,7.73,11.2,13.06,11.82,0,0-3.17-5.38,2.04-11.46.51-.6,1.11-1.21,1.79-1.81,2.03-1.79,4.15-3.94,5.86-6.45,3.22-4.72,4.94-10.75,1.7-18.18-1.25-2.87-3.26-5.96-6.2-9.26-.7-.78-1.43-1.58-2.24-2.38l-.83-7.83-.76-7.21,7.55-15.99,15.57-32.96,4.72,1.18s5.09,7.88,6.78,11.8c1.19,2.76,4.04,11.2,5.42,15.35.48,1.43.78,2.35.78,2.35,0,0-2.54,15.1-5.5,25.5-.27.96-.55,1.89-.83,2.76-.94,2.92-1.9,5.2-2.81,6.25,0,0-.19.12-.46.33-.86.68-2.54,2.37-1.64,4.55.32.78.97,1.61,2.1,2.49,2.27,1.77,5.64,1.2,8.06,5.32,2.54,4.32,1.49,9.45-.14,14.8-.45,1.47-.94,2.96-1.41,4.46,0,0,0,0,0,0,0,0,3.5,3.62,7.44,6.03,3.48,2.13,7.32,3.31,9.43.22.31-.45.58-.99.81-1.63,3.22-9.14-7.25-16.56-6.25-25.17Z"/>
    <path class="cls-14" d="M303.99,229.17s.57-.57,1.53-1.46l-16.91-2.01v11.09c6.07-2.93,12.09-5.96,15.37-7.62Z"/>
    <path class="cls-18" d="M364.4,227.37c-1.8-1.11-13.32,1.11-13.32,1.11,4.72-3.47-.28-6.11-9.44-5.97s-9.44-6.11-18.04-5.27c-6.66.64-14.75,7.44-18.07,10.48-.97.89-1.53,1.46-1.53,1.46h0c1.08,7.22,3.92,12.08,3.92,12.08l2.36-.69c2.47-.6,5.3-.62,8.19-.33,8.49.86,17.64,4.46,20.54,4.36,3.89-.14,16.66-6.8,16.66-6.8,4.45-.09,6.34-1.96,7.11-3.24.41-.68.52-1.2.52-1.2,3.75-1.53,2.91-4.86,1.11-5.97Z"/>
    <path class="cls-13" d="M270.2,268.27c.54.49.83,1.08.78,1.8,0,0,3.47,5.05-1.18,5.31-4.02.23-8.14-.64-13.67-1.09-.61-.05-1.24-.09-1.89-.13l-.15.05c1.6,8.89,5.88,47.76,7.74,64.92l26.77-6.97v-70.69l-18.42,6.8Z"/>
    <path class="cls-13" d="M261.82,188.44c.25,14.96-2.22,32.83-2.22,32.83,0,0,1.8,2.64,1.94,9.29.32,15.28,2.6,10.47,4.42,11.4.85.43,1.44,1.16,1.86,2,.05.1.13.19.24.26.38.27,1.16.41,2.64.22,2.19-.27,10.09-3.87,17.91-7.64v-47.72l-26.79-.64Z"/>
    <path class="cls-9" d="M318.46,240.23c-2.9-.29-5.72-.27-8.19.33l-2.36.69s-2.83-4.86-3.92-12.08h0c-3.28,1.66-9.3,4.7-15.37,7.62-7.82,3.77-15.72,7.37-17.91,7.64-1.48.18-2.26.05-2.64-.22-.11-.08-.19-.17-.24-.26-.43-.85-1.02-1.57-1.86-2-1.82-.93-4.1,3.88-4.42-11.4-.14-6.65-1.94-9.29-1.94-9.29,0,0,2.47-17.86,2.22-32.83-.12-7.33-.89-13.97-2.93-17.46-2.33-3.99-6.57-7.15-10.96-9.53-1.01,8.61,9.47,16.03,6.25,25.17-.23.64-.5,1.18-.81,1.63-2.1,3.08-5.94,1.9-9.43-.22-3.95-2.41-7.44-6.02-7.44-6.03-.32,1.73-.44,3.67-.29,5.84.09,1.28.27,2.64.56,4.08,3.61,17.75-4.15,50.25-4.15,50.25,3.28-15.84-14.47-45.06-18.26-49.16-1.79-1.94-2.26-4.05-2.26-5.74,0-1.89.58-3.27.58-3.27l-6.03-5.31c-1.71,2.51-3.84,4.66-5.86,6.45-.69.61-1.28,1.21-1.79,1.81-5.21,6.08-2.04,11.46-2.04,11.46-5.33-.62-9.64-5.42-13.06-11.82-6.67-12.45-9.98-30.98-10.87-36.62-.47.16-.96.32-1.47.5-3.7,8.85,1.51,25.24,1.51,25.24-4.31-8.06-5.37-16.42-4.82-24.08-7.11,2.56-15.37,6-17.3,8.74-1.46,2.07-5.44,12.2-9.57,25.22-5.86,18.5-12.02,42.84-11.67,58.25.59,26.25-2.95,27.43-2.95,27.43,0,0-2.06,9.14,9.14,9.14s25.66,2.06,25.66,2.06l-11.8,54.27,5.6,1.47s.23.1.65.28c.36.16.87.37,1.5.64,7.24,3.05,30.97,12.69,42.38,12.94,6.04.13,12.48-.61,17.78-1.48.2-.03.4-.07.6-.1l10.86-2.83.52-8.23,3.28-52.25,5.47,52.36.58,5.55,20.28-5.28,2.57-.67c-1.86-17.17-6.15-56.03-7.74-64.92l.15-.05c-4.68-.28-10.02-.28-12.46-.55-10.91-1.18-32.74-6.19-32.74-6.19l-2.95-14.75s9.9-8.85,17.04-8.85,18.35,2.95,23.66,2.36,8.26,5.31,2.95,7.96c-5.31,2.65-15.04.59-15.34,1.47s4.42,6.49,12.98,8.55c7.32,1.77,19.61,1.16,22.81,4.1l18.42-6.8,31.03-11.45s.26-4.77-1.19-9.8Z"/>
    <path class="cls-9" d="M454.5,228.38c2.84-6.87-6.38-11.22-6.38-11.22,0,0-38.99-5.3-48.91-4.01-6.7.87-15.33,14.52-20.23,23.32l65.6,7.82c4.18-5.99,8.56-12.6,9.92-15.9Z"/>
    <path class="cls-13" d="M334.84,467.85c39.16-.11,74.73-.19,95.55-.17.4-1,1.16-2.83,2.24-5.25-4.75.32-11.78-.11-17.43-4.22-9.47-6.89-15.28-10.11-20.66-6.67-1.12.72-2.18,1.2-3.14,1.48l-9.77,12.3c-1.51-6.03,4.73-18.08,4.73-18.08,0,0-10.33,8.61-10.97,1.29-.65-7.32,10.54-17.22,10.54-17.22,0,0,5.02-1.8,11.9-2.89,5.87-9.52,13.56-20.5,18.87-22.5l-9.44,21.69c3.05-.02,6.18.22,9.22.87,8.71,1.87,18.79,10.03,25.29,16.07,4.12-7.04,9.17-14.47,14.95-20.56,7.5-7.9,21.04-16.4,35.62-23.11l-5.26.85c-5.86-15.63-8.61-10.25-23.26-10.9-5.96-.26-10.17-6.73-13.07-14.31l-227.95,77.4-8.46,2.87-65.06-25.75-6.4,36.79h191.94Z"/>
    <path class="cls-13" d="M628.78,353.14c-.45.26-.73.37-.75.27-.22-.86-9.25-3.44-16.78-6.24-5.26-1.96-7.26-14.84-7.98-22.42l-43.83,14.88c-1.75,3.32-2.97,6.08-3.83,8.4l42.91-2.82-1.08,37.62c4.61,1.01,8.1,4.71,10.46,8.18,3.97-5.7,7.6-10.94,9.9-14.28,5.19-7.54,14.34-9.99,19.75-10.79-4.67-3.24-7.29-8.13-8.76-12.8Z"/>
    <path class="cls-20" d="M596.61,283.48c.22-2.25.36-4.27.5-6.11.41-5.38.87-9.31,3.59-13.47,1.89-2.89,3.9-9.23,6.88-14.8l-54.19,14.11c5.6,7.57,8.14,14.03,8.14,14.03,0,0,.48,1.05,1.24,2.8,2.12,4.9,6.44,15.32,8.66,23.89,3.01,11.62-.65,15.71-10.11,32.28-.69,1.21-1.31,2.35-1.89,3.44l43.83-14.88c-.31-3.27-.39-5.55-.39-5.55,0,0-7.12-3.87-9.49-6.03-2.22-2.02,5.6-8.58,10.84-14.54-3.57-3.75-8.14-9.7-7.61-15.16Z"/>
    <path class="cls-20" d="M445.11,352.07h-4.19c-3.63,0-6.14-3.64-4.84-7.03l3.16-8.24,5.16-36.54c-.27-.28-.54-.59-.81-.91-1.33-1.56-2.76-3.66-4.1-6.48l-150.88,39.29-26.77,6.97-2.57.67-20.28,5.28-9.85,2.57-.04.57s-4.53,1.2-10.82,2.25l-.59.15-64.27,16.74-10.64,2.77v20.7l6.26,3.26-3.13,35.62,3.38,1.34,65.06,25.75,8.46-2.87,227.95-77.4c-4.23-11.05-5.67-24.46-5.67-24.46Z"/>
    <path class="cls-21" d="M403.05,437.34l4.23-9.72,9.44-21.69c-5.31,2-13,12.98-18.87,22.5-4.85,7.86-8.46,14.72-8.46,14.72,5.38-3.66,13.66-5.81,13.66-5.81Z"/>
    <path class="cls-21" d="M386.37,447.24s-6.24,12.05-4.73,18.08l9.77-12.3c-3.64,1.05-5.89-1.01-5.04-5.78Z"/>
    <path class="cls-19" d="M407.27,427.62l-4.23,9.72s-8.28,2.15-13.66,5.81c0,0,3.61-6.87,8.46-14.72-6.89,1.09-11.9,2.89-11.9,2.89,0,0-11.19,9.9-10.54,17.22.65,7.32,10.97-1.29,10.97-1.29-.85,4.77,1.4,6.83,5.04,5.78.96-.28,2.01-.76,3.14-1.48,5.38-3.44,11.19-.22,20.66,6.67,5.65,4.11,12.68,4.54,17.43,4.22,2.01-4.49,5.13-10.99,9.15-17.87-6.5-6.04-16.58-14.21-25.29-16.07-3.04-.65-6.17-.89-9.22-.87Z"/>
    <path class="cls-8" d="M636.2,318.12s-2.36-.92-5.16-2.81c-4.11-2.78-9.17-7.67-9.05-14.84.15-8.14,1.96-18.14,1.59-25.17-.17-3.38-.85-6.08-2.45-7.54-2.16-1.97-3.62-4.48-4.59-6.68l-3.8,1.73s-3.5,5.46-4.73,13.34c-.02.12-.03.24-.05.36-.39,2.67-.55,5.59-.67,8.42-.24,5.45-.4,10.5-2.08,12.52-.32.39-.65.78-1,1.17-5.24,5.96-13.06,12.52-10.84,14.54,2.37,2.15,9.49,6.03,9.49,6.03,0,0,.08,2.29.39,5.55.72,7.58,2.72,20.47,7.98,22.42,7.53,2.8,16.57,5.38,16.78,6.24.02.1.3-.01.75-.27-2.15-6.85-1.83-13.22-1.83-13.22,0,0,4.3-18.35,9.25-21.8Z"/>
    <path class="cls-10" d="M628.05,439.37c-7.45-1.15-15.8-1.85-24.46-1.53-18.95.7-39.39,6.32-55.28,22.95-2.06,2.16-4.05,4.49-5.94,7.03l59.6-.38,18.16-11.79,3.77-2.45,5.26-3.42,9.58-6.22c.2-.65.42-1.31.65-1.99-3.45-.8-7.26-1.57-11.35-2.2Z"/>
    <path class="cls-2" d="M638.75,443.56l2.42-1.57c-.58-.14-1.17-.28-1.77-.42-.24.68-.45,1.34-.65,1.99Z"/>
    <path class="cls-16" d="M581.71,391.9c.55-7.02,2.31-18.72,7.83-26.61.86-1.23,2.79-.42,2.5,1.05l-4.2,21.9c2.32-1.35-.61-6.88,8.73-5.56.29.04.58.1.87.16l1.08-37.62-42.91,2.82c-2.69,7.28-1.84,10.31-2.9,13.34-.4,1.15-2.17,2.51-4.64,3.8l.07.43,6.35,25.23-.77.12c4,1.07,7.96,2.29,12.54,3.34,3.87.88,8.06,1.68,12.23,2.48,1.19-2.38,2.61-4.32,2.61-4.32,0,0,.22-.22.6-.56Z"/>
    <path class="cls-19" d="M548.14,365.61l-.07-.43c-2.09,1.09-4.68,2.14-7.39,2.99-6.06,1.9-12.68,2.81-15.51.96-5.59-3.66-7.96-2.8-19.58-2.15s-12.91-2.8-12.91-2.8l-.39-1.74-4.99-22.52c4.95-21.03-12.48-25.24-16.14-25.24s2.15,24.53,0,29.91c-2.15,5.38-8.18-15.71-8.18-25.61s-13.96-15.39-13.96-15.39c0,0-2.03-.64-4.61-3.33l-5.16,36.54-3.16,8.24c-1.3,3.39,1.2,7.03,4.84,7.03h4.19s1.44,13.41,5.67,24.46c2.9,7.58,7.11,14.04,13.07,14.31,14.65.65,17.4-4.72,23.26,10.9l5.26-.85c16.78-7.72,34.96-13.07,46.94-12.4.02,0,.04,0,.07,0,5.46.32,9.94,1.3,14.35,2.47l.77-.12-6.35-25.23Z"/>
    <path class="cls-21" d="M571.43,303.92c-2.22-8.56-6.54-18.99-8.66-23.89-.76-1.75-1.24-2.8-1.24-2.8,0,0-2.54-6.46-8.14-14.03-8.15-11.02-22.78-24.38-45.48-23.62l-12.22-.44s-6.03-3.87-15.49-1.51c-3.92.98-9.79,4.74-15.38,9.05-7.91,6.1-15.28,13.32-15.8,15.39,0,0-13.36-.37-13.86,12.83-.07,1.81.1,3.86.58,6.21,1,4.88,2.33,8.72,3.76,11.74,1.34,2.83,2.77,4.92,4.1,6.48.28.32.55.63.81.91,2.57,2.69,4.61,3.33,4.61,3.33,0,0,13.96,5.5,13.96,15.39s6.03,30.99,8.18,25.61c2.15-5.38-3.66-29.91,0-29.91s21.09,4.21,16.14,25.24l4.99,22.52.39,1.74s1.29,3.44,12.91,2.8,13.99-1.51,19.58,2.15c2.83,1.85,9.46.95,15.51-.96,2.71-.85,5.3-1.9,7.39-2.99,2.47-1.29,4.24-2.65,4.64-3.8,1.06-3.02.21-6.06,2.9-13.34.86-2.32,2.07-5.08,3.83-8.4.57-1.09,1.19-2.22,1.89-3.44,9.47-16.57,13.13-20.66,10.11-32.28Z"/>
    <path class="cls-21" d="M589.54,365.29c-5.52,7.89-7.27,19.59-7.83,26.61,1.06-.94,3.37-2.82,5.68-3.47.17-.05.32-.11.45-.19l4.2-21.9c.28-1.47-1.65-2.28-2.5-1.05Z"/>
    <path class="cls-8" d="M597.43,382.84c-.29-.06-.57-.12-.87-.16-9.34-1.32-6.41,4.21-8.73,5.56-.13.08-.28.14-.45.19-2.31.65-4.62,2.52-5.68,3.47-.38.34-.6.56-.6.56,0,0-1.41,1.95-2.61,4.32.99.19,1.97.38,2.96.57,1.51.29,3,.59,4.47.89,4,.82,7.76,1.69,10.99,2.68.87.27,1.71.54,2.49.82.26.1.52.22.78.33,2.53-3.63,5.18-7.43,7.7-11.05-2.35-3.47-5.84-7.16-10.46-8.18Z"/>
    <path class="cls-21" d="M537.48,467.85l4.88-.03c1.89-2.54,3.88-4.88,5.94-7.03,15.89-16.63,36.34-22.25,55.28-22.95,8.66-.32,17.01.38,24.46,1.53l-.03-.24s-9.43-23.11-21.97-33.41c-1.89-1.55-3.85-2.81-5.86-3.65-.26-.11-.52-.23-.78-.33-.78-.28-1.62-.56-2.49-.82-3.23-.99-7-1.86-10.99-2.68-1.47-.3-2.96-.6-4.47-.89-.98-.19-1.97-.38-2.96-.57-4.17-.8-8.36-1.6-12.23-2.48-4.59-1.04-8.54-2.27-12.54-3.34-4.41-1.18-8.89-2.16-14.35-2.47-.02,0-.04,0-.07,0-11.98-.67-30.16,4.68-46.94,12.4-14.59,6.71-28.13,15.21-35.62,23.11-5.78,6.09-10.83,13.52-14.95,20.56-4.02,6.88-7.15,13.38-9.15,17.87-1.08,2.42-1.84,4.25-2.24,5.25-.03.06-.05.11-.07.17h107.16Z"/>
    <path class="cls-11" d="M37.87,35.09s0-.02.01-.03c.38-1.26-.04-2.26-.8-2.91-1.15-1.88-4.69-2.12-5.57.66-3.5,11.06-7.2,22.07-11.55,32.83,2.57-6.82,4.39-13.94,5.62-21.35,2.44-14.76,3.08-29.76,5.3-44.54h-6.03c-4.13,28.68-3.07,58.65-20.75,83.2-1.3,1.81-2.66,3.57-4.05,5.3v9.18c2.51-2.86,4.96-5.78,7.27-8.81,3.96-5.19,7.21-10.67,9.87-16.38-1.36,3.13-2.77,6.25-4.28,9.32-3.82,7.8-8.2,15.26-12.87,22.54v10.84c1.18-1.75,2.36-3.5,3.51-5.26-1.19,3.04-2.36,6.08-3.51,9.13v17.57c5.45-15.8,11.74-31.35,17.97-46.92-2,9.21-3.57,18.54-4.88,27.87-2.13,15.17-3.7,30.41-5.72,45.59-1.04,7.83-2.22,15.65-3.66,23.43-.9,4.87-1.81,9.73-3.72,14.22v9.69c.82-.07,1.63-.46,2.23-1.3,7.69-10.89,8.43-26.62,10.24-39.41,2.15-15.16,3.72-30.4,5.72-45.58,2.51-19,5.85-38.09,11.8-56.31-2.38,38.44-2.73,76.98-1.05,115.47.17,3.85,6.17,3.87,6,0-1.96-44.76-1.17-89.6,2.37-134.27,0-.03,0-.05,0-.07,1.49-3.26,3.1-6.48,4.83-9.65,1.61-2.95-2.1-5.62-4.31-4.03Z"/>
    <path class="cls-20" d="M.04,141.03v41.19l141.34,3.36c4.12-13.02,8.1-23.15,9.57-25.22,1.93-2.74,10.2-6.18,17.3-8.74.27-3.74.93-7.3,1.78-10.59H.04Z"/>
    <polygon class="cls-21" points="28.87 -.24 36.75 41.22 41.53 66.34 49.35 63.32 38.89 -.24 28.87 -.24"/>
    <polygon class="cls-13" points="395.23 283.9 398.47 273.44 344.46 271.26 342.48 283.9 395.23 283.9"/>
    <path class="cls-14" d="M444.58,244.28l-65.6-7.82-16.21-1.93c-.78,1.28-2.67,3.15-7.11,3.24,0,0-12.77,6.66-16.66,6.8-2.9.1-12.04-3.49-20.54-4.36,1.44,5.02,1.19,9.8,1.19,9.8l-31.03,11.45v7.54l55.84,2.25,54.01,2.18,36.69,1.48c.06-1.65.33-3.09.74-4.34,2.89-8.77,13.12-8.49,13.12-8.49.52-2.07,7.88-9.29,15.8-15.39l-20.23-2.41Z"/>
    <path class="cls-10" d="M841.92,300.51c-11.29.34-24.73,3.24-38.29,11.95-21.13,13.58-25.49,30.1-25.73,40.75l64.02-41.57v-11.13Z"/>
    <path class="cls-2" d="M762.7,363.07c-.07-.05-.15-.09-.22-.14l.02.27.2-.13Z"/>
    <path class="cls-10" d="M762.48,362.93c-4.54-2.91-10.94-5.65-19.76-6.88-5.32-.74-11.53-.93-18.73-.27-3.14.29-6.36,1.04-9.62,2.18-30.78,10.79-65.6,56.74-74.96,83.6.6.14,1.19.28,1.77.42l46.95-30.48,41.38-26.87,33-21.43-.02-.27Z"/>
    <path class="cls-16" d="M724.36,342.96c-.12.11-.24.23-.36.34-4.29,3.87-8.51,7.04-12.49,9.64-14.38,9.38-25.6,11.23-25.6,11.23,0,0-16,1.29-20.16-7.32,0,0-1.36,16.35-20.73,12.27-2.95-.62-5.42-1.74-7.49-3.18-5.41.8-14.57,3.25-19.75,10.79-2.29,3.34-5.93,8.57-9.9,14.28-2.52,3.62-5.17,7.42-7.7,11.05,2.01.85,3.97,2.1,5.86,3.65,12.54,10.3,21.97,33.41,21.97,33.41l.03.24c4.09.63,7.9,1.4,11.35,2.2,9.36-26.86,44.18-72.82,74.96-83.6,3.26-1.14,6.48-1.9,9.62-2.18,7.21-.66,13.41-.47,18.73.27-4.52-4.46-10.76-9.56-18.35-13.09Z"/>
    <polygon class="cls-20" points="841.92 311.64 777.9 353.21 762.7 363.07 762.5 363.21 729.49 384.63 688.11 411.5 641.17 441.99 638.75 443.56 629.17 449.78 623.9 453.19 620.13 455.64 601.97 467.44 601.33 467.85 658.45 467.85 744.31 410.74 841.92 345.82 841.92 311.64"/>
    <path class="cls-13" d="M705.51-.24l-27.92,4.96-8.74,223.37c.52.16,1.05.33,1.57.52,2.52.88,4.91,1.61,7.17,2.26l8.09-2.11,7.77-209.53L785.19-.24h-79.68Z"/>
    <path class="cls-20" d="M841.92-.24h-56.73l-91.75,19.47-7.77,209.53,21.99-5.73,53.44,9.24,2.69,14.21-4.42,1.1,1.98,23.48-5.52,1.88.49,6.59,6.16,83.39c.07.05.15.09.22.14l15.2-9.87c.24-10.65,4.6-27.16,25.73-40.75,13.56-8.72,26.99-11.62,38.29-11.95V-.24Z"/>
    <path class="cls-13" d="M756.32,279.54l-.49-6.59-35.77,12.15c.09,3-.17,5.9-.79,8.5-.45,1.87-.46,3.68-.15,5.39,1.57,8.91,11.56,15.27,11.56,15.27,0,0,12.94,11.05-6.31,28.71,7.59,3.53,13.83,8.63,18.35,13.09,8.82,1.23,15.22,3.98,19.76,6.88l-6.16-83.39Z"/>
    <path class="cls-20" d="M763.79,246.49l-2.69-14.21-53.44-9.24-21.99,5.73-8.09,2.11c2.93.84,5.62,1.53,8.01,2.19,8.78,2.43,13.61,4.49,12.15,12.33-2.15,11.62-.86,9.68,9.47,14.2,3.54,1.55,6.4,4.67,8.51,8.57,2.68,4.93,4.16,11.11,4.33,16.93l35.77-12.15,5.52-1.88-1.98-23.48,4.42-1.1Z"/>
    <path class="cls-15" d="M730.67,314.25s-9.99-6.36-11.56-15.27c-.3-1.71-.3-3.52.15-5.39.62-2.59.88-5.5.79-8.5-.17-5.83-1.66-12-4.33-16.93-2.11-3.9-4.97-7.02-8.51-8.57-10.33-4.52-11.62-2.58-9.47-14.2,1.45-7.84-3.37-9.9-12.15-12.33-2.39-.66-5.08-1.35-8.01-2.19-2.25-.65-4.64-1.38-7.17-2.26-.53-.18-1.05-.36-1.57-.52-17.11-5.29-30.4,1.74-34.58,6.54-4.3,4.95-4.3,3.44-15.06,4.3-5.2.42-8.84,4.95-11.62,10.16-2.98,5.57-4.99,11.91-6.88,14.8-2.72,4.17-3.18,8.1-3.59,13.47-.14,1.84-.28,3.86-.5,6.11-.53,5.46,4.04,11.41,7.61,15.16.35-.39.68-.78,1-1.17,1.68-2.02,1.83-7.08,2.08-12.52.13-2.82.28-5.74.67-8.42.02-.12.03-.24.05-.36,1.24-7.88,4.73-13.34,4.73-13.34l3.8-1.73c.96,2.2,2.43,4.71,4.59,6.68,1.61,1.47,2.28,4.16,2.45,7.54.36,7.03-1.45,17.03-1.59,25.17-.13,7.18,4.93,12.06,9.05,14.84,2.8,1.89,5.16,2.81,5.16,2.81-4.95,3.44-9.25,21.8-9.25,21.8,0,0-.32,6.37,1.83,13.22,1.47,4.67,4.09,9.56,8.76,12.8,2.07,1.44,4.54,2.55,7.49,3.18,19.37,4.09,20.73-12.27,20.73-12.27,4.16,8.61,20.16,7.32,20.16,7.32,0,0,11.22-1.85,25.6-11.23,3.98-2.6,8.2-5.77,12.49-9.64.13-.12.24-.23.36-.34,19.25-17.66,6.31-28.71,6.31-28.71Z"/>
    <path class="cls-13" d="M66.41-.24c7.77,5.1,17.05,8.08,27.04,8.08S112.73,4.86,120.49-.24h-54.08Z"/>
  </g>
  <g>
    <path class="cls-1" d="M432.8,276.42l-36.69-1.48-3.24,10.46h-52.76s1.98-12.64,1.98-12.64l-55.84-2.25v63.15l150.88-39.29c-1.43-3.02-2.76-6.86-3.76-11.74-.48-2.35-.65-4.41-.58-6.21Z"/>
    <path class="cls-1" d="M32.83,49.12c-3.24,12.31-1.6,67.06-.6,93.41h9.16c-2.53-15.15-9.84-63.41-2.22-74.69l-4.78-25.12c-.46,2.04-.98,4.18-1.56,6.4Z"/>
    <polygon class="cls-1" points="227.3 340.93 226.79 349.16 236.64 346.59 236.06 341.04 227.3 340.93"/>
    <path class="cls-1" d="M215.33,352.14l.59-.15c-.2.03-.4.07-.6.1v.06Z"/>
    <path class="cls-2" d="M215.33,352.09c-5.3.87-11.74,1.61-17.78,1.48-11.41-.25-35.14-9.89-42.38-12.94-1.2,7.47-2.7,17.38-4.1,28.25l64.27-16.74v-.06Z"/>
    <path class="cls-2" d="M226.75,349.73l.04-.57-10.86,2.83c6.29-1.06,10.82-2.25,10.82-2.25Z"/>
    <path class="cls-1" d="M91.1,63.21s.05-.13.14-.36c-.03-.01-.06-.02-.09-.03-.02.13-.03.25-.06.4Z"/>
    <path class="cls-1" d="M37.94,373.89l.55,15.25,8.72,1.53c-5.28-8.79-9.27-16.77-9.27-16.77Z"/>
    <path class="cls-2" d="M79.09,376.35l15.44,3.18c1.61-2.85,4.52-8.16,5.33-10.65,1.13-3.5-12.08-8.58-18.88-7.45-2.43.41-4.33,1.84-5.76,3.5.41,1.29.82,2.6,1.23,3.95l2.64,7.47Z"/>
    <path class="cls-2" d="M65.88,413.15c-5.36-1.99-12.8-12.74-18.66-22.49l-8.72-1.53,1.03,28.59c2.46,2.77,5,6.45,7.47,11.4,5.84,11.67,8.99,20.38,10.69,26.18l38.76,2.48,20.39-9.04v-45.89l-27.97-4.9-2.23,5.29s-10.57,13.67-20.76,9.9Z"/>
    <path class="cls-2" d="M.04,459.98l59.59,4.05s-.23-2.89-1.94-8.72c-1.7-5.8-4.86-14.51-10.69-26.18-2.47-4.94-5.01-8.63-7.47-11.4-3.55-3.99-6.95-6.04-9.79-7.04-1.97-.7-3.71-1.83-5.13-3.27-1.95-1.99-3.28-4.57-3.72-7.42-1.39-8.98-4.22-23.05-9.75-38.56-2.51-7.04-6.54-11.64-11.1-14.62v113.17Z"/>
    <path class="cls-2" d="M114.05,96.4l8.86,6.38c.34.25.83.11.98-.28,1.2-3.11,1.86-6.87,2.17-10.74l-8.83-7.56-3.18,12.19Z"/>
    <path class="cls-2" d="M126.15,80.11c-.06-1.1-.13-2.16-.21-3.17-1.91,1.28-4.69.11-7.97-.58-2.9-.6-7.5-.04-10.4.44-.43,1.47-.91,2.99-1.38,4.49,6.91,1.76,15.91-.15,19.96-1.18Z"/>
    <path class="cls-2" d="M117.23,84.21l8.83,7.56c.32-3.95.28-8.02.09-11.66-4.05,1.03-13.05,2.94-19.96,1.18-.69,2.21-1.36,4.38-1.81,6.26l9.67,8.85,3.18-12.19Z"/>
    <path class="cls-2" d="M99.06,73.13c-.29.79-.46,1.28-.46,1.28,0,0,.17-.47.46-1.28Z"/>
    <path class="cls-2" d="M91.16,62.81s.06.02.09.03c.28-.69.95-2.3,1.83-4.08-2.67-13.99-1.94-21.89,4.35-22.94,7.18-1.2,8.22-.37,7.47-8.59-.35-3.88,5.61-8.21,11.21-5.79,2.21.96,4.39,2.8,6.27,4.86.06-4.09-.92-9.72-6.45-11.22-8.97-2.43-7.29,5.7-11.02,5.65-3.74-.05-8.9-5.37-17.71,0-8.82,5.37-11.99,10.04-11.99,10.04,0,0-18.5-10.46-16.81,4.11,1.68,14.57,12.14,14.76,18.12,10.65h2.99s-4.11,2.85.19,8.62c2.36,3.17,6.04,6.01,9.53,7.77.23-.47.47-.9.74-1.27,0,0,1.67-1.14,1.21,2.15Z"/>
    <path class="cls-2" d="M102.33,76.26c-.15.36-.24.58-.24.58,0,0,.09-.21.24-.58Z"/>
    <path class="cls-2" d="M116.11,21.44c-5.6-2.42-11.56,1.91-11.21,5.79.75,8.22-.3,7.4-7.47,8.59-6.29,1.05-7.02,8.95-4.35,22.94,1.46-2.94,3.5-6.32,5.27-6.66,1.9-.36.02,6.19-1.82,11.56-1.25,3.66-2.49,6.78-2.49,6.78,0,0,1.48-3.36,3.3-7.06,2.4-4.86,5.39-10.31,6.43-9.51.65.51.17,3.3-.71,6.66-1.19,4.53-3.12,10.11-4,12.58,1.14-3.13,4.15-11.14,6.04-13.7.51-.69.93-.97,1.22-.68.09.09.17.24.24.46.56,1.99-.44,6.11-1.63,9.87-.79,2.5-1.67,4.84-2.23,6.28-.14.36-.26.66-.36.9.1-.24.23-.55.38-.9.73-1.68,1.98-4.44,3.22-6.34,1.2-1.84,2.37-2.87,3-1.3.12.3.18.68.21,1.1.09,1.48-.36,3.65-1.03,6.1-.17.61-.35,1.24-.54,1.88,2.9-.48,7.5-1.04,10.4-.44,3.28.68,6.05,1.85,7.97.58.54-.36,1.02-.91,1.41-1.73.12-.25.23-.52.33-.81,1.68-4.76,6.24-18.61,4.94-24.59-.38-1.73-1.92-3.81-2.59-7.31-.77-3.98-1.52-7.28-2.92-10.33-1.62-3.54-3.43-4.44-4.75-5.88-1.88-2.06-4.05-3.91-6.27-4.86Z"/>
    <path class="cls-2" d="M41.4,142.54h1.53c1.11-6.05,3.54-16.43,7.59-20.65,5.88-6.12,4.65-16.9,6.12-24.49s16.9-14.45,24-18.12c1.32-.68,3.64-1.31,6.56-1.88-.08-4.56.15-9.12,1.01-12.59-.32-.41-.66-.75-1.03-1.01-8.62-6.07-48.01,4.05-48.01,4.05-7.61,11.28-.31,59.55,2.22,74.69Z"/>
    <path class="cls-2" d="M125.94,76.94c.08,1.01.15,2.07.21,3.17.19,3.64.23,7.71-.09,11.66-.31,3.87-.97,7.62-2.17,10.74-.15.39-.64.53-.98.28l-8.86-6.38-9.67-8.85c-.29,1.17-.49,2.23-.57,3.13-.06.7-.05,1.3.06,1.77,1.06,4.41-1.06,12.47-3.4,12.67,0,0-6.22-7.28-8.82-9.24-.01-.01-.03-.03-.04-.04-1.15-.85-2.89-.41-2.89-.41,0,0-1.36-8.98-1.52-18.04-2.92.57-5.25,1.2-6.56,1.88-7.1,3.67-22.53,10.53-24,18.12s-.24,18.37-6.12,24.49c-4.05,4.22-6.47,14.61-7.59,20.65h124.76c1.46-5.63,3.5-10.42,5.16-13.79-3.19-3.92-6.61-11.12-7.08-25.24-.81-24.34-31.76-26.9-38.41-28.3-.39.82-.87,1.37-1.41,1.73Z"/>
    <path class="cls-2" d="M87.2,77.39c.16,9.06,1.52,18.04,1.52,18.04,0,0,1.74-.45,2.89.41.01.01.03.03.04.04,2.6,1.96,8.82,9.24,8.82,9.24,2.33-.2,4.46-8.26,3.4-12.67-.11-.46-.12-1.07-.06-1.77.08-.89.28-1.95.57-3.13.46-1.88,1.12-4.05,1.81-6.26.47-1.5.95-3.03,1.38-4.49.19-.64.37-1.27.54-1.88.67-2.45,1.12-4.62,1.03-6.1-.02-.43-.09-.8-.21-1.1-.63-1.58-1.8-.54-3,1.3-1.23,1.9-2.49,4.65-3.22,6.34-.15.35-.28.66-.38.9-.15.37-.24.58-.24.58,0,0,.09-.22.24-.58.09-.24.22-.54.36-.9.56-1.44,1.44-3.78,2.23-6.28,1.19-3.76,2.19-7.89,1.63-9.87-.06-.22-.14-.37-.24-.46-.29-.29-.71,0-1.22.68-1.89,2.57-4.9,10.57-6.04,13.7-.28.8-.46,1.28-.46,1.28,0,0,.17-.48.46-1.28.88-2.47,2.8-8.05,4-12.58.89-3.36,1.37-6.15.71-6.66-1.04-.81-4.03,4.65-6.43,9.51-1.82,3.7-3.3,7.06-3.3,7.06,0,0,1.23-3.12,2.49-6.78,1.84-5.37,3.72-11.92,1.82-11.56-1.77.34-3.81,3.71-5.27,6.66-.88,1.77-1.55,3.38-1.83,4.08-.09.23-.14.36-.14.36.02-.14.04-.27.06-.4.46-3.3-1.21-2.15-1.21-2.15-.27.37-.51.81-.74,1.27-.4.83-.73,1.8-.99,2.87-.86,3.46-1.09,8.03-1.01,12.59Z"/>
    <path class="cls-2" d="M147.42,338.23l11.8-54.27s-14.45-2.06-25.66-2.06-9.14-9.14-9.14-9.14c0,0,3.54-1.18,2.95-27.43-.35-15.41,5.81-39.75,11.67-58.25L.04,183.78v33.69c4.77-2.8,11.09-4.71,18.65-2.81,10.23,2.57,18.12,10.82,20.91,18.88,2.05,5.92.23,12.56.23,12.56,0,0-4.15,26.73-9.82,30.83-5.66,4.1-7.55,5.83-7.55,11.76l-.3,2.62c1.83.35,3.63.73,5.35,1.12l.61-7.01,78.52,6.56s-.82,28.18-2.83,47.38l49.85.64c-.42-.18-.65-.28-.65-.28l-5.6-1.47Z"/>
    <polygon class="cls-1" points="230.59 288.68 227.3 340.93 236.06 341.04 230.59 288.68"/>
    <path class="cls-2" d="M267.45,276.89c4.65-.26,1.18-5.31,1.18-5.31.04-.72-.25-1.31-.78-1.8-3.2-2.94-15.49-2.33-22.81-4.1-8.55-2.06-13.27-7.67-12.98-8.55s10.03,1.18,15.34-1.47c5.31-2.65,2.36-8.55-2.95-7.96s-16.52-2.36-23.66-2.36-17.04,8.85-17.04,8.85l2.95,14.75s21.82,5.01,32.74,6.19c2.44.26,7.78.27,12.46.55.64.04,1.28.08,1.89.13,5.53.45,9.65,1.32,13.67,1.09Z"/>
    <path class="cls-2" d="M39.6,233.54c-2.84-7.98-10.86-16.36-20.91-18.88-7.56-1.9-13.88,0-18.65,2.81v61.4c13.7-.36,22.42,9.82,22.42,9.82,0-5.93,1.89-7.66,7.55-11.76,5.66-4.1,9.82-30.83,9.82-30.83,0,0,1.94-6.44-.23-12.56Z"/>
    <path class="cls-2" d="M.04,278.86v10.66c3.46-.13,6.92.05,10.35.59l11.69,1.85.08-.67.3-2.62s-8.72-10.18-22.42-9.82Z"/>
    <path class="cls-2" d="M28.13,285.4l-.61,7.01c2.73.62,5.27,1.27,7.41,1.96,10.25,3.3,17.68,6.3,31.55,44.49,1.88,5.17,3.87,10.98,6.01,17.53,13.29.78,25.37,1.21,27.44.35,1.62-.67,2.9-7.95,3.89-17.4,2.02-19.2,2.83-47.38,2.83-47.38l-78.52-6.56Z"/>
    <path class="cls-2" d="M94.53,379.53l-15.44-3.18-2.64-7.47c-.42-1.34-.83-2.65-1.23-3.95-.94-2.97-1.85-5.82-2.73-8.53-2.14-6.55-4.13-12.36-6.01-17.53-13.87-38.18-21.31-41.19-31.55-44.49-2.14-.69-4.68-1.34-7.41-1.96-1.72-.39-3.52-.76-5.35-1.12l-.08.67-11.69-1.85c-3.43-.54-6.89-.72-10.35-.59v57.28c4.55,2.98,8.58,7.58,11.1,14.62,5.54,15.5,8.36,29.57,9.75,38.56.44,2.86,1.77,5.43,3.72,7.42,1.41,1.44,3.15,2.58,5.13,3.27,2.84,1,6.24,3.06,9.79,7.04l-1.03-28.59-.55-15.25s3.99,7.98,9.27,16.77c5.86,9.75,13.3,20.5,18.66,22.49,10.19,3.78,20.76-9.9,20.76-9.9l2.23-5.29,7.59-18.03-1.93-.4Z"/>
    <path class="cls-2" d="M245.57,162.95c4.39,2.39,8.64,5.54,10.96,9.53,2.04,3.49,2.81,10.13,2.93,17.46l26.79.64,4.25.1,3.91-48.15h-43.68c-1.06,7.69-2.92,13.78-4.53,17.85-.34.87-.54,1.72-.64,2.56Z"/>
    <path class="cls-1" d="M170.42,149.77c-.49.66-.88,1.4-1.22,2.19.51-.17,1-.34,1.47-.5-.17-1.08-.25-1.7-.25-1.7Z"/>
    <path class="cls-2" d="M235.56,179.03c-.61,1.3-1.1,2.77-1.41,4.46.47-1.49.96-2.98,1.41-4.46Z"/>
    <path class="cls-2" d="M236,114.69c-1.38-4.15-4.22-12.59-5.42-15.35-1.69-3.91-6.78-11.8-6.78-11.8l-4.72-1.18-15.57,32.96-7.55,15.99.76,7.21c4.5,4.27,10.54,9.31,17.05,10.48,2.89.52,5.64.48,8.12.13,1.93-.27,3.71-.74,5.28-1.27.27-.22.46-.33.46-.33.92-1.05,1.88-3.33,2.81-6.25.28-.87.56-1.8.83-2.76,2.96-10.4,5.5-25.5,5.5-25.5,0,0-.3-.92-.78-2.35Z"/>
    <path class="cls-2" d="M235.56,179.03c1.63-5.35,2.68-10.48.14-14.8-2.42-4.12-5.79-3.55-8.06-5.32-1.13-.88-1.77-1.72-2.1-2.49-.91-2.18.78-3.87,1.64-4.55-1.57.53-3.34,1-5.28,1.27-.02.9-.03,1.82-.05,2.76-.11,7.49-.06,15.73.48,20.71.34,3.16.98,7.67,1.71,12.49,1.8,11.85,4.19,25.55,4.19,25.55,0,0-3.8-12-9.3-25.67-3.74-9.3-8.27-19.37-12.93-26.97,3.24,7.43,1.52,13.46-1.7,18.18l6.03,5.31s-.58,1.37-.58,3.27c0,1.7.47,3.81,2.26,5.74,3.79,4.1,21.54,33.32,18.26,49.16,0,0,7.76-32.5,4.15-50.25-.29-1.44-.47-2.8-.56-4.08-.15-2.17-.03-4.11.29-5.84h0s0,0,0,0c.31-1.68.81-3.16,1.41-4.46Z"/>
    <polygon class="cls-2" points="234.15 183.5 234.15 183.49 234.15 183.49 234.15 183.5"/>
    <path class="cls-2" d="M224.04,189.1c-.73-4.82-1.37-9.34-1.71-12.49-.54-4.98-.58-13.23-.48-20.71.01-.93.03-1.85.05-2.76-2.49.35-5.23.39-8.12-.13-6.51-1.17-12.55-6.22-17.05-10.48l.83,7.83c.81.81,1.54,1.6,2.24,2.38,2.94,3.3,4.95,6.39,6.2,9.26,4.66,7.61,9.19,17.68,12.93,26.97,5.5,13.68,9.3,25.67,9.3,25.67,0,0-2.38-13.71-4.19-25.55Z"/>
    <path class="cls-2" d="M245.57,162.95c.1-.84.3-1.69.64-2.56,1.6-4.07,3.46-10.16,4.53-17.85,1.48-10.69,1.41-24.47-3.05-40.25-7.67-27.13-21.53-25.36-21.53-25.36,0,0-23-28.31-45.12,15.04,0,0-5.9,24.48-5.31,31.56,0,0-1.26,1.93-2.89,5.22-1.66,3.36-3.7,8.16-5.16,13.79-.85,3.28-1.51,6.85-1.78,10.59-.55,7.65.5,16.01,4.82,24.08,0,0-5.21-16.38-1.51-25.24.33-.8.73-1.54,1.22-2.19,0,0,.08.61.25,1.7.89,5.64,4.2,24.17,10.87,36.62,3.42,6.4,7.73,11.2,13.06,11.82,0,0-3.17-5.38,2.04-11.46.51-.6,1.11-1.21,1.79-1.81,2.03-1.79,4.15-3.94,5.86-6.45,3.22-4.72,4.94-10.75,1.7-18.18-1.25-2.87-3.26-5.96-6.2-9.26-.7-.78-1.43-1.58-2.24-2.38l-.83-7.83-.76-7.21,7.55-15.99,15.57-32.96,4.72,1.18s5.09,7.88,6.78,11.8c1.19,2.76,4.04,11.2,5.42,15.35.48,1.43.78,2.35.78,2.35,0,0-2.54,15.1-5.5,25.5-.27.96-.55,1.89-.83,2.76-.94,2.92-1.9,5.2-2.81,6.25,0,0-.19.12-.46.33-.86.68-2.54,2.37-1.64,4.55.32.78.97,1.61,2.1,2.49,2.27,1.77,5.64,1.2,8.06,5.32,2.54,4.32,1.49,9.45-.14,14.8-.45,1.47-.94,2.96-1.41,4.46,0,0,0,0,0,0,0,0,3.5,3.62,7.44,6.03,3.48,2.13,7.32,3.31,9.43.22.31-.45.58-.99.81-1.63,3.22-9.14-7.25-16.56-6.25-25.17Z"/>
    <path class="cls-2" d="M301.64,230.68s.57-.57,1.53-1.46l-16.91-2.01v11.09c6.07-2.93,12.09-5.96,15.37-7.62Z"/>
    <path class="cls-2" d="M362.04,228.88c-1.8-1.11-13.32,1.11-13.32,1.11,4.72-3.47-.28-6.11-9.44-5.97s-9.44-6.11-18.04-5.27c-6.66.64-14.75,7.44-18.07,10.48-.97.89-1.53,1.46-1.53,1.46h0c1.08,7.22,3.92,12.08,3.92,12.08l2.36-.69c2.47-.6,5.3-.62,8.19-.33,8.49.86,17.64,4.46,20.54,4.36,3.89-.14,16.66-6.8,16.66-6.8,4.45-.09,6.34-1.96,7.11-3.24.41-.68.52-1.2.52-1.2,3.75-1.53,2.91-4.86,1.11-5.97Z"/>
    <path class="cls-2" d="M267.85,269.78c.54.49.83,1.08.78,1.8,0,0,3.47,5.05-1.18,5.31-4.02.23-8.14-.64-13.67-1.09-.61-.05-1.24-.09-1.89-.13l-.15.05c1.6,8.89,5.88,47.76,7.74,64.92l26.77-6.97v-70.69l-18.42,6.8Z"/>
    <path class="cls-2" d="M259.47,189.95c.25,14.96-2.22,32.83-2.22,32.83,0,0,1.8,2.64,1.94,9.29.32,15.28,2.6,10.47,4.42,11.4.85.43,1.44,1.16,1.86,2,.05.1.13.19.24.26.38.27,1.16.41,2.64.22,2.19-.27,10.09-3.87,17.91-7.64v-47.72l-26.79-.64Z"/>
    <path class="cls-2" d="M316.11,241.74c-2.9-.29-5.72-.27-8.19.33l-2.36.69s-2.83-4.86-3.92-12.08h0c-3.28,1.66-9.3,4.7-15.37,7.62-7.82,3.77-15.72,7.37-17.91,7.64-1.48.18-2.26.05-2.64-.22-.11-.08-.19-.17-.24-.26-.43-.85-1.02-1.57-1.86-2-1.82-.93-4.1,3.88-4.42-11.4-.14-6.65-1.94-9.29-1.94-9.29,0,0,2.47-17.86,2.22-32.83-.12-7.33-.89-13.97-2.93-17.46-2.33-3.99-6.57-7.15-10.96-9.53-1.01,8.61,9.47,16.03,6.25,25.17-.23.64-.5,1.18-.81,1.63-2.1,3.08-5.94,1.9-9.43-.22-3.95-2.41-7.44-6.02-7.44-6.03-.32,1.73-.44,3.67-.29,5.84.09,1.28.27,2.64.56,4.08,3.61,17.75-4.15,50.25-4.15,50.25,3.28-15.84-14.47-45.06-18.26-49.16-1.79-1.94-2.26-4.05-2.26-5.74,0-1.89.58-3.27.58-3.27l-6.03-5.31c-1.71,2.51-3.84,4.66-5.86,6.45-.69.61-1.28,1.21-1.79,1.81-5.21,6.08-2.04,11.46-2.04,11.46-5.33-.62-9.64-5.42-13.06-11.82-6.67-12.45-9.98-30.98-10.87-36.62-.47.16-.96.32-1.47.5-3.7,8.85,1.51,25.24,1.51,25.24-4.31-8.06-5.37-16.42-4.82-24.08-7.11,2.56-15.37,6-17.3,8.74-1.46,2.07-5.44,12.2-9.57,25.22-5.86,18.5-12.02,42.84-11.67,58.25.59,26.25-2.95,27.43-2.95,27.43,0,0-2.06,9.14,9.14,9.14s25.66,2.06,25.66,2.06l-11.8,54.27,5.6,1.47s.23.1.65.28c.36.16.87.37,1.5.64,7.24,3.05,30.97,12.69,42.38,12.94,6.04.13,12.48-.61,17.78-1.48.2-.03.4-.07.6-.1l10.86-2.83.52-8.23,3.28-52.25,5.47,52.36.58,5.55,20.28-5.28,2.57-.67c-1.86-17.17-6.15-56.03-7.74-64.92l.15-.05c-4.68-.28-10.02-.28-12.46-.55-10.91-1.18-32.74-6.19-32.74-6.19l-2.95-14.75s9.9-8.85,17.04-8.85,18.35,2.95,23.66,2.36,8.26,5.31,2.95,7.96c-5.31,2.65-15.04.59-15.34,1.47s4.42,6.49,12.98,8.55c7.32,1.77,19.61,1.16,22.81,4.1l18.42-6.8,31.03-11.45s.26-4.77-1.19-9.8Z"/>
    <path class="cls-2" d="M452.15,229.89c2.84-6.87-6.38-11.22-6.38-11.22,0,0-38.99-5.3-48.91-4.01-6.7.87-15.33,14.52-20.23,23.32l65.6,7.82c4.18-5.99,8.56-12.6,9.92-15.9Z"/>
    <path class="cls-2" d="M428.59,467.85c.42-1.01.98-2.33,1.69-3.91-4.75.32-11.78-.11-17.43-4.22-9.47-6.89-15.28-10.11-20.66-6.67-1.12.72-2.18,1.2-3.14,1.48l-9.77,12.3c-1.51-6.03,4.73-18.08,4.73-18.08,0,0-10.33,8.61-10.97,1.29-.65-7.32,10.54-17.22,10.54-17.22,0,0,5.02-1.8,11.9-2.89,5.87-9.52,13.56-20.5,18.87-22.5l-9.44,21.69c3.05-.02,6.18.22,9.22.87,8.71,1.87,18.79,10.03,25.29,16.07,4.12-7.04,9.17-14.47,14.95-20.56,7.5-7.9,21.04-16.4,35.62-23.11l-5.26.85c-5.86-15.63-8.61-10.25-23.26-10.9-5.96-.26-10.17-6.73-13.07-14.31l-227.95,77.4-8.46,2.87-65.06-25.75,3.88,35.28h277.76Z"/>
    <path class="cls-1" d="M626.42,354.65c-.45.26-.73.37-.75.27-.22-.86-9.25-3.44-16.78-6.24-5.26-1.96-7.26-14.84-7.98-22.42l-43.83,14.88c-1.75,3.32-2.97,6.08-3.83,8.4l42.91-2.82-1.08,37.62c4.61,1.01,8.1,4.71,10.46,8.18,3.97-5.7,7.6-10.94,9.9-14.28,5.19-7.54,14.34-9.99,19.75-10.79-4.67-3.24-7.29-8.13-8.76-12.8Z"/>
    <path class="cls-2" d="M594.26,284.99c.22-2.25.36-4.27.5-6.11.41-5.38.87-9.31,3.59-13.47,1.89-2.89,3.9-9.23,6.88-14.8l-54.19,14.11c5.6,7.57,8.14,14.03,8.14,14.03,0,0,.48,1.05,1.24,2.8,2.12,4.9,6.44,15.32,8.66,23.89,3.01,11.62-.65,15.71-10.11,32.28-.69,1.21-1.31,2.35-1.89,3.44l43.83-14.88c-.31-3.27-.39-5.55-.39-5.55,0,0-7.12-3.87-9.49-6.03-2.22-2.02,5.6-8.58,10.84-14.54-3.57-3.75-8.14-9.7-7.61-15.16Z"/>
    <path class="cls-2" d="M442.75,353.58h-4.19c-3.63,0-6.14-3.64-4.84-7.03l3.16-8.24,5.16-36.54c-.27-.28-.54-.59-.81-.91-1.33-1.56-2.76-3.66-4.1-6.48l-150.88,39.29-26.77,6.97-2.57.67-20.28,5.28-9.85,2.57-.04.57s-4.53,1.2-10.82,2.25l-.59.15-64.27,16.74-10.64,2.77v20.7l6.26,3.26-3.13,35.62,3.38,1.34,65.06,25.75,8.46-2.87,227.95-77.4c-4.23-11.05-5.67-24.46-5.67-24.46Z"/>
    <path class="cls-2" d="M400.69,438.85l4.23-9.72,9.44-21.69c-5.31,2-13,12.98-18.87,22.5-4.85,7.86-8.46,14.72-8.46,14.72,5.38-3.66,13.66-5.81,13.66-5.81Z"/>
    <path class="cls-2" d="M384.01,448.75s-6.24,12.05-4.73,18.08l9.77-12.3c-3.64,1.05-5.89-1.01-5.04-5.78Z"/>
    <path class="cls-2" d="M404.92,429.13l-4.23,9.72s-8.28,2.15-13.66,5.81c0,0,3.61-6.87,8.46-14.72-6.89,1.09-11.9,2.89-11.9,2.89,0,0-11.19,9.9-10.54,17.22.65,7.32,10.97-1.29,10.97-1.29-.85,4.77,1.4,6.83,5.04,5.78.96-.28,2.01-.76,3.14-1.48,5.38-3.44,11.19-.22,20.66,6.67,5.65,4.11,12.68,4.54,17.43,4.22,2.01-4.49,5.13-10.99,9.15-17.87-6.5-6.04-16.58-14.21-25.29-16.07-3.04-.65-6.17-.89-9.22-.87Z"/>
    <path class="cls-2" d="M633.85,319.63s-2.36-.92-5.16-2.81c-4.11-2.78-9.17-7.67-9.05-14.84.15-8.14,1.96-18.14,1.59-25.17-.17-3.38-.85-6.08-2.45-7.54-2.16-1.97-3.62-4.48-4.59-6.68l-3.8,1.73s-3.5,5.46-4.73,13.34c-.02.12-.03.24-.05.36-.39,2.67-.55,5.59-.67,8.42-.24,5.45-.4,10.5-2.08,12.52-.32.39-.65.78-1,1.17-5.24,5.96-13.06,12.52-10.84,14.54,2.37,2.15,9.49,6.03,9.49,6.03,0,0,.08,2.29.39,5.55.72,7.58,2.72,20.47,7.98,22.42,7.53,2.8,16.57,5.38,16.78,6.24.02.1.3-.01.75-.27-2.15-6.85-1.83-13.22-1.83-13.22,0,0,4.3-18.35,9.25-21.8Z"/>
    <path class="cls-2" d="M601.3,467.85l16.48-10.7,3.77-2.45,5.26-3.42,9.58-6.22c.2-.65.42-1.31.65-1.99-3.45-.8-7.26-1.57-11.35-2.2-7.45-1.15-15.8-1.85-24.46-1.53-18.95.7-39.39,6.32-55.28,22.95-1.65,1.73-3.26,3.58-4.8,5.55h60.15Z"/>
    <path class="cls-2" d="M636.39,445.07l2.42-1.57c-.58-.14-1.17-.28-1.77-.42-.24.68-.45,1.34-.65,1.99Z"/>
    <path class="cls-2" d="M579.35,393.41c.55-7.02,2.31-18.72,7.83-26.61.86-1.23,2.79-.42,2.5,1.05l-4.2,21.9c2.32-1.35-.61-6.88,8.73-5.56.29.04.58.1.87.16l1.08-37.62-42.91,2.82c-2.69,7.28-1.84,10.31-2.9,13.34-.4,1.15-2.17,2.51-4.64,3.8l.07.43,6.35,25.23-.77.12c4,1.07,7.96,2.29,12.54,3.34,3.87.88,8.06,1.68,12.23,2.48,1.19-2.38,2.61-4.32,2.61-4.32,0,0,.22-.22.6-.56Z"/>
    <path class="cls-2" d="M545.79,367.12l-.07-.43c-2.09,1.09-4.68,2.14-7.39,2.99-6.06,1.9-12.68,2.81-15.51.96-5.59-3.66-7.96-2.8-19.58-2.15s-12.91-2.8-12.91-2.8l-.39-1.74-4.99-22.52c4.95-21.03-12.48-25.24-16.14-25.24s2.15,24.53,0,29.91c-2.15,5.38-8.18-15.71-8.18-25.61s-13.96-15.39-13.96-15.39c0,0-2.03-.64-4.61-3.33l-5.16,36.54-3.16,8.24c-1.3,3.39,1.2,7.03,4.84,7.03h4.19s1.44,13.41,5.67,24.46c2.9,7.58,7.11,14.04,13.07,14.31,14.65.65,17.4-4.72,23.26,10.9l5.26-.85c16.78-7.72,34.96-13.07,46.94-12.4.02,0,.04,0,.07,0,5.46.32,9.94,1.3,14.35,2.47l.77-.12-6.35-25.23Z"/>
    <path class="cls-2" d="M569.08,305.43c-2.22-8.56-6.54-18.99-8.66-23.89-.76-1.75-1.24-2.8-1.24-2.8,0,0-2.54-6.46-8.14-14.03-8.15-11.02-22.78-24.38-45.48-23.62l-12.22-.44s-6.03-3.87-15.49-1.51c-3.92.98-9.79,4.74-15.38,9.05-7.91,6.1-15.28,13.32-15.8,15.39,0,0-13.36-.37-13.86,12.83-.07,1.81.1,3.86.58,6.21,1,4.88,2.33,8.72,3.76,11.74,1.34,2.83,2.77,4.92,4.1,6.48.28.32.55.63.81.91,2.57,2.69,4.61,3.33,4.61,3.33,0,0,13.96,5.5,13.96,15.39s6.03,30.99,8.18,25.61c2.15-5.38-3.66-29.91,0-29.91s21.09,4.21,16.14,25.24l4.99,22.52.39,1.74s1.29,3.44,12.91,2.8,13.99-1.51,19.58,2.15c2.83,1.85,9.46.95,15.51-.96,2.71-.85,5.3-1.9,7.39-2.99,2.47-1.29,4.24-2.65,4.64-3.8,1.06-3.02.21-6.06,2.9-13.34.86-2.32,2.07-5.08,3.83-8.4.57-1.09,1.19-2.22,1.89-3.44,9.47-16.57,13.13-20.66,10.11-32.28Z"/>
    <path class="cls-2" d="M587.18,366.8c-5.52,7.89-7.27,19.59-7.83,26.61,1.06-.94,3.37-2.82,5.68-3.47.17-.05.32-.11.45-.19l4.2-21.9c.28-1.47-1.65-2.28-2.5-1.05Z"/>
    <path class="cls-2" d="M595.08,384.35c-.29-.06-.57-.12-.87-.16-9.34-1.32-6.41,4.21-8.73,5.56-.13.08-.28.14-.45.19-2.31.65-4.62,2.52-5.68,3.47-.38.34-.6.56-.6.56,0,0-1.41,1.95-2.61,4.32.99.19,1.97.38,2.96.57,1.51.29,3,.59,4.47.89,4,.82,7.76,1.69,10.99,2.68.87.27,1.71.54,2.49.82.26.1.52.22.78.33,2.53-3.63,5.18-7.43,7.7-11.05-2.35-3.47-5.84-7.16-10.46-8.18Z"/>
    <path class="cls-2" d="M541.15,467.85c1.55-1.97,3.15-3.82,4.8-5.55,15.89-16.63,36.34-22.25,55.28-22.95,8.66-.32,17.01.38,24.46,1.53l-.03-.24s-9.43-23.11-21.97-33.41c-1.89-1.55-3.85-2.81-5.86-3.65-.26-.11-.52-.23-.78-.33-.78-.28-1.62-.56-2.49-.82-3.23-.99-7-1.86-10.99-2.68-1.47-.3-2.96-.6-4.47-.89-.98-.19-1.97-.38-2.96-.57-4.17-.8-8.36-1.6-12.23-2.48-4.59-1.04-8.54-2.27-12.54-3.34-4.41-1.18-8.89-2.16-14.35-2.47-.02,0-.04,0-.07,0-11.98-.67-30.16,4.68-46.94,12.4-14.59,6.71-28.13,15.21-35.62,23.11-5.78,6.09-10.83,13.52-14.95,20.56-4.02,6.88-7.15,13.38-9.15,17.87-.71,1.58-1.27,2.9-1.69,3.91h112.56Z"/>
    <path class="cls-2" d="M20.52-.24c-.25,28.62-4.12,65.59-20.47,85.68v57.1h32.19c-1.01-26.36-2.64-81.11.6-93.41.58-2.22,1.1-4.36,1.56-6.4L26.23-.24h-5.71Z"/>
    <path class="cls-2" d="M.04,142.54v41.24l138.99,3.3c4.12-13.02,8.1-23.15,9.57-25.22,1.93-2.74,10.2-6.18,17.3-8.74.27-3.74.93-7.3,1.78-10.59H.04Z"/>
    <polygon class="cls-2" points="26.23 -.24 34.4 42.72 39.17 67.85 46.99 64.83 36.29 -.24 26.23 -.24"/>
    <polygon class="cls-2" points="392.88 285.41 396.12 274.95 342.11 272.77 340.12 285.4 392.88 285.41"/>
    <path class="cls-2" d="M442.22,245.79l-65.6-7.82-16.21-1.93c-.78,1.28-2.67,3.15-7.11,3.24,0,0-12.77,6.66-16.66,6.8-2.9.1-12.04-3.49-20.54-4.36,1.44,5.02,1.19,9.8,1.19,9.8l-31.03,11.45v7.54l55.84,2.25,54.01,2.18,36.69,1.48c.06-1.65.33-3.09.74-4.34,2.89-8.77,13.12-8.49,13.12-8.49.52-2.07,7.88-9.29,15.8-15.39l-20.23-2.41Z"/>
    <path class="cls-2" d="M841.92,301.98c-11.76-.01-26.13,2.66-40.64,11.99-21.13,13.58-25.49,30.1-25.73,40.75l66.37-43.1v-9.64Z"/>
    <path class="cls-2" d="M760.34,364.58c-.07-.05-.15-.09-.22-.14l.02.27.2-.13Z"/>
    <path class="cls-2" d="M760.12,364.44c-4.54-2.91-10.94-5.65-19.76-6.88-5.32-.74-11.53-.93-18.73-.27-3.14.29-6.36,1.04-9.62,2.18-30.78,10.79-65.6,56.74-74.96,83.6.6.14,1.19.28,1.77.42l46.95-30.48,41.38-26.87,33-21.43-.02-.27Z"/>
    <path class="cls-2" d="M722.01,344.47c-.12.11-.24.23-.36.34-4.29,3.87-8.51,7.04-12.49,9.64-14.38,9.38-25.6,11.23-25.6,11.23,0,0-16,1.29-20.16-7.32,0,0-1.36,16.35-20.73,12.27-2.95-.62-5.42-1.74-7.49-3.18-5.41.8-14.57,3.25-19.75,10.79-2.29,3.34-5.93,8.57-9.9,14.28-2.52,3.62-5.17,7.42-7.7,11.05,2.01.85,3.97,2.1,5.86,3.65,12.54,10.3,21.97,33.41,21.97,33.41l.03.24c4.09.63,7.9,1.4,11.35,2.2,9.36-26.86,44.18-72.82,74.96-83.6,3.26-1.14,6.48-1.9,9.62-2.18,7.21-.66,13.41-.47,18.73.27-4.52-4.46-10.76-9.56-18.35-13.09Z"/>
    <polygon class="cls-2" points="841.92 311.62 775.54 354.72 760.34 364.58 760.14 364.72 727.14 386.14 685.76 413.01 638.81 443.49 636.39 445.07 626.81 451.29 621.55 454.7 617.78 457.15 601.3 467.85 658.36 467.85 741.96 412.25 841.92 345.77 841.92 311.62"/>
    <path class="cls-2" d="M711.65-.24l-36.42,6.47-8.74,223.37c.52.16,1.05.33,1.57.52,2.52.88,4.91,1.61,7.17,2.26l8.09-2.11,7.77-209.53L789.95-.24h-78.3Z"/>
    <path class="cls-2" d="M841.92-.24h-51.97l-98.86,20.98-7.77,209.53,21.99-5.73,53.44,9.24,2.69,14.21-4.42,1.1,1.98,23.48-5.52,1.88.49,6.59,6.16,83.39c.07.05.15.09.22.14l15.2-9.87c.24-10.65,4.6-27.16,25.73-40.75,14.51-9.33,28.88-12,40.64-11.99V-.24Z"/>
    <path class="cls-2" d="M753.96,281.05l-.49-6.59-35.77,12.15c.09,3-.17,5.9-.79,8.5-.45,1.87-.46,3.68-.15,5.39,1.57,8.91,11.56,15.27,11.56,15.27,0,0,12.94,11.05-6.31,28.71,7.59,3.53,13.83,8.63,18.35,13.09,8.82,1.23,15.22,3.98,19.76,6.88l-6.16-83.39Z"/>
    <path class="cls-2" d="M761.44,248l-2.69-14.21-53.44-9.24-21.99,5.73-8.09,2.11c2.93.84,5.62,1.53,8.01,2.19,8.78,2.43,13.61,4.49,12.15,12.33-2.15,11.62-.86,9.68,9.47,14.2,3.54,1.55,6.4,4.67,8.51,8.57,2.68,4.93,4.16,11.11,4.33,16.93l35.77-12.15,5.52-1.88-1.98-23.48,4.42-1.1Z"/>
    <path class="cls-2" d="M728.32,315.76s-9.99-6.36-11.56-15.27c-.3-1.71-.3-3.52.15-5.39.62-2.59.88-5.5.79-8.5-.17-5.83-1.66-12-4.33-16.93-2.11-3.9-4.97-7.02-8.51-8.57-10.33-4.52-11.62-2.58-9.47-14.2,1.45-7.84-3.37-9.9-12.15-12.33-2.39-.66-5.08-1.35-8.01-2.19-2.25-.65-4.64-1.38-7.17-2.26-.53-.18-1.05-.36-1.57-.52-17.11-5.29-30.4,1.74-34.58,6.54-4.3,4.95-4.3,3.44-15.06,4.3-5.2.42-8.84,4.95-11.62,10.16-2.98,5.57-4.99,11.91-6.88,14.8-2.72,4.17-3.18,8.1-3.59,13.47-.14,1.84-.28,3.86-.5,6.11-.53,5.46,4.04,11.41,7.61,15.16.35-.39.68-.78,1-1.17,1.68-2.02,1.83-7.08,2.08-12.52.13-2.82.28-5.74.67-8.42.02-.12.03-.24.05-.36,1.24-7.88,4.73-13.34,4.73-13.34l3.8-1.73c.96,2.2,2.43,4.71,4.59,6.68,1.61,1.47,2.28,4.16,2.45,7.54.36,7.03-1.45,17.03-1.59,25.17-.13,7.18,4.93,12.06,9.05,14.84,2.8,1.89,5.16,2.81,5.16,2.81-4.95,3.44-9.25,21.8-9.25,21.8,0,0-.32,6.37,1.83,13.22,1.47,4.67,4.09,9.56,8.76,12.8,2.07,1.44,4.54,2.55,7.49,3.18,19.37,4.09,20.73-12.27,20.73-12.27,4.16,8.61,20.16,7.32,20.16,7.32,0,0,11.22-1.85,25.6-11.23,3.98-2.6,8.2-5.77,12.49-9.64.13-.12.24-.23.36-.34,19.25-17.66,6.31-28.71,6.31-28.71Z"/>
    <path class="cls-5" d="M61.88-.24c8.18,6.02,18.28,9.59,29.22,9.59S112.14,5.78,120.32-.24h-58.43Z"/>
  </g>
  <line class="cls-2" x1="758.75" y1="233.78" x2="693.83" y2="254.83"/>
  <line class="cls-2" x1="755.23" y1="249.45" x2="711.18" y2="266.27"/>
  <line class="cls-2" x1="596.25" y1="292.71" x2="568.16" y2="302.15"/>
  <polyline class="cls-2" points="437.14 328.35 215.93 400.19 140.43 371.65"/>
  <line class="cls-2" x1="591.03" y1="314.68" x2="567.38" y2="322.75"/>
  <polyline class="cls-2" points="146.69 395.61 215.93 417.73 433.73 346.55"/>
  <path class="cls-2" d="M209.1,417.73c.92,12.89,1.92,25.78,2.77,38.67.13,2.05-.1,3.85-.36,5.92"/>
  <path class="cls-2" d="M432.79,318.72s6.36,36.42,9.42,27.83c3.06-8.59,3.17-31.47-4.71-31.86-3.77-.19-4.71,4.03-4.71,4.03Z"/>
  <line class="cls-2" x1="444.02" y1="328.35" x2="471.3" y2="328.35"/>
  <path class="cls-2" d="M470.02,318.72s22.74,4.95,7.66,28.58c-1.26,1.97-2.83,4.03-4.59,6.28"/>
  <path class="cls-2" d="M474.1,335.91s7.73-.51,2.72,7.14"/>
  <path class="cls-2" d="M616.48,328.35s-2.3,3.59-7.14,5.32"/>
  <path class="cls-2" d="M633.85,319.63s6.62,5.05,6.11,10.15"/>
  <path class="cls-2" d="M203.75,254.18l.55-4.25-54.25,1.37s13.52-38.11,14.03-55.97"/>
  <path class="cls-2" d="M148.6,161.87s19.42-4.79,19.09,26.05"/>
  <path class="cls-2" d="M206.7,268.92l2.41,11.11s-24.14,10.16-49.89,3.93"/>
  <path class="cls-2" d="M267.85,269.78s3.91,4.92-12.16,2.99c-16.08-1.92-21.54-3.85-21.54-3.85"/>
  <path class="cls-2" d="M353.3,239.29s-10.46,2.06-18.63.96"/>
  <path class="cls-2" d="M360.93,234.85s1.51-2.2-9.72-.57-13.02.52-13.02.52"/>
  <path class="cls-2" d="M348.72,229.99s-13.42,1.77-19.04.13"/>
  <path class="cls-2" d="M457.66,254.18l-140.36-2.65c-9.07-1.45-11.74-8.77-11.74-8.77"/>
  <line class="cls-2" x1="435.69" y1="268.2" x2="300.14" y2="257.86"/>
  <line class="cls-2" x1="433.54" y1="272.08" x2="286.26" y2="262.98"/>
  <path class="cls-2" d="M445.77,218.67s-6.63-.91-12.38,26.07"/>
  <path class="cls-2" d="M36.16,370.4s-14.23-47.84-13.69-55.72"/>
  <line class="cls-2" x1="26.64" y1="253.07" x2="42.93" y2="245.33"/>
  <path class="cls-2" d="M39.17,242.46s6.61-4.45,3.89,14.01c-.68,4.64-4.74,2.24-6.04,3.62"/>
  <path class="cls-2" d="M39.09,250.33c2.68-.92-6.14-7.57-7.02,7.01-.95,15.64,4,6.4,4,6.4"/>
  <line class="cls-2" x1="79.09" y1="376.35" x2="82.98" y2="393.67"/>
  <polyline class="cls-2" points="116.84 402.86 93.88 429.12 47 429.12"/>
  <line class="cls-2" x1="93.88" y1="429.12" x2="96.46" y2="457.79"/>
  <path class="cls-2" d="M49.79,142.54s4.35-8.43,13.84-11.59,23.55-28.75,23.55-28.75l1.53-6.76s10.61,5.65,11.76,9.68,8.68,13.87,8.68,13.87c0,0-1.91,11.62-8.59,17.59"/>
  <path class="cls-2" d="M148.6,93.56s4.26,40.17,19.09,48.98"/>
  <path class="cls-2" d="M117.2,41.46s4.06,8.86,5.17,11.44c1.53,3.55-5.17,4.86-5.17,4.86"/>
  <path class="cls-2" d="M123.38,61.85s-4.56,2.35-7.21,2.75,3.88,3.29,6.2.92"/>
  <path class="cls-2" d="M227.63,138.22s-9.6.13-13.41,0,5.39,5.52,8.68,3.42c3.29-2.1,4.73-3.42,4.73-3.42Z"/>
  <path class="cls-2" d="M224.6,118.89s1.6,6.7,2.39,10.39c.51,2.39-8.43,1.31-8.43,1.31"/>
  <g>
    <polygon class="cls-7" points="762.38 176.01 716.21 176.44 716.21 39.35 762.38 33.66 762.38 176.01"/>
    <polygon class="cls-7" points="841.92 23.85 791.7 30.04 791.7 175.73 841.92 175.26 841.92 23.85"/>
    <polyline class="cls-7" points="716.21 226.43 716.21 198.99 762.38 199.42 762.38 341.77 758.41 341.28 758.41 341.28"/>
    <path class="cls-7" d="M791.7,321.28c.41-40.28.41-81.28,0-121.59,11.07.1,0,.04,0,0,15.41.31,29.41.31,44.68.42"/>
  </g>
  <g>
    <rect class="cls-13" x="242.74" y="10.74" width="18.54" height="84.83"/>
    <rect class="cls-20" x="275.52" y="34.93" width="18.54" height="60.64"/>
    <rect class="cls-16" x="308.29" y="58.51" width="18.54" height="37.06"/>
    <rect class="cls-6" x="241.52" y="10.74" width="18.54" height="84.83"/>
    <rect class="cls-6" x="274.29" y="34.93" width="18.54" height="60.64"/>
    <rect class="cls-6" x="307.07" y="58.51" width="18.54" height="37.06"/>
  </g>
  <g>
    <polyline class="cls-2" points="404.88 19.07 404.88 109.85 580.62 109.85"/>
    <polygon class="cls-21" points="404.88 11.71 400.67 19 409.09 19 404.88 11.71"/>
    <polygon class="cls-21" points="587.91 109.85 580.62 105.64 580.62 114.06 587.91 109.85"/>
    <path class="cls-2" d="M404.88,71.52s31.05-37.85,59.93-29.83,70.58,39.95,92.07,14.36,23.74-29.44,23.74-29.44"/>
    <path class="cls-4" d="M404.88,55.48s10.2,14.1,47.74,13.62,54.86-27.58,88.55-24.53,46.94,3.36,46.94,3.36"/>
  </g>
  <line class="cls-2" x1="500.42" y1="227.21" x2="610.79" y2="227.21"/>
  <polygon class="cls-13" points="518.61 137.51 503.34 221.3 533.88 221.3 518.61 137.51"/>
  <polygon class="cls-20" points="575.26 139.52 559.99 221.3 590.54 221.3 575.26 139.52"/>
  <polygon class="cls-6" points="520.56 137.25 505.29 221.04 535.83 221.04 520.56 137.25"/>
  <polygon class="cls-6" points="574.21 139.25 558.94 221.04 589.49 221.04 574.21 139.25"/>
  <g>
    <g>
      <path class="cls-16" d="M728.92,136.99c.9-3.99,1.43-8.13,1.55-12.37h-63.12l61.57,12.37Z"/>
      <path class="cls-16" d="M667.35,124.62h63.12c.02-.62.05-1.24.05-1.86,0-28.72-18.79-53-44.76-61.26l-20.45,62.71,2.04.41Z"/>
      <path class="cls-16" d="M728.92,136.99l-61.57-12.37-2.04-.41-.51-.1-51.75-37.45c-6.99,10.29-11.08,22.71-11.08,36.1,0,35.53,28.75,64.28,64.28,64.28,30.64,0,56.21-21.38,62.68-50.05Z"/>
      <path class="cls-16" d="M665.31,124.21l20.45-62.71c-6.16-1.96-12.71-3.02-19.52-3.02-22.14,0-41.64,11.16-53.2,28.17l51.75,37.45.51.1Z"/>
    </g>
    <g>
      <path class="cls-13" d="M728.98,137.39c.9-3.99,1.43-8.13,1.55-12.37h-63.12l61.57,12.37Z"/>
      <path class="cls-14" d="M667.41,125.02h63.12c.02-.62.05-1.24.05-1.86,0-28.72-18.79-53-44.76-61.26l-20.45,62.71,2.04.41Z"/>
      <path class="cls-16" d="M728.98,137.39l-61.57-12.37-2.04-.41-.51-.1-51.75-37.45c-6.99,10.29-11.08,22.71-11.08,36.1,0,35.53,28.75,64.28,64.28,64.28,30.64,0,56.21-21.38,62.68-50.05Z"/>
      <path class="cls-9" d="M665.37,124.61l20.45-62.71c-6.16-1.96-12.71-3.02-19.52-3.02-22.14,0-41.64,11.16-53.2,28.17l51.75,37.45.51.1Z"/>
    </g>
    <g>
      <path class="cls-6" d="M727.88,138.85c.9-3.99,1.43-8.13,1.55-12.37h-63.12l61.57,12.37Z"/>
      <path class="cls-6" d="M666.3,126.48h63.12c.02-.62.05-1.24.05-1.86,0-28.72-18.79-53-44.76-61.26l-20.45,62.71,2.04.41Z"/>
      <path class="cls-6" d="M727.88,138.85l-61.57-12.37-2.04-.41-.51-.1-51.75-37.45c-6.99,10.29-11.08,22.71-11.08,36.1,0,35.53,28.75,64.28,64.28,64.28,30.64,0,56.21-21.38,62.68-50.05Z"/>
      <path class="cls-6" d="M664.26,126.07l20.45-62.71c-6.16-1.96-12.71-3.02-19.52-3.02-22.14,0-41.64,11.16-53.2,28.17l51.75,37.45.51.1Z"/>
    </g>
  </g>
  <circle class="cls-21" cx="211.46" cy="116.51" r="1.54"/>
  <circle class="cls-21" cx="230.58" cy="116.51" r="1.54"/>
  <circle class="cls-21" cx="107.88" cy="47.62" r="1.54"/>
  <circle class="cls-21" cx="124.73" cy="41.22" r="1.54"/>
  <circle class="cls-21" cx="442.47" cy="328.35" r="1.54"/>
  <circle class="cls-21" cx="612.91" cy="294.37" r="1.54"/>
  <polygon class="cls-16" points="546.42 168.59 531.14 220.13 561.69 220.13 546.42 168.59"/>
  <polygon class="cls-6" points="547.88 169.49 532.6 221.04 563.15 221.04 547.88 169.49"/>
  <g>
    <path class="cls-17" d="M463.51,97.48h-112.56c-3.44,0-6.23,2.79-6.23,6.23v10.04h98.84c3.44,0,6.23,2.79,6.23,6.23v67.91h13.72c3.44,0,6.23-2.79,6.23-6.23v-77.95c0-3.44-2.79-6.23-6.23-6.23Z"/>
    <path class="cls-16" d="M443.56,113.76h-112.56c-3.44,0-6.23,2.79-6.23,6.23v77.95c0,3.44,2.79,6.23,6.23,6.23h112.56c3.44,0,6.23-2.79,6.23-6.23v-77.95c0-3.44-2.79-6.23-6.23-6.23Z"/>
  </g>
  <g>
    <path class="cls-7" d="M465.9,97.48h-112.56c-3.44,0-6.23,2.79-6.23,6.23v10.04h98.84c3.44,0,6.23,2.79,6.23,6.23v67.91h13.72c3.44,0,6.23-2.79,6.23-6.23v-77.95c0-3.44-2.79-6.23-6.23-6.23Z"/>
    <path class="cls-7" d="M445.96,113.76h-112.56c-3.44,0-6.23,2.79-6.23,6.23v77.95c0,3.44,2.79,6.23,6.23,6.23h112.56c3.44,0,6.23-2.79,6.23-6.23v-77.95c0-3.44-2.79-6.23-6.23-6.23Z"/>
  </g>
  <path class="cls-7" d="M333.6,158.96s10.83-18.01,18.76-17.75,6.87,40.95,21.67,35.93c14.8-5.02,33.03-45.71,39.1-41.75,6.08,3.96,27.21,39.1,34.88,35.14"/>
  <path class="cls-7" d="M336.5,172.44s17.7-26.49,47.82-37.31c30.12-10.83,58.92-8.18,58.92-8.18"/>
  <g>
    <path class="cls-7" d="M333.6,143.59s.11.34.31.95"/>
    <path class="cls-3" d="M334.57,146.41c2.52,6.87,9.63,23.87,18.04,23.34,10.53-.67,13.92-12.59,22.46-17.17,15.52-8.33,29.15-.25,35.63,5.01,2.71,2.2,6.42,2.69,9.64,1.33l23.71-10.05"/>
    <line class="cls-7" x1="444.96" y1="148.47" x2="445.89" y2="148.08"/>
  </g>
</svg>