<svg width="568" height="371" viewBox="0 0 568 371" fill="none" xmlns="http://www.w3.org/2000/svg">
<path d="M76.4265 78.5398C82.948 78.5398 86.9312 75.6094 86.9312 70.6276C86.9312 65.177 81.9913 63.5555 77.5785 62.8522C72.8144 62.2075 70.1394 61.0158 70.1394 58.2221C70.1394 56.0341 71.4671 53.8655 76.2703 53.8655C80.2535 53.8655 82.4013 55.741 82.4013 58.3784H85.8768C85.8768 53.9437 82.5575 50.8179 76.3094 50.8179C69.3974 50.8179 66.6834 54.2367 66.6834 58.2026C66.6834 63.5751 72.0724 65.0403 76.5046 65.7826C80.4683 66.3883 83.4361 67.5018 83.4361 70.6276C83.4361 73.9097 80.9369 75.5703 76.407 75.5703C72.0333 75.5703 69.456 73.0697 69.456 70.276H66C66 74.3005 69.2217 78.5398 76.4265 78.5398Z" fill="#1C1D20"/>
<path d="M104.377 77.9733H108.185L100.687 66.0366L107.17 58.0463H103.05L94.4977 68.6545V50.4662H91.1393V77.9733H94.4977V72.3664L98.227 68.2442L104.377 77.9733Z" fill="#1C1D20"/>
<path d="M109.093 84.7719H112.374C116.689 84.7719 118.212 83.0332 120.457 77.4263L128.306 58.0463L124.733 58.0658L119.129 72.1515L118.622 73.8902L118.153 72.1319L112.51 58.0463H108.937L116.845 77.3872L116.63 77.9537C115.595 80.6693 114.795 81.9391 112.393 81.9391H109.093V84.7719Z" fill="#1C1D20"/>
<path d="M131.382 77.9733H134.74V50.4271H131.382V77.9733Z" fill="#1C1D20"/>
<path d="M142.443 54.1586C143.888 54.1586 144.767 53.2013 144.767 52.0096C144.767 50.8374 143.888 49.8801 142.463 49.8801C141.057 49.8801 140.178 50.8374 140.178 52.0096C140.178 53.2013 141.057 54.1586 142.443 54.1586ZM140.784 77.9733H144.142V58.0463H140.784V77.9733Z" fill="#1C1D20"/>
<path d="M158.913 85.4752C165.884 85.4752 169.242 80.8451 169.242 75.2968V58.0463H166.021V62.3247C164.83 59.6873 161.998 57.4993 158.191 57.4993C152.646 57.4993 148.506 62.188 148.506 67.6386C148.506 73.1283 152.685 77.6021 158.289 77.6021C161.666 77.6021 164.615 75.961 166.021 72.9329V75.3945C166.021 79.1064 164.088 82.6034 158.913 82.6034C154.579 82.6034 152.919 80.4935 152.529 78.0905H149.346C149.561 81.7242 152.216 85.4752 158.913 85.4752ZM158.874 74.6326C154.969 74.6326 151.845 71.6045 151.845 67.6386C151.845 63.6337 154.969 60.6446 158.894 60.6446C162.799 60.6446 165.903 63.8486 165.903 67.6386C165.903 71.4677 162.779 74.6326 158.874 74.6326Z" fill="#1C1D20"/>
<path d="M175.286 77.9733H178.644V67.5018C178.644 63.4383 181.671 60.6251 184.99 60.6251C188.446 60.6251 190.555 62.6373 190.555 67.2283V77.9733H193.913V67.1697C193.913 60.8009 191.14 57.4797 185.849 57.4797C182.471 57.4797 179.777 59.2575 178.586 61.8363L178.644 59.7069V50.4662H175.286V77.9733Z" fill="#1C1D20"/>
<path d="M206.868 77.9733H210.539V75.121H207.532C205.755 75.121 203.959 74.4568 203.959 70.7449V60.9963H210.539V58.0463H203.959V52.1073L200.601 52.1268V58.0463H196.169V60.9963H200.601V70.5886C200.601 76.8011 203.842 77.9733 206.868 77.9733Z" fill="#1C1D20"/>
<path fill-rule="evenodd" clip-rule="evenodd" d="M216.627 53.174C216.627 45.8985 222.525 40.0004 229.8 40V46.147C225.92 46.1473 222.775 49.2929 222.775 53.1731C222.775 53.1735 222.775 53.1738 222.775 53.1742H216.627C216.627 53.1741 216.627 53.174 216.627 53.174Z" fill="#80B690"/>
<path fill-rule="evenodd" clip-rule="evenodd" d="M229.801 66.3481C222.525 66.3481 216.627 60.4501 216.627 53.1744L222.775 53.1744L222.775 53.1751C222.775 57.0553 225.921 60.2009 229.801 60.2012L229.801 66.3481Z" fill="#6BA5C8"/>
<path fill-rule="evenodd" clip-rule="evenodd" d="M242.975 53.1744C242.974 60.45 237.077 66.348 229.801 66.3481L229.801 60.2012L229.801 60.2012C233.682 60.2012 236.827 57.0555 236.827 53.1751C236.827 53.1749 236.827 53.1746 236.827 53.1744L242.975 53.1744Z" fill="#DF635C"/>
<path fill-rule="evenodd" clip-rule="evenodd" d="M242.975 53.174L242.975 53.1742L236.827 53.1742L236.827 53.1731C236.827 49.2927 233.682 46.147 229.801 46.147C229.801 46.147 229.801 46.147 229.801 46.147L229.801 40.0002L229.726 40.0002C229.751 40.0001 229.776 40 229.801 40C237.076 40 242.975 45.8982 242.975 53.174Z" fill="#F4C55C"/>
<path d="M67.896 162.6C67.896 162.328 68.016 162.192 68.256 162.192H79.704C79.912 162.192 80.016 162.312 80.016 162.552L79.992 164.376C79.992 164.68 79.856 164.832 79.584 164.832H71.856C71.584 164.832 71.448 164.944 71.448 165.168V169.632C71.448 169.872 71.56 169.992 71.784 169.992H77.4C77.624 169.992 77.736 170.104 77.736 170.328V172.248C77.736 172.344 77.712 172.416 77.664 172.464C77.616 172.512 77.528 172.536 77.4 172.536H71.76C71.552 172.536 71.448 172.64 71.448 172.848V179.544C71.448 179.704 71.4 179.824 71.304 179.904C71.224 179.968 71.096 180 70.92 180H68.352C68.176 180 68.056 179.968 67.992 179.904C67.928 179.84 67.896 179.728 67.896 179.568V162.6ZM85.5863 164.928C85.5863 165.12 85.5383 165.264 85.4423 165.36C85.3623 165.44 85.2183 165.48 85.0103 165.48H82.8263C82.6503 165.48 82.5303 165.44 82.4663 165.36C82.4023 165.28 82.3703 165.16 82.3703 165V162.648C82.3703 162.344 82.4983 162.192 82.7543 162.192H85.2263C85.3383 162.192 85.4263 162.232 85.4903 162.312C85.5543 162.376 85.5863 162.472 85.5863 162.6V164.928ZM85.5383 179.472C85.5383 179.664 85.4903 179.8 85.3943 179.88C85.3143 179.96 85.1703 180 84.9623 180H82.8743C82.6983 180 82.5783 179.968 82.5143 179.904C82.4503 179.84 82.4183 179.728 82.4183 179.568V167.688C82.4183 167.416 82.5383 167.28 82.7783 167.28H85.2023C85.4263 167.28 85.5383 167.408 85.5383 167.664V179.472ZM88.9909 180C88.7029 180 88.5589 179.856 88.5589 179.568V167.688C88.5589 167.416 88.6709 167.28 88.8949 167.28H91.2229C91.4469 167.28 91.5589 167.4 91.5589 167.64V169.104C91.5589 169.232 91.5989 169.296 91.6789 169.296C91.7269 169.296 91.7909 169.256 91.8709 169.176C92.3989 168.504 92.9829 167.984 93.6229 167.616C94.2629 167.232 94.8869 167.04 95.4949 167.04C96.0709 167.04 96.3589 167.168 96.3589 167.424V169.728C96.3589 169.952 96.2549 170.048 96.0469 170.016C95.5989 169.904 95.1029 169.848 94.5589 169.848C94.1429 169.848 93.7029 169.96 93.2389 170.184C92.7909 170.408 92.4149 170.704 92.1109 171.072C91.8229 171.424 91.6789 171.792 91.6789 172.176V179.52C91.6789 179.84 91.4949 180 91.1269 180H88.9909ZM106.202 170.424C105.882 169.992 105.466 169.648 104.954 169.392C104.442 169.136 103.85 169.008 103.178 169.008C102.474 169.008 101.89 169.152 101.426 169.44C100.978 169.728 100.754 170.104 100.754 170.568C100.754 170.84 100.866 171.088 101.09 171.312C101.314 171.52 101.722 171.704 102.314 171.864L105.17 172.632C106.37 172.936 107.25 173.4 107.81 174.024C108.37 174.648 108.65 175.392 108.65 176.256C108.65 177.072 108.41 177.784 107.93 178.392C107.466 178.984 106.81 179.44 105.962 179.76C105.13 180.08 104.178 180.24 103.106 180.24C101.778 180.24 100.618 180 99.6261 179.52C98.6341 179.024 97.9301 178.384 97.5141 177.6C97.4501 177.472 97.4181 177.384 97.4181 177.336C97.4181 177.24 97.4661 177.16 97.5621 177.096L98.9781 176.376C99.0901 176.312 99.1861 176.28 99.2661 176.28C99.3301 176.28 99.4021 176.32 99.4821 176.4C99.8661 176.944 100.33 177.376 100.874 177.696C101.434 178.016 102.154 178.176 103.034 178.176C103.85 178.176 104.514 178.04 105.026 177.768C105.554 177.48 105.818 177.088 105.818 176.592C105.818 176.256 105.674 175.976 105.386 175.752C105.114 175.512 104.634 175.304 103.946 175.128L101.498 174.552C100.282 174.264 99.3861 173.832 98.8101 173.256C98.2501 172.68 97.9701 171.944 97.9701 171.048C97.9701 170.264 98.1781 169.568 98.5941 168.96C99.0261 168.352 99.6341 167.88 100.418 167.544C101.218 167.208 102.146 167.04 103.202 167.04C104.338 167.04 105.346 167.256 106.226 167.688C107.106 168.104 107.754 168.64 108.17 169.296C108.25 169.424 108.29 169.528 108.29 169.608C108.29 169.688 108.25 169.752 108.17 169.8L106.682 170.544C106.586 170.576 106.53 170.592 106.514 170.592C106.386 170.592 106.282 170.536 106.202 170.424ZM115.668 169.464C115.508 169.464 115.428 169.552 115.428 169.728V176.136C115.428 176.744 115.548 177.176 115.788 177.432C116.044 177.672 116.452 177.792 117.012 177.792H118.428C118.524 177.792 118.604 177.824 118.668 177.888C118.732 177.952 118.764 178.032 118.764 178.128L118.74 179.376C118.74 179.648 118.588 179.808 118.284 179.856C117.708 179.952 116.828 180 115.644 180C114.556 180 113.724 179.752 113.148 179.256C112.588 178.744 112.308 177.976 112.308 176.952V169.776C112.308 169.568 112.212 169.464 112.02 169.464H110.412C110.156 169.464 110.028 169.344 110.028 169.104V167.592C110.028 167.384 110.148 167.28 110.388 167.28H112.164C112.308 167.28 112.38 167.2 112.38 167.04L112.692 163.344C112.708 163.2 112.74 163.104 112.788 163.056C112.836 162.992 112.916 162.96 113.028 162.96H115.164C115.26 162.96 115.34 163 115.404 163.08C115.468 163.144 115.5 163.24 115.5 163.368V167.04C115.5 167.184 115.572 167.256 115.716 167.256H118.428C118.668 167.256 118.788 167.368 118.788 167.592V169.104C118.788 169.344 118.652 169.464 118.38 169.464H115.668ZM121.452 180C121.292 180 121.18 179.968 121.116 179.904C121.052 179.84 121.02 179.728 121.02 179.568V167.688C121.02 167.416 121.132 167.28 121.356 167.28H123.756C123.964 167.28 124.068 167.4 124.068 167.64V168.888C124.068 168.984 124.092 169.04 124.14 169.056C124.188 169.072 124.252 169.048 124.332 168.984C125.084 168.328 125.78 167.84 126.42 167.52C127.076 167.2 127.78 167.04 128.532 167.04C129.716 167.04 130.644 167.384 131.316 168.072C132.004 168.744 132.348 169.64 132.348 170.76V179.496C132.348 179.832 132.18 180 131.844 180H129.636C129.476 180 129.364 179.968 129.3 179.904C129.252 179.84 129.228 179.728 129.228 179.568V171.312C129.228 170.688 129.052 170.208 128.7 169.872C128.364 169.52 127.868 169.344 127.212 169.344C126.652 169.344 126.14 169.472 125.676 169.728C125.228 169.984 124.716 170.4 124.14 170.976V179.52C124.14 179.696 124.1 179.824 124.02 179.904C123.94 179.968 123.796 180 123.588 180H121.452ZM142.351 178.68C141.231 179.72 139.919 180.24 138.415 180.24C137.199 180.24 136.231 179.92 135.511 179.28C134.807 178.624 134.455 177.776 134.455 176.736C134.455 175.408 135.047 174.352 136.231 173.568C137.415 172.784 139.071 172.352 141.199 172.272L142.399 172.2C142.655 172.168 142.783 172.048 142.783 171.84V171.288C142.783 170.584 142.567 170.04 142.135 169.656C141.719 169.256 141.143 169.056 140.407 169.056C139.191 169.056 138.255 169.584 137.599 170.64C137.551 170.704 137.503 170.76 137.455 170.808C137.423 170.84 137.375 170.856 137.311 170.856C137.231 170.856 137.167 170.848 137.119 170.832L135.103 170.328C134.975 170.296 134.911 170.224 134.911 170.112C134.911 170.032 134.943 169.928 135.007 169.8C135.423 168.904 136.103 168.224 137.047 167.76C138.007 167.28 139.175 167.04 140.551 167.04C142.343 167.04 143.655 167.392 144.487 168.096C145.335 168.8 145.759 169.792 145.759 171.072V179.52C145.759 179.696 145.727 179.824 145.663 179.904C145.615 179.968 145.511 180 145.351 180H143.311C143.167 180 143.063 179.952 142.999 179.856C142.935 179.76 142.887 179.616 142.855 179.424L142.831 178.704C142.815 178.56 142.759 178.488 142.663 178.488C142.615 178.488 142.511 178.552 142.351 178.68ZM142.783 174.192C142.783 174.048 142.751 173.944 142.687 173.88C142.639 173.816 142.551 173.784 142.423 173.784L141.439 173.856C140.319 173.936 139.383 174.192 138.631 174.624C137.895 175.04 137.527 175.616 137.527 176.352C137.527 176.896 137.719 177.328 138.103 177.648C138.503 177.968 139.031 178.128 139.687 178.128C140.519 178.128 141.247 177.872 141.871 177.36C142.479 176.88 142.783 176.392 142.783 175.896V174.192ZM149.038 180C148.878 180 148.766 179.968 148.702 179.904C148.638 179.84 148.606 179.728 148.606 179.568V167.688C148.606 167.416 148.718 167.28 148.942 167.28H151.318C151.542 167.28 151.654 167.4 151.654 167.64V168.888C151.654 168.984 151.678 169.04 151.726 169.056C151.774 169.072 151.838 169.048 151.918 168.984C152.638 168.328 153.318 167.84 153.958 167.52C154.598 167.184 155.278 167.016 155.998 167.016C156.862 167.016 157.59 167.224 158.182 167.64C158.774 168.04 159.182 168.568 159.406 169.224C159.438 169.272 159.478 169.296 159.526 169.296C159.59 169.296 159.662 169.256 159.742 169.176C161.166 167.752 162.582 167.04 163.99 167.04C165.126 167.04 166.022 167.376 166.678 168.048C167.334 168.72 167.662 169.648 167.662 170.832V179.496C167.662 179.832 167.494 180 167.158 180H164.95C164.806 180 164.702 179.968 164.638 179.904C164.574 179.84 164.542 179.728 164.542 179.568V171.312C164.542 170.688 164.382 170.208 164.062 169.872C163.742 169.52 163.278 169.344 162.67 169.344C162.174 169.344 161.694 169.48 161.23 169.752C160.766 170.008 160.35 170.32 159.982 170.688C159.79 170.896 159.694 171.128 159.694 171.384V179.496C159.694 179.832 159.526 180 159.19 180H156.982C156.71 180 156.574 179.856 156.574 179.568V171.312C156.574 170.688 156.414 170.208 156.094 169.872C155.79 169.52 155.326 169.344 154.702 169.344C154.174 169.344 153.678 169.472 153.214 169.728C152.766 169.984 152.27 170.4 151.726 170.976V179.52C151.726 179.696 151.686 179.824 151.606 179.904C151.526 179.968 151.382 180 151.174 180H149.038ZM173.135 174.624C173.135 175.28 173.287 175.872 173.591 176.4C173.895 176.912 174.311 177.32 174.839 177.624C175.383 177.912 175.975 178.056 176.615 178.056C177.271 178.056 177.863 177.92 178.391 177.648C178.935 177.36 179.447 176.92 179.927 176.328C180.007 176.248 180.071 176.208 180.119 176.208C180.167 176.208 180.239 176.232 180.335 176.28L181.799 176.928C181.911 176.976 181.967 177.048 181.967 177.144C181.967 177.192 181.935 177.264 181.871 177.36C181.151 178.4 180.351 179.144 179.471 179.592C178.607 180.024 177.535 180.24 176.255 180.24C175.039 180.24 173.943 179.968 172.967 179.424C172.007 178.88 171.255 178.12 170.711 177.144C170.167 176.168 169.895 175.056 169.895 173.808C169.895 172.464 170.175 171.28 170.735 170.256C171.295 169.232 172.055 168.44 173.015 167.88C173.975 167.32 175.039 167.04 176.207 167.04C177.407 167.04 178.463 167.304 179.375 167.832C180.303 168.36 181.015 169.128 181.511 170.136C182.023 171.128 182.279 172.312 182.279 173.688V173.784C182.279 173.944 182.255 174.056 182.207 174.12C182.159 174.184 182.055 174.224 181.895 174.24H173.399C173.223 174.24 173.135 174.368 173.135 174.624ZM178.823 172.464C178.983 172.464 179.087 172.448 179.135 172.416C179.199 172.368 179.231 172.272 179.231 172.128C179.231 171.616 179.119 171.12 178.895 170.64C178.671 170.16 178.335 169.768 177.887 169.464C177.455 169.16 176.935 169.008 176.327 169.008C175.383 169.008 174.615 169.344 174.023 170.016C173.447 170.672 173.167 171.488 173.183 172.464H178.823ZM189.959 162.6C189.959 162.328 190.079 162.192 190.319 162.192H193.175C193.399 162.192 193.511 162.32 193.511 162.576V177.072C193.511 177.184 193.527 177.264 193.559 177.312C193.607 177.344 193.679 177.36 193.775 177.36H201.647C201.903 177.36 202.031 177.472 202.031 177.696V179.64C202.031 179.736 201.999 179.824 201.935 179.904C201.871 179.968 201.766 180 201.622 180H190.415C190.239 180 190.119 179.968 190.055 179.904C189.991 179.824 189.959 179.712 189.959 179.568V162.6ZM210.098 180.24C208.866 180.24 207.77 179.968 206.81 179.424C205.85 178.864 205.106 178.088 204.578 177.096C204.05 176.104 203.786 174.976 203.786 173.712C203.786 172.416 204.058 171.264 204.602 170.256C205.146 169.232 205.898 168.44 206.858 167.88C207.818 167.32 208.906 167.04 210.122 167.04C211.354 167.04 212.45 167.328 213.41 167.904C214.37 168.464 215.114 169.248 215.642 170.256C216.17 171.264 216.434 172.408 216.434 173.688C216.434 174.952 216.162 176.08 215.618 177.072C215.09 178.064 214.346 178.84 213.386 179.4C212.426 179.96 211.33 180.24 210.098 180.24ZM210.122 178.104C211.146 178.104 211.922 177.72 212.45 176.952C212.994 176.184 213.266 175.08 213.266 173.64C213.266 172.184 212.994 171.064 212.45 170.28C211.906 169.496 211.13 169.104 210.122 169.104C209.114 169.104 208.33 169.496 207.77 170.28C207.226 171.064 206.954 172.184 206.954 173.64C206.954 175.08 207.226 176.184 207.77 176.952C208.33 177.72 209.114 178.104 210.122 178.104ZM219.233 180C219.073 180 218.961 179.968 218.897 179.904C218.833 179.84 218.801 179.728 218.801 179.568V167.688C218.801 167.416 218.913 167.28 219.137 167.28H221.537C221.745 167.28 221.849 167.4 221.849 167.64V168.888C221.849 168.984 221.873 169.04 221.921 169.056C221.969 169.072 222.033 169.048 222.113 168.984C222.865 168.328 223.561 167.84 224.201 167.52C224.857 167.2 225.561 167.04 226.313 167.04C227.497 167.04 228.425 167.384 229.097 168.072C229.785 168.744 230.129 169.64 230.129 170.76V179.496C230.129 179.832 229.961 180 229.625 180H227.417C227.257 180 227.145 179.968 227.081 179.904C227.033 179.84 227.009 179.728 227.009 179.568V171.312C227.009 170.688 226.833 170.208 226.481 169.872C226.145 169.52 225.649 169.344 224.993 169.344C224.433 169.344 223.921 169.472 223.457 169.728C223.009 169.984 222.497 170.4 221.921 170.976V179.52C221.921 179.696 221.881 179.824 221.801 179.904C221.721 179.968 221.577 180 221.369 180H219.233ZM245.388 166.848C245.708 166.848 245.868 167.008 245.868 167.328V168.672C245.868 169.072 245.692 169.248 245.34 169.2C245.212 169.184 245.036 169.176 244.812 169.176C244.572 169.176 244.356 169.2 244.164 169.248C243.748 169.344 243.588 169.528 243.684 169.8C243.78 170.056 243.852 170.272 243.9 170.448C243.948 170.608 243.972 170.816 243.972 171.072C243.972 171.808 243.756 172.472 243.324 173.064C242.908 173.656 242.276 174.128 241.428 174.48C240.596 174.816 239.58 174.984 238.38 174.984C237.388 174.984 236.668 175.064 236.22 175.224C235.788 175.384 235.572 175.6 235.572 175.872C235.572 176.096 235.7 176.256 235.956 176.352C236.228 176.448 236.676 176.512 237.3 176.544L240.612 176.736C242.132 176.816 243.26 177.16 243.996 177.768C244.748 178.36 245.124 179.16 245.124 180.168C245.124 181.4 244.548 182.376 243.396 183.096C242.26 183.832 240.636 184.2 238.524 184.2C236.3 184.2 234.62 183.928 233.484 183.384C232.364 182.856 231.804 182.064 231.804 181.008C231.804 180.48 231.996 180.024 232.38 179.64C232.78 179.24 233.348 178.888 234.084 178.584C234.18 178.552 234.228 178.512 234.228 178.464C234.228 178.416 234.18 178.368 234.084 178.32C233.22 177.936 232.788 177.392 232.788 176.688C232.788 176.272 232.988 175.888 233.388 175.536C233.788 175.184 234.316 174.88 234.972 174.624C235.084 174.56 235.14 174.512 235.14 174.48C235.14 174.432 235.092 174.384 234.996 174.336C233.508 173.632 232.764 172.552 232.764 171.096C232.764 169.864 233.268 168.888 234.276 168.168C235.3 167.448 236.748 167.088 238.62 167.088C240.236 167.088 241.484 167.448 242.364 168.168C242.476 168.248 242.58 168.288 242.676 168.288C242.788 168.288 242.892 168.24 242.988 168.144C243.276 167.792 243.652 167.488 244.116 167.232C244.596 166.976 245.02 166.848 245.388 166.848ZM238.356 173.352C239.268 173.352 239.956 173.152 240.42 172.752C240.884 172.352 241.116 171.808 241.116 171.12C241.116 170.384 240.884 169.808 240.42 169.392C239.956 168.96 239.268 168.744 238.356 168.744C237.492 168.744 236.812 168.96 236.316 169.392C235.836 169.824 235.596 170.4 235.596 171.12C235.596 171.792 235.836 172.336 236.316 172.752C236.812 173.152 237.492 173.352 238.356 173.352ZM236.46 178.992C235.98 178.96 235.516 179.104 235.068 179.424C234.636 179.744 234.42 180.136 234.42 180.6C234.42 181.256 234.764 181.752 235.452 182.088C236.156 182.424 237.26 182.592 238.764 182.592C239.932 182.592 240.82 182.424 241.428 182.088C242.036 181.768 242.34 181.296 242.34 180.672C242.34 179.744 241.652 179.248 240.276 179.184L236.46 178.992ZM251.054 179.472C251.054 179.68 251.014 179.824 250.934 179.904C250.854 179.968 250.71 180 250.502 180H248.39C248.214 180 248.086 179.968 248.006 179.904C247.942 179.84 247.91 179.728 247.91 179.568L247.982 162.6C247.982 162.328 248.102 162.192 248.342 162.192H250.718C250.942 162.192 251.054 162.32 251.054 162.576V179.472ZM261.226 178.68C260.106 179.72 258.794 180.24 257.29 180.24C256.074 180.24 255.106 179.92 254.386 179.28C253.682 178.624 253.33 177.776 253.33 176.736C253.33 175.408 253.922 174.352 255.106 173.568C256.29 172.784 257.946 172.352 260.074 172.272L261.274 172.2C261.53 172.168 261.658 172.048 261.658 171.84V171.288C261.658 170.584 261.442 170.04 261.01 169.656C260.594 169.256 260.018 169.056 259.282 169.056C258.066 169.056 257.13 169.584 256.474 170.64C256.426 170.704 256.378 170.76 256.33 170.808C256.298 170.84 256.25 170.856 256.186 170.856C256.106 170.856 256.042 170.848 255.994 170.832L253.978 170.328C253.85 170.296 253.786 170.224 253.786 170.112C253.786 170.032 253.818 169.928 253.882 169.8C254.298 168.904 254.978 168.224 255.922 167.76C256.882 167.28 258.05 167.04 259.426 167.04C261.218 167.04 262.53 167.392 263.362 168.096C264.21 168.8 264.634 169.792 264.634 171.072V179.52C264.634 179.696 264.602 179.824 264.538 179.904C264.49 179.968 264.386 180 264.226 180H262.186C262.042 180 261.938 179.952 261.874 179.856C261.81 179.76 261.762 179.616 261.73 179.424L261.706 178.704C261.69 178.56 261.634 178.488 261.538 178.488C261.49 178.488 261.386 178.552 261.226 178.68ZM261.658 174.192C261.658 174.048 261.626 173.944 261.562 173.88C261.514 173.816 261.426 173.784 261.298 173.784L260.314 173.856C259.194 173.936 258.258 174.192 257.506 174.624C256.77 175.04 256.402 175.616 256.402 176.352C256.402 176.896 256.594 177.328 256.978 177.648C257.378 177.968 257.906 178.128 258.562 178.128C259.394 178.128 260.122 177.872 260.746 177.36C261.354 176.88 261.658 176.392 261.658 175.896V174.192ZM275.257 170.424C274.937 169.992 274.521 169.648 274.009 169.392C273.497 169.136 272.905 169.008 272.233 169.008C271.529 169.008 270.945 169.152 270.481 169.44C270.033 169.728 269.809 170.104 269.809 170.568C269.809 170.84 269.921 171.088 270.145 171.312C270.369 171.52 270.777 171.704 271.369 171.864L274.225 172.632C275.425 172.936 276.305 173.4 276.865 174.024C277.425 174.648 277.705 175.392 277.705 176.256C277.705 177.072 277.465 177.784 276.985 178.392C276.521 178.984 275.865 179.44 275.017 179.76C274.185 180.08 273.233 180.24 272.161 180.24C270.833 180.24 269.673 180 268.681 179.52C267.689 179.024 266.985 178.384 266.569 177.6C266.505 177.472 266.473 177.384 266.473 177.336C266.473 177.24 266.521 177.16 266.617 177.096L268.033 176.376C268.145 176.312 268.241 176.28 268.321 176.28C268.385 176.28 268.457 176.32 268.537 176.4C268.921 176.944 269.385 177.376 269.929 177.696C270.489 178.016 271.209 178.176 272.089 178.176C272.905 178.176 273.569 178.04 274.081 177.768C274.609 177.48 274.873 177.088 274.873 176.592C274.873 176.256 274.729 175.976 274.441 175.752C274.169 175.512 273.689 175.304 273.001 175.128L270.553 174.552C269.337 174.264 268.441 173.832 267.865 173.256C267.305 172.68 267.025 171.944 267.025 171.048C267.025 170.264 267.233 169.568 267.649 168.96C268.081 168.352 268.689 167.88 269.473 167.544C270.273 167.208 271.201 167.04 272.257 167.04C273.393 167.04 274.401 167.256 275.281 167.688C276.161 168.104 276.809 168.64 277.225 169.296C277.305 169.424 277.345 169.528 277.345 169.608C277.345 169.688 277.305 169.752 277.225 169.8L275.737 170.544C275.641 170.576 275.585 170.592 275.569 170.592C275.441 170.592 275.337 170.536 275.257 170.424ZM284.723 169.464C284.563 169.464 284.483 169.552 284.483 169.728V176.136C284.483 176.744 284.603 177.176 284.843 177.432C285.099 177.672 285.507 177.792 286.067 177.792H287.483C287.579 177.792 287.659 177.824 287.723 177.888C287.787 177.952 287.819 178.032 287.819 178.128L287.795 179.376C287.795 179.648 287.643 179.808 287.339 179.856C286.763 179.952 285.883 180 284.699 180C283.611 180 282.779 179.752 282.203 179.256C281.643 178.744 281.363 177.976 281.363 176.952V169.776C281.363 169.568 281.267 169.464 281.075 169.464H279.467C279.211 169.464 279.083 169.344 279.083 169.104V167.592C279.083 167.384 279.203 167.28 279.443 167.28H281.219C281.363 167.28 281.435 167.2 281.435 167.04L281.747 163.344C281.763 163.2 281.795 163.104 281.843 163.056C281.891 162.992 281.971 162.96 282.083 162.96H284.219C284.315 162.96 284.395 163 284.459 163.08C284.523 163.144 284.555 163.24 284.555 163.368V167.04C284.555 167.184 284.627 167.256 284.771 167.256H287.483C287.723 167.256 287.843 167.368 287.843 167.592V169.104C287.843 169.344 287.707 169.464 287.435 169.464H284.723ZM290.507 180C290.347 180 290.235 179.968 290.171 179.904C290.107 179.84 290.075 179.728 290.075 179.568V167.688C290.075 167.416 290.187 167.28 290.411 167.28H292.811C293.019 167.28 293.123 167.4 293.123 167.64V168.888C293.123 168.984 293.147 169.04 293.195 169.056C293.243 169.072 293.307 169.048 293.387 168.984C294.139 168.328 294.835 167.84 295.475 167.52C296.131 167.2 296.835 167.04 297.587 167.04C298.771 167.04 299.699 167.384 300.371 168.072C301.059 168.744 301.403 169.64 301.403 170.76V179.496C301.403 179.832 301.235 180 300.898 180H298.691C298.531 180 298.419 179.968 298.355 179.904C298.307 179.84 298.283 179.728 298.283 179.568V171.312C298.283 170.688 298.107 170.208 297.755 169.872C297.419 169.52 296.923 169.344 296.267 169.344C295.707 169.344 295.195 169.472 294.73 169.728C294.283 169.984 293.771 170.4 293.195 170.976V179.52C293.195 179.696 293.155 179.824 293.075 179.904C292.995 179.968 292.851 180 292.643 180H290.507ZM311.406 178.68C310.286 179.72 308.974 180.24 307.47 180.24C306.254 180.24 305.286 179.92 304.566 179.28C303.862 178.624 303.51 177.776 303.51 176.736C303.51 175.408 304.102 174.352 305.286 173.568C306.47 172.784 308.126 172.352 310.254 172.272L311.454 172.2C311.71 172.168 311.838 172.048 311.838 171.84V171.288C311.838 170.584 311.622 170.04 311.19 169.656C310.774 169.256 310.198 169.056 309.462 169.056C308.246 169.056 307.31 169.584 306.654 170.64C306.606 170.704 306.558 170.76 306.51 170.808C306.478 170.84 306.43 170.856 306.366 170.856C306.286 170.856 306.222 170.848 306.174 170.832L304.158 170.328C304.03 170.296 303.966 170.224 303.966 170.112C303.966 170.032 303.998 169.928 304.062 169.8C304.478 168.904 305.158 168.224 306.102 167.76C307.062 167.28 308.23 167.04 309.606 167.04C311.398 167.04 312.71 167.392 313.542 168.096C314.39 168.8 314.814 169.792 314.814 171.072V179.52C314.814 179.696 314.782 179.824 314.718 179.904C314.67 179.968 314.566 180 314.406 180H312.366C312.222 180 312.118 179.952 312.054 179.856C311.99 179.76 311.942 179.616 311.91 179.424L311.886 178.704C311.87 178.56 311.814 178.488 311.718 178.488C311.67 178.488 311.566 178.552 311.406 178.68ZM311.838 174.192C311.838 174.048 311.806 173.944 311.742 173.88C311.694 173.816 311.606 173.784 311.478 173.784L310.494 173.856C309.374 173.936 308.438 174.192 307.686 174.624C306.95 175.04 306.582 175.616 306.582 176.352C306.582 176.896 306.774 177.328 307.158 177.648C307.558 177.968 308.086 178.128 308.742 178.128C309.574 178.128 310.302 177.872 310.926 177.36C311.534 176.88 311.838 176.392 311.838 175.896V174.192ZM318.092 180C317.932 180 317.82 179.968 317.756 179.904C317.692 179.84 317.66 179.728 317.66 179.568V167.688C317.66 167.416 317.772 167.28 317.996 167.28H320.372C320.596 167.28 320.708 167.4 320.708 167.64V168.888C320.708 168.984 320.732 169.04 320.78 169.056C320.828 169.072 320.892 169.048 320.972 168.984C321.692 168.328 322.372 167.84 323.012 167.52C323.652 167.184 324.332 167.016 325.052 167.016C325.916 167.016 326.644 167.224 327.236 167.64C327.828 168.04 328.236 168.568 328.46 169.224C328.492 169.272 328.532 169.296 328.58 169.296C328.644 169.296 328.716 169.256 328.796 169.176C330.22 167.752 331.636 167.04 333.044 167.04C334.18 167.04 335.076 167.376 335.732 168.048C336.388 168.72 336.716 169.648 336.716 170.832V179.496C336.716 179.832 336.548 180 336.212 180H334.004C333.86 180 333.756 179.968 333.692 179.904C333.628 179.84 333.596 179.728 333.596 179.568V171.312C333.596 170.688 333.436 170.208 333.116 169.872C332.796 169.52 332.332 169.344 331.724 169.344C331.228 169.344 330.748 169.48 330.284 169.752C329.82 170.008 329.404 170.32 329.036 170.688C328.844 170.896 328.748 171.128 328.748 171.384V179.496C328.748 179.832 328.58 180 328.244 180H326.036C325.764 180 325.628 179.856 325.628 179.568V171.312C325.628 170.688 325.468 170.208 325.148 169.872C324.844 169.52 324.38 169.344 323.756 169.344C323.228 169.344 322.732 169.472 322.268 169.728C321.82 169.984 321.324 170.4 320.78 170.976V179.52C320.78 179.696 320.74 179.824 320.66 179.904C320.58 179.968 320.436 180 320.228 180H318.092ZM342.19 174.624C342.19 175.28 342.342 175.872 342.646 176.4C342.95 176.912 343.366 177.32 343.894 177.624C344.438 177.912 345.03 178.056 345.67 178.056C346.326 178.056 346.918 177.92 347.446 177.648C347.99 177.36 348.502 176.92 348.982 176.328C349.062 176.248 349.126 176.208 349.174 176.208C349.222 176.208 349.294 176.232 349.39 176.28L350.854 176.928C350.966 176.976 351.022 177.048 351.022 177.144C351.022 177.192 350.99 177.264 350.926 177.36C350.206 178.4 349.406 179.144 348.526 179.592C347.662 180.024 346.59 180.24 345.31 180.24C344.094 180.24 342.998 179.968 342.022 179.424C341.062 178.88 340.31 178.12 339.766 177.144C339.222 176.168 338.95 175.056 338.95 173.808C338.95 172.464 339.23 171.28 339.79 170.256C340.35 169.232 341.11 168.44 342.07 167.88C343.03 167.32 344.094 167.04 345.262 167.04C346.462 167.04 347.518 167.304 348.43 167.832C349.358 168.36 350.07 169.128 350.566 170.136C351.078 171.128 351.334 172.312 351.334 173.688V173.784C351.334 173.944 351.31 174.056 351.262 174.12C351.214 174.184 351.11 174.224 350.95 174.24H342.454C342.278 174.24 342.19 174.368 342.19 174.624ZM347.878 172.464C348.038 172.464 348.142 172.448 348.19 172.416C348.254 172.368 348.286 172.272 348.286 172.128C348.286 171.616 348.174 171.12 347.95 170.64C347.726 170.16 347.39 169.768 346.942 169.464C346.51 169.16 345.99 169.008 345.382 169.008C344.438 169.008 343.67 169.344 343.078 170.016C342.502 170.672 342.222 171.488 342.238 172.464H347.878ZM363.765 162.192C363.877 162.192 363.949 162.224 363.981 162.288C364.013 162.336 364.005 162.392 363.957 162.456C363.125 164.104 362.469 165.848 361.989 167.688C361.509 169.512 361.269 171.344 361.269 173.184C361.269 174.944 361.477 176.664 361.893 178.344C362.325 180.024 362.973 181.792 363.837 183.648L363.885 183.768C363.885 183.816 363.861 183.856 363.813 183.888C363.765 183.936 363.709 183.96 363.645 183.96H362.061C361.917 183.96 361.797 183.888 361.701 183.744C360.613 181.872 359.797 180.12 359.253 178.488C358.709 176.856 358.437 175.08 358.437 173.16C358.437 171.24 358.733 169.368 359.325 167.544C359.917 165.704 360.733 164 361.773 162.432C361.933 162.272 362.101 162.192 362.277 162.192H363.765ZM370.574 169.464C370.414 169.464 370.334 169.552 370.334 169.728V176.136C370.334 176.744 370.454 177.176 370.694 177.432C370.95 177.672 371.358 177.792 371.918 177.792H373.334C373.43 177.792 373.51 177.824 373.574 177.888C373.638 177.952 373.67 178.032 373.67 178.128L373.646 179.376C373.646 179.648 373.494 179.808 373.19 179.856C372.614 179.952 371.734 180 370.55 180C369.462 180 368.63 179.752 368.054 179.256C367.494 178.744 367.214 177.976 367.214 176.952V169.776C367.214 169.568 367.118 169.464 366.926 169.464H365.318C365.062 169.464 364.934 169.344 364.934 169.104V167.592C364.934 167.384 365.054 167.28 365.294 167.28H367.07C367.214 167.28 367.286 167.2 367.286 167.04L367.598 163.344C367.614 163.2 367.646 163.104 367.694 163.056C367.742 162.992 367.822 162.96 367.934 162.96H370.07C370.166 162.96 370.246 163 370.31 163.08C370.374 163.144 370.406 163.24 370.406 163.368V167.04C370.406 167.184 370.478 167.256 370.622 167.256H373.334C373.574 167.256 373.694 167.368 373.694 167.592V169.104C373.694 169.344 373.558 169.464 373.286 169.464H370.574ZM376.382 180C376.078 180 375.926 179.856 375.926 179.568V162.6C375.926 162.328 376.046 162.192 376.286 162.192H378.662C378.87 162.192 378.974 162.312 378.974 162.552V168.792C378.974 168.888 378.998 168.944 379.046 168.96C379.094 168.976 379.158 168.952 379.238 168.888C380.038 168.216 380.75 167.744 381.374 167.472C382.014 167.184 382.702 167.04 383.438 167.04C384.67 167.04 385.614 167.376 386.27 168.048C386.926 168.704 387.254 169.624 387.254 170.808V179.496C387.254 179.832 387.086 180 386.75 180H384.542C384.382 180 384.27 179.968 384.206 179.904C384.158 179.84 384.134 179.728 384.134 179.568V171.312C384.134 170.688 383.966 170.208 383.63 169.872C383.294 169.52 382.798 169.344 382.142 169.344C381.582 169.344 381.07 169.472 380.606 169.728C380.142 169.984 379.622 170.4 379.046 170.976V179.52C379.046 179.696 379.006 179.824 378.926 179.904C378.846 179.968 378.71 180 378.518 180H376.382ZM392.721 174.624C392.721 175.28 392.873 175.872 393.177 176.4C393.481 176.912 393.897 177.32 394.425 177.624C394.969 177.912 395.561 178.056 396.201 178.056C396.857 178.056 397.449 177.92 397.977 177.648C398.521 177.36 399.033 176.92 399.513 176.328C399.593 176.248 399.657 176.208 399.705 176.208C399.753 176.208 399.825 176.232 399.921 176.28L401.385 176.928C401.497 176.976 401.553 177.048 401.553 177.144C401.553 177.192 401.521 177.264 401.457 177.36C400.737 178.4 399.937 179.144 399.057 179.592C398.193 180.024 397.121 180.24 395.841 180.24C394.625 180.24 393.529 179.968 392.553 179.424C391.593 178.88 390.841 178.12 390.297 177.144C389.753 176.168 389.481 175.056 389.481 173.808C389.481 172.464 389.761 171.28 390.321 170.256C390.881 169.232 391.641 168.44 392.601 167.88C393.561 167.32 394.625 167.04 395.793 167.04C396.993 167.04 398.049 167.304 398.961 167.832C399.889 168.36 400.601 169.128 401.097 170.136C401.609 171.128 401.865 172.312 401.865 173.688V173.784C401.865 173.944 401.841 174.056 401.793 174.12C401.745 174.184 401.641 174.224 401.481 174.24H392.985C392.809 174.24 392.721 174.368 392.721 174.624ZM398.409 172.464C398.569 172.464 398.673 172.448 398.721 172.416C398.785 172.368 398.817 172.272 398.817 172.128C398.817 171.616 398.705 171.12 398.481 170.64C398.257 170.16 397.921 169.768 397.473 169.464C397.041 169.16 396.521 169.008 395.913 169.008C394.969 169.008 394.201 169.344 393.609 170.016C393.033 170.672 392.753 171.488 392.769 172.464H398.409ZM405.153 183.96C404.609 183.96 404.233 183.936 404.025 183.888C403.817 183.84 403.713 183.728 403.713 183.552V182.016C403.713 181.776 403.945 181.656 404.409 181.656H405.993C406.505 181.656 406.945 181.44 407.313 181.008C407.681 180.576 407.865 180.12 407.865 179.64C407.865 179.48 407.841 179.328 407.793 179.184L403.185 167.808C403.169 167.776 403.161 167.72 403.161 167.64C403.161 167.544 403.193 167.464 403.257 167.4C403.337 167.32 403.433 167.28 403.545 167.28H406.041C406.153 167.28 406.249 167.312 406.329 167.376C406.425 167.44 406.489 167.528 406.521 167.64L409.497 175.536C409.545 175.68 409.609 175.752 409.689 175.752C409.769 175.752 409.841 175.664 409.905 175.488L412.857 167.616C412.969 167.392 413.121 167.28 413.313 167.28H415.065C415.193 167.28 415.281 167.336 415.329 167.448C415.393 167.544 415.401 167.648 415.353 167.76L410.313 180.384C409.913 181.36 409.481 182.104 409.017 182.616C408.569 183.128 408.041 183.48 407.433 183.672C406.841 183.864 406.081 183.96 405.153 183.96ZM416.378 180.624C416.266 180.624 416.186 180.592 416.138 180.528C416.09 180.48 416.082 180.408 416.114 180.312L422.114 162.504C422.194 162.296 422.338 162.192 422.546 162.192H423.962C424.202 162.192 424.322 162.28 424.322 162.456C424.322 162.52 424.298 162.616 424.25 162.744L418.394 180.192C418.298 180.48 418.106 180.624 417.818 180.624H416.378ZM430.668 169.464C430.508 169.464 430.428 169.552 430.428 169.728V176.136C430.428 176.744 430.548 177.176 430.788 177.432C431.044 177.672 431.452 177.792 432.012 177.792H433.428C433.524 177.792 433.604 177.824 433.668 177.888C433.732 177.952 433.764 178.032 433.764 178.128L433.74 179.376C433.74 179.648 433.588 179.808 433.284 179.856C432.708 179.952 431.828 180 430.644 180C429.556 180 428.724 179.752 428.148 179.256C427.588 178.744 427.308 177.976 427.308 176.952V169.776C427.308 169.568 427.212 169.464 427.02 169.464H425.412C425.156 169.464 425.028 169.344 425.028 169.104V167.592C425.028 167.384 425.148 167.28 425.388 167.28H427.164C427.308 167.28 427.38 167.2 427.38 167.04L427.692 163.344C427.708 163.2 427.74 163.104 427.788 163.056C427.836 162.992 427.916 162.96 428.028 162.96H430.164C430.26 162.96 430.34 163 430.404 163.08C430.468 163.144 430.5 163.24 430.5 163.368V167.04C430.5 167.184 430.572 167.256 430.716 167.256H433.428C433.668 167.256 433.788 167.368 433.788 167.592V169.104C433.788 169.344 433.652 169.464 433.38 169.464H430.668ZM436.476 180C436.172 180 436.02 179.856 436.02 179.568V162.6C436.02 162.328 436.14 162.192 436.38 162.192H438.756C438.964 162.192 439.068 162.312 439.068 162.552V168.792C439.068 168.888 439.092 168.944 439.14 168.96C439.188 168.976 439.252 168.952 439.332 168.888C440.132 168.216 440.844 167.744 441.468 167.472C442.108 167.184 442.796 167.04 443.532 167.04C444.764 167.04 445.708 167.376 446.364 168.048C447.02 168.704 447.348 169.624 447.348 170.808V179.496C447.348 179.832 447.18 180 446.844 180H444.636C444.476 180 444.364 179.968 444.3 179.904C444.252 179.84 444.228 179.728 444.228 179.568V171.312C444.228 170.688 444.06 170.208 443.724 169.872C443.388 169.52 442.892 169.344 442.236 169.344C441.676 169.344 441.164 169.472 440.7 169.728C440.236 169.984 439.716 170.4 439.14 170.976V179.52C439.14 179.696 439.1 179.824 439.02 179.904C438.94 179.968 438.804 180 438.612 180H436.476ZM452.815 174.624C452.815 175.28 452.967 175.872 453.271 176.4C453.575 176.912 453.991 177.32 454.519 177.624C455.063 177.912 455.655 178.056 456.295 178.056C456.951 178.056 457.543 177.92 458.071 177.648C458.615 177.36 459.127 176.92 459.607 176.328C459.687 176.248 459.751 176.208 459.799 176.208C459.847 176.208 459.919 176.232 460.015 176.28L461.479 176.928C461.591 176.976 461.647 177.048 461.647 177.144C461.647 177.192 461.615 177.264 461.551 177.36C460.831 178.4 460.031 179.144 459.151 179.592C458.287 180.024 457.215 180.24 455.935 180.24C454.719 180.24 453.623 179.968 452.647 179.424C451.687 178.88 450.935 178.12 450.391 177.144C449.847 176.168 449.575 175.056 449.575 173.808C449.575 172.464 449.855 171.28 450.415 170.256C450.975 169.232 451.735 168.44 452.695 167.88C453.655 167.32 454.719 167.04 455.887 167.04C457.087 167.04 458.143 167.304 459.055 167.832C459.983 168.36 460.695 169.128 461.191 170.136C461.703 171.128 461.959 172.312 461.959 173.688V173.784C461.959 173.944 461.935 174.056 461.887 174.12C461.839 174.184 461.735 174.224 461.575 174.24H453.079C452.903 174.24 452.815 174.368 452.815 174.624ZM458.503 172.464C458.663 172.464 458.767 172.448 458.815 172.416C458.879 172.368 458.911 172.272 458.911 172.128C458.911 171.616 458.799 171.12 458.575 170.64C458.351 170.16 458.015 169.768 457.567 169.464C457.135 169.16 456.615 169.008 456.007 169.008C455.063 169.008 454.295 169.344 453.703 170.016C453.127 170.672 452.847 171.488 452.863 172.464H458.503ZM464.671 180C464.511 180 464.399 179.968 464.335 179.904C464.271 179.84 464.239 179.728 464.239 179.568V167.688C464.239 167.416 464.351 167.28 464.575 167.28H466.951C467.175 167.28 467.287 167.4 467.287 167.64V168.888C467.287 168.984 467.311 169.04 467.359 169.056C467.407 169.072 467.471 169.048 467.551 168.984C468.271 168.328 468.951 167.84 469.591 167.52C470.231 167.184 470.911 167.016 471.631 167.016C472.495 167.016 473.223 167.224 473.815 167.64C474.407 168.04 474.815 168.568 475.039 169.224C475.071 169.272 475.111 169.296 475.159 169.296C475.223 169.296 475.295 169.256 475.375 169.176C476.799 167.752 478.215 167.04 479.623 167.04C480.759 167.04 481.655 167.376 482.311 168.048C482.967 168.72 483.295 169.648 483.295 170.832V179.496C483.295 179.832 483.127 180 482.791 180H480.583C480.439 180 480.335 179.968 480.271 179.904C480.207 179.84 480.175 179.728 480.175 179.568V171.312C480.175 170.688 480.015 170.208 479.695 169.872C479.375 169.52 478.911 169.344 478.303 169.344C477.807 169.344 477.327 169.48 476.863 169.752C476.399 170.008 475.983 170.32 475.615 170.688C475.423 170.896 475.327 171.128 475.327 171.384V179.496C475.327 179.832 475.159 180 474.823 180H472.615C472.343 180 472.207 179.856 472.207 179.568V171.312C472.207 170.688 472.047 170.208 471.727 169.872C471.423 169.52 470.959 169.344 470.335 169.344C469.807 169.344 469.311 169.472 468.847 169.728C468.399 169.984 467.903 170.4 467.359 170.976V179.52C467.359 179.696 467.319 179.824 467.239 179.904C467.159 179.968 467.015 180 466.807 180H464.671ZM486.8 162.192C486.976 162.192 487.144 162.272 487.304 162.432C488.344 164 489.16 165.704 489.752 167.544C490.344 169.368 490.64 171.24 490.64 173.16C490.64 175.08 490.368 176.856 489.824 178.488C489.28 180.12 488.464 181.872 487.376 183.744C487.28 183.888 487.16 183.96 487.016 183.96H485.432C485.32 183.96 485.248 183.928 485.216 183.864C485.184 183.8 485.192 183.728 485.24 183.648C486.104 181.792 486.744 180.024 487.16 178.344C487.592 176.664 487.808 174.944 487.808 173.184C487.808 171.344 487.568 169.512 487.088 167.688C486.608 165.848 485.952 164.104 485.12 162.456C485.104 162.424 485.096 162.384 485.096 162.336C485.096 162.24 485.168 162.192 485.312 162.192H486.8Z" fill="#1C1D20"/>
<path d="M73.5322 197.203V206.106C73.5205 206.47 73.4561 206.815 73.3389 207.144C73.2275 207.466 73.0664 207.75 72.8555 207.996C72.6387 208.242 72.3779 208.438 72.0732 208.585C71.7686 208.726 71.4229 208.796 71.0361 208.796C70.6611 208.796 70.3213 208.734 70.0166 208.611C69.7178 208.488 69.46 208.312 69.2432 208.084C69.0264 207.861 68.8535 207.598 68.7246 207.293C68.6016 206.988 68.5312 206.657 68.5137 206.3H66.8613C66.9141 206.892 67.0488 207.428 67.2656 207.908C67.4824 208.383 67.7725 208.787 68.1357 209.121C68.4932 209.461 68.915 209.722 69.4014 209.903C69.8936 210.085 70.4385 210.176 71.0361 210.176C71.6279 210.176 72.1729 210.076 72.6709 209.877C73.1748 209.672 73.6113 209.388 73.9805 209.024C74.3496 208.667 74.6396 208.239 74.8506 207.741C75.0674 207.243 75.1816 206.698 75.1934 206.106V197.203H73.5322ZM86.6631 204.34V202.881C86.6572 202.424 86.6162 201.961 86.54 201.492C86.4697 201.023 86.3584 200.572 86.2061 200.139C86.0479 199.705 85.8486 199.301 85.6084 198.926C85.374 198.545 85.0928 198.214 84.7646 197.933C84.4365 197.651 84.0586 197.432 83.6309 197.273C83.2031 197.109 82.7256 197.027 82.1982 197.027C81.6709 197.027 81.1934 197.109 80.7656 197.273C80.3438 197.432 79.9688 197.651 79.6406 197.933C79.3125 198.22 79.0283 198.554 78.7881 198.935C78.5537 199.31 78.3604 199.714 78.208 200.147C78.0498 200.581 77.9326 201.032 77.8564 201.501C77.7861 201.964 77.748 202.424 77.7422 202.881V204.34C77.748 204.797 77.7891 205.257 77.8652 205.72C77.9414 206.183 78.0586 206.631 78.2168 207.064C78.3691 207.498 78.5654 207.905 78.8057 208.286C79.0459 208.661 79.3301 208.989 79.6582 209.271C79.9863 209.552 80.3613 209.774 80.7832 209.938C81.2109 210.097 81.6885 210.176 82.2158 210.176C82.7432 210.176 83.2178 210.097 83.6396 209.938C84.0674 209.774 84.4453 209.552 84.7734 209.271C85.1016 208.989 85.3828 208.661 85.6172 208.286C85.8574 207.911 86.0537 207.507 86.2061 207.073C86.3584 206.64 86.4697 206.191 86.54 205.729C86.6162 205.26 86.6572 204.797 86.6631 204.34ZM85.0547 202.863V204.34C85.0488 204.645 85.0283 204.964 84.9932 205.298C84.9639 205.632 84.9082 205.96 84.8262 206.282C84.7383 206.61 84.624 206.924 84.4834 207.223C84.3486 207.516 84.1787 207.773 83.9736 207.996C83.7627 208.225 83.5107 208.406 83.2178 208.541C82.9307 208.676 82.5967 208.743 82.2158 208.743C81.835 208.743 81.501 208.676 81.2139 208.541C80.9268 208.406 80.6777 208.225 80.4668 207.996C80.2559 207.773 80.0801 207.513 79.9395 207.214C79.7988 206.915 79.6846 206.602 79.5967 206.273C79.5088 205.951 79.4443 205.623 79.4033 205.289C79.3682 204.955 79.3477 204.639 79.3418 204.34V202.863C79.3477 202.564 79.3682 202.251 79.4033 201.923C79.4443 201.589 79.5088 201.258 79.5967 200.93C79.6787 200.607 79.79 200.3 79.9307 200.007C80.0713 199.708 80.2471 199.444 80.458 199.216C80.6689 198.993 80.918 198.814 81.2051 198.68C81.4922 198.545 81.8232 198.478 82.1982 198.478C82.5791 198.478 82.9131 198.545 83.2002 198.68C83.4873 198.809 83.7363 198.984 83.9473 199.207C84.1582 199.436 84.334 199.699 84.4746 199.998C84.6152 200.291 84.7295 200.599 84.8174 200.921C84.8994 201.249 84.958 201.58 84.9932 201.914C85.0283 202.242 85.0488 202.559 85.0547 202.863ZM89.1328 210H93.2285C93.7734 209.994 94.3008 209.909 94.8105 209.745C95.3262 209.581 95.7803 209.344 96.1729 209.033C96.5654 208.729 96.8789 208.348 97.1133 207.891C97.3477 207.434 97.4619 206.906 97.4561 206.309C97.4561 205.928 97.3975 205.573 97.2803 205.245C97.1689 204.917 97.0107 204.621 96.8057 204.357C96.6123 204.117 96.3662 203.897 96.0674 203.698C95.7686 203.499 95.458 203.361 95.1357 203.285V203.259C95.4463 203.124 95.71 202.98 95.9268 202.828C96.1494 202.676 96.3516 202.488 96.5332 202.266C96.709 202.049 96.8467 201.803 96.9463 201.527C97.0518 201.252 97.1074 200.947 97.1133 200.613C97.1191 200.016 97.0049 199.503 96.7705 199.075C96.5361 198.647 96.2227 198.296 95.8301 198.021C95.4375 197.745 94.9893 197.543 94.4854 197.414C93.9814 197.279 93.4658 197.209 92.9385 197.203H89.1328V210ZM90.7676 204.015H93.3604C93.7061 204.026 94.0283 204.085 94.3271 204.19C94.626 204.296 94.8867 204.445 95.1094 204.639C95.332 204.838 95.5049 205.078 95.6279 205.359C95.7568 205.641 95.8184 205.963 95.8125 206.326C95.8125 206.684 95.7422 207.003 95.6016 207.284C95.4668 207.565 95.2822 207.803 95.0479 207.996C94.8135 208.189 94.5439 208.342 94.2393 208.453C93.9346 208.559 93.6123 208.614 93.2725 208.62H90.7676V204.015ZM90.7676 202.661V198.592H92.9912C93.3076 198.598 93.6152 198.639 93.9141 198.715C94.2188 198.791 94.4883 198.908 94.7227 199.066C94.9512 199.23 95.1328 199.438 95.2676 199.69C95.4082 199.942 95.4785 200.247 95.4785 200.604C95.4785 200.938 95.4082 201.231 95.2676 201.483C95.127 201.735 94.9424 201.946 94.7139 202.116C94.4854 202.292 94.2246 202.427 93.9316 202.521C93.6387 202.608 93.3398 202.655 93.0352 202.661H90.7676ZM119.402 198.592V197.203H109.91V198.592H113.865V210H115.447V198.592H119.402ZM121.582 197.203V198.618H124.579V208.594H121.582V210H129.316V208.594H126.249V198.618H129.316V197.203H121.582ZM141.023 198.592V197.203H131.531V198.592H135.486V210H137.068V198.592H141.023ZM145.04 208.62V197.203H143.414V210H151.298V208.62H145.04ZM161.054 204.085V202.705H155.71V198.592H161.862V197.203H154.084V210H161.941V208.62H155.71V204.085H161.054Z" fill="#1C1D20"/>
<path d="M67.5293 260H69.1553V253.18C69.2666 252.975 69.3955 252.787 69.542 252.617C69.6943 252.447 69.8584 252.298 70.0342 252.169C70.251 252.022 70.4883 251.908 70.7461 251.826C71.0039 251.738 71.2822 251.694 71.5811 251.694C71.9268 251.694 72.2314 251.735 72.4951 251.817C72.7646 251.899 72.9932 252.031 73.1807 252.213C73.3623 252.395 73.5 252.632 73.5938 252.925C73.6875 253.218 73.7344 253.575 73.7344 253.997V260H75.3604V253.962C75.3604 253.329 75.2812 252.784 75.123 252.327C74.9707 251.864 74.751 251.483 74.4639 251.185C74.1768 250.886 73.8281 250.666 73.418 250.525C73.0137 250.385 72.5625 250.314 72.0645 250.314C71.6953 250.32 71.3438 250.376 71.0098 250.481C70.6816 250.581 70.377 250.725 70.0957 250.912C69.9082 251.035 69.7295 251.182 69.5596 251.352C69.3955 251.516 69.2432 251.697 69.1025 251.896L68.9883 250.49H67.5293V260ZM84.5889 260H86.2852V259.859C86.1797 259.596 86.0977 259.288 86.0391 258.937C85.9805 258.579 85.9512 258.242 85.9512 257.926V253.505C85.9512 252.972 85.8545 252.506 85.6611 252.107C85.4678 251.709 85.2041 251.375 84.8701 251.105C84.5303 250.842 84.1289 250.646 83.666 250.517C83.2031 250.382 82.7021 250.314 82.1631 250.314C81.5713 250.314 81.041 250.396 80.5723 250.561C80.1094 250.725 79.7168 250.938 79.3945 251.202C79.0664 251.472 78.8145 251.773 78.6387 252.107C78.4688 252.441 78.3809 252.781 78.375 253.127H80.0098C80.0098 252.928 80.0566 252.737 80.1504 252.556C80.25 252.368 80.3877 252.207 80.5635 252.072C80.7393 251.938 80.9531 251.829 81.2051 251.747C81.4629 251.665 81.7529 251.624 82.0752 251.624C82.4209 251.624 82.7314 251.668 83.0068 251.756C83.2881 251.844 83.5254 251.967 83.7188 252.125C83.9121 252.289 84.0615 252.485 84.167 252.714C84.2725 252.942 84.3252 253.2 84.3252 253.487V254.234H82.5498C81.8877 254.234 81.2871 254.299 80.748 254.428C80.2148 254.557 79.7578 254.75 79.377 255.008C78.9961 255.271 78.7002 255.6 78.4893 255.992C78.2842 256.385 78.1816 256.842 78.1816 257.363C78.1816 257.762 78.2578 258.134 78.4102 258.479C78.5684 258.819 78.791 259.112 79.0781 259.358C79.3594 259.61 79.7021 259.81 80.1064 259.956C80.5166 260.103 80.9736 260.176 81.4775 260.176C81.7881 260.176 82.0811 260.144 82.3564 260.079C82.6318 260.015 82.8926 259.927 83.1387 259.815C83.3789 259.704 83.5986 259.575 83.7979 259.429C84.0029 259.282 84.1875 259.127 84.3516 258.963C84.3691 259.162 84.3955 259.355 84.4307 259.543C84.4717 259.725 84.5244 259.877 84.5889 260ZM81.7148 258.761C81.3984 258.761 81.1201 258.72 80.8799 258.638C80.6396 258.556 80.4404 258.441 80.2822 258.295C80.124 258.154 80.0039 257.984 79.9219 257.785C79.8457 257.586 79.8076 257.369 79.8076 257.135C79.8076 256.889 79.8516 256.669 79.9395 256.476C80.0332 256.282 80.168 256.115 80.3438 255.975C80.5898 255.775 80.9209 255.629 81.3369 255.535C81.7588 255.436 82.251 255.386 82.8135 255.386H84.3252V257.311C84.2314 257.498 84.1025 257.68 83.9385 257.855C83.7744 258.025 83.5811 258.178 83.3584 258.312C83.1299 258.447 82.8779 258.556 82.6025 258.638C82.3271 258.72 82.0312 258.761 81.7148 258.761ZM89.8975 250.49H88.4385V260H89.9854V252.433C90.0205 252.339 90.0645 252.251 90.1172 252.169C90.1758 252.087 90.2432 252.014 90.3193 251.949C90.4189 251.867 90.5391 251.806 90.6797 251.765C90.8262 251.718 90.9961 251.694 91.1895 251.694C91.3652 251.694 91.5176 251.718 91.6465 251.765C91.7812 251.806 91.8926 251.873 91.9805 251.967C92.0742 252.066 92.1416 252.192 92.1826 252.345C92.2295 252.497 92.2529 252.673 92.2529 252.872V260H93.7998V252.881C93.7998 252.846 93.7998 252.816 93.7998 252.793C93.7998 252.764 93.7998 252.734 93.7998 252.705C93.8174 252.559 93.8525 252.427 93.9053 252.31C93.958 252.187 94.0312 252.078 94.125 251.984C94.2188 251.896 94.3359 251.826 94.4766 251.773C94.6172 251.721 94.7842 251.694 94.9775 251.694C95.1592 251.694 95.3174 251.718 95.4521 251.765C95.5928 251.812 95.71 251.882 95.8037 251.976C95.8916 252.075 95.959 252.201 96.0059 252.354C96.0527 252.506 96.0762 252.682 96.0762 252.881V260H97.623V252.898C97.623 252.441 97.5703 252.046 97.4648 251.712C97.3594 251.372 97.207 251.097 97.0078 250.886C96.8262 250.698 96.6035 250.558 96.3398 250.464C96.0762 250.364 95.7803 250.314 95.4521 250.314C95.2119 250.32 94.9893 250.353 94.7842 250.411C94.585 250.47 94.4033 250.549 94.2393 250.648C94.1104 250.736 93.9902 250.839 93.8789 250.956C93.7676 251.073 93.6709 251.199 93.5889 251.334C93.5244 251.188 93.4453 251.056 93.3516 250.938C93.2637 250.821 93.1641 250.722 93.0527 250.64C92.9004 250.534 92.7217 250.455 92.5166 250.402C92.3174 250.344 92.0918 250.314 91.8398 250.314C91.3945 250.32 91.0137 250.417 90.6973 250.604C90.3867 250.792 90.1348 251.053 89.9414 251.387L89.8975 250.49ZM104.162 260.176C105.088 260.176 105.864 259.991 106.491 259.622C107.124 259.247 107.599 258.819 107.915 258.339L106.922 257.565C106.623 257.952 106.248 258.263 105.797 258.497C105.346 258.731 104.83 258.849 104.25 258.849C103.811 258.849 103.409 258.767 103.046 258.603C102.683 258.438 102.372 258.213 102.114 257.926C101.862 257.656 101.663 257.346 101.517 256.994C101.376 256.643 101.285 256.235 101.244 255.772V255.711H108.038V254.981C108.038 254.319 107.953 253.704 107.783 253.136C107.619 252.567 107.367 252.072 107.027 251.65C106.688 251.234 106.26 250.909 105.744 250.675C105.234 250.435 104.637 250.314 103.951 250.314C103.406 250.314 102.873 250.426 102.352 250.648C101.836 250.871 101.376 251.19 100.972 251.606C100.562 252.028 100.233 252.544 99.9873 253.153C99.7412 253.757 99.6182 254.442 99.6182 255.21V255.579C99.6182 256.241 99.7295 256.854 99.9521 257.416C100.175 257.979 100.485 258.465 100.884 258.875C101.282 259.285 101.76 259.604 102.316 259.833C102.879 260.062 103.494 260.176 104.162 260.176ZM103.951 251.65C104.367 251.65 104.725 251.727 105.023 251.879C105.328 252.031 105.58 252.23 105.779 252.477C105.979 252.723 106.134 253.016 106.245 253.355C106.356 253.689 106.412 254.003 106.412 254.296V254.375H101.297C101.361 253.936 101.473 253.549 101.631 253.215C101.795 252.875 101.994 252.588 102.229 252.354C102.463 252.125 102.727 251.952 103.02 251.835C103.312 251.712 103.623 251.65 103.951 251.65ZM119.429 253.065C119.452 252.181 119.37 251.378 119.183 250.657C118.995 249.931 118.714 249.31 118.339 248.794C117.958 248.278 117.489 247.883 116.933 247.607C116.376 247.326 115.74 247.186 115.025 247.186C114.293 247.186 113.622 247.353 113.013 247.687C112.409 248.021 111.885 248.48 111.439 249.066C110.971 249.682 110.596 250.411 110.314 251.255C110.039 252.099 109.884 252.989 109.849 253.927C109.819 254.823 109.89 255.649 110.06 256.405C110.235 257.155 110.52 257.803 110.912 258.348C111.299 258.893 111.8 259.317 112.415 259.622C113.036 259.921 113.777 260.07 114.639 260.07C114.826 260.07 115.025 260.056 115.236 260.026C115.447 260.003 115.655 259.962 115.86 259.903C116.065 259.851 116.262 259.783 116.449 259.701C116.637 259.619 116.804 259.522 116.95 259.411L116.669 258.383C116.54 258.471 116.396 258.55 116.238 258.62C116.08 258.69 115.913 258.749 115.737 258.796C115.562 258.849 115.383 258.89 115.201 258.919C115.02 258.942 114.841 258.954 114.665 258.954C114.009 258.954 113.438 258.843 112.951 258.62C112.471 258.392 112.075 258.061 111.765 257.627C111.454 257.199 111.229 256.675 111.088 256.054C110.947 255.433 110.892 254.724 110.921 253.927C110.944 253.077 111.064 252.298 111.281 251.589C111.498 250.874 111.803 250.265 112.195 249.761C112.564 249.292 112.98 248.932 113.443 248.68C113.912 248.422 114.431 248.293 114.999 248.293C115.562 248.293 116.062 248.401 116.502 248.618C116.941 248.835 117.313 249.148 117.618 249.559C117.917 249.969 118.14 250.47 118.286 251.062C118.433 251.653 118.494 252.321 118.471 253.065C118.465 253.493 118.433 253.897 118.374 254.278C118.315 254.659 118.23 254.99 118.119 255.271C118.008 255.559 117.867 255.787 117.697 255.957C117.533 256.121 117.343 256.203 117.126 256.203C117.032 256.203 116.944 256.188 116.862 256.159C116.78 256.13 116.713 256.071 116.66 255.983C116.602 255.901 116.558 255.787 116.528 255.641C116.499 255.488 116.493 255.292 116.511 255.052L116.897 250.622C116.745 250.411 116.54 250.229 116.282 250.077C116.024 249.919 115.699 249.84 115.307 249.84C114.891 249.84 114.51 249.939 114.164 250.139C113.818 250.332 113.517 250.61 113.259 250.974C112.995 251.343 112.781 251.791 112.617 252.318C112.453 252.84 112.345 253.426 112.292 254.076C112.257 254.533 112.263 254.952 112.31 255.333C112.362 255.714 112.456 256.042 112.591 256.317C112.72 256.593 112.89 256.807 113.101 256.959C113.312 257.111 113.561 257.188 113.848 257.188C114.047 257.188 114.237 257.158 114.419 257.1C114.601 257.041 114.771 256.959 114.929 256.854C115.058 256.76 115.178 256.651 115.289 256.528C115.406 256.405 115.512 256.271 115.605 256.124C115.646 256.265 115.699 256.394 115.764 256.511C115.828 256.622 115.904 256.722 115.992 256.81C116.115 256.933 116.262 257.026 116.432 257.091C116.602 257.155 116.792 257.188 117.003 257.188C117.437 257.188 117.803 257.062 118.102 256.81C118.4 256.558 118.646 256.232 118.84 255.834C119.027 255.436 119.168 254.993 119.262 254.507C119.355 254.015 119.411 253.534 119.429 253.065ZM113.373 254.076C113.42 253.596 113.49 253.162 113.584 252.775C113.684 252.383 113.812 252.049 113.971 251.773C114.129 251.504 114.322 251.296 114.551 251.149C114.785 250.997 115.058 250.921 115.368 250.921C115.456 250.921 115.541 250.93 115.623 250.947C115.711 250.965 115.796 250.994 115.878 251.035L115.544 254.858L115.535 254.946C115.471 255.087 115.4 255.213 115.324 255.324C115.248 255.43 115.169 255.523 115.087 255.605C114.952 255.734 114.803 255.828 114.639 255.887C114.48 255.945 114.313 255.975 114.138 255.975C113.997 255.975 113.874 255.934 113.769 255.852C113.669 255.764 113.587 255.638 113.522 255.474C113.458 255.315 113.414 255.119 113.391 254.885C113.367 254.645 113.361 254.375 113.373 254.076ZM127.901 257.478C127.901 257.63 127.872 257.773 127.813 257.908C127.755 258.043 127.67 258.166 127.559 258.277C127.377 258.459 127.125 258.603 126.803 258.708C126.48 258.808 126.103 258.857 125.669 258.857C125.394 258.857 125.115 258.828 124.834 258.77C124.553 258.711 124.298 258.611 124.069 258.471C123.835 258.33 123.639 258.146 123.48 257.917C123.328 257.688 123.24 257.407 123.217 257.073H121.591C121.591 257.478 121.682 257.867 121.863 258.242C122.051 258.617 122.32 258.945 122.672 259.227C123.018 259.514 123.442 259.745 123.946 259.921C124.45 260.091 125.024 260.176 125.669 260.176C126.231 260.176 126.75 260.108 127.225 259.974C127.699 259.839 128.106 259.648 128.446 259.402C128.786 259.156 129.05 258.86 129.237 258.515C129.431 258.169 129.527 257.785 129.527 257.363C129.527 256.971 129.442 256.625 129.272 256.326C129.108 256.027 128.868 255.764 128.552 255.535C128.235 255.312 127.846 255.122 127.383 254.964C126.92 254.8 126.396 254.656 125.81 254.533C125.364 254.445 124.995 254.354 124.702 254.261C124.415 254.167 124.187 254.062 124.017 253.944C123.841 253.827 123.718 253.695 123.647 253.549C123.577 253.402 123.542 253.235 123.542 253.048C123.542 252.866 123.586 252.69 123.674 252.521C123.762 252.351 123.894 252.201 124.069 252.072C124.239 251.943 124.453 251.841 124.711 251.765C124.975 251.688 125.279 251.65 125.625 251.65C125.959 251.65 126.258 251.697 126.521 251.791C126.791 251.885 127.02 252.008 127.207 252.16C127.395 252.312 127.541 252.488 127.646 252.688C127.752 252.881 127.805 253.08 127.805 253.285H129.431C129.431 252.869 129.34 252.482 129.158 252.125C128.982 251.762 128.73 251.445 128.402 251.176C128.074 250.906 127.676 250.695 127.207 250.543C126.738 250.391 126.211 250.314 125.625 250.314C125.08 250.314 124.579 250.388 124.122 250.534C123.671 250.681 123.281 250.88 122.953 251.132C122.625 251.384 122.37 251.68 122.188 252.02C122.007 252.354 121.916 252.714 121.916 253.101C121.916 253.493 122.004 253.839 122.18 254.138C122.355 254.431 122.604 254.686 122.927 254.902C123.243 255.125 123.624 255.315 124.069 255.474C124.521 255.632 125.019 255.767 125.563 255.878C126.009 255.966 126.381 256.065 126.68 256.177C126.979 256.282 127.219 256.399 127.4 256.528C127.582 256.657 127.711 256.801 127.787 256.959C127.863 257.111 127.901 257.284 127.901 257.478ZM135.24 255.562L138.729 260H140.795L136.356 254.454L140.206 250.49H138.229L135.108 253.619L134.045 254.762V246.5H132.41V260H134.045V256.713L135.24 255.562ZM143.968 263.841C144.396 263.841 144.773 263.762 145.102 263.604C145.43 263.445 145.717 263.249 145.963 263.015C146.209 262.78 146.417 262.525 146.587 262.25C146.763 261.975 146.906 261.714 147.018 261.468L151.843 250.49H150.023L147.571 256.66L147.123 257.776L146.701 256.625L144.091 250.49H142.271L146.367 259.552L145.717 260.817C145.658 260.935 145.576 261.084 145.471 261.266C145.371 261.447 145.251 261.623 145.11 261.793C144.964 261.963 144.797 262.109 144.609 262.232C144.428 262.355 144.226 262.417 144.003 262.417C143.921 262.417 143.807 262.411 143.66 262.399C143.52 262.394 143.376 262.385 143.229 262.373L142.966 263.7C143.071 263.724 143.227 263.753 143.432 263.788C143.637 263.823 143.815 263.841 143.968 263.841ZM154.269 246.5V247.915H157.503V258.594H154.269V260H162.231V258.594H159.129V246.5H154.269ZM165.079 250.49V251.905H168.313V258.594H165.079V260H173.042V258.594H169.939V250.49H165.079ZM168.103 247.994C168.103 248.258 168.182 248.478 168.34 248.653C168.504 248.829 168.75 248.917 169.078 248.917C169.4 248.917 169.644 248.829 169.808 248.653C169.972 248.478 170.054 248.258 170.054 247.994C170.054 247.848 170.03 247.713 169.983 247.59C169.937 247.467 169.866 247.364 169.772 247.282C169.696 247.206 169.6 247.147 169.482 247.106C169.365 247.06 169.23 247.036 169.078 247.036C168.926 247.036 168.788 247.06 168.665 247.106C168.548 247.147 168.451 247.206 168.375 247.282C168.281 247.37 168.211 247.476 168.164 247.599C168.123 247.722 168.103 247.854 168.103 247.994ZM175.336 255.166V255.351C175.336 256.03 175.424 256.666 175.6 257.258C175.775 257.844 176.027 258.354 176.355 258.787C176.678 259.221 177.073 259.561 177.542 259.807C178.011 260.053 178.535 260.176 179.115 260.176C179.461 260.176 179.783 260.138 180.082 260.062C180.381 259.991 180.653 259.889 180.899 259.754C181.058 259.666 181.204 259.563 181.339 259.446C181.479 259.329 181.611 259.2 181.734 259.06V259.877C181.734 260.287 181.676 260.65 181.559 260.967C181.441 261.283 181.274 261.547 181.058 261.758C180.835 261.975 180.568 262.139 180.258 262.25C179.947 262.361 179.599 262.417 179.212 262.417C178.995 262.417 178.778 262.394 178.562 262.347C178.345 262.306 178.128 262.235 177.911 262.136C177.694 262.036 177.48 261.901 177.27 261.731C177.059 261.567 176.854 261.365 176.654 261.125L175.811 262.101C176.027 262.411 176.285 262.672 176.584 262.883C176.889 263.094 177.205 263.261 177.533 263.384C177.855 263.513 178.175 263.604 178.491 263.656C178.808 263.715 179.089 263.744 179.335 263.744C179.933 263.744 180.478 263.656 180.97 263.48C181.462 263.305 181.887 263.047 182.244 262.707C182.596 262.367 182.868 261.954 183.062 261.468C183.261 260.981 183.36 260.425 183.36 259.798V250.49H181.884L181.805 251.527C181.693 251.387 181.573 251.258 181.444 251.141C181.321 251.023 181.189 250.921 181.049 250.833C180.791 250.663 180.501 250.534 180.179 250.446C179.862 250.358 179.514 250.314 179.133 250.314C178.541 250.314 178.011 250.435 177.542 250.675C177.073 250.915 176.675 251.249 176.347 251.677C176.019 252.104 175.767 252.617 175.591 253.215C175.421 253.807 175.336 254.457 175.336 255.166ZM176.962 255.351V255.166C176.962 254.703 177.009 254.264 177.103 253.848C177.202 253.426 177.357 253.054 177.568 252.731C177.773 252.415 178.037 252.163 178.359 251.976C178.688 251.788 179.08 251.694 179.537 251.694C179.807 251.694 180.053 251.729 180.275 251.8C180.498 251.864 180.7 251.955 180.882 252.072C181.063 252.195 181.225 252.339 181.365 252.503C181.506 252.667 181.629 252.849 181.734 253.048V257.407C181.629 257.612 181.506 257.8 181.365 257.97C181.225 258.14 181.066 258.286 180.891 258.409C180.709 258.532 180.504 258.629 180.275 258.699C180.053 258.764 179.801 258.796 179.52 258.796C179.068 258.796 178.682 258.705 178.359 258.523C178.037 258.336 177.773 258.084 177.568 257.768C177.357 257.451 177.202 257.085 177.103 256.669C177.009 256.253 176.962 255.813 176.962 255.351ZM188.071 251.905V246.5H186.445V260H188.071V253.092C188.188 252.904 188.32 252.734 188.467 252.582C188.619 252.424 188.783 252.286 188.959 252.169C189.182 252.017 189.425 251.899 189.688 251.817C189.952 251.735 190.23 251.694 190.523 251.694C190.881 251.688 191.197 251.738 191.473 251.844C191.748 251.943 191.977 252.096 192.158 252.301C192.328 252.488 192.457 252.726 192.545 253.013C192.633 253.294 192.677 253.622 192.677 253.997V260H194.303V254.015C194.303 253.376 194.224 252.825 194.065 252.362C193.913 251.894 193.693 251.507 193.406 251.202C193.119 250.897 192.771 250.675 192.36 250.534C191.956 250.388 191.505 250.314 191.007 250.314C190.626 250.32 190.266 250.376 189.926 250.481C189.592 250.587 189.284 250.742 189.003 250.947C188.827 251.07 188.66 251.214 188.502 251.378C188.344 251.536 188.2 251.712 188.071 251.905ZM201.105 248.188H199.471V250.49H196.975V251.747H199.471V256.915C199.471 257.501 199.547 258.002 199.699 258.418C199.857 258.828 200.071 259.162 200.341 259.42C200.61 259.684 200.927 259.877 201.29 260C201.659 260.117 202.055 260.176 202.477 260.176C202.729 260.176 202.98 260.164 203.232 260.141C203.49 260.117 203.733 260.082 203.962 260.035C204.19 259.994 204.401 259.944 204.595 259.886C204.788 259.821 204.952 259.748 205.087 259.666L204.858 258.515C204.759 258.538 204.63 258.567 204.472 258.603C204.319 258.632 204.155 258.661 203.979 258.69C203.798 258.72 203.613 258.746 203.426 258.77C203.238 258.787 203.057 258.796 202.881 258.796C202.641 258.796 202.412 258.767 202.195 258.708C201.984 258.649 201.797 258.547 201.633 258.4C201.469 258.26 201.34 258.069 201.246 257.829C201.152 257.589 201.105 257.284 201.105 256.915V251.747H204.727V250.49H201.105V248.188ZM210.896 258.945C210.896 259.285 211.002 259.575 211.213 259.815C211.43 260.05 211.749 260.167 212.171 260.167C212.587 260.167 212.906 260.05 213.129 259.815C213.352 259.581 213.463 259.291 213.463 258.945C213.463 258.594 213.352 258.298 213.129 258.058C212.912 257.812 212.593 257.688 212.171 257.688C211.743 257.688 211.424 257.812 211.213 258.058C211.002 258.304 210.896 258.6 210.896 258.945ZM218.569 255.166V255.351C218.569 256.03 218.66 256.666 218.842 257.258C219.023 257.844 219.278 258.354 219.606 258.787C219.935 259.221 220.33 259.561 220.793 259.807C221.262 260.053 221.783 260.176 222.357 260.176C222.943 260.176 223.456 260.076 223.896 259.877C224.335 259.678 224.713 259.385 225.029 258.998L225.1 260H226.594V246.5H224.968V251.431C224.657 251.067 224.288 250.792 223.86 250.604C223.438 250.411 222.943 250.314 222.375 250.314C221.795 250.314 221.271 250.435 220.802 250.675C220.333 250.915 219.935 251.249 219.606 251.677C219.272 252.104 219.015 252.617 218.833 253.215C218.657 253.807 218.569 254.457 218.569 255.166ZM220.195 255.351V255.166C220.195 254.703 220.245 254.264 220.345 253.848C220.444 253.426 220.6 253.054 220.811 252.731C221.016 252.415 221.279 252.163 221.602 251.976C221.93 251.788 222.322 251.694 222.779 251.694C223.312 251.694 223.758 251.82 224.115 252.072C224.473 252.318 224.757 252.635 224.968 253.021V257.434C224.757 257.85 224.473 258.181 224.115 258.427C223.758 258.673 223.307 258.796 222.762 258.796C222.311 258.796 221.924 258.705 221.602 258.523C221.279 258.336 221.016 258.084 220.811 257.768C220.6 257.451 220.444 257.085 220.345 256.669C220.245 256.253 220.195 255.813 220.195 255.351ZM229.942 250.49V251.905H233.177V258.594H229.942V260H237.905V258.594H234.803V250.49H229.942ZM232.966 247.994C232.966 248.258 233.045 248.478 233.203 248.653C233.367 248.829 233.613 248.917 233.941 248.917C234.264 248.917 234.507 248.829 234.671 248.653C234.835 248.478 234.917 248.258 234.917 247.994C234.917 247.848 234.894 247.713 234.847 247.59C234.8 247.467 234.729 247.364 234.636 247.282C234.56 247.206 234.463 247.147 234.346 247.106C234.229 247.06 234.094 247.036 233.941 247.036C233.789 247.036 233.651 247.06 233.528 247.106C233.411 247.147 233.314 247.206 233.238 247.282C233.145 247.37 233.074 247.476 233.027 247.599C232.986 247.722 232.966 247.854 232.966 247.994ZM240.199 255.166V255.351C240.199 256.03 240.287 256.666 240.463 257.258C240.639 257.844 240.891 258.354 241.219 258.787C241.541 259.221 241.937 259.561 242.405 259.807C242.874 260.053 243.398 260.176 243.979 260.176C244.324 260.176 244.646 260.138 244.945 260.062C245.244 259.991 245.517 259.889 245.763 259.754C245.921 259.666 246.067 259.563 246.202 259.446C246.343 259.329 246.475 259.2 246.598 259.06V259.877C246.598 260.287 246.539 260.65 246.422 260.967C246.305 261.283 246.138 261.547 245.921 261.758C245.698 261.975 245.432 262.139 245.121 262.25C244.811 262.361 244.462 262.417 244.075 262.417C243.858 262.417 243.642 262.394 243.425 262.347C243.208 262.306 242.991 262.235 242.774 262.136C242.558 262.036 242.344 261.901 242.133 261.731C241.922 261.567 241.717 261.365 241.518 261.125L240.674 262.101C240.891 262.411 241.148 262.672 241.447 262.883C241.752 263.094 242.068 263.261 242.396 263.384C242.719 263.513 243.038 263.604 243.354 263.656C243.671 263.715 243.952 263.744 244.198 263.744C244.796 263.744 245.341 263.656 245.833 263.48C246.325 263.305 246.75 263.047 247.107 262.707C247.459 262.367 247.731 261.954 247.925 261.468C248.124 260.981 248.224 260.425 248.224 259.798V250.49H246.747L246.668 251.527C246.557 251.387 246.437 251.258 246.308 251.141C246.185 251.023 246.053 250.921 245.912 250.833C245.654 250.663 245.364 250.534 245.042 250.446C244.726 250.358 244.377 250.314 243.996 250.314C243.404 250.314 242.874 250.435 242.405 250.675C241.937 250.915 241.538 251.249 241.21 251.677C240.882 252.104 240.63 252.617 240.454 253.215C240.284 253.807 240.199 254.457 240.199 255.166ZM241.825 255.351V255.166C241.825 254.703 241.872 254.264 241.966 253.848C242.065 253.426 242.221 253.054 242.432 252.731C242.637 252.415 242.9 252.163 243.223 251.976C243.551 251.788 243.943 251.694 244.4 251.694C244.67 251.694 244.916 251.729 245.139 251.8C245.361 251.864 245.563 251.955 245.745 252.072C245.927 252.195 246.088 252.339 246.229 252.503C246.369 252.667 246.492 252.849 246.598 253.048V257.407C246.492 257.612 246.369 257.8 246.229 257.97C246.088 258.14 245.93 258.286 245.754 258.409C245.572 258.532 245.367 258.629 245.139 258.699C244.916 258.764 244.664 258.796 244.383 258.796C243.932 258.796 243.545 258.705 243.223 258.523C242.9 258.336 242.637 258.084 242.432 257.768C242.221 257.451 242.065 257.085 241.966 256.669C241.872 256.253 241.825 255.813 241.825 255.351ZM251.563 250.49V251.905H254.798V258.594H251.563V260H259.526V258.594H256.424V250.49H251.563ZM254.587 247.994C254.587 248.258 254.666 248.478 254.824 248.653C254.988 248.829 255.234 248.917 255.562 248.917C255.885 248.917 256.128 248.829 256.292 248.653C256.456 248.478 256.538 248.258 256.538 247.994C256.538 247.848 256.515 247.713 256.468 247.59C256.421 247.467 256.351 247.364 256.257 247.282C256.181 247.206 256.084 247.147 255.967 247.106C255.85 247.06 255.715 247.036 255.562 247.036C255.41 247.036 255.272 247.06 255.149 247.106C255.032 247.147 254.936 247.206 254.859 247.282C254.766 247.37 254.695 247.476 254.648 247.599C254.607 247.722 254.587 247.854 254.587 247.994ZM265.969 248.188H264.334V250.49H261.838V251.747H264.334V256.915C264.334 257.501 264.41 258.002 264.562 258.418C264.721 258.828 264.935 259.162 265.204 259.42C265.474 259.684 265.79 259.877 266.153 260C266.522 260.117 266.918 260.176 267.34 260.176C267.592 260.176 267.844 260.164 268.096 260.141C268.354 260.117 268.597 260.082 268.825 260.035C269.054 259.994 269.265 259.944 269.458 259.886C269.651 259.821 269.815 259.748 269.95 259.666L269.722 258.515C269.622 258.538 269.493 258.567 269.335 258.603C269.183 258.632 269.019 258.661 268.843 258.69C268.661 258.72 268.477 258.746 268.289 258.77C268.102 258.787 267.92 258.796 267.744 258.796C267.504 258.796 267.275 258.767 267.059 258.708C266.848 258.649 266.66 258.547 266.496 258.4C266.332 258.26 266.203 258.069 266.109 257.829C266.016 257.589 265.969 257.284 265.969 256.915V251.747H269.59V250.49H265.969V248.188ZM279.179 260H280.875V259.859C280.77 259.596 280.688 259.288 280.629 258.937C280.57 258.579 280.541 258.242 280.541 257.926V253.505C280.541 252.972 280.444 252.506 280.251 252.107C280.058 251.709 279.794 251.375 279.46 251.105C279.12 250.842 278.719 250.646 278.256 250.517C277.793 250.382 277.292 250.314 276.753 250.314C276.161 250.314 275.631 250.396 275.162 250.561C274.699 250.725 274.307 250.938 273.984 251.202C273.656 251.472 273.404 251.773 273.229 252.107C273.059 252.441 272.971 252.781 272.965 253.127H274.6C274.6 252.928 274.646 252.737 274.74 252.556C274.84 252.368 274.978 252.207 275.153 252.072C275.329 251.938 275.543 251.829 275.795 251.747C276.053 251.665 276.343 251.624 276.665 251.624C277.011 251.624 277.321 251.668 277.597 251.756C277.878 251.844 278.115 251.967 278.309 252.125C278.502 252.289 278.651 252.485 278.757 252.714C278.862 252.942 278.915 253.2 278.915 253.487V254.234H277.14C276.478 254.234 275.877 254.299 275.338 254.428C274.805 254.557 274.348 254.75 273.967 255.008C273.586 255.271 273.29 255.6 273.079 255.992C272.874 256.385 272.771 256.842 272.771 257.363C272.771 257.762 272.848 258.134 273 258.479C273.158 258.819 273.381 259.112 273.668 259.358C273.949 259.61 274.292 259.81 274.696 259.956C275.106 260.103 275.563 260.176 276.067 260.176C276.378 260.176 276.671 260.144 276.946 260.079C277.222 260.015 277.482 259.927 277.729 259.815C277.969 259.704 278.188 259.575 278.388 259.429C278.593 259.282 278.777 259.127 278.941 258.963C278.959 259.162 278.985 259.355 279.021 259.543C279.062 259.725 279.114 259.877 279.179 260ZM276.305 258.761C275.988 258.761 275.71 258.72 275.47 258.638C275.229 258.556 275.03 258.441 274.872 258.295C274.714 258.154 274.594 257.984 274.512 257.785C274.436 257.586 274.397 257.369 274.397 257.135C274.397 256.889 274.441 256.669 274.529 256.476C274.623 256.282 274.758 256.115 274.934 255.975C275.18 255.775 275.511 255.629 275.927 255.535C276.349 255.436 276.841 255.386 277.403 255.386H278.915V257.311C278.821 257.498 278.692 257.68 278.528 257.855C278.364 258.025 278.171 258.178 277.948 258.312C277.72 258.447 277.468 258.556 277.192 258.638C276.917 258.72 276.621 258.761 276.305 258.761ZM283.995 246.5V247.915H287.229V258.594H283.995V260H291.958V258.594H288.855V246.5H283.995ZM71.458 278.015L68.9443 274.49H67.0635L70.6055 279.192L66.9668 284H68.8652L71.4932 280.379L74.1211 284H76.002L72.3633 279.192L75.9053 274.49H73.998L71.458 278.015ZM82.2686 278.015L79.7549 274.49H77.874L81.416 279.192L77.7773 284H79.6758L82.3037 280.379L84.9316 284H86.8125L83.1738 279.192L86.7158 274.49H84.8086L82.2686 278.015ZM93.0791 278.015L90.5654 274.49H88.6846L92.2266 279.192L88.5879 284H90.4863L93.1143 280.379L95.7422 284H97.623L93.9844 279.192L97.5264 274.49H95.6191L93.0791 278.015ZM107.071 279.069V277.733H100.348V279.069H107.071ZM114.7 278.015L112.187 274.49H110.306L113.848 279.192L110.209 284H112.107L114.735 280.379L117.363 284H119.244L115.605 279.192L119.147 274.49H117.24L114.7 278.015ZM125.511 278.015L122.997 274.49H121.116L124.658 279.192L121.02 284H122.918L125.546 280.379L128.174 284H130.055L126.416 279.192L129.958 274.49H128.051L125.511 278.015ZM136.321 278.015L133.808 274.49H131.927L135.469 279.192L131.83 284H133.729L136.356 280.379L138.984 284H140.865L137.227 279.192L140.769 274.49H138.861L136.321 278.015ZM150.313 279.069V277.733H143.59V279.069H150.313ZM157.942 278.015L155.429 274.49H153.548L157.09 279.192L153.451 284H155.35L157.978 280.379L160.605 284H162.486L158.848 279.192L162.39 274.49H160.482L157.942 278.015ZM168.753 278.015L166.239 274.49H164.358L167.9 279.192L164.262 284H166.16L168.788 280.379L171.416 284H173.297L169.658 279.192L173.2 274.49H171.293L168.753 278.015ZM179.563 278.015L177.05 274.49H175.169L178.711 279.192L175.072 284H176.971L179.599 280.379L182.227 284H184.107L180.469 279.192L184.011 274.49H182.104L179.563 278.015ZM190.374 278.015L187.86 274.49H185.979L189.521 279.192L185.883 284H187.781L190.409 280.379L193.037 284H194.918L191.279 279.192L194.821 274.49H192.914L190.374 278.015ZM69.1553 299.905V294.5H67.5293V308H69.1553V301.092C69.2725 300.904 69.4043 300.734 69.5508 300.582C69.7031 300.424 69.8672 300.286 70.043 300.169C70.2656 300.017 70.5088 299.899 70.7725 299.817C71.0361 299.735 71.3145 299.694 71.6074 299.694C71.9648 299.688 72.2812 299.738 72.5566 299.844C72.832 299.943 73.0605 300.096 73.2422 300.301C73.4121 300.488 73.541 300.726 73.6289 301.013C73.7168 301.294 73.7607 301.622 73.7607 301.997V308H75.3867V302.015C75.3867 301.376 75.3076 300.825 75.1494 300.362C74.9971 299.894 74.7773 299.507 74.4902 299.202C74.2031 298.897 73.8545 298.675 73.4443 298.534C73.04 298.388 72.5889 298.314 72.0908 298.314C71.71 298.32 71.3496 298.376 71.0098 298.481C70.6758 298.587 70.3682 298.742 70.0869 298.947C69.9111 299.07 69.7441 299.214 69.5859 299.378C69.4277 299.536 69.2842 299.712 69.1553 299.905ZM82.1895 296.188H80.5547V298.49H78.0586V299.747H80.5547V304.915C80.5547 305.501 80.6309 306.002 80.7832 306.418C80.9414 306.828 81.1553 307.162 81.4248 307.42C81.6943 307.684 82.0107 307.877 82.374 308C82.7432 308.117 83.1387 308.176 83.5605 308.176C83.8125 308.176 84.0645 308.164 84.3164 308.141C84.5742 308.117 84.8174 308.082 85.0459 308.035C85.2744 307.994 85.4854 307.944 85.6787 307.886C85.8721 307.821 86.0361 307.748 86.1709 307.666L85.9424 306.515C85.8428 306.538 85.7139 306.567 85.5557 306.603C85.4033 306.632 85.2393 306.661 85.0635 306.69C84.8818 306.72 84.6973 306.746 84.5098 306.77C84.3223 306.787 84.1406 306.796 83.9648 306.796C83.7246 306.796 83.4961 306.767 83.2793 306.708C83.0684 306.649 82.8809 306.547 82.7168 306.4C82.5527 306.26 82.4238 306.069 82.3301 305.829C82.2363 305.589 82.1895 305.284 82.1895 304.915V299.747H85.8105V298.49H82.1895V296.188ZM93 296.188H91.3652V298.49H88.8691V299.747H91.3652V304.915C91.3652 305.501 91.4414 306.002 91.5938 306.418C91.752 306.828 91.9658 307.162 92.2354 307.42C92.5049 307.684 92.8213 307.877 93.1846 308C93.5537 308.117 93.9492 308.176 94.3711 308.176C94.623 308.176 94.875 308.164 95.127 308.141C95.3848 308.117 95.6279 308.082 95.8564 308.035C96.085 307.994 96.2959 307.944 96.4893 307.886C96.6826 307.821 96.8467 307.748 96.9814 307.666L96.7529 306.515C96.6533 306.538 96.5244 306.567 96.3662 306.603C96.2139 306.632 96.0498 306.661 95.874 306.69C95.6924 306.72 95.5078 306.746 95.3203 306.77C95.1328 306.787 94.9512 306.796 94.7754 306.796C94.5352 306.796 94.3066 306.767 94.0898 306.708C93.8789 306.649 93.6914 306.547 93.5273 306.4C93.3633 306.26 93.2344 306.069 93.1406 305.829C93.0469 305.589 93 305.284 93 304.915V299.747H96.6211V298.49H93V296.188ZM99.9521 311.656H101.578V307.086C101.695 307.215 101.821 307.335 101.956 307.446C102.091 307.552 102.234 307.648 102.387 307.736C102.639 307.877 102.92 307.985 103.23 308.062C103.547 308.138 103.887 308.176 104.25 308.176C104.848 308.176 105.378 308.053 105.841 307.807C106.31 307.561 106.702 307.221 107.019 306.787C107.335 306.354 107.575 305.844 107.739 305.258C107.903 304.666 107.985 304.03 107.985 303.351V303.166C107.985 302.457 107.903 301.807 107.739 301.215C107.575 300.617 107.335 300.104 107.019 299.677C106.702 299.249 106.31 298.915 105.841 298.675C105.372 298.435 104.833 298.314 104.224 298.314C103.878 298.314 103.553 298.353 103.248 298.429C102.949 298.499 102.677 298.604 102.431 298.745C102.255 298.839 102.091 298.953 101.938 299.088C101.786 299.217 101.646 299.363 101.517 299.527L101.438 298.49H99.9521V311.656ZM106.359 303.166V303.351C106.359 303.813 106.307 304.256 106.201 304.678C106.102 305.1 105.946 305.472 105.735 305.794C105.524 306.116 105.255 306.374 104.927 306.567C104.599 306.755 104.209 306.849 103.758 306.849C103.477 306.849 103.219 306.813 102.984 306.743C102.756 306.673 102.548 306.576 102.36 306.453C102.196 306.348 102.05 306.219 101.921 306.066C101.792 305.914 101.678 305.75 101.578 305.574V300.995C101.689 300.796 101.818 300.614 101.965 300.45C102.111 300.286 102.278 300.148 102.466 300.037C102.636 299.926 102.826 299.841 103.037 299.782C103.254 299.724 103.488 299.694 103.74 299.694C104.197 299.694 104.59 299.788 104.918 299.976C105.246 300.163 105.519 300.415 105.735 300.731C105.946 301.054 106.102 301.426 106.201 301.848C106.307 302.264 106.359 302.703 106.359 303.166ZM117.091 305.478C117.091 305.63 117.062 305.773 117.003 305.908C116.944 306.043 116.859 306.166 116.748 306.277C116.566 306.459 116.314 306.603 115.992 306.708C115.67 306.808 115.292 306.857 114.858 306.857C114.583 306.857 114.305 306.828 114.023 306.77C113.742 306.711 113.487 306.611 113.259 306.471C113.024 306.33 112.828 306.146 112.67 305.917C112.518 305.688 112.43 305.407 112.406 305.073H110.78C110.78 305.478 110.871 305.867 111.053 306.242C111.24 306.617 111.51 306.945 111.861 307.227C112.207 307.514 112.632 307.745 113.136 307.921C113.64 308.091 114.214 308.176 114.858 308.176C115.421 308.176 115.939 308.108 116.414 307.974C116.889 307.839 117.296 307.648 117.636 307.402C117.976 307.156 118.239 306.86 118.427 306.515C118.62 306.169 118.717 305.785 118.717 305.363C118.717 304.971 118.632 304.625 118.462 304.326C118.298 304.027 118.058 303.764 117.741 303.535C117.425 303.312 117.035 303.122 116.572 302.964C116.109 302.8 115.585 302.656 114.999 302.533C114.554 302.445 114.185 302.354 113.892 302.261C113.604 302.167 113.376 302.062 113.206 301.944C113.03 301.827 112.907 301.695 112.837 301.549C112.767 301.402 112.731 301.235 112.731 301.048C112.731 300.866 112.775 300.69 112.863 300.521C112.951 300.351 113.083 300.201 113.259 300.072C113.429 299.943 113.643 299.841 113.9 299.765C114.164 299.688 114.469 299.65 114.814 299.65C115.148 299.65 115.447 299.697 115.711 299.791C115.98 299.885 116.209 300.008 116.396 300.16C116.584 300.312 116.73 300.488 116.836 300.688C116.941 300.881 116.994 301.08 116.994 301.285H118.62C118.62 300.869 118.529 300.482 118.348 300.125C118.172 299.762 117.92 299.445 117.592 299.176C117.264 298.906 116.865 298.695 116.396 298.543C115.928 298.391 115.4 298.314 114.814 298.314C114.27 298.314 113.769 298.388 113.312 298.534C112.86 298.681 112.471 298.88 112.143 299.132C111.814 299.384 111.56 299.68 111.378 300.02C111.196 300.354 111.105 300.714 111.105 301.101C111.105 301.493 111.193 301.839 111.369 302.138C111.545 302.431 111.794 302.686 112.116 302.902C112.433 303.125 112.813 303.315 113.259 303.474C113.71 303.632 114.208 303.767 114.753 303.878C115.198 303.966 115.57 304.065 115.869 304.177C116.168 304.282 116.408 304.399 116.59 304.528C116.771 304.657 116.9 304.801 116.977 304.959C117.053 305.111 117.091 305.284 117.091 305.478ZM124.852 306.945C124.852 307.285 124.957 307.575 125.168 307.815C125.385 308.05 125.704 308.167 126.126 308.167C126.542 308.167 126.861 308.05 127.084 307.815C127.307 307.581 127.418 307.291 127.418 306.945C127.418 306.594 127.307 306.298 127.084 306.058C126.867 305.812 126.548 305.688 126.126 305.688C125.698 305.688 125.379 305.812 125.168 306.058C124.957 306.304 124.852 306.6 124.852 306.945ZM124.852 299.246C124.852 299.586 124.957 299.876 125.168 300.116C125.385 300.351 125.704 300.468 126.126 300.468C126.542 300.468 126.861 300.351 127.084 300.116C127.307 299.882 127.418 299.592 127.418 299.246C127.418 298.895 127.307 298.599 127.084 298.358C126.867 298.112 126.548 297.989 126.126 297.989C125.698 297.989 125.379 298.112 125.168 298.358C124.957 298.604 124.852 298.9 124.852 299.246ZM134.537 309.099L139.872 295.203H138.422L133.078 309.099H134.537ZM145.348 309.099L150.683 295.203H149.232L143.889 309.099H145.348ZM160.333 305.478C160.333 305.63 160.304 305.773 160.245 305.908C160.187 306.043 160.102 306.166 159.99 306.277C159.809 306.459 159.557 306.603 159.234 306.708C158.912 306.808 158.534 306.857 158.101 306.857C157.825 306.857 157.547 306.828 157.266 306.77C156.984 306.711 156.729 306.611 156.501 306.471C156.267 306.33 156.07 306.146 155.912 305.917C155.76 305.688 155.672 305.407 155.648 305.073H154.022C154.022 305.478 154.113 305.867 154.295 306.242C154.482 306.617 154.752 306.945 155.104 307.227C155.449 307.514 155.874 307.745 156.378 307.921C156.882 308.091 157.456 308.176 158.101 308.176C158.663 308.176 159.182 308.108 159.656 307.974C160.131 307.839 160.538 307.648 160.878 307.402C161.218 307.156 161.481 306.86 161.669 306.515C161.862 306.169 161.959 305.785 161.959 305.363C161.959 304.971 161.874 304.625 161.704 304.326C161.54 304.027 161.3 303.764 160.983 303.535C160.667 303.312 160.277 303.122 159.814 302.964C159.352 302.8 158.827 302.656 158.241 302.533C157.796 302.445 157.427 302.354 157.134 302.261C156.847 302.167 156.618 302.062 156.448 301.944C156.272 301.827 156.149 301.695 156.079 301.549C156.009 301.402 155.974 301.235 155.974 301.048C155.974 300.866 156.018 300.69 156.105 300.521C156.193 300.351 156.325 300.201 156.501 300.072C156.671 299.943 156.885 299.841 157.143 299.765C157.406 299.688 157.711 299.65 158.057 299.65C158.391 299.65 158.689 299.697 158.953 299.791C159.223 299.885 159.451 300.008 159.639 300.16C159.826 300.312 159.973 300.488 160.078 300.688C160.184 300.881 160.236 301.08 160.236 301.285H161.862C161.862 300.869 161.771 300.482 161.59 300.125C161.414 299.762 161.162 299.445 160.834 299.176C160.506 298.906 160.107 298.695 159.639 298.543C159.17 298.391 158.643 298.314 158.057 298.314C157.512 298.314 157.011 298.388 156.554 298.534C156.103 298.681 155.713 298.88 155.385 299.132C155.057 299.384 154.802 299.68 154.62 300.02C154.438 300.354 154.348 300.714 154.348 301.101C154.348 301.493 154.436 301.839 154.611 302.138C154.787 302.431 155.036 302.686 155.358 302.902C155.675 303.125 156.056 303.315 156.501 303.474C156.952 303.632 157.45 303.767 157.995 303.878C158.44 303.966 158.812 304.065 159.111 304.177C159.41 304.282 159.65 304.399 159.832 304.528C160.014 304.657 160.143 304.801 160.219 304.959C160.295 305.111 160.333 305.284 160.333 305.478ZM167.672 303.562L171.161 308H173.227L168.788 302.454L172.638 298.49H170.66L167.54 301.619L166.477 302.762V294.5H164.842V308H166.477V304.713L167.672 303.562ZM176.399 311.841C176.827 311.841 177.205 311.762 177.533 311.604C177.861 311.445 178.148 311.249 178.395 311.015C178.641 310.78 178.849 310.525 179.019 310.25C179.194 309.975 179.338 309.714 179.449 309.468L184.274 298.49H182.455L180.003 304.66L179.555 305.776L179.133 304.625L176.522 298.49H174.703L178.799 307.552L178.148 308.817C178.09 308.935 178.008 309.084 177.902 309.266C177.803 309.447 177.683 309.623 177.542 309.793C177.396 309.963 177.229 310.109 177.041 310.232C176.859 310.355 176.657 310.417 176.435 310.417C176.353 310.417 176.238 310.411 176.092 310.399C175.951 310.394 175.808 310.385 175.661 310.373L175.397 311.7C175.503 311.724 175.658 311.753 175.863 311.788C176.068 311.823 176.247 311.841 176.399 311.841ZM186.7 294.5V295.915H189.935V306.594H186.7V308H194.663V306.594H191.561V294.5H186.7ZM197.511 298.49V299.905H200.745V306.594H197.511V308H205.474V306.594H202.371V298.49H197.511ZM200.534 295.994C200.534 296.258 200.613 296.478 200.771 296.653C200.936 296.829 201.182 296.917 201.51 296.917C201.832 296.917 202.075 296.829 202.239 296.653C202.403 296.478 202.485 296.258 202.485 295.994C202.485 295.848 202.462 295.713 202.415 295.59C202.368 295.467 202.298 295.364 202.204 295.282C202.128 295.206 202.031 295.147 201.914 295.106C201.797 295.06 201.662 295.036 201.51 295.036C201.357 295.036 201.22 295.06 201.097 295.106C200.979 295.147 200.883 295.206 200.807 295.282C200.713 295.37 200.643 295.476 200.596 295.599C200.555 295.722 200.534 295.854 200.534 295.994ZM207.768 303.166V303.351C207.768 304.03 207.855 304.666 208.031 305.258C208.207 305.844 208.459 306.354 208.787 306.787C209.109 307.221 209.505 307.561 209.974 307.807C210.442 308.053 210.967 308.176 211.547 308.176C211.893 308.176 212.215 308.138 212.514 308.062C212.812 307.991 213.085 307.889 213.331 307.754C213.489 307.666 213.636 307.563 213.771 307.446C213.911 307.329 214.043 307.2 214.166 307.06V307.877C214.166 308.287 214.107 308.65 213.99 308.967C213.873 309.283 213.706 309.547 213.489 309.758C213.267 309.975 213 310.139 212.689 310.25C212.379 310.361 212.03 310.417 211.644 310.417C211.427 310.417 211.21 310.394 210.993 310.347C210.776 310.306 210.56 310.235 210.343 310.136C210.126 310.036 209.912 309.901 209.701 309.731C209.49 309.567 209.285 309.365 209.086 309.125L208.242 310.101C208.459 310.411 208.717 310.672 209.016 310.883C209.32 311.094 209.637 311.261 209.965 311.384C210.287 311.513 210.606 311.604 210.923 311.656C211.239 311.715 211.521 311.744 211.767 311.744C212.364 311.744 212.909 311.656 213.401 311.48C213.894 311.305 214.318 311.047 214.676 310.707C215.027 310.367 215.3 309.954 215.493 309.468C215.692 308.981 215.792 308.425 215.792 307.798V298.49H214.315L214.236 299.527C214.125 299.387 214.005 299.258 213.876 299.141C213.753 299.023 213.621 298.921 213.48 298.833C213.223 298.663 212.933 298.534 212.61 298.446C212.294 298.358 211.945 298.314 211.564 298.314C210.973 298.314 210.442 298.435 209.974 298.675C209.505 298.915 209.106 299.249 208.778 299.677C208.45 300.104 208.198 300.617 208.022 301.215C207.853 301.807 207.768 302.457 207.768 303.166ZM209.394 303.351V303.166C209.394 302.703 209.44 302.264 209.534 301.848C209.634 301.426 209.789 301.054 210 300.731C210.205 300.415 210.469 300.163 210.791 299.976C211.119 299.788 211.512 299.694 211.969 299.694C212.238 299.694 212.484 299.729 212.707 299.8C212.93 299.864 213.132 299.955 213.313 300.072C213.495 300.195 213.656 300.339 213.797 300.503C213.938 300.667 214.061 300.849 214.166 301.048V305.407C214.061 305.612 213.938 305.8 213.797 305.97C213.656 306.14 213.498 306.286 213.322 306.409C213.141 306.532 212.936 306.629 212.707 306.699C212.484 306.764 212.232 306.796 211.951 306.796C211.5 306.796 211.113 306.705 210.791 306.523C210.469 306.336 210.205 306.084 210 305.768C209.789 305.451 209.634 305.085 209.534 304.669C209.44 304.253 209.394 303.813 209.394 303.351ZM220.503 299.905V294.5H218.877V308H220.503V301.092C220.62 300.904 220.752 300.734 220.898 300.582C221.051 300.424 221.215 300.286 221.391 300.169C221.613 300.017 221.856 299.899 222.12 299.817C222.384 299.735 222.662 299.694 222.955 299.694C223.312 299.688 223.629 299.738 223.904 299.844C224.18 299.943 224.408 300.096 224.59 300.301C224.76 300.488 224.889 300.726 224.977 301.013C225.064 301.294 225.108 301.622 225.108 301.997V308H226.734V302.015C226.734 301.376 226.655 300.825 226.497 300.362C226.345 299.894 226.125 299.507 225.838 299.202C225.551 298.897 225.202 298.675 224.792 298.534C224.388 298.388 223.937 298.314 223.438 298.314C223.058 298.32 222.697 298.376 222.357 298.481C222.023 298.587 221.716 298.742 221.435 298.947C221.259 299.07 221.092 299.214 220.934 299.378C220.775 299.536 220.632 299.712 220.503 299.905ZM233.537 296.188H231.902V298.49H229.406V299.747H231.902V304.915C231.902 305.501 231.979 306.002 232.131 306.418C232.289 306.828 232.503 307.162 232.772 307.42C233.042 307.684 233.358 307.877 233.722 308C234.091 308.117 234.486 308.176 234.908 308.176C235.16 308.176 235.412 308.164 235.664 308.141C235.922 308.117 236.165 308.082 236.394 308.035C236.622 307.994 236.833 307.944 237.026 307.886C237.22 307.821 237.384 307.748 237.519 307.666L237.29 306.515C237.19 306.538 237.062 306.567 236.903 306.603C236.751 306.632 236.587 306.661 236.411 306.69C236.229 306.72 236.045 306.746 235.857 306.77C235.67 306.787 235.488 306.796 235.312 306.796C235.072 306.796 234.844 306.767 234.627 306.708C234.416 306.649 234.229 306.547 234.064 306.4C233.9 306.26 233.771 306.069 233.678 305.829C233.584 305.589 233.537 305.284 233.537 304.915V299.747H237.158V298.49H233.537V296.188ZM243.328 306.945C243.328 307.285 243.434 307.575 243.645 307.815C243.861 308.05 244.181 308.167 244.603 308.167C245.019 308.167 245.338 308.05 245.561 307.815C245.783 307.581 245.895 307.291 245.895 306.945C245.895 306.594 245.783 306.298 245.561 306.058C245.344 305.812 245.024 305.688 244.603 305.688C244.175 305.688 243.855 305.812 243.645 306.058C243.434 306.304 243.328 306.6 243.328 306.945ZM251.001 303.166V303.351C251.001 304.03 251.092 304.666 251.273 305.258C251.455 305.844 251.71 306.354 252.038 306.787C252.366 307.221 252.762 307.561 253.225 307.807C253.693 308.053 254.215 308.176 254.789 308.176C255.375 308.176 255.888 308.076 256.327 307.877C256.767 307.678 257.145 307.385 257.461 306.998L257.531 308H259.025V294.5H257.399V299.431C257.089 299.067 256.72 298.792 256.292 298.604C255.87 298.411 255.375 298.314 254.807 298.314C254.227 298.314 253.702 298.435 253.233 298.675C252.765 298.915 252.366 299.249 252.038 299.677C251.704 300.104 251.446 300.617 251.265 301.215C251.089 301.807 251.001 302.457 251.001 303.166ZM252.627 303.351V303.166C252.627 302.703 252.677 302.264 252.776 301.848C252.876 301.426 253.031 301.054 253.242 300.731C253.447 300.415 253.711 300.163 254.033 299.976C254.361 299.788 254.754 299.694 255.211 299.694C255.744 299.694 256.189 299.82 256.547 300.072C256.904 300.318 257.188 300.635 257.399 301.021V305.434C257.188 305.85 256.904 306.181 256.547 306.427C256.189 306.673 255.738 306.796 255.193 306.796C254.742 306.796 254.355 306.705 254.033 306.523C253.711 306.336 253.447 306.084 253.242 305.768C253.031 305.451 252.876 305.085 252.776 304.669C252.677 304.253 252.627 303.813 252.627 303.351ZM262.374 298.49V299.905H265.608V306.594H262.374V308H270.337V306.594H267.234V298.49H262.374ZM265.397 295.994C265.397 296.258 265.477 296.478 265.635 296.653C265.799 296.829 266.045 296.917 266.373 296.917C266.695 296.917 266.938 296.829 267.103 296.653C267.267 296.478 267.349 296.258 267.349 295.994C267.349 295.848 267.325 295.713 267.278 295.59C267.231 295.467 267.161 295.364 267.067 295.282C266.991 295.206 266.895 295.147 266.777 295.106C266.66 295.06 266.525 295.036 266.373 295.036C266.221 295.036 266.083 295.06 265.96 295.106C265.843 295.147 265.746 295.206 265.67 295.282C265.576 295.37 265.506 295.476 265.459 295.599C265.418 295.722 265.397 295.854 265.397 295.994ZM272.631 303.166V303.351C272.631 304.03 272.719 304.666 272.895 305.258C273.07 305.844 273.322 306.354 273.65 306.787C273.973 307.221 274.368 307.561 274.837 307.807C275.306 308.053 275.83 308.176 276.41 308.176C276.756 308.176 277.078 308.138 277.377 308.062C277.676 307.991 277.948 307.889 278.194 307.754C278.353 307.666 278.499 307.563 278.634 307.446C278.774 307.329 278.906 307.2 279.029 307.06V307.877C279.029 308.287 278.971 308.65 278.854 308.967C278.736 309.283 278.569 309.547 278.353 309.758C278.13 309.975 277.863 310.139 277.553 310.25C277.242 310.361 276.894 310.417 276.507 310.417C276.29 310.417 276.073 310.394 275.856 310.347C275.64 310.306 275.423 310.235 275.206 310.136C274.989 310.036 274.775 309.901 274.564 309.731C274.354 309.567 274.148 309.365 273.949 309.125L273.105 310.101C273.322 310.411 273.58 310.672 273.879 310.883C274.184 311.094 274.5 311.261 274.828 311.384C275.15 311.513 275.47 311.604 275.786 311.656C276.103 311.715 276.384 311.744 276.63 311.744C277.228 311.744 277.772 311.656 278.265 311.48C278.757 311.305 279.182 311.047 279.539 310.707C279.891 310.367 280.163 309.954 280.356 309.468C280.556 308.981 280.655 308.425 280.655 307.798V298.49H279.179L279.1 299.527C278.988 299.387 278.868 299.258 278.739 299.141C278.616 299.023 278.484 298.921 278.344 298.833C278.086 298.663 277.796 298.534 277.474 298.446C277.157 298.358 276.809 298.314 276.428 298.314C275.836 298.314 275.306 298.435 274.837 298.675C274.368 298.915 273.97 299.249 273.642 299.677C273.313 300.104 273.062 300.617 272.886 301.215C272.716 301.807 272.631 302.457 272.631 303.166ZM274.257 303.351V303.166C274.257 302.703 274.304 302.264 274.397 301.848C274.497 301.426 274.652 301.054 274.863 300.731C275.068 300.415 275.332 300.163 275.654 299.976C275.982 299.788 276.375 299.694 276.832 299.694C277.102 299.694 277.348 299.729 277.57 299.8C277.793 299.864 277.995 299.955 278.177 300.072C278.358 300.195 278.52 300.339 278.66 300.503C278.801 300.667 278.924 300.849 279.029 301.048V305.407C278.924 305.612 278.801 305.8 278.66 305.97C278.52 306.14 278.361 306.286 278.186 306.409C278.004 306.532 277.799 306.629 277.57 306.699C277.348 306.764 277.096 306.796 276.814 306.796C276.363 306.796 275.977 306.705 275.654 306.523C275.332 306.336 275.068 306.084 274.863 305.768C274.652 305.451 274.497 305.085 274.397 304.669C274.304 304.253 274.257 303.813 274.257 303.351ZM283.995 298.49V299.905H287.229V306.594H283.995V308H291.958V306.594H288.855V298.49H283.995ZM287.019 295.994C287.019 296.258 287.098 296.478 287.256 296.653C287.42 296.829 287.666 296.917 287.994 296.917C288.316 296.917 288.56 296.829 288.724 296.653C288.888 296.478 288.97 296.258 288.97 295.994C288.97 295.848 288.946 295.713 288.899 295.59C288.853 295.467 288.782 295.364 288.688 295.282C288.612 295.206 288.516 295.147 288.398 295.106C288.281 295.06 288.146 295.036 287.994 295.036C287.842 295.036 287.704 295.06 287.581 295.106C287.464 295.147 287.367 295.206 287.291 295.282C287.197 295.37 287.127 295.476 287.08 295.599C287.039 295.722 287.019 295.854 287.019 295.994ZM298.4 296.188H296.766V298.49H294.27V299.747H296.766V304.915C296.766 305.501 296.842 306.002 296.994 306.418C297.152 306.828 297.366 307.162 297.636 307.42C297.905 307.684 298.222 307.877 298.585 308C298.954 308.117 299.35 308.176 299.771 308.176C300.023 308.176 300.275 308.164 300.527 308.141C300.785 308.117 301.028 308.082 301.257 308.035C301.485 307.994 301.696 307.944 301.89 307.886C302.083 307.821 302.247 307.748 302.382 307.666L302.153 306.515C302.054 306.538 301.925 306.567 301.767 306.603C301.614 306.632 301.45 306.661 301.274 306.69C301.093 306.72 300.908 306.746 300.721 306.77C300.533 306.787 300.352 306.796 300.176 306.796C299.936 306.796 299.707 306.767 299.49 306.708C299.279 306.649 299.092 306.547 298.928 306.4C298.764 306.26 298.635 306.069 298.541 305.829C298.447 305.589 298.4 305.284 298.4 304.915V299.747H302.021V298.49H298.4V296.188ZM311.61 308H313.307V307.859C313.201 307.596 313.119 307.288 313.061 306.937C313.002 306.579 312.973 306.242 312.973 305.926V301.505C312.973 300.972 312.876 300.506 312.683 300.107C312.489 299.709 312.226 299.375 311.892 299.105C311.552 298.842 311.15 298.646 310.688 298.517C310.225 298.382 309.724 298.314 309.185 298.314C308.593 298.314 308.062 298.396 307.594 298.561C307.131 298.725 306.738 298.938 306.416 299.202C306.088 299.472 305.836 299.773 305.66 300.107C305.49 300.441 305.402 300.781 305.396 301.127H307.031C307.031 300.928 307.078 300.737 307.172 300.556C307.271 300.368 307.409 300.207 307.585 300.072C307.761 299.938 307.975 299.829 308.227 299.747C308.484 299.665 308.774 299.624 309.097 299.624C309.442 299.624 309.753 299.668 310.028 299.756C310.31 299.844 310.547 299.967 310.74 300.125C310.934 300.289 311.083 300.485 311.188 300.714C311.294 300.942 311.347 301.2 311.347 301.487V302.234H309.571C308.909 302.234 308.309 302.299 307.77 302.428C307.236 302.557 306.779 302.75 306.398 303.008C306.018 303.271 305.722 303.6 305.511 303.992C305.306 304.385 305.203 304.842 305.203 305.363C305.203 305.762 305.279 306.134 305.432 306.479C305.59 306.819 305.812 307.112 306.1 307.358C306.381 307.61 306.724 307.81 307.128 307.956C307.538 308.103 307.995 308.176 308.499 308.176C308.81 308.176 309.103 308.144 309.378 308.079C309.653 308.015 309.914 307.927 310.16 307.815C310.4 307.704 310.62 307.575 310.819 307.429C311.024 307.282 311.209 307.127 311.373 306.963C311.391 307.162 311.417 307.355 311.452 307.543C311.493 307.725 311.546 307.877 311.61 308ZM308.736 306.761C308.42 306.761 308.142 306.72 307.901 306.638C307.661 306.556 307.462 306.441 307.304 306.295C307.146 306.154 307.025 305.984 306.943 305.785C306.867 305.586 306.829 305.369 306.829 305.135C306.829 304.889 306.873 304.669 306.961 304.476C307.055 304.282 307.189 304.115 307.365 303.975C307.611 303.775 307.942 303.629 308.358 303.535C308.78 303.436 309.272 303.386 309.835 303.386H311.347V305.311C311.253 305.498 311.124 305.68 310.96 305.855C310.796 306.025 310.603 306.178 310.38 306.312C310.151 306.447 309.899 306.556 309.624 306.638C309.349 306.72 309.053 306.761 308.736 306.761ZM316.427 294.5V295.915H319.661V306.594H316.427V308H324.39V306.594H321.287V294.5H316.427Z" fill="#1C1D20"/>
<rect width="142" height="10.4097" transform="matrix(1 0 0 -1 0 126.41)" fill="#F4C55C"/>
<rect width="142" height="10.4097" transform="matrix(1 0 0 -1 142 126.41)" fill="#DF635C"/>
<rect width="142" height="10.4097" transform="matrix(1 0 0 -1 284 126.41)" fill="#468FBA"/>
<rect width="142" height="10.4097" transform="matrix(1 0 0 -1 426 126.41)" fill="#8EC39C"/>
</svg>
