<?xml version="1.0" encoding="utf-8"?>
<!-- Generator: Adobe Illustrator 23.0.6, SVG Export Plug-In . SVG Version: 6.00 Build 0)  -->
<svg version="1.1" id="Layer_1" xmlns="http://www.w3.org/2000/svg" xmlns:xlink="http://www.w3.org/1999/xlink" x="0px" y="0px"
	 viewBox="0 0 9000 4964.9" style="enable-background:new 0 0 9000 4964.9;" xml:space="preserve">
<style type="text/css">
	.st0{fill:#F4F4F4;}
	.st1{fill:#F5C65D;}
	.st2{fill:#61A575;}
	.st3{fill:none;stroke:#54575C;stroke-width:8.675;stroke-miterlimit:10;}
	.st4{fill:#235485;}
	.st5{fill:#54575C;}
	.st6{fill:#8B2926;}
	.st7{fill:#4890BA;}
	.st8{fill:#DCEFFA;}
	.st9{fill:none;stroke:#575756;stroke-width:8.675;stroke-miterlimit:10;}
	.st10{fill:#FFFFFF;}
	.st11{fill:#E0635D;}
	.st12{fill:#C58D6E;}
	.st13{fill:#54575C;stroke:#54575C;stroke-width:8.6644;stroke-miterlimit:10;}
	.st14{fill:none;stroke:#54575C;stroke-width:8.675;stroke-linecap:round;stroke-linejoin:round;stroke-miterlimit:10;}
	.st15{fill-rule:evenodd;clip-rule:evenodd;fill:#E0635D;}
	.st16{fill-rule:evenodd;clip-rule:evenodd;fill:#E88C80;}
	.st17{fill-rule:evenodd;clip-rule:evenodd;fill:#F5C65D;}
	.st18{fill-rule:evenodd;clip-rule:evenodd;fill:none;stroke:#54575C;stroke-width:8.675;stroke-miterlimit:10;}
	.st19{fill:#FAD7C9;}
	.st20{fill:none;}
	.st21{fill:#54575C;stroke:#54575C;stroke-width:6.4064;stroke-miterlimit:10;}
</style>
<rect x="-8.9" y="-46.7" class="st0" width="9012.4" height="5032.9"/>
<g>
	<circle class="st1" cx="6164.6" cy="1846.7" r="1361.9"/>
	<g>
		<g>
			<path class="st2" d="M1522.3,3737.9c-156.1-20.5-477.3-45.2-710.2-237.4c426.1-51.1,780.5,34.9,780.5,34.9
				s-298.8-15.8-720.4-499.3c560,102.5,771.9,294.2,771.9,294.2s-490.7-400.2-670.2-904.6c524.2,283.9,967.8,855.4,967.8,855.4
				s-253.4-330.9-161.7-710.2c386.4,555.1,421.6,741.6,261.3,953.4C1920.5,3683.9,1720.7,3763.9,1522.3,3737.9z"/>
		</g>
		<g>
			<path class="st3" d="M1535.5,3707.1c-156.1-20.5-477.3-45.2-710.2-237.4c426.1-51.1,780.5,35,780.5,35s-298.8-15.8-720.4-499.3
				c560,102.5,771.9,294.2,771.9,294.2s-490.7-400.2-670.2-904.6c524.2,283.9,967.8,855.4,967.8,855.4s-253.4-330.9-161.7-710.2
				c386.4,555.1,421.6,741.6,261.3,953.4C1933.7,3653,1733.9,3733.1,1535.5,3707.1z"/>
		</g>
		<g>
			<path class="st2" d="M8187.4,3231.3c12.6-150.9-213.5-253.7-779,152.3c271.6-278,446.7-706,266.8-721
				c-152.4-12.7-182.7,74-334.7,395.9c38.8-109.2,44.5-196.2,32.1-258.7c-7.6,18.9-15.9,37.5-24.6,55.8
				c-14.9,31.4-32.8,61.4-53,89.7c-48.4,67.9-103.7,129.1-168.4,181.6c-4.6,4.5-9.3,8.7-14.3,12.5c-3.4,9.4-6.9,18.7-10.4,27.6
				c-66,169.8-213.4,400.9-72.6,516.3c160.1,131.3,509.4,15.7,882.5,45.5c92.7,7.4,263.6,19.2,274.4-110.5
				c6.1-73.6-101.9-292.6-629-74.3C7843.2,3305.7,8174.8,3382.2,8187.4,3231.3z"/>
			<path class="st3" d="M8180.7,3197.7c12.6-150.9-213.5-253.7-779,152.3c271.6-278,446.7-706,266.8-721
				c-152.4-12.7-182.7,74-334.7,395.9c31.5-88.6,41.2-162.6,37.1-220.8c-7.1,17.4-14.8,34.6-22.8,51.5c-14.9,31.4-32.8,61.4-53,89.7
				c-48.4,67.9-103.7,129.1-168.4,181.6c-11.6,11.5-24.6,20.7-38.9,27.6c-54,164.7-200.1,384.6-65.1,495.3
				c160.1,131.3,509.4,15.7,882.5,45.5c92.7,7.4,263.6,19.2,274.4-110.5c6.1-73.6-101.9-292.6-629-74.3
				C7836.5,3272.1,8168.1,3348.6,8180.7,3197.7z"/>
		</g>
		<g>
			<path class="st2" d="M2021.1,3286.3c-149.3-50-335.5-160.1-527.2-393.4c428,31.3,634.9,208.1,634.9,208.1s-342-229.3-663.4-784.6
				c530.1,207.7,753.1,593.1,753.1,593.1s-196.7-323.2-276.4-852.7c460.3,378.9,577.9,861.3,577.9,861.3s-185.5-373.2-22.9-728
				c273.1,618.7,272,808.5,74.1,985.8C2422.2,3309.4,2210.8,3349.7,2021.1,3286.3z"/>
		</g>
		<g>
			<path class="st3" d="M2047.3,3265.3c-149.3-50-335.5-160.1-527.2-393.4c428,31.3,634.9,208.1,634.9,208.1s-342-229.3-663.4-784.6
				c530.1,207.7,753.1,593.1,753.1,593.1s-196.7-323.2-276.4-852.7c460.3,378.9,577.9,861.3,577.9,861.3s-185.5-373.2-22.9-728
				c273.1,618.7,272,808.5,74.1,985.8C2448.4,3288.4,2237,3328.8,2047.3,3265.3z"/>
		</g>
		<g>
			<path class="st2" d="M6385.7,2954.3c-51.7-148.7-78.2-363.4-10.6-657.7c236.6,358,223.1,629.8,223.1,629.8
				s-27.4-410.9,215.9-1004.5c159.4,546.6-9.5,958.6-9.5,958.6s135.8-353.2,506.2-739.7c-18.8,595.9-328.9,983.7-328.9,983.7
				s182.2-374.8,562.4-462.8c-323,594.1-474,709.3-735.2,660.9C6612.4,3286,6451.3,3143.3,6385.7,2954.3z"/>
		</g>
		<g>
			<path class="st3" d="M6399.1,2914c-51.7-148.7-78.2-363.4-10.6-657.7c236.6,358,223.1,629.8,223.1,629.8
				s-27.4-410.9,215.9-1004.5c159.4,546.6-9.5,958.6-9.5,958.6s135.8-353.2,506.2-739.7c-18.8,595.9-328.9,983.7-328.9,983.7
				s182.2-374.8,562.4-462.8c-323,594.1-474,709.3-735.2,660.9C6625.9,3245.7,6464.8,3103,6399.1,2914z"/>
		</g>
		<g>
			<g>
				<path class="st4" d="M5742.1,1223.2c-7.5-20.1-25.7-160-43.3-210.9c-65.5,8.8-2734.1,11.4-2734.1,11.4s-21.7,89.7-39.7,139
					c-7.4,20.3-14.9,40.5-22.4,60.6C2202.7,3094,1190.8,3795.7,1190.8,3795.7h875.6h912.1h900.2h11.8h863.8h11.8h900.2h912.1h875.6
					C7453.9,3795.7,6442,3094,5742.1,1223.2z"/>
				<path class="st5" d="M1155.8,3636.4l4.9,23.3L2945,1223.2c7.5-20.1,15-40.3,22.4-60.6L1155.8,3636.4z"/>
				<path class="st5" d="M5752.2,1162.6c7.4,20.3,14.9,40.5,22.4,60.6l1784.3,2436.6l4.9-23.3L5752.2,1162.6z"/>
				<polygon class="st6" points="1115.4,3691.5 1129.5,3702.3 1160.7,3659.8 1155.8,3636.4 				"/>
				<path class="st7" d="M7486.4,3795.7c0,0-1011.9-701.7-1711.8-2572.5c-7.5-20.1-15-40.2-22.4-60.6c-18-49.3-35.8-99.4-53.4-150.4
					c-17.6,50.9-35.4,101-53.4,150.3c-7.4,20.3-14.9,40.5-22.4,60.6C4923.1,3094,3911.2,3795.7,3911.2,3795.7h875.6
					c0,0-129.9-143.7-214.2-374.1c409.9,38.9,1126.3-1116.4,1126.3-1116.4s716.4,1155.3,1126.3,1116.4
					c-84.3,230.4-214.2,374.1-214.2,374.1H7486.4z"/>
				<path class="st8" d="M5698.8,2305.2c0,0-716.4,1155.3-1126.3,1116.4c84.3,230.4,214.2,374.1,214.2,374.1
					S5341.7,3340.5,5698.8,2305.2z"/>
				<path class="st8" d="M5698.8,2305.2c357.1,1035.3,912.1,1490.5,912.1,1490.5s129.9-143.7,214.2-374.1
					C6415.2,3460.5,5698.8,2305.2,5698.8,2305.2z"/>
				<path class="st4" d="M5698.8,2305.2c-357.1,1035.3-912.1,1490.5-912.1,1490.5h912.1h912.1
					C6610.9,3795.7,6055.9,3340.5,5698.8,2305.2z"/>
				<path class="st9" d="M7518.7,3795.3c0,0-1011.9-701.7-1711.8-2572.5c-7.5-20.1-15-40.2-22.4-60.6c-18-49.3-35.8-99.4-53.4-150.4
					c-17.6,50.9-35.4,101-53.4,150.3c-7.4,20.3-14.9,40.5-22.4,60.6c-699.9,1870.8-1711.8,2572.5-1711.8,2572.5H4819
					c0,0-129.9-143.7-214.2-374.1c409.9,38.9,1126.3-1116.4,1126.3-1116.4s716.4,1155.3,1126.3,1116.4
					c-84.3,230.4-214.2,374.1-214.2,374.1H7518.7z"/>
				<path class="st9" d="M5731.1,2304.8c0,0-716.4,1155.3-1126.3,1116.4c84.3,230.4,214.2,374.1,214.2,374.1
					S5373.9,3340.1,5731.1,2304.8z"/>
				<path class="st9" d="M5731.1,2304.8c357.1,1035.3,912.1,1490.5,912.1,1490.5s129.9-143.7,214.2-374.1
					C6447.4,3460.1,5731.1,2304.8,5731.1,2304.8z"/>
				<path class="st9" d="M5731.1,2304.8C5373.9,3340.1,4819,3795.3,4819,3795.3h912.1h912.1
					C6643.1,3795.3,6088.2,3340.1,5731.1,2304.8z"/>
				<path class="st5" d="M1158.8,3793.6h-61.6v-117.8c0-17,13.8-30.8,30.8-30.8h0c17,0,30.8,13.8,30.8,30.8V3793.6z"/>
				<path class="st5" d="M7613.7,3778.3h-61.6v-117.8c0-17,13.8-30.8,30.8-30.8l0,0c17,0,30.8,13.8,30.8,30.8V3778.3z"/>
				<path class="st9" d="M5731.1,1011.9l-2729.5,11.2c0,0-479.4,1778.9-1771.6,2765.4l2713.5,6.8"/>
			</g>
		</g>
		<g>
			<g>
				<path class="st10" d="M6397.1,3948.1c37.9-35.7,394.8-383.7,394.8-383.7s-102.6,187.4-200.8,261
					C6493,3899,6397.1,3948.1,6397.1,3948.1z"/>
				<path class="st10" d="M6970.4,3450.6c0,0,107.1,211.9,78.1,256.5c-29,44.6-104.8,51.3-104.8,51.3L6970.4,3450.6z"/>
				<path class="st10" d="M6153.6,3475.1c0,0,32.5-49.7,7.2-52.8c-25.3-3.2-43.1,29.5-61,28.4c-17.9-1.1-74.7-13.7-82.1,18.9
					c-7.4,32.6,13.7,120,40,120l18.9,3.2c0,0-25.3-86.3-4.2-102.1S6136.9,3469,6153.6,3475.1z"/>
				<path class="st10" d="M6485,3318.1c0,0-42.1,77.9-62.1,78.9s-34.7-9.5-34.7-9.5s40,85.2,3.2,112.6l14.7-2.1l64.4-117.2
					L6485,3318.1z"/>
				<path class="st10" d="M6379.7,3378.1c-4.3-6.1-136.8-46.3-171.5-6.3c-34.7,40,41,28.4,50.5,28.4s42.1,17.9,42.1,17.9l-35.8,7.4
					l65.2,29.5c0,0-41,32.6-7.4,45.3l-21,7.4l62.1,34.7l27.4-42.1C6391.3,3500.2,6427.1,3445.5,6379.7,3378.1z"/>
				<line class="st10" x1="6214.5" y1="3400.2" x2="6160.8" y2="3422.3"/>
				<line class="st10" x1="6201.9" y1="3551.8" x2="6301.9" y2="3507.6"/>
				<path class="st10" d="M6227.1,3540.2c0,0,35.2,11,22.1,21c-13.7,10.5-43.1,3.2-43.1,3.2"/>
				<path class="st10" d="M6068,3526.5c0-77.1,85.6-51.4,85.6-51.4l134.2,222.7l182.7-316.9c25.8-124,113.3-204.4,184.8-250.9
					c53.6-5.9,124.5,1.3,124.5,1.3s2.5-22-5.3-47.6c89.9,37.4,151.9,224.6,181.4,291.5c31.4,71.4-18.8,550.5-72.4,793.7
					c-49.2,223.7-438.6,311.1-438.6,311.1s-45.7-25.7-137-239.8c-91.4-214.1,31.4-294,31.4-294
					C6130.8,3914.8,6068,3603.6,6068,3526.5z"/>
				<path class="st10" d="M6224.4,2903.4l-2.6-4.5c0,0,16.6-201.2,97.5-215.8c80.9-14.5,147.3-35.3,180.5,4.1
					c33.2,39.4,103.7,139,103.7,139l-3.3,4.4c-44.5,7.3-129.1,22.7-160.5,39.2C6399.7,2890.8,6302.6,2922.1,6224.4,2903.4z"/>
				<path class="st10" d="M6238.3,3129.2c5.7-38.7,2-74.3-2.5-98.5c69.4-0.1,299-58.2,386.9-81.1c24.5,12.2,92.6,57.1,125.9,90.4
					c13.5,13.5,21.3,29.2,25.8,43.7c7.9,25.6,5.3,47.6,5.3,47.6s-70.9-7.2-124.5-1.3c-22.5,2.5-42,7.2-51.8,15.8
					c-33.2,29-114.1,157.7-170.1,176.3c-56,18.7-188.8,4.1-188.8,4.1S6227.9,3199.8,6238.3,3129.2z"/>
				<path class="st10" d="M6203.1,2896.9c6.9,2.7,14,4.8,21.3,6.5c78.2,18.6,175.3-12.6,215.2-33.5c31.5-16.5,116.1-31.9,160.5-39.2
					c17.1-2.8,28.2-4.4,28.2-4.4c29,10.4,29,114.1,29,114.1s-13,3.5-34.7,9.1c-87.9,22.9-317.5,81-386.9,81.1c-9,0-15.3-1-18.3-3.1
					C6186.5,3004.8,6203.1,2896.9,6203.1,2896.9z"/>
				<path class="st10" d="M5582.8,4154.1c-2-14.8-224,4.1-257.2,20.7c-33.2,16.6-6.2,87.1,93.4,105.8s151.4,18.7,151.4,18.7
					s10.4-107.9,45.6-112C5616,4187.3,5586.9,4185.2,5582.8,4154.1z"/>
				<g>
					<path class="st10" d="M5597.3,4203.8c5-5.9,11.8-11.6,19.9-17.1c24.9-16.7,63-31.5,104.7-44c103.7-31.2,230.2-48.8,234.3-48.8
						l2.1,1.9c83.9,108.2,224.5,269.8,359.8,336.8l-334.9,32.7C5495.6,4537.8,5539.2,4272.3,5597.3,4203.8z"/>
					<path class="st10" d="M5582.8,4154.1c8.2-69.2,61.4-213.1,64.3-296.7c4.1-118.2,72.6-163.9,159.7-170.1
						c87.1-6.2,468.8,263.5,504.1,284.2c0,0-41.5,80.9-39.4,166c2.1,85.1,151.4,325.7,151.4,325.7c-33.8-1.8-69.2-12.9-104.9-30.6
						c-135.4-67-275.9-228.5-359.8-336.8c-45.9-59.2-74.9-102.5-76.7-105.6c-42.3-70.4-134.1,109-159.6,152.6
						c-41.8,12.6-79.8,27.3-104.7,44c-0.8,0.3-1.2,0.5-1.2,0.5S5579.4,4182.8,5582.8,4154.1z"/>
				</g>
				<path class="st10" d="M6134.3,4302.7c-8,0-467.3-5.3-467.3-5.3l416.6-58.7L6134.3,4302.7z"/>
			</g>
			<g>
				<path class="st8" d="M6283.6,3390.3l-214.8,41.5l96.4,96.4c0,0,271.3-52.3,266.4-55.6c-4.9-3.3-99.7-104.6-99.7-104.6
					L6283.6,3390.3z"/>
				<path class="st10" d="M6421.9,3938.2c37.9-35.7,394.8-383.7,394.8-383.7s-102.6,187.4-200.8,261
					C6517.9,3889.1,6421.9,3938.2,6421.9,3938.2z"/>
				<path class="st11" d="M6995.2,3440.7c0,0,107.1,211.9,78.1,256.5s-104.8,51.3-104.8,51.3L6995.2,3440.7z"/>
				<path class="st12" d="M6178.5,3465.2c0,0,32.5-49.7,7.2-52.8c-25.3-3.2-43.1,29.5-61,28.4s-74.7-13.7-82.1,18.9
					c-7.4,32.6,13.7,120,40,120l18.9,3.2c0,0-25.3-86.3-4.2-102.1C6118.3,3465.1,6161.8,3459.1,6178.5,3465.2z"/>
				<path class="st11" d="M6509.8,3308.2c0,0-42.1,77.9-62.1,78.9c-20,1.1-34.7-9.5-34.7-9.5s40,85.2,3.2,112.6l14.7-2.1l64.4-117.2
					L6509.8,3308.2z"/>
				<path class="st12" d="M6404.6,3368.2c-4.3-6.1-136.8-46.3-171.5-6.3c-34.7,40,41,28.4,50.5,28.4s42.1,17.9,42.1,17.9l-35.8,7.4
					l65.3,29.5c0,0-41,32.6-7.4,45.3l-21,7.4l62.1,34.7l27.4-42.1C6416.2,3490.3,6451.9,3435.6,6404.6,3368.2z"/>
				<line class="st10" x1="6239.4" y1="3390.3" x2="6185.7" y2="3412.4"/>
				<line class="st10" x1="6226.7" y1="3541.9" x2="6326.7" y2="3497.7"/>
				<path class="st10" d="M6252,3530.3c0,0,35.2,11,22.1,21c-13.7,10.5-43.1,3.2-43.1,3.2"/>
				<path class="st11" d="M6092.8,3516.6c0-77.1,85.6-51.4,85.6-51.4l134.2,222.7l182.7-316.9c25.8-124,113.3-204.4,184.8-250.9
					c53.6-5.9,124.5,1.3,124.5,1.3s2.5-22-5.3-47.6c89.9,37.4,151.9,224.6,181.4,291.5c31.4,71.4-18.8,550.5-72.4,793.7
					c-49.2,223.7-438.6,311.1-438.6,311.1s-45.7-25.7-137-239.8c-91.4-214.1,31.4-294,31.4-294
					C6155.6,3904.9,6092.8,3593.7,6092.8,3516.6z"/>
				<path class="st1" d="M6249.2,2893.5l-2.6-4.5c0,0,16.6-201.2,97.5-215.8c80.9-14.5,147.3-35.3,180.5,4.1
					c33.2,39.4,103.7,139,103.7,139l-3.3,4.4c-44.5,7.3-129.1,22.7-160.5,39.2C6424.5,2880.9,6327.4,2912.2,6249.2,2893.5z"/>
				<path class="st1" d="M6227.9,2887c6.9,2.7,14,4.8,21.3,6.5c78.2,18.6,175.3-12.6,215.2-33.5c31.5-16.5,116.1-31.9,160.5-39.2
					c17.1-2.8,28.2-4.4,28.2-4.4c29,10.4,29,114.1,29,114.1s-13,3.5-34.7,9.1c-87.9,22.9-317.5,81-386.9,81.1c-9,0-15.3-1-18.3-3.1
					C6211.3,2994.9,6227.9,2887,6227.9,2887z"/>
				<g>
					<path class="st7" d="M5622.1,4194c5-5.9,11.8-11.6,19.9-17.1c24.9-16.7,63-31.5,104.7-44c103.7-31.2,230.2-48.8,234.3-48.8
						l2.1,1.9c83.9,108.2,224.5,269.8,359.8,336.8l-334.9,32.7C5520.5,4528,5564,4262.4,5622.1,4194z"/>
					<path class="st7" d="M5607.6,4144.2c8.2-69.2,61.4-213.1,64.3-296.7c4.1-118.2,72.6-163.9,159.7-170.1
						c87.1-6.2,468.8,263.5,504.1,284.2c0,0-41.5,80.9-39.4,166c2.1,85.1,151.4,325.7,151.4,325.7c-33.8-1.8-69.2-12.9-104.9-30.6
						c-135.4-67-275.9-228.5-359.8-336.8c-45.9-59.2-74.9-102.5-76.7-105.6c-42.3-70.4-134.1,109-159.6,152.6
						c-41.8,12.6-79.8,27.3-104.7,44c-0.8,0.3-1.2,0.5-1.2,0.5S5604.2,4173,5607.6,4144.2z"/>
				</g>
				<path class="st7" d="M6159.1,4292.8c-8,0-467.3-5.3-467.3-5.3l416.6-58.7L6159.1,4292.8z"/>
			</g>
			<g>
				<path class="st5" d="M6397.1,3948.1c37.9-35.7,394.8-383.7,394.8-383.7s-102.6,187.4-200.8,261
					C6493,3899,6397.1,3948.1,6397.1,3948.1z"/>
				<path class="st3" d="M6970.4,3450.6c0,0,107.1,211.9,78.1,256.5c-29,44.6-104.8,51.3-104.8,51.3L6970.4,3450.6z"/>
				<path class="st3" d="M6153.6,3475.1c0,0,32.5-49.7,7.2-52.8c-25.3-3.2-43.1,29.5-61,28.4c-17.9-1.1-74.7-13.7-82.1,18.9
					c-7.4,32.6,13.7,120,40,120l18.9,3.2c0,0-25.3-86.3-4.2-102.1S6136.9,3469,6153.6,3475.1z"/>
				<path class="st3" d="M6485,3318.1c0,0-42.1,77.9-62.1,78.9s-34.7-9.5-34.7-9.5s40,85.2,3.2,112.6l14.7-2.1l64.4-117.2
					L6485,3318.1z"/>
				<path class="st3" d="M6379.7,3378.1c-4.3-6.1-136.8-46.3-171.5-6.3c-34.7,40,41,28.4,50.5,28.4s42.1,17.9,42.1,17.9l-35.8,7.4
					l65.2,29.5c0,0-41,32.6-7.4,45.3l-21,7.4l62.1,34.7l27.4-42.1C6391.3,3500.2,6427.1,3445.5,6379.7,3378.1z"/>
				<line class="st3" x1="6214.5" y1="3400.2" x2="6160.8" y2="3422.3"/>
				<line class="st3" x1="6201.9" y1="3551.8" x2="6301.9" y2="3507.6"/>
				<path class="st3" d="M6227.1,3540.2c0,0,35.2,11,22.1,21c-13.7,10.5-43.1,3.2-43.1,3.2"/>
				<path class="st3" d="M6068,3526.5c0-77.1,85.6-51.4,85.6-51.4l134.2,222.7l182.7-316.9c25.8-124,113.3-204.4,184.8-250.9
					c53.6-5.9,124.5,1.3,124.5,1.3s2.5-22-5.3-47.6c89.9,37.4,151.9,224.6,181.4,291.5c31.4,71.4-18.8,550.5-72.4,793.7
					c-49.2,223.7-438.6,311.1-438.6,311.1s-45.7-25.7-137-239.8c-91.4-214.1,31.4-294,31.4-294
					C6130.8,3914.8,6068,3603.6,6068,3526.5z"/>
				<path class="st3" d="M6224.4,2903.4l-2.6-4.5c0,0,16.6-201.2,97.5-215.8c80.9-14.5,147.3-35.3,180.5,4.1
					c33.2,39.4,103.7,139,103.7,139l-3.3,4.4c-44.5,7.3-129.1,22.7-160.5,39.2C6399.7,2890.8,6302.6,2922.1,6224.4,2903.4z"/>
				<path class="st13" d="M6238.3,3129.2c5.7-38.7,2-74.3-2.5-98.5c69.4-0.1,299-58.2,386.9-81.1c24.5,12.2,92.6,57.1,125.9,90.4
					c13.5,13.5,21.3,29.2,25.8,43.7c7.9,25.6,5.3,47.6,5.3,47.6s-70.9-7.2-124.5-1.3c-22.5,2.5-42,7.2-51.8,15.8
					c-33.2,29-114.1,157.7-170.1,176.3c-56,18.7-188.8,4.1-188.8,4.1S6227.9,3199.8,6238.3,3129.2z"/>
				<path class="st3" d="M6203.1,2896.9c6.9,2.7,14,4.8,21.3,6.5c78.2,18.6,175.3-12.6,215.2-33.5c31.5-16.5,116.1-31.9,160.5-39.2
					c17.1-2.8,28.2-4.4,28.2-4.4c29,10.4,29,114.1,29,114.1s-13,3.5-34.7,9.1c-87.9,22.9-317.5,81-386.9,81.1c-9,0-15.3-1-18.3-3.1
					C6186.5,3004.8,6203.1,2896.9,6203.1,2896.9z"/>
				<path class="st13" d="M5582.8,4154.1c-2-14.8-224,4.1-257.2,20.7c-33.2,16.6-6.2,87.1,93.4,105.8s151.4,18.7,151.4,18.7
					s10.4-107.9,45.6-112C5616,4187.3,5586.9,4185.2,5582.8,4154.1z"/>
				<g>
					<path class="st3" d="M5597.3,4203.8c5-5.9,11.8-11.6,19.9-17.1c24.9-16.7,63-31.5,104.7-44c103.7-31.2,230.2-48.8,234.3-48.8
						l2.1,1.9c83.9,108.2,224.5,269.8,359.8,336.8l-334.9,32.7C5495.6,4537.8,5539.2,4272.3,5597.3,4203.8z"/>
					<path class="st3" d="M5582.8,4154.1c8.2-69.2,61.4-213.1,64.3-296.7c4.1-118.2,72.6-163.9,159.7-170.1
						c87.1-6.2,468.8,263.5,504.1,284.2c0,0-41.5,80.9-39.4,166c2.1,85.1,151.4,325.7,151.4,325.7c-33.8-1.8-69.2-12.9-104.9-30.6
						c-135.4-67-275.9-228.5-359.8-336.8c-45.9-59.2-74.9-102.5-76.7-105.6c-42.3-70.4-134.1,109-159.6,152.6
						c-41.8,12.6-79.8,27.3-104.7,44c-0.8,0.3-1.2,0.5-1.2,0.5S5579.4,4182.8,5582.8,4154.1z"/>
				</g>
				<path class="st5" d="M6134.3,4302.7c-8,0-467.3-5.3-467.3-5.3l416.6-58.7L6134.3,4302.7z"/>
			</g>
		</g>
		<g>
			<g>
				<path class="st5" d="M5084.7,3990.3c-6.7-33.7-1.2-64.4,12.1-75.5c-335,168.1-684.6,82.8-1020.3,196.2
					c-43.1,64.8-20.4,109.5,28.4,145.8c333.9-98.8,693.4-93.2,1028.3-200.3C5114.1,4059.6,5092.6,4030.4,5084.7,3990.3z"/>
				<path class="st5" d="M5104.9,3910.6c-0.1,0-0.1,0.1-0.2,0.1C5104.8,3910.7,5104.8,3910.7,5104.9,3910.6
					C5104.9,3910.6,5104.9,3910.6,5104.9,3910.6z"/>
				<path class="st5" d="M5096.8,3914.7c2.6-1.3,5.3-2.7,7.9-4C5101.8,3911.4,5099.2,3912.7,5096.8,3914.7z"/>
				<path class="st5" d="M5154.2,3976.7c-7.6-40.2-29.7-69.8-49-66.1c-0.1,0-0.2,0.1-0.4,0.1c-0.1,0-0.1,0-0.2,0
					c-2.6,1.4-5.2,2.7-7.9,4c-13.3,11.1-18.8,41.8-12.1,75.5c7.9,40.2,29.4,69.4,48.5,66.2c0.1,0,0.3,0,0.4-0.1
					C5152.9,4052.7,5162.2,4017.2,5154.2,3976.7z"/>
			</g>
			<g>
				<path class="st14" d="M5075.1,3974.3c-6.7-33.7-1.2-64.4,12.1-75.5c-335,168.1-684.6,82.8-1020.3,196.2
					c-43.1,64.8-20.4,109.5,28.4,145.8c333.9-98.8,693.4-93.2,1028.3-200.3C5104.5,4043.6,5083,4014.5,5075.1,3974.3z"/>
				<path class="st14" d="M5095.3,3894.6c-0.1,0-0.1,0.1-0.2,0.1C5095.2,3894.7,5095.2,3894.7,5095.3,3894.6
					C5095.3,3894.7,5095.3,3894.6,5095.3,3894.6z"/>
				<path class="st14" d="M5087.2,3898.7c2.6-1.3,5.3-2.7,7.9-4C5092.3,3895.4,5089.6,3896.7,5087.2,3898.7z"/>
				<path class="st14" d="M5144.6,3960.7c-7.6-40.2-29.7-69.8-49-66.1c-0.1,0-0.2,0.1-0.4,0.1c-0.1,0-0.1,0-0.2,0
					c-2.6,1.4-5.2,2.7-7.9,4c-13.3,11.1-18.8,41.8-12.1,75.5c7.9,40.2,29.4,69.4,48.5,66.2c0.1,0,0.3,0,0.4-0.1
					C5143.3,4036.7,5152.6,4001.2,5144.6,3960.7z"/>
			</g>
			<path class="st15" d="M4543.9,4177.5c-335.1-56.4-194.9-190.5-134.4-346.7c85.8-221.2-151.5-202.4-74.9-482.1
				c1.7,48.2,9.9,85.5,23.3,115.2c102.6,230.1,285.5-296.8,175.4-364.1c157.3,84.8,88.2,286.9,49.2,409.6
				c-56.8,178.1,126.2,194.6,123.4,14.4c-0.7-65,7.2-154.2,120.7-265c-72.8,178.5,46.8,286.9-18.5,501.3
				c-52.7,173.4-21.9,52-21.9,243.4C4788.7,4185,4647.5,4182.7,4543.9,4177.5L4543.9,4177.5z M4462.2,3291.3
				c-28.4-185.3,63.9-176.8-57.1-325.5C4419.8,3128.5,4311,3086.8,4462.2,3291.3L4462.2,3291.3z"/>
			<path class="st16" d="M4537.6,4140.1c-17.1-3.1-32.8-6.2-47.5-9.2c-40-167.2,71.8-149.8,59.5-309.8
				c69.8,69.1,36.6,127.2,13,207.9c-12.7,65.3,41.7,81,73.5-10.9c22.6,36.2,34.2,74.2,41.4,112.8
				C4633.4,4143.9,4582.1,4142.2,4537.6,4140.1L4537.6,4140.1z"/>
			<path class="st15" d="M4913.8,3902.8c-0.3-181.6-123.8-224.8-58.5-463.2c-86.5,148.4-82.7,121.1-77.1,281.2
				c-73.7-207.6,24.6-343.2-91.7-503c61.2,186.5-145.6,413-180.2,629.6c-2.8,25.6-3.5,50.9-1.4,75.1
				C4529.1,4195.5,4914.1,4198.9,4913.8,3902.8L4913.8,3902.8z"/>
			<path class="st16" d="M4572.7,4079.9c61.2,56.7,151.2,69.9,223.1,37c5.5-12.1,9-27,8.6-45.7c-44.6-127,8-124.2,6.2-278.8
				c-101.4,254.9-124.5-200.3-118.7-265c-100.7,270.5-0.7,323.8-118.3,543.8C4573.4,4074.4,4573.1,4077.1,4572.7,4079.9
				L4572.7,4079.9z"/>
			<path class="st17" d="M4618.4,4102.7c45.3,23.5,97.9,29.4,146,17c-9-75.1-8.6-117.6,4.5-219.7c-20.4,30.4-40.8,68.1-48.8,113.5
				c-39.8-91.3-25.9-110.3-28-210C4659.9,3932.6,4676.5,4001.4,4618.4,4102.7L4618.4,4102.7z"/>
			<g>
				<path class="st18" d="M4440.8,3298.4c-28.4-185.3,63.9-176.8-57.1-325.5C4398.4,3135.6,4289.7,3093.9,4440.8,3298.4z"/>
				<path class="st18" d="M4892.5,3909.9c-0.3-181.6-123.8-224.8-58.5-463.2c-15.9,27.3-28.7,48.6-39.1,66.3
					c-13.2-80-27.6-154,10.4-247.1c-38.1,37.2-64.3,72-82.3,104.2c-6.3-48-21.7-95.4-57.8-145.1c40.4,122.9-35.8,263.2-102.2,406.6
					c-14.3-23.5-18.6-62.1-1.8-115.1c39-122.7,108-324.8-49.2-409.6c110.1,67.4-72.8,594.3-175.4,364.1
					c-13.3-29.7-21.5-67-23.2-115.2c-76.6,279.7,160.7,260.9,74.9,482.1c-60.5,156.3-200.7,290.3,134.4,346.7
					c68.4,3.4,153.1,5.6,202.2-45.5c17.1-2.8,33.9-7.8,49.8-15.1c1.4-3,2.6-6.2,3.7-9.6C4843,4084,4892.6,4016.3,4892.5,3909.9z"/>
			</g>
			<g>
				<path class="st5" d="M5155.3,4114.5c-297.8-72-592.4,5-891.6-61.1c-19.6-14.5-38.8-31.1-57.3-50c-4.1,4.5-7.8,8.6-11.9,13
					c3,7.5,6.2,14.8,9.5,21.8c-27.6-8-55.3-17.3-83-28.3c14.4,9.8,22.6,40,19.2,74.5c-4.4,40.3-23.2,71.8-42.5,70.1
					c343.2,76.7,700.9,39,1042.4,107.4C5185.1,4221.5,5203.8,4175.4,5155.3,4114.5z"/>
				<path class="st5" d="M4112.9,4006.8C4112.9,4006.8,4112.9,4006.8,4112.9,4006.8c0.1,0.1,0.1,0.1,0.2,0.1
					C4113,4006.8,4113,4006.8,4112.9,4006.8z"/>
				<path class="st5" d="M4113.1,4006.9c2.6,1.1,5.3,2.1,7.9,3.2C4118.5,4008.3,4115.9,4007.3,4113.1,4006.9z"/>
				<path class="st5" d="M4121,4010c-2.6-1-5.3-2.1-7.9-3.2c-0.1,0-0.1,0-0.2,0c-0.1,0-0.2,0-0.4-0.1c-19.8-1.8-38.9,29.5-42.9,70.4
					c-4.4,40.9,8.2,75.6,27.6,77.4c0.1,0,0.3,0,0.4,0c19.3,1.7,38.2-29.8,42.5-70.1C4143.6,4050,4135.4,4019.8,4121,4010z"/>
			</g>
			<g>
				<path class="st14" d="M5145.7,4098.5c-297.8-72-592.4,5-891.6-61.1c-19.6-14.5-38.8-31.1-57.3-50c-4.1,4.5-7.8,8.6-11.9,13
					c3,7.5,6.2,14.8,9.5,21.8c-27.6-8-55.3-17.3-83-28.3c14.4,9.8,22.6,40,19.2,74.5c-4.4,40.3-23.2,71.8-42.5,70.1
					c343.2,76.7,700.9,39,1042.4,107.4C5175.5,4205.5,5194.2,4159.4,5145.7,4098.5z"/>
				<path class="st14" d="M4103.3,3990.8C4103.3,3990.8,4103.3,3990.8,4103.3,3990.8c0.1,0.1,0.1,0.1,0.2,0.1
					C4103.4,3990.9,4103.4,3990.8,4103.3,3990.8z"/>
				<path class="st14" d="M4103.5,3990.9c2.6,1.1,5.3,2.1,7.9,3.2C4108.9,3992.4,4106.3,3991.3,4103.5,3990.9z"/>
				<path class="st14" d="M4111.4,3994c-2.6-1-5.3-2.1-7.9-3.2c-0.1,0-0.1,0-0.2,0c-0.1,0-0.2,0-0.4-0.1
					c-19.8-1.8-38.9,29.5-42.9,70.4c-4.4,40.9,8.2,75.6,27.6,77.4c0.1,0,0.3,0,0.4,0c19.3,1.7,38.2-29.8,42.5-70.1
					C4134,4034,4125.8,4003.9,4111.4,3994z"/>
			</g>
		</g>
		<g>
			<g>
				<g>
					<path class="st10" d="M3496,2873.9c11.4,13.9,24.5,31.2,24.1,39.4c-0.6,14.1-12.6,18-22,12.6c-2.7-1.6-7.7-2.3-13.3-3"/>
					<g>
						<path class="st10" d="M3167.2,3800.4c0,0,5,25.4,13.3,58.3c-15.3,2.1-29.6,4.1-42.5,6
							C3157.6,3826.1,3167.2,3800.4,3167.2,3800.4z"/>
						<path class="st10" d="M2766,2983.4c-6-48,25.5-64.5,58.5-90c33-25.5,226-1.7,248.5-15.2c5.8-3.5-3.5,13.1,0.9,15.3
							c12.6,6.4,22.7,7.2,29.4,21.3c3,6.3,6.6,13.3,10.8,20.5c7.6,13.1,17.2,26.8,28.5,37.5c20.6,19.6,47.7,73.3,63.5,110.2
							c-10.1-6.4-21.4-12.5-33.5-18.3c-58.6-28.1-133.2-47.6-156-48.4c0,0-103.5,1.5-129,34.5c-25.5,33-87,45-87,45
							c-1.9,0.8-6.5,6.7-13.2,16.4c-16.3,4.8-28.8,4.6-33.4-5.9C2738.9,3072,2772,3031.5,2766,2983.4z"/>
						<path class="st10" d="M2548.4,3466.6c74.9-86.5,197.6-294.1,238.9-354.2c6.7-9.7,11.3-15.6,13.2-16.4c0,0,61.5-12,87-45
							c25.5-33,129-34.5,129-34.5c22.9,0.9,97.4,20.4,156,48.4c12,5.8,23.4,11.9,33.5,18.3c20.1,12.7,35.2,26.6,40.8,40.8
							c1.2,3.2,2,6.3,2.3,9.5c0,0.6,0.1,1.2,0.2,1.8c6.5,53.4,131.1,211.9,176.6,289.7c7.5,12.9,12.9,23.5,15.2,31.1
							c16.5,54,187.5,220.6,84,307.6c-39.3,33-73.2,62.3-79.8,47.8c-10.2-22.6-35.4-59.3-49.8-108.2c-32.7-71.3-56.8-124.3-60-132.5
							c-1.5-3.9-4.8-9.1-9.6-15.1c-29.6-36.9-116.9-102-196.1-68.1c-91.9,39.4-504.7,335-504.7,335c-2.5-0.8-268.9,7-284.4,30.3
							c-15.8,4.6-26.6,6.5-31.1,4.9C2263.3,3841.2,2461.4,3567.1,2548.4,3466.6z"/>
						<path class="st10" d="M3620,4231.3c0,0,107.2,83.1,142.2,76.6c35-6.6,80.9,45.9,80.9,45.9s-148.8,87.5-177.2,94.1
							c-28.4,6.6-185.9-26.2-192.5-30.6c-6.1-4-25.2-134.8-28.1-167l140.3-72.5L3620,4231.3z"/>
						<path class="st10" d="M3107.5,4129.7c4.5-3.5,7.2-5.5,7.2-5.5S3112.2,4126.1,3107.5,4129.7z"/>
						<path class="st10" d="M3539.1,3852.9c27.3,39.3,65.3,137.2,20.3,205.4c-28.9-62.5-66.7-144.4-103.1-223.1
							C3499.2,3835.8,3530.6,3840.8,3539.1,3852.9z"/>
						<path class="st10" d="M2340.9,3852.8c15.5-23.2,281.9-31.1,284.4-30.3c0,0,412.8-295.6,504.7-335
							c79.1-33.9,166.4,31.2,196.1,68.1c4.8,5.9,8.1,11.1,9.6,15.1c3.2,8.2,27.3,61.2,60,132.5c14.4,48.9,39.5,85.6,39.5,85.6
							s3,15.1,10.2,22.6c3.6,7.8,7.3,15.7,10.9,23.7c36.3,78.8,74.1,160.6,103.1,223.1c29.5,63.7,49.7,107.4,49.7,107.4l-23.3,12.1
							l-140.3,72.5l-31,16c0,0-22.5-42.5-54.8-95.9c-35.3-58.4-82.3-129.8-124.6-173.2c-21.8-22.4-41.9-89-54.5-138.6
							c-8.3-32.9-13.3-58.3-13.3-58.3s-9.6,25.8-29.1,64.3c-51.9,102.7-174,296.2-371.2,336c-53.6,10.8-98.7,13.2-136.6,9.4
							c-154.2-15.7-307.4-110.1-326.7-194.4C2288.7,3951.1,2316.1,3889.9,2340.9,3852.8z"/>
						<path class="st10" d="M2981.2,4235.7c28.6-14.3,136.4,10.3,174.6,19.7c3.8,22.7,18.7,59.7,75.4,70.8
							c83.7,16.4,103.8,47.3,103.8,47.3s51,43.7-5.5,56.4c-56.4,12.7-407.7-10.9-436.8-36.4s-32.8-72.8-1.8-76.4
							C2890.9,4317.1,2971.2,4240.7,2981.2,4235.7z"/>
						<path class="st10" d="M2630.2,4210.1c38,3.9,83,1.4,136.6-9.4c197.2-39.8,319.3-233.3,371.2-336c12.8-1.9,27.1-3.9,42.5-6
							c12.6,49.6,32.6,116.2,54.5,138.6c42.3,43.4,89.3,114.8,124.6,173.2c-98.6,45.4-190.2,88.3-190.2,88.3s-5.1-1.3-13.5-3.4
							c-38.2-9.4-145.9-34-174.6-19.7c-10.1,5-3.3-2.1,11.5-14.7c30.1-25.8,93.5-74.9,114.8-91.3c4.7-3.5,7.2-5.5,7.2-5.5
							s-2.6,2-7.2,5.5C3060.5,4165,2793.3,4353.9,2630.2,4210.1z"/>
						<path class="st10" d="M3130,3487.6c-4.9-3.7-43.8-6.2-67.8-23.4c-34.5-24.7-56.4-65.7-56.4-65.7s-45.2,75-107.6,159.9
							c-15.5,21.1-90.8,33.3-108,54.6c-34.4,42.7-12.6,93.4-48.6,124.8L3130,3487.6z"/>
						<path class="st10" d="M3142.5,2972.9c0,0-155.5-26.3-259.7-61c-104.3-34.8,5.4-31.9,5.4-31.9l184.8-1.8
							c0,0-48.6,23.6-20.3,21.2S3142.5,2972.9,3142.5,2972.9z"/>
						<path class="st10" d="M2630.2,4210.1c0,0,193.9,37,383-161.1l96.8-130.1c0,0-72.6,173.9-180,242
							c-107.4,68.1-222.3,92.2-222.3,92.2S2646.5,4241.2,2630.2,4210.1z"/>
						<path class="st10" d="M3002.6,4230.4l167.7-131.3c6.6-5.2,0.6-15.6-7.2-12.5c-79.8,31.9-234.3,91.2-270.9,87.8
							c-49.9-4.5-202.6,66.5-202.6,66.5s68.1,54.4,254.1-18.1l111.9-49.9l-81.7,65.2L3002.6,4230.4z"/>
						<path class="st10" d="M3180.5,3858.7c0,0-49.1,119.7-27,151.8c13.5,19.6,206.1,160,206.1,160l-48.4-76.1l-55.1-76.5
							C3256.1,4017.9,3216.2,3999.7,3180.5,3858.7z"/>
						<path class="st10" d="M2890.9,4317.1c0,0,310.1,14.3,354.1,15.4c26.6,0.7,118.1,37.3,109.6,83.1
							c-8.5,45.8-289.3,6.2-301.1,6.2c-11.9,0-120.3-1.1-155.9-24.3C2862,4374.3,2855.9,4326.5,2890.9,4317.1z"/>
						<polygon class="st10" points="3167.2,3800.4 3160.7,3686 3102.9,3931.2 						"/>
					</g>
					<path class="st10" d="M3491.4,2753.6c17,44.8,14.5,213.2-21.6,242.7c-38.2,31.2-183.9,56.5-183.9,56.5l-56.7,50.3
						c0,0-186.2-66.4-186.2-93.5c0-27.1,71.5-206.9,71.5-206.9L3491.4,2753.6z"/>
					<path class="st10" d="M3399.9,2839.9c0,0-30.2-12.3-40.3,12.3c-10.1,24.6,12.4,65.8,47.7,65.8"/>
					<path class="st10" d="M3044.7,2821.6c103.3-40.4,1.1-124.6,36.6-138.9c35.5-14.3,21.6-112.1,88.4-96.7
						c66.3,15.3,100.8-53.8,182.4-12.9c13.8,6.9,22.4-16.1,35.9-9.8l-1.4-2c0.7,0.8,1.3,1.6,2,2.3c8,3.7,15.8,7.4,23.5,11.1
						c34.6,59.1-74.7,88.9-12.3,55c41.4-22.5,145,111.4,132.4,140.7c-6.8,25.6-25.2,76.6-62,71.6c-48.9-6.7-142.3-41.5-120.6,44.1
						c6.3,25.1-14-35.7-86.4,47.2c-26.9,30.8-123.2,23.8-128.9,1.9s15.3-48.7,15.3-48.7l-31.6,20.6
						C3118,2907.2,2998.7,2839.5,3044.7,2821.6z"/>
					<path class="st10" d="M3621.9,2704.8c8,19.5-462,218.6-545.5,103.8c-26-35.7-39.5-227.8,171.7-267.6
						c191.1-36.1,262.1,162.9,262.1,162.9S3607.5,2669.8,3621.9,2704.8z"/>
				</g>
			</g>
			<g>
				<g>
					<path class="st19" d="M3514.8,2874.8c11.4,13.9,24.5,31.2,24.1,39.4c-0.6,14.1-12.6,18-22,12.6c-2.7-1.6-7.7-2.3-13.3-3"/>
					<path class="st19" d="M3510.2,2754.4c17,44.8,14.5,213.2-21.6,242.7c-38.2,31.2-183.9,56.5-183.9,56.5l-68.2,47.2
						c0,0-144.7-194.7-144.7-221.8c0-27.1,41.6-75.5,41.6-75.5L3510.2,2754.4z"/>
					<g>
						<path class="st2" d="M3186,3801.2c0,0,5,25.4,13.3,58.3c-15.3,2.1-29.6,4.1-42.5,6C3176.4,3827,3186,3801.2,3186,3801.2z"/>
						<path class="st1" d="M2784.8,2984.3c-6-48,25.5-64.5,58.5-90c33-25.5,226-1.7,248.5-15.2c5.8-3.5-3.5,13.1,0.9,15.3
							c12.6,6.4,22.7,7.2,29.4,21.3c3,6.3,6.6,13.3,10.8,20.5c7.6,13.1,17.2,26.8,28.5,37.5c20.6,19.6,47.7,73.3,63.5,110.2
							c-10.1-6.4-21.4-12.5-33.5-18.3c-58.6-28.1-133.2-47.6-156-48.4c0,0-103.5,1.5-129,34.5c-25.5,33-87,45-87,45
							c-1.9,0.8-6.5,6.7-13.2,16.4c-16.3,4.8-28.8,4.6-33.4-5.9C2757.8,3072.8,2790.8,3032.3,2784.8,2984.3z"/>
						<path class="st1" d="M2567.2,3467.4c74.9-86.5,197.6-294.1,238.9-354.2c6.7-9.7,11.3-15.6,13.2-16.4c0,0,61.5-12,87-45
							c25.5-33,129-34.5,129-34.5c22.9,0.9,97.4,20.4,156,48.4c12,5.8,23.4,11.9,33.5,18.3c20.1,12.7,35.2,26.6,40.8,40.8
							c1.2,3.2,2,6.3,2.3,9.5c0,0.6,0.1,1.2,0.2,1.8c6.5,53.4,131.1,211.9,176.6,289.7c7.5,12.9,12.9,23.5,15.2,31.1
							c16.5,54,187.5,220.6,84,307.6c-39.3,33-73.2,62.3-79.8,47.8c-10.2-22.6-35.4-59.3-49.8-108.2c-32.7-71.3-56.8-124.3-60-132.5
							c-1.5-3.9-4.8-9.1-9.6-15.1c-29.6-36.9-116.9-102-196.1-68.1c-91.9,39.4-504.7,335-504.7,335c-2.5-0.8-268.9,7-284.4,30.3
							c-15.8,4.6-26.6,6.5-31.1,4.9C2282.2,3842,2480.2,3567.9,2567.2,3467.4z"/>
						<path class="st10" d="M3638.8,4232.2c0,0,107.2,83.1,142.2,76.6c35-6.6,80.9,45.9,80.9,45.9s-148.8,87.5-177.2,94.1
							s-185.9-26.2-192.5-30.6c-6.1-4-25.2-134.8-28.1-167l140.3-72.5L3638.8,4232.2z"/>
						<path class="st2" d="M3126.3,4130.5c4.5-3.5,7.2-5.5,7.2-5.5S3131,4127,3126.3,4130.5z"/>
						<path class="st2" d="M3557.9,3853.7c27.3,39.3,65.3,137.2,20.3,205.4c-28.9-62.5-66.7-144.4-103.1-223.1
							C3518,3836.6,3549.5,3841.6,3557.9,3853.7z"/>
						<path class="st2" d="M2359.8,3853.6c15.5-23.2,281.9-31.1,284.4-30.3c0,0,412.8-295.6,504.7-335
							c79.1-33.9,166.4,31.2,196.1,68.1c4.8,5.9,8.1,11.1,9.6,15.1c3.2,8.2,27.3,61.2,60,132.5c14.4,48.9,39.5,85.6,39.5,85.6
							s3,15.1,10.2,22.6c3.6,7.8,7.3,15.7,10.9,23.7c36.3,78.8,74.1,160.6,103.1,223.1c29.5,63.7,49.7,107.4,49.7,107.4l-23.3,12.1
							l-140.3,72.5l-31,16c0,0-22.5-42.5-54.8-95.9c-35.3-58.4-82.3-129.8-124.6-173.2c-21.8-22.4-41.9-89-54.5-138.6
							c-8.3-32.9-13.3-58.3-13.3-58.3s-9.6,25.8-29.1,64.3c-51.9,102.7-174,296.2-371.2,336c-53.6,10.8-98.7,13.2-136.6,9.4
							c-154.2-15.7-307.4-110.1-326.7-194.4C2307.6,3952,2335,3890.7,2359.8,3853.6z"/>
						<path class="st5" d="M3000.1,4236.6c28.6-14.3,136.4,10.3,174.6,19.7c3.8,22.7,18.7,59.7,75.4,70.8
							c83.7,16.4,103.8,47.3,103.8,47.3s51,43.7-5.5,56.4c-56.4,12.7-407.7-10.9-436.8-36.4c-29.1-25.5-32.8-72.8-1.8-76.4
							C2909.7,4317.9,2990,4241.6,3000.1,4236.6z"/>
						<path class="st2" d="M2649.1,4210.9c38,3.9,83,1.4,136.6-9.4c197.2-39.8,319.3-233.3,371.2-336c12.8-1.9,27.1-3.9,42.5-6
							c12.6,49.6,32.6,116.2,54.5,138.6c42.3,43.4,89.3,114.8,124.6,173.2c-98.6,45.4-190.2,88.3-190.2,88.3s-5.1-1.3-13.5-3.4
							c-38.2-9.4-145.9-34-174.6-19.7c-10.1,5-3.3-2.1,11.5-14.7c30.1-25.8,93.5-74.9,114.8-91.3c4.7-3.5,7.2-5.5,7.2-5.5
							s-2.6,2-7.2,5.5C3079.3,4165.9,2812.2,4354.7,2649.1,4210.9z"/>
						<path class="st1" d="M3148.8,3488.4c-4.9-3.7-43.8-6.2-67.8-23.4c-34.5-24.7-56.4-65.7-56.4-65.7s-45.2,75-107.6,159.9
							c-15.5,21.1-90.8,33.3-108,54.6c-34.4,42.7-12.6,93.4-48.6,124.8L3148.8,3488.4z"/>
						<path class="st10" d="M3161.4,2973.8c0,0-155.5-26.3-259.7-61c-104.3-34.8,5.4-31.9,5.4-31.9l184.8-1.8
							c0,0-48.6,23.6-20.3,21.2S3161.4,2973.8,3161.4,2973.8z"/>
						<path class="st2" d="M2649.1,4210.9c0,0,193.9,37,383-161.1l96.8-130.1c0,0-72.6,173.9-180,242
							c-107.4,68.1-222.3,92.2-222.3,92.2S2665.3,4242,2649.1,4210.9z"/>
						<path class="st2" d="M3021.4,4231.3l167.7-131.3c6.6-5.2,0.6-15.6-7.2-12.5c-79.8,31.9-234.3,91.2-270.9,87.8
							c-49.9-4.5-202.6,66.5-202.6,66.5s68.1,54.4,254.1-18.1l111.9-49.9l-81.7,65.2L3021.4,4231.3z"/>
						<path class="st2" d="M3199.4,3859.5c0,0-49.1,119.7-27,151.8c13.5,19.6,206.1,160,206.1,160l-48.4-76.1l-55.1-76.5
							C3274.9,4018.7,3235,4000.6,3199.4,3859.5z"/>
						<path class="st10" d="M2909.7,4317.9c0,0,310.1,14.3,354.1,15.4c26.6,0.7,118.1,37.3,109.6,83.1
							c-8.5,45.8-289.3,6.2-301.1,6.2s-120.3-1.1-155.9-24.3C2880.8,4375.1,2874.8,4327.4,2909.7,4317.9z"/>
						<polygon class="st2" points="3186,3801.2 3179.5,3686.8 3121.7,3932.1 						"/>
					</g>
					<path class="st11" d="M3063.5,2822.4c103.3-40.4,1.1-124.6,36.6-138.9c35.5-14.3,21.6-112.1,88.4-96.7
						c66.3,15.3,100.8-53.8,182.4-12.9c13.8,6.9,22.4-16.1,35.9-9.8l-1.4-2c0.7,0.8,1.3,1.6,2,2.3c8,3.7,15.8,7.4,23.5,11.1
						c34.6,59.1-74.7,88.9-12.3,55c41.4-22.5,145,111.4,132.4,140.7c-6.8,25.6-25.2,76.6-62,71.6c-48.9-6.7-142.3-41.5-120.6,44.1
						c6.3,25.1-14-35.7-86.4,47.2c-26.9,30.8-123.2,23.8-128.9,1.9s15.3-48.7,15.3-48.7l-31.6,20.6
						C3136.9,2908.1,3017.5,2840.4,3063.5,2822.4z"/>
					<path class="st7" d="M3640.7,2705.7c8,19.5-462,218.6-545.5,103.8c-26-35.7-39.5-227.8,171.7-267.6
						c191.1-36.1,262.1,162.9,262.1,162.9S3626.3,2670.7,3640.7,2705.7z"/>
				</g>
			</g>
			<g>
				<g>
					<path class="st3" d="M3495.6,2872.1c11.4,13.9,24.5,31.2,24.1,39.4c-0.6,14.1-12.6,18-22,12.6c-2.7-1.6,5.5,0.7,0,0"/>
					<g>
						<path class="st20" d="M3166.7,3798.6c0,0,5,25.4,13.3,58.3c-15.3,2.1-29.6,4.1-42.5,6
							C3157.1,3824.3,3166.7,3798.6,3166.7,3798.6z"/>
						<path class="st3" d="M2765.5,2981.7c-6-48,25.5-64.5,58.5-90c33-25.5,226-1.7,248.5-15.2c5.8-3.5-3.5,13.1,0.9,15.3
							c12.6,6.4,22.7,7.2,29.4,21.3c3,6.3,6.6,13.3,10.8,20.5c7.6,13.1,17.2,26.8,28.5,37.5c20.6,19.6,47.7,73.3,63.5,110.2
							c-10.1-6.4-21.4-12.5-33.5-18.3c-58.6-28.1-133.2-47.6-156-48.4c0,0-103.5,1.5-129,34.5c-25.5,33-87,45-87,45
							c-1.9,0.8-6.5,6.7-13.2,16.4c-16.3,4.8-28.8,4.6-33.4-5.9C2738.5,3070.2,2771.5,3029.7,2765.5,2981.7z"/>
						<path class="st3" d="M2547.9,3464.8c74.9-86.5,197.6-294.1,238.9-354.2c6.7-9.7,11.3-15.6,13.2-16.4c0,0,61.5-12,87-45
							c25.5-33,129-34.5,129-34.5c22.9,0.9,97.4,20.4,156,48.4c12,5.8,23.4,11.9,33.5,18.3c20.1,12.7,35.2,26.6,40.8,40.8
							c1.2,3.2,2,6.3,2.3,9.5c0,0.6,0.1,1.2,0.2,1.8c6.5,53.4,131.1,211.9,176.6,289.7c7.5,12.9,12.9,23.5,15.2,31.1
							c16.5,54,187.5,220.6,84,307.6c-39.3,33-73.2,62.3-79.8,47.8c-10.2-22.6-35.4-59.3-49.8-108.2c-32.7-71.3-56.8-124.3-60-132.5
							c-1.5-3.9-4.8-9.1-9.6-15.1c-29.6-36.9-116.9-102-196.1-68.1c-91.9,39.4-504.7,335-504.7,335c-2.5-0.8-268.9,7-284.4,30.3
							c-15.8,4.6-26.6,6.5-31.1,4.9C2262.9,3839.4,2460.9,3565.3,2547.9,3464.8z"/>
						<path class="st21" d="M3619.5,4229.5c0,0,107.2,83.1,142.2,76.6c35-6.6,80.9,45.9,80.9,45.9s-148.8,87.5-177.2,94.1
							s-185.9-26.2-192.5-30.6c-6.1-4-25.2-134.8-28.1-167l140.3-72.5L3619.5,4229.5z"/>
						<path class="st3" d="M3107,4127.9c4.5-3.5,7.2-5.5,7.2-5.5S3111.7,4124.4,3107,4127.9z"/>
						<path class="st3" d="M3538.6,3851.1c27.3,39.3,65.3,137.2,20.3,205.4c-28.9-62.5-66.7-144.4-103.1-223.1
							C3498.7,3834,3530.2,3839,3538.6,3851.1z"/>
						<path class="st3" d="M2340.5,3851c15.5-23.2,281.9-31.1,284.4-30.3c0,0,412.8-295.6,504.7-335
							c79.1-33.9,166.4,31.2,196.1,68.1c4.8,5.9,8.1,11.1,9.6,15.1c3.2,8.2,27.3,61.2,60,132.5c14.4,48.9,39.5,85.6,39.5,85.6
							s3,15.1,10.2,22.6c3.6,7.8,7.3,15.7,10.9,23.7c36.3,78.8,74.1,160.6,103.1,223.1c29.5,63.7,49.7,107.4,49.7,107.4l-23.3,12.1
							l-140.3,72.5l-31,16c0,0-22.5-42.5-54.8-95.9c-35.3-58.4-82.3-129.8-124.6-173.2c-21.8-22.4-41.9-89-54.5-138.6
							c-8.3-32.9-13.3-58.3-13.3-58.3s-9.6,25.8-29.1,64.3c-51.9,102.7-174,296.2-371.2,336c-53.6,10.8-98.7,13.2-136.6,9.4
							c-154.2-15.7-307.4-110.1-326.7-194.4C2288.3,3949.3,2315.7,3888.1,2340.5,3851z"/>
						<path class="st3" d="M2980.8,4233.9c28.6-14.3,136.4,10.3,174.6,19.7c3.8,22.7,18.7,59.7,75.4,70.8
							c83.7,16.4,103.8,47.3,103.8,47.3s51,43.7-5.5,56.4c-56.4,12.7-407.7-10.9-436.8-36.4c-29.1-25.5-32.8-72.8-1.8-76.4
							C2890.4,4315.3,2970.7,4238.9,2980.8,4233.9z"/>
						<path class="st3" d="M2629.8,4208.3c38,3.9,83,1.4,136.6-9.4c197.2-39.8,319.3-233.3,371.2-336c12.8-1.9,27.1-3.9,42.5-6
							c12.6,49.6,32.6,116.2,54.5,138.6c42.3,43.4,89.3,114.8,124.6,173.2c-98.6,45.4-190.2,88.3-190.2,88.3s-5.1-1.3-13.5-3.4
							c-38.2-9.4-145.9-34-174.6-19.7c-10.1,5-3.3-2.1,11.5-14.7c30.1-25.8,194.2-153.1,215.5-169.5c4.7-3.5-93.5,72.7-93.5,72.7
							s-2.6,2-7.2,5.5C3060,4163.2,2792.9,4352.1,2629.8,4208.3z"/>
						<path class="st5" d="M3129.5,3485.8c-4.9-3.7-43.8-6.2-67.8-23.4c-34.5-24.7-56.4-65.7-56.4-65.7s-45.2,75-107.6,159.9
							c-15.5,21.1-90.8,33.3-108,54.6c-34.4,42.7-12.6,93.4-48.6,124.8L3129.5,3485.8z"/>
						<path class="st5" d="M3142.1,2971.1c0,0-155.5-26.3-259.7-61s5.4-31.9,5.4-31.9l184.8-1.8c0,0-48.6,23.6-20.3,21.2
							S3142.1,2971.1,3142.1,2971.1z"/>
						<path class="st5" d="M2629.8,4208.3c0,0,193.9,37,383-161.1l96.8-130.1c0,0-72.6,173.9-180,242
							c-107.4,68.1-222.3,92.2-222.3,92.2S2646,4239.4,2629.8,4208.3z"/>
						<path class="st5" d="M3180.1,3856.9c0,0-49.1,119.7-27,151.8c13.5,19.6,206.1,160,206.1,160l-48.4-76.1l-55.1-76.5
							C3255.6,4016.1,3215.8,3997.9,3180.1,3856.9z"/>
						<path class="st5" d="M2890.4,4315.3c0,0,310.1,14.3,354.1,15.4c26.6,0.7,118.1,37.3,109.6,83.1c-8.5,45.8-289.3,6.2-301.1,6.2
							s-120.3-1.1-155.9-24.3C2861.5,4372.5,2855.5,4324.7,2890.4,4315.3z"/>
						<polygon class="st5" points="3166.7,3798.6 3160.2,3684.2 3102.4,3929.4 						"/>
					</g>
					<path class="st3" d="M3228.8,3101.3l56.7-50.3c0,0,145.7-25.4,183.9-56.5c22.3-18.2,31.8-89.2,31.8-151.5"/>
					<path class="st3" d="M3408.5,2840.4c0,0-30.2-12.3-40.3,12.3c-10.1,24.6,12.4,65.8,47.7,65.8"/>
					<path class="st3" d="M3621.4,2703c8,19.5-462,218.6-545.5,103.8c-26-35.7-39.5-227.8,171.7-267.6
						c191.1-36.1,262.1,162.9,262.1,162.9S3607,2668,3621.4,2703z"/>
				</g>
			</g>
			<path class="st3" d="M3532.3,2770.5c0,0,20,82.6-129.8,36.6"/>
			<path class="st3" d="M3171.3,2929.6c0-8.2,1.6-55.1,46.1-70.8"/>
			<path class="st3" d="M3205.8,2839.1c0,0-79,37-77.4,50.2"/>
			<path class="st3" d="M3364.7,2816.9c0,0-6.6,78.2-60.9,51.8c0,0-46.9-29.6-51,1.6"/>
			<path class="st3" d="M3312,2885.2c0,0-47.7,31.3-32.9,63.4"/>
			<path class="st3" d="M3296.4,2883.5c0,0-51.8,14-46.1,37.9"/>
			<path class="st3" d="M3143.3,2825.1c0,0-44.6,38.1-71.6,17.3"/>
		</g>
	</g>
</g>
</svg>
