<?xml version="1.0" encoding="utf-8"?>
<!-- Generator: Adobe Illustrator 23.0.6, SVG Export Plug-In . SVG Version: 6.00 Build 0)  -->
<svg version="1.1" id="Layer_1" xmlns="http://www.w3.org/2000/svg" xmlns:xlink="http://www.w3.org/1999/xlink" x="0px" y="0px"
	 viewBox="0 0 9000 5000" style="enable-background:new 0 0 9000 5000;" xml:space="preserve">
<style type="text/css">
	.st0{fill:#F4F4F4;}
	.st1{fill:#F5C65D;}
	.st2{fill:#61A575;}
	.st3{fill:none;stroke:#54575C;stroke-width:8;stroke-miterlimit:10;}
	.st4{fill:#235485;}
	.st5{fill:#54575C;}
	.st6{fill:#8B2926;}
	.st7{fill:#4890BA;}
	.st8{fill:#DCEFFA;}
	.st9{fill:none;stroke:#575756;stroke-width:8;stroke-miterlimit:10;}
	.st10{fill:#FFFFFF;}
	.st11{fill:#E0635D;}
	.st12{fill:#C58D6E;}
	.st13{fill:#54575C;stroke:#54575C;stroke-width:7.9903;stroke-miterlimit:10;}
	.st14{fill:none;stroke:#54575C;stroke-width:8;stroke-linecap:round;stroke-linejoin:round;stroke-miterlimit:10;}
	.st15{fill-rule:evenodd;clip-rule:evenodd;fill:#E0635D;}
	.st16{fill-rule:evenodd;clip-rule:evenodd;fill:#E88C80;}
	.st17{fill-rule:evenodd;clip-rule:evenodd;fill:#F5C65D;}
	.st18{fill-rule:evenodd;clip-rule:evenodd;fill:none;stroke:#54575C;stroke-width:8;stroke-miterlimit:10;}
	.st19{fill:#FAD7C9;}
	.st20{fill:none;}
	.st21{fill:#54575C;stroke:#54575C;stroke-width:5.9079;stroke-miterlimit:10;}
</style>
<rect x="-145.73" y="-33.51" class="st0" width="9344.7" height="5143.38"/>
<g>
	<circle class="st1" cx="6035.12" cy="1913.78" r="1255.9"/>
	<g>
		<g>
			<path class="st2" d="M1753.96,3657.78c-143.97-18.88-440.2-41.64-654.91-218.97c392.94-47.12,719.73,32.23,719.73,32.23
				s-275.55-14.55-664.36-460.46c516.45,94.52,711.84,271.32,711.84,271.32s-452.53-369.04-618.04-834.21
				c483.44,261.82,892.46,788.85,892.46,788.85s-233.71-305.11-149.09-654.93c356.29,511.87,388.83,683.89,240.94,879.23
				C2121.16,3607.96,1936.91,3681.78,1753.96,3657.78z"/>
		</g>
		<g>
			<path class="st3" d="M1766.21,3629.35c-143.97-18.89-440.2-41.64-654.91-218.97c392.94-47.12,719.73,32.23,719.73,32.23
				s-275.55-14.55-664.36-460.46c516.45,94.52,711.84,271.32,711.84,271.32s-452.53-369.04-618.04-834.21
				c483.44,261.82,892.46,788.85,892.46,788.85s-233.71-305.11-149.09-654.94c356.29,511.87,388.83,683.89,240.94,879.23
				C2133.4,3579.53,1949.16,3653.35,1766.21,3629.35z"/>
		</g>
		<g>
			<path class="st2" d="M7900.49,3190.58c11.62-139.15-196.93-233.93-718.39,140.4c250.43-256.33,411.97-651.06,246-664.92
				c-140.58-11.74-168.52,68.26-308.69,365.06c35.81-100.68,41.01-180.96,29.62-238.53c-6.97,17.46-14.64,34.63-22.65,51.49
				c-13.77,28.98-30.29,56.61-48.9,82.74c-44.62,62.64-95.6,119.03-155.33,167.5c-4.21,4.18-8.62,8.02-13.22,11.54
				c-3.15,8.7-6.34,17.2-9.55,25.47c-60.83,156.63-196.75,369.68-66.97,476.17c147.6,121.1,469.79,14.48,813.86,41.97
				c85.49,6.83,243.05,17.72,253.04-101.9c5.66-67.83-93.99-269.85-580.09-68.53C7583.11,3259.18,7888.87,3329.73,7900.49,3190.58z"
				/>
			<path class="st3" d="M7894.3,3159.63c11.62-139.15-196.93-233.93-718.39,140.4c250.43-256.33,411.97-651.06,246-664.92
				c-140.58-11.74-168.52,68.26-308.69,365.06c29.07-81.72,37.96-149.98,34.19-203.59c-6.53,16.08-13.64,31.92-21.03,47.5
				c-13.77,28.98-30.29,56.61-48.9,82.74c-44.62,62.64-95.6,119.03-155.33,167.5c-10.7,10.63-22.66,19.09-35.87,25.42
				c-49.83,151.87-184.53,354.68-60.06,456.81c147.6,121.1,469.79,14.48,813.86,41.97c85.49,6.83,243.05,17.72,253.04-101.9
				c5.66-67.83-93.99-269.85-580.09-68.53C7576.92,3228.22,7882.68,3298.78,7894.3,3159.63z"/>
		</g>
		<g>
			<path class="st2" d="M2213.94,3241.28c-137.7-46.07-309.36-147.65-486.19-362.77c394.7,28.9,585.53,191.88,585.53,191.88
				s-315.42-211.5-611.78-723.54c488.84,191.55,694.54,546.96,694.54,546.96s-181.38-298.08-254.87-786.32
				c424.44,349.45,532.9,794.28,532.9,794.28s-171.04-344.18-21.08-671.36c251.82,570.56,250.86,745.63,68.34,909.08
				C2583.89,3262.59,2388.92,3299.82,2213.94,3241.28z"/>
		</g>
		<g>
			<path class="st3" d="M2238.12,3221.95c-137.7-46.07-309.36-147.65-486.19-362.77c394.7,28.9,585.53,191.88,585.53,191.88
				s-315.42-211.5-611.78-723.54c488.84,191.55,694.54,546.96,694.54,546.96s-181.38-298.08-254.87-786.32
				c424.44,349.45,532.9,794.28,532.9,794.28s-171.04-344.18-21.08-671.36c251.82,570.56,250.86,745.63,68.34,909.08
				C2608.07,3243.26,2413.1,3280.49,2238.12,3221.95z"/>
		</g>
		<g>
			<path class="st2" d="M6238.96,2935.14c-47.64-137.16-72.08-335.12-9.79-606.54c218.23,330.15,205.78,580.79,205.78,580.79
				s-25.23-378.92,199.12-926.35c146.97,504.04-8.76,884.02-8.76,884.02s125.2-325.7,466.85-682.13
				c-17.38,549.51-303.31,907.12-303.31,907.12s168.01-345.67,518.65-426.81c-297.89,547.92-437.09,654.1-677.99,609.45
				C6448.08,3241.06,6299.5,3109.44,6238.96,2935.14z"/>
		</g>
		<g>
			<path class="st3" d="M6251.34,2898c-47.64-137.16-72.08-335.12-9.79-606.54c218.23,330.15,205.77,580.79,205.77,580.79
				s-25.23-378.92,199.12-926.35c146.97,504.04-8.76,884.02-8.76,884.02s125.2-325.7,466.85-682.13
				c-17.38,549.51-303.31,907.12-303.31,907.12s168.01-345.67,518.65-426.81c-297.89,547.92-437.09,654.1-677.99,609.45
				C6460.46,3203.92,6311.88,3072.3,6251.34,2898z"/>
		</g>
		<g>
			<g>
				<path class="st4" d="M5645.44,1338.74c-6.92-18.49-23.72-147.55-39.92-194.51c-60.41,8.08-2521.34,10.49-2521.34,10.49
					s-19.99,82.68-36.62,128.16c-6.85,18.75-13.74,37.38-20.66,55.88c-645.43,1725.2-1578.62,2372.31-1578.62,2372.31h807.44h841.09
					h830.2h10.89h796.55h10.89h830.19h841.09h807.45C7224.07,3711.06,6290.87,3063.94,5645.44,1338.74z"/>
				<path class="st5" d="M1415.97,3564.22l4.52,21.5l1645.47-2246.97c6.92-18.5,13.81-37.13,20.66-55.88L1415.97,3564.22z"/>
				<path class="st5" d="M5654.78,1282.89c6.85,18.74,13.73,37.36,20.65,55.85l1645.48,2246.97l4.52-21.48L5654.78,1282.89z"/>
				<polygon class="st6" points="1378.77,3615.02 1391.77,3624.94 1420.49,3585.71 1415.97,3564.22 				"/>
				<path class="st7" d="M7254.06,3711.06c0,0-933.2-647.12-1578.63-2372.32c-6.92-18.49-13.8-37.11-20.65-55.85
					c-16.63-45.49-33.06-91.7-49.26-138.66c-16.2,46.96-32.62,93.16-49.25,138.65c-6.85,18.75-13.74,37.38-20.66,55.88
					c-645.43,1725.2-1578.62,2372.31-1578.62,2372.31h807.44c0,0-119.8-132.48-197.57-345
					c378.01,35.88,1038.65-1029.5,1038.65-1029.5s660.64,1065.39,1038.65,1029.5c-77.76,212.52-197.56,345-197.56,345H7254.06z"/>
				<path class="st8" d="M5605.52,2336.56c0,0-660.64,1065.39-1038.65,1029.5c77.77,212.52,197.57,345,197.57,345
					S5276.17,3291.31,5605.52,2336.56z"/>
				<path class="st8" d="M5605.52,2336.56c329.34,954.75,841.09,1374.5,841.09,1374.5s119.8-132.48,197.56-345
					C6266.16,3401.95,5605.52,2336.56,5605.52,2336.56z"/>
				<path class="st4" d="M5605.52,2336.56c-329.35,954.75-841.09,1374.5-841.09,1374.5h841.09h841.09
					C6446.61,3711.06,5934.86,3291.31,5605.52,2336.56z"/>
				<path class="st9" d="M7283.8,3710.73c0,0-933.2-647.12-1578.63-2372.32c-6.92-18.49-13.8-37.11-20.65-55.85
					c-16.63-45.49-33.06-91.7-49.26-138.66c-16.2,46.96-32.62,93.16-49.25,138.65c-6.85,18.75-13.74,37.38-20.66,55.88
					c-645.43,1725.2-1578.62,2372.31-1578.62,2372.31h807.44c0,0-119.8-132.48-197.57-345
					c378.01,35.88,1038.65-1029.5,1038.65-1029.5s660.64,1065.39,1038.65,1029.5c-77.76,212.52-197.56,345-197.56,345H7283.8z"/>
				<path class="st9" d="M5635.27,2336.22c0,0-660.64,1065.39-1038.65,1029.5c77.77,212.52,197.57,345,197.57,345
					S5305.92,3290.98,5635.27,2336.22z"/>
				<path class="st9" d="M5635.27,2336.22c329.34,954.75,841.09,1374.5,841.09,1374.5s119.8-132.48,197.56-345
					C6295.91,3401.61,5635.27,2336.22,5635.27,2336.22z"/>
				<path class="st9" d="M5635.27,2336.22c-329.35,954.75-841.09,1374.5-841.09,1374.5h841.09h841.09
					C6476.36,3710.73,5964.61,3290.98,5635.27,2336.22z"/>
				<path class="st5" d="M1418.76,3709.1h-56.8v-108.59c0-15.69,12.72-28.4,28.4-28.4h0c15.69,0,28.4,12.72,28.4,28.4V3709.1z"/>
				<path class="st5" d="M7371.4,3695.05h-56.8v-108.59c0-15.69,12.72-28.4,28.4-28.4h0c15.69,0,28.4,12.72,28.4,28.4V3695.05z"/>
				<path class="st9" d="M5635.27,1143.89l-2517.14,10.31c0,0-442.08,1640.44-1633.76,2550.26l2502.37,6.27"/>
			</g>
		</g>
		<g>
			<g>
				<path class="st10" d="M6249.48,3851.61c34.97-32.92,364.12-353.84,364.12-353.84s-94.63,172.8-185.15,240.69
					C6337.94,3806.35,6249.48,3851.61,6249.48,3851.61z"/>
				<path class="st10" d="M6778.18,3392.85c0,0,98.75,195.43,72,236.58c-26.74,41.14-96.69,47.32-96.69,47.32L6778.18,3392.85z"/>
				<path class="st10" d="M6024.95,3415.47c0,0,29.95-45.79,6.66-48.7c-23.29-2.91-39.79,27.18-56.29,26.2
					c-16.5-0.97-68.91-12.62-75.7,17.47c-6.79,30.09,12.62,110.64,36.88,110.64l17.47,2.91c0,0-23.29-79.58-3.88-94.14
					C5969.49,3415.29,6009.56,3409.82,6024.95,3415.47z"/>
				<path class="st10" d="M6330.53,3270.68c0,0-38.82,71.82-57.26,72.79c-18.44,0.97-32.03-8.73-32.03-8.73s36.88,78.61,2.91,103.85
					l13.59-1.94l59.42-108.05L6330.53,3270.68z"/>
				<path class="st10" d="M6233.48,3326c-3.95-5.61-126.17-42.7-158.2-5.82c-32.03,36.88,37.85,26.2,46.59,26.2
					s38.82,16.5,38.82,16.5l-33,6.79l60.17,27.18c0,0-37.85,30.09-6.79,41.73l-19.41,6.79l57.26,32.03l25.23-38.82
					C6244.15,3438.58,6277.15,3388.12,6233.48,3326z"/>
				<line class="st10" x1="6081.1" y1="3346.38" x2="6031.61" y2="3366.76"/>
				<line class="st10" x1="6069.46" y1="3486.14" x2="6161.66" y2="3445.38"/>
				<path class="st10" d="M6092.75,3475.46c0,0,32.42,10.15,20.38,19.41c-12.62,9.71-39.79,2.91-39.79,2.91"/>
				<path class="st10" d="M5945.97,3462.85c0-71.08,78.98-47.39,78.98-47.39l123.73,205.34l168.48-292.21
					c23.77-114.38,104.53-188.52,170.4-231.42c49.41-5.41,114.82,1.22,114.82,1.22s2.32-20.25-4.93-43.85
					c82.92,34.46,140.11,207.11,167.25,268.79c28.96,65.81-17.38,507.71-66.75,731.94c-45.41,206.26-404.48,286.86-404.48,286.86
					s-42.12-23.69-126.36-221.14s28.96-271.15,28.96-271.15C6003.89,3820.88,5945.97,3533.93,5945.97,3462.85z"/>
				<path class="st10" d="M6090.2,2888.25l-2.44-4.13c0,0,15.31-185.57,89.92-198.96c74.61-13.39,135.83-32.52,166.44,3.83
					c30.61,36.35,95.66,128.18,95.66,128.18l-3.09,4.05c-41.02,6.71-119.01,20.92-148.05,36.13
					C6251.89,2876.59,6162.31,2905.43,6090.2,2888.25z"/>
				<path class="st10" d="M6103.06,3096.48c5.25-35.72,1.85-68.52-2.28-90.87c63.98-0.07,275.72-53.65,356.78-74.79
					c22.62,11.24,85.38,52.64,116.13,83.4c12.47,12.47,19.65,26.93,23.76,40.32c7.25,23.6,4.93,43.85,4.93,43.85
					s-65.41-6.64-114.82-1.22c-20.78,2.28-38.73,6.68-47.79,14.61c-30.61,26.78-105.22,145.4-156.88,162.62
					c-51.65,17.22-174.09,3.83-174.09,3.83S6093.5,3161.52,6103.06,3096.48z"/>
				<path class="st10" d="M6070.54,2882.21c6.36,2.45,12.94,4.44,19.66,6.04c72.12,17.18,161.69-11.66,198.44-30.91
					c29.04-15.21,107.02-29.42,148.05-36.13c15.74-2.57,26.05-4.05,26.05-4.05c26.78,9.57,26.78,105.22,26.78,105.22
					s-12.03,3.24-31.96,8.43c-81.06,21.14-292.8,74.72-356.78,74.79c-8.31,0.01-14.14-0.88-16.85-2.87
					C6055.24,2981.69,6070.54,2882.21,6070.54,2882.21z"/>
				<path class="st10" d="M5498.52,4041.56c-1.82-13.67-206.62,3.83-237.23,19.13s-5.74,80.35,86.09,97.57
					c91.83,17.22,139.66,17.22,139.66,17.22s9.57-99.48,42.09-103.31C5529.13,4072.17,5502.34,4070.26,5498.52,4041.56z"/>
				<g>
					<path class="st10" d="M5511.91,4087.47c4.61-5.43,10.84-10.68,18.37-15.74c22.96-15.41,58.06-29.03,96.56-40.62
						c95.65-28.79,212.3-45.04,216.04-45.04l1.9,1.75c77.39,99.82,207,248.77,331.83,310.56l-308.86,30.13
						C5418.17,4395.49,5458.34,4150.61,5511.91,4087.47z"/>
					<path class="st10" d="M5498.52,4041.56c7.52-63.83,56.6-196.56,59.31-273.58c3.83-109.05,66.96-151.14,147.31-156.88
						s432.37,242.97,464.89,262.1c0,0-38.26,74.61-36.35,153.05c1.91,78.44,139.66,300.36,139.66,300.36
						c-31.21-1.67-63.8-11.92-96.72-28.22c-124.83-61.8-254.44-210.74-331.83-310.56c-42.33-54.61-69.04-94.52-70.77-97.41
						c-38.97-64.94-123.7,100.55-147.16,140.69c-38.5,11.59-73.61,25.21-96.56,40.62c-0.74,0.28-1.15,0.43-1.15,0.43
						S5495.39,4068.1,5498.52,4041.56z"/>
				</g>
				<path class="st10" d="M6007.13,4178.61c-7.39,0-430.96-4.93-430.96-4.93l384.17-54.18L6007.13,4178.61z"/>
			</g>
			<g>
				<path class="st8" d="M6144.78,3337.26l-198.08,38.27l88.91,88.91c0,0,250.16-48.22,245.64-51.24s-91.93-96.45-91.93-96.45
					L6144.78,3337.26z"/>
				<path class="st10" d="M6272.39,3842.49c34.97-32.92,364.12-353.84,364.12-353.84s-94.63,172.8-185.15,240.69
					C6360.85,3797.23,6272.39,3842.49,6272.39,3842.49z"/>
				<path class="st11" d="M6801.09,3383.73c0,0,98.75,195.43,72,236.58c-26.74,41.14-96.69,47.32-96.69,47.32L6801.09,3383.73z"/>
				<path class="st12" d="M6047.86,3406.35c0,0,29.95-45.79,6.66-48.7c-23.29-2.91-39.79,27.17-56.29,26.2s-68.91-12.62-75.7,17.47
					c-6.79,30.09,12.62,110.64,36.88,110.64l17.47,2.91c0,0-23.29-79.58-3.88-94.14C5992.41,3406.17,6032.47,3400.7,6047.86,3406.35
					z"/>
				<path class="st11" d="M6353.44,3261.56c0,0-38.82,71.82-57.26,72.79c-18.44,0.97-32.03-8.73-32.03-8.73s36.88,78.61,2.91,103.85
					l13.59-1.94l59.42-108.05L6353.44,3261.56z"/>
				<path class="st12" d="M6256.39,3316.88c-3.95-5.61-126.17-42.7-158.2-5.82c-32.03,36.88,37.85,26.2,46.59,26.2
					s38.82,16.5,38.82,16.5l-33,6.79l60.17,27.18c0,0-37.85,30.09-6.79,41.73l-19.41,6.79l57.26,32.03l25.23-38.82
					C6267.07,3429.46,6300.07,3379,6256.39,3316.88z"/>
				<line class="st10" x1="6104.02" y1="3337.26" x2="6054.52" y2="3357.64"/>
				<line class="st10" x1="6092.37" y1="3477.02" x2="6184.57" y2="3436.26"/>
				<path class="st10" d="M6115.66,3466.34c0,0,32.42,10.15,20.38,19.41c-12.62,9.71-39.79,2.91-39.79,2.91"/>
				<path class="st11" d="M5968.89,3453.73c0-71.08,78.98-47.39,78.98-47.39l123.73,205.34l168.48-292.21
					c23.77-114.38,104.53-188.52,170.4-231.42c49.41-5.41,114.82,1.22,114.82,1.22s2.32-20.25-4.93-43.86
					c82.92,34.46,140.11,207.11,167.25,268.79c28.96,65.81-17.38,507.71-66.75,731.94c-45.41,206.26-404.48,286.86-404.48,286.86
					s-42.12-23.69-126.36-221.14c-84.24-197.44,28.96-271.15,28.96-271.15C6026.8,3811.76,5968.89,3524.81,5968.89,3453.73z"/>
				<path class="st1" d="M6113.11,2879.13l-2.44-4.13c0,0,15.31-185.57,89.92-198.96c74.61-13.39,135.83-32.52,166.44,3.83
					c30.61,36.35,95.66,128.18,95.66,128.18l-3.09,4.05c-41.02,6.71-119.01,20.92-148.05,36.13
					C6274.8,2867.47,6185.23,2896.31,6113.11,2879.13z"/>
				<path class="st1" d="M6093.45,2873.09c6.36,2.45,12.93,4.44,19.66,6.04c72.12,17.18,161.69-11.66,198.44-30.91
					c29.04-15.21,107.02-29.42,148.05-36.13c15.74-2.57,26.05-4.05,26.05-4.05c26.78,9.57,26.78,105.22,26.78,105.22
					s-12.03,3.24-31.96,8.43c-81.06,21.14-292.8,74.72-356.78,74.79c-8.31,0.01-14.14-0.89-16.85-2.87
					C6078.15,2972.57,6093.45,2873.09,6093.45,2873.09z"/>
				<g>
					<path class="st7" d="M5534.82,4078.35c4.61-5.43,10.84-10.68,18.37-15.74c22.96-15.41,58.06-29.03,96.56-40.62
						c95.65-28.79,212.3-45.04,216.04-45.04l1.9,1.75c77.39,99.82,207,248.77,331.83,310.56l-308.86,30.13
						C5441.08,4386.37,5481.25,4141.49,5534.82,4078.35z"/>
					<path class="st7" d="M5521.43,4032.44c7.52-63.83,56.6-196.56,59.31-273.58c3.83-109.05,66.96-151.14,147.31-156.88
						c80.35-5.74,432.37,242.97,464.89,262.1c0,0-38.26,74.61-36.35,153.05c1.91,78.44,139.66,300.36,139.66,300.36
						c-31.21-1.67-63.8-11.92-96.72-28.22c-124.83-61.8-254.44-210.74-331.83-310.56c-42.33-54.61-69.04-94.52-70.77-97.41
						c-38.97-64.94-123.7,100.55-147.16,140.69c-38.5,11.59-73.61,25.21-96.56,40.62c-0.74,0.28-1.15,0.43-1.15,0.43
						S5518.3,4058.98,5521.43,4032.44z"/>
				</g>
				<path class="st7" d="M6030.04,4169.49c-7.39,0-430.96-4.93-430.96-4.93l384.17-54.18L6030.04,4169.49z"/>
			</g>
			<g>
				<path class="st5" d="M6249.48,3851.61c34.97-32.92,364.12-353.84,364.12-353.84s-94.63,172.8-185.15,240.69
					C6337.94,3806.35,6249.48,3851.61,6249.48,3851.61z"/>
				<path class="st3" d="M6778.18,3392.85c0,0,98.75,195.43,72,236.58c-26.74,41.14-96.69,47.32-96.69,47.32L6778.18,3392.85z"/>
				<path class="st3" d="M6024.95,3415.47c0,0,29.95-45.79,6.66-48.7c-23.29-2.91-39.79,27.18-56.29,26.2
					c-16.5-0.97-68.91-12.62-75.7,17.47c-6.79,30.09,12.62,110.64,36.88,110.64l17.47,2.91c0,0-23.29-79.58-3.88-94.14
					C5969.49,3415.29,6009.56,3409.82,6024.95,3415.47z"/>
				<path class="st3" d="M6330.53,3270.68c0,0-38.82,71.82-57.26,72.79c-18.44,0.97-32.03-8.73-32.03-8.73s36.88,78.61,2.91,103.85
					l13.59-1.94l59.42-108.05L6330.53,3270.68z"/>
				<path class="st3" d="M6233.48,3326c-3.95-5.61-126.17-42.7-158.2-5.82c-32.03,36.88,37.85,26.2,46.59,26.2
					s38.82,16.5,38.82,16.5l-33,6.79l60.17,27.18c0,0-37.85,30.09-6.79,41.73l-19.41,6.79l57.26,32.03l25.23-38.82
					C6244.15,3438.58,6277.15,3388.12,6233.48,3326z"/>
				<line class="st3" x1="6081.1" y1="3346.38" x2="6031.61" y2="3366.76"/>
				<line class="st3" x1="6069.46" y1="3486.14" x2="6161.66" y2="3445.38"/>
				<path class="st3" d="M6092.75,3475.46c0,0,32.42,10.15,20.38,19.41c-12.62,9.71-39.79,2.91-39.79,2.91"/>
				<path class="st3" d="M5945.97,3462.85c0-71.08,78.98-47.39,78.98-47.39l123.73,205.34l168.48-292.21
					c23.77-114.38,104.53-188.52,170.4-231.42c49.41-5.41,114.82,1.22,114.82,1.22s2.32-20.25-4.93-43.85
					c82.92,34.46,140.11,207.11,167.25,268.79c28.96,65.81-17.38,507.71-66.75,731.94c-45.41,206.26-404.48,286.86-404.48,286.86
					s-42.12-23.69-126.36-221.14s28.96-271.15,28.96-271.15C6003.89,3820.88,5945.97,3533.93,5945.97,3462.85z"/>
				<path class="st3" d="M6090.2,2888.25l-2.44-4.13c0,0,15.31-185.57,89.92-198.96c74.61-13.39,135.83-32.52,166.44,3.83
					c30.61,36.35,95.66,128.18,95.66,128.18l-3.09,4.05c-41.02,6.71-119.01,20.92-148.05,36.13
					C6251.89,2876.59,6162.31,2905.43,6090.2,2888.25z"/>
				<path class="st13" d="M6103.06,3096.48c5.25-35.72,1.85-68.52-2.28-90.87c63.98-0.07,275.72-53.65,356.78-74.79
					c22.62,11.24,85.38,52.64,116.13,83.4c12.47,12.47,19.65,26.93,23.76,40.32c7.25,23.6,4.93,43.85,4.93,43.85
					s-65.41-6.64-114.82-1.22c-20.78,2.28-38.73,6.68-47.79,14.61c-30.61,26.78-105.22,145.4-156.88,162.62
					c-51.65,17.22-174.09,3.83-174.09,3.83S6093.5,3161.52,6103.06,3096.48z"/>
				<path class="st3" d="M6070.54,2882.21c6.36,2.45,12.94,4.44,19.66,6.04c72.12,17.18,161.69-11.66,198.44-30.91
					c29.04-15.21,107.02-29.42,148.05-36.13c15.74-2.57,26.05-4.05,26.05-4.05c26.78,9.57,26.78,105.22,26.78,105.22
					s-12.03,3.24-31.96,8.43c-81.06,21.14-292.8,74.72-356.78,74.79c-8.31,0.01-14.14-0.88-16.85-2.87
					C6055.24,2981.69,6070.54,2882.21,6070.54,2882.21z"/>
				<path class="st13" d="M5498.52,4041.56c-1.82-13.67-206.62,3.83-237.23,19.13s-5.74,80.35,86.09,97.57
					c91.83,17.22,139.66,17.22,139.66,17.22s9.57-99.48,42.09-103.31C5529.13,4072.17,5502.34,4070.26,5498.52,4041.56z"/>
				<g>
					<path class="st3" d="M5511.91,4087.47c4.61-5.43,10.84-10.68,18.37-15.74c22.96-15.41,58.06-29.03,96.56-40.62
						c95.65-28.79,212.3-45.04,216.04-45.04l1.9,1.75c77.39,99.82,207,248.77,331.83,310.56l-308.86,30.13
						C5418.17,4395.49,5458.34,4150.61,5511.91,4087.47z"/>
					<path class="st3" d="M5498.52,4041.56c7.52-63.83,56.6-196.56,59.31-273.58c3.83-109.05,66.96-151.14,147.31-156.88
						s432.37,242.97,464.89,262.1c0,0-38.26,74.61-36.35,153.05c1.91,78.44,139.66,300.36,139.66,300.36
						c-31.21-1.67-63.8-11.92-96.72-28.22c-124.83-61.8-254.44-210.74-331.83-310.56c-42.33-54.61-69.04-94.52-70.77-97.41
						c-38.97-64.94-123.7,100.55-147.16,140.69c-38.5,11.59-73.61,25.21-96.56,40.62c-0.74,0.28-1.15,0.43-1.15,0.43
						S5495.39,4068.1,5498.52,4041.56z"/>
				</g>
				<path class="st5" d="M6007.13,4178.61c-7.39,0-430.96-4.93-430.96-4.93l384.17-54.18L6007.13,4178.61z"/>
			</g>
		</g>
		<g>
			<g>
				<path class="st5" d="M5039.19,3890.5c-6.14-31.11-1.09-59.38,11.2-69.67c-308.94,155.05-631.29,76.37-940.93,180.97
					c-39.78,59.77-18.81,101,26.17,134.46c307.95-91.15,639.42-85.93,948.29-184.73C5066.28,3954.48,5046.47,3927.56,5039.19,3890.5
					z"/>
				<path class="st5" d="M5057.85,3817.05c-0.07,0.03-0.13,0.07-0.2,0.1c0.06-0.01,0.12-0.03,0.18-0.04
					C5057.84,3817.08,5057.84,3817.06,5057.85,3817.05z"/>
				<path class="st5" d="M5050.39,3820.84c2.42-1.22,4.84-2.45,7.26-3.69C5055.02,3817.75,5052.59,3819,5050.39,3820.84z"/>
				<path class="st5" d="M5103.31,3878c-7-37.06-27.4-64.41-45.14-60.98c-0.11,0.02-0.22,0.06-0.33,0.08
					c-0.06,0.01-0.12,0.03-0.18,0.04c-2.42,1.25-4.84,2.48-7.26,3.69c-12.29,10.28-17.34,38.55-11.2,69.67
					c7.28,37.06,27.09,63.98,44.73,61.04c0.14-0.02,0.27-0.03,0.41-0.06C5102.08,3948.05,5110.65,3915.35,5103.31,3878z"/>
			</g>
			<g>
				<path class="st14" d="M5030.35,3875.76c-6.14-31.11-1.09-59.38,11.2-69.67c-308.94,155.05-631.29,76.37-940.93,180.97
					c-39.78,59.77-18.81,101,26.17,134.46c307.95-91.15,639.42-85.93,948.29-184.73
					C5057.44,3939.74,5037.63,3912.82,5030.35,3875.76z"/>
				<path class="st14" d="M5049,3802.31c-0.07,0.03-0.13,0.07-0.2,0.1c0.06-0.01,0.12-0.03,0.18-0.04
					C5048.99,3802.34,5049,3802.32,5049,3802.31z"/>
				<path class="st14" d="M5041.54,3806.1c2.42-1.22,4.84-2.45,7.26-3.69C5046.17,3803.01,5043.74,3804.26,5041.54,3806.1z"/>
				<path class="st14" d="M5094.46,3863.26c-7-37.06-27.4-64.41-45.14-60.98c-0.11,0.02-0.22,0.06-0.33,0.08
					c-0.06,0.01-0.12,0.03-0.18,0.04c-2.42,1.25-4.84,2.48-7.26,3.69c-12.29,10.28-17.34,38.55-11.2,69.67
					c7.28,37.06,27.09,63.98,44.73,61.04c0.14-0.02,0.27-0.03,0.41-0.06C5093.23,3933.31,5101.8,3900.61,5094.46,3863.26z"/>
			</g>
			<path class="st15" d="M4540.47,4063.2c-309.01-52.03-179.73-175.63-123.92-319.73c79.14-204.01-139.69-186.67-69.05-444.6
				c1.58,44.46,9.14,78.83,21.44,106.26c94.59,212.21,263.29-273.7,161.76-335.81c145.04,78.2,81.35,264.55,45.4,377.75
				c-52.34,164.28,116.35,179.41,113.83,13.24c-0.63-59.91,6.62-142.21,111.31-244.37c-67.16,164.59,43.2,264.55-17.03,462.25
				c-48.56,159.87-20.18,47.93-20.18,224.51C4766.24,4070.14,4636.01,4067.93,4540.47,4063.2L4540.47,4063.2z M4465.11,3245.9
				c-26.17-170.9,58.96-163.02-52.66-300.18C4426.01,3095.81,4325.74,3057.34,4465.11,3245.9L4465.11,3245.9z"/>
			<path class="st16" d="M4534.72,4028.69c-15.77-2.84-30.27-5.68-43.83-8.51c-36.89-154.19,66.22-138.11,54.87-285.68
				c64.32,63.69,33.74,117.3,11.98,191.71c-11.67,60.22,38.47,74.73,67.79-10.09c20.81,33.42,31.53,68.42,38.15,104.05
				C4623.01,4032.16,4575.71,4030.58,4534.72,4028.69L4534.72,4028.69z"/>
			<path class="st15" d="M4881.59,3809.85c-0.32-167.48-114.2-207.35-53.91-427.15c-79.75,136.85-76.24,111.65-71.14,259.35
				c-67.95-191.4,22.65-316.45-84.54-463.83c56.46,171.94-134.3,380.89-166.2,580.59c-2.55,23.61-3.19,46.9-1.27,69.23
				C4526.86,4079.73,4881.91,4082.92,4881.59,3809.85L4881.59,3809.85z"/>
			<path class="st16" d="M4567.05,3973.18c56.47,52.32,139.4,64.44,205.76,34.13c5.1-11.16,8.29-24.88,7.98-42.11
				c-41.15-117.08,7.34-114.52,5.74-257.12c-93.47,235.11-114.84-184.7-109.42-244.36c-92.83,249.46-0.64,298.59-109.1,501.48
				C4567.69,3968.08,4567.37,3970.63,4567.05,3973.18L4567.05,3973.18z"/>
			<path class="st17" d="M4609.16,3994.24c41.79,21.69,90.28,27.11,134.62,15.63c-8.29-69.22-7.98-108.46,4.15-202.57
				c-18.82,28.07-37.64,62.84-44.98,104.63c-36.68-84.22-23.93-101.76-25.84-193.64
				C4647.44,3837.29,4662.76,3900.77,4609.16,3994.24L4609.16,3994.24z"/>
			<g>
				<path class="st18" d="M4445.44,3252.45c-26.17-170.9,58.96-163.02-52.66-300.18C4406.34,3102.36,4306.07,3063.9,4445.44,3252.45
					z"/>
				<path class="st18" d="M4861.93,3816.41c-0.32-167.48-114.2-207.35-53.91-427.15c-14.66,25.16-26.5,44.83-36.04,61.12
					c-12.17-73.74-25.44-142.01,9.6-227.88c-35.16,34.31-59.31,66.37-75.88,96.11c-5.78-44.23-19.98-87.95-53.35-133.83
					c37.22,113.33-32.97,242.74-94.28,374.98c-13.21-21.63-17.19-57.29-1.62-106.13c35.95-113.2,99.64-299.55-45.4-377.75
					c101.53,62.12-67.16,548.02-161.76,335.81c-12.3-27.43-19.86-61.8-21.44-106.26c-70.63,257.93,148.2,240.59,69.05,444.6
					c-55.81,144.1-185.09,267.7,123.92,319.73c63.06,3.12,141.22,5.13,186.45-42c15.8-2.58,31.25-7.19,45.89-13.88
					c1.27-2.78,2.42-5.72,3.43-8.84C4816.29,3976.95,4862.04,3914.51,4861.93,3816.41z"/>
			</g>
			<g>
				<path class="st5" d="M5104.31,4005.09c-274.6-66.39-546.27,4.62-822.21-56.32c-18.09-13.36-35.74-28.64-52.85-46.11
					c-3.76,4.12-7.23,7.9-10.99,12.03c2.75,6.96,5.67,13.67,8.8,20.12c-25.48-7.34-51-15.97-76.56-26.06
					c13.24,9.04,20.83,36.85,17.66,68.74c-4.03,37.14-21.44,66.25-39.22,64.67c316.46,70.7,646.39,35.94,961.27,99.01
					C5131.83,4103.73,5149.03,4061.2,5104.31,4005.09z"/>
				<path class="st5" d="M4143.01,3905.76c0.01,0.01,0.01,0.03,0.02,0.04c0.05,0.01,0.1,0.02,0.15,0.02
					C4143.13,3905.8,4143.07,3905.78,4143.01,3905.76z"/>
				<path class="st5" d="M4143.18,3905.83c2.44,0.99,4.88,1.95,7.32,2.91C4148.22,3907.18,4145.77,3906.2,4143.18,3905.83z"/>
				<path class="st5" d="M4150.5,3908.74c-2.44-0.96-4.88-1.92-7.32-2.91c-0.05-0.01-0.1-0.02-0.15-0.02
					c-0.11-0.01-0.22-0.04-0.34-0.06c-18.23-1.69-35.83,27.25-39.58,64.96c-4.07,37.7,7.56,69.74,25.48,71.42
					c0.12,0.01,0.23,0.01,0.35,0.02c17.79,1.58,35.19-27.53,39.22-64.67C4171.33,3945.59,4163.74,3917.78,4150.5,3908.74z"/>
			</g>
			<g>
				<path class="st14" d="M5095.46,3990.35c-274.6-66.39-546.27,4.62-822.21-56.32c-18.09-13.36-35.74-28.64-52.85-46.11
					c-3.76,4.12-7.23,7.9-10.99,12.03c2.75,6.96,5.67,13.67,8.8,20.12c-25.48-7.34-51-15.97-76.56-26.06
					c13.24,9.04,20.83,36.85,17.66,68.74c-4.03,37.14-21.44,66.25-39.22,64.67c316.46,70.7,646.39,35.94,961.27,99.01
					C5122.98,4088.99,5140.19,4046.46,5095.46,3990.35z"/>
				<path class="st14" d="M4134.17,3891.02c0.01,0.01,0.01,0.03,0.02,0.04c0.05,0.01,0.1,0.02,0.15,0.02
					C4134.28,3891.06,4134.23,3891.04,4134.17,3891.02z"/>
				<path class="st14" d="M4134.34,3891.09c2.44,0.99,4.88,1.95,7.32,2.91C4139.38,3892.44,4136.93,3891.46,4134.34,3891.09z"/>
				<path class="st14" d="M4141.66,3894c-2.44-0.96-4.88-1.92-7.32-2.91c-0.05-0.01-0.1-0.02-0.15-0.02
					c-0.11-0.01-0.22-0.04-0.34-0.06c-18.23-1.69-35.83,27.25-39.58,64.96c-4.07,37.7,7.56,69.74,25.48,71.42
					c0.12,0.01,0.23,0.01,0.35,0.02c17.79,1.58,35.19-27.53,39.22-64.67C4162.49,3930.85,4154.9,3903.04,4141.66,3894z"/>
			</g>
		</g>
		<g>
			<g>
				<g>
					<path class="st10" d="M3574.12,2861.05c10.48,12.8,22.6,28.78,22.27,36.37c-0.57,12.97-11.65,16.63-20.26,11.57
						c-2.53-1.49-7.13-2.1-12.24-2.75"/>
					<g>
						<path class="st10" d="M3270.88,3715.41c0,0,4.62,23.42,12.31,53.75c-14.14,1.94-27.32,3.82-39.16,5.55
							C3262.02,3739.16,3270.88,3715.41,3270.88,3715.41z"/>
						<path class="st10" d="M2900.87,2962.03c-5.53-44.28,23.52-59.5,53.96-83.02c30.44-23.52,208.44-1.56,229.2-14.02
							c5.35-3.21-3.21,12.08,0.83,14.13c11.63,5.91,20.91,6.65,27.09,19.68c2.75,5.8,6.07,12.28,9.93,18.92
							c7.03,12.08,15.85,24.68,26.28,34.61c19.02,18.11,43.96,67.64,58.54,101.64c-9.31-5.9-19.78-11.54-30.87-16.85
							c-54.05-25.89-122.79-43.85-143.9-44.67c0,0-95.47,1.38-118.99,31.82c-23.52,30.44-80.25,41.51-80.25,41.51
							c-1.74,0.77-5.95,6.17-12.13,15.14c-15.07,4.42-26.56,4.21-30.77-5.46C2875.97,3043.67,2906.41,3006.31,2900.87,2962.03z"/>
						<path class="st10" d="M2700.25,3407.56c69.06-79.78,182.19-271.25,220.32-326.62c6.18-8.97,10.39-14.37,12.13-15.14
							c0,0,56.73-11.07,80.25-41.51c23.52-30.44,118.99-31.82,118.99-31.82c21.11,0.81,89.85,18.78,143.9,44.67
							c11.09,5.31,21.55,10.95,30.87,16.85c18.54,11.74,32.49,24.49,37.61,37.62c1.14,2.91,1.86,5.84,2.09,8.78
							c0.04,0.54,0.12,1.11,0.19,1.67c6.03,49.26,120.86,195.45,162.87,267.13c6.95,11.86,11.91,21.68,14.05,28.68
							c15.22,49.81,172.95,203.39,77.48,283.65c-36.25,30.47-67.54,57.43-73.57,44.1c-9.45-20.88-32.63-54.7-45.9-99.8
							c-30.16-65.75-52.4-114.66-55.31-122.23c-1.4-3.63-4.43-8.43-8.82-13.9c-27.34-34-107.81-94.04-180.8-62.76
							c-84.73,36.31-465.39,308.89-465.39,308.89c-2.33-0.78-247.94,6.48-262.27,27.9c-14.57,4.26-24.53,5.96-28.67,4.49
							C2437.37,3753,2620,3500.27,2700.25,3407.56z"/>
						<path class="st10" d="M3688.47,4112.82c0,0,98.85,76.66,131.12,70.61c32.28-6.05,74.64,42.36,74.64,42.36
							s-137.18,80.69-163.4,86.74c-26.23,6.05-171.47-24.21-177.52-28.24c-5.59-3.72-23.2-124.33-25.88-153.97l129.43-66.9
							L3688.47,4112.82z"/>
						<path class="st10" d="M3215.84,4019.07c4.19-3.23,6.63-5.1,6.63-5.1S3220.16,4015.82,3215.84,4019.07z"/>
						<path class="st10" d="M3613.83,3763.83c25.2,36.23,60.24,126.57,18.69,189.4c-26.68-57.68-61.55-133.13-95.04-205.77
							C3577.03,3748.02,3606.04,3752.64,3613.83,3763.83z"/>
						<path class="st10" d="M2508.93,3763.73c14.33-21.42,259.94-28.68,262.27-27.9c0,0,380.66-272.58,465.39-308.89
							c72.99-31.28,153.46,28.76,180.8,62.76c4.4,5.47,7.42,10.26,8.82,13.9c2.91,7.57,25.15,56.48,55.31,122.23
							c13.27,45.11,36.45,78.93,36.45,78.93s2.79,13.95,9.45,20.88c3.33,7.23,6.69,14.51,10.06,21.83
							c33.49,72.64,68.36,148.1,95.04,205.77c27.18,58.77,45.86,99.07,45.86,99.07l-21.53,11.13l-129.43,66.9l-28.59,14.77
							c0,0-20.73-39.15-50.51-88.39c-32.55-53.82-75.93-119.7-114.9-159.73c-20.13-20.68-38.65-82.09-50.23-127.8
							c-7.68-30.33-12.31-53.75-12.31-53.75s-8.87,23.75-26.85,59.31c-47.9,94.71-160.45,273.19-342.31,309.86
							c-49.43,9.97-90.98,12.21-126.01,8.65c-142.24-14.45-283.47-101.56-301.27-179.26
							C2460.79,3854.42,2486.05,3797.94,2508.93,3763.73z"/>
						<path class="st10" d="M3099.41,4116.85c26.42-13.21,125.8,9.48,161.01,18.15c3.46,20.94,17.26,55.04,69.55,65.27
							c77.21,15.11,95.68,43.64,95.68,43.64s47,40.29-5.04,52.04c-52.04,11.75-376-10.07-402.85-33.57
							c-26.86-23.5-30.21-67.14-1.68-70.5C3016.08,4191.88,3090.13,4121.5,3099.41,4116.85z"/>
						<path class="st10" d="M2775.71,4093.23c35.03,3.56,76.58,1.32,126.01-8.65c181.86-36.67,294.42-215.15,342.31-309.86
							c11.84-1.74,25.02-3.62,39.16-5.55c11.58,45.71,30.1,107.13,50.23,127.8c38.98,40.03,82.35,105.91,114.9,159.73
							c-90.94,41.89-175.43,81.46-175.43,81.46s-4.67-1.24-12.48-3.16c-35.21-8.67-134.59-31.36-161.01-18.15
							c-9.29,4.64-3.04-1.91,10.57-13.59c27.77-23.84,86.18-69.04,105.85-84.2c4.32-3.25,6.63-5.1,6.63-5.1s-2.43,1.86-6.63,5.1
							C3172.48,4051.69,2926.14,4225.85,2775.71,4093.23z"/>
						<path class="st10" d="M3236.59,3426.94c-4.51-3.38-40.4-5.72-62.55-21.59c-31.78-22.78-51.98-60.59-51.98-60.59
							s-41.7,69.18-99.18,147.43c-14.31,19.47-83.75,30.68-99.61,50.35c-31.74,39.36-11.63,86.1-44.8,115.12L3236.59,3426.94z"/>
						<path class="st10" d="M3248.17,2952.35c0,0-143.36-24.25-239.51-56.3s4.94-29.39,4.94-29.39l170.44-1.66
							c0,0-44.78,21.8-18.74,19.55S3248.17,2952.35,3248.17,2952.35z"/>
						<path class="st10" d="M2775.71,4093.23c0,0,178.84,34.09,353.17-148.6l89.26-119.94c0,0-66.94,160.38-165.96,223.14
							c-99.02,62.76-205.01,85.07-205.01,85.07S2790.72,4121.89,2775.71,4093.23z"/>
						<path class="st10" d="M3119.12,4111.98l154.68-121.05c6.12-4.79,0.59-14.43-6.63-11.55c-73.6,29.38-216.1,84.06-249.85,81
							c-46.02-4.18-186.88,61.36-186.88,61.36s62.76,50.21,234.29-16.74l103.2-46.02l-75.35,60.11L3119.12,4111.98z"/>
						<path class="st10" d="M3283.19,3769.17c0,0-45.26,110.38-24.93,139.95c12.43,18.08,190.07,147.58,190.07,147.58l-44.62-70.16
							l-50.86-70.57C3352.85,3915.97,3316.09,3899.22,3283.19,3769.17z"/>
						<path class="st10" d="M3016.08,4191.88c0,0,285.95,13.18,326.59,14.22c24.49,0.63,108.89,34.39,101.08,76.59
							c-7.82,42.2-266.76,5.73-277.7,5.73c-10.94,0-110.98-1.04-143.8-22.4C2989.42,4244.65,2983.86,4200.59,3016.08,4191.88z"/>
						<polygon class="st10" points="3270.88,3715.41 3264.91,3609.9 3211.61,3836.06 						"/>
					</g>
					<path class="st10" d="M3569.86,2750.07c15.66,41.32,13.35,196.62-19.94,223.77c-35.22,28.74-169.55,52.12-169.55,52.12
						l-52.26,46.43c0,0-171.7-61.27-171.7-86.23c0-24.97,65.98-190.81,65.98-190.81L3569.86,2750.07z"/>
					<path class="st10" d="M3485.46,2829.68c0,0-27.89-11.37-37.19,11.37c-9.3,22.73,11.45,60.7,43.99,60.7"/>
					<path class="st10" d="M3157.94,2812.73c95.26-37.24,1-114.92,33.74-128.13c32.74-13.21,19.91-103.36,81.55-89.13
						c61.1,14.1,92.95-49.58,168.25-11.9c12.71,6.36,20.62-14.83,33.07-9.01l-1.25-1.84c0.6,0.75,1.22,1.45,1.86,2.13
						c7.35,3.43,14.59,6.83,21.68,10.25c31.9,54.48-68.87,82.02-11.36,50.73c38.17-20.77,133.69,102.76,122.11,129.8
						c-6.3,23.6-23.23,70.68-57.18,66.05c-45.13-6.16-131.19-38.31-111.24,40.69c5.84,23.11-12.89-32.96-79.72,43.57
						c-24.84,28.45-113.65,21.91-118.86,1.75c-5.21-20.16,14.09-44.93,14.09-44.93l-29.11,19.01
						C3225.57,2891.75,3115.51,2829.32,3157.94,2812.73z"/>
					<path class="st10" d="M3690.2,2705.07c7.41,17.99-426.09,201.6-503.08,95.73c-23.96-32.94-36.45-210.05,158.33-246.81
						c176.22-33.26,241.69,150.21,241.69,150.21S3676.93,2672.83,3690.2,2705.07z"/>
				</g>
			</g>
			<g>
				<g>
					<path class="st19" d="M3591.5,2861.83c10.48,12.8,22.6,28.78,22.27,36.37c-0.57,12.97-11.65,16.63-20.26,11.57
						c-2.53-1.49-7.13-2.1-12.24-2.75"/>
					<path class="st19" d="M3587.23,2750.85c15.66,41.32,13.35,196.62-19.94,223.77c-35.22,28.74-169.55,52.12-169.55,52.12
						l-62.91,43.53c0,0-133.43-179.53-133.43-204.5c0-24.97,38.37-69.65,38.37-69.65L3587.23,2750.85z"/>
					<g>
						<path class="st2" d="M3288.26,3716.2c0,0,4.62,23.42,12.31,53.75c-14.14,1.94-27.32,3.82-39.16,5.55
							C3279.39,3739.95,3288.26,3716.2,3288.26,3716.2z"/>
						<path class="st1" d="M2918.25,2962.82c-5.53-44.28,23.52-59.5,53.96-83.02c30.44-23.52,208.44-1.56,229.2-14.02
							c5.35-3.21-3.21,12.08,0.83,14.13c11.63,5.91,20.91,6.65,27.09,19.68c2.75,5.8,6.07,12.28,9.93,18.92
							c7.03,12.08,15.85,24.68,26.28,34.61c19.02,18.11,43.96,67.64,58.54,101.64c-9.31-5.9-19.78-11.54-30.87-16.85
							c-54.05-25.89-122.79-43.85-143.9-44.67c0,0-95.47,1.38-118.99,31.82c-23.52,30.44-80.25,41.51-80.25,41.51
							c-1.74,0.77-5.95,6.17-12.13,15.14c-15.07,4.42-26.56,4.21-30.77-5.46C2893.34,3044.45,2923.78,3007.09,2918.25,2962.82z"/>
						<path class="st1" d="M2717.62,3408.35c69.06-79.78,182.19-271.25,220.32-326.62c6.18-8.97,10.39-14.37,12.13-15.14
							c0,0,56.73-11.07,80.25-41.51c23.52-30.44,118.99-31.82,118.99-31.82c21.11,0.81,89.85,18.78,143.9,44.67
							c11.09,5.31,21.55,10.95,30.87,16.85c18.54,11.74,32.49,24.49,37.61,37.62c1.14,2.91,1.86,5.84,2.09,8.78
							c0.04,0.54,0.12,1.11,0.19,1.67c6.03,49.26,120.86,195.45,162.87,267.13c6.95,11.86,11.91,21.68,14.05,28.68
							c15.22,49.81,172.95,203.39,77.48,283.65c-36.25,30.47-67.54,57.43-73.57,44.1c-9.45-20.88-32.63-54.7-45.9-99.8
							c-30.16-65.75-52.4-114.66-55.31-122.23c-1.4-3.63-4.43-8.43-8.82-13.9c-27.34-34-107.81-94.04-180.8-62.76
							c-84.73,36.31-465.39,308.89-465.39,308.89c-2.33-0.78-247.94,6.48-262.27,27.9c-14.57,4.26-24.53,5.96-28.67,4.49
							C2454.74,3753.79,2637.37,3501.05,2717.62,3408.35z"/>
						<path class="st10" d="M3705.84,4113.6c0,0,98.85,76.66,131.12,70.61c32.28-6.05,74.64,42.36,74.64,42.36
							s-137.18,80.69-163.4,86.74c-26.23,6.05-171.47-24.21-177.52-28.24c-5.59-3.72-23.2-124.33-25.88-153.97l129.43-66.9
							L3705.84,4113.6z"/>
						<path class="st2" d="M3233.22,4019.85c4.19-3.23,6.63-5.1,6.63-5.1S3237.53,4016.61,3233.22,4019.85z"/>
						<path class="st2" d="M3631.2,3764.61c25.2,36.23,60.24,126.57,18.69,189.4c-26.68-57.68-61.55-133.13-95.04-205.77
							C3594.41,3748.8,3623.42,3753.42,3631.2,3764.61z"/>
						<path class="st2" d="M2526.31,3764.52c14.33-21.42,259.94-28.68,262.27-27.9c0,0,380.66-272.58,465.39-308.89
							c72.99-31.28,153.46,28.76,180.8,62.76c4.4,5.47,7.42,10.26,8.82,13.9c2.91,7.57,25.15,56.48,55.31,122.23
							c13.27,45.11,36.45,78.93,36.45,78.93s2.79,13.95,9.45,20.88c3.33,7.23,6.69,14.51,10.06,21.83
							c33.49,72.64,68.36,148.1,95.04,205.77c27.18,58.77,45.86,99.07,45.86,99.07l-21.53,11.13l-129.43,66.9l-28.59,14.77
							c0,0-20.73-39.15-50.51-88.39c-32.55-53.82-75.93-119.7-114.9-159.73c-20.13-20.68-38.65-82.09-50.23-127.8
							c-7.68-30.33-12.31-53.75-12.31-53.75s-8.87,23.75-26.85,59.31c-47.9,94.71-160.45,273.19-342.31,309.86
							c-49.43,9.97-90.98,12.21-126.01,8.65c-142.24-14.45-283.47-101.56-301.27-179.26
							C2478.17,3855.21,2503.42,3798.72,2526.31,3764.52z"/>
						<path class="st5" d="M3116.79,4117.64c26.42-13.21,125.8,9.48,161.01,18.15c3.46,20.94,17.26,55.04,69.55,65.27
							c77.21,15.11,95.68,43.64,95.68,43.64s47,40.29-5.04,52.04c-52.04,11.75-376-10.07-402.85-33.57
							c-26.86-23.5-30.21-67.14-1.68-70.5C3033.45,4192.66,3107.5,4122.28,3116.79,4117.64z"/>
						<path class="st2" d="M2793.08,4094.01c35.03,3.56,76.58,1.32,126.01-8.65c181.86-36.67,294.42-215.15,342.31-309.86
							c11.84-1.74,25.02-3.62,39.16-5.55c11.58,45.71,30.1,107.13,50.23,127.8c38.98,40.03,82.35,105.91,114.9,159.73
							c-90.94,41.89-175.43,81.46-175.43,81.46s-4.67-1.24-12.48-3.16c-35.21-8.67-134.59-31.36-161.01-18.15
							c-9.29,4.64-3.04-1.91,10.57-13.59c27.77-23.84,86.18-69.04,105.85-84.2c4.32-3.25,6.63-5.1,6.63-5.1s-2.43,1.86-6.63,5.1
							C3189.85,4052.47,2943.51,4226.63,2793.08,4094.01z"/>
						<path class="st1" d="M3253.97,3427.72c-4.51-3.38-40.4-5.72-62.55-21.59c-31.78-22.78-51.98-60.59-51.98-60.59
							s-41.7,69.18-99.18,147.43c-14.31,19.47-83.75,30.68-99.61,50.35c-31.74,39.36-11.63,86.1-44.8,115.12L3253.97,3427.72z"/>
						<path class="st10" d="M3265.54,2953.13c0,0-143.36-24.25-239.51-56.3s4.94-29.39,4.94-29.39l170.44-1.66
							c0,0-44.78,21.8-18.74,19.55C3208.71,2883.08,3265.54,2953.13,3265.54,2953.13z"/>
						<path class="st2" d="M2793.08,4094.01c0,0,178.84,34.09,353.17-148.6l89.26-119.94c0,0-66.94,160.38-165.96,223.14
							c-99.02,62.76-205.01,85.07-205.01,85.07S2808.09,4122.67,2793.08,4094.01z"/>
						<path class="st2" d="M3136.49,4112.76l154.68-121.05c6.12-4.79,0.59-14.43-6.63-11.55c-73.6,29.38-216.1,84.06-249.85,81
							c-46.02-4.18-186.88,61.36-186.88,61.36s62.76,50.21,234.29-16.74l103.2-46.02l-75.35,60.11L3136.49,4112.76z"/>
						<path class="st2" d="M3300.57,3769.95c0,0-45.26,110.38-24.93,139.95c12.43,18.08,190.07,147.58,190.07,147.58l-44.62-70.16
							l-50.86-70.57C3370.23,3916.76,3333.47,3900,3300.57,3769.95z"/>
						<path class="st10" d="M3033.45,4192.66c0,0,285.95,13.18,326.59,14.22c24.49,0.63,108.89,34.39,101.08,76.59
							c-7.82,42.2-266.76,5.73-277.7,5.73c-10.94,0-110.98-1.04-143.8-22.4C3006.79,4245.44,3001.24,4201.37,3033.45,4192.66z"/>
						<polygon class="st2" points="3288.26,3716.2 3282.28,3610.68 3228.98,3836.85 						"/>
					</g>
					<path class="st11" d="M3175.31,2813.51c95.26-37.24,1-114.92,33.74-128.13c32.74-13.21,19.91-103.36,81.55-89.13
						c61.1,14.1,92.95-49.58,168.25-11.9c12.71,6.36,20.62-14.83,33.07-9.01l-1.25-1.84c0.6,0.75,1.22,1.45,1.86,2.13
						c7.35,3.43,14.59,6.83,21.68,10.25c31.9,54.48-68.87,82.02-11.36,50.73c38.17-20.77,133.69,102.76,122.11,129.8
						c-6.3,23.6-23.23,70.68-57.18,66.05c-45.13-6.16-131.19-38.31-111.24,40.69c5.84,23.11-12.89-32.96-79.72,43.57
						c-24.84,28.45-113.65,21.91-118.86,1.75c-5.21-20.16,14.09-44.93,14.09-44.93l-29.11,19.01
						C3242.94,2892.53,3132.89,2830.1,3175.31,2813.51z"/>
					<path class="st7" d="M3707.58,2705.85c7.41,17.99-426.09,201.6-503.08,95.73c-23.96-32.94-36.45-210.05,158.33-246.81
						c176.22-33.26,241.69,150.21,241.69,150.21S3694.3,2673.62,3707.58,2705.85z"/>
				</g>
			</g>
			<g>
				<g>
					<path class="st3" d="M3573.71,2859.39c10.48,12.8,22.6,28.78,22.27,36.37c-0.57,12.97-11.65,16.63-20.26,11.57
						c-2.53-1.49,5.11,0.65,0,0"/>
					<g>
						<path class="st20" d="M3270.47,3713.75c0,0,4.62,23.42,12.31,53.75c-14.14,1.94-27.32,3.82-39.16,5.55
							C3261.6,3737.5,3270.47,3713.75,3270.47,3713.75z"/>
						<path class="st3" d="M2900.46,2960.37c-5.53-44.28,23.52-59.5,53.96-83.02c30.44-23.52,208.44-1.56,229.2-14.02
							c5.35-3.21-3.21,12.08,0.83,14.13c11.63,5.91,20.91,6.65,27.09,19.68c2.75,5.8,6.07,12.28,9.93,18.92
							c7.03,12.08,15.85,24.68,26.28,34.61c19.02,18.11,43.96,67.64,58.54,101.64c-9.31-5.9-19.78-11.54-30.87-16.85
							c-54.05-25.89-122.79-43.85-143.9-44.67c0,0-95.47,1.38-118.99,31.82c-23.52,30.44-80.25,41.51-80.25,41.51
							c-1.74,0.77-5.95,6.17-12.13,15.14c-15.07,4.42-26.56,4.21-30.77-5.46C2875.55,3042.01,2905.99,3004.65,2900.46,2960.37z"/>
						<path class="st3" d="M2699.83,3405.9c69.06-79.78,182.19-271.25,220.32-326.62c6.18-8.97,10.39-14.37,12.13-15.14
							c0,0,56.73-11.07,80.25-41.51c23.52-30.44,118.99-31.82,118.99-31.82c21.11,0.81,89.85,18.78,143.9,44.67
							c11.09,5.31,21.55,10.95,30.87,16.85c18.54,11.74,32.49,24.49,37.61,37.62c1.14,2.91,1.86,5.84,2.09,8.78
							c0.04,0.54,0.12,1.11,0.19,1.67c6.03,49.26,120.86,195.45,162.87,267.13c6.95,11.86,11.91,21.68,14.05,28.68
							c15.22,49.81,172.95,203.39,77.48,283.65c-36.25,30.47-67.54,57.43-73.57,44.1c-9.45-20.88-32.63-54.7-45.9-99.8
							c-30.16-65.75-52.4-114.66-55.31-122.23c-1.4-3.63-4.43-8.43-8.82-13.9c-27.34-34-107.81-94.04-180.8-62.76
							c-84.73,36.31-465.39,308.89-465.39,308.89c-2.33-0.78-247.94,6.48-262.27,27.9c-14.57,4.26-24.53,5.96-28.67,4.49
							C2436.95,3751.34,2619.58,3498.61,2699.83,3405.9z"/>
						<path class="st21" d="M3688.05,4111.16c0,0,98.85,76.66,131.12,70.61c32.28-6.05,74.64,42.36,74.64,42.36
							s-137.18,80.69-163.4,86.74c-26.23,6.05-171.47-24.21-177.52-28.24c-5.59-3.72-23.2-124.33-25.88-153.97l129.43-66.9
							L3688.05,4111.16z"/>
						<path class="st3" d="M3215.43,4017.41c4.19-3.23,6.63-5.1,6.63-5.1S3219.74,4014.16,3215.43,4017.41z"/>
						<path class="st3" d="M3613.41,3762.17c25.2,36.23,60.24,126.57,18.69,189.4c-26.68-57.68-61.55-133.13-95.04-205.77
							C3576.61,3746.36,3605.63,3750.98,3613.41,3762.17z"/>
						<path class="st3" d="M2508.52,3762.07c14.33-21.42,259.94-28.68,262.27-27.9c0,0,380.66-272.58,465.39-308.89
							c72.99-31.28,153.46,28.76,180.8,62.76c4.4,5.47,7.42,10.26,8.82,13.9c2.91,7.57,25.15,56.48,55.31,122.23
							c13.27,45.11,36.45,78.93,36.45,78.93s2.79,13.95,9.45,20.88c3.33,7.23,6.69,14.51,10.06,21.83
							c33.49,72.64,68.36,148.1,95.04,205.77c27.18,58.77,45.86,99.07,45.86,99.07l-21.53,11.13l-129.43,66.9l-28.59,14.77
							c0,0-20.73-39.15-50.51-88.39c-32.55-53.82-75.93-119.7-114.9-159.73c-20.13-20.68-38.65-82.09-50.23-127.8
							c-7.68-30.33-12.31-53.75-12.31-53.75s-8.87,23.75-26.85,59.31c-47.9,94.71-160.45,273.19-342.31,309.86
							c-49.43,9.97-90.98,12.21-126.01,8.65c-142.24-14.45-283.47-101.56-301.27-179.26
							C2460.38,3852.76,2485.63,3796.28,2508.52,3762.07z"/>
						<path class="st3" d="M3099,4115.2c26.42-13.21,125.8,9.48,161.01,18.15c3.46,20.94,17.26,55.04,69.55,65.27
							c77.21,15.11,95.68,43.64,95.68,43.64s47,40.29-5.04,52.04c-52.04,11.75-376-10.07-402.85-33.57
							c-26.86-23.5-30.21-67.14-1.68-70.5C3015.66,4190.22,3089.71,4119.84,3099,4115.2z"/>
						<path class="st3" d="M2775.29,4091.57c35.03,3.56,76.58,1.32,126.01-8.65c181.86-36.67,294.42-215.15,342.31-309.86
							c11.84-1.74,25.02-3.62,39.16-5.55c11.58,45.71,30.1,107.13,50.23,127.8c38.98,40.03,82.35,105.91,114.9,159.73
							c-90.94,41.89-175.43,81.46-175.43,81.46s-4.67-1.24-12.48-3.16c-35.21-8.67-134.59-31.36-161.01-18.15
							c-9.29,4.64-3.04-1.91,10.57-13.59c27.77-23.84,179.06-141.19,198.73-156.34c4.32-3.25-86.25,67.05-86.25,67.05
							s-2.43,1.86-6.63,5.1C3172.06,4050.03,2925.72,4224.19,2775.29,4091.57z"/>
						<path class="st5" d="M3236.18,3425.28c-4.51-3.38-40.4-5.72-62.55-21.59c-31.78-22.78-51.98-60.59-51.98-60.59
							s-41.7,69.18-99.18,147.43c-14.31,19.47-83.75,30.68-99.61,50.35c-31.74,39.36-11.63,86.1-44.8,115.12L3236.18,3425.28z"/>
						<path class="st5" d="M3247.75,2950.69c0,0-143.36-24.25-239.51-56.3c-96.15-32.05,4.94-29.39,4.94-29.39l170.44-1.66
							c0,0-44.78,21.8-18.74,19.55C3190.92,2880.63,3247.75,2950.69,3247.75,2950.69z"/>
						<path class="st5" d="M2775.29,4091.57c0,0,178.84,34.09,353.17-148.6l89.26-119.94c0,0-66.94,160.38-165.96,223.14
							c-99.02,62.76-205.01,85.07-205.01,85.07S2790.3,4120.23,2775.29,4091.57z"/>
						<path class="st5" d="M3282.78,3767.51c0,0-45.26,110.38-24.93,139.95c12.43,18.08,190.07,147.58,190.07,147.58l-44.62-70.16
							l-50.86-70.57C3352.44,3914.31,3315.68,3897.56,3282.78,3767.51z"/>
						<path class="st5" d="M3015.66,4190.22c0,0,285.95,13.18,326.59,14.22c24.49,0.63,108.89,34.39,101.08,76.59
							s-266.76,5.73-277.7,5.73c-10.94,0-110.98-1.04-143.8-22.4C2989,4242.99,2983.45,4198.93,3015.66,4190.22z"/>
						<polygon class="st5" points="3270.47,3713.75 3264.49,3608.24 3211.19,3834.41 						"/>
					</g>
					<path class="st3" d="M3327.7,3070.73l52.26-46.43c0,0,134.32-23.38,169.55-52.12c20.53-16.75,29.28-82.28,29.29-139.72"/>
					<path class="st3" d="M3493.4,2830.11c0,0-27.89-11.37-37.19,11.37c-9.3,22.73,11.45,60.7,43.99,60.7"/>
					<path class="st3" d="M3689.79,2703.41c7.41,17.99-426.09,201.6-503.08,95.73c-23.96-32.94-36.45-210.05,158.33-246.81
						c176.22-33.26,241.69,150.21,241.69,150.21S3676.51,2671.17,3689.79,2703.41z"/>
				</g>
			</g>
			<path class="st3" d="M3607.59,2765.61c0,0,18.46,76.21-119.66,33.71"/>
			<path class="st3" d="M3274.67,2912.4c0-7.59,1.52-50.85,42.5-65.27"/>
			<path class="st3" d="M3306.55,2828.92c0,0-72.86,34.15-71.34,46.29"/>
			<path class="st3" d="M3453.02,2808.43c0,0-6.07,72.1-56.16,47.81c0,0-43.26-27.32-47.05,1.52"/>
			<path class="st3" d="M3404.45,2871.42c0,0-44.02,28.84-30.36,58.44"/>
			<path class="st3" d="M3390.03,2869.9c0,0-47.81,12.9-42.5,34.91"/>
			<path class="st3" d="M3248.87,2816.01c0,0-41.12,35.16-66.03,15.94"/>
		</g>
	</g>
</g>
</svg>
