<?xml version="1.0" encoding="utf-8"?>
<!-- Generator: Adobe Illustrator 23.0.6, SVG Export Plug-In . SVG Version: 6.00 Build 0)  -->
<svg version="1.1" xmlns="http://www.w3.org/2000/svg" xmlns:xlink="http://www.w3.org/1999/xlink" x="0px" y="0px"
	 viewBox="0 0 841.89 467.72" style="enable-background:new 0 0 841.89 467.72;" xml:space="preserve">
<style type="text/css">
	.st0{clip-path:url(#SVGID_2_);fill:#61A575;}
	.st1{clip-path:url(#SVGID_2_);fill:#FFFFFF;}
	.st2{clip-path:url(#SVGID_2_);fill:none;stroke:#54575C;stroke-miterlimit:10;}
	.st3{clip-path:url(#SVGID_2_);}
	.st4{fill:#FFFFFF;stroke:#54575C;stroke-miterlimit:10;}
	.st5{fill:#61A575;stroke:#FFFFFF;stroke-width:3.9482;stroke-miterlimit:10;}
	.st6{fill:none;stroke:#54575C;stroke-miterlimit:10;}
	.st7{fill:#61A575;}
	.st8{fill:#FFFFFF;}
	.st9{fill:#4890BA;}
	.st10{fill:#DCEFFA;}
	.st11{fill:#C3805A;}
	.st12{fill:#E0635D;}
	.st13{fill:#F6A778;}
	.st14{fill:#A2572C;}
	.st15{fill:#54575C;}
	.st16{fill:#F5C65D;}
	.st17{fill:#EAAD8A;}
	.st18{fill:#F0C3A9;}
	.st19{fill:#E39C8A;}
	.st20{fill:none;}
</style>
<g id="Layer_1">
</g>
<g id="Layer_2">
</g>
<g id="Layer_3">
	<g>
		<defs>
			<rect id="SVGID_1_" x="-2.79" y="-0.2" width="847.46" height="468.11"/>
		</defs>
		<clipPath id="SVGID_2_">
			<use xlink:href="#SVGID_1_"  style="overflow:visible;"/>
		</clipPath>
		<rect x="-2.79" y="-0.2" class="st0" width="847.46" height="468.11"/>
		<path class="st1" d="M454.63,475.54V43.18c0-11.94-9.68-21.61-21.61-21.61H105.71c-11.94,0-21.61,9.68-21.61,21.61v432.36H454.63z
			"/>
		<path class="st2" d="M449.86,475.54V39.47c0-11.94-9.68-21.61-21.61-21.61H100.93c-11.94,0-21.61,9.68-21.61,21.61v436.07H449.86z
			"/>
		<g class="st3">
			<line class="st4" x1="149.66" y1="357.25" x2="378.14" y2="357.25"/>
			<line class="st4" x1="149.66" y1="397.09" x2="322.23" y2="397.09"/>
		</g>
		<g class="st3">
			<path class="st5" d="M265.17,108.78c22.21,0,42.77,7.04,59.61,18.97l8.3-11.43c-19.17-13.62-42.59-21.65-67.92-21.65
				c-25.33,0-48.75,8.03-67.92,21.65l8.3,11.43C222.4,115.82,242.96,108.78,265.17,108.78z"/>
			<path class="st5" d="M333.09,116.33l-8.3,11.43c26.39,18.7,43.64,49.47,43.64,84.28c0,10.39-1.55,20.42-4.41,29.89l13.43,4.36
				c3.3-10.83,5.08-22.33,5.08-34.25C382.53,172.5,363,137.58,333.09,116.33z"/>
			<path class="st5" d="M166.33,241.92l-13.43,4.36c14.64,48.13,59.33,83.1,112.27,83.1v-14.1
				C218.54,315.29,179.15,284.37,166.33,241.92z"/>
			<path class="st5" d="M265.17,315.29L265.17,315.29l0,14.1c52.95,0,97.63-34.98,112.27-83.1l-13.43-4.36
				C351.2,284.37,311.8,315.29,265.17,315.29z"/>
			<path class="st5" d="M161.92,212.03c0-34.81,17.25-65.58,43.64-84.28l-8.3-11.43c-29.92,21.26-49.44,56.17-49.44,95.71
				c0,11.92,1.79,23.42,5.08,34.25l13.43-4.36C163.47,232.46,161.92,222.43,161.92,212.03z"/>
			<g>
				<path class="st6" d="M266.92,106.81c21.24,0,41.65,6.29,59.15,18.22l5.98-8.24c-19.24-13.18-41.72-20.14-65.14-20.14
					c-23.42,0-45.9,6.96-65.14,20.14l5.98,8.24C225.27,113.1,245.68,106.81,266.92,106.81z"/>
				<path class="st6" d="M166.79,244.41l-9.67,3.14c7.25,22.42,21.57,42.52,40.49,56.75c19.57,14.72,42.82,22.69,67.34,23.09v-10.16
					c-22.33-0.41-43.49-7.7-61.32-21.14C186.42,283.11,173.4,264.82,166.79,244.41z"/>
				<path class="st6" d="M376.73,247.56l-9.67-3.14c-6.61,20.41-19.63,38.7-36.84,51.68c-17.83,13.45-38.99,20.74-61.32,21.14
					l0,10.16c24.52-0.41,47.77-8.37,67.34-23.09C355.16,290.07,369.48,269.98,376.73,247.56z"/>
				<path class="st6" d="M204.55,127.31l-3.46-4.77l-2.52-3.47c-29.48,21.71-47.03,56.31-47.03,92.95c0,10.77,1.49,21.44,4.43,31.75
					l2.45-0.8l7.22-2.35c-2.62-9.3-3.95-18.91-3.95-28.6C161.7,178.65,177.68,147.13,204.55,127.31z"/>
				<path class="st6" d="M366.99,240.28l5.65,1.67l4.11,1.21c10.13-35.18,2.94-73.3-19.4-102.35c-6.57-8.54-14.25-16.09-22.86-22.46
					l-1.46,2.13l-4.3,6.27c7.75,5.77,14.66,12.58,20.57,20.26C369.66,173.46,376.21,208.19,366.99,240.28z"/>
				<polygon class="st6" points="198.57,119.08 198.57,119.08 201.09,122.55 				"/>
				<polygon class="st6" points="165.65,240.63 165.65,240.63 158.42,242.98 				"/>
			</g>
			<g>
				<path class="st7" d="M206.6,214.85c9.34,6.47,14.22,7.64,22.27,21.2c8.05,13.56,9.46,22.78,11.58,24.48
					c2.12,1.69,12.71-0.42,18.22-3.39c5.51-2.97,5.71-4.6,10.86-16.63c7.13-16.67,18.71-37.14,27.61-49.01s27.63-27.47,28.48-30.43
					c0.85-2.97-8.05-4.34-16.52-1.8c-8.47,2.54-26.32,22.17-37.1,37.62c-11.97,17.16-16.23,31.65-18.35,31.22
					c-2.12-0.42-6.26-9.06-12.19-15.42c-5.93-6.36-12.18-10.66-19.38-9.39S202.29,211.87,206.6,214.85z"/>
				<path class="st6" d="M208.58,214.35c9.34,6.47,14.22,7.64,22.27,21.2c8.05,13.56,9.46,22.78,11.58,24.48s12.71-0.42,18.22-3.39
					c5.51-2.97,5.71-4.6,10.86-16.63c7.13-16.67,18.71-37.14,27.61-49.01s27.63-27.47,28.48-30.43c0.85-2.97-8.05-4.34-16.52-1.8
					c-8.47,2.54-26.32,22.17-37.1,37.62c-11.97,17.16-16.23,31.65-18.35,31.22c-2.12-0.42-6.26-9.06-12.19-15.42
					c-5.93-6.36-12.18-10.66-19.38-9.39C216.84,204.08,204.27,211.37,208.58,214.35z"/>
			</g>
		</g>
		<g class="st3">
			<g>
				<polygon class="st8" points="687.76,475.54 747.03,454.79 788.09,475.54 800.93,475.54 786.75,429.22 341.89,412.44 
					341.89,475.54 				"/>
				<path class="st8" d="M647.27,385.21c0.02-0.04,0.04-0.09,0.06-0.14c-0.59-0.62-1.15-1.23-1.68-1.8c0.45,0.54,0.91,1.1,1.39,1.67
					C647.12,385.03,647.2,385.12,647.27,385.21z"/>
				<path class="st8" d="M408.55,307.49c0.78,2.08,2.04,3.97,3.39,7.84c3.11-7.69,10.37-17.17,14.13-23.13
					c4.73-7.51-2.78-12.24-5.01-20.03c-1.28-4.49-4.41-9.15-7.04-12.46c-2.64,3.75-5.41,6.95-7.98,8.29
					c-2.05,1.07-5.12,1.01-8.58,0.29c-1.88,3.12-4.14,7.44-4.75,11.03C397.76,287.86,407.33,304.23,408.55,307.49z"/>
				<path class="st8" d="M573.67,350.32c-0.22,0.03-0.44,0.07-0.65,0.09l0.18,0.4C573.35,350.66,573.51,350.49,573.67,350.32z"/>
				<path class="st8" d="M383.07,264.05c0,0,9.98,8.06,9.21,12.28c-0.08,0.42-0.23,0.92-0.45,1.48c0.28,0.47,0.58,0.98,0.89,1.51
					c0.61-3.59,2.87-7.91,4.75-11.03c-4.41-0.92-9.46-2.94-13.88-5.17L383.07,264.05z"/>
				<path class="st8" d="M374.34,257.43c-1.68-1.38-3.81-4.18-6-7.53c-5.79-8.82-12.08-21.4-12.08-21.4l-8.34-15.85l1.07-3.76
					c-0.66-0.9-1.77-1.8-3.58-1.8c-3.62,0-10.29,15.02-11.75,18.31c-1.46,3.29,15.09,26.47,19.26,30.92
					c4.17,4.45,7.23,28.09,8.62,30.6c1.39,2.5,2.5-4.17,10.57-10.57c0.17-0.13,0.32-0.26,0.48-0.39
					c7.69-6.24,10.47-11.89,10.47-11.89l0.53-0.93C379.73,261.17,376.35,259.07,374.34,257.43z"/>
				<path class="st8" d="M392.72,279.32c-0.25,1.5-0.22,2.87,0.26,3.98c0.9,2.1-1.33,2.65-4.55,2.5
					c-1.76,4.78-2.88,10.49,0.01,15.87c5.37,9.98,10.74,11.51,12.66,27.25c1,8.16,5.19,36.34,9,61.59
					c0.16-19.51-0.25-38.62-2.1-46.84c-4.45-19.75,1.95-14.74,2.5-22.81c0.11-1.66,0.64-3.53,1.45-5.52
					c-1.35-3.86-2.62-5.76-3.39-7.84C407.33,304.23,397.76,287.86,392.72,279.32z"/>
				<path class="st8" d="M392.98,283.29c-0.47-1.1-0.51-2.48-0.26-3.98c-0.31-0.53-0.62-1.04-0.89-1.51
					c-0.76,1.99-2.22,4.78-3.41,7.98C391.65,285.94,393.88,285.39,392.98,283.29z"/>
				<path class="st8" d="M259.4,393.35c-2.78,22.21,16.66,43.73,20.13,53.44c2.99,8.37-1.22,24.44-2.45,28.75h83.73
					c-1.22-0.3-2.26-0.69-3.06-1.2c0,0,9.21-39.53,20.34-44.51c1.37-0.61,8.2,0.46,18.74,1.65c3.67,0.41,7.78,0.84,12.28,1.21
					c0.39-10.75,0.88-26.6,1-42.19c-3.81-25.24-8-53.43-9-61.59c-1.92-15.73-7.29-17.27-12.66-27.25
					c-2.89-5.38-1.78-11.08-0.01-15.87c1.18-3.2,2.65-5.99,3.41-7.98c0.21-0.56,0.37-1.05,0.45-1.48
					c0.77-4.22-9.21-12.28-9.21-12.28s-2.78,5.65-10.47,11.89c-0.16,0.13-0.31,0.26-0.48,0.39c-8.07,6.4-9.18,13.07-10.57,10.57
					c-1.39-2.5-4.45-26.15-8.62-30.6c-4.17-4.45-20.72-27.63-19.26-30.92c-73.57,39.56-70.1,63.16-76.35,78.43
					C251.07,319.09,262.17,371.14,259.4,393.35z"/>
				<path class="st8" d="M440.54,146.72c-6.01-9.48-17.11-27.63-49.23-23.37c-39.78,5.28-37.83,46.73-37.83,46.73
					s-4.05,1.39-5.56,5.28c-1.95,5.01-2.5,20.58,3.89,23.64l-2.82,9.87l-1.07,3.76l8.34,15.85c0,0,6.29,12.58,12.08,21.4
					c2.19,3.34,4.32,6.15,6,7.53c2.01,1.65,5.39,3.75,9.25,5.7c4.41,2.22,9.46,4.24,13.88,5.17c3.46,0.72,6.53,0.78,8.58-0.29
					c2.57-1.34,5.34-4.54,7.98-8.29c0.2-0.28,0.39-0.56,0.59-0.84c4.27-6.22,8.17-13.61,10.35-16.46c3.62-4.73,9.74-9.18,10.57-17.8
					c0.83-8.62,3.62-13.63,6.68-19.47C445.27,199.29,447.77,158.12,440.54,146.72z"/>
				<path class="st8" d="M438.63,405.69c0,0,5.91-48.55,9.34-51.04c3.42-2.49-10.58-4.67-7.16-14.94c0.89-2.68,2.68-6.59,4.85-10.92
					c-2.16-3.04-9.95-14.22-13.59-22.72c-4.25-9.92,0-18.42,12.47-26.63c4.2-2.77,5.98-5.66,6.48-8.56
					c-2.02-2.06-4.21-3.82-6.57-5.12c-8.62-4.73-12.72-2.14-22.53-4.17c-3-0.62-5.43-1.67-7.29-2.74c-0.19,0.28-0.39,0.57-0.59,0.84
					c2.63,3.31,5.76,7.98,7.04,12.46c2.23,7.79,9.74,12.52,5.01,20.03c-3.76,5.97-11.02,15.44-14.13,23.13
					c-0.8,1.99-1.33,3.86-1.45,5.52c-0.56,8.07-6.95,3.06-2.5,22.81c1.85,8.22,2.26,27.33,2.1,46.84
					c2.96,19.6,5.68,37.43,6.49,42.73c3.59,0.22,7.36,0.39,11.28,0.48c6.79,0.16,14.04,0.1,21.61-0.32
					C432.18,422.54,438.63,405.69,438.63,405.69z"/>
				<path class="st8" d="M409.1,432.68c2.39,0.2,4.9,0.38,7.49,0.54c-0.81-5.3-3.53-23.13-6.49-42.73
					C409.97,406.09,409.49,421.93,409.1,432.68z"/>
				<path class="st8" d="M486.49,398.94c-6.21-0.24-11.19-0.31-13.62-0.1c-6.43,0.57-7.23-1.85-9.73-2.58
					c-1.61-0.47-3.93-0.24-8.94,1.96c-12.76,5.6-15.56,7.47-15.56,7.47s-6.44,16.85,10.86,27.69c3.52-0.2,7.1-0.47,10.74-0.84
					c11.4-1.14,23.31-3.19,35.28-6.56c0,0-2.3-8.06,4.6-14.97c0.7-0.7,1.44-1.45,2.18-2.21c2.67-2.72,5.54-5.73,8.28-8.6
					C502.2,399.7,493.54,399.21,486.49,398.94z"/>
				<path class="st8" d="M492.78,332.55c0,0-13.5-3.79-24.3-3c-4.67,0.34-8.83,1.53-11.18,4.25l9.2,20.52l15.12,33.76l4.87,10.87
					c7.06,0.27,15.72,0.76,24.08,1.28c0.94-0.99,1.86-1.95,2.74-2.89c2.87-3.03,5.42-5.7,7.14-7.41c0.05-0.05,0.09-0.09,0.14-0.14
					C514.56,377.72,492.78,332.55,492.78,332.55z"/>
				<path class="st8" d="M563.46,475.54h56.57c-4.51-7.66-9.89-16.56-14.79-24c-3.52-5.34-6.79-9.94-9.31-12.77
					c-6.57-7.39-19.79-12.05-29.14-14.51c-2.75,3.51-5.01,6.14-6.05,6.72c-3.45,1.92-6.52,3.84-6.52,3.84s0.01,0.06,0.02,0.16
					c0.13,1.25,0.59,9.6-10.76,11.73c-9.96,1.87-24.46,5.5-31.23,8.24c12.56,3.4,29.39,8.69,42.4,15.44
					C557.98,472.12,560.89,473.85,563.46,475.54z"/>
				<path class="st8" d="M672.67,312.66c-3.44-2.52-4.76-5.77-6.95-10.14c0-0.01-0.01-0.02-0.01-0.02
					c-2.68-5.36-1.98-10.71-1.52-12.89c0.14-0.65,0.26-1.03,0.26-1.03s-0.3-0.63-0.6-1.51c-0.41-1.19-0.83-2.85-0.59-4.12
					c-0.66-4.44-1.43-9.13-2.32-13.83c-3.81-20.15-21.78-33.21-28.31-40.29c-0.12-0.13-0.24-0.28-0.36-0.42
					c2.5,3.94,4.85,8.01,4.97,9.57c0.63,8.22-2.53,24.67-3.48,32.26c-0.25,2.03-1.06,3.78-2.29,5.21c0.17,2.3,0.4,5.37,0.62,8.31
					c0.86-0.29,1.34-0.47,1.34-0.47s13.58,8.71,17.41,9.75c2.51,0.69,10.27,8.56,15.31,13.9c2.65,2.8,4.54,4.91,4.54,4.91
					l-0.37,1.03C671.06,312.8,671.84,312.73,672.67,312.66z"/>
				<path class="st8" d="M566.56,214c-1.65,2.31-4.78,5.42-9.84,5.94c-2.16,0.22-4.02,1.45-5.78,3.15
					c-4.93,4.78-9.01,13.37-16.32,14.41c-9.92,1.42-11.62,3.12-15.58,5.38s-5.95-2.27-12.75-3.68c-6.8-1.42-5.67,6.8-5.67,6.8
					s-0.16,12.78-3.79,22.45c-1.17,3.12-2.7,5.93-4.71,7.86c-3.56,3.44-5.42,5.01-6.98,5.85c13.41,12.83,31.13,12.76,37.01,11.43
					c6.23-1.42,4.25-10.77,3.4-11.33c-0.77-0.51,7.01,3.13,14.79,2.8c0.57-0.02,1.13-0.07,1.69-0.14c0.27-0.03,0.54-0.07,0.8-0.12
					c8.5-1.42,12.47-22.66,12.47-22.66s2.55,0,5.67,0.57c3.12,0.57,2.83-5.67,1.13-10.77c-1.7-5.1,3.4-24.08,5.67-28.61
					C569.01,220.85,567.85,216.98,566.56,214z"/>
				<path class="st8" d="M561.53,197.56c-2.7-1.97-4.72-5.38-7.02-8.48c-2.28-3.07-4.82-5.82-8.57-6.54
					c-17.85-3.4-21.53-11.9-39.66-3.97c-18.13,7.93-23.51,20.68-27.76,29.18s-7.37,17.57-17.57,24.08
					c-10.2,6.52-13.88,15.87-13.32,22.95c0.38,4.7,4.36,10.39,3.37,16.09c-0.5,2.89-2.29,5.79-6.48,8.56
					c-12.47,8.22-16.72,16.72-12.47,26.63c3.64,8.49,11.43,19.68,13.59,22.72c0.36,0.51,0.57,0.8,0.57,0.8s10.2-13.03,14.17-17.57
					c1.77-2.02,3.88-7.38,6.33-12.87c3.04-6.8,6.59-13.8,10.67-14.9c4.18-1.12,5.71-0.98,7.76-2.08c1.56-0.84,3.42-2.42,6.98-5.85
					c2.01-1.94,3.54-4.74,4.71-7.86c3.63-9.67,3.79-22.45,3.79-22.45s-1.13-8.22,5.67-6.8c6.8,1.42,8.78,5.95,12.75,3.68
					s5.67-3.97,15.58-5.38c7.31-1.04,11.39-9.63,16.32-14.41c1.76-1.7,3.62-2.93,5.78-3.15c5.07-0.52,8.19-3.63,9.84-5.94
					c1.03-1.43,1.49-2.56,1.49-2.56S572.01,205.21,561.53,197.56z"/>
				<path class="st8" d="M561.91,325.75c2.02-6.1,4.31-12.6,4.15-15.43c-0.28-5.1-8.22-9.35-15.3-15.02
					c-2.8-2.24-6.08-5.54-9.03-8.71c-0.47-0.51-0.94-1.02-1.39-1.51c-7.77,0.33-15.55-3.31-14.79-2.8c0.85,0.57,2.83,9.92-3.4,11.33
					c-5.88,1.34-23.6,1.41-37.01-11.43c-2.04,1.1-3.58,0.95-7.76,2.08c-4.08,1.1-7.63,8.1-10.67,14.9
					c-2.45,5.49-4.56,10.84-6.33,12.87c-3.97,4.53-14.17,17.57-14.17,17.57s-0.21-0.29-0.57-0.8c-2.17,4.33-3.95,8.24-4.85,10.92
					c-3.42,10.27,10.58,12.45,7.16,14.94c-3.42,2.49-9.34,51.04-9.34,51.04s2.8-1.87,15.56-7.47c5.01-2.2,7.33-2.43,8.94-1.96
					c2.5,0.73,3.3,3.15,9.73,2.58c2.43-0.21,7.41-0.14,13.62,0.1l-4.87-10.87l-15.12-33.76l-9.2-20.52
					c2.35-2.72,6.51-3.91,11.18-4.25c10.8-0.78,24.3,3,24.3,3s21.78,45.17,27.8,57.23c4.05-4.01,9.42-7.58,11.17-4.12l17.78-20.78
					l2.61-3.05c1.63-1.9,4.03-2.89,6.47-2.77c0.27-8.82,0.51-18.84,0.36-21.55c-0.01-0.23,0-0.5,0.02-0.79
					C559.16,334.28,560.46,330.13,561.91,325.75z"/>
				<path class="st8" d="M573.2,350.81l-0.18-0.4l-11.11-24.66c-1.45,4.38-2.75,8.53-2.92,10.98c-0.02,0.28-0.03,0.55-0.02,0.79
					c0.15,2.7-0.1,12.72-0.36,21.55c0.52,0.03,1.04,0.08,1.55,0.21l13.83,3.49l5.18,1.31L573.2,350.81z"/>
				<path class="st8" d="M623.36,191.8c-5.44-9.8-21.78-15.25-30.49-14.16c-8.71,1.09-16.88-0.54-26.68,0.54
					c-6.88,0.76-10.27,7.15-11.68,10.9c2.3,3.1,4.32,6.51,7.02,8.48c10.48,7.65,6.52,13.88,6.52,13.88s-0.46,1.12-1.49,2.56
					c1.29,2.98,2.45,6.84,1.2,9.34c-2.27,4.53-7.37,23.51-5.67,28.61c1.7,5.1,1.98,11.33-1.13,10.77c-3.12-0.57-5.67-0.57-5.67-0.57
					s-3.97,21.25-12.47,22.66c-0.27,0.04-0.53,0.08-0.8,0.12c-0.56,0.07-1.13,0.11-1.69,0.14c0.45,0.5,0.92,1,1.39,1.51
					c2.95,3.17,6.24,6.48,9.03,8.71c7.08,5.67,15.02,9.92,15.3,15.02c0.16,2.83-2.13,9.33-4.15,15.43l11.11,24.66
					c0.21-0.03,0.43-0.06,0.65-0.09c6.5-6.76,24.72-26.74,18.67-32.21c-6.94-6.28-14.18-34.15-14.91-37.01
					c0.06,0.03,0.12,0.07,0.19,0.11l-0.25-0.36c0,0,0.6-11.98,3.11-19.37c0.56-2.85,2.26-12.23,1.73-17.81
					c-0.63-6.64-1.9-24.04,3.16-35.11s23.72-12.02,23.72-12.02s16.13,21.82,17.08,22.77c0,0,2.26,3.19,4.74,6.98
					C626.56,217.77,628.26,200.61,623.36,191.8z"/>
				<path class="st8" d="M630.91,226.29c0.4,0.78,0.85,1.48,1.36,2.1C631.81,227.69,631.36,226.98,630.91,226.29z"/>
				<path class="st8" d="M588.86,286.77c13.37,6.38,37.34-1.02,43.23-3.01c-0.22-2.94-0.46-6.01-0.62-8.31
					c-3.35,3.92-9.91,5.41-17.32,3.33c-15.53-4.37-33.84-16.45-33.84-16.45s0.06-0.31,0.17-0.85c-2.51,7.39-3.11,19.37-3.11,19.37
					l0.25,0.36C578.78,281.86,581.77,283.38,588.86,286.77z"/>
				<path class="st8" d="M666.16,306.93c-5.04-5.34-12.79-13.21-15.31-13.9c-3.83-1.04-17.41-9.75-17.41-9.75s-0.48,0.18-1.34,0.47
					c-5.9,1.99-29.86,9.4-43.23,3.01c-7.09-3.38-10.08-4.9-11.24-5.56c-0.07-0.04-0.13-0.07-0.19-0.11
					c0.73,2.86,7.97,30.73,14.91,37.01c6.05,5.47-12.17,25.44-18.67,32.21c-0.16,0.17-0.33,0.34-0.47,0.49l5.98,13.27l12.98,3.27
					c0.92,0.23,1.6,0.86,1.98,1.62l28.83,1.52c0.28-1.29,0.58-2.49,0.84-3.45c-0.36-0.01-0.73-0.02-1.11-0.02
					c0,0-2.53-7.59,6.33-11.7s12.65-11.7,18.34-21.82c5.69-10.12,8.22-18.66,19.61-20.24c0.93-0.13,2.06-0.26,3.36-0.38l0.37-1.03
					C670.7,311.84,668.8,309.74,666.16,306.93z"/>
				<path class="st8" d="M637.24,237.97c-0.12-1.56-2.47-5.63-4.97-9.57c-0.51-0.62-0.96-1.33-1.36-2.1
					c-2.48-3.79-4.74-6.98-4.74-6.98c-0.95-0.95-17.08-22.77-17.08-22.77s-18.66,0.95-23.72,12.02s-3.8,28.47-3.16,35.11
					c0.53,5.58-1.17,14.96-1.73,17.81c-0.11,0.54-0.17,0.85-0.17,0.85s18.31,12.08,33.84,16.45c7.41,2.09,13.97,0.6,17.32-3.33
					c1.22-1.43,2.04-3.18,2.29-5.21C634.71,262.64,637.87,246.2,637.24,237.97z"/>
				<path class="st8" d="M745.73,264.54c-7.27-7.59-27.52-24.35-49.97-19.93c-22.46,4.43-24.35,12.02-24.99,16.13
					s-3.48,19.29-6.33,20.56c-0.7,0.31-1.05,0.91-1.19,1.64c-0.24,1.27,0.18,2.93,0.59,4.12c0.31,0.89,0.6,1.51,0.6,1.51
					s-0.12,0.38-0.26,1.03c-0.46,2.18-1.16,7.53,1.52,12.89c0,0.01,0.01,0.02,0.01,0.02c2.19,4.38,3.51,7.63,6.95,10.14
					c2.02,1.47,4.77,2.7,8.85,3.75c0,0-0.63,3.8,3.16,6.01s22.46,7.59,34.48,3.16c10.74-3.96,7.59-11.7,6.8-13.3
					c-0.09-0.19-0.16-0.3-0.16-0.3s3.48-8.86,11.07-13.6S753,272.13,745.73,264.54z"/>
				<path class="st8" d="M645.65,383.28c-0.02-0.02-0.04-0.04-0.05-0.07c0,0,0,0,0,0.01C645.62,383.24,645.63,383.26,645.65,383.28z
					"/>
				<path class="st8" d="M727.73,410.02c0.31,1.07,1.76,2.06,3.13,2.78c1.32-1.52,2.89-3.11,4.53-4.61
					C734.04,408.16,727.18,408.1,727.73,410.02z"/>
				<path class="st8" d="M594.12,368.97c-0.38-0.76-1.05-1.39-1.98-1.62l-12.98-3.27l-5.18-1.31l-13.83-3.49
					c-0.51-0.13-1.03-0.19-1.55-0.21c-2.44-0.12-4.85,0.86-6.47,2.77l-2.61,3.05l-17.78,20.78c0.07,0.13,0.14,0.26,0.2,0.42
					c1.09,2.99,1.01,9.24-3.06,15.36c-1.68,2.53-4.05,5.04-7.3,7.28c0,0-1.15,3.07,8.83,4.6c6.59,1.01,7.32,1.69,10.6,0.6
					c1.68-0.56,4.04-1.59,8.2-3.28c0,0,18.04-8.44,24.18-13.81c3.17-2.77,9.44-8.81,9.44-8.81l1.44-2.08l9.63-13.89
					c0.02-0.04,0.04-0.08,0.06-0.11C594.57,370.99,594.57,369.88,594.12,368.97z"/>
				<path class="st8" d="M643.56,380.93c0.53,0.63,1.23,1.41,2.03,2.28c0,0,0,0,0-0.01c-1.25-1.53-2.34-2.91-3.19-4.03
					C642.76,379.83,643.13,380.43,643.56,380.93z"/>
				<path class="st8" d="M683.54,370.64c-1.96-6.86-14.69-4.08-16.82-4.74c-2.12-0.65,6.04-7.84,6.04-7.84s16.33-7.84,6.2-9.31
					c-10.12-1.47-17.96,8-17.96,8c-0.16,4.08-2.61,10.12-4.25,12.08s-3.76,8.82-6.53,11.76c-1.53,1.62-2.42,3.3-2.9,4.47
					c-0.02,0.05-0.04,0.09-0.06,0.14c-0.35,0.87-0.47,1.44-0.47,1.44c2.78,4.74,17.14,17.31,19.27,14.69
					c0.52-0.63,0.57-1.38,0.36-2.18c-0.18-0.65-0.53-1.35-0.98-2.06c-1.28-2.05-3.31-4.28-3.95-6.2c-1.14-3.43,0.65-2.94,4.41-6.53
					c3.76-3.59,1.47-2.45,2.61-5.22c1.14-2.78,5.39-2.12,6.53-2.45C676.19,376.36,685.5,377.5,683.54,370.64z"/>
				<path class="st8" d="M625.67,400.49c-1.46-0.82-2.83-2.43-3.52-3.72c-1.31-2.45,3.27-8.16,3.27-8.16s-0.77-1.38-1.59-3.34
					l-33.93,8.21c-0.11,0.18-0.22,0.36-0.34,0.54c8.53,5.05,18.7,11.06,29.28,17.33C618.7,407.12,623.75,403.06,625.67,400.49z"/>
				<path class="st8" d="M773,475.54h42.68c-1.66-6.04-3.9-13.27-6.42-19.04c-5.35-12.28-14.17-33.37-28.33-35.89
					c-2.69-0.48-7.97-0.99-14.75-1.51c-0.15,3.33-0.24,6.76,0.16,10.06c1.09,8.93-1.72,31.27-3.4,43.23
					C766.09,473.44,769.49,474.5,773,475.54z"/>
				<path class="st8" d="M725.9,430.09c-4.24-3.71-6.52-7.82-7.73-11.28c-9.61,1.79-37.34,6.82-43.04,2.16c0,0-8.82,1.52-12.77-0.3
					c3.81,5.71,5.17,12.87-1.75,15.41c13.68,8.1,24.81,14.7,29.73,17.63c8.92,5.31,15.05,12.56,19.03,18.64
					c6.8-2.9,15.95-6.53,23.28-8.44C732.59,450.76,731.33,434.84,725.9,430.09z"/>
				<path class="st8" d="M595.93,438.77c2.52,2.83,5.79,7.43,9.31,12.77l59.22,24h46.87c-0.58-1.02-1.23-2.08-1.96-3.2
					c-3.97-6.08-10.11-13.34-19.03-18.64c-4.92-2.93-16.05-9.53-29.73-17.63c-0.82,0.3-1.75,0.54-2.81,0.7
					c-10.03,1.52-33.14-16.42-37.7-22.19c-0.85-1.08-1.22-2.16-1.26-3.24c-10.58-6.26-20.75-12.28-29.28-17.33
					c-0.32,0.51-0.65,1.03-0.99,1.53c-1.18,1.74-2.46,3.41-3.66,4.73c-2.68,2.95-11.74,15.83-18.13,23.98
					C576.14,426.72,589.36,431.38,595.93,438.77z"/>
				<path class="st8" d="M641.9,393.5c0.61-1.09,0.8-1.84,0.71-2.34l-1.47-0.9c-1.07-0.03-2.52,0.35-3.65,0.63
					c-2.08,0.52-1.06,4.64-0.55,6.31c1.71-0.01,2.92,0.05,2.92,0.05s0.13,0.12,0.35,0.33C640.2,396.65,640.99,395.16,641.9,393.5z"
					/>
				<path class="st8" d="M746.04,401.18c-2.2,0.16-6.63,3.32-10.66,7.01c-1.64,1.5-3.2,3.1-4.53,4.61c-1.26,1.45-2.3,2.83-2.96,4
					c-0.53,0.94-0.83,1.75-0.78,2.34c0.3,3.95,5.78,5.47,6.38,7.3c0.61,1.82,5.47,4.56,6.99,4.56s2.13,3.95,5.47,4.26
					c3.34,0.3,7.9,1.52,8.21-0.91s3.65-5.78,2.43-13.07c-0.1-0.62,0.36-1.64,1.05-2.76c0.48-0.78,1.08-1.61,1.7-2.41
					c1.61-2.09,3.33-3.95,3.33-3.95C761.78,411.54,750.68,400.85,746.04,401.18z"/>
				<path class="st8" d="M589.9,393.48l33.93-8.21c-0.82-1.96-1.68-4.5-1.84-6.79c-0.15-2.04,0.33-4.98,0.89-7.62
					c0.03-0.12,0.05-0.25,0.08-0.37l-28.83-1.52c0.45,0.91,0.45,2.02-0.15,2.97c-0.02,0.04-0.03,0.08-0.06,0.11l-9.63,13.89
					c0.72,0.72,1.43,2.15,0.25,4.75c0,0,8.06-7.67,8.44-4.99c0.13,0.89-0.3,2.34-1.06,4.02
					C591.38,390.89,590.69,392.18,589.9,393.48z"/>
				<path class="st8" d="M380.33,475.54c14.76-1.64,30.75-5.42,30.75-5.42s0.63-0.07,1.77-0.2c12.98-1.49,93.26-10.76,96.08-13.23
					c0.58-0.51,1.74-1.1,3.31-1.74c6.76-2.74,21.27-6.37,31.23-8.24c11.35-2.13,10.9-10.48,10.76-11.73
					c-0.01-0.1-0.02-0.16-0.02-0.16s3.07-1.92,6.52-3.84c1.04-0.58,3.3-3.21,6.05-6.72c6.39-8.15,15.44-21.03,18.13-23.98
					c1.2-1.32,2.48-2.99,3.66-4.73c0.34-0.51,0.67-1.02,0.99-1.53c0.11-0.18,0.23-0.36,0.34-0.54c0.79-1.3,1.48-2.59,2.01-3.76
					c0.76-1.68,1.19-3.13,1.06-4.02c-0.38-2.69-8.44,4.99-8.44,4.99c1.18-2.6,0.47-4.03-0.25-4.75l-1.44,2.08
					c0,0-6.27,6.04-9.44,8.81c-6.14,5.37-24.18,13.81-24.18,13.81c-4.17,1.69-6.52,2.72-8.2,3.28c-3.28,1.09-4.01,0.42-10.6-0.6
					c-9.98-1.53-8.83-4.6-8.83-4.6c3.25-2.24,5.62-4.75,7.3-7.28c4.08-6.12,4.15-12.37,3.06-15.36c-0.06-0.16-0.13-0.28-0.2-0.42
					c-1.75-3.46-7.12,0.11-11.17,4.12c-0.05,0.05-0.09,0.09-0.14,0.14c-1.72,1.72-4.26,4.39-7.14,7.41
					c-0.89,0.93-1.81,1.9-2.74,2.89c-2.73,2.87-5.6,5.88-8.28,8.6c-0.74,0.76-1.48,1.5-2.18,2.21c-6.91,6.91-4.6,14.97-4.6,14.97
					c-11.96,3.37-23.88,5.42-35.28,6.56c-3.64,0.37-7.22,0.64-10.74,0.84c-7.56,0.42-14.82,0.48-21.61,0.32
					c-3.93-0.09-7.7-0.26-11.28-0.48c-2.6-0.16-5.1-0.34-7.49-0.54c-4.5-0.37-8.61-0.8-12.28-1.21
					c-10.55-1.19-17.38-2.26-18.74-1.65c-11.13,4.99-20.34,44.51-20.34,44.51c0.8,0.51,1.84,0.9,3.06,1.2H380.33z"/>
				<path class="st8" d="M662.36,420.66c-3.54-5.32-16.78-18.01-21.11-22.1c-0.73-0.06-1.03-0.42-1.04-0.98
					c-0.22-0.21-0.35-0.33-0.35-0.33s-1.22-0.06-2.92-0.05c0.13,0.43,0.23,0.71,0.23,0.71c-0.79,1.01-1.72,1.62-2.66,1.99
					c-2.56,1-5.18,0.14-5.18,0.14c-1,1.31-2.36,1.19-3.66,0.46c-1.92,2.57-6.97,6.63-6.82,10.85c0.04,1.07,0.41,2.16,1.26,3.24
					c4.56,5.78,27.67,23.71,37.7,22.19c1.06-0.16,1.99-0.4,2.81-0.7C667.54,433.53,666.17,426.37,662.36,420.66z"/>
				<path class="st8" d="M646.75,393.7c-0.05-0.32-0.13-0.66-0.27-1.01c-1.16-2.95-1-7.61-0.88-9.47c-0.8-0.87-1.5-1.65-2.03-2.28
					c-0.43-0.51-0.8-1.1-1.15-1.75c-2.01-3.69-3.49-9.22-11.87-11.32c-1.87-0.47-4.1-0.76-6.75-0.83c-0.26,0.96-0.55,2.17-0.84,3.45
					c-0.03,0.12-0.05,0.24-0.08,0.37c-0.57,2.64-1.04,5.59-0.89,7.62c0.16,2.29,1.02,4.82,1.84,6.79c0.81,1.95,1.59,3.34,1.59,3.34
					s-4.57,5.71-3.27,8.16c0.69,1.29,2.06,2.9,3.52,3.72c1.3,0.74,2.66,0.85,3.66-0.46c0,0,2.62,0.87,5.18-0.14
					c0.94-0.37,1.87-0.98,2.66-1.99c0,0-0.1-0.28-0.23-0.71c-0.5-1.67-1.52-5.8,0.55-6.31c1.14-0.28,2.58-0.66,3.65-0.63l1.47,0.9
					c0.09,0.5-0.11,1.25-0.71,2.34c-0.92,1.65-1.7,3.15-1.69,4.08c0.01,0.56,0.3,0.92,1.04,0.98c0.15,0.01,0.31,0.02,0.49,0
					C644.11,398.42,647.26,396.79,646.75,393.7z"/>
				<path class="st8" d="M647.27,385.21c-0.35,0.87-0.47,1.44-0.47,1.44c2.78,4.74,17.14,17.31,19.27,14.69
					c0.52-0.63,0.57-1.38,0.36-2.18c-0.18-0.65-0.53-1.35-0.98-2.06c-0.36-0.57-3.49-4.81-3.95-6.2c-1.14-3.43,0.65-2.94,4.41-6.53
					c3.76-3.59,1.47-2.45,2.61-5.22c1.14-2.78,5.39-2.12,6.53-2.45c1.14-0.33,10.45,0.82,8.49-6.04
					c-1.96-6.86-14.69-4.08-16.82-4.74c-2.12-0.65,6.04-7.84,6.04-7.84s16.33-7.84,6.2-9.31c-10.12-1.47-17.96,8-17.96,8
					c-0.16,4.08-2.61,10.12-4.25,12.08s-3.76,8.82-6.53,11.76c-1.53,1.62-2.42,3.3-2.9,4.47c-0.59-0.62-1.15-1.23-1.68-1.8
					c0.45,0.54,0.91,1.1,1.39,1.67C647.12,385.03,647.2,385.12,647.27,385.21z"/>
				<path class="st8" d="M781.47,369.86c0.63-6.33-0.63-9.17-5.69-12.97c-5.06-3.8-3.16-4.74-5.06-10.44
					c-1.9-5.69-22.77-21.82-31.63-27.52c-4.71-3.03-9.58-5.24-13.13-6.66c0.79,1.6,3.94,9.34-6.8,13.3
					c-12.02,4.43-30.68-0.95-34.48-3.16s-3.16-6.01-3.16-6.01c-4.09-1.05-6.83-2.27-8.85-3.75c-0.83,0.07-1.61,0.14-2.34,0.21
					c-1.3,0.12-2.43,0.25-3.36,0.38c-11.39,1.58-13.92,10.12-19.61,20.24c-5.69,10.12-9.49,17.71-18.34,21.82s-6.33,11.7-6.33,11.7
					c0.38,0,0.74,0.01,1.11,0.02c2.65,0.06,4.87,0.36,6.75,0.83c8.38,2.1,9.86,7.63,11.87,11.32c0.85,1.11,1.93,2.5,3.19,4.03
					c0.02,0.02,0.04,0.04,0.05,0.07c0.52,0.57,1.09,1.17,1.68,1.8c0.49-1.17,1.37-2.84,2.9-4.47c2.78-2.94,4.9-9.8,6.53-11.76
					s4.08-8,4.25-12.08c0,0,7.84-9.47,17.96-8c10.12,1.47-6.2,9.31-6.2,9.31s-8.16,7.18-6.04,7.84c2.12,0.65,14.86-2.12,16.82,4.74
					c1.96,6.86-7.35,5.71-8.49,6.04c-1.14,0.33-5.39-0.33-6.53,2.45c-1.14,2.78,1.14,1.63-2.61,5.22c-3.76,3.59-5.55,3.1-4.41,6.53
					c0.46,1.39,1.65,2.94,2.76,4.47c2.55,0.56,4.87,4.12,9,4.99c10.93,2.31,26.39,2.48,31.13,3.74c4.76,1.27,11.6-1.52,16.36-3.99
					c-5.79-1.18-15.79-3.56-14.51-5.78c1.59-2.75,14.67-0.8,17.54-0.4c0.05,0.01,0.99,0.11,1.4,0c0.46-0.12,0.39-0.46,0.34-0.48
					c-3.26-1.65-22.86-10.84-21.08-15.28c1.96-4.9,13.72,2.12,17.14,3.27c2.54,0.85,7.58,1.6,10.03,1.94
					c0.25,0.03,0.36-0.31,0.13-0.42c-5.31-2.53-25.52-12.18-26.65-13.6c-1.31-1.63-4.41-9.14,0.49-8.82s27.59,13.23,29.88,12.08
					s2.61-2.61-1.31-4.74s-20.57-15.67-19.59-18.29s12.57,2.78,13.06,2.94c0.49,0.16,13.88,6.86,13.88,6.86s3.59,5.06,5.22,8.49
					c1.63,3.43,2.75,17.5,4.57,20.41c1.63,2.61,1.31,4.25-0.33,5.88c-0.57,0.57-1.13,1.37-1.63,2.18c-0.94,1.52-1.63,3.05-1.63,3.05
					c-0.04-0.04-0.13-0.08-0.26-0.14l-0.24,2.05c5.1,1.13,14.64,10.3,15.48,10.86c0,0-1.72,1.86-3.33,3.95
					c2.46,1.17,4.93,1.22,6.92,1.1c1.15-0.07,2.14-0.2,2.86-0.2c2.53,0,11.7-21.82,12.65-28.47
					C782.73,381.88,780.83,376.19,781.47,369.86z"/>
				<path class="st8" d="M722.32,400.42c0.01,0,0.02,0,0.03,0.01c0.22,0.04,0.43,0.08,0.62,0.12c0.03,0,0.05,0.01,0.07,0.01
					c0.18,0.03,0.34,0.06,0.5,0.09c0.02,0,0.04,0.01,0.07,0.01c0.14,0.03,0.27,0.05,0.39,0.07c0.01,0,0.03,0.01,0.04,0.01
					c1.05-1.16,2.21-2.01,3.42-2.18c19.34-2.71,19.99,0.68,19.99,0.68c0.13,0.05,0.22,0.1,0.26,0.14c0,0,0.7-1.53,1.63-3.05
					c0.5-0.81,1.06-1.61,1.63-2.18c1.63-1.63,1.96-3.27,0.33-5.88c-1.82-2.91-2.94-16.98-4.57-20.41c-1.63-3.43-5.22-8.49-5.22-8.49
					s-13.39-6.69-13.88-6.86c-0.49-0.16-12.08-5.55-13.06-2.94s15.67,16.16,19.59,18.29s3.59,3.59,1.31,4.74
					s-24.98-11.76-29.88-12.08s-1.8,7.18-0.49,8.82c1.13,1.42,21.34,11.08,26.65,13.6c0.23,0.11,0.13,0.45-0.13,0.42
					c-2.45-0.34-7.49-1.09-10.03-1.94c-3.43-1.14-15.18-8.16-17.14-3.27c-1.78,4.45,17.82,13.63,21.08,15.28
					c0.05,0.03,0.12,0.36-0.34,0.48c-0.41,0.11-1.35,0.01-1.4,0c-2.88-0.4-15.95-2.35-17.54,0.4c-1.29,2.22,8.71,4.61,14.51,5.78
					l0,0C721.31,400.22,721.85,400.32,722.32,400.42z"/>
				<path class="st8" d="M716.78,410.93c1.13-3.52,3.21-6.28,5.87-8.42c0.44-0.64,0.9-1.24,1.39-1.78c-0.01,0-0.03-0.01-0.04-0.01
					c-0.12-0.02-0.24-0.04-0.39-0.07c-0.02,0-0.04-0.01-0.07-0.01c-0.15-0.03-0.32-0.06-0.5-0.09c-0.03,0-0.05-0.01-0.07-0.01
					c-0.19-0.04-0.4-0.08-0.62-0.12c-0.01,0-0.02,0-0.03-0.01c-0.48-0.09-1.01-0.2-1.58-0.31c-4.76,2.47-11.6,5.26-16.36,3.99
					c-4.63-1.24-20.32-1.46-31.13-3.74c-4.44-0.94-6.29-4.39-9-4.99c0.42,0.58,0.84,1.17,1.19,1.73c0.45,0.72,0.8,1.41,0.98,2.06
					c0.22,0.81,0.16,1.55-0.36,2.18c-2.12,2.61-16.49-9.96-19.27-14.69c0,0,0.12-0.57,0.47-1.44c-0.07-0.09-0.15-0.18-0.23-0.26
					c-0.48-0.57-0.95-1.13-1.39-1.67c-0.02-0.02-0.04-0.04-0.05-0.06c-0.12,1.86-0.28,6.52,0.88,9.47c0.14,0.36,0.22,0.69,0.27,1.01
					c0.51,3.09-2.64,4.72-5.01,4.86c-0.18,0.01-0.34,0.01-0.49,0c4.33,4.1,17.56,16.79,21.11,22.1c3.95,1.82,12.77,0.3,12.77,0.3
					c5.7,4.66,33.42-0.38,43.04-2.16c-0.31-0.89-0.56-1.74-0.75-2.53C716.66,413.11,716.78,410.93,716.78,410.93z"/>
				<path class="st8" d="M718.17,418.8c1.22,3.46,3.49,7.58,7.73,11.28c5.43,4.75,6.69,20.67,6.75,33.82
					c0.02,4.36-0.1,8.4-0.23,11.64h30.07c0.14-0.94,0.29-1.99,0.45-3.14c1.68-11.96,4.49-34.3,3.4-43.23
					c-0.4-3.3-0.31-6.73-0.16-10.06c0.03-0.64,0.06-1.28,0.09-1.92c-1.99,0.13-4.45,0.08-6.92-1.1c-0.62,0.8-1.21,1.63-1.7,2.41
					c-0.7,1.12-1.16,2.14-1.05,2.76c1.22,7.3-2.13,10.64-2.43,13.07s-4.86,1.22-8.21,0.91c-3.34-0.3-3.95-4.26-5.47-4.26
					s-6.38-2.74-6.99-4.56c-0.61-1.82-6.08-3.34-6.38-7.3c-0.05-0.59,0.25-1.4,0.78-2.34c0.66-1.17,1.7-2.55,2.96-4
					c-1.37-0.72-2.83-1.71-3.13-2.78c-0.55-1.92,6.31-1.86,7.66-1.83c3.57-3.28,7.45-6.13,9.82-6.84c0.3-0.09,0.59-0.15,0.84-0.17
					c0.35-0.03,0.75,0.02,1.17,0.11l0.24-2.05c0,0-0.65-3.4-19.99-0.68c-1.21,0.17-2.37,1.02-3.42,2.18l0,0
					c-0.49,0.54-0.95,1.14-1.39,1.78c-2.66,2.14-4.74,4.9-5.87,8.42c0,0-0.12,2.18,0.64,5.34
					C717.61,417.06,717.85,417.91,718.17,418.8z"/>
				<path class="st8" d="M531.04,178.2c0,0-12.37,2.3-15.68,17.26c-3.31,14.96-5.9,43.86-5.9,43.86l4.17,2.44
					c0,0,7.85-38.29,9.35-42.71c2.44-7.19,18.41-17.69,18.41-17.69L531.04,178.2z"/>
				<path class="st8" d="M660.75,380.36c0,0,18.4,0.24,21.14,5.52c2.74,5.28,2.64,7.2-3.91,5.52c-6.54-1.69-21.09-3.14-21.83-4.83"
					/>
			</g>
			<g>
				<path class="st9" d="M692.84,475.54l56.82-19.9l39.36,19.9h14.27l-13.92-45.46l-191.8,7.66c4.56,3.76,9.23,7.78,11.24,13.47
					c0.26,0.73-0.29,1.56-1,1.75c-0.52,0.14-1.01-0.03-1.35-0.37c-0.05,0.04-0.09,0.08-0.15,0.11c-0.72,0.42-1.49,0.1-1.95-0.51
					c-1.99-2.63-4.54-4.77-6.78-7.17c-1.11-1.19-2.16-2.44-3.03-3.82c-0.7-1.1-1.34-2.25-2.55-2.85c-0.2-0.1-0.35-0.22-0.46-0.36
					l-203.98,8.14l-13.32,29.42H692.84z"/>
				<path class="st10" d="M649.91,385.73c0.02-0.04,0.04-0.09,0.06-0.14c-0.59-0.62-1.15-1.23-1.68-1.8
					c0.45,0.54,0.91,1.1,1.39,1.67C649.75,385.56,649.83,385.65,649.91,385.73z"/>
				<path class="st10" d="M411.19,308.02c0.78,2.08,2.04,3.97,3.39,7.84c3.11-7.69,10.37-17.17,14.13-23.13
					c4.73-7.51-2.78-12.24-5.01-20.03c-1.28-4.49-4.41-9.15-7.04-12.46c-2.64,3.75-5.41,6.95-7.98,8.29
					c-2.05,1.07-5.12,1.01-8.58,0.29c-1.88,3.12-4.14,7.44-4.75,11.03C400.39,288.38,409.96,304.76,411.19,308.02z"/>
				<path class="st10" d="M576.3,350.84c-0.22,0.03-0.44,0.07-0.65,0.09l0.18,0.4C575.98,351.18,576.14,351.01,576.3,350.84z"/>
				<path class="st11" d="M385.7,264.58c0,0,9.98,8.06,9.21,12.28c-0.08,0.42-0.23,0.92-0.45,1.48c0.28,0.47,0.58,0.98,0.89,1.51
					c0.61-3.59,2.87-7.91,4.75-11.03c-4.41-0.92-9.46-2.94-13.88-5.17L385.7,264.58z"/>
				<path class="st10" d="M376.97,257.95c-1.68-1.38-3.81-4.18-6-7.53c-5.79-8.82-12.08-21.4-12.08-21.4l-8.34-15.85l1.07-3.76
					c-0.66-0.9-1.77-1.8-3.58-1.8c-3.62,0-10.29,15.02-11.75,18.31c-1.46,3.29,15.09,26.47,19.26,30.92
					c4.17,4.45,7.23,28.09,8.62,30.6c1.39,2.5,2.5-4.17,10.57-10.57c0.17-0.13,0.32-0.26,0.48-0.39
					c7.69-6.24,10.47-11.89,10.47-11.89l0.53-0.93C382.36,261.7,378.99,259.6,376.97,257.95z"/>
				<path class="st8" d="M395.35,279.84c-0.25,1.5-0.22,2.87,0.26,3.98c0.9,2.1-1.33,2.65-4.55,2.5
					c-1.76,4.78-2.88,10.49,0.01,15.87c5.37,9.98,10.74,11.51,12.66,27.25c1,8.16,5.19,36.34,9,61.59
					c0.16-19.51-0.25-38.62-2.1-46.84c-4.45-19.75,1.95-14.74,2.5-22.81c0.11-1.66,0.64-3.53,1.45-5.52
					c-1.35-3.86-2.62-5.76-3.39-7.84C409.96,304.76,400.39,288.38,395.35,279.84z"/>
				<path class="st11" d="M395.61,283.82c-0.47-1.1-0.51-2.48-0.26-3.98c-0.31-0.53-0.62-1.04-0.89-1.51
					c-0.76,1.99-2.22,4.78-3.41,7.98C394.28,286.47,396.51,285.92,395.61,283.82z"/>
				<path class="st10" d="M262.03,393.88c-2.78,22.21,16.66,43.73,20.13,53.44c2.88,8.06-0.92,23.26-2.31,28.22h81.88
					c-0.51-0.2-0.97-0.42-1.36-0.68c0,0,9.21-39.53,20.34-44.51c1.37-0.61,8.2,0.46,18.74,1.65c3.67,0.41,7.78,0.84,12.28,1.21
					c0.39-10.75,0.88-26.6,1-42.19c-3.81-25.24-8-53.43-9-61.59c-1.92-15.73-7.29-17.27-12.66-27.25
					c-2.89-5.38-1.78-11.08-0.01-15.87c1.18-3.2,2.65-5.99,3.41-7.98c0.21-0.56,0.37-1.05,0.45-1.48
					c0.77-4.22-9.21-12.28-9.21-12.28s-2.78,5.65-10.47,11.89c-0.16,0.13-0.31,0.26-0.48,0.39c-8.07,6.4-9.18,13.07-10.57,10.57
					c-1.39-2.5-4.45-26.15-8.62-30.6c-4.17-4.45-20.72-27.63-19.26-30.92c-73.57,39.56-70.1,63.16-76.35,78.43
					C253.7,319.61,264.8,371.67,262.03,393.88z"/>
				<path class="st11" d="M438.56,145.93c-6.01-9.48-17.11-27.63-49.23-23.37c-39.78,5.28-37.83,46.73-37.83,46.73
					s-4.05,1.39-5.56,5.28c-1.95,5.01-2.5,20.58,3.89,23.64l-2.82,9.87l-1.07,3.76l8.34,15.85c0,0,6.29,12.58,12.08,21.4
					c2.19,3.34,4.32,6.15,6,7.53c2.01,1.65,5.39,3.75,9.25,5.7c4.41,2.22,9.46,4.24,13.88,5.17c3.46,0.72,6.53,0.78,8.58-0.29
					c2.57-1.34,5.34-4.54,7.98-8.29c0.2-0.28,0.39-0.56,0.59-0.84c4.27-6.22,8.17-13.61,10.35-16.46c3.62-4.73,9.74-9.18,10.57-17.8
					c0.83-8.62,3.62-13.63,6.68-19.47C443.29,198.5,445.79,157.33,438.56,145.93z"/>
				<path class="st10" d="M441.26,406.22c0,0,5.91-48.55,9.34-51.04c3.42-2.49-10.58-4.67-7.16-14.94
					c0.89-2.68,2.68-6.59,4.85-10.92c-2.16-3.04-9.95-14.22-13.59-22.72c-4.25-9.92,0-18.42,12.47-26.63
					c4.2-2.77,5.98-5.66,6.48-8.56c-2.02-2.06-4.21-3.82-6.57-5.12c-8.62-4.73-12.72-2.14-22.53-4.17c-3-0.62-5.43-1.67-7.29-2.74
					c-0.19,0.28-0.39,0.57-0.59,0.84c2.63,3.31,5.76,7.98,7.04,12.46c2.23,7.79,9.74,12.52,5.01,20.03
					c-3.76,5.97-11.02,15.44-14.13,23.13c-0.8,1.99-1.33,3.86-1.45,5.52c-0.56,8.07-6.95,3.06-2.5,22.81
					c1.85,8.22,2.26,27.33,2.1,46.84c2.96,19.6,5.68,37.43,6.49,42.73c3.59,0.22,7.36,0.39,11.28,0.48
					c6.79,0.16,14.04,0.1,21.61-0.32C434.81,423.07,441.26,406.22,441.26,406.22z"/>
				<path class="st8" d="M411.73,433.21c2.39,0.2,4.9,0.38,7.49,0.54c-0.81-5.3-3.53-23.13-6.49-42.73
					C412.61,406.61,412.12,422.46,411.73,433.21z"/>
				<path class="st12" d="M489.12,399.47c-6.21-0.24-11.19-0.31-13.62-0.1c-6.43,0.57-7.23-1.85-9.73-2.58
					c-1.61-0.47-3.93-0.24-8.94,1.96c-12.76,5.6-15.56,7.47-15.56,7.47s-6.44,16.85,10.86,27.69c3.52-0.2,7.1-0.47,10.74-0.84
					c11.4-1.14,23.31-3.19,35.28-6.56c0,0-2.3-8.06,4.6-14.97c0.7-0.7,1.44-1.45,2.18-2.21c2.67-2.72,5.54-5.73,8.28-8.6
					C504.83,400.22,496.18,399.74,489.12,399.47z"/>
				<path class="st13" d="M492.78,333.41c0,0-13.5-3.79-24.3-3c-4.67,0.34-8.83,1.53-11.18,4.25l9.2,20.52l15.12,33.76l4.87,10.87
					c7.06,0.27,15.72,0.76,24.08,1.28c0.94-0.99,1.86-1.95,2.74-2.89c2.87-3.03,5.42-5.7,7.14-7.41c0.05-0.05,0.09-0.09,0.14-0.14
					C514.56,378.58,492.78,333.41,492.78,333.41z"/>
				<path class="st12" d="M561.7,475.54h57.84c-4.34-7.36-9.39-15.67-14.02-22.69c-3.52-5.34-6.79-9.94-9.31-12.77
					c-6.57-7.39-19.79-12.05-29.14-14.51c-2.75,3.51-5.01,6.14-6.05,6.72c-3.45,1.92-6.52,3.84-6.52,3.84s0.01,0.06,0.02,0.16
					c0.13,1.25,0.59,9.6-10.76,11.73c-9.96,1.87-24.46,5.5-31.23,8.24c12.56,3.4,29.39,8.69,42.4,15.44
					C557.41,472.99,559.65,474.27,561.7,475.54z"/>
				<path class="st14" d="M675.3,313.19c-3.44-2.52-4.76-5.77-6.95-10.14c0-0.01-0.01-0.02-0.01-0.02
					c-2.68-5.36-1.98-10.71-1.52-12.89c0.14-0.65,0.26-1.03,0.26-1.03s-0.3-0.63-0.6-1.51c-0.41-1.19-0.83-2.85-0.59-4.12
					c-0.66-4.44-1.43-9.13-2.32-13.83c-3.81-20.15-21.78-33.21-28.31-40.29c-0.12-0.13-0.24-0.28-0.36-0.42
					c2.5,3.94,4.85,8.01,4.97,9.57c0.63,8.22-2.53,24.67-3.48,32.26c-0.25,2.03-1.06,3.78-2.29,5.21c0.17,2.3,0.4,5.37,0.62,8.31
					c0.86-0.29,1.34-0.47,1.34-0.47s13.58,8.71,17.41,9.75c2.51,0.69,10.27,8.56,15.31,13.9c2.65,2.8,4.54,4.91,4.54,4.91
					l-0.37,1.03C673.69,313.33,674.47,313.26,675.3,313.19z"/>
				<path class="st13" d="M564.91,213.87c-1.65,2.31-4.78,5.42-9.84,5.94c-2.16,0.22-4.02,1.45-5.78,3.15
					c-4.93,4.78-9.01,13.37-16.32,14.41c-9.92,1.42-11.62,3.12-15.58,5.38s-5.95-2.27-12.75-3.68c-6.8-1.42-5.67,6.8-5.67,6.8
					s-0.16,12.78-3.79,22.45c-1.17,3.12-2.7,5.93-4.71,7.86c-3.56,3.44-5.42,5.01-6.98,5.85c13.41,12.83,31.13,12.76,37.01,11.43
					c6.23-1.42,4.25-10.77,3.4-11.33c-0.77-0.51,7.01,3.13,14.79,2.8c0.57-0.02,1.13-0.07,1.69-0.14c0.27-0.03,0.54-0.07,0.8-0.12
					c8.5-1.42,12.47-22.66,12.47-22.66s2.55,0,5.67,0.57c3.12,0.57,2.83-5.67,1.13-10.77c-1.7-5.1,3.4-24.08,5.67-28.61
					C567.36,220.72,566.2,216.85,564.91,213.87z"/>
				<path class="st15" d="M564.16,198.09c-2.7-1.97-4.72-5.38-7.02-8.48c-2.28-3.07-4.82-5.82-8.57-6.54
					c-17.85-3.4-21.53-11.9-39.66-3.97c-18.13,7.93-23.51,20.68-27.76,29.18s-7.37,17.57-17.57,24.08
					c-10.2,6.52-13.88,15.87-13.32,22.95c0.38,4.7,4.36,10.39,3.37,16.09c-0.5,2.89-2.29,5.79-6.48,8.56
					c-12.47,8.22-16.72,16.72-12.47,26.63c3.64,8.49,11.43,19.68,13.59,22.72c0.36,0.51,0.57,0.8,0.57,0.8s10.2-13.03,14.17-17.57
					c1.77-2.02,3.88-7.38,6.33-12.87c3.04-6.8,6.59-13.8,10.67-14.9c4.18-1.12,5.71-0.98,7.76-2.08c1.56-0.84,3.42-2.42,6.98-5.85
					c2.01-1.94,3.54-4.74,4.71-7.86c3.63-9.67,3.79-22.45,3.79-22.45s-1.13-8.22,5.67-6.8c6.8,1.42,8.78,5.95,12.75,3.68
					s5.67-3.97,15.58-5.38c7.31-1.04,11.39-9.63,16.32-14.41c1.76-1.7,3.62-2.93,5.78-3.15c5.07-0.52,8.19-3.63,9.84-5.94
					c1.03-1.43,1.49-2.56,1.49-2.56S574.64,205.74,564.16,198.09z"/>
				<path class="st16" d="M564.54,326.28c2.02-6.1,4.31-12.6,4.15-15.43c-0.28-5.1-8.22-9.35-15.3-15.02
					c-2.8-2.24-6.08-5.54-9.03-8.71c-0.47-0.51-0.94-1.02-1.39-1.51c-7.77,0.33-15.55-3.31-14.79-2.8c0.85,0.57,2.83,9.92-3.4,11.33
					c-5.88,1.34-23.6,1.41-37.01-11.43c-2.04,1.1-3.58,0.95-7.76,2.08c-4.08,1.1-7.63,8.1-10.67,14.9
					c-2.45,5.49-4.56,10.84-6.33,12.87c-3.97,4.53-14.17,17.57-14.17,17.57s-0.21-0.29-0.57-0.8c-2.17,4.33-3.95,8.24-4.85,10.92
					c-3.42,10.27,10.58,12.45,7.16,14.94c-3.42,2.49-9.34,51.04-9.34,51.04s2.8-1.87,15.56-7.47c5.01-2.2,7.33-2.43,8.94-1.96
					c2.5,0.73,3.3,3.15,9.73,2.58c2.43-0.21,7.41-0.14,13.62,0.1l-4.87-10.87l-15.12-33.76l-9.2-20.52
					c2.35-2.72,6.51-3.91,11.18-4.25c10.8-0.78,24.3,3,24.3,3s21.78,45.17,27.8,57.23c4.05-4.01,9.42-7.58,11.17-4.12l17.78-20.78
					l2.61-3.05c1.63-1.9,4.03-2.89,6.47-2.77c0.27-8.82,0.51-18.84,0.36-21.55c-0.01-0.23,0-0.5,0.02-0.79
					C561.79,334.81,563.1,330.65,564.54,326.28z"/>
				<path class="st13" d="M578.14,351.66l-0.18-0.4l-11.11-24.66c-1.45,4.38-2.75,8.53-2.92,10.98c-0.02,0.28-0.03,0.55-0.02,0.79
					c0.15,2.7-0.1,12.72-0.36,21.55c0.52,0.03,1.04,0.08,1.55,0.21l13.83,3.49l5.18,1.31L578.14,351.66z"/>
				<path class="st14" d="M624.02,192.32c-5.44-9.8-21.78-15.25-30.49-14.16c-8.71,1.09-16.88-0.54-26.68,0.54
					c-6.88,0.76-10.27,7.15-11.68,10.9c2.3,3.1,4.32,6.51,7.02,8.48c10.48,7.65,6.52,13.88,6.52,13.88s-0.46,1.12-1.49,2.56
					c1.29,2.98,2.45,6.84,1.2,9.34c-2.27,4.53-7.37,23.51-5.67,28.61c1.7,5.1,1.98,11.33-1.13,10.77c-3.12-0.57-5.67-0.57-5.67-0.57
					s-3.97,21.25-12.47,22.66c-0.27,0.04-0.53,0.08-0.8,0.12c-0.56,0.07-1.13,0.11-1.69,0.14c0.45,0.5,0.92,1,1.39,1.51
					c2.95,3.17,6.24,6.48,9.03,8.71c7.08,5.67,15.02,9.92,15.3,15.02c0.16,2.83-2.13,9.33-4.15,15.43l11.11,24.66
					c0.21-0.03,0.43-0.06,0.65-0.09c6.5-6.76,24.72-26.74,18.67-32.21c-6.94-6.28-14.18-34.15-14.91-37.01
					c0.06,0.03,0.12,0.07,0.19,0.11l-0.25-0.36c0,0,0.6-11.98,3.11-19.37c0.56-2.85,2.26-12.23,1.73-17.81
					c-0.63-6.64-1.9-24.04,3.16-35.11s23.72-12.02,23.72-12.02s16.13,21.82,17.08,22.77c0,0,2.26,3.19,4.74,6.98
					C627.21,218.3,628.91,201.13,624.02,192.32z"/>
				<path class="st10" d="M633.54,226.82c0.4,0.78,0.85,1.48,1.36,2.1C634.44,228.21,633.99,227.51,633.54,226.82z"/>
				<path class="st17" d="M588.33,287.29c13.37,6.38,37.34-1.02,43.23-3.01c-0.22-2.94-0.46-6.01-0.62-8.31
					c-3.35,3.92-9.91,5.41-17.32,3.33c-15.53-4.37-33.84-16.45-33.84-16.45s0.06-0.31,0.17-0.85c-2.51,7.39-3.11,19.37-3.11,19.37
					l0.25,0.36C578.26,282.39,581.24,283.91,588.33,287.29z"/>
				<path class="st8" d="M668.79,307.46c-5.04-5.34-12.79-13.21-15.31-13.9c-3.83-1.04-17.41-9.75-17.41-9.75s-0.48,0.18-1.34,0.47
					c-5.9,1.99-29.86,9.4-43.23,3.01c-7.09-3.38-10.08-4.9-11.24-5.56c-0.07-0.04-0.13-0.07-0.19-0.11
					c0.73,2.86,7.97,30.73,14.91,37.01c6.05,5.47-12.17,25.44-18.67,32.21c-0.16,0.17-0.33,0.34-0.47,0.49l5.98,13.27l12.98,3.27
					c0.92,0.23,1.6,0.86,1.98,1.62l28.83,1.52c0.28-1.29,0.58-2.49,0.84-3.45c-0.36-0.01-0.73-0.02-1.11-0.02
					c0,0-2.53-7.59,6.33-11.7s12.65-11.7,18.34-21.82c5.69-10.12,8.22-18.66,19.61-20.24c0.93-0.13,2.06-0.26,3.36-0.38l0.37-1.03
					C673.33,312.37,671.43,310.26,668.79,307.46z"/>
				<path class="st17" d="M636.71,238.5c-0.12-1.56-2.47-5.63-4.97-9.57c-0.51-0.62-0.96-1.33-1.36-2.1
					c-2.48-3.79-4.74-6.98-4.74-6.98c-0.95-0.95-17.08-22.77-17.08-22.77s-18.66,0.95-23.72,12.02s-3.8,28.47-3.16,35.11
					c0.53,5.58-1.17,14.96-1.73,17.81c-0.11,0.54-0.17,0.85-0.17,0.85s18.31,12.08,33.84,16.45c7.41,2.09,13.97,0.6,17.32-3.33
					c1.22-1.43,2.04-3.18,2.29-5.21C634.18,263.17,637.34,246.72,636.71,238.5z"/>
				<path class="st10" d="M648.28,383.8c-0.02-0.02-0.04-0.04-0.05-0.07c0,0,0,0,0,0.01C648.25,383.76,648.27,383.78,648.28,383.8z"
					/>
				<path class="st18" d="M730.36,410.55c0.31,1.07,1.76,2.06,3.13,2.78c1.32-1.52,2.89-3.11,4.53-4.61
					C736.67,408.69,729.81,408.63,730.36,410.55z"/>
				<path class="st15" d="M596.76,369.5c-0.38-0.76-1.05-1.39-1.98-1.62l-12.98-3.27l-5.18-1.31l-13.83-3.49
					c-0.51-0.13-1.03-0.19-1.55-0.21c-2.44-0.12-4.85,0.86-6.47,2.77l-2.61,3.05l-17.78,20.78c0.07,0.13,0.14,0.26,0.2,0.42
					c1.09,2.99,1.01,9.24-3.06,15.36c-1.68,2.53-4.05,5.04-7.3,7.28c0,0-1.15,3.07,8.83,4.6c6.59,1.01,7.32,1.69,10.6,0.6
					c1.68-0.56,4.04-1.59,8.2-3.28c0,0,18.04-8.44,24.18-13.81c3.17-2.77,9.44-8.81,9.44-8.81l1.44-2.08l9.63-13.89
					c0.02-0.04,0.04-0.08,0.06-0.11C597.2,371.52,597.2,370.41,596.76,369.5z"/>
				<path class="st10" d="M646.2,381.46c0.53,0.63,1.23,1.41,2.03,2.28c0,0,0,0,0-0.01c-1.25-1.53-2.34-2.91-3.19-4.03
					C645.4,380.36,645.77,380.95,646.2,381.46z"/>
				<path class="st10" d="M686.17,371.17c-1.96-6.86-14.69-4.08-16.82-4.74c-2.12-0.65,6.04-7.84,6.04-7.84s16.33-7.84,6.2-9.31
					c-10.12-1.47-17.96,8-17.96,8c-0.16,4.08-2.61,10.12-4.25,12.08s-3.76,8.82-6.53,11.76c-1.53,1.62-2.42,3.3-2.9,4.47
					c-0.02,0.05-0.04,0.09-0.06,0.14c-0.35,0.87-0.47,1.44-0.47,1.44c2.78,4.74,17.14,17.31,19.27,14.69
					c0.52-0.63,0.57-1.38,0.36-2.18c-0.18-0.65-0.53-1.35-0.98-2.06c-1.28-2.05-3.31-4.28-3.95-6.2c-1.14-3.43,0.65-2.94,4.41-6.53
					c3.76-3.59,1.47-2.45,2.61-5.22c1.14-2.78,5.39-2.12,6.53-2.45C678.82,376.88,688.13,378.03,686.17,371.17z"/>
				<path class="st8" d="M628.3,401.02c-1.46-0.82-2.83-2.43-3.52-3.72c-1.31-2.45,3.27-8.16,3.27-8.16s-0.77-1.38-1.59-3.34
					L592.53,394c-0.11,0.18-0.22,0.36-0.34,0.54c8.53,5.05,18.7,11.06,29.28,17.33C621.33,407.64,626.38,403.59,628.3,401.02z"/>
				<path class="st9" d="M773.88,475.54h44.29c-1.65-5.93-3.83-12.91-6.27-18.51c-5.35-12.28-14.17-33.37-28.33-35.89
					c-2.69-0.48-7.97-0.99-14.75-1.51c-0.15,3.33-0.24,6.76,0.16,10.06c1.09,8.93-1.72,31.27-3.4,43.23
					C768.19,473.79,770.99,474.67,773.88,475.54z"/>
				<path class="st9" d="M728.53,430.61c-4.24-3.71-6.52-7.82-7.73-11.28c-9.61,1.79-37.34,6.82-43.04,2.16c0,0-8.82,1.52-12.77-0.3
					c3.81,5.71,5.17,12.87-1.75,15.41c13.68,8.1,24.81,14.7,29.73,17.63c8.92,5.31,15.05,12.56,19.03,18.64
					c6.8-2.9,15.95-6.53,23.28-8.44C735.23,451.28,733.96,435.36,728.53,430.61z"/>
				<path class="st12" d="M598.56,439.3c2.52,2.83,5.79,7.43,9.31,12.77l57.92,23.48h47.86c-0.5-0.86-1.05-1.75-1.65-2.67
					c-3.97-6.08-10.11-13.34-19.03-18.64c-4.92-2.93-16.05-9.53-29.73-17.63c-0.82,0.3-1.75,0.54-2.81,0.7
					c-10.03,1.52-33.14-16.42-37.7-22.19c-0.85-1.08-1.22-2.16-1.26-3.24c-10.58-6.26-20.75-12.28-29.28-17.33
					c-0.32,0.51-0.65,1.03-0.99,1.53c-1.18,1.74-2.46,3.41-3.66,4.73c-2.68,2.95-11.74,15.83-18.13,23.98
					C578.77,427.25,591.99,431.91,598.56,439.3z"/>
				<path class="st16" d="M644.54,394.03c0.61-1.09,0.8-1.84,0.71-2.34l-1.47-0.9c-1.07-0.03-2.52,0.35-3.65,0.63
					c-2.08,0.52-1.06,4.64-0.55,6.31c1.71-0.01,2.92,0.05,2.92,0.05s0.13,0.12,0.35,0.33C642.83,397.18,643.62,395.68,644.54,394.03
					z"/>
				<path class="st18" d="M748.67,401.7c-2.2,0.16-6.63,3.32-10.66,7.01c-1.64,1.5-3.2,3.1-4.53,4.61c-1.26,1.45-2.3,2.83-2.96,4
					c-0.53,0.94-0.83,1.75-0.78,2.34c0.3,3.95,5.78,5.47,6.38,7.3c0.61,1.82,5.47,4.56,6.99,4.56s2.13,3.95,5.47,4.26
					c3.34,0.3,7.9,1.52,8.21-0.91s3.65-5.78,2.43-13.07c-0.1-0.62,0.36-1.64,1.05-2.76c0.48-0.78,1.08-1.61,1.7-2.41
					c1.61-2.09,3.33-3.95,3.33-3.95C764.41,412.07,753.31,401.37,748.67,401.7z"/>
				<path class="st19" d="M592.53,394l33.93-8.21c-0.82-1.96-1.68-4.5-1.84-6.79c-0.15-2.04,0.33-4.98,0.89-7.62
					c0.03-0.12,0.05-0.25,0.08-0.37l-28.83-1.52c0.45,0.91,0.45,2.02-0.15,2.97c-0.02,0.04-0.03,0.08-0.06,0.11l-9.63,13.89
					c0.72,0.72,1.43,2.15,0.25,4.75c0,0,8.06-7.67,8.44-4.99c0.13,0.89-0.3,2.34-1.06,4.02C594.01,391.42,593.32,392.7,592.53,394z"
					/>
				<path class="st11" d="M400.2,475.54c8.1-1.49,14.16-2.92,14.16-2.92s0.63-0.07,1.77-0.2c12.98-1.49,93.26-10.76,96.08-13.23
					c0.58-0.51,1.74-1.1,3.31-1.74c6.76-2.74,21.27-6.37,31.23-8.24c11.35-2.13,10.9-10.48,10.76-11.73
					c-0.01-0.1-0.02-0.16-0.02-0.16s3.07-1.92,6.52-3.84c1.04-0.58,3.3-3.21,6.05-6.72c6.39-8.15,15.44-21.03,18.13-23.98
					c1.2-1.32,2.48-2.99,3.66-4.73c0.34-0.51,0.67-1.02,0.99-1.53c0.11-0.18,0.23-0.36,0.34-0.54c0.79-1.3,1.48-2.59,2.01-3.76
					c0.76-1.68,1.19-3.13,1.06-4.02c-0.38-2.69-8.44,4.99-8.44,4.99c1.18-2.6,0.47-4.03-0.25-4.75l-1.44,2.08
					c0,0-6.27,6.04-9.44,8.81c-6.14,5.37-24.18,13.81-24.18,13.81c-4.17,1.69-6.52,2.72-8.2,3.28c-3.28,1.09-4.01,0.42-10.6-0.6
					c-9.98-1.53-8.83-4.6-8.83-4.6c3.25-2.24,5.62-4.75,7.3-7.28c4.08-6.12,4.15-12.37,3.06-15.36c-0.06-0.16-0.13-0.28-0.2-0.42
					c-1.75-3.46-7.12,0.11-11.17,4.12c-0.05,0.05-0.09,0.09-0.14,0.14c-1.72,1.72-4.26,4.39-7.14,7.41
					c-0.89,0.93-1.81,1.9-2.74,2.89c-2.73,2.87-5.6,5.88-8.28,8.6c-0.74,0.76-1.48,1.5-2.18,2.21c-6.91,6.91-4.6,14.97-4.6,14.97
					c-11.96,3.37-23.88,5.42-35.28,6.56c-3.64,0.37-7.22,0.64-10.74,0.84c-7.56,0.42-14.82,0.48-21.61,0.32
					c-3.93-0.09-7.7-0.26-11.28-0.48c-2.6-0.16-5.1-0.34-7.49-0.54c-4.5-0.37-8.61-0.8-12.28-1.21
					c-10.55-1.19-17.38-2.26-18.74-1.65c-9.92,4.45-18.32,36.35-20.02,43.21H400.2z"/>
				<path class="st15" d="M665,421.19c-3.54-5.32-16.78-18.01-21.11-22.1c-0.73-0.06-1.03-0.42-1.04-0.98
					c-0.22-0.21-0.35-0.33-0.35-0.33s-1.22-0.06-2.92-0.05c0.13,0.43,0.23,0.71,0.23,0.71c-0.79,1.01-1.72,1.62-2.66,1.99
					c-2.56,1-5.18,0.14-5.18,0.14c-1,1.31-2.36,1.19-3.66,0.46c-1.92,2.57-6.97,6.63-6.82,10.85c0.04,1.07,0.41,2.16,1.26,3.24
					c4.56,5.78,27.67,23.71,37.7,22.19c1.06-0.16,1.99-0.4,2.81-0.7C670.17,434.06,668.8,426.9,665,421.19z"/>
				<path class="st18" d="M649.38,394.23c-0.05-0.32-0.13-0.66-0.27-1.01c-1.16-2.95-1-7.61-0.88-9.47c-0.8-0.87-1.5-1.65-2.03-2.28
					c-0.43-0.51-0.8-1.1-1.15-1.75c-2.01-3.69-3.49-9.22-11.87-11.32c-1.87-0.47-4.1-0.76-6.75-0.83c-0.26,0.96-0.55,2.17-0.84,3.45
					c-0.03,0.12-0.05,0.24-0.08,0.37c-0.57,2.64-1.04,5.59-0.89,7.62c0.16,2.29,1.02,4.82,1.84,6.79c0.81,1.95,1.59,3.34,1.59,3.34
					s-4.57,5.71-3.27,8.16c0.69,1.29,2.06,2.9,3.52,3.72c1.3,0.74,2.66,0.85,3.66-0.46c0,0,2.62,0.87,5.18-0.14
					c0.94-0.37,1.87-0.98,2.66-1.99c0,0-0.1-0.28-0.23-0.71c-0.5-1.67-1.52-5.8,0.55-6.31c1.14-0.28,2.58-0.66,3.65-0.63l1.47,0.9
					c0.09,0.5-0.11,1.25-0.71,2.34c-0.92,1.65-1.7,3.15-1.69,4.08c0.01,0.56,0.3,0.92,1.04,0.98c0.15,0.01,0.31,0.02,0.49,0
					C646.74,398.94,649.89,397.32,649.38,394.23z"/>
				<path class="st17" d="M649.91,385.73c-0.35,0.87-0.47,1.44-0.47,1.44c2.78,4.74,17.14,17.31,19.27,14.69
					c0.52-0.63,0.57-1.38,0.36-2.18c-0.18-0.65-0.53-1.35-0.98-2.06c-0.36-0.57-3.49-4.81-3.95-6.2c-1.14-3.43,0.65-2.94,4.41-6.53
					c3.76-3.59,1.47-2.45,2.61-5.22c1.14-2.78,5.39-2.12,6.53-2.45c1.14-0.33,10.45,0.82,8.49-6.04
					c-1.96-6.86-14.69-4.08-16.82-4.74c-2.12-0.65,6.04-7.84,6.04-7.84s16.33-7.84,6.2-9.31c-10.12-1.47-17.96,8-17.96,8
					c-0.16,4.08-2.61,10.12-4.25,12.08s-3.76,8.82-6.53,11.76c-1.53,1.62-2.42,3.3-2.9,4.47c-0.59-0.62-1.15-1.23-1.68-1.8
					c0.45,0.54,0.91,1.1,1.39,1.67C649.75,385.56,649.83,385.65,649.91,385.73z"/>
				<path class="st12" d="M784.1,370.39c0.63-6.33-0.63-9.17-5.69-12.97c-5.06-3.8-3.16-4.74-5.06-10.44
					c-1.9-5.69-22.77-21.82-31.63-27.52c-4.71-3.03-9.58-5.24-13.13-6.66c0.79,1.6,3.94,9.34-6.8,13.3
					c-12.02,4.43-30.68-0.95-34.48-3.16s-3.16-6.01-3.16-6.01c-4.09-1.05-6.83-2.27-8.85-3.75c-0.83,0.07-1.61,0.14-2.34,0.21
					c-1.3,0.12-2.43,0.25-3.36,0.38c-11.39,1.58-13.92,10.12-19.61,20.24c-5.69,10.12-9.49,17.71-18.34,21.82s-6.33,11.7-6.33,11.7
					c0.38,0,0.74,0.01,1.11,0.02c2.65,0.06,4.87,0.36,6.75,0.83c8.38,2.1,9.86,7.63,11.87,11.32c0.85,1.11,1.93,2.5,3.19,4.03
					c0.02,0.02,0.04,0.04,0.05,0.07c0.52,0.57,1.09,1.17,1.68,1.8c0.49-1.17,1.37-2.84,2.9-4.47c2.78-2.94,4.9-9.8,6.53-11.76
					s4.08-8,4.25-12.08c0,0,7.84-9.47,17.96-8c10.12,1.47-6.2,9.31-6.2,9.31s-8.16,7.18-6.04,7.84c2.12,0.65,14.86-2.12,16.82,4.74
					c1.96,6.86-7.35,5.71-8.49,6.04c-1.14,0.33-5.39-0.33-6.53,2.45c-1.14,2.78,1.14,1.63-2.61,5.22c-3.76,3.59-5.55,3.1-4.41,6.53
					c0.46,1.39,1.65,2.94,2.76,4.47c2.55,0.56,4.87,4.12,9,4.99c10.93,2.31,26.39,2.48,31.13,3.74c4.76,1.27,11.6-1.52,16.36-3.99
					c-5.79-1.18-15.79-3.56-14.51-5.78c1.59-2.75,14.67-0.8,17.54-0.4c0.05,0.01,0.99,0.11,1.4,0c0.46-0.12,0.39-0.46,0.34-0.48
					c-3.26-1.65-22.86-10.84-21.08-15.28c1.96-4.9,13.72,2.12,17.14,3.27c2.54,0.85,7.58,1.6,10.03,1.94
					c0.25,0.03,0.36-0.31,0.13-0.42c-5.31-2.53-25.52-12.18-26.65-13.6c-1.31-1.63-4.41-9.14,0.49-8.82s27.59,13.23,29.88,12.08
					s2.61-2.61-1.31-4.74s-20.57-15.67-19.59-18.29s12.57,2.78,13.06,2.94c0.49,0.16,13.88,6.86,13.88,6.86s3.59,5.06,5.22,8.49
					c1.63,3.43,2.75,17.5,4.57,20.41c1.63,2.61,1.31,4.25-0.33,5.88c-0.57,0.57-1.13,1.37-1.63,2.18c-0.94,1.52-1.63,3.05-1.63,3.05
					c-0.04-0.04-0.13-0.08-0.26-0.14l-0.24,2.05c5.1,1.13,14.64,10.3,15.48,10.86c0,0-1.72,1.86-3.33,3.95
					c2.46,1.17,4.93,1.22,6.92,1.1c1.15-0.07,2.14-0.2,2.86-0.2c2.53,0,11.7-21.82,12.65-28.47
					C785.36,382.41,783.47,376.72,784.1,370.39z"/>
				<path class="st17" d="M724.95,400.94c0.01,0,0.02,0,0.03,0.01c0.22,0.04,0.43,0.08,0.62,0.12c0.03,0,0.05,0.01,0.07,0.01
					c0.18,0.03,0.34,0.06,0.5,0.09c0.02,0,0.04,0.01,0.07,0.01c0.14,0.03,0.27,0.05,0.39,0.07c0.01,0,0.03,0.01,0.04,0.01
					c1.05-1.16,2.21-2.01,3.42-2.18c19.34-2.71,19.99,0.68,19.99,0.68c0.13,0.05,0.22,0.1,0.26,0.14c0,0,0.7-1.53,1.63-3.05
					c0.5-0.81,1.06-1.61,1.63-2.18c1.63-1.63,1.96-3.27,0.33-5.88c-1.82-2.91-2.94-16.98-4.57-20.41c-1.63-3.43-5.22-8.49-5.22-8.49
					s-13.39-6.69-13.88-6.86c-0.49-0.16-12.08-5.55-13.06-2.94s15.67,16.16,19.59,18.29s3.59,3.59,1.31,4.74
					s-24.98-11.76-29.88-12.08s-1.8,7.18-0.49,8.82c1.13,1.42,21.34,11.08,26.65,13.6c0.23,0.11,0.13,0.45-0.13,0.42
					c-2.45-0.34-7.49-1.09-10.03-1.94c-3.43-1.14-15.18-8.16-17.14-3.27c-1.78,4.45,17.82,13.63,21.08,15.28
					c0.05,0.03,0.12,0.36-0.34,0.48c-0.41,0.11-1.35,0.01-1.4,0c-2.88-0.4-15.95-2.35-17.54,0.4c-1.29,2.22,8.71,4.61,14.51,5.78
					l0,0C723.95,400.75,724.48,400.85,724.95,400.94z"/>
				<path class="st16" d="M719.08,412.45c1.13-3.52,3.21-6.28,5.87-8.42c0.44-0.64,0.9-1.24,1.39-1.78c-0.01,0-0.03-0.01-0.04-0.01
					c-0.12-0.02-0.24-0.04-0.39-0.07c-0.02,0-0.04-0.01-0.07-0.01c-0.15-0.03-0.32-0.06-0.5-0.09c-0.03,0-0.05-0.01-0.07-0.01
					c-0.19-0.04-0.4-0.08-0.62-0.12c-0.01,0-0.02,0-0.03-0.01c-0.48-0.09-1.01-0.2-1.58-0.31c-4.76,2.47-11.6,5.26-16.36,3.99
					c-4.63-1.24-20.32-1.46-31.13-3.74c-4.44-0.94-6.29-4.39-9-4.99c0.42,0.58,0.84,1.17,1.19,1.73c0.45,0.72,0.8,1.41,0.98,2.06
					c0.22,0.81,0.16,1.55-0.36,2.18c-2.12,2.61-16.49-9.96-19.27-14.69c0,0,0.12-0.57,0.47-1.44c-0.07-0.09-0.15-0.18-0.23-0.26
					c-0.48-0.57-0.95-1.13-1.39-1.67c-0.02-0.02-0.04-0.04-0.05-0.06c-0.12,1.86-0.28,6.52,0.88,9.47c0.14,0.36,0.22,0.69,0.27,1.01
					c0.51,3.09-2.64,4.72-5.01,4.86c-0.18,0.01-0.34,0.01-0.49,0c4.33,4.1,17.56,16.79,21.11,22.1c3.95,1.82,12.77,0.3,12.77,0.3
					c5.7,4.66,33.42-0.38,43.04-2.16c-0.31-0.89-0.56-1.74-0.75-2.53C718.96,414.62,719.08,412.45,719.08,412.45z"/>
				<path class="st8" d="M718.16,419.66c1.22,3.46,3.49,7.58,7.73,11.28c5.43,4.75,6.69,20.67,6.75,33.82
					c0.02,3.98-0.08,7.7-0.2,10.78h30.16c0.1-0.71,0.21-1.47,0.33-2.29c1.68-11.96,4.49-34.3,3.4-43.23
					c-0.4-3.3-0.31-6.73-0.16-10.06c0.03-0.64,0.06-1.28,0.09-1.92c-1.99,0.13-4.45,0.08-6.92-1.1c-0.62,0.8-1.21,1.63-1.7,2.41
					c-0.7,1.12-1.16,2.14-1.05,2.76c1.22,7.3-2.13,10.64-2.43,13.07s-4.86,1.22-8.21,0.91c-3.34-0.3-3.95-4.26-5.47-4.26
					s-6.38-2.74-6.99-4.56c-0.61-1.82-6.08-3.34-6.38-7.3c-0.05-0.59,0.25-1.4,0.78-2.34c0.66-1.17,1.7-2.55,2.96-4
					c-1.37-0.72-2.83-1.71-3.13-2.78c-0.55-1.92,6.31-1.86,7.66-1.83c3.57-3.28,7.45-6.13,9.82-6.84c0.3-0.09,0.59-0.15,0.84-0.17
					c0.35-0.03,0.75,0.02,1.17,0.11l0.24-2.05c0,0-0.65-3.4-19.99-0.68c-1.21,0.17-2.37,1.02-3.42,2.18l0,0
					c-0.49,0.54-0.95,1.14-1.39,1.78c-2.66,2.14-4.74,4.9-5.87,8.42c0,0-0.12,2.18,0.64,5.34
					C717.61,417.92,717.85,418.76,718.16,419.66z"/>
				<path class="st16" d="M719.86,418.49c1.22,3.46,3.49,7.58,7.73,11.28c5.43,4.75,6.69,20.67,6.75,33.82
					c0.02,4.5-0.1,8.66-0.25,11.95h30.03c0.15-1.01,0.32-2.17,0.5-3.46c1.68-11.96,4.49-34.3,3.4-43.23
					c-0.4-3.3-0.31-6.73-0.16-10.06c0.03-0.64,0.06-1.28,0.09-1.92c-1.99,0.13-4.45,0.08-6.92-1.1c-0.62,0.8-1.21,1.63-1.7,2.41
					c-0.7,1.12-1.16,2.14-1.05,2.76c1.22,7.3-2.13,10.64-2.43,13.07s-4.86,1.22-8.21,0.91c-3.34-0.3-3.95-4.26-5.47-4.26
					s-6.38-2.74-6.99-4.56c-0.61-1.82-6.08-3.34-6.38-7.3c-0.05-0.59,0.25-1.4,0.78-2.34c0.66-1.17,1.7-2.55,2.96-4
					c-1.37-0.72-2.83-1.71-3.13-2.78c-0.55-1.92,6.31-1.86,7.66-1.83c3.57-3.28,7.45-6.13,9.82-6.84c0.3-0.09,0.59-0.15,0.84-0.17
					c0.35-0.03,0.75,0.02,1.17,0.11l0.24-2.05c0,0-0.65-3.4-19.99-0.68c-1.21,0.17-2.37,1.02-3.42,2.18l0,0
					c-0.49,0.54-0.95,1.14-1.39,1.78c-2.66,2.14-4.74,4.9-5.87,8.42c0,0-0.12,2.18,0.64,5.34
					C719.31,416.75,719.55,417.6,719.86,418.49z"/>
				<path class="st16" d="M533.67,178.73c0,0-12.37,2.3-15.68,17.26s-5.9,43.86-5.9,43.86l4.17,2.44c0,0,7.85-38.29,9.35-42.71
					c2.44-7.19,18.41-17.69,18.41-17.69L533.67,178.73z"/>
				<path class="st17" d="M663.38,380.89c0,0,18.4,0.24,21.14,5.52c2.74,5.28,2.64,7.2-3.91,5.52c-6.54-1.69-21.09-3.14-21.83-4.83"
					/>
				<path class="st18" d="M744.73,264.74c-8.84-14.31-27.52-24.35-49.97-19.93c-22.46,4.43-24.35,12.02-24.99,16.13
					s-3.48,19.29-6.33,20.56c-0.7,0.31-1.05,0.91-1.19,1.64c-0.24,1.27,0.18,2.93,0.59,4.12c0.31,0.89,0.6,1.51,0.6,1.51
					s-0.12,0.38-0.26,1.03c-0.46,2.18-1.16,7.53,1.52,12.89c0,0.01,0.01,0.02,0.01,0.02c2.19,4.38,3.51,7.63,6.95,10.14
					c2.02,1.47,4.77,2.7,8.85,3.75c0,0-0.63,3.8,3.16,6.01s22.46,7.59,34.48,3.16c10.74-3.96,7.59-11.7,6.8-13.3
					c-0.09-0.19-0.16-0.3-0.16-0.3S758.46,286.96,744.73,264.74z"/>
			</g>
			<g>
				<path class="st20" d="M647.24,385.85c0.02-0.04,0.04-0.09,0.06-0.14c-0.59-0.62-1.15-1.23-1.68-1.8
					c0.45,0.54,0.91,1.1,1.39,1.67C647.09,385.67,647.16,385.76,647.24,385.85z"/>
				<path class="st20" d="M408.52,308.14c0.78,2.08,2.04,3.97,3.39,7.84c3.11-7.69,10.37-17.17,14.13-23.13
					c4.73-7.51-2.78-12.24-5.01-20.03c-1.28-4.49-4.41-9.15-7.04-12.46c-2.64,3.75-5.41,6.95-7.98,8.29
					c-2.05,1.07-5.12,1.01-8.58,0.29c-1.88,3.12-4.14,7.44-4.75,11.03C397.73,288.5,407.3,304.88,408.52,308.14z"/>
				<path class="st20" d="M573.64,350.96c-0.22,0.03-0.44,0.07-0.65,0.09l0.18,0.4C573.31,351.3,573.47,351.13,573.64,350.96z"/>
				<path class="st6" d="M383.03,264.7c0,0,9.98,8.06,9.21,12.28c-0.08,0.42-0.23,0.92-0.45,1.48c0.28,0.47,0.58,0.98,0.89,1.51
					c0.61-3.59,2.87-7.91,4.75-11.03c-4.41-0.92-9.46-2.94-13.88-5.17L383.03,264.7z"/>
				<path class="st6" d="M374.31,258.07c-1.68-1.38-3.81-4.18-6-7.53c-5.79-8.82-12.08-21.4-12.08-21.4l-8.34-15.85l1.07-3.76
					c-0.66-0.9-1.77-1.8-3.58-1.8c-3.62,0-10.29,15.02-11.75,18.31c-1.46,3.29,15.09,26.47,19.26,30.92
					c4.17,4.45,7.23,28.09,8.62,30.6c1.39,2.5,2.5-4.17,10.57-10.57c0.17-0.13,0.32-0.26,0.48-0.39
					c7.69-6.24,10.47-11.89,10.47-11.89l0.53-0.93C379.7,261.82,376.32,259.72,374.31,258.07z"/>
				<path class="st6" d="M392.69,279.96c-0.25,1.5-0.22,2.87,0.26,3.98c0.9,2.1-1.33,2.65-4.55,2.5
					c-1.76,4.78-2.88,10.49,0.01,15.87c5.37,9.98,10.74,11.51,12.66,27.25c1,8.16,5.19,36.34,9,61.59
					c0.16-19.51-0.25-38.62-2.1-46.84c-4.45-19.75,1.95-14.74,2.5-22.81c0.11-1.66,0.64-3.53,1.45-5.52
					c-1.35-3.86-2.62-5.76-3.39-7.84C407.3,304.88,397.73,288.5,392.69,279.96z"/>
				<path class="st6" d="M392.94,283.94c-0.47-1.1-0.51-2.48-0.26-3.98c-0.31-0.53-0.62-1.04-0.89-1.51
					c-0.76,1.99-2.22,4.78-3.41,7.98C391.61,286.59,393.84,286.04,392.94,283.94z"/>
				<path class="st6" d="M259.36,394c-2.78,22.21,16.66,43.73,20.13,53.44c2.85,7.99-0.86,23.02-2.27,28.1h81.56
					c-0.39-0.17-0.75-0.35-1.07-0.56c0,0,9.21-39.53,20.34-44.51c1.37-0.61,8.2,0.46,18.74,1.65c3.67,0.41,7.78,0.84,12.28,1.21
					c0.39-10.75,0.88-26.6,1-42.19c-3.81-25.24-8-53.43-9-61.59c-1.92-15.73-7.29-17.27-12.66-27.25
					c-2.89-5.38-1.78-11.08-0.01-15.87c1.18-3.2,2.65-5.99,3.41-7.98c0.21-0.56,0.37-1.05,0.45-1.48
					c0.77-4.22-9.21-12.28-9.21-12.28s-2.78,5.65-10.47,11.89c-0.16,0.13-0.31,0.26-0.48,0.39c-8.07,6.4-9.18,13.07-10.57,10.57
					c-1.39-2.5-4.45-26.15-8.62-30.6c-4.17-4.45-20.72-27.63-19.26-30.92c-73.57,39.56-70.1,63.16-76.35,78.43
					C251.03,319.73,262.14,371.79,259.36,394z"/>
				<path class="st6" d="M440.51,147.36c-6.01-9.48-17.11-27.63-49.23-23.37c-39.78,5.28-37.83,46.73-37.83,46.73
					s-4.05,1.39-5.56,5.28c-1.95,5.01-2.5,20.58,3.89,23.64l-2.82,9.87l-1.07,3.76l8.34,15.85c0,0,6.29,12.58,12.08,21.4
					c2.19,3.34,4.32,6.15,6,7.53c2.01,1.65,5.39,3.75,9.25,5.7c4.41,2.22,9.46,4.24,13.88,5.17c3.46,0.72,6.53,0.78,8.58-0.29
					c2.57-1.34,5.34-4.54,7.98-8.29c0.2-0.28,0.39-0.56,0.59-0.84c4.27-6.22,8.17-13.61,10.35-16.46c3.62-4.73,9.74-9.18,10.57-17.8
					c0.83-8.62,3.62-13.63,6.68-19.47C445.24,199.93,447.74,158.77,440.51,147.36z"/>
				<path class="st6" d="M438.59,406.34c0,0,5.91-48.55,9.34-51.04c3.42-2.49-10.58-4.67-7.16-14.94c0.89-2.68,2.68-6.59,4.85-10.92
					c-2.16-3.04-9.95-14.22-13.59-22.72c-4.25-9.92,0-18.42,12.47-26.63c4.2-2.77,5.98-5.66,6.48-8.56
					c-2.02-2.06-4.21-3.82-6.57-5.12c-8.62-4.73-12.72-2.14-22.53-4.17c-3-0.62-5.43-1.67-7.29-2.74c-0.19,0.28-0.39,0.57-0.59,0.84
					c2.63,3.31,5.76,7.98,7.04,12.46c2.23,7.79,9.74,12.52,5.01,20.03c-3.76,5.97-11.02,15.44-14.13,23.13
					c-0.8,1.99-1.33,3.86-1.45,5.52c-0.56,8.07-6.95,3.06-2.5,22.81c1.85,8.22,2.26,27.33,2.1,46.84
					c2.96,19.6,5.68,37.43,6.49,42.73c3.59,0.22,7.36,0.39,11.28,0.48c6.79,0.16,14.04,0.1,21.61-0.32
					C432.15,423.19,438.59,406.34,438.59,406.34z"/>
				<path class="st6" d="M409.06,433.33c2.39,0.2,4.9,0.38,7.49,0.54c-0.81-5.3-3.53-23.13-6.49-42.73
					C409.94,406.73,409.46,422.58,409.06,433.33z"/>
				<path class="st6" d="M486.45,399.58c-6.21-0.24-11.19-0.31-13.62-0.1c-6.43,0.57-7.23-1.85-9.73-2.58
					c-1.61-0.47-3.93-0.24-8.94,1.96c-12.76,5.6-15.56,7.47-15.56,7.47s-6.44,16.85,10.86,27.69c3.52-0.2,7.1-0.47,10.74-0.84
					c11.4-1.14,23.31-3.19,35.28-6.56c0,0-2.3-8.06,4.6-14.97c0.7-0.7,1.44-1.45,2.18-2.21c2.67-2.72,5.54-5.73,8.28-8.6
					C502.17,400.34,493.51,399.86,486.45,399.58z"/>
				<path class="st6" d="M492.75,333.19c0,0-13.5-3.79-24.3-3c-4.67,0.34-8.83,1.53-11.18,4.25l9.2,20.52l15.12,33.76l4.87,10.87
					c7.06,0.27,15.72,0.76,24.08,1.28c0.94-0.99,1.86-1.95,2.74-2.89c2.87-3.03,5.42-5.7,7.14-7.41c0.05-0.05,0.09-0.09,0.14-0.14
					C514.53,378.36,492.75,333.19,492.75,333.19z"/>
				<path class="st6" d="M562.44,475.54h57.17c-4.43-7.52-9.64-16.13-14.41-23.36c-3.52-5.34-6.79-9.94-9.31-12.77
					c-6.57-7.39-19.79-12.05-29.14-14.51c-2.75,3.51-5.01,6.14-6.05,6.72c-3.45,1.92-6.52,3.84-6.52,3.84s0.01,0.06,0.02,0.16
					c0.13,1.25,0.59,9.6-10.76,11.73c-9.96,1.87-24.46,5.5-31.23,8.24c12.56,3.4,29.39,8.69,42.4,15.44
					C557.52,472.54,560.12,474.06,562.44,475.54z"/>
				<path class="st6" d="M672.63,313.31c-3.44-2.52-4.76-5.77-6.95-10.14c0-0.01-0.01-0.02-0.01-0.02
					c-2.68-5.36-1.98-10.71-1.52-12.89c0.14-0.65,0.26-1.03,0.26-1.03s-0.3-0.63-0.6-1.51c-0.41-1.19-0.83-2.85-0.59-4.12
					c-0.66-4.44-1.43-9.13-2.32-13.83c-3.81-20.15-21.78-33.21-28.31-40.29c-0.12-0.13-0.24-0.28-0.36-0.42
					c2.5,3.94,4.85,8.01,4.97,9.57c0.63,8.22-2.53,24.67-3.48,32.26c-0.25,2.03-1.06,3.78-2.29,5.21c0.17,2.3,0.4,5.37,0.62,8.31
					c0.86-0.29,1.34-0.47,1.34-0.47s13.58,8.71,17.41,9.75c2.51,0.69,10.27,8.56,15.31,13.9c2.65,2.8,4.54,4.91,4.54,4.91
					l-0.37,1.03C671.02,313.44,671.8,313.37,672.63,313.31z"/>
				<path class="st6" d="M566.52,214.65c-1.65,2.31-4.78,5.42-9.84,5.94c-2.16,0.22-4.02,1.45-5.78,3.15
					c-4.93,4.78-9.01,13.37-16.32,14.41c-9.92,1.42-11.62,3.12-15.58,5.38s-5.95-2.27-12.75-3.68c-6.8-1.42-5.67,6.8-5.67,6.8
					s-0.16,12.78-3.79,22.45c-1.17,3.12-2.7,5.93-4.71,7.86c-3.56,3.44-5.42,5.01-6.98,5.85c13.41,12.83,31.13,12.76,37.01,11.43
					c6.23-1.42,4.25-10.77,3.4-11.33c-0.77-0.51,7.01,3.13,14.79,2.8c0.57-0.02,1.13-0.07,1.69-0.14c0.27-0.03,0.54-0.07,0.8-0.12
					c8.5-1.42,12.47-22.66,12.47-22.66s2.55,0,5.67,0.57c3.12,0.57,2.83-5.67,1.13-10.77c-1.7-5.1,3.4-24.08,5.67-28.61
					C568.98,221.49,567.82,217.62,566.52,214.65z"/>
				<path class="st6" d="M561.5,198.21c-2.7-1.97-4.72-5.38-7.02-8.48c-2.28-3.07-4.82-5.82-8.57-6.54
					c-17.85-3.4-21.53-11.9-39.66-3.97c-18.13,7.93-23.51,20.68-27.76,29.18s-7.37,17.57-17.57,24.08
					c-10.2,6.52-13.88,15.87-13.32,22.95c0.38,4.7,4.36,10.39,3.37,16.09c-0.5,2.89-2.29,5.79-6.48,8.56
					c-12.47,8.22-16.72,16.72-12.47,26.63c3.64,8.49,11.43,19.68,13.59,22.72c0.36,0.51,0.57,0.8,0.57,0.8s10.2-13.03,14.17-17.57
					c1.77-2.02,3.88-7.38,6.33-12.87c3.04-6.8,6.59-13.8,10.67-14.9c4.18-1.12,5.71-0.98,7.76-2.08c1.56-0.84,3.42-2.42,6.98-5.85
					c2.01-1.94,3.54-4.74,4.71-7.86c3.63-9.67,3.79-22.45,3.79-22.45s-1.13-8.22,5.67-6.8c6.8,1.42,8.78,5.95,12.75,3.68
					s5.67-3.97,15.58-5.38c7.31-1.04,11.39-9.63,16.32-14.41c1.76-1.7,3.62-2.93,5.78-3.15c5.07-0.52,8.19-3.63,9.84-5.94
					c1.03-1.43,1.49-2.56,1.49-2.56S571.98,205.86,561.5,198.21z"/>
				<path class="st6" d="M561.88,326.39c2.02-6.1,4.31-12.6,4.15-15.43c-0.28-5.1-8.22-9.35-15.3-15.02
					c-2.8-2.24-6.08-5.54-9.03-8.71c-0.47-0.51-0.94-1.02-1.39-1.51c-7.77,0.33-15.55-3.31-14.79-2.8c0.85,0.57,2.83,9.92-3.4,11.33
					c-5.88,1.34-23.6,1.41-37.01-11.43c-2.04,1.1-3.58,0.95-7.76,2.08c-4.08,1.1-7.63,8.1-10.67,14.9
					c-2.45,5.49-4.56,10.84-6.33,12.87c-3.97,4.53-14.17,17.57-14.17,17.57s-0.21-0.29-0.57-0.8c-2.17,4.33-3.95,8.24-4.85,10.92
					c-3.42,10.27,10.58,12.45,7.16,14.94c-3.42,2.49-9.34,51.04-9.34,51.04s2.8-1.87,15.56-7.47c5.01-2.2,7.33-2.43,8.94-1.96
					c2.5,0.73,3.3,3.15,9.73,2.58c2.43-0.21,7.41-0.14,13.62,0.1l-4.87-10.87l-15.12-33.76l-9.2-20.52
					c2.35-2.72,6.51-3.91,11.18-4.25c10.8-0.78,24.3,3,24.3,3s21.78,45.17,27.8,57.23c4.05-4.01,9.42-7.58,11.17-4.12l17.78-20.78
					l2.61-3.05c1.63-1.9,4.03-2.89,6.47-2.77c0.27-8.82,0.51-18.84,0.36-21.55c-0.01-0.23,0-0.5,0.02-0.79
					C559.13,334.93,560.43,330.77,561.88,326.39z"/>
				<path class="st6" d="M573.16,351.45l-0.18-0.4l-11.11-24.66c-1.45,4.38-2.75,8.53-2.92,10.98c-0.02,0.28-0.03,0.55-0.02,0.79
					c0.15,2.7-0.1,12.72-0.36,21.55c0.52,0.03,1.04,0.08,1.55,0.21l13.83,3.49l5.18,1.31L573.16,351.45z"/>
				<path class="st6" d="M623.33,192.44c-5.44-9.8-21.78-15.25-30.49-14.16c-8.71,1.09-16.88-0.54-26.68,0.54
					c-6.88,0.76-10.27,7.15-11.68,10.9c2.3,3.1,4.32,6.51,7.02,8.48c10.48,7.65,6.52,13.88,6.52,13.88s-0.46,1.12-1.49,2.56
					c1.29,2.98,2.45,6.84,1.2,9.34c-2.27,4.53-7.37,23.51-5.67,28.61c1.7,5.1,1.98,11.33-1.13,10.77c-3.12-0.57-5.67-0.57-5.67-0.57
					s-3.97,21.25-12.47,22.66c-0.27,0.04-0.53,0.08-0.8,0.12c-0.56,0.07-1.13,0.11-1.69,0.14c0.45,0.5,0.92,1,1.39,1.51
					c2.95,3.17,6.24,6.48,9.03,8.71c7.08,5.67,15.02,9.92,15.3,15.02c0.16,2.83-2.13,9.33-4.15,15.43l11.11,24.66
					c0.21-0.03,0.43-0.06,0.65-0.09c6.5-6.76,24.72-26.74,18.67-32.21c-6.94-6.28-14.18-34.15-14.91-37.01
					c0.06,0.03,0.12,0.07,0.19,0.11l-0.25-0.36c0,0,0.6-11.98,3.11-19.37c0.56-2.85,2.26-12.23,1.73-17.81
					c-0.63-6.64-1.9-24.04,3.16-35.11s23.72-12.02,23.72-12.02s16.13,21.82,17.08,22.77c0,0,2.26,3.19,4.74,6.98
					C626.52,218.41,628.22,201.25,623.33,192.44z"/>
				<path class="st6" d="M630.87,226.94c0.4,0.78,0.85,1.48,1.36,2.1C631.78,228.33,631.32,227.62,630.87,226.94z"/>
				<path class="st6" d="M588.83,287.41c13.37,6.38,37.34-1.02,43.23-3.01c-0.22-2.94-0.46-6.01-0.62-8.31
					c-3.35,3.92-9.91,5.41-17.32,3.33c-15.53-4.37-33.84-16.45-33.84-16.45s0.06-0.31,0.17-0.85c-2.51,7.39-3.11,19.37-3.11,19.37
					l0.25,0.36C578.75,282.51,581.74,284.03,588.83,287.41z"/>
				<path class="st6" d="M666.12,307.58c-5.04-5.34-12.79-13.21-15.31-13.9c-3.83-1.04-17.41-9.75-17.41-9.75s-0.48,0.18-1.34,0.47
					c-5.9,1.99-29.86,9.4-43.23,3.01c-7.09-3.38-10.08-4.9-11.24-5.56c-0.07-0.04-0.13-0.07-0.19-0.11
					c0.73,2.86,7.97,30.73,14.91,37.01c6.05,5.47-12.17,25.44-18.67,32.21c-0.16,0.17-0.33,0.34-0.47,0.49l5.98,13.27l12.98,3.27
					c0.92,0.23,1.6,0.86,1.98,1.62l28.83,1.52c0.28-1.29,0.58-2.49,0.84-3.45c-0.36-0.01-0.73-0.02-1.11-0.02
					c0,0-2.53-7.59,6.33-11.7s12.65-11.7,18.34-21.82c5.69-10.12,8.22-18.66,19.61-20.24c0.93-0.13,2.06-0.26,3.36-0.38l0.37-1.03
					C670.66,312.48,668.77,310.38,666.12,307.58z"/>
				<path class="st6" d="M637.2,238.62c-0.12-1.56-2.47-5.63-4.97-9.57c-0.51-0.62-0.96-1.33-1.36-2.1
					c-2.48-3.79-4.74-6.98-4.74-6.98c-0.95-0.95-17.08-22.77-17.08-22.77s-18.66,0.95-23.72,12.02s-3.8,28.47-3.16,35.11
					c0.53,5.58-1.17,14.96-1.73,17.81c-0.11,0.54-0.17,0.85-0.17,0.85s18.31,12.08,33.84,16.45c7.41,2.09,13.97,0.6,17.32-3.33
					c1.22-1.43,2.04-3.18,2.29-5.21C634.67,263.29,637.84,246.84,637.2,238.62z"/>
				<path class="st6" d="M745.69,265.18c-6.91-14.22-27.52-24.35-49.97-19.93c-22.46,4.43-24.35,12.02-24.99,16.13
					s-3.48,19.29-6.33,20.56c-0.7,0.31-1.05,0.91-1.19,1.64c-0.24,1.27,0.18,2.93,0.59,4.12c0.31,0.89,0.6,1.51,0.6,1.51
					s-0.12,0.38-0.26,1.03c-0.46,2.18-1.16,7.53,1.52,12.89c0,0.01,0.01,0.02,0.01,0.02c2.19,4.38,3.51,7.63,6.95,10.14
					c2.02,1.47,4.77,2.7,8.85,3.75c0,0-0.63,3.8,3.16,6.01s22.46,7.59,34.48,3.16c10.74-3.96,7.59-11.7,6.8-13.3
					c-0.09-0.19-0.16-0.3-0.16-0.3S758.56,291.65,745.69,265.18z"/>
				<path class="st6" d="M645.62,383.92c-0.02-0.02-0.04-0.04-0.05-0.07c0,0,0,0,0,0.01C645.58,383.88,645.6,383.9,645.62,383.92z"
					/>
				<path class="st6" d="M727.69,410.66c0.31,1.07,1.76,2.06,3.13,2.78c1.32-1.52,2.89-3.11,4.53-4.61
					C734.01,408.8,727.14,408.74,727.69,410.66z"/>
				<path class="st6" d="M594.09,369.62c-0.38-0.76-1.05-1.39-1.98-1.62l-12.98-3.27l-5.18-1.31l-13.83-3.49
					c-0.51-0.13-1.03-0.19-1.55-0.21c-2.44-0.12-4.85,0.86-6.47,2.77l-2.61,3.05l-17.78,20.78c0.07,0.13,0.14,0.26,0.2,0.42
					c1.09,2.99,1.01,9.24-3.06,15.36c-1.68,2.53-4.05,5.04-7.3,7.28c0,0-1.15,3.07,8.83,4.6c6.59,1.01,7.32,1.69,10.6,0.6
					c1.68-0.56,4.04-1.59,8.2-3.28c0,0,18.04-8.44,24.18-13.81c3.17-2.77,9.44-8.81,9.44-8.81l1.44-2.08l9.63-13.89
					c0.02-0.04,0.04-0.08,0.06-0.11C594.54,371.64,594.54,370.53,594.09,369.62z"/>
				<path class="st6" d="M643.53,381.58c0.53,0.63,1.23,1.41,2.03,2.28c0,0,0,0,0-0.01c-1.25-1.53-2.34-2.91-3.19-4.03
					C642.73,380.48,643.1,381.07,643.53,381.58z"/>
				<path class="st6" d="M625.63,401.13c-1.46-0.82-2.83-2.43-3.52-3.72c-1.31-2.45,3.27-8.16,3.27-8.16s-0.77-1.38-1.59-3.34
					l-33.93,8.21c-0.11,0.18-0.22,0.36-0.34,0.54c8.53,5.05,18.7,11.06,29.28,17.33C618.66,407.76,623.72,403.71,625.63,401.13z"/>
				<path class="st6" d="M770.83,475.54h44.64c-1.64-5.91-3.81-12.83-6.24-18.39c-5.35-12.28-14.17-33.37-28.33-35.89
					c-2.69-0.48-7.97-0.99-14.75-1.51c-0.15,3.33-0.24,6.76,0.16,10.06c1.09,8.93-1.72,31.27-3.4,43.23
					C765.41,473.87,768.08,474.71,770.83,475.54z"/>
				<path class="st6" d="M725.87,430.73c-4.24-3.71-6.52-7.82-7.73-11.28c-9.61,1.79-37.34,6.82-43.04,2.16c0,0-8.82,1.52-12.77-0.3
					c3.81,5.71,5.17,12.87-1.75,15.41c13.68,8.1,24.81,14.7,29.73,17.63c8.92,5.31,15.05,12.56,19.03,18.64
					c6.8-2.9,15.95-6.53,23.28-8.44C732.56,451.4,731.3,435.48,725.87,430.73z"/>
				<path class="st6" d="M595.89,439.41c2.52,2.83,5.79,7.43,9.31,12.77l57.63,23.36h48.09c-0.49-0.82-1.01-1.67-1.59-2.55
					c-3.97-6.08-10.11-13.34-19.03-18.64c-4.92-2.93-16.05-9.53-29.73-17.63c-0.82,0.3-1.75,0.54-2.81,0.7
					c-10.03,1.52-33.14-16.42-37.7-22.19c-0.85-1.08-1.22-2.16-1.26-3.24c-10.58-6.26-20.75-12.28-29.28-17.33
					c-0.32,0.51-0.65,1.03-0.99,1.53c-1.18,1.74-2.46,3.41-3.66,4.73c-2.68,2.95-11.74,15.83-18.13,23.98
					C576.1,427.36,589.32,432.02,595.89,439.41z"/>
				<path class="st6" d="M641.87,394.15c0.61-1.09,0.8-1.84,0.71-2.34l-1.47-0.9c-1.07-0.03-2.52,0.35-3.65,0.63
					c-2.08,0.52-1.06,4.64-0.55,6.31c1.71-0.01,2.92,0.05,2.92,0.05s0.13,0.12,0.35,0.33C640.17,397.29,640.95,395.8,641.87,394.15z
					"/>
				<path class="st6" d="M746.01,401.82c-2.2,0.16-6.63,3.32-10.66,7.01c-1.64,1.5-3.2,3.1-4.53,4.61c-1.26,1.45-2.3,2.83-2.96,4
					c-0.53,0.94-0.83,1.75-0.78,2.34c0.3,3.95,5.78,5.47,6.38,7.3c0.61,1.82,5.47,4.56,6.99,4.56s2.13,3.95,5.47,4.26
					c3.34,0.3,7.9,1.52,8.21-0.91s3.65-5.78,2.43-13.07c-0.1-0.62,0.36-1.64,1.05-2.76c0.48-0.78,1.08-1.61,1.7-2.41
					c1.61-2.09,3.33-3.95,3.33-3.95C761.74,412.18,750.64,401.49,746.01,401.82z"/>
				<path class="st6" d="M589.86,394.12l33.93-8.21c-0.82-1.96-1.68-4.5-1.84-6.79c-0.15-2.04,0.33-4.98,0.89-7.62
					c0.03-0.12,0.05-0.25,0.08-0.37l-28.83-1.52c0.45,0.91,0.45,2.02-0.15,2.97c-0.02,0.04-0.03,0.08-0.06,0.11l-9.63,13.89
					c0.72,0.72,1.43,2.15,0.25,4.75c0,0,8.06-7.67,8.44-4.99c0.13,0.89-0.3,2.34-1.06,4.02
					C591.34,391.53,590.65,392.82,589.86,394.12z"/>
				<path class="st6" d="M385.43,475.54c13.11-1.82,25.61-4.78,25.61-4.78s0.63-0.07,1.77-0.2c12.98-1.49,93.26-10.76,96.08-13.23
					c0.58-0.51,1.74-1.1,3.31-1.74c6.76-2.74,21.27-6.37,31.23-8.24c11.35-2.13,10.9-10.48,10.76-11.73
					c-0.01-0.1-0.02-0.16-0.02-0.16s3.07-1.92,6.52-3.84c1.04-0.58,3.3-3.21,6.05-6.72c6.39-8.15,15.44-21.03,18.13-23.98
					c1.2-1.32,2.48-2.99,3.66-4.73c0.34-0.51,0.67-1.02,0.99-1.53c0.11-0.18,0.23-0.36,0.34-0.54c0.79-1.3,1.48-2.59,2.01-3.76
					c0.76-1.68,1.19-3.13,1.06-4.02c-0.38-2.69-8.44,4.99-8.44,4.99c1.18-2.6,0.47-4.03-0.25-4.75l-1.44,2.08
					c0,0-6.27,6.04-9.44,8.81c-6.14,5.37-24.18,13.81-24.18,13.81c-4.17,1.69-6.52,2.72-8.2,3.28c-3.28,1.09-4.01,0.42-10.6-0.6
					c-9.98-1.53-8.83-4.6-8.83-4.6c3.25-2.24,5.62-4.75,7.3-7.28c4.08-6.12,4.15-12.37,3.06-15.36c-0.06-0.16-0.13-0.28-0.2-0.42
					c-1.75-3.46-7.12,0.11-11.17,4.12c-0.05,0.05-0.09,0.09-0.14,0.14c-1.72,1.72-4.26,4.39-7.14,7.41
					c-0.89,0.93-1.81,1.9-2.74,2.89c-2.73,2.87-5.6,5.88-8.28,8.6c-0.74,0.76-1.48,1.5-2.18,2.21c-6.91,6.91-4.6,14.97-4.6,14.97
					c-11.96,3.37-23.88,5.42-35.28,6.56c-3.64,0.37-7.22,0.64-10.74,0.84c-7.56,0.42-14.82,0.48-21.61,0.32
					c-3.93-0.09-7.7-0.26-11.28-0.48c-2.6-0.16-5.1-0.34-7.49-0.54c-4.5-0.37-8.61-0.8-12.28-1.21
					c-10.55-1.19-17.38-2.26-18.74-1.65c-11.13,4.99-20.34,44.51-20.34,44.51c0.32,0.2,0.68,0.39,1.07,0.56H385.43z"/>
				<path class="st6" d="M662.33,421.31c-3.54-5.32-16.78-18.01-21.11-22.1c-0.73-0.06-1.03-0.42-1.04-0.98
					c-0.22-0.21-0.35-0.33-0.35-0.33s-1.22-0.06-2.92-0.05c0.13,0.43,0.23,0.71,0.23,0.71c-0.79,1.01-1.72,1.62-2.66,1.99
					c-2.56,1-5.18,0.14-5.18,0.14c-1,1.31-2.36,1.19-3.66,0.46c-1.92,2.57-6.97,6.63-6.82,10.85c0.04,1.07,0.41,2.16,1.26,3.24
					c4.56,5.78,27.67,23.71,37.7,22.19c1.06-0.16,1.99-0.4,2.81-0.7C667.5,434.18,666.13,427.01,662.33,421.31z"/>
				<path class="st6" d="M646.72,394.34c-0.05-0.32-0.13-0.66-0.27-1.01c-1.16-2.95-1-7.61-0.88-9.47c-0.8-0.87-1.5-1.65-2.03-2.28
					c-0.43-0.51-0.8-1.1-1.15-1.75c-2.01-3.69-3.49-9.22-11.87-11.32c-1.87-0.47-4.1-0.76-6.75-0.83c-0.26,0.96-0.55,2.17-0.84,3.45
					c-0.03,0.12-0.05,0.24-0.08,0.37c-0.57,2.64-1.04,5.59-0.89,7.62c0.16,2.29,1.02,4.82,1.84,6.79c0.81,1.95,1.59,3.34,1.59,3.34
					s-4.57,5.71-3.27,8.16c0.69,1.29,2.06,2.9,3.52,3.72c1.3,0.74,2.66,0.85,3.66-0.46c0,0,2.62,0.87,5.18-0.14
					c0.94-0.37,1.87-0.98,2.66-1.99c0,0-0.1-0.28-0.23-0.71c-0.5-1.67-1.52-5.8,0.55-6.31c1.14-0.28,2.58-0.66,3.65-0.63l1.47,0.9
					c0.09,0.5-0.11,1.25-0.71,2.34c-0.92,1.65-1.7,3.15-1.69,4.08c0.01,0.56,0.3,0.92,1.04,0.98c0.15,0.01,0.31,0.02,0.49,0
					C644.07,399.06,647.23,397.43,646.72,394.34z"/>
				<g>
					<path class="st20" d="M661.12,389.95c0-0.01,0-0.01,0-0.02C661.13,389.94,661.12,389.95,661.12,389.95z"/>
					<path class="st20" d="M661.21,390.58c0.01,0.05,0.02,0.11,0.04,0.17C661.23,390.69,661.22,390.64,661.21,390.58z"/>
					<path class="st20" d="M674.77,377.38c-0.02,0-0.03,0-0.05,0.01C674.73,377.38,674.75,377.38,674.77,377.38z"/>
					<path class="st20" d="M662.3,387.92c-0.04,0.03-0.09,0.07-0.13,0.1C662.22,387.99,662.26,387.95,662.3,387.92z"/>
					<path class="st20" d="M661.68,388.49c0.03-0.03,0.05-0.06,0.08-0.09C661.74,388.43,661.71,388.46,661.68,388.49z"/>
					<path class="st20" d="M661.4,388.86c-0.01,0.01-0.02,0.02-0.02,0.03C661.39,388.88,661.39,388.87,661.4,388.86z"/>
					<path class="st20" d="M661.2,389.33c-0.01,0.03-0.02,0.07-0.02,0.1C661.18,389.4,661.19,389.36,661.2,389.33z"/>
					<path class="st20" d="M662.71,387.61c0.25-0.19,0.52-0.39,0.81-0.61h0C663.22,387.22,662.95,387.42,662.71,387.61z"/>
					<path class="st6" d="M781.43,370.51c0.63-6.33-0.63-9.17-5.69-12.97c-5.06-3.8-3.16-4.74-5.06-10.44
						c-1.9-5.69-22.77-21.82-31.63-27.52c-4.71-3.03-9.58-5.24-13.13-6.66c0.79,1.6,3.94,9.34-6.8,13.3
						c-12.02,4.43-30.68-0.95-34.48-3.16s-3.16-6.01-3.16-6.01c-4.09-1.05-6.83-2.27-8.85-3.75c-0.83,0.07-1.61,0.14-2.34,0.21
						c-1.3,0.12-2.43,0.25-3.36,0.38c-11.39,1.58-13.92,10.12-19.61,20.24c-5.69,10.12-9.49,17.71-18.34,21.82s-6.33,11.7-6.33,11.7
						c0.38,0,0.74,0.01,1.11,0.02c2.65,0.06,4.87,0.36,6.75,0.83c8.38,2.1,9.86,7.63,11.87,11.32c0.85,1.11,1.93,2.5,3.19,4.03
						c0.02,0.02,0.04,0.04,0.05,0.07c0.52,0.57,1.09,1.17,1.68,1.8c0.49-1.17,1.37-2.84,2.9-4.47c2.78-2.94,4.9-9.8,6.53-11.76
						s4.08-8,4.25-12.08c0,0,7.84-9.47,17.96-8c10.12,1.47-6.2,9.31-6.2,9.31s-8.16,7.18-6.04,7.84c2.12,0.65,14.86-2.12,16.82,4.74
						c1.96,6.86-7.35,5.71-8.49,6.04c-0.07,0.02-0.15,0.04-0.25,0.05c-0.02,0-0.03,0-0.05,0.01c-1.41,0.19-4.98-0.15-6.14,2.21
						c5.55,0.39,15.36,1.59,17.3,5.34c2.74,5.28,2.64,7.2-3.91,5.52c-4.71-1.22-13.58-2.31-18.45-3.46
						c-0.3,0.23-0.57,0.43-0.81,0.61c-0.14,0.11-0.28,0.21-0.4,0.32c-0.04,0.03-0.09,0.07-0.13,0.1c-0.15,0.13-0.29,0.25-0.41,0.38
						c-0.03,0.03-0.06,0.06-0.08,0.09c-0.11,0.12-0.2,0.24-0.28,0.37c-0.01,0.01-0.02,0.02-0.02,0.03
						c-0.08,0.14-0.14,0.28-0.18,0.44c-0.01,0.03-0.02,0.07-0.02,0.1c-0.03,0.16-0.05,0.32-0.05,0.5c0,0.01,0,0.01,0,0.02
						c0.01,0.19,0.04,0.4,0.08,0.63c0.01,0.05,0.02,0.11,0.04,0.17c0.06,0.24,0.12,0.49,0.22,0.78c0.46,1.39,1.65,2.94,2.76,4.47
						c2.55,0.56,4.87,4.12,9,4.99c10.93,2.31,26.39,2.48,31.13,3.74c4.76,1.27,11.6-1.52,16.36-3.99
						c-5.79-1.18-15.79-3.56-14.51-5.78c1.59-2.75,14.67-0.8,17.54-0.4c0.05,0.01,0.99,0.11,1.4,0c0.46-0.12,0.39-0.46,0.34-0.48
						c-3.26-1.65-22.86-10.84-21.08-15.28c1.96-4.9,13.72,2.12,17.14,3.27c2.54,0.85,7.58,1.6,10.03,1.94
						c0.25,0.03,0.36-0.31,0.13-0.42c-5.31-2.53-25.52-12.18-26.65-13.6c-1.31-1.63-4.41-9.14,0.49-8.82s27.59,13.23,29.88,12.08
						s2.61-2.61-1.31-4.74s-20.57-15.67-19.59-18.29s12.57,2.78,13.06,2.94c0.49,0.16,13.88,6.86,13.88,6.86s3.59,5.06,5.22,8.49
						c1.63,3.43,2.75,17.5,4.57,20.41c1.63,2.61,1.31,4.25-0.33,5.88c-0.57,0.57-1.13,1.37-1.63,2.18
						c-0.94,1.52-1.63,3.05-1.63,3.05c-0.04-0.04-0.13-0.08-0.26-0.14l-0.24,2.05c5.1,1.13,14.64,10.3,15.48,10.86
						c0,0-1.72,1.86-3.33,3.95c2.46,1.17,4.93,1.22,6.92,1.1c1.15-0.07,2.14-0.2,2.86-0.2c2.53,0,11.7-21.82,12.65-28.47
						C782.7,382.53,780.8,376.83,781.43,370.51z"/>
					<path class="st6" d="M675.02,377.33c-0.07,0.02-0.15,0.04-0.25,0.05C674.86,377.37,674.94,377.35,675.02,377.33z"/>
					<path class="st6" d="M661.68,388.49c-0.11,0.12-0.2,0.24-0.28,0.37C661.48,388.73,661.58,388.61,661.68,388.49z"/>
					<path class="st6" d="M662.71,387.61c-0.14,0.11-0.28,0.21-0.4,0.32C662.43,387.82,662.56,387.72,662.71,387.61z"/>
					<path class="st6" d="M661.77,388.4c0.12-0.12,0.25-0.25,0.41-0.38C662.02,388.15,661.89,388.27,661.77,388.4z"/>
					<path class="st6" d="M661.38,388.89c-0.08,0.14-0.14,0.28-0.18,0.44C661.24,389.17,661.3,389.03,661.38,388.89z"/>
					<path class="st6" d="M661.21,390.58c-0.05-0.23-0.08-0.44-0.08-0.63C661.13,390.14,661.16,390.36,661.21,390.58z"/>
					<path class="st6" d="M685.88,384.93c-1.95-3.74-11.75-4.95-17.3-5.34c1.16-2.37,4.73-2.02,6.14-2.21c0.02,0,0.03,0,0.05-0.01
						c0.09-0.01,0.18-0.03,0.25-0.05c1.14-0.33,10.45,0.82,8.49-6.04c-1.96-6.86-14.69-4.08-16.82-4.74
						c-2.12-0.65,6.04-7.84,6.04-7.84s16.33-7.84,6.2-9.31c-10.12-1.47-17.96,8-17.96,8c-0.16,4.08-2.61,10.12-4.25,12.08
						s-3.76,8.82-6.53,11.76c-1.53,1.62-2.42,3.3-2.9,4.47c-0.59-0.62-1.15-1.23-1.68-1.8c0.45,0.54,0.91,1.1,1.39,1.67
						c0.07,0.09,0.15,0.18,0.23,0.26c-0.35,0.87-0.47,1.44-0.47,1.44c2.78,4.74,17.14,17.31,19.27,14.69
						c0.52-0.63,0.57-1.38,0.36-2.18c-0.18-0.65-0.53-1.35-0.98-2.06c-0.36-0.57-0.77-1.15-1.19-1.73c-1.11-1.53-2.3-3.08-2.76-4.47
						c-0.1-0.29-0.16-0.54-0.22-0.78c-0.01-0.06-0.03-0.11-0.04-0.17c-0.05-0.23-0.08-0.44-0.08-0.63c0-0.01,0-0.01,0-0.02
						c0-0.18,0.02-0.35,0.05-0.5c0.01-0.03,0.02-0.07,0.02-0.1c0.04-0.15,0.1-0.3,0.18-0.44c0.01-0.01,0.02-0.02,0.02-0.03
						c0.08-0.13,0.17-0.25,0.28-0.37c0.03-0.03,0.06-0.06,0.08-0.09c0.12-0.12,0.26-0.25,0.41-0.38c0.04-0.03,0.09-0.07,0.13-0.1
						c0.13-0.1,0.26-0.21,0.4-0.32c0.25-0.19,0.51-0.39,0.81-0.61h0c4.87,1.15,13.74,2.24,18.45,3.46
						C688.52,392.14,688.62,390.21,685.88,384.93z"/>
					<path class="st6" d="M661.24,390.75c0.06,0.24,0.12,0.49,0.22,0.78C661.37,391.24,661.3,390.99,661.24,390.75z"/>
					<path class="st6" d="M661.17,389.43c-0.03,0.16-0.05,0.32-0.05,0.5C661.12,389.75,661.14,389.59,661.17,389.43z"/>
				</g>
				<g>
					<path class="st6" d="M722.29,401.06c0.01,0,0.02,0,0.03,0.01c0.22,0.04,0.43,0.08,0.62,0.12c0.03,0,0.05,0.01,0.07,0.01
						c0.18,0.03,0.34,0.06,0.5,0.09c0.02,0,0.04,0.01,0.07,0.01c0.14,0.03,0.27,0.05,0.39,0.07c0.01,0,0.03,0.01,0.04,0.01
						c1.05-1.16,2.21-2.01,3.42-2.18c19.34-2.71,19.99,0.68,19.99,0.68c0.13,0.05,0.22,0.1,0.26,0.14c0,0,0.7-1.53,1.63-3.05
						c0.5-0.81,1.06-1.61,1.63-2.18c1.63-1.63,1.96-3.27,0.33-5.88c-1.82-2.91-2.94-16.98-4.57-20.41
						c-1.63-3.43-5.22-8.49-5.22-8.49s-13.39-6.69-13.88-6.86c-0.49-0.16-12.08-5.55-13.06-2.94s15.67,16.16,19.59,18.29
						s3.59,3.59,1.31,4.74s-24.98-11.76-29.88-12.08s-1.8,7.18-0.49,8.82c1.13,1.42,21.34,11.08,26.65,13.6
						c0.23,0.11,0.13,0.45-0.13,0.42c-2.45-0.34-7.49-1.09-10.03-1.94c-3.43-1.14-15.18-8.16-17.14-3.27
						c-1.78,4.45,17.82,13.63,21.08,15.28c0.05,0.03,0.12,0.36-0.34,0.48c-0.41,0.11-1.35,0.01-1.4,0
						c-2.88-0.4-15.95-2.35-17.54,0.4c-1.29,2.22,8.71,4.61,14.51,5.78l0,0C721.28,400.86,721.81,400.97,722.29,401.06z"/>
					<path class="st6" d="M716.75,411.58c1.13-3.52,3.21-6.28,5.87-8.42c0.44-0.64,0.9-1.24,1.39-1.78c-0.01,0-0.03-0.01-0.04-0.01
						c-0.12-0.02-0.24-0.04-0.39-0.07c-0.02,0-0.04-0.01-0.07-0.01c-0.15-0.03-0.32-0.06-0.5-0.09c-0.03,0-0.05-0.01-0.07-0.01
						c-0.19-0.04-0.4-0.08-0.62-0.12c-0.01,0-0.02,0-0.03-0.01c-0.48-0.09-1.01-0.2-1.58-0.31c-4.76,2.47-11.6,5.26-16.36,3.99
						c-4.63-1.24-20.32-1.46-31.13-3.74c-4.44-0.94-6.29-4.39-9-4.99c0.42,0.58,0.84,1.17,1.19,1.73c0.45,0.72,0.8,1.41,0.98,2.06
						c0.22,0.81,0.16,1.55-0.36,2.18c-2.12,2.61-16.49-9.96-19.27-14.69c0,0,0.12-0.57,0.47-1.44c-0.07-0.09-0.15-0.18-0.23-0.26
						c-0.48-0.57-0.95-1.13-1.39-1.67c-0.02-0.02-0.04-0.04-0.05-0.06c-0.12,1.86-0.28,6.52,0.88,9.47
						c0.14,0.36,0.22,0.69,0.27,1.01c0.51,3.09-2.64,4.72-5.01,4.86c-0.18,0.01-0.34,0.01-0.49,0c4.33,4.1,17.56,16.79,21.11,22.1
						c3.95,1.82,12.77,0.3,12.77,0.3c5.7,4.66,33.42-0.38,43.04-2.16c-0.31-0.89-0.56-1.74-0.75-2.53
						C716.63,413.75,716.75,411.58,716.75,411.58z"/>
					<path class="st6" d="M763.17,471.12C767,454,766,436,766.24,417.84c-1.49,0.1-0.46,8.94,0,0C763,419,761,416,759,417
						c-3,2-2,6-2,10c-1,3-1,6-3,8c-3,3-6,2-9,1c-3-2-6-5-9-6c-3-2-5-5-8-8s2-6,2.83-8.55c-6.73-3.47-1.91,2.18,0,0
						c-6.73-3.47-0.44-4.17,3.07-4.62c4.44-0.56,8.12-8.19,13.28-6.9c0.3-2.49,0.15-2.78-2.41-3.39C738,397,730,397,724.01,401.38"
						/>
					<path class="st6" d="M724.01,401.38C718,407,714,416,720,424c6,7,12,14,12,23c0,8,2,16,0.55,24.15"/>
				</g>
				<path class="st6" d="M675.1,421.61c-0.79-1.72,3.06-18.56-4.32-21.44"/>
				<path class="st6" d="M629.3,400.68c0.11-1.15-1.33-11.57,2.52-14.3"/>
				<line class="st6" x1="625.38" y1="389.25" x2="629.41" y2="387.02"/>
				<path class="st6" d="M681.48,317.06c1.48,0.21,16.4,1.97,17.04,3.26"/>
				<path class="st6" d="M448.16,354.01c0,0,16.94,4.92,19.85,4.19"/>
				<path class="st6" d="M458.54,333.42c0,0-14.4,1.37-17.49,6.01"/>
				<path class="st6" d="M492.75,333.19c0,0,10.24,4.05,5.14,8.79"/>
				<path class="st6" d="M357.7,474.98c0,0-12.18,0.96-15.13-3.46c-2.95-4.42-22.6-9.34-28.5-21.62s-23.59-54.54-28.01-62.4
					s-2.95-20.15-5.41-31.94s-5.41-26.04-5.41-26.04"/>
				<path class="st6" d="M378.04,430.47c-0.2-0.79-0.13-6.39-4.89-13.17c-0.73-1.04-3.37-1.44-4.25-2.56
					c-5.65-7.22-7.5-19.97-8.16-34.9c-1.4-32.07-6.55-61.33-6.55-61.33"/>
				<path class="st6" d="M342.58,471.52c-0.32-1.55-5.71-17.7,1.78-24.73c7.49-7.02,16.12-33.69,24.55-32.05"/>
				<path class="st6" d="M500.8,249.74c0,0,5.03,9.64,7.48,7.91"/>
				<path class="st6" d="M525.52,282.92c0,0-16.08-3.41-17.81-5.56"/>
				<path class="st6" d="M545.53,270.45c0,0-9.2,0.72-10.21-2.01"/>
				<path class="st6" d="M506.56,248.59c0,0,2.59-1.15,3.31,0.72s1.87,2.16,1.87,2.16"/>
				<path class="st6" d="M531,178.84c0,0-12.37,2.3-15.68,17.26c-3.31,14.96-5.9,43.86-5.9,43.86l4.17,2.44
					c0,0,7.85-38.29,9.35-42.71c2.44-7.19,18.41-17.69,18.41-17.69L531,178.84z"/>
				<path class="st6" d="M356.23,229.14c0,0,1.19-20.13,4.64-23"/>
				<path class="st6" d="M351.77,199.66c0,0,2.31,3.95,6.1,0.85"/>
				<path class="st6" d="M360.98,181.07c0,0-3.46-12.41-7.54-10.34"/>
				<path class="st6" d="M356.96,187.51c0,0-1.38-2.07-2.41-0.11s-0.8,5.06-0.8,5.06"/>
				<path class="st6" d="M420.77,214.76c0.69,1.49,1.03,22.19-2.41,24.26c-3.45,2.07-9.77-3.33-11.96-4.6s-3.91-4.94-2.3-6.32"/>
				<path class="st6" d="M407.78,248.22c-0.8-0.34-8.74-0.34-14.03-4.83c0,0,2.53,10.69,12.07,10.92"/>
				<path class="st6" d="M625.09,260.41c-0.34,0.23-2.87,6.78-11.96,4.94"/>
				<path class="st6" d="M621.3,251.32c0,0,0.69,7.01-3.56,6.67s-5.63-0.11-5.63-0.11"/>
				<path class="st6" d="M672.92,297.78c0,0,2.18,2.07,4.37,1.15"/>
				<path class="st6" d="M710.52,286.39c0,0,5.75-2.64,6.78,3.1c1.03,5.75-2.3,8.16-2.87,9.08c-0.57,0.92-3.22,4.71-6.78,4.83
					c-3.56,0.11-3.1-2.53-2.41-4.37"/>
				<path class="st6" d="M711.21,291.45c0,0,0.8,5.52-1.84,5.86"/>
				<path class="st6" d="M659.48,400.23c0,0,0.14,8.89-1.39,11.39"/>
				<path class="st6" d="M741.47,360.02c0,0-4.5-6.23-4.23-8.14"/>
				<path class="st6" d="M660.97,357.41c0,0,0.13-9.08-0.1-10.73"/>
				<circle class="st15" cx="396.48" cy="212.51" r="1.99"/>
				<circle class="st15" cx="431.59" cy="214.31" r="1.99"/>
				<circle class="st15" cx="552.36" cy="248.57" r="1.99"/>
				<circle class="st15" cx="596.08" cy="247.81" r="1.99"/>
				<circle class="st15" cx="619.74" cy="232.29" r="1.99"/>
				<circle class="st15" cx="679" cy="277.92" r="1.59"/>
				<path class="st6" d="M762.65,412.79c0,0,6.7,3.04,6.44,4.84"/>
				<path class="st6" d="M747.42,399.89c0,0,22.21,12.82,22.61,16.38"/>
				<path class="st6" d="M664.4,289.22c0.73,0.49,1.71,2.89,3.57,1.36"/>
			</g>
		</g>
	</g>
</g>
</svg>
