<svg width="584" height="309" viewBox="0 0 584 309" fill="none" xmlns="http://www.w3.org/2000/svg">
<g clip-path="url(#clip0)">
<rect width="584" height="309" fill="white"/>
<path d="M-595.73 291.933C-558.033 291.933 -535.009 275.003 -535.009 246.223C-535.009 214.733 -563.564 205.366 -589.071 201.302C-616.61 197.578 -632.073 190.693 -632.073 174.553C-632.073 161.913 -624.398 149.385 -596.633 149.385C-573.609 149.385 -561.193 160.22 -561.193 175.456H-541.104C-541.104 149.836 -560.291 131.778 -596.407 131.778C-636.362 131.778 -652.05 151.529 -652.05 174.441C-652.05 205.478 -620.899 213.943 -595.279 218.232C-572.367 221.731 -555.212 228.164 -555.212 246.223C-555.212 265.184 -569.658 274.777 -595.843 274.777C-621.125 274.777 -636.023 260.331 -636.023 244.191H-656C-656 267.441 -637.377 291.933 -595.73 291.933Z" fill="#1C1D20"/>
<path d="M-434.162 288.66H-412.153L-455.493 219.699L-418.022 173.538H-441.837L-491.271 234.823V129.746H-510.684V288.66H-491.271V256.268L-469.714 232.453L-434.162 288.66Z" fill="#1C1D20"/>
<path d="M-406.903 327.937H-387.941C-362.998 327.937 -354.195 317.892 -341.215 285.5L-295.844 173.538L-316.498 173.651L-348.89 255.026L-351.825 265.071L-354.533 254.913L-387.151 173.538H-407.806L-362.095 285.274L-363.337 288.547C-369.319 304.235 -373.946 311.571 -387.828 311.571H-406.903V327.937Z" fill="#1C1D20"/>
<path d="M-278.065 288.66H-258.652V129.52H-278.065V288.66Z" fill="#1C1D20"/>
<path d="M-214.125 151.078C-205.773 151.078 -200.694 145.547 -200.694 138.662C-200.694 131.891 -205.773 126.36 -214.012 126.36C-222.138 126.36 -227.217 131.891 -227.217 138.662C-227.217 145.547 -222.138 151.078 -214.125 151.078ZM-223.718 288.66H-204.306V173.538H-223.718V288.66Z" fill="#1C1D20"/>
<path d="M-118.921 332C-78.6283 332 -59.2155 305.251 -59.2155 273.197V173.538H-77.8383V198.255C-84.723 183.018 -101.088 170.377 -123.097 170.377C-155.151 170.377 -179.078 197.465 -179.078 228.954C-179.078 260.669 -154.925 286.515 -122.533 286.515C-103.007 286.515 -85.9645 277.035 -77.8383 259.541V273.762C-77.8383 295.206 -89.0118 315.409 -118.921 315.409C-143.977 315.409 -153.571 303.219 -155.828 289.337H-174.225C-172.983 310.33 -157.634 332 -118.921 332ZM-119.147 269.36C-141.72 269.36 -159.778 251.866 -159.778 228.954C-159.778 205.817 -141.72 188.549 -119.034 188.549C-96.4609 188.549 -78.5154 207.059 -78.5154 228.954C-78.5154 251.076 -96.5738 269.36 -119.147 269.36Z" fill="#1C1D20"/>
<path d="M-24.2816 288.66H-4.86884V228.164C-4.86884 204.688 12.6252 188.436 31.8123 188.436C51.7894 188.436 63.9788 200.061 63.9788 226.584V288.66H83.3915V226.246C83.3915 189.452 67.3647 170.265 36.7783 170.265C17.2527 170.265 1.67737 180.535 -5.2074 195.433L-4.86884 183.131V129.746H-24.2816V288.66Z" fill="#1C1D20"/>
<path d="M158.28 288.66H179.498V272.182H162.117C151.846 272.182 141.463 268.344 141.463 246.9V190.58H179.498V173.538H141.463V139.227L122.05 139.34V173.538H96.4297V190.58H122.05V245.997C122.05 281.888 140.786 288.66 158.28 288.66Z" fill="#1C1D20"/>
<path fill-rule="evenodd" clip-rule="evenodd" d="M214.757 145.163C214.757 103.1 248.855 69.0008 290.918 69.0001V104.543C268.486 104.544 250.301 122.73 250.301 145.163L214.757 145.163Z" fill="#80B690"/>
<path fill-rule="evenodd" clip-rule="evenodd" d="M290.918 221.326C248.855 221.325 214.757 187.226 214.757 145.163L250.298 145.163L250.298 145.163C250.298 167.597 268.484 185.783 290.918 185.783C290.918 185.783 290.918 185.783 290.918 185.783L290.918 221.326Z" fill="#468FBA"/>
<path fill-rule="evenodd" clip-rule="evenodd" d="M367.085 145.163C367.085 187.226 332.986 221.325 290.923 221.326L290.923 185.783L290.923 185.783C313.357 185.783 331.543 167.597 331.543 145.163C331.543 145.163 331.543 145.163 331.543 145.163L367.084 145.163L367.084 144.737C367.085 144.879 367.085 145.021 367.085 145.163Z" fill="#DF635C"/>
<path fill-rule="evenodd" clip-rule="evenodd" d="M290.922 69C332.986 69 367.085 103.099 367.085 145.163L331.543 145.163C331.543 122.729 313.357 104.543 290.923 104.543C290.923 104.543 290.922 104.543 290.922 104.543L290.922 69Z" fill="#F4C55C"/>
<path d="M292.354 234.646C292.158 234.451 291.842 234.451 291.646 234.646L288.464 237.828C288.269 238.024 288.269 238.34 288.464 238.536C288.66 238.731 288.976 238.731 289.172 238.536L292 235.707L294.828 238.536C295.024 238.731 295.34 238.731 295.536 238.536C295.731 238.34 295.731 238.024 295.536 237.828L292.354 234.646ZM292.5 283.668L292.5 282.694L291.5 282.694L291.5 283.668L292.5 283.668ZM292.5 279.774L292.5 277.827L291.5 277.827L291.5 279.774L292.5 279.774ZM292.5 274.907L292.5 272.961L291.5 272.961L291.5 274.907L292.5 274.907ZM292.5 270.041L292.5 268.094L291.5 268.094L291.5 270.041L292.5 270.041ZM292.5 265.174L292.5 263.227L291.5 263.227L291.5 265.174L292.5 265.174ZM292.5 260.307L292.5 258.36L291.5 258.36L291.5 260.307L292.5 260.307ZM292.5 255.44L292.5 253.494L291.5 253.494L291.5 255.44L292.5 255.44ZM292.5 250.574L292.5 248.627L291.5 248.627L291.5 250.574L292.5 250.574ZM292.5 245.707L292.5 243.76L291.5 243.76L291.5 245.707L292.5 245.707ZM292.5 240.84L292.5 238.893L291.5 238.893L291.5 240.84L292.5 240.84ZM292.5 235.973L292.5 235L291.5 235L291.5 235.973L292.5 235.973Z" fill="#1D5392"/>
<rect y="107" width="180" height="200" fill="white" fill-opacity="0.78"/>
</g>
<defs>
<clipPath id="clip0">
<rect width="584" height="309" fill="white"/>
</clipPath>
</defs>
</svg>
