<svg width="841" height="733" viewBox="0 0 841 733" fill="none" xmlns="http://www.w3.org/2000/svg">
<rect x="466.5" y="0.5" width="374" height="266" stroke="#1d5392" stroke-dasharray="2 4"/>
<rect x="548.5" y="412.5" width="166" height="320" stroke="#1d5392" stroke-dasharray="2 4"/>
<rect x="484.5" y="17.5" width="338" height="232" stroke="#1d5392" stroke-dasharray="2 4"/>
<rect x="568.5" y="432.5" width="126" height="280" stroke="#1d5392" stroke-dasharray="2 4"/>
<line x1="466" y1="128.5" x2="841" y2="128.5" stroke="#1d5392" stroke-dasharray="2 4"/>
<line x1="548" y1="566.5" x2="715" y2="566.5" stroke="#1d5392" stroke-dasharray="2 4"/>
<line y1="172.5" x2="356" y2="172.5" stroke="#1d5392" stroke-dasharray="2 4"/>
<path d="M241 411.5L94 411.5L94 704" stroke="#1d5392" stroke-dasharray="2 4"/>
<line x1="654.5" y1="2.18557e-08" x2="654.5" y2="267" stroke="#1d5392" stroke-dasharray="2 4"/>
<line x1="632.5" y1="412" x2="632.5" y2="733" stroke="#1d5392" stroke-dasharray="2 4"/>
<path d="M515.309 222.133C521.757 222.133 525.696 219.237 525.696 214.315C525.696 208.928 520.811 207.326 516.448 206.631C511.738 205.994 509.093 204.816 509.093 202.055C509.093 199.893 510.406 197.75 515.155 197.75C519.093 197.75 521.217 199.604 521.217 202.21H524.653C524.653 197.827 521.371 194.738 515.193 194.738C508.359 194.738 505.676 198.117 505.676 202.036C505.676 207.345 511.004 208.793 515.387 209.527C519.306 210.125 522.24 211.226 522.24 214.315C522.24 217.558 519.769 219.199 515.29 219.199C510.965 219.199 508.417 216.728 508.417 213.967H505C505 217.944 508.185 222.133 515.309 222.133Z" fill="#1C1D20"/>
<path d="M542.946 221.573H546.711L539.297 209.778L545.707 201.882H541.633L533.177 212.365V194.391H529.857V221.573H533.177V216.033L536.865 211.959L542.946 221.573Z" fill="#1C1D20"/>
<path d="M547.609 228.292H550.852C555.119 228.292 556.624 226.574 558.845 221.033L566.606 201.882L563.073 201.901L557.532 215.82L557.03 217.539L556.567 215.801L550.987 201.882H547.454L555.273 220.994L555.061 221.554C554.037 224.238 553.246 225.493 550.871 225.493H547.609V228.292Z" fill="#1C1D20"/>
<path d="M569.647 221.573H572.967V194.352H569.647V221.573Z" fill="#1C1D20"/>
<path d="M580.584 198.04C582.012 198.04 582.881 197.094 582.881 195.916C582.881 194.758 582.012 193.812 580.603 193.812C579.213 193.812 578.344 194.758 578.344 195.916C578.344 197.094 579.213 198.04 580.584 198.04ZM578.943 221.573H582.263V201.882H578.943V221.573Z" fill="#1C1D20"/>
<path d="M596.869 228.987C603.761 228.987 607.081 224.411 607.081 218.929V201.882H603.896V206.11C602.718 203.503 599.919 201.341 596.154 201.341C590.671 201.341 586.579 205.974 586.579 211.361C586.579 216.786 590.71 221.207 596.251 221.207C599.591 221.207 602.506 219.585 603.896 216.593V219.025C603.896 222.693 601.985 226.149 596.869 226.149C592.583 226.149 590.942 224.064 590.556 221.689H587.409C587.621 225.28 590.247 228.987 596.869 228.987ZM596.83 218.272C592.969 218.272 589.88 215.28 589.88 211.361C589.88 207.403 592.969 204.449 596.849 204.449C600.71 204.449 603.78 207.615 603.78 211.361C603.78 215.145 600.691 218.272 596.83 218.272Z" fill="#1C1D20"/>
<path d="M613.057 221.573H616.377V211.226C616.377 207.21 619.37 204.43 622.652 204.43C626.069 204.43 628.154 206.418 628.154 210.955V221.573H631.475V210.897C631.475 204.604 628.733 201.322 623.501 201.322C620.161 201.322 617.497 203.079 616.319 205.627L616.377 203.523V194.391H613.057V221.573Z" fill="#1C1D20"/>
<path d="M644.284 221.573H647.914V218.755H644.941C643.184 218.755 641.408 218.098 641.408 214.43V204.797H647.914V201.882H641.408V196.013L638.087 196.032V201.882H633.705V204.797H638.087V214.276C638.087 220.415 641.292 221.573 644.284 221.573Z" fill="#1C1D20"/>
<path fill-rule="evenodd" clip-rule="evenodd" d="M653.945 197.028C653.945 189.833 659.777 184.001 666.971 184V190.08C663.135 190.081 660.026 193.191 660.026 197.028H653.945Z" fill="#80B690"/>
<path fill-rule="evenodd" clip-rule="evenodd" d="M653.945 197.028L653.945 197.028L660.026 197.028L660.026 197.028C660.026 200.864 663.135 203.974 666.971 203.976L666.971 210.056C659.777 210.055 653.945 204.222 653.945 197.028Z" fill="#6BA5C8"/>
<path fill-rule="evenodd" clip-rule="evenodd" d="M666.972 210.056L666.971 210.056L666.971 203.976L666.972 203.976C670.809 203.976 673.92 200.865 673.92 197.028C673.92 197.028 673.92 197.028 673.92 197.028L680 197.028C680 197.028 680 197.028 680 197.028C680 204.223 674.167 210.056 666.972 210.056Z" fill="#DF635C"/>
<path fill-rule="evenodd" clip-rule="evenodd" d="M666.972 184C674.167 184 680 189.833 680 197.028L673.92 197.028C673.92 193.19 670.809 190.08 666.972 190.08C666.971 190.08 666.971 190.08 666.971 190.08L666.971 184C666.971 184 666.972 184 666.972 184Z" fill="#F4C55C"/>
<path d="M74.1203 140.929C83.5776 140.929 89.3538 136.681 89.3538 129.461C89.3538 121.561 82.1901 119.211 75.7909 118.192C68.882 117.257 65.0028 115.53 65.0028 111.481C65.0028 108.31 66.9282 105.167 73.8938 105.167C79.6701 105.167 82.7847 107.885 82.7847 111.707H87.8248C87.8248 105.28 83.0113 100.75 73.9504 100.75C63.9268 100.75 59.991 105.705 59.991 111.453C59.991 119.239 67.806 121.363 74.2336 122.439C79.9815 123.317 84.2854 124.931 84.2854 129.461C84.2854 134.218 80.6611 136.625 74.092 136.625C67.7494 136.625 64.0118 133 64.0118 128.951H59C59 134.784 63.672 140.929 74.1203 140.929Z" fill="#1C1D20"/>
<path d="M114.654 140.108H120.175L109.302 122.807L118.703 111.226H112.729L100.327 126.601V100.24H95.4563V140.108H100.327V131.981L105.735 126.007L114.654 140.108Z" fill="#1C1D20"/>
<path d="M121.493 149.961H126.25C132.507 149.961 134.716 147.441 137.972 139.315L149.355 111.226L144.173 111.254L136.047 131.67L135.31 134.19L134.631 131.641L126.448 111.226H121.266L132.734 139.258L132.422 140.079C130.922 144.015 129.761 145.856 126.278 145.856H121.493V149.961Z" fill="#1C1D20"/>
<path d="M153.815 140.108H158.685V100.183H153.815V140.108Z" fill="#1C1D20"/>
<path d="M169.856 105.591C171.951 105.591 173.226 104.204 173.226 102.477C173.226 100.778 171.951 99.3904 169.884 99.3904C167.846 99.3904 166.572 100.778 166.572 102.477C166.572 104.204 167.846 105.591 169.856 105.591ZM167.449 140.108H172.32V111.226H167.449V140.108Z" fill="#1C1D20"/>
<path d="M193.74 150.981C203.849 150.981 208.719 144.27 208.719 136.228V111.226H204.047V117.427C202.32 113.605 198.214 110.433 192.693 110.433C184.651 110.433 178.649 117.229 178.649 125.129C178.649 133.085 184.708 139.57 192.834 139.57C197.733 139.57 202.009 137.191 204.047 132.802V136.37C204.047 141.75 201.244 146.818 193.74 146.818C187.455 146.818 185.048 143.76 184.481 140.277H179.866C180.178 145.544 184.028 150.981 193.74 150.981ZM193.684 135.266C188.021 135.266 183.49 130.877 183.49 125.129C183.49 119.324 188.021 114.992 193.712 114.992C199.375 114.992 203.877 119.636 203.877 125.129C203.877 130.679 199.347 135.266 193.684 135.266Z" fill="#1C1D20"/>
<path d="M217.483 140.108H222.354V124.931C222.354 119.041 226.742 114.964 231.556 114.964C236.568 114.964 239.626 117.88 239.626 124.534V140.108H244.496V124.449C244.496 115.219 240.475 110.405 232.802 110.405C227.903 110.405 223.996 112.982 222.269 116.719L222.354 113.633V100.24H217.483V140.108Z" fill="#1C1D20"/>
<path d="M263.284 140.108H268.607V135.974H264.246C261.67 135.974 259.065 135.011 259.065 129.631V115.502H268.607V111.226H259.065V102.618L254.194 102.647V111.226H247.767V115.502H254.194V129.404C254.194 138.409 258.895 140.108 263.284 140.108Z" fill="#1C1D20"/>
<path fill-rule="evenodd" clip-rule="evenodd" d="M277.453 104.107C277.453 93.5559 286.006 85.002 296.557 85V93.9171C290.931 93.9193 286.371 98.4806 286.37 104.107H277.453V104.194C277.453 104.165 277.453 104.136 277.453 104.107Z" fill="#80B690"/>
<path fill-rule="evenodd" clip-rule="evenodd" d="M277.453 104.107L277.453 104.107L286.37 104.107L286.37 104.107C286.37 109.734 290.931 114.296 296.557 114.298L296.557 123.215C286.006 123.213 277.453 114.659 277.453 104.107Z" fill="#6BA5C8"/>
<path fill-rule="evenodd" clip-rule="evenodd" d="M296.56 123.215L296.559 123.215L296.559 114.298L296.56 114.298C302.188 114.298 306.75 109.735 306.75 104.107C306.75 104.107 306.75 104.107 306.75 104.107L315.667 104.107L315.667 103.962C315.668 104.011 315.668 104.059 315.668 104.107C315.668 114.66 307.113 123.215 296.56 123.215Z" fill="#DF635C"/>
<path fill-rule="evenodd" clip-rule="evenodd" d="M296.56 85C307.113 85 315.668 93.5545 315.668 104.107L306.75 104.107C306.75 98.4792 302.188 93.9171 296.56 93.9171C296.559 93.9171 296.558 93.9171 296.557 93.9171L296.557 85C296.558 85 296.559 85 296.56 85Z" fill="#F4C55C"/>
<path d="M651.929 683.547C651.929 674.09 647.682 668.314 640.461 668.314C632.561 668.314 630.211 675.477 629.192 681.877C628.257 688.785 626.53 692.665 622.481 692.665C619.31 692.665 616.167 690.739 616.167 683.774C616.167 677.997 618.885 674.883 622.708 674.883L622.708 669.843C616.28 669.843 611.75 674.656 611.75 683.717C611.75 693.741 616.705 697.676 622.453 697.676C630.24 697.676 632.363 689.861 633.439 683.434C634.317 677.686 635.931 673.382 640.461 673.382C645.218 673.382 647.625 677.006 647.625 683.576C647.625 689.918 644.001 693.656 639.952 693.656L639.952 698.667C645.785 698.667 651.929 693.995 651.929 683.547Z" fill="#1C1D20"/>
<path d="M651.108 643.013L651.108 637.492L633.807 648.365L622.226 638.964L622.226 644.939L637.601 657.341L611.24 657.341L611.24 662.211L651.108 662.211L651.108 657.341L642.981 657.341L637.007 651.933L651.108 643.013Z" fill="#1C1D20"/>
<path d="M660.961 636.175L660.961 631.418C660.961 625.16 658.441 622.952 650.315 619.695L622.226 608.313L622.255 613.494L642.67 621.621L645.19 622.357L642.642 623.037L622.226 631.22L622.226 636.401L650.258 624.934L651.08 625.245C655.015 626.746 656.856 627.907 656.856 631.39L656.856 636.175L660.961 636.175Z" fill="#1C1D20"/>
<path d="M651.108 603.852L651.108 598.982L611.183 598.982L611.183 603.852L651.108 603.852Z" fill="#1C1D20"/>
<path d="M616.592 587.811C616.592 585.716 615.204 584.442 613.477 584.442C611.778 584.442 610.391 585.716 610.391 587.783C610.391 589.822 611.778 591.096 613.477 591.096C615.204 591.096 616.592 589.822 616.592 587.811ZM651.108 590.218L651.108 585.348L622.226 585.348L622.226 590.218L651.108 590.218Z" fill="#1C1D20"/>
<path d="M661.981 563.927C661.981 553.818 655.27 548.948 647.229 548.948L622.226 548.948L622.226 553.62L628.427 553.62C624.605 555.347 621.434 559.453 621.434 564.975C621.434 573.016 628.229 579.019 636.129 579.019C644.086 579.019 650.57 572.96 650.57 564.833C650.57 559.935 648.191 555.659 643.803 553.62L647.37 553.62C652.75 553.62 657.819 556.423 657.819 563.927C657.819 570.213 654.76 572.62 651.278 573.186L651.278 577.801C656.544 577.49 661.981 573.639 661.981 563.927ZM646.266 563.984C646.266 569.647 641.877 574.177 636.129 574.177C630.324 574.177 625.992 569.647 625.992 563.955C625.992 558.292 630.636 553.79 636.129 553.79C641.679 553.79 646.266 558.321 646.266 563.984Z" fill="#1C1D20"/>
<path d="M651.108 540.184L651.108 535.314L635.931 535.314C630.041 535.314 625.964 530.925 625.964 526.112C625.964 521.1 628.88 518.042 635.534 518.042L651.108 518.042L651.108 513.171L635.45 513.171C626.219 513.171 621.405 517.192 621.405 524.866C621.405 529.764 623.982 533.672 627.719 535.399L624.633 535.314L611.24 535.314L611.24 540.184L651.108 540.184Z" fill="#1C1D20"/>
<path d="M651.108 494.384L651.108 489.061L646.974 489.061L646.974 493.421C646.974 495.998 646.011 498.603 640.631 498.603L626.502 498.603L626.502 489.061L622.226 489.061L622.226 498.603L613.619 498.603L613.647 503.473L622.226 503.473L622.226 509.901L626.502 509.901L626.502 503.473L640.405 503.473C649.409 503.473 651.108 498.773 651.108 494.384Z" fill="#1C1D20"/>
<path fill-rule="evenodd" clip-rule="evenodd" d="M615.107 480.214C604.556 480.214 596.002 471.662 596 461.111L604.917 461.111C604.919 466.737 609.481 471.297 615.107 471.297L615.107 480.214L615.194 480.214C615.165 480.214 615.136 480.214 615.107 480.214Z" fill="#80B690"/>
<path fill-rule="evenodd" clip-rule="evenodd" d="M615.107 480.214L615.107 480.214L615.107 471.297L615.107 471.297C620.734 471.297 625.296 466.737 625.298 461.11L634.215 461.11C634.213 471.661 625.659 480.214 615.107 480.214Z" fill="#6BA5C8"/>
<path fill-rule="evenodd" clip-rule="evenodd" d="M634.215 461.107L634.215 461.109L625.298 461.109L625.298 461.108C625.298 455.48 620.735 450.918 615.107 450.918C615.107 450.918 615.107 450.918 615.107 450.918L615.107 442.001L614.962 442.001C615.011 442 615.059 442 615.107 442C625.66 442 634.215 450.555 634.215 461.107Z" fill="#DF635C"/>
<path fill-rule="evenodd" clip-rule="evenodd" d="M596 461.107C596 450.555 604.554 442 615.107 442V450.918C609.479 450.918 604.917 455.48 604.917 461.108C604.917 461.109 604.917 461.11 604.917 461.111L596 461.111C596 461.11 596 461.109 596 461.107Z" fill="#F4C55C"/>
<path d="M190.929 683.547C190.929 674.09 186.682 668.314 179.461 668.314C171.561 668.314 169.211 675.477 168.192 681.877C167.257 688.785 165.53 692.665 161.481 692.665C158.31 692.665 155.167 690.739 155.167 683.774C155.167 677.997 157.885 674.883 161.708 674.883L161.708 669.843C155.28 669.843 150.75 674.656 150.75 683.717C150.75 693.741 155.705 697.676 161.453 697.676C169.24 697.676 171.363 689.861 172.439 683.434C173.317 677.686 174.931 673.382 179.461 673.382C184.218 673.382 186.625 677.006 186.625 683.576C186.625 689.918 183.001 693.656 178.952 693.656L178.952 698.667C184.785 698.667 190.929 693.995 190.929 683.547Z" fill="#1C1D20"/>
<path d="M190.108 643.013L190.108 637.492L172.807 648.365L161.226 638.964L161.226 644.939L176.601 657.341L150.24 657.341L150.24 662.211L190.108 662.211L190.108 657.341L181.981 657.341L176.007 651.933L190.108 643.013Z" fill="#1C1D20"/>
<path d="M199.961 636.175L199.961 631.418C199.961 625.16 197.441 622.952 189.315 619.695L161.226 608.313L161.255 613.494L181.67 621.621L184.19 622.357L181.642 623.037L161.226 631.22L161.226 636.401L189.258 624.934L190.08 625.245C194.015 626.746 195.856 627.907 195.856 631.39L195.856 636.175L199.961 636.175Z" fill="#1C1D20"/>
<path d="M190.108 603.852L190.108 598.982L150.183 598.982L150.183 603.852L190.108 603.852Z" fill="#1C1D20"/>
<path d="M155.592 587.811C155.592 585.716 154.204 584.442 152.477 584.442C150.778 584.442 149.391 585.716 149.391 587.783C149.391 589.822 150.778 591.096 152.477 591.096C154.204 591.096 155.592 589.822 155.592 587.811ZM190.108 590.218L190.108 585.348L161.226 585.348L161.226 590.218L190.108 590.218Z" fill="#1C1D20"/>
<path d="M200.981 563.927C200.981 553.818 194.27 548.948 186.229 548.948L161.226 548.948L161.226 553.62L167.427 553.62C163.605 555.347 160.434 559.453 160.434 564.975C160.434 573.016 167.229 579.019 175.129 579.019C183.086 579.019 189.57 572.96 189.57 564.833C189.57 559.935 187.191 555.659 182.803 553.62L186.37 553.62C191.75 553.62 196.819 556.423 196.819 563.927C196.819 570.213 193.76 572.62 190.278 573.186L190.278 577.801C195.544 577.49 200.981 573.639 200.981 563.927ZM185.266 563.984C185.266 569.647 180.877 574.177 175.129 574.177C169.324 574.177 164.992 569.647 164.992 563.955C164.992 558.292 169.636 553.79 175.129 553.79C180.679 553.79 185.266 558.321 185.266 563.984Z" fill="#1C1D20"/>
<path d="M190.108 540.184L190.108 535.314L174.931 535.314C169.041 535.314 164.964 530.925 164.964 526.112C164.964 521.1 167.88 518.042 174.534 518.042L190.108 518.042L190.108 513.171L174.45 513.171C165.219 513.171 160.405 517.192 160.405 524.866C160.405 529.764 162.982 533.672 166.719 535.399L163.633 535.314L150.24 535.314L150.24 540.184L190.108 540.184Z" fill="#1C1D20"/>
<path d="M190.108 494.384L190.108 489.061L185.974 489.061L185.974 493.421C185.974 495.998 185.011 498.603 179.631 498.603L165.502 498.603L165.502 489.061L161.226 489.061L161.226 498.603L152.619 498.603L152.647 503.473L161.226 503.473L161.226 509.901L165.502 509.901L165.502 503.473L179.405 503.473C188.409 503.473 190.108 498.773 190.108 494.384Z" fill="#1C1D20"/>
<path fill-rule="evenodd" clip-rule="evenodd" d="M154.107 480.214C143.556 480.214 135.002 471.662 135 461.111L143.917 461.111C143.919 466.737 148.481 471.297 154.107 471.297L154.107 480.214L154.194 480.214C154.165 480.214 154.136 480.214 154.107 480.214Z" fill="#80B690"/>
<path fill-rule="evenodd" clip-rule="evenodd" d="M154.107 480.214L154.107 480.214L154.107 471.297L154.107 471.297C159.734 471.297 164.296 466.737 164.298 461.11L173.215 461.11C173.213 471.661 164.659 480.214 154.107 480.214Z" fill="#6BA5C8"/>
<path fill-rule="evenodd" clip-rule="evenodd" d="M173.215 461.107L173.215 461.109L164.298 461.109L164.298 461.108C164.298 455.48 159.735 450.918 154.107 450.918C154.107 450.918 154.107 450.918 154.107 450.918L154.107 442.001L153.962 442.001C154.011 442 154.059 442 154.107 442C164.66 442 173.215 450.555 173.215 461.107Z" fill="#DF635C"/>
<path fill-rule="evenodd" clip-rule="evenodd" d="M135 461.107C135 450.555 143.554 442 154.107 442L154.107 450.918C148.479 450.918 143.917 455.48 143.917 461.108C143.917 461.109 143.917 461.11 143.917 461.111L135 461.111C135 461.11 135 461.109 135 461.107Z" fill="#F4C55C"/>
<path d="M348.621 158.192V155.861C348.621 155.228 348.548 154.667 348.402 154.18C348.257 153.688 348.047 153.273 347.773 152.936C347.495 152.598 347.156 152.343 346.755 152.17C346.358 151.992 345.905 151.903 345.395 151.903C344.889 151.903 344.435 151.992 344.034 152.17C343.638 152.343 343.303 152.598 343.029 152.936C342.751 153.273 342.539 153.688 342.394 154.18C342.248 154.667 342.175 155.228 342.175 155.861V158.192C342.175 158.826 342.248 159.389 342.394 159.881C342.539 160.368 342.751 160.779 343.029 161.111C343.307 161.453 343.647 161.711 344.048 161.884C344.449 162.052 344.902 162.137 345.408 162.137C345.919 162.137 346.372 162.05 346.769 161.877C347.165 161.704 347.5 161.449 347.773 161.111C348.047 160.779 348.257 160.368 348.402 159.881C348.548 159.389 348.621 158.826 348.621 158.192ZM343.446 157.939C343.446 157.821 343.446 157.705 343.446 157.591C343.446 157.477 343.446 157.363 343.446 157.249V155.581C343.446 155.116 343.492 154.708 343.583 154.357C343.679 154.002 343.822 153.713 344.014 153.489C344.173 153.312 344.367 153.177 344.595 153.086C344.827 152.99 345.094 152.942 345.395 152.942C345.691 152.942 345.951 152.986 346.174 153.072C346.402 153.159 346.593 153.289 346.748 153.462C346.908 153.631 347.033 153.842 347.124 154.098C347.22 154.348 347.286 154.638 347.322 154.966L343.446 157.939ZM347.35 158.459C347.35 158.947 347.299 159.37 347.199 159.73C347.104 160.09 346.951 160.382 346.741 160.605C346.586 160.77 346.397 160.895 346.174 160.981C345.951 161.068 345.695 161.111 345.408 161.111C345.135 161.111 344.889 161.073 344.67 160.995C344.451 160.913 344.264 160.795 344.109 160.64C343.941 160.476 343.804 160.268 343.699 160.018C343.594 159.762 343.521 159.468 343.48 159.136L347.35 156.176C347.35 156.303 347.35 156.465 347.35 156.661C347.35 156.853 347.35 156.982 347.35 157.051V158.459ZM352.06 153.688C352.06 153.934 352.105 154.164 352.196 154.378C352.292 154.588 352.42 154.77 352.579 154.925C352.734 155.084 352.916 155.21 353.126 155.301C353.34 155.392 353.566 155.438 353.803 155.438C354.035 155.438 354.254 155.392 354.459 155.301C354.669 155.21 354.851 155.084 355.006 154.925C355.161 154.77 355.284 154.585 355.375 154.371C355.466 154.157 355.512 153.929 355.512 153.688C355.512 153.446 355.466 153.218 355.375 153.004C355.284 152.785 355.161 152.594 355.006 152.43C354.851 152.27 354.669 152.145 354.459 152.054C354.254 151.958 354.035 151.91 353.803 151.91C353.566 151.91 353.34 151.958 353.126 152.054C352.916 152.145 352.734 152.27 352.579 152.43C352.42 152.594 352.292 152.785 352.196 153.004C352.105 153.218 352.06 153.446 352.06 153.688ZM352.907 153.688C352.907 153.56 352.93 153.441 352.976 153.332C353.026 153.218 353.092 153.12 353.174 153.038C353.251 152.956 353.345 152.892 353.454 152.847C353.563 152.801 353.68 152.778 353.803 152.778C353.926 152.778 354.04 152.801 354.145 152.847C354.249 152.892 354.343 152.956 354.425 153.038C354.502 153.12 354.562 153.218 354.603 153.332C354.648 153.441 354.671 153.56 354.671 153.688C354.671 153.811 354.648 153.927 354.603 154.036C354.562 154.141 354.502 154.232 354.425 154.31C354.343 154.392 354.249 154.455 354.145 154.501C354.04 154.542 353.926 154.562 353.803 154.562C353.68 154.562 353.563 154.542 353.454 154.501C353.345 154.455 353.251 154.392 353.174 154.31C353.092 154.232 353.026 154.141 352.976 154.036C352.93 153.927 352.907 153.811 352.907 153.688Z" fill="#1d5392"/>
<path d="M220.325 436.879H220.195V438.007H220.325C221.146 438.007 221.84 437.895 222.41 437.672C222.984 437.444 223.433 437.148 223.757 436.783C224.295 436.182 224.646 435.493 224.81 434.719C224.974 433.939 225.056 433.165 225.056 432.395V431.937C225.056 431.394 224.98 430.852 224.83 430.31C224.68 429.763 224.454 429.307 224.153 428.942C223.898 428.632 223.581 428.384 223.203 428.197C222.829 428.006 222.387 427.91 221.877 427.91C221.367 427.91 220.918 428.004 220.53 428.19C220.147 428.373 219.828 428.619 219.573 428.929C219.313 429.243 219.118 429.61 218.985 430.029C218.858 430.444 218.794 430.886 218.794 431.355C218.794 431.757 218.849 432.155 218.958 432.552C219.067 432.948 219.238 433.304 219.471 433.618C219.703 433.933 219.997 434.188 220.353 434.384C220.713 434.575 221.139 434.671 221.631 434.671C221.886 434.671 222.121 434.646 222.335 434.596C222.554 434.541 222.752 434.468 222.93 434.377C223.107 434.286 223.267 434.181 223.408 434.062C223.549 433.939 223.675 433.81 223.784 433.673V433.687C223.761 434.106 223.695 434.511 223.586 434.903C223.477 435.295 223.265 435.662 222.95 436.004C222.69 436.282 222.346 436.498 221.918 436.653C221.494 436.804 220.963 436.879 220.325 436.879ZM221.836 433.625C221.531 433.625 221.264 433.559 221.036 433.427C220.813 433.29 220.628 433.112 220.482 432.894C220.332 432.675 220.22 432.426 220.147 432.148C220.075 431.866 220.038 431.579 220.038 431.287C220.038 430.959 220.079 430.654 220.161 430.371C220.243 430.084 220.364 429.836 220.523 429.626C220.678 429.421 220.87 429.259 221.098 429.141C221.326 429.022 221.588 428.963 221.884 428.963C222.144 428.963 222.387 429.027 222.615 429.154C222.848 429.282 223.053 429.464 223.23 429.701C223.404 429.943 223.54 430.237 223.641 430.583C223.745 430.929 223.798 431.324 223.798 431.766V432.176C223.72 432.39 223.613 432.586 223.477 432.764C223.344 432.937 223.194 433.087 223.025 433.215C222.852 433.347 222.663 433.45 222.458 433.522C222.257 433.591 222.05 433.625 221.836 433.625ZM233.621 434.192V431.861C233.621 431.228 233.548 430.667 233.402 430.18C233.257 429.688 233.047 429.273 232.773 428.936C232.495 428.598 232.156 428.343 231.755 428.17C231.358 427.992 230.905 427.903 230.395 427.903C229.889 427.903 229.435 427.992 229.034 428.17C228.638 428.343 228.303 428.598 228.029 428.936C227.751 429.273 227.539 429.688 227.394 430.18C227.248 430.667 227.175 431.228 227.175 431.861V434.192C227.175 434.826 227.248 435.389 227.394 435.881C227.539 436.368 227.751 436.779 228.029 437.111C228.307 437.453 228.647 437.711 229.048 437.884C229.449 438.052 229.902 438.137 230.408 438.137C230.919 438.137 231.372 438.05 231.769 437.877C232.165 437.704 232.5 437.449 232.773 437.111C233.047 436.779 233.257 436.368 233.402 435.881C233.548 435.389 233.621 434.826 233.621 434.192ZM228.446 433.939C228.446 433.821 228.446 433.705 228.446 433.591C228.446 433.477 228.446 433.363 228.446 433.249V431.581C228.446 431.116 228.492 430.708 228.583 430.357C228.679 430.002 228.822 429.713 229.014 429.489C229.173 429.312 229.367 429.177 229.595 429.086C229.827 428.99 230.094 428.942 230.395 428.942C230.691 428.942 230.951 428.986 231.174 429.072C231.402 429.159 231.593 429.289 231.748 429.462C231.908 429.631 232.033 429.842 232.124 430.098C232.22 430.348 232.286 430.638 232.322 430.966L228.446 433.939ZM232.35 434.459C232.35 434.947 232.299 435.37 232.199 435.73C232.104 436.09 231.951 436.382 231.741 436.605C231.586 436.77 231.397 436.895 231.174 436.981C230.951 437.068 230.695 437.111 230.408 437.111C230.135 437.111 229.889 437.073 229.67 436.995C229.451 436.913 229.264 436.795 229.109 436.64C228.941 436.476 228.804 436.268 228.699 436.018C228.594 435.762 228.521 435.468 228.48 435.136L232.35 432.176C232.35 432.303 232.35 432.465 232.35 432.661C232.35 432.853 232.35 432.982 232.35 433.051V434.459ZM237.06 429.688C237.06 429.934 237.105 430.164 237.196 430.378C237.292 430.588 237.42 430.77 237.579 430.925C237.734 431.084 237.916 431.21 238.126 431.301C238.34 431.392 238.566 431.438 238.803 431.438C239.035 431.438 239.254 431.392 239.459 431.301C239.669 431.21 239.851 431.084 240.006 430.925C240.161 430.77 240.284 430.585 240.375 430.371C240.466 430.157 240.512 429.929 240.512 429.688C240.512 429.446 240.466 429.218 240.375 429.004C240.284 428.785 240.161 428.594 240.006 428.43C239.851 428.27 239.669 428.145 239.459 428.054C239.254 427.958 239.035 427.91 238.803 427.91C238.566 427.91 238.34 427.958 238.126 428.054C237.916 428.145 237.734 428.27 237.579 428.43C237.42 428.594 237.292 428.785 237.196 429.004C237.105 429.218 237.06 429.446 237.06 429.688ZM237.907 429.688C237.907 429.56 237.93 429.441 237.976 429.332C238.026 429.218 238.092 429.12 238.174 429.038C238.251 428.956 238.345 428.892 238.454 428.847C238.563 428.801 238.68 428.778 238.803 428.778C238.926 428.778 239.04 428.801 239.145 428.847C239.249 428.892 239.343 428.956 239.425 429.038C239.502 429.12 239.562 429.218 239.603 429.332C239.648 429.441 239.671 429.56 239.671 429.688C239.671 429.811 239.648 429.927 239.603 430.036C239.562 430.141 239.502 430.232 239.425 430.31C239.343 430.392 239.249 430.455 239.145 430.501C239.04 430.542 238.926 430.562 238.803 430.562C238.68 430.562 238.563 430.542 238.454 430.501C238.345 430.455 238.251 430.392 238.174 430.31C238.092 430.232 238.026 430.141 237.976 430.036C237.93 429.927 237.907 429.811 237.907 429.688Z" fill="#1d5392"/>
</svg>
