<svg width="788" height="320" viewBox="0 0 788 320" fill="none" xmlns="http://www.w3.org/2000/svg">
<path d="M33.6735 164.555C54.7353 164.555 67.5993 155.097 67.5993 139.017C67.5993 121.423 51.6454 116.189 37.394 113.919C22.0076 111.838 13.3685 107.992 13.3685 98.9741C13.3685 91.9115 17.6565 84.9119 33.1691 84.9119C46.0331 84.9119 52.9696 90.9656 52.9696 99.4785H64.1941C64.1941 85.1641 53.4741 75.0747 33.2952 75.0747C10.9723 75.0747 2.20707 86.11 2.20707 98.911C2.20707 116.252 19.6114 120.982 33.9258 123.378C46.7268 125.333 56.3117 128.927 56.3117 139.017C56.3117 149.61 48.2402 154.971 33.6105 154.971C19.4853 154.971 11.1615 146.899 11.1615 137.882H0C0 150.872 10.4047 164.555 33.6735 164.555Z" fill="#1C1D20"/>
<path d="M123.944 162.727H136.24L112.026 124.198L132.961 98.4065H119.656L92.036 132.648V73.9396H81.1898V162.727H92.036V144.629L104.08 131.323L123.944 162.727Z" fill="#1C1D20"/>
<path d="M139.174 184.671H149.768C163.704 184.671 168.622 179.059 175.874 160.961L201.224 98.4065L189.684 98.4696L171.586 143.935L169.947 149.547L168.433 143.872L150.209 98.4065H138.669L164.208 160.835L163.515 162.664C160.173 171.429 157.587 175.528 149.831 175.528H139.174V184.671Z" fill="#1C1D20"/>
<path d="M211.157 162.727H222.003V73.8135H211.157V162.727Z" fill="#1C1D20"/>
<path d="M246.881 85.8578C251.548 85.8578 254.385 82.7679 254.385 78.9213C254.385 75.1377 251.548 72.0479 246.944 72.0479C242.404 72.0479 239.566 75.1377 239.566 78.9213C239.566 82.7679 242.404 85.8578 246.881 85.8578ZM241.521 162.727H252.367V98.4065H241.521V162.727Z" fill="#1C1D20"/>
<path d="M300.073 186.941C322.585 186.941 333.431 171.996 333.431 154.088V98.4065H323.026V112.216C319.18 103.704 310.036 96.6409 297.74 96.6409C279.831 96.6409 266.462 111.775 266.462 129.369C266.462 147.088 279.957 161.529 298.055 161.529C308.964 161.529 318.486 156.232 323.026 146.458V154.403C323.026 166.384 316.784 177.672 300.073 177.672C286.074 177.672 280.714 170.861 279.453 163.105H269.174C269.868 174.834 278.444 186.941 300.073 186.941ZM299.947 151.944C287.335 151.944 277.245 142.17 277.245 129.369C277.245 116.441 287.335 106.793 300.01 106.793C312.622 106.793 322.648 117.135 322.648 129.369C322.648 141.728 312.559 151.944 299.947 151.944Z" fill="#1C1D20"/>
<path d="M352.949 162.727H363.795V128.927C363.795 115.811 373.569 106.73 384.289 106.73C395.451 106.73 402.261 113.225 402.261 128.044V162.727H413.107V127.855C413.107 107.298 404.153 96.5778 387.064 96.5778C376.155 96.5778 367.453 102.316 363.606 110.64L363.795 103.767V73.9396H352.949V162.727Z" fill="#1C1D20"/>
<path d="M454.948 162.727H466.804V153.52H457.092C451.354 153.52 445.553 151.376 445.553 139.395V107.928H466.804V98.4065H445.553V79.2366L434.706 79.2996V98.4065H420.392V107.928H434.706V138.89C434.706 158.943 445.174 162.727 454.948 162.727Z" fill="#1C1D20"/>
<path fill-rule="evenodd" clip-rule="evenodd" d="M486.502 82.5532C486.502 59.0517 505.554 40 529.055 40L529.055 59.8582C516.521 59.8583 506.36 70.0191 506.36 82.5532L486.502 82.5532Z" fill="#80B690"/>
<path fill-rule="evenodd" clip-rule="evenodd" d="M529.055 125.106C505.554 125.106 486.502 106.055 486.502 82.5533L506.36 82.5532C506.36 95.0873 516.521 105.248 529.055 105.248L529.055 125.106Z" fill="#468FBA"/>
<path fill-rule="evenodd" clip-rule="evenodd" d="M571.607 82.5533C571.607 106.055 552.556 125.106 529.054 125.106L529.054 105.248C541.588 105.248 551.749 95.0873 551.749 82.5532L571.607 82.5533Z" fill="#DF635C"/>
<path fill-rule="evenodd" clip-rule="evenodd" d="M529.054 40C552.556 40 571.607 59.0517 571.607 82.5532L551.749 82.5532C551.749 70.0191 541.588 59.8583 529.054 59.8582L529.054 40Z" fill="#F4C55C"/>
<rect x="467" y="299.149" width="19.15" height="2" fill="#1d5392"/>
<path d="M477.406 310.563C477.823 309.662 478.312 308.805 478.875 307.993C479.443 307.175 479.977 306.563 480.477 306.157C480.961 305.782 481.451 305.594 481.945 305.594C482.273 305.594 482.513 305.672 482.664 305.829C482.82 305.98 482.898 306.178 482.898 306.422C482.898 306.579 482.865 306.745 482.797 306.922C482.729 307.099 482.622 307.25 482.477 307.375C482.336 307.5 482.159 307.563 481.945 307.563C481.742 307.563 481.589 307.506 481.484 307.391C481.385 307.271 481.336 307.125 481.336 306.954C481.336 306.792 481.383 306.618 481.477 306.43C481.576 306.237 481.701 306.071 481.852 305.93H481.805C481.435 305.93 481.094 306.042 480.781 306.266C480.302 306.615 479.766 307.204 479.172 308.032C478.578 308.86 478.008 309.865 477.461 311.047L477.883 314.672C477.945 315.235 478.073 315.68 478.266 316.008C478.458 316.331 478.753 316.493 479.148 316.493C479.461 316.493 479.714 316.396 479.906 316.204C480.099 316.006 480.273 315.685 480.43 315.243L480.695 314.43H481.016L480.602 315.665C480.404 316.248 480.143 316.68 479.82 316.961C479.503 317.237 479.112 317.375 478.648 317.375C477.951 317.375 477.448 317.141 477.141 316.672C476.839 316.204 476.643 315.605 476.555 314.875L476.266 312.36C475.984 312.943 475.646 313.527 475.25 314.11C474.854 314.693 474.44 315.222 474.008 315.696C473.581 316.17 473.177 316.542 472.797 316.813C472.302 317.188 471.81 317.375 471.32 317.375C470.992 317.375 470.753 317.3 470.602 317.149C470.445 316.993 470.367 316.792 470.367 316.547C470.367 316.391 470.401 316.224 470.469 316.047C470.536 315.87 470.643 315.719 470.789 315.594C470.93 315.469 471.107 315.407 471.32 315.407C471.529 315.407 471.682 315.467 471.781 315.586C471.88 315.701 471.93 315.844 471.93 316.016C471.93 316.172 471.883 316.347 471.789 316.54C471.695 316.732 471.573 316.899 471.422 317.04H471.484C471.844 317.024 472.18 316.912 472.492 316.704C473.044 316.339 473.654 315.74 474.32 314.907C474.987 314.073 475.615 313.05 476.203 311.836L475.789 308.297C475.721 307.735 475.591 307.292 475.398 306.969C475.206 306.641 474.914 306.477 474.523 306.477C474.211 306.477 473.958 306.576 473.766 306.774C473.573 306.967 473.398 307.284 473.242 307.727L472.969 308.54H472.648L473.062 307.305C473.266 306.722 473.526 306.292 473.844 306.016C474.167 305.735 474.557 305.594 475.016 305.594C475.714 305.594 476.214 305.829 476.516 306.297C476.823 306.761 477.023 307.36 477.117 308.094L477.406 310.563Z" fill="#1d5392"/>
<line x1="467.5" y1="18" x2="467.5" y2="299" stroke="#1d5392" stroke-linejoin="round" stroke-dasharray="2 4"/>
<line x1="486.5" y1="18" x2="486.5" y2="299" stroke="#1d5392" stroke-linejoin="round" stroke-dasharray="2 4"/>
<rect x="552" y="299.149" width="19.15" height="2" fill="#1d5392"/>
<path d="M562.406 310.563C562.823 309.662 563.312 308.805 563.875 307.993C564.443 307.175 564.977 306.563 565.477 306.157C565.961 305.782 566.451 305.594 566.945 305.594C567.273 305.594 567.513 305.672 567.664 305.829C567.82 305.98 567.898 306.178 567.898 306.422C567.898 306.579 567.865 306.745 567.797 306.922C567.729 307.099 567.622 307.25 567.477 307.375C567.336 307.5 567.159 307.563 566.945 307.563C566.742 307.563 566.589 307.506 566.484 307.391C566.385 307.271 566.336 307.125 566.336 306.954C566.336 306.792 566.383 306.618 566.477 306.43C566.576 306.237 566.701 306.071 566.852 305.93H566.805C566.435 305.93 566.094 306.042 565.781 306.266C565.302 306.615 564.766 307.204 564.172 308.032C563.578 308.86 563.008 309.865 562.461 311.047L562.883 314.672C562.945 315.235 563.073 315.68 563.266 316.008C563.458 316.331 563.753 316.493 564.148 316.493C564.461 316.493 564.714 316.396 564.906 316.204C565.099 316.006 565.273 315.685 565.43 315.243L565.695 314.43H566.016L565.602 315.665C565.404 316.248 565.143 316.68 564.82 316.961C564.503 317.237 564.112 317.375 563.648 317.375C562.951 317.375 562.448 317.141 562.141 316.672C561.839 316.204 561.643 315.605 561.555 314.875L561.266 312.36C560.984 312.943 560.646 313.527 560.25 314.11C559.854 314.693 559.44 315.222 559.008 315.696C558.581 316.17 558.177 316.542 557.797 316.813C557.302 317.188 556.81 317.375 556.32 317.375C555.992 317.375 555.753 317.3 555.602 317.149C555.445 316.993 555.367 316.792 555.367 316.547C555.367 316.391 555.401 316.224 555.469 316.047C555.536 315.87 555.643 315.719 555.789 315.594C555.93 315.469 556.107 315.407 556.32 315.407C556.529 315.407 556.682 315.467 556.781 315.586C556.88 315.701 556.93 315.844 556.93 316.016C556.93 316.172 556.883 316.347 556.789 316.54C556.695 316.732 556.573 316.899 556.422 317.04H556.484C556.844 317.024 557.18 316.912 557.492 316.704C558.044 316.339 558.654 315.74 559.32 314.907C559.987 314.073 560.615 313.05 561.203 311.836L560.789 308.297C560.721 307.735 560.591 307.292 560.398 306.969C560.206 306.641 559.914 306.477 559.523 306.477C559.211 306.477 558.958 306.576 558.766 306.774C558.573 306.967 558.398 307.284 558.242 307.727L557.969 308.54H557.648L558.062 307.305C558.266 306.722 558.526 306.292 558.844 306.016C559.167 305.735 559.557 305.594 560.016 305.594C560.714 305.594 561.214 305.829 561.516 306.297C561.823 306.761 562.023 307.36 562.117 308.094L562.406 310.563Z" fill="#1d5392"/>
<line x1="552.5" y1="18" x2="552.5" y2="299" stroke="#1d5392" stroke-linejoin="round" stroke-dasharray="2 4"/>
<line x1="571.5" y1="18" x2="571.5" y2="299" stroke="#1d5392" stroke-linejoin="round" stroke-dasharray="2 4"/>
<rect x="757.684" y="126" width="38.3" height="1.68421" transform="rotate(90 757.684 126)" fill="#1d5392"/>
<path d="M771.32 142H763.867V140.961L767.594 136.82C767.927 136.451 768.206 136.122 768.43 135.836C768.654 135.549 768.833 135.286 768.969 135.047C769.104 134.802 769.201 134.573 769.258 134.359C769.315 134.141 769.344 133.917 769.344 133.688C769.344 133.406 769.297 133.143 769.203 132.898C769.115 132.648 768.982 132.432 768.805 132.25C768.633 132.068 768.422 131.924 768.172 131.82C767.927 131.711 767.648 131.656 767.336 131.656C766.956 131.656 766.625 131.711 766.344 131.82C766.068 131.93 765.836 132.086 765.648 132.289C765.466 132.487 765.328 132.729 765.234 133.016C765.146 133.302 765.102 133.622 765.102 133.977H763.648C763.648 133.497 763.732 133.047 763.898 132.625C764.065 132.198 764.305 131.826 764.617 131.508C764.935 131.19 765.32 130.938 765.773 130.75C766.232 130.562 766.753 130.469 767.336 130.469C767.872 130.469 768.354 130.549 768.781 130.711C769.214 130.867 769.578 131.086 769.875 131.367C770.172 131.648 770.398 131.982 770.555 132.367C770.716 132.753 770.797 133.172 770.797 133.625C770.797 133.964 770.74 134.299 770.625 134.633C770.51 134.961 770.354 135.286 770.156 135.609C769.964 135.932 769.737 136.253 769.477 136.57C769.221 136.883 768.951 137.195 768.664 137.508L765.609 140.82H771.32V142ZM777.289 136.672C777.648 135.849 778.099 135.135 778.641 134.531C778.943 134.182 779.216 133.932 779.461 133.781C779.711 133.63 779.971 133.555 780.242 133.555C780.445 133.555 780.612 133.609 780.742 133.719C780.878 133.823 780.945 133.964 780.945 134.141C780.945 134.349 780.865 134.531 780.703 134.688C780.547 134.839 780.346 134.914 780.102 134.914C779.742 134.914 779.404 134.786 779.086 134.531C778.424 135.141 777.852 136.073 777.367 137.328L777.742 140.75C777.784 141.021 777.849 141.211 777.938 141.32C778.026 141.43 778.143 141.484 778.289 141.484C778.471 141.484 778.646 141.383 778.812 141.18C778.979 140.971 779.161 140.583 779.359 140.016L779.57 139.422H779.875L779.477 140.594C779.081 141.682 778.471 142.227 777.648 142.227C776.878 142.227 776.435 141.734 776.32 140.75L776.086 138.672C775.664 139.62 775.096 140.474 774.383 141.234C774.055 141.578 773.763 141.831 773.508 141.992C773.258 142.148 773.013 142.227 772.773 142.227C772.534 142.227 772.354 142.174 772.234 142.07C772.109 141.966 772.047 141.82 772.047 141.633C772.047 141.43 772.128 141.253 772.289 141.102C772.451 140.945 772.648 140.867 772.883 140.867C773.227 140.867 773.562 140.995 773.891 141.25C774.328 140.844 774.732 140.359 775.102 139.797C775.477 139.229 775.784 138.667 776.023 138.109L775.68 135.023C775.612 134.534 775.432 134.289 775.141 134.289C774.964 134.289 774.789 134.393 774.617 134.602C774.451 134.81 774.266 135.195 774.062 135.758L773.859 136.352H773.555L773.953 135.188C774.167 134.589 774.427 134.167 774.734 133.922C775.047 133.677 775.396 133.555 775.781 133.555C776.172 133.555 776.474 133.667 776.688 133.891C776.906 134.109 777.047 134.487 777.109 135.023L777.289 136.672Z" fill="#1d5392"/>
<line x1="756" y1="125.5" x2="508" y2="125.5" stroke="#1d5392" stroke-linejoin="round" stroke-dasharray="2 4"/>
<line x1="756" y1="163.5" x2="467" y2="163.5" stroke="#1d5392" stroke-linejoin="round" stroke-dasharray="2 4"/>
<rect x="757.684" y="188" width="38.3" height="1.68421" transform="rotate(90 757.684 188)" fill="#1d5392"/>
<path d="M771.32 204H763.867V202.961L767.594 198.82C767.927 198.451 768.206 198.122 768.43 197.836C768.654 197.549 768.833 197.286 768.969 197.047C769.104 196.802 769.201 196.573 769.258 196.359C769.315 196.141 769.344 195.917 769.344 195.688C769.344 195.406 769.297 195.143 769.203 194.898C769.115 194.648 768.982 194.432 768.805 194.25C768.633 194.068 768.422 193.924 768.172 193.82C767.927 193.711 767.648 193.656 767.336 193.656C766.956 193.656 766.625 193.711 766.344 193.82C766.068 193.93 765.836 194.086 765.648 194.289C765.466 194.487 765.328 194.729 765.234 195.016C765.146 195.302 765.102 195.622 765.102 195.977H763.648C763.648 195.497 763.732 195.047 763.898 194.625C764.065 194.198 764.305 193.826 764.617 193.508C764.935 193.19 765.32 192.938 765.773 192.75C766.232 192.562 766.753 192.469 767.336 192.469C767.872 192.469 768.354 192.549 768.781 192.711C769.214 192.867 769.578 193.086 769.875 193.367C770.172 193.648 770.398 193.982 770.555 194.367C770.716 194.753 770.797 195.172 770.797 195.625C770.797 195.964 770.74 196.299 770.625 196.633C770.51 196.961 770.354 197.286 770.156 197.609C769.964 197.932 769.737 198.253 769.477 198.57C769.221 198.883 768.951 199.195 768.664 199.508L765.609 202.82H771.32V204ZM777.289 198.672C777.648 197.849 778.099 197.135 778.641 196.531C778.943 196.182 779.216 195.932 779.461 195.781C779.711 195.63 779.971 195.555 780.242 195.555C780.445 195.555 780.612 195.609 780.742 195.719C780.878 195.823 780.945 195.964 780.945 196.141C780.945 196.349 780.865 196.531 780.703 196.688C780.547 196.839 780.346 196.914 780.102 196.914C779.742 196.914 779.404 196.786 779.086 196.531C778.424 197.141 777.852 198.073 777.367 199.328L777.742 202.75C777.784 203.021 777.849 203.211 777.938 203.32C778.026 203.43 778.143 203.484 778.289 203.484C778.471 203.484 778.646 203.383 778.812 203.18C778.979 202.971 779.161 202.583 779.359 202.016L779.57 201.422H779.875L779.477 202.594C779.081 203.682 778.471 204.227 777.648 204.227C776.878 204.227 776.435 203.734 776.32 202.75L776.086 200.672C775.664 201.62 775.096 202.474 774.383 203.234C774.055 203.578 773.763 203.831 773.508 203.992C773.258 204.148 773.013 204.227 772.773 204.227C772.534 204.227 772.354 204.174 772.234 204.07C772.109 203.966 772.047 203.82 772.047 203.633C772.047 203.43 772.128 203.253 772.289 203.102C772.451 202.945 772.648 202.867 772.883 202.867C773.227 202.867 773.562 202.995 773.891 203.25C774.328 202.844 774.732 202.359 775.102 201.797C775.477 201.229 775.784 200.667 776.023 200.109L775.68 197.023C775.612 196.534 775.432 196.289 775.141 196.289C774.964 196.289 774.789 196.393 774.617 196.602C774.451 196.81 774.266 197.195 774.062 197.758L773.859 198.352H773.555L773.953 197.188C774.167 196.589 774.427 196.167 774.734 195.922C775.047 195.677 775.396 195.555 775.781 195.555C776.172 195.555 776.474 195.667 776.688 195.891C776.906 196.109 777.047 196.487 777.109 197.023L777.289 198.672Z" fill="#1d5392"/>
<line x1="756" y1="187.5" x2="304" y2="187.5" stroke="#1d5392" stroke-linejoin="round" stroke-dasharray="2 4"/>
<line x1="756" y1="225.5" x2="263" y2="225.5" stroke="#1d5392" stroke-linejoin="round" stroke-dasharray="2 4"/>
<rect x="757.684" y="1" width="38.3" height="1.68421" transform="rotate(90 757.684 1)" fill="#1d5392"/>
<path d="M771.32 17V15.8203H765.609L768.664 12.5078C768.951 12.1953 769.221 11.8828 769.477 11.5703C769.737 11.2526 769.966 10.9323 770.164 10.6094C770.357 10.2865 770.51 9.96094 770.625 9.63281C770.74 9.29948 770.797 8.96354 770.797 8.625C770.797 8.17188 770.716 7.7526 770.555 7.36719C770.398 6.98177 770.172 6.64844 769.875 6.36719C769.578 6.08594 769.214 5.86719 768.781 5.71094C768.354 5.54948 767.872 5.46875 767.336 5.46875C766.753 5.46875 766.232 5.5625 765.773 5.75C765.32 5.9375 764.938 6.1901 764.625 6.50781C764.307 6.82552 764.065 7.19792 763.898 7.625C763.732 8.04688 763.648 8.4974 763.648 8.97656H765.102C765.102 8.6224 765.146 8.30208 765.234 8.01562C765.328 7.72917 765.469 7.48438 765.656 7.28125C765.839 7.08333 766.068 6.92969 766.344 6.82031C766.625 6.71094 766.956 6.65625 767.336 6.65625C767.648 6.65625 767.927 6.71094 768.172 6.82031C768.422 6.92448 768.635 7.06771 768.812 7.25C768.984 7.43229 769.115 7.64844 769.203 7.89844C769.297 8.14323 769.344 8.40625 769.344 8.6875C769.344 8.91667 769.315 9.14062 769.258 9.35938C769.201 9.57292 769.104 9.79948 768.969 10.0391C768.833 10.2839 768.654 10.5495 768.43 10.8359C768.206 11.1224 767.927 11.4505 767.594 11.8203L763.867 15.9609V17H771.32ZM780.242 8.55469C779.711 8.55469 779.25 8.82031 778.641 9.53125C778.008 10.2422 777.586 10.9922 777.289 11.6719L777.109 10.0234C776.977 8.90625 776.531 8.55469 775.781 8.55469C775.086 8.55469 774.414 8.90625 773.953 10.1875L773.555 11.3516H773.859L774.062 10.7578C774.5 9.54688 774.82 9.28906 775.141 9.28906C775.406 9.28906 775.602 9.46094 775.68 10.0234L776.023 13.1094C775.586 14.1328 774.828 15.3906 773.891 16.25C773.68 16.0859 773.359 15.8672 772.883 15.8672C772.398 15.8672 772.047 16.2344 772.047 16.6328C772.047 17 772.289 17.2266 772.773 17.2266C773.266 17.2266 773.742 16.9062 774.383 16.2344C775.234 15.3281 775.75 14.4297 776.086 13.6719L776.32 15.75C776.453 16.875 776.992 17.2266 777.648 17.2266C778.336 17.2266 779.008 16.875 779.477 15.5938L779.875 14.4219H779.57L779.359 15.0156C778.93 16.2344 778.609 16.4844 778.289 16.4844C778.016 16.4844 777.828 16.3125 777.742 15.75L777.367 12.3281C777.719 11.4141 778.266 10.2812 779.086 9.53125C779.281 9.6875 779.617 9.91406 780.102 9.91406C780.609 9.91406 780.945 9.54688 780.945 9.14062C780.945 8.77344 780.641 8.55469 780.242 8.55469Z" fill="#1d5392"/>
<line x1="756" y1="0.5" x2="304" y2="0.5" stroke="#1d5392" stroke-linejoin="round" stroke-dasharray="2 4"/>
<line x1="756" y1="38.5" x2="263" y2="38.5" stroke="#1d5392" stroke-linejoin="round" stroke-dasharray="2 4"/>
</svg>
