<svg xmlns="http://www.w3.org/2000/svg" viewBox="0 0 841.88976 467.71654"><defs><style>.cls-1{fill:#1d5493;}.cls-2{fill:#ddddde;}.cls-3{fill:#fff;}.cls-4{fill:#54575c;}.cls-5{fill:#ba3932;}</style></defs><g id="Layer_3" data-name="Layer 3"><rect class="cls-1" x="2.57467" y="-0.30295" width="245.82285" height="471.03399"/><rect class="cls-2" x="305.42613" y="81.75353" width="334.36247" height="308.33977"/><polygon class="cls-1" points="306.284 382.843 633.574 304.128 632.538 385.95 306.284 382.843"/><path class="cls-3" d="M289.71215,63.83864V398.37915H650.57078V63.83864ZM339.655,381.77614H312.70991q13.85274-6.588,26.94505-13.348Zm32.09737,0H345.4387V365.42156q13.55787-7.11063,26.31363-14.36648Zm32.09747,0H377.53607v-34.036q13.60694-7.87043,26.31373-15.85841Zm32.09737,0H409.63354V328.21161q13.67666-8.75236,26.31363-17.57913Zm32.09737,0H441.73091v-75.222q13.77216-9.797,26.31363-19.59477Zm32.09746,0H473.82828V282.4033q13.90926-11.07449,26.31372-22.01821Zm32.09737,0H505.92574V255.24q14.12241-12.71437,26.31363-25.04459Zm32.09737,0H538.02311V224.29239c9.6741-10.0072,18.42237-19.734,26.31363-29.065Zm32.09747,0H570.12048V188.27629c10.30875-12.59918,19.017-24.385,26.31373-35.056Zm31.90256,0H602.218V144.55289C621.86722,114.3553,629.163,95.068,629.163,95.068Z"/><path class="cls-4" d="M534.33961,378.27637H507.02614V251.01758l.165-.14844c9.0625-8.16016,17.90918-16.58008,26.29394-25.02588l.85449-.86133Zm-26.31347-1h25.31347V227.40674c-8.09179,8.11963-16.60254,16.20752-25.31347,24.05615Z"/><path class="cls-4" d="M502.242,378.27637H474.92848V278.16211l.18848-.15039c8.97656-7.14649,17.82324-14.54883,26.29492-22.001l.83008-.73047Zm-26.31348-1H501.242V257.49023c-8.1709,7.16407-16.68262,14.27735-25.31348,21.1543Z"/><path class="cls-4" d="M470.1443,378.27637H442.83082V302.29688l.21-.14942c8.94629-6.36523,17.79395-12.95312,26.2959-19.582l.80762-.62891Zm-26.31348-1H469.1443V283.98242c-8.19922,6.374-16.71,12.7041-25.31348,18.83008Z"/><path class="cls-4" d="M438.04664,378.27637H410.73317V323.93848l.23047-.14746c8.93847-5.71973,17.78613-11.63086,26.29687-17.56836l.78613-.54786Zm-26.31347-1h25.31347V307.59082c-8.207,5.709-16.71777,11.38965-25.31347,16.89453Z"/><path class="cls-4" d="M341.75465,378.27637H312.0945l2.001-.95117c8.97656-4.26954,18.03711-8.75782,26.92969-13.34082l.72949-.376Zm-25.23535-1h24.23535V365.24805C332.74586,369.36719,324.60524,373.40723,316.5193,377.27637Z"/><path class="cls-4" d="M373.85231,378.27637H346.53883V361.11914l.26758-.13965c8.86133-4.64746,17.709-9.47851,26.29883-14.3584l.74707-.4248Zm-26.31348-1h25.31348V347.91406c-8.27832,4.69239-16.78906,9.33594-25.31348,13.81055Z"/><path class="cls-4" d="M405.95,378.27637H378.63649V343.45215l.25-.14453c8.94922-5.17676,17.79687-10.50879,26.29785-15.84961l.76562-.48047Zm-26.31347-1H404.95V328.78613c-8.19628,5.13575-16.707,10.26075-25.31347,15.24219Z"/><path class="cls-4" d="M598.534,378.27637H571.22047V184.09766l.11328-.1377c9.45313-11.5542,18.29786-23.3374,26.28711-35.022l.91309-1.335Zm-26.31348-1H597.534V150.83252c-7.7334,11.2251-16.24219,22.52832-25.31348,33.62207Z"/><path class="cls-4" d="M566.43629,378.27637H539.12282v-158.186l.14062-.14551c9.18164-9.49707,18.02734-19.26757,26.291-29.04l.88183-1.043Zm-26.31347-1h25.31347v-184.686c-7.98242,9.39307-16.49218,18.77344-25.31347,27.9043Z"/><path class="cls-4" d="M630.43532,378.27637H603.31813V140.40479l.08105-.12452c19.3877-29.79638,26.82325-49.19629,26.89551-49.38867l.97559-2.57861Zm-26.11719-1h25.11914l.81738-283.65381c-2.57422,6.0498-10.44238,23.24853-25.93652,47.0791Z"/><path class="cls-5" d="M640.31715,213.916c-4.64258-46.42334-95.8623-62.769-171.56836-68.30664-82.55664-6.0376-165.082-.79688-165.90625-.74317l-.19531-2.99414c.82617-.05322,83.53027-5.30762,166.294.74316,48.6748,3.55909,87.86914,10.27686,116.49414,19.96729,36.2373,12.26758,55.707,29.43848,57.86621,51.03467Z"/><path class="cls-4" d="M671.42067,200.94092a5.8851,5.8851,0,0,1,1.71972.88379,5.03732,5.03732,0,0,1,1.24414,1.32959,4.42905,4.42905,0,0,1,.63672,1.65332.70188.70188,0,0,1,.02832.39892.2521.2521,0,0,1-.21777.11377l-2.56543.17139c-.11426,0-.1875-.022-.21875-.0669a.67982.67982,0,0,1-.085-.21826,3.2775,3.2775,0,0,0-.81738-1.62451,2.2274,2.2274,0,0,0-1.69141-.63672,2.58093,2.58093,0,0,0-2.23242,1.1499,6.60643,6.60643,0,0,0-.80664,3.71436,6.82635,6.82635,0,0,0,.76855,3.69531,2.5937,2.5937,0,0,0,2.3086,1.14942,3.26049,3.26049,0,0,0,1.90039-.55078,3.90991,3.90991,0,0,0,1.31054-1.88086q.07619-.17139.418-.11426l1.86231.39892a.31381.31381,0,0,1,.1709.1045q.07617.0857.03808.3706a4.21391,4.21391,0,0,1-.37012.93115,6.45916,6.45916,0,0,1-.73144,1.09229,5.61455,5.61455,0,0,1-1.13086,1.03564,5.9064,5.9064,0,0,1-1.56738.76954,6.486,6.486,0,0,1-2.03321.29443,6.17969,6.17969,0,0,1-3.41015-.93115,6.04916,6.04916,0,0,1-2.23242-2.584,8.90573,8.90573,0,0,1-.7793-3.83789,8.52005,8.52005,0,0,1,.7793-3.79053,5.78,5.78,0,0,1,2.22265-2.46045,6.4799,6.4799,0,0,1,3.41992-.874A6.60077,6.60077,0,0,1,671.42067,200.94092Z"/><path class="cls-4" d="M678.906,214.44043a4.70175,4.70175,0,0,1-1.79492-1.8335,5.42363,5.42363,0,0,1-.64649-2.66943,5.5654,5.5654,0,0,1,.665-2.76465,4.79933,4.79933,0,0,1,1.82422-1.85254,5.58119,5.58119,0,0,1,5.30078.00977,4.69783,4.69783,0,0,1,1.77637,1.86181,5.67828,5.67828,0,0,1,.63672,2.72657,5.47363,5.47363,0,0,1-.64551,2.68847,4.71756,4.71756,0,0,1-1.7959,1.8335,5.65276,5.65276,0,0,1-5.32031,0Zm3.84766-1.64355a2.22639,2.22639,0,0,0,.71289-1.11133,5.97307,5.97307,0,0,0,.2373-1.80518,6.1049,6.1049,0,0,0-.2373-1.85254,2.28673,2.28673,0,0,0-.71289-1.11133,2.002,2.002,0,0,0-2.34668,0,2.31058,2.31058,0,0,0-.73145,1.11133,5.86966,5.86966,0,0,0-.24707,1.85254,5.72023,5.72023,0,0,0,.24707,1.81445,2.24881,2.24881,0,0,0,.73145,1.10206,2.04271,2.04271,0,0,0,2.34668,0Z"/><path class="cls-4" d="M696.57692,200.94092a5.8851,5.8851,0,0,1,1.71972.88379,5.03732,5.03732,0,0,1,1.24414,1.32959,4.42905,4.42905,0,0,1,.63672,1.65332.70188.70188,0,0,1,.02832.39892.2521.2521,0,0,1-.21777.11377l-2.56543.17139c-.11426,0-.1875-.022-.21875-.0669a.67982.67982,0,0,1-.085-.21826,3.2775,3.2775,0,0,0-.81738-1.62451,2.2274,2.2274,0,0,0-1.69141-.63672,2.58093,2.58093,0,0,0-2.23242,1.1499,6.60643,6.60643,0,0,0-.80664,3.71436,6.82635,6.82635,0,0,0,.76855,3.69531,2.5937,2.5937,0,0,0,2.3086,1.14942,3.26049,3.26049,0,0,0,1.90039-.55078,3.90991,3.90991,0,0,0,1.31054-1.88086q.07619-.17139.418-.11426l1.86231.39892a.31381.31381,0,0,1,.1709.1045q.07617.0857.03808.3706a4.21391,4.21391,0,0,1-.37012.93115,6.45916,6.45916,0,0,1-.73144,1.09229,5.61455,5.61455,0,0,1-1.13086,1.03564,5.9064,5.9064,0,0,1-1.56738.76954,6.486,6.486,0,0,1-2.03321.29443,6.17969,6.17969,0,0,1-3.41015-.93115,6.04916,6.04916,0,0,1-2.23242-2.584,8.90573,8.90573,0,0,1-.7793-3.83789,8.52005,8.52005,0,0,1,.7793-3.79053,5.78,5.78,0,0,1,2.22265-2.46045,6.4799,6.4799,0,0,1,3.41992-.874A6.60077,6.60077,0,0,1,696.57692,200.94092Z"/><path class="cls-4" d="M720.05153,204.97852a.32728.32728,0,0,1,0,.30419l-3.09766,9.32862a.488.488,0,0,1-.14258.23779.41176.41176,0,0,1-.25586.06641h-1.55859a.47386.47386,0,0,1-.49414-.36084l-1.63379-5.2251c-.05078-.12647-.10156-.18994-.15137-.18994q-.07617,0-.11426.18994l-1.67187,5.28174a.40424.40424,0,0,1-.124.23779.44943.44943,0,0,1-.27539.06641h-1.61524a.46172.46172,0,0,1-.47461-.36084l-3.05957-9.25293a.37615.37615,0,0,1,.0293-.32324.30263.30263,0,0,1,.27539-.13282h2.22266a.44568.44568,0,0,1,.25683.08545.39527.39527,0,0,1,.16113.23731l1.69141,5.37695c.02539.11426.06641.1709.123.1709.05761,0,.10449-.063.14258-.18994l1.63378-5.377a.40615.40615,0,0,1,.15235-.21826.429.429,0,0,1,.26562-.08545h1.59668a.4428.4428,0,0,1,.25586.08545.32279.32279,0,0,1,.14258.23731l1.65332,5.37695c.03809.11426.082.1709.13281.1709s.10157-.063.15235-.18994l1.63379-5.377a.76439.76439,0,0,1,.18066-.21826.39013.39013,0,0,1,.25586-.08545h1.44434A.28157.28157,0,0,1,720.05153,204.97852Z"/><path class="cls-4" d="M724.49684,203.1543q0,.47534-.5127.47509h-2.05175a.39863.39863,0,0,1-.333-.11377.53279.53279,0,0,1-.085-.32324v-1.99463q0-.38012.32226-.38037h2.35645q.30322,0,.30371.36133Zm-.03809,11.30517a.46164.46164,0,0,1-.11328.35157.59132.59132,0,0,1-.39941.10449h-1.99512a.33993.33993,0,0,1-.418-.39893v-9.31006q0-.36108.30371-.36084h2.33692q.28565,0,.28515.32276Z"/><path class="cls-4" d="M730.80446,206.85938c-.13965,0-.209.07617-.209.228v4.5791a1.19224,1.19224,0,0,0,.30371.92139,1.41294,1.41294,0,0,0,.96875.27588h1.02637a.25361.25361,0,0,1,.209.09473.354.354,0,0,1,.07618.228l-.01953,1.15918q0,.3611-.418.45606-.34131.03808-.73145.0664-.38964.02858-.77832.03809c-.25976.00635-.51074.00928-.751.00928a3.15454,3.15454,0,0,1-2.05175-.61768,2.2214,2.2214,0,0,1-.75977-1.83349v-5.31983c0-.18994-.083-.28515-.24707-.28515h-1.15918q-.36181,0-.36133-.32276v-1.40625q0-.28491.3418-.28467h1.31152c.11426,0,.17676-.06982.18946-.209l.2666-2.88818q.019-.323.28515-.32325H730.367q.30468,0,.30468.36133v2.8501a.16748.16748,0,0,0,.18946.18994h1.99511q.34131,0,.3418.30371v1.40625q0,.323-.37988.32276Z"/><path class="cls-4" d="M734.79469,214.53564V201.17871c0-.24072.10059-.36133.30371-.36133h2.28028q.28418,0,.28418.32324v4.86377c0,.07618.01953.12354.05761.14258s.09473-.00293.1709-.0664a6.7761,6.7761,0,0,1,1.11133-.83594,4.37366,4.37366,0,0,1,1.04492-.44678,4.00565,4.00565,0,0,1,1.05469-.14209,2.96532,2.96532,0,0,1,2.22265.79785,3.07332,3.07332,0,0,1,.7793,2.2417v6.76416a.40316.40316,0,0,1-.45605.45606h-2.10938a.379.379,0,0,1-.27539-.08545.41037.41037,0,0,1-.085-.29444v-6.42187a1.21622,1.21622,0,0,0-1.36816-1.34912,2.03728,2.03728,0,0,0-.74121.13281,2.59391,2.59391,0,0,0-.665.38965,5.79052,5.79052,0,0,0-.6836.65527v6.53614q0,.43725-.49414.437h-2.0332Q734.79469,214.91553,734.79469,214.53564Z"/><path class="cls-4" d="M751.657,200.81738h2.42187q.56982,0,.89356.019a9.44765,9.44765,0,0,1,4.21777.93115,5.59824,5.59824,0,0,1,2.44141,2.40332,7.852,7.852,0,0,1,.78808,3.63867,8.13873,8.13873,0,0,1-.82617,3.77148,5.6333,5.6333,0,0,1-2.50781,2.47022,9.15649,9.15649,0,0,1-4.209.86426h-4.123q-.43653,0-.43653-.45606V201.21631a.41175.41175,0,0,1,.09473-.31348.48391.48391,0,0,1,.32324-.08545Zm1.98535,2.62207v8.87305c0,.17773.082.26611.24707.26611h.36035a6.40154,6.40154,0,0,0,2.60351-.46582,3.136,3.136,0,0,0,1.56739-1.51025,7.66327,7.66327,0,0,0,.03808-5.4624,3.06053,3.06053,0,0,0-1.48242-1.4917,5.90934,5.90934,0,0,0-2.53613-.4751h-.6084C753.70485,203.17334,753.64235,203.26221,753.64235,203.43945Z"/><path class="cls-4" d="M767.198,211.98a2.26765,2.26765,0,0,0,.89356.83594,2.66419,2.66419,0,0,0,1.26269.29443,2.74447,2.74447,0,0,0,1.26367-.29443,3.97283,3.97283,0,0,0,1.16895-.97852.27433.27433,0,0,1,.13281-.08545.43627.43627,0,0,1,.209.06641l1.36816.57031c.17676.07569.19629.20264.05664.37988a6.23813,6.23813,0,0,1-1.27246,1.38721,4.18439,4.18439,0,0,1-1.47266.73145,6.96427,6.96427,0,0,1-1.81445.21826,5.3329,5.3329,0,0,1-2.6416-.646,4.7913,4.7913,0,0,1-1.833-1.79541,5.09643,5.09643,0,0,1-.6748-2.63135,5.60832,5.60832,0,0,1,.69336-2.84082,4.97,4.97,0,0,1,1.85253-1.87158,5.34616,5.34616,0,0,1,5.11133-.02832,4.53894,4.53894,0,0,1,1.73828,1.81446,5.96044,5.96044,0,0,1,.63672,2.86914,1.06168,1.06168,0,0,1-.03808.32275c-.02539.07617-.12012.12061-.28516.1333h-6.46a.2006.2006,0,0,0-.1709.07568.37838.37838,0,0,0-.05664.228A2.32929,2.32929,0,0,0,767.198,211.98Zm3.48633-3.14453a.47508.47508,0,0,0,.2666-.04736c.03809-.03174.05664-.1045.05664-.21875a2.38814,2.38814,0,0,0-.21875-.96875,2.11426,2.11426,0,0,0-.64551-.82666,1.73091,1.73091,0,0,0-1.09277-.33252,2.0955,2.0955,0,0,0-1.12109.3042,2.00627,2.00627,0,0,0-.75977.84521,2.73891,2.73891,0,0,0-.26562,1.22559Z"/><path class="cls-4" d="M775.87282,214.91553a.47884.47884,0,0,1-.34278-.09522.44583.44583,0,0,1-.09472-.32275V201.17871q0-.36108.30371-.36133h2.33691q.28565,0,.28516.34229v4.42676c0,.15234.03515.23144.10449.23779a.34133.34133,0,0,0,.23828-.10449,4.1676,4.1676,0,0,1,.69336-.52246,3.85912,3.85912,0,0,1,.88281-.38965,3.66049,3.66049,0,0,1,1.083-.15186,3.58639,3.58639,0,0,1,2.17578.646,3.9753,3.9753,0,0,1,1.33985,1.80469,7.40754,7.40754,0,0,1,.45605,2.71728,6.08338,6.08338,0,0,1-1.12109,3.84717,3.83562,3.83562,0,0,1-3.21094,1.43457,3.55546,3.55546,0,0,1-1.26367-.21826,3.40064,3.40064,0,0,1-1.00684-.57959,5.32186,5.32186,0,0,1-.73144-.74121c-.05079-.063-.09864-.0918-.14258-.08545-.04492.00683-.07324.0542-.08594.14258l-.22754.9121a.429.429,0,0,1-.4375.37989Zm2.48828-3.477a1.79928,1.79928,0,0,0,.2666.98828,1.90686,1.90686,0,0,0,1.63379.89258,1.83468,1.83468,0,0,0,1.10156-.3418,2.15815,2.15815,0,0,0,.73145-1.11133,6.454,6.454,0,0,0,.25683-2.00488,4.85347,4.85347,0,0,0-.51269-2.5459,1.67408,1.67408,0,0,0-1.501-.79785,2.22329,2.22329,0,0,0-1.10254.27539,3.1101,3.1101,0,0,0-.874.73144Z"/><path class="cls-4" d="M790.91969,206.85938c-.13965,0-.209.07617-.209.228v4.5791a1.1922,1.1922,0,0,0,.30371.92139,1.41294,1.41294,0,0,0,.96875.27588h1.02636a.25363.25363,0,0,1,.209.09473.354.354,0,0,1,.07617.228l-.01953,1.15918q0,.3611-.418.45606-.34131.03808-.73144.0664-.38966.02858-.77832.03809c-.25977.00635-.51075.00928-.751.00928a3.15455,3.15455,0,0,1-2.05176-.61768,2.22142,2.22142,0,0,1-.75976-1.83349v-5.31983c0-.18994-.083-.28515-.24707-.28515h-1.15918q-.36183,0-.36133-.32276v-1.40625q0-.28491.34179-.28467h1.31153c.11426,0,.17676-.06982.18945-.209l.2666-2.88818q.019-.323.28516-.32325h2.07031q.3047,0,.30469.36133v2.8501a.16748.16748,0,0,0,.18945.18994h1.99512q.34131,0,.3418.30371v1.40625q0,.323-.37989.32276Z"/><path class="cls-1" d="M664.89039,354.36426a5.70922,5.70922,0,0,1-2.251-2.47949,9.77213,9.77213,0,0,1,.01855-7.73243,5.92942,5.92942,0,0,1,2.27051-2.51757,7.11557,7.11557,0,0,1,6.86914,0,5.8947,5.8947,0,0,1,2.251,2.50781,9.80013,9.80013,0,0,1,.00976,7.72363,5.774,5.774,0,0,1-2.25195,2.48926,6.58113,6.58113,0,0,1-3.43848.874A6.707,6.707,0,0,1,664.89039,354.36426Zm5.75782-2.60254a7.14117,7.14117,0,0,0,.72168-3.69531,7.53683,7.53683,0,0,0-.73145-3.80957,2.47708,2.47708,0,0,0-2.27051-1.1875,2.51118,2.51118,0,0,0-2.29882,1.19628,7.46371,7.46371,0,0,0-.74122,3.80079,7.06268,7.06268,0,0,0,.73145,3.68554,2.54245,2.54245,0,0,0,2.30859,1.13965A2.508,2.508,0,0,0,670.64821,351.76172Z"/><path class="cls-1" d="M679.69215,345.34863v.57032c0,.07617.02539.11718.07617.124a.27663.27663,0,0,0,.18946-.08594,6.61681,6.61681,0,0,1,.6748-.55078,3.46619,3.46619,0,0,1,.88379-.44629,3.9523,3.9523,0,0,1,3.21094.37988,3.80641,3.80641,0,0,1,1.38672,1.69043,7.05188,7.05188,0,0,1,.51269,2.89746,7.32314,7.32314,0,0,1-.53222,3.002,3.79583,3.79583,0,0,1-1.44336,1.73926,3.8829,3.8829,0,0,1-2.07129.56054,3.96714,3.96714,0,0,1-1.36817-.22851,3.46158,3.46158,0,0,1-1.17773-.74121c-.12695-.126-.21875-.1836-.27539-.1709-.05762.01269-.08594.1084-.08594.28515v3.47657q0,.32373-.28516.32324h-2.33691c-.20215,0-.30371-.11328-.30371-.3418V345.38672a.36393.36393,0,0,1,.4375-.418h2.08984Q679.69166,344.96875,679.69215,345.34863Zm.79785,7.77149a2.0484,2.0484,0,0,0,2.15625-.08594,2.22907,2.22907,0,0,0,.751-1.12109,6.42479,6.42479,0,0,0,.26563-2.042,5.66917,5.66917,0,0,0-.26563-1.93847,1.95464,1.95464,0,0,0-.751-1.00684,2.01857,2.01857,0,0,0-1.09277-.30371,2.07844,2.07844,0,0,0-.959.21875,1.82209,1.82209,0,0,0-.67481.56934,1.26238,1.26238,0,0,0-.24707.73144v4.29492A3.74249,3.74249,0,0,0,680.49,353.12012Z"/><path class="cls-1" d="M692.23219,346.9834c-.13965,0-.209.07519-.209.22754V351.79a1.19412,1.19412,0,0,0,.30371.92187,1.41548,1.41548,0,0,0,.96875.27539H694.322a.25226.25226,0,0,1,.209.09473.35446.35446,0,0,1,.07617.22852l-.01953,1.1582q0,.36182-.418.45605-.34131.0381-.73144.06641-.38966.02929-.77832.03809c-.25977.00683-.51075.00976-.751.00976a3.16,3.16,0,0,1-2.05176-.61718,2.22437,2.22437,0,0,1-.75976-1.834v-5.32031c0-.18946-.083-.28418-.24707-.28418h-1.15918q-.36183,0-.36133-.32324v-1.40625c0-.18946.11426-.28516.34179-.28516h1.31153c.11426,0,.17676-.06934.18945-.209l.2666-2.8877c.0127-.21484.10742-.32324.28516-.32324h2.07031c.20313,0,.30469.12109.30469.36133v2.84961a.16763.16763,0,0,0,.18945.19043H694.284q.34131,0,.3418.30371v1.40625q0,.32373-.37989.32324Z"/><path class="cls-1" d="M699.16578,343.27832q0,.47462-.51269.47461h-2.05176a.39719.39719,0,0,1-.333-.11426.52762.52762,0,0,1-.085-.32226v-1.99512c0-.25391.10742-.37988.32227-.37988h2.35644q.30322,0,.30371.36035ZM699.1277,354.583a.46165.46165,0,0,1-.11328.35156.594.594,0,0,1-.39942.10449h-1.99511a.44043.44043,0,0,1-.332-.09472.44541.44541,0,0,1-.08594-.30469v-9.30957c0-.24024.10156-.36133.30371-.36133h2.33691c.19043,0,.28516.1084.28516.32324Z"/><path class="cls-1" d="M701.23707,354.65918v-9.3291c0-.24024.10157-.36133.30371-.36133h2.28028c.19043,0,.28515.1084.28515.32324v.93067a.15916.15916,0,0,0,.06641.15234q.06592.03809.16113-.07617a9.29161,9.29161,0,0,1,.98828-.79785,4.56005,4.56005,0,0,1,1.04493-.541,3.30448,3.30448,0,0,1,1.14062-.20019,2.93208,2.93208,0,0,1,1.71875.48437,2.58681,2.58681,0,0,1,.97852,1.2832.09874.09874,0,0,0,.10449.06641.26948.26948,0,0,0,.14258-.08594,6.6329,6.6329,0,0,1,.998-.88281,4.92082,4.92082,0,0,1,1.14942-.61816,3.40322,3.40322,0,0,1,1.19629-.22754,2.81234,2.81234,0,0,1,2.11914.8164,3.09461,3.09461,0,0,1,.78808,2.24219V354.583a.403.403,0,0,1-.45605.45605h-2.1084a.37382.37382,0,0,1-.27539-.08594.40356.40356,0,0,1-.08594-.29394V348.2373a1.37479,1.37479,0,0,0-.34179-.998,1.29,1.29,0,0,0-.96875-.35156,1.708,1.708,0,0,0-.70313.15234,3.33332,3.33332,0,0,0-.62695.36133,2.812,2.812,0,0,0-.49414.45605.64713.64713,0,0,0-.1709.25586.93875.93875,0,0,0-.03809.27539V354.583a.40335.40335,0,0,1-.45605.45605h-2.08985a.37382.37382,0,0,1-.27539-.08594.40361.40361,0,0,1-.08593-.29394V348.2373a1.37479,1.37479,0,0,0-.3418-.998,1.3176,1.3176,0,0,0-.98828-.35156,1.94469,1.94469,0,0,0-1.04492.29492,4.54255,4.54255,0,0,0-.98828.88379v6.53613c0,.291-.16407.43652-.49415.43652h-2.03222Q701.23659,355.03906,701.23707,354.65918Z"/><path class="cls-1" d="M722.79274,354.916a4.24057,4.24057,0,0,1-1.68164.31347,3.17611,3.17611,0,0,1-2.27051-.77929,2.62153,2.62153,0,0,1-.82617-1.99512,2.817,2.817,0,0,1,.665-1.86231,4.314,4.314,0,0,1,1.89941-1.24414,9.29359,9.29359,0,0,1,2.94531-.48437l.665-.05762a.39739.39739,0,0,0,.209-.05664.22272.22272,0,0,0,.09472-.209v-.39942a1.50937,1.50937,0,0,0-.418-1.12988,1.64146,1.64146,0,0,0-1.19726-.4082,2.44506,2.44506,0,0,0-1.0918.25586,2.112,2.112,0,0,0-.88379.88378.32614.32614,0,0,1-.13281.1709.51522.51522,0,0,1-.28516,0l-1.90039-.43652a.27609.27609,0,0,1-.16113-.124c-.03223-.05664-.00976-.18067.06641-.37012a3.1438,3.1438,0,0,1,1.64355-1.66309,6.83853,6.83853,0,0,1,2.87891-.541,6.498,6.498,0,0,1,2.50781.39843,2.75292,2.75292,0,0,1,1.34863,1.11231,3.22483,3.22483,0,0,1,.418,1.66211v6.66894a.52543.52543,0,0,1-.07617.32325.34864.34864,0,0,1-.28418.09472h-1.957a.30936.30936,0,0,1-.29492-.15234.92805.92805,0,0,1-.10449-.37988l-.03809-.418c-.02539-.22754-.165-.23438-.418-.01856A4.75279,4.75279,0,0,1,722.79274,354.916Zm1.415-4.6836-.53125.03809a4.84343,4.84343,0,0,0-.98828.1416,3.77766,3.77766,0,0,0-.89356.34277,2.06962,2.06962,0,0,0-.65527.55078,1.22547,1.22547,0,0,0-.25586.76954,1.11356,1.11356,0,0,0,.39844.90234,1.67166,1.67166,0,0,0,1.10253.333,2.20455,2.20455,0,0,0,.84473-.15235,2.2795,2.2795,0,0,0,1.09277-.85547.884.884,0,0,0,.1709-.51269v-1.23535Q724.49293,350.23241,724.20778,350.23242Z"/><path class="cls-1" d="M732.34059,354.583a.45794.45794,0,0,1-.11426.35156.594.594,0,0,1-.39941.10449h-2.01367q-.41748,0-.418-.39941l.05664-13.33789q0-.36036.30469-.36035h2.29882c.18946,0,.28516.11328.28516.34179Z"/><path class="cls-1" d="M746.63746,341.06445a5.89728,5.89728,0,0,1,1.71973.88379,5.03168,5.03168,0,0,1,1.24414,1.33008,4.428,4.428,0,0,1,.63672,1.65234.70357.70357,0,0,1,.02832.39942.2535.2535,0,0,1-.21777.11426l-2.56543.17089c-.11426,0-.1875-.02246-.21875-.0664a.69347.69347,0,0,1-.085-.21875,3.28317,3.28317,0,0,0-.81739-1.625,2.22866,2.22866,0,0,0-1.6914-.63574,2.5805,2.5805,0,0,0-2.23242,1.14941,6.60565,6.60565,0,0,0-.80664,3.71387,6.829,6.829,0,0,0,.76855,3.69629,2.59368,2.59368,0,0,0,2.30859,1.14941,3.26394,3.26394,0,0,0,1.90039-.55078,3.918,3.918,0,0,0,1.31055-1.88184q.07617-.16992.418-.11328l1.8623.39844a.31082.31082,0,0,1,.1709.10449.50574.50574,0,0,1,.03809.3711,4.22128,4.22128,0,0,1-.37012.93066,6.48143,6.48143,0,0,1-.73144,1.09277,5.64152,5.64152,0,0,1-1.13086,1.03516,5.92117,5.92117,0,0,1-1.56739.76953,6.48513,6.48513,0,0,1-2.0332.29492,6.17989,6.17989,0,0,1-3.41016-.93164,6.04635,6.04635,0,0,1-2.23242-2.584,8.90591,8.90591,0,0,1-.77929-3.83789,8.518,8.518,0,0,1,.77929-3.79A5.77847,5.77847,0,0,1,741.156,341.625a6.48433,6.48433,0,0,1,3.41992-.874A6.601,6.601,0,0,1,746.63746,341.06445Z"/><path class="cls-1" d="M754.12282,354.56445a4.703,4.703,0,0,1-1.79493-1.834,5.42585,5.42585,0,0,1-.64648-2.669,5.56147,5.56147,0,0,1,.665-2.76464,4.79262,4.79262,0,0,1,1.82422-1.85254,5.58119,5.58119,0,0,1,5.30078.00878,4.70555,4.70555,0,0,1,1.77637,1.86231,5.67685,5.67685,0,0,1,.63671,2.72656,5.4751,5.4751,0,0,1-.6455,2.68848,4.7188,4.7188,0,0,1-1.7959,1.834,5.65276,5.65276,0,0,1-5.32031,0Zm3.84765-1.64355a2.22939,2.22939,0,0,0,.71289-1.11231,5.96259,5.96259,0,0,0,.23731-1.80468,6.10675,6.10675,0,0,0-.23731-1.85254,2.28892,2.28892,0,0,0-.71289-1.11133,2.002,2.002,0,0,0-2.34668,0,2.31294,2.31294,0,0,0-.73144,1.11133,5.87177,5.87177,0,0,0-.24707,1.85254,5.72238,5.72238,0,0,0,.24707,1.81445,2.24811,2.24811,0,0,0,.73144,1.10254,2.04488,2.04488,0,0,0,2.34668,0Z"/><path class="cls-1" d="M771.79274,341.06445a5.89722,5.89722,0,0,1,1.71972.88379,5.03188,5.03188,0,0,1,1.24415,1.33008,4.428,4.428,0,0,1,.63671,1.65234.70348.70348,0,0,1,.02832.39942.2535.2535,0,0,1-.21777.11426l-2.56543.17089c-.11426,0-.1875-.02246-.21875-.0664a.69347.69347,0,0,1-.085-.21875,3.28324,3.28324,0,0,0-.81738-1.625,2.22868,2.22868,0,0,0-1.69141-.63574,2.5805,2.5805,0,0,0-2.23242,1.14941,6.60565,6.60565,0,0,0-.80664,3.71387,6.82913,6.82913,0,0,0,.76855,3.69629,2.59371,2.59371,0,0,0,2.3086,1.14941,3.264,3.264,0,0,0,1.90039-.55078,3.918,3.918,0,0,0,1.31054-1.88184q.07619-.16992.418-.11328l1.86231.39844a.31086.31086,0,0,1,.1709.10449.50575.50575,0,0,1,.03808.3711,4.22119,4.22119,0,0,1-.37011.93066,6.48212,6.48212,0,0,1-.73145,1.09277,5.64152,5.64152,0,0,1-1.13086,1.03516,5.92125,5.92125,0,0,1-1.56738.76953,6.48524,6.48524,0,0,1-2.03321.29492,6.17988,6.17988,0,0,1-3.41015-.93164,6.04628,6.04628,0,0,1-2.23242-2.584,8.90591,8.90591,0,0,1-.7793-3.83789,8.518,8.518,0,0,1,.7793-3.79,5.77838,5.77838,0,0,1,2.22265-2.46094,6.48433,6.48433,0,0,1,3.41992-.874A6.60106,6.60106,0,0,1,771.79274,341.06445Z"/><path class="cls-4" d="M365.39625,397.43359a3.8363,3.8363,0,0,1-1.68066,1.34571,6.20936,6.20936,0,0,1-2.47266.458h-2.63965a.17121.17121,0,0,0-.19433.19336v4.40039q0,.40431-.457.4043H355.699a.30586.30586,0,0,1-.36914-.35156v-12.373q0-.334.28125-.334h5.27929a7.29087,7.29087,0,0,1,2.57911.43945,4.09107,4.09107,0,0,1,1.85644,1.33789,3.66388,3.66388,0,0,1,.68652,2.28809A3.75886,3.75886,0,0,1,365.39625,397.43359Zm-2.8164-3.25586a1.56108,1.56108,0,0,0-.75684-.58984,3.0609,3.0609,0,0,0-1.126-.19336h-1.95312q-.33545,0-.335.29883v3.00976c0,.22266.082.334.24707.334h2.16406a2.124,2.124,0,0,0,1.47852-.49219,1.73648,1.73648,0,0,0,.5459-1.35547A1.7807,1.7807,0,0,0,362.57985,394.17773Z"/><path class="cls-4" d="M367.7361,404.14746a.35807.35807,0,0,1-.08789-.26367v-8.6416q0-.334.28222-.334h2.0586q.28125,0,.28125.29883v1.03809a.12136.12136,0,0,0,.08008.13183c.05273.01758.10742-.00879.167-.0791a4.29225,4.29225,0,0,1,.80078-.82715,3.84072,3.84072,0,0,1,.92383-.54492,2.36855,2.36855,0,0,1,.89746-.19433c.42187,0,.63379.10058.63379.2998v2.041q0,.2827-.26465.22851a3.43461,3.43461,0,0,0-.65039-.11426q-.33546-.02635-.58106-.02636a1.97782,1.97782,0,0,0-.66015.123,2.1462,2.1462,0,0,0-.625.35254,2.23874,2.23874,0,0,0-.457.49219.994.994,0,0,0-.17579.56348v5.13964c0,.26954-.15332.4043-.458.4043h-1.88282A.38626.38626,0,0,1,367.7361,404.14746Z"/><path class="cls-4" d="M376.68532,403.79492a4.36418,4.36418,0,0,1-1.66309-1.69824,5.0278,5.0278,0,0,1-.59766-2.47266,5.159,5.159,0,0,1,.61524-2.56054,4.44619,4.44619,0,0,1,1.69043-1.71582,5.16617,5.16617,0,0,1,4.91015.00879,4.364,4.364,0,0,1,1.64551,1.7246,5.26858,5.26858,0,0,1,.58887,2.5254,5.06458,5.06458,0,0,1-.59766,2.49023,4.37085,4.37085,0,0,1-1.66308,1.69824,5.23578,5.23578,0,0,1-4.92871,0Zm3.56445-1.52148a2.06716,2.06716,0,0,0,.66016-1.03028,5.52977,5.52977,0,0,0,.21972-1.67187,5.65994,5.65994,0,0,0-.21972-1.71582,2.1178,2.1178,0,0,0-.66016-1.0293,1.85177,1.85177,0,0,0-2.17383,0,2.13349,2.13349,0,0,0-.67773,1.0293,5.456,5.456,0,0,0-.22852,1.71582,5.31324,5.31324,0,0,0,.22852,1.68066,2.08117,2.08117,0,0,0,.67773,1.02149,1.89465,1.89465,0,0,0,2.17383,0Z"/><path class="cls-4" d="M391.61012,404.15625a.30777.30777,0,0,1-.11426-.27246v-.49317c0-.082-.02441-.1289-.07031-.14062a.21571.21571,0,0,0-.17676.07031,6.66513,6.66513,0,0,1-.63281.51953,3.04881,3.04881,0,0,1-.82715.41309,3.51844,3.51844,0,0,1-1.10937.1582,3.456,3.456,0,0,1-1.90039-.52734,3.53085,3.53085,0,0,1-1.30274-1.59277,6.51144,6.51144,0,0,1-.47461-2.64942,5.98982,5.98982,0,0,1,.51856-2.57812,4.26033,4.26033,0,0,1,1.39941-1.71582,3.3077,3.3077,0,0,1,1.93555-.61621,3.21317,3.21317,0,0,1,1.25.22949,3.60786,3.60786,0,0,1,1.05566.70312c.09375.07129.167.09766.22071.08008.05273-.01758.0791-.09082.0791-.2207v-4.03028q0-.31639.28125-.3164h2.14746q.28125,0,.28125.334v12.35547a.38523.38523,0,0,1-.08789.28125.447.447,0,0,1-.31739.08789H391.865A.43762.43762,0,0,1,391.61012,404.15625Zm-.93262-7.46191a1.83943,1.83943,0,0,0-.90625-.22071,1.78912,1.78912,0,0,0-1.04785.32617,2.06537,2.06537,0,0,0-.72168,1.01172,5.2543,5.2543,0,0,0-.25488,1.79493,5.32412,5.32412,0,0,0,.25488,1.81347,2.00715,2.00715,0,0,0,.7041.99414,1.77965,1.77965,0,0,0,1.03028.30762,1.70068,1.70068,0,0,0,.87988-.22852,1.82231,1.82231,0,0,0,.61523-.58105,1.33572,1.33572,0,0,0,.2295-.73926v-3.83594A3.175,3.175,0,0,0,390.6775,396.69434Z"/><path class="cls-4" d="M400.99,402.167a3.79162,3.79162,0,0,0,.88868-.74707V395.3125q0-.40429.458-.4043h1.90039a.327.327,0,0,1,.37012.36914L404.572,403.919c0,.21093-.09472.3164-.28222.3164h-2.09375c-.17676,0-.26465-.09961-.26465-.29883v-.8623c0-.07129-.01758-.11524-.05273-.13281s-.082.0039-.14063.06152a4.86945,4.86945,0,0,1-1.46973,1.083,3.78319,3.78319,0,0,1-1.55761.32519,2.8165,2.8165,0,0,1-1.38086-.334,2.40021,2.40021,0,0,1-.959-.97656,3.11494,3.11494,0,0,1-.35254-1.52247v-6.248a.3732.3732,0,0,1,.42286-.42188h1.95312q.334,0,.334.36914v5.91309a1.28285,1.28285,0,0,0,.32618.92383,1.18573,1.18573,0,0,0,.90625.34375A1.96149,1.96149,0,0,0,400.99,402.167Z"/><path class="cls-4" d="M412.72926,395.12793a3.94364,3.94364,0,0,1,1.31055,1.01172,3.85041,3.85041,0,0,1,.72168,1.26758q.123.35155-.21094.36914l-1.84766.17578a.24.24,0,0,1-.26464-.19336,4.503,4.503,0,0,0-.35157-.61621,1.60528,1.60528,0,0,0-.47558-.457,1.377,1.377,0,0,0-.73828-.17578,1.74633,1.74633,0,0,0-1.05664.334,2.14831,2.14831,0,0,0-.7129,1.01172,5.8951,5.8951,0,0,0,.00879,3.458,2.12424,2.12424,0,0,0,.748,1.02148,1.98122,1.98122,0,0,0,1.15332.334,1.75913,1.75913,0,0,0,1.22266-.4043,4.5987,4.5987,0,0,0,.85351-1.0918.22415.22415,0,0,1,.10547-.10547.4096.4096,0,0,1,.19434.01758l1.30176.29883q.19335.0542.123.335a4.61959,4.61959,0,0,1-.43945.8623,3.80038,3.80038,0,0,1-.7832.87989,4.21417,4.21417,0,0,1-1.17969.67773,4.44481,4.44481,0,0,1-1.62793.27246,4.7453,4.7453,0,0,1-2.41113-.60742,4.38883,4.38883,0,0,1-1.66309-1.68945,5.04225,5.04225,0,0,1-.60645-2.50781,5.12218,5.12218,0,0,1,.61524-2.543,4.48872,4.48872,0,0,1,1.67187-1.71582,4.66739,4.66739,0,0,1,2.39356-.61621A4.34788,4.34788,0,0,1,412.72926,395.12793Z"/><path class="cls-4" d="M419.84743,396.77344q-.19336,0-.19336.21094v4.24121a1.10662,1.10662,0,0,0,.28125.85351,1.30843,1.30843,0,0,0,.89746.25586h.95019a.23729.23729,0,0,1,.19434.08789.32723.32723,0,0,1,.07031.21094L422.03,403.707c0,.22363-.12988.36426-.38769.42285-.21094.02344-.4375.04395-.67774.06153s-.48047.02929-.7207.03515q-.36182.00879-.69531.00879a2.92429,2.92429,0,0,1-1.90137-.57226,2.06019,2.06019,0,0,1-.7041-1.69825v-4.92773q0-.26367-.22852-.26367h-1.07324q-.33544,0-.335-.29981v-1.30175c0-.17579.10645-.26368.31738-.26368h1.21387c.10547,0,.16406-.06445.17676-.19433l.24609-2.67481q.01758-.29883.26367-.29883h1.91895q.28125,0,.28125.334v2.63965a.15567.15567,0,0,0,.17578.17675h1.84766q.31786,0,.31738.28126v1.30175q0,.3003-.35254.29981Z"/><path class="cls-4" d="M438.00172,404.09473a.273.273,0,0,1-.25586.14062H435.159a.37681.37681,0,0,1-.38672-.3164l-1.90137-4.92774q-.10546-.24756-.49218-.24707H430.7068a.18224.18224,0,0,0-.168.07031.2417.2417,0,0,0-.04394.123v4.875q0,.42335-.47461.42285h-2.23535a.30587.30587,0,0,1-.36915-.35156v-12.373q0-.334.28125-.334h5.49122a6.2486,6.2486,0,0,1,3.66894.93262,3.06714,3.06714,0,0,1,1.31152,2.65722,3.69027,3.69027,0,0,1-.335,1.60156,3.47425,3.47425,0,0,1-.87988,1.1709,3.73992,3.73992,0,0,1-1.19629.69532c-.10547.03515-.12988.123-.07031.26367l2.32324,5.26172A.39268.39268,0,0,1,438.00172,404.09473Zm-3.55566-7.8584a1.51672,1.51672,0,0,0,.53711-1.25781,1.57526,1.57526,0,0,0-.5459-1.30274,2.2312,2.2312,0,0,0-1.44336-.44043h-2.16406c-.22364,0-.335.10059-.335.29981v2.833c0,.2002.082.29981.24707.29981H432.906A2.40257,2.40257,0,0,0,434.44606,396.23633Z"/><path class="cls-4" d="M441.96071,401.5166a2.11267,2.11267,0,0,0,.82812.77442,2.4758,2.4758,0,0,0,1.16992.27246,2.54685,2.54685,0,0,0,1.16993-.27246,3.69632,3.69632,0,0,0,1.083-.90723.26732.26732,0,0,1,.123-.0791.41126.41126,0,0,1,.19336.06152l1.26758.52832q.24609.10547.05273.35254a5.75439,5.75439,0,0,1-1.17969,1.28418,3.85043,3.85043,0,0,1-1.36328.67773,6.45111,6.45111,0,0,1-1.68066.20215,4.92908,4.92908,0,0,1-2.44629-.59863,4.4464,4.4464,0,0,1-1.69922-1.66309,4.7259,4.7259,0,0,1-.624-2.4375,5.194,5.194,0,0,1,.6416-2.63086,4.60107,4.60107,0,0,1,1.7168-1.73339,4.94562,4.94562,0,0,1,4.73339-.02637,4.19463,4.19463,0,0,1,1.61036,1.68066,5.5193,5.5193,0,0,1,.58984,2.65723.99119.99119,0,0,1-.03516.2998q-.03515.10548-.26367.123H441.864a.18516.18516,0,0,0-.15821.07031.34976.34976,0,0,0-.05273.21094A2.16233,2.16233,0,0,0,441.96071,401.5166Zm3.22949-2.91308a.43972.43972,0,0,0,.24707-.04395q.05274-.044.05273-.20215a2.21042,2.21042,0,0,0-.20214-.89746,1.96528,1.96528,0,0,0-.59864-.76562,1.6011,1.6011,0,0,0-1.01172-.3086,1.946,1.946,0,0,0-1.03906.28223,1.86406,1.86406,0,0,0-.7041.7832,2.54218,2.54218,0,0,0-.24609,1.13477Z"/><path class="cls-4" d="M452.31813,403.8125a.42613.42613,0,0,1-.10645.32617.54712.54712,0,0,1-.36914.09668h-1.86523q-.38818,0-.3877-.36914l.05274-12.35547q0-.334.28222-.334h2.12891c.17578,0,.26465.10547.26465.3164Z"/><path class="cls-4" d="M456.95485,401.5166a2.11267,2.11267,0,0,0,.82812.77442,2.47583,2.47583,0,0,0,1.16992.27246,2.54685,2.54685,0,0,0,1.16993-.27246,3.69632,3.69632,0,0,0,1.083-.90723.26732.26732,0,0,1,.123-.0791.41126.41126,0,0,1,.19336.06152l1.26758.52832q.24609.10547.05273.35254a5.7546,5.7546,0,0,1-1.17968,1.28418,3.85056,3.85056,0,0,1-1.36329.67773,6.45111,6.45111,0,0,1-1.68066.20215,4.92908,4.92908,0,0,1-2.44629-.59863,4.4464,4.4464,0,0,1-1.69922-1.66309,4.7259,4.7259,0,0,1-.624-2.4375,5.194,5.194,0,0,1,.6416-2.63086,4.60107,4.60107,0,0,1,1.7168-1.73339,4.94564,4.94564,0,0,1,4.7334-.02637,4.19467,4.19467,0,0,1,1.61035,1.68066,5.5193,5.5193,0,0,1,.58984,2.65723.99119.99119,0,0,1-.03516.2998q-.03514.10548-.26367.123h-5.98437a.18517.18517,0,0,0-.15821.07031.34976.34976,0,0,0-.05273.21094A2.16233,2.16233,0,0,0,456.95485,401.5166Zm3.22949-2.91308a.43972.43972,0,0,0,.24707-.04395q.05274-.044.05273-.20215a2.21042,2.21042,0,0,0-.20214-.89746,1.96528,1.96528,0,0,0-.59864-.76562,1.6011,1.6011,0,0,0-1.01172-.3086,1.946,1.946,0,0,0-1.03906.28223,1.86406,1.86406,0,0,0-.7041.7832,2.54218,2.54218,0,0,0-.24609,1.13477Z"/><path class="cls-4" d="M468.3777,404.12109a3.92843,3.92843,0,0,1-1.55762.29,2.94332,2.94332,0,0,1-2.10351-.72168,2.42773,2.42773,0,0,1-.76563-1.84765,2.61017,2.61017,0,0,1,.61621-1.72461,3.99077,3.99077,0,0,1,1.75977-1.15235,8.59013,8.59013,0,0,1,2.72851-.44922l.61524-.05273a.37226.37226,0,0,0,.19433-.05273.20659.20659,0,0,0,.08789-.19336v-.37012a1.398,1.398,0,0,0-.38769-1.04688,1.52225,1.52225,0,0,0-1.1084-.3789,2.25793,2.25793,0,0,0-1.01172.23828,1.95029,1.95029,0,0,0-.81836.81836.30329.30329,0,0,1-.123.1582.48149.48149,0,0,1-.26465,0l-1.75977-.40527a.253.253,0,0,1-.14941-.11426q-.044-.07909.06152-.34277a2.91094,2.91094,0,0,1,1.52246-1.54,6.32974,6.32974,0,0,1,2.666-.502,5.9976,5.9976,0,0,1,2.32324.37011,2.54478,2.54478,0,0,1,1.249,1.0293,2.98187,2.98187,0,0,1,.3877,1.54v6.17773a.48655.48655,0,0,1-.07031.29883.32383.32383,0,0,1-.26368.08789h-1.81347a.28636.28636,0,0,1-.27246-.14062.85851.85851,0,0,1-.09668-.35254l-.03516-.38672q-.03516-.31641-.38769-.01758A4.39828,4.39828,0,0,1,468.3777,404.12109Zm1.31055-4.33789-.49219.03516a4.46736,4.46736,0,0,0-.915.13184,3.45089,3.45089,0,0,0-.82715.3164,1.91128,1.91128,0,0,0-.60742.51074,1.13383,1.13383,0,0,0-.23731.71289,1.0317,1.0317,0,0,0,.36914.83594,1.54873,1.54873,0,0,0,1.02051.30762,2.04806,2.04806,0,0,0,.78321-.14063,2.41382,2.41382,0,0,0,.58984-.335,2.54007,2.54007,0,0,0,.42285-.457.82323.82323,0,0,0,.1582-.47558V400.082C469.95289,399.88281,469.865,399.7832,469.68825,399.7832Z"/><path class="cls-4" d="M479.43825,396.668a2.55594,2.55594,0,0,0-1.249-.28223,2.19986,2.19986,0,0,0-1.10058.25586.77461.77461,0,0,0-.44825.69531.6468.6468,0,0,0,.17579.43067,1.68018,1.68018,0,0,0,.80957.36035l2.02441.49316a3.63968,3.63968,0,0,1,2.07617,1.09082,2.61552,2.61552,0,0,1,.61621,1.69043,2.50472,2.50472,0,0,1-.53711,1.61914,3.40029,3.40029,0,0,1-1.4873,1.0293,6.1263,6.1263,0,0,1-2.18164.36035,5.82367,5.82367,0,0,1-2.65821-.55371,3.38908,3.38908,0,0,1-1.53027-1.38183.47042.47042,0,0,1-.07129-.23731.17581.17581,0,0,1,.10645-.168l1.19629-.61523a.574.574,0,0,1,.27246-.08008.24656.24656,0,0,1,.168.09766,3.69959,3.69959,0,0,0,.54492.59765,2.34677,2.34677,0,0,0,.792.44922,3.40594,3.40594,0,0,0,1.19727.14942,3.2087,3.2087,0,0,0,.88867-.11426,1.48277,1.48277,0,0,0,.625-.334.69975.69975,0,0,0,.22851-.51953.67777.67777,0,0,0-.24609-.51953,2.20656,2.20656,0,0,0-.916-.37793l-1.8125-.38769a4.19648,4.19648,0,0,1-1.99707-.94141,2.20723,2.20723,0,0,1-.67773-1.68066,2.75359,2.75359,0,0,1,.46582-1.584,3.11929,3.11929,0,0,1,1.36426-1.082,5.28617,5.28617,0,0,1,2.14746-.39648,5.08741,5.08741,0,0,1,2.31445.49316,3.35562,3.35562,0,0,1,1.39844,1.17871.847.847,0,0,1,.10547.2207q.03516.11427-.123.20215l-1.2666.61621a.335.335,0,0,1-.2207.02637.37627.37627,0,0,1-.18457-.13184A2.55479,2.55479,0,0,0,479.43825,396.668Z"/><path class="cls-4" d="M486.50368,401.5166a2.11267,2.11267,0,0,0,.82812.77442,2.4758,2.4758,0,0,0,1.16992.27246,2.54678,2.54678,0,0,0,1.16992-.27246,3.69634,3.69634,0,0,0,1.083-.90723.26732.26732,0,0,1,.123-.0791.41126.41126,0,0,1,.19336.06152l1.26758.52832q.24609.10547.05273.35254a5.75462,5.75462,0,0,1-1.17969,1.28418,3.85043,3.85043,0,0,1-1.36328.67773,6.45111,6.45111,0,0,1-1.68066.20215,4.92908,4.92908,0,0,1-2.44629-.59863,4.4464,4.4464,0,0,1-1.69922-1.66309,4.7258,4.7258,0,0,1-.624-2.4375,5.19393,5.19393,0,0,1,.6416-2.63086,4.601,4.601,0,0,1,1.7168-1.73339,4.94562,4.94562,0,0,1,4.73339-.02637,4.19463,4.19463,0,0,1,1.61036,1.68066,5.5193,5.5193,0,0,1,.58984,2.65723.99119.99119,0,0,1-.03516.2998q-.03514.10548-.26367.123H486.407a.18516.18516,0,0,0-.15821.07031.34976.34976,0,0,0-.05273.21094A2.16233,2.16233,0,0,0,486.50368,401.5166Zm3.22949-2.91308a.43972.43972,0,0,0,.24707-.04395q.05273-.044.05273-.20215a2.21028,2.21028,0,0,0-.20215-.89746,1.96516,1.96516,0,0,0-.59863-.76562,1.6011,1.6011,0,0,0-1.01172-.3086,1.946,1.946,0,0,0-1.03906.28223,1.86406,1.86406,0,0,0-.7041.7832,2.54218,2.54218,0,0,0-.2461,1.13477Z"/><path class="cls-4" d="M499.07887,396.668a2.5559,2.5559,0,0,0-1.249-.28223,2.19993,2.19993,0,0,0-1.10059.25586.7746.7746,0,0,0-.44824.69531.64679.64679,0,0,0,.17578.43067,1.68028,1.68028,0,0,0,.80957.36035l2.02441.49316a3.63971,3.63971,0,0,1,2.07618,1.09082,2.61558,2.61558,0,0,1,.61621,1.69043,2.50472,2.50472,0,0,1-.53711,1.61914,3.40033,3.40033,0,0,1-1.48731,1.0293,6.12627,6.12627,0,0,1-2.18164.36035,5.82363,5.82363,0,0,1-2.6582-.55371,3.389,3.389,0,0,1-1.53027-1.38183.47032.47032,0,0,1-.07129-.23731.1758.1758,0,0,1,.10644-.168l1.19629-.61523a.57409.57409,0,0,1,.27246-.08008.24652.24652,0,0,1,.168.09766,3.70051,3.70051,0,0,0,.54492.59765,2.34691,2.34691,0,0,0,.792.44922,3.40591,3.40591,0,0,0,1.19726.14942,3.20865,3.20865,0,0,0,.88867-.11426,1.48277,1.48277,0,0,0,.625-.334.69972.69972,0,0,0,.22852-.51953.67775.67775,0,0,0-.2461-.51953,2.20644,2.20644,0,0,0-.916-.37793l-1.8125-.38769a4.19643,4.19643,0,0,1-1.99707-.94141,2.2072,2.2072,0,0,1-.67774-1.68066,2.75367,2.75367,0,0,1,.46582-1.584,3.1194,3.1194,0,0,1,1.36426-1.082,5.28623,5.28623,0,0,1,2.14746-.39648,5.08742,5.08742,0,0,1,2.31446.49316,3.35558,3.35558,0,0,1,1.39843,1.17871.84632.84632,0,0,1,.10547.2207q.03516.11427-.123.20215l-1.26661.61621a.335.335,0,0,1-.2207.02637.37632.37632,0,0,1-.18457-.13184A2.55479,2.55479,0,0,0,499.07887,396.668Z"/><rect class="cls-4" x="508.20192" y="398.34082" width="88.36914" height="1"/><polygon class="cls-4" points="604.846 398.84 593.984 392.569 593.984 405.112 604.846 398.84"/><path class="cls-5" d="M302.57692,98.42822a.62211.62211,0,0,1,0-.4624l5.47851-15.24561a.83822.83822,0,0,1,.19825-.3413.55645.55645,0,0,1,.374-.09912h3.2998a.65777.65777,0,0,1,.66016.48437l5.43359,15.24561a.57838.57838,0,0,1,0,.38525.26049.26049,0,0,1-.26367.209h-3.23437a.39317.39317,0,0,1-.418-.3081L312.96168,95.084a.39456.39456,0,0,0-.07715-.17578.26292.26292,0,0,0-.209-.0664h-5.36816a.27673.27673,0,0,0-.28614.22021l-1.166,3.25586a.43174.43174,0,0,1-.14258.209.52242.52242,0,0,1-.31934.07714h-2.53027A.29791.29791,0,0,1,302.57692,98.42822Zm9.19629-6.5122q.3076,0,.19824-.374L310.12379,86.394q-.06591-.13184-.14355-.13183c-.05176,0-.09863.05127-.14258.15381l-1.87012,5.126c-.10254.24951-.03711.374.19824.374Z"/><path class="cls-5" d="M320.48512,98.604a.55523.55523,0,0,1-.39551-.10986.51428.51428,0,0,1-.11035-.374V82.69824q0-.41821.35156-.41845h2.70606c.2207,0,.33008.13232.33008.396v5.12647c0,.17578.041.26757.12109.2749a.39152.39152,0,0,0,.27539-.1211,4.877,4.877,0,0,1,.80274-.605,4.518,4.518,0,0,1,1.02343-.45117,4.24808,4.24808,0,0,1,1.25391-.17578,4.15128,4.15128,0,0,1,2.51855.74805,4.58732,4.58732,0,0,1,1.55079,2.08984,8.55516,8.55516,0,0,1,.52832,3.146,7.04393,7.04393,0,0,1-1.29786,4.45508,4.43914,4.43914,0,0,1-3.71777,1.66113,4.11705,4.11705,0,0,1-1.46289-.25342,3.92883,3.92883,0,0,1-1.166-.6709,6.16648,6.16648,0,0,1-.84765-.85791c-.0586-.07324-.11328-.10644-.165-.09912-.05078.00781-.084.0625-.09863.165l-.26368,1.05615a.49712.49712,0,0,1-.50586.43994Zm2.88184-4.02588a2.07994,2.07994,0,0,0,.30859,1.14405,2.20793,2.20793,0,0,0,1.8916,1.03369,2.12721,2.12721,0,0,0,1.27637-.396,2.49923,2.49923,0,0,0,.84668-1.28662,7.49778,7.49778,0,0,0,.29687-2.32129,5.61992,5.61992,0,0,0-.59375-2.94775,1.93842,1.93842,0,0,0-1.73828-.92432,2.56793,2.56793,0,0,0-1.27539.31934,3.58215,3.58215,0,0,0-1.01269.84668Z"/><path class="cls-5" d="M336.80836,84.98584c0,.36719-.19726.55029-.59375.55029h-2.376a.45668.45668,0,0,1-.38477-.13232.61.61,0,0,1-.09863-.374V82.72021q0-.44017.373-.44042h2.72852q.35157,0,.35156.41845Zm-.04394,13.09033a.532.532,0,0,1-.13184.40674.68263.68263,0,0,1-.46191.12109H333.8611a.3927.3927,0,0,1-.48438-.46191V87.36182q0-.41748.35156-.418h2.70606c.2207,0,.33008.125.33008.374Z"/><path class="cls-5" d="M342.617,98.07617a.532.532,0,0,1-.13184.40674.68263.68263,0,0,1-.46191.12109h-2.332q-.48487,0-.48438-.46191l.06641-15.44385q0-.41821.35156-.41845h2.66211q.3296,0,.33008.396Z"/><path class="cls-5" d="M348.491,84.98584c0,.36719-.19727.55029-.59375.55029h-2.376a.45666.45666,0,0,1-.38476-.13232.61.61,0,0,1-.09863-.374V82.72021q0-.44017.373-.44042h2.72852q.35156,0,.35156.41845ZM348.447,98.07617a.532.532,0,0,1-.13183.40674.68265.68265,0,0,1-.46192.12109h-2.30957a.39269.39269,0,0,1-.48437-.46191V87.36182q0-.41748.35156-.418H348.117c.2207,0,.33007.125.33007.374Z"/><path class="cls-5" d="M355.79469,89.27588c-.16211,0-.24219.08789-.24219.26416V94.8418a1.38484,1.38484,0,0,0,.35157,1.06738,1.641,1.641,0,0,0,1.12207.31885h1.18847a.29484.29484,0,0,1,.24219.10986.41129.41129,0,0,1,.08789.26416l-.02246,1.3418q0,.41822-.4834.52832-.397.04393-.84765.07666-.45118.033-.90137.04394-.45117.01173-.86914.01123a3.65585,3.65585,0,0,1-2.376-.71484,2.5737,2.5737,0,0,1-.87988-2.12305V89.606q0-.32959-.28613-.33008h-1.3418c-.2793,0-.418-.12451-.418-.374V87.27393q0-.32959.39551-.33008H352.032c.13281,0,.20605-.08008.2207-.2417l.30762-3.34424q.022-.37353.33007-.374h2.39844q.35157,0,.35156.418v3.30029a.19422.19422,0,0,0,.21973.21973h2.31055q.39551,0,.39551.352v1.62793q0,.37427-.43946.374Z"/><path class="cls-5" d="M360.48024,102.168a.33718.33718,0,0,1-.30762-.352v-1.69385a.31511.31511,0,0,1,.13184-.24219.83032.83032,0,0,1,.50586-.10986h1.49609a1.4816,1.4816,0,0,0,.75879-.19824,1.76989,1.76989,0,0,0,.5498-.48389,1.854,1.854,0,0,0,.29786-.61572.81924.81924,0,0,0-.04493-.59424L359.6443,87.47217a.37624.37624,0,0,1,.01074-.36328.36633.36633,0,0,1,.3418-.165h2.77148a.49872.49872,0,0,1,.30762.09912.47643.47643,0,0,1,.17676.2749l2.44141,6.55615c.04394.13184.10253.20166.17675.209.07227.00732.13867-.06934.19727-.231l2.41992-6.55615a1.01318,1.01318,0,0,1,.19824-.25293.41213.41213,0,0,1,.28614-.09912h1.8916a.32029.32029,0,0,1,.30859.165.35328.35328,0,0,1,0,.34131L366.66286,98.604a9.73323,9.73323,0,0,1-.957,1.85889,3.98763,3.98763,0,0,1-1.08984,1.1001,3.72747,3.72747,0,0,1-1.35254.52783,9.81449,9.81449,0,0,1-1.793.14307A5.25468,5.25468,0,0,1,360.48024,102.168Z"/><path class="cls-5" d="M382.283,89.27588c-.16211,0-.24219.08789-.24219.26416V94.8418a1.38484,1.38484,0,0,0,.35157,1.06738,1.641,1.641,0,0,0,1.12207.31885h1.18847a.29484.29484,0,0,1,.24219.10986.41123.41123,0,0,1,.08789.26416l-.02246,1.3418q0,.41822-.4834.52832-.397.04393-.84765.07666-.45117.033-.90137.04394-.45117.01173-.86914.01123a3.65585,3.65585,0,0,1-2.376-.71484,2.5737,2.5737,0,0,1-.87988-2.12305V89.606q0-.32959-.28613-.33008h-1.3418c-.2793,0-.418-.12451-.418-.374V87.27393q0-.32959.39551-.33008h1.51758c.13281,0,.20605-.08008.2207-.2417l.30762-3.34424q.022-.37353.33008-.374h2.39843q.35157,0,.35157.418v3.30029a.19421.19421,0,0,0,.21972.21973H384.659q.3955,0,.39551.352v1.62793q0,.37427-.43946.374Z"/><path class="cls-5" d="M388.80543,98.0542a5.45814,5.45814,0,0,1-2.0791-2.123,6.2891,6.2891,0,0,1-.74805-3.09131,6.43767,6.43767,0,0,1,.77051-3.20068,5.54,5.54,0,0,1,2.11231-2.145,6.46041,6.46041,0,0,1,6.13769.01074,5.44406,5.44406,0,0,1,2.05664,2.15625,6.57924,6.57924,0,0,1,.73731,3.15674,6.335,6.335,0,0,1-.748,3.11328,5.45807,5.45807,0,0,1-2.0791,2.123,6.5451,6.5451,0,0,1-6.16016,0Zm4.45508-1.90332a2.5724,2.5724,0,0,0,.8252-1.28711,6.89616,6.89616,0,0,0,.27539-2.08984,7.05344,7.05344,0,0,0-.27539-2.145,2.64584,2.64584,0,0,0-.8252-1.28711,2.3171,2.3171,0,0,0-2.7168,0,2.66668,2.66668,0,0,0-.84668,1.28711,6.78708,6.78708,0,0,0-.28613,2.145A6.61759,6.61759,0,0,0,389.697,94.875a2.59015,2.59015,0,0,0,.84668,1.27588,2.36421,2.36421,0,0,0,2.7168,0Z"/><path class="cls-5" d="M404.21657,98.16406V87.36182q0-.41748.35156-.418h2.64062q.32959,0,.33008.374V88.396a.18351.18351,0,0,0,.07715.17578c.05078.02978.11328,0,.18652-.08789a10.45617,10.45617,0,0,1,1.14453-.92383,5.239,5.239,0,0,1,1.21-.62695,3.83731,3.83731,0,0,1,1.31933-.231,3.392,3.392,0,0,1,1.99121.561,2.99832,2.99832,0,0,1,1.13282,1.48487.11366.11366,0,0,0,.12109.07715.30859.30859,0,0,0,.165-.09913,7.67448,7.67448,0,0,1,1.15527-1.023,5.69753,5.69753,0,0,1,1.33106-.71533,3.92823,3.92823,0,0,1,1.38574-.26367,3.25215,3.25215,0,0,1,2.45312.9458,3.58326,3.58326,0,0,1,.91309,2.59619v7.81006a.46656.46656,0,0,1-.52832.52783H419.155a.43649.43649,0,0,1-.31933-.09912.47076.47076,0,0,1-.09864-.34082V90.728a1.58955,1.58955,0,0,0-.39648-1.15479,1.49225,1.49225,0,0,0-1.12207-.40722,1.9845,1.9845,0,0,0-.81348.17578,3.90846,3.90846,0,0,0-.72656.418,3.32937,3.32937,0,0,0-.57227.52832.74743.74743,0,0,0-.19726.29687,1.05346,1.05346,0,0,0-.04395.31885v7.17236a.467.467,0,0,1-.52832.52783h-2.41992a.4396.4396,0,0,1-.31933-.09912.47527.47527,0,0,1-.09864-.34082V90.728a1.58539,1.58539,0,0,0-.39648-1.15479,1.523,1.523,0,0,0-1.14356-.40722,2.25159,2.25159,0,0,0-1.21.34082,5.24841,5.24841,0,0,0-1.14453,1.023v7.56835q0,.50612-.57129.50586h-2.35449Q404.217,98.604,404.21657,98.16406Z"/><path class="cls-5" d="M427.78981,95.20508a2.61636,2.61636,0,0,0,1.0332.96777,3.09619,3.09619,0,0,0,1.46289.34131,3.18538,3.18538,0,0,0,1.46387-.34131A4.60965,4.60965,0,0,0,433.10231,95.04a.32041.32041,0,0,1,.1543-.09912.50486.50486,0,0,1,.24218.07715l1.584.66015q.30762.13184.06543.43994a7.20778,7.20778,0,0,1-1.47364,1.606,4.8328,4.8328,0,0,1-1.70507.84668,8.06462,8.06462,0,0,1-2.10157.25342,6.17453,6.17453,0,0,1-3.05761-.748,5.55437,5.55437,0,0,1-2.123-2.0791,5.90826,5.90826,0,0,1-.78125-3.04687,6.48008,6.48008,0,0,1,.80371-3.28907,5.74137,5.74137,0,0,1,2.14453-2.167,6.18708,6.18708,0,0,1,5.918-.0332,5.24831,5.24831,0,0,1,2.0127,2.10107,6.9085,6.9085,0,0,1,.7373,3.32178,1.23693,1.23693,0,0,1-.04395.374c-.02929.08838-.13964.13965-.33007.1543h-7.4795a.23238.23238,0,0,0-.19824.08789.43862.43862,0,0,0-.0664.26416A2.69671,2.69671,0,0,0,427.78981,95.20508Zm4.03613-3.64112a.54428.54428,0,0,0,.30859-.05517c.04395-.03613.06543-.12061.06543-.25293a2.75985,2.75985,0,0,0-.25293-1.12207,2.44282,2.44282,0,0,0-.748-.95654,1.99729,1.99729,0,0,0-1.26465-.38526,2.42619,2.42619,0,0,0-1.29785.35205,2.32238,2.32238,0,0,0-.87988.979,3.16691,3.16691,0,0,0-.3086,1.41894Z"/><path class="cls-5" d="M440.68141,95.20508a2.61643,2.61643,0,0,0,1.0332.96777,3.09619,3.09619,0,0,0,1.46289.34131,3.18538,3.18538,0,0,0,1.46387-.34131A4.60953,4.60953,0,0,0,445.99391,95.04a.32041.32041,0,0,1,.1543-.09912.50486.50486,0,0,1,.24218.07715l1.584.66015q.30762.13184.06543.43994a7.208,7.208,0,0,1-1.47363,1.606,4.83293,4.83293,0,0,1-1.70508.84668,8.06462,8.06462,0,0,1-2.10157.25342,6.17453,6.17453,0,0,1-3.05761-.748,5.55444,5.55444,0,0,1-2.123-2.0791,5.90826,5.90826,0,0,1-.78125-3.04687,6.48008,6.48008,0,0,1,.80371-3.28907,5.74137,5.74137,0,0,1,2.14453-2.167,6.18708,6.18708,0,0,1,5.918-.0332,5.24825,5.24825,0,0,1,2.0127,2.10107,6.9085,6.9085,0,0,1,.7373,3.32178,1.2373,1.2373,0,0,1-.04394.374c-.0293.08838-.13965.13965-.33008.1543h-7.47949a.2324.2324,0,0,0-.19825.08789.43862.43862,0,0,0-.0664.26416A2.69671,2.69671,0,0,0,440.68141,95.20508Zm4.03613-3.64112a.54435.54435,0,0,0,.3086-.05517c.04394-.03613.06543-.12061.06543-.25293a2.76,2.76,0,0,0-.25293-1.12207,2.44293,2.44293,0,0,0-.748-.95654,1.99729,1.99729,0,0,0-1.26465-.38526,2.42621,2.42621,0,0,0-1.29785.35205,2.32238,2.32238,0,0,0-.87988.979,3.16691,3.16691,0,0,0-.3086,1.41894Z"/><path class="cls-5" d="M454.81618,89.27588c-.16211,0-.24219.08789-.24219.26416V94.8418a1.38488,1.38488,0,0,0,.35156,1.06738,1.641,1.641,0,0,0,1.12207.31885h1.18848a.29482.29482,0,0,1,.24218.10986.41124.41124,0,0,1,.0879.26416l-.02247,1.3418q0,.41822-.48339.52832-.397.04393-.84766.07666-.45117.033-.90137.04394-.45117.01173-.86914.01123a3.65582,3.65582,0,0,1-2.376-.71484,2.57368,2.57368,0,0,1-.87989-2.12305V89.606q0-.32959-.28613-.33008h-1.3418c-.27929,0-.418-.12451-.418-.374V87.27393q0-.32959.39551-.33008h1.51758c.13281,0,.20605-.08008.2207-.2417l.30762-3.34424q.022-.37353.33008-.374h2.39844q.35156,0,.35156.418v3.30029a.19422.19422,0,0,0,.21973.21973h2.31054q.39551,0,.39551.352v1.62793q0,.37427-.43945.374Z"/><path class="cls-5" d="M470.05153,96.019a4.753,4.753,0,0,0,1.11035-.93506V87.4502q0-.50611.57226-.50635h2.376a.40853.40853,0,0,1,.46191.46191L474.52809,98.208q0,.39624-.35156.396h-2.61817c-.2207,0-.33008-.12451-.33008-.374V97.15186c0-.0879-.02246-.14307-.0664-.165s-.10254.0039-.17578.07714a6.10738,6.10738,0,0,1-1.83692,1.353,4.733,4.733,0,0,1-1.94726.40723,3.51628,3.51628,0,0,1-1.72656-.41846,2.9999,2.9999,0,0,1-1.19922-1.2207,3.894,3.894,0,0,1-.44043-1.90283V87.47217a.46729.46729,0,0,1,.52832-.52832h2.44238q.41748,0,.418.46191v7.39209a1.60832,1.60832,0,0,0,.40625,1.15527,1.48941,1.48941,0,0,0,1.13379.42872A2.46308,2.46308,0,0,0,470.05153,96.019Z"/><path class="cls-5" d="M483.15114,89.144a3.19337,3.19337,0,0,0-1.56153-.35205,2.74569,2.74569,0,0,0-1.375.31885.97049.97049,0,0,0-.56152.86914.8058.8058,0,0,0,.2207.53906,2.09325,2.09325,0,0,0,1.01172.45117l2.53027.61573a4.54863,4.54863,0,0,1,2.59571,1.36426A3.26024,3.26024,0,0,1,486.782,95.062a3.1321,3.1321,0,0,1-.67188,2.02393,4.24521,4.24521,0,0,1-1.8584,1.28711,7.666,7.666,0,0,1-2.72851.45117,7.26726,7.26726,0,0,1-3.32129-.69336,4.2301,4.2301,0,0,1-1.91406-1.72705.58619.58619,0,0,1-.0879-.29688.21918.21918,0,0,1,.13184-.209l1.49609-.77a.70489.70489,0,0,1,.34082-.09912.3007.3007,0,0,1,.209.12109,4.61356,4.61356,0,0,0,.68164.748,2.93459,2.93459,0,0,0,.99023.561,4.23947,4.23947,0,0,0,1.4961.187,3.99221,3.99221,0,0,0,1.11133-.14307,1.84024,1.84024,0,0,0,.78027-.418.87143.87143,0,0,0,.28613-.64892.84515.84515,0,0,0-.30762-.64893,2.75415,2.75415,0,0,0-1.14453-.47315l-2.26562-.48388a5.25876,5.25876,0,0,1-2.49707-1.17725,2.76184,2.76184,0,0,1-.84668-2.10058,3.44039,3.44039,0,0,1,.583-1.98047A3.88661,3.88661,0,0,1,478.95,87.21924a6.61342,6.61342,0,0,1,2.6836-.49512,6.35588,6.35588,0,0,1,2.89258.61572,4.19334,4.19334,0,0,1,1.749,1.47412,1.08838,1.08838,0,0,1,.13281.27491c.02832.0957-.02246.17968-.15429.25293l-1.584.77a.41736.41736,0,0,1-.27539.0332.47264.47264,0,0,1-.23047-.165A3.2327,3.2327,0,0,0,483.15114,89.144Z"/><path class="cls-5" d="M491.98512,95.20508a2.61643,2.61643,0,0,0,1.0332.96777,3.09619,3.09619,0,0,0,1.46289.34131,3.18538,3.18538,0,0,0,1.46387-.34131A4.60953,4.60953,0,0,0,497.29762,95.04a.32041.32041,0,0,1,.1543-.09912.50492.50492,0,0,1,.24219.07715l1.584.66015q.30762.13184.06543.43994a7.208,7.208,0,0,1-1.47363,1.606,4.83285,4.83285,0,0,1-1.70508.84668,8.0646,8.0646,0,0,1-2.10156.25342,6.17455,6.17455,0,0,1-3.05762-.748,5.55444,5.55444,0,0,1-2.123-2.0791,5.90826,5.90826,0,0,1-.78125-3.04687,6.48008,6.48008,0,0,1,.80371-3.28907,5.74137,5.74137,0,0,1,2.14453-2.167,6.18708,6.18708,0,0,1,5.918-.0332,5.24825,5.24825,0,0,1,2.0127,2.10107,6.9085,6.9085,0,0,1,.7373,3.32178,1.2373,1.2373,0,0,1-.04394.374c-.0293.08838-.13965.13965-.33008.1543H491.864a.2324.2324,0,0,0-.19825.08789.43862.43862,0,0,0-.0664.26416A2.69671,2.69671,0,0,0,491.98512,95.20508Zm4.03613-3.64112a.54435.54435,0,0,0,.3086-.05517c.04394-.03613.06543-.12061.06543-.25293a2.76,2.76,0,0,0-.25293-1.12207,2.44293,2.44293,0,0,0-.74805-.95654,1.99729,1.99729,0,0,0-1.26465-.38526,2.42621,2.42621,0,0,0-1.29785.35205,2.32244,2.32244,0,0,0-.87988.979,3.16691,3.16691,0,0,0-.3086,1.41894Z"/><path class="cls-5" d="M501.63161,98.49414a.445.445,0,0,1-.11036-.33008V87.36182q0-.41748.35157-.418H504.447c.23438,0,.35254.125.35254.374v1.29834a.15233.15233,0,0,0,.09864.16455c.0664.02246.13574-.01074.209-.09863a5.35342,5.35342,0,0,1,1.001-1.03418,4.83817,4.83817,0,0,1,1.15527-.68213,2.97858,2.97858,0,0,1,1.12207-.2417q.791,0,.792.374V89.6499q0,.35231-.33007.28614a4.30734,4.30734,0,0,0-.81446-.14307q-.41748-.033-.72558-.0332a2.44512,2.44512,0,0,0-.8252.15429,2.64688,2.64688,0,0,0-.78125.43994,2.80262,2.80262,0,0,0-.57129.61621,1.24042,1.24042,0,0,0-.2207.70362v6.42431q0,.50612-.57129.50586h-2.35449A.48152.48152,0,0,1,501.63161,98.49414Z"/><path class="cls-5" d="M515.42555,98.16406V87.36182q0-.41748.35156-.418h2.66211c.22071,0,.33008.125.33008.374V88.396a.19726.19726,0,0,0,.06641.17578c.04394.02978.11035,0,.19824-.08789a10.44877,10.44877,0,0,1,1.14355-.92383,4.9471,4.9471,0,0,1,1.21-.61621,4.1621,4.1621,0,0,1,1.36426-.21973,3.2413,3.2413,0,0,1,3.47559,3.47608v7.876A.46626.46626,0,0,1,525.7,98.604h-2.44238a.4396.4396,0,0,1-.31933-.09912.47527.47527,0,0,1-.09864-.34082V90.728a1.56168,1.56168,0,0,0-.40722-1.15479,1.62547,1.62547,0,0,0-1.19922-.40722,2.35678,2.35678,0,0,0-.85742.1538,3.01134,3.01134,0,0,0-.77051.45118,6.81049,6.81049,0,0,0-.792.75879v7.56835q0,.50612-.57129.50586h-2.3545Q515.426,98.604,515.42555,98.16406Z"/><path class="cls-5" d="M531.89235,95.20508a2.61636,2.61636,0,0,0,1.0332.96777,3.09619,3.09619,0,0,0,1.46289.34131,3.18538,3.18538,0,0,0,1.46387-.34131A4.60965,4.60965,0,0,0,537.20485,95.04a.32043.32043,0,0,1,.15429-.09912.50486.50486,0,0,1,.24219.07715l1.584.66015q.3076.13184.06543.43994a7.20778,7.20778,0,0,1-1.47364,1.606,4.83276,4.83276,0,0,1-1.70508.84668,8.06449,8.06449,0,0,1-2.10156.25342,6.17453,6.17453,0,0,1-3.05761-.748,5.55437,5.55437,0,0,1-2.12305-2.0791,5.90826,5.90826,0,0,1-.78125-3.04687,6.48008,6.48008,0,0,1,.80371-3.28907,5.74137,5.74137,0,0,1,2.14453-2.167,6.18708,6.18708,0,0,1,5.918-.0332,5.24822,5.24822,0,0,1,2.01269,2.10107,6.90839,6.90839,0,0,1,.73731,3.32178,1.23693,1.23693,0,0,1-.04395.374c-.02929.08838-.13964.13965-.33007.1543h-7.4795A.23238.23238,0,0,0,531.573,93.5a.43862.43862,0,0,0-.0664.26416A2.69671,2.69671,0,0,0,531.89235,95.20508Zm4.03613-3.64112a.54428.54428,0,0,0,.30859-.05517c.04395-.03613.06543-.12061.06543-.25293a2.75985,2.75985,0,0,0-.25293-1.12207,2.44282,2.44282,0,0,0-.748-.95654,1.99729,1.99729,0,0,0-1.26465-.38526,2.42619,2.42619,0,0,0-1.29785.35205,2.32247,2.32247,0,0,0-.87989.979,3.167,3.167,0,0,0-.30859,1.41894Z"/><path class="cls-5" d="M544.78493,95.20508a2.6163,2.6163,0,0,0,1.0332.96777,3.09619,3.09619,0,0,0,1.46289.34131,3.18541,3.18541,0,0,0,1.46387-.34131A4.60965,4.60965,0,0,0,550.09743,95.04a.32043.32043,0,0,1,.15429-.09912.50486.50486,0,0,1,.24219.07715l1.584.66015q.30762.13184.06543.43994a7.20752,7.20752,0,0,1-1.47363,1.606,4.83276,4.83276,0,0,1-1.70508.84668,8.06455,8.06455,0,0,1-2.10156.25342,6.17457,6.17457,0,0,1-3.05762-.748,5.55435,5.55435,0,0,1-2.123-2.0791,5.90826,5.90826,0,0,1-.78125-3.04687,6.48,6.48,0,0,1,.80371-3.28907,5.7413,5.7413,0,0,1,2.14453-2.167,6.18708,6.18708,0,0,1,5.918-.0332A5.24829,5.24829,0,0,1,551.78,89.562a6.9085,6.9085,0,0,1,.73731,3.32178,1.23693,1.23693,0,0,1-.04395.374c-.02929.08838-.13965.13965-.33008.1543h-7.47949a.23236.23236,0,0,0-.19824.08789.43855.43855,0,0,0-.06641.26416A2.69671,2.69671,0,0,0,544.78493,95.20508Zm4.03613-3.64112a.54428.54428,0,0,0,.30859-.05517c.04395-.03613.06543-.12061.06543-.25293a2.75985,2.75985,0,0,0-.25293-1.12207,2.443,2.443,0,0,0-.748-.95654,1.99729,1.99729,0,0,0-1.26465-.38526,2.42617,2.42617,0,0,0-1.29785.35205,2.32247,2.32247,0,0,0-.87989.979,3.167,3.167,0,0,0-.30859,1.41894Z"/><path class="cls-5" d="M562.0984,98.50488a.38379.38379,0,0,1-.14355-.34082v-.61621c0-.102-.0293-.16113-.08789-.17578a.26866.26866,0,0,0-.21973.08789,8.21193,8.21193,0,0,1-.792.64893,3.78291,3.78291,0,0,1-1.03418.51709,4.39127,4.39127,0,0,1-1.38574.19824,4.32107,4.32107,0,0,1-2.376-.66016,4.40208,4.40208,0,0,1-1.62793-1.99121,8.1186,8.1186,0,0,1-.59473-3.311,7.47855,7.47855,0,0,1,.64942-3.22266,5.31839,5.31839,0,0,1,1.749-2.145,4.12975,4.12975,0,0,1,2.41992-.77,4.01676,4.01676,0,0,1,1.5625.28565,4.52765,4.52765,0,0,1,1.31934.88037c.11719.08789.209.12109.27539.09863.06543-.022.09863-.11328.09863-.2749V82.67578q0-.39551.35254-.396H564.947c.23438,0,.35254.13964.35254.41845V98.14209a.48209.48209,0,0,1-.11035.35205.558.558,0,0,1-.39648.10986h-2.376A.54538.54538,0,0,1,562.0984,98.50488Zm-1.166-9.32763a2.29189,2.29189,0,0,0-1.13282-.27539,2.23337,2.23337,0,0,0-1.30957.40722,2.58122,2.58122,0,0,0-.90234,1.26514,6.57857,6.57857,0,0,0-.31836,2.24365,6.65943,6.65943,0,0,0,.31836,2.26611,2.5091,2.5091,0,0,0,.88086,1.24317,2.2169,2.2169,0,0,0,1.28613.38476,2.12108,2.12108,0,0,0,1.10059-.28613,2.28481,2.28481,0,0,0,.76953-.72558,1.67255,1.67255,0,0,0,.28613-.92432V89.98A3.94992,3.94992,0,0,0,560.93239,89.17725Z"/><path class="cls-5" d="M573.90016,89.144a3.19331,3.19331,0,0,0-1.56152-.35205,2.74567,2.74567,0,0,0-1.375.31885.97049.97049,0,0,0-.56153.86914.80581.80581,0,0,0,.22071.53906,2.09315,2.09315,0,0,0,1.01171.45117l2.53028.61573a4.5486,4.5486,0,0,1,2.5957,1.36426A3.26024,3.26024,0,0,1,577.531,95.062a3.1321,3.1321,0,0,1-.67188,2.02393,4.24517,4.24517,0,0,1-1.85839,1.28711,7.66607,7.66607,0,0,1-2.72852.45117,7.26729,7.26729,0,0,1-3.32129-.69336,4.2301,4.2301,0,0,1-1.91406-1.72705.58627.58627,0,0,1-.08789-.29688.21917.21917,0,0,1,.13183-.209l1.4961-.77a.70483.70483,0,0,1,.34082-.09912.30068.30068,0,0,1,.209.12109,4.61356,4.61356,0,0,0,.68164.748,2.93454,2.93454,0,0,0,.99024.561,4.23941,4.23941,0,0,0,1.49609.187,3.99216,3.99216,0,0,0,1.11133-.14307,1.84024,1.84024,0,0,0,.78027-.418.87144.87144,0,0,0,.28614-.64892.84515.84515,0,0,0-.30762-.64893,2.75428,2.75428,0,0,0-1.14453-.47315l-2.26563-.48388a5.25876,5.25876,0,0,1-2.49707-1.17725,2.76184,2.76184,0,0,1-.84668-2.10058,3.44046,3.44046,0,0,1,.583-1.98047,3.88664,3.88664,0,0,1,1.70508-1.35254,6.61334,6.61334,0,0,1,2.68359-.49512,6.35588,6.35588,0,0,1,2.89258.61572,4.19334,4.19334,0,0,1,1.749,1.47412,1.08842,1.08842,0,0,1,.13282.27491c.02832.0957-.02247.17968-.1543.25293l-1.584.77a.41735.41735,0,0,1-.27539.0332.47267.47267,0,0,1-.23046-.165A3.23274,3.23274,0,0,0,573.90016,89.144Z"/><path class="cls-5" d="M578.30055,98.648l5.47852-16.03809a.46747.46747,0,0,1,.46191-.33007h1.47363c.33692,0,.44043.19091.30762.57226l-5.3457,15.66406a.6604.6604,0,0,1-.24219.3628.67818.67818,0,0,1-.374.09912H578.5652Q578.1902,98.978,578.30055,98.648Z"/><path class="cls-5" d="M315.93141,116.501a4.796,4.796,0,0,1-2.10059,1.6831,7.77774,7.77774,0,0,1-3.09179.57178h-3.29981a.21433.21433,0,0,0-.24219.24219v5.5q0,.5061-.57128.50586h-2.81641a.38233.38233,0,0,1-.46191-.44V109.09814q0-.4182.35156-.41845h6.60058a9.093,9.093,0,0,1,3.22266.55029,5.10242,5.10242,0,0,1,2.32129,1.67188,4.57278,4.57278,0,0,1,.85742,2.85986A4.68912,4.68912,0,0,1,315.93141,116.501Zm-3.52051-4.07032a1.964,1.964,0,0,0-.94531-.73681,3.83466,3.83466,0,0,0-1.4082-.2417H307.615q-.41748,0-.418.37353v3.76221q0,.41821.3086.418h2.70605a2.65372,2.65372,0,0,0,1.84766-.61572,2.16945,2.16945,0,0,0,.68164-1.69434A2.232,2.232,0,0,0,312.4109,112.43066Z"/><path class="cls-5" d="M318.85719,124.894a.445.445,0,0,1-.11035-.33008V113.76172q0-.41748.35156-.418h2.57422c.23438,0,.35254.125.35254.374v1.29834a.15232.15232,0,0,0,.09863.16455c.06641.02246.13574-.01074.209-.09863a5.354,5.354,0,0,1,1.001-1.03418,4.83823,4.83823,0,0,1,1.15528-.68213,2.97854,2.97854,0,0,1,1.12207-.2417c.52734,0,.792.12452.792.374v2.55175q0,.35231-.33008.28614a4.3079,4.3079,0,0,0-.81445-.14307q-.41748-.033-.72559-.0332a2.44535,2.44535,0,0,0-.82519.15429,2.64666,2.64666,0,0,0-.78125.44,2.8017,2.8017,0,0,0-.57129.61621,1.2404,1.2404,0,0,0-.22071.70361v6.42432q0,.5061-.57128.50586h-2.3545A.48149.48149,0,0,1,318.85719,124.894Z"/><path class="cls-5" d="M331.10036,121.605a2.6163,2.6163,0,0,0,1.0332.96777,3.09619,3.09619,0,0,0,1.46289.34131,3.18541,3.18541,0,0,0,1.46387-.34131,4.60965,4.60965,0,0,0,1.35254-1.13281.32043.32043,0,0,1,.15429-.09912.5051.5051,0,0,1,.24219.07715l1.584.66015q.30762.13185.06543.43995a7.20745,7.20745,0,0,1-1.47363,1.606,4.83259,4.83259,0,0,1-1.70508.84668,8.06455,8.06455,0,0,1-2.10156.25342,6.17457,6.17457,0,0,1-3.05762-.748,5.55435,5.55435,0,0,1-2.123-2.0791,5.90824,5.90824,0,0,1-.78125-3.04687,6.48,6.48,0,0,1,.80371-3.28906,5.74133,5.74133,0,0,1,2.14453-2.167,6.18708,6.18708,0,0,1,5.918-.0332,5.24829,5.24829,0,0,1,2.01269,2.10107,6.90853,6.90853,0,0,1,.73731,3.32178,1.23693,1.23693,0,0,1-.04395.374c-.0293.08838-.13965.13965-.33008.1543h-7.47949a.23236.23236,0,0,0-.19824.08789.43859.43859,0,0,0-.06641.26416A2.69671,2.69671,0,0,0,331.10036,121.605Zm4.03613-3.64111a.54426.54426,0,0,0,.30859-.05518c.04395-.03613.06543-.1206.06543-.25293a2.75989,2.75989,0,0,0-.25293-1.12207,2.443,2.443,0,0,0-.74805-.95654,1.99724,1.99724,0,0,0-1.26464-.38526,2.42614,2.42614,0,0,0-1.29786.35206,2.32242,2.32242,0,0,0-.87988.979,3.167,3.167,0,0,0-.30859,1.41894Z"/><path class="cls-5" d="M348.41481,124.90479a.3838.3838,0,0,1-.14356-.34083v-.61621c0-.10205-.02929-.16113-.08789-.17578a.26866.26866,0,0,0-.21972.08789,8.21184,8.21184,0,0,1-.792.64893,3.78263,3.78263,0,0,1-1.03418.51709,4.39119,4.39119,0,0,1-1.38574.19824,4.321,4.321,0,0,1-2.376-.66016,4.402,4.402,0,0,1-1.62793-1.99121,8.1184,8.1184,0,0,1-.59473-3.311,7.47876,7.47876,0,0,1,.64941-3.22266,5.31856,5.31856,0,0,1,1.749-2.145,4.12975,4.12975,0,0,1,2.41992-.77,4.0168,4.0168,0,0,1,1.5625.28565,4.52781,4.52781,0,0,1,1.31933.88037c.11719.08789.209.12109.2754.09863.06543-.022.09863-.11328.09863-.2749v-5.03809q0-.39551.35254-.396h2.68359c.23438,0,.35254.13965.35254.41845V124.542a.48209.48209,0,0,1-.11035.35205.558.558,0,0,1-.39649.10987h-2.376A.54543.54543,0,0,1,348.41481,124.90479Zm-1.166-9.32764a2.29188,2.29188,0,0,0-1.13281-.27539,2.23335,2.23335,0,0,0-1.30957.40722,2.58127,2.58127,0,0,0-.90234,1.26514,6.57836,6.57836,0,0,0-.31836,2.24365,6.65928,6.65928,0,0,0,.31836,2.26612,2.50906,2.50906,0,0,0,.88086,1.24316,2.21683,2.21683,0,0,0,1.28613.38477,2.121,2.121,0,0,0,1.10058-.28614,2.28475,2.28475,0,0,0,.76954-.72558,1.67252,1.67252,0,0,0,.28613-.92432v-4.7959A3.95,3.95,0,0,0,347.24879,115.57715Z"/><path class="cls-5" d="M357.46657,111.38574c0,.36719-.19727.5503-.59375.5503h-2.376a.45668.45668,0,0,1-.38477-.13233.61007.61007,0,0,1-.09863-.374v-2.30957q0-.44019.373-.44043H357.115q.35157,0,.35157.41845Zm-.04395,13.09033a.53192.53192,0,0,1-.13184.40674.68256.68256,0,0,1-.46191.1211H354.5193a.3927.3927,0,0,1-.48437-.46192V113.76172q0-.41748.35156-.418h2.70605c.22071,0,.33008.125.33008.374Z"/><path class="cls-5" d="M367.61989,113.61914a4.92037,4.92037,0,0,1,1.63867,1.26465,4.821,4.821,0,0,1,.90234,1.584q.15381.44019-.26367.46192l-2.31055.22021a.3.3,0,0,1-.33007-.24219,5.58372,5.58372,0,0,0-.43946-.77,2.02379,2.02379,0,0,0-.59375-.57178,1.72844,1.72844,0,0,0-.9248-.22022,2.179,2.179,0,0,0-1.31934.418,2.68423,2.68423,0,0,0-.8916,1.26514,7.36863,7.36863,0,0,0,.01172,4.32324,2.64433,2.64433,0,0,0,.93457,1.27588,2.47144,2.47144,0,0,0,1.44141.418,2.19763,2.19763,0,0,0,1.52832-.50586,5.77935,5.77935,0,0,0,1.06738-1.36426.28.28,0,0,1,.13183-.13183.50851.50851,0,0,1,.24219.022l1.62793.374q.24169.06592.1543.418a5.84186,5.84186,0,0,1-.54981,1.07813,4.737,4.737,0,0,1-.97949,1.10009,5.2786,5.2786,0,0,1-1.47363.84668,5.553,5.553,0,0,1-2.03516.34131,5.94171,5.94171,0,0,1-3.01465-.75928,5.47748,5.47748,0,0,1-2.07812-2.11181,6.29317,6.29317,0,0,1-.75977-3.13526,6.39306,6.39306,0,0,1,.77051-3.17871,5.59272,5.59272,0,0,1,2.08984-2.145,5.82774,5.82774,0,0,1,2.99219-.77A5.43912,5.43912,0,0,1,367.61989,113.61914Z"/><path class="cls-5" d="M376.5193,115.67578c-.16211,0-.24219.08789-.24219.26416v5.30176a1.38484,1.38484,0,0,0,.35157,1.06738,1.641,1.641,0,0,0,1.12207.31885h1.18847a.29484.29484,0,0,1,.24219.10986.41129.41129,0,0,1,.08789.26416l-.02246,1.3418q0,.41821-.4834.52832-.397.044-.84766.07666-.45117.033-.90136.04395-.45117.01172-.86914.01123a3.65585,3.65585,0,0,1-2.376-.71485,2.57369,2.57369,0,0,1-.87988-2.123v-6.16016q0-.32959-.28614-.33008h-1.34179c-.2793,0-.418-.12451-.418-.374v-1.62793q0-.32959.39551-.33008h1.51758c.13281,0,.20605-.08008.2207-.2417l.30762-3.34424q.022-.37353.33007-.374h2.39844q.35157,0,.35156.418v3.30029a.19422.19422,0,0,0,.21973.21973h2.31055q.39551,0,.3955.352v1.62793q0,.37427-.43945.374Z"/><path class="cls-5" d="M385.85817,124.86084a4.90475,4.90475,0,0,1-1.94727.36328,3.67832,3.67832,0,0,1-2.6289-.90234,3.03438,3.03438,0,0,1-.957-2.31006,3.2642,3.2642,0,0,1,.77051-2.15576,4.98816,4.98816,0,0,1,2.19922-1.44092,10.75675,10.75675,0,0,1,3.41016-.561l.77051-.06591a.4553.4553,0,0,0,.24121-.06641.258.258,0,0,0,.11035-.2417v-.46191a1.744,1.744,0,0,0-.48438-1.30909,1.8996,1.8996,0,0,0-1.38574-.47314,2.83917,2.83917,0,0,0-1.26465.29687,2.45,2.45,0,0,0-1.02344,1.023.37694.37694,0,0,1-.15332.19825.58966.58966,0,0,1-.33007,0l-2.2002-.50586a.31973.31973,0,0,1-.1875-.14307q-.05419-.09888.07715-.4292a3.6404,3.6404,0,0,1,1.90332-1.9248,7.90577,7.90577,0,0,1,3.333-.627,7.5135,7.5135,0,0,1,2.90429.46192,3.18616,3.18616,0,0,1,1.56153,1.28711,3.737,3.737,0,0,1,.48437,1.9248V124.52a.61663.61663,0,0,1-.08789.374.40722.40722,0,0,1-.33008.10987h-2.2666a.35885.35885,0,0,1-.34082-.17579,1.08511,1.08511,0,0,1-.12109-.44042l-.04395-.48389q-.04394-.3955-.4834-.022A5.49874,5.49874,0,0,1,385.85817,124.86084Zm1.63867-5.42285-.61621.04394a5.59557,5.59557,0,0,0-1.14356.165,4.34083,4.34083,0,0,0-1.03418.396,2.41019,2.41019,0,0,0-.75878.63769,1.41794,1.41794,0,0,0-.29688.89112,1.28646,1.28646,0,0,0,.46191,1.04492,1.93266,1.93266,0,0,0,1.27539.38525,2.55582,2.55582,0,0,0,.9795-.17627,3.07261,3.07261,0,0,0,.7373-.418,3.1074,3.1074,0,0,0,.52735-.57177,1.03072,1.03072,0,0,0,.19824-.59424V119.812Q387.82692,119.43775,387.49684,119.438Z"/><path class="cls-5" d="M394.00856,125.00391a.55516.55516,0,0,1-.39551-.10987.51428.51428,0,0,1-.11035-.374V109.09814q0-.4182.35156-.41845h2.70606c.2207,0,.33007.13232.33007.396v5.12647c0,.17578.041.26758.1211.2749a.39151.39151,0,0,0,.27539-.12109,4.87575,4.87575,0,0,1,.80273-.605,4.51749,4.51749,0,0,1,1.02344-.45118,4.24841,4.24841,0,0,1,1.25391-.17578,4.15134,4.15134,0,0,1,2.51855.748,4.58729,4.58729,0,0,1,1.55078,2.08984,8.555,8.555,0,0,1,.52832,3.146,7.04391,7.04391,0,0,1-1.29785,4.45508,4.43914,4.43914,0,0,1-3.71777,1.66113,4.117,4.117,0,0,1-1.46289-.25342,3.92861,3.92861,0,0,1-1.166-.6709,6.16592,6.16592,0,0,1-.84765-.85791c-.0586-.07324-.11329-.10644-.165-.09912-.05078.00782-.084.0625-.09864.165l-.26367,1.05615a.49714.49714,0,0,1-.50586.44Zm2.88183-4.02588a2.07983,2.07983,0,0,0,.3086,1.144,2.20793,2.20793,0,0,0,1.8916,1.03369,2.12723,2.12723,0,0,0,1.27637-.396,2.49936,2.49936,0,0,0,.84668-1.28663,7.49771,7.49771,0,0,0,.29687-2.32128,5.61994,5.61994,0,0,0-.59375-2.94776,1.93841,1.93841,0,0,0-1.73828-.92431,2.56789,2.56789,0,0,0-1.27539.31933,3.58219,3.58219,0,0,0-1.0127.84668Z"/><path class="cls-5" d="M410.3318,111.38574c0,.36719-.19727.5503-.59375.5503h-2.376a.45666.45666,0,0,1-.38476-.13233.61.61,0,0,1-.09863-.374v-2.30957q0-.44019.373-.44043h2.72852q.35156,0,.35156.41845Zm-.04394,13.09033a.532.532,0,0,1-.13184.40674.68257.68257,0,0,1-.46191.1211h-2.30958a.3927.3927,0,0,1-.48437-.46192V113.76172q0-.41748.35156-.418h2.70606c.2207,0,.33008.125.33008.374Z"/><path class="cls-5" d="M416.14039,124.47607a.532.532,0,0,1-.13183.40674.68259.68259,0,0,1-.46192.1211h-2.332q-.48486,0-.48437-.46192l.0664-15.44385q0-.4182.35157-.41845h2.66211q.32958,0,.33007.396Z"/><path class="cls-5" d="M422.01344,111.38574c0,.36719-.19726.5503-.59375.5503h-2.376a.45666.45666,0,0,1-.38476-.13233.61.61,0,0,1-.09863-.374v-2.30957q0-.44019.373-.44043h2.72852q.35156,0,.35156.41845Zm-.04394,13.09033a.532.532,0,0,1-.13184.40674.68257.68257,0,0,1-.46191.1211h-2.30957a.39271.39271,0,0,1-.48438-.46192V113.76172q0-.41748.35156-.418h2.70606c.2207,0,.33008.125.33008.374Z"/><path class="cls-5" d="M429.31813,115.67578c-.16211,0-.24219.08789-.24219.26416v5.30176a1.38488,1.38488,0,0,0,.35156,1.06738,1.641,1.641,0,0,0,1.12207.31885h1.18848a.29484.29484,0,0,1,.24219.10986.41129.41129,0,0,1,.08789.26416l-.02246,1.3418q0,.41821-.4834.52832-.397.044-.84766.07666-.45117.033-.90136.04395-.45119.01172-.86914.01123a3.65585,3.65585,0,0,1-2.376-.71485,2.57367,2.57367,0,0,1-.87988-2.123v-6.16016q0-.32959-.28614-.33008h-1.34179c-.2793,0-.418-.12451-.418-.374v-1.62793q0-.32959.39551-.33008h1.51757c.13282,0,.20606-.08008.22071-.2417l.30761-3.34424q.022-.37353.33008-.374h2.39844q.35156,0,.35156.418v3.30029a.19421.19421,0,0,0,.21973.21973h2.31055q.3955,0,.3955.352v1.62793q0,.37427-.43945.374Z"/><path class="cls-5" d="M434.00368,128.56787a.33718.33718,0,0,1-.30762-.352V126.522a.31508.31508,0,0,1,.13183-.24218.83025.83025,0,0,1,.50586-.10987h1.4961a1.4816,1.4816,0,0,0,.75879-.19824,1.77,1.77,0,0,0,.5498-.48389,1.85366,1.85366,0,0,0,.29785-.61572.8192.8192,0,0,0-.04492-.59424l-4.22363-10.40576a.37622.37622,0,0,1,.01074-.36328.36635.36635,0,0,1,.3418-.165h2.77148a.49872.49872,0,0,1,.30762.09912.47651.47651,0,0,1,.17676.2749l2.4414,6.55616c.04395.13183.10254.20166.17676.209.07227.00732.13867-.06934.19727-.231l2.41992-6.55615a1.01318,1.01318,0,0,1,.19824-.25293.41212.41212,0,0,1,.28613-.09912h1.8916a.32032.32032,0,0,1,.3086.165.35328.35328,0,0,1,0,.34131l-4.50977,11.15381a9.73344,9.73344,0,0,1-.957,1.85888,3.98763,3.98763,0,0,1-1.08984,1.1001,3.72747,3.72747,0,0,1-1.35254.52783,9.81457,9.81457,0,0,1-1.793.14307A5.25374,5.25374,0,0,1,434.00368,128.56787Z"/><path class="cls-5" d="M453.198,124.4541a5.45807,5.45807,0,0,1-2.0791-2.123,6.28906,6.28906,0,0,1-.74805-3.0913,6.43771,6.43771,0,0,1,.77051-3.20069,5.54,5.54,0,0,1,2.11231-2.145,6.46037,6.46037,0,0,1,6.13769.01075A5.444,5.444,0,0,1,461.448,116.061a6.5792,6.5792,0,0,1,.73731,3.15673,6.335,6.335,0,0,1-.748,3.11328,5.45807,5.45807,0,0,1-2.0791,2.123,6.5451,6.5451,0,0,1-6.16016,0Zm4.45508-1.90332a2.57227,2.57227,0,0,0,.82519-1.28711,6.89578,6.89578,0,0,0,.2754-2.08984,7.0531,7.0531,0,0,0-.2754-2.145,2.64581,2.64581,0,0,0-.82519-1.28711,2.3171,2.3171,0,0,0-2.7168,0,2.66673,2.66673,0,0,0-.84668,1.28711,6.78708,6.78708,0,0,0-.28613,2.145,6.61755,6.61755,0,0,0,.28613,2.10107,2.5901,2.5901,0,0,0,.84668,1.27588,2.36421,2.36421,0,0,0,2.7168,0Z"/><path class="cls-5" d="M470.7986,113.4541a.379.379,0,0,1,.09961.26367v1.62793q0,.33033-.374.33008H468.698c-.14648,0-.21973.08106-.21973.24219v8.668c0,.27881-.11816.418-.35253.418h-2.70606q-.3296,0-.33008-.374V115.874q0-.19848-.17578-.19824h-1.584q-.39551,0-.39551-.33008v-1.62793a.37813.37813,0,0,1,.09863-.26367.41062.41062,0,0,1,.31934-.11035h1.47363q.26367,0,.26367-.33008v-1.34179a2.88493,2.88493,0,0,1,.83594-2.2002,3.29122,3.29122,0,0,1,2.35449-.792h2.22168c.32227,0,.48438.15429.48438.4624l.02148,1.42969a.44527.44527,0,0,1-.07715.26416.28532.28532,0,0,1-.25293.10986H469.49a.98988.98988,0,0,0-.792.36328,1.39079,1.39079,0,0,0-.30762.93506v.85791c0,.16162.08789.2417.26368.2417h1.82617A.40826.40826,0,0,1,470.7986,113.4541Z"/><path class="cls-5" d="M477.1902,124.894a.445.445,0,0,1-.11035-.33008V113.76172q0-.41748.35156-.418h2.57422c.23437,0,.35254.125.35254.374v1.29834a.15232.15232,0,0,0,.09863.16455c.06641.02246.13574-.01074.209-.09863a5.354,5.354,0,0,1,1.001-1.03418,4.83817,4.83817,0,0,1,1.15527-.68213,2.97863,2.97863,0,0,1,1.12208-.2417c.52734,0,.792.12452.792.374v2.55175q0,.35231-.33008.28614a4.3079,4.3079,0,0,0-.81445-.14307q-.41748-.033-.72559-.0332a2.44545,2.44545,0,0,0-.8252.15429,2.64691,2.64691,0,0,0-.78125.44,2.80188,2.80188,0,0,0-.57128.61621,1.24032,1.24032,0,0,0-.22071.70361v6.42432q0,.5061-.57129.50586h-2.35449A.48149.48149,0,0,1,477.1902,124.894Z"/><path class="cls-5" d="M489.43239,121.605a2.61636,2.61636,0,0,0,1.0332.96777,3.09619,3.09619,0,0,0,1.46289.34131,3.18538,3.18538,0,0,0,1.46387-.34131,4.60965,4.60965,0,0,0,1.35254-1.13281.32043.32043,0,0,1,.15429-.09912.5051.5051,0,0,1,.24219.07715l1.584.66015q.3076.13185.06542.43995a7.20745,7.20745,0,0,1-1.47363,1.606,4.83259,4.83259,0,0,1-1.70508.84668,8.06449,8.06449,0,0,1-2.10156.25342,6.1746,6.1746,0,0,1-3.05762-.748,5.55441,5.55441,0,0,1-2.123-2.0791,5.90824,5.90824,0,0,1-.78125-3.04687,6.48007,6.48007,0,0,1,.80371-3.28906,5.74133,5.74133,0,0,1,2.14453-2.167,6.18708,6.18708,0,0,1,5.918-.0332,5.24829,5.24829,0,0,1,2.01269,2.10107,6.90853,6.90853,0,0,1,.73731,3.32178,1.23693,1.23693,0,0,1-.04395.374c-.02929.08838-.13965.13965-.33008.1543h-7.47949a.23238.23238,0,0,0-.19824.08789.43866.43866,0,0,0-.06641.26416A2.69671,2.69671,0,0,0,489.43239,121.605Zm4.03613-3.64111a.54426.54426,0,0,0,.30859-.05518c.04395-.03613.06543-.1206.06543-.25293a2.75989,2.75989,0,0,0-.25293-1.12207,2.44307,2.44307,0,0,0-.748-.95654,1.99729,1.99729,0,0,0-1.26465-.38526,2.42611,2.42611,0,0,0-1.29785.35206,2.32238,2.32238,0,0,0-.87989.979,3.167,3.167,0,0,0-.30859,1.41894Z"/><path class="cls-5" d="M505.15114,115.544a3.19326,3.19326,0,0,0-1.56153-.35206,2.74569,2.74569,0,0,0-1.375.31885.97049.97049,0,0,0-.56152.86914.80584.80584,0,0,0,.2207.53907,2.09344,2.09344,0,0,0,1.01172.45117l2.53027.61572a4.54863,4.54863,0,0,1,2.59571,1.36426,3.26024,3.26024,0,0,1,.77051,2.11181,3.13209,3.13209,0,0,1-.67188,2.02393,4.245,4.245,0,0,1-1.8584,1.28711,7.666,7.666,0,0,1-2.72851.45117,7.26713,7.26713,0,0,1-3.32129-.69336,4.2301,4.2301,0,0,1-1.91406-1.72705.58618.58618,0,0,1-.0879-.29687.21919.21919,0,0,1,.13184-.209l1.49609-.77a.705.705,0,0,1,.34082-.09912.3007.3007,0,0,1,.209.12109,4.61315,4.61315,0,0,0,.68164.748,2.9346,2.9346,0,0,0,.99023.561,4.23926,4.23926,0,0,0,1.4961.187,3.99184,3.99184,0,0,0,1.11133-.14307,1.84,1.84,0,0,0,.78027-.418.87143.87143,0,0,0,.28613-.64892.84516.84516,0,0,0-.30762-.64893,2.75417,2.75417,0,0,0-1.14453-.47314l-2.26562-.48389a5.25876,5.25876,0,0,1-2.49707-1.17725,2.76184,2.76184,0,0,1-.84668-2.10058,3.44041,3.44041,0,0,1,.583-1.98047,3.88661,3.88661,0,0,1,1.70507-1.35254,6.61342,6.61342,0,0,1,2.6836-.49512,6.35575,6.35575,0,0,1,2.89258.61573,4.1932,4.1932,0,0,1,1.749,1.47412,1.08816,1.08816,0,0,1,.13281.2749c.02832.0957-.02246.17969-.15429.25293l-1.584.77a.41736.41736,0,0,1-.27539.0332.47264.47264,0,0,1-.23047-.165A3.23268,3.23268,0,0,0,505.15114,115.544Z"/><path class="cls-5" d="M516.73512,122.419a4.75327,4.75327,0,0,0,1.11035-.93506V113.8501q0-.5061.57227-.50635h2.376a.40854.40854,0,0,1,.46192.46191l-.04395,10.80225q0,.39624-.35156.396H518.242c-.22071,0-.33008-.12452-.33008-.374v-1.07812c0-.08789-.02246-.14307-.06641-.165s-.10254.0039-.17578.07715a6.1073,6.1073,0,0,1-1.83691,1.353,4.73305,4.73305,0,0,1-1.94727.40723,3.5163,3.5163,0,0,1-1.72656-.41846,2.99984,2.99984,0,0,1-1.19922-1.2207,3.89394,3.89394,0,0,1-.44043-1.90283v-7.81006a.4673.4673,0,0,1,.52832-.52832H513.49q.41748,0,.418.46191v7.39209a1.60841,1.60841,0,0,0,.40625,1.15528,1.48947,1.48947,0,0,0,1.13379.42871A2.46316,2.46316,0,0,0,516.73512,122.419Z"/><path class="cls-5" d="M527.06325,124.47607a.532.532,0,0,1-.13184.40674.68257.68257,0,0,1-.46191.1211h-2.332q-.48486,0-.48437-.46192l.06641-15.44385q0-.4182.35156-.41845h2.66211q.32958,0,.33008.396Z"/><path class="cls-5" d="M534.4109,115.67578c-.16211,0-.24219.08789-.24219.26416v5.30176a1.38484,1.38484,0,0,0,.35157,1.06738,1.641,1.641,0,0,0,1.12207.31885h1.18847a.29484.29484,0,0,1,.24219.10986.41123.41123,0,0,1,.08789.26416l-.02246,1.3418q0,.41821-.4834.52832-.397.044-.84765.07666-.45117.033-.90137.04395-.45117.01172-.86914.01123a3.65585,3.65585,0,0,1-2.376-.71485,2.57369,2.57369,0,0,1-.87988-2.123v-6.16016q0-.32959-.28613-.33008h-1.3418c-.2793,0-.418-.12451-.418-.374v-1.62793q0-.32959.39551-.33008h1.51758c.13281,0,.20605-.08008.2207-.2417l.30762-3.34424q.022-.37353.33008-.374H533.905q.35157,0,.35157.418v3.30029a.19421.19421,0,0,0,.21972.21973h2.31055q.39551,0,.39551.352v1.62793q0,.37427-.43946.374Z"/><path class="cls-5" d="M545.1902,115.544a3.19322,3.19322,0,0,0-1.56152-.35206,2.74567,2.74567,0,0,0-1.375.31885.97049.97049,0,0,0-.56153.86914.80581.80581,0,0,0,.22071.53907,2.09334,2.09334,0,0,0,1.01171.45117l2.53028.61572a4.54863,4.54863,0,0,1,2.5957,1.36426,3.26024,3.26024,0,0,1,.77051,2.11181,3.13209,3.13209,0,0,1-.67188,2.02393,4.245,4.245,0,0,1-1.8584,1.28711,7.666,7.666,0,0,1-2.72851.45117,7.26716,7.26716,0,0,1-3.32129-.69336,4.2301,4.2301,0,0,1-1.91406-1.72705.58626.58626,0,0,1-.08789-.29687.21919.21919,0,0,1,.13183-.209l1.4961-.77a.70494.70494,0,0,1,.34082-.09912.30068.30068,0,0,1,.209.12109,4.61315,4.61315,0,0,0,.68164.748,2.93456,2.93456,0,0,0,.99024.561,4.23917,4.23917,0,0,0,1.49609.187,3.99179,3.99179,0,0,0,1.11133-.14307,1.84,1.84,0,0,0,.78027-.418.87143.87143,0,0,0,.28613-.64892.84515.84515,0,0,0-.30761-.64893,2.75429,2.75429,0,0,0-1.14453-.47314l-2.26563-.48389a5.25876,5.25876,0,0,1-2.49707-1.17725,2.76184,2.76184,0,0,1-.84668-2.10058,3.44048,3.44048,0,0,1,.583-1.98047,3.88658,3.88658,0,0,1,1.70508-1.35254,6.61334,6.61334,0,0,1,2.68359-.49512,6.35575,6.35575,0,0,1,2.89258.61573,4.1932,4.1932,0,0,1,1.749,1.47412,1.08782,1.08782,0,0,1,.13281.2749c.02833.0957-.02246.17969-.15429.25293l-1.584.77a.41736.41736,0,0,1-.27539.0332.47269.47269,0,0,1-.23047-.165A3.23268,3.23268,0,0,0,545.1902,115.544Z"/><path class="cls-3" d="M88.907,188.24365a9.0025,9.0025,0,0,1,2.627,1.35059,7.71307,7.71307,0,0,1,1.90137,2.03222,6.7667,6.7667,0,0,1,.97265,2.5254,1.07742,1.07742,0,0,1,.04395.60937.38864.38864,0,0,1-.334.17383l-3.91894.26172c-.17481,0-.28613-.03321-.334-.10157a1.02268,1.02268,0,0,1-.13086-.334,5.01138,5.01138,0,0,0-1.248-2.48242,3.40736,3.40736,0,0,0-2.584-.97168A3.94224,3.94224,0,0,0,82.491,193.063q-1.2334,1.75635-1.2334,5.6748,0,3.89063,1.17578,5.64649a3.96168,3.96168,0,0,0,3.52735,1.75683,4.978,4.978,0,0,0,2.90234-.84179,5.979,5.979,0,0,0,2.00293-2.874c.07715-.1748.291-.23242.63867-.1748l2.84571.61035a.4747.4747,0,0,1,.26074.15918q.11572.13037.05761.56641a6.42563,6.42563,0,0,1-.56543,1.42187,9.88491,9.88491,0,0,1-1.11816,1.66992,8.58061,8.58061,0,0,1-1.72656,1.582,9.09753,9.09753,0,0,1-2.39551,1.17579,9.90075,9.90075,0,0,1-3.10547.44921,9.4485,9.4485,0,0,1-5.21094-1.42187,9.25165,9.25165,0,0,1-3.41113-3.94824,13.61027,13.61027,0,0,1-1.19043-5.86426,13.01431,13.01431,0,0,1,1.19043-5.791A8.834,8.834,0,0,1,80.532,189.1001a9.90155,9.90155,0,0,1,5.22558-1.335A10.11169,10.11169,0,0,1,88.907,188.24365Z"/><path class="cls-3" d="M100.3445,208.86963a7.20037,7.20037,0,0,1-2.74414-2.80176,8.281,8.281,0,0,1-.98633-4.07812,8.4945,8.4945,0,0,1,1.01562-4.22364,7.333,7.333,0,0,1,2.78711-2.83105,8.52764,8.52764,0,0,1,8.09961.01465,7.20864,7.20864,0,0,1,2.71484,2.84472,8.70465,8.70465,0,0,1,.97071,4.166,8.3424,8.3424,0,0,1-.98633,4.10742,7.20887,7.20887,0,0,1-2.74219,2.80176,8.64055,8.64055,0,0,1-8.1289,0Zm5.8789-2.51074a3.40745,3.40745,0,0,0,1.08789-1.69825,9.10676,9.10676,0,0,0,.36328-2.75781,9.31288,9.31288,0,0,0-.36328-2.83105,3.497,3.497,0,0,0-1.08789-1.69824,3.06094,3.06094,0,0,0-3.58594,0,3.52113,3.52113,0,0,0-1.11718,1.69824,8.978,8.978,0,0,0-.377,2.83105,8.7437,8.7437,0,0,0,.377,2.77149,3.423,3.423,0,0,0,1.11718,1.68457,3.12541,3.12541,0,0,0,3.58594,0Z"/><path class="cls-3" d="M122.85621,197.11279a4.21608,4.21608,0,0,0-2.06152-.46484,3.62018,3.62018,0,0,0-1.81348.4209,1.27842,1.27842,0,0,0-.74023,1.14648,1.065,1.065,0,0,0,.29.71192,2.76256,2.76256,0,0,0,1.335.59472l3.33887.8125a6.01071,6.01071,0,0,1,3.4248,1.79981,4.30656,4.30656,0,0,1,1.0166,2.78711,4.1356,4.1356,0,0,1-.88574,2.6709,5.61454,5.61454,0,0,1-2.45312,1.69824,10.1052,10.1052,0,0,1-3.59961.59472,9.59163,9.59163,0,0,1-4.38282-.91406,5.595,5.595,0,0,1-2.52636-2.2793.78758.78758,0,0,1-.11524-.3916.28759.28759,0,0,1,.17383-.27539l1.97363-1.0166a.921.921,0,0,1,.4502-.12988.39134.39134,0,0,1,.27539.15918,6.104,6.104,0,0,0,.90039.9873,3.87861,3.87861,0,0,0,1.30664.74024,5.60472,5.60472,0,0,0,1.97363.24609,5.27084,5.27084,0,0,0,1.46582-.18848,2.41554,2.41554,0,0,0,1.03028-.55175,1.14627,1.14627,0,0,0,.37793-.85645,1.11491,1.11491,0,0,0-.40625-.85547,3.63449,3.63449,0,0,0-1.50977-.625l-2.99023-.63867a6.92667,6.92667,0,0,1-3.29492-1.55273,3.64327,3.64327,0,0,1-1.11719-2.77247,4.532,4.532,0,0,1,.76953-2.6123,5.13336,5.13336,0,0,1,2.249-1.78516,8.73511,8.73511,0,0,1,3.542-.65332,8.39285,8.39285,0,0,1,3.81739.8125,5.53484,5.53484,0,0,1,2.30761,1.94532,1.41792,1.41792,0,0,1,.17383.3623c.03907.127-.02832.23731-.20312.334l-2.08985,1.0166a.55059.55059,0,0,1-.36328.043.61594.61594,0,0,1-.30468-.21778A4.25464,4.25464,0,0,0,122.85621,197.11279Z"/><path class="cls-3" d="M136.0652,197.28662q-.31934,0-.31934.34863v6.9961a1.826,1.826,0,0,0,.46387,1.4082,2.16843,2.16843,0,0,0,1.48145.4209h1.56738a.3882.3882,0,0,1,.31933.14453.54577.54577,0,0,1,.11622.34863l-.0293,1.77051q0,.55225-.63867.69727-.523.05859-1.11817.10156-.59472.04248-1.18945.05762c-.39746.00976-.7793.01464-1.14746.01464a4.82584,4.82584,0,0,1-3.13477-.94335,3.39583,3.39583,0,0,1-1.16113-2.80176v-8.12793q0-.43506-.37695-.43555h-1.77149q-.55078,0-.55078-.49316V194.645q0-.43506.52246-.43555h2.00293c.17383,0,.27051-.10547.29-.31933l.40625-4.41211c.01953-.3291.16406-.49317.43555-.49317h3.16406q.46435,0,.46484.55078v4.3545a.256.256,0,0,0,.29.29H139.2q.523,0,.52247.46484v2.14844q0,.49365-.58008.49316Z"/><path class="cls-3" d="M151.14528,208.86963a7.20469,7.20469,0,0,1-2.74317-2.80176,8.28115,8.28115,0,0,1-.98633-4.07812,8.49451,8.49451,0,0,1,1.01563-4.22364,7.31959,7.31959,0,0,1,2.78711-2.83105,8.52571,8.52571,0,0,1,8.09863.01465,7.19535,7.19535,0,0,1,2.71485,2.84472,8.69384,8.69384,0,0,1,.97168,4.166,8.353,8.353,0,0,1-.98633,4.10742,7.21133,7.21133,0,0,1-2.74317,2.80176,8.64056,8.64056,0,0,1-8.1289,0Zm5.8789-2.51074a3.40216,3.40216,0,0,0,1.08887-1.69825,9.1401,9.1401,0,0,0,.36231-2.75781,9.34674,9.34674,0,0,0-.36231-2.83105,3.49143,3.49143,0,0,0-1.08887-1.69824,3.05943,3.05943,0,0,0-3.585,0,3.52243,3.52243,0,0,0-1.11816,1.69824,8.97828,8.97828,0,0,0-.37695,2.83105,8.744,8.744,0,0,0,.37695,2.77149,3.42427,3.42427,0,0,0,1.11816,1.68457,3.12386,3.12386,0,0,0,3.585,0Z"/><path class="cls-3" d="M174.36891,194.355a.503.503,0,0,1,.12988.34863v2.14746c0,.291-.16406.43555-.49316.43555h-2.40918q-.29151,0-.291.31934v11.4375q0,.55224-.46386.55175h-3.57032c-.291,0-.43554-.16406-.43554-.49316V197.54834c0-.1748-.07813-.26172-.23243-.26172h-2.08984c-.34863,0-.52246-.14453-.52246-.43555v-2.14746a.503.503,0,0,1,.12988-.34863.54125.54125,0,0,1,.4209-.14551h1.94531c.23243,0,.34864-.14453.34864-.43554v-1.77051a3.80856,3.80856,0,0,1,1.10254-2.90332,4.342,4.342,0,0,1,3.10644-1.04492h2.93164q.63867,0,.63867.61035l.0293,1.88672a.59151.59151,0,0,1-.10156.34765.37831.37831,0,0,1-.334.14551h-1.56738a1.30767,1.30767,0,0,0-1.04492.47949,1.83744,1.83744,0,0,0-.40625,1.2334v1.13184c0,.21386.11523.31933.34766.31933H173.948A.54409.54409,0,0,1,174.36891,194.355Z"/><path class="cls-3" d="M41.02321,223.07861a8.99574,8.99574,0,0,1,2.62793,1.35059,7.72907,7.72907,0,0,1,1.90136,2.03223,6.74814,6.74814,0,0,1,.97168,2.52539,1.07742,1.07742,0,0,1,.04395.60937.38727.38727,0,0,1-.334.17383l-3.91894.26172c-.17383,0-.28516-.0332-.334-.10156a1.02537,1.02537,0,0,1-.12988-.334,5.02059,5.02059,0,0,0-1.249-2.48242,3.40508,3.40508,0,0,0-2.583-.97168,3.93991,3.93991,0,0,0-3.41113,1.75586q-1.23486,1.75635-1.2334,5.6748,0,3.8899,1.1748,5.646a3.96278,3.96278,0,0,0,3.52735,1.75684,4.98328,4.98328,0,0,0,2.90332-.8418,5.98551,5.98551,0,0,0,2.00293-2.874c.07715-.17481.29-.23243.63867-.17481l2.84473.61035a.477.477,0,0,1,.26171.15918c.07715.08692.09571.27539.05762.56641a6.43513,6.43513,0,0,1-.5664,1.42187,9.81768,9.81768,0,0,1-1.11719,1.66993,8.61422,8.61422,0,0,1-1.72754,1.582,9.09089,9.09089,0,0,1-2.39453,1.17578,9.91141,9.91141,0,0,1-3.10645.44922,9.45075,9.45075,0,0,1-5.21093-1.42188,9.25816,9.25816,0,0,1-3.41114-3.94824,13.62372,13.62372,0,0,1-1.18945-5.86377,13.02779,13.02779,0,0,1,1.18945-5.791,8.84017,8.84017,0,0,1,3.39649-3.75976,9.904,9.904,0,0,1,5.22558-1.335A10.11169,10.11169,0,0,1,41.02321,223.07861Z"/><path class="cls-3" d="M49.45582,243.84863V223.44189c0-.36718.15528-.55175.46485-.55175h3.4834q.43506,0,.43554.49414v7.43066c0,.11621.0293.18945.08692.21777.05859.0293.1455-.0039.26172-.10156a10.41326,10.41326,0,0,1,1.69824-1.27734,6.70407,6.70407,0,0,1,1.59668-.68164,6.07114,6.07114,0,0,1,1.61035-.21778A4.53162,4.53162,0,0,1,62.49,229.97314a4.698,4.698,0,0,1,1.19043,3.42579V243.7334a.6157.6157,0,0,1-.69629.69629H59.76149a.5779.5779,0,0,1-.4209-.13086.6246.6246,0,0,1-.13086-.4502v-9.811a1.85717,1.85717,0,0,0-2.08984-2.06055,3.08722,3.08722,0,0,0-1.13184.20313,3.89,3.89,0,0,0-1.0166.59472,8.85557,8.85557,0,0,0-1.04492,1.002v9.98486q0,.668-.75489.668H50.06618Q49.45533,244.42969,49.45582,243.84863Z"/><path class="cls-3" d="M73.01344,244.24121a6.472,6.472,0,0,1-2.56933.47852,4.8523,4.8523,0,0,1-3.46875-1.19043,4.00125,4.00125,0,0,1-1.2627-3.04785,4.30717,4.30717,0,0,1,1.01562-2.84473,6.58883,6.58883,0,0,1,2.90333-1.90137,14.21457,14.21457,0,0,1,4.499-.73974l1.0166-.08692a.61173.61173,0,0,0,.31836-.08691.34168.34168,0,0,0,.14551-.31934v-.61035a2.3038,2.3038,0,0,0-.63867-1.72656,2.50941,2.50941,0,0,0-1.82911-.624,3.73608,3.73608,0,0,0-1.66894.39161,3.22414,3.22414,0,0,0-1.34961,1.3496.49852.49852,0,0,1-.20313.26172.78191.78191,0,0,1-.43554,0l-2.90332-.668a.41246.41246,0,0,1-.2461-.18847c-.04882-.08692-.01465-.27637.10157-.56641a4.80509,4.80509,0,0,1,2.51074-2.54,10.42825,10.42825,0,0,1,4.39746-.82715,9.91546,9.91546,0,0,1,3.832.60938A4.20559,4.20559,0,0,1,79.24,231.062a4.92653,4.92653,0,0,1,.63868,2.54v10.189a.80349.80349,0,0,1-.11622.49316.53167.53167,0,0,1-.43554.14551H76.33668a.47091.47091,0,0,1-.44922-.23242,1.40628,1.40628,0,0,1-.16015-.58008l-.05762-.63867q-.05859-.523-.63867-.0293A7.27177,7.27177,0,0,1,73.01344,244.24121Zm2.16211-7.15625-.8125.05859a7.37192,7.37192,0,0,0-1.50977.21778,5.71587,5.71587,0,0,0-1.36425.52246,3.17028,3.17028,0,0,0-1.002.8418,1.87418,1.87418,0,0,0-.3916,1.17578,1.7018,1.7018,0,0,0,.60938,1.3789,2.55448,2.55448,0,0,0,1.68457.50782,3.36667,3.36667,0,0,0,1.291-.23243,4.00752,4.00752,0,0,0,.97266-.55175,4.12915,4.12915,0,0,0,.69727-.75489,1.356,1.356,0,0,0,.26074-.7832V237.5791Q75.6111,237.08545,75.17555,237.085Z"/><path class="cls-3" d="M83.10036,243.84863V229.59619c0-.36719.15527-.55176.46484-.55176h3.51269q.43506,0,.43555.49414v1.42188a.26053.26053,0,0,0,.08692.23242c.05761.03906.14453,0,.26074-.11621a13.67818,13.67818,0,0,1,1.50976-1.21875,6.55419,6.55419,0,0,1,1.59668-.81348,5.48463,5.48463,0,0,1,1.79981-.29,4.2787,4.2787,0,0,1,4.58691,4.58692V243.7334a.616.616,0,0,1-.69726.69629H93.43532a.57633.57633,0,0,1-.4209-.13086.62014.62014,0,0,1-.13086-.4502v-9.811a2.06662,2.06662,0,0,0-.53711-1.52442,2.14842,2.14842,0,0,0-1.582-.53613,3.08722,3.08722,0,0,0-1.13184.20313,3.89,3.89,0,0,0-1.0166.59472,8.85634,8.85634,0,0,0-1.04492,1.002v9.98486q0,.668-.75488.668H83.70973Q83.10035,244.42969,83.10036,243.84863Z"/><path class="cls-3" d="M116.38258,228.522a.64462.64462,0,0,1,.16016.49317v1.97461a.74284.74284,0,0,1-.17481.56543.54765.54765,0,0,1-.49316.10253,6.56979,6.56979,0,0,0-.74024-.07324,2.4336,2.4336,0,0,0-.624.04395q-.78369.11572-.581.668c.03906.17382.09179.36718.16015.58007a2.40289,2.40289,0,0,1,.10157.72559,4.0623,4.0623,0,0,1-.76954,2.395,5.126,5.126,0,0,1-2.33691,1.72656,10.35133,10.35133,0,0,1-3.88965.63867,10.5314,10.5314,0,0,0-1.8584.13086,2.61365,2.61365,0,0,0-1.001.34864.60216.60216,0,0,0-.30469.47851.56311.56311,0,0,0,.44922.53711,5.41076,5.41076,0,0,0,1.3789.21778l4.15137.23242a7.43745,7.43745,0,0,1,4.3252,1.30664,3.60109,3.60109,0,0,1,1.36523,2.90234,4.18122,4.18122,0,0,1-2.09082,3.59961,11.142,11.142,0,0,1-6.1543,1.39356,16.51006,16.51006,0,0,1-6.32812-.92872,3.00968,3.00968,0,0,1-2.11914-2.8164,2.03489,2.03489,0,0,1,.78418-1.6543,6.71721,6.71721,0,0,1,2.00293-1.07422q.37645-.145,0-.31933a4.02372,4.02372,0,0,1-1.20508-.85645,1.80509,1.80509,0,0,1-.47852-1.292,1.67014,1.67014,0,0,1,.377-1.05957,4.01213,4.01213,0,0,1,1.0166-.88477,7.5209,7.5209,0,0,1,1.42187-.69726.383.383,0,0,0,.20313-.15918c.03906-.06738-.00977-.13086-.14453-.18848a5.31763,5.31763,0,0,1-2.09082-1.626,3.81184,3.81184,0,0,1-.72559-2.32177,4.09842,4.09842,0,0,1,1.87207-3.4834,9.37728,9.37728,0,0,1,5.47266-1.33594,9.6565,9.6565,0,0,1,2.75781.34863,5.25417,5.25417,0,0,1,1.88672.958.63659.63659,0,0,0,.4209.13086.50091.50091,0,0,0,.36328-.18847,4.63775,4.63775,0,0,1,.89941-.8418,5.14048,5.14048,0,0,1,1.10352-.61035,2.80882,2.80882,0,0,1,1.01562-.23243A.6027.6027,0,0,1,116.38258,228.522Zm-11.36523,15.03662a2.65012,2.65012,0,0,0-1.10254.17481,2.29478,2.29478,0,0,0-.8711.58008,1.24444,1.24444,0,0,0-.34863.87109,1.58516,1.58516,0,0,0,.49414,1.16113,3.31767,3.31767,0,0,0,1.59668.75489,13.38124,13.38124,0,0,0,2.96094.26074,6.662,6.662,0,0,0,3.00391-.53711,1.6667,1.6667,0,0,0,1.03125-1.52344,1.28743,1.28743,0,0,0-.56641-1.04492,3.07978,3.07978,0,0,0-1.72754-.49414Zm4.39843-8.11328a2.387,2.387,0,0,0,.71094-1.75635,2.63533,2.63533,0,0,0-.71094-1.90136,3.0028,3.0028,0,0,0-2.25-.74024,3.08867,3.08867,0,0,0-2.20605.74024,2.50152,2.50152,0,0,0-.78418,1.90136,2.2775,2.2775,0,0,0,.78418,1.75635,3.164,3.164,0,0,0,2.20605.71094A3.07577,3.07577,0,0,0,109.41578,235.44531Z"/><path class="cls-3" d="M122.30446,239.94434a3.46734,3.46734,0,0,0,1.36425,1.27734,4.07989,4.07989,0,0,0,1.93067.4502,4.193,4.193,0,0,0,1.93066-.4502,6.06936,6.06936,0,0,0,1.78516-1.49512.41687.41687,0,0,1,.20312-.12988.66158.66158,0,0,1,.31934.10156l2.08984.87012c.27149.11621.29981.31055.08789.581a9.50828,9.50828,0,0,1-1.94531,2.11914,6.36646,6.36646,0,0,1-2.25,1.11719,10.617,10.617,0,0,1-2.77246.334,8.14664,8.14664,0,0,1-4.03516-.98633,7.32417,7.32417,0,0,1-2.80078-2.74414,7.78711,7.78711,0,0,1-1.03027-4.02051,8.55288,8.55288,0,0,1,1.05957-4.33936,7.57886,7.57886,0,0,1,2.83008-2.85937,8.16344,8.16344,0,0,1,7.80859-.043,6.9246,6.9246,0,0,1,2.65625,2.77246,9.11041,9.11041,0,0,1,.97266,4.38233,1.61894,1.61894,0,0,1-.0586.49414c-.03906.11523-.18359.18359-.43457.20312h-9.87011a.30791.30791,0,0,0-.26172.11621.57886.57886,0,0,0-.08692.34766A3.55392,3.55392,0,0,0,122.30446,239.94434Zm5.32715-4.80372a.716.716,0,0,0,.40625-.07324c.05859-.04785.08691-.15869.08691-.33349a3.64563,3.64563,0,0,0-.334-1.48047,3.23438,3.23438,0,0,0-.98632-1.2627,2.645,2.645,0,0,0-1.66993-.50781,3.19875,3.19875,0,0,0-1.71191.46484,3.06073,3.06073,0,0,0-1.16113,1.292,4.18092,4.18092,0,0,0-.40723,1.87158Z"/><path class="cls-3" d="M147.87965,223.021a.25437.25437,0,0,1-.04394.24707,32.45905,32.45905,0,0,0-2.30762,6.15429,26.03253,26.03253,0,0,0-.88574,6.76319,24.65714,24.65714,0,0,0,.79883,6.31347,38.74152,38.74152,0,0,0,2.30761,6.31446.28854.28854,0,0,1,.0293.27539c-.03906.08691-.13574.13086-.291.13086h-2.35058a.584.584,0,0,1-.49414-.31934q-1.19092-2.0625-2.08985-4.03516a21.674,21.674,0,0,1-1.39355-4.10742,20.38964,20.38964,0,0,1-.49317-4.60156,21.27809,21.27809,0,0,1,1.11719-6.90869,26.20621,26.20621,0,0,1,2.918-6.00879.79963.79963,0,0,1,.667-.34863h2.23535C147.75856,222.89014,147.85036,222.93408,147.87965,223.021Z"/><path class="cls-3" d="M162.62672,223.07861a9.00255,9.00255,0,0,1,2.627,1.35059,7.71291,7.71291,0,0,1,1.90136,2.03223,6.76644,6.76644,0,0,1,.97266,2.52539,1.06486,1.06486,0,0,1,.043.60937.3859.3859,0,0,1-.334.17383l-3.91894.26172c-.17383,0-.28516-.0332-.333-.10156a1.001,1.001,0,0,1-.13086-.334,5.01139,5.01139,0,0,0-1.24805-2.48242,3.40732,3.40732,0,0,0-2.584-.97168,3.94107,3.94107,0,0,0-3.41113,1.75586q-1.23341,1.75635-1.2334,5.6748,0,3.8899,1.17578,5.646a3.96,3.96,0,0,0,3.52637,1.75684,4.979,4.979,0,0,0,2.90332-.8418,5.98551,5.98551,0,0,0,2.00293-2.874c.07715-.17481.29-.23243.63867-.17481l2.84473.61035a.477.477,0,0,1,.26171.15918q.11573.13038.05762.56641a6.42612,6.42612,0,0,1-.56543,1.42187,9.88457,9.88457,0,0,1-1.11816,1.66993,8.56126,8.56126,0,0,1-1.72754,1.582,9.091,9.091,0,0,1-2.39453,1.17578,9.91146,9.91146,0,0,1-3.10645.44922,9.44747,9.44747,0,0,1-5.21-1.42188,9.24511,9.24511,0,0,1-3.41113-3.94824,13.60935,13.60935,0,0,1-1.19043-5.86377,13.0142,13.0142,0,0,1,1.19043-5.791,8.82781,8.82781,0,0,1,3.39648-3.75976,9.89806,9.89806,0,0,1,5.22461-1.335A10.11787,10.11787,0,0,1,162.62672,223.07861Z"/><path class="cls-3" d="M174.06325,243.7041a7.20456,7.20456,0,0,1-2.74317-2.80176,8.28112,8.28112,0,0,1-.98633-4.07812,8.4925,8.4925,0,0,1,1.01563-4.22315,7.31952,7.31952,0,0,1,2.78711-2.83105,8.52571,8.52571,0,0,1,8.09863.01465,7.19526,7.19526,0,0,1,2.71484,2.84472,8.69178,8.69178,0,0,1,.97168,4.16553,8.353,8.353,0,0,1-.98632,4.10742,7.21133,7.21133,0,0,1-2.74317,2.80176,8.64048,8.64048,0,0,1-8.1289,0Zm5.8789-2.51074a3.40217,3.40217,0,0,0,1.08887-1.69824,9.14024,9.14024,0,0,0,.3623-2.75782,9.34337,9.34337,0,0,0-.3623-2.83056,3.49143,3.49143,0,0,0-1.08887-1.69824,3.05943,3.05943,0,0,0-3.585,0,3.52243,3.52243,0,0,0-1.11816,1.69824,8.97471,8.97471,0,0,0-.377,2.83056,8.7437,8.7437,0,0,0,.377,2.77149,3.42427,3.42427,0,0,0,1.11816,1.68457,3.12386,3.12386,0,0,0,3.585,0Z"/><path class="cls-3" d="M201.06129,223.07861a9.00243,9.00243,0,0,1,2.627,1.35059,7.71291,7.71291,0,0,1,1.90136,2.03223,6.76644,6.76644,0,0,1,.97266,2.52539,1.06486,1.06486,0,0,1,.043.60937.3859.3859,0,0,1-.334.17383l-3.91894.26172c-.17383,0-.28516-.0332-.333-.10156a1.001,1.001,0,0,1-.13086-.334,5.01139,5.01139,0,0,0-1.24805-2.48242,3.40732,3.40732,0,0,0-2.584-.97168,3.94107,3.94107,0,0,0-3.41113,1.75586q-1.23341,1.75635-1.2334,5.6748,0,3.8899,1.17578,5.646a3.96,3.96,0,0,0,3.52637,1.75684,4.979,4.979,0,0,0,2.90332-.8418,5.98551,5.98551,0,0,0,2.00293-2.874c.07715-.17481.29-.23243.63867-.17481l2.84473.61035a.477.477,0,0,1,.26171.15918q.11573.13038.05762.56641a6.42563,6.42563,0,0,1-.56543,1.42187,9.88457,9.88457,0,0,1-1.11816,1.66993,8.56126,8.56126,0,0,1-1.72754,1.582,9.09089,9.09089,0,0,1-2.39453,1.17578,9.91146,9.91146,0,0,1-3.10645.44922,9.44747,9.44747,0,0,1-5.21-1.42188,9.24511,9.24511,0,0,1-3.41113-3.94824,13.60935,13.60935,0,0,1-1.19043-5.86377,13.0142,13.0142,0,0,1,1.19043-5.791,8.82781,8.82781,0,0,1,3.39648-3.75976,9.89806,9.89806,0,0,1,5.22461-1.335A10.11787,10.11787,0,0,1,201.06129,223.07861Z"/><path class="cls-3" d="M208.65211,222.89014h2.23535a.79964.79964,0,0,1,.667.34863,26.20621,26.20621,0,0,1,2.918,6.00879,21.30413,21.30413,0,0,1,1.11718,6.90869,20.38965,20.38965,0,0,1-.49316,4.60156,21.674,21.674,0,0,1-1.39356,4.10742q-.90087,1.97314-2.08984,4.03516a.65429.65429,0,0,1-.52246.31934h-2.32227c-.15527,0-.25195-.04395-.291-.13086a.338.338,0,0,1,0-.27539,37.31745,37.31745,0,0,0,2.33691-6.31446,24.70045,24.70045,0,0,0,.79883-6.31347,26.07451,26.07451,0,0,0-.88574-6.76319,31.30019,31.30019,0,0,0-2.33692-6.15429.30954.30954,0,0,1-.01464-.24707C208.405,222.93408,208.49684,222.89014,208.65211,222.89014Z"/><path class="cls-3" d="M80.03883,264.083a.49416.49416,0,0,1,0,.46484l-4.73144,14.25293a.75323.75323,0,0,1-.21778.36328.63062.63062,0,0,1-.39258.10156H72.31715a.72286.72286,0,0,1-.75488-.55175l-2.49609-7.98242c-.07813-.19336-.15528-.291-.23243-.291-.07812,0-.13574.09766-.1748.291l-2.55469,8.06933a.60876.60876,0,0,1-.18848.36328.68575.68575,0,0,1-.42089.10156H63.02711a.7057.7057,0,0,1-.72558-.55175L57.6277,264.57715a.576.576,0,0,1,.04394-.49414.4644.4644,0,0,1,.4209-.20313H61.489a.68207.68207,0,0,1,.3916.13086.60384.60384,0,0,1,.24707.36328l2.584,8.21485c.03809.17383.10157.26172.18848.26172s.15918-.09668.21777-.291l2.4961-8.21484a.62211.62211,0,0,1,.23242-.334.65874.65874,0,0,1,.40625-.13086h2.43848a.67978.67978,0,0,1,.3916.13086.49664.49664,0,0,1,.21777.36328l2.52637,8.21485c.05761.17383.125.26172.20312.26172.07715,0,.1543-.09668.23145-.291l2.49707-8.21484a1.17264,1.17264,0,0,1,.27539-.334.6008.6008,0,0,1,.39258-.13086h2.20605A.4292.4292,0,0,1,80.03883,264.083Z"/><path class="cls-3" d="M86.83082,261.29688q0,.72508-.7832.72558H82.91188a.60522.60522,0,0,1-.50781-.1748.80967.80967,0,0,1-.13086-.49317v-3.04785c0-.38672.165-.58105.49414-.58105H86.367c.30957,0,.46386.18457.46386.55175Zm-.05761,17.27246a.7027.7027,0,0,1-.17383.53711.90489.90489,0,0,1-.61035.15917H82.94118a.67218.67218,0,0,1-.50782-.1455.68191.68191,0,0,1-.13086-.46387V264.43164c0-.36719.15528-.55176.46485-.55176h3.57031q.43506,0,.43555.49414Z"/><path class="cls-3" d="M96.4695,266.957c-.21387,0-.31934.11621-.31934.34863v6.9961A1.826,1.826,0,0,0,96.614,275.71a2.16842,2.16842,0,0,0,1.48144.4209h1.56739a.3882.3882,0,0,1,.31933.14453.54576.54576,0,0,1,.11621.34863l-.02929,1.77051q0,.55226-.63868.69727-.52294.05859-1.11816.10156-.59473.04248-1.19043.05762c-.39648.00976-.7793.01464-1.14648.01464a4.824,4.824,0,0,1-3.13477-.94335,3.39583,3.39583,0,0,1-1.16113-2.80176v-8.12793q0-.43506-.37793-.43555H89.531q-.55224,0-.55176-.49316v-2.14844c0-.29.17481-.43555.52246-.43555h2.00293c.17481,0,.27149-.10547.291-.31933l.40625-4.41211q.02783-.49365.43554-.49317h3.16407q.46435,0,.46484.55078v4.3545a.25559.25559,0,0,0,.29.29h3.04785q.52295,0,.52246.46484v2.14844q0,.49365-.58008.49316Z"/><path class="cls-3" d="M102.5652,278.68457V258.27734c0-.36718.1543-.55175.46387-.55175h3.48339c.291,0,.43555.165.43555.49414v7.43066c0,.11621.0293.18945.08692.21777.05859.0293.1455-.0039.26171-.10156a10.4548,10.4548,0,0,1,1.69825-1.27734,6.72058,6.72058,0,0,1,1.59668-.68164,6.08362,6.08362,0,0,1,1.61132-.21778,4.53313,4.53313,0,0,1,3.39649,1.21875,4.70167,4.70167,0,0,1,1.18945,3.42579v10.335a.6153.6153,0,0,1-.69629.69628h-3.22265a.57947.57947,0,0,1-.4209-.13085.62472.62472,0,0,1-.12988-.4502v-9.81152a1.85735,1.85735,0,0,0-2.09083-2.06055,3.09107,3.09107,0,0,0-1.13183.20312,3.86988,3.86988,0,0,0-1.01563.59473,8.859,8.859,0,0,0-1.04589,1.002v9.98536q0,.668-.75391.668h-3.10645Q102.5652,279.26562,102.5652,278.68457Z"/><path class="cls-3" d="M128.32887,257.72559H132.03q.87012,0,1.36426.02929a14.41747,14.41747,0,0,1,6.44434,1.42285,8.55477,8.55477,0,0,1,3.73047,3.67188,11.99411,11.99411,0,0,1,1.2041,5.55859,12.42861,12.42861,0,0,1-1.2627,5.7627,8.59964,8.59964,0,0,1-3.832,3.77344,13.97655,13.97655,0,0,1-6.42969,1.32128H126.95c-.44628,0-.668-.23242-.668-.69628v-20.2334a.6306.6306,0,0,1,.14453-.47949.738.738,0,0,1,.49414-.13086Zm3.0332,4.00586v13.55761q0,.40577.377.40625h.55175a9.77934,9.77934,0,0,0,3.97754-.71191,4.791,4.791,0,0,0,2.39454-2.30762,11.70968,11.70968,0,0,0,.05761-8.3457,4.6752,4.6752,0,0,0-2.26367-2.2793,9.03107,9.03107,0,0,0-3.876-.72558h-.92871Q131.36207,261.3252,131.36207,261.73145Z"/><path class="cls-3" d="M152.074,274.78027a3.46739,3.46739,0,0,0,1.36426,1.27735,4.07982,4.07982,0,0,0,1.93066.45019,4.193,4.193,0,0,0,1.93066-.45019,6.06952,6.06952,0,0,0,1.78516-1.49512.41677.41677,0,0,1,.20313-.12988.66158.66158,0,0,1,.31933.10156l2.08984.87012c.27149.11621.29981.31054.0879.58105a9.50855,9.50855,0,0,1-1.94532,2.11914,6.36662,6.36662,0,0,1-2.25,1.11719,10.617,10.617,0,0,1-2.77246.334,8.14657,8.14657,0,0,1-4.03515-.98632,7.3242,7.3242,0,0,1-2.80079-2.74414,7.78716,7.78716,0,0,1-1.03027-4.02051,8.55472,8.55472,0,0,1,1.05957-4.33985,7.579,7.579,0,0,1,2.83008-2.85937,8.16344,8.16344,0,0,1,7.80859-.043,6.92453,6.92453,0,0,1,2.65625,2.77246,9.11239,9.11239,0,0,1,.97266,4.38281,1.61926,1.61926,0,0,1-.05859.49414c-.03907.11524-.1836.1836-.43457.20313h-9.87012a.30791.30791,0,0,0-.26172.11621.57887.57887,0,0,0-.08691.34766A3.55388,3.55388,0,0,0,152.074,274.78027Zm5.32715-4.80371a.716.716,0,0,0,.40625-.07324c.05859-.04785.08691-.15918.08691-.334a3.64577,3.64577,0,0,0-.334-1.48047,3.2345,3.2345,0,0,0-.98633-1.2627,2.645,2.645,0,0,0-1.66992-.50781,3.19876,3.19876,0,0,0-1.71192.46484,3.0608,3.0608,0,0,0-1.16113,1.292,4.18156,4.18156,0,0,0-.40723,1.87207Z"/><path class="cls-3" d="M165.32594,279.26562a.72666.72666,0,0,1-.52246-.1455.67815.67815,0,0,1-.14551-.49317V258.27734c0-.36718.1543-.55175.46485-.55175h3.57031c.29,0,.43555.1748.43555.52246v6.76465c0,.23144.05273.35253.15918.3623a.51968.51968,0,0,0,.36328-.15918,6.40055,6.40055,0,0,1,1.05957-.79883,5.98087,5.98087,0,0,1,1.34961-.59472,5.58815,5.58815,0,0,1,1.65429-.23243,5.47666,5.47666,0,0,1,3.32422.98731,6.06413,6.06413,0,0,1,2.04688,2.75781,11.31677,11.31677,0,0,1,.69629,4.15039,9.29564,9.29564,0,0,1-1.71289,5.87891,5.85825,5.85825,0,0,1-4.90528,2.1914,5.42425,5.42425,0,0,1-1.93066-.334,5.19584,5.19584,0,0,1-1.53906-.88477,8.16894,8.16894,0,0,1-1.11719-1.13281c-.07715-.0957-.15039-.13965-.21778-.12988-.06836.00976-.11132.082-.13086.21777l-.34765,1.39258a.65586.65586,0,0,1-.668.58105Zm3.80274-5.3125a2.74647,2.74647,0,0,0,.40625,1.50977,2.91725,2.91725,0,0,0,2.49609,1.36426,2.80323,2.80323,0,0,0,1.68359-.52246,3.29432,3.29432,0,0,0,1.11817-1.69824,9.91859,9.91859,0,0,0,.3916-3.0625,7.41029,7.41029,0,0,0-.7832-3.88965,2.55731,2.55731,0,0,0-2.29395-1.21973,3.40034,3.40034,0,0,0-1.68359.4209,4.733,4.733,0,0,0-1.335,1.11816Z"/><path class="cls-3" d="M188.31715,266.957q-.31933,0-.31933.34863v6.9961a1.826,1.826,0,0,0,.46386,1.4082,2.16843,2.16843,0,0,0,1.48145.4209h1.56738a.38822.38822,0,0,1,.31934.14453.54576.54576,0,0,1,.11621.34863l-.0293,1.77051q0,.55226-.63867.69727-.52294.05859-1.11816.10156-.59473.04248-1.18946.05762c-.39746.00976-.77929.01464-1.14746.01464a4.8258,4.8258,0,0,1-3.13476-.94335,3.39581,3.39581,0,0,1-1.16114-2.80176v-8.12793q0-.43506-.37695-.43555h-1.77148q-.55078,0-.55079-.49316v-2.14844q0-.43506.52247-.43555h2.00292c.17383,0,.27051-.10547.29-.31933l.40625-4.41211c.01954-.3291.16407-.49317.43555-.49317h3.16406q.46436,0,.46485.55078v4.3545a.256.256,0,0,0,.29.29h3.04785q.52294,0,.52246.46484v2.14844q0,.49365-.58008.49316Z"/></g></svg>