<svg xmlns="http://www.w3.org/2000/svg" viewBox="0 0 841.88976 467.71654"><defs><style>.cls-1{fill:#1d5493;}.cls-2{fill:#fff;}.cls-3{fill:#54575c;}.cls-4{fill:#ba3932;}.cls-5{fill:#e0635c;}</style></defs><g id="Layer_3" data-name="Layer 3"><rect class="cls-1" x="-1.94489" y="384.56889" width="845.44668" height="82.31588"/><path class="cls-2" d="M280.14844,401.49512h13.03613q.38818,0,.3877.43945l-.02588,2.32813a.47966.47966,0,0,1-.543.543h-8.251q-.49146,0-.49121.41407v3.75c0,.29394.12939.43945.3877.43945h5.48339c.293,0,.44.13867.44.41406v2.4834a.3788.3788,0,0,1-.09082.25879.4174.4174,0,0,1-.32325.10352h-5.53515c-.24121,0-.36182.10253-.36182.30957V417.04q0,.33545.28467.33594h8.8457q.46509,0,.46533.38769v2.457a.48487.48487,0,0,1-.11621.33692.52162.52162,0,0,1-.40088.1289H280.30371q-.56908,0-.56885-.543V401.98633Q279.73486,401.4956,280.14844,401.49512Z"/><path class="cls-2" d="M304.60352,407.10742a.45073.45073,0,0,1,.11669.31055V409.332q0,.38819-.43994.3877h-2.14648c-.17285,0-.25879.09472-.25879.28515v10.19043q0,.49073-.41357.49121h-3.18164q-.38818,0-.3877-.43945V409.95312c0-.15527-.06934-.23339-.207-.23339h-1.86231q-.46581,0-.46582-.3877V407.418a.45073.45073,0,0,1,.1167-.31055.48221.48221,0,0,1,.375-.1289h1.73291q.31054,0,.31055-.38868V405.0127a3.39282,3.39282,0,0,1,.98242-2.58692,3.8693,3.8693,0,0,1,2.76758-.93066h2.6123q.5691,0,.56934.543l.02588,1.68164a.52436.52436,0,0,1-.09082.30957.33637.33637,0,0,1-.29736.12988h-1.39649a1.16329,1.16329,0,0,0-.93115.42676,1.63835,1.63835,0,0,0-.36231,1.09863v1.00879q0,.28564.31055.28516h2.14649A.48221.48221,0,0,1,304.60352,407.10742Z"/><path class="cls-2" d="M315.00049,407.10742a.45073.45073,0,0,1,.1167.31055V409.332q0,.38819-.43994.3877h-2.14649c-.17285,0-.25879.09472-.25879.28515v10.19043q0,.49073-.41357.49121h-3.18164q-.38818,0-.3877-.43945V409.95312c0-.15527-.06933-.23339-.207-.23339h-1.8623q-.46583,0-.46582-.3877V407.418a.45069.45069,0,0,1,.1167-.31055.48218.48218,0,0,1,.375-.1289h1.73291q.31054,0,.31054-.38868V405.0127a3.39282,3.39282,0,0,1,.98242-2.58692,3.8693,3.8693,0,0,1,2.76758-.93066h2.61231q.56909,0,.56933.543l.02588,1.68164a.52436.52436,0,0,1-.09082.30957.33637.33637,0,0,1-.29736.12988h-1.39649a1.16329,1.16329,0,0,0-.93115.42676,1.63834,1.63834,0,0,0-.3623,1.09863v1.00879q0,.28564.31054.28516h2.14649A.48221.48221,0,0,1,315.00049,407.10742Z"/><path class="cls-2" d="M319.24268,420.04a6.41281,6.41281,0,0,1-2.44434-2.49609,7.38261,7.38261,0,0,1-.87939-3.63379,7.57559,7.57559,0,0,1,.90527-3.76368,6.52717,6.52717,0,0,1,2.48291-2.52148,7.596,7.596,0,0,1,7.21631.0127,6.39928,6.39928,0,0,1,2.41845,2.53515,7.73133,7.73133,0,0,1,.86622,3.71094,7.43772,7.43772,0,0,1-.8794,3.66016,6.4182,6.4182,0,0,1-2.44385,2.49609,7.69475,7.69475,0,0,1-7.24218,0Zm5.2373-2.23731a3.02178,3.02178,0,0,0,.97022-1.51367,8.12527,8.12527,0,0,0,.32324-2.457,8.31,8.31,0,0,0-.32324-2.52148,3.10306,3.10306,0,0,0-.97022-1.5127,2.72231,2.72231,0,0,0-3.19385,0,3.133,3.133,0,0,0-.99609,1.5127,8.00664,8.00664,0,0,0-.33594,2.52148,7.80991,7.80991,0,0,0,.33594,2.4707,3.0471,3.0471,0,0,0,.99609,1.5,2.7823,2.7823,0,0,0,3.19385,0Z"/><path class="cls-2" d="M332.16211,420.55762a.52828.52828,0,0,1-.1294-.38867V407.46973q0-.49072.41407-.49121h3.02636q.4131,0,.41358.43945v1.52637a.17842.17842,0,0,0,.11621.19336c.07764.02636.15967-.0127.24609-.11622a6.30868,6.30868,0,0,1,1.17676-1.21582,5.69055,5.69055,0,0,1,1.35791-.80175,3.50469,3.50469,0,0,1,1.31885-.28418q.93164,0,.93115.43945v3q0,.41455-.38769.33691a5.048,5.048,0,0,0-.957-.168q-.49144-.03954-.85351-.03906a2.88172,2.88172,0,0,0-.97022.18067,3.13162,3.13162,0,0,0-.918.51757,3.28877,3.28877,0,0,0-.67237.72461,1.45957,1.45957,0,0,0-.25879.82715v7.55274q0,.59472-.67236.59472h-2.76758A.56856.56856,0,0,1,332.16211,420.55762Z"/><path class="cls-2" d="M348.81885,409.71973q-.28491,0-.28467.31054v6.2334a1.62667,1.62667,0,0,0,.41406,1.25488,1.9272,1.9272,0,0,0,1.31885.375h1.397a.34484.34484,0,0,1,.28418.12891.48513.48513,0,0,1,.10352.31055l-.02588,1.57715q0,.49218-.56885.62109c-.31055.03516-.64258.06445-.9956.09082q-.531.03809-1.06055.05176-.53028.01318-1.022.01269a4.29752,4.29752,0,0,1-2.793-.84082,3.0239,3.0239,0,0,1-1.03467-2.49609v-7.24219c0-.25781-.11231-.38769-.33643-.38769h-1.57763q-.49146,0-.4917-.43946v-1.91406q0-.38819.46582-.38769H344.396c.15527,0,.24121-.09473.25879-.28516l.36181-3.93066c.01709-.293.14649-.44043.38819-.44043h2.81933q.41308,0,.41358.49218v3.87891a.22848.22848,0,0,0,.25878.25879h2.71582c.31006,0,.46534.13867.46534.41406v1.91406q0,.43946-.51709.43946Z"/><path class="cls-2" d="M365.32031,409.71973q-.28491,0-.28467.31054v6.2334a1.62663,1.62663,0,0,0,.41407,1.25488,1.92719,1.92719,0,0,0,1.31884.375h1.397a.34485.34485,0,0,1,.28418.12891.48518.48518,0,0,1,.10351.31055l-.02588,1.57715q0,.49218-.56884.62109c-.31055.03516-.64258.06445-.99561.09082q-.531.03809-1.06055.05176-.53026.01318-1.022.01269a4.29755,4.29755,0,0,1-2.793-.84082,3.0239,3.0239,0,0,1-1.03467-2.49609v-7.24219c0-.25781-.1123-.38769-.33642-.38769h-1.57764q-.49144,0-.4917-.43946v-1.91406q0-.38819.46582-.38769h1.78467c.15527,0,.24121-.09473.25879-.28516l.36182-3.93066c.01709-.293.14648-.44043.38818-.44043h2.81934q.41309,0,.41357.49218v3.87891a.22848.22848,0,0,0,.25879.25879h2.71582c.31006,0,.46533.13867.46533.41406v1.91406q0,.43946-.51709.43946Z"/><path class="cls-2" d="M372.98877,420.04a6.41281,6.41281,0,0,1-2.44434-2.49609,7.38272,7.38272,0,0,1-.87939-3.63379,7.5757,7.5757,0,0,1,.90527-3.76368,6.52724,6.52724,0,0,1,2.48291-2.52148,7.596,7.596,0,0,1,7.21631.0127,6.39937,6.39937,0,0,1,2.41846,2.53515,7.73144,7.73144,0,0,1,.86621,3.71094,7.43772,7.43772,0,0,1-.8794,3.66016A6.41817,6.41817,0,0,1,380.231,420.04a7.69477,7.69477,0,0,1-7.24219,0Zm5.2373-2.23731a3.02171,3.02171,0,0,0,.97022-1.51367,8.12527,8.12527,0,0,0,.32324-2.457,8.31,8.31,0,0,0-.32324-2.52148,3.103,3.103,0,0,0-.97022-1.5127,2.72229,2.72229,0,0,0-3.19384,0,3.133,3.133,0,0,0-.9961,1.5127,8.00667,8.00667,0,0,0-.33593,2.52148,7.80993,7.80993,0,0,0,.33593,2.4707,3.04711,3.04711,0,0,0,.9961,1.5,2.78229,2.78229,0,0,0,3.19384,0Z"/><path class="cls-2" d="M391.10693,420.169V407.46973q0-.49072.41407-.49121h3.10351q.38819,0,.3877.43945v1.26758a.2182.2182,0,0,0,.09082.207c.06054.03418.13379,0,.21972-.10352a12.39194,12.39194,0,0,1,1.34571-1.08691,6.19023,6.19023,0,0,1,1.42187-.73731,4.53537,4.53537,0,0,1,1.55274-.27148,3.98874,3.98874,0,0,1,2.33984.66016,3.523,3.523,0,0,1,1.332,1.74609.13418.13418,0,0,0,.14258.08984.352.352,0,0,0,.19336-.11621,9.02827,9.02827,0,0,1,1.35937-1.20312,6.69087,6.69087,0,0,1,1.56446-.83985,4.60774,4.60774,0,0,1,1.6289-.31054,3.8267,3.8267,0,0,1,2.88477,1.1123,4.21257,4.21257,0,0,1,1.07226,3.05176v9.18164a.549.549,0,0,1-.62109.62109h-2.87109a.51784.51784,0,0,1-.375-.11621.56466.56466,0,0,1-.11524-.40136v-8.74219a1.86664,1.86664,0,0,0-.46679-1.35742,1.75123,1.75123,0,0,0-1.31836-.47852,2.33665,2.33665,0,0,0-.957.207,4.55508,4.55508,0,0,0-.85352.49121,3.87646,3.87646,0,0,0-.67188.6211.8555.8555,0,0,0-.23242.34863,1.25185,1.25185,0,0,0-.05273.375v8.43164a.549.549,0,0,1-.6211.62109h-2.84375a.51163.51163,0,0,1-.375-.11621.55525.55525,0,0,1-.11718-.40136v-8.74219a1.87414,1.87414,0,0,0-.46485-1.35742,1.793,1.793,0,0,0-1.3457-.47852,2.646,2.646,0,0,0-1.42187.40039,6.13969,6.13969,0,0,0-1.34571,1.20313v8.89746q0,.59472-.67236.59472h-2.76758C391.28809,420.68652,391.10693,420.51465,391.10693,420.169Z"/><path class="cls-2" d="M420.44971,420.51855a5.77216,5.77216,0,0,1-2.28907.42676,4.3251,4.3251,0,0,1-3.09082-1.06054,3.56737,3.56737,0,0,1-1.125-2.71582,3.84073,3.84073,0,0,1,.90528-2.53516,5.87647,5.87647,0,0,1,2.58691-1.69336,12.66364,12.66364,0,0,1,4.00879-.66016l.90576-.07715a.54079.54079,0,0,0,.28418-.07812.30352.30352,0,0,0,.12988-.28418v-.543a2.05547,2.05547,0,0,0-.56933-1.53906,2.23814,2.23814,0,0,0-1.63037-.55664,3.33593,3.33593,0,0,0-1.48633.34961,2.87236,2.87236,0,0,0-1.20313,1.20312.442.442,0,0,1-.18066.23242.69227.69227,0,0,1-.38867,0l-2.58594-.59472a.37172.37172,0,0,1-.21973-.168q-.06591-.11719.08985-.50488a4.28517,4.28517,0,0,1,2.2373-2.2627,9.28484,9.28484,0,0,1,3.91895-.7373,8.82947,8.82947,0,0,1,3.41455.543,3.74456,3.74456,0,0,1,1.83594,1.51269,4.38892,4.38892,0,0,1,.56933,2.26367v9.07813a.71709.71709,0,0,1-.10351.44043.47754.47754,0,0,1-.3877.1289h-2.66406a.42068.42068,0,0,1-.40137-.207,1.25949,1.25949,0,0,1-.1416-.51758l-.05176-.56836q-.05272-.46581-.56933-.02636A6.4426,6.4426,0,0,1,420.44971,420.51855Zm1.92724-6.376-.72412.05176a6.58047,6.58047,0,0,0-1.34472.19433,5.09181,5.09181,0,0,0-1.21582.46582,2.812,2.812,0,0,0-.89258.75,1.66723,1.66723,0,0,0-.34864,1.04688,1.51263,1.51263,0,0,0,.543,1.22851,2.27343,2.27343,0,0,0,1.5.45313,3.01324,3.01324,0,0,0,1.15039-.207,3.09244,3.09244,0,0,0,1.4878-1.16407,1.20955,1.20955,0,0,0,.23339-.69824V414.582Q422.76562,414.14258,422.377,414.14258Z"/><path class="cls-2" d="M443.12012,420.47949a.4141.4141,0,0,1-.41309.207h-3.38867a.58477.58477,0,0,1-.41406-.14257,1.35141,1.35141,0,0,1-.28418-.4004l-2.66407-5.32812c-.05175-.1377-.1123-.21582-.18066-.2334-.06934-.0166-.15527.02637-.25879.12988l-1.83691,1.81055a.8535.8535,0,0,0-.168.24512,1.00508,1.00508,0,0,0-.06445.40137v2.89648a.62447.62447,0,0,1-.15528.47852.75418.75418,0,0,1-.51758.14257H430.0332a.60631.60631,0,0,1-.45312-.1289.61318.61318,0,0,1-.11621-.41407V401.98633q0-.49073.41406-.49121h3.18164q.38818,0,.3877.46582v10.60449a.23039.23039,0,0,0,.07714.20605c.05176.03516.12989-.00781.2334-.1289l4.86231-5.27637a1.06952,1.06952,0,0,1,.69824-.38769h2.76758q.36182,0,.43945.19336.07764.19482-.18066.45312l-3.6211,3.67285a.50724.50724,0,0,0-.168.29688.93983.93983,0,0,0,.11622.42675l4.42285,8.07032A.35172.35172,0,0,1,443.12012,420.47949Z"/><path class="cls-2" d="M447.94531,416.69043a3.07633,3.07633,0,0,0,1.21582,1.13769,3.6323,3.6323,0,0,0,1.71973.40137,3.74,3.74,0,0,0,1.71973-.40137,5.40363,5.40363,0,0,0,1.59082-1.332.37244.37244,0,0,1,.18066-.11621.59867.59867,0,0,1,.28516.09082l1.8623.77539q.36182.15528.07715.51758a8.46393,8.46393,0,0,1-1.73242,1.88867,5.70306,5.70306,0,0,1-2.00488.99512,9.46859,9.46859,0,0,1-2.46973.29785,7.25152,7.25152,0,0,1-3.5957-.87988,6.529,6.529,0,0,1-2.4961-2.44434,6.94264,6.94264,0,0,1-.918-3.582,7.61966,7.61966,0,0,1,.94434-3.86621,6.74983,6.74983,0,0,1,2.52148-2.54785,7.275,7.275,0,0,1,6.958-.03906,6.17677,6.17677,0,0,1,2.36621,2.46972,8.12779,8.12779,0,0,1,.86621,3.90625,1.43293,1.43293,0,0,1-.05175.43946c-.03418.10351-.16407.16406-.3877.18066h-8.79395a.27332.27332,0,0,0-.23242.10352.516.516,0,0,0-.07812.31054A3.17034,3.17034,0,0,0,447.94531,416.69043Zm4.7461-4.28027a.63661.63661,0,0,0,.3623-.06543c.05176-.042.07715-.14161.07715-.29688a3.24977,3.24977,0,0,0-.29785-1.31933,2.88163,2.88163,0,0,0-.87891-1.125,2.35091,2.35091,0,0,0-1.4873-.45313,2.85719,2.85719,0,0,0-1.52637.41406,2.73844,2.73844,0,0,0-1.03418,1.15137,3.73688,3.73688,0,0,0-.3623,1.668Z"/><path class="cls-2" d="M473.60254,407.30176a5.79259,5.79259,0,0,1,1.92676,1.4873,5.68092,5.68092,0,0,1,1.06054,1.86231q.18018.51708-.31054.543l-2.71582.25878a.35306.35306,0,0,1-.3877-.28515,6.61125,6.61125,0,0,0-.51758-.90527,2.35757,2.35757,0,0,0-.69824-.67188,2.0223,2.0223,0,0,0-1.08594-.25879,2.565,2.565,0,0,0-1.55273.49121,3.16058,3.16058,0,0,0-1.04688,1.48731,8.65694,8.65694,0,0,0,.0127,5.082,3.11446,3.11446,0,0,0,1.09961,1.501,2.90557,2.90557,0,0,0,1.69336.49122,2.58513,2.58513,0,0,0,1.79785-.59473,6.81964,6.81964,0,0,0,1.25488-1.60352.32383.32383,0,0,1,.15528-.15527.59286.59286,0,0,1,.28418.02539l1.91406.43945q.28417.07764.18066.49219a6.77017,6.77017,0,0,1-.64648,1.2666,5.54735,5.54735,0,0,1-1.15039,1.29395,6.21664,6.21664,0,0,1-1.7334.99512,6.52482,6.52482,0,0,1-2.39258.40136,6.9776,6.9776,0,0,1-3.543-.89258,6.44152,6.44152,0,0,1-2.44433-2.48242,7.40948,7.40948,0,0,1-.89258-3.68652,7.52313,7.52313,0,0,1,.90527-3.73731,6.58539,6.58539,0,0,1,2.457-2.52148,6.85206,6.85206,0,0,1,3.51758-.90527A6.40429,6.40429,0,0,1,473.60254,407.30176Z"/><path class="cls-2" d="M478.76172,420.169V401.98633q0-.49073.41406-.49121h3.10352q.38819,0,.38769.43945v6.62109c0,.10352.02637.168.07813.19434.05176.02539.1289-.00391.23242-.09082a9.25236,9.25236,0,0,1,1.51367-1.1377,5.93648,5.93648,0,0,1,1.42188-.60742,5.41528,5.41528,0,0,1,1.43554-.19433,4.03966,4.03966,0,0,1,3.02637,1.08593,4.18779,4.18779,0,0,1,1.06055,3.05274v9.207a.549.549,0,0,1-.6211.62109h-2.87011a.51889.51889,0,0,1-.376-.11621.55987.55987,0,0,1-.11621-.40136v-8.74219a1.655,1.655,0,0,0-1.86231-1.83594,2.77545,2.77545,0,0,0-1.00879.18066,3.52938,3.52938,0,0,0-.90527.53028,7.88676,7.88676,0,0,0-.93066.89258v8.89746q0,.59472-.67285.59472h-2.76758C478.94336,420.68652,478.76172,420.51465,478.76172,420.169Z"/><path class="cls-2" d="M499.751,420.51855a5.77216,5.77216,0,0,1-2.28907.42676,4.3251,4.3251,0,0,1-3.09082-1.06054,3.56737,3.56737,0,0,1-1.125-2.71582,3.84073,3.84073,0,0,1,.90528-2.53516,5.87647,5.87647,0,0,1,2.58691-1.69336,12.66364,12.66364,0,0,1,4.00879-.66016l.90527-.07715a.54077.54077,0,0,0,.28418-.07812.30353.30353,0,0,0,.12989-.28418v-.543a2.05547,2.05547,0,0,0-.56934-1.53906,2.23612,2.23612,0,0,0-1.62988-.55664,3.33593,3.33593,0,0,0-1.48633.34961,2.87236,2.87236,0,0,0-1.20313,1.20312.442.442,0,0,1-.18066.23242.69227.69227,0,0,1-.38867,0l-2.58594-.59472a.37172.37172,0,0,1-.21973-.168q-.06591-.11719.08985-.50488a4.28517,4.28517,0,0,1,2.2373-2.2627,9.28484,9.28484,0,0,1,3.91895-.7373,8.82846,8.82846,0,0,1,3.41406.543,3.74456,3.74456,0,0,1,1.83594,1.51269,4.38892,4.38892,0,0,1,.56933,2.26367v9.07813a.71709.71709,0,0,1-.10351.44043.47752.47752,0,0,1-.3877.1289h-2.66406a.42068.42068,0,0,1-.40137-.207,1.25964,1.25964,0,0,1-.1416-.51758l-.05176-.56836q-.05273-.46581-.56933-.02636A6.43306,6.43306,0,0,1,499.751,420.51855Zm1.92675-6.376-.72363.05176a6.58047,6.58047,0,0,0-1.34472.19433,5.092,5.092,0,0,0-1.21583.46582,2.81209,2.81209,0,0,0-.89257.75,1.66717,1.66717,0,0,0-.34864,1.04688,1.51263,1.51263,0,0,0,.543,1.22851,2.27343,2.27343,0,0,0,1.5.45313,3.01324,3.01324,0,0,0,1.15039-.207,3.62068,3.62068,0,0,0,.86719-.49121,3.669,3.669,0,0,0,.62012-.67286,1.20956,1.20956,0,0,0,.2334-.69824V414.582Q502.06641,414.14258,501.67773,414.14258Z"/><path class="cls-2" d="M508.73926,420.169V407.46973q0-.49072.41308-.49121h3.12989q.38819,0,.38769.43945v1.26758a.23379.23379,0,0,0,.07813.207c.05175.03418.1289,0,.23242-.10352a12.29828,12.29828,0,0,1,1.3457-1.08691,5.77918,5.77918,0,0,1,1.42188-.72363,4.87646,4.87646,0,0,1,1.60351-.25879,3.81241,3.81241,0,0,1,4.08692,4.08691v9.25879a.549.549,0,0,1-.6211.62109h-2.87011a.51889.51889,0,0,1-.376-.11621.55987.55987,0,0,1-.11621-.40136v-8.74219a1.83517,1.83517,0,0,0-.47852-1.35742,1.90875,1.90875,0,0,0-1.40918-.47852,2.77167,2.77167,0,0,0-1.00879.18066,3.51319,3.51319,0,0,0-.90527.53028,7.88871,7.88871,0,0,0-.93164.89258v8.89746q0,.59472-.67188.59472h-2.76757C508.91992,420.68652,508.73926,420.51465,508.73926,420.169Z"/><path class="cls-2" d="M538.39258,406.5127a.57356.57356,0,0,1,.14258.43945v1.75879a.6655.6655,0,0,1-.15528.50488.48871.48871,0,0,1-.44043.08984,5.9698,5.9698,0,0,0-.65918-.06445,2.23731,2.23731,0,0,0-.55566.03906q-.69873.104-.51758.59473.05127.2329.14258.51758a2.15461,2.15461,0,0,1,.08984.64648,3.6171,3.6171,0,0,1-.68554,2.13379,4.56858,4.56858,0,0,1-2.082,1.53906,9.22869,9.22869,0,0,1-3.46583.56934,9.32,9.32,0,0,0-1.65527.11621,2.32349,2.32349,0,0,0-.89258.31055.53757.53757,0,0,0-.27148.42676.50294.50294,0,0,0,.40137.47851,4.83712,4.83712,0,0,0,1.22851.19336l3.69824.207a6.63014,6.63014,0,0,1,3.8545,1.16406,3.21394,3.21394,0,0,1,1.21582,2.58594,3.72757,3.72757,0,0,1-1.86231,3.208,9.935,9.935,0,0,1-5.4834,1.24121,14.70677,14.70677,0,0,1-5.63867-.82812,2.68075,2.68075,0,0,1-1.88867-2.50879,1.81188,1.81188,0,0,1,.69922-1.47364,5.97316,5.97316,0,0,1,1.78418-.957c.22363-.08593.22363-.18164,0-.28515a3.57884,3.57884,0,0,1-1.07324-.7627,1.61272,1.61272,0,0,1-.42676-1.15137,1.48461,1.48461,0,0,1,.33594-.94336,3.5715,3.5715,0,0,1,.90527-.78906,6.68061,6.68061,0,0,1,1.26758-.62109.34132.34132,0,0,0,.18066-.1416c.03516-.06055-.00879-.11719-.12891-.169a4.72931,4.72931,0,0,1-1.8623-1.44824,3.39212,3.39212,0,0,1-.64648-2.06934,3.65137,3.65137,0,0,1,1.668-3.10351,8.35828,8.35828,0,0,1,4.876-1.18946,8.60828,8.60828,0,0,1,2.457.31055,4.66264,4.66264,0,0,1,1.68067.85352.57028.57028,0,0,0,.375.11621.44357.44357,0,0,0,.32324-.168,4.17788,4.17788,0,0,1,.80176-.75,4.58241,4.58241,0,0,1,.98339-.54395,2.49522,2.49522,0,0,1,.90528-.20605A.53664.53664,0,0,1,538.39258,406.5127Zm-10.126,13.39746a2.377,2.377,0,0,0-.9834.15527,2.06275,2.06275,0,0,0-.77539.51758,1.10826,1.10826,0,0,0-.31054.77637,1.41507,1.41507,0,0,0,.43945,1.03417,2.96152,2.96152,0,0,0,1.42285.67286,11.90627,11.90627,0,0,0,2.63867.23242,5.93936,5.93936,0,0,0,2.67676-.47852,1.48439,1.48439,0,0,0,.918-1.35742,1.14714,1.14714,0,0,0-.50391-.93164,2.74475,2.74475,0,0,0-1.53906-.43945Zm3.918-7.22852a2.126,2.126,0,0,0,.63379-1.56543,2.34114,2.34114,0,0,0-.63379-1.69336,2.6687,2.6687,0,0,0-2.00391-.66015,2.74748,2.74748,0,0,0-1.96582.66015,2.224,2.224,0,0,0-.69824,1.69336,2.02973,2.02973,0,0,0,.69824,1.56543,2.81913,2.81913,0,0,0,1.96582.63379A2.73773,2.73773,0,0,0,532.18457,412.68164Z"/><path class="cls-2" d="M543.669,416.69043a3.07633,3.07633,0,0,0,1.21582,1.13769,3.63223,3.63223,0,0,0,1.71972.40137,3.74,3.74,0,0,0,1.71973-.40137,5.4035,5.4035,0,0,0,1.59082-1.332.37248.37248,0,0,1,.18066-.11621.59864.59864,0,0,1,.28516.09082l1.8623.77539q.36183.15528.07715.51758a8.46393,8.46393,0,0,1-1.73242,1.88867,5.70306,5.70306,0,0,1-2.00488.99512,9.46853,9.46853,0,0,1-2.46973.29785,7.25155,7.25155,0,0,1-3.5957-.87988,6.529,6.529,0,0,1-2.4961-2.44434,6.94263,6.94263,0,0,1-.918-3.582,7.61965,7.61965,0,0,1,.94433-3.86621,6.74986,6.74986,0,0,1,2.52149-2.54785,7.275,7.275,0,0,1,6.958-.03906,6.17677,6.17677,0,0,1,2.36621,2.46972,8.12779,8.12779,0,0,1,.86622,3.90625,1.43288,1.43288,0,0,1-.05176.43946c-.03418.10351-.16406.16406-.3877.18066h-8.79394a.2733.2733,0,0,0-.23242.10352.516.516,0,0,0-.07813.31054A3.17034,3.17034,0,0,0,543.669,416.69043Zm4.74609-4.28027a.63659.63659,0,0,0,.3623-.06543c.05176-.042.07715-.14161.07715-.29688a3.24977,3.24977,0,0,0-.29785-1.31933,2.88163,2.88163,0,0,0-.87891-1.125,2.35089,2.35089,0,0,0-1.4873-.45313,2.85719,2.85719,0,0,0-1.52637.41406,2.73844,2.73844,0,0,0-1.03418,1.15137,3.73688,3.73688,0,0,0-.3623,1.668Z"/><path class="cls-2" d="M562.14844,409.56445a3.76017,3.76017,0,0,0-1.83594-.41406,3.22856,3.22856,0,0,0-1.61719.376,1.13953,1.13953,0,0,0-.65918,1.02148.951.951,0,0,0,.25879.63379,2.46057,2.46057,0,0,0,1.18946.53027l2.9746.72364a5.35065,5.35065,0,0,1,3.05176,1.60351,3.83781,3.83781,0,0,1,.90528,2.4834,3.68131,3.68131,0,0,1-.78907,2.37988,4.993,4.993,0,0,1-2.18554,1.5127,8.99472,8.99472,0,0,1-3.207.53027,8.54559,8.54559,0,0,1-3.90528-.81445,4.9809,4.9809,0,0,1-2.25-2.03125.69626.69626,0,0,1-.10351-.34863.25793.25793,0,0,1,.15527-.2461l1.75879-.90527a.82061.82061,0,0,1,.40039-.11621.35351.35351,0,0,1,.24609.14258,5.38145,5.38145,0,0,0,.80176.8789,3.451,3.451,0,0,0,1.16406.66016,4.97532,4.97532,0,0,0,1.75879.21973,4.69227,4.69227,0,0,0,1.30567-.168,2.1649,2.1649,0,0,0,.918-.49219,1.02037,1.02037,0,0,0,.33691-.7627.99318.99318,0,0,0-.36231-.76269,3.23042,3.23042,0,0,0-1.34472-.55664l-2.66406-.56836a6.17812,6.17812,0,0,1-2.93555-1.38379,3.24891,3.24891,0,0,1-.9961-2.4707,4.03958,4.03958,0,0,1,.68555-2.32715,4.57006,4.57006,0,0,1,2.00391-1.59082,7.7903,7.7903,0,0,1,3.15625-.582,7.47131,7.47131,0,0,1,3.40039.72363,4.93526,4.93526,0,0,1,2.05664,1.7334,1.27647,1.27647,0,0,1,.15527.32324c.03418.1123-.02636.21094-.18066.29785l-1.86231.90527a.48548.48548,0,0,1-.32324.03809.54993.54993,0,0,1-.27246-.19336A3.79574,3.79574,0,0,0,562.14844,409.56445Z"/><path class="cls-2" d="M264.2251,436.28809a14.61166,14.61166,0,0,1,.59082-2.28516,12.63886,12.63886,0,0,1,.85449-1.91406,11.25713,11.25713,0,0,1,1.02051-1.543,8.84106,8.84106,0,0,1,1.06445-1.15235,5.90434,5.90434,0,0,1,1.02539-.752l.38086,1.19141a5.12205,5.12205,0,0,0-.62988.5664,7.66624,7.66624,0,0,0-.62012.74219,10.2965,10.2965,0,0,0-.85937,1.48926,10.79155,10.79155,0,0,0-.6836,1.87012,14.03489,14.03489,0,0,0-.41015,2.02148,18.05981,18.05981,0,0,0-.14649,2.373v.13672a17.94791,17.94791,0,0,0,.13672,2.28515,15.7388,15.7388,0,0,0,.37109,1.96289,13.64142,13.64142,0,0,0,.58594,1.68457,12.314,12.314,0,0,0,.69336,1.39161,8.547,8.547,0,0,0,.7666,1.04,6.31175,6.31175,0,0,0,.7959.77637l-.38086,1.10352a6.22625,6.22625,0,0,1-1.03027-.74707,8.06735,8.06735,0,0,1-1.06934-1.15723,11.3746,11.3746,0,0,1-1.02051-1.53809,11.66325,11.66325,0,0,1-.84472-1.91894,14.291,14.291,0,0,1-.59082-2.27539,14.94483,14.94483,0,0,1-.21973-2.627V438.915A14.94483,14.94483,0,0,1,264.2251,436.28809Z"/><path class="cls-2" d="M276.91553,435.5166h-2.91016v-1.39648h2.91016v-.74219a4.9,4.9,0,0,1,.29785-1.78223,3.44008,3.44008,0,0,1,2.14355-2.06543,5.17064,5.17064,0,0,1,1.69922-.26367,6.72672,6.72672,0,0,1,.77149.04395q.38085.04393.752.1123.2439.04835.48828.10254c.1626.03613.32861.07617.498.12207l-.21485,1.49414a7.06884,7.06884,0,0,0-.93261-.23926,6.01107,6.01107,0,0,0-1.1377-.10254,3.58853,3.58853,0,0,0-1.08887.15137,1.91267,1.91267,0,0,0-1.28906,1.26465,3.58759,3.58759,0,0,0-.1709,1.16211v.74219h4.07227v1.39648h-4.07227v9.16992h-1.8164Z"/><path class="cls-2" d="M286.04639,437.18164a5.04,5.04,0,0,1,.957-1.7041,4.386,4.386,0,0,1,1.5039-1.1377,4.68,4.68,0,0,1,2.002-.415,4.73774,4.73774,0,0,1,2.0166.415,4.46977,4.46977,0,0,1,1.51855,1.1377,5.12973,5.12973,0,0,1,.94727,1.7041,6.59214,6.59214,0,0,1,.332,2.124v.21485a6.54926,6.54926,0,0,1-.332,2.11914,5.13527,5.13527,0,0,1-.94727,1.69922,4.43355,4.43355,0,0,1-1.51367,1.13281,4.72241,4.72241,0,0,1-2.00195.41016,4.7808,4.7808,0,0,1-2.0166-.41016,4.32382,4.32382,0,0,1-1.50879-1.13281,5.04518,5.04518,0,0,1-.957-1.69922,6.54926,6.54926,0,0,1-.332-2.11914v-.21485A6.59214,6.59214,0,0,1,286.04639,437.18164Zm1.66015,3.82813a3.79527,3.79527,0,0,0,.56641,1.24511,2.72321,2.72321,0,0,0,.9375.84961,2.688,2.688,0,0,0,1.31836.3125,2.64114,2.64114,0,0,0,1.30371-.3125,2.82431,2.82431,0,0,0,.94238-.84961,3.915,3.915,0,0,0,.55664-1.24511,5.85926,5.85926,0,0,0,.18555-1.48926v-.21485a5.66858,5.66858,0,0,0-.19043-1.47949,3.99917,3.99917,0,0,0-.56152-1.24512,2.88166,2.88166,0,0,0-.94239-.85449,2.62124,2.62124,0,0,0-1.31347-.31738,2.59361,2.59361,0,0,0-1.3086.31738,2.806,2.806,0,0,0-.92773.85449,3.79533,3.79533,0,0,0-.56641,1.24512,5.81661,5.81661,0,0,0-.18554,1.47949v.21485A5.85971,5.85971,0,0,0,287.70654,441.00977Z"/><path class="cls-2" d="M306.188,433.99316a3.21516,3.21516,0,0,1,.81543.18555l-.24414,1.76758a9.70658,9.70658,0,0,0-1.001-.1709,8.72467,8.72467,0,0,0-.99121-.05371,4.17184,4.17184,0,0,0-1.20117.16113,2.84662,2.84662,0,0,0-1.56738,1.14258,3.94181,3.94181,0,0,0-.44434.88379v6.77734h-1.81641v-10.5664h1.71875l.07813,1.416.00976.26367a4.85643,4.85643,0,0,1,1.54786-1.37207,4.15724,4.15724,0,0,1,2.05566-.50293A8.25824,8.25824,0,0,1,306.188,433.99316Z"/><path class="cls-2" d="M324.8501,444.501a4.64087,4.64087,0,0,1-1.59668-1.06446,4.87264,4.87264,0,0,1-1.03516-1.62109,5.49442,5.49442,0,0,1-.37109-2.041v-.41015a6.04722,6.04722,0,0,1,.41015-2.29,5.26783,5.26783,0,0,1,1.09375-1.71387,4.732,4.732,0,0,1,1.53809-1.06445,4.45682,4.45682,0,0,1,1.77246-.3711,4.71249,4.71249,0,0,1,1.99707.39551,3.944,3.944,0,0,1,1.4209,1.08887,4.71779,4.71779,0,0,1,.84473,1.65039,7.25035,7.25035,0,0,1,.27832,2.05078v.81055h-7.54883v.06836a4.6646,4.6646,0,0,0,.30762,1.35742,3.37243,3.37243,0,0,0,.65918,1.03516,3.0736,3.0736,0,0,0,1.03515.75195,3.20867,3.20867,0,0,0,1.33789.27344,3.67068,3.67068,0,0,0,1.71875-.39063,3.73049,3.73049,0,0,0,1.25-1.03515l1.10352.85937a4.6933,4.6933,0,0,1-1.57715,1.4209,5.02369,5.02369,0,0,1-2.59277.62012A5.36088,5.36088,0,0,1,324.8501,444.501Zm.77636-8.8916a2.74029,2.74029,0,0,0-.8789.58105,3.43051,3.43051,0,0,0-.65918.95215,4.49848,4.49848,0,0,0-.376,1.29394h5.6836v-.08789a3.36151,3.36151,0,0,0-.18555-1.0498,3.04938,3.04938,0,0,0-.51758-.97168,2.509,2.509,0,0,0-.835-.66406,2.62993,2.62993,0,0,0-1.19629-.25391A2.696,2.696,0,0,0,325.62646,435.60938Z"/><path class="cls-2" d="M341.41748,434.12012h2.11914l-3.93555,5.22461,4.043,5.34179H341.5542l-2.91992-4.02343-2.91992,4.02343H333.605l4.043-5.34179-3.93555-5.22461h2.08985l2.793,3.916Z"/><path class="cls-2" d="M353.00439,444.17383a5.55245,5.55245,0,0,1-.09277-.63965,5.04452,5.04452,0,0,1-.61035.51758,4.4128,4.4128,0,0,1-.73731.42969,4.65156,4.65156,0,0,1-.86914.293,4.29383,4.29383,0,0,1-.97656.10743,4.45506,4.45506,0,0,1-1.51855-.24414,3.44174,3.44174,0,0,1-1.14746-.66407,2.7992,2.7992,0,0,1-.73731-.98144,2.96214,2.96214,0,0,1-.25879-1.23535,3.21086,3.21086,0,0,1,.34668-1.52344,3.05565,3.05565,0,0,1,.98145-1.09375,4.65057,4.65057,0,0,1,1.52832-.64453,8.53768,8.53768,0,0,1,1.99707-.21485h1.97265v-.83007a2.02654,2.02654,0,0,0-.17578-.85938,1.88706,1.88706,0,0,0-.498-.6543,2.33965,2.33965,0,0,0-.78614-.41015,3.44406,3.44406,0,0,0-1.04-.14649,3.145,3.145,0,0,0-.96191.13672,2.3552,2.3552,0,0,0-.71777.36133,1.603,1.603,0,0,0-.4541.53223,1.36015,1.36015,0,0,0-.16114.63964H346.271a2.53639,2.53639,0,0,1,.29785-1.13281,3.22094,3.22094,0,0,1,.835-1.00586,4.32386,4.32386,0,0,1,1.31348-.71289,5.27872,5.27872,0,0,1,1.76269-.27344,6.074,6.074,0,0,1,1.66992.21973,3.89824,3.89824,0,0,1,1.33789.65918,3.21785,3.21785,0,0,1,.87891,1.11328,3.51657,3.51657,0,0,1,.32226,1.55274v4.91211a6.88426,6.88426,0,0,0,.09766,1.11816,4.96081,4.96081,0,0,0,.27344,1.03027v.15625h-1.88477A1.96854,1.96854,0,0,1,353.00439,444.17383Zm-2.03613-1.001a3.75375,3.75375,0,0,0,.83985-.36133,3.05318,3.05318,0,0,0,.64453-.51269,2.51343,2.51343,0,0,0,.42968-.60059v-2.13867h-1.67968a7.33767,7.33767,0,0,0-1.63575.16113,2.7071,2.7071,0,0,0-1.10839.49317,1.55458,1.55458,0,0,0-.44434.55664,1.70071,1.70071,0,0,0-.15137.73242,1.94084,1.94084,0,0,0,.13184.72266,1.473,1.473,0,0,0,.39551.5664,1.82384,1.82384,0,0,0,.66406.38086,2.87934,2.87934,0,0,0,.92773.13672A3.45182,3.45182,0,0,0,350.96826,443.17285Z"/><path class="cls-2" d="M359.11279,435.11621a2.37886,2.37886,0,0,1,.84473-.86914,2.49317,2.49317,0,0,1,1.26465-.32227,2.86559,2.86559,0,0,1,.75683.09278,1.922,1.922,0,0,1,.59082.26855,1.71887,1.71887,0,0,1,.33692.332,2.06712,2.06712,0,0,1,.25879.43946,2.523,2.523,0,0,1,.72265-.76172,2.5464,2.5464,0,0,1,.61036-.26367,2.89546,2.89546,0,0,1,.7373-.10743,2.84894,2.84894,0,0,1,.98633.16114,1.9539,1.9539,0,0,1,.74219.47363,2.31576,2.31576,0,0,1,.50781.91309,4.44559,4.44559,0,0,1,.17578,1.32324v7.89062H365.9292v-7.91015a1.98673,1.98673,0,0,0-.07813-.58594,1.127,1.127,0,0,0-.22461-.41992.977.977,0,0,0-.38574-.23438,1.66029,1.66029,0,0,0-.53222-.07812,1.58546,1.58546,0,0,0-.55664.08789,1.04043,1.04043,0,0,0-.63477.59082,1.563,1.563,0,0,0-.11719.44433v8.10547h-1.71875V436.7666a2.11662,2.11662,0,0,0-.07324-.58594,1.01055,1.01055,0,0,0-.22949-.41992.86518.86518,0,0,0-.36621-.22949,1.62306,1.62306,0,0,0-.5127-.07324,1.92662,1.92662,0,0,0-.56152.07324,1.17177,1.17177,0,0,0-.40528.21,1.214,1.214,0,0,0-.21972.24414,1.36441,1.36441,0,0,0-.15137.293v8.4082h-1.71875v-10.5664H359.064Z"/><path class="cls-2" d="M370.22607,434.12012h1.65039l.0879,1.15234a3.51354,3.51354,0,0,1,.46875-.49316,2.98881,2.98881,0,0,1,.54687-.376,3.474,3.474,0,0,1,.91309-.35644,4.58206,4.58206,0,0,1,1.0791-.12208,3.88934,3.88934,0,0,1,1.79687.4004,3.70864,3.70864,0,0,1,1.3086,1.11328,5.1243,5.1243,0,0,1,.80078,1.7041,8.16022,8.16022,0,0,1,.27344,2.17285v.20508a7.85884,7.85884,0,0,1-.27344,2.11426,5.246,5.246,0,0,1-.80078,1.7041,3.78934,3.78934,0,0,1-1.30371,1.13281,3.73684,3.73684,0,0,1-1.77247.41016,4.7499,4.7499,0,0,1-1.12792-.127,3.74386,3.74386,0,0,1-.94239-.36133,3.79385,3.79385,0,0,1-.47851-.32714,3.64893,3.64893,0,0,1-.41993-.39551V448.749h-1.80664Zm6.94825,3.72558a3.947,3.947,0,0,0-.52246-1.23535,2.72575,2.72575,0,0,0-.90821-.83984,2.59926,2.59926,0,0,0-1.30859-.3125,2.91918,2.91918,0,0,0-.77637.09765,2.23658,2.23658,0,0,0-.63965.28321,2.34577,2.34577,0,0,0-.55664.459,3.38384,3.38384,0,0,0-.42969.60547v5.08789a3.57467,3.57467,0,0,0,.38086.54688,2.19292,2.19292,0,0,0,.48829.42968,2.68892,2.68892,0,0,0,.69824.32227,2.93255,2.93255,0,0,0,.85449.11719,2.54,2.54,0,0,0,1.29883-.31739,2.65142,2.65142,0,0,0,.89844-.85449,3.946,3.946,0,0,0,.52246-1.24023,6.22994,6.22994,0,0,0,.17089-1.47461v-.20508A6.171,6.171,0,0,0,377.17432,437.8457Z"/><path class="cls-2" d="M387.92139,429.68652V443.124h3.44726v1.5625H382.521V443.124h3.59375V431.25879H382.521v-1.57227Z"/><path class="cls-2" d="M396.86182,444.501a4.63162,4.63162,0,0,1-1.59668-1.06446,4.88021,4.88021,0,0,1-1.03516-1.62109,5.49442,5.49442,0,0,1-.37109-2.041v-.41015a6.04722,6.04722,0,0,1,.41015-2.29,5.25978,5.25978,0,0,1,1.09375-1.71387,4.732,4.732,0,0,1,1.53809-1.06445,4.45682,4.45682,0,0,1,1.77246-.3711,4.711,4.711,0,0,1,1.99707.39551,3.95238,3.95238,0,0,1,1.4209,1.08887,4.70959,4.70959,0,0,1,.84473,1.65039,7.25035,7.25035,0,0,1,.27832,2.05078v.81055h-7.54883v.06836a4.69653,4.69653,0,0,0,.30761,1.35742,3.35465,3.35465,0,0,0,.65918,1.03516,3.07374,3.07374,0,0,0,1.03516.75195,3.20706,3.20706,0,0,0,1.33789.27344,3.66931,3.66931,0,0,0,1.71875-.39063,3.73529,3.73529,0,0,0,1.25-1.03515l1.10352.85937a4.68878,4.68878,0,0,1-1.57715,1.4209,5.02614,5.02614,0,0,1-2.59278.62012A5.36265,5.36265,0,0,1,396.86182,444.501Zm.77636-8.8916a2.751,2.751,0,0,0-.8789.58105,3.41014,3.41014,0,0,0-.65918.95215,4.49848,4.49848,0,0,0-.376,1.29394h5.68359v-.08789a3.34737,3.34737,0,0,0-.18554-1.0498,3.04938,3.04938,0,0,0-.51758-.97168,2.51889,2.51889,0,0,0-.835-.66406,2.62993,2.62993,0,0,0-1.19629-.25391A2.696,2.696,0,0,0,397.63818,435.60938Z"/><path class="cls-2" d="M410.36279,446.25879a5.00781,5.00781,0,0,1-1.24023,1.709l-1.12305-.61523a4.51246,4.51246,0,0,0,.66406-1.45508,6.51612,6.51612,0,0,0,.19532-1.60156v-1.74805h1.96289v1.71875A4.81771,4.81771,0,0,1,410.36279,446.25879Z"/><path class="cls-2" d="M430.24609,434.12012h1.6211l.127,1.5625a4.64475,4.64475,0,0,1,.5127-.61035,3.74312,3.74312,0,0,1,.59082-.4834,3.93562,3.93562,0,0,1,1.0205-.4834,4.1491,4.1491,0,0,1,1.167-.18067,4.59719,4.59719,0,0,1,1.50879.23438,2.88844,2.88844,0,0,1,1.15722.73242,3.3337,3.3337,0,0,1,.73731,1.26465,5.70283,5.70283,0,0,1,.25879,1.82129v6.709h-1.80665V438.0166a3.934,3.934,0,0,0-.15624-1.1914,1.93,1.93,0,0,0-.459-.791,1.84411,1.84411,0,0,0-.75684-.43945,3.48385,3.48385,0,0,0-1.0205-.13672,2.9363,2.9363,0,0,0-.92774.1416,3.19732,3.19732,0,0,0-.791.38574,3.409,3.409,0,0,0-.97657,1.12305v7.57812h-1.80664Z"/><path class="cls-2" d="M444.87012,444.501a4.63162,4.63162,0,0,1-1.59668-1.06446,4.87249,4.87249,0,0,1-1.03516-1.62109,5.50431,5.50431,0,0,1-.37109-2.041v-.41015a6.04722,6.04722,0,0,1,.41015-2.29,5.25978,5.25978,0,0,1,1.09375-1.71387,4.732,4.732,0,0,1,1.53809-1.06445,4.45682,4.45682,0,0,1,1.77246-.3711,4.71093,4.71093,0,0,1,1.99707.39551,3.95238,3.95238,0,0,1,1.4209,1.08887,4.70959,4.70959,0,0,1,.84473,1.65039,7.25035,7.25035,0,0,1,.27832,2.05078v.81055h-7.54883v.06836a4.69652,4.69652,0,0,0,.30762,1.35742,3.35444,3.35444,0,0,0,.65917,1.03516,3.07374,3.07374,0,0,0,1.03516.75195,3.20706,3.20706,0,0,0,1.33789.27344,3.66928,3.66928,0,0,0,1.71875-.39063,3.73529,3.73529,0,0,0,1.25-1.03515l1.10352.85937a4.68868,4.68868,0,0,1-1.57715,1.4209,5.02613,5.02613,0,0,1-2.59277.62012A5.36266,5.36266,0,0,1,444.87012,444.501Zm.77636-8.8916a2.751,2.751,0,0,0-.8789.58105,3.41014,3.41014,0,0,0-.65918.95215,4.49848,4.49848,0,0,0-.376,1.29394h5.6836v-.08789a3.3474,3.3474,0,0,0-.18555-1.0498,3.04918,3.04918,0,0,0-.51758-.97168,2.51889,2.51889,0,0,0-.835-.66406,2.62993,2.62993,0,0,0-1.19629-.25391A2.696,2.696,0,0,0,445.64648,435.60938Z"/><path class="cls-2" d="M453.01953,434.12012h1.60156l1.23047,6.73828.21485,1.51367.26367-1.51367,1.68945-6.73828h1.16211l1.67969,6.73828.2832,1.66015.26367-1.66015,1.17188-6.73828h1.60156l-2.24609,10.5664h-1.42578l-1.65039-6.47461-.27344-1.64062-.26367,1.64062-1.63086,6.47461h-1.42579Z"/><path class="cls-2" d="M480.94922,435.5166h-2.91016v-1.39648h2.91016v-.74219a4.91044,4.91044,0,0,1,.29785-1.78223,3.44008,3.44008,0,0,1,2.14355-2.06543,5.17064,5.17064,0,0,1,1.69922-.26367,6.72037,6.72037,0,0,1,.77149.04395q.38085.04393.75195.1123c.16309.03223.3252.06641.48828.10254s.3291.07617.498.12207l-.21484,1.49414a7.06942,7.06942,0,0,0-.93262-.23926,6.01107,6.01107,0,0,0-1.1377-.10254,3.58621,3.58621,0,0,0-1.08886.15137,1.91266,1.91266,0,0,0-1.28907,1.26465,3.57459,3.57459,0,0,0-.1709,1.16211v.74219h4.07227v1.39648h-4.07227v9.16992h-1.8164Z"/><path class="cls-2" d="M492.87793,444.501a4.63162,4.63162,0,0,1-1.59668-1.06446,4.87264,4.87264,0,0,1-1.03516-1.62109,5.50431,5.50431,0,0,1-.37109-2.041v-.41015a6.047,6.047,0,0,1,.41016-2.29,5.25945,5.25945,0,0,1,1.09375-1.71387,4.73186,4.73186,0,0,1,1.53808-1.06445,4.45682,4.45682,0,0,1,1.77246-.3711,4.71093,4.71093,0,0,1,1.99707.39551,3.95238,3.95238,0,0,1,1.4209,1.08887,4.70959,4.70959,0,0,1,.84473,1.65039,7.25,7.25,0,0,1,.27832,2.05078v.81055h-7.54883v.06836a4.69652,4.69652,0,0,0,.30762,1.35742,3.35446,3.35446,0,0,0,.65918,1.03516,3.0736,3.0736,0,0,0,1.03515.75195,3.20706,3.20706,0,0,0,1.33789.27344,3.66925,3.66925,0,0,0,1.71875-.39063,3.73529,3.73529,0,0,0,1.25-1.03515l1.10352.85937a4.68859,4.68859,0,0,1-1.57715,1.4209,5.02611,5.02611,0,0,1-2.59277.62012A5.36266,5.36266,0,0,1,492.87793,444.501Zm.77637-8.8916a2.7509,2.7509,0,0,0-.87891.58105,3.41014,3.41014,0,0,0-.65918.95215,4.49848,4.49848,0,0,0-.376,1.29394h5.6836v-.08789a3.3474,3.3474,0,0,0-.18555-1.0498,3.04918,3.04918,0,0,0-.51758-.97168,2.51889,2.51889,0,0,0-.835-.66406,2.6299,2.6299,0,0,0-1.19629-.25391A2.69591,2.69591,0,0,0,493.6543,435.60938Z"/><path class="cls-2" d="M509.03027,444.17383a5.66166,5.66166,0,0,1-.09277-.63965,5.08248,5.08248,0,0,1-.61035.51758,4.43219,4.43219,0,0,1-.73731.42969,4.66362,4.66362,0,0,1-.86914.293,4.29383,4.29383,0,0,1-.97656.10743,4.45506,4.45506,0,0,1-1.51855-.24414,3.44668,3.44668,0,0,1-1.14747-.66407,2.79929,2.79929,0,0,1-.7373-.98144,2.95451,2.95451,0,0,1-.25879-1.23535,3.20509,3.20509,0,0,1,.34668-1.52344,3.06465,3.06465,0,0,1,.98145-1.09375,4.64609,4.64609,0,0,1,1.52832-.64453,8.54064,8.54064,0,0,1,1.99707-.21485h1.97265v-.83007a2.02654,2.02654,0,0,0-.17578-.85938,1.88719,1.88719,0,0,0-.498-.6543,2.33507,2.33507,0,0,0-.78614-.41015,3.44861,3.44861,0,0,0-1.04-.14649,3.14277,3.14277,0,0,0-.96191.13672,2.3552,2.3552,0,0,0-.71777.36133,1.60311,1.60311,0,0,0-.45411.53223,1.36026,1.36026,0,0,0-.16113.63964h-1.8164a2.53639,2.53639,0,0,1,.29785-1.13281,3.23439,3.23439,0,0,1,.835-1.00586,4.32976,4.32976,0,0,1,1.31347-.71289,5.28081,5.28081,0,0,1,1.7627-.27344,6.079,6.079,0,0,1,1.66992.21973,3.89824,3.89824,0,0,1,1.33789.65918,3.218,3.218,0,0,1,.87891,1.11328,3.51657,3.51657,0,0,1,.32226,1.55274v4.91211A6.82982,6.82982,0,0,0,510.8125,443.5a4.99156,4.99156,0,0,0,.27344,1.03027v.15625h-1.88477A1.96816,1.96816,0,0,1,509.03027,444.17383Zm-2.03613-1.001a3.76324,3.76324,0,0,0,.83984-.36133,3.07811,3.07811,0,0,0,.64454-.51269,2.51371,2.51371,0,0,0,.42968-.60059v-2.13867h-1.67968a7.34068,7.34068,0,0,0-1.63575.16113,2.7041,2.7041,0,0,0-1.10839.49317,1.54932,1.54932,0,0,0-.44434.55664,1.70777,1.70777,0,0,0-.15137.73242,1.94084,1.94084,0,0,0,.13184.72266,1.47292,1.47292,0,0,0,.39551.5664,1.82794,1.82794,0,0,0,.66406.38086,2.87723,2.87723,0,0,0,.92773.13672A3.44937,3.44937,0,0,0,506.99414,443.17285Z"/><path class="cls-2" d="M518.53711,434.12012h4.02344v1.39648h-4.02344v5.74219a2.81344,2.81344,0,0,0,.15625,1.01562,1.568,1.568,0,0,0,.42969.63477,1.5505,1.5505,0,0,0,.62988.3418,2.8396,2.8396,0,0,0,.75684.09765,5.649,5.649,0,0,0,.60546-.03418c.208-.02246.41309-.05078.61524-.083q.293-.04834.55176-.10254c.17285-.03614.31445-.06641.4248-.09278l.25391,1.2793a2.53623,2.53623,0,0,1-.54688.23926,5.62029,5.62029,0,0,1-.70312.1709,7.5312,7.5312,0,0,1-.80567.11718q-.4248.03956-.84472.03907a4.182,4.182,0,0,1-1.31348-.2002,2.69816,2.69816,0,0,1-1.05957-.63965,2.95514,2.95514,0,0,1-.708-1.11816,4.737,4.737,0,0,1-.25879-1.665V435.5166h-2.77343v-1.39648h2.77343v-2.5586h1.81641Z"/><path class="cls-2" d="M533.11719,443.23145a3.76877,3.76877,0,0,1-1.31836,1.21582,3.7269,3.7269,0,0,1-1.82617.43457,4.15742,4.15742,0,0,1-1.50391-.25879,2.89249,2.89249,0,0,1-1.15234-.80567,3.74431,3.74431,0,0,1-.73731-1.3916,6.95836,6.95836,0,0,1-.25879-2.02637v-6.27929H528.127V440.419a6.23256,6.23256,0,0,0,.13672,1.42578,2.20545,2.20545,0,0,0,.41016.89843,1.45343,1.45343,0,0,0,.66894.47852,2.80162,2.80162,0,0,0,.91309.13672,3.81177,3.81177,0,0,0,1.084-.1416,2.7376,2.7376,0,0,0,.83008-.39551,2.29453,2.29453,0,0,0,.5127-.49317,2.96637,2.96637,0,0,0,.36621-.62988v-7.57812h1.8164v10.5664h-1.64062Z"/><path class="cls-2" d="M546.22754,433.99316a3.22045,3.22045,0,0,1,.81543.18555l-.24414,1.76758a9.72854,9.72854,0,0,0-1.001-.1709,8.72454,8.72454,0,0,0-.99121-.05371,4.17662,4.17662,0,0,0-1.20117.16113,2.84662,2.84662,0,0,0-1.56738,1.14258,3.96251,3.96251,0,0,0-.44434.88379v6.77734h-1.81641v-10.5664h1.71875l.07813,1.416.00976.26367a4.85137,4.85137,0,0,1,1.54786-1.37207,4.15727,4.15727,0,0,1,2.05566-.50293A8.25824,8.25824,0,0,1,546.22754,433.99316Z"/><path class="cls-2" d="M552.8877,444.501a4.63152,4.63152,0,0,1-1.59668-1.06446,4.87249,4.87249,0,0,1-1.03516-1.62109,5.50431,5.50431,0,0,1-.37109-2.041v-.41015a6.047,6.047,0,0,1,.41015-2.29,5.25978,5.25978,0,0,1,1.09375-1.71387,4.732,4.732,0,0,1,1.53809-1.06445,4.45682,4.45682,0,0,1,1.77246-.3711,4.711,4.711,0,0,1,1.99707.39551,3.95246,3.95246,0,0,1,1.4209,1.08887,4.70941,4.70941,0,0,1,.84472,1.65039,7.25,7.25,0,0,1,.27832,2.05078v.81055h-7.54882v.06836a4.6962,4.6962,0,0,0,.30761,1.35742,3.35465,3.35465,0,0,0,.65918,1.03516,3.07374,3.07374,0,0,0,1.03516.75195,3.20706,3.20706,0,0,0,1.33789.27344,3.66931,3.66931,0,0,0,1.71875-.39063,3.73529,3.73529,0,0,0,1.25-1.03515l1.10352.85937a4.68878,4.68878,0,0,1-1.57715,1.4209,5.02617,5.02617,0,0,1-2.59278.62012A5.36265,5.36265,0,0,1,552.8877,444.501Zm.77636-8.8916a2.751,2.751,0,0,0-.8789.58105,3.40993,3.40993,0,0,0-.65918.95215,4.49848,4.49848,0,0,0-.376,1.29394h5.68359v-.08789a3.34737,3.34737,0,0,0-.18554-1.0498,3.04938,3.04938,0,0,0-.51758-.97168,2.51889,2.51889,0,0,0-.835-.66406,2.62993,2.62993,0,0,0-1.19629-.25391A2.696,2.696,0,0,0,553.66406,435.60938Z"/><path class="cls-2" d="M569.16211,441.30273a1.29471,1.29471,0,0,0-.42969-.47363,3.37426,3.37426,0,0,0-.80078-.39551,8.60566,8.60566,0,0,0-1.24023-.32714,12.55419,12.55419,0,0,1-1.65528-.44922,5.243,5.243,0,0,1-1.27441-.63477,2.68514,2.68514,0,0,1-.83008-.85449,2.20408,2.20408,0,0,1-.293-1.14746,2.49809,2.49809,0,0,1,.30274-1.20606,3.087,3.087,0,0,1,.84961-.98144,4.26642,4.26642,0,0,1,1.30371-.66406,5.39178,5.39178,0,0,1,1.665-.24415,5.67948,5.67948,0,0,1,1.75781.25391,4.01747,4.01747,0,0,1,1.32812.70313,3.181,3.181,0,0,1,.84473,1.0498,2.87773,2.87773,0,0,1,.29785,1.29395h-1.80664a1.39783,1.39783,0,0,0-.17578-.66895,1.92028,1.92028,0,0,0-.48828-.58105,2.5209,2.5209,0,0,0-.75684-.41016,2.99527,2.99527,0,0,0-1.001-.15625,3.60881,3.60881,0,0,0-1.01075.127,2.19138,2.19138,0,0,0-.71777.3418,1.446,1.446,0,0,0-.43945.49805,1.25816,1.25816,0,0,0-.14649.58593,1.273,1.273,0,0,0,.11719.55664,1.127,1.127,0,0,0,.41016.43946,2.99247,2.99247,0,0,0,.7666.35156,10.94808,10.94808,0,0,0,1.22558.30273,14.31085,14.31085,0,0,1,1.74805.47364,5.24464,5.24464,0,0,1,1.29883.63965,2.73472,2.73472,0,0,1,.80566.8789,2.32174,2.32174,0,0,1,.27832,1.15235,2.60251,2.60251,0,0,1-.31738,1.27929,2.99968,2.99968,0,0,1-.88379.98633,4.28748,4.28748,0,0,1-1.35742.63477,6.32335,6.32335,0,0,1-1.72852.22461,5.876,5.876,0,0,1-1.91406-.28809,4.45281,4.45281,0,0,1-1.416-.7666,3.20743,3.20743,0,0,1-.89356-1.09375,2.90767,2.90767,0,0,1-.30762-1.29883H564.084a1.87024,1.87024,0,0,0,.29786.9375,2.05554,2.05554,0,0,0,.64941.61523,2.63774,2.63774,0,0,0,.84961.332,4.519,4.519,0,0,0,.92773.09765,4.15981,4.15981,0,0,0,1.25977-.1709,2.03969,2.03969,0,0,0,.83984-.47363,1.33305,1.33305,0,0,0,.28321-.41016,1.18157,1.18157,0,0,0,.09765-.47851A1.29842,1.29842,0,0,0,569.16211,441.30273Z"/><path class="cls-2" d="M580.6416,441.63965a14.3435,14.3435,0,0,1-.59082,2.27539,12.2346,12.2346,0,0,1-.85449,1.91894,11.98768,11.98768,0,0,1-1.01074,1.53809,8.51161,8.51161,0,0,1-1.0791,1.15723,6.24633,6.24633,0,0,1-1.03028.74707l-.38086-1.10352a5.36832,5.36832,0,0,0,.83008-.78125,7.87884,7.87884,0,0,0,.80078-1.10351,13.606,13.606,0,0,0,.69824-1.43067,10.336,10.336,0,0,0,.55176-1.74316,14.74782,14.74782,0,0,0,.34668-1.89942,18.48472,18.48472,0,0,0,.12207-2.18261v-.13672a16.20927,16.20927,0,0,0-.16113-2.39258,18.14077,18.14077,0,0,0-.35645-1.82617,11.39035,11.39035,0,0,0-.68359-1.92871,11.64072,11.64072,0,0,0-.82031-1.48926,6.79256,6.79256,0,0,0-.66406-.874,6.24073,6.24073,0,0,0-.66407-.63965l.38086-1.10352a6.21512,6.21512,0,0,1,1.03516.752,8.45925,8.45925,0,0,1,1.07422,1.15235,12.02232,12.02232,0,0,1,1.02539,1.543,11.27994,11.27994,0,0,1,.83984,1.91406,16.3833,16.3833,0,0,1,.58106,2.22168,14.32314,14.32314,0,0,1,.22949,2.69043v.09766A14.94483,14.94483,0,0,1,580.6416,441.63965Z"/><path class="cls-3" d="M235.16846,344.833a6.50219,6.50219,0,0,1,1.90088.97656,5.59437,5.59437,0,0,1,1.37548,1.46973,4.89181,4.89181,0,0,1,.70313,1.82715.77415.77415,0,0,1,.03174.44043.2806.2806,0,0,1-.2417.126l-2.835.18945q-.189,0-.24121-.07324a.73869.73869,0,0,1-.09473-.24218,3.622,3.622,0,0,0-.90283-1.79493,2.464,2.464,0,0,0-1.86914-.7041,2.85135,2.85135,0,0,0-2.46729,1.27051,7.30145,7.30145,0,0,0-.89258,4.10644,7.53548,7.53548,0,0,0,.85059,4.084,2.86392,2.86392,0,0,0,2.55127,1.27051,3.60235,3.60235,0,0,0,2.1001-.60938,4.32266,4.32266,0,0,0,1.44873-2.07812q.08423-.19044.4624-.127l2.05762.44141a.34532.34532,0,0,1,.189.11523.55984.55984,0,0,1,.04248.41016,4.68011,4.68011,0,0,1-.40967,1.02832,7.12018,7.12018,0,0,1-.80859,1.208,6.18474,6.18474,0,0,1-1.24951,1.14453,6.56269,6.56269,0,0,1-1.73242.85059,7.171,7.171,0,0,1-2.24707.32519,6.83274,6.83274,0,0,1-3.76953-1.0293,6.6901,6.6901,0,0,1-2.46729-2.85546,9.84573,9.84573,0,0,1-.86133-4.24219,9.41459,9.41459,0,0,1,.86133-4.18945,6.39021,6.39021,0,0,1,2.457-2.71973,7.162,7.162,0,0,1,3.77979-.96582A7.27958,7.27958,0,0,1,235.16846,344.833Z"/><path class="cls-3" d="M244.50293,359.77441a.50908.50908,0,0,1-.126.38868.65336.65336,0,0,1-.4414.11523H241.71q-.46215,0-.4624-.44141l.063-14.74121q0-.3999.33642-.39941h2.541q.31494,0,.31494.37793Z"/><path class="cls-3" d="M250.03613,357.03418a2.50318,2.50318,0,0,0,.98731.92383,2.95591,2.95591,0,0,0,1.39648.32519,3.04115,3.04115,0,0,0,1.39649-.32519,4.40327,4.40327,0,0,0,1.2915-1.082.29824.29824,0,0,1,.147-.09375.48263.48263,0,0,1,.231.07324l1.51172.62988q.2937.126.063.41992a6.86065,6.86065,0,0,1-1.40674,1.53321,4.61946,4.61946,0,0,1-1.62744.80859,7.722,7.722,0,0,1-2.00586.24121,5.89787,5.89787,0,0,1-2.91895-.71387A5.30081,5.30081,0,0,1,247.0752,357.79a5.638,5.638,0,0,1-.74561-2.90918,6.18771,6.18771,0,0,1,.7666-3.13867,5.47877,5.47877,0,0,1,2.04736-2.06934,5.90885,5.90885,0,0,1,5.64893-.03125,5.01431,5.01431,0,0,1,1.92188,2.00586,6.5954,6.5954,0,0,1,.70312,3.1709,1.17248,1.17248,0,0,1-.042.35742q-.04174.126-.31494.14649H249.9209a.222.222,0,0,0-.189.084.4204.4204,0,0,0-.063.252A2.57522,2.57522,0,0,0,250.03613,357.03418Zm3.85352-3.47559a.52138.52138,0,0,0,.29394-.05273c.042-.03516.063-.11524.063-.24121a2.64075,2.64075,0,0,0-.24121-1.07129,2.33475,2.33475,0,0,0-.71435-.91309,1.908,1.908,0,0,0-1.20752-.36816,2.31785,2.31785,0,0,0-1.23877.33594,2.22429,2.22429,0,0,0-.83985.93457,3.02946,3.02946,0,0,0-.29394,1.35449Z"/><path class="cls-3" d="M263.66553,360.1416a4.67506,4.67506,0,0,1-1.85889.34668,3.51053,3.51053,0,0,1-2.50928-.86133,2.89484,2.89484,0,0,1-.91357-2.20507,3.11617,3.11617,0,0,1,.73486-2.05762,4.76964,4.76964,0,0,1,2.1001-1.375,10.27868,10.27868,0,0,1,3.25488-.53614l.73535-.0625a.44176.44176,0,0,0,.231-.06347.24589.24589,0,0,0,.105-.23047v-.44141a1.66638,1.66638,0,0,0-.46191-1.249,1.81267,1.81267,0,0,0-1.32324-.45215,2.70114,2.70114,0,0,0-1.20752.28418,2.332,2.332,0,0,0-.97657.97559.356.356,0,0,1-.147.18945.564.564,0,0,1-.31494,0l-2.1001-.4834a.29907.29907,0,0,1-.17822-.13574q-.05274-.09522.07324-.41016a3.47686,3.47686,0,0,1,1.8169-1.83691,7.538,7.538,0,0,1,3.18115-.59863,7.17189,7.17189,0,0,1,2.772.44043,3.04491,3.04491,0,0,1,1.49121,1.22851,3.57018,3.57018,0,0,1,.46192,1.83789v7.3711a.5803.5803,0,0,1-.084.35644.38616.38616,0,0,1-.31494.10547h-2.16309a.34154.34154,0,0,1-.32568-.168,1.02143,1.02143,0,0,1-.11523-.41992l-.042-.46191q-.04248-.37794-.46191-.02149A5.2271,5.2271,0,0,1,263.66553,360.1416Zm1.56445-5.17676-.58789.042a5.39451,5.39451,0,0,0-1.09229.1582,4.11262,4.11262,0,0,0-.98681.37793,2.3,2.3,0,0,0-.72461.6084,1.35577,1.35577,0,0,0-.28369.85058,1.23059,1.23059,0,0,0,.4414.998,1.84524,1.84524,0,0,0,1.21778.36719,2.44068,2.44068,0,0,0,.93457-.168,2.94138,2.94138,0,0,0,.70361-.39844,2.98682,2.98682,0,0,0,.50391-.54687.97969.97969,0,0,0,.189-.56641v-1.36523Q265.54492,354.96484,265.23,354.96484Z"/><path class="cls-3" d="M270.9624,359.8584V349.54688q0-.39844.33643-.39844h2.541q.31494,0,.315.35644v1.0293a.18821.18821,0,0,0,.063.168c.042.02832.105,0,.189-.084a10.00684,10.00684,0,0,1,1.0918-.88183,4.71466,4.71466,0,0,1,1.15527-.58789,3.97377,3.97377,0,0,1,1.30176-.21,3.09459,3.09459,0,0,1,3.31787,3.31738v7.51855a.4454.4454,0,0,1-.50391.50391h-2.331a.41444.41444,0,0,1-.3042-.09473.45.45,0,0,1-.09473-.32519v-7.09766a1.48907,1.48907,0,0,0-.38867-1.10254,1.5514,1.5514,0,0,0-1.144-.38867,2.24707,2.24707,0,0,0-.81934.14649,2.86931,2.86931,0,0,0-.73486.43066,6.44914,6.44914,0,0,0-.75586.72461v7.22363q0,.48341-.54639.4834h-2.24658Q270.96216,360.27832,270.9624,359.8584Z"/><path class="cls-3" d="M295.207,349.41113a4.71048,4.71048,0,0,1,1.56445,1.207,4.61548,4.61548,0,0,1,.86084,1.51172q.14649.42042-.25195.44141l-2.20508.21a.28493.28493,0,0,1-.31494-.23047,5.26136,5.26136,0,0,0-.41992-.73535,1.92162,1.92162,0,0,0-.56689-.5459,1.64922,1.64922,0,0,0-.88233-.21,2.08,2.08,0,0,0-1.25976.39844,2.56124,2.56124,0,0,0-.85059,1.208,7.0186,7.0186,0,0,0,.01074,4.126,2.53344,2.53344,0,0,0,.89209,1.21875,2.36189,2.36189,0,0,0,1.37549.39844,2.09857,2.09857,0,0,0,1.46-.48242,5.51337,5.51337,0,0,0,1.01807-1.30274.274.274,0,0,1,.126-.126.48843.48843,0,0,1,.23145.02148l1.55371.35645c.15381.042.20264.17578.147.39941a5.55431,5.55431,0,0,1-.5249,1.0293,4.52051,4.52051,0,0,1-.93457,1.0498,5.04112,5.04112,0,0,1-1.40674.8086,5.30823,5.30823,0,0,1-1.94287.32519,5.66345,5.66345,0,0,1-2.877-.72461,5.23074,5.23074,0,0,1-1.98438-2.01562,6.01582,6.01582,0,0,1-.72461-2.99317,6.10374,6.10374,0,0,1,.73535-3.03418,5.3432,5.3432,0,0,1,1.99463-2.04785,5.57009,5.57009,0,0,1,2.856-.73437A5.19036,5.19036,0,0,1,295.207,349.41113Z"/><path class="cls-3" d="M301.50684,359.75293a5.198,5.198,0,0,1-1.98438-2.02637,5.9861,5.9861,0,0,1-.71435-2.95019,6.14769,6.14769,0,0,1,.73535-3.05567,5.29673,5.29673,0,0,1,2.01562-2.04785,6.17109,6.17109,0,0,1,5.85938.01074,5.19826,5.19826,0,0,1,1.96338,2.0586,6.28035,6.28035,0,0,1,.70361,3.01269,6.03528,6.03528,0,0,1-.71436,2.97168,5.20457,5.20457,0,0,1-1.98437,2.02637,6.24457,6.24457,0,0,1-5.87988,0Zm4.25244-1.81641a2.45573,2.45573,0,0,0,.7876-1.22851,6.60184,6.60184,0,0,0,.2622-1.99512,6.74668,6.74668,0,0,0-.2622-2.04687,2.52248,2.52248,0,0,0-.7876-1.22852,2.21256,2.21256,0,0,0-2.59375,0,2.542,2.542,0,0,0-.80811,1.22852,6.49209,6.49209,0,0,0-.27344,2.04687,6.33158,6.33158,0,0,0,.27344,2.00586,2.47156,2.47156,0,0,0,.80811,1.21777,2.25533,2.25533,0,0,0,2.59375,0Z"/><path class="cls-3" d="M319.31494,360.18359a.36551.36551,0,0,1-.13672-.32519v-.58789c0-.09766-.02832-.1543-.084-.168a.25656.25656,0,0,0-.21.084,7.70256,7.70256,0,0,1-.75586.61914,3.64253,3.64253,0,0,1-.98731.49414,4.188,4.188,0,0,1-1.32275.18848,4.12375,4.12375,0,0,1-2.26807-.62988,4.21,4.21,0,0,1-1.5542-1.90039,7.76,7.76,0,0,1-.56689-3.16113,7.13766,7.13766,0,0,1,.61963-3.07618,5.07523,5.07523,0,0,1,1.66943-2.04785,3.94637,3.94637,0,0,1,2.31006-.73437,3.83656,3.83656,0,0,1,1.49121.27246,4.31079,4.31079,0,0,1,1.25977.84082c.11181.084.1997.11523.26269.09375.063-.02051.09424-.1084.09424-.26172v-4.80957q0-.37793.33594-.37793h2.562q.33618,0,.33594.39941v14.74121a.45718.45718,0,0,1-.105.33594.5283.5283,0,0,1-.37793.10547h-2.26807A.51867.51867,0,0,1,319.31494,360.18359Zm-1.11328-8.90332a2.18047,2.18047,0,0,0-1.08154-.26269,2.12688,2.12688,0,0,0-1.24951.38867,2.45718,2.45718,0,0,0-.86084,1.207,6.25783,6.25783,0,0,0-.3042,2.1416,6.33437,6.33437,0,0,0,.3042,2.16309,2.38737,2.38737,0,0,0,.83984,1.18652,2.11954,2.11954,0,0,0,1.22851.36817,2.02009,2.02009,0,0,0,1.0503-.27344,2.18441,2.18441,0,0,0,.73486-.69336,1.59265,1.59265,0,0,0,.273-.88184V352.0459A3.78315,3.78315,0,0,0,318.20166,351.28027Z"/><path class="cls-3" d="M327.88281,357.03418a2.50318,2.50318,0,0,0,.98731.92383,2.95588,2.95588,0,0,0,1.39648.32519,3.04115,3.04115,0,0,0,1.39649-.32519,4.40327,4.40327,0,0,0,1.2915-1.082.29824.29824,0,0,1,.147-.09375.48269.48269,0,0,1,.231.07324l1.51172.62988q.2937.126.063.41992a6.86065,6.86065,0,0,1-1.40674,1.53321,4.61946,4.61946,0,0,1-1.62744.80859,7.722,7.722,0,0,1-2.00586.24121,5.89787,5.89787,0,0,1-2.91895-.71387,5.30081,5.30081,0,0,1-2.02636-1.98437,5.638,5.638,0,0,1-.74561-2.90918,6.18771,6.18771,0,0,1,.7666-3.13867,5.47877,5.47877,0,0,1,2.04736-2.06934,5.90885,5.90885,0,0,1,5.64893-.03125,5.01431,5.01431,0,0,1,1.92188,2.00586,6.5954,6.5954,0,0,1,.70312,3.1709,1.17248,1.17248,0,0,1-.042.35742q-.04174.126-.31494.14649h-7.13965a.222.222,0,0,0-.189.084.4204.4204,0,0,0-.063.252A2.57523,2.57523,0,0,0,327.88281,357.03418Zm3.85352-3.47559a.52138.52138,0,0,0,.29394-.05273c.042-.03516.063-.11524.063-.24121a2.64075,2.64075,0,0,0-.24121-1.07129,2.33484,2.33484,0,0,0-.71435-.91309,1.908,1.908,0,0,0-1.20752-.36816,2.31785,2.31785,0,0,0-1.23877.33594,2.22429,2.22429,0,0,0-.83985.93457,3.02946,3.02946,0,0,0-.29394,1.35449Z"/><path class="cls-3" d="M335.957,360.32031l5.229-15.30859a.44692.44692,0,0,1,.44091-.31543h1.40723q.48267,0,.29394.5459l-5.103,14.95215a.635.635,0,0,1-.231.34668.65159.65159,0,0,1-.35693.09472H336.209Q335.85156,360.63574,335.957,360.32031Z"/><path class="cls-3" d="M352.07471,360.18359a.36551.36551,0,0,1-.13672-.32519v-.58789c0-.09766-.02832-.1543-.084-.168a.25657.25657,0,0,0-.21.084,7.70138,7.70138,0,0,1-.75586.61914,3.64232,3.64232,0,0,1-.9873.49414,4.188,4.188,0,0,1-1.32276.18848,4.12369,4.12369,0,0,1-2.26806-.62988,4.21,4.21,0,0,1-1.5542-1.90039,7.76,7.76,0,0,1-.5669-3.16113,7.13781,7.13781,0,0,1,.61963-3.07618,5.07517,5.07517,0,0,1,1.66944-2.04785,3.94633,3.94633,0,0,1,2.31006-.73437,3.8366,3.8366,0,0,1,1.49121.27246,4.31075,4.31075,0,0,1,1.25976.84082c.11182.084.19971.11523.2627.09375.063-.02051.09424-.1084.09424-.26172v-4.80957q0-.37793.33593-.37793h2.562q.33618,0,.33593.39941v14.74121a.45718.45718,0,0,1-.105.33594.52829.52829,0,0,1-.37793.10547h-2.26806A.51867.51867,0,0,1,352.07471,360.18359Zm-1.11328-8.90332a2.18053,2.18053,0,0,0-1.08155-.26269,2.1269,2.1269,0,0,0-1.24951.38867,2.45731,2.45731,0,0,0-.86084,1.207,6.25807,6.25807,0,0,0-.3042,2.1416,6.33462,6.33462,0,0,0,.3042,2.16309,2.38738,2.38738,0,0,0,.83985,1.18652,2.11954,2.11954,0,0,0,1.22851.36817,2.02,2.02,0,0,0,1.05029-.27344,2.18444,2.18444,0,0,0,.73487-.69336,1.59265,1.59265,0,0,0,.273-.88184V352.0459A3.78315,3.78315,0,0,0,350.96143,351.28027Z"/><path class="cls-3" d="M360.64209,357.03418a2.50322,2.50322,0,0,0,.9873.92383,2.95592,2.95592,0,0,0,1.39649.32519,3.04108,3.04108,0,0,0,1.39648-.32519,4.40317,4.40317,0,0,0,1.29151-1.082.29824.29824,0,0,1,.147-.09375.48269.48269,0,0,1,.231.07324l1.51172.62988q.2937.126.063.41992a6.86039,6.86039,0,0,1-1.40673,1.53321,4.61942,4.61942,0,0,1-1.62745.80859,7.722,7.722,0,0,1-2.00586.24121,5.89783,5.89783,0,0,1-2.91894-.71387,5.30084,5.30084,0,0,1-2.02637-1.98437,5.63806,5.63806,0,0,1-.7456-2.90918,6.18771,6.18771,0,0,1,.7666-3.13867,5.47877,5.47877,0,0,1,2.04736-2.06934,5.90885,5.90885,0,0,1,5.64893-.03125,5.01429,5.01429,0,0,1,1.92187,2.00586,6.5954,6.5954,0,0,1,.70313,3.1709,1.17248,1.17248,0,0,1-.042.35742q-.04176.126-.315.14649h-7.13964a.222.222,0,0,0-.189.084.4204.4204,0,0,0-.063.252A2.57514,2.57514,0,0,0,360.64209,357.03418Zm3.85352-3.47559a.5214.5214,0,0,0,.29394-.05273c.042-.03516.063-.11524.063-.24121a2.64091,2.64091,0,0,0-.24121-1.07129,2.33478,2.33478,0,0,0-.71436-.91309,1.908,1.908,0,0,0-1.20752-.36816,2.31788,2.31788,0,0,0-1.23877.33594,2.22433,2.22433,0,0,0-.83984.93457,3.02947,3.02947,0,0,0-.29395,1.35449Z"/><path class="cls-3" d="M375.647,351.24805a3.0546,3.0546,0,0,0-1.49121-.33594,2.61723,2.61723,0,0,0-1.3125.30469.92527.92527,0,0,0-.53564.8291.77194.77194,0,0,0,.21.51465,2.00256,2.00256,0,0,0,.96631.43066l2.415.58789a4.34818,4.34818,0,0,1,2.478,1.30176,3.11777,3.11777,0,0,1,.73487,2.0166,2.98588,2.98588,0,0,1-.64063,1.93164,4.0524,4.0524,0,0,1-1.77441,1.22852,7.30288,7.30288,0,0,1-2.604.43066,6.946,6.946,0,0,1-3.17089-.66113,4.04868,4.04868,0,0,1-1.82715-1.64844.57173.57173,0,0,1-.084-.28418.20894.20894,0,0,1,.126-.19922l1.42822-.73535a.67238.67238,0,0,1,.3252-.09375.28242.28242,0,0,1,.1997.11524,4.39064,4.39064,0,0,0,.65088.71386,2.80384,2.80384,0,0,0,.94532.53516,4.01876,4.01876,0,0,0,1.42773.17871,3.79078,3.79078,0,0,0,1.06055-.13672,1.76066,1.76066,0,0,0,.7456-.39844.83345.83345,0,0,0,.273-.62011.80628.80628,0,0,0-.29394-.61914,2.62778,2.62778,0,0,0-1.09229-.45118l-2.1626-.46191a5.01608,5.01608,0,0,1-2.38379-1.124,2.63464,2.63464,0,0,1-.80859-2.00489,3.28151,3.28151,0,0,1,.55664-1.89062,3.71178,3.71178,0,0,1,1.62744-1.291,6.30984,6.30984,0,0,1,2.562-.47265,6.06987,6.06987,0,0,1,2.76172.58789,4.00161,4.00161,0,0,1,1.66944,1.40722,1.01453,1.01453,0,0,1,.126.2627c.02783.09082-.021.1709-.147.24121l-1.51221.73438a.40018.40018,0,0,1-.2622.03222.45371.45371,0,0,1-.22071-.1582A3.091,3.091,0,0,0,375.647,351.24805Z"/><path class="cls-3" d="M384.15186,347.2793q0,.52587-.56739.52539h-2.26758a.43816.43816,0,0,1-.36767-.126.58633.58633,0,0,1-.09473-.35742v-2.20508c0-.2793.11914-.41992.35742-.41992h2.604q.33545,0,.33594.39941Zm-.042,12.49511a.50911.50911,0,0,1-.126.38868.65341.65341,0,0,1-.44141.11523h-2.20459a.37589.37589,0,0,1-.4624-.44141v-10.29q0-.39844.33642-.39844h2.583q.31494,0,.31494.35644Z"/><path class="cls-3" d="M398.001,348.77051a.46368.46368,0,0,1,.11572.35644v1.42871a.53951.53951,0,0,1-.126.40918.39594.39594,0,0,1-.35693.07325,5.15879,5.15879,0,0,0-.53565-.05274,1.76867,1.76867,0,0,0-.45166.03223q-.56689.08349-.41992.48242c.02783.126.06641.2666.11573.41992a1.73822,1.73822,0,0,1,.07324.52539,2.93982,2.93982,0,0,1-.55615,1.73242,3.7179,3.7179,0,0,1-1.69092,1.25,7.49554,7.49554,0,0,1-2.814.46192,7.65881,7.65881,0,0,0-1.34375.09375,1.9156,1.9156,0,0,0-.72461.25195.43769.43769,0,0,0-.2207.34668.40761.40761,0,0,0,.32568.38867,3.89788,3.89788,0,0,0,.99756.15723l3.00293.168a5.383,5.383,0,0,1,3.12891.94531,2.60654,2.60654,0,0,1,.9873,2.10059,3.02487,3.02487,0,0,1-1.5122,2.60351,8.06073,8.06073,0,0,1-4.45215,1.00781,11.935,11.935,0,0,1-4.57764-.67187,2.17624,2.17624,0,0,1-1.5332-2.03711,1.47361,1.47361,0,0,1,.56689-1.19726,4.87959,4.87959,0,0,1,1.44922-.77637q.27246-.10547,0-.23145a2.90957,2.90957,0,0,1-.87158-.61914,1.30858,1.30858,0,0,1-.34668-.93457,1.2122,1.2122,0,0,1,.27295-.7666,2.93282,2.93282,0,0,1,.73535-.64063,5.47677,5.47677,0,0,1,1.02881-.5039.27986.27986,0,0,0,.147-.11524c.02783-.04882-.00732-.09472-.105-.13671a3.84561,3.84561,0,0,1-1.51172-1.17579,2.75734,2.75734,0,0,1-.52539-1.67968,2.9658,2.9658,0,0,1,1.35449-2.52051,6.78856,6.78856,0,0,1,3.9585-.96582,6.98862,6.98862,0,0,1,1.99512.25195,3.77693,3.77693,0,0,1,1.36523.69336.45875.45875,0,0,0,.3042.09375.36091.36091,0,0,0,.2627-.13574,3.35029,3.35029,0,0,1,.65087-.60938,3.75142,3.75142,0,0,1,.79786-.4414,2.04208,2.04208,0,0,1,.73535-.168A.43355.43355,0,0,1,398.001,348.77051Zm-8.22119,10.87793a1.92626,1.92626,0,0,0-.79834.126,1.66126,1.66126,0,0,0-.62989.41993.89985.89985,0,0,0-.252.62988,1.148,1.148,0,0,0,.35693.83984,2.39879,2.39879,0,0,0,1.15528.5459,9.66047,9.66047,0,0,0,2.1416.18945,4.829,4.829,0,0,0,2.17383-.38867,1.20535,1.20535,0,0,0,.7456-1.10254.93061.93061,0,0,0-.40967-.75586,2.23275,2.23275,0,0,0-1.24951-.35742Zm3.18115-5.86914a1.72655,1.72655,0,0,0,.51465-1.27051,1.90353,1.90353,0,0,0-.51465-1.376,2.16752,2.16752,0,0,0-1.62744-.53515,2.23074,2.23074,0,0,0-1.59571.53515,1.80927,1.80927,0,0,0-.56738,1.376,1.6495,1.6495,0,0,0,.56738,1.27051,2.29077,2.29077,0,0,0,1.59571.51367A2.22531,2.22531,0,0,0,392.96094,353.7793Z"/><path class="cls-3" d="M399.7334,359.8584V349.54688q0-.39844.33642-.39844h2.541q.31494,0,.31494.35644v1.0293a.18821.18821,0,0,0,.063.168c.042.02832.105,0,.189-.084a10.00684,10.00684,0,0,1,1.0918-.88183,4.71484,4.71484,0,0,1,1.15527-.58789,3.97385,3.97385,0,0,1,1.30176-.21,3.09459,3.09459,0,0,1,3.31787,3.31738v7.51855a.44539.44539,0,0,1-.5039.50391h-2.33106a.41446.41446,0,0,1-.3042-.09473.45.45,0,0,1-.09472-.32519v-7.09766a1.48911,1.48911,0,0,0-.38867-1.10254,1.55141,1.55141,0,0,0-1.144-.38867,2.247,2.247,0,0,0-.81933.14649,2.86937,2.86937,0,0,0-.73487.43066,6.44992,6.44992,0,0,0-.75586.72461v7.22363q0,.48341-.54638.4834H400.1748Q399.73316,360.27832,399.7334,359.8584Z"/><path class="cls-3" d="M446.84766,352.05469a4.78951,4.78951,0,0,1-2.10059,1.68261,7.76751,7.76751,0,0,1-3.09082.57227h-3.30078a.21363.21363,0,0,0-.24121.24219v5.5c0,.33789-.19043.50586-.57227.50586h-2.81543a.384.384,0,0,1-.46289-.44043V344.65137q0-.41748.35254-.418h6.60059a9.11157,9.11157,0,0,1,3.22265.5498,5.11007,5.11007,0,0,1,2.32032,1.67285,4.57176,4.57176,0,0,1,.85839,2.85938A4.68845,4.68845,0,0,1,446.84766,352.05469Zm-3.51954-4.07031a1.96194,1.96194,0,0,0-.94531-.73633,3.82175,3.82175,0,0,0-1.4082-.24219h-2.44238q-.41748,0-.418.374v3.76172q0,.41748.30762.418h2.70605a2.6542,2.6542,0,0,0,1.84863-.61621,2.1666,2.1666,0,0,0,.68164-1.69336A2.23258,2.23258,0,0,0,443.32812,347.98438Z"/><path class="cls-3" d="M451.10547,360.00781a5.45791,5.45791,0,0,1-2.0791-2.123,6.27927,6.27927,0,0,1-.748-3.09082,6.4396,6.4396,0,0,1,.77051-3.20118,5.54534,5.54534,0,0,1,2.11133-2.1455,6.46236,6.46236,0,0,1,6.13867.01171,5.45492,5.45492,0,0,1,2.05664,2.15528,6.59477,6.59477,0,0,1,.73633,3.15722,6.32457,6.32457,0,0,1-.748,3.11329,5.46224,5.46224,0,0,1-2.07813,2.123,6.54875,6.54875,0,0,1-6.16015,0Zm4.45508-1.90332a2.57336,2.57336,0,0,0,.82422-1.28711,6.89611,6.89611,0,0,0,.27539-2.08984,7.04782,7.04782,0,0,0-.27539-2.14453,2.64007,2.64007,0,0,0-.82422-1.28711,2.315,2.315,0,0,0-2.7168,0,2.65656,2.65656,0,0,0-.84766,1.28711,6.78169,6.78169,0,0,0-.28613,2.14453,6.6208,6.6208,0,0,0,.28613,2.10156,2.58784,2.58784,0,0,0,.84766,1.27539,2.36642,2.36642,0,0,0,2.7168,0Z"/><path class="cls-3" d="M464.2832,360.00781a5.46214,5.46214,0,0,1-2.07812-2.123,6.2688,6.2688,0,0,1-.74805-3.09082,6.43925,6.43925,0,0,1,.76953-3.20118,5.55212,5.55212,0,0,1,2.11133-2.1455,6.46239,6.46239,0,0,1,6.13867.01171,5.44145,5.44145,0,0,1,2.05664,2.15528,6.58388,6.58388,0,0,1,.73731,3.15722,6.32457,6.32457,0,0,1-.748,3.11329,5.47132,5.47132,0,0,1-2.0791,2.123,6.54878,6.54878,0,0,1-6.16016,0Zm4.45508-1.90332a2.56805,2.56805,0,0,0,.8252-1.28711,6.92948,6.92948,0,0,0,.27441-2.08984,7.08169,7.08169,0,0,0-.27441-2.14453,2.63445,2.63445,0,0,0-.8252-1.28711,2.315,2.315,0,0,0-2.7168,0,2.6701,2.6701,0,0,0-.84765,1.28711,6.81251,6.81251,0,0,0-.28516,2.14453,6.651,6.651,0,0,0,.28516,2.10156,2.60077,2.60077,0,0,0,.84765,1.27539,2.36643,2.36643,0,0,0,2.7168,0Z"/><path class="cls-3" d="M475.27148,360.44727a.45136.45136,0,0,1-.10937-.33008V349.31543q0-.41748.35156-.418h2.57422q.35157,0,.35156.374v1.29786a.15216.15216,0,0,0,.09961.165c.06641.02246.13574-.01075.209-.09864a5.354,5.354,0,0,1,1.001-1.03418,4.81966,4.81966,0,0,1,1.15528-.68164,2.98358,2.98358,0,0,1,1.12207-.24219q.79248,0,.792.374v2.55176c0,.23535-.11035.33007-.33008.28613a4.25533,4.25533,0,0,0-.81445-.14258q-.41748-.03369-.72559-.0332a2.46255,2.46255,0,0,0-.82519.15332,2.66982,2.66982,0,0,0-.78125.44043,2.80765,2.80765,0,0,0-.57227.61621,1.24486,1.24486,0,0,0-.21875.7041v6.42383c0,.33789-.1914.50586-.57226.50586H475.624A.48152.48152,0,0,1,475.27148,360.44727Z"/><path class="cls-3" d="M496.82031,349.17285A4.93687,4.93687,0,0,1,498.46,350.4375a4.83984,4.83984,0,0,1,.90137,1.584c.10351.29395.01562.44727-.26367.46192l-2.30957.2207a.30041.30041,0,0,1-.33008-.24219,5.52227,5.52227,0,0,0-.44043-.7705,2.01993,2.01993,0,0,0-.59375-.57227,1.73387,1.73387,0,0,0-.92383-.21973,2.17987,2.17987,0,0,0-1.32031.418,2.69356,2.69356,0,0,0-.89063,1.26563,7.35486,7.35486,0,0,0,.01074,4.32226,2.64956,2.64956,0,0,0,.93458,1.27637,2.4771,2.4771,0,0,0,1.4414.418,2.19624,2.19624,0,0,0,1.5293-.50586,5.74256,5.74256,0,0,0,1.0664-1.36426.28126.28126,0,0,1,.13282-.13183.52044.52044,0,0,1,.24218.02148l1.627.374c.16211.04493.21289.1836.15429.418a5.75117,5.75117,0,0,1-.5498,1.07813,4.69478,4.69478,0,0,1-.97949,1.10058,5.28869,5.28869,0,0,1-1.47364.84668,5.54789,5.54789,0,0,1-2.03418.34082,5.93631,5.93631,0,0,1-3.01464-.75879,5.47768,5.47768,0,0,1-2.0791-2.1123,6.29731,6.29731,0,0,1-.75879-3.13477,6.39439,6.39439,0,0,1,.7705-3.17871,5.587,5.587,0,0,1,2.08985-2.1455,5.82955,5.82955,0,0,1,2.99218-.76954A5.43469,5.43469,0,0,1,496.82031,349.17285Z"/><path class="cls-3" d="M503.4209,360.00781a5.45791,5.45791,0,0,1-2.0791-2.123,6.28988,6.28988,0,0,1-.748-3.09082,6.4396,6.4396,0,0,1,.77051-3.20118,5.54783,5.54783,0,0,1,2.1123-2.1455,6.46043,6.46043,0,0,1,6.1377.01171,5.44152,5.44152,0,0,1,2.05664,2.15528,6.58387,6.58387,0,0,1,.7373,3.15722,6.33519,6.33519,0,0,1-.748,3.11329,5.4647,5.4647,0,0,1-2.07911,2.123,6.54876,6.54876,0,0,1-6.16015,0Zm4.45508-1.90332a2.57445,2.57445,0,0,0,.82519-1.28711,6.8958,6.8958,0,0,0,.27539-2.08984,7.04751,7.04751,0,0,0-.27539-2.14453,2.64122,2.64122,0,0,0-.82519-1.28711,2.315,2.315,0,0,0-2.7168,0,2.65527,2.65527,0,0,0-.84668,1.28711,6.77869,6.77869,0,0,0-.28711,2.14453,6.61817,6.61817,0,0,0,.28711,2.10156,2.58657,2.58657,0,0,0,.84668,1.27539,2.36642,2.36642,0,0,0,2.7168,0Z"/><path class="cls-3" d="M522.07715,360.459a.38759.38759,0,0,1-.14258-.34179V359.502c0-.10254-.03027-.16113-.08887-.17675a.27166.27166,0,0,0-.21875.08886,8.22507,8.22507,0,0,1-.793.64844,3.8045,3.8045,0,0,1-1.0332.51758,4.399,4.399,0,0,1-1.38672.19726,4.31141,4.31141,0,0,1-2.375-.66015,4.39834,4.39834,0,0,1-1.6289-1.99024,8.12335,8.12335,0,0,1-.59375-3.31152,7.49615,7.49615,0,0,1,.64843-3.22266,5.32209,5.32209,0,0,1,1.75-2.1455,4.12834,4.12834,0,0,1,2.41993-.76954,4.01168,4.01168,0,0,1,1.56152.28614,4.49371,4.49371,0,0,1,1.31933.87988c.11817.08789.209.12109.2754.09863.0664-.02148.0996-.11328.0996-.27441v-5.03809q0-.397.35157-.39648h2.68359c.23438,0,.35254.13965.35254.418V360.0957a.47739.47739,0,0,1-.11035.35157.55047.55047,0,0,1-.39551.11035h-2.376A.55147.55147,0,0,1,522.07715,360.459Zm-1.166-9.32812a2.28935,2.28935,0,0,0-1.13281-.27539,2.23543,2.23543,0,0,0-1.30957.40723,2.57686,2.57686,0,0,0-.90137,1.26464,6.557,6.557,0,0,0-.31933,2.24414,6.63957,6.63957,0,0,0,.31933,2.26661,2.49889,2.49889,0,0,0,.87989,1.24218,2.21848,2.21848,0,0,0,1.28711.38575,2.12218,2.12218,0,0,0,1.0996-.28614,2.28575,2.28575,0,0,0,.77051-.72656,1.66861,1.66861,0,0,0,.28613-.92383v-4.7959A3.99309,3.99309,0,0,0,520.91113,351.13086Z"/><path class="cls-3" d="M531.05273,357.1582a2.62493,2.62493,0,0,0,1.03418.96875,3.09318,3.09318,0,0,0,1.46289.34082,3.17815,3.17815,0,0,0,1.4629-.34082,4.60222,4.60222,0,0,0,1.35253-1.13379.32644.32644,0,0,1,.1543-.09863.50524.50524,0,0,1,.24219.07715l1.584.66016q.30762.13184.06641.43945a7.20135,7.20135,0,0,1-1.47461,1.60644,4.83259,4.83259,0,0,1-1.70508.84668,8.03155,8.03155,0,0,1-2.10058.25293,6.16943,6.16943,0,0,1-3.05762-.748,5.54433,5.54433,0,0,1-2.123-2.0791,5.89641,5.89641,0,0,1-.78125-3.04688,6.49084,6.49084,0,0,1,.80274-3.28906,5.7482,5.7482,0,0,1,2.14453-2.167,6.18709,6.18709,0,0,1,5.918-.03223,5.2462,5.2462,0,0,1,2.01367,2.10058,6.90792,6.90792,0,0,1,.73633,3.32227,1.24448,1.24448,0,0,1-.043.374c-.0293.08789-.14063.13965-.33008.15332h-7.48047a.22991.22991,0,0,0-.19726.08887.43019.43019,0,0,0-.06641.26367A2.69328,2.69328,0,0,0,531.05273,357.1582Zm4.03711-3.64062a.55887.55887,0,0,0,.3086-.05469.34307.34307,0,0,0,.06543-.25293,2.76895,2.76895,0,0,0-.25293-1.12207,2.45,2.45,0,0,0-.74805-.957,1.99994,1.99994,0,0,0-1.26562-.38477,2.42481,2.42481,0,0,0-1.29688.35157,2.31409,2.31409,0,0,0-.88086.97851,3.18253,3.18253,0,0,0-.30762,1.41992Z"/><path class="cls-3" d="M539.51172,360.60156l5.47851-16.03808a.46793.46793,0,0,1,.46094-.33008h1.47461c.33789,0,.43945.1914.3086.57226l-5.34668,15.66407a.66794.66794,0,0,1-.24122.36328.68775.68775,0,0,1-.375.09863h-1.49609Q539.40186,360.93164,539.51172,360.60156Z"/><path class="cls-3" d="M556.39648,360.459a.38521.38521,0,0,1-.14257-.34179V359.502c0-.10254-.0293-.16113-.08789-.17675a.27517.27517,0,0,0-.22071.08886,8.07367,8.07367,0,0,1-.791.64844,3.83178,3.83178,0,0,1-1.03516.51758,4.38625,4.38625,0,0,1-1.38476.19726,4.318,4.318,0,0,1-2.377-.66015,4.39671,4.39671,0,0,1-1.62793-1.99024,8.13976,8.13976,0,0,1-.59375-3.31152,7.46729,7.46729,0,0,1,.64942-3.22266,5.318,5.318,0,0,1,1.748-2.1455,4.137,4.137,0,0,1,2.41992-.76954,4.01664,4.01664,0,0,1,1.5625.28614,4.49763,4.49763,0,0,1,1.32032.87988c.11718.08789.209.12109.27539.09863.06543-.02148.09765-.11328.09765-.27441v-5.03809q0-.397.35254-.39648h2.68457q.35157,0,.35157.418V360.0957a.48579.48579,0,0,1-.10938.35157.55483.55483,0,0,1-.39648.11035h-2.376A.5515.5515,0,0,1,556.39648,360.459Zm-1.166-9.32812a2.28935,2.28935,0,0,0-1.13281-.27539,2.23031,2.23031,0,0,0-1.3086.40723,2.58419,2.58419,0,0,0-.90234,1.26464,6.55949,6.55949,0,0,0-.31836,2.24414,6.64222,6.64222,0,0,0,.31836,2.26661,2.50484,2.50484,0,0,0,.87988,1.24218,2.22066,2.22066,0,0,0,1.28711.38575,2.12828,2.12828,0,0,0,1.10059-.28614,2.29168,2.29168,0,0,0,.76953-.72656,1.66743,1.66743,0,0,0,.28515-.92383v-4.7959A3.97182,3.97182,0,0,0,555.23047,351.13086Z"/><path class="cls-3" d="M565.37305,357.1582a2.62227,2.62227,0,0,0,1.0332.96875,3.09316,3.09316,0,0,0,1.46289.34082,3.17808,3.17808,0,0,0,1.46289-.34082,4.617,4.617,0,0,0,1.35352-1.13379.32193.32193,0,0,1,.15429-.09863.51094.51094,0,0,1,.24219.07715l1.584.66016q.3076.13184.06543.43945a7.19886,7.19886,0,0,1-1.47364,1.60644,4.83259,4.83259,0,0,1-1.70508.84668,8.03918,8.03918,0,0,1-2.10156.25293,6.16949,6.16949,0,0,1-3.05762-.748,5.55109,5.55109,0,0,1-2.123-2.0791,5.90525,5.90525,0,0,1-.78028-3.04688,6.481,6.481,0,0,1,.80274-3.28906,5.7482,5.7482,0,0,1,2.14453-2.167,6.187,6.187,0,0,1,5.918-.03223,5.25269,5.25269,0,0,1,2.01367,2.10058,6.91911,6.91911,0,0,1,.73633,3.32227,1.23912,1.23912,0,0,1-.04395.374c-.02929.08789-.13964.13965-.33007.15332H565.252a.233.233,0,0,0-.19824.08887.43737.43737,0,0,0-.06543.26367A2.68451,2.68451,0,0,0,565.37305,357.1582Zm4.03711-3.64062a.55472.55472,0,0,0,.30761-.05469c.04395-.03711.06543-.12109.06543-.25293a2.76724,2.76724,0,0,0-.25195-1.12207,2.45892,2.45892,0,0,0-.74805-.957,1.99994,1.99994,0,0,0-1.26562-.38477,2.42816,2.42816,0,0,0-1.29785.35157,2.31821,2.31821,0,0,0-.87989.97851,3.183,3.183,0,0,0-.30859,1.41992Z"/><path class="cls-3" d="M581.0918,351.09766a3.19982,3.19982,0,0,0-1.5625-.35157,2.75339,2.75339,0,0,0-1.375.31836.9712.9712,0,0,0-.56055.86914.81117.81117,0,0,0,.21973.53907,2.09343,2.09343,0,0,0,1.01269.45117l2.5293.61621a4.55093,4.55093,0,0,1,2.5957,1.36328,3.26247,3.26247,0,0,1,.77051,2.1123,3.1337,3.1337,0,0,1-.6709,2.02442,4.237,4.237,0,0,1-1.85937,1.28613,7.6459,7.6459,0,0,1-2.72754.45117,7.27164,7.27164,0,0,1-3.32227-.69238,4.23863,4.23863,0,0,1-1.91406-1.72754.59748.59748,0,0,1-.08789-.29687.21965.21965,0,0,1,.13183-.209l1.4961-.76953a.70713.70713,0,0,1,.3418-.09961.30264.30264,0,0,1,.209.1211,4.58871,4.58871,0,0,0,.68164.748,2.94215,2.94215,0,0,0,.99023.56153,4.26309,4.26309,0,0,0,1.4961.18652,4.02209,4.02209,0,0,0,1.11035-.14258,1.84349,1.84349,0,0,0,.78125-.418.87247.87247,0,0,0,.28613-.64941.84718.84718,0,0,0-.30859-.64942,2.75009,2.75009,0,0,0-1.14356-.47265l-2.2666-.48438a5.24565,5.24565,0,0,1-2.49609-1.17675,2.75908,2.75908,0,0,1-.84766-2.10059,3.44048,3.44048,0,0,1,.583-1.98047,3.89906,3.89906,0,0,1,1.70508-1.35254,6.61826,6.61826,0,0,1,2.68457-.49512,6.34877,6.34877,0,0,1,2.89258.61622,4.18808,4.18808,0,0,1,1.749,1.47363,1.07987,1.07987,0,0,1,.13184.27539c.02929.09473-.02149.17969-.1543.25293l-1.584.76953a.41429.41429,0,0,1-.2754.0332.47587.47587,0,0,1-.23046-.165A3.22178,3.22178,0,0,0,581.0918,351.09766Z"/><path class="cls-3" d="M590.002,346.93945c0,.36719-.19922.54981-.59472.54981h-2.376a.45941.45941,0,0,1-.38477-.13184.609.609,0,0,1-.0996-.374v-2.30957c0-.293.125-.44043.375-.44043h2.72753c.23438,0,.35254.13965.35254.418ZM589.957,360.0293a.52729.52729,0,0,1-.13183.40722.68089.68089,0,0,1-.46192.1211h-2.31055a.5114.5114,0,0,1-.38476-.11035.51956.51956,0,0,1-.09863-.35157V349.31543q0-.41748.35254-.418H589.627c.22071,0,.33008.125.33008.374Z"/><path class="cls-3" d="M604.50977,348.502a.48463.48463,0,0,1,.12109.374v1.49609a.567.567,0,0,1-.13086.42871.41668.41668,0,0,1-.375.07715,5.11044,5.11044,0,0,0-.56055-.05566,1.88216,1.88216,0,0,0-.47265.0332q-.59474.08788-.44043.50586c.02929.13183.06933.27929.12109.44043a1.79755,1.79755,0,0,1,.07715.5498,3.08574,3.08574,0,0,1-.583,1.81543,3.89682,3.89682,0,0,1-1.77051,1.3086,7.84209,7.84209,0,0,1-2.94921.48437,7.92516,7.92516,0,0,0-1.40723.09863,2.00339,2.00339,0,0,0-.75879.26368.45818.45818,0,0,0-.23145.36328.4277.4277,0,0,0,.34082.40722,4.10808,4.10808,0,0,0,1.04493.165l3.14648.17578a5.634,5.634,0,0,1,3.27734.99024,2.73225,2.73225,0,0,1,1.03516,2.20019,3.17127,3.17127,0,0,1-1.584,2.72754,8.44554,8.44554,0,0,1-4.66407,1.05567,12.52809,12.52809,0,0,1-4.79687-.70313,2.28144,2.28144,0,0,1-1.60547-2.13476,1.53991,1.53991,0,0,1,.59375-1.25391,5.11779,5.11779,0,0,1,1.51758-.81348q.2871-.10986,0-.24218a3.05116,3.05116,0,0,1-.91211-.64942,1.36776,1.36776,0,0,1-.36328-.97851,1.27168,1.27168,0,0,1,.28515-.80274,3.07114,3.07114,0,0,1,.77051-.67187,5.70242,5.70242,0,0,1,1.07813-.52735.29032.29032,0,0,0,.15332-.12109c.02929-.05176-.00684-.09961-.10938-.14356a4.02231,4.02231,0,0,1-1.584-1.23144,2.88619,2.88619,0,0,1-.54981-1.75977,3.105,3.105,0,0,1,1.41895-2.64062,7.111,7.111,0,0,1,4.14648-1.01172,7.32317,7.32317,0,0,1,2.08985.26367,3.95577,3.95577,0,0,1,1.43066.72656.48122.48122,0,0,0,.31934.09864.37642.37642,0,0,0,.27441-.14258,3.5623,3.5623,0,0,1,.68262-.63867,3.918,3.918,0,0,1,.83594-.46192,2.1213,2.1213,0,0,1,.76953-.17578A.45418.45418,0,0,1,604.50977,348.502Zm-8.61231,11.39551a2.00644,2.00644,0,0,0-.83594.13184,1.7555,1.7555,0,0,0-.66015.44043.94349.94349,0,0,0-.26367.66015,1.20312,1.20312,0,0,0,.374.87989,2.524,2.524,0,0,0,1.21.57226,10.14641,10.14641,0,0,0,2.24316.19727,5.06671,5.06671,0,0,0,2.27735-.40625,1.26431,1.26431,0,0,0,.78125-1.15528.97151.97151,0,0,0-.42969-.792,2.33262,2.33262,0,0,0-1.30859-.374Zm3.333-6.14844a1.80939,1.80939,0,0,0,.53906-1.331,1.99473,1.99473,0,0,0-.53906-1.44141,2.27347,2.27347,0,0,0-1.70508-.56054,2.34008,2.34008,0,0,0-1.67187.56054,1.89258,1.89258,0,0,0-.59375,1.44141,1.72538,1.72538,0,0,0,.59375,1.331,2.40012,2.40012,0,0,0,1.67187.53907A2.33124,2.33124,0,0,0,599.23047,353.749Z"/><path class="cls-3" d="M606.3252,360.11719V349.31543q0-.41748.35253-.418h2.66211c.21875,0,.33008.125.33008.374v1.07813a.19765.19765,0,0,0,.06543.17578c.04395.03027.11035,0,.19824-.08789a10.4479,10.4479,0,0,1,1.14356-.92383,4.96476,4.96476,0,0,1,1.21-.61621,4.16228,4.16228,0,0,1,1.36426-.21973,3.24189,3.24189,0,0,1,3.47558,3.47559v7.876a.46641.46641,0,0,1-.52734.52832h-2.44238a.44021.44021,0,0,1-.31934-.09864.478.478,0,0,1-.09863-.34179v-7.43555a1.56357,1.56357,0,0,0-.40723-1.15527,1.62947,1.62947,0,0,0-1.19922-.40723,2.34673,2.34673,0,0,0-.85742.1543,2.94671,2.94671,0,0,0-.76953.45117,6.81321,6.81321,0,0,0-.793.75879v7.56836c0,.33789-.19043.50586-.57227.50586h-2.35351C606.47852,360.55762,606.3252,360.41113,606.3252,360.11719Z"/><rect class="cls-1" x="226.01758" y="191.67181" width="184.56683" height="145.91796"/><rect class="cls-4" x="433.30536" y="38.7585" width="184.56683" height="298.83127"/><rect class="cls-5" x="433.30536" y="38.7585" width="184.56683" height="152.25567"/><path class="cls-3" d="M410.76465,336.08984H225.19775v-146.918h185.5669Zm-184.5669-1h183.5669v-144.918H226.19775Z"/><path class="cls-3" d="M618.25879,336.08984H432.69238V36.2583H618.25879Zm-184.56641-1H617.25879V37.2583H433.69238Z"/><path class="cls-2" d="M489.27637,97.42627q.35156,0,.35156.39648v15.39942a.508.508,0,0,1-.14258.40722.69021.69021,0,0,1-.45117.1211h-2.77246a.50989.50989,0,0,1-.38477-.11035.51956.51956,0,0,1-.09863-.35157V97.84424q0-.41748.35156-.418Z"/><path class="cls-2" d="M492.37793,113.31006V102.5083q0-.41748.35156-.418h2.66211q.3296,0,.33008.374v1.07812a.19785.19785,0,0,0,.06641.17578c.04394.03028.10937,0,.19726-.08789a10.54982,10.54982,0,0,1,1.14453-.92383,4.94745,4.94745,0,0,1,1.21-.61621,4.15813,4.15813,0,0,1,1.36426-.21972,3.24188,3.24188,0,0,1,3.47559,3.47558v7.876a.46671.46671,0,0,1-.52832.52832H500.21a.44021.44021,0,0,1-.31934-.09863.47807.47807,0,0,1-.09863-.3418v-7.43555a1.5636,1.5636,0,0,0-.40722-1.15527,1.62948,1.62948,0,0,0-1.19922-.40723,2.34678,2.34678,0,0,0-.85743.1543,2.95161,2.95161,0,0,0-.7705.45117,6.81131,6.81131,0,0,0-.792.75879v7.56836c0,.33789-.19042.50586-.57226.50586h-2.35352C492.53125,113.75049,492.37793,113.604,492.37793,113.31006Z"/><path class="cls-2" d="M510.02148,104.42236c-.16113,0-.24218.08789-.24218.26368v5.30273a1.3796,1.3796,0,0,0,.35254,1.06641,1.63839,1.63839,0,0,0,1.12207.31933h1.1875a.29391.29391,0,0,1,.24218.11035.409.409,0,0,1,.08789.26368l-.02148,1.34179c0,.2793-.16211.45508-.48438.52832-.26367.0293-.54687.05469-.84667.07715q-.45119.03224-.90235.04395-.45117.01024-.86914.01074a3.65947,3.65947,0,0,1-2.376-.71485,2.57369,2.57369,0,0,1-.87988-2.123v-6.16016q0-.3296-.28613-.33008h-1.3418c-.27929,0-.418-.124-.418-.374v-1.62793q0-.32959.39551-.33008h1.51856c.13183,0,.20507-.08008.21972-.24219l.30762-3.34375q.022-.37353.33008-.374h2.39843q.35157,0,.35157.418v3.2998a.19482.19482,0,0,0,.2207.22071h2.30957c.26367,0,.39649.11719.39649.35156v1.62793c0,.25-.14747.374-.44043.374Z"/><path class="cls-2" d="M517.60059,110.35107a2.6183,2.6183,0,0,0,1.03418.96875,3.09037,3.09037,0,0,0,1.46289.34082,3.181,3.181,0,0,0,1.46289-.34082,4.60216,4.60216,0,0,0,1.35254-1.13378.32633.32633,0,0,1,.15429-.09864.51094.51094,0,0,1,.24219.07715l1.584.66016c.20508.08789.22754.23437.06543.43945a7.17609,7.17609,0,0,1-1.47363,1.60645,4.83293,4.83293,0,0,1-1.70508.84668,8.032,8.032,0,0,1-2.10058.25292,6.1706,6.1706,0,0,1-3.0586-.748,5.551,5.551,0,0,1-2.123-2.0791,5.90525,5.90525,0,0,1-.78028-3.04688,6.481,6.481,0,0,1,.80274-3.28906,5.7482,5.7482,0,0,1,2.14453-2.167,6.18712,6.18712,0,0,1,5.918-.03223,5.25265,5.25265,0,0,1,2.01367,2.10059,6.90787,6.90787,0,0,1,.73633,3.32226,1.23923,1.23923,0,0,1-.04395.374c-.02929.08789-.13965.13964-.33008.15332h-7.47949a.233.233,0,0,0-.19824.08886.4373.4373,0,0,0-.06543.26367A2.69317,2.69317,0,0,0,517.60059,110.35107Zm4.03711-3.64062a.55242.55242,0,0,0,.30761-.05469.338.338,0,0,0,.06641-.25293,2.76895,2.76895,0,0,0-.25293-1.12207,2.45006,2.45006,0,0,0-.748-.957,1.99994,1.99994,0,0,0-1.26562-.38477,2.43058,2.43058,0,0,0-1.29785.35157,2.31821,2.31821,0,0,0-.87989.97851,3.18252,3.18252,0,0,0-.30761,1.41992Z"/><path class="cls-2" d="M527.24707,113.64014a.44725.44725,0,0,1-.10937-.33008V102.5083q0-.41748.35156-.418h2.57422q.35155,0,.35156.374v1.29785a.15215.15215,0,0,0,.09961.165c.06543.02246.13574-.01075.209-.09864a5.354,5.354,0,0,1,1.001-1.03418,4.81994,4.81994,0,0,1,1.15527-.68164,2.9797,2.9797,0,0,1,1.12207-.24218c.52735,0,.792.125.792.374v2.55176c0,.23535-.11036.33007-.33008.28613a4.283,4.283,0,0,0-.81446-.14258q-.41748-.03369-.72558-.0332a2.4629,2.4629,0,0,0-.8252.15332,2.67008,2.67008,0,0,0-.78125.44043,2.8076,2.8076,0,0,0-.57226.61621,1.24591,1.24591,0,0,0-.21973.7041v6.42383c0,.33789-.19043.50586-.57227.50586h-2.35351A.4784.4784,0,0,1,527.24707,113.64014Z"/><path class="cls-2" d="M539.49023,110.35107a2.6314,2.6314,0,0,0,1.03418.96875,3.09318,3.09318,0,0,0,1.46289.34082,3.17815,3.17815,0,0,0,1.4629-.34082,4.61689,4.61689,0,0,0,1.35351-1.13378.32191.32191,0,0,1,.1543-.09864.50542.50542,0,0,1,.24121.07715l1.584.66016q.30762.13184.06641.43945a7.2223,7.2223,0,0,1-1.47363,1.60645,4.833,4.833,0,0,1-1.70508.84668,8.045,8.045,0,0,1-2.10156.25292,6.16943,6.16943,0,0,1-3.05762-.748,5.55111,5.55111,0,0,1-2.123-2.0791,5.90579,5.90579,0,0,1-.78125-3.04688,6.49084,6.49084,0,0,1,.80274-3.28906,5.75063,5.75063,0,0,1,2.1455-2.167,6.18712,6.18712,0,0,1,5.918-.03223,5.24384,5.24384,0,0,1,2.0127,2.10059,6.90782,6.90782,0,0,1,.7373,3.32226,1.23961,1.23961,0,0,1-.04394.374c-.0293.08789-.13965.13964-.33008.15332h-7.48047a.23111.23111,0,0,0-.19726.08886.43693.43693,0,0,0-.06641.26367A2.69326,2.69326,0,0,0,539.49023,110.35107Zm4.03711-3.64062a.55659.55659,0,0,0,.3086-.05469c.04394-.03711.06543-.12109.06543-.25293a2.75308,2.75308,0,0,0-.25293-1.12207,2.45006,2.45006,0,0,0-.74805-.957,1.999,1.999,0,0,0-1.26465-.38477,2.4258,2.4258,0,0,0-1.29785.35157,2.31818,2.31818,0,0,0-.87988.97851,3.16968,3.16968,0,0,0-.3086,1.41992Z"/><path class="cls-2" d="M555.209,104.29053a3.19846,3.19846,0,0,0-1.56152-.35157,2.75082,2.75082,0,0,0-1.375.31836.97049.97049,0,0,0-.56152.86914.81121.81121,0,0,0,.21972.53907,2.09353,2.09353,0,0,0,1.0127.45117l2.5293.61621a4.55082,4.55082,0,0,1,2.59668,1.36328,3.26676,3.26676,0,0,1,.76953,2.11231,3.13375,3.13375,0,0,1-.6709,2.02441,4.23951,4.23951,0,0,1-1.8584,1.28613,7.65516,7.65516,0,0,1-2.72852.45117,7.27163,7.27163,0,0,1-3.32226-.69238,4.24369,4.24369,0,0,1-1.91406-1.72754.59738.59738,0,0,1-.08789-.29687.21965.21965,0,0,1,.13183-.209l1.4961-.76953a.70983.70983,0,0,1,.34179-.09961.30267.30267,0,0,1,.209.1211,4.63353,4.63353,0,0,0,.68164.748,2.94215,2.94215,0,0,0,.99023.56153,4.26306,4.26306,0,0,0,1.4961.18652,4.02209,4.02209,0,0,0,1.11035-.14258,1.84349,1.84349,0,0,0,.78125-.418.87247.87247,0,0,0,.28613-.64941.844.844,0,0,0-.30859-.64941,2.75007,2.75007,0,0,0-1.14356-.47266l-2.26562-.48438a5.245,5.245,0,0,1-2.49707-1.17675,2.75908,2.75908,0,0,1-.84766-2.10059,3.44048,3.44048,0,0,1,.583-1.98047,3.89906,3.89906,0,0,1,1.70508-1.35254,6.6182,6.6182,0,0,1,2.68457-.49511,6.343,6.343,0,0,1,2.89257.61621,4.18187,4.18187,0,0,1,1.749,1.47363,1.0481,1.0481,0,0,1,.13183.27539c.0293.09473-.02148.17969-.15332.25293l-1.584.76953a.41539.41539,0,0,1-.27539.0332.47363.47363,0,0,1-.23145-.165A3.21063,3.21063,0,0,0,555.209,104.29053Z"/><path class="cls-2" d="M565.21973,104.42236c-.16211,0-.24219.08789-.24219.26368v5.30273a1.38319,1.38319,0,0,0,.35156,1.06641,1.63842,1.63842,0,0,0,1.12207.31933h1.18848a.292.292,0,0,1,.24121.11035.40975.40975,0,0,1,.08887.26368l-.02246,1.34179q0,.419-.48438.52832-.39551.04395-.84668.07715-.45117.03224-.90234.04395-.45117.01024-.86817.01074a3.65576,3.65576,0,0,1-2.376-.71485,2.57424,2.57424,0,0,1-.88086-2.123v-6.16016q0-.3296-.28516-.33008h-1.34277c-.27832,0-.418-.124-.418-.374v-1.62793q0-.32959.39648-.33008H561.457c.13184,0,.20508-.08008.2207-.24219l.30762-3.34375c.01465-.249.124-.374.33008-.374h2.39746c.23438,0,.35254.13965.35254.418v3.2998a.19452.19452,0,0,0,.21973.22071h2.31054q.39552,0,.39551.35156v1.62793c0,.25-.14648.374-.43945.374Z"/><path class="cls-2" d="M478.5293,128.93115v.66016c0,.08789.02929.13574.08789.14258a.31367.31367,0,0,0,.21972-.09864,7.70284,7.70284,0,0,1,.78125-.63867,4.07319,4.07319,0,0,1,1.02246-.5166,4.2439,4.2439,0,0,1,1.40821-.209,4.19625,4.19625,0,0,1,2.31055.64843,4.41568,4.41568,0,0,1,1.60546,1.958,8.15423,8.15423,0,0,1,.59375,3.35547,8.48625,8.48625,0,0,1-.61523,3.47559,4.39472,4.39472,0,0,1-1.67285,2.01367,4.48294,4.48294,0,0,1-2.39746.64844,4.60407,4.60407,0,0,1-1.584-.26368,4.00958,4.00958,0,0,1-1.36426-.85839c-.14648-.14649-.25292-.21192-.31933-.19727-.06543.01465-.09863.124-.09863.33008v4.02539q0,.37353-.33008.374H475.4707q-.35156,0-.35156-.39551V128.9751a.42112.42112,0,0,1,.50586-.48438h2.41992C478.36719,128.49072,478.5293,128.63721,478.5293,128.93115Zm.92382,8.99805a2.37188,2.37188,0,0,0,2.49708-.09961,2.58883,2.58883,0,0,0,.86914-1.29785,7.43033,7.43033,0,0,0,.30761-2.36524,6.54292,6.54292,0,0,0-.30761-2.24316,2.25722,2.25722,0,0,0-.86914-1.166,2.32632,2.32632,0,0,0-1.26563-.35253,2.41343,2.41343,0,0,0-1.11035.25292,2.1,2.1,0,0,0-.78125.66016,1.45516,1.45516,0,0,0-.28613.84668v4.97266A4.29579,4.29579,0,0,0,479.45312,137.9292Z"/><path class="cls-2" d="M493.25781,140.0083a4.91871,4.91871,0,0,1-1.94726.36231,3.67952,3.67952,0,0,1-2.62891-.90137,3.03547,3.03547,0,0,1-.957-2.31055,3.26548,3.26548,0,0,1,.77051-2.15625,4.9936,4.9936,0,0,1,2.20019-1.44043,10.78224,10.78224,0,0,1,3.40918-.56152l.77051-.06543a.46561.46561,0,0,0,.24219-.06641.25784.25784,0,0,0,.10937-.24219v-.46191a1.74755,1.74755,0,0,0-.4834-1.30859,1.90344,1.90344,0,0,0-1.38671-.47266,2.83246,2.83246,0,0,0-1.26465.29688,2.44383,2.44383,0,0,0-1.02246,1.02246.37992.37992,0,0,1-.1543.19824.59834.59834,0,0,1-.33008,0l-2.20019-.50586a.31336.31336,0,0,1-.18653-.14356c-.03711-.06542-.01172-.209.07617-.42871a3.64723,3.64723,0,0,1,1.90332-1.9248,7.90584,7.90584,0,0,1,3.333-.627,7.51946,7.51946,0,0,1,2.9043.46191,3.18181,3.18181,0,0,1,1.56152,1.28711,3.72749,3.72749,0,0,1,.48438,1.9248v7.72168a.60792.60792,0,0,1-.08789.374.40273.40273,0,0,1-.33008.11035h-2.26563a.35941.35941,0,0,1-.34179-.17578,1.08516,1.08516,0,0,1-.1211-.44043l-.04394-.4834q-.04395-.397-.4834-.02246A5.50038,5.50038,0,0,1,493.25781,140.0083Zm1.63867-5.42383-.61523.04395a5.70685,5.70685,0,0,0-1.14453.165,4.33638,4.33638,0,0,0-1.03418.39648,2.41659,2.41659,0,0,0-.75879.6377,1.41738,1.41738,0,0,0-.29687.8916,1.29065,1.29065,0,0,0,.46191,1.04492,1.93358,1.93358,0,0,0,1.27637.38477,2.56353,2.56353,0,0,0,.97851-.17579,3.08984,3.08984,0,0,0,.73731-.418,3.1687,3.1687,0,0,0,.52832-.57227,1.02912,1.02912,0,0,0,.19726-.59375V134.9585C495.22656,134.70947,495.11719,134.58447,494.89648,134.58447Z"/><path class="cls-2" d="M500.77051,143.71533a.33823.33823,0,0,1-.30762-.35254v-1.69433a.31339.31339,0,0,1,.13184-.24121.82277.82277,0,0,1,.50586-.11036h1.49609a1.48632,1.48632,0,0,0,.75879-.19824,1.77248,1.77248,0,0,0,.55078-.4834,1.8625,1.8625,0,0,0,.29687-.61621.818.818,0,0,0-.04394-.59375L499.93457,129.019a.37369.37369,0,0,1,.01172-.36328.36272.36272,0,0,1,.34082-.165h2.77148a.499.499,0,0,1,.3086.09961.4724.4724,0,0,1,.17578.27442l2.44238,6.55566c.04395.13281.10156.20215.17578.209.07325.00782.13867-.06933.19825-.23046l2.41992-6.55567a.98032.98032,0,0,1,.19726-.25293.41017.41017,0,0,1,.28614-.09961h1.89257a.318.318,0,0,1,.30762.165.35233.35233,0,0,1,0,.34082l-4.50977,11.1543a9.69787,9.69787,0,0,1-.957,1.85937,4.00954,4.00954,0,0,1-1.08886,1.09961,3.73991,3.73991,0,0,1-1.35352.52832,9.8621,9.8621,0,0,1-1.793.14258A5.271,5.271,0,0,1,500.77051,143.71533Z"/><path class="cls-2" d="M513.13477,139.71045V128.90869q0-.41748.35156-.418H516.127q.3296,0,.33008.374v1.07812a.18554.18554,0,0,0,.07617.17578c.05176.03028.11426,0,.1875-.08789a10.54275,10.54275,0,0,1,1.14356-.92383,5.31784,5.31784,0,0,1,1.21-.62695,3.84326,3.84326,0,0,1,1.32031-.23144,3.39425,3.39425,0,0,1,1.99121.56152,3.00122,3.00122,0,0,1,1.13281,1.48437.112.112,0,0,0,.1211.07715.30756.30756,0,0,0,.165-.09863,7.6559,7.6559,0,0,1,1.15527-1.02344,5.71386,5.71386,0,0,1,1.33106-.71484,3.92823,3.92823,0,0,1,1.38574-.26367,3.25213,3.25213,0,0,1,2.45312.94629,3.58122,3.58122,0,0,1,.91309,2.5957v7.80957a.4671.4671,0,0,1-.52832.52832h-2.44238a.43757.43757,0,0,1-.31836-.09863.47332.47332,0,0,1-.09961-.3418V132.2749a1.59116,1.59116,0,0,0-.39551-1.15527,1.499,1.499,0,0,0-1.12207-.40723,1.99007,1.99007,0,0,0-.81445.17676,3.90509,3.90509,0,0,0-.72559.418,3.30551,3.30551,0,0,0-.57227.52734.757.757,0,0,0-.19824.29785,1.07714,1.07714,0,0,0-.04394.31836v7.17188a.46641.46641,0,0,1-.52735.52832H520.835a.44021.44021,0,0,1-.31934-.09863.47353.47353,0,0,1-.09863-.3418V132.2749a1.59155,1.59155,0,0,0-.39648-1.15527,1.52679,1.52679,0,0,0-1.14356-.40723,2.2482,2.2482,0,0,0-1.21.3418,5.24479,5.24479,0,0,0-1.14453,1.02246V139.645c0,.33789-.19043.50586-.57226.50586h-2.35352C513.28809,140.15088,513.13477,140.00439,513.13477,139.71045Z"/><path class="cls-2" d="M536.707,136.75146a2.63133,2.63133,0,0,0,1.03418.96875,3.09316,3.09316,0,0,0,1.46289.34083,3.17809,3.17809,0,0,0,1.46289-.34083,4.61679,4.61679,0,0,0,1.35352-1.13378.322.322,0,0,1,.15429-.09864.50541.50541,0,0,1,.24122.07715l1.584.66016q.30762.13184.06641.43945a7.22187,7.22187,0,0,1-1.47364,1.60645,4.833,4.833,0,0,1-1.70507.84668,8.045,8.045,0,0,1-2.10157.25293,6.16943,6.16943,0,0,1-3.05761-.74805,5.551,5.551,0,0,1-2.12305-2.0791,5.90579,5.90579,0,0,1-.78125-3.04688,6.49094,6.49094,0,0,1,.80273-3.28906,5.7508,5.7508,0,0,1,2.14551-2.167,6.18712,6.18712,0,0,1,5.918-.03223,5.24382,5.24382,0,0,1,2.01269,2.10059,6.9077,6.9077,0,0,1,.73731,3.32226,1.23914,1.23914,0,0,1-.04395.374c-.02929.08789-.13964.13964-.33007.15332h-7.48047a.23114.23114,0,0,0-.19727.08886.437.437,0,0,0-.0664.26368A2.69325,2.69325,0,0,0,536.707,136.75146Zm4.03711-3.64062a.55646.55646,0,0,0,.30859-.05469c.04395-.03711.06543-.12109.06543-.25293a2.753,2.753,0,0,0-.25293-1.12207,2.45,2.45,0,0,0-.748-.957,1.999,1.999,0,0,0-1.26465-.38476,2.42577,2.42577,0,0,0-1.29785.35156,2.31821,2.31821,0,0,0-.87989.97851,3.16985,3.16985,0,0,0-.30859,1.41993Z"/><path class="cls-2" d="M546.24414,139.71045V128.90869q0-.41748.35254-.418h2.66211q.3296,0,.33008.374v1.07812a.19762.19762,0,0,0,.06543.17578c.04394.03028.11035,0,.19824-.08789a10.54267,10.54267,0,0,1,1.14355-.92383,4.98255,4.98255,0,0,1,1.21-.61621,4.16236,4.16236,0,0,1,1.36426-.21972,3.2433,3.2433,0,0,1,3.47657,3.47558v7.876a.46711.46711,0,0,1-.52833.52832h-2.44238a.43758.43758,0,0,1-.31836-.09863.47337.47337,0,0,1-.09961-.3418V132.2749a1.56362,1.56362,0,0,0-.40722-1.15527,1.62857,1.62857,0,0,0-1.19825-.40723,2.34817,2.34817,0,0,0-.85839.1543,2.96253,2.96253,0,0,0-.76954.45117,6.73421,6.73421,0,0,0-.792.75879V139.645c0,.33789-.1914.50586-.57226.50586h-2.3545Q546.24464,140.15088,546.24414,139.71045Z"/><path class="cls-2" d="M563.88867,130.82275c-.16211,0-.24219.08789-.24219.26368v5.30273a1.38316,1.38316,0,0,0,.35157,1.06641,1.6384,1.6384,0,0,0,1.12207.31933h1.18847a.292.292,0,0,1,.24121.11035.4097.4097,0,0,1,.08887.26368l-.02246,1.34179q0,.41895-.48437.52832-.39552.044-.84668.07715-.45117.03223-.90235.04395-.45117.01025-.86816.01074a3.65585,3.65585,0,0,1-2.376-.71484,2.5743,2.5743,0,0,1-.88086-2.123v-6.16016q0-.32958-.28515-.33008h-1.34278c-.27832,0-.418-.124-.418-.374V128.8208q0-.3296.39649-.33008H560.126c.13183,0,.20507-.08008.2207-.24218l.30762-3.34375c.01465-.249.124-.374.33008-.374h2.39746c.23437,0,.35254.13965.35254.418v3.29981a.19451.19451,0,0,0,.21972.2207h2.31055q.39551,0,.39551.35156v1.62793c0,.25-.14649.374-.43946.374Z"/><path class="cls-2" d="M574.668,130.69092a3.19849,3.19849,0,0,0-1.56152-.35156,2.75082,2.75082,0,0,0-1.375.31835.9705.9705,0,0,0-.56153.86915.81115.81115,0,0,0,.21973.53906,2.09343,2.09343,0,0,0,1.01269.45117l2.5293.61621a4.55079,4.55079,0,0,1,2.59668,1.36328,3.2667,3.2667,0,0,1,.76953,2.11231,3.13369,3.13369,0,0,1-.6709,2.02441,4.23939,4.23939,0,0,1-1.8584,1.28613,7.6551,7.6551,0,0,1-2.72851.45118,7.27167,7.27167,0,0,1-3.32227-.69239,4.24374,4.24374,0,0,1-1.91406-1.72754.59748.59748,0,0,1-.08789-.29687.21966.21966,0,0,1,.13184-.209l1.49609-.76953a.70983.70983,0,0,1,.3418-.09961.30271.30271,0,0,1,.209.1211,4.63353,4.63353,0,0,0,.68164.748,2.9421,2.9421,0,0,0,.99024.56153,4.263,4.263,0,0,0,1.49609.18652,4.022,4.022,0,0,0,1.11035-.14258,1.84349,1.84349,0,0,0,.78125-.418.87247.87247,0,0,0,.28613-.64941.844.844,0,0,0-.30859-.64941,2.75008,2.75008,0,0,0-1.14355-.47266l-2.26563-.48438a5.245,5.245,0,0,1-2.49707-1.17675,2.75906,2.75906,0,0,1-.84766-2.10059,3.44048,3.44048,0,0,1,.583-1.98047,3.89906,3.89906,0,0,1,1.70508-1.35254,6.61843,6.61843,0,0,1,2.68457-.49511,6.343,6.343,0,0,1,2.89258.61621,4.1819,4.1819,0,0,1,1.749,1.47363,1.04814,1.04814,0,0,1,.13184.27539c.02929.09473-.02149.17969-.15332.25293l-1.584.76953a.41532.41532,0,0,1-.27539.0332.47365.47365,0,0,1-.23144-.165A3.21075,3.21075,0,0,0,574.668,130.69092Z"/></g></svg>