<?xml version="1.0" encoding="utf-8"?>
<!-- Generator: Adobe Illustrator 24.0.3, SVG Export Plug-In . SVG Version: 6.00 Build 0)  -->
<svg version="1.1" xmlns="http://www.w3.org/2000/svg" xmlns:xlink="http://www.w3.org/1999/xlink" x="0px" y="0px"
	 viewBox="0 0 841.89 467.72" style="enable-background:new 0 0 841.89 467.72;" xml:space="preserve">
<style type="text/css">
	.st0{fill:#61A575;}
	.st1{fill:#E0635D;}
	.st2{fill:#F58D5D;}
	.st3{fill:#F5C65D;}
	.st4{fill:#DCEFFA;}
	.st5{fill:#FFFFFF;}
	.st6{fill:#4890BA;}
	.st7{fill:#F4F4F5;}
	.st8{fill:#54575C;}
	.st9{fill:#54565A;}
	.st10{fill:#E88A85;}
</style>
<g id="Layer_1">
</g>
<g id="Layer_2">
</g>
<g id="Layer_3">
	<g>
		<rect class="st7" width="841.89" height="467.72"/>
	</g>
	<g>
		<g>
			<rect x="0.21" y="377.02" class="st8" width="841.89" height="90.7"/>
		</g>
		<g>
			<path class="st5" d="M236.16,420.54c0-5.33,3.98-9.39,9.44-9.39c2.41,0,4.22,0.8,5.38,1.66l-1.03,3.21
				c-0.88-0.62-2.51-1.45-4.34-1.45c-3.29,0-5.64,2.56-5.64,5.97c0,3.47,2.35,5.97,5.64,5.97c1.96,0,3.65-0.88,4.5-1.47l1.03,3.18
				c-1.09,0.8-2.9,1.71-5.53,1.71C239.93,429.93,236.16,425.87,236.16,420.54z"/>
			<path class="st5" d="M259.8,415.73c4.14,0,7.29,3.05,7.29,7.14c0,4.09-3.05,7.06-7.29,7.06c-4.22,0-7.27-2.97-7.27-7.06
				C252.53,418.76,255.69,415.73,259.8,415.73z M259.8,426.78c2.15,0,3.72-1.6,3.72-3.91s-1.58-3.98-3.72-3.98s-3.7,1.66-3.7,3.98
				C256.1,425.17,257.68,426.78,259.8,426.78z"/>
			<path class="st5" d="M268.23,427.42l2.09-1.86c0.67,0.78,1.58,1.47,3.1,1.47c1.01,0,1.66-0.44,1.66-1.22
				c0-2.07-6.39-1.27-6.39-6.08c0-2.51,2.15-4.01,4.91-4.01c2.56,0,3.98,1.35,4.63,2.41l-2.35,1.76c-0.41-0.52-1.16-1.29-2.43-1.29
				c-0.83,0-1.4,0.41-1.4,1.09c0,2.15,6.41,1.11,6.41,5.95c0,2.64-2.28,4.29-5.2,4.29C270.61,429.93,268.95,428.59,268.23,427.42z"
				/>
			<path class="st5" d="M280.72,413.22h3.52v2.85h2.54v2.9h-2.54v5.22c0,2.02,0.62,2.43,1.99,2.43c0.23,0,0.36,0,0.65-0.03v3.05
				c0,0-0.54,0.13-1.53,0.13c-3.23,0-4.66-1.81-4.66-5.48v-5.33h-1.42v-2.9h1.45V413.22z"/>
			<path class="st5" d="M301.93,415.73c4.14,0,7.29,3.05,7.29,7.14c0,4.09-3.05,7.06-7.29,7.06c-4.21,0-7.27-2.97-7.27-7.06
				C294.66,418.76,297.82,415.73,301.93,415.73z M301.93,426.78c2.15,0,3.72-1.6,3.72-3.91s-1.58-3.98-3.72-3.98
				c-2.15,0-3.7,1.66-3.7,3.98C298.23,425.17,299.81,426.78,301.93,426.78z"/>
			<path class="st5" d="M311.89,418.97h-1.45v-2.9h1.45v-0.49c0-3.52,2.35-4.68,4.99-4.68c0.52,0,0.91,0.03,1.16,0.05v3
				c-0.08,0-0.39-0.05-0.7-0.05c-1.24,0-1.89,0.57-1.89,1.76v0.41h2.35v2.9h-2.35v10.63h-3.57V418.97z"/>
			<path class="st5" d="M325.49,420.54c0-5.33,3.98-9.39,9.44-9.39c2.41,0,4.22,0.8,5.38,1.66l-1.04,3.21
				c-0.88-0.62-2.51-1.45-4.34-1.45c-3.28,0-5.64,2.56-5.64,5.97c0,3.47,2.35,5.97,5.64,5.97c1.97,0,3.65-0.88,4.5-1.47l1.04,3.18
				c-1.09,0.8-2.9,1.71-5.54,1.71C329.27,429.93,325.49,425.87,325.49,420.54z"/>
			<path class="st5" d="M354.44,421.79v7.81h-3.54v-8.22c0-1.5-1.03-2.43-2.25-2.43c-1.5,0-2.46,1.09-2.46,2.54v8.12h-3.57v-18.7
				h3.57v6.75c0.57-0.93,1.81-1.91,3.57-1.91C353.63,415.73,354.44,418.92,354.44,421.79z"/>
			<path class="st5" d="M361.63,420.93c1.37,0,2.43,0.41,2.92,0.75v-0.88c0-1.19-0.88-1.99-2.46-1.99c-1.34,0-2.59,0.44-3.59,0.96
				l-1.34-2.43c1.22-0.83,3.26-1.6,5.33-1.6c4.34,0,5.64,2.28,5.64,5.3v8.56h-3.16l-0.23-0.88c-0.7,0.75-1.73,1.21-3.29,1.21
				c-2.74,0-5.07-1.68-5.07-4.53C356.37,422.74,358.47,420.93,361.63,420.93z M362.3,427.17c1.34,0,2.33-0.72,2.33-1.86
				c0-1.19-0.98-1.89-2.35-1.89c-1.37,0-2.33,0.78-2.33,1.89C359.94,426.42,360.95,427.17,362.3,427.17z"/>
			<path class="st5" d="M382.55,421.79v7.81h-3.57v-8.22c0-1.5-1.03-2.43-2.25-2.43c-1.47,0-2.41,1.09-2.41,2.54v8.12h-3.57v-13.53
				h3.49v1.58c0.57-0.93,1.86-1.91,3.62-1.91C381.72,415.73,382.55,418.92,382.55,421.79z"/>
			<path class="st5" d="M387.31,430.58c0.44,0.23,1.99,0.93,3.85,0.93c1.94,0,3.72-0.59,3.72-2.69v-0.62
				c-0.28,0.39-1.6,1.73-3.96,1.73c-3.91,0-6.47-2.92-6.47-7.09s2.74-7.11,6.6-7.11c2.28,0,3.65,1.24,4.03,1.76v-1.42h3.36v11.82
				c0,5.04-3.28,6.67-7.27,6.67c-1.86,0-3.75-0.57-4.97-1.24L387.31,430.58z M391.5,418.89c-2.02,0-3.44,1.55-3.44,3.93
				c0,2.38,1.45,3.96,3.47,3.96c2.07,0,3.46-1.55,3.46-3.96C394.99,420.52,393.59,418.89,391.5,418.89z"/>
			<path class="st5" d="M407.04,415.73c4.19,0,6.57,2.79,6.57,7.22c0,0.26,0,0.52-0.03,0.78h-9.52c0.08,1.81,1.53,3.1,3.52,3.1
				c1.84,0,2.9-1.09,3.28-1.66l2.35,1.79c-0.52,0.96-2.33,2.97-5.69,2.97c-4.35,0-7.11-3-7.11-7.06
				C400.42,418.79,403.19,415.73,407.04,415.73z M409.99,421.4c-0.08-1.66-1.27-2.74-2.9-2.74c-1.68,0-2.77,1.19-2.92,2.74H409.99z"
				/>
			<path class="st5" d="M425.33,428.61c0,1.32,0.59,2.2,2.22,2.2v3.08c-3.93,0-5.77-1.91-5.77-5.46v-14.04
				c0-3.54,1.84-5.48,5.77-5.48v3.08c-1.63,0-2.22,0.88-2.22,2.2V428.61z"/>
			<path class="st5" d="M429.98,420.54c0-5.33,3.98-9.39,9.44-9.39c2.41,0,4.22,0.8,5.38,1.66l-1.03,3.21
				c-0.88-0.62-2.51-1.45-4.35-1.45c-3.28,0-5.64,2.56-5.64,5.97c0,3.47,2.35,5.97,5.64,5.97c1.97,0,3.65-0.88,4.5-1.47l1.03,3.18
				c-1.09,0.8-2.9,1.71-5.54,1.71C433.76,429.93,429.98,425.87,429.98,420.54z"/>
			<path class="st5" d="M453.62,415.73c4.14,0,7.29,3.05,7.29,7.14c0,4.09-3.05,7.06-7.29,7.06c-4.22,0-7.27-2.97-7.27-7.06
				C446.36,418.76,449.51,415.73,453.62,415.73z M453.62,426.78c2.15,0,3.72-1.6,3.72-3.91s-1.58-3.98-3.72-3.98s-3.7,1.66-3.7,3.98
				C449.93,425.17,451.5,426.78,453.62,426.78z"/>
			<path class="st5" d="M462.34,420.54c0-5.33,3.98-9.39,9.44-9.39c2.41,0,4.22,0.8,5.38,1.66l-1.03,3.21
				c-0.88-0.62-2.51-1.45-4.35-1.45c-3.28,0-5.64,2.56-5.64,5.97c0,3.47,2.35,5.97,5.64,5.97c1.97,0,3.65-0.88,4.5-1.47l1.03,3.18
				c-1.09,0.8-2.9,1.71-5.54,1.71C466.12,429.93,462.34,425.87,462.34,420.54z"/>
			<path class="st5" d="M481.95,414.18c0-1.32-0.59-2.2-2.22-2.2v-3.08c3.93,0,5.77,1.94,5.77,5.48v14.04
				c0,3.54-1.84,5.46-5.77,5.46v-3.08c1.63,0,2.22-0.88,2.22-2.2V414.18z"/>
			<path class="st5" d="M503.8,420.93l-2.51,8.66h-3.98l-4.04-13.53h3.88l2.38,9.59l2.59-9.59h3.36l2.56,9.59l2.41-9.59h3.88
				l-4.06,13.53h-3.98L503.8,420.93z"/>
			<path class="st5" d="M517.66,410.77c1.19,0,2.09,0.88,2.09,2.04c0,1.16-0.91,2.04-2.09,2.04c-1.16,0-2.07-0.88-2.07-2.04
				C515.59,411.65,516.5,410.77,517.66,410.77z M515.9,416.07h3.57v13.53h-3.57V416.07z"/>
			<path class="st5" d="M522.63,413.22h3.52v2.85h2.54v2.9h-2.54v5.22c0,2.02,0.62,2.43,1.99,2.43c0.23,0,0.36,0,0.65-0.03v3.05
				c0,0-0.54,0.13-1.53,0.13c-3.23,0-4.66-1.81-4.66-5.48v-5.33h-1.42v-2.9h1.45V413.22z"/>
			<path class="st5" d="M542.73,421.79v7.81h-3.54v-8.22c0-1.5-1.03-2.43-2.25-2.43c-1.5,0-2.46,1.09-2.46,2.54v8.12h-3.57v-18.7
				h3.57v6.75c0.57-0.93,1.81-1.91,3.57-1.91C541.92,415.73,542.73,418.92,542.73,421.79z"/>
			<path class="st5" d="M552.19,411.49H557c5.92,0,9.59,3.39,9.59,9.05c0,5.79-3.7,9.05-9.59,9.05h-4.81V411.49z M557.13,426.44
				c3.44,0,5.66-1.99,5.66-5.9c0-3.8-2.22-5.87-5.66-5.87h-1.29v11.77H557.13z"/>
			<path class="st5" d="M574.69,415.73c4.19,0,6.57,2.79,6.57,7.22c0,0.26,0,0.52-0.03,0.78h-9.52c0.08,1.81,1.53,3.1,3.52,3.1
				c1.84,0,2.9-1.09,3.28-1.66l2.35,1.79c-0.52,0.96-2.33,2.97-5.69,2.97c-4.35,0-7.11-3-7.11-7.06
				C568.07,418.79,570.84,415.73,574.69,415.73z M577.64,421.4c-0.08-1.66-1.27-2.74-2.9-2.74c-1.68,0-2.77,1.19-2.92,2.74H577.64z"
				/>
			<path class="st5" d="M583.25,410.9h3.57v6.59c0.34-0.46,1.68-1.76,4.01-1.76c3.88,0,6.41,2.92,6.41,7.11
				c0,4.16-2.74,7.09-6.62,7.09c-2.3,0-3.65-1.29-4.01-1.73v1.4h-3.36V410.9z M590.19,426.78c2.02,0,3.47-1.5,3.47-3.91
				c0-2.35-1.4-3.98-3.47-3.98c-1.97,0-3.47,1.45-3.47,3.98C586.72,425.02,588.01,426.78,590.19,426.78z"/>
			<path class="st5" d="M599.63,413.22h3.52v2.85h2.54v2.9h-2.54v5.22c0,2.02,0.62,2.43,1.99,2.43c0.23,0,0.36,0,0.65-0.03v3.05
				c0,0-0.54,0.13-1.53,0.13c-3.23,0-4.66-1.81-4.66-5.48v-5.33h-1.42v-2.9h1.45V413.22z"/>
		</g>
	</g>
	<g>
		<g>
			<g>
				<rect x="189.91" y="37.27" class="st8" width="334.36" height="308.34"/>
			</g>
			<g>
				<path class="st6" d="M190.77,338.36c0,0,58.02-13.21,92.18-16.57c63.18-6.21,235.11-62.14,235.11-62.14l-1.04,81.82
					L190.77,338.36z"/>
			</g>
			<g>
				<g>
					<path class="st7" d="M174.2,19.36V353.9h360.86V19.36H174.2z M224.14,337.29H197.2c9.24-4.39,18.21-8.85,26.95-13.35V337.29z
						 M256.24,337.29h-26.31v-16.35c9.04-4.74,17.81-9.53,26.31-14.37V337.29z M288.34,337.29h-26.31v-34.04
						c9.07-5.25,17.84-10.54,26.31-15.86V337.29z M320.43,337.29h-26.31v-53.56c9.12-5.83,17.89-11.7,26.31-17.58V337.29z
						 M352.53,337.29h-26.31v-75.22c9.18-6.53,17.95-13.07,26.31-19.59V337.29z M384.63,337.29h-26.31v-99.37
						c9.27-7.38,18.03-14.73,26.31-22.02V337.29z M416.73,337.29h-26.31V210.76c9.41-8.48,18.17-16.84,26.31-25.04V337.29z
						 M448.82,337.29h-26.31V179.81c9.67-10.01,18.42-19.73,26.31-29.07V337.29z M480.92,337.29h-26.31v-193.5
						c10.31-12.6,19.02-24.39,26.31-35.06V337.29z M512.82,337.29H486.7V100.07c19.65-30.2,26.95-49.48,26.95-49.48L512.82,337.29z"
						/>
				</g>
			</g>
			<g>
				<g>
					<path class="st8" d="M418.83,333.79h-27.31V206.53l0.17-0.15c9.05-8.15,17.9-16.57,26.29-25.03l0.85-0.86V333.79z
						 M392.51,332.79h25.31V182.92c-8.1,8.13-16.61,16.21-25.31,24.06V332.79z"/>
				</g>
				<g>
					<path class="st8" d="M386.73,333.79h-27.31V233.68l0.19-0.15c8.97-7.14,17.82-14.55,26.29-22l0.83-0.73V333.79z M360.41,332.79
						h25.31V213.01c-8.17,7.17-16.69,14.28-25.31,21.15V332.79z"/>
				</g>
				<g>
					<path class="st8" d="M354.63,333.79h-27.31v-75.98l0.21-0.15c8.95-6.36,17.79-12.95,26.3-19.58l0.81-0.63V333.79z
						 M328.32,332.79h25.31V239.5c-8.2,6.37-16.71,12.7-25.31,18.83V332.79z"/>
				</g>
				<g>
					<path class="st8" d="M322.53,333.79h-27.31v-54.34l0.23-0.15c8.95-5.73,17.8-11.64,26.3-17.57l0.79-0.55V333.79z
						 M296.22,332.79h25.31v-69.69c-8.2,5.7-16.71,11.38-25.31,16.89V332.79z"/>
				</g>
				<g>
					<path class="st8" d="M226.24,333.79h-29.66l2-0.95c8.98-4.27,18.04-8.76,26.93-13.34l0.73-0.38V333.79z M201.01,332.79h24.24
						v-12.03C217.23,324.88,209.09,328.92,201.01,332.79z"/>
				</g>
				<g>
					<path class="st8" d="M258.34,333.79h-27.31v-17.16l0.27-0.14c8.86-4.65,17.71-9.48,26.3-14.36l0.75-0.42V333.79z
						 M232.03,332.79h25.31v-29.36c-8.28,4.69-16.79,9.34-25.31,13.81V332.79z"/>
				</g>
				<g>
					<path class="st8" d="M290.44,333.79h-27.31v-34.82l0.25-0.14c8.94-5.17,17.78-10.5,26.3-15.85l0.77-0.48V333.79z
						 M264.12,332.79h25.31V284.3c-8.21,5.14-16.72,10.27-25.31,15.24V332.79z"/>
				</g>
				<g>
					<path class="st8" d="M483.02,333.79h-27.31V139.61l0.11-0.14c9.45-11.55,18.3-23.33,26.29-35.02l0.91-1.33V333.79z
						 M456.71,332.79h25.31V106.35c-7.74,11.23-16.25,22.53-25.31,33.62V332.79z"/>
				</g>
				<g>
					<path class="st8" d="M450.92,333.79h-27.31V175.61l0.14-0.15c9.18-9.49,18.02-19.26,26.29-29.04l0.88-1.04V333.79z
						 M424.61,332.79h25.31V148.11c-7.99,9.4-16.5,18.78-25.31,27.9V332.79z"/>
				</g>
				<g>
					<path class="st8" d="M514.92,333.79H487.8V95.92l0.08-0.12c19.39-29.8,26.82-49.2,26.9-49.39l0.98-2.58L514.92,333.79z
						 M488.8,332.79h25.12l0.82-283.65c-2.57,6.05-10.44,23.25-25.94,47.08V332.79z"/>
				</g>
			</g>
		</g>
		<g>
			<path class="st1" d="M205.12,56.82l-1.34,3.96h-3.12l5.46-15.4h3.26l5.46,15.4h-3.12l-1.34-3.96H205.12z M207.74,48.7l-1.78,5.54
				h3.59L207.74,48.7z"/>
			<path class="st1" d="M216.18,44.88h3.04v5.61c0.29-0.4,1.43-1.5,3.41-1.5c3.3,0,5.46,2.49,5.46,6.05c0,3.54-2.33,6.03-5.63,6.03
				c-1.96,0-3.1-1.1-3.41-1.47v1.19h-2.86V44.88z M222.08,58.39c1.72,0,2.95-1.28,2.95-3.32c0-2-1.19-3.39-2.95-3.39
				c-1.67,0-2.95,1.23-2.95,3.39C219.13,56.89,220.23,58.39,222.08,58.39z"/>
			<path class="st1" d="M231.32,44.77c1.01,0,1.78,0.75,1.78,1.74c0,0.99-0.77,1.74-1.78,1.74c-0.99,0-1.76-0.75-1.76-1.74
				C229.56,45.51,230.33,44.77,231.32,44.77z M229.82,49.28h3.04v11.51h-3.04V49.28z"/>
			<path class="st1" d="M235.26,44.88h3.04v15.91h-3.04V44.88z"/>
			<path class="st1" d="M242.19,44.77c1.01,0,1.78,0.75,1.78,1.74c0,0.99-0.77,1.74-1.78,1.74c-0.99,0-1.76-0.75-1.76-1.74
				C240.43,45.51,241.2,44.77,242.19,44.77z M240.69,49.28h3.04v11.51h-3.04V49.28z"/>
			<path class="st1" d="M246.41,46.86h2.99v2.42h2.16v2.46h-2.16v4.44c0,1.72,0.53,2.07,1.69,2.07c0.2,0,0.31,0,0.55-0.02v2.6
				c0,0-0.46,0.11-1.3,0.11c-2.75,0-3.96-1.54-3.96-4.66v-4.53h-1.21v-2.46h1.23V46.86z"/>
			<path class="st1" d="M255.87,64.72l1.61-4.22l-4.42-11.22h3.26l2.57,7.5l2.6-7.5h3.17l-5.88,15.45H255.87z"/>
			<path class="st1" d="M271.73,46.86h2.99v2.42h2.16v2.46h-2.16v4.44c0,1.72,0.53,2.07,1.69,2.07c0.2,0,0.31,0,0.55-0.02v2.6
				c0,0-0.46,0.11-1.3,0.11c-2.75,0-3.96-1.54-3.96-4.66v-4.53h-1.21v-2.46h1.23V46.86z"/>
			<path class="st1" d="M284.32,48.99c3.52,0,6.2,2.6,6.2,6.07s-2.6,6.01-6.2,6.01c-3.59,0-6.18-2.53-6.18-6.01
				C278.13,51.56,280.82,48.99,284.32,48.99z M284.32,58.39c1.83,0,3.17-1.36,3.17-3.32c0-1.96-1.34-3.39-3.17-3.39
				c-1.83,0-3.15,1.41-3.15,3.39C281.17,57.02,282.51,58.39,284.32,58.39z"/>
			<path class="st1" d="M314.15,60.78h-3.04V53.9c0-1.36-0.68-2.18-1.8-2.18c-1.1,0-1.87,0.81-1.87,2.2v6.86h-3.04v-7
				c0-1.3-0.66-2.07-1.78-2.07c-1.08,0-1.87,0.81-1.87,2.18v6.89h-3.04V49.28h2.97v1.34c0.42-0.79,1.43-1.63,2.99-1.63
				c1.47,0,2.55,0.66,3.15,1.72c0.68-1.06,1.87-1.72,3.41-1.72c2.62,0,3.92,1.74,3.92,4.2V60.78z"/>
			<path class="st1" d="M321.45,48.99c3.56,0,5.59,2.38,5.59,6.14c0,0.22,0,0.44-0.02,0.66h-8.1c0.07,1.54,1.3,2.64,2.99,2.64
				c1.56,0,2.46-0.92,2.79-1.41l2,1.52c-0.44,0.81-1.98,2.53-4.84,2.53c-3.7,0-6.05-2.55-6.05-6.01
				C315.82,51.59,318.17,48.99,321.45,48.99z M323.96,53.81c-0.07-1.41-1.08-2.33-2.46-2.33c-1.43,0-2.35,1.01-2.49,2.33H323.96z"/>
			<path class="st1" d="M333.75,48.99c3.56,0,5.59,2.38,5.59,6.14c0,0.22,0,0.44-0.02,0.66h-8.1c0.07,1.54,1.3,2.64,2.99,2.64
				c1.56,0,2.46-0.92,2.79-1.41l2,1.52c-0.44,0.81-1.98,2.53-4.84,2.53c-3.7,0-6.05-2.55-6.05-6.01
				C328.12,51.59,330.47,48.99,333.75,48.99z M336.26,53.81c-0.07-1.41-1.08-2.33-2.46-2.33c-1.43,0-2.35,1.01-2.49,2.33H336.26z"/>
			<path class="st1" d="M341.32,46.86h2.99v2.42h2.16v2.46h-2.16v4.44c0,1.72,0.53,2.07,1.69,2.07c0.2,0,0.31,0,0.55-0.02v2.6
				c0,0-0.46,0.11-1.3,0.11c-2.75,0-3.96-1.54-3.96-4.66v-4.53h-1.21v-2.46h1.23V46.86z"/>
			<path class="st1" d="M353.73,55.92v-6.65h3.04v7c0,1.28,0.88,2.07,1.91,2.07c1.25,0,2.05-0.92,2.05-2.16v-6.91h3.04v11.51h-2.97
				v-1.34c-0.48,0.79-1.58,1.63-3.08,1.63C354.43,61.07,353.73,58.36,353.73,55.92z"/>
			<path class="st1" d="M365.28,58.94l1.78-1.58c0.57,0.66,1.34,1.25,2.64,1.25c0.86,0,1.41-0.37,1.41-1.03
				c0-1.76-5.43-1.08-5.43-5.17c0-2.13,1.83-3.41,4.18-3.41c2.18,0,3.39,1.14,3.94,2.05l-2,1.5c-0.35-0.44-0.99-1.1-2.07-1.1
				c-0.7,0-1.19,0.35-1.19,0.92c0,1.83,5.46,0.95,5.46,5.06c0,2.24-1.94,3.65-4.42,3.65C367.3,61.07,365.89,59.93,365.28,58.94z"/>
			<path class="st1" d="M380.63,48.99c3.56,0,5.59,2.38,5.59,6.14c0,0.22,0,0.44-0.02,0.66h-8.1c0.07,1.54,1.3,2.64,2.99,2.64
				c1.56,0,2.46-0.92,2.79-1.41l2,1.52c-0.44,0.81-1.98,2.53-4.84,2.53c-3.7,0-6.05-2.55-6.05-6.01
				C375,51.59,377.35,48.99,380.63,48.99z M383.14,53.81c-0.07-1.41-1.08-2.33-2.46-2.33c-1.43,0-2.35,1.01-2.49,2.33H383.14z"/>
			<path class="st1" d="M394.05,52.07c-2.27,0-3.1,1.41-3.1,3.7v5.02h-3.04V49.28h2.97v1.67c0.51-1.14,1.65-1.96,3.17-1.96V52.07z"
				/>
			<path class="st1" d="M411.32,54.14v6.65h-3.04v-7c0-1.28-0.88-2.07-1.92-2.07c-1.25,0-2.05,0.92-2.05,2.16v6.91h-3.04V49.28h2.97
				v1.34c0.48-0.79,1.58-1.63,3.08-1.63C410.62,48.99,411.32,51.7,411.32,54.14z"/>
			<path class="st1" d="M418.63,48.99c3.56,0,5.59,2.38,5.59,6.14c0,0.22,0,0.44-0.02,0.66h-8.1c0.07,1.54,1.3,2.64,2.99,2.64
				c1.56,0,2.46-0.92,2.79-1.41l2,1.52c-0.44,0.81-1.98,2.53-4.84,2.53c-3.7,0-6.05-2.55-6.05-6.01
				C412.99,51.59,415.35,48.99,418.63,48.99z M421.13,53.81c-0.07-1.41-1.08-2.33-2.46-2.33c-1.43,0-2.35,1.01-2.49,2.33H421.13z"/>
			<path class="st1" d="M430.92,48.99c3.56,0,5.59,2.38,5.59,6.14c0,0.22,0,0.44-0.02,0.66h-8.1c0.07,1.54,1.3,2.64,2.99,2.64
				c1.56,0,2.46-0.92,2.79-1.41l2,1.52c-0.44,0.81-1.98,2.53-4.84,2.53c-3.7,0-6.05-2.55-6.05-6.01
				C425.29,51.59,427.65,48.99,430.92,48.99z M433.43,53.81c-0.07-1.41-1.08-2.33-2.46-2.33c-1.43,0-2.35,1.01-2.49,2.33H433.43z"/>
			<path class="st1" d="M449.47,60.78h-2.86V59.6c-0.31,0.37-1.45,1.47-3.41,1.47c-3.3,0-5.63-2.49-5.63-6.03
				c0-3.56,2.16-6.05,5.46-6.05c1.98,0,3.12,1.1,3.41,1.5v-5.61h3.04V60.78z M443.57,51.67c-1.76,0-2.95,1.39-2.95,3.39
				c0,2.05,1.23,3.32,2.95,3.32c1.85,0,2.95-1.5,2.95-3.32C446.52,52.91,445.25,51.67,443.57,51.67z"/>
			<path class="st1" d="M451.07,58.94l1.78-1.58c0.57,0.66,1.34,1.25,2.64,1.25c0.86,0,1.41-0.37,1.41-1.03
				c0-1.76-5.43-1.08-5.43-5.17c0-2.13,1.83-3.41,4.18-3.41c2.18,0,3.39,1.14,3.94,2.05l-2,1.5c-0.35-0.44-0.99-1.1-2.07-1.1
				c-0.7,0-1.19,0.35-1.19,0.92c0,1.83,5.46,0.95,5.46,5.06c0,2.24-1.94,3.65-4.42,3.65C453.1,61.07,451.69,59.93,451.07,58.94z"/>
			<path class="st1" d="M467.18,44.28h2.66l-6.62,18.88h-2.66L467.18,44.28z"/>
			<path class="st1" d="M201.95,71.78h4.91c3.01,0,5.06,1.89,5.06,4.8c0,2.86-2.13,4.86-5.04,4.86h-1.83v5.74h-3.1V71.78z
				 M206.44,78.76c1.36,0,2.29-0.88,2.29-2.18c0-1.28-0.95-2.11-2.24-2.11h-1.43v4.29H206.44z"/>
			<path class="st1" d="M219.73,78.47c-2.27,0-3.1,1.41-3.1,3.7v5.02h-3.04V75.68h2.97v1.67c0.51-1.14,1.65-1.96,3.17-1.96V78.47z"
				/>
			<path class="st1" d="M226.08,75.39c3.56,0,5.59,2.38,5.59,6.14c0,0.22,0,0.44-0.02,0.66h-8.1c0.07,1.54,1.3,2.64,2.99,2.64
				c1.56,0,2.46-0.92,2.79-1.41l2,1.52c-0.44,0.81-1.98,2.53-4.84,2.53c-3.7,0-6.05-2.55-6.05-6.01
				C220.45,77.99,222.81,75.39,226.08,75.39z M228.59,80.21c-0.07-1.41-1.08-2.33-2.46-2.33c-1.43,0-2.35,1.01-2.49,2.33H228.59z"/>
			<path class="st1" d="M244.63,87.18h-2.86V86c-0.31,0.37-1.45,1.47-3.41,1.47c-3.3,0-5.63-2.49-5.63-6.03
				c0-3.56,2.16-6.05,5.46-6.05c1.98,0,3.12,1.1,3.41,1.5v-5.61h3.04V87.18z M238.73,78.07c-1.76,0-2.95,1.39-2.95,3.39
				c0,2.05,1.23,3.32,2.95,3.32c1.85,0,2.95-1.5,2.95-3.32C241.68,79.31,240.41,78.07,238.73,78.07z"/>
			<path class="st1" d="M248.5,71.17c1.01,0,1.78,0.75,1.78,1.74c0,0.99-0.77,1.74-1.78,1.74c-0.99,0-1.76-0.75-1.76-1.74
				C246.74,71.91,247.51,71.17,248.5,71.17z M247.01,75.68h3.04v11.51h-3.04V75.68z"/>
			<path class="st1" d="M260.71,83.75l0.81,2.49c-0.66,0.53-1.91,1.23-3.59,1.23c-3.59,0-6.14-2.51-6.14-6.01s2.62-6.07,6.12-6.07
				c1.69,0,2.88,0.66,3.63,1.23l-0.86,2.55c-0.51-0.46-1.39-1.1-2.68-1.1c-1.96,0-3.17,1.52-3.17,3.37c0,1.96,1.36,3.34,3.28,3.34
				C259.28,84.79,260.21,84.17,260.71,83.75z"/>
			<path class="st1" d="M263.51,73.26h2.99v2.42h2.16v2.46h-2.16v4.44c0,1.72,0.53,2.07,1.69,2.07c0.2,0,0.31,0,0.55-0.02v2.6
				c0,0-0.46,0.11-1.3,0.11c-2.75,0-3.96-1.54-3.96-4.66v-4.53h-1.21v-2.46h1.23V73.26z"/>
			<path class="st1" d="M274.35,79.81c1.17,0,2.07,0.35,2.49,0.64V79.7c0-1.01-0.75-1.69-2.09-1.69c-1.14,0-2.2,0.37-3.06,0.81
				l-1.14-2.07c1.03-0.7,2.77-1.36,4.53-1.36c3.7,0,4.8,1.94,4.8,4.51v7.28h-2.68l-0.2-0.75c-0.59,0.64-1.47,1.03-2.79,1.03
				c-2.33,0-4.31-1.43-4.31-3.85C269.89,81.35,271.67,79.81,274.35,79.81z M274.92,85.12c1.14,0,1.98-0.62,1.98-1.58
				c0-1.01-0.84-1.61-2-1.61s-1.98,0.66-1.98,1.61C272.92,84.48,273.78,85.12,274.92,85.12z"/>
			<path class="st1" d="M282.12,71.28h3.04v5.61c0.29-0.4,1.43-1.5,3.41-1.5c3.3,0,5.46,2.49,5.46,6.05c0,3.54-2.33,6.03-5.63,6.03
				c-1.96,0-3.1-1.1-3.41-1.47v1.19h-2.86V71.28z M288.01,84.79c1.72,0,2.95-1.28,2.95-3.32c0-2-1.19-3.39-2.95-3.39
				c-1.67,0-2.95,1.23-2.95,3.39C285.07,83.29,286.16,84.79,288.01,84.79z"/>
			<path class="st1" d="M297.25,71.17c1.01,0,1.78,0.75,1.78,1.74c0,0.99-0.77,1.74-1.78,1.74c-0.99,0-1.76-0.75-1.76-1.74
				C295.49,71.91,296.26,71.17,297.25,71.17z M295.76,75.68h3.04v11.51h-3.04V75.68z"/>
			<path class="st1" d="M301.19,71.28h3.04v15.91h-3.04V71.28z"/>
			<path class="st1" d="M308.12,71.17c1.01,0,1.78,0.75,1.78,1.74c0,0.99-0.77,1.74-1.78,1.74c-0.99,0-1.76-0.75-1.76-1.74
				C306.36,71.91,307.13,71.17,308.12,71.17z M306.62,75.68h3.04v11.51h-3.04V75.68z"/>
			<path class="st1" d="M312.35,73.26h2.99v2.42h2.16v2.46h-2.16v4.44c0,1.72,0.53,2.07,1.69,2.07c0.2,0,0.31,0,0.55-0.02v2.6
				c0,0-0.46,0.11-1.3,0.11c-2.75,0-3.96-1.54-3.96-4.66v-4.53h-1.21v-2.46h1.23V73.26z"/>
			<path class="st1" d="M321.8,91.12l1.61-4.22l-4.42-11.22h3.26l2.57,7.5l2.6-7.5h3.17l-5.88,15.45H321.8z"/>
			<path class="st1" d="M342.93,75.39c3.52,0,6.2,2.6,6.2,6.07s-2.6,6.01-6.2,6.01c-3.59,0-6.18-2.53-6.18-6.01
				C336.74,77.96,339.43,75.39,342.93,75.39z M342.93,84.79c1.83,0,3.17-1.36,3.17-3.32c0-1.96-1.34-3.39-3.17-3.39
				c-1.83,0-3.15,1.41-3.15,3.39C339.78,83.42,341.12,84.79,342.93,84.79z"/>
			<path class="st1" d="M351.39,78.14h-1.23v-2.46h1.23v-0.42c0-2.99,2-3.98,4.25-3.98c0.44,0,0.77,0.02,0.99,0.04v2.55
				c-0.07,0-0.33-0.04-0.59-0.04c-1.06,0-1.61,0.48-1.61,1.5v0.35h2v2.46h-2v9.04h-3.04V78.14z"/>
			<path class="st1" d="M369.63,78.47c-2.27,0-3.1,1.41-3.1,3.7v5.02h-3.04V75.68h2.97v1.67c0.51-1.14,1.65-1.96,3.17-1.96V78.47z"
				/>
			<path class="st1" d="M375.99,75.39c3.56,0,5.59,2.38,5.59,6.14c0,0.22,0,0.44-0.02,0.66h-8.1c0.07,1.54,1.3,2.64,2.99,2.64
				c1.56,0,2.46-0.92,2.79-1.41l2,1.52c-0.44,0.81-1.98,2.53-4.84,2.53c-3.7,0-6.05-2.55-6.05-6.01
				C370.36,77.99,372.71,75.39,375.99,75.39z M378.5,80.21c-0.07-1.41-1.08-2.33-2.46-2.33c-1.43,0-2.35,1.01-2.49,2.33H378.5z"/>
			<path class="st1" d="M382.5,85.34l1.78-1.58c0.57,0.66,1.34,1.25,2.64,1.25c0.86,0,1.41-0.37,1.41-1.03
				c0-1.76-5.43-1.08-5.43-5.17c0-2.13,1.83-3.41,4.18-3.41c2.18,0,3.39,1.14,3.94,2.05l-2,1.5c-0.35-0.44-0.99-1.1-2.07-1.1
				c-0.7,0-1.19,0.35-1.19,0.92c0,1.83,5.46,0.95,5.46,5.06c0,2.24-1.94,3.65-4.42,3.65C384.53,87.47,383.12,86.33,382.5,85.34z"/>
			<path class="st1" d="M392.75,82.32v-6.65h3.04v7c0,1.28,0.88,2.07,1.91,2.07c1.25,0,2.05-0.92,2.05-2.16v-6.91h3.04v11.51h-2.97
				v-1.34c-0.48,0.79-1.58,1.63-3.08,1.63C393.46,87.47,392.75,84.76,392.75,82.32z"/>
			<path class="st1" d="M405.07,71.28h3.04v15.91h-3.04V71.28z"/>
			<path class="st1" d="M410.79,73.26h2.99v2.42h2.16v2.46h-2.16v4.44c0,1.72,0.53,2.07,1.69,2.07c0.2,0,0.31,0,0.55-0.02v2.6
				c0,0-0.46,0.11-1.3,0.11c-2.75,0-3.96-1.54-3.96-4.66v-4.53h-1.21v-2.46h1.23V73.26z"/>
			<path class="st1" d="M417.06,85.34l1.78-1.58c0.57,0.66,1.34,1.25,2.64,1.25c0.86,0,1.41-0.37,1.41-1.03
				c0-1.76-5.43-1.08-5.43-5.17c0-2.13,1.83-3.41,4.18-3.41c2.18,0,3.39,1.14,3.94,2.05l-2,1.5c-0.35-0.44-0.99-1.1-2.07-1.1
				c-0.7,0-1.19,0.35-1.19,0.92c0,1.83,5.46,0.95,5.46,5.06c0,2.24-1.94,3.65-4.42,3.65C419.09,87.47,417.68,86.33,417.06,85.34z"/>
		</g>
		<g>
			<path class="st1" d="M524.8,169.43c-4.64-46.43-91.96-62.77-164.39-68.31c-78.99-6.04-157.88-0.79-158.67-0.74l-0.2-2.99
				c0.79-0.05,79.89-5.31,159.1,0.74c46.59,3.56,84.12,10.28,111.55,19.97c34.73,12.27,53.44,29.44,55.6,51.03L524.8,169.43z"/>
		</g>
		<g>
			<path class="st8" d="M547.16,163.78c0-3.91,2.92-6.9,6.93-6.9c1.77,0,3.1,0.59,3.95,1.22l-0.76,2.36
				c-0.65-0.46-1.84-1.06-3.19-1.06c-2.41,0-4.14,1.88-4.14,4.39c0,2.55,1.73,4.39,4.14,4.39c1.44,0,2.68-0.65,3.31-1.08l0.76,2.34
				c-0.8,0.59-2.13,1.25-4.07,1.25C549.93,170.68,547.16,167.7,547.16,163.78z"/>
			<path class="st8" d="M564.52,160.25c3.04,0,5.36,2.24,5.36,5.24c0,3-2.24,5.19-5.36,5.19c-3.1,0-5.34-2.18-5.34-5.19
				C559.18,162.47,561.5,160.25,564.52,160.25z M564.52,168.36c1.58,0,2.74-1.18,2.74-2.87c0-1.69-1.16-2.93-2.74-2.93
				c-1.58,0-2.72,1.22-2.72,2.93C561.81,167.18,562.96,168.36,564.52,168.36z"/>
			<path class="st8" d="M570.93,163.78c0-3.91,2.92-6.9,6.93-6.9c1.77,0,3.1,0.59,3.95,1.22l-0.76,2.36
				c-0.65-0.46-1.84-1.06-3.19-1.06c-2.41,0-4.14,1.88-4.14,4.39c0,2.55,1.73,4.39,4.14,4.39c1.44,0,2.68-0.65,3.31-1.08l0.76,2.34
				c-0.8,0.59-2.13,1.25-4.07,1.25C573.7,170.68,570.93,167.7,570.93,163.78z"/>
			<path class="st8" d="M595.05,164.07l-1.84,6.36h-2.93l-2.96-9.94h2.85l1.75,7.05l1.9-7.05h2.47l1.88,7.05l1.77-7.05h2.85
				l-2.98,9.94h-2.93L595.05,164.07z"/>
			<path class="st8" d="M605.24,156.6c0.87,0,1.54,0.65,1.54,1.5s-0.67,1.5-1.54,1.5c-0.85,0-1.52-0.65-1.52-1.5
				S604.38,156.6,605.24,156.6z M603.95,160.5h2.62v9.94h-2.62V160.5z"/>
			<path class="st8" d="M608.89,158.41h2.58v2.09h1.86v2.13h-1.86v3.84c0,1.48,0.46,1.79,1.46,1.79c0.17,0,0.27,0,0.47-0.02v2.24
				c0,0-0.4,0.09-1.12,0.09c-2.37,0-3.42-1.33-3.42-4.03v-3.91h-1.04v-2.13h1.06V158.41z"/>
			<path class="st8" d="M623.65,164.7v5.74h-2.6v-6.04c0-1.1-0.76-1.79-1.65-1.79c-1.1,0-1.8,0.8-1.8,1.86v5.97h-2.62V156.7h2.62
				v4.96c0.42-0.68,1.33-1.41,2.62-1.41C623.06,160.25,623.65,162.59,623.65,164.7z"/>
			<path class="st8" d="M630.6,157.13h3.53c4.35,0,7.05,2.49,7.05,6.65c0,4.26-2.72,6.65-7.05,6.65h-3.53V157.13z M634.23,168.11
				c2.53,0,4.16-1.46,4.16-4.33c0-2.79-1.63-4.31-4.16-4.31h-0.95v8.64H634.23z"/>
			<path class="st8" d="M647.13,160.25c3.08,0,4.83,2.05,4.83,5.3c0,0.19,0,0.38-0.02,0.57h-6.99c0.06,1.33,1.12,2.28,2.58,2.28
				c1.35,0,2.13-0.8,2.41-1.22l1.73,1.31c-0.38,0.7-1.71,2.18-4.18,2.18c-3.19,0-5.22-2.2-5.22-5.19
				C642.27,162.49,644.3,160.25,647.13,160.25z M649.3,164.41c-0.06-1.22-0.93-2.01-2.13-2.01c-1.24,0-2.03,0.87-2.15,2.01H649.3z"
				/>
			<path class="st8" d="M653.42,156.7h2.62v4.84c0.25-0.34,1.23-1.29,2.94-1.29c2.85,0,4.71,2.15,4.71,5.22
				c0,3.06-2.01,5.21-4.86,5.21c-1.69,0-2.68-0.95-2.95-1.27v1.03h-2.47V156.7z M658.51,168.36c1.48,0,2.55-1.1,2.55-2.87
				c0-1.73-1.03-2.93-2.55-2.93c-1.44,0-2.55,1.06-2.55,2.93C655.97,167.07,656.92,168.36,658.51,168.36z"/>
			<path class="st8" d="M665.45,158.41h2.58v2.09h1.86v2.13h-1.86v3.84c0,1.48,0.46,1.79,1.46,1.79c0.17,0,0.27,0,0.47-0.02v2.24
				c0,0-0.4,0.09-1.12,0.09c-2.37,0-3.42-1.33-3.42-4.03v-3.91h-1.04v-2.13h1.06V158.41z"/>
		</g>
		<g>
			<path class="st6" d="M546.05,303.91c0-3.88,2.83-6.9,6.92-6.9c4.08,0,6.91,3.02,6.91,6.9c0,3.91-2.83,6.9-6.91,6.9
				C548.88,310.8,546.05,307.82,546.05,303.91z M548.84,303.91c0,2.55,1.73,4.39,4.12,4.39c2.39,0,4.12-1.84,4.12-4.39
				c0-2.51-1.73-4.39-4.12-4.39C550.57,299.52,548.84,301.4,548.84,303.91z"/>
			<path class="st6" d="M561.48,300.62h2.47v1.04c0.27-0.34,1.25-1.29,2.95-1.29c2.85,0,4.86,2.17,4.86,5.21
				c0,3.08-1.86,5.22-4.71,5.22c-1.71,0-2.7-0.95-2.94-1.27v4.58h-2.62V300.62z M566.57,308.49c1.52,0,2.55-1.2,2.55-2.93
				c0-1.77-1.06-2.87-2.55-2.87c-1.6,0-2.55,1.29-2.55,2.87C564.03,307.42,565.13,308.49,566.57,308.49z"/>
			<path class="st6" d="M573.53,298.53h2.58v2.09h1.86v2.13h-1.86v3.84c0,1.48,0.46,1.79,1.46,1.79c0.17,0,0.27,0,0.47-0.02v2.24
				c0,0-0.4,0.09-1.12,0.09c-2.37,0-3.42-1.33-3.42-4.03v-3.91h-1.04v-2.13h1.06V298.53z"/>
			<path class="st6" d="M580.9,296.73c0.87,0,1.54,0.65,1.54,1.5s-0.67,1.5-1.54,1.5c-0.85,0-1.52-0.65-1.52-1.5
				S580.04,296.73,580.9,296.73z M579.61,300.62h2.62v9.94h-2.62V300.62z"/>
			<path class="st6" d="M598.49,310.56h-2.62v-5.95c0-1.18-0.59-1.88-1.56-1.88c-0.95,0-1.61,0.7-1.61,1.9v5.93h-2.62v-6.04
				c0-1.12-0.57-1.79-1.54-1.79c-0.93,0-1.62,0.7-1.62,1.88v5.95h-2.62v-9.94h2.57v1.16c0.36-0.68,1.23-1.41,2.58-1.41
				c1.27,0,2.2,0.57,2.72,1.48c0.59-0.91,1.62-1.48,2.94-1.48c2.26,0,3.38,1.5,3.38,3.63V310.56z"/>
			<path class="st6" d="M603.75,304.19c1.01,0,1.79,0.3,2.15,0.55v-0.65c0-0.87-0.65-1.46-1.8-1.46c-0.99,0-1.9,0.32-2.64,0.7
				l-0.99-1.79c0.89-0.61,2.39-1.18,3.91-1.18c3.19,0,4.14,1.67,4.14,3.89v6.29h-2.32l-0.17-0.65c-0.51,0.55-1.27,0.89-2.41,0.89
				c-2.01,0-3.72-1.24-3.72-3.32C599.9,305.52,601.44,304.19,603.75,304.19z M604.25,308.77c0.99,0,1.71-0.53,1.71-1.37
				c0-0.87-0.72-1.39-1.73-1.39s-1.71,0.57-1.71,1.39C602.52,308.22,603.26,308.77,604.25,308.77z"/>
			<path class="st6" d="M610.46,296.82h2.62v13.74h-2.62V296.82z"/>
			<path class="st6" d="M619.41,303.91c0-3.91,2.92-6.9,6.93-6.9c1.77,0,3.1,0.59,3.95,1.22l-0.76,2.36
				c-0.65-0.46-1.84-1.06-3.19-1.06c-2.41,0-4.14,1.88-4.14,4.39c0,2.55,1.73,4.39,4.14,4.39c1.44,0,2.68-0.65,3.31-1.08l0.76,2.34
				c-0.8,0.59-2.13,1.25-4.07,1.25C622.18,310.8,619.41,307.82,619.41,303.91z"/>
			<path class="st6" d="M636.78,300.37c3.04,0,5.36,2.24,5.36,5.24c0,3-2.24,5.19-5.36,5.19c-3.1,0-5.34-2.18-5.34-5.19
				C631.44,302.6,633.75,300.37,636.78,300.37z M636.78,308.49c1.58,0,2.74-1.18,2.74-2.87c0-1.69-1.16-2.93-2.74-2.93
				c-1.58,0-2.72,1.22-2.72,2.93C634.06,307.31,635.22,308.49,636.78,308.49z"/>
			<path class="st6" d="M643.18,303.91c0-3.91,2.92-6.9,6.93-6.9c1.77,0,3.1,0.59,3.95,1.22l-0.76,2.36
				c-0.65-0.46-1.84-1.06-3.19-1.06c-2.41,0-4.14,1.88-4.14,4.39c0,2.55,1.73,4.39,4.14,4.39c1.44,0,2.68-0.65,3.31-1.08l0.76,2.34
				c-0.8,0.59-2.13,1.25-4.07,1.25C645.95,310.8,643.18,307.82,643.18,303.91z"/>
		</g>
		<g>
			<path class="st8" d="M239.76,347.44h3.92c2.41,0,4.05,1.51,4.05,3.83c0,2.29-1.71,3.89-4.03,3.89h-1.46v4.59h-2.48V347.44z
				 M243.35,353.01c1.09,0,1.83-0.7,1.83-1.74c0-1.02-0.76-1.69-1.79-1.69h-1.14v3.43H243.35z"/>
			<path class="st8" d="M253.98,352.79c-1.81,0-2.48,1.13-2.48,2.96v4.01h-2.43v-9.2h2.38v1.34c0.4-0.92,1.32-1.57,2.53-1.57V352.79
				z"/>
			<path class="st8" d="M259.67,350.32c2.81,0,4.96,2.08,4.96,4.86c0,2.78-2.08,4.8-4.96,4.8c-2.87,0-4.94-2.02-4.94-4.8
				C254.72,352.38,256.87,350.32,259.67,350.32z M259.67,357.83c1.46,0,2.53-1.09,2.53-2.66s-1.07-2.71-2.53-2.71
				c-1.46,0-2.52,1.13-2.52,2.71C257.15,356.74,258.22,357.83,259.67,357.83z"/>
			<path class="st8" d="M275.03,359.75h-2.29v-0.95c-0.25,0.3-1.16,1.18-2.73,1.18c-2.64,0-4.5-1.99-4.5-4.82
				c0-2.85,1.72-4.84,4.36-4.84c1.58,0,2.5,0.88,2.73,1.2v-4.49h2.43V359.75z M270.31,352.47c-1.41,0-2.36,1.11-2.36,2.71
				c0,1.64,0.98,2.66,2.36,2.66c1.48,0,2.36-1.2,2.36-2.66C272.67,353.45,271.65,352.47,270.31,352.47z"/>
			<path class="st8" d="M276.86,355.86v-5.31h2.43v5.59c0,1.02,0.7,1.65,1.53,1.65c1,0,1.64-0.74,1.64-1.72v-5.52h2.43v9.2h-2.38
				v-1.07c-0.39,0.63-1.27,1.3-2.46,1.3C277.42,359.98,276.86,357.82,276.86,355.86z"/>
			<path class="st8" d="M293.33,357.01l0.65,1.99c-0.53,0.42-1.53,0.99-2.87,0.99c-2.87,0-4.91-2.01-4.91-4.8
				c0-2.8,2.09-4.86,4.89-4.86c1.35,0,2.3,0.53,2.9,0.99l-0.69,2.04c-0.41-0.37-1.11-0.88-2.15-0.88c-1.57,0-2.53,1.21-2.53,2.69
				c0,1.57,1.09,2.67,2.62,2.67C292.19,357.83,292.93,357.34,293.33,357.01z"/>
			<path class="st8" d="M295.57,348.62h2.39v1.94h1.72v1.97h-1.72v3.55c0,1.37,0.42,1.65,1.35,1.65c0.16,0,0.25,0,0.44-0.02v2.08
				c0,0-0.37,0.09-1.04,0.09c-2.2,0-3.17-1.23-3.17-3.73v-3.62h-0.97v-1.97h0.99V348.62z"/>
			<path class="st8" d="M305.79,347.44h3.71c2.69,0,4.17,1.64,4.17,3.66c0,1.5-0.74,2.64-1.87,3.25l2.92,5.4h-2.74l-2.39-4.82h-1.32
				v4.82h-2.48V347.44z M309.44,352.84c0.9,0,1.69-0.56,1.69-1.65c0-0.98-0.69-1.6-1.81-1.6h-1.04v3.25H309.44z"/>
			<path class="st8" d="M319.87,350.32c2.85,0,4.47,1.9,4.47,4.91c0,0.18,0,0.35-0.02,0.53h-6.47c0.05,1.23,1.04,2.11,2.39,2.11
				c1.25,0,1.97-0.74,2.23-1.13l1.6,1.21c-0.35,0.65-1.58,2.02-3.87,2.02c-2.96,0-4.84-2.04-4.84-4.8
				C315.37,352.4,317.25,350.32,319.87,350.32z M321.88,354.17c-0.05-1.13-0.86-1.87-1.97-1.87c-1.14,0-1.88,0.81-1.99,1.87H321.88z
				"/>
			<path class="st8" d="M325.7,347.03h2.43v12.72h-2.43V347.03z"/>
			<path class="st8" d="M334.06,350.32c2.85,0,4.47,1.9,4.47,4.91c0,0.18,0,0.35-0.02,0.53h-6.47c0.05,1.23,1.04,2.11,2.39,2.11
				c1.25,0,1.97-0.74,2.23-1.13l1.6,1.21c-0.35,0.65-1.58,2.02-3.87,2.02c-2.96,0-4.84-2.04-4.84-4.8
				C329.55,352.4,331.44,350.32,334.06,350.32z M336.06,354.17c-0.05-1.13-0.86-1.87-1.97-1.87c-1.14,0-1.88,0.81-1.99,1.87H336.06z
				"/>
			<path class="st8" d="M342.93,353.86c0.93,0,1.65,0.28,1.99,0.51v-0.6c0-0.81-0.6-1.36-1.67-1.36c-0.92,0-1.76,0.3-2.45,0.65
				l-0.92-1.65c0.83-0.56,2.22-1.09,3.62-1.09c2.96,0,3.83,1.55,3.83,3.61v5.82h-2.15l-0.16-0.6c-0.47,0.51-1.18,0.83-2.23,0.83
				c-1.86,0-3.45-1.14-3.45-3.08C339.36,355.09,340.78,353.86,342.93,353.86z M343.38,358.1c0.92,0,1.58-0.49,1.58-1.27
				c0-0.81-0.67-1.28-1.6-1.28s-1.58,0.53-1.58,1.28C341.78,357.59,342.47,358.1,343.38,358.1z"/>
			<path class="st8" d="M348.52,358.27l1.43-1.27c0.46,0.53,1.07,1,2.11,1c0.69,0,1.13-0.3,1.13-0.83c0-1.41-4.34-0.86-4.34-4.13
				c0-1.71,1.46-2.73,3.34-2.73c1.74,0,2.71,0.91,3.15,1.64l-1.6,1.2c-0.28-0.35-0.79-0.88-1.65-0.88c-0.56,0-0.95,0.28-0.95,0.74
				c0,1.46,4.36,0.76,4.36,4.05c0,1.79-1.55,2.92-3.54,2.92C350.14,359.98,349.02,359.07,348.52,358.27z"/>
			<path class="st8" d="M360.81,350.32c2.85,0,4.47,1.9,4.47,4.91c0,0.18,0,0.35-0.02,0.53h-6.47c0.05,1.23,1.04,2.11,2.39,2.11
				c1.25,0,1.97-0.74,2.23-1.13l1.6,1.21c-0.35,0.65-1.58,2.02-3.87,2.02c-2.96,0-4.84-2.04-4.84-4.8
				C356.3,352.4,358.19,350.32,360.81,350.32z M362.81,354.17c-0.05-1.13-0.86-1.87-1.97-1.87c-1.14,0-1.88,0.81-1.99,1.87H362.81z"
				/>
			<path class="st8" d="M366.02,358.27l1.43-1.27c0.46,0.53,1.07,1,2.11,1c0.69,0,1.13-0.3,1.13-0.83c0-1.41-4.34-0.86-4.34-4.13
				c0-1.71,1.46-2.73,3.34-2.73c1.74,0,2.71,0.91,3.15,1.64l-1.6,1.2c-0.28-0.35-0.79-0.88-1.65-0.88c-0.56,0-0.95,0.28-0.95,0.74
				c0,1.46,4.36,0.76,4.36,4.05c0,1.79-1.55,2.92-3.54,2.92C367.64,359.98,366.51,359.07,366.02,358.27z"/>
		</g>
		<g>
			<g>
				<rect x="392.69" y="353.86" class="st8" width="88.37" height="1"/>
			</g>
			<g>
				<polygon class="st8" points="489.33,354.36 478.47,348.09 478.47,360.63 				"/>
			</g>
		</g>
	</g>
</g>
</svg>
