<?xml version="1.0" encoding="utf-8"?>
<!-- Generator: Adobe Illustrator 24.0.3, SVG Export Plug-In . SVG Version: 6.00 Build 0)  -->
<svg version="1.1" xmlns="http://www.w3.org/2000/svg" xmlns:xlink="http://www.w3.org/1999/xlink" x="0px" y="0px"
	 viewBox="0 0 841.89 467.72" style="enable-background:new 0 0 841.89 467.72;" xml:space="preserve">
<style type="text/css">
	.st0{fill:#61A575;}
	.st1{fill:#E0635D;}
	.st2{fill:#F58D5D;}
	.st3{fill:#F5C65D;}
	.st4{fill:#DCEFFA;}
	.st5{fill:#FFFFFF;}
	.st6{fill:#4890BA;}
	.st7{fill:#F4F4F5;}
	.st8{fill:#54575C;}
	.st9{fill:#54565A;}
	.st10{fill:#E88A85;}
</style>
<g id="Layer_1">
</g>
<g id="Layer_2">
</g>
<g id="Layer_3">
	<g>
		<rect x="0" class="st7" width="841.89" height="467.72"/>
	</g>
	<g>
		<g>
			<rect x="232.88" y="100.89" class="st6" width="270.8" height="149.11"/>
		</g>
		<g>
			<rect x="526.85" y="100.89" class="st6" width="270.8" height="149.11"/>
		</g>
		<g>
			<rect x="232.88" y="268.09" class="st6" width="270.8" height="149.11"/>
		</g>
		<g>
			<rect x="526.85" y="268.09" class="st6" width="270.8" height="149.11"/>
		</g>
		<g>
			<path class="st8" d="M322.99,66.19c0,0-0.02-0.05,3.74,6.98h-4.4l-2.91-6.02h-1.21v6.02h-3.98V56.89h5.3c3.84,0,5.7,1.77,5.7,5
				C325.24,63.68,324.47,65.37,322.99,66.19z M318.22,60.3v3.51h1.19c1.09,0,1.77-0.67,1.77-1.79c0-1.07-0.51-1.72-1.95-1.72H318.22
				z"/>
			<path class="st8" d="M328.31,73.16V56.89h8.67v3.56h-4.7v2.72h4v3.53h-4v2.91h4.88v3.56H328.31z"/>
			<path class="st8" d="M338.78,65c0-4.77,3.54-8.42,8.6-8.42c2.02,0,3.58,0.58,4.74,1.37l-1.12,3.49
				c-0.86-0.58-2.09-1.14-3.49-1.14c-2.98,0-4.6,2.16-4.6,4.7s1.63,4.74,4.6,4.74c1.39,0,2.7-0.56,3.56-1.14l1.12,3.49
				c-1.16,0.79-2.79,1.37-4.81,1.37C342.12,73.47,338.78,69.79,338.78,65z"/>
			<path class="st8" d="M358.22,63.16l4.74-6.28h4.44l-6.09,7.79l6.21,8.49h-4.56l-4.74-6.56v6.56h-3.98V56.89h3.98V63.16z"/>
			<path class="st8" d="M369.12,73.16V56.89h3.98v12.72h4.88v3.56H369.12z"/>
			<path class="st8" d="M379.77,73.16V56.89h8.67v3.56h-4.7v2.72h4v3.53h-4v2.91h4.88v3.56H379.77z"/>
			<path class="st8" d="M401.07,60.35l-3.3,1.51c-0.33-0.72-0.81-1.6-2.05-1.6c-0.77,0-1.28,0.47-1.28,1.09
				c0,2.21,6.79,1.98,6.79,6.95c0,3-2.14,5.16-5.7,5.16c-3.65,0-5.12-2.65-5.53-3.88l3.33-1.65c0.44,0.95,1.33,1.81,2.44,1.81
				c0.95,0,1.44-0.42,1.44-1.14c0-2.16-6.74-1.98-6.74-7.19c0-2.93,2.12-4.84,5.35-4.84C399.31,56.58,400.66,59.12,401.07,60.35z"/>
			<path class="st8" d="M413.38,60.35l-3.3,1.51c-0.33-0.72-0.81-1.6-2.05-1.6c-0.77,0-1.28,0.47-1.28,1.09
				c0,2.21,6.79,1.98,6.79,6.95c0,3-2.14,5.16-5.7,5.16c-3.65,0-5.12-2.65-5.53-3.88l3.33-1.65c0.44,0.95,1.33,1.81,2.44,1.81
				c0.95,0,1.44-0.42,1.44-1.14c0-2.16-6.74-1.98-6.74-7.19c0-2.93,2.12-4.84,5.35-4.84C411.61,56.58,412.96,59.12,413.38,60.35z"/>
		</g>
		<g>
			<path class="st8" d="M617.71,67.47h-1.91v5.7h-3.98V56.89h5.86c3.3,0,5.25,2.05,5.25,5.26C622.94,65.3,620.87,67.47,617.71,67.47
				z M615.81,60.3v3.74h1.3c1.16,0,1.77-0.79,1.77-1.91c0-1.09-0.63-1.84-1.72-1.84H615.81z"/>
			<path class="st8" d="M633.57,66.19c0,0-0.02-0.05,3.74,6.98h-4.4l-2.91-6.02h-1.21v6.02h-3.98V56.89h5.3c3.84,0,5.7,1.77,5.7,5
				C635.83,63.68,635.06,65.37,633.57,66.19z M628.81,60.3v3.51h1.19c1.09,0,1.77-0.67,1.77-1.79c0-1.07-0.51-1.72-1.95-1.72H628.81
				z"/>
			<path class="st8" d="M638.85,66.91V56.89h3.98v10.02c0,1.77,1.07,2.86,2.84,2.86c1.79,0,2.79-1.09,2.79-2.88v-10h3.98v10
				c0,3.81-2.49,6.56-6.79,6.56C641.27,73.44,638.85,70.79,638.85,66.91z"/>
			<path class="st8" d="M660.06,56.89c5.23,0,8.58,3.05,8.58,8.14s-3.35,8.14-8.58,8.14h-4.79V56.89H660.06z M659.25,60.33v9.39
				h0.81c2.67,0,4.44-1.58,4.44-4.7s-1.77-4.7-4.44-4.7H659.25z"/>
			<path class="st8" d="M670.71,73.16V56.89h8.67v3.56h-4.7v2.72h4v3.53h-4v2.91h4.88v3.56H670.71z"/>
			<path class="st8" d="M685.85,63.19v9.98h-3.91V56.89h4.05l5.95,10.09V56.89h3.91v16.28h-3.95L685.85,63.19z"/>
			<path class="st8" d="M705.17,60.44v12.72h-3.98V60.44h-3.51v-3.56h11v3.56H705.17z"/>
		</g>
		<g>
			<path class="st9" d="M52.97,162.48c5.23,0,8.58,3.05,8.58,8.14s-3.35,8.14-8.58,8.14h-4.79v-16.28H52.97z M52.15,165.92v9.39
				h0.81c2.67,0,4.44-1.58,4.44-4.7s-1.77-4.7-4.44-4.7H52.15z"/>
			<path class="st9" d="M63.62,178.75v-16.28h8.67v3.56h-4.7v2.72h4v3.53h-4v2.91h4.88v3.56H63.62z"/>
			<path class="st9" d="M74.89,178.75v-16.28h3.98v12.72h4.88v3.56H74.89z"/>
			<path class="st9" d="M89.52,178.75h-3.98v-16.28h3.98V178.75z"/>
			<path class="st9" d="M98.41,178.75h-6v-16.28h5.81c3.3,0,5.28,1.58,5.28,4.37c0,1.4-0.65,2.74-1.77,3.37
				c1.6,0.67,2.28,2,2.28,3.67C104.01,177.19,101.52,178.75,98.41,178.75z M96.36,165.87v2.95h1.7c0.91,0,1.39-0.63,1.39-1.51
				c0-0.86-0.46-1.44-1.44-1.44H96.36z M96.36,172.01v3.33h1.93c1.05,0,1.63-0.74,1.63-1.67c0-0.98-0.56-1.65-1.6-1.65H96.36z"/>
			<path class="st9" d="M106.06,178.75v-16.28h8.67v3.56h-4.7v2.72h4v3.53h-4v2.91h4.88v3.56H106.06z"/>
			<path class="st9" d="M126.08,171.78c0,0-0.02-0.05,3.74,6.98h-4.4l-2.91-6.02h-1.21v6.02h-3.98v-16.28h5.3c3.84,0,5.7,1.77,5.7,5
				C128.33,169.27,127.57,170.96,126.08,171.78z M121.31,165.89v3.51h1.19c1.09,0,1.77-0.67,1.77-1.79c0-1.07-0.51-1.72-1.95-1.72
				H121.31z"/>
			<path class="st9" d="M135.26,175.1l-1.16,3.65h-4l5.63-16.28h4.19l5.63,16.28h-4l-1.16-3.65H135.26z M137.82,166.68l-1.53,5.16
				h3.07L137.82,166.68z"/>
			<path class="st9" d="M152.22,166.03v12.72h-3.98v-12.72h-3.51v-3.56h11v3.56H152.22z"/>
			<path class="st9" d="M157.61,178.75v-16.28h8.67v3.56h-4.7v2.72h4v3.53h-4v2.91h4.88v3.56H157.61z"/>
		</g>
		<g>
			<path class="st5" d="M282.3,141.41l-4.69,10.63h-3.5l-1.56-15.4h3.39l0.73,11.53l4.99-11.53h2.86l1.12,11.53l4.62-11.53h3.37
				l-6.69,15.4h-3.52L282.3,141.41z"/>
			<path class="st5" d="M299.08,140.25c3.06,0,4.73,1.89,4.73,4.91c0,0.81-0.2,1.67-0.26,1.89h-8.1c-0.2,1.54,0.81,2.64,2.51,2.64
				c1.56,0,2.62-0.92,3.04-1.41l1.83,1.52c-0.57,0.81-2.44,2.53-5.3,2.53c-3.26,0-5.15-2.13-5.15-5.04
				C292.37,143.37,295.39,140.25,299.08,140.25z M300.82,145.07c0.18-1.41-0.68-2.33-2.07-2.33c-1.43,0-2.53,1.01-2.88,2.33H300.82z
				"/>
			<path class="st5" d="M321.15,152.04h-2.86l0.2-1.19c-0.37,0.37-1.69,1.47-3.65,1.47c-2.9,0-4.73-2.05-4.73-5.02
				c0-3.98,2.79-7.06,6.58-7.06c1.98,0,2.95,1.1,3.17,1.5l0.92-5.61h3.04L321.15,152.04z M316.77,142.93c-2,0-3.56,1.72-3.56,4
				c0,1.67,0.95,2.71,2.44,2.71c2.11,0,3.59-1.85,3.59-3.98C319.24,143.94,318.24,142.93,316.77,142.93z"/>
			<path class="st5" d="M331.05,140.25c3.15,0,5.28,2.2,5.28,5.19c0,3.89-3.28,6.89-7.31,6.89c-3.19,0-5.28-2.13-5.28-5.1
				C323.74,143.28,327.15,140.25,331.05,140.25z M329.46,149.64c2.07,0,3.78-1.65,3.78-3.87c0-1.65-1.06-2.84-2.66-2.84
				c-2.05,0-3.76,1.69-3.76,3.94C326.82,148.5,327.88,149.64,329.46,149.64z"/>
			<path class="st5" d="M348.16,145.4l-1.12,6.65h-3.04l1.17-7c0.22-1.28-0.53-2.07-1.56-2.07c-1.25,0-2.2,0.92-2.4,2.16l-1.17,6.91
				h-3.04l1.94-11.51h2.97l-0.24,1.34c0.62-0.79,1.87-1.63,3.37-1.63C348.32,140.25,348.58,142.95,348.16,145.4z"/>
			<path class="st5" d="M351.66,139.65c-0.84-0.2-1.25-0.88-1.25-1.58c0-1.12,1.06-2.13,2.2-2.13c0.92,0,1.63,0.62,1.63,1.67
				c0,1.94-1.54,4-3.28,5.15l-1.03-1.32C350.43,141.13,351.35,140.36,351.66,139.65z"/>
			<path class="st5" d="M356.24,138.11h2.99l-0.4,2.42h2.16l-0.42,2.46h-2.16l-0.75,4.44c-0.29,1.72,0.2,2.07,1.36,2.07
				c0.2,0,0.31,0,0.55-0.02l-0.44,2.6c0,0-0.48,0.11-1.32,0.11c-2.75,0-3.7-1.54-3.17-4.66l0.75-4.53h-1.21l0.42-2.46h1.23
				L356.24,138.11z"/>
			<path class="st5" d="M377.58,145.4l-1.12,6.65h-3.01l1.17-7c0.22-1.28-0.53-2.07-1.56-2.07c-1.28,0-2.24,0.92-2.44,2.16
				l-1.17,6.91h-3.04l2.66-15.91h3.04l-0.97,5.74c0.62-0.79,1.83-1.63,3.32-1.63C377.75,140.25,378,142.95,377.58,145.4z"/>
			<path class="st5" d="M383.8,144.67c1.17,0,2,0.35,2.38,0.64l0.13-0.75c0.18-1.01-0.46-1.69-1.8-1.69c-1.14,0-2.27,0.37-3.19,0.81
				l-0.81-2.07c1.17-0.7,3.01-1.36,4.78-1.36c3.7,0,4.47,1.94,4.03,4.51l-1.21,7.28h-2.68l-0.07-0.75c-0.7,0.64-1.65,1.03-2.97,1.03
				c-2.11,0-3.74-1.23-3.74-3.3C378.63,146.47,380.83,144.67,383.8,144.67z M383.5,149.97c1.25,0,2.27-0.7,2.27-1.8
				c0-0.88-0.7-1.39-1.76-1.39c-1.28,0-2.27,0.77-2.27,1.8C381.74,149.42,382.44,149.97,383.5,149.97z"/>
			<path class="st5" d="M393.35,152.04l-2.18-11.51h3.23l1.25,8.27l4.03-8.27h3.23l-6.05,11.51H393.35z"/>
			<path class="st5" d="M409.21,140.25c3.06,0,4.73,1.89,4.73,4.91c0,0.81-0.2,1.67-0.26,1.89h-8.1c-0.2,1.54,0.81,2.64,2.51,2.64
				c1.56,0,2.62-0.92,3.04-1.41l1.83,1.52c-0.57,0.81-2.44,2.53-5.3,2.53c-3.26,0-5.15-2.13-5.15-5.04
				C402.5,143.37,405.52,140.25,409.21,140.25z M410.95,145.07c0.18-1.41-0.68-2.33-2.07-2.33c-1.43,0-2.53,1.01-2.88,2.33H410.95z"
				/>
			<path class="st5" d="M273.58,164.51h2.99l-0.4,2.42h2.16l-0.42,2.46h-2.16l-0.75,4.44c-0.29,1.72,0.2,2.07,1.36,2.07
				c0.2,0,0.31,0,0.55-0.02l-0.44,2.6c0,0-0.48,0.11-1.32,0.11c-2.75,0-3.7-1.54-3.17-4.66l0.75-4.53h-1.21l0.42-2.46h1.23
				L273.58,164.51z"/>
			<path class="st5" d="M280.23,166.93h3.04l-1.94,11.51h-3.04L280.23,166.93z M282.47,162.42c0.9,0,1.52,0.64,1.52,1.5
				c0,1.1-0.99,1.98-2.11,1.98c-0.88,0-1.5-0.64-1.5-1.5C280.38,163.3,281.37,162.42,282.47,162.42z"/>
			<path class="st5" d="M300.16,178.44h-3.04l1.14-6.89c0.22-1.36-0.31-2.18-1.43-2.18c-1.1,0-2,0.81-2.25,2.2l-1.14,6.87h-3.04
				l1.17-7c0.22-1.3-0.31-2.07-1.43-2.07c-1.08,0-2.02,0.81-2.24,2.18l-1.14,6.89h-3.04l1.94-11.51h2.97l-0.24,1.34
				c0.55-0.79,1.72-1.63,3.28-1.63c1.47,0,2.44,0.66,2.86,1.72c0.86-1.06,2.16-1.72,3.7-1.72c2.62,0,3.61,1.74,3.21,4.2
				L300.16,178.44z"/>
			<path class="st5" d="M309.4,166.65c3.06,0,4.73,1.89,4.73,4.91c0,0.81-0.2,1.67-0.26,1.89h-8.1c-0.2,1.54,0.81,2.64,2.51,2.64
				c1.56,0,2.62-0.92,3.04-1.41l1.83,1.52c-0.57,0.81-2.44,2.53-5.3,2.53c-3.26,0-5.15-2.13-5.15-5.04
				C302.69,169.77,305.7,166.65,309.4,166.65z M311.14,171.47c0.18-1.41-0.68-2.33-2.07-2.33c-1.43,0-2.53,1.01-2.88,2.33H311.14z"
				/>
			<path class="st5" d="M322.25,169.4h-1.23l0.42-2.46h1.23l0.07-0.42c0.48-2.99,2.66-3.98,4.91-3.98c0.44,0,0.77,0.02,0.99,0.04
				l-0.44,2.55c-0.07,0-0.31-0.04-0.57-0.04c-1.06,0-1.69,0.48-1.87,1.5l-0.07,0.35h2.02l-0.42,2.46h-2l-1.52,9.04h-3.04
				L322.25,169.4z"/>
			<path class="st5" d="M334.68,166.65c3.15,0,5.28,2.2,5.28,5.19c0,3.89-3.28,6.89-7.31,6.89c-3.19,0-5.28-2.13-5.28-5.1
				C327.37,169.68,330.78,166.65,334.68,166.65z M333.09,176.04c2.07,0,3.78-1.65,3.78-3.87c0-1.65-1.06-2.84-2.66-2.84
				c-2.05,0-3.76,1.69-3.76,3.94C330.45,174.9,331.51,176.04,333.09,176.04z"/>
			<path class="st5" d="M348.23,169.73c-2.27,0-3.34,1.41-3.72,3.7l-0.84,5.02h-3.04l1.94-11.51h2.97l-0.29,1.67
				c0.7-1.14,1.98-1.96,3.5-1.96L348.23,169.73z"/>
			<path class="st5" d="M365.28,178.44h-2.86l0.2-1.19c-0.37,0.37-1.69,1.47-3.65,1.47c-2.9,0-4.73-2.05-4.73-5.02
				c0-3.98,2.79-7.06,6.58-7.06c1.98,0,2.95,1.1,3.17,1.5l0.92-5.61h3.04L365.28,178.44z M360.9,169.33c-2,0-3.56,1.72-3.56,4
				c0,1.67,0.95,2.71,2.44,2.71c2.11,0,3.59-1.85,3.59-3.98C363.37,170.34,362.38,169.33,360.9,169.33z"/>
			<path class="st5" d="M374.61,166.65c3.06,0,4.73,1.89,4.73,4.91c0,0.81-0.2,1.67-0.26,1.89h-8.1c-0.2,1.54,0.81,2.64,2.51,2.64
				c1.56,0,2.62-0.92,3.04-1.41l1.83,1.52c-0.57,0.81-2.44,2.53-5.3,2.53c-3.26,0-5.15-2.13-5.15-5.04
				C367.9,169.77,370.91,166.65,374.61,166.65z M376.35,171.47c0.18-1.41-0.68-2.33-2.07-2.33c-1.43,0-2.53,1.01-2.88,2.33H376.35z"
				/>
			<path class="st5" d="M379.49,176.59l2.05-1.58c0.46,0.66,1.14,1.25,2.44,1.25c0.95,0,1.58-0.44,1.58-1.14
				c0-1.52-4.64-1.12-4.64-4.51c0-2.49,2.22-3.96,4.82-3.96c2.18,0,3.19,1.14,3.59,2.05l-2.24,1.5c-0.29-0.44-0.81-1.1-1.89-1.1
				c-0.77,0-1.36,0.42-1.36,1.03c0,1.58,4.69,1.01,4.69,4.4c0,2.57-2.35,4.2-5.08,4.2C381.16,178.73,379.93,177.58,379.49,176.59z"
				/>
			<path class="st5" d="M391.46,166.93h3.04l-1.94,11.51h-3.04L391.46,166.93z M393.7,162.42c0.9,0,1.52,0.64,1.52,1.5
				c0,1.1-0.99,1.98-2.11,1.98c-0.88,0-1.5-0.64-1.5-1.5C391.61,163.3,392.6,162.42,393.7,162.42z"/>
			<path class="st5" d="M396.58,179.28c0.35,0.2,1.56,0.79,3.15,0.79c1.65,0,3.26-0.51,3.56-2.29l0.09-0.53
				c-0.31,0.33-1.63,1.47-3.63,1.47c-2.9,0-4.6-2.02-4.6-4.95c0-4.09,3.04-7.13,6.73-7.13c1.94,0,2.93,1.06,3.19,1.5l0.2-1.21h2.86
				l-1.67,10.06c-0.73,4.29-3.76,5.68-7.15,5.68c-1.58,0-3.1-0.48-4.05-1.06L396.58,179.28z M401.82,169.33
				c-1.96,0-3.56,1.63-3.56,3.96c0,1.65,0.97,2.75,2.46,2.75c2.02,0,3.56-1.65,3.56-3.96C404.29,170.45,403.36,169.33,401.82,169.33
				z"/>
			<path class="st5" d="M419.64,171.8l-1.12,6.65h-3.04l1.17-7c0.22-1.28-0.53-2.07-1.56-2.07c-1.25,0-2.2,0.92-2.4,2.16l-1.17,6.91
				h-3.04l1.94-11.51h2.97l-0.24,1.34c0.62-0.79,1.87-1.63,3.37-1.63C419.8,166.65,420.06,169.35,419.64,171.8z"/>
			<path class="st5" d="M420.67,177.12c0-1.12,1.06-2.13,2.22-2.13c0.95,0,1.56,0.73,1.56,1.63c0,1.14-1.03,2.11-2.2,2.11
				C421.31,178.73,420.67,178.02,420.67,177.12z"/>
		</g>
		<g>
			<path class="st5" d="M282.3,321.81l-4.69,10.63h-3.5l-1.56-15.4h3.39l0.73,11.53l5-11.53h2.86l1.12,11.53l4.62-11.53h3.37
				l-6.69,15.4h-3.52L282.3,321.81z"/>
			<path class="st5" d="M303.64,325.79l-1.12,6.64h-3.01l1.17-7c0.22-1.28-0.53-2.07-1.56-2.07c-1.28,0-2.24,0.92-2.44,2.16
				l-1.17,6.91h-3.04l2.66-15.91h3.04l-0.97,5.74c0.62-0.79,1.83-1.63,3.32-1.63C303.81,320.64,304.06,323.35,303.64,325.79z"/>
			<path class="st5" d="M309.86,325.07c1.17,0,2,0.35,2.38,0.64l0.13-0.75c0.18-1.01-0.46-1.69-1.8-1.69
				c-1.14,0-2.27,0.37-3.19,0.81l-0.81-2.07c1.17-0.7,3.01-1.36,4.77-1.36c3.7,0,4.47,1.94,4.03,4.51l-1.21,7.28h-2.68l-0.07-0.75
				c-0.7,0.64-1.65,1.04-2.97,1.04c-2.11,0-3.74-1.23-3.74-3.3C304.69,326.87,306.89,325.07,309.86,325.07z M309.56,330.37
				c1.25,0,2.27-0.7,2.27-1.8c0-0.88-0.7-1.39-1.76-1.39c-1.28,0-2.27,0.77-2.27,1.8C307.8,329.82,308.5,330.37,309.56,330.37z"/>
			<path class="st5" d="M319.01,318.51h2.99l-0.4,2.42h2.16l-0.42,2.46h-2.16l-0.75,4.45c-0.29,1.72,0.2,2.07,1.36,2.07
				c0.2,0,0.31,0,0.55-0.02l-0.44,2.6c0,0-0.48,0.11-1.32,0.11c-2.75,0-3.7-1.54-3.17-4.66l0.75-4.53h-1.21l0.42-2.46h1.23
				L319.01,318.51z"/>
			<path class="st5" d="M326.71,320.05c-0.84-0.2-1.25-0.88-1.25-1.58c0-1.12,1.06-2.13,2.2-2.13c0.92,0,1.63,0.62,1.63,1.67
				c0,1.94-1.54,4-3.28,5.15l-1.03-1.32C325.48,321.52,326.41,320.75,326.71,320.05z"/>
			<path class="st5" d="M328.21,330.59l2.05-1.58c0.46,0.66,1.14,1.25,2.44,1.25c0.95,0,1.58-0.44,1.58-1.14
				c0-1.52-4.64-1.12-4.64-4.51c0-2.49,2.22-3.96,4.82-3.96c2.18,0,3.19,1.14,3.59,2.05l-2.24,1.5c-0.29-0.44-0.81-1.1-1.89-1.1
				c-0.77,0-1.36,0.42-1.36,1.04c0,1.58,4.69,1.01,4.69,4.4c0,2.57-2.35,4.2-5.08,4.2C329.88,332.72,328.65,331.58,328.21,330.59z"
				/>
			<path class="st5" d="M346.36,316.53h3.04l-2.66,15.91h-3.04L346.36,316.53z"/>
			<path class="st5" d="M354.17,325.07c1.17,0,2,0.35,2.38,0.64l0.13-0.75c0.18-1.01-0.46-1.69-1.8-1.69
				c-1.14,0-2.27,0.37-3.19,0.81l-0.81-2.07c1.17-0.7,3.01-1.36,4.77-1.36c3.7,0,4.47,1.94,4.03,4.51l-1.21,7.28h-2.68l-0.07-0.75
				c-0.7,0.64-1.65,1.04-2.97,1.04c-2.11,0-3.74-1.23-3.74-3.3C349,326.87,351.2,325.07,354.17,325.07z M353.86,330.37
				c1.25,0,2.27-0.7,2.27-1.8c0-0.88-0.7-1.39-1.76-1.39c-1.28,0-2.27,0.77-2.27,1.8C352.1,329.82,352.81,330.37,353.86,330.37z"/>
			<path class="st5" d="M361.83,336.38l2.31-4.22l-2.55-11.22h3.23l1.32,7.5l3.83-7.5h3.21l-8.45,15.45H361.83z"/>
			<path class="st5" d="M379.54,320.64c3.06,0,4.73,1.89,4.73,4.91c0,0.81-0.2,1.67-0.26,1.89h-8.1c-0.2,1.54,0.81,2.64,2.51,2.64
				c1.56,0,2.62-0.92,3.04-1.41l1.83,1.52c-0.57,0.81-2.44,2.53-5.3,2.53c-3.26,0-5.15-2.13-5.15-5.04
				C372.83,323.77,375.84,320.64,379.54,320.64z M381.27,325.46c0.18-1.41-0.68-2.33-2.07-2.33c-1.43,0-2.53,1.01-2.88,2.33H381.27z
				"/>
			<path class="st5" d="M392.47,323.72c-2.27,0-3.34,1.41-3.72,3.7l-0.84,5.02h-3.04l1.94-11.51h2.97l-0.29,1.67
				c0.7-1.14,1.98-1.96,3.5-1.96L392.47,323.72z"/>
			<path class="st5" d="M394.74,320.93h3.04l-1.94,11.51h-3.04L394.74,320.93z M396.98,316.42c0.9,0,1.52,0.64,1.52,1.5
				c0,1.1-0.99,1.98-2.11,1.98c-0.88,0-1.5-0.64-1.5-1.5C394.89,317.3,395.88,316.42,396.98,316.42z"/>
			<path class="st5" d="M409.39,325.79l-1.12,6.64h-3.04l1.17-7c0.22-1.28-0.53-2.07-1.56-2.07c-1.25,0-2.2,0.92-2.4,2.16
				l-1.17,6.91h-3.04l1.94-11.51h2.97l-0.24,1.34c0.62-0.79,1.87-1.63,3.37-1.63C409.54,320.64,409.81,323.35,409.39,325.79z"/>
			<path class="st5" d="M412.18,333.27c0.35,0.2,1.56,0.79,3.15,0.79c1.65,0,3.26-0.51,3.56-2.29l0.09-0.53
				c-0.31,0.33-1.63,1.47-3.63,1.47c-2.9,0-4.6-2.03-4.6-4.95c0-4.09,3.04-7.13,6.73-7.13c1.94,0,2.93,1.06,3.19,1.5l0.2-1.21h2.86
				l-1.67,10.06c-0.73,4.29-3.76,5.68-7.15,5.68c-1.58,0-3.1-0.48-4.05-1.06L412.18,333.27z M417.42,323.33
				c-1.96,0-3.56,1.63-3.56,3.96c0,1.65,0.97,2.75,2.46,2.75c2.02,0,3.56-1.65,3.56-3.96C419.88,324.45,418.96,323.33,417.42,323.33
				z"/>
			<path class="st5" d="M427.16,326.98c0.51-3.12,4.51-3.7,4.51-6.01c0-0.75-0.55-1.43-1.61-1.43c-1.21,0-1.85,0.79-2.18,1.36
				l-2.38-1.08c0.62-1.21,2.24-3.08,5.06-3.08c2.57,0,4.27,1.52,4.27,3.67c0,3.81-4.38,4.42-4.77,6.73l-0.15,0.9h-2.93
				L427.16,326.98z M426.09,331.12c0-1.12,1.03-2.13,2.2-2.13c0.95,0,1.58,0.73,1.58,1.63c0,1.14-1.03,2.11-2.2,2.11
				C426.72,332.72,426.09,332.02,426.09,331.12z"/>
		</g>
		<g>
			<path class="st5" d="M571.2,309.04l-1.76,10.47h-3.06l2.57-15.4h3.15l4.82,10.56l1.76-10.56h3.06l-2.58,15.4h-3.08L571.2,309.04z
				"/>
			<path class="st5" d="M589.33,307.72c3.15,0,5.28,2.2,5.28,5.19c0,3.89-3.28,6.89-7.3,6.89c-3.19,0-5.28-2.13-5.28-5.1
				C582.02,310.76,585.43,307.72,589.33,307.72z M587.74,317.11c2.07,0,3.79-1.65,3.79-3.87c0-1.65-1.06-2.84-2.66-2.84
				c-2.05,0-3.76,1.69-3.76,3.94C585.1,315.97,586.16,317.11,587.74,317.11z"/>
			<path class="st5" d="M604.46,312.14l-3.39,7.37h-3.39l-1.5-11.51h3.3l0.66,8.16l3.56-8.16h2.86l0.81,8.16l3.41-8.16h3.3
				l-5.39,11.51h-3.39L604.46,312.14z"/>
			<path class="st5" d="M628.13,312.14l-3.39,7.37h-3.39l-1.5-11.51h3.3l0.66,8.16l3.56-8.16h2.86l0.81,8.16l3.41-8.16h3.3
				l-5.39,11.51h-3.39L628.13,312.14z"/>
			<path class="st5" d="M644.13,307.72c3.06,0,4.73,1.89,4.73,4.91c0,0.81-0.2,1.67-0.26,1.89h-8.1c-0.2,1.54,0.81,2.64,2.51,2.64
				c1.56,0,2.62-0.92,3.04-1.41l1.83,1.52c-0.57,0.81-2.44,2.53-5.3,2.53c-3.26,0-5.15-2.13-5.15-5.04
				C637.42,310.84,640.43,307.72,644.13,307.72z M645.87,312.54c0.18-1.41-0.68-2.33-2.07-2.33c-1.43,0-2.53,1.01-2.88,2.33H645.87z
				"/>
			<path class="st5" d="M657.59,303.6h3.04l-1.54,9.24l4.51-4.84h3.41l-4.93,5.28l3.3,6.23h-3.48l-2.95-5.94l-0.99,5.94h-3.04
				L657.59,303.6z"/>
			<path class="st5" d="M677.79,312.87l-1.12,6.64h-3.04l1.17-7c0.22-1.28-0.53-2.07-1.56-2.07c-1.25,0-2.2,0.92-2.4,2.16
				l-1.17,6.91h-3.04l1.94-11.51h2.97l-0.24,1.34c0.62-0.79,1.87-1.63,3.37-1.63C677.94,307.72,678.2,310.43,677.79,312.87z"/>
			<path class="st5" d="M686.48,307.72c3.15,0,5.28,2.2,5.28,5.19c0,3.89-3.28,6.89-7.3,6.89c-3.19,0-5.28-2.13-5.28-5.1
				C679.17,310.76,682.58,307.72,686.48,307.72z M684.89,317.11c2.07,0,3.79-1.65,3.79-3.87c0-1.65-1.06-2.84-2.66-2.84
				c-2.05,0-3.76,1.69-3.76,3.94C682.25,315.97,683.31,317.11,684.89,317.11z"/>
			<path class="st5" d="M701.61,312.14l-3.39,7.37h-3.39l-1.5-11.51h3.3l0.66,8.16l3.56-8.16h2.86l0.81,8.16l3.41-8.16h3.3
				l-5.39,11.51h-3.39L701.61,312.14z"/>
			<path class="st5" d="M577.29,339.27l-1.12,6.65h-3.01l1.17-7c0.22-1.28-0.53-2.07-1.56-2.07c-1.28,0-2.24,0.92-2.44,2.16
				l-1.17,6.91h-3.04l2.66-15.91h3.04l-0.97,5.74c0.62-0.79,1.83-1.63,3.32-1.63C577.47,334.12,577.71,336.83,577.29,339.27z"/>
			<path class="st5" d="M586,334.12c3.15,0,5.28,2.2,5.28,5.19c0,3.89-3.28,6.89-7.3,6.89c-3.19,0-5.28-2.13-5.28-5.11
				C578.7,337.16,582.11,334.12,586,334.12z M584.42,343.51c2.07,0,3.79-1.65,3.79-3.87c0-1.65-1.06-2.84-2.66-2.84
				c-2.05,0-3.76,1.69-3.76,3.94C581.78,342.37,582.84,343.51,584.42,343.51z"/>
			<path class="st5" d="M601.14,338.54l-3.39,7.37h-3.39l-1.5-11.51h3.3l0.66,8.16l3.56-8.16h2.86l0.81,8.16l3.41-8.16h3.3
				l-5.39,11.51H602L601.14,338.54z"/>
			<path class="st5" d="M624.81,338.54l-3.39,7.37h-3.39l-1.5-11.51h3.3l0.66,8.16l3.56-8.16h2.86l0.81,8.16l3.41-8.16h3.3
				l-5.39,11.51h-3.39L624.81,338.54z"/>
			<path class="st5" d="M640.81,334.12c3.06,0,4.73,1.89,4.73,4.91c0,0.81-0.2,1.67-0.26,1.89h-8.1c-0.2,1.54,0.81,2.64,2.51,2.64
				c1.56,0,2.62-0.92,3.04-1.41l1.83,1.52c-0.57,0.81-2.44,2.53-5.3,2.53c-3.26,0-5.15-2.13-5.15-5.04
				C634.09,337.24,637.11,334.12,640.81,334.12z M642.54,338.94c0.18-1.41-0.68-2.33-2.07-2.33c-1.43,0-2.53,1.01-2.88,2.33H642.54z
				"/>
			<path class="st5" d="M651.14,344.06l2.05-1.58c0.46,0.66,1.14,1.25,2.44,1.25c0.95,0,1.58-0.44,1.58-1.14
				c0-1.52-4.64-1.12-4.64-4.51c0-2.49,2.22-3.96,4.82-3.96c2.18,0,3.19,1.14,3.59,2.05l-2.24,1.5c-0.29-0.44-0.81-1.1-1.89-1.1
				c-0.77,0-1.36,0.42-1.36,1.03c0,1.58,4.69,1.01,4.69,4.4c0,2.57-2.35,4.2-5.08,4.2C652.82,346.2,651.58,345.05,651.14,344.06z"/>
			<path class="st5" d="M672.35,339.27l-1.12,6.65h-3.01l1.17-7c0.22-1.28-0.53-2.07-1.56-2.07c-1.28,0-2.24,0.92-2.44,2.16
				l-1.17,6.91h-3.04l2.66-15.91h3.04l-0.97,5.74c0.62-0.79,1.83-1.63,3.32-1.63C672.53,334.12,672.77,336.83,672.35,339.27z"/>
			<path class="st5" d="M681.07,334.12c3.15,0,5.28,2.2,5.28,5.19c0,3.89-3.28,6.89-7.3,6.89c-3.19,0-5.28-2.13-5.28-5.11
				C673.76,337.16,677.17,334.12,681.07,334.12z M679.48,343.51c2.07,0,3.79-1.65,3.79-3.87c0-1.65-1.06-2.84-2.66-2.84
				c-2.05,0-3.76,1.69-3.76,3.94C676.84,342.37,677.9,343.51,679.48,343.51z"/>
			<path class="st5" d="M687.75,341.05l1.12-6.64h3.01l-1.17,7c-0.22,1.28,0.53,2.07,1.56,2.07c1.25,0,2.22-0.92,2.42-2.16
				l1.17-6.91h3.01l-1.91,11.51H694l0.22-1.34c-0.62,0.79-1.87,1.63-3.37,1.63C687.58,346.2,687.33,343.49,687.75,341.05z"/>
			<path class="st5" d="M701.92,330h3.04l-2.66,15.91h-3.04L701.92,330z"/>
			<path class="st5" d="M715.96,345.91h-2.86l0.2-1.19c-0.37,0.37-1.69,1.47-3.65,1.47c-2.9,0-4.73-2.05-4.73-5.02
				c0-3.98,2.79-7.06,6.58-7.06c1.98,0,2.95,1.1,3.17,1.5l0.92-5.61h3.04L715.96,345.91z M711.58,336.8c-2,0-3.56,1.72-3.56,4
				c0,1.67,0.95,2.71,2.44,2.71c2.11,0,3.59-1.85,3.59-3.98C714.04,337.82,713.05,336.8,711.58,336.8z"/>
			<path class="st5" d="M577.29,365.67l-1.12,6.64h-3.01l1.17-7c0.22-1.28-0.53-2.07-1.56-2.07c-1.28,0-2.24,0.92-2.44,2.16
				l-1.17,6.91h-3.04l2.66-15.91h3.04l-0.97,5.74c0.62-0.79,1.83-1.63,3.32-1.63C577.47,360.52,577.71,363.23,577.29,365.67z"/>
			<path class="st5" d="M583.52,364.94c1.17,0,2,0.35,2.38,0.64l0.13-0.75c0.18-1.01-0.46-1.69-1.8-1.69
				c-1.14,0-2.27,0.37-3.19,0.81l-0.81-2.07c1.17-0.7,3.01-1.36,4.77-1.36c3.7,0,4.47,1.94,4.03,4.51l-1.21,7.28h-2.68l-0.07-0.75
				c-0.7,0.64-1.65,1.03-2.97,1.03c-2.11,0-3.74-1.23-3.74-3.3C578.35,366.75,580.55,364.94,583.52,364.94z M583.21,370.24
				c1.25,0,2.27-0.7,2.27-1.8c0-0.88-0.7-1.39-1.76-1.39c-1.28,0-2.27,0.77-2.27,1.8C581.45,369.69,582.15,370.24,583.21,370.24z"/>
			<path class="st5" d="M593.07,372.31l-2.18-11.51h3.23l1.25,8.27l4.03-8.27h3.23l-6.05,11.51H593.07z"/>
			<path class="st5" d="M608.93,360.52c3.06,0,4.73,1.89,4.73,4.91c0,0.81-0.2,1.67-0.26,1.89h-8.1c-0.2,1.54,0.81,2.64,2.51,2.64
				c1.56,0,2.62-0.92,3.04-1.41l1.83,1.52c-0.57,0.81-2.44,2.53-5.3,2.53c-3.26,0-5.15-2.13-5.15-5.04
				C602.22,363.64,605.23,360.52,608.93,360.52z M610.67,365.34c0.18-1.41-0.68-2.33-2.07-2.33c-1.43,0-2.53,1.01-2.88,2.33H610.67z
				"/>
			<path class="st5" d="M630.99,372.31h-2.86l0.2-1.19c-0.37,0.37-1.69,1.47-3.65,1.47c-2.9,0-4.73-2.05-4.73-5.02
				c0-3.98,2.79-7.06,6.58-7.06c1.98,0,2.95,1.1,3.17,1.5l0.92-5.61h3.04L630.99,372.31z M626.62,363.2c-2,0-3.56,1.72-3.56,4
				c0,1.67,0.95,2.71,2.44,2.71c2.11,0,3.59-1.85,3.59-3.98C629.08,364.22,628.09,363.2,626.62,363.2z"/>
			<path class="st5" d="M640.89,360.52c3.15,0,5.28,2.2,5.28,5.19c0,3.89-3.28,6.89-7.31,6.89c-3.19,0-5.28-2.13-5.28-5.1
				C633.59,363.56,637,360.52,640.89,360.52z M639.31,369.91c2.07,0,3.78-1.65,3.78-3.87c0-1.65-1.06-2.84-2.66-2.84
				c-2.05,0-3.76,1.69-3.76,3.94C636.67,368.77,637.73,369.91,639.31,369.91z"/>
			<path class="st5" d="M658.01,365.67l-1.12,6.64h-3.04l1.17-7c0.22-1.28-0.53-2.07-1.56-2.07c-1.25,0-2.2,0.92-2.4,2.16
				l-1.17,6.91h-3.04l1.94-11.51h2.97l-0.24,1.34c0.62-0.79,1.87-1.63,3.37-1.63C658.16,360.52,658.43,363.23,658.01,365.67z"/>
			<path class="st5" d="M666.13,360.52c3.06,0,4.73,1.89,4.73,4.91c0,0.81-0.2,1.67-0.26,1.89h-8.1c-0.2,1.54,0.81,2.64,2.51,2.64
				c1.56,0,2.62-0.92,3.04-1.41l1.83,1.52c-0.57,0.81-2.44,2.53-5.3,2.53c-3.26,0-5.15-2.13-5.15-5.04
				C659.42,363.64,662.43,360.52,666.13,360.52z M667.87,365.34c0.18-1.41-0.68-2.33-2.07-2.33c-1.43,0-2.53,1.01-2.88,2.33H667.87z
				"/>
			<path class="st5" d="M678.86,360.8h3.04l-1.94,11.51h-3.04L678.86,360.8z M681.11,356.29c0.9,0,1.52,0.64,1.52,1.5
				c0,1.1-0.99,1.98-2.11,1.98c-0.88,0-1.5-0.64-1.5-1.5C679.02,357.17,680.01,356.29,681.11,356.29z"/>
			<path class="st5" d="M684.98,358.38h2.99l-0.4,2.42h2.16l-0.42,2.46h-2.16l-0.75,4.44c-0.29,1.72,0.2,2.07,1.36,2.07
				c0.2,0,0.31,0,0.55-0.02l-0.44,2.6c0,0-0.48,0.11-1.32,0.11c-2.75,0-3.7-1.54-3.17-4.67l0.75-4.53h-1.21l0.42-2.46h1.23
				L684.98,358.38z"/>
			<path class="st5" d="M689.56,370.99c0-1.12,1.06-2.13,2.22-2.13c0.95,0,1.56,0.73,1.56,1.63c0,1.14-1.03,2.11-2.2,2.11
				C690.19,372.6,689.56,371.89,689.56,370.99z"/>
		</g>
		<g>
			<path class="st5" d="M577.45,141.69l-4.69,10.63h-3.5l-1.56-15.4h3.39l0.73,11.53l4.99-11.53h2.86l1.12,11.53l4.62-11.53h3.37
				l-6.69,15.4h-3.52L577.45,141.69z"/>
			<path class="st5" d="M594.23,140.52c3.06,0,4.73,1.89,4.73,4.91c0,0.81-0.2,1.67-0.26,1.89h-8.1c-0.2,1.54,0.81,2.64,2.51,2.64
				c1.56,0,2.62-0.92,3.04-1.41l1.83,1.52c-0.57,0.81-2.44,2.53-5.3,2.53c-3.26,0-5.15-2.13-5.15-5.04
				C587.52,143.65,590.54,140.52,594.23,140.52z M595.97,145.34c0.18-1.41-0.68-2.33-2.07-2.33c-1.43,0-2.53,1.01-2.88,2.33H595.97z
				"/>
			<path class="st5" d="M621.47,152.32h-3.04l1.14-6.89c0.22-1.36-0.31-2.18-1.43-2.18c-1.1,0-2,0.81-2.24,2.2l-1.14,6.86h-3.04
				l1.17-7c0.22-1.3-0.31-2.07-1.43-2.07c-1.08,0-2.02,0.81-2.24,2.18l-1.14,6.89h-3.04l1.94-11.51h2.97l-0.24,1.34
				c0.55-0.79,1.72-1.63,3.28-1.63c1.47,0,2.44,0.66,2.86,1.72c0.86-1.06,2.16-1.72,3.7-1.72c2.62,0,3.61,1.74,3.21,4.2
				L621.47,152.32z"/>
			<path class="st5" d="M624.48,147.45l1.12-6.65h3.01l-1.17,7c-0.22,1.28,0.53,2.07,1.56,2.07c1.25,0,2.22-0.92,2.42-2.16
				l1.17-6.91h3.01l-1.91,11.51h-2.97l0.22-1.34c-0.62,0.79-1.87,1.63-3.37,1.63C624.31,152.6,624.06,149.9,624.48,147.45z"/>
			<path class="st5" d="M635.52,150.47l2.05-1.58c0.46,0.66,1.14,1.25,2.44,1.25c0.95,0,1.58-0.44,1.58-1.14
				c0-1.52-4.64-1.12-4.64-4.51c0-2.49,2.22-3.96,4.82-3.96c2.18,0,3.19,1.14,3.59,2.05l-2.24,1.5c-0.29-0.44-0.81-1.1-1.89-1.1
				c-0.77,0-1.36,0.42-1.36,1.03c0,1.58,4.69,1.01,4.69,4.4c0,2.57-2.35,4.2-5.08,4.2C637.2,152.6,635.96,151.46,635.52,150.47z"/>
			<path class="st5" d="M648.17,138.39h2.99l-0.4,2.42h2.16l-0.42,2.46h-2.16l-0.75,4.44c-0.29,1.72,0.2,2.07,1.36,2.07
				c0.2,0,0.31,0,0.55-0.02l-0.44,2.6c0,0-0.48,0.11-1.32,0.11c-2.75,0-3.7-1.54-3.17-4.66l0.75-4.53h-1.21l0.42-2.46h1.23
				L648.17,138.39z"/>
			<path class="st5" d="M657.88,150.47l2.05-1.58c0.46,0.66,1.14,1.25,2.44,1.25c0.95,0,1.58-0.44,1.58-1.14
				c0-1.52-4.64-1.12-4.64-4.51c0-2.49,2.22-3.96,4.82-3.96c2.18,0,3.19,1.14,3.59,2.05l-2.24,1.5c-0.29-0.44-0.81-1.1-1.89-1.1
				c-0.77,0-1.36,0.42-1.36,1.03c0,1.58,4.69,1.01,4.69,4.4c0,2.57-2.35,4.2-5.08,4.2C659.55,152.6,658.32,151.46,657.88,150.47z"/>
			<path class="st5" d="M679.09,145.67l-1.12,6.65h-3.01l1.17-7c0.22-1.28-0.53-2.07-1.56-2.07c-1.28,0-2.24,0.92-2.44,2.16
				l-1.17,6.91h-3.04l2.66-15.91h3.04l-0.97,5.74c0.62-0.79,1.83-1.63,3.32-1.63C679.26,140.52,679.5,143.23,679.09,145.67z"/>
			<path class="st5" d="M682.21,140.81h3.04l-1.94,11.51h-3.04L682.21,140.81z M684.45,136.3c0.9,0,1.52,0.64,1.52,1.5
				c0,1.1-0.99,1.98-2.11,1.98c-0.88,0-1.5-0.64-1.5-1.5C682.36,137.18,683.35,136.3,684.45,136.3z"/>
			<path class="st5" d="M687.64,140.81h2.86l-0.2,1.21c0.37-0.4,1.69-1.5,3.65-1.5c2.9,0,4.73,2.07,4.73,5.02
				c0,3.98-2.79,7.06-6.58,7.06c-1.98,0-2.95-1.1-3.17-1.47l-0.88,5.3h-3.04L687.64,140.81z M692.02,149.92c2,0,3.56-1.72,3.56-4
				c0-1.67-0.95-2.71-2.44-2.71c-2.11,0-3.59,1.85-3.59,3.98C689.56,148.91,690.55,149.92,692.02,149.92z"/>
			<path class="st5" d="M577.27,172.07l-1.12,6.65h-3.04l1.17-7c0.22-1.28-0.53-2.07-1.56-2.07c-1.25,0-2.2,0.92-2.4,2.16
				l-1.17,6.91h-3.04l1.94-11.51h2.97l-0.24,1.34c0.62-0.79,1.87-1.63,3.37-1.63C577.42,166.92,577.69,169.63,577.27,172.07z"/>
			<path class="st5" d="M585.96,166.92c3.15,0,5.28,2.2,5.28,5.19c0,3.89-3.28,6.89-7.3,6.89c-3.19,0-5.28-2.13-5.28-5.1
				C578.66,169.96,582.07,166.92,585.96,166.92z M584.38,176.32c2.07,0,3.79-1.65,3.79-3.87c0-1.65-1.06-2.84-2.66-2.84
				c-2.05,0-3.76,1.69-3.76,3.94C581.74,175.17,582.79,176.32,584.38,176.32z"/>
			<path class="st5" d="M601.1,171.35l-3.39,7.37h-3.39l-1.5-11.51h3.3l0.66,8.16l3.56-8.16h2.86l0.81,8.16l3.41-8.16h3.3
				l-5.39,11.51h-3.39L601.1,171.35z"/>
			<path class="st5" d="M620.63,171.35c1.17,0,2,0.35,2.38,0.64l0.13-0.75c0.18-1.01-0.46-1.69-1.8-1.69
				c-1.14,0-2.27,0.37-3.19,0.81l-0.81-2.07c1.17-0.7,3.01-1.36,4.78-1.36c3.7,0,4.47,1.94,4.03,4.51l-1.21,7.28h-2.69l-0.07-0.75
				c-0.7,0.64-1.65,1.03-2.97,1.03c-2.11,0-3.74-1.23-3.74-3.3C615.46,173.15,617.66,171.35,620.63,171.35z M620.32,176.65
				c1.25,0,2.27-0.7,2.27-1.8c0-0.88-0.7-1.39-1.76-1.39c-1.28,0-2.27,0.77-2.27,1.8C618.56,176.1,619.27,176.65,620.32,176.65z"/>
			<path class="st5" d="M638.32,172.07l-1.12,6.65h-3.04l1.17-7c0.22-1.28-0.53-2.07-1.56-2.07c-1.25,0-2.2,0.92-2.4,2.16
				l-1.17,6.91h-3.04l1.94-11.51h2.97l-0.24,1.34c0.62-0.79,1.87-1.63,3.37-1.63C638.47,166.92,638.74,169.63,638.32,172.07z"/>
			<path class="st5" d="M650.75,178.72h-2.86l0.2-1.19c-0.37,0.37-1.69,1.47-3.65,1.47c-2.9,0-4.73-2.05-4.73-5.02
				c0-3.98,2.79-7.06,6.58-7.06c1.98,0,2.95,1.1,3.17,1.5l0.92-5.61h3.04L650.75,178.72z M646.37,169.61c-2,0-3.56,1.72-3.56,4
				c0,1.67,0.95,2.71,2.44,2.71c2.11,0,3.59-1.85,3.59-3.98C648.84,170.62,647.85,169.61,646.37,169.61z"/>
			<path class="st5" d="M669.85,178.72h-2.86l0.2-1.19c-0.37,0.37-1.69,1.47-3.65,1.47c-2.9,0-4.73-2.05-4.73-5.02
				c0-3.98,2.79-7.06,6.58-7.06c1.98,0,2.95,1.1,3.17,1.5l0.92-5.61h3.04L669.85,178.72z M665.47,169.61c-2,0-3.56,1.72-3.56,4
				c0,1.67,0.95,2.71,2.44,2.71c2.11,0,3.59-1.85,3.59-3.98C667.93,170.62,666.94,169.61,665.47,169.61z"/>
			<path class="st5" d="M679.17,166.92c3.06,0,4.73,1.89,4.73,4.91c0,0.81-0.2,1.67-0.26,1.89h-8.1c-0.2,1.54,0.81,2.64,2.51,2.64
				c1.56,0,2.62-0.92,3.04-1.41l1.83,1.52c-0.57,0.81-2.44,2.53-5.3,2.53c-3.26,0-5.15-2.13-5.15-5.04
				C672.46,170.05,675.48,166.92,679.17,166.92z M680.91,171.74c0.18-1.41-0.68-2.33-2.07-2.33c-1.43,0-2.53,1.01-2.88,2.33H680.91z
				"/>
			<path class="st5" d="M689.56,171.35c1.17,0,2,0.35,2.38,0.64l0.13-0.75c0.18-1.01-0.46-1.69-1.8-1.69
				c-1.14,0-2.27,0.37-3.19,0.81l-0.81-2.07c1.17-0.7,3.01-1.36,4.77-1.36c3.7,0,4.47,1.94,4.03,4.51l-1.21,7.28h-2.68l-0.07-0.75
				c-0.7,0.64-1.65,1.03-2.97,1.03c-2.11,0-3.74-1.23-3.74-3.3C684.39,173.15,686.59,171.35,689.56,171.35z M689.25,176.65
				c1.25,0,2.27-0.7,2.27-1.8c0-0.88-0.7-1.39-1.76-1.39c-1.28,0-2.27,0.77-2.27,1.8C687.49,176.1,688.19,176.65,689.25,176.65z"/>
			<path class="st5" d="M698.75,162.81h3.04l-2.66,15.91h-3.04L698.75,162.81z"/>
			<path class="st5" d="M716.15,171.35l-3.39,7.37h-3.39l-1.5-11.51h3.3l0.66,8.16l3.56-8.16h2.86l0.81,8.16l3.41-8.16h3.3
				l-5.39,11.51h-3.39L716.15,171.35z"/>
			<path class="st5" d="M727.13,167.21h3.04l-1.94,11.51h-3.04L727.13,167.21z M729.38,162.7c0.9,0,1.52,0.64,1.52,1.5
				c0,1.1-0.99,1.98-2.11,1.98c-0.88,0-1.5-0.64-1.5-1.5C727.29,163.58,728.28,162.7,729.38,162.7z"/>
			<path class="st5" d="M733.25,164.79h2.99l-0.4,2.42H738l-0.42,2.46h-2.16l-0.75,4.44c-0.29,1.72,0.2,2.07,1.37,2.07
				c0.2,0,0.31,0,0.55-0.02l-0.44,2.6c0,0-0.48,0.11-1.32,0.11c-2.75,0-3.7-1.54-3.17-4.66l0.75-4.53h-1.21l0.42-2.46h1.23
				L733.25,164.79z"/>
			<path class="st5" d="M749.13,172.07l-1.12,6.65h-3.02l1.17-7c0.22-1.28-0.53-2.07-1.56-2.07c-1.28,0-2.24,0.92-2.44,2.16
				l-1.17,6.91h-3.04l2.66-15.91h3.04l-0.97,5.74c0.62-0.79,1.83-1.63,3.32-1.63C749.31,166.92,749.55,169.63,749.13,172.07z"/>
			<path class="st5" d="M574.96,201.68l0.46,2.49c-0.75,0.53-2.07,1.23-3.85,1.23c-3.19,0-5.24-2.11-5.24-5.08c0-3.96,3.34-7,7.24-7
				c1.69,0,2.77,0.66,3.41,1.23l-1.25,2.55c-0.44-0.46-1.23-1.1-2.53-1.1c-2.2,0-3.78,1.83-3.78,3.89c0,1.65,1.08,2.82,2.77,2.82
				C573.35,202.72,574.39,202.1,574.96,201.68z"/>
			<path class="st5" d="M584.42,193.32c3.15,0,5.28,2.2,5.28,5.19c0,3.89-3.28,6.89-7.31,6.89c-3.19,0-5.28-2.13-5.28-5.1
				C577.12,196.36,580.53,193.32,584.42,193.32z M582.84,202.72c2.07,0,3.78-1.65,3.78-3.87c0-1.65-1.06-2.84-2.66-2.84
				c-2.04,0-3.76,1.69-3.76,3.94C580.2,201.57,581.25,202.72,582.84,202.72z"/>
			<path class="st5" d="M601.54,198.47l-1.12,6.65h-3.04l1.17-7c0.22-1.28-0.53-2.07-1.56-2.07c-1.25,0-2.2,0.92-2.4,2.16
				l-1.17,6.91h-3.04l1.94-11.51h2.97l-0.24,1.34c0.62-0.79,1.87-1.63,3.37-1.63C601.69,193.32,601.95,196.03,601.54,198.47z"/>
			<path class="st5" d="M602.24,203.27l2.05-1.58c0.46,0.66,1.14,1.25,2.44,1.25c0.95,0,1.58-0.44,1.58-1.14
				c0-1.52-4.64-1.12-4.64-4.51c0-2.49,2.22-3.96,4.82-3.96c2.18,0,3.19,1.14,3.59,2.05l-2.24,1.5c-0.29-0.44-0.81-1.1-1.89-1.1
				c-0.77,0-1.37,0.42-1.37,1.03c0,1.58,4.69,1.01,4.69,4.4c0,2.57-2.35,4.2-5.08,4.2C603.91,205.4,602.68,204.26,602.24,203.27z"/>
			<path class="st5" d="M619.22,193.32c3.06,0,4.73,1.89,4.73,4.91c0,0.81-0.2,1.67-0.26,1.89h-8.1c-0.2,1.54,0.81,2.64,2.51,2.64
				c1.56,0,2.62-0.92,3.04-1.41l1.83,1.52c-0.57,0.81-2.44,2.53-5.3,2.53c-3.26,0-5.15-2.13-5.15-5.04
				C612.51,196.45,615.53,193.32,619.22,193.32z M620.96,198.14c0.18-1.41-0.68-2.33-2.07-2.33c-1.43,0-2.53,1.01-2.88,2.33H620.96z
				"/>
			<path class="st5" d="M635.15,209.23h-3.04l0.88-5.3c-0.33,0.37-1.67,1.47-3.65,1.47c-2.86,0-4.55-2.02-4.55-4.95
				c0-4.09,3.04-7.13,6.75-7.13c1.96,0,2.93,1.1,3.17,1.5l0.2-1.21h2.86L635.15,209.23z M631.48,196.01c-1.98,0-3.59,1.58-3.59,3.96
				c0,1.63,0.95,2.75,2.46,2.75c1.94,0,3.56-1.54,3.56-3.96C633.92,197.22,633.06,196.01,631.48,196.01z"/>
			<path class="st5" d="M638.96,200.25l1.12-6.65h3.01l-1.17,7c-0.22,1.28,0.53,2.07,1.56,2.07c1.25,0,2.22-0.92,2.42-2.16
				l1.17-6.91h3.02l-1.91,11.51h-2.97l0.22-1.34c-0.62,0.79-1.87,1.63-3.37,1.63C638.78,205.4,638.54,202.7,638.96,200.25z"/>
			<path class="st5" d="M657.42,193.32c3.06,0,4.73,1.89,4.73,4.91c0,0.81-0.2,1.67-0.26,1.89h-8.1c-0.2,1.54,0.81,2.64,2.51,2.64
				c1.56,0,2.62-0.92,3.04-1.41l1.83,1.52c-0.57,0.81-2.44,2.53-5.3,2.53c-3.26,0-5.15-2.13-5.15-5.04
				C650.7,196.45,653.72,193.32,657.42,193.32z M659.15,198.14c0.18-1.41-0.68-2.33-2.07-2.33c-1.43,0-2.53,1.01-2.88,2.33H659.15z"
				/>
			<path class="st5" d="M673.92,198.47l-1.12,6.65h-3.04l1.17-7c0.22-1.28-0.53-2.07-1.56-2.07c-1.25,0-2.2,0.92-2.4,2.16
				l-1.17,6.91h-3.04l1.94-11.51h2.97l-0.24,1.34c0.62-0.79,1.87-1.63,3.37-1.63C674.07,193.32,674.33,196.03,673.92,198.47z"/>
			<path class="st5" d="M683.93,201.68l0.46,2.49c-0.75,0.53-2.07,1.23-3.85,1.23c-3.19,0-5.24-2.11-5.24-5.08c0-3.96,3.34-7,7.24-7
				c1.69,0,2.77,0.66,3.41,1.23l-1.25,2.55c-0.44-0.46-1.23-1.1-2.53-1.1c-2.2,0-3.78,1.83-3.78,3.89c0,1.65,1.08,2.82,2.77,2.82
				C682.32,202.72,683.35,202.1,683.93,201.68z"/>
			<path class="st5" d="M692.81,193.32c3.06,0,4.73,1.89,4.73,4.91c0,0.81-0.2,1.67-0.26,1.89h-8.1c-0.2,1.54,0.81,2.64,2.51,2.64
				c1.56,0,2.62-0.92,3.04-1.41l1.83,1.52c-0.57,0.81-2.44,2.53-5.3,2.53c-3.26,0-5.15-2.13-5.15-5.04
				C686.1,196.45,689.12,193.32,692.81,193.32z M694.55,198.14c0.18-1.41-0.68-2.33-2.07-2.33c-1.43,0-2.53,1.01-2.88,2.33H694.55z"
				/>
			<path class="st5" d="M697.7,203.27l2.05-1.58c0.46,0.66,1.14,1.25,2.44,1.25c0.95,0,1.58-0.44,1.58-1.14
				c0-1.52-4.64-1.12-4.64-4.51c0-2.49,2.22-3.96,4.82-3.96c2.18,0,3.19,1.14,3.59,2.05l-2.24,1.5c-0.29-0.44-0.81-1.1-1.89-1.1
				c-0.77,0-1.37,0.42-1.37,1.03c0,1.58,4.69,1.01,4.69,4.4c0,2.57-2.35,4.2-5.08,4.2C699.37,205.4,698.14,204.26,697.7,203.27z"/>
			<path class="st5" d="M707.6,203.8c0-1.12,1.06-2.13,2.22-2.13c0.95,0,1.56,0.73,1.56,1.63c0,1.14-1.03,2.11-2.2,2.11
				C708.23,205.4,707.6,204.7,707.6,203.8z"/>
		</g>
		<g>
			<path class="st9" d="M52.15,345.95h-3.98v-16.28h3.98V345.95z"/>
			<path class="st9" d="M58.9,335.97v9.98h-3.91v-16.28h4.05l5.95,10.09v-10.09h3.91v16.28h-3.95L58.9,335.97z"/>
			<path class="st9" d="M75.59,342.3l-1.16,3.65h-4l5.63-16.28h4.19l5.63,16.28h-4l-1.16-3.65H75.59z M78.15,333.88l-1.53,5.16h3.07
				L78.15,333.88z"/>
			<path class="st9" d="M92.24,329.67c5.23,0,8.58,3.05,8.58,8.14s-3.35,8.14-8.58,8.14h-4.79v-16.28H92.24z M91.43,333.11v9.39
				h0.81c2.67,0,4.44-1.58,4.44-4.7s-1.77-4.7-4.44-4.7H91.43z"/>
			<path class="st9" d="M107.45,345.95l-5.88-16.28h4.37l3.67,11.58l3.67-11.58h4.37l-5.88,16.28H107.45z"/>
			<path class="st9" d="M119.22,345.95v-16.28h8.67v3.56h-4.7v2.72h4v3.54h-4v2.91h4.88v3.56H119.22z"/>
			<path class="st9" d="M139.24,338.97c0,0-0.02-0.05,3.74,6.98h-4.4l-2.91-6.02h-1.21v6.02h-3.98v-16.28h5.3c3.84,0,5.7,1.77,5.7,5
				C141.5,336.46,140.73,338.16,139.24,338.97z M134.47,333.09v3.51h1.19c1.09,0,1.77-0.67,1.77-1.79c0-1.07-0.51-1.72-1.95-1.72
				H134.47z"/>
			<path class="st9" d="M150.59,333.23v12.72h-3.98v-12.72h-3.51v-3.56h11v3.56H150.59z"/>
			<path class="st9" d="M155.98,345.95v-16.28h8.67v3.56h-4.7v2.72h4v3.54h-4v2.91h4.88v3.56H155.98z"/>
			<path class="st9" d="M171.12,335.97v9.98h-3.91v-16.28h4.05l5.95,10.09v-10.09h3.91v16.28h-3.95L171.12,335.97z"/>
			<path class="st9" d="M190.45,333.23v12.72h-3.98v-12.72h-3.51v-3.56h11v3.56H190.45z"/>
		</g>
		<g>
			<path class="st8" d="M501.69,247.62h-271.8V97.51h271.8V247.62z M230.89,246.62h269.8V98.51h-269.8V246.62z"/>
		</g>
		<g>
			<path class="st8" d="M795.66,247.62h-271.8V97.51h271.8V247.62z M524.86,246.62h269.8V98.51h-269.8V246.62z"/>
		</g>
		<g>
			<path class="st8" d="M501.69,414.82h-271.8V264.71h271.8V414.82z M230.89,413.82h269.8V265.71h-269.8V413.82z"/>
		</g>
		<g>
			<path class="st8" d="M795.66,414.82h-271.8V264.71h271.8V414.82z M524.86,413.82h269.8V265.71h-269.8V413.82z"/>
		</g>
	</g>
</g>
</svg>
