<?xml version="1.0" encoding="utf-8"?>
<!-- Generator: Adobe Illustrator 25.0.0, SVG Export Plug-In . SVG Version: 6.00 Build 0)  -->
<svg version="1.1" xmlns="http://www.w3.org/2000/svg" xmlns:xlink="http://www.w3.org/1999/xlink" x="0px" y="0px"
	 viewBox="0 0 841.89 467.72" style="enable-background:new 0 0 841.89 467.72;" xml:space="preserve">
<style type="text/css">
	.st0{fill:#61A575;}
	.st1{fill:#4890BA;}
	.st2{fill:#FFFFFF;}
	.st3{fill:#F5C65D;}
	.st4{fill:none;stroke:#54575C;stroke-miterlimit:10;}
	.st5{fill:#F4F4F5;}
	.st6{fill:#CF7F56;}
	.st7{fill:#DCEFFA;}
	.st8{fill:none;stroke:#54575C;stroke-width:1.0045;stroke-miterlimit:10;}
	.st9{fill:#54575C;}
	.st10{fill:#F0D5B7;}
	.st11{fill:#E0635D;}
	.st12{fill:none;stroke:#54575C;stroke-linejoin:round;stroke-miterlimit:10;}
	.st13{fill:none;stroke:#54575C;stroke-width:1.0015;stroke-miterlimit:10;}
	.st14{clip-path:url(#SVGID_2_);}
	.st15{fill:none;}
	.st16{fill:#DBEFFA;}
	.st17{clip-path:url(#SVGID_4_);}
	.st18{clip-path:url(#SVGID_6_);}
	.st19{fill:none;stroke:#E0635D;stroke-width:3;stroke-miterlimit:10;}
</style>
<g id="Layer_1">
</g>
<g id="Layer_2">
</g>
<g id="Layer_3">
	<path class="st1" d="M841.89,0H-0.57v3.87c1.01,0.32,1,1.88,0,2.21L0,165.01h841.89V0z"/>
	<g>
		<path class="st2" d="M793.2,117.9c-3.47-7.49-14.88-12.85-28.61-12.7c-3.81,0.04-7.46,0.51-10.85,1.31
			c-5.74-8.33-16.47-13.82-28.95-13.69c-15.55,0.17-29,9.03-33.67,21.04c-2.25-0.61-4.69-0.93-7.26-0.9
			c-11.6,0.13-21.24,7.29-21.55,15.99c-0.03,0.78,0.02,1.55,0.14,2.3c-13.23,2.13-23.23,9.4-23.52,17.92
			c-0.35,10.07,12.94,18.08,29.7,17.9c9.91-0.11,18.81-3.06,24.5-7.54c8.36,5.64,22.61,9.25,38.93,9.07
			c14.91-0.16,28.31-3.45,37.19-8.45c2.14,0.11,4.33,0.17,6.56,0.14c26.24-0.28,47.85-10.25,48.27-22.25
			C824.41,128.59,811.5,120.69,793.2,117.9z"/>
	</g>
	<g>
		<path class="st2" d="M483.4,32.87l6.22,23.76L372.98,74.19V51.15l-43.87,36.56l43.87,40.22V97.59l41.04-4.24l6.76,65.53
			l12.96,2.88l4.35-70.89l58.84-6.07c0,0,6.58,34,6.58,32.91c0-1.1,31.81-56.3,31.81-56.3L483.4,32.87z"/>
	</g>
	<path class="st3" d="M480.54,37.3l6.22,23.76L370.13,78.62V55.58l-43.87,36.56l43.87,40.22v-30.35l41.04-4.24l6.76,65.53
		l12.96,2.88l4.35-70.89l58.84-6.07c0,0,6.58,34,6.58,32.91c0-1.1,31.81-56.3,31.81-56.3L480.54,37.3z"/>
	<path class="st4" d="M482.94,33.62l6.22,23.76L372.53,74.93V51.9l-43.87,36.56l43.87,40.22V98.33l41.04-4.24l6.76,65.53l12.96,2.88
		l4.35-70.89l58.84-6.07c0,0,6.58,34,6.58,32.91c0-1.1,31.81-56.3,31.81-56.3L482.94,33.62z"/>
	<g>
		<path class="st0" d="M841.89,209.76c-270.74,5.34-287.46,33.39-296.71,68.33c-8.66,32.7,75.42,162.3,93.53,189.63h203.18V209.76z"
			/>
		<path class="st0" d="M841.89,143.95c-30.6,2.85-182.05,16.38-261.17,13.48c-83.31-3.05-526.88,4.45-580.72,6.21v24.77
			c93.26,3.7,409.67,18.7,449.31,19.64c38.93,0.93,312.92-20.48,392.58-25.78V143.95z"/>
		<path class="st0" d="M217.29,467.72c12.7-17.37,53.29-78.38,70.44-165.94c6.09-31.09,22.62-76.48-92.64-87.25
			c-74.45-6.96-150.12,1.81-195.09,8.9v244.29H217.29z"/>
		<path class="st5" d="M215.54,467.72c-0.6,0.79-1.08-0.45-1.43,0c131.02-0.75,296.84-0.04,426.45,0c-0.09-0.13-0.19,0.14-0.28,0
			H215.54z"/>
		<path class="st5" d="M545.18,278.08c9.25-34.94,25.97-62.99,296.71-68.33v-27.47c-79.67,5.31-353.65,26.71-392.58,25.78
			C409.67,207.12,93.26,192.12,0,188.42v35c44.98-7.08,120.65-15.86,195.09-8.9c115.26,10.77,98.73,56.16,92.64,87.25
			c-17.15,87.56-57.74,148.57-70.44,165.94h421.42C620.59,440.38,536.52,310.78,545.18,278.08z"/>
	</g>
	<g>
		<path class="st2" d="M162.59,66.36c-3.02-11.14-15.73-20.65-32-22.8c-4.51-0.6-8.9-0.57-13.02-0.02
			c-5.59-12.72-17.48-22.29-32.26-24.25c-18.42-2.44-35.59,7.72-42.86,23.83c-2.57-1.24-5.42-2.11-8.45-2.51
			c-13.73-1.82-26.17,6.6-27.79,18.81c-0.14,1.09-0.19,2.18-0.16,3.26c-2.89,0.13-5.67,0.52-8.31,1.14v47.83
			c3.25,1.18,6.75,2.04,10.43,2.53c11.73,1.55,22.68-1.07,30.06-6.4c9.07,9.38,25.41,16.91,44.72,19.46
			c17.65,2.34,33.98,0.02,45.2-5.51c2.52,0.53,5.1,0.98,7.74,1.33c31.07,4.11,58.07-6.2,60.3-23.03
			C197.95,86.78,183.83,73.45,162.59,66.36z"/>
	</g>
	<g>
		<path class="st4" d="M841.89,204.91c-272.76,5.23-289.56,33.34-298.83,68.37c-9,34,82.24,174.75,95.38,194.44
			c100.22,0.03,179.37-1.37,203.45-0.11V204.91z"/>
		<path class="st13" d="M841.89,138.83c-28.67,2.68-182.41,16.51-262.39,13.58c-82.44-3.02-517.04,4.27-579.5,6.15v24.96
			c95.98,3.85,408.48,18.65,447.89,19.59c39.12,0.93,315.28-20.65,394-25.88V138.83z"/>
		<path class="st13" d="M158.36,467.72c17.11-0.1,35.16,0.11,53.96,0c6.35-8.14,54.61-73.07,73.74-170.75
			c6.1-31.14,22.66-76.6-92.78-87.39c-73.42-6.86-147.98,1.55-193.28,8.58v249.55H158.36z"/>
		<path class="st4" d="M543.06,273.28c9.27-35.03,26.07-63.13,298.83-68.37v-27.57c-76.81,5.06-355.42,26.86-394.7,25.92
			C407.85,202.33,95.85,187.54,0,183.7v34.59c45.24-7.02,119.68-15.42,192.97-8.57c115.26,10.77,98.73,56.16,92.64,87.25
			c-19.1,97.53-67.29,162.61-73.63,170.74c131.02-0.75,296.84-0.04,426.45,0C625.3,448.03,534.06,307.28,543.06,273.28z"/>
	</g>
	<g>
		<path class="st11" d="M544.1,467.72c-1.71-41.44-3.33-83.8-11.7-124.51c-1.13-5.52-2.79-10.66-5.85-15.44
			c-3.73-5.83-8.93-10.91-14.25-15.3c-1.23-1.02-14.6-7.44-14.59-5.87c0.28,38.32-1.5,68.37-1.5,68.37s-51.82,35.27-86.37,25.19
			s-25.91-34.55-45.34-42.47c-19.43-7.92-33.11-10.08-29.51-31.67c1.68-10.08,5.4-21.27,8.6-33.33
			c-17.61,2.82-38.26,10.5-47.46,30.45c-14.58,31.6-31.22,118.41-36.05,144.58C260.08,467.72,544.1,467.72,544.1,467.72z"/>
	</g>
	<g>
		<g>
			<path class="st4" d="M547.66,467.72c-1.69-40.88-2.91-83.08-11.53-123.19c-1.31-6.1-2.65-11.95-6.35-17.12
				c-3.9-5.45-8.43-10.77-14.16-14.37c-1.43-0.9-14.32-6.27-14.32-6.04c0.28,38.32-1.5,68.37-1.5,68.37s-51.82,35.27-86.37,25.19
				s-25.91-34.55-45.34-42.47c-19.43-7.92-33.11-10.08-29.51-31.67c1.68-10.08,5.4-21.27,8.6-33.33
				c-17.61,2.82-38.26,10.5-47.46,30.45c-14.51,31.44-31.05,117.54-35.97,144.18C263.73,467.72,547.66,467.72,547.66,467.72z"/>
			<path class="st9" d="M501.29,306.99c-0.34-45.97-3.66-103.85-16.61-136.04c-23.75-59.02-84.93-32.39-84.93-32.39
				c-64.78,2.88-50.38,80.61-47.5,110.12c1.53,15.73-1.43,30.64-5.08,44.41c-3.2,12.06-6.92,23.24-8.6,33.33
				c-3.6,21.59,10.08,23.75,29.51,31.67c19.43,7.92,10.8,32.39,45.34,42.47s86.37-25.19,86.37-25.19S501.58,345.31,501.29,306.99z"
				/>
		</g>
		<path class="st4" d="M320.36,467.72c6.91-19.7,15.86-44.72,20.86-66.72c2-9,4-17,0.76-26.33"/>
		<path class="st4" d="M489.23,467.72c2.61-21.85,0.99-51.72,17.1-70.16"/>
	</g>
</g>
</svg>
