<?xml version="1.0" standalone="no"?>
<!DOCTYPE svg PUBLIC "-//W3C//DTD SVG 20010904//EN"
 "http://www.w3.org/TR/2001/REC-SVG-20010904/DTD/svg10.dtd">
<svg version="1.0" xmlns="http://www.w3.org/2000/svg"
 width="2860.000000pt" height="1600.000000pt" viewBox="0 0 2860.000000 1600.000000"
 preserveAspectRatio="xMidYMid meet">

<g transform="translate(0.000000,1600.000000) scale(0.100000,-0.100000)"
fill="#000000" stroke="none">
<path d="M1004 14592 c-11 -7 -5 -49 26 -172 5 -19 14 -57 20 -85 25 -107 52
-222 70 -295 5 -19 16 -66 24 -105 9 -38 20 -83 24 -100 l8 -30 91 -3 91 -3 5
28 c12 61 52 215 88 343 6 19 14 51 18 70 16 72 32 120 39 120 14 0 29 -35 47
-110 9 -41 21 -84 26 -95 4 -11 17 -58 29 -105 12 -47 26 -101 31 -120 6 -19
14 -51 18 -71 12 -57 15 -59 105 -59 l82 0 33 133 c18 72 37 150 42 172 4 22
25 105 44 185 32 126 63 263 68 295 1 6 -28 10 -73 10 l-74 0 -14 -50 c-21
-76 -30 -114 -42 -185 -7 -36 -16 -78 -20 -95 -5 -16 -16 -65 -26 -107 -11
-50 -22 -78 -30 -78 -8 0 -14 7 -14 15 0 8 -4 23 -9 33 -5 9 -26 89 -46 177
-21 88 -41 168 -46 177 -5 10 -9 28 -9 40 0 13 -6 34 -13 47 -11 22 -20 24
-93 28 -88 4 -114 -7 -114 -48 0 -11 -4 -27 -9 -37 -5 -9 -16 -46 -25 -82 -8
-36 -27 -108 -42 -160 -14 -52 -29 -109 -31 -127 -6 -36 -29 -62 -42 -47 -5 5
-14 36 -20 69 -6 33 -15 80 -21 105 -6 25 -15 68 -20 95 -35 167 -49 218 -63
227 -15 10 -118 10 -133 0z"/>
<path d="M3234 14591 c-2 -2 -4 -182 -4 -398 l0 -394 73 3 72 3 3 91 c3 86 4
92 33 120 22 21 34 26 45 19 14 -9 74 -109 121 -202 16 -31 18 -32 91 -35 51
-2 76 1 79 9 3 6 -12 37 -31 67 -20 31 -36 58 -36 60 0 3 -27 50 -60 106 -33
56 -60 110 -60 121 0 11 39 60 90 112 l89 92 -92 3 -92 3 -38 -43 c-21 -24
-54 -62 -74 -85 -61 -73 -63 -68 -63 152 0 107 -3 195 -7 196 -32 3 -136 3
-139 0z"/>
<path d="M4182 14592 c-9 -6 -12 -28 -10 -68 l3 -59 70 0 70 0 0 65 0 65 -60
3 c-33 1 -66 -2 -73 -6z"/>
<path d="M5508 14594 c-17 -5 -18 -33 -18 -400 l0 -394 75 0 75 0 0 139 c0 99
4 141 13 148 6 6 73 13 148 16 119 5 141 8 180 30 60 33 104 100 112 168 17
140 -36 242 -143 278 -36 12 -410 25 -442 15z m365 -148 c83 -41 88 -140 10
-192 -35 -23 -204 -34 -228 -14 -11 9 -15 35 -15 102 0 128 2 131 108 126 58
-2 100 -10 125 -22z"/>
<path d="M10694 14591 c-5 -6 -5 -786 0 -792 2 -2 36 -3 75 -1 l71 4 2 161 3
162 50 3 c40 2 58 -2 85 -20 29 -20 170 -206 188 -248 3 -8 15 -25 26 -37 18
-19 33 -22 104 -24 45 -1 85 1 88 4 14 13 -141 245 -199 299 -21 20 -37 40
-34 45 3 5 25 16 47 23 56 19 105 70 125 131 15 44 16 59 5 112 -16 84 -52
132 -116 156 -45 17 -83 20 -284 23 -127 2 -234 1 -236 -1z m403 -132 c52 -20
73 -48 73 -100 0 -43 -4 -51 -34 -74 -33 -25 -37 -26 -162 -23 l-129 3 -3 88
c-2 57 1 94 9 103 14 17 202 20 246 3z"/>
<path d="M13578 14592 c-15 -3 -18 -14 -18 -63 0 -67 7 -73 96 -67 l49 3 0 65
0 65 -55 0 c-30 1 -63 -1 -72 -3z"/>
<path d="M14883 14584 c-2 -6 -3 -36 -1 -65 l3 -54 70 0 70 0 3 63 c2 34 -1
62 -5 63 -72 6 -136 3 -140 -7z"/>
<path d="M12845 14544 c-22 -13 -50 -29 -62 -34 -24 -10 -31 -30 -35 -95 -3
-37 -5 -40 -36 -43 l-33 -3 3 -52 c3 -49 5 -52 33 -57 l30 -5 7 -180 c3 -99 9
-192 13 -207 15 -59 88 -93 175 -82 84 11 83 10 76 67 -9 65 -12 68 -42 57
-21 -8 -29 -6 -50 15 -23 23 -24 29 -24 168 0 161 1 164 65 169 l40 3 3 53 3
52 -43 0 c-24 0 -49 5 -56 12 -8 8 -12 45 -12 100 0 48 -3 88 -7 87 -5 0 -26
-11 -48 -25z"/>
<path d="M14610 14550 c-14 -11 -29 -20 -33 -20 -5 0 -22 -9 -38 -21 -25 -18
-29 -27 -29 -68 0 -52 -12 -71 -47 -71 -21 0 -23 -4 -23 -55 0 -51 2 -55 23
-55 43 0 47 -14 48 -194 1 -196 9 -231 60 -261 35 -20 115 -26 172 -11 25 6
27 11 27 54 0 60 -11 78 -37 64 -14 -8 -26 -7 -44 1 -24 12 -24 14 -27 172 -3
175 -3 175 61 175 l37 0 0 55 0 55 -34 0 c-64 0 -66 3 -66 106 0 102 -5 109
-50 74z"/>
<path d="M2307 14380 c-65 -11 -108 -33 -151 -76 -79 -79 -105 -200 -70 -320
22 -77 68 -132 137 -167 50 -24 72 -29 142 -29 75 -2 91 2 142 28 64 33 123
101 142 164 6 20 11 72 11 113 0 119 -52 211 -148 261 -24 12 -136 38 -151 35
-3 -1 -28 -5 -54 -9z m110 -127 c55 -26 93 -93 93 -164 0 -92 -34 -150 -107
-178 -54 -22 -123 12 -156 76 -27 51 -31 106 -13 161 20 60 42 87 87 106 44
20 54 19 96 -1z"/>
<path d="M3015 14376 c-17 -7 -36 -20 -44 -29 -19 -23 -41 -21 -41 3 0 18 -7
20 -70 20 l-70 0 0 -285 0 -285 75 0 75 0 0 166 c0 183 9 234 49 266 21 16 35
19 77 14 51 -6 52 -6 64 27 6 17 16 40 21 49 14 27 11 38 -13 47 -47 17 -94
20 -123 7z"/>
<path d="M4760 14378 c-25 -5 -62 -23 -83 -39 -41 -33 -57 -31 -57 7 0 23 -2
24 -70 24 l-70 0 0 -284 0 -284 71 -4 c39 -2 73 -1 75 1 2 2 4 82 4 176 0 192
7 224 61 269 26 22 40 26 78 24 39 -3 49 -8 68 -37 22 -33 23 -42 23 -232 l0
-199 75 0 75 0 0 223 c0 195 -3 227 -19 263 -22 49 -62 80 -122 93 -51 12 -49
12 -109 -1z"/>
<path d="M6470 14378 c-19 -5 -42 -17 -50 -26 -25 -30 -48 -34 -52 -9 -3 20
-9 22 -68 22 l-65 0 -3 -282 -2 -283 75 0 75 0 0 158 c0 173 12 239 51 273 24
21 79 25 109 9 15 -8 20 -4 33 28 8 20 18 51 21 68 7 31 6 31 -41 41 -28 5
-63 6 -83 1z"/>
<path d="M6882 14378 c-100 -15 -169 -66 -210 -157 -76 -164 -5 -360 148 -415
81 -29 185 -26 256 9 64 31 127 104 146 168 15 52 15 149 0 203 -40 138 -180
217 -340 192z m137 -145 c47 -36 64 -83 59 -165 -3 -56 -8 -73 -34 -104 -17
-21 -48 -44 -70 -52 -36 -13 -43 -13 -86 8 -78 36 -114 136 -83 229 37 112
129 147 214 84z"/>
<path d="M7517 14379 c-74 -17 -125 -58 -158 -128 -19 -39 -23 -64 -23 -156
-1 -93 2 -117 21 -155 46 -95 113 -140 210 -140 52 0 123 26 138 50 3 5 13 10
21 10 11 0 14 -15 14 -62 -1 -92 -36 -128 -125 -128 -41 0 -52 5 -79 34 -29
32 -36 34 -106 37 l-75 4 1 -38 c2 -49 28 -85 85 -117 40 -23 55 -25 169 -25
142 0 181 12 227 70 48 61 53 95 53 428 l0 307 -64 0 c-60 0 -64 -2 -70 -25
-8 -31 -19 -31 -59 -1 -18 14 -53 30 -77 35 -52 12 -52 12 -103 0z m160 -129
c42 -25 63 -77 63 -156 0 -73 -13 -108 -54 -146 -22 -21 -40 -28 -68 -28 -100
0 -147 76 -132 213 6 50 13 65 44 98 31 32 44 39 76 39 21 0 54 -9 71 -20z"/>
<path d="M8275 14376 c-16 -7 -39 -23 -49 -35 -15 -16 -22 -18 -33 -10 -7 6
-13 18 -13 25 0 11 -17 14 -70 14 l-70 0 0 -284 0 -284 71 -4 c39 -2 73 -1 75
1 2 2 4 65 4 140 0 165 14 243 53 284 26 28 31 29 82 23 l55 -6 7 30 c3 17 10
33 14 36 5 3 9 18 9 33 0 25 -5 30 -44 40 -54 13 -54 13 -91 -3z"/>
<path d="M8647 14379 c-78 -18 -134 -66 -172 -144 -30 -63 -33 -214 -6 -286
43 -112 121 -162 257 -161 112 0 187 40 230 124 20 38 13 43 -64 53 -54 7 -56
6 -87 -29 -28 -32 -37 -36 -82 -36 -41 0 -54 5 -75 28 -30 31 -51 79 -44 98 4
10 49 14 188 16 l183 3 3 54 c2 31 -4 76 -14 107 -18 57 -85 144 -110 144 -8
0 -14 4 -14 9 0 4 -31 13 -69 20 -78 12 -72 12 -124 0z m150 -144 c28 -28 34
-41 31 -67 l-3 -33 -101 -3 c-119 -3 -134 5 -111 60 21 49 61 78 109 78 32 0
47 -7 75 -35z"/>
<path d="M9245 14378 c-101 -16 -155 -76 -155 -173 0 -88 39 -126 165 -163 39
-11 96 -27 127 -36 47 -14 59 -22 64 -42 10 -39 -21 -64 -88 -71 -43 -4 -62
-2 -87 13 -17 10 -31 21 -31 24 0 4 -9 15 -19 27 -17 18 -25 19 -83 11 -34 -6
-65 -12 -67 -14 -8 -8 24 -69 51 -96 48 -49 111 -71 208 -71 104 -1 159 14
207 56 83 73 86 198 5 256 -16 11 -73 32 -128 46 -54 15 -107 31 -116 36 -10
5 -24 9 -31 9 -8 0 -21 8 -31 19 -58 64 118 100 183 37 17 -16 38 -26 57 -26
28 0 104 18 104 24 0 2 -7 17 -16 34 -26 52 -77 87 -148 100 -71 13 -87 13
-171 0z"/>
<path d="M9867 14377 c-76 -15 -132 -61 -148 -119 -19 -71 2 -139 54 -173 28
-18 142 -58 217 -75 68 -15 80 -25 80 -60 0 -39 -54 -64 -124 -57 -43 4 -55
10 -86 44 l-35 39 -62 -9 c-72 -10 -78 -22 -40 -78 48 -71 124 -102 252 -102
61 0 93 6 134 23 127 55 159 209 60 282 -40 29 -69 41 -169 67 -112 29 -139
41 -146 63 -9 30 18 50 75 56 58 5 106 -11 122 -41 10 -17 18 -19 71 -14 33 3
64 9 70 15 25 25 -50 116 -110 131 -65 16 -155 19 -215 8z"/>
<path d="M11650 14378 c-40 -9 -90 -38 -128 -75 -7 -6 -24 -36 -37 -65 -21
-46 -25 -67 -25 -158 0 -148 36 -220 135 -269 60 -30 186 -33 253 -6 49 20
122 97 122 130 0 21 -6 23 -66 30 l-66 7 -30 -36 c-26 -32 -35 -36 -74 -36
-71 0 -124 49 -124 115 l0 25 185 0 c163 0 186 2 192 16 10 27 -15 158 -39
204 -30 56 -94 102 -166 117 -66 14 -72 14 -132 1z m134 -123 c13 -9 31 -33
41 -55 28 -61 14 -70 -107 -70 -78 0 -100 3 -104 15 -10 26 6 67 38 97 35 32
93 38 132 13z"/>
<path d="M12256 14379 c-96 -14 -153 -68 -162 -155 -9 -85 37 -143 137 -173
24 -7 53 -17 64 -21 11 -4 46 -14 78 -21 91 -20 110 -71 40 -104 -25 -12 -51
-16 -87 -12 -44 4 -55 10 -83 44 l-33 40 -67 -10 c-38 -5 -69 -11 -71 -12 -9
-8 42 -87 71 -109 59 -45 105 -58 202 -59 158 -1 248 57 255 163 9 123 -25
157 -210 206 -116 31 -147 43 -154 60 -15 38 25 64 97 64 41 0 84 -20 100 -47
14 -23 134 -12 144 12 7 19 -35 78 -74 103 -27 19 -142 44 -178 41 -5 -1 -36
-5 -69 -10z"/>
<path d="M13356 14380 c-16 -5 -42 -21 -57 -36 l-28 -27 -10 26 c-10 25 -14
27 -76 27 l-65 0 0 -284 0 -284 66 -4 c36 -1 68 -1 70 1 2 2 4 47 4 100 0 125
17 265 35 302 21 39 47 51 106 47 l50 -3 15 40 c24 69 20 81 -30 94 -25 6 -46
11 -48 10 -2 0 -16 -5 -32 -9z"/>
<path d="M14050 14378 c-48 -9 -97 -35 -136 -73 -7 -6 -24 -35 -39 -64 -23
-47 -27 -66 -27 -152 -1 -59 4 -111 12 -131 48 -119 131 -172 264 -172 123 1
183 34 235 127 32 57 28 71 -24 85 -75 20 -93 16 -109 -22 -15 -36 -64 -76
-93 -76 -33 1 -87 35 -110 69 -20 29 -23 47 -23 127 l0 94 40 40 c32 32 47 40
76 40 45 0 85 -23 107 -62 11 -19 23 -28 32 -24 8 3 37 8 65 12 57 7 60 15 31
72 -19 38 -49 67 -88 89 -18 11 -138 35 -153 32 -3 -1 -30 -6 -60 -11z"/>
<path d="M15397 14380 c-145 -25 -237 -139 -237 -293 1 -189 116 -303 305
-301 87 1 147 26 204 84 115 119 106 355 -18 448 -64 48 -79 53 -181 67 -14 1
-47 -1 -73 -5z m109 -129 c62 -28 89 -79 89 -166 -1 -89 -23 -130 -87 -165
-45 -24 -48 -24 -90 -9 -99 35 -141 176 -83 276 25 41 81 82 115 82 8 0 33 -8
56 -18z"/>
<path d="M16158 14379 c-21 -5 -56 -20 -79 -35 -45 -28 -69 -26 -69 6 0 18 -6
20 -65 20 l-65 0 0 -285 0 -285 75 0 75 0 0 185 c0 201 5 224 56 264 38 30
103 29 132 -2 35 -38 42 -80 42 -269 l0 -178 69 0 69 0 6 31 c9 48 7 262 -4
369 -10 89 -12 97 -46 131 -27 28 -49 39 -92 48 -30 6 -58 11 -61 10 -3 -1
-23 -5 -43 -10z"/>
<path d="M4170 14085 l0 -285 75 0 75 0 0 285 0 285 -75 0 -75 0 0 -285z"/>
<path d="M13560 14085 l0 -285 75 0 75 0 0 285 0 285 -75 0 -75 0 0 -285z"/>
<path d="M14882 14084 l3 -286 63 0 c34 1 67 1 72 1 6 1 10 103 10 286 l0 285
-75 0 -75 0 2 -286z"/>
<path d="M8300 12772 l-1185 -2 1 -1113 0 -1112 1190 0 1189 0 3 1109 c1 611
-1 1112 -5 1115 -5 4 -541 5 -1193 3z"/>
<path d="M8295 10472 l-1180 -2 2 -1108 c1 -609 2 -1110 2 -1114 1 -11 31 -10
31 0 0 4 -5 13 -10 18 -7 7 -9 380 -8 1100 l3 1089 1170 0 1170 0 0 -1113 c0
-611 3 -1112 8 -1112 4 0 7 3 7 8 5 292 -1 2236 -6 2237 -5 0 -540 -1 -1189
-3z"/>
<path d="M7125 8174 c-14 -6 -13 -2210 1 -2224 7 -7 410 -9 1190 -8 l1179 3 0
1115 0 1115 -1180 2 c-649 1 -1184 0 -1190 -3z m2345 -1114 l0 -1090 -1149 0
c-632 0 -1155 2 -1163 5 -11 4 -13 189 -11 1058 1 578 2 1067 2 1085 l1 32
1160 0 1160 0 0 -1090z"/>
<path d="M7122 5863 c-9 -20 -10 -2209 -1 -2218 3 -3 539 -5 1190 -5 l1184 0
3 1097 c1 604 0 1108 -3 1121 l-5 22 -1180 0 c-1113 0 -1180 -1 -1188 -17z
m2340 -720 c2 -378 1 -762 -2 -853 l-5 -165 -5 125 c-6 116 -6 111 -8 -73 -1
-136 2 -205 10 -220 6 -12 13 -79 16 -149 l5 -128 -1157 0 -1157 0 1 1075 1
1075 1148 0 1149 0 4 -687z"/>
<path d="M22417 3583 c-4 -3 -7 -780 -7 -1725 l0 -1718 913 -1 c501 -1 1380
-3 1952 -5 572 -3 1545 -2 2163 2 l1122 6 -2 1722 -3 1721 -3066 2 c-1686 2
-3069 0 -3072 -4z m3553 -843 c0 -5 -4 -10 -10 -10 -5 0 -10 5 -10 10 0 6 5
10 10 10 6 0 10 -4 10 -10z m176 -67 c13 -14 23 -28 21 -30 -8 -7 -87 33 -87
45 0 22 40 13 66 -15z m-432 8 c10 -16 -5 -40 -39 -61 -39 -24 -51 -25 -59 -4
-12 31 81 93 98 65z m349 -8 c-7 -2 -19 -2 -25 0 -7 3 -2 5 12 5 14 0 19 -2
13 -5z m-293 -31 c0 -5 -9 -19 -20 -32 -11 -13 -18 -25 -16 -28 11 -10 73 -8
91 5 11 7 27 13 36 13 9 0 19 7 23 15 3 8 12 15 21 15 12 0 15 -12 15 -57 -1
-44 -3 -54 -11 -40 -14 24 -22 22 -102 -26 -64 -39 -140 -67 -179 -67 -11 0
-43 51 -35 55 1 1 21 10 45 20 48 21 72 48 72 82 0 12 7 29 16 37 16 17 44 22
44 8z m228 -2 c6 0 12 -4 12 -10 0 -5 -16 -10 -35 -10 -26 0 -35 4 -35 16 0
12 6 15 23 10 12 -3 28 -6 35 -6z m-43 -166 c14 -15 25 -35 25 -45 0 -28 102
-89 149 -89 27 0 46 -7 66 -26 26 -24 27 -28 12 -39 -20 -14 -12 -25 19 -25
13 0 31 -8 41 -19 10 -10 47 -32 83 -49 l65 -30 -116 -4 c-98 -2 -120 -6 -138
-22 -30 -27 -26 -44 12 -55 17 -5 27 -10 20 -10 -13 -1 -54 -67 -46 -75 4 -3
15 -6 25 -6 10 0 18 -5 18 -11 0 -16 77 -5 98 14 11 10 28 13 45 10 23 -4 27
-2 27 16 0 24 -50 51 -92 51 -20 0 -21 1 -6 16 22 22 104 22 145 1 19 -10 43
-36 55 -60 20 -37 23 -56 23 -167 0 -129 -13 -191 -66 -307 -25 -55 -24 -70 4
-78 53 -16 77 -32 93 -61 16 -29 16 -34 -4 -92 -40 -118 -120 -201 -253 -260
-94 -43 -173 -59 -259 -55 -127 6 -182 33 -291 142 -66 66 -90 97 -102 135
-22 65 -22 187 -1 228 15 29 15 33 -9 82 -34 69 -48 140 -54 270 -6 127 5 178
53 253 32 48 86 103 103 103 16 0 62 77 56 93 -4 10 1 17 14 22 24 7 61 56 61
79 0 30 33 85 54 89 41 8 47 7 71 -19z m-447 -272 c2 -7 -3 -12 -12 -12 -9 0
-16 7 -16 16 0 17 22 14 28 -4z m-6 -68 c-4 -46 -11 -59 -24 -46 -14 14 -1 85
15 79 7 -2 11 -17 9 -33z m-52 -79 c0 -16 -6 -25 -15 -25 -18 0 -20 21 -3 38
17 17 18 16 18 -13z m21 -262 c-9 -17 -10 -17 -16 0 -4 9 -4 25 0 35 6 16 7
16 16 0 7 -12 7 -24 0 -35z"/>
<path d="M26107 2314 c-9 -9 -9 -48 -1 -57 13 -13 45 14 42 36 -3 22 -28 34
-41 21z"/>
<path d="M25710 2149 c-32 -13 -61 -39 -55 -49 3 -5 21 -3 41 3 26 8 54 8 105
-1 133 -23 183 -12 140 31 -17 18 -35 22 -113 24 -51 2 -104 -2 -118 -8z"/>
<path d="M25740 2057 c-43 -15 -46 -41 -5 -45 16 -2 40 -12 53 -22 13 -11 39
-24 57 -30 30 -10 38 -8 65 11 42 32 39 54 -12 79 -47 22 -105 25 -158 7z"/>
<path d="M25828 1533 c-33 -9 -18 -20 35 -27 80 -9 97 -8 97 9 0 10 -10 15
-29 15 -16 0 -41 2 -57 4 -16 2 -37 2 -46 -1z"/>
<path d="M26033 1518 c-63 -14 -52 -28 20 -28 71 0 85 7 59 26 -19 15 -22 15
-79 2z"/>
<path d="M7235 2981 c-62 -15 -95 -52 -95 -106 0 -62 34 -91 143 -119 84 -22
97 -31 97 -71 0 -28 -6 -37 -30 -50 -58 -30 -137 -9 -165 44 -16 32 -22 35
-49 25 -34 -13 8 -90 66 -120 37 -19 132 -18 174 2 41 19 64 59 64 107 0 63
-44 96 -168 127 -104 26 -100 109 5 110 55 0 71 -7 89 -41 16 -31 51 -39 60
-15 9 23 -18 68 -51 87 -36 20 -99 29 -140 20z"/>
<path d="M7885 2983 c-28 -7 -55 -43 -55 -75 0 -17 -8 -31 -20 -38 -26 -14
-26 -37 0 -45 18 -6 20 -17 22 -128 3 -114 4 -122 23 -122 19 0 20 8 23 115 3
125 9 140 62 140 44 0 50 -16 50 -125 0 -115 10 -135 68 -135 40 0 44 30 7 54
-24 15 -25 22 -25 104 0 82 1 88 25 98 35 17 46 -1 84 -130 30 -104 41 -125
67 -126 20 0 31 23 49 95 27 112 32 110 70 -20 16 -55 24 -71 41 -73 30 -4 38
10 79 146 34 112 39 152 18 152 -19 -1 -30 -20 -57 -104 -15 -48 -31 -84 -36
-80 -4 5 -15 41 -25 79 -23 89 -31 105 -54 105 -27 0 -35 -16 -56 -102 -11
-45 -24 -78 -31 -78 -11 0 -29 47 -49 132 -9 35 -30 52 -56 45 -12 -3 -32 -2
-45 3 -19 8 -24 17 -24 44 0 19 -4 37 -9 40 -19 12 -41 -7 -41 -34 0 -41 -25
-63 -64 -54 -56 12 -56 45 0 69 34 14 47 45 20 45 -8 0 -20 2 -28 4 -7 2 -22
2 -33 -1z"/>
<path d="M8650 2873 c-50 -7 -66 -13 -88 -33 -31 -29 -29 -60 3 -60 14 0 25 4
25 10 0 21 50 42 84 36 66 -13 56 -76 -13 -76 -38 0 -114 -30 -126 -50 -4 -6
-7 -27 -8 -47 -1 -51 38 -83 103 -83 27 0 52 5 55 10 8 14 41 13 65 -2 12 -8
23 -9 28 -3 5 6 6 65 3 132 -5 93 -10 126 -22 139 -18 18 -72 31 -109 27z m73
-169 c13 -13 -16 -63 -48 -80 -28 -15 -38 -16 -60 -6 -33 15 -42 39 -22 59 22
22 115 42 130 27z"/>
<path d="M7546 2849 c-37 -29 -56 -71 -56 -124 0 -98 52 -155 144 -155 43 0
53 4 87 39 37 37 39 41 39 104 0 108 -43 157 -138 157 -35 0 -57 -6 -76 -21z
m109 -29 c54 -20 69 -128 26 -182 -26 -31 -78 -29 -107 5 -57 66 -28 179 48
186 4 1 18 -3 33 -9z"/>
<path d="M8860 2862 c-6 -2 -10 -59 -10 -142 0 -118 2 -139 16 -144 34 -13 44
12 44 108 0 106 12 133 63 138 24 2 32 8 32 23 0 18 -7 20 -67 20 -38 0 -72
-1 -78 -3z"/>
<path d="M9068 2830 c-36 -39 -38 -44 -38 -109 0 -62 3 -71 33 -106 31 -35 38
-39 95 -43 60 -4 63 -3 97 31 38 38 43 52 20 61 -18 6 -45 -2 -45 -15 0 -18
-57 -38 -86 -30 -33 8 -61 49 -51 74 5 14 22 17 102 17 l95 0 0 35 c0 78 -51
125 -136 125 -42 0 -51 -4 -86 -40z m149 -21 c7 -6 13 -22 13 -35 0 -23 -3
-24 -65 -24 -79 0 -95 18 -50 57 29 26 72 26 102 2z"/>
<path d="M6888 2307 c-91 -41 -132 -161 -96 -280 32 -107 154 -151 269 -97 30
14 73 84 65 105 -9 26 -44 17 -61 -14 -21 -42 -53 -61 -103 -61 -82 0 -122 51
-122 155 0 97 49 155 131 155 40 0 84 -28 94 -61 5 -14 14 -19 28 -17 49 7 20
80 -45 112 -36 19 -121 20 -160 3z"/>
<path d="M8137 2313 c-4 -3 -7 -93 -7 -199 0 -145 3 -193 13 -196 6 -2 50 -4
95 -3 79 0 85 2 108 28 60 69 52 199 -15 244 -35 24 -105 31 -116 13 -15 -24
-25 -6 -25 43 0 51 -12 77 -35 77 -7 0 -15 -3 -18 -7z m164 -172 c24 -24 29
-38 29 -76 0 -90 -54 -138 -109 -97 -53 39 -48 156 7 186 37 21 39 20 73 -13z"/>
<path d="M8457 2313 c-4 -3 -7 -17 -7 -30 0 -18 5 -23 25 -23 21 0 25 5 25 30
0 22 -5 30 -18 30 -10 0 -22 -3 -25 -7z"/>
<path d="M8575 2298 c-3 -13 -4 -104 -3 -203 3 -172 4 -180 23 -180 19 0 20 7
20 200 0 181 -2 200 -17 203 -11 2 -19 -5 -23 -20z"/>
<path d="M8707 2314 c-4 -4 -7 -18 -7 -31 0 -18 5 -23 26 -23 22 0 25 4 22 27
-3 27 -26 41 -41 27z"/>
<path d="M8986 2305 c-12 -32 -6 -45 20 -45 22 0 25 4 22 27 -3 31 -32 43 -42
18z"/>
<path d="M8841 2281 c-6 -11 -11 -28 -11 -39 0 -11 -7 -25 -15 -32 -8 -7 -15
-19 -15 -27 0 -7 7 -16 15 -19 12 -5 15 -27 15 -110 0 -91 3 -107 20 -124 20
-20 74 -27 84 -11 9 15 -4 39 -24 44 -15 4 -18 18 -22 83 -5 95 -2 111 23 117
25 7 24 37 -1 44 -11 3 -20 13 -21 22 -1 9 -2 27 -2 41 -2 31 -32 38 -46 11z"/>
<path d="M7233 2190 c-18 -11 -33 -24 -33 -29 0 -5 -3 -16 -6 -25 -10 -26 34
-20 68 9 37 31 59 32 95 1 25 -22 26 -26 13 -39 -8 -8 -44 -20 -79 -26 -80
-13 -111 -39 -111 -91 0 -65 60 -96 144 -75 35 9 56 10 77 2 15 -6 30 -9 32
-7 3 3 2 63 -2 133 -6 119 -8 130 -30 148 -33 27 -124 26 -168 -1z m145 -163
c2 -9 -10 -31 -27 -48 -24 -23 -38 -30 -62 -27 -38 4 -59 30 -43 55 11 18 77
42 109 40 11 -1 21 -10 23 -20z"/>
<path d="M7515 2198 c-3 -7 -4 -99 -3 -203 3 -182 4 -190 23 -190 17 0 20 8
23 57 l3 56 54 -5 c41 -4 61 -2 80 11 88 57 88 214 1 272 -19 12 -37 14 -68
10 -65 -9 -72 -9 -90 -1 -12 4 -20 2 -23 -7z m152 -43 c31 -22 47 -85 33 -135
-19 -69 -73 -90 -115 -44 -20 22 -25 37 -25 81 0 47 4 59 29 84 33 33 47 35
78 14z"/>
<path d="M7863 2190 c-33 -20 -57 -53 -46 -64 13 -13 49 -5 60 13 28 44 123
30 123 -19 0 -20 -6 -23 -90 -40 -30 -6 -63 -17 -72 -24 -42 -31 -43 -106 -2
-133 19 -12 39 -14 87 -9 71 7 83 8 117 4 15 -2 25 2 24 10 -1 6 -2 60 -2 118
-2 102 -3 106 -31 135 -25 25 -37 29 -83 29 -35 0 -64 -7 -85 -20z m137 -165
c0 -57 -86 -98 -124 -59 -29 29 -12 55 46 71 68 18 78 16 78 -12z"/>
<path d="M8455 2198 c-3 -8 -4 -75 -3 -149 3 -126 4 -134 23 -134 19 0 20 7
20 145 0 130 -2 145 -18 148 -9 2 -19 -3 -22 -10z"/>
<path d="M8705 2198 c-3 -8 -4 -75 -3 -149 3 -126 4 -134 23 -134 19 0 20 7
20 145 0 130 -2 145 -18 148 -9 2 -19 -3 -22 -10z"/>
<path d="M8992 2202 c-9 -7 -12 -43 -10 -148 3 -131 4 -139 23 -139 19 0 20 7
20 144 0 142 -4 161 -33 143z"/>
<path d="M9158 2194 c-62 -33 -89 -155 -48 -221 28 -46 61 -64 119 -65 58 0
96 19 113 58 18 39 -4 54 -39 26 -51 -40 -69 -46 -103 -32 -36 15 -57 55 -39
76 6 8 16 11 21 8 5 -4 48 -3 94 1 81 7 84 8 84 31 0 42 -27 93 -62 114 -39
24 -101 26 -140 4z m101 -39 c30 -15 45 -40 35 -56 -8 -13 -131 -11 -140 3 -7
12 48 68 67 68 5 0 23 -7 38 -15z"/>
<path d="M9436 2184 c-31 -32 -35 -83 -8 -106 27 -25 79 -48 105 -48 13 0 32
-9 41 -19 17 -18 17 -20 -3 -40 -30 -30 -65 -26 -106 10 -39 34 -59 30 -53
-11 5 -37 51 -64 106 -63 78 1 122 33 122 89 0 44 -24 67 -91 89 -30 10 -62
25 -72 34 -18 15 -18 16 3 33 30 25 54 23 86 -7 43 -40 79 -27 54 20 -16 31
-51 45 -109 45 -39 0 -53 -5 -75 -26z"/>
<path d="M838 1183 c7 -3 16 -2 19 1 4 3 -2 6 -13 5 -11 0 -14 -3 -6 -6z"/>
<path d="M920 1180 c0 -5 7 -10 15 -10 8 0 15 5 15 10 0 6 -7 10 -15 10 -8 0
-15 -4 -15 -10z"/>
<path d="M1228 1165 c-26 -35 -22 -60 17 -101 19 -19 35 -42 35 -51 0 -12 2
-12 16 1 8 9 26 16 40 16 13 0 24 5 24 11 0 18 -32 79 -41 79 -5 0 -9 6 -9 13
0 15 -41 57 -56 57 -5 0 -17 -11 -26 -25z"/>
<path d="M1614 1160 c-46 -23 -64 -53 -64 -107 0 -47 48 -93 118 -112 76 -21
107 -50 107 -99 0 -49 -24 -78 -75 -93 -36 -11 -76 0 -122 33 -31 22 -34 -3
-3 -28 41 -33 149 -35 183 -4 41 39 56 79 43 121 -13 42 -46 67 -127 93 -66
21 -98 55 -98 103 0 52 39 83 105 83 28 0 60 -7 73 -16 29 -18 43 -3 18 18
-30 27 -111 31 -158 8z"/>
<path d="M2427 1173 c-11 -11 -8 -433 3 -433 6 0 10 80 10 220 0 121 -1 220
-3 220 -2 0 -7 -3 -10 -7z"/>
<path d="M2968 1174 c-12 -11 -9 -416 2 -434 7 -10 10 12 10 71 0 54 6 100 15
122 11 27 12 36 2 40 -8 2 -14 38 -17 106 -3 57 -8 99 -12 95z"/>
<path d="M1870 960 c0 -133 4 -210 10 -210 6 0 10 24 10 53 0 87 13 87 103 -1
44 -42 82 -72 84 -66 2 6 -26 40 -62 74 -36 35 -65 68 -65 75 0 6 25 35 55 65
78 73 60 76 -22 3 -38 -33 -74 -58 -80 -56 -10 4 -13 40 -13 139 0 83 -4 134
-10 134 -6 0 -10 -77 -10 -210z"/>
<path d="M3260 931 c0 -194 3 -202 67 -200 l38 1 -33 8 c-19 4 -38 12 -42 16
-10 10 -16 222 -6 231 3 3 23 7 43 9 54 4 54 6 3 13 -43 6 -45 8 -51 44 -13
81 -19 43 -19 -122z"/>
<path d="M2725 1012 c-86 -11 -144 -121 -102 -195 19 -35 60 -67 85 -67 12 0
22 -4 22 -10 0 -5 12 -10 27 -10 35 0 22 12 -34 30 -63 20 -88 57 -87 123 0
46 4 54 39 84 28 24 48 33 74 33 76 0 140 -74 127 -144 -7 -37 -43 -82 -77
-95 l-24 -10 26 0 c14 -1 30 4 36 10 18 18 43 2 43 -26 0 -35 -23 -86 -49
-110 -33 -29 -125 -28 -169 3 -26 19 -32 20 -32 8 0 -26 54 -46 124 -46 61 0
68 2 100 35 l34 34 4 138 c3 150 -3 230 -17 200 -5 -12 -14 -16 -29 -11 -11 4
-23 10 -26 14 -7 10 -60 17 -95 12z"/>
<path d="M795 1000 c4 -6 11 -8 16 -5 14 9 11 15 -7 15 -8 0 -12 -5 -9 -10z"/>
<path d="M2110 1001 c0 -9 57 -153 92 -230 21 -47 22 -41 -20 -128 -10 -19
-27 -35 -46 -41 l-31 -10 30 -1 c17 0 35 3 41 7 12 7 64 109 64 124 0 5 9 27
19 51 10 23 31 76 46 117 15 41 32 79 36 84 11 13 12 36 1 36 -10 0 -72 -134
-72 -155 0 -17 -33 -75 -43 -75 -7 0 -26 38 -48 98 -5 12 -13 32 -18 45 -5 12
-14 37 -21 55 -11 29 -30 44 -30 23z"/>
<path d="M2520 881 c0 -105 3 -130 15 -135 13 -5 15 14 15 129 0 113 -2 135
-15 135 -13 0 -15 -21 -15 -129z"/>
<path d="M3040 1003 c0 -5 17 -7 38 -5 27 3 45 -2 65 -18 27 -21 27 -23 27
-132 0 -83 3 -109 13 -105 8 3 12 33 12 105 0 87 -3 104 -21 129 -18 24 -29
28 -78 31 -31 2 -56 -1 -56 -5z"/>
<path d="M720 954 c0 -8 5 -12 10 -9 6 3 10 10 10 16 0 5 -4 9 -10 9 -5 0 -10
-7 -10 -16z"/>
<path d="M1386 952 c-5 -9 3 -74 10 -81 2 -2 4 17 4 42 0 46 -4 56 -14 39z"/>
<path d="M1300 930 c0 -5 5 -10 10 -10 6 0 10 5 10 10 0 6 -4 10 -10 10 -5 0
-10 -4 -10 -10z"/>
<path d="M720 885 c0 -8 7 -15 16 -15 14 0 14 3 4 15 -7 8 -14 15 -16 15 -2 0
-4 -7 -4 -15z"/>
<path d="M1290 835 c-10 -12 -10 -15 4 -15 9 0 16 7 16 15 0 8 -2 15 -4 15 -2
0 -9 -7 -16 -15z"/>
<path d="M763 802 c-26 -4 -28 -13 -10 -44 17 -30 22 -37 61 -82 32 -35 36
-37 50 -23 9 9 16 23 16 31 0 9 5 16 10 16 16 0 12 24 -7 42 -10 8 -26 26 -35
38 -17 23 -43 30 -85 22z"/>
</g>
</svg>
