<?xml version="1.0" encoding="utf-8"?>
<!-- Generator: Adobe Illustrator 25.0.0, SVG Export Plug-In . SVG Version: 6.00 Build 0)  -->
<svg version="1.1" xmlns="http://www.w3.org/2000/svg" xmlns:xlink="http://www.w3.org/1999/xlink" x="0px" y="0px"
	 viewBox="0 0 841.89 467.72" style="enable-background:new 0 0 841.89 467.72;" xml:space="preserve">
<style type="text/css">
	.st0{fill:#61A575;}
	.st1{fill:#4890BA;}
	.st2{fill:#FFFFFF;}
	.st3{fill:#F5C65D;}
	.st4{fill:none;stroke:#54575C;stroke-miterlimit:10;}
	.st5{fill:#F4F4F5;}
	.st6{fill:#CF7F56;}
	.st7{fill:#DCEFFA;}
	.st8{fill:none;stroke:#54575C;stroke-width:1.0045;stroke-miterlimit:10;}
	.st9{fill:#54575C;}
	.st10{fill:#F0D5B7;}
	.st11{fill:#E0635D;}
	.st12{fill:none;stroke:#54575C;stroke-linejoin:round;stroke-miterlimit:10;}
	.st13{fill:none;stroke:#54575C;stroke-width:1.0015;stroke-miterlimit:10;}
	.st14{clip-path:url(#SVGID_2_);}
	.st15{fill:none;}
	.st16{fill:#DBEFFA;}
	.st17{clip-path:url(#SVGID_4_);}
	.st18{clip-path:url(#SVGID_6_);}
	.st19{fill:none;stroke:#E0635D;stroke-width:3;stroke-miterlimit:10;}
</style>
<g id="Layer_1">
</g>
<g id="Layer_2">
</g>
<g id="Layer_3">
	<rect class="st0" width="841.89" height="467.72"/>
	<g>
		<g>
			<path class="st2" d="M300.93,241.95l-0.04,0.11c0.22-0.14,0.43-0.28,0.65-0.42C301.17,241.85,300.93,241.95,300.93,241.95z"/>
			<path class="st2" d="M721.95,467.72h26.47l-11.41-30.81c0.24,1.43,0.38,2.91,0.38,4.47
				C737.39,457.05,731.06,464.44,721.95,467.72z"/>
			<path class="st2" d="M665.78,467.72c-4.15-0.68-8.66-1.69-13.39-2.98l-5.33,2.98H665.78z"/>
			<path class="st2" d="M467.38,179.31c-5.46,7.89,2.44,15.78,7.9,19.94l12.16-25.34C485.75,173.15,474.7,168.75,467.38,179.31z"/>
			<path class="st2" d="M402.97,206.67c0,0-11.47-38.82-29.12-32.65c-12.21,4.27-13.01,19.94-12.35,29.19
				c1.64-0.5,3.38-0.84,5.29-0.96C380.91,201.37,400.32,196.08,402.97,206.67z"/>
			<path class="st2" d="M467.93,214.57c-3.66-3.84-9.26-7.98-17.31-9.67c-12.99-2.73-21.74,9.36-25.43,17.82
				c8.06,1.48,22.95,7.46,33.15,11.83L467.93,214.57z"/>
			<path class="st2" d="M126.78,467.72c-3.65-42.82,37.89-101.28,45.01-130.46c4.99-20.47-16.85-56.2-36.77-83.36
				c-6.4,2.67-13.05,5.68-19.96,9.08C86.43,277.07,32.95,283.3,1,301.65v166.07H126.78z"/>
			<path class="st2" d="M647.06,467.72l5.33-2.98c-25.11-6.82-56.04-21.29-67.65-34.84c-1.42-1.66-2.57-3.26-3.49-4.8l9.13,42.62
				H647.06z"/>
			<path class="st2" d="M727.68,444.02c0,6.05-3.25,19.86-18.61,23.69h12.88c9.11-3.28,15.44-10.66,15.44-26.34
				c0-1.56-0.14-3.04-0.38-4.47c-1.64-9.67-8.61-16.39-17.67-21.07c1.69,5.17,3.21,9.88,4.47,13.92
				C726.2,437.41,727.68,442.66,727.68,444.02z"/>
			<path class="st2" d="M584.74,429.9c11.61,13.54,42.54,28.02,67.65,34.84c4.73,1.28,9.24,2.29,13.39,2.98h8.63
				c-6.3-0.79-12.48-2.18-19-4.66c-5.3-2.02-10.83-4.74-16.85-8.44c0,0-16.34-18.03-31.46-35.64c-3.8-4.42-7.52-8.82-10.89-12.89
				c0,0-4.61-1.69-11.86-4.43c-3.68,3.41-10.12,11.7-3.1,23.45C582.17,426.64,583.32,428.24,584.74,429.9z"/>
			<path class="st2" d="M572.51,397.11c4.4,1.7,8.42,3.24,11.84,4.54c7.24,2.74,11.86,4.43,11.86,4.43
				c3.37,4.07,7.09,8.47,10.89,12.89c15.12,17.6,31.46,35.64,31.46,35.64c6.02,3.7,11.55,6.43,16.85,8.44
				c6.53,2.48,12.7,3.88,19,4.66h34.66c15.36-3.83,18.61-17.65,18.61-23.69c0-1.36-1.48-6.62-3.88-14.27
				c-1.26-4.04-2.78-8.75-4.47-13.92c-11.7-35.78-31.62-93.43-32.24-101.52c-0.88-11.47-3.53-23.82-13.24-34.41
				c-6.67-7.27-15.42-30.38-20.24-44.12l-29.93,59.54l-15.81,31.46l-12.49,24.84c-4.53-1.64-7.11-2.89-7.11-2.89
				c-34.31-9.25-56.44-16.04-70.59-13.24c-18.23,3.62-23.05,19.24-22.06,24.71C496.82,366.82,543.15,385.74,572.51,397.11z"/>
			<path class="st2" d="M470.91,421.96c10.59,6.18,20.29-22.06,23.82-29.12c1.17-2.33,4.64-3.6,8.77-4.26l-34.44-16.34
				C465.96,387.77,462.96,417.32,470.91,421.96z"/>
			<path class="st2" d="M423.27,255.2c-4.25,6.37,5.88,15.61,14.62,21.97l11.21-23.35C442.68,251.34,428.64,247.14,423.27,255.2z"/>
			<path class="st2" d="M709.29,80.33L580.92,17.89c-9.09-4.42-20.04-0.6-24.42,8.51l-69.95,145.72l-12.16,25.34l-7.35,15.32
				l-9.59,19.97l-4.53,9.44l-0.15,0.32l-4.56,9.51l-11.21,23.35l-18.04,37.59l-5.42,11.28c-4.37,9.11-0.51,20.03,8.62,24.37
				l46.02,21.84l34.44,16.34l43.07,20.44c8.95,4.25,19.66,0.57,24.11-8.28l1.82-3.63c-29.36-11.37-75.69-30.3-76.89-36.92
				c-0.99-5.47,3.83-21.09,22.06-24.71c14.15-2.81,36.28,3.98,70.59,13.24c0,0,2.58,1.24,7.11,2.89l12.49-24.84l15.81-31.46
				l29.93-59.54l64.89-129.08C722.18,95.83,718.43,84.77,709.29,80.33z"/>
			<path class="st2" d="M470.96,467.72h68.55c-3.38-9.14-11.47-25.49-27.12-29.87c-22.06-6.18-39.71,0.88-50.3-10.59
				c-10.59-11.47-30-30.88-35.29-15.88C422.34,424,460.38,452.25,470.96,467.72z"/>
			<path class="st2" d="M121.14,235.79c4.23,5.28,9,11.44,13.89,18.1c19.91,27.16,41.76,62.89,36.77,83.36
				c-7.12,29.18-48.66,87.64-45.01,130.46h204.8c-8.23-14.19-31.02-48.77-66.26-66.05c-45-22.06-67.06-17.65-67.06-44.12
				c0-22.92-9.92-89.48-25.18-116.67c-2.37-4.22-4.86-7.49-7.46-9.51c-9.07-7.01-63.93-22.27-65.96-18.97
				C97.52,215.87,118.11,232.01,121.14,235.79z"/>
			<path class="st2" d="M278.56,257.84c6.66-5.09,14.36-10.53,22.34-15.78l0.04-0.11c0,0,0.24-0.1,0.61-0.31
				c0.41-0.27,0.81-0.53,1.22-0.8c2.05-1.54,4.83-4.75,2.6-9.96c-3.32-7.74-70.03,2.25-70.03,2.25
				C240.62,231.37,278.56,257.84,278.56,257.84z"/>
			<path class="st2" d="M302.76,240.85c-0.41,0.27-0.81,0.53-1.22,0.8C301.87,241.46,302.29,241.2,302.76,240.85z"/>
			<path class="st2" d="M265.32,401.67c35.24,17.28,58.03,51.86,66.26,66.05h139.38c-10.58-15.47-48.62-43.72-44.16-56.34
				c5.29-15,24.71,4.41,35.29,15.88c10.59,11.47,28.24,4.41,50.3,10.59c15.65,4.38,23.74,20.74,27.12,29.87h50.88l-9.13-42.62
				c-7.02-11.76-0.58-20.04,3.1-23.45c-3.43-1.3-7.44-2.83-11.84-4.54l-1.82,3.63c-4.45,8.85-15.16,12.53-24.11,8.28l-43.07-20.44
				c-4.13,0.66-7.61,1.93-8.77,4.26c-3.53,7.06-13.24,35.29-23.82,29.12c-7.96-4.64-4.95-34.19-1.84-49.72l-46.02-21.84
				c-9.13-4.33-12.99-15.26-8.62-24.37l5.42-11.28c-45.3-9.91-184.52-40.15-184.52-40.15s17.34-3.25,32.07-10.18
				c4.06-1.91,7.93-4.1,11.17-6.58c0,0-37.94-26.47-43.24-24.71c-2.52,0.84-24.82-2.16-62.24,7.74
				c15.26,27.19,25.18,93.75,25.18,116.67C198.26,384.02,220.32,379.61,265.32,401.67z"/>
			<path class="st2" d="M425.19,222.72c-0.36-0.07-0.71-0.13-1.04-0.17c-12.35-1.76-19.41,18.53-19.41,18.53s0.88-23.82-1.76-34.41
				c-2.65-10.59-22.06-5.29-36.18-4.41c-1.91,0.12-3.66,0.45-5.29,0.96c-10.46,3.21-16.39,13.47-30.88,21.1
				c-8.74,4.6-18.44,10.41-27.86,16.53c-0.47,0.35-0.89,0.61-1.22,0.8c-0.22,0.14-0.43,0.28-0.65,0.42
				c-7.97,5.25-15.68,10.69-22.34,15.78c-3.24,2.48-7.11,4.67-11.17,6.58c-14.72,6.93-32.07,10.18-32.07,10.18
				s139.22,30.24,184.52,40.15l18.04-37.59c-8.74-6.35-18.87-15.6-14.62-21.97c5.37-8.06,19.41-3.86,25.83-1.38l4.56-9.51l0.15-0.32
				l4.53-9.44C448.14,230.19,433.25,224.2,425.19,222.72z"/>
			<g>
				<defs>
					<path id="SVGID_1_" d="M706.75,77.62L578.38,15.18c-9.09-4.42-20.04-0.6-24.42,8.51l-69.95,145.72l-12.16,25.34l-7.35,15.32
						l-9.59,19.97l-4.53,9.44l-0.15,0.32l-4.56,9.51l-11.21,23.35l-18.04,37.59l-5.42,11.28c-4.37,9.11-0.51,20.03,8.62,24.37
						l46.02,21.84l34.44,16.34l43.07,20.44c8.95,4.25,19.66,0.57,24.11-8.28l1.82-3.63c-29.36-11.37-75.69-30.3-76.89-36.92
						c-0.99-5.47,3.83-21.09,22.06-24.71c14.15-2.81,36.28,3.98,70.59,13.24c0,0,2.58,1.24,7.11,2.89l12.49-24.84l15.81-31.46
						l29.93-59.54l64.89-129.08C719.63,93.12,715.89,82.06,706.75,77.62z"/>
				</defs>
				<use xlink:href="#SVGID_1_"  style="overflow:visible;fill:#FFFFFF;"/>
				<clipPath id="SVGID_2_">
					<use xlink:href="#SVGID_1_"  style="overflow:visible;"/>
				</clipPath>
				<g class="st14">
					<path class="st2" d="M557.45,86.73l-43.93-20.75c-4.65-2.2-6.64-7.75-4.44-12.4l28.95-61.27c2.2-4.65,7.75-6.64,12.4-4.44
						l43.93,20.75c4.65,2.2,6.64,7.75,4.44,12.4l-28.95,61.27C567.66,86.94,562.1,88.93,557.45,86.73z"/>
					<path class="st2" d="M512.25,182.43l-43.93-20.75c-4.65-2.2-6.64-7.75-4.44-12.4L492.82,88c2.2-4.65,7.75-6.64,12.4-4.44
						l43.93,20.75c4.65,2.2,6.64,7.75,4.44,12.4l-28.95,61.27C522.45,182.63,516.9,184.62,512.25,182.43z"/>
					<path class="st2" d="M477.99,387.21l-95.29-45.01c-4.65-2.2-6.64-7.75-4.44-12.4l28.95-61.27c2.2-4.65,7.75-6.64,12.4-4.44
						l95.29,45.01c4.65,2.2,6.64,7.75,4.44,12.4l-28.95,61.27C488.2,387.41,482.65,389.4,477.99,387.21z"/>
					<path class="st2" d="M433.46,257.48l-8.5-4.02c-4.65-2.2-6.64-7.75-4.44-12.4l28.95-61.27c2.2-4.65,7.75-6.64,12.4-4.44
						l8.5,4.02c4.65,2.2,6.64,7.75,4.44,12.4l-28.95,61.27C443.67,257.69,438.11,259.68,433.46,257.48z"/>
					<path class="st2" d="M468.69,274.12l-8.5-4.02c-4.65-2.2-6.64-7.75-4.44-12.4l28.95-61.27c2.2-4.65,7.75-6.64,12.4-4.44
						l8.5,4.02c4.65,2.2,6.64,7.75,4.44,12.4l-28.95,61.27C478.9,274.33,473.35,276.32,468.69,274.12z"/>
					<path class="st2" d="M638.22,120.13l-36.97-37.71c-2.69-2.75-3.3-7.17-1.49-10.99l19.09-40.41c2.31-4.89,7.76-7.17,12.18-5.09
						l44.79,21.16c4.41,2.09,6.12,7.74,3.81,12.64l-26.91,56.96C649.85,122.74,642.49,124.49,638.22,120.13z"/>
					<path class="st2" d="M562.43,207.33l-13.54-6.4c-4.65-2.2-6.64-7.75-4.44-12.4l28.95-61.27c2.2-4.65,7.75-6.64,12.4-4.44
						l13.54,6.4c4.65,2.2,6.64,7.75,4.44,12.4l-28.95,61.27C572.63,207.53,567.08,209.52,562.43,207.33z"/>
					<path class="st2" d="M597.87,224.07l-6.71-3.17c-4.65-2.2-6.64-7.75-4.44-12.4l14.68-31.07c2.2-4.65,7.75-6.64,12.4-4.44
						l6.71,3.17c4.65,2.2,6.64,7.75,4.44,12.4l-14.68,31.07C608.07,224.28,602.52,226.27,597.87,224.07z"/>
					<path class="st2" d="M542.2,252.13l-12.55-5.93c-4.65-2.2-6.64-7.75-4.44-12.4l6.17-13.05c2.2-4.65,7.75-6.64,12.4-4.44
						l12.55,5.93c4.65,2.2,6.64,7.75,4.44,12.4l-6.17,13.05C552.41,252.34,546.85,254.33,542.2,252.13z"/>
					<path class="st2" d="M580.96,270.44l-12.55-5.93c-4.65-2.2-6.64-7.75-4.44-12.4l6.17-13.05c2.2-4.65,7.75-6.64,12.4-4.44
						l12.55,5.93c4.65,2.2,6.64,7.75,4.44,12.4l-6.17,13.05C591.16,270.64,585.61,272.63,580.96,270.44z"/>
					<path class="st2" d="M540.83,355.39l-12.55-5.93c-4.65-2.2-6.64-7.75-4.44-12.4l6.17-13.05c2.2-4.65,7.75-6.64,12.4-4.44
						l12.55,5.93c4.65,2.2,6.64,7.75,4.44,12.4l-6.17,13.05C551.03,355.6,545.48,357.59,540.83,355.39z"/>
					<path class="st2" d="M518.68,402.26l-12.55-5.93c-4.65-2.2-6.64-7.75-4.44-12.4l6.17-13.05c2.2-4.65,7.75-6.64,12.4-4.44
						l12.55,5.93c4.65,2.2,6.64,7.75,4.44,12.4l-6.17,13.05C528.89,402.47,523.34,404.46,518.68,402.26z"/>
					<path class="st2" d="M521.91,295.09l-12.55-5.93c-4.65-2.2-6.64-7.75-4.44-12.4l6.17-13.05c2.2-4.65,7.75-6.64,12.4-4.44
						l12.55,5.93c4.65,2.2,6.64,7.75,4.44,12.4l-6.17,13.05C532.11,295.3,526.56,297.29,521.91,295.09z"/>
					<path class="st2" d="M629.1,345.73l-81.87-38.67c-4.65-2.2-6.64-7.75-4.44-12.4l6.17-13.05c2.2-4.65,7.75-6.64,12.4-4.44
						l81.87,38.67c4.65,2.2,6.64,7.75,4.44,12.4l-6.17,13.05C639.3,345.94,633.75,347.93,629.1,345.73z"/>
					<path class="st2" d="M625.38,162.42l-6.71-3.17c-4.65-2.2-6.64-7.75-4.44-12.4l0.41-0.88c2.2-4.65,7.75-6.64,12.4-4.44
						l6.71,3.17c4.65,2.2,6.64,7.75,4.44,12.4l-0.41,0.88C635.58,162.62,630.03,164.61,625.38,162.42z"/>
					<path class="st2" d="M718.63,162.87l-43.93-20.75c-4.65-2.2-6.64-7.75-4.44-12.4l28.95-61.27c2.2-4.65,7.75-6.64,12.4-4.44
						l43.93,20.75c4.65,2.2,6.64,7.75,4.44,12.4l-28.95,61.27C728.83,163.08,723.28,165.07,718.63,162.87z"/>
					<path class="st2" d="M673.89,257.59l-43.93-20.75c-4.65-2.2-6.64-7.75-4.44-12.4l28.95-61.27c2.2-4.65,7.75-6.64,12.4-4.44
						l43.93,20.75c4.65,2.2,6.64,7.75,4.44,12.4l-28.95,61.27C684.09,257.8,678.54,259.79,673.89,257.59z"/>
					<path class="st2" d="M587.63,440.19l-43.93-20.75c-4.65-2.2-6.64-7.75-4.44-12.4l28.95-61.27c2.2-4.65,7.75-6.64,12.4-4.44
						l43.93,20.75c4.65,2.2,6.64,7.75,4.44,12.4l-28.95,61.27C597.83,440.4,592.28,442.39,587.63,440.19z"/>
					<path class="st2" d="M651.74,304.46l-43.93-20.75c-4.65-2.2-6.64-7.75-4.44-12.4l7.34-15.54c2.2-4.65,7.75-6.64,12.4-4.44
						l43.93,20.75c4.65,2.2,6.64,7.75,4.44,12.4l-7.34,15.54C661.95,304.67,656.4,306.66,651.74,304.46z"/>
				</g>
			</g>
		</g>
		<g>
			<path class="st15" d="M299.93,243.75l-0.04,0.11c0.22-0.14,0.43-0.28,0.65-0.42C300.17,243.65,299.93,243.75,299.93,243.75z"/>
			<path class="st11" d="M656.04,467.72c-1.53-0.37-3.07-0.75-4.65-1.18l-2.11,1.18H656.04z"/>
			<path class="st11" d="M724.9,467.72h21.85l-10.75-29.01c0.24,1.43,0.38,2.91,0.38,4.47C736.39,456.46,731.84,463.79,724.9,467.72
				z"/>
			<path class="st10" d="M466.38,181.11c-5.46,7.89,2.44,15.78,7.9,19.94l12.16-25.34C484.75,174.94,473.7,170.54,466.38,181.11z"/>
			<path class="st9" d="M401.97,208.46c0,0-11.47-38.82-29.12-32.65c-12.21,4.27-13.01,19.94-12.35,29.19
				c1.64-0.5,3.38-0.84,5.29-0.96C379.91,203.17,399.32,197.87,401.97,208.46z"/>
			<path class="st9" d="M466.93,216.37c-3.66-3.84-9.26-7.98-17.31-9.67c-12.99-2.73-21.74,9.36-25.43,17.82
				c8.06,1.48,22.95,7.46,33.15,11.83L466.93,216.37z"/>
			<path class="st11" d="M125.66,467.72c-2.37-42.65,38.12-99.89,45.14-128.66c4.99-20.47-16.85-56.2-36.77-83.36
				c-6.4,2.67-13.05,5.68-19.96,9.08C85.43,278.87,31.95,285.09,0,303.45v164.27H125.66z"/>
			<path class="st11" d="M649.28,467.72l2.11-1.18c-25.11-6.82-56.04-21.29-67.65-34.84c-1.42-1.66-2.57-3.26-3.49-4.8l8.75,40.82
				H649.28z"/>
			<path class="st11" d="M726.68,445.82c0,5.32-2.5,16.63-13.53,21.9h11.75c6.93-3.92,11.49-11.25,11.49-24.55
				c0-1.56-0.14-3.04-0.38-4.47c-1.64-9.67-8.61-16.39-17.67-21.07c1.69,5.17,3.21,9.88,4.47,13.92
				C725.2,439.2,726.68,444.46,726.68,445.82z"/>
			<path class="st11" d="M583.74,431.7c11.61,13.54,42.54,28.02,67.65,34.84c1.58,0.43,3.12,0.81,4.65,1.18h7.6
				c-3.03-0.74-6.08-1.67-9.22-2.87c-5.3-2.02-10.83-4.74-16.85-8.44c0,0-16.34-18.03-31.46-35.64c-3.8-4.42-7.52-8.82-10.89-12.89
				c0,0-4.61-1.69-11.86-4.43c-3.68,3.41-10.12,11.7-3.1,23.45C581.17,428.44,582.32,430.04,583.74,431.7z"/>
			<path class="st10" d="M571.51,398.91c4.4,1.7,8.42,3.24,11.84,4.54c7.24,2.74,11.86,4.43,11.86,4.43
				c3.37,4.07,7.09,8.47,10.89,12.89c15.12,17.6,31.46,35.64,31.46,35.64c6.02,3.7,11.55,6.43,16.85,8.44
				c3.14,1.19,6.19,2.12,9.22,2.87h49.52c11.03-5.27,13.53-16.58,13.53-21.9c0-1.36-1.48-6.62-3.88-14.27
				c-1.26-4.04-2.78-8.75-4.47-13.92c-11.7-35.78-31.62-93.43-32.24-101.52c-0.88-11.47-3.53-23.82-13.24-34.41
				c-6.67-7.27-15.42-30.38-20.24-44.12l-29.93,59.54l-15.81,31.46l-12.49,24.84c-4.53-1.64-7.11-2.89-7.11-2.89
				c-34.31-9.25-56.44-16.04-70.59-13.24c-18.23,3.62-23.05,19.24-22.06,24.71C495.82,368.61,542.15,387.54,571.51,398.91z"/>
			<path class="st10" d="M469.91,423.76c10.59,6.18,20.29-22.06,23.82-29.12c1.17-2.33,4.64-3.6,8.77-4.26l-34.44-16.34
				C464.96,389.57,461.96,419.12,469.91,423.76z"/>
			<path class="st10" d="M422.27,256.99c-4.25,6.37,5.88,15.61,14.62,21.97l11.21-23.35C441.68,253.14,427.64,248.94,422.27,256.99z
				"/>
			<path class="st2" d="M707.5,82.12L579.12,19.69c-9.09-4.42-20.04-0.6-24.42,8.51l-69.95,145.72l-12.16,25.34l-7.35,15.32
				l-9.59,19.97l-4.53,9.44l-0.15,0.32l-4.56,9.51l-11.21,23.35l-18.04,37.59l-5.42,11.28c-4.37,9.11-0.51,20.03,8.62,24.37
				l46.02,21.84l34.44,16.34l43.07,20.44c8.95,4.25,19.66,0.57,24.11-8.28l1.82-3.63c-29.36-11.37-75.69-30.3-76.89-36.92
				c-0.99-5.47,3.83-21.09,22.06-24.71c14.15-2.81,36.28,3.98,70.59,13.24c0,0,2.58,1.24,7.11,2.89l12.49-24.84L621,295.33
				l29.93-59.54l64.89-129.08C720.38,97.63,716.64,86.57,707.5,82.12z"/>
			<path class="st10" d="M277.56,259.64c6.66-5.09,14.36-10.53,22.34-15.78l0.04-0.11c0,0,0.24-0.1,0.61-0.31
				c0.41-0.27,0.81-0.53,1.22-0.8c2.05-1.54,4.83-4.75,2.6-9.96c-3.32-7.74-70.03,2.25-70.03,2.25
				C239.62,233.17,277.56,259.64,277.56,259.64z"/>
			<path class="st4" d="M301.76,242.64c-0.41,0.27-0.81,0.53-1.22,0.8C300.87,243.26,301.29,242.99,301.76,242.64z"/>
			<path class="st11" d="M264.32,403.46c33.84,16.59,56.19,49.13,65.2,64.25h139.13c-12.07-15.77-47.15-42.39-42.86-54.55
				c5.29-15,24.71,4.41,35.29,15.88c10.59,11.47,28.24,4.41,50.3,10.59c14.67,4.11,22.7,18.73,26.43,28.07H589l-8.75-40.82
				c-7.02-11.76-0.58-20.04,3.1-23.45c-3.43-1.3-7.44-2.83-11.84-4.54l-1.82,3.63c-4.45,8.85-15.16,12.53-24.11,8.28l-43.07-20.44
				c-4.13,0.66-7.61,1.93-8.77,4.26c-3.53,7.06-13.24,35.29-23.82,29.12c-7.96-4.64-4.95-34.19-1.84-49.72l-46.02-21.84
				c-9.13-4.33-12.99-15.26-8.62-24.37l5.42-11.28c-45.3-9.91-184.52-40.15-184.52-40.15s17.34-3.25,32.07-10.18
				c4.06-1.91,7.93-4.1,11.17-6.58c0,0-37.94-26.47-43.24-24.71c-2.52,0.84-24.82-2.16-62.24,7.74
				c15.26,27.19,25.18,93.75,25.18,116.67C197.26,385.82,219.32,381.41,264.32,403.46z"/>
			<path class="st16" d="M424.19,224.52c-0.36-0.07-0.71-0.13-1.04-0.17c-12.35-1.76-19.41,18.53-19.41,18.53s0.88-23.82-1.76-34.41
				c-2.65-10.59-22.06-5.29-36.18-4.41c-1.91,0.12-3.66,0.45-5.29,0.96c-10.46,3.21-16.39,13.47-30.88,21.1
				c-8.74,4.6-18.44,10.41-27.86,16.53c-0.47,0.35-0.89,0.61-1.22,0.8c-0.22,0.14-0.43,0.28-0.65,0.42
				c-7.97,5.25-15.68,10.69-22.34,15.78c-3.24,2.48-7.11,4.67-11.17,6.58c-14.72,6.93-32.07,10.18-32.07,10.18
				s139.22,30.24,184.52,40.15l18.04-37.59c-8.74-6.35-18.87-15.6-14.62-21.97c5.37-8.06,19.41-3.86,25.83-1.38l4.56-9.51l0.15-0.32
				l4.53-9.44C447.14,231.98,432.25,225.99,424.19,224.52z"/>
			<g>
				<defs>
					<path id="SVGID_3_" d="M708.94,81.8L580.56,19.37c-9.09-4.42-20.04-0.6-24.42,8.51L486.2,173.6l-12.16,25.34l-7.35,15.32
						l-9.59,19.97l-4.53,9.44l-0.15,0.32l-4.56,9.51l-11.21,23.35l-18.04,37.59l-5.42,11.28c-4.37,9.11-0.51,20.03,8.62,24.37
						l46.02,21.84l34.44,16.34l43.07,20.44c8.95,4.25,19.66,0.57,24.11-8.28l1.82-3.63c-29.36-11.37-75.69-30.3-76.89-36.92
						c-0.99-5.47,3.83-21.09,22.06-24.71c14.15-2.81,36.28,3.98,70.59,13.24c0,0,2.58,1.24,7.11,2.89l12.49-24.84l15.81-31.46
						l29.93-59.54l64.89-129.08C721.82,97.31,718.08,86.25,708.94,81.8z"/>
				</defs>
				<use xlink:href="#SVGID_3_"  style="overflow:visible;fill:#DCEFFA;"/>
				<clipPath id="SVGID_4_">
					<use xlink:href="#SVGID_3_"  style="overflow:visible;"/>
				</clipPath>
				<g class="st17">
					<path class="st5" d="M559.64,90.92l-43.93-20.75c-4.65-2.2-6.64-7.75-4.44-12.4l28.95-61.27c2.2-4.65,7.75-6.64,12.4-4.44
						l43.93,20.75c4.65,2.2,6.64,7.75,4.44,12.4l-28.95,61.27C569.84,91.12,564.29,93.11,559.64,90.92z"/>
					<path class="st5" d="M514.43,186.61l-43.93-20.75c-4.65-2.2-6.64-7.75-4.44-12.4L495,92.19c2.2-4.65,7.75-6.64,12.4-4.44
						l43.93,20.75c4.65,2.2,6.64,7.75,4.44,12.4l-28.95,61.27C524.63,186.82,519.08,188.81,514.43,186.61z"/>
					<path class="st5" d="M480.18,391.39l-95.29-45.01c-4.65-2.2-6.64-7.75-4.44-12.4l28.95-61.27c2.2-4.65,7.75-6.64,12.4-4.44
						l95.29,45.01c4.65,2.2,6.64,7.75,4.44,12.4l-28.95,61.27C490.38,391.6,484.83,393.59,480.18,391.39z"/>
					<path class="st5" d="M435.65,261.67l-8.5-4.02c-4.65-2.2-6.64-7.75-4.44-12.4l28.95-61.27c2.2-4.65,7.75-6.64,12.4-4.44
						l8.5,4.02c4.65,2.2,6.64,7.75,4.44,12.4l-28.95,61.27C445.85,261.87,440.3,263.86,435.65,261.67z"/>
					<path class="st5" d="M470.88,278.31l-8.5-4.02c-4.65-2.2-6.64-7.75-4.44-12.4l28.95-61.27c2.2-4.65,7.75-6.64,12.4-4.44
						l8.5,4.02c4.65,2.2,6.64,7.75,4.44,12.4l-28.95,61.27C481.08,278.52,475.53,280.51,470.88,278.31z"/>
					<path class="st5" d="M640.4,124.32l-36.97-37.71c-2.69-2.75-3.3-7.17-1.49-10.99l19.09-40.41c2.31-4.89,7.76-7.17,12.18-5.09
						L678,51.28c4.41,2.09,6.12,7.74,3.81,12.64l-26.91,56.96C652.04,126.93,644.68,128.67,640.4,124.32z"/>
					<path class="st5" d="M564.61,211.51l-13.54-6.4c-4.65-2.2-6.64-7.75-4.44-12.4l28.95-61.27c2.2-4.65,7.75-6.64,12.4-4.44
						l13.54,6.4c4.65,2.2,6.64,7.75,4.44,12.4l-28.95,61.27C574.82,211.72,569.26,213.71,564.61,211.51z"/>
					<path class="st5" d="M600.05,228.25l-6.71-3.17c-4.65-2.2-6.64-7.75-4.44-12.4l14.68-31.07c2.2-4.65,7.75-6.64,12.4-4.44
						l6.71,3.17c4.65,2.2,6.64,7.75,4.44,12.4l-14.68,31.07C610.26,228.46,604.7,230.45,600.05,228.25z"/>
					<path class="st5" d="M544.39,256.31l-12.55-5.93c-4.65-2.2-6.64-7.75-4.44-12.4l6.17-13.05c2.2-4.65,7.75-6.64,12.4-4.44
						l12.55,5.93c4.65,2.2,6.64,7.75,4.44,12.4l-6.17,13.05C554.59,256.52,549.04,258.51,544.39,256.31z"/>
					<path class="st5" d="M583.14,274.62l-12.55-5.93c-4.65-2.2-6.64-7.75-4.44-12.4l6.17-13.05c2.2-4.65,7.75-6.64,12.4-4.44
						l12.55,5.93c4.65,2.2,6.64,7.75,4.44,12.4l-6.17,13.05C593.34,274.83,587.79,276.82,583.14,274.62z"/>
					<path class="st5" d="M543.01,359.57l-12.55-5.93c-4.65-2.2-6.64-7.75-4.44-12.4l6.17-13.05c2.2-4.65,7.75-6.64,12.4-4.44
						l12.55,5.93c4.65,2.2,6.64,7.75,4.44,12.4l-6.17,13.05C553.21,359.78,547.66,361.77,543.01,359.57z"/>
					<path class="st5" d="M520.87,406.44l-12.55-5.93c-4.65-2.2-6.64-7.75-4.44-12.4l6.17-13.05c2.2-4.65,7.75-6.64,12.4-4.44
						l12.55,5.93c4.65,2.2,6.64,7.75,4.44,12.4L533.27,402C531.07,406.65,525.52,408.64,520.87,406.44z"/>
					<path class="st5" d="M524.09,299.28l-12.55-5.93c-4.65-2.2-6.64-7.75-4.44-12.4l6.17-13.05c2.2-4.65,7.75-6.64,12.4-4.44
						l12.55,5.93c4.65,2.2,6.64,7.75,4.44,12.4l-6.17,13.05C534.29,299.49,528.74,301.47,524.09,299.28z"/>
					<path class="st5" d="M631.28,349.91l-81.87-38.67c-4.65-2.2-6.64-7.75-4.44-12.4l6.17-13.05c2.2-4.65,7.75-6.64,12.4-4.44
						l81.87,38.67c4.65,2.2,6.64,7.75,4.44,12.4l-6.17,13.05C641.49,350.12,635.93,352.11,631.28,349.91z"/>
					<path class="st5" d="M627.56,166.6l-6.71-3.17c-4.65-2.2-6.64-7.75-4.44-12.4l0.41-0.88c2.2-4.65,7.75-6.64,12.4-4.44
						l6.71,3.17c4.65,2.2,6.64,7.75,4.44,12.4l-0.41,0.88C637.77,166.81,632.21,168.8,627.56,166.6z"/>
					<path class="st5" d="M720.81,167.06l-43.93-20.75c-4.65-2.2-6.64-7.75-4.44-12.4l28.95-61.27c2.2-4.65,7.75-6.64,12.4-4.44
						l43.93,20.75c4.65,2.2,6.64,7.75,4.44,12.4l-28.95,61.27C731.02,167.26,725.47,169.25,720.81,167.06z"/>
					<path class="st5" d="M676.07,261.77l-43.93-20.75c-4.65-2.2-6.64-7.75-4.44-12.4l28.95-61.27c2.2-4.65,7.75-6.64,12.4-4.44
						l43.93,20.75c4.65,2.2,6.64,7.75,4.44,12.4l-28.95,61.27C686.27,261.98,680.72,263.97,676.07,261.77z"/>
					<path class="st5" d="M589.81,444.37l-43.93-20.75c-4.65-2.2-6.64-7.75-4.44-12.4l28.95-61.27c2.2-4.65,7.75-6.64,12.4-4.44
						l43.93,20.75c4.65,2.2,6.64,7.75,4.44,12.4l-28.95,61.27C600.01,444.58,594.46,446.57,589.81,444.37z"/>
					<path class="st5" d="M653.93,308.64L610,287.89c-4.65-2.2-6.64-7.75-4.44-12.4l7.34-15.54c2.2-4.65,7.75-6.64,12.4-4.44
						l43.93,20.75c4.65,2.2,6.64,7.75,4.44,12.4l-7.34,15.54C664.13,308.85,658.58,310.84,653.93,308.64z"/>
				</g>
			</g>
		</g>
		<g>
			<path class="st15" d="M301.48,241.44l-0.04,0.11c0.22-0.14,0.43-0.28,0.65-0.42C301.72,241.34,301.48,241.44,301.48,241.44z"/>
			<path class="st4" d="M749.16,467.72l-11.6-31.33c0.24,1.43,0.38,2.91,0.38,4.47c0,16.55-7.05,23.87-16.98,26.86"/>
			<path class="st4" d="M467.93,178.8c-5.46,7.89,2.44,15.78,7.9,19.94l12.16-25.34C486.29,172.63,475.25,168.23,467.93,178.8z"/>
			<path class="st4" d="M403.52,206.15c0,0-11.47-38.82-29.12-32.65c-12.21,4.27-13.01,19.94-12.35,29.19
				c1.64-0.5,3.38-0.84,5.29-0.96C381.46,200.86,400.87,195.56,403.52,206.15z"/>
			<path class="st4" d="M468.48,214.06c-3.66-3.84-9.26-7.98-17.31-9.67c-12.99-2.73-21.74,9.36-25.43,17.82
				c8.06,1.48,22.95,7.46,33.15,11.83L468.48,214.06z"/>
			<path class="st4" d="M127.38,467.72c-4.03-42.87,37.82-101.67,44.96-130.98c4.99-20.47-16.85-56.2-36.77-83.36
				c-6.4,2.67-13.05,5.68-19.96,9.08c-28.64,14.1-82.11,20.32-114.06,38.68"/>
			<path class="st4" d="M669.92,467.72c-5.08-0.63-10.85-1.82-16.99-3.49c-25.11-6.82-56.04-21.29-67.65-34.84
				c-1.42-1.66-2.57-3.26-3.49-4.8l9.24,43.13"/>
			<path class="st4" d="M720.95,467.72c9.93-2.99,16.98-10.3,16.98-26.86c0-1.56-0.14-3.04-0.38-4.47
				c-1.64-9.67-8.61-16.39-17.67-21.07c1.69,5.17,3.21,9.88,4.47,13.92c2.39,7.66,3.88,12.91,3.88,14.27
				c0,6.36-3.59,21.31-21.08,24.21"/>
			<path class="st4" d="M680.16,467.72c-8.15-0.62-15.89-2.02-24.2-5.18c-5.3-2.02-10.83-4.74-16.85-8.44
				c0,0-16.34-18.03-31.46-35.64c-3.8-4.42-7.52-8.82-10.89-12.89c0,0-4.61-1.69-11.86-4.43c-3.68,3.41-10.12,11.7-3.1,23.45
				c0.92,1.54,2.06,3.14,3.49,4.8c11.61,13.54,42.54,28.02,67.65,34.84c6.14,1.67,11.91,2.86,16.99,3.49"/>
			<path class="st4" d="M707.15,467.72c17.49-2.9,21.08-17.85,21.08-24.21c0-1.36-1.48-6.62-3.88-14.27
				c-1.26-4.04-2.78-8.75-4.47-13.92c-11.7-35.78-31.62-93.43-32.24-101.52c-0.88-11.47-3.53-23.82-13.24-34.41
				c-6.67-7.27-15.42-30.38-20.24-44.12l-29.93,59.54l-15.81,31.46l-12.49,24.84c-4.53-1.64-7.12-2.89-7.12-2.89
				c-34.31-9.25-56.44-16.04-70.59-13.24c-18.23,3.62-23.05,19.24-22.06,24.71c1.2,6.62,47.53,25.54,76.89,36.92
				c4.4,1.7,8.42,3.24,11.84,4.54c7.24,2.74,11.86,4.43,11.86,4.43c3.37,4.07,7.09,8.47,10.89,12.89
				c15.12,17.6,31.46,35.64,31.46,35.64c6.02,3.7,11.55,6.43,16.85,8.44c8.31,3.16,16.05,4.56,24.2,5.18"/>
			<path class="st4" d="M471.46,421.45c10.59,6.18,20.29-22.06,23.82-29.12c1.17-2.33,4.64-3.6,8.77-4.26l-34.44-16.34
				C466.51,387.26,463.5,416.81,471.46,421.45z"/>
			<path class="st4" d="M423.81,254.68c-4.25,6.37,5.88,15.61,14.62,21.97l11.21-23.35C443.23,250.83,429.18,246.63,423.81,254.68z"
				/>
			<path class="st4" d="M710.73,81.6L582.36,19.16c-9.09-4.42-20.04-0.6-24.42,8.51L487.99,173.4l-12.16,25.34l-7.35,15.32
				l-9.59,19.97l-4.53,9.44l-0.15,0.32l-4.56,9.51l-11.21,23.35l-18.04,37.59l-5.42,11.28c-4.37,9.11-0.51,20.03,8.62,24.37
				l46.02,21.84l34.44,16.34l43.07,20.44c8.95,4.25,19.66,0.57,24.11-8.28l1.82-3.63c-29.36-11.37-75.69-30.3-76.89-36.92
				c-0.99-5.47,3.83-21.09,22.06-24.71c14.15-2.81,36.28,3.98,70.59,13.24c0,0,2.58,1.24,7.11,2.89l12.49-24.84l15.81-31.46
				l29.93-59.54l64.89-129.08C723.61,97.1,719.87,86.04,710.73,81.6z"/>
			<path class="st9" d="M471.85,467.72h68.4c-3.27-9.02-11.37-25.92-27.31-30.39c-22.06-6.18-39.71,0.88-50.29-10.59
				c-10.59-11.47-30-30.88-35.29-15.88C422.84,423.63,461.78,452.37,471.85,467.72z"/>
			<path class="st9" d="M121.69,235.28c4.23,5.28,9,11.44,13.88,18.1c19.91,27.16,41.76,62.89,36.77,83.36
				c-7.15,29.3-48.99,88.11-44.96,130.98h205.05c-7.96-13.84-30.87-49.07-66.56-66.56c-45-22.06-67.06-17.65-67.06-44.12
				c0-22.92-9.92-89.48-25.18-116.67c-2.37-4.22-4.86-7.49-7.46-9.51c-9.07-7.01-63.93-22.27-65.96-18.97
				C98.07,215.36,118.66,231.5,121.69,235.28z"/>
			<path class="st4" d="M279.1,257.33c6.66-5.09,14.36-10.53,22.34-15.78l0.04-0.11c0,0,0.24-0.1,0.61-0.31
				c0.41-0.27,0.81-0.53,1.22-0.8c2.05-1.54,4.83-4.75,2.6-9.96c-3.32-7.74-70.03,2.25-70.03,2.25
				C241.16,230.86,279.1,257.33,279.1,257.33z"/>
			<path class="st4" d="M303.31,240.33c-0.41,0.27-0.81,0.53-1.22,0.8C302.41,240.95,302.84,240.68,303.31,240.33z"/>
			<path class="st4" d="M591.04,467.72l-9.24-43.13c-7.02-11.76-0.58-20.04,3.1-23.45c-3.43-1.3-7.44-2.83-11.84-4.54l-1.82,3.63
				c-4.45,8.85-15.16,12.53-24.11,8.28l-43.07-20.44c-4.13,0.66-7.61,1.93-8.77,4.26c-3.53,7.06-13.24,35.29-23.82,29.12
				c-7.96-4.64-4.95-34.19-1.84-49.72l-46.02-21.84c-9.13-4.33-12.99-15.26-8.62-24.37l5.42-11.28
				c-45.3-9.91-184.52-40.15-184.52-40.15s17.34-3.25,32.07-10.18c4.06-1.91,7.93-4.1,11.17-6.58c0,0-37.94-26.47-43.24-24.71
				c-2.52,0.84-24.82-2.16-62.24,7.74c15.26,27.19,25.18,93.75,25.18,116.67c0,26.47,22.06,22.06,67.06,44.12
				c35.69,17.49,58.59,52.72,66.56,66.56"/>
			<path class="st4" d="M471.85,467.72c-10.07-15.35-49.01-44.09-44.51-56.86c5.29-15,24.71,4.41,35.29,15.88
				c10.59,11.47,28.24,4.41,50.29,10.59c15.95,4.47,24.05,21.36,27.31,30.39"/>
			<path class="st4" d="M425.73,222.21c-0.36-0.07-0.71-0.13-1.04-0.17c-12.35-1.76-19.41,18.53-19.41,18.53s0.88-23.82-1.76-34.41
				c-2.65-10.59-22.06-5.29-36.18-4.41c-1.91,0.12-3.66,0.45-5.29,0.96c-10.46,3.21-16.39,13.47-30.88,21.1
				c-8.74,4.6-18.44,10.41-27.86,16.53c-0.47,0.35-0.89,0.61-1.22,0.8c-0.22,0.14-0.43,0.28-0.65,0.42
				c-7.97,5.25-15.68,10.69-22.34,15.78c-3.24,2.48-7.11,4.67-11.17,6.58c-14.72,6.93-32.07,10.18-32.07,10.18
				s139.22,30.24,184.52,40.15l18.04-37.59c-8.74-6.35-18.87-15.6-14.62-21.97c5.37-8.06,19.41-3.86,25.83-1.38l4.56-9.51l0.15-0.32
				l4.53-9.44C448.69,229.67,433.8,223.68,425.73,222.21z"/>
			<g>
				<defs>
					<path id="SVGID_5_" d="M710.73,81.6L582.36,19.16c-9.09-4.42-20.04-0.6-24.42,8.51L487.99,173.4l-12.16,25.34l-7.35,15.32
						l-9.59,19.97l-4.53,9.44l-0.15,0.32l-4.56,9.51l-11.21,23.35l-18.04,37.59l-5.42,11.28c-4.37,9.11-0.51,20.03,8.62,24.37
						l46.02,21.84l34.44,16.34l43.07,20.44c8.95,4.25,19.66,0.57,24.11-8.28l1.82-3.63c-29.36-11.37-75.69-30.3-76.89-36.92
						c-0.99-5.47,3.83-21.09,22.06-24.71c14.15-2.81,36.28,3.98,70.59,13.24c0,0,2.58,1.24,7.11,2.89l12.49-24.84l15.81-31.46
						l29.93-59.54l64.89-129.08C723.61,97.1,719.87,86.04,710.73,81.6z"/>
				</defs>
				<clipPath id="SVGID_6_">
					<use xlink:href="#SVGID_5_"  style="overflow:visible;"/>
				</clipPath>
				<g class="st18">
					<path class="st4" d="M561.43,90.71L517.5,69.96c-4.65-2.2-6.64-7.75-4.44-12.4l28.95-61.27c2.2-4.65,7.75-6.64,12.4-4.44
						l43.93,20.75c4.65,2.2,6.64,7.75,4.44,12.4l-28.95,61.27C571.64,90.92,566.08,92.91,561.43,90.71z"/>
					<path class="st4" d="M516.23,186.41l-43.93-20.75c-4.65-2.2-6.64-7.75-4.44-12.4l28.95-61.27c2.2-4.65,7.75-6.64,12.4-4.44
						l43.93,20.75c4.65,2.2,6.64,7.75,4.44,12.4l-28.95,61.27C526.43,186.62,520.88,188.6,516.23,186.41z"/>
					<path class="st4" d="M481.97,391.19l-95.29-45.01c-4.65-2.2-6.64-7.75-4.44-12.4l28.95-61.27c2.2-4.65,7.75-6.64,12.4-4.44
						l95.29,45.01c4.65,2.2,6.64,7.75,4.44,12.4l-28.95,61.27C492.18,391.39,486.63,393.38,481.97,391.19z"/>
					<path class="st4" d="M437.44,261.46l-8.5-4.02c-4.65-2.2-6.64-7.75-4.44-12.4l28.95-61.27c2.2-4.65,7.75-6.64,12.4-4.44
						l8.5,4.02c4.65,2.2,6.64,7.75,4.44,12.4l-28.95,61.27C447.65,261.67,442.1,263.66,437.44,261.46z"/>
					<path class="st4" d="M472.67,278.1l-8.5-4.02c-4.65-2.2-6.64-7.75-4.44-12.4l28.95-61.27c2.2-4.65,7.75-6.64,12.4-4.44
						l8.5,4.02c4.65,2.2,6.64,7.75,4.44,12.4l-28.95,61.27C482.88,278.31,477.33,280.3,472.67,278.1z"/>
					<path class="st4" d="M642.2,124.11L605.23,86.4c-2.69-2.75-3.3-7.17-1.49-10.99L622.83,35c2.31-4.89,7.76-7.17,12.18-5.09
						l44.79,21.16c4.41,2.09,6.12,7.74,3.81,12.64l-26.91,56.96C653.83,126.72,646.47,128.47,642.2,124.11z"/>
					<path class="st4" d="M566.41,211.31l-13.54-6.4c-4.65-2.2-6.64-7.75-4.44-12.4l28.95-61.27c2.2-4.65,7.75-6.64,12.4-4.44
						l13.54,6.4c4.65,2.2,6.64,7.75,4.44,12.4l-28.95,61.27C576.61,211.52,571.06,213.5,566.41,211.31z"/>
					<path class="st4" d="M601.85,228.05l-6.71-3.17c-4.65-2.2-6.64-7.75-4.44-12.4l14.68-31.07c2.2-4.65,7.75-6.64,12.4-4.44
						l6.71,3.17c4.65,2.2,6.64,7.75,4.44,12.4l-14.68,31.07C612.05,228.26,606.5,230.25,601.85,228.05z"/>
					<path class="st4" d="M546.18,256.11l-12.55-5.93c-4.65-2.2-6.64-7.75-4.44-12.4l6.17-13.05c2.2-4.65,7.75-6.64,12.4-4.44
						l12.55,5.93c4.65,2.2,6.64,7.75,4.44,12.4l-6.17,13.05C556.39,256.32,550.83,258.31,546.18,256.11z"/>
					<path class="st4" d="M584.94,274.42l-12.55-5.93c-4.65-2.2-6.64-7.75-4.44-12.4l6.17-13.05c2.2-4.65,7.75-6.64,12.4-4.44
						l12.55,5.93c4.65,2.2,6.64,7.75,4.44,12.4l-6.17,13.05C595.14,274.62,589.59,276.61,584.94,274.42z"/>
					<path class="st4" d="M544.81,359.37l-12.55-5.93c-4.65-2.2-6.64-7.75-4.44-12.4l6.17-13.05c2.2-4.65,7.75-6.64,12.4-4.44
						l12.55,5.93c4.65,2.2,6.64,7.75,4.44,12.4l-6.17,13.05C555.01,359.58,549.46,361.57,544.81,359.37z"/>
					<path class="st4" d="M522.66,406.24l-12.55-5.93c-4.65-2.2-6.64-7.75-4.44-12.4l6.17-13.05c2.2-4.65,7.75-6.64,12.4-4.44
						l12.55,5.93c4.65,2.2,6.64,7.75,4.44,12.4l-6.17,13.05C532.87,406.45,527.32,408.44,522.66,406.24z"/>
					<path class="st4" d="M525.89,299.07l-12.55-5.93c-4.65-2.2-6.64-7.75-4.44-12.4l6.17-13.05c2.2-4.65,7.75-6.64,12.4-4.44
						l12.55,5.93c4.65,2.2,6.64,7.75,4.44,12.4l-6.17,13.05C536.09,299.28,530.54,301.27,525.89,299.07z"/>
					<path class="st4" d="M633.08,349.71l-81.87-38.67c-4.65-2.2-6.64-7.75-4.44-12.4l6.17-13.05c2.2-4.65,7.75-6.64,12.4-4.44
						l81.87,38.67c4.65,2.2,6.64,7.75,4.44,12.4l-6.17,13.05C643.28,349.92,637.73,351.91,633.08,349.71z"/>
					<path class="st4" d="M629.36,166.4l-6.71-3.17c-4.65-2.2-6.64-7.75-4.44-12.4l0.41-0.88c2.2-4.65,7.75-6.64,12.4-4.44
						l6.71,3.17c4.65,2.2,6.64,7.75,4.44,12.4l-0.41,0.88C639.56,166.6,634.01,168.59,629.36,166.4z"/>
					<path class="st4" d="M722.61,166.85l-43.93-20.75c-4.65-2.2-6.64-7.75-4.44-12.4l28.95-61.27c2.2-4.65,7.75-6.64,12.4-4.44
						l43.93,20.75c4.65,2.2,6.64,7.75,4.44,12.4l-28.95,61.27C732.81,167.06,727.26,169.05,722.61,166.85z"/>
					<path class="st4" d="M677.87,261.57l-43.93-20.75c-4.65-2.2-6.64-7.75-4.44-12.4l28.95-61.27c2.2-4.65,7.75-6.64,12.4-4.44
						l43.93,20.75c4.65,2.2,6.64,7.75,4.44,12.4l-28.95,61.27C688.07,261.78,682.52,263.77,677.87,261.57z"/>
					<path class="st4" d="M591.61,444.17l-43.93-20.75c-4.65-2.2-6.64-7.75-4.44-12.4l28.95-61.27c2.2-4.65,7.75-6.64,12.4-4.44
						l43.93,20.75c4.65,2.2,6.64,7.75,4.44,12.4l-28.95,61.27C601.81,444.38,596.26,446.37,591.61,444.17z"/>
					<path class="st4" d="M655.72,308.44l-43.93-20.75c-4.65-2.2-6.64-7.75-4.44-12.4l7.34-15.54c2.2-4.65,7.75-6.64,12.4-4.44
						l43.93,20.75c4.65,2.2,6.64,7.75,4.44,12.4L668.13,304C665.93,308.65,660.38,310.64,655.72,308.44z"/>
				</g>
			</g>
		</g>
		<path class="st4" d="M235.87,274.09c0,0-22.55,8.56-35.06,22.46l-7.64,15.29"/>
		<path class="st4" d="M405.28,240.56c0,0-7.81,12.9-6.42,19.85c1.39,6.95,2.78,48.65,2.78,48.65"/>
		<path class="st4" d="M329.37,230.53c7.64-0.69,34.75-6.25,43.78-1.39"/>
		<path class="st4" d="M518.89,374.58c0,0,14.64,4.46,21.01-2.55c6.37-7,9.55-16.55,3.82-20.37s-30.56-16.55-30.56-16.55"/>
		<path class="st4" d="M595.93,351.1c0,0,28.65,12.66,47.75,10.11"/>
		<path class="st4" d="M610.57,356.75c0,0,35.02-58.58,34.38-70.04"/>
		<path class="st4" d="M628.4,323.64c0,0-0.06-24.58-4.17-28.84"/>
		<path class="st4" d="M609.93,422.33c0,0,43.3,18.46,52.85,15.28"/>
		<polyline class="st19" points="599.34,342.51 488.73,290.09 526.48,204.64 614.02,243.43 658.58,142.78 583.09,109.23 
			596.2,70.43 575.75,59.43 		"/>
		<line class="st19" x1="564.22" y1="63.62" x2="588.33" y2="55.76"/>
		<line class="st19" x1="574.18" y1="48.42" x2="579.95" y2="72.53"/>
	</g>
</g>
</svg>
