<svg xmlns="http://www.w3.org/2000/svg" viewBox="0 0 841.88976 467.71654"><defs><style>.cls-1{fill:#f4f4f5;}.cls-2{fill:#e0635d;}.cls-3{fill:#54575c;}.cls-4{fill:#4890ba;}.cls-5{fill:#61a575;}.cls-6{fill:#f5c65d;}.cls-7{fill:#dceffa;}</style></defs><g id="Layer_3" data-name="Layer 3"><rect class="cls-1" width="841.88976" height="467.71654"/><rect class="cls-2" x="21.66573" y="28.73891" width="178.28877" height="73.2965"/><path class="cls-3" d="M202.07485,100.5542H22.78579V26.25781H202.07485Zm-178.28906-1H201.07485V27.25781H23.78579Z"/><rect class="cls-4" x="175.104" y="114.91182" width="178.28877" height="73.2965"/><path class="cls-3" d="M355.51235,186.72754H176.22426V112.43066H355.51235Zm-178.28809-1H354.51235V113.43066H177.22426Z"/><rect class="cls-5" x="328.54227" y="201.08473" width="178.28877" height="73.2965"/><path class="cls-3" d="M508.95083,272.90039H329.66176V198.60352H508.95083Zm-178.28907-1H507.95083V199.60352H330.66176Z"/><rect class="cls-6" x="481.98055" y="287.25763" width="178.28877" height="73.2965"/><path class="cls-3" d="M662.3893,359.07324H483.10024V284.77637H662.3893Zm-178.28906-1H661.3893V285.77637H484.10024Z"/><rect class="cls-7" x="635.41882" y="373.43054" width="178.28877" height="73.2965"/><path class="cls-3" d="M815.82778,445.24609H636.53872V370.94922H815.82778Zm-178.28906-1H814.82778V371.94922H637.53872Z"/><path class="cls-3" d="M252.38149,93.46729h-1v-28.501A21.29522,21.29522,0,0,0,230.111,43.69482H201.05629v-1H230.111a22.2959,22.2959,0,0,1,22.27051,22.27149Z"/><polygon class="cls-3" points="251.882 102.908 258.499 91.447 245.265 91.447 251.882 102.908"/><path class="cls-3" d="M406.04165,179.29053h-1v-28.501a21.29544,21.29544,0,0,0-21.27149-21.27148H354.71547v-1h29.05469a22.29673,22.29673,0,0,1,22.27149,22.27148Z"/><polygon class="cls-3" points="405.541 188.731 412.158 177.27 398.924 177.27 405.541 188.731"/><path class="cls-3" d="M560.72817,265.627h-1V237.126a21.295,21.295,0,0,0-21.27148-21.271H509.403v-1h29.05372a22.29663,22.29663,0,0,1,22.27148,22.271Z"/><polygon class="cls-3" points="560.228 275.068 566.845 263.607 553.611 263.607 560.228 275.068"/><path class="cls-3" d="M713.36,347.85352h-1v-28.502a21.29492,21.29492,0,0,0-21.27149-21.27051H662.03383v-1h29.05469A22.29622,22.29622,0,0,1,713.36,319.35156Z"/><polygon class="cls-3" points="712.86 357.294 719.477 345.833 706.243 345.833 712.86 357.294"/><path class="cls-3" d="M51.84438,70.84912a.29842.29842,0,0,1-.28516.165H48.87465a.45834.45834,0,0,1-.43945-.35156l-2.53027-6.42481c-.07422-.19043-.27149-.28515-.59375-.28515H42.67055a.24249.24249,0,0,0-.209.07617.28318.28318,0,0,0-.05469.165v6.3584q0,.46142-.50586.46191H39.569a.34376.34376,0,0,1-.418-.39648V55.064c0-.249.10938-.374.33008-.374h6.62207a7.40561,7.40561,0,0,1,4.38867,1.13281,3.78268,3.78268,0,0,1,1.57324,3.26758,4.45458,4.45458,0,0,1-.44043,2.03516,4.2701,4.2701,0,0,1-1.14355,1.42969,5.26907,5.26907,0,0,1-1.49609.84668c-.13184.03027-.16211.125-.0879.28613l2.94727,6.79785A.39673.39673,0,0,1,51.84438,70.84912Zm-3.92676-9.73535a2.09607,2.09607,0,0,0,.78125-1.78125,2.19855,2.19855,0,0,0-.748-1.81543,3.16427,3.16427,0,0,0-2.0459-.60449H42.80239q-.39551,0-.39551.30761v4.15821c0,.21972.09473.33008.28613.33008h2.94727A3.71034,3.71034,0,0,0,47.91762,61.11377Z"/><path class="cls-3" d="M56.5309,67.70361a2.97253,2.97253,0,0,0,1.15528,1.1211,3.277,3.277,0,0,0,1.61718.40722,3.56144,3.56144,0,0,0,1.63868-.374,4.30471,4.30471,0,0,0,1.39746-1.21.29753.29753,0,0,1,.15332-.12109.41462.41462,0,0,1,.2207.07714l1.3418.59375q.28565.1333.06543.39649a6.62631,6.62631,0,0,1-1.419,1.55078,4.83329,4.83329,0,0,1-1.67187.83594,7.69132,7.69132,0,0,1-2.05664.25293,5.95665,5.95665,0,0,1-2.99219-.74805,5.43793,5.43793,0,0,1-2.0791-2.0791,6.08471,6.08471,0,0,1-.75879-3.06836,6.60629,6.60629,0,0,1,.78125-3.29981,5.56762,5.56762,0,0,1,2.10058-2.1455,6.07469,6.07469,0,0,1,5.81934-.03321,5.04957,5.04957,0,0,1,1.94727,2.0791,7.06465,7.06465,0,0,1,.70312,3.28907,1.5513,1.5513,0,0,1-.03223.35254c-.02246.08789-.1289.13867-.31933.15332H56.35512a.20385.20385,0,0,0-.18652.08789.50617.50617,0,0,0-.05566.26465A3.14709,3.14709,0,0,0,56.5309,67.70361ZM61.3268,64.106a.555.555,0,0,0,.29785-.05469c.05079-.03613.07618-.12109.07618-.25293a3.14316,3.14316,0,0,0-.30762-1.3418,2.7606,2.7606,0,0,0-.90235-1.08984,2.41726,2.41726,0,0,0-1.45117-.42871,2.72377,2.72377,0,0,0-2.541,1.57324,3.65639,3.65639,0,0,0-.3418,1.59473Z"/><path class="cls-3" d="M76.70473,59.354a.47041.47041,0,0,1,.35254.09961.51953.51953,0,0,1,.08789.34082V74.27q0,.37353-.33008.374H74.59243q-.30762,0-.30762-.35156v-3.96c0-.17676-.02539-.27832-.07715-.30859-.05176-.0293-.14258.00781-.27441.11035a5.82665,5.82665,0,0,1-1.375.78125,4.427,4.427,0,0,1-1.6836.31836,4.5144,4.5144,0,0,1-2.5625-.72559,4.6845,4.6845,0,0,1-1.68359-2.0791,8.11071,8.11071,0,0,1-.59375-3.2666,7.86833,7.86833,0,0,1,.59375-3.17969,4.82143,4.82143,0,0,1,1.7168-2.11133,4.62668,4.62668,0,0,1,2.66113-.75976,4.7079,4.7079,0,0,1,1.69434.26464,4.2263,4.2263,0,0,1,1.166.66016,5.70173,5.70173,0,0,1,.792.76953c.13184.14649.21973.125.26368-.0664l.2207-.96778a.74736.74736,0,0,1,.165-.31836.40093.40093,0,0,1,.29687-.09961Zm-2.41992,4.00391a2.41666,2.41666,0,0,0-1.1875-2.11133,2.472,2.472,0,0,0-1.29883-.33008,2.51334,2.51334,0,0,0-1.44043.43946,2.967,2.967,0,0,0-1.03418,1.375,6.39716,6.39716,0,0,0-.38476,2.40918,6.689,6.689,0,0,0,.3623,2.38672,3.01558,3.01558,0,0,0,1.001,1.39746,2.45236,2.45236,0,0,0,1.47461.46191,3.15125,3.15125,0,0,0,1.38574-.30762,3.67617,3.67617,0,0,0,1.12207-.83691Z"/><path class="cls-3" d="M85.89028,68.72607a6.28886,6.28886,0,0,0,1.331-1.09961v-7.832c0-.29394.168-.44043.50586-.44043h1.9795q.397,0,.39648.418l-.044,10.89063c0,.23437-.10351.35156-.30859.35156H87.59536q-.30909,0-.3086-.33008v-1.166c0-.07325-.01855-.1211-.05468-.14258-.03711-.02246-.0918.0039-.165.07715a7.22488,7.22488,0,0,1-1.958,1.375,4.71357,4.71357,0,0,1-1.91406.40625,3.63044,3.63044,0,0,1-1.75977-.418,2.99456,2.99456,0,0,1-1.21-1.21,3.7339,3.7339,0,0,1-.44043-1.84766V59.81592a.40854.40854,0,0,1,.46191-.46192h2.02442q.37353,0,.374.418v7.502a1.92643,1.92643,0,0,0,.47266,1.35351,1.68574,1.68574,0,0,0,1.30957.5166A2.78372,2.78372,0,0,0,85.89028,68.72607Z"/><path class="cls-3" d="M95.75649,57.19775q0,.50684-.52832.50684h-2.002a.40593.40593,0,0,1-.33008-.11035.52219.52219,0,0,1-.08789-.33008V55.10791q0-.41748.35254-.418h2.26562q.32959,0,.33008.374Zm-.04395,13.332a.48831.48831,0,0,1-.12109.374.59772.59772,0,0,1-.40723.11035H93.27016a.34376.34376,0,0,1-.418-.39648V59.728q0-.37354.33008-.374h2.22266c.20508,0,.30761.11817.30761.35254Z"/><path class="cls-3" d="M98.57192,70.91553a.43756.43756,0,0,1-.08789-.29785V59.728q0-.37354.30859-.374h2.13379q.30762,0,.30762.33008v1.3418c0,.08789.0293.14355.08789.165.05859.02246.125-.01074.19824-.09863a5.5422,5.5422,0,0,1,1.04492-1.06739,4.80713,4.80713,0,0,1,1.14453-.66015,3.07211,3.07211,0,0,1,1.13282-.23047q.79248,0,.792.35156v2.1123q0,.30909-.28613.26368a4.29545,4.29545,0,0,0-.69336-.1211c-.24121-.02148-.46582-.03222-.6709-.03222a2.56285,2.56285,0,0,0-.89063.17578,3.08638,3.08638,0,0,0-.86914.49511,2.97175,2.97175,0,0,0-.63769.69239,1.39806,1.39806,0,0,0-.24219.77051v6.73144q0,.44092-.50586.44043h-1.958A.40013.40013,0,0,1,98.57192,70.91553Z"/><path class="cls-3" d="M109.9684,67.70361a2.97253,2.97253,0,0,0,1.15528,1.1211,3.277,3.277,0,0,0,1.61718.40722,3.56144,3.56144,0,0,0,1.63868-.374,4.30471,4.30471,0,0,0,1.39746-1.21.29753.29753,0,0,1,.15332-.12109.41462.41462,0,0,1,.2207.07714l1.3418.59375q.28565.1333.06543.39649A6.62631,6.62631,0,0,1,116.1393,70.145a4.83329,4.83329,0,0,1-1.67187.83594,7.69132,7.69132,0,0,1-2.05664.25293,5.95665,5.95665,0,0,1-2.99219-.74805,5.43793,5.43793,0,0,1-2.0791-2.0791,6.08471,6.08471,0,0,1-.75879-3.06836,6.60629,6.60629,0,0,1,.78125-3.29981,5.56762,5.56762,0,0,1,2.10058-2.1455,6.07469,6.07469,0,0,1,5.81934-.03321,5.04957,5.04957,0,0,1,1.94727,2.0791,7.06465,7.06465,0,0,1,.70312,3.28907,1.5513,1.5513,0,0,1-.03223.35254c-.02246.08789-.1289.13867-.31933.15332h-7.78809a.20385.20385,0,0,0-.18652.08789.50617.50617,0,0,0-.05566.26465A3.14709,3.14709,0,0,0,109.9684,67.70361Zm4.7959-3.59765a.555.555,0,0,0,.29785-.05469c.05079-.03613.07618-.12109.07618-.25293a3.14316,3.14316,0,0,0-.30762-1.3418,2.7606,2.7606,0,0,0-.90235-1.08984,2.41726,2.41726,0,0,0-1.45117-.42871,2.72377,2.72377,0,0,0-2.541,1.57324,3.65639,3.65639,0,0,0-.3418,1.59473Z"/><path class="cls-3" d="M120.02211,70.61768V59.728q0-.37354.3086-.374h2.17773q.30762,0,.30762.33008v1.14453c0,.08789.02246.14258.06641.16407q.06591.03369.17578-.07618a11.44215,11.44215,0,0,1,1.19922-.94629,5.61731,5.61731,0,0,1,1.21-.627,3.8112,3.8112,0,0,1,1.33105-.23144,3.37211,3.37211,0,0,1,2.02344.57226,2.9779,2.9779,0,0,1,1.10059,1.45215.10707.10707,0,0,0,.13183.06641.39011.39011,0,0,0,.17578-.11035,8.7467,8.7467,0,0,1,1.21-1.01172,5.98582,5.98582,0,0,1,1.32032-.69336,3.88908,3.88908,0,0,1,1.36425-.25293,3.26478,3.26478,0,0,1,2.46387.93457,3.5102,3.5102,0,0,1,.90137,2.541v7.94239a.40815.40815,0,0,1-.46192.46191h-2.02343a.39361.39361,0,0,1-.28614-.08789.43.43,0,0,1-.08789-.30859V63.05029a1.91484,1.91484,0,0,0-.42871-1.331,1.652,1.652,0,0,0-1.28711-.47266,2.57171,2.57171,0,0,0-.96875.18653,3.61849,3.61849,0,0,0-.83593.47265,6.73876,6.73876,0,0,0-.65918.57227.87033.87033,0,0,0-.209.29687.94066.94066,0,0,0-.05566.34082v7.43653a.40815.40815,0,0,1-.46192.46191h-2.02343a.33445.33445,0,0,1-.374-.39648V63.05029a1.94526,1.94526,0,0,0-.418-1.331,1.64694,1.64694,0,0,0-1.29882-.47266,2.62992,2.62992,0,0,0-1.375.374,6.86088,6.86088,0,0,0-1.35254,1.12109v7.832q0,.44092-.50586.44043h-1.958A.35019.35019,0,0,1,120.02211,70.61768Z"/><path class="cls-3" d="M142.92348,67.70361a2.97246,2.97246,0,0,0,1.15528,1.1211,3.277,3.277,0,0,0,1.61718.40722,3.5614,3.5614,0,0,0,1.63867-.374,4.30464,4.30464,0,0,0,1.39747-1.21.29753.29753,0,0,1,.15332-.12109.41464.41464,0,0,1,.2207.07714l1.3418.59375q.28564.1333.06543.39649a6.62631,6.62631,0,0,1-1.41895,1.55078,4.83338,4.83338,0,0,1-1.67187.83594,7.69135,7.69135,0,0,1-2.05665.25293,5.95664,5.95664,0,0,1-2.99218-.74805,5.43786,5.43786,0,0,1-2.0791-2.0791,6.08471,6.08471,0,0,1-.75879-3.06836,6.60629,6.60629,0,0,1,.78125-3.29981,5.56755,5.56755,0,0,1,2.10058-2.1455,6.07469,6.07469,0,0,1,5.81934-.03321,5.04954,5.04954,0,0,1,1.94726,2.0791,7.06465,7.06465,0,0,1,.70313,3.28907,1.5513,1.5513,0,0,1-.03223.35254c-.02246.08789-.1289.13867-.31933.15332H142.7477a.20385.20385,0,0,0-.18652.08789.50617.50617,0,0,0-.05567.26465A3.14709,3.14709,0,0,0,142.92348,67.70361Zm4.7959-3.59765a.5551.5551,0,0,0,.29785-.05469c.05078-.03613.07617-.12109.07617-.25293a3.1433,3.1433,0,0,0-.30761-1.3418,2.7606,2.7606,0,0,0-.90235-1.08984,2.41726,2.41726,0,0,0-1.45117-.42871,2.72377,2.72377,0,0,0-2.541,1.57324,3.65639,3.65639,0,0,0-.3418,1.59473Z"/><path class="cls-3" d="M152.97817,70.61768V59.728q0-.37354.30859-.374H155.486q.28564,0,.28613.33008v1.14453c0,.08789.02247.14258.06641.16407q.06593.03369.17578-.07618a12.51643,12.51643,0,0,1,1.23242-.94629,5.36232,5.36232,0,0,1,1.23145-.61621,4.23476,4.23476,0,0,1,1.38672-.21972,3.4632,3.4632,0,0,1,2.5625.93457,3.34941,3.34941,0,0,1,.93457,2.47558v8.00782a.40815.40815,0,0,1-.46192.46191h-2.02343a.39361.39361,0,0,1-.28614-.08789.43.43,0,0,1-.08789-.30859V63.05029a1.82634,1.82634,0,0,0-.46191-1.331,1.85756,1.85756,0,0,0-1.38672-.47266,2.81968,2.81968,0,0,0-.97851.165,3.46315,3.46315,0,0,0-.89063.49414,9.03459,9.03459,0,0,0-.94629.83594v7.832q0,.44092-.50586.44043h-1.958A.35019.35019,0,0,1,152.97817,70.61768Z"/><path class="cls-3" d="M169.9186,61.356c-.14746,0-.2207.081-.2207.24218v5.874a1.59541,1.59541,0,0,0,.35254,1.18847,1.5666,1.5666,0,0,0,1.0996.32911h1.29786a.302.302,0,0,1,.30859.30859l-.02246,1.14355q0,.353-.418.44043-.32959.04395-.76953.07715c-.29395.02149-.583.03614-.86914.044q-.4292.01024-.78125.01074a3.33552,3.33552,0,0,1-2.26563-.69336,2.64273,2.64273,0,0,1-.792-2.10059V61.64209c0-.19043-.08789-.28613-.26465-.28613h-1.47363c-.23438,0-.35156-.10938-.35156-.33008V59.64014c0-.19043.10937-.28614.33008-.28614h1.62793c.13183,0,.19726-.07324.19726-.21972l.28613-3.3877c.01465-.23437.11719-.35254.3086-.35254h1.958q.3076,0,.30761.374v3.36621a.17548.17548,0,0,0,.19824.19824h2.48536c.2207,0,.33007.10254.33007.30762v1.38574c0,.2207-.124.33008-.374.33008Z"/><path class="cls-3" d="M180.85219,61.312a3.44015,3.44015,0,0,0-1.67187-.374,3.08931,3.08931,0,0,0-1.584.374,1.16719,1.16719,0,0,0-.63867,1.05567.97487.97487,0,0,0,.26465.63867,2.43437,2.43437,0,0,0,1.166.5498l2.61816.7041a4.45985,4.45985,0,0,1,2.45312,1.3086,3.1972,3.1972,0,0,1,.0879,3.97168,4.13142,4.13142,0,0,1-1.80469,1.2539,7.35345,7.35345,0,0,1-2.62891.43946,6.971,6.971,0,0,1-3.2334-.69239,4.24906,4.24906,0,0,1-1.89257-1.72754.56337.56337,0,0,1-.06543-.25292.2613.2613,0,0,1,.10937-.209l1.29785-.66016a.422.422,0,0,1,.28613-.08789.28186.28186,0,0,1,.17579.11036,4.85942,4.85942,0,0,0,.75976.83593,3.19889,3.19889,0,0,0,1.05567.59375,4.33039,4.33039,0,0,0,1.52929.19825,4.14755,4.14755,0,0,0,1.24317-.17579,2.20272,2.20272,0,0,0,.89062-.49511,1.04694,1.04694,0,0,0,.33008-.78125,1,1,0,0,0-.374-.76953,3.323,3.323,0,0,0-1.3418-.57227L177.64028,66.02a5.01616,5.01616,0,0,1-2.45313-1.1875,2.70877,2.70877,0,0,1-.78125-1.98047,3.29914,3.29914,0,0,1,.583-1.93555A3.84872,3.84872,0,0,1,176.65,59.60693a6.314,6.314,0,0,1,2.55176-.47265,6.23579,6.23579,0,0,1,2.81641.59375,4.185,4.185,0,0,1,1.73828,1.47461.64616.64616,0,0,1,.12109.24121c.02149.08789-.01855.16211-.12109.2207l-1.36426.68164a.32723.32723,0,0,1-.24219.0332.4036.4036,0,0,1-.19824-.14355A3.43747,3.43747,0,0,0,180.85219,61.312Z"/><path class="cls-3" d="M231.90981,141.86279H234.484c.40332,0,.707.00782.91308.02246a11.24191,11.24191,0,0,1,4.89454,1.04493,6.25016,6.25016,0,0,1,2.80566,2.75,9.29359,9.29359,0,0,1,.90137,4.25683,9.55348,9.55348,0,0,1-.957,4.44434,6.4209,6.4209,0,0,1-2.90332,2.82715,10.85955,10.85955,0,0,1-4.89551.97851h-4.2461q-.43944,0-.43945-.46191V142.25928a.40305.40305,0,0,1,.09863-.3086.51572.51572,0,0,1,.34082-.08789Zm1.90332,2.64063v11.08789c0,.17578.09473.26367.28613.26367h.54981a8.441,8.441,0,0,0,3.34375-.57227,3.80143,3.80143,0,0,0,1.958-1.87011,9.56382,9.56382,0,0,0,.02246-6.8086,3.76049,3.76049,0,0,0-1.89258-1.83691,7.94017,7.94017,0,0,0-3.2334-.57227h-.81445C233.88637,144.19482,233.81313,144.29736,233.81313,144.50342Z"/><path class="cls-3" d="M249.30044,154.87646a2.9725,2.9725,0,0,0,1.15527,1.1211,3.27706,3.27706,0,0,0,1.61719.40723,3.56144,3.56144,0,0,0,1.63867-.374,4.30471,4.30471,0,0,0,1.39746-1.21.29753.29753,0,0,1,.15332-.12109.41457.41457,0,0,1,.2207.07715l1.3418.59375q.28564.13329.06543.39648a6.62609,6.62609,0,0,1-1.419,1.55078,4.83329,4.83329,0,0,1-1.67187.83594,7.69132,7.69132,0,0,1-2.05664.25293,5.95665,5.95665,0,0,1-2.99219-.74805,5.43786,5.43786,0,0,1-2.0791-2.0791,6.08471,6.08471,0,0,1-.75879-3.06836,6.60633,6.60633,0,0,1,.78125-3.2998,5.56754,5.56754,0,0,1,2.10059-2.14551,6.07467,6.07467,0,0,1,5.81933-.03321,5.04953,5.04953,0,0,1,1.94727,2.07911,7.06458,7.06458,0,0,1,.70312,3.28906,1.552,1.552,0,0,1-.03222.35254c-.02247.08789-.12891.13867-.31934.15332h-7.78809a.20385.20385,0,0,0-.18652.08789.50617.50617,0,0,0-.05566.26465A3.147,3.147,0,0,0,249.30044,154.87646Zm4.79589-3.59765a.55512.55512,0,0,0,.29786-.05469c.05078-.03613.07617-.12109.07617-.25293a3.14316,3.14316,0,0,0-.30762-1.3418,2.76066,2.76066,0,0,0-.90234-1.08984,2.41731,2.41731,0,0,0-1.45118-.42871,2.7238,2.7238,0,0,0-2.541,1.57324,3.65639,3.65639,0,0,0-.3418,1.59473Z"/><path class="cls-3" d="M265.38344,148.48486a3.44015,3.44015,0,0,0-1.67187-.374,3.08931,3.08931,0,0,0-1.584.374,1.1672,1.1672,0,0,0-.63867,1.05567.97487.97487,0,0,0,.26465.63867,2.43437,2.43437,0,0,0,1.166.5498l2.61816.70411a4.45984,4.45984,0,0,1,2.45312,1.30859,3.1972,3.1972,0,0,1,.0879,3.97168,4.13152,4.13152,0,0,1-1.80469,1.25391,7.35368,7.35368,0,0,1-2.62891.43945,6.97108,6.97108,0,0,1-3.2334-.69238,4.24917,4.24917,0,0,1-1.89257-1.72754.56341.56341,0,0,1-.06543-.25293.26131.26131,0,0,1,.10937-.209l1.29785-.66015a.4219.4219,0,0,1,.28613-.08789.28181.28181,0,0,1,.17579.11035,4.85942,4.85942,0,0,0,.75976.83593,3.19889,3.19889,0,0,0,1.05567.59375,4.33016,4.33016,0,0,0,1.52929.19825,4.14788,4.14788,0,0,0,1.24317-.17578,2.20285,2.20285,0,0,0,.89062-.49512,1.04693,1.04693,0,0,0,.33008-.78125,1,1,0,0,0-.374-.76953,3.323,3.323,0,0,0-1.3418-.57227l-2.24414-.52832a5.01616,5.01616,0,0,1-2.45313-1.1875,2.70877,2.70877,0,0,1-.78125-1.98047,3.29909,3.29909,0,0,1,.583-1.93554,3.84858,3.84858,0,0,1,1.66113-1.30957,6.314,6.314,0,0,1,2.55176-.47266,6.23579,6.23579,0,0,1,2.81641.59375,4.185,4.185,0,0,1,1.73828,1.47461.64616.64616,0,0,1,.12109.24121c.02149.08789-.01855.16211-.12109.2207l-1.36426.68164a.32728.32728,0,0,1-.24219.03321.40363.40363,0,0,1-.19824-.14356A3.43747,3.43747,0,0,0,265.38344,148.48486Z"/><path class="cls-3" d="M273.78676,144.37061q0,.50683-.52832.50683h-2.002a.406.406,0,0,1-.33008-.11035.52223.52223,0,0,1-.08789-.33008v-2.15625q0-.41748.35254-.418h2.26563q.32958,0,.33007.374Zm-.04394,13.332a.48831.48831,0,0,1-.1211.374.59769.59769,0,0,1-.40722.11035h-1.91406a.34376.34376,0,0,1-.418-.39648V146.90088q0-.37353.33007-.374h2.22266c.20508,0,.30762.11816.30762.35253Z"/><path class="cls-3" d="M288.1852,146.23a.41764.41764,0,0,1,.12109.34082v1.23242a.519.519,0,0,1-.12109.39551.45.45,0,0,1-.3623.08789,3.18139,3.18139,0,0,0-.583-.03223,1.9802,1.9802,0,0,0-.49512.07618c-.38183.08886-.52832.25683-.44043.50683.04395.13184.09961.293.165.4834a2.084,2.084,0,0,1,.09961.68262,3.11068,3.11068,0,0,1-.56152,1.80371,3.78746,3.78746,0,0,1-1.70508,1.29785,7.35516,7.35516,0,0,1-2.85938.48438,8.34585,8.34585,0,0,0-1.52929.10937,1.99728,1.99728,0,0,0-.80274.29688.52139.52139,0,0,0-.24219.40722q0,.30909.38477.42871a5.91056,5.91056,0,0,0,1.19922.1875l3.03613.17578a5.22276,5.22276,0,0,1,3.14551.957,2.74785,2.74785,0,0,1,.99023,2.18945,3.08905,3.08905,0,0,1-1.55078,2.67285,8.192,8.192,0,0,1-4.499,1.02246,11.16728,11.16728,0,0,1-4.60938-.73633,2.34843,2.34843,0,0,1-1.55078-2.18945,1.69458,1.69458,0,0,1,.57227-1.29785,5.14388,5.14388,0,0,1,1.51758-.92383q.28564-.10986,0-.24219a2.79958,2.79958,0,0,1-.84668-.60449,1.25236,1.25236,0,0,1-.34082-.8916,1.21142,1.21142,0,0,1,.26367-.75879,2.74419,2.74419,0,0,1,.71484-.62695,5.77522,5.77522,0,0,1,1.02344-.50586.24069.24069,0,0,0,.14258-.1211c.02246-.05175-.01856-.09961-.1211-.14355a3.94056,3.94056,0,0,1-1.51757-1.2207,2.91979,2.91979,0,0,1-.52832-1.749,3.14483,3.14483,0,0,1,1.375-2.67285,6.72748,6.72748,0,0,1,3.99316-1.001,6.90113,6.90113,0,0,1,2.03516.26368,3.97384,3.97384,0,0,1,1.39648.72656.46469.46469,0,0,0,.30859.09863.40238.40238,0,0,0,.26368-.12109,3.81983,3.81983,0,0,1,.63769-.583,3.50833,3.50833,0,0,1,.792-.43945,2.10336,2.10336,0,0,1,.77051-.165A.483.483,0,0,1,288.1852,146.23Zm-8.50293,11.0332a1.85345,1.85345,0,0,0-.84668.165,2.02029,2.02029,0,0,0-.72558.52735,1.15637,1.15637,0,0,0-.29786.78125,1.3717,1.3717,0,0,0,.40723.99023,2.615,2.615,0,0,0,1.28711.627,10.19558,10.19558,0,0,0,2.28809.209,5.26547,5.26547,0,0,0,2.44238-.45117,1.42045,1.42045,0,0,0,.83594-1.3086,1.18041,1.18041,0,0,0-.45118-.94629,2.42528,2.42528,0,0,0-1.4414-.418Zm3.65234-5.74218a1.92078,1.92078,0,0,0,.61622-1.47364,2.09983,2.09983,0,0,0-.61622-1.584,2.67084,2.67084,0,0,0-1.91406-.59473,2.69894,2.69894,0,0,0-1.87011.59473,2.02764,2.02764,0,0,0-.66016,1.584,1.86106,1.86106,0,0,0,.66016,1.47364,2.767,2.767,0,0,0,1.87011.57226A2.73829,2.73829,0,0,0,283.33461,151.521Z"/><path class="cls-3" d="M290.1979,157.79053V146.90088q0-.37353.30859-.374h2.19922q.28564,0,.28613.33007v1.14453c0,.0879.02246.14258.06641.16407q.06591.03369.17578-.07617a12.51334,12.51334,0,0,1,1.23242-.94629,5.36132,5.36132,0,0,1,1.23145-.61621,4.23448,4.23448,0,0,1,1.38671-.21973,3.46316,3.46316,0,0,1,2.5625.93457,3.34943,3.34943,0,0,1,.93458,2.47559v8.00781a.40815.40815,0,0,1-.46192.46191h-2.02344a.39358.39358,0,0,1-.28613-.08789.43.43,0,0,1-.08789-.30859v-7.56739a1.82638,1.82638,0,0,0-.46191-1.33105,1.85758,1.85758,0,0,0-1.38672-.47266,2.8197,2.8197,0,0,0-.97852.165,3.46327,3.46327,0,0,0-.89062.49414,9.03473,9.03473,0,0,0-.94629.83594v7.832q0,.44092-.50586.44043h-1.958A.35018.35018,0,0,1,290.1979,157.79053Z"/><path class="cls-3" d="M340.52114,226.22852c.20605,0,.30859.11816.30859.35253v15.48731a.48829.48829,0,0,1-.12109.374.59773.59773,0,0,1-.40723.11035h-2.28808a.4707.4707,0,0,1-.35157-.09863.43755.43755,0,0,1-.08789-.29785V226.60254c0-.249.10938-.374.33008-.374Z"/><path class="cls-3" d="M343.95376,242.15625V231.2666q0-.37353.30859-.374h2.17773q.30762,0,.30762.33008v1.14453c0,.08789.02246.14258.06641.16406q.06591.03369.17578-.07617a11.44054,11.44054,0,0,1,1.19922-.94629,5.61686,5.61686,0,0,1,1.21-.62695,3.8112,3.8112,0,0,1,1.33105-.23145,3.37212,3.37212,0,0,1,2.02344.57227,2.97783,2.97783,0,0,1,1.10059,1.45214.10706.10706,0,0,0,.13183.06641.39011.39011,0,0,0,.17578-.11035,8.7467,8.7467,0,0,1,1.21-1.01172,5.98689,5.98689,0,0,1,1.32032-.69336,3.8893,3.8893,0,0,1,1.36425-.25293,3.26482,3.26482,0,0,1,2.46387.93457,3.51022,3.51022,0,0,1,.90137,2.541v7.94238a.40815.40815,0,0,1-.46192.46191h-2.02343a.39356.39356,0,0,1-.28614-.08789.43.43,0,0,1-.08789-.30859v-7.56738a1.91485,1.91485,0,0,0-.42871-1.33106,1.652,1.652,0,0,0-1.28711-.47265,2.5719,2.5719,0,0,0-.96875.18652,3.61852,3.61852,0,0,0-.83593.47266,6.73738,6.73738,0,0,0-.65918.57226.87027.87027,0,0,0-.209.29688.94058.94058,0,0,0-.05566.34082v7.43652a.40815.40815,0,0,1-.46192.46191h-2.02343a.33445.33445,0,0,1-.374-.39648v-7.56738a1.94527,1.94527,0,0,0-.418-1.33106,1.64694,1.64694,0,0,0-1.29882-.47265,2.62991,2.62991,0,0,0-1.375.374,6.86124,6.86124,0,0,0-1.35254,1.12109v7.832q0,.44092-.50586.44043h-1.958A.35018.35018,0,0,1,343.95376,242.15625Z"/><path class="cls-3" d="M366.92153,231.28906v.74805c0,.10254.0293.15723.08789.165a.25655.25655,0,0,0,.19824-.09961q.3296-.30762.75879-.6377a4.028,4.028,0,0,1,1.04492-.56152,4.29014,4.29014,0,0,1,1.4961-.23047,4.342,4.342,0,0,1,2.35351.64844,4.4963,4.4963,0,0,1,1.65039,1.958,7.79152,7.79152,0,0,1,.61621,3.31152,8.44355,8.44355,0,0,1-.61621,3.44336,4.5177,4.5177,0,0,1-1.70508,2.05664,4.90781,4.90781,0,0,1-4.14648.39551,4.12121,4.12121,0,0,1-1.34277-.83594q-.21974-.19776-.30762-.17578c-.05859.01465-.08789.11816-.08789.30859v4.04785q0,.35157-.30762.35157h-2.24414q-.30908,0-.30859-.35157V231.333a.51387.51387,0,0,1,.08789-.34082.46884.46884,0,0,1,.35254-.09961h2.00195Q366.921,230.89258,366.92153,231.28906Zm1.08887,9.28321a2.79329,2.79329,0,0,0,2.83789-.12012A2.89973,2.89973,0,0,0,371.86,239.044a7.08479,7.08479,0,0,0,.36328-2.47559,6.363,6.363,0,0,0-.36328-2.376,2.51974,2.51974,0,0,0-1.01172-1.26465,2.76906,2.76906,0,0,0-1.44043-.38476,2.70577,2.70577,0,0,0-1.28711.29687,2.41768,2.41768,0,0,0-.87989.75879,1.67635,1.67635,0,0,0-.31933.96778v5.126A4.46124,4.46124,0,0,0,368.0104,240.57227Z"/><path class="cls-3" d="M380.2311,242.06836a.51711.51711,0,0,1-.11035.374.55042.55042,0,0,1-.39551.11035h-1.93652q-.43946,0-.43946-.39648l.06543-15.55371q0-.37353.33008-.374h2.17871c.20508,0,.30762.11816.30762.35253Z"/><path class="cls-3" d="M385.819,239.24219a2.97254,2.97254,0,0,0,1.15527,1.12109,3.27709,3.27709,0,0,0,1.61719.40723,3.56141,3.56141,0,0,0,1.63867-.374,4.30471,4.30471,0,0,0,1.39746-1.21.29761.29761,0,0,1,.15332-.12109.41459.41459,0,0,1,.22071.07715l1.34179.59375q.28565.1333.06543.39648a6.62628,6.62628,0,0,1-1.41894,1.55078,4.83317,4.83317,0,0,1-1.67188.83594,7.69087,7.69087,0,0,1-2.05664.25293,5.95653,5.95653,0,0,1-2.99218-.74805,5.43775,5.43775,0,0,1-2.07911-2.0791,6.08468,6.08468,0,0,1-.75879-3.06836,6.60638,6.60638,0,0,1,.78125-3.2998,5.56761,5.56761,0,0,1,2.10059-2.14551,6.07466,6.07466,0,0,1,5.81934-.0332,5.04942,5.04942,0,0,1,1.94726,2.0791,7.06458,7.06458,0,0,1,.70313,3.28906,1.55181,1.55181,0,0,1-.03223.35254c-.02246.08789-.12891.13867-.31934.15332h-7.78808a.20385.20385,0,0,0-.18652.08789.50617.50617,0,0,0-.05567.26465A3.14716,3.14716,0,0,0,385.819,239.24219Zm4.7959-3.59766a.5551.5551,0,0,0,.29785-.05469c.05078-.03613.07617-.12109.07617-.25293a3.14312,3.14312,0,0,0-.30762-1.34179,2.76059,2.76059,0,0,0-.90234-1.08985,2.41735,2.41735,0,0,0-1.45117-.42871,2.7238,2.7238,0,0,0-2.541,1.57324,3.65641,3.65641,0,0,0-.34179,1.59473Z"/><path class="cls-3" d="M395.8727,242.15625V231.2666q0-.37353.30859-.374H398.359q.30762,0,.30762.33008v1.14453c0,.08789.02246.14258.0664.16406q.06592.03369.17578-.07617a11.44158,11.44158,0,0,1,1.19922-.94629,5.61686,5.61686,0,0,1,1.21-.62695,3.81122,3.81122,0,0,1,1.33106-.23145,3.37214,3.37214,0,0,1,2.02344.57227,2.97775,2.97775,0,0,1,1.10058,1.45214.10708.10708,0,0,0,.13184.06641.39021.39021,0,0,0,.17578-.11035,8.74553,8.74553,0,0,1,1.21-1.01172,5.98661,5.98661,0,0,1,1.32031-.69336,3.88932,3.88932,0,0,1,1.36426-.25293,3.26483,3.26483,0,0,1,2.46387.93457,3.51026,3.51026,0,0,1,.90136,2.541v7.94238a.40814.40814,0,0,1-.46191.46191h-2.02344a.39353.39353,0,0,1-.28613-.08789.43.43,0,0,1-.08789-.30859v-7.56738a1.9149,1.9149,0,0,0-.42871-1.33106,1.652,1.652,0,0,0-1.28711-.47265,2.57186,2.57186,0,0,0-.96875.18652,3.61838,3.61838,0,0,0-.83594.47266,6.73856,6.73856,0,0,0-.65918.57226.87036.87036,0,0,0-.209.29688.94057.94057,0,0,0-.05567.34082v7.43652a.40814.40814,0,0,1-.46191.46191h-2.02344a.33444.33444,0,0,1-.374-.39648v-7.56738a1.94527,1.94527,0,0,0-.418-1.33106,1.647,1.647,0,0,0-1.29883-.47265,2.62993,2.62993,0,0,0-1.375.374,6.86152,6.86152,0,0,0-1.35254,1.12109v7.832q0,.44092-.50586.44043h-1.958A.35019.35019,0,0,1,395.8727,242.15625Z"/><path class="cls-3" d="M418.77407,239.24219a2.97254,2.97254,0,0,0,1.15527,1.12109,3.27706,3.27706,0,0,0,1.61719.40723,3.56144,3.56144,0,0,0,1.63867-.374,4.30471,4.30471,0,0,0,1.39746-1.21.29761.29761,0,0,1,.15332-.12109.41459.41459,0,0,1,.22071.07715l1.34179.59375q.28564.1333.06543.39648a6.62628,6.62628,0,0,1-1.41894,1.55078,4.83317,4.83317,0,0,1-1.67188.83594,7.69087,7.69087,0,0,1-2.05664.25293,5.9566,5.9566,0,0,1-2.99219-.74805,5.43779,5.43779,0,0,1-2.0791-2.0791,6.08468,6.08468,0,0,1-.75879-3.06836,6.60638,6.60638,0,0,1,.78125-3.2998,5.56761,5.56761,0,0,1,2.10059-2.14551,6.07464,6.07464,0,0,1,5.81933-.0332,5.04944,5.04944,0,0,1,1.94727,2.0791,7.06458,7.06458,0,0,1,.70313,3.28906,1.55181,1.55181,0,0,1-.03223.35254c-.02246.08789-.12891.13867-.31934.15332h-7.78808a.20388.20388,0,0,0-.18653.08789.50617.50617,0,0,0-.05566.26465A3.14716,3.14716,0,0,0,418.77407,239.24219Zm4.7959-3.59766a.5551.5551,0,0,0,.29785-.05469c.05078-.03613.07617-.12109.07617-.25293a3.14312,3.14312,0,0,0-.30762-1.34179,2.76076,2.76076,0,0,0-.90234-1.08985,2.41735,2.41735,0,0,0-1.45117-.42871,2.7238,2.7238,0,0,0-2.541,1.57324,3.65642,3.65642,0,0,0-.3418,1.59473Z"/><path class="cls-3" d="M428.82876,242.15625V231.2666q0-.37353.30859-.374h2.19922q.28564,0,.28613.33008v1.14453c0,.08789.02246.14258.06641.16406q.06591.03369.17578-.07617a12.51334,12.51334,0,0,1,1.23242-.94629,5.36172,5.36172,0,0,1,1.23145-.61621,4.23448,4.23448,0,0,1,1.38671-.21973,3.4632,3.4632,0,0,1,2.5625.93457,3.34944,3.34944,0,0,1,.93457,2.47559v8.00781a.40814.40814,0,0,1-.46191.46191h-2.02344a.39353.39353,0,0,1-.28613-.08789.43.43,0,0,1-.08789-.30859v-7.56738a1.82639,1.82639,0,0,0-.46191-1.33106,1.85757,1.85757,0,0,0-1.38672-.47265,2.81947,2.81947,0,0,0-.97852.165,3.4625,3.4625,0,0,0-.89062.49414,9.03338,9.03338,0,0,0-.94629.83593v7.832q0,.44092-.50586.44043h-1.958A.35018.35018,0,0,1,428.82876,242.15625Z"/><path class="cls-3" d="M445.76919,232.89453c-.14747,0-.22071.08106-.22071.24219v5.874a1.59546,1.59546,0,0,0,.35254,1.18848,1.56663,1.56663,0,0,0,1.09961.3291h1.29785a.302.302,0,0,1,.3086.30859l-.02247,1.14356q0,.353-.418.44043-.3296.044-.76954.07715c-.29394.02148-.583.03613-.86914.04394q-.42919.01026-.78125.01074a3.33547,3.33547,0,0,1-2.26562-.69335,2.64275,2.64275,0,0,1-.792-2.10059v-6.57813c0-.19043-.08789-.28613-.26465-.28613h-1.47363c-.23438,0-.35157-.10937-.35157-.33008v-1.38574c0-.19043.10938-.28613.33008-.28613h1.62793c.13184,0,.19727-.07324.19727-.21973l.28613-3.38769c.01465-.23438.11719-.35254.30859-.35254h1.958q.30762,0,.30762.374v3.36621a.17548.17548,0,0,0,.19824.19824h2.48535c.22071,0,.33008.10254.33008.30762v1.38574c0,.22071-.124.33008-.374.33008Z"/><path class="cls-3" d="M455.47036,242.3877a4.94339,4.94339,0,0,1-2.002.38476,3.73931,3.73931,0,0,1-2.65039-.89062,3.02192,3.02192,0,0,1-.957-2.32129,3.22548,3.22548,0,0,1,.72559-2.10059,4.75584,4.75584,0,0,1,2.1123-1.39746,11.22357,11.22357,0,0,1,3.32227-.59375l1.09961-.06641a.67412.67412,0,0,0,.24219-.08789.25783.25783,0,0,0,.10937-.24218v-.50586a1.97256,1.97256,0,0,0-.57129-1.50684,2.21993,2.21993,0,0,0-1.584-.53906,3.14583,3.14583,0,0,0-1.44141.34082,2.98592,2.98592,0,0,0-1.15527,1.11133.40519.40519,0,0,1-.14258.17578.40971.40971,0,0,1-.27539,0l-1.84766-.46192a.33117.33117,0,0,1-.165-.13183c-.03711-.0586-.01074-.17578.07715-.35157a3.95891,3.95891,0,0,1,1.88086-1.89257,7.18154,7.18154,0,0,1,3.20117-.6377,6.85912,6.85912,0,0,1,2.73926.46192,3.19538,3.19538,0,0,1,1.52832,1.28711,3.78306,3.78306,0,0,1,.48438,1.94726v7.74316a.57577.57577,0,0,1-.07715.3418.36313.36313,0,0,1-.29688.09863h-1.87011a.30318.30318,0,0,1-.28614-.15429.91579.91579,0,0,1-.10937-.374l-.04492-.66015c-.0293-.249-.168-.25586-.418-.02149A6.19713,6.19713,0,0,1,455.47036,242.3877Zm1.67187-5.53321-.90137.06641a7.305,7.305,0,0,0-1.35351.209,4.76908,4.76908,0,0,0-1.14356.43946,2.41376,2.41376,0,0,0-.792.68261,1.57938,1.57938,0,0,0-.29687.957,1.45261,1.45261,0,0,0,.53906,1.1875,2.24218,2.24218,0,0,0,1.46289.44043,2.99413,2.99413,0,0,0,1.09961-.19824,3.20263,3.20263,0,0,0,.87988-.50586,3.091,3.091,0,0,0,.60547-.64941,1.2182,1.2182,0,0,0,.23047-.69238v-1.5625C457.47231,236.96484,457.36294,236.83984,457.14223,236.85449Z"/><path class="cls-3" d="M466.86684,232.89453c-.14746,0-.2207.08106-.2207.24219v5.874a1.59546,1.59546,0,0,0,.35254,1.18848,1.56661,1.56661,0,0,0,1.09961.3291h1.29785a.302.302,0,0,1,.30859.30859l-.02246,1.14356q0,.353-.418.44043-.32958.044-.76953.07715c-.29394.02148-.583.03613-.86914.04394q-.4292.01026-.78125.01074a3.33547,3.33547,0,0,1-2.26562-.69335,2.64275,2.64275,0,0,1-.792-2.10059v-6.57813c0-.19043-.08789-.28613-.26465-.28613h-1.47363c-.23437,0-.35156-.10937-.35156-.33008v-1.38574c0-.19043.10937-.28613.33008-.28613h1.62793c.13183,0,.19726-.07324.19726-.21973l.28614-3.38769c.01464-.23438.11718-.35254.30859-.35254h1.958q.30762,0,.30761.374v3.36621a.17548.17548,0,0,0,.19825.19824h2.48535c.2207,0,.33008.10254.33008.30762v1.38574c0,.22071-.124.33008-.374.33008Z"/><path class="cls-3" d="M474.67641,228.73633q0,.50683-.52832.50683h-2.002a.406.406,0,0,1-.33008-.11035.52223.52223,0,0,1-.08789-.33008v-2.15625q0-.41748.35254-.418h2.26562q.32959,0,.33008.374Zm-.04394,13.332a.48829.48829,0,0,1-.1211.374.59769.59769,0,0,1-.40722.11035h-1.91407a.34377.34377,0,0,1-.418-.39648V231.2666q0-.37353.33008-.374h2.22266c.20508,0,.30762.11816.30762.35254Z"/><path class="cls-3" d="M479.58266,242.00293a5.44983,5.44983,0,0,1-2.03515-2.123,6.34905,6.34905,0,0,1-.73731-3.09082,6.51941,6.51941,0,0,1,.75879-3.20117,5.54088,5.54088,0,0,1,2.06836-2.14551,6.22331,6.22331,0,0,1,6.0166.01172,5.4172,5.4172,0,0,1,2.02441,2.15528,6.67057,6.67057,0,0,1,.72559,3.15722,6.40544,6.40544,0,0,1-.73633,3.11328,5.46355,5.46355,0,0,1-2.03515,2.123,6.32991,6.32991,0,0,1-6.04981,0Zm4.61914-1.66113a2.89156,2.89156,0,0,0,.96875-1.38575,7.7001,7.7001,0,0,0-.01172-4.499,3.02543,3.02543,0,0,0-.97851-1.4082,2.51385,2.51385,0,0,0-1.5625-.48438,2.569,2.569,0,0,0-1.56153.48438,2.95131,2.95131,0,0,0-1.001,1.4082,6.57356,6.57356,0,0,0-.34082,2.26563,6.41065,6.41065,0,0,0,.34082,2.23339,2.8885,2.8885,0,0,0,1.001,1.38575,2.85291,2.85291,0,0,0,3.14551,0Z"/><path class="cls-3" d="M490.58266,242.15625V231.2666q0-.37353.3086-.374h2.19921q.28564,0,.28614.33008v1.14453c0,.08789.02246.14258.0664.16406q.06592.03369.17578-.07617a12.5134,12.5134,0,0,1,1.23243-.94629,5.36165,5.36165,0,0,1,1.23144-.61621,4.23454,4.23454,0,0,1,1.38672-.21973,3.46323,3.46323,0,0,1,2.5625.93457,3.34944,3.34944,0,0,1,.93457,2.47559v8.00781a.40814.40814,0,0,1-.46191.46191H498.4811a.39352.39352,0,0,1-.28613-.08789.43.43,0,0,1-.08789-.30859v-7.56738a1.82636,1.82636,0,0,0-.46192-1.33106,1.85756,1.85756,0,0,0-1.38672-.47265,2.81945,2.81945,0,0,0-.97851.165,3.46272,3.46272,0,0,0-.89063.49414,9.03541,9.03541,0,0,0-.94629.83593v7.832q0,.44092-.50586.44043h-1.958A.35019.35019,0,0,1,490.58266,242.15625Z"/><path class="cls-3" d="M527.92739,312.3252a.32478.32478,0,0,1,.02246.30859l-5.39063,15.46582a.5768.5768,0,0,1-.61523.418h-2.31055q-.52734,0-.63769-.39649l-5.32422-15.46582a.36144.36144,0,0,1,.02246-.33007.316.316,0,0,1,.28516-.13184h2.61816a.39758.39758,0,0,1,.418.33008l3.93848,11.87988c.10253.26465.19824.25684.28613-.02148l3.89355-11.8584a.41109.41109,0,0,1,.44043-.33008h2.06739A.31777.31777,0,0,1,527.92739,312.3252Z"/><path class="cls-3" d="M531.24965,325.207a2.9725,2.9725,0,0,0,1.15528,1.12109,3.27694,3.27694,0,0,0,1.61718.40723,3.56144,3.56144,0,0,0,1.63868-.374,4.305,4.305,0,0,0,1.39746-1.21.29756.29756,0,0,1,.15332-.1211.41475.41475,0,0,1,.2207.07715l1.3418.59375q.28565.13331.06543.39649a6.62651,6.62651,0,0,1-1.41895,1.55078,4.83329,4.83329,0,0,1-1.67187.83594,7.69134,7.69134,0,0,1-2.05664.25292,5.95664,5.95664,0,0,1-2.99219-.748,5.43793,5.43793,0,0,1-2.0791-2.0791,6.08471,6.08471,0,0,1-.75879-3.06836,6.60629,6.60629,0,0,1,.78125-3.29981,5.56765,5.56765,0,0,1,2.10058-2.14551,6.07473,6.07473,0,0,1,5.81934-.0332,5.04957,5.04957,0,0,1,1.94727,2.0791,7.06465,7.06465,0,0,1,.70312,3.28907,1.55114,1.55114,0,0,1-.03223.35253c-.02246.0879-.1289.13868-.31933.15332h-7.78809a.20386.20386,0,0,0-.18652.0879.50616.50616,0,0,0-.05566.26464A3.1471,3.1471,0,0,0,531.24965,325.207Zm4.7959-3.59765a.555.555,0,0,0,.29785-.05469c.05079-.03614.07618-.1211.07618-.25293a3.14313,3.14313,0,0,0-.30762-1.3418,2.7606,2.7606,0,0,0-.90235-1.08984,2.41726,2.41726,0,0,0-1.45117-.42871,2.72377,2.72377,0,0,0-2.541,1.57324,3.65639,3.65639,0,0,0-.3418,1.59473Z"/><path class="cls-3" d="M541.39126,328.419a.43752.43752,0,0,1-.0879-.29786V317.23145q0-.37355.3086-.374h2.13379q.30762,0,.30761.33008v1.3418c0,.08789.0293.14355.0879.165.05859.02246.125-.01075.19824-.09864a5.54184,5.54184,0,0,1,1.04492-1.06738,4.80733,4.80733,0,0,1,1.14453-.66016,3.07208,3.07208,0,0,1,1.13281-.23046q.79248,0,.792.35156v2.1123q0,.30909-.28614.26367a4.29617,4.29617,0,0,0-.69336-.12109c-.24121-.02148-.46582-.03223-.6709-.03223a2.56282,2.56282,0,0,0-.89062.17579,3.08624,3.08624,0,0,0-.86914.49511,2.97182,2.97182,0,0,0-.6377.69239,1.398,1.398,0,0,0-.24218.7705v6.73145q0,.44091-.50586.44043h-1.958A.40013.40013,0,0,1,541.39126,328.419Z"/><path class="cls-3" d="M553.24965,314.70117q0,.50684-.52832.50684h-2.00195a.406.406,0,0,1-.33008-.11035.52227.52227,0,0,1-.08789-.33008v-2.15625q0-.41748.35254-.418h2.26563q.32958,0,.33007.374Zm-.04394,13.332a.48833.48833,0,0,1-.1211.374.59769.59769,0,0,1-.40722.11035h-1.91406a.34376.34376,0,0,1-.418-.39649V317.23145q0-.37355.33008-.374h2.22265c.20508,0,.30762.11817.30762.35254Z"/><path class="cls-3" d="M562.70961,316.957a.33493.33493,0,0,1,.0879.23047v1.38574c0,.19141-.11036.28614-.33008.28614h-2.0459a.1946.1946,0,0,0-.21973.21972v9.06445c0,.25-.11035.374-.33008.374h-2.22265q-.30762,0-.30762-.35156v-9.1084c0-.13184-.05176-.19824-.1543-.19824H555.4059c-.2207,0-.33007-.09473-.33007-.28614V317.1875a.36565.36565,0,0,1,.07617-.23047.33034.33034,0,0,1,.27539-.09961h1.67187c.16114,0,.24219-.09472.24219-.28613V315.1416a2.91835,2.91835,0,0,1,.78125-2.17773,3.07625,3.07625,0,0,1,2.25488-.77051h2.08985q.41748,0,.418.39648l.02246,1.23145a.32674.32674,0,0,1-.07715.2207.2926.2926,0,0,1-.23145.08789h-1.29785a1.01925,1.01925,0,0,0-.86914.39551,1.64083,1.64083,0,0,0-.29687,1.01172v1.10059c0,.14648.08007.21972.24218.21972H562.445A.334.334,0,0,1,562.70961,316.957Zm4.83985-2.25586q0,.50684-.52832.50684h-2.00195a.40593.40593,0,0,1-.33008-.11035.52221.52221,0,0,1-.08789-.33008v-2.15625q0-.41748.35254-.418h2.26562q.3296,0,.33008.374Zm-.04395,13.332a.48833.48833,0,0,1-.12109.374.59773.59773,0,0,1-.40723.11035h-1.91406a.34376.34376,0,0,1-.418-.39649V317.23145q0-.37355.33008-.374h2.22266c.20507,0,.30761.11817.30761.35254Z"/><path class="cls-3" d="M577.71352,317.08887a4.7675,4.7675,0,0,1,1.59473,1.166,5.47742,5.47742,0,0,1,.957,1.50684q.13184.39551-.21973.418l-1.93652.24219a.25337.25337,0,0,1-.30762-.19825,6.93591,6.93591,0,0,0-.59375-.8584,2.46851,2.46851,0,0,0-.7041-.59375,1.97331,1.97331,0,0,0-.96875-.21972,2.62382,2.62382,0,0,0-1.55078.47265,2.9876,2.9876,0,0,0-1.03418,1.39747,6.23227,6.23227,0,0,0-.36231,2.26562,5.96417,5.96417,0,0,0,.38477,2.28809,3.08687,3.08687,0,0,0,1.06738,1.39746,2.78223,2.78223,0,0,0,1.62793.47265,2.49956,2.49956,0,0,0,1.62793-.51758,5.3313,5.3313,0,0,0,1.1875-1.44042.29447.29447,0,0,1,.13184-.11036.423.423,0,0,1,.2207.02246l1.38574.374q.21974.06591.13184.374a6.0592,6.0592,0,0,1-.62695,1.07813,5.17337,5.17337,0,0,1-1.001,1.04492,4.9452,4.9452,0,0,1-1.41895.76953,5.52554,5.52554,0,0,1-1.88085.29687,5.7723,5.7723,0,0,1-2.96973-.75878,5.36285,5.36285,0,0,1-2.03516-2.11231,6.43736,6.43736,0,0,1-.7373-3.13476,6.54491,6.54491,0,0,1,.748-3.17872,5.48622,5.48622,0,0,1,2.0459-2.1455,5.672,5.672,0,0,1,2.94825-.76953A5.37332,5.37332,0,0,1,577.71352,317.08887Z"/><path class="cls-3" d="M587.12856,328.35254a4.94321,4.94321,0,0,1-2.00195.38476,3.73928,3.73928,0,0,1-2.65039-.89062,3.02189,3.02189,0,0,1-.957-2.32129,3.22547,3.22547,0,0,1,.72558-2.10059,4.75594,4.75594,0,0,1,2.11231-1.39746,11.22382,11.22382,0,0,1,3.32226-.59375l1.09961-.0664a.67431.67431,0,0,0,.24219-.08789.25786.25786,0,0,0,.10937-.24219v-.50586a1.97256,1.97256,0,0,0-.57129-1.50684,2.21991,2.21991,0,0,0-1.584-.53906,3.14586,3.14586,0,0,0-1.44141.34082,2.986,2.986,0,0,0-1.15527,1.11133.40519.40519,0,0,1-.14258.17578.40971.40971,0,0,1-.27539,0l-1.84765-.46191a.33115.33115,0,0,1-.165-.13184c-.03711-.05859-.01075-.17578.07714-.35156a3.95894,3.95894,0,0,1,1.88086-1.89258,7.1817,7.1817,0,0,1,3.20118-.63769,6.85908,6.85908,0,0,1,2.73925.46191,3.19544,3.19544,0,0,1,1.52832,1.28711,3.78308,3.78308,0,0,1,.48438,1.94726v7.74317a.57579.57579,0,0,1-.07715.3418.36312.36312,0,0,1-.29687.09863h-1.87012a.30314.30314,0,0,1-.28613-.1543.91563.91563,0,0,1-.10938-.374l-.04492-.66016c-.0293-.249-.168-.25586-.418-.02148A6.1971,6.1971,0,0,1,587.12856,328.35254Zm1.67188-5.5332-.90137.0664a7.305,7.305,0,0,0-1.35352.209,4.76874,4.76874,0,0,0-1.14355.43945,2.41357,2.41357,0,0,0-.792.68262,1.5793,1.5793,0,0,0-.29688.957,1.45265,1.45265,0,0,0,.53906,1.1875,2.24225,2.24225,0,0,0,1.46289.44043,2.99434,2.99434,0,0,0,1.09961-.19824,3.20334,3.20334,0,0,0,.87989-.50586,3.09066,3.09066,0,0,0,.60546-.64942,1.2182,1.2182,0,0,0,.23047-.69238v-1.5625C589.13051,322.92969,589.02114,322.80469,588.80044,322.81934Z"/><path class="cls-3" d="M598.526,318.85938c-.14746,0-.2207.08105-.2207.24218v5.874a1.59545,1.59545,0,0,0,.35254,1.18847,1.56661,1.56661,0,0,0,1.09961.3291h1.29785a.302.302,0,0,1,.30859.3086l-.02246,1.14355q0,.353-.418.44043-.32958.04395-.76953.07715c-.29394.02149-.583.03613-.86914.04395q-.42919.01024-.78125.01074a3.33548,3.33548,0,0,1-2.26562-.69336,2.64272,2.64272,0,0,1-.792-2.10059v-6.57812c0-.19043-.08789-.28613-.26465-.28613h-1.47363c-.23437,0-.35156-.10938-.35156-.33008v-1.38575c0-.19043.10937-.28613.33008-.28613h1.62793c.13183,0,.19726-.07324.19726-.21972l.28614-3.3877c.01464-.23438.11718-.35254.30859-.35254h1.958q.30762,0,.30761.374v3.36622a.17549.17549,0,0,0,.19825.19824h2.48535c.2207,0,.33008.10254.33008.30761v1.38575c0,.2207-.124.33008-.374.33008Z"/><path class="cls-3" d="M606.33559,314.70117q0,.50684-.52832.50684h-2.00195a.406.406,0,0,1-.33008-.11035.52227.52227,0,0,1-.08789-.33008v-2.15625q0-.41748.35254-.418h2.26562q.3296,0,.33008.374Zm-.04394,13.332a.48833.48833,0,0,1-.1211.374.59769.59769,0,0,1-.40722.11035h-1.91407a.34377.34377,0,0,1-.418-.39649V317.23145q0-.37355.33008-.374H605.984c.20508,0,.30762.11817.30762.35254Z"/><path class="cls-3" d="M611.24184,327.96777a5.44987,5.44987,0,0,1-2.03515-2.123,6.3491,6.3491,0,0,1-.73731-3.09082,6.51945,6.51945,0,0,1,.75879-3.20118,5.54086,5.54086,0,0,1,2.06836-2.1455,6.22331,6.22331,0,0,1,6.0166.01172,5.41717,5.41717,0,0,1,2.02441,2.15527,6.67061,6.67061,0,0,1,.72559,3.15723,6.40549,6.40549,0,0,1-.73633,3.11328,5.46366,5.46366,0,0,1-2.03515,2.123,6.32991,6.32991,0,0,1-6.04981,0Zm4.61914-1.66113a2.89153,2.89153,0,0,0,.96875-1.38574,7.7001,7.7001,0,0,0-.01172-4.499,3.02547,3.02547,0,0,0-.97851-1.40821,2.5139,2.5139,0,0,0-1.5625-.48437,2.569,2.569,0,0,0-1.56153.48437,2.95134,2.95134,0,0,0-1.001,1.40821,6.5735,6.5735,0,0,0-.34082,2.26562,6.41075,6.41075,0,0,0,.34082,2.2334,2.88847,2.88847,0,0,0,1.001,1.38574,2.85285,2.85285,0,0,0,3.14551,0Z"/><path class="cls-3" d="M622.24086,328.12109V317.23145q0-.37355.3086-.374h2.19922q.28565,0,.28613.33008V318.332c0,.08789.02246.14258.06641.16406q.06591.03369.17578-.07617a12.51334,12.51334,0,0,1,1.23242-.94629,5.36226,5.36226,0,0,1,1.23144-.61621,4.23485,4.23485,0,0,1,1.38672-.21972,3.46318,3.46318,0,0,1,2.5625.93457,3.3494,3.3494,0,0,1,.93457,2.47558v8.00781a.40815.40815,0,0,1-.46191.46192H630.1393a.39358.39358,0,0,1-.28613-.08789.43005.43005,0,0,1-.08789-.3086v-7.56738a1.82635,1.82635,0,0,0-.46192-1.33105,1.85754,1.85754,0,0,0-1.38671-.47266,2.8197,2.8197,0,0,0-.97852.165,3.4625,3.4625,0,0,0-.89062.49414,9.03242,9.03242,0,0,0-.94629.83594v7.832q0,.44091-.50586.44043h-1.958A.35019.35019,0,0,1,622.24086,328.12109Z"/><path class="cls-3" d="M663.20669,415.08691V399.57715q0-.37354.35156-.374H667.276a.68655.68655,0,0,1,.31934.05567.35775.35775,0,0,1,.14258.25293L671.61,409.89551c.04394.11719.0957.17285.15429.165s.11035-.06934.1543-.1875l3.76172-10.252q.13183-.41748.44043-.418h3.84961c.20508,0,.30761.11817.30761.35254v15.50977q0,.46143-.48339.46191h-2.3545a.43758.43758,0,0,1-.31836-.09863.40341.40341,0,0,1-.09961-.29785V403.625c0-.08789-.02148-.12793-.06542-.12109-.04395.00781-.08106.05566-.11036.14355l-4.17968,11.54981a.433.433,0,0,1-.44043.33007h-1.56153a.45984.45984,0,0,1-.48437-.33007l-4.13574-11.418c-.0293-.10254-.06641-.15039-.11036-.14258-.04394.00683-.06543.0625-.06543.165v11.374a.42831.42831,0,0,1-.0664.27442c-.04395.05175-.14649.07714-.30762.07714h-1.87012C663.34536,415.52734,663.20669,415.38086,663.20669,415.08691Z"/><path class="cls-3" d="M688.1979,415.3623a4.94322,4.94322,0,0,1-2.002.38477,3.73931,3.73931,0,0,1-2.65039-.89062,3.02192,3.02192,0,0,1-.957-2.32129,3.22548,3.22548,0,0,1,.72559-2.10059,4.75584,4.75584,0,0,1,2.1123-1.39746,11.22357,11.22357,0,0,1,3.32227-.59375l1.09961-.06641a.674.674,0,0,0,.24218-.08789.25782.25782,0,0,0,.10938-.24218V407.541a1.97253,1.97253,0,0,0-.57129-1.50684,2.2199,2.2199,0,0,0-1.584-.53906,3.14583,3.14583,0,0,0-1.44141.34082,2.98592,2.98592,0,0,0-1.15527,1.11133.40519.40519,0,0,1-.14258.17578.40971.40971,0,0,1-.27539,0l-1.84766-.46192a.33113.33113,0,0,1-.165-.13183c-.03711-.0586-.01074-.17578.07715-.35157a3.95891,3.95891,0,0,1,1.88086-1.89257,7.18151,7.18151,0,0,1,3.20117-.6377,6.85912,6.85912,0,0,1,2.73926.46192,3.19547,3.19547,0,0,1,1.52832,1.2871,3.78312,3.78312,0,0,1,.48437,1.94727v7.74316a.5758.5758,0,0,1-.07714.3418.36313.36313,0,0,1-.29688.09863h-1.87012a.30317.30317,0,0,1-.28613-.15429.91583.91583,0,0,1-.10937-.374l-.04493-.66015c-.02929-.249-.168-.25586-.418-.02149A6.19684,6.19684,0,0,1,688.1979,415.3623Zm1.67187-5.5332-.90137.06641a7.30414,7.30414,0,0,0-1.35351.209,4.76908,4.76908,0,0,0-1.14356.43946,2.41376,2.41376,0,0,0-.792.68261,1.57938,1.57938,0,0,0-.29687.957,1.45263,1.45263,0,0,0,.53906,1.1875,2.24218,2.24218,0,0,0,1.46289.44043,2.99417,2.99417,0,0,0,1.09961-.19824,3.20263,3.20263,0,0,0,.87988-.50586,3.091,3.091,0,0,0,.60547-.64941,1.21821,1.21821,0,0,0,.23047-.69239v-1.5625C690.19985,409.93945,690.09047,409.81445,689.86977,409.8291Z"/><path class="cls-3" d="M698.58266,401.71094q0,.50684-.52832.50683h-2.002a.406.406,0,0,1-.33008-.11035.52223.52223,0,0,1-.08789-.33008v-2.15625q0-.41748.35254-.418h2.26562q.3296,0,.33008.374Zm-.04394,13.332a.48829.48829,0,0,1-.1211.374.59769.59769,0,0,1-.40722.11035h-1.91407a.34377.34377,0,0,1-.418-.39648V404.24121q0-.37353.33008-.374h2.22266c.20508,0,.30762.11816.30762.35254Z"/><path class="cls-3" d="M701.3102,415.13086V404.24121q0-.37353.30859-.374H703.818q.28564,0,.28614.33008v1.14453c0,.08789.02246.14258.0664.16406q.06592.03369.17578-.07617a12.51222,12.51222,0,0,1,1.23243-.94629,5.36165,5.36165,0,0,1,1.23144-.61621,4.23454,4.23454,0,0,1,1.38672-.21973,3.4632,3.4632,0,0,1,2.5625.93457,3.34942,3.34942,0,0,1,.93457,2.47559v8.00781a.40814.40814,0,0,1-.46191.46191h-2.02344a.39352.39352,0,0,1-.28613-.08789.43.43,0,0,1-.0879-.30859v-7.56738a1.82635,1.82635,0,0,0-.46191-1.33106,1.85756,1.85756,0,0,0-1.38672-.47265,2.81968,2.81968,0,0,0-.97851.165,3.46306,3.46306,0,0,0-.89063.49415,9.03541,9.03541,0,0,0-.94629.83593v7.832q0,.44092-.50586.44043h-1.958A.35019.35019,0,0,1,701.3102,415.13086Z"/><path class="cls-3" d="M718.25063,405.86914c-.14746,0-.2207.08106-.2207.24219v5.874a1.59543,1.59543,0,0,0,.35254,1.18848,1.56666,1.56666,0,0,0,1.09961.3291h1.29785a.302.302,0,0,1,.30859.30859l-.02246,1.14356q0,.353-.418.44043-.3296.04393-.76953.07715c-.29395.02148-.583.03613-.86914.04394q-.42919.01026-.78125.01074a3.33547,3.33547,0,0,1-2.26563-.69336,2.64271,2.64271,0,0,1-.792-2.10058v-6.57813c0-.19043-.08789-.28613-.26465-.28613h-1.47363c-.23437,0-.35156-.10937-.35156-.33008v-1.38574c0-.19043.10937-.28613.33008-.28613h1.62793c.13183,0,.19726-.07324.19726-.21973l.28613-3.38769c.01465-.23438.11719-.35254.3086-.35254h1.958q.3076,0,.30761.374v3.36621a.17548.17548,0,0,0,.19825.19824h2.48535c.2207,0,.33008.10254.33008.30762v1.38574c0,.22071-.124.33008-.374.33008Z"/><path class="cls-3" d="M725.59829,412.2168a2.97254,2.97254,0,0,0,1.15527,1.12109,3.27706,3.27706,0,0,0,1.61719.40723,3.56144,3.56144,0,0,0,1.63867-.374,4.30471,4.30471,0,0,0,1.39746-1.21.29757.29757,0,0,1,.15332-.12109.41454.41454,0,0,1,.2207.07715l1.3418.59375q.28565.13329.06543.39648a6.62628,6.62628,0,0,1-1.41894,1.55078,4.83317,4.83317,0,0,1-1.67188.83594,7.69092,7.69092,0,0,1-2.05664.25293,5.95657,5.95657,0,0,1-2.99219-.74805,5.43779,5.43779,0,0,1-2.0791-2.0791,6.08468,6.08468,0,0,1-.75879-3.06836,6.60638,6.60638,0,0,1,.78125-3.2998,5.56754,5.56754,0,0,1,2.10059-2.14551,6.07464,6.07464,0,0,1,5.81933-.0332,5.04944,5.04944,0,0,1,1.94727,2.0791,7.06458,7.06458,0,0,1,.70312,3.28906,1.5519,1.5519,0,0,1-.03222.35254c-.02246.08789-.12891.13867-.31934.15332h-7.78808a.20386.20386,0,0,0-.18653.08789.50617.50617,0,0,0-.05566.26465A3.14716,3.14716,0,0,0,725.59829,412.2168Zm4.7959-3.59766a.5551.5551,0,0,0,.29785-.05469c.05078-.03613.07617-.12109.07617-.25293a3.14312,3.14312,0,0,0-.30762-1.34179,2.76076,2.76076,0,0,0-.90234-1.08985,2.41737,2.41737,0,0,0-1.45117-.42871,2.7238,2.7238,0,0,0-2.541,1.57324,3.65642,3.65642,0,0,0-.3418,1.59473Z"/><path class="cls-3" d="M735.652,415.13086V404.24121q0-.37353.30859-.374h2.19922q.28565,0,.28613.33008v1.14453c0,.08789.02246.14258.06641.16406q.06591.03369.17578-.07617a12.51334,12.51334,0,0,1,1.23242-.94629,5.36192,5.36192,0,0,1,1.23145-.61621,4.2345,4.2345,0,0,1,1.38672-.21973,3.4632,3.4632,0,0,1,2.5625.93457,3.34946,3.34946,0,0,1,.93457,2.47559v8.00781a.40815.40815,0,0,1-.46192.46191h-2.02343a.39356.39356,0,0,1-.28614-.08789.43.43,0,0,1-.08789-.30859v-7.56738a1.82639,1.82639,0,0,0-.46191-1.33106,1.85757,1.85757,0,0,0-1.38672-.47265,2.81974,2.81974,0,0,0-.97852.165,3.463,3.463,0,0,0-.89062.49415,9.03338,9.03338,0,0,0-.94629.83593v7.832q0,.44092-.50586.44043h-1.958A.35018.35018,0,0,1,735.652,415.13086Z"/><path class="cls-3" d="M753.47133,415.3623a4.94314,4.94314,0,0,1-2.00195.38477,3.73929,3.73929,0,0,1-2.65039-.89062,3.02192,3.02192,0,0,1-.957-2.32129,3.22553,3.22553,0,0,1,.72558-2.10059,4.75594,4.75594,0,0,1,2.11231-1.39746,11.22356,11.22356,0,0,1,3.32226-.59375l1.09961-.06641a.67412.67412,0,0,0,.24219-.08789.25784.25784,0,0,0,.10938-.24218V407.541a1.97253,1.97253,0,0,0-.57129-1.50684,2.21991,2.21991,0,0,0-1.584-.53906,3.14579,3.14579,0,0,0-1.4414.34082,2.986,2.986,0,0,0-1.15528,1.11133.40511.40511,0,0,1-.14257.17578.40973.40973,0,0,1-.2754,0l-1.84765-.46192a.33113.33113,0,0,1-.165-.13183c-.03711-.0586-.01074-.17578.07715-.35157a3.95891,3.95891,0,0,1,1.88086-1.89257,7.18151,7.18151,0,0,1,3.20117-.6377,6.85912,6.85912,0,0,1,2.73926.46192,3.19547,3.19547,0,0,1,1.52832,1.2871,3.78321,3.78321,0,0,1,.48437,1.94727v7.74316a.57571.57571,0,0,1-.07715.3418.36311.36311,0,0,1-.29687.09863h-1.87012a.30316.30316,0,0,1-.28613-.15429.916.916,0,0,1-.10938-.374l-.04492-.66015c-.02929-.249-.168-.25586-.418-.02149A6.19651,6.19651,0,0,1,753.47133,415.3623Zm1.67188-5.5332-.90137.06641a7.30388,7.30388,0,0,0-1.35351.209,4.76908,4.76908,0,0,0-1.14356.43946,2.41366,2.41366,0,0,0-.792.68261,1.57939,1.57939,0,0,0-.29688.957,1.45263,1.45263,0,0,0,.53907,1.1875,2.24218,2.24218,0,0,0,1.46289.44043,2.99421,2.99421,0,0,0,1.09961-.19824,3.20263,3.20263,0,0,0,.87988-.50586,3.091,3.091,0,0,0,.60547-.64941,1.21828,1.21828,0,0,0,.23047-.69239v-1.5625C755.47329,409.93945,755.36391,409.81445,755.14321,409.8291Z"/><path class="cls-3" d="M760.9518,415.13086V404.24121q0-.37353.3086-.374h2.19921q.28565,0,.28614.33008v1.14453c0,.08789.02246.14258.0664.16406q.06592.03369.17579-.07617a12.51216,12.51216,0,0,1,1.23242-.94629,5.36165,5.36165,0,0,1,1.23144-.61621,4.23454,4.23454,0,0,1,1.38672-.21973,3.4632,3.4632,0,0,1,2.5625.93457,3.34942,3.34942,0,0,1,.93457,2.47559v8.00781a.40814.40814,0,0,1-.46191.46191h-2.02344a.39352.39352,0,0,1-.28613-.08789.43.43,0,0,1-.08789-.30859v-7.56738a1.82636,1.82636,0,0,0-.46192-1.33106,1.85756,1.85756,0,0,0-1.38672-.47265,2.81968,2.81968,0,0,0-.97851.165,3.46306,3.46306,0,0,0-.89063.49415,9.03541,9.03541,0,0,0-.94629.83593v7.832q0,.44092-.50586.44043h-1.958A.35019.35019,0,0,1,760.9518,415.13086Z"/><path class="cls-3" d="M781.41176,404.09863a4.76753,4.76753,0,0,1,1.59473,1.166,5.47723,5.47723,0,0,1,.957,1.50683q.13184.39552-.21973.418l-1.93652.24219a.25337.25337,0,0,1-.30762-.19824,6.93515,6.93515,0,0,0-.59375-.8584,2.46835,2.46835,0,0,0-.7041-.59375,1.97331,1.97331,0,0,0-.96875-.21973,2.62385,2.62385,0,0,0-1.55078.47266,2.98768,2.98768,0,0,0-1.03418,1.39746,6.23234,6.23234,0,0,0-.3623,2.26563,5.96432,5.96432,0,0,0,.38476,2.28808,3.08688,3.08688,0,0,0,1.06739,1.39746,2.78222,2.78222,0,0,0,1.62792.47266,2.49961,2.49961,0,0,0,1.62793-.51758,5.33151,5.33151,0,0,0,1.1875-1.44043.29455.29455,0,0,1,.13184-.11035.42275.42275,0,0,1,.2207.02246l1.38575.374q.21972.06592.13183.374a6.05914,6.05914,0,0,1-.627,1.07812,5.17309,5.17309,0,0,1-1.001,1.04492,4.94554,4.94554,0,0,1-1.41894.76954,5.52564,5.52564,0,0,1-1.88086.29687,5.77233,5.77233,0,0,1-2.96973-.75879,5.36289,5.36289,0,0,1-2.03516-2.1123,6.43748,6.43748,0,0,1-.7373-3.13477,6.54474,6.54474,0,0,1,.74805-3.17871,5.48611,5.48611,0,0,1,2.0459-2.14551,5.672,5.672,0,0,1,2.94824-.76953A5.37329,5.37329,0,0,1,781.41176,404.09863Z"/><path class="cls-3" d="M788.737,412.2168a2.97254,2.97254,0,0,0,1.15527,1.12109,3.27709,3.27709,0,0,0,1.61719.40723,3.56141,3.56141,0,0,0,1.63867-.374,4.30471,4.30471,0,0,0,1.39746-1.21.29761.29761,0,0,1,.15332-.12109.41459.41459,0,0,1,.22071.07715l1.34179.59375q.28565.13329.06543.39648a6.62628,6.62628,0,0,1-1.41894,1.55078,4.83317,4.83317,0,0,1-1.67188.83594,7.69087,7.69087,0,0,1-2.05664.25293,5.9566,5.9566,0,0,1-2.99219-.74805,5.43779,5.43779,0,0,1-2.0791-2.0791,6.08468,6.08468,0,0,1-.75879-3.06836,6.60638,6.60638,0,0,1,.78125-3.2998,5.56761,5.56761,0,0,1,2.10059-2.14551,6.07466,6.07466,0,0,1,5.81934-.0332,5.04949,5.04949,0,0,1,1.94726,2.0791,7.06458,7.06458,0,0,1,.70313,3.28906,1.55181,1.55181,0,0,1-.03223.35254c-.02246.08789-.12891.13867-.31934.15332h-7.78808a.20388.20388,0,0,0-.18653.08789.50617.50617,0,0,0-.05566.26465A3.14716,3.14716,0,0,0,788.737,412.2168Zm4.7959-3.59766a.5551.5551,0,0,0,.29785-.05469c.05078-.03613.07617-.12109.07617-.25293a3.14312,3.14312,0,0,0-.30762-1.34179,2.76068,2.76068,0,0,0-.90234-1.08985,2.41735,2.41735,0,0,0-1.45117-.42871,2.7238,2.7238,0,0,0-2.541,1.57324,3.65641,3.65641,0,0,0-.34179,1.59473Z"/></g></svg>