<svg width="301" height="191" viewBox="0 0 301 191" fill="none" xmlns="http://www.w3.org/2000/svg">
<path d="M58.8381 145.325C66.8538 143.292 70.8366 138.451 69.2846 132.331C67.5865 125.635 61.0095 125.183 55.3666 125.695C49.31 126.388 45.6508 125.758 44.7805 122.326C44.0988 119.638 45.0551 116.56 50.9589 115.063C55.8547 113.821 59.0789 115.456 59.9006 118.695L64.1724 117.612C62.7908 112.164 57.7371 109.359 50.0574 111.307C41.5617 113.461 39.291 118.507 40.5265 123.379C42.2003 129.979 49.2806 130.099 54.9596 129.629C60.0201 129.138 64.0149 129.58 64.9888 133.42C66.0113 137.452 63.4567 140.271 57.8889 141.683C52.5131 143.047 48.5662 140.778 47.6958 137.346L43.448 138.423C44.7018 143.367 49.9824 147.571 58.8381 145.325Z" fill="#1C1D20"/>
<path d="M93.0168 135.916L97.6966 134.729L84.7621 122.403L90.2405 110.567L85.1767 111.851L77.97 127.548L72.3035 105.205L68.1757 106.252L76.7454 140.043L80.8732 138.996L79.1264 132.108L82.426 125.882L93.0168 135.916Z" fill="#1C1D20"/>
<path d="M100.931 142.798L104.963 141.775C110.267 140.43 111.597 137.819 112.61 130.232L116.22 103.978L111.834 105.116L109.335 124.166L109.253 126.46L108.129 124.446L96.8047 108.902L92.4129 110.016L108.158 131.31L108.071 132.073C107.645 135.731 107.056 137.541 104.104 138.289L100.049 139.318L100.931 142.798Z" fill="#1C1D20"/>
<path d="M126.208 127.498L130.336 126.451L121.754 92.6127L117.627 93.6596L126.208 127.498Z" fill="#1C1D20"/>
<path d="M132.385 94.7953C134.161 94.3449 134.943 92.8951 134.571 91.4311C134.206 89.9912 132.828 89.0891 131.076 89.5334C129.348 89.9716 128.566 91.4215 128.932 92.8614C129.303 94.3254 130.681 95.2274 132.385 94.7953ZM137.765 124.568L141.892 123.521L135.684 99.0416L131.556 100.088L137.765 124.568Z" fill="#1C1D20"/>
<path d="M162.385 128.132C170.953 125.959 173.638 119.224 171.91 112.409L166.536 91.2174L162.576 92.2216L163.909 97.4774C161.623 94.6088 157.461 92.8035 152.782 93.9903C145.966 95.7189 142.339 102.769 144.037 109.465C145.747 116.208 152.277 120.402 159.165 118.655C163.316 117.602 166.429 114.667 167.214 110.509L167.98 113.533C169.137 118.093 167.85 122.991 161.491 124.604C156.163 125.955 153.466 123.881 152.237 121.05L148.325 122.043C149.721 126.439 154.154 130.219 162.385 128.132ZM158.959 114.824C154.16 116.042 149.376 113.296 148.141 108.424C146.893 103.504 149.802 98.8584 154.626 97.6351C159.425 96.4178 164.239 99.3859 165.42 104.042C166.613 108.746 163.759 113.607 158.959 114.824Z" fill="#1C1D20"/>
<path d="M180.172 113.813L184.3 112.766L181.037 99.9022C179.771 94.9104 182.615 90.5111 186.695 89.4764C190.943 88.3991 194.161 90.2137 195.592 95.8535L198.939 109.053L203.067 108.006L199.701 94.7346C197.717 86.9109 193.274 83.6953 186.771 85.3447C182.619 86.3977 179.861 89.4215 179.2 92.9607L178.609 90.3265L175.73 78.975L171.602 80.0218L180.172 113.813Z" fill="#1C1D20"/>
<path d="M218.991 103.968L223.503 102.823L222.614 99.3195L218.918 100.257C216.734 100.811 214.32 100.555 213.163 95.9948L210.126 84.0193L218.214 81.9681L217.295 78.3443L209.207 80.3954L207.357 73.0997L203.235 74.1706L205.079 81.4423L199.631 82.8239L200.55 86.4478L205.998 85.0661L208.987 96.8497C210.922 104.481 215.271 104.911 218.991 103.968Z" fill="#1C1D20"/>
<path fill-rule="evenodd" clip-rule="evenodd" d="M223.262 70.4092C220.993 61.4659 226.404 52.3773 235.346 50.1077L237.263 57.6649C232.495 58.8761 229.61 63.7223 230.82 68.4912L223.261 70.408L223.284 70.4955C223.276 70.4667 223.269 70.438 223.262 70.4092Z" fill="#80B690"/>
<path fill-rule="evenodd" clip-rule="evenodd" d="M223.262 70.4094L223.262 70.4092L230.82 68.4925L230.82 68.4926C232.029 73.2615 236.875 76.1476 241.644 74.9404L243.56 82.4981C234.617 84.764 225.53 79.3524 223.262 70.4094ZM243.577 82.4938C243.573 82.4949 243.568 82.496 243.564 82.4971C243.563 82.4975 243.562 82.4978 243.56 82.4981L243.577 82.4938Z" fill="#6BA5C8"/>
<path fill-rule="evenodd" clip-rule="evenodd" d="M243.563 82.4972L243.563 82.4973L241.646 74.9396L241.646 74.9396C246.417 73.7298 249.303 68.882 248.093 64.1117C248.093 64.1117 248.093 64.1117 248.093 64.1117L255.651 62.195C255.651 62.195 255.651 62.1951 255.651 62.1951C257.919 71.1393 252.507 80.2289 243.563 82.4972Z" fill="#DF635C"/>
<path fill-rule="evenodd" clip-rule="evenodd" d="M235.348 50.1075C244.292 47.8391 253.382 53.2509 255.65 62.1951L248.093 64.1117C246.883 59.3418 242.035 56.4558 237.265 57.6655C237.264 57.6658 237.263 57.6661 237.262 57.6664L235.345 50.1082C235.346 50.108 235.347 50.1077 235.348 50.1075Z" fill="#F4C55C"/>
<rect x="2.02344" y="1" width="296" height="189" stroke="#BA3932" stroke-width="2"/>
<path d="M298.024 1.4999L2.02488 189.5" stroke="#BA3932" stroke-width="2"/>
</svg>
