<svg width="302" height="191" viewBox="0 0 302 191" fill="none" xmlns="http://www.w3.org/2000/svg">
<path d="M64.3337 116.303C72.0481 116.303 76.7598 112.838 76.7598 106.949C76.7598 100.505 70.9163 98.5877 65.6964 97.7562C60.0608 96.994 56.8965 95.5851 56.8965 92.2823C56.8965 89.6954 58.4671 87.1317 64.1489 87.1317C68.8607 87.1317 71.4014 89.349 71.4014 92.4671H75.5126C75.5126 87.2241 71.5861 83.5286 64.1951 83.5286C56.0189 83.5286 52.8084 87.5705 52.8084 92.2592C52.8084 98.6108 59.1831 100.343 64.4261 101.221C69.1148 101.937 72.6255 103.253 72.6255 106.949C72.6255 110.829 69.6691 112.792 64.3106 112.792C59.1369 112.792 56.0881 109.836 56.0881 106.533H52C52 111.291 55.811 116.303 64.3337 116.303Z" fill="#DF635C"/>
<path d="M97.3973 115.633H101.901L93.032 101.521L100.7 92.0744H95.8268L85.7103 104.616V83.1128H81.7377V115.633H85.7103V109.004L90.1218 104.131L97.3973 115.633Z" fill="#DF635C"/>
<path d="M102.976 123.671H106.856C111.96 123.671 113.762 121.615 116.418 114.986L125.703 92.0744L121.476 92.0975L114.847 108.75L114.247 110.806L113.693 108.727L107.018 92.0744H102.791L112.145 114.94L111.891 115.61C110.667 118.821 109.72 120.322 106.879 120.322H102.976V123.671Z" fill="#DF635C"/>
<path d="M129.341 115.633H133.314V83.0666H129.341V115.633Z" fill="#DF635C"/>
<path d="M142.426 87.4781C144.135 87.4781 145.175 86.3464 145.175 84.9375C145.175 83.5517 144.135 82.4199 142.449 82.4199C140.786 82.4199 139.747 83.5517 139.747 84.9375C139.747 86.3464 140.786 87.4781 142.426 87.4781ZM140.463 115.633H144.435V92.0744H140.463V115.633Z" fill="#DF635C"/>
<path d="M161.909 124.502C170.154 124.502 174.127 119.028 174.127 112.469V92.0744H170.316V97.1326C168.907 94.0145 165.558 91.4277 161.054 91.4277C154.495 91.4277 149.598 96.9709 149.598 103.415C149.598 109.905 154.541 115.194 161.17 115.194C165.165 115.194 168.653 113.254 170.316 109.674V112.584C170.316 116.973 168.029 121.107 161.909 121.107C156.781 121.107 154.818 118.613 154.356 115.772H150.591C150.845 120.068 153.986 124.502 161.909 124.502ZM161.863 111.684C157.243 111.684 153.548 108.104 153.548 103.415C153.548 98.6801 157.243 95.1463 161.886 95.1463C166.505 95.1463 170.177 98.9342 170.177 103.415C170.177 107.942 166.482 111.684 161.863 111.684Z" fill="#DF635C"/>
<path d="M181.276 115.633H185.249V103.253C185.249 98.4491 188.829 95.1232 192.755 95.1232C196.843 95.1232 199.338 97.5022 199.338 102.93V115.633H203.31V102.861C203.31 95.3311 200.031 91.4046 193.771 91.4046C189.776 91.4046 186.588 93.5064 185.179 96.5552L185.249 94.0376V83.1128L181.276 83.1128V115.633Z" fill="#DF635C"/>
<path d="M218.636 115.633H222.978V112.261H219.421C217.319 112.261 215.194 111.476 215.194 107.087V95.562H222.978V92.0744H215.194V85.053L211.221 85.0761V92.0744H205.978V95.562H211.221V106.903C211.221 114.247 215.056 115.633 218.636 115.633Z" fill="#DF635C"/>
<path fill-rule="evenodd" clip-rule="evenodd" d="M223.668 86.5863C223.668 77.9794 230.644 71.0019 239.251 71.0002V78.2737C234.662 78.2756 230.942 81.9963 230.942 86.5858H223.668V86.6934C223.668 86.6577 223.668 86.6221 223.668 86.5863Z" fill="#80B690"/>
<path fill-rule="evenodd" clip-rule="evenodd" d="M223.668 86.586L223.668 86.5858L230.942 86.5858L230.942 86.586C230.942 91.1757 234.662 94.8966 239.251 94.8985L239.251 102.172C230.644 102.17 223.668 95.193 223.668 86.586Z" fill="#6BA5C8"/>
<path fill-rule="evenodd" clip-rule="evenodd" d="M239.254 102.172L239.253 102.172L239.253 94.8983L239.253 94.8983C243.844 94.8983 247.566 91.1767 247.566 86.5858L254.839 86.5858L254.839 86.4663C254.84 86.5062 254.84 86.5461 254.84 86.586C254.84 95.194 247.862 102.172 239.254 102.172Z" fill="#DF635C"/>
<path fill-rule="evenodd" clip-rule="evenodd" d="M239.254 71.0002C247.862 71.0002 254.84 77.9781 254.84 86.5858L247.566 86.5858C247.565 81.9951 243.844 78.2737 239.253 78.2737C239.252 78.2737 239.252 78.2737 239.251 78.2737L239.251 71.0002C239.252 71.0002 239.253 71.0002 239.254 71.0002Z" fill="#F4C55C"/>
<rect x="3" y="1" width="296" height="189" stroke="#BA3932" stroke-width="2"/>
<path d="M299.001 1.4999L3.00144 189.5" stroke="#BA3932" stroke-width="2"/>
</svg>
