<svg width="301" height="191" viewBox="0 0 301 191" fill="none" xmlns="http://www.w3.org/2000/svg">
<path d="M44.2212 114.904C52.4907 114.904 57.5415 111.191 57.5415 104.877C57.5415 97.9693 51.2775 95.9143 45.682 95.023C39.6408 94.206 36.2489 92.6957 36.2489 89.1552C36.2489 86.3822 37.9325 83.6339 44.0232 83.6339C49.074 83.6339 51.7975 86.0108 51.7975 89.3532H56.2045C56.2045 83.733 51.9955 79.7716 44.0727 79.7716C35.308 79.7716 31.8666 84.1044 31.8666 89.1304C31.8666 95.9391 38.7 97.796 44.3203 98.7369C49.3463 99.5044 53.1097 100.916 53.1097 104.877C53.1097 109.037 49.9405 111.141 44.1965 111.141C38.6505 111.141 35.3823 107.972 35.3823 104.431H31C31 109.532 35.0852 114.904 44.2212 114.904Z" fill="#1C1D20"/>
<path d="M79.6641 114.186H84.492L74.9846 99.0587L83.2046 88.9323H77.9805L67.1361 102.376V79.3259H62.8775V114.186H67.1361V107.081L71.865 101.856L79.6641 114.186Z" fill="#1C1D20"/>
<path d="M85.6438 122.802H89.8033C95.275 122.802 97.2062 120.599 100.053 113.493L110.007 88.9323L105.476 88.9571L98.3699 106.808L97.7262 109.012L97.1319 106.783L89.9766 88.9323H85.4458L95.4731 113.444L95.2007 114.162C93.8885 117.603 92.8734 119.212 89.8281 119.212H85.6438V122.802Z" fill="#1C1D20"/>
<path d="M130.52 114.186H134.779V79.2764H130.52V114.186Z" fill="#1C1D20"/>
<path d="M144.547 84.0053C146.379 84.0053 147.493 82.7921 147.493 81.2818C147.493 79.7963 146.379 78.5831 144.571 78.5831C142.789 78.5831 141.675 79.7963 141.675 81.2818C141.675 82.7921 142.789 84.0053 144.547 84.0053ZM142.442 114.186H146.701V88.9323H142.442V114.186Z" fill="#1C1D20"/>
<path d="M165.431 123.694C174.27 123.694 178.529 117.826 178.529 110.794V88.9323H174.443V94.3545C172.933 91.0121 169.343 88.2391 164.515 88.2391C157.484 88.2391 152.235 94.1812 152.235 101.089C152.235 108.046 157.533 113.716 164.639 113.716C168.922 113.716 172.661 111.636 174.443 107.799V110.918C174.443 115.622 171.992 120.054 165.431 120.054C159.935 120.054 157.83 117.38 157.335 114.335H153.299C153.572 118.94 156.939 123.694 165.431 123.694ZM165.382 109.953C160.43 109.953 156.469 106.115 156.469 101.089C156.469 96.0134 160.43 92.2253 165.406 92.2253C170.358 92.2253 174.295 96.2857 174.295 101.089C174.295 105.942 170.333 109.953 165.382 109.953Z" fill="#1C1D20"/>
<path d="M186.192 114.186H190.451V100.916C190.451 95.7658 194.288 92.2005 198.497 92.2005C202.88 92.2005 205.553 94.7507 205.553 100.569V114.186H209.812V100.495C209.812 92.4233 206.296 88.2143 199.587 88.2143C195.303 88.2143 191.887 90.4674 190.376 93.7356L190.451 91.0368V79.3259H186.192V114.186Z" fill="#1C1D20"/>
<path d="M226.24 114.186H230.895V110.572H227.082C224.829 110.572 222.551 109.73 222.551 105.026V92.6709H230.895V88.9323H222.551V81.4056L218.292 81.4304V88.9323H212.672V92.6709H218.292V104.828C218.292 112.701 222.402 114.186 226.24 114.186Z" fill="#1C1D20"/>
<path fill-rule="evenodd" clip-rule="evenodd" d="M238.631 82.7077C238.631 73.4814 246.109 66.0018 255.335 66V73.7972C250.416 73.7996 246.429 77.7878 246.429 82.7072H238.631V82.7814C238.631 82.7568 238.631 82.7322 238.631 82.7077Z" fill="#80B690"/>
<path fill-rule="evenodd" clip-rule="evenodd" d="M238.631 82.7076L238.631 82.7074L246.429 82.7074L246.429 82.7076C246.429 87.6274 250.416 91.6159 255.335 91.6183L255.335 99.4153C246.109 99.4135 238.631 91.9339 238.631 82.7076Z" fill="#6BA5C8"/>
<path fill-rule="evenodd" clip-rule="evenodd" d="M255.339 99.4153L255.339 99.4153L255.339 91.6183C260.26 91.6179 264.249 87.6286 264.249 82.7076C264.249 82.7075 264.249 82.7074 264.249 82.7074L272.047 82.7074C272.047 82.7074 272.047 82.7075 272.047 82.7076C272.047 91.935 264.567 99.4153 255.339 99.4153Z" fill="#DF635C"/>
<path fill-rule="evenodd" clip-rule="evenodd" d="M255.339 66C264.566 66 272.047 73.4801 272.047 82.7072L264.249 82.7072C264.249 77.7863 260.259 73.7972 255.338 73.7972C255.338 73.7972 255.337 73.7972 255.337 73.7972L255.337 66C255.338 66 255.339 66 255.339 66Z" fill="#F4C55C"/>
<rect x="2.02344" y="1" width="296" height="189" stroke="#BA3932" stroke-width="2"/>
<path d="M298.024 1.4999L2.02488 189.5" stroke="#BA3932" stroke-width="2"/>
</svg>
