<svg width="301" height="191" viewBox="0 0 301 191" fill="none" xmlns="http://www.w3.org/2000/svg">
<path d="M61.3337 108.275C69.0481 108.275 73.7598 106.279 73.7598 102.887C73.7598 99.176 67.9163 98.072 62.6964 97.5931C57.0608 97.1541 53.8965 96.3427 53.8965 94.4405C53.8965 92.9507 55.4671 91.4741 61.1489 91.4741C65.8607 91.4741 68.4014 92.7511 68.4014 94.5469H72.5126C72.5126 91.5273 68.5861 89.399 61.1951 89.399C53.0189 89.399 49.8084 91.7269 49.8084 94.4272C49.8084 98.0853 56.1831 99.0829 61.4261 99.5884C66.1148 100.001 69.6255 100.759 69.6255 102.887C69.6255 105.122 66.6691 106.253 61.3106 106.253C56.1369 106.253 53.0881 104.55 53.0881 102.648H49C49 105.388 52.811 108.275 61.3337 108.275Z" fill="#1C1D20"/>
<path d="M94.3973 107.889H98.9012L90.032 99.7613L97.7002 94.3208H92.8268L82.7103 101.544V89.1596H78.7377V107.889H82.7103V104.071L87.1218 101.264L94.3973 107.889Z" fill="#1C1D20"/>
<path d="M99.9757 112.518H103.856C108.96 112.518 110.762 111.334 113.418 107.516L122.703 94.3208L118.476 94.3341L111.847 103.925L111.247 105.109L110.693 103.912L104.018 94.3208H99.7909L109.145 107.49L108.891 107.876C107.667 109.725 106.72 110.589 103.879 110.589H99.9757V112.518Z" fill="#1C1D20"/>
<path d="M126.341 107.889H130.314V89.133H126.341V107.889Z" fill="#1C1D20"/>
<path d="M139.426 91.6737C141.135 91.6737 142.175 91.0219 142.175 90.2104C142.175 89.4123 141.135 88.7605 139.449 88.7605C137.786 88.7605 136.747 89.4123 136.747 90.2104C136.747 91.0219 137.786 91.6737 139.426 91.6737ZM137.463 107.889H141.435V94.3208H137.463V107.889Z" fill="#1C1D20"/>
<path d="M158.909 112.997C167.154 112.997 171.127 109.844 171.127 106.067V94.3208H167.316V97.2339C165.907 95.4381 162.558 93.9483 158.054 93.9483C151.495 93.9483 146.598 97.1408 146.598 100.852C146.598 104.59 151.541 107.636 158.17 107.636C162.165 107.636 165.653 106.519 167.316 104.457V106.133C167.316 108.66 165.029 111.041 158.909 111.041C153.781 111.041 151.818 109.605 151.356 107.969H147.591C147.845 110.443 150.986 112.997 158.909 112.997ZM158.863 105.614C154.243 105.614 150.548 103.552 150.548 100.852C150.548 98.1252 154.243 96.0899 158.886 96.0899C163.505 96.0899 167.177 98.2715 167.177 100.852C167.177 103.459 163.482 105.614 158.863 105.614Z" fill="#1C1D20"/>
<path d="M178.276 107.889H182.249V100.759C182.249 97.9921 185.829 96.0766 189.755 96.0766C193.843 96.0766 196.338 97.4468 196.338 100.573V107.889H200.31V100.533C200.31 96.1964 197.031 93.935 190.771 93.935C186.776 93.935 183.588 95.1455 182.179 96.9014L182.249 95.4514V89.1596H178.276V107.889Z" fill="#1C1D20"/>
<path d="M215.636 107.889H219.978V105.947H216.421C214.319 105.947 212.194 105.495 212.194 102.967V96.3294H219.978V94.3208H212.194V90.2769L208.221 90.2902V94.3208H202.978V96.3294H208.221V102.861C208.221 107.091 212.056 107.889 215.636 107.889Z" fill="#1C1D20"/>
<path fill-rule="evenodd" clip-rule="evenodd" d="M227.193 90.9767C227.193 86.0192 234.171 82.0004 242.779 82.0002V86.1889C238.19 86.19 234.47 88.3328 234.47 90.976H227.194V91.0753C227.194 91.0425 227.193 91.0096 227.193 90.9767Z" fill="#80B690"/>
<path fill-rule="evenodd" clip-rule="evenodd" d="M227.193 90.9762L227.193 90.976L234.47 90.976L234.47 90.9761C234.47 93.6194 238.19 95.7624 242.779 95.7635L242.779 99.9526C234.171 99.9525 227.193 95.9336 227.193 90.9762Z" fill="#6BA5C8"/>
<path fill-rule="evenodd" clip-rule="evenodd" d="M242.781 99.9526L242.779 99.9526L242.779 95.7635L242.779 95.7635C247.37 95.7635 251.092 93.6201 251.092 90.9761C251.092 90.9761 251.092 90.976 251.092 90.976L258.367 90.976C258.367 90.976 258.367 90.9761 258.367 90.9762C258.367 95.9337 251.389 99.9526 242.781 99.9526Z" fill="#DF635C"/>
<path fill-rule="evenodd" clip-rule="evenodd" d="M242.781 82C251.389 82 258.367 86.0186 258.367 90.976L251.092 90.976C251.091 88.3321 247.37 86.1889 242.779 86.1889C242.779 86.1889 242.779 86.1889 242.779 86.1889L242.779 82C242.78 82 242.78 82 242.781 82Z" fill="#F4C55C"/>
<rect x="2.02344" y="1" width="296" height="189" stroke="#BA3932" stroke-width="2"/>
<path d="M298.024 1.4999L2.02488 189.5" stroke="#BA3932" stroke-width="2"/>
</svg>
