<svg id="Layer_1" data-name="Layer 1" xmlns="http://www.w3.org/2000/svg" xmlns:xlink="http://www.w3.org/1999/xlink" viewBox="0 0 700.54889 497.29991"><defs><style>.cls-1,.cls-10,.cls-12,.cls-3,.cls-9{fill:none;}.cls-2{clip-path:url(#clip-path);}.cls-3{stroke:#91bcd6;}.cls-10,.cls-3,.cls-9{stroke-miterlimit:10;}.cls-10,.cls-12,.cls-3,.cls-9{stroke-width:1.8px;}.cls-4{clip-path:url(#clip-path-2);}.cls-5{fill:#468fba;}.cls-6{fill:#91bcd6;}.cls-7{fill:#6ca5c8;}.cls-8{fill:#b5d2e3;}.cls-9{stroke:#6ca5c8;}.cls-10,.cls-12{stroke:#1d5493;}.cls-11{fill:#1d5493;}.cls-12{stroke-linejoin:round;}</style><clipPath id="clip-path"><rect class="cls-1" x="92.10339" y="-560.05963" width="632.06132" height="461.74712"/></clipPath><clipPath id="clip-path-2"><rect class="cls-1" width="700.54889" height="497.29991"/></clipPath></defs><g class="cls-2"><circle class="cls-3" cx="198.34945" cy="-75.27496" r="89.44841"/></g><g class="cls-4"><circle class="cls-3" cx="108.93124" cy="496.44514" r="89.44841"/><path class="cls-3" d="M412.75745,144.96952l85.372,38.92825a4.59323,4.59323,0,0,1,2.25928,6.11267l-38.92826,85.37194a4.59333,4.59333,0,0,1-6.11272,2.25935l-85.372-38.92823a4.59322,4.59322,0,0,1-2.25927-6.11267L406.67715,147.285A4.58976,4.58976,0,0,1,412.75745,144.96952Z"/><path class="cls-3" d="M543.27272,346.47833l-133.927,79.53675a2.44653,2.44653,0,0,0-.86082,3.36525,2.53333,2.53333,0,0,0,.90659.884l135.82685,76.22185a2.44678,2.44678,0,0,0,3.34274-.92988,2.31459,2.31459,0,0,0,.2914-1.24342L546.99738,348.537a2.469,2.469,0,0,0-2.482-2.43549A2.39481,2.39481,0,0,0,543.27272,346.47833Z"/><path class="cls-3" d="M151.05366,33.3875,66.03983,83.87561a1.553,1.553,0,0,0-.54642,2.13619,1.60807,1.60807,0,0,0,.57547.56114l86.21981,48.3839a1.55316,1.55316,0,0,0,2.12189-.59026,1.46938,1.46938,0,0,0,.185-.7893l-1.17757-98.883a1.56723,1.56723,0,0,0-1.5755-1.546A1.52006,1.52006,0,0,0,151.05366,33.3875Z"/><path class="cls-5" d="M537.60212,207.29035a87.79056,87.79056,0,0,1,39.86919,9.41111q1.616-2.83836,3.35166-5.87823a87.79214,87.79214,0,0,0-39.86365-9.4082c-32.50583,0-60.45245,17.1281-72.8893,41.68717C481.75543,221.73111,507.75633,207.29035,537.60212,207.29035Z"/><path class="cls-5" d="M441.17413,110.64845l.00277-16.11368a72.88275,72.88275,0,0,1-1.28791,13.535Q440.59806,109.339,441.17413,110.64845Z"/><path class="cls-5" d="M356.51576,16.28318c-46.40627,0-84.072,34.515-84.6351,77.28434q5.3916,2.07775,10.566,4.54467c-.10363-1.38149-.17456-2.77054-.17456-4.17441,0-35.5358,33.64356-64.34326,75.1448-64.34326,40.96591,0,74.252,28.07436,75.10435,62.97715.01108.45588.0399.90795.0399,1.36611,0,1.57712-.08922,3.1354-.21945,4.684a38.64172,38.64172,0,0,1,7.54734,9.44789,72.88275,72.88275,0,0,0,1.28791-13.535C441.1769,51.31766,403.27282,16.28318,356.51576,16.28318Z"/><path class="cls-5" d="M395.83742,149.81591a.29851.29851,0,0,0-.13688.00077c-.05819.03041-.11582.06116-.174.09143-.96871.84083-1.478,6.94579-2.01333,15.02286a86.32407,86.32407,0,0,0,11.56014-6.3125C402.08411,153.33286,397.87846,150.32617,395.83742,149.81591Z"/><path class="cls-5" d="M395.52653,149.90811c.05819-.03027.11582-.061.174-.09143A.387.387,0,0,0,395.52653,149.90811Z"/><path class="cls-5" d="M357.41685,158.281a88.17037,88.17037,0,0,1-11.6-.76518c.07259.13321.14685.265.21834.39846a84.364,84.364,0,0,0,12.18082.89506,83.10672,83.10672,0,0,0,22.40318-3.05483c-.05043-.19126-.09919-.38536-.15406-.56983A86.67659,86.67659,0,0,1,357.41685,158.281Z"/><path class="cls-5" d="M380.61915,155.75448a83.10672,83.10672,0,0,1-22.40318,3.05483,84.364,84.364,0,0,1-12.18082-.89506q1.77144,3.2967,3.36386,6.69654,1.85122,3.97335,3.43036,8.0894c1.15768.04586,2.31868.079,3.48744.08153.0665.00014.13189.00464.199.00464a91.08394,91.08394,0,0,0,24.03523-3.2188C381.73416,163.66744,381.52025,159.166,380.61915,155.75448Z"/><path class="cls-5" d="M620.7775,316.84258s-9.23259,27.69793-20.98282,35.25185c-11.75078,7.554-30.216,52.03852-36.93094,53.71712-6.71441,1.67867,20.14435-31.05521,5.03637-39.4485s-38.60955,47.00249-47.00257,50.35984c-8.39357,3.35727,20.98338-47.8418,17.49428-55.7265-.8357,0-1.66143-.038-2.49214-.05825-4.54869,5.591-12.48617,33.73576-20.038,44.03411-9.23259,12.58994,4.19623-30.21591,1.67861-42.80585a13.09126,13.09126,0,0,0-1.355-3.66256c-33.02787-7.50751-59.10136-31.35979-67.57086-61.76L441.16138,376.435s17.77358,45.16782,72.18217,49.52046c41.96675,3.35735,66.12169-16.9651,77.11546-25.22511a22.52052,22.52052,0,0,0,7.95134-11.30453l24.9535-79.85123q-1.74316,3.68813-3.83879,7.19066Z"/><path class="cls-5" d="M535.89968,360.93814c.83071.02029,1.65644.05825,2.49214.05825C537.75728,359.56128,536.91161,359.694,535.89968,360.93814Z"/><path class="cls-5" d="M538.39182,189.63024c-51.19769,0-92.70115,38.36162-92.70115,85.683a79.699,79.699,0,0,0,2.92384,21.4306c8.4695,30.40017,34.543,54.25245,67.57086,61.76-5.37663-9.94582-22.29179-14.31018-16.2712-17.32068.64284-.32128,1.18372-.62421,1.67195-.92062C475.619,328.67025,457.81,304.95534,457.81,277.56213a62.44322,62.44322,0,0,1,2.23777-16.515,65.1338,65.1338,0,0,1,8.02227-17.945c12.43685-24.55907,40.38347-41.68717,72.8893-41.68717a87.79214,87.79214,0,0,1,39.86365,9.4082c1.64923-2.88885,3.37771-5.91037,5.16992-9.03718A98.02237,98.02237,0,0,0,538.39182,189.63024Z"/><path class="cls-5" d="M601.44447,225.88335q-1.7465,3.0174-3.40487,5.82711c12.05059,12.30877,19.3541,28.32422,19.3541,45.85167a62.53838,62.53838,0,0,1-.619,8.62051,63.44226,63.44226,0,0,1-6.28382,19.96438,64.94,64.94,0,0,0,8.46008-19.61538,62.44514,62.44514,0,0,0,1.8-14.84483C620.7509,254.18229,613.46679,238.18568,601.44447,225.88335Z"/><path class="cls-5" d="M604.50464,315.83806a68.00407,68.00407,0,0,0,5.98622-9.691,70.65475,70.65475,0,0,1-7.39383,9.60418Z"/><path class="cls-5" d="M494.03878,329.43252a17.90183,17.90183,0,0,1-4.70552-4.18508c-17.22439-12.88975-28.16607-32.09484-28.16607-53.56063a62.55807,62.55807,0,0,1,.86451-10.32141A63.59008,63.59008,0,0,1,468.07,243.1022a65.1338,65.1338,0,0,0-8.02227,17.945,62.44322,62.44322,0,0,0-2.23777,16.515c0,27.39321,17.80905,51.10812,43.77614,62.70041C506.19854,337.46138,503.90591,335.50465,494.03878,329.43252Z"/><path class="cls-5" d="M203.05293,358.24968c9.36394,3.28628,15.788,7.15035,16.525,12.31,2.51818,17.626-1.6786,47.84186,7.554,36.93052,9.2326-10.91127,7.554-46.16312,24.34059-50.35977s35.25178,1.67867,43.64535-7.554c4.13915-4.55354,9.30021-15.02611,14.57487-24.574a152.54612,152.54612,0,0,1-82.28206,32.94536A157.02768,157.02768,0,0,1,203.05293,358.24968Z"/><path class="cls-5" d="M361.02344,207.8162a129.68157,129.68157,0,0,0-8.19407-35.116q-1.58689-4.11-3.43036-8.0894-1.58523-3.40248-3.36386-6.69654c-.07149-.13342-.14575-.26525-.21834-.39846a135.74545,135.74545,0,0,0-24.83048-32.67188,144.334,144.334,0,0,0-34.778-24.87813c-1.24247-.63634-2.49823-1.251-3.76176-1.85359q-5.17047-2.466-10.566-4.54467a153.68405,153.68405,0,0,0-69.2018-9.521C122.05712,91.32622,62.23643,158.54241,69.06612,234.17814A129.66725,129.66725,0,0,0,77.34,269.50038a132.40248,132.40248,0,0,0,19.10139,33.55974,143.028,143.028,0,0,0,53.00208,41.66909,151.68675,151.68675,0,0,0,53.60947,13.52047,157.02768,157.02768,0,0,0,24.35776-.30189,152.54612,152.54612,0,0,0,82.28206-32.94536c26.29406-21.21516,44.43727-50.79792,50.03-83.77875A129.74,129.74,0,0,0,361.02344,207.8162Zm-9.19381,29.04548A125.43426,125.43426,0,0,1,325.177,301.07533c-22.6581,28.64876-57.63279,48.569-98.254,52.23684-50.72885,4.58055-97.34516-17.34271-124.41562-53.70645a122.06433,122.06433,0,0,1-23.879-62.2076C72.23269,166.563,128.25615,103.61289,203.76117,96.79526a143.65339,143.65339,0,0,1,69.2744,10.71973,138.77221,138.77221,0,0,1,12.91012,6.30446q1.81632,1.00563,3.59495,2.06341a134.45442,134.45442,0,0,1,24.64039,18.7524,128.61821,128.61821,0,0,1,16.56215,19.45918l.05653.08174q3.20119,4.63743,5.98844,9.55187,2.12388,3.76367,3.9801,7.68555a121.72624,121.72624,0,0,1,11.06138,65.44808Z"/><path class="cls-5" d="M352.05518,212.70931a121.4204,121.4204,0,0,0-11.28693-41.29571q-1.8612-3.91651-3.9801-7.68555-2.7756-4.91631-5.98844-9.55187l-.05653-.08174A128.61821,128.61821,0,0,0,314.181,134.63526a134.45442,134.45442,0,0,0-24.64039-18.7524q-1.77975-1.057-3.59495-2.06341a138.77221,138.77221,0,0,0-12.91012-6.30446,143.65339,143.65339,0,0,0-69.2744-10.71973c-75.505,6.81763-131.52848,69.76769-125.13272,140.60286a122.06433,122.06433,0,0,0,23.879,62.2076c27.07046,36.36374,73.68677,58.287,124.41562,53.70645,40.62121-3.66782,75.5959-23.58808,98.254-52.23684a125.43426,125.43426,0,0,0,26.65261-64.21365A121.68316,121.68316,0,0,0,352.05518,212.70931Zm-8.9217,19.34654a116.56246,116.56246,0,0,1-23.03,62.00013c-21.077,28.41365-54.80151,48.32483-94.2063,51.88286-46.44339,4.19353-89.19763-15.371-114.72471-48.10385A114.59881,114.59881,0,0,1,88.372,246.3679q-.7365-4.3547-1.1466-8.82195c-5.98123-66.239,46.40738-125.10446,117.01292-131.47972a133.85068,133.85068,0,0,1,72.02256,13.37743,127.74414,127.74414,0,0,1,21.34747,13.43569,70.24213,70.24213,0,0,0,10.91453,9.89678c.404.29662.79968.6008,1.21088.89015a119.51865,119.51865,0,0,1,15.42885,19.248q1.72406,2.68135,3.30512,5.45581a113.88334,113.88334,0,0,1,14.66575,63.6858Z"/><path class="cls-5" d="M342.9107,214.45912a113.68126,113.68126,0,0,0-14.443-46.08907q-1.57774-2.77571-3.30512-5.45581a119.51865,119.51865,0,0,0-15.42885-19.248c-.4112-.28935-.80688-.59353-1.21088-.89015a70.24213,70.24213,0,0,1-10.91453-9.89678,127.74414,127.74414,0,0,0-21.34747-13.43569,133.85068,133.85068,0,0,0-72.02256-13.37743C133.63278,112.44149,81.24417,171.307,87.2254,237.546q.40317,4.46712,1.1466,8.82195A114.59881,114.59881,0,0,0,111.17252,297.835c25.52708,32.73283,68.28132,52.29738,114.72471,48.10385,39.40479-3.558,73.12926-23.46921,94.2063-51.88286a116.56246,116.56246,0,0,0,23.03-62.00013A114.06667,114.06667,0,0,0,342.9107,214.45912Z"/><path class="cls-5" d="M379.88986,172.47782c-5.87539,22.66191-2.51763,46.16313,5.87538,38.6092,5.45311-4.90759,6.65457-29.64995,7.748-46.156a88.34876,88.34876,0,0,1-12.96221,4.63659C380.36312,170.506,380.152,171.46721,379.88986,172.47782Z"/><path class="cls-5" d="M441.17413,110.64845q-.5769-1.30654-1.28514-2.57873c-3.93632,20.85308-16.79324,38.86052-34.81565,50.54875a26.16189,26.16189,0,0,1,3.35388,13.02c0,13.42925,0,46.16312,5.03582,36.93053,5.03636-9.23267-2.51763-49.52054,4.19678-51.19914,6.715-1.67868,11.75078,4.19664,13.42938-4.19665,1.58551-7.92751,5.4182-15.11083,10.0816-25.78387.27432-.62726.5503-1.26186.8296-1.91406C444.01151,120.783,443.341,115.55638,441.17413,110.64845Z"/><path class="cls-5" d="M380.61915,155.75448c.9011,3.41152,1.115,7.913-.06816,13.81308A88.34876,88.34876,0,0,0,393.5132,164.931c.53534-8.07707,1.04462-14.182,2.01333-15.02286A77.98175,77.98175,0,0,1,380.61915,155.75448Z"/><path class="cls-5" d="M439.889,108.06972a38.64172,38.64172,0,0,0-7.54734-9.44789c-1.26963,15.09178-8.60694,28.7375-19.94818,39.1595a70.89129,70.89129,0,0,1-16.69293,12.03535.29851.29851,0,0,1,.13688-.00077c2.041.51026,6.24669,3.517,9.23592,8.80256C423.09575,146.93024,435.95267,128.9228,439.889,108.06972Z"/><path class="cls-5" d="M380.61915,155.75448a77.98175,77.98175,0,0,0,14.90738-5.84637.387.387,0,0,1,.174-.09143,70.89129,70.89129,0,0,0,16.69293-12.03535,77.631,77.631,0,0,1-31.92838,17.40332C380.52,155.36912,380.56872,155.56322,380.61915,155.75448Z"/><path class="cls-5" d="M432.5212,92.57167c-.85233-34.90279-34.13844-62.97715-75.10435-62.97715-41.50124,0-75.1448,28.80746-75.1448,64.34326,0,1.40387.07093,2.79292.17456,4.17441,1.26353.6026,2.51929,1.21725,3.76176,1.85359-.05154-.95727-.08534-1.91849-.08534-2.88664C286.123,62.98656,318.4,35.349,358.216,35.349c37.8204,0,68.81776,24.94235,71.83138,56.6616.1524,1.60809.24938,3.22961.25548,4.87018.00055.0665.00609.13183.00609.19833,0,15.59864-6.77094,29.835-17.91545,40.70219,11.34124-10.422,18.67855-24.06772,19.94818-39.1595.13023-1.54865.21945-3.10693.21945-4.684C432.5611,93.47962,432.53228,93.02755,432.5212,92.57167Z"/><path class="cls-5" d="M430.30283,96.88081c-.0061-1.64057-.10308-3.26209-.25548-4.87018-3.01362-31.71925-34.011-56.6616-71.83138-56.6616-39.816,0-72.09294,27.63753-72.09294,61.73011,0,.96815.0338,1.92937.08534,2.88664a144.334,144.334,0,0,1,34.778,24.87813,135.74545,135.74545,0,0,1,24.83048,32.67188,88.17037,88.17037,0,0,0,11.6.76518,86.67659,86.67659,0,0,0,23.04824-3.09632,77.631,77.631,0,0,0,31.92838-17.40332c11.14451-10.86715,17.91545-25.10355,17.91545-40.70219C430.30892,97.01264,430.30338,96.94731,430.30283,96.88081Z"/><path class="cls-5" d="M538.39182,361.24058c3.4891,7.85025-25.88785,58.8256-17.49428,55.483,8.393-3.34268,31.89458-58.49641,47.00257-50.13979s-11.75078,40.94746-5.03637,39.27613c6.715-1.67127,25.18016-45.96142,36.93094-53.4824,11.75023-7.52092,20.98282-35.09782,20.98282-35.09782l-1.25244-.077C603.72048,343.45838,573.3183,361.24058,538.39182,361.24058Z"/><path class="cls-5" d="M517.54034,362.1664c2.51762,12.58994-10.9112,55.39579-1.67861,42.80585,7.55178-10.29835,15.48926-38.44309,20.038-44.03411a99.933,99.933,0,0,1-19.71431-2.4343A13.09126,13.09126,0,0,1,517.54034,362.1664Z"/><path class="cls-5" d="M631.09352,275.31328c0-22.45693-9.3584-42.88571-24.65314-58.16466q-2.5711,4.54682-4.99591,8.73473c12.02232,12.30233,19.30643,28.29894,19.30643,45.80346a62.44514,62.44514,0,0,1-1.8,14.84483,64.94,64.94,0,0,1-8.46008,19.61538,68.00407,68.00407,0,0,1-5.98622,9.691c-14.23239,19.25449-38.87057,31.99586-66.90252,31.99586a88.27945,88.27945,0,0,1-36.016-7.57138c-.48823.29641-1.02911.59934-1.67195.92062-6.02059,3.0105,10.89457,7.37486,16.2712,17.32068a99.933,99.933,0,0,0,19.71431,2.4343c1.01193-1.24413,1.8576-1.37686,2.49214.05825,34.92648,0,65.32866-17.86024,81.13324-44.23112q2.09646-3.498,3.83879-7.19066l6.64625-21.26926S631.09352,279.72661,631.09352,275.31328Z"/><path class="cls-5" d="M540.95932,341.95867a86.08748,86.08748,0,0,1-51.62606-16.71123,17.90183,17.90183,0,0,0,4.70552,4.18508c9.86713,6.07213,12.15976,8.02886,7.54734,10.83a88.27945,88.27945,0,0,0,36.016,7.57138c28.03195,0,52.67013-12.74137,66.90252-31.99586l-1.40761-.08686C588.47062,331.72827,566.07686,341.95867,540.95932,341.95867Z"/><path class="cls-5" d="M598.0396,231.71046c-9.95358,16.85926-17.26207,27.61155-19.22829,27.21836-8.39358-1.67868-14.26841,1.67867-17.62617-13.42932,0,0,6.39188-11.42353,16.28617-28.798a87.79056,87.79056,0,0,0-39.86919-9.41111c-29.84579,0-55.84669,14.44076-69.5321,35.81185a63.59008,63.59008,0,0,0-6.03832,18.2632,62.55807,62.55807,0,0,0-.86451,10.32141c0,21.46579,10.94168,40.67088,28.16607,53.56063a86.08748,86.08748,0,0,0,51.62606,16.71123c25.11754,0,47.5113-10.2304,62.13771-26.20747a70.65475,70.65475,0,0,0,7.39383-9.60418,63.44226,63.44226,0,0,0,6.28382-19.96438,62.53838,62.53838,0,0,0,.619-8.62051C617.3937,260.03468,610.09019,244.01923,598.0396,231.71046Z"/><path class="cls-5" d="M686.24581,46.57833c-4.74265-8.89171-65.16406,93.99425-100.25292,155.20772-1.79221,3.12681-3.52069,6.14833-5.16992,9.03718q-1.73568,3.03984-3.35166,5.87823c-9.89429,17.37451-16.28617,28.798-16.28617,28.798,3.35776,15.108,9.23259,11.75064,17.62617,13.42932,1.96622.39319,9.27471-10.3591,19.22829-27.21836q1.65506-2.80262,3.40487-5.82711,2.42064-4.18148,4.99591-8.73473C639.98474,157.84768,690.97129,55.43935,686.24581,46.57833Z"/><path class="cls-5" d="M117.0795,352.57484s-4.86734,12.51616-4.1724,17.3835c.69549,4.86741,20.86035,18.77422,26.42318,18.07887,5.56283-.69529,13.90653-12.5161,13.90653-12.5161S146.979,353.27019,117.0795,352.57484Z"/><path class="cls-5" d="M352.82937,172.70019l1.84874,5.14207C354.09234,176.11371,353.48441,174.39576,352.82937,172.70019Z"/><path class="cls-5" d="M431.0892,153.17326c-1.6786,8.39329-6.71441,2.518-13.42938,4.19665-6.71441,1.6786.83958,41.96647-4.19678,51.19914-5.03582,9.23259-5.03582-23.50128-5.03582-36.93053a26.16189,26.16189,0,0,0-3.35388-13.02,86.32407,86.32407,0,0,1-11.56014,6.3125c-1.09339,16.5061-2.29485,41.24846-7.748,46.156-8.393,7.55393-11.75077-15.94729-5.87538-38.6092.26212-1.01061.47326-1.97183.66113-2.91026a91.08394,91.08394,0,0,1-24.03523,3.2188c-.06706,0-.13245-.0045-.199-.00464-1.16876-.00249-2.32976-.03567-3.48744-.08153.655,1.69557,1.263,3.41352,1.84874,5.14207l13.59113,70.20562c25.17518-7.576,52.76346-24.57037,66.00759-54.47862,3.42375-7.73159,6.8851-15.43654,6.88621-23.89232l.00776-42.28755C436.5074,138.06243,432.67471,145.24575,431.0892,153.17326Z"/><path class="cls-5" d="M368.26924,248.04788l-13.59113-70.20562a129.75438,129.75438,0,0,1,5.04467,63.38142c-5.59276,32.98083-23.736,62.56359-50.03,83.77875-5.27466,9.54792-10.43572,20.02049-14.57487,24.574-8.39357,9.23266-26.85876,3.35734-43.64535,7.554s-15.108,39.4485-24.34059,50.35977c-9.23259,10.91134-5.03581-19.30456-7.554-36.93052-.73706-5.15967-7.16108-9.02374-16.525-12.31a151.68675,151.68675,0,0,1-53.60947-13.52047,143.028,143.028,0,0,1-53.00208-41.66909A132.40248,132.40248,0,0,1,77.34,269.50038l23.82334,118.41588a53.53351,53.53351,0,0,0,13.18886,25.841c20.16387,21.76313,68.98106,61.87794,145.51391,47.45,30.24025-5.70087,57.54049-25.83271,75.57055-39.38633,28.60068-21.4998,41.32451-51.56852,44.08308-87.24247Zm-228.939,139.98933c-5.56283.69535-25.72769-13.21146-26.42318-18.07887-.69494-4.86734,4.1724-17.3835,4.1724-17.3835,29.89954.69535,36.15731,22.94627,36.15731,22.94627S144.89311,387.34192,139.33028,388.03721Z"/><path class="cls-6" d="M534.99856,208.94128a87.79056,87.79056,0,0,1,39.86919,9.41111q1.616-2.83835,3.35166-5.87823a87.79214,87.79214,0,0,0-39.86365-9.4082c-32.50583,0-60.45245,17.1281-72.8893,41.68717C479.15187,223.382,505.15277,208.94128,534.99856,208.94128Z"/><path class="cls-7" d="M438.57057,112.29938l.00277-16.11368a72.88275,72.88275,0,0,1-1.28791,13.535Q437.9945,110.98989,438.57057,112.29938Z"/><path class="cls-8" d="M353.9122,17.93411c-46.40627,0-84.072,34.515-84.63509,77.28434q5.39159,2.07776,10.56594,4.54467c-.10363-1.38149-.17456-2.77054-.17456-4.17441,0-35.5358,33.64356-64.34326,75.1448-64.34326,40.96591,0,74.252,28.07436,75.10435,62.97715.01108.45588.0399.90795.0399,1.36611,0,1.57712-.08922,3.1354-.21945,4.684a38.64172,38.64172,0,0,1,7.54734,9.44789,72.88275,72.88275,0,0,0,1.28791-13.535C438.57334,52.96859,400.66926,17.93411,353.9122,17.93411Z"/><path class="cls-8" d="M393.23386,151.46684a.29851.29851,0,0,0-.13688.00077c-.05819.03041-.11582.06116-.174.09144-.9687.84082-1.478,6.94578-2.01333,15.02285a86.32407,86.32407,0,0,0,11.56014-6.3125C399.48055,154.98379,395.2749,151.9771,393.23386,151.46684Z"/><path class="cls-7" d="M392.923,151.55905c.05819-.03028.11582-.061.174-.09144A.38688.38688,0,0,0,392.923,151.55905Z"/><path class="cls-7" d="M354.81329,159.93191a88.17036,88.17036,0,0,1-11.6-.76519c.07259.13322.14685.265.21834.39846a84.364,84.364,0,0,0,12.18082.89506,83.10672,83.10672,0,0,0,22.40318-3.05483c-.05043-.19126-.09919-.38536-.15406-.56983A86.67659,86.67659,0,0,1,354.81329,159.93191Z"/><path class="cls-8" d="M378.01559,157.40541a83.10672,83.10672,0,0,1-22.40318,3.05483,84.364,84.364,0,0,1-12.18082-.89506q1.77144,3.2967,3.36386,6.69654,1.85122,3.97335,3.43036,8.0894c1.15768.04586,2.31868.079,3.48744.08153.0665.00014.13189.00464.19895.00464a91.08394,91.08394,0,0,0,24.03523-3.2188C379.1306,165.31837,378.91669,160.81693,378.01559,157.40541Z"/><path class="cls-6" d="M618.17394,318.49351s-9.23259,27.69793-20.98282,35.25185c-11.75078,7.554-30.216,52.03852-36.93094,53.71712-6.71441,1.67867,20.14435-31.05521,5.03637-39.4485S526.687,415.01647,518.294,418.37382c-8.39357,3.35727,20.98338-47.8418,17.49428-55.7265-.8357,0-1.66143-.038-2.49214-.05825-4.54869,5.591-12.48617,33.73576-20.038,44.03411-9.23259,12.58994,4.19623-30.21591,1.67861-42.80585a13.09126,13.09126,0,0,0-1.355-3.66256c-33.02787-7.50751-59.10136-31.35979-67.57086-61.76L438.55782,378.086S456.3314,423.25377,510.74,427.60642c41.96675,3.35734,66.12169-16.96511,77.11546-25.22512a22.52052,22.52052,0,0,0,7.95134-11.30453l24.9535-79.85123q-1.74317,3.68812-3.83879,7.19066Z"/><path class="cls-9" d="M533.29612,362.58907c.83071.02029,1.65644.05825,2.49214.05825C535.15373,361.21221,534.30805,361.34494,533.29612,362.58907Z"/><path class="cls-8" d="M535.78826,191.28117c-51.19769,0-92.70115,38.36162-92.70115,85.683a79.6989,79.6989,0,0,0,2.92384,21.4306c8.4695,30.40017,34.543,54.25245,67.57086,61.76-5.37663-9.94582-22.29179-14.31018-16.2712-17.32068.64284-.32128,1.18372-.62421,1.67195-.92062-25.96709-11.59229-43.77614-35.3072-43.77614-62.7004a62.44323,62.44323,0,0,1,2.23777-16.515,65.1338,65.1338,0,0,1,8.02227-17.945c12.43685-24.55907,40.38347-41.68717,72.8893-41.68717a87.79214,87.79214,0,0,1,39.86365,9.4082c1.64923-2.88885,3.37771-5.91037,5.16992-9.03718A98.02237,98.02237,0,0,0,535.78826,191.28117Z"/><path class="cls-7" d="M598.84091,227.53428q-1.7465,3.0174-3.40487,5.82711c12.05059,12.30877,19.3541,28.32422,19.3541,45.85168a62.53835,62.53835,0,0,1-.619,8.6205A63.4424,63.4424,0,0,1,607.8873,307.798a64.93993,64.93993,0,0,0,8.46008-19.61539,62.44512,62.44512,0,0,0,1.8-14.84482C618.14734,255.83322,610.86324,239.83661,598.84091,227.53428Z"/><path class="cls-7" d="M601.90108,317.489a68.00519,68.00519,0,0,0,5.98622-9.691,70.65528,70.65528,0,0,1-7.39383,9.60417Z"/><path class="cls-6" d="M491.43522,331.08345a17.90183,17.90183,0,0,1-4.70552-4.18508c-17.22439-12.88975-28.16607-32.09484-28.16607-53.56062a62.55819,62.55819,0,0,1,.86451-10.32142,63.59008,63.59008,0,0,1,6.03832-18.2632,65.1338,65.1338,0,0,0-8.02227,17.945,62.44323,62.44323,0,0,0-2.23777,16.515c0,27.3932,17.80905,51.10811,43.77614,62.7004C503.595,339.11231,501.30235,337.15558,491.43522,331.08345Z"/><path class="cls-8" d="M200.44937,359.90061c9.36394,3.28628,15.788,7.15035,16.525,12.31,2.51818,17.626-1.6786,47.84186,7.554,36.93052,9.2326-10.91127,7.554-46.16312,24.34059-50.35977s35.25178,1.67868,43.64535-7.554c4.13915-4.55354,9.30021-15.02611,14.57487-24.574a152.54621,152.54621,0,0,1-82.28206,32.94537A157.02891,157.02891,0,0,1,200.44937,359.90061Z"/><path class="cls-8" d="M358.41988,209.46713a129.68157,129.68157,0,0,0-8.19407-35.116q-1.5869-4.11-3.43036-8.0894-1.58523-3.40248-3.36386-6.69654c-.07149-.13342-.14575-.26524-.21834-.39846a135.7454,135.7454,0,0,0-24.83048-32.67187,144.33374,144.33374,0,0,0-34.778-24.87814c-1.24247-.63633-2.49823-1.251-3.76176-1.85359q-5.17047-2.466-10.56594-4.54467a153.6841,153.6841,0,0,0-69.20181-9.521C119.45356,92.97715,59.63287,160.19334,66.46256,235.82907a129.66725,129.66725,0,0,0,8.27387,35.32224,132.40248,132.40248,0,0,0,19.10139,33.55974,143.028,143.028,0,0,0,53.00208,41.66909,151.68675,151.68675,0,0,0,53.60947,13.52047,157.02891,157.02891,0,0,0,24.35776-.30188,152.54621,152.54621,0,0,0,82.28206-32.94537c26.29406-21.21516,44.43727-50.79792,50.03-83.77875A129.74,129.74,0,0,0,358.41988,209.46713Zm-9.19381,29.04548a125.43426,125.43426,0,0,1-26.65261,64.21365c-22.6581,28.64876-57.63279,48.569-98.254,52.23684-50.72885,4.58055-97.34516-17.34271-124.41562-53.70645a122.06433,122.06433,0,0,1-23.879-62.2076c-6.39576-70.83517,49.6277-133.78523,125.13272-140.60286a143.65339,143.65339,0,0,1,69.2744,10.71973,138.77472,138.77472,0,0,1,12.91012,6.30446q1.81632,1.00563,3.59495,2.06342a134.45392,134.45392,0,0,1,24.64039,18.75239,128.61821,128.61821,0,0,1,16.56215,19.45918l.05653.08174q3.2012,4.63743,5.98844,9.55187,2.12388,3.76367,3.9801,7.68555a121.72624,121.72624,0,0,1,11.06138,65.44808Z"/><path class="cls-7" d="M349.45162,214.36024a121.42017,121.42017,0,0,0-11.28693-41.29571q-1.8612-3.91652-3.9801-7.68555-2.7756-4.91631-5.98844-9.55187l-.05653-.08174a128.61821,128.61821,0,0,0-16.56215-19.45918,134.45392,134.45392,0,0,0-24.64039-18.75239q-1.77975-1.05707-3.59495-2.06342a138.77472,138.77472,0,0,0-12.91012-6.30446,143.65339,143.65339,0,0,0-69.2744-10.71973c-75.505,6.81763-131.52848,69.76769-125.13272,140.60286a122.06433,122.06433,0,0,0,23.879,62.2076c27.07046,36.36374,73.68677,58.287,124.41562,53.70645,40.62121-3.66782,75.5959-23.58808,98.254-52.23684a125.43426,125.43426,0,0,0,26.65261-64.21365A121.68316,121.68316,0,0,0,349.45162,214.36024Zm-8.9217,19.34654A116.56246,116.56246,0,0,1,317.5,295.70691c-21.077,28.41365-54.80151,48.32483-94.2063,51.88286-46.44339,4.19353-89.19763-15.371-114.72471-48.10385a114.59881,114.59881,0,0,1-22.80052-51.46709q-.7365-4.3547-1.1466-8.822c-5.98123-66.239,46.40738-125.10446,117.01292-131.47972a133.85068,133.85068,0,0,1,72.02256,13.37743,127.74414,127.74414,0,0,1,21.34747,13.43569,70.24213,70.24213,0,0,0,10.91453,9.89678c.404.29662.79968.6008,1.21088.89015a119.51829,119.51829,0,0,1,15.42885,19.248q1.72405,2.68134,3.30512,5.4558a113.88334,113.88334,0,0,1,14.66575,63.6858Z"/><path class="cls-8" d="M340.30714,216.11005a113.68126,113.68126,0,0,0-14.443-46.08907q-1.57774-2.77569-3.30512-5.4558a119.51829,119.51829,0,0,0-15.42885-19.248c-.4112-.28935-.80688-.59353-1.21088-.89015a70.24213,70.24213,0,0,1-10.91453-9.89678,127.74414,127.74414,0,0,0-21.34747-13.43569,133.85068,133.85068,0,0,0-72.02256-13.37743c-70.60554,6.37526-122.99415,65.24076-117.01292,131.47972q.40317,4.46712,1.1466,8.822A114.59881,114.59881,0,0,0,108.569,299.48592c25.52708,32.73284,68.28132,52.29738,114.72471,48.10385,39.40479-3.558,73.12926-23.46921,94.2063-51.88286a116.56246,116.56246,0,0,0,23.02995-62.00013A114.06669,114.06669,0,0,0,340.30714,216.11005Z"/><path class="cls-5" d="M377.2863,174.12875c-5.87539,22.66191-2.51763,46.16313,5.87539,38.6092,5.4531-4.90758,6.65456-29.65,7.748-46.15605a88.34876,88.34876,0,0,1-12.96221,4.63659C377.75956,172.15692,377.54842,173.11814,377.2863,174.12875Z"/><path class="cls-5" d="M438.57057,112.29938q-.5769-1.30655-1.28514-2.57873c-3.93632,20.85308-16.79324,38.86052-34.81565,50.54875a26.16189,26.16189,0,0,1,3.35388,13.02c0,13.42925,0,46.16313,5.03582,36.93053,5.03636-9.23267-2.51763-49.52054,4.19678-51.19914,6.715-1.67868,11.75078,4.19664,13.42938-4.19665,1.58551-7.92751,5.4182-15.11083,10.0816-25.78387.27432-.62726.5503-1.26186.8296-1.91406C441.408,122.434,440.7374,117.20732,438.57057,112.29938Z"/><path class="cls-5" d="M378.01559,157.40541c.9011,3.41152,1.115,7.913-.06816,13.81308a88.34876,88.34876,0,0,0,12.96221-4.63659c.53534-8.07707,1.04463-14.182,2.01333-15.02285A77.98238,77.98238,0,0,1,378.01559,157.40541Z"/><path class="cls-5" d="M437.28543,109.72065a38.64172,38.64172,0,0,0-7.54734-9.44789c-1.26963,15.09178-8.60693,28.7375-19.94818,39.1595A70.89129,70.89129,0,0,1,393.097,151.46761a.29851.29851,0,0,1,.13688-.00077c2.041.51026,6.24669,3.517,9.23592,8.80256C420.49219,148.58117,433.34911,130.57373,437.28543,109.72065Z"/><path class="cls-7" d="M378.01559,157.40541a77.98238,77.98238,0,0,0,14.90738-5.84636.38688.38688,0,0,1,.174-.09144,70.89129,70.89129,0,0,0,16.69293-12.03535,77.631,77.631,0,0,1-31.92838,17.40332C377.9164,157.02005,377.96516,157.21415,378.01559,157.40541Z"/><path class="cls-7" d="M429.91764,94.2226c-.85233-34.90279-34.13844-62.97715-75.10435-62.97715-41.50124,0-75.1448,28.80746-75.1448,64.34326,0,1.40387.07093,2.79292.17456,4.17441,1.26353.6026,2.51929,1.21726,3.76176,1.85359-.05154-.95727-.08534-1.91849-.08534-2.88664C283.51947,64.63749,315.79643,37,355.61241,37c37.8204,0,68.81776,24.94235,71.83138,56.6616.1524,1.60809.24938,3.22961.25548,4.87018.00055.0665.00609.13183.00609.19833,0,15.59864-6.77094,29.835-17.91545,40.70219,11.34125-10.422,18.67855-24.06772,19.94818-39.1595.13023-1.54865.21945-3.10693.21945-4.684C429.95754,95.13055,429.92872,94.67848,429.91764,94.2226Z"/><path class="cls-10" d="M427.69927,98.53174c-.0061-1.64057-.10308-3.26209-.25548-4.87018C424.43017,61.94231,393.43281,37,355.61241,37c-39.816,0-72.09294,27.63753-72.09294,61.73011,0,.96815.0338,1.92937.08534,2.88664a144.33374,144.33374,0,0,1,34.778,24.87814,135.7454,135.7454,0,0,1,24.83048,32.67187,88.17036,88.17036,0,0,0,11.6.76519,86.67659,86.67659,0,0,0,23.04824-3.09633,77.631,77.631,0,0,0,31.92838-17.40332c11.14451-10.86715,17.91545-25.10355,17.91545-40.70219C427.70536,98.66357,427.69982,98.59824,427.69927,98.53174Z"/><path class="cls-7" d="M535.78826,362.89151c3.4891,7.85025-25.88785,58.82561-17.49428,55.483,8.393-3.34268,31.89458-58.49641,47.00257-50.13979s-11.75078,40.94746-5.03637,39.27613c6.715-1.67127,25.18016-45.96142,36.93094-53.4824,11.75023-7.52092,20.98282-35.09782,20.98282-35.09782l-1.25244-.077C601.11692,345.10931,570.71474,362.89151,535.78826,362.89151Z"/><path class="cls-7" d="M514.93678,363.81733c2.51762,12.58994-10.9112,55.39579-1.67861,42.80585,7.55178-10.29835,15.48926-38.44309,20.038-44.03411a99.933,99.933,0,0,1-19.71431-2.4343A13.09126,13.09126,0,0,1,514.93678,363.81733Z"/><path class="cls-7" d="M628.49,276.96421c0-22.45693-9.3584-42.88571-24.65314-58.16466q-2.5711,4.54681-4.99591,8.73473c12.02233,12.30233,19.30643,28.29894,19.30643,45.80347a62.44512,62.44512,0,0,1-1.8,14.84482A64.93993,64.93993,0,0,1,607.8873,307.798a68.00519,68.00519,0,0,1-5.98622,9.691c-14.23239,19.25448-38.87057,31.99585-66.90252,31.99585a88.27945,88.27945,0,0,1-36.016-7.57138c-.48823.29641-1.02911.59934-1.67195.92062-6.02059,3.0105,10.89457,7.37486,16.2712,17.32068a99.933,99.933,0,0,0,19.71431,2.4343c1.01193-1.24413,1.85761-1.37686,2.49214.05825,34.92648,0,65.32866-17.86023,81.13324-44.23112q2.09646-3.498,3.83879-7.19066l6.64625-21.26926S628.49,281.37754,628.49,276.96421Z"/><path class="cls-7" d="M538.35576,343.6096a86.08748,86.08748,0,0,1-51.62606-16.71123,17.90183,17.90183,0,0,0,4.70552,4.18508c9.86713,6.07213,12.15976,8.02886,7.54734,10.83a88.27945,88.27945,0,0,0,36.016,7.57138c28.032,0,52.67013-12.74137,66.90252-31.99585l-1.40761-.08687C585.86706,333.3792,563.4733,343.6096,538.35576,343.6096Z"/><path class="cls-7" d="M595.436,233.36139c-9.95358,16.85926-17.26207,27.61155-19.22829,27.21836-8.39358-1.67867-14.26841,1.67867-17.62617-13.42932,0,0,6.39188-11.42353,16.28617-28.798a87.79056,87.79056,0,0,0-39.86919-9.41111c-29.84579,0-55.84669,14.44076-69.5321,35.81185a63.59008,63.59008,0,0,0-6.03832,18.2632,62.55819,62.55819,0,0,0-.86451,10.32142c0,21.46578,10.94168,40.67087,28.16607,53.56062a86.08748,86.08748,0,0,0,51.62606,16.71123c25.11754,0,47.5113-10.2304,62.13771-26.20747a70.65528,70.65528,0,0,0,7.39383-9.60417,63.4424,63.4424,0,0,0,6.28382-19.96439,62.53835,62.53835,0,0,0,.619-8.6205C614.79014,261.68561,607.48663,245.67016,595.436,233.36139Z"/><path class="cls-11" d="M683.64226,48.22926c-4.74266-8.89171-65.16407,93.99425-100.25293,155.20772-1.79221,3.12681-3.52069,6.14833-5.16992,9.03718q-1.73568,3.03984-3.35166,5.87823c-9.89429,17.37451-16.28617,28.798-16.28617,28.798,3.35776,15.108,9.23259,11.75065,17.62617,13.42932,1.96622.39319,9.27471-10.3591,19.22829-27.21836q1.65505-2.80262,3.40487-5.82711,2.42064-4.18147,4.99591-8.73473C637.38118,159.49861,688.36773,57.09028,683.64226,48.22926Z"/><path class="cls-7" d="M114.47594,354.22577s-4.86734,12.51616-4.1724,17.38351c.69549,4.86741,20.86035,18.77421,26.42318,18.07886,5.56283-.69529,13.90653-12.5161,13.90653-12.5161S144.37548,354.92112,114.47594,354.22577Z"/><path class="cls-1" d="M350.22581,174.35112l1.84874,5.14207C351.48878,177.76464,350.88085,176.04669,350.22581,174.35112Z"/><path class="cls-7" d="M428.48564,154.82419c-1.6786,8.39329-6.71441,2.518-13.42938,4.19665-6.71441,1.6786.83958,41.96647-4.19678,51.19914-5.03582,9.2326-5.03582-23.50128-5.03582-36.93053a26.16189,26.16189,0,0,0-3.35388-13.02,86.32407,86.32407,0,0,1-11.56014,6.3125c-1.09339,16.5061-2.29485,41.24847-7.748,46.15605-8.393,7.55393-11.75078-15.94729-5.87539-38.6092.26212-1.01061.47326-1.97183.66113-2.91026a91.08394,91.08394,0,0,1-24.03523,3.2188c-.06706,0-.13245-.0045-.19895-.00464-1.16876-.00249-2.32976-.03567-3.48744-.08153.655,1.69557,1.263,3.41352,1.84874,5.14207l13.59113,70.20562c25.17518-7.576,52.76346-24.57037,66.00759-54.47861,3.42375-7.7316,6.8851-15.43655,6.88621-23.89233l.00776-42.28755C433.90384,139.71336,430.07115,146.89668,428.48564,154.82419Z"/><path class="cls-6" d="M365.66568,249.69881l-13.59113-70.20562a129.75438,129.75438,0,0,1,5.04467,63.38142c-5.59276,32.98083-23.736,62.56359-50.03,83.77875-5.27466,9.54792-10.43572,20.02049-14.57487,24.574-8.39357,9.23267-26.85876,3.35735-43.64535,7.554s-15.108,39.4485-24.34059,50.35977c-9.23259,10.91134-5.03581-19.30456-7.554-36.93052-.73706-5.15967-7.16108-9.02374-16.525-12.31a151.68675,151.68675,0,0,1-53.60947-13.52047,143.028,143.028,0,0,1-53.00208-41.66909,132.40248,132.40248,0,0,1-19.10139-33.55974L98.55977,389.56719a53.53346,53.53346,0,0,0,13.18886,25.841c20.16387,21.76313,68.98106,61.87794,145.51391,47.45,30.24025-5.70087,57.54049-25.83271,75.57055-39.38633,28.60068-21.4998,41.32451-51.56852,44.08308-87.24247Zm-228.939,139.98933c-5.56283.69535-25.72769-13.21145-26.42318-18.07886-.69494-4.86735,4.1724-17.38351,4.1724-17.38351,29.89954.69535,36.15731,22.94627,36.15731,22.94627S142.28955,388.99285,136.72672,389.68814Z"/><path class="cls-10" d="M536.79186,209.31a87.7904,87.7904,0,0,1,39.86919,9.41111q1.616-2.83836,3.35167-5.87823a87.792,87.792,0,0,0-39.86365-9.4082c-32.50583,0-60.45245,17.1281-72.8893,41.68717C480.94518,223.75073,506.94608,209.31,536.79186,209.31Z"/><path class="cls-10" d="M440.36387,112.66808l.00277-16.11368a72.8836,72.8836,0,0,1-1.2879,13.53495Q439.78781,111.35859,440.36387,112.66808Z"/><path class="cls-10" d="M355.7055,18.3028c-46.40626,0-84.072,34.515-84.63509,77.28435q5.3916,2.07774,10.566,4.54467c-.10363-1.3815-.17457-2.77054-.17457-4.17441,0-35.5358,33.64356-64.34326,75.14481-64.34326,40.9659,0,74.252,28.07435,75.10435,62.97714.01108.45588.0399.90795.0399,1.36612,0,1.57712-.08923,3.1354-.21946,4.684a38.64157,38.64157,0,0,1,7.54735,9.4479,72.8836,72.8836,0,0,0,1.2879-13.53495C440.36664,53.33728,402.46257,18.3028,355.7055,18.3028Z"/><path class="cls-10" d="M395.02717,151.83554a.29837.29837,0,0,0-.13688.00076c-.05819.03041-.11583.06117-.174.09144-.9687.84083-1.478,6.94578-2.01332,15.02285a86.32294,86.32294,0,0,0,11.56014-6.3125C401.27386,155.35249,397.0682,152.3458,395.02717,151.83554Z"/><path class="cls-10" d="M394.71627,151.92774c.05819-.03027.11583-.061.174-.09144A.387.387,0,0,0,394.71627,151.92774Z"/><path class="cls-10" d="M356.6066,160.3006a88.17052,88.17052,0,0,1-11.60005-.76518c.0726.13321.14686.265.21835.39845a84.364,84.364,0,0,0,12.18082.89507,83.10638,83.10638,0,0,0,22.40318-3.05484c-.05043-.19126-.0992-.38536-.15406-.56983A86.67618,86.67618,0,0,1,356.6066,160.3006Z"/><path class="cls-10" d="M379.8089,157.7741a83.10638,83.10638,0,0,1-22.40318,3.05484,84.364,84.364,0,0,1-12.18082-.89507q1.77142,3.2967,3.36386,6.69654,1.85122,3.97335,3.43036,8.0894c1.15767.04586,2.31867.079,3.48744.08154.0665.00013.13189.00464.19894.00464a91.08449,91.08449,0,0,0,24.03524-3.2188C380.92391,165.68707,380.71,161.18562,379.8089,157.7741Z"/><path class="cls-10" d="M619.96725,318.86221s-9.2326,27.69792-20.98282,35.25185c-11.75078,7.554-30.216,52.03851-36.93094,53.71711-6.71442,1.67868,20.14435-31.0552,5.03636-39.4485s-38.60954,47.0025-47.00256,50.35984c-8.39357,3.35728,20.98338-47.84179,17.49428-55.72649-.8357,0-1.66143-.038-2.49214-.05826-4.54869,5.591-12.48617,33.73576-20.038,44.03411-9.2326,12.58994,4.19623-30.2159,1.6786-42.80584a13.09082,13.09082,0,0,0-1.355-3.66256c-33.02787-7.50751-59.10137-31.3598-67.57086-61.76l-7.45313,79.69114s17.77358,45.16782,72.18217,49.52047C554.50005,431.33246,578.655,411.01,589.64876,402.75a22.5204,22.5204,0,0,0,7.95133-11.30453l24.95351-79.85122q-1.74316,3.68811-3.83879,7.19066Z"/><path class="cls-10" d="M537.58157,191.64986c-51.19769,0-92.70115,38.36162-92.70115,85.68305a79.69843,79.69843,0,0,0,2.92384,21.43059c8.46949,30.40017,34.543,54.25246,67.57086,61.76-5.37663-9.94583-22.29179-14.31018-16.27121-17.32068.64285-.32129,1.18373-.62421,1.672-.92063-25.9671-11.59228-43.77614-35.3072-43.77614-62.7004a62.44322,62.44322,0,0,1,2.23777-16.515,65.13367,65.13367,0,0,1,8.02227-17.945c12.43685-24.55907,40.38347-41.68717,72.8893-41.68717a87.792,87.792,0,0,1,39.86365,9.4082c1.64923-2.88886,3.37771-5.91037,5.16992-9.03718A98.02229,98.02229,0,0,0,537.58157,191.64986Z"/><path class="cls-10" d="M600.63422,227.903q-1.7465,3.01738-3.40487,5.8271c12.05059,12.30877,19.35409,28.32422,19.35409,45.85168a62.53861,62.53861,0,0,1-.619,8.62051,63.44268,63.44268,0,0,1-6.28382,19.96438,64.94,64.94,0,0,0,8.46007-19.61539,62.44455,62.44455,0,0,0,1.8-14.84482C619.94065,256.20191,612.65654,240.2053,600.63422,227.903Z"/><path class="cls-10" d="M603.69438,317.85769a68.005,68.005,0,0,0,5.98623-9.691,70.65393,70.65393,0,0,1-7.39384,9.60417Z"/><path class="cls-10" d="M493.22853,331.45215a17.90221,17.90221,0,0,1-4.70553-4.18508c-17.22439-12.88975-28.16607-32.09484-28.16607-53.56063a62.55819,62.55819,0,0,1,.86452-10.32142,63.58971,63.58971,0,0,1,6.03832-18.26319,65.13367,65.13367,0,0,0-8.02227,17.945,62.44322,62.44322,0,0,0-2.23777,16.515c0,27.3932,17.809,51.10812,43.77614,62.7004C505.38829,339.481,503.09565,337.52427,493.22853,331.45215Z"/><path class="cls-10" d="M202.24268,360.26931c9.36393,3.28627,15.788,7.15034,16.525,12.31,2.51818,17.626-1.67861,47.84187,7.554,36.93053,9.2326-10.91127,7.554-46.16313,24.34058-50.35977s35.25179,1.67867,43.64536-7.554c4.13915-4.55353,9.3002-15.0261,14.57487-24.574a152.54621,152.54621,0,0,1-82.28206,32.94537A157.02892,157.02892,0,0,1,202.24268,360.26931Z"/><path class="cls-10" d="M360.21318,209.83582a129.68156,129.68156,0,0,0-8.19406-35.116q-1.58689-4.11-3.43036-8.0894-1.58523-3.40247-3.36386-6.69654c-.07149-.13342-.14575-.26524-.21835-.39845a135.745,135.745,0,0,0-24.83047-32.67188,144.33394,144.33394,0,0,0-34.778-24.87814c-1.24247-.63633-2.49824-1.251-3.76176-1.85358q-5.17047-2.46606-10.566-4.54467a153.68406,153.68406,0,0,0-69.2018-9.521C121.24687,93.34585,61.42618,160.562,68.25586,236.19777A129.66791,129.66791,0,0,0,76.52973,271.52a132.40309,132.40309,0,0,0,19.10139,33.55974,143.02789,143.02789,0,0,0,53.00209,41.66909,151.68676,151.68676,0,0,0,53.60947,13.52048,157.02892,157.02892,0,0,0,24.35776-.30189,152.54621,152.54621,0,0,0,82.28206-32.94537c26.29405-21.21516,44.43727-50.79791,50.03-83.77875A129.74,129.74,0,0,0,360.21318,209.83582Zm-9.1938,29.04548A125.43429,125.43429,0,0,1,324.36677,303.095c-22.6581,28.64875-57.6328,48.569-98.254,52.23683-50.72885,4.58056-97.34515-17.3427-124.41561-53.70644a122.06441,122.06441,0,0,1-23.87895-62.2076c-6.39577-70.83518,49.6277-133.78523,125.13272-140.60286a143.65315,143.65315,0,0,1,69.2744,10.71973,138.77092,138.77092,0,0,1,12.91012,6.30446q1.8163,1.00562,3.59495,2.06341a134.45442,134.45442,0,0,1,24.64039,18.7524,128.61781,128.61781,0,0,1,16.56215,19.45918l.05652.08174q3.20121,4.63742,5.98845,9.55187,2.12388,3.76367,3.9801,7.68554a121.72624,121.72624,0,0,1,11.06138,65.44808Z"/><path class="cls-10" d="M351.24493,214.72893A121.42046,121.42046,0,0,0,339.958,173.43322q-1.86122-3.91652-3.9801-7.68554-2.7756-4.91632-5.98845-9.55187l-.05652-.08174a128.61781,128.61781,0,0,0-16.56215-19.45918,134.45442,134.45442,0,0,0-24.64039-18.7524q-1.77975-1.05707-3.59495-2.06341a138.77092,138.77092,0,0,0-12.91012-6.30446,143.65315,143.65315,0,0,0-69.2744-10.71973c-75.505,6.81763-131.52849,69.76768-125.13272,140.60286a122.06441,122.06441,0,0,0,23.87895,62.2076c27.07046,36.36374,73.68676,58.287,124.41561,53.70644,40.62121-3.66782,75.59591-23.58808,98.254-52.23683a125.43429,125.43429,0,0,0,26.65261-64.21366A121.68316,121.68316,0,0,0,351.24493,214.72893Zm-8.9217,19.34655a116.56247,116.56247,0,0,1-23.03,62.00013c-21.077,28.41364-54.8015,48.32483-94.20629,51.88285-46.4434,4.19353-89.19763-15.371-114.72471-48.10385a114.59893,114.59893,0,0,1-22.80053-51.46709q-.7365-4.35468-1.14659-8.82195c-5.98124-66.239,46.40738-125.10445,117.01291-131.47971a133.85061,133.85061,0,0,1,72.02257,13.37743A127.74474,127.74474,0,0,1,296.7981,134.899a70.24213,70.24213,0,0,0,10.91453,9.89678c.404.29663.79968.6008,1.21087.89015a119.5178,119.5178,0,0,1,15.42886,19.248q1.724,2.68135,3.30511,5.45581a113.88326,113.88326,0,0,1,14.66576,63.6858Z"/><path class="cls-10" d="M342.10045,216.47875a113.68112,113.68112,0,0,0-14.443-46.08907q-1.57773-2.77571-3.30511-5.45581a119.5178,119.5178,0,0,0-15.42886-19.248c-.41119-.28935-.80688-.59352-1.21087-.89015A70.24213,70.24213,0,0,1,296.7981,134.899a127.74474,127.74474,0,0,0-21.34747-13.43568,133.85061,133.85061,0,0,0-72.02257-13.37743c-70.60553,6.37526-122.99415,65.24075-117.01291,131.47971q.40317,4.46712,1.14659,8.82195a114.59893,114.59893,0,0,0,22.80053,51.46709c25.52708,32.73284,68.28131,52.29738,114.72471,48.10385,39.40479-3.558,73.12926-23.46921,94.20629-51.88285a116.56247,116.56247,0,0,0,23.03-62.00013A114.06793,114.06793,0,0,0,342.10045,216.47875Z"/><path class="cls-10" d="M379.0796,174.49745c-5.87539,22.66191-2.51763,46.16312,5.87539,38.6092,5.45311-4.90759,6.65457-29.64995,7.748-46.15606a88.3492,88.3492,0,0,1-12.96221,4.6366C379.55287,172.52562,379.34173,173.48684,379.0796,174.49745Z"/><path class="cls-10" d="M440.36387,112.66808c-.03933-.95135-.81242-1.73257-1.28513-2.57873-3.93633,20.85307-16.79324,38.86052-34.81565,50.54874a26.162,26.162,0,0,1,3.35388,13.02006c0,13.42924,0,46.16312,5.03581,36.93052,5.03637-9.23266-2.51763-49.52053,4.19679-51.19914,6.715-1.67867,11.75078,4.19665,13.42938-4.19665,1.5855-7.9275,5.41819-15.11082,10.0816-25.78387.27432-.62725.85892-1.3118.81025-2.01962C441.0256,125.27757,440.71858,121.24661,440.36387,112.66808Z"/><path class="cls-10" d="M379.8089,157.7741c.90109,3.41152,1.115,7.913-.06816,13.81309a88.3492,88.3492,0,0,0,12.96221-4.6366c.53533-8.07707,1.04462-14.182,2.01332-15.02285A77.98228,77.98228,0,0,1,379.8089,157.7741Z"/><path class="cls-10" d="M439.07874,110.08935a38.64157,38.64157,0,0,0-7.54735-9.4479c-1.26962,15.09178-8.60693,28.7375-19.94817,39.1595a70.89141,70.89141,0,0,1-16.69293,12.03535.29837.29837,0,0,1,.13688-.00076c2.041.51026,6.24669,3.51695,9.23592,8.80255C422.2855,148.94987,435.14241,130.94242,439.07874,110.08935Z"/><path class="cls-10" d="M379.8089,157.7741a77.98228,77.98228,0,0,0,14.90737-5.84636.387.387,0,0,1,.174-.09144A70.89141,70.89141,0,0,0,411.58322,139.801a77.63081,77.63081,0,0,1-31.92838,17.40332C379.7097,157.38874,379.75847,157.58284,379.8089,157.7741Z"/><path class="cls-10" d="M431.711,94.59129c-.85233-34.90279-34.13845-62.97714-75.10435-62.97714-41.50125,0-75.14481,28.80746-75.14481,64.34326,0,1.40387.07094,2.79291.17457,4.17441,1.26352.6026,2.51929,1.21725,3.76176,1.85358-.05154-.95727-.08535-1.91849-.08535-2.88664,0-34.09258,32.277-61.7301,72.09295-61.7301,37.8204,0,68.81776,24.94235,71.83138,56.6616.1524,1.60808.24938,3.2296.25547,4.87018.00056.0665.0061.13182.0061.19832,0,15.59864-6.77094,29.835-17.91545,40.70219,11.34124-10.422,18.67855-24.06772,19.94817-39.1595.13023-1.54864.21946-3.10692.21946-4.684C431.75085,95.49924,431.722,95.04717,431.711,94.59129Z"/><path class="cls-10" d="M429.49257,98.90044c-.00609-1.64058-.10307-3.2621-.25547-4.87018-3.01362-31.71925-34.011-56.6616-71.83138-56.6616-39.816,0-72.09295,27.63752-72.09295,61.7301,0,.96815.03381,1.92937.08535,2.88664a144.33394,144.33394,0,0,1,34.778,24.87814,135.745,135.745,0,0,1,24.83047,32.67188,88.17052,88.17052,0,0,0,11.60005.76518,86.67618,86.67618,0,0,0,23.04824-3.09633A77.63081,77.63081,0,0,0,411.58322,139.801c11.14451-10.86714,17.91545-25.10355,17.91545-40.70219C429.49867,99.03226,429.49313,98.96694,429.49257,98.90044Z"/><path class="cls-10" d="M537.58157,363.016c3.4891,7.8847-25.88785,59.08377-17.49428,55.72649,8.393-3.35734,31.89458-58.75313,47.00256-50.35984s-11.75078,41.12718-5.03636,39.4485c6.715-1.6786,25.18016-46.16312,36.93094-53.71711,11.75022-7.55393,20.98282-35.25185,20.98282-35.25185l-1.25244-.07731C602.91022,345.15578,572.50805,363.016,537.58157,363.016Z"/><path class="cls-10" d="M516.73008,364.186c2.51763,12.58994-10.9112,55.39578-1.6786,42.80584,7.55178-10.29835,15.48926-38.44308,20.038-44.03411a99.933,99.933,0,0,1-19.71431-2.43429A13.09082,13.09082,0,0,1,516.73008,364.186Z"/><path class="cls-10" d="M605.63013,219.16824q-2.5711,4.54682-4.99591,8.73474c12.02232,12.30232,19.30643,28.29893,19.30643,45.80346a62.44455,62.44455,0,0,1-1.8,14.84482,64.94,64.94,0,0,1-8.46007,19.61539,68.005,68.005,0,0,1-5.98623,9.691c-14.23238,19.25448-38.87056,31.99585-66.90252,31.99585a88.27944,88.27944,0,0,1-36.016-7.57138c-.48823.29642-1.02911.59934-1.672.92063-6.02058,3.0105,10.89458,7.37485,16.27121,17.32068a99.933,99.933,0,0,0,19.71431,2.43429c.83071.0203,1.65644.05826,2.49214.05826,34.92648,0,65.32865-17.86024,81.13324-44.23112q2.09646-3.498,3.83879-7.19066l6.64625-21.26927s1.08342-8.57873,1.08342-12.99206C630.28327,254.876,620.92487,234.44719,605.63013,219.16824Z"/><path class="cls-10" d="M540.14907,343.97829A86.08757,86.08757,0,0,1,488.523,327.26707a17.90221,17.90221,0,0,0,4.70553,4.18508c9.86712,6.07212,12.15976,8.02885,7.54734,10.83a88.27944,88.27944,0,0,0,36.016,7.57138c28.032,0,52.67014-12.74137,66.90252-31.99585l-1.40761-.08687C587.66037,333.7479,565.26661,343.97829,540.14907,343.97829Z"/><path class="cls-10" d="M597.22935,233.73008c-9.95358,16.85926-17.26207,27.61155-19.2283,27.21836-8.39357-1.67867-14.2684,1.67868-17.62617-13.42931,0,0,6.39189-11.42354,16.28617-28.798A87.7904,87.7904,0,0,0,536.79186,209.31c-29.84578,0-55.84668,14.44075-69.53209,35.81185a63.58971,63.58971,0,0,0-6.03832,18.26319,62.55819,62.55819,0,0,0-.86452,10.32142c0,21.46579,10.94168,40.67088,28.16607,53.56063a86.08757,86.08757,0,0,0,51.62607,16.71122c25.11754,0,47.5113-10.23039,62.1377-26.20747a70.65393,70.65393,0,0,0,7.39384-9.60417,63.44268,63.44268,0,0,0,6.28382-19.96438,62.53861,62.53861,0,0,0,.619-8.62051C616.58344,262.0543,609.27994,246.03885,597.22935,233.73008Z"/><path class="cls-10" d="M685.43556,48.598c-4.74265-8.8917-65.16407,93.99425-100.25292,155.20773-1.79221,3.12681-3.52069,6.14832-5.16992,9.03718q-1.73568,3.03984-3.35167,5.87823c-9.89428,17.3745-16.28617,28.798-16.28617,28.798,3.35777,15.108,9.2326,11.75064,17.62617,13.42931,1.96623.39319,9.27472-10.3591,19.2283-27.21836q1.65506-2.8026,3.40487-5.8271,2.42064-4.18148,4.99591-8.73474C639.17449,159.8673,690.161,57.459,685.43556,48.598Z"/><path class="cls-10" d="M116.26925,354.59446s-4.86734,12.51617-4.17241,17.38351c.6955,4.86741,20.86035,18.77422,26.42319,18.07886,5.56283-.69528,13.90653-12.5161,13.90653-12.5161S146.16878,355.28981,116.26925,354.59446Z"/><path class="cls-1" d="M352.01912,174.71981l1.84873,5.14208C353.28209,178.13334,352.67415,176.41539,352.01912,174.71981Z"/><path class="cls-10" d="M430.279,155.19288c-1.6786,8.3933-6.71441,2.518-13.42938,4.19665-6.71442,1.67861.83958,41.96648-4.19679,51.19914-5.03581,9.2326-5.03581-23.50128-5.03581-36.93052a26.162,26.162,0,0,0-3.35388-13.02006,86.32294,86.32294,0,0,1-11.56014,6.3125c-1.09339,16.50611-2.29485,41.24847-7.748,46.15606-8.393,7.55392-11.75078-15.94729-5.87539-38.6092.26213-1.01061.47327-1.97183.66114-2.91026a91.08449,91.08449,0,0,1-24.03524,3.2188c-.067,0-.13244-.00451-.19894-.00464-1.16877-.0025-2.32977-.03568-3.48744-.08154.655,1.69558,1.263,3.41353,1.84873,5.14208L367.459,250.0675c25.17517-7.576,52.76345-24.57037,66.00759-54.47861,3.42375-7.73159,6.8851-15.43655,6.88621-23.89232l.00776-42.28756C435.69714,140.08206,431.86445,147.26538,430.279,155.19288Z"/><path class="cls-10" d="M367.459,250.0675l-13.59114-70.20561a129.75448,129.75448,0,0,1,5.04468,63.38141c-5.59276,32.98084-23.736,62.56359-50.03,83.77875-5.27467,9.54793-10.43572,20.0205-14.57487,24.574-8.39357,9.23267-26.85877,3.35735-43.64536,7.554s-15.108,39.4485-24.34058,50.35977c-9.2326,10.91134-5.03581-19.30457-7.554-36.93053-.73706-5.15967-7.16109-9.02374-16.525-12.31a151.68676,151.68676,0,0,1-53.60947-13.52048,143.02789,143.02789,0,0,1-53.00209-41.66909A132.40309,132.40309,0,0,1,76.52973,271.52l23.82335,118.41589a53.53343,53.53343,0,0,0,13.18886,25.841c20.16387,21.76314,68.98106,61.87794,145.5139,47.45,30.24025-5.70086,57.5405-25.8327,75.57056-39.38633,28.60068-21.4998,41.3245-51.56852,44.08307-87.24247ZM138.52,390.05683c-5.56284.69536-25.72769-13.21145-26.42319-18.07886-.69493-4.86734,4.17241-17.38351,4.17241-17.38351,29.89953.69535,36.15731,22.94627,36.15731,22.94627S144.08286,389.36155,138.52,390.05683Z"/><path class="cls-10" d="M119.01451,380.13622s-6.93757,9.25009,2.31252,12.14074,38.73476-5.78131,53.188,16.18766S234.06253,443.15247,280.313,426.9648s74.00074-42.20354,79.20391-73.4226"/><path class="cls-5" d="M423.11663,296.72873c-2.39072-4.98788-3.202-13.04465-3.202-13.04465l-.07759-.00512c-3.80443,3.57368-10.97548,9.95947-13.523,10.42262-1.34111.24384-3.50462-.59747-5.646-1.9054-.67055,3.06737-1.4791,6.39653-2.35747,9.25934C411.39356,302.93,419.03124,299.69108,423.11663,296.72873Z"/><path class="cls-5" d="M409.49717,325.93264c5.51019,1.37761,14.111-16.17838,17.43221-23.49547a24.84852,24.84852,0,0,1-3.54231-5.15253c-.09421-.17741-.18066-.36929-.27044-.55591-4.08539,2.96235-11.72307,6.20131-24.80609,4.72679a32.341,32.341,0,0,1-1.93962,5.0852C400.31334,315.08932,405.624,324.96442,409.49717,325.93264Z"/><path class="cls-5" d="M452.61384,264.87482c-3.1832-9.26-11.86439-13.60056-13.02206-21.4137-1.15713-7.81307,0-26.62234-23.43894-19.96674l-5.78783,3.47248s2.89392-12.44309-11.5751-4.05125c-14.46847,8.39184-5.498,19.388-10.1276,24.30741-4.63015,4.91936-20.25629,6.945-19.09862,17.36238.67278,6.05923.169,9.08255-.71045,11.91918-.63232,2.04034-1.45693,3.98467-2.18346,6.89015-1.63926,6.55634,12.4496,17.49165,19.3879,18.69546a6.87317,6.87317,0,0,0,1.15767.11381s3.76176,8.10249,7.52352,6.36625a4.46826,4.46826,0,0,0,1.632-2.02953,32.341,32.341,0,0,0,1.93962-5.0852c.87837-2.86281,1.68692-6.192,2.35747-9.25934-2.93991-1.796-5.83826-4.4772-6.5077-6.48644-1.15768-3.47254-5.78783-17.0731-5.78783-17.0731s-6.945-10.41743-1.44641-10.9962a2.47229,2.47229,0,0,0,4.051.28942c2.3148-2.315,1.447-7.23437,5.498-9.83872,4.05159-2.60436,1.73623-6.65561,4.63015-7.81308,2.89391-1.15753,4.63015,2.02559,4.63015,2.02559s2.89336-.28935,6.65512-.28935c3.76231,0,15.916,2.02559,15.33686,8.39184-.57856,6.36619,1.15768,9.83866,1.15768,9.83866s-4.91944,19.388-6.945,21.4137c-.40455.40455-1.15325,1.12858-2.10311,2.02046l.07759.00512s.81131,8.05677,3.202,13.04465c.08978.18662.17623.3785.27044.55591a24.84852,24.84852,0,0,0,3.54231,5.15253,11.94216,11.94216,0,0,0,5.72077,3.68016,9.32192,9.32192,0,0,0,4.04771.13792c6.36639-1.15747,8.10263-4.3406,7.52407-8.39184s-8.68119-11.86432-3.1832-15.33679c3.37716-2.1329,8.16913-4.81387,10.62968-8.709A9.87006,9.87006,0,0,0,452.61384,264.87482Z"/><path class="cls-5" d="M427.72739,250.40614c.57912-6.36625-11.57455-8.39184-15.33686-8.39184-3.76176,0-6.65512.28935-6.65512.28935s-1.73624-3.18312-4.63015-2.02559c-2.89392,1.15747-.57856,5.20872-4.63015,7.81308-4.051,2.60435-3.1832,7.52372-5.498,9.83872a2.47229,2.47229,0,0,1-4.051-.28942c-5.49854.57877,1.44641,10.9962,1.44641,10.9962s4.63015,13.60056,5.78783,17.0731c.66944,2.00924,3.56779,4.69049,6.5077,6.48644,2.14134,1.30793,4.30485,2.14924,5.646,1.9054,2.54756-.46315,9.71861-6.84894,13.523-10.42262.94986-.89188,1.69856-1.61591,2.10311-2.02046,2.02551-2.02566,6.945-21.4137,6.945-21.4137S427.14883,256.77233,427.72739,250.40614Z"/><path class="cls-5" d="M399.23768,407.25437c1.31783,2.65548,2.85346,5.96288,4.16908,9.35888,4.39795,4.85563,10.07439,10.49474,13.32464,11.179,5.498,1.15747,4.91943-9.83873,4.63015-11.575s-8.10262-10.70685-8.10262-10.70685C409.7604,407.66342,400.51617,407.31387,399.23768,407.25437Z"/><path class="cls-5" d="M403.40676,416.61325c-1.31562-3.396-2.85125-6.7034-4.16908-9.35888-.09587-.0045-.15794-.00769-.15794-.00769s-.588.19923-1.54117.49855c-2.90333.912-9.237,2.76147-13.02095,2.83033-.76975,5.18627-1.39431,11.87346-.19618,14.61234,2.02552,4.62994,20.54558,14.46867,21.99253,5.49806C406.88921,427.11845,405.40346,421.76668,403.40676,416.61325Z"/><path class="cls-5" d="M428.40737,367.02c-2.66172-1.98278-8.4041-1.23346-19.7786-.28561-2.2289.18579-4.02942.35647-5.52736.51843-1.05571,7.54346-8.65182,24.07832-8.65182,24.07832s.24716-5.92935.74149-11.00853a36.40377,36.40377,0,0,1,.99475-6.35385c.47493-1.42507.01995-3.53053-.67721-5.52016-1.84264.40815-3.70966.86209-7.7147,1.46891-6.05162.91689-15.00325-5.02029-20.75284-9.49437-.22389,16.66536,12.91455,47.16272,14.67628,49.42792.42782.5503,1.45416.749,2.80026.72452,3.78392-.06886,10.11762-1.91836,13.02095-2.83033.95319-.29932,1.54117-.49855,1.54117-.49855s.06207.00319.15794.00769c1.27849.0595,10.52272.409,14.02125-1.74393,3.76175-2.315-.8684-8.39184,2.89391-15.04744C418.69264,385.96959,424.52646,374.36013,428.40737,367.02Z"/><path class="cls-5" d="M355.68432,352.95689a15.63873,15.63873,0,0,0-4.64068,4.51752c-2.3148,4.05124-7.52407,11.86431-1.15768,12.15373,6.36639.28935,11.5751-8.39184,11.5751-8.39184s-2.60463,7.81307,1.447,3.76183a13.99572,13.99572,0,0,0,3.01307-5.46045c-2.6983-2.1624-4.46-3.79951-4.46-3.79951Z"/><path class="cls-5" d="M477.74967,340.43982c-1.78944,2.60748-7.01423,10.09241-9.426,12.21006,2.19621,4.2495,5.44313,9.63042,7.72912,9.45454,3.76231-.28942.28983-5.78748,2.89391-7.52372,2.60463-1.73624,21.12414,8.10242,25.17573,5.20872C507.34,357.49124,486.47852,345.34547,477.74967,340.43982Z"/><path class="cls-5" d="M462.742,313.2002c-2.31536-8.68119,8.10207-34.72483-.8684-37.61854a38.78368,38.78368,0,0,0-10.20518-1.76408c-2.46055,3.89517-7.25252,6.57614-10.62968,8.709-5.498,3.47247,2.60464,11.28554,3.1832,15.33679s-1.15768,7.23437-7.52407,8.39184a9.32192,9.32192,0,0,1-4.04771-.13792,11.94216,11.94216,0,0,1-5.72077-3.68016c-3.32119,7.31709-11.922,24.87308-17.43221,23.49547-3.87315-.96822-9.18383-10.84332-13.12625-19.39192a4.46826,4.46826,0,0,1-1.632,2.02953c-3.76176,1.73624-7.52352-6.36625-7.52352-6.36625a6.87317,6.87317,0,0,1-1.15767-.11381c-6.9383-1.20381-21.02716-12.13912-19.3879-18.69546.72653-2.90548,1.55114-4.84981,2.18346-6.89015-3.29847,2.71567-9.85383,8.42315-10.28609,11.23075-.57856,3.76189-6.65567,9.54931-2.89336,22.86051,3.76176,13.31121,7.81279,30.67366,2.60408,37.03984l-4.63015,4.34066,2.0366.98055,5.77674,2.78128s1.76173,1.63711,4.46,3.79951c.35855.28727.7304.58216,1.12.88544,5.74959,4.47408,14.70122,10.41126,20.75284,9.49437,4.005-.60682,5.87206-1.06076,7.7147-1.46891a61.433,61.433,0,0,1,7.59279-1.19578c1.49794-.162,3.29846-.33264,5.52736-.51843,11.3745-.94785,17.11688-1.69717,19.7786.28561a4.12891,4.12891,0,0,1,1.34554,1.74c1.73679,4.05124,18.23078-5.20872,18.23078-5.20872s-6.07656-29.51611-2.3148-37.03984l3.18319-2.02558s15.047,27.49052,15.047,28.35864,1.447,1.44682,3.76176.28935a3.445,3.445,0,0,0,.66279-.48393c2.41178-2.11765,7.63657-9.60258,9.426-12.21006.38847-.56616.61846-.90656.61846-.90656S465.05679,321.88146,462.742,313.2002Z"/><path class="cls-7" d="M421.33171,297.476c-2.39072-4.98787-3.202-13.04465-3.202-13.04465l-.07758-.00512c-3.80443,3.57368-10.97549,9.95947-13.523,10.42262-1.34111.24384-3.50462-.59747-5.646-1.9054-.67056,3.06737-1.4791,6.39653-2.35747,9.25934C409.60864,303.67733,417.24631,300.43838,421.33171,297.476Z"/><path class="cls-7" d="M407.71224,326.67993c5.51019,1.37761,14.111-16.17838,17.43221-23.49547a24.84859,24.84859,0,0,1-3.5423-5.15253c-.09421-.17741-.18066-.36929-.27044-.55591-4.0854,2.96236-11.72307,6.20131-24.80609,4.72679a32.343,32.343,0,0,1-1.93962,5.0852C398.52841,315.83661,403.8391,325.71171,407.71224,326.67993Z"/><path class="cls-7" d="M425.94247,251.15343c.57911-6.36625-11.57455-8.39184-15.33687-8.39184-3.76175,0-6.65511.28935-6.65511.28935s-1.73624-3.18312-4.63016-2.02559c-2.89391,1.15747-.57856,5.20872-4.63015,7.81308-4.051,2.60435-3.18319,7.52372-5.498,9.83872a2.47229,2.47229,0,0,1-4.051-.28942c-5.49855.57877,1.4464,10.9962,1.4464,10.9962s4.63016,13.60056,5.78783,17.0731c.66945,2.00924,3.5678,4.69049,6.50771,6.48644,2.14134,1.30793,4.30485,2.14924,5.646,1.9054,2.54755-.46315,9.71861-6.84894,13.523-10.42262.94986-.89188,1.69855-1.61591,2.1031-2.02046,2.02552-2.02566,6.945-21.4137,6.945-21.4137S425.3639,257.51962,425.94247,251.15343Z"/><path class="cls-5" d="M397.45276,408.00166c1.31783,2.65548,2.85346,5.96288,4.16907,9.35888,4.398,4.85563,10.0744,10.49474,13.32465,11.179,5.498,1.15747,4.91943-9.83873,4.63015-11.575s-8.10263-10.70685-8.10263-10.70685C407.97548,408.41071,398.73124,408.06117,397.45276,408.00166Z"/><path class="cls-5" d="M401.62183,417.36054c-1.31561-3.396-2.85124-6.7034-4.16907-9.35888-.09588-.0045-.15794-.00769-.15794-.00769s-.588.19923-1.54117.49855c-2.90334.912-9.237,2.76147-13.021,2.83033-.76975,5.18627-1.39431,11.87346-.19618,14.61234,2.02552,4.63,20.54558,14.46867,21.99254,5.49806C405.10428,427.86574,403.61853,422.514,401.62183,417.36054Z"/><path class="cls-7" d="M353.89939,353.70418a15.63884,15.63884,0,0,0-4.64068,4.51752c-2.3148,4.05124-7.52407,11.86432-1.15768,12.15373,6.3664.28935,11.57511-8.39184,11.57511-8.39184s-2.60463,7.81308,1.447,3.76183a13.99557,13.99557,0,0,0,3.01306-5.46045c-2.69829-2.1624-4.46-3.79951-4.46-3.79951Z"/><path class="cls-7" d="M475.96474,341.18711c-1.78944,2.60748-7.01422,10.09241-9.426,12.21006,2.1962,4.2495,5.44313,9.63043,7.72911,9.45454,3.76231-.28942.28984-5.78748,2.89392-7.52372,2.60463-1.73624,21.12413,8.10242,25.17572,5.20872C505.55505,358.23853,484.69359,346.09276,475.96474,341.18711Z"/><path class="cls-5" d="M460.95706,313.94749c-2.31535-8.68119,8.10208-34.72483-.86839-37.61854a38.78381,38.78381,0,0,0-10.20518-1.76408c-2.46055,3.89517-7.25252,6.57615-10.62968,8.709-5.498,3.47247,2.60463,11.28554,3.18319,15.33679s-1.15767,7.23437-7.52406,8.39184a9.322,9.322,0,0,1-4.04772-.13792,11.94221,11.94221,0,0,1-5.72077-3.68016c-3.32119,7.31709-11.922,24.87308-17.43221,23.49547-3.87314-.96822-9.18383-10.84332-13.12624-19.39192a4.46843,4.46843,0,0,1-1.63206,2.02954c-3.76175,1.73623-7.52351-6.36626-7.52351-6.36626a6.87318,6.87318,0,0,1-1.15768-.11381c-6.9383-1.20381-21.02715-12.13912-19.3879-18.69546.72653-2.90548,1.55115-4.84981,2.18346-6.89015-3.29846,2.71567-9.85383,8.42315-10.28608,11.23075-.57857,3.7619-6.65568,9.54931-2.89337,22.86051,3.76176,13.31121,7.8128,30.67366,2.60408,37.03984l-4.63015,4.34066,2.0366.98055,5.77675,2.78128s1.76173,1.63711,4.46,3.79951c.35855.28727.73041.58216,1.12.88544,5.74959,4.47408,14.70122,10.41126,20.75284,9.49437,4.005-.60682,5.87207-1.06076,7.71471-1.46891a61.43244,61.43244,0,0,1,7.59278-1.19578c1.49794-.162,3.29847-.33264,5.52737-.51843,11.37449-.94785,17.11688-1.69717,19.77859.28561a4.12876,4.12876,0,0,1,1.34554,1.74c1.7368,4.05124,18.23078-5.20872,18.23078-5.20872s-6.07656-29.51611-2.3148-37.03984l3.1832-2.02558s15.047,27.49052,15.047,28.35864,1.447,1.44682,3.76176.28935a3.44469,3.44469,0,0,0,.6628-.48393c2.41178-2.11765,7.63656-9.60258,9.426-12.21006.38848-.56616.61846-.90656.61846-.90656S463.27186,322.62875,460.95706,313.94749Z"/><path class="cls-12" d="M423.11663,296.72873c-2.39072-4.98788-3.202-13.04465-3.202-13.04465l-.07759-.00512c-3.80443,3.57368-10.97548,9.95947-13.523,10.42262-1.34111.24384-3.50462-.59747-5.646-1.9054-.67055,3.06737-1.4791,6.39653-2.35747,9.25934C411.39356,302.93,419.03124,299.69108,423.11663,296.72873Z"/><path class="cls-12" d="M409.49717,325.93264c5.51019,1.37761,14.111-16.17838,17.43221-23.49547a24.84852,24.84852,0,0,1-3.54231-5.15253c-.09421-.17741-.18066-.36929-.27044-.55591-4.08539,2.96235-11.72307,6.20131-24.80609,4.72679a32.341,32.341,0,0,1-1.93962,5.0852C400.31334,315.08932,405.624,324.96442,409.49717,325.93264Z"/><path class="cls-11" d="M452.61384,264.87482c-3.1832-9.26-11.86439-13.60056-13.02206-21.4137-1.15713-7.81307,0-26.62234-23.43894-19.96674l-5.78783,3.47248s2.89392-12.44309-11.5751-4.05125c-14.46847,8.39184-5.498,19.388-10.1276,24.30741-4.63015,4.91936-20.25629,6.945-19.09862,17.36238.67278,6.05923.169,9.08255-.71045,11.91918-.63232,2.04034-1.45693,3.98467-2.18346,6.89015-1.63926,6.55634,12.4496,17.49165,19.3879,18.69546a6.87317,6.87317,0,0,0,1.15767.11381s3.76176,8.10249,7.52352,6.36625a4.46826,4.46826,0,0,0,1.632-2.02953,32.341,32.341,0,0,0,1.93962-5.0852c.87837-2.86281,1.68692-6.192,2.35747-9.25934-2.93991-1.796-5.83826-4.4772-6.5077-6.48644-1.15768-3.47254-5.78783-17.0731-5.78783-17.0731s-6.945-10.41743-1.44641-10.9962a2.47229,2.47229,0,0,0,4.051.28942c2.3148-2.315,1.447-7.23437,5.498-9.83872,4.05159-2.60436,1.73623-6.65561,4.63015-7.81308,2.89391-1.15753,4.63015,2.02559,4.63015,2.02559s2.89336-.28935,6.65512-.28935c3.76231,0,15.916,2.02559,15.33686,8.39184-.57856,6.36619,1.15768,9.83866,1.15768,9.83866s-4.91944,19.388-6.945,21.4137c-.40455.40455-1.15325,1.12858-2.10311,2.02046l.07759.00512s.81131,8.05677,3.202,13.04465c.08978.18662.17623.3785.27044.55591a24.84852,24.84852,0,0,0,3.54231,5.15253,11.94216,11.94216,0,0,0,5.72077,3.68016,9.32192,9.32192,0,0,0,4.04771.13792c6.36639-1.15747,8.10263-4.3406,7.52407-8.39184s-8.68119-11.86432-3.1832-15.33679c3.37716-2.1329,8.16913-4.81387,10.62968-8.709A9.87006,9.87006,0,0,0,452.61384,264.87482Z"/><path class="cls-12" d="M427.72739,250.40614c.57912-6.36625-11.57455-8.39184-15.33686-8.39184-3.76176,0-6.65512.28935-6.65512.28935s-1.73624-3.18312-4.63015-2.02559c-2.89392,1.15747-.57856,5.20872-4.63015,7.81308-4.051,2.60435-3.1832,7.52372-5.498,9.83872a2.47229,2.47229,0,0,1-4.051-.28942c-5.49854.57877,1.44641,10.9962,1.44641,10.9962s4.63015,13.60056,5.78783,17.0731c.66944,2.00924,3.56779,4.69049,6.5077,6.48644,2.14134,1.30793,4.30485,2.14924,5.646,1.9054,2.54756-.46315,9.71861-6.84894,13.523-10.42262.94986-.89188,1.69856-1.61591,2.10311-2.02046,2.02551-2.02566,6.945-21.4137,6.945-21.4137S427.14883,256.77233,427.72739,250.40614Z"/><path class="cls-12" d="M399.23768,407.25437c1.31783,2.65548,2.85346,5.96288,4.16908,9.35888,4.39795,4.85563,10.07439,10.49474,13.32464,11.179,5.498,1.15747,4.91943-9.83873,4.63015-11.575s-8.10262-10.70685-8.10262-10.70685C409.7604,407.66342,400.51617,407.31387,399.23768,407.25437Z"/><path class="cls-12" d="M403.40676,416.61325c-1.31562-3.396-2.85125-6.7034-4.16908-9.35888-.09587-.0045-.15794-.00769-.15794-.00769s-.588.19923-1.54117.49855c-2.90333.912-9.237,2.76147-13.02095,2.83033-.76975,5.18627-1.39431,11.87346-.19618,14.61234,2.02552,4.62994,20.54558,14.46867,21.99253,5.49806C406.88921,427.11845,405.40346,421.76668,403.40676,416.61325Z"/><path class="cls-11" d="M428.40737,367.02c-2.66172-1.98278-8.4041-1.23346-19.7786-.28561-2.2289.18579-4.02942.35647-5.52736.51843-1.05571,7.54346-8.65182,24.07832-8.65182,24.07832s.24716-5.92935.74149-11.00853a36.40377,36.40377,0,0,1,.99475-6.35385c.47493-1.42507.01995-3.53053-.67721-5.52016-1.84264.40815-3.70966.86209-7.7147,1.46891-6.05162.91689-15.00325-5.02029-20.75284-9.49437-.22389,16.66536,12.91455,47.16272,14.67628,49.42792.42782.5503,1.45416.749,2.80026.72452,3.78392-.06886,10.11762-1.91836,13.02095-2.83033.95319-.29932,1.54117-.49855,1.54117-.49855s.06207.00319.15794.00769c1.27849.0595,10.52272.409,14.02125-1.74393,3.76175-2.315-.8684-8.39184,2.89391-15.04744C418.69264,385.96959,424.52646,374.36013,428.40737,367.02Z"/><path class="cls-12" d="M355.68432,352.95689a15.63873,15.63873,0,0,0-4.64068,4.51752c-2.3148,4.05124-7.52407,11.86431-1.15768,12.15373,6.36639.28935,11.5751-8.39184,11.5751-8.39184s-2.60463,7.81307,1.447,3.76183a13.99572,13.99572,0,0,0,3.01307-5.46045c-2.6983-2.1624-4.46-3.79951-4.46-3.79951Z"/><path class="cls-12" d="M477.74967,340.43982c-1.78944,2.60748-7.01423,10.09241-9.426,12.21006,2.19621,4.2495,5.44313,9.63042,7.72912,9.45454,3.76231-.28942.28983-5.78748,2.89391-7.52372,2.60463-1.73624,21.12414,8.10242,25.17573,5.20872C507.34,357.49124,486.47852,345.34547,477.74967,340.43982Z"/><path class="cls-12" d="M462.742,313.2002c-2.31536-8.68119,8.10207-34.72483-.8684-37.61854a38.78368,38.78368,0,0,0-10.20518-1.76408c-2.46055,3.89517-7.25252,6.57614-10.62968,8.709-5.498,3.47247,2.60464,11.28554,3.1832,15.33679s-1.15768,7.23437-7.52407,8.39184a9.32192,9.32192,0,0,1-4.04771-.13792,11.94216,11.94216,0,0,1-5.72077-3.68016c-3.32119,7.31709-11.922,24.87308-17.43221,23.49547-3.87315-.96822-9.18383-10.84332-13.12625-19.39192a4.46826,4.46826,0,0,1-1.632,2.02953c-3.76176,1.73624-7.52352-6.36625-7.52352-6.36625a6.87317,6.87317,0,0,1-1.15767-.11381c-6.9383-1.20381-21.02716-12.13912-19.3879-18.69546.72653-2.90548,1.55114-4.84981,2.18346-6.89015-3.29847,2.71567-9.85383,8.42315-10.28609,11.23075-.57856,3.76189-6.65567,9.54931-2.89336,22.86051,3.76176,13.31121,7.81279,30.67366,2.60408,37.03984l-4.63015,4.34066,2.0366.98055,5.77674,2.78128s1.76173,1.63711,4.46,3.79951c.35855.28727.7304.58216,1.12.88544,5.74959,4.47408,14.70122,10.41126,20.75284,9.49437,4.005-.60682,5.87206-1.06076,7.7147-1.46891a61.433,61.433,0,0,1,7.59279-1.19578c1.49794-.162,3.29846-.33264,5.52736-.51843,11.3745-.94785,17.11688-1.69717,19.7786.28561a4.12891,4.12891,0,0,1,1.34554,1.74c1.73679,4.05124,18.23078-5.20872,18.23078-5.20872s-6.07656-29.51611-2.3148-37.03984l3.18319-2.02558s15.047,27.49052,15.047,28.35864,1.447,1.44682,3.76176.28935a3.445,3.445,0,0,0,.66279-.48393c2.41178-2.11765,7.63657-9.60258,9.426-12.21006.38847-.56616.61846-.90656.61846-.90656S465.05679,321.88146,462.742,313.2002Z"/><path class="cls-12" d="M398.61823,281.54137s8.85547,6.13072,13.62381,1.36239"/><line class="cls-12" x1="409.17668" y1="265.87399" x2="408.83608" y2="276.77304"/><path class="cls-12" d="M401.343,275.41066a8.4955,8.4955,0,0,0,10.21785.3406"/><path class="cls-12" d="M394.44959,391.33112s10.98054,14.18692,7.57459,16.23049"/><path class="cls-12" d="M392.48751,307.42661s-11.58024,58.24178-22.13869,55.17643"/><path class="cls-12" d="M428.88507,260.2448s8.561,12.1005,7.19863,15.16586"/><path class="cls-12" d="M430.29358,306.06423c-.34059,1.02179-5.79012,15.32679-1.36238,24.86345"/><circle class="cls-11" cx="400.18083" cy="262.94685" r="1.25721"/><circle class="cls-11" cx="418.10081" cy="265.44964" r="1.25721"/></g></svg>