<svg id="Layer_1" data-name="Layer 1" xmlns="http://www.w3.org/2000/svg" xmlns:xlink="http://www.w3.org/1999/xlink" viewBox="0 0 1488.02462 573.43707"><defs><style>.cls-1,.cls-10,.cls-12,.cls-3,.cls-9{fill:none;}.cls-2{clip-path:url(#clip-path);}.cls-3{stroke:#91bcd6;}.cls-10,.cls-3,.cls-9{stroke-miterlimit:10;}.cls-10,.cls-12,.cls-3,.cls-9{stroke-width:1.8px;}.cls-4{clip-path:url(#clip-path-2);}.cls-5{fill:#468fba;}.cls-6{fill:#91bcd6;}.cls-7{fill:#6ca5c8;}.cls-8{fill:#b5d2e3;}.cls-9{stroke:#6ca5c8;}.cls-10,.cls-12{stroke:#1d5493;}.cls-11{fill:#1d5493;}.cls-12{stroke-linejoin:round;}</style><clipPath id="clip-path"><rect class="cls-1" x="-2.01625" y="-594.14945" width="1492.05712" height="574.86184"/></clipPath><clipPath id="clip-path-2"><rect class="cls-1" x="-2.25611" y="-2.68906" width="1492.05712" height="574.86184"/></clipPath></defs><g class="cls-2"><circle class="cls-3" cx="937.96753" cy="3.03754" r="89.44841"/><path class="cls-3" d="M1445.11047-175.478l-188.3322,76.4276a3.19237,3.19237,0,0,0-1.7685,4.17328,3.30567,3.30567,0,0,0,.99677,1.31772l160.3306,124.891a3.19269,3.19269,0,0,0,4.49433-.5461,3.02033,3.02033,0,0,0,.61905-1.5472l28.06271-201.33213a3.22162,3.22162,0,0,0-2.72588-3.62733A3.12486,3.12486,0,0,0,1445.11047-175.478Z"/></g><g class="cls-4"><rect class="cls-5" x="-2.25611" y="-2.68906" width="1492.05712" height="574.86184"/><circle class="cls-3" cx="848.54933" cy="572.58229" r="89.44841"/><path class="cls-3" d="M1152.37553,221.10668l85.372,38.92824a4.59323,4.59323,0,0,1,2.25928,6.11267l-38.92826,85.37194a4.59333,4.59333,0,0,1-6.11272,2.25936l-85.372-38.92824a4.59323,4.59323,0,0,1-2.25928-6.11267l38.9607-85.31586A4.58975,4.58975,0,0,1,1152.37553,221.10668Z"/><path class="cls-3" d="M1282.8908,422.61549l-133.927,79.53674a2.44653,2.44653,0,0,0-.86081,3.36526,2.53327,2.53327,0,0,0,.90658.884l135.82686,76.22185a2.44679,2.44679,0,0,0,3.34274-.92987,2.31468,2.31468,0,0,0,.2914-1.24342l-1.85509-155.77586a2.469,2.469,0,0,0-2.482-2.43549A2.39472,2.39472,0,0,0,1282.8908,422.61549Z"/><path class="cls-3" d="M890.67174,109.52465l-85.01382,50.48812a1.553,1.553,0,0,0-.54643,2.13619,1.6081,1.6081,0,0,0,.57548.56114l86.2198,48.3839a1.55318,1.55318,0,0,0,2.1219-.59026,1.46937,1.46937,0,0,0,.185-.7893l-1.17757-98.883a1.56723,1.56723,0,0,0-1.5755-1.546A1.52024,1.52024,0,0,0,890.67174,109.52465Z"/></g><path class="cls-5" d="M1277.2202,283.42751a87.79043,87.79043,0,0,1,39.86919,9.41111q1.616-2.83836,3.35167-5.87823a87.792,87.792,0,0,0-39.86365-9.4082c-32.50584,0-60.45245,17.1281-72.8893,41.68717C1221.37352,297.86826,1247.37442,283.42751,1277.2202,283.42751Z"/><path class="cls-5" d="M1180.79221,186.78561l.00277-16.11368a72.88275,72.88275,0,0,1-1.28791,13.535Q1180.21615,185.47612,1180.79221,186.78561Z"/><path class="cls-5" d="M1096.13384,92.42033c-46.40627,0-84.072,34.515-84.63509,77.28435q5.39158,2.07776,10.566,4.54467c-.10363-1.3815-.17457-2.77054-.17457-4.17441,0-35.5358,33.64356-64.34326,75.1448-64.34326,40.96591,0,74.252,28.07435,75.10435,62.97714.01109.45588.0399.90795.0399,1.36612,0,1.57712-.08922,3.1354-.21945,4.68405a38.64125,38.64125,0,0,1,7.54734,9.44789,72.88275,72.88275,0,0,0,1.28791-13.535C1180.795,127.45481,1142.8909,92.42033,1096.13384,92.42033Z"/><path class="cls-5" d="M1135.45551,225.95307a.29842.29842,0,0,0-.13689.00076c-.05819.03041-.11582.06117-.174.09144-.9687.84083-1.478,6.94578-2.01333,15.02285a86.32244,86.32244,0,0,0,11.56015-6.3125C1141.70219,229.47,1137.49654,226.46333,1135.45551,225.95307Z"/><path class="cls-5" d="M1135.14461,226.04527c.05819-.03027.11582-.061.174-.09144A.38713.38713,0,0,0,1135.14461,226.04527Z"/><path class="cls-5" d="M1097.03493,234.41813a88.17048,88.17048,0,0,1-11.6-.76518c.0726.13321.14686.265.21835.39845a84.3638,84.3638,0,0,0,12.18082.89507,83.10678,83.10678,0,0,0,22.40318-3.05483c-.05043-.19127-.0992-.38537-.15406-.56984A86.67625,86.67625,0,0,1,1097.03493,234.41813Z"/><path class="cls-5" d="M1120.23724,231.89164a83.10678,83.10678,0,0,1-22.40318,3.05483,84.3638,84.3638,0,0,1-12.18082-.89507q1.77142,3.2967,3.36386,6.69655,1.85122,3.97333,3.43035,8.08939c1.15768.04586,2.31868.079,3.48744.08154.0665.00014.1319.00464.19895.00464a91.08435,91.08435,0,0,0,24.03523-3.2188C1121.35224,239.8046,1121.13833,235.30315,1120.23724,231.89164Z"/><path class="cls-5" d="M1360.39559,392.97974s-9.2326,27.69793-20.98282,35.25185c-11.75078,7.554-30.216,52.03851-36.93094,53.71711-6.71442,1.67868,20.14435-31.0552,5.03636-39.4485s-38.60954,47.0025-47.00256,50.35984c-8.39357,3.35728,20.98337-47.84179,17.49427-55.72649-.8357,0-1.66142-.038-2.49213-.05826-4.54869,5.591-12.48618,33.73576-20.03795,44.03411-9.2326,12.58995,4.19623-30.2159,1.6786-42.80584a13.09082,13.09082,0,0,0-1.355-3.66256c-33.02787-7.50751-59.10137-31.3598-67.57086-61.76l-7.45314,79.69113s17.77358,45.16782,72.18217,49.52047c41.96676,3.35735,66.12169-16.9651,77.11546-25.22512a22.52048,22.52048,0,0,0,7.95134-11.30453l24.95351-79.85122q-1.74317,3.68813-3.83879,7.19066Z"/><path class="cls-5" d="M1275.51777,437.07529c.83071.0203,1.65643.05826,2.49213.05826C1277.37537,435.69844,1276.52969,435.83116,1275.51777,437.07529Z"/><path class="cls-5" d="M1278.0099,265.7674c-51.19768,0-92.70114,38.36162-92.70114,85.683a79.69855,79.69855,0,0,0,2.92384,21.4306c8.46949,30.40016,34.543,54.25245,67.57086,61.76-5.37663-9.94583-22.29179-14.31018-16.27121-17.32068.64285-.32128,1.18373-.62421,1.672-.92063-25.9671-11.59228-43.77615-35.3072-43.77615-62.7004a62.44322,62.44322,0,0,1,2.23777-16.515,65.134,65.134,0,0,1,8.02228-17.945c12.43685-24.55907,40.38346-41.68717,72.8893-41.68717a87.792,87.792,0,0,1,39.86365,9.4082c1.64923-2.88886,3.37771-5.91037,5.16992-9.03718A98.02233,98.02233,0,0,0,1278.0099,265.7674Z"/><path class="cls-5" d="M1341.06255,302.02051q-1.74648,3.01739-3.40486,5.82711c12.05059,12.30876,19.35409,28.32421,19.35409,45.85167a62.53861,62.53861,0,0,1-.619,8.62051,63.44268,63.44268,0,0,1-6.28382,19.96438,64.93994,64.93994,0,0,0,8.46007-19.61539,62.44506,62.44506,0,0,0,1.8-14.84482C1360.369,330.31944,1353.08488,314.32283,1341.06255,302.02051Z"/><path class="cls-5" d="M1344.12272,391.97522a68.005,68.005,0,0,0,5.98623-9.691,70.65554,70.65554,0,0,1-7.39384,9.60417Z"/><path class="cls-5" d="M1233.65686,405.56968a17.90216,17.90216,0,0,1-4.70552-4.18508c-17.22439-12.88975-28.16607-32.09484-28.16607-53.56063a62.5571,62.5571,0,0,1,.86452-10.32142,63.58971,63.58971,0,0,1,6.03832-18.26319,65.134,65.134,0,0,0-8.02228,17.945,62.44322,62.44322,0,0,0-2.23777,16.515c0,27.3932,17.80905,51.10812,43.77615,62.7004C1245.81662,413.59853,1243.524,411.6418,1233.65686,405.56968Z"/><path class="cls-5" d="M942.671,434.38684c9.36393,3.28627,15.788,7.15034,16.525,12.31,2.51819,17.626-1.6786,47.84187,7.554,36.93053,9.23259-10.91127,7.554-46.16312,24.34058-50.35977s35.25178,1.67867,43.64536-7.554c4.13915-4.55353,9.3002-15.0261,14.57486-24.574a152.54618,152.54618,0,0,1-82.282,32.94537A157.02894,157.02894,0,0,1,942.671,434.38684Z"/><path class="cls-5" d="M1100.64152,283.95335a129.68129,129.68129,0,0,0-8.19407-35.116q-1.58688-4.11-3.43035-8.08939-1.58523-3.40248-3.36386-6.69655c-.07149-.13341-.14575-.26524-.21835-.39845a135.745,135.745,0,0,0-24.83047-32.67188,144.33426,144.33426,0,0,0-34.778-24.87814c-1.24246-.63633-2.49823-1.251-3.76175-1.85358q-5.17048-2.46606-10.566-4.54467a153.68406,153.68406,0,0,0-69.2018-9.521c-80.62174,7.27968-140.44243,74.49586-133.61275,150.1316a129.66791,129.66791,0,0,0,8.27387,35.32223,132.40278,132.40278,0,0,0,19.10139,33.55974,143.02779,143.02779,0,0,0,53.00209,41.66909A151.68671,151.68671,0,0,0,942.671,434.38684a157.02894,157.02894,0,0,0,24.35776-.30189,152.54618,152.54618,0,0,0,82.282-32.94537c26.29406-21.21516,44.43728-50.79791,50.03-83.77875A129.74,129.74,0,0,0,1100.64152,283.95335Zm-9.1938,29.04548a125.43429,125.43429,0,0,1-26.65261,64.21366c-22.6581,28.64876-57.6328,48.569-98.254,52.23683-50.72885,4.58056-97.34515-17.3427-124.41561-53.70644a122.06468,122.06468,0,0,1-23.879-62.2076C811.85077,242.7001,867.87424,179.75,943.37925,172.93242a143.65329,143.65329,0,0,1,69.27441,10.71973,138.76952,138.76952,0,0,1,12.91011,6.30446q1.81632,1.00563,3.59495,2.06341a134.45449,134.45449,0,0,1,24.6404,18.7524,128.61717,128.61717,0,0,1,16.56214,19.45918l.05653.08174q3.20121,4.63743,5.98844,9.55187,2.12389,3.76367,3.98011,7.68554a121.72624,121.72624,0,0,1,11.06138,65.44808Z"/><path class="cls-5" d="M1091.67327,288.84646a121.42069,121.42069,0,0,0-11.28693-41.29571q-1.86121-3.91652-3.98011-7.68554-2.7756-4.91631-5.98844-9.55187l-.05653-.08174a128.61717,128.61717,0,0,0-16.56214-19.45918,134.45449,134.45449,0,0,0-24.6404-18.7524q-1.77973-1.05706-3.59495-2.06341a138.76952,138.76952,0,0,0-12.91011-6.30446,143.65329,143.65329,0,0,0-69.27441-10.71973c-75.505,6.81763-131.52848,69.76768-125.13272,140.60286a122.06468,122.06468,0,0,0,23.879,62.2076c27.07046,36.36374,73.68676,58.287,124.41561,53.70644,40.62121-3.66782,75.59591-23.58807,98.254-52.23683a125.43429,125.43429,0,0,0,26.65261-64.21366A121.68316,121.68316,0,0,0,1091.67327,288.84646Zm-8.92171,19.34655a116.56238,116.56238,0,0,1-23.02995,62.00013c-21.077,28.41365-54.8015,48.32483-94.20629,51.88285-46.4434,4.19353-89.19764-15.371-114.72471-48.10385a114.59879,114.59879,0,0,1-22.80053-51.46708q-.7365-4.3547-1.14659-8.822c-5.98124-66.239,46.40738-125.10445,117.01291-131.47971a133.85074,133.85074,0,0,1,72.02257,13.37743,127.74414,127.74414,0,0,1,21.34747,13.43569,70.243,70.243,0,0,0,10.91452,9.89677c.404.29663.79968.6008,1.21088.89015a119.51835,119.51835,0,0,1,15.42886,19.248q1.724,2.68135,3.30511,5.45581a113.883,113.883,0,0,1,14.66575,63.6858Z"/><path class="cls-5" d="M1082.52879,290.59628a113.68112,113.68112,0,0,0-14.443-46.08907q-1.57775-2.7757-3.30511-5.45581a119.51835,119.51835,0,0,0-15.42886-19.248c-.4112-.28935-.80688-.59352-1.21088-.89015a70.243,70.243,0,0,1-10.91452-9.89677,127.74414,127.74414,0,0,0-21.34747-13.43569,133.85074,133.85074,0,0,0-72.02257-13.37743c-70.60553,6.37526-122.99415,65.24075-117.01291,131.47971q.40317,4.46713,1.14659,8.822a114.59879,114.59879,0,0,0,22.80053,51.46708c25.52707,32.73284,68.28131,52.29738,114.72471,48.10385,39.40479-3.558,73.12926-23.4692,94.20629-51.88285a116.56238,116.56238,0,0,0,23.02995-62.00013A114.06791,114.06791,0,0,0,1082.52879,290.59628Z"/><path class="cls-5" d="M1119.50794,248.615c-5.87539,22.66191-2.51763,46.16312,5.87539,38.6092,5.45311-4.90759,6.65456-29.64995,7.748-46.15606a88.34722,88.34722,0,0,1-12.96221,4.6366C1119.98121,246.64315,1119.77007,247.60437,1119.50794,248.615Z"/><path class="cls-5" d="M1180.79221,186.78561q-.5769-1.30654-1.28514-2.57873c-3.93632,20.85308-16.79324,38.86052-34.81564,50.54874a26.162,26.162,0,0,1,3.35388,13.02006c0,13.42924,0,46.16312,5.03581,36.93052,5.03636-9.23266-2.51763-49.52053,4.19679-51.19914,6.715-1.67867,11.75078,4.19665,13.42938-4.19664,1.5855-7.92751,5.41819-15.11083,10.0816-25.78387.27431-.62726.55029-1.26187.8296-1.91406C1183.6296,196.9202,1182.959,191.69354,1180.79221,186.78561Z"/><path class="cls-5" d="M1120.23724,231.89164c.90109,3.41151,1.115,7.913-.06817,13.81308a88.34722,88.34722,0,0,0,12.96221-4.6366c.53534-8.07707,1.04463-14.182,2.01333-15.02285A77.983,77.983,0,0,1,1120.23724,231.89164Z"/><path class="cls-5" d="M1179.50707,184.20688a38.64125,38.64125,0,0,0-7.54734-9.44789c-1.26962,15.09177-8.60693,28.73749-19.94817,39.15949a70.89127,70.89127,0,0,1-16.69294,12.03535.29842.29842,0,0,1,.13689-.00076c2.041.51026,6.24668,3.517,9.23592,8.80255C1162.71383,223.0674,1175.57075,205.06,1179.50707,184.20688Z"/><path class="cls-5" d="M1120.23724,231.89164a77.983,77.983,0,0,0,14.90737-5.84637.38713.38713,0,0,1,.174-.09144,70.89127,70.89127,0,0,0,16.69294-12.03535,77.63081,77.63081,0,0,1-31.92838,17.40332C1120.138,231.50627,1120.18681,231.70037,1120.23724,231.89164Z"/><path class="cls-5" d="M1172.13928,168.70882c-.85232-34.90279-34.13844-62.97714-75.10435-62.97714-41.50124,0-75.1448,28.80746-75.1448,64.34326,0,1.40387.07094,2.79291.17457,4.17441,1.26352.6026,2.51929,1.21725,3.76175,1.85358-.05153-.95727-.08534-1.91849-.08534-2.88664,0-34.09258,32.277-61.7301,72.09295-61.7301,37.82039,0,68.81776,24.94235,71.83138,56.6616.15239,1.60808.24937,3.2296.25547,4.87018.00056.0665.0061.13182.0061.19832,0,15.59865-6.77094,29.83505-17.91545,40.70219,11.34124-10.422,18.67855-24.06772,19.94817-39.15949.13023-1.54865.21945-3.10693.21945-4.68405C1172.17918,169.61677,1172.15037,169.1647,1172.13928,168.70882Z"/><path class="cls-5" d="M1169.92091,173.018c-.0061-1.64058-.10308-3.2621-.25547-4.87018-3.01362-31.71925-34.011-56.6616-71.83138-56.6616-39.816,0-72.09295,27.63752-72.09295,61.7301,0,.96815.03381,1.92937.08534,2.88664a144.33426,144.33426,0,0,1,34.778,24.87814,135.745,135.745,0,0,1,24.83047,32.67188,88.17048,88.17048,0,0,0,11.6.76518,86.67625,86.67625,0,0,0,23.04825-3.09633,77.63081,77.63081,0,0,0,31.92838-17.40332c11.14451-10.86714,17.91545-25.10354,17.91545-40.70219C1169.927,173.14979,1169.92147,173.08447,1169.92091,173.018Z"/><path class="cls-5" d="M1278.0099,437.37774c3.4891,7.85024-25.88784,58.8256-17.49427,55.483,8.393-3.34267,31.89457-58.49641,47.00256-50.13979s-11.75078,40.94747-5.03636,39.27613c6.715-1.67127,25.18016-45.96141,36.93094-53.4824,11.75022-7.52091,20.98282-35.09782,20.98282-35.09782l-1.25244-.077C1343.33856,419.59554,1312.93638,437.37774,1278.0099,437.37774Z"/><path class="cls-5" d="M1257.15842,438.30356c2.51763,12.58994-10.9112,55.39579-1.6786,42.80584,7.55177-10.29835,15.48926-38.44308,20.03795-44.03411a99.933,99.933,0,0,1-19.71431-2.43429A13.09082,13.09082,0,0,1,1257.15842,438.30356Z"/><path class="cls-5" d="M1370.7116,351.45044c0-22.45694-9.35839-42.88572-24.65314-58.16467q-2.5711,4.54681-4.99591,8.73474c12.02233,12.30232,19.30644,28.29893,19.30644,45.80346a62.44506,62.44506,0,0,1-1.8,14.84482,64.93994,64.93994,0,0,1-8.46007,19.61539,68.005,68.005,0,0,1-5.98623,9.691c-14.23238,19.25448-38.87056,31.99585-66.90252,31.99585a88.27944,88.27944,0,0,1-36.016-7.57138c-.48823.29642-1.02911.59935-1.672.92063-6.02058,3.0105,10.89458,7.37485,16.27121,17.32068a99.933,99.933,0,0,0,19.71431,2.43429c1.01192-1.24413,1.8576-1.37685,2.49213.05826,34.92648,0,65.32866-17.86024,81.13325-44.23112q2.09644-3.498,3.83879-7.19066l6.64625-21.26926S1370.7116,355.86377,1370.7116,351.45044Z"/><path class="cls-5" d="M1280.57741,418.09582a86.08757,86.08757,0,0,1-51.62607-16.71122,17.90216,17.90216,0,0,0,4.70552,4.18508c9.86713,6.07212,12.15976,8.02885,7.54735,10.83a88.27944,88.27944,0,0,0,36.016,7.57138c28.032,0,52.67014-12.74137,66.90252-31.99585l-1.40761-.08687C1328.0887,407.86543,1305.695,418.09582,1280.57741,418.09582Z"/><path class="cls-5" d="M1337.65769,307.84762c-9.95358,16.85925-17.26208,27.61154-19.2283,27.21835-8.39357-1.67867-14.26841,1.67868-17.62617-13.42931,0,0,6.39189-11.42354,16.28617-28.798a87.79043,87.79043,0,0,0-39.86919-9.41111c-29.84578,0-55.84668,14.44075-69.53209,35.81185a63.58971,63.58971,0,0,0-6.03832,18.26319,62.5571,62.5571,0,0,0-.86452,10.32142c0,21.46579,10.94168,40.67088,28.16607,53.56063a86.08757,86.08757,0,0,0,51.62607,16.71122c25.11754,0,47.51129-10.23039,62.1377-26.20747a70.65554,70.65554,0,0,0,7.39384-9.60417,63.44268,63.44268,0,0,0,6.28382-19.96438,62.53861,62.53861,0,0,0,.619-8.62051C1357.01178,336.17183,1349.70828,320.15638,1337.65769,307.84762Z"/><path class="cls-5" d="M1425.8639,122.71549c-4.74265-8.89171-65.16407,93.99425-100.25292,155.20772-1.79221,3.12681-3.52069,6.14832-5.16992,9.03718q-1.7357,3.03984-3.35167,5.87823c-9.89428,17.3745-16.28617,28.798-16.28617,28.798,3.35776,15.108,9.2326,11.75064,17.62617,13.42931,1.96622.39319,9.27472-10.3591,19.2283-27.21835q1.655-2.80261,3.40486-5.82711,2.42065-4.18147,4.99591-8.73474C1379.60283,233.98483,1430.58937,131.57651,1425.8639,122.71549Z"/><path class="cls-5" d="M856.69758,428.712s-4.86734,12.51617-4.1724,17.38351c.69549,4.86741,20.86035,18.77422,26.42318,18.07886,5.56284-.69528,13.90653-12.5161,13.90653-12.5161S886.59712,429.40735,856.69758,428.712Z"/><path class="cls-5" d="M1092.44745,248.83734l1.84874,5.14208C1093.71042,252.25087,1093.10249,250.53292,1092.44745,248.83734Z"/><path class="cls-5" d="M1170.70729,229.31042c-1.6786,8.39329-6.71442,2.518-13.42938,4.19664-6.71442,1.67861.83957,41.96648-4.19679,51.19914-5.03581,9.2326-5.03581-23.50128-5.03581-36.93052a26.162,26.162,0,0,0-3.35388-13.02006,86.32244,86.32244,0,0,1-11.56015,6.3125c-1.09339,16.50611-2.29484,41.24847-7.748,46.15606-8.393,7.55392-11.75078-15.94729-5.87539-38.6092.26213-1.01061.47327-1.97183.66113-2.91026a91.08435,91.08435,0,0,1-24.03523,3.2188c-.067,0-.13245-.0045-.19895-.00464-1.16876-.0025-2.32976-.03568-3.48744-.08154.655,1.69558,1.263,3.41353,1.84874,5.14208l13.59114,70.20561c25.17517-7.57595,52.76345-24.57037,66.00759-54.47861,3.42374-7.73159,6.8851-15.43654,6.88621-23.89232l.00776-42.28755C1176.12548,214.19959,1172.29279,221.38291,1170.70729,229.31042Z"/><path class="cls-5" d="M1107.88733,324.185l-13.59114-70.20561a129.75448,129.75448,0,0,1,5.04468,63.38141c-5.59276,32.98084-23.736,62.56359-50.03,83.77875-5.27466,9.54793-10.43571,20.0205-14.57486,24.574-8.39358,9.23267-26.85877,3.35735-43.64536,7.554s-15.108,39.4485-24.34058,50.35977c-9.2326,10.91134-5.03581-19.30457-7.554-36.93053-.737-5.15967-7.16108-9.02374-16.525-12.31a151.68671,151.68671,0,0,1-53.60947-13.52048,143.02779,143.02779,0,0,1-53.00209-41.66909,132.40278,132.40278,0,0,1-19.10139-33.55974l23.82335,118.41589a53.5334,53.5334,0,0,0,13.18885,25.841c20.16387,21.76313,68.98107,61.87793,145.51391,47.45,30.24025-5.70086,57.5405-25.8327,75.57056-39.38632,28.60068-21.49981,41.3245-51.56852,44.08307-87.24248Zm-228.939,139.98933c-5.56283.69536-25.72769-13.21145-26.42318-18.07886-.69494-4.86734,4.1724-17.38351,4.1724-17.38351,29.89954.69536,36.15731,22.94627,36.15731,22.94627S884.5112,463.47908,878.94836,464.17436Z"/><path class="cls-6" d="M1274.61664,285.07844a87.79043,87.79043,0,0,1,39.86919,9.41111q1.616-2.83836,3.35167-5.87823a87.79217,87.79217,0,0,0-39.86365-9.4082c-32.50584,0-60.45245,17.1281-72.8893,41.68717C1218.77,299.5192,1244.77086,285.07844,1274.61664,285.07844Z"/><path class="cls-7" d="M1178.18865,188.43654l.00277-16.11368a72.88275,72.88275,0,0,1-1.28791,13.535Q1177.61259,187.12705,1178.18865,188.43654Z"/><path class="cls-8" d="M1093.53028,94.07127c-46.40627,0-84.072,34.515-84.63509,77.28434q5.3916,2.07775,10.566,4.54467c-.10363-1.38149-.17457-2.77054-.17457-4.17441,0-35.5358,33.64356-64.34326,75.14481-64.34326,40.9659,0,74.252,28.07435,75.10434,62.97714.01109.45588.0399.90795.0399,1.36612,0,1.57712-.08922,3.1354-.21945,4.68405a38.64125,38.64125,0,0,1,7.54734,9.44789,72.88275,72.88275,0,0,0,1.28791-13.535C1178.19142,129.10574,1140.28734,94.07127,1093.53028,94.07127Z"/><path class="cls-8" d="M1132.852,227.604a.29842.29842,0,0,0-.13689.00076c-.05818.03041-.11582.06117-.174.09144-.9687.84083-1.478,6.94578-2.01332,15.02285a86.324,86.324,0,0,0,11.56014-6.31249C1139.09863,231.121,1134.893,228.11426,1132.852,227.604Z"/><path class="cls-7" d="M1132.54105,227.6962c.05819-.03027.11583-.061.174-.09144A.38713.38713,0,0,0,1132.54105,227.6962Z"/><path class="cls-7" d="M1094.43138,236.06906a88.17052,88.17052,0,0,1-11.60005-.76518c.0726.13321.14686.265.21835.39845a84.36238,84.36238,0,0,0,12.18082.89507,83.10678,83.10678,0,0,0,22.40318-3.05483c-.05043-.19126-.0992-.38537-.15406-.56984A86.67624,86.67624,0,0,1,1094.43138,236.06906Z"/><path class="cls-8" d="M1117.63368,233.54257a83.10678,83.10678,0,0,1-22.40318,3.05483,84.36238,84.36238,0,0,1-12.18082-.89507q1.77142,3.2967,3.36386,6.69655,1.85122,3.97335,3.43035,8.08939c1.15768.04586,2.31868.079,3.48744.08154.0665.00014.1319.00464.19895.00464a91.08435,91.08435,0,0,0,24.03523-3.2188C1118.74868,241.45553,1118.53477,236.95408,1117.63368,233.54257Z"/><path class="cls-6" d="M1357.792,394.63067s-9.2326,27.69793-20.98282,35.25185c-11.75078,7.554-30.216,52.03851-36.93094,53.71712-6.71442,1.67867,20.14435-31.05521,5.03636-39.4485s-38.60954,47.00249-47.00256,50.35983c-8.39357,3.35728,20.98337-47.84179,17.49427-55.72649-.8357,0-1.66142-.038-2.49213-.05826-4.54869,5.591-12.48618,33.73576-20.03795,44.03411-9.2326,12.58995,4.19623-30.2159,1.6786-42.80584a13.09082,13.09082,0,0,0-1.355-3.66256c-33.02787-7.50751-59.10137-31.3598-67.57086-61.76l-7.45314,79.69113s17.77358,45.16782,72.18218,49.52047c41.96675,3.35735,66.12168-16.9651,77.11545-25.22512a22.52048,22.52048,0,0,0,7.95134-11.30453l24.95351-79.85122q-1.74317,3.68813-3.83879,7.19066Z"/><path class="cls-9" d="M1272.91421,438.72622c.83071.0203,1.65643.05826,2.49213.05826C1274.77181,437.34937,1273.92613,437.48209,1272.91421,438.72622Z"/><path class="cls-8" d="M1275.40634,267.41833c-51.19768,0-92.70114,38.36162-92.70114,85.683a79.69855,79.69855,0,0,0,2.92384,21.4306c8.46949,30.40016,34.543,54.25245,67.57086,61.76-5.37663-9.94582-22.29179-14.31018-16.27121-17.32068.64285-.32128,1.18373-.62421,1.672-.92063-25.9671-11.59228-43.77615-35.3072-43.77615-62.7004a62.44322,62.44322,0,0,1,2.23777-16.515,65.134,65.134,0,0,1,8.02228-17.945c12.43685-24.55907,40.38346-41.68717,72.8893-41.68717a87.79217,87.79217,0,0,1,39.86365,9.4082c1.64923-2.88886,3.37771-5.91037,5.16992-9.03718A98.02244,98.02244,0,0,0,1275.40634,267.41833Z"/><path class="cls-7" d="M1338.459,303.67144q-1.74648,3.01738-3.40486,5.82711c12.05059,12.30876,19.35409,28.32422,19.35409,45.85167a62.53861,62.53861,0,0,1-.619,8.62051,63.4426,63.4426,0,0,1-6.28382,19.96438,64.93994,64.93994,0,0,0,8.46007-19.61539,62.44506,62.44506,0,0,0,1.8-14.84482C1357.76543,331.97037,1350.48132,315.97376,1338.459,303.67144Z"/><path class="cls-7" d="M1341.51916,393.62615a68.005,68.005,0,0,0,5.98623-9.691,70.65554,70.65554,0,0,1-7.39384,9.60417Z"/><path class="cls-6" d="M1231.0533,407.22061a17.90216,17.90216,0,0,1-4.70552-4.18508c-17.22439-12.88975-28.16607-32.09484-28.16607-53.56063a62.5571,62.5571,0,0,1,.86452-10.32142,63.58971,63.58971,0,0,1,6.03832-18.26319,65.134,65.134,0,0,0-8.02228,17.945,62.44322,62.44322,0,0,0-2.23777,16.515c0,27.3932,17.80905,51.10812,43.77615,62.7004C1243.21307,415.24946,1240.92043,413.29273,1231.0533,407.22061Z"/><path class="cls-8" d="M940.06746,436.03777c9.36393,3.28627,15.788,7.15034,16.525,12.31,2.51819,17.626-1.6786,47.84187,7.554,36.93053,9.23259-10.91127,7.554-46.16312,24.34058-50.35977s35.25178,1.67867,43.64536-7.554c4.13915-4.55354,9.3002-15.02611,14.57486-24.574a152.54618,152.54618,0,0,1-82.28205,32.94537A157.02892,157.02892,0,0,1,940.06746,436.03777Z"/><path class="cls-8" d="M1098.038,285.60428a129.68137,129.68137,0,0,0-8.19407-35.116q-1.58688-4.11-3.43035-8.08939-1.58523-3.40248-3.36386-6.69655c-.07149-.13341-.14575-.26524-.21835-.39845a135.74516,135.74516,0,0,0-24.83047-32.67188,144.33376,144.33376,0,0,0-34.778-24.87813c-1.24246-.63634-2.49823-1.251-3.76175-1.85359q-5.17048-2.46606-10.566-4.54467a153.68406,153.68406,0,0,0-69.2018-9.521c-80.62174,7.27968-140.44243,74.49586-133.61275,150.1316a129.66791,129.66791,0,0,0,8.27387,35.32223A132.40261,132.40261,0,0,0,833.4559,380.8482,143.02779,143.02779,0,0,0,886.458,422.51729a151.68671,151.68671,0,0,0,53.60947,13.52048,157.02892,157.02892,0,0,0,24.35776-.30189,152.54618,152.54618,0,0,0,82.28205-32.94537c26.29406-21.21516,44.43728-50.79791,50.03-83.77875A129.74,129.74,0,0,0,1098.038,285.60428Zm-9.1938,29.04548a125.43429,125.43429,0,0,1-26.65261,64.21366c-22.6581,28.64876-57.6328,48.569-98.254,52.23684-50.72885,4.58055-97.34515-17.34271-124.41561-53.70645a122.06468,122.06468,0,0,1-23.879-62.2076C809.24721,244.351,865.27068,181.401,940.77569,174.58335a143.65329,143.65329,0,0,1,69.27441,10.71973,138.76952,138.76952,0,0,1,12.91011,6.30446q1.81632,1.00563,3.59495,2.06341a134.45449,134.45449,0,0,1,24.6404,18.7524,128.61717,128.61717,0,0,1,16.56214,19.45918l.05653.08174q3.20121,4.63743,5.98844,9.55187,2.12389,3.76367,3.98011,7.68554a121.72624,121.72624,0,0,1,11.06138,65.44808Z"/><path class="cls-7" d="M1089.06971,290.49739a121.42069,121.42069,0,0,0-11.28693-41.29571q-1.86121-3.91652-3.98011-7.68554-2.7756-4.91631-5.98844-9.55187l-.05653-.08174a128.61717,128.61717,0,0,0-16.56214-19.45918,134.45449,134.45449,0,0,0-24.6404-18.7524q-1.77973-1.05705-3.59495-2.06341a138.76952,138.76952,0,0,0-12.91011-6.30446,143.65329,143.65329,0,0,0-69.27441-10.71973C865.27068,181.401,809.24721,244.351,815.643,315.18621a122.06468,122.06468,0,0,0,23.879,62.2076c27.07046,36.36374,73.68676,58.287,124.41561,53.70645,40.62121-3.66783,75.59591-23.58808,98.254-52.23684a125.43429,125.43429,0,0,0,26.65261-64.21366A121.68316,121.68316,0,0,0,1089.06971,290.49739Zm-8.92171,19.34655a116.56238,116.56238,0,0,1-23.02995,62.00013c-21.077,28.41365-54.8015,48.32483-94.20629,51.88285-46.4434,4.19353-89.19764-15.371-114.72471-48.10385A114.5989,114.5989,0,0,1,825.38652,324.156q-.7365-4.35469-1.14659-8.82195c-5.98124-66.239,46.40738-125.10446,117.01291-131.47972a133.85074,133.85074,0,0,1,72.02257,13.37743,127.74414,127.74414,0,0,1,21.34747,13.43569,70.243,70.243,0,0,0,10.91452,9.89677c.404.29663.79968.6008,1.21088.89015a119.51835,119.51835,0,0,1,15.42886,19.248q1.724,2.68136,3.30511,5.45581a113.883,113.883,0,0,1,14.66575,63.6858Z"/><path class="cls-8" d="M1079.92523,292.24721a113.68112,113.68112,0,0,0-14.443-46.08907q-1.57775-2.77571-3.30511-5.45581a119.51835,119.51835,0,0,0-15.42886-19.248c-.4112-.28935-.80688-.59352-1.21088-.89015a70.243,70.243,0,0,1-10.91452-9.89677,127.74414,127.74414,0,0,0-21.34747-13.43569,133.85074,133.85074,0,0,0-72.02257-13.37743c-70.60553,6.37526-122.99415,65.24075-117.01291,131.47972q.40317,4.46712,1.14659,8.82195a114.5989,114.5989,0,0,0,22.80053,51.46708c25.52707,32.73284,68.28131,52.29738,114.72471,48.10385,39.40479-3.558,73.12926-23.4692,94.20629-51.88285a116.56238,116.56238,0,0,0,23.02995-62.00013A114.06666,114.06666,0,0,0,1079.92523,292.24721Z"/><path class="cls-5" d="M1116.90438,250.26591c-5.87539,22.66191-2.51763,46.16312,5.87539,38.6092,5.45311-4.90759,6.65456-29.64995,7.748-46.15606a88.34776,88.34776,0,0,1-12.96222,4.6366C1117.37765,248.29408,1117.16651,249.2553,1116.90438,250.26591Z"/><path class="cls-5" d="M1178.18865,188.43654q-.5769-1.30655-1.28514-2.57873c-3.93632,20.85308-16.79324,38.86052-34.81564,50.54875a26.162,26.162,0,0,1,3.35388,13.02c0,13.42924,0,46.16312,5.03581,36.93052,5.03637-9.23266-2.51763-49.52053,4.19679-51.19914,6.715-1.67867,11.75078,4.19665,13.42938-4.19664,1.5855-7.92751,5.41819-15.11083,10.0816-25.78387.27431-.62726.55029-1.26187.8296-1.91406C1181.026,198.57113,1180.35548,193.34447,1178.18865,188.43654Z"/><path class="cls-5" d="M1117.63368,233.54257c.90109,3.41151,1.115,7.913-.06817,13.81308a88.34776,88.34776,0,0,0,12.96222-4.6366c.53533-8.07707,1.04462-14.182,2.01332-15.02285A77.98165,77.98165,0,0,1,1117.63368,233.54257Z"/><path class="cls-5" d="M1176.90351,185.85781a38.64125,38.64125,0,0,0-7.54734-9.44789c-1.26962,15.09177-8.60693,28.73749-19.94817,39.15949a70.891,70.891,0,0,1-16.69294,12.03535.29842.29842,0,0,1,.13689-.00076c2.041.51026,6.24668,3.51695,9.23592,8.80256C1160.11027,224.71833,1172.96719,206.71089,1176.90351,185.85781Z"/><path class="cls-7" d="M1117.63368,233.54257a77.98165,77.98165,0,0,0,14.90737-5.84637.38713.38713,0,0,1,.174-.09144,70.891,70.891,0,0,0,16.69294-12.03535,77.63081,77.63081,0,0,1-31.92838,17.40332C1117.53448,233.1572,1117.58325,233.35131,1117.63368,233.54257Z"/><path class="cls-7" d="M1169.53572,170.35975c-.85232-34.90279-34.13844-62.97714-75.10434-62.97714-41.50125,0-75.14481,28.80746-75.14481,64.34326,0,1.40387.07094,2.79292.17457,4.17441,1.26352.6026,2.51929,1.21725,3.76175,1.85359-.05153-.95728-.08534-1.9185-.08534-2.88665,0-34.09258,32.277-61.7301,72.09295-61.7301,37.8204,0,68.81776,24.94235,71.83138,56.6616.15239,1.60808.24938,3.2296.25547,4.87018.00056.0665.0061.13182.0061.19832,0,15.59865-6.77094,29.835-17.91545,40.70219,11.34124-10.422,18.67855-24.06772,19.94817-39.15949.13023-1.54865.21945-3.10693.21945-4.68405C1169.57562,171.2677,1169.54681,170.81563,1169.53572,170.35975Z"/><path class="cls-10" d="M1167.31735,174.6689c-.00609-1.64058-.10308-3.2621-.25547-4.87018-3.01362-31.71925-34.011-56.6616-71.83138-56.6616-39.816,0-72.09295,27.63752-72.09295,61.7301,0,.96815.03381,1.92937.08534,2.88665a144.33376,144.33376,0,0,1,34.778,24.87813,135.74516,135.74516,0,0,1,24.83047,32.67188,88.17052,88.17052,0,0,0,11.60005.76518,86.67624,86.67624,0,0,0,23.04824-3.09633,77.63081,77.63081,0,0,0,31.92838-17.40332c11.14451-10.86714,17.91545-25.10354,17.91545-40.70219C1167.32345,174.80072,1167.31791,174.7354,1167.31735,174.6689Z"/><path class="cls-7" d="M1275.40634,439.02867c3.4891,7.85024-25.88784,58.8256-17.49427,55.483,8.393-3.34267,31.89457-58.49641,47.00256-50.13979s-11.75078,40.94747-5.03636,39.27613c6.715-1.67127,25.18016-45.96141,36.93094-53.4824,11.75022-7.52091,20.98282-35.09781,20.98282-35.09781l-1.25244-.077C1340.735,421.24647,1310.33282,439.02867,1275.40634,439.02867Z"/><path class="cls-7" d="M1254.55486,439.95449c2.51763,12.58994-10.9112,55.39579-1.6786,42.80584,7.55177-10.29835,15.48926-38.44308,20.03795-44.03411a99.933,99.933,0,0,1-19.71431-2.43429A13.09082,13.09082,0,0,1,1254.55486,439.95449Z"/><path class="cls-7" d="M1368.108,353.10137c0-22.45693-9.35839-42.88572-24.65314-58.16467q-2.5711,4.54682-4.99591,8.73474c12.02233,12.30232,19.30644,28.29893,19.30644,45.80346a62.44506,62.44506,0,0,1-1.8,14.84482,64.93994,64.93994,0,0,1-8.46007,19.61539,68.005,68.005,0,0,1-5.98623,9.691c-14.23238,19.25448-38.87056,31.99585-66.90252,31.99585a88.27944,88.27944,0,0,1-36.016-7.57138c-.48823.29642-1.02911.59935-1.672.92063-6.02058,3.0105,10.89458,7.37486,16.27121,17.32068a99.933,99.933,0,0,0,19.71431,2.43429c1.01192-1.24413,1.8576-1.37685,2.49213.05826,34.92648,0,65.32866-17.86024,81.13325-44.23112q2.09644-3.498,3.83879-7.19066l6.64625-21.26926S1368.108,357.5147,1368.108,353.10137Z"/><path class="cls-7" d="M1277.97385,419.74675a86.08757,86.08757,0,0,1-51.62607-16.71122,17.90216,17.90216,0,0,0,4.70552,4.18508c9.86713,6.07212,12.15977,8.02885,7.54735,10.83a88.27944,88.27944,0,0,0,36.016,7.57138c28.032,0,52.67014-12.74137,66.90252-31.99585l-1.40761-.08687C1325.48514,409.51636,1303.09139,419.74675,1277.97385,419.74675Z"/><path class="cls-7" d="M1335.05413,309.49855c-9.95358,16.85925-17.26208,27.61154-19.2283,27.21835-8.39357-1.67867-14.26841,1.67868-17.62617-13.42931,0,0,6.39189-11.42354,16.28617-28.798a87.79043,87.79043,0,0,0-39.86919-9.41111c-29.84578,0-55.84668,14.44076-69.53209,35.81185a63.58971,63.58971,0,0,0-6.03832,18.26319,62.5571,62.5571,0,0,0-.86452,10.32142c0,21.46579,10.94168,40.67088,28.16607,53.56063a86.08757,86.08757,0,0,0,51.62607,16.71122c25.11754,0,47.51129-10.23039,62.1377-26.20747a70.65554,70.65554,0,0,0,7.39384-9.60417,63.4426,63.4426,0,0,0,6.28382-19.96438,62.53861,62.53861,0,0,0,.619-8.62051C1354.40822,337.82277,1347.10472,321.80731,1335.05413,309.49855Z"/><path class="cls-11" d="M1423.26034,124.36642c-4.74265-8.89171-65.16407,93.99425-100.25292,155.20772-1.79221,3.12681-3.52069,6.14832-5.16992,9.03718q-1.7357,3.03984-3.35167,5.87823c-9.89428,17.3745-16.28617,28.798-16.28617,28.798,3.35776,15.108,9.2326,11.75064,17.62617,13.42931,1.96622.39319,9.27472-10.3591,19.2283-27.21835q1.655-2.80262,3.40486-5.82711,2.42065-4.18148,4.99591-8.73474C1376.99927,235.63576,1427.98581,133.22744,1423.26034,124.36642Z"/><path class="cls-7" d="M854.094,430.36292s-4.86734,12.51617-4.1724,17.38351c.69549,4.86741,20.86035,18.77422,26.42318,18.07886,5.56284-.69528,13.90653-12.51609,13.90653-12.51609S883.99356,431.05828,854.094,430.36292Z"/><path class="cls-1" d="M1089.84389,250.48827l1.84874,5.14208C1091.10686,253.9018,1090.49893,252.18385,1089.84389,250.48827Z"/><path class="cls-7" d="M1168.10373,230.96135c-1.6786,8.39329-6.71442,2.518-13.42938,4.19664-6.71442,1.67861.83958,41.96648-4.19679,51.19914-5.03581,9.2326-5.03581-23.50128-5.03581-36.93052a26.162,26.162,0,0,0-3.35388-13.02,86.324,86.324,0,0,1-11.56014,6.31249c-1.0934,16.50611-2.29485,41.24847-7.748,46.15606-8.393,7.55392-11.75078-15.94729-5.87539-38.6092.26213-1.01061.47327-1.97183.66113-2.91026a91.08435,91.08435,0,0,1-24.03523,3.2188c-.067,0-.13245-.0045-.19895-.00464-1.16876-.0025-2.32976-.03568-3.48744-.08154.655,1.69558,1.263,3.41353,1.84874,5.14208l13.59114,70.20561c25.17517-7.57595,52.76345-24.57037,66.00759-54.47861,3.42374-7.73159,6.8851-15.43654,6.88621-23.89232l.00776-42.28755C1173.52192,215.85052,1169.68923,223.03384,1168.10373,230.96135Z"/><path class="cls-6" d="M1105.28377,325.836l-13.59114-70.20561a129.75448,129.75448,0,0,1,5.04468,63.38141c-5.59276,32.98084-23.736,62.56359-50.03,83.77875-5.27466,9.54793-10.43571,20.0205-14.57486,24.574-8.39358,9.23266-26.85877,3.35734-43.64536,7.554s-15.108,39.4485-24.34058,50.35977c-9.2326,10.91134-5.03581-19.30457-7.554-36.93053-.73705-5.15967-7.16108-9.02374-16.525-12.31A151.68671,151.68671,0,0,1,886.458,422.51729,143.02779,143.02779,0,0,1,833.4559,380.8482a132.40261,132.40261,0,0,1-19.10139-33.55974l23.82335,118.41589a53.5334,53.5334,0,0,0,13.18885,25.841c20.16387,21.76313,68.98107,61.87793,145.51391,47.45,30.24025-5.70086,57.5405-25.8327,75.57056-39.38632,28.60068-21.49981,41.3245-51.56852,44.08307-87.24247ZM876.3448,465.82529c-5.56283.69536-25.72769-13.21145-26.42318-18.07886-.69494-4.86734,4.1724-17.38351,4.1724-17.38351,29.89954.69536,36.15731,22.94628,36.15731,22.94628S881.90764,465.13,876.3448,465.82529Z"/><path class="cls-10" d="M1276.41,285.44713a87.79056,87.79056,0,0,1,39.86919,9.41111q1.616-2.83835,3.35166-5.87823a87.79211,87.79211,0,0,0-39.86365-9.4082c-32.50583,0-60.45245,17.1281-72.8893,41.68717C1220.56327,299.88789,1246.56416,285.44713,1276.41,285.44713Z"/><path class="cls-10" d="M1179.982,188.80523l.00277-16.11368a72.88275,72.88275,0,0,1-1.28791,13.53495Q1179.40588,187.49574,1179.982,188.80523Z"/><path class="cls-10" d="M1095.32359,94.44c-46.40627,0-84.072,34.515-84.63509,77.28434q5.39158,2.07775,10.56594,4.54467c-.10363-1.38149-.17456-2.77054-.17456-4.17441,0-35.5358,33.64356-64.34326,75.1448-64.34326,40.96591,0,74.252,28.07436,75.10435,62.97715.01108.45588.0399.90795.0399,1.36611,0,1.57712-.08922,3.1354-.21945,4.684a38.64125,38.64125,0,0,1,7.54734,9.44789,72.88275,72.88275,0,0,0,1.28791-13.53495C1179.98473,129.47444,1142.08065,94.44,1095.32359,94.44Z"/><path class="cls-10" d="M1134.64525,227.97269a.29851.29851,0,0,0-.13688.00077c-.05819.03041-.11582.06116-.174.09144-.9687.84082-1.478,6.94578-2.01333,15.02285a86.32407,86.32407,0,0,0,11.56014-6.3125C1140.89194,231.48964,1136.68629,228.483,1134.64525,227.97269Z"/><path class="cls-10" d="M1134.33436,228.0649c.05819-.03028.11582-.061.174-.09144A.38688.38688,0,0,0,1134.33436,228.0649Z"/><path class="cls-10" d="M1096.22468,236.43776a88.17047,88.17047,0,0,1-11.6-.76519c.0726.13321.14686.265.21835.39846a84.36381,84.36381,0,0,0,12.18082.89506,83.1067,83.1067,0,0,0,22.40317-3.05483c-.05043-.19126-.09919-.38536-.15406-.56983A86.67653,86.67653,0,0,1,1096.22468,236.43776Z"/><path class="cls-10" d="M1119.427,233.91126a83.1067,83.1067,0,0,1-22.40317,3.05483,84.36381,84.36381,0,0,1-12.18082-.89506q1.77142,3.2967,3.36385,6.69654,1.85124,3.97335,3.43036,8.0894c1.15768.04586,2.31868.079,3.48744.08153.0665.00014.13189.00464.19895.00464a91.08394,91.08394,0,0,0,24.03523-3.2188C1120.542,241.82422,1120.32808,237.32278,1119.427,233.91126Z"/><path class="cls-10" d="M1359.58534,394.99936s-9.2326,27.69793-20.98283,35.25185c-11.75077,7.554-30.216,52.03852-36.93094,53.71712-6.71441,1.67867,20.14435-31.05521,5.03637-39.4485s-38.60955,47.00249-47.00256,50.35984c-8.39358,3.35727,20.98337-47.8418,17.49427-55.7265-.8357,0-1.66142-.038-2.49214-.05825-4.54868,5.591-12.48617,33.73576-20.03795,44.03411-9.23259,12.58994,4.19624-30.21591,1.67861-42.80585a13.09126,13.09126,0,0,0-1.355-3.66256c-33.02787-7.50751-59.10136-31.35979-67.57086-61.76l-7.45313,79.69114s17.77358,45.16782,72.18217,49.52047c41.96675,3.35734,66.12169-16.96511,77.11546-25.22512a22.52052,22.52052,0,0,0,7.95134-11.30453l24.9535-79.85123q-1.74316,3.68813-3.83878,7.19066Z"/><path class="cls-10" d="M1277.19965,267.787c-51.19769,0-92.70115,38.36162-92.70115,85.683a79.6989,79.6989,0,0,0,2.92384,21.4306c8.4695,30.40017,34.543,54.25245,67.57086,61.76-5.37663-9.94582-22.29178-14.31018-16.2712-17.32068.64285-.32128,1.18372-.62421,1.67195-.92062-25.96709-11.59229-43.77614-35.3072-43.77614-62.7004a62.44323,62.44323,0,0,1,2.23777-16.515,65.13439,65.13439,0,0,1,8.02227-17.945c12.43685-24.55907,40.38347-41.68717,72.8893-41.68717a87.79211,87.79211,0,0,1,39.86365,9.4082c1.64923-2.88885,3.37771-5.91037,5.16992-9.03718A98.02237,98.02237,0,0,0,1277.19965,267.787Z"/><path class="cls-10" d="M1340.2523,304.04013q-1.7465,3.0174-3.40487,5.82711c12.05059,12.30877,19.3541,28.32422,19.3541,45.85168a62.53835,62.53835,0,0,1-.619,8.6205,63.44214,63.44214,0,0,1-6.28382,19.96439,64.93993,64.93993,0,0,0,8.46008-19.61539,62.44515,62.44515,0,0,0,1.8-14.84483C1359.55874,332.33907,1352.27463,316.34246,1340.2523,304.04013Z"/><path class="cls-10" d="M1343.31247,393.99485a68.00519,68.00519,0,0,0,5.98622-9.691,70.65528,70.65528,0,0,1-7.39383,9.60417Z"/><path class="cls-10" d="M1232.84661,407.5893a17.90183,17.90183,0,0,1-4.70552-4.18508c-17.22439-12.88975-28.16607-32.09484-28.16607-53.56063a62.557,62.557,0,0,1,.86452-10.32141,63.58976,63.58976,0,0,1,6.03831-18.2632,65.13439,65.13439,0,0,0-8.02227,17.945,62.44323,62.44323,0,0,0-2.23777,16.515c0,27.3932,17.80905,51.10811,43.77614,62.7004C1245.00637,415.61816,1242.71374,413.66143,1232.84661,407.5893Z"/><path class="cls-10" d="M941.86076,436.40646c9.36394,3.28628,15.788,7.15035,16.525,12.31,2.51818,17.626-1.6786,47.84186,7.554,36.93052,9.2326-10.91127,7.554-46.16312,24.34059-50.35977s35.25178,1.67868,43.64535-7.554c4.13915-4.55354,9.30021-15.02611,14.57487-24.574a152.54612,152.54612,0,0,1-82.282,32.94536A157.02783,157.02783,0,0,1,941.86076,436.40646Z"/><path class="cls-10" d="M1099.83127,285.973a129.68157,129.68157,0,0,0-8.19407-35.116q-1.58688-4.11-3.43036-8.0894-1.58522-3.40248-3.36385-6.69654c-.07149-.13342-.14575-.26525-.21835-.39846a135.74565,135.74565,0,0,0-24.83048-32.67188,144.334,144.334,0,0,0-34.778-24.87813c-1.24246-.63633-2.49823-1.251-3.76176-1.85359q-5.17047-2.466-10.56594-4.54467a153.68408,153.68408,0,0,0-69.20181-9.521C860.865,169.483,801.04427,236.69919,807.874,312.33492a129.66725,129.66725,0,0,0,8.27387,35.32224,132.40248,132.40248,0,0,0,19.10139,33.55974A143.02791,143.02791,0,0,0,888.2513,422.886a151.68664,151.68664,0,0,0,53.60946,13.52047,157.02783,157.02783,0,0,0,24.35777-.30189,152.54612,152.54612,0,0,0,82.282-32.94536c26.29406-21.21516,44.43728-50.79792,50.03-83.77875A129.74,129.74,0,0,0,1099.83127,285.973Zm-9.19381,29.04548a125.43417,125.43417,0,0,1-26.65261,64.21365c-22.6581,28.64876-57.63279,48.569-98.254,52.23684C915.002,436.0495,868.3857,414.12624,841.31523,377.7625a122.06433,122.06433,0,0,1-23.879-62.2076C811.04052,244.71973,867.064,181.76967,942.569,174.952a143.65339,143.65339,0,0,1,69.2744,10.71973,138.77349,138.77349,0,0,1,12.91012,6.30446q1.81632,1.00563,3.59495,2.06342a134.45392,134.45392,0,0,1,24.64039,18.75239,128.61764,128.61764,0,0,1,16.56215,19.45918l.05653.08174q3.20121,4.63743,5.98844,9.55187,2.12388,3.76366,3.9801,7.68555a121.726,121.726,0,0,1,11.06138,65.44808Z"/><path class="cls-10" d="M1090.863,290.86609a121.42041,121.42041,0,0,0-11.28694-41.29571q-1.8612-3.91652-3.9801-7.68555-2.7756-4.91631-5.98844-9.55187l-.05653-.08174a128.61764,128.61764,0,0,0-16.56215-19.45918,134.45392,134.45392,0,0,0-24.64039-18.75239q-1.77973-1.05707-3.59495-2.06342a138.77349,138.77349,0,0,0-12.91012-6.30446A143.65339,143.65339,0,0,0,942.569,174.952c-75.505,6.81763-131.52848,69.76769-125.13272,140.60286a122.06433,122.06433,0,0,0,23.879,62.2076c27.07047,36.36374,73.68677,58.287,124.41562,53.70645,40.62121-3.66782,75.5959-23.58808,98.254-52.23684a125.43417,125.43417,0,0,0,26.65261-64.21365A121.68391,121.68391,0,0,0,1090.863,290.86609Zm-8.92171,19.34654a116.56238,116.56238,0,0,1-23.02995,62.00013c-21.077,28.41365-54.8015,48.32483-94.20629,51.88286-46.4434,4.19353-89.19764-15.371-114.72472-48.10385a114.59892,114.59892,0,0,1-22.80052-51.46709q-.7365-4.35469-1.14659-8.822c-5.98124-66.239,46.40737-125.10446,117.01291-131.47972a133.85074,133.85074,0,0,1,72.02257,13.37743,127.74455,127.74455,0,0,1,21.34747,13.43569,70.24206,70.24206,0,0,0,10.91452,9.89678c.404.29662.79968.6008,1.21088.89015a119.51774,119.51774,0,0,1,15.42885,19.248q1.72405,2.68134,3.30512,5.4558a113.88334,113.88334,0,0,1,14.66575,63.6858Z"/><path class="cls-10" d="M1081.71853,292.6159a113.68126,113.68126,0,0,0-14.443-46.08907q-1.57775-2.77569-3.30512-5.4558a119.51774,119.51774,0,0,0-15.42885-19.248c-.4112-.28935-.80688-.59353-1.21088-.89015a70.24206,70.24206,0,0,1-10.91452-9.89678,127.74455,127.74455,0,0,0-21.34747-13.43569A133.85074,133.85074,0,0,0,943.04615,184.223c-70.60554,6.37526-122.99415,65.24076-117.01291,131.47972q.40315,4.46712,1.14659,8.822a114.59892,114.59892,0,0,0,22.80052,51.46709c25.52708,32.73284,68.28132,52.29738,114.72472,48.10385,39.40479-3.558,73.12926-23.46921,94.20629-51.88286a116.56238,116.56238,0,0,0,23.02995-62.00013A114.06669,114.06669,0,0,0,1081.71853,292.6159Z"/><path class="cls-10" d="M1118.69769,250.6346c-5.87539,22.66191-2.51763,46.16313,5.87539,38.6092,5.4531-4.90759,6.65456-29.65,7.748-46.15605a88.34876,88.34876,0,0,1-12.96221,4.63659C1119.171,248.66277,1118.95981,249.624,1118.69769,250.6346Z"/><path class="cls-10" d="M1179.982,188.80523c-.03934-.95135-.81243-1.73257-1.28514-2.57873-3.93632,20.85308-16.79324,38.86052-34.81565,50.54875a26.16189,26.16189,0,0,1,3.35389,13.02c0,13.42925,0,46.16312,5.03581,36.93053,5.03636-9.23267-2.51763-49.52054,4.19678-51.19914,6.715-1.67868,11.75078,4.19664,13.42939-4.19665,1.5855-7.92751,5.41819-15.11083,10.08159-25.78387.27432-.62726.85892-1.31181.81026-2.01962C1180.64368,201.41472,1180.33667,197.38377,1179.982,188.80523Z"/><path class="cls-10" d="M1119.427,233.91126c.9011,3.41152,1.115,7.913-.06816,13.81308a88.34876,88.34876,0,0,0,12.96221-4.63659c.53534-8.07707,1.04463-14.182,2.01333-15.02285A77.98238,77.98238,0,0,1,1119.427,233.91126Z"/><path class="cls-10" d="M1178.69682,186.2265a38.64125,38.64125,0,0,0-7.54734-9.44789c-1.26962,15.09178-8.60693,28.7375-19.94818,39.1595a70.89129,70.89129,0,0,1-16.69293,12.03535.29851.29851,0,0,1,.13688-.00077c2.041.51026,6.24669,3.517,9.23592,8.80256C1161.90358,225.087,1174.7605,207.07958,1178.69682,186.2265Z"/><path class="cls-10" d="M1119.427,233.91126a77.98238,77.98238,0,0,0,14.90738-5.84636.38688.38688,0,0,1,.174-.09144,70.89129,70.89129,0,0,0,16.69293-12.03535,77.631,77.631,0,0,1-31.92838,17.40332C1119.32779,233.5259,1119.37655,233.72,1119.427,233.91126Z"/><path class="cls-10" d="M1171.329,170.72845c-.85232-34.90279-34.13844-62.97715-75.10435-62.97715-41.50124,0-75.1448,28.80746-75.1448,64.34326,0,1.40387.07093,2.79292.17456,4.17441,1.26353.6026,2.5193,1.21726,3.76176,1.85359-.05154-.95727-.08534-1.91849-.08534-2.88664,0-34.09258,32.277-61.73011,72.09295-61.73011,37.82039,0,68.81776,24.94235,71.83137,56.6616.1524,1.60809.24938,3.22961.25548,4.87018.00055.0665.00609.13183.00609.19833,0,15.59864-6.77094,29.835-17.91545,40.70219,11.34125-10.422,18.67856-24.06772,19.94818-39.1595.13023-1.54865.21945-3.10693.21945-4.684C1171.36893,171.6364,1171.34011,171.18433,1171.329,170.72845Z"/><path class="cls-10" d="M1169.11066,175.03759c-.0061-1.64057-.10308-3.26209-.25548-4.87018-3.01361-31.71925-34.011-56.6616-71.83137-56.6616-39.816,0-72.09295,27.63753-72.09295,61.73011,0,.96815.0338,1.92937.08534,2.88664a144.334,144.334,0,0,1,34.778,24.87813,135.74565,135.74565,0,0,1,24.83048,32.67188,88.17047,88.17047,0,0,0,11.6.76519,86.67653,86.67653,0,0,0,23.04824-3.09633,77.631,77.631,0,0,0,31.92838-17.40332c11.14451-10.86715,17.91545-25.10355,17.91545-40.70219C1169.11675,175.16942,1169.11121,175.10409,1169.11066,175.03759Z"/><path class="cls-10" d="M1277.19965,439.15317c3.4891,7.8847-25.88785,59.08377-17.49427,55.7265,8.393-3.35735,31.89457-58.75314,47.00256-50.35984s-11.75078,41.12717-5.03637,39.4485c6.715-1.6786,25.18017-46.16312,36.93094-53.71712,11.75023-7.55392,20.98283-35.25185,20.98283-35.25185l-1.25244-.07731C1342.52831,421.29293,1312.12613,439.15317,1277.19965,439.15317Z"/><path class="cls-10" d="M1256.34817,440.32318c2.51763,12.58994-10.9112,55.39579-1.67861,42.80585,7.55178-10.29835,15.48927-38.44309,20.03795-44.03411a99.933,99.933,0,0,1-19.71431-2.4343A13.09126,13.09126,0,0,1,1256.34817,440.32318Z"/><path class="cls-10" d="M1345.24821,295.3054q-2.5711,4.54681-4.99591,8.73473c12.02233,12.30233,19.30644,28.29894,19.30644,45.80346a62.44515,62.44515,0,0,1-1.8,14.84483,64.93993,64.93993,0,0,1-8.46008,19.61539,68.00519,68.00519,0,0,1-5.98622,9.691c-14.23239,19.25448-38.87056,31.99585-66.90252,31.99585a88.27945,88.27945,0,0,1-36.016-7.57138c-.48823.29641-1.0291.59934-1.67195.92062-6.02058,3.0105,10.89457,7.37486,16.2712,17.32068a99.933,99.933,0,0,0,19.71431,2.4343c.83072.02029,1.65644.05825,2.49214.05825,34.92648,0,65.32866-17.86024,81.13325-44.23112q2.09644-3.498,3.83878-7.19066l6.64625-21.26926s1.08342-8.57874,1.08342-12.99207C1369.90135,331.01313,1360.543,310.58435,1345.24821,295.3054Z"/><path class="cls-10" d="M1279.76715,420.11545a86.08748,86.08748,0,0,1-51.62606-16.71123,17.90183,17.90183,0,0,0,4.70552,4.18508c9.86713,6.07213,12.15976,8.02886,7.54734,10.83a88.27945,88.27945,0,0,0,36.016,7.57138c28.032,0,52.67013-12.74137,66.90252-31.99585l-1.40761-.08687C1327.27845,409.88505,1304.88469,420.11545,1279.76715,420.11545Z"/><path class="cls-10" d="M1336.84743,309.86724c-9.95358,16.85926-17.26207,27.61155-19.22829,27.21836-8.39357-1.67867-14.26841,1.67867-17.62617-13.42932,0,0,6.39188-11.42353,16.28617-28.798a87.79056,87.79056,0,0,0-39.86919-9.41111c-29.84579,0-55.84668,14.44076-69.5321,35.81185a63.58976,63.58976,0,0,0-6.03831,18.2632,62.557,62.557,0,0,0-.86452,10.32141c0,21.46579,10.94168,40.67088,28.16607,53.56063a86.08748,86.08748,0,0,0,51.62606,16.71123c25.11754,0,47.5113-10.2304,62.13771-26.20747a70.65528,70.65528,0,0,0,7.39383-9.60417,63.44214,63.44214,0,0,0,6.28382-19.96439,62.53835,62.53835,0,0,0,.619-8.6205C1356.20153,338.19146,1348.898,322.176,1336.84743,309.86724Z"/><path class="cls-10" d="M1425.05365,124.73511c-4.74265-8.89171-65.16407,93.99425-100.25293,155.20772-1.79221,3.12681-3.52069,6.14833-5.16992,9.03718q-1.73568,3.03984-3.35166,5.87823c-9.89429,17.37451-16.28617,28.798-16.28617,28.798,3.35776,15.108,9.2326,11.75065,17.62617,13.42932,1.96622.39319,9.27471-10.3591,19.22829-27.21836q1.65505-2.80262,3.40487-5.82711,2.42065-4.18147,4.99591-8.73473C1378.79257,236.00446,1429.77912,133.59613,1425.05365,124.73511Z"/><path class="cls-10" d="M855.88733,430.73162s-4.86734,12.51616-4.1724,17.3835c.69549,4.86741,20.86035,18.77422,26.42318,18.07887,5.56283-.69529,13.90653-12.5161,13.90653-12.5161S885.78687,431.427,855.88733,430.73162Z"/><path class="cls-1" d="M1091.6372,250.857l1.84874,5.14207C1092.90017,254.27049,1092.29224,252.55254,1091.6372,250.857Z"/><path class="cls-10" d="M1169.897,231.33c-1.67861,8.39329-6.71442,2.518-13.42939,4.19665-6.71441,1.6786.83958,41.96647-4.19678,51.19914-5.03581,9.23259-5.03581-23.50128-5.03581-36.93053a26.16189,26.16189,0,0,0-3.35389-13.02,86.32407,86.32407,0,0,1-11.56014,6.3125c-1.09339,16.5061-2.29485,41.24846-7.748,46.15605-8.393,7.55393-11.75078-15.94729-5.87539-38.6092.26212-1.01061.47326-1.97183.66113-2.91026a91.08394,91.08394,0,0,1-24.03523,3.2188c-.06706,0-.13245-.0045-.19895-.00464-1.16876-.00249-2.32976-.03567-3.48744-.08153.655,1.69557,1.263,3.41352,1.84874,5.14207l13.59113,70.20562c25.17518-7.576,52.76346-24.57037,66.00759-54.47862,3.42375-7.73159,6.88511-15.43654,6.88621-23.89232l.00776-42.28755C1175.31523,216.21921,1171.48254,223.40253,1169.897,231.33Z"/><path class="cls-10" d="M1107.07707,326.20466,1093.48594,255.999a129.75438,129.75438,0,0,1,5.04467,63.38142c-5.59275,32.98083-23.736,62.56359-50.03,83.77875-5.27466,9.54792-10.43572,20.02049-14.57487,24.574-8.39357,9.23267-26.85876,3.35734-43.64535,7.554s-15.108,39.4485-24.34059,50.35977c-9.23259,10.91134-5.03581-19.30456-7.554-36.93052-.73706-5.15967-7.16108-9.02374-16.525-12.31A151.68664,151.68664,0,0,1,888.2513,422.886a143.02791,143.02791,0,0,1-53.00209-41.66909,132.40248,132.40248,0,0,1-19.10139-33.55974L839.97117,466.073a53.5334,53.5334,0,0,0,13.18885,25.841c20.16387,21.76313,68.98107,61.87794,145.51391,47.45,30.24025-5.70087,57.54049-25.83271,75.57055-39.38633,28.60068-21.4998,41.32451-51.56852,44.08308-87.24247ZM878.13811,466.194c-5.56283.69535-25.72769-13.21146-26.42318-18.07887-.69494-4.86734,4.1724-17.3835,4.1724-17.3835,29.89954.69535,36.15731,22.94627,36.15731,22.94627S883.70094,465.4987,878.13811,466.194Z"/><path class="cls-10" d="M858.63259,456.27337s-6.93756,9.25009,2.31253,12.14075,38.73476-5.78131,53.188,16.18766,59.54747,34.68784,105.79793,18.50018,74.00073-42.20354,79.20391-73.4226"/><path class="cls-5" d="M1162.73472,372.86588c-2.39072-4.98787-3.202-13.04464-3.202-13.04464l-.07758-.00513c-3.80443,3.57369-10.97549,9.95947-13.523,10.42263-1.34111.24384-3.50462-.59748-5.646-1.9054-.67056,3.06737-1.4791,6.39652-2.35747,9.25933C1151.01165,379.0672,1158.64932,375.82824,1162.73472,372.86588Z"/><path class="cls-5" d="M1149.11525,402.06979c5.51019,1.37762,14.111-16.17838,17.43221-23.49546a24.84892,24.84892,0,0,1-3.5423-5.15254c-.09421-.1774-.18066-.36929-.27044-.55591-4.0854,2.96236-11.72307,6.20132-24.80609,4.72679a32.34259,32.34259,0,0,1-1.93962,5.0852C1139.93142,391.22648,1145.24211,401.10157,1149.11525,402.06979Z"/><path class="cls-5" d="M1192.23192,341.012c-3.18319-9.26-11.86438-13.60055-13.02206-21.41369-1.15712-7.81307,0-26.62234-23.43894-19.96674l-5.78782,3.47248s2.89391-12.44309-11.57511-4.05125c-14.46847,8.39184-5.498,19.388-10.12759,24.3074-4.63016,4.91937-20.2563,6.945-19.09862,17.36238.67277,6.05924.169,9.08256-.71046,11.91918-.63231,2.04035-1.45693,3.98468-2.18346,6.89016-1.63925,6.55634,12.4496,17.49164,19.3879,18.69545a6.87325,6.87325,0,0,0,1.15768.11382s3.76176,8.10249,7.52351,6.36625a4.46837,4.46837,0,0,0,1.63206-2.02954,32.34259,32.34259,0,0,0,1.93962-5.0852c.87837-2.86281,1.68691-6.192,2.35747-9.25933-2.93991-1.796-5.83826-4.4772-6.50771-6.48644-1.15768-3.47255-5.78783-17.0731-5.78783-17.0731s-6.945-10.41743-1.4464-10.9962a2.47229,2.47229,0,0,0,4.051.28942c2.3148-2.315,1.447-7.23437,5.498-9.83873,4.05159-2.60436,1.73624-6.6556,4.63015-7.81307,2.89392-1.15754,4.63016,2.02559,4.63016,2.02559s2.89336-.28935,6.65511-.28935c3.76231,0,15.916,2.02559,15.33687,8.39184-.57857,6.36618,1.15767,9.83866,1.15767,9.83866s-4.91943,19.388-6.945,21.41369c-.40455.40455-1.15324,1.12858-2.1031,2.02046l.07758.00513s.81132,8.05677,3.202,13.04464c.08978.18662.17623.37851.27044.55591a24.84892,24.84892,0,0,0,3.5423,5.15254,11.94219,11.94219,0,0,0,5.72077,3.68015,9.322,9.322,0,0,0,4.04772.13792c6.36639-1.15747,8.10263-4.34059,7.52406-8.39184s-8.68119-11.86431-3.18319-15.33679c3.37716-2.13289,8.16913-4.81386,10.62968-8.709A9.87005,9.87005,0,0,0,1192.23192,341.012Z"/><path class="cls-5" d="M1167.34548,326.5433c.57911-6.36625-11.57456-8.39184-15.33687-8.39184-3.76175,0-6.65511.28935-6.65511.28935s-1.73624-3.18313-4.63016-2.02559c-2.89391,1.15747-.57856,5.20871-4.63015,7.81307-4.051,2.60436-3.18319,7.52372-5.498,9.83873a2.47229,2.47229,0,0,1-4.051-.28942c-5.49855.57877,1.4464,10.9962,1.4464,10.9962s4.63015,13.60055,5.78783,17.0731c.66945,2.00924,3.5678,4.69049,6.50771,6.48644,2.14134,1.30792,4.30485,2.14924,5.646,1.9054,2.54755-.46316,9.71861-6.84894,13.523-10.42263.94986-.89188,1.69855-1.61591,2.1031-2.02046,2.02552-2.02566,6.945-21.41369,6.945-21.41369S1166.76691,332.90948,1167.34548,326.5433Z"/><path class="cls-5" d="M1138.85577,483.39153c1.31783,2.65548,2.85346,5.96288,4.16907,9.35888,4.398,4.85563,10.0744,10.49473,13.32465,11.179,5.498,1.15747,4.91943-9.83873,4.63015-11.575s-8.10263-10.70685-8.10263-10.70685C1149.37849,483.80058,1140.13425,483.451,1138.85577,483.39153Z"/><path class="cls-5" d="M1143.02484,492.75041c-1.31561-3.396-2.85124-6.7034-4.16907-9.35888-.09588-.00451-.15795-.00769-.15795-.00769s-.588.19922-1.54116.49855c-2.90334.912-9.237,2.76146-13.021,2.83032-.76975,5.18627-1.39431,11.87346-.19618,14.61235,2.02552,4.62994,20.54558,14.46867,21.99254,5.49806C1146.50729,503.2556,1145.02154,497.90384,1143.02484,492.75041Z"/><path class="cls-5" d="M1168.02545,443.15713c-2.66171-1.98278-8.4041-1.23346-19.77859-.28561-2.2289.18579-4.02943.35648-5.52737.51844-1.05571,7.54346-8.65182,24.07832-8.65182,24.07832s.24717-5.92936.74149-11.00853a36.40505,36.40505,0,0,1,.99475-6.35386c.47493-1.42506.01995-3.53052-.6772-5.52016-1.84264.40815-3.70967.8621-7.71471,1.46892-6.05162.91689-15.00325-5.02029-20.75284-9.49438-.22389,16.66537,12.91455,47.16272,14.67628,49.42792.42783.5503,1.45417.749,2.80026.72452,3.78393-.06886,10.11762-1.91835,13.021-2.83032.95318-.29933,1.54116-.49855,1.54116-.49855s.06207.00318.15795.00769c1.27848.0595,10.52272.40905,14.02124-1.74393,3.76176-2.315-.8684-8.39184,2.89391-15.04744C1158.31072,462.10675,1164.14455,450.49728,1168.02545,443.15713Z"/><path class="cls-5" d="M1095.3024,429.09405a15.63894,15.63894,0,0,0-4.64068,4.51751c-2.3148,4.05125-7.52407,11.86432-1.15768,12.15374,6.3664.28935,11.57511-8.39184,11.57511-8.39184s-2.60463,7.81307,1.447,3.76183a13.99564,13.99564,0,0,0,3.01306-5.46045c-2.69829-2.1624-4.46-3.79951-4.46-3.79951Z"/><path class="cls-5" d="M1217.36775,416.577c-1.78944,2.60747-7.01422,10.0924-9.426,12.21005,2.1962,4.24951,5.44313,9.63043,7.72911,9.45455,3.76231-.28942.28983-5.78748,2.89391-7.52372,2.60464-1.73624,21.12414,8.10242,25.17573,5.20871C1246.95806,433.6284,1226.0966,421.48263,1217.36775,416.577Z"/><path class="cls-5" d="M1202.36007,389.33736c-2.31535-8.68119,8.10208-34.72483-.8684-37.61854a38.78372,38.78372,0,0,0-10.20517-1.76409c-2.46055,3.89518-7.25252,6.57615-10.62968,8.709-5.498,3.47248,2.60463,11.28555,3.18319,15.33679s-1.15767,7.23437-7.52406,8.39184a9.322,9.322,0,0,1-4.04772-.13792,11.94219,11.94219,0,0,1-5.72077-3.68015c-3.32119,7.31708-11.922,24.87308-17.43221,23.49546-3.87314-.96822-9.18383-10.84331-13.12624-19.39192a4.46837,4.46837,0,0,1-1.63206,2.02954c-3.76175,1.73624-7.52351-6.36625-7.52351-6.36625a6.87325,6.87325,0,0,1-1.15768-.11382c-6.9383-1.20381-21.02715-12.13911-19.3879-18.69545.72653-2.90548,1.55115-4.84981,2.18346-6.89016-3.29846,2.71568-9.85383,8.42315-10.28609,11.23076-.57856,3.76189-6.65567,9.5493-2.89336,22.86051,3.76176,13.3112,7.8128,30.67365,2.60408,37.03984l-4.63015,4.34066,2.0366.98055,5.77675,2.78128s1.76173,1.63711,4.46,3.79951c.35855.28727.73041.58216,1.12.88543,5.74959,4.47409,14.70122,10.41127,20.75284,9.49438,4.005-.60682,5.87207-1.06077,7.71471-1.46892a61.43294,61.43294,0,0,1,7.59278-1.19577c1.49794-.162,3.29847-.33265,5.52737-.51844,11.37449-.94785,17.11688-1.69717,19.77859.28561a4.12888,4.12888,0,0,1,1.34554,1.74c1.7368,4.05125,18.23078-5.20871,18.23078-5.20871s-6.07656-29.51612-2.3148-37.03984l3.1832-2.02559s15.047,27.49053,15.047,28.35865,1.447,1.44682,3.76176.28935a3.44481,3.44481,0,0,0,.6628-.48394c2.41178-2.11765,7.63656-9.60258,9.426-12.21005.38848-.56616.61846-.90657.61846-.90657S1204.67487,398.01862,1202.36007,389.33736Z"/><path class="cls-7" d="M1160.94979,373.61318c-2.39072-4.98788-3.202-13.04465-3.202-13.04465l-.07759-.00513c-3.80443,3.57369-10.97548,9.95947-13.523,10.42263-1.34111.24384-3.50462-.59747-5.646-1.9054-.67055,3.06737-1.4791,6.39652-2.35747,9.25933C1149.22672,379.81449,1156.8644,376.57553,1160.94979,373.61318Z"/><path class="cls-7" d="M1147.33033,402.81708c5.51018,1.37762,14.111-16.17838,17.43221-23.49546a24.84858,24.84858,0,0,1-3.54231-5.15254c-.09421-.1774-.18066-.36929-.27044-.5559-4.08539,2.96235-11.72307,6.20131-24.80609,4.72678a32.34061,32.34061,0,0,1-1.93962,5.0852C1138.1465,391.97377,1143.45718,401.84886,1147.33033,402.81708Z"/><path class="cls-7" d="M1165.56055,327.29059c.57912-6.36625-11.57455-8.39184-15.33686-8.39184-3.76176,0-6.65512.28935-6.65512.28935s-1.73624-3.18313-4.63015-2.02559c-2.89392,1.15747-.57856,5.20871-4.63015,7.81307-4.051,2.60436-3.1832,7.52372-5.498,9.83873a2.47229,2.47229,0,0,1-4.051-.28942c-5.49855.57877,1.44641,10.9962,1.44641,10.9962s4.63015,13.60055,5.78783,17.0731c.66944,2.00924,3.56779,4.69049,6.5077,6.48644,2.14134,1.30793,4.30485,2.14924,5.646,1.9054,2.54756-.46316,9.71861-6.84894,13.523-10.42263.94986-.89188,1.69856-1.61591,2.10311-2.02046,2.02551-2.02565,6.94495-21.41369,6.94495-21.41369S1164.982,333.65677,1165.56055,327.29059Z"/><path class="cls-5" d="M1137.07084,484.13882c1.31783,2.65548,2.85346,5.96288,4.16908,9.35888,4.398,4.85563,10.07439,10.49473,13.32464,11.179,5.498,1.15747,4.91943-9.83873,4.63015-11.575s-8.10262-10.70685-8.10262-10.70685C1147.59356,484.54787,1138.34933,484.19832,1137.07084,484.13882Z"/><path class="cls-5" d="M1141.23992,493.4977c-1.31562-3.396-2.85125-6.7034-4.16908-9.35888-.09587-.00451-.15794-.00769-.15794-.00769s-.588.19922-1.54117.49855c-2.90333.912-9.237,2.76147-13.021,2.83032-.76975,5.18627-1.39431,11.87346-.19618,14.61235,2.02552,4.62994,20.54558,14.46867,21.99253,5.49806C1144.72237,504.00289,1143.23662,498.65113,1141.23992,493.4977Z"/><path class="cls-7" d="M1093.51748,429.84134a15.63882,15.63882,0,0,0-4.64068,4.51751c-2.3148,4.05125-7.52407,11.86432-1.15768,12.15374,6.36639.28935,11.5751-8.39184,11.5751-8.39184s-2.60463,7.81307,1.447,3.76183a13.99564,13.99564,0,0,0,3.01306-5.46045c-2.69829-2.1624-4.46-3.79951-4.46-3.79951Z"/><path class="cls-7" d="M1215.58283,417.32427c-1.78944,2.60747-7.01423,10.0924-9.426,12.21,2.19621,4.24951,5.44313,9.63043,7.72911,9.45455,3.76232-.28942.28984-5.78748,2.89392-7.52372,2.60463-1.73624,21.12414,8.10242,25.17573,5.20871C1245.17313,434.37569,1224.31168,422.22992,1215.58283,417.32427Z"/><path class="cls-5" d="M1200.57515,390.08465c-2.31536-8.68119,8.10207-34.72483-.8684-37.61854a38.78372,38.78372,0,0,0-10.20518-1.76409c-2.46055,3.89518-7.25252,6.57615-10.62968,8.709-5.498,3.47248,2.60464,11.28555,3.1832,15.33679s-1.15768,7.23438-7.52407,8.39184a9.32176,9.32176,0,0,1-4.04771-.13792,11.94215,11.94215,0,0,1-5.72077-3.68015c-3.32119,7.31708-11.922,24.87308-17.43221,23.49546-3.87315-.96822-9.18383-10.84331-13.12625-19.39192a4.4683,4.4683,0,0,1-1.632,2.02954c-3.76176,1.73624-7.52352-6.36625-7.52352-6.36625a6.8722,6.8722,0,0,1-1.15767-.11382c-6.9383-1.20381-21.02716-12.13911-19.3879-18.69545.72653-2.90548,1.55114-4.84981,2.18346-6.89016-3.29847,2.71568-9.85383,8.42315-10.28609,11.23076-.57856,3.76189-6.65567,9.5493-2.89336,22.86051,3.76176,13.3112,7.81279,30.67365,2.60408,37.03984l-4.63015,4.34066,2.0366.98055,5.77674,2.78128s1.76173,1.63711,4.46,3.79951c.35856.28727.73041.58216,1.12.88543,5.74959,4.47409,14.70122,10.41127,20.75284,9.49438,4.005-.60682,5.87206-1.06076,7.7147-1.46892a61.43352,61.43352,0,0,1,7.59279-1.19577c1.49794-.162,3.29846-.33265,5.52736-.51844,11.37449-.94785,17.11688-1.69716,19.7786.28561a4.129,4.129,0,0,1,1.34554,1.74c1.73679,4.05125,18.23078-5.20871,18.23078-5.20871s-6.07656-29.51612-2.3148-37.03984l3.18319-2.02559s15.047,27.49053,15.047,28.35865,1.447,1.44682,3.76176.28935a3.4451,3.4451,0,0,0,.66279-.48394c2.41178-2.11765,7.63657-9.60258,9.426-12.21.38847-.56616.61846-.90656.61846-.90656S1202.89,398.76591,1200.57515,390.08465Z"/><path class="cls-12" d="M1162.73472,372.86588c-2.39072-4.98787-3.202-13.04464-3.202-13.04464l-.07758-.00513c-3.80443,3.57369-10.97549,9.95947-13.523,10.42263-1.34111.24384-3.50462-.59748-5.646-1.9054-.67056,3.06737-1.4791,6.39652-2.35747,9.25933C1151.01165,379.0672,1158.64932,375.82824,1162.73472,372.86588Z"/><path class="cls-12" d="M1149.11525,402.06979c5.51019,1.37762,14.111-16.17838,17.43221-23.49546a24.84892,24.84892,0,0,1-3.5423-5.15254c-.09421-.1774-.18066-.36929-.27044-.55591-4.0854,2.96236-11.72307,6.20132-24.80609,4.72679a32.34259,32.34259,0,0,1-1.93962,5.0852C1139.93142,391.22648,1145.24211,401.10157,1149.11525,402.06979Z"/><path class="cls-11" d="M1192.23192,341.012c-3.18319-9.26-11.86438-13.60055-13.02206-21.41369-1.15712-7.81307,0-26.62234-23.43894-19.96674l-5.78782,3.47248s2.89391-12.44309-11.57511-4.05125c-14.46847,8.39184-5.498,19.388-10.12759,24.3074-4.63016,4.91937-20.2563,6.945-19.09862,17.36238.67277,6.05924.169,9.08256-.71046,11.91918-.63231,2.04035-1.45693,3.98468-2.18346,6.89016-1.63925,6.55634,12.4496,17.49164,19.3879,18.69545a6.87325,6.87325,0,0,0,1.15768.11382s3.76176,8.10249,7.52351,6.36625a4.46837,4.46837,0,0,0,1.63206-2.02954,32.34259,32.34259,0,0,0,1.93962-5.0852c.87837-2.86281,1.68691-6.192,2.35747-9.25933-2.93991-1.796-5.83826-4.4772-6.50771-6.48644-1.15768-3.47255-5.78783-17.0731-5.78783-17.0731s-6.945-10.41743-1.4464-10.9962a2.47229,2.47229,0,0,0,4.051.28942c2.3148-2.315,1.447-7.23437,5.498-9.83873,4.05159-2.60436,1.73624-6.6556,4.63015-7.81307,2.89392-1.15754,4.63016,2.02559,4.63016,2.02559s2.89336-.28935,6.65511-.28935c3.76231,0,15.916,2.02559,15.33687,8.39184-.57857,6.36618,1.15767,9.83866,1.15767,9.83866s-4.91943,19.388-6.945,21.41369c-.40455.40455-1.15324,1.12858-2.1031,2.02046l.07758.00513s.81132,8.05677,3.202,13.04464c.08978.18662.17623.37851.27044.55591a24.84892,24.84892,0,0,0,3.5423,5.15254,11.94219,11.94219,0,0,0,5.72077,3.68015,9.322,9.322,0,0,0,4.04772.13792c6.36639-1.15747,8.10263-4.34059,7.52406-8.39184s-8.68119-11.86431-3.18319-15.33679c3.37716-2.13289,8.16913-4.81386,10.62968-8.709A9.87005,9.87005,0,0,0,1192.23192,341.012Z"/><path class="cls-12" d="M1167.34548,326.5433c.57911-6.36625-11.57456-8.39184-15.33687-8.39184-3.76175,0-6.65511.28935-6.65511.28935s-1.73624-3.18313-4.63016-2.02559c-2.89391,1.15747-.57856,5.20871-4.63015,7.81307-4.051,2.60436-3.18319,7.52372-5.498,9.83873a2.47229,2.47229,0,0,1-4.051-.28942c-5.49855.57877,1.4464,10.9962,1.4464,10.9962s4.63015,13.60055,5.78783,17.0731c.66945,2.00924,3.5678,4.69049,6.50771,6.48644,2.14134,1.30792,4.30485,2.14924,5.646,1.9054,2.54755-.46316,9.71861-6.84894,13.523-10.42263.94986-.89188,1.69855-1.61591,2.1031-2.02046,2.02552-2.02566,6.945-21.41369,6.945-21.41369S1166.76691,332.90948,1167.34548,326.5433Z"/><path class="cls-12" d="M1138.85577,483.39153c1.31783,2.65548,2.85346,5.96288,4.16907,9.35888,4.398,4.85563,10.0744,10.49473,13.32465,11.179,5.498,1.15747,4.91943-9.83873,4.63015-11.575s-8.10263-10.70685-8.10263-10.70685C1149.37849,483.80058,1140.13425,483.451,1138.85577,483.39153Z"/><path class="cls-12" d="M1143.02484,492.75041c-1.31561-3.396-2.85124-6.7034-4.16907-9.35888-.09588-.00451-.15795-.00769-.15795-.00769s-.588.19922-1.54116.49855c-2.90334.912-9.237,2.76146-13.021,2.83032-.76975,5.18627-1.39431,11.87346-.19618,14.61235,2.02552,4.62994,20.54558,14.46867,21.99254,5.49806C1146.50729,503.2556,1145.02154,497.90384,1143.02484,492.75041Z"/><path class="cls-11" d="M1168.02545,443.15713c-2.66171-1.98278-8.4041-1.23346-19.77859-.28561-2.2289.18579-4.02943.35648-5.52737.51844-1.05571,7.54346-8.65182,24.07832-8.65182,24.07832s.24717-5.92936.74149-11.00853a36.40505,36.40505,0,0,1,.99475-6.35386c.47493-1.42506.01995-3.53052-.6772-5.52016-1.84264.40815-3.70967.8621-7.71471,1.46892-6.05162.91689-15.00325-5.02029-20.75284-9.49438-.22389,16.66537,12.91455,47.16272,14.67628,49.42792.42783.5503,1.45417.749,2.80026.72452,3.78393-.06886,10.11762-1.91835,13.021-2.83032.95318-.29933,1.54116-.49855,1.54116-.49855s.06207.00318.15795.00769c1.27848.0595,10.52272.40905,14.02124-1.74393,3.76176-2.315-.8684-8.39184,2.89391-15.04744C1158.31072,462.10675,1164.14455,450.49728,1168.02545,443.15713Z"/><path class="cls-12" d="M1095.3024,429.09405a15.63894,15.63894,0,0,0-4.64068,4.51751c-2.3148,4.05125-7.52407,11.86432-1.15768,12.15374,6.3664.28935,11.57511-8.39184,11.57511-8.39184s-2.60463,7.81307,1.447,3.76183a13.99564,13.99564,0,0,0,3.01306-5.46045c-2.69829-2.1624-4.46-3.79951-4.46-3.79951Z"/><path class="cls-12" d="M1217.36775,416.577c-1.78944,2.60747-7.01422,10.0924-9.426,12.21005,2.1962,4.24951,5.44313,9.63043,7.72911,9.45455,3.76231-.28942.28983-5.78748,2.89391-7.52372,2.60464-1.73624,21.12414,8.10242,25.17573,5.20871C1246.95806,433.6284,1226.0966,421.48263,1217.36775,416.577Z"/><path class="cls-12" d="M1202.36007,389.33736c-2.31535-8.68119,8.10208-34.72483-.8684-37.61854a38.78372,38.78372,0,0,0-10.20517-1.76409c-2.46055,3.89518-7.25252,6.57615-10.62968,8.709-5.498,3.47248,2.60463,11.28555,3.18319,15.33679s-1.15767,7.23437-7.52406,8.39184a9.322,9.322,0,0,1-4.04772-.13792,11.94219,11.94219,0,0,1-5.72077-3.68015c-3.32119,7.31708-11.922,24.87308-17.43221,23.49546-3.87314-.96822-9.18383-10.84331-13.12624-19.39192a4.46837,4.46837,0,0,1-1.63206,2.02954c-3.76175,1.73624-7.52351-6.36625-7.52351-6.36625a6.87325,6.87325,0,0,1-1.15768-.11382c-6.9383-1.20381-21.02715-12.13911-19.3879-18.69545.72653-2.90548,1.55115-4.84981,2.18346-6.89016-3.29846,2.71568-9.85383,8.42315-10.28609,11.23076-.57856,3.76189-6.65567,9.5493-2.89336,22.86051,3.76176,13.3112,7.8128,30.67365,2.60408,37.03984l-4.63015,4.34066,2.0366.98055,5.77675,2.78128s1.76173,1.63711,4.46,3.79951c.35855.28727.73041.58216,1.12.88543,5.74959,4.47409,14.70122,10.41127,20.75284,9.49438,4.005-.60682,5.87207-1.06077,7.71471-1.46892a61.43294,61.43294,0,0,1,7.59278-1.19577c1.49794-.162,3.29847-.33265,5.52737-.51844,11.37449-.94785,17.11688-1.69717,19.77859.28561a4.12888,4.12888,0,0,1,1.34554,1.74c1.7368,4.05125,18.23078-5.20871,18.23078-5.20871s-6.07656-29.51612-2.3148-37.03984l3.1832-2.02559s15.047,27.49053,15.047,28.35865,1.447,1.44682,3.76176.28935a3.44481,3.44481,0,0,0,.6628-.48394c2.41178-2.11765,7.63656-9.60258,9.426-12.21005.38848-.56616.61846-.90657.61846-.90657S1204.67487,398.01862,1202.36007,389.33736Z"/><path class="cls-12" d="M1138.23631,357.67853s8.85548,6.13071,13.62381,1.36238"/><line class="cls-12" x1="1148.79476" y1="342.01115" x2="1148.45417" y2="352.9102"/><path class="cls-12" d="M1140.96107,351.54782a8.4955,8.4955,0,0,0,10.21786.34059"/><path class="cls-12" d="M1134.06767,467.46828s10.98055,14.18691,7.57459,16.23048"/><path class="cls-12" d="M1132.1056,383.56377s-11.58024,58.24178-22.13869,55.17642"/><path class="cls-12" d="M1168.50315,336.382s8.561,12.1005,7.19864,15.16586"/><path class="cls-12" d="M1169.91167,382.20139c-.3406,1.02178-5.79012,15.32678-1.36238,24.86345"/><circle class="cls-11" cx="1139.79892" cy="339.08401" r="1.25721"/><circle class="cls-11" cx="1157.71889" cy="341.5868" r="1.25721"/></svg>