<svg id="Layer_1" data-name="Layer 1" xmlns="http://www.w3.org/2000/svg" xmlns:xlink="http://www.w3.org/1999/xlink" viewBox="0 0 1488.02462 573.43707"><defs><style>.cls-1,.cls-14,.cls-4,.cls-9{fill:none;}.cls-2{clip-path:url(#clip-path);}.cls-3{fill:#468fba;}.cls-4{stroke:#91bcd6;}.cls-14,.cls-4,.cls-9{stroke-miterlimit:10;stroke-width:1.8px;}.cls-12,.cls-5{fill:#1d5493;}.cls-5,.cls-6,.cls-7,.cls-8,.cls-9{fill-rule:evenodd;}.cls-10,.cls-6{fill:#488fba;}.cls-11,.cls-7{fill:#6ca5c8;}.cls-13,.cls-8{fill:#b5d2e3;}.cls-14,.cls-9{stroke:#1d5493;}</style><clipPath id="clip-path"><rect class="cls-1" x="-2.01625" y="-0.71238" width="1492.05712" height="574.86184"/></clipPath></defs><g class="cls-2"><rect class="cls-3" x="-2.01625" y="-0.71238" width="1492.05712" height="574.86184"/><circle class="cls-4" cx="937.96753" cy="596.47461" r="89.44841"/><path class="cls-4" d="M1268.81244,262.74992l60.70147,12.328a3.03221,3.03221,0,0,1,2.363,3.595l-12.328,60.70143a3.03228,3.03228,0,0,1-3.595,2.363l-60.70147-12.328a3.0322,3.0322,0,0,1-2.363-3.595l12.35721-60.67019A3.02993,3.02993,0,0,1,1268.81244,262.74992Z"/><path class="cls-4" d="M1445.11047,417.959l-188.3322,76.4276a3.19237,3.19237,0,0,0-1.7685,4.17328,3.30574,3.30574,0,0,0,.99677,1.31772l160.3306,124.891a3.19268,3.19268,0,0,0,4.49433-.54611,3.02027,3.02027,0,0,0,.61905-1.54719l28.06271-201.33213a3.22162,3.22162,0,0,0-2.72588-3.62733A3.12486,3.12486,0,0,0,1445.11047,417.959Z"/><path class="cls-4" d="M1091.607,415.14383l-88.25985-35.09738a1.49186,1.49186,0,0,0-1.946.83649,1.5447,1.5447,0,0,0-.08966.7669l13.72528,93.97776a1.492,1.492,0,0,0,1.69313,1.26872,1.41135,1.41135,0,0,0,.70909-.322l74.55957-58.86518a1.50553,1.50553,0,0,0,.25288-2.10527A1.4603,1.4603,0,0,0,1091.607,415.14383Z"/></g><path class="cls-5" d="M963.53486,241.42328a97.66751,97.66751,0,0,1,97.66607-97.66867h.00231v45.57881a52.09008,52.09008,0,0,0-52.08986,52.08986Z"/><path class="cls-6" d="M1061.203,339.09194a97.66741,97.66741,0,0,1-97.66838-97.66636v-.002l45.57823-.00029a52.09049,52.09049,0,0,0,52.08986,52.09Z"/><path class="cls-7" d="M1158.871,241.42357a97.66889,97.66889,0,0,1-97.66809,97.66837V293.51343a52.09025,52.09025,0,0,0,52.08957-52.09Z"/><path class="cls-8" d="M1061.203,143.75476a97.669,97.669,0,0,1,97.66809,97.66866h-45.57852a52.09,52.09,0,0,0-52.08957-52.08986Z"/><path class="cls-9" d="M961.74449,242.50029a97.66751,97.66751,0,0,1,97.66607-97.66867h.00231v45.57881a52.09009,52.09009,0,0,0-52.08986,52.08986Z"/><path class="cls-9" d="M1059.41258,340.169a97.66743,97.66743,0,0,1-97.66838-97.66637v-.002l45.57823-.00029a52.09048,52.09048,0,0,0,52.08986,52.09Z"/><path class="cls-9" d="M1157.08067,242.50058a97.6689,97.6689,0,0,1-97.66809,97.66838V294.59044a52.09024,52.09024,0,0,0,52.08957-52.09Z"/><path class="cls-9" d="M1059.41258,144.83177a97.669,97.669,0,0,1,97.66809,97.66866h-45.57852a52.09,52.09,0,0,0-52.08957-52.08985Z"/><path class="cls-10" d="M1153.70182,485.13152l-7.42535,90.96073,115.80932-.934-6.53764-93.3946s7.17114-14.35706,7.45786-36.02849c-10.99526,10.52811-31.47935,23.04395-69.47029,31.13034C1193.53572,476.86554,1174.84807,481.2992,1153.70182,485.13152Z"/><path class="cls-10" d="M1061.20713,327.08252c-8.52426,0-14.87285,6.05353-19.3379,5.64762a29.26588,29.26588,0,0,1-10.3029-.63084c-4.62572-1.36671-2.73342,2.83859-1.26154,3.78474,0,0,5.00823,3.11838,13.32249,2.63595a.38341.38341,0,0,1,.23536.70056c-1.98115,1.328-6.04042,3.778-8.51157,3.39193a11.49842,11.49842,0,0,1-2.52314-2.83859c-.99562-1.7537-1.32432-3.7385-2.9437-2.73342-3.0488,1.89237-.94615,9.0413,2.10265,10.82857,1.11986.65641,9.82924-.02467,10.74981-.09873a.07974.07974,0,0,1,.091.07105,5.24584,5.24584,0,0,0,5.76989,4.44319c5.15145-.31538,11.985-6.0976,19.239-5.88739,5.5238.1601,11.8897,3.48456,14.61772,5.06407l8.878-12.82366C1084.08571,334.96872,1067.74974,327.08252,1061.20713,327.08252Z"/><path class="cls-10" d="M1207.3365,231.69577c-10.44136,9.39726-17.89943-5.81732-17.89943-5.81732-7.309-1.93911-16.10958-14.61793-19.83862-16.40786s-4.47486,4.624-4.47486,4.624-8.94971-2.23746-14.17046-3.43075c-5.22068-1.19328-5.36979-5.9665-3.57986-13.27547,1.78993-7.30889-1.78993-7.01061-6.414-10.59047-3.31878-2.56938-3.9478-3.61265-4.47983-6.52769a61.63528,61.63528,0,0,0-2.82914,7.87016c-1.64082,6.56314.59665,9.84465,1.49165,13.42458.89493,3.57993-1.64083,11.63464-1.64083,13.12629s6.11568,2.23746,6.11568,2.23746c.3739,2.69194,5.88081,7.11656,9.69554,10.59047,3.79484,3.45584,5.89525,5.96727,7.15979,6.26486,2.53575.59664,12.38047.59664,18.347,2.53575,4.6129,1.49921,11.18361,16.45362,13.92929,23.16538l9.62989,3.64012C1199.63865,247.22111,1207.3365,231.69577,1207.3365,231.69577Z"/><path class="cls-10" d="M1283.29392,402.53109c-33.18724-40.48184-30.49446-83.56691-30.49446-83.56691l.97754-31.03528a49.44513,49.44513,0,0,1,4.71548-19.93249c7.97024-16.53707,1.80814-27.27219-4.35687-34.14852a13.48075,13.48075,0,0,0-8.103-4.373c-1.12406,1.47153-2.121,2.69859-2.8971,3.56339-5.067,5.646-9.99068,20.70552.49644,33.86074.31826.39926.64815.79705.9952,1.19245a29.08115,29.08115,0,0,1,6.29086,11.824c2.83081,10.60784-.346,21.13322-1.96518,25.01907-2.23746,5.36986-14.02129,15.662-17.8995,5.07157-3.87822-10.59054-12.97712-5.22068-27.29669-23.71683-3.85867-4.98412-5.36482-11.24849-5.52514-17.73806a52.38829,52.38829,0,0,1,.1468-5.42585l-9.62989-3.64012-1.698-.64183s.39659,3.69848-7.72175,9.38134c-8.11834,5.68279-16.23662,7.71236-23.13722,15.01888s-23.54312,57.23416-29.6319,60.07556c-5.21809,2.43513-26.23737-4.37188-32.14159-6.36828a2.17759,2.17759,0,0,0-2.49182.829l-.59383.85773-8.878,12.82366-.54556.78807c3.24738,17.86034,59.2638,28.41416,59.2638,28.41416s2.43548,27.19635.81183,52.36314c-1.09214,16.92755.75405,35.32416,2.07984,45.55546a7.76147,7.76147,0,0,0,9.05308,6.65578c.19559-.03524.38935-.07092.58448-.10632,21.14625-3.83232,39.8339-8.266,39.8339-8.266,37.99094-8.08639,58.475-20.60223,69.47029-31.13034,11.08208-10.61128,12.52475-19.20322,12.52475-19.20322,3.93476-.84315,7.48028-10.44311,9.2892-16.26955A8.30825,8.30825,0,0,0,1283.29392,402.53109Z"/><path class="cls-10" d="M1244.62716,268.09143c-.34705-.3954-.67694-.79319-.9952-1.19245-10.48712-13.15522-5.56339-28.21474-.49644-33.86074.77609-.8648,1.773-2.09186,2.8971-3.56339,6.437-8.42686,17.14506-25.06785,15.74816-30.14734-1.64076-5.96643,2.98328-26.7-31.92073-31.02573a7.73607,7.73607,0,0,0-9.84472-3.87821s.14918-16.10958-30.28-19.83862c-20.36217-2.49532-33.83566,1.9567-41.60064,7.00746a23.562,23.562,0,0,0-7.47377,7.16294c-3.57986,6.11568-2.98321,8.204-2.98321,8.204s-3.1324,1.93911-1.93911,8.80054c.15345.88225.27677,1.65778.38594,2.35259.13047.83046.2409,1.53354.35491,2.15779.532,2.915,1.161,3.95831,4.47983,6.52769,4.624,3.57986,8.2039,3.28158,6.414,10.59047-1.78993,7.309-1.64082,12.08219,3.57986,13.27547,5.22075,1.19329,14.17046,3.43075,14.17046,3.43075s.74583-6.414,4.47486-4.624,12.52965,14.46875,19.83862,16.40786c0,0,7.45807,15.21458,17.89943,5.81732,0,0-7.69785,15.52534-8.95819,31.42954a52.38829,52.38829,0,0,0-.1468,5.42585c.16032,6.48957,1.66647,12.75394,5.52514,17.73806,14.31957,18.49615,23.41847,13.12629,27.29669,23.71683,3.87821,10.59047,15.662.29829,17.8995-5.07157,1.61917-3.88585,4.796-14.41123,1.96518-25.01907A29.08115,29.08115,0,0,0,1244.62716,268.09143Z"/><path class="cls-10" d="M1114.62439,137.66333c-7.63662-4.30543-32.55963-18.39882-37.30082-18.69515-5.49521-.34348-21.6373,19.92-23.01109,22.3242-1.37385,2.40409-5.1518,10.30346-1.71727,7.55589,3.43447-2.74764,16.829-17.51594,16.829-17.51594s5.15173-2.74757,2.74764,2.74757c-2.40416,5.49521-11.33384,9.61657-10.99043,12.36421.34348,2.74757,13.05111-1.71726,13.05111-1.71726s15.11178.34348,20.26351-3.09106c5.15174-3.43446,11.33384,3.778,11.33384,3.778l6.12185,6.5169C1114.51494,148.21582,1114.75,141.61372,1114.62439,137.66333Z"/><path class="cls-10" d="M1114.41607,134.42338s.14672,1.30225.20832,3.23995c.12563,3.95039-.10945,10.55249-2.67267,14.26731a6.81573,6.81573,0,0,1-1.657,1.72588l25.82985,24.45593c-.10917-.69481-.23249-1.47034-.38594-2.35259-1.19329-6.86143,1.93911-8.80054,1.93911-8.80054s-.59665-2.08829,2.98321-8.204a23.562,23.562,0,0,1,7.47377-7.16294C1138.64189,145.0685,1123.0312,134.66267,1114.41607,134.42338Z"/><path class="cls-10" d="M1156.13949,483.33659l-7.42535,90.96073,115.80932-.934-6.53764-93.3946s7.17114-14.35706,7.45786-36.02849c-10.99526,10.52811-31.47935,23.04395-69.47029,31.13034C1195.97339,475.07061,1177.28574,479.50427,1156.13949,483.33659Z"/><path class="cls-11" d="M1063.6448,325.28759c-8.52426,0-14.87285,6.05353-19.3379,5.64761a29.26575,29.26575,0,0,1-10.3029-.63083c-4.62572-1.36671-2.73342,2.83859-1.26154,3.78474,0,0,5.00823,3.11838,13.32249,2.63595a.38341.38341,0,0,1,.23536.70056c-1.98115,1.328-6.04042,3.778-8.51157,3.39193a11.49842,11.49842,0,0,1-2.52314-2.83859c-.99562-1.75371-1.32432-3.7385-2.9437-2.73342-3.0488,1.89237-.94615,9.0413,2.10265,10.82857,1.11986.65641,9.82924-.02467,10.74981-.09873a.07973.07973,0,0,1,.091.07105,5.24585,5.24585,0,0,0,5.76989,4.44319c5.15145-.31539,11.985-6.09761,19.239-5.8874,5.5238.16011,11.8897,3.48457,14.61772,5.06408l8.878-12.82366C1086.52338,333.17379,1070.18741,325.28759,1063.6448,325.28759Z"/><path class="cls-11" d="M1209.77417,229.90084c-10.44136,9.39725-17.89943-5.81732-17.89943-5.81732-7.309-1.93911-16.10958-14.61794-19.83862-16.40787s-4.47486,4.624-4.47486,4.624-8.94971-2.23746-14.17046-3.43075c-5.22068-1.19329-5.36979-5.9665-3.57986-13.27547,1.78993-7.3089-1.78993-7.01061-6.414-10.59047-3.31878-2.56938-3.9478-3.61265-4.47983-6.52769a61.63528,61.63528,0,0,0-2.82914,7.87016c-1.64082,6.56314.59665,9.84464,1.49165,13.42457.89493,3.57993-1.64083,11.63465-1.64083,13.12629s6.11568,2.23747,6.11568,2.23747c.3739,2.69194,5.88081,7.11655,9.69554,10.59047,3.79484,3.45583,5.89525,5.96727,7.15979,6.26486,2.53575.59664,12.38047.59664,18.347,2.53575,4.6129,1.49921,11.18361,16.45362,13.92929,23.16538l9.62989,3.64012C1202.07632,245.42618,1209.77417,229.90084,1209.77417,229.90084Z"/><path class="cls-12" d="M1285.73159,400.73615c-33.18724-40.48184-30.49446-83.5669-30.49446-83.5669l.97754-31.03528a49.44522,49.44522,0,0,1,4.71548-19.9325c7.97024-16.53707,1.80814-27.27218-4.35687-34.14851a13.48081,13.48081,0,0,0-8.103-4.37305c-1.12406,1.47154-2.121,2.6986-2.8971,3.5634-5.067,5.646-9.99068,20.70551.49644,33.86074.31826.39926.64815.797.9952,1.19245a29.08117,29.08117,0,0,1,6.29086,11.824c2.83081,10.60785-.346,21.13322-1.96518,25.01908-2.23746,5.36986-14.02129,15.662-17.8995,5.07157-3.87822-10.59054-12.97712-5.22068-27.29669-23.71683-3.85867-4.98413-5.36482-11.24849-5.52514-17.73807a52.38817,52.38817,0,0,1,.1468-5.42584l-9.62989-3.64012-1.698-.64184s.39659,3.69849-7.72175,9.38135c-8.11834,5.68279-16.23662,7.71236-23.13722,15.01887s-23.54312,57.23417-29.6319,60.07556c-5.21809,2.43514-26.23737-4.37188-32.14159-6.36828a2.1776,2.1776,0,0,0-2.49182.829l-.59383.85773-8.878,12.82366-.54556.78807c3.24738,17.86034,59.2638,28.41416,59.2638,28.41416s2.43548,27.19635.81183,52.36313c-1.09214,16.92756.75405,35.32417,2.07984,45.55547a7.76147,7.76147,0,0,0,9.05308,6.65577c.19559-.03524.38935-.07092.58448-.10631,21.14625-3.83232,39.8339-8.266,39.8339-8.266,37.99094-8.08639,58.475-20.60223,69.47029-31.13034,11.08208-10.61128,12.52475-19.20322,12.52475-19.20322,3.93476-.84315,7.48028-10.44312,9.2892-16.26955A8.30827,8.30827,0,0,0,1285.73159,400.73615Z"/><path class="cls-13" d="M1247.06483,266.2965c-.34705-.39541-.67694-.79319-.9952-1.19245-10.48712-13.15523-5.56339-28.21474-.49644-33.86074.77609-.8648,1.773-2.09186,2.8971-3.5634,6.437-8.42686,17.14506-25.06784,15.74816-30.14733-1.64076-5.96643,2.98328-26.70005-31.92073-31.02573a7.73606,7.73606,0,0,0-9.84472-3.87821s.14918-16.10958-30.28-19.83862c-20.36217-2.49532-33.83566,1.9567-41.60064,7.00746a23.562,23.562,0,0,0-7.47377,7.16294c-3.57986,6.11568-2.98321,8.204-2.98321,8.204s-3.1324,1.9391-1.93911,8.80054c.15345.88224.27677,1.65778.38594,2.35259.13047.83046.2409,1.53354.35491,2.15779.532,2.915,1.161,3.95831,4.47983,6.52769,4.624,3.57986,8.2039,3.28157,6.414,10.59047-1.78993,7.309-1.64082,12.08218,3.57986,13.27547,5.22075,1.19329,14.17046,3.43075,14.17046,3.43075s.74583-6.414,4.47486-4.624,12.52965,14.46876,19.83862,16.40787c0,0,7.45807,15.21457,17.89943,5.81732,0,0-7.69785,15.52534-8.95819,31.42954a52.38817,52.38817,0,0,0-.1468,5.42584c.16032,6.48958,1.66647,12.75394,5.52514,17.73807,14.31957,18.49615,23.41847,13.12629,27.29669,23.71683,3.87821,10.59047,15.662.29829,17.8995-5.07157,1.61917-3.88586,4.796-14.41123,1.96518-25.01908A29.08117,29.08117,0,0,0,1247.06483,266.2965Z"/><path class="cls-11" d="M1117.06206,135.8684c-7.63662-4.30543-32.55963-18.39882-37.30082-18.69515-5.49521-.34348-21.6373,19.92-23.01109,22.3242-1.37385,2.40409-5.1518,10.30346-1.71727,7.55589,3.43447-2.74764,16.829-17.516,16.829-17.516s5.15173-2.74757,2.74764,2.74758c-2.40416,5.49521-11.33384,9.61657-10.99043,12.36421.34348,2.74757,13.05111-1.71727,13.05111-1.71727s15.11178.34348,20.26351-3.091c5.15174-3.43447,11.33384,3.778,11.33384,3.778l6.12185,6.51689C1116.95261,146.42089,1117.18769,139.81879,1117.06206,135.8684Z"/><path class="cls-12" d="M1116.85374,132.62845s.14672,1.30224.20832,3.24c.12563,3.95039-.10945,10.55249-2.67267,14.2673a6.81578,6.81578,0,0,1-1.657,1.72589l25.82985,24.45593c-.10917-.69481-.23249-1.47035-.38594-2.35259-1.19329-6.86144,1.93911-8.80054,1.93911-8.80054s-.59665-2.08829,2.98321-8.204a23.562,23.562,0,0,1,7.47377-7.16294C1141.07956,143.27357,1125.46887,132.86774,1116.85374,132.62845Z"/><path class="cls-14" d="M1153.70182,484.36493l-7.42535,90.96073,115.80932-.934-6.53764-93.3946s7.17114-14.35706,7.45786-36.02849c-10.99526,10.52811-31.47935,23.04395-69.47029,31.13034C1193.53572,476.099,1174.84807,480.53261,1153.70182,484.36493Z"/><path class="cls-14" d="M1061.20713,326.31593c-8.52426,0-14.87285,6.05353-19.3379,5.64762a29.26588,29.26588,0,0,1-10.3029-.63084c-4.62572-1.36671-2.73342,2.83859-1.26154,3.78474,0,0,5.00823,3.11838,13.32249,2.63595a.38341.38341,0,0,1,.23536.70056c-1.98115,1.328-6.04042,3.778-8.51157,3.39193a11.49842,11.49842,0,0,1-2.52314-2.83859c-.99562-1.7537-1.32432-3.7385-2.9437-2.73342-3.0488,1.89237-.94615,9.0413,2.10265,10.82857,1.11986.65641,9.82924-.02467,10.74981-.09873a.07974.07974,0,0,1,.091.07105,5.24584,5.24584,0,0,0,5.76989,4.44319c5.15145-.31539,11.985-6.0976,19.239-5.8874,5.5238.16011,11.8897,3.48457,14.61772,5.06408l8.878-12.82366C1084.08571,334.20213,1067.74974,326.31593,1061.20713,326.31593Z"/><path class="cls-14" d="M1207.3365,230.92918c-10.44136,9.39726-17.89943-5.81732-17.89943-5.81732-7.309-1.93911-16.10958-14.61793-19.83862-16.40786s-4.47486,4.624-4.47486,4.624-8.94971-2.23746-14.17046-3.43075c-5.22068-1.19328-5.36979-5.9665-3.57986-13.27547,1.78993-7.30889-1.78993-7.01061-6.414-10.59047-3.31878-2.56938-3.9478-3.61265-4.47983-6.52769a61.63528,61.63528,0,0,0-2.82914,7.87016c-1.64082,6.56314.59665,9.84465,1.49165,13.42458.89493,3.57992-1.64083,11.63464-1.64083,13.12629s6.11568,2.23746,6.11568,2.23746c.3739,2.69194,5.88081,7.11656,9.69554,10.59047,3.79484,3.45584,5.89525,5.96727,7.15979,6.26486,2.53575.59664,12.38047.59664,18.347,2.53575,4.6129,1.49921,11.18361,16.45362,13.92929,23.16538l9.62989,3.64012C1199.63865,246.45452,1207.3365,230.92918,1207.3365,230.92918Z"/><path class="cls-14" d="M1283.29392,401.7645c-33.18724-40.48184-30.49446-83.56691-30.49446-83.56691l.97754-31.03528a49.44513,49.44513,0,0,1,4.71548-19.93249c7.97024-16.53707,1.80814-27.27219-4.35687-34.14852a13.48081,13.48081,0,0,0-8.103-4.37305c-1.12406,1.47154-2.121,2.6986-2.8971,3.5634-5.067,5.646-9.99068,20.70551.49644,33.86074.31826.39926.64815.79705.9952,1.19245a29.08115,29.08115,0,0,1,6.29086,11.824c2.83081,10.60784-.346,21.13322-1.96518,25.01907-2.23746,5.36986-14.02129,15.662-17.8995,5.07157-3.87822-10.59054-12.97712-5.22068-27.29669-23.71683-3.85867-4.98412-5.36482-11.24849-5.52514-17.73806a52.38829,52.38829,0,0,1,.1468-5.42585l-9.62989-3.64012-1.698-.64184s.39659,3.69849-7.72175,9.38135c-8.11834,5.68279-16.23662,7.71236-23.13722,15.01887s-23.54312,57.23417-29.6319,60.07556c-5.21809,2.43514-26.23737-4.37187-32.14159-6.36827a2.17758,2.17758,0,0,0-2.49182.829l-.59383.85773-8.878,12.82366-.54556.78807c3.24738,17.86034,59.2638,28.41416,59.2638,28.41416s2.43548,27.19635.81183,52.36314c-1.09214,16.92755.75405,35.32416,2.07984,45.55546a7.76147,7.76147,0,0,0,9.05308,6.65578c.19559-.03525.38935-.07093.58448-.10632,21.14625-3.83232,39.8339-8.266,39.8339-8.266,37.99094-8.08639,58.475-20.60223,69.47029-31.13034,11.08208-10.61128,12.52475-19.20322,12.52475-19.20322,3.93476-.84315,7.48028-10.44311,9.2892-16.26955A8.30825,8.30825,0,0,0,1283.29392,401.7645Z"/><path class="cls-14" d="M1244.62716,267.32484c-.34705-.3954-.67694-.79319-.9952-1.19245-10.48712-13.15523-5.56339-28.21474-.49644-33.86074.77609-.8648,1.773-2.09186,2.8971-3.5634,6.437-8.42685,17.14506-25.06784,15.74816-30.14733-1.64076-5.96643,2.98328-26.70005-31.92073-31.02573a7.73606,7.73606,0,0,0-9.84472-3.87821s.14918-16.10958-30.28-19.83862c-20.36217-2.49532-33.83566,1.9567-41.60064,7.00746a23.562,23.562,0,0,0-7.47377,7.16294c-3.57986,6.11568-2.98321,8.204-2.98321,8.204s-3.1324,1.93911-1.93911,8.80054c.15345.88225.27677,1.65778.38594,2.35259.13047.83046.2409,1.53354.35491,2.15779.532,2.915,1.161,3.95831,4.47983,6.52769,4.624,3.57986,8.2039,3.28158,6.414,10.59047-1.78993,7.309-1.64082,12.08219,3.57986,13.27547,5.22075,1.19329,14.17046,3.43075,14.17046,3.43075s.74583-6.414,4.47486-4.624,12.52965,14.46875,19.83862,16.40786c0,0,7.45807,15.21458,17.89943,5.81732,0,0-7.69785,15.52534-8.95819,31.42954a52.38829,52.38829,0,0,0-.1468,5.42585c.16032,6.48957,1.66647,12.75394,5.52514,17.73806,14.31957,18.49615,23.41847,13.12629,27.29669,23.71683,3.87821,10.59047,15.662.29829,17.8995-5.07157,1.61917-3.88585,4.796-14.41123,1.96518-25.01907A29.08115,29.08115,0,0,0,1244.62716,267.32484Z"/><path class="cls-14" d="M1114.62439,136.89674c-7.63662-4.30543-32.55963-18.39882-37.30082-18.69515-5.49521-.34348-21.6373,19.92-23.01109,22.3242-1.37385,2.40409-5.1518,10.30346-1.71727,7.55589,3.43447-2.74764,16.829-17.51594,16.829-17.51594s5.15173-2.74757,2.74764,2.74757c-2.40416,5.49521-11.33384,9.61657-10.99043,12.36421.34348,2.74757,13.05111-1.71727,13.05111-1.71727s15.11178.34349,20.26351-3.091c5.15174-3.43446,11.33384,3.778,11.33384,3.778l6.12185,6.5169C1114.51494,147.44923,1114.75,140.84713,1114.62439,136.89674Z"/><path class="cls-14" d="M1114.41607,133.65679s.14672,1.30224.20832,3.23995c.12563,3.95039-.10945,10.55249-2.67267,14.26731a6.81573,6.81573,0,0,1-1.657,1.72588l25.82985,24.45593c-.10917-.69481-.23249-1.47034-.38594-2.35259-1.19329-6.86143,1.93911-8.80054,1.93911-8.80054s-.59665-2.08829,2.98321-8.204a23.562,23.562,0,0,1,7.47377-7.16294C1138.64189,144.30191,1123.0312,133.89608,1114.41607,133.65679Z"/><path class="cls-14" d="M1167.8971,227.99947s6.46438.202,7.07041-4.04023,2.22213-13.33278-7.67644-14.94888"/><path class="cls-14" d="M1169.31118,216.08078s3.4342,1.21207,2.62616,3.63621-1.41409,4.44426-2.02012,4.44426"/><path class="cls-14" d="M1224.66242,178.50658c7.07042,24.84745-17.32592,52.4226-17.32592,52.4226"/><path class="cls-12" d="M1220.01533,163.657s1.74807,3.78871,1.81893,5.153c.06735,1.29668-1.21207,5.05029-1.21207,5.05029l3.4342,2.22213s7.97111-1.53957,5.80366-8.54724S1220.01533,163.657,1220.01533,163.657Z"/><path class="cls-14" d="M1234.359,183.55687s-5.25231,19.39314-7.27242,26.46355-14.34284,63.2297,4.44426,91.30935"/><path class="cls-14" d="M1141.17259,379.89687s11.1696,1.22757,18.24-5.84285,14.05594-22.979,18.7871-34.544c3.63622-8.88852,7.87846-9.29254,8.88852-8.88852"/><path class="cls-14" d="M1175.16953,344.15627s19.99917-.404,44.4426-24.24142c0,0,6.06035-6.8684,6.06035-3.83822s-26.86757,26.66556-42.22047,29.0897"/><path class="cls-14" d="M1275.53076,425.76539c-.97142-1.61243-19.35449-33.12628-19.75852-53.52947s-2.62615-44.03858-2.62615-44.03858"/><path class="cls-14" d="M1227.99984,575.15347c0-2.93248,7.3312-73.312,16.71513-85.04192"/><path class="cls-14" d="M1249.40694,488.35206a22.14321,22.14321,0,0,0,6.14121-7.355"/></svg>