<svg id="Layer_1" data-name="Layer 1" xmlns="http://www.w3.org/2000/svg" xmlns:xlink="http://www.w3.org/1999/xlink" viewBox="0 0 1488.02462 573.43707"><defs><style>.cls-1,.cls-4,.cls-8{fill:none;}.cls-2{clip-path:url(#clip-path);}.cls-3{fill:#468fba;}.cls-4{stroke:#91bcd6;}.cls-4,.cls-8{stroke-miterlimit:10;stroke-width:1.8px;}.cls-5{fill:#1d5493;}.cls-6{fill:#6ca5c8;}.cls-7{fill:#91bcd6;}.cls-8{stroke:#1d5493;}</style><clipPath id="clip-path"><rect class="cls-1" x="-2.51707" y="-0.93714" width="1492.05712" height="574.86184"/></clipPath></defs><g class="cls-2"><rect class="cls-3" x="-2.51707" y="-0.93714" width="1492.05712" height="574.86184"/><circle class="cls-4" cx="799.34881" cy="549.6079" r="89.44841"/><path class="cls-4" d="M1184.3786,67.18574l51.90549,10.5416a2.59281,2.59281,0,0,1,2.02057,3.07407l-10.54161,51.90546a2.59287,2.59287,0,0,1-3.0741,2.02061l-51.90549-10.54158a2.59283,2.59283,0,0,1-2.02057-3.07408l10.56659-51.87874A2.59087,2.59087,0,0,1,1184.3786,67.18574Z"/><path class="cls-4" d="M1421.51655,103.86929l-188.33219,76.4276a3.19235,3.19235,0,0,0-1.7685,4.17328,3.30555,3.30555,0,0,0,.99676,1.31772l160.3306,124.891a3.19269,3.19269,0,0,0,4.49433-.5461,3.02025,3.02025,0,0,0,.61905-1.54719l28.06271-201.33214a3.22162,3.22162,0,0,0-2.72588-3.62733A3.12486,3.12486,0,0,0,1421.51655,103.86929Z"/><path class="cls-3" d="M1028.37037,271.92167c-1.58884-20.57351-14.767-47.716-39.1998-44.98667-23.29965,2.60274-36.80078,28.30626-39.03942,49.45554a69.07136,69.07136,0,0,0-.40962,7.61252c.1114,21.2795,13.23314,53.067,39.449,51.1262,26.59805-1.96912,39.69922-33.93262,39.449-57.06816C1028.59731,276.00071,1028.52512,273.92774,1028.37037,271.92167ZM985.4868,330.556c-22.98119,1.073-30.85251-28.08688-31.51886-45.12348a55.54318,55.54318,0,0,1,.62324-9.30094c2.18908-16.40337,12.32341-38.504,30.89562-40.50612,19.32364-2.08314,29.33771,21.23241,31.05785,36.96176a75.65732,75.65732,0,0,1,.461,8.16171C1017.02015,299.48043,1008.02077,329.50389,985.4868,330.556Z"/><path class="cls-3" d="M1013.28534,272.77134l.232-.01316c-.07243-.50268-.14831-1.00282-.232-1.4973Z"/><path class="cls-3" d="M1013.28534,293.44458a68.51055,68.51055,0,0,0,.91214-11.15893,66.67369,66.67369,0,0,0-.68014-9.52747l-.232.01316Z"/><path class="cls-3" d="M984.983,312.699c-4.73089.27188-8.566-3.92016-8.566-9.36311V270.02455c0-5.443,3.83506-10.19208,8.566-10.60743l19.73636-1.73272a7.14538,7.14538,0,0,1,5.11787,1.55425c-3.6302-9.10813-11.85815-18.07775-22.17711-17.036-14.84108,1.49835-23.7064,20.20134-25.68866,33.50164a72.82593,72.82593,0,0,0-.84846,10.4852c-.0361,14.92174,7.27718,40.76593,26.53712,40.083,8.256-.29276,16.77229-8.274,19.94031-15.46748a7.70636,7.70636,0,0,1-2.88107.75975Z"/><path class="cls-3" d="M1016.54465,272.58726c-1.71922-15.73035-11.73444-39.04491-31.05785-36.96176-18.57221,2.00215-28.70654,24.10312-30.89562,40.50612a55.5553,55.5553,0,0,0-.62324,9.30094c.66589,17.03635,8.53767,46.19651,31.51886,45.12348,22.534-1.05214,31.53427-31.07469,31.51886-49.80707A75.77558,75.77558,0,0,0,1016.54465,272.58726Zm-3.25931,20.85732a64.57933,64.57933,0,0,1-5.68489,17.36044c-3.30437,6.81158-11.68431,15.17472-19.94031,15.46748-19.25994.68294-26.57345-25.161-26.53712-40.083a72.79345,72.79345,0,0,1,.84846-10.4852c1.98272-13.2998,10.84758-32.00328,25.68866-33.50164,10.319-1.0418,18.48506,8.07525,22.17711,17.036a56.55648,56.55648,0,0,1,3.44809,12.02223c.08369.49448.15957.99463.232,1.4973a66.7353,66.7353,0,0,1,.68014,9.52747A68.51055,68.51055,0,0,1,1013.28534,293.44458Z"/><path class="cls-3" d="M1009.83725,259.23865a7.14538,7.14538,0,0,0-5.11787-1.55425L984.983,259.41712c-4.73089.41535-8.566,5.16447-8.566,10.60743v33.31133c0,5.443,3.83506,9.635,8.566,9.36311l19.73636-1.13422a7.70636,7.70636,0,0,0,2.88107-.75975,57.022,57.022,0,0,0,5.68489-17.36044v-22.1837A53.67377,53.67377,0,0,0,1009.83725,259.23865Z"/><path class="cls-3" d="M1303.14053,244.643c-.115-6.74632-.19245-11.25409-.19245-11.25409-.10922,4.48952-.16395,6.734-.27317,11.22233Z"/><path class="cls-3" d="M1299.529,214.35216c-25.74246-7.18453-68.95852-4.49729-93.75342,10.38717a31.57624,31.57624,0,0,0-9.26426,8.13809,22.55,22.55,0,0,0-2.46788,4.21092c-.031.38777-.04645.58163-.07772.96937,4.28343.22465,6.425.33863,10.70824.56989q49.02,2.69042,98.001,5.98364c.10922-4.48834.164-6.73281.27317-11.22233C1302.94808,233.38891,1305.36491,215.981,1299.529,214.35216Z"/><path class="cls-3" d="M1045.16519,195.4637c.33,5.97485.49482,8.96364.82454,14.944,6.25995,2.06823,10.99222,5.95109,11.90069,11.04194,2.40188,13.45729,31.05071,12.78155,42.36644,12.3267,0,0-10.67421-10.49394-.433-15.34645,16.03351-9.11643,35.92462-12.77777,53.89348-15.536-5.19995-7.66656-14.05585-12.20849-22.65767-14.65406-26.62219-7.56885-70.50344-34.87919-92.88381-3.49643C1042.07074,186.15618,1044.87594,190.22255,1045.16519,195.4637Z"/><path class="cls-3" d="M1153.71738,202.89385c-17.832,2.57435-37.86,6.41957-53.89348,15.536-10.24125,4.85251.433,15.34645.433,15.34645,5.95575.23186,8.93339.351,14.88913.59565q22.49925.92843,44.99275,1.99419,16.91565.80463,33.82694,1.69157c.03127-.38774.04668-.5816.07772-.96937a22.55,22.55,0,0,1,2.46788-4.21092,32.03654,32.03654,0,0,1,9.26426-8.13809c.77211-8.988,2.75138-19.74093,2.09377-21.58167C1205.22,195.74225,1165.42032,201.20434,1153.71738,202.89385Z"/><path class="cls-3" d="M1303.14053,244.643l-.46562-.03176q-48.98313-3.29315-98.001-5.98364c-4.2832-.23126-6.42481-.34524-10.70824-.56989q-16.91151-.8869-33.82694-1.69157-22.4927-1.07478-44.99275-1.99419c-5.95574-.24465-8.93338-.36379-14.88913-.59565-11.61648,2.51188-25.65854,3.9911-34.74115,8.045-7.8819,3.51806-8.47927,19.28042-8.73242,28.5155q53.21748-2.9413,106.44185-5.757,14.36306-.75822,28.72655-1.505c1.58815-.08261,2.38211-.12387,3.97-.20633,35.45049-.35192,71.21508-1.1451,106.43794-5.33832.332-.04025.67279-.08351.99838-.12032,10.09984-1.14228,20.96973-1.98925,30.06292-7.229C1324.63451,245.85856,1312.807,245.60637,1303.14053,244.643Z"/><path class="cls-3" d="M1023.42587,185.11281c1.40582-3.18082,2.57112-8.18533-2.45937-8.60184-9.342-.77347-28.77414.45905-31.74787,5.9796-.5231.97094-.16233,5.29164-.03334,8.91266l.03334-.01093A239.224,239.224,0,0,1,1023.42587,185.11281Z"/><path class="cls-3" d="M1045.16519,195.4637c-.28925-5.24115-3.09445-9.30752-6.98929-10.72034a9.08029,9.08029,0,0,0-3.67389-.53343c-3.17216.19431-7.00125.44569-11.07614.90288a258.04983,258.04983,0,0,0-34.20724,6.27949l-.03334.01093c-11.38448,3.21654-18.90815,12.96841-16.778,24.80857,15.6286-5.09917,31.7888-7.303,47.6563-8.63149a85.21869,85.21869,0,0,1,15.75231.60125,56.91132,56.91132,0,0,1,10.17387,2.2261C1045.66,204.42734,1045.49515,201.43855,1045.16519,195.4637Z"/><path class="cls-3" d="M939.26276,253.66747c-3.11675.26165-6.63968.523-10.35725.77822-2.0993,4.35449-8.3036,4.92036-8.3036,4.92036-4.99255-.18646-5.69661.48488-6.65658-3.36973-.04725-.18911-.08646-.39855-.12992-.59729-9.00213.51047-18.004,1.01729-27.00986,1.45862a29.39775,29.39775,0,0,1-3.61605-.026c-1.16783.88179-2.33463,1.77346-3.37612,2.57389-1.50618,1.1574-1.24,3.59176.442,4.04843,1.3911.37768,2.08665.567,3.47775.94686-1.43375,3.25352-2.15046,4.87689-3.58421,8.11689-4.37184.80559-9.34979,4.66731-12.08256,8.72518q29.84064-1.791,59.68334-3.54574C931.41431,269.61394,935.25363,261.58429,939.26276,253.66747Z"/><path class="cls-3" d="M1334.26115,250.83511c-.03358-.57391-.455-.90629-.84018-.65435a29.04835,29.04835,0,0,1-7.56275,3.10783,155.59515,155.59515,0,0,1-22.50017,4.12115c-.32881.041-.66658.08046-.99838.12032-35.18055,4.22645-70.98745,4.9864-106.43794,5.33832-1.58793.08246-2.38189.12372-3.97.20633q-14.36339.74682-28.72655,1.505-53.22437,2.81573-106.44185,5.757c-8.38684.46485-12.5806.69839-20.96743,1.16766-2.97811.16661-4.46739.25007-7.44549.41723.1598,2.01031.22694,4.07915.24925,6.13943.24971,23.135-12.851,55.099-39.449,57.06816-26.2159,1.94083-39.33695-29.84607-39.449-51.1262a68.82741,68.82741,0,0,1,.40962-7.61252c-6.23741.36237-9.35623.54418-15.59365.909-2.71505.15882-4.0727.23836-6.78775.39764q-29.84271,1.75473-59.68334,3.54574c-2.29554.13811-3.44326.20725-5.7388.34568-8.3313.50243-15.12159,8.30249-14.94431,17.16749-.62887,10.23862-.94331,15.353-1.57229,25.5718a7.25,7.25,0,0,0,6.85915,7.99694l.68969.0149q91.249,2.02278,182.456,5.41153,68.023,2.60088,136.012,5.94347,28.68538,1.43895,57.3641,2.99572c31.06037-.21473,69.30526.09543,96.3565-17.907a24.03721,24.03721,0,0,0,3.45545-2.51825C1342.30837,312.70329,1335.43128,270.9699,1334.26115,250.83511Z"/><path class="cls-3" d="M933.19906,235.00924c.60657,3.17631-.27121,7.25562-1.37627,10.89283-.94215,3.10192-2.04319,5.88-2.51559,7.511a6.5999,6.5999,0,0,1-.40169,1.03258c3.71757-.2552,7.2405-.51657,10.35725-.77822,1.54182-3.05716,3.15929-6.19919,4.83275-9.3591,2.055-3.88053,4.19088-7.784,6.3664-11.57411C950.46191,232.73426,943.1837,233.62767,933.19906,235.00924Z"/><path class="cls-3" d="M912.89614,237.99537c-10.8515,1.79036-32.46711,2.91364-36.33184,8.72058-1.59056,2.38993-1.81187,9.48844,6.6252,10.11571a29.39775,29.39775,0,0,0,3.61605.026c9.00582-.44133,18.00773-.94815,27.00986-1.45862a46.41047,46.41047,0,0,1-.83787-6.97772C912.72737,243.9799,912.83969,239.58838,912.89614,237.99537Z"/><path class="cls-3" d="M1057.89042,221.4496c-.90847-5.09109-5.64074-8.97371-11.90069-11.04194a56.91132,56.91132,0,0,0-10.17387-2.2261,85.21869,85.21869,0,0,0-15.75231-.60125c-15.86773,1.32843-32.11439,3.48865-47.6563,8.63149-8.0102,2.65063-17.63971,8.9886-21.94534,16.52246-2.16436,3.78709-4.31137,7.69358-6.3664,11.57411-1.67346,3.15991-3.28967,6.30574-4.83275,9.3591-3.99924,7.91359-7.84845,15.94647-11.513,24.0297,2.71505-.15928,4.0727-.23882,6.78775-.39764,6.23742-.36481,9.35624-.54662,15.59365-.909,2.23254-21.15678,15.73977-46.85281,39.03942-49.45554,24.43276-2.72931,37.654,24.363,39.1998,44.98667,2.9781-.16716,4.46738-.25062,7.44549-.41723,8.38683-.46927,12.58059-.70281,20.96743-1.16766.25315-9.23508.85558-24.99972,8.73242-28.5155,9.08836-4.05652,23.12467-5.5331,34.74115-8.045C1088.94113,234.23115,1060.29184,234.9061,1057.89042,221.4496Z"/><path class="cls-3" d="M933.19906,235.00924c-.55851-2.924-2.373-5.07766-6.45217-5.39569-12.28962-.95805-13.82592,7.74316-13.82592,7.74316s-.01058.23763-.02483.63866c-.05645,1.593-.16877,5.98453.0814,10.42594a46.41047,46.41047,0,0,0,.83787,6.97772c.04346.19874.08278.40827.12992.59729.96112,3.85274,1.664,3.18327,6.65658,3.36973,0,0,6.2043-.56587,8.3036-4.92036a6.5999,6.5999,0,0,0,.40169-1.03258c.4724-1.631,1.57344-4.40912,2.51559-7.511C932.92785,242.26486,933.80563,238.18555,933.19906,235.00924Z"/><path class="cls-3" d="M1232.96061,615.29259c-22.89773-1.14975-46.47675-7.93538-69.07924-12.87422-38.34858-8.3795-76.6045-17.18341-114.90388-25.78379q-102.68-23.05743-205.73944-44.36371c-1.8251,11.35677-6.56484,36.43677,1.3074,41.54176,35.811,23.22265,111.09779,31.35857,166.28833,47.83838,55.03741,16.43409,110.78669,38.48381,165.0775,50.9274,32.345,7.41352,129.275,35.39971,146.76948-9.69076q.289-33.59634.57736-67.19268C1310.25077,624.51524,1256.89487,616.49443,1232.96061,615.29259Z"/><path class="cls-3" d="M1035.81586,361.922c-41.10021-2.22548-82.69649-5.68658-123.9189-5.30528q-2.753,84.16524-5.52278,168.32992,107.80491,20.77251,214.95634,44.67073,1.89455-83.00927,3.78241-166.01867.41285-18.16392.82592-36.32781Q1080.89139,364.36041,1035.81586,361.922Z"/><path class="cls-3" d="M1325.41191,344.71232q-.16278,18.97386-.32535,37.94771c8.73725,9.77926,15.33543,21.82542,16.51844,35.01773,4.23745,47.25476,6.82972,99.92894-18.04267,142.61347-.08623,10.01385-.129,15.02028-.21522,25.03206a120.09541,120.09541,0,0,0,33.38707-63.28746C1366.44819,469.29519,1377.41649,382.23754,1325.41191,344.71232Z"/><path class="cls-3" d="M1229.192,346.69044q-28.67918-1.5568-57.3641-2.99572-67.99062-3.34247-136.012-5.94347-91.20829-3.3885-182.456-5.41153Q848.34913,432.18185,843.28,532.021s-.01759.10229-.042.24985q103.09839,21.11361,205.73944,44.36371c38.29938,8.60038,76.5553,17.40429,114.90388,25.78379,22.60249,4.93884,46.18151,11.72447,69.07924,12.87422,23.93426,1.20181,77.29016,9.22265,90.29751-19.59762.03564-4.1485.05335-6.22282.089-10.37168.08622-10.01178.129-15.01821.21522-25.03206q.76257-88.81559,1.52423-177.6312.16245-18.97386.32535-37.94771c.0545-6.37113.08186-9.55691.13658-15.92887C1298.37055,346.76035,1260.25236,346.47571,1229.192,346.69044Zm-104.07906,56.90829q-1.88763,83.00941-3.78241,166.01867Q1014.17334,545.728,906.37418,524.94667q2.76974-84.16467,5.52278-168.32992c41.22241-.3813,82.81846,3.0798,123.9189,5.30528q45.04265,2.43894,90.123,5.34889Q1125.526,385.43483,1125.11293,403.59873Z"/><path class="cls-3" d="M1023.18092,271.76787c-1.58884-20.57351-14.767-47.716-39.1998-44.98667-23.29965,2.60273-36.80078,28.30626-39.03942,49.45554a69.07368,69.07368,0,0,0-.40963,7.61252c.11141,21.2795,13.23315,53.067,39.44905,51.1262,26.598-1.96913,39.69921-33.93262,39.449-57.06816C1023.40786,275.84691,1023.33566,273.77394,1023.18092,271.76787Zm-42.88357,58.63437c-22.98119,1.073-30.85251-28.08689-31.51886-45.12348a55.54311,55.54311,0,0,1,.62324-9.30094c2.18908-16.40338,12.32341-38.504,30.89562-40.50612,19.32363-2.08314,29.33771,21.23241,31.05784,36.96176a75.65473,75.65473,0,0,1,.461,8.16171C1011.8307,299.32663,1002.83132,329.35009,980.29735,330.40224Z"/><path class="cls-3" d="M1008.09588,272.61754l.232-.01316c-.07243-.50269-.14831-1.00282-.232-1.4973Z"/><path class="cls-3" d="M1008.09588,293.29078a68.51054,68.51054,0,0,0,.91215-11.15893,66.67369,66.67369,0,0,0-.68014-9.52747l-.232.01316Z"/><path class="cls-3" d="M979.79357,312.54519c-4.73089.27188-8.566-3.92016-8.566-9.36312V269.87075c0-5.443,3.83507-10.19208,8.566-10.60743l19.73636-1.73273a7.14543,7.14543,0,0,1,5.11787,1.55426c-3.6302-9.10813-11.85815-18.07775-22.17711-17.036-14.84108,1.49835-23.70641,20.20134-25.68866,33.50164a72.82581,72.82581,0,0,0-.84846,10.4852c-.0361,14.92173,7.27717,40.76593,26.53712,40.083,8.256-.29276,16.77228-8.274,19.94031-15.46748a7.70636,7.70636,0,0,1-2.88107.75975Z"/><path class="cls-5" d="M1011.35519,272.43346c-1.71921-15.73035-11.73444-39.04491-31.05784-36.96176-18.57221,2.00215-28.70654,24.10312-30.89562,40.50612a55.55424,55.55424,0,0,0-.62324,9.30094c.66589,17.03635,8.53767,46.19651,31.51886,45.12348,22.534-1.05214,31.53427-31.0747,31.51886-49.80707A75.773,75.773,0,0,0,1011.35519,272.43346Zm-3.25931,20.85732a64.579,64.579,0,0,1-5.68488,17.36044c-3.30438,6.81158-11.68431,15.17472-19.94031,15.46748-19.26.68294-26.57345-25.161-26.53712-40.083a72.79345,72.79345,0,0,1,.84846-10.4852c1.98271-13.2998,10.84758-32.00329,25.68866-33.50164,10.319-1.0418,18.48506,8.07525,22.17711,17.036a56.5559,56.5559,0,0,1,3.44808,12.02223c.0837.49448.15958.99463.232,1.4973a66.73519,66.73519,0,0,1,.68014,9.52747A68.51054,68.51054,0,0,1,1008.09588,293.29078Z"/><path class="cls-5" d="M1004.6478,259.08485a7.14543,7.14543,0,0,0-5.11787-1.55426l-19.73636,1.73273c-4.73089.41535-8.566,5.16447-8.566,10.60743v33.31132c0,5.443,3.83507,9.635,8.566,9.36312l19.73636-1.13422a7.70636,7.70636,0,0,0,2.88107-.75975,57.02169,57.02169,0,0,0,5.68488-17.36044v-22.1837A53.67325,53.67325,0,0,0,1004.6478,259.08485Z"/><path class="cls-3" d="M1297.95108,244.48919c-.115-6.74631-.19246-11.25408-.19246-11.25408-.10922,4.48952-.16394,6.734-.27316,11.22233Z"/><path class="cls-6" d="M1294.33951,214.19836c-25.74247-7.18453-68.95852-4.49729-93.75343,10.38717a31.57648,31.57648,0,0,0-9.26426,8.13808,22.5504,22.5504,0,0,0-2.46788,4.21093c-.031.38777-.04644.58163-.07771.96937,4.28343.22464,6.425.33863,10.70824.56989q49.02,2.6904,98.001,5.98364c.10922-4.48834.16394-6.73281.27316-11.22233C1297.75862,233.23511,1300.17546,215.82717,1294.33951,214.19836Z"/><path class="cls-3" d="M1039.97574,195.3099c.33,5.97485.49482,8.96364.82454,14.944,6.26,2.06823,10.99222,5.95109,11.90068,11.04194,2.40189,13.45729,31.05072,12.78155,42.36645,12.3267,0,0-10.67421-10.49394-.433-15.34645,16.03351-9.11643,35.92462-12.77777,53.89348-15.536-5.19995-7.66656-14.05585-12.20849-22.65767-14.65406-26.62219-7.56885-70.50344-34.87919-92.88382-3.49643C1036.88129,186.00238,1039.68648,190.06875,1039.97574,195.3099Z"/><path class="cls-5" d="M1148.52793,202.74005c-17.832,2.57435-37.86,6.41957-53.89348,15.536-10.24125,4.85251.433,15.34645.433,15.34645,5.95574.23186,8.93339.351,14.88913.59565q22.49925.92842,44.99275,1.99419,16.91565.80463,33.82694,1.69157c.03127-.38774.04667-.5816.07771-.96937a22.5504,22.5504,0,0,1,2.46788-4.21093,32.03679,32.03679,0,0,1,9.26426-8.13808c.77212-8.988,2.75139-19.74094,2.09378-21.58167C1200.03056,195.58845,1160.23087,201.05054,1148.52793,202.74005Z"/><path class="cls-3" d="M1297.95108,244.48919l-.46562-.03175q-48.98313-3.29314-98.001-5.98364c-4.2832-.23126-6.42481-.34525-10.70824-.56989q-16.91152-.88692-33.82694-1.69157-22.49269-1.07478-44.99275-1.99419c-5.95574-.24465-8.93339-.36379-14.88913-.59565-11.61648,2.51188-25.65854,3.9911-34.74115,8.045-7.8819,3.51806-8.47927,19.28042-8.73243,28.5155q53.21748-2.9413,106.44186-5.757,14.363-.75824,28.72655-1.505c1.58815-.08261,2.38211-.12387,3.97-.20633,35.4505-.35192,71.21509-1.1451,106.438-5.33832.332-.04025.67279-.08351.99837-.12032,10.09985-1.14228,20.96973-1.98925,30.06292-7.229C1319.44506,245.70476,1307.61749,245.45257,1297.95108,244.48919Z"/><path class="cls-3" d="M1018.23642,184.959c1.40582-3.18082,2.57112-8.18533-2.45937-8.60184-9.342-.77347-28.77414.459-31.74787,5.9796-.5231.97094-.16234,5.29163-.03334,8.91266l.03334-.01094A239.22538,239.22538,0,0,1,1018.23642,184.959Z"/><path class="cls-7" d="M1039.97574,195.3099c-.28926-5.24115-3.09445-9.30752-6.9893-10.72034a9.0799,9.0799,0,0,0-3.67388-.53343c-3.17216.19431-7.00125.44569-11.07614.90288a258.05112,258.05112,0,0,0-34.20724,6.27948l-.03334.01094c-11.38448,3.21654-18.90815,12.96841-16.778,24.80857,15.6286-5.09917,31.7888-7.303,47.6563-8.63149a85.21857,85.21857,0,0,1,15.7523.60125,56.91123,56.91123,0,0,1,10.17388,2.2261C1040.47056,204.27354,1040.3057,201.28475,1039.97574,195.3099Z"/><path class="cls-3" d="M934.07331,253.51367c-3.11676.26165-6.63969.523-10.35725.77822-2.0993,4.35449-8.3036,4.92036-8.3036,4.92036-4.99255-.18646-5.69661.48488-6.65659-3.36973-.04725-.18911-.08645-.39855-.12991-.59729-9.00213.51046-18.004,1.01729-27.00986,1.45862a29.39973,29.39973,0,0,1-3.616-.026c-1.16783.88179-2.33463,1.77346-3.37612,2.57388-1.50618,1.15741-1.24,3.59177.442,4.04843,1.3911.37769,2.08665.56706,3.47775.94687-1.43375,3.25352-2.15046,4.87689-3.58421,8.11689-4.37185.80559-9.3498,4.66731-12.08256,8.72518q29.84062-1.791,59.68333-3.54574C926.22486,269.46014,930.06418,261.43049,934.07331,253.51367Z"/><path class="cls-5" d="M1329.07169,250.68131c-.03357-.57391-.455-.90629-.84018-.65435a29.048,29.048,0,0,1-7.56275,3.10783,155.59489,155.59489,0,0,1-22.50017,4.12115c-.3288.041-.66657.08046-.99837.12032-35.18055,4.22645-70.98745,4.9864-106.43795,5.33832-1.58792.08246-2.38188.12372-3.97.20633q-14.36338.74682-28.72655,1.505-53.22438,2.81572-106.44186,5.757c-8.38683.46485-12.58059.69839-20.96743,1.16766-2.9781.16661-4.46738.25007-7.44548.41723.1598,2.01031.22694,4.07915.24925,6.13943.2497,23.135-12.851,55.099-39.449,57.06816-26.2159,1.94083-39.33695-29.84607-39.44905-51.1262a68.82971,68.82971,0,0,1,.40963-7.61252c-6.23741.36237-9.35623.54417-15.59365.909-2.71506.15882-4.0727.23835-6.78776.39764q-29.84269,1.75472-59.68333,3.54574c-2.29554.1381-3.44326.20724-5.7388.34568-8.33131.50243-15.1216,8.30249-14.94432,17.16749-.62887,10.23862-.9433,15.353-1.57228,25.5718a7.25,7.25,0,0,0,6.85915,7.99694l.68969.0149q91.249,2.02278,182.456,5.41153,68.023,2.60088,136.012,5.94347,28.68538,1.43895,57.36411,2.99572c31.06037-.21473,69.30526.09543,96.3565-17.907a24.038,24.038,0,0,0,3.45545-2.51825C1337.11891,312.54949,1330.24183,270.8161,1329.07169,250.68131Z"/><path class="cls-5" d="M928.00961,234.85544c.60656,3.17631-.27121,7.25562-1.37627,10.89283-.94215,3.10192-2.04319,5.88-2.51559,7.511a6.60089,6.60089,0,0,1-.40169,1.03258c3.71756-.2552,7.24049-.51657,10.35725-.77822,1.54182-3.05716,3.15929-6.19919,4.83274-9.3591,2.055-3.88054,4.19089-7.784,6.36641-11.57411C945.27246,232.58046,937.99425,233.47387,928.00961,234.85544Z"/><path class="cls-5" d="M907.70669,237.84157c-10.8515,1.79036-32.46711,2.91364-36.33184,8.72058-1.59056,2.38993-1.81188,9.48843,6.6252,10.11571a29.39973,29.39973,0,0,0,3.616.026c9.00582-.44133,18.00773-.94816,27.00986-1.45862a46.41041,46.41041,0,0,1-.83788-6.97772C907.53792,243.8261,907.65024,239.43458,907.70669,237.84157Z"/><path class="cls-6" d="M1052.701,221.2958c-.90846-5.09109-5.64073-8.97371-11.90068-11.04194a56.91123,56.91123,0,0,0-10.17388-2.2261,85.21857,85.21857,0,0,0-15.7523-.60125c-15.86773,1.32843-32.11439,3.48865-47.6563,8.63149-8.0102,2.65063-17.63971,8.9886-21.94534,16.52246-2.16437,3.78709-4.31137,7.69357-6.36641,11.57411-1.67345,3.15991-3.28966,6.30574-4.83274,9.3591-3.99924,7.91358-7.84845,15.94647-11.513,24.0297,2.71506-.15929,4.0727-.23882,6.78776-.39764,6.23742-.36482,9.35624-.54662,15.59365-.909,2.23254-21.15678,15.73977-46.85281,39.03942-49.45554,24.43276-2.72931,37.654,24.363,39.1998,44.98667,2.9781-.16716,4.46738-.25062,7.44548-.41723,8.38684-.46927,12.5806-.70281,20.96743-1.16766.25316-9.23508.85559-24.99972,8.73243-28.5155,9.08836-4.05652,23.12467-5.5331,34.74115-8.045C1083.75168,234.07735,1055.10239,234.7523,1052.701,221.2958Z"/><path class="cls-5" d="M928.00961,234.85544c-.55851-2.924-2.373-5.07766-6.45217-5.39569-12.28962-.95805-13.82592,7.74316-13.82592,7.74316s-.01058.23763-.02483.63866c-.05645,1.593-.16877,5.98453.08139,10.42594a46.41041,46.41041,0,0,0,.83788,6.97772c.04346.19874.08278.40826.12991.59729.96113,3.85274,1.664,3.18327,6.65659,3.36973,0,0,6.2043-.56587,8.3036-4.92036a6.60089,6.60089,0,0,0,.40169-1.03258c.4724-1.631,1.57344-4.40912,2.51559-7.511C927.7384,242.11106,928.61617,238.03175,928.00961,234.85544Z"/><path class="cls-5" d="M1227.77115,615.13879c-22.89772-1.14975-46.47674-7.93538-69.07923-12.87422-38.34858-8.3795-76.6045-17.18341-114.90388-25.78379q-102.68-23.05743-205.73944-44.36371c-1.8251,11.35677-6.56484,36.43677,1.3074,41.54176,35.811,23.22265,111.09779,31.35857,166.28833,47.83838,55.03741,16.43408,110.78669,38.48381,165.0775,50.9274,32.345,7.41352,129.275,35.39971,146.76948-9.69076q.289-33.59634.57736-67.19269C1305.06132,624.36144,1251.70542,616.34063,1227.77115,615.13879Z"/><path class="cls-3" d="M1030.6264,361.76823c-41.1002-2.22548-82.69648-5.68658-123.91889-5.30528q-2.753,84.16524-5.52278,168.32992,107.80491,20.77251,214.95634,44.67073,1.89455-83.00927,3.78241-166.01867.41284-18.16392.82592-36.32781Q1075.70193,364.20661,1030.6264,361.76823Z"/><path class="cls-5" d="M1320.22246,344.55852q-.16279,18.97384-.32535,37.9477c8.73725,9.77927,15.33543,21.82543,16.51844,35.01774,4.23745,47.25476,6.82972,99.92894-18.04268,142.61347-.08622,10.01385-.129,15.02028-.21521,25.03206a120.09541,120.09541,0,0,0,33.38707-63.28746C1361.25874,469.14139,1372.227,382.08373,1320.22246,344.55852Z"/><path class="cls-6" d="M1224.00254,346.53664q-28.67917-1.5568-57.36411-2.99572-67.9906-3.34247-136.012-5.94347-91.20828-3.3885-182.456-5.41153-5.01072,99.84213-10.07984,199.6813s-.01759.10229-.042.24985Q941.147,553.23068,1043.788,576.48078c38.29938,8.60038,76.5553,17.40429,114.90388,25.78379,22.60249,4.93884,46.18151,11.72447,69.07923,12.87422,23.93427,1.20181,77.29017,9.22265,90.29752-19.59763.03564-4.14849.05335-6.22281.089-10.37167.08622-10.01178.129-15.01821.21521-25.03206q.76259-88.81559,1.52424-177.63121.16243-18.97384.32535-37.9477c.0545-6.37113.08186-9.55691.13658-15.92887C1293.1811,346.60655,1255.06291,346.32191,1224.00254,346.53664Zm-104.07906,56.90829q-1.88764,83.00941-3.78241,166.01867-107.15718-23.88945-214.95634-44.67073,2.76972-84.16467,5.52278-168.32992c41.22241-.3813,82.81846,3.0798,123.91889,5.30528q45.04264,2.43894,90.123,5.34889Q1120.33655,385.281,1119.92348,403.44493Z"/><path class="cls-8" d="M1340.78827,415.75732c-1.18277-13.18418-7.78072-25.22113-16.51844-34.98907q-.76153,88.78167-1.52423,177.56337C1347.61064,515.65482,1345.02641,463.00291,1340.78827,415.75732Z"/><path class="cls-8" d="M1027.55365,270.35158c-1.58885-20.56856-14.776-47.68035-39.2-44.92877-23.29436,2.62432-36.79929,28.31563-39.03919,49.4695a69.019,69.019,0,0,0-.40963,7.60929c.1114,21.27327,13.24235,53.03,39.44882,51.06529,26.58908-1.99343,39.69691-33.94024,39.449-57.07888C1027.78059,274.42856,1027.70839,272.35658,1027.55365,270.35158Zm-42.88357,58.64763c-22.97636,1.09515-30.85263-28.04383-31.51886-45.07279a55.51258,55.51258,0,0,1,.62312-9.29712c2.19012-16.40822,12.32675-38.49686,30.89574-40.51651,19.31742-2.10107,29.3384,21.18919,31.05784,36.91524a75.63148,75.63148,0,0,1,.461,8.15755C1016.2032,297.92358,1007.19876,327.92541,984.67008,328.99921Z"/><path class="cls-8" d="M1012.46861,271.21511l.232-.01338c-.07243-.50238-.1483-1.00222-.232-1.49639Z"/><path class="cls-8" d="M1012.46861,291.87888a68.46437,68.46437,0,0,0,.91192-11.15467,66.5989,66.5989,0,0,0-.67992-9.52248l-.232.01338Z"/><path class="cls-8" d="M984.16629,311.15094c-4.73088.27617-8.566-3.91032-8.566-9.35073V268.50444c0-5.44041,3.83507-10.191,8.566-10.6106,7.89455-.70026,11.84159-1.05038,19.73637-1.75065a7.14253,7.14253,0,0,1,5.11786,1.54868c-3.63157-9.10389-11.86274-18.05853-22.17711-17.007-14.839,1.5128-23.70525,20.20653-25.68866,33.51039a72.7749,72.7749,0,0,0-.84845,10.48105c-.03633,14.91569,7.28131,40.74107,26.53711,40.03937,8.25669-.30089,16.77114-8.28435,19.94032-15.47895a7.71666,7.71666,0,0,1-2.88107.7621Z"/><path class="cls-8" d="M1015.72792,271.028c-1.71967-15.72578-11.74042-39.01631-31.05784-36.91524-18.569,2.01967-28.70562,24.10817-30.89574,40.51651a55.52442,55.52442,0,0,0-.62312,9.29712c.666,17.02882,8.5425,46.16794,31.51886,45.07279,22.52868-1.07381,31.53266-31.07609,31.51886-49.81363A75.63148,75.63148,0,0,0,1015.72792,271.028Zm-3.25931,20.85085a64.57,64.57,0,0,1-5.68488,17.35782c-3.3053,6.81315-11.68363,15.17806-19.94032,15.47895-19.2558.7017-26.57344-25.12357-26.53711-40.03937a72.74245,72.74245,0,0,1,.84845-10.48105c1.98387-13.30325,10.84966-31.99762,25.68866-33.51039,10.31437-1.05149,18.48369,8.05059,22.17711,17.007a56.46683,56.46683,0,0,1,3.44809,12.01347c.0837.49417.15957.994.232,1.49639a66.66044,66.66044,0,0,1,.67992,9.52248A68.46437,68.46437,0,0,1,1012.46861,291.87888Z"/><path class="cls-8" d="M1009.02052,257.69187a7.14253,7.14253,0,0,0-5.11786-1.54868c-7.89478.70027-11.84182,1.05039-19.73637,1.75065-4.73088.41964-8.566,5.17019-8.566,10.6106v33.29577c0,5.44041,3.83507,9.6269,8.566,9.35073l19.73637-1.15214a7.71666,7.71666,0,0,0,2.88107-.7621,57.02453,57.02453,0,0,0,5.68488-17.35782V269.70534A53.5902,53.5902,0,0,0,1009.02052,257.69187Z"/><path class="cls-8" d="M1302.32381,242.82558c-.1152-6.74353-.19246-11.24947-.19246-11.24947-.10922,4.48785-.16394,6.73149-.27316,11.21816Z"/><path class="cls-8" d="M1298.71224,212.55009c-25.754-7.16068-68.96105-4.42717-93.75343,10.47175a31.61335,31.61335,0,0,0-9.26426,8.14349,22.55455,22.55455,0,0,0-2.46788,4.21151c-.031.38764-.04645.58143-.07772.969,4.28321.22052,6.425.33242,10.708.55955q49.0197,2.643,98.00122,5.88884c.10922-4.48667.16394-6.73031.27316-11.21816C1302.13135,231.57611,1304.54772,214.17262,1298.71224,212.55009Z"/><path class="cls-8" d="M1302.32381,242.82558l-.46562-.03131q-48.98347-3.24576-98.00122-5.88884c-4.283-.22713-6.42481-.339-10.708-.55955q-16.91151-.87057-33.82693-1.65885-22.49269-1.053-44.99275-1.95069c-5.95575-.23889-8.93362-.35513-14.88936-.58123-11.61649,2.52185-25.65647,4.0137-34.74092,8.07442-7.88167,3.523-8.47927,19.27569-8.73266,28.51108q53.21782-2.99019,106.44209-5.8548,14.363-.77143,28.72654-1.53143c1.58816-.08407,2.38212-.12606,3.97-.21,35.45188-.38511,71.21716-1.21174,106.438-5.4361.332-.04055.67279-.08411.99837-.12121,10.10076-1.15139,20.97088-2.00868,30.06269-7.25434C1323.81548,244.01967,1311.98907,243.77937,1302.32381,242.82558Z"/><path class="cls-8" d="M1022.60892,183.58688c1.406-3.18073,2.57135-8.1841-2.45937-8.59553-9.34566-.76434-28.77345.48381-31.74765,6.00758-.52287.97115-.16233,5.28935-.03334,8.90857.0115-.00347.02162-.00774.03334-.011A242.77932,242.77932,0,0,1,1022.60892,183.58688Z"/><path class="cls-8" d="M1044.34824,193.91215c-.289-5.23854-3.09445-9.30035-6.98907-10.70881a9.08055,9.08055,0,0,0-3.67411-.5296c-3.17217.19728-7.001.4522-11.07614.91314a258.28931,258.28931,0,0,0-34.207,6.30966l-.03334.011c-11.37942,3.22359-18.9086,12.97286-16.778,24.81319,15.62675-5.11123,31.78765-7.33006,47.65607-8.67328a85.24724,85.24724,0,0,1,15.75253.58583,56.89844,56.89844,0,0,1,10.17388,2.21534C1044.84329,202.87127,1044.67819,199.884,1044.34824,193.91215Z"/><path class="cls-8" d="M938.446,252.19037c-3.11675.26449-6.63979.52911-10.35736.78771-2.09941,4.35442-8.30349,4.9259-8.30349,4.9259-4.99255-.18161-5.69672.49008-6.65669-3.36174-.04714-.189-.08646-.39829-.12992-.59688-9.002.5188-18.00392,1.034-27.00974,1.48367a29.41236,29.41236,0,0,1-3.616-.02252c-1.16784.88247-2.33464,1.77481-3.37624,2.57585-1.50618,1.15826-1.23991,3.59115.44217,4.046,1.3911.37617,2.08665.56479,3.47774.94308-1.43375,3.25328-2.15057,4.87655-3.58432,8.1163-4.372.80935-9.34968,4.67388-12.08244,8.73232q29.84046-1.81842,59.68333-3.60056C930.59759,268.13648,934.43691,260.107,938.446,252.19037Z"/><path class="cls-8" d="M1333.44442,248.98605c-.03357-.57366-.455-.90552-.84041-.65329a29.078,29.078,0,0,1-7.56275,3.11372,155.72479,155.72479,0,0,1-22.49994,4.14062c-.3288.04125-.66658.08105-.99837.12121-35.17849,4.25753-70.98607,5.051-106.43795,5.4361-1.58792.08391-2.38188.1259-3.97.21q-14.36339.76-28.72654,1.53143-53.22438,2.86461-106.44209,5.8548c-8.38683.47255-12.58037.70993-20.9672,1.1869-2.9781.16935-4.46738.25417-7.44548.42407.1598,2.00924.22671,4.07709.249,6.13643.24948,23.14025-12.86,55.08547-39.449,57.07888-26.20647,1.96472-39.33765-29.79225-39.44882-51.06529a68.80365,68.80365,0,0,1,.40963-7.60929c-6.23753.36811-9.35624.55277-15.59376.92332-2.71506.16131-4.07259.24208-6.78765.40386q-29.84288,1.78213-59.68333,3.60056c-2.29555.14021-3.44326.21041-5.7388.351-8.33142.51008-15.1216,8.31265-14.94432,17.173-.629,10.234-.94342,15.34612-1.5724,25.56038a7.23973,7.23973,0,0,0,6.85915,7.9865l.6898.01425q91.2483,1.93662,182.456,5.23926,68.02269,2.53663,136.012,5.815,28.685,1.41188,57.36411,2.94156c31.06819-.24333,69.30617.02864,96.35627-17.98878a24.05191,24.05191,0,0,0,3.45544-2.52045C1341.48842,310.82544,1334.615,269.11734,1333.44442,248.98605Z"/><path class="cls-8" d="M932.38222,233.54686c.60668,3.1742-.27121,7.2524-1.37615,10.88892-.94216,3.10133-2.04319,5.87915-2.51559,7.50983a6.60042,6.60042,0,0,1-.40181,1.03247c3.71757-.2586,7.24061-.52322,10.35736-.78771,1.54171-3.05717,3.15929-6.19925,4.83275-9.35925,2.05492-3.88064,4.19089-7.78428,6.36629-11.57469C949.64507,231.25643,942.36686,232.15638,932.38222,233.54686Z"/><path class="cls-8" d="M912.07941,236.551c-10.85425,1.80034-32.46549,2.9392-36.33183,8.75113-1.59022,2.39046-1.812,9.48547,6.6252,10.10437a29.41236,29.41236,0,0,0,3.616.02252c9.00582-.44971,18.00772-.96487,27.00974-1.48367a46.3809,46.3809,0,0,1-.83787-6.97354C911.91064,242.5328,912.023,238.14329,912.07941,236.551Z"/><path class="cls-8" d="M1057.07369,219.87419c-.9087-5.08776-5.64073-8.96431-11.90068-11.02561a56.89844,56.89844,0,0,0-10.17388-2.21534,85.2491,85.2491,0,0,0-15.75253-.58583c-15.86865,1.34313-32.116,3.51849-47.65607,8.67328-8.0109,2.65725-17.6388,8.99957-21.94546,16.53574-2.16436,3.78741-4.31137,7.69405-6.36629,11.57469-1.67346,3.16-3.28978,6.306-4.83275,9.35925-3.999,7.9133-7.84844,15.94611-11.513,24.02912,2.71506-.16178,4.07259-.24255,6.78765-.40386,6.23752-.37055,9.35623-.55521,15.59376-.92332,2.23415-21.161,15.74483-46.84519,39.03919-49.4695,24.424-2.75157,37.65418,24.30987,39.2,44.92877,2.9781-.1699,4.46738-.25472,7.44548-.42407,8.38683-.477,12.58037-.71435,20.9672-1.1869.25339-9.23539.856-24.9902,8.73266-28.51108,9.0902-4.06341,23.12443-5.55257,34.74092-8.07442C1088.1336,232.62014,1059.476,233.324,1057.07369,219.87419Z"/><path class="cls-8" d="M932.38222,233.54686c-.55839-2.92207-2.37292-5.073-6.45217-5.38691-12.28962-.94578-13.82592,7.75268-13.82592,7.75268s-.01057.23754-.02472.63838c-.05644,1.59228-.16877,5.98179.08129,10.42081a46.3809,46.3809,0,0,0,.83787,6.97354c.04346.19859.08278.40789.12992.59688.96,3.85182,1.66414,3.18013,6.65669,3.36174,0,0,6.20408-.57148,8.30349-4.9259a6.60042,6.60042,0,0,0,.40181-1.03247c.4724-1.63068,1.57343-4.4085,2.51559-7.50983C932.111,240.79926,932.9889,236.72106,932.38222,233.54686Z"/><path class="cls-8" d="M1232.14388,613.39024c-22.895-1.12932-46.476-7.89165-69.07923-12.80895-38.34835-8.34269-76.6045-17.10963-114.90388-25.67291q-102.68106-22.95814-205.73945-44.16372c-1.8244,11.34763-6.56207,36.425,1.30729,41.5196,35.8115,23.18445,111.09745,31.24776,166.28845,47.673,55.03694,16.37941,110.79059,38.373,165.07749,50.76417,32.37008,7.38858,129.27268,35.27612,146.76949-9.81265q.289-33.5835.57736-67.167C1309.43267,622.54215,1256.09148,614.57146,1232.14388,613.39024Z"/><path class="cls-8" d="M1034.99913,360.30425c-41.10089-2.18664-82.69844-5.60768-123.919-5.18844q-2.753,84.12684-5.52266,168.25315Q1013.361,544.0367,1120.5138,567.83131q1.89453-82.97517,3.78241-165.95049.41284-18.15648.82592-36.31294Q1080.07431,362.7,1034.99913,360.30425Z"/><path class="cls-8" d="M1324.59519,342.835q-.16279,18.96661-.32536,37.93324c8.73772,9.76794,15.33567,21.80489,16.51844,34.98907,4.23837,47.24531,6.82237,99.8975-18.04267,142.5743-.08622,10.01-.129,15.0145-.21522,25.02246a120.15679,120.15679,0,0,0,33.38708-63.29241C1365.62618,467.36028,1376.60805,380.30325,1324.59519,342.835Z"/><path class="cls-8" d="M1228.37527,344.901q-28.67919-1.52972-57.36411-2.94156-67.99095-3.27827-136.012-5.815-91.209-3.3024-182.456-5.23926-5.01089,99.79635-10.07983,199.58975s-.01759.10223-.042.24977q103.09754,21.01293,205.73945,44.16372c38.29938,8.56328,76.55553,17.33022,114.90388,25.67291,22.60318,4.9173,46.18427,11.67966,69.07923,12.80895,23.9476,1.18122,77.28879,9.15191,90.29752-19.66842.03564-4.14694.05334-6.22046.089-10.36774.08623-10.008.129-15.01247.21522-25.02246q.76258-88.7817,1.52423-177.56337.16245-18.96663.32536-37.93324c.05449-6.36871.08186-9.55326.13635-15.9228C1297.55774,344.90474,1259.44346,344.65766,1228.37527,344.901Zm-104.07906,56.97983q-1.88764,82.97532-3.78241,165.95049Q1013.35524,544.04545,905.55746,523.369q2.76972-84.12632,5.52266-168.25315c41.22057-.41924,82.81812,3.0018,123.919,5.18844q45.0423,2.39635,90.123,5.26363Q1124.70928,383.72436,1124.29621,401.88082Z"/><path class="cls-8" d="M976.02434,331.38308c-43.01532-3.35127-86.65468-2.6022-129.78382-3.21693"/><path class="cls-8" d="M995.92971,332.2986c40.99811,1.229,81.97851,3.56038,122.96075,5.23315,49.23871,2.00976,103.74405,9.68086,151.734,1.38712,18.08222-3.125,48.03017-6.65249,60.90577-22.70086"/><path class="cls-8" d="M879.33213,271.08773q25.41746-1.93081,50.83594-3.84914"/><path class="cls-8" d="M1241.41182,369.50973q-.4425,117.27269-.88524,234.54534"/><path class="cls-8" d="M1321.4628,650.927c-21.3889,19.05323-45.59471,22.18493-73.74619,22.10523-32.46044-.09192-66.49064-11.15078-98.07319-19.53124-45.17509-11.98722-90.01217-25.24434-134.87041-38.355q-87.254-25.50156-174.65378-50.48414"/><path class="cls-8" d="M1319.47,635.61446c-17.60948,28.025-80.22458,15.77409-104.64033,12.3483-74.897-10.5088-149.58387-35.67-222.97459-55.4975q-76.282-20.60873-152.73224-40.57509"/><path class="cls-8" d="M1309.50418,332.8953q1.49687,133.90258,2.9896,267.80524"/><path class="cls-8" d="M1301.65539,225.87c-16.131,2.5047-32.34157,4.60946-48.58823,6.20123-16.36921,1.60376-42.03511,7.25837-57.37261-.90587"/><path class="cls-8" d="M882.91645,262.97143q25.89256-1.94442,51.78649-3.86891"/><path class="cls-8" d="M1203.857,236.90543c-.04392,9.51429-.06576,14.27116-.10968,23.78439"/><path class="cls-8" d="M1093.692,265.91578c-3.54535-10.84051-4.46232-26.13137,5.74789-33.76067"/><path class="cls-3" d="M1012.13524,292.32781a1.463,1.463,0,0,0-.34245-.53626C1012.03933,292.26227,1012.1724,292.477,1012.13524,292.32781Z"/><path class="cls-3" d="M1046.288,328.60293c.66932-.399,1.14124-.62706,1.28429-.57931.776.25874-13.96776-23.27987-13.96776-23.27987,4.39752-8.536-3.88-13.70922-5.6906-22.24522s-5.17313-12.67458-6.98408-11.89867c-1.81055.776,3.104,10.60529,2.8455,13.192s-3.36257-4.39732-3.36257-4.39732-2.70045-10.51408-4.139-10.86392c-2.776-.67521,1.02455,16.65862,1.02455,16.65862s-4.141-11.22456-4.38713-12.77858c-.41437-2.61953-2.06909-2.06939-2.06909-2.06939-2.56738,1.68508,2.04872,14.60961,2.04872,14.60961l-2.8455-4.91459s-3.85927-8.919-4.63528-5.815c-.66412,2.65639,4.91979,14.77633,6.3827,17.57028a1.463,1.463,0,0,1,.34245.53626c.03716.14915-.09591-.06554-.34245-.53626a15.9497,15.9497,0,0,0-3.27866-2.309c-4.91459-1.81066-2.06949,2.8453-.25854,6.72524,1.81056,3.88005,9.31171,8.79464,11.12226,10.60529,1.811,1.81066,10.08812,19.14129,11.3812,19.9173C1034.85488,325.37342,1041.25155,326.55512,1046.288,328.60293Z"/><path class="cls-3" d="M982.55139,260.55869a72.282,72.282,0,0,0,12.09128-1.43613c4.49222-1.198-1.797-3.29424-1.797-3.29424l2.69525-1.198c2.396-1.79687-3.89323-2.99475-3.89323-2.99475,4.79192-1.49737-3.59354-3.59374-3.59354-3.59374s5.09121.2995,0-2.69525c-3.14839-1.852-10.07053-.61148-14.89961.60479,2.25829,1.63253,4.19836,3.2742,5.19646,4.14641a3.913,3.913,0,0,1,1.07309,1.52734C980.0624,253.24882,981.44205,256.87024,982.55139,260.55869Z"/><path class="cls-3" d="M988.05418,274.99478c0-1.79687-3.59353-1.19788-3.89323-6.888a35.74733,35.74733,0,0,0-1.60956-7.54811c-1.49527-4.97163-3.48165-9.82148-3.48165-9.82148a53.54936,53.54936,0,0,1,.08112,7.86738c-.34245,5.1967-1.64752,11.31206-5.77092,12.79645-7.48716,2.69535-4.49222,10.48172-4.49222,10.48172s6.58849,14.07545-2.39595,17.66918l-1.30068.53556a30.70762,30.70762,0,0,1,5.50359,1.723l1.48729-4.05546s11.38-4.49223,12.87727-5.9896c1.49767-1.49737,1.198-14.07535,1.198-14.07535A3.32345,3.32345,0,0,0,988.05418,274.99478Z"/><path class="cls-3" d="M979.18542,252.41469a3.91061,3.91061,0,0,0-1.36566-2.77638c-1.07755-.92278-2.75787-2.30811-4.66519-3.68692-2.718-1.9652-5.89559-3.91711-8.45937-4.498-4.08544-.92546-6.53294,3.44749-7.78647,2.69535-2.99494-1.79687-7.18787,2.09627-19.16686,9.28374a15.84432,15.84432,0,0,0-6.97808,8.682c-2.47148,7.19856-.209,14.97673-.209,14.97673s.59859,2.09636-7.18787,7.78636c-7.78606,5.6901-7.18708,14.375-5.39051,12.87758,1.797-1.49748,6.28919-3.29425,6.28919-3.29425a40.397,40.397,0,0,0-3.89323,12.578c-1.198,7.78636,2.69525,8.68485,2.69525,8.68485-1.49727-2.99475,1.797-11.08071,1.797-9.88273,0,1.19788,2.396,6.888,6.88778,10.48162,4.49222,3.59373,21.26312.599,24.25767-2.09627,2.995-2.69535,9.58343,1.79687,13.177.2995,1.96879-.82026-.55743-4.60231-3.2431-7.85829-2.21734-2.68846-4.54336-5.01928-4.54336-5.01928l3.79053-1.56071,1.30068-.53556c8.98444-3.59373,2.39595-17.66918,2.39595-17.66918s-2.99494-7.78637,4.49222-10.48172c4.1234-1.48439,5.42847-7.59975,5.77092-12.79645A54.54266,54.54266,0,0,0,979.18542,252.41469Z"/><path class="cls-3" d="M1053.63973,333.69224c-.87112-1.74232-3.77056-3.6332-7.35171-5.08931-5.03647-2.04781-11.43314-3.22951-15.529-1.87259-7.00766,2.32183-.77841,12.053-.77841,12.053s-4.49421-5.82416-9.28333-8.98434c-2.91383-1.92234-6.314-.50279-7.78646-2.99475-3.89324-6.58848-6.28919-2.09636-9.28414-7.78636-2.99455-5.6901-25.156-9.28384-25.156-9.28384s-.59859-3.89313-6.28878-7.18737a15.206,15.206,0,0,0-1.48729-.73615,30.70762,30.70762,0,0,0-5.50359-1.723l-3.79053,1.56071s2.326,2.33082,4.54336,5.01928c2.68567,3.256,5.21189,7.038,3.2431,7.85829-3.59354,1.49737-10.182-2.99485-13.177-.2995-2.99455,2.69526-19.76545,5.69-24.25767,2.09627-4.49182-3.59364-6.88778-9.28374-6.88778-10.48162,0-1.198-3.29424,6.888-1.797,9.88273,0,0-3.89323-.89849-2.69525-8.68485a40.397,40.397,0,0,1,3.89323-12.578s-4.49222,1.79677-6.28919,3.29425c-1.79657,1.49737-2.39555-7.18748,5.39051-12.87758,7.78646-5.69,7.18787-7.78636,7.18787-7.78636s-2.26249-7.77817.209-14.97673l-4.10294-.38708a8.22519,8.22519,0,0,0-8.06246,4.39432c-5.39513,10.33212-16.48688,34.07628-9.30671,42.41453,9.28373,10.78121,7.18747,19.16657,7.18747,19.16657-2.26449,8.30273-1.31826,19.459-.30889,26.5765a45.5031,45.5031,0,0,1-1.37939,19.18624c-4.3112,14.72529-12.57038,33.17868-15.08222,40.48653-3.29425,9.58323,1.2679,14.18434,8.45538,20.17384a13.74643,13.74643,0,0,0,3.50362,1.88807c12.926,5.22348,50.92649,9.68263,76.08724,9.68263,1.83413,0,3.554-.05185,5.17592-.14455,23.27108-1.33035,25.37054-11.535,25.37054-11.535l-15.27323-71.27544s50.9109,6.58848,56.6011,4.19262C1065.319,364.5384,1055.736,337.885,1053.63973,333.69224Z"/><path class="cls-3" d="M997.692,537.95091c-.4867-21.65282-3.2335-67.81666-4.76115-92.3989-1.62194.0927-3.34179.14455-5.17592.14455-25.16075,0-63.16121-4.45915-76.08724-9.68263-3.25188,13.89833-8.28715,37.65521-7.58826,48.833,1.021,16.33974,6.46781,81.35806,4.42509,97.35735-1.65232,12.94451-10.43456,67.32847-13.728,87.62657-.7772,4.79022-1.24992,7.68827-1.24992,7.68827a15.5044,15.5044,0,0,0,1.04973,6.49527c-1.29668-4.68922-.11788-8.7267,6.439-10.23986,3.67586-.84823,9.1283-.77561,14.51281-.35274,9.00762.70738,17.82623,2.39526,17.82623,2.39526l2.04271,12.59516s.01039.37852.03517.9775a23.41786,23.41786,0,0,0,5.90038-4.54436,11.54375,11.54375,0,0,0,1.21277-1.53923s.21258.10139.57261.27042c-1.78138-4.94895-2.13342-9.38463.7892-11.16362,3.58435-2.18187,11.44873-1.57889,18.92391-.286a165.8904,165.8904,0,0,1,17.1597,4.03049,182.94457,182.94457,0,0,0,5.68141,21.22766,17.23049,17.23049,0,0,0,2.48827-.12217c12.93561-1.70207,12.59516-12.93561,12.93561-13.95677C1001.43654,682.28488,998.37287,568.24743,997.692,537.95091Z"/><path class="cls-3" d="M1009.86653,292.32781a1.46277,1.46277,0,0,0-.34245-.53626C1009.77063,292.26227,1009.9037,292.477,1009.86653,292.32781Z"/><path class="cls-3" d="M1044.01932,328.60293c.66932-.399,1.14124-.62706,1.28429-.57931.776.25874-13.96776-23.27987-13.96776-23.27987,4.39752-8.536-3.88-13.70922-5.6906-22.24522s-5.17313-12.67458-6.98408-11.89867c-1.81055.776,3.104,10.60529,2.8455,13.192s-3.36257-4.39732-3.36257-4.39732-2.70045-10.51408-4.139-10.86392c-2.776-.67521,1.02455,16.65862,1.02455,16.65862s-4.141-11.22456-4.38713-12.77858c-.41437-2.61953-2.06909-2.06939-2.06909-2.06939-2.56738,1.68508,2.04871,14.60961,2.04871,14.60961l-2.84549-4.91459s-3.85927-8.919-4.63528-5.815c-.66412,2.65639,4.91979,14.77633,6.38269,17.57028a1.46277,1.46277,0,0,1,.34245.53626c.03717.14915-.0959-.06554-.34245-.53626a15.94945,15.94945,0,0,0-3.27865-2.309c-4.91459-1.81066-2.06949,2.8453-.25854,6.72524,1.81055,3.88005,9.31171,8.79464,11.12226,10.60529,1.811,1.81066,10.08812,19.14129,11.3812,19.9173C1032.58617,325.37342,1038.98285,326.55512,1044.01932,328.60293Z"/><path class="cls-3" d="M980.28269,260.55869a72.282,72.282,0,0,0,12.09128-1.43613c4.49222-1.198-1.797-3.29424-1.797-3.29424l2.69525-1.198c2.396-1.79687-3.89323-2.99475-3.89323-2.99475,4.79192-1.49737-3.59354-3.59374-3.59354-3.59374s5.09121.2995,0-2.69525c-3.14839-1.852-10.07053-.61148-14.89961.60479,2.25828,1.63253,4.19836,3.2742,5.19646,4.14641a3.913,3.913,0,0,1,1.07309,1.52734C977.7937,253.24882,979.17335,256.87024,980.28269,260.55869Z"/><path class="cls-3" d="M985.78548,274.99478c0-1.79687-3.59353-1.19788-3.89323-6.888a35.74733,35.74733,0,0,0-1.60956-7.54811c-1.49527-4.97163-3.48165-9.82148-3.48165-9.82148a53.54936,53.54936,0,0,1,.08112,7.86738c-.34245,5.1967-1.64752,11.31206-5.77092,12.79645-7.48716,2.69535-4.49222,10.48172-4.49222,10.48172s6.58849,14.07545-2.396,17.66918l-1.30067.53556a30.70787,30.70787,0,0,1,5.50359,1.723l1.48728-4.05546s11.38-4.49223,12.87728-5.9896c1.49767-1.49737,1.198-14.07535,1.198-14.07535A3.32345,3.32345,0,0,0,985.78548,274.99478Z"/><path class="cls-6" d="M976.91672,252.41469a3.91061,3.91061,0,0,0-1.36566-2.77638c-1.07755-.92278-2.75787-2.30811-4.66519-3.68692-2.718-1.9652-5.89559-3.91711-8.45937-4.498-4.08544-.92546-6.53294,3.44749-7.78647,2.69535-2.99494-1.79687-7.18787,2.09627-19.16686,9.28374a15.84432,15.84432,0,0,0-6.97808,8.682c-2.47148,7.19856-.209,14.97673-.209,14.97673s.59859,2.09636-7.18787,7.78636c-7.78607,5.6901-7.18708,14.375-5.39051,12.87758,1.797-1.49748,6.28919-3.29425,6.28919-3.29425a40.397,40.397,0,0,0-3.89323,12.578c-1.198,7.78636,2.69525,8.68485,2.69525,8.68485-1.49727-2.99475,1.797-11.08071,1.797-9.88273,0,1.19788,2.396,6.888,6.88778,10.48162,4.49222,3.59373,21.26312.599,24.25767-2.09627,2.995-2.69535,9.58343,1.79687,13.177.2995,1.96879-.82026-.55743-4.60231-3.2431-7.85829-2.21734-2.68846-4.54337-5.01928-4.54337-5.01928l3.79054-1.56071,1.30067-.53556c8.98445-3.59373,2.396-17.66918,2.396-17.66918s-2.99494-7.78637,4.49222-10.48172c4.1234-1.48439,5.42847-7.59975,5.77092-12.79645A54.54266,54.54266,0,0,0,976.91672,252.41469Z"/><path class="cls-5" d="M1051.371,333.69224c-.87111-1.74232-3.77055-3.6332-7.3517-5.08931-5.03647-2.04781-11.43315-3.22951-15.529-1.87259-7.00766,2.32183-.77841,12.053-.77841,12.053s-4.49422-5.82416-9.28333-8.98434c-2.91383-1.92234-6.314-.50279-7.78647-2.99475-3.89323-6.58848-6.28918-2.09636-9.28413-7.78636-2.99455-5.6901-25.156-9.28384-25.156-9.28384s-.59859-3.89313-6.28879-7.18737a15.20579,15.20579,0,0,0-1.48728-.73615,30.70787,30.70787,0,0,0-5.50359-1.723l-3.79054,1.56071s2.326,2.33082,4.54337,5.01928c2.68567,3.256,5.21189,7.038,3.2431,7.85829-3.59354,1.49737-10.182-2.99485-13.177-.2995-2.99455,2.69526-19.76545,5.69-24.25767,2.09627-4.49182-3.59364-6.88778-9.28374-6.88778-10.48162,0-1.198-3.29424,6.888-1.797,9.88273,0,0-3.89323-.89849-2.69525-8.68485a40.397,40.397,0,0,1,3.89323-12.578s-4.49222,1.79677-6.28919,3.29425c-1.79657,1.49737-2.39556-7.18748,5.39051-12.87758,7.78646-5.69,7.18787-7.78636,7.18787-7.78636s-2.26249-7.77817.209-14.97673l-4.10294-.38708a8.22519,8.22519,0,0,0-8.06246,4.39432c-5.39513,10.33212-16.48688,34.07628-9.30671,42.41453,9.28373,10.78121,7.18747,19.16657,7.18747,19.16657-2.26449,8.30273-1.31826,19.459-.30889,26.5765a45.50326,45.50326,0,0,1-1.37939,19.18624c-4.31121,14.72529-12.57039,33.17868-15.08223,40.48653-3.29424,9.58323,1.26791,14.18434,8.45539,20.17384a13.74643,13.74643,0,0,0,3.50362,1.88807c12.926,5.22348,50.92649,9.68263,76.08724,9.68263,1.83413,0,3.554-.05185,5.17592-.14455,23.27108-1.33035,25.37054-11.535,25.37054-11.535l-15.27323-71.27544s50.9109,6.58848,56.6011,4.19262C1063.05032,364.5384,1053.46729,337.885,1051.371,333.69224Z"/><path class="cls-7" d="M995.42326,537.95091c-.48671-21.65282-3.23351-67.81666-4.76115-92.3989-1.62194.0927-3.34179.14455-5.17592.14455-25.16075,0-63.16121-4.45915-76.08724-9.68263-3.25188,13.89833-8.28715,37.65521-7.58826,48.833,1.021,16.33974,6.46781,81.35806,4.42509,97.35735-1.65232,12.94451-10.43456,67.32847-13.728,87.62657-.7772,4.79022-1.24992,7.68827-1.24992,7.68827a15.5042,15.5042,0,0,0,1.04973,6.49527c-1.29668-4.68922-.11788-8.7267,6.439-10.23986,3.67586-.84823,9.1283-.77561,14.51281-.35274,9.00762.70738,17.82623,2.39526,17.82623,2.39526l2.04271,12.59516s.01039.37852.03517.9775a23.41786,23.41786,0,0,0,5.90038-4.54436,11.54375,11.54375,0,0,0,1.21277-1.53923s.21258.10139.57261.27042c-1.78138-4.94895-2.13342-9.38463.7892-11.16362,3.58434-2.18187,11.44873-1.57889,18.92391-.286a165.8904,165.8904,0,0,1,17.1597,4.03049,182.94457,182.94457,0,0,0,5.68141,21.22766,17.23049,17.23049,0,0,0,2.48827-.12217c12.93561-1.70207,12.59516-12.93561,12.93561-13.95677C999.16784,682.28488,996.10416,568.24743,995.42326,537.95091Z"/><path class="cls-8" d="M1012.13524,292.32781a1.463,1.463,0,0,0-.34245-.53626C1012.03933,292.26227,1012.1724,292.477,1012.13524,292.32781Z"/><path class="cls-8" d="M1046.288,328.60293c.66932-.399,1.14124-.62706,1.28429-.57931.776.25874-13.96776-23.27987-13.96776-23.27987,4.39752-8.536-3.88-13.70922-5.6906-22.24522s-5.17313-12.67458-6.98408-11.89867c-1.81055.776,3.104,10.60529,2.8455,13.192s-3.36257-4.39732-3.36257-4.39732-2.70045-10.51408-4.139-10.86392c-2.776-.67521,1.02455,16.65862,1.02455,16.65862s-4.141-11.22456-4.38713-12.77858c-.41437-2.61953-2.06909-2.06939-2.06909-2.06939-2.56738,1.68508,2.04872,14.60961,2.04872,14.60961l-2.8455-4.91459s-3.85927-8.919-4.63528-5.815c-.66412,2.65639,4.91979,14.77633,6.3827,17.57028a1.463,1.463,0,0,1,.34245.53626c.03716.14915-.09591-.06554-.34245-.53626a15.9497,15.9497,0,0,0-3.27866-2.309c-4.91459-1.81066-2.06949,2.8453-.25854,6.72524,1.81056,3.88005,9.31171,8.79464,11.12226,10.60529,1.811,1.81066,10.08812,19.14129,11.3812,19.9173C1034.85488,325.37342,1041.25155,326.55512,1046.288,328.60293Z"/><path class="cls-8" d="M982.55139,260.55869a72.282,72.282,0,0,0,12.09128-1.43613c4.49222-1.198-1.797-3.29424-1.797-3.29424l2.69525-1.198c2.396-1.79687-3.89323-2.99475-3.89323-2.99475,4.79192-1.49737-3.59354-3.59374-3.59354-3.59374s5.09121.2995,0-2.69525c-3.14839-1.852-10.07053-.61148-14.89961.60479,2.25829,1.63253,4.19836,3.2742,5.19646,4.14641a3.913,3.913,0,0,1,1.07309,1.52734C980.0624,253.24882,981.44205,256.87024,982.55139,260.55869Z"/><path class="cls-8" d="M988.05418,274.99478c0-1.79687-3.59353-1.19788-3.89323-6.888a35.74733,35.74733,0,0,0-1.60956-7.54811c-1.49527-4.97163-3.48165-9.82148-3.48165-9.82148a53.54936,53.54936,0,0,1,.08112,7.86738c-.34245,5.1967-1.64752,11.31206-5.77092,12.79645-7.48716,2.69535-4.49222,10.48172-4.49222,10.48172s6.58849,14.07545-2.39595,17.66918l-1.30068.53556a30.70762,30.70762,0,0,1,5.50359,1.723l1.48729-4.05546s11.38-4.49223,12.87727-5.9896c1.49767-1.49737,1.198-14.07535,1.198-14.07535A3.32345,3.32345,0,0,0,988.05418,274.99478Z"/><path class="cls-8" d="M979.18542,252.41469a3.91061,3.91061,0,0,0-1.36566-2.77638c-1.07755-.92278-2.75787-2.30811-4.66519-3.68692-2.718-1.9652-5.89559-3.91711-8.45937-4.498-4.08544-.92546-6.53294,3.44749-7.78647,2.69535-2.99494-1.79687-7.18787,2.09627-19.16686,9.28374a15.84432,15.84432,0,0,0-6.97808,8.682c-2.47148,7.19856-.209,14.97673-.209,14.97673s.59859,2.09636-7.18787,7.78636c-7.78606,5.6901-7.18708,14.375-5.39051,12.87758,1.797-1.49748,6.28919-3.29425,6.28919-3.29425a40.397,40.397,0,0,0-3.89323,12.578c-1.198,7.78636,2.69525,8.68485,2.69525,8.68485-1.49727-2.99475,1.797-11.08071,1.797-9.88273,0,1.19788,2.396,6.888,6.88778,10.48162,4.49222,3.59373,21.26312.599,24.25767-2.09627,2.995-2.69535,9.58343,1.79687,13.177.2995,1.96879-.82026-.55743-4.60231-3.2431-7.85829-2.21734-2.68846-4.54336-5.01928-4.54336-5.01928l3.79053-1.56071,1.30068-.53556c8.98444-3.59373,2.39595-17.66918,2.39595-17.66918s-2.99494-7.78637,4.49222-10.48172c4.1234-1.48439,5.42847-7.59975,5.77092-12.79645A54.54266,54.54266,0,0,0,979.18542,252.41469Z"/><path class="cls-8" d="M1053.63973,333.69224c-.87112-1.74232-3.77056-3.6332-7.35171-5.08931-5.03647-2.04781-11.43314-3.22951-15.529-1.87259-7.00766,2.32183-.77841,12.053-.77841,12.053s-4.49421-5.82416-9.28333-8.98434c-2.91383-1.92234-6.314-.50279-7.78646-2.99475-3.89324-6.58848-6.28919-2.09636-9.28414-7.78636-2.99455-5.6901-25.156-9.28384-25.156-9.28384s-.59859-3.89313-6.28878-7.18737a15.206,15.206,0,0,0-1.48729-.73615,30.70762,30.70762,0,0,0-5.50359-1.723l-3.79053,1.56071s2.326,2.33082,4.54336,5.01928c2.68567,3.256,5.21189,7.038,3.2431,7.85829-3.59354,1.49737-10.182-2.99485-13.177-.2995-2.99455,2.69526-19.76545,5.69-24.25767,2.09627-4.49182-3.59364-6.88778-9.28374-6.88778-10.48162,0-1.198-3.29424,6.888-1.797,9.88273,0,0-3.89323-.89849-2.69525-8.68485a40.397,40.397,0,0,1,3.89323-12.578s-4.49222,1.79677-6.28919,3.29425c-1.79657,1.49737-2.39555-7.18748,5.39051-12.87758,7.78646-5.69,7.18787-7.78636,7.18787-7.78636s-2.26249-7.77817.209-14.97673l-4.10294-.38708a8.22519,8.22519,0,0,0-8.06246,4.39432c-5.39513,10.33212-16.48688,34.07628-9.30671,42.41453,9.28373,10.78121,7.18747,19.16657,7.18747,19.16657-2.26449,8.30273-1.31826,19.459-.30889,26.5765a45.5031,45.5031,0,0,1-1.37939,19.18624c-4.3112,14.72529-12.57038,33.17868-15.08222,40.48653-3.29425,9.58323,1.2679,14.18434,8.45538,20.17384a13.74643,13.74643,0,0,0,3.50362,1.88807c12.926,5.22348,50.92649,9.68263,76.08724,9.68263,1.83413,0,3.554-.05185,5.17592-.14455,23.27108-1.33035,25.37054-11.535,25.37054-11.535l-15.27323-71.27544s50.9109,6.58848,56.6011,4.19262C1065.319,364.5384,1055.736,337.885,1053.63973,333.69224Z"/><path class="cls-8" d="M997.692,537.95091c-.4867-21.65282-3.2335-67.81666-4.76115-92.3989-1.62194.0927-3.34179.14455-5.17592.14455-25.16075,0-63.16121-4.45915-76.08724-9.68263-3.25188,13.89833-8.28715,37.65521-7.58826,48.833,1.021,16.33974,6.46781,81.35806,4.42509,97.35735-1.65232,12.94451-10.43456,67.32847-13.728,87.62657-.7772,4.79022-1.24992,7.68827-1.24992,7.68827a15.5044,15.5044,0,0,0,1.04973,6.49527c-1.29668-4.68922-.11788-8.7267,6.439-10.23986,3.67586-.84823,9.1283-.77561,14.51281-.35274,9.00762.70738,17.82623,2.39526,17.82623,2.39526l2.04271,12.59516s.01039.37852.03517.9775a23.41786,23.41786,0,0,0,5.90038-4.54436,11.54375,11.54375,0,0,0,1.21277-1.53923s.21258.10139.57261.27042c-1.78138-4.94895-2.13342-9.38463.7892-11.16362,3.58435-2.18187,11.44873-1.57889,18.92391-.286a165.8904,165.8904,0,0,1,17.1597,4.03049,182.94457,182.94457,0,0,0,5.68141,21.22766,17.23049,17.23049,0,0,0,2.48827-.12217c12.93561-1.70207,12.59516-12.93561,12.93561-13.95677C1001.43654,682.28488,998.37287,568.24743,997.692,537.95091Z"/><line class="cls-8" x1="1012.13524" y1="292.32781" x2="1013.18739" y2="297.52543"/><path class="cls-8" d="M1029.98064,338.78335s13.31647,8.51529,13.931,13.43117"/><path class="cls-8" d="M917.32786,361.43178a35.9489,35.9489,0,0,0,7.37381,19.66349"/><path class="cls-8" d="M940.06377,678.50561s1.229-22.73591,5.53036-36.25456,5.9438-107.53473-4.50243-136.41549"/><line class="cls-8" x1="932.48892" y1="503.37762" x2="951.53793" y2="508.2935"/><path class="cls-8" d="M956.90873,244.14872s14.617,22.114,13.08914,29.31695c0,0,6.2016-18.624-5.30267-32.0123"/><path class="cls-8" d="M973.05368,273.90221s-2.18272-.65482-2.18272,3.9289,1.5279,5.67507,1.96444,6.9847"/><line class="cls-8" x1="988.05418" y1="248.04185" x2="980.08251" y2="247.74669"/><line class="cls-8" x1="991.64772" y1="251.63559" x2="982.85143" y2="251.30673"/><line class="cls-8" x1="992.8457" y1="255.82832" x2="984.03811" y2="255.85568"/></g></svg>