<svg id="Layer_1" data-name="Layer 1" xmlns="http://www.w3.org/2000/svg" xmlns:xlink="http://www.w3.org/1999/xlink" viewBox="0 0 1488.02462 573.43707"><defs><style>.cls-1,.cls-12,.cls-4,.cls-6,.cls-9{fill:none;}.cls-2{clip-path:url(#clip-path);}.cls-3{fill:#468fba;}.cls-4{stroke:#91bcd6;}.cls-12,.cls-4,.cls-6{stroke-miterlimit:10;}.cls-12,.cls-4,.cls-6,.cls-9{stroke-width:1.8px;}.cls-5{clip-path:url(#clip-path-2);}.cls-6{stroke:#fce9be;}.cls-11,.cls-7{fill:#1d5493;}.cls-8{fill:#b5d2e3;}.cls-11,.cls-12,.cls-9{stroke:#1d5493;}.cls-11,.cls-9{stroke-linejoin:round;}.cls-10{fill:#91bcd6;}.cls-11{stroke-width:1.87833px;}</style><clipPath id="clip-path"><rect class="cls-1" x="-2.01625" y="-0.71238" width="1492.05712" height="574.86184"/></clipPath><clipPath id="clip-path-2"><rect class="cls-1" x="-2.01625" y="-594.14945" width="1492.05712" height="574.86184"/></clipPath></defs><g class="cls-2"><rect class="cls-3" x="-2.01625" y="-0.71238" width="1492.05712" height="574.86184"/><circle class="cls-4" cx="983.06932" cy="573.21628" r="89.44841"/><path class="cls-4" d="M1281.404,135.04568l60.70147,12.328a3.0322,3.0322,0,0,1,2.363,3.595l-12.328,60.70143a3.03228,3.03228,0,0,1-3.595,2.363l-60.70147-12.328a3.03221,3.03221,0,0,1-2.363-3.595L1277.83812,137.44A3.02993,3.02993,0,0,1,1281.404,135.04568Z"/><path class="cls-4" d="M1401.66826,442.16794,1229.6501,550.42664a3.19236,3.19236,0,0,0-1.00954,4.41868,3.30563,3.30563,0,0,0,1.21233,1.12258l179.74125,94.85119a3.1927,3.1927,0,0,0,4.329-1.3255,3.02042,3.02042,0,0,0,.33824-1.63176l-7.6653-203.13391a3.22163,3.22163,0,0,0-3.31954-3.09332A3.12492,3.12492,0,0,0,1401.66826,442.16794Z"/><path class="cls-4" d="M1129.83935,308.88436,1041.5795,273.787a1.49186,1.49186,0,0,0-1.946.83649,1.54482,1.54482,0,0,0-.08966.7669l13.72529,93.97776a1.492,1.492,0,0,0,1.69312,1.26873,1.41151,1.41151,0,0,0,.7091-.322l74.55956-58.86519a1.50552,1.50552,0,0,0,.25288-2.10527A1.46033,1.46033,0,0,0,1129.83935,308.88436Z"/></g><g class="cls-5"><circle class="cls-6" cx="919.07633" cy="-57.59605" r="89.44841"/></g><polygon class="cls-7" points="1091.578 116.869 1091.578 127.16 1100.399 127.16 1256.716 127.16 1268.118 127.16 1268.118 116.869 1091.578 116.869"/><path class="cls-7" d="M1128.66489,330.501l-6.67942.20394-3.194,12.77613h6.62771C1126.7781,338.04384,1127.88327,333.62514,1128.66489,330.501Z"/><path class="cls-7" d="M1116.34829,353.25412,1071.78688,531.5s7.52066,3.95828,7.91656-1.58336c.30648-4.2912,30.28159-124.64619,43.79329-178.742l-2.23123,1.80635Z"/><polygon class="cls-7" points="1174.615 329.098 1174.506 331.568 1174.323 335.724 1170.348 425.814 1175.89 426.209 1178.438 335.421 1178.563 330.978 1178.619 328.976 1174.615 329.098"/><path class="cls-7" d="M1240.659,340.29239l.147.022,5.83385-.22438c-1.2328-4.78347-2.36676-9.18287-3.37359-13.08835l-6.05932.185Z"/><path class="cls-7" d="M1294.06343,515.16219c-.803-3.74765-31.2346-112.2429-44.56338-163.97326a44.54553,44.54553,0,0,1-5.64584,1.23383l46.25119,166.69771S1295.25114,520.70377,1294.06343,515.16219Z"/><polygon class="cls-8" points="1254.401 129.475 1098.084 129.475 1103.117 333.525 1119.67 333.02 1126.35 332.816 1172.3 331.413 1176.304 331.291 1234.892 329.502 1240.951 329.317 1258.678 328.775 1254.401 129.475"/><polygon class="cls-7" points="1125.419 343.481 1118.791 343.481 1114.14 343.481 1114.14 353.377 1116.348 353.254 1121.266 352.981 1123.497 351.175 1129.578 346.252 1174.323 335.724 1174.506 331.568 1127.599 343.481 1125.419 343.481"/><path class="cls-7" d="M1251.09742,339.91859l-4.45762.17146-5.83385.22438-.147-.022-62.09584-9.31439-.12484,4.44316,61.57612,8.85155,2.77082,8.3124s.42368-.05879,1.069-.16235a44.54553,44.54553,0,0,0,5.64584-1.23383c1.27611-.40036,2.262-.86664,2.38918-1.37464C1252.28488,348.231,1251.09742,339.91859,1251.09742,339.91859Z"/><polygon class="cls-9" points="1090.687 116.175 1090.687 126.466 1099.508 126.466 1255.825 126.466 1267.227 126.466 1267.227 116.175 1090.687 116.175"/><path class="cls-9" d="M1127.7737,329.807l-6.67942.20394-3.194,12.77614h6.62771C1125.88691,337.3499,1126.99208,332.93119,1127.7737,329.807Z"/><path class="cls-9" d="M1115.4571,352.56018l-44.56141,178.24588s7.52066,3.95828,7.91656-1.58336c.30649-4.2912,30.28159-124.64619,43.79329-178.742l-2.23123,1.80635Z"/><polygon class="cls-9" points="1173.724 328.404 1173.615 330.874 1173.432 335.03 1169.457 425.12 1174.999 425.515 1177.547 334.727 1177.672 330.284 1177.728 328.282 1173.724 328.404"/><path class="cls-9" d="M1239.76776,339.59845l.147.022,5.83386-.22439c-1.23281-4.78346-2.36677-9.18286-3.3736-13.08834l-6.05932.185Z"/><path class="cls-9" d="M1296.3152,522.61348c-.803-3.74765-34.37756-120.38813-47.70634-172.11849a44.54479,44.54479,0,0,1-5.64584,1.23383l49.39416,174.84294S1297.50291,528.15506,1296.3152,522.61348Z"/><polygon class="cls-9" points="1255.825 126.466 1099.508 126.466 1104.541 330.516 1121.094 330.011 1127.774 329.807 1173.724 328.404 1177.728 328.282 1236.316 326.493 1242.375 326.308 1260.102 325.766 1255.825 126.466"/><polygon class="cls-9" points="1124.528 342.787 1117.9 342.787 1113.249 342.787 1113.249 352.683 1115.457 352.56 1120.374 352.287 1122.606 350.481 1128.687 345.558 1173.432 335.03 1173.615 330.874 1126.708 342.787 1124.528 342.787"/><path class="cls-9" d="M1250.20624,339.22465l-4.45762.17145-5.83386.22439-.147-.022-62.09584-9.31439-.12484,4.44316,61.57613,8.85155,2.77082,8.3124s.42367-.05879,1.069-.16235a44.54479,44.54479,0,0,0,5.64584-1.23383c1.27612-.40036,2.26206-.86664,2.38919-1.37464C1251.39369,347.53705,1250.20624,339.22465,1250.20624,339.22465Z"/><path class="cls-7" d="M1113.95915,172.00238a.86588.86588,0,0,1-.001-.65332l7.80273-21.73535a1.2318,1.2318,0,0,1,.28223-.48828.81555.81555,0,0,1,.53418-.15234l4.71875-.10743a.91535.91535,0,0,1,.94531.66309l7.7998,21.37891a.80469.80469,0,0,1,.001.54394.38281.38281,0,0,1-.377.30469l-4.625.10547a.54567.54567,0,0,1-.59766-.42188L1128.8,166.936a.53121.53121,0,0,0-.10937-.2461.372.372,0,0,0-.29981-.08691l-7.67578.1748a.40466.40466,0,0,0-.4082.32129l-1.66113,4.6416a.63387.63387,0,0,1-.20508.29981.761.761,0,0,1-.45508.11914l-3.61719.083A.41485.41485,0,0,1,1113.95915,172.00238Zm13.13575-9.50683c.29394-.00684.38867-.18555.28222-.53614l-2.65137-7.21777c-.06347-.124-.13281-.18457-.20605-.18262s-.14063.07618-.20313.22266l-2.66406,7.30859q-.21826.5332.28321.52247Z"/><path class="cls-7" d="M1142.61736,171.44184a.53168.53168,0,0,1-.15821-.40039l-.03027-21.86817a.67222.67222,0,0,1,.17285-.4707.60714.60714,0,0,1,.45508-.19727l8.52539-.19433q4.62451-.10548,7.06543,1.3789a4.90024,4.90024,0,0,1,2.44336,4.46973,4.62232,4.62232,0,0,1-.92481,2.915,8.202,8.202,0,0,1-3.18945,2.21875.12574.12574,0,0,0-.09473.127.11748.11748,0,0,0,.09571.1211,7.60144,7.60144,0,0,1,3.58886,2.01855,4.929,4.929,0,0,1,1.10547,3.35059,5.31936,5.31936,0,0,1-2.415,4.7666q-2.42285,1.5952-7.23437,1.70605l-8.96484.2041A.5824.5824,0,0,1,1142.61736,171.44184Zm9.44921-13.62305a5.87912,5.87912,0,0,0,1.36915-.18652,3.04362,3.04362,0,0,0,1.917-1.47461,2.79387,2.79387,0,0,0-.791-3.46582,4.59075,4.59075,0,0,0-2.78515-.71387l-3.24122.07324c-.39843.00977-.59667.18945-.59667.542l.00683,4.75977q.00147.55958.44043.5498Zm-.20507,9.89648a4.83659,4.83659,0,0,0,3.06543-.90918,2.81585,2.81585,0,0,0,1.01953-2.26269,2.65549,2.65549,0,0,0-.50586-1.65332,2.99252,2.99252,0,0,0-1.37012-.97949,5.35117,5.35117,0,0,0-1.999-.29688l-3.52344.08008c-.39844.00977-.5957.19043-.5957.543l.00683,4.97656q.00147.59179.44043.58106Z"/><path class="cls-7" d="M1181.23259,147.83637a9.55433,9.55433,0,0,1,2.84863,1.38183,8.05185,8.05185,0,0,1,2.0625,2.12989,7.081,7.081,0,0,1,1.0586,2.68261,1.15671,1.15671,0,0,1,.04785.65235.43143.43143,0,0,1-.36231.19433l-4.24609.377c-.18945.00488-.31055-.02832-.3623-.10059a1.06529,1.06529,0,0,1-.14161-.35449,5.2056,5.2056,0,0,0-1.35644-2.62793,3.63376,3.63376,0,0,0-2.80078-.97852,4.387,4.387,0,0,0-3.69336,1.9668q-1.33595,1.91162-1.3291,6.11133.00585,4.16895,1.28222,6.02051a4.21083,4.21083,0,0,0,3.8252,1.79492,5.54067,5.54067,0,0,0,3.14453-.97363,6.59983,6.59983,0,0,0,2.166-3.12989c.083-.1875.31445-.25586.69238-.20215l3.083.583a.505.505,0,0,1,.2832.165q.126.1377.06445.60449a7.05072,7.05072,0,0,1-.6123,1.53907,10.83693,10.83693,0,0,1-1.208,1.8164,9.56032,9.56032,0,0,1-1.86914,1.73828,10.13834,10.13834,0,0,1-2.59375,1.31836,10.97154,10.97154,0,0,1-3.36426.55957,10.18747,10.18747,0,0,1-5.65039-1.39551,9.6556,9.6556,0,0,1-3.70215-4.14648,14.26669,14.26669,0,0,1-1.29785-6.25488,13.972,13.972,0,0,1,1.28125-6.23438,9.79818,9.79818,0,0,1,3.67481-4.1123,11.85735,11.85735,0,0,1,9.07519-1.125Z"/><path class="cls-7" d="M1196.173,147.2934q.95948-.022,2.0127-.0459,1.05468-.0249,1.998-.0459.94337-.022,1.47852-.002a15.57751,15.57751,0,0,1,6.98633,1.36426,8.93033,8.93033,0,0,1,4.04687,3.84277,12.55148,12.55148,0,0,1,1.31543,5.92676,13.37414,13.37414,0,0,1-1.36133,6.20605,9.5473,9.5473,0,0,1-4.14648,4.13867,15.49327,15.49327,0,0,1-6.96582,1.57422l-6.82617.15625c-.4834.01075-.72364-.23242-.72461-.72949l-.03028-21.68164a.68177.68177,0,0,1,.15723-.51758.81478.81478,0,0,1,.5332-.15136Q1195.21355,147.31538,1196.173,147.2934Zm3.29395,4.21777.01953,14.52637q.00146.43653.41015.42578l.59766-.01367a10.84,10.84,0,0,0,4.30859-.85938,5.32841,5.32841,0,0,0,2.5918-2.5332,10.23086,10.23086,0,0,0,.8584-4.56055,10.08656,10.08656,0,0,0-.8086-4.38281,4.87368,4.87368,0,0,0-2.457-2.38672,9.77369,9.77369,0,0,0-4.20019-.68164l-1.00586.02344C1199.57146,151.07367,1199.466,151.22113,1199.467,151.51117Z"/><path class="cls-7" d="M1221.22966,146.72113l15.85547-.36132c.31445-.00782.47266.166.47266.51855l-.02735,2.79883a.59508.59508,0,0,1-.66015.66894l-10.03614.22852c-.39746.00976-.59668.17969-.5957.51172l.00586,4.51074c.001.35254.1582.52539.47363.51758l6.66895-.15235c.35644-.00781.53418.1543.53515.48633l.00391,2.98633a.457.457,0,0,1-.10938.3125.52232.52232,0,0,1-.39355.13477l-6.73242.15332c-.29395.00683-.43945.13379-.43945.38281l.00683,4.88379c0,.26953.11621.40234.34766.39648l10.75879-.24511q.56542-.01318.56543.4541l.0039,2.95508a.58484.58484,0,0,1-.13965.40722.65275.65275,0,0,1-.48828.166l-15.85547.3623q-.6914.01611-.69238-.63769l-.03027-21.83692C1220.72771,146.93012,1220.89372,146.729,1221.22966,146.72113Z"/><path class="cls-7" d="M1125.10173,224.60688a9.65348,9.65348,0,0,1-3.81152.7832,7.12329,7.12329,0,0,1-5.05664-1.58887,5.55182,5.55182,0,0,1-1.84082-4.32031,6.05179,6.05179,0,0,1,1.36621-3.96,9.20679,9.20679,0,0,1,4.01367-2.6836,21.76091,21.76091,0,0,1,6.32422-1.21484l2.0957-.1582a1.34748,1.34748,0,0,0,.46094-.17285.49.49,0,0,0,.20605-.457l-.0039-.94824a3.61758,3.61758,0,0,0-1.10059-2.80664,4.22365,4.22365,0,0,0-3.02148-.96191,6.11153,6.11153,0,0,0-2.74414.68359,5.7281,5.7281,0,0,0-2.19043,2.11817.7707.7707,0,0,1-.27149.334.80258.80258,0,0,1-.52441.00879l-3.52344-.80957a.61238.61238,0,0,1-.31543-.24219c-.07129-.1084-.02246-.33008.14356-.66211a7.61605,7.61605,0,0,1,3.56933-3.60449,13.96057,13.96057,0,0,1,6.09278-1.29395,13.138,13.138,0,0,1,5.22167.78223,5.973,5.973,0,0,1,2.92286,2.36426,6.93665,6.93665,0,0,1,.9375,3.63476l.05957,14.51465a1.07942,1.07942,0,0,1-.14356.64258.70666.70666,0,0,1-.56543.19434l-3.5625.05761a.57367.57367,0,0,1-.54687-.28027,1.71388,1.71388,0,0,1-.21289-.69726l-.08887-1.23536c-.05859-.46582-.32227-.47558-.79492-.02832A12.09143,12.09143,0,0,1,1125.10173,224.60688Zm3.14356-10.42188-1.71778.15137a14.40552,14.40552,0,0,0-2.57617.43262,9.36976,9.36976,0,0,0-2.17676.86035,4.66526,4.66526,0,0,0-1.502,1.30273,2.956,2.956,0,0,0-.55957,1.80371,2.6685,2.6685,0,0,0,1.03711,2.21,4.28581,4.28581,0,0,0,2.78906.7793,5.8037,5.8037,0,0,0,2.09375-.40527,6.2247,6.2247,0,0,0,1.67285-.97559,5.981,5.981,0,0,0,1.14844-1.23437,2.29781,2.29781,0,0,0,.43359-1.30665l-.01171-2.92675C1128.87419,214.38129,1128.66521,214.15082,1128.24529,214.185Z"/><path class="cls-7" d="M1144.383,224.60492a.88792.88792,0,0,1-.6709-.17383.941.941,0,0,1-.1709-.63769l-.11914-29.07031q-.00292-.70167.625-.71094l4.2334-.06836c.3916-.00586.58789.22363.58985.69141l.04,9.77246c.001.30273.06543.46679.19043.49218q.189.0381.48145-.21386a8.554,8.554,0,0,1,1.44238-1.13672,9.61789,9.61789,0,0,1,2.02735-.96,8.49776,8.49776,0,0,1,2.68164-.43653,8.09043,8.09043,0,0,1,4.90918,1.34375,8.42745,8.42745,0,0,1,2.97168,3.91211,15.94625,15.94625,0,0,1,1.00781,5.81836,13.09482,13.09482,0,0,1-2.46,8.38965,8.633,8.633,0,0,1-7.04883,3.22754,8.02765,8.02765,0,0,1-2.957-.46777,7.66388,7.66388,0,0,1-2.24707-1.2627,12.33933,12.33933,0,0,1-1.51563-1.46c-.11132-.13476-.209-.19629-.293-.18066s-.14062.11914-.167.3125l-.41113,1.98632a.8625.8625,0,0,1-.87695.79688Zm4.5791-7.5791a4.07645,4.07645,0,0,0,.68067,2.31934,4.81319,4.81319,0,0,0,1.7666,1.58008,4.75667,4.75667,0,0,0,2.34863.55957,4.82878,4.82878,0,0,0,2.78516-.87012,5.40892,5.40892,0,0,0,1.85449-2.60742,13.21349,13.21349,0,0,0,.65039-4.6084q-.01611-3.958-1.32227-5.85449a4.25642,4.25642,0,0,0-3.82226-1.85547,5.83131,5.83131,0,0,0-2.8252.74609,7.15441,7.15441,0,0,0-2.15234,1.84863Z"/><path class="cls-7" d="M1187.21208,202.49066a8.92722,8.92722,0,0,1,3.04688,2.13672,10.10991,10.10991,0,0,1,1.835,2.79493c.16992.49218.03027.75683-.416.791l-3.68554.5127a.47661.47661,0,0,1-.58887-.36133,12.6283,12.6283,0,0,0-1.1377-1.59082,4.616,4.616,0,0,0-1.34668-1.0918,3.78582,3.78582,0,0,0-1.8457-.38183,5.09927,5.09927,0,0,0-2.95019.93457,5.69233,5.69233,0,0,0-1.96,2.64941,11.56592,11.56592,0,0,0-.67382,4.25879,10.94578,10.94578,0,0,0,.751,4.27734,5.70637,5.70637,0,0,0,2.04395,2.585,5.30584,5.30584,0,0,0,3.10351.83692,4.87573,4.87573,0,0,0,3.09864-1.01953,10.20445,10.20445,0,0,0,2.251-2.73731.57121.57121,0,0,1,.251-.21.81021.81021,0,0,1,.41895.03418l2.64355.6582q.42041.11719.25488.69727a11.537,11.537,0,0,1-1.18554,2.04,9.97171,9.97171,0,0,1-1.89942,1.98828,9.58077,9.58077,0,0,1-2.69726,1.4873,10.7711,10.7711,0,0,1-3.582.61426,11.03865,11.03865,0,0,1-5.66308-1.33105,9.96024,9.96024,0,0,1-3.89258-3.89551,11.83035,11.83035,0,0,1-1.42871-5.85352,12.20057,12.20057,0,0,1,1.40137-5.98144,10.53794,10.53794,0,0,1,3.87988-4.084,11.0444,11.0444,0,0,1,5.61035-1.53418A10.34332,10.34332,0,0,1,1187.21208,202.49066Z"/><path class="cls-7" d="M1215.27458,223.29633a.65153.65153,0,0,1-.2334-.57324l-.00488-1.36035c-.001-.19239-.05859-.30176-.16992-.32715-.11133-.02637-.23731.03125-.376.1709a18.01277,18.01277,0,0,1-1.46191,1.21875,8.167,8.167,0,0,1-2.02832,1.085,8.31812,8.31812,0,0,1-10.60156-4.34473,14.31216,14.31216,0,0,1-1.19825-6.167,14.05292,14.05292,0,0,1,1.21094-6.08106,10.02749,10.02749,0,0,1,3.35742-4.0957,8.42905,8.42905,0,0,1,4.77246-1.52051,7.8011,7.8011,0,0,1,3.165.52735,8.78956,8.78956,0,0,1,2.459,1.56738c.25293.16113.43457.2207.5459.17676.11132-.043.167-.21485.166-.51758l-.03906-9.52539q-.00293-.65919.584-.66895l4.23243-.06836q.62988-.01024.63183.69043l.11914,29.11231a.82142.82142,0,0,1-.18554.60058.99781.99781,0,0,1-.69043.19727l-3.6875.05957A.93587.93587,0,0,1,1215.27458,223.29633Zm-2.54687-17.918a4.9015,4.9015,0,0,0-2.45313-.55859,5.15729,5.15729,0,0,0-2.86914.8916,5.55352,5.55352,0,0,0-1.97949,2.63086,12.06134,12.06134,0,0,0-.69434,4.48535,11.70906,11.70906,0,0,0,.73145,4.46191,5.09981,5.09981,0,0,0,1.959,2.46387,5.04634,5.04634,0,0,0,2.791.7373,4.76376,4.76376,0,0,0,2.40625-.65625,5.08715,5.08715,0,0,0,1.69141-1.59472,3.44809,3.44809,0,0,0,.62109-1.90723l-.03906-9.31933A10.10627,10.10627,0,0,0,1212.72771,205.37836Z"/><line class="cls-9" x1="1104.06527" y1="184.44856" x2="1249.73012" y2="183.06785"/><line class="cls-9" x1="1104.06527" y1="246.96424" x2="1249.73012" y2="245.58353"/><path class="cls-3" d="M1301.31036,202.83643c-.34673-1.79685-.845-4.40934-1.39-7.35327a1.13281,1.13281,0,0,1-.41424.16362c-2.28932.35215-3.69791-1.76093-6.33931-1.40878-2.6414.35221-7.92421,2.99361-9.68514.52831-1.76119-2.46535-.88072-14.08753-4.05025-15.84846-3.16978-1.76094-4.22629,0-5.81118-1.40879-1.58489-1.40872.88046-1.76093-.70443-2.8175s-3.87395-2.28919-4.57837-4.93066c-.54265-2.03531-2.858-1.46139-4.05535-1.89436-.86136,3.6067-2.17161,9.59781-1.93188,11.75567.17426,1.56769-1.028,4.48551-.35234,8.27641.69067,3.87389,3.24723,8.65831,2.28932,13.73532-1.76094,9.333,8.981,8.10037,10.7419,7.74816,1.48961-.29788,3.609,7.09,4.22654,9.37362C1285.32489,211.68709,1294.46432,203.18992,1301.31036,202.83643Z"/><path class="cls-3" d="M1305.49334,161.13234c.176-2.99361-2.6414-5.10676-4.57863-4.57844-1.937.52825-1.46744-3.49563-4.05-5.81112-5.10676-4.57844-2.11328-.35221-9.68514-1.40879-7.57212-1.05657-5.63514,0-12.50283,2.11315s-5.2828,6.86769-5.2828,6.86769c-6.6914,2.6414-6.16327,7.04374-5.81093,8.80467a.96928.96928,0,0,0,.69907.747c1.1974.433,3.5127-.14095,4.05535,1.89436.70442,2.64147,2.99348,3.87408,4.57837,4.93066s-.88046,1.40878.70443,2.8175c1.58489,1.40879,2.6414-.35215,5.81118,1.40879,3.16953,1.76093,2.28906,13.38311,4.05025,15.84846,1.76093,2.4653,7.04374-.1761,9.68514-.52831,2.6414-.35215,4.05,1.76093,6.33931,1.40878a1.13281,1.13281,0,0,0,.41424-.16362c2.14614-1.31414,4.21738-9.84647,5.0446-12.163.88047-2.46529,4.22629-13.20707,4.22629-13.20707C1312.00869,165.71078,1305.317,164.12589,1305.49334,161.13234Z"/><path class="cls-3" d="M1244.32357,235.29352a3.86537,3.86537,0,0,0-2.2725.93359,3.69516,3.69516,0,0,0-1.16912,1.855c-.42749,1.61432-1.04963,3.93484-1.50387,6.18811-.66494,3.29857-.96684,6.45166.256,7.02227,7.63785,3.56441,17.44884,10.42325,24.36978,15.577,1.93137-8.87652,3.88567-17.40655,5.49884-24.29946C1264.08236,239.431,1254.35162,234.62241,1244.32357,235.29352Z"/><path class="cls-3" d="M1223.76023,231.25009c-.71181,1.09676-1.67176,2.68834-1.55941,3.13736.08051.32228.60328.68137,1.1467.97613a4.19444,4.19444,0,0,1,1.57317,1.59445,2.74458,2.74458,0,0,0,1.50642,1.12739c.92429.33617,1.72578-1.09427,2.31377-2.67955l-4.60308-3.83593S1223.99258,231.4546,1223.76023,231.25009Z"/><path class="cls-3" d="M1240.51458,226.46325c-.52838-2.6414-4.40233-2.81751-5.2828-4.93065s-4.75467-5.98717-7.9242-3.698c-3.16978,2.28925-3.69817,6.69159-3.69817,6.69159s-2.99348-2.28925-3.34557.70436c-.28737,2.44135,2.46893,5.11542,3.49639,6.01952.23235.20451.37757.31985.37757.31985l4.60308,3.83593,10.6372,8.86435c.45424-2.25327,1.07638-4.57379,1.50387-6.18811a3.69516,3.69516,0,0,1,1.16912-1.855C1241.54281,232.7681,1240.83482,228.06425,1240.51458,226.46325Z"/><path class="cls-3" d="M1274.67675,385.82845c.70442-.35221,2.11327.35215,2.11327.35215a4.382,4.382,0,0,0,4.40233-.176s4.05025,1.23261,6.69165-1.58489a9.80833,9.80833,0,0,0,3.874-.52826c1.76093-.70436-2.81745-3.52187-3.34583-8.45252-.39463-3.68332,3.3364-5.79519,3.3415-9.71067-4.0128-.2991-10.655-3.0682-15.31315-5.54986-.52176,3.35232-1.30439,8.353-3.17233,11.73866C1270.45046,377.02372,1273.97232,386.1806,1274.67675,385.82845Z"/><path class="cls-3" d="M1320.10919,261.50594c.35209-17.6094,0-27.11849-2.99374-36.80362-2.99348-9.6852-11.44607-15.84847-11.44607-15.84847.52813-1.76094-2.99374-5.98723-2.99374-5.98723a7.89967,7.89967,0,0,0-1.36528-.03019c-6.846.35349-15.98547,8.85066-22.05473,15.91929a56.64789,56.64789,0,0,0-5.98748,8.05974s-1.56527,6.35307-3.76542,15.75459c-1.61317,6.89291-3.56747,15.42294-5.49884,24.29946-3.58352,16.46907-7.085,34.11611-8.16929,44.64719-2.4651,23.94878,7.74842,40.14946,7.74842,40.14946l.05936-.00694,10.50624-1.22574s-2.8177,4.4024-2.99374,5.98723c-.06293.56551,2.16626,2.09588,5.2856,3.75765,4.65812,2.48166,11.30035,5.25076,15.31315,5.54986a5.89186,5.89186,0,0,0,2.11735-.15063c5.10675-1.58483,3.8742-14.26358,3.8742-14.26358l20.60308-2.11314s.19617-.87608.5322-2.34951c1.29548-5.68354,4.69863-20.39767,7.2157-29.34743C1329.266,306.2339,1319.75685,279.11541,1320.10919,261.50594Z"/><path class="cls-3" d="M1314.122,523.53407l-.00994.01013c.66545,3.20984,1.35994,6.6884,1.96679,9.98352,4.13075-1.61393,7.44065-3.31913,7.81363-4.43787.467-1.40127-1.17039-8.85269-2.69006-15.09526a24.05276,24.05276,0,0,1-6.84782.99626Z"/><path class="cls-3" d="M1284.76823,528.36842c-.92734-.14846-1.46286-.25591-1.46286-.25591l-.13451-3.80109c-6.58949,5.20344-15.40639,8.2561-16.50417,11.828-.89983,2.9289,4.158,3.79065,10.72738,3.75982l.05426-.02771C1281.56864,537.69013,1283.70383,532.39453,1284.76823,528.36842Z"/><path class="cls-3" d="M1316.07882,533.52772c-.60685-3.29512-1.30134-6.77368-1.96679-9.98352-6.869,7.74523-24.20316,5.647-29.3438,4.82422-1.0644,4.02611-3.19959,9.32171-7.3199,11.50307l-.05426.02771c-7.083,3.727-24.41181,8.274-24.41181,11.58332,0,3.31742.41475,6.22015,9.12312,5.80545a294.51234,294.51234,0,0,0,33.58869-3.31742c10.73706-1.83475,21.43336-5.1821,21.978-6.63483C1318.16177,546.03024,1317.30092,540.16154,1316.07882,533.52772Z"/><path class="cls-3" d="M1316.84286,446.569c0-11.611-4.56157-56.39625-4.14681-60.95768.35438-3.89956,11.30136-22.94921,6.18441-38.75991-.336,1.47343-.5322,2.34951-.5322,2.34951l-20.60308,2.11314s1.23255,12.67875-3.8742,14.26358a5.89186,5.89186,0,0,1-2.11735.15063c-.0051,3.91548-3.73613,6.02735-3.3415,9.71067.52838,4.93065,5.10676,7.74816,3.34583,8.45252a9.80833,9.80833,0,0,1-3.874.52826c-2.6414,2.8175-6.69165,1.58489-6.69165,1.58489a4.382,4.382,0,0,1-4.40233.176s-1.40885-.70436-2.11327-.35215c-.70443.35215-4.22629-8.80473-1.4086-13.91143,1.86794-3.38569,2.65057-8.38634,3.17233-11.73866-3.11934-1.66177-5.34853-3.19214-5.2856-3.75765.176-1.58483,2.99374-5.98723,2.99374-5.98723l-10.50624,1.22574c-.63309,7.20589-1.35968,21.97339,1.70157,34.34534,4.226,17.08108,16.37653,97.38,16.37653,97.38l1.45038,40.92681.13451,3.80109s.53552.10745,1.46286.25591c5.14064.82276,22.47484,2.921,29.3438-4.82422l.00994-.01013.2326-8.54322a24.05276,24.05276,0,0,0,6.84782-.99626,2.89372,2.89372,0,0,0,1.86055-1.49183C1324.94055,506.87016,1316.84286,458.17991,1316.84286,446.569Z"/><path class="cls-10" d="M1302.35388,204.04069c-.34674-1.79685-.84506-4.40934-1.39-7.35327a1.13285,1.13285,0,0,1-.41425.16362c-2.28931.35215-3.69791-1.76093-6.33931-1.40878-2.6414.35221-7.9242,2.99361-9.68513.52831-1.76119-2.46535-.88072-14.08753-4.05025-15.84846-3.16978-1.76094-4.22629,0-5.81119-1.40879-1.58489-1.40872.88047-1.76093-.70442-2.8175s-3.87395-2.28919-4.57838-4.93066c-.54265-2.03531-2.858-1.46139-4.05534-1.89436-.86136,3.6067-2.17162,9.59781-1.93188,11.75567.17426,1.56769-1.028,4.48551-.35234,8.27641.69067,3.87389,3.24723,8.65831,2.28931,13.73532-1.76093,9.333,8.981,8.10038,10.7419,7.74816,1.48961-.29788,3.609,7.09,4.22655,9.37362C1286.36841,212.89135,1295.50784,204.39418,1302.35388,204.04069Z"/><path class="cls-7" d="M1306.53686,162.3366c.176-2.99361-2.6414-5.10676-4.57863-4.57844-1.937.52825-1.46745-3.49563-4.05-5.81112-5.10676-4.57844-2.11327-.35221-9.68513-1.40878-7.57212-1.05658-5.63514,0-12.50284,2.11314s-5.2828,6.86769-5.2828,6.86769c-6.69139,2.6414-6.16327,7.04374-5.81093,8.80467a.96927.96927,0,0,0,.69908.747c1.19739.433,3.51269-.141,4.05534,1.89436.70443,2.64147,2.99349,3.87408,4.57838,4.93066s-.88047,1.40878.70442,2.8175c1.5849,1.40879,2.64141-.35215,5.81119,1.40879,3.16953,1.76093,2.28906,13.38311,4.05025,15.84846,1.76093,2.4653,7.04373-.1761,9.68513-.52831,2.6414-.35215,4.05,1.76093,6.33931,1.40878a1.13285,1.13285,0,0,0,.41425-.16362c2.14614-1.31414,4.21738-9.84647,5.0446-12.163.88046-2.46529,4.22629-13.20706,4.22629-13.20706C1313.05221,166.915,1306.36056,165.33015,1306.53686,162.3366Z"/><path class="cls-3" d="M1245.36709,236.49778a3.86543,3.86543,0,0,0-2.27251.93359,3.69521,3.69521,0,0,0-1.16911,1.855c-.4275,1.61432-1.04963,3.93484-1.50388,6.18811-.66493,3.29857-.96683,6.45166.256,7.02227,7.63785,3.56441,17.44884,10.42325,24.36978,15.577,1.93137-8.87652,3.88567-17.40655,5.49884-24.29946C1265.12587,240.63529,1255.39513,235.82667,1245.36709,236.49778Z"/><path class="cls-10" d="M1224.80375,232.45435c-.71181,1.09676-1.67176,2.68834-1.55941,3.13736.0805.32228.60328.68137,1.14669.97613a4.19444,4.19444,0,0,1,1.57317,1.59445,2.74461,2.74461,0,0,0,1.50643,1.12739c.92429.33617,1.72577-1.09427,2.31377-2.67955l-4.60309-3.83593S1225.0361,232.65886,1224.80375,232.45435Z"/><path class="cls-10" d="M1241.5581,227.66751c-.52838-2.6414-4.40234-2.81751-5.2828-4.93065s-4.75468-5.98717-7.9242-3.698c-3.16979,2.28926-3.69817,6.69159-3.69817,6.69159s-2.99348-2.28925-3.34557.70436c-.28737,2.44135,2.46893,5.11542,3.49639,6.01952.23235.20451.37756.31985.37756.31985l4.60309,3.83593,10.63719,8.86435c.45425-2.25327,1.07638-4.57379,1.50388-6.18811a3.69521,3.69521,0,0,1,1.16911-1.855C1242.58633,233.97236,1241.87834,229.26851,1241.5581,227.66751Z"/><path class="cls-10" d="M1275.72026,387.03271c.70443-.35221,2.11328.35215,2.11328.35215a4.382,4.382,0,0,0,4.40233-.176s4.05025,1.23261,6.69165-1.58489a9.80827,9.80827,0,0,0,3.874-.52826c1.76094-.70436-2.81744-3.52186-3.34582-8.45252-.39463-3.68332,3.3364-5.79519,3.34149-9.71067-4.0128-.2991-10.655-3.0682-15.31314-5.54986-.52176,3.35232-1.3044,8.353-3.17233,11.73867C1271.494,378.228,1275.01584,387.38486,1275.72026,387.03271Z"/><path class="cls-3" d="M1321.15271,262.71021c.35209-17.60941,0-27.1185-2.99374-36.80363-2.99348-9.6852-11.44607-15.84847-11.44607-15.84847.52813-1.76094-2.99374-5.98723-2.99374-5.98723a7.89971,7.89971,0,0,0-1.36528-.03019c-6.846.35349-15.98547,8.85066-22.05473,15.91929a56.64629,56.64629,0,0,0-5.98748,8.05974s-1.56527,6.35307-3.76542,15.75459c-1.61317,6.89291-3.56747,15.42294-5.49884,24.29946-3.58352,16.46907-7.085,34.11611-8.16929,44.6472-2.4651,23.94877,7.74841,40.14945,7.74841,40.14945l.05936-.00694,10.50625-1.22574s-2.8177,4.4024-2.99374,5.98723c-.06293.56551,2.16626,2.09588,5.2856,3.75765,4.65812,2.48166,11.30034,5.25076,15.31314,5.54986a5.89184,5.89184,0,0,0,2.11735-.15063c5.10676-1.58483,3.87421-14.26358,3.87421-14.26358l20.60308-2.11314s.19617-.87608.5322-2.34951c1.29548-5.68354,4.69863-20.39767,7.2157-29.34743C1330.30946,307.43816,1320.80037,280.31967,1321.15271,262.71021Z"/><path class="cls-7" d="M1315.16549,524.73833l-.00994.01013c.66544,3.20984,1.35993,6.6884,1.96678,9.98352,4.13076-1.61393,7.44066-3.31913,7.81364-4.43787.467-1.40127-1.17039-8.85269-2.69006-15.09525a24.053,24.053,0,0,1-6.84782.99625Z"/><path class="cls-7" d="M1285.81175,529.57268c-.92734-.14846-1.46286-.25591-1.46286-.25591l-.13452-3.80109c-6.58949,5.20344-15.40638,8.2561-16.50416,11.828-.89983,2.9289,4.158,3.79065,10.72737,3.75982l.05427-.02771C1282.61216,538.89439,1284.74734,533.59879,1285.81175,529.57268Z"/><path class="cls-7" d="M1317.12233,534.732c-.60685-3.29512-1.30134-6.77368-1.96678-9.98352-6.869,7.74523-24.20316,5.647-29.3438,4.82422-1.06441,4.02611-3.19959,9.32171-7.3199,11.50307l-.05427.02771c-7.083,3.727-24.41181,8.274-24.41181,11.58332,0,3.31742.41476,6.22015,9.12313,5.80545a294.51406,294.51406,0,0,0,33.58869-3.31741c10.73706-1.83476,21.43335-5.18211,21.978-6.63484C1319.20529,547.2345,1318.34444,541.3658,1317.12233,534.732Z"/><path class="cls-8" d="M1317.88637,447.77321c0-11.611-4.56156-56.39625-4.1468-60.95768.35437-3.89956,11.30136-22.94921,6.18441-38.75991-.336,1.47343-.5322,2.34951-.5322,2.34951l-20.60308,2.11314s1.23255,12.67875-3.87421,14.26358a5.89184,5.89184,0,0,1-2.11735.15063c-.00509,3.91548-3.73612,6.02735-3.34149,9.71067.52838,4.93066,5.10676,7.74816,3.34582,8.45252a9.80827,9.80827,0,0,1-3.874.52826c-2.6414,2.8175-6.69165,1.58489-6.69165,1.58489a4.382,4.382,0,0,1-4.40233.176s-1.40885-.70436-2.11328-.35215c-.70442.35215-4.22629-8.80473-1.40859-13.91142,1.86793-3.3857,2.65057-8.38635,3.17233-11.73867-3.11934-1.66177-5.34853-3.19214-5.2856-3.75765.176-1.58483,2.99374-5.98723,2.99374-5.98723l-10.50625,1.22574c-.63309,7.20589-1.35967,21.97339,1.70158,34.34534,4.226,17.08108,16.37653,97.38,16.37653,97.38l1.45037,40.92681.13452,3.80109s.53552.10745,1.46286.25591c5.14064.82276,22.47483,2.921,29.3438-4.82422l.00994-.01013.2326-8.54322a24.053,24.053,0,0,0,6.84782-.99625,2.89372,2.89372,0,0,0,1.86054-1.49184C1325.98407,508.07442,1317.88637,459.38417,1317.88637,447.77321Z"/><path class="cls-9" d="M1300.87623,202.23484c-.34674-1.79686-.84506-4.40934-1.39-7.35328a1.13288,1.13288,0,0,1-.41425.16363c-2.28931.35215-3.69791-1.76094-6.33931-1.40879-2.6414.35221-7.9242,2.99361-9.68513.52832-1.76119-2.46536-.88072-14.08753-4.05025-15.84847-3.16978-1.76093-4.22629,0-5.81119-1.40878-1.58489-1.40872.88047-1.76094-.70442-2.81751s-3.874-2.28919-4.57838-4.93065c-.54265-2.03532-2.85795-1.4614-4.05534-1.89437-.86136,3.60671-2.17162,9.59782-1.93188,11.75567.17426,1.5677-1.028,4.48552-.35234,8.27642.69067,3.87389,3.24723,8.6583,2.28931,13.73532-1.76093,9.333,8.981,8.10037,10.7419,7.74816,1.48961-.29789,3.609,7.09,4.22655,9.37362C1284.89076,211.08549,1294.03019,202.58832,1300.87623,202.23484Z"/><path class="cls-11" d="M1305.05921,160.53075c.176-2.99362-2.6414-5.10676-4.57863-4.57844-1.937.52825-1.46745-3.49563-4.05-5.81112-5.10676-4.57844-2.11327-.35222-9.68513-1.40879-7.57212-1.05657-5.63514,0-12.50284,2.11315s-5.2828,6.86769-5.2828,6.86769c-6.69139,2.6414-6.16327,7.04373-5.81093,8.80467a.96927.96927,0,0,0,.69908.747c1.19739.433,3.51269-.141,4.05534,1.89437.70443,2.64146,2.99349,3.87408,4.57838,4.93065s-.88047,1.40879.70442,2.81751c1.5849,1.40878,2.64141-.35215,5.81119,1.40878,3.16953,1.76094,2.28906,13.38311,4.05025,15.84847,1.76093,2.46529,7.04373-.17611,9.68513-.52832,2.6414-.35215,4.05,1.76094,6.33931,1.40879a1.13288,1.13288,0,0,0,.41425-.16363c2.14614-1.31414,4.21738-9.84646,5.0446-12.163.88046-2.4653,4.22629-13.20707,4.22629-13.20707C1311.57456,165.10919,1304.88291,163.52429,1305.05921,160.53075Z"/><path class="cls-9" d="M1243.88944,234.69193a3.86535,3.86535,0,0,0-2.27251.93358,3.69528,3.69528,0,0,0-1.16911,1.855c-.4275,1.61431-1.04963,3.93484-1.50388,6.18811-.66493,3.29856-.96683,6.45166.256,7.02227,7.63785,3.56441,17.44884,10.42325,24.36978,15.577,1.93137-8.87651,3.88567-17.40654,5.49884-24.29946C1263.64822,238.82943,1253.91748,234.02081,1243.88944,234.69193Z"/><path class="cls-9" d="M1223.3261,230.64849c-.71181,1.09676-1.67176,2.68834-1.55941,3.13737.0805.32227.60328.68136,1.14669.97613a4.19448,4.19448,0,0,1,1.57317,1.59444,2.74461,2.74461,0,0,0,1.50643,1.1274c.92429.33616,1.72577-1.09428,2.31377-2.67955l-4.60309-3.83593S1223.55845,230.853,1223.3261,230.64849Z"/><path class="cls-9" d="M1240.08045,225.86165c-.52838-2.6414-4.40234-2.8175-5.2828-4.93065s-4.75468-5.98716-7.9242-3.698c-3.16979,2.28925-3.69817,6.69158-3.69817,6.69158s-2.99348-2.28925-3.34557.70437c-.28737,2.44134,2.46893,5.11542,3.49639,6.01951.23235.20451.37756.31986.37756.31986l4.60309,3.83593,10.63719,8.86435c.45425-2.25327,1.07638-4.5738,1.50388-6.18811a3.69528,3.69528,0,0,1,1.16911-1.855C1241.10868,232.16651,1240.40069,227.46266,1240.08045,225.86165Z"/><path class="cls-9" d="M1274.24261,385.22686c.70443-.35221,2.11328.35215,2.11328.35215a4.38194,4.38194,0,0,0,4.40233-.176s4.05025,1.23262,6.69165-1.58489a9.80817,9.80817,0,0,0,3.874-.52825c1.76094-.70436-2.81744-3.52187-3.34582-8.45252-.39463-3.68333,3.3364-5.7952,3.34149-9.71068-4.0128-.29909-10.655-3.06819-15.31314-5.54986-.52176,3.35233-1.3044,8.353-3.17233,11.73867C1270.01632,376.42213,1273.53819,385.579,1274.24261,385.22686Z"/><path class="cls-9" d="M1319.67506,260.90435c.35209-17.6094,0-27.11849-2.99374-36.80363-2.99348-9.6852-11.44607-15.84847-11.44607-15.84847.52813-1.76093-2.99374-5.98722-2.99374-5.98722a7.89971,7.89971,0,0,0-1.36528-.03019c-6.846.35348-15.98547,8.85065-22.05473,15.91929a56.64572,56.64572,0,0,0-5.98748,8.05974s-1.56527,6.35306-3.76542,15.75458c-1.61317,6.89292-3.56747,15.42295-5.49884,24.29946-3.58352,16.46908-7.085,34.11612-8.16929,44.6472-2.4651,23.94878,7.74841,40.14946,7.74841,40.14946l.05936-.007,10.50625-1.22573s-2.8177,4.40239-2.99374,5.98722c-.06293.56552,2.16626,2.09589,5.2856,3.75765,4.65812,2.48167,11.30034,5.25077,15.31314,5.54986a5.89161,5.89161,0,0,0,2.11735-.15063c5.10676-1.58483,3.87421-14.26357,3.87421-14.26357l20.60308-2.11315s.19617-.87607.5322-2.3495c1.29548-5.68355,4.69863-20.39768,7.2157-29.34743C1328.83181,305.63231,1319.32272,278.51382,1319.67506,260.90435Z"/><path class="cls-11" d="M1313.68784,522.93247l-.00994.01013c.66544,3.20985,1.35993,6.6884,1.96678,9.98353,4.13076-1.61393,7.44066-3.31914,7.81364-4.43787.467-1.40127-1.17039-8.8527-2.69006-15.09526a24.05319,24.05319,0,0,1-6.84782.99626Z"/><path class="cls-11" d="M1284.3341,527.76683c-.92734-.14847-1.46286-.25592-1.46286-.25592l-.13452-3.80109c-6.58949,5.20345-15.40638,8.2561-16.50416,11.828-.89983,2.9289,4.158,3.79064,10.72737,3.75981l.05427-.0277C1281.13451,537.08854,1283.26969,531.79294,1284.3341,527.76683Z"/><path class="cls-11" d="M1315.64468,532.92613c-.60685-3.29513-1.30134-6.77368-1.96678-9.98353-6.869,7.74523-24.20316,5.647-29.3438,4.82423-1.06441,4.02611-3.19959,9.32171-7.3199,11.50307l-.05427.0277c-7.083,3.727-24.41181,8.274-24.41181,11.58333,0,3.31742.41476,6.22014,9.12313,5.80545a294.51471,294.51471,0,0,0,33.58869-3.31742c10.73706-1.83475,21.43335-5.18211,21.978-6.63484C1317.72764,545.42864,1316.86679,539.56,1315.64468,532.92613Z"/><path class="cls-9" d="M1316.40872,445.96735c0-11.611-4.56156-56.39624-4.1468-60.95768.35437-3.89956,11.30136-22.94921,6.18441-38.7599-.336,1.47343-.5322,2.3495-.5322,2.3495l-20.60308,2.11315s1.23255,12.67874-3.87421,14.26357a5.89161,5.89161,0,0,1-2.11735.15063c-.00509,3.91548-3.73612,6.02735-3.34149,9.71068.52838,4.93065,5.10676,7.74816,3.34582,8.45252a9.80817,9.80817,0,0,1-3.874.52825c-2.6414,2.81751-6.69165,1.58489-6.69165,1.58489a4.38194,4.38194,0,0,1-4.40233.176s-1.40885-.70436-2.11328-.35215c-.70442.35215-4.22629-8.80473-1.40859-13.91143,1.86793-3.3857,2.65057-8.38634,3.17233-11.73867-3.11934-1.66176-5.34853-3.19213-5.2856-3.75765.176-1.58483,2.99374-5.98722,2.99374-5.98722l-10.50625,1.22573c-.63309,7.2059-1.35967,21.9734,1.70158,34.34534,4.226,17.08109,16.37653,97.38006,16.37653,97.38006l1.45037,40.9268.13452,3.80109s.53552.10745,1.46286.25592c5.14064.82276,22.47483,2.921,29.3438-4.82423l.00994-.01013.2326-8.54321a24.05319,24.05319,0,0,0,6.84782-.99626,2.89369,2.89369,0,0,0,1.86054-1.49184C1324.50642,506.26857,1316.40872,457.57832,1316.40872,445.96735Z"/><path class="cls-12" d="M1270.01512,181.34379s2.51723-9.12,5.24113-1.85623c1.48221,3.95256.7963,8.4-.32757,10.26388a1.68217,1.68217,0,0,1-2.25269.8618"/><path class="cls-12" d="M1273.5092,181.99893s.43677,4.69518-.43676,6.44223"/><path class="cls-12" d="M1305.23525,208.25225c.0483-.48443-31.726,15.56653-32.70876,19.60657"/><path class="cls-12" d="M1223.17528,223.92461s1.42083,3.33236,3.40352,4.62111"/><path class="cls-12" d="M1220.23419,226.66216s-1.88355,1.09048-.79308,2.08183a1.091,1.091,0,0,0,1.78443-.09914"/><path class="cls-7" d="M1224.0013,225.67082s12.78836,2.08182,13.18489.49567-.09913-2.77577-4.85759-2.8749-8.72384-.49568-8.72384-.49568Z"/><path class="cls-9" d="M1273.71449,349.83189a173.64392,173.64392,0,0,0,7.78286-32.76348c2.08479-16.4467-4.16137-46.26435.46329-56.05775,3.93794-8.33916,6.71766-15.75176,6.71766-15.75176"/><path class="cls-12" d="M1280.33913,275.14092c0-.69493-2.77972-19.92135,1.15822-27.56558"/><path class="cls-9" d="M1310.91608,248.50191s.23165,35.90475,1.15822,44.93885-2.08479,32.89339-5.79109,42.62242c-1.40431,3.68632-8.97216,14.64924-8.97216,14.64924"/><path class="cls-9" d="M1313.92044,514.38926c.4703-3.66683,2.32344-43.74117-1.38285-62.041s-7.18095-50.96158-3.243-64.16527,3.01136-19.6897,3.01136-19.6897"/><path class="cls-9" d="M1287.44987,383.81807a4.75466,4.75466,0,0,1-3.67009-3.55911c-.968-3.22659-.64532-9.03445-.64532-9.03445"/><path class="cls-9" d="M1280.75822,385.403s-.689-8.20926-.689-10.79053"/><path class="cls-9" d="M1276.35589,385.579s-1.2879-7.41733-.80391-11.12791"/></svg>