<svg width="522" height="610" viewBox="0 0 522 610" fill="none" xmlns="http://www.w3.org/2000/svg">
<path d="M88 66L88 20" stroke="#989A9C" stroke-linejoin="round" stroke-dasharray="2 4"/>
<circle cx="88" cy="10" r="10" fill="#76767B"/>
<path d="M90.1549 13.088C90.2429 13.088 90.2869 13.128 90.2869 13.208V13.88C90.2869 13.904 90.2749 13.932 90.2509 13.964C90.2349 13.988 90.2029 14 90.1549 14H85.9429C85.8549 14 85.8109 13.96 85.8109 13.88V13.208C85.8109 13.128 85.8549 13.088 85.9429 13.088H87.4549C87.5189 13.088 87.5509 13.068 87.5509 13.028V6.428C87.5509 6.348 87.5149 6.316 87.4429 6.332L85.9549 6.884C85.8509 6.908 85.7989 6.86 85.7989 6.74V6.26C85.7989 6.204 85.8069 6.168 85.8229 6.152C85.8389 6.128 85.8709 6.104 85.9189 6.08L87.6949 5.192C87.7749 5.152 87.8389 5.128 87.8869 5.12C87.9349 5.104 87.9909 5.096 88.0549 5.096H88.5709C88.6589 5.096 88.7029 5.144 88.7029 5.24V13.004C88.7029 13.06 88.7269 13.088 88.7749 13.088H90.1549Z" fill="white"/>
<path d="M204 223L204 177" stroke="#989A9C" stroke-linejoin="round" stroke-dasharray="2 4"/>
<circle cx="204" cy="167" r="10" fill="#76767B"/>
<path d="M203.876 167.268C204.564 166.62 205.04 166.096 205.304 165.696C205.568 165.288 205.7 164.868 205.7 164.436C205.7 163.948 205.524 163.568 205.172 163.296C204.82 163.016 204.404 162.876 203.924 162.876C203.548 162.876 203.176 162.972 202.808 163.164C202.44 163.356 202.128 163.656 201.872 164.064C201.848 164.104 201.808 164.124 201.752 164.124C201.72 164.124 201.68 164.112 201.632 164.088L201.104 163.776C201.04 163.736 201.008 163.688 201.008 163.632C201.008 163.592 201.024 163.552 201.056 163.512C201.408 163 201.84 162.616 202.352 162.36C202.872 162.104 203.428 161.976 204.02 161.976C204.532 161.976 205 162.072 205.424 162.264C205.848 162.448 206.184 162.728 206.432 163.104C206.688 163.48 206.816 163.936 206.816 164.472C206.816 164.992 206.672 165.476 206.384 165.924C206.104 166.372 205.604 166.936 204.884 167.616L202.472 169.884C202.432 169.908 202.412 169.936 202.412 169.968C202.412 170.008 202.456 170.028 202.544 170.028L206.756 170.028C206.812 170.028 206.852 170.04 206.876 170.064C206.9 170.08 206.912 170.112 206.912 170.16L206.912 170.856C206.912 170.952 206.86 171 206.756 171L201.188 171C201.116 171 201.064 170.988 201.032 170.964C201.008 170.932 200.996 170.88 200.996 170.808L200.996 170.316C200.996 170.228 201.016 170.152 201.056 170.088C201.096 170.024 201.184 169.932 201.32 169.812L203.876 167.268Z" fill="white"/>
<path d="M320 380L320 334" stroke="#989A9C" stroke-linejoin="round" stroke-dasharray="2 4"/>
<circle cx="320" cy="324" r="10" fill="#76767B"/>
<path d="M317.08 320.344C317.024 320.288 317.024 320.228 317.08 320.164C317.328 319.892 317.596 319.668 317.884 319.492C318.18 319.316 318.492 319.188 318.82 319.108C319.148 319.02 319.492 318.976 319.852 318.976C320.476 318.976 321.008 319.076 321.448 319.276C321.896 319.468 322.24 319.736 322.48 320.08C322.728 320.416 322.852 320.8 322.852 321.232C322.852 321.664 322.716 322.056 322.444 322.408C322.18 322.752 321.808 323.008 321.328 323.176C321.24 323.208 321.196 323.236 321.196 323.26C321.196 323.284 321.24 323.312 321.328 323.344C321.656 323.432 321.956 323.58 322.228 323.788C322.508 323.988 322.728 324.236 322.888 324.532C323.048 324.828 323.128 325.164 323.128 325.54C323.128 326.036 323 326.48 322.744 326.872C322.488 327.264 322.104 327.572 321.592 327.796C321.088 328.012 320.456 328.12 319.696 328.12C319.296 328.12 318.916 328.076 318.556 327.988C318.196 327.892 317.86 327.748 317.548 327.556C317.244 327.364 316.96 327.128 316.696 326.848C316.664 326.808 316.652 326.772 316.66 326.74C316.668 326.708 316.692 326.676 316.732 326.644L317.248 326.236C317.304 326.196 317.344 326.18 317.368 326.188C317.392 326.196 317.416 326.212 317.44 326.236C317.68 326.484 317.92 326.68 318.16 326.824C318.4 326.968 318.652 327.076 318.916 327.148C319.18 327.212 319.468 327.244 319.78 327.244C320.484 327.244 321.028 327.088 321.412 326.776C321.796 326.464 321.988 326.064 321.988 325.576C321.988 325.192 321.88 324.868 321.664 324.604C321.448 324.34 321.168 324.14 320.824 324.004C320.48 323.868 320.116 323.8 319.732 323.8L318.664 323.788C318.568 323.788 318.52 323.748 318.52 323.668L318.52 323.044C318.52 322.972 318.568 322.932 318.664 322.924L319.528 322.912C319.944 322.912 320.316 322.84 320.644 322.696C320.98 322.552 321.244 322.36 321.436 322.12C321.628 321.872 321.724 321.592 321.724 321.28C321.724 321.008 321.644 320.764 321.484 320.548C321.324 320.332 321.104 320.16 320.824 320.032C320.544 319.904 320.224 319.84 319.864 319.84C319.448 319.84 319.064 319.92 318.712 320.08C318.36 320.24 318.028 320.468 317.716 320.764C317.684 320.804 317.652 320.824 317.62 320.824C317.588 320.824 317.548 320.804 317.5 320.764L317.08 320.344Z" fill="white"/>
<path d="M436 537L436 491" stroke="#989A9C" stroke-linejoin="round" stroke-dasharray="2 4"/>
<circle cx="436" cy="481" r="10" fill="#76767B"/>
<path d="M436.736 476.216C436.784 476.168 436.828 476.136 436.868 476.12C436.908 476.104 436.964 476.096 437.036 476.096L437.84 476.096C437.936 476.096 437.984 476.144 437.984 476.24L437.984 481.64C437.984 481.712 438.016 481.748 438.08 481.748L439.208 481.748C439.32 481.748 439.376 481.788 439.376 481.868L439.376 482.456C439.376 482.56 439.32 482.612 439.208 482.612L438.092 482.612C438.02 482.612 437.984 482.652 437.984 482.732L437.984 484.82C437.984 484.94 437.92 485 437.792 485L436.976 485C436.872 485 436.82 484.948 436.82 484.844L436.82 482.696C436.82 482.64 436.784 482.612 436.712 482.612L432.824 482.612C432.704 482.612 432.644 482.56 432.644 482.456L432.644 481.844C432.644 481.796 432.66 481.74 432.692 481.676C432.732 481.604 432.78 481.528 432.836 481.448L436.736 476.216ZM436.688 481.748C436.72 481.748 436.744 481.74 436.76 481.724C436.784 481.708 436.796 481.688 436.796 481.664L436.796 477.656C436.796 477.56 436.78 477.512 436.748 477.512C436.732 477.512 436.692 477.544 436.628 477.608L433.7 481.592C433.676 481.624 433.664 481.652 433.664 481.676C433.664 481.724 433.704 481.748 433.784 481.748L436.688 481.748Z" fill="white"/>
<rect y="39" width="522" height="100" fill="#468FBA"/>
<rect y="196" width="522" height="100" fill="#80B690"/>
<rect y="353" width="522" height="100" fill="#F4C55C"/>
<rect y="510" width="522" height="100" fill="#DF635C"/>
</svg>
