<svg width="494" height="574" viewBox="0 0 494 574" fill="none" xmlns="http://www.w3.org/2000/svg">
<rect y="37" width="494" height="94" fill="#468FBA"/>
<rect y="184" width="494" height="95" fill="#80B690"/>
<rect y="332" width="494" height="94" fill="#F4C55C"/>
<rect y="480" width="494" height="94" fill="#DF635C"/>
<circle cx="36" cy="10" r="9.5" fill="white" stroke="#76767B"/>
<path d="M38.2409 12.896C38.3529 12.896 38.4089 12.94 38.4089 13.028V13.844C38.4089 13.884 38.3929 13.92 38.3609 13.952C38.3369 13.984 38.2929 14 38.2289 14H33.8609C33.7489 14 33.6929 13.952 33.6929 13.856V13.028C33.6929 12.94 33.7449 12.896 33.8489 12.896H35.2769C35.3489 12.896 35.3849 12.872 35.3849 12.824V6.716C35.3849 6.62 35.3409 6.584 35.2529 6.608L33.8729 7.088C33.7449 7.12 33.6809 7.064 33.6809 6.92V6.344C33.6809 6.272 33.6889 6.228 33.7049 6.212C33.7289 6.188 33.7649 6.16 33.8129 6.128L35.6729 5.204C35.7609 5.164 35.8289 5.136 35.8769 5.12C35.9329 5.104 36.0009 5.096 36.0809 5.096H36.6809C36.7849 5.096 36.8369 5.152 36.8369 5.264V12.788C36.8369 12.86 36.8649 12.896 36.9209 12.896H38.2409Z" fill="#76767B"/>
<path d="M36 37L36 20" stroke="#76767B" stroke-linejoin="round"/>
<circle cx="36" cy="37" r="6.5" transform="rotate(90 36 37)" fill="white" stroke="#76767B"/>
<circle cx="459" cy="453" r="9.5" fill="white" stroke="#76767B"/>
<path d="M459.581 448.252C459.637 448.188 459.685 448.148 459.725 448.132C459.773 448.108 459.841 448.096 459.929 448.096H460.961C461.065 448.096 461.117 448.152 461.117 448.264V453.544C461.117 453.624 461.153 453.664 461.225 453.664H462.305C462.425 453.664 462.485 453.712 462.485 453.808V454.528C462.485 454.648 462.425 454.708 462.305 454.708H461.237C461.157 454.708 461.117 454.748 461.117 454.828V456.796C461.117 456.932 461.041 457 460.889 457H459.845C459.717 457 459.653 456.936 459.653 456.808V454.792C459.653 454.736 459.613 454.708 459.533 454.708H455.741C455.605 454.708 455.537 454.648 455.537 454.528V453.796C455.537 453.732 455.553 453.668 455.585 453.604C455.625 453.532 455.685 453.444 455.765 453.34L459.581 448.252ZM459.533 453.664C459.605 453.664 459.641 453.636 459.641 453.58V449.896C459.641 449.8 459.629 449.748 459.605 449.74C459.581 449.732 459.537 449.768 459.473 449.848L456.785 453.508C456.705 453.612 456.733 453.664 456.869 453.664H459.533Z" fill="#76767B"/>
<path d="M459 480L459 463" stroke="#76767B" stroke-linejoin="round"/>
<circle cx="459" cy="480" r="6.5" transform="rotate(90 459 480)" fill="white" stroke="#76767B"/>
<circle cx="318" cy="305" r="9.5" fill="white" stroke="#76767B"/>
<path d="M314.98 301.392C314.924 301.328 314.924 301.256 314.98 301.176C315.22 300.912 315.488 300.692 315.784 300.516C316.088 300.34 316.416 300.208 316.768 300.12C317.12 300.024 317.484 299.976 317.86 299.976C318.508 299.976 319.064 300.076 319.528 300.276C319.992 300.468 320.348 300.736 320.596 301.08C320.844 301.416 320.968 301.808 320.968 302.256C320.968 302.672 320.836 303.056 320.572 303.408C320.316 303.752 319.956 304.004 319.492 304.164C319.404 304.196 319.356 304.228 319.348 304.26C319.348 304.284 319.392 304.312 319.48 304.344C319.816 304.432 320.116 304.58 320.38 304.788C320.644 304.988 320.852 305.236 321.004 305.532C321.164 305.82 321.244 306.144 321.244 306.504C321.244 307.024 321.112 307.48 320.848 307.872C320.592 308.264 320.2 308.572 319.672 308.796C319.152 309.012 318.496 309.12 317.704 309.12C317.288 309.12 316.888 309.068 316.504 308.964C316.128 308.86 315.78 308.712 315.46 308.52C315.14 308.32 314.856 308.076 314.608 307.788C314.568 307.732 314.552 307.684 314.56 307.644C314.576 307.604 314.608 307.564 314.656 307.524L315.304 307.044C315.36 306.996 315.404 306.976 315.436 306.984C315.468 306.992 315.496 307.008 315.52 307.032C315.76 307.28 315.996 307.48 316.228 307.632C316.46 307.776 316.704 307.884 316.96 307.956C317.216 308.02 317.496 308.052 317.8 308.052C318.44 308.052 318.936 307.912 319.288 307.632C319.64 307.352 319.816 306.988 319.816 306.54C319.816 306.188 319.716 305.892 319.516 305.652C319.324 305.412 319.068 305.232 318.748 305.112C318.436 304.984 318.1 304.916 317.74 304.908L316.696 304.896C316.584 304.896 316.528 304.852 316.528 304.764V303.984C316.528 303.904 316.584 303.86 316.696 303.852L317.536 303.828C317.928 303.828 318.272 303.764 318.568 303.636C318.872 303.5 319.112 303.32 319.288 303.096C319.464 302.864 319.552 302.608 319.552 302.328C319.552 302.08 319.48 301.86 319.336 301.668C319.192 301.468 318.992 301.312 318.736 301.2C318.48 301.08 318.188 301.02 317.86 301.02C317.46 301.02 317.092 301.096 316.756 301.248C316.42 301.4 316.096 301.628 315.784 301.932C315.736 301.972 315.696 301.996 315.664 302.004C315.64 302.004 315.6 301.98 315.544 301.932L314.98 301.392Z" fill="#76767B"/>
<path d="M318 332L318 315" stroke="#76767B" stroke-linejoin="round"/>
<circle cx="318" cy="332" r="6.5" transform="rotate(90 318 332)" fill="white" stroke="#76767B"/>
<circle cx="177" cy="156" r="9.5" fill="white" stroke="#76767B"/>
<path d="M176.716 156.232C177.068 155.904 177.36 155.62 177.592 155.38C177.824 155.132 178.008 154.904 178.144 154.696C178.288 154.488 178.388 154.292 178.444 154.108C178.508 153.916 178.54 153.716 178.54 153.508C178.54 153.196 178.46 152.936 178.3 152.728C178.148 152.512 177.948 152.348 177.7 152.236C177.46 152.124 177.196 152.068 176.908 152.068C176.684 152.068 176.456 152.108 176.224 152.188C175.992 152.268 175.768 152.396 175.552 152.572C175.336 152.748 175.136 152.984 174.952 153.28C174.936 153.32 174.904 153.344 174.856 153.352C174.808 153.36 174.752 153.348 174.688 153.316L173.992 152.932C173.928 152.884 173.892 152.836 173.884 152.788C173.876 152.732 173.892 152.676 173.932 152.62C174.308 152.052 174.764 151.636 175.3 151.372C175.836 151.108 176.408 150.976 177.016 150.976C177.56 150.976 178.052 151.072 178.492 151.264C178.94 151.456 179.296 151.744 179.56 152.128C179.824 152.504 179.956 152.976 179.956 153.544C179.956 153.88 179.896 154.2 179.776 154.504C179.656 154.808 179.456 155.124 179.176 155.452C178.904 155.772 178.544 156.136 178.096 156.544L175.732 158.644C175.684 158.684 175.664 158.72 175.672 158.752C175.68 158.776 175.724 158.788 175.804 158.788H179.872C179.992 158.788 180.052 158.84 180.052 158.944V159.832C180.052 159.88 180.036 159.92 180.004 159.952C179.98 159.984 179.936 160 179.872 160H174.088C174 160 173.94 159.988 173.908 159.964C173.876 159.932 173.86 159.876 173.86 159.796V159.16C173.86 159.104 173.868 159.056 173.884 159.016C173.9 158.968 173.936 158.912 173.992 158.848C174.056 158.784 174.144 158.704 174.256 158.608L176.716 156.232Z" fill="#76767B"/>
<path d="M177 183L177 166" stroke="#76767B" stroke-linejoin="round"/>
<circle cx="177" cy="183" r="6.5" transform="rotate(90 177 183)" fill="white" stroke="#76767B"/>
</svg>
