<svg width="50" height="20" viewBox="0 0 50 20" fill="none" xmlns="http://www.w3.org/2000/svg">
<path d="M50 10L20 10" stroke="#989A9C" stroke-linejoin="round" stroke-dasharray="2 4"/>
<circle cx="10" cy="10" r="10" fill="#76767B"/>
<path d="M10.7355 5.228C10.7755 5.18 10.8155 5.148 10.8555 5.132C10.8955 5.108 10.9555 5.096 11.0355 5.096H11.8395C11.9355 5.096 11.9835 5.144 11.9835 5.24V10.64C11.9835 10.712 12.0155 10.748 12.0795 10.748H13.2075C13.3195 10.748 13.3755 10.788 13.3755 10.868V11.456C13.3755 11.56 13.3195 11.612 13.2075 11.612H12.0915C12.0195 11.612 11.9835 11.652 11.9835 11.732V13.82C11.9835 13.94 11.9195 14 11.7915 14H10.9755C10.8715 14 10.8195 13.948 10.8195 13.844V11.696C10.8195 11.64 10.7835 11.612 10.7115 11.612H6.82352C6.70352 11.612 6.64352 11.56 6.64352 11.456V10.844C6.64352 10.788 6.65952 10.732 6.69152 10.676C6.72352 10.612 6.77152 10.536 6.83552 10.448L10.7355 5.228ZM10.6875 10.748C10.7595 10.748 10.7955 10.72 10.7955 10.664V6.668C10.7955 6.572 10.7835 6.52 10.7595 6.512C10.7355 6.504 10.6915 6.54 10.6275 6.62L7.69952 10.592C7.61952 10.696 7.64752 10.748 7.78352 10.748H10.6875Z" fill="white"/>
</svg>
