<svg width="50" height="20" viewBox="0 0 50 20" fill="none" xmlns="http://www.w3.org/2000/svg">
<path d="M50 10L20 10" stroke="#989A9C" stroke-linejoin="round" stroke-dasharray="2 4"/>
<circle cx="10" cy="10" r="10" fill="#76767B"/>
<path d="M10.4612 4.988C10.7652 4.988 11.0372 5.02 11.2772 5.084C11.5172 5.148 11.7332 5.236 11.9252 5.348C12.1172 5.46 12.2852 5.584 12.4292 5.72C12.5812 5.856 12.7052 6 12.8012 6.152C12.8172 6.184 12.8252 6.22 12.8252 6.26C12.8332 6.292 12.8132 6.32 12.7652 6.344L12.0812 6.62C12.0412 6.644 12.0052 6.648 11.9732 6.632C11.9412 6.608 11.9172 6.58 11.9012 6.548C11.7252 6.34 11.5252 6.172 11.3012 6.044C11.0852 5.916 10.8092 5.852 10.4732 5.852C9.8972 5.852 9.4212 5.992 9.0452 6.272C8.6772 6.552 8.4052 6.936 8.2292 7.424C8.0532 7.904 7.9652 8.448 7.9652 9.056C7.9652 9.184 7.9772 9.268 8.0012 9.308C8.0252 9.348 8.0852 9.344 8.1812 9.296C8.4852 9.144 8.8132 9.004 9.1652 8.876C9.5172 8.748 9.9292 8.684 10.4012 8.684C11.0172 8.684 11.5412 8.8 11.9732 9.032C12.4132 9.256 12.7452 9.564 12.9692 9.956C13.2012 10.348 13.3172 10.792 13.3172 11.288C13.3172 11.848 13.1772 12.344 12.8972 12.776C12.6252 13.2 12.2532 13.528 11.7812 13.76C11.3172 13.992 10.7972 14.108 10.2212 14.108C9.5172 14.108 8.9092 13.936 8.3972 13.592C7.8932 13.24 7.5052 12.736 7.2332 12.08C6.9612 11.416 6.8252 10.616 6.8252 9.68C6.8252 8.704 6.9692 7.868 7.2572 7.172C7.5532 6.468 7.9732 5.928 8.5172 5.552C9.0612 5.176 9.7092 4.988 10.4612 4.988ZM10.2692 9.524C10.0612 9.524 9.8252 9.552 9.5612 9.608C9.3052 9.656 9.0612 9.72 8.8292 9.8C8.5972 9.88 8.3972 9.972 8.2292 10.076C8.1332 10.14 8.0692 10.208 8.0372 10.28C8.0052 10.344 7.9892 10.448 7.9892 10.592C7.9892 10.88 8.0332 11.18 8.1212 11.492C8.2172 11.796 8.3532 12.084 8.5292 12.356C8.7132 12.628 8.9452 12.848 9.2252 13.016C9.5052 13.184 9.8372 13.268 10.2212 13.268C10.5972 13.268 10.9292 13.184 11.2172 13.016C11.5132 12.848 11.7452 12.616 11.9132 12.32C12.0892 12.024 12.1772 11.696 12.1772 11.336C12.1772 11 12.1012 10.696 11.9492 10.424C11.7972 10.144 11.5772 9.924 11.2892 9.764C11.0012 9.604 10.6612 9.524 10.2692 9.524Z" fill="white"/>
</svg>
