<svg width="54" height="20" viewBox="0 0 54 20" fill="none" xmlns="http://www.w3.org/2000/svg">
<circle cx="10" cy="10" r="9.5" fill="white" stroke="#76767B"/>
<path d="M10.5812 5.252C10.6372 5.188 10.6852 5.148 10.7252 5.132C10.7732 5.108 10.8412 5.096 10.9292 5.096H11.9612C12.0652 5.096 12.1172 5.152 12.1172 5.264V10.544C12.1172 10.624 12.1532 10.664 12.2252 10.664H13.3052C13.4252 10.664 13.4852 10.712 13.4852 10.808V11.528C13.4852 11.648 13.4252 11.708 13.3052 11.708H12.2372C12.1572 11.708 12.1172 11.748 12.1172 11.828V13.796C12.1172 13.932 12.0412 14 11.8892 14H10.8452C10.7172 14 10.6532 13.936 10.6532 13.808V11.792C10.6532 11.736 10.6132 11.708 10.5332 11.708H6.7412C6.6052 11.708 6.5372 11.648 6.5372 11.528V10.796C6.5372 10.732 6.5532 10.668 6.5852 10.604C6.6252 10.532 6.6852 10.444 6.7652 10.34L10.5812 5.252ZM10.5332 10.664C10.6052 10.664 10.6412 10.636 10.6412 10.58V6.896C10.6412 6.8 10.6292 6.748 10.6052 6.74C10.5812 6.732 10.5372 6.768 10.4732 6.848L7.7852 10.508C7.7052 10.612 7.7332 10.664 7.8692 10.664H10.5332Z" fill="#76767B"/>
<path d="M52 10L19 10" stroke="#76767B" stroke-linejoin="round"/>
<circle cx="48.5" cy="10" r="5" fill="white" stroke="#76767B"/>
</svg>
