<svg id="Layer_1" data-name="Layer 1" xmlns="http://www.w3.org/2000/svg" viewBox="0 0 198.4252 198.4252"><defs><style>.cls-1{fill:#468fba;}.cls-2{fill:none;stroke:#000;stroke-miterlimit:10;stroke-width:1.5px;}</style></defs><path class="cls-1" d="M188.31233,100.53l-.04084-.10934a31.95491,31.95491,0,0,0-8.56556-12.58625L162.44724,72.3049A32.01523,32.01523,0,0,0,142.937,62.21752l-8.85362-9.71226A18.75917,18.75917,0,0,0,105.42927,76.493l3.27021,6.51643a31.46717,31.46717,0,0,0-1.7801,7.68494,32.8964,32.8964,0,0,0-.14675,3.59761A11.36931,11.36931,0,0,0,92.707,96.77218a32.65668,32.65668,0,0,0-.03266-6.0778,31.46425,31.46425,0,0,0-1.7801-7.685l3.2702-6.51637a18.75953,18.75953,0,0,0-28.6542-23.98775l-8.85362,9.71226A32.015,32.015,0,0,0,37.1465,72.3049L19.8878,87.83438a31.9544,31.9544,0,0,0-8.56561,12.58625l-.04078.10934a37.04916,37.04916,0,0,0,67.68491,29.82858l5.41981-11.67365a17.40732,17.40732,0,0,0,33.03627,4.77055l3.205,6.9031a37.05016,37.05016,0,0,0,67.685-29.82858ZM45.03051,143.29337a28.72624,28.72624,0,1,1,28.7262-28.7262A28.72627,28.72627,0,0,1,45.03051,143.29337Zm109.53272,0a28.72624,28.72624,0,1,1,28.7262-28.7262A28.72622,28.72622,0,0,1,154.56323,143.29337Z"/><path class="cls-2" d="M62.44978,63.00448A32.21122,32.21122,0,0,1,89.72573,83.944l3.2702-6.51637a18.75956,18.75956,0,0,0-28.6542-23.98781L55.488,63.1521A32.614,32.614,0,0,1,62.44978,63.00448Z"/><path class="cls-2" d="M134.80683,63.00448a32.614,32.614,0,0,1,6.96174.14762l-8.85369-9.71232a18.75921,18.75921,0,0,0-28.6542,23.98781l3.27021,6.51637A32.21119,32.21119,0,0,1,134.80683,63.00448Z"/><path class="cls-2" d="M112.48022,116.26185c-.81793-1.76162-1.714-3.48446-2.61283-5.20612q-.34124-.65372-.68011-1.30856a31.961,31.961,0,0,1-3.58325-14.5206,11.36925,11.36925,0,0,0-14.0656,2.48026,32.34928,32.34928,0,0,1-2.52734,10.06334q-.439,1.0062-.94176,1.977c-1.12354,2.159-2.268,4.30713-3.29294,6.51468l-1.55879,3.3575A17.40734,17.40734,0,0,0,116.25393,124.39Z"/><path class="cls-2" d="M89.72576,83.94394A32.21122,32.21122,0,0,0,62.44981,63.00446a32.614,32.614,0,0,0-6.96174.14762A32.01457,32.01457,0,0,0,35.97793,73.23946L18.7193,88.76894a31.95475,31.95475,0,0,0-8.56562,12.58619l-.04077.1094a37.04916,37.04916,0,0,0,67.68491,29.82858l5.41981-11.67378,1.55879-3.3575c1.02494-2.20755,2.1694-4.35566,3.29294-6.51469q.50431-.9691.94176-1.977a32.34913,32.34913,0,0,0,2.52734-10.06333,32.65819,32.65819,0,0,0-.0326-6.07787A31.46425,31.46425,0,0,0,89.72576,83.94394Zm-45.86382,60.284a28.72624,28.72624,0,1,1,28.72627-28.72627A28.72623,28.72623,0,0,1,43.86194,144.22793Z"/><path class="cls-2" d="M187.14377,101.46453l-.04078-.1094a31.95513,31.95513,0,0,0-8.56556-12.58619L161.27874,73.23946A32.01457,32.01457,0,0,0,141.7686,63.15208a32.614,32.614,0,0,0-6.96174-.14762,32.21119,32.21119,0,0,0-27.27594,20.93948,31.4638,31.4638,0,0,0-1.78011,7.685,32.8989,32.8989,0,0,0-.14675,3.59761,31.961,31.961,0,0,0,3.58325,14.52059q.3404.65419.68011,1.30857c.89879,1.72166,1.7949,3.4445,2.61283,5.20612L116.254,124.39l3.20489,6.9031a37.05013,37.05013,0,0,0,67.68492-29.82858Zm-33.749,42.7634a28.72624,28.72624,0,1,1,28.7262-28.72627A28.72628,28.72628,0,0,1,153.39473,144.22793Z"/></svg>