<svg id="Layer_1" data-name="Layer 1" xmlns="http://www.w3.org/2000/svg" viewBox="0 0 198.4252 198.4252"><defs><style>.cls-1{fill:none;stroke:#000;stroke-miterlimit:10;stroke-width:1.5px;}.cls-2{fill:#fff;}.cls-3{fill:#468fba;}</style></defs><path class="cls-1" d="M64.53273,34.47733Q61.96134,106.21666,59.39,177.956q36.89736-9.892,73.83838-19.61786Q130.946,88.76659,128.66365,19.195,96.57478,26.73944,64.53273,34.47733Z"/><path class="cls-1" d="M16.19423,22.08353Q9.925,95.47453,3.65535,168.86547,31.50249,173.54139,59.39,177.956q2.5714-71.73936,5.1427-143.47869Q40.3142,28.47562,16.19423,22.08353Z"/><path class="cls-1" d="M182.35762,37.58482Q155.4152,28.654,128.66365,19.195q2.28242,69.57159,4.56476,139.14318,30.774,7.67546,61.668,14.8283Q188.62731,105.37561,182.35762,37.58482Z"/><path class="cls-1" d="M33.71963,146.01509s29.26516-43.54086,74.94738-37.83058,52.10627-44.96843,52.10627-44.96843"/><line class="cls-1" x1="155.11698" y1="48.54442" x2="167.52033" y2="61.23622"/><line class="cls-1" x1="166.07808" y1="46.81371" x2="154.54008" y2="64.40917"/><circle class="cls-2" cx="148.49756" cy="133.42524" r="25.58462" transform="translate(-15.47614 247.29554) rotate(-76.71749)"/><circle class="cls-2" cx="51.77786" cy="132.41423" r="25.58462" transform="translate(-88.99027 152.38445) rotate(-76.71749)"/><path class="cls-3" d="M179.59647,120.09089l-.03638-.09739a28.46021,28.46021,0,0,0-7.62879-11.20977L156.56008,94.95261a28.514,28.514,0,0,0-17.3765-8.98419l-7.88536-8.65009a16.7076,16.7076,0,0,0-25.52043,21.36436l2.91257,5.80378a28.02547,28.02547,0,0,0-1.58543,6.84448,29.30071,29.30071,0,0,0-.1307,3.20417,10.12589,10.12589,0,0,0-12.52734,2.20895,29.08591,29.08591,0,0,0-.02909-5.41312,28.02309,28.02309,0,0,0-1.58542-6.84454l2.91256-5.80372A16.70793,16.70793,0,0,0,70.22446,77.31833L62.3391,85.96842a28.51377,28.51377,0,0,0-17.37644,8.98419L29.59144,108.78373a28.45985,28.45985,0,0,0-7.62886,11.20977l-.03631.09739a32.99734,32.99734,0,0,0,60.28265,26.56642l4.82708-10.397a15.50359,15.50359,0,0,0,29.42331,4.24882l2.85445,6.14816a32.99823,32.99823,0,0,0,60.28271-26.56642Zm-127.612,38.08664a25.58464,25.58464,0,1,1,25.5846-25.5846A25.58467,25.58467,0,0,1,51.98445,158.17753Zm97.55384,0a25.58464,25.58464,0,1,1,25.5846-25.5846A25.58461,25.58461,0,0,1,149.53829,158.17753Z"/><path class="cls-1" d="M67.49869,86.66932a28.68848,28.68848,0,0,1,24.293,18.64946l2.91256-5.80371A16.708,16.708,0,0,0,69.18372,78.15064L61.29831,86.8008A29.04628,29.04628,0,0,1,67.49869,86.66932Z"/><path class="cls-1" d="M131.94252,86.66932a29.04629,29.04629,0,0,1,6.20038.13148l-7.88542-8.65016A16.70764,16.70764,0,0,0,104.737,99.51507l2.91257,5.80371A28.68847,28.68847,0,0,1,131.94252,86.66932Z"/><path class="cls-1" d="M112.05762,134.10227c-.72847-1.569-1.52658-3.10338-2.32708-4.63675q-.30392-.58222-.60573-1.16546a28.46583,28.46583,0,0,1-3.19137-12.93257,10.12585,10.12585,0,0,0-12.52734,2.209,28.8118,28.8118,0,0,1-2.25094,8.96277q-.391.89616-.83877,1.76079c-1.00066,1.92291-2.02,3.83609-2.93281,5.80221l-1.38832,2.99032a15.50362,15.50362,0,0,0,29.42337,4.24894Z"/><path class="cls-1" d="M91.79167,105.31877a28.68849,28.68849,0,0,0-24.293-18.64947,29.04618,29.04618,0,0,0-6.20037.13148A28.51331,28.51331,0,0,0,43.92189,95.785L28.55073,109.61609a28.45993,28.45993,0,0,0-7.62886,11.20971l-.03631.09744a32.99734,32.99734,0,0,0,60.28265,26.56642l4.82708-10.39709,1.38832-2.99032c.91284-1.96612,1.93214-3.8793,2.93281-5.80221q.44916-.86313.83876-1.76079a28.81106,28.81106,0,0,0,2.25094-8.96277,29.0856,29.0856,0,0,0-.029-5.41318A28.02291,28.02291,0,0,0,91.79167,105.31877Zm-40.848,53.69112a25.58464,25.58464,0,1,1,25.58466-25.58466A25.58463,25.58463,0,0,1,50.94368,159.00989Z"/><path class="cls-1" d="M178.5557,120.92324l-.03632-.09744a28.46029,28.46029,0,0,0-7.62879-11.20971L155.51937,95.785a28.51333,28.51333,0,0,0-17.37645-8.98419,29.04628,29.04628,0,0,0-6.20038-.13148,28.68847,28.68847,0,0,0-24.293,18.64947,28.02291,28.02291,0,0,0-1.58542,6.84453,29.29592,29.29592,0,0,0-.1307,3.20417A28.46545,28.46545,0,0,0,109.12484,128.3q.30316.58264.60573,1.16546c.8005,1.53337,1.5986,3.06779,2.32708,4.63675l3.361,7.23926,2.85438,6.14815a32.99819,32.99819,0,0,0,60.28266-26.56642Zm-30.05812,38.08665a25.58464,25.58464,0,1,1,25.5846-25.58466A25.58468,25.58468,0,0,1,148.49758,159.00989Z"/></svg>