<svg id="Layer_1" data-name="Layer 1" xmlns="http://www.w3.org/2000/svg" viewBox="0 0 198.4252 198.4252"><defs><style>.cls-1{fill:#468fba;}.cls-2{fill:none;stroke:#1d1d1b;stroke-miterlimit:10;stroke-width:1.5px;}</style></defs><circle class="cls-1" cx="84.31722" cy="104.49481" r="9.05731"/><circle class="cls-1" cx="105.66042" cy="90.02902" r="5.34707"/><circle class="cls-1" cx="96.15313" cy="62.69303" r="8.61212"/><path class="cls-1" d="M164.20469,166.09438l-21.61512-36.22916a105.91877,105.91877,0,0,0-14.84907-.80354,15.236,15.236,0,1,0-26.2019,3.24061,127.552,127.552,0,0,1-47.50777.0092L33.83754,165.83137c-3.42029,5.67749.82416,12.79184,7.6403,12.80569l57.51553.116,57.51546.116C163.32478,178.88267,167.60022,171.78559,164.20469,166.09438Z"/><path class="cls-2" d="M29.52411,167.69078l30.86117-53.19544,18.02343-31.067a39.47957,39.47957,0,0,0,5.3304-19.72781l.07359-35.22065-4.10545-.0086a6.2759,6.2759,0,0,1-6.34683-5.93153,6.1062,6.1062,0,0,1,6.11637-6.28131l40.74223.08521a6.27586,6.27586,0,0,1,6.34684,5.93174,6.106,6.106,0,0,1-6.11627,6.2811l-5.23388-.01087-.0738,35.22065a39.47641,39.47641,0,0,0,5.24775,19.74987l17.89324,31.1422,30.638,53.32444a9.46749,9.46749,0,0,1-8.22886,14.184l-61.49929-.12868-61.49918-.12879A9.46761,9.46761,0,0,1,29.52411,167.69078Z"/><path class="cls-2" d="M164.20469,167.07686,142.58957,130.8477a105.92038,105.92038,0,0,0-14.84907-.80353,15.236,15.236,0,1,0-26.2019,3.24061,127.55173,127.55173,0,0,1-47.50777.00919L33.83754,166.81386c-3.42029,5.67749.82416,12.79184,7.6403,12.80569l57.51553.116,57.51546.116C163.32478,179.86516,167.60022,172.76808,164.20469,167.07686Z"/><circle class="cls-2" cx="85.48258" cy="105.96854" r="9.05731"/><circle class="cls-2" cx="106.82579" cy="91.50275" r="5.34707"/><circle class="cls-2" cx="97.31849" cy="64.16676" r="8.61212"/></svg>