<svg id="Layer_1" data-name="Layer 1" xmlns="http://www.w3.org/2000/svg" viewBox="0 0 198.4252 198.4252"><defs><style>.cls-1,.cls-3{fill:none;stroke-width:1.5px;}.cls-1,.cls-4{stroke:#000;}.cls-1,.cls-3,.cls-4{stroke-miterlimit:10;}.cls-2{fill:#468fba;}.cls-3{stroke:#1d1d1b;}.cls-4,.cls-5{fill:#1d1d1b;}.cls-4{stroke-width:0.60231px;}</style></defs><path class="cls-1" d="M113.45615,18.03611a68.17738,68.17738,0,1,0,53.7409,80.05139"/><path class="cls-2" d="M187.92128,59.76717l-4.66806-4.07977a27.01972,27.01972,0,0,0-.06006-8.75491l4.61759-4.14295a.5098.5098,0,0,0,.12917-.5774l-2.89237-6.856a.50952.50952,0,0,0-.50379-.31046l-6.1896.41636a27.0188,27.0188,0,0,0-6.22894-6.1525l.33541-6.19063a.5098.5098,0,0,0-.31691-.49973l-6.89323-2.80271a.50947.50947,0,0,0-.57574.13678l-4.0797,4.66806a27.01844,27.01844,0,0,0-8.755.06006l-4.1428-4.61745a.50963.50963,0,0,0-.57751-.12931l-6.856,2.89236a.5098.5098,0,0,0-.31046.5038l.41629,6.18953a27.02215,27.02215,0,0,0-6.15247,6.229l-6.19059-.33541a.50954.50954,0,0,0-.49966.31705l-2.8027,6.893a.50975.50975,0,0,0,.13666.57581l4.66807,4.0797a27.02588,27.02588,0,0,0,.06,8.75495l-4.61745,4.14291a.5097.5097,0,0,0-.12927.57746l2.89236,6.856a.50973.50973,0,0,0,.5038.31043l6.18957-.41632a27.0252,27.0252,0,0,0,6.229,6.15253l-.33537,6.19045a.50961.50961,0,0,0,.31694.49973l6.89313,2.80281a.51.51,0,0,0,.57577-.1367l4.0797-4.66806a27.02322,27.02322,0,0,0,8.755-.06013l4.14288,4.61752a.5097.5097,0,0,0,.57743.12924l6.856-2.89233a.50954.50954,0,0,0,.31047-.50383l-.41633-6.18953a27.02407,27.02407,0,0,0,6.1525-6.229l6.19059.33537a.5096.5096,0,0,0,.4997-.31694l2.80277-6.8932A.50942.50942,0,0,0,187.92128,59.76717ZM156.39109,70.33365a18.85023,18.85023,0,1,1,18.85024-18.85021A18.85021,18.85021,0,0,1,156.39109,70.33365Z"/><path class="cls-3" d="M187.71525,59.01758l-4.66806-4.07977a27.01972,27.01972,0,0,0-.06006-8.75491L187.60472,42.04a.50981.50981,0,0,0,.12917-.5774l-2.89237-6.856a.50955.50955,0,0,0-.50379-.31047l-6.1896.41636a27.0186,27.0186,0,0,0-6.22894-6.1525l.33541-6.19063a.5098.5098,0,0,0-.31691-.49973l-6.89323-2.8027a.50947.50947,0,0,0-.57574.13677l-4.0797,4.66807a27.01816,27.01816,0,0,0-8.755.06005l-4.1428-4.61745a.50963.50963,0,0,0-.57751-.12931l-6.856,2.89237a.50978.50978,0,0,0-.31047.50379l.41629,6.18953a27.02235,27.02235,0,0,0-6.15247,6.229l-6.19059-.33541a.50954.50954,0,0,0-.49966.31705l-2.8027,6.893a.50975.50975,0,0,0,.13666.57581l4.66807,4.0797a27.02588,27.02588,0,0,0,.06,8.755l-4.61745,4.14291a.50971.50971,0,0,0-.12927.57747l2.89236,6.856a.50974.50974,0,0,0,.5038.31044l6.18957-.41633a27.0252,27.0252,0,0,0,6.229,6.15253l-.33537,6.19046a.5096.5096,0,0,0,.31694.49972l6.89313,2.80282a.51.51,0,0,0,.57577-.1367l4.0797-4.66807a27.02294,27.02294,0,0,0,8.755-.06013l4.14288,4.61753a.50971.50971,0,0,0,.57743.12923l6.856-2.89233a.50953.50953,0,0,0,.31047-.50383l-.41633-6.18953a27.024,27.024,0,0,0,6.1525-6.229l6.19059.33536a.5096.5096,0,0,0,.4997-.31694l2.80277-6.89319A.50944.50944,0,0,0,187.71525,59.01758ZM156.18507,69.58406a18.85022,18.85022,0,1,1,18.85023-18.8502A18.85021,18.85021,0,0,1,156.18507,69.58406Z"/><path class="cls-2" d="M86.73776,115.9387a38.2041,38.2041,0,1,0-69.08283,22.4955c5.45318,8.2175,19.62288,17.49534,19.62288,23.0539v2.71158H59.7897V161.4881c0-5.55856,14.16951-14.8364,19.62285-23.0539h-.00013A38.02836,38.02836,0,0,0,86.73776,115.9387Z"/><path class="cls-4" d="M54.6673,169.993a250.0452,250.0452,0,0,1,.49935-29.73386,42.986,42.986,0,0,1-9.67508,0,250.01666,250.01666,0,0,1,.499,29.73386l-.67365-.03153a256.07971,256.07971,0,0,0-.53588-29.79371c-11.3312-1.57572-16.40288-7.9948-17.31354-14.05315-.53231-3.54078.67688-7.06478,2.8752-8.37935a5.77409,5.77409,0,0,1,4.66033-.46686,11.96,11.96,0,0,1,6.86031,6.21988c1.84437,3.60374,2.93475,9.5874,3.56345,16.08322a42.097,42.097,0,0,0,9.80431,0c.62887-6.49582,1.71925-12.47948,3.5638-16.08322a11.95933,11.95933,0,0,1,6.86027-6.21988,5.77552,5.77552,0,0,1,4.66037.46686c2.19811,1.31457,3.40746,4.83857,2.875,8.37935-.91066,6.05835-5.9827,12.47743-17.31377,14.05315a256.02487,256.02487,0,0,0-.53566,29.79371Zm12.87771-52.328a6.18079,6.18079,0,0,0-1.70381.25174,11.28237,11.28237,0,0,0-6.446,5.8788c-1.77379,3.466-2.834,9.30305-3.45324,15.68106,10.85457-1.56474,15.71332-7.68429,16.58177-13.46211.4854-3.22892-.61278-6.5392-2.5543-7.70034A4.66552,4.66552,0,0,0,67.545,117.66494Zm-34.432,0a4.66513,4.66513,0,0,0-2.42426.64915c-1.94147,1.16114-3.03961,4.47142-2.55444,7.70034.8685,5.77782,5.7269,11.89737,16.58147,13.46211-.61911-6.378-1.679-12.21526-3.45293-15.68106a11.28249,11.28249,0,0,0-6.44585-5.8788A6.18138,6.18138,0,0,0,33.113,117.66494Z"/><path class="cls-3" d="M88.5331,116.43121a38.2041,38.2041,0,1,0-69.08283,22.4955c5.45318,8.2175,19.62288,17.49534,19.62288,23.0539v2.71158H61.585v-2.71158c0-5.55856,14.16951-14.8364,19.62285-23.0539h-.00013A38.02833,38.02833,0,0,0,88.5331,116.43121Z"/><path class="cls-5" d="M62.48776,175.30525l.2085-.02161a1.45712,1.45712,0,0,0,1.2947-1.66618,1.5816,1.5816,0,0,0-1.5032-1.35474V170.001l.2085-.0216a1.45736,1.45736,0,0,0,1.2947-1.66627,1.58105,1.58105,0,0,0-1.5032-1.355v-2.26589H38.17024v4.76572l-.20839.0216a1.45731,1.45731,0,0,0-1.29457,1.6663,1.58548,1.58548,0,0,0,1.501,1.36179l.00192-.00008v2.25474l-.20839.02161a1.45726,1.45726,0,0,0-1.29457,1.66626,1.58533,1.58533,0,0,0,1.501,1.36179c.04056.00144.08183-.00242.12284-.00434a9.96579,9.96579,0,0,0,.62057,2.23111,1.45589,1.45589,0,0,0-1.27323,1.66185,1.58552,1.58552,0,0,0,1.5011,1.36182,1.51055,1.51055,0,0,0,.21035-.00745l1.3455-.1395a10.44754,10.44754,0,0,0,7.85105,3.56049h3.56506a10.451,10.451,0,0,0,8.82348-4.85019c.17641-.278.333-.566.4803-.85833l.98431-.102a1.45737,1.45737,0,0,0,1.29476-1.6663,1.58517,1.58517,0,0,0-1.3038-1.33517,9.967,9.967,0,0,0,.09715-1.38188Z"/><polygon points="122.28 19.998 115.894 23.01 109.508 26.021 110.093 18.985 110.678 11.949 116.479 15.974 122.28 19.998"/><polygon points="166.659 88.882 169.67 95.268 172.682 101.654 165.646 101.069 158.61 100.484 162.634 94.683 166.659 88.882"/></svg>