<svg id="Layer_1" data-name="Layer 1" xmlns="http://www.w3.org/2000/svg" viewBox="0 0 198.4252 198.4252"><defs><style>.cls-1{fill:#468fba;}.cls-2{fill:#fff;}.cls-3{fill:none;stroke:#000;stroke-miterlimit:10;stroke-width:1.5px;}</style></defs><path class="cls-1" d="M38.46693,120.24307c0,11.6697,21.12986,36.22262,21.12986,36.22262s21.12986-24.55292,21.12986-36.22262a21.12986,21.12986,0,1,0-42.25972,0Z"/><circle class="cls-2" cx="59.36968" cy="119.09379" r="12.07421"/><path class="cls-3" d="M35.675,119.39858c0,11.6697,21.12987,36.22262,21.12987,36.22262s21.12986-24.55292,21.12986-36.22262a21.12987,21.12987,0,0,0-42.25973,0Z"/><circle class="cls-3" cx="56.5778" cy="118.24931" r="12.07421"/><path class="cls-1" d="M114.4788,48.58937c0,11.6697,21.12987,36.22262,21.12987,36.22262s21.12986-24.55292,21.12986-36.22262a21.12987,21.12987,0,0,0-42.25973,0Z"/><circle class="cls-2" cx="135.38156" cy="47.4401" r="12.07421"/><path class="cls-3" d="M111.68692,47.74489c0,11.6697,21.12986,36.22262,21.12986,36.22262s21.12986-24.55292,21.12986-36.22262a21.12986,21.12986,0,0,0-42.25972,0Z"/><circle class="cls-3" cx="132.58967" cy="46.59561" r="12.07421"/><ellipse class="cls-3" cx="59.68659" cy="162.33757" rx="10.43892" ry="1.86409"/><ellipse class="cls-3" cx="135.53287" cy="89.48836" rx="10.43892" ry="1.86409"/><line class="cls-3" x1="143.837" y1="122.89245" x2="159.41574" y2="109.17578"/><line class="cls-3" x1="159.03119" y1="122.89245" x2="145.02365" y2="108.88491"/><line class="cls-3" x1="65.0243" y1="75.26876" x2="80.60304" y2="61.55208"/><line class="cls-3" x1="80.21849" y1="75.26876" x2="66.21095" y2="61.26122"/><path class="cls-3" d="M115.98637,83.99826l3.661,6.493h0a16.59041,16.59041,0,0,0-16.59041,16.59041v28.82978A24.41958,24.41958,0,0,1,78.63731,160.331H76.02754"/><line class="cls-3" x1="117.31562" y1="97.29072" x2="119.6473" y2="90.49123"/><polygon class="cls-3" points="27.012 181.728 10.651 20.254 187.774 16.697 168.568 178.883 27.012 181.728"/></svg>