<?xml version="1.0" encoding="utf-8"?>
<!-- Generator: Adobe Illustrator 23.0.6, SVG Export Plug-In . SVG Version: 6.00 Build 0)  -->
<svg version="1.1" xmlns="http://www.w3.org/2000/svg" xmlns:xlink="http://www.w3.org/1999/xlink" x="0px" y="0px"
	 viewBox="0 0 841.89 467.72" style="enable-background:new 0 0 841.89 467.72;" xml:space="preserve">
<style type="text/css">
	.st0{fill:#F4F4F5;}
	.st1{fill:#FFFFFF;}
	.st2{fill:#4890BA;}
	.st3{fill:#F5C65D;}
	.st4{fill:#E0635D;}
	.st5{fill:#61A575;}
	.st6{fill:#8E6C96;}
	.st7{fill:none;stroke:#54575C;stroke-miterlimit:10;}
	.st8{fill:#D28C71;}
	.st9{fill:none;stroke:#FFFFFF;stroke-miterlimit:10;}
</style>
<g id="Layer_1">
</g>
<g id="Layer_2">
</g>
<g id="Layer_3">
	<rect x="-4.54" y="-8.74" class="st0" width="855.54" height="483.17"/>
	<g>
		<g>
			<circle class="st1" cx="276.77" cy="370.01" r="7.48"/>
			<circle class="st1" cx="644.54" cy="375.83" r="7.48"/>
			<circle class="st1" cx="222.75" cy="185.5" r="7.48"/>
			<circle class="st1" cx="171.06" cy="414.84" r="7.48"/>
			<circle class="st1" cx="150.85" cy="172.62" r="4.16"/>
			<circle class="st1" cx="570.99" cy="94.49" r="4.16"/>
			<circle class="st1" cx="579.72" cy="105.72" r="4.16"/>
			<circle class="st1" cx="624.18" cy="315.16" r="4.16"/>
			<circle class="st1" cx="701.82" cy="75.85" r="4.16"/>
			<circle class="st1" cx="586.78" cy="94.08" r="4.16"/>
			<circle class="st1" cx="275.52" cy="64.99" r="4.16"/>
		</g>
		<circle class="st2" cx="171.13" cy="418.3" r="7.48"/>
		<circle class="st2" cx="149.85" cy="173.62" r="4.16"/>
		<circle class="st2" cx="274.52" cy="65.99" r="4.16"/>
		<circle class="st3" cx="571.74" cy="92.69" r="4.16"/>
		<circle class="st4" cx="580.47" cy="103.91" r="4.16"/>
		<circle class="st5" cx="587.53" cy="92.28" r="4.16"/>
		<circle class="st4" cx="274.92" cy="373.21" r="7.48"/>
		<circle class="st5" cx="625.54" cy="313.4" r="4.47"/>
		<circle class="st4" cx="645.88" cy="374.91" r="7.48"/>
		<circle class="st4" cx="221.75" cy="186.5" r="7.48"/>
		<path class="st1" d="M539.7,196.76c0,0-3.66,2.54-5.18,3.65c-9.94,7.25-19.8,14.62-29.81,21.77c-2.94,2.1-6.96,3.59-9.34,0.01
			c-2.25-3.4,0.96-6.02,3.66-8.08c1.05-0.8,2.16-1.51,3.23-2.29c4.95-3.65,9.91-7.27,14.81-10.99c1.01-0.77,2.2-1.87,1.53-3.32
			c-0.85-1.83-2.65-1.36-4.04-0.9c-1.65,0.54-3.18,1.46-4.73,2.29c-9.1,4.89-18.13,9.91-27.29,14.68c-4.26,2.22-6.58,2.37-7.81,0.03
			c-1.41-2.68-0.4-6.04,2.12-7.73c6.68-4.49,13.9-8.11,20.72-12.37c2.55-1.59,7.66-2.78,5.81-6.57c-1.67-3.41-5.39,0.11-7.94,1.09
			c-7.71,2.97-15.24,6.39-22.91,9.47c-3.58,1.44-8.22,3.58-10.26-1.08c-1.92-4.37,3.21-5.48,6.06-6.94
			c8.51-4.38,17.19-8.43,25.79-12.64c1.71-0.84,4.05-1.74,3.09-4.05c-0.83-2.01-2.89-0.83-4.62-0.54
			c-8.8,1.47-17.28,4.13-25.84,6.52c-2.45,0.68-5.18,0.77-6.24-1.99c-0.96-2.52,0.19-4.67,2.95-5.72c2.03-0.78,3.92-1.92,5.98-2.59
			c10.95-3.57,21.98-6.91,32.88-10.64c3.71-1.27,7.88-3.35,7.01-8.17c-0.87-4.8-5.15-6.24-9.56-6.15c-3.16,0.07-6.19-0.49-8.98-1.59
			c-3.63-1.43-8.17-3.37-7.16-8.09c1.01-4.73,5.82-2.59,9.02-2.7c7.02-0.25,14.05-0.08,21.61-0.08
			C476.39,85.01,410.1,70.24,354.64,94.61c-49.78,21.87-75.96,69.82-73.73,108.34c0.97-0.43,1.04-1.73,1.72-2.49
			c8.95-10.01,17.61-20.25,25.19-31.35c1.76-2.58,4.16-4.7,7-6.01c5.64-2.61,9.13-1.15,11.09,5.1c2.62,8.34-1.35,15.42-5.57,21.92
			c-3.55,5.47-8.47,10.04-12.57,15.18c-2.48,3.11-4.95,6.82-2.1,10.66c2.46,3.33,6.34,2.9,10.23,2.07
			c12.49-2.64,23.76-8.1,34.8-14.23c13.53-7.52,26.13-16.71,40.54-22.69c5.38-2.23,11.02-3.85,14.36,2.39
			c3.34,6.23-2.39,9.09-6.36,11.85c-13.44,9.34-27.11,18.34-40.59,27.62c-2.88,1.98-8.2,4.08-6.1,7.91
			c2.29,4.17,6.51-0.16,9.67-1.23c19.1-6.49,36.89-16.59,56.93-20.54c8.55-1.69,13.15,1.51,12.56,8.62
			c-0.18,2.11-1.55,3.94-3.51,4.77c-4.08,1.73-8.14,3.49-12.29,5.05c-15.43,5.8-30.97,11.36-45.12,20.03
			c-1.84,1.13-4.34,2.5-3.6,4.96c0.8,2.68,3.75,1.8,5.78,1.7c14.4-0.76,28.22-4.06,41.39-9.96c4.03-1.8,8.04-3.52,12.64-3.2
			c6.19,0.42,8.55,4.25,5.89,9.91c-2.11,4.48-6.18,6.72-10.44,8.63c-14.54,6.51-29.9,10.14-45.43,13.32
			c-4.67,0.96-9.68,0.71-13.92,3.59c-2.13,1.44-4.14,3.14-3.61,5.76c0.55,2.73,3.28,3.47,5.72,3.54c5.7,0.16,11.41,0.5,17.11-0.38
			c10.4-1.61,20.81-3.13,31.24-4.57c3.99-0.55,7.06,1.07,8.06,5.09c1.04,4.16-2,6.07-5.2,7.21c-2.87,1.02-5.95,1.52-8.97,2.02
			c-21.64,3.6-43.28,7.14-64.92,10.69c-1.31,0.22-4.85,0.59-4.85,0.59c13.96,10.97,31.93,17.72,49.37,20.47
			c2.75,0.43,5.52,0.77,8.3,1.01c34.08,2.96,66.24-3.57,94.29-24.24c12.24-9.02,23.32-19.72,31.94-32.28
			c8.33-12.13,14.17-25.84,17.1-40.27c0.97-4.76,1.63-9.58,2.01-14.42c0.29-3.73,0.66-7.47,0.49-11.22
			C541.18,204.79,539.62,196.82,539.7,196.76z"/>
		<path class="st6" d="M538.57,198.86c0,0-3.66,2.54-5.18,3.65c-9.94,7.25-19.8,14.62-29.81,21.77c-2.94,2.1-6.96,3.59-9.34,0.01
			c-2.25-3.4,0.96-6.02,3.66-8.08c1.05-0.8,2.16-1.51,3.23-2.29c4.95-3.65,9.91-7.27,14.81-10.99c1.01-0.77,2.2-1.87,1.53-3.32
			c-0.85-1.83-2.65-1.36-4.04-0.9c-1.65,0.54-3.18,1.46-4.73,2.29c-9.1,4.89-18.13,9.91-27.29,14.68c-4.26,2.22-6.58,2.37-7.81,0.03
			c-1.41-2.68-0.4-6.04,2.12-7.73c6.68-4.49,13.9-8.11,20.72-12.37c2.55-1.59,7.66-2.78,5.81-6.57c-1.67-3.41-5.39,0.11-7.94,1.09
			c-7.71,2.97-15.24,6.39-22.91,9.47c-3.58,1.44-8.22,3.58-10.26-1.08c-1.92-4.37,3.21-5.48,6.06-6.94
			c8.51-4.38,17.19-8.43,25.79-12.64c1.71-0.84,4.05-1.74,3.09-4.05c-0.83-2.01-2.89-0.83-4.62-0.54
			c-8.8,1.47-17.28,4.13-25.84,6.52c-2.45,0.68-5.18,0.77-6.24-1.99c-0.96-2.52,0.19-4.67,2.95-5.72c2.03-0.78,3.92-1.92,5.98-2.59
			c10.95-3.57,21.98-6.91,32.88-10.64c3.71-1.27,7.88-3.35,7.01-8.17c-0.87-4.8-5.15-6.24-9.56-6.15c-3.16,0.07-6.19-0.49-8.98-1.59
			c-3.63-1.43-8.17-3.37-7.16-8.09c1.01-4.73,5.82-2.59,9.02-2.7c7.02-0.25,14.05-0.08,21.61-0.08
			c-37.87-46.02-104.15-60.79-159.61-36.42c-49.78,21.87-75.96,69.82-73.73,108.34c0.97-0.43,1.04-1.73,1.72-2.49
			c8.95-10.01,17.61-20.25,25.19-31.35c1.76-2.58,4.16-4.7,7-6.01c5.64-2.61,9.13-1.15,11.09,5.1c2.62,8.34-1.35,15.42-5.57,21.92
			c-3.55,5.47-8.47,10.04-12.57,15.18c-2.48,3.11-4.95,6.82-2.1,10.66c2.46,3.33,6.34,2.9,10.23,2.07
			c12.49-2.64,23.76-8.1,34.8-14.23c13.53-7.52,26.13-16.71,40.54-22.69c5.38-2.23,11.02-3.85,14.36,2.39
			c3.34,6.23-2.39,9.09-6.36,11.85c-13.44,9.34-27.11,18.34-40.59,27.62c-2.88,1.98-8.2,4.08-6.1,7.91
			c2.29,4.17,6.51-0.16,9.67-1.23c19.1-6.49,36.89-16.59,56.93-20.54c8.55-1.69,13.15,1.51,12.56,8.62
			c-0.18,2.11-1.55,3.94-3.51,4.77c-4.08,1.73-8.14,3.49-12.29,5.05c-15.43,5.8-30.97,11.36-45.12,20.03
			c-1.84,1.13-4.34,2.5-3.6,4.96c0.8,2.68,3.75,1.8,5.78,1.7c14.4-0.76,28.22-4.06,41.39-9.96c4.03-1.8,8.04-3.52,12.64-3.2
			c6.19,0.42,8.55,4.25,5.89,9.91c-2.11,4.48-6.18,6.72-10.44,8.63c-14.54,6.51-29.9,10.14-45.43,13.32
			c-4.67,0.96-9.68,0.71-13.92,3.59c-2.13,1.44-4.14,3.14-3.61,5.76c0.55,2.73,3.28,3.47,5.72,3.54c5.7,0.16,11.41,0.5,17.11-0.38
			c10.4-1.61,20.81-3.13,31.24-4.57c3.99-0.55,7.06,1.07,8.06,5.09c1.04,4.16-2,6.07-5.2,7.21c-2.87,1.02-5.95,1.52-8.97,2.02
			c-21.64,3.6-43.28,7.14-64.92,10.69c-1.31,0.22-4.85,0.59-4.85,0.59c13.96,10.97,31.93,17.72,49.37,20.47
			c2.75,0.43,5.52,0.77,8.3,1.01c34.08,2.96,66.24-3.57,94.29-24.24c12.24-9.02,23.32-19.72,31.94-32.28
			c8.33-12.13,14.17-25.84,17.1-40.27c0.97-4.76,1.63-9.58,2.01-14.42c0.29-3.73,0.66-7.47,0.49-11.22
			C540.04,206.89,538.48,198.92,538.57,198.86z"/>
		<path class="st7" d="M539.63,196.58c0,0-3.66,2.54-5.18,3.65c-9.94,7.25-19.8,14.62-29.81,21.77c-2.94,2.1-6.96,3.59-9.34,0.01
			c-2.25-3.4,0.96-6.02,3.66-8.08c1.05-0.8,2.16-1.51,3.23-2.29c4.95-3.65,9.91-7.27,14.81-10.99c1.01-0.77,2.2-1.87,1.53-3.32
			c-0.85-1.83-2.65-1.36-4.04-0.9c-1.65,0.54-3.18,1.46-4.73,2.29c-9.1,4.89-18.13,9.91-27.29,14.68c-4.26,2.22-6.58,2.37-7.81,0.03
			c-1.41-2.68-0.4-6.04,2.12-7.73c6.68-4.49,13.9-8.11,20.72-12.37c2.55-1.59,7.66-2.78,5.81-6.57c-1.67-3.41-5.39,0.11-7.94,1.09
			c-7.71,2.97-15.24,6.39-22.91,9.47c-3.58,1.44-8.22,3.58-10.26-1.08c-1.92-4.37,3.21-5.48,6.06-6.94
			c8.51-4.38,17.19-8.43,25.79-12.64c1.71-0.84,4.05-1.74,3.09-4.05c-0.83-2.01-2.89-0.83-4.62-0.54
			c-8.8,1.47-17.28,4.13-25.84,6.52c-2.45,0.68-5.18,0.77-6.24-1.99c-0.96-2.52,0.19-4.67,2.95-5.72c2.03-0.78,3.92-1.92,5.98-2.59
			c10.95-3.57,21.98-6.91,32.88-10.64c3.71-1.27,7.88-3.35,7.01-8.17c-0.87-4.8-5.15-6.24-9.56-6.15c-3.16,0.07-6.19-0.49-8.98-1.59
			c-3.63-1.43-8.17-3.37-7.16-8.09c1.01-4.73,5.82-2.59,9.02-2.7c7.02-0.25,14.05-0.08,21.61-0.08
			c-37.87-46.02-104.15-60.79-159.61-36.42c-49.78,21.87-75.96,69.82-73.73,108.34c0.97-0.43,1.04-1.73,1.72-2.49
			c8.95-10.01,17.61-20.25,25.19-31.35c1.76-2.58,4.16-4.7,7-6.01c5.64-2.61,9.13-1.15,11.09,5.1c2.62,8.34-1.35,15.42-5.57,21.92
			c-3.55,5.47-8.47,10.04-12.57,15.18c-2.48,3.11-4.95,6.82-2.1,10.66c2.46,3.33,6.34,2.9,10.23,2.07
			c12.49-2.64,23.76-8.1,34.8-14.23c13.53-7.52,26.13-16.71,40.54-22.69c5.38-2.23,11.02-3.85,14.36,2.39
			c3.34,6.23-2.39,9.09-6.36,11.85c-13.44,9.34-27.11,18.34-40.59,27.62c-2.88,1.98-8.2,4.08-6.1,7.91
			c2.29,4.17,6.51-0.16,9.67-1.23c19.1-6.49,36.89-16.59,56.93-20.54c8.55-1.69,13.15,1.51,12.56,8.62
			c-0.18,2.11-1.55,3.94-3.51,4.77c-4.08,1.73-8.14,3.49-12.29,5.05c-15.43,5.8-30.97,11.36-45.12,20.03
			c-1.84,1.13-4.34,2.5-3.6,4.96c0.8,2.68,3.75,1.8,5.78,1.7c14.4-0.76,28.22-4.06,41.39-9.96c4.03-1.8,8.04-3.52,12.64-3.2
			c6.19,0.42,8.55,4.25,5.89,9.91c-2.11,4.48-6.18,6.72-10.44,8.63c-14.54,6.51-29.9,10.14-45.43,13.32
			c-4.67,0.96-9.68,0.71-13.92,3.59c-2.13,1.44-4.14,3.14-3.61,5.76c0.55,2.73,3.28,3.47,5.72,3.54c5.7,0.16,11.41,0.5,17.11-0.38
			c10.4-1.61,20.81-3.13,31.24-4.57c3.99-0.55,7.06,1.07,8.06,5.09c1.04,4.16-2,6.07-5.2,7.21c-2.87,1.02-5.95,1.52-8.97,2.02
			c-21.64,3.6-43.28,7.14-64.92,10.69c-1.31,0.22-4.85,0.59-4.85,0.59c13.96,10.97,31.93,17.72,49.37,20.47
			c2.75,0.43,5.52,0.77,8.3,1.01c34.08,2.96,66.24-3.57,94.29-24.24c12.24-9.02,23.32-19.72,31.94-32.28
			c8.33-12.13,14.17-25.84,17.1-40.27c0.97-4.76,1.63-9.58,2.01-14.42c0.29-3.73,0.66-7.47,0.49-11.22
			C541.1,204.6,539.54,196.63,539.63,196.58z"/>
		<polyline class="st7" points="520.74,273.45 589.68,272.95 621.03,312.27 		"/>
		<g>
			<path class="st1" d="M558.72,341.22c-2.49-8.46-18.91-7.47-18.91-7.47s4.98-25.14-4.23-32.35c-16.77-13.15-22.4,2.24-22.4,2.24
				s-4.23-26.63-7.22-29.37s-10.7-4.48-16.92,0c-1.63,1.17-3.2,4.34-4.66,8.52c0.19-0.7,0.31-1.11,0.31-1.11
				s-13.61,30.59-11.24,34.14c2.19,3.28,3.26,2.3,3.41,2.14c-0.12,0.92-0.21,1.73-0.27,2.36c-0.75,7.96-5.48,13.69-6.72,11.45
				c-1.24-2.24,1.24-46.29,1.24-46.29l-7.32-56.36l-1.89-14.57c0,0-6.97-9.21-14.93-2.99c-7.96,6.22-6.22,46.79-5.48,58.23
				s-2.24,40.07-1.99,48.53c0.25,8.46-9.46,49.28-9.46,49.28l-13.94-19.91c1.24-19.16-11.95-33.35-22.4-35.84
				c-10.45-2.49-10.7,3.73-10.7,3.73c3.48,4.73,5.72,18.91,5.97,25.14c0.25,6.22-1.49,10.95-1.49,20.16s38.33,79.39,38.33,79.39
				c20.9,26.88,25.64,55.17,25.64,55.17l1.24,6.05l90.59,7.96c0,0-1.49-13.69-5.48-27.38s5.23-32.6,6.97-40.57
				c1.74-7.96,7.71-34.09,8.46-40.07s4.48-11.45,6.22-16.67S561.21,349.68,558.72,341.22z"/>
			<path class="st8" d="M555.72,344.21c-2.49-8.46-18.91-7.47-18.91-7.47s4.98-25.14-4.23-32.35c-16.77-13.15-22.4,2.24-22.4,2.24
				s-4.23-26.63-7.22-29.37s-10.7-4.48-16.92,0c-1.63,1.17-3.2,4.34-4.66,8.52c0.19-0.7,0.31-1.11,0.31-1.11
				s-13.61,30.59-11.24,34.14c2.19,3.28,3.26,2.3,3.41,2.14c-0.12,0.92-0.21,1.73-0.27,2.36c-0.75,7.96-5.48,13.69-6.72,11.45
				c-1.24-2.24,1.24-46.29,1.24-46.29l-7.32-56.36l-1.89-14.57c0,0-6.97-9.21-14.93-2.99c-7.96,6.22-6.22,46.79-5.48,58.23
				s-2.24,40.07-1.99,48.53c0.25,8.46-9.46,49.28-9.46,49.28l-13.94-19.91c1.24-19.16-11.95-33.35-22.4-35.84
				c-10.45-2.49-10.7,3.73-10.7,3.73c3.48,4.73,5.72,18.91,5.97,25.14c0.25,6.22-1.49,10.95-1.49,20.16s38.33,79.39,38.33,79.39
				c20.9,26.88,25.64,55.17,25.64,55.17l1.24,6.05l90.59,7.96c0,0-1.49-13.69-5.48-27.38s5.23-32.6,6.97-40.57
				c1.74-7.96,7.71-34.09,8.46-40.07s4.48-11.45,6.22-16.67S558.21,352.68,555.72,344.21z"/>
			<path class="st7" d="M450.47,494.94c0,0-4.74-28.29-25.64-55.17c0,0-38.33-70.18-38.33-79.39s1.74-13.94,1.49-20.16
				c-0.25-6.22-2.49-20.41-5.97-25.14c0,0,0.25-6.22,10.7-3.73c10.45,2.49,23.64,16.67,22.4,35.84l13.94,19.91
				c0,0,9.71-40.81,9.46-49.28c-0.25-8.46,2.74-37.08,1.99-48.53c-0.75-11.45-2.49-52.01,5.48-58.23
				c7.96-6.22,14.93,2.99,14.93,2.99l1.89,14.57l7.32,56.36c0,0-2.49,44.05-1.24,46.29s5.97-3.48,6.72-11.45
				c0.75-7.96,6.22-41.56,12.44-46.04c6.22-4.48,13.94-2.74,16.92,0c2.99,2.74,7.22,29.37,7.22,29.37s5.62-15.39,22.4-2.24
				c9.21,7.22,4.23,32.35,4.23,32.35s16.43-1,18.91,7.47c2.49,8.46,2.49,38.33,0.75,43.55s-5.48,10.7-6.22,16.67
				s-6.72,32.1-8.46,40.07c-1.74,7.96-10.95,26.88-6.97,40.57c3.98,13.69,5.48,27.38,5.48,27.38l-90.59-7.96L450.47,494.94z"/>
			<path class="st7" d="M445.98,211.06c0,0,1,14.93,3.98,18.42c2.99,3.48,12.84-0.86,12.84-0.86"/>
			<path class="st7" d="M512.18,303.14c0,0,1.24,26.63-2.74,33.1"/>
			<path class="st7" d="M538.81,333.26c0,0-2.74,23.14-5.48,26.88"/>
			<line class="st7" x1="429.06" y1="367.1" x2="424.82" y2="389.25"/>
			<path class="st7" d="M387.56,334.44c0,0,7.42-3.06,7.21-5.46c-0.22-2.4-2.34-16.94-8.02-17.6"/>
			<path class="st7" d="M483.69,281.18c0,0-13.61,30.59-11.24,34.14c2.36,3.55,3.43,2.11,3.43,2.11s2.04-13.46,3.11-18.46
				C479.87,294.85,483.69,281.18,483.69,281.18z"/>
		</g>
		<line class="st7" x1="580.72" y1="301.07" x2="638.21" y2="371.75"/>
		<polyline class="st7" points="694.45,371.75 662.35,372.25 663.09,331.93 687.73,311.28 724.56,311.28 724.56,344.37 		"/>
		<polyline class="st7" points="499.59,115.67 523.73,94.76 567.28,94.76 		"/>
		<line class="st7" x1="336.33" y1="103.72" x2="279.09" y2="67.14"/>
		<path class="st7" d="M277.95,105.74c-0.75-0.25-42.56,0-42.56,0"/>
		<line class="st7" x1="277.95" y1="123.93" x2="200.06" y2="123.93"/>
		<path class="st7" d="M277.95,142.07c-1.74,0.5-106.51,0-106.51,0"/>
		<line class="st7" x1="283.57" y1="172.16" x2="154.66" y2="172.16"/>
		<line class="st7" x1="281.83" y1="184.35" x2="230.06" y2="184.35"/>
		<line class="st7" x1="344.29" y1="311.77" x2="283.32" y2="367.02"/>
		<polyline class="st7" points="337.71,354.78 279.51,414.8 177.72,414.8 		"/>
		<line class="st7" x1="313.43" y1="314.79" x2="255.45" y2="314.79"/>
		<line class="st7" x1="308.21" y1="323.25" x2="261.17" y2="323.25"/>
		<g>
			<line class="st7" x1="167.35" y1="203.27" x2="117.33" y2="203.27"/>
			<line class="st7" x1="167.35" y1="212.97" x2="117.33" y2="212.97"/>
			<line class="st7" x1="167.35" y1="222.68" x2="117.33" y2="222.68"/>
		</g>
		<g>
			<line class="st7" x1="599.27" y1="232.66" x2="549.24" y2="232.66"/>
			<line class="st7" x1="599.27" y1="242.37" x2="549.24" y2="242.37"/>
			<line class="st7" x1="599.27" y1="252.08" x2="549.24" y2="252.08"/>
		</g>
		<path class="st9" d="M465.36,233.34c5.08-3.43,8.42-9.24,8.42-15.84"/>
		<path class="st9" d="M454.68,198.4c-10.55,0-19.1,8.55-19.1,19.1c0,2.21,0.37,4.33,1.06,6.3"/>
		<circle class="st7" cx="276.77" cy="370.01" r="7.48"/>
		<circle class="st7" cx="644.54" cy="375.83" r="7.48"/>
		<circle class="st7" cx="222.75" cy="185.5" r="7.48"/>
		<circle class="st7" cx="170.45" cy="414.84" r="7.48"/>
		<circle class="st7" cx="150.85" cy="172.62" r="4.16"/>
		<circle class="st7" cx="570.99" cy="94.49" r="4.16"/>
		<circle class="st7" cx="579.72" cy="105.72" r="4.16"/>
		<circle class="st7" cx="624.18" cy="315.16" r="4.16"/>
		<circle class="st5" cx="703.17" cy="77.61" r="4.47"/>
		<polyline class="st7" points="523.93,117.56 667.32,118.06 698.67,78.73 		"/>
		<circle class="st7" cx="701.82" cy="75.85" r="4.16"/>
		<circle class="st7" cx="586.78" cy="94.08" r="4.16"/>
		<circle class="st7" cx="275.52" cy="64.99" r="4.16"/>
	</g>
</g>
</svg>
