<svg xmlns="http://www.w3.org/2000/svg" viewBox="0 0 841.88976 467.71654"><defs><style>.cls-1{fill:#dae9f1;}.cls-2{fill:#e5a76c;}.cls-3{fill:#fff;}.cls-4{fill:#c5c5c7;}.cls-5{fill:#1c1d20;}.cls-6{fill:#f2c35c;}.cls-7{fill:#ba3932;}.cls-10,.cls-8{fill:none;}.cls-9{fill:#37383b;}.cls-10{stroke:#37383b;stroke-miterlimit:10;}</style></defs><g id="Layer_3" data-name="Layer 3"><rect class="cls-1" width="841.88976" height="467.71654"/><ellipse class="cls-2" cx="450.09018" cy="163.66968" rx="34.69374" ry="26.23896"/><path class="cls-3" d="M841.88976,310.67237,618.51108,296.74824c-7.89721,5.23431-8.75195,13.71637-18.62085,2.82684a19.834,19.834,0,0,0-1.77881-1.698A76.91978,76.91978,0,0,1,587.9061,294.829c-1.822-.67224-2.99414-1.16559-2.99414-1.16559a8.1776,8.1776,0,0,1-.64062.93762c-1.25635,1.61914-4.34278,4.60742-9.0857,2.86835-6.34326-2.32587-10.36059,1.903-19.02978,2.11444-8.66919.21149-11.20655-3.59454-11.20655-3.59454s-2.897.30633-5.98657.50915l-.24756,9.32178-.53369,20.10242L511.48716,343.9499,476.81943,337.363,432.098,335.62965l.40039-9.96515-3.52051.95147-16.30078-4.26324.00683.44983L393.96323,337.363l-45.41479-3.81347,2.20092-37.10382-.95507.191c-6.1355-.30677-8.00245-4.27112-8.5105-7.423a13.72033,13.72033,0,0,1-.06519-3.89672,12.753,12.753,0,0,1-4.91748-6.26624l-110.17676-6.90918L0,297.01771v9.67l841.88976,79.72186Z"/><polygon class="cls-4" points="17.118 467.717 16.514 349.347 0 347.86 0 467.717 17.118 467.717"/><polygon class="cls-4" points="204.16 467.717 208.095 365.58 166.853 362.086 167.45 467.717 204.16 467.717"/><path class="cls-5" d="M494.73789,389.86774l-33.65381-2.85156a290.79639,290.79639,0,0,1-46.16284,19.9137c16.896,2.18573,36.67383,4.68439,55.37158,6.90179A163.61911,163.61911,0,0,1,494.73789,389.86774Z"/><path class="cls-6" d="M327.53452,467.71654h65.38574c-16.209-27.8108-40.39795-52.32768-40.39795-52.32768,20.679,2.31372,42.82935-2.08526,62.39893-8.459a290.79639,290.79639,0,0,0,46.16284-19.9137l-70.49414-5.97308-109.37866-9.26782c-9.76953,9.65832-9.28955,21.43194-7.25342,33.64929C275.66733,415.6822,305.85679,445.36564,327.53452,467.71654Z"/><path class="cls-6" d="M513.48374,467.71654v-17.836s18.03442-10.40149,37.62109-22.96283a32.28145,32.28145,0,0,1-1.21313-6.16351L560.911,395.47468l-18.20385-1.54248-47.96924-4.06446a163.61911,163.61911,0,0,0-24.44507,23.96393A85.87946,85.87946,0,0,0,458.29721,433.018c-5.30444,12.16883-5.59082,22.81419-4.0664,34.69859Z"/><path class="cls-7" d="M623.24521,400.75636l-31.9187-2.70453L560.911,395.47468,549.8917,420.75422a32.28145,32.28145,0,0,0,1.21313,6.16351,43.11585,43.11585,0,0,0,14.5,21.81311c11.33545,9.09973,34.87476,9.9643,39.47363,14.94641C612.21885,471.41254,627.7208,427.24909,623.24521,400.75636Z"/><polygon class="cls-4" points="841.89 386.41 0 306.688 0 347.86 16.514 349.347 166.853 362.086 208.095 365.58 281.211 371.775 390.59 381.043 461.084 387.016 494.738 389.868 542.707 393.932 560.911 395.475 591.327 398.052 623.245 400.756 841.89 419.169 841.89 386.41"/><path class="cls-6" d="M376.12363,259.52485c-.03052.02075-.0564.04651-.08813.06561-3.43042,2.05817-11.49146-2.74414-11.49146-2.74414l-1.71509,8.5755a8.0446,8.0446,0,0,1,6.86035,3.77326l6.17457-1.20057c.05346.03522.09741.06946.14892.1045l2.42359-7.13642Z"/><path class="cls-2" d="M376.01279,268.099c-.05151-.035-.09546-.06928-.14892-.1045l-6.17457,1.20057a8.0446,8.0446,0,0,0-6.86035-3.77326l1.71509-8.5755s8.061,4.80231,11.49146,2.74414c.03173-.0191.05761-.04486.08813-.06561,3.24414-2.217-1.70679-13.83307-9.69287-14.51276-7.12524-.60644-11.30225,2.1322-15.25562,2.18506a7.62873,7.62873,0,0,1-1.55249-.12695,9.523,9.523,0,0,0-7.54638.85754c-3.7732,2.22968-9.26172,8.57556-9.26172,8.57556s-5.14526,0-3.43018,5.31684a53.07259,53.07259,0,0,0,5.65992,11.14819,18.77759,18.77759,0,0,0,1.25683,6.08252,12.753,12.753,0,0,0,4.91748,6.26624,13.72033,13.72033,0,0,0,.06519,3.89672c.508,3.15186,2.375,7.11621,8.5105,7.423l.95507-.191,5.04785-1.00952s-2.91577,4.8023,1.71485,4.8023c1.59424,0,4.2041-1.21948,6.94873-2.99347a46.87464,46.87464,0,0,0,6.93408-5.49853c2.36817-2.29913,4.06519-4.56885,4.126-6.08643.17138-4.28778-4.80225-2.74414-4.80225-2.74414a13.80923,13.80923,0,0,0,2.05347-1.578c1.45386-1.35858,2.91406-3.40833,1.51782-5.40033a4.47279,4.47279,0,0,0-.65576-.73969S382.22983,272.32911,376.01279,268.099Z"/><path class="cls-6" d="M412.6771,322.35273l-.4148-27.16876-.17383-11.3805-.0979-6.41583-4.32763-.16644-9.55323-.36743-23.81982-.91614c1.39624,1.992-.064,4.04175-1.51782,5.40033a13.80923,13.80923,0,0,1-2.05347,1.578s4.97363-1.54364,4.80225,2.74414c-.06079,1.51758-1.75781,3.7873-4.126,6.08643a46.87464,46.87464,0,0,1-6.93408,5.49853c-2.74463,1.774-5.35449,2.99347-6.94873,2.99347-4.63062,0-1.71485-4.8023-1.71485-4.8023l-5.04785,1.00952-2.20092,37.10382,45.41479,3.81347,18.7207-14.56048Z"/><path class="cls-3" d="M458.44541,200.425,456.994,245.81965l8.03833-4.48657,23.0105,1.17c-.20459-6.92566-1.12988-12.891-3.24976-16.42389-8.32031-13.86713-26.69433-38.13464-26.69433-44.72156a41.03979,41.03979,0,0,1,1.04907-7.86908,54.68152,54.68152,0,0,1-15.9165,3.82068c-.51685,5.436-1.52,13.048-2.60889,20.663Z"/><polygon class="cls-4" points="440.622 197.972 430.872 196.631 420.658 195.225 399.936 208.617 398.11 276.854 407.663 277.221 411.991 277.388 412.088 283.803 412.262 295.184 412.677 322.353 428.978 326.616 432.498 325.664 433.651 296.983 434.125 285.185 435.218 257.974 448.576 250.518 456.994 245.82 458.445 200.425 440.622 197.972"/><path class="cls-2" d="M606.99472,257.49335s-12.779,6.14515-28.63745-2.31262c-14.22265-7.58539-19.38281,1.25788-36.36816,9.30353-16.06982,7.61194-15.0918,13.70416-11.64258,13.32092s9.19776-1.14972,9.19776-1.14972-7.27686,2.12-6.89844,6.13184c0,0,.25122,2.207,1.7312,2.4184a20.20256,20.20256,0,0,0-1.91675.93982c-1.92041,1.066-4.50146,2.92236-3.92529,4.96032a2.404,2.404,0,0,0,.21387.53784s.78515,4.327,3.61132,4.88874c.054.01068.10327.02948.15869.03741a40.02231,40.02231,0,0,0,6.44385-.07141c3.0896-.20282,5.98657-.50915,5.98657-.50915s2.53736,3.806,11.20655,3.59454c8.66919-.21143,12.68652-4.44031,19.02978-2.11444,4.74292,1.73907,7.82935-1.24921,9.0857-2.86835a8.1776,8.1776,0,0,0,.64062-.93762s1.17212.49335,2.99414,1.16559a76.91978,76.91978,0,0,0,10.20532,3.04809c3.89087.81989,7.63916,1.082,9.63648-.19623a13.0599,13.0599,0,0,0,1.86059-1.4909C615.20786,290.90406,622.95517,276.38349,606.99472,257.49335Z"/><path class="cls-6" d="M532.51889,296.56983c-.05542-.00793-.10473-.02673-.15869-.03741-2.82617-.56177-3.61132-4.88874-3.61132-4.88874a2.404,2.404,0,0,1-.21387-.53784c-.57617-2.038,2.00488-3.89428,3.92529-4.96032l-28.25342-2.51764-.44775.236-9.64526,5.08343-6.93726,3.65613-8.62378,4.54492-.155,3.59845L476.81943,337.363l34.66773,6.58686,26.69433-18.02728.53369-20.10242.24756-9.32178A40.02231,40.02231,0,0,1,532.51889,296.56983Z"/><path class="cls-7" d="M627.62461,272.53413c-4.16016-5.8935-46.80152-90.4831-74.18921-124.80426s-51.655-33.62781-62.4021-29.46766c-7.55689,2.9253-15.27979-3.23107-19.20191-7.14556.44922,6.6997,1.56836,18.61138-3.41943,28.97076-.82861,1.72113-1.55591,3.35126-2.22436,4.88739-1.73926,4.79584-3.3794,8.74463-3.582,11.07538-.45825,5.27026-2.27563,11.747-3.45776,17.43841a41.03979,41.03979,0,0,0-1.04907,7.86908c0,6.58692,18.374,30.85443,26.69433,44.72156,2.11988,3.5329,3.04517,9.49823,3.24976,16.42389l5.45947.27759,12.438.63244-2.18115,40.45069.44775-.236,28.25342,2.51764a20.20256,20.20256,0,0,1,1.91675-.93982c-1.48-.21143-1.7312-2.4184-1.7312-2.4184-.37842-4.01184,6.89844-6.13184,6.89844-6.13184s-5.74854.76648-9.19776,1.14972-4.42724-5.709,11.64258-13.32092c16.98535-8.04565,22.14551-16.88892,36.36816-9.30353,15.8584,8.45777,28.63745,2.31262,28.63745,2.31262,15.96045,18.89014,8.21314,33.41071,2.61377,38.6966a13.0599,13.0599,0,0,1-1.86059,1.4909c-1.99732,1.27826-5.74561,1.01612-9.63648.19623a19.834,19.834,0,0,1,1.77881,1.698c9.8689,10.88953,10.72364,2.40747,18.62085-2.82684.1482-.09815.29346-.19757.44654-.29328C627.27793,291.25477,631.78476,278.42768,627.62461,272.53413ZM512.5272,240.293c-3.56543,1.16131-7.9126-19.56726-7.9126-19.56726l-1.01489-.18122a3.48931,3.48931,0,0,1-2.71363-2.38232c-1.85205-5.84125-6.87085-22.362-4.30151-22.07654,3.12012.34668,12.6499,18.36328,12.6499,20.79a3.45238,3.45238,0,0,1-1.32471,2.85693.91877.91877,0,0,0-.28979,1.04212C508.87876,224.29188,514.28745,239.71973,512.5272,240.293Z"/><polygon class="cls-4" points="493.502 242.781 488.043 242.503 465.032 241.333 456.994 245.82 448.576 250.518 435.218 257.974 434.125 285.185 433.651 296.983 432.498 325.664 432.098 335.63 476.819 337.363 478.398 300.747 478.553 297.148 487.177 292.603 494.114 288.947 503.759 283.864 505.94 243.413 493.502 242.781"/><path class="cls-5" d="M503.59971,220.54456l1.01489.18122s4.34717,20.72857,7.9126,19.56726c1.76025-.57331-3.64844-16.00116-4.90723-19.51825a.91877.91877,0,0,1,.28979-1.04212,3.45238,3.45238,0,0,0,1.32471-2.85693c0-2.42676-9.52978-20.44336-12.6499-20.79-2.56934-.28546,2.44946,16.23529,4.30151,22.07654A3.48931,3.48931,0,0,0,503.59971,220.54456Z"/><path class="cls-7" d="M435.56479,160.21027c-1.82983-2.61853-3.82641-5.29632-5.81616-7.86987a46.72962,46.72962,0,0,1-7.48682-5.35394c-2.69873,5.76062-5.355,9.89361-5.95776,10.37591-1.416,1.13275-7.36328-1.416-3.11523-12.17743a10.09812,10.09812,0,0,0,.56469-6.36724,9.07753,9.07753,0,0,0-.98755-2.35572,15.64641,15.64641,0,0,0-1.70312.35706c-11.76416,3.25159-17.48975,19.70788-25.07324,30.32483-8.667,12.13373-20.10742,64.13556-31.54761,75.9226a25.3453,25.3453,0,0,0-3.26685,4.13068c3.95337-.05286,8.13038-2.7915,15.25562-2.18506,7.98608.67969,12.937,12.29578,9.69287,14.51276l2.31275,1.43774-2.42359,7.13642c6.217,4.2301-2.37866,7.09893-2.37866,7.09893a4.47279,4.47279,0,0,1,.65576.73969l23.81982.91614,1.82638-68.23664,20.72148-13.39227,10.21411,1.40564,9.75073,1.3418c1.08887-7.615,2.092-15.227,2.60889-20.663.14111-1.48443.24682-2.81018.30713-3.92517C443.75278,169.41523,439.12973,165.312,435.56479,160.21027Z"/><path class="cls-2" d="M474.05747,84.3686a5.84018,5.84018,0,0,0-1.39771-2.0531c-4.81421-4.24793-4.2478,5.38074-4.2478,5.38074-3.68164-.56641-30.302-15.0094-30.302-15.0094,8.779,15.85894-11.61108,31.718-9.62866,47.01049,1.01782,7.85181-1.84742,17.26606-5.06739,24.727q-.572,1.32568-1.1521,2.56214a46.72962,46.72962,0,0,0,7.48682,5.35394c7.02149,4.1604,15.51733,7.51123,19.97241,7.85388,10.29346.79187,12.07251-5.12109,16.46656-15.21948.66845-1.53613,1.39575-3.16626,2.22436-4.88739,4.98779-10.35938,3.86865-22.27106,3.41943-28.97076-.21411-3.19043-.27685-5.20453.54541-5.2959C474.62656,105.57075,476.8729,90.761,474.05747,84.3686Z"/><path class="cls-5" d="M470.39438,70.42127c-5.09765-9.34546-1.69922-21.52282-34.55-26.054,0,0-15.29248-47.2937-50.69189-19.54053s9.62866,42.76257,1.98242,51.25842-35.68286,31.15149-13.5935,47.57685,30.8684,6.51348,30.8684,6.51348a17.71658,17.71658,0,0,1,2.301.99976A14.96385,14.96385,0,0,1,412.766,136.462a9.07753,9.07753,0,0,1,.98755,2.35572,10.09812,10.09812,0,0,1-.56469,6.36724c-4.24805,10.76142,1.69922,13.31018,3.11523,12.17743.60278-.4823,3.259-4.61529,5.95776-10.37591q.57825-1.2345,1.1521-2.56214c3.22-7.46093,6.08521-16.87518,5.06739-24.727C426.49888,104.40479,446.889,88.54578,438.11,72.68684c0,0,26.62036,14.443,30.302,15.0094,0,0-.56641-9.62867,4.2478-5.38074a5.84018,5.84018,0,0,1,1.39771,2.0531A30.26893,30.26893,0,0,0,470.39438,70.42127Z"/><path class="cls-8" d="M462.60556,156.05018c.20264-2.33075,1.84278-6.27954,3.582-11.07538-4.394,10.09839-6.1731,16.01135-16.46656,15.21948-4.45508-.34265-12.95092-3.69348-19.97241-7.85388,1.98975,2.57355,3.98633,5.25134,5.81616,7.86987,3.56494,5.10169,8.188,9.205,7.97364,13.17383-.06031,1.115-.166,2.44074-.30713,3.92517a54.68152,54.68152,0,0,0,15.9165-3.82068C460.32993,167.79719,462.14731,161.32044,462.60556,156.05018Z"/><polygon class="cls-6" points="550.879 309.739 542.345 315.214 542.345 326.646 560.862 327.773 572.294 322.298 571.167 310.705 550.879 309.739"/><circle class="cls-9" cx="459.25994" cy="110.72667" r="1.94759"/><circle class="cls-9" cx="431.99371" cy="116.35303" r="1.94759"/><polygon class="cls-6" points="413.768 256.183 413.08 266.153 436.165 267.294 436.673 257.063 413.768 256.183"/><polygon class="cls-6" points="449.104 279.173 447.895 295.292 481.118 295.527 499.143 286.288 498.606 272.1 478.103 280.725 449.104 279.173"/><polygon class="cls-6" points="448.091 310.363 446.156 323.368 464.213 323.26 464.428 310.793 448.091 310.363"/><polygon class="cls-4" points="494.092 322.615 494.092 330.891 512.395 333.892 527.733 325.625 527.733 316.382 513.116 324.013 494.092 322.615"/><polygon class="cls-4" points="369.309 300.045 368.234 308.858 395.403 310.705 403.81 304.881 403.595 294.456 393.921 300.152 369.309 300.045"/><path class="cls-8" d="M464.06006,155.139c.20264-2.33075,1.84278-6.27954,3.582-11.07538-4.394,10.09839-6.17309,16.01135-16.46655,15.21948-4.45508-.34265-12.95093-3.69348-19.97241-7.85388,1.98975,2.57355,3.98633,5.25134,5.81616,7.86987,3.56494,5.10169,8.188,9.205,7.97363,13.17383-.0603,1.115-.166,2.44074-.30712,3.92517a54.68152,54.68152,0,0,0,15.9165-3.82068C461.78443,166.88605,463.60181,160.4093,464.06006,155.139Z"/><line class="cls-10" x1="0.42066" y1="305.77655" x2="841.88976" y2="385.49841"/><path class="cls-10" d="M841.88976,309.76123,619.96558,295.8371c-7.89722,5.23431-8.752,13.71637-18.62085,2.82684a19.834,19.834,0,0,0-1.77881-1.698,76.91978,76.91978,0,0,1-10.20532-3.04809c-1.822-.67224-2.99414-1.16559-2.99414-1.16559a8.177,8.177,0,0,1-.64063.93762c-1.25634,1.61914-4.34277,4.60742-9.08569,2.86835-6.34326-2.32587-10.36059,1.903-19.02978,2.11444-8.66919.21149-11.20655-3.59455-11.20655-3.59455s-2.897.30634-5.98657.50916l-.24756,9.32178-.53369,20.10241-26.69434,18.02729-34.66772-6.58686-44.72144-1.73339.4004-9.96515-3.52051.95147-16.30078-4.26324.00683.44983-18.7207,14.56048-45.4148-3.81347,2.20093-37.10382-.95508.191c-6.13549-.30677-8.00244-4.27112-8.51049-7.423a13.72041,13.72041,0,0,1-.06519-3.89673,12.75292,12.75292,0,0,1-4.91748-6.26623l-110.17676-6.90918L.42066,296.10657"/><polyline class="cls-10" points="18.572 467.717 17.969 348.436 0.421 346.949"/><polyline class="cls-10" points="205.615 467.717 209.55 364.669 168.307 361.174 168.904 467.717"/><path class="cls-10" d="M496.19239,388.9566,462.53858,386.105a290.79639,290.79639,0,0,1-46.16284,19.9137c16.896,2.18573,36.67382,4.68438,55.37158,6.90179A163.61862,163.61862,0,0,1,496.19239,388.9566Z"/><path class="cls-10" d="M394.37476,467.71654c-16.209-27.8108-40.39795-53.23882-40.39795-53.23882,20.679,2.31372,42.82935-2.08526,62.39893-8.459a290.79639,290.79639,0,0,0,46.16284-19.9137L392.04444,380.132l-109.37866-9.26782c-9.76954,9.65832-9.28955,21.43194-7.25342,33.64929,1.70947,10.25763,31.89892,40.85221,53.57666,63.20311"/><path class="cls-10" d="M514.93824,467.71654V448.96942s18.03442-10.40149,37.62109-22.96283a32.28145,32.28145,0,0,1-1.21313-6.16351l11.01928-25.27954-18.20385-1.54248-47.96924-4.06446a163.61862,163.61862,0,0,0-24.44507,23.96393,85.87946,85.87946,0,0,0-11.99561,19.18628c-5.30444,12.16882-5.59082,23.72533-4.0664,35.60973"/><path class="cls-10" d="M624.69971,399.84521l-31.9187-2.70452-30.41553-2.57715L551.3462,419.84308a32.28145,32.28145,0,0,0,1.21313,6.16351,43.11578,43.11578,0,0,0,14.5,21.81311c11.33545,9.09973,34.87476,9.9643,39.47363,14.94641C613.67334,470.5014,629.1753,426.338,624.69971,399.84521Z"/><polyline class="cls-10" points="0.421 346.949 17.969 348.436 168.307 361.174 209.55 364.669 282.666 370.864 392.044 380.132 462.539 386.105 496.192 388.957 544.162 393.021 562.365 394.564 592.781 397.141 624.7 399.845 841.89 418.258"/><line class="cls-10" x1="841.88976" y1="385.49841" x2="0.42066" y2="305.77655"/><path class="cls-10" d="M377.57813,258.61371c-.03052.02075-.0564.04651-.08814.06561-3.43042,2.05817-11.49145-2.74414-11.49145-2.74414l-1.71509,8.5755a8.0446,8.0446,0,0,1,6.86035,3.77326l6.17456-1.20057c.05347.03522.09742.06946.14893.1045l2.42358-7.13642Z"/><path class="cls-10" d="M377.46729,267.18787c-.05151-.035-.09546-.06928-.14893-.1045l-6.17456,1.20057a8.0446,8.0446,0,0,0-6.86035-3.77326l1.71509-8.5755s8.061,4.80231,11.49145,2.74414c.03174-.0191.05762-.04486.08814-.06561,3.24414-2.217-1.70679-13.83307-9.69287-14.51276-7.12525-.60644-11.30225,2.1322-15.25562,2.18506a7.62873,7.62873,0,0,1-1.55249-.12695,9.523,9.523,0,0,0-7.54638.85754c-3.7732,2.22968-9.26172,8.57556-9.26172,8.57556s-5.14527,0-3.43018,5.31684a53.07278,53.07278,0,0,0,5.65991,11.14819,18.77777,18.77777,0,0,0,1.25684,6.08252,12.75292,12.75292,0,0,0,4.91748,6.26623,13.72041,13.72041,0,0,0,.06519,3.89673c.508,3.15186,2.375,7.11621,8.51049,7.423l.95508-.191,5.04785-1.00952s-2.91577,4.8023,1.71485,4.8023c1.59424,0,4.2041-1.21948,6.94873-2.99347a46.87568,46.87568,0,0,0,6.93408-5.49853c2.36816-2.29914,4.06519-4.56885,4.126-6.08643.17138-4.28778-4.80225-2.74414-4.80225-2.74414a13.80923,13.80923,0,0,0,2.05347-1.578c1.45385-1.35858,2.91406-3.40833,1.51782-5.40033a4.47324,4.47324,0,0,0-.65576-.73969S383.68433,271.418,377.46729,267.18787Z"/><path class="cls-10" d="M414.1316,321.44159l-.4148-27.16876-.17383-11.3805-.0979-6.41583-4.32763-.16644-9.55323-.36743-23.81982-.91614c1.39624,1.992-.064,4.04175-1.51782,5.40033a13.80923,13.80923,0,0,1-2.05347,1.578s4.97363-1.54364,4.80225,2.74414c-.06079,1.51758-1.75782,3.78729-4.126,6.08643a46.87568,46.87568,0,0,1-6.93408,5.49853c-2.74463,1.774-5.35449,2.99347-6.94873,2.99347-4.63062,0-1.71485-4.8023-1.71485-4.8023l-5.04785,1.00952-2.20093,37.10382,45.4148,3.81347,18.7207-14.56048Z"/><path class="cls-10" d="M459.89991,199.51385l-1.45142,45.39466,8.03833-4.48657,23.0105,1.17c-.20459-6.92566-1.12988-12.891-3.24976-16.42389-8.32031-13.86713-26.69433-38.13464-26.69433-44.72156a41.039,41.039,0,0,1,1.04907-7.86908,54.68152,54.68152,0,0,1-15.9165,3.82068c-.51685,5.436-1.52,13.048-2.60889,20.663Z"/><polygon class="cls-10" points="442.077 197.061 432.326 195.719 422.112 194.314 401.391 207.706 399.564 275.943 409.117 276.31 413.445 276.477 413.543 282.892 413.717 294.273 414.132 321.442 430.432 325.705 433.953 324.753 435.105 296.072 435.579 284.274 436.673 257.063 450.031 249.607 458.448 244.909 459.9 199.514 442.077 197.061"/><path class="cls-10" d="M608.44922,256.58221s-12.779,6.14515-28.63745-2.31262c-14.22265-7.58539-19.38281,1.25788-36.36816,9.30353-16.06983,7.61194-15.0918,13.70416-11.64258,13.32092s9.19775-1.14972,9.19775-1.14972-7.27685,2.12-6.89843,6.13184c0,0,.25122,2.207,1.7312,2.4184a20.20256,20.20256,0,0,0-1.91675.93982c-1.92041,1.066-4.50147,2.92236-3.92529,4.96032a2.404,2.404,0,0,0,.21386.53784s.78516,4.327,3.61133,4.88874c.054.01068.10327.02948.15869.03741a40.02231,40.02231,0,0,0,6.44385-.07141c3.0896-.20282,5.98657-.50916,5.98657-.50916s2.53736,3.806,11.20655,3.59455c8.66919-.21143,12.68652-4.44031,19.02978-2.11444,4.74292,1.73907,7.82935-1.24921,9.08569-2.86835a8.177,8.177,0,0,0,.64063-.93762s1.17212.49335,2.99414,1.16559a76.91978,76.91978,0,0,0,10.20532,3.04809c3.89087.81989,7.63916,1.082,9.63648-.19623a13.06046,13.06046,0,0,0,1.86059-1.4909C616.66236,289.99292,624.40967,275.47235,608.44922,256.58221Z"/><path class="cls-10" d="M533.97339,295.65869c-.05542-.00793-.10473-.02673-.15869-.03741-2.82617-.56177-3.61133-4.88874-3.61133-4.88874a2.404,2.404,0,0,1-.21386-.53784c-.57618-2.038,2.00488-3.89428,3.92529-4.96032l-28.25342-2.51764-.44775.236-9.64527,5.08343-6.93725,3.65613-8.62378,4.54492-.155,3.59845-1.57837,36.61627,34.66772,6.58686L539.636,325.01147l.53369-20.10241.24756-9.32178A40.02231,40.02231,0,0,1,533.97339,295.65869Z"/><path class="cls-10" d="M607.19011,231.62453c-15.63474-28.49541-36.50444-65.01118-52.30021-84.8058-27.3877-34.32117-51.655-33.62781-62.4021-29.46766-7.55689,2.9253-15.27979-3.23107-19.20191-7.14556.44922,6.6997,1.56836,18.61138-3.41943,28.97076-.82861,1.72113-1.55591,3.35126-2.22437,4.88739-1.73925,4.79584-3.37939,8.74463-3.582,11.07538-.45825,5.27026-2.27563,11.747-3.45776,17.43841a41.039,41.039,0,0,0-1.04907,7.86908c0,6.58692,18.374,30.85443,26.69433,44.72156,2.11988,3.5329,3.04517,9.49823,3.24976,16.42389l5.45947.27759,12.438.63244-2.18115,40.45069.44775-.236,28.25342,2.51764a20.20256,20.20256,0,0,1,1.91675-.93982c-1.48-.21143-1.7312-2.4184-1.7312-2.4184-.37842-4.01184,6.89843-6.13184,6.89843-6.13184s-5.74853.76648-9.19775,1.14972-4.42725-5.709,11.64258-13.32092c16.98535-8.04565,22.14551-16.88892,36.36816-9.30353,15.8584,8.45777,28.63745,2.31262,28.63745,2.31262,15.96045,18.89014,8.21314,33.41071,2.61377,38.6966a13.06046,13.06046,0,0,1-1.86059,1.4909c-1.99732,1.27826-5.74561,1.01612-9.63648.19623a19.834,19.834,0,0,1,1.77881,1.698c9.8689,10.88953,10.72363,2.40747,18.62085-2.82684.14819-.09815.29346-.19757.44653-.29328,8.32032-5.20019,12.82715-18.02728,8.667-23.92083-1.7608-2.49444-10.41525-19.08675-21.889-39.99846m-93.20842,7.75737c-3.56543,1.16131-7.91259-19.56726-7.91259-19.56726l-1.0149-.18122a3.48932,3.48932,0,0,1-2.71362-2.38232c-1.852-5.84125-6.87085-22.362-4.30151-22.07654,3.12011.34668,12.6499,18.36328,12.6499,20.79a3.45241,3.45241,0,0,1-1.32471,2.85693.91877.91877,0,0,0-.28979,1.04212C510.33326,223.38074,515.742,238.80859,513.98169,239.3819Z"/><polygon class="cls-10" points="494.957 241.87 489.497 241.592 466.487 240.422 458.448 244.909 450.031 249.607 436.673 257.063 435.579 284.274 435.105 296.072 433.953 324.753 433.552 334.719 478.274 336.452 479.852 299.836 480.007 296.237 488.631 291.692 495.568 288.036 505.214 282.953 507.395 242.502 494.957 241.87"/><path class="cls-10" d="M505.0542,219.63342l1.0149.18122s4.34716,20.72857,7.91259,19.56726c1.76026-.57331-3.64843-16.00116-4.90722-19.51825a.91877.91877,0,0,1,.28979-1.04212,3.45241,3.45241,0,0,0,1.32471-2.85693c0-2.42676-9.52979-20.44336-12.6499-20.79-2.56934-.28546,2.44946,16.23529,4.30151,22.07654A3.48932,3.48932,0,0,0,505.0542,219.63342Z"/><path class="cls-10" d="M437.01929,159.29913c-1.82983-2.61853-3.82641-5.29632-5.81616-7.86987a46.72962,46.72962,0,0,1-7.48682-5.35394c-2.69873,5.76062-5.355,9.89361-5.95776,10.37591-1.416,1.13275-7.36328-1.416-3.11524-12.17743a10.09807,10.09807,0,0,0,.5647-6.36724,9.07753,9.07753,0,0,0-.98755-2.35572,15.64592,15.64592,0,0,0-1.70312.35706c-11.76416,3.25158-17.48975,19.70788-25.07324,30.32483-8.667,12.13373-20.10743,64.13556-31.54761,75.9226a25.3453,25.3453,0,0,0-3.26685,4.13068c3.95337-.05286,8.13037-2.7915,15.25562-2.18506,7.98608.67969,12.937,12.29578,9.69287,14.51276l2.31274,1.43774-2.42358,7.13642c6.217,4.2301-2.37866,7.09893-2.37866,7.09893a4.47324,4.47324,0,0,1,.65576.73969l23.81982.91614,1.82638-68.23664,20.72147-13.39227,10.21412,1.40564,9.75073,1.3418c1.08887-7.615,2.092-15.227,2.60889-20.663.14111-1.48443.24682-2.81018.30712-3.92517C445.20728,168.50409,440.58423,164.40082,437.01929,159.29913Z"/><path class="cls-10" d="M475.512,83.45746a5.84018,5.84018,0,0,0-1.39771-2.0531c-4.81421-4.24793-4.2478,5.38074-4.2478,5.38074-3.68164-.56641-30.302-15.0094-30.302-15.0094,8.779,15.85894-11.61109,31.718-9.62866,47.01049,1.01782,7.85181-1.84742,17.26606-5.06739,24.727q-.572,1.32568-1.1521,2.56214a46.72962,46.72962,0,0,0,7.48682,5.35394c7.02148,4.1604,15.51733,7.51123,19.97241,7.85388,10.29346.79187,12.07251-5.12109,16.46655-15.21948.66846-1.53613,1.39576-3.16626,2.22437-4.88739,4.98779-10.35938,3.86865-22.27106,3.41943-28.97076-.21411-3.19043-.27685-5.20453.54541-5.2959C476.08106,104.65961,478.3274,89.84985,475.512,83.45746Z"/><path class="cls-10" d="M471.84888,69.51013c-5.09765-9.34546-1.69922-21.52283-34.55-26.05395,0,0-15.29248-47.2937-50.69189-19.54053s9.62866,42.76257,1.98242,51.25842-35.68286,31.15149-13.59351,47.57685,30.86841,6.51348,30.86841,6.51348a17.71658,17.71658,0,0,1,2.301.99976,14.96385,14.96385,0,0,1,6.05517,5.28668,9.07753,9.07753,0,0,1,.98755,2.35572,10.09807,10.09807,0,0,1-.5647,6.36724c-4.248,10.76142,1.69922,13.31018,3.11524,12.17743.60278-.4823,3.259-4.61529,5.95776-10.37591q.57825-1.2345,1.1521-2.56214c3.22-7.46093,6.08521-16.87518,5.06739-24.727-1.98243-15.29254,18.40771-31.15155,9.62866-47.01049,0,0,26.62036,14.443,30.302,15.0094,0,0-.56641-9.62867,4.2478-5.38074a5.84018,5.84018,0,0,1,1.39771,2.0531A30.26893,30.26893,0,0,0,471.84888,69.51013Z"/><line class="cls-10" x1="371.94223" y1="258.93319" x2="369.8097" y2="265.92315"/><path class="cls-10" d="M365.99854,255.93518s-4.719.03616-5.54828-3.992-10.54418.11847-10.54418.11847"/><path class="cls-10" d="M364.28345,264.51068l-8.69062.10926s-9.83334-3.1988-14.0984-5.68675a35.57863,35.57863,0,0,0-7.22538-3.341"/><path class="cls-10" d="M337.70326,271.25448s2.251,1.89558,14.45382,1.89558,19.25456-1.55755,18.98672-4.86612"/><path class="cls-10" d="M375.08863,274.2868s-20.56207,11.65845-23.76087,11.65845-9.71486-2.01406-9.71486-2.01406"/><line class="cls-10" x1="372.1731" y1="282.00482" x2="357.25171" y2="294.52509"/><path class="cls-10" d="M359.02857,237.9633s30.68475,3.67269,34.12049,15.52009"/><path class="cls-10" d="M440.33,196.94032c4.78551-12.63374-5.74261-36.75269-8.99675-36.94412s-4.40267,24.69322-4.40267,24.69322-.38284-12.44232-2.8713-19.52487-.38284-17.41924-.38284-17.41924"/><path class="cls-10" d="M459.55323,180.44653s2.21587-23.13021,12.744-16.81334,14.35652,14.35652,14.35652,14.35652,8.80534-58.00035,7.65682-61.63733"/><path class="cls-10" d="M540.99878,275.74432s23.94585-8.93559,32.94261-14.86962"/><path class="cls-10" d="M535.83155,284.29456s18.96781,1.08194,22.79621.12484,13.01658-9.95386,18.75919-10.14528"/><path class="cls-10" d="M546.40381,295.07812s25.24053-5.6818,29.06894-7.596,4.01983-2.67988,4.01983-2.67988"/><line class="cls-10" x1="586.36646" y1="292.75226" x2="594.42336" y2="283.07945"/><path class="cls-10" d="M563.22185,251.4951s-38.09264-63.16869-19.33345-95.90156"/><path class="cls-10" d="M395.15483,276.37974s3.44557-107.00394,8.80534-111.98087"/><path class="cls-10" d="M509.36426,218.82153c9.87019-2.10667,24.69824-14.89949,24.69824-14.89949s20.643,44.19338,20.9337,49.13606-29.86911,22.53823-38.37846,13.37432a39.54039,39.54039,0,0,1-9.30387-18.02625"/><polyline class="cls-10" points="506.069 219.815 494.23 222.53 504.116 242.301"/><path class="cls-10" d="M438.98857,397.26809s33.145,7.85014,42.15816,5.52417"/><polyline class="cls-10" points="459.9 199.514 437.826 212.354 401.391 207.706"/><line class="cls-10" x1="437.82559" y1="212.35367" x2="430.43238" y2="325.70483"/><polyline class="cls-10" points="395.418 336.452 394.795 290.274 413.445 276.477"/><line class="cls-10" x1="374.73372" y1="289.1106" x2="394.79519" y2="290.27358"/><path class="cls-10" d="M479.693,260.90824s1.163,32.56355.31432,35.32894l31.66773,5.66624,18.31445-11.70872"/><line class="cls-10" x1="512.94165" y1="343.03876" x2="511.67506" y2="301.90342"/><path class="cls-10" d="M387.52654,274.86405s4.36119-11.62984-.29074-16.57252"/><polyline class="cls-10" points="414.152 309.701 395.667 322.256 350.54 319.745"/><line class="cls-10" x1="405.6144" y1="315.55988" x2="405.55279" y2="328.07055"/><polyline class="cls-10" points="351.21 308.027 395.403 310.705 413.65 297.481"/><polyline class="cls-10" points="413.817 287.604 394.901 300.661 351.88 299.322"/><line class="cls-10" x1="376.15237" y1="320.91662" x2="376.31977" y2="334.30845"/><line class="cls-10" x1="362.42574" y1="320.41442" x2="362.25834" y2="333.30406"/><line class="cls-10" x1="383.68528" y1="310.03575" x2="383.35048" y2="321.08401"/><line class="cls-10" x1="409.46456" y1="300.66147" x2="409.46456" y2="312.54672"/><line class="cls-10" x1="401.76425" y1="296.14172" x2="401.93165" y2="306.52039"/><line class="cls-10" x1="368.45206" y1="299.99188" x2="367.44768" y2="308.69657"/><polyline class="cls-10" points="380.59 300.018 381.622 289.704 399.564 275.943"/><line class="cls-10" x1="390.21689" y1="282.82765" x2="375.94893" y2="282.14004"/><polyline class="cls-10" points="400.875 219.567 437.146 222.662 459.494 211.316"/><polyline class="cls-10" points="409.298 202.893 445.226 207.878 444.882 219.052"/><line class="cls-10" x1="421.15945" y1="204.26793" x2="433.88028" y2="196.01658"/><line class="cls-10" x1="435.0836" y1="206.33077" x2="449.35156" y2="197.90751"/><polyline class="cls-10" points="400.359 232.46 436.287 234.179 458.978 223.349"/><line class="cls-10" x1="446.94491" y1="229.19388" x2="445.91349" y2="251.54128"/><polyline class="cls-10" points="399.843 255.151 434.396 257.042 436.673 257.063 479.693 260.908 507.395 242.502"/><line class="cls-10" x1="410.84526" y1="220.77063" x2="410.15765" y2="232.63194"/><line class="cls-10" x1="420.47183" y1="233.66336" x2="420.98754" y2="221.11443"/><line class="cls-10" x1="428.03557" y1="234.00717" x2="426.48844" y2="256.69838"/><line class="cls-10" x1="426.83225" y1="245.35277" x2="400.18727" y2="244.49326"/><line class="cls-10" x1="451.9301" y1="215.09782" x2="451.41439" y2="227.13104"/><line class="cls-10" x1="454.50865" y1="225.24011" x2="453.82104" y2="247.41561"/><polyline class="cls-10" points="434.001 266.489 433.708 267.872 399.672 265.465"/><line class="cls-10" x1="413.76761" y1="256.18267" x2="413.08" y2="266.15305"/><line class="cls-10" x1="422.70657" y1="267.35637" x2="421.84706" y2="279.21768"/><polyline class="cls-10" points="414.047 291.665 432.18 292.874 435.202 292.068"/><line class="cls-10" x1="420.49408" y1="292.26949" x2="419.08372" y2="322.49158"/><polyline class="cls-10" points="491.818 241.899 465.827 259.831 465.223 269.905 479.528 271.114 506.929 254.794"/><line class="cls-10" x1="450.03052" y1="249.60687" x2="475.49828" y2="252.77929"/><line class="cls-10" x1="476.70717" y1="240.69046" x2="463.61093" y2="251.36893"/><polyline class="cls-10" points="465.223 269.905 464.215 279.979 435.771 278.874 433.021 280.077 413.596 278.358"/><polyline class="cls-10" points="464.215 279.979 480.535 281.188 499.474 271.316 499.877 259.025"/><line class="cls-10" x1="499.14347" y1="286.28754" x2="499.47447" y2="271.31551"/><polyline class="cls-10" points="449.104 279.173 447.895 295.292 435.404 294.486"/><polyline class="cls-10" points="480.007 296.237 447.895 295.292 446.284 334.58"/><line class="cls-10" x1="434.59772" y1="309.39534" x2="479.5279" y2="311.41014"/><line class="cls-10" x1="434.19476" y1="323.09602" x2="478.31901" y2="323.90194"/><line class="cls-10" x1="465.02129" y1="296.09762" x2="463.81241" y2="335.18485"/><polyline class="cls-10" points="540.412 299.112 512.073 313.603 479.87 307.807"/><polyline class="cls-10" points="540.251 308.934 512.717 325.036 478.582 320.205"/><line class="cls-10" x1="494.84437" y1="322.7814" x2="494.2003" y2="339.04418"/><polyline class="cls-10" points="478.743 328.578 512.395 333.892 528.175 324.875"/><line class="cls-10" x1="527.69197" y1="315.85764" x2="528.33604" y2="332.44246"/><line class="cls-10" x1="487.59858" y1="309.41693" x2="486.63247" y2="321.17122"/><line class="cls-10" x1="532.5225" y1="303.45928" x2="533.32759" y2="313.28136"/><polyline class="cls-10" points="526.404 284.298 510.624 295.73 488.631 291.692"/><polyline class="cls-10" points="510.624 295.73 519.963 296.697 520.768 309.095"/><polyline class="cls-10" points="499.353 293.637 492.268 298.146 492.082 310.602"/><path class="cls-10" d="M532.20047,271.09474l-8.05089-.80509-9.339,3.86442,3.38137,8.53394,8.53394.322,7.72884-2.25425s1.82885-3.52246,4.99155-4.66951c0,0-9.5,2.09323-9.98309.322S532.20047,271.09474,532.20047,271.09474Z"/><polyline class="cls-10" points="514.811 274.154 524.15 275.603 532.2 271.095"/><line class="cls-10" x1="524.14958" y1="275.60323" x2="526.72587" y2="283.01004"/><polygon class="cls-10" points="550.879 309.739 542.345 315.214 542.345 326.646 560.862 327.773 572.294 322.298 571.167 310.705 550.879 309.739"/><polyline class="cls-10" points="560.862 327.773 561.345 317.79 571.167 310.705"/><line class="cls-10" x1="541.70051" y1="315.21357" x2="560.70059" y2="317.78985"/><path class="cls-10" d="M440.43326,141.67167s13.41672,3.89518,22.28906-5.62636"/><path class="cls-10" d="M444.97763,131.71734s8.87235-.8656,9.73794-2.59679-.6492-6.27556.4328-7.14115"/><path class="cls-10" d="M437.29883,43.45618s-20.453-1.54427-27.16138,10.35765-19.04308,41.11574-11.68552,53.66686,7.41233,21.78371,7.41233,21.78371"/><path class="cls-10" d="M405.86426,129.2644s25.91306-25.46249,18.5555-47.10235"/><path class="cls-1" d="M662.593,285.01072,627.806,303.1a4.1952,4.1952,0,0,0,1.46458,7.89075l164.801,18.6154a17.23207,17.23207,0,0,0,16.0055-7.17621l19.80778-28.02075Z"/><path class="cls-6" d="M664.38543,285.30946l-34.787,18.08923a4.1952,4.1952,0,0,0,1.46458,7.89075l164.801,18.6154a17.23211,17.23211,0,0,0,16.00551-7.17621l19.80777-28.02075Z"/><path class="cls-10" d="M662.51135,285.22781l-34.787,18.08924a4.1952,4.1952,0,0,0,1.46459,7.89074l164.801,18.6154a17.23206,17.23206,0,0,0,16.0055-7.17621l19.80777-28.02075Z"/><path class="cls-10" d="M627.72436,303.31705s120.9863,18.33165,161.25391,22.07254a23.92418,23.92418,0,0,0,19.928-7.74877l20.897-23.01459"/><polygon class="cls-6" points="194.139 289.902 194.139 302.483 183.515 306.117 166.461 303.601 168.418 292.977 177.644 287.945 194.139 289.902"/><polygon class="cls-6" points="201.128 296.891 199.451 309.752 212.591 311.149 224.053 305.838 225.171 294.655 212.591 293.816 201.128 296.891"/><polygon class="cls-4" points="225.171 268.095 222.655 281.515 211.193 287.386 198.053 287.106 199.171 274.805 211.752 268.654 225.171 268.095"/><polygon class="cls-6" points="236.354 282.912 234.118 298.289 247.258 297.73 259 294.375 261.237 280.117 245.021 280.117 236.354 282.912"/><polygon class="cls-10" points="194.139 289.902 194.139 302.483 183.515 306.117 166.461 303.601 168.418 292.977 177.644 287.945 194.139 289.902"/><polygon class="cls-10" points="201.128 296.891 199.451 309.752 212.591 311.149 224.053 305.838 225.171 294.655 212.591 293.816 201.128 296.891"/><polygon class="cls-10" points="225.171 268.095 222.655 281.515 211.193 287.386 198.053 287.106 199.171 274.805 211.752 268.654 225.171 268.095"/><polygon class="cls-10" points="236.354 282.912 234.118 298.289 247.258 297.73 259 294.375 261.237 280.117 245.021 280.117 236.354 282.912"/><polyline class="cls-10" points="199.171 274.805 211.338 276.643 225.171 268.095"/><line class="cls-10" x1="211.19269" y1="287.3856" x2="211.33778" y2="276.64251"/><polyline class="cls-10" points="201.128 296.891 212.547 299.62 225.171 294.655"/><polyline class="cls-10" points="236.354 282.912 248.425 284.705 261.237 280.117"/><line class="cls-10" x1="247.25784" y1="297.72987" x2="248.42469" y2="284.70488"/><line class="cls-10" x1="212.59056" y1="311.14946" x2="212.54714" y2="299.62027"/><polyline class="cls-10" points="168.418 292.977 183.523 293.977 194.139 289.902"/><line class="cls-10" x1="183.51478" y1="306.11712" x2="183.5226" y2="293.97661"/></g></svg>