<svg width="52" height="53" viewBox="0 0 52 53" fill="none" xmlns="http://www.w3.org/2000/svg">
<path d="M16.1406 4.65915C15.0371 2.92087 12.5078 2.43259 10.8672 3.74118C5.44727 8.06736 2 14.5224 2 21.749H27L16.1406 4.65915ZM50.4375 12.374H45.75C42.3027 12.374 39.5 15.1767 39.5 18.624V24.874H2C2 29.8154 4.24609 34.2881 7.88867 37.6377C4.50977 38.5068 2 41.5439 2 45.1865C2 49.5029 5.49609 52.999 9.8125 52.999C14.1289 52.999 17.625 49.5029 17.625 45.1865C17.625 44.3173 17.4492 43.5068 17.1953 42.7256C19.3047 43.3017 21.5508 43.624 23.875 43.624C26.1992 43.624 28.4551 43.3017 30.5547 42.7256C30.291 43.5068 30.125 44.3173 30.125 45.1865C30.125 49.5029 33.6211 52.999 37.9375 52.999C42.2539 52.999 45.75 49.5029 45.75 45.1865C45.75 41.5439 43.2402 38.5068 39.8613 37.6377C43.5039 34.2881 45.75 29.8154 45.75 24.874V18.624H50.4375C51.2969 18.624 52 17.9209 52 17.0615V13.9365C52 13.0771 51.2969 12.374 50.4375 12.374ZM9.8125 48.3115C8.09375 48.3115 6.6875 46.9052 6.6875 45.1865C6.6875 43.4677 8.09375 42.0615 9.8125 42.0615C11.5312 42.0615 12.9375 43.4677 12.9375 45.1865C12.9375 46.9052 11.5312 48.3115 9.8125 48.3115ZM41.0625 45.1865C41.0625 46.9052 39.6562 48.3115 37.9375 48.3115C36.2188 48.3115 34.8125 46.9052 34.8125 45.1865C34.8125 43.4677 36.2188 42.0615 37.9375 42.0615C39.6562 42.0615 41.0625 43.4677 41.0625 45.1865Z" fill="#70A278"/>
<path d="M13.7186 2.92731L13.7185 2.92713C12.7678 1.4295 10.5776 1.01661 9.17911 2.13196L13.7186 2.92731ZM13.7186 2.92731L24.0899 19.249M13.7186 2.92731L24.0899 19.249M0.505638 19.249C0.660453 12.3898 3.9932 6.27141 9.17897 2.13207L0.505638 19.249ZM0.505638 19.249H24.0899M0.505638 19.249H24.0899M37.5 23.374H38V22.874V16.624C38 13.4529 40.5789 10.874 43.75 10.874H48.4375C49.0207 10.874 49.5 11.3533 49.5 11.9365V15.0615C49.5 15.6447 49.0207 16.124 48.4375 16.124H43.75H43.25V16.624V22.874C43.25 27.6562 41.0776 32.0008 37.5229 35.2696L36.8454 35.8926L37.7368 36.1219C40.9039 36.9366 43.25 39.7814 43.25 43.1865C43.25 47.2268 39.9778 50.499 35.9375 50.499C31.8972 50.499 28.625 47.2268 28.625 43.1865C28.625 42.3828 28.7782 41.6269 29.0284 40.8854L29.3291 39.9946L28.4224 40.2434C26.3647 40.8081 24.1533 41.124 21.875 41.124C19.597 41.124 17.3952 40.8081 15.3271 40.2432L14.4335 39.9991L14.7198 40.8801C14.9633 41.6294 15.125 42.3859 15.125 43.1865C15.125 47.2268 11.8528 50.499 7.8125 50.499C3.77224 50.499 0.5 47.2268 0.5 43.1865C0.5 39.7814 2.84611 36.9366 6.01323 36.1219L6.9046 35.8926L6.22711 35.2696C2.79669 32.1151 0.653605 27.9587 0.507934 23.374H37.5ZM4.1875 43.1865C4.1875 45.1814 5.81761 46.8115 7.8125 46.8115C9.80739 46.8115 11.4375 45.1814 11.4375 43.1865C11.4375 41.1916 9.80739 39.5615 7.8125 39.5615C5.81761 39.5615 4.1875 41.1916 4.1875 43.1865ZM35.9375 46.8115C37.9324 46.8115 39.5625 45.1814 39.5625 43.1865C39.5625 41.1916 37.9324 39.5615 35.9375 39.5615C33.9426 39.5615 32.3125 41.1916 32.3125 43.1865C32.3125 45.1814 33.9426 46.8115 35.9375 46.8115Z" stroke="#3B3D40"/>
</svg>
