<?xml version="1.0" encoding="UTF-8"?>
<svg width="52px" height="42px" viewBox="0 0 52 42" version="1.1" xmlns="http://www.w3.org/2000/svg" xmlns:xlink="http://www.w3.org/1999/xlink">
    <!-- Generator: Sketch 61 (89581) - https://sketch.com -->
    <title>Time-off</title>
    <desc>Created with Sketch.</desc>
    <g id="Page-1" stroke="none" stroke-width="1" fill="none" fill-rule="evenodd">
        <g id="Time-off" fill-rule="nonzero">
            <path d="M11.014,12.6942 L18.9912,15.5988 C21.7404,9.22859 25.7263,4.3263 29.8505,2.02867 C22.3599,1.64664 15.1022,4.91614 10.4343,10.7629 C9.91163,11.4192 10.2265,12.4075 11.014,12.6942 Z M21.3459,16.4566 L39.9769,23.2402 C42.7707,13.7574 41.4379,5.14191 36.6465,3.39818 C36.0684,3.18725 35.4645,3.08569 34.8426,3.08569 C30.3099,3.08647 24.8216,8.48953 21.3459,16.4566 Z M42.7402,6.72549 C43.2261,7.99891 43.5863,9.42859 43.7714,11.0372 C44.2199,14.9348 43.6605,19.4925 42.291,24.0823 L50.3081,27.001 C51.0963,27.2878 51.9729,26.7331 51.9932,25.894 C52.1745,18.4183 48.719,11.2504 42.7402,6.72549 Z M45.7495,36.997 L27.0825,36.997 L32.1559,23.0534 L27.4575,21.3425 L21.7623,36.9962 L3.24999,36.9962 C2.55937,36.9962 2,37.5556 2,38.247 L2,40.7478 C2,41.4384 2.55937,41.9985 3.24999,41.9985 L45.7495,41.9985 C46.4401,41.9985 46.9995,41.4384 46.9995,40.7478 L46.9995,38.247 C46.9995,37.5564 46.4401,36.997 45.7495,36.997 Z" id="Shape" fill="#70A278"></path>
            <path d="M16.7215111,12.9684896 C19.1572622,7.49336341 22.527956,3.06552526 26.160861,0.50420926 C19.4343195,0.654461812 13.0476111,3.78590007 8.82542243,9.07438554 C8.5236036,9.45336979 8.70645121,10.0501279 9.18504876,10.2243678 L9.18506918,10.2243752 L16.7215111,12.9684896 Z M20.0204028,14.1700768 L37.6443056,20.5869899 C40.2004723,11.4511923 38.8142153,3.44701484 34.4751178,1.86789068 C33.9586204,1.67943751 33.4134562,1.58569 32.842686,1.58568999 C28.6359545,1.5864139 23.4236087,6.65358121 20.0204028,14.1700768 Z M41.7388755,6.18613838 C41.9785273,7.07343808 42.1558273,8.0041437 42.2681222,8.98004177 C42.7028606,12.7580492 42.2164101,17.1959178 40.9025602,21.7728401 L48.4790673,24.5311381 C48.9583047,24.7055168 49.4816336,24.3660486 49.493347,23.8818776 C49.6572257,17.1245232 46.7841414,10.6266892 41.7388755,6.18613838 Z M29.5151193,21.3521816 L25.7563703,19.983451 L20.1124517,35.4962 L1.24999,35.4962 C0.835449548,35.4962 0.5,35.8318053 0.5,36.247 L0.5,38.7478 C0.5,39.162489 0.835743755,39.4985 1.24999,39.4985 L43.7495,39.4985 C44.1637375,39.4985 44.4995,39.1624777 44.4995,38.7478 L44.4995,36.247 C44.4995,35.8325424 44.1639576,35.497 43.7495,35.497 L24.3685057,35.497 L29.5151193,21.3521816 Z" id="Shape-Copy" stroke="#3B3D40"></path>
        </g>
    </g>
</svg>