<?xml version="1.0" encoding="utf-8"?>
<!-- Generator: Adobe Illustrator 24.0.3, SVG Export Plug-In . SVG Version: 6.00 Build 0)  -->
<svg version="1.1" xmlns="http://www.w3.org/2000/svg" xmlns:xlink="http://www.w3.org/1999/xlink" x="0px" y="0px"
	 viewBox="0 0 841.89 467.72" style="enable-background:new 0 0 841.89 467.72;" xml:space="preserve">
<style type="text/css">
	.st0{clip-path:url(#SVGID_2_);fill:#4890BA;}
	.st1{clip-path:url(#SVGID_2_);}
	.st2{fill:#F4F4F5;}
	.st3{fill:#F5C65D;}
	.st4{fill:none;}
	.st5{fill:none;stroke:#54565A;stroke-linejoin:round;stroke-miterlimit:10;}
	.st6{fill:none;stroke:#54565A;stroke-miterlimit:10;}
	.st7{fill:#FFFFFF;}
	.st8{fill:#4890BA;stroke:#FFFFFF;stroke-width:3;stroke-linejoin:round;stroke-miterlimit:10;}
	.st9{fill:none;stroke:#FFFFFF;stroke-width:3;stroke-linejoin:round;stroke-miterlimit:10;}
	.st10{fill:none;stroke:#54575C;stroke-width:3;stroke-linejoin:round;stroke-miterlimit:10;}
	.st11{fill:none;stroke:#54565A;stroke-width:3;stroke-linejoin:round;stroke-miterlimit:10;}
	.st12{fill:none;stroke:#54565A;stroke-width:5;stroke-miterlimit:10;}
	.st13{clip-path:url(#SVGID_2_);fill:none;stroke:#54565A;stroke-miterlimit:10;}
	.st14{clip-path:url(#SVGID_2_);fill:none;stroke:#54565A;stroke-linejoin:round;stroke-miterlimit:10;}
	.st15{clip-path:url(#SVGID_2_);fill:#54565A;}
	.st16{clip-path:url(#SVGID_2_);fill:#DCEFFA;}
	.st17{fill:#4890BA;}
	.st18{fill:#F5BAA6;}
	.st19{fill:#E0635D;}
	.st20{fill:none;stroke:#54565A;stroke-width:1.036;stroke-miterlimit:10;}
	.st21{fill:none;stroke:#54565A;stroke-width:1.036;stroke-linejoin:round;stroke-miterlimit:10;}
	.st22{fill:#54565A;}
	.st23{clip-path:url(#SVGID_2_);fill:none;stroke:#FFFFFF;stroke-width:7;stroke-linejoin:round;stroke-miterlimit:10;}
	.st24{clip-path:url(#SVGID_2_);fill:none;stroke:#54565A;stroke-width:7;stroke-linejoin:round;stroke-miterlimit:10;}
	.st25{fill:none;stroke:#54575C;stroke-miterlimit:10;}
</style>
<g id="Layer_1">
</g>
<g id="Layer_2">
</g>
<g id="Layer_3">
	<g>
		<defs>
			<rect id="SVGID_1_" width="841.89" height="467.72"/>
		</defs>
		<clipPath id="SVGID_2_">
			<use xlink:href="#SVGID_1_"  style="overflow:visible;"/>
		</clipPath>
		<rect x="0.03" y="-2.39" class="st0" width="855.01" height="400.04"/>
		<g class="st1">
			<polygon class="st2" points="684.05,256.84 679.41,366.05 691.03,395.09 841.72,399.7 841.14,271.27 742.65,278.67 737,282.11 
							"/>
			<polygon class="st3" points="843.13,373.92 847.89,466.33 141.49,474.1 452.85,393.93 			"/>
			<path class="st4" d="M652.33,391.01l19.9-4c-0.7-0.39-1.42-0.82-2.15-1.31C670.08,385.69,661.41,389.03,652.33,391.01z"/>
			<path class="st4" d="M733.7,299.55c0.64-4.83,1.21-8.85,1.61-11.63c-0.31-0.15-0.63-0.3-0.98-0.46L733.7,299.55z"/>
			<path class="st4" d="M633.94,390.64c0,0-12.38,8.91-22.28,4.46l-49.52,1.49c0,0-0.41,1.03-1.41,2.29l57.37-0.98l31.75-6.39
				C643.37,392.71,637.07,392.99,633.94,390.64z"/>
			<path class="st4" d="M682.89,267.4c0.07-0.57-0.25-1.11-0.79-1.31l-6.49-2.45c-1.5-0.56-3.12,0.45-3.27,2.04l-5.49,44.31
				c0,0,5.35-2.08,10.73-2.18L682.89,267.4z"/>
			<path class="st4" d="M717.46,286.06c0.26-1.67-0.55-3.32-2.03-4.13l-7.33-3.98c-1.97-1.07-4.4,0.09-4.81,2.29l-3.13,37.15
				l-11.59-2.93c3.83,8.22,5.28,22.71,5.28,22.71l8.91,37.14c0,0,6.44-8.91,9.41-2.48c0,0-1.76,4.51-4.82,8.11l22.04-4.43
				c-1.62-8.68-1-24.43,0.37-40.48l-14.73-7.23L717.46,286.06z"/>
			<path class="st4" d="M601.26,296.07c8.42,6.44,5.45,9.41,5.45,9.41s8.43-2.43,17.59-2.84l4.53-47.53
				c0.6-6.29-2.95-12.24-8.76-14.7l-27.13-11.49c-5.44-2.23-11.52,1.32-12.26,7.15l-7.4,58.64
				C582.57,293.25,595.99,292.04,601.26,296.07z"/>
			<path class="st4" d="M398.9,317.01c3.04-11.19,8.16-20.71,16.67-24.41c9.12-3.96,25.84-6.96,44.21-9.07
				c3.21-16.69,16.67-87.03,17.3-97.17c0.6-9.64-78.07-41.5-103.62-51.59c-4.01-1.58-8.43,1.02-9,5.29
				c-4.25,32.08-19.86,145.78-29.12,155.66C337.24,324.15,386.82,318.75,398.9,317.01z"/>
			<path class="st4" d="M541.34,280.72c7.25,2.07,15.22,8.96,19.38,12.94l9.81-65.92c0.89-5.71-2.22-11.29-7.54-13.53l-52.54-22.17
				c-6.91-2.72-14.61,1.44-16.11,8.72l-12.52,80.71C509.66,279.37,535.98,279.19,541.34,280.72z"/>
			<path class="st2" d="M350.71,393.12c-3.96-14.36-3.47-24.26,3.47-23.77s41.1,1.49,41.1,1.49s-0.45-5.1-0.56-12.71l-65.09-5.14
				l-1.74,66.38l162.58-19.19c-31.24-1.77-63.01-3.59-63.01-3.59S354.67,407.48,350.71,393.12z"/>
			<path class="st2" d="M338.91,0.12C476.48,85.14,742.44,249.73,746.17,254c3.51,4.01-0.67,17.1-3.52,24.67
				c10.54-3.83,31.03-3.3,51.44-1.35l47.05-6.05L725.32,0.11L338.91,0.12z"/>
			<path class="st5" d="M737,282.11l-2.31-1.42l-0.36,6.77c0.34,0.16,0.66,0.31,0.98,0.46c0.39-2.69,0.63-4.23,0.63-4.23
				C736.2,283.13,736.56,282.61,737,282.11z"/>
			<path class="st6" d="M210.16,26.64c-0.41-0.21-0.8-0.43-1.2-0.65C209.37,26.31,209.77,26.53,210.16,26.64z"/>
			<path class="st2" d="M394.34,71.25c0,0-87.71-44.21-141.87-71.13h-58.64l-3.6,2.78l-0.94,0.72c0,0,1.1,5.22,6.19,11.42
				c2.96,3.6,7.26,7.53,13.48,10.96c0.39,0.22,0.79,0.43,1.2,0.65c17.99,9.35,159.72,74.83,159.72,74.83s-12.23,12.23-9.35,12.23
				c2.67,0,327.92,152.27,373.81,173.76l0.36-6.77L556.3,170.92L394.34,71.25z"/>
			<path class="st7" d="M351.14-0.33l-98.67,0.45c54.16,26.92,141.87,71.13,141.87,71.13l161.96,99.67L734.69,280.7l2.31,1.42
				c1.25-1.42,3.18-2.55,5.65-3.45c2.85-7.57,8.91-26.45,5.4-30.46c-2.12-2.42-90.43-50.6-189.96-112.38
				C482.1,88.65,410.7,36.48,351.14-0.33z"/>
			<path class="st2" d="M149.87,473.37c0.07-0.86,0.14-1.76,0.22-2.71c0.84-10.51,2.04-26.86,3.17-46.84
				c1.38-24.67,2.64-54.85,2.94-86.36c0.31-33.35,10.48-96.14,21.91-156.6c11.56-61.18,24.41-119.97,29.64-143.47
				c1.53-6.88,2.41-10.75,2.41-10.75c-0.38-0.11-0.78-0.34-1.2-0.65c-6.22-3.43-10.52-7.35-13.48-10.96
				c-5.09-6.2-6.19-11.42-6.19-11.42l0.94-0.72c-2.49-0.77-5.54-1.72-8.95-2.78H63.31C26.78,95.9-9.94,425.52-15.13,473.37H149.87z
				 M80.19,36.91c2.94-15.49,18.64-25.03,33.74-20.5l53.92,16.18c10.58,3.17,17.1,13.77,15.17,24.65l-33.58,189.12
				c-2.23,12.57-14.23,20.95-26.8,18.73l-59.49-10.52c-12.94-2.29-21.52-14.71-19.06-27.63L80.19,36.91z"/>
			<path class="st2" d="M181.19,474.37l125.68-4.25c6.2,0,188.33-34.1,191.08-34.1c2.75,0,124.38,5.77,124.38,5.77l46.95-16.47
				l3.12-21.96l65.98-6.41c-0.56-6.59,2.54-13.72,2.54-13.72l-5.94-0.5c-1.18-1.01-2.03-3.19-2.59-6.22l-22.04,4.43
				c-3.03,3.56-7.34,6.23-12.51,2.78c0,0-8.54,12.11-22.61,4.28l-19.9,4c-0.83,0.18-1.66,0.35-2.48,0.5l-31.75,6.39l-57.37,0.98
				c-1.69,2.14-5.06,4.96-10.97,4.65c-4.42-0.23-31.65-1.77-59.29-3.35l-162.71,13.44l-147.09,23.14l-15.77-7.44l-7.92-3.74
				l-3.72-1.75c-1.12,19.98-2.32,36.33-3.17,46.84c-0.08,0.96-0.15,1.85-0.22,2.71H181.19z"/>
			<path class="st7" d="M229.58,46.79c-4.76-5.95-13.88-8.39-21.84-9.4c-5.23,23.5-18.08,82.29-29.64,143.47
				c-11.43,60.46-21.6,123.25-21.91,156.6c-0.29,31.51-1.55,61.69-2.94,86.36l3.72,1.75l7.92,3.74
				c4.94-54.72,14.33-150.84,14.33-150.84s0.4-0.08,1.06-0.39c2.13-1,6.98-4.43,9.74-15.44c0.04-0.18,0.1-0.39,0.15-0.62
				C194.7,243.58,238.11,57.45,229.58,46.79z"/>
			<path class="st2" d="M329.63,352.99l65.09,5.14c-0.15-11.03,0.43-27.33,4.18-41.12c-12.08,1.74-61.66,7.14-63.55-21.28
				c-0.75,0.8-2.22,1.39-4.27,1.81L329.63,352.99z"/>
			<path class="st2" d="M308.6,297.81c-37.88-2.62-104.33-15.08-128.32-19.74c-0.65,0.31-1.06,0.39-1.06,0.39
				s-9.39,96.12-14.33,150.84l15.77,7.44l147.23-17.38l1.74-66.38l1.45-55.45C326.35,298.5,318.45,298.49,308.6,297.81z"/>
			<path class="st2" d="M360.53,113.7c-2.88,0,9.35-12.23,9.35-12.23S228.14,36,210.16,26.64c0,0-0.88,3.86-2.41,10.75
				c7.96,1,17.08,3.45,21.84,9.4c8.53,10.66-34.88,196.79-39.42,215.23c-0.06,0.23-0.11,0.44-0.15,0.62
				c-2.75,11.01-7.6,14.43-9.74,15.44c23.99,4.66,90.44,17.12,128.32,19.74c9.85,0.68,17.75,0.69,22.48-0.27
				c2.04-0.41,3.51-1,4.27-1.81c9.26-9.88,24.88-123.58,29.12-155.66c0.57-4.27,4.99-6.87,9-5.29
				c19.49,7.69,70.25,30.18,93.24,40.42c6.82,3.04,10.7,10.33,9.39,17.69c-4.37,24.58-13.86,77.92-16.31,90.66
				c7.21-0.83,14.68-1.52,22.04-2.07l12.52-80.71c1.5-7.28,9.2-11.44,16.11-8.72L563,214.2c5.32,2.25,8.43,7.82,7.54,13.53
				l-9.81,65.92c1.8,1.73,2.9,2.91,2.9,2.91s4.09-0.97,9.65-1.85l7.4-58.64c0.74-5.84,6.81-9.39,12.26-7.15l27.13,11.49
				c5.82,2.46,9.36,8.41,8.76,14.7l-4.53,47.53c6.85-0.31,14.11,0.51,18.55,4.32c0,0,19.29-1.87,24.01,3.03l5.49-44.31
				c0.15-1.59,1.77-2.61,3.27-2.04l6.49,2.45c0.54,0.2,0.86,0.75,0.79,1.31l-5.3,40.41c3.36-0.06,6.74,0.64,8.83,3.12
				c0.79,0.93,1.5,2.15,2.15,3.54l11.59,2.93l3.13-37.15c0.41-2.2,2.85-3.36,4.81-2.29l7.33,3.98c1.48,0.81,2.3,2.46,2.03,4.13
				l-2.43,41.74l14.73,7.23c1.09-12.8,2.66-25.77,3.95-35.47l0.64-12.09C688.45,265.97,363.2,113.7,360.53,113.7z"/>
			<path class="st6" d="M652.33,391.01l-2.48,0.5C650.68,391.35,651.51,391.19,652.33,391.01z"/>
			<path class="st3" d="M843.66,297.57c0-7.78-5.67-14.4-13.36-15.6c-10.32-1.62-23.25-3.42-36.21-4.66
				c-20.41-1.95-40.9-2.48-51.44,1.35c-2.47,0.9-4.4,2.03-5.65,3.45c-0.43,0.49-0.79,1.01-1.06,1.57c0,0-0.24,1.55-0.63,4.23
				c-0.4,2.78-0.97,6.8-1.61,11.63c-1.28,9.7-2.85,22.68-3.95,35.47c-1.37,16.05-1.99,31.81-0.37,40.48
				c0.57,3.04,1.41,5.22,2.59,6.22l5.94,0.5c0,0-3.1,7.13-2.54,13.72c0.36,4.26,2.25,8.3,7.49,10.05c1.17,0.39,2.92,0.66,5.11,0.83
				c21.1,1.66,84.39-5.98,93.74-7.13c0.75-0.09,1.17-0.15,1.17-0.15l0.77-11.44V297.57z"/>
			<path class="st2" d="M843.66,446.24l-1.94-46.54c-9.34,1.15-72.64,8.78-93.74,7.13l0.83,44.72h94.85V446.24z"/>
			<g>
				<polygon class="st2" points="725.32,0.11 841.14,271.27 843.66,220.86 766.28,0.11 				"/>
				<path class="st2" d="M843.66,0.12l-32.55,0c5.92,23.76,20.01,80.32,32.55,130.88V0.12z"/>
				<path class="st7" d="M843.66,131C831.12,80.43,822.01,20.6,816.09-3.16l-56.7,2.84l84.27,221.19l0-0.07V131z"/>
			</g>
			<g>
				<path class="st8" d="M699.95,347.05l3.2-66.33c0.41-2.2,2.85-3.36,4.81-2.29l7.33,3.98c1.48,0.81,2.3,2.46,2.03,4.13l-0.96,51.2
					"/>
				<path class="st9" d="M666.72,310.47l5.49-44.31c0.15-1.59,1.77-2.61,3.27-2.04l6.49,2.45c0.54,0.2,0.86,0.75,0.79,1.31
					l-5.3,40.41"/>
				<path class="st9" d="M573.13,295.2l7.4-58.64c0.74-5.84,6.81-9.39,12.26-7.15l27.13,11.49c5.82,2.46,9.36,8.41,8.76,14.7
					l-4.53,47.53"/>
				<path class="st9" d="M481.69,281.95l12.52-80.71c1.5-7.28,9.2-11.44,16.11-8.72l52.54,22.17c5.32,2.25,8.43,7.82,7.54,13.53
					l-9.81,65.92"/>
				<path class="st9" d="M459.64,284.02c2.45-12.73,11.95-66.07,16.31-90.66c1.31-7.35-2.57-14.65-9.39-17.69
					c-22.99-10.23-73.75-32.72-93.24-40.42c-4.01-1.58-8.43,1.02-9,5.29c-4.25,32.08-19.86,145.78-29.12,155.66
					c0,0-2.98,24.63,63.69,20.8"/>
			</g>
			<g>
				<path class="st8" d="M702.45,347.05l3.2-66.33c0.41-2.2,2.85-3.36,4.81-2.29l7.33,3.98c1.48,0.81,2.3,2.46,2.03,4.13l-0.96,51.2
					"/>
				<path class="st10" d="M704,346.79l3.2-66.33c0.41-2.2,2.85-3.36,4.81-2.29l7.33,3.98c1.48,0.81,2.3,2.46,2.03,4.13l-0.96,51.2"
					/>
				<path class="st11" d="M669.21,310.47l5.49-44.31c0.15-1.59,1.77-2.61,3.27-2.04l6.49,2.45c0.54,0.2,0.86,0.75,0.79,1.31
					l-5.3,40.41"/>
				<path class="st11" d="M575.63,295.2l7.4-58.64c0.74-5.84,6.81-9.39,12.26-7.15l27.13,11.49c5.82,2.46,9.36,8.41,8.76,14.7
					l-4.53,47.53"/>
				<path class="st11" d="M484.19,281.95l12.52-80.71c1.5-7.28,9.2-11.44,16.11-8.72l52.54,22.17c5.32,2.25,8.43,7.82,7.54,13.53
					l-9.81,65.92"/>
				<path class="st11" d="M462.14,284.02c2.45-12.73,11.95-66.07,16.31-90.66c1.31-7.35-2.57-14.65-9.39-17.69
					c-22.99-10.23-73.75-32.72-93.24-40.42c-4.01-1.58-8.43,1.02-9,5.29c-4.25,32.08-19.86,145.78-29.12,155.66
					c0,0-2.98,24.63,63.69,20.8"/>
			</g>
			<path class="st7" d="M707.44,370.37l-8.91-37.14c0,0-1.45-14.49-5.28-22.71c-0.65-1.39-1.36-2.61-2.15-3.54
				c-2.09-2.47-5.47-3.18-8.83-3.12c-5.38,0.1-10.73,2.18-10.73,2.18c-4.71-4.89-24.01-3.03-24.01-3.03
				c-4.45-3.81-11.71-4.63-18.55-4.32c-9.16,0.41-17.59,2.84-17.59,2.84s2.97-2.97-5.45-9.41c-5.27-4.03-18.69-2.82-27.99-1.35
				c-5.56,0.88-9.65,1.85-9.65,1.85s-1.09-1.18-2.9-2.91c-4.16-3.98-12.13-10.87-19.38-12.94c-5.36-1.53-31.69-1.35-59.52,0.75
				c-7.36,0.56-14.83,1.25-22.04,2.07c-18.37,2.11-35.09,5.11-44.21,9.07c-8.51,3.69-13.63,13.22-16.67,24.41
				c-3.75,13.79-4.33,30.09-4.18,41.12c0.1,7.61,0.56,12.71,0.56,12.71s-34.17-0.99-41.1-1.49s-7.43,9.41-3.47,23.77
				c3.96,14.36,76.75,3.47,76.75,3.47s31.77,1.81,63.01,3.59c27.65,1.57,54.88,3.11,59.29,3.35c5.92,0.31,9.28-2.51,10.97-4.65
				c1-1.26,1.41-2.29,1.41-2.29l49.52-1.49c9.9,4.46,22.28-4.46,22.28-4.46c3.13,2.35,9.44,2.06,15.92,0.86l2.48-0.5
				c9.08-1.97,17.75-5.32,17.75-5.32c0.73,0.5,1.44,0.92,2.15,1.31c14.07,7.83,22.61-4.28,22.61-4.28
				c5.17,3.44,9.48,0.78,12.51-2.78c3.07-3.6,4.82-8.11,4.82-8.11C713.88,361.46,707.44,370.37,707.44,370.37z"/>
			<path class="st3" d="M697.63,376.53l-8.91-37.14c0,0-1.45-14.49-5.28-22.71c-0.65-1.39-1.36-2.61-2.15-3.54
				c-2.09-2.47-5.47-3.18-8.83-3.12c-5.38,0.1-10.73,2.18-10.73,2.18c-4.71-4.89-24.01-3.03-24.01-3.03
				c-4.45-3.81-11.71-4.63-18.55-4.32c-9.16,0.41-17.59,2.84-17.59,2.84s2.97-2.97-5.45-9.41c-5.27-4.03-18.69-2.82-27.99-1.35
				c-5.56,0.88-9.65,1.85-9.65,1.85s-1.09-1.18-2.9-2.91c-4.16-3.98-12.13-10.87-19.38-12.94c-5.36-1.53-31.69-1.35-59.52,0.75
				c-7.36,0.56-14.83,1.25-22.04,2.07c-18.37,2.11-35.09,5.11-44.21,9.07c-8.51,3.69-13.63,13.22-16.67,24.41
				c-3.75,13.79-4.33,30.09-4.18,41.12c0.1,7.61,0.56,12.71,0.56,12.71s-34.17-0.99-41.1-1.49s-7.43,9.41-3.47,23.77
				c3.96,14.36,76.75,3.47,76.75,3.47s31.77,1.81,63.01,3.59c27.65,1.57,54.88,3.11,59.29,3.35c5.92,0.31,9.28-2.51,10.97-4.65
				c1-1.26,1.41-2.29,1.41-2.29l49.52-1.49c9.9,4.46,22.28-4.46,22.28-4.46c3.13,2.35,9.44,2.06,15.92,0.86l2.48-0.5
				c9.08-1.97,17.75-5.32,17.75-5.32c0.73,0.5,1.44,0.92,2.15,1.31c14.07,7.83,22.61-4.28,22.61-4.28
				c5.17,3.44,9.48,0.78,12.51-2.78c3.07-3.6,4.82-8.11,4.82-8.11C704.06,367.62,697.63,376.53,697.63,376.53z"/>
			<path class="st2" d="M67.19-1.31L2.76,354.23c0,0-2.57-150.29-2.57-154.14S47.72-5.43,47.72-5.43L67.19-1.31z"/>
		</g>
		<g class="st1">
			<path class="st4" d="M654.54,391.58l19.9-4c-0.7-0.39-1.42-0.82-2.15-1.31C672.28,386.26,663.61,389.61,654.54,391.58z"/>
			<path class="st4" d="M735.9,300.12c0.64-4.83,1.21-8.85,1.61-11.63c-0.31-0.15-0.63-0.3-0.98-0.46L735.9,300.12z"/>
			<path class="st4" d="M636.14,391.21c0,0-12.38,8.91-22.28,4.46l-49.52,1.49c0,0-0.41,1.03-1.41,2.29l57.37-0.98l31.75-6.39
				C645.58,393.28,639.27,393.56,636.14,391.21z"/>
			<path class="st4" d="M685.09,267.97c0.07-0.57-0.25-1.11-0.79-1.31l-6.49-2.45c-1.5-0.56-3.12,0.45-3.27,2.04l-5.49,44.31
				c0,0,5.35-2.08,10.73-2.18L685.09,267.97z"/>
			<path class="st4" d="M719.66,286.63c0.26-1.67-0.55-3.32-2.03-4.13l-7.33-3.98c-1.97-1.07-4.4,0.09-4.81,2.29l-3.13,37.15
				l-11.59-2.93c3.83,8.22,5.28,22.71,5.28,22.71l8.91,37.14c0,0,6.44-8.91,9.41-2.48c0,0-1.76,4.51-4.82,8.11l22.04-4.43
				c-1.62-8.68-1-24.43,0.37-40.48l-14.73-7.23L719.66,286.63z"/>
			<path class="st4" d="M603.46,296.64c8.42,6.44,5.45,9.41,5.45,9.41s8.43-2.43,17.59-2.84l4.53-47.53
				c0.6-6.29-2.95-12.24-8.76-14.7l-27.13-11.49c-5.44-2.23-11.52,1.32-12.26,7.15l-7.4,58.64
				C584.77,293.82,598.19,292.61,603.46,296.64z"/>
			<path class="st4" d="M401.1,317.58c3.04-11.19,8.16-20.71,16.67-24.41c9.12-3.96,25.84-6.96,44.21-9.07
				c3.21-16.69,16.67-87.03,17.3-97.17c0.6-9.64-78.07-41.5-103.62-51.59c-4.01-1.58-8.43,1.02-9,5.29
				c-4.25,32.08-19.86,145.78-29.12,155.66C339.44,324.72,389.02,319.32,401.1,317.58z"/>
			<path class="st4" d="M543.54,281.29c7.25,2.07,15.22,8.96,19.38,12.94l9.81-65.92c0.89-5.71-2.22-11.29-7.54-13.53l-52.54-22.17
				c-6.91-2.72-14.61,1.44-16.11,8.72l-12.52,80.71C511.86,279.94,538.18,279.76,543.54,281.29z"/>
			<path class="st4" d="M352.91,393.69c-3.96-14.36-3.47-24.26,3.47-23.77s41.1,1.49,41.1,1.49s-0.45-5.1-0.56-12.71l-65.09-5.14
				l-1.74,66.38l162.58-19.19c-31.24-1.77-63.01-3.59-63.01-3.59S356.87,408.05,352.91,393.69z"/>
			<path class="st5" d="M151.65,246.93l33.58-189.12c1.93-10.88-4.59-21.47-15.17-24.65l-53.92-16.18
				c-15.1-4.53-30.8,5.01-33.74,20.5L46.3,227.51c-2.45,12.91,6.12,25.34,19.06,27.63l59.49,10.52
				C137.42,267.88,149.42,259.5,151.65,246.93z"/>
			<path class="st5" d="M341.11,0.69c137.58,85.02,403.53,249.61,407.26,253.88c3.51,4.01-0.67,17.1-3.52,24.67
				c10.54-3.83,31.03-3.3,51.44-1.35l47.05-6.05L727.52,0.68L341.11,0.69z"/>
			<path class="st5" d="M739.2,282.69l-2.31-1.42l-0.36,6.77c0.34,0.16,0.66,0.31,0.98,0.46c0.39-2.69,0.63-4.23,0.63-4.23
				C738.41,283.7,738.76,283.18,739.2,282.69z"/>
			<polyline class="st12" points="-4.65,210.99 -2.48,201.86 45.42,0.69 			"/>
			<path class="st6" d="M212.36,27.22c-0.41-0.21-0.8-0.43-1.2-0.65C211.58,26.88,211.98,27.11,212.36,27.22z"/>
			<path class="st5" d="M396.55,71.82c0,0-87.71-44.21-141.87-71.13h-58.64l-3.6,2.78l-0.94,0.72c0,0,1.1,5.22,6.19,11.42
				c2.96,3.6,7.26,7.53,13.48,10.96c0.39,0.22,0.79,0.43,1.2,0.65c17.99,9.35,159.72,74.83,159.72,74.83s-12.23,12.23-9.35,12.23
				c2.67,0,327.92,152.27,373.81,173.76l0.36-6.77L558.51,171.49L396.55,71.82z"/>
			<path class="st5" d="M341.11,0.69h-86.44c54.16,26.92,141.87,71.13,141.87,71.13l161.96,99.67l178.38,109.78l2.31,1.42
				c1.25-1.42,3.18-2.55,5.65-3.45c2.85-7.57,7.03-20.66,3.52-24.67c-2.12-2.42-88.55-56.39-188.08-118.17
				C484.3,89.22,400.67,37.5,341.11,0.69z"/>
			<path class="st5" d="M152.08,473.94c0.07-0.86,0.14-1.76,0.22-2.71c0.84-10.51,2.04-26.86,3.17-46.84
				c1.38-24.67,2.64-54.85,2.94-86.36c0.31-33.35,10.48-96.14,21.91-156.6c11.56-61.18,24.41-119.97,29.64-143.47
				c1.53-6.88,2.41-10.75,2.41-10.75c-0.38-0.11-0.78-0.34-1.2-0.65c-6.22-3.43-10.52-7.35-13.48-10.96
				c-5.09-6.2-6.19-11.42-6.19-11.42l0.94-0.72c-2.49-0.77-5.54-1.72-8.95-2.78H65.51C28.98,96.47-7.74,426.1-12.93,473.94H152.08z
				 M82.39,37.48c2.94-15.49,18.64-25.03,33.74-20.5l53.92,16.18c10.58,3.17,17.1,13.77,15.17,24.65l-33.58,189.12
				c-2.23,12.57-14.23,20.95-26.8,18.73l-59.49-10.52c-12.94-2.29-21.52-14.71-19.06-27.63L82.39,37.48z"/>
			<path class="st6" d="M180.4,473.94l125.68-4.25c6.2,0,184.48-36.48,187.23-36.48c2.75,0,129.54,4.52,129.54,4.52L668.19,420
				l3.41-17.07l65.98-6.41c-0.56-6.59,2.54-13.72,2.54-13.72l-5.94-0.5c-1.18-1.01-2.03-3.19-2.59-6.22l-22.04,4.43
				c-3.03,3.56-7.34,6.23-12.51,2.78c0,0-8.54,12.11-22.61,4.28l-19.9,4c-0.83,0.18-1.66,0.35-2.48,0.5l-31.75,6.39l-57.37,0.98
				c-1.69,2.14-5.06,4.96-10.97,4.65c-4.42-0.23-31.65-1.77-59.29-3.35l-162.58,19.19l-147.23,17.38l-15.77-7.44l-7.92-3.74
				l-3.72-1.75c-1.12,19.98-2.32,36.33-3.17,46.84c-0.08,0.96-0.15,1.85-0.22,2.71H180.4z"/>
			<path class="st6" d="M231.79,47.36c-4.76-5.95-13.88-8.39-21.84-9.4c-5.23,23.5-18.08,82.29-29.64,143.47
				c-11.43,60.46-21.6,123.25-21.91,156.6c-0.29,31.51-1.55,61.69-2.94,86.36l3.72,1.75l7.92,3.74
				c4.94-54.72,14.33-150.84,14.33-150.84s0.4-0.08,1.06-0.39c2.13-1,6.98-4.43,9.74-15.44c0.04-0.18,0.1-0.39,0.15-0.62
				C196.9,244.15,240.31,58.02,231.79,47.36z"/>
			<path class="st6" d="M331.83,353.56l65.09,5.14c-0.15-11.03,0.43-27.33,4.18-41.12c-12.08,1.74-61.66,7.14-63.55-21.28
				c-0.75,0.8-2.22,1.39-4.27,1.81L331.83,353.56z"/>
			<path class="st6" d="M310.8,298.38c-37.88-2.62-104.33-15.08-128.32-19.74c-0.65,0.31-1.06,0.39-1.06,0.39
				s-9.39,96.12-14.33,150.84l15.77,7.44l147.23-17.38l1.74-66.38l1.45-55.45C328.55,299.07,320.65,299.06,310.8,298.38z"/>
			<path class="st6" d="M362.73,114.27c-2.88,0,9.35-12.23,9.35-12.23S230.35,36.57,212.36,27.22c0,0-0.88,3.86-2.41,10.75
				c7.96,1,17.08,3.45,21.84,9.4c8.53,10.66-34.88,196.79-39.42,215.23c-0.06,0.23-0.11,0.44-0.15,0.62
				c-2.75,11.01-7.6,14.43-9.74,15.44c23.99,4.66,90.44,17.12,128.32,19.74c9.85,0.68,17.75,0.69,22.48-0.27
				c2.04-0.41,3.51-1,4.27-1.81c9.26-9.88,24.88-123.58,29.12-155.66c0.57-4.27,4.99-6.87,9-5.29
				c19.49,7.69,70.25,30.18,93.24,40.42c6.82,3.04,10.7,10.33,9.39,17.69c-4.37,24.58-13.86,77.92-16.31,90.66
				c7.21-0.83,14.68-1.52,22.04-2.07l12.52-80.71c1.5-7.28,9.2-11.44,16.11-8.72l52.54,22.17c5.32,2.25,8.43,7.82,7.54,13.53
				l-9.81,65.92c1.8,1.73,2.9,2.91,2.9,2.91s4.09-0.97,9.65-1.85l7.4-58.64c0.74-5.84,6.81-9.39,12.26-7.15l27.13,11.49
				c5.82,2.46,9.36,8.41,8.76,14.7l-4.53,47.53c6.85-0.31,14.11,0.51,18.55,4.32c0,0,19.29-1.87,24.01,3.03l5.49-44.31
				c0.15-1.59,1.77-2.61,3.27-2.04l6.49,2.45c0.54,0.2,0.86,0.75,0.79,1.31l-5.3,40.41c3.36-0.06,6.74,0.64,8.83,3.12
				c0.79,0.93,1.5,2.15,2.15,3.54l11.59,2.93l3.13-37.15c0.41-2.2,2.85-3.36,4.81-2.29l7.33,3.98c1.48,0.81,2.3,2.46,2.03,4.13
				l-2.43,41.74l14.73,7.23c1.09-12.8,2.66-25.77,3.95-35.47l0.64-12.09C690.65,266.55,365.4,114.27,362.73,114.27z"/>
			<path class="st6" d="M654.54,391.58l-2.48,0.5C652.88,391.92,653.71,391.76,654.54,391.58z"/>
			<path class="st6" d="M704.97,374.87l-8.91-37.14c0,0-1.45-14.49-5.28-22.71c-0.65-1.39-1.36-2.61-2.15-3.54
				c-2.09-2.47-5.47-3.18-8.83-3.12c-5.38,0.1-10.73,2.18-10.73,2.18c-4.71-4.89-24.01-3.03-24.01-3.03
				c-4.45-3.81-11.71-4.63-18.55-4.32c-9.16,0.41-17.59,2.84-17.59,2.84s2.97-2.97-5.45-9.41c-5.27-4.03-18.69-2.82-27.99-1.35
				c-5.56,0.88-9.65,1.85-9.65,1.85s-1.09-1.18-2.9-2.91c-4.16-3.98-12.13-10.87-19.38-12.94c-5.36-1.53-31.69-1.35-59.52,0.75
				c-7.36,0.56-14.83,1.25-22.04,2.07c-18.37,2.11-35.09,5.11-44.21,9.07c-8.51,3.69-13.63,13.22-16.67,24.41
				c-3.75,13.79-4.33,30.09-4.18,41.12c0.1,7.61,0.56,12.71,0.56,12.71s-34.17-0.99-41.1-1.49s-7.43,9.41-3.47,23.77
				c3.96,14.36,76.75,3.47,76.75,3.47s31.77,1.81,63.01,3.59c27.65,1.57,54.88,3.11,59.29,3.35c5.92,0.31,9.28-2.51,10.97-4.65
				c1-1.26,1.41-2.29,1.41-2.29l49.52-1.49c9.9,4.46,22.28-4.46,22.28-4.46c3.13,2.35,9.44,2.06,15.92,0.86l2.48-0.5
				c9.08-1.97,17.75-5.32,17.75-5.32c0.73,0.5,1.44,0.92,2.15,1.31c14.07,7.83,22.61-4.28,22.61-4.28
				c5.17,3.44,9.48,0.78,12.51-2.78c3.07-3.6,4.82-8.11,4.82-8.11C711.4,365.96,704.97,374.87,704.97,374.87z"/>
			<path class="st6" d="M845.86,298.14c0-7.78-5.67-14.4-13.36-15.6c-10.32-1.62-23.25-3.42-36.21-4.66
				c-20.41-1.95-40.9-2.48-51.44,1.35c-2.47,0.9-4.4,2.03-5.65,3.45c-0.43,0.49-0.79,1.01-1.06,1.57c0,0-0.24,1.55-0.63,4.23
				c-0.4,2.78-0.97,6.8-1.61,11.63c-1.28,9.7-2.85,22.68-3.95,35.47c-1.37,16.05-1.99,31.81-0.37,40.48
				c0.57,3.04,1.41,5.22,2.59,6.22l5.94,0.5c0,0-3.1,7.13-2.54,13.72c0.36,4.26,2.25,8.3,7.49,10.05c1.17,0.39,2.92,0.66,5.11,0.83
				c21.1,1.66,84.39-5.98,93.74-7.13c0.75-0.09,1.17-0.15,1.17-0.15l0.77-11.44V298.14z"/>
			<path class="st6" d="M845.86,446.82l-1.94-46.54c-9.34,1.15-72.64,8.78-93.74,7.13l0.83,44.72h94.85V446.82z"/>
			<g>
				<polygon class="st5" points="727.52,0.68 843.34,271.84 845.86,221.43 768.48,0.68 				"/>
				<path class="st5" d="M845.86,0.69l-32.55,0c5.92,23.76,20.01,80.32,32.55,130.88V0.69z"/>
				<path class="st5" d="M845.86,131.57C833.32,81.01,819.24,24.45,813.32,0.69l-44.83,0l77.38,220.75l0-0.07V131.57z"/>
			</g>
		</g>
		<path class="st13" d="M413.2,296.25l136.16-1.13c5.33-0.08,9.76,4.08,10.03,9.41l2.07,41.71l-17.79,0.42
			c0,0,14.83,41.09,11.44,42.78c-3.39,1.69-25.42-3.81-27.53-0.42c-2.12,3.39-5.93,12.28,2.97,14.4"/>
		<path class="st13" d="M547.47,379.69c0,0-101.24-11.44-109.71-8.05c-8.47,3.39-8.11,25.51-8.11,25.51"/>
		<line class="st13" x1="437.76" y1="371.65" x2="397.47" y2="371.41"/>
		<path class="st13" d="M488.17,295.4c0,0-23.3,64.39-19.06,75.4"/>
		<path class="st13" d="M562.93,294.23c0,0,13.77,20.23,8.69,57.93c-1.89,14.01-7.28,45-7.28,45"/>
		<path class="st13" d="M608.9,306.05c0,0,11.61,65.36,4.95,89.62"/>
		<path class="st13" d="M566.96,300.91c0,0,29.23-6.78,33.89-0.85c4.66,5.93,5.51,47.02,5.51,47.02h-12.3
			c-1.57,0-2.37,1.89-1.27,3.01l7.22,4.19l2.54,30.08l-16.93-1.88c-3-0.33-5.49,2.27-5.03,5.25v0c0.47,3.05,2.83,5.46,5.87,5.99
			l14.4,2.5"/>
		<path class="st13" d="M647.87,306.84l10.17,42.36l9.74,3.39l-5.08,6.78l0.42,18.64c0,0,12.28-7.2,11.44-0.42
			c-0.85,6.78-5.08,8.9-5.08,8.9"/>
		<path class="st13" d="M610.17,314.46l27.5-2.6c2.25-0.21,4.33,1.22,4.94,3.4c2.43,8.71,7.66,29.63,2.3,30.97
			c-6.78,1.69-12.71,4.66-12.71,4.66l9.74,27.11c0,0-24.57-5.51-22.03,0.85c2.54,6.35,16.23,12.37,16.23,12.37"/>
		<path class="st13" d="M669.06,310.56c0,0,13.54,35.67,19.05,69.13c0,0,7.2-5.51,9.32-1.27c2.12,4.24-0.38,4.87-0.38,4.87"/>
		<path class="st13" d="M708.02,377.15c0,0-7.2,4.66-8.9-3.39c-1.69-8.05-6.35-47.44-10.17-50.41c0,0,2.97-12.71-19.49-9.32"/>
		<line class="st13" x1="688.95" y1="323.36" x2="672.43" y2="321.24"/>
		<path class="st13" d="M651.68,318.27c0,0,17.37-2.97,17.79,0.85l2.97,2.12l15.67,58.46"/>
		<path class="st13" d="M543.66,346.65h-1.65c-2.32,0-3.96,2.26-3.24,4.47l11.25,34.5l-19.49,2.54"/>
		<line class="st13" x1="592.78" y1="350.09" x2="597.88" y2="383.08"/>
		<path class="st13" d="M396.55,71.82c0,0,5.33,9.62-0.64,16.44c-5.97,6.82-33.17,26.01-33.17,26.01"/>
		<path class="st13" d="M229.58-1.29c5.97,2.56,166.32,89.56,166.32,89.56"/>
		<line class="st13" x1="196.03" y1="0.69" x2="383.96" y2="96.79"/>
		<line class="st14" x1="602.58" y1="195.79" x2="627.05" y2="178.67"/>
		<path class="st15" d="M543.54,281.29l-5.1-0.61l-0.2-159.87c0-1.17,0.95-2.12,2.12-2.12l0,0c1.17,0,2.12,0.95,2.12,2.12
			L543.54,281.29z"/>
		<path class="st15" d="M594.9,294.43l-4.58-0.55l-0.18-143.31c0-1.05,0.85-1.9,1.9-1.9l0,0c1.05,0,1.9,0.85,1.9,1.9L594.9,294.43z"
			/>
		<path class="st15" d="M655.63,306.96l-3.78-0.45l-0.15-118.36c0-0.87,0.7-1.57,1.57-1.57l0,0c0.87,0,1.57,0.7,1.57,1.57
			L655.63,306.96z"/>
		<path class="st15" d="M677.14,311.5l-3.39-0.43l-0.14-112.59c0-0.83,0.63-1.5,1.41-1.5l0,0c0.78,0,1.41,0.67,1.41,1.5
			L677.14,311.5z"/>
		<path class="st15" d="M770.69,282.01l-4.4-0.74L766.11,89.8c0-1.4,0.82-2.54,1.83-2.54l0,0c1.01,0,1.83,1.14,1.83,2.54
			L770.69,282.01z"/>
		<polygon class="st15" points="716.49,-4 716.66,474.79 721.07,476.66 720.17,-4 		"/>
		<path class="st15" d="M791.1,319.01l-4.4-0.74l-0.18-191.48c0-1.4,0.82-2.54,1.83-2.54l0,0c1.01,0,1.83,1.14,1.83,2.54
			L791.1,319.01z"/>
		<path class="st15" d="M812.61,280.69c0.34,0.05,1.63-1.05,1.97-1.01l-1.42-99.94c0-1.4-0.82-2.54-1.83-2.54s-1.83,1.14-1.83,2.54
			l0.42,99.24C810.91,279.1,811.59,280.53,812.61,280.69z"/>
		<path class="st15" d="M832.56,282.19l-0.27-55.88c0-1.4-0.82-2.54-1.83-2.54s-1.83,1.14-1.83,2.54l0.05,55.36
			C829.97,281.8,831.26,281.97,832.56,282.19z"/>
		<path class="st15" d="M742.22,358.98l-3.39-0.43l-0.14-112.59c0-0.83,0.63-1.5,1.41-1.5l0,0c0.78,0,1.41,0.67,1.41,1.5
			L742.22,358.98z"/>
		<polyline class="st13" points="182.86,473.94 182.86,437.32 196.48,443.65 492.12,405.54 493.32,433.21 		"/>
		<polyline class="st13" points="492.12,405.54 624.17,403.57 622.86,437.74 		"/>
		<polyline class="st13" points="624.17,403.57 671.48,393.72 672.28,386.26 		"/>
		<path class="st14" d="M804.03,102.58c0,0,31.57-3.88,32.81-7.76"/>
		<path class="st14" d="M821.23,149.49c0,0,24.06,0.89,24.94-2.46"/>
		<path class="st14" d="M835.21,191.14c-0.99,0.28,6.77,3.38,11.23,1.1"/>
		<path class="st13" d="M420.65,86.2c0,0,30.14-12.33,30.96-16.99"/>
		<path class="st14" d="M537.1,155.79c0,0,20.55-17.81,20.28-22.47"/>
		<path class="st14" d="M690.54,217.17c0,0-5.2,5.02-10.41,8.49c-6.58,4.38-14.8,8.22-14.8,8.22"/>
		<path class="st14" d="M719.03,236.62c0,0-1.92,3.84-13.7,8.77c-3.79,1.59-12.6,4.66-12.6,4.66"/>
		<line class="st14" x1="740.13" y1="279.91" x2="395.99" y2="69.48"/>
		<path class="st14" d="M705.42,261.51c0,0-8.31,51.95-7.9,55.28"/>
		<line class="st14" x1="629.78" y1="302.24" x2="638.5" y2="241.56"/>
		<path class="st14" d="M477.24,281.88l12.34-94.12c0.57-4.32-1.79-8.5-5.78-10.24l-113.79-49.83l-3.34,12.95"/>
		<path class="st16" d="M229.76,59.39l122.13,45.39l-28.1,179.41l-133.73-18.83c0,0,28.51-122.98,35.28-165.84
			C230.91,64.23,229.76,59.39,229.76,59.39z"/>
		<g class="st1">
			<g>
				<path class="st7" d="M751.48,356.59c0.54-0.52,1.09-1.02,1.67-1.52l0.04,1.06l0.08,1.95c0.65-0.39,5.9-0.96,13.16-1.58
					c14.91-1.27,38.28-2.76,47.68-3.34c-0.71,7.77-3.85,19.11-15.18,27.04c-18.83,13.18-26.36,27.77-26.36,27.77l40,70.6l-43.3,1.41
					c0,0-25.89-49.89-28.24-63.07c-0.73-4.1-2.24-11.04-2.76-19.09C737.42,384.59,739.22,368.33,751.48,356.59z"/>
				<path class="st7" d="M705.21,360.92c-5.91,1.29-10.89,3.44-13.59,7.04c-0.69,0.92-1.38,2.24-2.07,3.88
					c-2.87-2.07-1.08-9.24,1.12-11.89c1.02-1.23,5.24-2.9,9.69-4.4C701.93,357.61,703.89,359.63,705.21,360.92z"/>
				<path class="st7" d="M689.55,371.85c0.68-1.64,1.37-2.96,2.07-3.88c2.7-3.6,7.68-5.75,13.59-7.04c1.5-0.33,3.07-0.6,4.67-0.82
					c2.28-0.32,4.63-0.55,7.01-0.71c6.51-0.44,13.12-0.37,18.5-0.37c5.17,0,10.9-1.07,16.09-2.43c-12.26,11.74-14.07,28-13.21,41.23
					c-10.56-0.05-22.18-5.85-22.18-5.85l-8,82.83l-18.35,1.88c0,0-5.65-12.24-8.94-30.59C677.82,429.53,683.28,386.95,689.55,371.85
					z"/>
				<path class="st7" d="M801.75,248.89c0,0-7.33-4.12-13.53-1.65c0.01-0.98-0.03-1.78-0.16-2.29c-0.93-3.96-6.06-0.93-6.06-0.93
					s-1.17-13.06-4.2-11.19c-3.03,1.87-20.05-7.93-18.42-3.96c0,0-9.79-9.56-3.03-13.76s30.08-11.89,35.91-4.2
					c5.83,7.69,4.9,10.96,4.9,10.96s13.29-7.46,17.49,0.47c4.2,7.93,0.23,28.68-6.3,29.85c-0.93,0.17-1.85,0.26-2.74,0.3
					C804.46,250.23,803.18,248.95,801.75,248.89z"/>
				<g>
					<path class="st7" d="M749.43,304.26c-13.86,13.96-42.59,44.06-48.86,44.41c-4.19,0.23-2.73,3.58-0.19,6.9
						c1.56,2.04,3.52,4.06,4.84,5.35c1.5-0.33,3.07-0.6,4.67-0.82c2.28-0.32,4.64-0.55,7.01-0.71c10.03-2.96,25.34-7.71,35.97-12.08
						l-1.46-37.7C751.39,309.6,750.63,307.53,749.43,304.26z"/>
					<path class="st7" d="M817.78,348.91c-5.95-17.46-4.65-81.8-12.17-96.43c-1.15-2.24-2.43-3.52-3.86-3.58
						c0,0-7.33-4.12-13.53-1.65c-1.43,0.57-2.8,1.5-4.01,2.91c-1.05,1.23-1.98,2.81-2.71,4.86c-1.3,3.65-2.62,7.07-3.98,10.05
						c-0.39,0.86-0.79,1.68-1.19,2.46c-3.75,7.35-7.78,11.09-12.24,7.26c-4.41-3.78-38.74-33.32-39.45-33.39
						c-2.19-0.2-1.78,4.8-1.16,9.69c-0.34,4.24-0.38,8.26,0.64,8.95c0,0-0.1,0.07-0.29,0.2c-0.19,0.13-0.48,0.31-0.84,0.53
						c0.39,1.22,22.86,33.81,26.42,43.5c1.2,3.27,1.96,5.35,1.96,5.35l1.46,37.7l0.3,7.76l0.04,1.06l0.08,1.95
						c0.65-0.39,5.9-0.96,13.16-1.58c14.91-1.27,38.28-2.76,47.68-3.34c0.03,0,0.05,0,0.08,0
						C816.38,353.01,818.49,350.98,817.78,348.91z"/>
					<path class="st7" d="M723.49,251.08c-0.62-4.89-0.18-8.18-1.26-8.85c-2.48-1.55-11.29-3.86-10.38,0.4
						c0.92,4.26-3.42,18.48,1.38,20.17c3.55,1.24,7.79-0.85,9.77-2.04c0.36-0.21,0.65-0.4,0.84-0.53c0.18-0.12,0.29-0.2,0.29-0.2
						C723.12,259.34,723.15,255.32,723.49,251.08z"/>
				</g>
				<path class="st7" d="M759.39,228.86c-0.29-4.28,15.39,5.83,18.42,3.96c3.03-1.87,4.2,11.19,4.2,11.19s5.13-3.03,6.06,0.93
					c0.12,0.52,0.17,1.31,0.16,2.29c-1.43,0.57-2.8,1.5-4.01,2.91c-1.05,1.23-1.98,2.81-2.71,4.86c-1.3,3.65-2.62,7.07-3.98,10.05
					c-0.39,0.86-0.79,1.68-1.19,2.46c-0.79-1.48-1.56-2.94-2.17-4.1l-0.09-0.04c0,0-5.6,2.1-8.39,0.47
					c-0.72-0.42-1.45-1.44-2.15-2.72c-2.01-3.71-4.04-12.24-4.04-12.24l-5.53-1.85c-0.42-0.32-0.44-0.94-0.04-1.27
					C755.82,244.2,760.12,239.45,759.39,228.86z"/>
			</g>
		</g>
		<g class="st1">
			<g>
				<path class="st17" d="M754.17,355.44c0.54-0.52,1.09-1.02,1.67-1.52l0.04,1.06l0.08,1.95c0.65-0.39,5.9-0.96,13.16-1.58
					c14.91-1.27,38.28-2.76,47.68-3.34c-0.71,7.77-3.85,19.11-15.18,27.04c-18.83,13.18-26.36,27.77-26.36,27.77l40,70.6l-43.3,1.41
					c0,0-25.89-49.89-28.24-63.07c-0.73-4.1-2.24-11.04-2.76-19.09C740.1,383.44,741.91,367.18,754.17,355.44z"/>
				<path class="st18" d="M707.89,359.77c-5.91,1.29-10.89,3.44-13.59,7.04c-0.69,0.92-1.38,2.24-2.07,3.88
					c-2.87-2.07-1.08-9.24,1.12-11.89c1.02-1.23,5.24-2.9,9.69-4.4C704.61,356.46,706.57,358.48,707.89,359.77z"/>
				<path class="st17" d="M692.24,370.7c0.68-1.64,1.37-2.96,2.07-3.88c2.7-3.6,7.68-5.75,13.59-7.04c1.5-0.33,3.07-0.6,4.67-0.82
					c2.28-0.32,4.63-0.55,7.01-0.71c6.51-0.44,13.12-0.37,18.5-0.37c5.17,0,10.9-1.07,16.09-2.43c-12.26,11.74-14.07,28-13.21,41.23
					c-10.56-0.05-22.18-5.85-22.18-5.85l-8,82.83l-18.35,1.88c0,0-5.65-12.24-8.94-30.59C680.51,428.38,685.96,385.8,692.24,370.7z"
					/>
				<path class="st3" d="M804.43,247.74c0,0-7.33-4.12-13.53-1.65c0.01-0.98-0.03-1.78-0.16-2.29c-0.93-3.96-6.06-0.93-6.06-0.93
					s-1.17-13.06-4.2-11.19c-3.03,1.87-20.05-7.93-18.42-3.96c0,0-9.79-9.56-3.03-13.76c6.76-4.2,30.08-11.89,35.91-4.2
					c5.83,7.69,4.9,10.96,4.9,10.96s13.29-7.46,17.49,0.47c4.2,7.93,0.23,28.68-6.3,29.85c-0.93,0.17-1.85,0.26-2.74,0.3
					C807.14,249.08,805.86,247.8,804.43,247.74z"/>
				<path class="st19" d="M749.43,304.26c-13.86,13.96-39.91,42.91-46.18,43.26c-4.19,0.23-2.73,3.58-0.19,6.9
					c1.56,2.04,3.52,4.06,4.84,5.35c1.5-0.33,3.07-0.6,4.67-0.82c2.28-0.32,4.64-0.55,7.01-0.71c10.03-2.96,22.66-6.56,33.29-10.93
					l-1.46-37.7C751.39,309.6,750.63,307.53,749.43,304.26z"/>
				<path class="st19" d="M820.47,347.76c-5.95-17.46-4.65-81.8-12.17-96.43c-1.15-2.24-2.43-3.52-3.86-3.58
					c0,0-7.33-4.12-13.53-1.65c-1.43,0.57-2.8,1.5-4.01,2.91c-1.05,1.23-1.98,2.81-2.71,4.86c-1.3,3.65-2.62,7.07-3.98,10.05
					c-0.39,0.86-0.79,1.68-1.19,2.46c-3.75,7.35-7.78,11.09-12.24,7.26c-4.41-3.78-38.74-33.32-39.45-33.39
					c-2.19-0.2-1.78,4.8-1.16,9.69c-0.34,4.24-0.38,8.26,0.64,8.95c0,0-0.1,0.07-0.29,0.2c-0.19,0.13-0.48,0.31-0.84,0.53
					c0.39,1.22,22.86,33.81,26.42,43.5c1.2,3.27,1.96,5.35,1.96,5.35l1.46,37.7l0.3,7.76l0.04,1.06l0.08,1.95
					c0.65-0.39,5.9-0.96,13.16-1.58c14.91-1.27,38.28-2.76,47.68-3.34c0.03,0,0.05,0,0.08,0
					C819.06,351.87,821.17,349.83,820.47,347.76z"/>
				<path class="st18" d="M726.17,249.93c-0.62-4.89-0.18-8.18-1.26-8.85c-2.48-1.55-11.29-3.86-10.38,0.4
					c0.92,4.26-3.42,18.48,1.38,20.17c3.55,1.24,7.79-0.85,9.77-2.04c0.36-0.21,0.65-0.4,0.84-0.53c0.18-0.12,0.29-0.2,0.29-0.2
					C725.8,258.19,725.83,254.17,726.17,249.93z"/>
				<path class="st18" d="M762.07,227.71c-0.29-4.28,15.39,5.83,18.42,3.96c3.03-1.87,4.2,11.19,4.2,11.19s5.13-3.03,6.06,0.93
					c0.12,0.52,0.17,1.31,0.16,2.29c-1.43,0.57-2.8,1.5-4.01,2.91c-1.05,1.23-1.98,2.81-2.71,4.86c-1.3,3.65-2.62,7.07-3.98,10.05
					c-0.39,0.86-0.79,1.68-1.19,2.46c-0.79-1.48-1.56-2.94-2.17-4.1l-0.09-0.04c0,0-5.6,2.1-8.39,0.47
					c-0.72-0.42-1.45-1.44-2.15-2.72c-2.01-3.71-4.04-12.24-4.04-12.24l-5.53-1.85c-0.42-0.32-0.44-0.94-0.04-1.27
					C758.5,243.05,762.8,238.3,762.07,227.71z"/>
			</g>
		</g>
		<g class="st1">
			<g>
				<path class="st20" d="M752.07,356.43c0.54-0.52,1.09-1.02,1.67-1.52l0.04,1.06l0.08,1.95c0.65-0.39,5.9-0.96,13.16-1.58
					c14.91-1.27,38.28-2.76,47.68-3.34c-0.71,7.77-3.85,19.11-15.18,27.04c-18.83,13.18-26.36,27.77-26.36,27.77l40,70.6l-43.3,1.41
					c0,0-25.89-49.89-28.24-63.07c-0.73-4.1-2.24-11.04-2.76-19.09C738,384.43,739.81,368.17,752.07,356.43z"/>
				<path class="st20" d="M705.79,360.76c-5.91,1.29-10.89,3.44-13.59,7.04c-0.69,0.92-1.38,2.24-2.07,3.88
					c-2.87-2.07-1.08-9.24,1.12-11.89c1.02-1.23,5.24-2.9,9.69-4.4C702.51,357.45,704.47,359.47,705.79,360.76z"/>
				<path class="st20" d="M690.14,371.69c0.68-1.64,1.37-2.96,2.07-3.88c2.7-3.6,7.68-5.75,13.59-7.04c1.5-0.33,3.07-0.6,4.67-0.82
					c2.28-0.32,4.63-0.55,7.01-0.71c6.51-0.44,13.12-0.37,18.5-0.37c5.17,0,10.9-1.07,16.09-2.43c-12.26,11.74-14.07,28-13.21,41.23
					c-10.56-0.05-22.18-5.85-22.18-5.85l-8,82.83l-18.35,1.88c0,0-5.65-12.24-8.94-30.59C678.41,429.37,683.86,386.79,690.14,371.69
					z"/>
				<path class="st21" d="M802.33,248.73c0,0-7.33-4.12-13.53-1.65c0.01-0.98-0.03-1.78-0.16-2.29c-0.93-3.96-6.06-0.93-6.06-0.93
					s-1.17-13.06-4.2-11.19c-3.03,1.87-20.05-7.93-18.42-3.96c0,0-9.79-9.56-3.03-13.76s30.08-11.89,35.91-4.2
					c5.83,7.69,4.9,10.96,4.9,10.96s13.29-7.46,17.49,0.47c4.2,7.93,0.23,28.68-6.3,29.85c-0.93,0.17-1.85,0.26-2.74,0.3
					C805.04,250.07,803.76,248.79,802.33,248.73z"/>
				<g>
					<path class="st20" d="M750.01,304.1c-13.86,13.96-42.59,44.06-48.86,44.41c-4.19,0.23-2.73,3.58-0.19,6.9
						c1.56,2.04,3.52,4.06,4.84,5.35c1.5-0.33,3.07-0.6,4.67-0.82c2.28-0.32,4.64-0.55,7.01-0.71c10.03-2.96,25.34-7.71,35.97-12.08
						l-1.46-37.7C751.97,309.44,751.21,307.36,750.01,304.1z"/>
					<path class="st20" d="M818.36,348.75c-5.95-17.46-4.65-81.8-12.17-96.43c-1.15-2.24-2.43-3.52-3.86-3.58
						c0,0-7.33-4.12-13.53-1.65c-1.43,0.57-2.8,1.5-4.01,2.91c-1.05,1.23-1.98,2.81-2.71,4.86c-1.3,3.65-2.62,7.07-3.98,10.05
						c-0.39,0.86-0.79,1.68-1.19,2.46c-3.75,7.35-7.78,11.09-12.24,7.26c-4.41-3.78-38.74-33.32-39.45-33.39
						c-2.19-0.2-1.78,4.8-1.16,9.69c-0.34,4.24-0.38,8.26,0.64,8.95c0,0-0.1,0.07-0.29,0.2c-0.19,0.13-0.48,0.31-0.84,0.53
						c0.39,1.22,22.86,33.81,26.42,43.5c1.2,3.27,1.96,5.35,1.96,5.35l1.46,37.7l0.3,7.76l0.04,1.06l0.08,1.95
						c0.65-0.39,5.9-0.96,13.16-1.58c14.91-1.27,38.28-2.76,47.68-3.34c0.03,0,0.05,0,0.08,0
						C816.96,352.85,819.07,350.82,818.36,348.75z"/>
					<path class="st20" d="M724.07,250.92c-0.62-4.89-0.18-8.18-1.26-8.85c-2.48-1.55-11.29-3.86-10.38,0.4
						c0.92,4.26-3.42,18.48,1.38,20.17c3.55,1.24,7.79-0.85,9.77-2.04c0.36-0.21,0.65-0.4,0.84-0.53c0.18-0.12,0.29-0.2,0.29-0.2
						C723.7,259.18,723.73,255.16,724.07,250.92z"/>
				</g>
				<path class="st20" d="M759.97,228.7c-0.29-4.28,15.39,5.83,18.42,3.96c3.03-1.87,4.2,11.19,4.2,11.19s5.13-3.03,6.06,0.93
					c0.12,0.52,0.17,1.31,0.16,2.29c-1.43,0.57-2.8,1.5-4.01,2.91c-1.05,1.23-1.98,2.81-2.71,4.86c-1.3,3.65-2.62,7.07-3.98,10.05
					c-0.39,0.86-0.79,1.68-1.19,2.46c-0.79-1.48-1.56-2.94-2.17-4.1l-0.09-0.04c0,0-5.6,2.1-8.39,0.47
					c-0.72-0.42-1.45-1.44-2.15-2.72c-2.01-3.71-4.04-12.24-4.04-12.24l-5.53-1.85c-0.42-0.32-0.44-0.94-0.04-1.27
					C756.4,244.04,760.7,239.29,759.97,228.7z"/>
			</g>
			<path class="st20" d="M751.97,309.44c0,0,15.87,10.04,21.61,2.74c5.74-7.3,21.9-40.16,26.07-40.16"/>
			<path class="st20" d="M766.89,252.79c0,0,4.08,3.81,6.26-1.36"/>
			<circle class="st22" cx="765.53" cy="237.15" r="1.22"/>
		</g>
		<path class="st13" d="M809.36,370.55l33.26,3.22c0,0,8.38,5.05-1.17,2.15c-13.12-3.99-40.29,3.81-41.94,4.12"/>
		<path class="st23" d="M82.39,37.48c2.94-15.49,18.64-25.03,33.74-20.5l53.92,16.18c10.58,3.17,17.1,13.77,15.17,24.65
			l-33.58,189.12c-2.23,12.57-14.23,20.95-26.8,18.73l-59.49-10.52c-12.94-2.29-21.52-14.71-19.06-27.63L82.39,37.48z"/>
		<path class="st24" d="M84.35,38.88c2.94-15.49,18.64-25.03,33.74-20.5l53.92,16.18c10.58,3.17,17.1,13.77,15.17,24.65
			l-33.58,189.12c-2.23,12.57-14.23,20.95-26.8,18.73l-59.49-10.52c-12.94-2.29-21.52-14.71-19.06-27.63L84.35,38.88z"/>
		<path class="st14" d="M231.92,57.23l112,41.63c5.89,2.19,9.43,8.23,8.46,14.44l-24.7,157.68c-0.96,6.14-6.67,10.37-12.82,9.5
			L192.21,263.2c0,0,28.51-122.98,35.28-165.84C233.06,62.07,231.92,57.23,231.92,57.23z"/>
		<g class="st1">
			<g>
				<polygon class="st7" points="291.53,238.45 222.18,226.85 244.68,124.25 309.14,140.51 				"/>
			</g>
			<g>
				<polygon class="st25" points="291.53,236.79 222.18,225.2 244.68,122.6 309.14,138.86 				"/>
			</g>
			<g>
				<path class="st2" d="M247.21,140.61L247.21,140.61c-0.38,1.48,0.48,3,1.95,3.43l47.93,12.02c1.53,0.44,3.12-0.49,3.49-2.04v0
					c0.33-1.4-0.46-2.82-1.82-3.28l-47.99-12.15C249.23,138.14,247.61,139.05,247.21,140.61z"/>
				<path class="st6" d="M245.37,139.96L245.37,139.96c-0.44,1.52,0.43,3.11,1.96,3.55l49.77,12.24c1.53,0.44,3.12-0.49,3.49-2.04
					l0,0c0.33-1.4-0.46-2.82-1.82-3.28l-49.85-12.41C247.4,137.58,245.81,138.45,245.37,139.96z"/>
				<line class="st6" x1="243.85" y1="148.54" x2="257.17" y2="151.54"/>
				<line class="st6" x1="239.73" y1="168.47" x2="255.74" y2="171.64"/>
				<line class="st6" x1="271.62" y1="193.12" x2="287.62" y2="196.28"/>
				<line class="st6" x1="251.12" y1="189.45" x2="264.62" y2="192.12"/>
				<line class="st6" x1="243.24" y1="151.92" x2="248.46" y2="153.3"/>
				<line class="st6" x1="251.53" y1="154.07" x2="262.44" y2="156.68"/>
				<line class="st6" x1="242.93" y1="155.61" x2="279.94" y2="164.82"/>
				<line class="st6" x1="242.01" y1="160.98" x2="268.58" y2="166.82"/>
				<line class="st6" x1="241.39" y1="164.21" x2="281.33" y2="173.27"/>
				<path class="st6" d="M235.11,192.12l-5.9,25.38c0,0,57.47,10.64,57.47,10.14c0-0.5,5.23-25.19,5.23-25.19L235.11,192.12z"/>
			</g>
		</g>
		<g class="st1">
			<path class="st25" d="M259.21,137.66l-9.93-2.35c-0.46-0.11-0.75-0.57-0.64-1.04l1.28-5.41c0.11-0.46,0.57-0.75,1.04-0.64
				l9.93,2.35c0.46,0.11,0.75,0.57,0.64,1.04l-1.28,5.41C260.13,137.48,259.67,137.77,259.21,137.66z"/>
			<path class="st25" d="M261.64,131.11l-5.54,1.93c-0.69,0.24-1.46,0.06-1.97-0.47l-4.09-4.21"/>
		</g>
	</g>
</g>
</svg>
