<svg id="Layer_1" data-name="Layer 1" xmlns="http://www.w3.org/2000/svg" viewBox="0 0 441 441"><defs><style>.cls-1,.cls-4{fill:none;}.cls-2{fill:#e0635c;}.cls-3{fill:#f4c55c;}.cls-4{stroke:#f4c55c;stroke-miterlimit:10;stroke-width:1.12038px;}.cls-5{fill:#468fba;}.cls-6{fill:#5f9c70;}</style></defs><polygon class="cls-1" points="111.625 328.823 111.73 328.718 111.625 328.718 111.625 328.823"/><polygon class="cls-1" points="328.358 328.764 328.358 328.718 328.313 328.718 328.358 328.764"/><polygon class="cls-1" points="328.306 328.718 328.313 328.718 328.309 328.714 328.306 328.718"/><polygon class="cls-1" points="328.309 328.714 328.313 328.718 328.358 328.718 328.358 328.666 328.309 328.714"/><polygon class="cls-2" points="275.478 58.534 275.205 58.806 220.475 113.384 220.475 113.384 275.478 113.242 328.358 113.102 328.358 112.312 328.358 6.002 275.478 58.534"/><polygon class="cls-3" points="383.473 61.438 382.136 60.092 328.38 5.981 328.358 6.002 328.358 112.312 328.358 113.102 328.358 113.101 328.358 113.1 383.473 112.957 437.162 112.822 383.473 61.438"/><polygon class="cls-1" points="111.73 328.718 111.766 328.718 111.748 328.7 111.73 328.718"/><polygon class="cls-1" points="111.625 328.576 111.625 328.718 111.73 328.718 111.748 328.7 111.625 328.576"/><polygon class="cls-1" points="328.358 329.04 328.497 328.903 328.358 328.764 328.358 329.04"/><polygon class="cls-1" points="328.358 328.718 328.358 328.764 328.497 328.903 328.683 328.718 328.358 328.718"/><polygon class="cls-1" points="111.607 328.84 111.625 328.858 111.625 328.823 111.607 328.84"/><polygon class="cls-1" points="219.619 437.568 219.619 437.064 219.367 437.314 219.619 437.568"/><polygon class="cls-3" points="166.686 57.794 165.249 56.348 112.682 3.432 58.745 57.013 58.57 57.187 3.838 111.634 3.838 111.634 3.838 111.634 58.745 112.079 111.607 112.511 111.625 112.511 113.545 112.526 165.249 112.949 220.475 113.384 166.686 57.794"/><polygon class="cls-1" points="111.625 328.718 111.485 328.718 111.607 328.84 111.625 328.823 111.625 328.718"/><polygon class="cls-4" points="111.625 220.131 111.625 220.253 111.746 220.254 111.625 220.131"/><polygon class="cls-4" points="111.746 220.254 112.213 220.724 112.684 220.256 111.746 220.254"/><polygon class="cls-4" points="111.625 220.253 111.625 221.309 112.213 220.724 111.746 220.254 111.625 220.253"/><polygon class="cls-4" points="220.589 220.576 220.884 220.577 220.737 220.429 220.589 220.576"/><polygon class="cls-4" points="436.646 221.317 436.748 221.216 436.545 221.215 436.646 221.317"/><polygon class="cls-3" points="275.478 328.718 219.956 328.718 219.725 328.948 219.619 329.053 219.619 436.462 273.484 383.064 275.478 381.087 328.306 328.718 275.478 328.718"/><polygon class="cls-4" points="165.249 274.112 165.249 274.18 165.317 274.18 165.249 274.112"/><polygon class="cls-2" points="219.496 328.718 165.969 274.836 165.317 274.18 165.249 274.18 165.249 274.112 112.213 220.724 111.625 221.309 111.625 274.18 111.625 328.576 111.748 328.7 111.766 328.718 111.73 328.718 111.625 328.823 111.625 328.858 219.367 437.314 219.619 437.064 219.619 436.462 219.619 329.053 219.619 328.842 219.496 328.718"/><polygon class="cls-3" points="58.745 166.901 57.806 165.956 57.506 165.654 3.838 111.634 3.838 111.634 3.838 111.634 3.838 165.54 3.838 219.946 57.306 274.18 57.851 274.728 58.745 275.628 111.485 328.718 111.625 328.718 111.625 328.576 111.625 274.18 111.625 221.309 111.625 220.253 111.625 220.131 58.745 166.901"/><polygon class="cls-5" points="219.619 219.304 165.249 164.574 113.545 112.526 58.745 112.079 3.838 111.634 57.506 165.654 57.806 165.956 58.745 166.901 111.625 220.131 111.746 220.254 112.684 220.256 165.249 220.412 219.619 220.573 220.589 220.576 220.737 220.429 219.619 219.304"/><polygon class="cls-3" points="436.646 221.317 436.545 221.215 383.473 221.058 328.714 220.896 328.493 220.895 328.358 221.029 328.358 274.18 328.358 328.666 328.358 328.718 328.683 328.718 436.72 221.392 436.646 221.317"/><polygon class="cls-5" points="383.473 167.791 382.716 167.03 382.031 166.34 328.358 113.1 328.358 113.101 275.478 113.242 220.475 113.384 274.291 166.112 274.849 166.673 275.478 167.307 328.358 220.538 328.604 220.785 328.714 220.896 383.473 221.058 436.545 221.215 383.473 167.791"/><polygon class="cls-2" points="434.518 112.822 383.473 112.957 328.358 113.1 382.031 166.34 382.716 167.03 383.473 167.791 436.545 221.215 436.748 221.216 436.957 166.456 437.152 115.473 437.162 112.943 437.162 112.815 434.518 112.822"/><polygon class="cls-6" points="275.478 275.533 274.492 274.541 274.134 274.18 220.884 220.577 220.589 220.576 219.619 220.573 165.249 220.412 112.684 220.256 112.213 220.724 165.249 274.112 165.317 274.18 165.969 274.836 219.496 328.718 219.619 328.718 219.956 328.718 275.478 328.718 328.306 328.718 328.309 328.714 275.478 275.533"/><polygon class="cls-2" points="275.478 167.307 274.849 166.673 274.291 166.112 220.475 113.384 220.475 113.388 220.475 113.39 220.475 113.39 220.475 113.39 165.249 112.949 113.545 112.526 219.619 219.304 220.737 220.429 220.884 220.577 274.134 274.18 274.492 274.541 275.478 275.533 328.309 328.714 328.358 328.666 328.358 274.18 328.358 221.029 328.358 220.895 328.358 220.538 275.478 167.307"/></svg>