<svg id="Layer_1" data-name="Layer 1" xmlns="http://www.w3.org/2000/svg" viewBox="0 0 46 52"><defs><style>.cls-1{fill:#609c70;}.cls-2{fill:none;stroke:#54565a;}</style></defs><path class="cls-1" d="M46,37.15629V4.34384a2.34483,2.34483,0,0,0-2.3571-2.34375H11.4286A9.40433,9.40433,0,0,0,2,11.37509v31.25a9.40432,9.40432,0,0,0,9.4286,9.375H43.6429A2.34483,2.34483,0,0,0,46,49.65629v-1.5624a2.357,2.357,0,0,0-.8741-1.8262,21.65593,21.65593,0,0,1,0-7.2949A2.32273,2.32273,0,0,0,46,37.15629ZM14.5714,15.086a.58937.58937,0,0,1,.5893-.5859H35.9821a.58937.58937,0,0,1,.5893.5859v1.9532a.58937.58937,0,0,1-.5893.5859H15.1607a.58937.58937,0,0,1-.5893-.5859Zm0,6.25a.58937.58937,0,0,1,.5893-.5859H35.9821a.58937.58937,0,0,1,.5893.5859v1.9532a.58937.58937,0,0,1-.5893.5859H15.1607a.58937.58937,0,0,1-.5893-.5859Zm24.8875,24.4141H11.4286a3.12505,3.12505,0,1,1,0-6.25H39.4589A34.95967,34.95967,0,0,0,39.4589,45.75009Z"/><path class="cls-2" d="M42.6437,44.39989l.0425.1551.1249.1012a1.8567,1.8567,0,0,1,.6889,1.4377v1.5624a1.84479,1.84479,0,0,1-1.8571,1.8438H9.42857A8.90431,8.90431,0,0,1,.5,40.62509v-31.25A8.90433,8.90433,0,0,1,9.42857.50009H41.6429A1.84481,1.84481,0,0,1,43.5,2.34384V35.15629a1.82252,1.82252,0,0,1-.6845,1.4245l-.1285.1017-.0433.158a17.01383,17.01383,0,0,0-.3272,3.7797A17.01323,17.01323,0,0,0,42.6437,44.39989Zm-5.1848-.1498h.559l-.0621-.5555a34.48608,34.48608,0,0,1,0-6.139l.0621-.5555H9.42857a3.625,3.625,0,1,0,0,7.25Zm-24.2982-32.25a1.08935,1.08935,0,0,0-1.0893,1.0859v1.9532a1.08935,1.08935,0,0,0,1.0893,1.0859H33.9821a1.08929,1.08929,0,0,0,1.0893-1.0859V13.086a1.08929,1.08929,0,0,0-1.0893-1.0859Zm0,6.25a1.08935,1.08935,0,0,0-1.0893,1.0859v1.9532a1.08935,1.08935,0,0,0,1.0893,1.0859H33.9821a1.08929,1.08929,0,0,0,1.0893-1.0859V19.336a1.08929,1.08929,0,0,0-1.0893-1.0859Z"/></svg>