<svg id="Layer_1" data-name="Layer 1" xmlns="http://www.w3.org/2000/svg" xmlns:xlink="http://www.w3.org/1999/xlink" viewBox="0 0 841.88976 467.71654"><defs><style>.cls-1,.cls-11,.cls-12{fill:none;}.cls-2{clip-path:url(#clip-path);}.cls-3{fill:#b1b2aa;}.cls-4{fill:#98a09d;}.cls-5{fill:#cbc8c0;}.cls-6{fill:#80b690;}.cls-7{fill:#fff;}.cls-8{fill:#54565a;}.cls-9{fill:#c37e6f;}.cls-10{fill:url(#New_Pattern_Swatch_2);}.cls-11{stroke:#54565a;}.cls-11,.cls-12{stroke-miterlimit:10;}.cls-12{stroke:#609c70;}</style><clipPath id="clip-path"><rect class="cls-1" x="0.0001" width="200" height="199.99999"/></clipPath><pattern id="New_Pattern_Swatch_2" data-name="New Pattern Swatch 2" width="199.99999" height="199.99999" patternTransform="matrix(-0.68792, 0, 0, 0.68792, 533.86528, -122.75473)" patternUnits="userSpaceOnUse" viewBox="0 0 200 200"><rect class="cls-1" width="199.99999" height="199.99999"/><g class="cls-2"><rect class="cls-3" x="0.0001" width="200" height="199.99999"/><path class="cls-4" d="M128.0282,84.346c-3.4405,6.3627-5.0645,13.5148-7.1433,20.443-2.0788,6.9281-4.7795,13.9294-9.8461,19.0918-4.9663,5.0601-11.7479,7.8851-18.4835,10.0989s-13.6975,3.97849-19.8822,7.4454-11.6502,9.0118-13.0306,15.9662a12.79419,12.79419,0,0,0,1.247,9.0333,8.24207,8.24207,0,0,0,7.7957,4.114c4.6698-.6121,7.2474-5.5133,10.235-9.1542,2.6674-3.2508,6.3625-5.8781,10.5428-6.3355,4.1802-.4574,8.7726,1.6969,10.3052,5.6129,1.0107,2.5827.7035,5.7066,2.4153,7.8888,2.6102,3.32749,7.8122,2.271,11.8122.8977,3.1084-1.0672,6.5882-2.4833,7.7171-5.5698,1.2136-3.3176-.8873-6.8458-1.3571-10.347-.8675-6.4661,4.4265-12.7015,10.7582-14.2737,6.3318-1.5723,13.1372.761,18.3215,4.7216,3.6589,2.7953,6.7529,6.4072,10.8742,8.4605,4.1214,2.0532,9.9172,1.9404,12.505-1.8681,2.3166-3.4094.9888-8.2338-1.6651-11.3877-2.6539-3.154-6.366-5.18891-9.5994-7.7455-3.2333-2.5565-6.1876-6.077-6.2285-10.1988-.0433-4.3594,3.1061-7.9862,5.7401-11.4602a64.09406,64.09406,0,0,0,9.6507-18.2362c1.3169-3.9117,2.2448-8.2211.8885-12.1193-1.7258-4.95991-6.8684-8.0901-12.0514-8.9365C146.7755,68.4014,134.3006,72.7464,128.0282,84.346Z"/><path class="cls-4" d="M248.40269,52.1073c-2.5809,2.30989-4.013,5.59889-5.5228,8.7162-4.2012,8.6744-10.0115,17.1855-18.75079,21.2501-8.91781,4.14759-19.48981,3.0322-28.66261,6.5805-4.5349,1.7542-8.85039,4.9333-10.41339,9.5377-1.563,4.6043.67539,10.6008,5.37909,11.8328,3.1156.816,6.3817-.5218,9.1508-2.16641,2.7692-1.64459,5.4188-3.65969,8.5557-4.38989,3.1368-.7303,7.0121.3156,8.2458,3.2907.8994,2.16919.1673,4.6229-.3699,6.9088a39.75279,39.75279,0,0,0,1.1639,22.068c1.653,4.7295,4.9972,9.6691,9.9909,10.0723,4.0132.32409,7.8324-2.70491,9.12371-6.5185,1.29119-3.8136.361-8.1312-1.74421-11.5633-1.8199-2.9669-4.58-5.7249-4.5577-9.2055.0272-4.2499,4.3847-7.3258,8.5921-7.9257,4.2074-.5998,8.4573.4899,12.7053.6193,4.2479.1294,9.0371-1.0686,11.15851-4.75121,2.40879-4.18159.55389-10.13339,3.70909-13.78489,2.0573-2.3809,5.5168-2.8663,8.6592-3.0307a92.23054,92.23054,0,0,1,14.9229.4301c3.9932.4407,8.0823,1.1372,11.9807.166s7.5963-4.1811,7.608-8.1986c.0116-3.9536-3.5795-7.1761-7.42089-8.1116s-7.86711-.1274-11.73711.6815q-8.8812,1.85655-17.7626,3.7131c-2.2867.478-4.6837.95309-6.928.3044s-4.235-2.8196-3.8331-5.1209c.5183-2.9673,4.1762-4.006,7.1586-4.4289q8.60325-1.2201,17.2066-2.4401c4.6904-.6651,11.2698-3.2472,8.1781-9.1135-2.0837-3.9537-7.1821-5.9151-11.3188-6.3113C272.90969,50.2639,256.81619,44.5775,248.40269,52.1073Z"/><path class="cls-5" d="M231.086,125.6978c-9.5775,2.3503-20.02889,3.8409-27.2448,10.5626-2.02409,1.8855-3.77,4.9773-2.2209,7.2691,1.3529,2.0016,4.4732,2.1134,5.8814,4.0764,1.9796,2.7594-.8087,6.3694-3.3805,8.5872q-6.89864,5.9493-13.7975,11.8985c-3.4519,2.97679-7.1938,6.55919-7.1604,11.11729.0297,4.0616,3.4194,7.645,7.3789,8.5504a13.35565,13.35565,0,0,0,11.314-3.1771c2.579-2.1846,4.437-5.082,6.7005-7.5921,2.2635-2.51,5.2038-4.7406,8.5812-4.8688,6.5274-.2479,10.4948,6.8196,15.6015,10.8926,4.1912,3.3429,10.14571,4.7739,15.0822,2.683,4.93651-2.0908,8.1366-8.1552,6.1911-13.1508-2.64159-6.78319-12.3244-8.51549-15.1962-15.20449-2.574-5.9956,1.8755-12.99741,7.6034-16.122,5.7279-3.1247,12.4591-3.6593,18.7518-5.3839s12.8303-5.3557,14.6971-11.6077c1.0306-3.4519.5218-7.3909,2.3979-10.4663,2.13-3.49151,6.6739-4.6983,10.7629-4.614,7.1278.1469,13.8131,3.2131,20.5232,5.6217,6.71,2.4087,14.1695,4.1865,20.8754,1.7663,6.70591-2.4203,11.6887-10.5906,8.3866-16.909-2.4779-4.7414-8.47-6.609-13.8088-6.2668-5.33889.3421-10.4065,2.3862-15.648,3.45729-5.2415,1.071-11.17789,1.00251-15.3496-2.34679-2.3632-1.8974-3.8957-4.6438-6.111-6.712-7.3119-6.82621-22.7838-4.4871-30.3921,1.3209-8.7203,6.6568-4.0639,20.5401-12.523,28.2263C244.06859,121.7703,237.43019,124.1409,231.086,125.6978Z"/><path class="cls-4" d="M48.4028,52.1073c-2.5809,2.30989-4.013,5.59889-5.5228,8.7162C38.6788,69.4979,32.8684,78.009,24.1291,82.0736c-8.9178,4.14759-19.4898,3.0322-28.6626,6.5805-4.53488,1.7542-8.85038,4.9333-10.41333,9.5377-1.563,4.6043.67539,10.6008,5.37912,11.8328,3.11561.816,6.38161-.5218,9.15081-2.16641s5.4188-3.65969,8.5556-4.38989c3.1369-.7303,7.0122.3156,8.2458,3.2907.8995,2.16919.1674,4.6229-.3699,6.9088a39.75372,39.75372,0,0,0,1.164,22.068c1.6529,4.7295,4.9971,9.6691,9.9908,10.0723,4.0132.32409,7.8325-2.70491,9.1237-6.5185,1.2913-3.8136.3611-8.1312-1.7441-11.5633-1.8199-2.9669-4.5801-5.7249-4.5578-9.2055.0273-4.2499,4.3848-7.3258,8.5922-7.9257,4.2074-.5998,8.4572.4899,12.7052.6193s9.0371-1.0686,11.1585-4.75121c2.4088-4.18159.554-10.13339,3.7091-13.78489,2.0574-2.3809,5.5168-2.8663,8.6592-3.0307a92.23021,92.23021,0,0,1,14.9229.4301c3.9933.4407,8.0824,1.1372,11.9808.166,3.8983-.9712,7.5962-4.1811,7.608-8.1986.0115-3.9536-3.5795-7.1761-7.4209-8.1116s-7.8671-.1274-11.7371.6815L72.4065,78.3281c-2.2867.478-4.6838.95309-6.9281.3044s-4.235-2.8196-3.833-5.1209c.5183-2.9673,4.1762-4.006,7.1585-4.4289q8.6034-1.2201,17.2067-2.4401c4.6904-.6651,11.2698-3.2472,8.1781-9.1135-2.0837-3.9537-7.1821-5.9151-11.3188-6.3113C72.9097,50.2639,56.8162,44.5775,48.4028,52.1073Z"/><path class="cls-5" d="M31.086,125.6978c-9.5774,2.3503-20.0289,3.8409-27.2447,10.5626-2.0242,1.8855-3.77,4.9773-2.2209,7.2691,1.3529,2.0016,4.4732,2.1134,5.8814,4.0764,1.9795,2.7594-.8087,6.3694-3.3805,8.5872L-9.67621,168.0916c-3.45191,2.97679-7.19385,6.55919-7.16047,11.11729.02975,4.0616,3.41944,7.645,7.379,8.5504a13.35576,13.35576,0,0,0,11.314-3.1771c2.579-2.1846,4.437-5.082,6.7005-7.5921,2.2635-2.51,5.2037-4.7406,8.5812-4.8688,6.5273-.2479,10.4948,6.8196,15.6014,10.8926,4.1912,3.3429,10.1458,4.7739,15.0823,2.683,4.9365-2.0908,8.1366-8.1552,6.1911-13.1508-2.6416-6.78319-12.3245-8.51549-15.1962-15.20449-2.5741-5.9956,1.8755-12.99741,7.6034-16.122,5.7279-3.1247,12.4591-3.6593,18.7518-5.3839s12.8303-5.3557,14.697-11.6077c1.0307-3.4519.5218-7.3909,2.398-10.4663,2.13-3.49151,6.6739-4.6983,10.7629-4.614,7.1277.1469,13.8131,3.2131,20.5231,5.6217,6.7101,2.4087,14.1696,4.1865,20.8755,1.7663,6.7059-2.4203,11.6887-10.5906,8.3866-16.909-2.478-4.7414-8.47-6.609-13.8089-6.2668-5.3388.3421-10.4064,2.3862-15.6479,3.45729-5.2415,1.071-11.178,1.00251-15.3496-2.34679-2.3632-1.8974-3.8957-4.6438-6.111-6.712-7.3119-6.82621-22.7838-4.4871-30.3922,1.3209-8.7202,6.6568-4.0638,20.5401-12.523,28.2263C44.0687,121.7703,37.4303,124.1409,31.086,125.6978Z"/><path class="cls-5" d="M190.61049,192.74039c-3.7532,5.8688-1.6986,15.2269,4.892,17.4837,3.7949,1.2994,7.937.1387,11.8062-.919s8.13741-1.9803,11.7683-.2756,5.5257,7.2339,2.44311,9.8004c-1.94781,1.6217-4.77341,1.3402-7.30321,1.4957-2.5297.1556-5.5507,1.4428-5.6696,3.9746a4.02953,4.02953,0,0,0,2.7817,3.6841,9.5333,9.5333,0,0,0,4.8782.1678c5.3248-.8839,10.3442-3.0754,15.606-4.2788s11.1622-1.2936,15.6475,1.7092c4.4853,3.0027,6.537,9.9076,3.0225,14.0044-2.68209,3.1264-7.4292,3.5644-11.4484,2.6618s-7.7352-2.8783-11.75369-3.7841c-4.01841-.9059-8.76471-.4761-11.45431,2.6439-1.7219,1.9975-2.3135,4.762-3.95369,6.8271-2.49951,3.147-6.81241,4.0296-10.71841,4.9755-3.9059.9458-8.2089,2.554-9.7719,6.2564-1.8756,4.44274,1.605,9.78316,6.1891,11.28047s9.6414.043,13.8913-2.23621c4.2498-2.27917,8.041-5.364,12.3757-7.47726,9.3923-4.579,20.4381-4.1858,30.73321-2.3988,10.295,1.7871,20.41559,4.86714,30.85329,5.35344s21.6685-2.07067,28.7236-9.77824a12.86636,12.86636,0,0,0,3.3797-5.9953,6.59925,6.59925,0,0,0-1.9497-6.342c-1.9142-1.5719-4.6238-1.574-7.1007-1.5917a99.83153,99.83153,0,0,1-21.2847-2.4531c-3.7642-.8511-7.5824-1.9717-10.6312-4.3378s-5.19729-6.2347-4.545-10.0383c.344-2.0057,1.426-4.0228.82771-5.9678-.53681-1.7451-2.25071-2.8098-3.83471-3.7179-13.1015-7.5104-26.0741-16.2587-40.0435-22.0875C217.62739,186.648,199.20129,179.30719,190.61049,192.74039Z"/><path class="cls-5" d="M-9.38945,192.74039c-3.75315,5.8688-1.69855,15.2269,4.89205,17.4837,3.7948,1.2994,7.9369.1387,11.8061-.919s8.1375-1.9803,11.7684-.2756,5.5257,7.2339,2.443,9.8004c-1.9478,1.6217-4.7734,1.3402-7.3031,1.4957-2.5298.1556-5.5507,1.4428-5.6697,3.9746a4.02963,4.02963,0,0,0,2.7818,3.6841,9.5333,9.5333,0,0,0,4.8782.1678c5.3248-.8839,10.3442-3.0754,15.606-4.2788s11.1621-1.2936,15.6475,1.7092c4.4853,3.0027,6.5369,9.9076,3.0225,14.0044-2.6821,3.1264-7.4293,3.5644-11.4485,2.6618-4.0191-.9026-7.7352-2.8783-11.7536-3.7841-4.0184-.9059-8.7647-.4761-11.4543,2.6439-1.722,1.9975-2.3135,4.762-3.9537,6.8271-2.4995,3.147-6.8124,4.0296-10.7184,4.9755-3.9059.9458-8.20892,2.554-9.772,6.2564-1.87559,4.44274,1.605,9.78316,6.18906,11.28047s9.6415.043,13.8913-2.23621c4.2499-2.27917,8.0411-5.364,12.3758-7.47726,9.3923-4.579,20.438-4.1858,30.7331-2.3988,10.2951,1.7871,20.4156,4.86714,30.8533,5.35344s21.6685-2.07067,28.7237-9.77824a12.86531,12.86531,0,0,0,3.3796-5.9953,6.59945,6.59945,0,0,0-1.9496-6.342c-1.9142-1.5719-4.6239-1.574-7.1007-1.5917a99.83146,99.83146,0,0,1-21.2847-2.4531c-3.7642-.8511-7.5824-1.9717-10.6312-4.3378s-5.1974-6.2347-4.545-10.0383c.344-2.0057,1.4259-4.0228.8277-5.9678-.5368-1.7451-2.2507-2.8098-3.8347-3.7179-13.1015-7.5104-26.0742-16.2587-40.0435-22.0875C17.6274,186.648-.7987,179.30719-9.38945,192.74039Z"/><path class="cls-4" d="M137.2225,183.13569c-2.7963-2.0544-6.8858-1.1861-9.679.8725-2.7931,2.0586-4.7032,5.064-6.9585,7.7009a36.22722,36.22722,0,0,1-30.1211,12.3361c-4.5524-.3917-9.016-1.6575-13.584-1.7598s-9.5276,1.2263-12.2314,4.9095c-2.829,3.8538-2.3249,9.6045.6998,13.3067a14.5034,14.5034,0,0,0,12.8823,4.7836c3.8315-.4699,7.3681-2.2329,11.0742-3.3127s7.995-1.3839,11.1611.8245c3.4327,2.3943,4.5061,6.9796,4.6963,11.1606.1903,4.1809-.2093,8.5208,1.3232,12.4154a13.185,13.185,0,0,0,24.3904.3606c2.3351-5.455.9976-12.3928,4.8206-16.931,3.0987-3.6785,8.4834-4.3503,13.2873-4.1136s9.7759,1.0913,14.3134-.5037c4.5376-1.5951,8.2561-6.8827,6.1135-11.1888a8.35767,8.35767,0,0,0-6.2686-4.1144,25.15629,25.15629,0,0,0-7.7466.3719q-9.75465,1.4742-19.5396,2.7393c-2.3948.3096-5.0553.5468-7.0062-.8763-2.5446-1.8562-2.5862-5.9257-.7352-8.4741,1.8509-2.5484,5.023-3.7993,8.1248-4.3468,4.2618-.7522,8.752-.4403,12.7908-1.9951s7.5198-6.033,5.8952-10.0443c-1.6397-4.0489-6.9448-4.8074-11.3109-4.9488C141.4935,182.48279,139.3432,182.96079,137.2225,183.13569Z"/><path class="cls-5" d="M190.61049-7.2596c-3.7532,5.8687-1.6986,15.2269,4.892,17.4836,3.7949,1.2994,7.937.1388,11.8062-.9189s8.13741-1.9804,11.7683-.2757c3.6309,1.70479,5.5257,7.2339,2.44311,9.8004-1.94781,1.6217-4.77341,1.3402-7.30321,1.4958-2.5297.1555-5.5507,1.4428-5.6696,3.9745a4.02966,4.02966,0,0,0,2.7817,3.6842,9.53221,9.53221,0,0,0,4.8782.1677c5.3248-.8839,10.3442-3.0754,15.606-4.27881s11.1622-1.29359,15.6475,1.70921,6.537,9.9077,3.0225,14.0044c-2.68209,3.1265-7.4292,3.56439-11.4484,2.6618s-7.7352-2.8783-11.75369-3.7841c-4.01841-.9058-8.76471-.4761-11.45431,2.6439-1.7219,1.9975-2.3135,4.7621-3.95369,6.8272-2.49951,3.147-6.81241,4.02959-10.71841,4.9754-3.9059.9459-8.2089,2.554-9.7719,6.2564-1.8756,4.44279,1.605,9.7832,6.1891,11.2805s9.6414.043,13.8913-2.2362c4.2498-2.2792,8.041-5.364,12.3757-7.4773,9.3923-4.579,20.4381-4.1858,30.73321-2.3987,10.295,1.787,20.41559,4.8671,30.85329,5.3534s21.6685-2.0707,28.7236-9.7783a12.86653,12.86653,0,0,0,3.3797-5.9952,6.59918,6.59918,0,0,0-1.9497-6.342c-1.9142-1.572-4.6238-1.5741-7.1007-1.5917a99.83805,99.83805,0,0,1-21.2847-2.4532c-3.7642-.851-7.5824-1.9717-10.6312-4.3378-3.0488-2.366-5.19729-6.2346-4.545-10.0383.344-2.0057,1.426-4.0227.82771-5.9678-.53681-1.7451-2.25071-2.8098-3.83471-3.7179-13.1015-7.5104-26.0741-16.2586-40.0435-22.0874C217.62739-13.3521,199.20129-20.6929,190.61049-7.2596Z"/><path class="cls-5" d="M-9.38945-7.2596C-13.1426-1.3909-11.088,7.9673-4.4974,10.224c3.7948,1.2994,7.9369.1388,11.8061-.9189s8.1375-1.9804,11.7684-.2757c3.6309,1.70479,5.5257,7.2339,2.443,9.8004-1.9478,1.6217-4.7734,1.3402-7.3031,1.4958-2.5298.1555-5.5507,1.4428-5.6697,3.9745a4.02976,4.02976,0,0,0,2.7818,3.6842,9.53221,9.53221,0,0,0,4.8782.1677c5.3248-.8839,10.3442-3.0754,15.606-4.27881S42.9754,22.5796,47.4608,25.5824c4.4853,3.00279,6.5369,9.9077,3.0225,14.0044-2.6821,3.1265-7.4293,3.56439-11.4485,2.6618-4.0191-.9026-7.7352-2.8783-11.7536-3.7841s-8.7647-.4761-11.4543,2.6439c-1.722,1.9975-2.3135,4.7621-3.9537,6.8272-2.4995,3.147-6.8124,4.02959-10.7184,4.9754-3.9059.9459-8.20892,2.554-9.772,6.2564-1.87559,4.44279,1.605,9.7832,6.18906,11.2805s9.6415.043,13.8913-2.2362c4.2499-2.2792,8.0411-5.364,12.3758-7.4773,9.3923-4.579,20.438-4.1858,30.7331-2.3987,10.2951,1.787,20.4156,4.8671,30.8533,5.3534s21.6685-2.0707,28.7237-9.7783a12.86548,12.86548,0,0,0,3.3796-5.9952,6.59938,6.59938,0,0,0-1.9496-6.342c-1.9142-1.572-4.6239-1.5741-7.1007-1.5917a99.838,99.838,0,0,1-21.2847-2.4532c-3.7642-.851-7.5824-1.9717-10.6312-4.3378-3.0488-2.366-5.1974-6.2346-4.545-10.0383.344-2.0057,1.4259-4.0227.8277-5.9678-.5368-1.7451-2.2507-2.8098-3.8347-3.7179C55.909,5.9565,42.9363-2.7917,28.967-8.6205,17.6274-13.3521-.7987-20.6929-9.38945-7.2596Z"/><path class="cls-4" d="M137.2225-16.8644c-2.7963-2.05441-6.8858-1.1861-9.679.8725-2.7931,2.0586-4.7032,5.06409-6.9585,7.701A36.22717,36.22717,0,0,1,90.4639,4.0451c-4.5524-.3916-9.016-1.6574-13.584-1.7597S67.3523,3.5116,64.6485,7.1949c-2.829,3.8538-2.3249,9.6044.6998,13.3066a14.50346,14.50346,0,0,0,12.8823,4.78369c3.8315-.47,7.3681-2.23289,11.0742-3.31269,3.7061-1.0799,7.995-1.384,11.1611.8244,3.4327,2.3944,4.5061,6.9796,4.6963,11.1606.1903,4.181-.2093,8.5208,1.3232,12.4154a13.185,13.185,0,0,0,24.3904.3606c2.3351-5.455.9976-12.3928,4.8206-16.931,3.0987-3.6784,8.4834-4.35031,13.2873-4.1136s9.7759,1.09129,14.3134-.50371c4.5376-1.595,8.2561-6.88259,6.1135-11.18869a8.35715,8.35715,0,0,0-6.2686-4.1144,25.1501,25.1501,0,0,0-7.7466.3719q-9.75465,1.4742-19.5396,2.7393c-2.3948.3096-5.0553.5467-7.0062-.8763-2.5446-1.8562-2.5862-5.92581-.7352-8.4741,1.8509-2.5484,5.023-3.7993,8.1248-4.3468,4.2618-.7523,8.752-.4403,12.7908-1.9952,4.0388-1.5548,7.5198-6.033,5.8952-10.0442-1.6397-4.0489-6.9448-4.80751-11.3109-4.9489C141.4935-17.5173,139.3432-17.0393,137.2225-16.8644Z"/><path class="cls-5" d="M152.6104,17.9734c-3.535,2.25079-5.7144,7.2129-3.5036,10.773.9659,1.5553,2.5762,2.5886,3.7566,3.9881,3.6136,4.2841,2.324,11.0799-1.1534,15.4752-3.4775,4.3953-8.5989,7.0926-13.2932,10.1544s-9.3364,6.9634-10.8304,12.3652,1.7467,12.3333,7.3371,12.7313c4.4347.3157,8.0403-3.2515,11.4064-6.1559s8.301-5.4344,12.0276-3.0098c2.6301,1.71129,3.4111,5.1755,5.3662,7.6297a9.13006,9.13006,0,0,0,10.8726,2.544,8.17274,8.17274,0,0,0,3.7552-10.2672c-2.0566-4.4686-8.014-6.1009-10.067-10.57121-1.7807-3.87759.1153-8.59939,3.1747-11.57369,3.0594-2.9742,7.0825-4.6949,10.79719-6.7942,3.7148-2.0992,7.38271-4.8777,8.8065-8.9,2.2177-6.2655-2.0446-13.3374-7.8585-16.558C175.7249,15.6611,160.2857,13.0864,152.6104,17.9734Z"/><path class="cls-4" d="M161.0728,164.0154c-4.4759-1.7536-8.064-5.2346-12.3894-7.332-4.3255-2.0974-10.3287-2.3414-13.1908,1.5209-2.3414,3.1598-1.4467,7.8901,1.1423,10.8504,2.589,2.96019,6.4542,4.46839,10.2693,5.42319,3.815.9548,7.7646,1.4739,11.4056,2.9603,4.7098,1.9229,8.8144,5.4272,13.8211,6.3286a14.48026,14.48026,0,0,0,15.5422-8.6727c1.82209-4.63249.186-17.56449-6.7635-15.65-3.0307.8349-5.5211,4.2574-8.9921,5.1409A17.847,17.847,0,0,1,161.0728,164.0154Z"/><path class="cls-5" d="M113.359,158.6725c-2.1312-2.4998-5.6799-4.42731-8.6418-3.0067-4.0962,1.9645-3.4749,7.9831-5.6883,11.95039-3.0736,5.5088-10.8057,5.9008-17.0322,4.8887-6.2265-1.0122-13.2168-2.56459-18.3732,1.0694-5.5446,3.9077-5.3823,13.7321.5171,17.0801,4.6277,2.6264,10.4673,1.0291,15.3141-1.1669,4.8467-2.1961,9.7718-5.0064,15.0805-4.6432,8.1763.5595,15.536,8.5693,23.3286,6.0315,4.8999-1.5958,7.6138-6.8082,11.911-9.6524,4.8861-3.2339,12.3349-3.1285,16.0253-8.1541,3.0193-4.11159,2.5173-7.47639-2.2647-8.22249-4.5973-.7174-10.1539,3.0735-14.7178,3.6135C120.2647,169.4724,118.2424,164.4005,113.359,158.6725Z"/><path class="cls-5" d="M183.31169,102.1821c-2.0871,2.5055-2.64489,5.91909-2.96349,9.1644-.3185,3.2453-.5088,6.62269-2.0617,9.4901a14.15626,14.15626,0,0,1-8.7667,6.474,31.88737,31.88737,0,0,1-11.1174.6651c-3.6525-.2886-8.243-.32551-9.878,2.95349-1.2334,2.47341.1148,5.51351,2.0469,7.48991a14.50261,14.50261,0,0,0,16.4044,2.7529c3.059-1.5317,6.4043-4.2461,9.4422-2.67281,3.6945,1.91341,2.4646,7.98161,5.47979,10.84851,2.6369,2.5071,7.4779.9573,9.1127-2.2933,1.6348-3.2505.7004-7.2831-1.2365-10.36321-1.0873-1.72909-2.5086-3.36549-2.8089-5.38589-.511-3.4388,2.3164-6.3298,4.217-9.2409a20.193,20.193,0,0,0,2.125-16.708C191.87629,100.3243,187.787,96.8096,183.31169,102.1821Z"/><path class="cls-4" d="M178.6386,32.08819a8.90251,8.90251,0,0,0-3.9947,11.52051c1.7706,3.5868,5.9705,5.8301,6.79129,9.745.7717,3.6809-1.77269,7.1653-2.57589,10.83949a9.89864,9.89864,0,0,0,2.28549,8.95921,7.32809,7.32809,0,0,0,8.8176,1.30779c2.17971-1.37419,3.3061-3.95989,3.7618-6.496.4558-2.53609.367-5.14279.7661-7.68839.4615-2.94361,1.5643-5.7435,2.3172-8.6264.7528-2.8828,1.1449-5.9867.18561-8.8076C195.023,37.0483,184.76819,29.16719,178.6386,32.08819Z"/></g></pattern></defs><rect class="cls-6" width="841.88976" height="467.71654"/><path class="cls-7" d="M429.78693,75.32466c-1.74694.1485-4.37573-.58154-5.72509.7677-1.897,1.897,1.26464,10.43354,1.897,21.49939s-10.11743,18.65387-12.01441,24.02875c-1.897,5.37482.31641,12.01434,0,17.38916-.31616,5.37488-2.84545,5.691-6.00708,4.42633-3.16162-1.26465-.31616-16.75683-6.95581-20.23468-6.6394-3.47784-21.1831-.63232-24.97705,1.26465-3.79394,1.897-.94848,11.06586-.94848,11.06586-7.272-1.58081-5.69117-.94849-4.42652,9.80121s0,6.95568-9.1687,14.22754c-9.16894,7.27185-3.16162,18.02154-5.05884,21.81555-1.897,3.794-5.05859-2.2132-9.48486-1.26471s-1.26465,11.69818-8.22046,9.80121a30.51826,30.51826,0,0,0-12.96264-.63233,17.65685,17.65685,0,0,1-17.63331,1.32984c-1.02465-2.44623-1.9685-4.58051-2.60156-5.75623-2.21313-4.11017-11.06592-5.37482-10.74951-9.485.31592-4.11016,4.11011-4.74249-2.21338-11.06585-6.32324-6.32337-5.69092-4.74249-5.05859-12.33051s-3.16162-6.63952-3.794-11.69818-2.9956-4.84283-6.32348-9.16888c-3.16163-4.11017-6.63941-3.794,0-19.2862,0,0-.31617,0-3.16163-7.90417s-8.22045-18.65387,2.21314-30.35205c0,0,6.32349-8.5365,10.43359-9.16889,4.11011-.63232,1.26465-4.42633,2.21314-10.43347.94848-6.0072,9.16894-5.691,12.64673-14.85986,3.47778-9.16889,5.37475-13.59522,18.65381-17.07306s9.4851-8.5365,18.02148-6.95569c19.59546,3.62879,10.11743.63233,19.60254-2.21313,9.48486-2.84552,13.91113,6.00714,18.65381,5.691a43.78052,43.78052,0,0,1,24.02881,6.0072c3.91357,2.34826,8.47363.17462,14.03466,4.14135a9.33376,9.33376,0,0,0,7.68384,1.48743c2.89624-.72516,7.407,2.94928,10.21424,8.91492,5.05871,10.74963,3.98864,21.99365,3.16174,27.19037a48.39476,48.39476,0,0,1-4.15943,12.31433,12.31386,12.31386,0,0,1,.14954-1.80969C432.23054,74.00185,430.73029,75.24446,429.78693,75.32466Z"/><path class="cls-7" d="M307.39606,190.22878s.25.15594.70459.38135a17.65685,17.65685,0,0,0,17.63331-1.32984,30.51826,30.51826,0,0,1,12.96264.63233c6.95581,1.897,3.79419-8.85273,8.22046-9.80121s7.58789,5.05871,9.48486,1.26471c1.89722-3.794-4.1101-14.5437,5.05884-21.81555,9.1687-7.27186,10.43335-3.47785,9.1687-14.22754s-2.84546-11.382,4.42652-9.80121c0,0-2.84546-9.16883.94848-11.06586,3.79395-1.897,18.33765-4.74249,24.97705-1.26465,6.63965,3.47785,3.79419,18.97,6.95581,20.23468,3.16163,1.26471,5.69092.94855,6.00708-4.42633.31641-5.37482-1.897-12.01434,0-17.38916,1.897-5.37488,12.64673-12.96289,12.01441-24.02875s-3.794-19.60235-1.897-21.49939c1.34936-1.34924,3.97815-.6192,5.72509-.7677.94336-.0802,2.44361-1.32281,1.96326,1.4712a12.31386,12.31386,0,0,0-.14954,1.80969c-.17895,9.13482,6.41163,27.90991,8.5857,35.42694,1.84674,6.38529-6.00708,23.0802-5.69092,27.82269s6.00708,19.91852,4.11011,22.764-7.27185,3.47784-7.27185,3.47784,1.26465,8.22034-5.05872,22.764c-6.32324,14.5437-.76648,29.408-5.37475,34.46222-9.80127,10.7497-22.76417.31616-29.40357,8.22034a23.41743,23.41743,0,0,0-4.739,10.22619,157.62842,157.62842,0,0,0-14.72486-6.71466c-10.23047-3.65374-44.94091-20.09545-57.36352-18.634a42.49894,42.49894,0,0,1-11.37891-.27606C304.75593,207.72054,307.39606,190.22878,307.39606,190.22878Z"/><path class="cls-7" d="M224.1532,423.81718c-1.95043,27.30451,6.50123,31.20514,6.50123,33.80554,0,0,1.53088,4.01978,3.72241,10.09382h404.8125c.6438-4.19709.19665-9.20923-2.26148-15.45691-8.7688-22.28772-2.19214-70.51691-6.21118-73.07453a85.65243,85.65243,0,0,0-9.904-4.06878c-12.69678-4.71131-32.968-11.553-35.19507-12.30329l-.207-.0697s-4.75,20.82623-2.9231,36.90265-20.09546,48.22919-22.65307,45.30621-8.769-11.69195-14.98023-12.788c-6.21142-1.09613-7.30761-1.46149-12.4226-11.3266-4.30469-8.30188-12.74854-16.85193-20.97852-22.84052-1.54956-1.12756-3.09253-2.17456-4.59766-3.10089-7.6809-4.72674-15.12158-20.68188-19.62085-40.52258-1.06543-4.69806-1.96728-9.61212-2.667-14.64868C480.914,313.41807,428.66566,300.63,428.66566,300.63l2.47168-20.65741c.55932-4.67377-1.82007-8.82807-5.21973-12.08356-12.74036-12.19946-27.28369-18.16022-39.15991-24.1192a157.62574,157.62574,0,0,0-14.72486-6.71466c-10.23047-3.65375-44.94091-20.09546-57.36352-18.634a42.49891,42.49891,0,0,1-11.37891-.27607c-6.79541-1.02819-11.761-3.13421-13.46631-2.64691-10.24243,2.92639-10.41186,29.53955-10.41186,29.53955s-13.002,6.501-33.15528,27.30445-25.35424,39.65655-30.55517,57.85955c-5.20068,18.203,5.20093,35.75586,9.10156,52.00855S226.10364,396.51268,224.1532,423.81718Z"/><path class="cls-7" d="M535.95954,345.33016l17.74414,3.8789c-3.96557,4.63874-9.894,11.63868-12.13537,16.29395-2.65,5.50384-20.447,14.90808-28.61451,19.00061-4.76525-10.81177-16.29882-27.94983-20.473-32.98071,5.01026-3.73749,15.39209-11.89063,18.77515-17.66175,4.52026-7.711-.79761-19.14459,2.39306-20.20819,3.19092-1.0636,17.28345-21.80359,20.74012-24.99438a29.94052,29.94052,0,0,1,6.51672-4.13837L531.7801,339.1556A5.4084,5.4084,0,0,0,535.95954,345.33016Z"/><path class="cls-7" d="M491.0478,350.08095a5.91671,5.91671,0,0,1,1.433,1.442c4.1742,5.03088,15.70777,22.16894,20.473,32.98071,1.53382,3.48022,2.3689,6.30658,2.02478,7.855a11.452,11.452,0,0,1-3.52563,5.63843c-1.54956-1.12756-3.09241-2.17456-4.59766-3.10089-7.68091-4.72675-15.12158-20.68189-19.62085-40.52259C489.3841,351.922,491.0478,350.08095,491.0478,350.08095Z"/><path class="cls-7" d="M570.0196,315.54866a17.41647,17.41647,0,0,0-.10645-7.3761c-.82275-3.55474-1.69482-9.09375-.15966-12.33471,2.39306-5.05207,6.38159-8.77466,9.30639-4.52027,2.92481,4.25434,5.58387,13.5608,5.84973,16.48566a24.52947,24.52947,0,0,0,1.59534,6.1156s12.49732-18.081,13.029-26.85565c0,0,.03736.00336.10035.0105.98632.11163,9.19018,1.26611,8.94018,8.76416a49.04706,49.04706,0,0,1-1.91186,12.0907,3.495,3.495,0,0,0,.3833,2.83209c1.60669,2.61291,4.85571,8.31933,4.45337,11.13513-.53174,3.7226,10.10412,17.54926,9.57226,24.19672-.53174,6.6474,1.59546,12.49719-1.06347,20.20819-.439,1.27276.061,4.93438.80444,8.81567-12.69678-4.7113-32.968-11.553-35.19507-12.30328a51.9336,51.9336,0,0,1-7.31018-8.22553,57.6121,57.6121,0,0,1-6.9585-13.28125C566.91694,329.48787,567.47126,328.16872,570.0196,315.54866Z"/><path class="cls-7" d="M531.7801,339.1556l9.12573-54.63538,9.6106-57.53924a5.40842,5.40842,0,0,1,6.21972-4.4444l46.94336,7.78784a5.40182,5.40182,0,0,1,4.44458,6.25385c-1.61181,9.27563-4.97351,29.35723-8.48974,50.49542-.063-.00714-.10035-.0105-.10035-.0105-.53173,8.77466-13.029,26.85565-13.029,26.85565a24.52947,24.52947,0,0,1-1.59534-6.1156c-.26586-2.92486-2.92492-12.23132-5.84973-16.48566-2.9248-4.25439-6.91333-.5318-9.30639,4.52027-1.53516,3.241-.66309,8.78.15966,12.33471a17.41647,17.41647,0,0,1,.10645,7.3761c-2.54834,12.62006-3.10266,13.93921,1.32922,25.75763a57.6121,57.6121,0,0,0,6.9585,13.28125l-24.60364-5.37848-17.74414-3.8789A5.4084,5.4084,0,0,1,531.7801,339.1556Z"/><path class="cls-1" d="M512.1093,392.92789c.34411-1.54847-.491-4.37482-2.02478-7.85505,8.16748-4.09253,25.96447-13.49676,28.6145-19.00061,2.24133-4.65527,8.1698-11.65521,12.13537-16.29394l24.60364,5.37848a51.93392,51.93392,0,0,0,7.31018,8.22552l-.207-.0697s-4.74988,20.82623-2.92309,36.90265c1.8269,16.07642-20.09546,48.22919-22.65308,45.30621s-8.76892-11.692-14.98023-12.788c-6.21142-1.09613-7.30749-1.46149-12.4226-11.3266-4.30469-8.30188-12.74854-16.85193-20.97852-22.84052A11.452,11.452,0,0,0,512.1093,392.92789Z"/><path class="cls-8" d="M426.91765,75.89389c-1.74695.1485-4.37574-.58154-5.7251.7677-1.897,1.897,1.26465,10.43353,1.897,21.49939s-10.11743,18.65387-12.0144,24.02875c-1.897,5.37481.3164,12.01434,0,17.38916-.31617,5.37487-2.84546,5.691-6.00708,4.42633-3.16162-1.26465-.31617-16.75684-6.95581-20.23468-6.63941-3.47785-21.18311-.63233-24.97705,1.26465-3.79395,1.897-.94849,11.06585-.94849,11.06585-7.272-1.58081-5.69116-.94848-4.42651,9.80121s0,6.95569-9.16871,14.22754c-9.16894,7.27185-3.16162,18.02155-5.05883,21.81555-1.897,3.794-5.0586-2.21319-9.48487-1.26471s-1.26465,11.69818-8.22046,9.80121a30.51835,30.51835,0,0,0-12.96264-.63232,17.65679,17.65679,0,0,1-17.6333,1.32983c-1.02466-2.44623-1.96851-4.5805-2.60157-5.75623-2.21313-4.11016-11.06591-5.37481-10.74951-9.485.31592-4.11017,4.11011-4.74249-2.21338-11.06586-6.32324-6.32336-5.69091-4.74249-5.05859-12.3305s-3.16162-6.63953-3.79395-11.69818c-.63232-5.05872-2.9956-4.84284-6.32348-9.16889-3.16162-4.11017-6.63941-3.794,0-19.28619,0,0-.31616,0-3.16162-7.90418s-8.22046-18.65387,2.21313-30.35205c0,0,6.32349-8.5365,10.4336-9.16888,4.1101-.63233,1.26464-4.42633,2.21313-10.43347.94849-6.00721,9.16895-5.691,12.64673-14.85987,3.47778-9.16888,5.37475-13.59521,18.65381-17.07306s9.4851-8.53649,18.02148-6.95568c19.59546,3.62878,10.11743.63232,19.60254-2.21314,9.48486-2.84552,13.91113,6.00714,18.65381,5.691a43.78061,43.78061,0,0,1,24.02881,6.0072c3.91357,2.34827,8.47363.17462,14.03467,4.14136a9.33378,9.33378,0,0,0,7.68383,1.48743c2.89624-.72516,7.407,2.94928,10.21424,8.91491,5.05871,10.74964,3.98864,21.99366,3.16174,27.19037a48.395,48.395,0,0,1-4.15942,12.31433,12.31282,12.31282,0,0,1,.14953-1.80969C429.36125,74.57107,427.861,75.81369,426.91765,75.89389Z"/><path class="cls-9" d="M304.52678,190.798s.25.15595.70459.38135a17.65679,17.65679,0,0,0,17.6333-1.32983,30.51835,30.51835,0,0,1,12.96264.63232c6.95581,1.897,3.79419-8.85272,8.22046-9.80121s7.58789,5.05872,9.48487,1.26471c1.89721-3.794-4.11011-14.5437,5.05883-21.81555,9.16871-7.27185,10.43335-3.47784,9.16871-14.22754s-2.84546-11.382,4.42651-9.80121c0,0-2.84546-9.16882.94849-11.06585,3.79394-1.897,18.33764-4.7425,24.97705-1.26465,6.63964,3.47784,3.79419,18.97,6.95581,20.23468,3.16162,1.26471,5.69091.94854,6.00708-4.42633.3164-5.37482-1.897-12.01435,0-17.38916,1.897-5.37488,12.64673-12.96289,12.0144-24.02875s-3.79394-19.60236-1.897-21.49939c1.34936-1.34924,3.97815-.6192,5.7251-.7677.94336-.0802,2.4436-1.32282,1.96325,1.47119a12.31282,12.31282,0,0,0-.14953,1.80969c-.179,9.13483,6.41162,27.90991,8.58569,35.42694,1.84675,6.38529-6.00708,23.0802-5.69092,27.8227s6.00708,19.91851,4.11011,22.764-7.27185,3.47785-7.27185,3.47785,1.26465,8.22034-5.05872,22.764c-6.32324,14.5437-.76648,29.408-5.37475,34.46222-9.80127,10.74969-22.76416.31616-29.40357,8.22033a23.41763,23.41763,0,0,0-4.739,10.2262,157.62585,157.62585,0,0,0-14.72485-6.71466C358.933,233.97067,324.22258,217.529,311.8,218.99045a42.4985,42.4985,0,0,1-11.37891-.27607C301.88664,208.28976,304.52678,190.798,304.52678,190.798Z"/><path class="cls-10" d="M221.28382,424.38646C219.33338,451.691,227.785,455.5916,227.785,458.192c0,0,1.437,3.774,3.5166,9.52454H636.3899c.52112-4.08106.01794-8.91669-2.33118-14.88764-8.769-22.28772-2.19238-70.51691-6.21142-73.07452a85.63052,85.63052,0,0,0-9.90406-4.06879c-12.69677-4.7113-32.968-11.553-35.19506-12.30328l-.207-.06971s-4.74975,20.82624-2.92309,36.90265c1.8269,16.07642-20.09546,48.22919-22.65308,45.30622s-8.7688-11.692-14.98022-12.788c-6.21143-1.09613-7.30738-1.46148-12.42261-11.3266-4.30469-8.30188-12.74853-16.85193-20.97852-22.84051-1.54956-1.12757-3.09228-2.17456-4.59765-3.10089-7.68091-4.72675-15.12158-20.68189-19.62085-40.52259-1.06543-4.69806-1.96729-9.61212-2.66675-14.64868-3.65381-26.30682-55.9021-39.09491-55.9021-39.09491l2.47193-20.65747c.5592-4.67377-1.82007-8.82806-5.22-12.08356-12.74023-12.19946-27.28369-18.16021-39.15991-24.11914a157.62853,157.62853,0,0,0-14.72485-6.71466c-10.23047-3.65374-44.94092-20.09546-57.36353-18.634a42.49887,42.49887,0,0,1-11.3789-.27606c-6.79541-1.0282-11.761-3.13422-13.46631-2.64691-10.24243,2.92639-10.41187,29.53955-10.41187,29.53955s-13.00195,6.501-33.15527,27.30444C223.23426,293.715,218.03333,312.568,212.8324,330.771c-5.20068,18.203,5.20093,35.75586,9.10157,52.00854S223.23426,397.082,221.28382,424.38646Z"/><path class="cls-9" d="M533.09025,345.89938l17.74414,3.87891c-3.96557,4.63873-9.894,11.63867-12.13537,16.29394-2.65,5.50385-20.447,14.90808-28.6145,19.00061-4.76526-10.81176-16.29883-27.94982-20.473-32.98071,5.01026-3.73749,15.39209-11.89062,18.77515-17.66174,4.52026-7.711-.79761-19.14459,2.39307-20.20819,3.19091-1.0636,17.28344-21.80359,20.74011-24.99439a29.94049,29.94049,0,0,1,6.51672-4.13836l-9.12573,54.63537A5.40841,5.40841,0,0,0,533.09025,345.89938Z"/><path class="cls-10" d="M488.17851,350.65018a5.91657,5.91657,0,0,1,1.433,1.442c4.1742,5.03089,15.70777,22.16895,20.473,32.98071,1.53381,3.48023,2.36889,6.30658,2.02478,7.85505a11.452,11.452,0,0,1-3.52564,5.63842c-1.54956-1.12756-3.09241-2.17456-4.59765-3.10089-7.68091-4.72674-15.12159-20.68188-19.62085-40.52258C486.51481,352.49118,488.17851,350.65018,488.17851,350.65018Z"/><path class="cls-9" d="M567.15031,316.11789a17.41664,17.41664,0,0,0-.10644-7.3761c-.82276-3.55475-1.69483-9.09375-.15967-12.33472,2.39307-5.05206,6.38159-8.77466,9.3064-4.52026,2.9248,4.25433,5.58386,13.56079,5.84973,16.48566a24.52934,24.52934,0,0,0,1.59533,6.1156s12.49732-18.081,13.02906-26.85566c0,0,.03735.00336.10034.0105.98633.11164,9.19018,1.26612,8.94018,8.76416a49.047,49.047,0,0,1-1.91186,12.0907,3.495,3.495,0,0,0,.3833,2.83209c1.60669,2.61292,4.85571,8.31934,4.45337,11.13514-.53174,3.72259,10.10412,17.54925,9.57226,24.19671-.53173,6.6474,1.59546,12.49719-1.06347,20.20819-.439,1.27277.061,4.93439.80444,8.81568-12.69678-4.71131-32.968-11.553-35.19507-12.30329a51.93392,51.93392,0,0,1-7.31018-8.22552,57.61194,57.61194,0,0,1-6.95849-13.28125C564.04765,330.0571,564.602,328.73794,567.15031,316.11789Z"/><path class="cls-7" d="M528.91081,339.72482l9.12573-54.63537,9.6106-57.53925a5.40843,5.40843,0,0,1,6.21972-4.4444l46.94336,7.78784a5.40183,5.40183,0,0,1,4.44458,6.25385c-1.61181,9.27563-4.97351,29.35724-8.48974,50.49542-.063-.00714-.10034-.0105-.10034-.0105-.53174,8.77466-13.02906,26.85566-13.02906,26.85566a24.52934,24.52934,0,0,1-1.59533-6.1156c-.26587-2.92487-2.92493-12.23133-5.84973-16.48566-2.92481-4.2544-6.91333-.5318-9.3064,4.52026-1.53516,3.241-.66309,8.78.15967,12.33472a17.41664,17.41664,0,0,1,.10644,7.3761c-2.54834,12.62-3.10266,13.93921,1.32923,25.75763a57.61194,57.61194,0,0,0,6.95849,13.28125l-24.60364-5.37848-17.74414-3.87891A5.40841,5.40841,0,0,1,528.91081,339.72482Z"/><path class="cls-1" d="M514.40667,393.25318c.34412-1.54847-.491-4.37482-2.02478-7.855,8.16748-4.09253,25.96448-13.49677,28.6145-19.00062,2.24133-4.65527,8.1698-11.65521,12.13538-16.29394l24.60363,5.37848a51.93337,51.93337,0,0,0,7.31019,8.22552l-.207-.0697s-4.74987,20.82623-2.92309,36.90265c1.8269,16.07642-20.09546,48.22919-22.65308,45.30621s-8.76892-11.692-14.98022-12.788c-6.21143-1.09613-7.3075-1.46149-12.42261-11.3266-4.30469-8.30188-12.74854-16.85193-20.97852-22.84052A11.452,11.452,0,0,0,514.40667,393.25318Z"/><path class="cls-8" d="M429.215,76.21918c-1.74695.1485-4.37573-.58154-5.7251.7677-1.897,1.897,1.26465,10.43353,1.897,21.49939s-10.11743,18.65387-12.0144,24.02875c-1.897,5.37481.31641,12.01434,0,17.38916-.31616,5.37488-2.84546,5.691-6.00708,4.42633-3.16162-1.26465-.31616-16.75684-6.95581-20.23468-6.63941-3.47785-21.18311-.63233-24.97705,1.26465-3.79395,1.897-.94849,11.06585-.94849,11.06585-7.272-1.58081-5.69116-.94848-4.42651,9.80121s0,6.95569-9.1687,14.22754c-9.16895,7.27185-3.16162,18.02155-5.05884,21.81555-1.897,3.794-5.05859-2.21319-9.48486-1.26471s-1.26465,11.69818-8.22046,9.80121a30.51839,30.51839,0,0,0-12.96265-.63232,17.6568,17.6568,0,0,1-17.6333,1.32983c-1.02466-2.44623-1.96851-4.5805-2.60156-5.75622-2.21314-4.11017-11.06592-5.37482-10.74951-9.485.31591-4.11017,4.1101-4.74249-2.21338-11.06586-6.32325-6.32336-5.69092-4.74249-5.0586-12.3305s-3.16162-6.63953-3.79394-11.69818c-.63233-5.05872-2.99561-4.84284-6.32349-9.16889-3.16162-4.11017-6.6394-3.794,0-19.28619,0,0-.31616,0-3.16162-7.90418s-8.22046-18.65387,2.21313-30.35205c0,0,6.32349-8.5365,10.4336-9.16888s1.26465-4.42633,2.21313-10.43347c.94849-6.0072,9.16895-5.691,12.64673-14.85987S306.508,26.40015,319.787,22.9223s9.48511-8.53649,18.02148-6.95568c19.59546,3.62878,10.11744.63232,19.60254-2.21314,9.48487-2.84552,13.91114,6.00714,18.65381,5.691a43.78061,43.78061,0,0,1,24.02881,6.0072c3.91358,2.34827,8.47363.17462,14.03467,4.14136a9.33379,9.33379,0,0,0,7.68384,1.48743c2.89624-.72516,7.407,2.94928,10.21423,8.91491,5.05872,10.74964,3.98865,21.99366,3.16174,27.19037a48.39488,48.39488,0,0,1-4.15942,12.31433,12.31135,12.31135,0,0,1,.14954-1.80969C431.65862,74.89637,430.15838,76.139,429.215,76.21918Z"/><path class="cls-11" d="M306.82415,191.12329s.25.15595.70459.38135a17.6568,17.6568,0,0,0,17.6333-1.32983,30.51839,30.51839,0,0,1,12.96265.63232c6.95581,1.897,3.79419-8.85272,8.22046-9.80121s7.58789,5.05872,9.48486,1.26471c1.89722-3.794-4.11011-14.5437,5.05884-21.81555,9.1687-7.27185,10.43335-3.47784,9.1687-14.22754s-2.84546-11.382,4.42651-9.80121c0,0-2.84546-9.16882.94849-11.06585,3.79394-1.897,18.33764-4.7425,24.97705-1.26465,6.63965,3.47784,3.79419,18.97,6.95581,20.23468,3.16162,1.26471,5.69092.94855,6.00708-4.42633.31641-5.37482-1.897-12.01435,0-17.38916,1.897-5.37488,12.64673-12.96289,12.0144-24.02875s-3.79394-19.60236-1.897-21.49939c1.34937-1.34924,3.97815-.6192,5.7251-.7677.94336-.0802,2.4436-1.32281,1.96326,1.47119a12.31135,12.31135,0,0,0-.14954,1.80969c-.179,9.13483,6.41162,27.90991,8.58569,35.42694,1.84675,6.38529-6.00708,23.0802-5.69092,27.8227s6.00708,19.91852,4.11011,22.764-7.27185,3.47784-7.27185,3.47784,1.26465,8.22034-5.05871,22.764c-6.32325,14.5437-.76648,29.408-5.37476,34.46222-9.80127,10.74969-22.76416.31616-29.40356,8.22033a23.41754,23.41754,0,0,0-4.739,10.2262,157.62585,157.62585,0,0,0-14.72485-6.71466c-10.23047-3.65375-44.94092-20.09546-57.36353-18.634a42.49886,42.49886,0,0,1-11.3789-.27606C304.184,208.61505,306.82415,191.12329,306.82415,191.12329Z"/><path class="cls-11" d="M638.72718,467.71654c.45349-4.01252-.08423-8.74958-2.37109-14.56238-8.769-22.28772-2.19239-70.51691-6.21143-73.07453a85.63263,85.63263,0,0,0-9.90405-4.06878c-12.69678-4.71131-32.968-11.553-35.19507-12.30329l-.207-.0697s-4.74976,20.82623-2.9231,36.90265c1.82691,16.07642-20.09546,48.22919-22.65307,45.30621s-8.7688-11.692-14.98023-12.788c-6.21142-1.09613-7.30737-1.46149-12.42261-11.3266-4.30468-8.30188-12.74853-16.85193-20.97851-22.84052-1.54956-1.12756-3.09229-2.17456-4.59766-3.10089-7.68091-4.72674-15.12158-20.68188-19.62085-40.52258-1.06543-4.69806-1.96728-9.61212-2.66675-14.64868-3.6538-26.30683-55.9021-39.09491-55.9021-39.09491l2.47193-20.65741c.5592-4.67377-1.82007-8.82813-5.22-12.08362-12.74024-12.1994-27.28369-18.16022-39.15991-24.11914a157.62574,157.62574,0,0,0-14.72486-6.71466c-10.23047-3.65375-44.94092-20.09546-57.36352-18.634a42.49894,42.49894,0,0,1-11.37891-.27606c-6.79541-1.0282-11.761-3.13422-13.46631-2.64692-10.24243,2.9264-10.41186,29.53955-10.41186,29.53955s-13.002,6.501-33.15528,27.30445c-20.15332,20.80346-25.35424,39.65655-30.55517,57.85956-5.20069,18.203,5.20093,35.75586,9.10156,52.00854s1.30029,14.30237-.65015,41.60687,6.50122,31.20514,6.50122,33.80555c0,0,1.38343,3.63324,3.39893,9.19928"/><path class="cls-11" d="M535.38763,346.22467l17.74414,3.87891c-3.96558,4.63873-9.894,11.63867-12.13538,16.29394-2.65,5.50385-20.447,14.90809-28.6145,19.00062-4.76526-10.81177-16.29883-27.94983-20.473-32.98072,5.01025-3.73749,15.39209-11.89062,18.77514-17.66174,4.52027-7.711-.7976-19.14459,2.39307-20.20819,3.19092-1.0636,17.28345-21.80359,20.74011-24.99439a29.94032,29.94032,0,0,1,6.51673-4.13836l-9.12574,54.63537A5.40841,5.40841,0,0,0,535.38763,346.22467Z"/><path class="cls-11" d="M490.47588,350.97547a5.91672,5.91672,0,0,1,1.433,1.442c4.17419,5.03089,15.70776,22.16895,20.473,32.98072,1.53381,3.48022,2.3689,6.30657,2.02478,7.855a11.452,11.452,0,0,1-3.52564,5.63842c-1.54956-1.12756-3.0924-2.17456-4.59765-3.10089-7.68091-4.72674-15.12158-20.68188-19.62085-40.52258C488.81219,352.81647,490.47588,350.97547,490.47588,350.97547Z"/><path class="cls-11" d="M569.44768,316.44318a17.41647,17.41647,0,0,0-.10644-7.3761c-.82275-3.55475-1.69482-9.09375-.15967-12.33472,2.39307-5.05206,6.38159-8.77465,9.3064-4.52026,2.9248,4.25433,5.58386,13.56079,5.84973,16.48566a24.52914,24.52914,0,0,0,1.59534,6.1156s12.49731-18.081,13.029-26.85565c0,0,.03735.00335.10034.01049.98633.11164,9.19019,1.26612,8.94019,8.76416a49.04725,49.04725,0,0,1-1.91187,12.0907,3.49506,3.49506,0,0,0,.3833,2.83209c1.60669,2.61292,4.85571,8.31934,4.45337,11.13514-.53174,3.72259,10.10413,17.54925,9.57227,24.19671-.53174,6.6474,1.59546,12.49719-1.06348,20.20819-.439,1.27277.061,4.93439.80444,8.81568-12.69677-4.71131-32.968-11.553-35.19506-12.30329a51.93337,51.93337,0,0,1-7.31019-8.22552,57.61194,57.61194,0,0,1-6.95849-13.28125C566.345,330.38239,566.89934,329.06324,569.44768,316.44318Z"/><path class="cls-11" d="M531.20818,340.05011l9.12574-54.63537,9.61059-57.53925a5.40843,5.40843,0,0,1,6.21973-4.4444l46.94336,7.78785a5.40182,5.40182,0,0,1,4.44458,6.25384c-1.61182,9.27564-4.97351,29.35724-8.48975,50.49542-.063-.00714-.10034-.01049-.10034-.01049-.53174,8.77465-13.029,26.85565-13.029,26.85565a24.52914,24.52914,0,0,1-1.59534-6.1156c-.26587-2.92487-2.92493-12.23133-5.84973-16.48566-2.92481-4.25439-6.91333-.5318-9.3064,4.52026-1.53515,3.241-.66308,8.78.15967,12.33472a17.41647,17.41647,0,0,1,.10644,7.3761c-2.54834,12.62006-3.10266,13.93921,1.32923,25.75763a57.61194,57.61194,0,0,0,6.95849,13.28125l-24.60363-5.37848-17.74414-3.87891A5.40841,5.40841,0,0,1,531.20818,340.05011Z"/><path class="cls-11" d="M278.84026,245.93231s44.24334,7.63754,64.07187,12.44446,47.46829,12.61815,58.88471,23.43371,26.29684,19.71406,26.29684,19.71406"/><path class="cls-11" d="M397.65176,161.97754s2.35274,15.58686-5.29365,14.1164-11.76367-17.6455-10.5873-27.64463,6.17592-27.64463,18.23369-13.82231c0,0,1.76455,4.11728-1.47046,4.70547"/><path class="cls-11" d="M395.299,161.38935s-9.11685-7.94048-.88228-15.29277"/><path class="cls-11" d="M429.00323,464.16577c-3.893-7.15151-8.893-14.15151-13.893-21.15151-3-3-7-4-8,1a74.88147,74.88147,0,0,1-21.12768-20.68935"/><path class="cls-11" d="M581.04928,464.11226c-5.37517-7.73006-13.38043-14.0687-21.7869-18.26552a56.197,56.197,0,0,1,12.34941,18.52992"/><rect class="cls-11" x="565.71443" y="230.78488" width="21.72319" height="2.17232" rx="1.08616" transform="translate(1109.28016 551.91852) rotate(-170.91025)"/><circle class="cls-11" cx="590.40112" cy="234.28259" r="1.30339"/><line class="cls-11" x1="596.27197" y1="251.35898" x2="565.46321" y2="246.18663"/><line class="cls-11" x1="594.15086" y1="264.6641" x2="563.34211" y2="259.49176"/><line class="cls-11" x1="592.02976" y1="277.96923" x2="561.221" y2="272.79688"/><line class="cls-11" x1="589.71582" y1="291.66001" x2="558.90707" y2="286.48766"/><line class="cls-11" x1="568.2823" y1="302.30134" x2="556.78596" y2="300.37127"/><line class="cls-11" x1="587.59471" y1="305.54361" x2="583.85445" y2="304.91568"/><line class="cls-11" x1="569.43123" y1="316.54111" x2="554.66485" y2="314.06204"/><line class="cls-11" x1="567.51837" y1="330.68488" x2="552.35092" y2="328.13848"/><path class="cls-11" d="M585.933,314.81336s1.60471,1.74508,2.89788,6.91776l1.29317,5.17268"/><polygon class="cls-11" points="556.25 246.854 562.141 248.081 563.117 242.175 557.18 240.872 556.25 246.854"/><polygon class="cls-11" points="553.936 260.544 559.828 261.772 560.803 255.866 554.866 254.563 553.936 260.544"/><polygon class="cls-11" points="551.622 274.235 557.514 275.462 558.489 269.557 552.552 268.253 551.622 274.235"/><polygon class="cls-11" points="549.308 287.926 555.2 289.153 556.176 283.247 550.238 281.944 549.308 287.926"/><polygon class="cls-11" points="546.994 301.617 552.886 302.844 553.862 296.938 547.924 295.635 546.994 301.617"/><polygon class="cls-11" points="544.68 315.308 550.572 316.535 551.548 310.629 545.61 309.326 544.68 315.308"/><polygon class="cls-11" points="542.367 328.998 548.258 330.226 549.234 324.32 543.296 323.016 542.367 328.998"/><polyline class="cls-12" points="557.793 243.053 559.556 246.031 568.371 240.505"/><polyline class="cls-12" points="553.159 270.112 554.922 273.09 563.737 267.563"/><polyline class="cls-12" points="550.937 283.916 552.7 286.894 561.515 281.368"/><polyline class="cls-12" points="546.362 311.074 548.125 314.052 556.94 308.526"/><polyline class="cls-12" points="544.015 325.145 545.778 328.122 554.594 322.596"/></svg>