<?xml version="1.0" encoding="utf-8"?>
<!-- Generator: Adobe Illustrator 23.0.6, SVG Export Plug-In . SVG Version: 6.00 Build 0)  -->
<svg version="1.1" xmlns="http://www.w3.org/2000/svg" xmlns:xlink="http://www.w3.org/1999/xlink" x="0px" y="0px"
	 viewBox="0 0 841.89 467.72" style="enable-background:new 0 0 841.89 467.72;" xml:space="preserve">
<style type="text/css">
	.st0{fill:#DCEFFA;}
	.st1{fill:none;stroke:#54575C;stroke-miterlimit:10;}
	.st2{fill:#FFFFFF;}
	.st3{opacity:0.19;fill:#FFFFFF;}
	.st4{fill:#F4F4F5;}
	.st5{fill:#4890BA;}
	.st6{fill:none;stroke:#54575C;stroke-linejoin:round;stroke-miterlimit:10;}
	.st7{fill:#54575C;stroke:#54575C;stroke-linejoin:round;stroke-miterlimit:10;}
	.st8{fill:none;}
	.st9{fill:#54575C;stroke:#54575C;stroke-miterlimit:10;}
	.st10{fill:#FFFFFF;stroke:#54575C;stroke-miterlimit:10;}
	.st11{fill:#54575C;}
	.st12{fill:#61A575;}
	.st13{fill:#B3825C;}
</style>
<g id="Layer_1">
</g>
<g id="Layer_2">
</g>
<g id="Layer_3">
	<rect x="-0.78" y="-0.93" class="st0" width="843.44" height="469.57"/>
	<g>
		<ellipse class="st1" cx="78.8" cy="174.9" rx="2.31" ry="3.24"/>
		<ellipse class="st1" cx="87.32" cy="170.47" rx="2.31" ry="3.24"/>
		<ellipse class="st1" cx="95.51" cy="166.77" rx="2.31" ry="3.24"/>
		<path class="st2" d="M136.52,418.78l-87.9,2.39c0,0-1.59-42.56,21.08-20.68c0,0,13.13-31.42,29.43-2.39
			c0,0,15.51-12.33,25.85,7.95C124.99,406.05,138.91,405.65,136.52,418.78z"/>
		<path class="st2" d="M674.28,85.86c0.4-1.19-3.98-38.58,24.26-26.65c0,0,0-19.09,24.66,6.36c0,0,14.32-15.11,25.06-3.18
			s5.17,18.69,5.17,18.69L674.28,85.86z"/>
		<path class="st2" d="M793.46,434.64c0.3,1.68-144.47-4.85-144.47-4.85s-7.01-36.12,21.56-32.34c0,0,9.16-1.08,15.09,15.63
			c0,0,18.5-15.89,33.96-9.7c10.78,4.31,14.02,13.48,14.02,13.48S788.07,405,793.46,434.64z"/>
		<g>
			<path class="st3" d="M95.99,371.17l231.81-84.22L305.5,63.88c-0.46-4.62-5.42-7.34-9.57-5.25L72.53,171.53
				c-6.07,3.07-9.54,9.64-8.66,16.38l23.31,177.9C87.73,370,92.02,372.61,95.99,371.17z"/>
			<path class="st3" d="M490.48,438.33l281.12-60.76c4.67-1.01,7.53-5.74,6.25-10.35l-52.25-188.4c-1.25-4.5-5.95-7.09-10.42-5.73
				l-273.64,82.84l37.64,175.11C480.29,436.17,485.35,439.43,490.48,438.33z"/>
			<g>
				<path class="st2" d="M413.64,70.71l-51.31,1.59c0,0-2.78-19.09,8.35-20.29s13.13,7.56,13.13,7.56s-4.38-33.01,35-30.23
					c0,0,22.27-1.99,29.83,12.73c0,0,33.41-2.78,29.83,18.69l-4.77,7.56L413.64,70.71z"/>
				<g>
					<path class="st2" d="M425.41,161.85c-2.07,0.94,11.11,4.14,11.11,4.14l33.17-9.03c-2.89-1.45-5.69-2.92-8.38-4.38
						C451.2,155.09,427.06,161.1,425.41,161.85z"/>
					<path class="st2" d="M525.8,128.34c-19.8-1.47-43.57-11.04-49.47-13.53c-2.3,1.1-4.55,2.15-6.52,3.06
						c8.58,3.27,36.81,13.21,57.5,10.85l-0.23-0.33C526.63,128.38,526.2,128.37,525.8,128.34z"/>
					<path class="st2" d="M471.37,105.93c-1.18,0.34-3.4,1.14-6.14,2.19c-9.52,3.65-25.22,10.33-24.56,10.99
						c4.52,4.52,22.6,1.69,22.6,1.69s2.75-1.2,6.54-2.94c1.97-0.9,4.23-1.95,6.52-3.06c1.87-0.9,3.77-1.83,5.57-2.75
						c5.42-2.76,9.92-5.39,10-6.51C492.09,102.73,476.64,104.43,471.37,105.93z"/>
					<path class="st2" d="M420.89,117.8c-0.91,0.18-1.74,0.39-2.48,0.62c-4.96,1.49-6.14,3.67-3.36,4.66
						c0.89,0.31,2.63,0.8,4.79,1.16c5.64,0.95,14.13,1.06,17.81-4.93C437.65,119.3,437.65,114.41,420.89,117.8z"/>
					<path class="st2" d="M421.13,126.06c-9.4,2.01-41.31,8.98-41.31,10.75c0,2.07,4.33,5.08,9.42,3.2
						c4.08-1.51,28.34-6.64,38.11-8.72c-1.69-1.23-2.87-2.12-3.46-2.58C422.76,127.83,421.86,126.94,421.13,126.06z"/>
					<path class="st2" d="M525.26,176.99c-4.12-0.31-8.13-0.65-11.91-0.99c0.99,1.17,2.28,2.34,3.93,3.31
						c5.47,3.2,46.85,3.2,50.59,3.07c2.13-0.08,4.44-2.33,6.05-4.32c-0.56,0.03-1.16,0.06-1.79,0.08
						C556.71,181.01,540.75,180.12,525.26,176.99z"/>
					<path class="st2" d="M581.88,175.66c9.8,2.24,15.87-1.91,16.93-6.58c1.31-5.75-7.06-7.32-29.56-9.67
						c-15.89-1.66-25.38,1.89-29.59,4.13c18.39,2.88,38.47,6.93,41.68,7.64C584.58,171.87,583.4,174.02,581.88,175.66z"/>
					<g>
						<path class="st2" d="M514.78,160.61c-2.07-0.07-3.77-0.03-4.98,0.15c-5.75,0.87-12.9,3.58-17.68,6.27
							c-4.76,2.68-7.14,5.34-3.41,6.14c0.17,0.04,0.38,0.08,0.62,0.12c1.08-0.1,2.2-0.33,3.33-0.76
							C498.45,170.36,510.81,166.52,514.78,160.61z"/>
						<path class="st2" d="M581.35,171.16c-3.21-0.7-23.29-4.75-41.68-7.64c-9.67-1.52-18.86-2.71-24.89-2.92
							c-3.97,5.91-16.33,9.75-22.12,11.92c-1.13,0.42-2.25,0.65-3.33,0.76c3.16,0.56,12.47,1.66,24.02,2.71
							c3.78,0.34,7.79,0.68,11.91,0.99c15.49,3.13,31.45,4.02,46.87,1.15c0.63-0.03,1.23-0.06,1.79-0.08
							c3.57-0.18,5.69-0.35,5.69-0.35s0,0,0,0c0.02-0.01,1.22-0.91,2.27-2.04C583.4,174.02,584.58,171.87,581.35,171.16z"/>
					</g>
					<path class="st2" d="M631.44,138.85c0.5,0.34,1.01,6.57,1.16,8.6c0.03,0.39,0.28,0.72,0.65,0.84l0,0
						c0.68,0.24,1.38-0.32,1.3-1.04l-0.7-6.09L631.44,138.85z"/>
					<path class="st2" d="M635.35,142.73l0.51,5.56c0.04,0.38,0.29,0.71,0.66,0.83l0,0c0.86,0.29,1.7-0.49,1.48-1.37l-0.21-2.74
						L635.35,142.73z"/>
					<path class="st2" d="M639.04,146.52l0.31,2.62c0.04,0.31,0.24,0.57,0.53,0.68l4.16,1.54
						C644.04,151.36,639.46,146.73,639.04,146.52z"/>
					<g>
						<path class="st2" d="M601.26,138.95c0.2,0.06,0.4,0.11,0.61,0.16C601.66,139.06,601.46,139.01,601.26,138.95z"/>
						<path class="st2" d="M599.59,138.46c0.25,0.08,0.5,0.16,0.74,0.23C600.09,138.61,599.84,138.53,599.59,138.46z"/>
						<polygon class="st2" points="608.18,140.41 608.18,140.41 608.18,140.41 						"/>
						<path class="st2" d="M587.5,132.99c-0.01-0.01-0.03-0.02-0.04-0.03c0,0,0,0,0,0C587.47,132.98,587.48,132.98,587.5,132.99z"/>
						<path class="st2" d="M597.27,137.68c0.43,0.16,0.86,0.31,1.29,0.45C598.14,137.98,597.71,137.83,597.27,137.68z"/>
						<path class="st2" d="M629.99,139.26c0.05-0.01,0.1-0.02,0.14-0.04C630.09,139.23,630.04,139.24,629.99,139.26z"/>
						<path class="st2" d="M610.18,140.66c0.01,0,0.02,0,0.04,0C610.21,140.66,610.19,140.66,610.18,140.66z"/>
						<path class="st2" d="M595.59,137.03c0.33,0.13,0.65,0.26,0.98,0.38C596.24,137.28,595.91,137.16,595.59,137.03z"/>
						<path class="st2" d="M628.41,139.63c0.05-0.01,0.09-0.02,0.14-0.03C628.5,139.61,628.45,139.62,628.41,139.63z"/>
						<path class="st2" d="M629.24,139.44c0.06-0.01,0.12-0.03,0.18-0.04C629.36,139.41,629.3,139.42,629.24,139.44z"/>
						<path class="st2" d="M606.77,140.19c0.07,0.01,0.15,0.03,0.22,0.04C606.92,140.21,606.84,140.2,606.77,140.19z"/>
						<path class="st2" d="M625.12,140.25c0.01,0,0.02,0,0.02,0C625.14,140.25,625.13,140.25,625.12,140.25z"/>
						<path class="st2" d="M602.85,139.37c0.11,0.03,0.22,0.05,0.32,0.08C603.07,139.42,602.96,139.4,602.85,139.37z"/>
						<path class="st2" d="M589.83,134.32c0.44,0.24,0.88,0.47,1.32,0.69C590.71,134.79,590.27,134.56,589.83,134.32z"/>
						<path class="st2" d="M588.03,133.31c0.41,0.24,0.81,0.47,1.22,0.7C588.85,133.78,588.44,133.55,588.03,133.31z"/>
						<path class="st2" d="M593.79,136.27c0.36,0.16,0.73,0.32,1.09,0.47C594.52,136.59,594.16,136.43,593.79,136.27z"/>
						<path class="st2" d="M591.56,135.22c0.55,0.27,1.1,0.53,1.65,0.78C592.66,135.76,592.11,135.5,591.56,135.22z"/>
						<path class="st2" d="M611.51,163.2c2.23-8.79-0.69-17.38-3.33-22.79c0,0,0,0,0,0c-0.39-0.06-0.79-0.12-1.19-0.19
							c-0.07-0.01-0.15-0.02-0.22-0.04c-1.17-0.2-2.37-0.44-3.59-0.74c-0.11-0.03-0.22-0.05-0.32-0.08
							c-0.33-0.08-0.66-0.17-0.99-0.26c-0.2-0.05-0.4-0.11-0.61-0.16c-0.31-0.09-0.61-0.17-0.92-0.27
							c-0.25-0.07-0.49-0.15-0.74-0.23c-0.34-0.11-0.68-0.21-1.02-0.33c-0.43-0.14-0.86-0.29-1.29-0.45
							c-0.24-0.09-0.47-0.18-0.71-0.27c-0.33-0.12-0.65-0.25-0.98-0.38c-0.23-0.09-0.47-0.19-0.7-0.29
							c-0.36-0.15-0.72-0.31-1.09-0.47c-0.2-0.09-0.39-0.17-0.59-0.26c-0.55-0.25-1.1-0.51-1.65-0.78
							c-0.14-0.07-0.27-0.14-0.41-0.21c-0.44-0.22-0.88-0.45-1.32-0.69c-0.19-0.1-0.39-0.21-0.58-0.32
							c-0.41-0.23-0.81-0.46-1.22-0.7c-0.18-0.1-0.36-0.21-0.53-0.31c-0.02-0.01-0.03-0.02-0.05-0.03c-1.04-0.12-2.1-0.26-3.12-0.44
							c-6.54,2.75-13.11,4.97-17.47,5.04c-11.68,0.19-38.24-3.77-38.61-7.53c-0.04-0.36,0.32-0.94,0.99-1.71
							c-0.77,0.05-1.49,0.07-2.16,0.06l0.23,0.33c-20.69,2.37-48.93-7.58-57.5-10.85c-3.79,1.74-6.54,2.94-6.54,2.94
							s-18.08,2.82-22.6-1.69c-0.66-0.66,15.04-7.34,24.56-10.99c-3.69-3.32-8-8.35-12.13-15.93
							c-10.36-19.02-15.45-40.29-23.73-42.93c-8.29-2.64-17.14-0.38-17.14-0.38l6.22,69.29c0,0-0.02,0.08-0.03,0.24
							c0.74-0.22,1.57-0.43,2.48-0.62c16.76-3.39,16.76,1.51,16.76,1.51c-3.68,5.99-12.17,5.88-17.81,4.93
							c0.34,0.59,0.77,1.21,1.29,1.83c0.73,0.88,1.62,1.77,2.77,2.65c0.59,0.45,1.77,1.35,3.46,2.58c0.42,0.31,0.88,0.64,1.37,0.99
							c10.28,0.02,37.5,0.44,43.56,4.38c6.41,4.17,34.31,19.53,42.35,23.94c6.03,0.2,15.29,1.4,25.03,2.93
							c4.2-2.23,13.69-5.79,29.59-4.13c22.49,2.35,30.86,3.92,29.56,9.67c-1.06,4.67-7.13,8.82-16.93,6.58
							c-1.05,1.14-2.25,2.03-2.27,2.04c3.7,0.79,11.07,2.1,19.88,2.37C604.28,176.29,609.64,170.62,611.51,163.2z M542.18,159.43
							c-0.1,0.36-0.46,0.57-0.82,0.51l-8.83-1.65c-0.44-0.08-0.69-0.54-0.54-0.96c2.66-7.49,0.75-15.02-0.11-17.72
							c-0.16-0.49,0.24-0.98,0.76-0.93l8.8,0.89c0.24,0.02,0.46,0.16,0.57,0.37C545.52,146.51,542.93,156.81,542.18,159.43z"/>
						<path class="st2" d="M630.14,139.22c-0.05,0.01-0.1,0.02-0.14,0.04c-0.18,0.04-0.37,0.09-0.57,0.14
							c-0.06,0.01-0.12,0.03-0.18,0.04c-0.22,0.05-0.45,0.11-0.7,0.16c-0.05,0.01-0.09,0.02-0.14,0.03
							c-0.93,0.21-2.02,0.42-3.26,0.62c-0.01,0-0.02,0-0.02,0c-3.79,0.61-8.95,1.04-14.9,0.41c-0.01,0-0.02,0-0.04,0
							c-0.66-0.07-1.32-0.15-2-0.25c0,0,0,0,0,0c2.64,5.4,5.56,14,3.33,22.79c-1.88,7.42-7.23,13.09-12.01,16.87
							c1.46,0.04,2.95,0.06,4.47,0.05c14.88-0.19,65.55,0.75,43.13-25.98l-15.07-14.87l-0.6-0.41c-0.23,0.07-0.46,0.15-0.72,0.22
							C630.54,139.12,630.35,139.17,630.14,139.22z"/>
						<path class="st2" d="M609.22,119.78c1.96-0.53,3.18-0.85,3.18-0.85C611.39,119.16,610.32,119.45,609.22,119.78z"/>
						<path class="st2" d="M600.33,138.69c0.31,0.09,0.62,0.18,0.92,0.27C600.95,138.87,600.64,138.78,600.33,138.69z"/>
						<path class="st2" d="M591.15,135.01c0.14,0.07,0.27,0.14,0.41,0.21C591.42,135.16,591.28,135.08,591.15,135.01z"/>
						<path class="st2" d="M594.88,136.74c0.24,0.1,0.47,0.19,0.7,0.29C595.35,136.93,595.12,136.84,594.88,136.74z"/>
						<path class="st2" d="M598.57,138.13c0.34,0.12,0.68,0.22,1.02,0.33C599.25,138.35,598.91,138.24,598.57,138.13z"/>
						<path class="st2" d="M596.57,137.41c0.24,0.09,0.47,0.18,0.71,0.27C597.04,137.59,596.8,137.5,596.57,137.41z"/>
						<path class="st2" d="M593.2,136.01c0.2,0.09,0.39,0.17,0.59,0.26C593.6,136.18,593.4,136.1,593.2,136.01z"/>
						<path class="st2" d="M587.5,132.99c0.18,0.11,0.36,0.21,0.53,0.31C587.85,133.2,587.67,133.1,587.5,132.99z"/>
						<path class="st2" d="M606.99,140.22c0.4,0.07,0.8,0.13,1.19,0.19C607.79,140.35,607.39,140.29,606.99,140.22z"/>
						<path class="st2" d="M589.25,134.01c0.19,0.11,0.39,0.21,0.58,0.32C589.64,134.22,589.44,134.11,589.25,134.01z"/>
						<path class="st2" d="M601.86,139.12c0.33,0.09,0.66,0.17,0.99,0.26C602.52,139.29,602.19,139.21,601.86,139.12z"/>
						<path class="st2" d="M603.17,139.45c1.22,0.29,2.42,0.54,3.59,0.74C605.59,139.99,604.39,139.74,603.17,139.45z"/>
						<path class="st2" d="M629.42,139.4c0.2-0.05,0.39-0.09,0.57-0.14C629.82,139.3,629.62,139.35,629.42,139.4z"/>
						<path class="st2" d="M625.12,140.25c-3.79,0.61-8.95,1.04-14.9,0.41C616.17,141.29,621.33,140.86,625.12,140.25z"/>
						<path class="st2" d="M628.54,139.6c0.24-0.05,0.48-0.11,0.7-0.16C629.02,139.49,628.79,139.54,628.54,139.6z"/>
						<path class="st2" d="M625.14,140.25c1.24-0.2,2.34-0.42,3.26-0.62C627.48,139.83,626.39,140.05,625.14,140.25z"/>
						<path class="st2" d="M608.18,140.41c0.68,0.1,1.34,0.18,2,0.25C609.53,140.59,608.86,140.51,608.18,140.41z"/>
						<path class="st2" d="M630.14,139.22c0.21-0.05,0.41-0.1,0.58-0.15C630.54,139.12,630.35,139.17,630.14,139.22z"/>
						<path class="st2" d="M669.9,81.27c-3.97,0-8.09,1.55-11.75,2.94c-11.29,4.3-22.05,9.87-33.31,14.25
							c-5.04,1.96-10.09,3.92-15.16,5.83c-28.65,10.8-64.58,23.05-80.45,24.03c-0.67,0.77-1.02,1.35-0.99,1.71
							c0.38,3.77,26.93,7.72,38.61,7.53c4.35-0.07,10.93-2.29,17.47-5.04c-2.4-0.42-4.54-1.01-5.41-1.85
							c-2.01-1.95,21.57-8.54,30.3-10.9c1.1-0.33,2.16-0.62,3.18-0.85c3.8-1.74,9.07-4.17,15.02-6.94c0.58-0.27,1.16-0.54,1.75-0.82
							c3.51-1.64,7.22-3.38,10.97-5.16c1.11-0.53,2.22-1.05,3.33-1.58c17.65-8.42,35.23-17.19,36.6-19.4
							C680.07,85.04,674.79,81.27,669.9,81.27z"/>
						<path class="st2" d="M632.98,133.23c2.07-1.51,2.83-3.39,3.2-6.59c0.18-1.49-2.26-3.02-5.57-4.38
							c-3.81-1.57-8.79-2.91-12.32-3.72c-1.49-0.34-3.55-0.14-5.89,0.39c0,0-1.22,0.32-3.18,0.85c-8.72,2.36-32.31,8.95-30.3,10.9
							c0.87,0.84,3,1.43,5.41,1.85c1.02,0.18,2.08,0.32,3.12,0.44c0,0,0,0,0,0c0.01,0.01,0.03,0.02,0.04,0.03
							c0.18,0.11,0.36,0.21,0.53,0.31c0.41,0.24,0.81,0.47,1.22,0.7c0.19,0.11,0.39,0.21,0.58,0.32c0.44,0.24,0.88,0.47,1.32,0.69
							c0.14,0.07,0.27,0.14,0.41,0.21c0.55,0.27,1.1,0.53,1.65,0.78c0.2,0.09,0.39,0.17,0.59,0.26c0.36,0.16,0.73,0.32,1.09,0.47
							c0.24,0.1,0.47,0.19,0.7,0.29c0.33,0.13,0.65,0.26,0.98,0.38c0.24,0.09,0.47,0.18,0.71,0.27c0.43,0.16,0.86,0.31,1.29,0.45
							c0.34,0.12,0.68,0.22,1.02,0.33c0.25,0.08,0.5,0.16,0.74,0.23c0.31,0.09,0.62,0.18,0.92,0.27c0.2,0.06,0.4,0.11,0.61,0.16
							c0.33,0.09,0.66,0.18,0.99,0.26c0.11,0.03,0.22,0.05,0.32,0.08c1.22,0.29,2.42,0.54,3.59,0.74c0.07,0.01,0.15,0.03,0.22,0.04
							c0.4,0.07,0.8,0.13,1.19,0.19c0,0,0,0,0,0c0.67,0.1,1.34,0.18,2,0.25c0.01,0,0.02,0,0.04,0c5.95,0.63,11.11,0.2,14.9-0.41
							c0.01,0,0.02,0,0.02,0c1.24-0.2,2.34-0.42,3.26-0.62c0.05-0.01,0.09-0.02,0.14-0.03c0.24-0.05,0.48-0.11,0.7-0.16
							c0.06-0.01,0.12-0.03,0.18-0.04c0.2-0.05,0.39-0.1,0.57-0.14c0.05-0.01,0.1-0.02,0.14-0.04c0.21-0.05,0.41-0.1,0.58-0.15
							c0.26-0.07,0.5-0.14,0.72-0.22c4.12-1.37,2.1-3.74,2.1-3.74S630.91,134.74,632.98,133.23z"/>
					</g>
				</g>
				<g>
					<path class="st4" d="M425.15,163.28c-2.07,0.94,11.11,4.14,11.11,4.14l33.17-9.03c-2.89-1.45-5.69-2.92-8.38-4.38
						C450.93,156.52,426.8,162.53,425.15,163.28z"/>
					<path class="st4" d="M525.54,129.76c-19.8-1.47-43.57-11.04-49.47-13.53c-2.3,1.1-4.55,2.15-6.52,3.06
						c8.58,3.27,36.81,13.21,57.5,10.85l-0.23-0.33C526.37,129.81,525.94,129.79,525.54,129.76z"/>
					<path class="st4" d="M471.11,107.36c-1.18,0.34-3.4,1.14-6.14,2.19c-9.52,3.65-25.22,10.33-24.56,10.99
						c4.52,4.52,22.6,1.69,22.6,1.69s2.75-1.2,6.54-2.94c1.97-0.9,4.23-1.95,6.52-3.06c1.87-0.9,3.77-1.83,5.57-2.75
						c5.42-2.76,9.92-5.39,10-6.51C491.82,104.16,476.38,105.85,471.11,107.36z"/>
					<path class="st4" d="M420.63,119.22c-0.91,0.18-1.74,0.39-2.48,0.62c-4.96,1.49-6.14,3.67-3.36,4.66
						c0.89,0.31,2.63,0.8,4.79,1.16c5.64,0.95,14.13,1.06,17.81-4.93C437.39,120.73,437.39,115.83,420.63,119.22z"/>
					<path class="st4" d="M420.87,127.49c-9.4,2.01-41.31,8.98-41.31,10.75c0,2.07,4.33,5.08,9.42,3.2
						c4.08-1.51,28.34-6.64,38.11-8.72c-1.69-1.23-2.87-2.12-3.46-2.58C422.49,129.26,421.6,128.36,420.87,127.49z"/>
					<path class="st4" d="M525,178.41c-4.12-0.31-8.13-0.65-11.91-0.99c0.99,1.17,2.28,2.34,3.93,3.31
						c5.47,3.2,46.85,3.2,50.59,3.07c2.13-0.08,4.44-2.33,6.05-4.32c-0.56,0.03-1.16,0.06-1.79,0.08
						C556.45,182.43,540.49,181.54,525,178.41z"/>
					<path class="st4" d="M581.62,177.08c9.8,2.24,15.87-1.91,16.93-6.58c1.31-5.75-7.06-7.32-29.56-9.67
						c-15.89-1.66-25.38,1.89-29.59,4.13c18.39,2.88,38.47,6.93,41.68,7.64C584.31,173.3,583.13,175.44,581.62,177.08z"/>
					<g>
						<path class="st4" d="M514.52,162.03c-2.07-0.07-3.77-0.03-4.98,0.15c-5.75,0.87-12.9,3.58-17.68,6.27
							c-4.76,2.68-7.14,5.34-3.41,6.14c0.17,0.04,0.38,0.08,0.62,0.12c1.08-0.1,2.2-0.33,3.33-0.76
							C498.19,171.78,510.55,167.94,514.52,162.03z"/>
						<path class="st4" d="M581.09,172.59c-3.21-0.7-23.29-4.75-41.68-7.64c-9.67-1.52-18.86-2.71-24.89-2.92
							c-3.97,5.91-16.33,9.75-22.12,11.92c-1.13,0.42-2.25,0.65-3.33,0.76c3.16,0.56,12.47,1.66,24.02,2.71
							c3.78,0.34,7.79,0.68,11.91,0.99c15.49,3.13,31.45,4.02,46.87,1.15c0.63-0.03,1.23-0.06,1.79-0.08
							c3.57-0.18,5.69-0.35,5.69-0.35s0,0,0,0c0.02-0.01,1.22-0.91,2.27-2.04C583.13,175.44,584.31,173.3,581.09,172.59z"/>
					</g>
					<g>
						<path class="st4" d="M600.99,140.38c0.2,0.06,0.4,0.11,0.61,0.16C601.4,140.49,601.2,140.43,600.99,140.38z"/>
						<path class="st4" d="M599.33,139.88c0.25,0.08,0.5,0.16,0.74,0.23C599.82,140.04,599.58,139.96,599.33,139.88z"/>
						<polygon class="st4" points="607.92,141.83 607.92,141.83 607.92,141.83 						"/>
						<path class="st4" d="M587.23,134.42c-0.01-0.01-0.03-0.02-0.04-0.03c0,0,0,0,0,0C587.2,134.4,587.22,134.41,587.23,134.42z"/>
						<path class="st4" d="M597.01,139.1c0.43,0.16,0.86,0.31,1.29,0.45C597.87,139.41,597.44,139.26,597.01,139.1z"/>
						<path class="st4" d="M629.73,140.68c0.05-0.01,0.1-0.02,0.14-0.04C629.83,140.66,629.78,140.67,629.73,140.68z"/>
						<path class="st4" d="M609.92,142.08c0.01,0,0.02,0,0.04,0C609.94,142.09,609.93,142.08,609.92,142.08z"/>
						<path class="st4" d="M595.32,138.45c0.33,0.13,0.65,0.26,0.98,0.38C595.98,138.71,595.65,138.58,595.32,138.45z"/>
						<path class="st4" d="M628.14,141.05c0.05-0.01,0.09-0.02,0.14-0.03C628.23,141.03,628.19,141.04,628.14,141.05z"/>
						<path class="st4" d="M628.98,140.86c0.06-0.01,0.12-0.03,0.18-0.04C629.1,140.83,629.04,140.85,628.98,140.86z"/>
						<path class="st4" d="M606.5,141.61c0.07,0.01,0.15,0.03,0.22,0.04C606.65,141.64,606.58,141.62,606.5,141.61z"/>
						<path class="st4" d="M624.86,141.68c0.01,0,0.02,0,0.02,0C624.87,141.68,624.86,141.68,624.86,141.68z"/>
						<path class="st4" d="M602.59,140.8c0.11,0.03,0.22,0.05,0.32,0.08C602.8,140.85,602.69,140.82,602.59,140.8z"/>
						<path class="st4" d="M589.57,135.75c0.44,0.24,0.88,0.47,1.32,0.69C590.45,136.22,590.01,135.99,589.57,135.75z"/>
						<path class="st4" d="M587.77,134.73c0.41,0.24,0.81,0.47,1.22,0.7C588.58,135.21,588.17,134.97,587.77,134.73z"/>
						<path class="st4" d="M593.53,137.69c0.36,0.16,0.73,0.32,1.09,0.47C594.26,138.01,593.89,137.85,593.53,137.69z"/>
						<path class="st4" d="M591.29,136.65c0.55,0.27,1.1,0.53,1.65,0.78C592.39,137.18,591.84,136.92,591.29,136.65z"/>
						<path class="st4" d="M611.25,164.62c2.23-8.79-0.69-17.38-3.33-22.79c0,0,0,0,0,0c-0.39-0.06-0.79-0.12-1.19-0.19
							c-0.07-0.01-0.15-0.02-0.22-0.04c-1.17-0.2-2.37-0.44-3.59-0.74c-0.11-0.03-0.22-0.05-0.32-0.08
							c-0.33-0.08-0.66-0.17-0.99-0.26c-0.2-0.05-0.4-0.11-0.61-0.16c-0.31-0.09-0.61-0.17-0.92-0.27
							c-0.25-0.07-0.49-0.15-0.74-0.23c-0.34-0.11-0.68-0.21-1.02-0.33c-0.43-0.14-0.86-0.29-1.29-0.45
							c-0.24-0.09-0.47-0.18-0.71-0.27c-0.33-0.12-0.65-0.25-0.98-0.38c-0.23-0.09-0.47-0.19-0.7-0.29
							c-0.36-0.15-0.72-0.31-1.09-0.47c-0.2-0.09-0.39-0.17-0.59-0.26c-0.55-0.25-1.1-0.51-1.65-0.78
							c-0.14-0.07-0.27-0.14-0.41-0.21c-0.44-0.22-0.88-0.45-1.32-0.69c-0.19-0.1-0.39-0.21-0.58-0.32
							c-0.41-0.23-0.81-0.46-1.22-0.7c-0.18-0.1-0.36-0.21-0.53-0.31c-0.02-0.01-0.03-0.02-0.05-0.03c-1.04-0.12-2.1-0.26-3.12-0.44
							c-6.54,2.75-13.11,4.97-17.47,5.04c-11.68,0.19-38.24-3.77-38.61-7.53c-0.04-0.36,0.32-0.94,0.99-1.71
							c-0.77,0.05-1.49,0.07-2.16,0.06l0.23,0.33c-20.69,2.37-48.93-7.57-57.5-10.85c-3.79,1.74-6.54,2.94-6.54,2.94
							s-18.08,2.82-22.6-1.69c-0.66-0.66,15.04-7.34,24.56-10.99c-3.69-3.32-8-8.35-12.13-15.93
							c-10.36-19.02-15.45-40.29-23.73-42.93c-8.29-2.64-17.14-0.38-17.14-0.38l6.22,69.29c0,0-0.02,0.08-0.03,0.24
							c0.74-0.22,1.57-0.43,2.48-0.62c16.76-3.39,16.76,1.51,16.76,1.51c-3.68,5.99-12.17,5.88-17.81,4.93
							c0.34,0.59,0.77,1.21,1.29,1.83c0.73,0.88,1.62,1.77,2.77,2.65c0.59,0.45,1.77,1.35,3.46,2.58c0.42,0.31,0.88,0.64,1.37,0.99
							c10.28,0.02,37.5,0.44,43.56,4.38c6.41,4.17,34.31,19.53,42.35,23.94c6.03,0.2,15.29,1.4,25.03,2.93
							c4.2-2.23,13.69-5.79,29.59-4.13c22.49,2.35,30.86,3.92,29.56,9.67c-1.06,4.67-7.13,8.82-16.93,6.58
							c-1.05,1.14-2.25,2.03-2.27,2.04c3.7,0.79,11.07,2.1,19.88,2.37C604.02,177.72,609.37,172.04,611.25,164.62z M541.91,160.86
							c-0.1,0.36-0.46,0.57-0.82,0.51l-8.83-1.65c-0.44-0.08-0.69-0.54-0.54-0.96c2.66-7.49,0.75-15.02-0.11-17.72
							c-0.16-0.49,0.24-0.98,0.76-0.93l8.8,0.89c0.24,0.02,0.46,0.16,0.57,0.37C545.26,147.93,542.66,158.23,541.91,160.86z"/>
						<path class="st4" d="M629.87,140.64c-0.05,0.01-0.1,0.02-0.14,0.04c-0.18,0.04-0.37,0.09-0.57,0.14
							c-0.06,0.01-0.12,0.03-0.18,0.04c-0.22,0.05-0.45,0.11-0.7,0.16c-0.05,0.01-0.09,0.02-0.14,0.03
							c-0.93,0.21-2.02,0.42-3.26,0.62c-0.01,0-0.02,0-0.02,0c-3.79,0.61-8.95,1.04-14.9,0.41c-0.01,0-0.02,0-0.04,0
							c-0.66-0.07-1.32-0.15-2-0.25c0,0,0,0,0,0c2.64,5.4,5.56,14,3.33,22.79c-1.88,7.42-7.23,13.09-12.01,16.87
							c1.46,0.04,2.95,0.06,4.47,0.05c14.88-0.19,65.55,0.75,43.13-25.98l-15.07-14.87l-0.6-0.41c-0.23,0.07-0.46,0.15-0.72,0.22
							C630.28,140.54,630.08,140.59,629.87,140.64z"/>
						<path class="st4" d="M608.96,121.21c1.96-0.53,3.18-0.85,3.18-0.85C611.12,120.59,610.05,120.88,608.96,121.21z"/>
						<path class="st4" d="M600.07,140.11c0.31,0.09,0.62,0.18,0.92,0.27C600.69,140.29,600.38,140.2,600.07,140.11z"/>
						<path class="st4" d="M590.89,136.44c0.14,0.07,0.27,0.14,0.41,0.21C591.16,136.58,591.02,136.51,590.89,136.44z"/>
						<path class="st4" d="M594.62,138.16c0.24,0.1,0.47,0.19,0.7,0.29C595.09,138.36,594.85,138.26,594.62,138.16z"/>
						<path class="st4" d="M598.3,139.55c0.34,0.12,0.68,0.22,1.02,0.33C598.99,139.77,598.65,139.67,598.3,139.55z"/>
						<path class="st4" d="M596.3,138.83c0.24,0.09,0.47,0.18,0.71,0.27C596.77,139.01,596.54,138.92,596.3,138.83z"/>
						<path class="st4" d="M592.94,137.43c0.2,0.09,0.39,0.17,0.59,0.26C593.33,137.61,593.14,137.52,592.94,137.43z"/>
						<path class="st4" d="M587.23,134.42c0.18,0.11,0.36,0.21,0.53,0.31C587.59,134.63,587.41,134.53,587.23,134.42z"/>
						<path class="st4" d="M606.73,141.65c0.4,0.07,0.8,0.13,1.19,0.19C607.52,141.78,607.13,141.72,606.73,141.65z"/>
						<path class="st4" d="M588.99,135.43c0.19,0.11,0.39,0.21,0.58,0.32C589.37,135.64,589.18,135.54,588.99,135.43z"/>
						<path class="st4" d="M601.6,140.54c0.33,0.09,0.66,0.17,0.99,0.26C602.26,140.72,601.93,140.63,601.6,140.54z"/>
						<path class="st4" d="M602.91,140.87c1.22,0.29,2.42,0.54,3.59,0.74C605.33,141.41,604.13,141.17,602.91,140.87z"/>
						<path class="st4" d="M629.16,140.82c0.2-0.05,0.39-0.09,0.57-0.14C629.55,140.72,629.36,140.77,629.16,140.82z"/>
						<path class="st4" d="M624.86,141.68c-3.79,0.61-8.95,1.04-14.9,0.41C615.91,142.72,621.07,142.29,624.86,141.68z"/>
						<path class="st4" d="M628.28,141.02c0.24-0.05,0.48-0.11,0.7-0.16C628.76,140.92,628.52,140.97,628.28,141.02z"/>
						<path class="st4" d="M624.88,141.68c1.24-0.2,2.34-0.42,3.26-0.62C627.22,141.26,626.12,141.48,624.88,141.68z"/>
						<path class="st4" d="M607.92,141.83c0.68,0.1,1.34,0.18,2,0.25C609.26,142.01,608.6,141.93,607.92,141.83z"/>
						<path class="st4" d="M629.87,140.64c0.21-0.05,0.41-0.1,0.58-0.15C630.28,140.54,630.08,140.59,629.87,140.64z"/>
						<path class="st4" d="M669.63,82.69c-3.97,0-8.09,1.55-11.75,2.94c-11.29,4.3-22.05,9.87-33.31,14.25
							c-5.04,1.96-10.09,3.92-15.16,5.83c-28.65,10.8-64.58,23.05-80.45,24.03c-0.67,0.77-1.02,1.35-0.99,1.71
							c0.38,3.77,26.93,7.72,38.61,7.53c4.35-0.07,10.93-2.29,17.47-5.04c-2.4-0.42-4.54-1.01-5.41-1.85
							c-2.01-1.95,21.57-8.54,30.3-10.9c1.1-0.33,2.16-0.62,3.18-0.85c3.8-1.74,9.07-4.17,15.02-6.94c0.58-0.27,1.16-0.54,1.75-0.82
							c3.51-1.64,7.22-3.38,10.97-5.16c1.11-0.53,2.22-1.05,3.33-1.58c17.65-8.42,35.23-17.19,36.6-19.4
							C679.8,86.46,674.53,82.69,669.63,82.69z"/>
						<path class="st4" d="M632.72,134.66c2.07-1.51,2.83-3.39,3.2-6.59c0.18-1.49-2.26-3.02-5.57-4.38
							c-3.81-1.57-8.79-2.91-12.32-3.72c-1.49-0.34-3.55-0.14-5.89,0.39c0,0-1.22,0.32-3.18,0.85c-8.72,2.36-32.31,8.95-30.3,10.9
							c0.87,0.84,3,1.43,5.41,1.85c1.02,0.18,2.08,0.32,3.12,0.44c0,0,0,0,0,0c0.01,0.01,0.03,0.02,0.04,0.03
							c0.18,0.11,0.36,0.21,0.53,0.31c0.41,0.24,0.81,0.47,1.22,0.7c0.19,0.11,0.39,0.21,0.58,0.32c0.44,0.24,0.88,0.47,1.32,0.69
							c0.14,0.07,0.27,0.14,0.41,0.21c0.55,0.27,1.1,0.53,1.65,0.78c0.2,0.09,0.39,0.17,0.59,0.26c0.36,0.16,0.73,0.32,1.09,0.47
							c0.24,0.1,0.47,0.19,0.7,0.29c0.33,0.13,0.65,0.26,0.98,0.38c0.24,0.09,0.47,0.18,0.71,0.27c0.43,0.16,0.86,0.31,1.29,0.45
							c0.34,0.11,0.68,0.22,1.02,0.33c0.25,0.08,0.5,0.16,0.74,0.23c0.31,0.09,0.62,0.18,0.92,0.27c0.2,0.06,0.4,0.11,0.61,0.16
							c0.33,0.09,0.66,0.18,0.99,0.26c0.11,0.03,0.22,0.05,0.32,0.08c1.22,0.29,2.42,0.54,3.59,0.74c0.07,0.01,0.15,0.03,0.22,0.04
							c0.4,0.07,0.8,0.13,1.19,0.19c0,0,0,0,0,0c0.67,0.1,1.34,0.18,2,0.25c0.01,0,0.02,0,0.04,0c5.95,0.63,11.11,0.2,14.9-0.41
							c0.01,0,0.02,0,0.02,0c1.24-0.2,2.34-0.42,3.26-0.62c0.05-0.01,0.09-0.02,0.14-0.03c0.24-0.05,0.48-0.11,0.7-0.16
							c0.06-0.01,0.12-0.03,0.18-0.04c0.2-0.05,0.39-0.1,0.57-0.14c0.05-0.01,0.1-0.02,0.14-0.04c0.21-0.05,0.41-0.1,0.58-0.15
							c0.26-0.07,0.5-0.14,0.72-0.22c4.12-1.37,2.1-3.74,2.1-3.74S630.64,136.17,632.72,134.66z"/>
					</g>
					<path class="st5" d="M631.18,140.28c0.5,0.34,1.01,6.57,1.16,8.6c0.03,0.39,0.28,0.72,0.65,0.84l0,0
						c0.68,0.24,1.38-0.32,1.3-1.04l-0.7-6.09L631.18,140.28z"/>
					<path class="st5" d="M635.09,144.15l0.51,5.56c0.04,0.38,0.29,0.71,0.66,0.83h0c0.86,0.29,1.7-0.49,1.48-1.37l-0.21-2.74
						L635.09,144.15z"/>
					<path class="st5" d="M638.78,147.95l0.31,2.62c0.04,0.31,0.24,0.57,0.53,0.68l4.16,1.54
						C643.77,152.78,639.2,148.16,638.78,147.95z"/>
					<path class="st2" d="M541.38,139.5l-8.8-0.9c-0.51-0.05-0.92,0.44-0.76,0.93c0.86,2.7,2.77,10.23,0.11,17.72
						c-0.15,0.42,0.1,0.87,0.54,0.96l8.83,1.65c0.36,0.07,0.72-0.15,0.82-0.51c0.75-2.62,3.34-12.93-0.17-19.48
						C541.84,139.66,541.62,139.53,541.38,139.5z"/>
				</g>
				<g>
					<path class="st1" d="M425.36,161.78c-2.07,0.94,11.11,4.14,11.11,4.14l33.17-9.03c-2.89-1.46-5.69-2.92-8.38-4.38
						C451.15,155.01,427.01,161.03,425.36,161.78z"/>
					<path class="st1" d="M525.75,128.25c-19.8-1.47-43.57-11.05-49.47-13.53c-2.3,1.1-4.55,2.15-6.52,3.06
						c8.58,3.27,36.81,13.22,57.5,10.85l-0.23-0.33C526.58,128.29,526.15,128.28,525.75,128.25z"/>
					<path class="st1" d="M471.32,105.83c-1.18,0.34-3.4,1.14-6.14,2.19c-9.52,3.66-25.22,10.33-24.56,11
						c4.52,4.52,22.6,1.7,22.6,1.7s2.75-1.2,6.54-2.94c1.97-0.9,4.23-1.96,6.52-3.06c1.87-0.9,3.77-1.83,5.57-2.75
						c5.42-2.76,9.92-5.39,10-6.51C492.04,102.63,476.59,104.33,471.32,105.83z"/>
					<path class="st1" d="M420.84,117.7c-0.91,0.18-1.74,0.39-2.48,0.62c-4.96,1.49-6.14,3.68-3.36,4.66
						c0.89,0.31,2.63,0.8,4.79,1.16c5.64,0.95,14.13,1.06,17.81-4.93C437.6,119.21,437.6,114.31,420.84,117.7z"/>
					<path class="st1" d="M421.08,125.97c-9.4,2.02-41.31,8.99-41.31,10.75c0,2.07,4.33,5.09,9.42,3.2
						c4.08-1.51,28.34-6.65,38.11-8.72c-1.69-1.23-2.87-2.12-3.46-2.58C422.71,127.74,421.81,126.85,421.08,125.97z"/>
					<path class="st1" d="M525.21,176.92c-4.12-0.31-8.13-0.65-11.91-1c0.99,1.17,2.28,2.34,3.93,3.31
						c5.47,3.2,46.85,3.2,50.59,3.07c2.13-0.08,4.44-2.33,6.05-4.32c-0.56,0.03-1.16,0.06-1.79,0.08
						C556.66,180.94,540.7,180.05,525.21,176.92z"/>
					<path class="st1" d="M581.83,175.59c9.8,2.24,15.87-1.91,16.93-6.58c1.31-5.75-7.06-7.32-29.56-9.68
						c-15.89-1.66-25.38,1.89-29.59,4.13c18.39,2.88,38.47,6.94,41.68,7.64C584.52,171.8,583.34,173.94,581.83,175.59z"/>
					<g>
						<path class="st1" d="M514.73,160.53c-2.07-0.07-3.77-0.03-4.98,0.15c-5.75,0.87-12.9,3.58-17.68,6.27
							c-4.76,2.68-7.14,5.34-3.41,6.14c0.17,0.04,0.38,0.08,0.62,0.12c1.08-0.1,2.2-0.33,3.33-0.76
							C498.4,170.28,510.76,166.44,514.73,160.53z"/>
						<path class="st6" d="M581.3,171.09c-3.21-0.7-23.29-4.76-41.68-7.64c-9.67-1.52-18.86-2.71-24.89-2.92
							c-3.97,5.91-16.33,9.75-22.12,11.93c-1.13,0.42-2.25,0.65-3.33,0.76c3.16,0.56,12.47,1.66,24.02,2.71
							c3.78,0.34,7.79,0.68,11.91,1c15.49,3.13,31.45,4.03,46.87,1.15c0.63-0.03,1.23-0.06,1.79-0.08c3.57-0.18,5.69-0.35,5.69-0.35
							s0,0,0,0c0.02-0.01,1.22-0.91,2.27-2.04C583.34,173.94,584.52,171.8,581.3,171.09z"/>
					</g>
					<circle class="st6" cx="537.21" cy="143.54" r="1.29"/>
					<path class="st7" d="M628.4,139.68c0,0-3.75,14.52-0.7,12.53c3.04-1.99,3.69-13.44,3.69-13.44L628.4,139.68z"/>
					<path class="st6" d="M631.39,138.77c0.5,0.34,1.01,6.57,1.16,8.6c0.03,0.39,0.28,0.72,0.65,0.84l0,0
						c0.68,0.24,1.38-0.32,1.3-1.04l-0.7-6.09L631.39,138.77z"/>
					<path class="st6" d="M635.3,142.64l0.51,5.57c0.04,0.38,0.29,0.71,0.66,0.83l0,0c0.86,0.29,1.7-0.49,1.48-1.37l-0.21-2.75
						L635.3,142.64z"/>
					<path class="st6" d="M638.99,146.44l0.31,2.62c0.04,0.31,0.24,0.57,0.53,0.68l4.16,1.54
						C643.98,151.28,639.41,146.65,638.99,146.44z"/>
					<g>
						<path class="st8" d="M601.21,138.87c0.2,0.06,0.4,0.11,0.61,0.17C601.61,138.98,601.41,138.92,601.21,138.87z"/>
						<path class="st8" d="M599.54,138.37c0.25,0.08,0.5,0.16,0.74,0.23C600.04,138.53,599.79,138.45,599.54,138.37z"/>
						<polygon class="st8" points="608.13,140.32 608.13,140.32 608.13,140.32 						"/>
						<path class="st8" d="M587.44,132.9c-0.01-0.01-0.03-0.02-0.04-0.03c0,0,0,0,0,0C587.41,132.89,587.43,132.9,587.44,132.9z"/>
						<path class="st8" d="M597.22,137.59c0.43,0.16,0.86,0.31,1.29,0.45C598.09,137.9,597.66,137.75,597.22,137.59z"/>
						<path class="st8" d="M629.94,139.17c0.05-0.01,0.1-0.02,0.14-0.04C630.04,139.14,629.99,139.16,629.94,139.17z"/>
						<path class="st8" d="M610.13,140.57c0.01,0,0.02,0,0.04,0C610.15,140.58,610.14,140.57,610.13,140.57z"/>
						<path class="st8" d="M595.53,136.94c0.33,0.13,0.65,0.26,0.98,0.38C596.19,137.2,595.86,137.07,595.53,136.94z"/>
						<path class="st8" d="M628.36,139.54c0.05-0.01,0.09-0.02,0.14-0.03C628.45,139.52,628.4,139.53,628.36,139.54z"/>
						<path class="st8" d="M629.19,139.35c0.06-0.01,0.12-0.03,0.18-0.04C629.31,139.32,629.25,139.34,629.19,139.35z"/>
						<path class="st8" d="M606.72,140.1c0.07,0.01,0.15,0.03,0.22,0.04C606.86,140.13,606.79,140.11,606.72,140.1z"/>
						<path class="st8" d="M625.07,140.17c0.01,0,0.02,0,0.02,0C625.08,140.17,625.08,140.17,625.07,140.17z"/>
						<path class="st8" d="M602.8,139.29c0.11,0.03,0.22,0.05,0.32,0.08C603.01,139.34,602.91,139.31,602.8,139.29z"/>
						<path class="st8" d="M618.24,118.45c3.53,0.81,8.51,2.15,12.32,3.72c-0.44-1.11-2.82-7.23-3.19-10.28
							c-5.95,2.77-11.22,5.2-15.02,6.95C614.69,118.32,616.74,118.11,618.24,118.45z"/>
						<path class="st8" d="M589.78,134.24c0.44,0.24,0.88,0.47,1.32,0.69C590.66,134.7,590.22,134.47,589.78,134.24z"/>
						<path class="st8" d="M587.98,133.22c0.41,0.24,0.81,0.47,1.22,0.7C588.79,133.69,588.39,133.46,587.98,133.22z"/>
						<path class="st8" d="M593.74,136.18c0.36,0.16,0.73,0.32,1.09,0.47C594.47,136.5,594.11,136.34,593.74,136.18z"/>
						<path class="st8" d="M640.08,105.92c-3.75,1.78-7.46,3.52-10.97,5.16c2.29,2.82,5.14,11.28,5.14,11.28
							S637.89,110.93,640.08,105.92z"/>
						<path class="st8" d="M591.5,135.13c0.55,0.27,1.1,0.53,1.65,0.79C592.6,135.67,592.06,135.41,591.5,135.13z"/>
						<path class="st1" d="M611.46,163.12c2.23-8.8-0.69-17.39-3.33-22.8c0,0,0,0,0,0c-0.39-0.06-0.79-0.12-1.19-0.19
							c-0.07-0.01-0.15-0.02-0.22-0.04c-1.17-0.2-2.37-0.44-3.59-0.74c-0.11-0.03-0.22-0.05-0.32-0.08
							c-0.33-0.08-0.66-0.17-0.99-0.26c-0.2-0.05-0.4-0.11-0.61-0.17c-0.31-0.09-0.61-0.17-0.92-0.27
							c-0.25-0.07-0.49-0.15-0.74-0.23c-0.34-0.11-0.68-0.21-1.02-0.33c-0.43-0.14-0.86-0.29-1.29-0.45
							c-0.24-0.09-0.47-0.18-0.71-0.27c-0.33-0.12-0.65-0.25-0.98-0.38c-0.23-0.09-0.47-0.19-0.7-0.29
							c-0.36-0.15-0.72-0.31-1.09-0.47c-0.2-0.09-0.39-0.17-0.59-0.26c-0.55-0.25-1.1-0.51-1.65-0.79
							c-0.14-0.07-0.27-0.14-0.41-0.21c-0.44-0.22-0.88-0.45-1.32-0.69c-0.19-0.1-0.39-0.21-0.58-0.32
							c-0.41-0.23-0.81-0.46-1.22-0.7c-0.18-0.1-0.36-0.21-0.53-0.31c-0.02-0.01-0.03-0.02-0.05-0.03c-1.04-0.12-2.1-0.26-3.12-0.44
							c-6.54,2.75-13.11,4.97-17.47,5.04c-11.68,0.19-38.24-3.77-38.61-7.53c-0.04-0.36,0.32-0.94,0.99-1.71
							c-0.77,0.05-1.49,0.07-2.16,0.06l0.23,0.33c-20.69,2.37-48.93-7.58-57.5-10.85c-3.79,1.74-6.54,2.94-6.54,2.94
							s-18.08,2.83-22.6-1.7c-0.66-0.66,15.04-7.34,24.56-11c-3.69-3.32-8-8.35-12.13-15.94c-10.36-19.02-15.45-40.31-23.73-42.95
							c-8.29-2.64-17.14-0.38-17.14-0.38l6.22,69.32c0,0-0.02,0.08-0.03,0.24c0.74-0.22,1.57-0.43,2.48-0.62
							c16.76-3.39,16.76,1.51,16.76,1.51c-3.68,5.99-12.17,5.88-17.81,4.93c0.34,0.59,0.77,1.21,1.29,1.83
							c0.73,0.88,1.62,1.77,2.77,2.65c0.59,0.45,1.77,1.35,3.46,2.58c0.42,0.31,0.88,0.64,1.37,0.99
							c10.28,0.02,37.5,0.44,43.56,4.38c6.41,4.17,34.31,19.54,42.35,23.95c6.03,0.2,15.29,1.4,25.03,2.93
							c4.2-2.23,13.69-5.79,29.59-4.13c22.49,2.35,30.86,3.92,29.56,9.68c-1.06,4.67-7.13,8.83-16.93,6.58
							c-1.05,1.14-2.25,2.03-2.27,2.04c3.7,0.79,11.07,2.1,19.88,2.37C604.23,176.22,609.58,170.54,611.46,163.12z M542.12,159.35
							c-0.1,0.36-0.46,0.57-0.82,0.51l-8.83-1.65c-0.44-0.08-0.69-0.54-0.54-0.96c2.66-7.49,0.75-15.03-0.11-17.72
							c-0.16-0.49,0.24-0.98,0.76-0.93l8.8,0.9c0.24,0.02,0.46,0.16,0.57,0.37C545.47,146.43,542.88,156.73,542.12,159.35z"/>
						<path class="st9" d="M428.68,132.19c6.28,4.5,17.81,12.3,32.58,20.32c2.69,1.46,5.48,2.93,8.38,4.38
							c6.99,3.51,14.52,6.96,22.44,10.06c4.77-2.69,11.93-5.4,17.68-6.27c1.19-0.18,2.83-0.22,4.84-0.16
							c-8.04-4.42-35.94-19.78-42.35-23.95C466.18,132.62,438.96,132.2,428.68,132.19z"/>
						<path class="st1" d="M630.09,139.13c-0.05,0.01-0.1,0.02-0.14,0.04c-0.18,0.04-0.37,0.09-0.57,0.14
							c-0.06,0.01-0.12,0.03-0.18,0.04c-0.22,0.05-0.45,0.11-0.7,0.16c-0.05,0.01-0.09,0.02-0.14,0.03
							c-0.93,0.21-2.02,0.42-3.26,0.62c-0.01,0-0.02,0-0.02,0c-3.79,0.61-8.95,1.04-14.9,0.41c-0.01,0-0.02,0-0.04,0
							c-0.66-0.07-1.32-0.15-2-0.25c0,0,0,0,0,0c2.64,5.41,5.56,14,3.33,22.8c-1.88,7.42-7.23,13.1-12.01,16.88
							c1.46,0.04,2.95,0.06,4.47,0.05c14.88-0.19,65.55,0.75,43.13-25.99l-15.07-14.88l-0.6-0.41c-0.23,0.07-0.46,0.15-0.72,0.22
							C630.49,139.03,630.3,139.08,630.09,139.13z"/>
						<path class="st1" d="M541.38,139.5l-8.8-0.9c-0.51-0.05-0.92,0.44-0.76,0.93c0.86,2.7,2.77,10.23,0.11,17.72
							c-0.15,0.42,0.1,0.87,0.54,0.96l8.83,1.65c0.36,0.07,0.72-0.15,0.82-0.51c0.75-2.62,3.34-12.93-0.17-19.48
							C541.84,139.66,541.62,139.53,541.38,139.5z"/>
						<path class="st1" d="M609.17,119.69c1.96-0.53,3.18-0.85,3.18-0.85C611.33,119.07,610.27,119.36,609.17,119.69z"/>
						<path class="st1" d="M600.28,138.6c0.31,0.09,0.62,0.18,0.92,0.27C600.9,138.78,600.59,138.69,600.28,138.6z"/>
						<path class="st1" d="M591.1,134.93c0.14,0.07,0.27,0.14,0.41,0.21C591.37,135.07,591.23,134.99,591.1,134.93z"/>
						<path class="st1" d="M594.83,136.65c0.24,0.1,0.47,0.19,0.7,0.29C595.3,136.85,595.06,136.75,594.83,136.65z"/>
						<path class="st1" d="M598.52,138.04c0.34,0.12,0.68,0.22,1.02,0.33C599.2,138.26,598.86,138.15,598.52,138.04z"/>
						<path class="st1" d="M596.51,137.32c0.24,0.09,0.47,0.18,0.71,0.27C596.99,137.5,596.75,137.41,596.51,137.32z"/>
						<path class="st1" d="M593.15,135.92c0.2,0.09,0.39,0.17,0.59,0.26C593.55,136.09,593.35,136.01,593.15,135.92z"/>
						<path class="st1" d="M587.44,132.9c0.18,0.11,0.36,0.21,0.53,0.31C587.8,133.11,587.62,133.01,587.44,132.9z"/>
						<path class="st1" d="M606.94,140.14c0.4,0.07,0.8,0.13,1.19,0.19C607.74,140.27,607.34,140.2,606.94,140.14z"/>
						<path class="st1" d="M589.2,133.92c0.19,0.11,0.39,0.21,0.58,0.32C589.59,134.13,589.39,134.02,589.2,133.92z"/>
						<path class="st1" d="M601.81,139.03c0.33,0.09,0.66,0.18,0.99,0.26C602.47,139.21,602.14,139.12,601.81,139.03z"/>
						<path class="st1" d="M603.12,139.36c1.22,0.29,2.42,0.54,3.59,0.74C605.54,139.9,604.34,139.66,603.12,139.36z"/>
						<path class="st1" d="M629.37,139.31c0.2-0.05,0.39-0.09,0.57-0.14C629.76,139.21,629.57,139.26,629.37,139.31z"/>
						<path class="st1" d="M625.07,140.17c-3.79,0.61-8.95,1.04-14.9,0.41C616.12,141.21,621.28,140.78,625.07,140.17z"/>
						<path class="st1" d="M628.49,139.51c0.24-0.05,0.48-0.11,0.7-0.16C628.97,139.4,628.74,139.46,628.49,139.51z"/>
						<path class="st1" d="M625.09,140.17c1.24-0.2,2.34-0.42,3.26-0.62C627.43,139.75,626.33,139.97,625.09,140.17z"/>
						<path class="st1" d="M608.13,140.32c0.68,0.1,1.34,0.18,2,0.25C609.47,140.5,608.81,140.42,608.13,140.32z"/>
						<path class="st1" d="M630.09,139.13c0.21-0.05,0.41-0.1,0.58-0.15C630.49,139.03,630.3,139.08,630.09,139.13z"/>
						<path class="st7" d="M634.26,122.35c0,0-2.85-8.45-5.14-11.28c-0.59,0.28-1.18,0.55-1.75,0.82c0.37,3.05,2.75,9.17,3.19,10.28
							c3.31,1.36,5.75,2.89,5.57,4.38c-0.38,3.2-1.13,5.09-3.2,6.59c0,0,10.23,18.71,11.87,16.48c1.64-2.22-8.08-16.27-8.08-16.27
							s2.46-0.82,4.8-1.64s-0.47-3.16-0.47-3.16s11.12-3.98,10.18-6.2s-14.98,2.93-14.98,2.93s5.74-10.07,7.73-14.75
							c1.22-2.87,0.5-5.08-0.56-6.2c-1.11,0.53-2.22,1.06-3.33,1.58C637.89,110.93,634.26,122.35,634.26,122.35z"/>
						<path class="st1" d="M669.84,81.16c-3.97,0-8.09,1.55-11.75,2.95c-11.29,4.3-22.05,9.87-33.31,14.26
							c-5.04,1.97-10.09,3.92-15.16,5.83c-28.65,10.8-64.58,23.06-80.45,24.04c-0.67,0.77-1.02,1.35-0.99,1.71
							c0.38,3.77,26.93,7.72,38.61,7.53c4.35-0.07,10.93-2.29,17.47-5.04c-2.4-0.42-4.54-1.01-5.41-1.85
							c-2.01-1.95,21.57-8.55,30.3-10.9c1.1-0.33,2.16-0.62,3.18-0.85c3.8-1.74,9.07-4.17,15.02-6.95c0.58-0.27,1.16-0.54,1.75-0.82
							c3.51-1.64,7.22-3.38,10.97-5.16c1.11-0.53,2.22-1.05,3.33-1.58c17.65-8.42,35.23-17.2,36.6-19.4
							C680.02,84.93,674.74,81.16,669.84,81.16z"/>
						<path class="st1" d="M632.93,133.15c2.07-1.51,2.83-3.39,3.2-6.59c0.18-1.49-2.26-3.02-5.57-4.38
							c-3.81-1.57-8.79-2.91-12.32-3.72c-1.49-0.34-3.55-0.14-5.89,0.39c0,0-1.22,0.32-3.18,0.85c-8.72,2.36-32.31,8.96-30.3,10.9
							c0.87,0.84,3,1.43,5.41,1.85c1.02,0.18,2.08,0.32,3.12,0.44c0,0,0,0,0,0c0.01,0.01,0.03,0.02,0.04,0.03
							c0.18,0.11,0.36,0.21,0.53,0.31c0.41,0.24,0.81,0.47,1.22,0.7c0.19,0.11,0.39,0.21,0.58,0.32c0.44,0.24,0.88,0.47,1.32,0.69
							c0.14,0.07,0.27,0.14,0.41,0.21c0.55,0.27,1.1,0.53,1.65,0.79c0.2,0.09,0.39,0.17,0.59,0.26c0.36,0.16,0.73,0.32,1.09,0.47
							c0.24,0.1,0.47,0.19,0.7,0.29c0.33,0.13,0.65,0.26,0.98,0.38c0.24,0.09,0.47,0.18,0.71,0.27c0.43,0.16,0.86,0.31,1.29,0.45
							c0.34,0.12,0.68,0.22,1.02,0.33c0.25,0.08,0.5,0.16,0.74,0.23c0.31,0.09,0.62,0.18,0.92,0.27c0.2,0.06,0.4,0.11,0.61,0.17
							c0.33,0.09,0.66,0.18,0.99,0.26c0.11,0.03,0.22,0.05,0.32,0.08c1.22,0.29,2.42,0.54,3.59,0.74c0.07,0.01,0.15,0.03,0.22,0.04
							c0.4,0.07,0.8,0.13,1.19,0.19c0,0,0,0,0,0c0.67,0.1,1.34,0.18,2,0.25c0.01,0,0.02,0,0.04,0c5.95,0.63,11.11,0.2,14.9-0.41
							c0.01,0,0.02,0,0.02,0c1.24-0.2,2.34-0.42,3.26-0.62c0.05-0.01,0.09-0.02,0.14-0.03c0.24-0.05,0.48-0.11,0.7-0.16
							c0.06-0.01,0.12-0.03,0.18-0.04c0.2-0.05,0.39-0.1,0.57-0.14c0.05-0.01,0.1-0.02,0.14-0.04c0.21-0.05,0.41-0.1,0.58-0.15
							c0.26-0.07,0.5-0.14,0.72-0.22c4.12-1.37,2.1-3.74,2.1-3.74S630.86,134.65,632.93,133.15z"/>
						<ellipse class="st7" cx="589.65" cy="130.38" rx="1.37" ry="2.02"/>
					</g>
					<path class="st9" d="M422.91,56.42c0.61,0.2,15.25,59.18,15.86,59.79"/>
					<path class="st9" d="M527.44,181.28c0,0-1.19,2.19,1.01,2.37s5.34-0.53,5.34-0.53v-1.42L527.44,181.28z"/>
				</g>
			</g>
			<path class="st1" d="M490.48,438.33l281.12-60.76c4.67-1.01,7.53-5.74,6.25-10.35l-52.25-188.4c-1.25-4.5-5.95-7.09-10.42-5.73
				l-273.64,82.84l37.64,175.11C480.29,436.17,485.35,439.43,490.48,438.33z"/>
			<path class="st1" d="M95.99,371.17l231.81-84.22L305.5,63.88c-0.46-4.62-5.42-7.34-9.57-5.25L72.53,171.53
				c-6.07,3.07-9.54,9.64-8.66,16.38l23.31,177.9C87.73,370,92.02,372.61,95.99,371.17z"/>
			<line class="st1" x1="305.72" y1="71.75" x2="63.87" y2="187.91"/>
			<line class="st1" x1="528.66" y1="242.98" x2="724.5" y2="185.49"/>
			<line class="st1" x1="82.83" y1="200.09" x2="294.26" y2="98.83"/>
			<path class="st1" d="M710.77,213.58c-2.36-0.47-241.69,77.26-241.69,77.26"/>
			<g>
				<line class="st1" x1="594.51" y1="275.58" x2="472.62" y2="314.63"/>
				<path class="st1" d="M577.08,304.41c-16.31,4.95-32.62,9.89-48.94,14.84c-13.93,4.22-27.87,8.45-41.8,12.67
					c-2.75,0.83-5.49,1.67-8.24,2.5"/>
				<path class="st1" d="M600.82,297.21c-4.77,1.45-9.53,2.89-14.3,4.34"/>
				<path class="st1" d="M534.15,339.74c-16.55,3.32-33.55,10.32-50.56,14.48"/>
				<path class="st1" d="M607.13,318.84c-20.53,6.22-41.53,11.22-62.61,17.93"/>
				<line class="st1" x1="613.44" y1="340.47" x2="489.07" y2="374.01"/>
				<line class="st1" x1="619.75" y1="362.1" x2="494.55" y2="393.81"/>
				<path class="st1" d="M577.88,395.15c-26.29,6.92-52.29,11.92-77.85,18.45"/>
				<path class="st1" d="M626.06,383.73c-13.46,2.33-25.46,6.33-38.13,9.04"/>
			</g>
			<g>
				<line class="st1" x1="710.58" y1="234.4" x2="613.8" y2="265.63"/>
				<line class="st1" x1="717.22" y1="253.21" x2="619.81" y2="283.89"/>
				<line class="st1" x1="723.86" y1="272.02" x2="625.83" y2="302.14"/>
				<line class="st1" x1="730.5" y1="290.83" x2="631.85" y2="320.4"/>
				<line class="st1" x1="737.14" y1="309.64" x2="637.86" y2="338.66"/>
				<line class="st1" x1="743.78" y1="328.45" x2="643.88" y2="356.91"/>
			</g>
			<g>
				<line class="st1" x1="177.95" y1="178.08" x2="85.95" y2="222.03"/>
				<line class="st1" x1="202.45" y1="187.94" x2="87.69" y2="239.29"/>
				<line class="st1" x1="226.95" y1="197.81" x2="89.43" y2="256.56"/>
				<line class="st1" x1="251.46" y1="207.68" x2="91.17" y2="273.82"/>
				<line class="st1" x1="275.96" y1="217.54" x2="92.91" y2="291.08"/>
				<line class="st1" x1="300.46" y1="227.41" x2="94.65" y2="308.35"/>
			</g>
			<g>
				<line class="st1" x1="292.14" y1="129.97" x2="224.7" y2="159.75"/>
				<line class="st1" x1="295.56" y1="149.67" x2="216.63" y2="183.48"/>
				<line class="st1" x1="305.83" y1="240.23" x2="192.44" y2="286.15"/>
				<line class="st1" x1="309.25" y1="267.8" x2="184.38" y2="317.75"/>
			</g>
			<g>
				<line class="st1" x1="155.24" y1="301.41" x2="97.97" y2="322.86"/>
				<line class="st1" x1="157.09" y1="318.98" x2="99.71" y2="340.12"/>
				<line class="st1" x1="158.94" y1="336.56" x2="101.45" y2="357.38"/>
			</g>
			<g>
				<g>
					<path class="st2" d="M378.76,241.83c-4.13,5.1-10.18,11.86-13.07,11.66c-3.34-0.23-15.58-6.71-22.28-11.84
						c-0.33-0.26-0.65-0.51-0.96-0.76c0.04,0.41,0.07,0.82,0.09,1.23c0.22,3.57-0.07,6.92-1.81,7.47c1.45,2.71,4.51,6.15,10.8,9.94
						c14.79,8.91,25.29-2.7,26.72-7C379.14,249.9,379,245.14,378.76,241.83z"/>
					<path class="st2" d="M384.99,227.45c0.01-2.67-0.15-5.1-0.68-6.09c-1.13-2.13-3.18-19.56-21.95-21
						c-18.77-1.43-26.4,12.72-27.36,17.02c-0.26,1.17-0.31,4.16-0.15,7.86c0.43,9.84,2.32,24.78,5.55,24.43
						c0.12-0.01,0.22-0.04,0.33-0.08c1.74-0.55,2.03-3.91,1.81-7.47c-0.02-0.41-0.06-0.82-0.09-1.23c-0.37-4.1-1.26-8.08-1.26-8.08
						c7.81,2.01,22.05-2.58,30.4-4.87c2.87-0.79,5.05-1.3,6.03-1.18c0.73,0.09,1.22,0.67,1.57,1.57c0.98,2.51,0.83,7.49,1.42,11.16
						c0.31,1.91,0.81,3.47,1.78,4.13c3.5,2.39,2.07-6.2,2.07-6.2S384.98,232.06,384.99,227.45z"/>
					<path class="st2" d="M369.67,238.87c-3.34-0.21-5.22-3.13-5.22-3.13l-5.85,5.22c-5.27,2.45-11.83,0.23-16.36-2.03
						c0.08,0.64,0.16,1.3,0.21,1.96c0.31,0.25,0.62,0.5,0.96,0.76c6.7,5.13,18.94,11.61,22.28,11.84c2.88,0.2,8.93-6.56,13.07-11.66
						c0.68-0.84,1.3-1.62,1.85-2.33c-0.2-1.26-0.32-2.68-0.42-4.09C376.4,237.07,371.58,238.99,369.67,238.87z"/>
					<path class="st2" d="M358.6,240.96l5.85-5.22c0,0,1.88,2.92,5.22,3.13c1.91,0.12,6.73-1.8,10.52-3.47
						c-0.2-2.71-0.35-5.42-1-7.06c-0.35-0.9-0.85-1.48-1.57-1.57c-0.98-0.12-3.16,0.39-6.03,1.18c-8.35,2.29-22.59,6.88-30.4,4.87
						c0,0,0.62,2.8,1.04,6.12C346.77,241.18,353.33,243.41,358.6,240.96z"/>
					<path class="st2" d="M294.76,310.59c6.06-6.29,12.83-7.81,16.68-8.17l-1.93-2.77c-0.33-0.4-0.6-0.86-0.83-1.36
						c-5,0.76-12.4,3.05-20.44,10.07c-13.84,12.09,0.48,16.38,0.48,16.38l0.88,0.35C291.11,321.18,287.54,318.08,294.76,310.59z"/>
					<path class="st2" d="M363.17,347.85c-3.13,0.33-6.66,0.45-10.67,0.27c-5.55-0.25-10.49-1.73-14.85-3.91l-3.28,5.18
						c0,0-2.67,0.77-6.71,1.86c2.76,4.85,5.77,9.17,7.21,8.02c3.02-2.42,9.97-4.23,9.97-4.23c8.95-0.88,15.72-2.62,20.84-4.66
						C364.74,349.57,363.89,348.72,363.17,347.85z"/>
					<path class="st2" d="M326.44,336.21c-6.01-5.74-9.95-12.12-11.8-15.6c-0.65-1.22-1.07-2.43-1.34-3.59
						c-1.32-5.65,1.18-10.25,1.18-10.25l-3.04-4.35c-3.85,0.36-10.62,1.88-16.68,8.17c-7.22,7.49-3.65,10.59-5.17,14.51
						c-0.29,0.74-0.75,1.51-1.51,2.35c-4.77,5.25-4.93,11.77-3.02,19.72c1.91,7.95,0.64,13.04,14.47,10.66
						c8.91-1.54,20.79-4.59,28.12-6.57c4.05-1.09,6.71-1.86,6.71-1.86l3.28-5.18C333.33,342.06,329.6,339.22,326.44,336.21z"/>
					<path class="st2" d="M233.41,237.33c0.24-3.15,1.37-5.18,2.77-6.59c-4.66-3.19-12.18-6.85-17.1-1.67c0,0-1.44,1.7,2.87,3.4
						c0,0-15.93,1.44-15.93,7.18c0,0,0.91,3,3.66,2.87c0,0-4.05,2.22-2.35,3.79c1.7,1.57,6.4,0.91,6.4,0.91s-5.22,3.79-2.48,4.96
						c2.74,1.18,8.1-0.91,8.1-0.91s-4.83,2.09-3.13,4.18c1.7,2.09,1.44,3.79,5.75,2.09c2.82-1.11,9.6-5.51,13.96-8.43
						C232.52,246.07,233.05,241.91,233.41,237.33z"/>
					<path class="st2" d="M425.77,382.26l-0.73,1.58c0,0,8.88,3.66,14.63,8.36c2.88,2.35,10.71,9.4,10.71,9.4
						c10.32,3.92,15.15-0.39,14.89-8.75s-23.51-21.55-27.82-23.25c-1.29-0.51-2.17-0.54-2.77-0.35
						C434.97,373.31,432.96,381.54,425.77,382.26z"/>
					<path class="st2" d="M434.67,369.25c-0.07-0.97-0.28-1.71-0.58-2.04c-1.75-1.91-2.54-2.54-5.25-11.61
						c-2.7-9.07-9.07-8.11-13.68-10.66c-4.61-2.54-3.66-10.5-4.77-16.22c-0.43-2.23-2.34-3.69-4.51-4.64
						c-3.57,1.89-7.42,3.37-7.42,3.37s-5.57,8.91-11.13,11.45c-2.88,1.32-6.36,3.99-12.01,6.14c-3.24,1.23-7.19,2.29-12.16,2.81
						c0.73,0.87,1.57,1.72,2.51,2.54c8.1,7.07,23.2,12.23,30.25,17.94C405.14,375.8,409.6,379.3,422,382
						c1.39,0.3,2.64,0.37,3.76,0.25C432.96,381.54,434.97,373.31,434.67,369.25z"/>
					<path class="st2" d="M547.01,253.69c1.17-0.21,5.11-0.64,5.11-0.64c2.98-1.49,0-5.32-6.28-7.14s-14.91,6.82-15.44,6.92
						c-0.53,0.11,0.32-2.45,0.32-5.75s-3.94-1.17-6.07,1.7c-2.13,2.88,0.11,5.96-2.45,5.75c-1.04-0.09-2.34-0.12-3.52-0.13
						c-6.27,6.93-1.71,22.61-1.71,22.61s-0.04,0.04-0.1,0.11c4.73,1.27,12.73-4.11,13.75-4.7c1.28-0.75,8.84,1.6,13.21-0.32
						c4.37-1.92,1.06-3.83-1.28-5.01c-2.34-1.17-7.03-1.49-7.03-1.49c1.28-2.88,13.84-1.06,15.76-3.09
						c1.92-2.02-3.73-3.94-3.73-3.94s2.77,0.32,4.79-1.6C554.35,255.07,547.01,253.69,547.01,253.69z"/>
					<path class="st10" d="M390.14,257.46c0,0-5.85,9.61-3.76,16.29c2.09,6.68,3.55,22.77,3.97,27.78c0.42,5.01,2.92,6.68,2.92,6.68
						"/>
					<path class="st10" d="M360.9,262.68c0,0-0.42,7.73-4.18,13.79c-3.76,6.06-5.64,33.63-2.51,37.6"/>
					<path class="st2" d="M324.77,307.38c0.09-0.01,0.17-0.01,0.26-0.02c-5.05-3.46-9.42-6.91-11.75-8.12
						c-1.84-0.96-3.28-0.95-4.39-0.54c0.18,0.34,0.38,0.67,0.62,0.96l1.93,2.77l3.04,4.35c0,0,9.03,6.67,11.75,7.71L324.77,307.38z"
						/>
					<path class="st2" d="M398.6,312.94c-1.31,0.64-23.08,11.07-42.44,9.63c0.02,2.01-0.28,3.72-1.1,4.66
						c-1.6,1.83-5.74,0.02-7.94,0.02c-2.6,0.01-2.88-3.6-2.47-7.18l-8.95-2.47c-0.49,0.56-1.22,0.91-2.18,0.91
						c-5.85,0.02-7.32-3.95-7.32-3.95c-2.72-1.04-11.77-7.68-11.77-7.68s-2.49,4.6-1.16,10.25c0.27,1.16,0.7,2.37,1.35,3.59
						c1.87,3.48,5.82,9.84,11.85,15.57c3.17,3.01,6.9,5.83,11.22,7.97c4.37,2.17,9.32,3.64,14.86,3.87
						c4.01,0.17,7.54,0.04,10.67-0.3c4.97-0.54,8.91-1.61,12.15-2.85c5.65-2.16,9.12-4.85,11.99-6.17
						c5.56-2.56,11.1-11.48,11.1-11.48s0.32-0.12,0.85-0.34c0.58-3.29,1.26-7.64,1.25-9.92
						C400.56,315.73,399.71,314.28,398.6,312.94z"/>
					<path class="st2" d="M393.22,308.11c-4.87,3.95-24.24,6.4-37.95,7.37c0.47,2.32,0.86,4.88,0.88,7.08
						c19.37,1.44,41.13-8.99,42.44-9.63C396.43,310.3,393.22,308.11,393.22,308.11z"/>
					<path class="st2" d="M344.4,315.94c-2.47,0-5.21-0.79-8.04-2.02c0.32,1.44,0.11,2.77-0.63,3.61l8.94,2.49
						c0.17-1.45,0.46-2.9,0.76-4.1C345.07,315.94,344.72,315.94,344.4,315.94z"/>
					<path class="st2" d="M336.36,313.93c-0.34-1.51-1.27-3.12-2.8-4.38c-1.91-1.57-4.74-2.59-8.53-2.19
						c-0.09,0.01-0.17,0.01-0.26,0.02l1.46,7.1c0,0,1.46,3.97,7.31,3.97c0.96,0,1.69-0.35,2.19-0.91
						C336.47,316.7,336.68,315.36,336.36,313.93z"/>
					<path class="st2" d="M355.31,315.48c-0.03-0.16-0.06-0.31-0.09-0.47c-0.05-0.25-0.11-0.5-0.16-0.75c0,0-2.58-0.88-4.95-1.33
						c-1.79-0.34-3.47-0.43-3.82,0.28c-0.2,0.4-0.53,1.41-0.85,2.71c-0.3,1.2-0.59,2.64-0.76,4.1c-0.43,3.58-0.16,7.19,2.45,7.19
						c2.2,0,6.33,1.82,7.94,0c0.83-0.94,1.13-2.65,1.12-4.66C356.16,320.36,355.77,317.8,355.31,315.48z"/>
					<path class="st2" d="M299.59,240.16c0,0-2.96,0.9-3.86-1.55c0,0-1.42-4.64-4.76-5.02c-3.35-0.39-4.76-0.64-8.76-2.19
						c-3.99-1.55-4.38-2.58-8.63-2.19c-4.25,0.39-30-2.83-32.58-1.55c-1.36,0.68-3.26,1.48-4.83,3.06
						c-1.39,1.41-2.52,3.44-2.77,6.59c-0.35,4.58-0.88,8.75,2.49,11.78c1.56,1.4,3.94,2.56,7.55,3.41
						c11.46,2.7,19.44,5.02,21.25,7.08c1.8,2.06,11.72,1.16,14.04,3.22c2.32,2.06,7.08,6.7,12.23,5.79
						c5.15-0.9,8.63-2.45,11.97,1.67c2.61,3.21,6.22,6.18,7.6,7.47l11.55-38.69L299.59,240.16z"/>
					<path class="st2" d="M330.62,250.15l-7.94-2.3l0.73-8.85l-1.32,0.06l-11.55,38.69c0.39,0.37-0.11-0.26,0,0
						c0,0-4.88,13.99-1.86,20.53c0.07,0.14,0.14,0.27,0.21,0.41c1.11-0.41,2.55-0.42,4.39,0.54c0.27,0.14,0.57,0.32,0.89,0.51
						c5.66-11.29,13.14-36.74,16.93-50.3C330.8,249.88,330.62,250.15,330.62,250.15z"/>
					<path class="st2" d="M330.62,250.15c0,0,3.38-4.84,5.95-8.93c-0.92-4.91-1.5-11.07-1.71-15.97
						c-1.95,0.73-10.42,4.43-11.44,13.76l-0.73,8.85L330.62,250.15z"/>
					<path class="st2" d="M387.74,257.28c5.13,0.92,14.66,0.55,14.85,0c0.17-0.52-4.3-14.7,12.12-10.93
						c-1.71-5.46-7.61-18.58-24.83-19.59c0,0-2.99,0.17-4.89,0.68c-0.01,4.62-0.52,9.98-0.52,9.98s1.38,8.29-1.9,6.31
						C383.09,249.06,384.42,256.69,387.74,257.28z"/>
					<path class="st2" d="M407.9,291.74c-1.26-1.26,3.14,15.51,4.8,25.65c1.18-1.87,2.98-3.19,4.69-8.08
						c2.06-5.9,7-22.32,7.71-24.68c-0.81,0.09-1.71,0.41-2.72,1.06C416.7,289.36,409.55,293.39,407.9,291.74z"/>
					<path class="st2" d="M513.78,253.58c-2.33,0.42-6.8,3.14-9.7,2.61c-8.75-1.59-25.93-9.54-39.92-8.75
						c-14,0.8-16.38,4.29-26.56,4.29s-14.79,2.86-22.27-3.02c0,0-0.16-0.92-0.62-2.36c-11.19-2.57-12.68,3.2-12.54,7.3
						c0.06,1.91,0.48,3.47,0.42,3.63c0,0,1.56,28.85,5.32,34.46c0.18,0.18,0.43,0.27,0.72,0.33c2.45,0.45,8.69-3.1,13.76-6.38
						c1.01-0.65,1.91-0.97,2.72-1.06c0.06-0.19,0.09-0.29,0.09-0.29s10.34,0.32,20.2,0.32c9.86,0,10.66-2.39,14.32-0.64
						c3.66,1.75,10.66,3.34,19.56,0.64c5.82-1.77,20.93-2.04,30.15-3.71c4.35-0.79,6.93-3.28,7.45-3.82c0.06-0.07,0.1-0.11,0.1-0.11
						s-4.56-15.68,1.71-22.61c0.35-0.39,0.73-0.76,1.15-1.08C519.82,253.33,518.46,252.74,513.78,253.58z"/>
					<path class="st10" d="M407.9,291.74c0,0,2.15,23.71-7.38,23.71"/>
					<path class="st10" d="M403.69,273.92l-12.25,4.61c0,0,4.61,28.85,5.58,29.46c0.97,0.61,5.29,2.85,6.67-2.3
						c2.42-9.09-3.03-30.55-3.03-30.55"/>
					<path class="st10" d="M432.05,384.84c0,0,3.74-0.66,4.62-3.74c0,0,0.22,3.96,0.88,4.18"/>
					<g>
						<path class="st2" d="M382.57,243.73c-0.06-0.03-0.11-0.06-0.17-0.11c-0.97-0.66-1.48-2.22-1.78-4.13
							c-0.55,0.71-1.18,1.5-1.85,2.33c0.24,3.31,0.37,8.08-0.5,10.7c-1.43,4.29-11.93,15.91-26.72,7c-6.29-3.79-9.36-7.23-10.8-9.94
							c-0.11,0.03-0.21,0.06-0.33,0.08c-1.62,0.17-2.91-3.5-3.84-8.45c-1.98,3.15-4.43,6.74-5.46,8.23
							c-3.79,13.56-11.27,39.01-16.93,50.3c2.46,1.5,6.39,4.55,10.85,7.61c3.79-0.4,6.63,0.62,8.53,2.19
							c1.53,1.26,2.47,2.87,2.8,4.38c2.83,1.23,5.57,2.02,8.04,2.02c0.32,0,0.67,0,1.03-0.01c0.32-1.3,0.65-2.31,0.85-2.71
							c0.36-0.72,2.03-0.62,3.82-0.28c2.37,0.45,4.95,1.33,4.95,1.33c0.05,0.24,0.11,0.49,0.16,0.75c0.03,0.15,0.06,0.31,0.09,0.47
							c13.03-0.89,31.16-3.1,37.13-6.69c0.31-0.19,0.6-0.38,0.84-0.58c0,0,0.18,0.12,0.46,0.33c-1.53-11.66-4.55-37.59-6.13-51.3
							C384.39,256.49,383.09,248.99,382.57,243.73z"/>
						<path class="st2" d="M407.9,291.74c-3.76-5.61-5.32-34.46-5.32-34.46c-0.16,0.49-7.73,0.83-13.01,0.25
							c-0.65-0.07-1.27-0.15-1.83-0.25c-0.02,0-0.04-0.01-0.06-0.02c-0.02,0-0.04-0.01-0.06-0.02c1.58,13.71,4.59,39.64,6.13,51.3
							c0.05,0.04,0.11,0.08,0.17,0.13c1.04,0.78,3.15,2.46,4.73,4.37c1.11,1.35,1.95,2.8,1.95,4.14c0,2.28-0.69,6.63-1.28,9.91
							c1.33-0.54,4.01-1.68,6.57-3.03c2.85-1.5,5.52-3.27,5.94-4.75c0.22-0.77,0.52-1.38,0.88-1.94
							C411.03,307.25,406.64,290.48,407.9,291.74z"/>
					</g>
					<path class="st2" d="M397.75,265.43c0,0-6.18-2.18-5.58,4c0.45,4.54,3.71,4.49,5.94,2.91
						C400.17,270.89,400.66,266.89,397.75,265.43z"/>
				</g>
				<g>
					<path class="st11" d="M376.83,242.6c-4.13,5.1-10.18,11.86-13.07,11.66c-3.34-0.23-15.58-6.71-22.28-11.84
						c-0.33-0.26-0.65-0.51-0.96-0.76c0.04,0.41,0.07,0.82,0.09,1.23c0.22,3.57-0.07,6.92-1.81,7.47c1.45,2.71,4.51,6.15,10.8,9.94
						c14.79,8.91,25.29-2.7,26.72-7C377.2,250.68,377.06,245.91,376.83,242.6z"/>
					<path class="st12" d="M382.88,229.4c0.01-2.67-0.15-5.1-0.68-6.09c-1.13-2.13-3.18-19.56-21.95-21
						c-18.77-1.43-26.4,12.72-27.36,17.02c-0.26,1.17-0.31,4.16-0.15,7.86c0.43,9.84,2.32,24.78,5.55,24.43
						c0.12-0.01,0.22-0.04,0.33-0.08c1.74-0.55,2.03-3.91,1.81-7.47c-0.02-0.41-0.06-0.82-0.09-1.23c-0.37-4.1-1.26-8.08-1.26-8.08
						c7.81,2.01,22.05-2.58,30.4-4.87c2.87-0.79,5.05-1.3,6.03-1.18c0.73,0.09,1.22,0.67,1.57,1.57c0.98,2.51,0.83,7.49,1.42,11.16
						c0.31,1.91,0.81,3.47,1.78,4.13c3.5,2.39,2.07-6.2,2.07-6.2S382.87,234.02,382.88,229.4z"/>
					<path class="st13" d="M366.71,237.89c-3.34-0.21-5.22-3.13-5.22-3.13l-5.85,5.22c-5.27,2.45-11.83,0.23-16.36-2.03
						c0.08,0.64,0.16,1.3,0.21,1.96c0.31,0.25,0.62,0.5,0.96,0.76c6.7,5.13,18.94,11.61,22.28,11.84c2.88,0.2,8.93-6.56,13.07-11.66
						c0.68-0.84,1.3-1.62,1.85-2.33c-0.2-1.26-0.32-2.68-0.42-4.09C373.44,236.1,368.61,238.01,366.71,237.89z"/>
					<path class="st11" d="M356.5,242.91l5.85-5.22c0,0,1.88,2.92,5.22,3.13c1.91,0.12,6.73-1.8,10.52-3.47
						c-0.2-2.71-0.35-5.42-1-7.06c-0.35-0.9-0.85-1.48-1.57-1.57c-0.98-0.12-3.16,0.39-6.03,1.18c-8.35,2.29-22.59,6.88-30.4,4.87
						c0,0,0.62,2.8,1.04,6.12C344.66,243.14,351.23,245.37,356.5,242.91z"/>
					<path class="st11" d="M292.65,312.54c6.06-6.29,12.83-7.81,16.68-8.17l-1.93-2.77c-0.33-0.4-0.6-0.86-0.83-1.36
						c-5,0.76-12.4,3.05-20.44,10.07c-13.84,12.09,0.48,16.38,0.48,16.38l0.88,0.35C289,323.14,285.43,320.03,292.65,312.54z"/>
					<path class="st12" d="M361.06,349.81c-3.13,0.33-6.66,0.45-10.67,0.27c-5.55-0.25-10.49-1.73-14.85-3.91l-3.28,5.18
						c0,0-2.67,0.77-6.71,1.86c2.76,4.85,5.77,9.17,7.21,8.02c3.02-2.42,9.97-4.23,9.97-4.23c8.95-0.88,15.72-2.62,20.84-4.66
						C362.63,351.53,361.78,350.68,361.06,349.81z"/>
					<path class="st12" d="M324.34,338.17c-6.01-5.74-9.95-12.12-11.8-15.6c-0.65-1.22-1.07-2.43-1.34-3.59
						c-1.32-5.65,1.18-10.25,1.18-10.25l-3.04-4.35c-3.85,0.36-10.62,1.88-16.68,8.17c-7.22,7.49-3.65,10.59-5.17,14.51
						c-0.29,0.74-0.75,1.51-1.51,2.35c-4.77,5.25-4.93,11.77-3.02,19.72c1.91,7.95,0.64,13.04,14.47,10.66
						c8.91-1.54,20.79-4.59,28.12-6.57c4.05-1.09,6.71-1.86,6.71-1.86l3.28-5.18C331.22,344.02,327.49,341.18,324.34,338.17z"/>
					<path class="st11" d="M231.3,239.29c0.24-3.15,1.37-5.18,2.77-6.59c-4.66-3.19-12.18-6.85-17.1-1.67c0,0-1.44,1.7,2.87,3.4
						c0,0-15.93,1.44-15.93,7.18c0,0,0.91,3,3.66,2.87c0,0-4.05,2.22-2.35,3.79c1.7,1.57,6.4,0.91,6.4,0.91s-5.22,3.79-2.48,4.96
						c2.74,1.18,8.1-0.91,8.1-0.91s-4.83,2.09-3.13,4.18c1.7,2.09,1.44,3.79,5.75,2.09c2.82-1.11,9.6-5.51,13.96-8.43
						C230.41,248.03,230.95,243.87,231.3,239.29z"/>
					<path class="st11" d="M424.5,381.97l-0.73,1.58c0,0,8.88,3.66,14.63,8.36c2.88,2.35,10.71,9.4,10.71,9.4
						c10.32,3.92,15.15-0.39,14.89-8.75s-23.51-21.55-27.82-23.25c-1.29-0.51-2.17-0.54-2.77-0.35
						C433.71,373.02,431.69,381.25,424.5,381.97z"/>
					<path class="st12" d="M432.56,371.21c-0.07-0.97-0.28-1.71-0.58-2.04c-1.75-1.91-2.54-2.54-5.25-11.61
						c-2.7-9.07-9.07-8.11-13.68-10.66c-4.61-2.54-3.66-10.5-4.77-16.22c-0.43-2.23-2.34-3.69-4.51-4.64
						c-3.57,1.89-7.42,3.37-7.42,3.37s-5.57,8.91-11.13,11.45c-2.88,1.32-6.36,3.99-12.01,6.14c-3.24,1.23-7.19,2.29-12.16,2.81
						c0.73,0.87,1.57,1.72,2.51,2.54c8.1,7.07,23.2,12.23,30.25,17.94c9.23,7.48,13.68,10.97,26.09,13.68
						c1.39,0.3,2.64,0.37,3.76,0.25C430.85,383.5,432.87,375.27,432.56,371.21z"/>
					<path class="st11" d="M544.9,255.65c1.17-0.21,5.11-0.64,5.11-0.64c2.98-1.49,0-5.32-6.28-7.14s-14.91,6.82-15.44,6.92
						c-0.53,0.11,0.32-2.45,0.32-5.75s-3.94-1.17-6.07,1.7c-2.13,2.88,0.11,5.96-2.45,5.75c-1.04-0.09-2.34-0.12-3.52-0.13
						c-6.27,6.93-1.71,22.61-1.71,22.61s-0.04,0.04-0.1,0.11c4.73,1.27,12.73-4.11,13.75-4.7c1.28-0.75,8.84,1.6,13.21-0.32
						c4.37-1.92,1.06-3.83-1.28-5.01c-2.34-1.17-7.03-1.49-7.03-1.49c1.28-2.88,13.84-1.06,15.76-3.09
						c1.92-2.02-3.73-3.94-3.73-3.94s2.77,0.32,4.79-1.6S544.9,255.65,544.9,255.65z"/>
					<path class="st1" d="M388.04,259.42c0,0-5.85,9.61-3.76,16.29s3.55,22.77,3.97,27.78c0.42,5.01,2.92,6.68,2.92,6.68"/>
					<path class="st1" d="M358.79,264.64c0,0-0.42,7.73-4.18,13.79s-5.64,33.63-2.51,37.6"/>
					<path class="st11" d="M322.94,309.33c0.09-0.01,0.17-0.01,0.26-0.02c-5.05-3.46-9.42-6.91-11.75-8.12
						c-1.84-0.96-3.28-0.95-4.39-0.54c0.18,0.34,0.38,0.67,0.62,0.96l1.93,2.77l3.04,4.35c0,0,9.03,6.67,11.75,7.71L322.94,309.33z"
						/>
					<path class="st12" d="M396.49,314.89c-1.31,0.64-23.08,11.07-42.44,9.63c0.02,2.01-0.28,3.72-1.1,4.66
						c-1.6,1.83-5.74,0.02-7.94,0.02c-2.6,0.01-2.88-3.6-2.47-7.18l-8.95-2.47c-0.49,0.56-1.22,0.91-2.18,0.91
						c-5.85,0.02-7.32-3.95-7.32-3.95c-2.72-1.04-11.77-7.68-11.77-7.68s-2.49,4.6-1.16,10.25c0.27,1.16,0.7,2.37,1.35,3.59
						c1.87,3.48,5.82,9.84,11.85,15.57c3.17,3.01,6.9,5.83,11.22,7.97c4.37,2.17,9.32,3.64,14.86,3.87
						c4.01,0.17,7.54,0.04,10.67-0.3c4.97-0.54,8.91-1.61,12.15-2.85c5.65-2.16,9.12-4.85,11.99-6.17
						c5.56-2.56,11.1-11.48,11.1-11.48s0.32-0.12,0.85-0.34c0.58-3.29,1.26-7.64,1.25-9.92
						C398.45,317.69,397.6,316.24,396.49,314.89z"/>
					<path class="st11" d="M391.4,310.07c-4.87,3.95-24.24,6.4-37.95,7.37c0.47,2.32,0.86,4.88,0.88,7.08
						c19.37,1.44,41.13-8.99,42.44-9.63C394.6,312.26,391.4,310.07,391.4,310.07z"/>
					<path class="st11" d="M342.57,317.9c-2.47,0-5.21-0.79-8.04-2.02c0.32,1.44,0.11,2.77-0.63,3.61l8.94,2.49
						c0.17-1.45,0.46-2.9,0.76-4.1C343.24,317.9,342.9,317.9,342.57,317.9z"/>
					<path class="st12" d="M297.48,242.12c0,0-2.96,0.9-3.86-1.55c0,0-1.42-4.64-4.76-5.02c-3.35-0.39-4.76-0.64-8.76-2.19
						c-3.99-1.55-4.38-2.58-8.63-2.19c-4.25,0.39-30-2.83-32.58-1.55c-1.36,0.68-3.26,1.48-4.83,3.06
						c-1.39,1.41-2.52,3.44-2.77,6.59c-0.35,4.58-0.88,8.75,2.49,11.78c1.56,1.4,3.94,2.56,7.55,3.41
						c11.46,2.7,19.44,5.02,21.25,7.08c1.8,2.06,11.72,1.16,14.04,3.22c2.32,2.06,7.08,6.7,12.23,5.79
						c5.15-0.9,8.63-2.45,11.97,1.67c2.61,3.21,6.22,6.18,7.6,7.47l11.55-38.69L297.48,242.12z"/>
					<path class="st11" d="M328.51,252.1l-7.94-2.3l0.73-8.85l-1.32,0.06l-11.55,38.69c0.39,0.37-0.11-0.26,0,0
						c0,0-4.88,13.99-1.86,20.53c0.07,0.14,0.14,0.27,0.21,0.41c1.11-0.41,2.55-0.42,4.39,0.54c0.27,0.14,0.57,0.32,0.89,0.51
						c5.66-11.29,13.14-36.74,16.93-50.3C328.69,251.84,328.51,252.1,328.51,252.1z"/>
					<path class="st12" d="M328.51,252.1c0,0,3.38-4.84,5.95-8.93c-0.92-4.91-1.5-11.07-1.71-15.97
						c-1.95,0.73-10.42,4.43-11.44,13.76l-0.73,8.85L328.51,252.1z"/>
					<path class="st12" d="M385.63,259.24c5.13,0.92,14.66,0.55,14.85,0c0.17-0.52-4.3-14.7,12.12-10.93
						c-1.71-5.46-7.61-18.58-24.83-19.59c0,0-2.99,0.17-4.89,0.68c-0.01,4.62-0.52,9.98-0.52,9.98s1.38,8.29-1.9,6.31
						C380.99,251.01,382.31,258.65,385.63,259.24z"/>
					<path class="st11" d="M405.79,293.7c-1.26-1.26,3.14,15.51,4.8,25.65c1.18-1.87,2.98-3.19,4.69-8.08
						c2.06-5.9,7-22.32,7.71-24.68c-0.81,0.09-1.71,0.41-2.72,1.06C414.59,291.32,407.44,295.35,405.79,293.7z"/>
					<path class="st12" d="M511.67,255.54c-2.33,0.42-6.8,3.14-9.7,2.61c-8.75-1.59-25.93-9.54-39.92-8.75
						c-14,0.8-16.38,4.29-26.56,4.29s-14.79,2.86-22.27-3.02c0,0-0.16-0.92-0.62-2.36c-11.19-2.57-12.68,3.2-12.54,7.3
						c0.06,1.91,0.48,3.47,0.42,3.63c0,0,1.56,28.85,5.32,34.46c0.18,0.18,0.43,0.27,0.72,0.33c2.45,0.45,8.69-3.1,13.76-6.38
						c1.01-0.65,1.91-0.97,2.72-1.06c0.06-0.19,0.09-0.29,0.09-0.29s10.34,0.32,20.2,0.32c9.86,0,10.66-2.39,14.32-0.64
						c3.66,1.75,10.66,3.34,19.56,0.64c5.82-1.77,20.93-2.04,30.15-3.71c4.35-0.79,6.93-3.28,7.45-3.82c0.06-0.07,0.1-0.11,0.1-0.11
						s-4.56-15.68,1.71-22.61c0.35-0.39,0.73-0.76,1.15-1.08C517.71,255.28,516.35,254.69,511.67,255.54z"/>
					<path class="st1" d="M405.79,293.7c0,0,2.15,23.71-7.38,23.71"/>
					<path class="st1" d="M401.58,275.88l-12.25,4.61c0,0,4.61,28.85,5.58,29.46s5.29,2.85,6.67-2.3
						c2.42-9.09-3.03-30.55-3.03-30.55"/>
					<path class="st1" d="M429.94,386.8c0,0,3.74-0.66,4.62-3.74c0,0,0.22,3.96,0.88,4.18"/>
					<g>
						<path class="st12" d="M380.46,245.69c-0.06-0.03-0.11-0.06-0.17-0.11c-0.97-0.66-1.48-2.22-1.78-4.13
							c-0.55,0.71-1.18,1.5-1.85,2.33c0.24,3.31,0.37,8.08-0.5,10.7c-1.43,4.29-11.93,15.91-26.72,7c-6.29-3.79-9.36-7.23-10.8-9.94
							c-0.11,0.03-0.21,0.06-0.33,0.08c-1.62,0.17-2.91-3.5-3.84-8.45c-1.98,3.15-4.43,6.74-5.46,8.23
							c-3.79,13.56-11.27,39.01-16.93,50.3c2.46,1.5,6.39,4.55,10.85,7.61c3.79-0.4,6.63,0.62,8.53,2.19
							c1.53,1.26,2.47,2.87,2.8,4.38c2.83,1.23,5.57,2.02,8.04,2.02c0.32,0,0.67,0,1.03-0.01c0.32-1.3,0.65-2.31,0.85-2.71
							c0.36-0.72,2.03-0.62,3.82-0.28c2.37,0.45,4.95,1.33,4.95,1.33c0.05,0.24,0.11,0.49,0.16,0.75c0.03,0.15,0.06,0.31,0.09,0.47
							c13.03-0.89,31.16-3.1,37.13-6.69c0.31-0.19,0.6-0.38,0.84-0.58c0,0,0.18,0.12,0.46,0.33c-1.53-11.66-2.87-37.45-4.45-51.17
							C383.96,258.58,380.98,250.95,380.46,245.69z"/>
						<path class="st11" d="M405.79,293.7c-3.76-5.61-5.35-35.72-5.35-35.72c-0.16,0.49-6.49,0.06-11.77-0.52
							c-0.65-0.07-2.37-0.29-2.39-0.3c-0.02,0-1.22,9.02-0.91,13.16c0.17,2.2,1.35,4.13,1.54,5.81c1.57,13.48,3.59,25.79,4.72,34.37
							c0.05,0.04,0.11,0.08,0.17,0.13c1.04,0.78,3.15,2.46,4.73,4.37c1.11,1.35,1.95,2.8,1.95,4.14c0,2.28-0.69,6.63-1.28,9.91
							c1.33-0.54,4.01-1.68,6.57-3.03c2.85-1.5,5.52-3.27,5.94-4.75c0.22-0.77,0.52-1.38,0.88-1.94
							C408.93,309.21,404.53,292.44,405.79,293.7z"/>
					</g>
					<path class="st4" d="M395.64,267.39c0,0-6.18-2.18-5.58,4c0.45,4.54,3.71,4.49,5.94,2.91
						C398.06,272.85,398.55,268.84,395.64,267.39z"/>
					<path class="st4" d="M334.82,314.76c-0.34-1.51-1.27-3.12-2.8-4.38c-1.91-1.57-4.74-2.59-8.53-2.19
						c-0.09,0.01-0.17,0.01-0.26,0.02l1.46,7.1c0,0,1.46,3.97,7.31,3.97c0.96,0,1.69-0.35,2.19-0.91
						C334.92,317.53,335.14,316.2,334.82,314.76z"/>
					<path class="st4" d="M353.76,316.04c-0.03-0.16-0.06-0.31-0.09-0.47c-0.05-0.25-0.11-0.5-0.16-0.75c0,0-2.58-0.88-4.95-1.33
						c-1.79-0.34-3.47-0.43-3.82,0.28c-0.2,0.4-0.53,1.41-0.85,2.71c-0.3,1.2-0.59,2.64-0.76,4.1c-0.43,3.58-0.16,7.19,2.45,7.19
						c2.2,0,6.33,1.82,7.94,0c0.83-0.94,1.13-2.65,1.12-4.66C354.61,320.91,354.23,318.36,353.76,316.04z"/>
				</g>
				<g>
					<path class="st1" d="M377.86,241.74c-4.13,5.1-10.18,11.86-13.07,11.66c-3.34-0.23-15.58-6.71-22.28-11.84
						c-0.33-0.26-0.65-0.51-0.96-0.76c0.04,0.41,0.07,0.82,0.09,1.23c0.22,3.57-0.07,6.92-1.81,7.47c1.45,2.71,4.51,6.15,10.8,9.94
						c14.79,8.91,25.29-2.7,26.72-7C378.24,249.82,378.1,245.05,377.86,241.74z"/>
					<path class="st1" d="M384.09,227.36c0.01-2.67-0.15-5.1-0.68-6.09c-1.13-2.13-3.18-19.56-21.95-21
						c-18.77-1.43-26.4,12.72-27.36,17.02c-0.26,1.17-0.31,4.16-0.15,7.86c0.43,9.84,2.32,24.78,5.55,24.43
						c0.12-0.01,0.22-0.04,0.33-0.08c1.74-0.55,2.03-3.91,1.81-7.47c-0.02-0.41-0.06-0.82-0.09-1.23c-0.37-4.1-1.26-8.08-1.26-8.08
						c7.81,2.01,22.05-2.58,30.4-4.87c2.87-0.79,5.05-1.3,6.03-1.18c0.73,0.09,1.22,0.67,1.57,1.57c0.98,2.51,0.83,7.49,1.42,11.16
						c0.31,1.91,0.81,3.47,1.78,4.13c3.5,2.39,2.07-6.2,2.07-6.2S384.08,231.98,384.09,227.36z"/>
					<g>
						<path class="st1" d="M368.77,238.78c-3.34-0.21-5.22-3.13-5.22-3.13l-5.85,5.22c-5.27,2.45-11.83,0.23-16.36-2.03
							c0.08,0.64,0.16,1.3,0.21,1.96c0.31,0.25,0.62,0.5,0.96,0.76c6.7,5.13,18.94,11.61,22.28,11.84
							c2.88,0.2,8.93-6.56,13.07-11.66c0.68-0.84,1.3-1.62,1.85-2.33c-0.2-1.26-0.32-2.68-0.42-4.09
							C375.5,236.99,370.68,238.9,368.77,238.78z"/>
						<path class="st1" d="M357.7,240.87l5.85-5.22c0,0,1.88,2.92,5.22,3.13c1.91,0.12,6.73-1.8,10.52-3.47
							c-0.2-2.71-0.35-5.42-1-7.06c-0.35-0.9-0.85-1.48-1.57-1.57c-0.98-0.12-3.16,0.39-6.03,1.18c-8.35,2.29-22.59,6.88-30.4,4.87
							c0,0,0.62,2.8,1.04,6.12C345.87,241.1,352.43,243.33,357.7,240.87z"/>
					</g>
					<path class="st1" d="M293.86,310.5c6.06-6.29,12.83-7.81,16.68-8.17l-1.93-2.77c-0.33-0.4-0.6-0.86-0.83-1.36
						c-5,0.76-12.4,3.05-20.44,10.07c-13.84,12.09,0.48,16.38,0.48,16.38l0.88,0.35C290.21,321.1,286.64,317.99,293.86,310.5z"/>
					<path class="st1" d="M362.26,347.77c-3.13,0.33-6.66,0.45-10.67,0.27c-5.55-0.25-10.49-1.73-14.85-3.91l-3.28,5.18
						c0,0-2.67,0.77-6.71,1.86c2.76,4.85,5.77,9.17,7.21,8.02c3.02-2.42,9.97-4.23,9.97-4.23c8.95-0.88,15.72-2.62,20.84-4.66
						C363.83,349.48,362.99,348.64,362.26,347.77z"/>
					<path class="st1" d="M325.54,336.13c-6.01-5.74-9.95-12.12-11.8-15.6c-0.65-1.22-1.07-2.43-1.34-3.59
						c-1.32-5.65,1.18-10.25,1.18-10.25l-3.04-4.35c-3.85,0.36-10.62,1.88-16.68,8.17c-7.22,7.49-3.65,10.59-5.17,14.51
						c-0.29,0.74-0.75,1.51-1.51,2.35c-4.77,5.25-4.93,11.77-3.02,19.72c1.91,7.95,0.64,13.04,14.47,10.66
						c8.91-1.54,20.79-4.59,28.12-6.57c4.05-1.09,6.71-1.86,6.71-1.86l3.28-5.18C332.43,341.98,328.7,339.14,325.54,336.13z"/>
					<path class="st1" d="M232.51,237.25c0.24-3.15,1.37-5.18,2.77-6.59c-4.66-3.19-12.18-6.85-17.1-1.67c0,0-1.44,1.7,2.87,3.4
						c0,0-15.93,1.44-15.93,7.18c0,0,0.91,3,3.66,2.87c0,0-4.05,2.22-2.35,3.79c1.7,1.57,6.4,0.91,6.4,0.91s-5.22,3.79-2.48,4.96
						c2.74,1.18,8.1-0.91,8.1-0.91s-4.83,2.09-3.13,4.18c1.7,2.09,1.44,3.79,5.75,2.09c2.82-1.11,9.6-5.51,13.96-8.43
						C231.62,245.99,232.15,241.83,232.51,237.25z"/>
					<path class="st1" d="M424.87,382.17l-0.73,1.58c0,0,8.88,3.66,14.63,8.36c2.88,2.35,10.71,9.4,10.71,9.4
						c10.32,3.92,15.15-0.39,14.89-8.75s-23.51-21.55-27.82-23.25c-1.29-0.51-2.17-0.54-2.77-0.35
						C434.07,373.22,432.06,381.46,424.87,382.17z"/>
					<path class="st1" d="M433.77,369.17c-0.07-0.97-0.28-1.71-0.58-2.04c-1.75-1.91-2.54-2.54-5.25-11.61
						c-2.7-9.07-9.07-8.11-13.68-10.66c-4.61-2.54-3.66-10.5-4.77-16.22c-0.43-2.23-2.34-3.69-4.51-4.64
						c-3.57,1.89-7.42,3.37-7.42,3.37s-5.57,8.91-11.13,11.45c-2.88,1.32-6.36,3.99-12.01,6.14c-3.24,1.23-7.19,2.29-12.16,2.81
						c0.73,0.87,1.57,1.72,2.51,2.54c8.1,7.07,23.2,12.23,30.25,17.94c9.23,7.48,13.68,10.97,26.09,13.68
						c1.39,0.3,2.64,0.37,3.76,0.25C432.06,381.46,434.07,373.22,433.77,369.17z"/>
					<path class="st1" d="M546.1,253.6c1.17-0.21,5.11-0.64,5.11-0.64c2.98-1.49,0-5.32-6.28-7.14s-14.91,6.82-15.44,6.92
						c-0.53,0.11,0.32-2.45,0.32-5.75s-3.94-1.17-6.07,1.7c-2.13,2.88,0.11,5.96-2.45,5.75c-1.04-0.09-2.34-0.12-3.52-0.13
						c-6.27,6.93-1.71,22.61-1.71,22.61s-0.04,0.04-0.1,0.11c4.73,1.27,12.73-4.11,13.75-4.7c1.28-0.75,8.84,1.6,13.21-0.32
						c4.37-1.92,1.06-3.83-1.28-5.01c-2.34-1.17-7.03-1.49-7.03-1.49c1.28-2.88,13.84-1.06,15.76-3.09
						c1.92-2.02-3.73-3.94-3.73-3.94s2.77,0.32,4.79-1.6C553.45,254.99,546.1,253.6,546.1,253.6z"/>
					<path class="st1" d="M389.24,257.37c0,0-5.85,9.61-3.76,16.29c2.09,6.68,3.55,22.77,3.97,27.78c0.42,5.01,2.92,6.68,2.92,6.68"
						/>
					<path class="st1" d="M360,262.6c0,0-0.42,7.73-4.18,13.79s-5.64,33.63-2.51,37.6"/>
					<path class="st1" d="M323.87,307.29c0.09-0.01,0.17-0.01,0.26-0.02c-5.05-3.46-9.42-6.91-11.75-8.12
						c-1.84-0.96-3.28-0.95-4.39-0.54c0.18,0.34,0.38,0.67,0.62,0.96l1.93,2.77l3.04,4.35c0,0,9.03,6.67,11.75,7.71L323.87,307.29z"
						/>
					<path class="st1" d="M397.74,312.97c-1.31,0.64-23.11,11.01-42.47,9.51c0.01,2.01-0.29,3.72-1.12,4.66
						c-1.61,1.82-5.74,0-7.94,0c-2.6,0-2.87-3.61-2.45-7.19l-8.94-2.49c-0.5,0.56-1.22,0.91-2.19,0.91c-5.85,0-7.31-3.97-7.31-3.97
						c-2.72-1.04-11.75-7.71-11.75-7.71s-2.5,4.6-1.18,10.25c0.27,1.16,0.69,2.37,1.34,3.59c1.86,3.48,5.79,9.86,11.8,15.6
						c3.16,3.01,6.89,5.85,11.2,8.01c4.36,2.18,9.31,3.66,14.85,3.91c4.01,0.18,7.54,0.06,10.67-0.27
						c4.97-0.53,8.92-1.58,12.16-2.81c5.65-2.15,9.13-4.82,12.01-6.14c5.57-2.54,11.13-11.45,11.13-11.45s0.32-0.12,0.85-0.34
						c0.59-3.29,1.28-7.63,1.28-9.91C399.69,315.77,398.85,314.31,397.74,312.97z"/>
					<path class="st1" d="M392.38,308.13c-4.88,3.94-24.26,6.33-37.97,7.27c0.47,2.32,0.85,4.88,0.86,7.08
						c19.36,1.49,41.16-8.88,42.47-9.51C395.57,310.33,392.38,308.13,392.38,308.13z"/>
					<path class="st1" d="M343.5,315.86c-2.47,0-5.21-0.79-8.04-2.02c0.32,1.44,0.11,2.77-0.63,3.61l8.94,2.49
						c0.17-1.45,0.46-2.9,0.76-4.1C344.17,315.86,343.82,315.86,343.5,315.86z"/>
					<path class="st1" d="M335.46,313.84c-0.34-1.51-1.27-3.12-2.8-4.38c-1.91-1.57-4.74-2.59-8.53-2.19
						c-0.09,0.01-0.17,0.01-0.26,0.02l1.46,7.1c0,0,1.46,3.97,7.31,3.97c0.96,0,1.69-0.35,2.19-0.91
						C335.57,316.61,335.78,315.28,335.46,313.84z"/>
					<path class="st1" d="M354.41,315.4c-0.03-0.16-0.06-0.31-0.09-0.47c-0.05-0.25-0.11-0.5-0.16-0.75c0,0-2.58-0.88-4.95-1.33
						c-1.79-0.34-3.47-0.43-3.82,0.28c-0.2,0.4-0.53,1.41-0.85,2.71c-0.3,1.2-0.59,2.64-0.76,4.1c-0.43,3.58-0.16,7.19,2.45,7.19
						c2.2,0,6.33,1.82,7.94,0c0.83-0.94,1.13-2.65,1.12-4.66C355.26,320.28,354.87,317.72,354.41,315.4z"/>
					<path class="st1" d="M298.69,240.08c0,0-2.96,0.9-3.86-1.55c0,0-1.42-4.64-4.76-5.02c-3.35-0.39-4.76-0.64-8.76-2.19
						c-3.99-1.55-4.38-2.58-8.63-2.19c-4.25,0.39-30-2.83-32.58-1.55c-1.36,0.68-3.26,1.48-4.83,3.06
						c-1.39,1.41-2.52,3.44-2.77,6.59c-0.35,4.58-0.88,8.75,2.49,11.78c1.56,1.4,3.94,2.56,7.55,3.41
						c11.46,2.7,19.44,5.02,21.25,7.08c1.8,2.06,11.72,1.16,14.04,3.22c2.32,2.06,7.08,6.7,12.23,5.79
						c5.15-0.9,8.63-2.45,11.97,1.67c2.61,3.21,6.22,6.18,7.6,7.47l11.55-38.69L298.69,240.08z"/>
					<path class="st1" d="M329.72,250.06l-7.94-2.3l0.73-8.85l-1.32,0.06l-11.55,38.69c0.39,0.37-0.11-0.26,0,0
						c0,0-4.88,13.99-1.86,20.53c0.07,0.14,0.14,0.27,0.21,0.41c1.11-0.41,2.55-0.42,4.39,0.54c0.27,0.14,0.57,0.32,0.89,0.51
						c5.66-11.29,13.14-36.74,16.93-50.3C329.9,249.8,329.72,250.06,329.72,250.06z"/>
					<path class="st1" d="M329.72,250.06c0,0,3.38-4.84,5.95-8.93c-0.92-4.91-1.5-11.07-1.71-15.97
						c-1.95,0.73-10.42,4.43-11.44,13.76l-0.73,8.85L329.72,250.06z"/>
					<path class="st1" d="M386.84,257.2c5.13,0.92,14.66,0.55,14.85,0c0.17-0.52-4.3-14.7,12.12-10.93
						c-1.71-5.46-7.61-18.58-24.83-19.59c0,0-2.99,0.17-4.89,0.68c-0.01,4.62-0.52,9.98-0.52,9.98s1.38,8.29-1.9,6.31
						C382.19,248.97,383.52,256.61,386.84,257.2z"/>
					<path class="st1" d="M407,291.66c-1.26-1.26,3.14,15.51,4.8,25.65c1.18-1.87,2.98-3.19,4.69-8.08c2.06-5.9,7-22.32,7.71-24.68
						c-0.81,0.09-1.71,0.41-2.72,1.06C415.8,289.28,408.65,293.31,407,291.66z"/>
					<path class="st1" d="M388.67,257.45c-0.65-0.07-1.27-0.15-1.83-0.25c-3.32-0.59-4.64-8.23-5.17-13.55
						c-0.06-0.03-0.11-0.06-0.17-0.11c-0.97-0.66-1.48-2.22-1.78-4.13c-0.55,0.71-1.18,1.5-1.85,2.33c0.24,3.31,0.37,8.08-0.5,10.7
						c-1.43,4.29-11.93,15.91-26.72,7c-6.29-3.79-9.36-7.23-10.8-9.94c-0.11,0.03-0.21,0.06-0.33,0.08
						c-1.62,0.17-2.91-3.5-3.84-8.45c-1.98,3.15-4.43,6.74-5.46,8.23c-3.79,13.56-11.27,39.01-16.93,50.3
						c2.46,1.5,6.39,4.55,10.85,7.61c3.79-0.4,6.63,0.62,8.53,2.19c1.53,1.26,2.47,2.87,2.8,4.38c2.83,1.23,5.57,2.02,8.04,2.02
						c0.32,0,0.67,0,1.03-0.01c0.32-1.3,0.65-2.31,0.85-2.71c0.36-0.72,2.03-0.62,3.82-0.28c2.37,0.45,4.95,1.33,4.95,1.33
						c0.05,0.24,0.11,0.49,0.16,0.75c0.03,0.15,0.06,0.31,0.09,0.47c13.03-0.89,31.16-3.1,37.13-6.69c0.31-0.19,0.6-0.38,0.84-0.58
						c0,0,3.2,2.2,5.36,4.84c1.11,1.35,1.95,2.8,1.95,4.14c0,2.28-0.69,6.63-1.28,9.91c1.33-0.54,4.01-1.68,6.57-3.03
						c2.85-1.5,5.52-3.27,5.94-4.75c0.22-0.77,0.52-1.38,0.88-1.94c-1.67-10.14-6.06-26.91-4.8-25.65
						c-3.76-5.61-5.32-34.46-5.32-34.46C401.52,257.69,393.95,258.03,388.67,257.45z"/>
					<path class="st1" d="M512.88,253.5c-2.33,0.42-6.8,3.14-9.7,2.61c-8.75-1.59-25.93-9.54-39.92-8.75
						c-14,0.8-16.38,4.29-26.56,4.29s-14.79,2.86-22.27-3.02c0,0-0.16-0.92-0.62-2.36c-11.19-2.57-12.68,3.2-12.54,7.3
						c0.06,1.91,0.48,3.47,0.42,3.63c0,0,1.56,28.85,5.32,34.46c0.18,0.18,0.43,0.27,0.72,0.33c2.45,0.45,8.69-3.1,13.76-6.38
						c1.01-0.65,1.91-0.97,2.72-1.06c0.06-0.19,0.09-0.29,0.09-0.29s10.34,0.32,20.2,0.32c9.86,0,10.66-2.39,14.32-0.64
						c3.66,1.75,10.66,3.34,19.56,0.64c5.82-1.77,20.93-2.04,30.15-3.71c4.35-0.79,6.93-3.28,7.45-3.82c0.06-0.07,0.1-0.11,0.1-0.11
						s-4.56-15.68,1.71-22.61c0.35-0.39,0.73-0.76,1.15-1.08C518.92,253.24,517.56,252.65,512.88,253.5z"/>
					<path class="st1" d="M398.41,327.02c0,0,1.41,11.24-5.88,16.31c-7.3,5.07-20.06,10.34-21.08,9.93c-1.01-0.41-3.65,0-3.65,0"/>
					<path class="st1" d="M330.51,350.43l-17.23-25.74c0,0,0.61-2.43,1.82-2.43"/>
					<path class="st1" d="M294.84,329.15c0.61-0.61,8.51-15.4,13.98-15.61c0,0,0.2-5.67-9.93,0.81"/>
					<path class="st1" d="M318.76,257.61c0,0-10.54,23.51-7.5,25.13c3.04,1.62,18.95-33.38,18.95-33.38"/>
					<path class="st1" d="M407,291.66c0,0,2.15,23.71-7.38,23.71"/>
					<path class="st1" d="M408.97,261.23c-1.09,7.4,2.06,24.73,2.06,24.73s0.85,3.64,2.67,2.18"/>
					<path class="st1" d="M402.79,273.84l-12.25,4.61c0,0,4.61,28.85,5.58,29.46s5.29,2.85,6.67-2.3
						c2.42-9.09-3.03-30.55-3.03-30.55"/>
					<path class="st1" d="M396.85,265.35c0,0-6.18-2.18-5.58,4c0.45,4.54,3.71,4.49,5.94,2.91
						C399.27,270.8,399.76,266.8,396.85,265.35z"/>
					<path class="st1" d="M431.15,384.75c0,0,3.74-0.66,4.62-3.74c0,0,0.22,3.96,0.88,4.18"/>
					<path class="st1" d="M365.45,244.6c0,0-2.11,3.73-5.63,0.16"/>
				</g>
			</g>
		</g>
	</g>
</g>
</svg>
