<svg id="Layer_1" data-name="Layer 1" xmlns="http://www.w3.org/2000/svg" viewBox="0 0 841.89001 467.72"><defs><style>.cls-1{fill:#dae9f2;}.cls-2,.cls-7,.cls-9{fill:none;}.cls-10,.cls-11,.cls-2,.cls-7,.cls-8{stroke:#55575b;}.cls-10,.cls-11,.cls-2{stroke-miterlimit:10;}.cls-11,.cls-3,.cls-4{fill:#fff;}.cls-4{opacity:0.19;isolation:isolate;}.cls-5{fill:#ddddde;}.cls-6{fill:#4890ba;}.cls-7,.cls-8{stroke-linejoin:round;}.cls-10,.cls-12,.cls-8{fill:#55575b;}.cls-13{fill:#5f9c70;}.cls-14{fill:#b3825c;}</style></defs><g id="Layer_3" data-name="Layer 3"><rect class="cls-1" x="-0.78" y="-0.93" width="843.43997" height="469.57001"/><ellipse class="cls-2" cx="78.8" cy="174.89999" rx="2.31" ry="3.24001"/><ellipse class="cls-2" cx="87.32" cy="170.47" rx="2.31" ry="3.24001"/><ellipse class="cls-2" cx="95.51" cy="166.77" rx="2.31" ry="3.24001"/><path class="cls-3" d="M136.52,418.78l-87.9,2.39s-1.59-42.56,21.08-20.68c0,0,13.13-31.42,29.43-2.39,0,0,15.51-12.33,25.85,7.95C124.99,406.05,138.91,405.65,136.52,418.78Z"/><path class="cls-3" d="M674.28,85.86c.4-1.19-3.98-38.58,24.26-26.65,0,0,0-19.09,24.66,6.36,0,0,14.32-15.11,25.06-3.18s5.17,18.69,5.17,18.69Z"/><path class="cls-3" d="M793.46,434.64c.3,1.68-144.47-4.85-144.47-4.85s-7.01-36.12,21.56-32.34c0,0,9.16-1.08,15.09,15.63,0,0,18.5-15.89,33.96-9.7a25.06249,25.06249,0,0,1,14.02,13.48S788.07,405,793.46,434.64Z"/><path class="cls-4" d="M95.99,371.17,327.8,286.95,305.5,63.88a6.62222,6.62222,0,0,0-9.57-5.25L72.53,171.53a16.03358,16.03358,0,0,0-8.66,16.38l23.31,177.9A6.61645,6.61645,0,0,0,95.99,371.17Z"/><path class="cls-4" d="M490.48,438.33,771.6,377.57a8.31086,8.31086,0,0,0,6.25-10.35L725.6,178.82a8.30329,8.30329,0,0,0-10.42-5.73L441.54,255.93l37.64,175.11A9.52006,9.52006,0,0,0,490.48,438.33Z"/><path class="cls-3" d="M413.64,70.71,362.33,72.3s-2.78-19.09,8.35-20.29,13.13,7.56,13.13,7.56-4.38-33.01,35-30.23c0,0,22.27-1.99,29.83,12.73,0,0,33.41-2.78,29.83,18.69l-4.77,7.56Z"/><path class="cls-3" d="M425.41,161.85c-2.07.94,11.11,4.14,11.11,4.14l33.17-9.03c-2.89-1.45-5.69-2.92-8.38-4.38C451.2,155.09,427.06,161.1,425.41,161.85Z"/><path class="cls-3" d="M525.8,128.34c-19.8-1.47-43.57-11.04-49.47-13.53-2.3,1.1-4.55,2.15-6.52,3.06,8.58,3.27,36.81,13.21,57.5,10.85l-.23-.33C526.63,128.38,526.2,128.37,525.8,128.34Z"/><path class="cls-3" d="M471.37,105.93c-1.18.34-3.4,1.14-6.14,2.19-9.52,3.65-25.22,10.33-24.56,10.99,4.52,4.52,22.6,1.69,22.6,1.69s2.75-1.2,6.54-2.94c1.97-.9,4.23-1.95,6.52-3.06,1.87-.9,3.77-1.83,5.57-2.75,5.42-2.76,9.92-5.39,10-6.51C492.09,102.73,476.64,104.43,471.37,105.93Z"/><path class="cls-3" d="M420.89,117.8a24.24323,24.24323,0,0,0-2.48.62c-4.96,1.49-6.14,3.67-3.36,4.66a31.23222,31.23222,0,0,0,4.79,1.16c5.64.95,14.13,1.06,17.81-4.93C437.65,119.3,437.65,114.41,420.89,117.8Z"/><path class="cls-3" d="M421.13,126.06c-9.4,2.01-41.31,8.98-41.31,10.75,0,2.07,4.33,5.08,9.42,3.2,4.08-1.51,28.34-6.64,38.11-8.72-1.69-1.23-2.87-2.12-3.46-2.58A17.60857,17.60857,0,0,1,421.13,126.06Z"/><path class="cls-3" d="M525.26,176.99c-4.12-.31-8.13-.65-11.91-.99a15.2856,15.2856,0,0,0,3.93,3.31c5.47,3.2,46.85,3.2,50.59,3.07,2.13-.08,4.44-2.33,6.05-4.32-.56.03-1.16.06-1.79.08C556.71,181.01,540.75,180.12,525.26,176.99Z"/><path class="cls-3" d="M581.88,175.66c9.8,2.24,15.87-1.91,16.93-6.58,1.31-5.75-7.06-7.32-29.56-9.67-15.89-1.66-25.38,1.89-29.59,4.13,18.39,2.88,38.47,6.93,41.68,7.64C584.58,171.87,583.4,174.02,581.88,175.66Z"/><path class="cls-3" d="M514.78,160.61a29.56357,29.56357,0,0,0-4.98.15,57.88593,57.88593,0,0,0-17.68,6.27c-4.76,2.68-7.14,5.34-3.41,6.14.17.04.38.08.62.12a12.56979,12.56979,0,0,0,3.33-.76C498.45,170.36,510.81,166.52,514.78,160.61Z"/><path class="cls-3" d="M581.35,171.16c-3.21-.7-23.29-4.75-41.68-7.64a235.84872,235.84872,0,0,0-24.89-2.92c-3.97,5.91-16.33,9.75-22.12,11.92a13.4047,13.4047,0,0,1-3.33.76c3.16.56,12.47,1.66,24.02,2.71,3.78.34,7.79.68,11.91.99,15.49,3.13,31.45,4.02,46.87,1.15.63-.03,1.23-.06,1.79-.08,3.57-.18,5.69-.35,5.69-.35h0a18.53782,18.53782,0,0,0,2.27-2.04C583.4,174.02,584.58,171.87,581.35,171.16Z"/><path class="cls-3" d="M631.44,138.85c.5.34,1.01,6.57,1.16,8.6a.94759.94759,0,0,0,.65.84h0a.9841.9841,0,0,0,1.3-1.04l-.7-6.09Z"/><path class="cls-3" d="M635.35,142.73l.51,5.56a.9709.9709,0,0,0,.66.83h0a1.15,1.15,0,0,0,1.48-1.37l-.21-2.74Z"/><path class="cls-3" d="M639.04,146.52l.31,2.62a.83387.83387,0,0,0,.53.68l4.16,1.54S639.46,146.73,639.04,146.52Z"/><path class="cls-3" d="M601.26,138.95c.2.06.4.11.61.16C601.66,139.06,601.46,139.01,601.26,138.95Z"/><path class="cls-3" d="M599.59,138.46c.25.08.5.16.74.23C600.09,138.61,599.84,138.53,599.59,138.46Z"/><path class="cls-3" d="M587.5,132.99c-.01-.01-.03-.02-.04-.03h0C587.47,132.98,587.48,132.98,587.5,132.99Z"/><path class="cls-3" d="M597.27,137.68q.645.24,1.29.45Q597.93,137.905,597.27,137.68Z"/><path class="cls-3" d="M629.99,139.26a.57383.57383,0,0,0,.14-.04A1.0268,1.0268,0,0,0,629.99,139.26Z"/><path class="cls-3" d="M595.59,137.03c.33.13.65.26.98.38C596.24,137.28,595.91,137.16,595.59,137.03Z"/><path class="cls-3" d="M628.41,139.63c.05-.01.09-.02.14-.03C628.5,139.61,628.45,139.62,628.41,139.63Z"/><path class="cls-3" d="M629.24,139.44c.06-.01.12-.03.18-.04A1.1617,1.1617,0,0,0,629.24,139.44Z"/><path class="cls-3" d="M606.77,140.19c.07.01.15.03.22.04A1.69529,1.69529,0,0,0,606.77,140.19Z"/><path class="cls-3" d="M602.85,139.37c.11.03.22.05.32.08C603.07,139.42,602.96,139.4,602.85,139.37Z"/><path class="cls-3" d="M589.83,134.32q.66.36,1.32.69Q590.49,134.68,589.83,134.32Z"/><path class="cls-3" d="M588.03,133.31c.41.24.81.47,1.22.7C588.85,133.78,588.44,133.55,588.03,133.31Z"/><path class="cls-3" d="M593.79,136.27c.36.16.73.32,1.09.47C594.52,136.59,594.16,136.43,593.79,136.27Z"/><path class="cls-3" d="M591.56,135.22q.825.405,1.65.78Q592.38495,135.64,591.56,135.22Z"/><path class="cls-3" d="M611.51,163.2c2.23-8.79-.69-17.38-3.33-22.79h0c-.39-.06-.79-.12-1.19-.19a1.69519,1.69519,0,0,1-.22-.04c-1.17-.2-2.37-.44-3.59-.74-.11-.03-.22-.05-.32-.08-.33-.08-.66-.17-.99-.26-.2-.05-.4-.11-.61-.16-.31-.09-.61-.17-.92-.27-.25-.07-.49-.15-.74-.23-.34-.11-.68-.21-1.02-.33q-.645-.21-1.29-.45c-.24-.09-.47-.18-.71-.27-.33-.12-.65-.25-.98-.38-.23-.09-.47-.19-.7-.29-.36-.15-.72-.31-1.09-.47-.2-.09-.39-.17-.59-.26q-.825-.375-1.65-.78c-.14-.07-.27-.14-.41-.21q-.66-.33-1.32-.69c-.19-.1-.39-.21-.58-.32-.41-.23-.81-.46-1.22-.7-.18-.1-.36-.21-.53-.31-.02-.01-.03-.02-.05-.03-1.04-.12-2.1-.26-3.12-.44-6.54,2.75-13.11,4.97-17.47,5.04-11.68.19-38.24-3.77-38.61-7.53-.04-.36.32-.94.99-1.71q-1.155.075-2.16.06l.23.33c-20.69,2.37-48.93-7.58-57.5-10.85-3.79,1.74-6.54,2.94-6.54,2.94s-18.08,2.82-22.6-1.69c-.66-.66,15.04-7.34,24.56-10.99a59.217,59.217,0,0,1-12.13-15.93c-10.36-19.02-15.45-40.29-23.73-42.93-8.29-2.64-17.14-.38-17.14-.38l6.22,69.29a1.4862,1.4862,0,0,0-.03.24c.74-.22,1.57-.43,2.48-.62,16.76-3.39,16.76,1.51,16.76,1.51-3.68,5.99-12.17,5.88-17.81,4.93a12.86831,12.86831,0,0,0,1.29,1.83,16.868,16.868,0,0,0,2.77,2.65c.59.45,1.77,1.35,3.46,2.58.42.31.88.64,1.37.99,10.28.02,37.5.44,43.56,4.38,6.41,4.17,34.31,19.53,42.35,23.94,6.03.2,15.29,1.4,25.03,2.93,4.2-2.23,13.69-5.79,29.59-4.13,22.49,2.35,30.86,3.92,29.56,9.67-1.06,4.67-7.13,8.82-16.93,6.58a17.604,17.604,0,0,1-2.27,2.04,115.18541,115.18541,0,0,0,19.88,2.37C604.28,176.29,609.64,170.62,611.51,163.2Zm-69.33-3.77a.72185.72185,0,0,1-.82.51l-8.83-1.65a.72155.72155,0,0,1-.54-.96c2.66-7.49.75-15.02-.11-17.72a.71658.71658,0,0,1,.76-.93l8.8.89a.712.712,0,0,1,.57.37C545.52,146.51,542.93,156.81,542.18,159.43Z"/><path class="cls-3" d="M630.14,139.22a.57408.57408,0,0,0-.14.04c-.18.04-.37.09-.57.14-.06.01-.12.03-.18.04-.22.05-.45.11-.7.16-.05.01-.09.02-.14.03-.93.21-2.02.42-3.26.62h-.02a56.61284,56.61284,0,0,1-14.9.41h-.04c-.66-.07-1.32-.15-2-.25h0c2.64,5.4,5.56,14,3.33,22.79-1.88,7.42-7.23,13.09-12.01,16.87,1.46.04,2.95.06,4.47.05,14.88-.19,65.55.75,43.13-25.98l-15.07-14.87-.6-.41c-.23.07-.46.15-.72.22C630.54,139.12,630.35,139.17,630.14,139.22Z"/><path class="cls-3" d="M609.22,119.78c1.96-.53,3.18-.85,3.18-.85C611.39,119.16,610.32,119.45,609.22,119.78Z"/><path class="cls-3" d="M600.33,138.69c.31.09.62.18.92.27C600.95,138.87,600.64,138.78,600.33,138.69Z"/><path class="cls-3" d="M591.15,135.01c.14.07.27.14.41.21C591.42,135.16,591.28,135.08,591.15,135.01Z"/><path class="cls-3" d="M594.88,136.74c.24.1.47.19.7.29C595.35,136.93,595.12,136.84,594.88,136.74Z"/><path class="cls-3" d="M598.57,138.13c.34.12.68.22,1.02.33Z"/><path class="cls-3" d="M596.57,137.41c.24.09.47.18.71.27C597.04,137.59,596.8,137.5,596.57,137.41Z"/><path class="cls-3" d="M593.2,136.01c.2.09.39.17.59.26C593.6,136.18,593.4,136.1,593.2,136.01Z"/><path class="cls-3" d="M587.5,132.99c.18.11.36.21.53.31C587.85,133.2,587.67,133.1,587.5,132.99Z"/><path class="cls-3" d="M606.99,140.22c.4.07.8.13,1.19.19C607.79,140.35,607.39,140.29,606.99,140.22Z"/><path class="cls-3" d="M589.25,134.01c.19.11.39.21.58.32C589.64,134.22,589.44,134.11,589.25,134.01Z"/><path class="cls-3" d="M601.86,139.12c.33.09.66.17.99.26C602.52,139.29,602.19,139.21,601.86,139.12Z"/><path class="cls-3" d="M603.17,139.45c1.22.29,2.42.54,3.59.74C605.59,139.99,604.39,139.74,603.17,139.45Z"/><path class="cls-3" d="M629.42,139.4c.2-.05.39-.09.57-.14C629.82,139.3,629.62,139.35,629.42,139.4Z"/><path class="cls-3" d="M625.12,140.25a56.61294,56.61294,0,0,1-14.9.41A56.61294,56.61294,0,0,0,625.12,140.25Z"/><path class="cls-3" d="M628.54,139.6c.24-.05.48-.11.7-.16C629.02,139.49,628.79,139.54,628.54,139.6Z"/><path class="cls-3" d="M625.14,140.25c1.24-.2,2.34-.42,3.26-.62C627.48,139.83,626.39,140.05,625.14,140.25Z"/><path class="cls-3" d="M608.18,140.41c.68.1,1.34.18,2,.25C609.53,140.59,608.86,140.51,608.18,140.41Z"/><path class="cls-3" d="M630.14,139.22c.21-.05.41-.1.58-.15C630.54,139.12,630.35,139.17,630.14,139.22Z"/><path class="cls-3" d="M669.9,81.27c-3.97,0-8.09,1.55-11.75,2.94-11.29,4.3-22.05,9.87-33.31,14.25-5.04,1.96-10.09,3.92-15.16,5.83-28.65,10.8-64.58,23.05-80.45,24.03-.67.77-1.02,1.35-.99,1.71.38,3.77,26.93,7.72,38.61,7.53,4.35-.07,10.93-2.29,17.47-5.04-2.4-.42-4.54-1.01-5.41-1.85-2.01-1.95,21.57-8.54,30.3-10.9,1.1-.33,2.16-.62,3.18-.85,3.8-1.74,9.07-4.17,15.02-6.94.58-.27,1.16-.54,1.75-.82,3.51-1.64,7.22-3.38,10.97-5.16,1.11-.53,2.22-1.05,3.33-1.58,17.65-8.42,35.23-17.19,36.6-19.4C680.07,85.04,674.79,81.27,669.9,81.27Z"/><path class="cls-3" d="M632.98,133.23c2.07-1.51,2.83-3.39,3.2-6.59.18-1.49-2.26-3.02-5.57-4.38a85.42783,85.42783,0,0,0-12.32-3.72,14.27192,14.27192,0,0,0-5.89.39s-1.22.32-3.18.85c-8.72,2.36-32.31,8.95-30.3,10.9.87.84,3,1.43,5.41,1.85,1.02.18,2.08.32,3.12.44h0c.01.01.03.02.04.03.18.11.36.21.53.31.41.24.81.47,1.22.7.19.11.39.21.58.32q.66.36,1.32.69c.14.07.27.14.41.21q.825.405,1.65.78c.2.09.39.17.59.26.36.16.73.32,1.09.47.24.1.47.19.7.29.33.13.65.26.98.38.24.09.47.18.71.27q.645.24,1.29.45c.34.12.68.22,1.02.33.25.08.5.16.74.23.31.09.62.18.92.27.2.06.4.11.61.16.33.09.66.18.99.26.11.03.22.05.32.08,1.22.29,2.42.54,3.59.74.07.01.15.03.22.04.4.07.8.13,1.19.19h0c.67.1,1.34.18,2,.25h.04a56.61218,56.61218,0,0,0,14.9-.41h.02c1.24-.2,2.34-.42,3.26-.62.05-.01.09-.02.14-.03.24-.05.48-.11.7-.16.06-.01.12-.03.18-.04.2-.05.39-.1.57-.14a.574.574,0,0,0,.14-.04c.21-.05.41-.1.58-.15.26-.07.5-.14.72-.22,4.12-1.37,2.1-3.74,2.1-3.74S630.91,134.74,632.98,133.23Z"/><path class="cls-5" d="M425.15,163.28c-2.07.94,11.11,4.14,11.11,4.14l33.17-9.03c-2.89-1.45-5.69-2.92-8.38-4.38C450.93,156.52,426.8,162.53,425.15,163.28Z"/><path class="cls-5" d="M525.54,129.76c-19.8-1.47-43.57-11.04-49.47-13.53-2.3,1.1-4.55,2.15-6.52,3.06,8.58,3.27,36.81,13.21,57.5,10.85l-.23-.33C526.37,129.81,525.94,129.79,525.54,129.76Z"/><path class="cls-5" d="M471.11,107.36c-1.18.34-3.4,1.14-6.14,2.19-9.52,3.65-25.22,10.33-24.56,10.99,4.52,4.52,22.6,1.69,22.6,1.69s2.75-1.2,6.54-2.94c1.97-.9,4.23-1.95,6.52-3.06,1.87-.9,3.77-1.83,5.57-2.75,5.42-2.76,9.92-5.39,10-6.51C491.82,104.16,476.38,105.85,471.11,107.36Z"/><path class="cls-5" d="M420.63,119.22a24.24323,24.24323,0,0,0-2.48.62c-4.96,1.49-6.14,3.67-3.36,4.66a31.23343,31.23343,0,0,0,4.79,1.16c5.64.95,14.13,1.06,17.81-4.93C437.39,120.73,437.39,115.83,420.63,119.22Z"/><path class="cls-5" d="M420.87,127.49c-9.4,2.01-41.31,8.98-41.31,10.75,0,2.07,4.33,5.08,9.42,3.2,4.08-1.51,28.34-6.64,38.11-8.72-1.69-1.23-2.87-2.12-3.46-2.58A17.62145,17.62145,0,0,1,420.87,127.49Z"/><path class="cls-5" d="M525,178.41c-4.12-.31-8.13-.65-11.91-.99a15.28543,15.28543,0,0,0,3.93,3.31c5.47,3.2,46.85,3.2,50.59,3.07,2.13-.08,4.44-2.33,6.05-4.32-.56.03-1.16.06-1.79.08C556.45,182.43,540.49,181.54,525,178.41Z"/><path class="cls-5" d="M581.62,177.08c9.8,2.24,15.87-1.91,16.93-6.58,1.31-5.75-7.06-7.32-29.56-9.67-15.89-1.66-25.38,1.89-29.59,4.13,18.39,2.88,38.47,6.93,41.68,7.64C584.31,173.3,583.13,175.44,581.62,177.08Z"/><path class="cls-5" d="M514.52,162.03a29.56446,29.56446,0,0,0-4.98.15,57.88567,57.88567,0,0,0-17.68,6.27c-4.76,2.68-7.14,5.34-3.41,6.14.17.04.38.08.62.12a12.56979,12.56979,0,0,0,3.33-.76C498.19,171.78,510.55,167.94,514.52,162.03Z"/><path class="cls-5" d="M581.09,172.59c-3.21-.7-23.29-4.75-41.68-7.64a235.85139,235.85139,0,0,0-24.89-2.92c-3.97,5.91-16.33,9.75-22.12,11.92a13.40473,13.40473,0,0,1-3.33.76c3.16.56,12.47,1.66,24.02,2.71,3.78.34,7.79.68,11.91.99,15.49,3.13,31.45,4.02,46.87,1.15.63-.03,1.23-.06,1.79-.08,3.57-.18,5.69-.35,5.69-.35h0a18.54019,18.54019,0,0,0,2.27-2.04C583.13,175.44,584.31,173.3,581.09,172.59Z"/><path class="cls-5" d="M600.99,140.38c.2.06.4.11.61.16C601.4,140.49,601.2,140.43,600.99,140.38Z"/><path class="cls-5" d="M599.33,139.88c.25.08.5.16.74.23C599.82,140.04,599.58,139.96,599.33,139.88Z"/><path class="cls-5" d="M587.23,134.42c-.01-.01-.03-.02-.04-.03h0C587.2,134.4,587.22,134.41,587.23,134.42Z"/><path class="cls-5" d="M597.01,139.1q.645.24,1.29.45Q597.655,139.34,597.01,139.1Z"/><path class="cls-5" d="M629.73,140.68a.57492.57492,0,0,0,.14-.04A.5725.5725,0,0,1,629.73,140.68Z"/><path class="cls-5" d="M609.92,142.08h.04C609.94,142.09,609.93,142.08,609.92,142.08Z"/><path class="cls-5" d="M595.32,138.45c.33.13.65.26.98.38C595.98,138.71,595.65,138.58,595.32,138.45Z"/><path class="cls-5" d="M628.14,141.05c.05-.01.09-.02.14-.03C628.23,141.03,628.19,141.04,628.14,141.05Z"/><path class="cls-5" d="M628.98,140.86c.06-.01.12-.03.18-.04C629.1,140.83,629.04,140.85,628.98,140.86Z"/><path class="cls-5" d="M606.5,141.61c.07.01.15.03.22.04C606.65,141.64,606.58,141.62,606.5,141.61Z"/><path class="cls-5" d="M602.59,140.8c.11.03.22.05.32.08C602.8,140.85,602.69,140.82,602.59,140.8Z"/><path class="cls-5" d="M589.57,135.75q.66.36,1.32.69Q590.23,136.11,589.57,135.75Z"/><path class="cls-5" d="M587.77,134.73c.41.24.81.47,1.22.7C588.58,135.21,588.17,134.97,587.77,134.73Z"/><path class="cls-5" d="M593.53,137.69c.36.16.73.32,1.09.47C594.26,138.01,593.89,137.85,593.53,137.69Z"/><path class="cls-5" d="M591.29,136.65q.825.405,1.65.78Q592.115,137.055,591.29,136.65Z"/><path class="cls-5" d="M611.25,164.62c2.23-8.79-.69-17.38-3.33-22.79h0c-.39-.06-.79-.12-1.19-.19a1.69346,1.69346,0,0,1-.22-.04c-1.17-.2-2.37-.44-3.59-.74-.11-.03-.22-.05-.32-.08-.33-.08-.66-.17-.99-.26-.2-.05-.4-.11-.61-.16-.31-.09-.61-.17-.92-.27-.25-.07-.49-.15-.74-.23-.34-.11-.68-.21-1.02-.33q-.645-.21-1.29-.45c-.24-.09-.47-.18-.71-.27-.33-.12-.65-.25-.98-.38-.23-.09-.47-.19-.7-.29-.36-.15-.72-.31-1.09-.47-.2-.09-.39-.17-.59-.26q-.825-.375-1.65-.78c-.14-.07-.27-.14-.41-.21q-.66-.33-1.32-.69c-.19-.1-.39-.21-.58-.32-.41-.23-.81-.46-1.22-.7-.18-.1-.36-.21-.53-.31-.02-.01-.03-.02-.05-.03-1.04-.12-2.1-.26-3.12-.44-6.54,2.75-13.11,4.97-17.47,5.04-11.68.19-38.24-3.77-38.61-7.53-.04-.36.32-.94.99-1.71q-1.155.075-2.16.06l.23.33c-20.69,2.37-48.93-7.57-57.5-10.85-3.79,1.74-6.54,2.94-6.54,2.94s-18.08,2.82-22.6-1.69c-.66-.66,15.04-7.34,24.56-10.99A59.21685,59.21685,0,0,1,452.85,93.6c-10.36-19.02-15.45-40.29-23.73-42.93-8.29-2.64-17.14-.38-17.14-.38l6.22,69.29a1.48592,1.48592,0,0,0-.03.24c.74-.22,1.57-.43,2.48-.62,16.76-3.39,16.76,1.51,16.76,1.51-3.68,5.99-12.17,5.88-17.81,4.93a12.86975,12.86975,0,0,0,1.29,1.83,16.86759,16.86759,0,0,0,2.77,2.65c.59.45,1.77,1.35,3.46,2.58.42.31.88.64,1.37.99,10.28.02,37.5.44,43.56,4.38,6.41,4.17,34.31,19.53,42.35,23.94,6.03.2,15.29,1.4,25.03,2.93,4.2-2.23,13.69-5.79,29.59-4.13,22.49,2.35,30.86,3.92,29.56,9.67-1.06,4.67-7.13,8.82-16.93,6.58a17.6054,17.6054,0,0,1-2.27,2.04,115.18667,115.18667,0,0,0,19.88,2.37C604.02,177.72,609.37,172.04,611.25,164.62Zm-69.34-3.76a.72186.72186,0,0,1-.82.51l-8.83-1.65a.72155.72155,0,0,1-.54-.96c2.66-7.49.75-15.02-.11-17.72a.71657.71657,0,0,1,.76-.93l8.8.89a.712.712,0,0,1,.57.37C545.26,147.93,542.66,158.23,541.91,160.86Z"/><path class="cls-5" d="M629.87,140.64a.574.574,0,0,0-.14.04c-.18.04-.37.09-.57.14-.06.01-.12.03-.18.04-.22.05-.45.11-.7.16-.05.01-.09.02-.14.03-.93.21-2.02.42-3.26.62h-.02a56.61284,56.61284,0,0,1-14.9.41h-.04c-.66-.07-1.32-.15-2-.25h0c2.64,5.4,5.56,14,3.33,22.79-1.88,7.42-7.23,13.09-12.01,16.87,1.46.04,2.95.06,4.47.05,14.88-.19,65.55.75,43.13-25.98l-15.07-14.87-.6-.41c-.23.07-.46.15-.72.22C630.28,140.54,630.08,140.59,629.87,140.64Z"/><path class="cls-5" d="M608.96,121.21c1.96-.53,3.18-.85,3.18-.85C611.12,120.59,610.05,120.88,608.96,121.21Z"/><path class="cls-5" d="M600.07,140.11c.31.09.62.18.92.27C600.69,140.29,600.38,140.2,600.07,140.11Z"/><path class="cls-5" d="M590.89,136.44c.14.07.27.14.41.21C591.16,136.58,591.02,136.51,590.89,136.44Z"/><path class="cls-5" d="M594.62,138.16c.24.1.47.19.7.29C595.09,138.36,594.85,138.26,594.62,138.16Z"/><path class="cls-5" d="M598.3,139.55c.34.12.68.22,1.02.33C598.99,139.77,598.65,139.67,598.3,139.55Z"/><path class="cls-5" d="M596.3,138.83c.24.09.47.18.71.27C596.77,139.01,596.54,138.92,596.3,138.83Z"/><path class="cls-5" d="M592.94,137.43c.2.09.39.17.59.26C593.33,137.61,593.14,137.52,592.94,137.43Z"/><path class="cls-5" d="M587.23,134.42c.18.11.36.21.53.31C587.59,134.63,587.41,134.53,587.23,134.42Z"/><path class="cls-5" d="M606.73,141.65c.4.07.8.13,1.19.19C607.52,141.78,607.13,141.72,606.73,141.65Z"/><path class="cls-5" d="M588.99,135.43c.19.11.39.21.58.32C589.37,135.64,589.18,135.54,588.99,135.43Z"/><path class="cls-5" d="M601.6,140.54c.33.09.66.17.99.26C602.26,140.72,601.93,140.63,601.6,140.54Z"/><path class="cls-5" d="M602.91,140.87c1.22.29,2.42.54,3.59.74C605.33,141.41,604.13,141.17,602.91,140.87Z"/><path class="cls-5" d="M629.16,140.82c.2-.05.39-.09.57-.14C629.55,140.72,629.36,140.77,629.16,140.82Z"/><path class="cls-5" d="M624.86,141.68a56.61294,56.61294,0,0,1-14.9.41A56.61208,56.61208,0,0,0,624.86,141.68Z"/><path class="cls-5" d="M628.28,141.02c.24-.05.48-.11.7-.16C628.76,140.92,628.52,140.97,628.28,141.02Z"/><path class="cls-5" d="M624.88,141.68c1.24-.2,2.34-.42,3.26-.62C627.22,141.26,626.12,141.48,624.88,141.68Z"/><path class="cls-5" d="M607.92,141.83c.68.1,1.34.18,2,.25C609.26,142.01,608.6,141.93,607.92,141.83Z"/><path class="cls-5" d="M629.87,140.64c.21-.05.41-.1.58-.15C630.28,140.54,630.08,140.59,629.87,140.64Z"/><path class="cls-5" d="M669.63,82.69c-3.97,0-8.09,1.55-11.75,2.94-11.29,4.3-22.05,9.87-33.31,14.25-5.04,1.96-10.09,3.92-15.16,5.83-28.65,10.8-64.58,23.05-80.45,24.03-.67.77-1.02,1.35-.99,1.71.38,3.77,26.93,7.72,38.61,7.53,4.35-.07,10.93-2.29,17.47-5.04-2.4-.42-4.54-1.01-5.41-1.85-2.01-1.95,21.57-8.54,30.3-10.9,1.1-.33,2.16-.62,3.18-.85,3.8-1.74,9.07-4.17,15.02-6.94.58-.27,1.16-.54,1.75-.82,3.51-1.64,7.22-3.38,10.97-5.16,1.11-.53,2.22-1.05,3.33-1.58,17.65-8.42,35.23-17.19,36.6-19.4C679.8,86.46,674.53,82.69,669.63,82.69Z"/><path class="cls-5" d="M632.72,134.66c2.07-1.51,2.83-3.39,3.2-6.59.18-1.49-2.26-3.02-5.57-4.38a85.42918,85.42918,0,0,0-12.32-3.72,14.27226,14.27226,0,0,0-5.89.39s-1.22.32-3.18.85c-8.72,2.36-32.31,8.95-30.3,10.9.87.84,3,1.43,5.41,1.85,1.02.18,2.08.32,3.12.44h0c.01.01.03.02.04.03.18.11.36.21.53.31.41.24.81.47,1.22.7.19.11.39.21.58.32q.66.36,1.32.69c.14.07.27.14.41.21q.825.405,1.65.78c.2.09.39.17.59.26.36.16.73.32,1.09.47.24.1.47.19.7.29.33.13.65.26.98.38.24.09.47.18.71.27q.645.24,1.29.45l1.02.33c.25.08.5.16.74.23.31.09.62.18.92.27.2.06.4.11.61.16.33.09.66.18.99.26.11.03.22.05.32.08,1.22.29,2.42.54,3.59.74.07.01.15.03.22.04.4.07.8.13,1.19.19h0c.67.1,1.34.18,2,.25h.04a56.61218,56.61218,0,0,0,14.9-.41h.02c1.24-.2,2.34-.42,3.26-.62.05-.01.09-.02.14-.03.24-.05.48-.11.7-.16.06-.01.12-.03.18-.04.2-.05.39-.1.57-.14a.57448.57448,0,0,0,.14-.04c.21-.05.41-.1.58-.15.26-.07.5-.14.72-.22,4.12-1.37,2.1-3.74,2.1-3.74S630.64,136.17,632.72,134.66Z"/><path class="cls-6" d="M631.18,140.28c.5.34,1.01,6.57,1.16,8.6a.94764.94764,0,0,0,.65.84h0a.98411.98411,0,0,0,1.3-1.04l-.7-6.09Z"/><path class="cls-6" d="M635.09,144.15l.51,5.56a.97091.97091,0,0,0,.66.83h0a1.15,1.15,0,0,0,1.48-1.37l-.21-2.74Z"/><path class="cls-6" d="M638.78,147.95l.31,2.62a.83384.83384,0,0,0,.53.68l4.16,1.54C643.77,152.78,639.2,148.16,638.78,147.95Z"/><path class="cls-3" d="M541.38,139.5l-8.8-.9a.72013.72013,0,0,0-.76.93c.86,2.7,2.77,10.23.11,17.72a.725.725,0,0,0,.54.96l8.83,1.65a.71287.71287,0,0,0,.82-.51c.75-2.62,3.34-12.93-.17-19.48A.73557.73557,0,0,0,541.38,139.5Z"/><path class="cls-2" d="M425.36,161.78c-2.07.94,11.11,4.14,11.11,4.14l33.17-9.03q-4.335-2.19-8.38-4.38C451.15,155.01,427.01,161.03,425.36,161.78Z"/><path class="cls-2" d="M525.75,128.25c-19.8-1.47-43.57-11.05-49.47-13.53-2.3,1.1-4.55,2.15-6.52,3.06,8.58,3.27,36.81,13.22,57.5,10.85l-.23-.33C526.58,128.29,526.15,128.28,525.75,128.25Z"/><path class="cls-2" d="M471.32,105.83c-1.18.34-3.4,1.14-6.14,2.19-9.52,3.66-25.22,10.33-24.56,11,4.52,4.52,22.6,1.7,22.6,1.7s2.75-1.2,6.54-2.94c1.97-.9,4.23-1.96,6.52-3.06,1.87-.9,3.77-1.83,5.57-2.75,5.42-2.76,9.92-5.39,10-6.51C492.04,102.63,476.59,104.33,471.32,105.83Z"/><path class="cls-2" d="M420.84,117.7a24.23985,24.23985,0,0,0-2.48.62c-4.96,1.49-6.14,3.68-3.36,4.66a31.23315,31.23315,0,0,0,4.79,1.16c5.64.95,14.13,1.06,17.81-4.93C437.6,119.21,437.6,114.31,420.84,117.7Z"/><path class="cls-2" d="M421.08,125.97c-9.4,2.02-41.31,8.99-41.31,10.75,0,2.07,4.33,5.09,9.42,3.2,4.08-1.51,28.34-6.65,38.11-8.72-1.69-1.23-2.87-2.12-3.46-2.58A17.61171,17.61171,0,0,1,421.08,125.97Z"/><path class="cls-2" d="M525.21,176.92c-4.12-.31-8.13-.65-11.91-1a15.28543,15.28543,0,0,0,3.93,3.31c5.47,3.2,46.85,3.2,50.59,3.07,2.13-.08,4.44-2.33,6.05-4.32-.56.03-1.16.06-1.79.08C556.66,180.94,540.7,180.05,525.21,176.92Z"/><path class="cls-2" d="M581.83,175.59c9.8,2.24,15.87-1.91,16.93-6.58,1.31-5.75-7.06-7.32-29.56-9.68-15.89-1.66-25.38,1.89-29.59,4.13,18.39,2.88,38.47,6.94,41.68,7.64C584.52,171.8,583.34,173.94,581.83,175.59Z"/><path class="cls-2" d="M514.73,160.53a29.56446,29.56446,0,0,0-4.98.15,57.88576,57.88576,0,0,0-17.68,6.27c-4.76,2.68-7.14,5.34-3.41,6.14.17.04.38.08.62.12a12.56979,12.56979,0,0,0,3.33-.76C498.4,170.28,510.76,166.44,514.73,160.53Z"/><path class="cls-7" d="M581.3,171.09c-3.21-.7-23.29-4.76-41.68-7.64a235.85183,235.85183,0,0,0-24.89-2.92c-3.97,5.91-16.33,9.75-22.12,11.93a13.40477,13.40477,0,0,1-3.33.76c3.16.56,12.47,1.66,24.02,2.71,3.78.34,7.79.68,11.91,1,15.49,3.13,31.45,4.03,46.87,1.15.63-.03,1.23-.06,1.79-.08,3.57-.18,5.69-.35,5.69-.35h0a18.53865,18.53865,0,0,0,2.27-2.04C583.34,173.94,584.52,171.8,581.3,171.09Z"/><circle class="cls-7" cx="537.21002" cy="143.53999" r="1.28999"/><path class="cls-8" d="M628.4,139.68s-3.75,14.52-.7,12.53c3.04-1.99,3.69-13.44,3.69-13.44Z"/><path class="cls-7" d="M631.39,138.77c.5.34,1.01,6.57,1.16,8.6a.94762.94762,0,0,0,.65.84h0a.9841.9841,0,0,0,1.3-1.04l-.7-6.09Z"/><path class="cls-7" d="M635.3,142.64l.51,5.57a.97092.97092,0,0,0,.66.83h0a1.15,1.15,0,0,0,1.48-1.37l-.21-2.75Z"/><path class="cls-7" d="M638.99,146.44l.31,2.62a.83389.83389,0,0,0,.53.68l4.16,1.54C643.98,151.28,639.41,146.65,638.99,146.44Z"/><path class="cls-9" d="M601.21,138.87c.2.06.4.11.61.17C601.61,138.98,601.41,138.92,601.21,138.87Z"/><path class="cls-9" d="M599.54,138.37c.25.08.5.16.74.23C600.04,138.53,599.79,138.45,599.54,138.37Z"/><path class="cls-9" d="M587.44,132.9c-.01-.01-.03-.02-.04-.03h0A.05344.05344,0,0,0,587.44,132.9Z"/><path class="cls-9" d="M597.22,137.59q.645.24,1.29.45Q597.88007,137.83,597.22,137.59Z"/><path class="cls-9" d="M629.94,139.17a.574.574,0,0,0,.14-.04C630.04,139.14,629.99,139.16,629.94,139.17Z"/><path class="cls-9" d="M610.13,140.57h.04C610.15,140.58,610.14,140.57,610.13,140.57Z"/><path class="cls-9" d="M595.53,136.94c.33.13.65.26.98.38C596.19,137.2,595.86,137.07,595.53,136.94Z"/><path class="cls-9" d="M628.36,139.54c.05-.01.09-.02.14-.03C628.45,139.52,628.4,139.53,628.36,139.54Z"/><path class="cls-9" d="M629.19,139.35c.06-.01.12-.03.18-.04C629.31,139.32,629.25,139.34,629.19,139.35Z"/><path class="cls-9" d="M606.72,140.1c.07.01.15.03.22.04C606.86,140.13,606.79,140.11,606.72,140.1Z"/><path class="cls-9" d="M602.8,139.29c.11.03.22.05.32.08C603.01,139.34,602.91,139.31,602.8,139.29Z"/><path class="cls-9" d="M618.24,118.45a85.42909,85.42909,0,0,1,12.32,3.72c-.44-1.11-2.82-7.23-3.19-10.28-5.95,2.77-11.22,5.2-15.02,6.95A14.43866,14.43866,0,0,1,618.24,118.45Z"/><path class="cls-9" d="M589.78,134.24q.66.36,1.32.69Q590.43994,134.585,589.78,134.24Z"/><path class="cls-9" d="M587.98,133.22c.41.24.81.47,1.22.7C588.79,133.69,588.39,133.46,587.98,133.22Z"/><path class="cls-9" d="M593.74,136.18c.36.16.73.32,1.09.47C594.47,136.5,594.11,136.34,593.74,136.18Z"/><path class="cls-9" d="M640.08,105.92c-3.75,1.78-7.46,3.52-10.97,5.16,2.29,2.82,5.14,11.28,5.14,11.28S637.89,110.93,640.08,105.92Z"/><path class="cls-9" d="M591.5,135.13c.55.27,1.1.53,1.65.79C592.6,135.67,592.06,135.41,591.5,135.13Z"/><path class="cls-2" d="M611.46,163.12c2.23-8.8-.69-17.39-3.33-22.8h0c-.39-.06-.79-.12-1.19-.19a1.69549,1.69549,0,0,1-.22-.04c-1.17-.2-2.37-.44-3.59-.74-.11-.03-.22-.05-.32-.08-.33-.08-.66-.17-.99-.26-.2-.05-.4-.11-.61-.17-.31-.09-.61-.17-.92-.27-.25-.07-.49-.15-.74-.23-.34-.11-.68-.21-1.02-.33q-.645-.21-1.29-.45c-.24-.09-.47-.18-.71-.27-.33-.12-.65-.25-.98-.38-.23-.09-.47-.19-.7-.29-.36-.15-.72-.31-1.09-.47-.2-.09-.39-.17-.59-.26-.55-.25-1.1-.51-1.65-.79-.14-.07-.27-.14-.41-.21q-.66-.33-1.32-.69c-.19-.1-.39-.21-.58-.32-.41-.23-.81-.46-1.22-.7-.18-.1-.36-.21-.53-.31-.02-.01-.03-.02-.05-.03-1.04-.12-2.1-.26-3.12-.44-6.54,2.75-13.11,4.97-17.47,5.04-11.68.19-38.24-3.77-38.61-7.53-.04-.36.32-.94.99-1.71q-1.155.075-2.16.06l.23.33c-20.69,2.37-48.93-7.58-57.5-10.85-3.79,1.74-6.54,2.94-6.54,2.94s-18.08,2.83-22.6-1.7c-.66-.66,15.04-7.34,24.56-11a59.13,59.13,0,0,1-12.13-15.94c-10.36-19.02-15.45-40.31-23.73-42.95-8.29-2.64-17.14-.38-17.14-.38l6.22,69.32a1.486,1.486,0,0,0-.03.24c.74-.22,1.57-.43,2.48-.62,16.76-3.39,16.76,1.51,16.76,1.51-3.68,5.99-12.17,5.88-17.81,4.93a12.869,12.869,0,0,0,1.29,1.83,16.86678,16.86678,0,0,0,2.77,2.65c.59.45,1.77,1.35,3.46,2.58.42.31.88.64,1.37.99,10.28.02,37.5.44,43.56,4.38,6.41,4.17,34.31,19.54,42.35,23.95,6.03.2,15.29,1.4,25.03,2.93,4.2-2.23,13.69-5.79,29.59-4.13,22.49,2.35,30.86,3.92,29.56,9.68-1.06,4.67-7.13,8.83-16.93,6.58a17.60475,17.60475,0,0,1-2.27,2.04,115.18513,115.18513,0,0,0,19.88,2.37C604.23,176.22,609.58,170.54,611.46,163.12Zm-69.34-3.77a.72188.72188,0,0,1-.82.51l-8.83-1.65a.72154.72154,0,0,1-.54-.96c2.66-7.49.75-15.03-.11-17.72a.71658.71658,0,0,1,.76-.93l8.8.9a.712.712,0,0,1,.57.37C545.47,146.43,542.88,156.73,542.12,159.35Z"/><path class="cls-10" d="M428.68,132.19a316.34857,316.34857,0,0,0,32.58,20.32c2.69,1.46,5.48,2.93,8.38,4.38,6.99,3.51,14.52,6.96,22.44,10.06a57.79222,57.79222,0,0,1,17.68-6.27,28.872,28.872,0,0,1,4.84-.16c-8.04-4.42-35.94-19.78-42.35-23.95C466.18,132.62,438.96,132.2,428.68,132.19Z"/><path class="cls-2" d="M630.09,139.13a.57448.57448,0,0,0-.14.04c-.18.04-.37.09-.57.14-.06.01-.12.03-.18.04-.22.05-.45.11-.7.16-.05.01-.09.02-.14.03-.93.21-2.02.42-3.26.62h-.02a56.61288,56.61288,0,0,1-14.9.41h-.04c-.66-.07-1.32-.15-2-.25h0c2.64,5.41,5.56,14,3.33,22.8-1.88,7.42-7.23,13.1-12.01,16.88,1.46.04,2.95.06,4.47.05,14.88-.19,65.55.75,43.13-25.99l-15.07-14.88-.6-.41c-.23.07-.46.15-.72.22C630.49,139.03,630.3,139.08,630.09,139.13Z"/><path class="cls-2" d="M541.38,139.5l-8.8-.9a.72013.72013,0,0,0-.76.93c.86,2.7,2.77,10.23.11,17.72a.725.725,0,0,0,.54.96l8.83,1.65a.71287.71287,0,0,0,.82-.51c.75-2.62,3.34-12.93-.17-19.48A.73557.73557,0,0,0,541.38,139.5Z"/><path class="cls-2" d="M609.17,119.69c1.96-.53,3.18-.85,3.18-.85C611.33,119.07,610.27,119.36,609.17,119.69Z"/><path class="cls-2" d="M600.28,138.6c.31.09.62.18.92.27C600.9,138.78,600.59,138.69,600.28,138.6Z"/><path class="cls-2" d="M591.1,134.93c.14.07.27.14.41.21C591.37,135.07,591.23,134.99,591.1,134.93Z"/><path class="cls-2" d="M594.83,136.65c.24.1.47.19.7.29C595.3,136.85,595.06,136.75,594.83,136.65Z"/><path class="cls-2" d="M598.52,138.04c.34.12.68.22,1.02.33Z"/><path class="cls-2" d="M596.51,137.32c.24.09.47.18.71.27C596.99,137.5,596.75,137.41,596.51,137.32Z"/><path class="cls-2" d="M593.15,135.92c.2.09.39.17.59.26C593.55,136.09,593.35,136.01,593.15,135.92Z"/><path class="cls-2" d="M587.44,132.9c.18.11.36.21.53.31C587.8,133.11,587.62,133.01,587.44,132.9Z"/><path class="cls-2" d="M606.94,140.14c.4.07.8.13,1.19.19C607.74,140.27,607.34,140.2,606.94,140.14Z"/><path class="cls-2" d="M589.2,133.92c.19.11.39.21.58.32C589.59,134.13,589.39,134.02,589.2,133.92Z"/><path class="cls-2" d="M601.81,139.03c.33.09.66.18.99.26C602.47,139.21,602.14,139.12,601.81,139.03Z"/><path class="cls-2" d="M603.12,139.36c1.22.29,2.42.54,3.59.74C605.54,139.9,604.34,139.66,603.12,139.36Z"/><path class="cls-2" d="M629.37,139.31c.2-.05.39-.09.57-.14C629.76,139.21,629.57,139.26,629.37,139.31Z"/><path class="cls-2" d="M625.07,140.17a56.61286,56.61286,0,0,1-14.9.41A56.61243,56.61243,0,0,0,625.07,140.17Z"/><path class="cls-2" d="M628.49,139.51c.24-.05.48-.11.7-.16C628.97,139.4,628.74,139.46,628.49,139.51Z"/><path class="cls-2" d="M625.09,140.17c1.24-.2,2.34-.42,3.26-.62C627.43,139.75,626.33,139.97,625.09,140.17Z"/><path class="cls-2" d="M608.13,140.32c.68.1,1.34.18,2,.25C609.47,140.5,608.81,140.42,608.13,140.32Z"/><path class="cls-2" d="M630.09,139.13c.21-.05.41-.1.58-.15C630.49,139.03,630.3,139.08,630.09,139.13Z"/><path class="cls-8" d="M634.26,122.35s-2.85-8.45-5.14-11.28c-.59.28-1.18.55-1.75.82.37,3.05,2.75,9.17,3.19,10.28,3.31,1.36,5.75,2.89,5.57,4.38-.38,3.2-1.13,5.09-3.2,6.59,0,0,10.23,18.71,11.87,16.48,1.64-2.22-8.08-16.27-8.08-16.27s2.46-.82,4.8-1.64-.47-3.16-.47-3.16,11.12-3.98,10.18-6.2-14.98,2.93-14.98,2.93,5.74-10.07,7.73-14.75c1.22-2.87.5-5.08-.56-6.2-1.11.53-2.22,1.06-3.33,1.58C637.89,110.93,634.26,122.35,634.26,122.35Z"/><path class="cls-2" d="M669.84,81.16c-3.97,0-8.09,1.55-11.75,2.95-11.29,4.3-22.05,9.87-33.31,14.26q-7.56,2.955-15.16,5.83c-28.65,10.8-64.58,23.06-80.45,24.04-.67.77-1.02,1.35-.99,1.71.38,3.77,26.93,7.72,38.61,7.53,4.35-.07,10.93-2.29,17.47-5.04-2.4-.42-4.54-1.01-5.41-1.85-2.01-1.95,21.57-8.55,30.3-10.9,1.1-.33,2.16-.62,3.18-.85,3.8-1.74,9.07-4.17,15.02-6.95.58-.27,1.16-.54,1.75-.82,3.51-1.64,7.22-3.38,10.97-5.16,1.11-.53,2.22-1.05,3.33-1.58,17.65-8.42,35.23-17.2,36.6-19.4C680.02,84.93,674.74,81.16,669.84,81.16Z"/><path class="cls-2" d="M632.93,133.15c2.07-1.51,2.83-3.39,3.2-6.59.18-1.49-2.26-3.02-5.57-4.38a85.42918,85.42918,0,0,0-12.32-3.72,14.27221,14.27221,0,0,0-5.89.39s-1.22.32-3.18.85c-8.72,2.36-32.31,8.96-30.3,10.9.87.84,3,1.43,5.41,1.85,1.02.18,2.08.32,3.12.44h0c.01.01.03.02.04.03.18.11.36.21.53.31.41.24.81.47,1.22.7.19.11.39.21.58.32q.66.36,1.32.69c.14.07.27.14.41.21.55.27,1.1.53,1.65.79.2.09.39.17.59.26.36.16.73.32,1.09.47.24.1.47.19.7.29.33.13.65.26.98.38.24.09.47.18.71.27q.645.24,1.29.45c.34.12.68.22,1.02.33.25.08.5.16.74.23.31.09.62.18.92.27.2.06.4.11.61.17.33.09.66.18.99.26.11.03.22.05.32.08,1.22.29,2.42.54,3.59.74.07.01.15.03.22.04.4.07.8.13,1.19.19h0c.67.1,1.34.18,2,.25h.04a56.61216,56.61216,0,0,0,14.9-.41h.02c1.24-.2,2.34-.42,3.26-.62.05-.01.09-.02.14-.03.24-.05.48-.11.7-.16.06-.01.12-.03.18-.04.2-.05.39-.1.57-.14a.57448.57448,0,0,0,.14-.04c.21-.05.41-.1.58-.15.26-.07.5-.14.72-.22,4.12-1.37,2.1-3.74,2.1-3.74S630.86,134.65,632.93,133.15Z"/><ellipse class="cls-8" cx="589.65002" cy="130.38" rx="1.37" ry="2.02"/><path class="cls-10" d="M422.91,56.42c.61.2,15.25,59.18,15.86,59.79"/><path class="cls-10" d="M527.44,181.28s-1.19,2.19,1.01,2.37a22.07458,22.07458,0,0,0,5.34-.53V181.7Z"/><path class="cls-2" d="M490.48,438.33,771.6,377.57a8.31086,8.31086,0,0,0,6.25-10.35L725.6,178.82a8.30329,8.30329,0,0,0-10.42-5.73L441.54,255.93l37.64,175.11A9.52006,9.52006,0,0,0,490.48,438.33Z"/><path class="cls-2" d="M95.99,371.17,327.8,286.95,305.5,63.88a6.62222,6.62222,0,0,0-9.57-5.25L72.53,171.53a16.03358,16.03358,0,0,0-8.66,16.38l23.31,177.9A6.61645,6.61645,0,0,0,95.99,371.17Z"/><line class="cls-2" x1="305.72" y1="71.75" x2="63.87" y2="187.91"/><line class="cls-2" x1="528.65997" y1="242.97999" x2="724.5" y2="185.49"/><line class="cls-2" x1="82.83" y1="200.08999" x2="294.26001" y2="98.83"/><path class="cls-2" d="M710.77,213.58c-2.36-.47-241.69,77.26-241.69,77.26"/><line class="cls-2" x1="594.51001" y1="275.57998" x2="472.62" y2="314.63"/><path class="cls-2" d="M577.08,304.41q-24.465,7.425-48.94,14.84-20.895,6.33-41.8,12.67c-2.75.83-5.49,1.67-8.24,2.5"/><path class="cls-2" d="M600.82,297.21q-7.155,2.175-14.3,4.34"/><path class="cls-2" d="M534.15,339.74c-16.55,3.32-33.55,10.32-50.56,14.48"/><path class="cls-2" d="M607.13,318.84c-20.53,6.22-41.53,11.22-62.61,17.93"/><line class="cls-2" x1="613.44" y1="340.47" x2="489.07001" y2="374.01001"/><line class="cls-2" x1="619.75" y1="362.1" x2="494.54999" y2="393.80999"/><path class="cls-2" d="M577.88,395.15c-26.29,6.92-52.29,11.92-77.85,18.45"/><path class="cls-2" d="M626.06,383.73c-13.46,2.33-25.46,6.33-38.13,9.04"/><line class="cls-2" x1="710.58002" y1="234.39999" x2="613.79999" y2="265.63"/><line class="cls-2" x1="717.21997" y1="253.21" x2="619.81" y2="283.89001"/><line class="cls-2" x1="723.85999" y1="272.01998" x2="625.83002" y2="302.14001"/><line class="cls-2" x1="730.5" y1="290.82998" x2="631.84998" y2="320.39999"/><line class="cls-2" x1="737.14001" y1="309.64001" x2="637.85999" y2="338.66"/><line class="cls-2" x1="743.78003" y1="328.45001" x2="643.88" y2="356.91"/><line class="cls-2" x1="177.95" y1="178.08" x2="85.95" y2="222.02999"/><line class="cls-2" x1="202.45" y1="187.94" x2="87.69" y2="239.28999"/><line class="cls-2" x1="226.95" y1="197.80999" x2="89.43" y2="256.55999"/><line class="cls-2" x1="251.46001" y1="207.67999" x2="91.17" y2="273.82"/><line class="cls-2" x1="275.95999" y1="217.53999" x2="92.91" y2="291.07998"/><line class="cls-2" x1="300.45999" y1="227.41" x2="94.65" y2="308.35"/><line class="cls-2" x1="292.14001" y1="129.97" x2="224.7" y2="159.75"/><line class="cls-2" x1="295.56" y1="149.66999" x2="216.63" y2="183.47999"/><line class="cls-2" x1="305.82999" y1="240.22999" x2="192.44" y2="286.14999"/><line class="cls-2" x1="309.25" y1="267.79998" x2="184.38" y2="317.75"/><line class="cls-2" x1="155.24001" y1="301.41" x2="97.97" y2="322.85998"/><line class="cls-2" x1="157.09" y1="318.98001" x2="99.71" y2="340.11999"/><line class="cls-2" x1="158.94" y1="336.55999" x2="101.45" y2="357.38"/><path class="cls-3" d="M378.76,241.83c-4.13,5.1-10.18,11.86-13.07,11.66-3.34-.23-15.58-6.71-22.28-11.84-.33-.26-.65-.51-.96-.76q.06.615.09,1.23c.22,3.57-.07,6.92-1.81,7.47,1.45,2.71,4.51,6.15,10.8,9.94,14.79,8.91,25.29-2.7,26.72-7C379.14,249.9,379,245.14,378.76,241.83Z"/><path class="cls-3" d="M384.99,227.45c.01-2.67-.15-5.1-.68-6.09-1.13-2.13-3.18-19.56-21.95-21-18.77-1.43-26.4,12.72-27.36,17.02a41.55087,41.55087,0,0,0-.15,7.86c.43,9.84,2.32,24.78,5.55,24.43a1.2249,1.2249,0,0,0,.33-.08c1.74-.55,2.03-3.91,1.81-7.47-.02-.41-.06-.82-.09-1.23a71.93043,71.93043,0,0,0-1.26-8.08c7.81,2.01,22.05-2.58,30.4-4.87,2.87-.79,5.05-1.3,6.03-1.18.73.09,1.22.67,1.57,1.57.98,2.51.83,7.49,1.42,11.16.31,1.91.81,3.47,1.78,4.13,3.5,2.39,2.07-6.2,2.07-6.2S384.98,232.06,384.99,227.45Z"/><path class="cls-3" d="M369.67,238.87a7.32757,7.32757,0,0,1-5.22-3.13l-5.85,5.22c-5.27,2.45-11.83.23-16.36-2.03.08.64.16,1.3.21,1.96.31.25.62.5.96.76,6.7,5.13,18.94,11.61,22.28,11.84,2.88.2,8.93-6.56,13.07-11.66.68-.84,1.3-1.62,1.85-2.33-.2-1.26-.32-2.68-.42-4.09C376.4,237.07,371.58,238.99,369.67,238.87Z"/><path class="cls-3" d="M358.6,240.96l5.85-5.22a7.32757,7.32757,0,0,0,5.22,3.13c1.91.12,6.73-1.8,10.52-3.47-.2-2.71-.35-5.42-1-7.06-.35-.9-.85-1.48-1.57-1.57-.98-.12-3.16.39-6.03,1.18-8.35,2.29-22.59,6.88-30.4,4.87,0,0,.62,2.8,1.04,6.12C346.77,241.18,353.33,243.41,358.6,240.96Z"/><path class="cls-3" d="M294.76,310.59a26.37808,26.37808,0,0,1,16.68-8.17l-1.93-2.77a6.17958,6.17958,0,0,1-.83-1.36c-5,.76-12.4,3.05-20.44,10.07-13.84,12.09.48,16.38.48,16.38l.88.35C291.11,321.18,287.54,318.08,294.76,310.59Z"/><path class="cls-3" d="M363.17,347.85a71.20108,71.20108,0,0,1-10.67.27,36.6034,36.6034,0,0,1-14.85-3.91l-3.28,5.18s-2.67.77-6.71,1.86c2.76,4.85,5.77,9.17,7.21,8.02,3.02-2.42,9.97-4.23,9.97-4.23a76.46882,76.46882,0,0,0,20.84-4.66A21.35525,21.35525,0,0,1,363.17,347.85Z"/><path class="cls-3" d="M326.44,336.21a63.857,63.857,0,0,1-11.8-15.6,14.65226,14.65226,0,0,1-1.34-3.59,15.77063,15.77063,0,0,1,1.18-10.25l-3.04-4.35a26.37792,26.37792,0,0,0-16.68,8.17c-7.22,7.49-3.65,10.59-5.17,14.51a7.62176,7.62176,0,0,1-1.51,2.35c-4.77,5.25-4.93,11.77-3.02,19.72s.64,13.04,14.47,10.66c8.91-1.54,20.79-4.59,28.12-6.57,4.05-1.09,6.71-1.86,6.71-1.86l3.28-5.18A46.68816,46.68816,0,0,1,326.44,336.21Z"/><path class="cls-3" d="M233.41,237.33a9.96218,9.96218,0,0,1,2.77-6.59c-4.66-3.19-12.18-6.85-17.1-1.67,0,0-1.44,1.7,2.87,3.4,0,0-15.93,1.44-15.93,7.18,0,0,.91,3,3.66,2.87,0,0-4.05,2.22-2.35,3.79s6.4.91,6.4.91-5.22,3.79-2.48,4.96c2.74,1.18,8.1-.91,8.1-.91s-4.83,2.09-3.13,4.18,1.44,3.79,5.75,2.09c2.82-1.11,9.6-5.51,13.96-8.43C232.52,246.07,233.05,241.91,233.41,237.33Z"/><path class="cls-3" d="M425.77,382.26l-.73,1.58s8.88,3.66,14.63,8.36c2.88,2.35,10.71,9.4,10.71,9.4,10.32,3.92,15.15-.39,14.89-8.75s-23.51-21.55-27.82-23.25a4.21379,4.21379,0,0,0-2.77-.35C434.97,373.31,432.96,381.54,425.77,382.26Z"/><path class="cls-3" d="M434.67,369.25a3.71951,3.71951,0,0,0-.58-2.04c-1.75-1.91-2.54-2.54-5.25-11.61-2.7-9.07-9.07-8.11-13.68-10.66-4.61-2.54-3.66-10.5-4.77-16.22-.43-2.23-2.34-3.69-4.51-4.64a78.11661,78.11661,0,0,1-7.42,3.37s-5.57,8.91-11.13,11.45c-2.88,1.32-6.36,3.99-12.01,6.14a47.81877,47.81877,0,0,1-12.16,2.81,23.06005,23.06005,0,0,0,2.51,2.54c8.1,7.07,23.2,12.23,30.25,17.94C405.14,375.8,409.6,379.3,422,382a11.83453,11.83453,0,0,0,3.76.25C432.96,381.54,434.97,373.31,434.67,369.25Z"/><path class="cls-3" d="M547.01,253.69c1.17-.21,5.11-.64,5.11-.64,2.98-1.49,0-5.32-6.28-7.14s-14.91,6.82-15.44,6.92c-.53.11.32-2.45.32-5.75s-3.94-1.17-6.07,1.7c-2.13,2.88.11,5.96-2.45,5.75-1.04-.09-2.34-.12-3.52-.13-6.27,6.93-1.71,22.61-1.71,22.61s-.04.04-.1.11c4.73,1.27,12.73-4.11,13.75-4.7,1.28-.75,8.84,1.6,13.21-.32s1.06-3.83-1.28-5.01c-2.34-1.17-7.03-1.49-7.03-1.49,1.28-2.88,13.84-1.06,15.76-3.09,1.92-2.02-3.73-3.94-3.73-3.94a6.4771,6.4771,0,0,0,4.79-1.6C554.35,255.07,547.01,253.69,547.01,253.69Z"/><path class="cls-11" d="M390.14,257.46s-5.85,9.61-3.76,16.29,3.55,22.77,3.97,27.78,2.92,6.68,2.92,6.68"/><path class="cls-11" d="M360.9,262.68s-.42,7.73-4.18,13.79-5.64,33.63-2.51,37.6"/><path class="cls-3" d="M324.77,307.38c.09-.01.17-.01.26-.02-5.05-3.46-9.42-6.91-11.75-8.12a5.26382,5.26382,0,0,0-4.39-.54,5.62958,5.62958,0,0,0,.62.96l1.93,2.77,3.04,4.35s9.03,6.67,11.75,7.71Z"/><path class="cls-3" d="M398.6,312.94c-1.31.64-23.08,11.07-42.44,9.63.02,2.01-.28,3.72-1.1,4.66-1.6,1.83-5.74.02-7.94.02-2.6.01-2.88-3.6-2.47-7.18l-8.95-2.47a2.78489,2.78489,0,0,1-2.18.91c-5.85.02-7.32-3.95-7.32-3.95-2.72-1.04-11.77-7.68-11.77-7.68a15.76467,15.76467,0,0,0-1.16,10.25,14.69882,14.69882,0,0,0,1.35,3.59,64.12,64.12,0,0,0,11.85,15.57,46.14235,46.14235,0,0,0,11.22,7.97,36.55512,36.55512,0,0,0,14.86,3.87,70.88944,70.88944,0,0,0,10.67-.3,48.0222,48.0222,0,0,0,12.15-2.85c5.65-2.16,9.12-4.85,11.99-6.17,5.56-2.56,11.1-11.48,11.1-11.48s.32-.12.85-.34a72.19952,72.19952,0,0,0,1.25-9.92A7.09473,7.09473,0,0,0,398.6,312.94Z"/><path class="cls-3" d="M393.22,308.11c-4.87,3.95-24.24,6.4-37.95,7.37a39.36651,39.36651,0,0,1,.88,7.08c19.37,1.44,41.13-8.99,42.44-9.63A29.73938,29.73938,0,0,0,393.22,308.11Z"/><path class="cls-3" d="M344.4,315.94a20.86439,20.86439,0,0,1-8.04-2.02,4.09206,4.09206,0,0,1-.63,3.61l8.94,2.49a33.40638,33.40638,0,0,1,.76-4.1C345.07,315.94,344.72,315.94,344.4,315.94Z"/><path class="cls-3" d="M336.36,313.93a8.105,8.105,0,0,0-2.8-4.38,11.19909,11.19909,0,0,0-8.53-2.19c-.09.01-.17.01-.26.02l1.46,7.1s1.46,3.97,7.31,3.97a2.822,2.822,0,0,0,2.19-.91A4.09861,4.09861,0,0,0,336.36,313.93Z"/><path class="cls-3" d="M355.31,315.48c-.03-.16-.06-.31-.09-.47-.05-.25-.11-.5-.16-.75a42.56966,42.56966,0,0,0-4.95-1.33c-1.79-.34-3.47-.43-3.82.28a16.42715,16.42715,0,0,0-.85,2.71,33.06086,33.06086,0,0,0-.76,4.1c-.43,3.58-.16,7.19,2.45,7.19,2.2,0,6.33,1.82,7.94,0,.83-.94,1.13-2.65,1.12-4.66A41.26146,41.26146,0,0,0,355.31,315.48Z"/><path class="cls-3" d="M299.59,240.16s-2.96.9-3.86-1.55c0,0-1.42-4.64-4.76-5.02a28.107,28.107,0,0,1-8.76-2.19c-3.99-1.55-4.38-2.58-8.63-2.19s-30-2.83-32.58-1.55a16.818,16.818,0,0,0-4.83,3.06,10.0597,10.0597,0,0,0-2.77,6.59c-.35,4.58-.88,8.75,2.49,11.78,1.56,1.4,3.94,2.56,7.55,3.41,11.46,2.7,19.44,5.02,21.25,7.08,1.8,2.06,11.72,1.16,14.04,3.22s7.08,6.7,12.23,5.79c5.15-.9,8.63-2.45,11.97,1.67a72.91986,72.91986,0,0,0,7.6,7.47l11.55-38.69Z"/><path class="cls-3" d="M330.62,250.15l-7.94-2.3.73-8.85-1.32.06-11.55,38.69c.39.37-.11-.26,0,0,0,0-4.88,13.99-1.86,20.53.07.14.14.27.21.41a5.26372,5.26372,0,0,1,4.39.54c.27.14.57.32.89.51,5.66-11.29,13.14-36.74,16.93-50.3C330.8,249.88,330.62,250.15,330.62,250.15Z"/><path class="cls-3" d="M330.62,250.15s3.38-4.84,5.95-8.93a122.112,122.112,0,0,1-1.71-15.97c-1.95.73-10.42,4.43-11.44,13.76l-.73,8.85Z"/><path class="cls-3" d="M387.74,257.28c5.13.92,14.66.55,14.85,0,.17-.52-4.3-14.7,12.12-10.93-1.71-5.46-7.61-18.58-24.83-19.59a30.49363,30.49363,0,0,0-4.89.68c-.01,4.62-.52,9.98-.52,9.98s1.38,8.29-1.9,6.31C383.09,249.06,384.42,256.69,387.74,257.28Z"/><path class="cls-3" d="M407.9,291.74c-1.26-1.26,3.14,15.51,4.8,25.65,1.18-1.87,2.98-3.19,4.69-8.08,2.06-5.9,7-22.32,7.71-24.68a6.347,6.347,0,0,0-2.72,1.06C416.7,289.36,409.55,293.39,407.9,291.74Z"/><path class="cls-3" d="M513.78,253.58c-2.33.42-6.8,3.14-9.7,2.61-8.75-1.59-25.93-9.54-39.92-8.75-14,.8-16.38,4.29-26.56,4.29s-14.79,2.86-22.27-3.02a19.73538,19.73538,0,0,0-.62-2.36c-11.19-2.57-12.68,3.2-12.54,7.3.06,1.91.48,3.47.42,3.63,0,0,1.56,28.85,5.32,34.46a1.37593,1.37593,0,0,0,.72.33c2.45.45,8.69-3.1,13.76-6.38a6.347,6.347,0,0,1,2.72-1.06c.06-.19.09-.29.09-.29s10.34.32,20.2.32,10.66-2.39,14.32-.64,10.66,3.34,19.56.64c5.82-1.77,20.93-2.04,30.15-3.71a14.143,14.143,0,0,0,7.45-3.82c.06-.07.1-.11.1-.11s-4.56-15.68,1.71-22.61a8.4,8.4,0,0,1,1.15-1.08C519.82,253.33,518.46,252.74,513.78,253.58Z"/><path class="cls-11" d="M407.9,291.74s2.15,23.71-7.38,23.71"/><path class="cls-11" d="M403.69,273.92l-12.25,4.61s4.61,28.85,5.58,29.46,5.29,2.85,6.67-2.3c2.42-9.09-3.03-30.55-3.03-30.55"/><path class="cls-11" d="M432.05,384.84s3.74-.66,4.62-3.74c0,0,.22,3.96.88,4.18"/><path class="cls-3" d="M382.57,243.73a.81664.81664,0,0,1-.17-.11c-.97-.66-1.48-2.22-1.78-4.13-.55.71-1.18,1.5-1.85,2.33.24,3.31.37,8.08-.5,10.7-1.43,4.29-11.93,15.91-26.72,7-6.29-3.79-9.36-7.23-10.8-9.94a3.18362,3.18362,0,0,1-.33.08c-1.62.17-2.91-3.5-3.84-8.45-1.98,3.15-4.43,6.74-5.46,8.23-3.79,13.56-11.27,39.01-16.93,50.3,2.46,1.5,6.39,4.55,10.85,7.61a11.18644,11.18644,0,0,1,8.53,2.19,8.04781,8.04781,0,0,1,2.8,4.38,20.86372,20.86372,0,0,0,8.04,2.02c.32,0,.67,0,1.03-.01a16.42715,16.42715,0,0,1,.85-2.71c.36-.72,2.03-.62,3.82-.28a42.57944,42.57944,0,0,1,4.95,1.33c.05.24.11.49.16.75.03.15.06.31.09.47,13.03-.89,31.16-3.1,37.13-6.69a7.23584,7.23584,0,0,0,.84-.58s.18.12.46.33c-1.53-11.66-4.55-37.59-6.13-51.3C384.39,256.49,383.09,248.99,382.57,243.73Z"/><path class="cls-3" d="M407.9,291.74c-3.76-5.61-5.32-34.46-5.32-34.46-.16.49-7.73.83-13.01.25-.65-.07-1.27-.15-1.83-.25a316.16455,316.16455,0,0,1-.12-.04c1.58,13.71,4.59,39.64,6.13,51.3.05.04.11.08.17.13a29.36317,29.36317,0,0,1,4.73,4.37,7.12754,7.12754,0,0,1,1.95,4.14,72.442,72.442,0,0,1-1.28,9.91c1.33-.54,4.01-1.68,6.57-3.03,2.85-1.5,5.52-3.27,5.94-4.75a7.085,7.085,0,0,1,.88-1.94C411.03,307.25,406.64,290.48,407.9,291.74Z"/><path class="cls-3" d="M397.75,265.43s-6.18-2.18-5.58,4c.45,4.54,3.71,4.49,5.94,2.91C400.17,270.89,400.66,266.89,397.75,265.43Z"/><path class="cls-12" d="M376.83,242.6c-4.13,5.1-10.18,11.86-13.07,11.66-3.34-.23-15.58-6.71-22.28-11.84-.33-.26-.65-.51-.96-.76q.06.615.09,1.23c.22,3.57-.07,6.92-1.81,7.47,1.45,2.71,4.51,6.15,10.8,9.94,14.79,8.91,25.29-2.7,26.72-7C377.2,250.68,377.06,245.91,376.83,242.6Z"/><path class="cls-13" d="M382.88,229.4c.01-2.67-.15-5.1-.68-6.09-1.13-2.13-3.18-19.56-21.95-21-18.77-1.43-26.4,12.72-27.36,17.02a41.55176,41.55176,0,0,0-.15,7.86c.43,9.84,2.32,24.78,5.55,24.43a1.22471,1.22471,0,0,0,.33-.08c1.74-.55,2.03-3.91,1.81-7.47-.02-.41-.06-.82-.09-1.23a71.93356,71.93356,0,0,0-1.26-8.08c7.81,2.01,22.05-2.58,30.4-4.87,2.87-.79,5.05-1.3,6.03-1.18.73.09,1.22.67,1.57,1.57.98,2.51.83,7.49,1.42,11.16.31,1.91.81,3.47,1.78,4.13,3.5,2.39,2.07-6.2,2.07-6.2S382.87,234.02,382.88,229.4Z"/><path class="cls-14" d="M366.71,237.89a7.32757,7.32757,0,0,1-5.22-3.13l-5.85,5.22c-5.27,2.45-11.83.23-16.36-2.03.08.64.16,1.3.21,1.96.31.25.62.5.96.76,6.7,5.13,18.94,11.61,22.28,11.84,2.88.2,8.93-6.56,13.07-11.66.68-.84,1.3-1.62,1.85-2.33-.2-1.26-.32-2.68-.42-4.09C373.44,236.1,368.61,238.01,366.71,237.89Z"/><path class="cls-12" d="M356.5,242.91l5.85-5.22a7.32751,7.32751,0,0,0,5.22,3.13c1.91.12,6.73-1.8,10.52-3.47-.2-2.71-.35-5.42-1-7.06-.35-.9-.85-1.48-1.57-1.57-.98-.12-3.16.39-6.03,1.18-8.35,2.29-22.59,6.88-30.4,4.87,0,0,.62,2.8,1.04,6.12C344.66,243.14,351.23,245.37,356.5,242.91Z"/><path class="cls-12" d="M292.65,312.54a26.37818,26.37818,0,0,1,16.68-8.17l-1.93-2.77a6.17986,6.17986,0,0,1-.83-1.36c-5,.76-12.4,3.05-20.44,10.07-13.84,12.09.48,16.38.48,16.38l.88.35C289,323.14,285.43,320.03,292.65,312.54Z"/><path class="cls-13" d="M361.06,349.81a71.19992,71.19992,0,0,1-10.67.27,36.60335,36.60335,0,0,1-14.85-3.91l-3.28,5.18s-2.67.77-6.71,1.86c2.76,4.85,5.77,9.17,7.21,8.02,3.02-2.42,9.97-4.23,9.97-4.23a76.469,76.469,0,0,0,20.84-4.66A21.35678,21.35678,0,0,1,361.06,349.81Z"/><path class="cls-13" d="M324.34,338.17a63.8567,63.8567,0,0,1-11.8-15.6,14.652,14.652,0,0,1-1.34-3.59,15.77061,15.77061,0,0,1,1.18-10.25l-3.04-4.35a26.378,26.378,0,0,0-16.68,8.17c-7.22,7.49-3.65,10.59-5.17,14.51a7.62176,7.62176,0,0,1-1.51,2.35c-4.77,5.25-4.93,11.77-3.02,19.72s.64,13.04,14.47,10.66c8.91-1.54,20.79-4.59,28.12-6.57,4.05-1.09,6.71-1.86,6.71-1.86l3.28-5.18A46.296,46.296,0,0,1,324.34,338.17Z"/><path class="cls-12" d="M231.3,239.29a9.96223,9.96223,0,0,1,2.77-6.59c-4.66-3.19-12.18-6.85-17.1-1.67,0,0-1.44,1.7,2.87,3.4,0,0-15.93,1.44-15.93,7.18,0,0,.91,3,3.66,2.87,0,0-4.05,2.22-2.35,3.79s6.4.91,6.4.91-5.22,3.79-2.48,4.96c2.74,1.18,8.1-.91,8.1-.91s-4.83,2.09-3.13,4.18,1.44,3.79,5.75,2.09c2.82-1.11,9.6-5.51,13.96-8.43C230.41,248.03,230.95,243.87,231.3,239.29Z"/><path class="cls-12" d="M424.5,381.97l-.73,1.58s8.88,3.66,14.63,8.36c2.88,2.35,10.71,9.4,10.71,9.4,10.32,3.92,15.15-.39,14.89-8.75s-23.51-21.55-27.82-23.25a4.21379,4.21379,0,0,0-2.77-.35C433.71,373.02,431.69,381.25,424.5,381.97Z"/><path class="cls-13" d="M432.56,371.21a3.71956,3.71956,0,0,0-.58-2.04c-1.75-1.91-2.54-2.54-5.25-11.61-2.7-9.07-9.07-8.11-13.68-10.66-4.61-2.54-3.66-10.5-4.77-16.22-.43-2.23-2.34-3.69-4.51-4.64a78.11705,78.11705,0,0,1-7.42,3.37s-5.57,8.91-11.13,11.45c-2.88,1.32-6.36,3.99-12.01,6.14a47.81915,47.81915,0,0,1-12.16,2.81,23.06005,23.06005,0,0,0,2.51,2.54c8.1,7.07,23.2,12.23,30.25,17.94,9.23,7.48,13.68,10.97,26.09,13.68a11.83456,11.83456,0,0,0,3.76.25C430.85,383.5,432.87,375.27,432.56,371.21Z"/><path class="cls-12" d="M544.9,255.65c1.17-.21,5.11-.64,5.11-.64,2.98-1.49,0-5.32-6.28-7.14s-14.91,6.82-15.44,6.92c-.53.11.32-2.45.32-5.75s-3.94-1.17-6.07,1.7c-2.13,2.88.11,5.96-2.45,5.75-1.04-.09-2.34-.12-3.52-.13-6.27,6.93-1.71,22.61-1.71,22.61s-.04.04-.1.11c4.73,1.27,12.73-4.11,13.75-4.7,1.28-.75,8.84,1.6,13.21-.32s1.06-3.83-1.28-5.01c-2.34-1.17-7.03-1.49-7.03-1.49,1.28-2.88,13.84-1.06,15.76-3.09,1.92-2.02-3.73-3.94-3.73-3.94a6.47713,6.47713,0,0,0,4.79-1.6C552.24988,257.00991,544.9,255.65,544.9,255.65Z"/><path class="cls-2" d="M388.04,259.42s-5.85,9.61-3.76,16.29,3.55,22.77,3.97,27.78,2.92,6.68,2.92,6.68"/><path class="cls-2" d="M358.79,264.64s-.42,7.73-4.18,13.79-5.64,33.63-2.51,37.6"/><path class="cls-12" d="M322.94,309.33c.09-.01.17-.01.26-.02-5.05-3.46-9.42-6.91-11.75-8.12a5.26387,5.26387,0,0,0-4.39-.54,5.62853,5.62853,0,0,0,.62.96l1.93,2.77,3.04,4.35s9.03,6.67,11.75,7.71Z"/><path class="cls-13" d="M396.49,314.89c-1.31.64-23.08,11.07-42.44,9.63.02,2.01-.28,3.72-1.1,4.66-1.6,1.83-5.74.02-7.94.02-2.6.01-2.88-3.6-2.47-7.18l-8.95-2.47a2.78491,2.78491,0,0,1-2.18.91c-5.85.02-7.32-3.95-7.32-3.95-2.72-1.04-11.77-7.68-11.77-7.68a15.76471,15.76471,0,0,0-1.16,10.25,14.69908,14.69908,0,0,0,1.35,3.59,64.12012,64.12012,0,0,0,11.85,15.57,46.14212,46.14212,0,0,0,11.22,7.97,36.555,36.555,0,0,0,14.86,3.87,70.8883,70.8883,0,0,0,10.67-.3,48.02157,48.02157,0,0,0,12.15-2.85c5.65-2.16,9.12-4.85,11.99-6.17,5.56-2.56,11.1-11.48,11.1-11.48s.32-.12.85-.34a72.198,72.198,0,0,0,1.25-9.92A7.149,7.149,0,0,0,396.49,314.89Z"/><path class="cls-12" d="M391.4,310.07c-4.87,3.95-24.24,6.4-37.95,7.37a39.36665,39.36665,0,0,1,.88,7.08c19.37,1.44,41.13-8.99,42.44-9.63A30.10837,30.10837,0,0,0,391.4,310.07Z"/><path class="cls-12" d="M342.57,317.9a20.86448,20.86448,0,0,1-8.04-2.02,4.09206,4.09206,0,0,1-.63,3.61l8.94,2.49a33.40431,33.40431,0,0,1,.76-4.1C343.24,317.9,342.9,317.9,342.57,317.9Z"/><path class="cls-13" d="M297.48,242.12s-2.96.9-3.86-1.55c0,0-1.42-4.64-4.76-5.02a28.10693,28.10693,0,0,1-8.76-2.19c-3.99-1.55-4.38-2.58-8.63-2.19s-30-2.83-32.58-1.55a16.81759,16.81759,0,0,0-4.83,3.06,10.05973,10.05973,0,0,0-2.77,6.59c-.35,4.58-.88,8.75,2.49,11.78,1.56,1.4,3.94,2.56,7.55,3.41,11.46,2.7,19.44,5.02,21.25,7.08,1.8,2.06,11.72,1.16,14.04,3.22s7.08,6.7,12.23,5.79c5.15-.9,8.63-2.45,11.97,1.67a72.92,72.92,0,0,0,7.6,7.47L319.97,241Z"/><path class="cls-12" d="M328.51,252.1l-7.94-2.3.73-8.85-1.32.06L308.43,279.7c.39.37-.11-.26,0,0,0,0-4.88,13.99-1.86,20.53.07.14.14.27.21.41a5.26377,5.26377,0,0,1,4.39.54c.27.14.57.32.89.51,5.66-11.29,13.14-36.74,16.93-50.3C328.69,251.84,328.51,252.1,328.51,252.1Z"/><path class="cls-13" d="M328.51,252.1s3.38-4.84,5.95-8.93a122.11354,122.11354,0,0,1-1.71-15.97c-1.95.73-10.42,4.43-11.44,13.76l-.73,8.85Z"/><path class="cls-13" d="M385.63,259.24c5.13.92,14.66.55,14.85,0,.17-.52-4.3-14.7,12.12-10.93-1.71-5.46-7.61-18.58-24.83-19.59a30.49508,30.49508,0,0,0-4.89.68c-.01,4.62-.52,9.98-.52,9.98s1.38,8.29-1.9,6.31C380.99,251.01,382.31,258.65,385.63,259.24Z"/><path class="cls-12" d="M405.79,293.7c-1.26-1.26,3.14,15.51,4.8,25.65,1.18-1.87,2.98-3.19,4.69-8.08,2.06-5.9,7-22.32,7.71-24.68a6.34712,6.34712,0,0,0-2.72,1.06C414.59,291.32,407.44,295.35,405.79,293.7Z"/><path class="cls-13" d="M511.67,255.54c-2.33.42-6.8,3.14-9.7,2.61-8.75-1.59-25.93-9.54-39.92-8.75-14,.8-16.38,4.29-26.56,4.29s-14.79,2.86-22.27-3.02a19.73384,19.73384,0,0,0-.62-2.36c-11.19-2.57-12.68,3.2-12.54,7.3.06,1.91.48,3.47.42,3.63,0,0,1.56,28.85,5.32,34.46a1.37579,1.37579,0,0,0,.72.33c2.45.45,8.69-3.1,13.76-6.38a6.34712,6.34712,0,0,1,2.72-1.06c.06-.19.09-.29.09-.29s10.34.32,20.2.32,10.66-2.39,14.32-.64,10.66,3.34,19.56.64c5.82-1.77,20.93-2.04,30.15-3.71a14.143,14.143,0,0,0,7.45-3.82c.06-.07.1-.11.1-.11s-4.56-15.68,1.71-22.61a8.4,8.4,0,0,1,1.15-1.08C517.71,255.28,516.35,254.69,511.67,255.54Z"/><path class="cls-2" d="M405.79,293.7s2.15,23.71-7.38,23.71"/><path class="cls-2" d="M401.58,275.88l-12.25,4.61s4.61,28.85,5.58,29.46,5.29,2.85,6.67-2.3c2.42-9.09-3.03-30.55-3.03-30.55"/><path class="cls-2" d="M429.94,386.8s3.74-.66,4.62-3.74c0,0,.22,3.96.88,4.18"/><path class="cls-13" d="M380.46,245.69a.81658.81658,0,0,1-.17-.11c-.97-.66-1.48-2.22-1.78-4.13-.55.71-1.18,1.5-1.85,2.33.24,3.31.37,8.08-.5,10.7-1.43,4.29-11.93,15.91-26.72,7-6.29-3.79-9.36-7.23-10.8-9.94a3.186,3.186,0,0,1-.33.08c-1.62.17-2.91-3.5-3.84-8.45-1.98,3.15-4.43,6.74-5.46,8.23-3.79,13.56-11.27,39.01-16.93,50.3,2.46,1.5,6.39,4.55,10.85,7.61a11.18639,11.18639,0,0,1,8.53,2.19,8.04776,8.04776,0,0,1,2.8,4.38,20.86381,20.86381,0,0,0,8.04,2.02c.32,0,.67,0,1.03-.01a16.42643,16.42643,0,0,1,.85-2.71c.36-.72,2.03-.62,3.82-.28a42.57776,42.57776,0,0,1,4.95,1.33c.05.24.11.49.16.75.03.15.06.31.09.47,13.03-.89,31.16-3.1,37.13-6.69a7.23568,7.23568,0,0,0,.84-.58s.18.12.46.33c-1.53-11.66-2.87-37.45-4.45-51.17C383.96,258.58,380.98,250.95,380.46,245.69Z"/><path class="cls-12" d="M405.79,293.7c-3.76-5.61-5.35-35.72-5.35-35.72-.16.49-6.49.06-11.77-.52-.65-.07-2.37-.29-2.39-.3-.02,0-1.22,9.02-.91,13.16.17,2.2,1.35,4.13,1.54,5.81,1.57,13.48,3.59,25.79,4.72,34.37.05.04.11.08.17.13a29.36327,29.36327,0,0,1,4.73,4.37,7.12753,7.12753,0,0,1,1.95,4.14,72.44023,72.44023,0,0,1-1.28,9.91c1.33-.54,4.01-1.68,6.57-3.03,2.85-1.5,5.52-3.27,5.94-4.75a7.0848,7.0848,0,0,1,.88-1.94C408.93,309.21,404.53,292.44,405.79,293.7Z"/><path class="cls-5" d="M395.64,267.39s-6.18-2.18-5.58,4c.45,4.54,3.71,4.49,5.94,2.91C398.06,272.85,398.55,268.84,395.64,267.39Z"/><path class="cls-5" d="M334.82,314.76a8.105,8.105,0,0,0-2.8-4.38,11.199,11.199,0,0,0-8.53-2.19c-.09.01-.17.01-.26.02l1.46,7.1s1.46,3.97,7.31,3.97a2.822,2.822,0,0,0,2.19-.91A4.12348,4.12348,0,0,0,334.82,314.76Z"/><path class="cls-5" d="M353.76,316.04c-.03-.16-.06-.31-.09-.47-.05-.25-.11-.5-.16-.75a42.57067,42.57067,0,0,0-4.95-1.33c-1.79-.34-3.47-.43-3.82.28a16.42715,16.42715,0,0,0-.85,2.71,33.06289,33.06289,0,0,0-.76,4.1c-.43,3.58-.16,7.19,2.45,7.19,2.2,0,6.33,1.82,7.94,0,.83-.94,1.13-2.65,1.12-4.66A40.1769,40.1769,0,0,0,353.76,316.04Z"/><path class="cls-2" d="M377.86,241.74c-4.13,5.1-10.18,11.86-13.07,11.66-3.34-.23-15.58-6.71-22.28-11.84-.33-.26-.65-.51-.96-.76q.06.615.09,1.23c.22,3.57-.07,6.92-1.81,7.47,1.45,2.71,4.51,6.15,10.8,9.94,14.79,8.91,25.29-2.7,26.72-7C378.24,249.82,378.1,245.05,377.86,241.74Z"/><path class="cls-2" d="M384.09,227.36c.01-2.67-.15-5.1-.68-6.09-1.13-2.13-3.18-19.56-21.95-21-18.77-1.43-26.4,12.72-27.36,17.02a41.55151,41.55151,0,0,0-.15,7.86c.43,9.84,2.32,24.78,5.55,24.43a1.22471,1.22471,0,0,0,.33-.08c1.74-.55,2.03-3.91,1.81-7.47-.02-.41-.06-.82-.09-1.23a71.93356,71.93356,0,0,0-1.26-8.08c7.81,2.01,22.05-2.58,30.4-4.87,2.87-.79,5.05-1.3,6.03-1.18.73.09,1.22.67,1.57,1.57.98,2.51.83,7.49,1.42,11.16.31,1.91.81,3.47,1.78,4.13,3.5,2.39,2.07-6.2,2.07-6.2S384.08,231.98,384.09,227.36Z"/><path class="cls-2" d="M368.77,238.78a7.32751,7.32751,0,0,1-5.22-3.13l-5.85,5.22c-5.27,2.45-11.83.23-16.36-2.03.08.64.16,1.3.21,1.96.31.25.62.5.96.76,6.7,5.13,18.94,11.61,22.28,11.84,2.88.2,8.93-6.56,13.07-11.66.68-.84,1.3-1.62,1.85-2.33-.2-1.26-.32-2.68-.42-4.09C375.5,236.99,370.68,238.9,368.77,238.78Z"/><path class="cls-2" d="M357.7,240.87l5.85-5.22a7.32751,7.32751,0,0,0,5.22,3.13c1.91.12,6.73-1.8,10.52-3.47-.2-2.71-.35-5.42-1-7.06-.35-.9-.85-1.48-1.57-1.57-.98-.12-3.16.39-6.03,1.18-8.35,2.29-22.59,6.88-30.4,4.87,0,0,.62,2.8,1.04,6.12C345.87,241.1,352.43,243.33,357.7,240.87Z"/><path class="cls-2" d="M293.86,310.5a26.37811,26.37811,0,0,1,16.68-8.17l-1.93-2.77a6.17951,6.17951,0,0,1-.83-1.36c-5,.76-12.4,3.05-20.44,10.07-13.84,12.09.48,16.38.48,16.38l.88.35C290.21,321.1,286.64,317.99,293.86,310.5Z"/><path class="cls-2" d="M362.26,347.77a71.19978,71.19978,0,0,1-10.67.27,36.6034,36.6034,0,0,1-14.85-3.91l-3.28,5.18s-2.67.77-6.71,1.86c2.76,4.85,5.77,9.17,7.21,8.02,3.02-2.42,9.97-4.23,9.97-4.23a76.46932,76.46932,0,0,0,20.84-4.66A22.98106,22.98106,0,0,1,362.26,347.77Z"/><path class="cls-2" d="M325.54,336.13a63.85677,63.85677,0,0,1-11.8-15.6,14.65239,14.65239,0,0,1-1.34-3.59,15.77065,15.77065,0,0,1,1.18-10.25l-3.04-4.35a26.378,26.378,0,0,0-16.68,8.17c-7.22,7.49-3.65,10.59-5.17,14.51a7.62173,7.62173,0,0,1-1.51,2.35c-4.77,5.25-4.93,11.77-3.02,19.72s.64,13.04,14.47,10.66c8.91-1.54,20.79-4.59,28.12-6.57,4.05-1.09,6.71-1.86,6.71-1.86l3.28-5.18A46.68749,46.68749,0,0,1,325.54,336.13Z"/><path class="cls-2" d="M232.51,237.25a9.96218,9.96218,0,0,1,2.77-6.59c-4.66-3.19-12.18-6.85-17.1-1.67,0,0-1.44,1.7,2.87,3.4,0,0-15.93,1.44-15.93,7.18,0,0,.91,3,3.66,2.87,0,0-4.05,2.22-2.35,3.79s6.4.91,6.4.91-5.22,3.79-2.48,4.96c2.74,1.18,8.1-.91,8.1-.91s-4.83,2.09-3.13,4.18,1.44,3.79,5.75,2.09c2.82-1.11,9.6-5.51,13.96-8.43C231.62,245.99,232.15,241.83,232.51,237.25Z"/><path class="cls-2" d="M424.87,382.17l-.73,1.58s8.88,3.66,14.63,8.36c2.88,2.35,10.71,9.4,10.71,9.4,10.32,3.92,15.15-.39,14.89-8.75s-23.51-21.55-27.82-23.25a4.21392,4.21392,0,0,0-2.77-.35C434.07,373.22,432.06,381.46,424.87,382.17Z"/><path class="cls-2" d="M433.77,369.17a3.71956,3.71956,0,0,0-.58-2.04c-1.75-1.91-2.54-2.54-5.25-11.61-2.7-9.07-9.07-8.11-13.68-10.66-4.61-2.54-3.66-10.5-4.77-16.22-.43-2.23-2.34-3.69-4.51-4.64a78.11846,78.11846,0,0,1-7.42,3.37s-5.57,8.91-11.13,11.45c-2.88,1.32-6.36,3.99-12.01,6.14a47.81911,47.81911,0,0,1-12.16,2.81,23.06,23.06,0,0,0,2.51,2.54c8.1,7.07,23.2,12.23,30.25,17.94,9.23,7.48,13.68,10.97,26.09,13.68a11.83424,11.83424,0,0,0,3.76.25C432.06,381.46,434.07,373.22,433.77,369.17Z"/><path class="cls-2" d="M546.1,253.6c1.17-.21,5.11-.64,5.11-.64,2.98-1.49,0-5.32-6.28-7.14s-14.91,6.82-15.44,6.92c-.53.11.32-2.45.32-5.75s-3.94-1.17-6.07,1.7c-2.13,2.88.11,5.96-2.45,5.75-1.04-.09-2.34-.12-3.52-.13-6.27,6.93-1.71,22.61-1.71,22.61s-.04.04-.1.11c4.73,1.27,12.73-4.11,13.75-4.7,1.28-.75,8.84,1.6,13.21-.32s1.06-3.83-1.28-5.01c-2.34-1.17-7.03-1.49-7.03-1.49,1.28-2.88,13.84-1.06,15.76-3.09,1.92-2.02-3.73-3.94-3.73-3.94a6.47716,6.47716,0,0,0,4.79-1.6C553.45,254.99,546.1,253.6,546.1,253.6Z"/><path class="cls-2" d="M389.24,257.37s-5.85,9.61-3.76,16.29,3.55,22.77,3.97,27.78,2.92,6.68,2.92,6.68"/><path class="cls-2" d="M360,262.6s-.42,7.73-4.18,13.79-5.64,33.63-2.51,37.6"/><path class="cls-2" d="M323.87,307.29c.09-.01.17-.01.26-.02-5.05-3.46-9.42-6.91-11.75-8.12a5.26387,5.26387,0,0,0-4.39-.54,5.62858,5.62858,0,0,0,.62.96l1.93,2.77,3.04,4.35s9.03,6.67,11.75,7.71Z"/><path class="cls-2" d="M397.74,312.97c-1.31.64-23.11,11.01-42.47,9.51.01,2.01-.29,3.72-1.12,4.66-1.61,1.82-5.74,0-7.94,0-2.6,0-2.87-3.61-2.45-7.19l-8.94-2.49a2.807,2.807,0,0,1-2.19.91c-5.85,0-7.31-3.97-7.31-3.97-2.72-1.04-11.75-7.71-11.75-7.71a15.77065,15.77065,0,0,0-1.18,10.25,14.65239,14.65239,0,0,0,1.34,3.59,64.12183,64.12183,0,0,0,11.8,15.6,46.68676,46.68676,0,0,0,11.2,8.01,36.64631,36.64631,0,0,0,14.85,3.91,71.20518,71.20518,0,0,0,10.67-.27,48.24942,48.24942,0,0,0,12.16-2.81c5.65-2.15,9.13-4.82,12.01-6.14,5.57-2.54,11.13-11.45,11.13-11.45s.32-.12.85-.34a72.63481,72.63481,0,0,0,1.28-9.91A7.01779,7.01779,0,0,0,397.74,312.97Z"/><path class="cls-2" d="M392.38,308.13c-4.88,3.94-24.26,6.33-37.97,7.27a38.41381,38.41381,0,0,1,.86,7.08c19.36,1.49,41.16-8.88,42.47-9.51A30.30008,30.30008,0,0,0,392.38,308.13Z"/><path class="cls-2" d="M343.5,315.86a20.86448,20.86448,0,0,1-8.04-2.02,4.09206,4.09206,0,0,1-.63,3.61l8.94,2.49a33.40467,33.40467,0,0,1,.76-4.1C344.17,315.86,343.82,315.86,343.5,315.86Z"/><path class="cls-2" d="M335.46,313.84a8.10494,8.10494,0,0,0-2.8-4.38,11.199,11.199,0,0,0-8.53-2.19c-.09.01-.17.01-.26.02l1.46,7.1s1.46,3.97,7.31,3.97a2.822,2.822,0,0,0,2.19-.91A4.092,4.092,0,0,0,335.46,313.84Z"/><path class="cls-2" d="M354.41,315.4c-.03-.16-.06-.31-.09-.47-.05-.25-.11-.5-.16-.75a42.569,42.569,0,0,0-4.95-1.33c-1.79-.34-3.47-.43-3.82.28a16.42743,16.42743,0,0,0-.85,2.71,33.05936,33.05936,0,0,0-.76,4.1c-.43,3.58-.16,7.19,2.45,7.19,2.2,0,6.33,1.82,7.94,0,.83-.94,1.13-2.65,1.12-4.66A41.26135,41.26135,0,0,0,354.41,315.4Z"/><path class="cls-2" d="M298.69,240.08s-2.96.9-3.86-1.55c0,0-1.42-4.64-4.76-5.02a28.10693,28.10693,0,0,1-8.76-2.19c-3.99-1.55-4.38-2.58-8.63-2.19s-30-2.83-32.58-1.55a16.81778,16.81778,0,0,0-4.83,3.06,10.05968,10.05968,0,0,0-2.77,6.59c-.35,4.58-.88,8.75,2.49,11.78,1.56,1.4,3.94,2.56,7.55,3.41,11.46,2.7,19.44,5.02,21.25,7.08,1.8,2.06,11.72,1.16,14.04,3.22s7.08,6.7,12.23,5.79c5.15-.9,8.63-2.45,11.97,1.67a72.92,72.92,0,0,0,7.6,7.47l11.55-38.69Z"/><path class="cls-2" d="M329.72,250.06l-7.94-2.3.73-8.85-1.32.06-11.55,38.69c.39.37-.11-.26,0,0,0,0-4.88,13.99-1.86,20.53.07.14.14.27.21.41a5.2638,5.2638,0,0,1,4.39.54c.27.14.57.32.89.51,5.66-11.29,13.14-36.74,16.93-50.3C329.9,249.8,329.72,250.06,329.72,250.06Z"/><path class="cls-2" d="M329.72,250.06s3.38-4.84,5.95-8.93a122.11354,122.11354,0,0,1-1.71-15.97c-1.95.73-10.42,4.43-11.44,13.76l-.73,8.85Z"/><path class="cls-2" d="M386.84,257.2c5.13.92,14.66.55,14.85,0,.17-.52-4.3-14.7,12.12-10.93-1.71-5.46-7.61-18.58-24.83-19.59a30.49487,30.49487,0,0,0-4.89.68c-.01,4.62-.52,9.98-.52,9.98s1.38,8.29-1.9,6.31C382.19,248.97,383.52,256.61,386.84,257.2Z"/><path class="cls-2" d="M407,291.66c-1.26-1.26,3.14,15.51,4.8,25.65,1.18-1.87,2.98-3.19,4.69-8.08,2.06-5.9,7-22.32,7.71-24.68a6.34712,6.34712,0,0,0-2.72,1.06C415.8,289.28,408.65,293.31,407,291.66Z"/><path class="cls-2" d="M388.67,257.45c-.65-.07-1.27-.15-1.83-.25-3.32-.59-4.64-8.23-5.17-13.55a.816.816,0,0,1-.17-.11c-.97-.66-1.48-2.22-1.78-4.13-.55.71-1.18,1.5-1.85,2.33.24,3.31.37,8.08-.5,10.7-1.43,4.29-11.93,15.91-26.72,7-6.29-3.79-9.36-7.23-10.8-9.94a3.18937,3.18937,0,0,1-.33.08c-1.62.17-2.91-3.5-3.84-8.45-1.98,3.15-4.43,6.74-5.46,8.23-3.79,13.56-11.27,39.01-16.93,50.3,2.46,1.5,6.39,4.55,10.85,7.61a11.18638,11.18638,0,0,1,8.53,2.19,8.04773,8.04773,0,0,1,2.8,4.38,20.86381,20.86381,0,0,0,8.04,2.02c.32,0,.67,0,1.03-.01a16.42615,16.42615,0,0,1,.85-2.71c.36-.72,2.03-.62,3.82-.28a42.57776,42.57776,0,0,1,4.95,1.33c.05.24.11.49.16.75.03.15.06.31.09.47,13.03-.89,31.16-3.1,37.13-6.69a7.23709,7.23709,0,0,0,.84-.58,29.92525,29.92525,0,0,1,5.36,4.84,7.12747,7.12747,0,0,1,1.95,4.14,72.44023,72.44023,0,0,1-1.28,9.91c1.33-.54,4.01-1.68,6.57-3.03,2.85-1.5,5.52-3.27,5.94-4.75a7.0851,7.0851,0,0,1,.88-1.94c-1.67-10.14-6.06-26.91-4.8-25.65-3.76-5.61-5.32-34.46-5.32-34.46C401.52,257.69,393.95,258.03,388.67,257.45Z"/><path class="cls-2" d="M512.88,253.5c-2.33.42-6.8,3.14-9.7,2.61-8.75-1.59-25.93-9.54-39.92-8.75-14,.8-16.38,4.29-26.56,4.29s-14.79,2.86-22.27-3.02a19.73384,19.73384,0,0,0-.62-2.36c-11.19-2.57-12.68,3.2-12.54,7.3.06,1.91.48,3.47.42,3.63,0,0,1.56,28.85,5.32,34.46a1.37587,1.37587,0,0,0,.72.33c2.45.45,8.69-3.1,13.76-6.38a6.34712,6.34712,0,0,1,2.72-1.06c.06-.19.09-.29.09-.29s10.34.32,20.2.32,10.66-2.39,14.32-.64,10.66,3.34,19.56.64c5.82-1.77,20.93-2.04,30.15-3.71a14.143,14.143,0,0,0,7.45-3.82c.06-.07.1-.11.1-.11s-4.56-15.68,1.71-22.61a8.39933,8.39933,0,0,1,1.15-1.08C518.92,253.24,517.56,252.65,512.88,253.5Z"/><path class="cls-2" d="M398.41,327.02s1.41,11.24-5.88,16.31c-7.3,5.07-20.06,10.34-21.08,9.93-1.01-.41-3.65,0-3.65,0"/><path class="cls-2" d="M330.51,350.43l-17.23-25.74s.61-2.43,1.82-2.43"/><path class="cls-2" d="M294.84,329.15c.61-.61,8.51-15.4,13.98-15.61,0,0,.2-5.67-9.93.81"/><path class="cls-2" d="M318.76,257.61s-10.54,23.51-7.5,25.13,18.95-33.38,18.95-33.38"/><path class="cls-2" d="M407,291.66s2.15,23.71-7.38,23.71"/><path class="cls-2" d="M408.97,261.23c-1.09,7.4,2.06,24.73,2.06,24.73s.85,3.64,2.67,2.18"/><path class="cls-2" d="M402.79,273.84l-12.25,4.61s4.61,28.85,5.58,29.46,5.29,2.85,6.67-2.3c2.42-9.09-3.03-30.55-3.03-30.55"/><path class="cls-2" d="M396.85,265.35s-6.18-2.18-5.58,4c.45,4.54,3.71,4.49,5.94,2.91C399.27,270.8,399.76,266.8,396.85,265.35Z"/><path class="cls-2" d="M431.15,384.75s3.74-.66,4.62-3.74c0,0,.22,3.96.88,4.18"/><path class="cls-2" d="M365.45,244.6s-2.11,3.73-5.63.16"/></g></svg>