<?xml version="1.0" encoding="utf-8"?>
<!-- Generator: Adobe Illustrator 24.0.3, SVG Export Plug-In . SVG Version: 6.00 Build 0)  -->
<svg version="1.1" xmlns="http://www.w3.org/2000/svg" xmlns:xlink="http://www.w3.org/1999/xlink" x="0px" y="0px"
	 viewBox="0 0 841.89 467.72" style="enable-background:new 0 0 841.89 467.72;" xml:space="preserve">
<style type="text/css">
	.st0{fill:#61A575;}
	.st1{fill:#FFFFFF;}
	.st2{fill:#DCEFFA;}
	.st3{fill:#F4F4F5;}
	.st4{fill:none;stroke:#54575C;stroke-miterlimit:10;}
	.st5{fill:#E0635D;}
	.st6{fill:#54575C;}
	.st7{fill:none;}
	.st8{fill:#DEA377;}
	.st9{fill:#4890BA;}
	.st10{clip-path:url(#SVGID_2_);}
	.st11{fill:#D3814E;}
	.st12{fill:#F5C65D;}
	.st13{fill:#D6D8D9;}
	.st14{fill:#3C3C3B;}
</style>
<g id="Layer_1">
</g>
<g id="Layer_2">
</g>
<g id="Layer_3">
	<rect x="-3.01" y="-1.75" class="st0" width="845.84" height="469.17"/>
	<g>
		<g>
			<path class="st1" d="M290.43,209.29h443.29v-25.57h-206.6c8.18-33.87,72.82-127,98.44-163.02h-45.29
				c-34.71,46.73-81.64,160.83-81.64,160.83l6.46-160.83h-29.84v163.75H291.16v-74.51h133.69V20.7h-28.49v66.59H258.28V20.7H237.1
				v103.12h-53.8v17.91l90.33-1.11l-2.92,43.83l-35.8,23.38l-51.61,21.31v25.13l89.6-40.6c0,0,2.92,68.67,2.92,71.59
				c0,2.17-40.71,72.86-61.65,109.08h27.22l46.94-93.74H548.3v93.74h17.53V300.6h167.89v-21.19H290.43V209.29z"/>
			<rect x="290.43" y="209.29" class="st1" width="443.29" height="70.13"/>
			<path class="st1" d="M565.83,394.34h150.68c9.5,0,17.21-7.7,17.21-17.21V300.6H565.83V394.34z"/>
			<polygon class="st1" points="288.33,300.6 241.39,394.34 548.3,394.34 548.3,300.6 			"/>
			<path class="st1" d="M580.26,20.7h-75.18l-6.46,160.83C498.62,181.53,545.56,67.43,580.26,20.7z"/>
			<path class="st1" d="M733.72,183.72V37.9c0-9.5-7.7-17.21-17.21-17.21h-90.96c-25.62,36.02-90.26,129.15-98.44,163.02H733.72z"/>
			<polygon class="st1" points="291.16,109.94 291.16,184.45 475.25,184.45 475.25,20.7 424.84,20.7 424.84,109.94 			"/>
			<rect x="258.28" y="20.7" class="st1" width="138.07" height="66.59"/>
			<path class="st1" d="M237.1,20.7h-36.6c-9.5,0-17.21,7.7-17.21,17.21v85.91h53.8V20.7z"/>
			<path class="st1" d="M272.89,213.67l-89.6,40.6v122.87c0,9.5,7.7,17.21,17.21,17.21h13.66c20.94-36.22,61.65-106.91,61.65-109.08
				C275.82,282.34,272.89,213.67,272.89,213.67z"/>
			<polygon class="st1" points="270.7,184.45 273.62,140.62 183.3,141.73 183.3,229.13 234.91,207.83 			"/>
		</g>
		<g>
			<path class="st2" d="M285.75,211.22h443.29v-25.57h-206.6c8.18-33.87,72.82-127,98.44-163.02h-45.29
				c-34.71,46.73-81.64,160.83-81.64,160.83l6.46-160.83h-29.84v163.75H286.48v-74.51h133.69V22.63h-28.49v66.59H253.61V22.63
				h-21.19v103.12h-53.8v17.91l90.33-1.11l-2.92,43.83l-35.8,23.38l-51.61,21.31v25.13l89.6-40.6c0,0,2.92,68.67,2.92,71.59
				c0,2.17-40.71,72.86-61.65,109.08h27.22l46.94-93.74h259.97v93.74h17.53v-93.74h167.89v-21.19H285.75V211.22z"/>
			<rect x="285.75" y="211.22" class="st3" width="443.29" height="70.13"/>
			<path class="st3" d="M561.16,396.27h150.68c9.5,0,17.21-7.7,17.21-17.21v-76.53H561.16V396.27z"/>
			<polygon class="st3" points="283.66,302.53 236.72,396.27 543.62,396.27 543.62,302.53 			"/>
			<path class="st3" d="M575.59,22.63h-75.18l-6.46,160.83C493.95,183.46,540.88,69.36,575.59,22.63z"/>
			<path class="st3" d="M729.04,185.65V39.83c0-9.5-7.7-17.21-17.21-17.21h-90.96c-25.62,36.02-90.26,129.15-98.44,163.02H729.04z"
				/>
			<polygon class="st3" points="286.48,111.87 286.48,186.38 470.57,186.38 470.57,22.63 420.17,22.63 420.17,111.87 			"/>
			<rect x="253.61" y="22.63" class="st3" width="138.07" height="66.59"/>
			<path class="st3" d="M232.42,22.63h-36.6c-9.5,0-17.21,7.7-17.21,17.21v85.91h53.8V22.63z"/>
			<path class="st3" d="M268.22,215.6l-89.6,40.6v122.87c0,9.5,7.7,17.21,17.21,17.21h13.66c20.94-36.22,61.65-106.91,61.65-109.08
				C271.14,284.27,268.22,215.6,268.22,215.6z"/>
			<polygon class="st3" points="266.03,186.38 268.95,142.55 178.62,143.66 178.62,231.06 230.23,209.76 			"/>
		</g>
		<g>
			<path class="st4" d="M289.96,207.97h443.29V182.4h-206.6c8.18-33.87,72.82-127,98.44-163.02H579.8
				c-34.71,46.73-81.64,160.83-81.64,160.83l6.46-160.83h-29.84v163.75H290.69v-74.51h133.69V19.38h-28.49v66.59H257.82V19.38
				h-21.19V122.5h-53.8v17.91l90.33-1.11l-2.92,43.83l-35.8,23.38l-51.61,21.31v25.13l89.6-40.6c0,0,2.92,68.67,2.92,71.59
				c0,2.17-40.71,72.86-61.65,109.08h27.22l46.94-93.74h259.97v93.74h17.53v-93.74h167.89V278.1H289.96V207.97z"/>
			<rect x="289.96" y="207.97" class="st4" width="443.29" height="70.13"/>
			<path class="st4" d="M565.37,393.02h150.68c9.5,0,17.21-7.7,17.21-17.21v-76.53H565.37V393.02z"/>
			<polygon class="st4" points="287.87,299.28 240.93,393.02 547.84,393.02 547.84,299.28 			"/>
			<path class="st4" d="M579.8,19.38h-75.18l-6.46,160.83C498.16,180.21,545.09,66.11,579.8,19.38z"/>
			<path class="st4" d="M733.26,182.4V36.58c0-9.5-7.7-17.21-17.21-17.21h-90.96c-25.62,36.02-90.26,129.15-98.44,163.02H733.26z"/>
			<polygon class="st4" points="290.69,108.62 290.69,183.13 474.79,183.13 474.79,19.38 424.38,19.38 424.38,108.62 			"/>
			<rect x="257.82" y="19.38" class="st4" width="138.07" height="66.59"/>
			<path class="st4" d="M236.64,19.38h-36.6c-9.5,0-17.21,7.7-17.21,17.21v85.91h53.8V19.38z"/>
			<path class="st4" d="M272.43,212.35l-89.6,40.6v122.87c0,9.5,7.7,17.21,17.21,17.21h13.66c20.94-36.22,61.65-106.91,61.65-109.08
				C275.35,281.02,272.43,212.35,272.43,212.35z"/>
			<polygon class="st4" points="270.24,183.13 273.16,139.3 182.84,140.41 182.84,227.81 234.44,206.51 			"/>
		</g>
		<g>
			<g>
				<path class="st5" d="M346.33,95.24h-3.93c-0.35,0-0.61,0.35-0.5,0.68c0.35,1.03,1.32,1.77,2.47,1.77c1.15,0,2.12-0.74,2.47-1.77
					C346.95,95.58,346.69,95.24,346.33,95.24z"/>
				<path class="st5" d="M354.18,92.2l-2.67-2.18v-6.31c0-3.37-2.35-6.21-5.49-6.97v-0.76c0-0.92-0.75-1.67-1.67-1.67
					c-0.92,0-1.67,0.75-1.67,1.67v0.75c-3.15,0.75-5.52,3.6-5.52,6.98v6.28h-0.01l-2.42,2.26c-0.52,0.72,0.05,1.67,1,1.67h2.76
					h11.67h3.04C354.2,93.92,354.77,92.91,354.18,92.2z"/>
			</g>
			<g>
				<path class="st4" d="M347.16,95.45h-3.93c-0.35,0-0.61,0.35-0.5,0.68c0.35,1.03,1.32,1.77,2.47,1.77c1.15,0,2.12-0.74,2.47-1.77
					C347.77,95.79,347.51,95.45,347.16,95.45z"/>
				<path class="st4" d="M355,92.41l-2.67-2.18v-6.31c0-3.37-2.35-6.21-5.49-6.97v-0.76c0-0.92-0.75-1.67-1.67-1.67
					c-0.92,0-1.67,0.75-1.67,1.67v0.75c-3.15,0.75-5.52,3.6-5.52,6.98v6.28h-0.01l-2.42,2.26c-0.52,0.72,0.05,1.67,1,1.67h2.76H351
					h3.04C355.02,94.13,355.59,93.12,355,92.41z"/>
			</g>
		</g>
		<g>
			<ellipse class="st6" cx="325.8" cy="104.54" rx="4.03" ry="3.94"/>
			<g>
				<path class="st4" d="M290.38,144.46c29.91,26.63,79.12,10.6,87.53-28.57c2.63-12.27,0.83-25.33-5.11-36.4"/>
				<path class="st4" d="M349.4,56.86c-29.22-14.44-65.45,1.44-74.7,32.6c-2.43,8.17-2.84,16.91-1.24,25.28"/>
			</g>
			<g>
				<path class="st4" d="M319.11,98.61c-4.46,5.01-1.78,13.25,4.78,14.65c2.05,0.44,4.24,0.14,6.09-0.86"/>
				<path class="st4" d="M333.78,108.49c2.42-4.89-0.24-10.96-5.46-12.51c-1.37-0.41-2.83-0.48-4.23-0.21"/>
			</g>
		</g>
		<g>
			<g>
				<path class="st1" d="M140.07,204.02l-1.79-10.25c0,0-0.98,3.25-3.25,6.02c-0.45,0.55-0.73,2.21-0.88,4.52
					c1.42,0.09,3.09,1.05,4.7,2.33L140.07,204.02z"/>
				<path class="st1" d="M137.96,222.73l-3.77-3.68c0.3,7.67,0.85,14.76,1.01,15.07c0.04,0.08,0.19,0.41,0.43,0.93l2.41-12.34
					L137.96,222.73z"/>
				<path class="st1" d="M178.45,88.72l1.79,0.33c0,0,5.2,4.55,7.16,3.09s2.76-7.64,2.76-7.64l4.23-0.16c0,0,3.9,5.2,10.08,5.2
					c0,0,4.39,1.3,6.34-0.33c1.95-1.63-6.67-7.16-6.67-7.16c-1.46,1.3-43.59,5.53-43.59,5.53s-0.05-0.01-0.14-0.05
					c-0.29,3.25-0.65,11.78,3.55,13.22c0,0,7.97-8.94,7.97-10.57S175.36,85.79,178.45,88.72z"/>
				<path class="st1" d="M205.45,97.5c-1.3-1.79-0.98-7.97-0.98-7.97c-6.18,0-10.08-5.2-10.08-5.2l-4.23,0.16
					c0,0-0.81,6.18-2.76,7.64s-7.16-3.09-7.16-3.09l-1.79-0.33c-3.09-2.93-6.51-0.16-6.51,1.46s-7.97,10.57-7.97,10.57
					c0.65,2.11-2.15,11.88-1.95,12.69c1.3,5.2,20.17,14.15,20.17,14.15l6.18-9.6c0,0,1.03,0.27,3.46,0.46
					c1.33,0.11,3.08,0.19,5.32,0.19c6.34,0,5.37-13.66,5.37-13.66s2.11,0.98,4.72,0.49C209.84,104.98,206.75,99.29,205.45,97.5z"/>
				<path class="st1" d="M203.32,72.49c1.21-2.45,5.41-11.61,1.48-13.86c-4.55-2.6-51.72,15.61-53.18,18.7
					c-1.13,2.38,6.51,4.08,10.09,4.74c8.05-3.8,33.17-9.78,33.17-9.78S199.8,71.72,203.32,72.49z"/>
				<path class="st1" d="M205.94,73.59c-0.63-0.52-1.57-0.87-2.62-1.1c-3.52-0.78-8.44-0.2-8.44-0.2s-25.11,5.99-33.17,9.78
					c-1.42,0.67-2.33,1.28-2.45,1.77c-0.69,2.75,0.71,3.52,1.16,3.69c0.08,0.03,0.14,0.05,0.14,0.05s42.12-4.23,43.59-5.53
					C204.15,82.05,208.7,75.87,205.94,73.59z"/>
				<path class="st1" d="M145.44,213.46c0,0-3.16-4.1-6.59-6.82c-1.61-1.27-3.28-2.24-4.7-2.33c-0.26,3.82-0.17,9.41,0.04,14.73
					l3.77,3.68l0.08-0.02l0.41-2.09c1.91-0.52,3.72-0.8,5.39-0.92c1.59-0.11,3.06-0.07,4.36,0.07L145.44,213.46z"/>
				<path class="st1" d="M206.54,228.28c-0.44,0.52-0.91,1-1.41,1.44c-2.12,1.84-39.5,1.09-49.13,0.87c0.11,0.21,0.22,0.41,0.34,0.6
					c0.1,0.15,0.17,0.31,0.23,0.48c0.67,1.76-0.49,4.35-1.79,6.91c12.14,7.03,49,4.54,53.47,2.28c0.26-0.13,0.42-0.27,0.45-0.4
					C209.03,238.83,207.56,232.42,206.54,228.28z"/>
				<path class="st1" d="M156.57,231.66c-0.06-0.17-0.14-0.33-0.23-0.48c-0.12-0.19-0.24-0.39-0.34-0.6
					c-0.44-0.84-0.79-1.83-1.05-2.84c-0.62-2.4-0.72-4.87-0.4-5.51c0.3-0.6-2.2-2.03-6.36-2.48c-1.3-0.14-2.76-0.18-4.36-0.07
					c-1.67,0.12-3.47,0.4-5.39,0.92l-0.41,2.09l-2.41,12.34c0.92,1.98,3.1,6.74,5.07,11.03c1.99,4.34,3.76,8.21,3.76,8.21
					s6.83-7.32,8.13-11.06c0.48-1.38,1.36-3.01,2.19-4.65C156.08,236.01,157.24,233.42,156.57,231.66z"/>
				<path class="st1" d="M143.36,254.73l-4.9,1.99l-10.21,4.14c0.58,5.32,4.05,17.86,5.32,19.28c0.28,0.31,0.62,0.49,1,0.57
					c1.6,0.36,3.9-0.99,5.34-1.39c1.79-0.49,5.69,1.63,7.81,0.65c2.11-0.98,2.11-9.27,2.11-9.27s1.95,3.9,2.44,1.79
					C152.67,270.75,145.8,258.87,143.36,254.73z"/>
				<path class="st1" d="M134.72,437.1c0.05,4.53,0.83,10.76,2.25,14.78c2.12,6.01,1.41,2.47,8.84,4.95
					c7.42,2.47,12.02-0.35,14.14-5.3c1.37-3.2-1.99-11.44-4.54-16.85c-1.58-0.17-2.88-0.82-2.88-0.82S141.27,436.18,134.72,437.1z"
					/>
				<path class="st1" d="M173.92,422.36c-0.66,2.62-1.16,5.75-0.2,6.9c1.77,2.12,5.3,6.36,13.08,3.53
					c7.78-2.83,13.43-2.83,21.56-1.41c8.13,1.41,20.15,1.06,20.85-1.77c0.71-2.83,1.06-7.42-5.3-8.48c-4.91-0.82-17.37-5-23.96-9.78
					c-0.56,0.28-1.17,0.49-1.85,0.59C194.09,412.55,179.21,420.23,173.92,422.36z"/>
				<path class="st1" d="M199.88,347.96c-0.35-12.37,5.3-34.29,4.6-40.65c-0.63-5.71,6.42-52.17,3.78-66.46
					c-4.47,2.27-41.33,4.75-53.47-2.28c-0.83,1.64-1.71,3.26-2.19,4.65c-1.3,3.74-8.13,11.06-8.13,11.06l-1.11,0.45
					c2.44,4.14,9.31,16.02,8.91,17.77c-0.49,2.11-2.44-1.79-2.44-1.79s0,8.29-2.11,9.27c-2.11,0.98-6.02-1.14-7.81-0.65
					c-1.45,0.39-3.74,1.74-5.34,1.39c0.16,14.34,0.34,53.71-2.55,59.47c-3.53,7.07-3.18,53.02-2.12,60.44s4.24,18.03,2.83,22.27
					c-1.41,4.24-4.24,13.79-2.47,14.49c0.46,0.18,2.18,0.03,4.47-0.29c6.55-0.92,17.8-3.25,17.8-3.25s1.3,0.65,2.88,0.82
					c2.63,0.28,6.04-0.75,5.6-8.24c-0.71-12.02,10.6-112.4,10.6-112.4s6.01,38.88,4.24,45.95s-6.01,63.27-3.53,62.92
					c0.31-0.04,0.86-0.23,1.61-0.54c5.29-2.13,20.17-9.8,24.19-10.42c0.68-0.1,1.29-0.32,1.85-0.59c3.22-1.6,4.52-5.57,4.52-6.47
					c0-0.58,3.34-16.06,2.12-30.04C205.61,363.44,200.05,353.78,199.88,347.96z"/>
				<path class="st1" d="M321.43,105.58c0,0,1.81-2.26-4.98,0c-5.64,1.88-18,10.01-22.01,12.7l4.41,9.49
					c2.85-0.37,6.18-1.05,8.1-2.29c3.85-2.49,11.54-6.11,8.37-6.33s-7.01,1.36-8.14,0.45c-1.13-0.9-2.26-1.36-0.23-3.85
					C308.99,113.27,321.43,105.58,321.43,105.58z"/>
				<path class="st1" d="M298.86,127.78l-4.41-9.49l-0.36-0.78c0,0-14.47,3.9-23.42,3.58s-24.72,0.16-27.65,1.46
					c-2.93,1.3-7.16,5.37-9.92,4.39c-2.76-0.98-3.25-1.46-5.69-0.81c-2.44,0.65-13.99-2.44-18.87-4.39
					c-4.88-1.95-14.96-0.16-14.96-0.16s-0.83-1.54-1.74-3.11c-2.43-0.19-3.46-0.46-3.46-0.46l-6.18,9.6c0,0-18.87-8.94-20.17-14.15
					c0,0-5.53,4.39-4.39,8.94c0,0-23.91,7.81-25.37,10.57c-1.46,2.76-4.23,8.46-7.16,11.38c-2.93,2.93-9.11,5.2-9.11,13.99
					s-2.93,34.64-3.09,35.78c-0.16,1.14-4.55,6.51-1.95,12.85c2.6,6.34,4.07,9.11,2.44,15.78c-1.63,6.67,14.64,38.22,14.64,38.22
					l0.21-0.08l10.21-4.14l4.9-1.99l1.11-0.45c0,0-1.77-3.86-3.76-8.21c-1.97-4.3-4.16-9.05-5.07-11.03
					c-0.24-0.52-0.4-0.85-0.43-0.93c-0.15-0.31-0.71-7.4-1.01-15.07c-0.21-5.32-0.29-10.91-0.04-14.73
					c0.15-2.31,0.43-3.97,0.88-4.52c2.28-2.76,3.25-6.02,3.25-6.02l1.79,10.25l-1.22,2.62c3.43,2.71,6.59,6.82,6.59,6.82l2.75,6.31
					c4.16,0.44,6.66,1.88,6.36,2.48c-0.32,0.64-0.22,3.11,0.4,5.51c0.26,1,0.6,1.99,1.05,2.84c9.64,0.22,47.01,0.97,49.13-0.87
					c0.51-0.44,0.97-0.92,1.41-1.44c1.68-1.97,2.78-4.55,2.65-8.16c-0.16-4.55,1.14-6.02,2.11-11.38c0.98-5.37,1.3-34.32,1.46-35.13
					c0.16-0.81,4.23-16.43,7.32-18.21c0,0-0.49-1.3,9.6-1.63s56.11-18.7,62.45-21.3c6.34-2.6,7.32-3.42,7.32-3.42L298.86,127.78z"/>
			</g>
			<g>
				<path class="st7" d="M138.11,204.02l-1.79-10.25c0,0-0.98,3.25-3.25,6.02c-0.45,0.55-0.73,2.21-0.88,4.52
					c1.42,0.09,3.09,1.05,4.7,2.33L138.11,204.02z"/>
				<path class="st7" d="M135.99,222.73l-3.77-3.68c0.3,7.67,0.85,14.76,1.01,15.07c0.04,0.08,0.19,0.41,0.43,0.93l2.41-12.34
					L135.99,222.73z"/>
				<path class="st8" d="M203.48,97.5c-1.3-1.79-0.98-7.97-0.98-7.97c-6.18,0-10.08-5.2-10.08-5.2l-4.23,0.16
					c0,0-0.81,6.18-2.76,7.64s-7.16-3.09-7.16-3.09l-1.79-0.33c-3.09-2.93-6.51-0.16-6.51,1.46s-7.97,10.57-7.97,10.57
					c0.65,2.11-2.15,11.88-1.95,12.69c1.3,5.2,20.17,14.15,20.17,14.15l6.18-9.6c0,0,1.03,0.27,3.46,0.46
					c1.33,0.11,3.08,0.19,5.32,0.19c6.34,0,5.37-13.66,5.37-13.66s2.11,0.98,4.72,0.49C207.88,104.98,204.78,99.29,203.48,97.5z"/>
				<path class="st9" d="M201.36,72.49c1.21-2.45,5.41-11.61,1.48-13.86c-4.55-2.6-51.72,15.61-53.18,18.7
					c-1.13,2.38,6.51,4.08,10.09,4.74c8.05-3.8,33.17-9.78,33.17-9.78S197.83,71.72,201.36,72.49z"/>
				<path class="st9" d="M203.97,73.59c-0.63-0.52-1.57-0.87-2.62-1.1c-3.52-0.78-8.44-0.2-8.44-0.2s-25.11,5.99-33.17,9.78
					c-1.42,0.67-2.33,1.28-2.45,1.77c-0.69,2.75,0.71,3.52,1.16,3.69c0.08,0.03,0.14,0.05,0.14,0.05s42.12-4.23,43.59-5.53
					C202.18,82.05,206.74,75.87,203.97,73.59z"/>
				<path class="st6" d="M143.47,213.46c0,0-3.16-4.1-6.59-6.82c-1.61-1.27-3.28-2.24-4.7-2.33c-0.26,3.82-0.17,9.41,0.04,14.73
					l3.77,3.68l0.08-0.02l0.41-2.09c1.91-0.52,3.72-0.8,5.39-0.92c1.59-0.11,3.06-0.07,4.36,0.07L143.47,213.46z"/>
				<path class="st6" d="M204.57,228.28c-0.44,0.52-0.91,1-1.41,1.44c-2.12,1.84-39.5,1.09-49.13,0.87c0.11,0.21,0.22,0.41,0.34,0.6
					c0.1,0.15,0.17,0.31,0.23,0.48c0.67,1.76-0.49,4.35-1.79,6.91c12.14,7.03,49,4.54,53.47,2.28c0.26-0.13,0.42-0.27,0.45-0.4
					C207.06,238.83,205.59,232.42,204.57,228.28z"/>
				<path class="st3" d="M154.6,231.66c-0.06-0.17-0.14-0.33-0.23-0.48c-0.12-0.19-0.24-0.39-0.34-0.6
					c-0.44-0.84-0.79-1.83-1.05-2.84c-0.62-2.4-0.72-4.87-0.4-5.51c0.3-0.6-2.2-2.03-6.36-2.48c-1.3-0.14-2.76-0.18-4.36-0.07
					c-1.67,0.12-3.47,0.4-5.39,0.92l-0.41,2.09l-2.41,12.34c0.92,1.98,3.1,6.74,5.07,11.03c1.99,4.34,3.76,8.21,3.76,8.21
					s6.83-7.32,8.13-11.06c0.48-1.38,1.36-3.01,2.19-4.65C154.11,236.01,155.27,233.42,154.6,231.66z"/>
				<path class="st8" d="M141.39,254.73l-4.9,1.99l-10.21,4.14c0.58,5.32,4.05,17.86,5.32,19.28c0.28,0.31,0.62,0.49,1,0.57
					c1.6,0.36,3.9-0.99,5.34-1.39c1.79-0.49,5.69,1.63,7.81,0.65c2.11-0.98,2.11-9.27,2.11-9.27s1.95,3.9,2.44,1.79
					C150.7,270.75,143.83,258.87,141.39,254.73z"/>
				<path class="st6" d="M132.75,437.1c0.05,4.53,0.83,10.76,2.25,14.78c2.12,6.01,1.41,2.47,8.84,4.95
					c7.42,2.47,12.02-0.35,14.14-5.3c1.37-3.2-1.99-11.44-4.54-16.85c-1.58-0.17-2.88-0.82-2.88-0.82S139.3,436.18,132.75,437.1z"/>
				<path class="st6" d="M171.96,422.36c-0.66,2.62-1.16,5.75-0.2,6.9c1.77,2.12,5.3,6.36,13.08,3.53
					c7.78-2.83,13.43-2.83,21.56-1.41c8.13,1.41,20.15,1.06,20.85-1.77c0.71-2.83,1.06-7.42-5.3-8.48c-4.91-0.82-17.37-5-23.96-9.78
					c-0.56,0.28-1.17,0.49-1.85,0.59C192.12,412.55,177.25,420.23,171.96,422.36z"/>
				<path class="st9" d="M197.92,347.96c-0.35-12.37,5.3-34.29,4.6-40.65c-0.63-5.71,6.42-52.17,3.78-66.46
					c-4.47,2.27-41.33,4.75-53.47-2.28c-0.83,1.64-1.71,3.26-2.19,4.65c-1.3,3.74-8.13,11.06-8.13,11.06l-1.11,0.45
					c2.44,4.14,9.31,16.02,8.91,17.77c-0.49,2.11-2.44-1.79-2.44-1.79s0,8.29-2.11,9.27c-2.11,0.98-6.02-1.14-7.81-0.65
					c-1.45,0.39-3.74,1.74-5.34,1.39c0.16,14.34,0.34,53.71-2.55,59.47c-3.53,7.07-3.18,53.02-2.12,60.44
					c1.06,7.42,4.24,18.03,2.83,22.27c-1.41,4.24-4.24,13.79-2.47,14.49c0.46,0.18,2.18,0.03,4.47-0.29
					c6.55-0.92,17.8-3.25,17.8-3.25s1.3,0.65,2.88,0.82c2.63,0.28,6.04-0.75,5.6-8.24c-0.71-12.02,10.6-112.4,10.6-112.4
					s6.01,38.88,4.24,45.95s-6.01,63.27-3.53,62.92c0.31-0.04,0.86-0.23,1.61-0.54c5.29-2.13,20.17-9.8,24.19-10.42
					c0.68-0.1,1.29-0.32,1.85-0.59c3.22-1.6,4.52-5.57,4.52-6.47c0-0.58,3.34-16.06,2.12-30.04
					C203.64,363.44,198.08,353.78,197.92,347.96z"/>
				<path class="st8" d="M319.47,105.58c0,0,1.81-2.26-4.98,0c-5.64,1.88-18,10.01-22.01,12.7l4.41,9.49
					c2.85-0.37,6.18-1.05,8.1-2.29c3.85-2.49,11.54-6.11,8.37-6.33s-7.01,1.36-8.14,0.45c-1.13-0.9-2.26-1.36-0.23-3.85
					C307.03,113.27,319.47,105.58,319.47,105.58z"/>
				<path class="st9" d="M296.89,127.78l-4.41-9.49l-0.36-0.78c0,0-14.47,3.9-23.42,3.58s-24.72,0.16-27.65,1.46
					c-2.93,1.3-7.16,5.37-9.92,4.39c-2.76-0.98-3.25-1.46-5.69-0.81c-2.44,0.65-13.99-2.44-18.87-4.39
					c-4.88-1.95-14.96-0.16-14.96-0.16s-0.83-1.54-1.74-3.11c-2.43-0.19-3.46-0.46-3.46-0.46l-6.18,9.6c0,0-18.87-8.94-20.17-14.15
					c0,0-5.53,4.39-4.39,8.94c0,0-23.91,7.81-25.37,10.57c-1.46,2.76-4.23,8.46-7.16,11.38c-2.93,2.93-9.11,5.2-9.11,13.99
					s-2.93,34.64-3.09,35.78c-0.16,1.14-4.55,6.51-1.95,12.85c2.6,6.34,4.07,9.11,2.44,15.78c-1.63,6.67,14.64,38.22,14.64,38.22
					l0.21-0.08l10.21-4.14l4.9-1.99l1.11-0.45c0,0-1.77-3.86-3.76-8.21c-1.97-4.3-4.16-9.05-5.07-11.03
					c-0.24-0.52-0.4-0.85-0.43-0.93c-0.15-0.31-0.71-7.4-1.01-15.07c-0.21-5.32-0.29-10.91-0.04-14.73
					c0.15-2.31,0.43-3.97,0.88-4.52c2.28-2.76,3.25-6.02,3.25-6.02l1.79,10.25l-1.22,2.62c3.43,2.71,6.59,6.82,6.59,6.82l2.75,6.31
					c4.16,0.44,6.66,1.88,6.36,2.48c-0.32,0.64-0.22,3.11,0.4,5.51c0.26,1,0.6,1.99,1.05,2.84c9.64,0.22,47.01,0.97,49.13-0.87
					c0.51-0.44,0.97-0.92,1.41-1.44c1.68-1.97,2.78-4.55,2.65-8.16c-0.16-4.55,1.14-6.02,2.11-11.38c0.98-5.37,1.3-34.32,1.46-35.13
					c0.16-0.81,4.23-16.43,7.32-18.21c0,0-0.49-1.3,9.6-1.63s56.11-18.7,62.45-21.3c6.34-2.6,7.32-3.42,7.32-3.42L296.89,127.78z"/>
			</g>
			<g>
				<path class="st7" d="M140.69,204.94l-1.79-10.25c0,0-0.98,3.25-3.25,6.02c-0.45,0.55-0.73,2.21-0.88,4.52
					c1.42,0.09,3.09,1.05,4.7,2.33L140.69,204.94z"/>
				<path class="st7" d="M138.57,223.64l-3.77-3.68c0.3,7.67,0.85,14.76,1.01,15.07c0.04,0.08,0.19,0.41,0.43,0.93l2.41-12.34
					L138.57,223.64z"/>
				<path class="st6" d="M179.07,89.63l1.79,0.33c0,0,5.2,4.55,7.16,3.09s2.76-7.64,2.76-7.64l4.23-0.16c0,0,3.9,5.2,10.08,5.2
					c0,0,4.39,1.3,6.34-0.33c1.95-1.63-6.67-7.16-6.67-7.16c-1.46,1.3-43.59,5.53-43.59,5.53s-0.05-0.01-0.14-0.05
					c-0.29,3.25-0.65,11.78,3.55,13.22c0,0,7.97-8.94,7.97-10.57S175.98,86.7,179.07,89.63z"/>
				<path class="st4" d="M206.07,98.41c-1.3-1.79-0.98-7.97-0.98-7.97c-6.18,0-10.08-5.2-10.08-5.2l-4.23,0.16
					c0,0-0.81,6.18-2.76,7.64s-7.16-3.09-7.16-3.09l-1.79-0.33c-3.09-2.93-6.51-0.16-6.51,1.46s-7.97,10.57-7.97,10.57
					c0.65,2.11-2.15,11.88-1.95,12.69c1.3,5.2,20.17,14.15,20.17,14.15l6.18-9.6c0,0,1.03,0.27,3.46,0.46
					c1.33,0.11,3.08,0.19,5.32,0.19c6.34,0,5.37-13.66,5.37-13.66s2.11,0.98,4.72,0.49C210.46,105.89,207.37,100.2,206.07,98.41z"/>
				<path class="st4" d="M203.94,73.41c1.21-2.45,5.41-11.61,1.48-13.86c-4.55-2.6-51.72,15.61-53.18,18.7
					c-1.13,2.38,6.51,4.08,10.09,4.74c8.05-3.8,33.17-9.78,33.17-9.78S200.41,72.63,203.94,73.41z"/>
				<path class="st4" d="M206.55,74.51c-0.63-0.52-1.57-0.87-2.62-1.1c-3.52-0.78-8.44-0.2-8.44-0.2s-25.11,5.99-33.17,9.78
					c-1.42,0.67-2.33,1.28-2.45,1.77c-0.69,2.75,0.71,3.52,1.16,3.69c0.08,0.03,0.14,0.05,0.14,0.05s42.12-4.23,43.59-5.53
					C204.76,82.96,209.32,76.78,206.55,74.51z"/>
				<path class="st4" d="M146.05,214.37c0,0-3.16-4.1-6.59-6.82c-1.61-1.27-3.28-2.24-4.7-2.33c-0.26,3.82-0.17,9.41,0.04,14.73
					l3.77,3.68l0.08-0.02l0.41-2.09c1.91-0.52,3.72-0.8,5.39-0.92c1.59-0.11,3.06-0.07,4.36,0.07L146.05,214.37z"/>
				<path class="st4" d="M207.15,229.2c-0.44,0.52-0.91,1-1.41,1.44c-2.12,1.84-39.5,1.09-49.13,0.87c0.11,0.21,0.22,0.41,0.34,0.6
					c0.1,0.15,0.17,0.31,0.23,0.48c0.67,1.76-0.49,4.35-1.79,6.91c12.14,7.03,49,4.54,53.47,2.28c0.26-0.13,0.42-0.27,0.45-0.4
					C209.64,239.75,208.18,233.33,207.15,229.2z"/>
				<path class="st4" d="M157.18,232.58c-0.06-0.17-0.14-0.33-0.23-0.48c-0.12-0.19-0.24-0.39-0.34-0.6
					c-0.44-0.84-0.79-1.83-1.05-2.84c-0.62-2.4-0.72-4.87-0.4-5.51c0.3-0.6-2.2-2.03-6.36-2.48c-1.3-0.14-2.76-0.18-4.36-0.07
					c-1.67,0.12-3.47,0.4-5.39,0.92l-0.41,2.09l-2.41,12.34c0.92,1.98,3.1,6.74,5.07,11.03c1.99,4.34,3.76,8.21,3.76,8.21
					s6.83-7.32,8.13-11.06c0.48-1.38,1.36-3.01,2.19-4.65C156.69,236.93,157.85,234.34,157.18,232.58z"/>
				<path class="st4" d="M143.97,255.64l-4.9,1.99l-10.21,4.14c0.58,5.32,4.05,17.86,5.32,19.28c0.28,0.31,0.62,0.49,1,0.57
					c1.6,0.36,3.9-0.99,5.34-1.39c1.79-0.49,5.69,1.63,7.81,0.65c2.11-0.98,2.11-9.27,2.11-9.27s1.95,3.9,2.44,1.79
					C153.29,271.67,146.41,259.78,143.97,255.64z"/>
				<path class="st4" d="M135.33,438.01c0.05,4.53,0.83,10.76,2.25,14.78c2.12,6.01,1.41,2.47,8.84,4.95
					c7.42,2.47,12.02-0.35,14.14-5.3c1.37-3.2-1.99-11.44-4.54-16.85c-1.58-0.17-2.88-0.82-2.88-0.82S141.88,437.09,135.33,438.01z"
					/>
				<path class="st4" d="M174.54,423.27c-0.66,2.62-1.16,5.75-0.2,6.9c1.77,2.12,5.3,6.36,13.08,3.53
					c7.78-2.83,13.43-2.83,21.56-1.41c8.13,1.41,20.15,1.06,20.85-1.77c0.71-2.83,1.06-7.42-5.3-8.48c-4.91-0.82-17.37-5-23.96-9.78
					c-0.56,0.28-1.17,0.49-1.85,0.59C194.71,413.47,179.83,421.14,174.54,423.27z"/>
				<path class="st4" d="M200.5,348.87c-0.35-12.37,5.3-34.29,4.6-40.65c-0.63-5.71,6.42-52.17,3.78-66.46
					c-4.47,2.27-41.33,4.75-53.47-2.28c-0.83,1.64-1.71,3.26-2.19,4.65c-1.3,3.74-8.13,11.06-8.13,11.06l-1.11,0.45
					c2.44,4.14,9.31,16.02,8.91,17.77c-0.49,2.11-2.44-1.79-2.44-1.79s0,8.29-2.11,9.27c-2.11,0.98-6.02-1.14-7.81-0.65
					c-1.45,0.39-3.74,1.74-5.34,1.39c0.16,14.34,0.34,53.71-2.55,59.47c-3.53,7.07-3.18,53.02-2.12,60.44s4.24,18.03,2.83,22.27
					c-1.41,4.24-4.24,13.79-2.47,14.49c0.46,0.18,2.18,0.03,4.47-0.29c6.55-0.92,17.8-3.25,17.8-3.25s1.3,0.65,2.88,0.82
					c2.63,0.28,6.04-0.75,5.6-8.24c-0.71-12.02,10.6-112.4,10.6-112.4s6.01,38.88,4.24,45.95s-6.01,63.27-3.53,62.92
					c0.31-0.04,0.86-0.23,1.61-0.54c5.29-2.13,20.17-9.8,24.19-10.42c0.68-0.1,1.29-0.32,1.85-0.59c3.22-1.6,4.52-5.57,4.52-6.47
					c0-0.58,3.34-16.06,2.12-30.04C206.23,364.35,200.66,354.69,200.5,348.87z"/>
				<path class="st4" d="M322.05,106.5c0,0,1.81-2.26-4.98,0c-5.64,1.88-18,10.01-22.01,12.7l4.41,9.49
					c2.85-0.37,6.18-1.05,8.1-2.29c3.85-2.49,11.54-6.11,8.37-6.33s-7.01,1.36-8.14,0.45c-1.13-0.9-2.26-1.36-0.23-3.85
					C309.61,114.19,322.05,106.5,322.05,106.5z"/>
				<path class="st4" d="M299.48,128.69l-4.41-9.49l-0.36-0.78c0,0-14.47,3.9-23.42,3.58s-24.72,0.16-27.65,1.46
					c-2.93,1.3-7.16,5.37-9.92,4.39c-2.76-0.98-3.25-1.46-5.69-0.81c-2.44,0.65-13.99-2.44-18.87-4.39
					c-4.88-1.95-14.96-0.16-14.96-0.16s-0.83-1.54-1.74-3.11c-2.43-0.19-3.46-0.46-3.46-0.46l-6.18,9.6c0,0-18.87-8.94-20.17-14.15
					c0,0-5.53,4.39-4.39,8.94c0,0-23.91,7.81-25.37,10.57c-1.46,2.76-4.23,8.46-7.16,11.38c-2.93,2.93-9.11,5.2-9.11,13.99
					s-2.93,34.64-3.09,35.78c-0.16,1.14-4.55,6.51-1.95,12.85c2.6,6.34,4.07,9.11,2.44,15.78c-1.63,6.67,14.64,38.22,14.64,38.22
					l0.21-0.08l10.21-4.14l4.9-1.99l1.11-0.45c0,0-1.77-3.86-3.76-8.21c-1.97-4.3-4.16-9.05-5.07-11.03
					c-0.24-0.52-0.4-0.85-0.43-0.93c-0.15-0.31-0.71-7.4-1.01-15.07c-0.21-5.32-0.29-10.91-0.04-14.73
					c0.15-2.31,0.43-3.97,0.88-4.52c2.28-2.76,3.25-6.02,3.25-6.02l1.79,10.25l-1.22,2.62c3.43,2.71,6.59,6.82,6.59,6.82l2.75,6.31
					c4.16,0.44,6.66,1.88,6.36,2.48c-0.32,0.64-0.22,3.11,0.4,5.51c0.26,1,0.6,1.99,1.05,2.84c9.64,0.22,47.01,0.97,49.13-0.87
					c0.51-0.44,0.97-0.92,1.41-1.44c1.68-1.97,2.78-4.55,2.65-8.16c-0.16-4.55,1.14-6.02,2.11-11.38c0.98-5.37,1.3-34.32,1.46-35.13
					c0.16-0.81,4.23-16.43,7.32-18.21c0,0-0.49-1.3,9.6-1.63s56.11-18.7,62.45-21.3c6.34-2.6,7.32-3.42,7.32-3.42L299.48,128.69z"/>
			</g>
			<path class="st4" d="M190.78,232.93c2.25-0.38,1.13-30.01-0.38-42.76s-3.38-35.26-3.38-39.76c0-4.5-4.22-21.91-4.22-21.91
				s-11.75,1.85-15.37,12.52c0,0-6.09-9.77-9.19-17.72"/>
			<path class="st4" d="M182.81,128.5l4.53-2.67c0,0,8.5,4.7,8.5,6.33c0,0,1.27-1.27,0.9-2.89c-0.36-1.63-2.55-6.78-2.55-6.78"/>
			<path class="st4" d="M220.7,156.31c0.09-1-9.13-6.61-8.41-12.76"/>
			<path class="st4" d="M138.9,194.69c0.15-1.95,6.3-19.49,6.84-25.46c0.54-5.97,0.18-10.49,0.72-10.67"/>
			<path class="st4" d="M177.21,157.84l-21.16,2.89l0.54,8.14l13.38,2.35c0,0,7.41-2.35,7.6-4.16
				C177.75,165.25,177.93,163.08,177.21,157.84z"/>
			<path class="st4" d="M176.85,168.69c0,0,1.99,19.35,0.36,20.62c-1.63,1.27-12.12,7.05-16.64,3.8
				c-4.52-3.26-2.35-24.05-2.35-24.05l11.76,2.17L176.85,168.69z"/>
			<path class="st4" d="M163.28,170.32l1.63,20.8c0,0,5.06,0.18,5.43-0.9c0.36-1.09-0.36-18.99-0.36-18.99"/>
			<path class="st1" d="M218.44,155.49l-23.15,1.27l-0.18,18.27c0,0,24.78-0.9,24.6-1.45C219.53,173.03,218.44,155.49,218.44,155.49
				z"/>
			<path class="st4" d="M219.5,155.34l-23.15,1.27l-0.18,18.27c0,0,24.78-0.9,24.6-1.45C220.59,172.88,219.5,155.34,219.5,155.34z"
				/>
			<polygon class="st4" points="209.4,150.24 211.93,158.02 207.95,158.38 206.87,150.6 			"/>
			<path class="st4" d="M198.73,175.2c0,0,0.54,12.12,3.26,13.02c2.71,0.9,7.23,3.26,7.96,0.54c0.72-2.71,1.99-14.47,1.99-14.47"/>
			<path class="st4" d="M190.59,243.74c0,0,4.7-9.59,2.71-12.12"/>
			<path class="st4" d="M192.58,244.29c0,0,5.97-10.49,4.52-12.48"/>
			<path class="st4" d="M172.22,314.94c-0.08-1.75,4.45-35.03,4.45-35.03"/>
			<path class="st4" d="M134.53,302.16c0,0,12.84-1.81,13.56,0.36c0.72,2.17,1.81,11.94,1.81,11.94L135.07,315L134.53,302.16z"/>
			<path class="st4" d="M147.73,314.64c0,0,2.71,17.72-0.9,18.99c-3.62,1.27-11.76,5.06-13.02,3.07c-1.27-1.99,1.27-21.7,1.27-21.7
				L147.73,314.64z"/>
			<path class="st4" d="M172.56,91.1c0,0,1.81,13.13,5.31,8.35"/>
			<path class="st4" d="M180.82,93.92c0,0-0.55-3.24-1.75-4.29"/>
			<path class="st4" d="M177.5,93c0,0-2.21,1.84-0.37,2.95"/>
			<path class="st4" d="M199.59,110.3c0,0-3.13,1.84-4.6-0.74"/>
			<line class="st4" x1="188.99" y1="118.91" x2="185.42" y2="117.67"/>
			<circle class="st6" cx="199.88" cy="94.39" r="0.86"/>
		</g>
		<g>
			<path class="st5" d="M711.12,110.18H593.24c-3.51,0-6.35-2.84-6.35-6.35V40.21c0-3.51,2.84-6.35,6.35-6.35h117.88
				c3.51,0,6.35,2.84,6.35,6.35v63.62C717.47,107.34,714.62,110.18,711.12,110.18z"/>
			<path class="st4" d="M710.24,111.5H592.36c-3.51,0-6.35-2.84-6.35-6.35V41.53c0-3.51,2.84-6.35,6.35-6.35h117.88
				c3.51,0,6.35,2.84,6.35,6.35v63.62C716.58,108.66,713.74,111.5,710.24,111.5z"/>
			<g>
				<path class="st1" d="M628.74,69.59l-1.95,5.74h-4.53l7.91-22.33h4.72l7.91,22.33h-4.53l-1.95-5.74H628.74z M632.54,57.81
					l-2.58,8.04h5.2L632.54,57.81z"/>
				<path class="st1" d="M645.21,52.99h4.5v18.28h7.27v4.05h-11.77V52.99z"/>
				<path class="st1" d="M659.72,52.99h11.49v4.05h-6.99v4.98h6v3.99h-6v5.3h7.27v4.02h-11.77V52.99z"/>
				<path class="st1" d="M675.07,52.99h6.73c4.88,0,7.56,2.97,7.56,6.64c0,2.71-1.34,4.79-3.38,5.9l5.3,9.8h-4.98l-4.34-8.74h-2.39
					v8.74h-4.5V52.99z M681.68,62.79c1.63,0,3.06-1.02,3.06-3c0-1.79-1.25-2.9-3.29-2.9h-1.88v5.9H681.68z"/>
				<path class="st1" d="M696.86,57.05h-5.23v-4.05h14.93v4.05h-5.2v18.28h-4.5V57.05z"/>
			</g>
			<g>
				<path class="st1" d="M619.66,93.38c-1.54,1.06-3.28,2.04-6.26,2.04c-3.26,0-5.68-2.18-5.68-5.68c0-4.24,3.52-7.76,8.01-7.76
					c3.05,0,4.37,1.43,4.89,2.26l-2.35,2.07c-0.2-0.37-1.15-1.41-2.89-1.41c-2.63,0-4.33,1.96-4.33,4.37c0,2,1.26,3.22,3.05,3.22
					c1.63,0,2.67-0.59,2.91-0.8l0.18-1.15h-2.24l0.44-2.65h5.18L619.66,93.38z"/>
				<path class="st1" d="M622.11,90.2l1.33-7.98h3.17l-1.33,7.98c-0.24,1.41,0.46,2.28,1.87,2.28c1.43,0,2.37-0.87,2.61-2.3
					l1.33-7.96h3.17l-1.33,7.96c-0.5,3.04-2.85,5.22-6.27,5.22C623.16,95.4,621.59,93.29,622.11,90.2z"/>
				<path class="st1" d="M638.74,87.23l-1.33,7.94h-3.11l2.17-12.96h3.22l3.41,8.03l1.33-8.03h3.11l-2.17,12.96h-3.15L638.74,87.23z
					"/>
				<path class="st1" d="M657.35,84.98l-2.74,1.2c-0.17-0.57-0.55-1.28-1.54-1.28c-0.67,0-1.17,0.43-1.17,0.98
					c0,1.54,4.54,1.74,4.54,5.07c0,2.48-1.83,4.46-5.02,4.46c-2.91,0-3.98-2.11-4.15-3.09l2.87-1.31c0.22,0.76,0.81,1.44,1.7,1.44
					c0.81,0,1.31-0.41,1.31-1.02c0-1.5-4.5-1.72-4.5-5.18c0-2.41,1.91-4.28,4.79-4.28C656.24,81.98,657.18,84,657.35,84.98z"/>
				<path class="st1" d="M668.38,95.17h-3.17l0.85-5.07h-4.63l-0.85,5.07h-3.17l2.17-12.96h3.17l-0.83,5.03h4.63l0.83-5.03h3.17
					L668.38,95.17z"/>
				<path class="st1" d="M671,89.71c0-4.24,3.44-7.74,8.01-7.74c3.63,0,5.79,2.46,5.79,5.68c0,4.26-3.44,7.76-8.03,7.76
					C673.15,95.42,671,92.97,671,89.71z M674.34,89.31c0,1.83,1.13,3.15,2.94,3.15c2.31,0,4.18-1.92,4.18-4.39
					c0-1.8-1.11-3.13-2.92-3.13C676.19,84.94,674.34,86.88,674.34,89.31z"/>
				<path class="st1" d="M691.57,85.05l-1.7,10.12h-3.17l1.7-10.12h-2.79l0.48-2.83h8.75l-0.48,2.83H691.57z"/>
			</g>
			<circle class="st5" cx="597.16" cy="47.66" r="22.8"/>
			<circle class="st4" cx="596.51" cy="48.95" r="22.8"/>
			<g>
				<g>
					<path class="st1" d="M598.89,58.27h-4.73c-0.43,0-0.74,0.42-0.6,0.82c0.42,1.24,1.59,2.13,2.97,2.13s2.55-0.89,2.97-2.13
						C599.63,58.69,599.32,58.27,598.89,58.27z"/>
					<path class="st1" d="M608.33,54.62l-3.21-2.63v-7.58c0-4.05-2.82-7.46-6.6-8.38v-0.91c0-1.11-0.9-2.01-2.01-2.01
						c-1.11,0-2.01,0.9-2.01,2.01v0.91c-3.79,0.91-6.63,4.33-6.63,8.39v7.55h-0.02l-2.91,2.72c-0.63,0.86,0.06,2.01,1.21,2.01h3.32
						h14.03h3.66C608.35,56.69,609.03,55.47,608.33,54.62z"/>
				</g>
				<g>
					<path class="st4" d="M599.88,58.52h-4.73c-0.43,0-0.74,0.42-0.6,0.82c0.42,1.24,1.59,2.13,2.97,2.13
						c1.38,0,2.55-0.89,2.97-2.13C600.62,58.94,600.31,58.52,599.88,58.52z"/>
					<path class="st4" d="M609.32,54.87l-3.21-2.63v-7.58c0-4.05-2.82-7.46-6.6-8.38v-0.91c0-1.11-0.9-2.01-2.01-2.01
						s-2.01,0.9-2.01,2.01v0.91c-3.79,0.91-6.63,4.33-6.63,8.39v7.55h-0.02l-2.91,2.72c-0.63,0.86,0.06,2.01,1.21,2.01h3.32h14.03
						h3.66C609.34,56.94,610.02,55.73,609.32,54.87z"/>
				</g>
			</g>
		</g>
	</g>
</g>
</svg>
