<?xml version="1.0" encoding="utf-8"?>
<!-- Generator: Adobe Illustrator 24.0.3, SVG Export Plug-In . SVG Version: 6.00 Build 0)  -->
<svg version="1.1" xmlns="http://www.w3.org/2000/svg" xmlns:xlink="http://www.w3.org/1999/xlink" x="0px" y="0px"
	 viewBox="0 0 841.89 467.72" style="enable-background:new 0 0 841.89 467.72;" xml:space="preserve">
<style type="text/css">
	.st0{fill:none;stroke:#54575C;stroke-miterlimit:10;}
	.st1{clip-path:url(#SVGID_2_);fill:#F4F4F5;}
	.st2{clip-path:url(#SVGID_2_);}
	.st3{clip-path:url(#SVGID_2_);fill:none;stroke:#54575C;stroke-miterlimit:10;}
	.st4{fill:#FFFFFF;}
	.st5{fill:none;}
	.st6{fill:#EBB0A7;}
	.st7{fill:#F5C65D;}
	.st8{fill:#61A575;}
	.st9{fill:#235485;}
	.st10{fill:none;stroke:#54575C;stroke-linejoin:round;stroke-miterlimit:10;}
	.st11{fill:#54575C;}
	.st12{fill:#CE8060;}
	.st13{fill:#E0635D;}
	.st14{fill:#DCEFFA;}
	.st15{fill:none;stroke:#54575C;stroke-width:0.9132;stroke-miterlimit:10;}
</style>
<g id="Layer_1">
</g>
<g id="Layer_2">
</g>
<g id="Layer_3">
	<g>
		<defs>
			<rect id="SVGID_1_" x="0.72" y="0.5" width="840.45" height="466.72"/>
		</defs>
		<clipPath id="SVGID_2_">
			<use xlink:href="#SVGID_1_"  style="overflow:visible;"/>
		</clipPath>
		<rect x="0.72" y="0.5" class="st1" width="840.45" height="466.72"/>
		<g class="st2">
			<g>
				<path class="st0" d="M73.07,486.23c-0.81,0-1.62-0.33-2.21-0.97c-1.12-1.22-1.04-3.12,0.18-4.24L526.06,83.6
					c0.55-0.51,1.28-0.79,2.03-0.79l139.85,0c3.01,2.65,1.18,6-1.44,6H529.26L75.09,485.44C74.52,485.97,73.79,486.23,73.07,486.23z
					"/>
			</g>
		</g>
		<polyline class="st3" points="854.18,243.02 507.31,243.02 507.31,278.66 471.67,278.66 471.67,314.29 436.04,314.29 
			436.04,349.93 400.4,349.93 400.4,385.57 364.77,385.57 364.77,421.2 329.13,421.2 329.13,459.9 381.24,471.02 381.24,435.38 
			416.88,435.38 416.88,399.74 452.52,399.74 452.52,364.11 488.15,364.11 488.15,328.47 523.79,328.47 523.79,292.84 
			559.42,292.84 559.42,257.2 848.27,257.2 571.62,257.19 		"/>
		<line class="st3" x1="559.42" y1="257.2" x2="507.31" y2="243.02"/>
		<line class="st3" x1="559.42" y1="292.84" x2="507.31" y2="278.66"/>
		<line class="st3" x1="523.79" y1="292.84" x2="471.67" y2="278.66"/>
		<line class="st3" x1="523.79" y1="328.47" x2="471.67" y2="314.29"/>
		<line class="st3" x1="488.15" y1="328.47" x2="436.04" y2="314.29"/>
		<line class="st3" x1="488.15" y1="364.11" x2="436.04" y2="349.93"/>
		<line class="st3" x1="452.52" y1="364.11" x2="400.4" y2="349.93"/>
		<line class="st3" x1="400.4" y1="385.57" x2="452.52" y2="399.74"/>
		<line class="st3" x1="416.88" y1="399.74" x2="364.77" y2="385.57"/>
		<line class="st3" x1="416.88" y1="435.38" x2="364.77" y2="421.2"/>
		<line class="st3" x1="381.24" y1="435.38" x2="329.13" y2="421.2"/>
		<polyline class="st3" points="329.13,459.9 292.22,462.62 292.64,479.15 		"/>
		<polyline class="st3" points="381.24,471.02 348.79,479.15 292.22,462.62 		"/>
		<g class="st2">
			<path class="st4" d="M292.87,245.08c-0.08,0.04-0.16,0.09-0.24,0.14l0.38,0.1c-0.07-0.03-0.12-0.06-0.12-0.06
				S292.89,245.19,292.87,245.08z"/>
			<path class="st4" d="M309.77,250.35l-0.9-1.77l-4.35-8.56c0,0,8.69-2.95,10.16-4.1c1.47-1.15-1.8-9.34-1.8-9.34
				s1.15-0.82,1.64-1.47c0.43-0.57-2.48-1.76-4.55-4.43c-0.31-0.4-0.6-0.84-0.86-1.31c-1.76-3.22-5.08-6.7-6.24-7.52
				c-0.14-0.1-0.25-0.16-0.32-0.18c0,0-0.47,0.29-1.22,0.75c-0.4,1.61-0.84,3.87-0.74,5.64c0.16,3.11,1.31,7.21,0.16,8.85
				c-1.15,1.64-0.66,3.11-0.66,3.11c1.64,4.26-2.95,7.7-2.95,7.7s0,0,0.49,3.44c0.37,2.6-2.17,2.49-4.77,3.91
				c0.01,0.11,0.02,0.18,0.02,0.18s0.05,0.02,0.12,0.06c0.63,0.3,3.92,1.81,9.06,3.71c5.74,2.13,14.42,26.38,14.75,24.25
				S309.77,250.35,309.77,250.35z"/>
			<path class="st4" d="M309.94,217.08c-1.31-2.79-1.47-5.74-3.61-6.72c-2.13-0.98-5.9-3.44-8.69-3.11
				c-2.79,0.33-6.88,2.46-7.7,3.44s-5.41-1.64-8.36,0.16s-5.08,5.74-4.26,7.87s0.82,2.13,0.82,2.13s-3.61-1.64-3.93,1.8
				c-0.33,3.44-2.62,5.9,0,7.54c2.62,1.64,3.44,3.93,3.44,3.93s-4.42,3.61-4.26,6.06c0.16,2.46,2.79,3.11,2.95,5.9
				s-1.8,5.54,3.84,6.69c2.96,0.6,5-0.74,7.62-3.02c0.93-0.81,1.82-1.7,2.63-2.69c0.68-0.83,1.44-1.4,2.2-1.85
				c0.08-0.05,0.16-0.1,0.24-0.14c2.61-1.42,5.14-1.31,4.77-3.91c-0.49-3.44-0.49-3.44-0.49-3.44s4.59-3.44,2.95-7.7
				c0,0-0.49-1.47,0.66-3.11c1.15-1.64,0-5.74-0.16-8.85c-0.09-1.78,0.35-4.03,0.74-5.64c0.75-0.46,1.22-0.75,1.22-0.75
				c0.07,0.02,0.18,0.09,0.32,0.18c1.15,0.82,4.48,4.3,6.24,7.52c0.26,0.47,0.55,0.91,0.86,1.31
				C310.38,219.89,310.67,218.64,309.94,217.08z"/>
			<path class="st4" d="M331.27,331.89c0.02-0.56,0.06-1.29,0.14-2.06c0.16-1.64-5.57-7.37-5.57-7.37l-3.55,4.83
				C324.93,328.65,328.04,330.24,331.27,331.89z"/>
			<path class="st4" d="M321.81,297.05c-3.6,5.62-4.82,6.39-4.82,6.39l-0.24-0.02c-0.76,6.24-2.35,19.31-2.22,19.69
				c0.03,0.09,1.53,0.92,3.93,2.18c1.1,0.58,2.4,1.25,3.83,1.99l3.55-4.83C322.81,320.19,322.02,304.31,321.81,297.05z"/>
			<path class="st4" d="M331.27,331.89c-3.22-1.65-6.33-3.24-8.98-4.61c-1.43-0.74-2.72-1.41-3.83-1.99
				c-2.4-1.26-3.9-2.08-3.93-2.18c-0.12-0.37,1.46-13.45,2.22-19.69l-6.45-0.55l-23.96-2.05l0.01-0.16
				c-2.55,6.65-9.1,24.92-6.57,31.3c3.11,7.87,12.62,17.37,12.62,23.11c0,5.74,1.64,26.22,1.64,26.22s0.03-0.01,0.07-0.02
				c0.76-0.23,8.48-2.56,18.17-6.43c10.7-4.27,23.78-10.39,32.52-17.59c5.14-4.24,8.79-8.84,9.54-13.66
				C354.35,343.6,342.16,337.45,331.27,331.89z"/>
			<path class="st4" d="M298.96,462.24c-4.1-1.15-16.72-17.21-17.86-17.7c0,0-1.97,6.23-0.16,11.8c1.8,5.57,0.82,9.83,0.82,9.83
				l1.31,0.16c0,0-1.31-12.78,1.47-11.31c2.79,1.47,6.56,10.82,11.64,11.14s17.7,0,17.7-3.61c0-2.57-6.47-3.06-10.2-3.13
				c0.01,0,0.03,0.01,0.04,0.01C305.68,459.46,303.05,463.39,298.96,462.24z"/>
			<path class="st4" d="M311.25,386.04c1.46-2.92,1.36-7.76,1.04-11.2c-9.69,3.86-17.41,6.2-18.17,6.43l-1.38,6.25
				c0,0-10,22.29-7.7,37.53s-5.08,19.01-3.93,19.5c1.15,0.49,13.77,16.55,17.86,17.7c4.1,1.15,6.72-2.79,4.75-2.79
				c-0.01,0-0.03-0.01-0.04-0.01c-1.99-0.13-6.68-9.7-7.33-15.88c-0.66-6.23,5.9-35.23,5.9-41.95S308.79,390.96,311.25,386.04z"/>
			<path class="st4" d="M382.2,421.34c0.25,0.21,0.47,0.36,0.66,0.43L382.2,421.34z"/>
			<path class="st4" d="M382.86,421.77c0,0-2.62,2.62-7.05,1.31c-4.42-1.31-15.24-14.42-16.55-14.09c0,0-0.02-0.17-0.08-0.5
				c-0.74,1.04-1.45,2.67-0.91,4.76c0.98,3.77,4.92,17.21,4.92,17.21l1.47-0.49l-2.29-10c0,0,3.44,0.16,5.24,2.95
				c1.8,2.79,2.95,8.52,6.88,8.19c3.93-0.33,17.7-2.46,17.7-5.9S382.86,421.77,382.86,421.77z"/>
			<path class="st4" d="M382.2,421.34c-3.87-3.28-14.55-22.74-16.55-28.74c-2.13-6.39-1.8-39.17-2.13-43.1
				c-0.33-3.93-9.18-5.9-9.18-5.9c-0.76,4.82-4.4,9.42-9.54,13.66c6.58,3.13,5.66,7.22,4.46,16.5c-1.31,10.16,5.24,17.37,7.37,24.42
				c1.69,5.58,2.34,9.09,2.55,10.32c0.05,0.32,0.08,0.5,0.08,0.5c1.31-0.33,12.13,12.78,16.55,14.09c4.42,1.31,7.05-1.31,7.05-1.31
				C382.67,421.7,382.45,421.55,382.2,421.34z"/>
			<path class="st4" d="M261.33,333.18c-0.7,2.21-10.49,15.04-10.26,15.85s2.21,1.05,2.21,1.05s-0.7,1.86,0.7,2.21
				c1.4,0.35,1.4,0.35,1.4,0.35s0,2.56,1.75,2.56c0,0,0.93,1.52,2.33,1.4c1.4-0.12,1.17,0.7,2.21,0.47c1.05-0.23,2.6-0.67,3.5-3.26
				c1.05-3.03,5.42-25.15,6.06-27.27c0.56-1.83,1.22-7.7,1.59-11.27l-9.26,0.14C263.56,315.41,262.03,330.96,261.33,333.18z"/>
			<path class="st4" d="M323.38,278.04c-1.97-6.56,0.33-11.31-2.46-16.55c-2.79-5.24-6.06-9.51-7.87-11.8
				c-1.04-1.32-2.84-1.34-4.18-1.11l0.9,1.77c0,0,7.37,20.81,7.05,22.94s-9.01-22.12-14.75-24.25c-5.14-1.91-8.42-3.42-9.06-3.71
				l-0.38-0.1c-0.76,0.44-1.51,1.02-2.2,1.85c-0.82,0.99-1.7,1.88-2.63,2.69c-3.72,6.02-9.65,15.91-11.3,20.42
				c-2.46,6.72-12.45,42.44-12.62,42.94c-0.16,0.49-0.33,2.29-0.33,2.29l9.26-0.14l1.39-0.02c0,0,2.46-18.03,6.72-22.12
				s6.72-7.05,6.72-7.05l-1.3,14.58l-0.01,0.16l23.96,2.05l6.45,0.55l0.24,0.02c0,0,1.22-0.77,4.82-6.39
				c0.14-0.22,0.27-0.42,0.42-0.66C326.16,290.17,325.34,284.6,323.38,278.04z"/>
		</g>
		<g class="st2">
			<path class="st5" d="M291.75,243.65c-0.08,0.04-0.16,0.09-0.24,0.14l0.38,0.1c-0.07-0.03-0.12-0.06-0.12-0.06
				S291.76,243.76,291.75,243.65z"/>
			<path class="st6" d="M308.65,248.91l-0.9-1.77l-4.35-8.56c0,0,8.69-2.95,10.16-4.1c1.47-1.15-1.8-9.34-1.8-9.34
				s1.15-0.82,1.64-1.47c0.43-0.57-2.48-1.76-4.55-4.43c-0.31-0.4-0.6-0.84-0.86-1.31c-1.76-3.22-5.08-6.7-6.24-7.52
				c-0.14-0.1-0.25-0.16-0.32-0.18c0,0-0.47,0.29-1.22,0.75c-0.4,1.61-0.84,3.87-0.74,5.64c0.16,3.11,1.31,7.21,0.16,8.85
				c-1.15,1.64-0.66,3.11-0.66,3.11c1.64,4.26-2.95,7.7-2.95,7.7s0,0,0.49,3.44c0.37,2.6-2.17,2.49-4.77,3.91
				c0.01,0.11,0.02,0.18,0.02,0.18s0.05,0.02,0.12,0.06c0.63,0.3,3.92,1.81,9.06,3.71c5.74,2.13,14.42,26.38,14.75,24.25
				S308.65,248.91,308.65,248.91z"/>
			<path class="st7" d="M308.81,215.65c-1.31-2.79-1.47-5.74-3.61-6.72c-2.13-0.98-5.9-3.44-8.69-3.11
				c-2.79,0.33-6.88,2.46-7.7,3.44s-5.41-1.64-8.36,0.16s-5.08,5.74-4.26,7.87s0.82,2.13,0.82,2.13s-3.61-1.64-3.93,1.8
				c-0.33,3.44-2.62,5.9,0,7.54c2.62,1.64,3.44,3.93,3.44,3.93s-4.42,3.61-4.26,6.06c0.16,2.46,2.79,3.11,2.95,5.9
				s-1.8,5.54,3.84,6.69c2.96,0.6,5-0.74,7.62-3.02c0.93-0.81,1.82-1.7,2.63-2.69c0.68-0.83,1.44-1.4,2.2-1.85
				c0.08-0.05,0.16-0.1,0.24-0.14c2.61-1.42,5.14-1.31,4.77-3.91c-0.49-3.44-0.49-3.44-0.49-3.44s4.59-3.44,2.95-7.7
				c0,0-0.49-1.47,0.66-3.11c1.15-1.64,0-5.74-0.16-8.85c-0.09-1.78,0.35-4.03,0.74-5.64c0.75-0.46,1.22-0.75,1.22-0.75
				c0.07,0.02,0.18,0.09,0.32,0.18c1.15,0.82,4.48,4.3,6.24,7.52c0.26,0.47,0.55,0.91,0.86,1.31
				C309.26,218.45,309.55,217.2,308.81,215.65z"/>
			<path class="st6" d="M330.14,330.45c0.02-0.56,0.06-1.29,0.14-2.06c0.16-1.64-5.57-7.37-5.57-7.37l-3.55,4.83
				C323.81,327.21,326.92,328.81,330.14,330.45z"/>
			<path class="st8" d="M320.69,295.62c-3.6,5.62-4.82,6.39-4.82,6.39l-0.24-0.02c-0.76,6.24-2.35,19.31-2.22,19.69
				c0.03,0.09,1.53,0.92,3.93,2.18c1.1,0.58,2.4,1.25,3.83,1.99l3.55-4.83C321.69,318.76,320.89,302.87,320.69,295.62z"/>
			<path class="st9" d="M330.14,330.45c-3.22-1.65-6.33-3.24-8.98-4.61c-1.43-0.74-2.72-1.41-3.83-1.99
				c-2.4-1.26-3.9-2.08-3.93-2.18c-0.12-0.37,1.46-13.45,2.22-19.69l-6.45-0.55l-23.96-2.05l0.01-0.16
				c-2.55,6.65-9.1,24.92-6.57,31.3c3.11,7.87,12.62,17.37,12.62,23.11c0,5.74,1.64,26.22,1.64,26.22s0.03-0.01,0.07-0.02
				c0.76-0.23,8.48-2.56,18.17-6.43c10.7-4.27,23.78-10.39,32.52-17.59c5.14-4.24,8.79-8.84,9.54-13.66
				C353.23,342.16,341.04,336.02,330.14,330.45z"/>
			<path class="st9" d="M297.83,460.81c-4.1-1.15-16.72-17.21-17.86-17.7c0,0-1.97,6.23-0.16,11.8c1.8,5.57,0.82,9.83,0.82,9.83
				l1.31,0.16c0,0-1.31-12.78,1.47-11.31c2.79,1.47,6.56,10.82,11.64,11.14s17.7,0,17.7-3.61c0-2.57-6.47-3.06-10.2-3.13
				c0.01,0,0.03,0.01,0.04,0.01C304.55,458.02,301.93,461.96,297.83,460.81z"/>
			<path class="st6" d="M310.12,384.61c1.46-2.92,2.48-6.33,2.16-9.77c-9.69,3.86-17.41,6.2-18.17,6.43l-2.5,4.81
				c0,0-10,22.29-7.7,37.53s-5.08,19.01-3.93,19.5c1.15,0.49,13.77,16.55,17.86,17.7c4.1,1.15,6.72-2.79,4.75-2.79
				c-0.01,0-0.03-0.01-0.04-0.01c-1.99-0.13-6.68-9.7-7.33-15.88c-0.66-6.23,5.9-35.23,5.9-41.95S307.67,389.52,310.12,384.61z"/>
			<path class="st10" d="M381.08,419.9c0.25,0.21,0.47,0.36,0.66,0.43L381.08,419.9z"/>
			<path class="st9" d="M381.74,420.33c0,0-2.62,2.62-7.05,1.31c-4.42-1.31-15.24-14.42-16.55-14.09c0,0-0.02-0.17-0.08-0.5
				c-0.74,1.04-1.45,2.67-0.91,4.76c0.98,3.77,4.92,17.21,4.92,17.21l1.47-0.49l-2.29-10c0,0,3.44,0.16,5.24,2.95
				c1.8,2.79,2.95,8.52,6.88,8.19c3.93-0.33,17.7-2.46,17.7-5.9S381.74,420.33,381.74,420.33z"/>
			<path class="st6" d="M381.08,419.9c-3.87-3.28-14.55-22.74-16.55-28.74c-2.13-6.39-1.8-39.17-2.13-43.1
				c-0.33-3.93-8.05-4.46-8.05-4.46c-0.76,4.82-4.4,9.42-9.54,13.66c6.58,3.13,4.54,5.79,3.34,15.06
				c-1.31,10.16,5.24,17.37,7.37,24.42c1.69,5.58,2.34,9.09,2.55,10.32c0.05,0.32,0.08,0.5,0.08,0.5
				c1.31-0.33,12.13,12.78,16.55,14.09c4.42,1.31,7.05-1.31,7.05-1.31C381.55,420.26,381.33,420.11,381.08,419.9z"/>
			<path class="st6" d="M260.2,331.74c-0.7,2.21-10.49,15.04-10.26,15.85s2.21,1.05,2.21,1.05s-0.7,1.86,0.7,2.21
				c1.4,0.35,1.4,0.35,1.4,0.35s0,2.56,1.75,2.56c0,0,0.93,1.52,2.33,1.4c1.4-0.12,1.17,0.7,2.21,0.47c1.05-0.23,2.6-0.67,3.5-3.26
				c1.05-3.03,5.42-25.15,6.06-27.27c0.56-1.83,1.22-7.7,1.59-11.27l-9.26,0.14C262.44,313.97,260.9,329.53,260.2,331.74z"/>
			<path class="st8" d="M322.25,276.61c-1.97-6.56,0.33-11.31-2.46-16.55c-2.79-5.24-6.06-9.5-7.87-11.8
				c-1.04-1.32-2.84-1.34-4.18-1.11l0.9,1.77c0,0,7.37,20.81,7.05,22.94s-9.01-22.12-14.75-24.25c-5.14-1.91-8.42-3.42-9.06-3.71
				l-0.38-0.1c-0.76,0.44-1.51,1.02-2.2,1.85c-0.82,0.99-1.7,1.88-2.63,2.69c-3.72,6.02-9.65,15.91-11.3,20.42
				c-2.46,6.72-12.45,42.44-12.62,42.94c-0.16,0.49-0.33,2.29-0.33,2.29l9.26-0.14l1.39-0.02c0,0,2.46-18.03,6.72-22.12
				s6.72-7.05,6.72-7.05l-1.3,14.58l-0.01,0.16l23.96,2.05l6.45,0.55l0.24,0.02c0,0,1.22-0.77,4.82-6.39
				c0.14-0.22,0.27-0.42,0.42-0.66C325.04,288.74,324.22,283.16,322.25,276.61z"/>
		</g>
		<g class="st2">
			<path class="st5" d="M292.84,245.04c-0.08,0.04-0.16,0.09-0.24,0.14l0.38,0.1c-0.07-0.03-0.12-0.06-0.12-0.06
				S292.85,245.15,292.84,245.04z"/>
			<path class="st0" d="M309.74,250.3l-0.9-1.77l-4.35-8.56c0,0,8.69-2.95,10.16-4.1c1.47-1.15-1.8-9.34-1.8-9.34
				s1.15-0.82,1.64-1.47c0.43-0.57-2.48-1.76-4.55-4.43c-0.31-0.4-0.6-0.84-0.86-1.31c-1.76-3.22-5.08-6.7-6.24-7.52
				c-0.14-0.1-0.25-0.16-0.32-0.18c0,0-0.47,0.29-1.22,0.75c-0.4,1.61-0.84,3.87-0.74,5.64c0.16,3.11,1.31,7.21,0.16,8.85
				c-1.15,1.64-0.66,3.11-0.66,3.11c1.64,4.26-2.95,7.7-2.95,7.7s0,0,0.49,3.44c0.37,2.6-2.17,2.49-4.77,3.91
				c0.01,0.11,0.02,0.18,0.02,0.18s0.05,0.02,0.12,0.06c0.63,0.3,3.92,1.81,9.06,3.71c5.74,2.13,14.42,26.38,14.75,24.25
				S309.74,250.3,309.74,250.3z"/>
			<path class="st0" d="M309.9,217.04c-1.31-2.79-1.47-5.74-3.61-6.72c-2.13-0.98-5.9-3.44-8.69-3.11c-2.79,0.33-6.88,2.46-7.7,3.44
				s-5.41-1.64-8.36,0.16s-5.08,5.74-4.26,7.87s0.82,2.13,0.82,2.13s-3.61-1.64-3.93,1.8c-0.33,3.44-2.62,5.9,0,7.54
				c2.62,1.64,3.44,3.93,3.44,3.93s-4.42,3.61-4.26,6.06c0.16,2.46,2.79,3.11,2.95,5.9s-1.8,5.54,3.84,6.69
				c2.96,0.6,5-0.74,7.62-3.02c0.93-0.81,1.82-1.7,2.63-2.69c0.68-0.83,1.44-1.4,2.2-1.85c0.08-0.05,0.16-0.1,0.24-0.14
				c2.61-1.42,5.14-1.31,4.77-3.91c-0.49-3.44-0.49-3.44-0.49-3.44s4.59-3.44,2.95-7.7c0,0-0.49-1.47,0.66-3.11
				c1.15-1.64,0-5.74-0.16-8.85c-0.09-1.78,0.35-4.03,0.74-5.64c0.75-0.46,1.22-0.75,1.22-0.75c0.07,0.02,0.18,0.09,0.32,0.18
				c1.15,0.82,4.48,4.3,6.24,7.52c0.26,0.47,0.55,0.91,0.86,1.31C310.34,219.84,310.64,218.59,309.9,217.04z"/>
			<path class="st0" d="M331.23,331.84c0.02-0.56,0.06-1.29,0.14-2.06c0.16-1.64-5.57-7.37-5.57-7.37l-3.55,4.83
				C324.9,328.6,328.01,330.2,331.23,331.84z"/>
			<path class="st0" d="M321.77,297.01c-3.6,5.62-4.82,6.39-4.82,6.39l-0.24-0.02c-0.76,6.24-2.35,19.31-2.22,19.69
				c0.03,0.09,1.53,0.92,3.93,2.18c1.1,0.58,2.4,1.25,3.83,1.99l3.55-4.83C322.78,320.14,321.98,304.26,321.77,297.01z"/>
			<path class="st0" d="M331.23,331.84c-3.22-1.65-6.33-3.24-8.98-4.61c-1.43-0.74-2.72-1.41-3.83-1.99
				c-2.4-1.26-3.9-2.08-3.93-2.18c-0.12-0.37,1.46-13.45,2.22-19.69l-6.45-0.55l-23.96-2.05l0.01-0.16
				c-2.55,6.65-9.1,24.92-6.57,31.3c3.11,7.87,12.62,17.37,12.62,23.11c0,5.74,1.64,26.22,1.64,26.22s0.03-0.01,0.07-0.02
				c0.76-0.23,8.48-2.56,18.17-6.43c10.7-4.27,23.78-10.39,32.52-17.59c5.14-4.24,8.79-8.84,9.54-13.66
				C354.31,343.55,342.12,337.4,331.23,331.84z"/>
			<path class="st10" d="M298.92,462.2c-4.1-1.15-16.72-17.21-17.86-17.7c0,0-1.97,6.23-0.16,11.8c1.8,5.57,0.82,9.83,0.82,9.83
				l1.31,0.16c0,0-1.31-12.78,1.47-11.31c2.79,1.47,6.56,10.82,11.64,11.14s17.7,0,17.7-3.61c0-2.57-6.47-3.06-10.2-3.13
				c0.01,0,0.03,0.01,0.04,0.01C305.64,459.41,303.02,463.34,298.92,462.2z"/>
			<path class="st10" d="M311.21,385.99c1.46-2.92,1.36-7.76,1.04-11.2c-9.69,3.86-17.41,6.2-18.17,6.43l-1.38,6.25
				c0,0-10,22.29-7.7,37.53s-5.08,19.01-3.93,19.5c1.15,0.49,13.77,16.55,17.86,17.7c4.1,1.15,6.72-2.79,4.75-2.79
				c-0.01,0-0.03-0.01-0.04-0.01c-1.99-0.13-6.68-9.7-7.33-15.88c-0.66-6.23,5.9-35.23,5.9-41.95S308.76,390.91,311.21,385.99z"/>
			<path class="st10" d="M382.17,421.29c0.25,0.21,0.47,0.36,0.66,0.43L382.17,421.29z"/>
			<path class="st10" d="M382.83,421.72c0,0-2.62,2.62-7.05,1.31c-4.42-1.31-15.24-14.42-16.55-14.09c0,0-0.02-0.17-0.08-0.5
				c-0.74,1.04-1.45,2.67-0.91,4.76c0.98,3.77,4.92,17.21,4.92,17.21l1.47-0.49l-2.29-10c0,0,3.44,0.16,5.24,2.95
				c1.8,2.79,2.95,8.52,6.88,8.19c3.93-0.33,17.7-2.46,17.7-5.9S382.83,421.72,382.83,421.72z"/>
			<path class="st10" d="M382.17,421.29c-3.87-3.28-14.55-22.74-16.55-28.74c-2.13-6.39-1.8-39.17-2.13-43.1
				c-0.33-3.93-9.18-5.9-9.18-5.9c-0.76,4.82-4.4,9.42-9.54,13.66c6.58,3.13,5.66,7.22,4.46,16.5c-1.31,10.16,5.24,17.37,7.37,24.42
				c1.69,5.58,2.34,9.09,2.55,10.32c0.05,0.32,0.08,0.5,0.08,0.5c1.31-0.33,12.13,12.78,16.55,14.09c4.42,1.31,7.05-1.31,7.05-1.31
				C382.64,421.65,382.42,421.5,382.17,421.29z"/>
			<path class="st0" d="M261.29,333.13c-0.7,2.21-10.49,15.04-10.26,15.85s2.21,1.05,2.21,1.05s-0.7,1.86,0.7,2.21
				c1.4,0.35,1.4,0.35,1.4,0.35s0,2.56,1.75,2.56c0,0,0.93,1.52,2.33,1.4c1.4-0.12,1.17,0.7,2.21,0.47c1.05-0.23,2.6-0.67,3.5-3.26
				c1.05-3.03,5.42-25.15,6.06-27.27c0.56-1.83,1.22-7.7,1.59-11.27l-9.26,0.14C263.53,315.36,261.99,330.92,261.29,333.13z"/>
			<path class="st0" d="M323.34,278c-1.97-6.56,0.33-11.31-2.46-16.55c-2.79-5.24-6.06-9.51-7.87-11.8
				c-1.04-1.32-2.84-1.34-4.18-1.11l0.9,1.77c0,0,7.37,20.81,7.05,22.94s-9.01-22.12-14.75-24.25c-5.14-1.91-8.42-3.42-9.06-3.71
				l-0.38-0.1c-0.76,0.44-1.51,1.02-2.2,1.85c-0.82,0.99-1.7,1.88-2.63,2.69c-3.72,6.02-9.65,15.91-11.3,20.42
				c-2.46,6.72-12.45,42.44-12.62,42.94c-0.16,0.49-0.33,2.29-0.33,2.29l9.26-0.14l1.39-0.02c0,0,2.46-18.03,6.72-22.12
				s6.72-7.05,6.72-7.05l-1.3,14.58l-0.01,0.16l23.96,2.05l6.45,0.55l0.24,0.02c0,0,1.22-0.77,4.82-6.39
				c0.14-0.22,0.27-0.42,0.42-0.66C326.13,290.13,325.31,284.55,323.34,278z"/>
			<path class="st10" d="M312.22,231.15c0,0-4.21,3.42-6.05-1.05"/>
			<path class="st10" d="M287.62,286.03c0,0,8.29-8.3,7.77-11.46"/>
			<line class="st10" x1="253.25" y1="350.03" x2="256.34" y2="345.88"/>
			<path class="st10" d="M255.35,352.59c0,0,1.51-2.02,2.55-3.06"/>
			<path class="st10" d="M257.1,355.16c0,0,0.6-1.87,1.33-2.7c0.73-0.84,2.19-2.09,2.19-2.09"/>
			<path class="st10" d="M260.62,356.53c0.1-0.31,0-1.15,1.25-2.72c1.25-1.57,1.98-2.3,1.98-2.3"/>
			<circle class="st11" cx="306.35" cy="222.03" r="0.94"/>
		</g>
		<g class="st2">
			<path class="st4" d="M635.62,120.41c0.09-0.02,0.15-0.03,0.15-0.03s-0.83-16.59-3.15-22.23c-2.32-5.64-9.12-29.86-11.61-37.49
				c-2.49-7.63-10.45-17.25-14.27-19.08c-0.96-0.46-1.9-0.69-2.78-0.77c0.21-0.27,0.5-0.49,0.97-0.6c1.34-0.3,1.64-1.34,1.79-2.24
				c0.15-0.9,1.94-0.45,2.39-1.19c0.45-0.75-1.34-2.39-1.34-3.73c0-1.34,2.24-1.19,1.64-2.54c-0.6-1.34,1.34-1.34,2.39-1.49
				s-0.45-1.34-1.19-2.84c-0.75-1.49,0.6-0.6,1.49-1.05s-1.94-4.48-2.39-5.97c-0.45-1.49,1.05-0.9,0.9-2.24
				c-0.15-1.34-2.09-2.69-4.18-3.88c-2.09-1.19,1.34,0.3,3.44-0.3c2.09-0.6-2.54-3.14-7.17-4.48c-4.63-1.34-3.29-0.75-3.58-2.54
				s-2.39-2.54-3.88-2.09s-2.24,1.79-4.93,0s-3.88,0.45-5.53,2.69c-1.64,2.24-0.9,0.9-1.94,1.64c-1.05,0.75-2.24-1.34-3.14-0.15
				s-5.53,2.84-7.47,4.78s-2.09,4.18-2.39,5.83c-0.3,1.64-0.3,1.05,1.05,3.73c1.34,2.69,0,2.69,1.34,4.93c1.34,2.24,0,0,0.9,1.05
				c0.9,1.05,1.34,2.54,1.79,3.14c0.04,0.05,0.07,0.09,0.1,0.12c0.27,1.22,0.58,2.73,0.8,4.21c0.13,0.84,0.35,1.47,0.62,1.94
				l-0.02,0.1c0-0.02,0.01-0.06,0.02-0.1c0.79,1.38,1.94,1.39,1.94,1.39s0,0,1.49,1.16c0.87,0.68,1.63,2.6,2.11,4.09
				c-1.11,0.73-2.05,1.97-2.85,3.46c-1.03,1.93-1.81,4.28-2.39,6.46c-4.14,10.93-12.51,31.95-15.95,32.44
				c-4.64,0.66-35.58,5.02-35.36,6.48c-0.41-0.09-0.92-0.22-1.58-0.42c-2.36-0.72-4.66-0.96-6.64-0.18c-1.98,0.78-4.9,0.46-4.1,1.42
				c0.8,0.96,3.17,1.54,3.17,1.54s0.31,1.56-4.04,1.91c-0.72,0.06-1.48,0.09-2.23,0.1c-0.27-0.14-0.63-0.16-1.1,0.02
				c-1.51,0.02-2.92,0.01-3.86,0.11c-1.14,0.12-1.29,0.56-1.38,0.75c-0.22,0.45,8,7.45,10.1,7.49c2.1,0.04,7.05-0.69,9.67-2.29
				c1.21-0.74,3.05-1.23,4.69-1.54c0.8,2.11,1.04,2.06,1.04,2.06s34.6-5.35,36.43-7.17c0.85-0.85,4.91-5.05,8.98-9.28
				c0.91,9.54,1.47,23.21,1.47,23.21s0.41-0.08,1.08-0.2c0,0-3.44,61.54-3.44,71.43c0,5.14,4.61,42.56,7.6,52.14l-0.02,0
				c0,0-3.44,2.72-7.57,4.33c-3.99,1.55-8.67,1.93-9.73,4.33c-1.07,2.42,6.73,3.57,15.08,3.88c-2.72,0.77-5.12,1.47-5.84,3.09
				c-2.16,4.87,31.63,4.6,33.52,2.7c1.89-1.89-2.11-8.98-2.11-8.98s2.92-34.54-1.4-65.36c-3.6-25.67,8.5-42.29,9.78-45.14
				c3.81-8.49,3.85-14.11,3.07-17.6c0.83,0.17,1.35,0.2,1.45,0.03c0.66-1.16-7.47-17.42-9.62-22.06s2.32-17.58,2.32-17.58
				s6.64,12.11,10.12,17.92c3.16,5.27,7.55,22.43,8.59,26.3c-0.78,2.97-2.54,9.94-2.19,10.76c0.45,1.05,1.19,4.03,1.64,2.54
				c0.45-1.49,1.49-5.83,1.49-5.83s2.24,2.54,2.69,5.38c0.45,2.84,0.39,9.89,1.19,7.47c0.45-1.34,0.45-4.33,1.34-5.83
				c0.9-1.49,2.54-5.08,2.39-8.07C637.4,124.54,636.37,122.03,635.62,120.41z M601.52,111.08c-0.29-0.09-0.59-0.17-0.88-0.26
				C600.94,110.91,601.23,111,601.52,111.08z M600.5,110.78c-0.33-0.09-0.65-0.19-0.98-0.28
				C599.84,110.6,600.17,110.69,600.5,110.78z M599.48,110.49c-0.68-0.19-1.34-0.37-1.98-0.54
				C598.14,110.13,598.8,110.31,599.48,110.49z M597.29,109.91c-0.24-0.06-0.48-0.12-0.72-0.18
				C596.81,109.78,597.05,109.84,597.29,109.91z M596.26,109.65c-0.2-0.05-0.39-0.09-0.58-0.14
				C595.87,109.55,596.07,109.6,596.26,109.65z M595.34,109.43c-0.17-0.04-0.35-0.08-0.52-0.12
				C594.99,109.35,595.16,109.39,595.34,109.43z M594.48,109.24c-0.16-0.03-0.32-0.07-0.48-0.1
				C594.16,109.18,594.32,109.21,594.48,109.24z M593.67,109.08c-0.15-0.03-0.3-0.05-0.44-0.08
				C593.37,109.03,593.52,109.06,593.67,109.08z M592.91,108.95c-0.14-0.02-0.28-0.04-0.41-0.06
				C592.64,108.91,592.77,108.93,592.91,108.95z M592.21,108.86c-0.14-0.02-0.26-0.03-0.39-0.04
				C591.95,108.83,592.08,108.84,592.21,108.86z M591.57,108.79c-0.14-0.01-0.26-0.02-0.39-0.02
				C591.31,108.77,591.43,108.78,591.57,108.79z M590.99,108.76c-0.18,0-0.35,0-0.51,0.01
				C590.64,108.76,590.81,108.76,590.99,108.76z M601.73,111.14c0.28,0.08,0.55,0.16,0.83,0.25
				C602.29,111.31,602.01,111.23,601.73,111.14z M603.67,111.72c-0.3-0.09-0.6-0.18-0.89-0.27
				C603.08,111.54,603.38,111.63,603.67,111.72z M615.09,115.15c0.04,0.01,0.07,0.02,0.11,0.03
				C615.17,115.17,615.13,115.16,615.09,115.15z M613.93,114.84c0.06,0.02,0.12,0.03,0.18,0.05
				C614.05,114.88,614,114.86,613.93,114.84z M608.63,113.25c-1.24-0.38-2.54-0.79-3.86-1.19c-0.34-0.1-0.68-0.21-1.02-0.31
				C605.42,112.26,607.08,112.77,608.63,113.25z M612.84,114.53c-0.08-0.02-0.16-0.05-0.24-0.07
				C612.68,114.49,612.76,114.51,612.84,114.53z M611.41,114.11c-0.09-0.03-0.18-0.05-0.27-0.08
				C611.23,114.05,611.32,114.08,611.41,114.11z M609.98,113.67c-0.22-0.07-0.45-0.14-0.67-0.21
				C609.54,113.53,609.76,113.6,609.98,113.67z"/>
			<path class="st5" d="M508.9,97.42c0.36,0,0.73-0.01,1.1-0.02C509.73,97.26,509.37,97.24,508.9,97.42z"/>
			<g>
				<path class="st12" d="M526.59,93.75c-0.1-0.57-0.19-1.13-0.29-1.7c-2.15-0.58-4.24-0.73-6.05-0.02c-1.98,0.78-4.9,0.46-4.1,1.42
					c0.8,0.96,3.17,1.54,3.17,1.54s0.31,1.56-4.04,1.91c-0.72,0.06-1.48,0.09-2.23,0.1c-0.37,0.01-0.74,0.01-1.1,0.02
					c-1.51,0.02-2.92,0.01-3.86,0.11c-1.14,0.12-1.29,0.56-1.38,0.75c-0.22,0.45,8,7.45,10.1,7.49c2.1,0.04,7.05-0.69,9.67-2.29
					c0.57-0.35,1.28-0.64,2.04-0.88C528.13,99.34,527.09,96.61,526.59,93.75z"/>
				<path class="st13" d="M575.7,86.44c-0.8-4.18-1.59-8.36-1.28-12.65c0.25-3.41,0.96-6.75,1.47-10.13
					c-4.24,10.46-9.5,22.12-12.05,22.48c-4.64,0.66-35.58,5.02-35.36,6.48c0.35,2.39,1.65,6.13,2.71,8.92
					c0.8,2.11,1.04,2.06,1.04,2.06s34.6-5.35,36.43-7.17c0.72-0.72,3.73-3.83,7.1-7.33c-0.05-0.23-0.07-0.48-0.07-0.74
					C575.68,87.73,575.69,87.08,575.7,86.44z"/>
				<path class="st12" d="M638.67,120.02c-0.91,0.19-6.18,1.21-6.49,0.3c-0.03-0.09-0.1-0.35-0.21-0.74
					c-0.78,2.97-2.54,9.94-2.19,10.76c0.45,1.05,1.19,4.03,1.64,2.54c0.45-1.49,1.49-5.83,1.49-5.83s2.24,2.54,2.69,5.38
					c0.45,2.84,0.39,9.89,1.19,7.47c0.45-1.34,0.45-4.33,1.34-5.83c0.9-1.49,2.54-5.08,2.39-8.07
					C640.45,124.15,639.43,121.64,638.67,120.02z"/>
				<path class="st13" d="M635.67,97.77c-2.32-5.64-9.12-29.86-11.61-37.49c-2.49-7.63-10.45-17.25-14.27-19.08
					c-0.96-0.46-1.9-0.69-2.78-0.77c-0.38,0.51-0.42,1.21-0.52,1.79c-0.15,0.9-1.79,2.09-1.79,2.09s-0.75,2.99-1.94,1.79
					c-0.62-0.62-0.91-1.51-1.18-2.37c-4.46,4.04-13.72,12.15-15.34,11.4c-2.16-1,5.21-8.5,5.21-8.5l-0.53-1.8
					c-1.5,1.03-3.28,1.85-5.21,1.91c-0.87,0.03-1.66-0.54-1.91-1.37c-0.06-0.2-0.12-0.41-0.2-0.63c-1.11,0.73-2.05,1.97-2.85,3.46
					c-2.73,5.13-2.31,12.23-2.31,12.23s-3.32,12.77-1.82,19.24c0.37,1.61,0.71,4.32,1.01,7.48c0.91,9.54,1.47,23.21,1.47,23.21
					s0.41-0.08,1.08-0.2c2.51-0.45,8.9-1.53,13.35-1.79c4.83-0.28,20.69,5.62,25.59,6.61c0.83,0.17,1.35,0.2,1.45,0.03
					c0.66-1.16-7.47-17.42-9.62-22.06s2.32-17.58,2.32-17.58s6.64,12.11,10.12,17.92c3.16,5.27,7.55,22.43,8.59,26.3
					c0.1,0.39,0.18,0.65,0.21,0.74c0.3,0.91,5.57-0.12,6.49-0.3c0.09-0.02,0.15-0.03,0.15-0.03S637.99,103.41,635.67,97.77z"/>
				<g>
					<g>
						<path class="st13" d="M607.67,243.09c0,0-3.29-0.07-6.69-0.37c-3.63-0.33-7.38-0.92-7.42-2c0,0-3.44,2.72-7.57,4.33
							c-1.27,0.49-2.62,0.87-3.89,1.23c-2.72,0.77-5.12,1.47-5.84,3.09c-2.16,4.87,31.63,4.6,33.52,2.7
							C611.68,250.18,607.67,243.09,607.67,243.09z"/>
						<path class="st13" d="M593.28,237.97c-0.12-0.83-0.27-1.77-0.46-2.8l-8.48-1.43l-0.02,0c0,0-3.44,2.72-7.57,4.33
							c-3.99,1.55-8.67,1.93-9.73,4.33c-1.07,2.42,6.73,3.57,15.08,3.88c1.27-0.36,2.62-0.74,3.89-1.23
							c4.13-1.6,7.57-4.33,7.57-4.33C593.54,240.03,593.44,239.1,593.28,237.97z"/>
						<path class="st14" d="M619.12,114.99c-2.21-0.44-6.64-1.89-11.29-3.31c-5.67-1.74-11.65-3.45-14.3-3.29
							c-4.45,0.26-10.84,1.35-13.35,1.79c0,0-3.44,61.54-3.44,71.43c0,5.14,4.61,42.56,7.6,52.14l8.48,1.43
							c0.18,1.03,0.34,1.97,0.46,2.8c0.16,1.13,0.26,2.06,0.28,2.75c0.03,1.08,3.79,1.67,7.42,2c3.4,0.31,6.69,0.37,6.69,0.37
							s2.92-34.54-1.4-65.36c-3.6-25.67,8.5-42.29,9.78-45.14C619.86,124.1,619.9,118.48,619.12,114.99z"/>
					</g>
				</g>
				<path class="st12" d="M600.66,41.63c-0.05-0.06-0.08-0.12-0.13-0.18c-0.71-1.02-0.41-2.26-1.82-3.1
					c-0.3-0.18-0.49-0.36-0.65-0.53l-0.21,0.28c-0.39-0.06-0.76-0.16-1.13-0.3c-0.08-0.04-0.17-0.08-0.25-0.12
					c-0.23-0.12-0.5-0.2-0.76-0.2c-0.13,0.02-0.27,0.04-0.4,0.05c-0.2,0.05-0.37,0.14-0.51,0.27c-0.03,0.02-0.05,0.06-0.08,0.08
					c-0.51-1.03,0.79-0.65-0.74-2.05c-0.27-0.25-0.62-0.54-1.09-0.92c-3.58-2.84-2.84,0.15-3.58-2.84s1.05-5.53-0.75-5.68
					c-0.56-0.05-1.02-0.12-1.4-0.14c-0.01-0.03-0.01-0.07-0.02-0.1c-0.11-0.41-0.42-0.75-0.79-0.94c-0.56-0.72-1.42-1.05-2.31-1.34
					c-0.96-0.31-1.93-0.58-2.92-0.81c-0.6-0.14-1.2,0.05-1.58,0.54c-0.06,0.07-0.09,0.16-0.13,0.24c-0.19,0.13-0.35,0.3-0.46,0.51
					c-0.03,0.04-0.06,0.07-0.1,0.11c-1.19,1.49-1.19,0.9-0.9,2.69c0.3,1.79,1.94,2.84,0.75,3.58c-1.09,0.68-0.82,1.22-1.1,0.87
					c0.27,1.22,0.58,2.73,0.8,4.21c0.5,3.32,2.56,3.34,2.56,3.34s0,0,1.49,1.16c0.87,0.68,1.63,2.6,2.11,4.09
					c0.07,0.22,0.14,0.43,0.2,0.63c0.25,0.84,1.04,1.4,1.91,1.37c1.93-0.07,3.71-0.88,5.21-1.91c0.18-0.12-1.1,0.7-0.93,0.57
					l0.47,1.59c0,0-7.36,7.51-5.21,8.5c1.63,0.75,10.88-7.36,15.34-11.4C601.32,42.92,601.1,42.13,600.66,41.63z"/>
			</g>
			<g>
				<path class="st0" d="M595.18,37.83c-0.21,0.36-0.14,0.94-0.02,1.51l0.87-1.14C595.38,37.5,595.65,36.99,595.18,37.83z"/>
				<path class="st0" d="M598.61,42.01c-0.05-0.06-0.08-0.12-0.13-0.18c-0.71-1.02-0.41-2.26-1.82-3.1
					c-0.3-0.18-0.49-0.36-0.65-0.53l-0.87,1.14c0.23,1.06,0.65,2.06-0.13,1.48c-0.38-0.29-0.5-0.44-0.55-0.57
					c-0.4,0.51-1.04,1.28-1.87,2.09c-0.66,0.65-1.45,1.32-2.33,1.93l0.53,1.8c0,0-8.79,8.46-6.64,9.46
					c1.63,0.75,10.88-7.36,15.34-11.4C599.27,43.31,599.05,42.52,598.61,42.01z"/>
				<path class="st0" d="M593.53,38.28c-1.43-1.82,0.63-1.04-1.15-2.67c-0.27-0.25-0.62-0.54-1.09-0.92
					c-3.58-2.84-2.84,0.15-3.58-2.84s1.05-5.53-0.75-5.68s-2.69-0.6-2.39,1.19s1.19,3.88,0.15,3.44c-1.05-0.45-1.05-1.79-2.24-3.14
					c-1.19-1.34-0.45-3.29-1.34-4.03c-0.9-0.75-0.9,1.05-1.64,1.49c-0.75,0.45,1.64,1.94,1.05,2.69c-0.6,0.75-0.15,0.75-1.49-0.75
					c-1.34-1.49-0.6-4.33-1.79-2.84c-1.19,1.49-1.19,0.9-0.9,2.69c0.3,1.79,1.94,2.84,0.75,3.58c-1.09,0.68-0.82,1.22-1.1,0.87
					c0.27,1.22,0.58,2.73,0.8,4.21c0.5,3.32,2.56,3.34,2.56,3.34s0,0,1.49,1.16c0.87,0.68,1.63,2.6,2.11,4.09
					c0.07,0.22,0.14,0.43,0.2,0.63c0.25,0.84,1.04,1.4,1.91,1.37c1.93-0.07,3.71-0.88,5.21-1.91c0.88-0.61,1.66-1.28,2.33-1.93
					c0.83-0.81,1.47-1.58,1.87-2.09C594.39,39.95,594.65,39.7,593.53,38.28z"/>
				<path class="st15" d="M524.84,92.6c-2.36-0.72-4.66-0.96-6.64-0.18c-1.98,0.78-4.9,0.46-4.1,1.42c0.8,0.96,3.17,1.54,3.17,1.54
					s0.31,1.56-4.04,1.91c-0.72,0.06-1.48,0.09-2.23,0.1c0.76,0.38,0.87,1.64,0.76,2.08c-0.15,0.59,0.97,2.75,0.97,2.75
					s-1.12-2.16-0.97-2.75c0.11-0.44,0-1.7-0.76-2.08c-0.37,0.01-0.74,0.01-1.1,0.02c0,0,0,0,0,0c-1.76,0.67,0.6,5.79,0.81,6.04
					c-0.21-0.25-2.57-5.37-0.81-6.04c0,0,0,0,0,0c-1.51,0.02-2.92,0.01-3.86,0.11c1.09-0.09,3.22,2.19,3.22,2.19
					s-2.13-2.28-3.22-2.19c-1.14,0.12-1.29,0.56-1.38,0.75c-0.22,0.45,8,7.45,10.1,7.49c2.1,0.04,7.05-0.69,9.67-2.29
					c1.21-0.74,3.05-1.23,4.69-1.54c-1.06-2.79-2.36-6.53-2.71-8.92C526.01,92.93,525.5,92.8,524.84,92.6z M515.09,101.36
					c-0.06-0.84,0.86-3.1-1.09-2.08s-0.48,5.7-0.28,6.13c-0.2-0.42-1.67-5.11,0.28-6.13S515.03,100.52,515.09,101.36
					c0.06,0.84,1.29,2.33,1.64,2.51C516.38,103.69,515.15,102.2,515.09,101.36z"/>
				<path class="st0" d="M580.12,47.64c0,0-13.69,38.24-18.34,38.9c-4.64,0.66-35.58,5.02-35.36,6.48c0.35,2.39,1.65,6.13,2.71,8.92
					c0.8,2.11,1.04,2.06,1.04,2.06s34.6-5.35,36.43-7.17c0.85-0.85,4.91-5.05,8.98-9.28c-0.3-3.16-0.64-5.87-1.01-7.48
					c-1.49-6.47,1.82-19.24,1.82-19.24S577.39,52.77,580.12,47.64z"/>
				<path class="st11" d="M613.1,25.13c0.9-0.45-1.94-4.48-2.39-5.97c-0.45-1.49,1.05-0.9,0.9-2.24c-0.15-1.34-2.09-2.69-4.18-3.88
					c-2.09-1.19,1.34,0.3,3.44-0.3c2.09-0.6-2.54-3.14-7.17-4.48c-4.63-1.34-3.29-0.75-3.58-2.54s-2.39-2.54-3.88-2.09
					s-2.24,1.79-4.93,0s-3.88,0.45-5.53,2.69c-1.64,2.24-0.9,0.9-1.94,1.64c-1.05,0.75-2.24-1.34-3.14-0.15s-5.53,2.84-7.47,4.78
					s-2.09,4.18-2.39,5.83c-0.3,1.64-0.3,1.05,1.05,3.73c1.34,2.69,0,2.69,1.34,4.93c1.34,2.24,0,0,0.9,1.05
					c0.9,1.05,1.34,2.54,1.79,3.14c0.04,0.05,0.07,0.09,0.1,0.12c0.28,0.35,0.01-0.19,1.1-0.87c1.19-0.75-0.45-1.79-0.75-3.58
					c-0.3-1.79-0.3-1.19,0.9-2.69c1.19-1.49,0.45,1.34,1.79,2.84c1.34,1.49,0.9,1.49,1.49,0.75c0.6-0.75-1.79-2.24-1.05-2.69
					c0.75-0.45,0.75-2.24,1.64-1.49c0.9,0.75,0.15,2.69,1.34,4.03c1.19,1.34,1.19,2.69,2.24,3.14c1.05,0.45,0.15-1.64-0.15-3.44
					s0.6-1.34,2.39-1.19s0,2.69,0.75,5.68s0,0,3.58,2.84c0.47,0.37,0.82,0.67,1.09,0.92c1.78,1.62-0.28,0.85,1.15,2.67
					c1.12,1.42,0.85,1.67,0.95,1.96c0.04,0.14,0.17,0.29,0.55,0.57c0.78,0.58,0.35-0.42,0.13-1.48c-0.12-0.56-0.18-1.14,0.02-1.51
					c0.48-0.84,0.21-0.33,0.84,0.37c0.16,0.17,0.35,0.35,0.65,0.53c1.41,0.85,1.1,2.09,1.82,3.1c0.04,0.06,0.08,0.12,0.13,0.18
					c0.43,0.51,0.66,1.3,0.91,2.11c0.27,0.86,0.57,1.76,1.18,2.37c1.19,1.19,1.94-1.79,1.94-1.79s1.64-1.19,1.79-2.09
					c0.1-0.58,0.14-1.29,0.52-1.79c0.21-0.27,0.5-0.49,0.97-0.6c1.34-0.3,1.64-1.34,1.79-2.24c0.15-0.9,1.94-0.45,2.39-1.19
					c0.45-0.75-1.34-2.39-1.34-3.73c0-1.34,2.24-1.19,1.64-2.54c-0.6-1.34,1.34-1.34,2.39-1.49s-0.45-1.34-1.19-2.84
					C610.86,24.68,612.2,25.58,613.1,25.13z"/>
				<path class="st0" d="M636.62,120.41c-0.91,0.19-6.18,1.21-6.49,0.3c-0.03-0.09-0.1-0.35-0.21-0.74
					c-0.78,2.97-2.54,9.94-2.19,10.76c0.45,1.05,1.19,4.03,1.64,2.54c0.45-1.49,1.49-5.83,1.49-5.83s2.24,2.54,2.69,5.38
					c0.45,2.84,0.39,9.89,1.19,7.47c0.45-1.34,0.45-4.33,1.34-5.83c0.9-1.49,2.54-5.08,2.39-8.07
					C638.4,124.54,637.37,122.03,636.62,120.41z"/>
				<path class="st0" d="M633.61,98.15c-2.32-5.64-9.12-29.86-11.61-37.49c-2.49-7.63-10.45-17.25-14.27-19.08
					c-0.96-0.46-1.9-0.69-2.78-0.77c-0.38,0.51-0.42,1.21-0.52,1.79c-0.15,0.9-1.79,2.09-1.79,2.09s-0.75,2.99-1.94,1.79
					c-0.62-0.62-0.91-1.51-1.18-2.37c-4.46,4.04-13.72,12.15-15.34,11.4c-2.16-1,6.64-9.46,6.64-9.46l-0.53-1.8
					c-1.5,1.03-3.28,1.85-5.21,1.91c-0.87,0.03-1.66-0.54-1.91-1.37c-0.06-0.2-0.12-0.41-0.2-0.63c-1.11,0.73-2.05,1.97-2.85,3.46
					c-2.73,5.13-3.74,13.19-3.74,13.19s-3.32,12.77-1.82,19.24c0.37,1.61,0.71,4.32,1.01,7.48c0.91,9.54,1.47,23.21,1.47,23.21
					s0.41-0.08,1.08-0.2c2.51-0.45,8.9-1.53,13.35-1.79c4.83-0.28,20.69,5.62,25.59,6.61c0.83,0.17,1.35,0.2,1.45,0.03
					c0.66-1.16-7.47-17.42-9.62-22.06s2.32-17.58,2.32-17.58s6.64,12.11,10.12,17.92c3.16,5.27,7.55,22.43,8.59,26.3
					c0.1,0.39,0.18,0.65,0.21,0.74c0.3,0.91,5.57-0.12,6.49-0.3c0.09-0.02,0.15-0.03,0.15-0.03S635.93,103.79,633.61,98.15z"/>
				<path class="st0" d="M577.41,37.63c0-0.36,1.98-4.85,1.08-7.1"/>
				<path class="st0" d="M579.37,38.93c0,0,2.63-0.4,2.81-0.94"/>
				<path class="st0" d="M586.48,37.9c0,0-0.54,3.68-4.58,3.23"/>
				<circle class="st11" cx="584.01" cy="33.06" r="0.62"/>
				<circle class="st11" cx="577.14" cy="32.06" r="0.62"/>
				<g>
					<g>
						<path class="st0" d="M605.62,243.48c0,0-3.29-0.07-6.69-0.37c-3.63-0.33-7.38-0.92-7.42-2c0,0-3.44,2.72-7.57,4.33
							c-1.27,0.49-2.62,0.87-3.89,1.23c-2.72,0.77-5.12,1.47-5.84,3.09c-2.16,4.87,31.63,4.6,33.52,2.7
							C609.62,250.56,605.62,243.48,605.62,243.48z"/>
						<path class="st0" d="M591.23,238.36c-0.12-0.83-0.27-1.77-0.46-2.8l-8.48-1.43l-0.02,0c0,0-3.44,2.72-7.57,4.33
							c-3.99,1.55-8.67,1.93-9.73,4.33c-1.07,2.42,6.73,3.57,15.08,3.88c1.27-0.36,2.62-0.74,3.89-1.23
							c4.13-1.6,7.57-4.33,7.57-4.33C591.49,240.41,591.39,239.48,591.23,238.36z"/>
						<path class="st0" d="M617.07,115.37c-2.21-0.44-6.64-1.89-11.29-3.31c-5.67-1.74-11.65-3.45-14.3-3.29
							c-4.45,0.26-10.84,1.35-13.35,1.79c0,0-3.44,61.54-3.44,71.43c0,5.14,4.61,42.56,7.6,52.14l8.48,1.43
							c0.18,1.03,0.34,1.97,0.46,2.8c0.16,1.13,0.26,2.06,0.28,2.75c0.03,1.08,3.79,1.67,7.42,2c3.4,0.31,6.69,0.37,6.69,0.37
							s2.92-34.54-1.4-65.36c-3.6-25.67,8.5-42.29,9.78-45.14C617.81,124.48,617.85,118.86,617.07,115.37z"/>
						<path class="st0" d="M577.35,126.06c0.45,3.1,0.92,17.08,0.92,52.1c0,10.29,9.71,41.74,12.51,57.39
							c0.18,1.03,0.34,1.97,0.46,2.8c0.16,1.13,0.26,2.06,0.28,2.75"/>
					</g>
				</g>
			</g>
		</g>
	</g>
</g>
</svg>
