<?xml version="1.0" encoding="utf-8"?>
<!-- Generator: Adobe Illustrator 23.0.6, SVG Export Plug-In . SVG Version: 6.00 Build 0)  -->
<svg version="1.1" id="Layer_1" xmlns="http://www.w3.org/2000/svg" xmlns:xlink="http://www.w3.org/1999/xlink" x="0px" y="0px"
	 viewBox="0 0 841.89 467.72" style="enable-background:new 0 0 841.89 467.72;" xml:space="preserve">
<style type="text/css">
	.st0{fill:#61A575;}
	.st1{fill:#8FC09E;}
	.st2{fill:#4890BA;}
	.st3{fill:#B2B2B2;}
	.st4{fill:#F4F4F5;}
	.st5{fill:#F5C65D;}
	.st6{fill:none;stroke:#54575C;stroke-width:2;stroke-miterlimit:10;}
	.st7{fill:#EDEDED;}
	.st8{fill:#706F6F;}
	.st9{fill:none;stroke:#54575C;stroke-width:1.485;stroke-miterlimit:10;}
	.st10{fill:#E0635D;}
	.st11{fill:none;stroke:#54575C;stroke-width:2;stroke-linejoin:round;stroke-miterlimit:10;}
	.st12{fill:#54575C;stroke:#54575C;stroke-width:2;stroke-miterlimit:10;}
	.st13{fill:#54575C;}
	.st14{fill:#C6C6C6;}
	.st15{fill:none;stroke:#61A575;stroke-width:1.5595;stroke-miterlimit:10;stroke-dasharray:2.7185,0.9062;}
	.st16{fill:none;stroke:#54575C;stroke-width:1.3924;stroke-miterlimit:10;}
	.st17{fill:none;stroke:#54575C;stroke-width:1.3924;stroke-miterlimit:10;stroke-dasharray:2.7353,0.9118;}
	.st18{fill:none;stroke:#54575C;stroke-width:1.3924;stroke-miterlimit:10;stroke-dasharray:2.7297,0.9099;}
	.st19{fill:none;stroke:#54575C;stroke-width:1.3924;stroke-miterlimit:10;stroke-dasharray:2.7241,0.908;}
	.st20{fill:none;stroke:#54575C;stroke-width:1.3924;stroke-miterlimit:10;stroke-dasharray:2.7185,0.9062;}
	.st21{fill:none;stroke:#54575C;stroke-width:1.5317;stroke-miterlimit:10;}
	.st22{clip-path:url(#SVGID_2_);}
	.st23{fill:none;stroke:#61A575;stroke-width:1.7156;stroke-miterlimit:10;stroke-dasharray:2.9905,0.9968;}
	.st24{clip-path:url(#SVGID_2_);fill:none;stroke:#54575C;stroke-width:1.5317;stroke-miterlimit:10;}
	.st25{fill:none;stroke:#54575C;stroke-width:1.5317;stroke-miterlimit:10;stroke-dasharray:3.009,1.003;}
	.st26{fill:none;stroke:#54575C;stroke-width:1.5317;stroke-miterlimit:10;stroke-dasharray:3.0028,1.0009;}
	.st27{fill:none;stroke:#54575C;stroke-width:1.5317;stroke-miterlimit:10;stroke-dasharray:2.9966,0.9989;}
	.st28{fill:none;stroke:#54575C;stroke-width:1.5317;stroke-miterlimit:10;stroke-dasharray:2.9905,0.9968;}
	.st29{fill:none;stroke:#54575C;stroke-width:1.6939;stroke-miterlimit:10;}
	.st30{fill:none;stroke:#54575C;stroke-width:1.9856;stroke-miterlimit:10;}
	.st31{fill:#E2AE8A;}
	.st32{fill:none;stroke:#54575C;stroke-width:1.7086;stroke-miterlimit:10;}
	.st33{fill:#FFFFFF;}
	.st34{fill:none;stroke:#54575C;stroke-width:1.3964;stroke-miterlimit:10;}
	.st35{fill:none;}
	.st36{fill:#DCEFFA;}
	.st37{clip-path:url(#SVGID_4_);}
	.st38{clip-path:url(#SVGID_4_);fill:none;stroke:#54575C;stroke-width:1.5317;stroke-miterlimit:10;}
	.st39{fill:#235485;}
	.st40{clip-path:url(#SVGID_6_);}
	.st41{clip-path:url(#SVGID_6_);fill:none;stroke:#54575C;stroke-width:1.5317;stroke-miterlimit:10;}
</style>
<rect x="-2.46" y="-0.82" class="st36" width="843.66" height="472.32"/>
<path class="st39" d="M223.37,401.61c14.62-3.45,29.04-7.57,43.46-11.76c30.05-8.71,59.93-18.05,89.51-28.25
	c29.27-10.1,58.22-21.09,86.74-33.16c26.21-11.09,52.2-22.78,77.34-36.14c2.97-1.58,5.94-3.19,8.89-4.82
	c4.41-16.81,6.76-34.46,6.76-52.65c0-114.37-107.53-264.59-178.62-175c-36.5,46-63.73,95.65-100.62,118.12
	c-70.09,42.69-142.14,40.5-147.87,102.48c-5.8,62.78,32.12,105.65,80.09,131.2C200.1,407.15,211.78,404.34,223.37,401.61z"/>
<g>
	<g>
		<g>
			<path class="st2" d="M782.26,160.09c0,0-47.65-8.93-54.64-8.93c-4.26,0-633.9,181.18-633.9,181.18
				c-19.64,7.4-29.04,18.24-29.04,33.59c0,8.67,3.88,16.51,10.15,22.22l-0.47,0.68l54.95,46.14c3.53,5.58,8.88,10.09,15.34,12.88
				l1.87,1.57l0.94-0.5c3.83,1.29,7.97,2,12.29,2c3.06,0,6.02-0.35,8.85-1.02L769.2,204.16c0,0,16.53-7.27,18.14-8.27
				c5.6-3.49,9.34-9.69,9.34-16.78C796.68,170.05,790.57,162.43,782.26,160.09z"/>
			<path class="st3" d="M793.59,179.06c0-7.94-6.12-16.29-10.99-14.43c-12.5,4.76-635.62,225.21-638.89,227.27
				c-9.81,6.18-14.55,14.24-14.55,24.58c0,15.65,14.08,28.34,31.44,28.34c2.74,0,5.41-0.32,7.94-0.91l600.36-243.36
				c0,0,15.43-6.65,16.87-7.54C790.81,189.88,793.59,185.43,793.59,179.06z"/>
			<g>
				
					<ellipse transform="matrix(0.8893 -0.4573 0.4573 0.8893 -19.99 342.4394)" class="st4" cx="697.37" cy="212.51" rx="14.95" ry="13.15"/>
				
					<ellipse transform="matrix(0.8893 -0.4573 0.4573 0.8893 -19.99 342.4394)" class="st5" cx="697.37" cy="212.51" rx="11.56" ry="10.16"/>
			</g>
			<g>
				
					<ellipse transform="matrix(0.8893 -0.4573 0.4573 0.8893 2.0475 374.4682)" class="st4" cx="774.54" cy="183" rx="12.59" ry="11.07"/>
				
					<ellipse transform="matrix(0.8893 -0.4573 0.4573 0.8893 2.0475 374.4682)" class="st5" cx="774.54" cy="183" rx="9.73" ry="8.56"/>
			</g>
			<g>
				
					<ellipse transform="matrix(0.8893 -0.4573 0.4573 0.8893 -43.3568 308.0734)" class="st4" cx="614.69" cy="243.6" rx="17.38" ry="15.29"/>
				
					<ellipse transform="matrix(0.8893 -0.4573 0.4573 0.8893 -43.3568 308.0734)" class="st5" cx="614.69" cy="243.6" rx="13.44" ry="11.82"/>
			</g>
			<g>
				
					<ellipse transform="matrix(0.8893 -0.4573 0.4573 0.8893 -134.3448 177.0758)" class="st4" cx="298.6" cy="366.05" rx="23.76" ry="20.9"/>
				
					<ellipse transform="matrix(0.8893 -0.4573 0.4573 0.8893 -134.3448 177.0758)" class="st5" cx="298.6" cy="366.05" rx="18.37" ry="16.15"/>
			</g>
			<g>
				
					<ellipse transform="matrix(0.8893 -0.4573 0.4573 0.8893 -98.1242 227.6924)" class="st4" cx="421.27" cy="316.54" rx="20.01" ry="17.6"/>
				
					<ellipse transform="matrix(0.8893 -0.4573 0.4573 0.8893 -98.1242 227.6924)" class="st5" cx="421.27" cy="316.54" rx="15.47" ry="13.6"/>
			</g>
			<g>
				
					<ellipse transform="matrix(0.8893 -0.4573 0.4573 0.8893 -171.4834 122.4554)" class="st4" cx="167.21" cy="415.45" rx="27.63" ry="24.3"/>
				
					<ellipse transform="matrix(0.8893 -0.4573 0.4573 0.8893 -171.4834 122.4554)" class="st5" cx="167.21" cy="415.45" rx="21.36" ry="18.78"/>
			</g>
			<g>
				<g>
					<path class="st7" d="M513.78,241.99l-35.05-18.2c-0.52-0.31-1.14-0.38-1.72-0.2l-63.76,19.62c-1.73,0.53-0.92,5.12,0.36,5.95
						l31.64,20.67c1.33,0.87,2.98,1.06,4.47,0.52l64.59-22.38C516.01,247.35,515.14,242.8,513.78,241.99z"/>
					<path class="st8" d="M450.67,266.31l62.81-21.74c0.94-0.34,1.07-1.62,0.2-2.13l-35.21-18.3c-0.49-0.29-1.09-0.36-1.64-0.2
						l-63.31,19.48c-0.7,0.22-0.83,1.15-0.22,1.55l31.65,20.67C446.65,266.75,448.77,267,450.67,266.31z"/>
				</g>
				<g>
					<path class="st9" d="M512.75,242.51l-35.05-18.2c-0.52-0.31-1.14-0.38-1.72-0.2l-63.76,19.62c-1.73,0.53-0.92,5.12,0.36,5.95
						l31.64,20.67c1.33,0.87,2.98,1.06,4.47,0.52l64.59-22.38C514.98,247.87,514.11,243.31,512.75,242.51z"/>
					<path class="st9" d="M449.64,266.82l62.81-21.74c0.94-0.34,1.07-1.62,0.2-2.13l-35.21-18.3c-0.49-0.29-1.09-0.36-1.64-0.2
						l-63.31,19.48c-0.7,0.22-0.83,1.15-0.22,1.55l31.65,20.67C445.62,267.26,447.73,267.51,449.64,266.82z"/>
				</g>
			</g>
			<polygon class="st4" points="510.4,348.9 487.88,337.25 490.21,183.52 416.44,172.01 414.89,240.1 394.33,245.25 397.04,148.2 
				511.8,152.19 			"/>
			<polygon class="st4" points="510.4,348.9 581.83,328.32 578,145.83 511.8,152.19 			"/>
			<path class="st5" d="M473.61,150.46l27.73,1.21c4.41-5.38,8.36-13.08,7.07-18.9c-2.83-12.72-10.07-20.67-21.73-18.9
				c-11.66,1.77-20.32,21.73-15.37,32.15C472.02,147.54,472.81,149.03,473.61,150.46z"/>
			<g>
				<path class="st2" d="M526.03,262.61c2.97-5.77,7.76-10.56,14.03-13.39c10.39-4.67,22.13-2.72,30.8,4.04l-0.86-12.42
					l-18.29-10.65l-30.93,6.28l-0.04,23.78C522.5,261.05,524.27,261.83,526.03,262.61z"/>
				<path class="st10" d="M575.15,261.42c-1.66-5.23-5.42-9.19-9.29-12.32c-8.36-6.77-19.68-8.71-29.69-4.04
					c-14.65,6.83-20.95,25.24-14.07,41.11c1.77,4.08,4.24,7.59,7.18,10.44c8.49,8.25,20.9,10.95,31.8,5.92
					C572.85,297.09,580.65,278.81,575.15,261.42z"/>
				<path class="st4" d="M574.03,262.87c-1.43-4.52-4.68-7.94-8.02-10.64c-7.22-5.85-17-7.53-25.65-3.49
					c-12.66,5.9-18.1,21.8-12.16,35.51c1.53,3.52,3.66,6.56,6.2,9.02c7.34,7.13,18.06,9.46,27.48,5.11
					C572.04,293.69,578.78,277.89,574.03,262.87z"/>
			</g>
			<polygon class="st3" points="533.43,161.68 520.93,163.3 521.17,220.94 525.8,221.17 538.06,218.69 538.06,163.3 			"/>
			<polygon class="st10" points="526.72,164.89 526.95,221.17 539.22,218.69 539.22,163.3 			"/>
			<g>
				<polygon class="st3" points="440.55,175.99 412.76,171.42 411.21,241.97 447.88,232.02 				"/>
				<path class="st10" d="M473.03,244.9c-0.38,0.93-0.77,1.66-1.18,2.12c-5.86,6.65,16.77,7.99,16.77,7.99l1.58-70.85
					c-1.63-0.27-4.97-0.81-9.37-1.54C480.35,190.77,477.64,233.63,473.03,244.9z"/>
				<path class="st10" d="M461.41,179.43c-2.02,8.25-6.92,28.66-7.13,33.52c-0.17,3.84-5.67,12.91-9.75,19.14
					c-2.43,3.71-4.35,6.41-4.35,6.41c9.91,7.88,30.98,6.54,32.86,6.4c4.61-11.27,7.31-54.13,7.79-62.28
					C475.51,181.75,468.66,180.63,461.41,179.43z"/>
				<path class="st10" d="M461.41,179.43c-4.25-0.7-8.62-1.42-12.91-2.13c-4.42,7.59-19.36,33.29-24.75,43.66
					c-1.15,2.22-1.87,3.74-1.95,4.23c-0.43,2.58,14.48,6.39,22.72,6.9c4.08-6.23,9.59-15.3,9.75-19.14
					C454.49,208.1,459.39,187.68,461.41,179.43z"/>
				<path class="st10" d="M440.55,175.99l-19.92,28.68l-3.35,4.82l2.4,10.91l4.08,0.56c5.38-10.38,20.32-36.08,24.75-43.66
					C445.8,176.86,443.12,176.41,440.55,175.99z"/>
			</g>
		</g>
		<g>
			<g>
				
					<ellipse transform="matrix(0.8893 -0.4573 0.4573 0.8893 -21.1336 341.5544)" class="st6" cx="694.97" cy="214.43" rx="14.95" ry="13.15"/>
				
					<ellipse transform="matrix(0.8893 -0.4573 0.4573 0.8893 -21.1336 341.5544)" class="st6" cx="694.97" cy="214.43" rx="11.56" ry="10.16"/>
			</g>
			<g>
				
					<ellipse transform="matrix(0.8893 -0.4573 0.4573 0.8893 0.9039 373.5833)" class="st6" cx="772.14" cy="184.92" rx="12.59" ry="11.07"/>
				
					<ellipse transform="matrix(0.8893 -0.4573 0.4573 0.8893 0.9039 373.5833)" class="st6" cx="772.14" cy="184.92" rx="9.73" ry="8.56"/>
			</g>
			<g>
				
					<ellipse transform="matrix(0.8893 -0.4573 0.4573 0.8893 -44.5004 307.1884)" class="st6" cx="612.29" cy="245.52" rx="17.38" ry="15.29"/>
				
					<ellipse transform="matrix(0.8893 -0.4573 0.4573 0.8893 -44.5004 307.1884)" class="st6" cx="612.29" cy="245.52" rx="13.44" ry="11.82"/>
			</g>
			<g>
				
					<ellipse transform="matrix(0.8893 -0.4573 0.4573 0.8893 -135.4884 176.1909)" class="st6" cx="296.2" cy="367.97" rx="23.76" ry="20.9"/>
				
					<ellipse transform="matrix(0.8893 -0.4573 0.4573 0.8893 -135.4884 176.1909)" class="st6" cx="296.2" cy="367.97" rx="18.37" ry="16.15"/>
			</g>
			<g>
				
					<ellipse transform="matrix(0.8893 -0.4573 0.4573 0.8893 -99.2678 226.8075)" class="st6" cx="418.87" cy="318.46" rx="20.01" ry="17.6"/>
				
					<ellipse transform="matrix(0.8893 -0.4573 0.4573 0.8893 -99.2678 226.8075)" class="st6" cx="418.87" cy="318.46" rx="15.47" ry="13.6"/>
			</g>
			<g>
				
					<ellipse transform="matrix(0.8893 -0.4573 0.4573 0.8893 -172.627 121.5704)" class="st6" cx="164.81" cy="417.37" rx="27.63" ry="24.3"/>
				
					<ellipse transform="matrix(0.8893 -0.4573 0.4573 0.8893 -172.627 121.5704)" class="st6" cx="164.81" cy="417.37" rx="21.36" ry="18.78"/>
			</g>
			<path class="st6" d="M779.86,162.01l-202.45,72.04l0.09,4.51c109.65-38.89,198.07-70.25,202.7-72.01
				c4.87-1.86,10.99,6.49,10.99,14.43c0,6.36-2.79,10.82-7.82,13.95c-1.44,0.9-16.87,7.54-16.87,7.54l-188.16,76.27l0.09,4.41
				l188.36-77.07c0,0,16.53-7.27,18.14-8.27c5.6-3.49,9.34-9.69,9.34-16.78C794.28,171.97,788.17,164.35,779.86,162.01z"/>
			<path class="st6" d="M779.86,162.01c0,0-47.65-8.93-54.64-8.93c-1.33,0-63.6,17.65-148.63,41.94l0.82,39.04L779.86,162.01z"/>
			<path class="st6" d="M766.51,202.47c0,0,15.43-6.65,16.87-7.54c5.03-3.13,7.82-7.58,7.82-13.95c0-7.94-6.12-16.29-10.99-14.43
				c-4.63,1.76-93.05,33.12-202.7,72.01l0.84,40.18L766.51,202.47z"/>
			<polygon class="st6" points="578.44,283.15 578.35,278.74 577.5,238.56 577.41,234.05 576.59,195.02 575.6,147.75 509.4,154.11 
				508.97,214.35 508.65,258.52 508.62,262.99 508.31,307.13 508.28,311.86 508,350.82 579.43,330.24 			"/>
			<path class="st6" d="M471.21,152.38l27.73,1.21c4.41-5.38,8.36-13.08,7.07-18.9c-2.83-12.72-10.07-20.67-21.73-18.9
				c-11.66,1.77-20.32,21.73-15.37,32.15C469.62,149.46,470.41,150.95,471.21,152.38z"/>
			<path class="st11" d="M480.46,153.14c-0.49-3.38-1.42-6.92-3.62-9.62c0.52,0.42,1.47,1.06,2.17,0.96
				c1.87-0.28,0.68-1.95,1.58-2.59c0.79-0.56,0.94,0.14,1.78,0.85c3.83,3.25,6.69,2.63,9.31-2.04c-1.2,4.22-2.41,8.43-3.61,12.65"/>
			<g>
				<path class="st11" d="M523.63,264.53c2.97-5.77,7.76-10.56,14.03-13.39c10.39-4.67,22.13-2.72,30.8,4.04l-0.86-12.42
					l-18.29-10.65l-30.93,6.28l-0.04,23.78C520.1,262.97,521.87,263.75,523.63,264.53z"/>
				<path class="st11" d="M572.75,263.34c-1.66-5.23-5.42-9.19-9.29-12.32c-8.36-6.77-19.68-8.71-29.69-4.04
					c-14.65,6.83-20.95,25.24-14.07,41.11c1.77,4.08,4.24,7.59,7.18,10.44c8.49,8.25,20.9,10.95,31.8,5.92
					C570.45,299.01,578.26,280.73,572.75,263.34z"/>
				<path class="st11" d="M571.63,264.79c-1.43-4.52-4.68-7.94-8.02-10.64c-7.22-5.85-17-7.53-25.65-3.49
					c-12.66,5.9-18.1,21.8-12.16,35.51c1.53,3.52,3.66,6.56,6.2,9.02c7.34,7.13,18.06,9.46,27.48,5.11
					C569.64,295.61,576.38,279.81,571.63,264.79z"/>
			</g>
			<path class="st12" d="M550.55,274.99c3.68-2.26,9.87-5.99,13.76-8.32c1.93-1.16,2.36-3.64,0.91-5.32
				c-3.53-4.1-14.54-11.92-16.22-7.99c-0.18,0.43,0.3,13.95-0.52,20.21C548.34,274.75,549.5,275.64,550.55,274.99z"/>
			<path class="st12" d="M546.92,276c-3.81,2.77-10.23,7.34-14.26,10.2c-2,1.42-2.24,4.17-0.51,5.88
				c4.23,4.18,16.96,11.83,18.44,7.4c0.16-0.48-1.61-15.2-1.29-22.1C549.36,276.09,548.01,275.21,546.92,276z"/>
			<line class="st11" x1="518.39" y1="238.39" x2="530.8" y2="247.16"/>
			<line class="st6" x1="567.61" y1="242.77" x2="553.26" y2="245.78"/>
			<polygon class="st6" points="531.03,163.6 518.53,165.22 518.77,222.86 523.4,223.09 535.66,220.6 535.66,165.22 			"/>
			<g>
				<path class="st13" d="M534.82,167.49v51.48l-8.28,1.68l-0.21-52.08L534.82,167.49 M536.82,165.22l-12.5,1.58l0.23,56.29
					l12.27-2.49V165.22L536.82,165.22z"/>
			</g>
			<g>
				<path class="st6" d="M138.75,390.15l347.83-123.78l0.69-45.81c-0.08,0.02-0.17,0.05-0.25,0.07l-0.81,36.29
					c0,0-22.62-1.33-16.77-7.99c0.41-0.46,0.8-1.19,1.18-2.12c-1.87,0.14-22.94,1.48-32.86-6.4c0,0,1.93-2.7,4.35-6.41
					c-0.45-0.03-0.92-0.07-1.4-0.11c-9.38,2.69-18.81,5.39-28.23,8.09l0,0.02l-0.68,0.17c-159.65,45.78-320.49,92.06-320.49,92.06
					c-19.64,7.4-29.04,18.24-29.04,33.59c0,8.67,9.68,22.9,9.68,22.9l54.95,46.14C126.91,436.89,106.44,409.05,138.75,390.15z"/>
				<path class="st6" d="M412.49,242c-0.23,0.07-0.45,0.13-0.68,0.2l0.68-0.17L412.49,242z"/>
				<path class="st6" d="M166.15,445.83c-2.54,0.6-5.2,0.91-7.94,0.91c-17.37,0-31.44-12.69-31.44-28.34
					c0-10.34,4.75-18.4,14.55-24.58c1.74-1.09,178.18-63.74,345.2-122.99l0.07-4.46L138.75,390.15
					c-32.32,18.9-11.85,46.74-11.85,46.74c6.85,10.91,21.16,14.7,28.92,15.74c5.62,0.75,27-7.6,27-7.6l302.93-123.95l0.07-4.83
					L166.15,445.83z"/>
				<path class="st6" d="M126.76,418.4c0,15.65,14.08,28.34,31.44,28.34c2.74,0,5.41-0.32,7.94-0.91l319.68-129.58l0.69-45.41
					c-167.03,59.25-343.47,121.9-345.2,122.99C131.51,400.01,126.76,408.07,126.76,418.4z"/>
				<path class="st6" d="M394.64,150.12l-2.72,97.05l19.88-4.98c0.23-0.07,0.45-0.13,0.68-0.2l1.55-68.06l73.77,11.51l-0.53,35.12
					l-0.69,45.81l-0.07,4.46l-0.69,45.41l-0.07,4.83l-0.27,18.1L508,350.82l0.32-44.59l0.31-43.24l0.03-4.47l0.31-44.17l0.43-60.24
					L394.64,150.12z"/>
				<path class="st6" d="M478.42,184.54c-0.3,5.07-1.46,23.56-3.4,39.53c-1.18,9.71-2.65,18.49-4.39,22.75
					c-0.38,0.93-0.77,1.66-1.18,2.12c-5.86,6.65,16.77,7.99,16.77,7.99l0.81-36.29l0.77-34.56
					C486.17,185.81,482.83,185.27,478.42,184.54z"/>
				<path class="st6" d="M459.01,181.35c-2.02,8.25-6.92,28.66-7.13,33.52c-0.16,3.71-5.31,12.31-9.34,18.51
					c-0.14,0.21-0.28,0.43-0.41,0.63c-2.43,3.71-4.35,6.41-4.35,6.41c9.91,7.88,30.98,6.54,32.86,6.4
					c1.74-4.26,3.21-13.04,4.39-22.75c1.94-15.97,3.1-34.46,3.4-39.53C473.11,183.67,466.26,182.55,459.01,181.35z"/>
				<path class="st6" d="M451.88,214.87c0.21-4.85,5.11-25.27,7.13-33.52c-4.25-0.7-8.62-1.42-12.91-2.13
					c-4.42,7.59-19.36,33.29-24.75,43.66c-1.15,2.22-1.87,3.74-1.95,4.23c-0.41,2.44,12.9,5.98,21.31,6.79
					c0.61-0.17,1.21-0.35,1.82-0.52C446.57,227.18,451.72,218.58,451.88,214.87z"/>
				<path class="st6" d="M440.73,233.9c0.48,0.05,0.96,0.09,1.4,0.11c0.13-0.21,0.27-0.42,0.41-0.63
					C441.94,233.55,441.33,233.73,440.73,233.9z"/>
				<path class="st11" d="M414.04,173.93L412.49,242c9.43-2.7,18.85-5.4,28.23-8.09c-8.42-0.81-21.72-4.34-21.31-6.79
					c0.08-0.49,0.8-2.01,1.95-4.23l-4.08-0.56l-2.4-10.91l3.35-4.82l19.92-28.68c2.57,0.43,5.24,0.87,7.95,1.32
					c4.28,0.71,8.66,1.43,12.91,2.13c7.25,1.19,14.1,2.32,19.41,3.19c4.4,0.72,7.75,1.27,9.37,1.54l-0.77,34.56
					c0.08-0.02,0.17-0.05,0.25-0.07l0.53-35.12L414.04,173.93z"/>
				<path class="st6" d="M438.15,177.91l-19.92,28.68l-3.35,4.82l2.4,10.91l4.08,0.56c5.38-10.38,20.32-36.08,24.75-43.66
					C443.4,178.78,440.72,178.33,438.15,177.91z"/>
			</g>
			<g>
				<line class="st6" x1="680.92" y1="165.24" x2="734.72" y2="177.78"/>
				<line class="st6" x1="623.35" y1="181.78" x2="678.08" y2="197.92"/>
				<path class="st6" d="M577.75,202.55c14.8,4.71,28.8,10.71,43.68,15.5"/>
				<line class="st6" x1="393.08" y1="247.9" x2="451.51" y2="278.47"/>
				<line class="st6" x1="335.51" y1="264.44" x2="394.87" y2="298.6"/>
				<line class="st6" x1="277.94" y1="280.97" x2="338.23" y2="318.74"/>
				<line class="st6" x1="220.37" y1="297.5" x2="281.59" y2="338.87"/>
				<line class="st6" x1="162.8" y1="314.03" x2="224.95" y2="359.01"/>
				<line class="st6" x1="105.23" y1="330.57" x2="168.31" y2="379.15"/>
			</g>
			<line class="st6" x1="121.74" y1="412.85" x2="63.84" y2="360.77"/>
		</g>
	</g>
	<g>
		<g>
			<g>
				<path class="st4" d="M758.35,142.07l-1.03,0.15l2.52-2.02c0.86-0.68,1.33-1.73,1.28-2.83c-0.25-5.46-1.01-21.96-1.01-22.35
					c0-0.47-4.97-12.59-4.97-12.59l-6.68-1.55l-51.28,1.86l0.31,38.07l50.07,4.69L758.35,142.07z"/>
				<path class="st4" d="M759.47,141.91l-1.12,0.16l-10.78,3.44l-50.07-4.69l-22.84,16.47l4.97,5.13l55.17,8.08l27.51-11.34
					l0.38-14.39C762.73,143.03,761.2,141.66,759.47,141.91z"/>
			</g>
			<g>
				<path class="st14" d="M742.96,140.66l0.01-4.78c-11.95,1.7-28.13,0.1-31.97-0.81c-0.91-0.22-0.98-0.66-1.21-1.57
					c-1.51-5.91-1.38-19.28-0.7-23.39c0.13-0.75,0.76-1.3,1.52-1.31l32.42-0.33l0.01-3.79l-38.25,1.06l0.23,30.97L742.96,140.66z"/>
				<polygon class="st4" points="743.03,104.67 743.03,108.46 742.97,135.88 742.96,140.66 705.01,136.71 704.78,105.73 
					701.61,105.82 701.88,138.71 745.14,142.77 745.16,135.52 745.22,108.44 745.23,104.61 				"/>
				<path class="st13" d="M710.6,108.8c-0.76,0.02-1.39,0.57-1.52,1.31c-0.69,4.1-0.81,17.48,0.7,23.39
					c0.23,0.91,0.3,1.36,1.21,1.57c3.84,0.91,20.02,2.51,31.97,0.81l0.06-27.42L710.6,108.8z"/>
			</g>
			<g>
				<line class="st15" x1="712.28" y1="116.09" x2="734.86" y2="116.13"/>
			</g>
			<g>
				<line class="st15" x1="712.56" y1="119.46" x2="728.39" y2="119.5"/>
			</g>
		</g>
		<g>
			<path class="st16" d="M759.7,142.66l-1.03,0.15l2.52-2.02c0.86-0.68,1.33-1.73,1.28-2.83c-0.25-5.46-1.01-21.96-1.01-22.35
				c0-0.47-4.97-12.59-4.97-12.59l-6.68-1.55l-51.28,1.86l0.31,38.07l50.07,4.69L759.7,142.66z"/>
			<path class="st16" d="M760.81,142.5l-1.12,0.16l-10.78,3.44l-50.07-4.69L676,157.88l4.97,5.13l55.17,8.08l27.51-11.34l0.38-14.39
				C764.07,143.62,762.54,142.26,760.81,142.5z"/>
		</g>
		<g>
			<path class="st16" d="M744.3,141.25l0.01-4.78c-11.96,1.7-28.13,0.1-31.97-0.81c-0.91-0.22-0.98-0.66-1.21-1.57
				c-1.51-5.91-1.38-19.28-0.7-23.39c0.13-0.75,0.76-1.3,1.52-1.31l32.42-0.33l0.01-3.79l-38.25,1.06l0.23,30.97L744.3,141.25z"/>
			<polygon class="st16" points="744.38,105.26 744.37,109.06 744.31,136.48 744.3,141.25 706.35,137.3 706.13,106.33 
				702.96,106.41 703.22,139.31 746.48,143.36 746.5,136.12 746.57,109.03 746.58,105.2 			"/>
			<path class="st16" d="M711.94,109.39c-0.76,0.02-1.39,0.57-1.52,1.31c-0.69,4.1-0.81,17.48,0.7,23.39
				c0.23,0.91,0.3,1.36,1.21,1.57c3.84,0.91,20.02,2.51,31.97,0.81l0.06-27.42L711.94,109.39z"/>
		</g>
		<path class="st16" d="M749.81,101.47l-0.06,44.52c0,0,2.64,0.32,0.84,2.21c-1.79,1.9-20.66,17.92-20.66,17.92
			s-44.9-6.43-53.02-6.64"/>
		<line class="st16" x1="729.94" y1="166.13" x2="736.79" y2="170.55"/>
		<path class="st16" d="M759.5,142.78c0,0,1.74,0.14,1.74,1.78c0,1.64,0,4.27,0,4.27"/>
		<path class="st16" d="M757.5,143.46c0,0,1.74,0.14,1.74,1.78c0,1.64,0,4.27,0,4.27"/>
		<path class="st16" d="M755.51,144.14c0,0,1.74,0.14,1.74,1.78s0,4.27,0,4.27"/>
		<path class="st16" d="M751.4,145.5c0,0,1.74,0.14,1.74,1.78c0,1.64,0,4.27,0,4.27"/>
		<path class="st16" d="M752.16,102.05c0,0.37,1.6,7.14,1.6,7.14l-0.25,35.63c0,0,1.74,0.14,1.74,1.78s0,4.27,0,4.27"/>
		<path class="st16" d="M684.82,156.71c1.11,0.37,41.75,5.54,41.75,5.54l8.02-8.02"/>
		<g>
			<g>
				<line class="st16" x1="686.69" y1="154.68" x2="688.07" y2="154.86"/>
				<line class="st17" x1="688.97" y1="154.98" x2="724.7" y2="159.55"/>
				<line class="st16" x1="725.15" y1="159.6" x2="726.53" y2="159.78"/>
			</g>
			<g>
				<line class="st16" x1="689.99" y1="153.02" x2="691.37" y2="153.2"/>
				<line class="st18" x1="692.27" y1="153.31" x2="726.74" y2="157.62"/>
				<line class="st16" x1="727.19" y1="157.68" x2="728.57" y2="157.85"/>
			</g>
			<g>
				<line class="st16" x1="693.29" y1="151.37" x2="694.67" y2="151.53"/>
				<line class="st19" x1="695.58" y1="151.64" x2="728.78" y2="155.69"/>
				<line class="st16" x1="729.23" y1="155.75" x2="730.61" y2="155.92"/>
			</g>
			<g>
				<line class="st16" x1="696.6" y1="149.71" x2="697.98" y2="149.87"/>
				<line class="st20" x1="698.88" y1="149.98" x2="730.82" y2="153.77"/>
				<line class="st16" x1="731.27" y1="153.82" x2="732.66" y2="153.98"/>
			</g>
		</g>
	</g>
	<g>
		<line class="st21" x1="626.84" y1="198.67" x2="634.38" y2="203.54"/>
		<path class="st21" d="M659.36,172.99c0,0,1.91,0.16,1.91,1.96c0,1.8,0,4.7,0,4.7"/>
		<path class="st21" d="M657.16,173.74c0,0,1.91,0.16,1.91,1.96c0,1.8,0,4.7,0,4.7"/>
		<path class="st21" d="M654.97,174.48c0,0,1.91,0.16,1.91,1.96c0,1.8,0,4.7,0,4.7"/>
		<path class="st21" d="M650.45,175.97c0,0,1.91,0.16,1.91,1.96c0,1.8,0,4.7,0,4.7"/>
		<path class="st21" d="M651.28,128.18c0,0.41,1.76,7.85,1.76,7.85l-0.27,39.19c0,0,1.91,0.16,1.91,1.96c0,1.8,0,4.7,0,4.7"/>
		<g>
			<defs>
				<path id="SVGID_5_" d="M576.84,152.72c0.19,1.13,0.39,64.72,2.08,64.15s63.95-9.75,66.01-10.31c2.06-0.56,21-8.06,21.19-8.63
					c0.19-0.56-0.94-69.58-0.94-69.58l-22.5-6.38c0,0-60.01,2.44-60.01,3.19S576.84,152.72,576.84,152.72z"/>
			</defs>
			<clipPath id="SVGID_2_">
				<use xlink:href="#SVGID_5_"  style="overflow:visible;"/>
			</clipPath>
			<g class="st22">
				<g>
					<path class="st4" d="M658.1,172.21l-1.13,0.16l2.77-2.22c0.94-0.75,1.47-1.9,1.41-3.11c-0.28-6.01-1.11-24.16-1.11-24.59
						c0-0.51-5.47-13.85-5.47-13.85l-7.35-1.71l-56.41,2.05l0.34,41.88l55.08,5.16L658.1,172.21z"/>
					<path class="st4" d="M659.33,172.03l-1.23,0.18l-11.86,3.78l-55.08-5.16l-25.13,18.12l5.47,5.64l60.69,8.89L662.44,191
						l0.42-15.83C662.91,173.26,661.23,171.76,659.33,172.03z"/>
				</g>
				<g>
					<path class="st14" d="M641.16,170.65l0.01-5.25c-13.15,1.87-30.95,0.11-35.17-0.89c-1.01-0.24-1.08-0.73-1.34-1.73
						c-1.66-6.5-1.52-21.21-0.77-25.73c0.14-0.82,0.84-1.43,1.67-1.44l35.67-0.37l0.01-4.17l-42.08,1.17l0.25,34.07L641.16,170.65z"
						/>
					<polygon class="st4" points="641.25,131.07 641.24,135.24 641.18,165.4 641.16,170.65 599.42,166.31 599.17,132.23 
						595.69,132.33 595.98,168.52 643.57,172.97 643.59,165.01 643.66,135.21 643.67,131 					"/>
					<path class="st13" d="M605.57,135.6c-0.83,0.02-1.53,0.62-1.67,1.44c-0.76,4.52-0.89,19.23,0.77,25.73
						c0.26,1,0.33,1.49,1.34,1.73c4.23,1,22.02,2.76,35.17,0.89l0.06-30.16L605.57,135.6z"/>
				</g>
				<g>
					<line class="st23" x1="607.42" y1="143.63" x2="632.26" y2="143.67"/>
				</g>
				<g>
					<line class="st23" x1="607.72" y1="147.34" x2="625.14" y2="147.38"/>
				</g>
			</g>
			<g class="st22">
				<path class="st21" d="M659.58,172.86l-1.13,0.16l2.77-2.22c0.94-0.75,1.47-1.9,1.41-3.11c-0.28-6.01-1.11-24.16-1.11-24.59
					c0-0.51-5.47-13.85-5.47-13.85l-7.35-1.71l-56.41,2.05l0.34,41.88l55.08,5.16L659.58,172.86z"/>
				<path class="st21" d="M660.81,172.68l-1.23,0.18l-11.86,3.78l-55.08-5.16L567.5,189.6l5.47,5.64l60.69,8.89l30.26-12.48
					l0.42-15.83C664.39,173.91,662.7,172.41,660.81,172.68z"/>
			</g>
			<g class="st22">
				<path class="st21" d="M642.64,171.31l0.01-5.25c-13.15,1.87-30.95,0.11-35.17-0.89c-1.01-0.24-1.08-0.73-1.34-1.73
					c-1.66-6.5-1.52-21.21-0.77-25.73c0.14-0.82,0.84-1.43,1.67-1.44l35.67-0.37l0.01-4.17l-42.08,1.17l0.25,34.07L642.64,171.31z"
					/>
				<polygon class="st21" points="642.73,131.72 642.72,135.89 642.65,166.05 642.64,171.31 600.9,166.96 600.65,132.89 
					597.16,132.98 597.46,169.17 645.04,173.62 645.06,165.66 645.13,135.86 645.14,131.65 				"/>
				<path class="st21" d="M607.05,136.26c-0.83,0.02-1.53,0.62-1.67,1.44c-0.76,4.52-0.89,19.23,0.77,25.73
					c0.26,1,0.33,1.49,1.34,1.73c4.23,1,22.02,2.76,35.17,0.89l0.06-30.16L607.05,136.26z"/>
			</g>
			<path class="st24" d="M648.7,127.55l-0.06,48.98c0,0,2.9,0.35,0.93,2.43s-22.73,19.71-22.73,19.71s-49.4-7.07-58.32-7.3"/>
			<path class="st24" d="M577.21,188.31c1.22,0.41,45.93,6.1,45.93,6.1l8.82-8.82"/>
			<g class="st22">
				<g>
					<line class="st21" x1="579.26" y1="186.08" x2="580.78" y2="186.28"/>
					<line class="st25" x1="581.78" y1="186.4" x2="621.08" y2="191.43"/>
					<line class="st21" x1="621.57" y1="191.5" x2="623.09" y2="191.69"/>
				</g>
				<g>
					<line class="st21" x1="582.9" y1="184.26" x2="584.42" y2="184.45"/>
					<line class="st26" x1="585.41" y1="184.57" x2="623.32" y2="189.31"/>
					<line class="st21" x1="623.82" y1="189.37" x2="625.34" y2="189.56"/>
				</g>
				<g>
					<line class="st21" x1="586.53" y1="182.43" x2="588.05" y2="182.62"/>
					<line class="st27" x1="589.04" y1="182.74" x2="625.57" y2="187.19"/>
					<line class="st21" x1="626.07" y1="187.25" x2="627.59" y2="187.44"/>
				</g>
				<g>
					<line class="st21" x1="590.16" y1="180.61" x2="591.69" y2="180.79"/>
					<line class="st28" x1="592.68" y1="180.91" x2="627.82" y2="185.07"/>
					<line class="st21" x1="628.31" y1="185.13" x2="629.83" y2="185.31"/>
				</g>
			</g>
		</g>
	</g>
	<g>
		<g>
			<path class="st7" d="M367.89,292.77l-39.98-20.76c-0.59-0.35-1.3-0.44-1.96-0.23l-72.73,22.38c-1.97,0.61-1.04,5.84,0.41,6.79
				l36.09,23.57c1.51,0.99,3.4,1.21,5.1,0.6l73.67-25.53C370.43,298.89,369.43,293.69,367.89,292.77z"/>
			<path class="st8" d="M295.9,320.51l71.65-24.8c1.08-0.39,1.22-1.85,0.23-2.43l-40.16-20.87c-0.56-0.34-1.24-0.42-1.87-0.22
				l-72.22,22.22c-0.8,0.25-0.95,1.31-0.25,1.77l36.1,23.58C291.31,321.01,293.72,321.29,295.9,320.51z"/>
		</g>
		<g>
			<path class="st29" d="M366.71,293.36l-39.98-20.76c-0.59-0.35-1.3-0.44-1.96-0.23l-72.73,22.38c-1.97,0.61-1.04,5.84,0.41,6.79
				l36.09,23.57c1.51,0.99,3.4,1.21,5.1,0.6l73.67-25.53C369.25,299.47,368.25,294.27,366.71,293.36z"/>
			<path class="st29" d="M294.72,321.09l71.65-24.8c1.08-0.39,1.22-1.85,0.23-2.43l-40.16-20.87c-0.56-0.34-1.24-0.42-1.87-0.22
				l-72.22,22.22c-0.8,0.25-0.95,1.31-0.25,1.77l36.1,23.58C290.13,321.59,292.54,321.88,294.72,321.09z"/>
		</g>
	</g>
	<g>
		<g>
			<path class="st7" d="M252.36,332.67l-46.87-24.34c-0.69-0.41-1.53-0.51-2.3-0.27l-85.26,26.23c-2.31,0.71-1.22,6.85,0.48,7.96
				l42.31,27.63c1.77,1.16,3.99,1.42,5.98,0.7l86.36-29.93C255.34,339.84,254.17,333.75,252.36,332.67z"/>
			<path class="st8" d="M167.97,365.19l83.99-29.07c1.26-0.45,1.42-2.17,0.27-2.85l-47.08-24.46c-0.66-0.39-1.46-0.49-2.19-0.26
				l-84.66,26.05c-0.94,0.29-1.11,1.54-0.29,2.07l42.31,27.64C162.59,365.77,165.42,366.1,167.97,365.19z"/>
		</g>
		<g>
			<path class="st30" d="M250.98,333.36l-46.87-24.34c-0.69-0.41-1.53-0.51-2.3-0.27l-85.26,26.23c-2.31,0.71-1.22,6.85,0.48,7.96
				l42.31,27.63c1.77,1.16,3.99,1.42,5.98,0.7l86.36-29.93C253.96,340.52,252.79,334.43,250.98,333.36z"/>
			<path class="st30" d="M166.59,365.87l83.99-29.07c1.26-0.45,1.42-2.17,0.27-2.85l-47.08-24.46c-0.66-0.39-1.46-0.49-2.19-0.26
				l-84.66,26.05c-0.94,0.29-1.11,1.54-0.29,2.07l42.31,27.64C161.21,366.46,164.04,366.79,166.59,365.87z"/>
		</g>
	</g>
	<g>
		<path class="st31" d="M363.26,70.44c-1.26,1.1-2.92,1.92-5.06,2.36c-9.76,2-10.89,4.47-16.01,6.09c-2.73,0.87-6.27,0.48-9.65,0.11
			c-0.47,1.43-0.83,2.88-1.56,3.94c-1.8,2.65-8.71,2.12-8.71,2.12s-0.89-1.3-1.55-2.59c-0.41-0.8-0.72-1.59-0.68-2.08
			c0.11-1.27-3.29-4.88-5.63,0.64c-1.23,2.91-0.04,5.11,1.36,6.54c1.25,1.28,2.67,1.95,2.67,1.95l-4.25,9.13
			c2.44,13.38,18.9,17.31,18.9,17.31l7.75-3.13c13.27,1.59,13.48-10.44,13.48-10.44s4.84,1.68,6.22,1.13
			c6.03-2.41-1.48-6.1-1.7-8.65c-0.21-2.55,4.93-9.07,5.14-14.69C364.11,77.43,363.7,73.61,363.26,70.44z"/>
		<path class="st32" d="M427.37,120.27l-68.45,12.61c-1.5,0.44-2.72,1.54-3.32,2.99l-21.04,50.86"/>
		<g>
			<path class="st10" d="M361.57,46.16c-6.88-10.59-19.01-10.24-24.05-9.91c-5.04,0.33-7.64,0.65-7.64,0.65l-2.84-7.31
				c-1.54-5.18-5.69-6.31-9.43-6.5c-5.34-0.27-10.96,2.56-16.41,8.21c-9.26,9.59,1.95,18.2,1.95,18.2c0.89,7.72,6.5,8.37,6.5,8.37
				c-10.56,12.59,5.93,29.9,5.93,29.9l0.25-0.25c-1.4-1.43-2.59-3.63-1.36-6.54c2.34-5.52,5.73-1.91,5.63-0.64
				c-0.04,0.49,0.28,1.28,0.68,2.08c0.66,1.29,1.55,2.59,1.55,2.59s6.9,0.53,8.71-2.12c0.72-1.07,1.09-2.51,1.56-3.94
				c3.38,0.37,6.92,0.75,9.65-0.11c5.12-1.63,6.25-4.09,16.01-6.09c2.14-0.44,3.8-1.26,5.06-2.36
				C369.49,64.99,365.96,52.91,361.57,46.16z"/>
		</g>
		<g>
			<path class="st2" d="M339.54,83.18c-5.22-0.34-20.21-4.4-20.21-4.4l1.61,3.3l17.75,7.83C338.51,87.97,338.59,85.49,339.54,83.18z
				"/>
			<path class="st2" d="M368.57,78.52c0,0-22.1-3.08-26.8,1.38c-1.03,0.98-1.73,2.11-2.22,3.28c-0.96,2.3-1.04,4.79-0.85,6.73
				c0.15,1.59,0.47,2.82,0.62,3.26c0.43,1.27,4.68,4.84,13.67,6.05c0,0,2.02,0.48,3.24-1.6c1.22-2.08,2.29-6.01,3.12-5.06
				c0.83,0.94,2.45,5.97,2.45,5.97s3.32,1.45,5.29-1.14S373.21,79.91,368.57,78.52z"/>
		</g>
		<g>
			<path class="st33" d="M344.72,184.67l-5.45,1.53l-1.86,3.2C337.41,189.4,340.54,187.26,344.72,184.67z"/>
			<path class="st4" d="M424.53,117.12l-41.1,7.78l-26.67,5.05c-1.56,0.48-2.83,1.61-3.49,3.11c-3.7,8.48-16.35,37.54-21.01,48.63
				c-1.26,3.01,1.59,6.25,4.67,5.18c0.02-0.01,0.04-0.02,0.07-0.02l2.28-0.64l5.45-1.53c6.89-4.27,16.63-9.79,19.86-9.04
				c2.03,0.47,1.6,1.86,0.34,3.38l43.45-12.18c0.9-0.33,15.09-34.54,19.43-46.77C428.07,119.27,425.31,116.89,424.53,117.12z"/>
			<path class="st33" d="M365.66,180.58l-7.13,3.24c0,0,4.01-2.68,5.98-5.05c1.26-1.52,1.69-2.91-0.34-3.38
				c-3.23-0.75-12.96,4.77-19.86,9.04c-4.18,2.59-7.31,4.72-7.31,4.72l1.86-3.2l-2.28,0.64c-0.02,0.01-0.04,0.02-0.07,0.02
				c-3.08,1.07-5.93-2.17-4.67-5.18c4.66-11.09,17.31-40.15,21.01-48.63c0.65-1.5,1.92-2.63,3.49-3.11l26.67-5.05
				c-6.14-7.87-16.11-17.78-28.87-20.56c-0.46,3.58-2.81,10-13.3,8.74l-8,2.86c0,0-16.44-3.93-18.88-17.3l0.54-1.16l-0.51-0.09
				l-6.7,5.54c0,0-17.76,4.66-23.29,13.99c-5.53,9.33-13.69,56.1-7.72,72.13c5.97,16.03,8.59,19.53,8.59,19.53l-12.7,71.14
				l106.32-29.21l-13.26-62.04C365.26,188.23,373.34,180.21,365.66,180.58z"/>
		</g>
		<path class="st0" d="M371.89,184.28c0.3-0.48,1.05-1.69,1.1-2.25c0.09-0.99-0.71-1.74-1.58-2.22c-0.72-0.4-2.14,0.25-2.77-0.13
			c-0.15-0.09-0.26-0.19-0.33-0.29c-0.29-0.41-0.06-0.94,0-1.74c0.05-0.59,0.21-1.28-0.12-1.82c-0.39-0.63-1.19-0.74-1.87-0.8
			c-1.11-0.1-2.44-0.02-3.53,0.21c-3.89,0.85-6.75,4.56-10.07,6.56c-5.64,3.39-11.75,4.73-18.12,5.97
			c-0.58-0.32-1.51-0.06-1.54,0.82c-0.05,1.71-0.09,3.41-0.1,5.12c-0.01,0.78-0.02,1.56,0.01,2.34c-1.11,1.57,0.37,4.2,0.99,5.76
			c0.3,0.76,0.6,1.62,1,2.42c-0.07,0.45,0.11,0.96,0.65,1.17c0.04,0.01,0.08,0.03,0.12,0.04c0.06,0.07,0.12,0.13,0.18,0.2
			c0.08,0.28,0.27,0.53,0.61,0.66c0.27,0.1,0.55,0.19,0.83,0.28c1.74,0.19,3.49,0.35,5.24,0.41c3.64,0.13,7.16-0.25,10.75-0.79
			c2.68-0.4,3.14-1.08,5.73-1.87c2.4-0.73,4.09-1.06,5.57-3.19c0.01-0.01,2.18-1.68,2.19-1.69c0.37-1.63,0.07-2.55-0.3-3.78
			c1.3-0.4,3.35-3.99,3.38-5.57c0.01-0.63-0.08-0.77-0.32-1.47c-0.34-1.01-0.53-0.74,0.07-1.4
			C370.49,186.3,371.23,185.32,371.89,184.28z"/>
	</g>
	<g>
		<path class="st32" d="M429.97,120.36l-68.45,12.61c-1.5,0.44-2.72,1.54-3.32,2.99l-21.04,50.86"/>
		<g>
			<path class="st16" d="M364.18,46.25c-6.88-10.59-19.01-10.24-24.05-9.91c-5.04,0.33-7.64,0.65-7.64,0.65l-2.84-7.31
				c-1.54-5.18-5.69-6.31-9.43-6.5c-5.34-0.27-10.96,2.56-16.41,8.21c-9.26,9.59,1.95,18.2,1.95,18.2c0.89,7.72,6.5,8.37,6.5,8.37
				c-10.56,12.59,6.59,30.08,6.59,30.08l-0.41-0.43c-1.4-1.43-2.59-3.63-1.36-6.54c2.34-5.52,5.73-1.91,5.63-0.64
				c-0.04,0.49,0.28,1.28,0.68,2.08c0.66,1.29,1.55,2.59,1.55,2.59s6.9,0.53,8.71-2.12c0.72-1.07,1.09-2.51,1.56-3.94
				c3.38,0.37,6.92,0.75,9.65-0.11c5.12-1.63,6.25-4.09,16.01-6.09c2.14-0.44,3.8-1.26,5.06-2.36
				C372.1,65.08,368.56,53.01,364.18,46.25z"/>
			<path class="st16" d="M365.9,70.47c-1.26,1.1-2.92,1.92-5.06,2.36c-9.76,2-10.89,4.47-16.01,6.09c-2.73,0.87-6.27,0.48-9.65,0.11
				c-0.47,1.43-0.83,2.88-1.56,3.94c-1.8,2.65-8.71,2.12-8.71,2.12s-0.89-1.3-1.55-2.59c-0.41-0.8-0.72-1.59-0.68-2.08
				c0.11-1.27-3.29-4.88-5.63,0.64c-1.23,2.91-0.04,5.11,1.36,6.54c1.25,1.28,2.67,1.95,2.67,1.95l-4.25,9.13
				c2.44,13.38,18.9,17.31,18.9,17.31l8.18-0.85c11.08-1.36,13.63-12.44,13.63-12.44s4.27,1.4,5.65,0.85
				c6.03-2.41-1.48-6.1-1.7-8.65c-0.21-2.55,4.93-9.07,5.14-14.69C366.75,77.45,366.35,73.63,365.9,70.47z"/>
		</g>
		<g>
			<path class="st16" d="M342.15,83.28c-5.22-0.34-20.21-4.4-20.21-4.4l1.61,3.3l17.75,7.83C341.12,88.07,341.2,85.58,342.15,83.28z
				"/>
			<path class="st34" d="M371.17,78.62c0,0-22.1-3.08-26.8,1.38c-1.03,0.98-1.73,2.11-2.22,3.28c-0.96,2.3-1.04,4.79-0.85,6.73
				c0.15,1.59,0.47,2.82,0.62,3.26c0.43,1.27,4.68,4.84,13.67,6.05c0,0,2.02,0.48,3.24-1.6c1.22-2.08,1.29-5.29,2.12-4.35
				c0.83,0.94,3.44,5.25,3.44,5.25s3.32,1.45,5.29-1.14S375.82,80,371.17,78.62z"/>
		</g>
		<path class="st16" d="M373.29,87.53c0,0,0.15-6.27-4.37-5.83c-4.52,0.44-19.09,0-21.28,1.89s-1.17,10.35-1.17,10.35"/>
		<path class="st16" d="M343.93,115.14c-2.85-0.34-5.83-1.2-8.31-3.32"/>
		<path class="st16" d="M364.84,58.52c0,0-2.19,13.99-16.47,14.58c-14.28,0.58-13.18,5.93-13.18,5.93"/>
		<path class="st16" d="M332.49,36.99c0,0-9.77,7.83-12.83,14.39c0,0-6.56-9.62-11.08-3.35c-4.52,6.27,6.3,5.12,8.89,5.1
			c2.59-0.02-11.37,15.89-20.84,13.41"/>
		<path class="st16" d="M320.38,30.39c5.68,4.23-1.75,17.05-1.75,17.05s9.33-7.29,9.04-12.97"/>
		<path class="st16" d="M321.84,48.61c0.58-0.58,9.47-9.91,14.72-7.58"/>
		<path class="st16" d="M312.07,60.27c0,0-1.75,8.45,1.6,13.26"/>
		<path class="st16" d="M324.93,85.1c0,0-5.86,0.83-1.34,7.68c4.52,6.85,0.58,7.14-0.87,7.43s-6.12,9.18-5.83,9.77"/>
		<g>
			<path class="st35" d="M347.23,184.74l-5.45,1.53l-1.87,3.2C339.91,189.47,343.05,187.34,347.23,184.74z"/>
			<path class="st32" d="M427.13,117.17l-41.14,7.78l-26.7,5.05c-1.56,0.48-2.84,1.61-3.49,3.11c-3.7,8.48-16.37,37.54-21.03,48.64
				c-1.26,3.01,1.59,6.25,4.67,5.18c0.02-0.01,0.04-0.02,0.07-0.02l2.28-0.64l5.45-1.53c6.9-4.27,16.65-9.79,19.88-9.04
				c2.03,0.47,1.6,1.86,0.34,3.38l43.5-12.18c0.9-0.33,15.1-34.55,19.45-46.78C430.68,119.33,427.91,116.94,427.13,117.17z"/>
			<path class="st32" d="M368.28,181.57l-4.24,1.06c0,0,1.44-1.18,3.41-3.54c1.27-1.52,1.69-2.91-0.34-3.38
				c-3.23-0.75-12.98,4.77-19.88,9.04c-4.18,2.59-7.32,4.72-7.32,4.72l1.87-3.2l-2.28,0.64c-0.02,0.01-0.04,0.02-0.07,0.02
				c-3.08,1.07-5.94-2.17-4.67-5.18c4.66-11.09,17.33-40.16,21.03-48.64c0.65-1.5,1.93-2.63,3.49-3.11l26.7-5.05
				c-6.15-7.87-16.02-17.58-28.8-20.36c-1.37,3.84-7.04,11.02-13.25,10.55l-8.18,0.85c0,0-16.46-3.93-18.9-17.31l0.54-1.16l0.4-0.44
				l-7.61,5.89c0,0-17.78,4.66-23.32,13.99c-5.54,9.33-13.7,56.12-7.73,72.15c5.98,16.03,8.6,19.53,8.6,19.53l-12.71,71.16
				l106.44-29.22l-13.27-62.06C368.19,188.54,375.97,181.2,368.28,181.57z"/>
		</g>
		<path class="st32" d="M336.37,176.57c0.12-0.99,2.97-27.88,2.23-38.17s-6.94-23.05-6.94-23.05l-14.25,16.36
			c0,0-4.89-13.66-9.18-19.28c-1.34-1.76-1.39-4.18-0.21-6.04l2.16-3.4"/>
		<path class="st32" d="M332.53,188.59c0,0-17.47,9.42-24.04-4.59c-6.57-14,0.25-37.3,0.25-37.3"/>
		<path class="st32" d="M312.38,154.07l0.37,21.07c0.05,2.9,2.24,5.31,5.12,5.66c4.91,0.6,11.84,0.89,13.17-1.93
			c2.11-4.46,1.49-25.23,1.49-25.23L312.38,154.07z"/>
		<path class="st32" d="M345.91,208.79c1.98,1.36-4.59,17.97-8.92,20.2s-48.46-19.58-49.26-20.34"/>
		<path class="st32" d="M331.16,189.96c0,0-5.08,33.71,5.82,39.04"/>
		<path class="st32" d="M336.12,229.86c0,0,3.22,32.47,3.35,32.97"/>
		<path class="st32" d="M343.19,219.82c1.36,0.87,11.28,33.21,9.67,38.79"/>
		<path class="st32" d="M343.93,115.14c-1.01,0.57-6.41,1.92-6.27,5.02c0.13,3.1,7.29,36.85,6.61,38.74"/>
		<path class="st32" d="M359.62,113.69c0,0-15.35,10.53-15.89,14.31l-6.07-7.83"/>
		<ellipse class="st13" cx="353.68" cy="91.38" rx="1.76" ry="1.65"/>
		<ellipse class="st13" cx="366.31" cy="91.97" rx="1.76" ry="1.65"/>
		<path class="st32" d="M369.42,192.52l-4.21,5.7c0,0,2.02,2.96-1.91,5.52c0,0-9.23,7.74-28.22,4.03c0,0-5.2-12.2-2.33-17.82
			l7.21-2.33"/>
		<path class="st32" d="M346.03,107.44c0,0-5.76,0-7.27-2.26"/>
	</g>
	<polygon class="st13" points="336.54,231.65 286.24,218.26 288.27,208.82 336.18,229.26 	"/>
	<polygon class="st13" points="419.29,150.71 410.95,166.9 393.04,171.71 393.32,176.41 413.76,170.05 420.88,151.2 	"/>
</g>
</svg>
