<svg id="Layer_1" data-name="Layer 1" xmlns="http://www.w3.org/2000/svg" viewBox="0 0 4500 2116.667"><defs><clipPath id="clip-path"><path class="cls-1" d="M-.276-4.591h4500.552v2125.848H-.276z"/></clipPath><style>.cls-1,.cls-17,.cls-5,.cls-6,.cls-9{fill:none}.cls-4{fill:#fff}.cls-17,.cls-5,.cls-6,.cls-9{stroke:#54575c}.cls-5,.cls-6,.cls-9{stroke-miterlimit:10}.cls-17,.cls-5{stroke-width:3.47742px}.cls-6{stroke-width:3.58539px}.cls-7{fill:#e9a56e}.cls-8{fill:#f4f4f5}.cls-9{stroke-width:4.00586px}.cls-10{fill:#dceffa}.cls-11{fill:#4890ba}.cls-12{fill:#fac2a7}.cls-13{fill:#f5c65d}.cls-14{fill:#61a575}.cls-16,.cls-21{fill:#54575c}.cls-17{stroke-linejoin:round}.cls-21{font-size:20.86452px;font-family:Arimo}</style></defs><g clip-path="url(#clip-path)"><path fill="#235485" d="M-.276-4.591h4500.552v2125.848H-.276z"/><path class="cls-4" d="M2106.491 709.24l-2.594 537.62a18.027 18.027 0 0017.97 18.084l751.07 3.22a18.027 18.027 0 0018.085-17.97l2.594-537.618a18.027 18.027 0 00-17.97-18.085l-751.07-3.22a18.027 18.027 0 00-18.085 17.97z"/><path class="cls-5" d="M2113.461 707.79l-2.557 526.308a23.682 23.682 0 0023.606 23.758l739.76 3.183a23.682 23.682 0 0023.758-23.606l2.558-526.309a23.682 23.682 0 00-23.606-23.758l-739.76-3.183a23.682 23.682 0 00-23.759 23.606zM2899.212 732.683l-783.953-1.715"/><circle class="cls-5" cx="2147.681" cy="710.912" r="11.298"/><circle class="cls-5" cx="2189.131" cy="711.57" r="11.298"/><circle class="cls-5" cx="2230.581" cy="712.227" r="11.298"/><path class="cls-5" d="M2188.527 990.909h387.4M2188.527 1074.303h387.4M2188.527 1156.433h525.634"/><path class="cls-4" d="M447.426 976.022l-2.594 537.618a18.027 18.027 0 0017.97 18.085l751.07 3.22a18.027 18.027 0 0018.085-17.97l2.594-537.618a18.027 18.027 0 00-17.97-18.085l-751.07-3.22a18.027 18.027 0 00-18.085 17.97z"/><path class="cls-5" d="M454.396 974.57l-2.557 526.31a23.682 23.682 0 0023.606 23.757l739.76 3.183a23.682 23.682 0 0023.758-23.606l2.558-526.308a23.682 23.682 0 00-23.606-23.758l-739.76-3.183a23.682 23.682 0 00-23.759 23.606zM1240.147 999.465l-783.953-1.716"/><circle class="cls-5" cx="488.616" cy="977.693" r="11.298"/><circle class="cls-5" cx="530.066" cy="978.351" r="11.298"/><circle class="cls-5" cx="571.516" cy="979.008" r="11.298"/><path class="cls-4" d="M1323.503 1053.879l-.008-.742a6.187 6.187 0 00.008.742z"/><path class="cls-4" d="M1494.824 1812.593a83.553 83.553 0 01-83.553-83.554v-387.474l-52.972 49.4s.92-68.016-26.655-77.207c-6.975-2.325 25.638-47.822 39.523-101.105 0 0 24.766-34.84 40.104-69.86 5.603-12.793 9.948-25.61 11.368-36.76 2.449-19.239 8.543-124.761-11.368-147.819a14.517 14.517 0 00-3.338-2.92c-5.815-3.577-11.354-6.716-16.439-9.358-10.788 50.739-67.99 107.943-67.99 107.943.918 11.03-62.633 65.941-69.986 102.707s-61.583 105.7-71.693 123.164-23.898 126.84-22.06 180.15-14.705 190.262-54.228 234.38-177.394 181.07-177.394 181.07l-402.582 399.825s657.183 40.442 663.617 25.736 40.69-136.582 73.531-198.534c34.119-64.363 65.352-69.424 91.69-89.347 21.415-16.198 28.242-30.414 28.242-30.414s24.983-7.604 83.64-33.674c57.237-25.439 167.84-111.695 189.794-136.35zM2003.533 1319.273c69.854-18.383 98.348-76.288 69.854-117.65-24-34.838-72.124-18.814-91.1-9.048v133.136zM2055.005 1430.488c21.14-34.927 0-67.097-28.494-70.773-9.003-1.162-31.966 9.578-44.225 16.092v121.463c17.77-11.441 56.762-40.418 72.719-66.782zM2041.218 1592.256c-18.506-2.056-44.286 7.95-58.932 15.061v121.722a84.41 84.41 0 01-.545 9.537c8.38-5.88 23.402-18.386 50.285-43.376 65.259-60.663 25.736-101.105 9.192-102.944z"/><path class="cls-4" d="M1898.733 691.329h-403.909a83.553 83.553 0 00-83.553 83.553v183.332c19.91 23.058 13.817 128.58 11.368 147.82-1.42 11.15-5.765 23.966-11.368 36.758v586.247a83.553 83.553 0 0083.553 83.554h403.909a83.562 83.562 0 0083.008-74.017 84.41 84.41 0 00.545-9.537V774.882a83.553 83.553 0 00-83.553-83.553zM1362.895 937.831c-1.803 4.507-38.836 101.17-39.4 115.306l.008.742s57.202-57.204 67.99-107.943c-15.813-8.214-27.207-11.582-28.598-8.105z"/><rect class="cls-4" x="1424.612" y="1606.12" width="116.079" height="116.079" rx="24.393"/><rect class="cls-4" x="1567.063" y="1606.12" width="116.079" height="116.079" rx="24.393"/><rect class="cls-4" x="1709.513" y="1606.12" width="116.079" height="116.079" rx="24.393"/><rect class="cls-4" x="1851.963" y="1606.12" width="116.079" height="116.079" rx="24.393"/><rect class="cls-4" x="1576.658" y="768.861" width="195.686" height="22.525" rx="11.262"/><circle class="cls-4" cx="1800.159" cy="779.489" r="11.217"/><path class="cls-1" d="M1317.638 1313.758c27.574 9.191 26.655 77.207 26.655 77.207l52.972-49.4v-198.773c-15.338 35.02-40.104 69.861-40.104 69.861-13.885 53.283-46.499 98.78-39.523 101.105z"/><path class="cls-6" d="M1309.497 1053.879l-.008-.742a6.189 6.189 0 00.008.742z"/><path class="cls-7" d="M1480.818 1812.593a83.553 83.553 0 01-83.553-83.554v-387.474l-52.972 49.4s.92-68.016-26.655-77.207c-6.976-2.325 25.638-47.822 39.523-101.105 0 0 24.766-34.84 40.104-69.86 5.602-12.793 9.948-25.61 11.368-36.76 2.449-19.239 8.543-124.761-11.368-147.819a14.518 14.518 0 00-3.339-2.92c-5.814-3.577-11.353-6.716-16.438-9.358-10.789 50.739-67.99 107.943-67.99 107.943.918 11.03-62.633 65.941-69.987 102.707s-61.582 105.7-71.692 123.164-23.898 126.84-22.06 180.15-14.706 190.262-54.228 234.38-177.394 181.07-177.394 181.07l-402.582 399.825s657.183 40.442 663.617 25.736 40.69-136.582 73.53-198.534c34.12-64.363 65.352-69.424 91.69-89.347 21.415-16.198 28.242-30.414 28.242-30.414s24.984-7.604 83.64-33.674c57.238-25.439 167.842-111.695 189.794-136.35zM2059.381 1201.623c-19.9-28.889-56.39-22.803-79.093-14.314v134.764l9.239-2.8c69.854-18.383 98.348-76.288 69.854-117.65zM2012.505 1359.715c-6.532-.843-20.409 4.578-32.217 10.105v119.25c19.637-14.068 47.76-37.185 60.71-58.582 21.14-34.927 0-67.097-28.493-70.773zM2027.212 1592.256c-14.134-1.57-32.505 3.896-46.924 9.734v126.826c8.806-7.295 20.96-18.025 37.732-33.616 65.259-60.663 25.736-101.105 9.192-102.944z"/><path class="cls-8" d="M1884.727 691.329h-403.91a83.553 83.553 0 00-83.552 83.553v183.332c19.91 23.058 13.816 128.58 11.368 147.82-1.42 11.15-5.766 23.966-11.368 36.758v586.247a83.553 83.553 0 0083.553 83.554h403.909a83.562 83.562 0 0083.008-74.017 84.412 84.412 0 00.545-9.537V774.882a83.553 83.553 0 00-83.553-83.553z"/><path class="cls-7" d="M1348.889 937.831c-1.803 4.507-38.836 101.17-39.4 115.306l.008.742s57.202-57.204 67.99-107.943c-15.813-8.214-27.207-11.582-28.598-8.105z"/><rect class="cls-4" x="1410.606" y="1606.12" width="116.079" height="116.079" rx="24.393"/><rect class="cls-4" x="1553.057" y="1606.12" width="116.079" height="116.079" rx="24.393"/><rect class="cls-4" x="1695.507" y="1606.12" width="116.079" height="116.079" rx="24.393"/><rect class="cls-4" x="1837.957" y="1606.12" width="116.079" height="116.079" rx="24.393"/><rect class="cls-4" x="1562.652" y="768.861" width="195.686" height="22.525" rx="11.262"/><circle class="cls-4" cx="1786.153" cy="779.489" r="11.217"/><path class="cls-1" d="M1329.484 1315.058c27.574 9.191 26.655 77.207 26.655 77.207l52.971-49.4v-198.773c-15.337 35.02-40.104 69.86-40.104 69.86-13.884 53.284-46.498 98.78-39.522 101.106z"/><path class="cls-6" d="M1321.343 1055.178l-.008-.742a6.189 6.189 0 00.008.742z"/><path class="cls-5" d="M1492.664 1813.892a83.553 83.553 0 01-83.554-83.553v-387.474l-52.971 49.4s.919-68.016-26.655-77.207c-6.976-2.326 25.638-47.822 39.523-101.105 0 0 24.766-34.841 40.103-69.86 5.603-12.793 9.949-25.61 11.368-36.76 2.45-19.24 8.543-124.762-11.368-147.82a14.518 14.518 0 00-3.338-2.919c-5.815-3.578-11.353-6.717-16.439-9.358-10.788 50.738-67.99 107.942-67.99 107.942.919 11.03-62.633 65.942-69.986 102.707s-61.582 105.701-71.693 123.165-23.897 126.84-22.059 180.15-14.706 190.262-54.229 234.38-177.393 181.07-177.393 181.07L523.4 2276.475s657.183 40.442 663.616 25.735 40.69-136.581 73.531-198.533c34.12-64.364 65.352-69.425 91.69-89.347 21.415-16.199 28.242-30.415 28.242-30.415s24.983-7.603 83.64-33.673c57.238-25.439 167.841-111.695 189.794-136.35z"/><path class="cls-6" d="M2001.373 1320.572c69.854-18.382 98.347-76.288 69.854-117.65-24-34.837-72.124-18.813-91.101-9.047v133.136zM2052.844 1431.788c21.14-34.927 0-67.097-28.493-70.774-9.004-1.161-31.967 9.579-44.225 16.092v121.464c17.77-11.442 56.761-40.419 72.718-66.782zM2039.057 1593.556c-18.506-2.056-44.285 7.95-58.931 15.06v121.723a84.412 84.412 0 01-.545 9.536c8.379-5.88 23.401-18.385 50.285-43.376 65.259-60.663 25.736-101.105 9.191-102.943z"/><path class="cls-5" d="M1896.572 692.628h-403.909a83.553 83.553 0 00-83.553 83.554v183.332c19.911 23.057 13.817 128.58 11.368 147.819-1.42 11.15-5.765 23.967-11.368 36.76v586.246a83.553 83.553 0 0083.553 83.553h403.91a83.562 83.562 0 0083.008-74.017 84.412 84.412 0 00.545-9.536V776.182a83.553 83.553 0 00-83.554-83.554z"/><path class="cls-6" d="M1360.734 939.13c-1.802 4.508-38.836 101.17-39.4 115.306l.009.742s57.202-57.204 67.99-107.942c-15.814-8.215-27.208-11.583-28.599-8.105z"/><rect class="cls-9" x="1422.452" y="1607.42" width="116.079" height="116.079" rx="24.393"/><rect class="cls-9" x="1564.902" y="1607.42" width="116.079" height="116.079" rx="24.393"/><rect class="cls-9" x="1707.352" y="1607.42" width="116.079" height="116.079" rx="24.393"/><rect class="cls-9" x="1849.803" y="1607.42" width="116.079" height="116.079" rx="24.393"/><rect class="cls-9" x="1574.497" y="770.16" width="195.686" height="22.525" rx="11.262"/><circle class="cls-6" cx="1797.998" cy="780.788" r="11.217"/><path class="cls-5" d="M1351.152 1988.26s-7.604-85.812-40.191-126.003-61.916-89.071-61.916-89.071M1356.139 1392.265s-35.402 46.36-46.264 42.015"/><path class="cls-10" d="M1448.115 1398.422c11.497-60.355 3.593-128.614 30.178-145.858 21.48-13.933 65.005-33.495 95.331-51.485 3.44-11.115 6.805-19.755 9.572-22.522 10.059-10.059 32.333-23.71 32.333-23.71l1.516 5.444 14.291-5.445 4.311-19.4c-7.185-7.184-23.71-39.517-23.71-39.517-8.623 6.466-21.556-21.556-19.4-30.178a8.064 8.064 0 015.561-5.666c-3.04-1.771-5.953-4.849-7.717-10.141-5.03-15.089 7.903-24.43 8.622-30.896s-16.526-5.748-16.526-16.526 13.652-17.963 13.652-26.585 4.311-38.081 20.837-40.237 36.644-8.622 44.548-8.622 37.362 16.526 39.518 23.711c0 0 22.274-2.156 27.303 4.311s16.526 18.681 16.526 26.585-2.874 26.585-2.874 26.585 14.37 15.089 12.933 20.837a130.924 130.924 0 01-4.264 12.948c17.177 5.07 7.136 33.76 4.264 39.503-2.874 5.748-12.215-2.874-12.215-2.874.719 17.963-8.622 49.578-8.622 51.733 0 1.853 2.123 20.686 2.72 25.946l8.777-.798s42.392 25.866 58.199 29.459 79.755 24.43 89.814 58.2c5.063 16.996 23.047 60.203 36.459 106.9l34.845-33.612v-482h-543.43v753.078h33.776c-1.315-11.16-18.411-129.927-7.128-189.168zM1939.578 1476.74c-20.362 50.613-80.757 95.57-108.731 110.85h134.05v-242.582l-26.669 36.984c7.962 35.87 10.986 70.795 1.35 94.748z"/><path class="cls-4" d="M1727.032 1216.489l-9.693 23.948-.41.026c6.482 19.031 15.443 67.035 17.203 77.792l1.738-93.454a54.941 54.941 0 01-8.838-8.312zM1598.066 1310.133l8.622-37.363s-49.578 7.185-48.86 5.03c.522-1.563 10.105-48.059 19.17-77.352-30.326 17.99-73.85 37.552-95.331 51.485-26.585 17.245-18.682 85.503-30.178 145.858-11.284 59.241 5.813 178.008 7.127 189.168h122.215c14.815-32.267 48.873-107.142 67.215-153.103-9.555-36.076-24.932-116.644-49.98-123.723zM1745.36 1007.64s2.875-18.682 2.875-26.586-11.497-20.118-16.526-26.585-27.304-4.31-27.304-4.31c-2.155-7.186-31.614-23.712-39.518-23.712s-28.022 6.467-44.548 8.623-20.836 31.614-20.836 40.236-13.652 15.808-13.652 26.585 17.244 10.06 16.526 16.526-13.652 15.807-8.623 30.896c1.765 5.293 4.679 8.37 7.718 10.142 4.911-1.701 11.213-.275 11.682 2.073 0 0 1.437-59.637 3.593-60.355 2.155-.719 22.274-12.933 22.274-12.933s5.748-2.874 17.963-.719 17.962-8.622 17.962-8.622 21.556 1.437 30.178 2.155 18.681 7.904 24.43 20.837 12.932 49.578 16.525 51.733c2.057 1.234 5.292-5.305 7.95-12.2a130.918 130.918 0 004.265-12.948c1.437-5.748-12.933-20.837-12.933-20.837zM1685.254 1194.375c-19.934-8.983-50.544-40.16-50.544-40.16l-14.292 5.445 16.868 60.57c8.424 8.192 18.76 16.194 25.446 18.052 4.375 1.215 9.162-3.165 13.58-9.49 8.643-12.369 15.879-32.184 15.879-32.184a27.594 27.594 0 01-6.937-2.233z"/><path class="cls-4" d="M1740.177 1155.732l.154 1.358s-14.589 20.993-29.744 32.431q-1.418 1.07-2.839 2.02c2.11 3.048 11.023 15.753 19.284 24.948a54.941 54.941 0 008.838 8.312l.15-8.075 12.933-61.792z"/><path class="cls-4" d="M1754.03 1041.425c-2.66 6.894-5.894 13.433-7.95 12.2-3.594-2.156-10.779-38.8-16.527-51.734s-15.807-20.118-24.43-20.837-30.177-2.155-30.177-2.155-5.748 10.778-17.962 8.622-17.963.718-17.963.718-20.119 12.215-22.274 12.934c-2.156.718-3.593 60.355-3.593 60.355-.47-2.348-6.77-3.774-11.682-2.073a8.064 8.064 0 00-5.562 5.665c-2.155 8.622 10.778 36.644 19.4 30.178 0 0 16.526 32.333 23.71 39.518l-4.31 19.4s30.61 31.176 50.544 40.159a27.594 27.594 0 006.937 2.233c4.715.725 10.116-1.435 15.557-5.067q1.42-.948 2.84-2.02c15.154-11.438 29.743-32.431 29.743-32.431l-.154-1.358c-.597-5.26-2.72-24.093-2.72-25.946 0-2.155 9.34-33.77 8.622-51.733 0 0 9.34 8.623 12.215 2.875 2.871-5.743 12.913-34.434-4.264-39.503z"/><path class="cls-4" d="M1707.748 1191.541c-5.44 3.632-10.842 5.792-15.557 5.067 0 0-7.236 19.815-15.878 32.184l6.537 13.8 2.926-.182 31.153-1.947.41-.026 9.693-23.948c-8.26-9.195-17.174-21.9-19.284-24.948zM1810.027 1246.904l-11.497-24.43-49.577-67.54-12.933 61.792-.15 8.075-1.738 93.454q.208 1.275.43 2.597c1.15 6.847 2.567 14.617 4.112 22.726 12.082-26.569 39.738-85.896 39.738-85.896l-10.778-13.652z"/><path class="cls-4" d="M1743.548 1424.523c-1.286-4.714 1.426-47.878-4.874-80.945-1.545-8.11-2.961-15.88-4.112-22.726-.305 6.467-11.15-61.358-17.633-80.39l-31.153 1.948c-4.408 29.954-17.45 125.25-10.83 162.567 7.904 44.547 36.645 153.761 36.645 153.761s5.748 7.185 12.933.719c1.296-1.167 3.177-6.194 5.377-13.696 9.994-34.074 15.413-114.76 13.647-121.238zM1968.27 1315.881l-34.844 33.612-10.593 10.217s-95.6 130.677-100.405 139.017l.228.015 91.555-79.395 27.391-37.986 26.669-36.984 22.102-30.651 13.652-32.333zM1650.517 1267.74l-13.23-47.51-16.868-60.57-1.517-5.444s-22.274 13.652-32.333 23.71c-2.767 2.768-6.132 11.407-9.571 22.522-9.065 29.293-18.648 75.79-19.17 77.352-.718 2.156 48.86-5.03 48.86-5.03l-8.622 37.363c25.048 7.08 40.428 87.647 49.98 123.723.46 1.74 20.434-105.76 20.434-105.76z"/><path class="cls-4" d="M1729.809 1550.748l.092-4.987c-2.2 7.502-4.081 12.529-5.377 13.696-7.185 6.466-12.933-.719-12.933-.719s-28.741-109.214-36.645-153.761c-6.62-37.317 6.422-132.613 10.83-162.567l-2.926.183-6.537-13.8c-4.42 6.324-9.206 10.704-13.581 9.489-6.687-1.858-17.022-9.86-25.446-18.052l13.231 47.51 17.963 60.356s-14.8 97.411-20.434 105.76c-18.342 45.96-52.4 120.837-67.215 153.104h144.667l3.618-36.18z"/><path class="cls-4" d="M1896.967 1242.593c-10.06-33.77-74.007-54.607-89.814-58.2s-58.2-29.459-58.2-29.459l49.577 67.54 11.497 24.43-42.393-2.874 10.778 13.652s-27.656 59.327-39.738 85.897c6.3 33.066 3.588 76.23 4.874 80.944 1.766 6.478-3.653 87.164-13.647 121.238l-.092 4.987-.693.032-3.618 36.18h88.01c-2.76-6.44-1.804-16.487.111-18.881a91.453 91.453 0 01-13.196-2.157c-9.071-2.167-20.172-6.38-24.166-14.369a23.757 23.757 0 01-1.201-2.875c-5.128-14.86 1.483-39.071 16.29-43.11 0 0 7.185-7.185 22.273-7.185 2.876 0 6.174.17 8.81.344 4.804-8.34 100.404-139.017 100.404-139.017l10.593-10.217c-13.412-46.697-31.397-89.904-36.46-106.9z"/><path class="cls-4" d="M1941.602 1381.361l-27.391 37.986-91.555 79.395c2.678.18 4.615.36 4.615.36 1.437-12.215 29.459-7.185 29.459-7.185s11.496 32.333 6.467 40.955-2.156 13.652-17.963 13.652c-9.684 0-19.368 8.09-25.417 14.357a78.16 78.16 0 00-6.198 7.198c-1.914 2.394-2.871 12.44-.11 18.88a9.927 9.927 0 003.204 4.276 6.876 6.876 0 004.091 1.273c2.052 0 6.841-1.956 13.417-5.548 27.974-15.281 88.369-60.237 108.73-110.85 9.637-23.953 6.613-58.878-1.349-94.749z"/><path class="cls-4" d="M1800.423 1565.922a91.453 91.453 0 0013.196 2.157c.757-.946-4.72-1.643-13.196-2.157z"/><path class="cls-4" d="M1856.73 1491.917s-28.022-5.03-29.459 7.185c0 0-1.937-.18-4.615-.36l-.228-.015c-2.635-.175-5.933-.344-8.809-.344-15.089 0-22.274 7.185-22.274 7.185-14.806 4.039-21.417 28.25-16.29 43.11a23.757 23.757 0 001.202 2.875c3.994 7.99 15.095 12.202 24.166 14.37 8.477.513 13.953 1.21 13.196 2.156a78.16 78.16 0 016.198-7.198c6.05-6.268 15.733-14.358 25.417-14.358 15.807 0 12.933-5.03 17.963-13.651s-6.467-40.955-6.467-40.955z"/><circle class="cls-4" cx="1834.272" cy="1344.745" r="22.446"/><circle class="cls-4" cx="1834.067" cy="1340.165" r="16.407"/><path class="cls-4" d="M1723.18 1216.824l-9.694 23.949-.41.026c6.483 19.03 15.444 67.034 17.204 77.792l1.738-93.454a54.94 54.94 0 01-8.838-8.313zM1681.402 1194.71c-19.934-8.983-50.544-40.159-50.544-40.159l-14.292 5.445 16.868 60.57c8.424 8.191 18.76 16.194 25.446 18.051 4.375 1.216 9.162-3.164 13.58-9.49 8.643-12.368 15.879-32.183 15.879-32.183a27.594 27.594 0 01-6.937-2.233z"/><path class="cls-4" d="M1736.324 1156.068l.155 1.358s-14.589 20.993-29.744 32.43q-1.418 1.071-2.839 2.02c2.11 3.048 11.023 15.754 19.284 24.948a54.94 54.94 0 008.838 8.313l.15-8.075 12.933-61.792z"/><path class="cls-11" d="M1703.896 1191.877c-5.44 3.632-10.842 5.792-15.557 5.067 0 0-7.236 19.815-15.878 32.184l6.537 13.8 2.926-.182 31.153-1.947.41-.026 9.693-23.949c-8.26-9.194-17.174-21.9-19.284-24.947z"/><path class="cls-11" d="M1739.695 1424.859c-1.285-4.714 1.427-47.878-4.873-80.945-1.545-8.11-2.962-15.88-4.112-22.726-.305 6.467-11.151-61.358-17.633-80.39l-31.153 1.948c-4.408 29.954-17.45 125.25-10.83 162.566 7.904 44.548 36.644 153.762 36.644 153.762s5.748 7.185 12.934.718c1.296-1.166 3.177-6.194 5.377-13.695 9.994-34.074 15.413-114.76 13.646-121.238z"/><path class="cls-4" d="M1725.957 1551.083l.092-4.986c-2.2 7.501-4.081 12.529-5.377 13.695-7.186 6.467-12.934-.718-12.934-.718s-28.74-109.214-36.644-153.762c-6.62-37.317 6.422-132.612 10.83-162.566l-2.926.182-6.537-13.8c-4.42 6.325-9.206 10.705-13.581 9.49-6.687-1.858-17.022-9.86-25.446-18.052l13.231 47.51 17.963 60.355s-14.8 97.412-20.434 105.76c-18.342 45.961-52.4 120.837-67.215 153.104h144.667l3.618-36.18z"/><path class="cls-12" d="M1745.77 1041.76c-2.66 6.895-5.894 13.434-7.95 12.2-3.593-2.156-10.778-38.8-16.526-51.733s-15.808-20.118-24.43-20.837-30.177-2.156-30.177-2.156-5.749 10.778-17.963 8.623-17.963.718-17.963.718-20.118 12.215-22.274 12.933c-2.155.719-3.593 60.355-3.593 60.355-.47-2.348-6.77-3.774-11.682-2.073a8.064 8.064 0 00-5.562 5.666c-2.155 8.622 10.778 36.644 19.4 30.177 0 0 16.526 32.333 23.71 39.519l-4.31 19.4s30.61 31.175 50.544 40.159a27.594 27.594 0 006.937 2.233c4.715.725 10.116-1.435 15.557-5.067q1.42-.948 2.84-2.02c15.154-11.438 29.743-32.432 29.743-32.432l-.154-1.357c-.597-5.26-2.72-24.094-2.72-25.946 0-2.156 9.34-33.77 8.622-51.733 0 0 9.34 8.622 12.215 2.874 2.871-5.743 12.913-34.434-4.264-39.503z"/><path class="cls-8" d="M1593.112 1303.857l8.622-37.363s-49.578 7.186-48.86 5.03c.522-1.563 10.105-48.058 19.17-77.352-30.326 17.99-73.85 37.552-95.331 51.486-26.585 17.244-18.682 85.503-30.178 145.858-11.284 59.24 5.813 178.007 7.127 189.168h122.215c14.815-32.267 48.873-107.143 67.215-153.104-9.555-36.076-24.932-116.644-49.98-123.723z"/><path class="cls-13" d="M1740.407 1001.363s2.874-18.68 2.874-26.585-11.497-20.118-16.526-26.585-27.304-4.31-27.304-4.31c-2.155-7.186-31.614-23.711-39.518-23.711s-28.022 6.466-44.548 8.622-20.836 31.614-20.836 40.236-13.652 15.808-13.652 26.585 17.244 10.06 16.526 16.526-13.652 15.807-8.623 30.896c1.765 5.293 4.679 8.37 7.718 10.142 4.911-1.701 11.213-.275 11.682 2.073 0 0 1.437-59.637 3.593-60.355 2.155-.719 22.274-12.933 22.274-12.933s5.748-2.874 17.963-.719 17.962-8.622 17.962-8.622 21.556 1.437 30.178 2.156 18.681 7.903 24.43 20.836 12.932 49.578 16.525 51.733c2.057 1.234 5.292-5.305 7.95-12.2a130.917 130.917 0 004.265-12.948c1.437-5.748-12.933-20.837-12.933-20.837z"/><path class="cls-8" d="M1805.073 1240.628l-11.497-24.43-49.577-67.54-12.933 61.792-.15 8.075-1.738 93.454q.208 1.275.43 2.597c1.15 6.847 2.567 14.617 4.112 22.727 12.082-26.57 39.738-85.897 39.738-85.897l-10.778-13.652z"/><path class="cls-14" d="M1963.317 1309.605l-34.845 33.612-10.593 10.217s-95.6 130.677-100.405 139.017l.228.015 91.555-79.395 27.391-37.986 26.669-36.984 22.102-30.651 13.652-32.333z"/><path class="cls-8" d="M1645.563 1261.465l-13.23-47.51-16.869-60.57-1.516-5.445s-22.273 13.652-32.333 23.71c-2.767 2.768-6.132 11.407-9.571 22.522-9.065 29.294-18.648 75.79-19.17 77.352-.718 2.156 48.86-5.03 48.86-5.03l-8.622 37.363c25.048 7.08 40.428 87.647 49.98 123.723.46 1.74 20.434-105.76 20.434-105.76zM1892.013 1236.317c-10.06-33.77-74.007-54.607-89.814-58.2s-58.2-29.459-58.2-29.459l49.577 67.54 11.497 24.43-42.393-2.874 10.778 13.652s-27.656 59.327-39.738 85.897c6.3 33.066 3.588 76.23 4.874 80.944 1.766 6.478-3.653 87.164-13.647 121.238l-.092 4.987-.693.032-3.618 36.18h88.01c-2.76-6.44-1.804-16.487.111-18.88a91.452 91.452 0 01-13.196-2.158c-9.071-2.167-20.172-6.38-24.166-14.369a23.758 23.758 0 01-1.201-2.875c-5.128-14.86 1.483-39.071 16.29-43.11 0 0 7.184-7.185 22.273-7.185 2.876 0 6.174.17 8.809.344 4.805-8.34 100.405-139.016 100.405-139.016l10.593-10.218c-13.412-46.697-31.397-89.904-36.46-106.9z"/><path class="cls-8" d="M1936.648 1375.085l-27.391 37.986-91.555 79.395c2.678.18 4.615.36 4.615.36 1.437-12.215 29.459-7.185 29.459-7.185s11.496 32.333 6.466 40.955-2.155 13.652-17.962 13.652c-9.685 0-19.368 8.09-25.417 14.357a78.158 78.158 0 00-6.198 7.198c-1.915 2.394-2.871 12.44-.11 18.88a9.927 9.927 0 003.204 4.276 6.875 6.875 0 004.091 1.273c2.052 0 6.84-1.956 13.417-5.548 27.974-15.281 88.369-60.237 108.73-110.85 9.637-23.953 6.613-58.878-1.35-94.749z"/><path class="cls-8" d="M1795.47 1559.646a91.452 91.452 0 0013.195 2.157c.757-.946-4.72-1.643-13.196-2.157z"/><path class="cls-12" d="M1851.776 1485.64s-28.022-5.029-29.459 7.186c0 0-1.937-.18-4.615-.36l-.228-.015c-2.635-.174-5.933-.344-8.809-.344-15.089 0-22.274 7.185-22.274 7.185-14.806 4.039-21.417 28.25-16.29 43.11a23.758 23.758 0 001.202 2.875c3.994 7.99 15.095 12.202 24.166 14.37 8.477.513 13.953 1.21 13.196 2.156a78.158 78.158 0 016.198-7.198c6.05-6.267 15.733-14.357 25.417-14.357 15.807 0 12.933-5.03 17.963-13.652s-6.467-40.955-6.467-40.955z"/><circle cx="1829.318" cy="1338.469" r="22.446" fill="#888a8d"/><circle class="cls-16" cx="1829.113" cy="1333.889" r="16.407"/><path class="cls-17" d="M1450.398 1395.79c11.496-60.356 3.592-128.614 30.177-145.859 21.48-13.933 65.006-33.495 95.331-51.485 3.44-11.115 6.805-19.754 9.572-22.521 10.06-10.06 32.333-23.711 32.333-23.711l1.516 5.444 14.291-5.444 4.311-19.4c-7.185-7.185-23.71-39.518-23.71-39.518-8.623 6.466-21.556-21.556-19.4-30.178a8.064 8.064 0 015.562-5.666c-3.04-1.771-5.954-4.848-7.718-10.141-5.03-15.089 7.904-24.43 8.622-30.896s-16.526-5.748-16.526-16.526 13.652-17.963 13.652-26.585 4.311-38.081 20.837-40.237 36.644-8.622 44.548-8.622 37.362 16.526 39.518 23.711c0 0 22.274-2.155 27.303 4.311s16.526 18.682 16.526 26.585-2.874 26.585-2.874 26.585 14.37 15.089 12.933 20.837a130.919 130.919 0 01-4.264 12.948c17.178 5.07 7.136 33.76 4.264 39.503-2.874 5.749-12.214-2.874-12.214-2.874.718 17.963-8.623 49.578-8.623 51.733 0 1.853 2.123 20.687 2.72 25.946l8.777-.798s42.392 25.867 58.2 29.46 79.754 24.429 89.813 58.199c5.063 16.996 23.048 60.203 36.46 106.9l34.844-33.612v-482h-543.43v753.078h33.776c-1.315-11.16-18.411-129.927-7.127-189.168z"/><path class="cls-17" d="M1725.94 1214.486l-9.693 23.95-.41.025c6.483 19.031 15.444 67.035 17.204 77.792l1.737-93.454a54.941 54.941 0 01-8.837-8.313zM1941.86 1474.107c-20.362 50.614-80.757 95.57-108.73 110.85h134.05v-242.582l-26.67 36.984c7.962 35.871 10.986 70.795 1.35 94.748zM1596.974 1308.13l8.622-37.362s-49.577 7.185-48.859 5.03c.521-1.563 10.104-48.059 19.17-77.352-30.326 17.99-73.851 37.552-95.332 51.485-26.585 17.245-18.681 85.503-30.177 145.858-11.284 59.241 5.812 178.008 7.127 189.168h122.215c14.815-32.267 48.872-107.143 67.214-153.103-9.555-36.076-24.931-116.644-49.98-123.723zM1744.27 1005.637s2.873-18.681 2.873-26.585-11.496-20.118-16.526-26.585-27.303-4.31-27.303-4.31c-2.156-7.186-31.615-23.712-39.518-23.712s-28.022 6.467-44.548 8.622-20.837 31.615-20.837 40.237-13.652 15.807-13.652 26.585 17.245 10.06 16.526 16.526-13.652 15.807-8.622 30.896c1.764 5.293 4.678 8.37 7.718 10.141 4.911-1.7 11.212-.275 11.682 2.074 0 0 1.437-59.637 3.592-60.355 2.156-.719 22.274-12.934 22.274-12.934s5.748-2.874 17.963-.718 17.963-8.622 17.963-8.622 21.555 1.437 30.177 2.155 18.682 7.904 24.43 20.837 12.933 49.577 16.526 51.733c2.057 1.234 5.291-5.305 7.95-12.2a130.919 130.919 0 004.264-12.948c1.437-5.748-12.933-20.837-12.933-20.837zM1684.163 1192.373c-19.935-8.984-50.545-40.16-50.545-40.16l-14.29 5.445 16.867 60.57c8.424 8.191 18.759 16.194 25.445 18.052 4.376 1.215 9.162-3.165 13.581-9.49 8.643-12.37 15.878-32.184 15.878-32.184a27.594 27.594 0 01-6.936-2.233z"/><path class="cls-17" d="M1739.085 1153.73l.155 1.358s-14.59 20.993-29.744 32.431q-1.418 1.07-2.84 2.02c2.11 3.048 11.024 15.753 19.285 24.947a54.941 54.941 0 008.837 8.313l.15-8.075 12.934-61.792z"/><path class="cls-17" d="M1752.938 1039.422c-2.659 6.895-5.893 13.434-7.95 12.2-3.593-2.156-10.778-38.8-16.526-51.733s-15.807-20.118-24.43-20.837-30.177-2.155-30.177-2.155-5.748 10.777-17.963 8.622-17.963.718-17.963.718-20.118 12.215-22.274 12.934c-2.155.718-3.592 60.355-3.592 60.355-.47-2.349-6.771-3.774-11.682-2.074a8.064 8.064 0 00-5.562 5.666c-2.156 8.622 10.777 36.644 19.4 30.178 0 0 16.525 32.333 23.71 39.518l-4.31 19.4s30.61 31.175 50.544 40.159a27.594 27.594 0 006.936 2.233c4.715.725 10.117-1.435 15.558-5.067q1.42-.948 2.839-2.02c15.155-11.438 29.744-32.431 29.744-32.431l-.155-1.358c-.597-5.26-2.72-24.093-2.72-25.946 0-2.155 9.341-33.77 8.623-51.733 0 0 9.34 8.623 12.214 2.874 2.872-5.742 12.914-34.434-4.264-39.503z"/><path class="cls-17" d="M1706.657 1189.539c-5.441 3.632-10.843 5.792-15.558 5.067 0 0-7.235 19.815-15.878 32.184l6.538 13.8 2.926-.182 31.153-1.947.41-.026 9.693-23.949c-8.261-9.194-17.175-21.9-19.284-24.947zM1808.935 1244.902l-11.496-24.43-49.577-67.54-12.934 61.792-.15 8.075-1.737 93.454q.208 1.275.43 2.597c1.15 6.846 2.566 14.617 4.112 22.726 12.081-26.569 39.738-85.896 39.738-85.896l-10.778-13.652z"/><path class="cls-17" d="M1742.456 1422.521c-1.285-4.714 1.426-47.878-4.873-80.945-1.546-8.11-2.962-15.88-4.112-22.726-.305 6.467-11.151-61.358-17.633-80.39l-31.153 1.948c-4.409 29.954-17.45 125.25-10.83 162.566 7.904 44.548 36.644 153.762 36.644 153.762s5.748 7.185 12.933.719c1.297-1.167 3.178-6.195 5.378-13.696 9.993-34.074 15.413-114.76 13.646-121.238z"/><path d="M1967.18 1313.879l-34.846 33.612-10.592 10.217s-95.6 130.677-100.405 139.017l.228.015 91.555-79.395 27.39-37.986 26.67-36.984 22.102-30.652 13.652-32.333z" stroke-linecap="round" stroke-linejoin="round" stroke-width="3.477" stroke="#54575c" fill="none"/><path class="cls-17" d="M1649.426 1265.739l-13.231-47.51-16.868-60.571-1.516-5.444s-22.274 13.651-32.333 23.71c-2.767 2.768-6.132 11.407-9.572 22.522-9.064 29.293-18.648 75.79-19.169 77.352-.718 2.155 48.86-5.03 48.86-5.03l-8.623 37.363c25.049 7.079 40.429 87.646 49.98 123.723.46 1.74 20.434-105.76 20.434-105.76z"/><path class="cls-17" d="M1728.717 1548.746l.093-4.987c-2.2 7.501-4.081 12.529-5.378 13.696-7.185 6.466-12.933-.719-12.933-.719s-28.74-109.214-36.644-153.762c-6.62-37.316 6.421-132.612 10.83-162.566l-2.926.183-6.538-13.8c-4.419 6.324-9.205 10.704-13.58 9.489-6.687-1.858-17.022-9.86-25.446-18.052l13.23 47.51 17.963 60.356s-14.8 97.41-20.434 105.76c-18.342 45.96-52.4 120.836-67.214 153.103h144.667l3.618-36.18z"/><path class="cls-17" d="M1895.875 1240.59c-10.059-33.77-74.007-54.606-89.814-58.199s-58.2-29.459-58.2-29.459l49.578 67.54 11.496 24.43-42.392-2.874 10.778 13.652s-27.657 59.327-39.738 85.896c6.3 33.067 3.588 76.231 4.873 80.945 1.767 6.478-3.653 87.164-13.646 121.238l-.093 4.987-.692.031-3.618 36.18h88.01c-2.76-6.44-1.804-16.487.11-18.88a91.453 91.453 0 01-13.195-2.157c-9.071-2.167-20.172-6.38-24.167-14.369a23.757 23.757 0 01-1.2-2.875c-5.129-14.86 1.482-39.071 16.289-43.11 0 0 7.185-7.185 22.274-7.185 2.875 0 6.173.17 8.809.344 4.805-8.34 100.405-139.017 100.405-139.017l10.592-10.217c-13.411-46.697-31.396-89.904-36.459-106.9z"/><path class="cls-17" d="M1940.51 1379.36l-27.39 37.985-91.555 79.395c2.678.18 4.615.36 4.615.36 1.437-12.215 29.459-7.185 29.459-7.185s11.496 32.333 6.466 40.955-2.155 13.651-17.963 13.651c-9.684 0-19.367 8.09-25.416 14.358a78.16 78.16 0 00-6.198 7.198c-1.915 2.393-2.872 12.44-.11 18.88a9.927 9.927 0 003.203 4.276 6.876 6.876 0 004.092 1.273c2.051 0 6.84-1.957 13.416-5.549 27.974-15.28 88.37-60.236 108.731-110.85 9.636-23.953 6.612-58.877-1.35-94.748z"/><path class="cls-17" d="M1799.332 1563.92a91.453 91.453 0 0013.196 2.157c.757-.947-4.72-1.644-13.196-2.157z"/><path class="cls-17" d="M1855.639 1489.914s-28.022-5.03-29.46 7.186c0 0-1.936-.18-4.614-.36l-.228-.015c-2.636-.175-5.934-.344-8.81-.344-15.088 0-22.273 7.185-22.273 7.185-14.807 4.038-21.418 28.25-16.29 43.11a23.757 23.757 0 001.201 2.875c3.995 7.99 15.096 12.202 24.167 14.369 8.476.513 13.953 1.21 13.196 2.157a78.16 78.16 0 016.197-7.198c6.05-6.268 15.733-14.358 25.417-14.358 15.808 0 12.933-5.03 17.963-13.651s-6.466-40.956-6.466-40.956zM1550.37 1583.697c-2.208-6.624-18.767-150.136-7.727-175.527 0 0-26.495-72.86-19.871-113.706M1617.811 1152.214s-39.842 51.727-26.595 96.988c0 0 68.444 38.638 48.573 98.251s-69.548 28.703-69.548 28.703"/><path class="cls-17" d="M1591.216 1249.202s-19.938 73.489-2.208 107.083c20.975 39.742 37.534 28.702 51.885 28.702M1747.862 1152.932s42.064 5.747 49.791 27.826 33.118 107.082 25.39 144.616M1823.044 1489.862s55.197-99.355 51.885-152.344-7.727-79.484-7.727-79.484M1826.18 1497.1s-8.656 8.217 22.255 9.32M1833.13 1584.957s62.83-57.456 22.509-95.043M1676.22 1057.116s-18.767 17.663-12.144 24.287c10.502 10.502 26.495 4.416 26.495 4.416M1657.332 1104.393s25.375 26.162 48.558.77M1637.93 1132.814s47.083 47.975 98.435-5.03M1673.855 976.897s25.547-4.784 36.587-20.24"/><circle class="cls-16" cx="1651.933" cy="1044.973" r="5.52"/><circle class="cls-16" cx="1705.119" cy="1044.973" r="5.52"/><circle cx="1833.181" cy="1342.743" r="22.446" stroke-width="3.345" stroke-miterlimit="10" stroke="#54575c" fill="none"/><circle class="cls-5" cx="1832.976" cy="1338.163" r="16.407"/><ellipse class="cls-16" cx="1566.496" cy="1373.242" rx="5.625" ry="6.927" transform="rotate(-70.163 1566.496 1373.242)"/><ellipse class="cls-16" cx="1646.123" cy="1382.933" rx="6.927" ry="5.625" transform="rotate(-21.115 1646.124 1382.934)"/><path class="cls-8" d="M2763.224 719.303l-2.594 940.726a18.027 18.027 0 0017.969 18.084l1198.08 3.22a18.027 18.027 0 0018.084-17.97l2.594-940.725a18.027 18.027 0 00-17.97-18.084l-1198.078-3.22a18.027 18.027 0 00-18.085 17.97z"/><path class="cls-5" d="M2770.194 717.852l-2.558 929.415a23.682 23.682 0 0023.606 23.758l1186.77 3.183a23.682 23.682 0 0023.757-23.606l2.558-929.415a23.682 23.682 0 00-23.606-23.758l-1186.77-3.183a23.682 23.682 0 00-23.757 23.606zM4002.953 742.746l-1230.962-1.715"/><circle class="cls-5" cx="2804.413" cy="720.975" r="11.298"/><circle class="cls-5" cx="2845.863" cy="721.633" r="11.298"/><circle class="cls-5" cx="2887.314" cy="722.29" r="11.298"/><rect class="cls-4" x="2668.88" y="161.817" width="843.761" height="1038.475" rx="18.027" transform="rotate(90.184 3090.76 681.055)"/><rect class="cls-5" x="2675.868" y="154.711" width="843.761" height="1038.475" rx="23.682" transform="rotate(90.184 3097.748 673.948)"/><path class="cls-5" d="M3616.888 298.979l-1035.298-1.716"/><circle class="cls-5" cx="2614.012" cy="277.207" r="11.298"/><circle class="cls-5" cx="2655.462" cy="277.865" r="11.298"/><circle class="cls-5" cx="2696.912" cy="278.522" r="11.298"/><path class="cls-4" d="M875.79 336.772l-2.595 405.294a18.027 18.027 0 0017.97 18.085l568.185 3.22a18.027 18.027 0 0018.085-17.97l2.594-405.294a18.027 18.027 0 00-17.97-18.085l-568.185-3.22a18.027 18.027 0 00-18.085 17.97z"/><path class="cls-5" d="M882.76 335.32l-2.558 393.985a23.682 23.682 0 0023.606 23.758l556.875 3.183a23.682 23.682 0 0023.758-23.606L1487 338.656a23.682 23.682 0 00-23.606-23.758l-556.876-3.183a23.682 23.682 0 00-23.758 23.606zM1485.625 360.215l-601.068-1.716"/><circle class="cls-5" cx="916.979" cy="338.443" r="11.298"/><circle class="cls-5" cx="958.429" cy="339.101" r="11.298"/><circle class="cls-5" cx="999.879" cy="339.758" r="11.298"/><path class="cls-16" d="M1663.8 1650.516v-4.55a8.191 8.191 0 00-8.19-8.191h-64.921a8.191 8.191 0 00-8.191 8.19v4.551zM1582.498 1654.157v31.247a8.191 8.191 0 008.191 8.19h64.92a8.191 8.191 0 008.192-8.19v-31.247zm71.184 29.194h-29.149v-4.301h29.15zm0-8.282h-29.149v-4.301h29.15zm0-8.282h-29.149v-4.3h29.15z"/><circle class="cls-4" cx="1602.807" cy="1665.892" r="6.808"/><path class="cls-4" d="M1590.238 1686.735a12.569 12.569 0 0125.138 0z"/><path class="cls-16" d="M884.186 1110.696v-4.551a8.191 8.191 0 00-8.19-8.191h-64.922a8.191 8.191 0 00-8.19 8.191v4.55zM802.883 1114.336v31.247a8.19 8.19 0 008.191 8.19h64.921a8.191 8.191 0 008.191-8.19v-31.247zm71.185 29.194h-29.15v-4.3h29.15zm0-8.282h-29.15v-4.3h29.15zm0-8.282h-29.15v-4.3h29.15z"/><circle class="cls-4" cx="823.192" cy="1126.072" r="6.808"/><path class="cls-4" d="M810.624 1146.915a12.569 12.569 0 0125.137 0z"/><path class="cls-16" d="M1769.749 1633.49v18.719h19.226l-19.226-18.719z"/><path class="cls-16" d="M1765.86 1656.18v-22.452h-23.445v64.226h46.723v-41.774zm12.941 27.579h-26.462v-4.135h26.462zm0-7.856h-26.462v-4.135h26.462zm0-7.856h-26.462v-4.135h26.462zM1504.129 1645.105h-10.085l-.85-6.237c-.328-2.538-1.941-4.334-4.335-4.334h-18.262c-2.394 0-3.676 1.578-4.334 4.334l-1.418 6.237h-9.53a10.305 10.305 0 00-10.306 10.305v29.53a10.305 10.305 0 0010.305 10.305h48.815a10.305 10.305 0 0010.305-10.305v-29.53a10.305 10.305 0 00-10.305-10.305zm-33.056-3.15c.848-1.712 1.584-2.904 3.188-2.904h11.488c1.604 0 2.189.902 2.905 2.905l.85 3.436h-19.565zm21.255 34.726h-6.803v6.804h-11.606v-6.804h-6.804v-11.606h6.804v-6.804h11.606v6.804h6.803zM1906.904 1676.917l-20.575-7.303c-.488 2.206-1.253 5.806-1.364 6.18-3.245 11.01-.915 13.303 12.242 14.155a156.796 156.796 0 0020.465-.012c4.024-.268 10.643-.445 12.775-4.065 1.477-2.509.642-5.471-.178-8.032-.218-.68-2.865-7.506-2.053-7.783l-20.146 6.867a1.788 1.788 0 01-1.166-.007z"/><path class="cls-16" d="M1950.36 1654.774l-43.47-13.912a1.547 1.547 0 00-.954.003l-40.93 13.374a1.652 1.652 0 00-.112 3.075l6.59 2.728 1.536 1.319-3.962 30.153 8.98-.66c-.188-2.66-.275-4.57-.466-6.472-.52-5.179-1.402-10.345-1.545-15.533-.106-3.882.458-5.533 2.594-5.854l7.708 3.19 20.575 8.515a1.548 1.548 0 001.166.008l20.146-8.007 22.244-8.84a1.651 1.651 0 00-.1-3.088zM2477.291 874.372l-20.575-7.303c-.488 2.206-1.253 5.805-1.363 6.18-3.246 11.01-.916 13.303 12.241 14.154a156.794 156.794 0 0020.466-.01c4.023-.269 10.642-.446 12.774-4.066 1.478-2.509.642-5.472-.178-8.033-.218-.679-2.865-7.506-2.052-7.783l-20.147 6.868a1.788 1.788 0 01-1.166-.007z"/><path class="cls-16" d="M2520.747 852.228l-43.47-13.912a1.547 1.547 0 00-.954.003l-40.93 13.374a1.651 1.651 0 00-.112 3.076l6.59 2.727 1.536 1.32-3.962 30.153 8.98-.66c-.187-2.66-.275-4.571-.465-6.472-.52-5.18-1.403-10.345-1.545-15.533-.107-3.882.458-5.533 2.594-5.854l7.707 3.19 20.575 8.514a1.548 1.548 0 001.166.009l20.147-8.007 22.243-8.84a1.651 1.651 0 00-.1-3.088z"/><path class="cls-5" d="M963.259 596.859h444.172M963.259 668.742h444.172M2750.551 701.921h687.388M2750.551 597.422h687.388M558.2 1241.101h567.849M3267.757 1471.104h660.553M3201.835 1328.053h726.475M3064.393 1185.002h863.917M3622.573 1041.951h305.737M558.2 1327.265h567.849M558.2 1413.429h567.849"/><circle class="cls-5" cx="843.535" cy="1125.864" r="65.12"/><circle class="cls-5" cx="2478.074" cy="863.606" r="65.12"/><path class="cls-16" d="M1175.226 452.493v18.719h19.227l-19.227-18.719z"/><path class="cls-16" d="M1171.338 475.183v-22.452h-23.445v64.226h46.723v-41.774zm12.94 27.579h-26.462v-4.135h26.463zm0-7.857h-26.462v-4.134h26.463zm0-7.856h-26.462v-4.134h26.463z"/><circle class="cls-5" cx="1171.254" cy="484.725" r="57.4"/><path class="cls-16" d="M3126.62 444.48h-13.377l-1.128-8.273c-.434-3.366-2.574-5.749-5.75-5.749h-24.223c-3.176 0-4.877 2.094-5.75 5.75l-1.88 8.272h-12.642a13.67 13.67 0 00-13.67 13.67v39.17a13.67 13.67 0 0013.67 13.67h64.75a13.67 13.67 0 0013.67-13.67v-39.17a13.67 13.67 0 00-13.67-13.67zm-43.847-4.177c1.125-2.271 2.101-3.852 4.229-3.852h15.239c2.127 0 2.903 1.196 3.852 3.852l1.128 4.558h-25.952zm28.194 46.062h-9.024v9.024h-15.396v-9.024h-9.024v-15.396h9.024v-9.024h15.396v9.024h9.024z"/><circle class="cls-5" cx="3094.245" cy="470.724" r="83.778"/><rect class="cls-14" x="2751.255" y="804.502" width="653.547" height="148.661" rx="27.951"/><rect class="cls-5" x="2767.471" y="791.241" width="653.547" height="148.661" rx="27.951"/><path class="cls-4" d="M2708.407 1521.7c-2.605 8.87-4.108 13.982-4.108 13.982a71.325 71.325 0 004.108-13.983z"/><path class="cls-4" d="M3269.113 1621.749c-16.138-26.896-12.552-116.55-28.69-161.376-16.137-44.826-62.756-41.24-62.756-41.24s3.586-8.965 1.793-46.62-10.759-55.585-44.827-82.48-87.86 8.965-87.86 8.965v-68.137c-17.93-68.136-100.411-35.86-100.411-35.86s26.896-215.168 35.86-261.788c8.966-46.62 5.38-96.825-28.688-105.79s-53.792 28.689-64.55 50.206c-10.759 21.516-93.24 337.095-98.619 360.405-.43 1.864-1.344 5.342-2.658 10.15 22.623-13.844 64.137-28.546 105.612-18.45 26.738 6.508 46.697 28.811 54.647 39.004a18.002 18.002 0 013.793 11.426c-.294 15.227-3.122 54.82-23.629 80.875-9.594 12.19-37.864 19.543-44.525 20.44-52.42 7.054-107.782-23.086-123.03-38.354-19.47 67.147-42.863 146.893-52.168 178.574a71.325 71.325 0 01-4.108 13.983s1.503-5.111 4.108-13.983c8.253-42.959-14.867-100.773-14.867-100.773 50.206-57.378 19.724-172.134-1.793-215.167-21.517-43.034-50.205-17.931-55.585-10.759s-25.102 120.135-48.412 168.548-25.103 59.17-26.896 111.17-25.103 225.925-21.517 240.27c7.29 29.16 37.654 173.927 35.861 200.823-1.793 26.895 44.827 103.997 44.827 103.997 80.687 130.893 53.792 157.79 57.378 195.444l432.127 48.412c-28.689-93.239 59.171-297.648 59.171-297.648s91.446-236.684 102.205-267.166c10.758-30.482 14.344-50.205-1.793-77.101z"/><path class="cls-4" d="M2947.966 1268.738c-7.95-10.193-27.91-32.496-54.647-39.005-41.475-10.095-82.99 4.607-105.612 18.45-6.747 4.129-11.817 8.18-14.7 11.476 0 0-18.283 66.803-16.49 77.562.244 1.463 1.658 3.5 4.058 5.904 15.248 15.268 70.61 45.408 123.03 38.354 6.66-.897 34.931-8.25 44.525-20.44 20.507-26.055 23.335-65.648 23.63-80.874a18.002 18.002 0 00-3.794-11.427z"/><path class="cls-7" d="M2700.38 1532.746c-2.605 8.872-4.108 13.983-4.108 13.983a71.325 71.325 0 004.108-13.983z"/><path class="cls-7" d="M3261.086 1632.796c-16.138-26.896-12.552-116.55-28.69-161.376-16.137-44.826-62.756-41.24-62.756-41.24s3.586-8.966 1.793-46.62-10.759-55.585-44.827-82.48-87.86 8.965-87.86 8.965v-68.137c-17.93-68.136-100.411-35.86-100.411-35.86s26.896-215.168 35.86-261.788c8.966-46.62 5.38-96.825-28.688-105.79s-53.792 28.689-64.55 50.206c-10.759 21.516-93.24 337.095-98.619 360.405-.43 1.864-1.344 5.342-2.658 10.15 22.623-13.844 64.137-28.546 105.612-18.45 26.738 6.507 46.697 28.811 54.647 39.004a18.002 18.002 0 013.793 11.426c-.294 15.227-3.122 54.82-23.629 80.875-9.594 12.19-37.864 19.543-44.525 20.44-52.42 7.054-107.782-23.086-123.03-38.354-19.47 67.147-42.863 146.893-52.168 178.574a71.325 71.325 0 01-4.108 13.983s1.503-5.111 4.108-13.983c8.253-42.959-14.867-100.773-14.867-100.773 50.206-57.378 19.724-172.134-1.793-215.167-21.517-43.034-50.205-17.931-55.585-10.759s-25.102 120.135-48.412 168.548-25.103 59.17-26.896 111.17-25.103 225.925-21.517 240.27c7.29 29.16 37.654 173.927 35.861 200.822-1.793 26.896 44.827 103.998 44.827 103.998 80.687 130.893 53.792 157.79 57.378 195.444l432.127 48.412c-28.689-93.239 59.171-297.648 59.171-297.648s91.446-236.684 102.205-267.166c10.758-30.482 14.344-50.206-1.793-77.101z"/><path class="cls-4" d="M2940.714 1270.482c-7.95-10.193-27.909-32.497-54.646-39.005-41.476-10.096-82.99 4.606-105.613 18.45-6.746 4.128-11.817 8.18-14.7 11.475 0 0-18.283 66.804-16.49 77.562.244 1.463 1.658 3.501 4.059 5.905 15.247 15.268 70.608 45.408 123.029 38.353 6.66-.896 34.931-8.25 44.526-20.44 20.506-26.055 23.334-65.647 23.628-80.874a18.002 18.002 0 00-3.793-11.426z"/><path class="cls-13" d="M2943.188 1280.342c-7.95-10.193-27.91-32.496-54.647-39.005-41.475-10.095-82.99 4.607-105.612 18.45-6.747 4.129-11.817 8.18-14.7 11.476 0 0-18.283 66.803-16.49 77.562.244 1.463 1.658 3.5 4.058 5.904 15.248 15.269 70.61 45.408 123.03 38.354 6.66-.897 34.931-8.25 44.525-20.44 20.507-26.055 23.335-65.647 23.629-80.874a18.002 18.002 0 00-3.793-11.427z"/><path class="cls-5" d="M2708.006 1525.94c-2.606 8.872-4.109 13.983-4.109 13.983a71.326 71.326 0 004.11-13.982z"/><path class="cls-5" d="M3268.711 1625.99c-16.137-26.896-12.551-116.549-28.689-161.375-16.137-44.827-62.757-41.24-62.757-41.24s3.586-8.966 1.793-46.62-10.758-55.585-44.826-82.481-87.86 8.965-87.86 8.965v-68.136c-17.93-68.136-100.412-35.861-100.412-35.861s26.896-215.168 35.862-261.787c8.965-46.62 5.379-96.825-28.69-105.79s-53.791 28.688-64.55 50.205c-10.758 21.517-93.238 337.095-98.618 360.405-.43 1.865-1.344 5.342-2.658 10.15 22.622-13.844 64.137-28.546 105.612-18.45 26.737 6.508 46.696 28.812 54.646 39.005a18.002 18.002 0 013.794 11.426c-.294 15.227-3.123 54.82-23.629 80.874-9.594 12.19-37.865 19.543-44.526 20.44-52.42 7.055-107.782-23.085-123.03-38.354-19.469 67.147-42.862 146.893-52.167 178.575a71.326 71.326 0 01-4.109 13.982s1.503-5.111 4.11-13.982c8.252-42.96-14.868-100.774-14.868-100.774 50.206-57.378 19.723-172.134-1.793-215.167-21.517-43.033-50.206-17.93-55.585-10.758s-25.103 120.135-48.413 168.547-25.102 59.171-26.895 111.17-25.103 225.926-21.517 240.27c7.29 29.16 37.654 173.927 35.86 200.823-1.792 26.896 44.827 103.997 44.827 103.997 80.688 130.894 53.792 157.79 57.378 195.444l432.128 48.413c-28.689-93.24 59.17-297.648 59.17-297.648s91.447-236.684 102.205-267.166c10.759-30.482 14.345-50.206-1.793-77.102z"/><path class="cls-5" d="M2947.564 1272.98c-7.95-10.193-27.909-32.497-54.646-39.005-41.475-10.096-82.99 4.606-105.612 18.45-6.747 4.128-11.818 8.18-14.7 11.475 0 0-18.283 66.804-16.49 77.562.244 1.463 1.658 3.501 4.058 5.905 15.247 15.268 70.609 45.408 123.03 38.353 6.66-.896 34.93-8.25 44.525-20.44 20.506-26.055 23.335-65.647 23.629-80.874a18.002 18.002 0 00-3.794-11.426z"/><ellipse cx="2862.729" cy="1307.976" rx="72.563" ry="57.134" transform="rotate(-77.91 2862.73 1307.976)" stroke-width="3.689" stroke-miterlimit="10" stroke="#54575c" fill="none"/><ellipse class="cls-5" cx="2862.556" cy="1306.915" rx="42.543" ry="29.428" transform="rotate(-77.91 2862.556 1306.915)"/><text class="cls-21" transform="rotate(-78.554 2211.45 -1072.789)">UNITED STATES</text><text class="cls-21" transform="matrix(.36908 .90825 -.92643 .37647 2811.605 1336.059)">VETERAN</text><path class="cls-16" d="M2848.33 1302.41c1.406.282 4.53 1.733 5.106 3.063 1.042 2.408-1.092 7.125-2.074 9.188-.634 1.33-1.804 3.025-1.665 4.59.098 1.098 1.03 1.737 1.252 2.75.331 1.515-.514 3.813-.754 5.315-.686 4.304-1.838 8.332-2.816 12.553a7.95 7.95 0 00-.425 2.602 23.57 23.57 0 00.616 3.069c.414.8.523.511 1.501.921a27.08 27.08 0 002.967.772c.859.247 2.72 1.193 3.596.853a4.55 4.55 0 01-1.001-.158c3.4-.266 7.468.972 9.486-2.512.85-1.469.657-3.759.909-5.396.244-1.584.195-5.219 1.157-6.433.549-.693 1.854-.91 2.546-1.536a11.022 11.022 0 00.873-1.055q.258-.704.817-.071a16.555 16.555 0 002.974-3.42 17.805 17.805 0 002.676-7.34 18.25 18.25 0 00.485-3.138 14.24 14.24 0 01-.128-2.396c.126-.71.628-1.325.702-2.034.246-2.345-1.314-5.366-2.028-7.582-1.137-3.53-3.44-3.999-5.972-6.446a3.662 3.662 0 01-.925-4.302c.057-.136 2.584-3.628 1.094-2.986a11.11 11.11 0 01.722-2.014c.156-.388 1.075-1.91 1.093-2.172.135-1.924-2.54-3.326-4.019-3.615-1.869-.364-4.63.206-4.923 2.21-.026.179.28 1.692.257 2.213-.033.744.115 1.243.017 2.116-.93-1.208-.943.604-.89 1.132.076.752.72 1.051.918 1.757a4.057 4.057 0 01-1.807 4.817 6.216 6.216 0 01-5.252-.02 26.004 26.004 0 00-5.978-1.49 27.962 27.962 0 003.689-1.966c.748-.571 1.952-2.266 2.475-2.58.766-.462 6.735-2.786 6.622-3.479-.206-1.258-6.447 1.343-6.98 1.49-2.695.743-5.177.525-7.829 1.957-2.19 1.183-5.378 2.025-5.207 4.884.216 3.624 2.782 5.216 6.124 5.888zm19.82 21.981c.989-.9 3.121-12.517 2.776-12.586 1.038.209 1.554 4.455 1.451 5.44a12.799 12.799 0 01-1.288 3.446c-.508 1.219-.733 2.36-1.12 3.611-.33 1.068-1.977 2.857-1.596 3.81a6.476 6.476 0 00-1.279.362 13.346 13.346 0 011.056-4.083z"/><path class="cls-5" d="M2765.557 1295.905c1.494-2.988 42.73-27.192 42.73-27.192s-6.275 20.32-11.653 21.216c0 0-2.69 18.228-12.252 20.618 0 0-8.665 15.24-15.24 15.24s-11.952 4.78-11.952 4.78zM2948.431 1315.328c.28-3.329-18.413-36.867-18.413-36.867s-5.22 20.615-1.095 24.18c0 0-7.192 16.964-.273 23.983 0 0-.534 17.523 5.079 20.945s2.75 4.513 2.75 4.513z"/><path class="cls-16" d="M2816.611 1312.132l2.497 5.58 6.079-.651-4.535 4.1 2.498 5.58-5.301-3.046-4.535 4.1 1.259-5.983-5.3-3.046 6.078-.651 1.26-5.983zM2901.659 1319.149l2.498 5.58 6.079-.652-4.535 4.1 2.498 5.58-5.301-3.046-4.535 4.1 1.259-5.982-5.301-3.047 6.079-.651 1.259-5.982z"/><path class="cls-5" d="M2976.156 881.457s-10.082 65.534-42.849 65.534-32.767-39.068-32.767-49.15 13.863-56.712 26.466-59.233 37.808 0 45.37 11.343 3.78 31.506 3.78 31.506zM2611.94 1299.865s41.266-60.59 34.027-76.876a16.545 16.545 0 00-16.383-10.082M3046.372 1303.239l-22.876 179.431M3177.265 1423.374l-7.6 140.686M2945.96 1199.242l-8.838 62.512M2913.868 1376.364l-18.271 71.424M2703.897 1539.923l-12.606 32.442"/></g></svg>