<?xml version="1.0" encoding="utf-8"?>
<!-- Generator: Adobe Illustrator 24.0.3, SVG Export Plug-In . SVG Version: 6.00 Build 0)  -->
<svg version="1.1" xmlns="http://www.w3.org/2000/svg" xmlns:xlink="http://www.w3.org/1999/xlink" x="0px" y="0px"
	 viewBox="0 0 841.89 467.72" style="enable-background:new 0 0 841.89 467.72;" xml:space="preserve">
<style type="text/css">
	.st0{clip-path:url(#SVGID_2_);}
	.st1{fill:#FFFFFF;}
	.st2{fill:#4890BA;}
	.st3{fill:none;stroke:#54575C;stroke-width:1.0968;stroke-miterlimit:10;}
	.st4{fill:#F4F4F5;}
	.st5{fill:#61A575;}
	.st6{clip-path:url(#SVGID_4_);fill:#4890BA;}
	.st7{opacity:0.24;clip-path:url(#SVGID_4_);}
	.st8{fill:none;stroke:#DCEFFA;stroke-miterlimit:10;}
	.st9{clip-path:url(#SVGID_4_);}
	.st10{fill:#F5C65D;}
	.st11{fill:#E0635D;}
	.st12{fill:none;stroke:#54575C;stroke-miterlimit:10;}
	.st13{clip-path:url(#SVGID_4_);fill:#E0635D;}
	.st14{clip-path:url(#SVGID_4_);fill:none;stroke:#54575C;}
	.st15{clip-path:url(#SVGID_4_);fill:#54575C;}
	.st16{fill:none;stroke:#54575C;}
	.st17{clip-path:url(#SVGID_4_);fill:#F5C65D;}
	.st18{fill:#54575C;}
	.st19{fill:none;stroke:#54575C;stroke-width:1.2077;}
	.st20{fill:#6F5037;}
	.st21{fill:#6AA4C7;}
	.st22{fill:#F7D380;}
	.st23{fill:#E6817C;}
	.st24{fill:#99CC99;}
	.st25{fill:none;stroke:#54575C;stroke-width:0.8734;stroke-miterlimit:10;}
	.st26{clip-path:url(#SVGID_6_);fill:#F5C65D;}
	.st27{clip-path:url(#SVGID_6_);}
	.st28{fill:none;}
	.st29{fill:none;stroke:#54575C;stroke-width:1.0694;stroke-miterlimit:10;}
	.st30{fill:#AFA7A7;}
	.st31{fill:#CAC6C4;}
	.st32{clip-path:url(#SVGID_6_);fill:#FFFFFF;}
	.st33{clip-path:url(#SVGID_6_);fill:#61A575;}
	.st34{clip-path:url(#SVGID_6_);fill:none;stroke:#54575C;stroke-width:1.0694;stroke-miterlimit:10;}
</style>
<g id="Layer_1">
</g>
<g id="Layer_2">
</g>
<g id="Layer_3">
	<g>
		<defs>
			<rect id="SVGID_3_" x="-0.71" y="-1.09" width="843.3" height="469.89"/>
		</defs>
		<clipPath id="SVGID_2_">
			<use xlink:href="#SVGID_3_"  style="overflow:visible;"/>
		</clipPath>
		<rect x="-9.33" y="-8.22" style="clip-path:url(#SVGID_2_);fill:#4890BA;" width="851.93" height="486.82"/>
		<g style="opacity:0.24;clip-path:url(#SVGID_2_);">
			<rect x="-0.39" y="-41.9" class="st8" width="1180.51" height="2052.76"/>
			<line class="st8" x1="-0.39" y1="458.78" x2="1180.12" y2="458.78"/>
			<line class="st8" x1="-0.39" y1="408.71" x2="1180.12" y2="408.71"/>
			<line class="st8" x1="-0.39" y1="358.64" x2="1180.12" y2="358.64"/>
			<line class="st8" x1="-0.39" y1="308.57" x2="1180.12" y2="308.57"/>
			<line class="st8" x1="-0.39" y1="258.51" x2="1180.12" y2="258.51"/>
			<line class="st8" x1="-0.39" y1="208.44" x2="1180.12" y2="208.44"/>
			<line class="st8" x1="-0.39" y1="158.37" x2="1180.12" y2="158.37"/>
			<line class="st8" x1="-0.39" y1="108.3" x2="1180.12" y2="108.3"/>
			<line class="st8" x1="-0.39" y1="58.24" x2="1180.12" y2="58.24"/>
			<line class="st8" x1="-0.39" y1="8.17" x2="1180.12" y2="8.17"/>
			<line class="st8" x1="786.61" y1="-41.9" x2="786.61" y2="2010.86"/>
			<line class="st8" x1="730.4" y1="-41.9" x2="730.4" y2="2010.86"/>
			<line class="st8" x1="674.18" y1="-41.9" x2="674.18" y2="2010.86"/>
			<line class="st8" x1="617.97" y1="-41.9" x2="617.97" y2="2010.86"/>
			<line class="st8" x1="561.75" y1="-41.9" x2="561.75" y2="2010.86"/>
			<line class="st8" x1="505.54" y1="-41.9" x2="505.54" y2="2010.86"/>
			<line class="st8" x1="449.32" y1="-41.9" x2="449.32" y2="2010.86"/>
			<line class="st8" x1="393.11" y1="-41.9" x2="393.11" y2="2010.86"/>
			<line class="st8" x1="336.89" y1="-41.9" x2="336.89" y2="2010.86"/>
			<line class="st8" x1="280.68" y1="-41.9" x2="280.68" y2="2010.86"/>
			<line class="st8" x1="224.46" y1="-41.9" x2="224.46" y2="2010.86"/>
			<line class="st8" x1="168.25" y1="-41.9" x2="168.25" y2="2010.86"/>
			<line class="st8" x1="112.03" y1="-41.9" x2="112.03" y2="2010.86"/>
			<line class="st8" x1="55.82" y1="-41.9" x2="55.82" y2="2010.86"/>
		</g>
		<g class="st0">
			<path class="st10" d="M342.25,433.98c0,0-155.53-7.88-210.06-79.34c-36.71-48.1,3.64-71.65,69.31-122.73
				C321.05,138.92,472.96-7.45,591.18-22.04S795.5-32.26,896.2,99.09s64.22,237.89-252.48,375.08c0,0-237.11,11.01-337.71,0.18
				S69.74,446.85,56.3,319.01c-8.44-80.27,20.12-116.48,127.69-161.54C313.02,103.42,526.96-70.2,526.96-70.2l42.32,23.35
				c0,0-367.78,230.59-411.56,272.92s-79.37,75.74-40.01,140.59S342.25,433.98,342.25,433.98z"/>
			<path class="st10" d="M361.6-20.36c0,0-64.43,50.83-141.16,95.83S61.14,151.88,30.06,198.5
				c-16.76,25.13-92.25,251.02,196.54,287.28l-132.99-2.5c0,0-147.73-93.11-106.29-273.13c0,0-2.59-31.08,55.69-81.59
				C65.27,109.28,140.94,79,191.94,48.28c82.53-49.71,145.05-99.72,145.05-99.72L361.6-20.36z"/>
			<path class="st10" d="M209.03-20.36c0,0-251.05,59.57-276.54,207.21S59.92,536.51,59.92,536.51s11.47-2.59,11.47-2.59
				c-54.4-77.11-105.9-167.46-126.73-260.51C-77.3,175.24-7.45,92.86,74.67,45.89c51.17-29.27,92.32-45.78,149.65-57.19
				L209.03-20.36z"/>
			<path class="st10" d="M161.43-29.22c0,0-267.19,34.97-292.68,182.6S-11.3,528.74-11.3,528.74s11.47-2.59,11.47-2.59
				c-54.4-77.11-93.75-203.31-114.58-296.36C-136.38,131.62-55.37,72.14,26.75,25.17c51.17-29.27,69-32.83,126.34-44.24
				L161.43-29.22z"/>
			<path class="st11" d="M542.36-37.18c0,0-122.26,83.27-198.99,128.27S66.85,216.6,75.31,271.99
				C93.4,390.4,154.89,451.16,443.68,487.42H287.45c0,0-315.04-97.17-208.86-248.32C119.84,180.39,265.57,118,372.97,58.2
				C461.03,9.17,517.69-43.76,517.69-43.76L542.36-37.18z"/>
			<path class="st11" d="M345.01-27.31c0,0-96.99,51.42-192.41,105.25C86.62,115.16,18.13,145.85-3.63,193.05
				c-62.71,136.06,108.54,297.66,108.54,297.66s39.47-1.64,39.47-1.64C89.98,411.96,22.13,396.28,1.31,303.24
				c-8.11-36.23-12.4-79.01,11.51-111.83C53.7,135.29,143.55,94.42,195.36,64.78c51.17-29.27,111.83-52.62,166.24-85.14
				L345.01-27.31z"/>
			<path class="st11" d="M146.1-23.84c0,0-254.9,31.61-274.5,179.24S-2.76,522.43-2.76,522.43s0,0,0,0
				c-41.84-77.11-96.68-197.57-112.69-290.62C-132.35,133.64-70.04,74.16-6.89,27.19C32.46-2.08,105.33-9.78,149.42-21.19
				L146.1-23.84z"/>
			<path class="st12" d="M542.36-44c0,0-122.26,83.27-198.99,128.27S66.85,209.78,75.31,265.17
				C93.4,383.58,154.89,444.34,443.68,480.6H287.45c0,0-315.04-97.17-208.86-248.32c41.24-58.71,186.97-121.1,294.37-180.9
				C461.03,2.35,517.69-50.58,517.69-50.58L542.36-44z"/>
			<path class="st12" d="M345.01-34.13c0,0-96.99,51.42-192.41,105.25C86.62,108.34,18.13,139.03-3.63,186.23
				c-62.71,136.06,108.54,297.66,108.54,297.66s39.47-1.64,39.47-1.64C89.98,405.14,22.13,389.46,1.31,296.42
				c-8.11-36.23-12.4-79.01,11.51-111.83C53.7,128.47,143.55,87.6,195.36,57.96C246.53,28.69,307.19,5.33,361.6-27.18L345.01-34.13z
				"/>
			<path class="st12" d="M146.1-30.67c0,0-254.9,31.61-274.5,179.24S-2.76,515.61-2.76,515.61s0,0,0,0
				C-44.6,438.5-99.44,318.03-115.45,224.98C-132.35,126.82-70.04,67.34-6.89,20.37C32.46-8.9,105.33-16.6,149.42-28.01L146.1-30.67
				z"/>
		</g>
		<path style="clip-path:url(#SVGID_2_);fill:#E0635D;" d="M827.75,208.78c-2.12-29.32-13.68-66.97-41.03-82.22
			c-12.15-6.78-26.03-9.8-39.82-11.66c-87.2-11.78-185.62,9.69-266.55,41.98c-39.7,15.84-78.43,34.72-114.02,58.53
			c-19.48,13.03-37.63,28.02-50.1,48.17c-12.79,20.69-16.76,45.77-11.77,69.46c5.68,27.03,26.63,46.3,51.9,55.18
			c20.06,7.05,42.97,5.85,63.91,5.22c46.5-1.38,93.9-5.48,139.47-15.12c41.57-8.79,84.22-26.81,112.34-59.88
			c14.33-16.85,25.72-36.07,30.67-57.84c4.01-17.66-5.4-38.39-24.23-42.67c-30.41-6.93,6.22,24.19-4.16,44.65
			c-12.57,24.76-44.64,58.21-80.22,68.76c-28.64,8.5-64.8,15.57-94.64,16.97c-35.3,1.66-71.61-0.57-106.53-5.94
			c-18.94-2.91-38.93-10.94-47.78-27.93c-9.13-17.53-3.3-39.94,9.32-55.15c12.62-15.21,30.78-24.62,48.79-32.76
			c26.97-12.19,131-49.99,156.29-56.48c53.55-13.74,161.86-20.84,209.88,19.69c39.03,32.93,15.88,80.18-5.31,112.79
			c-7.91,12.17-18.89,22-30.22,31.07C669.64,385.03,590.61,412.52,509,419c-40.61,3.23-81.53,1.57-121.92-3.54
			c-37.01-4.68-82.2-8.58-115.67-26c-18.68-9.72-34.99-25.9-40.21-46.3c-7.58-29.64,9.1-58.69,30.7-77.31
			c25.26-21.78,50.9-44.35,75.28-67.37c34.35-32.44,69.31-64.28,105.62-94.53c38.88-32.39,83.53-58.39,131.77-74
			c53.95-17.46,153.3-30.85,206.02-11.64c87.84,32.01,95.41,83.03,123.38,68.33c15.64-8.21-49.73-76.64-61.43-83.34
			c-98.48-56.36-261.24-40.65-352.02,24.15c-33.4,23.84-66.3,48.37-99.08,73.06c-30.11,22.68-62.12,42.23-91.01,66.69
			c-46.56,39.41-93.92,81.66-135.41,126.31c-8.27,8.9-15.59,19.44-17.15,31.49c-2.29,17.77,10.12,27.74,23.37,36.54
			c50.11,33.28,103.6,46.31,162.37,56.72c78.9,13.98,161.76,17.83,242.11,6.91c80.64-10.96,156.92-29.82,210.31-95.14
			C813.91,295.94,830.96,253.25,827.75,208.78z"/>
		<path style="clip-path:url(#SVGID_2_);fill:none;stroke:#54575C;" d="M832.3,205.74c-2.12-29.32-13.68-66.97-41.03-82.22
			c-12.15-6.78-26.03-9.8-39.82-11.66c-87.2-11.78-185.62,9.69-266.55,41.98c-39.7,15.84-78.43,34.72-114.02,58.53
			c-19.48,13.03-37.63,28.02-50.1,48.17c-12.79,20.69-16.76,45.77-11.77,69.46c5.68,27.03,26.63,46.3,51.9,55.18
			c20.06,7.05,42.97,5.85,63.91,5.22c46.5-1.38,93.9-5.48,139.47-15.12c41.57-8.79,84.22-26.81,112.34-59.88
			c14.33-16.85,25.72-36.07,30.67-57.84c4.01-17.66-5.4-38.39-24.23-42.67c-30.41-6.93,1.67,27.22-8.71,47.68
			c-12.57,24.76-40.41,50.37-80.83,66.35c-27.78,10.99-59.65,14.95-89.49,16.35c-35.3,1.66-71.61-0.57-106.53-5.94
			c-18.94-2.91-38.93-10.94-47.78-27.93c-9.13-17.53-3.3-39.94,9.32-55.15c12.62-15.21,30.78-24.62,48.79-32.76
			c26.97-12.19,131-49.99,156.29-56.48c53.55-13.74,170.67-11.12,209.88,19.69c30.58,24.03,15.88,80.18-5.31,112.79
			c-7.91,12.17-18.89,22-30.22,31.07c-64.29,51.42-143.33,78.91-224.93,85.39c-40.61,3.23-81.53,1.57-121.92-3.54
			c-37.01-4.68-82.2-8.58-115.67-26c-18.68-9.72-34.99-25.9-40.21-46.3c-7.58-29.64,9.1-58.69,30.7-77.31
			c25.26-21.78,50.9-44.35,75.28-67.37c34.35-32.44,69.31-64.28,105.62-94.53c38.88-32.39,83.53-58.39,131.77-74
			c53.95-17.46,153.38-27.51,206.22-8.61c67.06,23.99,102.05,83.03,130.02,68.33c15.64-8.21-56.57-79.67-68.28-86.37
			c-98.48-56.36-261.24-40.65-352.02,24.15c-33.4,23.84-66.3,48.37-99.08,73.06c-30.11,22.68-62.12,42.23-91.01,66.69
			c-46.56,39.41-93.92,81.66-135.41,126.31c-8.27,8.9-15.59,19.44-17.15,31.49c-2.29,17.77,10.12,27.74,23.37,36.54
			c50.11,33.28,103.6,46.31,162.37,56.72c78.9,13.98,161.76,17.83,242.11,6.91c80.64-10.96,156.92-29.82,210.31-95.14
			C818.46,292.91,835.51,250.22,832.3,205.74z"/>
		<rect x="0.54" y="27.96" style="clip-path:url(#SVGID_2_);fill:#54575C;" width="212.16" height="106.9"/>
		<g class="st0">
			<path class="st5" d="M226.39,205.46c0,0,1.43-4.7,23.35-4.04c4.94,0.15,12.26,3.24,15.5,3.61c23.34,2.67,10.63,5.71,45.59,1.3
				c14.19-1.79,24.16,2.09,34.21,2.08c18.15-0.01,32.63-2.25,44.83,0.66c18.96,4.52,35.83,3.59,50.6,3.51
				c14.76-0.08,42.69,16.9,58.4,13.6c0,0-1.44,6.49,1.13,10.76c2.57,4.27,6.21,15.66,2.27,17.66c-3.95,2-24.77-0.71-26.14,5.22
				c-1.37,5.94-4.75,24.33-14.87,28.73c-10.11,4.4-13.09,5.03-28.84,7.12c-15.76,2.08-13.08,0.09-24.97,6.2
				c-11.89,6.11-22-3.82-30.38-3.98c-8.37-0.15-7.17,4.3-15.45,3.6c-8.28-0.71-11.75-10.01-20.51-6.98s-8.06,4.96-24.1,3.65
				c-16.04-1.31-14.17-4.25-27.54-1.96s-10.87,10.03-28.16,5.83s-30.76-2.52-38.26-4.02c-7.5-1.49-14.1,5.14-7.5-9.68
				c6.6-14.82,15.35-28.31,8.82-36.25c-6.53-7.94-19.5-17.65-17.27-23.6c2.23-5.94,17.41-5.9,17.28-12.49
				S226.39,205.46,226.39,205.46z"/>
			<path class="st16" d="M221.16,203.25c0,0,1.43-4.7,23.35-4.04c4.94,0.15,12.26,3.24,15.5,3.61c23.34,2.67,10.63,5.71,45.59,1.3
				c14.19-1.79,24.16,2.09,34.21,2.08c18.15-0.01,32.63-2.25,44.83,0.66c18.96,4.52,35.83,3.59,50.6,3.51
				c14.76-0.08,42.69,16.9,58.4,13.6c0,0-1.44,6.49,1.13,10.76c2.57,4.27,6.21,15.66,2.27,17.66c-3.95,2-24.77-0.71-26.14,5.22
				s-4.75,24.33-14.87,28.73c-10.11,4.4-13.09,5.03-28.84,7.12c-15.76,2.08-13.08,0.09-24.97,6.2c-11.89,6.11-22-3.82-30.38-3.98
				s-7.17,4.3-15.45,3.6s-11.75-10.01-20.51-6.98s-8.06,4.96-24.1,3.65c-16.04-1.31-14.17-4.25-27.54-1.96s-10.87,10.03-28.16,5.83
				c-17.29-4.2-30.76-2.52-38.26-4.02c-7.5-1.49-14.1,5.14-7.5-9.68s15.35-28.31,8.82-36.25c-6.53-7.94-19.5-17.65-17.27-23.6
				c2.23-5.94,17.41-5.9,17.28-12.49C219.03,207.2,221.16,203.25,221.16,203.25z"/>
			<path class="st16" d="M221.16,203.25c0,0,1.43-4.7,23.35-4.04c4.94,0.15,12.26,3.24,15.5,3.61c23.34,2.67,10.63,5.71,45.59,1.3
				c14.19-1.79,24.16,2.09,34.21,2.08c18.15-0.01,32.63-2.25,44.83,0.66c18.96,4.52,35.83,3.59,50.6,3.51
				c14.76-0.08,42.69,16.9,58.4,13.6c0,0-1.44,6.49,1.13,10.76c2.57,4.27,6.21,15.66,2.27,17.66c-3.95,2-24.77-0.71-26.14,5.22
				s-4.75,24.33-14.87,28.73c-10.11,4.4-13.09,5.03-28.84,7.12c-15.76,2.08-13.08,0.09-24.97,6.2c-11.89,6.11-22-3.82-30.38-3.98
				s-7.17,4.3-15.45,3.6s-11.75-10.01-20.51-6.98s-8.06,4.96-24.1,3.65c-16.04-1.31-14.17-4.25-27.54-1.96s-10.87,10.03-28.16,5.83
				c-17.29-4.2-30.76-2.52-38.26-4.02c-7.5-1.49-14.1,5.14-7.5-9.68s15.35-28.31,8.82-36.25c-6.53-7.94-19.5-17.65-17.27-23.6
				c2.23-5.94,17.41-5.9,17.28-12.49C219.03,207.2,221.16,203.25,221.16,203.25z"/>
		</g>
		<g class="st0">
			<path class="st1" d="M281.81,246.97h5.32c3.27,0,5.49,2.05,5.49,5.2c0,3.1-2.31,5.27-5.46,5.27h-1.98v6.23h-3.36V246.97z
				 M286.68,254.54c1.48,0,2.48-0.95,2.48-2.36c0-1.38-1.03-2.29-2.43-2.29h-1.55v4.65H286.68z"/>
			<path class="st1" d="M294.67,257.4v-10.43h3.36v10.43c0,2.12,1.22,3.46,3.37,3.46s3.36-1.34,3.36-3.46v-10.43h3.37v10.43
				c0,3.94-2.41,6.59-6.73,6.59C297.08,263.99,294.67,261.34,294.67,257.4z"/>
			<path class="st1" d="M311.27,246.97h8.59V250h-5.23v3.72h4.49v2.98h-4.49v3.96h5.44v3.01h-8.81V246.97z"/>
			<path class="st1" d="M322.75,246.97h5.04c3.65,0,5.66,2.22,5.66,4.96c0,2.03-1,3.58-2.53,4.42l3.96,7.33h-3.72l-3.25-6.54h-1.79
				v6.54h-3.36V246.97z M327.69,254.3c1.22,0,2.29-0.76,2.29-2.24c0-1.34-0.93-2.17-2.46-2.17h-1.41v4.42H327.69z"/>
			<path class="st1" d="M339.05,250h-3.91v-3.03h11.17V250h-3.89v13.67h-3.37V250z"/>
			<path class="st1" d="M346.83,255.33c0-4.87,3.56-8.66,8.69-8.66s8.69,3.79,8.69,8.66c0,4.92-3.56,8.66-8.69,8.66
				S346.83,260.24,346.83,255.33z M350.34,255.33c0,3.2,2.17,5.51,5.18,5.51s5.18-2.32,5.18-5.51c0-3.15-2.17-5.51-5.18-5.51
				S350.34,252.18,350.34,255.33z"/>
			<path class="st1" d="M372.45,246.97h5.04c3.65,0,5.66,2.22,5.66,4.96c0,2.03-1,3.58-2.53,4.42l3.96,7.33h-3.72l-3.25-6.54h-1.79
				v6.54h-3.37V246.97z M377.39,254.3c1.22,0,2.29-0.76,2.29-2.24c0-1.34-0.93-2.17-2.46-2.17h-1.41v4.42H377.39z"/>
			<path class="st1" d="M386.41,246.97h3.37v16.71h-3.37V246.97z"/>
			<path class="st1" d="M392.09,255.33c0-4.92,3.67-8.66,8.71-8.66c2.22,0,3.89,0.74,4.96,1.53l-0.96,2.96
				c-0.81-0.57-2.31-1.34-4.01-1.34c-3.03,0-5.2,2.36-5.2,5.51c0,3.2,2.17,5.51,5.2,5.51c1.81,0,3.36-0.81,4.15-1.36l0.95,2.94
				c-1,0.74-2.67,1.58-5.11,1.58C395.58,263.99,392.09,260.24,392.09,255.33z"/>
			<path class="st1" d="M407.32,255.33c0-4.87,3.56-8.66,8.69-8.66s8.69,3.79,8.69,8.66c0,4.92-3.56,8.66-8.69,8.66
				S407.32,260.24,407.32,255.33z M410.83,255.33c0,3.2,2.17,5.51,5.18,5.51s5.18-2.32,5.18-5.51c0-3.15-2.17-5.51-5.18-5.51
				S410.83,252.18,410.83,255.33z"/>
		</g>
		<g class="st0">
			<path class="st1" d="M28.44,56.32h4.14v8.34h8.54v-8.34h4.14v20.55h-4.14v-8.48h-8.54v8.48h-4.14V56.32z"/>
			<path class="st1" d="M49.11,69.15V56.32h4.14v12.83c0,2.61,1.5,4.26,4.14,4.26c2.64,0,4.14-1.64,4.14-4.26V56.32h4.14v12.83
				c0,4.84-2.97,8.1-8.28,8.1C52.08,77.25,49.11,74,49.11,69.15z"/>
			<path class="st1" d="M69.52,56.32h6.19c4.49,0,6.96,2.73,6.96,6.11c0,2.5-1.23,4.4-3.11,5.43l4.87,9.01h-4.58l-3.99-8.04h-2.2
				v8.04h-4.14V56.32z M75.6,65.33c1.5,0,2.82-0.94,2.82-2.76c0-1.64-1.15-2.67-3.02-2.67h-1.73v5.43H75.6z"/>
			<path class="st1" d="M86.7,56.32h6.19c4.49,0,6.96,2.73,6.96,6.11c0,2.5-1.23,4.4-3.11,5.43l4.87,9.01h-4.58l-3.99-8.04h-2.2
				v8.04H86.7V56.32z M92.77,65.33c1.5,0,2.82-0.94,2.82-2.76c0-1.64-1.15-2.67-3.02-2.67h-1.73v5.43H92.77z"/>
			<path class="st1" d="M103.87,56.32h4.14v20.55h-4.14V56.32z"/>
			<path class="st1" d="M110.86,66.6c0-6.05,4.52-10.66,10.72-10.66c2.73,0,4.79,0.91,6.11,1.88l-1.17,3.64
				c-1-0.7-2.85-1.64-4.93-1.64c-3.73,0-6.4,2.91-6.4,6.78c0,3.93,2.67,6.78,6.4,6.78c2.23,0,4.14-1,5.11-1.67l1.17,3.61
				c-1.23,0.91-3.29,1.94-6.28,1.94C115.15,77.25,110.86,72.64,110.86,66.6z"/>
			<path class="st1" d="M134.91,71.59l-1.79,5.28h-4.17l7.28-20.55h4.34l7.28,20.55h-4.17l-1.79-5.28H134.91z M138.4,60.75
				l-2.38,7.4h4.79L138.4,60.75z"/>
			<path class="st1" d="M154.11,62.96v13.92h-4.08V56.32h4.2l8.78,14.03V56.32h4.08v20.55h-4.11L154.11,62.96z"/>
			<path class="st1" d="M171,56.32h10.57v3.73h-6.43v4.58h5.52v3.67h-5.52v4.87h6.69v3.7H171V56.32z"/>
			<path class="st1" d="M39.63,105.56l5.9-14h5.34v20.55h-3.96V97.43l-5.34,12.95h-3.85l-5.34-12.95v14.68h-3.96V91.56h5.34
				L39.63,105.56z"/>
			<path class="st1" d="M59.01,106.82l-1.79,5.28h-4.17l7.28-20.55h4.35l7.28,20.55h-4.17l-1.79-5.28H59.01z M62.5,95.99l-2.38,7.4
				h4.79L62.5,95.99z"/>
			<path class="st1" d="M74.16,91.56h6.19c4.49,0,6.96,2.73,6.96,6.11c0,2.5-1.23,4.4-3.11,5.43l4.87,9.01h-4.58l-3.99-8.04h-2.2
				v8.04h-4.14V91.56z M80.24,100.57c1.5,0,2.82-0.94,2.82-2.76c0-1.64-1.15-2.67-3.02-2.67H78.3v5.43H80.24z"/>
			<path class="st1" d="M91.34,91.56h4.14v20.55h-4.14V91.56z"/>
			<path class="st1" d="M103.64,106.82l-1.79,5.28h-4.17l7.28-20.55h4.34l7.28,20.55h-4.17l-1.79-5.28H103.64z M107.13,95.99
				l-2.38,7.4h4.79L107.13,95.99z"/>
		</g>
		<g class="st0">
			<circle class="st1" cx="351.05" cy="166.3" r="28.9"/>
			<g>
				<path class="st11" d="M353.47,128.43c-21.84,0-39.55,17.71-39.55,39.55c0,21.84,39.55,62.87,39.55,62.87
					s39.55-41.03,39.55-62.87C393.02,146.14,375.32,128.43,353.47,128.43z M353.47,196.48c-16.27,0-29.46-13.19-29.46-29.47
					c0-16.27,13.19-29.46,29.46-29.46c16.27,0,29.46,13.19,29.46,29.46C382.94,183.29,369.75,196.48,353.47,196.48z"/>
			</g>
			<g>
				<path class="st16" d="M352.15,127.91c-21.84,0-39.55,17.71-39.55,39.55c0,21.84,39.55,62.87,39.55,62.87
					s39.55-41.03,39.55-62.87C391.7,145.61,374,127.91,352.15,127.91z M352.15,195.95c-16.27,0-29.46-13.19-29.46-29.47
					c0-16.27,13.19-29.46,29.46-29.46c16.27,0,29.46,13.19,29.46,29.46C381.62,182.76,368.43,195.95,352.15,195.95z"/>
			</g>
		</g>
		<path style="clip-path:url(#SVGID_2_);fill:#F5C65D;" d="M902.07,355.46c0,0-152.11,110.23-256.15,138.76l112.98,2.91
			c0,0,55.92-27.83,72.34-39.18c23.89-16.52,88.92-72.34,88.92-72.34L902.07,355.46z"/>
		<path style="clip-path:url(#SVGID_2_);fill:#E0635D;" d="M926.06,353.91c-6.16,0-223.63,166.19-274.93,170.29
			c0,0,71.81,10.26,80.02,0s221.58-182.6,221.58-182.6L926.06,353.91z"/>
	</g>
</g>
</svg>
