<svg id="Layer_1" data-name="Layer 1" xmlns="http://www.w3.org/2000/svg" xmlns:xlink="http://www.w3.org/1999/xlink" viewBox="0 0 198.4252 198.4252"><defs><style>.cls-1,.cls-4{fill:none;}.cls-2{clip-path:url(#clip-path);}.cls-3{fill:#ddddde;}.cls-4{stroke:#55585c;stroke-miterlimit:10;stroke-width:0.65475px;}.cls-5{clip-path:url(#clip-path-2);}.cls-6{fill:#55585c;}.cls-7{fill:#fff;}.cls-8{fill:#e3b390;}.cls-9{fill:#418152;}</style><clipPath id="clip-path"><rect class="cls-1" x="-235.04169" y="73.19515" width="213.61993" height="124.82501"/></clipPath><clipPath id="clip-path-2"><rect class="cls-1" x="6.43991" y="62.70717" width="175.60459" height="135.76304"/></clipPath></defs><g class="cls-2"><path class="cls-3" d="M-.2876,167.20921C-1.87474,162.27586-10.466,157.14612-10.466,157.14612s-5.0672-5.17471-14.758-3.14588c0,0-11.4338-7.33758-21.7862-8.63441,0,0-.121-.05314-.34094-.15176-5.86326,21.1765-6.57038,34.17477-6.57038,34.17477s-1.67,5.43084,1.47357,8.22544,15.87628,15.67862,19.85657,17.13056c1.40043.51088.05812,2.40431,1.07494,3.948,1.87311,2.84377,6.35652,5.87228,12.65213,6.56675l22.223,7.196L11.54147,172.25S1.29951,172.14252-.2876,167.20921Z"/><path class="cls-4" d="M.22705,165.66616C-1.36009,160.73281-9.9514,155.60307-9.9514,155.60307s-5.0672-5.17471-14.758-3.14588c0,0-11.4338-7.33758-21.7862-8.63441,0,0-.121-.05314-.34094-.15176-5.86326,21.1765-6.57038,34.17477-6.57038,34.17477s-1.67,5.43084,1.47356,8.22544,15.87628,15.67862,19.85658,17.13056c1.40043.51088.05811,2.40431,1.07493,3.94805,1.87311,2.84377,6.35653,5.87228,12.65213,6.56675l22.223,7.196L12.05612,170.707S1.81416,170.59947.22705,165.66616Z"/></g><g class="cls-5"><path class="cls-6" d="M161.34245,196.68636,103.78115,82.063a9.0148,9.0148,0,0,0-12.10161-4.01043L14.378,116.87174a9.01471,9.01471,0,0,0-4.01044,12.10155l57.5613,114.62334a9.01481,9.01481,0,0,0,12.10161,4.01042L157.332,208.7879A9.01473,9.01473,0,0,0,161.34245,196.68636ZM75.17717,242.85721l-59.84861-119.178,81.46494-40.91,59.84862,119.178Z"/><rect class="cls-4" x="40.4053" y="96.13259" width="91.16008" height="133.36135" transform="translate(-63.92098 55.90333) rotate(-26.66482)"/><path class="cls-7" d="M113.58954,147.82629c4.66386,1.636,12.00369,4.55524,12.00369,4.55524l.83287-2.247s-6.24329-7.66384-14.52648-7.9665a20.50225,20.50225,0,0,0-4.6799.2717C109.26616,144.71767,111.30831,147.02609,113.58954,147.82629Z"/><path class="cls-7" d="M143.72226,124.87084c-1.67842-2.66871-14.61471-10.5123-20.50406-13.995a6.93981,6.93981,0,0,0-6.06139-.49669c-5.22387,2.0341-15.15173,6.10476-15.74193,7.88073-.80315,2.41693-6.86628,13.80878-6.86628,13.80878-.285,3.37694,4.89327,1.94613,4.89327,1.94613l-.0238.232,44.72628-8.73242C143.98674,125.279,143.83857,125.05577,143.72226,124.87084Z"/><path class="cls-7" d="M93.5217,156.23861c1.36966,2.09959,3.77093,1.18473,5.33724.24083a3.62783,3.62783,0,0,0,1.7069-2.6976l.09279-.79366a59.64913,59.64913,0,0,0-6.28176-8.56293C93.41952,147.78154,91.99272,153.89469,93.5217,156.23861Z"/><path class="cls-7" d="M103.402,157.66289c-.18385-.354-.4343-.8089-.72851-1.32543.16639,3.35672.88821,7.66868,3.527,7.31523a5.01571,5.01571,0,0,0,3.39832-2.22413C106.725,160.28616,104.06335,158.93649,103.402,157.66289Z"/><path class="cls-7" d="M172.77744,119.924l-28.63309,5.59037-44.72628,8.73242-7.60291,1.48441a8.50944,8.50944,0,0,0-2.029.66927c-1.83844.87535-5.8993,2.799-8.68913,4.047a.98135.98135,0,0,0,.11635,1.85993l7.52095,1.50639a15.04174,15.04174,0,0,0,3.97156.02871l.94824-.11931c-.37848-.33993-.99158-.44363-1.061-.80585-.62808-3.27822,2.0702-5.90309,6.54038-5.9a6.15279,6.15279,0,0,1,1.38256.13672c2.20337.50924,4.17362,2.49624,6.11941,4.64033l42.911-8.1369,23.64653-4.484s7.14482-.19869,6.22374-5.46609S172.77744,119.924,172.77744,119.924Z"/><path class="cls-7" d="M191.76422,228.36667l-8.79488-18.24977s-10.22562-23.42806-18.80321-46.44381a164.43859,164.43859,0,0,0-14.61959-30.01561l-42.911,8.1369c-1.94579-2.14409-3.916-4.13109-6.11941-4.64033a6.15279,6.15279,0,0,0-1.38256-.13672c-4.47018-.00307-7.24685,2.56675-6.54038,5.9.07647.3608.6825.46592,1.061.80585q.34943.31383.72271.70205a59.64913,59.64913,0,0,1,6.28176,8.56293c.7872,1.252,1.48133,2.41271,2.01484,3.34928.29421.51653.54466.97142.72851,1.32543.66137,1.2736,3.32306,2.62327,6.19682,3.76567,2.45782.97711,5.07011,1.8031,6.72517,2.29453a3.48337,3.48337,0,0,1,2.25967,2.04183c4.61479,11.65064,18.52472,20.1166,23.33656,21.29056,5.02337,1.22557,10.65561,29.99679,12.48521,33.58423l1.79516,14.64619Zm-66.171-75.98514s-7.33983-2.9192-12.00369-4.55524c-2.28123-.8002-4.32338-3.10862-6.36982-5.38657a20.50225,20.50225,0,0,1,4.6799-.2717c8.28319.30266,14.52648,7.9665,14.52648,7.9665Z"/><path class="cls-1" d="M114.53,148.1075c4.66387,1.636,12.0037,4.55524,12.0037,4.55524l.83287-2.247s-6.2433-7.66383-14.52648-7.9665a20.50273,20.50273,0,0,0-4.6799.27171C110.20667,144.99888,112.24882,147.3073,114.53,148.1075Z"/><path class="cls-8" d="M144.66277,125.15205c-1.67842-2.66871-14.61471-10.5123-20.50406-13.995a6.93981,6.93981,0,0,0-6.06139-.49669c-5.22387,2.0341-15.15173,6.10476-15.74193,7.88073-.80316,2.41692-6.86628,13.80878-6.86628,13.80878-.285,3.37693,4.89327,1.94613,4.89327,1.94613l-.02381.232,44.72629-8.73243C144.92725,125.56016,144.77908,125.337,144.66277,125.15205Z"/><path class="cls-8" d="M94.46221,156.51981c1.36966,2.09959,3.77093,1.18473,5.33724.24084a3.62783,3.62783,0,0,0,1.70689-2.6976l.09279-.79367a59.649,59.649,0,0,0-6.28175-8.56292C94.36,148.06274,92.93323,154.1759,94.46221,156.51981Z"/><path class="cls-8" d="M104.34249,157.94409c-.18385-.354-.4343-.8089-.72851-1.32543.16639,3.35673.88821,7.66868,3.527,7.31523a5.01562,5.01562,0,0,0,3.39831-2.22412C107.66555,160.56736,105.00385,159.21769,104.34249,157.94409Z"/><path class="cls-9" d="M173.718,120.20521l-28.63309,5.59036L100.35857,134.528l-7.6029,1.4844a8.50974,8.50974,0,0,0-2.029.66927c-1.83845.87536-5.8993,2.799-8.68914,4.047a.98135.98135,0,0,0,.11636,1.85993l7.52095,1.50638a15.04124,15.04124,0,0,0,3.97155.02871l.94824-.11931c-.37847-.33993-.99158-.44362-1.061-.80585-.62807-3.27821,2.07021-5.90309,6.54039-5.9a6.15285,6.15285,0,0,1,1.38256.13673c2.20337.50924,4.17362,2.49623,6.1194,4.64033l42.911-8.13691,23.64653-4.484s7.14482-.19869,6.22374-5.4661S173.718,120.20521,173.718,120.20521Z"/><path class="cls-8" d="M192.70473,228.64787l-8.79488-18.24977S173.68423,186.97,165.10664,163.95429a164.43859,164.43859,0,0,0-14.61959-30.01561l-42.911,8.13691c-1.94578-2.1441-3.916-4.13109-6.1194-4.64033a6.15285,6.15285,0,0,0-1.38256-.13673c-4.47018-.00307-7.24685,2.56675-6.54039,5.9.07647.3608.68251.46592,1.061.80585q.34944.31384.72272.70206a59.649,59.649,0,0,1,6.28175,8.56292c.78721,1.252,1.48134,2.41271,2.01485,3.34928.29421.51653.54466.97143.72851,1.32543.66136,1.2736,3.32306,2.62327,6.19681,3.76568,2.45783.97711,5.07012,1.8031,6.72518,2.29452a3.48336,3.48336,0,0,1,2.25967,2.04184c4.61478,11.65064,18.52472,20.1166,23.33655,21.29056,5.02338,1.22557,10.65562,29.99678,12.48522,33.58422l1.79516,14.64619Zm-66.171-75.98513s-7.33983-2.91921-12.0037-4.55524c-2.28122-.8002-4.32337-3.10862-6.36981-5.38657a20.50273,20.50273,0,0,1,4.6799-.27171c8.28318.30267,14.52648,7.9665,14.52648,7.9665Z"/><path class="cls-1" d="M113.15709,147.90191c4.66387,1.636,12.0037,4.55524,12.0037,4.55524l.83287-2.247s-6.2433-7.66384-14.52648-7.9665a20.50221,20.50221,0,0,0-4.6799.2717C108.83372,144.79329,110.87587,147.10171,113.15709,147.90191Z"/><path class="cls-4" d="M143.28982,124.94646c-1.67842-2.66871-14.61472-10.5123-20.50406-13.995a6.93981,6.93981,0,0,0-6.06139-.49669c-5.22387,2.0341-15.15173,6.10476-15.74193,7.88073-.80316,2.41693-6.86628,13.80878-6.86628,13.80878-.285,3.37694,4.89327,1.94613,4.89327,1.94613l-.02381.232L143.71191,125.59C143.5543,125.35457,143.40613,125.13139,143.28982,124.94646Z"/><path class="cls-4" d="M93.08925,156.31423c1.36967,2.09959,3.77094,1.18473,5.33725.24083a3.62779,3.62779,0,0,0,1.70689-2.6976l.09279-.79366a59.64911,59.64911,0,0,0-6.28175-8.56293C92.98708,147.85715,91.56028,153.97031,93.08925,156.31423Z"/><path class="cls-4" d="M102.96953,157.73851c-.18384-.354-.43429-.8089-.72851-1.32544.1664,3.35673.88822,7.66869,3.527,7.31524a5.01567,5.01567,0,0,0,3.39831-2.22413C106.2926,160.36178,103.6309,159.01211,102.96953,157.73851Z"/><path class="cls-4" d="M172.345,119.99962,143.71191,125.59l-44.72629,8.73242-7.60291,1.48441a8.50958,8.50958,0,0,0-2.029.66927c-1.83844.87535-5.8993,2.799-8.68913,4.047A.98135.98135,0,0,0,80.781,142.383l7.52095,1.50639a15.04209,15.04209,0,0,0,3.97155.02871l.94824-.11931c-.37847-.33993-.99158-.44363-1.061-.80585-.62807-3.27822,2.07021-5.90309,6.54038-5.9a6.15352,6.15352,0,0,1,1.38257.13673c2.20337.50924,4.17361,2.49624,6.1194,4.64033l42.911-8.1369,23.64652-4.484s7.14483-.19869,6.22375-5.46609S172.345,119.99962,172.345,119.99962Z"/><path class="cls-4" d="M191.33178,228.44229l-8.79488-18.24977s-10.22562-23.42806-18.80322-46.44381A164.43769,164.43769,0,0,0,149.1141,133.7331l-42.911,8.1369c-1.94579-2.14409-3.916-4.13109-6.1194-4.64033a6.15352,6.15352,0,0,0-1.38257-.13673c-4.47017-.00306-7.24684,2.56676-6.54038,5.9.07647.3608.68251.46592,1.061.80585q.34944.31383.72272.702a59.64911,59.64911,0,0,1,6.28175,8.56293c.78721,1.252,1.48134,2.41271,2.01484,3.34927.29422.51654.54467.97143.72851,1.32544.66137,1.2736,3.32307,2.62327,6.19682,3.76567,2.45783.97711,5.07012,1.8031,6.72518,2.29453a3.48337,3.48337,0,0,1,2.25967,2.04183c4.61478,11.65064,18.52472,20.1166,23.33655,21.29056,5.02338,1.22557,10.65562,29.99679,12.48522,33.58422l1.79516,14.6462Zm-66.171-75.98514s-7.33983-2.9192-12.0037-4.55524c-2.28122-.8002-4.32337-3.10862-6.36981-5.38657a20.50221,20.50221,0,0,1,4.6799-.2717c8.28318.30266,14.52648,7.9665,14.52648,7.9665Z"/><path class="cls-4" d="M98.98562,134.32241s7.91314-2.1172,8.65368-8.21837a.736.736,0,0,1,.69134-.67047c1.686-.0675,6.28286-.44473,8.70454-2.54115l8.89127,6.04844"/><line class="cls-4" x1="125.50988" y1="151.59294" x2="136.02167" y2="138.58038"/><path class="cls-4" d="M130.18029,145.36184c.0336-.46668,3.49395-6.371,1.16363-8.49789"/><path class="cls-4" d="M130.18029,145.36184c-.598-.12583-9.22966-4.03087-9.84416-6.22742"/><path class="cls-4" d="M116.221,130.75321c-.57846-.014-2.25764-2.37-9.127,1.82639"/><path class="cls-4" d="M125.16079,152.45715s1.19265,1.98348,10.98489-.65043"/><path class="cls-4" d="M95.27965,133.66892s4.67993-5.92137,4.20479-7.47125a1.90313,1.90313,0,0,0-1.69815-1.54013"/><path class="cls-4" d="M97.21376,148.2315a3.21688,3.21688,0,0,0,2.58025-3.92124c-.58879-3.36709-4.04776-6.845-4.04776-6.845"/><path class="cls-4" d="M121.67522,203.20563s-47.90675,29.32355-45.88162,2.67506,11.36874-49.67438-15.96032-55.59151-9.64851-42.43387,10.51331-39.27445,9.23969,27.35268,9.23969,27.35268"/></g></svg>