<svg id="Layer_1" data-name="Layer 1" xmlns="http://www.w3.org/2000/svg" xmlns:xlink="http://www.w3.org/1999/xlink" viewBox="0 0 198.4252 198.4252"><defs><style>.cls-1,.cls-4{fill:none;}.cls-2{clip-path:url(#clip-path);}.cls-3,.cls-6{fill:#fff;}.cls-3,.cls-4{stroke:#55585c;stroke-miterlimit:10;}.cls-3{stroke-width:0.64178px;}.cls-4{stroke-width:0.65475px;}.cls-5{fill:#ddddde;}.cls-7{fill:#a05d38;}.cls-8{fill:#1d5392;}</style><clipPath id="clip-path"><rect class="cls-1" x="-16.6165" y="73.19515" width="213.61993" height="124.82501"/></clipPath></defs><g class="cls-2"><path class="cls-3" d="M142.9803,221.62049c-.59905.46327-129.59045-50.7705-129.59045-50.7705L69.01554,93.87482l112.3959,40.65887S152.20623,214.48572,142.9803,221.62049Z"/><path class="cls-3" d="M144.62673,220.90356c-.59905.46327-129.59046-50.7705-129.59046-50.7705L70.662,93.15789l112.3959,40.65886S153.85266,213.76878,144.62673,220.90356Z"/><path class="cls-3" d="M146.27316,220.18662c-.599.46327-129.59046-50.7705-129.59046-50.7705L72.3084,92.441l112.39589,40.65887S155.49909,213.05185,146.27316,220.18662Z"/><path class="cls-3" d="M145.8616,218.58c-.599.46327-129.59045-50.7705-129.59045-50.7705L71.89684,90.83436l112.3959,40.65887S155.08753,211.44526,145.8616,218.58Z"/><path class="cls-4" d="M84.51264,100.75587s-5.02072,9.2126-18.549,21.24576c-15.82018,14.07177-27.62456,44.086-32.3,44.19321"/><path class="cls-4" d="M92.42236,106.09067s-9.02909,5.99346-18.39817,19.83033c-11.24166,16.60241-24.98538,43.35547-29.6608,43.46263"/><path class="cls-4" d="M88.51018,130.32091c-14.92844,10.24463-24.98538,43.35547-29.6608,43.46263"/><path class="cls-5" d="M218.1376,167.20921c-1.58714-4.93335-10.17845-10.06309-10.17845-10.06309s-5.0672-5.17471-14.758-3.14588c0,0-11.4338-7.33758-21.7862-8.63441,0,0-.121-.05314-.34094-.15176-5.86326,21.1765-6.57038,34.17477-6.57038,34.17477s-1.67,5.43084,1.47356,8.22544,15.87628,15.67862,19.85658,17.13056c1.40043.51088.05812,2.40431,1.07493,3.948,1.87311,2.84377,6.35653,5.87228,12.65213,6.56675l22.223,7.196L229.96667,172.25S219.72471,172.14252,218.1376,167.20921Z"/><path class="cls-6" d="M171.7216,143.85778c-2.96692-1.3303-24.63847-11.25749-29.89008-19.7044-5.6409-9.0731-15.258-15.55179-20.18109-15.14557-8.76451.72324-15.76989.85373-15.76989.85373s-.19582.02529-.53151.06647c-2.50554,3.709-4.46883,6.5043-4.46883,6.5043s-.127.827-5.2958.06931c0,0,1.88414-2.55174,4.442-6.01311a37.48089,37.48089,0,0,1-6.84281.1704c-2.99373-.45979-9.02912-2.44342-9.80707-1.50619s-1.30115,4.34384.04124,5.92368c0,0-3.70757,2.812-3.667,5.9882a9.92679,9.92679,0,0,0,1.80393,5.45478s-2.24679,1.55691-2.603,5.94027c-.3562,4.38331,2.57412,5.256,2.57412,5.256s.35961,4.1898.92368,5.3331,7.23414,5.53554,7.23414,5.53554.21531,3.41445,5.38573,7.58989,16.13,9.874,26.72314,11.07824,29.43639,1.66785,37.78344,7.17652l5.57524,3.6036S165.85834,165.03428,171.7216,143.85778Z"/><path class="cls-6" d="M116.38827,92.00821A1.5718,1.5718,0,0,0,113.879,91.811c-.14677.14026-8.48495,11.41412-13.85259,18.67754-2.55791,3.46137-4.442,6.01311-4.442,6.01311,5.16879.75769,5.2958-.06931,5.2958-.06931s1.96329-2.79532,4.46883-6.5043c.49337-.73035,1.00578-1.49277,1.53055-2.28.95365-1.43047,1.94123-2.93115,2.8979-4.41609C113.70843,97.13024,116.7489,92.722,116.38827,92.00821Z"/><path class="cls-7" d="M171.13994,144.78493c-2.96692-1.33031-24.63848-11.2575-29.89008-19.70441-5.64091-9.0731-15.258-15.55179-20.18109-15.14557-8.76451.72324-15.7699.85373-15.7699.85373s-.19581.02529-.5315.06647c-2.50555,3.709-4.46883,6.5043-4.46883,6.5043s-.127.827-5.29581.06931c0,0,1.88415-2.55174,4.44206-6.01311a37.4809,37.4809,0,0,1-6.84281.1704c-2.99373-.45978-9.02913-2.44342-9.80708-1.50619s-1.30114,4.34384.04125,5.92368c0,0-3.70757,2.812-3.667,5.9882a9.9268,9.9268,0,0,0,1.80394,5.45478s-2.2468,1.55692-2.603,5.94027,2.57412,5.256,2.57412,5.256.35961,4.1898.92368,5.3331,7.23414,5.53554,7.23414,5.53554.21531,3.41446,5.38573,7.58989,16.13,9.874,26.72314,11.07824,29.43638,1.66786,37.78343,7.17652l5.57525,3.6036S165.27668,165.96142,171.13994,144.78493Z"/><path class="cls-8" d="M115.80661,92.93536a1.57181,1.57181,0,0,0-2.50923-.19725c-.14677.14026-8.48495,11.41412-13.85259,18.67754-2.55791,3.46137-4.44206,6.01311-4.44206,6.01311,5.16879.75769,5.29581-.06931,5.29581-.06931s1.96328-2.79532,4.46883-6.5043c.49337-.73035,1.00578-1.49277,1.53055-2.28.95365-1.43048,1.94123-2.93116,2.89789-4.41609C113.12677,98.05738,116.16724,93.64916,115.80661,92.93536Z"/><path class="cls-4" d="M218.65225,165.66616c-1.58715-4.93335-10.17846-10.06309-10.17846-10.06309s-5.0672-5.17471-14.758-3.14588c0,0-11.4338-7.33758-21.78621-8.63441,0,0-.121-.05314-.34093-.15176-5.86327,21.1765-6.57038,34.17477-6.57038,34.17477s-1.67005,5.43084,1.47356,8.22544,15.87628,15.67862,19.85658,17.13056c1.40042.51088.05811,2.40431,1.07493,3.94805,1.87311,2.84377,6.35652,5.87228,12.65213,6.56675l22.223,7.196,8.18283-50.20561S220.23936,170.59947,218.65225,165.66616Z"/><path class="cls-4" d="M171.58868,143.671c-2.96692-1.3303-24.63848-11.25749-29.89008-19.7044-5.64091-9.0731-15.258-15.55179-20.18109-15.14557-8.76451.72324-15.7699.85373-15.7699.85373s-.19581.02529-.53151.06647c-2.50554,3.709-4.46883,6.5043-4.46883,6.5043s-.127.827-5.2958.06931c0,0,1.88415-2.55174,4.44206-6.01311a37.4809,37.4809,0,0,1-6.84281.1704c-2.99374-.45979-9.02913-2.44342-9.80708-1.50619s-1.30114,4.34384.04124,5.92368c0,0-3.70756,2.812-3.667,5.9882a9.92684,9.92684,0,0,0,1.80394,5.45478s-2.2468,1.55691-2.603,5.94027,2.57412,5.256,2.57412,5.256.35961,4.1898.92369,5.3331,7.23414,5.53554,7.23414,5.53554.2153,3.41445,5.38572,7.58989,16.13,9.874,26.72315,11.07824,29.43638,1.66785,37.78343,7.17652l5.57525,3.6036S165.72541,164.84752,171.58868,143.671Z"/><path class="cls-4" d="M116.25535,91.82145a1.57181,1.57181,0,0,0-2.50923-.19724c-.14678.14026-8.48495,11.41412-13.85259,18.67754-2.55791,3.46137-4.44206,6.01311-4.44206,6.01311,5.16879.75769,5.2958-.06931,5.2958-.06931s1.96329-2.79532,4.46883-6.5043c.49338-.73035,1.00578-1.49277,1.53056-2.28.95365-1.43047,1.94123-2.93115,2.89789-4.41609C113.57551,96.94348,116.616,92.53526,116.25535,91.82145Z"/><path class="cls-4" d="M83.28488,114.88964s6.55463-.86556,12.16659,1.42522"/><path class="cls-4" d="M100.74727,116.24555s7.23373-1.66542,11.4943-1.01107l9.46794,1.4541"/><path class="cls-4" d="M81.4218,126.33262a78.62444,78.62444,0,0,0,20.44545,2.81458"/><path class="cls-4" d="M81.39292,137.5289s4.601,3.47507,13.741,3.90967"/><path class="cls-4" d="M89.55075,148.39754s8.99065,3.98248,12.57748,4.29107"/><path class="cls-4" d="M93.05072,110.47215s1.004,1.70215-3.767,1.84426-6.30252-2.09277-6.30252-2.09277l.26247-1.25768,2.07576-.13293Z"/></g></svg>