<?xml version="1.0" encoding="utf-8"?>
<!-- Generator: Adobe Illustrator 23.0.6, SVG Export Plug-In . SVG Version: 6.00 Build 0)  -->
<svg version="1.1" id="Layer_1" xmlns="http://www.w3.org/2000/svg" xmlns:xlink="http://www.w3.org/1999/xlink" x="0px" y="0px"
	 viewBox="0 0 841.9 467.7" style="enable-background:new 0 0 841.9 467.7;" xml:space="preserve">
<style type="text/css">
	.st0{clip-path:url(#SVGID_2_);fill:#235485;}
	.st1{clip-path:url(#SVGID_4_);}
	.st2{fill:#F4F4F5;}
	.st3{fill:none;stroke:#54575C;stroke-width:0.746;stroke-miterlimit:10;}
	.st4{fill:none;stroke:#54575C;stroke-width:0.5989;stroke-miterlimit:10;}
	.st5{clip-path:url(#SVGID_6_);}
	.st6{clip-path:url(#SVGID_8_);}
	.st7{fill:#4890BA;}
	.st8{font-family:'Arimo';}
	.st9{font-size:76.9408px;}
	.st10{clip-path:url(#SVGID_10_);}
	.st11{fill:#FFFFFF;}
	.st12{fill:none;stroke:#54575C;stroke-width:0.6507;stroke-miterlimit:10;}
	.st13{enable-background:new    ;}
	.st14{fill:#4890BA;stroke:#F4F4F5;stroke-width:0.417;stroke-miterlimit:10;}
	.st15{fill:#61A575;}
	.st16{clip-path:url(#SVGID_12_);}
	.st17{fill:#DCEFFA;}
	.st18{fill:#F4F4F5;stroke:#F4F4F5;stroke-width:0.417;stroke-miterlimit:10;}
	.st19{clip-path:url(#SVGID_14_);}
	.st20{fill:#E69647;}
	.st21{fill:none;stroke:#54575C;stroke-width:0.6728;stroke-miterlimit:10;}
	.st22{clip-path:url(#SVGID_16_);}
	.st23{fill:#F5C65D;}
	.st24{fill:#D16F46;}
	.st25{fill:none;}
	.st26{fill:none;stroke:#54575C;stroke-width:0.6705;stroke-miterlimit:10;}
	.st27{clip-path:url(#SVGID_18_);}
	.st28{fill:#F5AE97;}
	.st29{fill:none;stroke:#54575C;stroke-width:0.7741;stroke-miterlimit:10;}
	.st30{clip-path:url(#SVGID_20_);}
	.st31{fill:none;stroke:#54575C;stroke-width:0.7668;stroke-miterlimit:10;}
	.st32{clip-path:url(#SVGID_22_);}
	.st33{fill:#F9CDC4;}
	.st34{fill:#E0635D;}
	.st35{fill:none;stroke:#54575C;stroke-width:0.6026;stroke-miterlimit:10;}
	.st36{clip-path:url(#SVGID_24_);}
	.st37{fill:#C47C59;}
	.st38{clip-path:url(#SVGID_26_);fill:#E0635D;}
	.st39{clip-path:url(#SVGID_28_);fill:#F5C65D;}
	.st40{clip-path:url(#SVGID_30_);fill:#F5C65D;}
	.st41{clip-path:url(#SVGID_32_);fill:#F5C65D;}
	.st42{clip-path:url(#SVGID_34_);fill:#F5C65D;}
	.st43{clip-path:url(#SVGID_36_);fill:#F5C65D;}
	.st44{clip-path:url(#SVGID_38_);}
	.st45{fill:#93482D;}
	.st46{fill:none;stroke:#54575C;stroke-width:0.8089;stroke-miterlimit:10;}
</style>
<g>
	<g>
		<defs>
			<rect id="SVGID_1_" x="0.1" y="-0.2" width="841.7" height="468"/>
		</defs>
		<clipPath id="SVGID_2_">
			<use xlink:href="#SVGID_1_"  style="overflow:visible;"/>
		</clipPath>
		<rect x="0.1" y="-4.3" class="st0" width="841.7" height="472.7"/>
	</g>
	<g>
		<defs>
			<rect id="SVGID_3_" x="0.1" y="-0.2" width="841.7" height="468"/>
		</defs>
		<clipPath id="SVGID_4_">
			<use xlink:href="#SVGID_3_"  style="overflow:visible;"/>
		</clipPath>
		<g class="st1">
			<path class="st2" d="M147.6,106.2l-1.1,326c0,4,3.2,7.3,7.2,7.3l404.6,1.3c4,0,7.3-3.2,7.3-7.2l1-326c0-4-3.2-7.3-7.2-7.3
				l-404.6-1.3C150.8,98.9,147.6,102.2,147.6,106.2z"/>
			<g>
				<path class="st3" d="M150.4,105.6l-1,321.5c0,5.3,4.2,9.6,9.5,9.6l400.1,1.3c5.3,0,9.6-4.2,9.6-9.5l1-321.5
					c0-5.3-4.2-9.6-9.5-9.6L160,96.1C154.7,96.1,150.4,100.3,150.4,105.6z"/>
				<line class="st3" x1="569" y1="115.7" x2="151.1" y2="115"/>
				<g>
					<circle class="st4" cx="521.9" cy="106.9" r="4.6"/>
					<circle class="st4" cx="538.6" cy="107.1" r="4.6"/>
					<circle class="st4" cx="555.3" cy="107.4" r="4.6"/>
				</g>
			</g>
		</g>
	</g>
	<g>
		<defs>
			<rect id="SVGID_5_" x="0.1" y="-0.2" width="841.7" height="468"/>
		</defs>
		<clipPath id="SVGID_6_">
			<use xlink:href="#SVGID_5_"  style="overflow:visible;"/>
		</clipPath>
		<g class="st5">
			<path class="st2" d="M271.3,37.4l-1,326c0,4,3.2,7.3,7.2,7.3l404.6,1.3c4,0,7.3-3.2,7.3-7.2l1-326c0-4-3.2-7.3-7.2-7.3
				l-404.6-1.3C274.6,30.1,271.4,33.4,271.3,37.4z"/>
			<g>
				<path class="st3" d="M274.1,36.8l-1,321.5c0,5.3,4.2,9.6,9.5,9.6l400.1,1.3c5.3,0,9.6-4.2,9.6-9.5l1-321.5
					c0-5.3-4.2-9.6-9.5-9.6l-400.1-1.3C278.5,27.3,274.2,31.5,274.1,36.8z"/>
				<line class="st3" x1="692.8" y1="46.9" x2="274.9" y2="46.2"/>
				<g>
					<circle class="st4" cx="288" cy="38.1" r="4.6"/>
					<circle class="st4" cx="304.7" cy="38.3" r="4.6"/>
					<circle class="st4" cx="321.4" cy="38.6" r="4.6"/>
				</g>
			</g>
		</g>
	</g>
	<g>
		<defs>
			<rect id="SVGID_7_" x="0.1" y="-0.2" width="841.7" height="468"/>
		</defs>
		<clipPath id="SVGID_8_">
			<use xlink:href="#SVGID_7_"  style="overflow:visible;"/>
		</clipPath>
		<g class="st6">
			<text transform="matrix(1 0 0 1 243.6191 148.8604)" class="st7 st8 st9">API</text>
			<path class="st7" d="M220.1,123.5c4.3,2.9,5.5,7.1,5.6,11.8c0,5.7-0.1,11.5-0.2,17.2c0,0.8,0,1.7,0,2.5c0,6.6,1.2,9.3,8,9.1
				c0,1.4-0.1,3.1-0.1,4.5c-8.1,0.6-13-3.9-13-12c0-6.6,0.2-13.2,0.2-19.8c0-1.5-0.1-3.1-0.3-4.6c-0.7-4.4-2.3-6-6.7-7
				c0-1.3,0-2.8,0.1-4.1c5.9-0.7,6.9-4.8,7.4-10.2c0.2-6.4,0.2-12.9,0.3-19.3c0-1.1,0-2.2,0.2-3.2c1.1-7.2,5.6-10.7,13.2-10
				c0,1.3-0.1,3.8-0.1,3.8s0,0.6,0,0.7c-0.1,0-0.4,0-0.4,0c-5.8,0.1-7.5,2.1-7.7,7.8c-0.2,6-0.3,12.1-0.3,18.1
				C226.1,114.7,225.3,120,220.1,123.5z"/>
			<path class="st7" d="M394.9,123.5c-4.3,2.9-5.5,7.1-5.6,11.8c0,5.7,0.1,11.5,0.2,17.2c0,0.8,0,1.7,0,2.5c0,6.6-1.2,9.3-8,9.1
				c0,1.4,0,3.1,0.1,4.5c8,0.6,13-3.9,13-12c0-6.6-0.2-13.2-0.2-19.8c0-1.5,0.1-3.1,0.3-4.6c0.7-4.4,2.3-6,6.7-7
				c0-1.3,0-2.8-0.1-4.1c-5.9-0.7-6.9-4.8-7.4-10.2c-0.2-6.4-0.2-12.9-0.3-19.3c0-1.1,0-2.2-0.2-3.2c-1.1-7.2-5.6-10.7-13.2-10
				c0,1.3,0.1,3.8,0.1,3.8s0,0.6,0,0.7c0.1,0,0.4,0,0.4,0c5.8,0.1,7.5,2.1,7.7,7.8c0.2,6,0.3,12.1,0.3,18.1
				C388.9,114.7,389.7,120,394.9,123.5z"/>
		</g>
	</g>
	<g>
		<defs>
			<rect id="SVGID_9_" x="0.1" y="-0.2" width="841.7" height="468"/>
		</defs>
		<clipPath id="SVGID_10_">
			<use xlink:href="#SVGID_9_"  style="overflow:visible;"/>
		</clipPath>
		<g class="st10">
			<g>
				<path class="st11" d="M197.2,61.9l-0.4,344.4c0,4.2,3.4,7.7,7.7,7.7l427.4,0.4c4.2,0,7.7-3.4,7.7-7.7L640,62.3
					c0-4.2-3.4-7.7-7.7-7.7l-427.4-0.4C200.7,54.2,197.2,57.6,197.2,61.9z"/>
				<g>
					<path class="st12" d="M202.2,62l-0.4,339.6c0,5.6,4.5,10.1,10.1,10.1l422.6,0.4c5.6,0,10.1-4.5,10.1-10.1L645,62.5
						c0-5.6-4.5-10.1-10.1-10.1l-422.6-0.4C206.7,51.9,202.2,56.5,202.2,62z"/>
					<line class="st12" x1="644.4" y1="71.7" x2="203" y2="71.9"/>
					<g>
						<circle class="st12" cx="220.3" cy="62.1" r="4.1"/>
						<circle class="st12" cx="235.2" cy="62.3" r="4.1"/>
						<circle class="st12" cx="250.2" cy="62.5" r="4.1"/>
					</g>
				</g>
			</g>
			<g>
				<g>
					<g class="st13">
						<path class="st14" d="M279,143.6l-4.3,12.7h-10.1l17.6-49.6h10.5l17.6,49.6h-10.1l-4.3-12.7H279z M287.4,117.5l-5.7,17.8h11.5
							L287.4,117.5z"/>
						<path class="st14" d="M315.5,106.8h15.8c9.7,0,16.3,6.1,16.3,15.4c0,9.2-6.9,15.7-16.2,15.7h-5.9v18.5h-10V106.8z M330,129.2
							c4.4,0,7.4-2.8,7.4-7c0-4.1-3-6.8-7.2-6.8h-4.6v13.8H330z"/>
						<path class="st14" d="M353.9,106.8h10v49.6h-10V106.8z"/>
					</g>
					<g>
						<path class="st14" d="M238.5,133.4c4,2.7,5.1,6.6,5.1,10.9c0,5.3-0.1,10.6-0.2,15.9c0,0.8,0,1.6,0,2.3c0,6,1.1,8.5,7.4,8.4
							c0,1.3,0,2.9-0.1,4.2c-7.4,0.6-11.9-3.6-12-11c0-6.1,0.2-12.1,0.2-18.2c0-1.4-0.1-2.8-0.3-4.2c-0.6-4.1-2.1-5.5-6.2-6.4
							c0-1.2,0-2.5,0.1-3.8c5.4-0.7,6.3-4.4,6.8-9.4c0.2-5.9,0.2-11.8,0.3-17.8c0-1,0-2,0.1-2.9c1-6.7,5.1-9.8,12.2-9.2
							c0,1.2-0.1,3.5-0.1,3.5s0,0.6,0,0.7c-0.1,0-0.4,0-0.4,0c-5.3,0.1-6.9,1.9-7.1,7.1c-0.2,5.6-0.3,11.1-0.3,16.7
							C244,125.3,243.2,130.2,238.5,133.4z"/>
						<path class="st14" d="M399.3,133.4c-4,2.7-5.1,6.6-5.1,10.9c0,5.3,0.1,10.6,0.2,15.9c0,0.8,0,1.6,0,2.3c0,6-1.1,8.5-7.4,8.4
							c0,1.3,0,2.9,0.1,4.2c7.4,0.6,12-3.6,12-11c0-6.1-0.2-12.1-0.2-18.2c0-1.4,0.1-2.8,0.3-4.2c0.6-4.1,2.1-5.5,6.2-6.4
							c0-1.2,0-2.5-0.1-3.8c-5.4-0.7-6.3-4.4-6.8-9.4c-0.2-5.9-0.2-11.8-0.3-17.8c0-1,0-2-0.1-2.9c-1-6.7-5.1-9.8-12.2-9.2
							c0,1.2,0,3.5,0,3.5s0,0.6,0,0.7c0.1,0,0.4,0,0.4,0c5.3,0.1,6.9,1.9,7.1,7.1c0.2,5.6,0.3,11.1,0.3,16.7
							C393.8,125.3,394.6,130.2,399.3,133.4z"/>
					</g>
				</g>
			</g>
			<g>
				<g>
					<g class="st13">
						<path class="st12" d="M281,144.5l-4.3,12.7h-10.1l17.6-49.6h10.5l17.6,49.6h-10.1l-4.3-12.7H281z M289.4,118.4l-5.7,17.8h11.5
							L289.4,118.4z"/>
						<path class="st12" d="M317.5,107.7h15.8c9.7,0,16.3,6.1,16.3,15.4c0,9.2-6.9,15.7-16.2,15.7h-5.9v18.5h-10V107.7z M332,130.1
							c4.4,0,7.4-2.8,7.4-7c0-4.1-3-6.8-7.2-6.8h-4.6v13.8H332z"/>
						<path class="st12" d="M355.9,107.7h10v49.6h-10V107.7z"/>
					</g>
					<g>
						<path class="st12" d="M240,134.8c4,2.7,5.1,6.6,5.1,10.9c0,5.3-0.1,10.6-0.2,15.9c0,0.8,0,1.6,0,2.3c0,6,1.1,8.5,7.4,8.4
							c0,1.3,0,2.9-0.1,4.2c-7.4,0.6-11.9-3.6-12-11c0-6.1,0.2-12.1,0.2-18.2c0-1.4-0.1-2.8-0.3-4.2c-0.6-4.1-2.1-5.5-6.2-6.4
							c0-1.2,0-2.5,0.1-3.8c5.4-0.7,6.3-4.4,6.8-9.4c0.2-5.9,0.2-11.8,0.3-17.8c0-1,0-2,0.1-2.9c1-6.7,5.1-9.8,12.2-9.2
							c0,1.2-0.1,3.5-0.1,3.5s0,0.6,0,0.7c-0.1,0-0.4,0-0.4,0c-5.3,0.1-6.9,1.9-7.1,7.1c-0.2,5.6-0.3,11.1-0.3,16.7
							C245.5,126.8,244.8,131.6,240,134.8z"/>
						<path class="st12" d="M400.9,134.8c-4,2.7-5.1,6.6-5.1,10.9c0,5.3,0.1,10.6,0.2,15.9c0,0.8,0,1.6,0,2.3c0,6-1.1,8.5-7.4,8.4
							c0,1.3,0,2.9,0.1,4.2c7.4,0.6,12-3.6,12-11c0-6.1-0.2-12.1-0.2-18.2c0-1.4,0.1-2.8,0.3-4.2c0.6-4.1,2.1-5.5,6.2-6.4
							c0-1.2,0-2.5-0.1-3.8c-5.4-0.7-6.3-4.4-6.8-9.4c-0.2-5.9-0.2-11.8-0.3-17.8c0-1,0-2-0.1-2.9c-1-6.7-5.1-9.8-12.2-9.2
							c0,1.2,0,3.5,0,3.5s0,0.6,0,0.7c0.1,0,0.4,0,0.4,0c5.3,0.1,6.9,1.9,7.1,7.1c0.2,5.6,0.3,11.1,0.3,16.7
							C395.4,126.8,396.1,131.6,400.9,134.8z"/>
					</g>
				</g>
			</g>
			<g>
				<path class="st15" d="M472.4,135.9c8.2,5.7,12.5,6.7,19.6,18.7c7.1,11.9,8.3,20.1,10.2,21.5c1.9,1.5,11.2-0.4,16-3
					c4.8-2.6,5-4.1,9.6-14.6c6.3-14.7,16.5-32.7,24.3-43.1s24.3-24.2,25.1-26.8c0.8-2.6-7.1-3.8-14.5-1.6
					c-7.5,2.2-23.2,19.5-32.7,33.1c-10.5,15.1-14.3,27.9-16.2,27.5c-1.9-0.4-5.5-8-10.7-13.6c-5.2-5.6-10.7-9.4-17.1-8.3
					C479.6,126.9,468.6,133.3,472.4,135.9z"/>
				<path class="st12" d="M474.1,135.5c8.2,5.7,12.5,6.7,19.6,18.7c7.1,11.9,8.3,20.1,10.2,21.5c1.9,1.5,11.2-0.4,16-3
					c4.8-2.6,5-4.1,9.6-14.6c6.3-14.7,16.5-32.7,24.3-43.1s24.3-24.2,25.1-26.8c0.8-2.6-7.1-3.8-14.5-1.6s-23.2,19.5-32.7,33.1
					c-10.5,15.1-14.3,27.9-16.2,27.5c-1.9-0.4-5.5-8-10.7-13.6s-10.7-9.4-17.1-8.3C481.4,126.5,470.3,132.9,474.1,135.5z"/>
			</g>
		</g>
	</g>
	<g>
		<defs>
			<rect id="SVGID_11_" x="0.1" y="-0.2" width="841.7" height="468"/>
		</defs>
		<clipPath id="SVGID_12_">
			<use xlink:href="#SVGID_11_"  style="overflow:visible;"/>
		</clipPath>
		<g class="st16">
			<g>
				<path class="st2" d="M630.3,189.2c-0.1,0-0.2,0-0.3,0c-9.4,0-9.5,22.4-18.8,22.4s-9.3-15.8-18.7-15.8s-9.4,22.4-18.8,22.4
					c-9.4,0-9.3-22.5-18.7-22.5c-9.4,0-9.4,15.7-18.8,15.7c-9.4,0-9.3-26.9-18.7-27c-9.4,0-9.5,26.9-18.8,26.8s-9.3-15.8-18.7-15.8
					s-9.4,22.4-18.8,22.4s-9.3-26.9-18.6-27c-9.4,0-9.4,20.2-18.8,20.1s-9.3-15.8-18.7-15.8l0.4,77l225.2,0.7L630.3,189.2z"/>
				<path class="st17" d="M628,210.7c-0.1,0-0.2,0-0.3,0c-9.4,0-9.4,17-18.8,17s-9.3-12-18.7-12s-9.4,17-18.8,17
					s-9.3-17.1-18.7-17.1s-9.4,11.9-18.8,11.9c-9.4,0-9.3-20.5-18.7-20.5s-9.4,20.4-18.8,20.4c-9.4,0-9.3-12-18.7-12
					c-9.4,0-9.4,17-18.8,17c-9.4,0-9.3-20.5-18.7-20.5c-9.4,0-9.4,15.3-18.8,15.3c-9.4,0-9.3-12-18.7-12l0.5,54.5l225.2,0.7
					L628,210.7z"/>
				<path class="st7" d="M629.3,238.3c-0.1,0-0.2,0-0.3,0c-9.4,0-9.4,11-18.8,11c-9.4,0-9.3-7.8-18.7-7.8s-9.4,11-18.8,11
					c-9.4,0-9.3-11.1-18.7-11.1c-9.4,0-9.4,7.7-18.8,7.7s-9.3-13.3-18.7-13.3s-9.4,13.2-18.8,13.2c-9.4,0-9.3-7.8-18.7-7.8
					s-9.4,11-18.8,11s-9.3-13.3-18.7-13.3c-9.4,0-9.4,9.9-18.8,9.9s-9.3-7.8-18.7-7.8l0.6,29.2l225.2,0.7L629.3,238.3z"/>
				<path class="st12" d="M630.1,185.3c-0.1,0-0.2,0-0.3,0c-9.4,0-9.5,22.4-18.8,22.4s-9.3-15.8-18.7-15.8s-9.4,22.4-18.8,22.4
					c-9.4,0-9.3-22.5-18.7-22.5c-9.4,0-9.4,15.7-18.8,15.7c-9.4,0-9.3-26.9-18.7-27c-9.4,0-9.5,26.9-18.8,26.8s-9.3-15.8-18.7-15.8
					s-9.4,22.4-18.8,22.4s-9.3-26.9-18.6-27c-9.4,0-9.4,20.2-18.8,20.1s-9.3-15.8-18.7-15.8l0.4,77l225.2,0.7L630.1,185.3z"/>
				<path class="st12" d="M630.1,185.3c-0.1,0-0.2,0-0.3,0c-9.4,0-9.5,22.4-18.8,22.4s-9.3-15.8-18.7-15.8s-9.4,22.4-18.8,22.4
					c-9.4,0-9.3-22.5-18.7-22.5c-9.4,0-9.4,15.7-18.8,15.7c-9.4,0-9.3-26.9-18.7-27c-9.4,0-9.5,26.9-18.8,26.8s-9.3-15.8-18.7-15.8
					s-9.4,22.4-18.8,22.4s-9.3-26.9-18.6-27c-9.4,0-9.4,20.2-18.8,20.1s-9.3-15.8-18.7-15.8l0.4,77l225.2,0.7L630.1,185.3z"/>
				<path class="st12" d="M630,209.4c-0.1,0-0.2,0-0.3,0c-9.4,0-9.4,17-18.8,17s-9.3-12-18.7-12s-9.4,17-18.8,17
					s-9.3-17.1-18.7-17.1s-9.4,11.9-18.8,11.9c-9.4,0-9.3-20.5-18.7-20.5s-9.4,20.4-18.8,20.4c-9.4,0-9.3-12-18.7-12
					c-9.4,0-9.4,17-18.8,17c-9.4,0-9.3-20.5-18.7-20.5c-9.4,0-9.4,15.3-18.8,15.3c-9.4,0-9.3-12-18.7-12l0.5,54.5l225.2,0.7
					L630,209.4z"/>
				<path class="st12" d="M629.9,236.5c-0.1,0-0.2,0-0.3,0c-9.4,0-9.4,11-18.8,11c-9.4,0-9.3-7.8-18.7-7.8s-9.4,11-18.8,11
					c-9.4,0-9.3-11.1-18.7-11.1c-9.4,0-9.4,7.7-18.8,7.7s-9.3-13.3-18.7-13.3s-9.4,13.2-18.8,13.2c-9.4,0-9.3-7.8-18.7-7.8
					s-9.4,11-18.8,11s-9.3-13.3-18.7-13.3c-9.4,0-9.4,9.9-18.8,9.9s-9.3-7.8-18.7-7.8l0.6,29.2l225.2,0.7L629.9,236.5z"/>
				<path class="st12" d="M629.9,236.5c-0.1,0-0.2,0-0.3,0c-9.4,0-9.4,11-18.8,11c-9.4,0-9.3-7.8-18.7-7.8s-9.4,11-18.8,11
					c-9.4,0-9.3-11.1-18.7-11.1c-9.4,0-9.4,7.7-18.8,7.7s-9.3-13.3-18.7-13.3s-9.4,13.2-18.8,13.2c-9.4,0-9.3-7.8-18.7-7.8
					s-9.4,11-18.8,11s-9.3-13.3-18.7-13.3c-9.4,0-9.4,9.9-18.8,9.9s-9.3-7.8-18.7-7.8l0.6,29.2l225.2,0.7L629.9,236.5z"/>
			</g>
			<g>
				<g>
					<g>
						<path class="st18" d="M254.6,216.5l123.7,0.8c4.6,0,8.3,3.8,8.3,8.4l0,0c0,4.6-3.8,8.3-8.4,8.3l-123.7-0.8
							c-4.6,0-8.3-3.8-8.3-8.4l0,0C246.3,220.2,250,216.5,254.6,216.5z"/>
						<path class="st14" d="M283.5,233.3l94.7,0.6c4.6,0,8.3-3.7,8.4-8.3s-3.7-8.3-8.3-8.4l-94.7-0.6L283.5,233.3z"/>
					</g>
				</g>
				<g>
					<g>
						<path class="st18" d="M254.8,185.6l123.7,0.8c4.6,0,8.3,3.8,8.3,8.4l0,0c0,4.6-3.8,8.3-8.4,8.3l-123.7-0.8
							c-4.6,0-8.3-3.8-8.3-8.4l0,0C246.5,189.3,250.2,185.6,254.8,185.6z"/>
						<path class="st14" d="M302.6,202.6l75.9,0.5c4.6,0,8.3-3.7,8.4-8.3s-3.7-8.3-8.3-8.4l-75.9-0.5L302.6,202.6z"/>
					</g>
				</g>
				<g>
					<g>
						<path class="st12" d="M254.6,219.3l123.7,0.8c4.6,0,8.3,3.8,8.3,8.4l0,0c0,4.6-3.8,8.3-8.4,8.3L254.5,236
							c-4.6,0-8.3-3.8-8.3-8.4l0,0C246.2,223,250,219.3,254.6,219.3z"/>
						<path class="st12" d="M283.5,236.2l94.7,0.6c4.6,0,8.3-3.7,8.4-8.3s-3.7-8.3-8.3-8.4l-94.7-0.6L283.5,236.2z"/>
					</g>
				</g>
				<g>
					<g>
						<path class="st12" d="M254.8,188.5l123.7,0.8c4.6,0,8.3,3.8,8.3,8.4l0,0c0,4.6-3.8,8.3-8.4,8.3l-123.7-0.8
							c-4.6,0-8.3-3.8-8.3-8.4l0,0C246.4,192.1,250.2,188.4,254.8,188.5z"/>
						<path class="st12" d="M302.5,205.4l75.9,0.5c4.6,0,8.3-3.7,8.4-8.3s-3.7-8.3-8.3-8.4l-75.9-0.5L302.5,205.4z"/>
					</g>
				</g>
			</g>
			<g>
				<g>
					<g>
						<path class="st18" d="M255.3,249.2L379,250c4.6,0,8.3,3.8,8.3,8.4l0,0c0,4.6-3.8,8.3-8.4,8.3l-123.7-0.8
							c-4.6,0-8.3-3.8-8.3-8.4l0,0C246.9,252.8,250.7,249.1,255.3,249.2z"/>
						<path class="st14" d="M295.8,266.1l83.1,0.6c4.6,0,8.3-3.7,8.4-8.3s-3.7-8.3-8.3-8.4l-83.1-0.6L295.8,266.1z"/>
					</g>
				</g>
				<g>
					<g>
						<path class="st12" d="M255.2,252l123.7,0.8c4.6,0,8.3,3.8,8.3,8.4l0,0c0,4.6-3.8,8.3-8.4,8.3l-123.7-0.8
							c-4.6,0-8.3-3.8-8.3-8.4l0,0C246.9,255.7,250.6,252,255.2,252z"/>
						<path class="st12" d="M295.8,268.9l83.1,0.6c4.6,0,8.3-3.7,8.4-8.3s-3.7-8.3-8.3-8.4l-83.1-0.6L295.8,268.9z"/>
					</g>
				</g>
			</g>
			<g>
				<g>
					
						<rect x="233.5" y="286.9" transform="matrix(1.180036e-02 -0.9999 0.9999 1.180036e-02 -56.2062 524.1703)" class="st7" width="7.3" height="7.3"/>
					
						<rect x="233.1" y="316.5" transform="matrix(1.180036e-02 -0.9999 0.9999 1.180036e-02 -86.1287 553.0508)" class="st2" width="7.3" height="7.3"/>
					
						<rect x="232.8" y="346.1" transform="matrix(1.180036e-02 -0.9999 0.9999 1.180036e-02 -116.0611 581.9413)" class="st2" width="7.3" height="7.3"/>
					
						<rect x="232.4" y="375.6" transform="matrix(1.180036e-02 -0.9999 0.9999 1.180036e-02 -145.9835 610.822)" class="st2" width="7.3" height="7.3"/>
					<g>
						<path class="st7" d="M449.1,302.1l-31.2-0.4c-3.4,0-6.2-2.9-6.1-6.3l0,0c0-3.4,2.9-6.2,6.3-6.1l31.2,0.4
							c3.4,0,6.2,2.9,6.1,6.3l0,0C455.4,299.4,452.6,302.1,449.1,302.1z"/>
						<path class="st11" d="M443.8,295.8c0-2.8,2.3-5,5.1-4.9s5,2.3,4.9,5.1s-2.3,5-5.1,4.9C446,300.8,443.8,298.6,443.8,295.8z"/>
					</g>
					<g>
						<path class="st2" d="M417.7,318.9l31.2,0.4c3.4,0,6.2,2.9,6.1,6.3l0,0c0,3.4-2.9,6.2-6.3,6.1l-31.2-0.4
							c-3.4,0-6.2-2.9-6.1-6.3l0,0C411.5,321.6,414.3,318.8,417.7,318.9z"/>
						<circle class="st11" cx="418" cy="325.1" r="5"/>
					</g>
					<g>
						<path class="st2" d="M417.4,348.5l31.2,0.4c3.4,0,6.2,2.9,6.1,6.3l0,0c0,3.4-2.9,6.2-6.3,6.1l-31.2-0.4
							c-3.4,0-6.2-2.9-6.1-6.3l0,0C411.1,351.2,414,348.4,417.4,348.5z"/>
						<path class="st11" d="M422.7,354.7c0,2.8-2.3,5-5.1,4.9s-5-2.3-4.9-5.1s2.3-5,5.1-4.9C420.5,349.7,422.7,352,422.7,354.7z"/>
					</g>
					<g>
						<path class="st2" d="M417,378l31.2,0.4c3.4,0,6.2,2.9,6.1,6.3l0,0c0,3.4-2.9,6.2-6.3,6.1l-31.2-0.4c-3.4,0-6.2-2.9-6.1-6.3
							l0,0C410.8,380.8,413.6,378,417,378z"/>
						<circle class="st11" cx="417.3" cy="384.3" r="5"/>
					</g>
					
						<rect x="262.1" y="272.5" transform="matrix(1.180036e-02 -0.9999 0.9999 1.180036e-02 -23.2107 546.5668)" class="st2" width="5.7" height="25.1"/>
					
						<rect x="314.6" y="230" transform="matrix(1.180036e-02 -0.9999 0.9999 1.180036e-02 18.5356 609.0463)" class="st2" width="5.7" height="130.3"/>
					
						<rect x="261.7" y="307.5" transform="matrix(1.180036e-02 -0.9999 0.9999 1.180036e-02 -58.6517 580.7832)" class="st2" width="5.7" height="25.1"/>
					
						<rect x="314.1" y="265.1" transform="matrix(1.180036e-02 -0.9999 0.9999 1.180036e-02 -16.9254 643.2622)" class="st2" width="5.7" height="130.3"/>
					
						<rect x="261.3" y="335.8" transform="matrix(1.180036e-02 -0.9999 0.9999 1.180036e-02 -87.2147 608.3596)" class="st2" width="5.7" height="25.1"/>
					
						<rect x="313.8" y="293.3" transform="matrix(1.180036e-02 -0.9999 0.9999 1.180036e-02 -45.4781 670.8289)" class="st2" width="5.7" height="130.3"/>
					
						<rect x="261" y="365.6" transform="matrix(1.180036e-02 -0.9999 0.9999 1.180036e-02 -117.4167 637.4969)" class="st2" width="5.7" height="25.1"/>
					
						<rect x="313.5" y="323.1" transform="matrix(1.180036e-02 -0.9999 0.9999 1.180036e-02 -75.6805 699.9861)" class="st2" width="5.7" height="130.3"/>
				</g>
				<g>
					
						<rect x="234.7" y="285.1" transform="matrix(1.180036e-02 -0.9999 0.9999 1.180036e-02 -53.2606 523.6309)" class="st12" width="7.3" height="7.3"/>
					
						<rect x="234.3" y="314.7" transform="matrix(1.180036e-02 -0.9999 0.9999 1.180036e-02 -83.1831 552.5115)" class="st12" width="7.3" height="7.3"/>
					
						<rect x="234" y="344.3" transform="matrix(1.180036e-02 -0.9999 0.9999 1.180036e-02 -113.1155 581.402)" class="st12" width="7.3" height="7.3"/>
					
						<rect x="233.6" y="373.9" transform="matrix(1.180036e-02 -0.9999 0.9999 1.180036e-02 -143.0281 610.2928)" class="st12" width="7.3" height="7.3"/>
					<g>
						<path class="st12" d="M450.3,300.3l-31.2-0.4c-3.4,0-6.2-2.9-6.1-6.3l0,0c0-3.4,2.9-6.2,6.3-6.1l31.2,0.4
							c3.4,0,6.2,2.9,6.1,6.3l0,0C456.6,297.6,453.8,300.4,450.3,300.3z"/>
						<path class="st12" d="M445,294c0-2.8,2.3-5,5.1-4.9s5,2.3,4.9,5.1s-2.3,5-5.1,4.9S445,296.8,445,294z"/>
					</g>
					<g>
						<path class="st12" d="M418.9,317.1l31.2,0.4c3.4,0,6.2,2.9,6.1,6.3l0,0c0,3.4-2.9,6.2-6.3,6.1l-31.2-0.4
							c-3.4,0-6.2-2.9-6.1-6.3l0,0C412.7,319.8,415.5,317.1,418.9,317.1z"/>
						<circle class="st12" cx="419.2" cy="323.3" r="5"/>
					</g>
					<g>
						<path class="st12" d="M418.6,346.7l31.2,0.4c3.4,0,6.2,2.9,6.1,6.3l0,0c0,3.4-2.9,6.2-6.3,6.1l-31.2-0.4
							c-3.4,0-6.2-2.9-6.1-6.3l0,0C412.3,349.4,415.1,346.7,418.6,346.7z"/>
						<path class="st12" d="M423.9,353c0,2.8-2.3,5-5.1,4.9s-5-2.3-4.9-5.1s2.3-5,5.1-4.9C421.7,348,423.9,350.2,423.9,353z"/>
					</g>
					<g>
						<path class="st12" d="M418.2,376.3l31.2,0.4c3.4,0,6.2,2.9,6.1,6.3l0,0c0,3.4-2.9,6.2-6.3,6.1l-31.2-0.4
							c-3.4,0-6.2-2.9-6.1-6.3l0,0C412,379,414.8,376.2,418.2,376.3z"/>
						<circle class="st12" cx="418.5" cy="382.5" r="5"/>
					</g>
					
						<rect x="263.3" y="270.7" transform="matrix(1.180036e-02 -0.9999 0.9999 1.180036e-02 -20.2553 546.0375)" class="st12" width="5.7" height="25.1"/>
					
						<rect x="315.8" y="228.2" transform="matrix(1.180036e-02 -0.9999 0.9999 1.180036e-02 21.4812 608.5069)" class="st12" width="5.7" height="130.3"/>
					
						<rect x="262.9" y="305.8" transform="matrix(1.180036e-02 -0.9999 0.9999 1.180036e-02 -55.7161 580.2535)" class="st12" width="5.7" height="25.1"/>
					
						<rect x="315.3" y="263.3" transform="matrix(1.180036e-02 -0.9999 0.9999 1.180036e-02 -13.9699 642.7329)" class="st12" width="5.7" height="130.3"/>
					
						<rect x="262.5" y="334" transform="matrix(1.180036e-02 -0.9999 0.9999 1.180036e-02 -84.2689 607.8201)" class="st12" width="5.7" height="25.1"/>
					
						<rect x="315" y="291.5" transform="matrix(1.180036e-02 -0.9999 0.9999 1.180036e-02 -42.5325 670.2896)" class="st12" width="5.7" height="130.3"/>
					
						<rect x="262.2" y="363.8" transform="matrix(1.180036e-02 -0.9999 0.9999 1.180036e-02 -114.4613 636.9677)" class="st12" width="5.7" height="25.1"/>
					
						<rect x="314.7" y="321.4" transform="matrix(1.180036e-02 -0.9999 0.9999 1.180036e-02 -72.7349 699.4468)" class="st12" width="5.7" height="130.3"/>
				</g>
			</g>
			<g>
				<g>
					<g>
						<g>
							<path class="st7" d="M514.6,369.2c0.3-12.1-9.3-22.2-21.5-22.5c-12.1-0.3-22.2,9.3-22.5,21.5c-0.3,12.1,9.3,22.2,21.5,22.5
								C504.2,391,514.3,381.4,514.6,369.2z M477.2,368.3c0.2-8.5,7.3-15.3,15.8-15.1s15.3,7.3,15.1,15.8s-7.3,15.3-15.8,15.1
								S477,376.8,477.2,368.3z"/>
						</g>
						<ellipse class="st2" cx="492.6" cy="368.7" rx="12.2" ry="12.2"/>
					</g>
				</g>
				<g>
					<g>
						<g>
							<path class="st2" d="M573.3,369.2c0.3-12.1-9.3-22.2-21.5-22.5c-12.2-0.3-22.2,9.3-22.5,21.5c-0.3,12.1,9.3,22.2,21.5,22.5
								S573,381.4,573.3,369.2z M535.9,368.3c0.2-8.5,7.3-15.3,15.8-15.1s15.3,7.3,15.1,15.8s-7.3,15.3-15.8,15.1
								C542.4,383.9,535.7,376.8,535.9,368.3z"/>
						</g>
						<g>
							<path class="st7" d="M561.1,380.6c-2.8,2.2-6.3,3.6-10.1,3.5c-6.7-0.2-12.2-4.5-14.2-10.5l-5.1,4.9
								c3.5,7.1,10.7,12,19.2,12.2c5.7,0.1,10.8-1.9,14.8-5.3C564.1,383.8,562.6,382.2,561.1,380.6z"/>
						</g>
						
							<ellipse transform="matrix(0.731 -0.6824 0.6824 0.731 -103.277 475.3997)" class="st2" cx="551.3" cy="368.7" rx="12.2" ry="12.2"/>
					</g>
				</g>
				<g>
					<g>
						<g>
							<path class="st7" d="M630.5,369.2c0.3-12.1-9.3-22.2-21.5-22.5s-22.2,9.3-22.5,21.5c-0.3,12.1,9.3,22.2,21.5,22.5
								C620.1,391,630.2,381.4,630.5,369.2z M593,368.3c0.2-8.5,7.3-15.3,15.8-15.1s15.3,7.3,15.1,15.8s-7.3,15.3-15.8,15.1
								C599.6,383.9,592.8,376.8,593,368.3z"/>
						</g>
						<g>
							<path class="st2" d="M593.1,367.6c0.6-8.2,7.5-14.6,15.8-14.4s14.9,6.9,15.1,15.1l6.6,0.2c-0.1-11.8-9.5-21.6-21.5-21.9
								c-11.9-0.3-21.9,9-22.5,20.8L593.1,367.6z"/>
						</g>
						
							<ellipse transform="matrix(0.731 -0.6824 0.6824 0.731 -87.8915 514.4169)" class="st2" cx="608.5" cy="368.7" rx="12.2" ry="12.2"/>
					</g>
				</g>
				<g>
					<g>
						<g>
							<path class="st12" d="M516.6,368.8c0.3-12.1-9.3-22.2-21.5-22.5c-12.1-0.3-22.2,9.3-22.5,21.5c-0.3,12.1,9.3,22.2,21.5,22.5
								S516.3,380.9,516.6,368.8z M479.2,367.9c0.2-8.5,7.3-15.3,15.8-15.1s15.3,7.3,15.1,15.8s-7.3,15.3-15.8,15.1
								S479,376.4,479.2,367.9z"/>
						</g>
						<ellipse class="st12" cx="494.6" cy="368.2" rx="12.2" ry="12.2"/>
					</g>
				</g>
				<g>
					<g>
						<g>
							<path class="st12" d="M575.3,368.8c0.3-12.1-9.3-22.2-21.5-22.5s-22.2,9.3-22.5,21.5c-0.3,12.1,9.3,22.2,21.5,22.5
								C564.9,390.5,575,380.9,575.3,368.8z M537.9,367.9c0.2-8.5,7.3-15.3,15.8-15.1s15.3,7.3,15.1,15.8s-7.3,15.3-15.8,15.1
								C544.4,383.5,537.7,376.4,537.9,367.9z"/>
						</g>
						<g>
							<path class="st12" d="M563.1,380.2c-2.8,2.2-6.3,3.6-10.1,3.5c-6.7-0.2-12.2-4.5-14.2-10.5l-5.1,4.9
								c3.5,7.1,10.7,12,19.2,12.2c5.7,0.1,10.8-1.9,14.8-5.3C566.1,383.4,564.6,381.8,563.1,380.2z"/>
						</g>
						
							<ellipse transform="matrix(0.731 -0.6824 0.6824 0.731 -102.4373 476.6447)" class="st12" cx="553.3" cy="368.2" rx="12.2" ry="12.2"/>
					</g>
				</g>
				<g>
					<g>
						<g>
							<path class="st12" d="M632.5,368.8c0.3-12.1-9.3-22.2-21.5-22.5c-12.2-0.3-22.2,9.3-22.5,21.5c-0.3,12.1,9.3,22.2,21.5,22.5
								C622.1,390.5,632.2,380.9,632.5,368.8z M595,367.9c0.2-8.5,7.3-15.3,15.8-15.1s15.3,7.3,15.1,15.8s-7.3,15.3-15.8,15.1
								C601.6,383.5,594.8,376.4,595,367.9z"/>
						</g>
						<g>
							<path class="st12" d="M595.1,367.2c0.6-8.2,7.5-14.6,15.8-14.4c8.3,0.2,14.9,6.9,15.1,15.1l6.6,0.2
								c-0.1-11.8-9.5-21.6-21.5-21.9c-11.9-0.3-21.9,9-22.5,20.8L595.1,367.2z"/>
						</g>
						
							<ellipse transform="matrix(0.731 -0.6824 0.6824 0.731 -87.0583 515.6587)" class="st12" cx="610.5" cy="368.2" rx="12.2" ry="12.2"/>
					</g>
				</g>
			</g>
			<g>
				<g>
					<g>
						<g>
							<path class="st7" d="M588.7,309.3c-0.2,12.1,9.4,22.2,21.6,22.4s22.2-9.4,22.4-21.6s-9.4-22.2-21.6-22.4
								S589,297.1,588.7,309.3z M626.2,310c-0.2,8.5-7.2,15.3-15.7,15.1c-8.5-0.2-15.3-7.2-15.1-15.7c0.2-8.5,7.2-15.3,15.7-15.1
								C619.5,294.4,626.3,301.5,626.2,310z"/>
						</g>
						
							<ellipse transform="matrix(0.253 -0.9675 0.9675 0.253 156.6009 822.2223)" class="st2" cx="610.7" cy="309.7" rx="12.2" ry="12.2"/>
					</g>
				</g>
				<g>
					<g>
						<g>
							<path class="st2" d="M530,310.2c-0.2,12.1,9.4,22.2,21.6,22.4s22.2-9.4,22.4-21.6s-9.4-22.2-21.6-22.4S530.2,298,530,310.2z
								 M567.5,310.9c-0.2,8.5-7.2,15.3-15.7,15.1c-8.5-0.2-15.3-7.2-15.1-15.7c0.2-8.5,7.2-15.3,15.7-15.1
								C560.8,295.3,567.6,302.4,567.5,310.9z"/>
						</g>
						<g>
							<path class="st7" d="M542.2,298.7c2.7-2.3,6.3-3.6,10.1-3.5c6.7,0.1,12.3,4.5,14.3,10.5l5.1-4.9c-3.5-7.1-10.8-12-19.2-12.2
								c-5.7-0.1-10.8,1.9-14.8,5.3C539.2,295.5,540.7,297.1,542.2,298.7z"/>
						</g>
						
							<ellipse transform="matrix(0.7277 -0.6859 0.6859 0.7277 -62.7293 463.215)" class="st2" cx="552" cy="310.6" rx="12.2" ry="12.2"/>
					</g>
				</g>
				<g>
					<g>
						<g>
							<path class="st7" d="M472.8,310.2c-0.2,12.1,9.4,22.2,21.6,22.4s22.2-9.4,22.4-21.6s-9.4-22.2-21.6-22.4
								C483.1,288.4,473.1,298,472.8,310.2z M510.3,310.9c-0.2,8.5-7.2,15.3-15.7,15.1c-8.5-0.2-15.3-7.2-15.1-15.7
								c0.2-8.5,7.2-15.3,15.7-15.1S510.5,302.4,510.3,310.9z"/>
						</g>
						<g>
							<path class="st2" d="M510.3,311.6c-0.5,8.2-7.4,14.6-15.7,14.5c-8.3-0.2-14.9-6.8-15.1-15.1l-6.6-0.1
								c0.1,11.8,9.6,21.5,21.6,21.8s21.8-9.1,22.4-20.9L510.3,311.6z"/>
						</g>
						<ellipse class="st2" cx="494.9" cy="310.6" rx="12.2" ry="12.2"/>
					</g>
				</g>
				<g>
					<g>
						<g>
							<path class="st12" d="M589.5,310.2c-0.2,12.1,9.4,22.2,21.6,22.4s22.2-9.4,22.4-21.6s-9.4-22.2-21.6-22.4
								C599.8,288.4,589.8,298,589.5,310.2z M627,310.9c-0.2,8.5-7.2,15.3-15.7,15.1c-8.5-0.2-15.3-7.2-15.1-15.7
								c0.2-8.5,7.2-15.3,15.7-15.1C620.4,295.3,627.2,302.4,627,310.9z"/>
						</g>
						
							<ellipse transform="matrix(0.253 -0.9675 0.9675 0.253 156.3701 823.6818)" class="st12" cx="611.6" cy="310.6" rx="12.2" ry="12.2"/>
					</g>
				</g>
				<g>
					<g>
						<g>
							<path class="st12" d="M530.8,309.3c-0.2,12.1,9.4,22.2,21.6,22.4s22.2-9.4,22.4-21.6s-9.4-22.2-21.6-22.4
								S531.1,297.1,530.8,309.3z M568.3,310c-0.2,8.5-7.2,15.3-15.7,15.1s-15.3-7.2-15.1-15.7c0.2-8.5,7.2-15.3,15.7-15.1
								C561.7,294.4,568.5,301.5,568.3,310z"/>
						</g>
						<g>
							<path class="st12" d="M543,297.8c2.7-2.3,6.3-3.6,10.1-3.5c6.7,0.1,12.3,4.5,14.3,10.5l5.1-4.9c-3.5-7.1-10.8-12-19.2-12.2
								c-5.7-0.1-10.8,1.9-14.8,5.3C540,294.6,541.5,296.2,543,297.8z"/>
						</g>
						
							<ellipse transform="matrix(0.7277 -0.6859 0.6859 0.7277 -61.8995 463.5444)" class="st12" cx="552.9" cy="309.7" rx="12.2" ry="12.2"/>
					</g>
				</g>
				<g>
					<g>
						<g>
							<path class="st12" d="M471.1,309.3c-0.2,12.1,9.4,22.2,21.6,22.4s22.2-9.4,22.4-21.6s-9.4-22.2-21.6-22.4
								C481.4,287.5,471.3,297.1,471.1,309.3z M508.5,310c-0.2,8.5-7.2,15.3-15.7,15.1c-8.5-0.2-15.3-7.2-15.1-15.7
								c0.2-8.5,7.2-15.3,15.7-15.1S508.7,301.5,508.5,310z"/>
						</g>
						<g>
							<path class="st12" d="M508.5,310.7c-0.5,8.2-7.4,14.6-15.7,14.5c-8.3-0.2-14.9-6.8-15.1-15.1l-6.6-0.1
								c0.1,11.8,9.6,21.5,21.6,21.8s21.8-9.1,22.4-20.9L508.5,310.7z"/>
						</g>
						<ellipse class="st12" cx="493.1" cy="309.7" rx="12.2" ry="12.2"/>
					</g>
				</g>
			</g>
		</g>
	</g>
	<g>
		<defs>
			<rect id="SVGID_13_" x="0.1" y="-0.2" width="841.7" height="468"/>
		</defs>
		<clipPath id="SVGID_14_">
			<use xlink:href="#SVGID_13_"  style="overflow:visible;"/>
		</clipPath>
		<g class="st19">
			<path class="st11" d="M-46.8,310.2c2-0.4,35.9-13.6,44.5-32.2c8.6-18.6,8.9-31.1,19.7-41.4s15.6-21.8,21-25.1
				s25.5-20.6,25.9-22.8c0,0,4.7,0.1,6.2,5.4s2.2,10.9-2.4,15.2c-4.6,4.2-17.8,17.7-18.6,21.7c-0.8,3.9-5.8,8.1,6.8,10
				s66.8-2.4,66.8-2.4s-0.2-15,8.3-14.7c0,0,4.3,1.8,4.2,4.8s1,8.6,1,8.6s3.5-27.1,12.7-23.9s2,19.9,2,19.9s3.3-1.4,4.3-0.8
				c0,0,13.1-12.7,22.3-3.7c0,0,4.8,2.8,1,5.6S147,256,147,256s-2.6,9.7-6.3,13.8s-7.1,3.7-7.1,3.7s-17.1,16.4-21.7,18.8
				c-2.6,1.4-28.8,10.7-51.4,15.9c-15.8,3.6-24,11-24,11l-24.1,17.5"/>
			<path class="st20" d="M-67.2,323.2c2-0.4,56.3-22.9,64.9-41.5s8.9-31.1,19.7-41.4s15.6-21.8,21-25.1c4.9-3,21.8-17.4,25.3-21.8
				c0.6-0.7,1.5-0.9,2.3-0.7c1.5,0.5,3.6,1.8,4.5,5.1c1.5,5.4,2.2,10.9-2.4,15.2s-17.8,17.7-18.6,21.7c-0.8,3.9-5.8,8.1,6.8,10
				c12.7,1.9,66.8-2.4,66.8-2.4s-0.2-15,8.3-14.7c0,0,4.3,1.8,4.2,4.8s1,8.6,1,8.6s3.5-27.1,12.7-23.9s2,19.9,2,19.9
				s3.3-1.4,4.3-0.8c0,0,13.1-12.7,22.3-3.7c0,0,3,2.7-0.8,5.4S147,259.6,147,259.6s-2.6,9.7-6.3,13.8c-3.7,4.1-7.1,3.7-7.1,3.7
				s-17.1,16.4-21.7,18.8c-2.6,1.4-28.8,10.7-51.4,15.9c-15.8,3.6-24,11-24,11l-40.3,30.4"/>
			<path class="st21" d="M-45.5,310.7c2-0.4,35.9-13.6,44.5-32.3s8.9-31.1,19.7-41.4s15.6-21.8,21-25.1c4.8-3,21.4-17.1,25.1-21.6
				c0.7-0.8,1.8-1.1,2.8-0.7c1.4,0.6,3.3,1.9,4.1,4.9c1.5,5.4,2.2,10.9-2.4,15.2c-4.6,4.2-17.8,17.7-18.6,21.7
				c-0.8,3.9-5.8,8.1,6.8,10c12.7,1.9,66.8-2.4,66.8-2.4s-0.2-15,8.3-14.7c0,0,4.3,1.8,4.2,4.8c-0.1,3,1,8.6,1,8.6
				s3.5-27.1,12.7-23.9s2,19.9,2,19.9s3.3-1.4,4.3-0.8c0,0,13.1-12.7,22.3-3.7c0,0,3,2.7-0.8,5.4s-30.2,21.7-30.2,21.7
				s-2.6,9.7-6.3,13.8c-3.7,4.1-7.1,3.7-7.1,3.7s-17.1,16.4-21.7,18.8c-2.6,1.4-28.8,10.7-51.4,15.9c-15.8,3.6-24,11-24,11
				l-24.1,17.5"/>
			<path class="st21" d="M137.8,239.3c0,0,2.8,3.4,3.7,13.3c0.4,5-3.7,17.7-6.8,21.4"/>
			<line class="st21" x1="152.5" y1="233.8" x2="148.1" y2="256.4"/>
			<path class="st21" d="M124.3,239.1c0,0,0.5,9.2,4.6,11.1c0,0-6.2,3.6-5.6,11.7c0,0-8.5,1.4-11.7,9.5"/>
			<line class="st21" x1="125.4" y1="246.4" x2="106.8" y2="254.1"/>
			<path class="st21" d="M11.1,266.8c0.1,0.6,2.9,31.3,21.5,41.7"/>
		</g>
	</g>
	<g>
		<defs>
			<rect id="SVGID_15_" x="0.1" y="-0.2" width="841.7" height="468"/>
		</defs>
		<clipPath id="SVGID_16_">
			<use xlink:href="#SVGID_15_"  style="overflow:visible;"/>
		</clipPath>
		<g class="st22">
			<g>
				<path class="st11" d="M192.7,376.6c5.4-7.1,4.4-16.8,0.7-20.6c-3.8-3.8-9.8,1.9-12.2,4.1c-1.2,1.1-8.5,5.9-15.6,10.6l0.1-4.1
					l0.4-22.8l0.3-18.5l69.7,6.8l0.1,77.7l-57.6-11.4c-0.3-0.4-6.3-1.8-6.3-1.8S187.4,383.8,192.7,376.6z"/>
				<path class="st11" d="M80,443.5c0,0,5.7-49.6,8.2-62.7c2.9-14.8,19.7-18.3,28.2-25.6c3.5-3,19.3-9.4,31.2-11.1
					c9.3-1.3,16-0.6,18.4-0.2l-0.4,22.8l-4.5-1.6c0,0-13.5,7.4-28,7l18,8.1c0,0,7.1-4.6,14.4-9.3c7.1-4.6,14.4-9.5,15.6-10.6
					c2.5-2.2,8.5-7.9,12.2-4.1c3.8,3.8,4.7,13.5-0.7,20.6c-5.4,7.1-20.4,20-20.4,20s5.9,1.4,6.3,1.8c1.2,1.6,4.5,5.6,7.5,9.9
					c3.4,4.6,6.5,9.4,6.5,11.1c0,3.6-5,8.1-13.7,4.1c-8.8-4-9.6-12.6-12.7-13.5c-3.1-0.9-7.4-1-7.4-1l-2.2,4.8
					c0,0,14.6,3.8,16.2,13.7c1.6,9.9-4.6,12.8-8.1,12.4c-3.5-0.4-7.5-1.2-8.8-6.9l-6.7,0.6c0,0-5.1,16.4-10.6,18.3
					c0,0,4.4,21.5-6.8,32.6c-14.7,14.5-20,28.6-20,28.6l-54.5,5.5C62.3,512.9,80,443.5,80,443.5z"/>
			</g>
			<g>
				<path class="st23" d="M195.1,378.2c5.4-7.1,4.7-17.1,0.7-20.6c-5.7-5-10.7-1.2-13.1,1.1c-1.2,1.1-7.1,6-14.2,10.6l0,0l0.1-23.8
					l0.3-18.5l69.7,6.8l0.1,77.7L181,400c-0.3-0.4-6.3-1.8-6.3-1.8S189.7,385.3,195.1,378.2z"/>
				<path class="st24" d="M82.3,445c0,0,5.7-49.6,8.2-62.7c2.9-14.8,19.7-18.3,28.2-25.6c3.5-3,19.3-9.4,31.2-11.1
					c9.3-1.3,13.6,0.3,16.1,0.7l-0.8,21l-1.7-0.8c0,0-13.5,7.4-28,7l18,8.1c0,0,7.1-4.6,14.4-9.3c7.1-4.6,14.4-9.5,15.6-10.6
					c2.5-2.2,8.5-7.9,12.2-4.1c3.8,3.8,4.7,13.5-0.7,20.6s-20.4,20-20.4,20s5.9,1.4,6.3,1.8c1.2,1.6,4.5,5.6,7.5,9.9
					c3.4,4.6,6.5,9.4,6.5,11.1c0,3.6-5,8.1-13.7,4.1c-8.8-4-9.6-12.6-12.7-13.5c-3.1-0.9-7.4-1-7.4-1l-2.2,4.8
					c0,0,14.6,3.8,16.2,13.7c1.6,9.9-4.6,12.8-8.1,12.4c-3.5-0.4-7.5-1.2-8.8-6.9l-6.7,0.6c0,0-5.1,16.4-10.6,18.3
					c0,0,4.4,21.5-6.8,32.6c-14.7,14.5-20,28.6-20,28.6l-54.5,5.5C64.6,514.4,82.3,445,82.3,445z"/>
			</g>
			<g>
				<path class="st25" d="M151.1,380.1l-18-8.1c3.9,0,28-7,28-7l4.5,1.6l-0.1,4.1C158.2,375.5,151.1,380.1,151.1,380.1z"/>
				<path class="st26" d="M192.7,376.6c5.4-7.1,4.4-16.8,0.7-20.6c-3.8-3.8-9.8,1.9-12.2,4.1c-1.2,1.1-8.5,5.9-15.6,10.6l0.1-4.1
					l0.4-22.8l0.3-18.5l69.7,6.8l0.1,77.7l-57.6-11.4c-0.3-0.4-6.3-1.8-6.3-1.8S187.4,383.8,192.7,376.6z"/>
				<path class="st26" d="M80,443.5c0,0,5.7-49.6,8.2-62.7c2.9-14.8,19.7-18.3,28.2-25.6c3.5-3,19.3-9.4,31.2-11.1
					c9.3-1.3,16-0.6,18.4-0.2l-0.4,22.8l-4.5-1.6c0,0-13.5,7.4-28,7l18,8.1c0,0,7.1-4.6,14.4-9.3c7.1-4.6,14.4-9.5,15.6-10.6
					c2.5-2.2,8.5-7.9,12.2-4.1c3.8,3.8,4.7,13.5-0.7,20.6c-5.4,7.1-20.4,20-20.4,20s5.9,1.4,6.3,1.8c1.2,1.6,4.5,5.6,7.5,9.9
					c3.4,4.6,6.5,9.4,6.5,11.1c0,3.6-5,8.1-13.7,4.1c-8.8-4-9.6-12.6-12.7-13.5c-3.1-0.9-7.4-1-7.4-1l-2.2,4.8
					c0,0,14.6,3.8,16.2,13.7c1.6,9.9-4.6,12.8-8.1,12.4c-3.5-0.4-7.5-1.2-8.8-6.9l-6.7,0.6c0,0-5.1,16.4-10.6,18.3
					c0,0,4.4,21.5-6.8,32.6c-14.7,14.5-20,28.6-20,28.6l-54.5,5.5C62.3,512.9,80,443.5,80,443.5z"/>
				<path class="st26" d="M181.2,360.2l-4.9,5.4c0,0,2,5.4,9.9,6.5c0,0,9.9-7.1,8.9-13.3"/>
				<path class="st26" d="M192.1,417.6l-3.8,1.3c0,0-4.7-6.4-5-9.8c-0.2-1.7,1.8-1.9,1.8-1.9"/>
				<path class="st26" d="M167.8,439.4c0,0-1.4-5.4-3.7-7.4c-0.4-0.3-0.2-0.9,0.2-1c1.7-0.5,4.7-1,5.5,1.7c1.3,4.8,0.2,5.8,0.2,5.8
					L167.8,439.4z"/>
				<path class="st26" d="M121.2,366.4c0,0,5.8,1.2,9.4,4.1c3.1,2.6,4.3,6.8,0.4,18.4"/>
				<path class="st26" d="M151.1,380.1c0,0-12.6,11.6-16.2,11.1c-3.6-0.4-17.8-14.8-21.4-14"/>
				<path class="st26" d="M134.9,391.2c0,0-4.3,0.8-9.3-2.6"/>
				<path class="st26" d="M172.4,396.7c0,0-11.4,8.1-13.5,12.4c-2.9,5.8-9.1,23-9.6,24.8"/>
				<path class="st26" d="M156,433.1c0,0-0.7-6.4,2.2-9"/>
				<path class="st26" d="M125.3,461.4c5.9-1.4,8.2-7.6,13.4-9.4"/>
				<line class="st26" x1="228.4" y1="346.6" x2="176.4" y2="340.5"/>
				<line class="st26" x1="176.9" y1="351.4" x2="226.2" y2="358.1"/>
			</g>
		</g>
	</g>
	<g>
		<defs>
			<rect id="SVGID_17_" x="0.1" y="-0.2" width="841.7" height="468"/>
		</defs>
		<clipPath id="SVGID_18_">
			<use xlink:href="#SVGID_17_"  style="overflow:visible;"/>
		</clipPath>
		<g class="st27">
			<path class="st11" d="M758.8,492.7c0,0-28.5-21.9-38.5-31.7c-10-9.8-54.9-21.1-60.7-22.6s-48.3-4.1-54.7-3.6
				c-6.1,0.4-7.9-3.1-8.5-5.5c-0.3-1.1-0.1-2.3,0.3-3.3c6.1-14.9,19.5-18.1,36.5-12.5c0.5,0.1,0.9,0.4,1.4,0.4
				c13.4-0.1,30.5-0.6,32-1.4c1.2-0.6,2.1-3.1,2.5-4.2c1.1-2.9,3.2-4.7,3.2-4.7s-41-87.8-41.5-95.9s-0.2-15.1,5.8-14.9
				s28.8,43.6,28.8,43.6s5.5-10.2,14.9-1.7l7.5,7.7c0,0,1.9-5.5,9.8-1.1s16.2,11.1,23.8,10.4c0,0,2.3-1.5,7.7-2.1
				c5.3-0.6,11,0.4,23.4,17.9c12.6,17.7,25.5,65.6,25.5,65.6l56.4,47.9"/>
			<path class="st28" d="M759.3,496c0,0-28.5-21.9-38.5-31.7c-10-9.8-54.9-21.1-60.7-22.6s-48.3-4.1-54.7-3.6
				c-6.1,0.4-7.9-3.1-8.5-5.5c-0.3-1.1-0.1-2.3,0.3-3.3c6.1-14.9,19.5-18.1,36.5-12.5c0.5,0.1,0.9,0.4,1.4,0.4
				c13.4-0.1,30.5-0.6,32-1.4c1.2-0.6,2.1-3.1,2.5-4.2c1.1-2.9,3.2-4.7,3.2-4.7s-41-87.8-41.5-95.9s-0.2-15.1,5.8-14.9
				s28.8,43.6,28.8,43.6s5.5-10.2,14.9-1.7l7.5,7.7c0,0,1.9-5.5,9.8-1.1s16.2,11.1,23.8,10.4c0,0,2.3-1.5,7.7-2.1
				c5.3-0.6,11,0.4,23.4,17.9c12.6,17.7,25.5,65.6,25.5,65.6l56.4,47.9"/>
			<g>
				<path class="st29" d="M758.8,492.7c0,0-28.5-21.9-38.5-31.7c-10-9.8-54.9-21.1-60.7-22.6s-48.3-4.1-54.7-3.6
					c-6.1,0.4-7.9-3.1-8.5-5.5c-0.3-1.1-0.1-2.3,0.3-3.3c6.1-14.9,19.5-18.1,36.5-12.5c0.5,0.1,0.9,0.4,1.4,0.4
					c13.4-0.1,30.5-0.6,32-1.4c1.2-0.6,2.1-3.1,2.5-4.2c1.1-2.9,3.2-4.7,3.2-4.7s-41-87.8-41.5-95.9s-0.2-15.1,5.8-14.9
					s28.8,43.6,28.8,43.6s5.5-10.2,14.9-1.7l7.5,7.7c0,0,1.9-5.5,9.8-1.1s16.2,11.1,23.8,10.4c0,0,2.3-1.5,7.7-2.1
					c5.3-0.6,11,0.4,23.4,17.9c12.6,17.7,25.5,65.6,25.5,65.6l56.4,47.9"/>
				<path class="st29" d="M687.7,342.4c0,0,16,20,27.7,22.1"/>
				<path class="st29" d="M665.3,336.5c0,0,16.4,27.3,19,33.9s3.6,8.9,3.6,8.9"/>
				<path class="st29" d="M646.3,304.3c-1.5,0.4-5.1,4.7-7.2,2.1c-2.1-2.6-8.1-7.9-7-11.3"/>
				<path class="st29" d="M633.1,413.5c0.4,1.1,0.6,3.6,0.3,5.9"/>
				<path class="st29" d="M672.3,403.6c0,0,4.3,9.5,4.1,12.9"/>
			</g>
		</g>
	</g>
	<g>
		<defs>
			<rect id="SVGID_19_" x="0.1" y="-0.2" width="841.7" height="468"/>
		</defs>
		<clipPath id="SVGID_20_">
			<use xlink:href="#SVGID_19_"  style="overflow:visible;"/>
		</clipPath>
		<g class="st30">
			<path class="st11" d="M880,124.2c-1.6,0.9-129.6,54-160.8,58.8c0,0-23.8,4.3-36.3,13.6s-32.2,14.6-35.8,16.3
				c-3.6,1.7-6.6,7.3,0,10.8c4.8,2.6,10.1,1.3,16.1,0.1c9.2-1.9,32-14.6,32-14.6l-24.4,15.9l-29.2,25c0,0-5.7,4.3-8.9,9.2
				c-2.1,3.3-3.1,6.8-0.7,9.6c2.1,2.4,7.4,3.2,12.7,0.9c8.1-3.6,40.8-29.1,47.9-35.4c0.8-0.7,22.3-17.2,19.7-14.7
				c-3.8,3.6-30.2,23.1-30.2,23.1s-27.8,22.6-30.5,35.6c-1,5,3.5,9.4,12,8c12-1.9,41.6-31.5,41.6-31.5l30-23.6l-23.8,21.8
				c-0.9,0.8-11.2,11.7-13.5,14.6c-0.4,0.5-21.7,16.7-20.2,23.1c1.7,7.2,14.2,6.9,20.6,2c6.3-5,51.7-44.7,51.7-44.7
				s-1.6,6.3-5.2,12.8c-3.6,6.5-6.3,9.9-15.6,23.5c0,0-10.4,14.9-1.9,15.4c13.2,0.9,19.8-8.2,23.9-15.4c4.1-7.2,30.6-45.2,33.3-50
				c6.7-11.8,24.2-18,36.6-20.6c12.4-2.6,56.6-15.3,56.6-15.3"/>
			<path class="st24" d="M881.7,124.9c-1.6,0.9-129.6,54-160.8,58.8c0,0-23.8,4.3-36.3,13.6s-32.2,14.6-35.8,16.3
				c-3.6,1.7-6.6,7.3,0,10.8c4.8,2.6,10.1,1.3,16.1,0.1c9.2-1.9,32-14.6,32-14.6l-24.4,15.9l-29.2,25c0,0-5.7,4.3-8.9,9.2
				c-2.1,3.3-3.1,6.8-0.7,9.6c2.1,2.4,7.4,3.2,12.7,0.9c8.1-3.6,40.8-29.1,47.9-35.4c0.8-0.7,22.3-17.2,19.7-14.7
				c-3.8,3.6-30.2,23.1-30.2,23.1S656,266,653.3,279c-1,5,3.5,9.4,12,8c12-1.9,41.6-31.5,41.6-31.5l30-23.6l-23.8,21.8
				c-0.9,0.8-11.2,11.7-13.5,14.6c-0.4,0.5-21.7,16.7-20.2,23.1c1.7,7.2,14.2,6.9,20.6,2c6.3-5,51.7-44.7,51.7-44.7
				s-1.6,6.8-5.5,12.8c-4.3,6.7-6.5,9.4-15.9,22.8c0,0-11.5,13.4-3.2,15.5c12.4,3.2,21.6-7.4,25.7-14.6s30.6-45.2,33.3-50
				c6.7-11.8,24.2-18,36.6-20.6c12.4-2.6,56.6-15.3,56.6-15.3"/>
			<path class="st31" d="M880,124.2c-1.6,0.9-129.6,54-160.8,58.8c0,0-23.8,4.3-36.3,13.6s-32.2,14.6-35.8,16.3
				c-3.6,1.7-6.6,7.3,0,10.8c4.8,2.6,10.1,1.3,16.1,0.1c9.2-1.9,32-14.6,32-14.6l-24.4,15.9l-29.2,25c0,0-5.7,4.3-8.9,9.2
				c-2.1,3.3-3.1,6.8-0.7,9.6c2.1,2.4,7.4,3.2,12.7,0.9c8.1-3.6,40.8-29.1,47.9-35.4c0.8-0.7,22.3-17.2,19.7-14.7
				c-3.8,3.6-30.2,23.1-30.2,23.1s-27.8,22.6-30.5,35.6c-1,5,3.5,9.4,12,8c12-1.9,41.6-31.5,41.6-31.5l30-23.6l-23.8,21.8
				c-0.9,0.8-11.2,11.7-13.5,14.6c-0.4,0.5-21.7,16.7-20.2,23.1c1.7,7.2,14.2,6.9,20.6,2c6.3-5,51.7-44.7,51.7-44.7
				s-1.8,6.2-5.2,12.8c-3.9,7.6-7.2,9.4-15.6,23.5c0,0-9,11.5-3.7,14.7c11.2,6.7,21.6-7.4,25.7-14.6s30.6-45.2,33.3-50
				c6.7-11.8,24.2-18,36.6-20.6c12.4-2.6,56.6-15.3,56.6-15.3"/>
			<path class="st31" d="M659.8,208.1c0,0-0.3,5.2-3.5,5.7c-3.3,0.5-9.8,3.4-9.8,3.4l0.5-4.3"/>
			<path class="st31" d="M638,270.4c0,0,9.1-8.6,6.6-11.3c-2.5-2.7-5.4-2.6-10.5-0.1C629,261.5,638,270.4,638,270.4z"/>
			<path class="st31" d="M654.1,275.2c0.1-0.4,8.9-8.9,11.9-2.7s-4,12.8-4,12.8S650.5,285.7,654.1,275.2z"/>
			<path class="st31" d="M678.7,287.6c0.2-0.6,9.7-7.9,12.7-4.4c3,3.5-5.1,12-5.1,12S676.5,293.4,678.7,287.6z"/>
			<line class="st31" x1="749.8" y1="248.1" x2="754.4" y2="243.8"/>
			<path class="st31" d="M723.5,295.7c0,0,8.6-8.6,10.9-7.3s-1.7,11.3-1.7,11.3S725.4,299.2,723.5,295.7z"/>
		</g>
	</g>
	<g>
		<defs>
			<rect id="SVGID_21_" x="0.1" y="-0.2" width="841.7" height="468"/>
		</defs>
		<clipPath id="SVGID_22_">
			<use xlink:href="#SVGID_21_"  style="overflow:visible;"/>
		</clipPath>
		<g class="st32">
			<g>
				<path class="st11" d="M677.4,91.5c-6,5.2-7,14-4.4,18c2.6,4,8.9,0.2,11.5-1.3c1.3-0.8,8.6-3.6,15.7-6.4l-0.8,3.6l-4.6,19.9
					l-5.2,30.8l-118.8-42.7l34.7-76.4l88.4,37.9c0.2,0.4,5.2,2.8,5.2,2.8S683.5,86.2,677.4,91.5z"/>
				<path class="st11" d="M793.1,56.1c0,0-18.3,40.2-23,51.2c-5.3,12.4-20.8,12.4-29.5,17.3c-3.7,2-18.7,4.7-29.5,4
					c-8.5-0.6-14.2-2.5-16.2-3.3l4.6-19.9l3.6,2.3c0,0,13.2-4,26-0.9l-14.3-10.4c0,0-7.1,2.7-14.4,5.5c-7.1,2.8-14.4,5.7-15.7,6.4
					c-2.6,1.5-8.9,5.4-11.5,1.3c-2.6-4-1.6-12.8,4.4-18S699,77.7,699,77.7s-4.9-2.3-5.2-2.8c-0.8-1.6-2.9-5.8-4.8-10.1
					c-2.1-4.7-4-9.5-3.6-10.9c0.7-3.2,5.9-6.2,12.8-1.1c7,5.1,6.1,12.9,8.7,14.2c2.6,1.3,6.3,2.2,6.3,2.2l2.8-3.8
					c0,0-12.2-6-11.7-15.1c0.5-9,6.4-10.4,9.4-9.4c3,1,6.4,2.5,6.5,7.7l6,0.7c0,0,7.5-13.5,12.7-14.1c0,0,0.1-19.8,12.1-27.4
					c15.6-10,33.9-20.8,33.9-20.8l46.8,4.3C826.4-4.4,793.1,56.1,793.1,56.1z"/>
			</g>
			<g>
				<path class="st23" d="M675.7,89.7c-6,5.2-7.3,14.2-4.4,18c4.1,5.4,9.2,3,11.8,1.5c1.3-0.8,7.4-3.9,14.5-6.7l0,0l-4.5,20.9
					l-5.2,30.9l-117-40.9l34.7-76.4l86.7,36.1c0.2,0.4,5.2,2.8,5.2,2.8S681.7,84.5,675.7,89.7z"/>
				<path class="st33" d="M791.3,54.3c0,0-18.3,40.2-23,51.2c-5.3,12.4-20.8,12.4-29.5,17.3c-3.7,2-18.7,4.7-29.5,4
					c-8.5-0.6-11.9-2.8-14-3.6l4.6-18.3l1.3,1c0,0,13.2-4,26-0.9l-14.3-10.4c0,0-7.1,2.7-14.4,5.5c-7.1,2.8-14.4,5.7-15.7,6.4
					c-2.6,1.5-8.9,5.4-11.5,1.3c-2.6-4-1.6-12.8,4.4-18s21.6-13.8,21.6-13.8s-4.9-2.3-5.2-2.8c-0.8-1.6-2.9-5.8-4.8-10.1
					c-2.1-4.7-4-9.5-3.6-10.9c0.7-3.2,5.9-6.2,12.8-1.1c7,5.1,6.1,12.9,8.7,14.2c2.6,1.3,6.3,2.2,6.3,2.2l2.8-3.8
					c0,0-12.2-6-11.7-15.1c0.5-9,6.4-10.4,9.4-9.4c3,1,6.4,2.5,6.5,7.7l6,0.7c0,0,7.5-13.5,12.7-14.1c0,0,0.1-19.8,12.1-27.4
					c15.6-10,33.9-20.8,33.9-20.8l46.8,4.3C824.6-6.1,791.3,54.3,791.3,54.3z"/>
				<path class="st34" d="M689.1,104.1c0.1-1.1,0.8-7.1-3.9-8.8l-7.7,4.5l-4.9,4.7c0,0-0.6,5.8,2.6,6.2
					C678.4,111,689.1,104.1,689.1,104.1z"/>
				<path class="st34" d="M685.6,55.6l3.6-0.5c0,0,3.2,8.4,1.2,9.1c-1.9,0.7-0.5,1.7-0.9,0.7C688.9,63.8,685.6,55.6,685.6,55.6z"/>
				<path class="st34" d="M711.1,41c0,0,1.2,7,2.1,7.6c0.9,0.6-5.2-0.9-4.8-4.7C709,40.2,711.1,41,711.1,41z"/>
			</g>
			<g>
				<path class="st25" d="M714.6,96.2l14.3,10.4c-3.5-0.7-26,0.9-26,0.9l-3.6-2.3l0.8-3.6C707.5,98.9,714.6,96.2,714.6,96.2z"/>
				<path class="st35" d="M677.4,91.5c-6,5.2-7,14-4.4,18c2.6,4,8.9,0.2,11.5-1.3c1.3-0.8,8.6-3.6,15.7-6.4l-0.8,3.6l-4.6,19.9
					l-5.2,30.8l-116.3-40.7L608,39l85.9,35.9c0.2,0.4,5.2,2.8,5.2,2.8S683.5,86.2,677.4,91.5z"/>
				<path class="st35" d="M793.1,56.1c0,0-18.3,40.2-23,51.2c-5.3,12.4-20.8,12.4-29.5,17.3c-3.7,2-18.7,4.7-29.5,4
					c-8.5-0.6-14.2-2.5-16.2-3.3l4.6-19.9l3.6,2.3c0,0,13.2-4,26-0.9l-14.3-10.4c0,0-7.1,2.7-14.4,5.5c-7.1,2.8-14.4,5.7-15.7,6.4
					c-2.6,1.5-8.9,5.4-11.5,1.3c-2.6-4-1.6-12.8,4.4-18S699,77.7,699,77.7s-4.9-2.3-5.2-2.8c-0.8-1.6-2.9-5.8-4.8-10.1
					c-2.1-4.7-4-9.5-3.6-10.9c0.7-3.2,5.9-6.2,12.8-1.1c7,5.1,6.1,12.9,8.7,14.2c2.6,1.3,6.3,2.2,6.3,2.2l2.8-3.8
					c0,0-12.2-6-11.7-15.1c0.5-9,6.4-10.4,9.4-9.4c3,1,6.4,2.5,6.5,7.7l6,0.7c0,0,7.5-13.5,12.7-14.1c0,0,0.1-19.8,12.1-27.4
					c15.6-10,33.9-20.8,33.9-20.8l46.8,4.3C826.4-4.4,793.1,56.1,793.1,56.1z"/>
				<path class="st35" d="M684.5,108.2l5.3-3.9c0,0,2.2-6.6-4.6-9.1c0,0-13,5.9-13.2,11.5"/>
				<path class="st35" d="M685.6,55.6l3.6-0.5c0,0,2.9,6.5,2.6,9.6c-0.1,1.5-2,1.3-2,1.3"/>
				<path class="st35" d="M711,40.9c0,0,0.2,5,1.9,7.2c0.2,0.3,0,0.8-0.4,0.8c-1.6,0.1-4.4,0-4.5-2.5c-0.3-4.4,0.9-5.1,0.9-5.1
					L711,40.9z"/>
				<path class="st35" d="M738.4,113.8c0,0-4.9-2.1-7.5-5.4c-2.2-2.9-2.5-6.8,3.1-16.3"/>
				<path class="st35" d="M714.6,96.2c0,0,13.2-7.8,16.3-6.8s12.9,16.3,16.2,16.3"/>
				<path class="st35" d="M730.9,89.5c0,0,3.9,0.1,7.7,4"/>
				<path class="st35" d="M699,77.7c0,0,11.5-5,14.2-8.4c3.6-4.5,12.3-18.6,13-20"/>
				<path class="st35" d="M720.2,48.7c0,0-0.6,5.8-3.6,7.5"/>
				<path class="st35" d="M752.4,29.5c-5.5,0.1-8.6,5.2-13.5,5.7"/>
				<line class="st35" x1="664.3" y1="96.2" x2="605.7" y2="75.7"/>
				<line class="st35" x1="680" y1="139.3" x2="590.2" y2="107.8"/>
				<line class="st35" x1="684.9" y1="124.3" x2="597.1" y2="92.3"/>
				<line class="st35" x1="656.9" y1="76.3" x2="610.8" y2="58.5"/>
			</g>
		</g>
	</g>
	<g>
		<defs>
			<rect id="SVGID_23_" x="0.1" y="-0.2" width="841.7" height="468"/>
		</defs>
		<clipPath id="SVGID_24_">
			<use xlink:href="#SVGID_23_"  style="overflow:visible;"/>
		</clipPath>
		<g class="st36">
			<path class="st11" d="M86.9,21.8c1.1-1-0.7-2.4-1.8-2.4l-71-26.8L-84,74.5c0,0,108.4-4.8,157.5-6.9c0.6,0,0.8-0.3,0.8-0.6
				C72.8,56.8,72.6,37.6,86.9,21.8z"/>
			<path class="st11" d="M221.6,47.4c-10.1-4.1-61.9-12.1-80.8-9.8c-15.5,1.8-44.2-11.1-53.9-15.8C72.6,37.6,72.8,56.9,74.3,67
				c12.8-0.5,21.3-0.8,22.2-0.7c4.6,0.6,1.1-1.1,9.7,14.5s41.1,14.4,41.1,14.4s0.3,1.8,3.5,6.6c3.2,4.8,14.8,1.3,14.8,1.3
				s14.2,6.4,22.1,2c7.9-4.3,2-12.8,2-12.8s4.3,0.3,7.1-4.4s-3.2-22.3-3.2-22.3c5.5-1.8,25.8,1.1,38.5,1.4
				c12.7,0.3,20.9-3.6,20.5-7.3S231.7,51.5,221.6,47.4z M180.5,82.4l-8.9,0.8l-8.6-4.3l14.5-7.3C177.6,71.6,177.8,80.6,180.5,82.4z"
				/>
			<g>
				<path class="st25" d="M169.8,86l8.9-0.8c-2.7-1.8-2.9-10.8-2.9-10.8l-14.5,7.3L169.8,86z"/>
				<path class="st37" d="M219.7,50.1c-10.1-4.1-61.9-12.1-80.8-9.8C123.4,42.1,94.7,29.2,85,24.5C70.7,40.4,70.9,59.6,72.4,69.8
					c12.8-0.5,21.3-0.8,22.2-0.7c4.6,0.6,1.1-1.1,9.7,14.5S145.4,98,145.4,98s0.3,1.8,3.5,6.6c3.2,4.8,16.1,0.2,16.1,0.2
					s12.9,7.5,20.8,3.2s2.3-14.5,2.3-14.5s4,2,6.7-2.7c2.8-4.7-3.2-22.3-3.2-22.3c5.5-1.8,25.8,1.1,38.5,1.4s20.9-3.6,20.5-7.3
					S229.8,54.2,219.7,50.1z M178.6,85.2l-4.9,0.1l-11.1-5.6l13.1-5.4C175.7,74.4,175.9,83.3,178.6,85.2z"/>
				<g>
					<g>
						<defs>
							<path id="SVGID_25_" d="M83.2,22.1L-0.3-9.9l-85.6,87.2c0,0,108.4-4.8,157.5-6.9c0.6,0,0.8-0.3,0.8-0.6
								C70.9,59.6,70.7,40.4,85,24.5C86.1,23.5,84.3,22.1,83.2,22.1z"/>
						</defs>
						<clipPath id="SVGID_26_">
							<use xlink:href="#SVGID_25_"  style="overflow:visible;"/>
						</clipPath>
						<path class="st38" d="M83.2,22.1l-93.4-34.9l-75.7,90c0,0,108.4-4.8,157.5-6.9c0.6,0,0.8-0.3,0.8-0.6
							C70.9,59.6,70.7,40.4,85,24.5C86.1,23.5,84.3,22.1,83.2,22.1z"/>
					</g>
					<g>
						<defs>
							<path id="SVGID_27_" d="M83.2,22.1L-0.3-9.9l-85.6,87.2c0,0,108.4-4.8,157.5-6.9c0.6,0,0.8-0.3,0.8-0.6
								C70.9,59.6,70.7,40.4,85,24.5C86.1,23.5,84.3,22.1,83.2,22.1z"/>
						</defs>
						<clipPath id="SVGID_28_">
							<use xlink:href="#SVGID_27_"  style="overflow:visible;"/>
						</clipPath>
						<path class="st39" d="M61.6,55.4c-5.2-5.4-11.1-4.1-16.9,0.9c-2.7,2.3-6.9,3.7-7.2,7.2c-0.2,3.4,1,7.5,3.4,10
							c5.2,5.4,13.6,6.4,19.4,1.3c2.7-2.3,4.4-5.9,4.7-9.4C65.2,62,63.9,57.9,61.6,55.4z"/>
					</g>
					<g>
						<defs>
							<path id="SVGID_29_" d="M83.2,22.1L-0.3-9.9l-85.6,87.2c0,0,108.4-4.8,157.5-6.9c0.6,0,0.8-0.3,0.8-0.6
								C70.9,59.6,70.7,40.4,85,24.5C86.1,23.5,84.3,22.1,83.2,22.1z"/>
						</defs>
						<clipPath id="SVGID_30_">
							<use xlink:href="#SVGID_29_"  style="overflow:visible;"/>
						</clipPath>
						<path class="st40" d="M70.5,13.4C65.2,7.8,56.4,6.8,50.4,12c-2.8,2.4-4.6,6.1-4.8,9.8c-0.2,3.5,1,7.8,3.5,10.4
							c5.3,5.6,10.9,4.3,16.9-1c2.8-2.4,7.8-3.8,8.1-7.4C74.2,20.3,73,16,70.5,13.4z"/>
					</g>
					<g>
						<defs>
							<path id="SVGID_31_" d="M83.2,22.1L-0.3-9.9l-85.6,87.2c0,0,108.4-4.8,157.5-6.9c0.6,0,0.8-0.3,0.8-0.6
								C70.9,59.6,70.7,40.4,85,24.5C86.1,23.5,84.3,22.1,83.2,22.1z"/>
						</defs>
						<clipPath id="SVGID_32_">
							<use xlink:href="#SVGID_31_"  style="overflow:visible;"/>
						</clipPath>
						<path class="st41" d="M29.9,31.2C24.9,25.9,19,25,13.3,30c-2.6,2.3-6.9,5.8-7.1,9.2c-0.2,3.3,1,7.4,3.3,9.8
							c5.1,5.3,13.4,6.3,19.1,1.3c2.6-2.3,4.4-5.8,4.6-9.3C33.5,37.8,32.3,33.7,29.9,31.2z"/>
					</g>
					<g>
						<defs>
							<path id="SVGID_33_" d="M83.2,22.1L-0.3-9.9l-85.6,87.2c0,0,108.4-4.8,157.5-6.9c0.6,0,0.8-0.3,0.8-0.6
								C70.9,59.6,70.7,40.4,85,24.5C86.1,23.5,84.3,22.1,83.2,22.1z"/>
						</defs>
						<clipPath id="SVGID_34_">
							<use xlink:href="#SVGID_33_"  style="overflow:visible;"/>
						</clipPath>
						<path class="st42" d="M-2.3,57.2c-4.4-4.7-11.7-5.5-16.8-1.1c-2.3,2-3.8,5.1-4,8.1c-0.2,2.9,0.9,6.5,2.9,8.6
							c4.4,4.7,11.7,5.5,16.8,1.1c2.3-2,3.8-5.1,4-8.1C0.8,62.9-0.3,59.3-2.3,57.2z"/>
					</g>
					<g>
						<defs>
							<path id="SVGID_35_" d="M83.2,22.1L-0.3-9.9l-85.6,87.2c0,0,108.4-4.8,157.5-6.9c0.6,0,0.8-0.3,0.8-0.6
								C70.9,59.6,70.7,40.4,85,24.5C86.1,23.5,84.3,22.1,83.2,22.1z"/>
						</defs>
						<clipPath id="SVGID_36_">
							<use xlink:href="#SVGID_35_"  style="overflow:visible;"/>
						</clipPath>
						<path class="st43" d="M31.2-0.3C26.7-5,21.8-3.5,16.8,0.9c-2.3,2-6.2,2.7-6.4,5.8c-0.2,2.9,0.9,6.5,2.9,8.6
							c4.4,4.7,11.7,5.5,16.8,1.1c2.3-2,3.8-5.1,4-8.1C34.3,5.4,33.2,1.8,31.2-0.3z"/>
					</g>
				</g>
			</g>
			<path class="st12" d="M189.6,92.3c0,0-3.6-5.5-17.9-9.1"/>
			<g>
				<g>
					<path class="st25" d="M171.6,83.2l8.9-0.8c-2.7-1.8-2.9-10.8-2.9-10.8L163,78.9L171.6,83.2z"/>
					<path class="st12" d="M86.9,21.8c1.1-1-0.7-2.4-1.8-2.4L-0.1-12.5l-83.9,87c0,0,108.4-4.8,157.5-6.9c0.6,0,0.8-0.3,0.8-0.6
						C72.8,56.8,72.6,37.6,86.9,21.8z"/>
					<path class="st12" d="M221.6,47.4c-10.1-4.1-61.9-12.1-80.8-9.8c-15.5,1.8-44.2-11.1-53.9-15.8C72.6,37.6,72.8,56.9,74.3,67
						c12.8-0.5,21.3-0.8,22.2-0.7c4.6,0.6,1.1-1.1,9.7,14.5s41.1,14.4,41.1,14.4s0.3,1.8,3.5,6.6c3.2,4.8,14.8,1.3,14.8,1.3
						s14.2,6.4,22.1,2c7.9-4.3,2-12.8,2-12.8s4.3,0.3,7.1-4.4s-3.2-22.3-3.2-22.3c5.5-1.8,25.8,1.1,38.5,1.4
						c12.7,0.3,20.9-3.6,20.5-7.3S231.7,51.5,221.6,47.4z M180.5,82.4l-8.9,0.8l-8.6-4.3l14.5-7.3C177.6,71.6,177.8,80.6,180.5,82.4
						z"/>
				</g>
				<line class="st12" x1="147.3" y1="95.2" x2="165.6" y2="103.1"/>
				<path class="st12" d="M177.6,71.6c0,0,10.7-4.7,15.9-6"/>
				<path class="st12" d="M163,78.9c-0.9-0.1-10.3-7.1-14.4-12.1"/>
				<path class="st12" d="M159.9,76.7c0.6-0.6,2.5-3.3,6.3-8.5s9-10.9,10.8-10.4"/>
				<path class="st12" d="M191.5,97.9c0,0-6.7-3.9-9.9-1.3c-3.2,2.6-3.6,6.4-2.4,7.8c1.2,1.4,4.6,2.1,4.6,2.1"/>
			</g>
		</g>
	</g>
	<g>
		<defs>
			<rect id="SVGID_37_" x="0.1" y="-0.2" width="841.7" height="468"/>
		</defs>
		<clipPath id="SVGID_38_">
			<use xlink:href="#SVGID_37_"  style="overflow:visible;"/>
		</clipPath>
		<g class="st44">
			<g>
				<path class="st11" d="M402,456.8c-0.7,2.6,6.6,5.5,8.1,7.7c0.6,0.8,1.1,2.2,1.5,3.7c6.6,0.3,13.2,1.1,19.7,1.3
					c14.5,0.5,29.1,0.8,43.6,1c5.5,0.1,10.9,0.1,16.4,0.2c0.5-12.9-13.4-19.2-17.9-25.7c-5.1-7.4-35.6-27.7-40.5-33.6
					c-5-5.9-20.5-18-28-16.7c-3.2,0.5-4.7,2.3-5.4,4.1l18.8,10.5c-4.1,4.4-3.3,11.1-3.3,11.1c-0.3-0.1-13.1-7.4-28.5-16.2h-0.9
					c-13.8,5.8,5.3,19.6,5.3,19.6c-9-6.4-10.7-2.3-10.7-2.3c-4.9,8.9,21.5,21.9,21.5,21.9s-22.3-1-24.1,7
					C375.6,458.4,402,456.8,402,456.8z"/>
				<path class="st11" d="M418.4,409.2l-18.8-10.5l-64.5-35.9l-12.2-2c-1-0.2-1.6,1-0.9,1.7l9.8,10.2c0,0,30.7,17.5,54.8,31.3
					c15.5,8.8,28.3,16.1,28.5,16.2C415.1,420.3,414.3,413.6,418.4,409.2z"/>
			</g>
			<g>
				<path class="st45" d="M400.7,460.2c-0.7,2.6,6.6,5.5,8.1,7.7c0,0.1,0.1,0.2,0.2,0.2c7.5,0.2,15,1.2,22.4,1.4
					c14.5,0.5,29.1,0.8,43.6,1c5,0.1,9.9,0.1,14.9,0.1c-1.7-10.7-13.6-16.4-17.7-22.3c-5.1-7.4-35.6-27.7-40.5-33.6
					c-5-5.9-20.5-18-28-16.7c-3.2,0.5-3.3,1.5-4,2.3l18,9.7c-4.1,4.4-3.8,13.7-3.8,13.7c-0.3-0.1-13.1-7.4-28.5-16.2h-0.9
					c-13.8,5.8,5.3,19.6,5.3,19.6c-9-6.4-10.7-2.3-10.7-2.3c-4.9,8.9,21.5,21.9,21.5,21.9s-22.3-1-24.1,7
					C374.3,461.8,400.7,460.2,400.7,460.2z"/>
				<path class="st34" d="M416.4,412l-18.1-9.9l-64.5-35.9l-12.2-2c-1-0.2-1.6,1-0.9,1.7l9.8,10.2c0,0,30.7,17.5,54.8,31.3
					c15.5,8.8,28.3,16.1,28.5,16.2C413.8,423.7,412.2,416.4,416.4,412z"/>
			</g>
			<g>
				<g>
					<path class="st46" d="M490.5,469.2c-0.5-6-4.4-10.6-8.6-14.6c-2.8-2.5-5.6-4.8-8.2-7.4c-2.4-3.5-5.6-6.3-9-9
						c-0.1-0.1-0.2-0.3-0.3-0.4c-7.2-5.8-14-10.8-21.5-16.5c-2.9-2.2-5.5-4.4-8.3-6.7c-2.3-2-4-4.3-6.3-6.3c-1.9-1.6-3.4-3-5.4-4.5
						c-2.7-2-5.2-3.6-8.1-5.3c-0.7-0.5-1.6-0.7-2.3-1.1c-1.7-0.8-3.4-1.5-5.2-1.9c-1.6-0.3-3.2-0.3-4.6,0.2
						c-0.2,0.1-0.4,0.2-0.6,0.3c-0.7,0.4-1.5,0.8-2,1.4c-0.6,0.6-1.1,1.3-1.2,2.1c6.2,3.5,12.5,7,18.8,10.5c-1.5,1.6-0.2-0.1,0,0
						c-1.5,1.6-2.4,3.6-2.9,5.6c-0.4,1.5-0.5,3-0.5,4.6c0,0.3,0,0.6,0,0.9c-0.7-0.4-1.4-0.8-2.1-1.2c-8.8-5.1-17.3-9.8-26.2-15
						c-0.3-0.2-0.6-0.1-1-0.1c-0.9,0.2-1.7,0.8-2.5,1.3c-0.6,0.3-0.8,0.8-1.3,1.2c-0.6,0.6-0.8,1.4-1,2.1c-0.4,1.2-0.3,2.3,0.1,3.4
						c0.3,0.9,0.7,1.7,1.2,2.5c0.5,0.8,1.1,1.6,1.7,2.4c1,1.3,2.1,2.3,3.2,3.4c1.2,1.1,2.5,2.1,3.8,3.2c-2.1-1.5,0,0,0,0
						c-2.4-1.7-5.1-3.5-8.2-3.6c-1.2,0-2.3,0.6-2.8,1.8c-0.3,0.7-0.5,1.6-0.4,2.4c0.2,1.7,0.9,3.1,2,4.5c1.6,2.1,3.4,3.7,5.4,5.4
						c4.7,3.7,9.6,6.6,14.7,9.2c-0.2,0,0,0,0,0c-2.8,0-5.5,0-8.3,0.2c-1.2,0.1-2.4,0.2-3.6,0.4c-1.1,0.2-2,0.3-3.2,0.6
						c-2.1,0.6-4.1,1.1-6,2.1c-0.1,0.1-0.2,0.2-0.3,0.3c-1.9,1-3.4,3.2-2.7,5.4c0.5,1.2,1.7,2,2.8,2.5c3,1.2,6,1.7,9.2,2
						c1.8,0.2,3.5,0.2,5.3,0.3c2.4,0.1,4.7,0,7.1-0.1c-0.2,0.7,0,0,0,0c-0.2,1.3,0.8,2.2,1.8,2.9c2.5,2.1,6,3.2,7.2,6.4"/>
					<path class="st46" d="M417.6,410l-18.8-10.5l-64.5-35.9l-12.2-2c-1-0.2-1.6,1-0.9,1.7l9.8,10.2c0,0,30.7,17.5,54.8,31.3
						c15.5,8.8,28.3,16.1,28.5,16.2C414.2,421.1,413.5,414.4,417.6,410z"/>
				</g>
				<path class="st46" d="M467.1,468.8c-0.1-0.7-0.4-1.4-0.8-2"/>
				<path class="st46" d="M426,467.9c0.6-2.1,0.9-4.1,0.8-6.2c-0.2-2-1-3.7-1.8-5.6c-2.8-7.4-5.4-14.6-7.8-22.2
					c-0.6-2-1.2-4-1.8-6.1c-0.5-2-0.9-4-1.2-6.1c-0.3-2.4-0.1-4.8,0.6-7.2c0.6-1.9,1.6-3.4,3-4.7c1.5-1.3,3.6-2.1,5.5-1.4
					c2.6,1.2,4,3.6,5.7,6c3.5,4.9,6.1,9.8,8.8,15c1.4,2.7,2.3,5.3,3.2,8.2c0.2,0.7,0.4,1.5,0.6,2.2c0.1,0.3,0.1,0.6,0.2,0.9
					c0.3,0.6,0.5,1.5,0.7,2.1c0.1,0.3,0.1,0.6,0.2,0.9c1.6,4.9,3.2,9.8,6,14c3,3.5,5.5,7.5,8.2,11.2"/>
				<path class="st46" d="M401.6,444.3c0,0,9.9,7.3,16.1,8.9c6,1.5,6,0.1,6,0.1"/>
				<path class="st46" d="M390.1,424.5c0,0,22.1,9.5,25.5,11c3.4,1.4,2.3,0.9,2.3,0.9"/>
				<path class="st46" d="M401.2,457.6c0,0,4.5-1.5,4.5-2.5"/>
				<path class="st46" d="M409.4,465.3c1.1-1,5.6-2.1,7.6-7.2"/>
				<path class="st46" d="M440.4,436c1,0.6,8.7,2.8,10.6,2.7"/>
				<path class="st46" d="M467.4,449.9c0,0-12.5,4.5-17.1,2.5"/>
				<path class="st46" d="M429.1,414.2c0,0,2.2,11.8-3.5,11.6s-10.8-11.5-10.8-11.5"/>
			</g>
		</g>
	</g>
</g>
</svg>
