<?xml version="1.0" encoding="utf-8"?>
<!-- Generator: Adobe Illustrator 24.0.3, SVG Export Plug-In . SVG Version: 6.00 Build 0)  -->
<svg version="1.1" xmlns="http://www.w3.org/2000/svg" xmlns:xlink="http://www.w3.org/1999/xlink" x="0px" y="0px"
	 viewBox="0 0 841.89 467.72" style="enable-background:new 0 0 841.89 467.72;" xml:space="preserve">
<style type="text/css">
	.st0{fill:#DCEFFA;}
	.st1{fill:#F4F4F5;}
	.st2{fill:#EF9266;}
	.st3{clip-path:url(#SVGID_2_);}
	.st4{fill:#FFFFFF;}
	.st5{fill:#54575C;}
	.st6{fill:#C6815B;}
	.st7{fill:#E8A576;}
	.st8{fill:none;}
	.st9{fill:#54575C;stroke:#54575C;stroke-miterlimit:10;}
	.st10{fill:none;stroke:#54575C;stroke-miterlimit:10;}
	.st11{fill:#54575C;stroke:#54575C;stroke-width:0.954;stroke-miterlimit:10;}
	.st12{fill:#2491FF;}
	.st13{fill:#0B4778;}
	.st14{fill:#112F4E;}
	.st15{clip-path:url(#SVGID_4_);}
	.st16{fill:#235485;}
	.st17{fill:#E0635D;}
</style>
<g id="Layer_1">
</g>
<g id="Layer_2">
</g>
<g id="Layer_3">
	<rect class="st0" width="841.89" height="467.72"/>
	<path class="st1" d="M551.03,98.25c-3.1-0.42-100.54-19.09-112.47-21.42c-0.93-0.18-1.87-0.37-2.8-0.55
		c-11.61-2.19-19.31,1.95-21.51,13.56l-31.83,153.41c8.6,10,13.41,29.87-11.95,63.19l-0.44,2.31l-9.48,50.16
		c-2.12,11.2,4.93,21.99,15.86,24.7c0.39,0.1,0.78,0.21,1.18,0.29l76.6,12.84l33.97,5.69c3.95,0.75,7.84,0.33,11.35-0.96
		c1.65-0.61,3.23-1.4,4.68-2.39c-3.98-3.07-8.98-8.11-10.23-14.64c-1.72-9.02,7.02-15.07,19.23-12.73c0.91,0.17,1.74,0.35,2.55,0.54
		l1.4-7.09c-0.14,0.09,0.08-0.91,0.49-2.49l3.74-18.97c-3.72-5.77-13.92-23.66-0.12-27.46c0.46-0.12,0.93-0.24,1.44-0.33
		c1.53-0.28,2.93-0.39,4.23-0.37l1.77-8.99l10.03-50.92c0,0,25.99-139.99,26.04-140.25c0.72-3.89,1.61-8.84-1.26-12.12
		C560.64,100,555.84,98.9,551.03,98.25z"/>
	<path class="st2" d="M561.48,269.31c-0.64-14.1-18.28-14.08-21.83-13.93l-10.03,50.92C537.85,300.51,562.07,282.34,561.48,269.31z"
		/>
	<path class="st2" d="M527.85,315.29c-1.3-0.02-2.7,0.09-4.23,0.37c-15.92,2.93-5.16,21.83-1.32,27.79l-3.74,18.97l-0.49,2.49
		c4.39-2.8,22.89-14.93,23.77-20.93C542.76,337.67,544.18,315.48,527.85,315.29z"/>
	<path class="st2" d="M524,379.57c0,0-2.24-3.02-12.26-5.33c-0.8-0.18-1.64-0.37-2.55-0.54c-12.21-2.34-20.95,3.71-19.23,12.73
		c1.24,6.53,6.25,11.56,10.23,14.64c-1.45,0.99-3.02,1.78-4.68,2.39c-3.51,1.3-7.4,1.71-11.35,0.96l-33.97-5.69l-76.6-12.84
		c-0.4-0.08-0.79-0.19-1.18-0.29c-10.93-2.71-17.98-13.5-15.86-24.7c0,0,9.63-52.09,9.92-52.47c25.36-33.32,22.19-53.3,13.59-63.29
		c-3.25-3.78-6.22-6.94-11.6-7.19c-10.49-0.49-17.2,40.9-40.12,68.8c-7.01,8.54-14.73,28.38-21.78,42.44
		c-10.33,20.6-14.92,43.17-15.31,58.42c-0.66,25.66-36.85,59.74-36.85,59.74s145.11,0.84,149.72,0
		c4.61-0.84,33.97-19.71,48.65-34.39c14.68-14.68,26-10.48,57.87-20.13C542.52,403.18,524,379.57,524,379.57z"/>
	<g>
		<defs>
			<path id="SVGID_1_" d="M547.03,106.04c-2.96-0.4-95.91-18.21-107.3-20.43c-0.89-0.17-1.78-0.35-2.68-0.52
				c-11.07-2.09-18.42,1.86-20.52,12.93l-31.71,149.92c5.34,9.15,4.58,25.68-10.93,53.64l0.46,5.28l-9.05,47.86
				c-2.02,10.69,4.7,20.98,15.13,23.57c0.38,0.09,0.74,0.2,1.13,0.27l73.07,12.25l32.4,5.43c3.77,0.71,7.48,0.32,10.83-0.92
				c1.58-0.58,0.98,2.28,2.36,1.34c-3.79-2.93-6.19-5.72-7.37-11.95c-1.64-8.61,6.65-14.69,18.3-12.46
				c0.86,0.17,1.66,0.34,2.43,0.51l1.09-12.08c-0.13,0.08,0.08-0.87,0.47-2.38l3.57-18.09c-3.55-5.5-13.28-22.57-0.12-26.19
				c0.44-0.12,0.89-0.22,1.37-0.31c1.46-0.27,2.8-0.37,4.04-0.36l1.69-8.58l9.57-48.58c0,0,24.8-133.55,24.84-133.8
				c0.69-3.71,1.53-8.43-1.2-11.56C556.19,107.7,551.62,106.66,547.03,106.04z"/>
		</defs>
		<use xlink:href="#SVGID_1_"  style="overflow:visible;fill:#4890BA;"/>
		<clipPath id="SVGID_2_">
			<use xlink:href="#SVGID_1_"  style="overflow:visible;"/>
		</clipPath>
		<g class="st3">
			<g>
				<path class="st4" d="M504.41,193.72c1.58-8.4,2.74-13.78,2.74-13.78s-3.08-18.21-20.17-22.69c-12.21-3.2-15.84,8.31-17.12,15.47
					c2.66,1.13,5.46,2.53,8.41,4.23C478.27,176.94,496.65,168.83,504.41,193.72z"/>
				<path class="st4" d="M467.37,309.27c-0.69-2.07-1.03-4.36-0.4-6.78c0.27-1.05,0.72-2.54,1.28-4.28
					c1.59-5.01,4.07-12.18,5.91-17.41c-0.11-0.06-0.22-0.12-0.33-0.18c-1.22,0.88-2.4,1.67-3.54,2.38
					c-4.58,2.83-8.55,4.32-11.86,5.02c-7.56,1.62-11.69-0.85-11.69-0.85c-6.65-5.08-11.07-11.65-14.03-18.13l-1.87,5.4l-2.14,6.17
					c0,0,1.09,4.65,4.65,8.75c1.25,1.44,2.15,2.44,2.75,3.47c1.1,1.89,1.14,3.87,0.26,8.84c-0.1,0.54-0.2,1.01-0.31,1.43
					c-0.3,1.18-0.63,1.88-0.94,2.31c-0.12,0.32-0.25,0.62-0.4,0.91c-0.05,0.1-0.11,0.19-0.16,0.29c-0.12,0.23-0.25,0.45-0.39,0.67
					c0.17,0.45,0.43,1.1,0.82,2.05c2.46,6.02,18.05,13.4,22.15,16.41c0.2,0.14,0.41,0.25,0.63,0.34c0.06,0.02,0.12,0.05,0.18,0.07
					c0.19,0.06,0.39,0.11,0.6,0.14c0.04,0.01,0.08,0.02,0.12,0.02c0.25,0.03,0.5,0.03,0.77,0.02c0.07,0,0.14-0.01,0.2-0.02
					c0.22-0.02,0.44-0.05,0.66-0.1c0.07-0.01,0.13-0.02,0.2-0.04c0.28-0.06,0.56-0.15,0.85-0.24c0.06-0.02,0.12-0.04,0.17-0.06
					c0.24-0.09,0.49-0.19,0.73-0.29c0.08-0.03,0.16-0.07,0.24-0.11c0.3-0.14,0.59-0.28,0.89-0.45c0.02-0.01,0.04-0.02,0.06-0.03
					c0.28-0.15,0.56-0.32,0.84-0.5c0.07-0.04,0.13-0.08,0.2-0.12c0.46-0.3,0.92-0.62,1.36-0.95c0.05-0.04,0.09-0.07,0.14-0.11
					c0.47-0.36,0.92-0.73,1.34-1.12c0.01-0.01,0.02-0.02,0.03-0.03c2.15-1.95,3.67-4.07,3.45-5.17
					C470.46,315.3,468.47,312.58,467.37,309.27z"/>
				<path class="st4" d="M454.67,335.03c0.49-0.51,0.96-0.99,1.43-1.46c0.13-0.13,0.25-0.25,0.37-0.38c0.41-0.41,0.81-0.8,1.2-1.19
					c0.05-0.05,0.1-0.09,0.14-0.14c0.44-0.43,0.87-0.84,1.29-1.24c0.12-0.11,0.23-0.22,0.35-0.33c0.35-0.33,0.69-0.65,1.02-0.97
					c0.07-0.07,0.15-0.14,0.22-0.21c0.13-0.13,0.26-0.25,0.39-0.37c0.19-0.18,0.39-0.37,0.58-0.54c0.1-0.1,0.2-0.19,0.3-0.28
					c0.31-0.29,0.61-0.57,0.9-0.85c0.08-0.07,0.16-0.15,0.24-0.22c0.33-0.32,0.65-0.63,0.96-0.93c0.06-0.06,0.12-0.12,0.18-0.18
					c0.25-0.25,0.5-0.5,0.73-0.74c0.05-0.05,0.09-0.1,0.14-0.14c-0.24-0.15-0.47-0.29-0.71-0.44c-0.04,0.02-0.08,0.04-0.11,0.07
					c-0.28,0.17-0.56,0.34-0.84,0.5c-0.02,0.01-0.04,0.02-0.06,0.03c-0.3,0.16-0.59,0.31-0.89,0.45c-0.08,0.04-0.16,0.07-0.24,0.11
					c-0.25,0.11-0.49,0.21-0.73,0.29c-0.06,0.02-0.12,0.04-0.17,0.06c-0.29,0.1-0.57,0.18-0.85,0.24c-0.07,0.02-0.13,0.03-0.2,0.04
					c-0.23,0.05-0.45,0.08-0.66,0.1c-0.07,0.01-0.14,0.02-0.2,0.02c-0.26,0.01-0.52,0.01-0.77-0.02c-0.04,0-0.08-0.02-0.12-0.02
					c-0.21-0.03-0.41-0.08-0.6-0.14c-0.06-0.02-0.12-0.04-0.18-0.07c-0.22-0.09-0.44-0.2-0.63-0.34
					c-4.1-3.01-19.69-10.39-22.15-16.41c-0.39-0.95-0.65-1.6-0.82-2.05c-11.52,3.25-16.13,8.06-16.13,8.06l-12.37,93.54l-1.3,9.81
					c0,0-5.84-1.22-4.88-2.74c-0.25,0.28-0.72,0.73-1.36,1.18l38.26,12c0.04-0.32,0.13-1.02,0.27-2.04
					C438.46,413.42,448.24,341.7,454.67,335.03z"/>
				<path class="st4" d="M508.84,226.72c-0.3-6.95-0.48-14.96-2.92-27.02c-0.44-2.18-0.95-4.16-1.52-5.98
					c-7.76-24.88-26.14-16.78-26.14-16.78c-2.95-1.7-5.82-2.94-8.41-4.23c-24.92-12.37-46.13,20.68-46.84,33.86
					c-0.76,14.14,1.03,25.65,0.76,18.54c-0.27-7.11,5.74-1.64,5.74-1.64l11.67-12.21c0,0,13.52-2.92,22.89-7.49
					c0.01-0.04,0.02-0.08,0.03-0.12c0.71-0.28,1.4-0.6,2.05-0.96c5.4-3.02,13.22-2.64,17.5,3.28c3.08,4.27-0.82,12.85,5.74,16.68
					c9.02,5.26,5.74,9.3,5.19,15.58c-0.55,6.29,1.37,7.38,1.37,7.38s0.3-0.4,0.77-0.92c1.4-1.54,4.36-4.13,5.8-0.45
					c0.57,1.46,0.05,3.88-1.01,6.6c3.7-3.62,7.26-7.17,8.8-8.89C516.3,235.21,509.13,233.35,508.84,226.72z"/>
				<path class="st4" d="M354.05,392.72c11.32-9,31.09-8.33,39.77-4.35c0.55,0.25,1.06,0.52,1.51,0.79
					c7.66,4.65,6.02,14.76,6.02,14.76l-1.64,1.91c0,0,0.09,0.38,0.2,0.98c0.44,2.22,2.9,7.12-0.2,8.87
					c-0.11,0.09-0.18,0.18-0.24,0.27c-0.96,1.52,4.88,2.74,4.88,2.74l1.3-9.81l12.37-93.54c0,0,7.02-5.5,16.13-8.06
					c0.25-0.07,0.27-0.44,0.39-0.67c0.05-0.1,0.11-0.19,0.16-0.29c0.14-0.29,0.27-0.6,0.4-0.91c0.31-0.43,0.64-1.13,0.94-2.31
					c0.11-0.42,0.21-0.88,0.31-1.43c0.89-4.97,0.85-6.94-0.26-8.84c-0.6-1.03-1.5-2.03-2.75-3.47c-3.55-4.1-4.65-8.75-4.65-8.75
					l2.14-6.17l1.87-5.4c-3.51-4.31-10.16,2.27-16.8,7.54c-9.3,7.38-12.65,7.86-12.65,7.86s-8.76,1.66-18.43,3.87
					c-11.12,2.54-23.44,5.82-25.05,8.16c-2.38,3.47-12.32,64.47-16.35,89.63c-1.05,6.58-1.7,10.72-1.7,10.72
					S342.02,402.29,354.05,392.72z"/>
				<path class="st4" d="M505.73,315.51c-2.58-1.98-5.38-3.76-8.41-5.37c-0.27-0.15-0.53-0.28-0.79-0.42
					c-12.45-6.66-9.15-6.38-13.97-17.9c-2.84-6.77-6.12-9.73-8.4-11.03c-1.83,5.23-4.31,12.4-5.91,17.41
					c-0.56,1.75-1,3.24-1.28,4.28c-0.63,2.42-0.29,4.71,0.4,6.78c1.1,3.31,3.09,6.03,3.43,7.71c0.22,1.1-1.29,3.23-3.45,5.17
					c0,0,0,0,0.01-0.01c-0.29,0.44-0.63,0.88-1.01,1.33c-0.01,0.01-0.01,0.01-0.02,0.02c-0.17,0.2-0.35,0.41-0.53,0.61
					c-0.07,0.08-0.14,0.15-0.21,0.23c-0.13,0.14-0.26,0.29-0.4,0.43c-0.03,0.03-0.05,0.06-0.08,0.09c-0.04,0.05-0.09,0.1-0.14,0.14
					c-0.23,0.24-0.48,0.49-0.73,0.74c-0.06,0.06-0.12,0.12-0.18,0.18c-0.31,0.3-0.63,0.61-0.96,0.93c-0.08,0.07-0.16,0.15-0.24,0.22
					c-0.29,0.28-0.59,0.56-0.9,0.85c-0.1,0.09-0.2,0.19-0.3,0.28c-0.19,0.18-0.38,0.36-0.58,0.54c-0.13,0.12-0.26,0.24-0.39,0.37
					c-0.07,0.07-0.15,0.14-0.22,0.21c-0.33,0.31-0.67,0.64-1.02,0.97c-0.12,0.11-0.23,0.22-0.35,0.33c-0.42,0.4-0.85,0.81-1.29,1.24
					c-0.05,0.05-0.1,0.09-0.14,0.14c-0.39,0.38-0.79,0.78-1.2,1.19c-0.12,0.12-0.25,0.25-0.37,0.38c-0.47,0.47-0.94,0.95-1.43,1.46
					c-6.43,6.67-16.21,78.39-18.02,92.08c-0.14,1.02-0.23,1.72-0.27,2.04l4.02,1.26l1.9,0.49l10.6,2.74l49.07,12.68l20.23-99.8
					C520.51,331.7,514.55,322.31,505.73,315.51z"/>
				<path class="st4" d="M399.48,415.96c0.06-0.09,0.11-0.2,0.24-0.27c1.51-1.29,0.64-6.65,0.2-8.87c-0.12-0.6-0.2-0.98-0.2-0.98
					l1.64-1.91c0,0,1.64-10.12-6.02-14.76c-0.46-0.28-0.96-0.54-1.51-0.79c-8.68-3.98-28.46-4.65-39.77,4.35
					c-12.03,9.57-12.3,4.1-12.3,4.1s0.65-4.14,1.7-10.72c-1.73,4.41-4.09,11.55-4.43,18.38c-0.03,0.57-0.03,1.11-0.01,1.62
					c0.02,0.44,0.05,0.86,0.09,1.22c0.02,0.16,0.03,0.32,0.06,0.47c1.07,7.44,10.31,8.12,16.02,9.17c6.08,1.12,8.25,1.66,15.49-2.01
					c2.53-1.28,11.06,3.94,12.79,4.46c0.33,0.1,0.63,0.18,0.93,0.27c0.94,0.27,1.92,0.52,2.88,0.71c1.69,0.31,3.07,0.3,4.69-0.1
					c0.45-0.11,0.78-0.3,1.05-0.51c0.15-0.17,0.28-0.35,0.37-0.57c0.44-1.07,0.42-0.49,0.42-0.49c2.39,0.45,3.11-0.7,4.34-1.57
					C398.76,416.69,399.22,416.24,399.48,415.96z"/>
				<path class="st4" d="M502.52,244.25c-1.43-3.68-4.39-1.09-5.8,0.45c-0.47,0.52-0.77,0.92-0.77,0.92s-1.91-1.09-1.37-7.38
					c0.55-6.29,3.83-10.32-5.19-15.58c-6.56-3.83-2.66-12.41-5.74-16.68c-4.28-5.93-12.1-6.3-17.5-3.28
					c-0.66,0.37-1.36,0.73-2.08,1.08c-9.37,4.58-22.89,7.49-22.89,7.49l-11.67,12.21c0,0-6.02-5.47-5.74,1.64
					c0.27,7.11,3.01,18.87,3.01,18.87s0.13,12.36,5.93,25.07c2.96,6.48,7.39,13.05,14.03,18.13c0,0,4.12,2.46,11.69,0.85
					c3.31-0.71,7.28-2.2,11.86-5.02c1.14-0.71,2.32-1.5,3.54-2.38c0.17-0.13,0.35-0.26,0.53-0.39c2.22-1.64,4.55-3.57,7-5.86
					c1.47-1.38,2.75-2.95,3.83-4.65l5.03-7.96c0,0-0.55,6.02,1.64,4.65c0.65-0.41,2.03-2.11,3.6-4.41c2.13-3.14,4.6-7.41,6.05-11.13
					C502.57,248.14,503.08,245.71,502.52,244.25z"/>
			</g>
			<g>
				<path class="st5" d="M504.68,192.99c1.58-8.4,2.74-13.78,2.74-13.78s-3.08-18.21-20.17-22.69c-12.21-3.2-15.84,8.31-17.12,15.47
					c2.66,1.13,5.46,2.53,8.41,4.23C478.53,176.21,496.92,168.1,504.68,192.99z"/>
				<path class="st6" d="M465.64,307.54c-0.69-2.07-1.03-4.36-0.4-6.78c0.27-1.05,0.72-2.54,1.28-4.28
					c1.59-5.01,4.07-12.18,5.91-17.41c-0.11-0.06-0.22-0.12-0.33-0.18c-1.22,0.88-2.4,1.67-3.54,2.38
					c-4.58,2.83-8.55,4.32-11.86,5.02c-7.56,1.62-11.69-0.85-11.69-0.85c-6.65-5.08-11.07-11.65-14.03-18.13l-1.87,5.4l-2.14,6.17
					c0,0,1.09,4.65,4.65,8.75c1.25,1.44,2.15,2.44,2.75,3.47c1.1,1.89,1.14,3.87,0.26,8.84c-0.1,0.54-0.2,1.01-0.31,1.43
					c-0.3,1.18-0.63,1.88-0.94,2.31c-0.12,0.32-0.25,0.62-0.4,0.91c-0.05,0.1-0.11,0.19-0.16,0.29c-0.12,0.23-0.25,0.45-0.39,0.67
					c0.17,0.45,0.43,1.1,0.82,2.05c2.46,6.02,18.05,13.4,22.15,16.41c0.2,0.14,0.41,0.25,0.63,0.34c0.06,0.02,0.12,0.05,0.18,0.07
					c0.19,0.06,0.39,0.11,0.6,0.14c0.04,0.01,0.08,0.02,0.12,0.02c0.25,0.03,0.5,0.03,0.77,0.02c0.07,0,0.14-0.01,0.2-0.02
					c0.22-0.02,0.44-0.05,0.66-0.1c0.07-0.01,0.13-0.02,0.2-0.04c0.28-0.06,0.56-0.15,0.85-0.24c0.06-0.02,0.12-0.04,0.17-0.06
					c0.24-0.09,0.49-0.19,0.73-0.29c0.08-0.03,0.16-0.07,0.24-0.11c0.3-0.14,0.59-0.28,0.89-0.45c0.02-0.01,0.04-0.02,0.06-0.03
					c0.28-0.15,0.56-0.32,0.84-0.5c0.07-0.04,0.13-0.08,0.2-0.12c0.46-0.3,0.92-0.62,1.36-0.95c0.05-0.04,0.09-0.07,0.14-0.11
					c0.47-0.36,0.92-0.73,1.34-1.12c0.01-0.01,0.02-0.02,0.03-0.03c2.15-1.95,3.67-4.07,3.45-5.17
					C468.73,313.57,466.74,310.85,465.64,307.54z"/>
				<path class="st4" d="M452.94,333.3c0.49-0.51,0.96-0.99,1.43-1.46c0.13-0.13,0.25-0.25,0.37-0.38c0.41-0.41,0.81-0.8,1.2-1.19
					c0.05-0.05,0.1-0.09,0.14-0.14c0.44-0.43,0.87-0.84,1.29-1.24c0.12-0.11,0.23-0.22,0.35-0.33c0.35-0.33,0.69-0.65,1.02-0.97
					c0.07-0.07,0.15-0.14,0.22-0.21c0.13-0.13,0.26-0.25,0.39-0.37c0.19-0.18,0.39-0.37,0.58-0.54c0.1-0.1,0.2-0.19,0.3-0.28
					c0.31-0.29,0.61-0.57,0.9-0.85c0.08-0.07,0.16-0.15,0.24-0.22c0.33-0.32,0.65-0.63,0.96-0.93c0.06-0.06,0.12-0.12,0.18-0.18
					c0.25-0.25,0.5-0.5,0.73-0.74c0.05-0.05,0.09-0.1,0.14-0.14c-0.24-0.15-0.47-0.29-0.71-0.44c-0.04,0.02-0.08,0.04-0.11,0.07
					c-0.28,0.17-0.56,0.34-0.84,0.5c-0.02,0.01-0.04,0.02-0.06,0.03c-0.3,0.16-0.59,0.31-0.89,0.45c-0.08,0.04-0.16,0.07-0.24,0.11
					c-0.25,0.11-0.49,0.21-0.73,0.29c-0.06,0.02-0.12,0.04-0.17,0.06c-0.29,0.1-0.57,0.18-0.85,0.24c-0.07,0.02-0.13,0.03-0.2,0.04
					c-0.23,0.05-0.45,0.08-0.66,0.1c-0.07,0.01-0.14,0.02-0.2,0.02c-0.26,0.01-0.52,0.01-0.77-0.02c-0.04,0-0.08-0.02-0.12-0.02
					c-0.21-0.03-0.41-0.08-0.6-0.14c-0.06-0.02-0.12-0.04-0.18-0.07c-0.22-0.09-0.44-0.2-0.63-0.34
					c-4.1-3.01-19.69-10.39-22.15-16.41c-0.39-0.95-0.65-1.6-0.82-2.05c-11.52,3.25-16.13,8.06-16.13,8.06l-12.37,93.54l-1.3,9.81
					c0,0-5.84-1.22-4.88-2.74c-0.25,0.28-0.72,0.73-1.36,1.18l38.26,12c0.04-0.32,0.13-1.02,0.27-2.04
					C436.73,411.69,446.51,339.97,452.94,333.3z"/>
				<path class="st5" d="M509.11,225.99c-0.3-6.95-0.48-14.96-2.92-27.02c-0.44-2.18-0.95-4.16-1.52-5.98
					c-7.76-24.88-26.14-16.78-26.14-16.78c-2.95-1.7-5.82-2.94-8.41-4.23c-24.92-12.37-46.13,20.68-46.84,33.86
					c-0.76,14.14,1.03,25.65,0.76,18.54c-0.27-7.11,5.74-1.64,5.74-1.64l11.67-12.21c0,0,13.52-2.92,22.89-7.49
					c0.01-0.04,0.02-0.08,0.03-0.12c0.71-0.28,1.4-0.6,2.05-0.96c5.4-3.02,13.22-2.64,17.5,3.28c3.08,4.27-0.82,12.85,5.74,16.68
					c9.02,5.26,5.74,9.3,5.19,15.58c-0.55,6.29,1.37,7.38,1.37,7.38s0.3-0.4,0.77-0.92c1.4-1.54,4.36-4.13,5.8-0.45
					c0.57,1.46,0.05,3.88-1.01,6.6c3.7-3.62,7.26-7.17,8.8-8.89C516.57,234.48,509.4,232.62,509.11,225.99z"/>
				<path class="st1" d="M352.32,390.99c11.32-9,31.09-8.33,39.77-4.35c0.55,0.25,1.06,0.52,1.51,0.79
					c7.66,4.65,6.02,14.76,6.02,14.76l-1.64,1.91c0,0,0.09,0.38,0.2,0.98c0.44,2.22,2.9,7.12-0.2,8.87
					c-0.11,0.09-0.18,0.18-0.24,0.27c-0.96,1.52,4.88,2.74,4.88,2.74l1.3-9.81l12.37-93.54c0,0,7.02-5.5,16.13-8.06
					c0.25-0.07,0.27-0.44,0.39-0.67c0.05-0.1,0.11-0.19,0.16-0.29c0.14-0.29,0.27-0.6,0.4-0.91c0.31-0.43,0.64-1.13,0.94-2.31
					c0.11-0.42,0.21-0.88,0.31-1.43c0.89-4.97,0.85-6.94-0.26-8.84c-0.6-1.03-1.5-2.03-2.75-3.47c-3.55-4.1-4.65-8.75-4.65-8.75
					l2.14-6.17l1.87-5.4c-3.51-4.31-10.16,2.27-16.8,7.54c-9.3,7.38-12.65,7.86-12.65,7.86s-8.76,1.66-18.43,3.87
					c-11.12,2.54-23.44,5.82-25.05,8.16c-2.38,3.47-12.32,64.47-16.35,89.63c-1.05,6.58-1.7,10.72-1.7,10.72
					S340.29,400.56,352.32,390.99z"/>
				<path class="st1" d="M504,313.78c-2.58-1.98-5.38-3.76-8.41-5.37c-0.27-0.15-0.53-0.28-0.79-0.42
					c-12.45-6.66-9.15-6.38-13.97-17.9c-2.84-6.77-6.12-9.73-8.4-11.03c-1.83,5.23-4.31,12.4-5.91,17.41
					c-0.56,1.75-1,3.24-1.28,4.28c-0.63,2.42-0.29,4.71,0.4,6.78c1.1,3.31,3.09,6.03,3.43,7.71c0.22,1.1-1.29,3.23-3.45,5.17
					c0,0,0,0,0.01-0.01c-0.29,0.44-0.63,0.88-1.01,1.33c-0.01,0.01-0.01,0.01-0.02,0.02c-0.17,0.2-0.35,0.41-0.53,0.61
					c-0.07,0.08-0.14,0.15-0.21,0.23c-0.13,0.14-0.26,0.29-0.4,0.43c-0.03,0.03-0.05,0.06-0.08,0.09c-0.04,0.05-0.09,0.1-0.14,0.14
					c-0.23,0.24-0.48,0.49-0.73,0.74c-0.06,0.06-0.12,0.12-0.18,0.18c-0.31,0.3-0.63,0.61-0.96,0.93c-0.08,0.07-0.16,0.15-0.24,0.22
					c-0.29,0.28-0.59,0.56-0.9,0.85c-0.1,0.09-0.2,0.19-0.3,0.28c-0.19,0.18-0.38,0.36-0.58,0.54c-0.13,0.12-0.26,0.24-0.39,0.37
					c-0.07,0.07-0.15,0.14-0.22,0.21c-0.33,0.31-0.67,0.64-1.02,0.97c-0.12,0.11-0.23,0.22-0.35,0.33c-0.42,0.4-0.85,0.81-1.29,1.24
					c-0.05,0.05-0.1,0.09-0.14,0.14c-0.39,0.38-0.79,0.78-1.2,1.19c-0.12,0.12-0.25,0.25-0.37,0.38c-0.47,0.47-0.94,0.95-1.43,1.46
					c-6.43,6.67-16.21,78.39-18.02,92.08c-0.14,1.02-0.23,1.72-0.27,2.04l4.02,1.26l1.9,0.49l10.6,2.74l49.07,12.68l20.23-99.8
					C518.78,329.97,512.82,320.57,504,313.78z"/>
				<path class="st7" d="M397.74,414.23c0.06-0.09,0.11-0.2,0.24-0.27c1.51-1.29,0.64-6.65,0.2-8.87c-0.12-0.6-0.2-0.98-0.2-0.98
					l1.64-1.91c0,0,1.64-10.12-6.02-14.76c-0.46-0.28-0.96-0.54-1.51-0.79c-8.68-3.98-28.46-4.65-39.77,4.35
					c-12.03,9.57-12.3,4.1-12.3,4.1s0.65-4.14,1.7-10.72c-1.73,4.41-4.09,11.55-4.43,18.38c-0.03,0.57-0.03,1.11-0.01,1.62
					c0.02,0.44,0.05,0.86,0.09,1.22c0.02,0.16,0.03,0.32,0.06,0.47c1.07,7.44,10.31,8.12,16.02,9.17c6.08,1.12,8.25,1.66,15.49-2.01
					c2.53-1.28,11.06,3.94,12.79,4.46c0.33,0.1,0.63,0.18,0.93,0.27c0.94,0.27,1.92,0.52,2.88,0.71c1.69,0.31,3.07,0.3,4.69-0.1
					c0.45-0.11,0.78-0.3,1.05-0.51c0.15-0.17,0.28-0.35,0.37-0.57c0.44-1.07,0.42-0.49,0.42-0.49c2.39,0.45,3.11-0.7,4.34-1.57
					C397.03,414.96,397.49,414.51,397.74,414.23z"/>
				<path class="st6" d="M500.79,242.52c-1.43-3.68-4.39-1.09-5.8,0.45c-0.47,0.52-0.77,0.92-0.77,0.92s-1.91-1.09-1.37-7.38
					c0.55-6.29,3.83-10.32-5.19-15.58c-6.56-3.83-2.66-12.41-5.74-16.68c-4.28-5.93-12.1-6.3-17.5-3.28
					c-0.66,0.37-1.36,0.73-2.08,1.08c-9.37,4.58-22.89,7.49-22.89,7.49l-11.67,12.21c0,0-6.02-5.47-5.74,1.64
					c0.27,7.11,3.01,18.87,3.01,18.87s0.13,12.36,5.93,25.07c2.96,6.48,7.39,13.05,14.03,18.13c0,0,4.12,2.46,11.69,0.85
					c3.31-0.71,7.28-2.2,11.86-5.02c1.14-0.71,2.32-1.5,3.54-2.38c0.17-0.13,0.35-0.26,0.53-0.39c2.22-1.64,4.55-3.57,7-5.86
					c1.47-1.38,2.75-2.95,3.83-4.65l5.03-7.96c0,0-0.55,6.02,1.64,4.65c0.65-0.41,2.03-2.11,3.6-4.41c2.13-3.14,4.6-7.41,6.05-11.13
					C500.83,246.41,501.35,243.98,500.79,242.52z"/>
			</g>
			<g>
				<path class="st8" d="M461.63,325.54c-0.29,0.1-0.57,0.18-0.85,0.24C461.06,325.72,461.34,325.64,461.63,325.54z"/>
				<path class="st8" d="M463.66,324.63c-0.3,0.16-0.59,0.31-0.89,0.45C463.07,324.94,463.37,324.79,463.66,324.63z"/>
				<path class="st8" d="M462.54,325.18c-0.25,0.11-0.49,0.21-0.73,0.29C462.05,325.39,462.29,325.29,462.54,325.18z"/>
				<path class="st8" d="M464.56,324.1c-0.28,0.17-0.56,0.34-0.84,0.5C464.01,324.44,464.28,324.27,464.56,324.1z"/>
				<path class="st8" d="M458.04,325.69c-0.22-0.09-0.44-0.2-0.63-0.34C457.61,325.49,457.82,325.6,458.04,325.69z"/>
				<path class="st8" d="M458.83,325.9c-0.21-0.03-0.41-0.08-0.6-0.14C458.42,325.82,458.62,325.87,458.83,325.9z"/>
				<path class="st8" d="M399.76,415.57c0.06-0.09,0.13-0.18,0.24-0.27C399.87,415.37,399.81,415.48,399.76,415.57z"/>
				<path class="st8" d="M459.72,325.94c-0.26,0.01-0.52,0.01-0.77-0.02C459.19,325.95,459.45,325.95,459.72,325.94z"/>
				<path class="st8" d="M460.58,325.82c-0.23,0.05-0.45,0.08-0.66,0.1C460.14,325.9,460.36,325.87,460.58,325.82z"/>
				<path class="st8" d="M465.25,324.61c0.04-0.05,0.1-0.1,0.14-0.14c0,0,0,0,0,0C465.34,324.52,465.29,324.57,465.25,324.61z"/>
				<path class="st8" d="M464.52,325.35c-0.06,0.06-0.12,0.12-0.18,0.18C464.4,325.47,464.46,325.41,464.52,325.35z"/>
				<path class="st8" d="M462.24,327.54c-0.1,0.09-0.2,0.19-0.3,0.28C462.04,327.73,462.14,327.64,462.24,327.54z"/>
				<path class="st8" d="M463.37,326.47c-0.08,0.07-0.16,0.15-0.24,0.22C463.21,326.62,463.3,326.54,463.37,326.47z"/>
				<path class="st8" d="M339.42,407.4c-0.02-0.15-0.04-0.31-0.06-0.47C339.38,407.1,339.4,407.27,339.42,407.4z"/>
				<path class="st8" d="M456.75,332.81c0.41-0.41,0.81-0.8,1.2-1.19C457.56,332,457.16,332.4,456.75,332.81z"/>
				<path class="st8" d="M461.37,328.37c-0.13,0.12-0.26,0.24-0.39,0.37C461.11,328.61,461.23,328.49,461.37,328.37z"/>
				<path class="st8" d="M459.39,330.24c-0.42,0.4-0.85,0.81-1.29,1.24C458.54,331.05,458.97,330.64,459.39,330.24z"/>
				<path class="st8" d="M456.38,333.18c-0.47,0.47-0.94,0.95-1.43,1.46C455.44,334.14,455.91,333.66,456.38,333.18z"/>
				<path class="st8" d="M460.76,328.94c-0.33,0.31-0.67,0.64-1.02,0.97C460.08,329.58,460.43,329.25,460.76,328.94z"/>
				<path class="st8" d="M384.65,419.29c-0.3-0.09-0.6-0.17-0.93-0.27C384.02,419.11,384.33,419.2,384.65,419.29z"/>
				<path class="st8" d="M339.29,404.09c0.34-6.82,2.71-13.97,4.43-18.38c-1.73,4.41-4.13,10.59-4.47,17.41
					c-0.04,0.72-0.02,1.7,0.02,2.59C339.26,405.2,339.27,404.66,339.29,404.09z"/>
				<path class="st8" d="M387.53,420c2.45,0.48,4.72,0.55,5.74-0.61c-0.26,0.21-0.6,0.39-1.05,0.51
					C390.59,420.3,389.22,420.31,387.53,420z"/>
				<polygon class="st8" points="428.98,280.23 431.12,274.06 432.99,268.66 431.12,274.06 				"/>
				<path class="st9" d="M504.69,193.33c1.58-8.4,2.74-13.78,2.74-13.78s-3.08-18.21-20.17-22.69c-12.21-3.2-15.84,8.31-17.12,15.47
					c2.66,1.13,5.46,2.53,8.41,4.23C478.55,176.55,496.93,168.44,504.69,193.33z"/>
				<path class="st10" d="M474.44,280.41c0.07-0.19,0.13-0.38,0.2-0.57c-0.18,0.13-0.35,0.27-0.53,0.39
					C474.22,280.29,474.33,280.35,474.44,280.41z"/>
				<path class="st10" d="M467.65,308.88c-0.69-2.07-1.03-4.36-0.4-6.78c0.27-1.05,0.72-2.54,1.28-4.28
					c1.59-5.01,4.07-12.18,5.91-17.41c-0.11-0.06-0.22-0.12-0.33-0.18c-1.22,0.88-2.4,1.67-3.54,2.38
					c-4.58,2.83-8.55,4.32-11.86,5.02c-7.56,1.62-11.69-0.85-11.69-0.85c-6.65-5.08-11.07-11.65-14.03-18.13l-1.87,5.4l-2.14,6.17
					c0,0,1.09,4.65,4.65,8.75c1.25,1.44,2.15,2.44,2.75,3.47c1.1,1.89,1.14,3.87,0.26,8.84c-0.1,0.54-0.2,1.01-0.31,1.43
					c-0.3,1.18-0.63,1.88-0.94,2.31c-0.12,0.32-0.25,0.62-0.4,0.91c-0.05,0.1-0.11,0.19-0.16,0.29c-0.12,0.23-0.25,0.45-0.39,0.67
					c0.17,0.45,0.43,1.1,0.82,2.05c2.46,6.02,18.05,13.4,22.15,16.41c0.2,0.14,0.41,0.25,0.63,0.34c0.06,0.02,0.12,0.05,0.18,0.07
					c0.19,0.06,0.39,0.11,0.6,0.14c0.04,0.01,0.08,0.02,0.12,0.02c0.25,0.03,0.5,0.03,0.77,0.02c0.07,0,0.14-0.01,0.2-0.02
					c0.22-0.02,0.44-0.05,0.66-0.1c0.07-0.01,0.13-0.02,0.2-0.04c0.28-0.06,0.56-0.15,0.85-0.24c0.06-0.02,0.12-0.04,0.17-0.06
					c0.24-0.09,0.49-0.19,0.73-0.29c0.08-0.03,0.16-0.07,0.24-0.11c0.3-0.14,0.59-0.28,0.89-0.45c0.02-0.01,0.04-0.02,0.06-0.03
					c0.28-0.15,0.56-0.32,0.84-0.5c0.07-0.04,0.13-0.08,0.2-0.12c0.46-0.3,0.92-0.62,1.36-0.95c0.05-0.04,0.09-0.07,0.14-0.11
					c0.47-0.36,0.92-0.73,1.34-1.12c0.01-0.01,0.02-0.02,0.03-0.03c2.15-1.95,3.67-4.07,3.45-5.17
					C470.75,314.91,468.76,312.19,467.65,308.88z"/>
				<path class="st10" d="M454.95,334.64c0.49-0.51,0.96-0.99,1.43-1.46c0.13-0.13,0.25-0.25,0.37-0.38c0.41-0.41,0.81-0.8,1.2-1.19
					c0.05-0.05,0.1-0.09,0.14-0.14c0.44-0.43,0.87-0.84,1.29-1.24c0.12-0.11,0.23-0.22,0.35-0.33c0.35-0.33,0.69-0.65,1.02-0.97
					c0.07-0.07,0.15-0.14,0.22-0.21c0.13-0.13,0.26-0.25,0.39-0.37c0.19-0.18,0.39-0.37,0.58-0.54c0.1-0.1,0.2-0.19,0.3-0.28
					c0.31-0.29,0.61-0.57,0.9-0.85c0.08-0.07,0.16-0.15,0.24-0.22c0.33-0.32,0.65-0.63,0.96-0.93c0.06-0.06,0.12-0.12,0.18-0.18
					c0.25-0.25,0.5-0.5,0.73-0.74c0.05-0.05,0.09-0.1,0.14-0.14c-0.24-0.15-0.47-0.29-0.71-0.44c-0.04,0.02-0.08,0.04-0.11,0.07
					c-0.28,0.17-0.56,0.34-0.84,0.5c-0.02,0.01-0.04,0.02-0.06,0.03c-0.3,0.16-0.59,0.31-0.89,0.45c-0.08,0.04-0.16,0.07-0.24,0.11
					c-0.25,0.11-0.49,0.21-0.73,0.29c-0.06,0.02-0.12,0.04-0.17,0.06c-0.29,0.1-0.57,0.18-0.85,0.24c-0.07,0.02-0.13,0.03-0.2,0.04
					c-0.23,0.05-0.45,0.08-0.66,0.1c-0.07,0.01-0.14,0.02-0.2,0.02c-0.26,0.01-0.52,0.01-0.77-0.02c-0.04,0-0.08-0.02-0.12-0.02
					c-0.21-0.03-0.41-0.08-0.6-0.14c-0.06-0.02-0.12-0.04-0.18-0.07c-0.22-0.09-0.44-0.2-0.63-0.34
					c-4.1-3.01-19.69-10.39-22.15-16.41c-0.39-0.95-0.65-1.6-0.82-2.05c-11.52,3.25-16.13,8.06-16.13,8.06l-12.37,93.54l-1.3,9.81
					c0,0-5.84-1.22-4.88-2.74c-0.25,0.28-0.72,0.73-1.36,1.18l38.26,12c0.04-0.32,0.13-1.02,0.27-2.04
					C438.74,413.03,448.52,341.32,454.95,334.64z"/>
				<path class="st10" d="M459.92,325.92c-0.07,0.01-0.14,0.01-0.2,0.02C459.78,325.93,459.85,325.92,459.92,325.92z"/>
				<path class="st10" d="M460.78,325.78c-0.07,0.02-0.13,0.03-0.2,0.04C460.65,325.81,460.71,325.8,460.78,325.78z"/>
				<path class="st10" d="M461.81,325.47c-0.06,0.02-0.12,0.04-0.17,0.06C461.69,325.52,461.75,325.49,461.81,325.47z"/>
				<path class="st10" d="M458.95,325.92c-0.04,0-0.08-0.02-0.12-0.02C458.87,325.9,458.91,325.92,458.95,325.92z"/>
				<path class="st10" d="M463.73,324.59c-0.02,0.01-0.04,0.02-0.06,0.03C463.69,324.62,463.7,324.6,463.73,324.59z"/>
				<path class="st10" d="M462.78,325.07c-0.08,0.04-0.16,0.07-0.24,0.11C462.62,325.14,462.7,325.11,462.78,325.07z"/>
				<path class="st10" d="M464.56,324.1c0.04-0.02,0.08-0.04,0.11-0.07c0.03-0.02,0.05-0.04,0.08-0.06
					C464.69,324.01,464.63,324.06,464.56,324.1z"/>
				<path class="st10" d="M466.12,323.02c0.05-0.04,0.09-0.07,0.14-0.11C466.21,322.95,466.17,322.98,466.12,323.02z"/>
				<path class="st10" d="M467.63,321.78c0,0,0.01-0.01,0.01-0.01c-0.01,0.01-0.02,0.02-0.03,0.03
					C467.61,321.79,467.62,321.79,467.63,321.78z"/>
				<path class="st10" d="M458.23,325.75c-0.06-0.02-0.12-0.04-0.18-0.07C458.1,325.71,458.17,325.73,458.23,325.75z"/>
				<path class="st9" d="M509.12,226.33c-0.3-6.95-0.48-14.96-2.92-27.02c-0.44-2.18-0.95-4.16-1.52-5.98
					c-7.76-24.88-26.14-16.78-26.14-16.78c-2.95-1.7-5.82-2.94-8.41-4.23c-17.12-8.5-31.4,6.7-39.57,19.91
					c-3.72,6.01-7.04,9.83-7.27,13.96c-0.76,14.14,1.03,25.65,0.76,18.54c-0.27-7.11,5.74-1.64,5.74-1.64l11.67-12.21
					c0,0,13.52-2.92,22.89-7.49c0.01-0.04,0.02-0.08,0.03-0.12c0.71-0.28,1.4-0.6,2.05-0.96c5.4-3.02,13.22-2.64,17.5,3.28
					c3.08,4.27-0.82,12.85,5.74,16.68c9.02,5.26,5.74,9.3,5.19,15.58c-0.55,6.29,1.37,7.38,1.37,7.38s0.3-0.4,0.77-0.92
					c1.4-1.54,4.36-4.13,5.8-0.45c0.57,1.46,0.05,3.88-1.01,6.6c3.7-3.62,7.26-7.17,8.8-8.89
					C516.59,234.82,509.41,232.96,509.12,226.33z"/>
				<path class="st10" d="M464.38,203.27c-0.01,0.04-0.02,0.08-0.03,0.12c0.72-0.35,1.42-0.71,2.08-1.08
					C465.78,202.67,465.09,202.99,464.38,203.27z"/>
				<path class="st10" d="M354.33,392.33c11.32-9,31.09-8.33,39.77-4.35c0.55,0.25,1.06,0.52,1.51,0.79
					c7.66,4.65,6.02,14.76,6.02,14.76l-1.64,1.91c0,0,0.09,0.38,0.2,0.98c0.44,2.22,2.9,7.12-0.2,8.87
					c-0.11,0.09-0.18,0.18-0.24,0.27c-0.96,1.52,4.88,2.74,4.88,2.74l1.3-9.81l12.37-93.54c0,0,7.02-5.5,16.13-8.06
					c0.25-0.07,0.27-0.44,0.39-0.67c0.05-0.1,0.11-0.19,0.16-0.29c0.14-0.29,0.27-0.6,0.4-0.91c0.31-0.43,0.64-1.13,0.94-2.31
					c0.11-0.42,0.21-0.88,0.31-1.43c0.89-4.97,0.85-6.94-0.26-8.84c-0.6-1.03-1.5-2.03-2.75-3.47c-3.55-4.1-4.65-8.75-4.65-8.75
					l2.14-6.17l1.87-5.4c-3.51-4.31-10.16,2.27-16.8,7.54c-9.3,7.38-12.65,7.86-12.65,7.86s-8.76,1.66-18.43,3.87
					c-11.12,2.54-23.44,5.82-25.05,8.16c-2.38,3.47-12.32,64.47-16.35,89.63c-1.05,6.58-1.7,10.72-1.7,10.72
					S342.3,401.9,354.33,392.33z"/>
				<path class="st10" d="M506.02,315.13c-2.58-1.98-5.38-3.76-8.41-5.37c-0.27-0.15-0.53-0.28-0.79-0.42
					c-12.45-6.66-9.15-6.38-13.97-17.9c-2.84-6.77-6.12-9.73-8.4-11.03c-1.83,5.23-4.31,12.4-5.91,17.41
					c-0.56,1.75-1,3.24-1.28,4.28c-0.63,2.42-0.29,4.71,0.4,6.78c1.1,3.31,3.09,6.03,3.43,7.71c0.22,1.1-1.29,3.23-3.45,5.17
					c0,0,0,0,0.01-0.01c-0.29,0.44-0.63,0.88-1.01,1.33c-0.01,0.01-0.01,0.01-0.02,0.02c-0.17,0.2-0.35,0.41-0.53,0.61
					c-0.07,0.08-0.14,0.15-0.21,0.23c-0.13,0.14-0.26,0.29-0.4,0.43c-0.03,0.03-0.05,0.06-0.08,0.09c-0.04,0.05-0.09,0.1-0.14,0.14
					c-0.23,0.24-0.48,0.49-0.73,0.74c-0.06,0.06-0.12,0.12-0.18,0.18c-0.31,0.3-0.63,0.61-0.96,0.93c-0.08,0.07-0.16,0.15-0.24,0.22
					c-0.29,0.28-0.59,0.56-0.9,0.85c-0.1,0.09-0.2,0.19-0.3,0.28c-0.19,0.18-0.38,0.36-0.58,0.54c-0.13,0.12-0.26,0.24-0.39,0.37
					c-0.07,0.07-0.15,0.14-0.22,0.21c-0.33,0.31-0.67,0.64-1.02,0.97c-0.12,0.11-0.23,0.22-0.35,0.33c-0.42,0.4-0.85,0.81-1.29,1.24
					c-0.05,0.05-0.1,0.09-0.14,0.14c-0.39,0.38-0.79,0.78-1.2,1.19c-0.12,0.12-0.25,0.25-0.37,0.38c-0.47,0.47-0.94,0.95-1.43,1.46
					c-6.43,6.67-16.21,78.39-18.02,92.08c-0.14,1.02-0.23,1.72-0.27,2.04l4.02,1.26l1.9,0.49l10.6,2.74l49.07,12.68l20.23-99.8
					C520.79,331.31,514.83,321.92,506.02,315.13z"/>
				<path class="st10" d="M463.14,326.69c-0.29,0.28-0.59,0.56-0.9,0.85C462.55,327.25,462.85,326.97,463.14,326.69z"/>
				<path class="st10" d="M460.98,328.74c-0.07,0.07-0.14,0.14-0.22,0.21C460.83,328.87,460.9,328.8,460.98,328.74z"/>
				<path class="st10" d="M461.94,327.83c-0.19,0.18-0.38,0.36-0.58,0.54C461.56,328.19,461.75,328,461.94,327.83z"/>
				<path class="st10" d="M465.87,323.95c-0.13,0.14-0.26,0.29-0.4,0.43C465.61,324.24,465.74,324.1,465.87,323.95z"/>
				<path class="st10" d="M464.33,325.54c-0.31,0.3-0.63,0.61-0.96,0.93C463.71,326.15,464.03,325.84,464.33,325.54z"/>
				<path class="st10" d="M459.74,329.91c-0.12,0.11-0.23,0.22-0.35,0.33C459.51,330.13,459.62,330.02,459.74,329.91z"/>
				<path class="st10" d="M465.25,324.61c-0.23,0.24-0.48,0.49-0.73,0.74C464.77,325.1,465.01,324.86,465.25,324.61z"/>
				<path class="st10" d="M466.61,323.11c-0.17,0.2-0.35,0.41-0.53,0.61C466.27,323.52,466.44,323.31,466.61,323.11z"/>
				<path class="st10" d="M456.38,333.18c0.13-0.13,0.25-0.25,0.37-0.38C456.63,332.93,456.51,333.06,456.38,333.18z"/>
				<path class="st10" d="M458.1,331.48c-0.05,0.05-0.1,0.09-0.14,0.14C458,331.58,458.05,331.53,458.1,331.48z"/>
				<path class="st10" d="M466.63,323.09c0.38-0.45,0.72-0.89,1.01-1.33c0,0,0,0-0.01,0.01c0,0-0.01,0.01-0.01,0.01
					C467.34,322.21,467,322.64,466.63,323.09z"/>
				<path class="st10" d="M399.76,415.57c0.06-0.09,0.11-0.2,0.24-0.27c1.51-1.29,0.64-6.65,0.2-8.87c-0.12-0.6-0.2-0.98-0.2-0.98
					l1.64-1.91c0,0,1.64-10.12-6.02-14.76c-0.46-0.28-0.96-0.54-1.51-0.79c-8.68-3.98-28.46-4.65-39.77,4.35
					c-12.03,9.57-12.3,4.1-12.3,4.1s0.65-4.14,1.7-10.72c-1.73,4.41-4.09,11.55-4.43,18.38c-0.03,0.57-0.03,1.11-0.01,1.62
					c0.02,0.44,0.05,0.86,0.09,1.22c0.02,0.16,0.03,0.32,0.06,0.47c1.07,7.44,10.31,8.12,16.02,9.17c6.08,1.12,8.25,1.66,15.49-2.01
					c2.53-1.28,11.06,3.94,12.79,4.46c0.33,0.1,0.63,0.18,0.93,0.27c0.94,0.27,1.92,0.52,2.88,0.71c1.69,0.31,3.07,0.3,4.69-0.1
					c0.45-0.11,0.78-0.3,1.05-0.51c0.15-0.17,0.28-0.35,0.37-0.57c0.44-1.07,0.42-0.49,0.42-0.49c2.39,0.45,3.11-0.7,4.34-1.57
					C399.04,416.3,399.5,415.85,399.76,415.57z"/>
				<path class="st10" d="M400.2,406.43c0.44,2.22,1.3,7.57-0.2,8.87C403.09,413.56,400.63,408.65,400.2,406.43z"/>
				<path class="st10" d="M466.26,322.91c0.47-0.36,0.92-0.73,1.34-1.12C467.18,322.18,466.73,322.55,466.26,322.91z"/>
				<path class="st10" d="M466.08,323.72c-0.07,0.08-0.14,0.15-0.21,0.23C465.94,323.88,466.01,323.8,466.08,323.72z"/>
				<path class="st10" d="M465.39,324.47c0.03-0.03,0.05-0.06,0.08-0.09C465.44,324.41,465.41,324.44,465.39,324.47
					C465.39,324.47,465.39,324.47,465.39,324.47z"/>
				<path class="st10" d="M464.76,323.97c0.46-0.3,0.92-0.62,1.36-0.95C465.68,323.35,465.22,323.67,464.76,323.97z"/>
				<path class="st10" d="M466.63,323.09c-0.01,0.01-0.01,0.01-0.02,0.02C466.62,323.11,466.63,323.1,466.63,323.09z"/>
				<path class="st10" d="M467.6,321.8c-0.43,0.38-0.88,0.76-1.34,1.12c-0.05,0.04-0.09,0.07-0.14,0.11
					c-0.44,0.34-0.9,0.66-1.36,0.95c-0.03,0.02-0.05,0.04-0.08,0.06c0.24,0.15,0.47,0.3,0.71,0.44c0.03-0.03,0.06-0.06,0.08-0.09
					c0.14-0.15,0.27-0.29,0.4-0.43c0.07-0.08,0.14-0.15,0.21-0.23c0.19-0.21,0.36-0.41,0.53-0.61c0.01-0.01,0.01-0.01,0.02-0.02
					c0.37-0.45,0.7-0.88,0.99-1.31C467.62,321.79,467.61,321.79,467.6,321.8z"/>
				<path class="st10" d="M502.8,243.87c-1.43-3.68-4.39-1.09-5.8,0.45c-0.47,0.52-0.77,0.92-0.77,0.92s-1.91-1.09-1.37-7.38
					c0.55-6.29,3.83-10.32-5.19-15.58c-6.56-3.83-2.66-12.41-5.74-16.68c-4.28-5.93-12.1-6.3-17.5-3.28
					c-0.66,0.37-1.36,0.73-2.08,1.08c-9.37,4.58-22.89,7.49-22.89,7.49l-11.67,12.21c0,0-6.02-5.47-5.74,1.64
					c0.27,7.11,3.01,18.87,3.01,18.87s0.13,12.36,5.93,25.07c2.96,6.48,7.39,13.05,14.03,18.13c0,0,4.13,2.46,11.69,0.85
					c3.31-0.71,7.28-2.2,11.86-5.02c1.14-0.71,2.32-1.5,3.54-2.38c0.17-0.13,0.35-0.26,0.53-0.39c2.22-1.64,4.55-3.57,7-5.86
					c1.47-1.38,2.75-2.95,3.83-4.65l5.03-7.96c0,0-0.55,6.02,1.64,4.65c0.65-0.41,2.03-2.11,3.6-4.41c2.13-3.14,4.6-7.41,6.05-11.13
					C502.85,247.75,503.37,245.33,502.8,243.87z"/>
			</g>
			<path class="st10" d="M457.61,238.72c0,0-9.61,13.39-7.21,16.14c2.4,2.75,6.52,1.72,6.52,1.72"/>
			<path class="st10" d="M443.19,260.01c0,0,8.93,14.42,23.01,4.81"/>
			<circle class="st5" cx="446.28" cy="232.88" r="1.72"/>
			<circle class="st5" cx="477.18" cy="240.09" r="1.72"/>
			<path class="st10" d="M428.76,226.36c0,0,1.01,12.98-0.34,15.11"/>
			<path class="st10" d="M496.75,247.99c0,0,2.06,5.49-2.4,9.61"/>
			<path class="st10" d="M418.31,314.96l-12.21,7.21c0,0-6.18-23.69-1.03-38.12"/>
			<path class="st10" d="M471.08,316.6c0,0,0.95,10.37,2.66,10.37s12.71-25.41,12.71-26.44l6.64,45.36"/>
			<path class="st10" d="M433.57,303.28c7.55-17.17-27.5,15.13-27.47,18.89"/>
			<path class="st10" d="M487.48,441.66c0,0,4.12-61.12,5.84-79.32"/>
			<g>
				<path class="st10" d="M400.18,353.48c0.22,0.94,0.22,1.94-0.03,2.91c0.43,0.84,0.68,1.78,0.68,2.78c0,3.38-2.74,6.12-6.12,6.12
					c-3.38,0-6.12-2.74-6.12-6.12c0-0.53,0.07-1.04,0.2-1.52c-0.57-1.11-0.8-2.39-0.62-3.66c-1.64,1.62-2.66,3.87-2.66,6.36
					c0,4.94,4,8.94,8.94,8.94c4.94,0,8.94-4,8.94-8.94C403.4,357.59,402.15,355.12,400.18,353.48z"/>
				<path class="st10" d="M391.61,360.4c-1.27-0.6-2.23-1.58-2.83-2.75c-0.13,0.49-0.2,1-0.2,1.52c0,3.38,2.74,6.12,6.12,6.12
					c3.38,0,6.12-2.74,6.12-6.12c0-1-0.25-1.95-0.68-2.78c-0.1,0.37-0.22,0.73-0.39,1.09C398.31,360.53,394.67,361.84,391.61,360.4z
					"/>
				<path class="st10" d="M400.18,353.48c-0.41-1.76-1.58-3.32-3.34-4.15c-3.06-1.44-6.7-0.14-8.15,2.92
					c-0.27,0.57-0.44,1.15-0.52,1.74c-0.18,1.27,0.05,2.54,0.62,3.66c0.59,1.16,1.56,2.15,2.83,2.75c3.06,1.44,6.7,0.14,8.15-2.92
					c0.17-0.36,0.3-0.72,0.39-1.09C400.4,355.42,400.4,354.42,400.18,353.48z"/>
			</g>
			<ellipse class="st11" cx="498.02" cy="419.19" rx="2.87" ry="3.83"/>
			<ellipse class="st11" cx="489.65" cy="425.58" rx="2.87" ry="3.83"/>
			<path class="st10" d="M392.71,348.47c0,0-19.69-72.95,38.09-84.57"/>
			<path class="st10" d="M498.02,415.36c0,0,16.37-75.93-9.77-69.47c-26.14,6.46,1.4,79.69,1.4,79.69"/>
		</g>
	</g>
	<path class="st10" d="M516.45,366.52l0.49-2.49C516.54,365.61,516.32,366.61,516.45,366.52z"/>
	<path class="st10" d="M550.35,99.6c-3.1-0.42-100.54-19.09-112.47-21.42c-0.93-0.18-1.87-0.37-2.8-0.55
		c-11.61-2.19-19.31,1.95-21.51,13.56l-31.83,153.41c8.6,10,13.41,29.87-11.95,63.19l-0.44,2.31l-9.48,50.16
		c-2.12,11.2,4.93,21.99,15.86,24.7c0.39,0.1,0.78,0.21,1.18,0.29l76.6,12.84l33.97,5.69c3.95,0.75,7.84,0.33,11.35-0.96
		c1.65-0.61,3.23-1.4,4.68-2.39c-3.98-3.07-8.98-8.11-10.23-14.64c-1.72-9.02,7.02-15.07,19.23-12.73c0.91,0.17,1.74,0.35,2.55,0.54
		l1.4-7.09c-0.14,0.09,0.08-0.91,0.49-2.49l3.74-18.97c-3.72-5.77-13.92-23.66-0.12-27.46c0.46-0.12,0.93-0.24,1.44-0.33
		c1.53-0.28,2.93-0.39,4.23-0.37l1.77-8.99L538.04,257c0,0,25.99-139.99,26.04-140.25c0.72-3.89,1.61-8.84-1.26-12.12
		C559.96,101.35,555.17,100.25,550.35,99.6z"/>
	<path class="st10" d="M527.32,378.94c0,0-2.24-3.02-12.26-5.33c-0.8-0.18-1.64-0.37-2.55-0.54c-12.21-2.34-20.95,3.71-19.23,12.73
		c1.24,6.53,6.25,11.56,10.23,14.64c-1.45,0.99-3.02,1.78-4.68,2.39c-3.51,1.3-7.4,1.71-11.35,0.96l-33.97-5.69l-76.6-12.84
		c-0.4-0.08-0.79-0.19-1.18-0.29c-10.93-2.71-17.98-13.5-15.86-24.7l9.48-50.16l-0.43-1.17c0.3-0.38,0.58-0.76,0.87-1.14
		c25.36-33.32,20.55-53.19,11.95-63.19c-3.25-3.78-3.63-5.31-9.95-7.3c-10.02-3.15-17.2,40.9-40.12,68.8
		c-7.01,8.54-14.73,28.38-21.78,42.44c-10.33,20.6-14.92,43.17-15.31,58.42c-0.66,25.66-36.85,59.74-36.85,59.74
		s145.11,0.84,149.72,0c4.61-0.84,33.97-19.71,48.65-34.39c14.68-14.68,26-10.48,57.87-20.13
		C545.84,402.55,527.32,378.94,527.32,378.94z"/>
	<path class="st10" d="M559.86,270.93c-0.64-14.1-18.28-14.08-21.83-13.93L528,307.91C536.23,302.13,560.46,283.95,559.86,270.93z"
		/>
	<path class="st10" d="M526.23,316.9c-1.3-0.02-2.7,0.09-4.23,0.37c-15.92,2.93-5.16,21.83-1.32,27.79l-3.74,18.97l-0.49,2.49
		c4.39-2.8,22.89-14.93,23.77-20.93C541.15,339.28,542.57,317.1,526.23,316.9z"/>
	<path class="st10" d="M367.6,240.1c0,0,9.38,3.2,9.38,8.68s-10.43,16.64-11.93,16.64c-1.49,0-8.29-3.64-8.42-5.34"/>
	<path class="st10" d="M521.21,317.79c0,0,9.55,12.1,9.21,21.29c-0.03,0.87,1.49,0.69,1.53-0.19c0.04-0.8,0.06-1.76,0.06-2.91
		C532.01,328.02,529.16,317.79,521.21,317.79z"/>
	<path class="st10" d="M512.51,373.07c0,0,6.57,7.3,2.43,14.02c-0.31,0.51,0.24,1.11,0.76,0.82l1.71-0.93
		c1.96-1.06,3.24-3.05,3.42-5.28c0.19-2.29,0.23-4.93-0.46-5.62C519.1,374.79,512.51,373.07,512.51,373.07z"/>
	<g>
		<path class="st13" d="M539.73,136.41c-0.53-0.2-1.18-0.35-1.76-0.37c-0.59-0.03-1.04,0.22-1.62,0.08c0,0-0.16,1.07,0.22,1.12
			c0.39,0.05-0.24,1.23-0.24,1.23s-0.05,0.02-0.12,0.05c1.36-0.03,2.6-1.04,3.58-1.79C539.92,136.61,539.89,136.47,539.73,136.41z"
			/>
		<path class="st14" d="M536.57,137.23c-0.12-0.13-0.65-0.39-0.6-0.62c0.05-0.27,0.38-0.49,0.38-0.49
			c-0.59-0.14-1.18-0.22-1.85-0.11c-0.19,0.03-1.34,0.37-1.16,0.6c0.7,0.89,1.02,1.73,2.52,1.89c0.12,0.01,0.23,0,0.35,0
			c0.07-0.03,0.12-0.05,0.12-0.05s-0.23-0.1-0.39-0.52C535.76,137.5,536.72,137.39,536.57,137.23z"/>
	</g>
	<circle class="st1" cx="222.83" cy="177.67" r="48.83"/>
	<g>
		<path class="st5" d="M189.17,174.66c-0.07,0.41,11.91,2.93,18.52,4.29c-0.18-0.64-0.33-1.27-0.43-1.9L189.17,174.66z"/>
		<path class="st5" d="M255.64,184.21c-0.25,0.58-0.54,1.15-0.88,1.71l16.99,1.7L255.64,184.21z"/>
		<path class="st5" d="M246.43,165.73l0.29-11.48c0.01-0.52-0.35-0.97-0.86-1.06c-0.01,0-0.02,0-0.02,0
			c-0.52-0.08-1.02,0.23-1.17,0.73l-3.64,11.93c0.74-0.13,1.5-0.21,2.27-0.25l-5.26,17.24c-0.16,0.51-0.67,0.81-1.2,0.73
			l-13.29-2.52l-4.59,7.99c-0.22,0.39-0.66,0.57-1.11,0.51c-0.44-0.09-0.78-0.44-0.84-0.89l-1.78-12.79l-2.22,3.47
			c-0.23,0.36-0.65,0.54-1.07,0.47c0,0-1.73-0.35-4.24-0.86c2.95,10.54,15.42,21.76,18.33,24.27l0.99,0.85l1.22-0.45
			c2.21-0.82,8.96-3.47,15.32-7.45l0.78-30.59C245.05,165.58,245.75,165.64,246.43,165.73z"/>
		<path class="st5" d="M214.98,172.35c0.24-0.37,0.69-0.56,1.11-0.46c0.43,0.09,0.75,0.45,0.82,0.88l1.75,12.57l3.44-5.98
			c0.22-0.39,0.67-0.56,1.11-0.51l13.1,2.49l4.72-15.48c-3.25,0.56-6.12,1.81-7.7,2.61c-1.51-1.84-4.37-4.8-8.19-6.36
			c-4.35-1.77-9.09-1.5-12.42,0.79c-2.89,1.99-4.74,5.26-5.48,9.72c-0.26,1.43-0.23,2.92,0.03,4.44l4.35,0.57L214.98,172.35z"/>
		<path class="st5" d="M250.17,191.28c1.85-1.66,3.44-3.46,4.59-5.36l-1.84-0.18L250.17,191.28z"/>
		<path class="st5" d="M251.37,184.11c0.2-0.41,0.65-0.64,1.1-0.57l3.16,0.67c0.39-0.89,0.69-1.8,0.86-2.73
			c0.86-4.51,0.29-8.23-1.69-11.05c-1.81-2.58-4.82-4.21-8.38-4.7l-0.74,29.04c-0.7,0.48-1.42,0.95-2.14,1.4l-0.11,4.18
			c-0.01,0.49,0.32,0.93,0.8,1.05c0.02,0.01,0.05,0.01,0.07,0.01c0.46,0.08,0.92-0.15,1.13-0.57l4.73-9.57
			c-1.2,1.08-2.5,2.1-3.85,3.06L251.37,184.11z"/>
	</g>
	<circle class="st1" cx="333.62" cy="120.14" r="39.18"/>
	<g>
		<path class="st5" d="M354.16,97.43l-15.38-2.76l-0.28,1.53l1.6,0.29l-7.96,44.34l0.01,0c-0.01,0.04-0.02,0.07-0.03,0.11
			c-0.44,2.46,1.96,4.94,5.37,5.56c3.41,0.61,6.53-0.88,6.97-3.34c0.01-0.04,0.01-0.08,0.01-0.12l0.01,0l7.96-44.34l1.45,0.26
			L354.16,97.43z M347.25,117.57l-6.17-1.11l-1.6-0.29l-1.22-0.22l3.44-19.18l8.98,1.61L347.25,117.57z"/>
		<path class="st5" d="M324.5,102.2l1.34,0.24l-6.62,36.86l0.01,0c-0.01,0.03-0.02,0.06-0.02,0.09c-0.37,2.04,1.65,4.11,4.5,4.63
			c2.85,0.51,5.46-0.73,5.83-2.77c0.01-0.03,0.01-0.06,0.01-0.1l0.01,0l6.62-36.86l1.21,0.22l0.23-1.28l-12.88-2.31L324.5,102.2z
			 M331.84,119.98l-5.17-0.93l-1.34-0.24l-1.02-0.18l2.86-15.94l7.53,1.35L331.84,119.98z"/>
	</g>
	<circle class="st1" cx="603.69" cy="234.39" r="30.72"/>
	<g>
		<g>
			<path class="st5" d="M619.71,221.05c-1.64-1.73-3.96-2.72-6.36-2.72c-2.26,0-4.41,0.85-6.04,2.41l-15.33,14.57
				c-3.51,3.33-3.65,8.9-0.31,12.4c1.64,1.73,3.96,2.72,6.36,2.72c2.26,0,4.41-0.85,6.04-2.4l15.33-14.58
				C622.9,230.12,623.04,224.56,619.71,221.05z M602.71,246.6c-1.26,1.2-2.93,1.86-4.68,1.86c-1.89,0-3.64-0.75-4.93-2.11
				c-2.58-2.72-2.48-7.03,0.24-9.62l7.12-6.77l9.6,9.65L602.71,246.6z"/>
		</g>
	</g>
	<circle class="st1" cx="665.11" cy="107.59" r="54.29"/>
	<path class="st5" d="M702.56,101.76c-3.17,0-5.73,2.57-5.73,5.73c0,0.03,0.01,0.05,0.01,0.08l-11.38,0.79
		c-0.08-1.88-0.46-3.68-1.09-5.36l5.09-2.55c0.41,0.51,1.04,0.84,1.75,0.84c1.25,0,2.27-1.01,2.27-2.27s-1.02-2.27-2.27-2.27
		s-2.27,1.01-2.27,2.27c0,0.06,0.01,0.11,0.02,0.17l-5.11,2.56c-0.82-1.77-1.92-3.37-3.26-4.76l6.7-5.76
		c0.78,0.64,1.75,1.03,2.84,1.03c2.48,0,4.5-2.01,4.5-4.5c0-2.48-2.01-4.5-4.5-4.5c-2.48,0-4.5,2.01-4.5,4.5
		c0,0.92,0.28,1.77,0.75,2.48l-6.76,5.81c-1.04-0.93-2.18-1.74-3.42-2.41l6.02-16.61c0.32,0.07,0.65,0.12,0.99,0.12
		c2.48,0,4.5-2.01,4.5-4.5s-2.01-4.5-4.5-4.5c-2.48,0-4.5,2.01-4.5,4.5c0,1.66,0.92,3.1,2.26,3.88l-5.99,16.53
		c-1.97-0.86-4.13-1.37-6.39-1.45v-9.75c1.3-0.31,2.27-1.46,2.27-2.85c0-1.62-1.32-2.94-2.94-2.94c-1.62,0-2.94,1.32-2.94,2.94
		c0,1.39,0.97,2.55,2.27,2.85v9.75c-2.89,0.11-5.6,0.91-7.97,2.25l-8.59-11.83c1.06-0.92,1.74-2.25,1.74-3.76c0-2.76-2.24-5-5-5
		c-2.76,0-5,2.24-5,5c0,2.76,2.24,5,5,5c0.77,0,1.49-0.19,2.14-0.5l8.56,11.79c-1.6,1.08-3,2.42-4.17,3.95l-4.99-3.63
		c0.16-0.31,0.26-0.66,0.26-1.04c0-1.25-1.01-2.27-2.27-2.27c-1.25,0-2.27,1.01-2.27,2.27c0,1.25,1.02,2.27,2.27,2.27
		c0.38,0,0.73-0.1,1.04-0.26l5.17,3.76c-1.02,1.57-1.79,3.32-2.26,5.19l-9.92-2.91c-0.04-2.03-1.7-3.67-3.74-3.67
		c-2.07,0-3.75,1.68-3.75,3.75c0,2.07,1.68,3.75,3.75,3.75c1.63,0,3-1.04,3.52-2.49l9.86,2.9c-0.17,0.99-0.28,2-0.28,3.04
		c0,0.84,0.08,1.65,0.19,2.46l-13.08,2.7c-0.75-1.43-2.23-2.41-3.96-2.41c-2.48,0-4.5,2.01-4.5,4.5c0,2.48,2.01,4.5,4.5,4.5
		c2.48,0,4.5-2.01,4.5-4.5c0-0.28-0.03-0.55-0.08-0.81l12.85-2.65c0.38,1.74,1.02,3.38,1.88,4.89l-6.57,3.54
		c-0.38-0.3-0.86-0.48-1.38-0.48c-1.25,0-2.27,1.01-2.27,2.27s1.01,2.27,2.27,2.27c1.25,0,2.27-1.01,2.27-2.27
		c0-0.24-0.05-0.46-0.11-0.68l6.5-3.5c0.68,1.01,1.48,1.94,2.35,2.79c-5.44,5.07-8.1,7.57-9.4,8.82c-0.46-0.3-1.01-0.48-1.6-0.48
		c-1.62,0-2.94,1.31-2.94,2.94c0,1.62,1.32,2.94,2.94,2.94c1.62,0,2.94-1.32,2.94-2.94c0-0.55-0.16-1.05-0.42-1.49
		c1.9-1.81,5.91-5.55,9.48-8.88c1.62,1.34,3.48,2.39,5.51,3.09l-5.35,12.43c-0.35-0.08-0.7-0.14-1.07-0.14c-2.48,0-4.5,2.01-4.5,4.5
		c0,2.48,2.01,4.5,4.5,4.5c2.48,0,4.5-2.01,4.5-4.5c0-1.64-0.88-3.05-2.18-3.84l5.41-12.56c1.41,0.37,2.89,0.58,4.42,0.58
		c1.19,0,2.34-0.12,3.46-0.34c0.53,4.26,0.9,7.06,1.15,8.92c-2.19,0.53-3.82,2.49-3.82,4.84c0,2.76,2.24,5,5,5c2.76,0,5-2.24,5-5
		c0-2.71-2.16-4.9-4.85-4.99c-0.34-2.55-0.8-6.1-1.17-9.1c1.14-0.32,2.23-0.75,3.26-1.28l7.77,15.44c-0.71,0.54-1.17,1.38-1.17,2.33
		c0,1.62,1.32,2.94,2.94,2.94c1.62,0,2.94-1.31,2.94-2.94c0-1.62-1.32-2.94-2.94-2.94c-0.19,0-0.36,0.02-0.54,0.05l-7.83-15.55
		c1.71-1.05,3.23-2.38,4.48-3.94l12.8,10.62c-0.23,0.42-0.38,0.9-0.38,1.42c0,1.62,1.32,2.94,2.94,2.94c1.62,0,2.94-1.32,2.94-2.94
		c0-1.62-1.32-2.94-2.94-2.94c-0.62,0-1.19,0.19-1.66,0.52l-12.89-10.7c0.5-0.73,0.94-1.51,1.33-2.32l9.18,4.34
		c-0.04,0.17-0.07,0.34-0.07,0.52c0,1.25,1.02,2.27,2.27,2.27c1.25,0,2.27-1.01,2.27-2.27s-1.01-2.27-2.27-2.27
		c-0.58,0-1.11,0.22-1.51,0.58l-9.34-4.41c0.71-1.82,1.12-3.78,1.19-5.83l11.55-0.8c0.63,2.48,2.86,4.32,5.54,4.32
		c3.17,0,5.73-2.57,5.73-5.73C708.29,104.32,705.73,101.76,702.56,101.76z M656.67,103.33c-3.58,7.05-1.12,14.22-1.12,14.22
		c-1.01-1.12-4.37-7.95-0.83-14.89c4.29-8.26,12.69-7.28,12.69-7.28S660.25,96.27,656.67,103.33z"/>
	<circle class="st1" cx="691.02" cy="292.13" r="36.94"/>
	<path class="st5" d="M720.66,299.91h-15.85v15.85h-15.56v-15.85h-15.85v-15.56h15.85v-15.85h15.56v15.85h15.85V299.91z"/>
	<circle class="st1" cx="296.56" cy="278.15" r="30.72"/>
	<g>
		<path class="st5" d="M285.32,285.41c-0.39,0.82-0.76,1.67-1.13,2.53c0.91-0.08,1.83-0.14,2.76-0.17c0.39-0.82,0.79-1.62,1.21-2.4
			C287.21,285.37,286.26,285.37,285.32,285.41z M309.71,278.67l-1.85-2.66c-0.82,0.01-1.64,0.02-2.44,0.05l2.95,4.23
			c-0.73,0.78-1.51,1.47-2.34,2.07l-4.18-6.01c-0.74,0.1-1.48,0.23-2.2,0.4l4.63,6.66c-0.47,0.23-0.95,0.45-1.46,0.62
			c-0.52,0.18-1.04,0.33-1.57,0.46l-4.68-6.73c-0.55,0.26-1.08,0.57-1.59,0.92c-0.05,0.04-0.1,0.08-0.16,0.12l4.25,6.11
			c-1.16,0.18-2.34,0.29-3.54,0.35l-3.04-4.37c-0.46,0.51-0.91,1.06-1.33,1.64l1.95,2.8c-1.24,0.02-2.49,0.01-3.74,0
			c-0.43,0.76-0.84,1.55-1.24,2.37c5.58-0.09,11.31,0.37,16.31-1.34c4.46-1.53,7.5-5.55,9.94-10.41c-0.98,0.02-1.96,0.03-2.94,0.03
			C310.91,276.95,310.33,277.84,309.71,278.67z M277.85,286.4l1.64,2.35c0.32-0.09,0.64-0.16,0.97-0.23l1.48,2.12
			c0.3-0.76,0.6-1.51,0.9-2.26l-0.19-0.28c0.11-0.02,0.22-0.02,0.33-0.04c0.37-0.89,0.75-1.75,1.14-2.6
			C281.96,285.59,279.86,285.84,277.85,286.4z M312.06,274.94c0.96,0,1.91-0.01,2.86-0.04c0.39-0.82,0.76-1.66,1.12-2.52
			c-0.91,0.08-1.84,0.13-2.77,0.17C312.9,273.36,312.49,274.16,312.06,274.94z M313.79,271.44c0.92-0.04,1.83-0.1,2.73-0.2
			c0.03-0.07,0.06-0.14,0.09-0.21l0.13,0.19c0.76-0.09,1.5-0.2,2.23-0.35l-1.46-2.1c0.16-0.4,0.31-0.81,0.47-1.21l-1.64-2.35
			C315.53,267.32,314.7,269.43,313.79,271.44z"/>
		<path class="st5" d="M292.74,275.46c-4.95,3.44-7.84,10.39-10.47,17.28c0.55,0.78,1.09,1.57,1.64,2.35
			c2.63-6.9,5.52-13.84,10.47-17.28c0.94-0.65,1.95-1.18,3.04-1.55c7.65-2.62,17.04-0.14,24.97-2.36c-0.55-0.78-1.09-1.57-1.64-2.35
			c-7.93,2.22-17.32-0.26-24.97,2.36C294.68,274.29,293.67,274.81,292.74,275.46z"/>
	</g>
	<circle class="st10" cx="230.46" cy="177.67" r="48.83"/>
	<circle class="st10" cx="336.66" cy="120.14" r="39.18"/>
	<circle class="st10" cx="605.69" cy="234.39" r="30.72"/>
	<circle class="st10" cx="668.65" cy="107.59" r="54.29"/>
	<circle class="st10" cx="697.03" cy="292.13" r="36.94"/>
	<circle class="st10" cx="300.12" cy="279.73" r="30.72"/>
	<g>
		<g>
			<defs>
				<path id="SVGID_3_" d="M534.92,193.01l-39.24-7.28c-2.81-0.52-4.66-3.22-4.14-6.03l12.22-65.92c0.52-2.81,3.22-4.66,6.03-4.14
					l39.24,7.28c2.81,0.52,4.66,3.22,4.14,6.03l-12.22,65.92C540.43,191.67,537.73,193.53,534.92,193.01z"/>
			</defs>
			<use xlink:href="#SVGID_3_"  style="overflow:visible;fill:#FFFFFF;"/>
			<clipPath id="SVGID_4_">
				<use xlink:href="#SVGID_3_"  style="overflow:visible;"/>
			</clipPath>
			<g class="st15">
				<g>
					<path class="st4" d="M510.77,198.96c13.19,2.98,28.17,12.82,38.02,5.06c0.73-0.58,0.54-14.13,0.3-15.07
						c-0.56-5.52-5.87-8.24-11.15-12.17c-3.92-2.92-9.05-7.49-9.05-7.49c0.2,0.89,0.37,1.46,0.37,1.46l-7.41,9.46l-10.47,13.46
						c0,0,1.93-12.85,2.07-16.92c0.14-4.07-2.86-9.83-2.86-9.83l0.43-1.92c-0.69-0.14-5.25,3.13-9.66,4.39
						c-4.2,1.2-8.5,0.56-10.44,0.7c-2.98,0.21-5.99,2.95-8.91,6.66c-2.78,3.57-4.79,10.4-2.67,12.89
						C485.18,196.5,501.33,196.83,510.77,198.96z"/>
					<path class="st4" d="M528.47,162.6c0.09-0.47,0.23-0.92,0.41-1.31c1.5-3.18,5.06-11.17,5.06-11.17s3.12-5.62-1.81-8.42
						c-1.69-0.96-6.85-2.53-7.25-7.7c-0.39-5.17,1.54-7.66-6.13-7.44c0,0-4.78,3.81-5.41,6.6c-0.63,2.79-3.35,8.81-4.01,12.57
						c-0.65,3.76,0.64,11.87,3.03,13.39l-0.36,1.58l-0.98,4.32l-0.43,1.92c0,0,3,5.76,2.86,9.83c-0.14,4.07-2.07,16.92-2.07,16.92
						l10.47-13.46l7.41-9.46c0,0-0.17-0.58-0.37-1.46C528.52,167.6,528.04,164.78,528.47,162.6z"/>
				</g>
				<g>
					<path class="st16" d="M513.47,199.57c13.19,2.98,28.17,12.82,38.02,5.06c0.73-0.58,0.54-14.13,0.3-15.07
						c-0.56-5.52-5.87-8.24-11.15-12.17c-3.92-2.92-9.05-7.49-9.05-7.49c0.2,0.89,0.37,1.46,0.37,1.46l-7.41,9.46l-10.47,13.46
						c0,0,1.93-12.85,2.07-16.92c0.14-4.07-2.86-9.83-2.86-9.83l0.43-1.92c-0.69-0.14-5.25,3.13-9.66,4.39
						c-4.2,1.2-8.5,0.56-10.44,0.7c-2.98,0.21-5.99,2.95-8.91,6.66c-2.78,3.57-4.79,10.4-2.67,12.89
						C487.88,197.11,504.02,197.44,513.47,199.57z"/>
					<path class="st2" d="M531.16,163.21c0.09-0.47,0.23-0.92,0.41-1.31c1.5-3.18,5.06-11.17,5.06-11.17s3.12-5.62-1.81-8.42
						c-1.69-0.96-6.85-2.53-7.25-7.7c-0.39-5.17,1.54-7.66-6.13-7.44c0,0-4.78,3.81-5.41,6.6c-0.63,2.79-3.35,8.81-4.01,12.57
						c-0.65,3.76,0.64,11.87,3.03,13.39l-0.36,1.58l-0.98,4.32l-0.43,1.92c0,0,3,5.76,2.86,9.83c-0.14,4.07-2.07,16.92-2.07,16.92
						l10.47-13.46l7.41-9.46c0,0-0.17-0.58-0.37-1.46C531.22,168.21,530.74,165.39,531.16,163.21z"/>
				</g>
				<g>
					<path class="st17" d="M510.69,146.09c0.65-3.76,3.38-9.78,4.01-12.57c0.63-2.79,5.41-6.6,5.41-6.6
						c7.67-0.22,5.74,2.27,6.13,7.44c0.39,5.17,5.59,6.68,7.25,7.7c4.76,2.9,1.81,8.42,1.81,8.42s-3.56,7.99-5.06,11.17
						c-0.19,0.4-0.32,0.84-0.41,1.31c3.41,0.74,8.06,1.57,9.29,0.89c2.01-1.11,9.27-7.28,8.5-12.54c0,0,0.86-0.25,1.85-0.73
						c1.61-0.78,1.72-3,0.25-4.02c-1.35-0.94-2.82-2.44-3.29-4.7c-0.93-4.51-4.22-16.78-13.61-15c0,0-8.01-8.65-15.19-1.09
						c0,0-1.97,0.87-4.02,2.22c-2.63,1.73-17.72,19.15-9.88,27.27c1.86,1.92,4.27,5.29,9.63,5.79l0.36-1.58
						C511.33,157.95,510.04,149.85,510.69,146.09z"/>
					<path class="st10" d="M509.69,146.09c0.65-3.76,3.38-9.78,4.01-12.57c0.63-2.79,5.41-6.6,5.41-6.6
						c7.67-0.22,5.74,2.27,6.13,7.44c0.39,5.17,5.59,6.68,7.25,7.7c4.76,2.9,1.81,8.42,1.81,8.42s-3.56,7.99-5.06,11.17
						c-0.19,0.4-0.32,0.84-0.41,1.31c3.41,0.74,8.06,1.57,9.29,0.89c2.01-1.11,9.27-7.28,8.5-12.54c0,0,0.86-0.25,1.85-0.73
						c1.61-0.78,1.72-3,0.25-4.02c-1.35-0.94-2.82-2.44-3.29-4.7c-0.93-4.51-4.22-16.78-13.61-15c0,0-8.01-8.65-15.19-1.09
						c0,0-1.97,0.87-4.02,2.22c-2.63,1.73-17.72,19.15-9.88,27.27c1.86,1.92,4.27,5.29,9.63,5.79l0.36-1.58
						C510.33,157.95,509.04,149.85,509.69,146.09z"/>
					<path class="st10" d="M511.13,199.32c13.19,2.98,28.17,12.82,38.02,5.06c0.73-0.58,0.54-14.13,0.3-15.07
						c-0.56-5.52-5.87-8.24-11.15-12.17c-3.92-2.92-9.05-7.49-9.05-7.49c0.2,0.89,0.37,1.46,0.37,1.46l-7.41,9.46l-10.47,13.46
						c0,0,1.93-12.85,2.07-16.92c0.14-4.07-2.86-9.83-2.86-9.83l0.43-1.92c-0.69-0.14-5.25,3.13-9.66,4.39
						c-4.2,1.2-8.5,0.56-10.44,0.7c-2.98,0.21-5.99,2.95-8.91,6.66c-2.78,3.57-4.79,10.4-2.67,12.89
						C485.54,196.86,501.68,197.19,511.13,199.32z"/>
					<path class="st10" d="M528.82,162.95c0.09-0.47,0.23-0.92,0.41-1.31c1.5-3.18,5.06-11.17,5.06-11.17s3.12-5.62-1.81-8.42
						c-1.69-0.96-6.85-2.53-7.25-7.7c-0.39-5.17,1.54-7.66-6.13-7.44c0,0-4.78,3.81-5.41,6.6c-0.63,2.79-3.35,8.81-4.01,12.57
						c-0.65,3.76,0.64,11.87,3.03,13.39l-0.36,1.58l-0.98,4.32l-0.43,1.92c0,0,3,5.76,2.86,9.83c-0.14,4.07-2.07,16.92-2.07,16.92
						l10.47-13.46l7.41-9.46c0,0-0.17-0.58-0.37-1.46C528.88,167.96,528.4,165.14,528.82,162.95z"/>
					<path class="st10" d="M512.72,159.47c0,0,6.14,7.34,11.63,1.05"/>
					<path class="st10" d="M524.21,151.37c0,0-4.65,2.75-8.16,1.26c0,0-0.85,2.72,4.7,2.3"/>
					<path class="st10" d="M519.51,144.38c0,0-1.63,1.49-1.83,3.39c-0.15,1.44,2.68,1.05,2.68,1.05"/>
					<circle class="st5" cx="514.86" cy="141.65" r="0.8"/>
					<circle class="st5" cx="526.91" cy="143.38" r="0.8"/>
				</g>
			</g>
		</g>
		<path class="st10" d="M534.92,193.01l-39.24-7.28c-2.81-0.52-4.66-3.22-4.14-6.03l12.22-65.92c0.52-2.81,3.22-4.66,6.03-4.14
			l39.24,7.28c2.81,0.52,4.66,3.22,4.14,6.03l-12.22,65.92C540.43,191.67,537.73,193.53,534.92,193.01z"/>
	</g>
	<path class="st10" d="M376.28,298.8l-10.97,55.91c-2.02,10.69,4.7,20.98,15.13,23.57c0.38,0.09,0.74,0.2,1.13,0.27l73.07,12.25
		l32.4,5.43c3.77,0.71,7.48,0.32,10.83-0.92"/>
	<path class="st10" d="M524.02,313.34l1.69-8.58l9.57-48.58c0,0,24.8-133.55,24.84-133.8c0.69-3.71,1.53-8.43-1.2-11.56
		c-2.73-3.12-7.3-4.17-11.89-4.79c-2.96-0.4-95.91-18.21-107.3-20.43c-0.89-0.17-1.78-0.35-2.68-0.52
		c-11.07-2.09-18.42,1.86-20.52,12.93l-31.71,149.92"/>
	<line class="st10" x1="517.93" y1="343.65" x2="512.91" y2="373.23"/>
</g>
</svg>
