<svg xmlns="http://www.w3.org/2000/svg" viewBox="0 0 841.88976 467.71654"><defs><style>.cls-1{fill:#f5c65d;}.cls-2{fill:#fff;}.cls-3{fill:#f4f4f5;}.cls-4{fill:#4890ba;}.cls-5,.cls-8,.cls-9{fill:none;stroke-miterlimit:10;}.cls-5,.cls-9{stroke:#54565a;}.cls-6{fill:#e0635d;}.cls-7{fill:#61a575;}.cls-8{stroke:#fff;}.cls-9{stroke-width:0.87633px;}.cls-10{fill:#54565a;}</style></defs><title>New bug bounty program solution to secure government digital services</title><g id="Layer_3" data-name="Layer 3"><rect class="cls-1" x="-0.61815" y="-1.41354" width="843.46044" height="470.54362"/><path class="cls-2" d="M719.48975,38.17689C670.32029,41.93781,454.85428,60.8986,392.67463,66.38254a22.09392,22.09392,0,0,0-19.81274,18.14794l-51.25664,288.6237L44.07439,395.7439s-2.58169,10.97215,21.29888,12.90842c22.55132,1.82848,284.5397,29.55761,313.63529,32.63885a29.10394,29.10394,0,0,0,5.252.07955L621.72584,423.497s32.91646-3.2271,38.72524-14.19925c0,0,20.008-.64542,20.008-11.61757,0-9.87135,39.70318-293.48565,47.66984-350.29495A8.1008,8.1008,0,0,0,719.48975,38.17689Z"/><path class="cls-2" d="M662.38734,370.5725c-10.32673-1.93626-325.93741-17.42636-325.93741-17.42636L382.27479,81.42406,708.21221,52.38013Z"/><path class="cls-3" d="M714.00947,39.547C664.84,43.30788,449.374,62.26867,387.19435,67.75261a22.09392,22.09392,0,0,0-19.81274,18.14794L316.125,374.52425,38.5941,397.114S36.01242,408.08613,59.893,410.02239c22.55133,1.82848,284.5397,29.55761,313.63529,32.63885a29.10406,29.10406,0,0,0,5.252.07955l237.46529-17.87373S649.162,421.64,654.9708,410.66781c0,0,20.008-.64542,20.008-11.61757,0-9.87134,39.70317-293.48565,47.66983-350.29494A8.10079,8.10079,0,0,0,714.00947,39.547Z"/><path class="cls-4" d="M660.90706,371.94257c-10.32673-1.93626-325.93741-17.42636-325.93741-17.42636L380.79451,82.79413,706.73193,53.7502Z"/><path class="cls-5" d="M719.89912,37.456C670.72966,41.21689,455.26365,60.17768,393.084,65.66161a22.09393,22.09393,0,0,0-19.81274,18.14794L322.01462,372.43326,44.48376,395.023s-2.58169,10.97215,21.29888,12.90841c22.55133,1.82849,284.5397,29.55762,313.63529,32.63886a29.10394,29.10394,0,0,0,5.252.07955l237.46529-17.87373s32.91646-3.22711,38.72524-14.19926c0,0,20.008-.64542,20.008-11.61757,0-9.87134,39.70318-293.48564,47.66984-350.29494A8.1008,8.1008,0,0,0,719.89912,37.456Z"/><path class="cls-5" d="M662.79671,369.85158C652.47,367.91531,336.8593,352.42522,336.8593,352.42522L382.68416,80.70314,708.62158,51.65921Z"/><path class="cls-5" d="M322.01462,372.43326l328.5191,23.23514s14.84468,0,10.32673,12.90841"/><polyline class="cls-5" points="656.988 396.959 378.812 429.23 44.484 395.023"/><path class="cls-5" d="M375.046,406.43193l-48.55449,10.26355a12.99931,12.99931,0,0,1-4.08279.206L172.89359,400.771a1.38431,1.38431,0,0,1-.04213-2.73674l57.55623-7.77326a33.351,33.351,0,0,1,9.72648-.19593l134.84872,14.66416A.86461.86461,0,0,1,375.046,406.43193Z"/><line class="cls-5" x1="265.8876" y1="383.84447" x2="490.58947" y2="407.12036"/><line class="cls-5" x1="295.95557" y1="379.42271" x2="520.65743" y2="402.6986"/><path class="cls-2" d="M601.73212,313.58173c-9.9946-3.4192-10.17851,2.926-15.42841,12.09236-3.84225,6.70859-9.2622,14.05941-14.77451,14.57619-10.28185.96392-16.06539,2.24915-35.66516-11.24577s-38.23562-7.71139-44.66178,7.06877-11.88839,27.31115-20.24239,37.593-17.99323,35.34385,15.10147,34.37993,31.16685-21.84893,42.73393-17.67192,38.23562,17.35061,55.58624,3.85569,22.49154-24.7407,22.17023-40.16347C606.37016,345.35088,638.36121,326.11274,601.73212,313.58173Z"/><path class="cls-1" d="M600.82355,309.03885c-9.99461-3.41921-10.17852,2.926-15.42841,12.09236-3.84225,6.70858-9.26221,14.0594-14.77452,14.57618-10.28185.96393-16.06539,2.24916-35.66516-11.24577s-38.23562-7.71138-44.66178,7.06877-11.88838,27.31116-20.24238,37.593-17.99324,35.34385,15.10146,34.37993,31.16685-21.84893,42.73393-17.67193,38.23562,17.35062,55.58624,3.85569,22.49154-24.74069,22.17023-40.16346C605.46159,340.808,637.45263,321.56985,600.82355,309.03885Z"/><path class="cls-5" d="M602.30869,312.66748c-9.9946-3.41921-10.17852,2.926-15.42841,12.09235-3.84225,6.70859-9.26221,14.05941-14.77452,14.57619-10.28185.96392-16.06539,2.24916-35.66516-11.24577s-38.23562-7.71139-44.66178,7.06877-11.88838,27.31116-20.24238,37.593S453.5432,408.09588,486.6379,407.132,517.80475,385.283,529.37183,389.46s38.23562,17.35062,55.58624,3.85569,22.49154-24.74069,22.17023-40.16347C606.94673,344.43663,638.93777,325.19848,602.30869,312.66748Z"/><path class="cls-2" d="M362.19126,208.7693a17.48526,17.48526,0,0,1-16.85263,5.69738c-4.53583-.95611-10.6292-.40451-18.3014,4.14679-18.95716,11.24577-23.77678,34.05862-12.2097,47.23224s39.52086,28.27508,46.58963,19.27847-4.177-25.38332,1.92784-29.239,33.88406-13.21294,20.24239-23.13416c-7.06877-5.14092-16.06539-6.74746-16.708-10.92446-.76474-4.97078,13.81623-18.95716,4.177-18.31454C367.61053,203.74173,364.61635,205.98345,362.19126,208.7693Z"/><path class="cls-6" d="M361.28268,213.31219a17.48527,17.48527,0,0,1-16.85262,5.69738c-4.53584-.95612-10.62921-.40452-18.30141,4.14679-18.95716,11.24577-23.77677,34.05862-12.20969,47.23223s39.52085,28.27509,46.58962,19.27847-4.177-25.38331,1.92785-29.239,33.88406-13.21294,20.24238-23.13415c-7.06877-5.14093-16.06538-6.74747-16.708-10.92447-.76473-4.97078,13.81623-18.95715,4.177-18.31454C366.702,208.28462,363.70777,210.52634,361.28268,213.31219Z"/><path class="cls-5" d="M362.19126,209.67788a17.48526,17.48526,0,0,1-16.85263,5.69738c-4.53583-.95611-10.6292-.40452-18.3014,4.14679-18.95716,11.24577-23.77678,34.05862-12.2097,47.23224s39.52086,28.27508,46.58963,19.27846-4.177-25.38331,1.92784-29.239,33.88406-13.21294,20.24239-23.13416c-7.06877-5.14092-16.06539-6.74746-16.708-10.92446-.76474-4.97078,13.81623-18.95716,4.177-18.31454C367.61053,204.65031,364.61635,206.892,362.19126,209.67788Z"/><path class="cls-2" d="M407.18418,64.19158c2.24915-1.92785,31.16685-34.70124,62.655-20.885S567.51674,76.08,551.77266,107.24682,536.6712,147.089,531.85158,180.18368s-57.19277,31.16685-42.41262,5.46223,35.66516-36.62909,32.45208-59.12063-42.73393-63.29762-62.3337-66.5107Z"/><path class="cls-2" d="M403.54987,63.283c2.24916-1.92784,31.16685-34.70123,62.655-20.885s97.67756,32.77339,81.93348,63.94024-15.10147,39.84216-19.92108,72.93686-57.19278,31.16685-42.41262,5.46223,35.66516-36.62908,32.45208-59.12062S475.52281,62.31908,455.923,59.106Z"/><path class="cls-5" d="M407.18418,65.10016c2.24915-1.92785,31.16685-34.70124,62.655-20.885s97.67755,32.77339,81.93347,63.94024-15.10146,39.84216-19.92108,72.93686-57.19277,31.16685-42.41262,5.46223,35.66516-36.62908,32.45208-59.12062-42.73393-63.29763-62.3337-66.5107Z"/><path class="cls-2" d="M742.00961,166.70644s-11.24577-27.31116-75.82862,1.92784a74.11231,74.11231,0,0,1-43.37655,7.71139c-24.7407-3.21308-53.33708,26.98985-46.26831,42.09132s17.57415,16.76156,40.48477,8.354c35.02255-12.85231,40.16347-7.39008,31.16685,13.17361-7.07269,16.16617,30.84555.96393,41.4487,2.89177a11.91989,11.91989,0,0,1,10.28185,11.88839l-3.53439,25.70462S773.17646,233.85976,742.00961,166.70644Z"/><path class="cls-7" d="M744.73534,168.52359s-11.24577-27.31116-75.82862,1.92785a74.11235,74.11235,0,0,1-43.37655,7.71138c-24.7407-3.21307-53.33708,26.98985-46.26831,42.09132s17.57415,16.76157,40.48477,8.354c35.02255-12.85231,40.16347-7.39008,31.16685,13.17362-7.07269,16.16616,30.84555.96392,41.4487,2.89177A11.91987,11.91987,0,0,1,702.644,256.56191l-3.53439,25.70462S775.90219,235.67691,744.73534,168.52359Z"/><path class="cls-5" d="M741.101,166.70644s-11.24577-27.31116-75.82863,1.92784a74.11231,74.11231,0,0,1-43.37655,7.71139c-24.74069-3.21308-53.33708,26.98985-46.26831,42.09132s17.57415,16.76156,40.48477,8.354c35.02255-12.85231,40.16347-7.39008,31.16686,13.17361-7.0727,16.16617,30.84554.96393,41.44869,2.89177a11.91989,11.91989,0,0,1,10.28185,11.88839l-3.53438,25.70462S772.26789,233.85976,741.101,166.70644Z"/><path class="cls-8" d="M430.46791,172.59836s-25.70462,27.63246-2.24915,52.69447"/><path class="cls-8" d="M379.04056,263.17951c5.14092,0,182.52091,6.77509,182.52091,6.77509"/><path class="cls-8" d="M373.27513,289.87568c1.28523,0,273.05273,8.47321,273.05273,8.47321"/><line class="cls-8" x1="367.8129" y1="308.19023" x2="547.85359" y2="316.2533"/><circle class="cls-2" cx="400.27189" cy="187.0503" r="2.83215"/><circle class="cls-2" cx="399.62237" cy="211.7979" r="2.83215"/><circle class="cls-9" cx="570.12476" cy="369.10672" r="14.89951"/><path class="cls-9" d="M570.12476,343.96379v49.35464"/><path class="cls-9" d="M594.80208,368.64111H545.44744"/><circle class="cls-10" cx="497.56237" cy="192.43225" r="1.81715"/><circle class="cls-10" cx="502.15057" cy="186.0269" r="1.81715"/><circle class="cls-10" cx="588.6581" cy="213.78501" r="1.81715"/><circle class="cls-10" cx="602.50065" cy="216.59092" r="1.81715"/><circle class="cls-10" cx="342.298" cy="234.54885" r="1.81715"/><circle class="cls-10" cx="342.45836" cy="253.17482" r="1.81715"/><circle class="cls-10" cx="598.07714" cy="319.06114" r="1.81715"/></g></svg>