<?xml version="1.0" encoding="utf-8"?>
<!-- Generator: Adobe Illustrator 23.0.6, SVG Export Plug-In . SVG Version: 6.00 Build 0)  -->
<svg version="1.1" id="Layer_1" xmlns="http://www.w3.org/2000/svg" xmlns:xlink="http://www.w3.org/1999/xlink" x="0px" y="0px"
	 viewBox="0 0 841.89 467.72" style="enable-background:new 0 0 841.89 467.72;" xml:space="preserve">
<style type="text/css">
	.st0{clip-path:url(#SVGID_2_);fill:#235485;}
	.st1{clip-path:url(#SVGID_2_);}
	.st2{fill:#F4F4F5;}
	.st3{fill:none;stroke:#54575C;stroke-width:0.746;stroke-miterlimit:10;}
	.st4{fill:none;stroke:#54575C;stroke-width:0.5989;stroke-miterlimit:10;}
	.st5{fill:#4890BA;}
	.st6{font-family:'Arimo';}
	.st7{font-size:76.9408px;}
	.st8{fill:#FFFFFF;}
	.st9{fill:none;stroke:#54575C;stroke-width:0.6507;stroke-miterlimit:10;}
	.st10{font-family:'Geomanist-Medium';}
	.st11{font-size:70.8158px;}
	.st12{fill:#61A575;}
	.st13{fill:#DCEFFA;}
	.st14{fill:#F4F4F5;stroke:#F4F4F5;stroke-width:0.417;stroke-miterlimit:10;}
	.st15{fill:#4890BA;stroke:#F4F4F5;stroke-width:0.417;stroke-miterlimit:10;}
	.st16{fill:#E69647;}
	.st17{fill:none;stroke:#54575C;stroke-width:0.6728;stroke-miterlimit:10;}
	.st18{fill:#F5C65D;}
	.st19{fill:#D16F46;}
	.st20{fill:none;}
	.st21{fill:none;stroke:#54575C;stroke-width:0.6705;stroke-miterlimit:10;}
	.st22{fill:#F5AE97;}
	.st23{fill:none;stroke:#54575C;stroke-width:0.7741;stroke-miterlimit:10;}
	.st24{fill:none;stroke:#54575C;stroke-width:0.7668;stroke-miterlimit:10;}
	.st25{fill:#F9CDC4;}
	.st26{fill:#E0635D;}
	.st27{fill:none;stroke:#54575C;stroke-width:0.6026;stroke-miterlimit:10;}
	.st28{fill:#C47C59;}
	.st29{clip-path:url(#SVGID_4_);fill:#E0635D;}
	.st30{clip-path:url(#SVGID_4_);fill:#F5C65D;}
	.st31{fill:#93482D;}
	.st32{fill:none;stroke:#54575C;stroke-width:0.8089;stroke-miterlimit:10;}
</style>
<g>
	<defs>
		<rect id="SVGID_1_" x="0.09" y="-0.16" width="841.72" height="468.03"/>
	</defs>
	<clipPath id="SVGID_2_">
		<use xlink:href="#SVGID_1_"  style="overflow:visible;"/>
	</clipPath>
	<rect x="0.09" y="-4.29" class="st0" width="841.72" height="472.68"/>
	<g class="st1">
		<path class="st2" d="M147.55,106.2l-1.05,326.03c-0.01,4.02,3.23,7.29,7.25,7.3l404.62,1.3c4.02,0.01,7.29-3.23,7.3-7.25
			l1.05-326.03c0.01-4.02-3.23-7.29-7.25-7.3l-404.62-1.3C150.83,98.93,147.57,102.18,147.55,106.2z"/>
		<g>
			<path class="st3" d="M150.37,105.61l-1.03,321.46c-0.02,5.28,4.25,9.57,9.53,9.59l400.06,1.28c5.28,0.02,9.57-4.25,9.59-9.53
				l1.03-321.46c0.02-5.28-4.25-9.57-9.53-9.59l-400.06-1.28C154.68,96.06,150.38,100.33,150.37,105.61z"/>
			<line class="st3" x1="568.99" y1="115.66" x2="151.09" y2="114.97"/>
			<g>
				<circle class="st4" cx="521.86" cy="106.87" r="4.56"/>
				<circle class="st4" cx="538.59" cy="107.14" r="4.56"/>
				<circle class="st4" cx="555.32" cy="107.4" r="4.56"/>
			</g>
		</g>
	</g>
	<g class="st1">
		<path class="st2" d="M271.34,37.4l-1.05,326.03c-0.01,4.02,3.23,7.29,7.25,7.3l404.62,1.3c4.02,0.01,7.29-3.23,7.3-7.25
			l1.05-326.03c0.01-4.02-3.23-7.29-7.25-7.3l-404.62-1.3C274.62,30.14,271.35,33.39,271.34,37.4z"/>
		<g>
			<path class="st3" d="M274.15,36.82l-1.03,321.46c-0.02,5.28,4.25,9.57,9.53,9.59l400.06,1.28c5.28,0.02,9.57-4.25,9.59-9.53
				l1.03-321.46c0.02-5.28-4.25-9.57-9.53-9.59l-400.06-1.28C278.46,27.27,274.17,31.54,274.15,36.82z"/>
			<line class="st3" x1="692.77" y1="46.87" x2="274.88" y2="46.17"/>
			<g>
				<circle class="st4" cx="287.96" cy="38.08" r="4.56"/>
				<circle class="st4" cx="304.69" cy="38.34" r="4.56"/>
				<circle class="st4" cx="321.43" cy="38.61" r="4.56"/>
			</g>
		</g>
	</g>
	<g class="st1">
		<text transform="matrix(1 0 0 1 243.6191 148.8601)" class="st5 st6 st7">API</text>
		<path class="st5" d="M220.12,123.47c4.31,2.94,5.53,7.14,5.56,11.83c0.03,5.74-0.15,11.48-0.24,17.22
			c-0.01,0.84-0.03,1.68-0.02,2.53c0.04,6.56,1.2,9.28,7.99,9.11c-0.02,1.38-0.05,3.13-0.07,4.52c-8.05,0.6-12.98-3.94-13.02-11.97
			c-0.03-6.58,0.19-13.17,0.25-19.75c0.01-1.52-0.11-3.06-0.34-4.56c-0.67-4.41-2.27-6-6.71-6.98c0.02-1.34,0.04-2.75,0.06-4.11
			c5.88-0.72,6.88-4.79,7.39-10.17c0.19-6.43,0.22-12.86,0.33-19.29c0.02-1.07,0-2.15,0.17-3.21c1.12-7.24,5.57-10.65,13.24-10.01
			c-0.02,1.26-0.06,3.83-0.06,3.83s-0.01,0.61-0.01,0.73c-0.11,0-0.39,0-0.43,0c-5.75,0.13-7.53,2.07-7.74,7.76
			c-0.22,6.04-0.3,12.09-0.33,18.14C226.11,114.71,225.28,119.99,220.12,123.47z"/>
		<path class="st5" d="M394.88,123.47c-4.31,2.94-5.53,7.14-5.56,11.83c-0.03,5.74,0.15,11.48,0.24,17.22
			c0.01,0.84,0.03,1.68,0.02,2.53c-0.04,6.56-1.2,9.28-7.99,9.11c0.02,1.38,0.05,3.13,0.07,4.52c8.05,0.6,12.98-3.94,13.02-11.97
			c0.03-6.58-0.19-13.17-0.25-19.75c-0.01-1.52,0.11-3.06,0.34-4.56c0.67-4.41,2.27-6,6.71-6.98c-0.02-1.34-0.04-2.75-0.06-4.11
			c-5.88-0.72-6.88-4.79-7.39-10.17c-0.19-6.43-0.22-12.86-0.33-19.29c-0.02-1.07,0-2.15-0.17-3.21
			c-1.12-7.24-5.57-10.65-13.24-10.01c0.02,1.26,0.06,3.83,0.06,3.83s0.01,0.61,0.01,0.73c0.11,0,0.39,0,0.43,0
			c5.75,0.13,7.53,2.07,7.74,7.76c0.22,6.04,0.3,12.09,0.33,18.14C388.89,114.71,389.73,119.99,394.88,123.47z"/>
	</g>
	<g class="st1">
		<g>
			<path class="st8" d="M197.23,61.89l-0.35,344.4c0,4.25,3.43,7.69,7.68,7.69l427.43,0.44c4.25,0,7.69-3.43,7.69-7.68l0.35-344.4
				c0-4.25-3.43-7.69-7.68-7.69l-427.43-0.44C200.68,54.2,197.24,57.64,197.23,61.89z"/>
			<g>
				<path class="st9" d="M202.21,62.03l-0.35,339.58c-0.01,5.58,4.51,10.1,10.09,10.11l422.61,0.43c5.58,0.01,10.1-4.51,10.11-10.09
					l0.35-339.58c0.01-5.58-4.51-10.1-10.09-10.11l-422.61-0.43C206.74,51.94,202.21,56.46,202.21,62.03z"/>
				<line class="st9" x1="644.44" y1="71.68" x2="203" y2="71.92"/>
				<g>
					<circle class="st9" cx="220.26" cy="62.06" r="4.07"/>
					<circle class="st9" cx="235.21" cy="62.27" r="4.07"/>
					<circle class="st9" cx="250.16" cy="62.47" r="4.07"/>
				</g>
			</g>
		</g>
		<g>
			<g>
				<g>
					<text transform="matrix(1 0 0 1 259.4033 152.9807)" class="st5 st10 st11">API</text>
				</g>
				<path class="st5" d="M237.77,129.61c3.97,2.71,5.09,6.57,5.12,10.88c0.03,5.28-0.14,10.57-0.22,15.85
					c-0.01,0.77-0.03,1.55-0.02,2.33c0.03,6.04,1.11,8.54,7.35,8.39c-0.02,1.27-0.04,2.88-0.06,4.16
					c-7.41,0.56-11.95-3.63-11.98-11.02c-0.03-6.06,0.18-12.12,0.23-18.18c0.01-1.4-0.1-2.82-0.31-4.2
					c-0.62-4.06-2.09-5.53-6.18-6.42c0.02-1.23,0.04-2.54,0.06-3.78c5.41-0.66,6.33-4.4,6.8-9.36c0.17-5.92,0.2-11.84,0.3-17.76
					c0.02-0.99,0-1.98,0.15-2.95c1.03-6.67,5.13-9.8,12.19-9.21c-0.02,1.16-0.05,3.52-0.05,3.52s-0.01,0.56-0.01,0.67
					c-0.1,0-0.36,0-0.39,0c-5.29,0.12-6.93,1.91-7.12,7.14c-0.21,5.56-0.28,11.13-0.3,16.7
					C243.29,121.55,242.52,126.41,237.77,129.61z"/>
				<path class="st5" d="M398.63,129.61c-3.97,2.71-5.09,6.57-5.12,10.88c-0.03,5.28,0.14,10.57,0.22,15.85
					c0.01,0.77,0.03,1.55,0.02,2.33c-0.03,6.04-1.11,8.54-7.35,8.39c0.02,1.27,0.04,2.88,0.06,4.16
					c7.41,0.56,11.95-3.63,11.98-11.02c0.03-6.06-0.18-12.12-0.23-18.18c-0.01-1.4,0.1-2.82,0.31-4.2c0.62-4.06,2.09-5.53,6.18-6.42
					c-0.02-1.23-0.04-2.54-0.06-3.78c-5.41-0.66-6.33-4.4-6.8-9.36c-0.17-5.92-0.2-11.84-0.3-17.76c-0.02-0.99,0-1.98-0.15-2.95
					c-1.03-6.67-5.13-9.8-12.19-9.21c0.02,1.16,0.05,3.52,0.05,3.52s0.01,0.56,0.01,0.67c0.1,0,0.36,0,0.39,0
					c5.29,0.12,6.93,1.91,7.12,7.14c0.21,5.56,0.28,11.13,0.3,16.7C393.11,121.55,393.88,126.41,398.63,129.61z"/>
			</g>
			<g>
				<text transform="matrix(1 0 0 1 260.95 151.3611)" class="st9 st10 st11">API</text>
				<path class="st9" d="M239.08,128.96c3.97,2.71,5.09,6.57,5.12,10.88c0.03,5.28-0.14,10.57-0.22,15.85
					c-0.01,0.77-0.03,1.55-0.02,2.33c0.03,6.04,1.11,8.54,7.35,8.39c-0.02,1.27-0.04,2.88-0.06,4.16
					c-7.41,0.56-11.95-3.63-11.98-11.02c-0.03-6.06,0.18-12.12,0.23-18.18c0.01-1.4-0.1-2.82-0.31-4.2
					c-0.62-4.06-2.09-5.53-6.18-6.43c0.02-1.23,0.04-2.54,0.06-3.78c5.41-0.66,6.33-4.4,6.8-9.36c0.17-5.92,0.2-11.84,0.3-17.76
					c0.02-0.99,0-1.98,0.15-2.95c1.03-6.67,5.13-9.8,12.19-9.21c-0.02,1.16-0.05,3.52-0.05,3.52s-0.01,0.56-0.01,0.67
					c-0.1,0-0.36,0-0.39,0c-5.29,0.12-6.93,1.91-7.12,7.14c-0.21,5.56-0.28,11.13-0.3,16.7
					C244.59,120.9,243.82,125.76,239.08,128.96z"/>
				<path class="st9" d="M399.93,128.96c-3.97,2.71-5.09,6.57-5.12,10.88c-0.03,5.28,0.14,10.57,0.22,15.85
					c0.01,0.77,0.03,1.55,0.02,2.33c-0.03,6.04-1.11,8.54-7.35,8.39c0.02,1.27,0.04,2.88,0.06,4.16
					c7.41,0.56,11.95-3.63,11.98-11.02c0.03-6.06-0.18-12.12-0.23-18.18c-0.01-1.4,0.1-2.82,0.31-4.2c0.62-4.06,2.09-5.53,6.18-6.43
					c-0.02-1.23-0.04-2.54-0.06-3.78c-5.41-0.66-6.33-4.4-6.8-9.36c-0.17-5.92-0.2-11.84-0.3-17.76c-0.02-0.99,0-1.98-0.15-2.95
					c-1.03-6.67-5.13-9.8-12.19-9.21c0.02,1.16,0.05,3.52,0.05,3.52s0.01,0.56,0.01,0.67c0.1,0,0.36,0,0.39,0
					c5.29,0.12,6.93,1.91,7.12,7.14c0.21,5.56,0.28,11.13,0.3,16.7C394.42,120.9,395.18,125.76,399.93,128.96z"/>
			</g>
		</g>
		<g>
			<path class="st12" d="M472.38,135.94c8.22,5.69,12.52,6.72,19.6,18.66c7.09,11.93,8.32,20.05,10.19,21.54
				c1.86,1.49,11.19-0.37,16.03-2.98c4.85-2.61,5.03-4.05,9.56-14.64c6.28-14.67,16.47-32.69,24.3-43.13
				c7.83-10.44,24.32-24.18,25.06-26.79c0.75-2.61-7.09-3.82-14.54-1.58c-7.46,2.24-23.17,19.52-32.66,33.11
				c-10.54,15.11-14.28,27.86-16.15,27.48c-1.86-0.37-5.51-7.98-10.73-13.57c-5.22-5.59-10.72-9.38-17.06-8.26
				C479.65,126.89,468.59,133.31,472.38,135.94z"/>
			<path class="st9" d="M474.12,135.5c8.22,5.69,12.52,6.72,19.6,18.66c7.09,11.93,8.32,20.05,10.19,21.54
				c1.86,1.49,11.19-0.37,16.03-2.98c4.85-2.61,5.03-4.05,9.56-14.64c6.28-14.67,16.47-32.69,24.3-43.13
				c7.83-10.44,24.32-24.18,25.06-26.79c0.75-2.61-7.09-3.82-14.54-1.58s-23.17,19.52-32.66,33.11
				c-10.54,15.11-14.28,27.86-16.15,27.48c-1.86-0.37-5.51-7.98-10.73-13.57s-10.72-9.38-17.06-8.26
				C481.39,126.46,470.33,132.88,474.12,135.5z"/>
		</g>
	</g>
	<g class="st1">
		<g>
			<path class="st2" d="M630.33,189.17c-0.1-0.01-0.2-0.02-0.3-0.02c-9.37-0.03-9.45,22.4-18.82,22.37
				c-9.37-0.03-9.32-15.77-18.69-15.8c-9.37-0.03-9.44,22.4-18.82,22.37c-9.37-0.03-9.3-22.46-18.66-22.49
				c-9.37-0.03-9.42,15.71-18.79,15.68c-9.37-0.03-9.28-26.92-18.65-26.96c-9.37-0.03-9.46,26.86-18.83,26.83
				c-9.37-0.03-9.32-15.77-18.69-15.8c-9.37-0.03-9.44,22.4-18.81,22.37c-9.37-0.03-9.28-26.92-18.65-26.96
				c-9.37-0.03-9.43,20.17-18.8,20.14c-9.37-0.03-9.32-15.77-18.68-15.8l0.44,77.04l225.17,0.73L630.33,189.17z"/>
			<path class="st13" d="M628.05,210.72c-0.1,0-0.2-0.02-0.3-0.02c-9.37-0.03-9.43,17.04-18.8,17.01
				c-9.37-0.03-9.33-12.01-18.7-12.04c-9.37-0.03-9.43,17.04-18.8,17.01c-9.37-0.03-9.31-17.1-18.68-17.13
				c-9.37-0.03-9.41,11.94-18.78,11.91c-9.37-0.03-9.3-20.49-18.67-20.52c-9.37-0.03-9.44,20.43-18.81,20.4
				c-9.37-0.03-9.33-12.01-18.7-12.04c-9.37-0.03-9.43,17.04-18.8,17.01c-9.37-0.03-9.3-20.49-18.67-20.52
				c-9.37-0.03-9.42,15.34-18.78,15.31c-9.37-0.03-9.33-12.01-18.7-12.04l0.52,54.5l225.17,0.73L628.05,210.72z"/>
			<path class="st5" d="M629.3,238.28c-0.1,0-0.2-0.01-0.3-0.01c-9.37-0.03-9.41,11.01-18.78,10.98c-9.37-0.03-9.35-7.78-18.72-7.81
				c-9.37-0.03-9.41,11.01-18.78,10.98c-9.37-0.03-9.33-11.07-18.7-11.1c-9.37-0.03-9.4,7.72-18.77,7.69
				c-9.37-0.03-9.33-13.27-18.7-13.3c-9.37-0.03-9.41,13.21-18.78,13.18c-9.37-0.03-9.34-7.78-18.71-7.81
				c-9.37-0.03-9.41,11.01-18.78,10.98c-9.37-0.03-9.33-13.27-18.69-13.3c-9.37-0.03-9.4,9.91-18.77,9.88
				c-9.37-0.03-9.34-7.78-18.71-7.81l0.6,29.18l225.17,0.73L629.3,238.28z"/>
			<path class="st9" d="M630.08,185.29c-0.1-0.01-0.2-0.02-0.3-0.02c-9.37-0.03-9.45,22.4-18.82,22.37
				c-9.37-0.03-9.32-15.77-18.69-15.8c-9.37-0.03-9.44,22.4-18.82,22.37c-9.37-0.03-9.3-22.46-18.66-22.49
				c-9.37-0.03-9.42,15.71-18.79,15.68c-9.37-0.03-9.28-26.92-18.65-26.96c-9.37-0.03-9.46,26.86-18.83,26.83
				c-9.37-0.03-9.32-15.77-18.69-15.8c-9.37-0.03-9.44,22.4-18.81,22.37c-9.37-0.03-9.28-26.92-18.65-26.96
				c-9.37-0.03-9.43,20.17-18.8,20.14c-9.37-0.03-9.32-15.77-18.68-15.8l0.44,77.04L630.5,269L630.08,185.29z"/>
			<path class="st9" d="M630.08,185.29c-0.1-0.01-0.2-0.02-0.3-0.02c-9.37-0.03-9.45,22.4-18.82,22.37
				c-9.37-0.03-9.32-15.77-18.69-15.8c-9.37-0.03-9.44,22.4-18.82,22.37c-9.37-0.03-9.3-22.46-18.66-22.49
				c-9.37-0.03-9.42,15.71-18.79,15.68c-9.37-0.03-9.28-26.92-18.65-26.96c-9.37-0.03-9.46,26.86-18.83,26.83
				c-9.37-0.03-9.32-15.77-18.69-15.8c-9.37-0.03-9.44,22.4-18.81,22.37c-9.37-0.03-9.28-26.92-18.65-26.96
				c-9.37-0.03-9.43,20.17-18.8,20.14c-9.37-0.03-9.32-15.77-18.68-15.8l0.44,77.04L630.5,269L630.08,185.29z"/>
			<path class="st9" d="M630,209.43c-0.1,0-0.2-0.02-0.3-0.02c-9.37-0.03-9.43,17.04-18.8,17.01c-9.37-0.03-9.33-12.01-18.7-12.04
				c-9.37-0.03-9.43,17.04-18.8,17.01c-9.37-0.03-9.31-17.1-18.68-17.13c-9.37-0.03-9.41,11.94-18.78,11.91
				c-9.37-0.03-9.3-20.49-18.67-20.52c-9.37-0.03-9.44,20.43-18.81,20.4c-9.37-0.03-9.33-12.01-18.7-12.04
				c-9.37-0.03-9.43,17.04-18.8,17.01c-9.37-0.03-9.3-20.49-18.67-20.52c-9.37-0.03-9.42,15.34-18.78,15.31
				c-9.37-0.03-9.33-12.01-18.7-12.04l0.52,54.5L630.5,269L630,209.43z"/>
			<path class="st9" d="M629.91,236.53c-0.1,0-0.2-0.01-0.3-0.01c-9.37-0.03-9.41,11.01-18.78,10.98
				c-9.37-0.03-9.35-7.78-18.72-7.81c-9.37-0.03-9.41,11.01-18.78,10.98c-9.37-0.03-9.33-11.07-18.7-11.1
				c-9.37-0.03-9.4,7.72-18.77,7.69c-9.37-0.03-9.33-13.27-18.7-13.3c-9.37-0.03-9.41,13.21-18.78,13.18
				c-9.37-0.03-9.34-7.78-18.71-7.81c-9.37-0.03-9.41,11.01-18.78,10.98c-9.37-0.03-9.33-13.27-18.69-13.3
				c-9.37-0.03-9.4,9.91-18.77,9.88c-9.37-0.03-9.34-7.78-18.71-7.81l0.6,29.18L630.5,269L629.91,236.53z"/>
			<path class="st9" d="M629.91,236.53c-0.1,0-0.2-0.01-0.3-0.01c-9.37-0.03-9.41,11.01-18.78,10.98
				c-9.37-0.03-9.35-7.78-18.72-7.81c-9.37-0.03-9.41,11.01-18.78,10.98c-9.37-0.03-9.33-11.07-18.7-11.1
				c-9.37-0.03-9.4,7.72-18.77,7.69c-9.37-0.03-9.33-13.27-18.7-13.3c-9.37-0.03-9.41,13.21-18.78,13.18
				c-9.37-0.03-9.34-7.78-18.71-7.81c-9.37-0.03-9.41,11.01-18.78,10.98c-9.37-0.03-9.33-13.27-18.69-13.3
				c-9.37-0.03-9.4,9.91-18.77,9.88c-9.37-0.03-9.34-7.78-18.71-7.81l0.6,29.18L630.5,269L629.91,236.53z"/>
		</g>
		<g>
			<g>
				<g>
					<path class="st14" d="M254.62,216.5l123.69,0.83c4.59,0.03,8.29,3.78,8.26,8.37l0,0c-0.03,4.59-3.78,8.29-8.37,8.26
						l-123.69-0.83c-4.59-0.03-8.29-3.78-8.26-8.37l0,0C246.28,220.17,250.03,216.47,254.62,216.5z"/>
					<path class="st15" d="M283.55,233.33l94.66,0.64c4.59,0.03,8.34-3.67,8.37-8.26c0.03-4.59-3.67-8.34-8.26-8.37l-94.66-0.64
						L283.55,233.33z"/>
				</g>
			</g>
			<g>
				<g>
					<path class="st14" d="M254.83,185.64l123.69,0.83c4.59,0.03,8.29,3.78,8.26,8.37l0,0c-0.03,4.59-3.78,8.29-8.37,8.26
						l-123.69-0.83c-4.59-0.03-8.29-3.78-8.26-8.37l0,0C246.49,189.31,250.24,185.61,254.83,185.64z"/>
					<path class="st15" d="M302.56,202.6l75.85,0.51c4.59,0.03,8.34-3.67,8.37-8.26c0.03-4.59-3.67-8.34-8.26-8.37l-75.85-0.51
						L302.56,202.6z"/>
				</g>
			</g>
			<g>
				<g>
					<path class="st9" d="M254.59,219.34l123.69,0.83c4.59,0.03,8.29,3.78,8.26,8.37l0,0c-0.03,4.59-3.78,8.29-8.37,8.26
						l-123.69-0.83c-4.59-0.03-8.29-3.78-8.26-8.37l0,0C246.25,223,250,219.31,254.59,219.34z"/>
					<path class="st9" d="M283.52,236.17l94.66,0.64c4.59,0.03,8.34-3.67,8.37-8.26c0.03-4.59-3.67-8.34-8.26-8.37l-94.66-0.64
						L283.52,236.17z"/>
				</g>
			</g>
			<g>
				<g>
					<path class="st9" d="M254.8,188.47l123.69,0.83c4.59,0.03,8.29,3.78,8.26,8.37l0,0c-0.03,4.59-3.78,8.29-8.37,8.26
						l-123.69-0.83c-4.59-0.03-8.29-3.78-8.26-8.37l0,0C246.45,192.14,250.2,188.44,254.8,188.47z"/>
					<path class="st9" d="M302.53,205.43l75.85,0.51c4.59,0.03,8.34-3.67,8.37-8.26c0.03-4.59-3.67-8.34-8.26-8.37l-75.85-0.51
						L302.53,205.43z"/>
				</g>
			</g>
		</g>
		<g>
			<g>
				<g>
					<path class="st14" d="M255.28,249.17L378.98,250c4.59,0.03,8.29,3.78,8.26,8.37v0c-0.03,4.59-3.78,8.29-8.37,8.26l-123.69-0.83
						c-4.59-0.03-8.29-3.78-8.26-8.37v0C246.94,252.83,250.69,249.13,255.28,249.17z"/>
					<path class="st15" d="M295.78,266.08l83.08,0.56c4.59,0.03,8.34-3.67,8.37-8.26c0.03-4.59-3.67-8.34-8.26-8.37l-83.08-0.56
						L295.78,266.08z"/>
				</g>
			</g>
			<g>
				<g>
					<path class="st9" d="M255.25,252l123.69,0.83c4.59,0.03,8.29,3.78,8.26,8.37v0c-0.03,4.59-3.78,8.29-8.37,8.26l-123.69-0.83
						c-4.59-0.03-8.29-3.78-8.26-8.37v0C246.91,255.67,250.65,251.97,255.25,252z"/>
					<path class="st9" d="M295.75,268.91l83.08,0.56c4.59,0.03,8.34-3.67,8.37-8.26c0.03-4.59-3.67-8.34-8.26-8.37l-83.08-0.56
						L295.75,268.91z"/>
				</g>
			</g>
		</g>
		<g>
			<g>
				
					<rect x="233.46" y="286.9" transform="matrix(0.9999 0.0118 -0.0118 0.9999 3.4502 -2.7818)" class="st5" width="7.27" height="7.27"/>
				
					<rect x="233.11" y="316.48" transform="matrix(0.9999 0.0118 -0.0118 0.9999 3.7997 -2.7756)" class="st2" width="7.27" height="7.27"/>
				
					<rect x="232.76" y="346.07" transform="matrix(0.9999 0.0118 -0.0118 0.9999 4.1493 -2.7694)" class="st2" width="7.27" height="7.27"/>
				
					<rect x="232.41" y="375.65" transform="matrix(0.9999 0.0118 -0.0118 0.9999 4.4989 -2.7632)" class="st2" width="7.27" height="7.27"/>
				<g>
					<path class="st5" d="M449.13,302.08l-31.2-0.37c-3.43-0.04-6.18-2.85-6.14-6.28l0,0c0.04-3.43,2.85-6.18,6.28-6.14l31.2,0.37
						c3.43,0.04,6.18,2.85,6.14,6.28l0,0C455.37,299.38,452.56,302.12,449.13,302.08z"/>
					<path class="st8" d="M443.82,295.81c0.03-2.76,2.3-4.97,5.06-4.94c2.76,0.03,4.97,2.3,4.94,5.06c-0.03,2.76-2.3,4.97-5.06,4.94
						C446,300.83,443.79,298.57,443.82,295.81z"/>
				</g>
				<g>
					<path class="st2" d="M417.73,318.88l31.2,0.37c3.43,0.04,6.18,2.85,6.14,6.28l0,0c-0.04,3.43-2.85,6.18-6.28,6.14l-31.2-0.37
						c-3.43-0.04-6.18-2.85-6.14-6.28l0,0C411.48,321.58,414.3,318.84,417.73,318.88z"/>
					<circle class="st8" cx="418.03" cy="325.09" r="5"/>
				</g>
				<g>
					<path class="st2" d="M417.38,348.46l31.2,0.37c3.43,0.04,6.18,2.85,6.14,6.28v0c-0.04,3.43-2.85,6.18-6.28,6.14l-31.2-0.37
						c-3.43-0.04-6.18-2.85-6.14-6.28v0C411.13,351.17,413.95,348.42,417.38,348.46z"/>
					<path class="st8" d="M422.68,354.73c-0.03,2.76-2.3,4.97-5.06,4.94c-2.76-0.03-4.97-2.3-4.94-5.06
						c0.03-2.76,2.3-4.97,5.06-4.94C420.5,349.71,422.71,351.97,422.68,354.73z"/>
				</g>
				<g>
					<path class="st2" d="M417.03,378.04l31.2,0.37c3.43,0.04,6.18,2.85,6.14,6.28l0,0c-0.04,3.43-2.85,6.18-6.28,6.14l-31.2-0.37
						c-3.43-0.04-6.18-2.85-6.14-6.28l0,0C410.79,380.75,413.6,378,417.03,378.04z"/>
					<circle class="st8" cx="417.33" cy="384.26" r="5"/>
				</g>
				
					<rect x="252.38" y="282.19" transform="matrix(0.9999 0.0118 -0.0118 0.9999 3.3871 -3.1111)" class="st2" width="25.09" height="5.7"/>
				
					<rect x="252.27" y="292.31" transform="matrix(0.9999 0.0118 -0.0118 0.9999 3.5105 -3.7306)" class="st2" width="130.28" height="5.7"/>
				
					<rect x="251.97" y="317.23" transform="matrix(0.9999 0.0118 -0.0118 0.9999 3.8013 -3.1037)" class="st2" width="25.09" height="5.7"/>
				
					<rect x="251.85" y="327.36" transform="matrix(0.9999 0.0118 -0.0118 0.9999 3.9246 -3.7232)" class="st2" width="130.28" height="5.7"/>
				
					<rect x="251.64" y="345.47" transform="matrix(0.9999 0.0118 -0.0118 0.9999 4.1349 -3.0978)" class="st2" width="25.09" height="5.7"/>
				
					<rect x="251.52" y="355.59" transform="matrix(0.9999 0.0118 -0.0118 0.9999 4.2583 -3.7173)" class="st2" width="130.28" height="5.7"/>
				
					<rect x="251.28" y="375.32" transform="matrix(0.9999 0.0118 -0.0118 0.9999 4.4877 -3.0916)" class="st2" width="25.09" height="5.7"/>
				
					<rect x="251.17" y="385.45" transform="matrix(0.9999 0.0118 -0.0118 0.9999 4.6111 -3.7111)" class="st2" width="130.28" height="5.7"/>
			</g>
			<g>
				
					<rect x="234.66" y="285.14" transform="matrix(0.9999 0.0118 -0.0118 0.9999 3.4295 -2.7961)" class="st9" width="7.27" height="7.27"/>
				
					<rect x="234.31" y="314.72" transform="matrix(0.9999 0.0118 -0.0118 0.9999 3.779 -2.7899)" class="st9" width="7.27" height="7.27"/>
				
					<rect x="233.96" y="344.31" transform="matrix(0.9999 0.0118 -0.0118 0.9999 4.1286 -2.7837)" class="st9" width="7.27" height="7.27"/>
				
					<rect x="233.62" y="373.89" transform="matrix(0.9999 0.0118 -0.0118 0.9999 4.4782 -2.7775)" class="st9" width="7.27" height="7.27"/>
				<g>
					<path class="st9" d="M450.33,300.32l-31.2-0.37c-3.43-0.04-6.18-2.85-6.14-6.28l0,0c0.04-3.43,2.85-6.18,6.28-6.14l31.2,0.37
						c3.43,0.04,6.18,2.85,6.14,6.28l0,0C456.57,297.62,453.76,300.36,450.33,300.32z"/>
					<path class="st9" d="M445.03,294.05c0.03-2.76,2.3-4.97,5.06-4.94c2.76,0.03,4.97,2.3,4.94,5.06c-0.03,2.76-2.3,4.97-5.06,4.94
						C447.21,299.08,444.99,296.81,445.03,294.05z"/>
				</g>
				<g>
					<path class="st9" d="M418.93,317.12l31.2,0.37c3.43,0.04,6.18,2.85,6.14,6.28l0,0c-0.04,3.43-2.85,6.18-6.28,6.14l-31.2-0.37
						c-3.43-0.04-6.18-2.85-6.14-6.28l0,0C412.69,319.83,415.5,317.08,418.93,317.12z"/>
					<circle class="st9" cx="419.23" cy="323.33" r="5"/>
				</g>
				<g>
					<path class="st9" d="M418.58,346.7l31.2,0.37c3.43,0.04,6.18,2.85,6.14,6.28v0c-0.04,3.43-2.85,6.18-6.28,6.14l-31.2-0.37
						c-3.43-0.04-6.18-2.85-6.14-6.28v0C412.34,349.41,415.15,346.66,418.58,346.7z"/>
					<path class="st9" d="M423.88,352.97c-0.03,2.76-2.3,4.97-5.06,4.94c-2.76-0.03-4.97-2.3-4.94-5.06
						c0.03-2.76,2.3-4.97,5.06-4.94C421.7,347.95,423.91,350.21,423.88,352.97z"/>
				</g>
				<g>
					<path class="st9" d="M418.23,376.28l31.2,0.37c3.43,0.04,6.18,2.85,6.14,6.28l0,0c-0.04,3.43-2.85,6.18-6.28,6.14l-31.2-0.37
						c-3.43-0.04-6.18-2.85-6.14-6.28l0,0C411.99,378.99,414.8,376.24,418.23,376.28z"/>
					<circle class="st9" cx="418.53" cy="382.5" r="5"/>
				</g>
				
					<rect x="253.59" y="280.43" transform="matrix(0.9999 0.0118 -0.0118 0.9999 3.3664 -3.1254)" class="st9" width="25.09" height="5.7"/>
				
					<rect x="253.47" y="290.55" transform="matrix(0.9999 0.0118 -0.0118 0.9999 3.4898 -3.7449)" class="st9" width="130.28" height="5.7"/>
				
					<rect x="253.17" y="315.48" transform="matrix(0.9999 0.0118 -0.0118 0.9999 3.7806 -3.1181)" class="st9" width="25.09" height="5.7"/>
				
					<rect x="253.06" y="325.6" transform="matrix(0.9999 0.0118 -0.0118 0.9999 3.9039 -3.7376)" class="st9" width="130.28" height="5.7"/>
				
					<rect x="252.84" y="343.71" transform="matrix(0.9999 0.0118 -0.0118 0.9999 4.1142 -3.1122)" class="st9" width="25.09" height="5.7"/>
				
					<rect x="252.72" y="353.83" transform="matrix(0.9999 0.0118 -0.0118 0.9999 4.2376 -3.7316)" class="st9" width="130.28" height="5.7"/>
				
					<rect x="252.49" y="373.56" transform="matrix(0.9999 0.0118 -0.0118 0.9999 4.467 -3.1059)" class="st9" width="25.09" height="5.7"/>
				
					<rect x="252.37" y="383.69" transform="matrix(0.9999 0.0118 -0.0118 0.9999 4.5904 -3.7254)" class="st9" width="130.28" height="5.7"/>
			</g>
		</g>
		<g>
			<g>
				<g>
					<g>
						<path class="st5" d="M514.61,369.21c0.3-12.15-9.31-22.24-21.47-22.54c-12.15-0.3-22.24,9.31-22.54,21.47
							c-0.3,12.15,9.31,22.24,21.47,22.54C504.22,390.97,514.32,381.36,514.61,369.21z M477.17,368.29
							c0.21-8.53,7.29-15.27,15.82-15.06c8.53,0.21,15.27,7.29,15.06,15.82s-7.29,15.27-15.82,15.06S476.96,376.82,477.17,368.29z"
							/>
					</g>
					
						<ellipse transform="matrix(0.2576 -0.9662 0.9662 0.2576 9.4694 749.6636)" class="st2" cx="492.61" cy="368.67" rx="12.23" ry="12.23"/>
				</g>
			</g>
			<g>
				<g>
					<g>
						<path class="st2" d="M573.32,369.21c0.3-12.15-9.31-22.24-21.47-22.54c-12.15-0.3-22.24,9.31-22.54,21.47
							c-0.3,12.15,9.31,22.24,21.47,22.54S573.02,381.36,573.32,369.21z M535.88,368.29c0.21-8.53,7.29-15.27,15.82-15.06
							c8.53,0.21,15.27,7.29,15.06,15.82c-0.21,8.53-7.29,15.27-15.82,15.06C542.41,383.9,535.67,376.82,535.88,368.29z"/>
					</g>
					<g>
						<path class="st5" d="M561.06,380.64c-2.76,2.25-6.29,3.56-10.13,3.47c-6.68-0.16-12.24-4.55-14.25-10.53l-5.09,4.85
							c3.51,7.09,10.73,12.04,19.18,12.25c5.65,0.14,10.85-1.86,14.83-5.27C564.09,383.82,562.58,382.23,561.06,380.64z"/>
					</g>
					
						<ellipse transform="matrix(0.731 -0.6824 0.6824 0.731 -103.2633 475.4052)" class="st2" cx="551.31" cy="368.67" rx="12.23" ry="12.23"/>
				</g>
			</g>
			<g>
				<g>
					<g>
						<path class="st5" d="M630.49,369.21c0.3-12.15-9.31-22.24-21.47-22.54s-22.24,9.31-22.54,21.47
							c-0.3,12.15,9.31,22.24,21.47,22.54C620.1,390.97,630.19,381.36,630.49,369.21z M593.05,368.29
							c0.21-8.53,7.29-15.27,15.82-15.06c8.53,0.21,15.27,7.29,15.06,15.82s-7.29,15.27-15.82,15.06
							C599.58,383.9,592.84,376.82,593.05,368.29z"/>
					</g>
					<g>
						<path class="st2" d="M593.08,367.61c0.56-8.2,7.49-14.58,15.78-14.38s14.9,6.91,15.06,15.13l6.57,0.16
							c-0.07-11.84-9.54-21.56-21.46-21.86c-11.92-0.29-21.86,8.96-22.51,20.78L593.08,367.61z"/>
					</g>
					
						<ellipse transform="matrix(0.731 -0.6824 0.6824 0.731 -87.8825 514.4195)" class="st2" cx="608.49" cy="368.67" rx="12.23" ry="12.23"/>
				</g>
			</g>
			<g>
				<g>
					<g>
						<path class="st9" d="M516.61,368.77c0.3-12.15-9.31-22.24-21.47-22.54c-12.15-0.3-22.24,9.31-22.54,21.47
							c-0.3,12.15,9.31,22.24,21.47,22.54S516.31,380.92,516.61,368.77z M479.17,367.85c0.21-8.53,7.29-15.27,15.82-15.06
							s15.27,7.29,15.06,15.82s-7.29,15.27-15.82,15.06S478.96,376.38,479.17,367.85z"/>
					</g>
					
						<ellipse transform="matrix(0.2576 -0.9662 0.9662 0.2576 11.3764 751.2659)" class="st9" cx="494.6" cy="368.23" rx="12.23" ry="12.23"/>
				</g>
			</g>
			<g>
				<g>
					<g>
						<path class="st9" d="M575.31,368.77c0.3-12.15-9.31-22.24-21.47-22.54s-22.24,9.31-22.54,21.47
							c-0.3,12.15,9.31,22.24,21.47,22.54C564.92,390.53,575.02,380.92,575.31,368.77z M537.87,367.85
							c0.21-8.53,7.29-15.27,15.82-15.06c8.53,0.21,15.27,7.29,15.06,15.82c-0.21,8.53-7.29,15.27-15.82,15.06
							C544.41,383.46,537.66,376.38,537.87,367.85z"/>
					</g>
					<g>
						<path class="st9" d="M563.06,380.2c-2.76,2.25-6.29,3.56-10.13,3.47c-6.68-0.16-12.24-4.55-14.25-10.53l-5.09,4.85
							c3.51,7.09,10.73,12.04,19.18,12.25c5.65,0.14,10.85-1.86,14.83-5.27C566.09,383.38,564.57,381.79,563.06,380.2z"/>
					</g>
					
						<ellipse transform="matrix(0.731 -0.6824 0.6824 0.731 -102.4261 476.6491)" class="st9" cx="553.31" cy="368.23" rx="12.23" ry="12.23"/>
				</g>
			</g>
			<g>
				<g>
					<g>
						<path class="st9" d="M632.49,368.77c0.3-12.15-9.31-22.24-21.47-22.54c-12.15-0.3-22.24,9.31-22.54,21.47
							c-0.3,12.15,9.31,22.24,21.47,22.54C622.1,390.53,632.19,380.92,632.49,368.77z M595.04,367.85
							c0.21-8.53,7.29-15.27,15.82-15.06c8.53,0.21,15.27,7.29,15.06,15.82s-7.29,15.27-15.82,15.06
							C601.58,383.46,594.84,376.38,595.04,367.85z"/>
					</g>
					<g>
						<path class="st9" d="M595.08,367.17c0.56-8.2,7.49-14.58,15.78-14.38c8.3,0.2,14.9,6.91,15.06,15.13l6.57,0.16
							c-0.07-11.84-9.54-21.56-21.46-21.86c-11.92-0.29-21.86,8.96-22.51,20.78L595.08,367.17z"/>
					</g>
					
						<ellipse transform="matrix(0.731 -0.6824 0.6824 0.731 -87.0453 515.6633)" class="st9" cx="610.48" cy="368.23" rx="12.23" ry="12.23"/>
				</g>
			</g>
		</g>
		<g>
			<g>
				<g>
					<g>
						<path class="st5" d="M588.72,309.28c-0.24,12.15,9.42,22.2,21.57,22.44s22.2-9.42,22.44-21.57
							c0.24-12.15-9.42-22.2-21.57-22.44S588.96,297.13,588.72,309.28z M626.16,310.02c-0.17,8.53-7.22,15.3-15.74,15.14
							c-8.53-0.17-15.3-7.22-15.14-15.74c0.17-8.53,7.22-15.3,15.74-15.14C619.55,294.44,626.33,301.49,626.16,310.02z"/>
					</g>
					
						<ellipse transform="matrix(0.253 -0.9675 0.9675 0.253 156.5742 822.2147)" class="st2" cx="610.72" cy="309.72" rx="12.23" ry="12.23"/>
				</g>
			</g>
			<g>
				<g>
					<g>
						<path class="st2" d="M530.01,310.16c-0.24,12.15,9.42,22.2,21.57,22.44c12.15,0.24,22.2-9.42,22.44-21.57
							c0.24-12.15-9.42-22.2-21.57-22.44C540.3,288.35,530.25,298.01,530.01,310.16z M567.46,310.9
							c-0.17,8.53-7.22,15.3-15.74,15.14c-8.53-0.17-15.3-7.22-15.14-15.74c0.17-8.53,7.22-15.3,15.74-15.14
							C560.85,295.32,567.63,302.37,567.46,310.9z"/>
					</g>
					<g>
						<path class="st5" d="M542.21,298.67c2.74-2.26,6.28-3.59,10.11-3.52c6.68,0.13,12.26,4.49,14.3,10.47l5.07-4.88
							c-3.55-7.07-10.79-11.99-19.24-12.16c-5.65-0.11-10.84,1.92-14.8,5.34C539.17,295.51,540.69,297.09,542.21,298.67z"/>
					</g>
					
						<ellipse transform="matrix(0.7277 -0.6859 0.6859 0.7277 -62.7175 463.2183)" class="st2" cx="552.02" cy="310.6" rx="12.23" ry="12.23"/>
				</g>
			</g>
			<g>
				<g>
					<g>
						<path class="st5" d="M472.84,310.16c-0.24,12.15,9.42,22.2,21.57,22.44c12.15,0.24,22.2-9.42,22.44-21.57
							c0.24-12.15-9.42-22.2-21.57-22.44C483.13,288.35,473.08,298.01,472.84,310.16z M510.29,310.9
							c-0.17,8.53-7.22,15.3-15.74,15.14c-8.53-0.17-15.3-7.22-15.14-15.74c0.17-8.53,7.22-15.3,15.74-15.14
							S510.45,302.37,510.29,310.9z"/>
					</g>
					<g>
						<path class="st2" d="M510.26,311.58c-0.52,8.2-7.42,14.61-15.71,14.45c-8.3-0.16-14.93-6.84-15.13-15.06l-6.57-0.13
							c0.13,11.84,9.65,21.52,21.57,21.75c11.92,0.23,21.81-9.06,22.41-20.89L510.26,311.58z"/>
					</g>
					
						<ellipse transform="matrix(0.7277 -0.6859 0.6859 0.7277 -78.2861 424.0041)" class="st2" cx="494.85" cy="310.6" rx="12.23" ry="12.23"/>
				</g>
			</g>
			<g>
				<g>
					<g>
						<path class="st9" d="M589.55,310.16c-0.24,12.15,9.42,22.2,21.57,22.44c12.15,0.24,22.2-9.42,22.44-21.57
							c0.24-12.15-9.42-22.2-21.57-22.44C599.83,288.35,589.78,298.01,589.55,310.16z M626.99,310.9
							c-0.17,8.53-7.22,15.3-15.74,15.14c-8.53-0.17-15.3-7.22-15.14-15.74c0.17-8.53,7.22-15.3,15.74-15.14
							C620.38,295.32,627.16,302.37,626.99,310.9z"/>
					</g>
					
						<ellipse transform="matrix(0.253 -0.9675 0.9675 0.253 156.3425 823.6743)" class="st9" cx="611.55" cy="310.6" rx="12.23" ry="12.23"/>
				</g>
			</g>
			<g>
				<g>
					<g>
						<path class="st9" d="M530.84,309.28c-0.24,12.15,9.42,22.2,21.57,22.44c12.15,0.24,22.2-9.42,22.44-21.57
							c0.24-12.15-9.42-22.2-21.57-22.44S531.08,297.13,530.84,309.28z M568.29,310.02c-0.17,8.53-7.22,15.3-15.74,15.14
							s-15.3-7.22-15.14-15.74c0.17-8.53,7.22-15.3,15.74-15.14C561.68,294.44,568.45,301.49,568.29,310.02z"/>
					</g>
					<g>
						<path class="st9" d="M543.04,297.79c2.74-2.26,6.28-3.59,10.11-3.52c6.68,0.13,12.26,4.49,14.3,10.47l5.07-4.88
							c-3.55-7.07-10.79-11.99-19.24-12.16c-5.65-0.11-10.84,1.92-14.8,5.34C540,294.63,541.52,296.21,543.04,297.79z"/>
					</g>
					
						<ellipse transform="matrix(0.7277 -0.6859 0.6859 0.7277 -61.8882 463.5476)" class="st9" cx="552.85" cy="309.72" rx="12.23" ry="12.23"/>
				</g>
			</g>
			<g>
				<g>
					<g>
						<path class="st9" d="M471.07,309.28c-0.24,12.15,9.42,22.2,21.57,22.44c12.15,0.24,22.2-9.42,22.44-21.57
							c0.24-12.15-9.42-22.2-21.57-22.44C481.35,287.47,471.31,297.13,471.07,309.28z M508.51,310.02
							c-0.17,8.53-7.22,15.3-15.74,15.14c-8.53-0.17-15.3-7.22-15.14-15.74c0.17-8.53,7.22-15.3,15.74-15.14
							S508.68,301.49,508.51,310.02z"/>
					</g>
					<g>
						<path class="st9" d="M508.48,310.7c-0.52,8.2-7.42,14.61-15.71,14.45c-8.3-0.16-14.93-6.84-15.13-15.06l-6.57-0.13
							c0.13,11.84,9.65,21.52,21.57,21.75s21.81-9.06,22.41-20.89L508.48,310.7z"/>
					</g>
					
						<ellipse transform="matrix(0.7277 -0.6859 0.6859 0.7277 -78.1656 422.548)" class="st9" cx="493.07" cy="309.72" rx="12.23" ry="12.23"/>
				</g>
			</g>
		</g>
	</g>
	<g class="st1">
		<path class="st8" d="M-46.78,310.25C-44.74,309.9-10.9,296.6-2.27,278c8.64-18.61,8.92-31.12,19.73-41.41s15.62-21.76,21-25.11
			c5.38-3.35,25.45-20.6,25.91-22.75c0,0,4.66,0.05,6.15,5.41c1.49,5.36,2.18,10.92-2.45,15.18c-4.63,4.25-17.75,17.74-18.58,21.68
			c-0.83,3.94-5.82,8.11,6.85,10.04s66.82-2.35,66.82-2.35s-0.2-14.99,8.33-14.68c0,0,4.28,1.84,4.22,4.81s0.99,8.61,0.99,8.61
			s3.47-27.1,12.69-23.85c9.22,3.25,1.98,19.85,1.98,19.85s3.28-1.36,4.27-0.78c0,0,13.15-12.73,22.27-3.71c0,0,4.78,2.83,1.02,5.59
			c-3.76,2.76-31.96,21.52-31.96,21.52s-2.61,9.72-6.27,13.81s-7.14,3.73-7.14,3.73s-17.09,16.39-21.71,18.78
			c-2.63,1.36-28.79,10.74-51.36,15.89c-15.78,3.6-23.99,11.01-23.99,11.01l-24.06,17.53"/>
		<path class="st16" d="M-67.2,323.16c2.04-0.36,56.31-22.94,64.95-41.55s8.92-31.12,19.73-41.41s15.62-21.76,21-25.11
			c4.86-3.03,21.76-17.44,25.27-21.75c0.55-0.68,1.46-0.95,2.29-0.67c1.49,0.51,3.58,1.8,4.49,5.07c1.49,5.36,2.18,10.92-2.45,15.18
			s-17.75,17.74-18.58,21.68c-0.83,3.94-5.82,8.11,6.85,10.04c12.67,1.92,66.82-2.35,66.82-2.35s-0.2-14.99,8.33-14.68
			c0,0,4.28,1.84,4.22,4.81s0.99,8.61,0.99,8.61s3.47-27.1,12.69-23.85c9.22,3.25,1.98,19.85,1.98,19.85s3.28-1.36,4.27-0.78
			c0,0,13.15-12.73,22.27-3.71c0,0,2.98,2.68-0.77,5.44s-30.16,21.66-30.16,21.66s-2.61,9.72-6.27,13.81
			c-3.66,4.08-7.14,3.73-7.14,3.73s-17.09,16.39-21.71,18.78c-2.63,1.36-28.79,10.74-51.36,15.89
			c-15.78,3.6-23.99,11.01-23.99,11.01l-40.3,30.44"/>
		<path class="st17" d="M-45.49,310.69c2.04-0.36,35.88-13.65,44.51-32.26s8.92-31.12,19.73-41.41s15.62-21.76,21-25.11
			c4.81-3,21.38-17.11,25.15-21.6c0.68-0.81,1.8-1.08,2.78-0.68c1.45,0.59,3.29,1.92,4.13,4.94c1.49,5.36,2.18,10.92-2.45,15.18
			c-4.63,4.25-17.75,17.74-18.58,21.68c-0.83,3.94-5.82,8.11,6.85,10.04c12.67,1.92,66.82-2.35,66.82-2.35s-0.2-14.99,8.33-14.68
			c0,0,4.28,1.84,4.22,4.81c-0.07,2.97,0.99,8.61,0.99,8.61s3.47-27.1,12.69-23.85c9.22,3.25,1.98,19.85,1.98,19.85
			s3.28-1.36,4.27-0.78c0,0,13.15-12.73,22.27-3.71c0,0,2.98,2.68-0.77,5.44s-30.16,21.66-30.16,21.66s-2.61,9.72-6.27,13.81
			c-3.66,4.08-7.14,3.73-7.14,3.73s-17.09,16.39-21.71,18.78c-2.63,1.36-28.79,10.74-51.36,15.89
			c-15.78,3.6-23.99,11.01-23.99,11.01l-24.06,17.53"/>
		<path class="st17" d="M137.75,239.29c0,0,2.84,3.45,3.73,13.3c0.45,4.95-3.73,17.71-6.75,21.37"/>
		<line class="st17" x1="152.54" y1="233.82" x2="148.15" y2="256.43"/>
		<path class="st17" d="M124.34,239.08c0,0,0.48,9.25,4.58,11.05c0,0-6.17,3.56-5.64,11.7c0,0-8.51,1.38-11.71,9.49"/>
		<line class="st17" x1="125.41" y1="246.41" x2="106.8" y2="254.07"/>
		<path class="st17" d="M11.09,266.77c0.07,0.57,2.94,31.26,21.47,41.7"/>
	</g>
	<g class="st1">
		<g>
			<path class="st8" d="M192.72,376.65c5.38-7.11,4.41-16.82,0.66-20.61c-3.76-3.8-9.75,1.87-12.21,4.12
				c-1.21,1.1-8.5,5.94-15.59,10.57l0.07-4.09l0.4-22.76l0.32-18.5l69.71,6.78l0.15,77.66l-57.59-11.35
				c-0.34-0.43-6.26-1.83-6.26-1.83S187.35,383.76,192.72,376.65z"/>
			<path class="st8" d="M80.03,443.48c0,0,5.65-49.64,8.21-62.7c2.9-14.77,19.73-18.34,28.19-25.6c3.52-3.02,19.28-9.44,31.17-11.11
				c9.33-1.31,15.99-0.57,18.43-0.19l-0.4,22.76l-4.46-1.62c0,0-13.51,7.37-28.04,6.99l17.99,8.06c0,0,7.12-4.56,14.44-9.33
				c7.09-4.63,14.38-9.46,15.59-10.57c2.46-2.25,8.46-7.92,12.21-4.12c3.76,3.8,4.72,13.5-0.66,20.61c-5.38,7.11-20.36,20-20.36,20
				s5.92,1.4,6.26,1.83c1.25,1.56,4.5,5.65,7.54,9.85c3.36,4.63,6.49,9.39,6.47,11.07c-0.04,3.63-4.96,8.12-13.72,4.14
				c-8.76-3.98-9.6-12.64-12.72-13.49c-3.12-0.85-7.36-0.97-7.36-0.97l-2.17,4.78c0,0,14.63,3.76,16.22,13.69
				c1.59,9.94-4.58,12.76-8.09,12.4c-3.51-0.35-7.54-1.25-8.79-6.85l-6.72,0.62c0,0-5.07,16.44-10.6,18.28
				c0,0,4.42,21.54-6.82,32.64c-14.7,14.51-19.97,28.6-19.97,28.6l-54.5,5.46C62.31,512.86,80.03,443.48,80.03,443.48z"/>
		</g>
		<g>
			<path class="st18" d="M195.05,378.18c5.38-7.11,4.69-17.11,0.66-20.61c-5.7-4.95-10.68-1.16-13.15,1.09
				c-1.21,1.1-7.15,5.95-14.24,10.58l0,0l0.05-23.83l0.32-18.5l69.71,6.78l0.15,77.66l-57.59-11.35c-0.34-0.43-6.26-1.83-6.26-1.83
				S189.67,385.29,195.05,378.18z"/>
			<path class="st19" d="M82.35,445.01c0,0,5.65-49.64,8.21-62.7c2.9-14.77,19.73-18.34,28.19-25.6
				c3.52-3.02,19.28-9.44,31.17-11.11c9.33-1.31,13.62,0.29,16.05,0.67l-0.78,21.03l-1.7-0.75c0,0-13.51,7.37-28.04,6.99l17.99,8.06
				c0,0,7.12-4.56,14.44-9.33c7.09-4.63,14.38-9.46,15.59-10.57c2.46-2.25,8.46-7.92,12.21-4.12c3.76,3.8,4.72,13.5-0.66,20.61
				c-5.38,7.11-20.36,20-20.36,20s5.92,1.4,6.26,1.83c1.25,1.56,4.5,5.65,7.54,9.85c3.36,4.63,6.49,9.39,6.47,11.07
				c-0.04,3.63-4.96,8.12-13.72,4.14c-8.76-3.98-9.6-12.64-12.72-13.49c-3.12-0.85-7.36-0.97-7.36-0.97l-2.17,4.78
				c0,0,14.63,3.76,16.22,13.69c1.59,9.94-4.58,12.76-8.09,12.4c-3.51-0.35-7.54-1.25-8.79-6.85l-6.72,0.62
				c0,0-5.07,16.44-10.6,18.28c0,0,4.42,21.54-6.82,32.64c-14.7,14.51-19.97,28.6-19.97,28.6l-54.5,5.46
				C64.64,514.39,82.35,445.01,82.35,445.01z"/>
		</g>
		<g>
			<path class="st20" d="M151.13,380.06l-17.99-8.06c3.93,0,28.04-6.99,28.04-6.99l4.46,1.62l-0.07,4.09
				C158.25,375.51,151.13,380.06,151.13,380.06z"/>
			<path class="st21" d="M192.72,376.65c5.38-7.11,4.41-16.82,0.66-20.61c-3.76-3.8-9.75,1.87-12.21,4.12
				c-1.21,1.1-8.5,5.94-15.59,10.57l0.07-4.09l0.4-22.76l0.32-18.5l69.71,6.78l0.15,77.66l-57.59-11.35
				c-0.34-0.43-6.26-1.83-6.26-1.83S187.35,383.76,192.72,376.65z"/>
			<path class="st21" d="M80.03,443.48c0,0,5.65-49.64,8.21-62.7c2.9-14.77,19.73-18.34,28.19-25.6
				c3.52-3.02,19.28-9.44,31.17-11.11c9.33-1.31,15.99-0.57,18.43-0.19l-0.4,22.76l-4.46-1.62c0,0-13.51,7.37-28.04,6.99l17.99,8.06
				c0,0,7.12-4.56,14.44-9.33c7.09-4.63,14.38-9.46,15.59-10.57c2.46-2.25,8.46-7.92,12.21-4.12c3.76,3.8,4.72,13.5-0.66,20.61
				c-5.38,7.11-20.36,20-20.36,20s5.92,1.4,6.26,1.83c1.25,1.56,4.5,5.65,7.54,9.85c3.36,4.63,6.49,9.39,6.47,11.07
				c-0.04,3.63-4.96,8.12-13.72,4.14c-8.76-3.98-9.6-12.64-12.72-13.49c-3.12-0.85-7.36-0.97-7.36-0.97l-2.17,4.78
				c0,0,14.63,3.76,16.22,13.69c1.59,9.94-4.58,12.76-8.09,12.4c-3.51-0.35-7.54-1.25-8.79-6.85l-6.72,0.62
				c0,0-5.07,16.44-10.6,18.28c0,0,4.42,21.54-6.82,32.64c-14.7,14.51-19.97,28.6-19.97,28.6l-54.5,5.46
				C62.31,512.86,80.03,443.48,80.03,443.48z"/>
			<path class="st21" d="M181.17,360.16l-4.89,5.44c0,0,1.98,5.4,9.95,6.53c0,0,9.92-7.1,8.87-13.29"/>
			<path class="st21" d="M192.12,417.58l-3.77,1.33c0,0-4.66-6.43-5.04-9.82c-0.19-1.68,1.83-1.91,1.83-1.91"/>
			<path class="st21" d="M167.78,439.42c0,0-1.39-5.37-3.71-7.4c-0.35-0.3-0.24-0.86,0.2-1c1.68-0.52,4.73-1.04,5.48,1.66
				c1.31,4.75,0.17,5.76,0.17,5.76L167.78,439.42z"/>
			<path class="st21" d="M121.24,366.39c0,0,5.81,1.18,9.36,4.15c3.11,2.6,4.29,6.79,0.42,18.43"/>
			<path class="st21" d="M151.13,380.06c0,0-12.61,11.56-16.19,11.13c-3.58-0.44-17.77-14.75-21.36-14.05"/>
			<path class="st21" d="M134.94,391.19c0,0-4.28,0.77-9.32-2.6"/>
			<path class="st21" d="M172.36,396.66c0,0-11.36,8.07-13.53,12.42c-2.88,5.78-9.14,23.05-9.6,24.77"/>
			<path class="st21" d="M156.01,433.11c0,0-0.72-6.43,2.22-8.95"/>
			<path class="st21" d="M125.34,461.37c5.93-1.35,8.18-7.63,13.35-9.35"/>
			<line class="st21" x1="228.42" y1="346.56" x2="176.37" y2="340.48"/>
			<line class="st21" x1="176.92" y1="351.4" x2="226.21" y2="358.14"/>
		</g>
	</g>
	<g class="st1">
		<path class="st8" d="M758.77,492.74c0,0-28.53-21.93-38.54-31.73c-10.01-9.8-54.94-21.08-60.69-22.57s-48.34-4.06-54.72-3.62
			c-6.09,0.42-7.91-3.11-8.45-5.46c-0.26-1.11-0.14-2.27,0.29-3.32c6.12-14.87,19.51-18.1,36.48-12.52
			c0.47,0.15,0.93,0.43,1.44,0.42c13.37-0.09,30.55-0.61,32.04-1.41c1.2-0.65,2.06-3.07,2.49-4.21c1.11-2.92,3.15-4.74,3.15-4.74
			s-41.04-87.79-41.47-95.88c-0.43-8.09-0.21-15.12,5.75-14.91c5.96,0.21,28.75,43.65,28.75,43.65s5.54-10.22,14.91-1.7l7.45,7.67
			c0,0,1.92-5.54,9.79-1.06s16.18,11.07,23.85,10.43c0,0,2.34-1.49,7.67-2.13c5.32-0.64,11.01,0.42,23.42,17.89
			c12.56,17.67,25.55,65.58,25.55,65.58l56.43,47.91"/>
		<path class="st22" d="M759.32,496.04c0,0-28.53-21.93-38.54-31.73c-10.01-9.8-54.94-21.08-60.69-22.57s-48.34-4.06-54.72-3.62
			c-6.09,0.42-7.91-3.11-8.45-5.46c-0.26-1.11-0.14-2.27,0.29-3.32c6.12-14.87,19.51-18.1,36.48-12.52
			c0.47,0.15,0.93,0.43,1.44,0.42c13.37-0.09,30.55-0.61,32.04-1.41c1.2-0.65,2.06-3.07,2.49-4.21c1.11-2.92,3.15-4.74,3.15-4.74
			s-41.04-87.79-41.47-95.88c-0.43-8.09-0.21-15.12,5.75-14.91c5.96,0.21,28.75,43.65,28.75,43.65s5.54-10.22,14.91-1.7l7.45,7.67
			c0,0,1.92-5.54,9.79-1.06s16.18,11.07,23.85,10.43c0,0,2.34-1.49,7.67-2.13c5.32-0.64,11.01,0.42,23.42,17.89
			c12.56,17.67,25.55,65.58,25.55,65.58l56.43,47.91"/>
		<g>
			<path class="st23" d="M758.77,492.74c0,0-28.53-21.93-38.54-31.73c-10.01-9.8-54.94-21.08-60.69-22.57s-48.34-4.06-54.72-3.62
				c-6.09,0.42-7.91-3.11-8.45-5.46c-0.26-1.11-0.14-2.27,0.29-3.32c6.12-14.87,19.51-18.1,36.48-12.52
				c0.47,0.15,0.93,0.43,1.44,0.42c13.37-0.09,30.55-0.61,32.04-1.41c1.2-0.65,2.06-3.07,2.49-4.21c1.11-2.92,3.15-4.74,3.15-4.74
				s-41.04-87.79-41.47-95.88c-0.43-8.09-0.21-15.12,5.75-14.91c5.96,0.21,28.75,43.65,28.75,43.65s5.54-10.22,14.91-1.7l7.45,7.67
				c0,0,1.92-5.54,9.79-1.06s16.18,11.07,23.85,10.43c0,0,2.34-1.49,7.67-2.13c5.32-0.64,11.01,0.42,23.42,17.89
				c12.56,17.67,25.55,65.58,25.55,65.58l56.43,47.91"/>
			<path class="st23" d="M687.65,342.41c0,0,15.97,20.02,27.68,22.15"/>
			<path class="st23" d="M665.3,336.45c0,0,16.4,27.26,18.95,33.86s3.62,8.94,3.62,8.94"/>
			<path class="st23" d="M646.34,304.3c-1.49,0.43-5.11,4.68-7.24,2.13c-2.13-2.56-8.09-7.88-7.03-11.29"/>
			<path class="st23" d="M633.14,413.53c0.4,1.11,0.59,3.58,0.31,5.86"/>
			<path class="st23" d="M672.27,403.59c0,0,4.3,9.48,4.1,12.9"/>
		</g>
	</g>
	<g class="st1">
		<path class="st8" d="M879.95,124.18c-1.59,0.95-129.64,54.05-160.83,58.82c0,0-23.79,4.28-36.32,13.55
			c-12.53,9.27-32.16,14.6-35.76,16.31c-3.6,1.72-6.63,7.27,0.01,10.76c4.85,2.55,10.12,1.31,16.13,0.05
			c9.19-1.93,32.02-14.59,32.02-14.59l-24.44,15.85l-29.21,25.01c0,0-5.73,4.3-8.94,9.25c-2.12,3.27-3.13,6.83-0.67,9.63
			c2.13,2.42,7.36,3.23,12.7,0.86c8.09-3.59,40.79-29.12,47.89-35.39c0.75-0.66,22.26-17.16,19.66-14.7
			c-3.82,3.63-30.16,23.1-30.16,23.1s-27.82,22.57-30.52,35.57c-1.03,4.98,3.5,9.35,12.03,8.01c11.96-1.88,41.58-31.47,41.58-31.47
			l29.97-23.57l-23.77,21.83c-0.89,0.76-11.24,11.67-13.54,14.61c-0.41,0.52-21.7,16.74-20.19,23.11
			c1.72,7.21,14.23,6.93,20.58,1.95c6.35-4.98,51.67-44.68,51.67-44.68s-1.63,6.3-5.23,12.82c-3.6,6.52-6.35,9.89-15.62,23.51
			c0,0-10.44,14.86-1.91,15.44c13.18,0.89,19.82-8.16,23.94-15.36c4.12-7.21,30.64-45.22,33.32-49.97
			c6.69-11.84,24.2-18.02,36.56-20.6c12.36-2.57,56.64-15.28,56.64-15.28"/>
		<path class="st19" d="M881.73,124.9c-1.59,0.95-129.64,54.05-160.83,58.82c0,0-23.79,4.28-36.32,13.55
			c-12.53,9.27-32.16,14.6-35.76,16.31c-3.6,1.72-6.63,7.27,0.01,10.76c4.85,2.55,10.12,1.31,16.13,0.05
			c9.19-1.93,32.02-14.59,32.02-14.59l-24.44,15.85l-29.21,25.01c0,0-5.73,4.3-8.94,9.25c-2.12,3.27-3.13,6.83-0.67,9.63
			c2.13,2.42,7.36,3.23,12.7,0.86c8.09-3.59,40.79-29.12,47.89-35.39c0.75-0.66,22.26-17.16,19.66-14.7
			c-3.82,3.63-30.16,23.1-30.16,23.1s-27.82,22.57-30.52,35.57c-1.03,4.98,3.5,9.35,12.03,8.01c11.96-1.88,41.58-31.47,41.58-31.47
			l29.97-23.57l-23.77,21.83c-0.89,0.76-11.24,11.67-13.54,14.61c-0.41,0.52-21.7,16.74-20.19,23.11
			c1.72,7.21,14.23,6.93,20.58,1.95c6.35-4.98,51.67-44.68,51.67-44.68s-1.6,6.77-5.46,12.8c-4.31,6.74-6.52,9.39-15.86,22.76
			c0,0-11.51,13.36-3.24,15.5c12.39,3.2,21.61-7.44,25.73-14.65c4.12-7.21,30.64-45.22,33.32-49.97
			c6.69-11.84,24.2-18.02,36.56-20.6c12.36-2.57,56.64-15.28,56.64-15.28"/>
		<path class="st24" d="M879.95,124.18c-1.59,0.95-129.64,54.05-160.83,58.82c0,0-23.79,4.28-36.32,13.55
			c-12.53,9.27-32.16,14.6-35.76,16.31c-3.6,1.72-6.63,7.27,0.01,10.76c4.85,2.55,10.12,1.31,16.13,0.05
			c9.19-1.93,32.02-14.59,32.02-14.59l-24.44,15.85l-29.21,25.01c0,0-5.73,4.3-8.94,9.25c-2.12,3.27-3.13,6.83-0.67,9.63
			c2.13,2.42,7.36,3.23,12.7,0.86c8.09-3.59,40.79-29.12,47.89-35.39c0.75-0.66,22.26-17.16,19.66-14.7
			c-3.82,3.63-30.16,23.1-30.16,23.1s-27.82,22.57-30.52,35.57c-1.03,4.98,3.5,9.35,12.03,8.01c11.96-1.88,41.58-31.47,41.58-31.47
			l29.97-23.57l-23.77,21.83c-0.89,0.76-11.24,11.67-13.54,14.61c-0.41,0.52-21.7,16.74-20.19,23.11
			c1.72,7.21,14.23,6.93,20.58,1.95c6.35-4.98,51.67-44.68,51.67-44.68s-1.81,6.2-5.23,12.82c-3.94,7.63-7.25,9.44-15.62,23.51
			c0,0-9.02,11.54-3.7,14.72c11.18,6.69,21.61-7.44,25.73-14.65c4.12-7.21,30.64-45.22,33.32-49.97
			c6.69-11.84,24.2-18.02,36.56-20.6c12.36-2.57,56.64-15.28,56.64-15.28"/>
		<path class="st24" d="M659.84,208.05c0,0-0.27,5.16-3.54,5.68c-3.26,0.51-9.78,3.43-9.78,3.43l0.51-4.29"/>
		<path class="st24" d="M637.95,270.37c0,0,9.14-8.61,6.59-11.34c-2.55-2.72-5.36-2.64-10.46-0.09
			C628.99,261.49,637.95,270.37,637.95,270.37z"/>
		<path class="st24" d="M654.12,275.2c0.13-0.37,8.88-8.88,11.86-2.72s-3.95,12.83-3.95,12.83S650.52,285.66,654.12,275.2z"/>
		<path class="st24" d="M678.73,287.59c0.24-0.63,9.67-7.91,12.65-4.39c2.99,3.52-5.12,12.02-5.12,12.02
			S676.53,293.39,678.73,287.59z"/>
		<line class="st24" x1="749.84" y1="248.05" x2="754.42" y2="243.81"/>
		<path class="st24" d="M723.52,295.69c0,0,8.6-8.6,10.91-7.34c2.31,1.26-1.68,11.33-1.68,11.33S725.41,299.25,723.52,295.69z"/>
	</g>
	<g class="st1">
		<g>
			<path class="st8" d="M677.42,91.5c-6.05,5.25-7.01,13.97-4.41,18c2.6,4.04,8.92,0.17,11.51-1.35c1.27-0.75,8.58-3.64,15.68-6.39
				l-0.82,3.58l-4.58,19.94l-5.22,30.85l-118.81-42.65l34.68-76.4l88.44,37.86c0.22,0.44,5.16,2.77,5.16,2.77
				S683.47,86.25,677.42,91.5z"/>
			<path class="st8" d="M793.08,56.08c0,0-18.33,40.22-23.02,51.22c-5.3,12.44-20.76,12.45-29.55,17.27
				c-3.65,2-18.71,4.72-29.48,3.97c-8.45-0.59-14.17-2.48-16.24-3.26l4.58-19.94l3.62,2.26c0,0,13.25-3.97,25.96-0.93l-14.32-10.43
				c0,0-7.1,2.68-14.43,5.52c-7.1,2.75-14.41,5.65-15.68,6.39c-2.58,1.52-8.91,5.39-11.51,1.35c-2.6-4.04-1.64-12.75,4.41-18
				s21.62-13.8,21.62-13.8s-4.94-2.33-5.16-2.77c-0.81-1.61-2.9-5.8-4.8-10.06c-2.09-4.69-3.96-9.46-3.63-10.94
				c0.71-3.18,5.87-6.22,12.84-1.09c6.96,5.13,6.09,12.9,8.68,14.23c2.58,1.33,6.29,2.22,6.29,2.22l2.8-3.8
				c0,0-12.16-6.03-11.71-15.06c0.45-9.03,6.4-10.37,9.42-9.4c3.02,0.96,6.4,2.5,6.45,7.65l6.03,0.71c0,0,7.52-13.51,12.72-14.1
				c0,0,0.12-19.77,12.07-27.44c15.63-10.02,33.93-20.77,33.93-20.77l46.82,4.33C826.37-4.37,793.08,56.08,793.08,56.08z"/>
		</g>
		<g>
			<path class="st18" d="M675.66,89.72c-6.05,5.25-7.31,14.17-4.41,18c4.09,5.42,9.18,3.01,11.76,1.49
				c1.27-0.75,7.4-3.91,14.49-6.66l0,0l-4.48,20.94l-5.22,30.85l-117.05-40.88l34.68-76.4l86.68,36.08
				c0.22,0.44,5.16,2.77,5.16,2.77S681.71,84.47,675.66,89.72z"/>
			<path class="st25" d="M791.32,54.31c0,0-18.33,40.22-23.02,51.22c-5.3,12.44-20.76,12.45-29.55,17.27
				c-3.65,2-18.71,4.72-29.48,3.97c-8.45-0.59-11.92-2.79-13.99-3.57l4.59-18.35l1.35,0.98c0,0,13.25-3.97,25.96-0.93l-14.32-10.43
				c0,0-7.1,2.68-14.43,5.52c-7.1,2.75-14.41,5.65-15.68,6.39c-2.58,1.52-8.91,5.39-11.51,1.35c-2.6-4.04-1.64-12.75,4.41-18
				c6.05-5.25,21.62-13.8,21.62-13.8s-4.94-2.33-5.16-2.77c-0.81-1.61-2.9-5.8-4.8-10.06c-2.09-4.69-3.96-9.46-3.63-10.94
				c0.71-3.18,5.87-6.22,12.84-1.09c6.96,5.13,6.09,12.9,8.68,14.23c2.58,1.33,6.29,2.22,6.29,2.22l2.8-3.8
				c0,0-12.16-6.03-11.71-15.06c0.45-9.03,6.4-10.37,9.42-9.4c3.02,0.96,6.4,2.5,6.45,7.65l6.03,0.71c0,0,7.52-13.51,12.72-14.1
				c0,0,0.12-19.77,12.07-27.44C764.9-3.95,783.2-14.7,783.2-14.7l46.82,4.33C824.61-6.14,791.32,54.31,791.32,54.31z"/>
			<path class="st26" d="M689.09,104.06c0.07-1.14,0.8-7.06-3.9-8.84l-7.65,4.49l-4.91,4.71c0,0-0.64,5.85,2.57,6.2
				C678.4,110.98,689.09,104.06,689.09,104.06z"/>
			<path class="st26" d="M685.56,55.62l3.56-0.47c0.04,0.04,3.19,8.35,1.15,9.07c-1.87,0.67-0.49,1.73-0.92,0.68
				C688.92,63.85,685.56,55.62,685.56,55.62z"/>
			<path class="st26" d="M711.12,40.99c0,0,1.21,7.01,2.14,7.61c0.94,0.6-5.24-0.86-4.75-4.65C709,40.17,711.12,40.99,711.12,40.99z
				"/>
		</g>
		<g>
			<path class="st20" d="M714.63,96.24l14.32,10.43c-3.45-0.73-25.96,0.93-25.96,0.93l-3.62-2.26l0.82-3.58
				C707.53,98.92,714.63,96.24,714.63,96.24z"/>
			<path class="st27" d="M677.42,91.5c-6.05,5.25-7.01,13.97-4.41,18c2.6,4.04,8.92,0.17,11.51-1.35c1.27-0.75,8.58-3.64,15.68-6.39
				l-0.82,3.58l-4.58,19.94l-5.22,30.85l-116.26-40.69l34.68-76.4l85.9,35.9c0.22,0.44,5.16,2.77,5.16,2.77
				S683.47,86.25,677.42,91.5z"/>
			<path class="st27" d="M793.08,56.08c0,0-18.33,40.22-23.02,51.22c-5.3,12.44-20.76,12.45-29.55,17.27
				c-3.65,2-18.71,4.72-29.48,3.97c-8.45-0.59-14.17-2.48-16.24-3.26l4.58-19.94l3.62,2.26c0,0,13.25-3.97,25.96-0.93l-14.32-10.43
				c0,0-7.1,2.68-14.43,5.52c-7.1,2.75-14.41,5.65-15.68,6.39c-2.58,1.52-8.91,5.39-11.51,1.35c-2.6-4.04-1.64-12.75,4.41-18
				s21.62-13.8,21.62-13.8s-4.94-2.33-5.16-2.77c-0.81-1.61-2.9-5.8-4.8-10.06c-2.09-4.69-3.96-9.46-3.63-10.94
				c0.71-3.18,5.87-6.22,12.84-1.09c6.96,5.13,6.09,12.9,8.68,14.23c2.58,1.33,6.29,2.22,6.29,2.22l2.8-3.8
				c0,0-12.16-6.03-11.71-15.06c0.45-9.03,6.4-10.37,9.42-9.4c3.02,0.96,6.4,2.5,6.45,7.65l6.03,0.71c0,0,7.52-13.51,12.72-14.1
				c0,0,0.12-19.77,12.07-27.44c15.63-10.02,33.93-20.77,33.93-20.77l46.82,4.33C826.37-4.37,793.08,56.08,793.08,56.08z"/>
			<path class="st27" d="M684.52,108.15l5.31-3.87c0,0,2.16-6.58-4.64-9.05c0,0-12.95,5.86-13.17,11.5"/>
			<path class="st27" d="M685.56,55.62l3.56-0.47c0,0,2.9,6.52,2.61,9.57c-0.14,1.51-1.96,1.34-1.96,1.34"/>
			<path class="st27" d="M711.03,40.94c0,0,0.22,4.98,1.89,7.2c0.25,0.33,0.05,0.8-0.36,0.84c-1.57,0.14-4.36,0.03-4.51-2.48
				c-0.27-4.42,0.92-5.1,0.92-5.1L711.03,40.94z"/>
			<path class="st27" d="M738.37,113.82c0,0-4.89-2.12-7.46-5.39c-2.25-2.86-2.51-6.77,3.06-16.28"/>
			<path class="st27" d="M714.63,96.24c0,0,13.24-7.82,16.3-6.77c3.06,1.05,12.88,16.27,16.17,16.33"/>
			<path class="st27" d="M730.93,89.46c0,0,3.91,0.12,7.72,4.02"/>
			<path class="st27" d="M699.05,77.7c0,0,11.49-4.99,14.2-8.41c3.61-4.54,12.32-18.57,13.05-20"/>
			<path class="st27" d="M720.21,48.68c0,0-0.56,5.78-3.62,7.46"/>
			<path class="st27" d="M752.44,29.54c-5.46,0.09-8.61,5.19-13.48,5.74"/>
			<line class="st27" x1="664.28" y1="96.19" x2="605.7" y2="75.68"/>
			<line class="st27" x1="680.01" y1="139.26" x2="590.23" y2="107.75"/>
			<line class="st27" x1="684.93" y1="124.32" x2="597.11" y2="92.28"/>
			<line class="st27" x1="656.93" y1="76.26" x2="610.85" y2="58.5"/>
		</g>
	</g>
	<g class="st1">
		<path class="st8" d="M86.89,21.75c1.08-1.04-0.73-2.36-1.8-2.35L14.13-7.38L-84,74.5c0,0,108.37-4.85,157.52-6.91
			c0.57-0.02,0.75-0.27,0.76-0.56C72.79,56.85,72.57,37.61,86.89,21.75z"/>
		<path class="st8" d="M221.6,47.38c-10.14-4.07-61.95-12.07-80.77-9.83c-15.48,1.84-44.21-11.13-53.94-15.8
			c-14.32,15.86-14.1,35.1-12.61,45.27c12.81-0.53,21.29-0.82,22.24-0.7c4.56,0.58,1.11-1.1,9.65,14.5s41.14,14.4,41.14,14.4
			s0.28,1.78,3.47,6.59c3.19,4.82,14.79,1.28,14.79,1.28s14.18,6.38,22.05,2.04c7.87-4.33,1.96-12.85,1.96-12.85
			s4.31,0.29,7.06-4.39c2.75-4.68-3.22-22.27-3.22-22.27c5.53-1.79,25.77,1.08,38.46,1.4c12.69,0.32,20.94-3.58,20.52-7.26
			S231.74,51.45,221.6,47.38z M180.51,82.4l-8.86,0.82l-8.63-4.28l14.54-7.34C177.55,71.61,177.78,80.55,180.51,82.4z"/>
		<g>
			<path class="st20" d="M169.75,85.97l8.86-0.82c-2.73-1.85-2.95-10.79-2.95-10.79l-14.54,7.34L169.75,85.97z"/>
			<path class="st28" d="M219.7,50.13c-10.14-4.07-61.95-12.07-80.77-9.83c-15.48,1.84-44.21-11.13-53.94-15.8
				C70.68,40.36,70.9,59.6,72.38,69.77c12.81-0.53,21.29-0.82,22.24-0.7c4.56,0.58,1.11-1.1,9.65,14.5
				c8.54,15.6,41.14,14.4,41.14,14.4s0.28,1.78,3.47,6.59c3.19,4.82,16.08,0.18,16.08,0.18s12.89,7.48,20.76,3.15
				c7.87-4.33,2.3-14.53,2.3-14.53s3.96,1.97,6.72-2.71c2.75-4.68-3.22-22.27-3.22-22.27c5.53-1.79,25.77,1.08,38.46,1.4
				c12.69,0.32,20.94-3.58,20.52-7.26S229.84,54.2,219.7,50.13z M178.61,85.15l-4.94,0.14l-11.07-5.57l13.05-5.36
				C175.66,74.36,175.88,83.3,178.61,85.15z"/>
			<g>
				<defs>
					<path id="SVGID_3_" d="M83.19,22.15L-0.35-9.94L-85.9,77.25c0,0,108.37-4.85,157.52-6.91c0.57-0.02,0.75-0.27,0.76-0.56
						C70.9,59.6,70.68,40.36,84.99,24.5C86.07,23.46,84.26,22.14,83.19,22.15z"/>
				</defs>
				<clipPath id="SVGID_4_">
					<use xlink:href="#SVGID_3_"  style="overflow:visible;"/>
				</clipPath>
				<path class="st29" d="M83.19,22.15l-93.4-34.91l-75.69,90c0,0,108.37-4.85,157.52-6.91c0.57-0.02,0.75-0.27,0.76-0.56
					C70.9,59.6,70.68,40.36,84.99,24.5C86.07,23.46,84.26,22.14,83.19,22.15z"/>
				<path class="st30" d="M61.57,55.44c-5.15-5.4-11.11-4.13-16.92,0.94c-2.66,2.32-6.93,3.65-7.17,7.17
					c-0.23,3.37,0.99,7.5,3.36,9.98c5.15,5.4,13.6,6.39,19.41,1.32c2.66-2.32,4.44-5.91,4.68-9.43
					C65.16,62.05,63.94,57.92,61.57,55.44z"/>
				<path class="st30" d="M70.51,13.4c-5.34-5.6-14.1-6.63-20.13-1.37c-2.76,2.4-4.61,6.13-4.85,9.78
					c-0.24,3.49,1.03,7.77,3.48,10.35c5.34,5.6,10.86,4.29,16.89-0.97c2.76-2.4,7.85-3.79,8.1-7.44
					C74.23,20.26,72.97,15.98,70.51,13.4z"/>
				<path class="st30" d="M29.93,31.24c-5.07-5.32-10.9-6.26-16.62-1.26c-2.62,2.28-6.87,5.78-7.11,9.25
					c-0.23,3.32,0.98,7.39,3.31,9.83c5.07,5.32,13.39,6.3,19.12,1.3c2.62-2.28,4.37-5.82,4.61-9.29
					C33.46,37.75,32.26,33.68,29.93,31.24z"/>
				<path class="st30" d="M-2.32,57.15c-4.45-4.66-11.74-5.52-16.76-1.14c-2.3,2-3.84,5.11-4.04,8.14c-0.2,2.91,0.86,6.48,2.9,8.62
					c4.45,4.66,11.74,5.52,16.76,1.14c2.3-2,3.84-5.11,4.04-8.14C0.78,62.86-0.27,59.3-2.32,57.15z"/>
				<path class="st30" d="M31.19-0.34C26.74-5,21.78-3.46,16.76,0.91c-2.3,2-6.17,2.71-6.38,5.75c-0.2,2.91,0.86,6.48,2.9,8.62
					c4.45,4.66,11.74,5.52,16.76,1.14c2.3-2,3.84-5.11,4.04-8.14C34.29,5.37,33.24,1.8,31.19-0.34z"/>
			</g>
		</g>
		<path class="st9" d="M189.59,92.28c0,0-3.61-5.54-17.94-9.05"/>
		<g>
			<g>
				<path class="st20" d="M171.65,83.22l8.86-0.82c-2.73-1.85-2.95-10.79-2.95-10.79l-14.54,7.34L171.65,83.22z"/>
				<path class="st9" d="M86.89,21.75c1.08-1.04-0.73-2.36-1.8-2.35L-0.07-12.47L-84,74.5c0,0,108.37-4.85,157.52-6.91
					c0.57-0.02,0.75-0.27,0.76-0.56C72.79,56.85,72.57,37.61,86.89,21.75z"/>
				<path class="st9" d="M221.6,47.38c-10.14-4.07-61.95-12.07-80.77-9.83c-15.48,1.84-44.21-11.13-53.94-15.8
					c-14.32,15.86-14.1,35.1-12.61,45.27c12.81-0.53,21.29-0.82,22.24-0.7c4.56,0.58,1.11-1.1,9.65,14.5s41.14,14.4,41.14,14.4
					s0.28,1.78,3.47,6.59c3.19,4.82,14.79,1.28,14.79,1.28s14.18,6.38,22.05,2.04c7.87-4.33,1.96-12.85,1.96-12.85
					s4.31,0.29,7.06-4.39c2.75-4.68-3.22-22.27-3.22-22.27c5.53-1.79,25.77,1.08,38.46,1.4c12.69,0.32,20.94-3.58,20.52-7.26
					S231.74,51.45,221.6,47.38z M180.51,82.4l-8.86,0.82l-8.63-4.28l14.54-7.34C177.55,71.61,177.78,80.55,180.51,82.4z"/>
			</g>
			<line class="st9" x1="147.31" y1="95.21" x2="165.58" y2="103.09"/>
			<path class="st9" d="M177.55,71.61c0,0,10.69-4.66,15.88-5.99"/>
			<path class="st9" d="M163.01,78.95c-0.95-0.13-10.26-7.09-14.41-12.06"/>
			<path class="st9" d="M159.86,76.73c0.65-0.57,2.47-3.3,6.29-8.54s9-10.9,10.8-10.37"/>
			<path class="st9" d="M191.54,97.94c0,0-6.66-3.92-9.9-1.29c-3.24,2.63-3.59,6.38-2.37,7.79c1.23,1.41,4.65,2.05,4.65,2.05"/>
		</g>
	</g>
	<g class="st1">
		<g>
			<path class="st8" d="M402.04,456.81c-0.66,2.57,6.59,5.5,8.13,7.69c0.57,0.82,1.09,2.25,1.52,3.72c6.6,0.33,13.22,1.08,19.74,1.3
				c14.54,0.49,29.09,0.8,43.64,0.98c5.45,0.07,10.91,0.12,16.36,0.17c0.54-12.93-13.39-19.16-17.92-25.72
				c-5.1-7.38-35.56-27.71-40.53-33.58c-4.96-5.87-20.48-18-28.03-16.73c-3.18,0.53-4.69,2.28-5.37,4.12l18.83,10.48
				c-4.13,4.36-3.34,11.1-3.34,11.1c-0.27-0.13-13.07-7.42-28.55-16.25l-0.87,0c-13.77,5.77,5.26,19.59,5.26,19.59
				c-9.04-6.4-10.73-2.3-10.73-2.3c-4.89,8.91,21.47,21.94,21.47,21.94s-22.26-1.03-24.14,7.02
				C375.62,458.4,402.04,456.81,402.04,456.81z"/>
			<path class="st8" d="M418.4,409.24l-18.83-10.48l-64.51-35.89l-12.24-1.98c-0.97-0.16-1.59,1.01-0.9,1.72l9.79,10.19
				c0,0,30.67,17.51,54.81,31.28c15.48,8.83,28.27,16.12,28.55,16.25C415.06,420.34,414.27,413.6,418.4,409.24z"/>
		</g>
		<g>
			<path class="st31" d="M400.74,460.18c-0.66,2.57,6.59,5.5,8.13,7.69c0.05,0.08,0.11,0.16,0.16,0.25c7.48,0.23,15,1.16,22.39,1.41
				c14.54,0.49,29.09,0.8,43.64,0.98c4.96,0.06,9.91,0.11,14.87,0.15c-1.73-10.7-13.61-16.38-17.73-22.34
				c-5.1-7.38-35.56-27.71-40.53-33.58c-4.96-5.87-20.48-18-28.03-16.73c-3.18,0.53-3.29,1.51-4.03,2.27l17.96,9.73
				c-4.13,4.36-3.82,13.7-3.82,13.7c-0.27-0.13-13.07-7.42-28.55-16.25l-0.87,0c-13.77,5.77,5.26,19.59,5.26,19.59
				c-9.04-6.4-10.73-2.3-10.73-2.3c-4.89,8.91,21.47,21.94,21.47,21.94s-22.26-1.03-24.14,7.02
				C374.33,461.76,400.74,460.18,400.74,460.18z"/>
			<path class="st26" d="M416.38,412.04l-18.1-9.91l-64.51-35.89l-12.24-1.98c-0.97-0.16-1.59,1.01-0.9,1.72l9.79,10.19
				c0,0,30.67,17.51,54.81,31.28c15.48,8.83,28.27,16.12,28.55,16.25C413.76,423.7,412.24,416.4,416.38,412.04z"/>
		</g>
		<g>
			<g>
				<path class="st32" d="M490.55,469.18c-0.46-5.97-4.36-10.62-8.64-14.62c-2.79-2.51-5.58-4.83-8.18-7.44
					c-2.42-3.53-5.58-6.32-9.02-9.02c-0.09-0.09-0.19-0.28-0.28-0.37c-7.25-5.76-14.04-10.78-21.47-16.45
					c-2.88-2.23-5.48-4.37-8.27-6.69c-2.32-2.05-4-4.28-6.32-6.32c-1.86-1.58-3.44-2.97-5.39-4.46c-2.7-2.05-5.21-3.63-8.09-5.3
					c-0.74-0.46-1.58-0.74-2.32-1.12c-1.67-0.84-3.35-1.49-5.21-1.86c-1.58-0.28-3.16-0.28-4.65,0.19
					c-0.19,0.09-0.37,0.19-0.65,0.28c-0.74,0.37-1.49,0.84-2.05,1.39c-0.56,0.65-1.12,1.3-1.21,2.14
					c6.23,3.53,12.55,6.97,18.77,10.48c-1.48,1.57-0.21-0.12,0,0c-1.48,1.57-2.43,3.57-2.93,5.65c-0.36,1.49-0.51,3.04-0.47,4.57
					c0.01,0.29,0.02,0.58,0.05,0.88c-0.71-0.37-1.4-0.79-2.1-1.18c-8.78-5.06-17.33-9.8-26.25-15c-0.28-0.19-0.65-0.09-1.02-0.09
					c-0.93,0.19-1.67,0.84-2.51,1.3c-0.56,0.28-0.84,0.84-1.3,1.21c-0.56,0.65-0.84,1.39-1.02,2.14c-0.37,1.21-0.28,2.32,0.09,3.44
					c0.28,0.93,0.74,1.67,1.21,2.51c0.46,0.84,1.12,1.58,1.67,2.42c1.02,1.3,2.14,2.32,3.25,3.44c1.21,1.12,2.51,2.14,3.82,3.17
					c-2.12-1.5-0.03-0.02,0,0c-2.43-1.68-5.12-3.54-8.19-3.63c-1.21,0-2.32,0.56-2.79,1.77c-0.28,0.74-0.46,1.58-0.37,2.42
					c0.19,1.67,0.93,3.07,1.95,4.46c1.58,2.14,3.35,3.72,5.39,5.39c4.74,3.72,9.57,6.6,14.74,9.23c-0.23-0.01-0.03-0.01,0,0
					c-2.75-0.03-5.54-0.03-8.32,0.16c-1.21,0.09-2.42,0.19-3.63,0.37c-1.12,0.19-2.05,0.28-3.16,0.56
					c-2.14,0.56-4.09,1.12-5.95,2.14c-0.09,0.09-0.19,0.19-0.28,0.28c-1.86,1.02-3.44,3.25-2.7,5.39c0.46,1.21,1.67,1.95,2.79,2.51
					c2.97,1.21,6.04,1.67,9.2,1.95c1.77,0.19,3.53,0.19,5.3,0.28c2.42,0.09,4.74,0,7.15-0.14c-0.17,0.66-0.05,0,0,0
					c-0.18,1.26,0.84,2.19,1.77,2.93c2.51,2.14,6.04,3.16,7.18,6.39"/>
				<path class="st32" d="M417.58,410.01l-18.83-10.48l-64.51-35.89L322,361.65c-0.97-0.16-1.59,1.01-0.9,1.72l9.79,10.19
					c0,0,30.67,17.51,54.81,31.28c15.48,8.83,28.27,16.12,28.55,16.25C414.24,421.1,413.45,414.37,417.58,410.01z"/>
			</g>
			<path class="st32" d="M467.08,468.84c-0.13-0.72-0.39-1.42-0.76-2.05"/>
			<path class="st32" d="M425.95,467.87c0.56-2.06,0.93-4.11,0.83-6.25c-0.19-1.95-1.02-3.72-1.77-5.58
				c-2.79-7.44-5.39-14.59-7.81-22.22c-0.65-2.05-1.21-4-1.77-6.14c-0.46-2.05-0.93-4-1.21-6.14c-0.28-2.42-0.09-4.83,0.65-7.16
				c0.65-1.86,1.58-3.44,2.97-4.74c1.49-1.3,3.63-2.14,5.48-1.39c2.6,1.21,4,3.63,5.67,5.95c3.53,4.93,6.14,9.76,8.83,14.97
				c1.39,2.7,2.32,5.3,3.16,8.18c0.19,0.74,0.37,1.49,0.65,2.23c0.09,0.28,0.09,0.65,0.19,0.93c0.28,0.65,0.46,1.49,0.74,2.14
				c0.09,0.28,0.09,0.65,0.19,0.93c1.58,4.93,3.16,9.76,6.04,14.04c2.97,3.53,5.48,7.53,8.25,11.21"/>
			<path class="st32" d="M401.56,444.32c0,0,9.86,7.32,16.08,8.88c6.05,1.53,6,0.08,6,0.08"/>
			<path class="st32" d="M390.08,424.45c0,0,22.13,9.53,25.54,10.95c3.41,1.43,2.34,0.93,2.34,0.93"/>
			<path class="st32" d="M401.22,457.58c0,0,4.51-1.49,4.54-2.48"/>
			<path class="st32" d="M409.35,465.27c1.08-1.04,5.57-2.08,7.6-7.19"/>
			<path class="st32" d="M440.37,435.97c1.03,0.61,8.73,2.78,10.56,2.67"/>
			<path class="st32" d="M467.4,449.92c0,0-12.47,4.49-17.13,2.46"/>
			<path class="st32" d="M429.12,414.19c0,0,2.22,11.83-3.46,11.65c-5.68-0.18-10.83-11.51-10.83-11.51"/>
		</g>
	</g>
</g>
</svg>
