<?xml version="1.0" encoding="utf-8"?>
<!-- Generator: Adobe Illustrator 23.0.6, SVG Export Plug-In . SVG Version: 6.00 Build 0)  -->
<svg version="1.1" xmlns="http://www.w3.org/2000/svg" xmlns:xlink="http://www.w3.org/1999/xlink" x="0px" y="0px"
	 viewBox="0 0 841.89 467.72" style="enable-background:new 0 0 841.89 467.72;" xml:space="preserve">
<style type="text/css">
	.st0{fill:#F5C65D;}
	.st1{fill:#FFFFFF;}
	.st2{fill:#61A575;}
	.st3{fill:#4890BA;}
	.st4{fill:#E0635D;}
	.st5{fill:none;stroke:#54575C;stroke-miterlimit:10;}
	.st6{fill:#F4F4F5;}
	.st7{fill:#DCACA3;}
	.st8{fill:#DCEFFA;}
	.st9{fill:none;}
	.st10{fill:#B97D5C;}
	.st11{fill:#54575C;}
	.st12{fill:#54575C;stroke:#54575C;stroke-miterlimit:10;}
</style>
<g id="Layer_1">
</g>
<g id="Layer_2">
</g>
<g id="Layer_3">
	<rect x="-0.61" y="-0.56" class="st0" width="842.5" height="468.28"/>
	<g>
		<path class="st1" d="M575.21,93.37c-0.94-24.85-5.59-61-37.49-60.79c-33.05,0.22-66.15,1.79-99.19,2.68
			c-33.94,0.92-67.87,1.84-101.81,2.76c-9.05,0.25-18.1,0.49-27.15,0.74c-6.02,0.16-16.18-1.44-21.32,3.09
			c0.19,17.02,1.09,34.02,2.28,50.99c1.19,16.83,2.66,33.64,4,50.46c1.17,14.72,2.14,29.46,3.29,44.18
			c1.13,14.47,2.11,28.99,1.71,43.51c-0.09,3.39-0.26,6.79-0.52,10.19c7.26,0.88,14.56,1.2,21.87,1.22
			c33.06,0.12,66.18-1.3,99.22-2.02c32.72-0.71,65.58-0.78,98.17-4.12c14.14-1.45,28.69-3.18,41.62-9.49
			c5.32-2.6,10.07-6.45,12.42-11.99c3.05-7.17,2.14-15.91,2.33-23.51C575.48,158.67,576.45,125.96,575.21,93.37z"/>
		<path class="st2" d="M430.58,177.86c-0.56,0.72-1.1,1.45-1.64,2.18c0.07-0.34,0.15-0.67,0.22-1c1.13-5.41-4.91-8.84-9.05-5.27
			c-3.63,3.14-7.05,6.47-10.32,9.95c0.22-1.35,0.43-2.7,0.61-4.07c0.68-5.18-6.11-6.42-9.24-3.83c-3.38,2.8-6.61,5.73-9.71,8.78
			c0.77-3.06,1.46-6.14,2.08-9.24c0.93-4.72-5.37-9.9-9.05-5.27c-2.59,3.26-5.18,6.52-7.77,9.79c0.24-2.12,0.4-4.25,0.48-6.4
			c0.19-5.66-7.26-6.97-10.09-2.73c-1.29,1.93-2.59,3.85-3.89,5.77c-0.3-4.28-5.75-7.44-9.16-3.7c-0.33,0.37-0.67,0.73-1,1.1
			c0.74-4.58-5.3-7.64-9.28-4.47c-2.67,2.13-5.36,4.22-8.06,6.31c0.07-0.12,0.14-0.24,0.22-0.35c3.05-4.74-2.85-9.87-7.4-7.4
			c-2.45,1.32-4.9,2.65-7.34,3.97c-3.69,2-3.18,6.19-0.84,8.47c-2.06,3.76-3.99,7.6-5.78,11.52c-1.99,4.36,2.52,10.9,7.4,7.4
			c1.51-1.08,3-2.17,4.5-3.26c-2.11,3.02-4.26,6.02-6.46,8.98c-3.21,4.33,3.09,10.41,7.4,7.4c6.81-4.74,13-10.13,18.88-15.87
			c-1.11,3.02-2.3,6.01-3.6,8.96c-2.8,6.39,5.18,11.12,9.35,5.46c2.43-3.3,4.83-6.62,7.22-9.95c-0.38,0.75-0.75,1.5-1.16,2.24
			c-2.85,5.14,4.54,11.55,8.5,6.56c3.21-4.04,6.41-8.07,9.62-12.11c-1.07,3.06-2.21,6.1-3.44,9.12c-2.49,6.1,6.58,8.71,9.89,4.17
			c4.16-5.7,8.73-11.05,13.64-16.07c-1.31,4.43-2.91,8.78-4.8,12.99c-2.79,6.22,5.7,11.58,9.35,5.46c4-6.7,8.55-12.94,13.61-18.76
			c-1.68,6.72-3.49,13.41-5.45,20.06c-2.03,6.88,7.84,9.1,10.44,2.88c2.2-5.26,4.74-10.39,7.57-15.36
			c-0.69,3.79-1.55,7.56-2.61,11.31c-1.88,6.72,8.56,9.59,10.44,2.88c3.18-11.35,4.84-23.01,4.98-34.8
			C439.87,177.39,433.57,174.02,430.58,177.86z"/>
		<path class="st3" d="M430.25,100.88c0.09-3.82,0.29-7.63,0.64-11.44c0.49-5.4-7.66-7.3-10.09-2.73c-0.87,1.64-1.77,3.26-2.68,4.87
			c0.39-2.16,0.8-4.32,1.23-6.48c1.2-5.96-6.49-9.47-9.89-4.17c-0.71,1.11-1.44,2.2-2.16,3.3c1.1-5.86-6.63-8.2-9.99-3.62
			c-2.7,3.67-5.29,7.41-7.83,11.2c0.07-1.39,0.13-2.78,0.2-4.17c0.27-5.74-7.25-6.85-10.09-2.73c-2.99,4.35-6.14,8.58-9.39,12.72
			c0.55-2.37,1.15-4.73,1.8-7.08c1.35-4.88-5.51-9.64-9.05-5.27c-1.35,1.67-2.64,3.37-3.9,5.08c0.07-0.89,0.13-1.77,0.2-2.66
			c0.44-5.93-7.23-6.56-10.09-2.73c-0.7,0.94-1.41,1.89-2.11,2.83c-0.51-4.07-6.14-7.06-9.19-3.33c-2.07,2.53-4.23,4.98-6.45,7.36
			c0.61-2.04,1.2-4.08,1.78-6.13c1.39-4.94-5.46-9.53-9.05-5.27c-3.98,4.74-7.96,9.47-11.94,14.21c-3.33,3.97,0.1,9.28,3.92,9.46
			c-0.53,1.56-1.06,3.12-1.62,4.68c-1.99,5.6,5.29,8.34,9.05,5.27c2.28-1.87,4.5-3.79,6.66-5.78c-0.42,1.46-0.85,2.91-1.27,4.37
			c-1.84,6.29,6.43,8.81,9.89,4.17c2.75-3.68,5.5-7.37,8.24-11.05c-0.18,2.39-0.36,4.79-0.53,7.18c-0.36,4.89,6.83,7.26,9.59,3.57
			c-0.11,4.44,6.34,6.59,9.25,3.43c4.4-4.78,8.61-9.72,12.65-14.8c-0.11,2.37-0.22,4.74-0.33,7.1c-0.26,5.45,7.48,7.25,10.09,2.73
			c0.23-0.41,0.48-0.8,0.72-1.21c0.65,4.45,7.05,5.75,10.06,1.75c2.14-2.84,4.23-5.71,6.3-8.6c-0.32,2.45-0.62,4.91-0.88,7.37
			c-0.49,4.46,6.42,7.44,9.24,3.83c2.18-2.8,4.28-5.64,6.29-8.54c0.79,4.13,5.9,5.75,9.13,2.85c1.11-0.99,2.21-1.98,3.32-2.98
			C435.25,106.48,433.38,102.34,430.25,100.88z"/>
		<path class="st4" d="M546.35,177.25c0.08-2.1,0.16-4.2,0.22-6.3c0.16-5.28-7.59-7.49-10.09-2.73c-0.81,1.55-1.63,3.11-2.44,4.66
			c0.19-1.87,0.39-3.74,0.56-5.61c0.48-5.23-7.9-7.55-10.09-2.73c-2.48,5.46-5.14,10.83-7.97,16.1c0.18-3.49,0.35-6.97,0.53-10.46
			c0.28-5.5-7.44-7.18-10.09-2.73c-0.87,1.47-1.75,2.94-2.62,4.4c0.06-0.3,0.12-0.6,0.17-0.91c0.87-4.8-5.19-9.76-9.05-5.27
			c-2.08,2.43-4.04,4.92-5.92,7.47c0.47-1.87,0.95-3.74,1.45-5.6c1.69-6.21-6.45-8.99-9.89-4.17c-2.9,4.07-5.9,8.06-8.94,12.01
			c0.7-2.35,1.4-4.71,2.09-7.06c1.07-3.62-2.75-8.26-6.66-6.66c-4.41,1.82-7.74,4.36-10.02,8.62c-1.73,3.23,0.03,6.27,2.57,7.54
			c-2.01,6.76-4.01,13.52-6.02,20.28c-1.49,5.01,5.44,9.4,9.05,5.27c4.12-4.72,8.12-9.55,12.04-14.43c-0.85,4.99-1.55,10-2.13,15.04
			c-0.74,6.55,8.59,6.62,10.63,1.44c1.37-3.46,2.92-6.83,4.62-10.13c-0.51,2.16-1.03,4.31-1.57,6.46c-1.49,5.91,6.71,9.51,9.89,4.17
			c2.82-4.74,5.64-9.49,8.46-14.23c-0.18,3.57-0.36,7.14-0.54,10.71c-0.29,5.63,7.34,7,10.09,2.73c1.95-3.02,3.82-6.08,5.65-9.17
			c-0.22,1.52-0.43,3.03-0.67,4.55c-0.87,5.58,6.8,10.07,9.89,4.17l4.98-9.51c-0.09,1.31-0.17,2.63-0.27,3.94
			c-0.4,5.45,7.56,7.24,10.09,2.73c3-5.35,5.73-10.81,8.2-16.42C554.64,180.75,550.01,176.5,546.35,177.25z"/>
		<path class="st5" d="M529.3,227.46c-40.9-0.08-81.81,2.4-122.4,7.41c-22.09,2.73-44.61,6.2-66.45,1.87
			c-7.41-1.47-15.03-3.83-22.36-1.98"/>
		<path class="st5" d="M296.5,220.43c3.12-54.73,1.42-109.73-5.08-164.17c-0.63-5.28-0.54-12.01,4.3-14.2
			c1.71-0.77,3.66-0.74,5.54-0.69c84.55,2.18,169.2,0.48,253.59-5.1c3.77-0.25,8.4-0.06,10.18,3.28c0.57,1.08,0.73,2.33,0.87,3.55
			c5.78,50.33,8.82,100.98,9.09,151.64"/>
		<path class="st5" d="M564.53,50.52c-41.71-0.6-83.44-0.13-125.13,1.4c-47.22,1.73-94.39,4.83-141.54,7.93"/>
		<path class="st5" d="M431.97,104.43c-1.15-7.9-3.14-15.69-5.91-23.18c-0.32-0.86-0.7-1.79-1.48-2.27
			c-0.74-0.45-1.66-0.42-2.53-0.36c-28.4,1.73-56.8,3.46-85.2,5.18c-6.14,0.37-12.47,0.8-17.99,3.52c-1.8,0.89-3.55,2.08-4.49,3.86
			c-0.83,1.57-0.93,3.41-0.91,5.18c0.06,6.42,1.48,12.83,4.12,18.68c37.3,2.62,74.83,1.92,112.01-2.08"/>
		<path class="st5" d="M419.61,132.09c-16.17-0.78-32.35,0.76-48.47,2.29c-17.81,1.7-35.63,3.39-53.44,5.09"/>
		<path class="st5" d="M422.41,146.86c-33.02,4.72-66.54,4.04-99.88,3.35"/>
		<path class="st5" d="M317.83,214.14c-1.12-14.63,0.71-29.49,5.35-43.41c36.97-0.4,73.96,0.47,110.87,2.61
			c0.8,0.05,1.7,0.14,2.22,0.76c0.43,0.52,0.46,1.25,0.46,1.92c0.06,13.85-2.15,27.7-6.52,40.85c-30.19,1.72-60.55,0.62-90.54-3.28"
			/>
		<path class="st5" d="M454.77,79.19c31.31-3.74,62.86-5.5,94.4-5.27"/>
		<path class="st5" d="M457.54,93.87c20.38-0.05,40.76-1.18,61.03-3.36c10.16-1.1,20.59-2.44,30.46,0.2"/>
		<path class="st5" d="M460.24,110.57c30.09-0.47,60.19-0.21,90.27,0.76"/>
		<path class="st5" d="M459.32,125.97c28.25,2.1,56.64,2.21,84.91,0.35"/>
		<path class="st5" d="M467.94,143.33c22.26-0.99,44.52-1.97,66.78-2.96"/>
		<path class="st5" d="M459.55,163.59c0.25,10.82,0.5,21.64,0.75,32.46c0.05,2,0.13,4.11,1.21,5.79c1.93,3,6.08,3.38,9.64,3.45
			c21.94,0.41,43.89,0.47,65.84,0.17c1.48-0.02,3-0.05,4.38-0.57c2.43-0.92,4.07-3.23,5.11-5.61c4.67-10.66,0.01-22.84-0.68-34.46
			c-29.12-0.79-58.27-0.5-87.37,0.87"/>
		<g>
			<g>
				<path class="st1" d="M270.07,143.65c-6.85-2.76-6.78-2.44-11.06-3.23c-4.28-0.79-7.18,0.4-8.56,1.65
					c-1.38,1.25-2.37-0.79-5.6,3.55c-3.23,4.34-2.3,6.32-2.63,6.78c-0.33,0.46-0.86-3.36-5-1.25c-4.15,2.11-3.82,5.13-4.21,5.79
					c-0.4,0.66-5.53-1.05-6.78,2.3c-1.25,3.36-2.17,11.06,1.32,14.15c0,0,0.59,0.66-0.33,1.45c-0.92,0.79-4.87,5.53-1.25,8.49
					c3.62,2.96,7.11,3.09,7.11,3.09s0.07,3.09,2.76,2.44s4.87-7.18,4.87-7.37c0-0.2,3.09-1.84,3.62-3.75
					c0.39-1.43,1.08-4.59,1.41-6.09c0.07-0.31,0.46-0.39,0.65-0.14c0.65,0.84,1.88,2.08,3.01,1.5c0.36-0.19,0.66-0.3,0.94-0.38
					c0.99-0.28,1.52,0.05,2.22,0.51c1.91,1.25,5.99-1.78,6.12-4.34c0,0,0.26-2.44,1.84-2.76c1.58-0.33,0.79-3.23,1.12-4.15
					c0.33-0.92,4.15,0.59,6.52,0.07c1.3-0.29,3.24-0.33,4.82-1.15c1.3-0.68,2.35-1.9,2.56-4.25
					C276,151.36,276.92,146.42,270.07,143.65z"/>
				<path class="st1" d="M275.93,167.75c-0.74-0.31-2.02-3.98-2.95-6.94c-1.57,0.82-3.52,0.86-4.82,1.15
					c-2.37,0.53-6.19-0.99-6.52-0.07c-0.33,0.92,0.46,3.82-1.12,4.15c-1.58,0.33-1.84,2.76-1.84,2.76c-0.13,2.57-4.21,5.6-6.12,4.34
					c-0.7-0.46-1.24-0.79-2.22-0.51l-4.16,14.87c0.22,0,0.48,0.13,0.75,0.37c1.9,1.67,4.99,8.55,9.19,13.38
					c4.81,5.53,7.24,5.13,8.1,2.17c0.86-2.96-5.79-13.89-5.79-13.89l0.25-0.67l2.91-7.76c11.72,0.53,12.77-9.74,12.77-9.74
					s1.71-1.38,2.44-1.71C277.51,169.33,277.18,168.27,275.93,167.75z"/>
				<path class="st1" d="M276.02,235.17c-0.44-9.54-1.04-17.39-1.83-18.97c-2.26-4.52-9.11-22.22-13.75-26.21
					c-0.51-0.44-1.12-0.8-1.77-1.11l-0.25,0.67c0,0,6.65,10.93,5.79,13.89c-0.86,2.96-3.29,3.36-8.1-2.17
					c-4.2-4.83-7.29-11.72-9.19-13.38c-1.17,0.41-2.65,0.96-3.76,1.52c-2.16,1.08-7.85,4.32-10.11,14.63
					c-2.26,10.31-14.24,42.81-14.24,42.81s-1.18,3.63,9.03,5.11l5.01,1.08c0,0-4.12,17.38-2.45,19.64c0.08,0.11,0.19,0.21,0.3,0.3
					l30.54-17.85c-1.34-1.17-2.58-2.14-3.55-2.48c-3.04-1.08,0.1-9.13,0.1-9.13c6.59-0.36,12.37,1.98,16.06,4.25l1.46-0.85
					l1.13-0.66C276.32,242.46,276.18,238.7,276.02,235.17z"/>
				<path class="st1" d="M301.74,231.45l-25.19,14.72l-0.11,0.07l-1.12,0.7l-0.02-0.04l-1.46,0.85c1.1,0.68,2.01,1.34,2.7,1.94
					c0.82,0.71,1.34,1.31,1.47,1.67c0.11,0.31,0.01,0.83-0.24,1.48l21.98-12.86c-0.38-1.04,0.96-3.15,1.99-5.12
					C302.63,233.17,302.19,232.05,301.74,231.45z"/>
				<path class="st1" d="M278.02,251.35c-0.13-0.36-0.65-0.96-1.47-1.67c-0.69-0.59-1.6-1.26-2.7-1.94
					c-3.69-2.27-9.47-4.6-16.06-4.25c0,0-3.14,8.05-0.1,9.13c0.97,0.34,2.21,1.32,3.55,2.48c1.65,1.44,3.47,3.16,5.15,4.38
					c1.24,0.91,2.41,1.55,3.38,1.58c2.15,0.06,5.18-3.28,6.92-6.12c0.47-0.77,0.85-1.5,1.09-2.12
					C278.03,252.18,278.13,251.65,278.02,251.35z"/>
				<polygon class="st1" points="276.44,246.23 276.55,246.16 276.44,246.22 				"/>
				<polygon class="st1" points="275.31,246.89 275.33,246.93 276.44,246.23 276.44,246.22 				"/>
				<path class="st1" d="M308.92,232.73c-1.28-1.87-2.39-3.09-3.44-3.47c-0.45-0.17-0.89-0.2-1.34-0.04
					c-1.48,0.53-2.95,1.69-2.95,1.69s0.28,0.18,0.55,0.54c0.45,0.6,0.89,1.73,0.02,3.4c-1.04,1.97-2.37,4.09-1.99,5.12
					c0.14,0.37,0.48,0.6,1.15,0.64c2.53,0.14,4.92,0,5.76-2.11c0.66-1.64,2.75-2.6,2.79-4.21
					C309.48,233.83,309.33,233.33,308.92,232.73z"/>
				<path class="st1" d="M276.69,254.94c-1.74,2.84-4.77,6.19-6.92,6.12c-0.97-0.03-2.14-0.67-3.38-1.58l-21.46,12.56l-4.35,2.54
					c2.71,0.54,5.89,1.5,9.55,3.36c6.12,3.12,10.92,6.34,14.52,8.52c2.99,1.8,5.16,2.89,6.59,2.58c3.14-0.69,5.69-11.88,5.79-12.37
					C277.08,276.47,276.98,266.64,276.69,254.94z"/>
				<path class="st1" d="M261.25,255.1l-30.54,17.85l-14.41,8.42c0,0-0.33,1.46,0.74,3.59c0.65,1.3,2.36,2.03,2.36,2.03l13.17-7.7
					l8.03-4.7l4.35-2.54l21.46-12.56C264.71,258.26,262.9,256.54,261.25,255.1z"/>
				<path class="st1" d="M270.83,415.6c1.69-0.63,5.03-2.25,0.99-4.22c-4.48-2.18-16.85-3.62-20.85-3.9
					c-0.03,0.15-0.06,0.29-0.09,0.42C254.46,409.43,265.55,414.36,270.83,415.6z"/>
				<path class="st1" d="M272.94,415.88c-0.49,0.04-1.22-0.07-2.11-0.28c-5.27-1.24-16.36-6.17-19.95-7.7
					c-0.05,0.21-0.09,0.39-0.13,0.53c-0.07,0.25-0.12,0.4-0.16,0.42c-0.56,0.28-13.07,4.64-13.49,2.11
					c-0.02-0.12-0.05-0.35-0.08-0.67c-3.55,6.98-0.16,10.12,1.63,11.5c1.83,1.41,11.81,0.56,11.81,0.56
					c13.92,4.5,22.91,0.42,24.6-1.69C276.74,418.56,272.94,415.88,272.94,415.88z"/>
				<path class="st1" d="M264.66,286.47c-3.61-2.18-8.4-5.4-14.52-8.52c-3.66-1.86-6.85-2.82-9.55-3.36l-8.03,4.7
					c1.42,6.83,4.93,19.86,5.25,24.15c0.42,5.76,0.98,37.11-1.83,47.23c-2.68,9.63,0.38,53.26,1.04,59.63
					c0.03,0.32,0.06,0.55,0.08,0.67c0.42,2.53,12.93-1.83,13.49-2.11c0.04-0.02,0.09-0.17,0.16-0.42c0.04-0.14,0.08-0.33,0.13-0.53
					c0.03-0.13,0.06-0.26,0.09-0.42c1.17-5.63,4.28-26.8,4.4-27.17c0.14-0.42,9.56-72.39,9.42-78.71
					C264.71,298.09,264.67,291.57,264.66,286.47z"/>
				<g>
					<path class="st1" d="M302.66,229.75l-18.31,3.73c0.62,2.34,1.12,5.04,1.04,7.36l15.68-9.44L302.66,229.75z"/>
					<path class="st1" d="M284.35,233.48l-8.33,1.7c0.16,3.53,0.3,7.29,0.42,11.05l0.11-0.06l8.84-5.32
						C285.48,238.52,284.97,235.82,284.35,233.48z"/>
				</g>
				<g>
					<path class="st1" d="M329.63,214.13l-24.08,15.09l-0.07,0.04c1.06,0.39,2.16,1.6,3.44,3.47c0.41,0.59,0.55,1.1,0.54,1.55
						l24.16-14.14C332.18,218.91,330.64,217,329.63,214.13z"/>
					<path class="st1" d="M339,212.49l-9,1.41l-0.37,0.23c1,2.86,2.55,4.78,3.99,6.02l0.6-0.35L339,212.49z"/>
				</g>
				<path class="st1" d="M219.39,286.99c0,0,0.04-4.78-3.09-5.62"/>
				<path class="st1" d="M257.79,243.49c0,0-17.67-2.73-18.15-8.33c-0.49-5.59,8.51-18.12,9.85-20.79
					c1.34-2.67,3.77-11.06,2.31-13.13"/>
				<path class="st1" d="M256.54,247.93c0,0-1.94,5.24-1.82,7.76c0.03,0.54-0.42,0.99-0.96,0.9l-20.91-3.57"/>
				<path class="st1" d="M258.69,168.8c0,0-0.06,1.81,1.67,2.25"/>
				<path class="st1" d="M245.74,171.66c0,0,0.96-5.82-2.51-8.09c0,0,1.41-2.71,0-4.01"/>
				<path class="st1" d="M242.23,152.41c0,0,1.98,1.94,1.22,3.46"/>
				<circle class="st1" cx="271.1" cy="163.85" r="0.77"/>
				<path class="st1" d="M269.94,175.18c0,0-1.93,1.93-4.38,0.26"/>
				<g>
					<path class="st1" d="M516.39,204.7c0,0-0.02,0.05-0.05,0.14c1.93-0.14,3.76-0.44,5.51-0.87l-9.31-6.87
						C514.27,201.04,516.39,204.7,516.39,204.7z"/>
					<path class="st1" d="M542.53,142.74c-0.12-0.12-0.23-0.22-0.34-0.31C542.37,142.63,542.53,142.74,542.53,142.74z"/>
					<path class="st1" d="M558.06,172.62c0,0,6.61-2.03,12.81-1.46c0.02-0.79,0.08-1.78,0.22-2.85c-3.69,0.25-8.89,1.88-12.02,2.34
						c-4.21,0.63-5.9-0.21-6.22-1.47c-0.32-1.26,5.16-4.21,1.47-7.06c-3.69-2.84-9.8,2.42-12.22-0.42c-2.42-2.84,0-7.9,2.11-9.48
						c2.11-1.58,0-7.8-1.69-9.48c0,0-4.5,10.47-6.76,13.53c-0.32,0.44-0.32,1.04,0.03,1.46l2.2,2.6l0.56,10.01
						c0.05,0.84,0.52,1.6,1.26,2.01c2.6,1.42,8.69,4.88,10.1,6.88C553.45,175.32,558.06,172.62,558.06,172.62z M549.37,163.47
						c0,0,3.5-1.59,3.75,0.83c0.28,2.68-1.85,3.69-1.85,3.69s2.13-1.02,1.85-3.69C552.87,161.89,549.37,163.47,549.37,163.47z"/>
					<path class="st1" d="M544.22,152.22c-2.11,1.58-4.53,6.64-2.11,9.48c2.42,2.84,8.53-2.42,12.22,0.42
						c3.69,2.84-1.79,5.79-1.47,7.06c0.32,1.26,2,2.11,6.22,1.47c3.12-0.47,8.33-2.09,12.02-2.34c0.16-1.2,0.41-2.46,0.84-3.56
						c1.26-3.27,5.27-16.75-4-24.97s-24.34-3.33-25.6-1.37c-1.38,2.15-0.64,3.46-0.13,4.01c0.11,0.09,0.23,0.19,0.34,0.31
						C544.22,144.42,546.32,150.64,544.22,152.22z"/>
					<path class="st1" d="M602.33,217.11c-0.13,1.28,0.34,8.16,0.75,13.65c1.26-0.1,2.3-0.18,2.53-0.18c0.5,0,6.59-1.77,9.95-2.81
						C609.21,224.79,602.33,217.11,602.33,217.11z"/>
					<path class="st1" d="M512.53,197.11l9.31,6.87c4.47-1.09,8.34-3.01,11.63-5.3l-21.2-15.79c-0.29,1.86-1.01,3.89-1.74,5.6
						C509.84,190.13,511.04,193.72,512.53,197.11z"/>
					<path class="st1" d="M512.53,197.11c-1.49-3.39-2.7-6.98-2-8.62c0.72-1.71,1.45-3.74,1.74-5.6c0.31-1.98,0.14-3.77-1.06-4.75
						c-1.65-1.36-7.19-3.62-10.77-4.06c-1.43-0.18-2.56-0.07-2.99,0.51c-1.36,1.85-1.14,8.38,1.13,12.23
						c0.24,0.4,0.49,0.79,0.78,1.12c2.86,3.38,4.85,25.96,7.99,29.8c0.5-4.32,4.48-12.85,4.48-12.85c1.56,0.08,3.06,0.05,4.51-0.06
						c0.03-0.09,0.05-0.14,0.05-0.14S514.27,201.04,512.53,197.11z"/>
					<path class="st1" d="M624.57,218.85c-2.62-5.02-20.72-32.27-25.73-35.55c0,0-18.75-10.25-25.51-11.78
						c-0.8-0.18-1.62-0.3-2.45-0.37c-6.2-0.57-12.81,1.46-12.81,1.46s-4.61,2.7-8.14,6.61c-1.07,1.19-2.05,2.49-2.76,3.86
						c-1.75,3.38-6.23,10.41-13.68,15.59c-3.29,2.29-7.16,4.21-11.63,5.3c-1.74,0.43-3.58,0.72-5.51,0.87
						c-1.45,0.11-2.95,0.14-4.51,0.06c0,0-3.98,8.53-4.48,12.85c-0.12,1.03-0.04,1.82,0.34,2.2c1.96,1.96,20.72,2.62,30.97-1.31
						c0,0,1.31,60.62,3.49,64.55c2.18,3.93,2.83,9.6,5.45,7.63c1.1-0.83,2.94-3.19,5.36-5.37c3.33-3,7.78-5.63,12.96-3.35
						c8.01,3.52,28.81,7.38,41.05,2.65c1.41-0.55,2.72-1.2,3.87-1.99c0,0,1.31-27.91-7.2-44.92c0,0-0.26-3.19-0.55-7.07
						c-0.41-5.49-0.88-12.37-0.75-13.65c0,0,6.89,7.68,13.23,10.66c1.8,0.84,3.55,1.31,5.09,1.12
						C620.64,228.89,627.19,223.87,624.57,218.85z"/>
					<path class="st1" d="M579.92,418.52c-1.94,0.44-24.9,5.64-25.66,7.43c-0.8,1.87,6.67,4.89,12.63,6.41
						c5.96,1.51,17.97,4.8,23.13,1.07c2.24-1.62,2.97-4.1,3.08-6.38c-4.58,0.6-11.32,0.6-11.32,0.6S581.06,424.13,579.92,418.52z"/>
					<path class="st1" d="M597.73,425.88c-0.27,3.48,2.7,6.92,2.7,6.92s7.21-0.44,8.72-2.67c0.78-1.14,0.71-3.01,0.46-4.56
						C606.66,426.48,600.81,425.29,597.73,425.88z"/>
					<path class="st1" d="M606.96,284.74c-12.24,4.73-33.04,0.87-41.05-2.65c-5.18-2.27-9.62,0.36-12.96,3.35
						c2.93,15.91,8.64,46.65,10.53,54.4c2.03,8.33,12.2,57.93,16.44,78.67c1.15,5.61,1.86,9.12,1.86,9.12s6.74,0,11.32-0.6
						c1.54-0.2,2.83-0.47,3.55-0.83c0.3-0.15,0.67-0.25,1.08-0.33c3.09-0.58,8.93,0.6,11.88-0.31c0.41-0.13,0.77-0.29,1.05-0.51
						c2.57-2,3.15-22.3,4-28.31C615.36,391.88,609.28,313.95,606.96,284.74z"/>
					<path class="st1" d="M545.54,186.25c0,0,24.94-14.1,30.66-13.49"/>
					<path class="st1" d="M538.65,218.64c0,0,7.3-1.11,12.61-8.26"/>
					<path class="st1" d="M602.33,217.11c0,0,0.45-10.82-0.37-11.85"/>
					<path class="st1" d="M590.71,292.96c0,0,0.2,30.46,1.64,36.79c1.43,6.34,5.39,94.88,4.3,96.46"/>
					<g>
						<path class="st1" d="M450.46,136.86l-17.3-5.58l11.17,15.53l0.53,0.39c1.66-4.17,4.15-7.89,5.84-10.16L450.46,136.86z"/>
						<path class="st1" d="M500.44,174.08l-49.74-37.04c-1.69,2.26-4.18,5.98-5.84,10.16l53.73,39.62
							c-2.27-3.85-2.49-10.38-1.13-12.23C497.88,174.01,499.01,173.9,500.44,174.08z"/>
					</g>
				</g>
			</g>
			<g>
				<path class="st6" d="M267.61,143.89c-6.85-2.76-6.78-2.44-11.06-3.23c-4.28-0.79-7.18,0.4-8.56,1.65
					c-1.38,1.25-2.37-0.79-5.6,3.55c-3.23,4.34-2.3,6.32-2.63,6.78c-0.33,0.46-0.86-3.36-5-1.25c-4.15,2.11-3.82,5.13-4.21,5.79
					c-0.4,0.66-5.53-1.05-6.78,2.3c-1.25,3.36-2.17,11.06,1.32,14.15c0,0,0.59,0.66-0.33,1.45c-0.92,0.79-4.87,5.53-1.25,8.49
					c3.62,2.96,7.11,3.09,7.11,3.09s0.07,3.09,2.76,2.44s4.87-7.18,4.87-7.37c0-0.2,3.09-1.84,3.62-3.75
					c0.39-1.43,1.08-4.59,1.41-6.09c0.07-0.31,0.46-0.39,0.65-0.14c0.65,0.84,1.88,2.08,3.01,1.5c0.36-0.19,0.66-0.3,0.94-0.38
					c0.99-0.28,1.52,0.05,2.22,0.51c1.91,1.25,5.99-1.78,6.12-4.34c0,0,0.26-2.44,1.84-2.76c1.58-0.33,0.79-3.23,1.12-4.15
					c0.33-0.92,4.15,0.59,6.52,0.07c1.3-0.29,3.24-0.33,4.82-1.15c1.3-0.68,2.35-1.9,2.56-4.25
					C273.54,151.6,274.46,146.66,267.61,143.89z"/>
				<path class="st7" d="M273.47,167.99c-0.74-0.31-2.02-3.98-2.95-6.94c-1.57,0.82-3.52,0.86-4.82,1.15
					c-2.37,0.53-6.19-0.99-6.52-0.07c-0.33,0.92,0.46,3.82-1.12,4.15c-1.58,0.33-1.84,2.76-1.84,2.76c-0.13,2.57-4.21,5.6-6.12,4.34
					c-0.7-0.46-1.24-0.79-2.22-0.51l-4.16,14.87c0.22,0,0.48,0.13,0.75,0.37c1.9,1.67,4.99,8.55,9.19,13.38
					c4.81,5.53,7.24,5.13,8.1,2.17c0.86-2.96-5.79-13.89-5.79-13.89l0.25-0.67l2.91-7.76c11.72,0.53,12.77-9.74,12.77-9.74
					s1.71-1.38,2.44-1.71C275.05,169.57,274.72,168.52,273.47,167.99z"/>
				<path class="st4" d="M273.56,235.41c-0.44-9.54-1.04-17.39-1.83-18.97c-2.26-4.52-9.11-22.22-13.75-26.21
					c-0.51-0.44-1.12-0.8-1.77-1.11l-0.25,0.67c0,0,6.65,10.93,5.79,13.89c-0.86,2.96-3.29,3.36-8.1-2.17
					c-4.2-4.83-7.29-11.72-9.19-13.38c-1.17,0.41-2.65,0.96-3.76,1.52c-2.16,1.08-7.85,4.32-10.11,14.63
					c-2.26,10.31-14.24,42.81-14.24,42.81s-1.18,3.63,9.03,5.11l5.01,1.08c0,0-4.12,17.38-2.45,19.64c0.08,0.11,0.19,0.21,0.3,0.3
					l30.54-17.85c-1.34-1.17-2.58-2.14-3.55-2.48c-3.04-1.08,0.1-9.13,0.1-9.13c6.59-0.36,13.18,1.11,16.87,3.38l0.65,0.01
					l1.13-0.66C273.86,242.7,273.72,238.94,273.56,235.41z"/>
				<path class="st7" d="M275.56,251.59c-0.13-0.36-0.65-0.96-1.47-1.67c-0.69-0.59-1.6-1.26-2.7-1.94
					c-3.69-2.27-9.47-4.6-16.06-4.25c0,0-3.14,8.05-0.1,9.13c0.97,0.34,2.21,1.32,3.55,2.48c1.65,1.44,3.47,3.16,5.15,4.38
					c1.24,0.91,2.41,1.55,3.38,1.58c2.15,0.06,5.18-3.28,6.92-6.12c0.47-0.77,0.85-1.5,1.09-2.12
					C275.57,252.42,275.67,251.89,275.56,251.59z"/>
				<path class="st7" d="M306.77,233.13c-1.28-1.87-2.39-3.09-3.44-3.47c-0.45-0.17-0.89-0.2-1.34-0.04
					c-1.48,0.53-2.95,1.69-2.95,1.69s0.28,0.18,0.55,0.54c0.45,0.6,0.89,1.73,0.02,3.4c-1.04,1.97-2.37,4.09-1.99,5.12
					c0.14,0.37,0.48,0.6,1.15,0.64c2.53,0.14,4.92,0,5.76-2.11c0.66-1.64,2.75-2.6,2.79-4.21
					C307.33,234.23,307.18,233.72,306.77,233.13z"/>
				<path class="st4" d="M274.42,258.16c-1.74,2.84-4.96,3.21-7.1,3.14c-0.97-0.03-1.07-0.18-2.31-1.09l-21.47,12.69l-4.54,2.35
					c2.71,0.54,5.02,1.08,8.68,2.94c6.12,3.12,10.92,6.34,14.52,8.52c2.99,1.8,5.16,2.89,6.59,2.58c3.14-0.69,5.69-11.88,5.79-12.37
					C274.62,276.71,274.71,269.86,274.42,258.16z"/>
				<path class="st2" d="M258.79,254.35l-30.54,17.85l-14.41,8.42c0,0-0.33,1.46,0.74,3.59c0.65,1.3,2.36,2.03,2.36,2.03l13.17-7.7
					l8.03-4.7l4.35-2.54l21.46-12.56C262.25,257.5,260.44,255.78,258.79,254.35z"/>
				<path class="st4" d="M268.37,415.85c1.69-0.63,5.03-2.25,0.99-4.22c-4.48-2.18-16.85-3.62-20.85-3.9
					c-0.03,0.15-0.06,0.29-0.09,0.42C252,409.67,263.09,414.6,268.37,415.85z"/>
				<path class="st4" d="M270.48,416.13c-0.49,0.04-1.22-0.07-2.11-0.28c-5.27-1.24-16.36-6.17-19.95-7.7
					c-0.05,0.21-0.09,0.39-0.13,0.53c-0.07,0.25-0.12,0.4-0.16,0.42c-0.56,0.28-13.07,4.64-13.49,2.11
					c-0.02-0.12-0.05-0.35-0.08-0.67c-3.55,6.98-0.16,10.12,1.63,11.5c1.83,1.41,11.81,0.56,11.81,0.56
					c13.92,4.5,22.91,0.42,24.6-1.69C274.28,418.8,270.48,416.13,270.48,416.13z"/>
				<path class="st8" d="M262.2,286.71c-3.61-2.18-8.4-5.4-14.52-8.52c-3.66-1.86-5.34-2.77-8.05-3.31l-8.84,5.68
					c1.42,6.83,4.23,18.82,4.55,23.11c0.42,5.76,0.98,37.11-1.83,47.23c-2.68,9.63,0.38,53.26,1.04,59.63
					c0.03,0.32,0.06,0.55,0.08,0.67c0.42,2.53,12.93-1.83,13.49-2.11c0.04-0.02,0.09-0.17,0.16-0.42c0.04-0.14,0.08-0.33,0.13-0.53
					c0.03-0.13,0.06-0.26,0.09-0.42c1.17-5.63,4.28-26.8,4.4-27.17c0.14-0.42,9.56-72.39,9.42-78.71
					C262.25,298.33,262.21,291.81,262.2,286.71z"/>
				<g>
					<path class="st7" d="M299.74,231.97l-18.31,3.73c0.62,2.34,1.12,5.04,1.04,7.36l15.68-9.44L299.74,231.97z"/>
					<path class="st4" d="M281.43,235.7l-8.33,1.7c0.16,3.53,0.3,7.29,0.42,11.05l0.11-0.06l8.84-5.32
						C282.55,240.74,282.04,238.04,281.43,235.7z"/>
				</g>
				<g>
					<path class="st2" d="M327.17,214.37l-24.08,15.09l-0.07,0.04c1.06,0.39,2.16,1.6,3.44,3.47c0.41,0.59,0.55,1.1,0.54,0.55
						l24.16-14.14C329.72,219.15,328.18,217.24,327.17,214.37z"/>
					<path class="st2" d="M336.54,212.73l-9,1.41l-0.37,0.23c1,2.86,2.55,4.78,3.99,6.02l0.6-0.35L336.54,212.73z"/>
				</g>
				<path class="st2" d="M299.28,230.68l-27.36,16.28c1.1,0.68,1.86,0.66,2.55,1.25c0.82,0.71,1.49,0.94,1.61,1.3
					c0.11,0.31,1.6,0.81,1.35,1.46l19.87-11.77c-0.38-1.04,0.96-3.15,1.99-5.12C300.17,232.41,299.73,231.29,299.28,230.68z"/>
			</g>
			<g>
				<path class="st9" d="M519.3,204.23c0,0-0.02,0.05-0.05,0.14c1.93-0.14,3.76-0.44,5.51-0.87l-9.31-6.87
					C517.18,200.58,519.3,204.23,519.3,204.23z"/>
				<path class="st5" d="M545.45,142.27c-0.12-0.12-0.23-0.22-0.34-0.31C545.29,142.17,545.45,142.27,545.45,142.27z"/>
				<path class="st10" d="M572.54,168c-3.51,0.49-7.82,1.78-10.55,2.19c-4.21,0.63-5.9-0.21-6.22-1.47
					c-0.32-1.26,5.16-4.21,1.47-7.06c-3.69-2.84-9.8,2.42-12.22-0.42c-2.42-2.84,0-7.9,2.11-9.48c2.11-1.58,0-7.8-1.69-9.48
					c0,0-4.5,10.47-6.76,13.53c-0.32,0.44-0.32,1.04,0.03,1.46l2.2,2.6l0.56,10.01c0.05,0.84,0.52,1.6,1.26,2.01
					c2.6,1.42,7.31,3.75,8.72,5.75c4.36-4.86,9.52-5.48,9.52-5.48s5.75-1.76,11.55-1.54C572.52,169.74,572.53,168.87,572.54,168z"/>
				<path class="st1" d="M545.61,152.26c-2.11,1.58-4.53,6.64-2.11,9.48c2.42,2.84,8.53-2.42,12.22,0.42
					c3.69,2.84-1.79,5.79-1.47,7.06s2,2.11,6.22,1.47c3.12-0.47,8.33-2.09,12.02-2.34c0.16-1.2,0.41-2.46,0.84-3.56
					c1.26-3.27,5.27-16.75-4-24.97c-9.27-8.22-24.34-3.33-25.6-1.37c-1.38,2.15-0.64,3.46-0.13,4.01c0.11,0.09,0.23,0.19,0.34,0.31
					C545.61,144.46,547.72,150.68,545.61,152.26z"/>
				<path class="st10" d="M605.24,216.65c-0.13,1.28,0.34,8.16,0.75,13.65c1.26-0.1,2.3-0.18,2.53-0.18c0.5,0,6.59-1.77,9.95-2.81
					C612.13,224.32,605.24,216.65,605.24,216.65z"/>
				<path class="st3" d="M515.45,196.64l9.31,6.87c4.47-1.09,8.34-3.01,11.63-5.3l-21.2-15.79c-0.29,1.86-1.01,3.89-1.74,5.6
					C512.75,189.66,513.96,193.25,515.45,196.64z"/>
				<path class="st10" d="M515.28,196.81c-1.49-3.39-2.7-6.98-2-8.62c0.72-1.71,1.45-3.74,1.74-5.6c0.31-1.98,0.14-3.77-1.06-4.75
					c-1.65-1.36-7.19-3.62-10.77-4.06c-1.43-0.18-2.56-0.07-2.99,0.51c-1.36,1.85-1.14,8.38,1.13,12.23
					c0.24,0.4,0.49,0.79,0.78,1.12c2.86,3.38,4.85,25.96,7.99,29.8c0.5-4.32,4.48-12.85,4.48-12.85c1.56,0.08,3.06,0.05,4.51-0.06
					c0.03-0.09,0.05-0.14,0.05-0.14S517.02,200.74,515.28,196.81z"/>
				<path class="st8" d="M627.49,218.39c-2.62-5.02-20.72-32.27-25.73-35.55c0,0-18.75-10.25-25.51-11.78
					c-0.8-0.18-1.62-0.3-2.45-0.37c-6.2-0.57-12.81,1.46-12.81,1.46s-4.61,2.7-8.14,6.61c-1.07,1.19-2.05,2.49-2.76,3.86
					c-1.75,3.38-6.23,10.41-13.68,15.59c-3.29,2.29-7.16,4.21-11.63,5.3c-1.74,0.43-3.58,0.72-5.51,0.87
					c-1.45,0.11-2.95,0.14-4.51,0.06c0,0-3.98,8.53-4.48,12.85c-0.12,1.03-0.04,1.82,0.34,2.2c1.96,1.96,20.72,2.62,30.97-1.31
					c0,0,1.31,60.62,3.49,64.55c2.18,3.93,2.83,9.6,5.45,7.63c1.1-0.83,2.94-3.19,5.36-5.37c3.33-3,7.78-5.63,12.96-3.35
					c8.01,3.52,28.81,7.38,41.05,2.65c1.41-0.55,2.72-1.2,3.87-1.99c0,0,1.31-27.91-7.2-44.92c0,0-0.26-3.19-0.55-7.07
					c-0.41-5.49-0.88-12.37-0.75-13.65c0,0,6.89,7.68,13.23,10.66c1.8,0.84,3.55,1.31,5.09,1.12
					C623.56,228.42,630.1,223.41,627.49,218.39z"/>
				<path class="st2" d="M608.59,283.76c-12.24,4.73-33.04,0.87-41.05-2.65c-5.18-2.27-9.62,0.36-12.96,3.35
					c2.93,15.91,8.64,46.65,10.53,54.4c2.03,8.33,12.2,57.93,16.44,78.67c1.15,5.61,1.86,9.12,1.86,9.12s6.74,0,11.32-0.6
					c1.54-0.2,2.83-0.47,3.55-0.83c0.3-0.15,0.67-0.25,1.08-0.33c3.09-0.58,8.93,0.6,11.88-0.31c0.41-0.13,0.77-0.29,1.05-0.51
					c2.57-2,3.15-22.3,4-28.31C616.99,390.9,610.91,312.98,608.59,283.76z"/>
				<g>
					<path class="st3" d="M452.04,135.56l-17.3-5.58l11.17,15.53l0.53,0.39c1.66-4.17,4.15-7.89,5.84-10.16L452.04,135.56z"/>
					<path class="st3" d="M502.02,172.78l-49.74-37.04c-1.69,2.26-4.18,5.98-5.84,10.16l53.73,39.62
						c-2.27-3.85-2.49-10.38-1.13-12.23C499.46,172.71,500.59,172.6,502.02,172.78z"/>
				</g>
			</g>
			<g>
				<path class="st5" d="M270.07,143.65c-6.85-2.76-6.78-2.44-11.06-3.23c-4.28-0.79-7.18,0.4-8.56,1.65
					c-1.38,1.25-2.37-0.79-5.6,3.55c-3.23,4.34-2.3,6.32-2.63,6.78c-0.33,0.46-0.86-3.36-5-1.25c-4.15,2.11-3.82,5.13-4.21,5.79
					c-0.4,0.66-5.53-1.05-6.78,2.3c-1.25,3.36-2.17,11.06,1.32,14.15c0,0,0.59,0.66-0.33,1.45c-0.92,0.79-4.87,5.53-1.25,8.49
					c3.62,2.96,7.11,3.09,7.11,3.09s0.07,3.09,2.76,2.44s4.87-7.18,4.87-7.37c0-0.2,3.09-1.84,3.62-3.75
					c0.39-1.43,1.08-4.59,1.41-6.09c0.07-0.31,0.46-0.39,0.65-0.14c0.65,0.84,1.88,2.08,3.01,1.5c0.36-0.19,0.66-0.3,0.94-0.38
					c0.99-0.28,1.52,0.05,2.22,0.51c1.91,1.25,5.99-1.78,6.12-4.34c0,0,0.26-2.44,1.84-2.76c1.58-0.33,0.79-3.23,1.12-4.15
					c0.33-0.92,4.15,0.59,6.52,0.07c1.3-0.29,3.24-0.33,4.82-1.15c1.3-0.68,2.35-1.9,2.56-4.25
					C276,151.36,276.92,146.42,270.07,143.65z"/>
				<path class="st5" d="M275.93,167.75c-0.74-0.31-2.02-3.98-2.95-6.94c-1.57,0.82-3.52,0.86-4.82,1.15
					c-2.37,0.53-6.19-0.99-6.52-0.07c-0.33,0.92,0.46,3.82-1.12,4.15c-1.58,0.33-1.84,2.76-1.84,2.76c-0.13,2.57-4.21,5.6-6.12,4.34
					c-0.7-0.46-1.24-0.79-2.22-0.51l-4.16,14.87c0.22,0,0.48,0.13,0.75,0.37c1.9,1.67,4.99,8.55,9.19,13.38
					c4.81,5.53,7.24,5.13,8.1,2.17c0.86-2.96-5.79-13.89-5.79-13.89l0.25-0.67l2.91-7.76c11.72,0.53,12.77-9.74,12.77-9.74
					s1.71-1.38,2.44-1.71C277.51,169.33,277.18,168.27,275.93,167.75z"/>
				<path class="st5" d="M276.02,235.17c-0.44-9.54-1.04-17.39-1.83-18.97c-2.26-4.52-9.11-22.22-13.75-26.21
					c-0.51-0.44-1.12-0.8-1.77-1.11l-0.25,0.67c0,0,6.65,10.93,5.79,13.89c-0.86,2.96-3.29,3.36-8.1-2.17
					c-4.2-4.83-7.29-11.72-9.19-13.38c-1.17,0.41-2.65,0.96-3.76,1.52c-2.16,1.08-7.85,4.32-10.11,14.63
					c-2.26,10.31-14.24,42.81-14.24,42.81s-1.18,3.63,9.03,5.11l5.01,1.08c0,0-4.12,17.38-2.45,19.64c0.08,0.11,0.19,0.21,0.3,0.3
					l30.54-17.85c-1.34-1.17-2.58-2.14-3.55-2.48c-3.04-1.08,0.1-9.13,0.1-9.13c6.59-0.36,12.37,1.98,16.06,4.25l1.46-0.85
					l1.13-0.66C276.32,242.46,276.18,238.7,276.02,235.17z"/>
				<path class="st5" d="M301.74,231.45l-25.19,14.72l-0.11,0.07l-1.12,0.7l-0.02-0.04l-1.46,0.85c1.1,0.68,2.01,1.34,2.7,1.94
					c0.82,0.71,1.34,1.31,1.47,1.67c0.11,0.31,0.01,0.83-0.24,1.48l21.98-12.86c-0.38-1.04,0.96-3.15,1.99-5.12
					C302.63,233.17,302.19,232.05,301.74,231.45z"/>
				<path class="st5" d="M278.02,251.35c-0.13-0.36-0.65-0.96-1.47-1.67c-0.69-0.59-1.6-1.26-2.7-1.94
					c-3.69-2.27-9.47-4.6-16.06-4.25c0,0-3.14,8.05-0.1,9.13c0.97,0.34,2.21,1.32,3.55,2.48c1.65,1.44,3.47,3.16,5.15,4.38
					c1.24,0.91,2.41,1.55,3.38,1.58c2.15,0.06,5.18-3.28,6.92-6.12c0.47-0.77,0.85-1.5,1.09-2.12
					C278.03,252.18,278.13,251.65,278.02,251.35z"/>
				<polygon class="st5" points="276.44,246.23 276.55,246.16 276.44,246.22 				"/>
				<polygon class="st5" points="275.31,246.89 275.33,246.93 276.44,246.23 276.44,246.22 				"/>
				<path class="st5" d="M308.92,232.73c-1.28-1.87-2.39-3.09-3.44-3.47c-0.45-0.17-0.89-0.2-1.34-0.04
					c-1.48,0.53-2.95,1.69-2.95,1.69s0.28,0.18,0.55,0.54c0.45,0.6,0.89,1.73,0.02,3.4c-1.04,1.97-2.37,4.09-1.99,5.12
					c0.14,0.37,0.48,0.6,1.15,0.64c2.53,0.14,4.92,0,5.76-2.11c0.66-1.64,2.75-2.6,2.79-4.21
					C309.48,233.83,309.33,233.33,308.92,232.73z"/>
				<path class="st5" d="M276.69,254.94c-1.74,2.84-4.77,6.19-6.92,6.12c-0.97-0.03-2.14-0.67-3.38-1.58l-21.46,12.56l-4.35,2.54
					c2.71,0.54,5.89,1.5,9.55,3.36c6.12,3.12,10.92,6.34,14.52,8.52c2.99,1.8,5.16,2.89,6.59,2.58c3.14-0.69,5.69-11.88,5.79-12.37
					C277.08,276.47,276.98,266.64,276.69,254.94z"/>
				<path class="st5" d="M261.25,255.1l-30.54,17.85l-14.41,8.42c0,0-0.33,1.46,0.74,3.59c0.65,1.3,2.36,2.03,2.36,2.03l13.17-7.7
					l8.03-4.7l4.35-2.54l21.46-12.56C264.71,258.26,262.9,256.54,261.25,255.1z"/>
				<path class="st5" d="M270.83,415.6c1.69-0.63,5.03-2.25,0.99-4.22c-4.48-2.18-16.85-3.62-20.85-3.9
					c-0.03,0.15-0.06,0.29-0.09,0.42C254.46,409.43,265.55,414.36,270.83,415.6z"/>
				<path class="st5" d="M272.94,415.88c-0.49,0.04-1.22-0.07-2.11-0.28c-5.27-1.24-16.36-6.17-19.95-7.7
					c-0.05,0.21-0.09,0.39-0.13,0.53c-0.07,0.25-0.12,0.4-0.16,0.42c-0.56,0.28-13.07,4.64-13.49,2.11
					c-0.02-0.12-0.05-0.35-0.08-0.67c-3.55,6.98-0.16,10.12,1.63,11.5c1.83,1.41,11.81,0.56,11.81,0.56
					c13.92,4.5,22.91,0.42,24.6-1.69C276.74,418.56,272.94,415.88,272.94,415.88z"/>
				<path class="st5" d="M264.66,286.47c-3.61-2.18-8.4-5.4-14.52-8.52c-3.66-1.86-6.85-2.82-9.55-3.36l-8.03,4.7
					c1.42,6.83,4.93,19.86,5.25,24.15c0.42,5.76,0.98,37.11-1.83,47.23c-2.68,9.63,0.38,53.26,1.04,59.63
					c0.03,0.32,0.06,0.55,0.08,0.67c0.42,2.53,12.93-1.83,13.49-2.11c0.04-0.02,0.09-0.17,0.16-0.42c0.04-0.14,0.08-0.33,0.13-0.53
					c0.03-0.13,0.06-0.26,0.09-0.42c1.17-5.63,4.28-26.8,4.4-27.17c0.14-0.42,9.56-72.39,9.42-78.71
					C264.71,298.09,264.67,291.57,264.66,286.47z"/>
				<g>
					<path class="st5" d="M302.66,229.75l-18.31,3.73c0.62,2.34,1.12,5.04,1.04,7.36l15.68-9.44L302.66,229.75z"/>
					<path class="st5" d="M284.35,233.48l-8.33,1.7c0.16,3.53,0.3,7.29,0.42,11.05l0.11-0.06l8.84-5.32
						C285.48,238.52,284.97,235.82,284.35,233.48z"/>
				</g>
				<g>
					<path class="st5" d="M329.63,214.13l-24.08,15.09l-0.07,0.04c1.06,0.39,2.16,1.6,3.44,3.47c0.41,0.59,0.55,1.1,0.54,1.55
						l24.16-14.14C332.18,218.91,330.64,217,329.63,214.13z"/>
					<path class="st5" d="M339,212.49l-9,1.41l-0.37,0.23c1,2.86,2.55,4.78,3.99,6.02l0.6-0.35L339,212.49z"/>
				</g>
				<path class="st5" d="M219.39,286.99c0,0,0.04-4.78-3.09-5.62"/>
				<path class="st5" d="M257.79,243.49c0,0-17.67-2.73-18.15-8.33c-0.49-5.59,8.51-18.12,9.85-20.79
					c1.34-2.67,3.77-11.06,2.31-13.13"/>
				<path class="st5" d="M256.54,247.93c0,0-1.94,5.24-1.82,7.76c0.03,0.54-0.42,0.99-0.96,0.9l-20.91-3.57"/>
				<path class="st5" d="M258.69,168.8c0,0-0.06,1.81,1.67,2.25"/>
				<path class="st5" d="M245.74,171.66c0,0,0.96-5.82-2.51-8.09c0,0,1.41-2.71,0-4.01"/>
				<path class="st5" d="M242.23,152.41c0,0,1.98,1.94,1.22,3.46"/>
				<circle class="st11" cx="271.1" cy="163.85" r="0.77"/>
				<path class="st5" d="M269.94,175.18c0,0-1.93,1.93-4.38,0.26"/>
				<g>
					<path class="st9" d="M516.39,204.7c0,0-0.02,0.05-0.05,0.14c1.93-0.14,3.76-0.44,5.51-0.87l-9.31-6.87
						C514.27,201.04,516.39,204.7,516.39,204.7z"/>
					<path class="st5" d="M542.53,142.74c-0.12-0.12-0.23-0.22-0.34-0.31C542.37,142.63,542.53,142.74,542.53,142.74z"/>
					<path class="st5" d="M558.06,172.62c0,0,6.61-2.03,12.81-1.46c0.02-0.79,0.08-1.78,0.22-2.85c-3.69,0.25-8.89,1.88-12.02,2.34
						c-4.21,0.63-5.9-0.21-6.22-1.47c-0.32-1.26,5.16-4.21,1.47-7.06c-3.69-2.84-9.8,2.42-12.22-0.42c-2.42-2.84,0-7.9,2.11-9.48
						c2.11-1.58,0-7.8-1.69-9.48c0,0-4.5,10.47-6.76,13.53c-0.32,0.44-0.32,1.04,0.03,1.46l2.2,2.6l0.56,10.01
						c0.05,0.84,0.52,1.6,1.26,2.01c2.6,1.42,8.69,4.88,10.1,6.88C553.45,175.32,558.06,172.62,558.06,172.62z M549.37,163.47
						c0,0,3.5-1.59,3.75,0.83c0.28,2.68-1.85,3.69-1.85,3.69s2.13-1.02,1.85-3.69C552.87,161.89,549.37,163.47,549.37,163.47z"/>
					<path class="st12" d="M544.22,152.22c-2.11,1.58-4.53,6.64-2.11,9.48c2.42,2.84,8.53-2.42,12.22,0.42
						c3.69,2.84-1.79,5.79-1.47,7.06c0.32,1.26,2,2.11,6.22,1.47c3.12-0.47,8.33-2.09,12.02-2.34c0.16-1.2,0.41-2.46,0.84-3.56
						c1.26-3.27,5.27-16.75-4-24.97s-24.34-3.33-25.6-1.37c-1.38,2.15-0.64,3.46-0.13,4.01c0.11,0.09,0.23,0.19,0.34,0.31
						C544.22,144.42,546.32,150.64,544.22,152.22z"/>
					<path class="st5" d="M602.33,217.11c-0.13,1.28,0.34,8.16,0.75,13.65c1.26-0.1,2.3-0.18,2.53-0.18c0.5,0,6.59-1.77,9.95-2.81
						C609.21,224.79,602.33,217.11,602.33,217.11z"/>
					<path class="st5" d="M512.53,197.11l9.31,6.87c4.47-1.09,8.34-3.01,11.63-5.3l-21.2-15.79c-0.29,1.86-1.01,3.89-1.74,5.6
						C509.84,190.13,511.04,193.72,512.53,197.11z"/>
					<path class="st5" d="M512.53,197.11c-1.49-3.39-2.7-6.98-2-8.62c0.72-1.71,1.45-3.74,1.74-5.6c0.31-1.98,0.14-3.77-1.06-4.75
						c-1.65-1.36-7.19-3.62-10.77-4.06c-1.43-0.18-2.56-0.07-2.99,0.51c-1.36,1.85-1.14,8.38,1.13,12.23
						c0.24,0.4,0.49,0.79,0.78,1.12c2.86,3.38,4.85,25.96,7.99,29.8c0.5-4.32,4.48-12.85,4.48-12.85c1.56,0.08,3.06,0.05,4.51-0.06
						c0.03-0.09,0.05-0.14,0.05-0.14S514.27,201.04,512.53,197.11z"/>
					<path class="st5" d="M624.57,218.85c-2.62-5.02-20.72-32.27-25.73-35.55c0,0-18.75-10.25-25.51-11.78
						c-0.8-0.18-1.62-0.3-2.45-0.37c-6.2-0.57-12.81,1.46-12.81,1.46s-4.61,2.7-8.14,6.61c-1.07,1.19-2.05,2.49-2.76,3.86
						c-1.75,3.38-6.23,10.41-13.68,15.59c-3.29,2.29-7.16,4.21-11.63,5.3c-1.74,0.43-3.58,0.72-5.51,0.87
						c-1.45,0.11-2.95,0.14-4.51,0.06c0,0-3.98,8.53-4.48,12.85c-0.12,1.03-0.04,1.82,0.34,2.2c1.96,1.96,20.72,2.62,30.97-1.31
						c0,0,1.31,60.62,3.49,64.55c2.18,3.93,2.83,9.6,5.45,7.63c1.1-0.83,2.94-3.19,5.36-5.37c3.33-3,7.78-5.63,12.96-3.35
						c8.01,3.52,28.81,7.38,41.05,2.65c1.41-0.55,2.72-1.2,3.87-1.99c0,0,1.31-27.91-7.2-44.92c0,0-0.26-3.19-0.55-7.07
						c-0.41-5.49-0.88-12.37-0.75-13.65c0,0,6.89,7.68,13.23,10.66c1.8,0.84,3.55,1.31,5.09,1.12
						C620.64,228.89,627.19,223.87,624.57,218.85z"/>
					<path class="st11" d="M579.92,418.52c-1.94,0.44-24.9,5.64-25.66,7.43c-0.8,1.87,6.67,4.89,12.63,6.41
						c5.96,1.51,17.97,4.8,23.13,1.07c2.24-1.62,2.97-4.1,3.08-6.38c-4.58,0.6-11.32,0.6-11.32,0.6S581.06,424.13,579.92,418.52z"/>
					<path class="st11" d="M597.73,425.88c-0.27,3.48,2.7,6.92,2.7,6.92s7.21-0.44,8.72-2.67c0.78-1.14,0.71-3.01,0.46-4.56
						C606.66,426.48,600.81,425.29,597.73,425.88z"/>
					<path class="st5" d="M606.96,284.74c-12.24,4.73-33.04,0.87-41.05-2.65c-5.18-2.27-9.62,0.36-12.96,3.35
						c2.93,15.91,8.64,46.65,10.53,54.4c2.03,8.33,12.2,57.93,16.44,78.67c1.15,5.61,1.86,9.12,1.86,9.12s6.74,0,11.32-0.6
						c1.54-0.2,2.83-0.47,3.55-0.83c0.3-0.15,0.67-0.25,1.08-0.33c3.09-0.58,8.93,0.6,11.88-0.31c0.41-0.13,0.77-0.29,1.05-0.51
						c2.57-2,3.15-22.3,4-28.31C615.36,391.88,609.28,313.95,606.96,284.74z"/>
					<path class="st5" d="M545.54,186.25c0,0,24.94-14.1,30.66-13.49"/>
					<path class="st5" d="M538.65,218.64c0,0,7.3-1.11,12.61-8.26"/>
					<path class="st5" d="M602.33,217.11c0,0,0.45-10.82-0.37-11.85"/>
					<path class="st5" d="M590.71,292.96c0,0,0.2,30.46,1.64,36.79c1.43,6.34,5.39,94.88,4.3,96.46"/>
					<g>
						<path class="st5" d="M450.46,136.86l-17.3-5.58l11.17,15.53l0.53,0.39c1.66-4.17,4.15-7.89,5.84-10.16L450.46,136.86z"/>
						<path class="st5" d="M500.44,174.08l-49.74-37.04c-1.69,2.26-4.18,5.98-5.84,10.16l53.73,39.62
							c-2.27-3.85-2.49-10.38-1.13-12.23C497.88,174.01,499.01,173.9,500.44,174.08z"/>
					</g>
				</g>
			</g>
		</g>
		<path class="st0" d="M315.29,49.65c-0.01-0.07-0.02-0.13-0.04-0.2c-0.08-0.29-0.21-0.57-0.34-0.84c-0.13-0.26-0.35-0.51-0.52-0.73
			c-0.08-0.1-0.17-0.2-0.27-0.28c-0.49-0.42-0.93-0.7-1.55-0.89c-0.62-0.2-1.22-0.16-1.85-0.05c-0.19,0.05-0.37,0.13-0.53,0.24
			c-1.08,0.26-1.86,1.3-2.17,2.33c-0.06,0.18-0.07,0.37-0.1,0.56c-0.03,0.19-0.06,0.38-0.06,0.57c0,0.37,0.05,0.77,0.17,1.13
			c0.29,0.88,0.83,1.65,1.64,2.12c0.31,0.18,0.68,0.34,1.04,0.4c0.25,0.04,0.56,0.1,0.84,0.09c0.28-0.01,0.56-0.06,0.84-0.1
			c0.1-0.02,0.2-0.04,0.29-0.08c0.26-0.09,0.52-0.2,0.76-0.32c0.33-0.17,0.63-0.41,0.89-0.67c0.66-0.67,1.07-1.59,1.05-2.54
			C315.38,50.14,315.33,49.89,315.29,49.65z"/>
		<path class="st4" d="M303.66,50.11c0-0.01,0.01-0.03,0.01-0.04c0.06-0.39,0.11-0.76,0-1.15c-0.13-0.46-0.41-0.84-0.78-1.12
			c-0.63-0.49-1.55-0.6-2.28-0.22c-0.05,0.02-0.1,0.03-0.14,0.04c-0.42,0.02-0.85-0.01-1.27,0.02c-0.76,0.06-1.54,0.22-2.18,0.64
			c-0.48,0.32-0.81,0.63-1.13,1.11c-0.31,0.46-0.43,0.99-0.47,1.53c-0.07,0.93,0.4,1.94,1.1,2.54c0.62,0.54,1.33,0.93,2.13,1.15
			c0.8,0.22,1.56,0.22,2.37,0.08c0.72-0.12,1.48-0.56,1.97-1.1c0.58-0.64,0.95-1.5,0.89-2.37
			C303.86,50.82,303.78,50.46,303.66,50.11z"/>
		<path class="st2" d="M325.66,50.52c-0.04-0.59-0.17-1.04-0.44-1.57c-0.05-0.09-0.1-0.17-0.15-0.25c-0.16-0.23-0.33-0.45-0.52-0.66
			c-0.41-0.47-0.94-0.82-1.44-1.17c-0.2-0.14-0.4-0.31-0.63-0.41c-0.2-0.09-0.41-0.2-0.63-0.26c-0.02-0.01-0.04-0.01-0.07-0.01
			c-0.18-0.04-0.44-0.08-0.62-0.08c-0.23,0-0.47,0.02-0.69,0.09c-0.21,0.06-0.45,0.16-0.64,0.27c-0.12,0.07-0.35,0.26-0.45,0.35
			c-0.02,0.02-0.04,0.03-0.06,0.05c-0.07,0.07-0.18,0.23-0.2,0.25c-0.06,0.08-0.14,0.18-0.21,0.27c-0.03,0.04-0.05,0.08-0.07,0.13
			c-0.1,0.2-0.19,0.42-0.26,0.63c-0.03,0.08-0.04,0.17-0.06,0.25c-0.04,0.27-0.1,0.54-0.09,0.81c0.01,0.28,0.05,0.56,0.11,0.83
			c0.02,0.1,0.05,0.19,0.08,0.28c0.09,0.26,0.2,0.53,0.34,0.77c0.13,0.24,0.31,0.45,0.48,0.66c0.23,0.29,0.54,0.52,0.84,0.72
			c0.01,0.01,0.03,0.01,0.04,0.02c0.05,0.06,0.09,0.11,0.14,0.16c0.03,0.03,0.05,0.06,0.08,0.09c0.15,0.14,0.33,0.28,0.51,0.39
			c0.04,0.03,0.08,0.05,0.12,0.07c0.18,0.1,0.4,0.18,0.6,0.25c0.04,0.01,0.08,0.02,0.12,0.03c0.21,0.04,0.44,0.07,0.66,0.09
			c0.05,0,0.09,0.01,0.14,0c0.54-0.02,1.04-0.14,1.51-0.42c0.11-0.06,0.21-0.16,0.31-0.23c0.09-0.07,0.21-0.15,0.3-0.24
			c0.14-0.15,0.27-0.34,0.4-0.51c0.03-0.05,0.06-0.1,0.09-0.15c0.11-0.22,0.23-0.47,0.28-0.71c0.04-0.21,0.08-0.45,0.09-0.67
			C325.66,50.62,325.66,50.57,325.66,50.52z"/>
	</g>
</g>
</svg>
