<svg width="989" height="989" viewBox="0 0 989 989" fill="none" xmlns="http://www.w3.org/2000/svg">
<path fill-rule="evenodd" clip-rule="evenodd" d="M0 494.246C0 221.282 221.282 0 494.246 0V230.65H494.239C348.66 230.65 230.644 348.664 230.641 494.243L0 494.246Z" fill="#99C5A6"/>
<path fill-rule="evenodd" clip-rule="evenodd" d="M494.246 988.488C221.282 988.488 -9.67253e-06 767.207 -2.16042e-05 494.242L230.641 494.242C230.641 639.823 348.658 757.84 494.239 757.84C494.241 757.84 494.244 757.84 494.246 757.84L494.246 988.488L494.933 988.488C494.704 988.488 494.475 988.488 494.246 988.488Z" fill="#6BA5C8"/>
<path fill-rule="evenodd" clip-rule="evenodd" d="M988.492 494.242C988.492 767.207 767.21 988.488 494.246 988.488L494.246 757.84L494.255 757.84C639.836 757.84 757.853 639.823 757.853 494.242L988.492 494.242Z" fill="#E5827D"/>
<path fill-rule="evenodd" clip-rule="evenodd" d="M494.247 -3.04512e-05C767.212 -1.36335e-05 988.494 221.282 988.494 494.246L757.854 494.248C757.854 348.667 639.836 230.65 494.255 230.65C494.252 230.65 494.249 230.65 494.246 230.65L494.247 -3.04512e-05Z" fill="#F6D17D"/>
</svg>
