<svg width="989" height="989" viewBox="0 0 989 989" fill="none" xmlns="http://www.w3.org/2000/svg">
<path fill-rule="evenodd" clip-rule="evenodd" d="M0 494.246C0 221.282 221.282 0 494.246 0V230.65H494.239C348.66 230.65 230.644 348.664 230.641 494.243L0 494.246Z" fill="#989A9C"/>
<path fill-rule="evenodd" clip-rule="evenodd" d="M494.246 988.488C221.282 988.488 -9.67253e-06 767.207 -2.16042e-05 494.242L230.641 494.242C230.641 639.823 348.658 757.84 494.239 757.84C494.241 757.84 494.244 757.84 494.246 757.84L494.246 988.488L494.933 988.488C494.704 988.488 494.475 988.488 494.246 988.488Z" fill="#BBBBBD"/>
<path fill-rule="evenodd" clip-rule="evenodd" d="M988.492 494.242C988.492 767.207 767.21 988.488 494.246 988.488L494.246 757.84L494.255 757.84C639.836 757.84 757.853 639.823 757.853 494.242L988.492 494.242Z" fill="#DDDDDE"/>
<path fill-rule="evenodd" clip-rule="evenodd" d="M494.246 -3.04511e-05C767.21 -1.36334e-05 988.492 221.282 988.492 494.246L757.852 494.248C757.852 348.667 639.834 230.65 494.253 230.65C494.251 230.65 494.249 230.65 494.246 230.65L494.246 -3.04511e-05Z" fill="white"/>
</svg>
