<svg width="989" height="989" viewBox="0 0 989 989" fill="none" xmlns="http://www.w3.org/2000/svg">
<path fill-rule="evenodd" clip-rule="evenodd" d="M0 494.246C0 221.284 221.278 0.00369492 494.24 0V230.647C348.663 230.652 230.65 348.667 230.65 494.245L0 494.246Z" fill="#80B690"/>
<path fill-rule="evenodd" clip-rule="evenodd" d="M494.242 988.494C221.28 988.492 -9.67258e-06 767.211 -2.16042e-05 494.248L230.652 494.249C230.652 639.828 348.665 757.843 494.242 757.847L494.242 988.494Z" fill="#468FBA"/>
<path fill-rule="evenodd" clip-rule="evenodd" d="M988.494 494.248C988.494 767.21 767.216 988.49 494.254 988.494L494.254 757.847C639.832 757.843 757.844 639.828 757.844 494.249L988.494 494.248Z" fill="#DF635C"/>
<path fill-rule="evenodd" clip-rule="evenodd" d="M494.254 -3.04507e-05C767.215 0.00315299 988.494 221.284 988.494 494.246L757.844 494.245C757.844 348.667 639.832 230.652 494.254 230.647L494.254 -3.04507e-05Z" fill="#F4C55C"/>
</svg>
