<svg xmlns="http://www.w3.org/2000/svg" viewBox="0 0 841.88976 467.71654"><defs><style>.cls-1{fill:#dae9f1;}.cls-2{fill:#fff;}.cls-3,.cls-8{fill:none;}.cls-3{stroke:#54575c;stroke-miterlimit:10;}.cls-4{fill:#f2c35c;}.cls-5{fill:#ba3932;}.cls-6{fill:#c77b46;}.cls-7{fill:#54575c;}.cls-9{fill:#ffe1b8;}.cls-10{fill:#a66910;}.cls-11{fill:#ddddde;}.cls-12{fill:#e8a576;}.cls-13{fill:#8f5d40;}</style></defs><g id="Layer_3" data-name="Layer 3"><rect class="cls-1" x="-1.87622" y="-2.09512" width="846.90824" height="471.53441"/><rect class="cls-2" x="115.94003" y="45.40523" width="584.83204" height="358.69477"/><rect class="cls-3" x="121.72005" y="48.29523" width="584.83204" height="358.69477"/><rect class="cls-3" x="390.1488" y="198.41576" width="30.42574" height="30.42574"/><rect class="cls-3" x="336.21795" y="269.34301" width="30.42574" height="30.42574"/><rect class="cls-3" x="336.21795" y="310.19971" width="30.42574" height="30.42574"/><rect class="cls-3" x="377.40151" y="310.19971" width="30.42574" height="30.42574"/><rect class="cls-3" x="332.41792" y="172.67091" width="30.42574" height="30.42574"/><rect class="cls-4" x="470.54873" y="154.0904" width="30.42574" height="30.42574"/><rect class="cls-3" x="468.2074" y="152.7891" width="30.42574" height="30.42574"/><rect class="cls-3" x="506.44928" y="152.7891" width="30.42574" height="30.42574"/><rect class="cls-5" x="547.03248" y="154.0904" width="30.42574" height="30.42574"/><rect class="cls-3" x="544.69115" y="152.7891" width="30.42574" height="30.42574"/><rect class="cls-3" x="544.69115" y="193.97266" width="30.42574" height="30.42574"/><rect class="cls-4" x="505.84892" y="195.27396" width="30.42574" height="30.42574"/><rect class="cls-3" x="503.50759" y="193.97266" width="30.42574" height="30.42574"/><rect class="cls-5" x="468.86111" y="195.27396" width="30.42574" height="30.42574"/><rect class="cls-3" x="466.51978" y="193.97266" width="30.42574" height="30.42574"/><rect class="cls-4" x="468.86111" y="232.86213" width="30.42574" height="30.42574"/><rect class="cls-4" x="378.72514" y="272.80473" width="30.42574" height="30.42574"/><rect class="cls-3" x="466.51978" y="231.56083" width="30.42574" height="30.42574"/><rect class="cls-3" x="503.83445" y="231.56083" width="30.42574" height="30.42574"/><rect class="cls-3" x="548.92603" y="242.83372" width="30.42574" height="30.42574"/><rect class="cls-4" x="589.86075" y="299.94822" width="30.42574" height="30.42574"/><rect class="cls-4" x="384.07831" y="147.96873" width="30.42574" height="30.42574"/><rect class="cls-5" x="278.67194" y="107.48655" width="30.42574" height="30.42574"/><rect class="cls-3" x="280.37629" y="106.35032" width="30.42574" height="30.42574"/><rect class="cls-3" x="221.34488" y="161.23985" width="30.42574" height="30.42574"/><path class="cls-2" d="M342.4713,243.962c0-1.92965-8.95359,5.75285-10.00429,6.81973a5.1668,5.1668,0,0,1,3.26688.85169C337.34154,250.2412,342.4713,245.66532,342.4713,243.962Z"/><path class="cls-2" d="M336.412,252.47391a2.53368,2.53368,0,0,0-.67812-.84045,5.16685,5.16685,0,0,0-3.26689-.85169c-.76957.01114-1.38056.10519-1.5372.10519a6.48373,6.48373,0,0,0-1.03358.23066c.29906.7806.45651,1.212.45651,1.212a2.46543,2.46543,0,0,1,1.0792.93236,13.88169,13.88169,0,0,1,4.23861,9.3278C336.65631,260.88583,337.42721,254.50435,336.412,252.47391Z"/><path class="cls-2" d="M318.04036,265.15017c-1.90308-4.21783-3.413-7.33831-3.413-7.33831A64.04258,64.04258,0,0,0,318.04036,265.15017Z"/><path class="cls-2" d="M307.991,189.86117c-1.73123.14426-1.8755-2.01976-2.88537.28853s-.57708.86561-3.31818,2.7411-.72134,2.8854-2.3083,3.46248-2.16408-.28854-2.59688,1.44268-1.00988,2.01979-2.88537,2.30832-5.19367.43281-5.77074,2.59684-3.89531,1.73122-3.89531,1.73122a6.5438,6.5438,0,0,1-.71245-.162c-2.41062,5.40144-10.10769,9.25094-10.10769,9.25094,6.05928,4.18381,25.10283,0,25.10283,0s-.002-.04156-.0049-.11844a43.52466,43.52466,0,0,1,.29344-6.37367c.4328-3.60671,1.73122-1.73122,4.18379-2.164a5.20663,5.20663,0,0,0,4.32805-4.90513c0-1.30112.77917-6.22321,1.45924-10.271A3.50139,3.50139,0,0,1,307.991,189.86117Z"/><path class="cls-2" d="M304.71028,169.521c-.01548.02206-.00965.02891,0,0Z"/><path class="cls-2" d="M314.91591,184.6675c-1.73123-1.587-1.73123-3.60674-1.73123-5.915s-2.01976-2.01978-3.1739-5.04942-1.15415-3.17391-3.60672-4.03952c-1.3282-.4688-1.64039-.21865-1.69377-.14248-.00966.02889-.01548.022,0,0a1.70471,1.70471,0,0,0-.03745-.72313c-.28854-1.587-4.18379-2.45259-6.34782-2.45259s-2.45261-.72134-4.90518-1.587-4.32805,1.587-4.32805,1.587c-10.82019.72137-13.5613,4.61662-16.15813,6.63638s0,3.1739-1.87549,5.04939-2.3083,1.29845-.14427,4.61665-.4328,1.87549-1.15415,4.61659,0,4.32806,3.89525,6.05928.57708,2.8854,2.164,6.6364,1.87549,1.00988,4.18379,2.59684a12.22048,12.22048,0,0,0,3.6156,1.71349,6.5438,6.5438,0,0,0,.71245.162s3.31823.4328,3.89531-1.73122,3.89525-2.3083,5.77074-2.59684,2.45256-.57707,2.88537-2.30832,1.00988-.86561,2.59688-1.44268-.4328-1.587,2.3083-3.46248,2.3083-.4328,3.31818-2.7411,1.15414-.14427,2.88537-.28853a3.50139,3.50139,0,0,0,.88216-.17214c.657-.22578.70515-.48729,3.01309.17214,3.02964.86561,3.46244-1.44269,3.46244-1.44269A3.06751,3.06751,0,0,0,314.91591,184.6675Z"/><path class="cls-2" d="M335.67055,262.5898a13.88169,13.88169,0,0,0-4.23861-9.3278,2.46543,2.46543,0,0,0-1.0792-.93236s-.15745-.43142-.45651-1.212c-.042.014-.08323.02868-.12328.044s-.07891.03134-.1161.048c.03719-.01668.076-.03269.1161-.048s.0813-.03.12328-.044a214.23358,214.23358,0,0,0-9.3538-20.86114c-5.91506-11.39724-8.07909-11.97431-12.69568-14.28261a33.2279,33.2279,0,0,0-9.23809-2.571c.00286.07688.0049.11844.0049.11844s-19.04355,4.18381-25.10283,0c-.57707.14427-5.19366,2.74113-9.81031,4.61662-4.61659,1.87549-9.23318,12.69568-5.915,24.95853s8.80043,22.65024,4.90513,37.79849c-3.89525,15.14822-3.46244,14.85968-1.44268,20.05337a3.54529,3.54529,0,0,0,3.26356,2.11854c4.57011.52685,12.66917-2.43157,19.09811-1.25293,8.65616,1.587,16.44672-2.30829,25.96844,1.00991a14.50226,14.50226,0,0,0,11.82333-.5194,11.26951,11.26951,0,0,0,3.03638-2.22173s2.7411-11.253-.28854-20.05338c-1.56866-4.55661-4.06542-10.35044-6.10878-14.87912a64.041,64.041,0,0,1-3.413-7.33833s1.50991,3.1205,3.413,7.33833c2.25348,4.12,5.288,9.24555,8.84988,9.68543,2.96531.36619,3.31823-1.73125,3.31823-1.73125s4.18379.43281,5.33794-7.93477A14.45994,14.45994,0,0,0,335.67055,262.5898Z"/><path class="cls-2" d="M263.37607,446.43772s-4.48474,4.73552-.22641,8.63894c2.57374,2.35931,12.495-.96592,19.87212-6.03261a32.27238,32.27238,0,0,0,6.03511-5.63932,3.48591,3.48591,0,0,0-1.28207-5.473,25.94307,25.94307,0,0,0-6.59977-1.71549,60.84148,60.84148,0,0,1-3.073,12.14221C276.656,451.778,263.37607,446.43772,263.37607,446.43772Z"/><path class="cls-2" d="M299.23053,448.35847s-1.65949,8.13763,2.59883,9.55708c4.25827,1.41944,22.711-1.41945,22.711-1.41945s15.25895-2.484,13.12982-7.09717c-1.39753-3.02793-10.74459-5.4443-17.00361-6.7475-.47245,4.90907-1.00023,8.12459-1.588,8.90833C315.237,456.68185,299.23053,448.35847,299.23053,448.35847Z"/><path class="cls-2" d="M321.4013,302.30441a14.50226,14.50226,0,0,1-11.82333.5194c-9.52172-3.3182-17.31228.57707-25.96844-1.00991-6.42894-1.17864-14.528,1.77978-19.09811,1.25293-.95491,7.88532-1.80443,20.10078.34315,29.76491,3.4625,15.581-4.18379,82.66618-4.18379,82.66618l2.70529,30.93972v0s13.28,5.34029,14.726,1.92076a60.84027,60.84027,0,0,0,3.073-12.14216h0c5.59649-32.11462,7.17113-103.10429,7.17113-103.10429s7.0428,8.32339,8.32333,27.53118,4.48183,55.70237,4.48183,55.70237l-1.92081,32.0129s16.00645,8.32343,19.848,3.20129c.58781-.78372,1.11558-3.99927,1.588-8.90828,2.61533-27.17306,3.534-106.33122,3.534-113.381C324.20059,324.52271,322.9505,312.48479,321.4013,302.30441Z"/><path class="cls-6" d="M342.11815,245.72777c0-1.92966-8.95359,5.75285-10.00429,6.81973a5.16677,5.16677,0,0,1,3.26689.85169C336.98839,252.00693,342.11815,247.43105,342.11815,245.72777Z"/><path class="cls-6" d="M336.05887,254.23964a2.53356,2.53356,0,0,0-.67812-.84045,5.16683,5.16683,0,0,0-3.26689-.85169c-.76956.01114-1.38056.10519-1.53719.10519a6.48312,6.48312,0,0,0-1.03358.23065c.29906.78061.4565,1.212.4565,1.212a2.4654,2.4654,0,0,1,1.07921.93236,13.88162,13.88162,0,0,1,4.2386,9.3278C336.30317,262.65156,337.07407,256.27008,336.05887,254.23964Z"/><path class="cls-3" d="M317.68721,266.9159c-1.90307-4.21783-3.413-7.33831-3.413-7.33831A64.04258,64.04258,0,0,0,317.68721,266.9159Z"/><path class="cls-6" d="M307.63787,191.62689c-1.73122.14427-1.87549-2.01976-2.88537.28854s-.57707.86561-3.31818,2.7411-.72134,2.8854-2.30829,3.46247c-1.587.57708-2.16408-.28853-2.59689,1.44269s-1.00988,2.01978-2.88537,2.30832-5.19367.43281-5.77074,2.59683-3.8953,1.73123-3.8953,1.73123a6.5438,6.5438,0,0,1-.71245-.162c-2.41063,5.40144-10.10769,9.25094-10.10769,9.25094,6.05928,4.18381,25.10283,0,25.10283,0s-.002-.04156-.00491-.11844a43.52466,43.52466,0,0,1,.29344-6.37367c.43281-3.60671,1.73122-1.73122,4.18379-2.164a5.20663,5.20663,0,0,0,4.32806-4.90513c0-1.30112.77917-6.22321,1.45923-10.271A3.501,3.501,0,0,1,307.63787,191.62689Z"/><path class="cls-3" d="M304.35714,171.28675c-.01548.02206-.00966.02891,0,0Z"/><path class="cls-7" d="M314.56276,186.43323c-1.73122-1.587-1.73122-3.60674-1.73122-5.915s-2.01976-2.01978-3.17391-5.04942-1.15415-3.17391-3.60671-4.03952c-1.3282-.4688-1.64039-.21865-1.69378-.14248-.00966.02889-.01548.022,0,0a1.70471,1.70471,0,0,0-.03745-.72313c-.28853-1.587-4.18378-2.45259-6.34781-2.45259s-2.45262-.72135-4.90518-1.587-4.32806,1.587-4.32806,1.587c-10.82019.72136-13.56129,4.61662-16.15813,6.63637s0,3.17391-1.87549,5.0494-2.30829,1.29845-.14426,4.61665-.43281,1.87549-1.15415,4.61659,0,4.32806,3.89525,6.05928.57707,2.8854,2.164,6.6364,1.87549,1.00988,4.18378,2.59684a12.22062,12.22062,0,0,0,3.61561,1.71349,6.5438,6.5438,0,0,0,.71245.162s3.31823.4328,3.8953-1.73123,3.89525-2.30829,5.77074-2.59683,2.45257-.57707,2.88537-2.30832,1.00988-.86561,2.59689-1.44269c1.587-.57707-.43281-1.587,2.30829-3.46247s2.3083-.4328,3.31818-2.7411,1.15415-.14427,2.88537-.28854a3.501,3.501,0,0,0,.88216-.17213c.657-.22578.70515-.48729,3.01309.17213,3.02964.86562,3.46245-1.44268,3.46245-1.44268A3.06752,3.06752,0,0,0,314.56276,186.43323Z"/><path class="cls-4" d="M335.3174,264.35553a13.88162,13.88162,0,0,0-4.2386-9.3278,2.4654,2.4654,0,0,0-1.07921-.93236s-.15744-.43142-.4565-1.212c-.042.014-.08324.02869-.12329.044s-.0789.03134-.11609.048c.03719-.01668.076-.03269.11609-.048s.0813-.03.12329-.044a214.232,214.232,0,0,0-9.35381-20.86113c-5.91506-11.39724-8.07909-11.97431-12.69568-14.28261a33.22781,33.22781,0,0,0-9.23809-2.571c.00286.07688.00491.11844.00491.11844s-19.04355,4.18381-25.10283,0c-.57708.14427-5.19367,2.74113-9.81031,4.61662s-9.23319,12.69568-5.915,24.95853,8.80043,22.65024,4.90513,37.79848c-3.89525,15.14823-3.46245,14.85969-1.44269,20.05338a3.54531,3.54531,0,0,0,3.26357,2.11854c4.5701.52685,12.66917-2.43157,19.09811-1.25293,8.65616,1.587,16.44671-2.30829,25.96843,1.00991a14.50226,14.50226,0,0,0,11.82333-.5194,11.26929,11.26929,0,0,0,3.03638-2.22173s2.74111-11.253-.28853-20.05338c-1.56867-4.55661-4.06542-10.35045-6.10878-14.87912a64.041,64.041,0,0,1-3.413-7.33833s1.50992,3.12049,3.413,7.33833c2.25348,4.12,5.288,9.24555,8.84988,9.68543,2.96531.36619,3.31823-1.73125,3.31823-1.73125s4.18378.43281,5.33793-7.93477A14.459,14.459,0,0,0,335.3174,264.35553Z"/><path class="cls-7" d="M263.02293,448.20344s-4.48474,4.73553-.22642,8.639c2.57374,2.35931,12.495-.96592,19.87212-6.03261a32.27279,32.27279,0,0,0,6.03512-5.63932,3.48591,3.48591,0,0,0-1.28207-5.473,25.94328,25.94328,0,0,0-6.59978-1.71549,60.84148,60.84148,0,0,1-3.073,12.14221C276.30289,453.5437,263.02293,448.20344,263.02293,448.20344Z"/><path class="cls-7" d="M298.87739,450.1242s-1.6595,8.13763,2.59882,9.55707,22.711-1.41944,22.711-1.41944,15.25895-2.484,13.12981-7.09718c-1.39752-3.02792-10.74458-5.44429-17.00361-6.74749-.47245,4.90907-1.00022,8.12458-1.588,8.90833C314.88384,458.44758,298.87739,450.1242,298.87739,450.1242Z"/><path class="cls-5" d="M321.04815,304.07014a14.50226,14.50226,0,0,1-11.82333.5194c-9.52172-3.3182-17.31227.57707-25.96843-1.00991-6.42894-1.17864-14.528,1.77978-19.09811,1.25293-.95491,7.88531-1.80443,20.10078.34315,29.76491,3.46249,15.58105-4.18379,82.66618-4.18379,82.66618l2.70529,30.93972v0s13.28,5.34029,14.726,1.92076a60.84086,60.84086,0,0,0,3.073-12.14216h0c5.59648-32.11462,7.17112-103.10429,7.17112-103.10429s7.0428,8.32339,8.32334,27.53118,4.48182,55.70236,4.48182,55.70236l-1.9208,32.01291s16.00645,8.32343,19.848,3.20129c.5878-.78372,1.11558-3.99927,1.588-8.90828,2.61533-27.17306,3.534-106.33122,3.534-113.381C323.84744,326.28844,322.59735,314.25052,321.04815,304.07014Z"/><path class="cls-3" d="M343.26529,244.35465c0-1.92965-8.95359,5.75285-10.00428,6.81973a5.1668,5.1668,0,0,1,3.26688.85169C338.13554,250.63381,343.26529,246.05793,343.26529,244.35465Z"/><path class="cls-3" d="M337.206,252.86652a2.53358,2.53358,0,0,0-.67813-.84045,5.1668,5.1668,0,0,0-3.26688-.85169c-.76957.01114-1.38057.10519-1.5372.10519a6.48373,6.48373,0,0,0-1.03358.23066c.29906.7806.45651,1.212.45651,1.212a2.46543,2.46543,0,0,1,1.0792.93236,13.88169,13.88169,0,0,1,4.23861,9.3278C337.45031,261.27844,338.22121,254.897,337.206,252.86652Z"/><path class="cls-3" d="M318.83436,265.54278c-1.90308-4.21783-3.413-7.33831-3.413-7.33831A64.04258,64.04258,0,0,0,318.83436,265.54278Z"/><path class="cls-3" d="M308.785,190.25378c-1.73122.14426-1.87549-2.01976-2.88537.28853s-.57707.86561-3.31817,2.7411-.72134,2.8854-2.3083,3.46248-2.16408-.28854-2.59688,1.44268-1.00988,2.01979-2.88537,2.30832-5.19367.43281-5.77075,2.59684-3.8953,1.73122-3.8953,1.73122a6.5438,6.5438,0,0,1-.71245-.162c-2.41062,5.40144-10.10769,9.25094-10.10769,9.25094,6.05928,4.18381,25.10283,0,25.10283,0s-.002-.04156-.0049-.11844a43.52466,43.52466,0,0,1,.29344-6.37367c.4328-3.60671,1.73122-1.73122,4.18378-2.164a5.20663,5.20663,0,0,0,4.32806-4.90513c0-1.30112.77917-6.22321,1.45924-10.271A3.50138,3.50138,0,0,1,308.785,190.25378Z"/><path class="cls-3" d="M305.50428,169.91363c-.01548.02206-.00965.02891,0,0Z"/><path class="cls-7" d="M315.7099,185.06011c-1.73122-1.587-1.73122-3.60674-1.73122-5.915s-2.01976-2.01978-3.17391-5.04942-1.15414-3.17391-3.60671-4.03952c-1.3282-.4688-1.64039-.21865-1.69378-.14248-.00965.02889-.01547.022,0,0a1.70439,1.70439,0,0,0-.03744-.72313c-.28854-1.587-4.18379-2.45259-6.34782-2.45259s-2.45261-.72134-4.90518-1.587-4.32805,1.587-4.32805,1.587c-10.8202.72137-13.5613,4.61662-16.15813,6.63638s0,3.1739-1.87549,5.04939-2.3083,1.29845-.14427,4.61665-.43281,1.87549-1.15415,4.61659,0,4.32806,3.89525,6.05928.57708,2.8854,2.164,6.6364,1.87549,1.00988,4.18379,2.59684a12.22048,12.22048,0,0,0,3.6156,1.71349,6.5438,6.5438,0,0,0,.71245.162s3.31823.4328,3.8953-1.73122,3.89526-2.3083,5.77075-2.59684,2.45256-.57707,2.88537-2.30832,1.00988-.86561,2.59688-1.44268-.4328-1.587,2.3083-3.46248,2.30829-.4328,3.31817-2.7411,1.15415-.14427,2.88537-.28853a3.50138,3.50138,0,0,0,.88217-.17214c.657-.22578.70515-.48729,3.01309.17214,3.02963.86561,3.46244-1.44269,3.46244-1.44269A3.06751,3.06751,0,0,0,315.7099,185.06011Z"/><path class="cls-3" d="M336.46455,262.98241a13.88169,13.88169,0,0,0-4.23861-9.3278,2.46543,2.46543,0,0,0-1.0792-.93236s-.15745-.43142-.45651-1.212c-.042.014-.08323.02868-.12329.044s-.0789.03134-.11609.048c.03719-.01668.076-.03269.11609-.048s.08131-.03.12329-.044a214.23358,214.23358,0,0,0-9.3538-20.86114c-5.91506-11.39724-8.07909-11.97431-12.69568-14.28261a33.2279,33.2279,0,0,0-9.23809-2.571c.00286.07688.0049.11844.0049.11844s-19.04355,4.18381-25.10283,0c-.57707.14427-5.19366,2.74113-9.81031,4.61662-4.61659,1.87549-9.23318,12.69568-5.915,24.95853s8.80043,22.65024,4.90513,37.79849c-3.89525,15.14822-3.46244,14.85968-1.44268,20.05337a3.54529,3.54529,0,0,0,3.26356,2.11854c4.57011.52685,12.66917-2.43157,19.09811-1.25293,8.65616,1.587,16.44672-2.30829,25.96844,1.00991a14.50226,14.50226,0,0,0,11.82333-.5194,11.26951,11.26951,0,0,0,3.03638-2.22173s2.7411-11.253-.28854-20.05338c-1.56866-4.55661-4.06542-10.35045-6.10878-14.87912a64.041,64.041,0,0,1-3.413-7.33833s1.50991,3.1205,3.413,7.33833c2.25348,4.12,5.288,9.24555,8.84988,9.68543,2.96531.36619,3.31823-1.73125,3.31823-1.73125s4.18379.43281,5.33794-7.93477A14.45994,14.45994,0,0,0,336.46455,262.98241Z"/><path class="cls-3" d="M264.17007,446.83033s-4.48474,4.73552-.22641,8.63894c2.57374,2.35931,12.495-.96592,19.87212-6.03261a32.27238,32.27238,0,0,0,6.03511-5.63932,3.48591,3.48591,0,0,0-1.28207-5.473,25.94318,25.94318,0,0,0-6.59977-1.71549,60.84217,60.84217,0,0,1-3.073,12.14221C277.45,452.17059,264.17007,446.83033,264.17007,446.83033Z"/><path class="cls-3" d="M300.02453,448.75108s-1.6595,8.13763,2.59883,9.55707c4.25827,1.41945,22.711-1.41944,22.711-1.41944s15.25895-2.484,13.12982-7.09718c-1.39753-3.02792-10.74459-5.44429-17.00361-6.74749-.47245,4.90907-1.00023,8.12459-1.588,8.90833C316.031,457.07446,300.02453,448.75108,300.02453,448.75108Z"/><path class="cls-3" d="M322.1953,302.697a14.50226,14.50226,0,0,1-11.82333.5194c-9.52172-3.3182-17.31228.57707-25.96844-1.00991-6.42894-1.17864-14.528,1.77978-19.09811,1.25293-.95491,7.88532-1.80443,20.10078.34315,29.76491,3.4625,15.58105-4.18379,82.66618-4.18379,82.66618l2.70529,30.93972v.00005s13.28,5.34029,14.726,1.92076a60.84027,60.84027,0,0,0,3.073-12.14216h0c5.59649-32.11462,7.17113-103.10429,7.17113-103.10429s7.04279,8.32339,8.32333,27.53118c1.28054,19.20774,4.48183,55.70237,4.48183,55.70237l-1.92081,32.0129s16.00645,8.32343,19.848,3.20129c.5878-.78372,1.11558-3.99927,1.588-8.90828,2.61533-27.17306,3.534-106.33122,3.534-113.381C324.99459,324.91532,323.7445,312.8774,322.1953,302.697Z"/><path class="cls-3" d="M331.00247,273.497s3.78871-12.64172-.55162-21.89469"/><rect class="cls-2" x="106.8088" y="273.67886" width="85.06315" height="112.28336" rx="8.79682" transform="translate(-146.89157 537.98098) rotate(-100.73481)"/><rect class="cls-3" x="107.45069" y="271.415" width="85.06315" height="112.28336" rx="8.79682" transform="translate(-143.90587 535.92612) rotate(-100.73481)"/><rect class="cls-2" x="114.54692" y="281.35313" width="71.89635" height="94.90319" transform="translate(-144.52372 537.91047) rotate(-100.73481)"/><rect class="cls-3" x="113.12098" y="279.4813" width="71.89635" height="94.90319" transform="translate(-144.37619 534.289) rotate(-100.73481)"/><path class="cls-5" d="M180.96822,291.48769l-76.01906,14.41179a1.87143,1.87143,0,0,0-1.4901,2.18725l8.44059,44.52227a1.87146,1.87146,0,0,0,2.1873,1.49012l76.019-14.41178a1.87142,1.87142,0,0,0,1.49009-2.18725l-8.44059-44.52231A1.87142,1.87142,0,0,0,180.96822,291.48769ZM158.458,322.43782l-8.60231,7.40825-8.60229,7.40823a1.9475,1.9475,0,0,1-3.18428-1.113l-2.11458-11.15393L133.84,313.8335a1.94749,1.94749,0,0,1,2.556-2.20118l10.71688,3.74569,10.71688,3.74569A1.94749,1.94749,0,0,1,158.458,322.43782Z"/><path class="cls-3" d="M182.03351,290.045l-76.01906,14.4118a1.87142,1.87142,0,0,0-1.4901,2.18724l8.44059,44.52227a1.87147,1.87147,0,0,0,2.1873,1.49013l76.019-14.41179a1.87141,1.87141,0,0,0,1.49009-2.18724l-8.4406-44.52231A1.87142,1.87142,0,0,0,182.03351,290.045Zm-22.51023,30.95014-8.6023,7.40824-8.60229,7.40824a1.9475,1.9475,0,0,1-3.18428-1.11295l-2.11458-11.15394-2.11457-11.15391a1.94749,1.94749,0,0,1,2.556-2.20119l10.71688,3.74569L158.895,317.681A1.94749,1.94749,0,0,1,159.52328,320.99513Z"/><line class="cls-3" x1="115.92779" y1="360.36608" x2="192.53643" y2="345.84251"/><circle class="cls-2" cx="140.05035" cy="355.63353" r="2.34859"/><circle class="cls-2" cx="141.45725" cy="355.36681" r="2.34859"/><circle class="cls-3" cx="140.72921" cy="355.50483" r="2.34859"/><rect class="cls-5" x="654.62778" y="162.01752" width="90.49706" height="92.05735" transform="translate(-9.41836 34.80896) rotate(-2.83003)"/><rect class="cls-3" x="656.6335" y="160.88758" width="90.49706" height="92.05735" transform="translate(-9.36012 34.90661) rotate(-2.83003)"/><polygon class="cls-2" points="126.688 219.899 183.804 186.64 134.172 101.406 126.732 99.442 74.318 129.963 126.688 219.899"/><polygon class="cls-3" points="126.475 220.023 183.591 186.765 133.959 101.53 126.519 99.566 74.105 130.087 126.475 220.023"/><polyline class="cls-3" points="126.519 99.566 129.497 104.681 134.199 101.943"/><line class="cls-3" x1="87.94413" y1="139.15111" x2="129.9287" y2="114.70337"/><line class="cls-3" x1="92.34279" y1="146.70502" x2="134.32736" y2="122.25728"/><line class="cls-3" x1="96.74145" y1="154.25892" x2="138.72602" y2="129.81118"/><line class="cls-3" x1="101.14012" y1="161.81283" x2="143.12469" y2="137.36509"/><line class="cls-3" x1="105.53878" y1="169.36674" x2="147.52335" y2="144.919"/><line class="cls-3" x1="109.93744" y1="176.92065" x2="151.92201" y2="152.47291"/><line class="cls-3" x1="114.3361" y1="184.47455" x2="156.32068" y2="160.02681"/><line class="cls-3" x1="118.73477" y1="192.02846" x2="160.71934" y2="167.58072"/><line class="cls-3" x1="123.13343" y1="199.58237" x2="165.118" y2="175.13463"/><line class="cls-3" x1="127.53209" y1="207.13628" x2="169.51666" y2="182.68854"/><rect class="cls-3" x="585.96571" y="302.17532" width="30.42574" height="30.42574"/><path class="cls-8" d="M657.04148,125.7988l-6.65335-18.42519s.75261,15.80571-2.63439,17.31106l6.88678,2.53721a2.58307,2.58307,0,0,0,1.11754-.59429A4.40388,4.40388,0,0,1,657.04148,125.7988Z"/><path class="cls-3" d="M702.22259,116.889l-.27785-.85983A6.24217,6.24217,0,0,0,702.22259,116.889Z"/><path class="cls-9" d="M685.29372,36.65734s-.303-2.12051-2.12044-1.66615c-1.81771.45443-3.48373-1.06022-5.75573-1.969s-1.81758-.1515-3.938-.1515c-2.12057,0-2.12057-.90878-4.24114,1.21172-2.12044,2.12058,0,1.36322-3.63516,3.48372s-3.02929,16.35826-1.969,24.23443c.665,4.93991-.33911,6.92417-.118,6.9649,4.62173.85194,12.09591,1.68541,16.756-.58452a7.82923,7.82923,0,0,0,2.47989-1.82687l-2.45688-5.00794C689.3833,57.10511,685.29372,36.65734,685.29372,36.65734Z"/><path class="cls-4" d="M702.2227,116.88889c1.38529,3.57608,17.66317,33.88551,23.33242,40.99708h15.754c-5.89334-10.78323-25.41621-50.82-28.07449-62.17852-3.0522-13.0411-9.37383-18.91708-12.48649-21.10673a12.31133,12.31133,0,0,0-1.81391-1.09641L682.75209,66.354a7.82647,7.82647,0,0,1-2.47983,1.82678c-4.66011,2.27-12.13446,1.43655-16.75611.5846-.04661.16387-.09713.33271-.14113.49324a12.35427,12.35427,0,0,0-.64962,4.96193c.45437,2.27212-9.39062,11.81438-9.39062,11.81438a41.79913,41.79913,0,0,1-3.87717-6.84429C645.203,91.955,635.8818,121.27145,636.46394,131.45853c.42651,7.46123,5.44076,8.15836,9.70907,7.3619a24.36818,24.36818,0,0,0,5.55957-1.83184c.33866-.15849.53716-.26157.53716-.26157l1.524-5.44279,1.11051-3.96527-.26369-.09713-6.88667-2.53719c3.38694-1.5054,2.63433-17.311,2.63433-17.311l6.65329,18.42513c1.64735-.8,4.31117-1.54622,5.078-.23142l18.704-5.92047,10.55524,13.902-14.90585.84373c2.83087.56071,6.136,1.31537,10.04251,2.33445,4.97383,1.2976,11.35007.80607,11.99317,2.90552.64293,2.09952,11.33914.85781,11.33914.85781l-.14668-.45339Z"/><path class="cls-10" d="M662.7255,74.22066a12.35274,12.35274,0,0,1,.64961-4.96192c.04387-.16059.09444-.32941.14113-.49329-.22113-.04073.783-2.025.118-6.9649-1.06028-7.87617-1.66614-22.11392,1.969-24.23443s1.51472-1.36314,3.63516-3.48372c2.12057-2.1205,2.12057-1.21172,4.24114-1.21172,2.12044,0,1.666-.75729,3.938.1515s3.938,2.42344,5.75573,1.969c1.81744-.45436,2.12044,1.66615,2.12044,1.66615s4.08958,20.44777-4.99844,24.68878l2.45688,5.00794,16.182,7.15024a12.307,12.307,0,0,1,1.8141,1.09648c2.4415-.60934.44346-4.28764,2.56978-10.37679,3.33216-9.54232-6.05859-5.1498-7.2703-12.87454s-3.63516-13.93476-8.0276-15.90383c-4.39258-1.96908-5.45287-8.3306-8.785-9.99667-3.33216-1.66615-4.99844,0-8.93646,0s-4.39244,5.60416-8.02773,5.60416c-3.63515,0-8.179,5.45279-7.57317,10.29967S646.973,51.198,648.33632,56.19632c1.36315,4.99837,4.39244,4.99837.30286,11.35989-2.04646,3.18347-.86886,7.80814.81843,11.63453a41.80021,41.80021,0,0,0,3.877,6.84424S663.1798,76.49266,662.7255,74.22066Z"/><path class="cls-7" d="M643.79231,204.02625c.02354-.088.05993-.21732.1022-.36514-1.616,3.553-7.66012,16.76968-9.219,19.10784-1.80407,2.7061-11.57607,7.66728-11.57607,8.419,0,9.4187,18.49161,4.66052,20.74663,2.85646,2.25515-1.80407,4.35993-1.35305,6.91567-1.50341,2.11843-.12461,3.09993-18.10567,3.374-24.26018C651.61537,207.77678,643.27755,205.95659,643.79231,204.02625Z"/><path class="cls-7" d="M649.39647,170.24951c-1.04009.0511-12.30941-1.64321-15.172,3.50894-3.053,5.4946-12.77869,7.81757-17.43935,9.02033-2.94756.76063-.60131,14.58288,5.4122,13.98151,6.01364-.60138,14.58288-2.85646,23.45285-14.58289l5.8669-3.4458S647.88176,172.82444,649.39647,170.24951Z"/><path class="cls-11" d="M698.50837,139.63263c-.64305-2.09957-7.01908-1.608-11.993-2.90556-3.90644-1.01908-7.21171-1.77376-10.04249-2.33441l-8.00231.453c-1.21627.81053-2.43494,1.5725-3.17016,2.08158-1.96914,1.36321-12.42018,2.1205-13.3289.75735a2.1371,2.1371,0,0,1-.23878-.69588,24.37185,24.37185,0,0,1-5.55962,1.83182c-1.98533,14.80261,9.28213,27.188,9.28213,27.188s-4.544,1.66614-6.05873,4.241c-1.51471,2.57493,2.12058,8.48209,2.12058,8.48209s-6.57469,21.26272-7.62254,24.92951c-.04227.14782-.07866.27711-.1022.36514-.51476,1.93034,7.82306,3.75053,10.34348,4.25452.44613.08923.71341.138.71341.138l19.842-34.98846s14.54062-.45443,18.47863-.45443c3.93815,0,11.35989-4.84687,17.57-8.482,6.21-3.63516,6.81588-12.11718,5.60416-17.41848-.74793-3.2723-4.14791-5.67546-6.64305-7.03835l.14662.45336S699.15142,141.73213,698.50837,139.63263Z"/><path class="cls-9" d="M673.025,128.14224s.303-1.06028-4.24088-.75735a100.12978,100.12978,0,0,1-10.25826,2.524,5.00334,5.00334,0,0,1-1.61572.05324.33618.33618,0,0,1-.2432-.15377c-.14915-.34781.5054-.729,1.40823-1.14738,1.84942-.85695,4.75685-1.87235,4.04437-3.0937-.76692-1.31479-3.43075-.56847-5.078.23149a4.40388,4.40388,0,0,0-1.28342.82879,2.58307,2.58307,0,0,1-1.11754.59429l.26353.097-1.11032,3.96538-1.52408,5.44276s-.19838.10307-.537.2616a2.1371,2.1371,0,0,0,.23878.69588c.90872,1.36315,11.35976.60586,13.3289-.75735.73522-.50908,1.95389-1.27105,3.17016-2.08158.72157-.48092,1.44234-.97882,2.06064-1.45124,1.12972-.86331,1.92058-1.642,1.73665-2.07134C672.26782,131.323,674.84268,129.20253,673.025,128.14224Z"/><path class="cls-2" d="M680.82342,119.64684l-18.70391,5.92047c.71248,1.22135-2.19495,2.23675-4.04437,3.0937-.90283.41838-1.55738.79957-1.40823,1.14738a.33618.33618,0,0,0,.2432.15377,5.00334,5.00334,0,0,0,1.61572-.05324,100.12978,100.12978,0,0,0,10.25826-2.524c4.54388-.30293,4.24088.75735,4.24088.75735,1.81771,1.06029-.75715,3.1808-.75715,3.1808.18393.42934-.60693,1.208-1.73665,2.07134-.6183.47242-1.33907.97032-2.06064,1.45124l8.00231-.453,14.90595-.8437Z"/><path class="cls-3" d="M681.35,60.03359a5.41669,5.41669,0,0,1-5.13566,2.43467c-3.47554-.38617-12.1-7.59469-12.22874-9.39682"/><path class="cls-3" d="M680.84843,54.61612s-7.72342,1.28724-9.01065-.38617"/><path class="cls-3" d="M678.91758,44.7044s.77234,5.4064-.12873,5.92129A9.90329,9.90329,0,0,0,676.858,52.2991"/><path class="cls-8" d="M658.09624,124.48627l-6.65334-18.42519s.7526,15.80571-2.6344,17.31106l6.88678,2.53721a2.58307,2.58307,0,0,0,1.11754-.59429A4.40361,4.40361,0,0,1,658.09624,124.48627Z"/><path class="cls-3" d="M703.27735,115.57644l-.27785-.85983A6.24261,6.24261,0,0,0,703.27735,115.57644Z"/><path class="cls-3" d="M686.34848,35.3448s-.303-2.1205-2.12044-1.66614c-1.81771.45442-3.48372-1.06022-5.75573-1.969s-1.81757-.1515-3.938-.1515c-2.12058,0-2.12058-.90879-4.24115,1.21172-2.12044,2.12057,0,1.36321-3.63515,3.48372s-3.0293,16.35826-1.969,24.23443c.665,4.93991-.33912,6.92417-.118,6.9649,4.62173.85193,12.09591,1.68541,16.756-.58452a7.82911,7.82911,0,0,0,2.47989-1.82688L681.35,60.03359C690.43806,55.79258,686.34848,35.3448,686.34848,35.3448Z"/><path class="cls-3" d="M703.27748,115.57637c1.49725,3.86536,18.57322,35.10024,24.70988,42.71427h15.32c-5.86237-10.60551-26.21381-51.91412-29.018-63.89571-3.0522-13.04109-9.37383-18.91716-12.48649-21.10673a12.31878,12.31878,0,0,0-1.81391-1.09649l-16.18211-7.15028A7.82866,7.82866,0,0,1,681.327,66.8683c-4.6601,2.27-12.13446,1.43654-16.7561.58459-.04661.16387-.09713.33271-.14114.49324a12.35429,12.35429,0,0,0-.64962,4.96194c.45438,2.272-9.39078,11.81438-9.39078,11.81438a41.80581,41.80581,0,0,1-3.877-6.8443c-4.25462,12.76428-13.57581,42.08078-12.99366,52.26786.4265,7.46124,5.44075,8.15836,9.70907,7.3619a24.36806,24.36806,0,0,0,5.55956-1.83184c.33866-.15849.53717-.26157.53717-.26157l1.524-5.44279,1.11035-3.96535-.26353-.097-6.88683-2.53719c3.38711-1.5054,2.63449-17.31112,2.63449-17.31112l6.65329,18.42521c1.64735-.8,4.311-1.54622,5.078-.2315l18.704-5.92039,10.55523,13.902-14.90585.84372c2.83087.56071,6.136,1.31537,10.04252,2.33445,4.97383,1.29752,11.35006.806,11.99316,2.90552.64294,2.09952,11.33914.85773,11.33914.85773l-.14667-.45331Z"/><path class="cls-3" d="M663.78027,72.90813a12.3525,12.3525,0,0,1,.6496-4.96192c.04388-.1606.09444-.32942.14113-.49329-.22113-.04073.783-2.025.118-6.9649-1.06029-7.87617-1.66615-22.11392,1.969-24.23443s1.51471-1.36315,3.63515-3.48372c2.12057-2.12051,2.12057-1.21172,4.24115-1.21172,2.12044,0,1.666-.75729,3.938.1515s3.938,2.42343,5.75573,1.969c1.81744-.45436,2.12044,1.66614,2.12044,1.66614s4.08958,20.44778-4.99844,24.68879l2.45688,5.00793,16.182,7.15025a12.30555,12.30555,0,0,1,1.8141,1.09647c2.4415-.60933.44346-4.28763,2.56979-10.37679,3.33215-9.54231-6.05859-5.1498-7.27031-12.87453s-3.63515-13.93476-8.0276-15.90384c-4.39258-1.96907-5.45286-8.33059-8.785-9.99667-3.33216-1.66614-4.99844,0-8.93645,0s-4.39245,5.60416-8.02774,5.60416c-3.63515,0-8.179,5.4528-7.57317,10.29967s-7.72473,9.84524-6.36145,14.84355c1.36315,4.99837,4.39245,4.99837.30286,11.35989-2.04646,3.18347-.86885,7.80814.81843,11.63452a41.79929,41.79929,0,0,0,3.877,6.84424S664.23456,75.18013,663.78027,72.90813Z"/><path class="cls-3" d="M644.84707,202.71371c.02355-.088.05993-.21731.10221-.36513-1.616,3.553-7.66013,16.76968-9.219,19.10783-1.80406,2.7061-11.57606,7.66728-11.57606,8.41895,0,9.41871,18.4916,4.66053,20.74662,2.85646,2.25515-1.80406,4.35994-1.353,6.91567-1.50341,2.11844-.12461,3.09993-18.10567,3.374-24.26017C652.67013,206.46425,644.33231,204.64406,644.84707,202.71371Z"/><path class="cls-3" d="M650.45123,168.937c-1.04008.05111-12.30941-1.6432-15.172,3.50894-3.053,5.4946-12.77869,7.81758-17.43935,9.02033-2.94756.76064-.60131,14.58289,5.4122,13.98151,6.01364-.60138,14.58289-2.85646,23.45286-14.58289l5.86689-3.44579S648.93652,171.51191,650.45123,168.937Z"/><path class="cls-3" d="M699.56313,138.32009c-.643-2.09957-7.01908-1.608-11.993-2.90555-3.90645-1.01909-7.21172-1.77377-10.04249-2.33441l-8.00232.453c-1.21626.81054-2.43494,1.57251-3.17016,2.08158-1.96914,1.36322-12.42017,2.12051-13.32889.75736a2.137,2.137,0,0,1-.23879-.69589,24.37181,24.37181,0,0,1-5.55961,1.83183c-1.98533,14.80261,9.28212,27.188,9.28212,27.188s-4.544,1.66615-6.05873,4.241c-1.51471,2.57494,2.12058,8.4821,2.12058,8.4821s-6.57469,21.26272-7.62253,24.92951c-.04228.14782-.07866.27711-.10221.36513-.51476,1.93035,7.82306,3.75054,10.34348,4.25453.44614.08922.71342.138.71342.138l19.842-34.98845s14.54062-.45443,18.47864-.45443c3.93815,0,11.35989-4.84687,17.57-8.482,6.21-3.63515,6.81588-12.11718,5.60416-17.41848-.74792-3.27229-4.1479-5.67546-6.643-7.03834l.14661.45336S700.20618,140.4196,699.56313,138.32009Z"/><path class="cls-3" d="M674.07973,126.82971s.303-1.06029-4.24087-.75736a100.12743,100.12743,0,0,1-10.25827,2.524,5.00336,5.00336,0,0,1-1.61571.05325.33611.33611,0,0,1-.2432-.15378c-.14916-.34781.50539-.729,1.40823-1.14737,1.84941-.85695,4.75684-1.87236,4.04436-3.09371-.76692-1.31479-3.43074-.56847-5.078.2315a4.40361,4.40361,0,0,0-1.28342.82879,2.58307,2.58307,0,0,1-1.11754.59429l.26353.097-1.11032,3.96537-1.52407,5.44277s-.19839.10307-.537.26159a2.137,2.137,0,0,0,.23879.69589c.90872,1.36315,11.35975.60586,13.32889-.75736.73522-.50907,1.9539-1.271,3.17016-2.08158.72157-.48091,1.44234-.97881,2.06064-1.45123,1.12972-.86331,1.92059-1.642,1.73665-2.07135C673.32258,130.0105,675.89745,127.89,674.07973,126.82971Z"/><path class="cls-3" d="M681.87818,118.33431l-18.70391,5.92046c.71248,1.22135-2.19495,2.23676-4.04436,3.09371-.90284.41838-1.55739.79956-1.40823,1.14737a.33611.33611,0,0,0,.2432.15378,5.00336,5.00336,0,0,0,1.61571-.05325,100.12743,100.12743,0,0,0,10.25827-2.524c4.54387-.30293,4.24087.75736,4.24087.75736,1.81772,1.06028-.75715,3.18079-.75715,3.18079.18394.42935-.60693,1.208-1.73665,2.07135-.6183.47242-1.33907.97032-2.06064,1.45123l8.00232-.453,14.906-.84371Z"/><path class="cls-3" d="M675.746,172.11777c.33965-.6206,12.69711-26.49405,10.38009-31.25682s-8.59849-7.78082-8.59849-7.78082"/><path class="cls-3" d="M652.57181,177.41907s11.67127-31.15173,8.96808-34.756-7.98087-3.34681-7.98087-3.34681"/><path class="cls-3" d="M683.03673,155.278l10.94151-8.49576s-7.20852,1.93085-7.85214-1.15852"/><circle class="cls-7" cx="671.64469" cy="44.25387" r="0.70798"/><circle class="cls-7" cx="682.65056" cy="44.31823" r="0.70798"/><path class="cls-3" d="M703.27735,115.57644c.50442-2.3351-5.08158-17.34749-.19383-22.23524"/><rect class="cls-3" x="377.07465" y="269.66986" width="30.42574" height="30.42574"/><path class="cls-2" d="M436.78216,359.17825a91.205,91.205,0,0,0-5.76512,7.48692c3.89586.64581,11.23527,1.68743,16.36058,2.40078C443.93936,363.26857,436.78216,359.17825,436.78216,359.17825Z"/><path class="cls-2" d="M437.9865,296.81514a5.03948,5.03948,0,0,0-.684-.47477,25.87246,25.87246,0,0,1,.09174,5.50508,13.09889,13.09889,0,0,1,1.07983-2.729c.51075-.89384.561-.97694,1.194-.723C439.13009,297.84815,438.5639,297.31006,437.9865,296.81514Z"/><path class="cls-2" d="M431.386,287.40591c3.76326,1.66169,5.39911,5.10974,5.91649,8.93446a5.03948,5.03948,0,0,1,.684.47477c.5774.49492,1.14359,1.033,1.68154,1.57823a20.66261,20.66261,0,0,0,6.70144,1.569c7.89546.846,4.51169,6.20357,4.51169,6.20357a5.25148,5.25148,0,0,1,1.88154.55952c2.42242-2.47734,7.24953-6.3115,4.04225-10.89334-3.9322-5.61746-31.45775-13.06059-31.45775-13.06059s-8.14528-16.43106-9.40922-15.16713,1.12348,5.477.70217,4.91527-5.61745-8.8475-6.31968-7.724c-.70216,1.12349,2.94919,7.44313,2.94919,7.44313s-5.75785-7.86445-6.46007-7.16225c-.70217.70218,2.80872,7.86443,2.80872,7.86443s-4.35351-5.19615-5.05568-3.37048,7.02178,9.83056,7.58355,11.5158-.56177,1.26393-6.88138.70218-3.65066,2.90991-.84263,3.23a33.023,33.023,0,0,1,7.62061,2.00614,24.30859,24.30859,0,0,1,3.05258-1.72525C424.50462,280.8054,425.92791,284.99585,431.386,287.40591Z"/><path class="cls-2" d="M434.24434,326.18653c5.07564-4.51169,8.4594-13.25308,8.4594-13.25308,2.5095-5.77189-4.1376-7.97032-5.6309-8.38426a45.94926,45.94926,0,0,1-1.44108,6.27683,9.0413,9.0413,0,0,1-.454,3.68411,55.34467,55.34467,0,0,0,.28089,5.89833c.17633,1.05812-2.91393,3.00112-6.38527,3.50188,1.06487,1.32745,2.27627,2.85041,3.271,4.1355C432.97027,327.37692,433.60727,326.75279,434.24434,326.18653Z"/><path class="cls-2" d="M437.30249,296.34037c-.51738-3.82472-2.15323-7.27277-5.91649-8.93446-5.45809-2.41006-6.88138-6.60051-16.29063-2.10654a24.30859,24.30859,0,0,0-3.05258,1.72525c-6.51727,4.36258-6.96091,9.98643-5.23319,13.44187,1.9661,3.93223,3.37049,8.28576,8.00492,11.9371,3.98753,3.1417,2.88588,3.89188,7.15091,4.398.66238-1.43613,1.4731-2.9053,1.41571-4.398-.12659-3.291,1.91568-5.32611,6.53568-5.38747.50584-.00671,1.04137.0093,1.60961.05088,2.95857.21648,3.91283,1.99022,4.10533,3.759a45.94926,45.94926,0,0,0,1.44108-6.27683c.07741-.49977.14723-1.011.20686-1.53049q.06659-.58056.11453-1.17325A25.87246,25.87246,0,0,0,437.30249,296.34037Z"/><path class="cls-2" d="M435.17777,314.51013a9.0413,9.0413,0,0,0,.454-3.68411c-.1925-1.7688-1.14676-3.54254-4.10533-3.759-.56824-.04158-1.10377-.05759-1.60961-.05088-4.62.06136-6.66227,2.09647-6.53568,5.38747.05739,1.49267-.75333,2.96184-1.41571,4.398-.95783,2.07693-1.605,4.08474,1.1348,5.99433a8.3081,8.3081,0,0,0,5.97316,1.11445c3.47134-.50076,6.5616-2.44376,6.38527-3.50188A55.34467,55.34467,0,0,1,435.17777,314.51013Z"/><path class="cls-2" d="M482.181,359.7422c-4.51169-8.45944-13.2531-32.42775-18.61074-40.60519-4.39613-6.70992-7.8426-10.94943-10.80758-12.41158a5.25148,5.25148,0,0,0-1.88154-.55952s3.38377-5.35762-4.51169-6.20357a20.66261,20.66261,0,0,1-6.70144-1.569c-.633-.2539-.68323-.1708-1.194.723a13.09889,13.09889,0,0,0-1.07983,2.729q-.048.59175-.11453,1.17325c-.05963.51949-.12945,1.03072-.20686,1.53049,1.4933.41394,8.1404,2.61237,5.6309,8.38426,0,0-3.38376,8.74139-8.4594,13.25308-.63707.56626-1.27407,1.19039-1.89994,1.85931-4.36091,4.66076-8.18057,11.50224-7.68738,16.18743.56394,5.35763,1.69186,6.76752-1.40993,12.12516a77.88843,77.88843,0,0,1-4.915,7.52121c4.85727.88292,9.07635,2.10544,10.80692,2.45155.45825.09165,1.09954.20494,1.87806.334a91.205,91.205,0,0,1,5.76512-7.48692s7.1572,4.09032,10.59546,9.8877a12.53813,12.53813,0,0,1,1.70334,4.56793c.59942,4.14289-3.08958,6.46007-3.08958,6.46007s23.67077-.5396,38.0054,5.21812c.94192.37834,1.844.78361,2.69591,1.21826C486.69269,386.53033,486.69269,368.20163,482.181,359.7422Z"/><path class="cls-2" d="M453.88212,426.282a18.60605,18.60605,0,0,1,3.48461,3.80732c.983,1.96613-4.35354,4.494-6.46007,7.724s4.63437,3.51092,10.81359,4.07266,11.79666-24.85723,11.09449-29.77251c-.42771-2.99382-5.85683-4.05991-10.03624-4.43595C461.24,409.09577,456.47729,420.26252,453.88212,426.282Z"/><path class="cls-2" d="M421.6959,423.06751c-7.58361,2.10656-3.08964,4.07266-3.08964,4.07266,4.57523,2.43361,14.20959-.26062,19.69221-2.1433-3.541-1.43014-7.49112-3.08657-11.51674-4.87014A10.449,10.449,0,0,1,421.6959,423.06751Z"/><path class="cls-2" d="M483.99678,385.31207c-14.33463-5.75772-38.0054-5.21812-38.0054-5.21812s3.689-2.31718,3.08958-6.46007a12.53813,12.53813,0,0,0-1.70334-4.56793c-5.12531-.71335-12.46472-1.755-16.36058-2.40078-.77852-.129-1.41981-.24233-1.87806-.334-1.73057-.34611-5.94965-1.56863-10.80692-2.45155-6.96781-1.26657-15.24935-1.834-19.38686,1.88981-2.50487,2.25432-5.24613,5.01436-5.1962,7.58355.105,5.3979,5.89836,10.25187,5.89836,10.25187s-6.04373,1.48815-7.44315,6.03876c-.94795,3.08261,1.65285,9.20133,5.05574,13.34145,4.10922,4.99956,17.16925,11.66882,29.52178,17.14165,4.02562,1.78357,7.97576,3.44,11.51674,4.87014,7.87366,3.18,13.72322,5.24133,13.87213,5.09245.11111-.11114.7682-1.61931,1.71152-3.80732,2.59517-6.01948,7.35787-17.18623,8.89638-18.60448.0221-.02037.04452-.04172.06525-.058C464.74519,406.12552,488.05477,410.67146,483.99678,385.31207Z"/><path class="cls-8" d="M438.87471,359.33415a91.20323,91.20323,0,0,0-5.76512,7.48692c3.89586.6458,11.23526,1.68742,16.36058,2.40078C446.0319,363.42446,438.87471,359.33415,438.87471,359.33415Z"/><path class="cls-8" d="M440.079,296.971a5.03731,5.03731,0,0,0-.684-.47477,25.8717,25.8717,0,0,1,.09175,5.50507,13.09887,13.09887,0,0,1,1.07982-2.729c.51076-.89384.561-.97694,1.194-.723C441.22263,298.004,440.65645,297.466,440.079,296.971Z"/><path class="cls-12" d="M433.47855,287.5618c3.76326,1.6617,5.39911,5.10974,5.91648,8.93447a5.03731,5.03731,0,0,1,.684.47477c.57741.49491,1.14359,1.033,1.68155,1.57822a20.66261,20.66261,0,0,0,6.70144,1.569c7.89546.846,4.51169,6.20358,4.51169,6.20358a5.25131,5.25131,0,0,1,1.88154.55951c2.42242-2.47733,7.24953-6.31149,4.04225-10.89333-3.9322-5.61747-31.45775-13.0606-31.45775-13.0606s-8.14528-16.43106-9.40922-15.16712,1.12348,5.477.70217,4.91526-5.61745-8.84749-6.31968-7.724c-.70216,1.12349,2.94918,7.44313,2.94918,7.44313s-5.75784-7.86444-6.46007-7.16225c-.70216.70218,2.80873,7.86443,2.80873,7.86443s-4.35351-5.19615-5.05568-3.37047c-.70223,1.82567,7.02178,9.83056,7.58355,11.51579s-.56177,1.26393-6.88138.70218-3.65067,2.90992-.84263,3.23a33.023,33.023,0,0,1,7.62061,2.00615,24.3086,24.3086,0,0,1,3.05258-1.72526C426.59717,280.96129,428.02046,285.15174,433.47855,287.5618Z"/><path class="cls-12" d="M436.33689,326.34242c5.07563-4.51169,8.4594-13.25308,8.4594-13.25308,2.5095-5.77189-4.1376-7.97032-5.63091-8.38426a45.94912,45.94912,0,0,1-1.44107,6.27683,9.04136,9.04136,0,0,1-.454,3.68412,55.34467,55.34467,0,0,0,.28089,5.89833c.17633,1.05811-2.91393,3.00111-6.38527,3.50187,1.06487,1.32745,2.27627,2.85041,3.271,4.1355C435.06282,327.53282,435.69982,326.90868,436.33689,326.34242Z"/><path class="cls-13" d="M439.395,296.49627c-.51737-3.82473-2.15322-7.27277-5.91648-8.93447-5.45809-2.41006-6.88138-6.60051-16.29063-2.10654a24.3086,24.3086,0,0,0-3.05258,1.72526c-6.51728,4.36257-6.96091,9.98642-5.2332,13.44186,1.9661,3.93223,3.3705,8.28576,8.00492,11.93711,3.98754,3.14169,2.88589,3.89187,7.15092,4.398.66237-1.43613,1.4731-2.9053,1.41571-4.398-.12659-3.291,1.91567-5.32612,6.53568-5.38747.50584-.00672,1.04137.00929,1.6096.05087,2.95857.21649,3.91284,1.99023,4.10534,3.759a45.94912,45.94912,0,0,0,1.44107-6.27683c.07741-.49976.14724-1.011.20687-1.53049q.06658-.58055.11453-1.17325A25.8717,25.8717,0,0,0,439.395,296.49627Z"/><path class="cls-13" d="M437.27032,314.666a9.04136,9.04136,0,0,0,.454-3.68412c-.1925-1.76879-1.14677-3.54253-4.10534-3.759-.56823-.04158-1.10376-.05759-1.6096-.05087-4.62.06135-6.66227,2.09647-6.53568,5.38747.05739,1.49266-.75334,2.96183-1.41571,4.398-.95784,2.07693-1.605,4.08474,1.13479,5.99434a8.30809,8.30809,0,0,0,5.97317,1.11444c3.47134-.50076,6.5616-2.44376,6.38527-3.50187A55.34467,55.34467,0,0,1,437.27032,314.666Z"/><path class="cls-5" d="M484.27357,359.89809c-4.51168-8.45943-13.25309-32.42774-18.61073-40.60519-4.39613-6.70991-7.84261-10.94942-10.80758-12.41158a5.25131,5.25131,0,0,0-1.88154-.55951s3.38377-5.35763-4.51169-6.20358a20.66261,20.66261,0,0,1-6.70144-1.569c-.633-.2539-.68323-.1708-1.194.723a13.09887,13.09887,0,0,0-1.07982,2.729q-.048.59175-.11453,1.17325c-.05963.51949-.12946,1.03073-.20687,1.53049,1.49331.41394,8.14041,2.61237,5.63091,8.38426,0,0-3.38377,8.74139-8.4594,13.25308-.63707.56626-1.27407,1.1904-1.89995,1.85931-4.36091,4.66076-8.18056,11.50224-7.68738,16.18744.564,5.35762,1.69187,6.76751-1.40992,12.12515a77.8898,77.8898,0,0,1-4.915,7.52122c4.85727.88291,9.07636,2.10544,10.80693,2.45154.45825.09165,1.09954.20494,1.87806.334a91.20323,91.20323,0,0,1,5.76512-7.48692s7.15719,4.09031,10.59546,9.8877a12.538,12.538,0,0,1,1.70334,4.56793c.59942,4.14288-3.08958,6.46007-3.08958,6.46007s23.67077-.53961,38.0054,5.21811c.94192.37835,1.844.78362,2.6959,1.21826C488.78523,386.68622,488.78523,368.35752,484.27357,359.89809Z"/><path class="cls-7" d="M455.97466,426.4379a18.6056,18.6056,0,0,1,3.48462,3.80731c.98305,1.96613-4.35354,4.494-6.46007,7.724s4.63437,3.51092,10.81358,4.07265,11.79666-24.85722,11.0945-29.7725c-.42772-2.99383-5.85683-4.05991-10.03624-4.436C463.33254,409.25167,458.56984,420.41841,455.97466,426.4379Z"/><path class="cls-7" d="M423.78844,423.22341c-7.5836,2.10655-3.08963,4.07265-3.08963,4.07265,4.57523,2.43361,14.20959-.26061,19.69221-2.1433-3.541-1.43013-7.49112-3.08656-11.51674-4.87014A10.44917,10.44917,0,0,1,423.78844,423.22341Z"/><path class="cls-4" d="M486.08933,385.468c-14.33463-5.75772-38.0054-5.21811-38.0054-5.21811s3.689-2.31719,3.08958-6.46007a12.538,12.538,0,0,0-1.70334-4.56793c-5.12532-.71336-12.46472-1.755-16.36058-2.40078-.77852-.12905-1.41981-.24234-1.87806-.334-1.73057-.3461-5.94966-1.56863-10.80693-2.45154-6.9678-1.26658-15.24935-1.834-19.38686,1.88981-2.50486,2.25432-5.24612,5.01436-5.19619,7.58354.105,5.3979,5.89836,10.25187,5.89836,10.25187s-6.04373,1.48815-7.44315,6.03876c-.94795,3.08261,1.65285,9.20133,5.05574,13.34145,4.10922,4.99956,17.16925,11.66883,29.52178,17.14165,4.02562,1.78358,7.97576,3.44,11.51674,4.87014,7.87366,3.18,13.72321,5.24134,13.87213,5.09245.11111-.11114.76819-1.6193,1.71151-3.80731,2.59518-6.01949,7.35788-17.18623,8.89639-18.60449.0221-.02036.04451-.04172.06525-.058C466.83774,406.28141,490.14731,410.82736,486.08933,385.468Z"/><path class="cls-8" d="M436.09258,359.16464a91.20534,91.20534,0,0,0-5.76511,7.48692c3.89585.64581,11.23526,1.68743,16.36058,2.40078C443.24978,363.255,436.09258,359.16464,436.09258,359.16464Z"/><path class="cls-8" d="M437.29692,296.80153a5.03884,5.03884,0,0,0-.684-.47477,25.87115,25.87115,0,0,1,.09174,5.50508,13.09944,13.09944,0,0,1,1.07983-2.729c.51076-.89384.561-.97694,1.194-.723C438.44051,297.83454,437.87433,297.29645,437.29692,296.80153Z"/><path class="cls-3" d="M430.69643,287.3923c3.76326,1.66169,5.39911,5.10974,5.91648,8.93446a5.03884,5.03884,0,0,1,.684.47477c.57741.49492,1.14359,1.033,1.68155,1.57823a20.66261,20.66261,0,0,0,6.70144,1.569c7.89546.846,4.51169,6.20357,4.51169,6.20357a5.25154,5.25154,0,0,1,1.88154.55952c2.42241-2.47733,7.24953-6.3115,4.04225-10.89334-3.9322-5.61746-31.45775-13.06059-31.45775-13.06059s-8.14529-16.43106-9.40922-15.16713,1.12348,5.477.70216,4.91527-5.61744-8.8475-6.31967-7.724c-.70216,1.12349,2.94918,7.44313,2.94918,7.44313s-5.75784-7.86445-6.46007-7.16225c-.70216.70218,2.80873,7.86443,2.80873,7.86443s-4.35352-5.19615-5.05568-3.37048c-.70223,1.82568,7.02178,9.83057,7.58354,11.5158s-.56176,1.26393-6.88138.70218-3.65066,2.90991-.84262,3.23a33.02276,33.02276,0,0,1,7.6206,2.00614,24.30946,24.30946,0,0,1,3.05259-1.72525C423.81505,280.79179,425.23834,284.98224,430.69643,287.3923Z"/><path class="cls-3" d="M433.55477,326.17292c5.07563-4.51169,8.4594-13.25308,8.4594-13.25308,2.50949-5.77189-4.1376-7.97032-5.63091-8.38426a45.94776,45.94776,0,0,1-1.44108,6.27683,9.04136,9.04136,0,0,1-.454,3.68411,55.34662,55.34662,0,0,0,.28088,5.89833c.17634,1.05812-2.91392,3.00112-6.38527,3.50188,1.06488,1.32745,2.27627,2.85041,3.271,4.1355C432.2807,327.36331,432.9177,326.73918,433.55477,326.17292Z"/><path class="cls-3" d="M436.61291,296.32676c-.51737-3.82472-2.15322-7.27277-5.91648-8.93446-5.45809-2.41006-6.88138-6.60051-16.29063-2.10654a24.30946,24.30946,0,0,0-3.05259,1.72525c-6.51727,4.36258-6.9609,9.98643-5.23319,13.44187,1.9661,3.93223,3.37049,8.28576,8.00492,11.9371,3.98754,3.1417,2.88589,3.89188,7.15092,4.398.66237-1.43613,1.4731-2.9053,1.41571-4.398-.12659-3.291,1.91567-5.32611,6.53567-5.38747.50585-.00671,1.04138.0093,1.60961.05088,2.95857.21648,3.91283,1.99022,4.10533,3.759a45.94776,45.94776,0,0,0,1.44108-6.27683c.07741-.49977.14724-1.011.20686-1.53049q.0666-.58056.11453-1.17325A25.87115,25.87115,0,0,0,436.61291,296.32676Z"/><path class="cls-3" d="M434.4882,314.49652a9.04136,9.04136,0,0,0,.454-3.68411c-.1925-1.7688-1.14676-3.54254-4.10533-3.759-.56823-.04158-1.10376-.05759-1.60961-.05088-4.62.06136-6.66226,2.09647-6.53567,5.38747.05739,1.49267-.75334,2.96184-1.41571,4.398-.95784,2.07693-1.605,4.08474,1.13479,5.99433a8.30812,8.30812,0,0,0,5.97316,1.11445c3.47135-.50076,6.56161-2.44376,6.38527-3.50188A55.34662,55.34662,0,0,1,434.4882,314.49652Z"/><path class="cls-3" d="M481.49145,359.72859c-4.51169-8.45944-13.25309-32.42775-18.61073-40.60519-4.39614-6.70992-7.84261-10.94942-10.80758-12.41158a5.25154,5.25154,0,0,0-1.88154-.55952s3.38377-5.35762-4.51169-6.20357a20.66261,20.66261,0,0,1-6.70144-1.569c-.633-.2539-.68323-.1708-1.194.723a13.09944,13.09944,0,0,0-1.07983,2.729q-.048.59175-.11453,1.17325c-.05962.51949-.12945,1.03072-.20686,1.53049,1.49331.41394,8.1404,2.61237,5.63091,8.38426,0,0-3.38377,8.74139-8.4594,13.25308-.63707.56626-1.27407,1.19039-1.9,1.85931-4.36091,4.66076-8.18057,11.50224-7.68738,16.18743.56395,5.35763,1.69187,6.76752-1.40993,12.12516a77.88648,77.88648,0,0,1-4.915,7.52121c4.85727.88292,9.07636,2.10544,10.80693,2.45155.45825.09165,1.09954.20494,1.87806.334a91.20534,91.20534,0,0,1,5.76511-7.48692s7.1572,4.09032,10.59547,9.8877a12.53813,12.53813,0,0,1,1.70334,4.56793c.59941,4.14289-3.08958,6.46007-3.08958,6.46007s23.67076-.5396,38.0054,5.21812c.94192.37834,1.844.78361,2.6959,1.21826C486.00311,386.51672,486.00311,368.188,481.49145,359.72859Z"/><path class="cls-3" d="M453.19254,426.26839a18.60586,18.60586,0,0,1,3.48462,3.80732c.983,1.96613-4.35354,4.494-6.46007,7.724s4.63437,3.51092,10.81358,4.07266,11.79666-24.85722,11.0945-29.77251c-.42772-2.99382-5.85683-4.05991-10.03625-4.43595C460.55042,409.08216,455.78772,420.24891,453.19254,426.26839Z"/><path class="cls-3" d="M421.00632,423.0539c-7.58361,2.10656-3.08964,4.07266-3.08964,4.07266,4.57524,2.43361,14.2096-.26061,19.69222-2.1433-3.541-1.43014-7.49112-3.08657-11.51675-4.87014A10.449,10.449,0,0,1,421.00632,423.0539Z"/><path class="cls-3" d="M483.30721,385.29846c-14.33464-5.75772-38.0054-5.21812-38.0054-5.21812s3.689-2.31718,3.08958-6.46007a12.53813,12.53813,0,0,0-1.70334-4.56793c-5.12532-.71335-12.46473-1.755-16.36058-2.40078-.77852-.129-1.41981-.24233-1.87806-.334-1.73057-.34611-5.94966-1.56863-10.80693-2.45155-6.9678-1.26657-15.24935-1.834-19.38686,1.88981-2.50486,2.25432-5.24612,5.01436-5.19619,7.58355.105,5.3979,5.89836,10.25187,5.89836,10.25187s-6.04373,1.48815-7.44315,6.03876c-.94795,3.08261,1.65285,9.20133,5.05574,13.34145,4.10921,4.99956,17.16925,11.66882,29.52177,17.14165,4.02563,1.78357,7.97576,3.44,11.51675,4.87014,7.87366,3.18,13.72321,5.24133,13.87213,5.09245.11111-.11114.76819-1.61931,1.71151-3.80732,2.59518-6.01948,7.35788-17.18623,8.89638-18.60448.02211-.02037.04452-.04172.06526-.058C464.05561,406.11191,487.36519,410.65785,483.30721,385.29846Z"/><path class="cls-3" d="M462.08892,407.66391S445.71,402.279,438.418,400.95315s-24.96952-5.96617-27.40018-4.41939"/><path class="cls-3" d="M398.95779,383.59126a53.39319,53.39319,0,0,1,22.00363-3.63018c11.93234.44194,24.34039.11926,24.34039.11926"/><path class="cls-3" d="M436.09258,359.16464s6.30285-3.51017,5.86091-7.92955"/><rect class="cls-3" x="387.02821" y="146.14591" width="30.42574" height="30.42574"/></g></svg>