<?xml version="1.0" encoding="UTF-8"?>
<svg id="Layer_3" data-name="Layer 3" xmlns="http://www.w3.org/2000/svg" viewBox="0 0 841.89 467.72">
  <defs>
    <style>
      .cls-1, .cls-2 {
        stroke: #54565a;
      }

      .cls-1, .cls-2, .cls-3 {
        stroke-miterlimit: 10;
      }

      .cls-1, .cls-4 {
        fill: #54565a;
      }

      .cls-2, .cls-3 {
        fill: none;
      }

      .cls-4, .cls-5, .cls-6, .cls-7, .cls-8, .cls-9, .cls-10 {
        stroke-width: 0px;
      }

      .cls-3 {
        stroke: #1d1d1b;
      }

      .cls-5 {
        fill: #e7ad87;
      }

      .cls-6 {
        fill: #989a9c;
      }

      .cls-7 {
        fill: #609c70;
      }

      .cls-8 {
        fill: #6ba5c8;
      }

      .cls-9 {
        fill: #fff;
      }

      .cls-10 {
        fill: #bbbbbd;
      }
    </style>
  </defs>
  <rect class="cls-8" x="-30.91" y="-5.45" width="887.44" height="479.62"/>
  <g>
    <line class="cls-2" x1="607.8" y1="164.55" x2="788.55" y2="141.85"/>
    <polyline class="cls-2" points="715.56 151.02 711.24 108.48 810.19 96.79"/>
    <circle class="cls-2" cx="814.56" cy="96.79" r="4.37"/>
    <circle class="cls-2" cx="793.74" cy="141.85" r="4.37"/>
  </g>
  <g>
    <line class="cls-2" x1="695.77" y1="234.53" x2="796.12" y2="224.9"/>
    <circle class="cls-2" cx="800.49" cy="224.9" r="4.37"/>
  </g>
  <g>
    <line class="cls-2" x1="537.91" y1="80.51" x2="638.26" y2="70.88"/>
    <circle class="cls-2" cx="642.63" cy="70.88" r="4.37"/>
  </g>
  <g>
    <line class="cls-2" x1="191.67" y1="284.55" x2="31.79" y2="303.57"/>
    <circle class="cls-2" cx="27.42" cy="303.57" r="4.37"/>
  </g>
  <g>
    <line class="cls-2" x1="224.07" y1="247.27" x2="64.2" y2="266.28"/>
    <circle class="cls-2" cx="59.83" cy="266.28" r="4.37"/>
  </g>
  <g>
    <line class="cls-2" x1="191.67" y1="193.25" x2="31.79" y2="212.26"/>
    <circle class="cls-2" cx="27.42" cy="212.26" r="4.37"/>
  </g>
  <g>
    <polyline class="cls-2" points="544.44 332.33 544.91 378.85 218.35 410.27"/>
    <circle class="cls-2" cx="213.98" cy="410.27" r="4.37"/>
  </g>
  <path class="cls-9" d="M717.23,251.19c0-47.2-33.18-86.07-75.82-86.86-6.74-.12-13.33.71-19.67,2.39,1.05-5.94,1.6-12.08,1.6-18.38,0-52.03-38.23-97.12-87.57-100.88-26.81-2.04-51.59,8.46-69.34,27.18-18.06-21.23-44.36-35.84-74.35-38.12-58.55-4.46-108.66,39.46-110.7,99.02-13.66-4.63-28.51-7.41-44.17-7.9-79.1-2.47-147.36,53.91-147.36,126.09,0,30.82,12.45,58.21,32.88,79,27.4,27.89,69.16,43.91,114.48,40.46l410.92-31.29-.14-.3c39.41-6.68,69.24-45.63,69.24-90.42Z"/>
  <path class="cls-2" d="M717.23,253.19c0-47.2-33.18-86.07-75.82-86.86-6.74-.12-13.33.71-19.67,2.39,1.05-5.94,1.6-12.08,1.6-18.38,0-52.03-38.23-97.12-87.57-100.88-26.81-2.04-51.59,8.46-69.34,27.18-18.06-21.23-44.36-35.84-74.35-38.12-58.55-4.46-108.66,39.46-110.7,99.02-13.66-4.63-28.51-7.41-44.17-7.9-79.1-2.47-147.36,53.91-147.36,126.09,0,30.82,12.45,58.21,32.88,79,27.4,27.89,69.16,43.91,114.48,40.46l410.92-31.29-.14-.3c39.41-6.68,69.24-45.63,69.24-90.42Z"/>
  <g>
    <polygon class="cls-10" points="385.65 213.44 449.94 206.18 449.94 141.88 385.65 134.62 385.65 213.44"/>
    <polyline class="cls-4" points="419.55 167.12 416.16 170.49 414.33 180.21 421.27 180.95 420.62 170.84"/>
    <circle class="cls-4" cx="420.03" cy="157.67" r="1.24"/>
    <circle class="cls-4" cx="419.04" cy="187.49" r="1.24"/>
    <polygon class="cls-9" points="421.11 163.39 416.96 165.06 416.16 170.49 420.62 170.84 424.68 167.12 421.11 163.39"/>
  </g>
  <g>
    <polygon class="cls-3" points="420.64 161.39 416.49 163.06 415.69 168.49 420.15 168.84 424.21 165.11 421.78 163.21 421.52 161.74 420.64 161.39"/>
    <polyline class="cls-3" points="419.95 161.39 419.09 165.11 423.16 166.08"/>
    <polyline class="cls-3" points="419.09 165.11 415.69 168.49 413.86 178.21 420.8 178.94 420.15 168.84"/>
    <circle class="cls-3" cx="419.56" cy="155.67" r="1.24"/>
    <circle class="cls-3" cx="418.57" cy="185.49" r="1.24"/>
    <polygon class="cls-3" points="385.18 211.44 449.47 204.17 449.47 139.88 385.18 132.62 385.18 211.44"/>
  </g>
  <g>
    <path class="cls-9" d="M432.21,168.09c1.18,2.63,3.48,5.45,4.96,5.51,1.21.04,1.28-1.19,1.08-2.36-.52-.24-1.02-.46-1.5-.66-1.7-.69-3.27-1.58-4.53-2.49Z"/>
    <path class="cls-9" d="M440.29,166.39c.39-.6-.61-2.09-2.77-3.55-2.26-.06-5.29.13-5.91,1.58,0,0,0,0,0,0,3.13.71,8.28,2.58,8.68,1.97Z"/>
    <path class="cls-9" d="M446.46,161.06c-1.3-1.19-2.41-1.59-3.3-1.61-2.05-.04-4.08-.37-5.91-1.29-2.38-1.19-6-2-10.79-.2,0,0-3.34,1.72-.86,2.93,2.47,1.21,4.63-1.51,8.87.3,1.19.51,2.21,1.08,3.06,1.65,2.16,1.46,3.16,2.95,2.77,3.55-.4.61-5.54-1.26-8.68-1.97-1.16-.26-2.05-.37-2.31-.14-.63.56.66,2.2,2.91,3.8,1.27.9,2.83,1.8,4.53,2.49.48.19.99.42,1.5.66,4.54,2.09,10.24,5.58,14.82,6.46,2,.38,3.69.78,5.02,1.12,1.35-2.2,2.24-5.15,2.68-6.82-3.78-2.73-11.55-8.39-14.31-10.93Z"/>
    <path class="cls-9" d="M568.79,177.69c1.13-5.33-1.2-7.67-3.8-8.68-1.52-.59-1.93-2.54-.69-3.6,4.59-3.91,6.06-9.17.91-8.19-6.67,1.27-12.23-4.45-12.23-4.45,0,0-2.8,2.44-5.08,6.83s-4.44,8.83-6.34,9.71c-2.3,1.06-3.18.63-3.4,1.91-.46,2.61,4.29,3.65,4.29,3.65,0,0-4.65,14.44-2.02,16.5,2.63,2.06,7.84,2.67,11.29,3.65,1.71.49,1.67,4.34,1.22,7.99-.43,3.48-1.22,6.78-1.22,6.78l-7.47,37.49s26.46-38.04,32.13-48.31c.66-1.2,1.05-2.03,1.06-2.36,0,0-11.03-7.64-8.65-18.92Z"/>
    <polygon class="cls-9" points="569.63 419.81 567.44 410.93 565.22 419.81 569.63 419.81"/>
    <path class="cls-9" d="M558.36,419.81l5.8-22.27-1.53-6.24c-10.78,2.52-20.92,4.29-27.16,5.29,0,0,2.3,9.24,5.62,23.22h17.28Z"/>
    <path class="cls-9" d="M576.57,419.81h6.82c1.85,0,3.35,1.5,3.35,3.35v3.19c0,1.85-1.5,3.35-3.35,3.35h-4.19l33.11,124.54c7.78-2.73,8.7-6.7,8.7-6.7l-24.25-167.53h-.02c-7.64,3.93-17.91,7.21-28.14,9.83l7.97,29.97Z"/>
    <path class="cls-9" d="M552.6,470.34c1.66,7.65,3.28,15.35,4.78,22.81,12.15-.66,29.89-1.51,29.89-1.51l-15.22-61.94h-9.3l-10.15,40.64Z"/>
    <path class="cls-9" d="M554.44,429.7l-10.89-.43c1.77,7.56,3.7,16.94,5.66,25.69l6.57-25.26h-1.35Z"/>
    <path class="cls-9" d="M562.15,389.37l-9.68-39.43-13.32,4c.28,2.08.94,4.01.19,5.05-1.33,1.85-3.9-1.33-3.9-1.33,0,0,.18,3.09-1.13,3.49-1.28.39-2.65-1.67-3.57-4.69l-3.33,1c.94,22.75,1.7,40.08,1.7,40.08,0,0,2.39-.32,6.35-.95,6.24-.99,16.38-2.76,27.16-5.29l-.47-1.93Z"/>
    <polygon class="cls-9" points="531.73 493.74 516.22 428.71 507.99 429.14 521.4 493.74 531.73 493.74"/>
    <path class="cls-9" d="M530.73,356.47c-.6-1.97-1.01-4.35-1.06-6.72l-2.57.55-34.82,9.65,13.03,59.87h7.94l-13.51-54.05,27.67-8.3,3.33-1Z"/>
    <path class="cls-9" d="M551.33,332.74s-3.14,2.18-8.21,4.31c-5.92,2.49-12.22,4.47-13.05,8.17-.32,1.42-.44,2.97-.4,4.53.05,2.37.46,4.75,1.06,6.72.92,3.01,2.3,5.08,3.57,4.69,1.31-.4,1.13-3.49,1.13-3.49,0,0,2.56,3.18,3.9,1.33.75-1.04.08-2.97-.19-5.05-.21-1.62-.19-3.33.91-4.79.65-.86,1.49-1.55,2.44-2.15,5.6-3.53,15.44-3.24,18.43-8.33l.18-2.03-9.76-3.9Z"/>
    <path class="cls-9" d="M586.74,426.35v-3.19c0-1.85-1.5-3.35-3.35-3.35h-6.82l2.63,9.89h4.19c1.85,0,3.35-1.5,3.35-3.35Z"/>
    <polygon class="cls-9" points="565.22 419.81 567.44 410.93 564.15 397.54 558.36 419.81 565.22 419.81"/>
    <path class="cls-9" d="M444.76,651.92s.65.11,1.81.3l15.76-67.68-3.17-.26,3.24-10.79,2.47.17,15.95-68.52h-2.59l2.59-11.4h2.66l14.22-64.05-5.49.29-79.39,300.71h15.49l15.82-67.92-2.05-.4,2.7-10.43Z"/>
    <path class="cls-9" d="M569.63,419.81h-74.1c-2.04,0-3.7,1.66-3.7,3.7v6.48l.37-.02,5.49-.29,10.31-.54,8.23-.43,27.33.56,10.89.43h17.61l-2.43-9.89Z"/>
    <path class="cls-9" d="M612.31,554.25l-33.11-124.54-2.63-9.89-7.97-29.97-.55-2.07-11.63-43.76-13.93,2.99c-.95.6-1.79,1.29-2.44,2.15-1.1,1.46-1.12,3.17-.91,4.79l13.32-4,9.68,39.43.47,1.93,1.53,6.24,3.29,13.39,2.18,8.88,2.43,9.89,15.22,61.94h0l2.76,11.22,11.34,46.18,1.73,7.05,5.8,23.61,16.59,67.52,3.42,13.92,16.49,67.14h13.18l-46.27-174.03Z"/>
    <polygon class="cls-9" points="555.79 429.7 549.21 454.96 539.12 493.74 536.15 505.14 535.35 508.22 529.47 530.82 517.35 577.36 514.36 588.85 495.66 660.7 492.64 672.3 477.45 730.68 487.58 730.68 533.21 548 539.25 523.82 542.58 510.48 546.75 493.8 552.6 470.34 562.76 429.7 555.79 429.7"/>
    <g>
      <path class="cls-9" d="M541.08,213.7l7.29-8.75c.14-.13.33-.26.55-.39v-.04s-27.21-3.33-33.78-4.01c-6.57-.67-50.11-29.4-54.06-29.83,0,0-.11.52-.32,1.32-.44,1.68-1.33,4.62-2.68,6.82-.46.75-.97,1.41-1.54,1.91,0,0,15.7,13.83,24.6,20.72,6.55,5.07,37.96,19.05,54.14,26.1l7.83-10.33-2.05-3.51Z"/>
      <path class="cls-9" d="M587.4,296.24c-.24-.71,3.39-14.62,6.61-28.96,2.91-12.93,5.5-26.2,4.64-30.47-1.21-6.07.02-13.57-4.01-19.61-1.95-2.92-5.12-5.49-10.39-7.4,0,0-6.3-10.35-7.65-10.81-.05-.02-.12-.03-.22-.03-5.67,10.26-32.13,48.31-32.13,48.31l7.47-37.49s.79-3.3,1.22-6.78c-1.76.51-3.17,1.03-4.01,1.54-.22.13-.41.26-.55.39l-7.29,8.75,2.05,3.51-7.83,10.33-3.28,4.33s-7.2,10.81-8.1,18.91c-.55,4.95,1.5,58.52,3.19,99.52l2.57-.55c-.03-1.56.08-3.11.4-4.53.83-3.7,7.14-5.68,13.05-8.17,5.06-2.13,8.21-4.31,8.21-4.31l9.76,3.9-.18,2.03c-2.98,5.09-12.82,4.8-18.43,8.33l13.93-2.99,11.63,43.76.55,2.07c10.23-2.62,20.5-5.91,28.14-9.83,5.04-2.59,8.93-5.45,10.91-8.58,0,0-19.81-73.84-20.26-75.19Z"/>
    </g>
  </g>
  <g>
    <path class="cls-5" d="M434.64,168.48c1.18,2.63,3.48,5.45,4.96,5.51,1.21.04,1.28-1.19,1.08-2.36-.52-.24-1.02-.46-1.5-.66-1.7-.69-3.27-1.58-4.53-2.49Z"/>
    <path class="cls-5" d="M442.71,166.79c.39-.6-.61-2.09-2.77-3.55-2.26-.06-5.29.13-5.91,1.58,0,0,0,0,0,0,3.13.71,8.28,2.58,8.68,1.97Z"/>
    <path class="cls-5" d="M448.88,161.45c-1.3-1.19-2.41-1.59-3.3-1.61-2.05-.04-4.08-.37-5.91-1.29-2.38-1.19-6-2-10.79-.2,0,0-3.34,1.72-.86,2.93,2.47,1.21,4.63-1.51,8.87.3,1.19.51,2.21,1.08,3.06,1.65,2.16,1.46,3.16,2.95,2.77,3.55-.4.61-5.54-1.26-8.68-1.97-1.16-.26-2.05-.37-2.31-.14-.63.56.66,2.2,2.91,3.8,1.27.9,2.83,1.8,4.53,2.49.48.19.99.42,1.5.66,4.54,2.09,10.24,5.58,14.82,6.46,2,.38,3.69.78,5.02,1.12,1.35-2.2,2.24-5.15,2.68-6.82-3.78-2.73-11.55-8.39-14.31-10.93Z"/>
    <path class="cls-5" d="M571.21,178.08c1.13-5.33-1.2-7.67-3.8-8.68-1.52-.59-1.93-2.54-.69-3.6,4.59-3.91,6.06-9.17.91-8.19-6.67,1.27-12.23-4.45-12.23-4.45,0,0-2.8,2.44-5.08,6.83s-4.44,8.83-6.34,9.71c-2.3,1.06-3.18.63-3.4,1.91-.46,2.61,4.29,3.65,4.29,3.65,0,0-4.65,14.44-2.02,16.5,2.63,2.06,7.84,2.67,11.29,3.65,1.71.49,1.67,4.34,1.22,7.99-.43,3.48-1.22,6.78-1.22,6.78l-7.47,37.49s26.46-38.04,32.13-48.31c.66-1.2,1.05-2.03,1.06-2.36,0,0-11.03-7.64-8.65-18.92Z"/>
    <polygon class="cls-7" points="572.05 420.21 569.87 411.32 567.65 420.21 572.05 420.21"/>
    <path class="cls-7" d="M560.78,420.21l5.8-22.27-1.53-6.24c-10.78,2.52-20.92,4.29-27.16,5.29,0,0,2.3,9.24,5.62,23.22h17.28Z"/>
    <path class="cls-7" d="M578.99,420.21h6.82c1.85,0,3.35,1.5,3.35,3.35v3.19c0,1.85-1.5,3.35-3.35,3.35h-4.19l33.11,124.54c7.78-2.73,8.7-6.7,8.7-6.7l-24.25-167.53h-.02c-7.64,3.93-17.91,7.21-28.14,9.83l7.97,29.97Z"/>
    <path class="cls-7" d="M555.03,470.73c1.66,7.65,3.28,15.35,4.78,22.81,12.15-.66,29.89-1.51,29.89-1.51l-15.22-61.94h-9.3l-10.15,40.64Z"/>
    <path class="cls-7" d="M556.87,430.09l-10.89-.43c1.77,7.56,3.7,16.94,5.66,25.69l6.57-25.26h-1.35Z"/>
    <path class="cls-9" d="M564.57,389.77l-9.68-39.43-13.32,4c.28,2.08.94,4.01.19,5.05-1.33,1.85-3.9-1.33-3.9-1.33,0,0,.18,3.09-1.13,3.49-1.28.39-2.65-1.67-3.57-4.69l-3.33,1c.94,22.75,1.7,40.08,1.7,40.08,0,0,2.39-.32,6.35-.95,6.24-.99,16.38-2.76,27.16-5.29l-.47-1.93Z"/>
    <polygon class="cls-6" points="534.15 494.13 518.65 429.1 510.42 429.54 523.82 494.13 534.15 494.13"/>
    <path class="cls-6" d="M533.16,356.86c-.6-1.97-1.01-4.35-1.06-6.72l-2.57.55-34.82,9.65,13.03,59.87h7.94l-13.51-54.05,27.67-8.3,3.33-1Z"/>
    <path class="cls-5" d="M553.76,333.13s-3.14,2.18-8.21,4.31c-5.92,2.49-12.22,4.47-13.05,8.17-.32,1.42-.44,2.97-.4,4.53.05,2.37.46,4.75,1.06,6.72.92,3.01,2.3,5.08,3.57,4.69,1.31-.4,1.13-3.49,1.13-3.49,0,0,2.56,3.18,3.9,1.33.75-1.04.08-2.97-.19-5.05-.21-1.62-.19-3.33.91-4.79.65-.86,1.49-1.55,2.44-2.15,5.6-3.53,15.44-3.24,18.43-8.33l.18-2.03-9.76-3.9Z"/>
    <path class="cls-1" d="M589.16,426.74v-3.19c0-1.85-1.5-3.35-3.35-3.35h-6.82l2.63,9.89h4.19c1.85,0,3.35-1.5,3.35-3.35Z"/>
    <polygon class="cls-6" points="567.65 420.21 569.87 411.32 566.58 397.94 560.78 420.21 567.65 420.21"/>
    <path class="cls-6" d="M447.18,652.31s.65.11,1.81.3l15.76-67.68-3.17-.26,3.24-10.79,2.47.17,15.95-68.52h-2.59l2.59-11.4h2.66l14.22-64.05-5.49.29-79.39,300.71h15.49l15.82-67.92-2.05-.4,2.7-10.43Z"/>
    <path class="cls-1" d="M572.05,420.21h-74.1c-2.04,0-3.7,1.66-3.7,3.7v6.48l.37-.02,5.49-.29,10.31-.54,8.23-.43,27.33.56,10.89.43h17.61l-2.43-9.89Z"/>
    <path class="cls-6" d="M614.74,554.64l-33.11-124.54-2.63-9.89-7.97-29.97-.55-2.07-11.63-43.76-13.93,2.99c-.95.6-1.79,1.29-2.44,2.15-1.1,1.46-1.12,3.17-.91,4.79l13.32-4,9.68,39.43.47,1.93,1.53,6.24,3.29,13.39,2.18,8.88,2.43,9.89,15.22,61.94h0l2.76,11.22,11.34,46.18,1.73,7.05,5.8,23.61,16.59,67.52,3.42,13.92,16.49,67.14h13.18l-46.27-174.03Z"/>
    <polygon class="cls-6" points="558.21 430.09 551.64 455.35 541.54 494.13 538.58 505.54 537.77 508.62 531.89 531.21 519.78 577.75 516.79 589.24 498.09 661.1 495.07 672.69 479.87 731.07 490 731.07 535.63 548.39 541.67 524.21 545 510.87 549.17 494.19 555.03 470.73 565.18 430.09 558.21 430.09"/>
    <g>
      <path class="cls-9" d="M543.51,214.09l7.29-8.75c.14-.13.33-.26.55-.39v-.04s-27.21-3.33-33.78-4.01c-6.57-.67-50.11-29.4-54.06-29.83,0,0-.11.52-.32,1.32-.44,1.68-1.33,4.62-2.68,6.82-.46.75-.97,1.41-1.54,1.91,0,0,15.7,13.83,24.6,20.72,6.55,5.07,37.96,19.05,54.14,26.1l7.83-10.33-2.05-3.51Z"/>
      <path class="cls-9" d="M589.82,296.64c-.24-.71,3.39-14.62,6.61-28.96,2.91-12.93,5.5-26.2,4.64-30.47-1.21-6.07.02-13.57-4.01-19.61-1.95-2.92-5.12-5.49-10.39-7.4,0,0-6.3-10.35-7.65-10.81-.05-.02-.12-.03-.22-.03-5.67,10.26-32.13,48.31-32.13,48.31l7.47-37.49s.79-3.3,1.22-6.78c-1.76.51-3.17,1.03-4.01,1.54-.22.13-.41.26-.55.39l-7.29,8.75,2.05,3.51-7.83,10.33-3.28,4.33s-7.2,10.81-8.1,18.91c-.55,4.95,1.5,58.52,3.19,99.52l2.57-.55c-.03-1.56.08-3.11.4-4.53.83-3.7,7.14-5.68,13.05-8.17,5.06-2.13,8.21-4.31,8.21-4.31l9.76,3.9-.18,2.03c-2.98,5.09-12.82,4.8-18.43,8.33l13.93-2.99,11.63,43.76.55,2.07c10.23-2.62,20.5-5.91,28.14-9.83,5.04-2.59,8.93-5.45,10.91-8.58,0,0-19.81-73.84-20.26-75.19Z"/>
    </g>
  </g>
  <g>
    <g>
      <g>
        <polygon class="cls-2" points="507.99 429.14 497.69 429.69 483.47 493.74 521.4 493.74 507.99 429.14"/>
        <path class="cls-2" d="M539.12,493.74l10.09-38.78c-1.96-8.74-3.89-18.13-5.66-25.69l-27.33-.56,15.51,65.03h7.39Z"/>
        <path class="cls-2" d="M535.46,396.59c-3.96.63-6.35.95-6.35.95,0,0-.76-17.32-1.7-40.08l-27.67,8.3,13.51,54.05h27.84c-3.32-13.97-5.62-23.22-5.62-23.22Z"/>
        <path class="cls-2" d="M432.21,168.09c1.18,2.63,3.48,5.45,4.96,5.51,1.21.04,1.28-1.19,1.08-2.36-.52-.24-1.02-.46-1.5-.66-1.7-.69-3.27-1.58-4.53-2.49Z"/>
        <path class="cls-2" d="M440.29,166.39c.39-.6-.61-2.09-2.77-3.55-2.26-.06-5.29.13-5.91,1.58,0,0,0,0,0,0,3.13.71,8.28,2.58,8.68,1.97Z"/>
        <path class="cls-2" d="M446.46,161.06c-1.3-1.19-2.41-1.59-3.3-1.61-2.05-.04-4.08-.37-5.91-1.29-2.38-1.19-6-2-10.79-.2,0,0-3.34,1.72-.86,2.93,2.47,1.21,4.63-1.51,8.87.3,1.19.51,2.21,1.08,3.06,1.65,2.16,1.46,3.16,2.95,2.77,3.55-.4.61-5.54-1.26-8.68-1.97-1.16-.26-2.05-.37-2.31-.14-.63.56.66,2.2,2.91,3.8,1.27.9,2.83,1.8,4.53,2.49.48.19.99.42,1.5.66,4.54,2.09,10.24,5.58,14.82,6.46,2,.38,3.69.78,5.02,1.12,1.35-2.2,2.24-5.15,2.68-6.82-3.78-2.73-11.55-8.39-14.31-10.93Z"/>
        <path class="cls-2" d="M568.79,177.69c1.13-5.33-1.2-7.67-3.8-8.68-1.52-.59-1.93-2.54-.69-3.6,4.59-3.91,6.06-9.17.91-8.19-6.67,1.27-12.23-4.45-12.23-4.45,0,0-2.8,2.44-5.08,6.83s-4.44,8.83-6.34,9.71c-2.3,1.06-3.18.63-3.4,1.91-.46,2.61,4.29,3.65,4.29,3.65,0,0-4.65,14.44-2.02,16.5,2.63,2.06,7.84,2.67,11.29,3.65,1.71.49,1.67,4.34,1.22,7.99-.43,3.48-1.22,6.78-1.22,6.78l-7.47,37.49s26.46-38.04,32.13-48.31c.66-1.2,1.05-2.03,1.06-2.36,0,0-11.03-7.64-8.65-18.92Z"/>
        <polygon class="cls-2" points="569.63 419.81 567.44 410.93 565.22 419.81 569.63 419.81"/>
        <path class="cls-2" d="M558.36,419.81l5.8-22.27-1.53-6.24c-10.78,2.52-20.92,4.29-27.16,5.29,0,0,2.3,9.24,5.62,23.22h17.28Z"/>
        <path class="cls-2" d="M576.57,419.81h6.82c1.85,0,3.35,1.5,3.35,3.35v3.19c0,1.85-1.5,3.35-3.35,3.35h-4.19l33.11,124.54c7.78-2.73,8.7-6.7,8.7-6.7l-24.25-167.53h-.02c-7.64,3.93-17.91,7.21-28.14,9.83l7.97,29.97Z"/>
        <path class="cls-2" d="M552.6,470.34c1.66,7.65,3.28,15.35,4.78,22.81,12.15-.66,29.89-1.51,29.89-1.51l-15.22-61.94h-9.3l-10.15,40.64Z"/>
        <path class="cls-2" d="M554.44,429.7l-10.89-.43c1.77,7.56,3.7,16.94,5.66,25.69l6.57-25.26h-1.35Z"/>
        <path class="cls-2" d="M562.15,389.37l-9.68-39.43-13.32,4c.28,2.08.94,4.01.19,5.05-1.33,1.85-3.9-1.33-3.9-1.33,0,0,.18,3.09-1.13,3.49-1.28.39-2.65-1.67-3.57-4.69l-3.33,1c.94,22.75,1.7,40.08,1.7,40.08,0,0,2.39-.32,6.35-.95,6.24-.99,16.38-2.76,27.16-5.29l-.47-1.93Z"/>
        <polygon class="cls-2" points="531.73 493.74 516.22 428.71 507.99 429.14 521.4 493.74 531.73 493.74"/>
        <path class="cls-2" d="M530.73,356.47c-.6-1.97-1.01-4.35-1.06-6.72l-2.57.55-34.82,9.65,13.03,59.87h7.94l-13.51-54.05,27.67-8.3,3.33-1Z"/>
        <path class="cls-2" d="M551.33,332.74s-3.14,2.18-8.21,4.31c-5.92,2.49-12.22,4.47-13.05,8.17-.32,1.42-.44,2.97-.4,4.53.05,2.37.46,4.75,1.06,6.72.92,3.01,2.3,5.08,3.57,4.69,1.31-.4,1.13-3.49,1.13-3.49,0,0,2.56,3.18,3.9,1.33.75-1.04.08-2.97-.19-5.05-.21-1.62-.19-3.33.91-4.79.65-.86,1.49-1.55,2.44-2.15,5.6-3.53,15.44-3.24,18.43-8.33l.18-2.03-9.76-3.9Z"/>
        <path class="cls-2" d="M586.74,426.35v-3.19c0-1.85-1.5-3.35-3.35-3.35h-6.82l2.63,9.89h4.19c1.85,0,3.35-1.5,3.35-3.35Z"/>
        <polygon class="cls-2" points="565.22 419.81 567.44 410.93 564.15 397.54 558.36 419.81 565.22 419.81"/>
        <path class="cls-2" d="M444.76,651.92s.65.11,1.81.3l15.76-67.68-3.17-.26,3.24-10.79,2.47.17,15.95-68.52h-2.59l2.59-11.4h2.66l14.22-64.05-5.49.29-79.39,300.71h15.49l15.82-67.92-2.05-.4,2.7-10.43Z"/>
        <path class="cls-2" d="M569.63,419.81h-74.1c-2.04,0-3.7,1.66-3.7,3.7v6.48l.37-.02,5.49-.29,10.31-.54,8.23-.43,27.33.56,10.89.43h17.61l-2.43-9.89Z"/>
        <path class="cls-2" d="M612.31,554.25l-33.11-124.54-2.63-9.89-7.97-29.97-.55-2.07-11.63-43.76-13.93,2.99c-.95.6-1.79,1.29-2.44,2.15-1.1,1.46-1.12,3.17-.91,4.79l13.32-4,9.68,39.43.47,1.93,1.53,6.24,3.29,13.39,2.18,8.88,2.43,9.89,15.22,61.94h0l2.76,11.22,11.34,46.18,1.73,7.05,5.8,23.61,16.59,67.52,3.42,13.92,16.49,67.14h13.18l-46.27-174.03Z"/>
        <polygon class="cls-2" points="555.79 429.7 549.21 454.96 539.12 493.74 536.15 505.14 535.35 508.22 529.47 530.82 517.35 577.36 514.36 588.85 495.66 660.7 492.64 672.3 477.45 730.68 487.58 730.68 533.21 548 539.25 523.82 542.58 510.48 546.75 493.8 552.6 470.34 562.76 429.7 555.79 429.7"/>
        <g>
          <path class="cls-2" d="M541.08,213.7l7.29-8.75c.14-.13.33-.26.55-.39v-.04s-27.21-3.33-33.78-4.01c-6.57-.67-50.11-29.4-54.06-29.83,0,0-.11.52-.32,1.32-.44,1.68-1.33,4.62-2.68,6.82-.46.75-.97,1.41-1.54,1.91,0,0,15.7,13.83,24.6,20.72,6.55,5.07,37.96,19.05,54.14,26.1l7.83-10.33-2.05-3.51Z"/>
          <path class="cls-2" d="M587.4,296.24c-.24-.71,3.39-14.62,6.61-28.96,2.91-12.93,5.5-26.2,4.64-30.47-1.21-6.07.02-13.57-4.01-19.61-1.95-2.92-5.12-5.49-10.39-7.4,0,0-6.3-10.35-7.65-10.81-.05-.02-.12-.03-.22-.03-5.67,10.26-32.13,48.31-32.13,48.31l7.47-37.49s.79-3.3,1.22-6.78c-1.76.51-3.17,1.03-4.01,1.54-.22.13-.41.26-.55.39l-7.29,8.75,2.05,3.51-7.83,10.33-3.28,4.33s-7.2,10.81-8.1,18.91c-.55,4.95,1.5,58.52,3.19,99.52l2.57-.55c-.03-1.56.08-3.11.4-4.53.83-3.7,7.14-5.68,13.05-8.17,5.06-2.13,8.21-4.31,8.21-4.31l9.76,3.9-.18,2.03c-2.98,5.09-12.82,4.8-18.43,8.33l13.93-2.99,11.63,43.76.55,2.07c10.23-2.62,20.5-5.91,28.14-9.83,5.04-2.59,8.93-5.45,10.91-8.58,0,0-19.81-73.84-20.26-75.19Z"/>
        </g>
      </g>
      <path class="cls-2" d="M544.24,247.27s-4.34,12.81-5.75,28.7c-1.61,18.23-1.94,62.05-3.33,64.47"/>
      <path class="cls-2" d="M548.37,204.94s-6.58,6.86-7.29,8.75,7.78,7.34,3.93,11.6-3.09,34.81-3.09,34.81c0,0,14.87-18,22.92-22.02,8.05-4.03,1.89-15.63,1.89-15.63,0,0,14.18-6.84,17.51-12.66"/>
      <line class="cls-2" x1="532.02" y1="231.86" x2="543.13" y2="217.2"/>
      <path class="cls-2" d="M551.33,332.74l-3.54-1.83s19.65-34.42,23.2-63.62,1.89-31.57,1.89-31.57"/>
      <polyline class="cls-2" points="561.09 336.64 569.34 340.44 587.4 296.24"/>
      <path class="cls-2" d="M570.15,338.47c3.65,11.11,11.27,15.17,22.64,7.12s-2.84-29.6-2.84-29.6l-13.57,7.23"/>
      <path class="cls-2" d="M560.63,172.14s1.19-4.77,5.11,0c2.59,3.15,1.33,9.87-4.41,10.36"/>
      <path class="cls-2" d="M543.3,184.38s3.29,1.61,4.69-1.19"/>
      <circle class="cls-4" cx="548.45" cy="167.31" r="1.08"/>
      <path class="cls-2" d="M581.72,491.64c-.16-1.92-13.87-61.65-13.87-61.65"/>
    </g>
    <path class="cls-1" d="M565.01,157c5.15-.98,3.68,4.28-.91,8.19-1.24,1.06-.83,3.01.69,3.6,2.61,1.01,4.93,3.34,3.8,8.68-2.38,11.28,8.65,18.92,8.65,18.92,0,0,14.25.29,13.07-11.76-1.43-14.61,3.13-20.48,3.13-20.48,0,0,3.18,0-.64,9.05s-7.15,26.6-.32,36.69c1.06,1.57,1.67,4.04,1.95,7.1,4.03,6.04,2.8,13.54,4.01,19.61.85,4.27-1.73,17.54-4.64,30.47,3.09-1.08,7.25-4.93,12.02-15.57,10.32-23.03,6.92-34.38,1.63-43.55,0,0-4.65-5.05-1.63-18.55s-2.06-40-17.17-33.02c0,0-1.52-5.58-13.44-13.32-20.87-13.54-22.44,9.48-22.44,9.48,0,0,5.56,5.72,12.23,4.45Z"/>
  </g>
</svg>