<svg id="Layer_1" data-name="Layer 1" xmlns="http://www.w3.org/2000/svg" viewBox="0 0 537.39784 516.87804"><defs><style>.cls-1,.cls-6{fill:none;stroke-miterlimit:10;stroke-width:1.8px;}.cls-1{stroke:#6da5c8;}.cls-2{fill:#20274d;}.cls-3{fill:#1d5493;}.cls-4{fill:#6ca5c8;}.cls-5{fill:#468fba;}.cls-6{stroke:#20274d;}</style></defs><path class="cls-1" d="M184.76445,66.16252l43-37.99824a2.80911,2.80911,0,0,1,3.97708.25975l37.9982,43a2.80918,2.80918,0,0,1-.25972,3.97712l-43,37.99826a2.80912,2.80912,0,0,1-3.97708-.25976L184.54412,70.1355A2.807,2.807,0,0,1,184.76445,66.16252Z"/><path class="cls-1" d="M147.27652,217.92233,20.421,378.38838a3.21283,3.21283,0,0,0,.52576,4.5312,3.32687,3.32687,0,0,0,1.52711.658l202.3768,29.64265a3.21318,3.21318,0,0,0,3.66214-2.711,3.03972,3.03972,0,0,0-.227-1.6617l-75.47454-190.1509a3.24228,3.24228,0,0,0-4.188-1.82027A3.14494,3.14494,0,0,0,147.27652,217.92233Z"/><circle class="cls-1" cx="475.89044" cy="418.2364" r="44.17634"/><path class="cls-2" d="M321.13287,331.685c-4.43005.5907-2.99792,5.53888-2.99792,5.53888l.01538.413,1.21045,32.73657c8.86011,11.51794,17.12933-.59064,17.12933-.59064l.16889-18.23889.1264-13.65692C332.35541,330.799,325.5628,331.09432,321.13287,331.685Z"/><path class="cls-3" d="M387.5824,362.10414S359.82129,339.3636,357.754,335.8196c-2.06732-3.54395.886-13.58521,3.24865-16.53851,2.36261-2.95331,1.18128-15.94794-2.95336-20.37787a23.726,23.726,0,0,0-4.4397-3.71765c-5.16547-3.372-13.93415-6.48279-30.114-6.91431-11.667-.3111-16.52929,1.09906-18.47888,2.97772-1.75183,1.688-1.15271,3.75409-1.01306,5.29157.29541,3.24865,16.834,2.06732,16.834,2.06732s-3.24878.29535-9.746,6.7926c-6.49731,6.49731.29529,8.26929.29529,8.26929-5.46,6.552-2.037,8.90479.11684,9.68594a.70854.70854,0,0,1,.3492,1.06682c-.552.7794-.97566,2.405-.17063,5.78581.47046,1.9762,3.10315,4.67224,6.468,7.42847l-.01538-.413s-1.43213-4.94818,2.99792-5.53888c4.42993-.59063,11.22254-.886,15.65253,6.202l-.1264,13.65692a52.93733,52.93733,0,0,0,11.93969,16.46692c9.45057,8.85992,17.12922,37.50708,17.12922,37.50708l1.89174.67562a12.841,12.841,0,0,0,16.0649-6.935C389.69249,385.63956,387.5824,362.10414,387.5824,362.10414Z"/><path class="cls-3" d="M296.1347,246.87947l10.70484-.592c-2.82446-6.275-.85864-17.637-1.39465-21.92559-.36756-2.94092,1.48645-9.27851,6.10681-14.03113-4.3545-3.01953-11.23719-9.0398-16.42383-13.72815.83349,4.05707,1.72876,9.3728,1.22339,11.52069-.866,3.68072-7.67591,21.91156-10.65821,24.921a99.67423,99.67423,0,0,0,10.89246,18.4176Z"/><path class="cls-3" d="M342.902,203.5765a28.887,28.887,0,0,1-5.42987,2.71679c5.73938,2.53113,5.83416,8.11988,8.46112,21.09986,1.86126,9.1969.23382,14.79107-1.82923,18.07836,1.62226,1.95948,4.94226,5.97065,7.58655,9.17133,7.23541-5.70862,14.27149-14.38776,20.32721-27.28912-1.18463-1.04254-19.99841-7.74781-23.26306-30.66486C346.49676,199.9,344.38593,202.52535,342.902,203.5765Z"/><path class="cls-4" d="M450.026,339.84981c-5.748-13.13824-7.39026-27.09759-4.92688-50.91064.804-7.77149,1.0979-19.77753-9.37768-28.72437-12.0069-10.25476-30.31891-19.2514-44.23395-25.22687-11.14459-4.7857-19.46973-7.63421-19.46973-7.63421-6.05572,12.90136-13.0918,21.5805-20.32721,27.28912,1.91345,2.316,3.471,4.20508,3.76929,4.578.45886.57361.43146,9.41309.30426,17.69519q-.01035.67182-.02149,1.33649c-.11407,6.8299-.28277,12.94226-.28277,13.22907a19.63155,19.63155,0,0,1-1.85028,3.704,23.726,23.726,0,0,1,4.4397,3.71765c4.13464,4.42993,5.316,17.42456,2.95336,20.37787-2.36267,2.9533-5.316,12.99456-3.24865,16.53851,2.06732,3.544,29.82843,26.28454,29.82843,26.28454s2.16068,24.09959-4.11607,37.63685a12.71933,12.71933,0,0,1-15.83662,6.45606l-1.9018-.67921s-7.67865-28.64716-17.12922-37.50708A52.93733,52.93733,0,0,1,336.659,351.54384l-.16889,18.23889s-8.26922,12.10858-17.12933.59064l-1.21045-32.73657c-3.36487-2.75623-5.99756-5.45227-6.468-7.42847-.805-3.38078-.38138-5.00641.17063-5.78581a.70854.70854,0,0,0-.3492-1.06682c-2.15382-.78115-5.57688-3.13392-.11684-9.68594,0,0-6.7926-1.772-.29529-8.26929,6.4972-6.49725,9.746-6.7926,9.746-6.7926s-16.53858,1.18133-16.834-2.06732c-.13965-1.53748-.73877-3.60358,1.01306-5.29157l-4.98462-4.74725-.39148-3.97925-1.44165-14.65735-1.6134-16.40326a99.67423,99.67423,0,0,1-10.89246-18.4176s-40.9519,22.22821-56.55346,36.18756c-.3031.27118-.58557.575-.874.86938-14.55957,14.85724-10.78149,58.69928-18.83325,81.24451-4.48266,12.55121-1.42261,17.88306,2.54248,22.47138,3.2981,3.81677,7.31116,7.91076,7.31116,7.91076s-12.41077.36316-16.57288-2.27325a22.68544,22.68544,0,0,0-4.24463-2.11633,36.43786,36.43786,0,0,0,3.238,2.31762c6.04,20.13391-.20141,31.20752-.20141,31.20752s-10.33179-9.97369-22.33057-21.02514c-2.77307,14.22509,2.52856,41.537,3.98132,44.4425,1.64221,3.28455,43.52039,14.78046,43.52039,14.78046,5.183,6.08435,9.31055,9.74627,12.84912,11.83856,9.35559,5.5318,14.56934.02789,24.10205-1.16376,13.13831-1.64227,16.42285,4.92688,38.59351,5.748,22.17089.82116,44.34155,2.46344,55.01641-3.28455,10.67481-5.748,18.065,0,32.84552,1.64227a52.81018,52.81018,0,0,0,15.98914-.62054,13.67836,13.67836,0,0,0,1.74469-.46832,14.02937,14.02937,0,0,0,8.9635-9.48572l.33539-7.58429s11.24463,3.87524,22.74054.5907c4.80823-1.37378,8.2456-9.01386,10.632-18.0152,1.65954-6.26,4.66858-11.04285,6.7926-16.83392s-.47638-15.5437.95673-19.8429C463.16418,376.801,455.77393,352.988,450.026,339.84981Z"/><path class="cls-5" d="M355.45984,259.22084c-.29834-.37292-1.85584-2.262-3.76929-4.578-2.64429-3.20068-5.96429-7.21185-7.58655-9.17133-.61157-.73876-.98547-1.19024-.98547-1.19024l-36.279,2.00622-10.70484.592.45081,4.5824,1.6134,16.40326,1.44165,14.65735.39148,3.97925,4.98462,4.74725c1.94959-1.87866,6.81189-3.28882,18.47888-2.97772,16.17987.43152,24.94855,3.5423,30.114,6.91431a19.63155,19.63155,0,0,0,1.85028-3.704c0-.28681.1687-6.39917.28277-13.22907q.01108-.66477.02149-1.33649C355.8913,268.63393,355.9187,259.79445,355.45984,259.22084Z"/><path class="cls-3" d="M343.98456,102.24745,331.4267,95.752s-3.46424,4.76331-12.12476,5.84589c-8.66064,1.08258-20.35254,16.45514-20.78552,26.41479-.433,9.95972-10.3927,62.13984-10.3927,62.13984s2.99389,2.825,7.00415,6.45007c5.18664,4.68835,12.06933,10.70862,16.42383,13.72815a19.41063,19.41063,0,0,1,15.76123-5.88825c4.64941.30994,7.85669.83533,10.15918,1.85077a28.887,28.887,0,0,0,5.42987-2.71679c1.48395-1.05115,3.59478-3.67646,5.85272-6.88764,5.64868-8.03351,12.22064-19.74658,12.22064-19.74658S364.12048,116.754,343.98456,102.24745Z"/><path class="cls-2" d="M345.93323,227.39315c-2.627-12.98-2.72174-18.56873-8.46112-21.09986-2.30249-1.01544-5.50977-1.54083-10.15918-1.85077a19.41063,19.41063,0,0,0-15.76123,5.88825c-4.62036,4.75262-6.47437,11.09021-6.10681,14.03113.536,4.28857-1.42981,15.65057,1.39465,21.92559l36.279-2.00622s.3739.45148.98547,1.19024C346.16705,242.18422,347.79449,236.59005,345.93323,227.39315Z"/><path class="cls-3" d="M201.70648,379.6559a36.43786,36.43786,0,0,1-3.238-2.31762,63.05268,63.05268,0,0,1-17.09716-21.03766c-1.00684-2.01337-4.63086-11.879-19.1272-23.154-14.49646-11.275-17.31519-23.35528-25.57007-23.35528s-7.44958,5.2348-7.24829,7.24817c0,0-4.69868,0-4.25009,4.82658.00445.04786-.05024.07968-.07429.038-.91348-1.58095-8.13454-13.63766-13.59481-9.49543,0,0-1.812,2.21478-.8053,4.22815,0,0-5.83874-4.0268-7.44958-1.40936-1.6106,2.61737,9.0603,10.671,10.067,12.08032s16.50977,18.32184,17.31507,22.34863c.80542,4.02673,3.82544,6.64417,14.09375,11.47632,5.42883,2.55469,20.98694,16.30829,34.447,28.70551,11.99878,11.05145,22.33057,21.02514,22.33057,21.02514S207.74652,399.78981,201.70648,379.6559Z"/><path class="cls-6" d="M290.6119,189.35226s-9.40888,43.112-26.305,41.50285"/><path class="cls-6" d="M302.52023,285.70144c4.4292-.13521,47.87627-2.14665,47.87627-2.14665l7.55152,7.12651"/><line class="cls-6" x1="350.3965" y1="283.55479" x2="346.59219" y2="244.67123"/><path class="cls-6" d="M307.35172,230.05054s12.54362-14.55883,41.06969-3.45768"/><path class="cls-6" d="M314.63771,322.96735s7.29689-4.15845,21.263-2.35384"/><path class="cls-6" d="M314.48078,312.532c.31385-.07846,10.043-2.58922,13.88765-2.35384a17.88213,17.88213,0,0,1,5.8846,1.17692"/><path class="cls-6" d="M323.32577,297.80758s17.67493-1.75245,23.16721.9937"/><path class="cls-6" d="M419.60372,444.88259s1.15754-2.27823-11.17481-5.59848-31.54235-8.53778-39.843-25.61334l-.36985-8.95322"/><path class="cls-6" d="M390.07058,361.30386s46.58044,10.15234,54.88106,25.80493"/><path class="cls-6" d="M405.10867,364.8157c0-1.66012,13.75531-69.25088,22.05593-86.5636"/><path class="cls-6" d="M229.16439,448.261s-3.99647-19.312,1.39411-37.19894c5.21753-17.31272-8.78437-30.13444-8.78437-30.13444"/><path class="cls-6" d="M185.644,433.48049s9.8082,6.17748,18.34925-23.41736"/><path class="cls-2" d="M392.571,463.04147c-14.78052-1.64228-22.17072-7.39026-32.84552-1.64228-10.67487,5.748-32.84552,4.10572-55.01642,3.28455-22.17066-.82111-25.4552-7.39026-38.59351-5.748-9.53271,1.19165-14.74646,6.69556-24.10205,1.16376-3.79492,23.47351-4.63769,56.316-4.63769,56.316l192.96759.82117c-.92456-19.87806-11.218-40.79627-20.03858-55.28406a13.67626,13.67626,0,0,1-1.74469.46832A52.81039,52.81039,0,0,1,392.571,463.04147Z"/><path class="cls-2" d="M323.62106,330.88467c-4.43006.59069-2.99793,5.53888-2.99793,5.53888l.01538.413,1.21045,32.73657c8.86011,11.51795,17.12933-.59064,17.12933-.59064l.16889-18.23889.1264-13.65692C334.84359,329.99868,328.051,330.294,323.62106,330.88467Z"/><path class="cls-6" d="M390.07058,361.30386s-27.76111-22.74054-29.82843-26.28455c-2.06732-3.54395.886-13.5852,3.24866-16.53851,2.36261-2.95331,1.18127-15.94794-2.95337-20.37787a23.726,23.726,0,0,0-4.4397-3.71765c-5.16547-3.372-13.93414-6.48279-30.114-6.91431-11.667-.3111-16.5293,1.09906-18.47889,2.97772-1.75183,1.688-1.15271,3.75409-1.01306,5.29157.29541,3.24865,16.834,2.06732,16.834,2.06732s-3.24878.29535-9.746,6.7926c-6.49732,6.49732.29528,8.26929.29528,8.26929-5.46,6.552-2.037,8.90479.11684,9.68594a.70853.70853,0,0,1,.3492,1.06682c-.552.7794-.97565,2.405-.17063,5.78581.47046,1.9762,3.10315,4.67224,6.468,7.42847l-.01538-.413s-1.43213-4.94819,2.99793-5.53888c4.42993-.59064,11.22253-.886,15.65252,6.202l-.1264,13.65692a52.93741,52.93741,0,0,0,11.9397,16.46692c9.45056,8.85993,17.12921,37.50708,17.12921,37.50708l1.89174.67562a12.84107,12.84107,0,0,0,16.06491-6.935C392.18068,384.83927,390.07058,361.30386,390.07058,361.30386Z"/><path class="cls-2" d="M288.18124,232.244c2.9823-3.0094,9.79223-21.24023,10.6582-24.921.50537-2.14789-.38989-7.46362-1.22339-11.52069-4.01025-3.62512-7.00415-6.45007-7.00415-6.45007s9.95972-52.18012,10.3927-62.13983c.433-9.95966,12.12488-25.33222,20.78552-26.4148,8.66053-1.08258,12.12476-5.84589,12.12476-5.84589l12.55786,6.49543c20.13593,14.50653,16.99078,74.69482,16.99078,74.69482s-6.572,11.71307-12.22064,19.74658c3.26465,22.91706,22.07843,29.62232,23.26306,30.66486,0,0,8.32514,2.84851,19.46973,7.63422,3.956-3.61268,8.88074-7.89661,11.60248-9.45191,5.0393-2.87964,27.3565-28.43634,5.39929-52.55328s-32.7558-11.5185-28.4364-31.676C386.8605,120.34908,394.7795,81.834,362.74361,67.7958c0,0-16.55792-4.67944-28.4364-2.51972,0,0-39.95483-8.63885-50.39355,8.99891-10.43872,17.63769-11.51856,48.59375-16.91785,59.39239s-4.31946,19.4375-18.35766,26.27667-47.51392,29.15625-11.51856,70.551c0,0,2.51965,13.67828-6.83911,24.83685-5.27747,6.29236-4.25818,10.06665.47327,13.96906.28845-.29438.57092-.59821.874-.86939C247.22933,254.47219,288.18124,232.244,288.18124,232.244Z"/><path class="cls-6" d="M298.62289,246.07919l10.70483-.592c-2.82446-6.275-.85864-17.637-1.39465-21.9256-.36756-2.94092,1.48645-9.27851,6.10681-14.03113-4.35449-3.01953-11.23718-9.0398-16.42383-13.72815.8335,4.05707,1.72876,9.3728,1.22339,11.52069-.866,3.68073-7.6759,21.91156-10.6582,24.921a99.67386,99.67386,0,0,0,10.89245,18.4176Z"/><path class="cls-6" d="M345.39016,202.77621a28.88669,28.88669,0,0,1-5.42987,2.71679c5.73938,2.53113,5.83417,8.11988,8.46112,21.09986,1.86127,9.1969.23383,14.79107-1.82922,18.07837,1.62225,1.95947,4.94226,5.97064,7.58654,9.17132,7.23542-5.70862,14.27149-14.38775,20.32721-27.28912-1.18463-1.04254-19.99841-7.7478-23.26306-30.66486C348.985,199.09975,346.87411,201.72506,345.39016,202.77621Z"/><path class="cls-6" d="M452.51418,339.04952c-5.748-13.13824-7.39026-27.09759-4.92688-50.91064.804-7.77149,1.0979-19.77753-9.37768-28.72437-12.0069-10.25476-30.31891-19.2514-44.23395-25.22686-11.14459-4.78571-19.46973-7.63422-19.46973-7.63422-6.05572,12.90137-13.09179,21.5805-20.32721,27.28912,1.91346,2.316,3.471,4.20508,3.76929,4.578.45886.5736.43146,9.41308.30426,17.69519q-.01035.67181-.02148,1.33648c-.11408,6.8299-.28278,12.94226-.28278,13.22907a19.631,19.631,0,0,1-1.85028,3.704,23.726,23.726,0,0,1,4.4397,3.71765c4.13464,4.42993,5.316,17.42456,2.95337,20.37787-2.36267,2.95331-5.316,12.99456-3.24866,16.53851,2.06732,3.544,29.82843,26.28455,29.82843,26.28455s2.16068,24.09958-4.11607,37.63684a12.71933,12.71933,0,0,1-15.83662,6.45607l-1.9018-.67922s-7.67865-28.64715-17.12921-37.50708a52.93741,52.93741,0,0,1-11.9397-16.46692l-.16889,18.23889s-8.26922,12.10859-17.12933.59064l-1.21045-32.73657c-3.36487-2.75623-5.99756-5.45227-6.468-7.42847-.805-3.38078-.38137-5.00641.17063-5.78581a.70853.70853,0,0,0-.3492-1.06682c-2.15382-.78115-5.57688-3.13392-.11684-9.68594,0,0-6.7926-1.772-.29528-8.26929,6.49719-6.49725,9.746-6.7926,9.746-6.7926s-16.53858,1.18133-16.834-2.06732c-.13965-1.53748-.73877-3.60358,1.01306-5.29157l-4.98461-4.74725-.39148-3.97925-1.44165-14.65735-1.61341-16.40326a99.67386,99.67386,0,0,1-10.89245-18.4176s-40.95191,22.22821-56.55347,36.18756c-.3031.27118-.58557.575-.874.86939-14.55957,14.85724-10.7815,58.69928-18.83326,81.2445-4.48266,12.55121-1.4226,17.88306,2.54248,22.47138,3.2981,3.81677,7.31116,7.91076,7.31116,7.91076s-12.41076.36316-16.57287-2.27325a22.68665,22.68665,0,0,0-4.24463-2.11633,36.437,36.437,0,0,0,3.238,2.31762c6.04,20.13391-.20141,31.20752-.20141,31.20752s-10.33179-9.97369-22.33057-21.02514c-2.77307,14.22509,2.52857,41.537,3.98132,44.4425,1.64222,3.28455,43.52039,14.78046,43.52039,14.78046,5.183,6.08435,9.31055,9.74628,12.84912,11.83856,9.35559,5.5318,14.56934.02789,24.10205-1.16376,13.13831-1.64227,16.42285,4.92688,38.59351,5.748,22.1709.82117,44.34155,2.46344,55.01642-3.28455,10.6748-5.748,18.065,0,32.84552,1.64228a52.81039,52.81039,0,0,0,15.98913-.62055,13.67626,13.67626,0,0,0,1.74469-.46832,14.02937,14.02937,0,0,0,8.9635-9.48572l.33539-7.58429s11.24463,3.87525,22.74054.5907c4.80823-1.37378,8.24561-9.01386,10.632-18.0152,1.65955-6.26,4.66858-11.04284,6.7926-16.83392s-.47638-15.5437.95673-19.8429C465.65237,376.00076,458.26211,352.18771,452.51418,339.04952Z"/><path class="cls-6" d="M357.948,258.42056c-.29834-.37293-1.85583-2.262-3.76929-4.578-2.64428-3.20068-5.96429-7.21185-7.58654-9.17132-.61158-.73877-.98548-1.19025-.98548-1.19025l-36.279,2.00623-10.70483.592.4508,4.58239,1.61341,16.40326,1.44165,14.65735.39148,3.97925,4.98461,4.74725c1.94959-1.87866,6.81189-3.28882,18.47889-2.97772,16.17987.43152,24.94854,3.5423,30.114,6.91431a19.631,19.631,0,0,0,1.85028-3.704c0-.28681.1687-6.39917.28278-13.22907q.01107-.66476.02148-1.33648C358.37948,267.83364,358.40688,258.99416,357.948,258.42056Z"/><path class="cls-6" d="M346.47274,101.44717l-12.55786-6.49543s-3.46423,4.76331-12.12476,5.84589c-8.66064,1.08258-20.35254,16.45514-20.78552,26.4148-.433,9.95971-10.3927,62.13983-10.3927,62.13983s2.9939,2.825,7.00415,6.45007c5.18665,4.68835,12.06934,10.70862,16.42383,13.72815a19.41068,19.41068,0,0,1,15.76123-5.88825c4.64941.30994,7.85669.83533,10.15918,1.85077a28.88669,28.88669,0,0,0,5.42987-2.71679c1.48395-1.05115,3.59479-3.67646,5.85272-6.88764,5.64868-8.03351,12.22064-19.74658,12.22064-19.74658S366.60867,115.9537,346.47274,101.44717Z"/><path class="cls-6" d="M348.42141,226.59286c-2.62695-12.98-2.72174-18.56873-8.46112-21.09986-2.30249-1.01544-5.50977-1.54083-10.15918-1.85077a19.41068,19.41068,0,0,0-15.76123,5.88825c-4.62036,4.75262-6.47437,11.09021-6.10681,14.03113.536,4.28857-1.42981,15.65057,1.39465,21.9256l36.279-2.00623s.3739.45148.98548,1.19025C348.65524,241.38393,350.28268,235.78976,348.42141,226.59286Z"/><path class="cls-6" d="M204.19466,378.85561a36.437,36.437,0,0,1-3.238-2.31762,63.0528,63.0528,0,0,1-17.09717-21.03766c-1.00684-2.01337-4.63086-11.879-19.1272-23.154-14.49646-11.275-17.31518-23.35529-25.57007-23.35529s-7.44958,5.2348-7.24829,7.24817c0,0-4.69867,0-4.25008,4.82658.00445.04786-.05025.07968-.0743.03806-.91348-1.58095-8.13454-13.63767-13.59481-9.49544,0,0-1.812,2.21478-.80529,4.22815,0,0-5.83875-4.02679-7.44959-1.40936-1.6106,2.61737,9.0603,10.671,10.067,12.08032s16.50976,18.32184,17.31506,22.34863c.80542,4.02674,3.82544,6.64417,14.09375,11.47632,5.42883,2.55469,20.98694,16.30829,34.447,28.70551,11.99878,11.05145,22.33057,21.02514,22.33057,21.02514S210.2347,398.98952,204.19466,378.85561Z"/><path class="cls-6" d="M161.71452,360.02272c-1.1858-1.423-6.40334-5.21754-7.8263-15.17828s-4.03173-20.633-8.06346-18.0242-.23716,23.95322-.23716,23.95322"/><path class="cls-6" d="M140.60723,349.58765s-5.66347-30.27369-8.28643-32.68672"/><path class="cls-6" d="M128.09277,321.93444s.02894,18.29033,3.82351,24.4565"/><path class="cls-6" d="M130.17217,342.94716c-.71149-.47432-16.57586-26.44888-16.57586-26.44888"/><line class="cls-6" x1="134.91495" y1="323.58525" x2="144.16464" y2="329.42901"/><path class="cls-6" d="M321.849,369.57308s6.7068-10.13139,17.12933-.59064"/><path class="cls-6" d="M319.94644,131.40587c.16641,1.33128-3.49459,26.79185-3.661,28.45594s5.82432,3.32818,8.154.832"/><path class="cls-6" d="M363.46352,176.142c.41489,1.35917.5813,35.473-4.24456,37.63632"/><path class="cls-6" d="M332.92634,170.01276l-18.80421,2.49613s-4.96673,19.52711,2.66254,24.79494c6.98918,4.82586,13.97835-.49923,14.8104-6.48995S332.92634,170.01276,332.92634,170.01276Z"/><circle class="cls-2" cx="342.07883" cy="136.73096" r="2.32973"/><circle class="cls-2" cx="302.4735" cy="136.73096" r="2.32973"/></svg>