<svg id="Layer_1" data-name="Layer 1" xmlns="http://www.w3.org/2000/svg" xmlns:xlink="http://www.w3.org/1999/xlink" viewBox="0 0 1488.02462 573.43707"><defs><style>.cls-1,.cls-4,.cls-8{fill:none;}.cls-2{clip-path:url(#clip-path);}.cls-3{fill:#1d5493;}.cls-4{stroke:#6da5c8;}.cls-4,.cls-8{stroke-miterlimit:10;stroke-width:1.8px;}.cls-5{fill:#20274d;}.cls-6{fill:#6ca5c8;}.cls-7{fill:#468fba;}.cls-8{stroke:#20274d;}</style><clipPath id="clip-path"><rect class="cls-1" x="-2.01625" y="-0.71238" width="1492.05712" height="574.86184"/></clipPath></defs><g class="cls-2"><rect class="cls-3" x="-2.01625" y="-0.71238" width="1492.05712" height="574.86184"/><path class="cls-4" d="M1020.09781,122.72155l43.00005-37.99824a2.80911,2.80911,0,0,1,3.97708.25975l37.9982,43a2.80918,2.80918,0,0,1-.25972,3.97712l-43,37.99826a2.80912,2.80912,0,0,1-3.97708-.25976l-37.9588-43.00419A2.807,2.807,0,0,1,1020.09781,122.72155Z"/><path class="cls-4" d="M982.60989,274.48136,855.7544,434.94741a3.21282,3.21282,0,0,0,.52576,4.5312,3.32687,3.32687,0,0,0,1.52711.658l202.3768,29.64265a3.21316,3.21316,0,0,0,3.66213-2.711,3.03962,3.03962,0,0,0-.22695-1.6617L988.1447,275.25564a3.24227,3.24227,0,0,0-4.188-1.82027A3.14488,3.14488,0,0,0,982.60989,274.48136Z"/><circle class="cls-4" cx="1311.2238" cy="474.79543" r="44.17634"/></g><path class="cls-5" d="M1156.46624,388.244c-4.43.5907-2.99793,5.53888-2.99793,5.53888l.01539.413,1.21044,32.73657c8.86011,11.51794,17.12934-.59064,17.12934-.59064l.16888-18.23889.12641-13.65692C1167.68877,387.358,1160.89617,387.65335,1156.46624,388.244Z"/><path class="cls-3" d="M1222.91576,418.66317s-27.7611-22.74054-29.82843-26.28454c-2.06732-3.54395.886-13.58521,3.24866-16.53851,2.36261-2.95331,1.18127-15.94794-2.95337-20.37787a23.72571,23.72571,0,0,0-4.4397-3.71765c-5.16546-3.372-13.93414-6.48279-30.114-6.91431-11.667-.3111-16.5293,1.09906-18.47888,2.97772-1.75183,1.688-1.15271,3.75409-1.01306,5.29157.29541,3.24865,16.834,2.06732,16.834,2.06732s-3.24878.29535-9.746,6.7926c-6.49731,6.49731.29529,8.26929.29529,8.26929-5.46,6.552-2.037,8.90479.11683,9.68594a.70853.70853,0,0,1,.3492,1.06682c-.552.7794-.97565,2.405-.17062,5.78581.47046,1.9762,3.10315,4.67224,6.468,7.42847l-.01539-.413s-1.43212-4.94818,2.99793-5.53888c4.42993-.59063,11.22253-.886,15.65253,6.202l-.12641,13.65692a52.93759,52.93759,0,0,0,11.9397,16.46692c9.45056,8.85992,17.12921,37.50708,17.12921,37.50708l1.89174.67562a12.84106,12.84106,0,0,0,16.06491-6.935C1225.02586,442.19859,1222.91576,418.66317,1222.91576,418.66317Z"/><path class="cls-3" d="M1131.46807,303.4385l10.70483-.592c-2.82446-6.275-.85864-17.637-1.39465-21.92559-.36755-2.94092,1.48645-9.27851,6.10681-14.03113-4.35449-3.01953-11.23718-9.0398-16.42383-13.72815.8335,4.05707,1.72876,9.3728,1.22339,11.52069-.866,3.68072-7.6759,21.91156-10.6582,24.921a99.67423,99.67423,0,0,0,10.89246,18.4176Z"/><path class="cls-3" d="M1178.23534,260.13553a28.88638,28.88638,0,0,1-5.42987,2.71679c5.73938,2.53113,5.83417,8.11988,8.46112,21.09986,1.86127,9.1969.23383,14.79107-1.82922,18.07836,1.62225,1.95948,4.94226,5.97065,7.58655,9.17133,7.23541-5.70862,14.27148-14.38776,20.32721-27.28912-1.18463-1.04254-19.99842-7.74781-23.26306-30.66486C1181.83013,256.45907,1179.71929,259.08438,1178.23534,260.13553Z"/><path class="cls-6" d="M1285.35937,396.40884c-5.748-13.13824-7.39026-27.09759-4.92688-50.91064.80395-7.77149,1.0979-19.77753-9.37769-28.72437-12.0069-10.25476-30.31891-19.2514-44.23395-25.22687-11.14459-4.7857-19.46972-7.63421-19.46972-7.63421-6.05573,12.90136-13.0918,21.5805-20.32721,27.28912,1.91345,2.316,3.47095,4.20508,3.76928,4.578.45887.57361.43146,9.41309.30427,17.69519q-.01035.67182-.02149,1.33649c-.11407,6.8299-.28278,12.94226-.28278,13.22907a19.63155,19.63155,0,0,1-1.85028,3.704,23.72571,23.72571,0,0,1,4.4397,3.71765c4.13464,4.42993,5.316,17.42456,2.95337,20.37787-2.36267,2.9533-5.316,12.99456-3.24866,16.53851,2.06733,3.544,29.82843,26.28454,29.82843,26.28454s2.16068,24.09959-4.11606,37.63685a12.71933,12.71933,0,0,1-15.83663,6.45606l-1.9018-.67921s-7.67865-28.64716-17.12921-37.50708a52.93759,52.93759,0,0,1-11.9397-16.46692l-.16888,18.23889s-8.26923,12.10858-17.12934.59064l-1.21044-32.73657c-3.36487-2.75623-5.99756-5.45227-6.468-7.42847-.805-3.38078-.38138-5.00641.17062-5.78581a.70853.70853,0,0,0-.3492-1.06682c-2.15381-.78115-5.57687-3.13392-.11683-9.68594,0,0-6.7926-1.772-.29529-8.26929,6.49719-6.49725,9.746-6.7926,9.746-6.7926s-16.53857,1.18133-16.834-2.06732c-.13965-1.53748-.73877-3.60358,1.01306-5.29157l-4.98462-4.74725-.39148-3.97925-1.44165-14.65735-1.6134-16.40326a99.67423,99.67423,0,0,1-10.89246-18.4176s-40.9519,22.22821-56.55347,36.18756c-.3031.27118-.58557.575-.874.86938-14.55957,14.85724-10.78149,58.69928-18.83325,81.24451-4.48267,12.55121-1.42261,17.88306,2.54248,22.47138,3.29809,3.81677,7.31116,7.91076,7.31116,7.91076s-12.41077.36316-16.57288-2.27325a22.68544,22.68544,0,0,0-4.24463-2.11633,36.43606,36.43606,0,0,0,3.238,2.31762c6.04,20.13391-.20142,31.20752-.20142,31.20752s-10.33179-9.97369-22.33056-21.02514c-2.77308,14.22509,2.52856,41.537,3.98132,44.4425,1.64221,3.28455,43.52038,14.78046,43.52038,14.78046,5.183,6.08435,9.31055,9.74627,12.84913,11.83856,9.35559,5.5318,14.56933.02789,24.102-1.16376,13.1383-1.64227,16.42285,4.92688,38.5935,5.748,22.1709.82116,44.34156,2.46344,55.01642-3.28455,10.67481-5.748,18.065,0,32.84552,1.64227a52.8102,52.8102,0,0,0,15.98914-.62054,13.67836,13.67836,0,0,0,1.74469-.46832,14.02941,14.02941,0,0,0,8.9635-9.48572l.33539-7.58429s11.24462,3.87524,22.74054.5907c4.80822-1.37378,8.2456-9.01386,10.63195-18.0152,1.65955-6.26,4.66858-11.04285,6.79261-16.83392s-.47638-15.5437.95672-19.8429C1298.49755,433.36007,1291.10729,409.547,1285.35937,396.40884Z"/><path class="cls-7" d="M1190.7932,315.77987c-.29833-.37292-1.85583-2.262-3.76928-4.578-2.64429-3.20068-5.9643-7.21185-7.58655-9.17133-.61157-.73876-.98547-1.19024-.98547-1.19024l-36.279,2.00622-10.70483.592.45081,4.5824,1.6134,16.40326,1.44165,14.65735.39148,3.97925L1140.35,347.808c1.94958-1.87866,6.81189-3.28882,18.47888-2.97772,16.17987.43152,24.94855,3.5423,30.114,6.91431a19.63155,19.63155,0,0,0,1.85028-3.704c0-.28681.16871-6.39917.28278-13.22907q.01109-.66477.02149-1.33649C1191.22466,325.193,1191.25207,316.35348,1190.7932,315.77987Z"/><path class="cls-3" d="M1179.31792,158.80648l-12.55786-6.49542s-3.46423,4.76331-12.12475,5.84589c-8.66065,1.08258-20.35254,16.45514-20.78553,26.41479-.433,9.95972-10.3927,62.13984-10.3927,62.13984s2.9939,2.825,7.00415,6.45007c5.18665,4.68835,12.06934,10.70862,16.42383,13.72815a19.41064,19.41064,0,0,1,15.76123-5.88825c4.64942.30994,7.85669.83533,10.15918,1.85077a28.88638,28.88638,0,0,0,5.42987-2.71679c1.484-1.05115,3.59479-3.67646,5.85273-6.88764,5.64868-8.03351,12.22064-19.74658,12.22064-19.74658S1199.45385,173.313,1179.31792,158.80648Z"/><path class="cls-5" d="M1181.26659,283.95218c-2.62695-12.98-2.72174-18.56873-8.46112-21.09986-2.30249-1.01544-5.50976-1.54083-10.15918-1.85077a19.41064,19.41064,0,0,0-15.76123,5.88825c-4.62036,4.75262-6.47436,11.09021-6.10681,14.03113.536,4.28857-1.42981,15.65057,1.39465,21.92559l36.279-2.00622s.3739.45148.98547,1.19024C1181.50042,298.74325,1183.12786,293.14908,1181.26659,283.95218Z"/><path class="cls-3" d="M1037.03985,436.21493a36.43606,36.43606,0,0,1-3.238-2.31762,63.0528,63.0528,0,0,1-17.09717-21.03766c-1.00683-2.01337-4.63086-11.879-19.12719-23.154-14.49646-11.275-17.31519-23.35528-25.57007-23.35528s-7.44959,5.2348-7.24829,7.24817c0,0-4.69868,0-4.25009,4.82658.00445.04786-.05024.07968-.07429.038-.91348-1.58095-8.13454-13.63766-13.59481-9.49543,0,0-1.812,2.21478-.8053,4.22815,0,0-5.83875-4.0268-7.44959-1.40936-1.61059,2.61737,9.06031,10.671,10.067,12.08032s16.50977,18.32184,17.31506,22.34863c.80542,4.02673,3.82544,6.64417,14.09375,11.47632,5.42884,2.55469,20.98694,16.30829,34.447,28.70551,11.99877,11.05145,22.33056,21.02514,22.33056,21.02514S1043.07989,456.34884,1037.03985,436.21493Z"/><path class="cls-8" d="M1125.94527,245.91129s-9.40888,43.112-26.305,41.50285"/><path class="cls-8" d="M1137.85359,342.26047c4.42921-.13521,47.87627-2.14665,47.87627-2.14665l7.55153,7.12651"/><line class="cls-8" x1="1185.72986" y1="340.11382" x2="1181.92555" y2="301.23026"/><path class="cls-8" d="M1142.68509,286.60957s12.54362-14.55883,41.06969-3.45768"/><path class="cls-8" d="M1149.97107,379.52638s7.2969-4.15845,21.263-2.35384"/><path class="cls-8" d="M1149.81415,369.091c.31384-.07846,10.043-2.58922,13.88765-2.35384a17.882,17.882,0,0,1,5.88459,1.17692"/><path class="cls-8" d="M1158.65913,354.36661s17.67493-1.75245,23.16722.9937"/><path class="cls-8" d="M1254.93709,501.44162s1.15754-2.27823-11.17481-5.59848-31.54235-8.53778-39.843-25.61334l-.36986-8.95322"/><path class="cls-8" d="M1225.40395,417.86289s46.58044,10.15234,54.88105,25.80493"/><path class="cls-8" d="M1240.442,421.37473c0-1.66012,13.75531-69.25088,22.05593-86.5636"/><path class="cls-8" d="M1064.49776,504.82s-3.99648-19.312,1.39411-37.19894c5.21753-17.31272-8.78437-30.13444-8.78437-30.13444"/><path class="cls-8" d="M1020.97737,490.03952s9.80819,6.17748,18.34924-23.41736"/><path class="cls-5" d="M1227.90437,519.6005c-14.78051-1.64228-22.17071-7.39026-32.84552-1.64228s-32.84552,4.10572-55.01642,3.28455c-22.17065-.82111-25.4552-7.39026-38.5935-5.748-9.53272,1.19165-14.74646,6.69556-24.102,1.16376-3.79492,23.47351-4.6377,56.316-4.6377,56.316l192.96759.82117c-.92456-19.87806-11.218-40.79627-20.03857-55.28406a13.6767,13.6767,0,0,1-1.74469.46832A52.81048,52.81048,0,0,1,1227.90437,519.6005Z"/><path class="cls-5" d="M1158.95442,387.4437c-4.43.59069-2.99792,5.53888-2.99792,5.53888l.01538.413,1.21045,32.73657c8.8601,11.51795,17.12933-.59064,17.12933-.59064l.16889-18.23889.1264-13.65692C1170.177,386.55771,1163.38435,386.85306,1158.95442,387.4437Z"/><path class="cls-8" d="M1225.40395,417.86289s-27.76111-22.74054-29.82843-26.28455c-2.06733-3.544.886-13.5852,3.24865-16.53851,2.36261-2.95331,1.18128-15.94794-2.95337-20.37787a23.72594,23.72594,0,0,0-4.43969-3.71765c-5.16547-3.372-13.93415-6.48279-30.114-6.91431-11.667-.3111-16.52929,1.09906-18.47888,2.97772-1.75183,1.688-1.15271,3.75409-1.01306,5.29157.29541,3.24865,16.834,2.06732,16.834,2.06732s-3.24878.29535-9.746,6.7926c-6.49731,6.49732.29529,8.26929.29529,8.26929-5.46,6.552-2.037,8.90479.11683,9.68594a.70854.70854,0,0,1,.34921,1.06682c-.552.7794-.97566,2.405-.17063,5.78581.47046,1.9762,3.10315,4.67224,6.468,7.42847l-.01538-.413s-1.43213-4.94819,2.99792-5.53888c4.42993-.59064,11.22254-.886,15.65253,6.202l-.1264,13.65692a52.93733,52.93733,0,0,0,11.93969,16.46692c9.45056,8.85993,17.12921,37.50708,17.12921,37.50708l1.89174.67562a12.84106,12.84106,0,0,0,16.06491-6.935C1227.514,441.3983,1225.40395,417.86289,1225.40395,417.86289Z"/><path class="cls-5" d="M1123.5146,288.803c2.9823-3.0094,9.79224-21.24023,10.65821-24.921.50537-2.14789-.3899-7.46362-1.22339-11.52069-4.01026-3.62512-7.00415-6.45007-7.00415-6.45007s9.95971-52.18012,10.3927-62.13983c.433-9.95966,12.12487-25.33222,20.78552-26.4148,8.66052-1.08258,12.12476-5.84589,12.12476-5.84589l12.55786,6.49543c20.13592,14.50653,16.99078,74.69482,16.99078,74.69482s-6.572,11.71307-12.22064,19.74658c3.26465,22.91706,22.07843,29.62232,23.26306,30.66486,0,0,8.32513,2.84851,19.46973,7.63422,3.956-3.61268,8.88073-7.89661,11.60247-9.45191,5.03931-2.87964,27.35651-28.43634,5.3993-52.55328s-32.7558-11.5185-28.43641-31.676c4.31946-20.15741,12.23847-58.67248-19.79742-72.71069,0,0-16.55792-4.67944-28.4364-2.51972,0,0-39.95483-8.63885-50.39356,8.99891-10.43872,17.63769-11.51855,48.59375-16.91784,59.39239s-4.31946,19.4375-18.35767,26.27667c-14.03821,6.83912-47.51391,29.15625-11.51855,70.551,0,0,2.51965,13.67828-6.83911,24.83685-5.27747,6.29236-4.25818,10.06665.47326,13.96906.28845-.29438.57093-.59821.874-.86939C1082.5627,311.03122,1123.5146,288.803,1123.5146,288.803Z"/><path class="cls-8" d="M1133.95625,302.63822l10.70484-.592c-2.82447-6.275-.85865-17.637-1.39466-21.9256-.36755-2.94092,1.48645-9.27851,6.10682-14.03113-4.3545-3.01953-11.23719-9.0398-16.42383-13.72815.83349,4.05707,1.72876,9.3728,1.22339,11.52069-.866,3.68073-7.67591,21.91156-10.65821,24.921a99.67423,99.67423,0,0,0,10.89246,18.4176Z"/><path class="cls-8" d="M1180.72353,259.33524a28.887,28.887,0,0,1-5.42987,2.71679c5.73938,2.53113,5.83416,8.11988,8.46112,21.09986,1.86126,9.1969.23382,14.79107-1.82923,18.07837,1.62226,1.95947,4.94226,5.97064,7.58655,9.17132,7.23541-5.70862,14.27148-14.38775,20.32721-27.28912-1.18463-1.04254-19.99841-7.7478-23.26306-30.66486C1184.31831,255.65878,1182.20747,258.28409,1180.72353,259.33524Z"/><path class="cls-8" d="M1287.84755,395.60855c-5.748-13.13824-7.39026-27.09759-4.92688-50.91064.80395-7.77149,1.0979-19.77753-9.37769-28.72437-12.00689-10.25476-30.3189-19.2514-44.23394-25.22686-11.1446-4.78571-19.46973-7.63422-19.46973-7.63422-6.05573,12.90137-13.0918,21.5805-20.32721,27.28912,1.91345,2.316,3.471,4.20508,3.76929,4.578.45886.5736.43145,9.41308.30426,17.69519q-.01035.67181-.02149,1.33648c-.11407,6.8299-.28277,12.94226-.28277,13.22907a19.631,19.631,0,0,1-1.85028,3.704,23.72594,23.72594,0,0,1,4.43969,3.71765c4.13465,4.42993,5.316,17.42456,2.95337,20.37787-2.36267,2.95331-5.316,12.99456-3.24865,16.53851,2.06732,3.544,29.82843,26.28455,29.82843,26.28455s2.16067,24.09958-4.11607,37.63684a12.71933,12.71933,0,0,1-15.83662,6.45607l-1.90181-.67922s-7.67865-28.64715-17.12921-37.50708a52.93733,52.93733,0,0,1-11.93969-16.46692l-.16889,18.23889s-8.26923,12.10859-17.12933.59064l-1.21045-32.73657c-3.36487-2.75623-5.99756-5.45227-6.468-7.42847-.805-3.38078-.38138-5.00641.17063-5.78581a.70854.70854,0,0,0-.34921-1.06682c-2.15381-.78115-5.57687-3.13392-.11683-9.68594,0,0-6.7926-1.772-.29529-8.26929,6.49719-6.49725,9.746-6.7926,9.746-6.7926s-16.53857,1.18133-16.834-2.06732c-.13965-1.53748-.73877-3.60358,1.01306-5.29157l-4.98462-4.74725-.39148-3.97925-1.44165-14.65735-1.6134-16.40326a99.67423,99.67423,0,0,1-10.89246-18.4176s-40.9519,22.22821-56.55346,36.18756c-.3031.27118-.58558.575-.874.86939-14.55957,14.85724-10.78149,58.69928-18.83325,81.2445-4.48267,12.55121-1.42261,17.88306,2.54248,22.47138,3.2981,3.81677,7.31116,7.91076,7.31116,7.91076s-12.41077.36316-16.57288-2.27325A22.686,22.686,0,0,0,1036.29,433.097a36.43786,36.43786,0,0,0,3.238,2.31762c6.04,20.13391-.20142,31.20752-.20142,31.20752s-10.33178-9.97369-22.33056-21.02514c-2.77307,14.22509,2.52856,41.537,3.98132,44.4425,1.64221,3.28455,43.52039,14.78046,43.52039,14.78046,5.183,6.08435,9.31054,9.74628,12.84912,11.83856,9.35559,5.5318,14.56933.02789,24.102-1.16376,13.1383-1.64227,16.42285,4.92688,38.5935,5.748,22.1709.82117,44.34156,2.46344,55.01642-3.28455s18.065,0,32.84552,1.64228a52.81048,52.81048,0,0,0,15.98914-.62055,13.6767,13.6767,0,0,0,1.74469-.46832,14.02941,14.02941,0,0,0,8.9635-9.48572l.33539-7.58429s11.24463,3.87525,22.74054.5907c4.80823-1.37378,8.2456-9.01386,10.632-18.0152,1.65954-6.26,4.66857-11.04284,6.7926-16.83392s-.47638-15.5437.95672-19.8429C1300.98573,432.55979,1293.59547,408.74674,1287.84755,395.60855Z"/><path class="cls-8" d="M1193.28139,314.97959c-.29834-.37293-1.85584-2.262-3.76929-4.578-2.64429-3.20068-5.96429-7.21185-7.58655-9.17132-.61157-.73877-.98547-1.19025-.98547-1.19025l-36.279,2.00623-10.70484.592.45081,4.58239,1.6134,16.40326,1.44165,14.65735.39148,3.97925,4.98462,4.74725c1.94959-1.87866,6.81189-3.28882,18.47888-2.97772,16.17987.43152,24.94855,3.5423,30.114,6.91431a19.631,19.631,0,0,0,1.85028-3.704c0-.28681.1687-6.39917.28277-13.22907q.01109-.66476.02149-1.33648C1193.71284,324.39267,1193.74025,315.55319,1193.28139,314.97959Z"/><path class="cls-8" d="M1181.80611,158.0062l-12.55786-6.49543s-3.46424,4.76331-12.12476,5.84589c-8.66065,1.08258-20.35254,16.45514-20.78552,26.4148-.433,9.95971-10.3927,62.13983-10.3927,62.13983s2.99389,2.825,7.00415,6.45007c5.18664,4.68835,12.06933,10.70862,16.42383,13.72815a19.41066,19.41066,0,0,1,15.76123-5.88825c4.64941.30994,7.85669.83533,10.15918,1.85077a28.887,28.887,0,0,0,5.42987-2.71679c1.48394-1.05115,3.59478-3.67646,5.85272-6.88764,5.64868-8.03351,12.22064-19.74658,12.22064-19.74658S1201.942,172.51273,1181.80611,158.0062Z"/><path class="cls-8" d="M1183.75478,283.15189c-2.627-12.98-2.72174-18.56873-8.46112-21.09986-2.30249-1.01544-5.50977-1.54083-10.15918-1.85077a19.41066,19.41066,0,0,0-15.76123,5.88825c-4.62037,4.75262-6.47437,11.09021-6.10682,14.03113.536,4.28857-1.42981,15.65057,1.39466,21.9256l36.279-2.00623s.3739.45148.98547,1.19025C1183.9886,297.943,1185.616,292.34879,1183.75478,283.15189Z"/><path class="cls-8" d="M1039.528,435.41464a36.43786,36.43786,0,0,1-3.238-2.31762,63.05268,63.05268,0,0,1-17.09716-21.03766c-1.00684-2.01337-4.63086-11.879-19.1272-23.154-14.49646-11.275-17.31519-23.35529-25.57007-23.35529s-7.44959,5.2348-7.24829,7.24817c0,0-4.69868,0-4.25009,4.82658.00445.04786-.05024.07968-.07429.03806-.91348-1.581-8.13454-13.63767-13.59481-9.49544,0,0-1.812,2.21478-.8053,4.22815,0,0-5.83874-4.02679-7.44958-1.40936-1.6106,2.61737,9.0603,10.671,10.067,12.08032S967.65,401.3884,968.45528,405.41519c.80542,4.02674,3.82544,6.64417,14.09375,11.47632,5.42883,2.55469,20.98693,16.30829,34.447,28.70551,11.99878,11.05145,22.33056,21.02514,22.33056,21.02514S1045.56807,455.54855,1039.528,435.41464Z"/><path class="cls-8" d="M997.04789,416.58175c-1.18581-1.423-6.40334-5.21754-7.8263-15.17828s-4.03173-20.633-8.06346-18.0242-.23716,23.95322-.23716,23.95322"/><path class="cls-8" d="M975.9406,406.14668S970.27712,375.873,967.65417,373.46"/><path class="cls-8" d="M963.42614,378.49347s.02894,18.29033,3.82351,24.4565"/><path class="cls-8" d="M965.50553,399.50619c-.71148-.47432-16.57585-26.44888-16.57585-26.44888"/><line class="cls-8" x1="970.24832" y1="380.14428" x2="979.49801" y2="385.98804"/><path class="cls-8" d="M1157.18233,426.13211s6.7068-10.13139,17.12933-.59064"/><path class="cls-8" d="M1155.27981,187.9649c.16641,1.33128-3.49459,26.79185-3.661,28.45594s5.82431,3.32818,8.154.832"/><path class="cls-8" d="M1198.79689,232.701c.41489,1.35917.58129,35.473-4.24457,37.63632"/><path class="cls-8" d="M1168.25971,226.57179l-18.80422,2.49613s-4.96672,19.52711,2.66255,24.79494c6.98917,4.82586,13.97835-.49923,14.81039-6.49S1168.25971,226.57179,1168.25971,226.57179Z"/><circle class="cls-5" cx="1177.4122" cy="193.28999" r="2.32973"/><circle class="cls-5" cx="1137.80686" cy="193.28999" r="2.32973"/></svg>