<?xml version="1.0" encoding="utf-8"?>
<!-- Generator: Adobe Illustrator 23.0.6, SVG Export Plug-In . SVG Version: 6.00 Build 0)  -->
<svg version="1.1" xmlns="http://www.w3.org/2000/svg" xmlns:xlink="http://www.w3.org/1999/xlink" x="0px" y="0px"
	 viewBox="0 0 841.89 467.72" style="enable-background:new 0 0 841.89 467.72;" xml:space="preserve">
<style type="text/css">
	.st0{fill:#61A575;}
	.st1{fill:#EFEFF0;}
	.st2{fill:#FFFFFF;}
	.st3{fill:#4890BA;}
	.st4{fill:#235485;}
	.st5{fill:#DCEFFA;}
	.st6{fill:none;stroke:#54575C;stroke-width:0.999;stroke-miterlimit:10;}
	.st7{fill:none;stroke:#54575C;stroke-width:0.9912;stroke-miterlimit:10;}
	.st8{fill:none;stroke:#54575C;stroke-width:0.8866;stroke-linejoin:round;stroke-miterlimit:10;}
	.st9{fill:#54575C;}
	.st10{fill:#F8D0B8;}
	.st11{fill:#E0635D;}
	.st12{fill:none;stroke:#54575C;stroke-miterlimit:10;}
	.st13{fill:#F4F4F5;}
	.st14{fill:#F5C65D;}
	.st15{fill:#EC955C;}
	.st16{fill:#F4B087;}
	.st17{fill:none;}
	.st18{fill:none;stroke:#54575C;stroke-width:1.0014;stroke-miterlimit:10;}
</style>
<g id="Layer_1">
</g>
<g id="Layer_2">
</g>
<g id="Layer_3">
	<rect x="-5.29" y="-1.9" class="st0" width="852.47" height="471.52"/>
	<g>
		<g>
			<g>
				<g>
					<path class="st1" d="M716.19,399.17l-49.04-87.09c0.26-0.95,0.41-1.94,0.41-2.97V45.26c0-6.17-5-11.17-11.17-11.17H196.45
						c-6.17,0-11.17,5-11.17,11.17l3.87,272.5c0,3.6-45.44,81.39-45.44,81.39c-3.49,6.16,0.97,13.79,8.05,13.79h556.37
						C715.21,412.95,719.66,405.33,716.19,399.17z"/>
					<path class="st2" d="M647.48,305.2H202.7c-3.92,0-7.1-3.18-7.1-7.1V51.83c0-3.92,3.18-7.1,7.1-7.1h444.78
						c3.92,0,7.1,3.18,7.1,7.1V298.1C654.58,302.02,651.4,305.2,647.48,305.2z"/>
					<g>
						<path class="st3" d="M628.86,89.77C614.95,72.24,593.48,61,569.34,61c-36.16,0-66.36,25.22-74.03,59.04l74.03,16.9
							L628.86,89.77z"/>
						<path class="st4" d="M643.37,120.04c-2.55-11.24-7.59-21.53-14.51-30.26l-59.52,47.16L643.37,120.04z"/>
						<path class="st5" d="M643.37,120.04l-74.03,16.9l59.37,47.35c10.36-12.98,16.57-29.43,16.57-47.35
							C645.28,131.12,644.6,125.47,643.37,120.04z"/>
						<path class="st2" d="M569.34,136.93l-74.03-16.9c-1.23,5.44-1.91,11.09-1.91,16.9c0,27.14,14.21,50.92,35.6,64.34
							c11.69,7.34,25.51,11.59,40.34,11.59c24.05,0,45.46-11.17,59.37-28.59L569.34,136.93z"/>
					</g>
				</g>
				<g>
					<rect x="413.53" y="61.27" class="st2" width="38.49" height="39.28"/>
					<rect x="413.53" y="257.67" class="st4" width="38.49" height="39.28"/>
					<rect x="413.53" y="100.55" class="st5" width="38.49" height="95.45"/>
					<rect x="413.53" y="196" class="st3" width="38.49" height="61.67"/>
				</g>
			</g>
			<g>
				<g>
					<path class="st6" d="M714.33,398.17l-49.04-87.09c0.26-0.95,0.41-1.94,0.41-2.97V44.27c0-6.17-5-11.17-11.17-11.17H194.59
						c-6.17,0-11.17,5-11.17,11.17l3.87,272.5c0,3.6-45.44,81.39-45.44,81.39c-3.49,6.16,0.97,13.79,8.05,13.79h556.37
						C713.35,411.95,717.8,404.34,714.33,398.17z"/>
					<path class="st7" d="M645.62,304.21H200.84c-3.92,0-7.1-3.18-7.1-7.1V50.84c0-3.92,3.18-7.1,7.1-7.1h444.78
						c3.92,0,7.1,3.18,7.1,7.1v246.27C652.72,301.03,649.54,304.21,645.62,304.21z"/>
					<path class="st6" d="M714.33,396.18c0,0,5.34,9.75-18.05,9.75s-541.25,0-541.25,0s-15.05-0.16-13.17-9.76"/>
					<line class="st6" x1="660.94" y1="315.12" x2="187.29" y2="316.77"/>
					<line class="st6" x1="303.85" y1="391.43" x2="538.7" y2="391.43"/>
					<path class="st6" d="M177.16,358.83l12.53-21.41c3.25-5.56,9.19-8.99,15.63-9.02c62.94-0.31,392.61-1.96,449.98-2.14
						c5.23-0.02,9.95,3.07,12.04,7.86l9.15,21"/>
					<g>
						<path class="st8" d="M627,88.78C613.09,71.25,591.62,60,567.48,60c-36.16,0-66.36,25.22-74.03,59.04l74.03,16.9L627,88.78z"/>
						<path class="st8" d="M641.51,119.04c-2.55-11.24-7.59-21.53-14.51-30.26l-59.52,47.16L641.51,119.04z"/>
						<path class="st8" d="M641.51,119.04l-74.03,16.9l59.37,47.35c10.36-12.98,16.57-29.43,16.57-47.35
							C643.42,130.13,642.74,124.48,641.51,119.04z"/>
						<path class="st8" d="M567.48,135.94l-74.03-16.9c-1.23,5.44-1.91,11.09-1.91,16.9c0,27.14,14.21,50.92,35.6,64.34
							c11.69,7.34,25.51,11.59,40.34,11.59c24.05,0,45.46-11.17,59.37-28.59L567.48,135.94z"/>
					</g>
				</g>
				<g>
					<rect x="411.67" y="60.27" class="st8" width="38.49" height="39.28"/>
					<rect x="411.67" y="256.67" class="st8" width="38.49" height="39.28"/>
					<rect x="411.67" y="99.55" class="st8" width="38.49" height="95.45"/>
					<rect x="411.67" y="195" class="st8" width="38.49" height="61.67"/>
				</g>
				<polyline class="st8" points="208.2,65.77 208.2,225.25 387.71,225.25 				"/>
				<polygon class="st9" points="208.12,63.15 206.07,65.8 210.17,65.8 				"/>
				<polygon class="st9" points="389.59,225.19 386.94,223.14 386.94,227.24 				"/>
				<path class="st6" d="M208.43,142.36c0.18-0.92,3.61-71.54,21.09-57.92s1.75,75.36,25.3,82.54s54.27-69.13,73.69-52.73
					c21.94,18.52,26.13,86.11,44.16,68.08c18.03-18.03,9.38-103.59,9.38-103.59"/>
				<g>
					<line class="st6" x1="212.1" y1="238.68" x2="294.2" y2="238.68"/>
					<line class="st6" x1="212.1" y1="248.72" x2="285.08" y2="248.72"/>
					<line class="st6" x1="212.1" y1="258.75" x2="275.96" y2="258.75"/>
					<line class="st6" x1="212.1" y1="268.79" x2="266.83" y2="268.79"/>
					<line class="st6" x1="212.1" y1="278.82" x2="257.71" y2="278.82"/>
					<line class="st6" x1="212.1" y1="288.86" x2="248.59" y2="288.86"/>
				</g>
				<g>
					<line class="st6" x1="324.61" y1="238.68" x2="377.98" y2="238.68"/>
					<line class="st6" x1="324.61" y1="248.72" x2="377.98" y2="248.72"/>
					<line class="st6" x1="324.61" y1="258.75" x2="377.98" y2="258.75"/>
				</g>
				<g>
					<line class="st6" x1="488.82" y1="221.96" x2="644.67" y2="221.96"/>
					<line class="st6" x1="488.82" y1="235.19" x2="644.67" y2="235.19"/>
					<line class="st6" x1="488.82" y1="248.41" x2="644.67" y2="248.41"/>
					<line class="st6" x1="488.82" y1="261.64" x2="644.67" y2="261.64"/>
					<line class="st6" x1="488.82" y1="274.87" x2="644.67" y2="274.87"/>
					<line class="st6" x1="488.82" y1="288.1" x2="644.67" y2="288.1"/>
				</g>
			</g>
		</g>
		<g>
			<path class="st2" d="M169.69,91.09c0,0.92-2.51-0.53-2.77,2.11s-0.66,4.62-3.17,5.02c-2.51,0.4-3.3,3.04-3.44,4.23
				c-0.13,1.19-5.42-10.44-9.25-8.19c-3.83,2.25-5.29,0.13-8.06,2.38c-2.77,2.25-4.62,4.62-7.66,5.42
				c-2.13,0.56-5.38,1.65-6.33,1.31c-1.03,4.07,1.61,9.71,0.37,15.81c-0.68,3.34-3.93,6.59-4.29,10.63c-0.09,0.98-0.13,1.99-0.15,3
				c4.59,0.2,9.22,1.62,13.06,1.44c2.36-0.11,5.69,0.33,8.62,1.21c1.21-4.72,3.59-13.83,4.18-14.51c1.89-2.2,6.74,5.29,11.36,1.72
				c1.4-1.08,5.68-12.82,5.68-12.82s3.96,0.92,3.3-0.4c-0.66-1.32,1.19-12.02,2.25-18.24c0.39-2.31-0.02-4.03-0.69-5.28
				c-0.1,0.2-0.22,0.38-0.37,0.53C170.09,88.71,169.69,90.17,169.69,91.09z"/>
			<path class="st2" d="M152.73,347.14c-2.07,4.99-2.7,23.51-4.56,40.57c-0.05,0.46-0.09,0.9-0.14,1.32
				c8.86-15.21,31.22-53.89,34.37-61.87c2.87-7.28-4.06-36.99-8.36-52.9c-4.3,17.9-11.26,38.21-13.22,46.45
				C157.5,334.65,154.8,342.14,152.73,347.14z"/>
			<path class="st2" d="M144.78,403.27c6.12,3.16,16.65,8.3,23.11,10.91l8.08-1.27c0,0,1.66,0,0.62-3.32
				c-0.82-2.64-19.94-9.19-28.83-11.99C148.07,402.06,148.95,400.52,144.78,403.27z"/>
			<path class="st2" d="M170.57,415.19c-0.77-0.27-1.68-0.61-2.68-1.02c-6.46-2.61-16.99-7.74-23.11-10.91
				c-0.05,0.03-0.09,0.06-0.14,0.09c-2.08,1.39-5.03,2.29-8.03,2.87c-5.95,1.16-12.1,1.07-12.1,1.07
				c-5.6,4.36-4.15,13.69-3.94,15.98c0.23,2.52,15.58,0.55,20.54,1.04c14.63,1.45,33.31-3.85,33.31-3.85
				S177.84,417.68,170.57,415.19z"/>
			<path class="st2" d="M176.59,245.47c-1.15,2.68-43.59-6.86-49.2-11.27c-2.18,6.3-4.95,23.86,0.55,34.54
				c7.05,13.69,6.95,45.62,6.12,55.79c-0.83,10.17-19.71,68.89-9.54,82.79c0,0,6.15,0.09,12.1-1.07c3-0.58,5.94-1.48,8.03-2.87
				c0.05-0.03,0.09-0.06,0.14-0.09c4.17-2.76,3.29-1.21,2.98-5.67c-0.12-1.78-0.15-4.53,0.27-8.89c0.04-0.43,0.08-0.86,0.14-1.32
				c1.87-17.01,2.49-35.48,4.56-40.46s4.77-12.45,8.09-26.35c1.96-8.22,8.93-28.47,13.22-46.32
				C177.01,261.92,177.94,255.07,176.59,245.47z"/>
			<path class="st2" d="M174.1,184.47c0,0,0.3-0.37,0.82-1.01c0.01-0.31,0.01-0.63,0.02-0.95L174.1,184.47z"/>
			<path class="st2" d="M203.36,152.3l-0.13,0.31c1.45,0.78-0.7,2.81-0.7,2.81l-0.54,0.2l-0.25,0.6c0.85,0.28-0.43,1.4-0.82,1.98
				l-0.11,0.26c0.01,0.03,0.03,0.05,0.07,0.07c0.37,0.12,2.59-2.12,4.32-3.94c1.14-1.2,3.05-1.17,4.16,0.05
				c0.9,0.99,1.81,1.93,2.1,2.03c0.62,0.21,3.53,2.49,3.11,3.73s1.45,2.7,1.66,4.77c0.21,2.07-4.15,4.56-8.51,4.98
				c-4.36,0.41-13.69,3.94-14.32,4.56c-0.12,0.12-0.87,1.66-2.07,4.09l16.8,7.53l33.41-37.35l-30.09-11.2
				C211.45,137.78,203.77,151.68,203.36,152.3z"/>
			<path class="st2" d="M203.23,152.61c-0.35-0.19-0.9-0.31-1.74-0.31c-4.36,0-26.77,14.73-26.77,14.73
				c0.33,3.12,0.31,9.88,0.22,15.47c-0.01,0.32-0.01,0.64-0.02,0.95c2.8-3.46,12.01-14.91,15.16-20.16c0.66-1.1,1.41-2.03,2.19-2.81
				c3.62-3.67,7.98-4.24,7.98-4.24l1.74-0.63l0.54-0.2C202.53,155.42,204.68,153.39,203.23,152.61z"/>
			<path class="st2" d="M214.56,160.4c0.41-1.24-2.49-3.53-3.11-3.73c-0.29-0.1-1.2-1.04-2.1-2.03c-1.11-1.22-3.03-1.25-4.16-0.05
				c-1.73,1.83-3.95,4.07-4.32,3.94c-0.04-0.01-0.06-0.04-0.07-0.07l0.11-0.26c0.4-0.58,1.67-1.7,0.82-1.98l0.25-0.6l-1.74,0.63
				c0,0-4.36,0.57-7.98,4.24c-0.78,0.79-1.53,1.71-2.19,2.81c-3.15,5.25-12.35,16.7-15.16,20.16c-0.52,0.64-0.82,1.01-0.82,1.01
				s-4.15,6.64-4.15,6.02c0-0.62-6.22-22.41-8.92-24.9c0,0-19.3,3.53-19.92,8.71c0,0,16.6,42.95,24.9,42.33
				c2.86-0.21,6.92-5.17,11.04-11.6c5.6-8.74,11.31-20.2,14.28-26.22c1.2-2.43,1.95-3.98,2.07-4.09c0.62-0.62,9.96-4.15,14.32-4.56
				c4.36-0.41,8.71-2.9,8.51-4.98C216.01,163.09,214.15,161.64,214.56,160.4z"/>
			<path class="st2" d="M141.11,174.3c0.21-0.73-2.13,0.05-5.42-12.32"/>
			<path class="st2" d="M161.03,165.58l1.74,0c0,0-1.41-7.2-3.13-10.18"/>
			<g>
				<path class="st2" d="M168.63,72.33c-2.38-3.44-12.12-12.23-27.49-8.27c-6.6,1.7-12.24,8.21-13.08,10.32
					c15.97,7.92,5.64,21.49,2.53,25.04c-0.56,1.19-1.21,2.48-1.58,3.95c0.94,0.34,4.2-0.75,6.33-1.31c3.04-0.79,4.89-3.17,7.66-5.42
					c2.77-2.25,4.23-0.13,8.06-2.38c3.83-2.25,9.12,9.38,9.25,8.19c0.13-1.19,0.92-3.83,3.44-4.23c2.51-0.4,2.91-2.38,3.17-5.02
					s2.77-1.19,2.77-2.11c0-0.92,0.4-2.38,2.64-4.62c0.15-0.15,0.27-0.33,0.37-0.53C174.11,83.12,170.85,75.54,168.63,72.33z"/>
				<path class="st2" d="M126.97,74.71c0.91,0.47,5.41,2.63,8.16,5.87c2.75,3.24-5.02-7.45-7.45-7.45L126.97,74.71z"/>
			</g>
			<path class="st2" d="M217.81,137.7l-1.79,6.45c0,0,10.75,5.19,11.46,4.3c0.72-0.9,2.15-6.81,2.15-6.81L217.81,137.7z"/>
			<path class="st2" d="M117.17,126.9c1.61,0.32,2.89,3.88,7.77,5.88c0.02-1.01,0.06-2.01,0.15-2.97c0.36-4.04,3.61-7.29,4.29-10.63
				c1.24-6.1-1.4-11.74-0.37-15.81c0.37-1.47,1.02-2.76,1.58-3.95c3.11-3.55,13.44-17.12-2.53-25.04c-0.18,0.45-0.26,0.73-0.26,0.73
				c0.02,0.02,0.05,0.05,0.08,0.08c-0.29-0.2-0.6-0.36-0.91-0.47c-1.13-0.42-2.48-0.28-4.59,0.52c-5.05,1.92-13.1-2.27-13.1,16.41
				c0,5.95,5.62,12.3,5.58,14.51c-0.07,4.65-4.93,3.34-5.84,9.1C107.6,124.28,114.85,126.44,117.17,126.9z"/>
			<path class="st2" d="M125.04,132.82c-0.03-0.01-0.06-0.02-0.09-0.04c0,0.01,0,0.02,0,0.03
				C124.97,132.81,125,132.82,125.04,132.82z"/>
			<path class="st2" d="M177.05,205.02c-4.12,6.43-8.18,11.39-11.04,11.6c-8.3,0.62-24.9-42.33-24.9-42.33
				c0.62-5.19,19.92-8.71,19.92-8.71c2.7,2.49,8.92,24.28,8.92,24.9c0,0.62,4.15-6.02,4.15-6.02l0.84-1.95
				c0.09-5.6,0.12-12.36-0.22-15.47c-0.62-5.81-20.13-25.52-22.41-28.43c-1.05-1.33-3.23-2.4-5.7-3.14
				c-2.92-0.89-6.26-1.33-8.62-1.21c-3.81,0.18-8.4-1.21-12.96-1.43c-0.03,0-0.06-0.01-0.1-0.01c0-0.01,0-0.02,0-0.03
				c-4.88-2-6.16-5.56-7.77-5.88c-2.33-0.47-3.72,6.75-4.89,12.1c-0.92,4.23,1.86,37.94,18.86,76.17
				c0.83,1.87-3.32,14.32-4.36,18.05c-0.08,0.28,0.14,0.61,0.6,0.97c5.61,4.41,48.05,13.95,49.2,11.27
				C177.66,242.97,177.2,213.23,177.05,205.02z"/>
		</g>
		<circle class="st9" cx="302.92" cy="93.42" r="1.17"/>
		<g>
			<path class="st10" d="M167.19,89.22c0,0.92-2.51-0.53-2.77,2.11s-0.66,4.62-3.17,5.02c-2.51,0.4-3.3,3.04-3.44,4.23
				c-0.13,1.19-5.42-10.44-9.25-8.19c-3.83,2.25-5.29,0.13-8.06,2.38c-2.77,2.25-4.62,4.62-7.66,5.42
				c-2.13,0.56-5.38,1.65-6.33,1.31c-1.03,4.07,1.61,9.71,0.37,15.81c-0.68,3.34-3.93,6.59-4.29,10.63c-0.09,0.98-0.13,1.99-0.15,3
				c4.59,0.2,9.22,1.62,13.06,1.44c2.36-0.11,5.69,0.33,8.62,1.21c1.21-4.72,3.59-13.83,4.18-14.51c1.89-2.2,6.74,5.29,11.36,1.72
				c1.4-1.08,5.68-12.82,5.68-12.82s3.96,0.92,3.3-0.4c-0.66-1.32,1.19-12.02,2.25-18.24c0.39-2.31-0.02-4.03-0.69-5.28
				c-0.1,0.2-0.22,0.38-0.37,0.53C167.59,86.84,167.19,88.29,167.19,89.22z"/>
			<path class="st11" d="M150.23,345.26c-2.07,4.99-2.7,23.51-4.56,40.57c-0.05,0.46-0.09,0.9-0.14,1.32
				c8.86-15.21,31.22-53.89,34.37-61.87c2.87-7.28-4.06-36.99-8.36-52.9c-4.3,17.9-11.26,38.21-13.22,46.45
				C155,332.78,152.31,340.27,150.23,345.26z"/>
			<path class="st5" d="M142.28,401.4c6.12,3.16,16.65,8.3,23.11,10.91l8.08-1.27c0,0,1.66,0,0.62-3.32
				c-0.82-2.64-19.94-9.19-28.83-11.99C145.57,400.19,146.45,398.64,142.28,401.4z"/>
			<path class="st5" d="M168.08,413.32c-0.77-0.27-1.68-0.61-2.68-1.02c-6.46-2.61-16.99-7.74-23.11-10.91
				c-0.05,0.03-0.09,0.06-0.14,0.09c-2.08,1.39-5.03,2.29-8.03,2.87c-5.95,1.16-12.1,1.07-12.1,1.07
				c-5.6,4.36-4.15,13.69-3.94,15.98c0.23,2.52,15.58,0.55,20.54,1.04c14.63,1.45,33.31-3.85,33.31-3.85
				S175.34,415.81,168.08,413.32z"/>
			<path class="st11" d="M174.09,243.59c-1.15,2.68-43.59-6.86-49.2-11.27c-2.18,6.3-4.95,23.86,0.55,34.54
				c7.05,13.69,6.95,45.62,6.12,55.79c-0.83,10.17-19.71,68.89-9.54,82.79c0,0,6.15,0.09,12.1-1.07c3-0.58,5.94-1.48,8.03-2.87
				c0.05-0.03,0.09-0.06,0.14-0.09c4.17-2.76,3.29-1.21,2.98-5.67c-0.12-1.78-0.15-4.53,0.27-8.89c0.04-0.43,0.08-0.86,0.14-1.32
				c1.87-17.01,2.49-35.48,4.56-40.46s4.77-12.45,8.09-26.35c1.96-8.22,8.93-28.47,13.22-46.32
				C174.52,260.05,175.44,253.2,174.09,243.59z"/>
			<path class="st12" d="M171.6,182.59c0,0,0.3-0.37,0.82-1.01c0.01-0.31,0.01-0.63,0.02-0.95L171.6,182.59z"/>
			<path class="st13" d="M200.86,150.43l-0.13,0.31c1.45,0.78-0.7,2.81-0.7,2.81l-0.54,0.2l-0.25,0.6c0.85,0.28-0.43,1.4-0.82,1.98
				l-0.11,0.26c0.01,0.03,0.03,0.05,0.07,0.07c0.37,0.12,2.59-2.12,4.32-3.94c1.14-1.2,3.05-1.17,4.16,0.05
				c0.9,0.99,1.81,1.93,2.1,2.03c0.62,0.21,3.53,2.49,3.11,3.73s1.45,2.7,1.66,4.77c0.21,2.07-4.15,4.56-8.51,4.98
				c-4.36,0.41-13.69,3.94-14.32,4.56c-0.12,0.12-0.87,1.66-2.07,4.09l16.8,7.53l33.41-37.35l-30.09-11.2
				C208.95,135.91,201.27,149.81,200.86,150.43z"/>
			<path class="st10" d="M200.73,150.74c-0.35-0.19-0.9-0.31-1.74-0.31c-4.36,0-26.77,14.73-26.77,14.73
				c0.33,3.12,0.31,9.88,0.22,15.47c-0.01,0.32-0.01,0.64-0.02,0.95c2.8-3.46,12.01-14.91,15.16-20.16c0.66-1.1,1.41-2.03,2.19-2.81
				c3.62-3.67,7.98-4.24,7.98-4.24l1.74-0.63l0.54-0.2C200.03,153.54,202.18,151.52,200.73,150.74z"/>
			<path class="st10" d="M212.06,158.52c0.41-1.24-2.49-3.53-3.11-3.73c-0.29-0.1-1.2-1.04-2.1-2.03c-1.11-1.22-3.03-1.25-4.16-0.05
				c-1.73,1.83-3.95,4.07-4.32,3.94c-0.04-0.01-0.06-0.04-0.07-0.07l0.11-0.26c0.4-0.58,1.67-1.7,0.82-1.98l0.25-0.6l-1.74,0.63
				c0,0-4.36,0.57-7.98,4.24c-0.78,0.79-1.53,1.71-2.19,2.81c-3.15,5.25-12.35,16.7-15.16,20.16c-0.52,0.64-0.82,1.01-0.82,1.01
				s-4.15,6.64-4.15,6.02c0-0.62-6.22-22.41-8.92-24.9c0,0-19.3,3.53-19.92,8.71c0,0,16.6,42.95,24.9,42.33
				c2.86-0.21,6.92-5.17,11.04-11.6c5.6-8.74,11.31-20.2,14.28-26.22c1.2-2.43,1.95-3.98,2.07-4.09c0.62-0.62,9.96-4.15,14.32-4.56
				c4.36-0.41,8.71-2.9,8.51-4.98C213.52,161.22,211.65,159.77,212.06,158.52z"/>
			<path class="st12" d="M138.61,172.43c0.21-0.73-2.13,0.05-5.42-12.32"/>
			<path class="st12" d="M158.53,163.71l1.74,0c0,0-1.41-7.2-3.13-10.18"/>
			<g>
				<path class="st11" d="M166.14,70.46c-2.38-3.44-12.12-12.23-27.49-8.27c-6.6,1.7-12.24,8.21-13.08,10.32
					c15.97,7.92,5.64,21.49,2.53,25.04c-0.56,1.19-1.21,2.48-1.58,3.95c0.94,0.34,4.2-0.75,6.33-1.31c3.04-0.79,4.89-3.17,7.66-5.42
					c2.77-2.25,4.23-0.13,8.06-2.38c3.83-2.25,9.12,9.38,9.25,8.19c0.13-1.19,0.92-3.83,3.44-4.23c2.51-0.4,2.91-2.38,3.17-5.02
					s2.77-1.19,2.77-2.11c0-0.92,0.4-2.38,2.64-4.62c0.15-0.15,0.27-0.33,0.37-0.53C171.61,81.25,168.36,73.66,166.14,70.46z"/>
				<path class="st11" d="M124.47,72.84c0.91,0.47,5.41,2.63,8.16,5.87c2.75,3.24-5.02-7.45-7.45-7.45L124.47,72.84z"/>
			</g>
			<path class="st9" d="M215.32,135.83l-1.79,6.45c0,0,10.75,5.19,11.46,4.3c0.72-0.9,2.15-6.81,2.15-6.81L215.32,135.83z"/>
			<path class="st11" d="M114.68,125.03c1.61,0.32,2.89,3.88,7.77,5.88c0.02-1.01,0.06-2.01,0.15-2.97
				c0.36-4.04,3.61-7.29,4.29-10.63c1.24-6.1-1.4-11.74-0.37-15.81c0.37-1.47,1.02-2.76,1.58-3.95c3.11-3.55,13.44-17.12-2.53-25.04
				c-0.18,0.45-0.26,0.73-0.26,0.73c0.02,0.02,0.05,0.05,0.08,0.08c-0.29-0.2-0.6-0.36-0.91-0.47c-1.13-0.42-2.48-0.28-4.59,0.52
				c-5.05,1.92-13.1-2.27-13.1,16.41c0,5.95,5.62,12.3,5.58,14.51c-0.07,4.65-4.93,3.34-5.84,9.1
				C105.1,122.41,112.35,124.56,114.68,125.03z"/>
			<path class="st12" d="M122.54,130.95c-0.03-0.01-0.06-0.02-0.09-0.04c0,0.01,0,0.02,0,0.03
				C122.47,130.94,122.51,130.94,122.54,130.95z"/>
			<path class="st14" d="M174.55,203.15c-4.12,6.43-8.18,11.39-11.04,11.6c-8.3,0.62-24.9-42.33-24.9-42.33
				c0.62-5.19,19.92-8.71,19.92-8.71c2.7,2.49,8.92,24.28,8.92,24.9c0,0.62,4.15-6.02,4.15-6.02l0.84-1.95
				c0.09-5.6,0.12-12.36-0.22-15.47c-0.62-5.81-20.13-25.52-22.41-28.43c-1.05-1.33-3.23-2.4-5.7-3.14
				c-2.92-0.89-6.26-1.33-8.62-1.21c-3.81,0.18-8.4-1.21-12.96-1.43c-0.03,0-0.06-0.01-0.1-0.01c0-0.01,0-0.02,0-0.03
				c-4.88-2-6.16-5.56-7.77-5.88c-2.33-0.47-3.72,6.75-4.89,12.1c-0.92,4.23,1.86,37.94,18.86,76.17
				c0.83,1.87-3.32,14.32-4.36,18.05c-0.08,0.28,0.14,0.61,0.6,0.97c5.61,4.41,48.05,13.95,49.2,11.27
				C175.17,241.09,174.7,211.36,174.55,203.15z"/>
		</g>
		<g>
			<g>
				<path class="st2" d="M346.87,159.71l-0.12,0.16c-1.04,3.45-2.66,7.97-4.11,11.15l0.02,0.69c0,0,7.47-8.61,7.66-10.91
					c0.13-1.52-0.17-3.12-0.38-4.03l-1.15,1.35L346.87,159.71z"/>
				<path class="st2" d="M345.16,140.68L336,153.03c0.88-0.66,1.82-1.17,2.84-1.44c5.17-1.34,7.08-4.59,6.32-1.15
					c-0.77,3.45-6.32,13.02-6.32,13.02s9-10.72,9-8.23c0,0.69-0.42,2.41-1.06,4.56l0.1-0.08l1.92-1.6l1.15-1.35l11.1-13
					L345.16,140.68z"/>
				<path class="st2" d="M311.08,178.2c3.45,0.57,9-4.21,9-4.21c0.84,0.02,1.67,0.09,2.49,0.18c0.01-0.05,0.29-0.96,0.73-2.28
					c-5.87-0.62-12.81-3.62-13.29-5.8c-0.56-2.53-13.24-31-13.27-30.61c7.97,17.04,10.9,40.42,10.9,40.42
					S307.64,177.62,311.08,178.2z"/>
				<path class="st2" d="M338.84,163.46c0,0,5.55-9.57,6.32-13.02c0.77-3.45-1.15-0.19-6.32,1.15c-1.02,0.26-1.96,0.78-2.84,1.44
					c-3.57,2.66-6,7.71-7.69,8.33c-1.52,0.55-3.84,7-5.01,10.54c-0.44,1.32-0.71,2.23-0.73,2.28c0.46,0.05,0.91,0.12,1.36,0.19
					c4.43,0.74,8.21,2.49,9.97,4.48c2.52-1.59,5.38-3.4,6.47-4.09c0.57-0.37,1.39-1.8,2.28-3.75c1.44-3.17,3.07-7.7,4.11-11.15
					c0.01-0.02,0.01-0.05,0.02-0.07c0.65-2.15,1.06-3.87,1.06-4.56C347.84,152.74,338.84,163.46,338.84,163.46z"/>
				<path class="st2" d="M286.39,121.16c0.04,0.03,0.09,0.07,0.13,0.11c1.09-3.04,5.03-7.21,5.03-7.21s3.76,2.42,5.7,2.55
					c1.94,0.12,4.73-10.18,5.21-10.18c0.19,0,0.59-0.21,1.01-0.46c0.75-0.46,1.2-1.27,1.18-2.15c-0.14-4.54,0.52-19.37-0.06-27.11
					c-0.5-0.03-0.95-0.15-1.28-0.35c-1.58-0.97-2.3-2.79-1.82-0.36s1.09,4.73-0.85,4.61c-1.94-0.12-2.55,0-2.42,1.7
					c0.12,1.7,1.09,2.3-2.42,3.15c-3.52,0.85,0.97,4-1.58,3.03c-2.55-0.97-5.7-7.52-7.76-6.91c-2.06,0.61-5.82,8-4.61,11.03
					c1.21,3.03-2.3,4.97-4,5.82c-1.7,0.85-3.64-0.36-5.09,1.21c-1.45,1.58-2.3,2.3-4.61,1.7c-1.53-0.4-2.74,0.05-3.55,0.04
					c0.2,4.38,0.16,9.21,0.11,12.18C275.69,111.91,286.39,121.16,286.39,121.16z"/>
				<path class="st2" d="M305.74,66.52c-0.12-4.24-6.43-7.15-9.34-7.4c-2.91-0.24-2.67-2.67-5.82-4.49s-5.88,0.67-9.82,2.06
					c-2.06,0.73-5.7-1.09-8,0.61c-2.3,1.7-0.97,4.61-4.49,6.79s-5.46,6.67-5.09,8.97c0.36,2.3-0.48,3.03-2.3,4.73
					c-1.82,1.7-1.33,4.61-0.36,7.4c0.97,2.79-0.24,3.27-0.48,6.55s1.21,4.61,2.67,6.18c1.45,1.58,0.36,1.7,0.97,2.91
					c0.2,0.41,0.52,0.52,0.93,0.53c0.82,0.01,2.02-0.44,3.55-0.04c2.3,0.61,3.15-0.12,4.61-1.7c1.46-1.58,3.4-0.36,5.09-1.21
					c1.7-0.85,5.21-2.79,4-5.82c-1.21-3.03,2.55-10.43,4.61-11.03c2.06-0.61,5.21,5.94,7.76,6.91c2.55,0.97-1.94-2.18,1.58-3.03
					c3.52-0.85,2.55-1.46,2.42-3.15c-0.12-1.7,0.49-1.82,2.42-1.7c1.94,0.12,1.33-2.18,0.85-4.61s0.24-0.61,1.82,0.36
					c0.33,0.2,0.78,0.32,1.28,0.35c1.87,0.13,4.56-0.92,5.51-3.02C311.32,71.01,305.76,67.23,305.74,66.52z"/>
				<path class="st2" d="M333.91,178.84c-1.76-1.99-5.54-3.74-9.97-4.48c-0.45-0.08-0.9-0.14-1.36-0.19
					c-0.82-0.09-1.65-0.16-2.49-0.18c0,0-5.55,4.79-9,4.21s-3.45-2.3-3.45-2.3s-2.94-23.38-10.9-40.42
					c-2.77-5.92-6.14-11.08-10.21-14.22c-0.04-0.03-0.09-0.07-0.13-0.11c0,0-10.7-9.24-21.68-7.62c-0.3,0.04-0.6,0.09-0.9,0.15
					c0,0-1.15,2.11-4.4,4.79c-3.25,2.68-7.85,2.3-9.57,6.89c-1.72,4.59-8.61,47.47-3.83,58.19c4.79,10.72,6.51,37.52,6.32,41.54
					s-4.02,7.85,3.06,11.87c1.46,0.83,2.84,1.93,4.51,3.05c6.35,4.27,16.94,8.92,52.55,0.8c0.1-0.02,0.19-0.04,0.29-0.07
					c0.46-0.11,0.74-0.57,0.65-1.03c-0.12-0.6-0.2-1.59,0-3.14c0.82-6.49,1.53-29.09-1.34-36.37c0,0,21.44-14.55,22.78-18.18
					C335.21,180.98,334.82,179.88,333.91,178.84z"/>
				<path class="st2" d="M293.62,413.16c1.73-0.94,2.84-1.7,3.05-2.16c0.75-1.64-1.52-4.06-4.77-5.81c0.19,2.02,0.48,3.78,0.89,5.05
					C293.13,411.34,293.41,412.31,293.62,413.16z"/>
				<path class="st2" d="M255.93,408.32c-0.12-0.06-0.23-0.61-0.32-1.56c-1.7,5.06-5.35,18.13,2.09,18.31
					c2.98,0.07,7.99-1.11,13.44-2.82v-14.14C261.29,414.96,257.21,408.96,255.93,408.32z"/>
				<path class="st2" d="M271.07,441.67c4.84,3.46,41.73,5.3,50.5,1.38s-2.31-4.38-6.69-6.46c-3.66-1.73-18.22-11.01-22.81-15.91
					c-4.88,3.07-15.17,4.4-19.23,4.82C271.09,429.34,267.22,438.93,271.07,441.67z"/>
				<path class="st2" d="M312.45,240.82c-35.61,8.11-46.2,3.46-52.55-0.8c-0.13,8.54-0.14,25.06,1.6,36.31
					c2.36,15.21-9,53.78-7.71,64.28c1.17,9.52,0.92,56.91,1.82,66.15c0.09,0.95,0.2,1.5,0.32,1.56c1.29,0.64,5.36,6.64,15.21-0.21
					v14.14v3.43c0,0,0.64-0.05,1.7-0.16c4.06-0.42,14.35-1.76,19.23-4.82c0.99-0.62,1.77-1.32,2.22-2.09c0,0,0.29-1.58-0.67-5.44
					c-0.21-0.86-0.48-1.82-0.83-2.92c-0.41-1.27-0.7-3.03-0.89-5.05c-0.69-7.5,0.1-18.62,1.96-22.16c2.36-4.5,3.43-20.78,3.86-28.07
					c0.43-7.29,10.29-51.21,10.07-56.57C307.61,294.09,312.84,257.96,312.45,240.82z"/>
				<path class="st2" d="M690.7,44.24c-0.35-2.25-2.94-2.77-5.01-6.22c-2.07-3.46-1.56-6.74-4.84-8.82
					c-3.29-2.08-2.77-1.56-4.67-4.15c-1.9-2.59-1.21-2.25-4.32-3.46c-3.11-1.21-5.19-1.38-8.13-2.07c-2.94-0.69-3.46-0.86-6.4-0.17
					c-2.94,0.69-5.01,2.25-8.13,3.46c-3.11,1.21-4.32,1.73-8.47,4.15c-3.37,1.97-4.66,7.81-4.67,13.49c0,1.31,0.24,3.81,0.17,5.01
					c-0.35,6.4-0.17,5.88,0.86,7.61c0.95,1.59,3.23,1.41,6.14,0.3c0.26-0.1,0.51-0.19,0.77-0.3c3.29-1.38,4.84,0,7.09,1.38
					c2.25,1.38,2.77,1.56,4.5,1.38c0,0-3.11-12.62,3.46-13.83s8.82,11.24,9.68,11.59s0.86,0.17,3.98,2.59
					c3.11,2.42,5.01,1.04,8.3,1.04c3.29,0,0.35-2.42,4.5-2.25c1,0.04,1.85-0.05,2.57-0.21c2.3-0.5,3.3-1.69,3.3-1.69
					S691.05,46.48,690.7,44.24z"/>
				<path class="st2" d="M688.09,54.75c-0.73,0.16-1.58,0.25-2.57,0.21c-4.15-0.17-1.21,2.25-4.5,2.25c-3.29,0-5.19,1.38-8.3-1.04
					c-3.11-2.42-3.11-2.25-3.98-2.59s-3.11-12.8-9.68-11.59s-3.46,13.83-3.46,13.83c-1.73,0.17-2.25,0-4.5-1.38
					c-2.25-1.38-3.8-2.77-7.09-1.38c-0.27,0.11-0.52,0.2-0.77,0.3c-0.13,2.8-0.09,6.41,0.95,7.13c1.73,1.21,4-0.09,5.01,4.5
					c0.71,3.21,0.36,6.98,0.08,9.04c-0.1,0.74,0.57,1.35,1.3,1.18c1.37-0.32,3.22-0.8,3.64-1.23c0.69-0.69,6.74,10.03,9.51,9.68
					c1.63-0.2,3.75-1.61,5.21-2.73c1.01-0.78,1.71-1.41,1.71-1.41s20.92-10.37,30.26-5.53c0.95,0.49,1.37,0.56,1.38,0.29
					C702.36,72.98,693.43,64.02,688.09,54.75z"/>
				<path class="st2" d="M642.63,140.9c0,0,1-6.61,2.3-14.63c-1.7-1.18-6.39-4.28-9.04-4.56c-3.29-0.35-3.63,4.32-3.63,4.32
					s0,0-3.11,0.17c-1.4,0.08-1.95,0.89-1.67,1.97c0.09,0.35,0.28,0.73,0.55,1.12c0.01,0.02,0.03,0.04,0.04,0.06
					c0.26,0.36,0.59,0.73,0.99,1.09c0.22,0.2,0.46,0.4,0.72,0.59c-0.07,0.05-0.14,0.11-0.21,0.16c-3.34,2.92,3.25,10.98,4.42,12.64
					c0.75,1.06,4.17,2.59,6.7,3.6l0.65,0.95l0.28-0.58l1.07-2.21l0.08-0.16l1.6-3.32c0,0,0.44,0.12,1.18,0.33L642.63,140.9z"/>
				<path class="st2" d="M640.69,147.44c-2.53-1.01-5.96-2.53-6.7-3.6c-1.16-1.66-7.76-9.72-4.42-12.64
					c0.07-0.06,0.14-0.11,0.21-0.16c-0.27-0.19-0.5-0.39-0.72-0.59c-0.41-0.37-0.74-0.73-0.99-1.09c-0.01-0.02-0.03-0.04-0.04-0.06
					c-0.27-0.39-0.46-0.77-0.55-1.12l-24.34,1.92c-1.3,0.1-1.87,1.7-0.92,2.6l22.52,21.41l10.12,9.62l5.5-13.29l0.99-2.05
					L640.69,147.44z"/>
				<path class="st2" d="M647.18,142.89c-0.64-0.18-1.19-0.33-1.64-0.45c-0.74-0.2-1.18-0.33-1.18-0.33l-2.74,5.7l-0.28,0.58
					l-0.99,2.05l-5.5,13.29l-10.12-9.62c1.37,4.91,8.16,28.01,14.96,28.47c4.28,0.29,6.48,1.4,8.47,1.15
					c1.56-0.19,2.99-1.21,5.19-4.09c5.01-6.57,8.99-32.68,8.99-32.68C661.95,146.95,652.14,144.25,647.18,142.89z"/>
				<path class="st2" d="M715.94,84.18c-5.21-4.01-10.38-7.69-13.66-9.91c-0.02,0.27-0.43,0.21-1.38-0.29
					c-9.34-4.84-30.26,5.53-30.26,5.53s-0.7,0.64-1.71,1.41c-0.24,1.16-0.46,2.32-0.54,2.91c-0.17,1.38-16.25,11.76-17.98,14.35
					c-1.03,1.54-3.58,16.33-5.48,28.08c-1.3,8.03-2.3,14.63-2.3,14.63l2.9,1.54c0.45,0.12,1,0.28,1.64,0.45
					c4.96,1.37,14.78,4.06,15.17,4.06c0,0-3.98,26.11-8.99,32.68c-2.2,2.88-3.63,3.9-5.19,4.09c-0.97,13.96-2.94,39.31-2.94,39.31
					c0.75-0.54,2.34-0.92,4.49-1.19c11.69-1.47,39.95,0.5,39.95,0.5c14.63,2.16,25.84,2.4,31.34,2.06c2.44-0.15,3.76-0.42,3.76-0.68
					c0-0.86,1.9-14.7,0.17-28.01c-1.73-13.31,4.67-25.76,5.36-33.72c0.46-5.25,2.25-13.31,1.73-23c-0.52-9.68,1.38-25.59,2.08-31.12
					S724.24,90.58,715.94,84.18z"/>
				<path class="st2" d="M638.04,432.17c-0.37-0.31-0.62-0.66-0.77-1.04c-12.6,1.18-30.19,4.08-23.94,10.93
					c9.44,10.34,53.03,9.44,56.62,8.99c2.16-0.27,2.05-4.28,1.52-7.73c-0.06,0.04-0.11,0.07-0.17,0.09
					C667.25,444.75,640.74,434.42,638.04,432.17z"/>
				<path class="st2" d="M699.6,417.79c0,0-6.29,3.59-4.04,7.64s27.86,18.87,35.5,15.73c4.47-1.84,2.48-9.52,0.06-15.58
					C709.89,433.81,705.41,422.26,699.6,417.79z"/>
				<path class="st2" d="M727.91,370.61c0.45-5.39-4.49-96.61-3.15-103.8c1.05-5.63-0.92-28.59-3.76-42.4
					c-5.51,0.34-16.72,0.09-31.34-2.06c0,0-28.25-1.97-39.95-0.5c-1.52,20.83-6.28,86.98-6.28,95.29c0,9.89-0.9,98.86-2.7,103.8
					c-1.55,4.26-4.42,7.84-3.47,10.19c0.15,0.38,0.4,0.73,0.77,1.04c2.7,2.25,29.21,12.58,33.25,11.23
					c0.06-0.02,0.11-0.05,0.17-0.09c4.02-2.66,9.26-52.54,8.82-56.53c-0.45-4.04,0-60.66,3.59-67.41
					c3.59-6.74,4.94-16.18,4.94-16.18s-4.49,40.89,2.25,51.23s2.7,58.87,8.54,63.36c5.81,4.47,10.29,16.02,31.51,7.79
					c0.13-0.05,0.26-0.09,0.39-0.15C731.51,425.43,727.46,376,727.91,370.61z"/>
				<path class="st2" d="M632.25,126.03c0,0,6.83,3.38,7.15,4.95"/>
				<line class="st2" x1="638.62" y1="129.57" x2="644.08" y2="127.54"/>
				<path class="st2" d="M688.82,303.2c0,0,7.7-28.65,6.61-41.6"/>
			</g>
			<g>
				<path class="st15" d="M344.37,157.24l-0.12,0.16c-1.04,3.45-2.66,7.97-4.11,11.15l0.02,0.69c0,0,7.47-8.61,7.66-10.91
					c0.13-1.52-0.17-3.12-0.38-4.03l-1.15,1.35L344.37,157.24z"/>
				<path class="st9" d="M342.65,138.22l-9.16,12.35c0.88-0.66,1.82-1.17,2.84-1.44c5.17-1.34,7.08-4.59,6.32-1.15
					c-0.77,3.45-6.32,13.02-6.32,13.02s9-10.72,9-8.23c0,0.69-0.42,2.41-1.06,4.56l0.1-0.08l1.92-1.6l1.15-1.35l11.1-13
					L342.65,138.22z"/>
				<path class="st0" d="M308.58,175.74c3.45,0.57,9-4.21,9-4.21c0.84,0.02,1.67,0.09,2.49,0.18c0.01-0.05,0.29-0.96,0.73-2.28
					c-5.87-0.62-12.81-3.62-13.29-5.8c-0.56-2.53-13.24-31-13.27-30.61c7.97,17.04,10.9,40.42,10.9,40.42
					S305.14,175.16,308.58,175.74z"/>
				<path class="st15" d="M336.34,161c0,0,5.55-9.57,6.32-13.02c0.77-3.45-1.15-0.19-6.32,1.15c-1.02,0.26-1.96,0.78-2.84,1.44
					c-3.57,2.66-6,7.71-7.69,8.33c-1.52,0.55-3.84,7-5.01,10.54c-0.44,1.32-0.71,2.23-0.73,2.28c0.46,0.05,0.91,0.12,1.36,0.19
					c4.43,0.74,8.21,2.49,9.97,4.48c2.52-1.59,5.38-3.4,6.47-4.09c0.57-0.37,1.39-1.8,2.28-3.75c1.44-3.17,3.07-7.7,4.11-11.15
					c0.01-0.02,0.01-0.05,0.02-0.07c0.65-2.15,1.06-3.87,1.06-4.56C345.33,150.28,336.34,161,336.34,161z"/>
				<path class="st15" d="M283.89,118.69c0.04,0.03,0.09,0.07,0.13,0.11c1.09-3.04,5.03-7.21,5.03-7.21s3.76,2.42,5.7,2.55
					c1.94,0.12,4.73-10.18,5.21-10.18c0.19,0,0.59-0.21,1.01-0.46c0.75-0.46,1.2-1.27,1.18-2.15c-0.14-4.54,0.52-19.37-0.06-27.11
					c-0.5-0.03-0.95-0.15-1.28-0.35c-1.58-0.97-2.3-2.79-1.82-0.36s1.09,4.73-0.85,4.61c-1.94-0.12-2.55,0-2.42,1.7
					c0.12,1.7,1.09,2.3-2.42,3.15c-3.52,0.85,0.97,4-1.58,3.03c-2.55-0.97-5.7-7.52-7.76-6.91c-2.06,0.61-5.82,8-4.61,11.03
					c1.21,3.03-2.3,4.97-4,5.82c-1.7,0.85-3.64-0.36-5.09,1.21c-1.45,1.58-2.3,2.3-4.61,1.7c-1.53-0.4-2.74,0.05-3.55,0.04
					c0.2,4.38,0.16,9.21,0.11,12.18C273.19,109.45,283.89,118.69,283.89,118.69z"/>
				<path class="st9" d="M303.24,64.06c-0.12-4.24-6.43-7.15-9.34-7.4c-2.91-0.24-2.67-2.67-5.82-4.49s-5.88,0.67-9.82,2.06
					c-2.06,0.73-5.7-1.09-8,0.61c-2.3,1.7-0.97,4.61-4.49,6.79s-5.46,6.67-5.09,8.97c0.36,2.3-0.48,3.03-2.3,4.73
					c-1.82,1.7-1.33,4.61-0.36,7.4c0.97,2.79-0.24,3.27-0.48,6.55s1.21,4.61,2.67,6.18c1.45,1.58,0.36,1.7,0.97,2.91
					c0.2,0.41,0.52,0.52,0.93,0.53c0.82,0.01,2.02-0.44,3.55-0.04c2.3,0.61,3.15-0.12,4.61-1.7c1.46-1.58,3.4-0.36,5.09-1.21
					c1.7-0.85,5.21-2.79,4-5.82c-1.21-3.03,2.55-10.43,4.61-11.03c2.06-0.61,5.21,5.94,7.76,6.91c2.55,0.97-1.94-2.18,1.58-3.03
					c3.52-0.85,2.55-1.46,2.42-3.15c-0.12-1.7,0.49-1.82,2.42-1.7c1.94,0.12,1.33-2.18,0.85-4.61s0.24-0.61,1.82,0.36
					c0.33,0.2,0.78,0.32,1.28,0.35c1.87,0.13,4.56-0.92,5.51-3.02C308.82,68.54,303.26,64.76,303.24,64.06z"/>
				<path class="st0" d="M331.4,176.38c-1.76-1.99-5.54-3.74-9.97-4.48c-0.45-0.08-0.9-0.14-1.36-0.19
					c-0.82-0.09-1.65-0.16-2.49-0.18c0,0-5.55,4.79-9,4.21s-3.45-2.3-3.45-2.3s-2.94-23.38-10.9-40.42
					c-2.77-5.92-6.14-11.08-10.21-14.22c-0.04-0.03-0.09-0.07-0.13-0.11c0,0-10.7-9.24-21.68-7.62c-0.3,0.04-0.6,0.09-0.9,0.15
					c0,0-1.15,2.11-4.4,4.79c-3.25,2.68-7.85,2.3-9.57,6.89c-1.72,4.59-8.61,47.47-3.83,58.19c4.79,10.72,6.51,37.52,6.32,41.54
					s-4.02,7.85,3.06,11.87c1.46,0.83,2.84,1.93,4.51,3.05c6.35,4.27,16.94,8.92,52.55,0.8c0.1-0.02,0.19-0.04,0.29-0.07
					c0.46-0.11,0.74-0.57,0.65-1.03c-0.12-0.6-0.2-1.59,0-3.14c0.82-6.49,1.53-29.09-1.34-36.37c0,0,21.44-14.55,22.78-18.18
					C332.7,178.51,332.32,177.41,331.4,176.38z"/>
				<path class="st11" d="M291.11,410.7c1.73-0.94,2.84-1.7,3.05-2.16c0.75-1.64-1.52-4.06-4.77-5.81c0.19,2.02,0.48,3.78,0.89,5.05
					C290.63,408.88,290.9,409.84,291.11,410.7z"/>
				<path class="st11" d="M253.43,405.86c-0.12-0.06-0.23-0.61-0.32-1.56c-1.7,5.06-5.35,18.13,2.09,18.31
					c2.98,0.07,7.99-1.11,13.44-2.82v-14.14C258.78,412.5,254.71,406.5,253.43,405.86z"/>
				<path class="st11" d="M268.57,439.21c4.84,3.46,41.73,5.3,50.5,1.38s-2.31-4.38-6.69-6.46c-3.66-1.73-18.22-11.01-22.81-15.91
					c-4.88,3.07-15.17,4.4-19.23,4.82C268.59,426.88,264.72,436.46,268.57,439.21z"/>
				<path class="st4" d="M309.94,238.36c-35.61,8.11-46.2,3.46-52.55-0.8c-0.13,8.54-0.14,25.06,1.6,36.31
					c2.36,15.21-9,53.78-7.71,64.28c1.17,9.52,0.92,56.91,1.82,66.15c0.09,0.95,0.2,1.5,0.32,1.56c1.29,0.64,5.36,6.64,15.21-0.21
					v14.14v3.43c0,0,0.64-0.05,1.7-0.16c4.06-0.42,14.35-1.76,19.23-4.82c0.99-0.62,1.77-1.32,2.22-2.09c0,0,0.29-1.58-0.67-5.44
					c-0.21-0.86-0.48-1.82-0.83-2.92c-0.41-1.27-0.7-3.03-0.89-5.05c-0.69-7.5,0.1-18.62,1.96-22.16c2.36-4.5,3.43-20.78,3.86-28.07
					c0.43-7.29,10.29-51.21,10.07-56.57C305.11,291.63,310.33,255.49,309.94,238.36z"/>
				<path class="st14" d="M688.2,41.77c-0.35-2.25-2.94-2.77-5.01-6.22c-2.07-3.46-1.56-6.74-4.84-8.82
					c-3.29-2.08-2.77-1.56-4.67-4.15c-1.9-2.59-1.21-2.25-4.32-3.46c-3.11-1.21-5.19-1.38-8.13-2.07c-2.94-0.69-3.46-0.86-6.4-0.17
					c-2.94,0.69-5.01,2.25-8.13,3.46c-3.11,1.21-4.32,1.73-8.47,4.15c-3.37,1.97-4.66,7.81-4.67,13.49c0,1.31,0.24,3.81,0.17,5.01
					c-0.35,6.4-0.17,5.88,0.86,7.61c0.95,1.59,3.23,1.41,6.14,0.3c0.26-0.1,0.51-0.19,0.77-0.3c3.29-1.38,4.84,0,7.09,1.38
					c2.25,1.38,2.77,1.56,4.5,1.38c0,0-3.11-12.62,3.46-13.83s8.82,11.24,9.68,11.59s0.86,0.17,3.98,2.59
					c3.11,2.42,5.01,1.04,8.3,1.04c3.29,0,0.35-2.42,4.5-2.25c1,0.04,1.85-0.05,2.57-0.21c2.3-0.5,3.3-1.69,3.3-1.69
					S688.54,44.02,688.2,41.77z"/>
				<path class="st16" d="M689.5,54.24c-0.73,0.16-1.58,0.25-2.57,0.21c-4.15-0.17-1.21,2.25-4.5,2.25c-3.29,0-5.19,1.38-8.3-1.04
					c-3.11-2.42-3.11-2.25-3.98-2.59s-3.11-12.8-9.68-11.59s-3.46,13.83-3.46,13.83c-1.73,0.17-2.25,0-4.5-1.38
					c-2.25-1.38-3.8-2.77-7.09-1.38c-0.27,0.11-0.52,0.2-0.77,0.3c-0.13,2.8-0.09,6.41,0.95,7.13c1.73,1.21,4-0.09,5.01,4.5
					c0.71,3.21,0.36,6.98,0.08,9.04c-0.1,0.74,0.57,1.35,1.3,1.18c1.37-0.32,3.22-0.8,3.64-1.23c0.69-0.69,6.74,10.03,9.51,9.68
					c1.63-0.2,3.75-1.61,5.21-2.73c1.01-0.78,1.71-1.41,1.71-1.41s20.92-10.37,30.26-5.53c0.95,0.49,1.37,0.56,1.38,0.29
					C703.77,72.48,694.84,63.51,689.5,54.24z"/>
				<path class="st16" d="M644.04,140.39c0,0,1-6.61,2.3-14.63c-1.7-1.18-6.39-4.28-9.04-4.56c-3.29-0.35-3.63,4.32-3.63,4.32
					s0,0-3.11,0.17c-1.4,0.08-1.95,0.89-1.67,1.97c0.09,0.35,0.28,0.73,0.55,1.12c0.01,0.02,0.03,0.04,0.04,0.06
					c0.26,0.36,0.59,0.73,0.99,1.09c0.22,0.2,0.46,0.4,0.72,0.59c-0.07,0.05-0.14,0.11-0.21,0.16c-3.34,2.92,3.25,10.98,4.42,12.64
					c0.75,1.06,4.17,2.59,6.7,3.6l0.65,0.95l0.28-0.58l1.07-2.21l0.08-0.16l1.6-3.32c0,0,0.44,0.12,1.18,0.33L644.04,140.39z"/>
				<path class="st13" d="M642.1,146.93c-2.53-1.01-5.96-2.53-6.7-3.6c-1.16-1.66-7.76-9.72-4.42-12.64
					c0.07-0.06,0.14-0.11,0.21-0.16c-0.27-0.19-0.5-0.39-0.72-0.59c-0.41-0.37-0.74-0.73-0.99-1.09c-0.01-0.02-0.03-0.04-0.04-0.06
					c-0.27-0.39-0.46-0.77-0.55-1.12l-24.34,1.92c-1.3,0.1-1.87,1.7-0.92,2.6l22.52,21.41l10.12,9.62l5.5-13.29l0.99-2.05
					L642.1,146.93z"/>
				<path class="st16" d="M648.59,142.38c-0.64-0.18-1.19-0.33-1.64-0.45c-0.74-0.2-1.18-0.33-1.18-0.33l-2.74,5.7l-0.28,0.58
					l-0.99,2.05l-5.5,13.29l-10.12-9.62c1.37,4.91,8.16,28.01,14.96,28.47c4.28,0.29,6.48,1.4,8.47,1.15
					c1.56-0.19,2.99-1.21,5.19-4.09c5.01-6.57,8.99-32.68,8.99-32.68C663.37,146.44,653.55,143.75,648.59,142.38z"/>
				<path class="st5" d="M717.36,83.67c-5.21-4.01-10.38-7.69-13.66-9.91c-0.02,0.27-0.43,0.21-1.38-0.29
					c-9.34-4.84-30.26,5.53-30.26,5.53s-0.7,0.64-1.71,1.41c-0.24,1.16-0.46,2.32-0.54,2.91c-0.17,1.38-16.25,11.76-17.98,14.35
					c-1.03,1.54-3.58,16.33-5.48,28.08c-1.3,8.03-2.3,14.63-2.3,14.63l2.9,1.54c0.45,0.12,1,0.28,1.64,0.45
					c4.96,1.37,14.78,4.06,15.17,4.06c0,0-3.98,26.11-8.99,32.68c-2.2,2.88-3.63,3.9-5.19,4.09c-0.97,13.96-2.94,39.31-2.94,39.31
					c0.75-0.54,2.34-0.92,4.49-1.19c11.69-1.47,39.95,0.5,39.95,0.5c14.63,2.16,25.84,2.4,31.34,2.06c2.44-0.15,3.76-0.42,3.76-0.68
					c0-0.86,1.9-14.7,0.17-28.01c-1.73-13.31,4.67-25.76,5.36-33.72c0.46-5.25,2.25-13.31,1.73-23c-0.52-9.68,1.38-25.59,2.08-31.12
					S725.66,90.07,717.36,83.67z"/>
				<path class="st4" d="M639.45,431.66c-0.37-0.31-0.62-0.66-0.77-1.04c-12.6,1.18-30.19,4.08-23.94,10.93
					c9.44,10.34,53.03,9.44,56.62,8.99c2.16-0.27,2.05-4.28,1.52-7.73c-0.06,0.04-0.11,0.07-0.17,0.09
					C668.66,444.25,642.15,433.91,639.45,431.66z"/>
				<path class="st4" d="M701.02,417.28c0,0-6.29,3.59-4.04,7.64s27.86,18.87,35.5,15.73c4.47-1.84,2.48-9.52,0.06-15.58
					C711.3,433.31,706.82,421.75,701.02,417.28z"/>
				<path class="st11" d="M729.33,370.1c0.45-5.39-4.49-96.61-3.15-103.8c1.05-5.63-0.92-28.59-3.76-42.4
					c-5.51,0.34-16.72,0.09-31.34-2.06c0,0-28.25-1.97-39.95-0.5c-1.52,20.83-6.28,86.98-6.28,95.29c0,9.89-0.9,98.86-2.7,103.8
					c-1.55,4.26-4.42,7.84-3.47,10.19c0.15,0.38,0.4,0.73,0.77,1.04c2.7,2.25,29.21,12.58,33.25,11.23
					c0.06-0.02,0.11-0.05,0.17-0.09c4.02-2.66,9.26-52.54,8.82-56.53c-0.45-4.04,0-60.66,3.59-67.41
					c3.59-6.74,4.94-16.18,4.94-16.18s-4.49,40.89,2.25,51.23s2.7,58.87,8.54,63.36c5.81,4.47,10.29,16.02,31.51,7.79
					c0.13-0.05,0.26-0.09,0.39-0.15C732.92,424.92,728.88,375.49,729.33,370.1z"/>
				<path class="st16" d="M633.67,125.52c0,0,6.83,3.38,7.15,4.95"/>
				<line class="st16" x1="640.03" y1="129.06" x2="645.49" y2="127.03"/>
				<path class="st11" d="M690.23,302.69c0,0,7.7-28.65,6.61-41.6"/>
			</g>
			<g>
				<path class="st17" d="M345.92,159.58l-0.1,0.08c-0.01,0.02-0.01,0.05-0.02,0.07L345.92,159.58z"/>
				<path class="st12" d="M170.17,90.73c0,0.92-2.51-0.53-2.77,2.11s-0.66,4.62-3.17,5.02c-2.51,0.4-3.3,3.04-3.44,4.23
					c-0.13,1.19-5.42-10.44-9.25-8.19c-3.83,2.25-5.29,0.13-8.06,2.38c-2.77,2.25-4.62,4.62-7.66,5.42
					c-2.13,0.56-5.38,1.65-6.33,1.31c-1.03,4.07,1.61,9.71,0.37,15.81c-0.68,3.34-3.93,6.59-4.29,10.63c-0.09,0.98-0.13,1.99-0.15,3
					c4.59,0.2,9.22,1.62,13.06,1.44c2.36-0.11,5.69,0.33,8.62,1.21c1.21-4.72,3.59-13.83,4.18-14.51c1.89-2.2,6.74,5.29,11.36,1.72
					c1.4-1.08,5.68-12.82,5.68-12.82s3.96,0.92,3.3-0.4c-0.66-1.32,1.19-12.02,2.25-18.24c0.39-2.31-0.02-4.03-0.69-5.28
					c-0.1,0.2-0.22,0.38-0.37,0.53C170.56,88.35,170.17,89.8,170.17,90.73z"/>
				<path class="st18" d="M153.21,346.77c-2.07,4.99-2.7,23.51-4.56,40.57c-0.05,0.46-0.09,0.9-0.14,1.32
					c8.86-15.21,31.22-53.89,34.37-61.87c2.87-7.28-4.06-36.99-8.36-52.9c-4.3,17.9-11.26,38.21-13.22,46.45
					C157.98,334.28,155.28,341.78,153.21,346.77z"/>
				<path class="st12" d="M145.26,402.91c6.12,3.16,16.65,8.3,23.11,10.91l8.08-1.27c0,0,1.66,0,0.62-3.32
					c-0.82-2.64-19.94-9.19-28.83-11.99C148.55,401.69,149.43,400.15,145.26,402.91z"/>
				<path class="st12" d="M171.05,414.83c-0.77-0.27-1.68-0.61-2.68-1.02c-6.46-2.61-16.99-7.74-23.11-10.91
					c-0.05,0.03-0.09,0.06-0.14,0.09c-2.08,1.39-5.03,2.29-8.03,2.87c-5.95,1.16-12.1,1.07-12.1,1.07
					c-5.6,4.36-4.15,13.69-3.94,15.98c0.23,2.52,15.58,0.55,20.54,1.04c14.63,1.45,33.31-3.85,33.31-3.85
					S178.31,417.32,171.05,414.83z"/>
				<path class="st12" d="M177.07,245.1c-1.15,2.68-43.59-6.86-49.2-11.27c-2.18,6.3-4.95,23.86,0.55,34.54
					c7.05,13.69,6.95,45.62,6.12,55.79c-0.83,10.17-19.71,68.89-9.54,82.79c0,0,6.15,0.09,12.1-1.07c3-0.58,5.94-1.48,8.03-2.87
					c0.05-0.03,0.09-0.06,0.14-0.09c4.17-2.76,3.29-1.21,2.98-5.67c-0.12-1.78-0.15-4.53,0.27-8.89c0.04-0.43,0.08-0.86,0.14-1.32
					c1.87-17.01,2.49-35.48,4.56-40.46s4.77-12.45,8.09-26.35c1.96-8.22,8.93-28.47,13.22-46.32
					C177.49,261.55,178.42,254.7,177.07,245.1z"/>
				<path class="st12" d="M174.58,184.1c0,0,0.3-0.37,0.82-1.01c0.01-0.31,0.01-0.63,0.02-0.95L174.58,184.1z"/>
				<path class="st12" d="M203.83,151.94l-0.13,0.31c1.45,0.78-0.7,2.81-0.7,2.81l-0.54,0.2l-0.25,0.6c0.85,0.28-0.43,1.4-0.82,1.98
					l-0.11,0.26c0.01,0.03,0.03,0.05,0.07,0.07c0.37,0.12,2.59-2.12,4.32-3.94c1.14-1.2,3.05-1.17,4.16,0.05
					c0.9,0.99,1.81,1.93,2.1,2.03c0.62,0.21,3.53,2.49,3.11,3.73s1.45,2.7,1.66,4.77c0.21,2.07-4.15,4.56-8.51,4.98
					c-4.36,0.41-13.69,3.94-14.32,4.56c-0.12,0.12-0.87,1.66-2.07,4.09l16.8,7.53l33.41-37.35l-30.09-11.2
					C211.93,137.41,204.25,151.32,203.83,151.94z"/>
				<path class="st12" d="M203.71,152.24c-0.35-0.19-0.9-0.31-1.74-0.31c-4.36,0-26.77,14.73-26.77,14.73
					c0.33,3.12,0.31,9.88,0.22,15.47c-0.01,0.32-0.01,0.64-0.02,0.95c2.8-3.46,12.01-14.91,15.16-20.16
					c0.66-1.1,1.41-2.03,2.19-2.81c3.62-3.67,7.98-4.24,7.98-4.24l1.74-0.63l0.54-0.2C203,155.05,205.16,153.03,203.71,152.24z"/>
				<path class="st12" d="M215.04,160.03c0.41-1.24-2.49-3.53-3.11-3.73c-0.29-0.1-1.2-1.04-2.1-2.03
					c-1.11-1.22-3.03-1.25-4.16-0.05c-1.73,1.83-3.95,4.07-4.32,3.94c-0.04-0.01-0.06-0.04-0.07-0.07l0.11-0.26
					c0.4-0.58,1.67-1.7,0.82-1.98l0.25-0.6l-1.74,0.63c0,0-4.36,0.57-7.98,4.24c-0.78,0.79-1.53,1.71-2.19,2.81
					c-3.15,5.25-12.35,16.7-15.16,20.16c-0.52,0.64-0.82,1.01-0.82,1.01s-4.15,6.64-4.15,6.02c0-0.62-6.22-22.41-8.92-24.9
					c0,0-19.3,3.53-19.92,8.71c0,0,16.6,42.95,24.9,42.33c2.86-0.21,6.92-5.17,11.04-11.6c5.6-8.74,11.31-20.2,14.28-26.22
					c1.2-2.43,1.95-3.98,2.07-4.09c0.62-0.62,9.96-4.15,14.32-4.56c4.36-0.41,8.71-2.9,8.51-4.98
					C216.49,162.73,214.62,161.28,215.04,160.03z"/>
				<path class="st12" d="M345.92,159.58l-0.12,0.16c-1.04,3.45-2.66,7.97-4.11,11.15l0.02,0.69c0,0,7.47-8.61,7.66-10.91
					c0.13-1.52-0.17-3.12-0.38-4.03l-1.15,1.35L345.92,159.58z"/>
				<path class="st12" d="M344.2,140.55l-9.16,12.35c0.88-0.66,1.82-1.17,2.84-1.44c5.17-1.34,7.08-4.59,6.32-1.15
					c-0.77,3.45-6.32,13.02-6.32,13.02s9-10.72,9-8.23c0,0.69-0.42,2.41-1.06,4.56l0.1-0.08l1.92-1.6l1.15-1.35l11.1-13
					L344.2,140.55z"/>
				<path class="st12" d="M310.13,178.07c3.45,0.57,9-4.21,9-4.21c0.84,0.02,1.67,0.09,2.49,0.18c0.01-0.05,0.29-0.96,0.73-2.28
					c-5.87-0.62-12.81-3.62-13.29-5.8c-0.56-2.53-13.24-31-13.27-30.61c7.97,17.04,10.9,40.42,10.9,40.42
					S306.69,177.5,310.13,178.07z"/>
				<path class="st12" d="M337.89,163.33c0,0,5.55-9.57,6.32-13.02c0.77-3.45-1.15-0.19-6.32,1.15c-1.02,0.26-1.96,0.78-2.84,1.44
					c-3.57,2.66-6,7.71-7.69,8.33c-1.52,0.55-3.84,7-5.01,10.54c-0.44,1.32-0.71,2.23-0.73,2.28c0.46,0.05,0.91,0.12,1.36,0.19
					c4.43,0.74,8.21,2.49,9.97,4.48c2.52-1.59,5.38-3.4,6.47-4.09c0.57-0.37,1.39-1.8,2.28-3.75c1.44-3.17,3.07-7.7,4.11-11.15
					c0.01-0.02,0.01-0.05,0.02-0.07c0.65-2.15,1.06-3.87,1.06-4.56C346.88,152.61,337.89,163.33,337.89,163.33z"/>
				<path class="st12" d="M285.44,121.03c0.04,0.03,0.09,0.07,0.13,0.11c1.09-3.04,5.03-7.21,5.03-7.21s3.76,2.42,5.7,2.55
					c1.94,0.12,4.73-10.18,5.21-10.18c0.19,0,0.59-0.21,1.01-0.46c0.75-0.46,1.2-1.27,1.18-2.15c-0.14-4.54,0.52-19.37-0.06-27.11
					c-0.5-0.03-0.95-0.15-1.28-0.35c-1.58-0.97-2.3-2.79-1.82-0.36s1.09,4.73-0.85,4.61c-1.94-0.12-2.55,0-2.42,1.7
					c0.12,1.7,1.09,2.3-2.42,3.15c-3.52,0.85,0.97,4-1.58,3.03c-2.55-0.97-5.7-7.52-7.76-6.91c-2.06,0.61-5.82,8-4.61,11.03
					c1.21,3.03-2.3,4.97-4,5.82c-1.7,0.85-3.64-0.36-5.09,1.21c-1.45,1.58-2.3,2.3-4.61,1.7c-1.53-0.4-2.74,0.05-3.55,0.04
					c0.2,4.38,0.16,9.21,0.11,12.18C274.74,111.79,285.44,121.03,285.44,121.03z"/>
				<path class="st12" d="M304.79,66.39c-0.12-4.24-6.43-7.15-9.34-7.4c-2.91-0.24-2.67-2.67-5.82-4.49s-5.88,0.67-9.82,2.06
					c-2.06,0.73-5.7-1.09-8,0.61c-2.3,1.7-0.97,4.61-4.49,6.79s-5.46,6.67-5.09,8.97c0.36,2.3-0.48,3.03-2.3,4.73
					c-1.82,1.7-1.33,4.61-0.36,7.4c0.97,2.79-0.24,3.27-0.48,6.55s1.21,4.61,2.67,6.18c1.45,1.58,0.36,1.7,0.97,2.91
					c0.2,0.41,0.52,0.52,0.93,0.53c0.82,0.01,2.02-0.44,3.55-0.04c2.3,0.61,3.15-0.12,4.61-1.7c1.46-1.58,3.4-0.36,5.09-1.21
					c1.7-0.85,5.21-2.79,4-5.82c-1.21-3.03,2.55-10.43,4.61-11.03c2.06-0.61,5.21,5.94,7.76,6.91c2.55,0.97-1.94-2.18,1.58-3.03
					c3.52-0.85,2.55-1.46,2.42-3.15c-0.12-1.7,0.49-1.82,2.42-1.7c1.94,0.12,1.33-2.18,0.85-4.61s0.24-0.61,1.82,0.36
					c0.33,0.2,0.78,0.32,1.28,0.35c1.87,0.13,4.56-0.92,5.51-3.02C310.37,70.88,304.81,67.1,304.79,66.39z"/>
				<path class="st12" d="M332.95,178.71c-1.76-1.99-5.54-3.74-9.97-4.48c-0.45-0.08-0.9-0.14-1.36-0.19
					c-0.82-0.09-1.65-0.16-2.49-0.18c0,0-5.55,4.79-9,4.21s-3.45-2.3-3.45-2.3s-2.94-23.38-10.9-40.42
					c-2.77-5.92-6.14-11.08-10.21-14.22c-0.04-0.03-0.09-0.07-0.13-0.11c0,0-10.7-9.24-21.68-7.62c-0.3,0.04-0.6,0.09-0.9,0.15
					c0,0-1.15,2.11-4.4,4.79c-3.25,2.68-7.85,2.3-9.57,6.89c-1.72,4.59-8.61,47.47-3.83,58.19c4.79,10.72,6.51,37.52,6.32,41.54
					s-4.02,7.85,3.06,11.87c1.46,0.83,2.84,1.93,4.51,3.05c6.35,4.27,16.94,8.92,52.55,0.8c0.1-0.02,0.19-0.04,0.29-0.07
					c0.46-0.11,0.74-0.57,0.65-1.03c-0.12-0.6-0.2-1.59,0-3.14c0.82-6.49,1.53-29.09-1.34-36.37c0,0,21.44-14.55,22.78-18.18
					C334.26,180.85,333.87,179.75,332.95,178.71z"/>
				<path class="st12" d="M292.67,413.04c1.73-0.94,2.84-1.7,3.05-2.16c0.75-1.64-1.52-4.06-4.77-5.81
					c0.19,2.02,0.48,3.78,0.89,5.05C292.18,411.21,292.45,412.18,292.67,413.04z"/>
				<path class="st12" d="M254.98,408.19c-0.12-0.06-0.23-0.61-0.32-1.56c-1.7,5.06-5.35,18.13,2.09,18.31
					c2.98,0.07,7.99-1.11,13.44-2.82v-14.14C260.33,414.84,256.26,408.84,254.98,408.19z"/>
				<path class="st12" d="M270.12,441.55c4.84,3.46,41.73,5.3,50.5,1.38s-2.31-4.38-6.69-6.46c-3.66-1.73-18.22-11.01-22.81-15.91
					c-4.88,3.07-15.17,4.4-19.23,4.82C270.14,429.21,266.27,438.8,270.12,441.55z"/>
				<path class="st12" d="M311.49,240.69c-35.61,8.11-46.2,3.46-52.55-0.8c-0.13,8.54-0.14,25.06,1.6,36.31
					c2.36,15.21-9,53.78-7.71,64.28c1.17,9.52,0.92,56.91,1.82,66.15c0.09,0.95,0.2,1.5,0.32,1.56c1.29,0.64,5.36,6.64,15.21-0.21
					v14.14v3.43c0,0,0.64-0.05,1.7-0.16c4.06-0.42,14.35-1.76,19.23-4.82c0.99-0.62,1.77-1.32,2.22-2.09c0,0,0.29-1.58-0.67-5.44
					c-0.21-0.86-0.48-1.82-0.83-2.92c-0.41-1.27-0.7-3.03-0.89-5.05c-0.69-7.5,0.1-18.62,1.96-22.16c2.36-4.5,3.43-20.78,3.86-28.07
					c0.43-7.29,10.29-51.21,10.07-56.57C306.66,293.96,311.88,257.83,311.49,240.69z"/>
				<path class="st12" d="M689.75,44.11c-0.35-2.25-2.94-2.77-5.01-6.22c-2.07-3.46-1.56-6.74-4.84-8.82
					c-3.29-2.08-2.77-1.56-4.67-4.15c-1.9-2.59-1.21-2.25-4.32-3.46c-3.11-1.21-5.19-1.38-8.13-2.07c-2.94-0.69-3.46-0.86-6.4-0.17
					c-2.94,0.69-5.01,2.25-8.13,3.46c-3.11,1.21-4.32,1.73-8.47,4.15c-3.37,1.97-4.66,7.81-4.67,13.49c0,1.31,0.24,3.81,0.17,5.01
					c-0.35,6.4-0.17,5.88,0.86,7.61c0.95,1.59,3.23,1.41,6.14,0.3c0.26-0.1,0.51-0.19,0.77-0.3c3.29-1.38,4.84,0,7.09,1.38
					c2.25,1.38,2.77,1.56,4.5,1.38c0,0-3.11-12.62,3.46-13.83s8.82,11.24,9.68,11.59s0.86,0.17,3.98,2.59
					c3.11,2.42,5.01,1.04,8.3,1.04c3.29,0,0.35-2.42,4.5-2.25c1,0.04,1.85-0.05,2.57-0.21c2.3-0.5,3.3-1.69,3.3-1.69
					S690.09,46.36,689.75,44.11z"/>
				<path class="st12" d="M687.14,54.62c-0.73,0.16-1.58,0.25-2.57,0.21c-4.15-0.17-1.21,2.25-4.5,2.25c-3.29,0-5.19,1.38-8.3-1.04
					c-3.11-2.42-3.11-2.25-3.98-2.59s-3.11-12.8-9.68-11.59s-3.46,13.83-3.46,13.83c-1.73,0.17-2.25,0-4.5-1.38
					c-2.25-1.38-3.8-2.77-7.09-1.38c-0.27,0.11-0.52,0.2-0.77,0.3c-0.13,2.8-0.09,6.41,0.95,7.13c1.73,1.21,4-0.09,5.01,4.5
					c0.71,3.21,0.36,6.98,0.08,9.04c-0.1,0.74,0.57,1.35,1.3,1.18c1.37-0.32,3.22-0.8,3.64-1.23c0.69-0.69,6.74,10.03,9.51,9.68
					c1.63-0.2,3.75-1.61,5.21-2.73c1.01-0.78,1.71-1.41,1.71-1.41s20.92-10.37,30.26-5.53c0.95,0.49,1.37,0.56,1.38,0.29
					C701.41,72.85,692.48,63.89,687.14,54.62z"/>
				<path class="st12" d="M641.68,140.77c0,0,1-6.61,2.3-14.63c-1.7-1.18-6.39-4.28-9.04-4.56c-3.29-0.35-3.63,4.32-3.63,4.32
					s0,0-3.11,0.17c-1.4,0.08-1.95,0.89-1.67,1.97c0.09,0.35,0.28,0.73,0.55,1.12c0.01,0.02,0.03,0.04,0.04,0.06
					c0.26,0.36,0.59,0.73,0.99,1.09c0.22,0.2,0.46,0.4,0.72,0.59c-0.07,0.05-0.14,0.11-0.21,0.16c-3.34,2.92,3.25,10.98,4.42,12.64
					c0.75,1.06,4.17,2.59,6.7,3.6l0.65,0.95l0.28-0.58l1.07-2.21l0.08-0.16l1.6-3.32c0,0,0.44,0.12,1.18,0.33L641.68,140.77z"/>
				<path class="st12" d="M639.73,147.31c-2.53-1.01-5.96-2.53-6.7-3.6c-1.16-1.66-7.76-9.72-4.42-12.64
					c0.07-0.06,0.14-0.11,0.21-0.16c-0.27-0.19-0.5-0.39-0.72-0.59c-0.41-0.37-0.74-0.73-0.99-1.09c-0.01-0.02-0.03-0.04-0.04-0.06
					c-0.27-0.39-0.46-0.77-0.55-1.12l-24.34,1.92c-1.3,0.1-1.87,1.7-0.92,2.6l22.52,21.41l10.12,9.62l5.5-13.29l0.99-2.05
					L639.73,147.31z"/>
				<path class="st12" d="M646.22,142.76c-0.64-0.18-1.19-0.33-1.64-0.45c-0.74-0.2-1.18-0.33-1.18-0.33l-2.74,5.7l-0.28,0.58
					l-0.99,2.05l-5.5,13.29l-10.12-9.62c1.37,4.91,8.16,28.01,14.96,28.47c4.28,0.29,6.48,1.4,8.47,1.15
					c1.56-0.19,2.99-1.21,5.19-4.09c5.01-6.57,8.99-32.68,8.99-32.68C661,146.82,651.19,144.13,646.22,142.76z"/>
				<path class="st12" d="M714.99,84.05c-5.21-4.01-10.38-7.69-13.66-9.91c-0.02,0.27-0.43,0.21-1.38-0.29
					c-9.34-4.84-30.26,5.53-30.26,5.53s-0.7,0.64-1.71,1.41c-0.24,1.16-0.46,2.32-0.54,2.91c-0.17,1.38-16.25,11.76-17.98,14.35
					c-1.03,1.54-3.58,16.33-5.48,28.08c-1.3,8.03-2.3,14.63-2.3,14.63l2.9,1.54c0.45,0.12,1,0.28,1.64,0.45
					c4.96,1.37,14.78,4.06,15.17,4.06c0,0-3.98,26.11-8.99,32.68c-2.2,2.88-3.63,3.9-5.19,4.09c-0.97,13.96-2.94,39.31-2.94,39.31
					c0.75-0.54,2.34-0.92,4.49-1.19c11.69-1.47,39.95,0.5,39.95,0.5c14.63,2.16,25.84,2.4,31.34,2.06c2.44-0.15,3.76-0.42,3.76-0.68
					c0-0.86,1.9-14.7,0.17-28.01c-1.73-13.31,4.67-25.76,5.36-33.72c0.46-5.25,2.25-13.31,1.73-23c-0.52-9.68,1.38-25.59,2.08-31.12
					S723.29,90.45,714.99,84.05z"/>
				<path class="st12" d="M637.09,432.04c-0.37-0.31-0.62-0.66-0.77-1.04c-12.6,1.18-30.19,4.08-23.94,10.93
					c9.44,10.34,53.03,9.44,56.62,8.99c2.16-0.27,2.05-4.28,1.52-7.73c-0.06,0.04-0.11,0.07-0.17,0.09
					C666.3,444.62,639.79,434.29,637.09,432.04z"/>
				<path class="st12" d="M698.65,417.66c0,0-6.29,3.59-4.04,7.64s27.86,18.87,35.5,15.73c4.47-1.84,2.48-9.52,0.06-15.58
					C708.94,433.68,704.46,422.13,698.65,417.66z"/>
				<path class="st12" d="M726.96,370.48c0.45-5.39-4.49-96.61-3.15-103.8c1.05-5.63-0.92-28.59-3.76-42.4
					c-5.51,0.34-16.72,0.09-31.34-2.06c0,0-28.25-1.97-39.95-0.5c-1.52,20.83-6.28,86.98-6.28,95.29c0,9.89-0.9,98.86-2.7,103.8
					c-1.55,4.26-4.42,7.84-3.47,10.19c0.15,0.38,0.4,0.73,0.77,1.04c2.7,2.25,29.21,12.58,33.25,11.23
					c0.06-0.02,0.11-0.05,0.17-0.09c4.02-2.66,9.26-52.54,8.82-56.53c-0.45-4.04,0-60.66,3.59-67.41
					c3.59-6.74,4.94-16.18,4.94-16.18s-4.49,40.89,2.25,51.23s2.7,58.87,8.54,63.36c5.81,4.47,10.29,16.02,31.51,7.79
					c0.13-0.05,0.26-0.09,0.39-0.15C730.56,425.3,726.51,375.87,726.96,370.48z"/>
				<polyline class="st12" points="627.22,129.94 604.11,131.94 634.7,161.12 				"/>
				<polygon class="st12" points="609.73,128.97 613.01,132.4 622.22,131.31 619.72,128.35 				"/>
				<path class="st12" d="M628.82,130.9c0.89,0.25,5.26,1.66,5.57,3.06c0.31,1.4,0.31,5.46,1.4,6.55s3.28,3.28,3.28,3.28"/>
				<path class="st12" d="M631.3,125.9c0,0,6.83,3.38,7.15,4.95"/>
				<line class="st12" x1="628.15" y1="132.87" x2="621.59" y2="134.28"/>
				<line class="st12" x1="637.67" y1="129.44" x2="643.13" y2="127.41"/>
				<line class="st12" x1="633.9" y1="163.59" x2="631.58" y2="167.36"/>
				<path class="st12" d="M667.48,131.62c-0.47,12.02-2.97,15.49-2.97,15.49l-4.4-0.66"/>
				<path class="st12" d="M655.46,47.81c0,0-0.47-3.28,2.03-2.65c2.5,0.62,7.49,12.95,3.43,14.83"/>
				<path class="st12" d="M665.76,82.46c0,0,1.72-3.12,1.4-6.71"/>
				<path class="st12" d="M687.87,303.07c0,0,7.7-28.65,6.61-41.6"/>
				<path class="st12" d="M667.44,83.71c1.77-0.51,28.4-9.91,38.11-6.46"/>
				<path class="st12" d="M340.27,150.86c0,0-5.15,9.14-6.42,11.66"/>
				<path class="st12" d="M330.45,161.75c0.1-0.29,5.05-9.23,6.61-9.72"/>
				<path class="st12" d="M302.4,185.38c-0.41-4.46,3.72-8.89,3.72-8.89s-2.43,1.83-3.85-0.4c-0.33-0.52,1.47-1.57,0.13-4.12
					c-5.58-10.62-7.53-28.63-9.71-31.59c-2.84-3.85-4.62-9.83-6.88-11.43"/>
				<path class="st12" d="M264.43,132.01c0,0-2.92,3.85,0.4,14.2c3.32,10.35,11.15,24.69,12.35,31.46
					c1.19,6.77,9.22,21.59,13.94,23.5c4.91,1.99,11,5.11,19.97-1.1"/>
				<path class="st12" d="M270.19,407.98c0.35-2.49,1.81-62.36,2.61-65.01s-0.85-36.4,0.27-39.83c1.86-5.71,5.84-28.28,6.9-31.46"/>
				<path class="st12" d="M280.9,92.46c0,0,3.34,6.6,7,2.27"/>
				<line class="st12" x1="285.49" y1="83.73" x2="301.28" y2="92.8"/>
				<path class="st12" d="M287.14,86.01c-0.24,0-0.22-1.13-1.89-0.08c-1.49,0.94-2.28,4.72,1.02,3.93"/>
				<path class="st12" d="M303.08,88.44c0,0,2.44,0.87,2.44,1.57c0,0.71,0.31,9.28-0.94,9.36c-1.26,0.08-3.3-1.02-3.22-2.44
					C301.43,95.52,300.8,88.83,303.08,88.44z"/>
				<path class="st12" d="M170.77,189.01c0,0,1.1,10.8,0.47,12.52"/>
				<path class="st12" d="M141.59,173.93c0.21-0.73-2.13,0.05-5.42-12.32"/>
				<path class="st12" d="M161.51,165.22l1.74,0c0,0-1.41-7.2-3.13-10.18"/>
				<path class="st12" d="M148.65,95.38c0,0-2.98,12.47,4.65,12.28"/>
				<path class="st12" d="M154.04,104.31c-1.86,0.37-3.16-2.42-3.16-4.65s3.35-0.74,3.35-0.74"/>
				<g>
					<path class="st12" d="M169.11,71.96c-2.38-3.44-12.12-12.23-27.49-8.27c-6.6,1.7-12.24,8.21-13.08,10.32
						c15.97,7.92,5.64,21.49,2.53,25.04c-0.56,1.19-1.21,2.48-1.58,3.95c0.94,0.34,4.2-0.75,6.33-1.31
						c3.04-0.79,4.89-3.17,7.66-5.42c2.77-2.25,4.23-0.13,8.06-2.38c3.83-2.25,9.12,9.38,9.25,8.19c0.13-1.19,0.92-3.83,3.44-4.23
						c2.51-0.4,2.91-2.38,3.17-5.02s2.77-1.19,2.77-2.11c0-0.92,0.4-2.38,2.64-4.62c0.15-0.15,0.27-0.33,0.37-0.53
						C174.59,82.75,171.33,75.17,169.11,71.96z"/>
					<path class="st12" d="M127.45,74.35c0.91,0.47,5.41,2.63,8.16,5.87c2.75,3.24-5.02-7.45-7.45-7.45L127.45,74.35z"/>
				</g>
				<path class="st12" d="M218.29,137.34l-1.79,6.45c0,0,10.75,5.19,11.46,4.3c0.72-0.9,2.15-6.81,2.15-6.81L218.29,137.34z"/>
				<path class="st12" d="M203.96,155.96c0.45-1.12,8.6-16.48,9.13-16.12c0.54,0.36,24.54,9.85,24.54,9.85l-27.58,29.73l-16.18-5.08
					"/>
				<line class="st12" x1="203.16" y1="155.98" x2="180.45" y2="141.36"/>
				<path class="st12" d="M117.65,126.54c1.61,0.32,2.89,3.88,7.77,5.88c0.02-1.01,0.06-2.01,0.15-2.97
					c0.36-4.04,3.61-7.29,4.29-10.63c1.24-6.1-1.4-11.74-0.37-15.81c0.37-1.47,1.02-2.76,1.58-3.95
					c3.11-3.55,13.44-17.12-2.53-25.04c-0.18,0.45-0.26,0.73-0.26,0.73c0.02,0.02,0.05,0.05,0.08,0.08c-0.29-0.2-0.6-0.36-0.91-0.47
					c-1.13-0.42-2.48-0.28-4.59,0.52c-5.05,1.92-13.1-2.27-13.1,16.41c0,5.95,5.62,12.3,5.58,14.51c-0.07,4.65-4.93,3.34-5.84,9.1
					C108.08,123.92,115.32,126.07,117.65,126.54z"/>
				<path class="st12" d="M125.51,132.45c-0.03-0.01-0.06-0.02-0.09-0.04c0,0.01,0,0.02,0,0.03
					C125.45,132.45,125.48,132.45,125.51,132.45z"/>
				<path class="st12" d="M177.52,204.66c-4.12,6.43-8.18,11.39-11.04,11.6c-8.3,0.62-24.9-42.33-24.9-42.33
					c0.62-5.19,19.92-8.71,19.92-8.71c2.7,2.49,8.92,24.28,8.92,24.9c0,0.62,4.15-6.02,4.15-6.02l0.84-1.95
					c0.09-5.6,0.12-12.36-0.22-15.47c-0.62-5.81-20.13-25.52-22.41-28.43c-1.05-1.33-3.23-2.4-5.7-3.14
					c-2.92-0.89-6.26-1.33-8.62-1.21c-3.81,0.18-8.4-1.21-12.96-1.43c-0.03,0-0.06-0.01-0.1-0.01c0-0.01,0-0.02,0-0.03
					c-4.88-2-6.16-5.56-7.77-5.88c-2.33-0.47-3.72,6.75-4.89,12.1c-0.92,4.23,1.86,37.94,18.86,76.17
					c0.83,1.87-3.32,14.32-4.36,18.05c-0.08,0.28,0.14,0.61,0.6,0.97c5.61,4.41,48.05,13.95,49.2,11.27
					C178.14,242.6,177.67,212.87,177.52,204.66z"/>
			</g>
		</g>
		<circle class="st9" cx="168.87" cy="100.12" r="1.17"/>
	</g>
</g>
</svg>
