<svg id="Layer_1" data-name="Layer 1" xmlns="http://www.w3.org/2000/svg" viewBox="0 0 841.88976 467.71654"><defs><style>.cls-1{fill:#f8dc9d;}.cls-2{fill:#fff;}.cls-10,.cls-11,.cls-3{fill:none;}.cls-4{fill:#80b690;}.cls-5{fill:#ab6755;}.cls-6{fill:#54565a;}.cls-7{fill:#b5d2e3;}.cls-8{fill:#1d5392;}.cls-9{fill:#989a9c;}.cls-10,.cls-11{stroke:#54565a;}.cls-10{stroke-miterlimit:10;}.cls-11{stroke-linejoin:round;}</style></defs><rect class="cls-1" x="-6.19084" width="848.0806" height="467.71654"/><path class="cls-2" d="M395.84767,95.36011l-1.64844-.49768C394.85963,95.0868,395.41969,95.25879,395.84767,95.36011Z"/><path class="cls-2" d="M583.28078,427.40583c4.6062-3.3786,9.19189-6.5965,13.58154-9.46948-.94507-.15534-1.9021-.32337-2.8855-.52216-17.73413-3.58459-24.58224-9.37729-23.74407-15.66357.11062-.82961.86126-4.97333,9.83367-3.58088,1.00708-4.34118,2.543-10.88378,4.43018-18.884a4.69762,4.69762,0,0,1-1.65088-1.67883s-5.09375-3.96185-3.01856-9.433c1.97925-5.21789,3.79541-7.171,9.032-7.34106.86646-3.65918,1.76514-7.45123,2.686-11.33484a18.04536,18.04536,0,0,1-2.00586-8.168,118.61733,118.61733,0,0,1-19.03784-3.91626c-11.198-3.42169-9.33179-8.08758-18.97461-9.64294-9.64282-1.5553-33.90576-7.46546-51.3252-17.10834s-30.79516-17.41943-51.01391-19.59686c-20.21924-2.17743-10.57617-3.73273-22.39649-10.265-1.93261-1.068-4.62475-1.27539-7.77148-.88208a39.773,39.773,0,0,0-4.35986,8.0365c-1.55542,4.6659-13.0647,15.86408-28.92872,14.30878a81.403,81.403,0,0,1-10.5664-2.69025c-.20679.12946-.3208.20178-.3208.20178s-10.20117,23.263-21.728,28.56812a11.61369,11.61369,0,0,1-3.15674.98273c-12.75366,1.86633-26.44043-9.02082-46.03723-23.64069-13.89673-10.36737-30.29187-37.99054-37.01233-49.983-.31225-.55731-.61133-1.09308-.88061-1.57953a6.94872,6.94872,0,0,0-6.97754-3.5321c-11.17676,1.44561-38.98084,5.44519-49.07007,10.61285C197.228,267.736,188.51832,273.335,182.60817,276.13459c-4.24683,2.01166-7.88843,8.7923-9.60181,12.44958a25.3904,25.3904,0,0,1-2.8739,4.71167c-7.61768,9.90021-10.08569,16.10138-16.3573,36.3169-6.40088,20.63189-1.70483,30.687-1.70483,47.167,0,16.48-5.68287,88.08289-5.11451,90.356l338.937-1.56482L455.72,443.4856a93.11638,93.11638,0,0,1,.93311-18.66369,66.68085,66.68085,0,0,0,.311-18.3526C459.13307,403.487,557.93825,422.47858,583.28078,427.40583Z"/><path class="cls-2" d="M446.07692,184.99366c-1.24414-4.666-.62207-20.53-1.55518-27.99555-.9331-7.46545-4.97705-24.26275-15.86426-35.46093a8.733,8.733,0,0,0-1.30444-1.08625,5.15685,5.15685,0,0,1-2.06274.72815c-3.05738.56623-6.115-.67944-7.92676-1.2456-1.812-.56623-6.002,1.35888-9.28589,1.4721-3.28394.11329-4.64282-1.6986-6.56787-1.81182-1.925-.11329-1.69873,1.01916-3.85034.90588-2.15161-.11322-2.71778.453-5.32227.2265s-3.8501,1.13245-6.00171,1.92511-.906-.45294-4.0769,0a36.75125,36.75125,0,0,0-5.32227,1.13239c-.3396,0-1.925.2265-3.96338.56622s-1.47216,1.58539-3.28393,1.69861c-1.812.11328-1.69873.11328-3.39722,1.35888-1.69873,1.24567-5.54883,1.01923-6.45483,1.47217s.11328,2.83106-1.58545,3.96344a5.15453,5.15453,0,0,1-2.05249.74542,3.875,3.875,0,0,0-2.977,2.33063,20.87422,20.87422,0,0,1-.97217,2.01978c-1.13232,2.03839-3.96338.6795-3.8501,1.35895s-1.24023,2.14733-1.24023,2.14733c-3.1106,3.1106-7.1543,2.48847-8.39844,4.35486-1.24438,1.86634-3.73291,1.24427-6.53247,3.1106-1.39966.93323-1.814,2.96857-2.51392,3.86291-.6997.89429-1.6853.64746-2.15185,1.42511-.93335,1.55536.9331,7.77655.62207,13.37567-.189,3.39954-3.69971,5.76075-6.64063,7.16584-.84985,17.9917-6.64013,38.09259-10.20276,48.95245a12.4124,12.4124,0,0,1-11.15966,8.51581c-3.10755.16131-6.55359.30731-9.35975.3435-1.15039,4.924-4.97436,20.24445-8.36328,21.80848-2.32812,1.07458-9.70556,1.32373-15.54907,1.34216,6.72046,11.99243,23.1156,39.6156,37.01233,49.983,19.5968,14.61987,33.28357,25.507,46.03723,23.64069a11.61369,11.61369,0,0,0,3.15674-.98273c11.52686-5.30512,21.728-28.56812,21.728-28.56812s.114-.07232.3208-.20178a81.403,81.403,0,0,0,10.5664,2.69025c15.864,1.5553,27.3733-9.64288,28.92872-14.30878a39.773,39.773,0,0,1,4.35986-8.0365c1.65356-2.49438,3.10547-4.406,3.10547-4.406,8.08764-9.33179,9.9541-30.795,10.26513-31.72821s3.42164-4.04383,3.42164-4.04383c4.35473-3.42163,2.17749-9.33184,2.17749-15.242s4.66577-22.08533,6.22119-27.06232C445.76588,192.45911,447.3213,189.65955,446.07692,184.99366Z"/><path class="cls-2" d="M427.32863,117.55536c-1.019-1.925-3.8501-7.47387-8.49292-9.7387-4.64307-2.26484-9.51245-6.3415-13.81543-7.47394-4.30323-1.13239-4.86939-3.96344-9.17261-4.98261-.428-.10132-.988-.27331-1.64844-.49768l-32.12182-9.69867s-17.73218-1.67285-27.43457,5.35309c-9.70264,7.02594-26.09644,19.07037-33.79139,51.52338a28.02441,28.02441,0,0,1,9.05115,4.61224c5.83753,4.3819,12.24744,12.546,11.692,27.17169-.0116.3031-.036.61158-.05042.9159,2.94092-1.40509,6.45166-3.7663,6.64063-7.16584.311-5.59912-1.55542-11.82031-.62207-13.37567.46655-.77765,1.45215-.53082,2.15185-1.42511.7-.89434,1.11426-2.92968,2.51392-3.86291,2.79956-1.86633,5.28809-1.24426,6.53247-3.1106,1.24414-1.86639,5.28784-1.24426,8.39844-4.35486,0,0,1.35351-1.46789,1.24023-2.14733s2.71778.67944,3.8501-1.35895a20.87422,20.87422,0,0,0,.97217-2.01978,3.875,3.875,0,0,1,2.977-2.33063,5.15453,5.15453,0,0,0,2.05249-.74542c1.69873-1.13238.67944-3.5105,1.58545-3.96344s4.7561-.2265,6.45483-1.47217c1.69849-1.2456,1.58521-1.2456,3.39722-1.35888,1.81177-.11322,1.2456-1.35889,3.28393-1.69861s3.62378-.56622,3.96338-.56622a36.75125,36.75125,0,0,1,5.32227-1.13239c3.1709-.45294,1.92529.79266,4.0769,0s3.39722-2.15161,6.00171-1.92511,3.17066-.33972,5.32227-.2265c2.15161.11328,1.92529-1.01917,3.85034-.90588,1.925.11322,3.28393,1.92511,6.56787,1.81182,3.28394-.11322,7.47388-2.03833,9.28589-1.4721,1.81177.56616,4.86938,1.81183,7.92676,1.2456a5.15685,5.15685,0,0,0,2.06274-.72815C428.23976,119.80384,428.02077,118.86286,427.32863,117.55536Z"/><path class="cls-2" d="M685.24074,453.31434a28.70321,28.70321,0,0,1-3.37915-.18586c-14.30884-1.55529-36.39429-14.931-39.19385-21.15216-2.37305-5.27386-4.07837-11.64856-6.437-13.85192-.46387-.26-.91529-.51728-1.33936-.76795a20.74382,20.74382,0,0,0-7.89917-.6969c-3.56372.53461-14.03613,3.92236-30.12988,1.2768-4.38965,2.873-8.97534,6.09088-13.58154,9.46948-23.80909,17.46387-48.1106,39.1701-48.1106,39.1701l156.843-.74505Q688.64,459.13663,685.24074,453.31434Z"/><path class="cls-2" d="M694.615,368.51984c-1.25293-1.59454-4.76416-3.45025-9.71386-5.42108-1.969,4.32037-5.14405,11.08417-3.57471,14.50812,0,0,5.84839,15.65881,3.96191,30.18561-1.63745,12.60809-1.33862,22.66034-15.7832,22.87738a46.57063,46.57063,0,0,1-7.66846-.60376s-16.40185-6.78253-25.606-11.94171c2.35864,2.20336,4.064,8.57806,6.437,13.85192,2.79956,6.2212,24.885,19.59687,39.19385,21.15216a28.70321,28.70321,0,0,0,3.37915.18586c9.98315-.10047,5.52539-7.36347,7.50781-10.762,2.17749-3.73272,11.50928-4.97692,13.37573-27.68444C707.99049,392.16047,701.45827,377.22956,694.615,368.51984Z"/><path class="cls-2" d="M649.06544,334.40369s-32.63818-6.79181-34.52466-12.07428c-1.88671-5.28247-3.01855-11.13092,3.39576-12.6402,5.89135-1.38623,35.47876-.86,44.50634,2.88886l11.21729-57.31738a7.45355,7.45355,0,0,0-6.64868-8.85541l-42.05884-3.77454a9.073,9.073,0,0,0-9.64136,6.93225c-3.582,15.03138-11.87744,49.85639-19.66162,82.63807C607.13624,330.08283,649.06544,334.40369,649.06544,334.40369Z"/><path class="cls-2" d="M611.33351,364.40064c1.32056.18866,33.95874,3.58453,33.95874,3.58453l2.0752-7.735s-8.67823-7.73505-20.37525-7.73505c-11.69678,0-29.99683,2.64124-33.77-.75464a8.54546,8.54546,0,0,1-1.677-2.26251c-.9209,3.88361-1.81958,7.67566-2.686,11.33484.25391-.00824.50782-.01666.77832-.01666C595.4861,360.81611,610.013,364.212,611.33351,364.40064Z"/><path class="cls-2" d="M613.22,404.58527c9.62183-2.26391,17.92286-1.50928,27.54444-14.71551,0,0-46.35254-3.877-56.26782-10.584-1.88721,8.00025-3.4231,14.54285-4.43018,18.884.72363.11231,1.51489.23761,2.4021.37842C594.354,400.43476,603.5984,406.84919,613.22,404.58527Z"/><path class="cls-2" d="M686.2317,359.87281c.7544-2.8299.56592-5.84845-3.20727-9.05573-3.60523-3.06439-1.698-6.79174-1.698-13.39483s-1.32056-9.81037-6.603-11.88562c-5.28271-2.07526-4.90527-7.16907-10.37646-11.88556a7.22339,7.22339,0,0,0-1.90406-1.073c-9.02758-3.7489-38.615-4.27509-44.50634-2.88886-6.41431,1.50928-5.28247,7.35773-3.39576,12.6402,1.88648,5.28247,34.52466,12.07428,34.52466,12.07428s-41.9292-4.32086-53.41577-2.20263a7.43592,7.43592,0,0,0-2.23877.69335c-2.82422,1.62592-3.88965,4.96088-3.87158,8.43555a18.04536,18.04536,0,0,0,2.00586,8.168,8.54546,8.54546,0,0,0,1.677,2.26251c3.77319,3.39588,22.07324.75464,33.77.75464,11.697,0,20.37525,7.73505,20.37525,7.73505l-2.0752,7.735s-32.63818-3.39587-33.95874-3.58453-15.84741-3.58453-21.69605-3.58453c-.2705,0-.52441.00842-.77832.01666-5.23657.1701-7.05273,2.12317-9.032,7.34106-2.07519,5.4712,3.01856,9.433,3.01856,9.433a4.69762,4.69762,0,0,0,1.65088,1.67883c9.91528,6.707,56.26782,10.584,56.26782,10.584-9.62158,13.20623-17.92261,12.4516-27.54444,14.71551-9.62158,2.26392-18.866-4.15051-30.75146-6.03711-.88721-.14081-1.67847-.26611-2.4021-.37842-8.97241-1.39245-9.723,2.30881-9.83367,3.58088-.5494,6.31807,6.00994,12.079,23.74407,15.66357.9834.19879,1.94043.36682,2.8855.52216,16.09375,2.64556,26.56616-.74219,30.12988-1.2768a20.74382,20.74382,0,0,1,7.89917.6969c.42407.25067.87549.50794,1.33936.76795,9.2041,5.15918,25.606,11.94171,25.606,11.94171a46.57063,46.57063,0,0,0,7.66846.60376c14.44458-.217,14.14575-10.26929,15.7832-22.87738,1.88648-14.5268-3.96191-30.18561-3.96191-30.18561-1.56934-3.42395,1.60571-10.18775,3.57471-14.50812A26.49219,26.49219,0,0,0,686.2317,359.87281Z"/><path class="cls-2" d="M380.47853,83.15638c-45.50122-21.07776-63.23328.33453-80.29614,17.73205-18.98877,19.361-19.405,49.18146-19.405,49.18146-14.72095,10.70612-19.40491,23.08514-19.7395,38.47522-.33448,15.39014,12.379,32.78766,12.379,32.78766s8.69886,10.37158,12.379,11.04071a33.40021,33.40021,0,0,0,5.02612.17834c2.80616-.03619,6.2522-.18219,9.35975-.3435a12.4124,12.4124,0,0,0,11.15966-8.51581c3.56263-10.85986,9.35291-30.96075,10.20276-48.95245.01441-.30432.03882-.6128.05042-.9159.55542-14.62573-5.85449-22.78979-11.692-27.17169a28.02441,28.02441,0,0,0-9.05115-4.61224c7.695-32.453,24.08875-44.49744,33.79139-51.52338,9.70239-7.02594,27.43457-5.35309,27.43457-5.35309l32.12182,9.69867,1.64844.49768Z"/><path class="cls-3" d="M393.12344,95.36011l-1.64843-.49768C392.13541,95.0868,392.69547,95.25879,393.12344,95.36011Z"/><path class="cls-4" d="M580.55655,427.40583c4.6062-3.3786,9.19189-6.5965,13.58154-9.46948-.94507-.15534-1.9021-.32337-2.8855-.52216-17.73413-3.58459-24.58224-9.37729-23.74407-15.66357.11062-.82961.86126-4.97333,9.83367-3.58088,1.00708-4.34118,2.543-10.88378,4.43018-18.884a4.69762,4.69762,0,0,1-1.65088-1.67883s-5.09375-3.96185-3.01855-9.433c1.97924-5.21789,3.79541-7.171,9.032-7.34106.86645-3.65918,1.76513-7.45123,2.686-11.33484a18.04549,18.04549,0,0,1-2.00586-8.168,118.61755,118.61755,0,0,1-19.03784-3.91626c-11.198-3.42169-9.33178-8.08758-18.97461-9.64294-9.64282-1.5553-33.90576-7.46546-51.32519-17.10834s-28.79517-15.41943-49.01392-17.59686c-20.21924-2.17743-10.57617-3.73273-22.39648-10.265-1.93262-1.068-4.62476-1.27539-7.77149-.88208a39.774,39.774,0,0,0-4.35986,8.0365c-1.55542,4.6659-13.0647,15.86408-28.92871,14.30878a81.403,81.403,0,0,1-10.56641-2.69025c-.20678.12946-.3208.20179-.3208.20179s-10.20117,23.263-21.728,28.56811a11.61369,11.61369,0,0,1-3.15674.98273c-12.75366,1.86633-28.44043-11.02082-48.03724-25.64069-13.89672-10.36737-30.29187-37.99054-37.01232-49.983-.31226-.55731-.61133-1.09308-.88062-1.57953a6.94872,6.94872,0,0,0-6.97754-3.5321c-11.17676,1.44561-38.98083,5.44519-49.07007,10.61285-12.75342,6.53229-21.46313,12.13135-27.37329,14.93091-4.24682,2.01166-7.88843,8.7923-9.6018,12.44958a25.39045,25.39045,0,0,1-2.87391,4.71167c-7.61767,9.90021-10.08569,16.10138-16.3573,36.3169-6.40088,20.63189-1.70483,30.687-1.70483,47.167,0,16.48-5.68286,88.08289-5.1145,90.356l338.937-1.56482L452.99576,443.4856a93.11677,93.11677,0,0,1,.9331-18.66369,66.68112,66.68112,0,0,0,.311-18.3526C456.40884,403.487,555.214,422.47858,580.55655,427.40583Z"/><path class="cls-5" d="M443.35269,184.99366c-1.24414-4.666-.62207-20.53-1.55517-27.99555-.93311-7.46545-4.97705-24.26275-15.86426-35.46093a8.73307,8.73307,0,0,0-1.30445-1.08625,5.15679,5.15679,0,0,1-2.06274.72815c-3.05737.56623-6.115-.67944-7.92676-1.2456-1.812-.56623-6.002,1.35888-9.28589,1.4721-3.28393.11329-4.64282-1.6986-6.56787-1.81182-1.925-.11329-1.69873,1.01916-3.85034.90588-2.15161-.11322-2.71777.453-5.32226.2265s-3.8501,1.13245-6.00171,1.92511-.906-.45294-4.07691,0a36.75128,36.75128,0,0,0-5.32226,1.13239c-.3396,0-1.925.2265-3.96338.56622s-1.47217,1.58539-3.28394,1.69861c-1.812.11328-1.69873.11328-3.39721,1.35888-1.69874,1.24567-5.54883,1.01923-6.45484,1.47217s.11328,2.83106-1.58545,3.96344a5.15453,5.15453,0,0,1-2.05249.74542,3.875,3.875,0,0,0-2.97705,2.33063,20.87422,20.87422,0,0,1-.97217,2.01978c-1.13232,2.03839-3.96338.6795-3.85009,1.35895s-1.24024,2.14733-1.24024,2.14733c-3.11059,3.1106-7.1543,2.48847-8.39844,4.35486-1.24438,1.86634-3.73291,1.24427-6.53247,3.1106-1.39966.93323-1.814,2.96857-2.51391,3.86291-.69971.89429-1.68531.64746-2.15186,1.42511-.93335,1.55536.93311,7.77655.62207,13.37567-.189,3.39954-3.69971,5.76075-6.64062,7.16584-.84986,17.9917-6.64014,38.09259-10.20276,48.95245a12.4124,12.4124,0,0,1-11.15967,8.51581c-3.10754.16131-6.55359.30731-9.35974.3435-1.15039,4.924-4.97437,20.24445-8.36328,21.80848-2.32813,1.07458-9.70557,1.32373-15.54907,1.34216,6.72045,11.99243,23.1156,39.6156,37.01232,49.983,19.59681,14.61987,33.28357,25.507,46.03724,23.64069a11.61352,11.61352,0,0,0,3.15673-.98273c11.52686-5.30512,21.728-28.56812,21.728-28.56812s.114-.07232.3208-.20178a81.4026,81.4026,0,0,0,10.56641,2.69025c15.864,1.5553,27.37329-9.64288,28.92871-14.30878a39.774,39.774,0,0,1,4.35986-8.0365c1.65357-2.49438,3.10547-4.406,3.10547-4.406,8.08765-9.33179,9.9541-30.795,10.26514-31.72821s3.42163-4.04383,3.42163-4.04383c4.35474-3.42163,2.17749-9.33184,2.17749-15.242s4.66577-22.08533,6.22119-27.06232C443.04166,192.45911,444.59708,189.65955,443.35269,184.99366Z"/><path class="cls-6" d="M424.6044,117.55536c-1.019-1.925-3.8501-7.47387-8.49292-9.7387-4.64307-2.26484-9.51245-6.3415-13.81543-7.47394-4.30322-1.13239-4.86938-3.96344-9.17261-4.98261-.428-.10132-.988-.27331-1.64843-.49768l-32.12183-9.69867s-17.73218-1.67285-27.43457,5.35309c-9.70264,7.02594-26.09644,19.07037-33.79138,51.52338a28.02451,28.02451,0,0,1,9.05115,4.61224c5.83752,4.3819,12.24743,12.546,11.692,27.17169-.01159.3031-.036.61158-.05041.9159,2.94091-1.40509,6.45166-3.7663,6.64062-7.16584.311-5.59912-1.55542-11.82031-.62207-13.37567.46655-.77765,1.45215-.53082,2.15186-1.42511.7-.89434,1.11425-2.92968,2.51391-3.86291,2.79956-1.86633,5.28809-1.24426,6.53247-3.1106,1.24414-1.86639,5.28785-1.24426,8.39844-4.35486,0,0,1.35352-1.46789,1.24024-2.14733s2.71777.67944,3.85009-1.35895a20.87422,20.87422,0,0,0,.97217-2.01978,3.875,3.875,0,0,1,2.97705-2.33063,5.15453,5.15453,0,0,0,2.05249-.74542c1.69873-1.13238.67945-3.5105,1.58545-3.96344s4.7561-.2265,6.45484-1.47217c1.69848-1.2456,1.5852-1.2456,3.39721-1.35888,1.81177-.11322,1.24561-1.35889,3.28394-1.69861s3.62378-.56622,3.96338-.56622a36.75128,36.75128,0,0,1,5.32226-1.13239c3.1709-.45294,1.9253.79266,4.07691,0s3.39721-2.15161,6.00171-1.92511,3.17065-.33972,5.32226-.2265c2.15161.11328,1.92529-1.01917,3.85034-.90588,1.925.11322,3.28394,1.92511,6.56787,1.81182,3.28394-.11322,7.47388-2.03833,9.28589-1.4721,1.81177.56616,4.86939,1.81183,7.92676,1.2456a5.15679,5.15679,0,0,0,2.06274-.72815C425.51553,119.80384,425.29654,118.86286,424.6044,117.55536Z"/><path class="cls-7" d="M682.51651,453.31434a28.70332,28.70332,0,0,1-3.37915-.18586c-14.30884-1.55529-36.39429-14.931-39.19385-21.15216-2.373-5.27386-4.07837-11.64856-6.437-13.85192-.46387-.26-.91528-.51728-1.33936-.76795a20.74378,20.74378,0,0,0-7.89917-.6969c-3.56372.53461-14.03613,3.92236-30.12988,1.2768-4.38965,2.873-8.97534,6.09088-13.58154,9.46948-23.80908,17.46387-48.1106,39.1701-48.1106,39.1701l156.843-.74505Q685.9158,459.13663,682.51651,453.31434Z"/><path class="cls-4" d="M691.89078,368.51984c-1.25293-1.59454-4.76416-3.45025-9.71387-5.42108-1.969,4.32037-5.144,11.08417-3.57471,14.50812,0,0,5.84839,15.65881,3.96192,30.18561-1.63745,12.60809-1.33863,22.66034-15.78321,22.87738a46.5706,46.5706,0,0,1-7.66845-.60376s-16.40186-6.78253-25.606-11.94171c2.35864,2.20336,4.064,8.57806,6.437,13.85192,2.79956,6.2212,24.885,19.59687,39.19385,21.15216a28.70332,28.70332,0,0,0,3.37915.18586c9.98315-.10047,5.52539-7.36347,7.50781-10.762,2.17749-3.73272,11.50928-4.97692,13.37573-27.68444C705.26627,392.16047,698.734,377.22956,691.89078,368.51984Z"/><path class="cls-8" d="M646.34122,334.40369s-32.63819-6.79181-34.52466-12.07428c-1.88672-5.28247-3.01856-11.13092,3.39575-12.6402,5.89136-1.38623,35.47876-.86,44.50635,2.88886l11.21728-57.31738a7.45354,7.45354,0,0,0-6.64868-8.85541l-42.05884-3.77454a9.073,9.073,0,0,0-9.64135,6.93225c-3.582,15.03138-11.87744,49.85639-19.66162,82.63807C604.412,330.08283,646.34122,334.40369,646.34122,334.40369Z"/><path class="cls-8" d="M608.60928,364.40064c1.32056.18866,33.95874,3.58453,33.95874,3.58453l2.0752-7.735s-8.67822-7.73505-20.37525-7.73505c-11.69677,0-29.99682,2.64124-33.77-.75464a8.54548,8.54548,0,0,1-1.677-2.26251c-.9209,3.88361-1.81958,7.67566-2.686,11.33484.2539-.00824.50781-.01666.77832-.01666C592.76187,360.81611,607.28873,364.212,608.60928,364.40064Z"/><path class="cls-8" d="M610.49576,404.58527c9.62182-2.26391,17.92285-1.50928,27.54443-14.71551,0,0-46.35254-3.877-56.26782-10.584-1.88721,8.00025-3.4231,14.54285-4.43018,18.884.72364.11231,1.5149.23761,2.4021.37842C591.62979,400.43476,600.87418,406.84919,610.49576,404.58527Z"/><path class="cls-5" d="M683.50748,359.87281c.75439-2.8299.56591-5.84845-3.20728-9.05573-3.60522-3.06439-1.698-6.79174-1.698-13.39483s-1.32055-9.81037-6.603-11.88562c-5.28272-2.07526-4.90528-7.16907-10.37647-11.88556a7.22332,7.22332,0,0,0-1.904-1.073c-9.02759-3.7489-38.615-4.27509-44.50635-2.88886-6.41431,1.50928-5.28247,7.35773-3.39575,12.6402,1.88647,5.28247,34.52466,12.07428,34.52466,12.07428s-41.9292-4.32086-53.41577-2.20263a7.43573,7.43573,0,0,0-2.23877.69335c-2.82422,1.62592-3.88965,4.96088-3.87159,8.43555a18.04549,18.04549,0,0,0,2.00586,8.168,8.54548,8.54548,0,0,0,1.677,2.26251c3.77319,3.39588,22.07324.75464,33.77.75464,11.697,0,20.37525,7.73505,20.37525,7.73505l-2.0752,7.735s-32.63818-3.39587-33.95874-3.58453-15.84741-3.58453-21.696-3.58453c-.27051,0-.52442.00842-.77832.01666-5.23657.1701-7.05274,2.12317-9.032,7.34106-2.0752,5.4712,3.01855,9.433,3.01855,9.433a4.69762,4.69762,0,0,0,1.65088,1.67883c9.91528,6.707,56.26782,10.584,56.26782,10.584-9.62158,13.20623-17.92261,12.4516-27.54443,14.71551-9.62158,2.26392-18.866-4.15051-30.75147-6.03711-.8872-.14081-1.67846-.26611-2.4021-.37842-8.97241-1.39245-9.723,2.30881-9.83367,3.58088-.54939,6.31807,6.00994,12.079,23.74407,15.66357.9834.19879,1.94043.36682,2.8855.52216,16.09375,2.64556,26.56616-.74219,30.12988-1.2768a20.74378,20.74378,0,0,1,7.89917.6969c.42408.25067.87549.50794,1.33936.76795,9.2041,5.15918,25.606,11.94171,25.606,11.94171a46.5706,46.5706,0,0,0,7.66845.60376c14.44458-.217,14.14576-10.26929,15.78321-22.87738,1.88647-14.5268-3.96192-30.18561-3.96192-30.18561-1.56933-3.42395,1.60572-10.18775,3.57471-14.50812A26.49264,26.49264,0,0,0,683.50748,359.87281Z"/><path class="cls-9" d="M377.7543,83.15638c-45.50122-21.07776-63.23327.33453-80.29614,17.73205-18.98877,19.361-19.405,49.18146-19.405,49.18146-14.721,10.70612-19.40491,23.08514-19.7395,38.47522-.33447,15.39014,12.379,32.78766,12.379,32.78766s8.69885,10.37158,12.379,11.04071a33.40007,33.40007,0,0,0,5.02612.17834c2.80615-.03619,6.2522-.18219,9.35974-.3435a12.4124,12.4124,0,0,0,11.15967-8.51581c3.56262-10.85986,9.3529-30.96075,10.20276-48.95245.0144-.30432.03882-.6128.05041-.9159.55542-14.62573-5.85449-22.78979-11.692-27.17169a28.02451,28.02451,0,0,0-9.05115-4.61224c7.69494-32.453,24.08874-44.49744,33.79138-51.52338,9.70239-7.02594,27.43457-5.35309,27.43457-5.35309L391.475,94.86243l1.64843.49768Z"/><path class="cls-3" d="M395.84767,96.26819l-1.64844-.49768C394.85963,95.99487,395.41969,96.16687,395.84767,96.26819Z"/><path class="cls-10" d="M583.28078,428.3139c4.6062-3.3786,9.19189-6.59649,13.58154-9.46948-.94507-.15533-1.9021-.32336-2.8855-.52215-17.73413-3.5846-24.58224-9.3773-23.74407-15.66357.11062-.82961.86126-4.97334,9.83367-3.58088,1.00708-4.34119,2.543-10.88379,4.43018-18.884a4.69772,4.69772,0,0,1-1.65088-1.67884s-5.09375-3.96185-3.01856-9.433c1.97925-5.2179,3.79541-7.171,9.032-7.34107.86646-3.65917,1.76514-7.45123,2.686-11.33483a18.04542,18.04542,0,0,1-2.00586-8.168,118.61951,118.61951,0,0,1-19.03784-3.91626c-11.198-3.42169-9.33179-8.08759-18.97461-9.64295-9.64282-1.55529-33.90576-7.46545-51.3252-17.10833s-30.79516-17.41944-51.01391-19.59687c-20.21924-2.17743-10.57617-3.73272-22.39649-10.265-1.93261-1.068-4.62475-1.27539-7.77148-.88208a39.77275,39.77275,0,0,0-4.35986,8.0365c-1.55542,4.66589-13.0647,15.86407-28.92872,14.30877a81.40243,81.40243,0,0,1-10.5664-2.69024c-.20679.12945-.3208.20178-.3208.20178s-10.20117,23.263-21.728,28.56811a11.61369,11.61369,0,0,1-3.15674.98273c-12.75366,1.86633-26.44043-9.02081-46.03723-23.64068-13.89673-10.36737-30.29187-37.99054-37.01233-49.983-.31225-.55731-.61133-1.09307-.88061-1.57952a6.94874,6.94874,0,0,0-6.97754-3.53211c-11.17676,1.44562-38.98084,5.44519-49.07007,10.61286-12.75342,6.53228-21.46314,12.13134-27.37329,14.9309-4.24683,2.01166-7.88843,8.7923-9.60181,12.44959a25.39106,25.39106,0,0,1-2.8739,4.71167c-7.61768,9.90021-10.08569,16.10138-16.3573,36.31689-6.40088,20.6319-1.70483,30.687-1.70483,47.167,0,16.48-5.68287,88.08288-5.11451,90.356l338.937-1.56482L455.72,444.39368a93.11648,93.11648,0,0,1,.93311-18.6637,66.68087,66.68087,0,0,0,.311-18.3526C459.13307,404.39508,557.93825,423.38666,583.28078,428.3139Z"/><path class="cls-10" d="M446.07692,185.90173c-1.24414-4.66595-.62207-20.53-1.55518-27.99554s-4.97705-24.26276-15.86426-35.46094A8.73353,8.73353,0,0,0,427.353,121.359a5.157,5.157,0,0,1-2.06274.72815c-3.05738.56622-6.115-.67945-7.92676-1.24561-1.812-.56622-6.002,1.35889-9.28589,1.47211-3.28394.11328-4.64282-1.69861-6.56787-1.81183-1.925-.11328-1.69873,1.01917-3.85034.90588-2.15161-.11322-2.71778.453-5.32227.22651s-3.8501,1.13244-6.00171,1.92511-.906-.453-4.0769,0a36.75218,36.75218,0,0,0-5.32227,1.13238c-.3396,0-1.925.2265-3.96338.56622s-1.47216,1.58539-3.28393,1.69861c-1.812.11328-1.69873.11328-3.39722,1.35889-1.69873,1.24567-5.54883,1.01923-6.45483,1.47217s.11328,2.83105-1.58545,3.96344a5.15483,5.15483,0,0,1-2.05249.74542,3.875,3.875,0,0,0-2.977,2.33063,20.87521,20.87521,0,0,1-.97217,2.01977c-1.13232,2.03839-3.96338.67951-3.8501,1.359s-1.24023,2.14734-1.24023,2.14734c-3.1106,3.1106-7.1543,2.48846-8.39844,4.35486-1.24438,1.86633-3.73291,1.24426-6.53247,3.11059-1.39966.93323-1.814,2.96857-2.51392,3.86292-.6997.89429-1.6853.64746-2.15185,1.42511-.93335,1.55536.9331,7.77655.62207,13.37567-.189,3.39954-3.69971,5.76074-6.64063,7.16583-.84985,17.9917-6.64013,38.09259-10.20276,48.95246a12.41239,12.41239,0,0,1-11.15966,8.5158c-3.10755.16132-6.55359.30732-9.35975.34351-1.15039,4.92395-4.97436,20.24445-8.36328,21.80847-2.32812,1.07459-9.70556,1.32373-15.54907,1.34216,6.72046,11.99244,23.1156,39.61561,37.01233,49.983,19.5968,14.61987,33.28357,25.507,46.03723,23.64068a11.61369,11.61369,0,0,0,3.15674-.98273c11.52686-5.30511,21.728-28.56811,21.728-28.56811s.114-.07233.3208-.20178a81.40243,81.40243,0,0,0,10.5664,2.69024c15.864,1.5553,27.3733-9.64288,28.92872-14.30877a39.77275,39.77275,0,0,1,4.35986-8.0365c1.65356-2.49439,3.10547-4.406,3.10547-4.406,8.08764-9.33178,9.9541-30.795,10.26513-31.72821s3.42164-4.04382,3.42164-4.04382c4.35473-3.42163,2.17749-9.33185,2.17749-15.242s4.66577-22.08532,6.22119-27.06231C445.76588,193.36719,447.3213,190.56763,446.07692,185.90173Z"/><path class="cls-6" d="M427.32863,118.46344c-1.019-1.925-3.8501-7.47388-8.49292-9.73871-4.64307-2.26483-9.51245-6.34149-13.81543-7.47394-4.30323-1.13238-4.86939-3.96344-9.17261-4.9826-.428-.10132-.988-.27332-1.64844-.49768l-32.12182-9.69867s-17.73218-1.67285-27.43457,5.35309c-9.70264,7.02594-26.09644,19.07037-33.79139,51.52337a28.02432,28.02432,0,0,1,9.05115,4.61225c5.83753,4.38189,12.24744,12.546,11.692,27.17169-.0116.3031-.036.61157-.05042.91589,2.94092-1.40509,6.45166-3.76629,6.64063-7.16583.311-5.59912-1.55542-11.82031-.62207-13.37567.46655-.77765,1.45215-.53082,2.15185-1.42511.7-.89435,1.11426-2.92969,2.51392-3.86292,2.79956-1.86633,5.28809-1.24426,6.53247-3.11059,1.24414-1.8664,5.28784-1.24426,8.39844-4.35486,0,0,1.35351-1.4679,1.24023-2.14734s2.71778.67944,3.8501-1.359a20.87521,20.87521,0,0,0,.97217-2.01977,3.875,3.875,0,0,1,2.977-2.33063,5.15483,5.15483,0,0,0,2.05249-.74542c1.69873-1.13239.67944-3.5105,1.58545-3.96344s4.7561-.2265,6.45483-1.47217c1.69849-1.24561,1.58521-1.24561,3.39722-1.35889,1.81177-.11322,1.2456-1.35888,3.28393-1.69861s3.62378-.56622,3.96338-.56622a36.75218,36.75218,0,0,1,5.32227-1.13238c3.1709-.453,1.92529.79266,4.0769,0s3.39722-2.15162,6.00171-1.92511,3.17066-.33973,5.32227-.22651c2.15161.11329,1.92529-1.01916,3.85034-.90588,1.925.11322,3.28393,1.92511,6.56787,1.81183,3.28394-.11322,7.47388-2.03833,9.28589-1.47211,1.81177.56616,4.86938,1.81183,7.92676,1.24561a5.157,5.157,0,0,0,2.06274-.72815C428.23976,120.71191,428.02077,119.77094,427.32863,118.46344Z"/><path class="cls-11" d="M685.24074,454.22241a28.703,28.703,0,0,1-3.37915-.18585c-14.30884-1.5553-36.39429-14.931-39.19385-21.15216-2.37305-5.27387-4.07837-11.64856-6.437-13.85193-.46387-.26-.91529-.51727-1.33936-.76794a20.74382,20.74382,0,0,0-7.89917-.6969c-3.56372.5346-14.03613,3.92236-30.12988,1.27679-4.38965,2.873-8.97534,6.09088-13.58154,9.46948-23.80909,17.46387-48.1106,39.17011-48.1106,39.17011l156.843-.74506Q688.64,460.04471,685.24074,454.22241Z"/><path class="cls-11" d="M694.615,369.42792c-1.25293-1.59455-4.76416-3.45026-9.71386-5.42108-1.969,4.32037-5.14405,11.08416-3.57471,14.50811,0,0,5.84839,15.65882,3.96191,30.18561-1.63745,12.60809-1.33862,22.66034-15.7832,22.87738a46.56954,46.56954,0,0,1-7.66846-.60376s-16.40185-6.78253-25.606-11.94171c2.35864,2.20337,4.064,8.57806,6.437,13.85193,2.79956,6.22119,24.885,19.59686,39.19385,21.15216a28.703,28.703,0,0,0,3.37915.18585c9.98315-.10046,5.52539-7.36346,7.50781-10.762,2.17749-3.73273,11.50928-4.97693,13.37573-27.68445C707.99049,393.06854,701.45827,378.13763,694.615,369.42792Z"/><path class="cls-10" d="M649.06544,335.31177s-32.63818-6.79181-34.52466-12.07428c-1.88671-5.28247-3.01855-11.13092,3.39576-12.6402,5.89135-1.38623,35.47876-.86005,44.50634,2.88886l11.21729-57.31739a7.45356,7.45356,0,0,0-6.64868-8.85541l-42.05884-3.77453a9.073,9.073,0,0,0-9.64136,6.93225c-3.582,15.03137-11.87744,49.85638-19.66162,82.63806C607.13624,330.99091,649.06544,335.31177,649.06544,335.31177Z"/><path class="cls-10" d="M611.33351,365.30872c1.32056.18866,33.95874,3.58453,33.95874,3.58453l2.0752-7.73505s-8.67823-7.735-20.37525-7.735c-11.69678,0-29.99683,2.64123-33.77-.75464a8.54579,8.54579,0,0,1-1.677-2.26251c-.9209,3.8836-1.81958,7.67566-2.686,11.33483.25391-.00824.50782-.01666.77832-.01666C595.4861,361.72418,610.013,365.12006,611.33351,365.30872Z"/><path class="cls-10" d="M613.22,405.49335c9.62183-2.26392,17.92286-1.50928,27.54444-14.71552,0,0-46.35254-3.877-56.26782-10.584-1.88721,8.00024-3.4231,14.54284-4.43018,18.884.72363.1123,1.51489.23761,2.4021.37842C594.354,401.34283,603.5984,407.75726,613.22,405.49335Z"/><path class="cls-11" d="M686.2317,360.78088c.7544-2.82989.56592-5.84845-3.20727-9.05572-3.60523-3.06439-1.698-6.79175-1.698-13.39484s-1.32056-9.81036-6.603-11.88562c-5.28271-2.07525-4.90527-7.16907-10.37646-11.88556a7.2234,7.2234,0,0,0-1.90406-1.073c-9.02758-3.74891-38.615-4.27509-44.50634-2.88886-6.41431,1.50928-5.28247,7.35773-3.39576,12.6402,1.88648,5.28247,34.52466,12.07428,34.52466,12.07428s-41.9292-4.32086-53.41577-2.20264a7.43589,7.43589,0,0,0-2.23877.69336c-2.82422,1.62592-3.88965,4.96088-3.87158,8.43555a18.04542,18.04542,0,0,0,2.00586,8.168,8.54579,8.54579,0,0,0,1.677,2.26251c3.77319,3.39587,22.07324.75464,33.77.75464,11.697,0,20.37525,7.735,20.37525,7.735l-2.0752,7.73505s-32.63818-3.39587-33.95874-3.58453-15.84741-3.58454-21.69605-3.58454c-.2705,0-.52441.00842-.77832.01666-5.23657.17011-7.05273,2.12317-9.032,7.34107-2.07519,5.47119,3.01856,9.433,3.01856,9.433a4.69772,4.69772,0,0,0,1.65088,1.67884c9.91528,6.707,56.26782,10.584,56.26782,10.584-9.62158,13.20624-17.92261,12.4516-27.54444,14.71552-9.62158,2.26391-18.866-4.15052-30.75146-6.03711-.88721-.14081-1.67847-.26612-2.4021-.37842-8.97241-1.39246-9.723,2.30881-9.83367,3.58088-.5494,6.31806,6.00994,12.079,23.74407,15.66357.9834.19879,1.94043.36682,2.8855.52215,16.09375,2.64557,26.56616-.74219,30.12988-1.27679a20.74382,20.74382,0,0,1,7.89917.6969c.42407.25067.87549.50793,1.33936.76794,9.2041,5.15918,25.606,11.94171,25.606,11.94171a46.56954,46.56954,0,0,0,7.66846.60376c14.44458-.217,14.14575-10.26929,15.7832-22.87738,1.88648-14.52679-3.96191-30.18561-3.96191-30.18561-1.56934-3.42395,1.60571-10.18774,3.57471-14.50811A26.49218,26.49218,0,0,0,686.2317,360.78088Z"/><path class="cls-10" d="M380.47853,84.06445c-45.50122-21.07776-63.23328.33454-80.29614,17.73206-18.98877,19.361-19.405,49.18146-19.405,49.18146-14.72095,10.70611-19.40491,23.08514-19.7395,38.47522-.33448,15.39013,12.379,32.78765,12.379,32.78765s8.69886,10.37159,12.379,11.04072a33.40021,33.40021,0,0,0,5.02612.17834c2.80616-.03619,6.2522-.18219,9.35975-.34351a12.41239,12.41239,0,0,0,11.15966-8.5158c3.56263-10.85987,9.35291-30.96076,10.20276-48.95246.01441-.30432.03882-.61279.05042-.91589.55542-14.62573-5.85449-22.7898-11.692-27.17169a28.02432,28.02432,0,0,0-9.05115-4.61225c7.695-32.453,24.08875-44.49743,33.79139-51.52337,9.70239-7.02594,27.43457-5.35309,27.43457-5.35309l32.12182,9.69867,1.64844.49768Z"/><path class="cls-10" d="M374.844,300.68335c-1.29237-.68687-33.53983-15.57031-46.19075-23.012S306.3281,253.3617,306.3281,253.3617"/><line class="cls-10" x1="282.45875" y1="255.26837" x2="271.84813" y2="267.25291"/><path class="cls-10" d="M267.135,309.67072s9.17812,2.72863,10.41841,16.12372,3.72086,37.2086,10.66647,45.14644,3.22474,6.20143,16.37178,10.17035,32.74357,13.64315,39.44111,15.37955,22.57322,8.682,32.24746,16.8679,26.29407,17.86013,43.41,18.10818S455.72,444.39368,455.72,444.39368"/><path class="cls-10" d="M232.90313,467.18712s-11.41064-11.6587-19.34847-17.61207-26.54213-20.09264-31.25522-25.05379-13.147-23.56545-13.64316-27.78242-1.48834-25.54991-1.7364-27.28631"/><path class="cls-10" d="M456.96412,407.37738s6.13621-41.64571,1.91924-50.82383-7.93784-26.79019-7.93784-26.79019"/><path class="cls-10" d="M421.4267,264.77234s-16.61984,3.96892-47.37895-15.37955"/><path class="cls-10" d="M422.915,242.9433s6.94161,1.61184,12.897-2.2948"/><path class="cls-10" d="M438.26134,230.06851s-11.12932-26.07022-9.889-40.45754"/><path class="cls-10" d="M424.907,240.85s-6.12584-6.49338-18.74506-4.53311-2.9404-10.659-2.9404-10.659"/><circle class="cls-6" cx="392.8689" cy="198.27543" r="4.091"/><circle class="cls-6" cx="435.74698" cy="205.11816" r="4.091"/><path class="cls-10" d="M269.50434,161.94182s2.88759-4.53764,7.01272,3.1626,7.08051,47.1682-6.60021,46.75145c0,0-3.372.04441-5.02206-5.18076"/><path class="cls-10" d="M280.77736,150.978s7.75151-2.16189,12.02419,7.75683,7.78238,20.60042,4.73046,36.77557-9.00314,26.24647-16.93812,28.23021c0,0-3.5097,1.67855-8.39277-3.20451"/><path class="cls-10" d="M293.25933,233.20152c.1526-.763,16.78553-25.0257,17.09072-48.06766s-15.25957-37.386-14.95438-44.71054,6.10383-23.65234,14.95438-35.097,30.36655-27.77242,50.0514-28.07761"/><path class="cls-10" d="M683.60138,366.99693s14.24632,14.39787,15.61033,26.37084,6.9716,17.1259-2.4249,38.64693"/><path class="cls-10" d="M680.57025,376.69655s2.12179,4.5467-1.81868,10.76052-4.84981,6.9716-4.39514,10.15429-4.092,13.18542-4.54669,13.48853"/><path class="cls-10" d="M652.68384,426.55866s15.0041,7.72939,23.64283-6.9716"/><path class="cls-10" d="M645.29225,368.89325s12.54452.68014,14.36319-.2292"/><path class="cls-10" d="M647.36745,361.1582s3.95238,2.8076,4.2555,4.62628"/><path class="cls-10" d="M649.06544,335.31177c.89038-.14172,16.65227,1.98007,21.80519,9.5579"/><path class="cls-10" d="M616.61338,323.04552c.15155-.90934-1.51557-9.0934,1.51556-9.54807,6.63716-.99557,11.06363.60623,12.5792,3.94048s2.27335,6.51693.60622,6.9716S616.61338,323.04552,616.61338,323.04552Z"/><path class="cls-10" d="M593.57678,347.74924s15.45877,4.5467,18.03523.45467-.45467-11.36674-10.15429-12.88231c0,0-5.91071-1.81868-6.36538.75779S593.57678,347.74924,593.57678,347.74924Z"/><path class="cls-10" d="M586.75673,365.63292s-5.91071,7.42627-3.18269,10.4574c0,0,13.48854,2.87958,16.21656.45467s2.27334-8.79028-5.15293-10.4574S586.75673,365.63292,586.75673,365.63292Z"/><path class="cls-10" d="M575.0445,399.17433s-2.65476,6.19443-2.32291,7.4665,6.7475,6.02851,10.56371,5.47544,4.75644-6.305,1.99107-8.35142S576.759,399.119,575.0445,399.17433Z"/></svg>