<svg id="Layer_1" data-name="Layer 1" xmlns="http://www.w3.org/2000/svg" xmlns:xlink="http://www.w3.org/1999/xlink" viewBox="0 0 604.83361 545.15755"><defs><style>.cls-1,.cls-11,.cls-15,.cls-3,.cls-6,.cls-9{fill:none;}.cls-2{clip-path:url(#clip-path);}.cls-3{stroke:#91bcd6;}.cls-11,.cls-3,.cls-6,.cls-9{stroke-miterlimit:10;}.cls-11,.cls-15,.cls-3,.cls-6,.cls-9{stroke-width:1.8px;}.cls-4{fill:#468fba;}.cls-5{fill:#1d5493;}.cls-6{stroke:#1d5493;}.cls-7{fill:#91bcd6;}.cls-8{clip-path:url(#clip-path-2);}.cls-9{stroke:#80b590;}.cls-10{fill:#80b590;}.cls-11,.cls-15{stroke:#2a5d31;}.cls-12{fill:#428252;}.cls-13{fill:#2a5d31;}.cls-14{fill:#5f9c70;}.cls-15{stroke-linejoin:round;}</style><clipPath id="clip-path"><rect class="cls-1" x="-163.15105" y="-569.50825" width="752.75723" height="521.22873"/></clipPath><clipPath id="clip-path-2"><rect class="cls-1" width="604.83361" height="545.15755"/></clipPath></defs><g class="cls-2"><circle class="cls-3" cx="-55.56268" cy="-72.10868" r="89.44841"/><path class="cls-4" d="M378.04911-6.424c-22.89772-1.14976-46.47674-7.93539-69.07923-12.87422C270.6213-27.67772,232.36538-36.48162,194.066-45.082Q91.386-68.13942-11.67344-89.44571c-1.8251,11.35677-6.56484,36.43677,1.3074,41.54176C25.445-24.68131,100.73175-16.54539,155.92229-.06557,210.9597,16.36851,266.709,38.41824,320.99979,50.86182c32.345,7.41353,129.275,35.39971,146.76948-9.69076q.289-33.59634.57736-67.19268C455.33928,2.79865,401.98338-5.22215,378.04911-6.424Z"/><path class="cls-5" d="M372.85966-6.57779c-22.89772-1.14976-46.47674-7.93539-69.07923-12.87422-38.34858-8.37951-76.6045-17.18341-114.90388-25.7838Q86.19652-68.29324-16.86289-89.59952c-1.8251,11.35678-6.56484,36.43677,1.3074,41.54176C20.25554-24.83511,95.5423-16.69919,150.73284-.21938c55.0374,16.43409,110.78668,38.48382,165.0775,50.9274,32.345,7.41353,129.275,35.39971,146.76948-9.69076q.289-33.59634.57736-67.19268C450.14983,2.64485,396.79393-5.376,372.85966-6.57779Z"/><path class="cls-6" d="M377.23239-8.32635c-22.895-1.12932-46.476-7.89164-69.07923-12.809C269.8048-29.478,231.54865-38.24493,193.24928-46.80821Q90.56822-69.76634-12.49017-90.97193c-1.82441,11.34763-6.56208,36.425,1.30729,41.5196C24.62862-26.26788,99.91456-18.20456,155.10557-1.7793c55.03694,16.37942,110.79059,38.373,165.07749,50.76417,32.37008,7.38858,129.27267,35.27613,146.76948-9.81265q.289-33.5835.57737-67.167C454.52118.82556,401.18-7.14512,377.23239-8.32635Z"/><path class="cls-6" d="M466.55131,29.21043c-21.3889,19.05323-45.59472,22.18493-73.7462,22.10523-32.46044-.09192-66.49063-11.15079-98.07319-19.53124-45.17508-11.98722-90.01217-25.24434-134.8704-38.355Q72.60751-32.07211-14.79226-57.05469"/><path class="cls-6" d="M464.55847,13.89787C446.949,41.92286,384.33389,29.672,359.91815,26.24618c-74.897-10.50881-149.58387-35.67-222.97459-55.49751Q60.66154-49.86-15.78868-69.82641"/><path class="cls-4" d="M80.52074,67.67315c-.02478-.599-.03517-.9775-.03517-.9775L78.44285,54.10049s-8.81861-1.68788-17.82622-2.39526C65.77817,56.65328,71.062,63.77762,75.2565,70.02485c3.31742,4.94157,5.94634,9.316,7.29577,11.62245C81.07457,77.88264,80.63262,70.33494,80.52074,67.67315Z"/><path class="cls-4" d="M130.76072,75.6685a182.94457,182.94457,0,0,1-5.68141-21.22766,165.8904,165.8904,0,0,0-17.1597-4.03049c9.84836,5.395,11.378,18.0445,12.97916,23.72931a9.84014,9.84014,0,0,0,.77641,2.08747c1.39378,2.43941,4.92578,5.85573,8.18126,8.70513A18.29588,18.29588,0,0,0,135.3793,83.497c.0857-.0392.06076-.14671-.02956-.17362C133.83723,82.87276,132.237,79.726,130.76072,75.6685Z"/><path class="cls-4" d="M82.55227,81.6473c-1.34943-2.30644-3.97835-6.68088-7.29577-11.62245C71.062,63.77762,65.77817,56.65328,60.61663,51.70523c-5.38451-.42287-10.837-.4955-14.51281.35274-6.55691,1.51316-7.73571,5.55064-6.439,10.23986,2.20415,7.96958,11.5706,17.82533,13.9282,20.39711,3.04569,3.32271,22.7564,3.492,28.5413,1.974,1.76249-.64867,2.08926-1.629,2.08926-1.629S82.844,82.38975,82.55227,81.6473Z"/><path class="cls-4" d="M142.78047-83.76567c-.48671-21.65283-3.23351-67.81667-4.76115-92.39891-1.62195.09271-3.34179.14456-5.17592.14456-25.16075,0-63.16121-4.45916-76.08724-9.68263-3.25188,13.89833-8.28715,37.65521-7.58826,48.833,1.021,16.33974,6.4678,81.35806,4.42509,97.35735-1.65232,12.9445-10.43457,67.32846-13.728,87.62657-.77721,4.79022-1.24992,7.68826-1.24992,7.68826a15.50424,15.50424,0,0,0,1.04973,6.49528c-1.29668-4.68922-.11788-8.7267,6.439-10.23986,3.67585-.84824,9.1283-.77561,14.51281-.35274,9.00761.70738,17.82622,2.39526,17.82622,2.39526l2.04272,12.59516s.01039.37851.03517.9775a23.41761,23.41761,0,0,0,5.90038-4.54437,11.54375,11.54375,0,0,0,1.21277-1.53923s.21258.1014.57261.27043c-1.78138-4.949-2.13342-9.38464.7892-11.16362,3.58434-2.18188,11.44873-1.57889,18.92391-.286a165.8904,165.8904,0,0,1,17.1597,4.03049,182.94457,182.94457,0,0,0,5.68141,21.22766,17.23028,17.23028,0,0,0,2.48826-.12218c12.93562-1.70206,12.59516-12.93561,12.93562-13.95677C146.52505,60.56829,143.46137-53.46915,142.78047-83.76567Z"/><path class="cls-4" d="M121.67518,76.22713a9.84014,9.84014,0,0,1-.77641-2.08747c-1.60116-5.68481-3.1308-18.33431-12.97916-23.72931-7.47518-1.29288-15.33957-1.89587-18.92391.286-2.92262,1.779-2.57058,6.21466-.7892,11.16362,2.99135,8.30913,10.01619,18.06618,12.363,19.13289,3.74458,1.70207,10.89329-1.36161,19.40342,2.38287a19.32624,19.32624,0,0,0,9.88352,1.55652C126.601,82.08286,123.069,78.66654,121.67518,76.22713Z"/><path class="cls-4" d="M78.252,67.67315c-.02478-.599-.03517-.9775-.03517-.9775L76.17415,54.10049s-8.81861-1.68788-17.82622-2.39526c5.16153,4.94805,10.44535,12.07239,14.63987,18.31962,3.31742,4.94157,5.94634,9.316,7.29576,11.62245C78.80587,77.88264,78.36392,70.33494,78.252,67.67315Z"/><path class="cls-4" d="M128.492,75.6685a182.94457,182.94457,0,0,1-5.68141-21.22766,165.8902,165.8902,0,0,0-17.15971-4.03049c9.84836,5.395,11.378,18.0445,12.97917,23.72931a9.84014,9.84014,0,0,0,.77641,2.08747c1.39378,2.43941,4.92578,5.85573,8.18126,8.70513A18.29588,18.29588,0,0,0,133.1106,83.497c.0857-.0392.06076-.14671-.02956-.17362C131.56853,82.87276,129.96832,79.726,128.492,75.6685Z"/><path class="cls-5" d="M80.28356,81.6473c-1.34942-2.30644-3.97834-6.68088-7.29576-11.62245-4.19452-6.24723-9.47834-13.37157-14.63987-18.31962-5.38451-.42287-10.837-.4955-14.51281.35274-6.55691,1.51316-7.73571,5.55064-6.439,10.23986,2.20416,7.96958,11.57061,17.82533,13.92821,20.39711,3.04569,3.32271,22.7564,3.492,28.5413,1.974,1.76249-.64867,2.08926-1.629,2.08926-1.629S80.57527,82.38975,80.28356,81.6473Z"/><path class="cls-7" d="M140.51177-83.76567c-.48671-21.65283-3.23351-67.81667-4.76115-92.39891-1.62195.09271-3.34179.14456-5.17592.14456-25.16075,0-63.16122-4.45916-76.08724-9.68263-3.25188,13.89833-8.28715,37.65521-7.58826,48.833,1.021,16.33974,6.4678,81.35806,4.42509,97.35735-1.65232,12.9445-10.43457,67.32846-13.728,87.62657-.77721,4.79022-1.24993,7.68826-1.24993,7.68826a15.50444,15.50444,0,0,0,1.04973,6.49528c-1.29667-4.68922-.11787-8.7267,6.439-10.23986,3.67585-.84824,9.1283-.77561,14.51281-.35274,9.00761.70738,17.82622,2.39526,17.82622,2.39526l2.04272,12.59516s.01039.37851.03517.9775a23.41761,23.41761,0,0,0,5.90038-4.54437,11.543,11.543,0,0,0,1.21276-1.53923s.21259.1014.57262.27043c-1.78138-4.949-2.13342-9.38464.7892-11.16362,3.58434-2.18188,11.44872-1.57889,18.9239-.286a165.8902,165.8902,0,0,1,17.15971,4.03049A182.94457,182.94457,0,0,0,128.492,75.6685a17.23028,17.23028,0,0,0,2.48826-.12218c12.93562-1.70206,12.59516-12.93561,12.93562-13.95677C144.25635,60.56829,141.19267-53.46915,140.51177-83.76567Z"/><path class="cls-5" d="M119.40648,76.22713a9.84014,9.84014,0,0,1-.77641-2.08747c-1.60116-5.68481-3.13081-18.33431-12.97917-23.72931-7.47518-1.29288-15.33956-1.89587-18.9239.286-2.92262,1.779-2.57058,6.21466-.7892,11.16362,2.99135,8.30913,10.01619,18.06618,12.363,19.13289,3.74458,1.70207,10.89329-1.36161,19.40342,2.38287a19.32624,19.32624,0,0,0,9.88352,1.55652C124.33226,82.08286,120.80026,78.66654,119.40648,76.22713Z"/><path class="cls-6" d="M80.52074,67.67315c-.02478-.599-.03517-.9775-.03517-.9775L78.44285,54.10049s-8.81861-1.68788-17.82622-2.39526C65.77817,56.65328,71.062,63.77762,75.2565,70.02485c3.31742,4.94157,5.94634,9.316,7.29577,11.62245C81.07457,77.88264,80.63262,70.33494,80.52074,67.67315Z"/><path class="cls-6" d="M130.76072,75.6685a182.94457,182.94457,0,0,1-5.68141-21.22766,165.8904,165.8904,0,0,0-17.1597-4.03049c9.84836,5.395,11.378,18.0445,12.97916,23.72931a9.84014,9.84014,0,0,0,.77641,2.08747c1.39378,2.43941,4.92578,5.85573,8.18126,8.70513A18.29588,18.29588,0,0,0,135.3793,83.497c.0857-.0392.06076-.14671-.02956-.17362C133.83723,82.87276,132.237,79.726,130.76072,75.6685Z"/><path class="cls-6" d="M82.55227,81.6473c-1.34943-2.30644-3.97835-6.68088-7.29577-11.62245C71.062,63.77762,65.77817,56.65328,60.61663,51.70523c-5.38451-.42287-10.837-.4955-14.51281.35274-6.55691,1.51316-7.73571,5.55064-6.439,10.23986,2.20415,7.96958,11.5706,17.82533,13.9282,20.39711,3.04569,3.32271,22.7564,3.492,28.5413,1.974,1.76249-.64867,2.08926-1.629,2.08926-1.629S82.844,82.38975,82.55227,81.6473Z"/><path class="cls-6" d="M142.78047-83.76567c-.48671-21.65283-3.23351-67.81667-4.76115-92.39891-1.62195.09271-3.34179.14456-5.17592.14456-25.16075,0-63.16121-4.45916-76.08724-9.68263-3.25188,13.89833-8.28715,37.65521-7.58826,48.833,1.021,16.33974,6.4678,81.35806,4.42509,97.35735-1.65232,12.9445-10.43457,67.32846-13.728,87.62657-.77721,4.79022-1.24992,7.68826-1.24992,7.68826a15.50424,15.50424,0,0,0,1.04973,6.49528c-1.29668-4.68922-.11788-8.7267,6.439-10.23986,3.67585-.84824,9.1283-.77561,14.51281-.35274,9.00761.70738,17.82622,2.39526,17.82622,2.39526l2.04272,12.59516s.01039.37851.03517.9775a23.41761,23.41761,0,0,0,5.90038-4.54437,11.54375,11.54375,0,0,0,1.21277-1.53923s.21258.1014.57261.27043c-1.78138-4.949-2.13342-9.38464.7892-11.16362,3.58434-2.18188,11.44873-1.57889,18.92391-.286a165.8904,165.8904,0,0,1,17.1597,4.03049,182.94457,182.94457,0,0,0,5.68141,21.22766,17.23028,17.23028,0,0,0,2.48826-.12218c12.93562-1.70206,12.59516-12.93561,12.93562-13.95677C146.52505,60.56829,143.46137-53.46915,142.78047-83.76567Z"/><path class="cls-6" d="M121.67518,76.22713a9.84014,9.84014,0,0,1-.77641-2.08747c-1.60116-5.68481-3.1308-18.33431-12.97916-23.72931-7.47518-1.29288-15.33957-1.89587-18.92391.286-2.92262,1.779-2.57058,6.21466-.7892,11.16362,2.99135,8.30913,10.01619,18.06618,12.363,19.13289,3.74458,1.70207,10.89329-1.36161,19.40342,2.38287a19.32624,19.32624,0,0,0,9.88352,1.55652C126.601,82.08286,123.069,78.66654,121.67518,76.22713Z"/><path class="cls-6" d="M85.15228,56.789s1.229-22.73592,5.53036-36.25457S96.62644-87.00027,86.1802-115.881"/><path class="cls-6" d="M143.52828,70.30768s-6.78821-12.07019-18.449-15.86684"/><path class="cls-6" d="M78.44285,54.10049s4.22783-2.112,6.70943,2.68854"/></g><g class="cls-8"><circle class="cls-9" cx="502.7401" cy="468.00728" r="89.44841"/><path class="cls-9" d="M55.79052,312.13581l58.526,45.236a3.62109,3.62109,0,0,1,.63462,5.09823l-45.236,58.52591a3.62118,3.62118,0,0,1-5.09828.63467l-58.526-45.236a3.62109,3.62109,0,0,1-.63462-5.09823l45.2508-58.477A3.61835,3.61835,0,0,1,55.79052,312.13581Z"/><path class="cls-9" d="M401.96322,9.046l-160.837,67.4533a2.73938,2.73938,0,0,0-1.47591,3.59848,2.83655,2.83655,0,0,0,.86839,1.12074L379.33316,186.78475a2.73966,2.73966,0,0,0,3.85091-.51333,2.59185,2.59185,0,0,0,.51577-1.33372L405.77468,11.906a2.76447,2.76447,0,0,0-2.375-3.08528A2.68142,2.68142,0,0,0,401.96322,9.046Z"/><rect class="cls-10" x="88.95988" y="111.55812" width="430.82414" height="320.07033" rx="20.67248"/><rect class="cls-11" x="88.24085" y="110.17166" width="430.82414" height="320.07033" rx="20.67248"/><rect class="cls-11" x="110.41771" y="128.31868" width="386.47043" height="14.2664" rx="7.13319"/><rect class="cls-11" x="380.09875" y="156.59169" width="115.41058" height="250.56428" rx="3.19903"/><rect class="cls-11" x="252.10403" y="203.10908" width="81.83289" height="81.83289"/><circle class="cls-11" cx="220.84861" cy="295.48299" r="55.22641"/><path class="cls-11" d="M172.06645,178.1464l-50.90753,88.17443a2.041,2.041,0,0,0,1.76754,3.06146H224.74152a2.041,2.041,0,0,0,1.76754-3.06146L175.60153,178.1464A2.041,2.041,0,0,0,172.06645,178.1464Z"/><path class="cls-11" d="M245.34872,375.17384c1.53407-2.04543,11.07866-40.92526,42.95388-30.17,52.72873,17.79163,62.89675-30.68134,56.24912-50.11285"/><line class="cls-11" x1="389.81914" y1="182.10764" x2="480.64259" y2="182.10764"/><line class="cls-11" x1="389.81914" y1="196.47519" x2="480.64259" y2="196.47519"/><line class="cls-11" x1="389.81914" y1="210.84274" x2="480.64259" y2="210.84274"/><line class="cls-11" x1="389.81914" y1="225.21029" x2="480.64259" y2="225.21029"/><line class="cls-11" x1="389.81914" y1="239.57785" x2="480.64259" y2="239.57785"/><line class="cls-11" x1="389.81914" y1="253.9454" x2="480.64259" y2="253.9454"/><line class="cls-11" x1="389.81914" y1="268.31295" x2="480.64259" y2="268.31295"/><line class="cls-11" x1="389.81914" y1="282.6805" x2="480.64259" y2="282.6805"/><line class="cls-11" x1="389.81914" y1="297.04805" x2="429.45122" y2="297.04805"/><path class="cls-12" d="M445.93733,348.05323c2.99344-1.52817,6.77389-.45665,9.40368.6957-1.144-7.1119-4.39228-26.34042-6.63542-30.0778-2.76372-4.60481-6.67933-3.42061-7.33443-5.7313-.65485-2.31073-5.64536-5.78989-7.19166-3.57191s.5535,7.184-.11016,7.54518c-.66392.36119-4.97393-2.02558-5.47874,1.94862-.50456,3.97416,1.15109,1.00837-1.47092,5.36035s.52811,8.40232,2.29207,11.48618c1.234,2.157,9.49194,10.41891,14.34694,15.19286A3.95251,3.95251,0,0,1,445.93733,348.05323Z"/><path class="cls-12" d="M458.49837,350.42434a22.8842,22.8842,0,0,0-3.15736-1.67541c-2.62979-1.15235-6.41024-2.22387-9.40368-.6957a3.95251,3.95251,0,0,0-2.17864,2.84788c-.75455,3.55023,1.94724,8.78924,1.36177,11.62062-.44573,2.1552,1.057,9.4819,2.43169,15.38606,1.2245-2.954.55184-9.65917,5.97843-11.78883,3.27023-1.28337-.76061-3.0994,3.48758-5.23a11.51586,11.51586,0,0,1,3.42183-1.17737C459.62641,355.57042,458.49837,350.42434,458.49837,350.42434Z"/><path class="cls-12" d="M565.33157,343.03408c-.04432-.23308-.09615-.46935-.15293-.707-.16063.25056-.31341.51738-.46213.79576C564.92221,343.09014,565.12687,343.0613,565.33157,343.03408Z"/><path class="cls-12" d="M588.01425,317.11842c-.57833-1.95828-3.35414.85765-6.14217,2.30973-2.53163,1.31854-6.12582,3.76342-6.12582,3.76342s9.86551-10.01411,9.01709-12.04757c-.84816-2.03345-12.98245,8.871-12.98245,8.871s6.32771-6.71255,7.15154-10.25816c.82407-3.54565-4.89854,1.11686-4.89854,1.11686-7.84862,7.71217-13.15919,10.60182-13.90707,10.49248-.74786-.10928,4.32847-9.75436,1.65648-9.7631-2.67175-.00878-12.61346,13.66026-10.02649,19.99588a14.99481,14.99481,0,0,1,1.16942,7.5336c2.45737-1.46369,5.99755-2.88116,8.55971-1.98688,2.12317.74117,3.17624,3.01122,3.69269,5.18142,1.61835-2.5244,3.96075-3.843,9.39832-8.00282,6.62157-5.06564,8.47832-4.18313,11.07516-7.31686,2.54844-3.07556-6.55861.60547-6.89714.743l.00007-.0038C579.08,327.4884,588.62736,319.19381,588.01425,317.11842Z"/><path class="cls-12" d="M561.486,337.14569c-2.56216-.89428-6.10234.52319-8.55971,1.98688a9.52607,9.52607,0,0,0-2.82588,2.22955,74.25991,74.25991,0,0,0-1.78884,7.64533c2.54643-1.04932,6.1343-2.80277,9.99972-4.17375a36.74646,36.74646,0,0,1,6.40527-1.71083c.14872-.27838.3015-.5452.46213-.79576C564.66219,340.15691,563.60912,337.88686,561.486,337.14569Z"/><path class="cls-12" d="M419.6398,402.02548c6.52291,1.38066,22.13613,9.90511,31.30531,15.0211a52.41235,52.41235,0,0,1-1.41493-10.2146c-.20321-3.88519-3.24063,1.06846-4.05487-.747-.814-1.81548,6.152-7.09683,6.152-7.09683-5.1018.05834-3.03826-4.42-3.4793-7.97716-10.21619-1.49527-31.22194-2.86944-52.48546,6.90378C405.515,395.89415,413.17283,400.65672,419.6398,402.02548Z"/><path class="cls-12" d="M590.70441,370.28785c-2.74713-3.15116-9.57593-19.654-15.09559-24.738-2.75735-2.53994-6.428-3.02781-10.27725-2.51574-.2047.02722-.40936.05606-.61506.08879a36.74646,36.74646,0,0,0-6.40527,1.71083c-3.86542,1.371-7.45329,3.12443-9.99972,4.17375-.31787.131-.62537.2548-.90937.36159-6.14216,2.30979-19.70294-1.5822-24.299-1.4904-3.00839.06009-11.73477,9.46174-17.59794,16.39277,4.30733-2.46772,10.01267-7.93853,10.01267-7.93853l-11.4033,15.75993,11.48622-1.55937c12.48764-4.18895,4.311-11.55331,4.311-11.55331,27.56913,3.4139,21.42507,21.17653,21.42507,21.17653,10.36476,11.38553,3.08345,33.76276-3.873,35.98442-6.9562,2.22156-4.54743,4.73287-8.87424,7.95587-4.32682,3.22294-9.21332,6.05565-9.21332,6.05565l3.13823,3.85171c-6.10333-1.64494-7.02748,1.74008-13.577,4.44674a40.63827,40.63827,0,0,1-12.6027,2.6755c-15.07551,1.16171-20.96477-7.9506-22.82974-12.02721a14.0412,14.0412,0,0,1-.73378-1.90388,6.09786,6.09786,0,0,0-.82516,2.11633c-1.13251,6.06305,6.847,13.82813,14.27487,19.338,9.23314,6.849,13.8544,5.53887,13.8544,5.53887,5.15953,12.18314,12.86112,15.74981,19.16874,15.97677a18.07677,18.07677,0,0,0,7.48118-1.3114c6.10043-2.54508,11.67333-20.28973,11.67333-20.28973l7.016-1.49468c7.01622-1.49466,15.55391-10.78633,15.6301-14.44132S576.11232,413.675,581.667,408.07138c5.55444-5.60354,10.34468-12.77,7.91786-22.29C587.15779,376.26136,593.45154,373.43906,590.70441,370.28785Z"/><path class="cls-12" d="M541.33684,380.15666s6.14406-17.76263-21.42507-21.17653c0,0,8.17662,7.36436-4.311,11.55331l-11.48622,1.55937,11.4033-15.75993s-5.70534,5.47081-10.01267,7.93853c-1.75383,1.00486-3.27736,1.51447-4.08738.9498,0,0,10.09651-12.09547,10.45322-15.59041,0,0-9.79089,11.06055-15.44029,9.61771,0,0-15.72643-8.46817-30.35273,2.965-.98459.7697-1.38967-3.1349-5.638-2.5019a11.51586,11.51586,0,0,0-3.42183,1.17737c-4.24819,2.13056-.21735,3.94659-3.48758,5.23-5.42659,2.12966-4.75393,8.83481-5.97843,11.78883a4.22415,4.22415,0,0,1-.17275.387c-1.47656,2.71442-1.26088,7.559.36733,11.18991a5.3003,5.3003,0,0,1,.40129,1.52624c.441,3.55719-1.6225,8.0355,3.4793,7.97716,0,0-6.966,5.28135-6.152,7.09683.81424,1.8155,3.85166-3.13815,4.05487.747a52.41235,52.41235,0,0,0,1.41493,10.2146c.994,3.71389,2.6879,6.9596,5.60678,7.15952,5.955.408,16.219,2.9882,16.219,2.9882l.00046.00116a14.0412,14.0412,0,0,0,.73378,1.90388c1.865,4.07661,7.75423,13.18892,22.82974,12.02721a40.63827,40.63827,0,0,0,12.6027-2.6755c6.54948-2.70666,7.47363-6.09168,13.577-4.44674l-3.13823-3.85171s4.8865-2.83271,9.21332-6.05565c4.32681-3.223,1.918-5.73431,8.87424-7.95587C544.42029,413.91942,551.7016,391.54219,541.33684,380.15666Z"/><path class="cls-12" d="M346.94877,491.222c-7.85037,2.34583-17.045-5.50326-13.76163-12.32959-11.28278,3.46253-23.16654-1.47281-31.407-.00243-10.58693,1.88907-9.512,6.55243-9.512,6.55243-5.26164,14.04778,13.72684,18.42783,22.33,21.74788,8.60345,3.32,33.97739,9.47376,38.06951,6.5588,3.43666-2.448,3.11277-21.16644,2.92088-27.10495q-.83909-.00754-1.64143-.0858A17.616,17.616,0,0,1,346.94877,491.222Z"/><path class="cls-12" d="M346.94877,491.222a17.616,17.616,0,0,0,6.99834-4.66366c-7.23931-.6993-12.27693-5.49325-15.46-10.00636a24.46625,24.46625,0,0,1-5.3,2.34043C329.90381,485.71876,339.0984,493.56785,346.94877,491.222Z"/><path class="cls-12" d="M500.07545,454.18863s-4.62126,1.31011-13.8544-5.53887c-7.42783-5.50984-15.40738-13.27492-14.27487-19.338a6.09786,6.09786,0,0,1,.82516-2.11633l-.00046-.00116s-10.264-2.58023-16.219-2.9882c-2.91888-.19992-4.61277-3.44563-5.60678-7.15952-9.16918-5.116-24.7824-13.64044-31.30531-15.0211-6.467-1.36876-14.12478-6.13133-23.97724-4.11075-4.3688.896-9.168,3.12121-14.48852,7.57576-17.31893,14.49988-30.03665,53.42562-47.06066,62.775a34.56326,34.56326,0,0,0,2.741,5.75039c.47728.81382,1.02151,1.66927,1.63275,2.53613,3.18308,4.51311,8.2207,9.30706,15.46,10.00636q.80248.07758,1.64143.0858a20.66523,20.66523,0,0,0,3.83813-.31894s29.13767-40.47911,39.79-49.54436c1.71791-1.462,2.95684-2.10994,3.51333-1.63612,1.88785,1.60725,14.8999,13.62059,30.55138,25.62555,17.573,13.4786,38.474,26.94655,50.69952,25.66389,21.29071-2.23382,25.44229-2.45,35.26329-16.26878C512.93657,469.93844,505.235,466.37177,500.07545,454.18863Z"/><path class="cls-12" d="M402.73,435.14474c-.55649-.47382-1.79542.17417-3.51333,1.63612l5.32969,50.71826s3.11952.87406,7.39036,1.70426c6.67267,1.29714,16.15184,2.47983,20.98351.0612a6.98779,6.98779,0,0,0,1.185-.72807l-.82381-27.76622C417.6299,448.76533,404.61785,436.752,402.73,435.14474Z"/><path class="cls-12" d="M432.82654,500.417c-8.88911,9.325-23.12842,2.61573-24.08562,2.14912-3.2612,1.82183-7.22227,3.984-11.33916,6.11394-8.00172,4.13975-17.28584,7.8347-18.46119,10.81957-3.45455,8.77439,11.71958,11.26054,22.71878,7.59857,10.999-3.66187,14.51032,1.05225,28.92032.18029,14.40977-.87187,12.637-1.28385,14.59533-5.27462,1.95808-3.99078-2.32653-7.5959-5.5432-17.46049-1.66648-5.11015-3.519-7.252-4.91914-8.13273l.23988.95663Z"/><path class="cls-12" d="M434.71266,496.41069l-1.79243-7.14611c-4.83167,2.41863-14.31084,1.23594-20.98351-.0612.49338,4.65112.32892,10.91492-3.25014,13.33621l.05434.02657c.9572.46661,15.19651,7.17586,24.08562-2.14912l2.126-3.04972Z"/><path class="cls-12" d="M446.91937,347.61606c2.99344-1.52817,6.77389-.45665,9.40368.6957-1.144-7.1119-4.39228-26.34042-6.63542-30.07781-2.76372-4.6048-6.67933-3.4206-7.33443-5.73129-.65485-2.31073-5.64536-5.78989-7.19166-3.57192s.5535,7.184-.11016,7.54518c-.66392.3612-4.97393-2.02557-5.47874,1.94863-.50457,3.97416,1.15109,1.00837-1.47092,5.36035s.52811,8.40232,2.29207,11.48618c1.234,2.157,9.49194,10.4189,14.34694,15.19286A3.95249,3.95249,0,0,1,446.91937,347.61606Z"/><path class="cls-13" d="M459.48041,349.98716a22.88487,22.88487,0,0,0-3.15736-1.6754c-2.62979-1.15235-6.41024-2.22387-9.40368-.6957a3.95249,3.95249,0,0,0-2.17864,2.84788c-.75455,3.55023,1.94724,8.78924,1.36177,11.62062-.44573,2.1552,1.057,9.4819,2.43168,15.38606,1.22451-2.954.55185-9.65918,5.97844-11.78884,3.27023-1.28336-.76062-3.09939,3.48758-5.23a11.51609,11.51609,0,0,1,3.42183-1.17736C460.60845,355.13325,459.48041,349.98716,459.48041,349.98716Z"/><path class="cls-6" d="M566.31361,342.59691c-.04432-.23309-.09615-.46935-.15293-.707-.16064.25056-.31341.51738-.46213.79576C565.90425,342.653,566.10891,342.62413,566.31361,342.59691Z"/><path class="cls-12" d="M588.99628,316.68125c-.57832-1.95828-3.35413.85765-6.14217,2.30973-2.53162,1.31854-6.12581,3.76342-6.12581,3.76342s9.86551-10.01411,9.01709-12.04757c-.84817-2.03345-12.98245,8.871-12.98245,8.871s6.32771-6.71254,7.15154-10.25815c.82406-3.54565-4.89854,1.11686-4.89854,1.11686-7.84862,7.71217-13.15919,10.60182-13.90707,10.49248-.74786-.10929,4.32847-9.75436,1.65648-9.7631-2.67175-.00878-12.61346,13.66026-10.02649,19.99587a14.99484,14.99484,0,0,1,1.16942,7.53361c2.45737-1.46369,5.99755-2.88116,8.55971-1.98688,2.12317.74117,3.17624,3.01122,3.69269,5.18142,1.61835-2.5244,3.96075-3.843,9.39832-8.00282,6.62157-5.06565,8.47832-4.18313,11.07516-7.31687,2.54844-3.07556-6.55861.60547-6.89714.743l.00007-.0038C580.062,327.05123,589.60939,318.75664,588.99628,316.68125Z"/><path class="cls-13" d="M562.468,336.70852c-2.56216-.89428-6.10234.52319-8.55971,1.98688a9.5259,9.5259,0,0,0-2.82588,2.22955,74.25923,74.25923,0,0,0-1.78884,7.64533c2.54643-1.04932,6.13429-2.80278,9.99972-4.17375a36.74646,36.74646,0,0,1,6.40527-1.71083c.14872-.27838.30149-.5452.46213-.79576C565.64423,339.71974,564.59116,337.44969,562.468,336.70852Z"/><path class="cls-10" d="M420.62184,401.58831c6.52291,1.38066,22.13613,9.90511,31.30531,15.0211a52.41155,52.41155,0,0,1-1.41493-10.21461c-.20321-3.88519-3.24064,1.06847-4.05487-.747-.814-1.81548,6.152-7.09683,6.152-7.09683-5.10179.05834-3.03825-4.42-3.47929-7.97716-10.21619-1.49528-31.22194-2.86944-52.48546,6.90378C406.49706,395.457,414.15487,400.21955,420.62184,401.58831Z"/><path class="cls-13" d="M591.68645,369.85068c-2.74713-3.15116-9.57593-19.654-15.09559-24.738-2.75735-2.53994-6.428-3.0278-10.27725-2.51573-.2047.02722-.40936.05605-.61506.08879a36.74646,36.74646,0,0,0-6.40527,1.71083c-3.86543,1.371-7.45329,3.12443-9.99972,4.17375-.31787.131-.62537.2548-.90937.36158-6.14216,2.3098-19.70294-1.58219-24.299-1.49039-3.00839.06008-11.73477,9.46174-17.59794,16.39277,4.30732-2.46772,10.01267-7.93854,10.01267-7.93854l-11.40331,15.75994,11.48623-1.55937c12.48764-4.18895,4.311-11.55331,4.311-11.55331,27.56913,3.4139,21.42507,21.17653,21.42507,21.17653,10.36476,11.38553,3.08345,33.76276-3.873,35.98442-6.9562,2.22156-4.54744,4.73287-8.87424,7.95587-4.32682,3.22294-9.21332,6.05565-9.21332,6.05565l3.13823,3.85171c-6.10333-1.64494-7.02748,1.74008-13.577,4.44674a40.63827,40.63827,0,0,1-12.6027,2.6755c-15.07551,1.16171-20.96477-7.9506-22.82974-12.02721a14.04179,14.04179,0,0,1-.73378-1.90388,6.09786,6.09786,0,0,0-.82516,2.11633c-1.13251,6.06305,6.847,13.82812,14.27487,19.338,9.23314,6.849,13.8544,5.53887,13.8544,5.53887,5.15952,12.18314,12.86112,15.74981,19.16874,15.97677a18.07676,18.07676,0,0,0,7.48118-1.31141c6.10043-2.54507,11.67333-20.28972,11.67333-20.28972l7.016-1.49468c7.01622-1.49467,15.55391-10.78633,15.6301-14.44133.0762-3.65493,15.06755-18.95331,20.62223-24.55688,5.55444-5.60354,10.34468-12.77,7.91786-22.29C588.13983,375.82418,594.43358,373.00189,591.68645,369.85068Z"/><path class="cls-14" d="M542.31888,379.71949s6.14406-17.76263-21.42507-21.17653c0,0,8.17662,7.36436-4.311,11.55331l-11.48623,1.55937,11.40331-15.75994s-5.70535,5.47082-10.01267,7.93854c-1.75383,1.00486-3.27736,1.51447-4.08739.9498,0,0,10.09651-12.09548,10.45323-15.59041,0,0-9.79089,11.06055-15.44029,9.61771,0,0-15.72643-8.46817-30.35273,2.965-.9846.7697-1.38967-3.1349-5.638-2.5019a11.51609,11.51609,0,0,0-3.42183,1.17736c-4.2482,2.13057-.21735,3.9466-3.48758,5.23-5.42659,2.12966-4.75393,8.83482-5.97844,11.78884a4.22143,4.22143,0,0,1-.17274.387c-1.47656,2.71442-1.26088,7.559.36733,11.18991a5.3003,5.3003,0,0,1,.40129,1.52624c.441,3.55718-1.6225,8.0355,3.47929,7.97716,0,0-6.966,5.28135-6.152,7.09683.81423,1.8155,3.85166-3.13816,4.05487.747a52.41155,52.41155,0,0,0,1.41493,10.21461c.994,3.71389,2.6879,6.9596,5.60678,7.15951,5.955.408,16.219,2.98821,16.219,2.98821l.00046.00116a14.04179,14.04179,0,0,0,.73378,1.90388c1.865,4.07661,7.75423,13.18892,22.82974,12.02721a40.63827,40.63827,0,0,0,12.6027-2.6755c6.54948-2.70666,7.47363-6.09168,13.577-4.44674l-3.13823-3.85171s4.8865-2.83271,9.21332-6.05565c4.3268-3.223,1.918-5.73431,8.87424-7.95587C545.40233,413.48225,552.68364,391.105,542.31888,379.71949Z"/><path class="cls-13" d="M347.93081,490.78484c-7.85038,2.34584-17.045-5.50325-13.76163-12.32958-11.28278,3.46253-23.16654-1.47282-31.407-.00244-10.58693,1.88908-9.512,6.55244-9.512,6.55244-5.26164,14.04778,13.72684,18.42783,22.33,21.74788,8.60344,3.32,33.97739,9.47376,38.06951,6.5588,3.43666-2.448,3.11277-21.16644,2.92088-27.105q-.83909-.00755-1.64143-.08581A17.6158,17.6158,0,0,1,347.93081,490.78484Z"/><path class="cls-12" d="M347.93081,490.78484a17.6158,17.6158,0,0,0,6.99834-4.66366c-7.23931-.6993-12.27693-5.49324-15.46-10.00635a24.46625,24.46625,0,0,1-5.3,2.34043C330.88585,485.28159,340.08043,493.13068,347.93081,490.78484Z"/><path class="cls-10" d="M501.05749,453.75146s-4.62126,1.31011-13.8544-5.53887c-7.42783-5.50985-15.40738-13.27492-14.27487-19.338a6.09786,6.09786,0,0,1,.82516-2.11633l-.00046-.00116s-10.264-2.58023-16.219-2.98821c-2.91888-.19991-4.61277-3.44562-5.60678-7.15951-9.16918-5.116-24.7824-13.64044-31.30531-15.0211-6.467-1.36876-14.12478-6.13133-23.97724-4.11075-4.3688.896-9.168,3.12121-14.48852,7.57575-17.31893,14.49988-30.03665,53.42562-47.06066,62.775a34.56326,34.56326,0,0,0,2.741,5.75039c.47728.81382,1.0215,1.66927,1.63275,2.53613,3.18308,4.51311,8.2207,9.30705,15.46,10.00635q.80248.0776,1.64143.08581a20.6653,20.6653,0,0,0,3.83813-.31894s29.13767-40.47912,39.79-49.54436c1.71791-1.462,2.95684-2.10995,3.51333-1.63612,1.88785,1.60725,14.8999,13.62059,30.55137,25.62555,17.573,13.4786,38.474,26.94654,50.69953,25.66389,21.29071-2.23382,25.44229-2.45,35.26329-16.26878C513.91861,469.50127,506.217,465.9346,501.05749,453.75146Z"/><path class="cls-10" d="M403.712,434.70757c-.55649-.47383-1.79542.17417-3.51333,1.63612l5.32969,50.71825s3.11952.87407,7.39035,1.70427c6.67268,1.29714,16.15185,2.47983,20.98351.0612a6.98689,6.98689,0,0,0,1.185-.72808l-.82382-27.76621C418.61194,448.32816,405.59989,436.31482,403.712,434.70757Z"/><path class="cls-13" d="M433.80858,499.97987c-8.88911,9.325-23.12842,2.61573-24.08562,2.14912-3.2612,1.82183-7.22228,3.98405-11.33916,6.11394-8.00172,4.13975-17.28584,7.8347-18.46119,10.81957-3.45455,8.77439,11.71958,11.26054,22.71878,7.59856,10.999-3.66186,14.51031,1.05226,28.92032.1803,14.40977-.87187,12.637-1.28385,14.59533-5.27462,1.95808-3.99079-2.32653-7.5959-5.5432-17.4605-1.66648-5.11015-3.519-7.252-4.91914-8.13272l.23988.95663Z"/><path class="cls-12" d="M435.6947,495.97352l-1.79244-7.14611c-4.83166,2.41863-14.31083,1.23594-20.98351-.0612.49339,4.65112.32893,10.91491-3.25013,13.3362l.05434.02658c.9572.46661,15.19651,7.17586,24.08562-2.14912l2.126-3.04972Z"/><path class="cls-11" d="M445.43081,347.75116c2.99344-1.52817,6.7739-.45665,9.40368.6957-1.144-7.1119-4.39227-26.34042-6.63542-30.0778-2.76371-4.60481-6.67933-3.42061-7.33442-5.7313-.65486-2.31073-5.64536-5.78989-7.19166-3.57191s.5535,7.184-.11017,7.54518c-.66391.36119-4.97392-2.02558-5.47873,1.94862-.50457,3.97416,1.15108,1.00837-1.47092,5.36035s.52811,8.40232,2.29207,11.48618c1.234,2.157,9.49194,10.41891,14.34694,15.19286A3.95247,3.95247,0,0,1,445.43081,347.75116Z"/><path class="cls-11" d="M457.99185,350.12227a22.88345,22.88345,0,0,0-3.15736-1.67541c-2.62978-1.15235-6.41024-2.22387-9.40368-.6957a3.95247,3.95247,0,0,0-2.17863,2.84788c-.75456,3.55023,1.94724,8.78924,1.36176,11.62062-.44573,2.1552,1.057,9.4819,2.43169,15.38606,1.2245-2.954.55184-9.65917,5.97843-11.78883,3.27024-1.28337-.76061-3.0994,3.48759-5.23a11.51586,11.51586,0,0,1,3.42183-1.17737C459.1199,355.26835,457.99185,350.12227,457.99185,350.12227Z"/><path class="cls-11" d="M564.82506,342.732c-.04432-.23308-.09615-.46935-.15294-.707-.16063.25056-.3134.51738-.46212.79576C564.4157,342.78807,564.62036,342.75923,564.82506,342.732Z"/><path class="cls-11" d="M587.50773,316.81635c-.57832-1.95828-3.35413.85765-6.14217,2.30973-2.53163,1.31854-6.12582,3.76342-6.12582,3.76342s9.86552-10.01411,9.0171-12.04757c-.84817-2.03345-12.98245,8.871-12.98245,8.871s6.32771-6.71255,7.15154-10.25816c.82406-3.54565-4.89854,1.11686-4.89854,1.11686-7.84862,7.71217-13.15919,10.60182-13.90707,10.49248-.74787-.10928,4.32846-9.75436,1.65647-9.7631-2.67174-.00878-12.61346,13.66026-10.02648,19.99588a14.99492,14.99492,0,0,1,1.16942,7.5336c2.45736-1.46369,5.99755-2.88116,8.55971-1.98688,2.12317.74117,3.17624,3.01122,3.69268,5.18142,1.61835-2.5244,3.96075-3.843,9.39832-8.00282,6.62158-5.06564,8.47832-4.18313,11.07517-7.31686,2.54844-3.07556-6.55862.60547-6.89714.743l.00006-.0038C578.57346,327.18633,588.12084,318.89174,587.50773,316.81635Z"/><path class="cls-11" d="M560.97944,336.84362c-2.56216-.89428-6.10235.52319-8.55971,1.98688a9.52616,9.52616,0,0,0-2.82589,2.22955,74.26537,74.26537,0,0,0-1.78884,7.64533c2.54644-1.04932,6.1343-2.80277,9.99972-4.17375A36.74657,36.74657,0,0,1,564.21,342.8208c.14872-.27838.30149-.5452.46212-.79576C564.15568,339.85484,563.10261,337.58479,560.97944,336.84362Z"/><path class="cls-11" d="M419.13329,401.72341c6.5229,1.38066,22.13613,9.90511,31.3053,15.0211a52.41313,52.41313,0,0,1-1.41493-10.2146c-.20321-3.88519-3.24063,1.06846-4.05487-.747-.814-1.81548,6.152-7.09683,6.152-7.09683-5.10179.05834-3.03825-4.42-3.47929-7.97716-10.21619-1.49527-31.22194-2.86944-52.48546,6.90378C405.00851,395.59208,412.66632,400.35465,419.13329,401.72341Z"/><path class="cls-15" d="M590.19789,369.98578c-2.74712-3.15116-9.57593-19.654-15.09558-24.738-2.75735-2.53994-6.428-3.02781-10.27725-2.51574-.2047.02722-.40936.05606-.61506.08879a36.74657,36.74657,0,0,0-6.40528,1.71083c-3.86542,1.371-7.45328,3.12443-9.99972,4.17375-.31787.131-.62536.2548-.90936.36159-6.14216,2.30979-19.70294-1.5822-24.29906-1.4904-3.00839.06009-11.73477,9.46174-17.59793,16.39277,4.30732-2.46772,10.01267-7.93853,10.01267-7.93853L503.608,371.79074l11.48623-1.55937c12.48763-4.189,4.311-11.55331,4.311-11.55331,27.56914,3.4139,21.42508,21.17653,21.42508,21.17653,10.36476,11.38553,3.08345,33.76276-3.873,35.98442-6.9562,2.22156-4.54744,4.73287-8.87425,7.95587-4.32682,3.22294-9.21331,6.05565-9.21331,6.05565l3.13823,3.85171c-6.10333-1.64494-7.02749,1.74008-13.577,4.44674a40.63819,40.63819,0,0,1-12.60269,2.6755c-15.07551,1.16171-20.96477-7.9506-22.82974-12.02721a14.0412,14.0412,0,0,1-.73378-1.90388,6.09786,6.09786,0,0,0-.82516,2.11633c-1.13251,6.063,6.847,13.82813,14.27487,19.338,9.23313,6.849,13.8544,5.53887,13.8544,5.53887,5.15952,12.18314,12.86112,15.74981,19.16874,15.97677a18.0768,18.0768,0,0,0,7.48118-1.3114c6.10042-2.54508,11.67333-20.28973,11.67333-20.28973l7.016-1.49468c7.01622-1.49466,15.55391-10.78633,15.6301-14.44132.0762-3.65494,15.06754-18.95332,20.62223-24.55689,5.55444-5.60354,10.34467-12.77,7.91786-22.29C586.65128,375.95929,592.945,373.137,590.19789,369.98578Z"/><path class="cls-15" d="M540.83033,379.85459s6.14406-17.76263-21.42508-21.17653c0,0,8.17662,7.36436-4.311,11.55331L503.608,371.79074l11.40331-15.75993s-5.70535,5.47081-10.01267,7.93853c-1.75384,1.00486-3.27736,1.51447-4.08739.9498,0,0,10.09651-12.09547,10.45323-15.59041,0,0-9.79089,11.06055-15.44029,9.61771,0,0-15.72643-8.46817-30.35273,2.965-.9846.7697-1.38967-3.1349-5.638-2.5019a11.51586,11.51586,0,0,0-3.42183,1.17737c-4.2482,2.13056-.21735,3.94659-3.48759,5.23-5.42659,2.12966-4.75393,8.83481-5.97843,11.78883a4.22143,4.22143,0,0,1-.17274.387c-1.47656,2.71442-1.26088,7.559.36733,11.18991a5.3003,5.3003,0,0,1,.40129,1.52624c.441,3.55719-1.6225,8.0355,3.47929,7.97716,0,0-6.966,5.28135-6.152,7.09683.81424,1.8155,3.85166-3.13815,4.05487.747a52.41313,52.41313,0,0,0,1.41493,10.2146c.994,3.71389,2.68791,6.9596,5.60679,7.15952,5.955.408,16.219,2.9882,16.219,2.9882l.00046.00116a14.0412,14.0412,0,0,0,.73378,1.90388c1.865,4.07661,7.75423,13.18892,22.82974,12.02721A40.63819,40.63819,0,0,0,508.431,438.149c6.54948-2.70666,7.47364-6.09168,13.577-4.44674l-3.13823-3.85171s4.88649-2.83271,9.21331-6.05565c4.32681-3.223,1.918-5.73431,8.87425-7.95587C543.91378,413.61735,551.19509,391.24012,540.83033,379.85459Z"/><path class="cls-11" d="M346.44226,490.92c-7.85038,2.34583-17.045-5.50326-13.76163-12.32959-11.28279,3.46253-23.16654-1.47281-31.407-.00243-10.58693,1.88907-9.512,6.55243-9.512,6.55243-5.26164,14.04778,13.72684,18.42783,22.33,21.74788,8.60344,3.32,33.97739,9.47376,38.0695,6.5588,3.43666-2.448,3.11278-21.16644,2.92089-27.105q-.83908-.00754-1.64143-.0858A17.616,17.616,0,0,1,346.44226,490.92Z"/><path class="cls-11" d="M346.44226,490.92a17.616,17.616,0,0,0,6.99834-4.66366c-7.23931-.6993-12.27693-5.49325-15.46-10.00636a24.46618,24.46618,0,0,1-5.29995,2.34043C329.39729,485.41669,338.59188,493.26578,346.44226,490.92Z"/><path class="cls-11" d="M499.56894,453.88656s-4.62127,1.31011-13.8544-5.53887c-7.42784-5.50984-15.40738-13.27492-14.27487-19.338a6.09786,6.09786,0,0,1,.82516-2.11633l-.00046-.00116s-10.264-2.58023-16.219-2.9882c-2.91888-.19992-4.61278-3.44563-5.60679-7.15952-9.16917-5.116-24.7824-13.64044-31.3053-15.0211-6.467-1.36876-14.12478-6.13133-23.97724-4.11075-4.3688.896-9.168,3.12121-14.48853,7.57576-17.31892,14.49988-30.03664,53.42562-47.06065,62.775a34.56363,34.56363,0,0,0,2.741,5.75039c.47728.81382,1.02151,1.66927,1.63275,2.53613,3.18309,4.51311,8.22071,9.30706,15.46,10.00636q.80247.07758,1.64143.0858a20.66594,20.66594,0,0,0,3.83812-.31893s29.13768-40.47912,39.79-49.54437c1.7179-1.462,2.95684-2.10994,3.51332-1.63612,1.88786,1.60725,14.89991,13.62059,30.55138,25.62555,17.573,13.4786,38.474,26.94655,50.69953,25.66389,21.29071-2.23382,25.44229-2.45,35.26329-16.26878C512.43006,469.63637,504.72846,466.0697,499.56894,453.88656Z"/><path class="cls-11" d="M402.22348,434.84267c-.55648-.47382-1.79542.17417-3.51332,1.63612l5.32968,50.71826s3.11953.87406,7.39036,1.70426c6.67268,1.29714,16.15184,2.47983,20.98351.0612a6.98749,6.98749,0,0,0,1.185-.72807l-.82382-27.76622C417.12339,448.46326,404.11134,436.44992,402.22348,434.84267Z"/><path class="cls-11" d="M432.32,500.115c-8.8891,9.325-23.12841,2.61573-24.08561,2.14912-3.26121,1.82183-7.22228,3.984-11.33916,6.11394-8.00172,4.13975-17.28584,7.8347-18.4612,10.81957-3.45454,8.77439,11.71958,11.26054,22.71879,7.59857,10.999-3.66187,14.51031,1.05225,28.92032.18029,14.40977-.87187,12.637-1.28385,14.59532-5.27462,1.95809-3.99078-2.32652-7.5959-5.54319-17.46049-1.66648-5.11015-3.519-7.252-4.91914-8.13273l.23988.95663Z"/><path class="cls-11" d="M434.20615,496.10862l-1.79244-7.14611c-4.83167,2.41863-14.31083,1.23594-20.98351-.0612.49339,4.65112.32892,10.91492-3.25013,13.33621l.05434.02657c.9572.46661,15.19651,7.17586,24.08561-2.14912l2.126-3.04972Z"/><path class="cls-15" d="M465.57147,361.91146s-.22651,29.52109,9.90152,40.64666"/><path class="cls-13" d="M442.527,313.77147c1.01664,1.106-8.42878-11.82258-13.28032-18.44489a9.80485,9.80485,0,0,0-3.55564-3.07784l1.43755,3.95332,7.95538,11.75909S437.75728,308.58235,442.527,313.77147Z"/><polygon class="cls-13" points="441.228 316.749 456.796 341.426 459.768 339.615 440.088 310.363 441.228 316.749"/><path class="cls-11" d="M441.17047,319.50459c-.15826-.88694,1.11579-6.05625-1.03792-7.86838"/><path class="cls-11" d="M448.59437,326.23351c-1.26677-1.9704-6.9218-11.14343-7.72972-13.59575"/><path class="cls-15" d="M518.86978,429.85053s-9.12823,10.72285-22.79475-5.69949"/><path class="cls-15" d="M499.56894,453.88656s11.68735.05442,14.04789-2.97829"/><path class="cls-15" d="M537.89219,448.2622s-7.29276,5.129-13.68019,5.108"/><path class="cls-15" d="M442.36278,511.7903s1.05374,5.9055-9.57175,4.89978-12.93586,2.3082-23.82272,3.09012-25.78821,7.91848-30.53426-.5826"/><path class="cls-15" d="M354.21526,504.01526s-5.54737.812-12.77894,1.10326c-8.76587.35311-20.00639-.0588-26.84087-3.60926-12.47271-6.47947-20.83419-9.02268-22.83385-16.3689"/><rect class="cls-1" width="610.64867" height="545.15755"/></g></svg>