<?xml version="1.0" encoding="UTF-8"?><svg id="Layer_3" xmlns="http://www.w3.org/2000/svg" xmlns:xlink="http://www.w3.org/1999/xlink" viewBox="0 0 841.88976 467.71654"><defs><style>.cls-1,.cls-2{fill:none;}.cls-3{clip-path:url(#clippath);}.cls-4{fill:#eab08a;}.cls-5{fill:#f6d17d;}.cls-6{fill:#fff;}.cls-7,.cls-8{fill:#989a9c;}.cls-9{fill:#98a09d;}.cls-10{fill:#b8653a;}.cls-11{fill:#90bcd6;}.cls-12{fill:#cf8b53;}.cls-13{fill:#b1b2a9;}.cls-14{fill:#ccc8c0;}.cls-15{fill:#ddddde;}.cls-16{fill:#4890ba;}.cls-17,.cls-18{fill:#54565a;}.cls-19{fill:#76767b;}.cls-20{fill:url(#New_Pattern_Swatch_2);}.cls-21{clip-path:url(#clippath-1);}.cls-8,.cls-18,.cls-2{stroke:#54565a;stroke-miterlimit:10;}.cls-22{fill:url(#New_Pattern_Swatch_2-2);}.cls-23{fill:url(#New_Pattern_Swatch_2-3);}.cls-24{fill:url(#New_Pattern_Swatch_2-4);}.cls-25{fill:url(#New_Pattern_Swatch_2-8);}.cls-26{fill:url(#New_Pattern_Swatch_2-7);}.cls-27{fill:url(#New_Pattern_Swatch_2-6);}.cls-28{fill:url(#New_Pattern_Swatch_2-5);}.cls-29{fill:url(#New_Pattern_Swatch_2-9);}</style><clipPath id="clippath"><rect class="cls-16" width="841.88976" height="467.71654"/></clipPath><clipPath id="clippath-1"><rect class="cls-1" x=".0001" y="0" width="200" height="199.99999"/></clipPath><pattern id="New_Pattern_Swatch_2" x="0" y="0" width="199.99999" height="199.99999" patternTransform="translate(-7307.41129 -6821.60574) scale(.1485)" patternUnits="userSpaceOnUse" viewBox="0 0 199.99999 199.99999"><g><rect class="cls-1" y="0" width="199.99999" height="199.99999"/><g class="cls-21"><rect class="cls-13" x=".0001" y="0" width="200" height="199.99999"/><path class="cls-9" d="m128.0282,84.346c-3.4405,6.3627-5.0645,13.5148-7.1433,20.443-2.0788,6.9281-4.7795,13.9294-9.8461,19.0918-4.9663,5.0601-11.7479,7.8851-18.4835,10.0989s-13.6975,3.9785-19.8822,7.4454c-6.1847,3.4669-11.6502,9.0118-13.0306,15.9662-.6054,3.0505-.3556,6.368,1.247,9.0333,1.6025,2.6653,4.7121,4.5182,7.7957,4.114,4.6698-.6121,7.2474-5.5133,10.235-9.1542,2.6674-3.2508,6.3625-5.8781,10.5428-6.3355,4.1802-.4574,8.7726,1.6969,10.3052,5.6129,1.0107,2.5827.7035,5.7066,2.4153,7.8888,2.6102,3.3275,7.8122,2.271,11.8122.8977,3.1084-1.0672,6.5882-2.4833,7.7171-5.5698,1.2136-3.3176-.8873-6.8458-1.3571-10.347-.8675-6.4661,4.4265-12.7015,10.7582-14.2737,6.3318-1.5723,13.1372.761,18.3215,4.7216,3.6589,2.7953,6.7529,6.4072,10.8742,8.4605,4.1214,2.0532,9.9172,1.9404,12.505-1.8681,2.3166-3.4094.9888-8.2338-1.6651-11.3877-2.6539-3.154-6.366-5.1889-9.5994-7.7455-3.2333-2.5565-6.1876-6.077-6.2285-10.1988-.0433-4.3594,3.1061-7.9862,5.7401-11.4602,4.1735-5.5043,7.4468-11.6895,9.6507-18.2362,1.3169-3.9117,2.2448-8.2211.8885-12.1193-1.7258-4.9599-6.8684-8.0901-12.0514-8.9365-12.774-2.0862-25.2489,2.2588-31.5213,13.8584Z"/><path class="cls-9" d="m248.40269,52.1073c-2.5809,2.30989-4.013,5.59889-5.5228,8.7162-4.2012,8.6744-10.0115,17.1855-18.75079,21.2501-8.91781,4.1476-19.48981,3.0322-28.66261,6.5805-4.5349,1.7542-8.85039,4.9333-10.41339,9.5377-1.563,4.6043.67539,10.6008,5.37909,11.8328,3.1156.816,6.3817-.5218,9.1508-2.1664,2.7692-1.6446,5.4188-3.6597,8.5557-4.3899,3.1368-.7303,7.0121.3156,8.2458,3.2907.8994,2.1692.1673,4.6229-.3699,6.9088-1.7082,7.2679-1.2993,15.0202,1.1639,22.068,1.653,4.7295,4.9972,9.6691,9.9909,10.0723,4.0132.3241,7.8324-2.7049,9.12371-6.5185,1.29119-3.8136.361-8.1312-1.74421-11.5633-1.8199-2.9669-4.58-5.7249-4.5577-9.2055.0272-4.2499,4.3847-7.3258,8.5921-7.9257,4.2074-.5998,8.4573.4899,12.7053.6193,4.2479.1294,9.0371-1.0686,11.15851-4.7512,2.40879-4.1816.55389-10.1334,3.70909-13.7849,2.0573-2.3809,5.5168-2.8663,8.6592-3.0307,4.975-.2602,9.9711-.1162,14.9229.4301,3.9932.4407,8.0823,1.1372,11.9807.166s7.5963-4.1811,7.608-8.1986c.0116-3.9536-3.5795-7.1761-7.42089-8.1116-3.84141-.9355-7.86711-.1274-11.73711.6815-5.9208,1.2377-11.8417,2.4754-17.7626,3.7131-2.2867.478-4.6837.9531-6.928.3044-2.24429-.6487-4.235-2.8196-3.8331-5.1209.5183-2.9673,4.1762-4.006,7.1586-4.4289,5.7355-.8134,11.4711-1.6267,17.2066-2.4401,4.6904-.6651,11.2698-3.2472,8.1781-9.1135-2.0837-3.9537-7.1821-5.9151-11.3188-6.3113-9.9601-.9539-26.0536-6.6403-34.4671.8895Z"/><path class="cls-14" d="m231.08599,125.6978c-9.5775,2.3503-20.02889,3.8409-27.2448,10.5626-2.02409,1.8855-3.77,4.9773-2.2209,7.2691,1.3529,2.0016,4.4732,2.1134,5.8814,4.0764,1.9796,2.7594-.8087,6.3694-3.3805,8.5872-4.59909,3.9662-9.1983,7.9323-13.7975,11.8985-3.4519,2.9768-7.1938,6.5592-7.1604,11.1173.0297,4.0616,3.4194,7.645,7.3789,8.5504,3.9595.9053,8.2148-.5518,11.314-3.1771,2.579-2.1846,4.437-5.082,6.7005-7.5921,2.2635-2.51,5.2038-4.7406,8.5812-4.8688,6.5274-.2479,10.4948,6.8196,15.6015,10.8926,4.1912,3.3429,10.14571,4.7739,15.0822,2.683,4.93651-2.0908,8.1366-8.1552,6.1911-13.1508-2.64159-6.7832-12.3244-8.5155-15.1962-15.2045-2.574-5.9956,1.8755-12.9974,7.6034-16.122,5.7279-3.1247,12.4591-3.6593,18.7518-5.3839s12.8303-5.3557,14.6971-11.6077c1.0306-3.4519.5218-7.3909,2.3979-10.4663,2.13-3.4915,6.6739-4.6983,10.7629-4.614,7.1278.1469,13.8131,3.2131,20.5232,5.6217,6.71,2.4087,14.1695,4.1865,20.8754,1.7663,6.70591-2.4203,11.6887-10.5906,8.3866-16.909-2.4779-4.7414-8.47-6.609-13.8088-6.2668-5.33889.3421-10.4065,2.3862-15.648,3.4573-5.2415,1.071-11.17789,1.0025-15.3496-2.3468-2.3632-1.8974-3.8957-4.6438-6.111-6.712-7.3119-6.8262-22.7838-4.4871-30.3921,1.3209-8.7203,6.6568-4.0639,20.5401-12.523,28.2263-4.9137,4.4647-11.5521,6.8353-17.8963,8.3922Z"/><path class="cls-9" d="m48.4028,52.1073c-2.5809,2.30989-4.013,5.59889-5.5228,8.7162-4.2012,8.6744-10.0116,17.1855-18.7509,21.2501-8.9178,4.1476-19.4898,3.0322-28.6626,6.5805-4.53488,1.7542-8.85038,4.9333-10.41333,9.5377-1.56296,4.6043.67539,10.6008,5.37912,11.8328,3.11561.816,6.38161-.5218,9.15081-2.1664,2.7692-1.6446,5.4188-3.6597,8.5556-4.3899,3.1369-.7303,7.0122.3156,8.2458,3.2907.8995,2.1692.1674,4.6229-.3699,6.9088-1.7081,7.2679-1.2992,15.0202,1.164,22.068,1.6529,4.7295,4.9971,9.6691,9.9908,10.0723,4.0132.3241,7.8325-2.7049,9.1237-6.5185,1.2913-3.8136.3611-8.1312-1.7441-11.5633-1.8199-2.9669-4.5801-5.7249-4.5578-9.2055.0273-4.2499,4.3848-7.3258,8.5922-7.9257,4.2074-.5998,8.4572.4899,12.7052.6193s9.0371-1.0686,11.1585-4.7512c2.4088-4.1816.554-10.1334,3.7091-13.7849,2.0574-2.3809,5.5168-2.8663,8.6592-3.0307,4.975-.2602,9.9712-.1162,14.9229.4301,3.9933.4407,8.0824,1.1372,11.9808.166,3.8983-.9712,7.5962-4.1811,7.608-8.1986.0115-3.9536-3.5795-7.1761-7.4209-8.1116s-7.8671-.1274-11.7371.6815c-5.9209,1.2377-11.8417,2.4754-17.7626,3.7131-2.2867.478-4.6838.9531-6.9281.3044-2.2443-.6487-4.235-2.8196-3.833-5.1209.5183-2.9673,4.1762-4.006,7.1585-4.4289,5.7356-.8134,11.4711-1.6267,17.2067-2.4401,4.6904-.6651,11.2698-3.2472,8.1781-9.1135-2.0837-3.9537-7.1821-5.9151-11.3188-6.3113-9.9602-.9539-26.0537-6.6403-34.4671.8895Z"/><path class="cls-14" d="m31.086,125.6978c-9.5774,2.3503-20.0289,3.8409-27.2447,10.5626-2.0242,1.8855-3.77,4.9773-2.2209,7.2691,1.3529,2.0016,4.4732,2.1134,5.8814,4.0764,1.9795,2.7594-.8087,6.3694-3.3805,8.5872-4.5992,3.9662-9.1983,7.9323-13.79751,11.8985-3.45191,2.9768-7.19385,6.5592-7.16047,11.1173.02975,4.0616,3.41944,7.645,7.37896,8.5504,3.95952.9053,8.21472-.5518,11.31402-3.1771,2.579-2.1846,4.437-5.082,6.7005-7.5921,2.2635-2.51,5.2037-4.7406,8.5812-4.8688,6.5273-.2479,10.4948,6.8196,15.6014,10.8926,4.1912,3.3429,10.1458,4.7739,15.0823,2.683,4.9365-2.0908,8.1366-8.1552,6.1911-13.1508-2.6416-6.7832-12.3245-8.5155-15.1962-15.2045-2.5741-5.9956,1.8755-12.9974,7.6034-16.122,5.7279-3.1247,12.4591-3.6593,18.7518-5.3839s12.8303-5.3557,14.697-11.6077c1.0307-3.4519.5218-7.3909,2.398-10.4663,2.13-3.4915,6.6739-4.6983,10.7629-4.614,7.1277.1469,13.8131,3.2131,20.5231,5.6217,6.7101,2.4087,14.1696,4.1865,20.8755,1.7663,6.7059-2.4203,11.6887-10.5906,8.3866-16.909-2.478-4.7414-8.47-6.609-13.8089-6.2668-5.3388.3421-10.4064,2.3862-15.6479,3.4573-5.2415,1.071-11.178,1.0025-15.3496-2.3468-2.3632-1.8974-3.8957-4.6438-6.111-6.712-7.3119-6.8262-22.7838-4.4871-30.3922,1.3209-8.7202,6.6568-4.0638,20.5401-12.523,28.2263-4.9136,4.4647-11.552,6.8353-17.8963,8.3922Z"/><path class="cls-14" d="m190.61049,192.74039c-3.7532,5.8688-1.6986,15.2269,4.892,17.4837,3.7949,1.2994,7.937.1387,11.8062-.919s8.13741-1.9803,11.7683-.2756c3.6309,1.7047,5.5257,7.2339,2.44311,9.8004-1.94781,1.6217-4.77341,1.3402-7.30321,1.4957-2.5297.1556-5.5507,1.4428-5.6696,3.9746-.0773,1.6444,1.2393,3.1088,2.7817,3.6841s3.2542.4373,4.8782.1678c5.3248-.8839,10.3442-3.0754,15.606-4.2788s11.1622-1.2936,15.6475,1.7092c4.4853,3.0027,6.537,9.9076,3.0225,14.0044-2.68209,3.1264-7.4292,3.5644-11.4484,2.6618s-7.7352-2.8783-11.75369-3.7841c-4.01841-.9059-8.76471-.4761-11.45431,2.6439-1.7219,1.9975-2.3135,4.762-3.95369,6.8271-2.49951,3.147-6.81241,4.0296-10.71841,4.9755-3.9059.9458-8.2089,2.554-9.7719,6.2564-1.8756,4.44274,1.605,9.78316,6.1891,11.28046s9.6414.04297,13.8913-2.2362c4.2498-2.27917,8.041-5.36399,12.3757-7.47726,9.3923-4.579,20.4381-4.1858,30.73321-2.3988,10.295,1.7871,20.41559,4.86714,30.85329,5.35344,10.43771.48629,21.6685-2.07067,28.7236-9.77824,1.5686-1.7137,2.9273-3.7165,3.3797-5.9953.45241-2.2787-.1543-4.8676-1.9497-6.342-1.9142-1.5719-4.6238-1.574-7.1007-1.5917-7.1555-.051-14.30519-.875-21.2847-2.4531-3.7642-.8511-7.5824-1.9717-10.6312-4.3378s-5.19729-6.2347-4.545-10.0383c.344-2.0057,1.426-4.0228.82771-5.9678-.53681-1.7451-2.25071-2.8098-3.83471-3.7179-13.1015-7.5104-26.0741-16.2587-40.0435-22.0875-11.3395-4.7315-29.7656-12.0723-38.3564,1.3609Z"/><path class="cls-14" d="m-9.38945,192.74039c-3.75315,5.8688-1.69855,15.2269,4.89205,17.4837,3.7948,1.2994,7.9369.1387,11.8061-.919s8.1375-1.9803,11.7684-.2756,5.5257,7.2339,2.443,9.8004c-1.9478,1.6217-4.7734,1.3402-7.3031,1.4957-2.5298.1556-5.5507,1.4428-5.6697,3.9746-.0772,1.6444,1.2393,3.1088,2.7818,3.6841,1.5424.5753,3.2542.4373,4.8782.1678,5.3248-.8839,10.3442-3.0754,15.606-4.2788s11.1621-1.2936,15.6475,1.7092c4.4853,3.0027,6.5369,9.9076,3.0225,14.0044-2.6821,3.1264-7.4293,3.5644-11.4485,2.6618-4.0191-.9026-7.7352-2.8783-11.7536-3.7841-4.0184-.9059-8.7647-.4761-11.4543,2.6439-1.722,1.9975-2.3135,4.762-3.9537,6.8271-2.4995,3.147-6.8124,4.0296-10.7184,4.9755-3.9059.9458-8.20892,2.554-9.77196,6.2564-1.87559,4.44274,1.60498,9.78316,6.18906,11.28046,4.5841,1.4973,9.6415.04297,13.8913-2.2362,4.2499-2.27917,8.0411-5.36399,12.3758-7.47726,9.3923-4.579,20.438-4.1858,30.7331-2.3988,10.2951,1.7871,20.4156,4.86714,30.8533,5.35344,10.4377.48629,21.6685-2.07067,28.7237-9.77824,1.5686-1.7137,2.9273-3.7165,3.3796-5.9953.4524-2.2787-.1543-4.8676-1.9496-6.342-1.9142-1.5719-4.6239-1.574-7.1007-1.5917-7.1555-.051-14.3052-.875-21.2847-2.4531-3.7642-.8511-7.5824-1.9717-10.6312-4.3378s-5.1974-6.2347-4.545-10.0383c.344-2.0057,1.4259-4.0228.8277-5.9678-.5368-1.7451-2.2507-2.8098-3.8347-3.7179-13.1015-7.5104-26.0742-16.2587-40.0435-22.0875-11.3396-4.7315-29.7657-12.0723-38.35645,1.3609Z"/><path class="cls-9" d="m137.2225,183.13569c-2.7963-2.0544-6.8858-1.1861-9.679.8725-2.7931,2.0586-4.7032,5.064-6.9585,7.7009-7.3239,8.5631-18.8947,13.3019-30.1211,12.3361-4.5524-.3917-9.016-1.6575-13.584-1.7598s-9.5276,1.2263-12.2314,4.9095c-2.829,3.8538-2.3249,9.6045.6998,13.3067,3.0246,3.7022,8.1372,5.3657,12.8823,4.7836,3.8315-.4699,7.3681-2.2329,11.0742-3.3127s7.995-1.3839,11.1611.8245c3.4327,2.3943,4.5061,6.9796,4.6963,11.1606.1903,4.1809-.2093,8.5208,1.3232,12.4154,1.9008,4.8305,6.8839,8.2788,12.0744,8.3555,5.1904.0768,10.2732-3.2228,12.316-7.9949,2.3351-5.455.9976-12.3928,4.8206-16.931,3.0987-3.6785,8.4834-4.3503,13.2873-4.1136s9.7759,1.0913,14.3134-.5037c4.5376-1.5951,8.2561-6.8827,6.1135-11.1888-1.1567-2.3244-3.7056-3.6993-6.2686-4.1144-2.5629-.415-5.1794-.016-7.7466.3719-6.5031.9828-13.0168,1.896-19.5396,2.7393-2.3948.3096-5.0553.5468-7.0062-.8763-2.5446-1.8562-2.5862-5.9257-.7352-8.4741,1.8509-2.5484,5.023-3.7993,8.1248-4.3468,4.2618-.7522,8.752-.4403,12.7908-1.9951s7.5198-6.033,5.8952-10.0443c-1.6397-4.0489-6.9448-4.8074-11.3109-4.9488-2.1208.1749-4.2711.6529-6.3918.8278Z"/><path class="cls-14" d="m190.61049-7.2596c-3.7532,5.8687-1.6986,15.2269,4.892,17.4836,3.7949,1.2994,7.937.1388,11.8062-.9189s8.13741-1.9804,11.7683-.2757c3.6309,1.70479,5.5257,7.2339,2.44311,9.8004-1.94781,1.6217-4.77341,1.3402-7.30321,1.4958-2.5297.1555-5.5507,1.4428-5.6696,3.9745-.0773,1.6444,1.2393,3.1089,2.7817,3.6842s3.2542.4373,4.8782.1677c5.3248-.8839,10.3442-3.0754,15.606-4.27881,5.2618-1.20339,11.1622-1.29359,15.6475,1.70921,4.4853,3.00279,6.537,9.9077,3.0225,14.0044-2.68209,3.1265-7.4292,3.56439-11.4484,2.6618-4.0192-.9026-7.7352-2.8783-11.75369-3.7841-4.01841-.9058-8.76471-.4761-11.45431,2.6439-1.7219,1.9975-2.3135,4.7621-3.95369,6.8272-2.49951,3.147-6.81241,4.02959-10.71841,4.9754-3.9059.9459-8.2089,2.554-9.7719,6.2564-1.8756,4.44279,1.605,9.7832,6.1891,11.2805,4.5841,1.49729,9.6414.043,13.8913-2.2362,4.2498-2.2792,8.041-5.364,12.3757-7.4773,9.3923-4.579,20.4381-4.1858,30.73321-2.3987,10.295,1.787,20.41559,4.8671,30.85329,5.3534,10.43771.4863,21.6685-2.0707,28.7236-9.7783,1.5686-1.7137,2.9273-3.7165,3.3797-5.9952.45241-2.2787-.1543-4.8677-1.9497-6.342-1.9142-1.572-4.6238-1.5741-7.1007-1.5917-7.1555-.0511-14.30519-.8751-21.2847-2.4532-3.7642-.851-7.5824-1.9717-10.6312-4.3378-3.0488-2.366-5.19729-6.2346-4.545-10.0383.344-2.0057,1.426-4.0227.82771-5.9678-.53681-1.7451-2.25071-2.8098-3.83471-3.7179-13.1015-7.5104-26.0741-16.2586-40.0435-22.0874-11.3395-4.7316-29.7656-12.0724-38.3564,1.3609Z"/><path class="cls-14" d="m-9.38945-7.2596c-3.75315,5.8687-1.69855,15.2269,4.89205,17.4836,3.7948,1.2994,7.9369.1388,11.8061-.9189s8.1375-1.9804,11.7684-.2757c3.6309,1.70479,5.5257,7.2339,2.443,9.8004-1.9478,1.6217-4.7734,1.3402-7.3031,1.4958-2.5298.1555-5.5507,1.4428-5.6697,3.9745-.0772,1.6444,1.2393,3.1089,2.7818,3.6842,1.5424.5753,3.2542.4373,4.8782.1677,5.3248-.8839,10.3442-3.0754,15.606-4.27881,5.2618-1.20339,11.1621-1.29359,15.6475,1.70921,4.4853,3.00279,6.5369,9.9077,3.0225,14.0044-2.6821,3.1265-7.4293,3.56439-11.4485,2.6618-4.0191-.9026-7.7352-2.8783-11.7536-3.7841s-8.7647-.4761-11.4543,2.6439c-1.722,1.9975-2.3135,4.7621-3.9537,6.8272-2.4995,3.147-6.8124,4.02959-10.7184,4.9754-3.9059.9459-8.20892,2.554-9.77196,6.2564-1.87559,4.44279,1.60498,9.7832,6.18906,11.2805,4.5841,1.49729,9.6415.043,13.8913-2.2362,4.2499-2.2792,8.0411-5.364,12.3758-7.4773,9.3923-4.579,20.438-4.1858,30.7331-2.3987,10.2951,1.787,20.4156,4.8671,30.8533,5.3534,10.4377.4863,21.6685-2.0707,28.7237-9.7783,1.5686-1.7137,2.9273-3.7165,3.3796-5.9952.4524-2.2787-.1543-4.8677-1.9496-6.342-1.9142-1.572-4.6239-1.5741-7.1007-1.5917-7.1555-.0511-14.3052-.8751-21.2847-2.4532-3.7642-.851-7.5824-1.9717-10.6312-4.3378-3.0488-2.366-5.1974-6.2346-4.545-10.0383.344-2.0057,1.4259-4.0227.8277-5.9678-.5368-1.7451-2.2507-2.8098-3.8347-3.7179C55.909,5.9565,42.9363-2.7917,28.967-8.6205,17.6274-13.3521-.7987-20.6929-9.38945-7.2596Z"/><path class="cls-9" d="m137.2225-16.8644c-2.7963-2.05441-6.8858-1.1861-9.679.8725-2.7931,2.0586-4.7032,5.06409-6.9585,7.701-7.3239,8.56309-18.8947,13.3018-30.1211,12.336-4.5524-.3916-9.016-1.6574-13.584-1.7597s-9.5276,1.2262-12.2314,4.9095c-2.829,3.8538-2.3249,9.6044.6998,13.3066,3.0246,3.7023,8.1372,5.36569,12.8823,4.78369,3.8315-.47,7.3681-2.23289,11.0742-3.31269,3.7061-1.0799,7.995-1.384,11.1611.8244,3.4327,2.3944,4.5061,6.9796,4.6963,11.1606.1903,4.181-.2093,8.5208,1.3232,12.4154,1.9008,4.8305,6.8839,8.2788,12.0744,8.3556,5.1904.07669,10.2732-3.2228,12.316-7.995,2.3351-5.455.9976-12.3928,4.8206-16.931,3.0987-3.6784,8.4834-4.35031,13.2873-4.1136,4.8039.2367,9.7759,1.09129,14.3134-.50371,4.5376-1.595,8.2561-6.88259,6.1135-11.18869-1.1567-2.3245-3.7056-3.6994-6.2686-4.1144-2.5629-.4151-5.1794-.0161-7.7466.3719-6.5031.9828-13.0168,1.8959-19.5396,2.7393-2.3948.3096-5.0553.5467-7.0062-.8763-2.5446-1.8562-2.5862-5.92581-.7352-8.4741,1.8509-2.5484,5.023-3.7993,8.1248-4.3468,4.2618-.7523,8.752-.4403,12.7908-1.9952,4.0388-1.5548,7.5198-6.033,5.8952-10.0442-1.6397-4.0489-6.9448-4.80751-11.3109-4.9489-2.1208.1749-4.2711.6529-6.3918.8278Z"/><path class="cls-14" d="m152.6104,17.9734c-3.535,2.25079-5.7144,7.2129-3.5036,10.773.9659,1.5553,2.5762,2.5886,3.7566,3.9881,3.6136,4.2841,2.324,11.0799-1.1534,15.4752-3.4775,4.3953-8.5989,7.0926-13.2932,10.1544-4.6943,3.0618-9.3364,6.9634-10.8304,12.3652s1.7467,12.3333,7.3371,12.7313c4.4347.3157,8.0403-3.2515,11.4064-6.1559s8.301-5.4344,12.0276-3.0098c2.6301,1.7113,3.4111,5.1755,5.3662,7.6297,2.5097,3.1505,7.2769,4.3593,10.8726,2.544s5.4393-6.6081,3.7552-10.2672c-2.0566-4.4686-8.014-6.1009-10.067-10.5712-1.7807-3.87759.1153-8.59939,3.1747-11.57369,3.0594-2.9742,7.0825-4.6949,10.7972-6.7942,3.7148-2.0992,7.38271-4.8777,8.8065-8.9,2.2177-6.2655-2.0446-13.3374-7.8585-16.558-7.4795-4.1432-22.9187-6.7179-30.594-1.8309Z"/><path class="cls-9" d="m161.0728,164.0154c-4.4759-1.7536-8.064-5.2346-12.3894-7.332-4.3255-2.0974-10.3287-2.3414-13.1908,1.5209-2.3414,3.1598-1.4467,7.8901,1.1423,10.8504,2.589,2.9602,6.4542,4.4684,10.2693,5.4232,3.815.9548,7.7646,1.4739,11.4056,2.9603,4.7098,1.9229,8.8144,5.4272,13.8211,6.3286,6.3249,1.1387,13.19-2.692,15.5422-8.6727,1.82209-4.6325.186-17.5645-6.7635-15.65-3.0307.8349-5.5211,4.2574-8.9921,5.1409-3.5618.9067-7.4091.7763-10.8447-.5696Z"/><path class="cls-14" d="m113.359,158.6725c-2.1312-2.4998-5.6799-4.4273-8.6418-3.0067-4.0962,1.9645-3.4749,7.9831-5.6883,11.9504-3.0736,5.5088-10.8057,5.9008-17.0322,4.8887-6.2265-1.0122-13.2168-2.5646-18.3732,1.0694-5.5446,3.9077-5.3823,13.7321.5171,17.0801,4.6277,2.6264,10.4673,1.0291,15.3141-1.1669,4.8467-2.1961,9.7718-5.0064,15.0805-4.6432,8.1763.5595,15.536,8.5693,23.3286,6.0315,4.8999-1.5958,7.6138-6.8082,11.911-9.6524,4.8861-3.2339,12.3349-3.1285,16.0253-8.1541,3.0193-4.1116,2.5173-7.4764-2.2647-8.2225-4.5973-.7174-10.1539,3.0735-14.7178,3.6135-8.5529,1.0121-10.5752-4.0598-15.4586-9.7878Z"/><path class="cls-14" d="m183.31169,102.1821c-2.0871,2.5055-2.6449,5.9191-2.9635,9.1644-.3185,3.2453-.5088,6.6227-2.0617,9.4901-1.7773,3.2818-5.1731,5.4665-8.7667,6.474s-7.3968.959-11.1174.6651c-3.6525-.2886-8.243-.3255-9.878,2.9535-1.2334,2.4734.1148,5.5135,2.0469,7.4899,4.1451,4.2402,11.1022,5.4076,16.4044,2.7529,3.059-1.5317,6.4043-4.2461,9.4422-2.6728,3.6945,1.9134,2.4646,7.9816,5.4798,10.8485,2.6369,2.5071,7.4779.9573,9.1127-2.2933,1.6348-3.2505.7004-7.2831-1.2365-10.3632-1.0873-1.7291-2.5086-3.3655-2.8089-5.3859-.511-3.4388,2.3164-6.3298,4.217-9.2409,3.261-4.9946,3.7279-11.07,2.125-16.708-1.4307-5.0321-5.52-8.5468-9.9953-3.1743Z"/><path class="cls-9" d="m178.6386,32.08819c-4.0831,1.94581-5.9968,7.46471-3.9947,11.52051,1.7706,3.5868,5.9705,5.8301,6.7913,9.745.7717,3.6809-1.7727,7.1653-2.5759,10.83949-.686,3.13831.0341,6.66781,2.2855,8.9592s6.1002,3.0209,8.8176,1.3078c2.17971-1.37419,3.3061-3.95989,3.7618-6.496.4558-2.53609.367-5.14279.7661-7.68839.4615-2.94361,1.5643-5.7435,2.3172-8.6264.7528-2.8828,1.1449-5.9867.18561-8.8076-1.97011-5.7935-12.22491-13.67461-18.3545-10.75361Z"/></g></g></pattern><pattern id="New_Pattern_Swatch_2-2" patternTransform="translate(-7406.90312 -6820.8171) scale(.1485)" xlink:href="#New_Pattern_Swatch_2"/><pattern id="New_Pattern_Swatch_2-3" patternTransform="translate(-7406.90312 -6820.8171) scale(.1485)" xlink:href="#New_Pattern_Swatch_2"/><pattern id="New_Pattern_Swatch_2-4" patternTransform="translate(-7406.90312 -6820.8171) scale(.1485)" xlink:href="#New_Pattern_Swatch_2"/><pattern id="New_Pattern_Swatch_2-5" patternTransform="translate(-7406.90312 -6820.8171) scale(.1485)" xlink:href="#New_Pattern_Swatch_2"/><pattern id="New_Pattern_Swatch_2-6" patternTransform="translate(-7390.75477 -6822.63758) scale(.1485)" xlink:href="#New_Pattern_Swatch_2"/><pattern id="New_Pattern_Swatch_2-7" patternTransform="translate(-7390.75477 -6822.63758) scale(.1485)" xlink:href="#New_Pattern_Swatch_2"/><pattern id="New_Pattern_Swatch_2-8" patternTransform="translate(-7390.75477 -6822.63758) scale(.1485)" xlink:href="#New_Pattern_Swatch_2"/><pattern id="New_Pattern_Swatch_2-9" patternTransform="translate(-7390.75477 -6822.63758) scale(.1485)" xlink:href="#New_Pattern_Swatch_2"/></defs><g><rect class="cls-16" width="841.88976" height="467.71654"/><g class="cls-3"><rect class="cls-16" width="841.88976" height="467.71654"/></g></g><g><g><path class="cls-6" d="m633.25348,47.55369h-72.17175v18.06573c0,14.82849-12.02087,26.84937-26.84937,26.84937h-208.76697c-14.82861,0-26.84937-12.02087-26.84937-26.84937v-18.06573h-72.17175c-29.17688,0-52.82947,23.65253-52.82947,52.82941v367.33344h512.46802V100.38309c0-29.17688-23.65247-52.82941-52.82935-52.82941Z"/><path class="cls-6" d="m648.12726,15.48862H211.57038c-38.17065,0-69.1142,30.94354-69.1142,69.11426v383.11365h31.15863V100.38309c0-29.17688,23.65259-52.82941,52.82947-52.82941h72.17175v18.06573c0,14.82849,12.02075,26.84937,26.84937,26.84937h208.76697c14.82849,0,26.84937-12.02087,26.84937-26.84937v-18.06573h72.17175c29.17688,0,52.82935,23.65253,52.82935,52.82941v367.33344h31.15869V84.60288c0-38.17072-30.94348-69.11426-69.11426-69.11426Z"/></g><path class="cls-6" d="m680.18568,467.71654V102.94196c0-29.17688-23.65247-52.82941-52.82935-52.82941h-72.17175v18.06573c0,14.82849-12.02087,26.84937-26.84937,26.84937h-208.76697c-14.82861,0-26.84937-12.02087-26.84937-26.84937v-18.06573h-72.17175c-29.17688,0-52.82947,23.65253-52.82947,52.82941v364.77458h512.46802Z"/><g><rect class="cls-2" x="425.95167" y="211.48253" height="512.46802"/><path class="cls-2" d="m629.35633,49.11255h-72.17175v18.06573c0,14.82849-12.02087,26.84937-26.84937,26.84937h-208.76697c-14.82861,0-26.84937-12.02087-26.84937-26.84937v-18.06573h-72.17175c-29.17688,0-52.82947,23.65253-52.82947,52.82941v365.77458h512.46802V101.94196c0-29.17688-23.65247-52.82941-52.82935-52.82941Z"/><path class="cls-18" d="m644.23011,17.04749H207.67322c-38.17065,0-69.1142,30.94354-69.1142,69.11426v381.55479h31.15863V101.94196c0-29.17688,23.65259-52.82941,52.82947-52.82941h72.17175v18.06573c0,14.82849,12.02075,26.84937,26.84937,26.84937h208.76697c14.82849,0,26.84937-12.02087,26.84937-26.84937v-18.06573h72.17175c29.17688,0,52.82935,23.65253,52.82935,52.82941v365.77458h31.15869V86.16174c0-38.17072-30.94348-69.11426-69.11426-69.11426Z"/></g><g><rect class="cls-8" x="341.3987" y="52.23844" width="131.23288" height="16.86233" rx="8.43115" ry="8.43115"/><circle class="cls-8" cx="492.42648" cy="61.03618" r="8.06459"/></g><g><rect class="cls-2" x="340.39869" y="50.23844" width="131.23288" height="16.86233" rx="8.43115" ry="8.43115"/><circle class="cls-2" cx="491.42648" cy="59.03618" r="8.06459"/></g><g><rect class="cls-5" x="205.75981" y="137.32419" width="86.51106" height="86.51106" rx="11.93984" ry="11.93984"/><rect class="cls-15" x="318.66407" y="137.32419" width="86.51106" height="86.51106" rx="11.93984" ry="11.93984"/><rect class="cls-11" x="431.56834" y="137.32419" width="86.51106" height="86.51106" rx="11.93984" ry="11.93984"/><rect class="cls-15" x="544.4726" y="137.32419" width="86.51106" height="86.51106" rx="11.93984" ry="11.93984"/></g><g><rect class="cls-11" x="205.75981" y="254.62732" width="86.51106" height="86.51106" rx="11.93984" ry="11.93984"/><rect class="cls-15" x="318.66407" y="254.62732" width="86.51106" height="86.51106" rx="11.93984" ry="11.93984"/><rect class="cls-15" x="431.56834" y="254.62732" width="86.51106" height="86.51106" rx="11.93984" ry="11.93984"/><rect class="cls-5" x="544.4726" y="254.62732" width="86.51106" height="86.51106" rx="11.93984" ry="11.93984"/></g><g><rect class="cls-11" x="205.75981" y="371.93045" width="86.51106" height="86.51106" rx="11.93984" ry="11.93984"/><rect class="cls-15" x="318.66407" y="371.93045" width="86.51106" height="86.51106" rx="11.93984" ry="11.93984"/><rect class="cls-5" x="431.56834" y="371.93045" width="86.51106" height="86.51106" rx="11.93984" ry="11.93984"/><rect class="cls-11" x="544.4726" y="371.93045" width="86.51106" height="86.51106" rx="11.93984" ry="11.93984"/></g><rect class="cls-11" x="336.40735" y="278.43366" width="58.05382" height="37.19953" rx="6.40789" ry="6.40789"/><circle class="cls-6" cx="365.43426" cy="297.03343" r="13.80892"/><rect class="cls-2" x="334.72704" y="276.75335" width="58.05382" height="37.19953" rx="6.40789" ry="6.40789"/><circle class="cls-2" cx="363.75394" cy="295.35311" r="13.80892"/><g><rect class="cls-6" x="557.36829" y="392.88429" width="62.53299" height="40.06968" rx="5.79928" ry="5.79928"/><path class="cls-6" d="m558.82999,394.60549l25.89221,19.69578c2.51031,1.90955,5.99923,1.86129,8.45575-.11698l24.95246-20.09446"/><line class="cls-6" x1="598.5355" y1="410.07517" x2="615.09889" y2="432.95398"/><line class="cls-6" x1="562.95524" y1="432.95398" x2="579.51864" y2="410.07517"/></g><g><rect class="cls-2" x="558.01771" y="394.83257" width="62.53299" height="40.06968" rx="5.79928" ry="5.79928"/><path class="cls-2" d="m559.47942,396.55377l25.89221,19.69578c2.51031,1.90955,5.99923,1.86129,8.45575-.11698l24.95246-20.09446"/><line class="cls-2" x1="599.18492" y1="412.02344" x2="615.74832" y2="434.90225"/><line class="cls-2" x1="563.60466" y1="434.90225" x2="580.16806" y2="412.02344"/></g><path class="cls-6" d="m280.22173,291.93768c0-9.80105-12.55124-17.74633-28.03402-17.74633s-28.03402,7.94529-28.03402,17.74633,12.55124,17.74633,28.03402,17.74633c4.45107,0,8.6571-.65958,12.39514-1.82818,2.769,4.4075,8.18034,12.94733,8.18034,12.37311,0-.56177,7.45854-24.73129,7.45854-28.29126Z"/><path class="cls-2" d="m279.3637,292.36669c0-9.80105-12.55124-17.74633-28.03402-17.74633s-28.03402,7.94529-28.03402,17.74633,12.55124,17.74633,28.03402,17.74633c4.45107,0,8.6571-.65958,12.39514-1.82818,2.769,4.4075,8.18034,12.94733,8.18034,12.37311,0-.56177,7.45854-24.73129,7.45854-28.29126Z"/><g><path class="cls-5" d="m263.09989,415.42583c2.72238-2.34535,6.4008-3.61124,10.38066-3.09469.88899.11539,1.74969.33005,2.57801.61944.18035-.83709.2807-1.70386.2807-2.59494,0-6.77561-5.49271-12.26836-12.2684-12.26836-5.46672,0-10.09381,3.57763-11.6793,8.51767,4.58823,1.23957,8.44143,4.47957,10.70833,8.82088Z"/><path class="cls-6" d="m284.52344,422.15372c-1.10935-4.31057-4.3518-7.76625-8.46488-9.20315-.82832-.28939-1.68902-.50405-2.57801-.61944-3.97986-.51655-7.65828.74933-10.38066,3.09469-2.2669-4.34131-6.1201-7.5813-10.70833-8.82088-1.32708-.35854-2.71254-.5584-4.14275-.5584-6.64395,0-12.39563,4.10804-15.20639,10.09754-.39727-.03931-.79996-.06099-1.20756-.06099-5.33711,0-9.86894,3.44753-11.49009,8.2371-.02295.06784-.04517.14355-.06665.22614-.70068,2.69409,1.42759,5.30354,4.21129,5.30354h56.12672c2.38167,0,4.3095-1.925,4.32844-4.30667.00869-1.09836-.12322-2.23177-.42113-3.38949Z"/></g><g><path class="cls-2" d="m262.11575,416.55414c2.72238-2.34535,6.4008-3.61124,10.38066-3.09469.88899.11539,1.74969.33005,2.57801.61944.18035-.83709.2807-1.70386.2807-2.59494,0-6.77561-5.49271-12.26836-12.2684-12.26836-5.46672,0-10.09381,3.57763-11.6793,8.51767,4.58823,1.23957,8.44143,4.47957,10.70833,8.82088Z"/><path class="cls-2" d="m283.5393,423.28203c-1.10935-4.31057-4.3518-7.76625-8.46488-9.20315-.82832-.28939-1.68902-.50405-2.57801-.61944-3.97986-.51655-7.65828.74933-10.38066,3.09469-2.2669-4.34131-6.1201-7.5813-10.70833-8.82088-1.32708-.35854-2.71254-.5584-4.14275-.5584-6.64395,0-12.39563,4.10804-15.20639,10.09754-.39727-.03931-.79996-.06099-1.20756-.06099-5.33711,0-9.86894,3.44753-11.49009,8.2371-.02295.06784-.04517.14355-.06665.22614-.70068,2.69409,1.42759,5.30354,4.21129,5.30354h56.12672c2.38167,0,4.3095-1.925,4.32844-4.30667.00869-1.09836-.12322-2.23177-.42113-3.38949Z"/></g><g><circle class="cls-5" cx="365.32182" cy="165.36995" r="10.33878"/><circle class="cls-5" cx="381.86388" cy="192.20878" r="10.33878"/><circle class="cls-5" cx="349.63278" cy="192.20878" r="10.33878"/></g><g><circle class="cls-2" cx="363.48826" cy="164.25532" r="10.33878"/><circle class="cls-2" cx="380.03031" cy="191.09415" r="10.33878"/><circle class="cls-2" cx="347.79921" cy="191.09415" r="10.33878"/></g><path class="cls-6" d="m395.80629,402.0067l-13.50372,7.79637v-8.3951c0-2.36952-1.92087-4.29039-4.29039-4.29039h-36.31906c-2.36952,0-4.29039,1.92087-4.29039,4.29039v25.09409c0,2.36952,1.92087,4.29039,4.29039,4.29039h36.31906c2.36952,0,4.29039-1.92087,4.29039-4.29039v-8.39516l13.50372,7.79641c1.11046.64113,2.49854-.16028,2.49854-1.44253v-21.01155c0-1.28225-1.38807-2.08365-2.49853-1.44253Z"/><path class="cls-2" d="m394.23766,400.17997l-13.50372,7.79637v-8.3951c0-2.36952-1.92087-4.29039-4.29039-4.29039h-36.31906c-2.36952,0-4.29039,1.92087-4.29039,4.29039v25.09409c0,2.36952,1.92087,4.29039,4.29039,4.29039h36.31906c2.36952,0,4.29039-1.92087,4.29039-4.29039v-8.39516l13.50372,7.79641c1.11046.64113,2.49854-.16028,2.49854-1.44253v-21.01155c0-1.28225-1.38807-2.08365-2.49853-1.44253Z"/><polygon class="cls-6" points="498.28216 290.56392 483.51238 290.56392 483.51238 275.79427 471.10589 275.79427 471.10589 290.56392 456.33611 290.56392 456.33611 302.97047 471.10589 302.97047 471.10589 317.74019 483.51238 317.74019 483.51238 302.97047 498.28216 302.97047 498.28216 290.56392"/><polygon class="cls-2" points="496.81551 288.86694 482.04573 288.86694 482.04573 274.09728 469.63924 274.09728 469.63924 288.86694 454.86946 288.86694 454.86946 301.27349 469.63924 301.27349 469.63924 316.04321 482.04573 316.04321 482.04573 301.27349 496.81551 301.27349 496.81551 288.86694"/><circle class="cls-6" cx="479.85272" cy="415.17672" r="29.53938"/><circle class="cls-2" cx="478.56568" cy="414.31869" r="29.53938"/><polyline class="cls-2" points="479.26193 400.40703 479.26193 415.17672 498.75792 415.17672"/><g><ellipse class="cls-2" cx="248.73418" cy="198.58524" rx="6.20723" ry="12.97876"/><ellipse class="cls-2" cx="240.71437" cy="196.88138" rx="12.97876" ry="6.20723" transform="translate(-37.05308 336.70603) rotate(-66)"/><ellipse class="cls-2" cx="234.08028" cy="192.06172" rx="12.97876" ry="6.20723" transform="translate(-68.38965 205.96233) rotate(-42)"/><ellipse class="cls-2" cx="229.98049" cy="184.95978" rx="12.97876" ry="6.20723" transform="translate(-45.89967 80.12046) rotate(-18)"/><ellipse class="cls-2" cx="229.1235" cy="176.80521" rx="6.20723" ry="12.97876" transform="translate(29.33691 386.19237) rotate(-84)"/><ellipse class="cls-2" cx="231.65712" cy="169.00695" rx="6.20723" ry="12.97876" transform="translate(-30.53576 285.12442) rotate(-60)"/><ellipse class="cls-2" cx="237.14369" cy="162.91318" rx="6.20723" ry="12.97876" transform="translate(-50.46755 170.50321) rotate(-36)"/><ellipse class="cls-2" cx="244.6347" cy="159.57841" rx="6.20723" ry="12.97876" transform="translate(-27.83236 54.34958) rotate(-12)"/><ellipse class="cls-2" cx="252.8344" cy="159.57821" rx="12.97876" ry="6.20723" transform="translate(44.17613 373.7094) rotate(-78)"/><ellipse class="cls-2" cx="260.32501" cy="162.91323" rx="12.97876" ry="6.20723" transform="translate(-24.48976 277.76259) rotate(-54)"/><ellipse class="cls-2" cx="265.81148" cy="169.00644" rx="12.97876" ry="6.20723" transform="translate(-48.89124 155.54831) rotate(-30)"/><ellipse class="cls-2" cx="268.34554" cy="176.80525" rx="12.97876" ry="6.20723" transform="translate(-17.01116 29.0183) rotate(-6)"/><ellipse class="cls-2" cx="267.48817" cy="184.95988" rx="6.20723" ry="12.97876" transform="translate(8.92249 382.2005) rotate(-72)"/><ellipse class="cls-2" cx="263.38886" cy="192.06049" rx="6.20723" ry="12.97876" transform="translate(-55.58145 259.283) rotate(-48)"/><ellipse class="cls-2" cx="256.75503" cy="196.88047" rx="6.20723" ry="12.97876" transform="translate(-57.88086 121.45289) rotate(-24)"/></g><line class="cls-2" x1="451.31818" y1="159.38008" x2="504.17219" y2="159.38008"/><line class="cls-2" x1="451.31818" y1="179.62204" x2="504.17219" y2="179.62204"/><line class="cls-2" x1="451.31818" y1="199.86401" x2="504.17219" y2="199.86401"/><g><rect class="cls-2" x="208.33295" y="253.12006" width="86.51106" height="86.51106" rx="11.93984" ry="11.93984"/><rect class="cls-2" x="321.23722" y="253.12006" width="86.51106" height="86.51106" rx="11.93984" ry="11.93984"/><rect class="cls-2" x="434.14148" y="253.12006" width="86.51106" height="86.51106" rx="11.93984" ry="11.93984"/><rect class="cls-2" x="547.04575" y="253.12006" width="86.51106" height="86.51106" rx="11.93984" ry="11.93984"/></g><g><rect class="cls-2" x="208.33295" y="370.42319" width="86.51106" height="86.51106" rx="11.93984" ry="11.93984"/><rect class="cls-2" x="321.23722" y="370.42319" width="86.51106" height="86.51106" rx="11.93984" ry="11.93984"/><rect class="cls-2" x="434.14148" y="370.42319" width="86.51106" height="86.51106" rx="11.93984" ry="11.93984"/><rect class="cls-2" x="547.04575" y="370.42319" width="86.51106" height="86.51106" rx="11.93984" ry="11.93984"/></g><g><rect class="cls-2" x="208.33295" y="135.81692" width="86.51106" height="86.51106" rx="11.93984" ry="11.93984"/><rect class="cls-2" x="321.23722" y="135.81692" width="86.51106" height="86.51106" rx="11.93984" ry="11.93984"/><rect class="cls-2" x="434.14148" y="135.81692" width="86.51106" height="86.51106" rx="11.93984" ry="11.93984"/><rect class="cls-2" x="547.04575" y="135.81692" width="86.51106" height="86.51106" rx="11.93984" ry="11.93984"/></g></g><rect class="cls-19" x="515.75809" y="98.27364" width="4.90859" height="236.2349"/><rect class="cls-19" x="640.44021" y="98.93129" width="4.69459" height="240.19311"/><rect class="cls-19" x="640.44019" y="333.61621" width="4.69458" height="134.10032"/><rect class="cls-19" x="676.43483" y="93.89205" width="4.69459" height="240.19311"/><rect class="cls-19" x="676.43482" y="334.65283" width="4.69458" height="133.0637"/><rect class="cls-19" x="176.33353" y="98.27364" width="4.69459" height="207.51157"/><rect class="cls-19" x="209.36976" y="319.28058" width="4.69458" height="148.43596"/><rect class="cls-19" x="183.45362" y="336.07638" width="4.69458" height="131.64016"/><g><g><path class="cls-6" d="m584.26302,180.78184c.28113-.44287,2.34141-1.70706,2.2894-3.20517-.05151-1.48511.4049-2.36894-.00965-4.17692-.73486,1.0564-2.03271,2.07318-4.32715,2.68054-4.06909,1.07709-10.02478,1.01996-13.86401.40259l.95996,5.07477c1.32275-.63019,3.22949-1.15924,5.94482-1.23907,5.61963-.16528,7.42056.07478,9.00662.46327Z"/><path class="cls-6" d="m580.13079,157.3165c-12.53552-2.12463-16.11023,12.31964-15.16272,14.02545.94775,1.70581-.37891,1.89532-.37891,3.60114,0,.62866,1.52148,1.17944,3.76245,1.53979,3.83923.61737,9.79492.6745,13.86401-.40259,2.29443-.60736,3.59229-1.62415,4.32715-2.68054,1.32898-1.91064.79028-3.95312.79028-3.95312,0,0,3.98022-10.2348-7.20227-12.13013Z"/><path class="cls-6" d="m556.35674,188.96103c-1.43872,1.70624-1.3324,3.0708-1.3324,3.0708-.85193,17.03748-12.56506,22.14874-10.43542,26.83405,1.96899,4.33173,10.30334-1.70844,11.55103-2.64545,1.59814-8.7583.58789-22.89679.2168-27.2594Z"/><path class="cls-6" d="m606.60955,195.45176c-.14075-.30511-.29456-.5976-.47278-.86432-2.24329-3.35645-1.72607-8.40521-2.34265-8.94464-1.70374-1.49078,0,0-2.34265,2.5556-2.34265,2.55566-1.70374-.4259-3.62048-1.91669-.26086-.20294-.49182-.33826-.70032-.42834.53027,2.21417,1.31519,5.55328,2.13159,8.90265,2.49841.2666,5.15454.52527,7.34729.69574Z"/><path class="cls-6" d="m602.30327,205.87479c.40991.95624.77087,4.23425.95825,8.32214.25708-.27344.50635-.5625.74561-.86823,2.30652-2.94727,4.9259-12.84161,2.60242-17.87695-2.19275-.17047-4.84888-.42914-7.34729-.69574,1.17651,4.82605,2.41528,9.65845,3.04102,11.11877Z"/><path class="cls-6" d="m604.54014,290.71877c-.34473-8.27338,4.63835-41.24814-3.64068-53.87841,0,0-9.76355,1.49072-19.68396,2.36664-5.70178.50348-11.44214.80035-15.42395.49628.05457,1.27448-2.05862,4.79067-2.00259,8.11079.09595,5.69281.88376,13.13781,1.94863,24.18828,2.02709,21.03559.68945,38.60913,1.72363,39.98804s13.09949-1.72363,13.09949-1.72363c0,0,.58069-24.88013,1.37878-34.12775.77075-8.92932,1.56243-16.23211,1.56243-16.23211,0,0,8.08991,12.44017,7.05573,21.74773s3.44727,28.95685,3.44727,28.95685h12.06543s-1.18549-11.61934-1.53022-19.89271Z"/><path class="cls-6" d="m603.26152,214.19694c-.18738-4.08789-.54834-7.36591-.95825-8.32214-.62573-1.46033-1.8645-6.29272-3.04102-11.11877-.81641-3.34937-1.60132-6.68848-2.13159-8.90265-.26562-1.10919-.46863-1.94135-.57739-2.34027-.63892-2.34265-9.22021-1.9364-9.22021-1.9364,0,0-.25476-.07593-.71228-.18799-1.58606-.38849-5.74475-1.23541-11.36438-1.07013-2.71533.07983-4.62207.60889-5.94482,1.23907-2.20459,1.05029-2.78687,2.38141-2.78687,2.38141-4.85779,1.12769-7.66553,2.67926-9.28809,4.12244-.34485.30664-.63391.60779-.87988.89954.37109,4.36261,1.38135,18.5011-.2168,27.2594.10181-.07648.16223-.12317.16223-.12317,0,0-1.06482,19.80609,5.32422,22.7876.90686.42322,2.3606.6806,4.16516.81842,3.98181.30408,9.72217.0072,15.42395-.49628,9.92041-.87592,19.68396-2.36664,19.68396-2.36664,1.52954-1.08136,2.23389-6.57812,2.43506-12.66748.11108-3.36047.06812-6.89691-.073-9.97595Z"/></g><g><path class="cls-4" d="m584.96746,181.38871c.28113-.44287.69592-1.35077.64392-2.84888-.05151-1.48511-.30737-3.33209-.72192-5.14008-.73486,1.0564-2.03271,2.07318-4.32715,2.68054-4.06909,1.07709-10.02478,1.01996-13.86401.40259l.95996,5.07477c1.32275-.63019,3.22949-1.15924,5.94482-1.23907,5.61963-.16528,9.77832.68164,11.36438,1.07013Z"/><path class="cls-20" d="m578.47747,157.3165c-12.53552-2.12463-16.11023,12.31964-15.16272,14.02545.94775,1.70581-.37891,1.89532-.37891,3.60114,0,.62866,1.52148,1.17944,3.76245,1.53979,3.83923.61737,9.79492.6745,13.86401-.40259,2.29443-.60736,3.59229-1.62415,4.32715-2.68054,1.32898-1.91064.79028-3.95312.79028-3.95312,0,0,3.98022-10.2348-7.20227-12.13013Z"/><path class="cls-20" d="m554.70342,188.96103c-1.43872,1.70624-1.3324,3.0708-1.3324,3.0708-.85193,17.03748-12.56506,22.14874-10.43542,26.83405,1.96899,4.33173,10.30334-1.70844,11.55103-2.64545,1.59814-8.7583.58789-22.89679.2168-27.2594Z"/><path class="cls-4" d="m604.95623,195.45176c-.14075-.30511-.29456-.5976-.47278-.86432-2.24329-3.35645-1.72607-8.40521-2.34265-8.94464-1.70374-1.49078,0,0-2.34265,2.5556-2.34265,2.55566-1.70374-.4259-3.62048-1.91669-.26086-.20294-.49182-.33826-.70032-.42834.53027,2.21417,1.31519,5.55328,2.13159,8.90265,2.49841.2666,5.15454.52527,7.34729.69574Z"/><path class="cls-20" d="m600.64996,205.87479c.40991.95624.77087,4.23425.95825,8.32214.25708-.27344.50635-.5625.74561-.86823,2.30652-2.94727,4.9259-12.84161,2.60242-17.87695-2.19275-.17047-4.84888-.42914-7.34729-.69574,1.17651,4.82605,2.41528,9.65845,3.04102,11.11877Z"/><path class="cls-20" d="m602.88683,290.71877c-.34473-8.27338,4.63835-41.24814-3.64068-53.87841,0,0-9.76355,1.49072-19.68396,2.36664-5.70178.50348-11.44214.80035-15.42395.49628.05457,1.27448-2.05862,4.79067-2.00259,8.11079.09595,5.69281.88376,13.13781,1.94863,24.18828,2.02709,21.03559.68945,38.60913,1.72363,39.98804s13.09949-1.72363,13.09949-1.72363c0,0,.58069-24.88013,1.37878-34.12775.77075-8.92932,1.56243-16.23211,1.56243-16.23211,0,0,8.08991,12.44017,7.05573,21.74773s3.44727,28.95685,3.44727,28.95685h12.06543s-1.18549-11.61934-1.53022-19.89271Z"/><path class="cls-5" d="m601.60821,214.19694c-.18738-4.08789-.54834-7.36591-.95825-8.32214-.62573-1.46033-1.8645-6.29272-3.04102-11.11877-.81641-3.34937-1.60132-6.68848-2.13159-8.90265-.26562-1.10919-.46863-1.94135-.57739-2.34027-.63892-2.34265-9.22021-1.9364-9.22021-1.9364,0,0-.25476-.07593-.71228-.18799-1.58606-.38849-5.74475-1.23541-11.36438-1.07013-2.71533.07983-4.62207.60889-5.94482,1.23907-2.20459,1.05029-2.78687,2.38141-2.78687,2.38141-4.85779,1.12769-7.66553,2.67926-9.28809,4.12244-.34485.30664-.63391.60779-.87988.89954.37109,4.36261,1.38135,18.5011-.2168,27.2594.10181-.07648.16223-.12317.16223-.12317,0,0-1.06482,19.80609,5.32422,22.7876.90686.42322,2.3606.6806,4.16516.81842,3.98181.30408,9.72217.0072,15.42395-.49628,9.92041-.87592,19.68396-2.36664,19.68396-2.36664,1.52954-1.08136,2.23389-6.57812,2.43506-12.66748.11108-3.36047.06812-6.89691-.073-9.97595Z"/></g><g><path class="cls-2" d="m584.26302,180.78184c.28113-.44287,2.34141-1.70706,2.2894-3.20517-.05151-1.48511.07424-2.36894-.34031-4.17692-.73486,1.0564-2.03271,2.07318-4.32715,2.68054-4.06909,1.07709-10.02478,1.01996-13.86401.40259l.95996,5.07477c1.32275-.63019,3.22949-1.15924,5.94482-1.23907,5.61963-.16528,7.75123.07478,9.33729.46327Z"/><path class="cls-2" d="m579.80012,157.3165c-12.53552-2.12463-16.11023,12.31964-15.16272,14.02545.94775,1.70581-.37891,1.89532-.37891,3.60114,0,.62866,1.52148,1.17944,3.76245,1.53979,3.83923.61737,9.79492.6745,13.86401-.40259,2.29443-.60736,3.59229-1.62415,4.32715-2.68054,1.32898-1.91064.79028-3.95312.79028-3.95312,0,0,3.98022-10.2348-7.20227-12.13013Z"/><path class="cls-2" d="m556.02608,188.96103c-1.43872,1.70624-1.3324,3.0708-1.3324,3.0708-.85193,17.03748-12.56506,22.14874-10.43542,26.83405,1.96899,4.33173,10.30334-1.70844,11.55103-2.64545,1.59814-8.7583.58789-22.89679.2168-27.2594Z"/><path class="cls-2" d="m606.27888,195.45176c-.14075-.30511-.29456-.5976-.47278-.86432-2.24329-3.35645-1.72607-8.40521-2.34265-8.94464-1.70374-1.49078,0,0-2.34265,2.5556-2.34265,2.55566-1.70374-.4259-3.62048-1.91669-.26086-.20294-.49182-.33826-.70032-.42834.53027,2.21417,1.31519,5.55328,2.13159,8.90265,2.49841.2666,5.15454.52527,7.34729.69574Z"/><path class="cls-2" d="m601.97261,205.87479c.40991.95624.77087,4.23425.95825,8.32214.25708-.27344.50635-.5625.74561-.86823,2.30652-2.94727,4.9259-12.84161,2.60242-17.87695-2.19275-.17047-4.84888-.42914-7.34729-.69574,1.17651,4.82605,2.41528,9.65845,3.04102,11.11877Z"/><path class="cls-2" d="m604.20948,290.71877c-.34473-8.27338,4.63835-41.24814-3.64068-53.87841,0,0-9.76355,1.49072-19.68396,2.36664-5.70178.50348-11.44214.80035-15.42395.49628.05457,1.27448-2.05862,4.79067-2.00259,8.11079.09595,5.69281.88376,13.13781,1.94863,24.18828,2.02709,21.03559.68945,38.60913,1.72363,39.98804s13.09949-1.72363,13.09949-1.72363c0,0,.58069-24.88013,1.37878-34.12775.77075-8.92932,1.56243-16.23211,1.56243-16.23211,0,0,8.08991,12.44017,7.05573,21.74773s3.44727,28.95685,3.44727,28.95685h12.06543s-1.18549-11.61934-1.53022-19.89271Z"/><path class="cls-2" d="m602.93086,214.19694c-.18738-4.08789-.54834-7.36591-.95825-8.32214-.62573-1.46033-1.8645-6.29272-3.04102-11.11877-.81641-3.34937-1.60132-6.68848-2.13159-8.90265-.26562-1.10919-.46863-1.94135-.57739-2.34027-.63892-2.34265-9.22021-1.9364-9.22021-1.9364,0,0-.25476-.07593-.71228-.18799-1.58606-.38849-5.74475-1.23541-11.36438-1.07013-2.71533.07983-4.62207.60889-5.94482,1.23907-2.20459,1.05029-2.78687,2.38141-2.78687,2.38141-4.85779,1.12769-7.66553,2.67926-9.28809,4.12244-.34485.30664-.63391.60779-.87988.89954.37109,4.36261,1.38135,18.5011-.2168,27.2594.10181-.07648.16223-.12317.16223-.12317,0,0-1.06482,19.80609,5.32422,22.7876.90686.42322,2.3606.6806,4.16516.81842,3.98181.30408,9.72217.0072,15.42395-.49628,9.92041-.87592,19.68396-2.36664,19.68396-2.36664,1.52954-1.08136,2.23389-6.57812,2.43506-12.66748.11108-3.36047.06812-6.89691-.073-9.97595Z"/></g><path class="cls-2" d="m564.6374,171.34196s8.08428,7.44143,22.36499-1.89532"/></g><g><g><g><path class="cls-6" d="m192.137,161.16011c.20569,3.74963.52661,11.33777-.12708,13.08069-.87659,2.33765-10.81165,3.50653-10.81165,3.50653-.29224,6.13635,14.026,1.75323,15.77917,2.62982,1.75342.87665,6.13647.58447,7.59741-1.16882,1.2157-1.45874-1.61279-12.41827-2.59766-16.06091-2.11792-.02258-6.73901-.28217-9.84021-1.9873Z"/><path class="cls-6" d="m189.35489,127.03285c-.13867,4.00226-.79175,23.93188-.26697,29.96765.16736,1.92438,1.39087,3.24786,3.04907,4.15961,3.1012,1.70514,7.72229,1.96472,9.84021,1.9873.70459.00751,1.13672-.01056,1.13672-.01056l2.23901-36.104h-15.99805Z"/></g><g><path class="cls-6" d="m254.83487,170.44209c-1.7533-1.75323-4.67542-5.84418-3.21436-12.85718,0,0-7.01294,1.46106-9.35059,2.33765-.92505.34686-1.89343-.04822-2.72888-1.03857-.47119,3.43195-2.46289,18.29297-1.94653,20.61658.58435,2.62988,7.59741-1.75323,11.39612-1.75323s13.73389.87659,14.31824-2.33771c.58435-3.21429-6.72083-3.21429-8.474-4.96753Z"/><path class="cls-6" d="m240.48087,127.03285c-2.07996,7.54285-3.17859,18.83044-3.17859,23.53906,0,3.88495.96277,6.79944,2.23877,8.31207.83545.99036,1.80383,1.38544,2.72888,1.03857,2.33765-.87659,9.35059-2.33765,9.35059-2.33765,2.04736-2.72974,4.09412-22.10181,4.90076-30.55206h-16.04041Z"/></g><g><path class="cls-6" d="m244.78995,48.11012c2.30103,1.18616,4.38123,2.53632,5.66174,3.98755-.95349-1.38696-3.10779-2.75195-5.66174-3.98755Z"/><path class="cls-6" d="m250.4517,52.09767c-1.28052-1.45123-3.36072-2.80139-5.66174-3.98755-4.33203-2.0957-9.81274-3.81451-12.58789-4.62396l-2.52563,2.94659c5.93286,1.16846,12.18896,4.31787,17.54834,7.66254l3.22693-1.99762Z"/><path class="cls-6" d="m260.49064,90.9626c-.66492-2.05792-2.99561-9.26093-4.48706-13.73499-1.75317-5.25977,2.59839-15.40662-4.82288-20.53479-1.24231-.85846-2.57202-1.73383-3.95593-2.59753-5.35938-3.34467-11.61548-6.49408-17.54834-7.66254-1.78455-.35144-3.54004-.52783-5.23132-.47144-8.76624.29218-17.24036,4.67529-18.40906,9.93506-1.16895,5.25977-.87671,15.77924-5.25977,20.45459-3.06494,3.26929-4.55701,10.53461-5.17798,14.61163h64.89233Z"/><path class="cls-6" d="m248.93593,33.44343c-12.27271-4.38312-16.76611,2.52728-18.51941,9.54028,0,0,.68152.18042,1.78552.50244,2.77515.80945,8.25586,2.52826,12.58789,4.62396,2.55396,1.2356,4.70825,2.60059,5.66174,3.98755l1.33875,1.94727c.72241,1.05078,2.39917.4859,2.30164-.78558-.13391-1.74615-.71838-2.91492-.71838-2.91492,0,0,7.83496-12.51788-4.43774-16.901Z"/></g></g><g><g><path class="cls-17" d="m190.86098,160.6816c.20569,3.74963.52661,11.33777-.12708,13.08069-.87659,2.33765-10.81165,3.50653-10.81165,3.50653-.29224,6.13635,14.026,1.75323,15.77917,2.62982,1.75342.87665,6.13647.58447,7.59741-1.16882,1.2157-1.45874-1.61279-12.41827-2.59766-16.06091-2.11792-.02258-6.73901-.28217-9.84021-1.9873Z"/><path class="cls-22" d="m188.07888,126.55434c-.13867,4.00226-.79175,23.93188-.26697,29.96765.16736,1.92438,1.39087,3.24786,3.04907,4.15961,3.1012,1.70514,7.72229,1.96472,9.84021,1.9873.70459.00751,1.13672-.01056,1.13672-.01056l2.23901-36.104h-15.99805Z"/></g><g><path class="cls-17" d="m253.55886,169.96358c-1.7533-1.75323-4.67542-5.84418-3.21436-12.85718,0,0-7.01294,1.46106-9.35059,2.33765-.92505.34686-1.89343-.04822-2.72888-1.03857-.47119,3.43195-2.46289,18.29297-1.94653,20.61658.58435,2.62988,7.59741-1.75323,11.39612-1.75323s13.73389.87659,14.31824-2.33771-6.72083-3.21429-8.474-4.96753Z"/><path class="cls-23" d="m239.20485,126.55434c-2.07996,7.54285-3.17859,18.83044-3.17859,23.53906,0,3.88495.96277,6.79944,2.23877,8.31207.83545.99036,1.80383,1.38544,2.72888,1.03857,2.33765-.87659,9.35059-2.33765,9.35059-2.33765,2.04736-2.72974,4.09412-22.10181,4.90076-30.55206h-16.04041Z"/></g><g><path class="cls-2" d="m243.51394,47.63161c2.30103,1.18616,4.38123,2.53632,5.66174,3.98755-.95349-1.38696-3.10779-2.75195-5.66174-3.98755Z"/><path class="cls-12" d="m249.17568,51.61916c-1.28052-1.45123-3.36072-2.80139-5.66174-3.98755-4.33203-2.0957-9.81274-3.81451-12.58789-4.62396l-2.52563,2.94659c5.93286,1.16846,12.18896,4.31787,17.54834,7.66254l3.22693-1.99762Z"/><path class="cls-24" d="m259.21462,90.48409c-.66492-2.05792-2.99561-9.26093-4.48706-13.73499-1.75317-5.25977,2.59839-15.40662-4.82288-20.53479-1.24231-.85846-2.57202-1.73383-3.95593-2.59753-5.35938-3.34467-11.61548-6.49408-17.54834-7.66254-1.78455-.35144-3.54004-.52783-5.23132-.47144-8.76624.29218-17.24036,4.67529-18.40906,9.93506-1.16895,5.25977-.87671,15.77924-5.25977,20.45459-3.06494,3.26929-4.55701,10.53461-5.17798,14.61163h64.89233Z"/><path class="cls-28" d="m247.65992,32.96492c-12.27271-4.38312-16.76611,2.52728-18.51941,9.54028,0,0,.68152.18042,1.78552.50244,2.77515.80945,8.25586,2.52826,12.58789,4.62396,2.55396,1.2356,4.70825,2.60059,5.66174,3.98755l1.33875,1.94727c.72241,1.05078,2.39917.4859,2.30164-.78558-.13391-1.74615-.71838-2.91492-.71838-2.91492,0,0,7.83496-12.51788-4.43774-16.901Z"/></g></g><g><g><path class="cls-2" d="m191.9928,160.87793c.20569,3.74963.52661,11.33777-.12708,13.08069-.87659,2.33765-10.81165,3.50653-10.81165,3.50653-.29224,6.13635,14.026,1.75323,15.77917,2.62982,1.75342.87665,6.13647.58447,7.59741-1.16882,1.2157-1.45874-1.61279-12.41827-2.59766-16.06091-2.11792-.02258-6.73901-.28217-9.84021-1.9873Z"/><path class="cls-2" d="m189.2107,126.75067c-.13867,4.00226-.79175,23.93188-.26697,29.96765.16736,1.92438,1.39087,3.24786,3.04907,4.15961,3.1012,1.70514,7.72229,1.96472,9.84021,1.9873.70459.00751,1.13672-.01056,1.13672-.01056l2.23901-36.104h-15.99805Z"/></g><g><path class="cls-2" d="m254.69068,170.15991c-1.7533-1.75323-4.67542-5.84418-3.21436-12.85718,0,0-7.01294,1.46106-9.35059,2.33765-.92505.34686-1.89343-.04822-2.72888-1.03857-.47119,3.43195-2.46289,18.29297-1.94653,20.61658.58435,2.62988,7.59741-1.75323,11.39612-1.75323s13.73389.87659,14.31824-2.33771c.58435-3.21429-6.72083-3.21429-8.474-4.96753Z"/><path class="cls-2" d="m240.33668,126.75067c-2.07996,7.54285-3.17859,18.83044-3.17859,23.53906,0,3.88495.96277,6.79944,2.23877,8.31207.83545.99036,1.80383,1.38544,2.72888,1.03857,2.33765-.87659,9.35059-2.33765,9.35059-2.33765,2.04736-2.72974,4.09412-22.10181,4.90076-30.55206h-16.04041Z"/></g><g><path class="cls-2" d="m244.64576,47.82794c2.30103,1.18616,4.38123,2.53632,5.66174,3.98755-.95349-1.38696-3.10779-2.75195-5.66174-3.98755Z"/><path class="cls-2" d="m250.3075,51.81549c-1.28052-1.45123-3.36072-2.80139-5.66174-3.98755-4.33203-2.0957-9.81274-3.81451-12.58789-4.62396l-2.52563,2.94659c5.93286,1.16846,12.18896,4.31787,17.54834,7.66254l3.22693-1.99762Z"/><path class="cls-2" d="m260.34644,90.68042c-.66492-2.05792-2.99561-9.26093-4.48706-13.73499-1.75317-5.25977,2.59839-15.40662-4.82288-20.53479-1.24231-.85846-2.57202-1.73383-3.95593-2.59753-5.35938-3.34467-11.61548-6.49408-17.54834-7.66254-1.78455-.35144-3.54004-.52783-5.23132-.47144-8.76624.29218-17.24036,4.67529-18.40906,9.93506-1.16895,5.25977-.87671,15.77924-5.25977,20.45459-3.06494,3.26929-4.55701,10.53461-5.17798,14.61163h64.89233Z"/><path class="cls-2" d="m248.79175,33.16126c-12.27271-4.38312-16.76611,2.52728-18.51941,9.54028,0,0,.68152.18042,1.78552.50244,2.77515.80945,8.25586,2.52826,12.58789,4.62396,2.55396,1.2356,4.70825,2.60059,5.66174,3.98755l1.33875,1.94727c.72241,1.05078,2.39917.4859,2.30164-.78558-.13391-1.74615-.71838-2.91492-.71838-2.91492,0,0,7.83496-12.51788-4.43774-16.901Z"/></g><path class="cls-2" d="m207.89569,90.54685s2.19818-19.00782,4.91358-22.62835"/><path class="cls-2" d="m245.00619,66.36684s-2.5861.38791-2.5861,4.91358,2.19818,19.52503,2.19818,19.52503"/></g></g><rect class="cls-7" y="91.73004" width="841.88976" height="36.9917"/><rect class="cls-7" y="305.9967" width="841.88976" height="29.56458"/><rect class="cls-2" y="90.71466" width="841.88976" height="36.99164"/><rect class="cls-2" y="305.72668" width="841.88976" height="29.56451"/><rect class="cls-2" x="518.59961" y="127.69504" width="4.69458" height="178.16998"/><rect class="cls-2" x="643.31971" y="127.21967" width="4.69458" height="180.0611"/><rect class="cls-2" x="643.31971" y="335.16107" width="4.69458" height="132.55546"/><rect class="cls-2" x="679.31434" y="335.16107" width="4.69458" height="132.55546"/><rect class="cls-2" x="177.40858" y="127.21967" width="4.69458" height="178.41957"/><rect class="cls-2" x="210.38355" y="335.48865" width="4.69458" height="132.22789"/><g><polygon class="cls-19" points="311.39246 335.16107 130.17805 462.89563 133.01136 467.71654 319.53626 335.16107 311.39246 335.16107"/><polygon class="cls-19" points="338.56531 467.71654 339.40565 467.71654 150.12049 335.16107 141.97675 335.16107 332.81263 467.71654 338.56531 467.71654"/><polyline class="cls-2" points="234.79485 395.03487 319.13041 335.56692 310.98661 335.56692 230.64733 392.32515"/><polyline class="cls-2" points="226.4445 395.25607 129.7722 463.30148 132.60551 467.71654 230.75793 397.79988"/><polygon class="cls-2" points="338.46668 467.71654 338.99988 467.71654 149.71467 335.56689 141.57093 335.56689 331.82703 467.71654 338.46668 467.71654"/></g><g><polygon class="cls-19" points="0 416.58728 116.48835 335.16107 108.34455 335.16107 0 410.84692 0 416.58728"/><polygon class="cls-19" points="135.5174 467.71654 136.35779 467.71654 0 372.89618 0 378.60577 129.76466 467.71654 135.5174 467.71654"/><polyline class="cls-2" points="31.74694 395.03487 116.08251 335.56692 107.93871 335.56692 27.59942 392.32515"/><path class="cls-2" d="m0,413.52537c7.69063-3.52537,20.11024-10.52537,27.71002-15.72549"/><path class="cls-2" d="m23.3966,395.25607c-6.28636,4.74393-16.64007,8.74393-23.3966,12.69997"/><polygon class="cls-2" points="135.41877 467.71654 135.95197 467.71654 0 373.58612 0 379.29578 128.77918 467.71654 135.41877 467.71654"/></g><g><polygon class="cls-19" points="545.61048 467.71654 545.61048 467.71654 351.70252 335.16107 343.51307 335.16107 543.35609 467.71654 545.61048 467.71654"/><polygon class="cls-2" points="545.61048 467.71654 545.61048 467.71654 351.29432 335.56689 343.10487 335.56689 542.34095 467.71654 545.61048 467.71654"/></g><g><polygon class="cls-19" points="349.87635 467.71654 545.53236 337.15369 545.53236 335.82336 539.08436 335.82336 341.71131 467.71654 349.87635 467.71654"/><polygon class="cls-2" points="348.86658 467.71654 545.53236 336.47687 545.53236 335.82336 538.06946 335.82336 340.70203 467.71654 348.86658 467.71654"/></g><g><polygon class="cls-19" points="761.43494 467.71654 560.44776 335.16107 552.25843 335.16107 752.1012 467.71654 761.43494 467.71654"/><polygon class="cls-2" points="761.4264 467.71654 560.03968 335.56689 551.8501 335.56689 751.08619 467.71654 761.4264 467.71654"/></g><g><polygon class="cls-19" points="557.8324 467.71654 756.51551 336.42798 756.51551 335.09766 750.06751 335.09766 549.67225 467.71654 557.8324 467.71654"/><polygon class="cls-2" points="556.81654 467.71654 756.51551 335.75116 756.51551 335.09766 749.05262 335.09766 548.65711 467.71654 556.81654 467.71654"/></g><polygon class="cls-19" points="335.80444 127.79104 546.90468 235.44038 549.73793 231.69722 344.93066 127.79104 335.80444 127.79104"/><polygon class="cls-19" points="165.92544 127.68069 339.70913 231.05008 342.54251 227.30685 175.05178 127.68069 165.92544 127.68069"/><polygon class="cls-19" points="308.82402 128.23914 130.06074 238.79761 132.89405 242.54077 317.72819 128.23914 308.82402 128.23914"/><g><polygon class="cls-2" points="315.62232 128.19965 306.71815 128.19965 241.93397 168.14374 246.46619 170.83948 315.62232 128.19965"/><polygon class="cls-2" points="133.19416 235.1897 133.19416 240.67981 241.98487 173.60248 237.45277 170.90674 133.19416 235.1897"/><polygon class="cls-2" points="246.46619 170.83948 241.93397 168.14374 174.7804 128.19965 165.65406 128.19965 237.45277 170.90674 241.98487 173.60248 339.43775 231.56903 342.27112 227.82581 246.46619 170.83948"/></g><polygon class="cls-19" points="535.24346 128.00307 336.48328 228.95734 339.31654 232.7005 544.22528 128.00307 535.24346 128.00307"/><g><polygon class="cls-2" points="335.49988 228.95734 338.33314 232.7005 440.80274 180.34399 436.00819 177.9071 335.49988 228.95734"/><polygon class="cls-2" points="543.24183 128.00305 534.26014 128.00305 440.8213 175.46246 445.61414 177.88568 543.24183 128.00305"/><polygon class="cls-2" points="445.61414 177.88568 440.8213 175.46246 346.58228 127.81598 337.45606 127.81598 436.00819 177.9071 440.80274 180.34399 547.11671 234.38025 549.94996 230.63708 445.61414 177.88568"/></g><polygon class="cls-19" points="841.88976 210.81696 682.56654 129.43176 673.44031 129.43176 841.88976 215.88916 841.88976 210.81696"/><polygon class="cls-19" points="841.88976 144.82855 674.11903 230.59802 676.95228 234.34119 841.88976 149.5083 841.88976 144.82855"/><g><polygon class="cls-2" points="673.13568 230.59804 675.96893 234.34121 778.43853 181.9847 773.64398 179.54781 673.13568 230.59804"/><polygon class="cls-2" points="841.88976 144.3291 778.45716 177.10315 783.24988 179.52637 841.88976 149.0058 841.88976 144.3291"/><polygon class="cls-2" points="841.88976 209.72705 783.24988 179.52637 778.45716 177.10315 684.21815 129.45667 675.09193 129.45667 773.64393 179.54779 778.43861 181.98468 841.88976 214.79083 841.88976 209.72705"/></g><polygon class="cls-19" points="0 165.52203 0 170.36145 131.80775 237.08105 134.641 233.33789 0 165.52203"/><polygon class="cls-19" points="0 195.12555 129.12836 129.64374 120.14655 129.64374 0 190.1756 0 195.12555"/><g><polygon class="cls-2" points="0 194.62305 25.70582 181.98468 20.91126 179.54779 0 189.67609 0 194.62305"/><polygon class="cls-2" points="128.14492 129.64376 119.16323 129.64376 25.72438 177.10317 30.51723 179.52639 128.14492 129.64376"/><polygon class="cls-2" points="30.51722 179.52637 25.72437 177.10315 0 164.58783 0 169.41254 20.91126 179.54779 25.70582 181.98468 132.01978 236.02094 134.85303 232.27777 30.51722 179.52637"/></g><rect class="cls-2" x="184.46741" y="335.34851" width="4.69458" height="132.36802"/><rect class="cls-19" x="130.54676" y="11.09772" width="4.69458" height="456.61882"/><rect class="cls-19" x="337.55115" y="11.09772" width="4.69458" height="456.61882"/><rect class="cls-19" x="546.44154" y="11.09772" width="4.69458" height="456.61882"/><rect class="cls-2" x="336.1803" y="9.72687" width="4.69458" height="457.98967"/><rect class="cls-2" x="546.13074" y="9.72687" width="4.69458" height="457.98967"/><g><g><path class="cls-6" d="m653.26933,157.57304c-.48279,2.05487,2.35242,8.34882,2.36707,8.38147,4.31042-1.11713,7.47852.51196,9.58472,2.00549,1.61865-2.13586,2.88794-4.95685,2.83826-6.15704-6.0426.23346-11.0835-1.86194-14.79004-4.22992Z"/><path class="cls-6" d="m653.26933,157.57304c-.0011-.00073-.0022-.00134-.0033-.00208-1.0033-.64117-1.90723-1.29968-2.70825-1.93872-.79004,2.38-3.80957,12.00543-1.948,14.79767.005.00757.01147.01337.01648.02087.66858-.98138,1.43604-1.79132,2.32617-2.36353,1.6897-1.08624,3.24976-1.76105,4.68396-2.13275-.01465-.03265-2.84985-6.3266-2.36707-8.38147Z"/><path class="cls-6" d="m661.17497,141.04026s-8.94482.4259-11.92627,9.58356c0,0-2.98157-1.06482-2.98157.85187,0,0,1.52502,1.95001,4.29065,4.15656.80103.63904,1.70496,1.29755,2.70825,1.93872l.02905-.13214c-.01294.03906-.01562.09137-.02576.13422,3.70654,2.36798,8.74744,4.46338,14.79004,4.22992,1.01501-.03925,2.05505-.1369,3.12512-.31775,0,0,1.91663-1.49078,1.91663-3.83344s-.63892-14.05591-11.92615-16.61151Z"/><path class="cls-6" d="m653.29509,157.43882l-.02905.13214c.0011.00073.0022.00134.0033.00208.01013-.04285.01282-.09515.02576-.13422Z"/><path class="cls-6" d="m632.21122,185.9766s-.36877-1.64606-.0968-3.25311c-2.64343-.17316-6.53369-.22021-9.09937.67914,2.02979,1.15198,3.92883,2.2605,5.31738,3.06403,1.47363-.70667,2.76746-1.32355,3.87878-.49005Z"/><path class="cls-6" d="m623.01506,183.40263c-4.69604-2.66522-10.06055-5.54352-11.24878-5.30591-1.28955.25793-3.28149,1.5307-4.65271,2.49493-.73938.51984-.69763,1.62866.07434,2.09888l14.54187,8.85889c-.12708-.43573-.13562-.8775.04602-1.31348.67212-1.61298,1.09082-2.0379,1.94995-2.29279.50195-.14899,1.15381-.24011,2.09644-.47577.88867-.22217,1.72461-.62396,2.51025-1.00073-1.38855-.80353-3.2876-1.91205-5.31738-3.06403Z"/><path class="cls-6" d="m633.91496,180.01347c-1.12744.52032-1.61377,1.60608-1.80054,2.71002-.27197,1.60706.0968,3.25311.0968,3.25311l1.70374,1.27777c.57251-.19086,1.56323-.03955,2.75403.28857,2.30164.63428,5.37427,1.95343,7.86108,2.95258.05811-3.32318.27844-6.88849.80261-10.21204-4.31909-.53241-9.80884-1.01257-11.41772-.27002Z"/><path class="cls-6" d="m632.21122,185.9766c-1.11133-.8335-2.40515-.21661-3.87878.49005-.78564.37677-1.62158.77856-2.51025,1.00073-.94263.23566-1.59448.32678-2.09644.47577-.85913.25488-1.27783.67981-1.94995,2.29279-.18164.43597-.1731.87775-.04602,1.31348.6178,2.11823,4.27405,4.08337,5.15723,4.43665-1.58813-1.83246.11841-4.15442,2.34387-5.96301.91528-.7439,1.91699-1.40112,2.81531-1.901.72498-.4035,1.38208-.70544,1.86877-.86768l-1.70374-1.27777Z"/><path class="cls-6" d="m653.40898,172.81364c-1.04785-.67438-1.96643-.93317-2.61267-.63464-.0957.04425-.18652.09869-.26978.1676-1.29272,1.06793-3.25415,2.69476-3.40747,5.32422-.05286.90485-.02002,1.87006.05847,2.85138.4176,5.22174,2.29187,10.95886,1.43225,11.20453-.51135.14612-2.10962-.4397-4.07971-1.2312-2.48682-.99915-5.55945-2.3183-7.86108-2.95258-1.1908-.32812-2.18152-.47943-2.75403-.28857-.48669.16223-1.1438.46417-1.86877.86768-.89832.49988-1.90002,1.1571-2.81531,1.901-2.22546,1.80859-3.93201,4.13055-2.34387,5.96301,1.94849,2.24835,11.17249,5.76013,18.1012,7.64465,2.91602.79315,5.42822,1.30005,6.81616,1.30005,2.00403,0,11.4502-5.85022,11.50024-13.20404.05151-7.57037-5.87988-16.32867-9.89563-18.91309Z"/><path class="cls-6" d="m680.5551,195.77311c-4.64758-12.65631-12.00085-25.35284-13.2041-26.19507-.51831-.36273-1.22729-.97797-2.12988-1.61804-2.1062-1.49353-5.27429-3.12262-9.58472-2.00549-1.4342.3717-2.99426,1.04651-4.68396,2.13275-.89014.5722-1.65759,1.38214-2.32617,2.36353-1.65833,2.43408-2.68347,5.96442-3.29358,9.8327-.52417,3.32355-.74451,6.88885-.80261,10.21204,1.97009.7915,3.56836,1.37732,4.07971,1.2312.85962-.24567-1.01465-5.98279-1.43225-11.20453-.07849-.98132-.11133-1.94653-.05847-2.85138.15332-2.62946,2.11475-4.25629,3.40747-5.32422.08325-.06891.17407-.12335.26978-.1676.64624-.29852,1.56482-.03973,2.61267.63464,4.01575,2.58441,9.94714,11.34271,9.89563,18.91309-.05005,7.35382-9.49622,13.20404-11.50024,13.20404-1.38794,0-3.90015-.5069-6.81616-1.30005,0,.0047.0011.01855.0011.02222,0,.85187,3.19446,28.96375,6.38904,31.3064.59485.43622,1.48572.46521,2.56812.18127,4.73083-1.24084,13.13281-8.47821,16.59912-14.02423,2.32666-3.72278,6.36719-4.77429,9.55664-4.96405.66232-.0394,1.28799-.04168,1.85394-.02293,1.56086.0517,2.82188-1.25567,2.65893-2.80886-.44899-4.27977-1.69023-11.09371-4.06-17.54742Z"/><path class="cls-6" d="m679.70317,307.36857c-1.22009-.22186-2.49731-1.43164-3.71252-3.25653-1.31006,2.19305-1.82471,4.96027-1.82471,4.96027,0,0,17.03748-1.27783,20.65796-1.70374,2.7439-.32281,1.08594-4.92139.12134-7.13196-3.73462,3.24548-13.25195,7.49377-15.24207,7.13196Z"/><path class="cls-6" d="m684.81437,263.71006c-.85181-3.62048-.4259-23.85248.21301-32.79718.45044-6.30634-2.90344-11.96368-4.92517-14.76056-3.18945.18976-7.22998,1.24127-9.55664,4.96405-3.46631,5.54602-11.86829,12.78339-16.59912,14.02423.49243,4.73114,2.90894,11.52612,3.60791,13.44867.85193,2.34265,12.7782,26.62103,15.75977,34.71387,2.98145,8.09277-2.34277,9.37061-.42603,14.48181.91846,2.44928,1.98438,4.64807,3.10254,6.32709,1.21521,1.82489,2.49243,3.03467,3.71252,3.25653,1.99011.36182,11.50745-3.88647,15.24207-7.13196.6615-.57495,1.14502-1.11902,1.36938-1.59979,1.49084-3.19452-10.64844-31.30634-11.50024-34.92676Z"/></g><g><path class="cls-18" d="m653.88106,157.30538c-.48279,2.05487,2.35242,8.34882,2.36707,8.38147,4.31042-1.11713,7.47852.51196,9.58472,2.00549,1.61865-2.13586,2.88794-4.95685,2.83826-6.15704-6.0426.23346-11.0835-1.86194-14.79004-4.22992Z"/><path class="cls-27" d="m661.7867,140.7726s-8.94482.4259-11.92627,9.58356c0,0-2.98157-1.06482-2.98157.85187,0,0,1.52502,1.95001,4.29065,4.15656.80103.63904,1.70496,1.29755,2.70825,1.93872l.02905-.13214c-.01294.03906-.01562.09137-.02576.13422,3.70654,2.36798,8.74744,4.46338,14.79004,4.22992,1.01501-.03925,2.05505-.1369,3.12512-.31775,0,0,1.91663-1.49078,1.91663-3.83344s-.63892-14.05591-11.92615-16.61151Z"/><path class="cls-10" d="m653.88106,157.30538c.01013-.04285.01282-.09515.02576-.13422l-.02905.13214c-1.0033-.64117-1.90723-1.29968-2.70825-1.93872-.79004,2.38-3.80957,12.00543-1.948,14.79767.005.00757.01147.01337.01648.02087.66858-.98138,1.43604-1.79132,2.32617-2.36353,1.6897-1.08624,3.24976-1.76105,4.68396-2.13275-.01465-.03265-2.84985-6.3266-2.36707-8.38147Z"/><path class="cls-10" d="m632.82296,185.70894s-.36877-1.64606-.0968-3.25311c-2.64343-.17316-6.53369-.22021-9.09937.67914,2.02979,1.15198,3.92883,2.2605,5.31738,3.06403,1.47363-.70667,2.76746-1.32355,3.87878-.49005Z"/><path class="cls-7" d="m623.62679,183.13497c-4.69604-2.66522-10.06055-5.54352-11.24878-5.30591-1.28955.25793-3.28149,1.5307-4.65271,2.49493-.73938.51984-.69763,1.62866.07434,2.09888l14.54187,8.85889c-.12708-.43573-.13562-.8775.04602-1.31348.67212-1.61298,1.09082-2.0379,1.94995-2.29279.50195-.14899,1.15381-.24011,2.09644-.47577.88867-.22217,1.72461-.62396,2.51025-1.00073-1.38855-.80353-3.2876-1.91205-5.31738-3.06403Z"/><path class="cls-26" d="m634.52669,179.74581c-1.12744.52032-1.61377,1.60608-1.80054,2.71002-.27197,1.60706.0968,3.25311.0968,3.25311l1.70374,1.27777c.57251-.19086,1.56323-.03955,2.75403.28857,2.30164.63428,5.37427,1.95343,7.86108,2.95258.05811-3.32318.27844-6.88849.80261-10.21204-4.31909-.53241-9.80884-1.01257-11.41772-.27002Z"/><path class="cls-10" d="m632.82296,185.70894c-1.11133-.8335-2.40515-.21661-3.87878.49005-.78564.37677-1.62158.77856-2.51025,1.00073-.94263.23566-1.59448.32678-2.09644.47577-.85913.25488-1.27783.67981-1.94995,2.29279-.18164.43597-.1731.87775-.04602,1.31348.6178,2.11823,4.27405,4.08337,5.15723,4.43665-1.58813-1.83246.11841-4.15442,2.34387-5.96301.91528-.7439,1.91699-1.40112,2.81531-1.901.72498-.4035,1.38208-.70544,1.86877-.86768l-1.70374-1.27777Z"/><path class="cls-25" d="m654.02071,172.54598c-1.04785-.67438-1.96643-.93317-2.61267-.63464-.0957.04425-.18652.09869-.26978.1676-1.29272,1.06793-3.25415,2.69476-3.40747,5.32422-.05286.90485-.02002,1.87006.05847,2.85138.4176,5.22174,2.29187,10.95886,1.43225,11.20453-.51135.14612-2.10962-.4397-4.07971-1.2312-2.48682-.99915-5.55945-2.3183-7.86108-2.95258-1.1908-.32812-2.18152-.47943-2.75403-.28857-.48669.16223-1.1438.46417-1.86877.86768-.89832.49988-1.90002,1.1571-2.81531,1.901-2.22546,1.80859-3.93201,4.13055-2.34387,5.96301,1.94849,2.24835,11.17249,5.76013,18.1012,7.64465,2.91602.79315,5.42822,1.30005,6.81616,1.30005,2.00403,0,11.4502-5.85022,11.50024-13.20404.05151-7.57037-5.87988-16.32867-9.89563-18.91309Z"/><path class="cls-5" d="m681.16683,195.50545c-4.64758-12.65631-12.00085-25.35284-13.2041-26.19507-.51831-.36273-1.22729-.97797-2.12988-1.61804-2.1062-1.49353-5.27429-3.12262-9.58472-2.00549-1.4342.3717-2.99426,1.04651-4.68396,2.13275-.89014.5722-1.65759,1.38214-2.32617,2.36353-1.65833,2.43408-2.68347,5.96442-3.29358,9.8327-.52417,3.32355-.74451,6.88885-.80261,10.21204,1.97009.7915,3.56836,1.37732,4.07971,1.2312.85962-.24567-1.01465-5.98279-1.43225-11.20453-.07849-.98132-.11133-1.94653-.05847-2.85138.15332-2.62946,2.11475-4.25629,3.40747-5.32422.08325-.06891.17407-.12335.26978-.1676.64624-.29852,1.56482-.03973,2.61267.63464,4.01575,2.58441,9.94714,11.34271,9.89563,18.91309-.05005,7.35382-9.49622,13.20404-11.50024,13.20404-1.38794,0-3.90015-.5069-6.81616-1.30005,0,.0047.0011.01855.0011.02222,0,.85187,3.19446,28.96375,6.38904,31.3064.59485.43622,1.48572.46521,2.56812.18127,4.73083-1.24084,13.13281-8.47821,16.59912-14.02423,2.32666-3.72278,6.36719-4.77429,9.55664-4.96405.66232-.0394,1.28799-.04168,1.85394-.02293,1.56086.0517,2.82188-1.25567,2.65893-2.80886-.44899-4.27977-1.69023-11.09371-4.06-17.54742Z"/><path class="cls-17" d="m680.3149,307.10091c-1.22009-.22186-2.49731-1.43164-3.71252-3.25653-1.31006,2.19305-1.82471,4.96027-1.82471,4.96027,0,0,17.03748-1.27783,20.65796-1.70374,2.7439-.32281,1.08594-4.92139.12134-7.13196-3.73462,3.24548-13.25195,7.49377-15.24207,7.13196Z"/><path class="cls-29" d="m685.42611,263.4424c-.85181-3.62048-.4259-23.85248.21301-32.79718.45044-6.30634-2.90344-11.96368-4.92517-14.76056-3.18945.18976-7.22998,1.24127-9.55664,4.96405-3.46631,5.54602-11.86829,12.78339-16.59912,14.02423.49243,4.73114,2.90894,11.52612,3.60791,13.44867.85193,2.34265,12.7782,26.62103,15.75977,34.71387,2.98145,8.09277-2.34277,9.37061-.42603,14.48181.91846,2.44928,1.98438,4.64807,3.10254,6.32709,1.21521,1.82489,2.49243,3.03467,3.71252,3.25653,1.99011.36182,11.50745-3.88647,15.24207-7.13196.6615-.57495,1.14502-1.11902,1.36938-1.59979,1.49084-3.19452-10.64844-31.30634-11.50024-34.92676Z"/></g><g><path class="cls-18" d="m652.8805,157.48523c-.48279,2.05487,2.35242,8.34882,2.36707,8.38147,4.31042-1.11713,7.47852.51196,9.58472,2.00549,1.61865-2.13586,2.88794-4.95685,2.83826-6.15704-6.0426.23346-11.0835-1.86194-14.79004-4.22992Z"/><path class="cls-2" d="m652.8805,157.48523c-.0011-.00073-.0022-.00134-.0033-.00208-1.0033-.64117-1.90723-1.29968-2.70825-1.93872-.79004,2.38-3.80957,12.00543-1.948,14.79767.005.00757.01147.01337.01648.02087.66858-.98138,1.43604-1.79132,2.32617-2.36353,1.6897-1.08624,3.24976-1.76105,4.68396-2.13275-.01465-.03265-2.84985-6.3266-2.36707-8.38147Z"/><path class="cls-2" d="m660.78614,140.95245s-8.94482.4259-11.92627,9.58356c0,0-2.98157-1.06482-2.98157.85187,0,0,1.52502,1.95001,4.29065,4.15656.80103.63904,1.70496,1.29755,2.70825,1.93872l.02905-.13214c-.01294.03906-.01562.09137-.02576.13422,3.70654,2.36798,8.74744,4.46338,14.79004,4.22992,1.01501-.03925,2.05505-.1369,3.12512-.31775,0,0,1.91663-1.49078,1.91663-3.83344s-.63892-14.05591-11.92615-16.61151Z"/><path class="cls-2" d="m652.90626,157.35101l-.02905.13214c.0011.00073.0022.00134.0033.00208.01013-.04285.01282-.09515.02576-.13422Z"/><path class="cls-2" d="m631.82239,185.88879s-.36877-1.64606-.0968-3.25311c-2.64343-.17316-6.53369-.22021-9.09937.67914,2.02979,1.15198,3.92883,2.2605,5.31738,3.06403,1.47363-.70667,2.76746-1.32355,3.87878-.49005Z"/><path class="cls-2" d="m622.62623,183.31482c-4.69604-2.66522-10.06055-5.54352-11.24878-5.30591-1.28955.25793-3.28149,1.5307-4.65271,2.49493-.73938.51984-.69763,1.62866.07434,2.09888l14.54187,8.85889c-.12708-.43573-.13562-.8775.04602-1.31348.67212-1.61298,1.09082-2.0379,1.94995-2.29279.50195-.14899,1.15381-.24011,2.09644-.47577.88867-.22217,1.72461-.62396,2.51025-1.00073-1.38855-.80353-3.2876-1.91205-5.31738-3.06403Z"/><path class="cls-2" d="m633.52613,179.92566c-1.12744.52032-1.61377,1.60608-1.80054,2.71002-.27197,1.60706.0968,3.25311.0968,3.25311l1.70374,1.27777c.57251-.19086,1.56323-.03955,2.75403.28857,2.30164.63428,5.37427,1.95343,7.86108,2.95258.05811-3.32318.27844-6.88849.80261-10.21204-4.31909-.53241-9.80884-1.01257-11.41772-.27002Z"/><path class="cls-2" d="m631.82239,185.88879c-1.11133-.8335-2.40515-.21661-3.87878.49005-.78564.37677-1.62158.77856-2.51025,1.00073-.94263.23566-1.59448.32678-2.09644.47577-.85913.25488-1.27783.67981-1.94995,2.29279-.18164.43597-.1731.87775-.04602,1.31348.6178,2.11823,4.27405,4.08337,5.15723,4.43665-1.58813-1.83246.11841-4.15442,2.34387-5.96301.91528-.7439,1.91699-1.40112,2.81531-1.901.72498-.4035,1.38208-.70544,1.86877-.86768l-1.70374-1.27777Z"/><path class="cls-2" d="m653.02015,172.72583c-1.04785-.67438-1.96643-.93317-2.61267-.63464-.0957.04425-.18652.09869-.26978.1676-1.29272,1.06793-3.25415,2.69476-3.40747,5.32422-.05286.90485-.02002,1.87006.05847,2.85138.4176,5.22174,2.29187,10.95886,1.43225,11.20453-.51135.14612-2.10962-.4397-4.07971-1.2312-2.48682-.99915-5.55945-2.3183-7.86108-2.95258-1.1908-.32812-2.18152-.47943-2.75403-.28857-.48669.16223-1.1438.46417-1.86877.86768-.89832.49988-1.90002,1.1571-2.81531,1.901-2.22546,1.80859-3.93201,4.13055-2.34387,5.96301,1.94849,2.24835,11.17249,5.76013,18.1012,7.64465,2.91602.79315,5.42822,1.30005,6.81616,1.30005,2.00403,0,11.4502-5.85022,11.50024-13.20404.05151-7.57037-5.87988-16.32867-9.89563-18.91309Z"/><path class="cls-2" d="m680.16627,195.6853c-4.64758-12.65631-12.00085-25.35284-13.2041-26.19507-.51831-.36273-1.22729-.97797-2.12988-1.61804-2.1062-1.49353-5.27429-3.12262-9.58472-2.00549-1.4342.3717-2.99426,1.04651-4.68396,2.13275-.89014.5722-1.65759,1.38214-2.32617,2.36353-1.65833,2.43408-2.68347,5.96442-3.29358,9.8327-.52417,3.32355-.74451,6.88885-.80261,10.21204,1.97009.7915,3.56836,1.37732,4.07971,1.2312.85962-.24567-1.01465-5.98279-1.43225-11.20453-.07849-.98132-.11133-1.94653-.05847-2.85138.15332-2.62946,2.11475-4.25629,3.40747-5.32422.08325-.06891.17407-.12335.26978-.1676.64624-.29852,1.56482-.03973,2.61267.63464,4.01575,2.58441,9.94714,11.34271,9.89563,18.91309-.05005,7.35382-9.49622,13.20404-11.50024,13.20404-1.38794,0-3.90015-.5069-6.81616-1.30005,0,.0047.0011.01855.0011.02222,0,.85187,3.19446,28.96375,6.38904,31.3064.59485.43622,1.48572.46521,2.56812.18127,4.73083-1.24084,13.13281-8.47821,16.59912-14.02423,2.32666-3.72278,6.36719-4.77429,9.55664-4.96405.66232-.0394,1.28799-.04168,1.85394-.02293,1.56086.0517,2.82188-1.25567,2.65893-2.80886-.44899-4.27977-1.69023-11.09371-4.06-17.54742Z"/><path class="cls-2" d="m679.31434,307.28076c-1.22009-.22186-2.49731-1.43164-3.71252-3.25653-1.31006,2.19305-1.82471,4.96027-1.82471,4.96027,0,0,17.03748-1.27783,20.65796-1.70374,2.7439-.32281,1.08594-4.92139.12134-7.13196-3.73462,3.24548-13.25195,7.49377-15.24207,7.13196Z"/><path class="cls-2" d="m684.42554,263.62225c-.85181-3.62048-.4259-23.85248.21301-32.79718.45044-6.30634-2.90344-11.96368-4.92517-14.76056-3.18945.18976-7.22998,1.24127-9.55664,4.96405-3.46631,5.54602-11.86829,12.78339-16.59912,14.02423.49243,4.73114,2.90894,11.52612,3.60791,13.44867.85193,2.34265,12.7782,26.62103,15.75977,34.71387,2.98145,8.09277-2.34277,9.37061-.42603,14.48181.91846,2.44928,1.98438,4.64807,3.10254,6.32709,1.21521,1.82489,2.49243,3.03467,3.71252,3.25653,1.99011.36182,11.50745-3.88647,15.24207-7.13196.6615-.57495,1.14502-1.11902,1.36938-1.59979,1.49084-3.19452-10.64844-31.30634-11.50024-34.92676Z"/></g><path class="cls-2" d="m684.42554,263.62225s-4.96214-20.33274-3.95562-28.04933"/><path class="cls-2" d="m657.32015,202.69355s6.37457,17.78171,5.36806,36.56993c-1.00651,18.78822,6.71008,40.93148,16.43969,36.90543s12.36332-23.92238,5.51065-45.34383"/></g><rect class="cls-19" x="679.31434" y="127.21967" width="4.69458" height="180.0611"/><rect class="cls-2" x="678.09679" y="126.40797" width="4.69458" height="180.0611"/><rect class="cls-19" x="420.63485" y="-62.65474" width="4.69459" height="581.36183" transform="translate(651.00831 -194.95597) rotate(90)"/><rect class="cls-2" x="421.68948" y="-61.42381" width="4.69459" height="580.33059" transform="translate(652.77826 -195.29529) rotate(90)"/><rect class="cls-19" x="710.99256" y="12.72113" width="4.69458" height="454.99541"/><rect class="cls-2" x="710.43336" y="9.72687" width="4.69458" height="457.98967"/><rect class="cls-2" x="129.17585" y="9.72687" width="4.69458" height="457.98967"/><path class="cls-18" d="m585.82432,173.91362c.16049-.10098.34195.08324.2367.24096-1.21288,1.81739-6.29847,5.97993-9.46266,5.71064-1.52836-.13007,13.91704,9.18238,6.59627,22.43703-1.39656,2.52854-7.74105,10.36236-9.29656,11.46781-.192.13645,2.72381-5.49282,1.68931-7.77083-3.72369-8.19968-10.07082-24.23328-6.84171-25.0018,0,0-3.02675-3.77681-2.04738-4.51454,0,0,13.53507.9486,19.12603-2.56926Z"/></svg>