<?xml version="1.0" encoding="utf-8"?>
<!-- Generator: Adobe Illustrator 23.0.6, SVG Export Plug-In . SVG Version: 6.00 Build 0)  -->
<svg version="1.1" xmlns="http://www.w3.org/2000/svg" xmlns:xlink="http://www.w3.org/1999/xlink" x="0px" y="0px"
	 viewBox="0 0 841.89 467.72" style="enable-background:new 0 0 841.89 467.72;" xml:space="preserve">
<style type="text/css">
	.st0{clip-path:url(#SVGID_2_);fill:#DCEFFA;}
	.st1{clip-path:url(#SVGID_2_);fill:#FFFFFF;}
	.st2{clip-path:url(#SVGID_2_);fill:#4890BA;}
	.st3{clip-path:url(#SVGID_2_);}
	.st4{fill:#E0635D;}
	.st5{fill:#61A575;}
	.st6{fill:#4890BA;}
	.st7{fill:#F5C65D;}
	.st8{fill:#F4F4F5;}
	.st9{fill:#54575C;}
	.st10{clip-path:url(#SVGID_2_);fill:none;stroke:#54575C;stroke-miterlimit:10;}
	.st11{fill:#FFFFFF;}
	.st12{fill:none;stroke:#54575C;stroke-miterlimit:10;}
	.st13{fill:#F4A884;}
	.st14{fill:#61A575;stroke:#61A575;stroke-miterlimit:10;}
	.st15{fill:none;stroke:#54575C;stroke-linecap:round;stroke-linejoin:round;stroke-miterlimit:10;}
	.st16{fill:none;stroke:#54575C;stroke-width:0.75;stroke-miterlimit:10;}
	.st17{fill:none;stroke:#F4F4F5;stroke-miterlimit:10;}
	.st18{fill:none;stroke:#54575C;stroke-width:0.75;stroke-linecap:round;stroke-linejoin:round;stroke-miterlimit:10;}
	.st19{fill:#54575C;stroke:#54575C;stroke-width:0.6726;stroke-miterlimit:10;}
	.st20{fill:#54575C;stroke:#54575C;stroke-width:0.9015;stroke-miterlimit:10;}
	.st21{fill:#C9755C;}
	.st22{fill:#54575C;stroke:#54575C;stroke-miterlimit:10;}
	.st23{fill:#235485;}
	.st24{fill:none;stroke:#54575C;stroke-linejoin:round;stroke-miterlimit:10;}
</style>
<g id="Layer_1">
</g>
<g id="Layer_2">
</g>
<g id="Layer_3">
	<g>
		<defs>
			<rect id="SVGID_1_" x="-1.94" y="-0.53" width="845.77" height="468.77"/>
		</defs>
		<clipPath id="SVGID_2_">
			<use xlink:href="#SVGID_1_"  style="overflow:visible;"/>
		</clipPath>
		<rect x="-1.94" y="-0.53" class="st0" width="845.77" height="468.77"/>
		<path class="st1" d="M-45.79,305.35c10.59-2.65,925.19-99.27,925.19-99.27l-29.12,140.3L25.68,476.09c0,0-34.41-6.62-31.77-10.59
			S-45.79,305.35-45.79,305.35z"/>
		<path class="st2" d="M-56.17,310.02c10.59-2.65,925.19-99.27,925.19-99.27l-29.12,140.3L15.3,480.76c0,0-34.41-6.62-31.77-10.59
			C-13.82,466.2-56.17,310.02-56.17,310.02z"/>
		<g class="st3">
			<polygon class="st4" points="122.52,187.65 109.44,212.72 120.34,213.26 131.24,186.56 			"/>
			<path class="st5" d="M288.16,106.47c-0.54,2.18-7.08,23.97-19.62,27.24l3.27,8.72c0,0,27.79-21.25,27.79-26.15L288.16,106.47z"/>
			<path class="st4" d="M226.59,77.04c0,0-13.08-5.45-21.25-25.06l-7.63,10.9c0,0,20.71,21.25,25.61,20.71L226.59,77.04z"/>
			<path class="st6" d="M346.46,100.47c0,0-0.54,32.15,2.18,34.87l9.81,1.63c0,0-4.9-38.14-2.18-39.78L346.46,100.47z"/>
			<path class="st6" d="M625.44,144.06c0,0,1.63,36.51,22.34,33.78l2.72-8.72c0,0-14.71-1.09-15.26-13.08
				c-0.54-11.99-2.72-17.44-2.72-17.44L625.44,144.06z"/>
			<path class="st7" d="M541.53,25.28l-9.81,35.96l9.26,1.09c0,0,1.09-28.33,10.35-29.42L541.53,25.28z"/>
			<circle class="st7" cx="274" cy="49.8" r="4.36"/>
			<circle class="st4" cx="591.11" cy="65.6" r="4.9"/>
			<circle class="st7" cx="164.75" cy="255.49" r="4.63"/>
			<circle class="st7" cx="674.76" cy="98.14" r="4.63"/>
			<circle class="st4" cx="302.56" cy="158.83" r="4.63"/>
			<circle class="st6" cx="178.42" cy="142.08" r="4.63"/>
		</g>
		<g class="st3">
			<path class="st7" d="M424.88,135.29c0-0.35,0.19-21.83-2.33-31.56c-0.66-2.55-0.8-3.74-2.59-4.64c-4.89-2.44,0.89,5.06,3.87,4.62
				s10.43-5.51,7.89-7.6c-2.53-2.09-1.79,5.96,0.3,6.4c2.09,0.45,5.66-8.19,3.72-7c-1.94,1.19-1.79,6.4-0.15,6.55l-3.13,32.77"/>
			<g>
				<path class="st7" d="M445.7,106.45c-0.09-1.16-0.39-28.68-20.15-29.07c-6.1-0.12-19.29,8.8-17.11,25.59
					c2.07,15.95,13.99,28.91,15.06,30.77c0.48,0.83,1.18,1.46,2.44,1.78c6.2,1.55,10.85-3.1,10.85-3.1S446.18,112.94,445.7,106.45z"
					/>
				<path class="st8" d="M428.31,148.39c-1.67-0.35-2.88-0.85-3.79-1.41c0.42,3.11,2.97,6.29,7.66,6.17c3.77-0.1,4.65-4.97,4.85-7.3
					C435.64,147.38,432.86,149.36,428.31,148.39z"/>
				<path class="st9" d="M437.99,137.07c1.94-1.19-1.21-4.65-1.21-4.65s-4.65,4.65-10.85,3.1c-1.26-0.32-1.96-0.94-2.44-1.78
					c-0.18,0.07-0.36,0.12-0.54,0.2c-7.89,3.13-0.89,8.94-0.89,8.94s-0.42,2.33,2.47,4.1c0.9,0.55,2.12,1.05,3.79,1.41
					c4.55,0.97,7.33-1.02,8.72-2.53c0.75-0.81,1.11-1.49,1.11-1.49C441.12,143.18,437.99,137.07,437.99,137.07z"/>
			</g>
		</g>
		<path class="st10" d="M48.99,463.74c2.47,0.82,787.52-138.1,787.52-138.1"/>
		<path class="st10" d="M-22.77,302.65c2.47,0.82,874.89-93.97,874.89-93.97"/>
		<path class="st10" d="M111.46,467.03c6.58-0.82,729.97-123.31,729.97-123.31"/>
		<g class="st3">
			<polygon class="st11" points="218.69,316.12 213.58,308.67 155.39,332.74 183.11,422 199.24,418.21 173.36,334.87 			"/>
			<polygon class="st11" points="231.55,310.8 218.69,316.12 173.36,334.87 199.24,418.21 201.09,424.13 294.31,402.2 			"/>
			<polygon class="st12" points="221.74,317.64 216.62,310.19 158.43,334.26 186.16,423.53 202.29,419.73 176.41,336.39 			"/>
			<polygon class="st12" points="234.6,312.32 221.74,317.64 176.41,336.39 202.29,419.73 204.13,425.66 297.36,403.72 			"/>
			<g>
				<path class="st12" d="M185.91,345.2c1.14-0.38,32.36-14.09,32.36-14.09"/>
				<path class="st12" d="M190.63,358.68c0.91-0.3,33.73-13.63,33.73-13.63"/>
				<path class="st12" d="M195.35,372.16c0.69-0.23,35.11-13.17,35.11-13.17"/>
				<path class="st12" d="M200.07,385.64c0.46-0.15,36.48-12.72,36.48-12.72"/>
				<path class="st12" d="M204.79,399.12c0.23-0.08,37.85-12.26,37.85-12.26"/>
				<line class="st12" x1="209.51" y1="412.6" x2="248.73" y2="400.79"/>
			</g>
			<path class="st12" d="M222.84,326.93c1.9,0.76,4.95,4.19,4.95,4.19l4.19-9.9"/>
			<path class="st12" d="M229.69,342.16c0,0,4.95,6.09,5.71,3.81s4.19-11.42,4.19-11.42"/>
			<path class="st12" d="M240.36,358.15c-1.52,0,4.95,8.76,5.33,5.71c0.38-3.05,2.28-14.09,2.28-14.09"/>
			<polyline class="st12" points="247.59,376.42 255.21,381.75 262.06,367.29 			"/>
		</g>
		<g class="st3">
			<path class="st9" d="M429.45,299.27l-4.65-114.43c-0.11-3.54-3.2-6.24-6.73-5.88l-159.92,16.61c-3.24,0.33-5.64,3.15-5.47,6.4
				l6.69,121.83l52.25,49.41l182.34-31.53L429.45,299.27z"/>
			<g>
				<g>
					<path class="st8" d="M416.41,190.76c-0.1-2.28-2.09-4-4.36-3.79l-148.08,14.12c-2.15,0.21-3.75,2.09-3.6,4.25l6.26,106.72
						c0.16,2.29,2.22,3.97,4.49,3.67l133.12-18.56c-1.52-7.91-6.5-31.19-5.55-34.39c-0.76,0.24-1.27,0.39-1.27,0.39
						s0.03-11.65-0.45-14.29c-0.48-2.64-4.32-6.36-2.52-9.24c0.35-0.55,0.67-1.27,0.96-2.06c-2.64,0.68-11.83,2.41-17.04-1.65
						l0.04-0.44c-2.27-0.61-5.2-1.41-7.36-1.83c-1.25-0.24-2.5,0.29-2.87,0.23c-1.19-0.18-0.56-0.85-0.2-1.16
						c0.08-0.07,0.05-0.19-0.05-0.22c-0.82-0.23-3.4-1.01-3.7-1.79c-0.12-0.31,1.73-0.24,1.97-0.84c0.05-0.12,0.4-0.52,0.54-0.6
						c0.43-0.22,0.51-0.07,1.14,0.06c0.18,0.04,0.45-0.2,0.72-0.12c0.96,0.28,1.4,1.28,2.57,1.49c3.6,0.65,7.56,0.76,7.56,0.76
						s11.43,1.38,18.66-1.76c0.03-0.18,0.05-0.28,0.05-0.28s0.8-1.39,2.36-2.33c0.57-0.34,1.69-0.01,2.27-0.4
						c0.11-0.44,0.16-0.91,0.17-1.38c-1.74,0.7-4.1,1.06-6.58-0.3c0,0-2.4-15.35,1.12-14.87c0,0,4.48-6.07,9.43-0.96
						c4.96,5.12,4.8,9.91,4.16,10.55c-0.39,0.39-2.69,1.44-4.43,2.2c0.17,0.4,0.32,0.77,0.45,1.09c0.89-0.44,2.18-0.65,3.65,0.28
						c2.64,1.68,5.63,10.93,4.79,17.52c-0.84,6.6-0.12,15.11-1.08,15.82c-0.11,0.08-0.6,1.59-1.18,3.23
						c1.02,3.04,2.04,7.57,2.23,13.05c0.26,7.62,1.57,17.61,2.27,22.54l0.45-0.06c2.06-0.27,3.57-2.07,3.47-4.14L416.41,190.76z"/>
					<path class="st12" d="M368.77,233.13c-0.4-0.13-26.75-11.39-26.75-11.39"/>
					<path class="st6" d="M412.58,259.92c-0.7,2.01-1.52,4.21-1.87,4.19c-0.25-0.01-0.71-0.01-1.24-0.05
						c-0.49,1.53-0.89,3.03-0.77,3.57c0.29,1.25-1.15,7-1.44,8.06c-0.22,0.79-0.43,0.75-0.65,0.62c-0.07-0.05-0.22,0.03-0.22,0.03
						s-0.4,0.41-0.6,0.93c-0.07,0.17-0.52-0.26-0.77-0.47c-0.09-0.07-0.16,0.08-0.16,0.08s-0.08-0.04-0.66,0.63
						s-0.96-1.54-1.06-1.25c-0.18,0.56-0.86,1.15-0.86,1.15c-0.77,0.29,0.86-6.24,0.86-6.24s-0.96,0.96-1.82,1.34
						c-0.64,0.28,2.69-6.53,4.77-10.27c-0.35-1.02-0.01-2.8,0.38-4.24c-0.11,0.06-0.22,0.13-0.34,0.19c-0.59,1.18-1.34,2.4-2.06,2.7
						c-1.42,0.6-3.88,1.4-5.38,1.87c-0.95,3.2,4.03,26.48,5.55,34.39l12.85-1.67c-0.7-4.93-2.01-14.92-2.27-22.54
						C414.62,267.49,413.6,262.96,412.58,259.92z"/>
					<path class="st11" d="M371.17,230.73c-1.17-0.21-1.61-1.21-2.57-1.49c-0.27-0.08-0.54,0.15-0.72,0.12
						c-0.63-0.13-0.71-0.28-1.14-0.06c-0.14,0.07-0.49,0.48-0.54,0.6c-0.24,0.6-2.09,0.53-1.97,0.84c0.3,0.78,2.88,1.56,3.7,1.79
						c0.1,0.03,0.13,0.15,0.05,0.22c-0.36,0.31-1,0.97,0.2,1.16c0.37,0.06,1.62-0.48,2.87-0.23c2.16,0.42,5.09,1.22,7.36,1.83
						l0.32-4C378.74,231.49,374.77,231.38,371.17,230.73z"/>
					<path class="st13" d="M371.17,231.52c-1.17-0.21-1.61-1.21-2.57-1.49c-0.27-0.08-0.54,0.15-0.72,0.12
						c-0.63-0.13-0.71-0.28-1.14-0.06c-0.14,0.07-0.49,0.48-0.54,0.6c-0.24,0.6-2.09,0.53-1.97,0.84c0.3,0.78,2.88,1.56,3.7,1.79
						c0.1,0.03,0.13,0.15,0.05,0.22c-0.36,0.31-1,0.97,0.2,1.16c0.37,0.06,1.62-0.48,2.87-0.23c2.16,0.42,5.09,1.22,7.36,1.83
						l0.32-4C378.74,232.28,374.77,232.17,371.17,231.52z"/>
					<path class="st4" d="M378.74,231.49l-0.32,4l-0.04,0.44c5.21,4.06,14.4,2.33,17.04,1.65c1.07-2.88,1.8-6.79,1.99-7.85
						C390.17,232.87,378.74,231.49,378.74,231.49z"/>
					<path class="st11" d="M405.54,215.98c0,0-0.72-6.6-7.68-3c0,0-0.96,4.32-0.6,5.76c0.36,1.44,0.87,4.75,2.55,4.87
						c0.34,0.02,1.08-0.01,1.58-0.17c0.25,0.94,0.8,1.61,0.78,2.82c-0.01,0.48-0.06,0.95-0.17,1.38c1.35-0.91,2.59-1.88,3.05-2.67
						c0.1-0.17,0.56-0.66,1.27-1c-0.13-0.32-0.29-0.69-0.45-1.09c-0.21-0.51-0.45-1.05-0.67-1.58c0.7-0.37,1.17-0.64,1.17-0.64
						l0.12-2.28C406.5,218.38,409.61,214.9,405.54,215.98z"/>
					<path class="st13" d="M406.03,215.68c0,0-0.72-6.6-7.68-3c0,0-0.96,4.32-0.6,5.76c0.36,1.44,0.87,4.75,2.55,4.87
						c0.34,0.02,1.08-0.01,1.58-0.17c0.25,0.94,0.8,1.61,0.78,2.82c-0.01,0.48-0.06,0.95-0.17,1.38c1.35-0.91,2.59-1.88,3.05-2.67
						c0.1-0.17,0.56-0.66,1.27-1c-0.13-0.32-0.29-0.69-0.45-1.09c-0.21-0.51-0.45-1.05-0.67-1.58c0.7-0.37,1.17-0.64,1.17-0.64
						l0.12-2.28C406.99,218.08,410.11,214.6,406.03,215.68z"/>
					<path class="st13" d="M406.1,262.32c-0.01-0.02-0.01-0.04-0.02-0.06c-2.08,3.74-5.41,10.55-4.77,10.27
						c0.86-0.38,1.82-1.34,1.82-1.34s-1.63,6.53-0.86,6.24c0,0,0.68-0.6,0.86-1.15c0.09-0.29,0.48,1.92,1.06,1.25
						s0.66-0.63,0.66-0.63s0.08-0.16,0.16-0.08c0.25,0.2,0.7,0.64,0.77,0.47c0.21-0.52,0.6-0.93,0.6-0.93s0.14-0.07,0.22-0.03
						c0.22,0.14,0.44,0.18,0.65-0.62c0.29-1.06,1.73-6.81,1.44-8.06c-0.12-0.54,0.28-2.04,0.77-3.57
						C408.24,263.98,406.6,263.65,406.1,262.32z"/>
					<path class="st4" d="M406.13,258.21c0.11-0.06,0.23-0.13,0.34-0.19c-0.39,1.45-0.73,3.22-0.38,4.24
						c0.01,0.02,0.01,0.04,0.02,0.06c0.5,1.34,2.14,1.66,3.38,1.75c0.53,0.04,0.99,0.04,1.24,0.05c0.36,0.01,1.17-2.19,1.87-4.19
						c0.57-1.64,1.07-3.15,1.18-3.23c0.96-0.72,0.24-9.23,1.08-15.82c0.84-6.6-2.15-15.84-4.79-17.52
						c-1.47-0.93-2.75-0.72-3.65-0.28c-0.71,0.35-1.17,0.84-1.27,1c-0.46,0.78-1.7,1.76-3.05,2.67c-0.58,0.39-1.7,0.06-2.27,0.4
						c-1.55,0.94-2.36,2.33-2.36,2.33s-0.02,0.11-0.05,0.28c-0.19,1.06-0.91,4.97-1.99,7.85c-0.3,0.8-0.62,1.51-0.96,2.06
						c-1.8,2.88,2.04,6.6,2.52,9.24c0.48,2.64,0.45,14.29,0.45,14.29s0.51-0.16,1.27-0.39c1.5-0.47,3.96-1.28,5.38-1.87
						C404.78,260.61,405.54,259.39,406.13,258.21z"/>
				</g>
				<g>
					<path class="st14" d="M297.64,209.3c-0.54,0-0.97,0.43-0.97,0.97c0,0.54,0.43,0.97,0.97,0.97c0.53,0,0.97-0.43,0.97-0.97
						C298.61,209.74,298.17,209.3,297.64,209.3z"/>
					<path class="st14" d="M300.42,211.22c0.05-0.15,0.18-0.27,0.34-0.29l1.37-0.22c0.01-0.15,0.02-0.29,0.02-0.43
						c0-0.13-0.01-0.28-0.02-0.42l-1.37-0.22c-0.16-0.03-0.29-0.14-0.34-0.29c-0.04-0.12-0.1-0.24-0.16-0.37
						c-0.07-0.15-0.06-0.32,0.04-0.45l0.81-1.12c-0.18-0.22-0.38-0.42-0.61-0.6l-1.12,0.8c-0.13,0.1-0.3,0.12-0.45,0.04
						c-0.13-0.06-0.26-0.11-0.37-0.15c-0.15-0.05-0.27-0.18-0.29-0.34l-0.22-1.37c-0.29-0.03-0.57-0.03-0.86,0l-0.22,1.37
						c-0.02,0.17-0.14,0.29-0.29,0.34c-0.12,0.04-0.24,0.09-0.38,0.15c-0.14,0.08-0.31,0.06-0.44-0.04l-1.12-0.8
						c-0.22,0.18-0.42,0.38-0.61,0.6l0.82,1.12c0.1,0.13,0.11,0.31,0.03,0.45c-0.06,0.11-0.12,0.24-0.15,0.37
						c-0.05,0.15-0.18,0.27-0.34,0.29l-1.37,0.22c-0.01,0.14-0.02,0.28-0.02,0.42c0,0.14,0.01,0.28,0.02,0.43l1.37,0.22
						c0.16,0.03,0.29,0.14,0.34,0.29c0.04,0.12,0.09,0.24,0.15,0.37c0.08,0.14,0.06,0.32-0.03,0.45l-0.82,1.12
						c0.18,0.22,0.39,0.42,0.61,0.6l1.12-0.82c0.13-0.09,0.3-0.12,0.45-0.02c0.11,0.05,0.24,0.1,0.37,0.15
						c0.15,0.05,0.27,0.18,0.29,0.33l0.22,1.37c0.28,0.02,0.58,0.02,0.86,0l0.22-1.37c0.02-0.15,0.13-0.28,0.29-0.33
						c0.13-0.05,0.26-0.1,0.38-0.17c0.15-0.06,0.32-0.05,0.45,0.04l1.12,0.82c0.22-0.18,0.42-0.38,0.6-0.6l-0.81-1.12
						c-0.1-0.13-0.11-0.31-0.04-0.45C300.33,211.45,300.38,211.33,300.42,211.22z M297.64,212.1c-1.01,0-1.83-0.82-1.83-1.83
						c0-1.01,0.82-1.82,1.83-1.82c1.01,0,1.82,0.82,1.82,1.82C299.46,211.28,298.64,212.1,297.64,212.1z"/>
					<path class="st14" d="M297.64,208.45c-1.01,0-1.83,0.82-1.83,1.82c0,1.01,0.82,1.83,1.83,1.83c1.01,0,1.82-0.82,1.82-1.83
						C299.46,209.26,298.64,208.45,297.64,208.45z M297.64,211.24c-0.54,0-0.97-0.43-0.97-0.97c0-0.54,0.43-0.97,0.97-0.97
						c0.53,0,0.97,0.43,0.97,0.97C298.61,210.81,298.17,211.24,297.64,211.24z"/>
				</g>
				<g>
					<path class="st14" d="M295.48,220.92c-0.54,0-0.97,0.43-0.97,0.97c0,0.54,0.43,0.97,0.97,0.97c0.53,0,0.97-0.43,0.97-0.97
						C296.45,221.35,296.01,220.92,295.48,220.92z"/>
					<path class="st14" d="M298.26,222.83c0.05-0.15,0.18-0.27,0.34-0.29l1.37-0.22c0.01-0.15,0.02-0.29,0.02-0.43
						c0-0.13-0.01-0.28-0.02-0.42l-1.37-0.22c-0.16-0.03-0.29-0.14-0.34-0.29c-0.04-0.12-0.1-0.24-0.16-0.37
						c-0.07-0.15-0.06-0.32,0.04-0.45l0.81-1.12c-0.18-0.22-0.38-0.42-0.61-0.6l-1.12,0.8c-0.13,0.1-0.3,0.12-0.45,0.04
						c-0.13-0.06-0.26-0.11-0.37-0.15c-0.15-0.05-0.27-0.18-0.29-0.34l-0.22-1.37c-0.29-0.03-0.57-0.03-0.86,0l-0.22,1.37
						c-0.02,0.17-0.14,0.29-0.29,0.34c-0.12,0.04-0.24,0.09-0.38,0.15c-0.14,0.08-0.31,0.06-0.44-0.04l-1.12-0.8
						c-0.22,0.18-0.42,0.38-0.61,0.6l0.82,1.12c0.1,0.13,0.11,0.31,0.03,0.45c-0.06,0.11-0.12,0.24-0.15,0.37
						c-0.05,0.15-0.18,0.27-0.34,0.29l-1.37,0.22c-0.01,0.14-0.02,0.28-0.02,0.42c0,0.14,0.01,0.28,0.02,0.43l1.37,0.22
						c0.16,0.03,0.29,0.14,0.34,0.29c0.04,0.12,0.09,0.24,0.15,0.37c0.08,0.14,0.06,0.32-0.03,0.45l-0.82,1.12
						c0.18,0.22,0.39,0.42,0.61,0.6l1.12-0.82c0.13-0.09,0.3-0.12,0.45-0.02c0.11,0.05,0.24,0.1,0.37,0.15
						c0.15,0.05,0.27,0.18,0.29,0.33l0.22,1.37c0.28,0.02,0.58,0.02,0.86,0l0.22-1.37c0.02-0.15,0.13-0.28,0.29-0.33
						c0.13-0.05,0.26-0.1,0.38-0.17c0.15-0.06,0.32-0.05,0.45,0.04l1.12,0.82c0.22-0.18,0.42-0.38,0.6-0.6l-0.81-1.12
						c-0.1-0.13-0.11-0.31-0.04-0.45C298.17,223.06,298.22,222.95,298.26,222.83z M295.48,223.71c-1.01,0-1.83-0.82-1.83-1.83
						c0-1.01,0.82-1.82,1.83-1.82c1.01,0,1.82,0.82,1.82,1.82C297.3,222.9,296.48,223.71,295.48,223.71z"/>
					<path class="st14" d="M295.48,220.06c-1.01,0-1.83,0.82-1.83,1.82c0,1.01,0.82,1.83,1.83,1.83c1.01,0,1.82-0.82,1.82-1.83
						C297.3,220.88,296.48,220.06,295.48,220.06z M295.48,222.86c-0.54,0-0.97-0.43-0.97-0.97c0-0.54,0.43-0.97,0.97-0.97
						c0.53,0,0.97,0.43,0.97,0.97C296.45,222.42,296.01,222.86,295.48,222.86z"/>
				</g>
				<g>
					<path class="st14" d="M286.08,213.09c-0.54,0-0.97,0.43-0.97,0.97c0,0.54,0.43,0.97,0.97,0.97c0.53,0,0.97-0.43,0.97-0.97
						C287.05,213.53,286.61,213.09,286.08,213.09z"/>
					<path class="st14" d="M288.87,215.01c0.05-0.15,0.18-0.27,0.34-0.29l1.37-0.22c0.01-0.15,0.02-0.29,0.02-0.43
						c0-0.13-0.01-0.28-0.02-0.42l-1.37-0.22c-0.16-0.03-0.29-0.14-0.34-0.29c-0.04-0.12-0.1-0.24-0.16-0.37
						c-0.07-0.15-0.06-0.32,0.04-0.45l0.81-1.12c-0.18-0.22-0.38-0.42-0.61-0.6l-1.12,0.8c-0.13,0.1-0.3,0.12-0.45,0.04
						c-0.13-0.06-0.26-0.11-0.37-0.15c-0.15-0.05-0.27-0.18-0.29-0.34l-0.22-1.37c-0.29-0.03-0.57-0.03-0.86,0l-0.22,1.37
						c-0.02,0.17-0.14,0.29-0.29,0.34c-0.12,0.04-0.24,0.09-0.38,0.15c-0.14,0.08-0.31,0.06-0.44-0.04l-1.12-0.8
						c-0.22,0.18-0.42,0.38-0.61,0.6l0.82,1.12c0.1,0.13,0.11,0.31,0.03,0.45c-0.06,0.11-0.12,0.24-0.15,0.37
						c-0.05,0.15-0.18,0.27-0.34,0.29l-1.37,0.22c-0.01,0.14-0.02,0.28-0.02,0.42c0,0.14,0.01,0.28,0.02,0.43l1.37,0.22
						c0.16,0.03,0.29,0.14,0.34,0.29c0.04,0.12,0.09,0.24,0.15,0.37c0.08,0.14,0.06,0.32-0.03,0.45l-0.82,1.12
						c0.18,0.22,0.39,0.42,0.61,0.6l1.12-0.82c0.13-0.09,0.3-0.12,0.45-0.02c0.11,0.05,0.24,0.1,0.37,0.15
						c0.15,0.05,0.27,0.18,0.29,0.33l0.22,1.37c0.28,0.02,0.58,0.02,0.86,0l0.22-1.37c0.02-0.15,0.13-0.28,0.29-0.33
						c0.13-0.05,0.26-0.1,0.38-0.17c0.15-0.06,0.32-0.05,0.45,0.04l1.12,0.82c0.22-0.18,0.42-0.38,0.6-0.6l-0.81-1.12
						c-0.1-0.13-0.11-0.31-0.04-0.45C288.78,215.24,288.83,215.12,288.87,215.01z M286.08,215.89c-1.01,0-1.83-0.82-1.83-1.83
						c0-1.01,0.82-1.82,1.83-1.82c1.01,0,1.82,0.82,1.82,1.82C287.91,215.07,287.09,215.89,286.08,215.89z"/>
					<path class="st14" d="M286.08,212.24c-1.01,0-1.83,0.82-1.83,1.82c0,1.01,0.82,1.83,1.83,1.83c1.01,0,1.82-0.82,1.82-1.83
						C287.91,213.06,287.09,212.24,286.08,212.24z M286.08,215.03c-0.54,0-0.97-0.43-0.97-0.97c0-0.54,0.43-0.97,0.97-0.97
						c0.53,0,0.97,0.43,0.97,0.97C287.05,214.6,286.61,215.03,286.08,215.03z"/>
				</g>
				<g>
					<path class="st5" d="M373.03,216.85c0.35,0.92,1.1,1.81,2.51,1.81c1.15,0,1.92-0.64,1.92-1.72c0-2.71-5.77-2.11-5.77-6.23
						c0-1.79,1.21-3.17,3.19-3.41v-1.03h1.36v1.03c1.94,0.29,2.8,1.76,3.09,2.56l-1.68,0.75c-0.29-0.62-0.88-1.5-2.14-1.5
						c-1.14,0-1.78,0.7-1.78,1.58c0,2.53,5.8,2.07,5.8,6.1c0,1.9-1.24,3.41-3.3,3.7v1.39h-1.36v-1.37
						c-2.23-0.22-3.22-1.79-3.57-2.86L373.03,216.85z"/>
				</g>
				<g>
					<path class="st14" d="M356.66,205.4h2.28v-2.43h1.13v2.43h2.28v1.07h-2.28v2.43h-1.13v-2.43h-2.28V205.4z"/>
				</g>
				<polyline class="st5" points="297.54,285.3 295.02,262.59 303.93,261.59 306.45,284.46 				"/>
				<polyline class="st5" points="318.44,282.95 312.72,239.55 321.64,238.54 327.36,282.11 				"/>
				<polyline class="st5" points="338.25,280.93 331.52,225.92 340.43,224.92 347.16,280.09 				"/>
				<polygon class="st5" points="385.58,247.31 375.88,241.04 368.02,249.51 371.82,249.03 373.46,268.48 383.7,267.33 
					381.45,247.83 				"/>
			</g>
			<path class="st12" d="M368.97,233.7c-0.4-0.13-26.75-11.39-26.75-11.39"/>
			<path class="st12" d="M407.07,259.71c0,0,1.02-1.52,1.48-4.44c0.77-4.84,0.55-15.63,0.13-19.24"/>
			<circle class="st9" cx="401.76" cy="216.02" r="0.35"/>
			<circle class="st9" cx="398.44" cy="217.04" r="0.35"/>
			<path class="st16" d="M400.38,217.4c0,0-1.73,2.2,0.83,1.91"/>
			<path class="st16" d="M401.48,221.3c1.57-0.02,1.82-1.4,1.82-1.4"/>
			<path class="st17" d="M260.36,324.77c3.3-1.19,170.07-24.55,170.07-24.55"/>
			<g>
				<path class="st12" d="M418.95,296.46l0.45-0.06c2.06-0.27,3.57-2.07,3.47-4.14l-4.6-100.56c-0.1-2.28-2.09-4-4.36-3.79
					l-148.08,14.12c-2.15,0.21-3.75,2.09-3.6,4.25l6.26,106.72c0.16,2.29,2.22,3.97,4.49,3.67l133.12-18.56L418.95,296.46z"/>
				<path class="st16" d="M413.56,260.88c-0.7,2.01-1.52,4.21-1.87,4.19c-0.25-0.01-0.71-0.01-1.24-0.05
					c-0.49,1.53-0.89,3.03-0.77,3.57c0.29,1.25-1.15,7-1.44,8.06c-0.22,0.79-0.43,0.75-0.65,0.62c-0.07-0.05-0.22,0.03-0.22,0.03
					s-0.4,0.41-0.6,0.93c-0.07,0.17-0.52-0.26-0.77-0.47c-0.09-0.07-0.16,0.08-0.16,0.08s-0.08-0.04-0.66,0.63s-0.96-1.54-1.06-1.25
					c-0.18,0.56-0.86,1.15-0.86,1.15c-0.77,0.29,0.86-6.24,0.86-6.24s-0.96,0.96-1.82,1.34c-0.64,0.28,2.69-6.53,4.77-10.27
					c-0.35-1.02-0.01-2.8,0.38-4.24c-0.11,0.06-0.22,0.13-0.34,0.19c-0.59,1.18-1.34,2.4-2.06,2.7c-1.42,0.6-3.88,1.4-5.38,1.87
					c-0.95,3.2,4.03,26.48,5.55,34.39l12.85-1.67c-0.7-4.93-2.01-14.92-2.27-22.54C415.6,268.45,414.58,263.92,413.56,260.88z"/>
				<path class="st16" d="M372.15,231.69c-1.17-0.21-1.61-1.21-2.57-1.49c-0.27-0.08-0.54,0.15-0.72,0.12
					c-0.63-0.13-0.71-0.28-1.14-0.06c-0.14,0.07-0.49,0.48-0.54,0.6c-0.24,0.6-2.09,0.53-1.97,0.84c0.3,0.78,2.88,1.56,3.7,1.79
					c0.1,0.03,0.13,0.15,0.05,0.22c-0.36,0.31-1,0.97,0.2,1.16c0.37,0.06,1.62-0.48,2.87-0.23c2.16,0.42,5.09,1.22,7.36,1.83l0.32-4
					C379.72,232.45,375.75,232.34,372.15,231.69z"/>
				<path class="st16" d="M379.72,232.45l-0.32,4l-0.04,0.44c5.21,4.06,14.4,2.33,17.04,1.65c1.07-2.88,1.8-6.79,1.99-7.85
					C391.15,233.83,379.72,232.45,379.72,232.45z"/>
				<path class="st16" d="M407.08,263.27c-0.01-0.02-0.01-0.04-0.02-0.06c-2.08,3.74-5.41,10.55-4.77,10.27
					c0.86-0.38,1.82-1.34,1.82-1.34s-1.63,6.53-0.86,6.24c0,0,0.68-0.6,0.86-1.15c0.09-0.29,0.48,1.92,1.06,1.25
					s0.66-0.63,0.66-0.63s0.08-0.16,0.16-0.08c0.25,0.2,0.7,0.64,0.77,0.47c0.21-0.52,0.6-0.93,0.6-0.93s0.14-0.07,0.22-0.03
					c0.22,0.14,0.44,0.18,0.65-0.62c0.29-1.06,1.73-6.81,1.44-8.06c-0.12-0.54,0.28-2.04,0.77-3.57
					C409.22,264.94,407.58,264.61,407.08,263.27z"/>
				<path class="st18" d="M407.11,259.17c0.11-0.06,0.23-0.13,0.34-0.19c-0.39,1.45-0.73,3.22-0.38,4.24
					c0.01,0.02,0.01,0.04,0.02,0.06c0.5,1.34,2.14,1.66,3.38,1.75c0.53,0.04,0.99,0.04,1.24,0.05c0.36,0.01,1.17-2.19,1.87-4.19
					c0.57-1.64,1.07-3.15,1.18-3.23c0.96-0.72,0.24-9.23,1.08-15.82c0.84-6.6-2.15-15.84-4.79-17.52c-1.47-0.93-2.75-0.72-3.65-0.28
					c-0.71,0.35-1.17,0.84-1.27,1c-0.46,0.78-1.7,1.76-3.05,2.67c-0.58,0.39-1.7,0.06-2.27,0.4c-1.55,0.94-2.36,2.33-2.36,2.33
					s-0.02,0.11-0.05,0.28c-0.19,1.06-0.91,4.97-1.99,7.85c-0.3,0.8-0.62,1.51-0.96,2.06c-1.8,2.88,2.04,6.6,2.52,9.24
					c0.48,2.64,0.45,14.29,0.45,14.29s0.51-0.16,1.27-0.39c1.5-0.47,3.96-1.28,5.38-1.87C405.76,261.56,406.52,260.34,407.11,259.17
					z"/>
				<g>
					<path class="st9" d="M401.38,211.81c3.56,0,4.01,4.07,4.01,4.07c0.55-0.15,0.97-0.21,1.28-0.21c2.02,0-0.32,2.61-0.32,2.61
						l-0.08,1.51c-0.03,0.48-0.3,0.91-0.72,1.15c-0.15,0.08-0.31,0.17-0.49,0.26c0.23,0.53,0.46,1.07,0.67,1.58
						c0.17,0.4,0.32,0.77,0.45,1.09c-0.71,0.35-1.17,0.84-1.27,1c-0.46,0.78-1.7,1.76-3.05,2.67c0.11-0.44,0.16-0.91,0.17-1.38
						c0.02-1.21-0.53-1.88-0.78-2.82c-0.41,0.12-0.98,0.17-1.36,0.17c-0.08,0-0.16,0-0.22-0.01c-1.68-0.12-2.19-3.43-2.55-4.87
						c-0.36-1.44,0.6-5.76,0.6-5.76C399.2,212.11,400.41,211.81,401.38,211.81 M401.38,211.06c-1.18,0-2.53,0.39-4.01,1.16
						l-0.31,0.16l-0.08,0.34c-0.1,0.46-0.99,4.54-0.6,6.1c0.04,0.18,0.09,0.38,0.14,0.6c0.42,1.87,1.06,4.68,3.08,4.83
						c0.08,0.01,0.17,0.01,0.27,0.01c0.24,0,0.55-0.02,0.86-0.06c0.04,0.11,0.09,0.22,0.13,0.32c0.22,0.53,0.41,0.98,0.4,1.62
						c-0.01,0.45-0.06,0.86-0.14,1.21l-0.49,1.91l1.63-1.1c1.74-1.17,2.82-2.12,3.28-2.91c0.06-0.09,0.42-0.45,0.95-0.71l0.63-0.31
						l-0.26-0.65c-0.13-0.33-0.29-0.7-0.46-1.1c-0.13-0.31-0.27-0.63-0.41-0.95c0.59-0.37,0.97-1,1-1.7l0.07-1.26
						c0.64-0.75,1.45-1.97,1.04-2.88c-0.16-0.35-0.54-0.78-1.46-0.78c-0.21,0-0.43,0.02-0.69,0.06
						C405.55,213.31,404.23,211.06,401.38,211.06L401.38,211.06z"/>
				</g>
			</g>
			<line class="st12" x1="278.91" y1="229" x2="285.25" y2="302.59"/>
			<line class="st12" x1="273.41" y1="288.63" x2="388.44" y2="276.79"/>
			<path class="st12" d="M281.87,264.95c1.69-2.96,28.76-49.48,65.13-54.56"/>
			<g>
				<path class="st12" d="M285.47,212.7c-0.54,0-0.97,0.43-0.97,0.97c0,0.54,0.43,0.97,0.97,0.97c0.53,0,0.97-0.43,0.97-0.97
					C286.44,213.13,286,212.7,285.47,212.7z"/>
				<path class="st12" d="M288.25,214.61c0.05-0.15,0.18-0.27,0.34-0.29l1.37-0.22c0.01-0.15,0.02-0.29,0.02-0.43
					c0-0.13-0.01-0.28-0.02-0.42l-1.37-0.22c-0.16-0.03-0.29-0.14-0.34-0.29c-0.04-0.12-0.1-0.24-0.16-0.37
					c-0.07-0.15-0.06-0.32,0.04-0.45l0.81-1.12c-0.18-0.22-0.38-0.42-0.61-0.6l-1.12,0.8c-0.13,0.1-0.3,0.12-0.45,0.04
					c-0.13-0.06-0.26-0.11-0.37-0.15c-0.15-0.05-0.27-0.18-0.29-0.34l-0.22-1.37c-0.29-0.03-0.57-0.03-0.86,0l-0.22,1.37
					c-0.02,0.17-0.14,0.29-0.29,0.34c-0.12,0.04-0.24,0.09-0.38,0.15c-0.14,0.08-0.31,0.06-0.44-0.04l-1.12-0.8
					c-0.22,0.18-0.42,0.38-0.61,0.6l0.82,1.12c0.1,0.13,0.11,0.31,0.03,0.45c-0.06,0.11-0.12,0.24-0.15,0.37
					c-0.05,0.15-0.18,0.27-0.34,0.29l-1.37,0.22c-0.01,0.14-0.02,0.28-0.02,0.42c0,0.14,0.01,0.28,0.02,0.43l1.37,0.22
					c0.16,0.03,0.29,0.14,0.34,0.29c0.04,0.12,0.09,0.24,0.15,0.37c0.08,0.14,0.06,0.32-0.03,0.45l-0.82,1.12
					c0.18,0.22,0.39,0.42,0.61,0.6l1.12-0.82c0.13-0.09,0.3-0.12,0.45-0.02c0.11,0.05,0.24,0.1,0.37,0.15
					c0.15,0.05,0.27,0.18,0.29,0.33l0.22,1.37c0.28,0.02,0.58,0.02,0.86,0l0.22-1.37c0.02-0.15,0.13-0.28,0.29-0.33
					c0.13-0.05,0.26-0.1,0.38-0.17c0.15-0.06,0.32-0.05,0.45,0.04l1.12,0.82c0.22-0.18,0.42-0.38,0.6-0.6l-0.81-1.12
					c-0.1-0.13-0.11-0.31-0.04-0.45C288.16,214.84,288.21,214.73,288.25,214.61z"/>
			</g>
			<g>
				<path class="st12" d="M294.96,220.34c-0.54,0-0.97,0.43-0.97,0.97c0,0.54,0.43,0.97,0.97,0.97c0.53,0,0.97-0.43,0.97-0.97
					C295.93,220.77,295.49,220.34,294.96,220.34z"/>
				<path class="st12" d="M297.74,222.25c0.05-0.15,0.18-0.27,0.34-0.29l1.37-0.22c0.01-0.15,0.02-0.29,0.02-0.43
					c0-0.13-0.01-0.28-0.02-0.42l-1.37-0.22c-0.16-0.03-0.29-0.14-0.34-0.29c-0.04-0.12-0.1-0.24-0.16-0.37
					c-0.07-0.15-0.06-0.32,0.04-0.45l0.81-1.12c-0.18-0.22-0.38-0.42-0.61-0.6l-1.12,0.8c-0.13,0.1-0.3,0.12-0.45,0.04
					c-0.13-0.06-0.26-0.11-0.37-0.15c-0.15-0.05-0.27-0.18-0.29-0.34l-0.22-1.37c-0.29-0.03-0.57-0.03-0.86,0l-0.22,1.37
					c-0.02,0.17-0.14,0.29-0.29,0.34c-0.12,0.04-0.24,0.09-0.38,0.15c-0.14,0.08-0.31,0.06-0.44-0.04l-1.12-0.8
					c-0.22,0.18-0.42,0.38-0.61,0.6l0.82,1.12c0.1,0.13,0.11,0.31,0.03,0.45c-0.06,0.11-0.12,0.24-0.15,0.37
					c-0.05,0.15-0.18,0.27-0.34,0.29l-1.37,0.22c-0.01,0.14-0.02,0.28-0.02,0.42c0,0.14,0.01,0.28,0.02,0.43l1.37,0.22
					c0.16,0.03,0.29,0.14,0.34,0.29c0.04,0.12,0.09,0.24,0.15,0.37c0.08,0.14,0.06,0.32-0.03,0.45l-0.82,1.12
					c0.18,0.22,0.39,0.42,0.61,0.6l1.12-0.82c0.13-0.09,0.3-0.12,0.45-0.02c0.11,0.05,0.24,0.1,0.37,0.15
					c0.15,0.05,0.27,0.18,0.29,0.33l0.22,1.37c0.28,0.02,0.58,0.02,0.86,0l0.22-1.37c0.02-0.15,0.13-0.28,0.29-0.33
					c0.13-0.05,0.26-0.1,0.38-0.17c0.15-0.06,0.32-0.05,0.45,0.04l1.12,0.82c0.22-0.18,0.42-0.38,0.6-0.6l-0.81-1.12
					c-0.1-0.13-0.11-0.31-0.04-0.45C297.65,222.48,297.7,222.37,297.74,222.25z"/>
			</g>
			<g>
				<path class="st12" d="M296.78,209.3c-0.54,0-0.97,0.43-0.97,0.97c0,0.54,0.43,0.97,0.97,0.97c0.53,0,0.97-0.43,0.97-0.97
					C297.75,209.74,297.31,209.3,296.78,209.3z"/>
				<path class="st12" d="M299.57,211.22c0.05-0.15,0.18-0.27,0.34-0.29l1.37-0.22c0.01-0.15,0.02-0.29,0.02-0.43
					c0-0.13-0.01-0.28-0.02-0.42l-1.37-0.22c-0.16-0.03-0.29-0.14-0.34-0.29c-0.04-0.12-0.1-0.24-0.16-0.37
					c-0.07-0.15-0.06-0.32,0.04-0.45l0.81-1.12c-0.18-0.22-0.38-0.42-0.61-0.6l-1.12,0.8c-0.13,0.1-0.3,0.12-0.45,0.04
					c-0.13-0.06-0.26-0.11-0.37-0.15c-0.15-0.05-0.27-0.18-0.29-0.34l-0.22-1.37c-0.29-0.03-0.57-0.03-0.86,0l-0.22,1.37
					c-0.02,0.17-0.14,0.29-0.29,0.34c-0.12,0.04-0.24,0.09-0.38,0.15c-0.14,0.08-0.31,0.06-0.44-0.04l-1.12-0.8
					c-0.22,0.18-0.42,0.38-0.61,0.6l0.82,1.12c0.1,0.13,0.11,0.31,0.03,0.45c-0.06,0.11-0.12,0.24-0.15,0.37
					c-0.05,0.15-0.18,0.27-0.34,0.29l-1.37,0.22c-0.01,0.14-0.02,0.28-0.02,0.42c0,0.14,0.01,0.28,0.02,0.43l1.37,0.22
					c0.16,0.03,0.29,0.14,0.34,0.29c0.04,0.12,0.09,0.24,0.15,0.37c0.08,0.14,0.06,0.32-0.03,0.45l-0.82,1.12
					c0.18,0.22,0.39,0.42,0.61,0.6l1.12-0.82c0.13-0.09,0.3-0.12,0.45-0.02c0.11,0.05,0.24,0.1,0.37,0.15
					c0.15,0.05,0.27,0.18,0.29,0.33l0.22,1.37c0.28,0.02,0.58,0.02,0.86,0l0.22-1.37c0.02-0.15,0.13-0.28,0.29-0.33
					c0.13-0.05,0.26-0.1,0.38-0.17c0.15-0.06,0.32-0.05,0.45,0.04l1.12,0.82c0.22-0.18,0.42-0.38,0.6-0.6l-0.81-1.12
					c-0.1-0.13-0.11-0.31-0.04-0.45C299.47,211.45,299.52,211.33,299.57,211.22z"/>
			</g>
			<path class="st19" d="M278.62,226.32l-1.22,2.66c-0.05,0.11,0.04,0.23,0.16,0.22l2.91-0.28c0.12-0.01,0.18-0.15,0.11-0.24
				l-1.7-2.38C278.82,226.19,278.67,226.21,278.62,226.32z"/>
			<path class="st19" d="M391.1,276.34l-2.71-1.11c-0.11-0.05-0.23,0.05-0.21,0.16l0.39,2.9c0.02,0.12,0.15,0.18,0.25,0.1l2.32-1.79
				C391.23,276.53,391.21,276.39,391.1,276.34z"/>
			<path class="st20" d="M349.92,209.85l-3.63-1.49c-0.15-0.06-0.31,0.06-0.29,0.22l0.52,3.89c0.02,0.16,0.21,0.23,0.33,0.14
				l3.1-2.4C350.1,210.11,350.07,209.91,349.92,209.85z"/>
			<g>
				<path class="st12" d="M374.01,217.81c0.35,0.92,1.1,1.81,2.51,1.81c1.15,0,1.92-0.64,1.92-1.72c0-2.71-5.77-2.11-5.77-6.23
					c0-1.79,1.21-3.17,3.19-3.41v-1.03h1.36v1.03c1.94,0.29,2.8,1.76,3.09,2.56l-1.68,0.75c-0.29-0.62-0.88-1.5-2.14-1.5
					c-1.14,0-1.78,0.7-1.78,1.58c0,2.53,5.8,2.07,5.8,6.1c0,1.9-1.24,3.41-3.3,3.7v1.39h-1.36v-1.37c-2.23-0.22-3.22-1.79-3.57-2.86
					L374.01,217.81z"/>
			</g>
			<polyline class="st12" points="298.52,286.26 296,263.55 304.91,262.54 307.43,285.42 			"/>
			<polyline class="st12" points="319.42,283.91 313.7,240.51 322.62,239.5 328.34,283.07 			"/>
			<polyline class="st12" points="339.23,281.89 332.5,226.88 341.41,225.87 348.14,281.05 			"/>
			<polygon class="st12" points="386.56,248.27 376.86,242 369,250.46 372.8,249.99 374.44,269.44 384.68,268.29 382.43,248.79 			
				"/>
			<path class="st17" d="M279.22,333.57l-2.83-2.48c-0.95-0.79-0.52-2.33,0.7-2.52l149.16-22.39c2.24-0.34,6.13,1.99,8.01,3.25"/>
			<path class="st17" d="M297.7,348.66l-8.87-7.39c-0.95-0.79-0.52-2.33,0.7-2.52l149.16-22.39c2.24-0.34,4.53,0.17,6.42,1.43
				l8.38,5.59"/>
			<path class="st17" d="M279.22,333.57c3.02-1.13,155.05-24.14,155.05-24.14"/>
			
				<ellipse transform="matrix(0.9993 -0.0364 0.0364 0.9993 -7.6302 14.6105)" class="st16" cx="397.85" cy="217.07" rx="1.48" ry="0.98"/>
			
				<ellipse transform="matrix(0.9908 -0.1353 0.1353 0.9908 -25.5516 56.3916)" class="st16" cx="401.95" cy="216.11" rx="1.48" ry="0.98"/>
			<path class="st12" d="M399.24,216.59c0.14-0.05,1.3-0.65,1.24-0.28"/>
			<line class="st16" x1="405.85" y1="214.9" x2="403.42" y2="215.91"/>
		</g>
		<g class="st3">
			<path class="st11" d="M537.58,258.88c-0.21-0.09-0.33-0.14-0.33-0.14s-0.1-0.05-0.27-0.13c0.21-0.12,0.43-0.25,0.67-0.38
				c-0.36-2.52-1.31-13.71,9.5-16.04c0,0,1.43,0-1.43-7.41c-2.87-7.41,10.76-21.28,16.5-25.1c5.74-3.83,14.94-2.2,14.11-9.32
				c-0.48-4.06-4.06-0.48-7.65-6.46s1.91-15.06-4.78-21.52c-6.69-6.46-14.58-2.39-15.54-10.28c0,0,3.11-16.74-0.96-19.13
				c-4.06-2.39-17.3-6.37-16.74-14.82c0.48-7.17,0-12.19-2.63-13.87c-1.91-1.22-11.95-8.85-21.04-0.72
				c-9.09,8.13-23.67,33.71-27.5,48.77s-8.13,15.06-7.41,26.3c0.72,11.24,6.22,43.99,12.67,46.62c6.46,2.63,22.71,4.78,22.71,4.78
				l0.09,9.86l0.06,6.86l0.09,10.06C507.7,266.81,526.33,270.18,537.58,258.88z"/>
			<path class="st11" d="M484.75,235.25c-6.46-2.63-11.95-35.39-12.67-46.62c-0.72-11.24,3.59-11.24,7.41-26.3
				s18.41-40.65,27.5-48.77c9.09-8.13,19.13-0.5,21.04,0.72c2.63,1.67,3.11,6.69,2.63,13.87c-0.56,8.45,12.67,12.43,16.74,14.82
				c4.06,2.39,0.96,19.13,0.96,19.13c0.96,7.89,8.85,3.83,15.54,10.28c6.69,6.46,1.2,15.54,4.78,21.52s7.17,2.39,7.65,6.46
				c0.84,7.13-8.37,5.5-14.11,9.32c-5.74,3.83-19.37,17.69-16.5,25.1c2.87,7.41,1.43,7.41,1.43,7.41
				c-10.81,2.33-9.86,13.52-9.5,16.04c0.05,0.32,0.08,0.51,0.08,0.51c-0.05,0.05-0.1,0.09-0.15,0.14c1.29,0.57,6.09,2.94,8.41,7.57
				c3.97,7.94,7.2,11.42,18.86,5.21c0,0,5.19-10.6,25.34-7.01c2.28,0.41,4.74,0.99,7.42,1.79c18.12,5.46,14.64-3.23,18.12-7.2
				c0,0,28.29-27.05,15.88-47.16c-5.73-9.29-12.42-17.51-18.1-25.22c-8.32-11.28-11.42-25.6-8.52-39.32
				c2.73-12.91,3.42-31.9-11.6-42.93c0,0-42.08-33.74-79.24-10.44c0,0-10.04,2.15-17.45,9.09c-7.41,6.93-25.34,32.04-32.76,38.73
				c-7.41,6.69-5.74,29.65-7.65,40.41s4.3,24.39-0.48,29.65s-8.85,18.89-4.06,23.67s9.32,0.24,10.76,8.13
				c1.43,7.89,14.35,13.15,23.19,11.24c5.7-1.23,15.07-3.75,21.85-5.2l-0.09-9.86C507.46,240.03,491.2,237.88,484.75,235.25z"/>
			<path class="st11" d="M537.65,258.22c-0.24,0.13-0.46,0.26-0.67,0.38c0.17,0.08,0.27,0.13,0.27,0.13s0.13,0.05,0.33,0.14
				c0.05-0.05,0.1-0.09,0.15-0.14C537.73,258.74,537.7,258.55,537.65,258.22z"/>
			<path class="st11" d="M647.83,295.6c-11.51-4.32-28.56-5.94-40.74-6.54c3.95,8.31,5.98,17.49,5.32,29.66
				c-1.48,27.06,16.24,65.93,28.04,86.1c11.33,19.36,13.13,65.67,13.25,69.37h6.92C693.09,335.94,647.83,295.6,647.83,295.6z"/>
			<path class="st11" d="M616.04,454.9c-18.3-29.88-54.68-83.59-74.48-90.43c0,0-1.73,0.56-4.4,1.51c1.27,1.63,2.07,2.63,2.07,2.63
				c-8.1,10.88-25.81,14.68-25.81,14.68s-0.64-2.32-1.97-5.17c-2.26,1.73-3.74,3.45-3.84,5.05L540,474.43l0.09,0.25h87.08
				c-0.01-0.06-0.03-0.14-0.06-0.25c-0.02-0.07-0.06-0.16-0.09-0.24C626.19,472.11,622.12,464.83,616.04,454.9z"/>
			<path class="st11" d="M612.41,318.72c0.66-12.18-1.37-21.36-5.32-29.66c-3.96-8.31-9.84-15.75-16.89-24.41
				c-20.15-3.6-25.34,7.01-25.34,7.01c-11.66,6.2-14.89,2.73-18.86-5.21c-2.31-4.63-7.12-7-8.41-7.57
				c-11.25,11.3-29.88,7.93-29.88,7.93l-0.09-10.06c-4.28,0.37-8.08,1.39-10.51,3.49c0,0-8.22,15.06-18.07,34.11
				c4.73-0.69,8.46,0.18,11.73,1.74l49.43-21.15c4.35,1.21,1.93,5.31,1.93,5.31l-44.89,19.91c2.93,2.14,5.78,4.35,9.1,5.69
				c9.36,3.8,11.39,29.86,13.66,35.68c1.78,4.56,12.56,18.58,17.16,24.45c2.67-0.95,4.4-1.51,4.4-1.51
				c19.8,6.84,56.18,60.55,74.48,90.43c6.08,9.92,10.15,17.21,10.97,19.28h26.69c-0.13-3.7-1.92-50.01-13.25-69.37
				C628.64,384.65,610.93,345.78,612.41,318.72z"/>
			<path class="st11" d="M511.45,378.12c-2.2-4.72-6.27-10.9-12.45-10.52c-4.05,0.25-16.7-19.99-17.97-23.53s-6.83-4.3-10.63-7.09
				s0.25-6.83,0.25-6.83c-4.81-2.53-1.17-11.04-1.17-11.04c-0.69-1.56-0.81-3.2-0.58-4.81c-11.97,24.05-23.16,48.55-22.93,55.64
				c0.03,0.83,0.01,1.79-0.05,2.85c-1.02,18.33-13.73,69.73,1.05,101.64H540l-32.38-91.26
				C507.71,381.57,509.19,379.85,511.45,378.12z"/>
			<path class="st11" d="M445.97,369.94c-0.23-7.09,10.96-31.58,22.93-55.64c0.08-0.58,0.21-1.16,0.37-1.73l-8.26,3.66l-2.62,0.06
				c-23.4,11.62-62.59,28.83-89.03,28.5l0.83,3.88l5.78,26.83l0.27,1.27c0,0,30.68,6.13,69.66-3.98
				C445.98,371.73,446,370.77,445.97,369.94z"/>
			<path class="st11" d="M354.43,352.59c-5.44-0.39-31.98-1.7-50.58,7.59c-6.35,3.18-10.97,7.77-14.88,11.56
				c-8.91,8.63-13.82,15.09-14.02,17.2c-0.29,3.03,3.18,4.05,6.65,2.89c3.47-1.16,15.17-6.36,15.17-6.36l3.76-1.88
				c0,0,5.92,4.62,28.18,0.72c22.25-3.9,24.42-9.1,28.47-7.08c0.83,0.42,1.7,0.61,2.56,0.67
				C361.53,371.01,355.43,355.12,354.43,352.59z"/>
			<path class="st11" d="M354.29,352.24c0,0,0.05,0.13,0.14,0.35c1,2.53,7.1,18.42,5.31,25.32c-0.07,0.27-0.15,0.53-0.25,0.78
				c0,0,8.92-0.69,16.49-3.18l-5.78-26.83C368.95,347.7,358.63,340.17,354.29,352.24z"/>
			<path class="st11" d="M478.31,294.46c-1.35-1.98-5.96-8.01-8.83-3.3c-1.2,1.97-0.89,4.3-0.33,6.06c2.05-0.9,4.63-1.76,7.83-2.49
				C477.44,294.63,477.88,294.54,478.31,294.46z"/>
			<path class="st11" d="M542.13,280.26c0,0,2.41-4.1-1.93-5.31l-49.43,21.15c2.33,1.11,4.42,2.58,6.48,4.07L542.13,280.26z"/>
			<path class="st11" d="M470.44,304.79l-13.78,5.89l-6.04,5.79l7.76-0.18l2.62-0.06l8.26-3.66c0.23-0.79,0.53-1.56,0.86-2.3
				c1.18-2.59,2.84-4.74,3.7-5.76c0.1-0.19,0.2-0.38,0.29-0.58c0.16-0.31,0.31-0.61,0.47-0.92L470.44,304.79z"/>
			<path class="st11" d="M537.16,365.99c-4.59-5.87-15.38-19.89-17.16-24.45c-2.28-5.82-4.3-31.88-13.66-35.68
				c-3.32-1.35-6.17-3.55-9.1-5.69c-2.05-1.5-4.15-2.96-6.48-4.07c-3.27-1.56-7-2.43-11.73-1.74c-0.24,0.03-0.47,0.06-0.72,0.11
				c-0.43,0.08-0.88,0.17-1.33,0.27c-3.21,0.73-5.78,1.59-7.83,2.49c-7.18,3.16-7.86,6.9-6.08,7.88c1.27,0.7,4.64,0.24,7.38-0.32
				l4.15-1.77c-0.16,0.3-0.31,0.61-0.47,0.92c-0.1,0.19-0.2,0.38-0.29,0.58c-0.86,1.02-2.52,3.17-3.7,5.76
				c-0.33,0.74-0.63,1.51-0.86,2.3c-0.16,0.57-0.29,1.15-0.37,1.73c-0.23,1.61-0.11,3.25,0.58,4.81c0,0-3.63,8.51,1.17,11.04
				c0,0-4.05,4.05-0.25,6.83s9.36,3.54,10.63,7.09s13.92,23.79,17.97,23.53c6.18-0.39,10.26,5.8,12.45,10.52
				c1.33,2.85,1.97,5.17,1.97,5.17s17.71-3.8,25.81-14.68C539.23,368.62,538.43,367.62,537.16,365.99z"/>
			<path class="st11" d="M418.28,476.55c-3.33-7.77-44.93-70.45-100.4-6.66L418.28,476.55z"/>
			<path class="st11" d="M354.43,352.59c0,0,1.23,9.08,8.29,6.31c7.06-2.76,10.75-9.83,0.61-13.21
				C363.34,345.7,355.66,344.75,354.43,352.59z"/>
		</g>
		<g class="st3">
			<path class="st21" d="M541.6,259.32c-0.21-0.09-0.33-0.14-0.33-0.14s-0.1-0.05-0.27-0.13c0.21-0.12,0.43-0.25,0.67-0.38
				c-0.36-2.52-1.31-13.71,9.5-16.04c0,0,1.43,0-1.43-7.41c-2.87-7.41,10.76-21.28,16.5-25.1c5.74-3.83,14.94-2.2,14.11-9.32
				c-0.48-4.06-4.06-0.48-7.65-6.46s1.91-15.06-4.78-21.52c-6.69-6.46-14.58-2.39-15.54-10.28c0,0,3.11-16.74-0.96-19.13
				c-4.06-2.39-17.3-6.37-16.74-14.82c0.48-7.17,0-12.19-2.63-13.87c-1.91-1.22-11.95-8.85-21.04-0.72
				c-9.09,8.13-23.67,33.71-27.5,48.77s-8.13,15.06-7.41,26.3c0.72,11.24,6.22,43.99,12.67,46.62c6.46,2.63,22.71,4.78,22.71,4.78
				l0.09,9.86l0.06,6.86l0.09,10.06C511.71,267.25,530.34,270.62,541.6,259.32z"/>
			<path class="st12" d="M541.66,258.67c-0.24,0.13-0.46,0.26-0.67,0.38c0.17,0.08,0.27,0.13,0.27,0.13s0.13,0.05,0.33,0.14
				c0.05-0.05,0.1-0.09,0.15-0.14C541.74,259.18,541.71,258.99,541.66,258.67z"/>
			<path class="st4" d="M651.84,296.04c-11.51-4.32-28.56-5.94-40.74-6.54c3.95,8.31,5.98,17.49,5.32,29.66
				c-1.48,27.06,16.24,65.93,28.04,86.1c11.33,19.36,13.13,65.67,13.25,69.37h6.92C697.1,336.38,651.84,296.04,651.84,296.04z"/>
			<path class="st7" d="M620.05,455.34c-18.3-29.88-54.68-83.59-74.48-90.43c0,0-1.73,0.56-4.4,1.51c1.27,1.63,2.07,2.63,2.07,2.63
				c-8.1,10.88-25.81,14.68-25.81,14.68s-0.64-2.32-1.97-5.17c-2.26,1.73-3.74,3.45-3.84,5.05l32.38,91.26l0.09,0.25h87.08
				c-0.01-0.06-0.03-0.14-0.06-0.25c-0.02-0.07-0.06-0.16-0.09-0.24C630.2,472.55,626.13,465.27,620.05,455.34z"/>
			<path class="st7" d="M616.42,319.16c0.66-12.18-1.37-21.36-5.32-29.66c-3.96-8.31-9.84-15.75-16.89-24.41
				c-20.15-3.6-25.34,7.01-25.34,7.01c-11.66,6.2-14.89,2.73-18.86-5.21c-2.31-4.63-7.12-7-8.41-7.57
				c-11.25,11.3-29.88,7.93-29.88,7.93l-0.09-10.06c-4.28,0.37-8.08,1.39-10.51,3.49c0,0-8.22,15.06-18.07,34.11
				c4.73-0.69,8.46,0.18,11.73,1.74l49.43-21.15c4.35,1.21,1.93,5.31,1.93,5.31l-44.89,19.91c2.93,2.14,5.78,4.35,9.1,5.69
				c9.36,3.8,11.39,29.86,13.66,35.68c1.78,4.56,12.56,18.58,17.16,24.45c2.67-0.95,4.4-1.51,4.4-1.51
				c19.8,6.84,56.18,60.55,74.48,90.43c6.08,9.92,10.15,17.21,10.97,19.28h26.69c-0.13-3.7-1.92-50.01-13.25-69.37
				C632.65,385.09,614.94,346.22,616.42,319.16z"/>
			<path class="st7" d="M515.46,378.56c-2.2-4.72-6.27-10.9-12.45-10.52c-4.05,0.25-16.7-19.99-17.97-23.53s-6.83-4.3-10.63-7.09
				s0.25-6.83,0.25-6.83c-4.81-2.53-1.17-11.04-1.17-11.04c-0.69-1.56-0.81-3.2-0.58-4.81c-11.97,24.05-23.16,48.55-22.93,55.64
				c0.03,0.83,0.01,1.79-0.05,2.85c-1.02,18.33-13.73,69.73,1.05,101.64h93.03l-32.38-91.26
				C511.73,382.01,513.2,380.29,515.46,378.56z"/>
			<path class="st7" d="M446.02,368.63c-0.23-7.09,7.04-27.9,19.01-51.96c0.08-0.58-8.26,3.66,0,0l0,0l-2.62,0.06
				c-23.4,11.62-62.59,28.83-89.03,28.5l0.83,3.88l5.78,26.83l0.27,1.27c0,0,25.74,6.65,64.72-3.46
				C445.05,372.69,446.04,369.46,446.02,368.63z"/>
			<path class="st21" d="M359.86,377.27c-0.03-0.57-0.08-1.13-0.13-1.69c-0.27-2.67-0.52-5.37-1-8.01
				c-0.9-4.99-2.48-9.82-3.76-14.71c-9.28-0.36-31.12-0.21-47.1,7.78c-6.35,3.18-10.97,7.77-14.88,11.56
				c-8.91,8.63-13.82,15.09-14.02,17.2c-0.29,3.03,3.18,4.05,6.65,2.89c3.47-1.16,15.17-6.36,15.17-6.36l3.76-1.88
				c0,0,5.92,4.62,28.18,0.72C352.46,381.3,356.4,376.82,359.86,377.27z"/>
			<path class="st22" d="M358.3,352.68c0,0,0.05,0.13,0.14,0.35c1,2.53,7.1,18.42,5.31,25.32c-0.07,0.27-0.15,0.53-0.25,0.78
				c0,0,8.92-0.69,16.49-3.18l-5.78-26.83C372.96,348.14,362.64,340.61,358.3,352.68z"/>
			<path class="st21" d="M482.33,294.9c-1.35-1.98-5.96-8.01-8.83-3.3c-1.2,1.97-0.89,4.3-0.33,6.06c2.05-0.9,4.63-1.76,7.83-2.49
				C481.45,295.07,481.89,294.98,482.33,294.9z"/>
			<path class="st11" d="M546.14,280.71c0,0,2.41-4.1-1.93-5.31l-49.43,21.15c2.33,1.11,4.42,2.58,6.48,4.07L546.14,280.71z"/>
			<path class="st11" d="M474.45,305.23l-13.78,5.89l-6.04,5.79l7.76-0.18l2.62-0.06l8.26-3.66c0.23-0.79,0.53-1.56,0.86-2.3
				c1.18-2.59,2.84-4.74,3.7-5.76c0.1-0.19,0.2-0.38,0.29-0.58c0.16-0.31,0.31-0.61,0.47-0.92L474.45,305.23z"/>
			<path class="st21" d="M541.17,366.43c-4.59-5.87-15.38-19.89-17.16-24.45c-2.28-5.82-4.3-31.88-13.66-35.68
				c-3.32-1.35-6.17-3.55-9.1-5.69c-2.05-1.5-4.15-2.96-6.48-4.07c-3.27-1.56-7-2.43-11.73-1.74c-0.24,0.03-0.47,0.06-0.72,0.11
				c-0.43,0.08-0.88,0.17-1.33,0.27c-3.21,0.73-5.78,1.59-7.83,2.49c-7.18,3.16-7.86,6.9-6.08,7.88c1.27,0.7,4.64,0.24,7.38-0.32
				l4.15-1.77c-0.16,0.3-0.31,0.61-0.47,0.92c-0.1,0.19-0.2,0.38-0.29,0.58c-0.86,1.02-2.52,3.17-3.7,5.76
				c-0.33,0.74-0.63,1.51-0.86,2.3c-0.16,0.57-0.29,1.15-0.37,1.73c-0.23,1.61-0.11,3.25,0.58,4.81c0,0-3.63,8.51,1.17,11.04
				c0,0-4.05,4.05-0.25,6.83s9.36,3.54,10.63,7.09s13.92,23.79,17.97,23.53c6.18-0.39,10.26,5.8,12.45,10.52
				c1.33,2.85,1.97,5.17,1.97,5.17s17.71-3.8,25.81-14.68C543.24,369.06,542.44,368.06,541.17,366.43z"/>
			<path class="st23" d="M422.29,476.99c-3.33-7.77-44.93-70.45-100.4-6.66L422.29,476.99z"/>
			<path class="st11" d="M358.44,353.04c0,0,1.23,9.08,8.29,6.31c7.06-2.76,10.75-9.83,0.61-13.21
				C367.35,346.14,359.67,345.19,358.44,353.04z"/>
		</g>
		<g class="st3">
			<path class="st12" d="M537.24,258.33c-0.21-0.09-0.33-0.14-0.33-0.14s-0.1-0.05-0.27-0.13c0.21-0.12,0.43-0.25,0.67-0.38
				c-0.36-2.52-1.31-13.71,9.5-16.04c0,0,1.43,0-1.43-7.41c-2.87-7.41,10.76-21.28,16.5-25.1c5.74-3.83,14.94-2.2,14.11-9.32
				c-0.48-4.06-4.06-0.48-7.65-6.46s1.91-15.06-4.78-21.52c-6.69-6.46-14.58-2.39-15.54-10.28c0,0,3.11-16.74-0.96-19.13
				c-4.06-2.39-17.3-6.37-16.74-14.82c0.48-7.17,0-12.19-2.63-13.87c-1.91-1.22-11.95-8.85-21.04-0.72
				c-9.09,8.13-23.67,33.71-27.5,48.77s-8.13,15.06-7.41,26.3c0.72,11.24,6.22,43.99,12.67,46.62c6.46,2.63,22.71,4.78,22.71,4.78
				l0.09,9.86l0.06,6.86l0.09,10.06C507.36,266.27,525.99,269.63,537.24,258.33z"/>
			<path class="st22" d="M484.41,234.71c-6.46-2.63-11.95-35.39-12.67-46.62c-0.72-11.24,3.59-11.24,7.41-26.3
				s18.41-40.65,27.5-48.77c9.09-8.13,19.13-0.5,21.04,0.72c2.63,1.67,3.11,6.69,2.63,13.87c-0.56,8.45,12.67,12.43,16.74,14.82
				c4.06,2.39,0.96,19.13,0.96,19.13c0.96,7.89,8.85,3.83,15.54,10.28c6.69,6.46,1.2,15.54,4.78,21.52s7.17,2.39,7.65,6.46
				c0.84,7.13-8.37,5.5-14.11,9.32c-5.74,3.83-19.37,17.69-16.5,25.1c2.87,7.41,1.43,7.41,1.43,7.41
				c-10.81,2.33-9.86,13.52-9.5,16.04c0.05,0.32,0.08,0.51,0.08,0.51c-0.05,0.05-0.1,0.09-0.15,0.14c1.29,0.57,6.09,2.94,8.41,7.57
				c3.97,7.94,7.2,11.42,18.86,5.21c0,0,5.19-10.6,25.34-7.01c2.28,0.41,4.74,0.99,7.42,1.79c18.12,5.46,14.64-3.23,18.12-7.2
				c0,0,28.29-27.05,15.88-47.16c-5.73-9.29-12.42-17.51-18.1-25.22c-8.32-11.28-11.42-25.6-8.52-39.32
				c2.73-12.91,3.42-31.9-11.6-42.93c0,0-42.08-33.74-79.24-10.44c0,0-10.04,2.15-17.45,9.09c-7.41,6.93-25.34,32.04-32.76,38.73
				c-7.41,6.69-5.74,29.65-7.65,40.41s4.3,24.39-0.48,29.65s-8.85,18.89-4.06,23.67s9.32,0.24,10.76,8.13
				c1.43,7.89,14.35,13.15,23.19,11.24c5.7-1.23,15.07-3.75,21.85-5.2l-0.09-9.86C507.12,239.49,490.86,237.34,484.41,234.71z"/>
			<path class="st12" d="M537.31,257.68c-0.24,0.13-0.46,0.26-0.67,0.38c0.17,0.08,0.27,0.13,0.27,0.13s0.13,0.05,0.33,0.14
				c0.05-0.05,0.1-0.09,0.15-0.14C537.39,258.19,537.35,258,537.31,257.68z"/>
			<path class="st12" d="M647.49,295.06c-11.51-4.32-28.56-5.94-40.74-6.54c3.95,8.31,5.98,17.49,5.32,29.66
				c-1.48,27.06,16.24,65.93,28.04,86.1c11.33,19.36,13.13,65.67,13.25,69.37h6.92C692.75,335.4,647.49,295.06,647.49,295.06z"/>
			<path class="st12" d="M615.7,454.36c-18.3-29.88-54.68-83.59-74.48-90.43c0,0-1.73,0.56-4.4,1.51c1.27,1.63,2.07,2.63,2.07,2.63
				c-8.1,10.88-25.81,14.68-25.81,14.68s-0.64-2.32-1.97-5.17c-2.26,1.73-3.74,3.45-3.84,5.05l32.38,91.26l0.09,0.25h87.08
				c-0.01-0.06-0.03-0.14-0.06-0.25c-0.02-0.07-0.06-0.16-0.09-0.24C625.85,471.57,621.78,464.28,615.7,454.36z"/>
			<path class="st12" d="M612.06,318.18c0.66-12.18-1.37-21.36-5.32-29.66c-3.96-8.31-9.84-15.75-16.89-24.41
				c-20.15-3.6-25.34,7.01-25.34,7.01c-11.66,6.2-14.89,2.73-18.86-5.21c-2.31-4.63-7.12-7-8.41-7.57
				c-11.25,11.3-29.88,7.93-29.88,7.93l-0.09-10.06c-4.28,0.37-8.08,1.39-10.51,3.49c0,0-8.22,15.06-18.07,34.11
				c4.73-0.69,8.46,0.18,11.73,1.74l49.43-21.15c4.35,1.21,1.93,5.31,1.93,5.31l-44.89,19.91c2.93,2.14,5.78,4.35,9.1,5.69
				c9.36,3.8,11.39,29.86,13.66,35.68c1.78,4.56,12.56,18.58,17.16,24.45c2.67-0.95,4.4-1.51,4.4-1.51
				c19.8,6.84,56.18,60.55,74.48,90.43c6.08,9.92,10.15,17.21,10.97,19.28h26.69c-0.13-3.7-1.92-50.01-13.25-69.37
				C628.3,384.1,610.59,345.24,612.06,318.18z"/>
			<path class="st12" d="M511.11,377.58c-2.2-4.72-6.27-10.9-12.45-10.52c-4.05,0.25-16.7-19.99-17.97-23.53s-6.83-4.3-10.63-7.09
				s0.25-6.83,0.25-6.83c-4.81-2.53-1.17-11.04-1.17-11.04c-0.69-1.56-0.81-3.2-0.58-4.81c-11.97,24.05-23.16,48.55-22.93,55.64
				c0.03,0.83,0.01,1.79-0.05,2.85c-1.02,18.33-13.73,69.73,1.05,101.64h93.03l-32.38-91.26
				C507.37,381.03,508.85,379.31,511.11,377.58z"/>
			<path class="st12" d="M445.63,369.4c-0.23-7.09,10.96-31.58,22.93-55.64c0.08-0.58,0.21-1.16,0.37-1.73l-8.26,3.66l-2.62,0.06
				c-23.4,11.62-62.59,28.83-89.03,28.5l0.83,3.88l5.78,26.83l0.27,1.27c0,0,30.68,6.13,69.66-3.98
				C445.64,371.19,445.66,370.23,445.63,369.4z"/>
			<path class="st12" d="M354.09,352.05c-5.44-0.39-31.98-1.7-50.58,7.59c-6.35,3.18-10.97,7.77-14.88,11.56
				c-8.91,8.63-13.82,15.09-14.02,17.2c-0.29,3.03,3.18,4.05,6.65,2.89c1.61-0.54,2.64,0.53,5.8-0.83c3.66-1.57,9.37-5.53,9.37-5.53
				l3.76-1.88c0,0,5.92,4.62,28.18,0.72c22.25-3.9,24.42-9.1,28.47-7.08c0.83,0.42,1.7,0.61,2.56,0.67
				C361.19,370.47,355.09,354.58,354.09,352.05z"/>
			<path class="st12" d="M353.95,351.7c0,0,0.05,0.13,0.14,0.35c1,2.53,7.1,18.42,5.31,25.32c-0.07,0.27-0.15,0.53-0.25,0.78
				c0,0,8.92-0.69,16.49-3.18l-5.78-26.83C368.61,347.16,358.29,339.63,353.95,351.7z"/>
			<path class="st12" d="M477.97,293.92c-1.35-1.98-5.96-8.01-8.83-3.3c-1.2,1.97-0.89,4.3-0.33,6.06c2.05-0.9,4.63-1.76,7.83-2.49
				C477.1,294.09,477.54,294,477.97,293.92z"/>
			<path class="st12" d="M541.79,279.72c0,0,2.41-4.1-1.93-5.31l-49.43,21.15c2.33,1.11,4.42,2.58,6.48,4.07L541.79,279.72z"/>
			<path class="st12" d="M470.1,304.25l-13.78,5.89l-6.04,5.79l7.76-0.18l2.62-0.06l8.26-3.66c0.23-0.79,0.53-1.56,0.86-2.3
				c1.18-2.59,2.84-4.74,3.7-5.76c0.1-0.19,0.2-0.38,0.29-0.58c0.16-0.31,0.31-0.61,0.47-0.92L470.1,304.25z"/>
			<path class="st12" d="M536.82,365.45c-4.59-5.87-15.38-19.89-17.16-24.45c-2.28-5.82-4.3-31.88-13.66-35.68
				c-3.32-1.35-6.17-3.55-9.1-5.69c-2.05-1.5-4.15-2.96-6.48-4.07c-3.27-1.56-7-2.43-11.73-1.74c-0.24,0.03-0.47,0.06-0.72,0.11
				c-0.43,0.08-0.88,0.17-1.33,0.27c-3.21,0.73-5.78,1.59-7.83,2.49c-7.18,3.16-7.86,6.9-6.08,7.88c1.27,0.7,4.64,0.24,7.38-0.32
				l4.15-1.77c-0.16,0.3-0.31,0.61-0.47,0.92c-0.1,0.19-0.2,0.38-0.29,0.58c-0.86,1.02-2.52,3.17-3.7,5.76
				c-0.33,0.74-0.63,1.51-0.86,2.3c-0.16,0.57-0.29,1.15-0.37,1.73c-0.23,1.61-0.11,3.25,0.58,4.81c0,0-3.63,8.51,1.17,11.04
				c0,0-4.05,4.05-0.25,6.83s9.36,3.54,10.63,7.09s13.92,23.79,17.97,23.53c6.18-0.39,10.26,5.8,12.45,10.52
				c1.33,2.85,1.97,5.17,1.97,5.17s17.71-3.8,25.81-14.68C538.89,368.08,538.09,367.07,536.82,365.45z"/>
			<path class="st12" d="M417.94,476c-3.33-7.77-44.93-70.45-100.4-6.66L417.94,476z"/>
			<path class="st12" d="M502.22,156.7c0,0-8.38,20.61-10.85,23.98s-7.2,9.22-4.72,11.7c2.47,2.47,11.02,6.97,11.02,6.97"/>
			<path class="st12" d="M493.39,206.1c0.9,0,23.17,4.95,28.34,0.45c0,0-15.97,9.22-26.77,7.87"/>
			<path class="st12" d="M570.77,205.88c0,0-5.17,0.9-5.4-5.62"/>
			<path class="st12" d="M507.36,266.27c-2.28-1.68-6.11-0.66-10.6-6.57"/>
			<path class="st12" d="M556.37,303.5c0,0-5.62,55.56-0.45,70.86"/>
			<path class="st12" d="M470.32,329.61c1.92-0.47,13.4,2.01,14.07,4.26c0,0,1.84-1.4,0.65-2.47c-1.18-1.08-10.99-2.91-10.99-2.91
				s-1.18,0.54-0.97,1.51"/>
			<path class="st12" d="M469.14,318.57c1.46-0.64,10.08-4.85,23.01,4.74"/>
			<path class="st12" d="M473.49,303.97c0.29-0.58,2.07-2.3,5.52-0.9c3.45,1.4,15.73,6.46,15.73,6.46"/>
			<path class="st12" d="M513.08,382.75c0,0-3.24,1.44-5.81-0.12"/>
			<path class="st12" d="M538.89,368.08c1.36-0.38,1.88-2.56,2.33-4.14"/>
			<circle class="st9" cx="528.74" cy="172.42" r="2.78"/>
			<circle class="st9" cx="492.22" cy="161.7" r="2.78"/>
			<path class="st12" d="M300.19,383.06c0,0-8.31-1.7-6.5-4.97s10.53-4.72,12.71-4.72s17.8-0.36,22.16-2.18"/>
			<path class="st12" d="M281.26,391.29c0,0,13.89-8.12,13.16-10.66"/>
			<path class="st12" d="M368.85,347.25c0,0,6.24,12.61,0,13.22c-6.24,0.61-8.45,3.98-14.76-8.42"/>
			<polyline class="st12" points="365.29,348.11 361.99,352.27 366.03,355.21 			"/>
		</g>
		<g class="st3">
			<path class="st12" d="M427.06,133.81c0-0.35,0.19-21.83-2.33-31.56c-0.66-2.55-0.8-3.74-2.59-4.64
				c-4.89-2.44,0.89,5.06,3.87,4.62s10.43-5.51,7.89-7.6c-2.53-2.09-1.79,5.96,0.3,6.4c2.09,0.45,5.66-8.19,3.72-7
				c-1.94,1.19-1.79,6.4-0.15,6.55l-3.13,32.77"/>
			<g>
				<path class="st12" d="M447.87,104.98c-0.09-1.16-0.39-28.68-20.15-29.07c-6.1-0.12-19.29,8.8-17.11,25.59
					c2.07,15.95,13.99,28.91,15.06,30.77c0.48,0.83,1.18,1.46,2.44,1.78c6.2,1.55,10.85-3.1,10.85-3.1S448.36,111.47,447.87,104.98z
					"/>
				<path class="st12" d="M430.48,146.92c-1.67-0.35-2.88-0.85-3.79-1.41c0.42,3.11,2.97,6.29,7.66,6.17
					c3.77-0.1,4.65-4.97,4.85-7.3C437.81,145.9,435.03,147.89,430.48,146.92z"/>
				<path class="st12" d="M440.16,135.6c1.94-1.19-1.21-4.65-1.21-4.65s-4.65,4.65-10.85,3.1c-1.26-0.32-1.96-0.94-2.44-1.78
					c-0.18,0.07-0.36,0.12-0.54,0.2c-7.89,3.13-0.89,8.94-0.89,8.94s-0.42,2.33,2.47,4.1c0.9,0.55,2.12,1.05,3.79,1.41
					c4.55,0.97,7.33-1.02,8.72-2.53c0.75-0.81,1.11-1.49,1.11-1.49C443.29,141.71,440.16,135.6,440.16,135.6z"/>
			</g>
			<path class="st12" d="M440.16,135.6c0,0-8.34,7.89-15.94,5.81"/>
		</g>
		<g class="st3">
			<polygon class="st12" points="125.31,187.83 112.23,212.89 123.13,213.44 134.03,186.74 			"/>
			<path class="st12" d="M290.95,106.64c-0.54,2.18-7.08,23.97-19.62,27.24l3.27,8.72c0,0,27.79-21.25,27.79-26.15L290.95,106.64z"
				/>
			<path class="st12" d="M229.38,77.22c0,0-13.08-5.45-21.25-25.06l-7.63,10.9c0,0,20.71,21.25,25.61,20.71L229.38,77.22z"/>
			<path class="st24" d="M349.26,100.65c0,0-0.54,32.15,2.18,34.87l9.81,1.63c0,0-4.9-38.14-2.18-39.78L349.26,100.65z"/>
			<path class="st12" d="M628.23,144.24c0,0,1.63,36.51,22.34,33.78l2.72-8.72c0,0-14.71-1.09-15.26-13.08
				c-0.54-11.99-2.72-17.44-2.72-17.44L628.23,144.24z"/>
			<path class="st12" d="M544.32,25.45l-9.81,35.96l9.26,1.09c0,0,1.09-28.33,10.35-29.42L544.32,25.45z"/>
			<circle class="st12" cx="276.79" cy="49.97" r="4.36"/>
			<circle class="st12" cx="593.91" cy="65.77" r="4.9"/>
			<circle class="st12" cx="167.54" cy="255.66" r="4.63"/>
			<circle class="st12" cx="675.14" cy="97.22" r="4.63"/>
			<circle class="st12" cx="305.35" cy="159.01" r="4.63"/>
			<circle class="st12" cx="181.21" cy="142.26" r="4.63"/>
		</g>
		<line class="st10" x1="426.17" y1="65.9" x2="420.92" y2="23.01"/>
		<line class="st10" x1="451.55" y1="83.84" x2="476.06" y2="71.58"/>
		<path class="st10" d="M399.91,93.9c-2.19-2.63-26.7-5.25-26.7-5.25"/>
		<path class="st10" d="M441.92,68.96c1.31-1.75,21.44-23.63,21.44-23.63"/>
		<path class="st10" d="M407.35,78.15c-0.44-2.63-28.01-24.51-28.01-24.51"/>
	</g>
</g>
</svg>
