<svg width="2000" height="915" viewBox="0 0 2000 915" fill="none" xmlns="http://www.w3.org/2000/svg">
<rect x="0.00488281" width="1585.23" height="57.1255" fill="#DDDDDE"/>
<path d="M117.819 835.698C191.512 835.698 236.521 802.603 236.521 746.341C236.521 684.783 180.701 666.47 130.837 658.528C77.0019 651.247 46.7748 637.788 46.7748 606.237C46.7748 581.526 61.778 557.035 116.054 557.035C161.064 557.035 185.334 578.216 185.334 608.002H224.607C224.607 557.918 187.099 522.616 116.496 522.616C38.3906 522.616 7.72225 561.227 7.72225 606.016C7.72225 666.691 68.6177 683.239 118.702 691.623C163.491 698.463 197.028 711.039 197.028 746.341C197.028 783.407 168.786 802.161 117.599 802.161C68.1764 802.161 39.0525 773.92 39.0525 742.369H0C0 787.82 36.4049 835.698 117.819 835.698Z" fill="white"/>
<path d="M433.664 829.3H476.688L391.964 694.491L465.215 604.251H418.661L322.022 724.056V518.644H284.073V829.3H322.022V765.977L364.164 719.423L433.664 829.3Z" fill="white"/>
<path d="M486.952 906.081H524.019C572.779 906.081 589.989 886.444 615.362 823.122L704.057 604.251L663.681 604.472L600.359 763.55L594.622 783.187L589.327 763.329L525.563 604.251H485.187L574.544 822.68L572.117 829.079C560.424 859.747 551.377 874.089 524.239 874.089H486.952V906.081Z" fill="white"/>
<path d="M738.812 829.3H776.761V518.203H738.812V829.3Z" fill="white"/>
<path d="M863.806 560.345C880.133 560.345 890.062 549.533 890.062 536.075C890.062 522.837 880.133 512.025 864.027 512.025C848.141 512.025 838.213 522.837 838.213 536.075C838.213 549.533 848.141 560.345 863.806 560.345ZM845.052 829.3H883.002V604.251H845.052V829.3Z" fill="white"/>
<path d="M1049.92 914.024C1128.68 914.024 1166.63 861.733 1166.63 799.072V604.251H1130.23V652.57C1116.77 622.785 1084.78 598.073 1041.75 598.073C979.093 598.073 932.318 651.026 932.318 712.583C932.318 774.582 979.534 825.107 1042.86 825.107C1081.03 825.107 1114.34 806.574 1130.23 772.376V800.176C1130.23 842.096 1108.39 881.59 1049.92 881.59C1000.94 881.59 982.182 857.762 977.769 830.623H941.806C944.233 871.662 974.239 914.024 1049.92 914.024ZM1049.48 791.571C1005.35 791.571 970.047 757.372 970.047 712.583C970.047 667.353 1005.35 633.596 1049.7 633.596C1093.82 633.596 1128.9 669.78 1128.9 712.583C1128.9 755.828 1093.6 791.571 1049.48 791.571Z" fill="white"/>
<path d="M1234.92 829.3H1272.87V711.039C1272.87 665.147 1307.07 633.375 1344.58 633.375C1383.63 633.375 1407.46 656.101 1407.46 707.95V829.3H1445.41V707.288C1445.41 635.361 1414.08 597.853 1354.29 597.853C1316.12 597.853 1285.67 617.931 1272.21 647.054L1272.87 623.005V518.644H1234.92V829.3Z" fill="white"/>
<path d="M1591.81 829.3H1633.29V797.087H1599.31C1579.23 797.087 1558.93 789.585 1558.93 747.664V637.567H1633.29V604.251H1558.93V537.178L1520.98 537.398V604.251H1470.9V637.567H1520.98V745.899C1520.98 816.061 1557.61 829.3 1591.81 829.3Z" fill="white"/>
<path fill-rule="evenodd" clip-rule="evenodd" d="M1851.1 399.885H1851.11V469.364H1851.1C1807.25 469.364 1771.7 504.916 1771.7 548.771C1771.7 548.773 1771.7 548.776 1771.7 548.779H1702.22V549.863C1702.22 549.5 1702.21 549.137 1702.21 548.773C1702.21 466.544 1768.87 399.885 1851.1 399.885Z" fill="#99C5A6"/>
<path fill-rule="evenodd" clip-rule="evenodd" d="M1851.11 697.672C1768.88 697.672 1702.22 631.012 1702.22 548.784L1771.7 548.781L1771.7 548.785C1771.7 592.641 1807.25 628.192 1851.11 628.192C1851.11 628.192 1851.11 628.192 1851.11 628.192L1851.11 697.668L1852.19 697.668C1851.83 697.671 1851.47 697.672 1851.11 697.672Z" fill="#6BA5C8"/>
<path fill-rule="evenodd" clip-rule="evenodd" d="M1851.11 697.672L1851.1 697.672L1851.11 628.192C1894.96 628.192 1930.51 592.641 1930.51 548.785C1930.51 548.783 1930.51 548.781 1930.51 548.779L1999.99 548.779L1999.99 547.149C2000 547.693 2000 548.238 2000 548.784C2000 631.012 1933.34 697.672 1851.11 697.672Z" fill="#E5827D"/>
<path fill-rule="evenodd" clip-rule="evenodd" d="M2000 548.773L2000 548.779L1930.51 548.779L1930.51 548.771C1930.51 504.916 1894.96 469.364 1851.11 469.364C1851.1 469.364 1851.1 469.364 1851.1 469.364L1851.1 399.885L1850.72 399.885C1850.85 399.885 1850.98 399.885 1851.11 399.885C1933.34 399.885 2000 466.544 2000 548.773Z" fill="#F6D17D"/>
</svg>
