<svg width="2000" height="515" viewBox="0 0 2000 515" fill="none" xmlns="http://www.w3.org/2000/svg">
<path d="M117.82 435.802C191.513 435.802 236.523 402.706 236.523 346.444C236.523 284.886 180.702 266.573 130.838 258.63C77.0023 251.349 46.7751 237.89 46.7751 206.339C46.7751 181.628 61.7784 157.137 116.055 157.137C161.065 157.137 185.335 178.318 185.335 208.104H224.609C224.609 158.019 187.1 122.718 116.496 122.718C38.3909 122.718 7.7223 161.329 7.7223 206.118C7.7223 266.794 68.6181 283.341 118.703 291.726C163.492 298.565 197.029 311.142 197.029 346.444C197.029 383.511 168.787 402.265 117.6 402.265C68.1769 402.265 39.0528 374.023 39.0528 342.472H0C0 387.923 36.4051 435.802 117.82 435.802Z" fill="white"/>
<path d="M433.667 429.403H476.691L391.966 294.594L465.218 204.353H418.663L322.024 324.159V118.746H284.075V429.403H322.024V366.08L364.166 319.526L433.667 429.403Z" fill="white"/>
<path d="M486.955 506.185H524.022C572.783 506.185 589.992 486.548 615.366 423.225L704.062 204.353L663.685 204.574L600.362 363.653L594.626 383.29L589.331 363.433L525.566 204.353H485.19L574.548 422.784L572.121 429.182C560.427 459.851 551.381 474.192 524.243 474.192H486.955V506.185Z" fill="white"/>
<path d="M738.817 429.403H776.766V118.305H738.817V429.403Z" fill="white"/>
<path d="M863.812 160.446C880.139 160.446 890.068 149.635 890.068 136.176C890.068 122.938 880.139 112.127 864.032 112.127C848.147 112.127 838.218 122.938 838.218 136.176C838.218 149.635 848.147 160.446 863.812 160.446ZM845.058 429.403H883.007V204.353H845.058V429.403Z" fill="white"/>
<path d="M1049.92 514.128C1128.69 514.128 1166.64 461.837 1166.64 399.176V204.353H1130.24V252.673C1116.78 222.887 1084.78 198.175 1041.76 198.175C979.099 198.175 932.324 251.128 932.324 312.686C932.324 374.685 979.54 425.211 1042.86 425.211C1081.03 425.211 1114.35 406.677 1130.24 372.479V400.279C1130.24 442.2 1108.39 481.694 1049.92 481.694C1000.94 481.694 982.188 457.865 977.775 430.727H941.811C944.238 471.765 974.245 514.128 1049.92 514.128ZM1049.48 391.674C1005.35 391.674 970.053 357.475 970.053 312.686C970.053 267.455 1005.35 233.698 1049.7 233.698C1093.83 233.698 1128.91 269.882 1128.91 312.686C1128.91 355.931 1093.61 391.674 1049.48 391.674Z" fill="white"/>
<path d="M1234.93 429.403H1272.88V311.142C1272.88 265.249 1307.08 233.477 1344.59 233.477C1383.64 233.477 1407.47 256.203 1407.47 308.053V429.403H1445.42V307.391C1445.42 235.463 1414.09 197.955 1354.3 197.955C1316.13 197.955 1285.68 218.033 1272.22 247.157L1272.88 223.107V118.746H1234.93V429.403Z" fill="white"/>
<path d="M1591.82 429.403H1633.3V397.19H1599.32C1579.24 397.19 1558.94 389.688 1558.94 347.767V237.669H1633.3V204.353H1558.94V137.28L1520.99 137.5V204.353H1470.91V237.669H1520.99V346.002C1520.99 416.165 1557.62 429.403 1591.82 429.403Z" fill="white"/>
<path fill-rule="evenodd" clip-rule="evenodd" d="M1702.22 148.886C1702.22 66.6587 1768.88 0.000404071 1851.11 0V69.4722C1807.26 69.475 1771.71 105.026 1771.71 148.88C1771.71 148.882 1771.71 148.884 1771.71 148.886H1702.22ZM1702.22 148.976C1702.22 148.947 1702.22 148.918 1702.22 148.889C1702.22 148.888 1702.22 148.887 1702.22 148.886V148.976Z" fill="#989A9C"/>
<path fill-rule="evenodd" clip-rule="evenodd" d="M1702.22 148.884L1702.22 148.884L1771.71 148.884L1771.71 148.892C1771.71 192.745 1807.26 228.296 1851.11 228.299L1851.11 297.773L1851.55 297.773C1851.4 297.773 1851.26 297.773 1851.11 297.773C1768.88 297.773 1702.22 231.113 1702.22 148.884Z" fill="#BBBBBD"/>
<path fill-rule="evenodd" clip-rule="evenodd" d="M1851.11 297.773L1851.11 297.773L1851.11 228.299C1894.96 228.296 1930.51 192.746 1930.51 148.892C1930.51 148.889 1930.51 148.886 1930.51 148.884L2000 148.884C2000 148.884 2000 148.884 2000 148.884C2000 231.113 1933.34 297.773 1851.11 297.773Z" fill="#DDDDDE"/>
<path fill-rule="evenodd" clip-rule="evenodd" d="M1851.11 -6.50815e-06C1933.34 -2.91382e-06 2000 66.6592 2000 148.888L1930.51 148.888L1930.51 148.88C1930.51 105.026 1894.96 69.4748 1851.11 69.4722L1851.11 -6.50215e-06C1851.11 -6.50213e-06 1851.11 -6.50817e-06 1851.11 -6.50815e-06Z" fill="white"/>
</svg>
