<svg width="2000" height="911" viewBox="0 0 2000 911" fill="none" xmlns="http://www.w3.org/2000/svg">
<path d="M117.82 435.818C191.512 435.818 236.522 402.723 236.522 346.46C236.522 284.903 180.701 266.59 130.837 258.647C77.0021 251.366 46.7749 237.907 46.7749 206.356C46.7749 181.645 61.7782 157.154 116.055 157.154C161.064 157.154 185.334 178.335 185.334 208.121H224.608C224.608 158.037 187.1 122.735 116.496 122.735C38.3907 122.735 7.72227 161.346 7.72227 206.136C7.72227 266.811 68.6179 283.358 118.702 291.742C163.491 298.582 197.028 311.158 197.028 346.46C197.028 383.527 168.787 402.281 117.599 402.281C68.1766 402.281 39.0526 374.04 39.0526 342.489H0C0 387.94 36.405 435.818 117.82 435.818Z" fill="white"/>
<path d="M433.665 429.42H476.689L391.965 294.611L465.216 204.371H418.662L322.023 324.176V118.764H284.074V429.42H322.023V366.097L364.165 319.543L433.665 429.42Z" fill="white"/>
<path d="M486.953 506.201H524.02C572.781 506.201 589.99 486.564 615.363 423.242L704.059 204.371L663.683 204.591L600.36 363.67L594.624 383.307L589.328 363.449L525.564 204.371H485.188L574.546 422.8L572.119 429.199C560.425 459.867 551.379 474.209 524.241 474.209H486.953V506.201Z" fill="white"/>
<path d="M738.814 429.42H776.763V118.322H738.814V429.42Z" fill="white"/>
<path d="M863.809 160.464C880.136 160.464 890.064 149.653 890.064 136.194C890.064 122.956 880.136 112.145 864.029 112.145C848.143 112.145 838.215 122.956 838.215 136.194C838.215 149.653 848.143 160.464 863.809 160.464ZM845.055 429.42H883.004V204.371H845.055V429.42Z" fill="white"/>
<path d="M1049.92 514.144C1128.69 514.144 1166.64 461.853 1166.64 399.192V204.371H1130.23V252.69C1116.77 222.904 1084.78 198.193 1041.76 198.193C979.096 198.193 932.321 251.145 932.321 312.703C932.321 374.702 979.537 425.227 1042.86 425.227C1081.03 425.227 1114.35 406.694 1130.23 372.495V400.296C1130.23 442.216 1108.39 481.71 1049.92 481.71C1000.94 481.71 982.184 457.882 977.772 430.743H941.808C944.235 471.782 974.242 514.144 1049.92 514.144ZM1049.48 391.691C1005.35 391.691 970.049 357.492 970.049 312.703C970.049 267.472 1005.35 233.715 1049.7 233.715C1093.83 233.715 1128.91 269.899 1128.91 312.703C1128.91 355.948 1093.61 391.691 1049.48 391.691Z" fill="white"/>
<path d="M1234.93 429.42H1272.88V311.158C1272.88 265.266 1307.08 233.494 1344.58 233.494C1383.64 233.494 1407.47 256.22 1407.47 308.07V429.42H1445.41V307.408C1445.41 235.48 1414.08 197.972 1354.29 197.972C1316.12 197.972 1285.67 218.05 1272.22 247.174L1272.88 223.125V118.764H1234.93V429.42Z" fill="white"/>
<path d="M1591.81 429.42H1633.29V397.207H1599.31C1579.24 397.207 1558.94 389.705 1558.94 347.784V237.687H1633.29V204.371H1558.94V137.297L1520.99 137.518V204.371H1470.9V237.687H1520.99V346.019C1520.99 416.181 1557.61 429.42 1591.81 429.42Z" fill="white"/>
<path fill-rule="evenodd" clip-rule="evenodd" d="M1851.12 0H1851.13V69.481H1851.12C1807.26 69.481 1771.71 105.033 1771.71 148.888C1771.71 148.892 1771.71 148.896 1771.71 148.9H1702.23C1702.23 148.896 1702.23 148.893 1702.23 148.889C1702.23 66.6597 1768.89 0 1851.12 0Z" fill="#B3D3BC"/>
<path fill-rule="evenodd" clip-rule="evenodd" d="M1851.11 297.766C1768.89 297.766 1702.23 231.117 1702.22 148.897L1771.7 148.897C1771.71 192.743 1807.26 228.284 1851.11 228.284C1851.11 228.284 1851.12 228.284 1851.12 228.284L1851.12 297.766C1851.12 297.766 1851.11 297.766 1851.11 297.766Z" fill="#6BA5C8"/>
<path fill-rule="evenodd" clip-rule="evenodd" d="M2000 148.9C1999.99 231.118 1933.33 297.764 1851.11 297.766L1851.11 228.284L1851.12 228.284C1894.96 228.284 1930.51 192.745 1930.52 148.9L2000 148.9Z" fill="#E5827D"/>
<path fill-rule="evenodd" clip-rule="evenodd" d="M2000 148.889L2000 148.9L1930.52 148.9L1930.52 148.888C1930.52 105.032 1894.97 69.4805 1851.11 69.4805L1851.11 8.2559e-06C1933.34 0.00159662 2000 66.6607 2000 148.889ZM1851.04 8.25124e-06C1851.06 -3.36615e-06 1851.09 -9.17473e-06 1851.11 -9.17324e-06C1851.11 -9.17318e-06 1851.11 8.23704e-06 1851.11 8.2559e-06L1851.04 8.25124e-06Z" fill="#F6D17D"/>
<rect x="0.950195" y="853.654" width="1585.24" height="57.1257" fill="#DDDDDE"/>
</svg>
