<svg id="Layer_1" data-name="Layer 1" xmlns="http://www.w3.org/2000/svg" xmlns:xlink="http://www.w3.org/1999/xlink" viewBox="0 0 841.88976 467.71654"><defs><style>.cls-1,.cls-8{fill:none;}.cls-2{clip-path:url(#clip-path);}.cls-3{fill:#b2b3ab;}.cls-4{fill:#99a19e;}.cls-5{fill:#ccc9c1;}.cls-6{fill:#6ba5c8;}.cls-7{fill:#fff;}.cls-8{stroke:#55585c;stroke-miterlimit:10;}.cls-9{fill:url(#New_Pattern_Swatch_2);}.cls-10{fill:#d5907e;}.cls-11{fill:#b5d2e3;}.cls-12{fill:#418152;}.cls-13{fill:#468fba;}.cls-14{fill:#f4c55c;}.cls-15,.cls-18{fill:#55585c;}.cls-16{fill:#989a9c;}.cls-17{fill:#df635c;}.cls-18{font-size:19.53764px;font-family:RobotoMono-Regular, Roboto Mono;}</style><clipPath id="clip-path"><rect class="cls-1" x="0.0001" width="200" height="199.99999"/></clipPath><pattern id="New_Pattern_Swatch_2" data-name="New Pattern Swatch 2" width="199.99999" height="199.99999" patternTransform="translate(-137.19024 -426.70623) scale(0.4382)" patternUnits="userSpaceOnUse" viewBox="0 0 200 200"><rect class="cls-1" width="199.99999" height="199.99999"/><g class="cls-2"><rect class="cls-3" x="0.0001" width="200" height="199.99999"/><path class="cls-4" d="M128.0282,84.346c-3.4405,6.3627-5.0645,13.5148-7.1433,20.443-2.0788,6.9281-4.7795,13.9294-9.8461,19.0918-4.9663,5.0601-11.7479,7.8851-18.4835,10.0989s-13.6975,3.97849-19.8822,7.4454-11.6502,9.0118-13.0306,15.9662a12.79419,12.79419,0,0,0,1.247,9.0333,8.24207,8.24207,0,0,0,7.7957,4.114c4.6698-.6121,7.2474-5.5133,10.235-9.1542,2.6674-3.2508,6.3625-5.8781,10.5428-6.3355,4.1802-.4574,8.7726,1.6969,10.3052,5.6129,1.0107,2.5827.7035,5.7066,2.4153,7.8888,2.6102,3.32749,7.8122,2.271,11.8122.8977,3.1084-1.0672,6.5882-2.4833,7.7171-5.5698,1.2136-3.3176-.8873-6.8458-1.3571-10.347-.8675-6.4661,4.4265-12.7015,10.7582-14.2737,6.3318-1.5723,13.1372.761,18.3215,4.7216,3.6589,2.7953,6.7529,6.4072,10.8742,8.4605,4.1214,2.0532,9.9172,1.9404,12.505-1.8681,2.3166-3.4094.9888-8.2338-1.6651-11.3877-2.6539-3.154-6.366-5.18891-9.5994-7.7455-3.2333-2.5565-6.1876-6.077-6.2285-10.1988-.0433-4.3594,3.1061-7.9862,5.7401-11.4602a64.09406,64.09406,0,0,0,9.6507-18.2362c1.3169-3.9117,2.2448-8.2211.8885-12.1193-1.7258-4.95991-6.8684-8.0901-12.0514-8.9365C146.7755,68.4014,134.3006,72.7464,128.0282,84.346Z"/><path class="cls-4" d="M248.40269,52.1073c-2.5809,2.30989-4.013,5.59889-5.5228,8.7162-4.2012,8.6744-10.0115,17.1855-18.75079,21.2501-8.91781,4.14759-19.48981,3.0322-28.66261,6.5805-4.5349,1.7542-8.85039,4.9333-10.41339,9.5377-1.563,4.6043.67539,10.6008,5.37909,11.8328,3.1156.816,6.3817-.5218,9.1508-2.16641,2.7692-1.64459,5.4188-3.65969,8.5557-4.38989,3.1368-.7303,7.0121.3156,8.2458,3.2907.8994,2.16919.1673,4.6229-.3699,6.9088a39.75279,39.75279,0,0,0,1.1639,22.068c1.653,4.7295,4.9972,9.6691,9.9909,10.0723,4.0132.32409,7.8324-2.70491,9.12371-6.5185,1.29119-3.8136.361-8.1312-1.74421-11.5633-1.8199-2.9669-4.58-5.7249-4.5577-9.2055.0272-4.2499,4.3847-7.3258,8.5921-7.9257,4.2074-.5998,8.4573.4899,12.7053.6193,4.2479.1294,9.0371-1.0686,11.15851-4.75121,2.40879-4.18159.55389-10.13339,3.70909-13.78489,2.0573-2.3809,5.5168-2.8663,8.6592-3.0307a92.23054,92.23054,0,0,1,14.9229.4301c3.9932.4407,8.0823,1.1372,11.9807.166s7.5963-4.1811,7.608-8.1986c.0116-3.9536-3.5795-7.1761-7.42089-8.1116s-7.86711-.1274-11.73711.6815q-8.8812,1.85655-17.7626,3.7131c-2.2867.478-4.6837.95309-6.928.3044s-4.235-2.8196-3.8331-5.1209c.5183-2.9673,4.1762-4.006,7.1586-4.4289q8.60325-1.2201,17.2066-2.4401c4.6904-.6651,11.2698-3.2472,8.1781-9.1135-2.0837-3.9537-7.1821-5.9151-11.3188-6.3113C272.90969,50.2639,256.81619,44.5775,248.40269,52.1073Z"/><path class="cls-5" d="M231.086,125.6978c-9.5775,2.3503-20.02889,3.8409-27.2448,10.5626-2.02409,1.8855-3.77,4.9773-2.2209,7.2691,1.3529,2.0016,4.4732,2.1134,5.8814,4.0764,1.9796,2.7594-.8087,6.3694-3.3805,8.5872q-6.89864,5.9493-13.7975,11.8985c-3.4519,2.97679-7.1938,6.55919-7.1604,11.11729.0297,4.0616,3.4194,7.645,7.3789,8.5504a13.35565,13.35565,0,0,0,11.314-3.1771c2.579-2.1846,4.437-5.082,6.7005-7.5921,2.2635-2.51,5.2038-4.7406,8.5812-4.8688,6.5274-.2479,10.4948,6.8196,15.6015,10.8926,4.1912,3.3429,10.14571,4.7739,15.0822,2.683,4.93651-2.0908,8.1366-8.1552,6.1911-13.1508-2.64159-6.78319-12.3244-8.51549-15.1962-15.20449-2.574-5.9956,1.8755-12.99741,7.6034-16.122,5.7279-3.1247,12.4591-3.6593,18.7518-5.3839s12.8303-5.3557,14.6971-11.6077c1.0306-3.4519.5218-7.3909,2.3979-10.4663,2.13-3.49151,6.6739-4.6983,10.7629-4.614,7.1278.1469,13.8131,3.2131,20.5232,5.6217,6.71,2.4087,14.1695,4.1865,20.8754,1.7663,6.70591-2.4203,11.6887-10.5906,8.3866-16.909-2.4779-4.7414-8.47-6.609-13.8088-6.2668-5.33889.3421-10.4065,2.3862-15.648,3.45729-5.2415,1.071-11.17789,1.00251-15.3496-2.34679-2.3632-1.8974-3.8957-4.6438-6.111-6.712-7.3119-6.82621-22.7838-4.4871-30.3921,1.3209-8.7203,6.6568-4.0639,20.5401-12.523,28.2263C244.06859,121.7703,237.43019,124.1409,231.086,125.6978Z"/><path class="cls-4" d="M48.4028,52.1073c-2.5809,2.30989-4.013,5.59889-5.5228,8.7162C38.6788,69.4979,32.8684,78.009,24.1291,82.0736c-8.9178,4.14759-19.4898,3.0322-28.6626,6.5805-4.53488,1.7542-8.85038,4.9333-10.41333,9.5377-1.563,4.6043.67539,10.6008,5.37912,11.8328,3.11561.816,6.38161-.5218,9.15081-2.16641s5.4188-3.65969,8.5556-4.38989c3.1369-.7303,7.0122.3156,8.2458,3.2907.8995,2.16919.1674,4.6229-.3699,6.9088a39.75372,39.75372,0,0,0,1.164,22.068c1.6529,4.7295,4.9971,9.6691,9.9908,10.0723,4.0132.32409,7.8325-2.70491,9.1237-6.5185,1.2913-3.8136.3611-8.1312-1.7441-11.5633-1.8199-2.9669-4.5801-5.7249-4.5578-9.2055.0273-4.2499,4.3848-7.3258,8.5922-7.9257,4.2074-.5998,8.4572.4899,12.7052.6193s9.0371-1.0686,11.1585-4.75121c2.4088-4.18159.554-10.13339,3.7091-13.78489,2.0574-2.3809,5.5168-2.8663,8.6592-3.0307a92.23021,92.23021,0,0,1,14.9229.4301c3.9933.4407,8.0824,1.1372,11.9808.166,3.8983-.9712,7.5962-4.1811,7.608-8.1986.0115-3.9536-3.5795-7.1761-7.4209-8.1116s-7.8671-.1274-11.7371.6815L72.4065,78.3281c-2.2867.478-4.6838.95309-6.9281.3044s-4.235-2.8196-3.833-5.1209c.5183-2.9673,4.1762-4.006,7.1585-4.4289q8.6034-1.2201,17.2067-2.4401c4.6904-.6651,11.2698-3.2472,8.1781-9.1135-2.0837-3.9537-7.1821-5.9151-11.3188-6.3113C72.9097,50.2639,56.8162,44.5775,48.4028,52.1073Z"/><path class="cls-5" d="M31.086,125.6978c-9.5774,2.3503-20.0289,3.8409-27.2447,10.5626-2.0242,1.8855-3.77,4.9773-2.2209,7.2691,1.3529,2.0016,4.4732,2.1134,5.8814,4.0764,1.9795,2.7594-.8087,6.3694-3.3805,8.5872L-9.67621,168.0916c-3.45191,2.97679-7.19385,6.55919-7.16047,11.11729.02975,4.0616,3.41944,7.645,7.379,8.5504a13.35576,13.35576,0,0,0,11.314-3.1771c2.579-2.1846,4.437-5.082,6.7005-7.5921,2.2635-2.51,5.2037-4.7406,8.5812-4.8688,6.5273-.2479,10.4948,6.8196,15.6014,10.8926,4.1912,3.3429,10.1458,4.7739,15.0823,2.683,4.9365-2.0908,8.1366-8.1552,6.1911-13.1508-2.6416-6.78319-12.3245-8.51549-15.1962-15.20449-2.5741-5.9956,1.8755-12.99741,7.6034-16.122,5.7279-3.1247,12.4591-3.6593,18.7518-5.3839s12.8303-5.3557,14.697-11.6077c1.0307-3.4519.5218-7.3909,2.398-10.4663,2.13-3.49151,6.6739-4.6983,10.7629-4.614,7.1277.1469,13.8131,3.2131,20.5231,5.6217,6.7101,2.4087,14.1696,4.1865,20.8755,1.7663,6.7059-2.4203,11.6887-10.5906,8.3866-16.909-2.478-4.7414-8.47-6.609-13.8089-6.2668-5.3388.3421-10.4064,2.3862-15.6479,3.45729-5.2415,1.071-11.178,1.00251-15.3496-2.34679-2.3632-1.8974-3.8957-4.6438-6.111-6.712-7.3119-6.82621-22.7838-4.4871-30.3922,1.3209-8.7202,6.6568-4.0638,20.5401-12.523,28.2263C44.0687,121.7703,37.4303,124.1409,31.086,125.6978Z"/><path class="cls-5" d="M190.61049,192.74039c-3.7532,5.8688-1.6986,15.2269,4.892,17.4837,3.7949,1.2994,7.937.1387,11.8062-.919s8.13741-1.9803,11.7683-.2756,5.5257,7.2339,2.44311,9.8004c-1.94781,1.6217-4.77341,1.3402-7.30321,1.4957-2.5297.1556-5.5507,1.4428-5.6696,3.9746a4.02953,4.02953,0,0,0,2.7817,3.6841,9.5333,9.5333,0,0,0,4.8782.1678c5.3248-.8839,10.3442-3.0754,15.606-4.2788s11.1622-1.2936,15.6475,1.7092c4.4853,3.0027,6.537,9.9076,3.0225,14.0044-2.68209,3.1264-7.4292,3.5644-11.4484,2.6618s-7.7352-2.8783-11.75369-3.7841c-4.01841-.9059-8.76471-.4761-11.45431,2.6439-1.7219,1.9975-2.3135,4.762-3.95369,6.8271-2.49951,3.147-6.81241,4.0296-10.71841,4.9755-3.9059.9458-8.2089,2.554-9.7719,6.2564-1.8756,4.44274,1.605,9.78316,6.1891,11.28047s9.6414.043,13.8913-2.23621c4.2498-2.27917,8.041-5.364,12.3757-7.47726,9.3923-4.579,20.4381-4.1858,30.73321-2.3988,10.295,1.7871,20.41559,4.86714,30.85329,5.35344s21.6685-2.07067,28.7236-9.77824a12.86636,12.86636,0,0,0,3.3797-5.9953,6.59925,6.59925,0,0,0-1.9497-6.342c-1.9142-1.5719-4.6238-1.574-7.1007-1.5917a99.83153,99.83153,0,0,1-21.2847-2.4531c-3.7642-.8511-7.5824-1.9717-10.6312-4.3378s-5.19729-6.2347-4.545-10.0383c.344-2.0057,1.426-4.0228.82771-5.9678-.53681-1.7451-2.25071-2.8098-3.83471-3.7179-13.1015-7.5104-26.0741-16.2587-40.0435-22.0875C217.62739,186.648,199.20129,179.30719,190.61049,192.74039Z"/><path class="cls-5" d="M-9.38945,192.74039c-3.75315,5.8688-1.69855,15.2269,4.89205,17.4837,3.7948,1.2994,7.9369.1387,11.8061-.919s8.1375-1.9803,11.7684-.2756,5.5257,7.2339,2.443,9.8004c-1.9478,1.6217-4.7734,1.3402-7.3031,1.4957-2.5298.1556-5.5507,1.4428-5.6697,3.9746a4.02963,4.02963,0,0,0,2.7818,3.6841,9.5333,9.5333,0,0,0,4.8782.1678c5.3248-.8839,10.3442-3.0754,15.606-4.2788s11.1621-1.2936,15.6475,1.7092c4.4853,3.0027,6.5369,9.9076,3.0225,14.0044-2.6821,3.1264-7.4293,3.5644-11.4485,2.6618-4.0191-.9026-7.7352-2.8783-11.7536-3.7841-4.0184-.9059-8.7647-.4761-11.4543,2.6439-1.722,1.9975-2.3135,4.762-3.9537,6.8271-2.4995,3.147-6.8124,4.0296-10.7184,4.9755-3.9059.9458-8.20892,2.554-9.772,6.2564-1.87559,4.44274,1.605,9.78316,6.18906,11.28047s9.6415.043,13.8913-2.23621c4.2499-2.27917,8.0411-5.364,12.3758-7.47726,9.3923-4.579,20.438-4.1858,30.7331-2.3988,10.2951,1.7871,20.4156,4.86714,30.8533,5.35344s21.6685-2.07067,28.7237-9.77824a12.86531,12.86531,0,0,0,3.3796-5.9953,6.59945,6.59945,0,0,0-1.9496-6.342c-1.9142-1.5719-4.6239-1.574-7.1007-1.5917a99.83146,99.83146,0,0,1-21.2847-2.4531c-3.7642-.8511-7.5824-1.9717-10.6312-4.3378s-5.1974-6.2347-4.545-10.0383c.344-2.0057,1.4259-4.0228.8277-5.9678-.5368-1.7451-2.2507-2.8098-3.8347-3.7179-13.1015-7.5104-26.0742-16.2587-40.0435-22.0875C17.6274,186.648-.7987,179.30719-9.38945,192.74039Z"/><path class="cls-4" d="M137.2225,183.13569c-2.7963-2.0544-6.8858-1.1861-9.679.8725-2.7931,2.0586-4.7032,5.064-6.9585,7.7009a36.22722,36.22722,0,0,1-30.1211,12.3361c-4.5524-.3917-9.016-1.6575-13.584-1.7598s-9.5276,1.2263-12.2314,4.9095c-2.829,3.8538-2.3249,9.6045.6998,13.3067a14.5034,14.5034,0,0,0,12.8823,4.7836c3.8315-.4699,7.3681-2.2329,11.0742-3.3127s7.995-1.3839,11.1611.8245c3.4327,2.3943,4.5061,6.9796,4.6963,11.1606.1903,4.1809-.2093,8.5208,1.3232,12.4154a13.185,13.185,0,0,0,24.3904.3606c2.3351-5.455.9976-12.3928,4.8206-16.931,3.0987-3.6785,8.4834-4.3503,13.2873-4.1136s9.7759,1.0913,14.3134-.5037c4.5376-1.5951,8.2561-6.8827,6.1135-11.1888a8.35767,8.35767,0,0,0-6.2686-4.1144,25.15629,25.15629,0,0,0-7.7466.3719q-9.75465,1.4742-19.5396,2.7393c-2.3948.3096-5.0553.5468-7.0062-.8763-2.5446-1.8562-2.5862-5.9257-.7352-8.4741,1.8509-2.5484,5.023-3.7993,8.1248-4.3468,4.2618-.7522,8.752-.4403,12.7908-1.9951s7.5198-6.033,5.8952-10.0443c-1.6397-4.0489-6.9448-4.8074-11.3109-4.9488C141.4935,182.48279,139.3432,182.96079,137.2225,183.13569Z"/><path class="cls-5" d="M190.61049-7.2596c-3.7532,5.8687-1.6986,15.2269,4.892,17.4836,3.7949,1.2994,7.937.1388,11.8062-.9189s8.13741-1.9804,11.7683-.2757c3.6309,1.70479,5.5257,7.2339,2.44311,9.8004-1.94781,1.6217-4.77341,1.3402-7.30321,1.4958-2.5297.1555-5.5507,1.4428-5.6696,3.9745a4.02966,4.02966,0,0,0,2.7817,3.6842,9.53221,9.53221,0,0,0,4.8782.1677c5.3248-.8839,10.3442-3.0754,15.606-4.27881s11.1622-1.29359,15.6475,1.70921,6.537,9.9077,3.0225,14.0044c-2.68209,3.1265-7.4292,3.56439-11.4484,2.6618s-7.7352-2.8783-11.75369-3.7841c-4.01841-.9058-8.76471-.4761-11.45431,2.6439-1.7219,1.9975-2.3135,4.7621-3.95369,6.8272-2.49951,3.147-6.81241,4.02959-10.71841,4.9754-3.9059.9459-8.2089,2.554-9.7719,6.2564-1.8756,4.44279,1.605,9.7832,6.1891,11.2805s9.6414.043,13.8913-2.2362c4.2498-2.2792,8.041-5.364,12.3757-7.4773,9.3923-4.579,20.4381-4.1858,30.73321-2.3987,10.295,1.787,20.41559,4.8671,30.85329,5.3534s21.6685-2.0707,28.7236-9.7783a12.86653,12.86653,0,0,0,3.3797-5.9952,6.59918,6.59918,0,0,0-1.9497-6.342c-1.9142-1.572-4.6238-1.5741-7.1007-1.5917a99.83805,99.83805,0,0,1-21.2847-2.4532c-3.7642-.851-7.5824-1.9717-10.6312-4.3378-3.0488-2.366-5.19729-6.2346-4.545-10.0383.344-2.0057,1.426-4.0227.82771-5.9678-.53681-1.7451-2.25071-2.8098-3.83471-3.7179-13.1015-7.5104-26.0741-16.2586-40.0435-22.0874C217.62739-13.3521,199.20129-20.6929,190.61049-7.2596Z"/><path class="cls-5" d="M-9.38945-7.2596C-13.1426-1.3909-11.088,7.9673-4.4974,10.224c3.7948,1.2994,7.9369.1388,11.8061-.9189s8.1375-1.9804,11.7684-.2757c3.6309,1.70479,5.5257,7.2339,2.443,9.8004-1.9478,1.6217-4.7734,1.3402-7.3031,1.4958-2.5298.1555-5.5507,1.4428-5.6697,3.9745a4.02976,4.02976,0,0,0,2.7818,3.6842,9.53221,9.53221,0,0,0,4.8782.1677c5.3248-.8839,10.3442-3.0754,15.606-4.27881S42.9754,22.5796,47.4608,25.5824c4.4853,3.00279,6.5369,9.9077,3.0225,14.0044-2.6821,3.1265-7.4293,3.56439-11.4485,2.6618-4.0191-.9026-7.7352-2.8783-11.7536-3.7841s-8.7647-.4761-11.4543,2.6439c-1.722,1.9975-2.3135,4.7621-3.9537,6.8272-2.4995,3.147-6.8124,4.02959-10.7184,4.9754-3.9059.9459-8.20892,2.554-9.772,6.2564-1.87559,4.44279,1.605,9.7832,6.18906,11.2805s9.6415.043,13.8913-2.2362c4.2499-2.2792,8.0411-5.364,12.3758-7.4773,9.3923-4.579,20.438-4.1858,30.7331-2.3987,10.2951,1.787,20.4156,4.8671,30.8533,5.3534s21.6685-2.0707,28.7237-9.7783a12.86548,12.86548,0,0,0,3.3796-5.9952,6.59938,6.59938,0,0,0-1.9496-6.342c-1.9142-1.572-4.6239-1.5741-7.1007-1.5917a99.838,99.838,0,0,1-21.2847-2.4532c-3.7642-.851-7.5824-1.9717-10.6312-4.3378-3.0488-2.366-5.1974-6.2346-4.545-10.0383.344-2.0057,1.4259-4.0227.8277-5.9678-.5368-1.7451-2.2507-2.8098-3.8347-3.7179C55.909,5.9565,42.9363-2.7917,28.967-8.6205,17.6274-13.3521-.7987-20.6929-9.38945-7.2596Z"/><path class="cls-4" d="M137.2225-16.8644c-2.7963-2.05441-6.8858-1.1861-9.679.8725-2.7931,2.0586-4.7032,5.06409-6.9585,7.701A36.22717,36.22717,0,0,1,90.4639,4.0451c-4.5524-.3916-9.016-1.6574-13.584-1.7597S67.3523,3.5116,64.6485,7.1949c-2.829,3.8538-2.3249,9.6044.6998,13.3066a14.50346,14.50346,0,0,0,12.8823,4.78369c3.8315-.47,7.3681-2.23289,11.0742-3.31269,3.7061-1.0799,7.995-1.384,11.1611.8244,3.4327,2.3944,4.5061,6.9796,4.6963,11.1606.1903,4.181-.2093,8.5208,1.3232,12.4154a13.185,13.185,0,0,0,24.3904.3606c2.3351-5.455.9976-12.3928,4.8206-16.931,3.0987-3.6784,8.4834-4.35031,13.2873-4.1136s9.7759,1.09129,14.3134-.50371c4.5376-1.595,8.2561-6.88259,6.1135-11.18869a8.35715,8.35715,0,0,0-6.2686-4.1144,25.1501,25.1501,0,0,0-7.7466.3719q-9.75465,1.4742-19.5396,2.7393c-2.3948.3096-5.0553.5467-7.0062-.8763-2.5446-1.8562-2.5862-5.92581-.7352-8.4741,1.8509-2.5484,5.023-3.7993,8.1248-4.3468,4.2618-.7523,8.752-.4403,12.7908-1.9952,4.0388-1.5548,7.5198-6.033,5.8952-10.0442-1.6397-4.0489-6.9448-4.80751-11.3109-4.9489C141.4935-17.5173,139.3432-17.0393,137.2225-16.8644Z"/><path class="cls-5" d="M152.6104,17.9734c-3.535,2.25079-5.7144,7.2129-3.5036,10.773.9659,1.5553,2.5762,2.5886,3.7566,3.9881,3.6136,4.2841,2.324,11.0799-1.1534,15.4752-3.4775,4.3953-8.5989,7.0926-13.2932,10.1544s-9.3364,6.9634-10.8304,12.3652,1.7467,12.3333,7.3371,12.7313c4.4347.3157,8.0403-3.2515,11.4064-6.1559s8.301-5.4344,12.0276-3.0098c2.6301,1.71129,3.4111,5.1755,5.3662,7.6297a9.13006,9.13006,0,0,0,10.8726,2.544,8.17274,8.17274,0,0,0,3.7552-10.2672c-2.0566-4.4686-8.014-6.1009-10.067-10.57121-1.7807-3.87759.1153-8.59939,3.1747-11.57369,3.0594-2.9742,7.0825-4.6949,10.79719-6.7942,3.7148-2.0992,7.38271-4.8777,8.8065-8.9,2.2177-6.2655-2.0446-13.3374-7.8585-16.558C175.7249,15.6611,160.2857,13.0864,152.6104,17.9734Z"/><path class="cls-4" d="M161.0728,164.0154c-4.4759-1.7536-8.064-5.2346-12.3894-7.332-4.3255-2.0974-10.3287-2.3414-13.1908,1.5209-2.3414,3.1598-1.4467,7.8901,1.1423,10.8504,2.589,2.96019,6.4542,4.46839,10.2693,5.42319,3.815.9548,7.7646,1.4739,11.4056,2.9603,4.7098,1.9229,8.8144,5.4272,13.8211,6.3286a14.48026,14.48026,0,0,0,15.5422-8.6727c1.82209-4.63249.186-17.56449-6.7635-15.65-3.0307.8349-5.5211,4.2574-8.9921,5.1409A17.847,17.847,0,0,1,161.0728,164.0154Z"/><path class="cls-5" d="M113.359,158.6725c-2.1312-2.4998-5.6799-4.42731-8.6418-3.0067-4.0962,1.9645-3.4749,7.9831-5.6883,11.95039-3.0736,5.5088-10.8057,5.9008-17.0322,4.8887-6.2265-1.0122-13.2168-2.56459-18.3732,1.0694-5.5446,3.9077-5.3823,13.7321.5171,17.0801,4.6277,2.6264,10.4673,1.0291,15.3141-1.1669,4.8467-2.1961,9.7718-5.0064,15.0805-4.6432,8.1763.5595,15.536,8.5693,23.3286,6.0315,4.8999-1.5958,7.6138-6.8082,11.911-9.6524,4.8861-3.2339,12.3349-3.1285,16.0253-8.1541,3.0193-4.11159,2.5173-7.47639-2.2647-8.22249-4.5973-.7174-10.1539,3.0735-14.7178,3.6135C120.2647,169.4724,118.2424,164.4005,113.359,158.6725Z"/><path class="cls-5" d="M183.31169,102.1821c-2.0871,2.5055-2.64489,5.91909-2.96349,9.1644-.3185,3.2453-.5088,6.62269-2.0617,9.4901a14.15626,14.15626,0,0,1-8.7667,6.474,31.88737,31.88737,0,0,1-11.1174.6651c-3.6525-.2886-8.243-.32551-9.878,2.95349-1.2334,2.47341.1148,5.51351,2.0469,7.48991a14.50261,14.50261,0,0,0,16.4044,2.7529c3.059-1.5317,6.4043-4.2461,9.4422-2.67281,3.6945,1.91341,2.4646,7.98161,5.47979,10.84851,2.6369,2.5071,7.4779.9573,9.1127-2.2933,1.6348-3.2505.7004-7.2831-1.2365-10.36321-1.0873-1.72909-2.5086-3.36549-2.8089-5.38589-.511-3.4388,2.3164-6.3298,4.217-9.2409a20.193,20.193,0,0,0,2.125-16.708C191.87629,100.3243,187.787,96.8096,183.31169,102.1821Z"/><path class="cls-4" d="M178.6386,32.08819a8.90251,8.90251,0,0,0-3.9947,11.52051c1.7706,3.5868,5.9705,5.8301,6.79129,9.745.7717,3.6809-1.77269,7.1653-2.57589,10.83949a9.89864,9.89864,0,0,0,2.28549,8.95921,7.32809,7.32809,0,0,0,8.8176,1.30779c2.17971-1.37419,3.3061-3.95989,3.7618-6.496.4558-2.53609.367-5.14279.7661-7.68839.4615-2.94361,1.5643-5.7435,2.3172-8.6264.7528-2.8828,1.1449-5.9867.18561-8.8076C195.023,37.0483,184.76819,29.16719,178.6386,32.08819Z"/></g></pattern></defs><rect class="cls-6" x="-0.2348" width="842.12456" height="467.2077"/><path class="cls-7" d="M614.09549,81.82875c-.13449-.15043-.26913-.30417-.40363-.45777-.02993.20133-.05531.39776-.08869.60192C613.761,81.92317,613.93092,81.87676,614.09549,81.82875Z"/><path class="cls-7" d="M613.43349,82.92569c.6042.03428,1.20592.07008,1.78792.11643q-.56345-.586-1.12592-1.21337c-.16457.048-.33451.09442-.49232.14415C613.55157,82.28714,613.49171,82.607,613.43349,82.92569Z"/><path class="cls-7" d="M589.658,210.42493l.18513-.14932-.38156-.33762S589.53633,210.11621,589.658,210.42493Z"/><path class="cls-7" d="M619.67388,86.71058c5.6475,3.192,17.603,11.95086,23.09832,16.033-.99252-9.97465-8.12983-18.15518-27.55079-19.70148A20.38776,20.38776,0,0,0,619.67388,86.71058Z"/><path class="cls-7" d="M583.8353,169.39291c9.22526,4.048,17.696,1.92027,23.19806-.60276a32.70619,32.70619,0,0,0-18.019-6.92991A66.61786,66.61786,0,0,1,583.8353,169.39291Z"/><path class="cls-7" d="M659.11629,107.16952a32.50817,32.50817,0,0,0-6.13362-9.269c-17.45234-18.45928-31.51577-18.223-38.88718-16.07178q.56241.62893,1.12592,1.21337c19.421,1.5463,26.55827,9.72683,27.55079,19.70148a28.04873,28.04873,0,0,1-.00689,5.35657c-1.15613,12.49988-9.57509,26.36053-14.791,33.31493-5.82186,7.76234-12.10115,17.67112-16.54521,24.96652,1.30745-.84878-3.58245,9.351-5.225,11.86023-7.77145,11.87278-18.33575,23.1795-27.25615,31.752-9.7311,9.35148-17.49593,15.44937-17.49593,15.44937l-.7329-20.8885-7.76994,32.89247s33.011-7.50245,37.51255-11.00365c3.9847-3.09923.13353-13.638-.80381-16.01861-.12166-.30872-.19643-.48694-.19643-.48694l.38156.33762,25.627,22.67007L643.47945,182.929S672.10471,136.55286,659.11629,107.16952Z"/><path class="cls-7" d="M611.42914,166.38162a34.71655,34.71655,0,0,1-4.39578,2.40853c-5.5021,2.523-13.9728,4.65078-23.19806.60276a17.28656,17.28656,0,0,1-2.63117,2.66842,127.44834,127.44834,0,0,0-10.18123,8.58016,5.18264,5.18264,0,0,0-.81691.98334,7.80711,7.80711,0,0,1-4.92687,3.62639l-4.55993,19.3035.7329,20.8885s7.76483-6.09789,17.49593-15.44937c8.9204-8.5725,19.4847-19.87922,27.25615-31.752C607.84669,175.73262,612.73659,165.53284,611.42914,166.38162Z"/><path class="cls-7" d="M642.7722,102.7436c-5.49534-4.08216-17.45082-12.841-23.09832-16.033a20.38776,20.38776,0,0,1-4.45247-3.66846c-.582-.04635-1.18372-.08215-1.78792-.11643-.35576,1.94863-.81677,3.954-1.2273,5.733-.974,4.22086-7.143,7.79228-7.46769,10.38973a15.6019,15.6019,0,0,1-1.07019,3.42719,8.73,8.73,0,0,1-5.67536,5.06882,8.83092,8.83092,0,0,1-2.12961.36314c-7.67612.29355-21.19453,1.46816-23.26813,6.07616-2.922,6.49359-.9739,17.5327-.9739,17.5327a35.37114,35.37114,0,0,0-6.49365,5.84421,24.61475,24.61475,0,0,1-4.54559,4.54552l-.02014-.00869c-.21713-.09463-10.449-4.53338-17.83721-4.21211-7.46756.32466-11.03911,3.89614-13.96121-.64938s-6.16894-17.208-13.96122-17.85742c0,0-4.54558,2.59745-6.81838,4.22087-2.27265,1.62341-10.38966,10.06507-13.63649,11.68848-2.63669,1.31835-9.12759,3.49313-14.082,5.48114,4.114,7.71723,11.59669,15.45544,16.62026,18.26277,5.41933,3.02846,5.89759,6.85384,6.53518,10.51988.57675,3.31656,3.3707,10.78715,6.02257,12.53913a2.2392,2.2392,0,0,0,.83126.37163c2.869.47819,9.5635-5.57874,10.83867-6.05692s12.4325,5.57873,19.76459,6.37571c7.22491.78526,12.90482,1.87951,19.16949,2.82637.0927.014.18319.02869.27631.04269a12.02618,12.02618,0,0,0,4.95542-.199,7.80711,7.80711,0,0,0,4.92687-3.62639,5.18264,5.18264,0,0,1,.81691-.98334,127.44834,127.44834,0,0,1,10.18123-8.58016,17.28656,17.28656,0,0,0,2.63117-2.66842,66.61786,66.61786,0,0,0,5.179-7.53267,32.70619,32.70619,0,0,1,18.019,6.92991,34.71655,34.71655,0,0,0,4.39578-2.40853c4.44406-7.2954,10.72335-17.20418,16.54521-24.96652,5.21587-6.9544,13.63483-20.815,14.791-33.31493A28.04873,28.04873,0,0,0,642.7722,102.7436Z"/><polygon class="cls-7" points="326.815 467.208 201.16 408.334 204.349 369.831 170.992 302.025 -0.235 354.069 -0.235 467.208 326.815 467.208"/><path class="cls-7" d="M441.06092,340.89752l.68335,35.31305L334.06068,467.2077H623.29957l-45.59925-42.10248c-6.63842,1.919-20.30664,5.7923-26.2517,6.90705-8.00245,1.50049-22.67457,3.20532-25.86426.69922s-7.29029-3.64521-11.39136-5.01215c-4.10083-1.367-7.29028.45563-12.7583-3.18964-5.46777-3.6452-4.32861-13.66949-4.32861-13.66949s-3.832-2.55566-4.896-6.03961l-4.90064,4.90045s-30.52856-7.51825-29.61743-15.72l19.62452-16.99036c-4.53589-.89563-15.23731-6.121-16.6626-10.80438-1.59473-5.24-5.01221-7.29047,1.36694-19.36524S470.22254,329.50623,473.64,328.595c3.16675-.84454,21.38794-4.69031,29.39331-9.02606-32.26465-35.79346-61.07129-67.81531-74.96411-83.26459a20.609,20.609,0,0,0-21.34717-5.92847L328.17933,254.2486c5.71777,10.86651,10.21728,20.25457,11.271,24.68023,3.41748,14.353-12.7583,33.49048-12.7583,33.49048Z"/><path class="cls-7" d="M484.12,360.49058s7.29043-2.73388,10.70776-1.59472a1.32652,1.32652,0,0,1,.49109.30237c.70311-3.52568,1.32193-7.08585,1.10384-8.50414-.45577-2.96177-10.7079-5.69564-11.61917-7.51825s-5.69578,2.50606-6.37916,5.01219c-.68352,2.50606-1.82254,6.15127,2.96169,12.75825,4.78438,6.60691,3.87311,10.48.45578,11.16347a8.5306,8.5306,0,0,1-.08732,1.0388l4.435-3.83965A67.41429,67.41429,0,0,1,484.12,360.49058Z"/><path class="cls-7" d="M518.52172,401.72718c10.25227-1.82261,13.6696-7.974,13.6696-7.974s-16.63129-.22782-20.04862-2.05043a6.22274,6.22274,0,0,1-3.30021-3.53458l-7.1798,7.1798C506.67481,399.90457,508.2696,403.54979,518.52172,401.72718Z"/><path class="cls-7" d="M533.311,353.137q-5.24538-5.81131-10.47849-11.61214a11.91976,11.91976,0,0,1-1.12122,1.1953c-5.69565,5.23994-13.6696,10.48-13.89735,13.66953a39.436,39.436,0,0,1-3.94,12.32131l17.15382,7.27174-8.19618,8.19632c4.95612-1.689,7.05786-2.81795,12.06929-4.77892a16.64782,16.64782,0,0,1,5.14082-.72242c7.82994-.20051,20.40824,1.704,23.79316,2.77285,1.72046.54336,4.21838,1.40683,7.07247,2.23713C551.87769,373.70026,542.59643,363.42448,533.311,353.137Z"/><path class="cls-7" d="M508.30872,216.25781c8.44165,7.46765,17.85718,12.66254,13.96118,17.53272-3.89624,4.87018-7.46753,17.53265-5.84423,21.42883s.64941,13.31189-2.27283,18.50678c-2.922,5.19482-.64929,15.25988-2.922,23.05224-2.2727,7.7923-6.49365,21.7536-6.49365,21.7536s18.83142,6.81824,20.13013,18.83136l.16711-.1203a11.11093,11.11093,0,0,1-2.2019,4.28186q5.22693,5.79392,10.47851,11.61212c9.2854,10.28742,18.56665,20.56324,27.59632,30.55072a59.97375,59.97375,0,0,0,9.94519,2.11579,52.42548,52.42548,0,0,0-1.06995,6.5827,4.63661,4.63661,0,0,0,.0437,1.163c.70923,5.2882,7.45654,21.13665,11.58179,30.47534-.251.074-1.63452.48132-3.70777,1.08062l45.59925,42.10248H742.71278a31.36709,31.36709,0,0,0-3.23206-9.71283c-4.87024-8.76635-7.14294-23.37695-7.14294-23.37695s15.26-42.20837,15.26-66.23462c0,0,2.27258-37.01355-4.54554-69.80621-6.81836-32.79267-3.07177-114.142-14.11071-138.1684-9.47522-20.62244-57.97754-42.6333-69.8252-52.7392,12.98828,29.38337-15.637,75.75947-15.637,75.75947L615.4701,232.94568l-25.62695-22.67011-.18518.14936c.93737,2.38061,4.78845,12.91937.80383,16.01861-4.50159,3.50116-37.51257,11.00366-37.51257,11.00366l7.76989-32.89251,4.56006-19.30347a12.02736,12.02736,0,0,1-4.95556.199c-.093-.014-.1836-.02869-.27625-.04267-6.26465-.9469-11.94458-2.04113-19.16956-2.82641-7.332-.79694-18.48925-6.85389-19.76452-6.37567-1.27515.47814-7.96961,6.53509-10.83863,6.05688a2.23879,2.23879,0,0,1-.83129-.37164c-1.68677,6.175-3.692,14.22131-4.05677,18.78247C504.73719,208.7901,499.86683,208.7901,508.30872,216.25781Z"/><path class="cls-7" d="M492.32183,401.04366c2.05042-5.24,4.3286-10.2522,9.34086-5.69564l7.1798-7.1798c-.32445-1.40353.49232-2.81989,3.30021-3.75585.23851-.07953.46267-.15622.6889-.23327l8.19618-8.19632L503.874,368.711c-1.07874,1.93628-2.30328,3.32373-3.57832,3.39871a7.01043,7.01043,0,0,1-5.562-2.12657c-.54461,2.01463-1.04507,3.49354-1.04507,3.49354l-6.15128.45564s-.62889-2.06753-1.34787-4.62346l-4.435,3.83965c-.20016,1.42036-.867,3.81372-3.10227,3.97339a5.38166,5.38166,0,0,1-1.33559-.13126L457.69221,393.981c-.91127,8.20177,29.61736,15.72,29.61736,15.72l4.90052-4.90045A5.586,5.586,0,0,1,492.32183,401.04366Z"/><path class="cls-7" d="M569.82636,393.54927a4.63535,4.63535,0,0,1-.04373-1.163,52.3938,52.3938,0,0,1,1.06991-6.5827,59.9667,59.9667,0,0,1-9.9452-2.11581c-2.85409-.8303-5.352-1.69377-7.07247-2.23713-3.38492-1.06888-15.96322-2.97336-23.79316-2.77285a16.64782,16.64782,0,0,0-5.14082.72242c-5.01143,1.961-7.11317,3.08992-12.06929,4.77892-.22623.077-.45039.15374-.6889.23327-2.80789.936-3.62466,2.35232-3.30021,3.75585a6.22274,6.22274,0,0,0,3.30021,3.53458c3.41733,1.82261,20.04862,2.05043,20.04862,2.05043s-3.41733,6.15134-13.6696,7.974c-10.25212,1.82261-11.84691-1.82261-16.859-6.37916-5.01226-4.55656-7.29044.45563-9.34086,5.69564a5.586,5.586,0,0,0-.11174,3.757c1.064,3.484,4.896,6.03961,4.896,6.03961s-1.13915,10.02431,4.32874,13.66953,8.65747,1.8226,12.75833,3.18958,8.2017,2.50613,11.39128,5.01219,17.86176.80125,25.86427-.69925c5.94519-1.11474,19.61326-4.988,26.25163-6.907,2.07332-.59931,3.45678-1.00666,3.7077-1.08067C577.28288,414.68594,570.53554,398.83749,569.82636,393.54927Z"/><path class="cls-7" d="M494.07126,365.31482c.32307-1.65542.79967-3.87007,1.24758-6.11659a1.32652,1.32652,0,0,0-.49109-.30237c-3.41733-1.13916-10.70776,1.59472-10.70776,1.59472a67.41429,67.41429,0,0,0,2.06946,8.81832c.719,2.55593,1.34787,4.62346,1.34787,4.62346l6.15128-.45564s.50046-1.47891,1.04507-3.49354a3.48326,3.48326,0,0,1-1.04507-2.2021A18.32543,18.32543,0,0,1,494.07126,365.31482Z"/><path class="cls-7" d="M524.86737,337.36336c-1.29876-12.01315-20.13015-18.83139-20.13015-18.83139a17.14644,17.14644,0,0,1-1.7039,1.03694c-8.00541,4.33577-26.22652,8.18156-29.39334,9.02606-3.41733.91127-5.24,6.15128-11.619,18.22608-6.37917,12.07481-2.96184,14.12523-1.36705,19.36524,1.4254,4.68333,12.12681,9.90878,16.66274,10.80439a5.38166,5.38166,0,0,0,1.33559.13126c2.23528-.15967,2.90211-2.553,3.10227-3.97339a8.5306,8.5306,0,0,0,.08732-1.0388c3.41733-.68345,4.3286-4.55656-.45578-11.16347-4.78423-6.607-3.64521-10.25219-2.96169-12.75825.68338-2.50613,5.46789-6.8348,6.37916-5.01219s11.1634,4.55648,11.61917,7.51825c.21809,1.41829-.40073,4.97846-1.10384,8.50414-.44791,2.24652-.92451,4.46117-1.24758,6.11659a18.32543,18.32543,0,0,0-.38266,2.46626,3.48326,3.48326,0,0,0,1.04507,2.2021,7.01043,7.01043,0,0,0,5.562,2.12657c1.275-.075,2.49958-1.46243,3.57832-3.39871a39.436,39.436,0,0,0,3.94-12.32131c.22775-3.18958,8.2017-8.42959,13.89735-13.66953a11.91976,11.91976,0,0,0,1.12122-1.1953,11.11065,11.11065,0,0,0,2.20189-4.28183Z"/><path class="cls-7" d="M170.99207,302.02515l33.3573,67.80633-3.18957,38.50257L326.81531,467.2077h7.24537l107.68359-90.99713-.68335-35.31305L326.692,312.41931s16.17578-19.13745,12.7583-33.49048c-1.05358-4.42566-5.55322-13.81372-11.271-24.68023-12.82569-24.37519-31.78809-56.19812-31.78809-56.19812-.68347-11.16346-19.13745-26.65564-19.13745-26.65564l-131.2279,27.11139-12.75831,32.80694,8.42957,11.16345Zm151.827,16.08978,109.12878,29.38959L331.02076,428.155l-107.306-47.38782Z"/><path class="cls-7" d="M431.94781,347.50451,322.81908,318.115l-99.10435,62.65219L331.02078,428.155Zm-79.92-5.42858,3.83475.54785a5.26487,5.26487,0,0,0,4.05285-1.11626l4.14016-3.34387,47.74564,13.64159a.86564.86564,0,0,1,.276,1.52885l-19.74569,14.56962a4.80836,4.80836,0,0,1-4.89625.4844l-45.02328-21.11142,6.20315-4.37868A4.75218,4.75218,0,0,1,352.02785,342.07593Zm-32.63727-8.51429,7.78565-6.26253a1.56979,1.56979,0,0,1,1.45643-.27368l13.66243,4.31446a1.56972,1.56972,0,0,1,.49108,2.73581l-6.67823,5.194a7.025,7.025,0,0,1-7.06889.91672l-9.28043-3.95787A1.56952,1.56952,0,0,1,319.39058,333.56164Zm-53.36845,55.64462-14.18634-5.911a1.017,1.017,0,0,1-.19781-1.76784l53.33561-37.88514a5.60883,5.60883,0,0,1,5.48459-.571l8.6863,3.77661a2.55908,2.55908,0,0,1,.47343,4.42461l-52.61112,37.82079A1.01688,1.01688,0,0,1,266.02213,389.20626Zm64.02669,30.28943-49.81607-22.16484a.893.893,0,0,1-.175-1.52865l55.99576-42.27354a.89331.89331,0,0,1,.9263-.09152l44.07339,21.2693a.89306.89306,0,0,1,.19381,1.48167L330.99374,419.3572A.893.893,0,0,1,330.04882,419.49569Z"/><path class="cls-7" d="M381.05315,374.70644l-44.07339-21.2693a.89331.89331,0,0,0-.9263.09152L280.0577,395.8022a.893.893,0,0,0,.175,1.52865l49.81607,22.16484a.893.893,0,0,0,.94492-.13849L381.247,376.18811A.89306.89306,0,0,0,381.05315,374.70644Z"/><path class="cls-7" d="M319.14448,346.84788l-8.6863-3.77661a5.60883,5.60883,0,0,0-5.48459.571L251.638,381.52744a1.017,1.017,0,0,0,.19781,1.76784l14.18634,5.911a1.01688,1.01688,0,0,0,.98466-.113l52.61112-37.82079A2.55908,2.55908,0,0,0,319.14448,346.84788Z"/><path class="cls-7" d="M319.75862,336.22855l9.28043,3.95787a7.025,7.025,0,0,0,7.06889-.91672l6.67823-5.194a1.56972,1.56972,0,0,0-.49108-2.73581l-13.66243-4.31446a1.56979,1.56979,0,0,0-1.45643.27368l-7.78565,6.26253A1.56952,1.56952,0,0,0,319.75862,336.22855Z"/><path class="cls-7" d="M387.43534,368.38811a4.80836,4.80836,0,0,0,4.89625-.4844l19.74569-14.56962a.86564.86564,0,0,0-.276-1.52885l-47.74564-13.64159-4.14016,3.34387a5.26487,5.26487,0,0,1-4.05285,1.11626l-3.83475-.54785a4.75218,4.75218,0,0,0-3.41264.82208l-6.20315,4.37868Z"/><path class="cls-8" d="M616.18515,80.19486c-.1345-.15043-.26914-.30417-.40363-.45777-.02994.20133-.05532.39776-.0887.60192C615.85063,80.28928,616.02058,80.24286,616.18515,80.19486Z"/><path class="cls-8" d="M615.52314,81.2918c.60421.03428,1.20593.07008,1.78792.11643q-.56345-.586-1.12591-1.21337c-.16457.048-.33452.09442-.49233.14415C615.64123,80.65325,615.58136,80.97308,615.52314,81.2918Z"/><path class="cls-8" d="M591.74765,208.791l.18512-.14932-.38156-.33763S591.626,208.48232,591.74765,208.791Z"/><path class="cls-9" d="M621.76353,85.07669c5.6475,3.192,17.603,11.95086,23.09833,16.033-.99252-9.97465-8.12984-18.15518-27.5508-19.70148A20.38776,20.38776,0,0,0,621.76353,85.07669Z"/><path class="cls-10" d="M585.925,167.759c9.22525,4.048,17.69595,1.92027,23.198-.60276a32.70615,32.70615,0,0,0-18.019-6.92991A66.61808,66.61808,0,0,1,585.925,167.759Z"/><path class="cls-9" d="M661.20594,105.53563a32.50817,32.50817,0,0,0-6.13362-9.269c-17.45234-18.45928-31.51577-18.223-38.88717-16.07178q.56239.62892,1.12591,1.21337c19.421,1.5463,26.55828,9.72683,27.5508,19.70148a28.04874,28.04874,0,0,1-.0069,5.35657c-1.15612,12.49988-9.57509,26.36053-14.791,33.31493-5.82186,7.76234-12.10115,17.67112-16.54521,24.96652,1.30745-.84878-3.58245,9.351-5.225,11.86023-7.77145,11.87278-18.33574,23.1795-27.25614,31.752-9.73111,9.35148-17.49594,15.44937-17.49594,15.44937l-.7329-20.8885-7.76993,32.89247s33.011-7.50245,37.51254-11.00365c3.98471-3.09923.13354-13.638-.8038-16.01861-.12167-.30872-.19644-.487-.19644-.487l.38156.33763,25.627,22.67007,28.00933-50.01671S674.19436,134.919,661.20594,105.53563Z"/><path class="cls-7" d="M613.51879,164.74773a34.71781,34.71781,0,0,1-4.39578,2.40853c-5.5021,2.523-13.9728,4.65077-23.198.60276a17.287,17.287,0,0,1-2.63118,2.66842,127.44631,127.44631,0,0,0-10.18122,8.58015,5.1831,5.1831,0,0,0-.81692.98335,7.80711,7.80711,0,0,1-4.92687,3.62639l-4.55993,19.3035.7329,20.8885s7.76483-6.09789,17.49594-15.44937c8.9204-8.5725,19.48469-19.87922,27.25614-31.752C609.93634,174.09873,614.82624,163.899,613.51879,164.74773Z"/><path class="cls-10" d="M642.86185,104.10971c-5.49534-4.08216-17.45082-12.841-23.09832-16.033a20.38776,20.38776,0,0,1-4.45247-3.66846c-.582-.04635-1.18372-.08215-1.78792-.11643-.35576,1.94863-.81677,3.954-1.2273,5.733-.974,4.22086-7.143,7.79228-7.46769,10.38973a15.6019,15.6019,0,0,1-1.07019,3.42719c-1.02162,2.50785-1.14433,1.333-3.67536,2.06882a8.83083,8.83083,0,0,1-2.1296.36314c-7.67613.29355-21.19454,1.46815-23.26814,6.07616-2.922,6.49359-.9739,17.5327-.9739,17.5327a35.37114,35.37114,0,0,0-6.49365,5.84421,24.61475,24.61475,0,0,1-4.54559,4.54552l-.02014-.0087c-.21713-.09463-10.449-4.53337-17.83721-4.2121-7.46756.32466-11.03911,3.89614-13.96121-.64938s-6.16894-17.208-13.96121-17.85742c0,0-4.54559,2.59745-6.81839,4.22086-2.27265,1.62342-10.38966,10.06508-13.63648,11.68849-2.6367,1.31835-9.1276,3.49313-14.08206,5.48114,4.114,7.71723,11.59669,15.45544,16.62026,18.26277,5.41933,3.02846,5.89759,6.85383,6.53518,10.51988.57675,3.31656,3.3707,10.78715,6.02257,12.53913a2.23936,2.23936,0,0,0,.83126.37163c2.869.47818,9.5635-5.57874,10.83867-6.05693s12.4325,5.57874,19.76459,6.37572c7.22491.78525,12.90482,1.87951,19.16949,2.82637.0927.014.18319.02869.27631.04269a12.02618,12.02618,0,0,0,4.95542-.199,7.80711,7.80711,0,0,0,4.92687-3.62639,5.1831,5.1831,0,0,1,.81692-.98335,127.44631,127.44631,0,0,1,10.18122-8.58015A17.287,17.287,0,0,0,585.925,167.759a66.61808,66.61808,0,0,0,5.179-7.53267,32.70615,32.70615,0,0,1,18.019,6.92991,34.71781,34.71781,0,0,0,4.39578-2.40853c4.44406-7.2954,10.72335-17.20418,16.54521-24.96652,5.21587-6.9544,11.63483-17.815,12.791-30.31493A28.04791,28.04791,0,0,0,642.86185,104.10971Z"/><path class="cls-11" d="M441.0763,341.33783l.68335,35.313L334.59717,467.2077H622.8379l-45.1222-41.66211c-6.63842,1.91895-20.30639,5.79224-26.2517,6.907-8.00245,1.50048-22.67456,3.20532-25.86426.69921-3.18945-2.506-7.29029-3.6452-11.39112-5.01214-4.10107-1.367-7.29052.45563-12.7583-3.18958-5.468-3.64526-4.32885-13.66955-4.32885-13.66955s-3.832-2.55567-4.896-6.03961l-4.90063,4.90045s-30.52857-7.51825-29.61719-15.72L477.33216,377.431c-4.53613-.89557-15.23755-6.121-16.66284-10.80438-1.59473-5.24-5.01221-7.29041,1.36694-19.36524,6.37915-12.07477,8.20166-17.31482,11.61914-18.22607,3.16675-.84448,21.38794-4.69031,29.39331-9.02606-32.26465-35.79346-61.07129-67.81531-74.96411-83.26459a20.60883,20.60883,0,0,0-21.34717-5.92841L328.19471,254.689c5.71777,10.86646,10.21753,20.25458,11.271,24.68018,3.41749,14.35309-12.7583,33.49048-12.7583,33.49048Z"/><polyline class="cls-11" points="325.891 467.208 201.175 408.774 204.365 370.272 171.007 302.466 -0.235 354.514 -0.235 467.208"/><path class="cls-11" d="M482.20964,358.85669s7.29043-2.73388,10.70776-1.59472a1.32652,1.32652,0,0,1,.49109.30237c.70311-3.52568,1.32193-7.08586,1.10384-8.50414-.45577-2.96177-10.7079-5.69565-11.61917-7.51825s-5.69578,2.50606-6.37916,5.01219c-.68352,2.50606-1.82254,6.15127,2.96169,12.75825,4.78437,6.60691,3.8731,10.48.45578,11.16347a8.5306,8.5306,0,0,1-.08732,1.0388l4.435-3.83965A67.41429,67.41429,0,0,1,482.20964,358.85669Z"/><path class="cls-11" d="M520.61138,400.09329c10.25226-1.82261,13.66959-7.974,13.66959-7.974s-16.63129-.22781-20.04862-2.05042a6.22276,6.22276,0,0,1-3.30021-3.53458l-7.1798,7.1798C508.76446,398.27068,510.35925,401.9159,520.61138,400.09329Z"/><path class="cls-11" d="M533.32646,353.57736q-5.24538-5.81132-10.47849-11.61213a11.92089,11.92089,0,0,1-1.12123,1.1953c-5.69564,5.23993-13.66959,10.47994-13.89734,13.66952a39.43577,39.43577,0,0,1-3.94,12.32131l17.15383,7.27174-8.19618,8.19633c4.95611-1.689,7.05785-2.818,12.06928-4.77893a16.64789,16.64789,0,0,1,5.14083-.72242c7.82993-.2005,20.40824,1.704,23.79315,2.77285,1.72046.54337,4.21838,1.40684,7.07248,2.23713C551.89313,374.14059,542.61186,363.8648,533.32646,353.57736Z"/><path class="cls-9" d="M510.39832,214.6239c8.44165,7.46765,17.8573,12.66254,13.96118,17.53272s-7.46753,17.53271-5.84423,21.42883c1.62329,3.89624.64941,13.31189-2.27271,18.50684-2.92212,5.19482-.64941,15.25988-2.92212,23.05224-2.2727,7.79224-6.49365,21.75354-6.49365,21.75354s18.83154,6.81824,20.13025,18.83136l.16711-.1203a11.11266,11.11266,0,0,1-2.2019,4.28186q5.22693,5.79392,10.47851,11.61212c9.2854,10.28748,18.56665,20.56324,27.59619,30.55072a59.96074,59.96074,0,0,0,9.94532,2.11579,52.40642,52.40642,0,0,0-1.07007,6.5827,4.63794,4.63794,0,0,0,.04382,1.163c.70911,5.28827,7.45642,21.13672,11.58167,30.47535-.251.074-1.6344.48138-3.70777,1.08068l47.3689,43.73633H745.05433a32.97715,32.97715,0,0,0-3.48389-11.34668c-4.87024-8.76642-7.14307-23.377-7.14307-23.377s15.26-42.20831,15.26-66.23462c0,0,2.27271-37.01355-4.54541-69.80621-6.81835-32.79267-3.07177-114.142-14.11084-138.1684-9.47509-20.62238-57.97741-42.63324-69.82519-52.7392C674.19434,134.919,645.5691,181.295,645.5691,181.295l-28.0094,50.01673-25.62695-22.67005-.18506.1493c.93725,2.38061,4.78845,12.91937.80371,16.01861-4.50147,3.50122-37.51245,11.00366-37.51245,11.00366l7.76989-32.89245,4.55994-15.30353a12.02678,12.02678,0,0,1-4.95544.199c-.09314-.014-.1836-.02869-.27625-.04267-6.26465-.94684-11.94458-2.04114-19.16955-2.82635-7.33216-.797-18.48938-6.85395-19.76453-6.37574s-7.96973,2.5351-10.83875,2.057a2.23916,2.23916,0,0,1-.83117-.37164c-1.68677,6.17492-3.692,14.22131-4.05689,18.78241C506.82679,207.15625,501.95655,207.15625,510.39832,214.6239Z"/><path class="cls-12" d="M494.41148,399.40977c2.05043-5.24,4.3286-10.2522,9.34086-5.69564l7.1798-7.1798c-.32445-1.40353.49233-2.81989,3.30021-3.75585.23851-.07953.46267-.15623.6889-.23327l8.19619-8.19632-17.15383-7.27174c-1.07874,1.93627-2.30328,3.32373-3.57831,3.39871a7.01044,7.01044,0,0,1-5.562-2.12657c-.54461,2.01462-1.04507,3.49354-1.04507,3.49354l-6.15128.45563s-.62889-2.06753-1.34787-4.62345l-4.435,3.83965c-.20016,1.42036-.867,3.81371-3.10226,3.97339a5.38162,5.38162,0,0,1-1.33559-.13126l-19.62444,16.99036c-.91127,8.20177,29.61736,15.72,29.61736,15.72l4.90052-4.90045A5.586,5.586,0,0,1,494.41148,399.40977Z"/><path class="cls-10" d="M568.916,391.91538a4.63535,4.63535,0,0,1-.04373-1.163c.27258-1.99918.47964-.39329,1.06991-2.5827-3.39815-.37431-3.87756-1.22337-6.94519-2.11581-2.8541-.83029-5.352-1.69377-7.07248-2.23713-3.38491-1.06888-15.96322-2.97335-23.79316-2.77285a16.64782,16.64782,0,0,0-5.14082.72242c-5.01143,1.961-7.11317,3.08992-12.06929,4.77892-.22623.077-.45039.15374-.6889.23327-2.80788.936-3.62466,2.35232-3.30021,3.75585a6.22274,6.22274,0,0,0,3.30021,3.53458c3.41733,1.82261,20.04862-1.94958,20.04862-1.94958s-3.41733,6.15135-13.66959,7.974c-10.25213,1.82261-11.84692-1.82261-16.859-6.37916-5.01226-4.55656-7.29043.45563-9.34086,5.69564a5.586,5.586,0,0,0-.11174,3.757c1.064,3.484,4.896,6.03961,4.896,6.03961s-1.13915,10.02431,4.32874,13.66952,8.65748,1.82261,12.75833,3.18958,8.2017,2.50613,11.39128,5.01219,17.86176.80126,25.86427-.69924c5.94519-1.11474,16.61326-4.988,23.25163-6.907,2.07332-.59931,3.45678-1.00666,3.7077-1.08067C576.37253,413.05205,569.62519,397.2036,568.916,391.91538Z"/><path class="cls-13" d="M496.16091,363.68093c.32307-1.65542.79967-3.87007,1.24758-6.11659a1.32644,1.32644,0,0,0-.49109-.30237c-3.41733-1.13916-10.70776,1.59472-10.70776,1.59472a67.41594,67.41594,0,0,0,2.06946,8.81832c.719,2.55592,1.34787,4.62345,1.34787,4.62345l6.15128-.45563s.50046-1.47892,1.04507-3.49354a3.48326,3.48326,0,0,1-1.04507-2.2021A18.32543,18.32543,0,0,1,496.16091,363.68093Z"/><path class="cls-10" d="M526.957,335.72946c-1.29876-12.01314-20.13015-18.83138-20.13015-18.83138a17.14644,17.14644,0,0,1-1.7039,1.03694c-8.00541,4.33577-26.22652,8.18156-29.39334,9.02606-3.41733.91127-5.24,6.15128-11.619,18.22608-6.37917,12.07481-2.96184,14.12523-1.367,19.36524,1.42539,4.68332,12.1268,9.90878,16.66274,10.80439a5.38162,5.38162,0,0,0,1.33559.13126c2.23527-.15968,2.9021-2.553,3.10226-3.97339a8.52813,8.52813,0,0,0,.08732-1.0388c3.41733-.68346,4.3286-4.55656-.45577-11.16347-4.78424-6.607-3.64522-10.25219-2.9617-12.75825.68338-2.50613,5.46789-6.8348,6.37916-5.01219s11.1634,4.55648,11.61917,7.51825c.21809,1.41828-.40073,4.97846-1.10384,8.50414-.44791,2.24652-.92451,4.46117-1.24758,6.11659a18.32543,18.32543,0,0,0-.38266,2.46626,3.48326,3.48326,0,0,0,1.04507,2.2021,7.01044,7.01044,0,0,0,5.562,2.12657c1.275-.075,2.49957-1.46244,3.57831-3.39871a39.43579,39.43579,0,0,0,3.94-12.32131c.22775-3.18958,8.20171-8.42959,13.89735-13.66953a11.91976,11.91976,0,0,0,1.12122-1.1953,11.11065,11.11065,0,0,0,2.20189-4.28183Z"/><path class="cls-14" d="M173.08179,300.3913l33.3573,67.80627L203.2494,406.7002l129.14294,60.5075h1.82446l109.61707-92.631-.68335-35.31311L328.78162,310.7854s16.17578-19.13739,12.75843-33.49048c-1.05359-4.4256-5.55335-13.81372-11.271-24.68017-12.82568-24.37525-31.78821-56.19812-31.78821-56.19812-.68335-11.16352-19.13745-26.6557-19.13745-26.6557L148.11555,196.87231l-12.7583,32.807,8.42956,11.16345Zm151.827,16.08978,109.12866,29.38953-100.927,80.65045L225.80433,379.13324Z"/><path class="cls-15" d="M434.03746,345.87061,324.90873,316.48107l-99.10435,62.65219,107.30605,47.38781Zm-79.92-5.42857,3.83475.54785a5.26487,5.26487,0,0,0,4.05285-1.11626l4.14016-3.34387,47.74564,13.64159a.86564.86564,0,0,1,.276,1.52885l-19.74569,14.56962a4.80837,4.80837,0,0,1-4.89624.4844L344.50172,345.6428l6.20314-4.37868A4.75218,4.75218,0,0,1,354.1175,340.442Zm-32.63727-8.51429,7.78565-6.26253a1.5698,1.5698,0,0,1,1.45644-.27368l13.66242,4.31446a1.56971,1.56971,0,0,1,.49108,2.7358l-6.67822,5.194a7.025,7.025,0,0,1-7.0689.91671l-9.28043-3.95787A1.56951,1.56951,0,0,1,321.48023,331.92775Zm-53.36845,55.64462-14.18634-5.911a1.017,1.017,0,0,1-.19781-1.76784l53.33561-37.88514a5.60883,5.60883,0,0,1,5.48459-.571l8.6863,3.77661a2.55907,2.55907,0,0,1,.47343,4.42461l-52.61112,37.82079A1.01691,1.01691,0,0,1,268.11178,387.57237Zm64.02669,30.28943L282.3224,395.697a.893.893,0,0,1-.175-1.52865l55.99576-42.27354a.89331.89331,0,0,1,.9263-.09152l44.07339,21.2693a.89306.89306,0,0,1,.19381,1.48167L333.0834,417.7233A.893.893,0,0,1,332.13847,417.8618Z"/><path class="cls-16" d="M383.1428,373.07255l-44.07339-21.2693a.89331.89331,0,0,0-.9263.09152l-55.99576,42.27354a.893.893,0,0,0,.175,1.52865l49.81607,22.16484a.893.893,0,0,0,.94493-.1385l50.25321-43.16908A.89306.89306,0,0,0,383.1428,373.07255Z"/><path class="cls-16" d="M321.23413,345.214l-8.6863-3.77661a5.60883,5.60883,0,0,0-5.48459.571l-53.33561,37.88514a1.017,1.017,0,0,0,.19781,1.76784l14.18634,5.911a1.01691,1.01691,0,0,0,.98466-.113l52.61112-37.82079A2.55907,2.55907,0,0,0,321.23413,345.214Z"/><path class="cls-16" d="M321.84827,334.59465l9.28043,3.95787a7.025,7.025,0,0,0,7.0689-.91671l6.67822-5.194a1.56971,1.56971,0,0,0-.49108-2.7358l-13.66242-4.31446a1.5698,1.5698,0,0,0-1.45644.27368l-7.78565,6.26253A1.56951,1.56951,0,0,0,321.84827,334.59465Z"/><path class="cls-16" d="M389.525,366.75422a4.80837,4.80837,0,0,0,4.89624-.4844l19.74569-14.56962a.86564.86564,0,0,0-.276-1.52885l-47.74564-13.64159-4.14016,3.34387a5.26487,5.26487,0,0,1-4.05285,1.11626l-3.83475-.54785a4.75218,4.75218,0,0,0-3.41264.82208l-6.20314,4.37868Z"/><path class="cls-8" d="M613.37646,83.26824c-.1345-.15043-.26914-.30417-.40363-.45777-.02994.20133-.05532.39777-.0887.60193C613.04194,83.36267,613.21189,83.31625,613.37646,83.26824Z"/><path class="cls-8" d="M612.71445,84.36519c.60421.03428,1.20593.07007,1.78792.11642q-.56345-.586-1.12591-1.21337c-.16457.048-.33452.09443-.49233.14416C612.83254,83.72664,612.77267,84.04646,612.71445,84.36519Z"/><path class="cls-8" d="M588.939,211.86443l.18512-.14933-.38156-.33762S588.81729,211.5557,588.939,211.86443Z"/><path class="cls-8" d="M618.95484,88.15007c5.6475,3.192,17.603,11.95086,23.09833,16.033-.99252-9.97465-8.12984-18.15517-27.5508-19.70148A20.38718,20.38718,0,0,0,618.95484,88.15007Z"/><path class="cls-15" d="M613.11063,77.43562c-.64944-2.9221-12.33786-21.75356-16.234-27.59777-3.89614-5.84427-11.68856-12.33786-15.5847-14.28593s3.57156-5.51956.32473-5.51956-2.92211-.974-2.92211-4.54552-26.6238-15.58462-38.31222-16.234c-11.68841-.64931-33.76677.64938-41.55905.64938-7.79241,0-2.59738,3.24683-14.93524,11.68849s-21.42891,20.13014-27.27311,36.36415c-5.84435,16.23393-11.68856,21.42883-11.68856,31.16925s-4.87017,25.325-4.54545,33.7667c.32459,8.44166,5.1949,7.46762,14.2858,12.01314,9.09117,4.54552,16.88345,10.71445,21.75363,8.44166.91513-.42708,1.97938-.87713,3.126-1.33711,4.95446-1.988,11.44536-4.16279,14.08206-5.48113,3.24683-1.62342,11.36383-10.06508,13.63648-11.68849,2.2728-1.62342,6.81839-4.22086,6.81839-4.22086,7.79227.64937,11.0391,13.3119,13.96121,17.85742s6.49365.974,13.96121.64937c7.38823-.32127,17.62008,4.11748,17.83721,4.21211l.02014.00869a24.61475,24.61475,0,0,0,4.54559-4.54552,35.37155,35.37155,0,0,1,6.49365-5.84421s-1.94806-11.03911.9739-17.53269c2.0736-4.608,15.592-5.78262,23.26814-6.07617a8.83083,8.83083,0,0,0,2.1296-.36314,8.73,8.73,0,0,0,5.67537-5.06882,15.60163,15.60163,0,0,0,1.07018-3.42719c.32472-2.59745,6.49366-6.16886,7.46769-10.38973.41053-1.77895.87154-3.78433,1.2273-5.733.05822-.31873.11809-.63855.16968-.95279.03338-.20416.05876-.4006.0887-.60193A16.14638,16.14638,0,0,0,613.11063,77.43562Z"/><path class="cls-8" d="M583.11627,170.8324c9.22525,4.048,17.696,1.92027,23.198-.60275a32.70607,32.70607,0,0,0-18.019-6.92991A66.61742,66.61742,0,0,1,583.11627,170.8324Z"/><path class="cls-8" d="M658.39725,108.609a32.50817,32.50817,0,0,0-6.13362-9.269c-17.45234-18.45927-31.51577-18.223-38.88717-16.07178q.5624.62893,1.12591,1.21337c19.421,1.54631,26.55828,9.72683,27.5508,19.70148a28.04874,28.04874,0,0,1-.0069,5.35657c-1.15612,12.49989-9.57509,26.36054-14.791,33.31493-5.82186,7.76235-12.10115,17.67113-16.54521,24.96652,1.30745-.84878-3.58245,9.351-5.225,11.86023-7.77145,11.87279-18.33574,23.17951-27.25614,31.752-9.73111,9.35148-17.49594,15.44937-17.49594,15.44937l-.7329-20.8885-7.76993,32.89247s33.011-7.50246,37.51255-11.00366c3.9847-3.09923.13353-13.638-.80381-16.0186-.12167-.30873-.19644-.487-.19644-.487l.38156.33762,25.627,22.67007,28.00933-50.01671S671.38567,137.99235,658.39725,108.609Z"/><path class="cls-8" d="M610.7101,167.82111a34.7177,34.7177,0,0,1-4.39578,2.40854c-5.5021,2.523-13.9728,4.65077-23.198.60275a17.28658,17.28658,0,0,1-2.63118,2.66842,127.44635,127.44635,0,0,0-10.18122,8.58016,5.18281,5.18281,0,0,0-.81692.98334,7.80707,7.80707,0,0,1-4.92687,3.62639l-4.55993,19.30351.7329,20.8885s7.76483-6.09789,17.49594-15.44937c8.9204-8.5725,19.48469-19.87922,27.25614-31.752C607.12765,177.17211,612.01755,166.97233,610.7101,167.82111Z"/><path class="cls-8" d="M642.05317,104.18309c-5.49535-4.08216-17.45083-12.841-23.09833-16.033a20.38718,20.38718,0,0,1-4.45247-3.66846c-.582-.04635-1.18371-.08214-1.78792-.11642-.35576,1.94862-.81677,3.954-1.2273,5.733-.974,4.22087-7.143,7.79228-7.46769,10.38973a15.60163,15.60163,0,0,1-1.07018,3.42719,8.73,8.73,0,0,1-5.67537,5.06882,8.83083,8.83083,0,0,1-2.1296.36314c-7.67613.29355-21.19454,1.46816-23.26814,6.07617-2.922,6.49358-.9739,17.53269-.9739,17.53269a35.37155,35.37155,0,0,0-6.49365,5.84421,24.61475,24.61475,0,0,1-4.54559,4.54552l-.02014-.00869c-.21713-.09463-10.449-4.53338-17.83721-4.21211-7.46756.32466-11.03911,3.89614-13.96121-.64937s-6.16894-17.208-13.96121-17.85742c0,0-4.54559,2.59744-6.81839,4.22086-2.27265,1.62341-10.38965,10.06507-13.63648,11.68849-2.6367,1.31834-9.1276,3.49313-14.08206,5.48113,4.114,7.71724,11.59669,15.45544,16.62026,18.26277,5.41933,3.02847,5.89759,6.85384,6.53518,10.51988.57675,3.31656,3.3707,10.78715,6.02257,12.53913a2.2392,2.2392,0,0,0,.83126.37163c2.869.47819,9.5635-5.57873,10.83867-6.05692s12.4325,5.57873,19.76459,6.37571c7.22491.78526,12.90482,1.87951,19.16949,2.82637.0927.014.18319.02869.27631.0427a12.02633,12.02633,0,0,0,4.95542-.19906,7.80707,7.80707,0,0,0,4.92687-3.62639,5.18281,5.18281,0,0,1,.81692-.98334,127.44635,127.44635,0,0,1,10.18122-8.58016,17.28658,17.28658,0,0,0,2.63118-2.66842,66.61742,66.61742,0,0,0,5.179-7.53266,32.70607,32.70607,0,0,1,18.019,6.92991,34.7177,34.7177,0,0,0,4.39578-2.40854c4.44406-7.29539,10.72335-17.20417,16.54521-24.96652,5.21587-6.95439,13.63484-20.815,14.791-33.31493A28.04874,28.04874,0,0,0,642.05317,104.18309Z"/><path class="cls-8" d="M621.57252,467.71654l-44.59143-41.17182c-6.63819,1.91895-20.30616,5.7923-26.25147,6.907-8.00244,1.50049-22.6748,3.20527-25.86426.69922-3.18969-2.506-7.29052-3.6452-11.39135-5.0122-4.10083-1.36695-7.29029.45569-12.75831-3.18958-5.468-3.6452-4.32885-13.66949-4.32885-13.66949s-3.83179-2.55567-4.89575-6.03961l-4.90064,4.90045s-30.52856-7.51825-29.61719-15.72l19.62427-16.99035c-4.53589-.89563-15.2373-6.1211-16.66284-10.80438-1.59473-5.24-5.012-7.29047,1.36719-19.36524,6.3789-12.07483,8.20166-17.31482,11.61914-18.22607,3.16675-.84455,21.38769-4.69031,29.39306-9.02606-32.26464-35.79352-61.07129-67.81531-74.96386-83.26459a20.609,20.609,0,0,0-21.34717-5.92847l-78.54273,23.87274c5.71753,10.86652,10.21729,20.25458,11.271,24.68024,3.41748,14.353-12.7583,33.49048-12.7583,33.49048L440.34193,342.337l.68335,35.31305L334.443,467.71654"/><polygon class="cls-8" points="324.11 467.717 200.441 409.774 203.63 371.271 170.273 303.465 -0.235 355.29 -0.235 467.717 324.11 467.717"/><path class="cls-8" d="M483.401,361.93007s7.29043-2.73388,10.70776-1.59472a1.32633,1.32633,0,0,1,.49109.30238c.70311-3.52569,1.32193-7.08586,1.10384-8.50415-.45577-2.96176-10.7079-5.69564-11.61917-7.51825s-5.69578,2.50606-6.37916,5.01219c-.68352,2.50606-1.82254,6.15128,2.9617,12.75826,4.78437,6.60691,3.8731,10.48.45577,11.16346a8.52813,8.52813,0,0,1-.08732,1.0388l4.435-3.83965A67.41594,67.41594,0,0,1,483.401,361.93007Z"/><path class="cls-8" d="M517.80269,403.16667c10.25226-1.82261,13.66959-7.974,13.66959-7.974s-16.63129-.22782-20.04862-2.05043a6.22274,6.22274,0,0,1-3.30021-3.53458l-7.1798,7.1798C505.95577,401.34406,507.55056,404.98928,517.80269,403.16667Z"/><path class="cls-8" d="M532.592,354.57653q-5.2454-5.81131-10.4785-11.61213a11.92192,11.92192,0,0,1-1.12122,1.1953c-5.69564,5.23993-13.6696,10.47994-13.89735,13.66952a39.43571,39.43571,0,0,1-3.94,12.32131l17.15383,7.27174-8.19619,8.19633c4.95612-1.689,7.05786-2.818,12.06929-4.77893a16.64782,16.64782,0,0,1,5.14082-.72242c7.82994-.2005,20.40825,1.704,23.79316,2.77285,1.72046.54337,4.21838,1.40684,7.07248,2.23713C551.15865,375.13975,541.87739,364.864,532.592,354.57653Z"/><path class="cls-8" d="M741.82288,467.71654a30.46451,30.46451,0,0,0-3.06128-8.78217c-4.87011-8.76636-7.14282-23.377-7.14282-23.377s15.25989-42.20838,15.25989-66.23462c0,0,2.27258-37.01355-4.54541-69.80622-6.81848-32.79266-3.0719-114.142-14.11072-138.16839-9.47534-20.62244-57.97754-42.6333-69.82532-52.7392,12.98841,29.38336-15.63684,75.75946-15.63684,75.75946l-28.00927,50.01673-25.627-22.67011-.18518.14935c.93738,2.38062,4.78845,12.91938.80383,16.01862-4.5017,3.50116-37.51257,11.0036-37.51257,11.0036l7.7699-32.89246,4.55994-19.30346a12.02654,12.02654,0,0,1-4.95545.199c-.093-.014-.18359-.02868-.27624-.04272-6.26477-.94684-11.94458-2.04108-19.16956-2.82636-7.332-.797-18.48938-6.85388-19.76453-6.37567-1.27526.47815-7.96972,6.5351-10.83874,6.05689a2.23979,2.23979,0,0,1-.8313-.37165c-1.68677,6.175-3.69189,14.22132-4.05676,18.78241-.64929,8.117-5.51966,8.117,2.92212,15.58466,8.44177,7.46765,17.8573,12.66254,13.96118,17.53271s-7.46753,17.53266-5.84412,21.42884c1.62329,3.89618.64942,13.31189-2.273,18.50677-2.92187,5.19483-.64917,15.25989-2.92187,23.05225-2.27283,7.7923-6.49365,21.75354-6.49365,21.75354s18.83129,6.8183,20.13012,18.83142l.167-.1203a11.1092,11.1092,0,0,1-2.2019,4.28186q5.22711,5.79391,10.47852,11.61212c9.2854,10.28742,18.56665,20.56323,27.59643,30.55072a59.97173,59.97173,0,0,0,9.94507,2.11578,52.40284,52.40284,0,0,0-1.06982,6.58271,4.63653,4.63653,0,0,0,.0437,1.163c.70923,5.28821,7.45654,21.13666,11.58166,30.47534-.25085.074-1.6344.48133-3.70764,1.08063l44.59119,41.17182"/><path class="cls-8" d="M491.60279,402.48315c2.05043-5.24,4.3286-10.25219,9.34086-5.69564l7.1798-7.1798c-.32445-1.40353.49233-2.81989,3.30021-3.75585.23851-.07952.46267-.15622.6889-.23326l8.19619-8.19633-17.15383-7.27174c-1.07874,1.93628-2.30328,3.32374-3.57831,3.39871a7.01041,7.01041,0,0,1-5.562-2.12657c-.54461,2.01463-1.04507,3.49354-1.04507,3.49354l-6.15128.45564s-.62889-2.06753-1.34787-4.62346l-4.435,3.83965c-.20016,1.42036-.867,3.81372-3.10226,3.97339a5.38162,5.38162,0,0,1-1.33559-.13126l-19.62444,16.99037c-.91127,8.20177,29.61736,15.72,29.61736,15.72l4.90053-4.90046A5.58588,5.58588,0,0,1,491.60279,402.48315Z"/><path class="cls-8" d="M569.10733,394.98877a4.63441,4.63441,0,0,1-.04373-1.163,52.392,52.392,0,0,1,1.0699-6.58271,59.96636,59.96636,0,0,1-9.94519-2.11581c-2.8541-.83029-5.352-1.69376-7.07248-2.23713-3.38491-1.06887-15.96322-2.97335-23.79316-2.77285a16.64782,16.64782,0,0,0-5.14082.72242c-5.01143,1.961-7.11317,3.08992-12.06929,4.77893-.22623.077-.45039.15374-.6889.23326-2.80788.936-3.62466,2.35232-3.30021,3.75585a6.22274,6.22274,0,0,0,3.30021,3.53458c3.41733,1.82261,20.04862,2.05043,20.04862,2.05043s-3.41733,6.15134-13.66959,7.974c-10.25213,1.82261-11.84692-1.82261-16.859-6.37916-5.01226-4.55655-7.29043.45563-9.34086,5.69564a5.58588,5.58588,0,0,0-.11173,3.75695c1.064,3.484,4.896,6.03961,4.896,6.03961s-1.13916,10.02431,4.32873,13.66953,8.65748,1.82261,12.75833,3.18958,8.2017,2.50613,11.39128,5.01219,17.86176.80126,25.86427-.69925c5.94519-1.11474,19.61326-4.988,26.25163-6.907,2.07332-.59931,3.45678-1.00666,3.7077-1.08067C576.56384,416.12543,569.8165,400.277,569.10733,394.98877Z"/><path class="cls-8" d="M493.35222,366.75431c.32307-1.65542.79967-3.87007,1.24758-6.11658a1.32633,1.32633,0,0,0-.49109-.30238c-3.41733-1.13916-10.70776,1.59472-10.70776,1.59472a67.41594,67.41594,0,0,0,2.06946,8.81832c.719,2.55593,1.34787,4.62346,1.34787,4.62346l6.15128-.45564s.50046-1.47891,1.04507-3.49354a3.48326,3.48326,0,0,1-1.04507-2.2021A18.3259,18.3259,0,0,1,493.35222,366.75431Z"/><path class="cls-8" d="M524.14833,338.80285c-1.29876-12.01314-20.13015-18.83139-20.13015-18.83139a17.14644,17.14644,0,0,1-1.7039,1.03694c-8.00541,4.33577-26.22652,8.18156-29.39334,9.02607-3.41733.91127-5.24,6.15127-11.619,18.22608-6.37916,12.0748-2.96184,14.12523-1.367,19.36523,1.42539,4.68333,12.1268,9.90878,16.66274,10.80439a5.38162,5.38162,0,0,0,1.33559.13126c2.23527-.15967,2.9021-2.553,3.10226-3.97339a8.52813,8.52813,0,0,0,.08732-1.0388c3.41733-.68345,4.3286-4.55655-.45577-11.16346-4.78424-6.607-3.64522-10.2522-2.9617-12.75826.68338-2.50613,5.46789-6.8348,6.37916-5.01219s11.1634,4.55649,11.61917,7.51825c.21809,1.41829-.40073,4.97846-1.10384,8.50415-.44791,2.24651-.92451,4.46116-1.24758,6.11658a18.3259,18.3259,0,0,0-.38266,2.46626,3.48326,3.48326,0,0,0,1.04507,2.2021,7.01041,7.01041,0,0,0,5.562,2.12657c1.275-.075,2.49957-1.46243,3.57831-3.39871a39.43571,39.43571,0,0,0,3.94-12.32131c.22775-3.18958,8.20171-8.42959,13.89735-13.66952a11.92192,11.92192,0,0,0,1.12122-1.1953,11.11069,11.11069,0,0,0,2.20189-4.28184Z"/><path class="cls-8" d="M170.27308,303.46464,203.63026,371.271l-3.18946,38.50256L324.11,467.71654h10.333l106.58228-90.06647-.68335-35.31305L325.973,313.85881s16.17578-19.13745,12.7583-33.49048c-1.05371-4.42566-5.55322-13.81372-11.271-24.68024-12.82568-24.37518-31.7882-56.19812-31.7882-56.19812-.68348-11.16345-19.13733-26.65564-19.13733-26.65564l-131.228,27.11139-12.7583,32.80689,8.42957,11.16351ZM322.1,319.55443l109.12879,29.38952-100.927,80.65052-107.306-47.38782Z"/><path class="cls-15" d="M431.22877,348.944,322.1,319.55445l-99.10435,62.6522,107.30605,47.3878Zm-79.92-5.42858,3.83475.54785a5.26487,5.26487,0,0,0,4.05285-1.11626l4.14016-3.34387,47.74564,13.64159a.86564.86564,0,0,1,.276,1.52885l-19.74569,14.56963a4.80835,4.80835,0,0,1-4.89624.48439L341.693,348.71618l6.20314-4.37867A4.75214,4.75214,0,0,1,351.30881,343.51542Zm-32.63727-8.51429,7.78566-6.26253a1.56978,1.56978,0,0,1,1.45643-.27368l13.66242,4.31446a1.56971,1.56971,0,0,1,.49108,2.73581l-6.67822,5.194a7.025,7.025,0,0,1-7.0689.91672l-9.28043-3.95787A1.56952,1.56952,0,0,1,318.67154,335.00113Zm-53.36845,55.64462-14.18634-5.911a1.017,1.017,0,0,1-.19781-1.76785l53.33561-37.88514a5.60883,5.60883,0,0,1,5.48459-.571l8.6863,3.77661a2.55907,2.55907,0,0,1,.47343,4.42461l-52.61112,37.82078A1.01688,1.01688,0,0,1,265.30309,390.64575Zm64.02669,30.28944-49.81607-22.16485a.893.893,0,0,1-.175-1.52864l55.99576-42.27354a.89331.89331,0,0,1,.9263-.09153l44.07339,21.2693a.89307.89307,0,0,1,.19381,1.48168l-50.25321,43.16908A.893.893,0,0,1,329.32978,420.93519Z"/><path class="cls-8" d="M380.33411,376.14593l-44.07339-21.2693a.89331.89331,0,0,0-.9263.09153L279.33866,397.2417a.893.893,0,0,0,.175,1.52864l49.81607,22.16485a.893.893,0,0,0,.94493-.1385l50.25321-43.16908A.89307.89307,0,0,0,380.33411,376.14593Z"/><path class="cls-8" d="M318.42544,348.28738l-8.6863-3.77661a5.60883,5.60883,0,0,0-5.48459.571l-53.33561,37.88514a1.017,1.017,0,0,0,.19781,1.76785l14.18634,5.911a1.01688,1.01688,0,0,0,.98466-.113L318.89887,352.712A2.55907,2.55907,0,0,0,318.42544,348.28738Z"/><path class="cls-8" d="M319.03958,337.668l9.28043,3.95787a7.025,7.025,0,0,0,7.0689-.91672l6.67822-5.194a1.56971,1.56971,0,0,0-.49108-2.73581l-13.66242-4.31446a1.56978,1.56978,0,0,0-1.45643.27368l-7.78566,6.26253A1.56952,1.56952,0,0,0,319.03958,337.668Z"/><path class="cls-8" d="M386.71631,369.8276a4.80835,4.80835,0,0,0,4.89624-.48439l19.74569-14.56963a.86564.86564,0,0,0-.276-1.52885l-47.74564-13.64159-4.14016,3.34387a5.26487,5.26487,0,0,1-4.05285,1.11626l-3.83475-.54785a4.75214,4.75214,0,0,0-3.41264.82209l-6.20314,4.37867Z"/><path class="cls-8" d="M664.74676,259.85464s-7.98642,27.95247-1.99661,43.92531,1.198,55.10629,2.39593,59.0995,3.19457,5.59049,1.59728,7.58709-59.0995,12.37895-67.88456,12.37895-25.4723-1.43956-27.511,2.67445"/><path class="cls-8" d="M581.90325,423.741s-2.61118,4.6271,6.17389,7.42235,19.56672,5.59049,41.13,5.98981,28.35179,6.78846,37.93549,6.38914,35.53957,2.39592,43.12666,4.39253,17.17481.55015,22.56364-14.10048"/><polyline class="cls-8" points="586.879 308.971 587.678 376.456 644.381 376.057"/><path class="cls-8" d="M580.88936,275.82748s-8.38574,21.96265-3.59389,29.15043,65.888,23.16061,69.48184,23.16061,9.18439-14.77487,10.38235-19.56672,3.59389-13.17759,3.59389-13.17759l-22.81215-2.85152a143.314,143.314,0,0,1-30.26118-7.18384Z"/><path class="cls-14" d="M652.5688,268.188l-1.94914,15.98429a1.90636,1.90636,0,0,1-2.26212,1.63941l-49.61741-9.81041a2.2916,2.2916,0,0,1-1.84681-2.28534l.31994-19.67836a2.29162,2.29162,0,0,1,2.90736-2.17L651.18893,266.121A1.90638,1.90638,0,0,1,652.5688,268.188Z"/><path class="cls-8" d="M651.87008,267.48927l-1.94913,15.98428a1.90637,1.90637,0,0,1-2.26213,1.63941l-49.61741-9.8104a2.2916,2.2916,0,0,1-1.84681-2.28534l.31995-19.67837a2.2916,2.2916,0,0,1,2.90736-2.17l51.06831,14.25346A1.90638,1.90638,0,0,1,651.87008,267.48927Z"/><path class="cls-8" d="M553.44449,237.16358s-12.08791,56.63334-2.10488,135.29957"/><path class="cls-8" d="M523.32776,341.24129s8.44512,2.47075,7.64648-14.30073,3.99321-52.311-1.198-75.871-10.38235-47.91851-7.5871-54.707"/><path class="cls-8" d="M482.24973,372.86493s-13.96888-9.58616-14.3682-12.78073-1.59728-11.58031.79864-15.97284"/><path class="cls-8" d="M497.6013,410.55661s1.82659,7.42913,23.38992,5.0332"/><line class="cls-8" x1="514.68836" y1="427.41571" x2="527.77967" y2="424.37487"/><path class="cls-8" d="M521.78986,429.96536s7.18778,0,7.18778,1.99661"/><path class="cls-8" d="M323.31431,317.83135l.41236-15.24937L204.84459,369.54789a47.88816,47.88816,0,0,0,6.27357-38.2148c-5.59049-22.362-48.71715-99.83024-48.71715-99.83024l105.42073-27.95246,9.92731-32.43916"/><path class="cls-8" d="M327.18728,312.13571c-1.464-2.76527-56.171-108.58532-56.171-108.58532l25.87009-5.78349"/><polyline class="cls-8" points="142.192 242.193 154.814 248.274 146.521 198.223"/><path class="cls-8" d="M331.516,427.87135c.59422,12.12865.59422,24.12865.40165,36.35073"/><polyline class="cls-8" points="337.475 353.154 336.447 363.204 289.91 400.753"/><path class="cls-8" d="M352.93594,346.28766S376.43422,365.232,383.72051,359.403s-26.59495-12.38669-22.041-15.11905S400.479,355.39552,400.479,355.39552l-8.37923,8.19707"/><path class="cls-7" d="M331.17687,361.80981l-7.05458,7.43656a2.17291,2.17291,0,0,0,.55576,3.41374l27.094,14.41622a2.17291,2.17291,0,0,0,2.61488-.44177l7.65365-8.26371a2.17292,2.17292,0,0,0-.637-3.42723l-27.693-13.58907A2.17291,2.17291,0,0,0,331.17687,361.80981Z"/><path class="cls-7" d="M315.89182,377.87281l-15.48336,16.02984s24.40907,16.94062,30.78457,11.29374S330.64656,387.7093,315.89182,377.87281Z"/><path class="cls-8" d="M331.15841,363.46776l-7.05458,7.43656a2.17292,2.17292,0,0,0,.55576,3.41374l27.094,14.41622a2.17293,2.17293,0,0,0,2.61489-.44176l7.65364-8.26372a2.17292,2.17292,0,0,0-.637-3.42723l-27.69306-13.58906A2.1729,2.1729,0,0,0,331.15841,363.46776Z"/><path class="cls-8" d="M315.87337,379.53077,300.39,395.5606s24.40907,16.94062,30.78457,11.29375S330.6281,389.36725,315.87337,379.53077Z"/><path class="cls-17" d="M315.59372,352.66316s-2.5502-7.83276-13.29748-7.46844L254.93537,378.8938s6.07779-2.05222,15.84768,7.28629Z"/><path class="cls-8" d="M314.2648,352.24646s-2.5502-7.83276-13.29748-7.46844L253.60645,378.4771s6.07779-2.05222,15.84768,7.28628Z"/><path class="cls-8" d="M480.17284,408.62487C480.11024,420,491.11024,425,497.11024,433a15.16555,15.16555,0,0,1,3,13c-1,6-2,12-1.62579,18.06014"/><path class="cls-8" d="M477.95469,384.62312l4.66756,2.80053a.02567.02567,0,0,1,.00585.0392l-9.45819,10.48626a.02568.02568,0,0,1-.03012.006l-9.025-4.30739a.02566.02566,0,0,1-.005-.0432l10.98639-8.78912A2.50922,2.50922,0,0,1,477.95469,384.62312Z"/><path class="cls-8" d="M489.67519,388.19583l-5.35554,6.65385a1.0227,1.0227,0,0,0,.39383,1.58124l2.38371,1.02159a1.02269,1.02269,0,0,0,1.19724-.29591l5.02249-6.1944a1.02269,1.02269,0,0,0-.1956-1.47317l-2.05066-1.481A1.02269,1.02269,0,0,0,489.67519,388.19583Z"/><path class="cls-8" d="M504.728,392.18565s-9.69825-4.12692-1.44442-10.73,13.82517-2.06346,13.82517-2.06346"/><path class="cls-8" d="M572.97555,122.25024s9.97648-9.97648,16.997-7.75949,11.824,7.75949,9.23748,12.563a104.96432,104.96432,0,0,0-6.28148,14.041c-1.1085,3.32549-2.5865,5.912-9.23749,2.956"/><path class="cls-8" d="M582.58253,126.31473s3.3255,1.8475,1.478,6.651"/><circle class="cls-15" cx="520.67479" cy="163.43282" r="2.01565"/><text class="cls-18" transform="matrix(0.60147, -0.4977, 0.08291, 0.99656, 350.40616, 441.59251)">STARTER KIT</text></svg>