<svg width="412" height="200" viewBox="0 0 412 200" fill="none" xmlns="http://www.w3.org/2000/svg">
<g clip-path="url(#clip0_2588_1253)">
<path d="M344.561 134.157L338.751 76.0674L352.568 74.7817L353.532 134.261" fill="white"/>
<path d="M342.951 134.48L337.142 76.3899L350.958 75.1042L351.923 134.584" fill="#F5C65D"/>
<path d="M385.809 45.6318L395.645 57.3441L386.619 71.4799L299.596 79.7707L299.5 50.0343L385.809 45.6318Z" fill="white"/>
<path d="M387.099 46.7402L396.936 58.4525L387.91 72.5883L300.887 80.8791L300.791 51.1427L387.099 46.7402Z" fill="#F5C65D"/>
<path d="M386.37 45.6433L396.206 57.3556L387.18 71.4914L300.157 79.7826L300.062 50.0458L386.37 45.6433Z" stroke="#54575C" stroke-width="0.73812" stroke-miterlimit="10"/>
<path d="M362.502 66.9573C360.533 66.0931 358.945 64.5405 358.035 62.5894C357.125 60.6383 356.955 58.422 357.557 56.3545C358.158 54.2869 359.49 52.5093 361.304 51.3537C363.118 50.1981 365.29 49.7433 367.414 50.0744C369.538 50.4055 371.469 51.4998 372.847 53.1529C374.224 54.8061 374.954 56.905 374.9 59.058C374.847 61.2109 374.012 63.2706 372.554 64.8525C371.095 66.4344 369.112 67.4303 366.974 67.6543L355.747 68.8276" stroke="#54575C" stroke-width="0.80752" stroke-miterlimit="10"/>
<path d="M370.892 67.2448L379.991 66.2939" stroke="#54575C" stroke-width="0.80752" stroke-miterlimit="10"/>
<path d="M359.933 58.5718L357.675 61.7178L354.818 59.1061" stroke="#54575C" stroke-width="0.80752" stroke-miterlimit="10"/>
<path d="M377.056 63.999L380.197 66.2611L377.59 69.124" stroke="#54575C" stroke-width="0.80752" stroke-miterlimit="10"/>
<path d="M372.455 60.1732L374.712 57.0271L377.57 59.6383" stroke="#54575C" stroke-width="0.80752" stroke-miterlimit="10"/>
<path d="M344.864 134.16L339.055 76.0706L352.871 74.7849L353.836 134.265" stroke="#54575C" stroke-width="0.73812" stroke-miterlimit="10"/>
<path d="M241.049 9.93383L239.596 9.79517C240.075 9.88505 240.561 9.93146 241.049 9.93383Z" fill="white"/>
<path d="M251.476 37.8204C250.238 37.8204 249.001 38.086 247.853 38.086C247.481 38.086 247.464 37.2672 246.969 37.2893C246.383 37.3155 245.715 38.107 245.025 38.3516C244.501 38.5374 243.921 38.2004 243.611 38.1746C243.137 38.135 242.681 38.6089 242.321 39.1449C242.644 40.7106 242.919 42.1778 243.06 43.4912C243.293 45.6755 244.586 47.4472 245.848 49.029C247.609 48.6124 250.169 47.9573 250.68 47.5586C251.476 46.9389 250.327 43.8404 251.299 42.3354C252.044 41.181 252.841 40.2349 252.973 39.2974C252.58 38.9304 252.389 37.8204 251.476 37.8204Z" fill="white"/>
<path d="M254.48 34.7219C254.136 33.8409 253.255 33.7096 252.624 32.9513C251.797 31.957 251.962 30.3645 251.21 29.4102C249.885 27.7281 245.908 27.197 244.406 27.8167C243.418 28.2245 241.894 28.4024 240.514 29.2835C240.827 31.8328 241.27 34.3645 241.84 36.8689C242.005 37.6462 242.168 38.4062 242.321 39.1449C242.68 38.6089 243.137 38.1349 243.611 38.1745C243.92 38.2004 244.501 38.5374 245.025 38.3516C245.714 38.107 246.382 37.3155 246.969 37.2892C247.463 37.2671 247.48 38.086 247.852 38.086C249.001 38.086 250.238 37.8204 251.475 37.8204C252.389 37.8204 252.58 38.9304 252.973 39.2974C253.042 39.3678 253.136 39.4097 253.235 39.4149C253.334 39.4201 253.431 39.3882 253.508 39.3254C254.391 38.7942 255.275 36.7581 254.48 34.7219Z" fill="white"/>
<path d="M245.848 49.029C244.586 47.4472 243.293 45.6755 243.06 43.4912C242.919 42.1779 242.644 40.7107 242.321 39.1449C242.168 38.4063 242.005 37.6462 241.84 36.8689C241.27 34.3646 240.828 31.8328 240.514 29.2835C240.432 28.5266 240.372 27.7706 240.342 27.0199C240.27 25.24 241.314 21.518 241.314 20.0261C241.314 13.6245 241.074 9.98346 241.074 9.98346C241.074 9.98346 240.502 9.95406 239.621 9.84479C238.95 10.1193 238.205 10.1507 237.514 9.93383C236.234 9.59929 234.99 8.42219 234.045 7.33105C233.006 10.0153 227.001 25.747 227.189 30.275C227.395 35.231 225.952 41.6327 224.303 44.5238C222.654 47.4148 212.967 57.7401 212.967 63.9352C212.967 70.1303 206.165 75.9124 205.547 78.597C205.462 79.0131 205.454 79.4412 205.523 79.8603C210.327 77.6698 229.738 74.7371 229.738 74.7371C229.738 74.7371 232.276 74.6534 236.944 75.7099C237.602 74.7215 238.003 73.5846 238.113 72.4019C238.277 70.96 238.62 69.5443 239.133 68.1871C240.538 64.3583 242.669 60.8374 245.407 57.8179C245.904 57.2834 246.427 56.7749 246.976 56.2945C249.926 53.7247 247.928 51.6345 245.848 49.029Z" fill="white"/>
<path d="M242.286 6.65816C242.286 6.65816 242.286 4.79905 241.137 4.44494C239.988 4.09083 235.128 0.46113 234.156 1.34642C233.184 2.23172 231.947 4.62201 232.743 5.68436C233.037 6.07768 233.489 6.68948 234.045 7.33098C234.99 8.42211 236.234 9.59924 237.514 9.93375C238.21 10.0268 238.918 9.97965 239.596 9.79508L241.049 9.93375C241.049 9.93375 242.374 10.4649 242.816 9.22552C243.258 7.98612 243.081 6.48111 242.286 6.65816Z" fill="white"/>
<path d="M263.316 44.3715C262.167 44.1944 259.693 45.6994 259.693 45.4338C259.693 45.1682 260.312 44.6826 259.34 45.3908C258.623 45.9133 256.98 47.4007 256.921 48.6253C257.666 49.138 259.861 50.6324 261.303 51.4382C262.69 49.8911 265.371 46.8435 265.437 46.3191C265.525 45.6109 264.465 44.5485 263.316 44.3715Z" fill="white"/>
<path d="M262.435 51.9578C262.038 51.8321 261.657 51.6576 261.303 51.4383C259.862 50.6325 257.666 49.1381 256.921 48.6253C256.757 48.5125 256.664 48.4473 256.664 48.4473C252.092 55.5588 248.012 57.4639 245.407 57.8177C242.669 60.8373 240.538 64.3582 239.133 68.187C241.599 68.1696 244.287 68.1794 245.945 68.2717C249.656 68.4782 263.465 52.1643 262.435 51.9578Z" fill="white"/>
<path d="M225.447 116.36C225.453 116.872 225.563 117.378 225.769 117.847C225.975 118.316 226.273 118.739 226.646 119.09C228.59 120.772 245.067 124.599 246.304 124.687C247.125 124.746 247.634 124.601 247.53 122.864C242.675 120.155 231.802 116.179 229.12 115.903C227.877 115.73 226.61 115.888 225.447 116.36Z" fill="white"/>
<path d="M246.174 119.887C244.035 117.398 240.765 112.966 239.434 111.143C239.06 110.632 238.84 110.325 238.84 110.325L240.146 108.133L233.154 107.575C232.543 108.074 230.68 109.579 228.823 110.89C228.447 111.156 228.071 111.414 227.706 111.653C226.961 112.18 226.362 112.889 225.967 113.713C225.571 114.536 225.392 115.448 225.447 116.36C226.61 115.888 227.877 115.73 229.12 115.903C231.802 116.178 242.675 120.155 247.53 122.864C247.419 121.749 246.942 120.702 246.174 119.887Z" fill="white"/>
<path d="M159.844 135.91C159.919 135.772 159.995 135.635 160.07 135.498C159.14 136.385 156.707 138.573 154.425 139.495C155.218 139.515 155.906 139.847 155.868 140.957C155.779 143.524 155.072 158.574 156.221 160.522C156.58 161.226 156.755 162.009 156.73 162.799C157.31 162.572 157.816 162.191 158.194 161.695C158.572 161.2 158.806 160.61 158.872 159.99C159.225 157.246 160.904 147.685 162.318 145.56C163.801 143.593 165.382 141.702 167.057 139.896C164.055 140.129 159.844 135.91 159.844 135.91Z" fill="white"/>
<path d="M251.564 80.8454C246.883 78.6266 241.983 76.9054 236.944 75.7098C232.276 74.6532 229.738 74.7369 229.738 74.7369C229.738 74.7369 210.327 77.6697 205.523 79.8601C205.242 79.9794 204.976 80.1318 204.732 80.3142C201.993 82.5275 202.258 90.2295 198.988 91.2918C195.719 92.3542 182.464 109.175 182.111 110.414C182.111 110.414 172.508 112.864 160.07 135.498C159.995 135.635 159.919 135.772 159.844 135.91C159.844 135.91 164.055 140.129 167.057 139.896C167.068 139.896 167.079 139.895 167.089 139.894C170.094 139.629 220.725 94.3903 220.725 94.3903C220.725 94.3903 230.092 94.2133 236.1 92.7083L242.109 91.2033L235.623 101.784L232.124 107.493L233.154 107.575L240.146 108.133L242.109 108.289C242.109 108.289 243.549 106.642 245.316 104.676C247.747 101.97 250.796 98.6585 251.564 98.1971C252.889 97.4003 265.348 87.2195 251.564 80.8454Z" fill="white"/>
<path d="M155.868 140.957C155.906 139.848 155.218 139.515 154.425 139.495C153.92 139.699 153.357 139.647 152.952 139.894C150.573 141.345 151.803 148.482 150.654 150.341C149.506 152.2 146.855 158.485 152.863 162.292C153.422 162.677 154.064 162.923 154.736 163.011C155.408 163.099 156.092 163.026 156.731 162.799C156.755 162.009 156.58 161.226 156.221 160.522C155.072 158.574 155.779 143.524 155.868 140.957Z" fill="white"/>
<path d="M242.286 6.6582C242.286 6.6582 240.45 6.89054 240.023 8.34283L242.286 6.6582Z" fill="white"/>
<path d="M239.577 7.38477C239.577 7.38477 238.35 9.99297 235.801 9.03504L239.577 7.38477Z" fill="white"/>
<path d="M240.526 91.4723C240.526 91.4723 248.952 86.6868 250.397 86.8074L241.281 92.6881L242.109 91.2034L240.526 91.4723Z" fill="white"/>
<path d="M220.726 94.3903C220.726 94.3903 212.144 94.2699 210.026 91.9121L220.726 94.3903Z" fill="white"/>
<path d="M229.676 31.907C229.558 32.4964 226.932 42.6399 224.303 44.5236L229.676 31.907Z" fill="white"/>
<path d="M234.971 73.5217C234.383 71.6354 235.912 70.5744 233.324 62.9117C230.735 55.249 236.03 52.3018 236.03 52.3018" fill="white"/>
<path d="M244.185 39.4039C244.154 39.2454 243.363 38.0414 242.319 39.5623L244.185 39.4039Z" fill="white"/>
<path d="M249.277 42.8578C249.504 42.8578 249.688 42.6733 249.688 42.4459C249.688 42.2184 249.504 42.0339 249.277 42.0339C249.05 42.0339 248.866 42.2184 248.866 42.4459C248.866 42.6733 249.05 42.8578 249.277 42.8578Z" fill="white"/>
<path d="M230.942 74.5856C230.942 74.5856 210.185 77.7189 205.523 79.86C205.523 79.86 204.595 78.9397 207.176 78.4635C209.756 77.9872 223.887 74.4675 227.072 74.1774C228.374 74.1551 229.673 74.2922 230.942 74.5856Z" fill="white"/>
<path d="M250.223 37.6975C248.985 37.6975 248.351 36.4971 247.202 36.4971C246.83 36.4971 246.211 37.1442 245.716 37.1663C245.13 37.1925 244.462 37.9841 243.772 38.2287C243.248 38.4144 242.668 38.0774 242.358 38.0516C241.884 38.012 242.529 37.9268 242.169 38.4628C242.492 40.0285 242.919 42.1778 243.06 43.4912C243.293 45.6755 244.063 46.966 245.325 48.5478C247.086 48.1312 248.916 47.8344 249.427 47.4357C250.223 46.816 249.074 43.7175 250.046 42.2125C250.791 41.058 251.588 40.112 251.72 39.1745C251.327 38.8074 251.136 37.6975 250.223 37.6975Z" fill="#B36549"/>
<path d="M244.596 48.906C243.333 47.3242 242.041 45.5525 241.807 43.3682C241.667 42.0548 241.392 40.5876 241.068 39.0219C240.916 38.2832 240.753 37.5231 240.587 36.7459C240.017 34.2415 239.575 31.7098 239.261 29.1605C239.18 28.4036 239.12 27.6476 239.089 26.8969C239.017 25.1169 240.061 21.3949 240.061 19.9031C240.061 13.5014 239.821 9.86041 239.821 9.86041C239.821 9.86041 239.249 9.83102 238.368 9.72175C237.698 9.99621 236.953 10.0277 236.262 9.81078C234.982 9.47627 233.737 8.29915 232.792 7.20801C231.753 9.89226 225.748 25.6239 225.936 30.1519C226.142 35.108 224.7 41.5096 223.051 44.4007C221.402 47.2918 211.714 57.617 211.714 63.8121C211.714 70.0073 204.912 75.7894 204.294 78.474C204.209 78.8901 204.201 79.3182 204.27 79.7372C209.074 77.5468 228.486 74.614 228.486 74.614C228.486 74.614 231.024 74.5303 235.692 75.5869C236.349 74.5984 236.751 73.4616 236.86 72.2788C237.025 70.837 237.367 69.4212 237.88 68.0641C239.286 64.2352 241.416 60.7144 244.154 57.6948C244.651 57.1603 245.175 56.6519 245.723 56.1715C248.673 53.6016 246.675 51.5114 244.596 48.906Z" fill="#6BA5C8"/>
<path d="M241.033 6.53512C241.033 6.53512 241.033 4.67601 239.884 4.3219C238.735 3.96779 233.875 0.338091 232.903 1.22337C231.931 2.10866 230.694 4.49896 231.49 5.56131C231.784 5.95464 232.236 6.56643 232.792 7.20793C233.737 8.29907 234.981 9.47619 236.261 9.8107C236.957 9.90375 237.665 9.8566 238.343 9.67204L239.796 9.8107C239.796 9.8107 241.121 10.3419 241.563 9.10246C242.005 7.86306 241.828 6.35807 241.033 6.53512Z" fill="#B36549"/>
<path d="M262.063 44.2487C261.106 44.1012 259.23 45.1206 258.63 45.3118C257.904 46.3883 257.27 47.5261 256.526 48.5897C257.531 49.2808 258.915 50.2124 259.912 50.77C261.3 49.2228 264.118 46.7207 264.184 46.1963C264.272 45.4881 263.212 44.4257 262.063 44.2487Z" fill="#B36549"/>
<path d="M261.303 51.4383C260.906 51.3126 260.526 51.1381 260.171 50.9187C258.73 50.1129 256.534 48.6185 255.789 48.1058C255.625 47.993 255.532 47.9277 255.532 47.9277C250.96 55.0392 246.88 56.9444 244.275 57.2982C241.537 60.3178 239.407 63.8387 238.001 67.6675C240.467 67.6501 243.155 67.6598 244.814 67.7522C248.524 67.9587 262.334 51.6448 261.303 51.4383Z" fill="#6BA5C8"/>
<path d="M244.921 119.764C242.782 117.275 239.512 112.843 238.181 111.02C237.808 110.509 237.587 110.203 237.587 110.203L238.893 108.01L231.901 107.452C231.291 107.951 229.427 109.457 227.571 110.768C227.194 111.033 226.818 111.291 226.453 111.531C224.877 112.566 224.847 114.933 224.938 116.664C225.782 116.289 226.234 115.612 227.867 115.78C230.55 116.056 241.423 120.032 246.277 122.742C246.166 121.626 245.689 120.579 244.921 119.764Z" fill="#6BA5C8"/>
<path d="M158.591 135.788C158.667 135.649 158.742 135.512 158.817 135.375C157.888 136.262 155.234 138.972 152.952 139.894C153.745 139.914 154.653 139.725 154.615 140.834C154.526 143.401 153.82 158.451 154.968 160.399C155.327 161.103 155.502 161.886 155.478 162.676C156.057 162.45 156.564 162.068 156.941 161.572C157.319 161.077 157.553 160.487 157.619 159.868C157.973 157.123 159.651 147.562 161.065 145.437C162.548 143.47 164.13 141.579 165.804 139.774C162.802 140.006 158.591 135.788 158.591 135.788Z" fill="#6BA5C8"/>
<mask id="mask0_2588_1253" style="mask-type:luminance" maskUnits="userSpaceOnUse" x="158" y="74" width="99" height="66">
<path d="M250.311 80.7226C245.63 78.5038 240.73 76.7826 235.691 75.587C231.023 74.5304 228.486 74.6141 228.486 74.6141C228.486 74.6141 209.074 77.5469 204.27 79.7373C203.989 79.8566 203.724 80.009 203.479 80.1915C200.74 82.4047 201.005 90.1067 197.736 91.169C194.466 92.2314 181.212 109.052 180.858 110.291C180.858 110.291 171.255 112.741 158.817 135.375C158.742 135.512 158.667 135.649 158.591 135.788C158.591 135.788 162.802 140.006 165.804 139.774C165.815 139.773 165.826 139.772 165.837 139.771C168.841 139.506 219.473 94.2676 219.473 94.2676C219.473 94.2676 228.839 94.0905 234.848 92.5855L240.856 91.0805L234.37 101.661L230.871 107.37L231.901 107.452L238.893 108.01L240.856 108.167C240.856 108.167 242.297 106.52 244.064 104.553C246.495 101.847 249.544 98.5357 250.311 98.0743C251.637 97.2776 264.096 87.0967 250.311 80.7226Z" fill="white"/>
</mask>
<g mask="url(#mask0_2588_1253)">
<path d="M250.311 80.7226C245.63 78.5038 240.73 76.7826 235.691 75.587C231.023 74.5304 228.486 74.6141 228.486 74.6141C228.486 74.6141 209.074 77.5469 204.27 79.7373C203.989 79.8566 203.724 80.009 203.479 80.1915C200.74 82.4047 201.005 90.1067 197.736 91.169C194.466 92.2314 181.212 109.052 180.858 110.291C180.858 110.291 171.255 112.741 158.817 135.375C158.742 135.512 158.667 135.649 158.591 135.788C158.591 135.788 162.802 140.006 165.804 139.774C165.815 139.773 165.826 139.772 165.837 139.771C168.841 139.506 219.473 94.2676 219.473 94.2676C219.473 94.2676 228.839 94.0905 234.848 92.5855L240.856 91.0805L234.37 101.661L230.871 107.37L231.901 107.452L238.893 108.01L240.856 108.167C240.856 108.167 242.297 106.52 244.064 104.553C246.495 101.847 249.544 98.5357 250.311 98.0743C251.637 97.2776 264.096 87.0967 250.311 80.7226Z" fill="#4890BA"/>
<path d="M250.032 85.9856C249.686 85.6078 249.261 85.3102 248.789 85.1136C248.316 84.917 247.806 84.8261 247.294 84.8472C246.371 84.8141 245.425 84.961 244.575 84.685C244.17 84.535 243.784 84.3376 243.425 84.0969C243.037 83.8565 242.658 83.6011 242.255 83.3864C240.373 82.3838 238.21 82.7374 236.217 82.1932C234.237 81.6524 232.44 80.6155 230.529 79.8893C226.798 78.4719 222.489 78.0122 219.322 75.473C218.958 75.1804 218.615 74.863 218.294 74.523C218.16 74.3886 217.978 74.3131 217.788 74.3132C217.598 74.3133 217.416 74.389 217.281 74.5236C217.147 74.6582 217.071 74.8408 217.071 75.0311C217.071 75.2215 217.146 75.4041 217.281 75.5388C220.127 78.5524 224.305 79.4218 228.108 80.5854C229.09 80.8769 230.055 81.2217 230.999 81.6183C231.954 82.0283 232.891 82.4766 233.849 82.8763C234.78 83.2841 235.752 83.5889 236.748 83.7856C237.755 83.9656 238.805 83.9597 239.8 84.1008C240.262 84.1592 240.715 84.2731 241.149 84.44C241.564 84.629 241.962 84.8528 242.339 85.1091C242.696 85.3404 243.065 85.5523 243.444 85.744C242.051 85.6397 240.663 85.4849 239.28 85.2795C235.141 84.6579 231.078 83.6041 227.159 82.1353C225.221 81.4084 223.324 80.577 221.476 79.6449C219.606 78.7367 217.816 77.671 216.126 76.4593C215.739 76.1729 215.365 75.87 215 75.5554C214.864 75.425 214.682 75.3523 214.493 75.3523C214.305 75.3523 214.123 75.425 213.986 75.5554C213.854 75.6909 213.779 75.8733 213.779 76.0633C213.779 76.2533 213.854 76.4357 213.986 76.5712C215.6 77.9264 217.355 79.1041 219.22 80.0841C224.728 83.0583 230.663 85.1599 236.813 86.3139C238.892 86.702 240.99 86.9824 243.098 87.1539C244.136 87.2382 245.176 87.295 246.217 87.3243C246.73 87.3387 247.242 87.3463 247.755 87.3472C247.872 87.3474 247.989 87.3467 248.107 87.3466C248.061 87.4779 248.02 87.6129 247.97 87.739C247.892 87.933 247.798 88.1397 247.699 88.3446C247.493 88.7741 247.264 89.1925 247.017 89.5999C246.523 90.4056 245.975 91.1766 245.377 91.9077C244.069 93.5228 242.633 95.0348 241.251 96.5857C239.759 98.2594 238.28 99.9444 236.814 101.64C236.075 102.495 235.339 103.352 234.607 104.213C234.235 104.649 233.864 105.087 233.494 105.525C233.136 105.908 232.82 106.328 232.55 106.777C232.273 107.262 232.183 107.832 232.297 108.379C232.348 108.562 232.469 108.719 232.635 108.813C232.716 108.859 232.807 108.889 232.9 108.901C232.994 108.912 233.088 108.906 233.179 108.88C233.27 108.855 233.355 108.813 233.429 108.755C233.504 108.697 233.566 108.625 233.612 108.543C233.659 108.461 233.689 108.37 233.7 108.276C233.712 108.183 233.705 108.088 233.68 107.997C233.677 107.956 233.671 107.915 233.663 107.875C233.677 107.768 233.707 107.663 233.752 107.564C233.844 107.387 233.952 107.218 234.074 107.059C234.393 106.643 234.768 106.232 235.114 105.824C235.834 104.976 236.557 104.131 237.283 103.288C238.065 102.38 238.85 101.476 239.64 100.574C238.973 101.53 238.335 102.505 237.76 103.519C236.718 105.355 235.892 107.305 235.298 109.331C235.153 109.826 235.022 110.324 234.906 110.826C234.856 111.01 234.88 111.206 234.974 111.372C235.068 111.538 235.224 111.659 235.407 111.71C235.59 111.76 235.786 111.736 235.952 111.642C236.117 111.548 236.238 111.392 236.289 111.208C236.752 109.196 237.454 107.246 238.379 105.4C239.381 103.495 240.538 101.675 241.837 99.9585C243.167 98.1372 244.519 96.3323 245.862 94.5205C246.545 93.5995 247.227 92.6784 247.91 91.7573C248.583 90.8486 249.312 89.9603 249.927 89.0113C250.536 88.074 250.769 86.9226 250.032 85.9856Z" fill="#235485"/>
</g>
<path d="M251.476 37.8204C250.238 37.8204 249.001 38.086 247.853 38.086C247.481 38.086 247.464 37.2672 246.969 37.2893C246.383 37.3155 245.715 38.107 245.025 38.3516C244.501 38.5374 243.921 38.2004 243.611 38.1746C243.137 38.135 242.681 38.6089 242.321 39.1449C242.644 40.7106 242.919 42.1778 243.06 43.4912C243.293 45.6755 244.586 47.4472 245.848 49.029C247.609 48.6124 250.169 47.9573 250.68 47.5586C251.476 46.9389 250.327 43.8404 251.299 42.3354C252.044 41.181 252.841 40.2349 252.973 39.2974C252.58 38.9304 252.389 37.8204 251.476 37.8204Z" stroke="#54575C" stroke-width="0.73812" stroke-miterlimit="10"/>
<path d="M254.48 34.7219C254.136 33.8409 253.255 33.7096 252.624 32.9513C251.797 31.957 251.962 30.3645 251.21 29.4102C249.885 27.7281 245.908 27.197 244.406 27.8167C243.418 28.2245 241.894 28.4024 240.514 29.2835C240.827 31.8328 241.27 34.3645 241.84 36.8689C242.005 37.6462 242.168 38.4062 242.321 39.1449C242.68 38.6089 243.137 38.1349 243.611 38.1745C243.92 38.2004 244.501 38.5374 245.025 38.3516C245.714 38.107 246.382 37.3155 246.969 37.2892C247.463 37.2671 247.48 38.086 247.852 38.086C249.001 38.086 250.238 37.8204 251.475 37.8204C252.389 37.8204 252.58 38.9304 252.973 39.2974C253.042 39.3678 253.136 39.4097 253.235 39.4149C253.334 39.4201 253.431 39.3882 253.508 39.3254C254.391 38.7942 255.275 36.7581 254.48 34.7219Z" fill="#54575C" stroke="#54575C" stroke-width="0.73812" stroke-miterlimit="10"/>
<path d="M245.848 49.029C244.586 47.4472 243.293 45.6755 243.06 43.4912C242.919 42.1779 242.644 40.7107 242.321 39.1449C242.168 38.4063 242.005 37.6462 241.84 36.8689C241.27 34.3646 240.828 31.8328 240.514 29.2835C240.432 28.5266 240.372 27.7706 240.342 27.0199C240.27 25.24 241.314 21.518 241.314 20.0261C241.314 13.6245 241.074 9.98346 241.074 9.98346C241.074 9.98346 240.502 9.95406 239.621 9.84479C238.95 10.1193 238.205 10.1507 237.514 9.93383C236.234 9.59929 234.99 8.42219 234.045 7.33105C233.006 10.0153 227.001 25.747 227.189 30.2749C227.395 35.231 225.952 41.6327 224.303 44.5238C222.654 47.4148 212.967 57.7401 212.967 63.9352C212.967 70.1303 206.165 75.9124 205.547 78.597C205.462 79.0131 205.454 79.4412 205.523 79.8603C210.327 77.6698 229.738 74.7371 229.738 74.7371C229.738 74.7371 232.276 74.6534 236.944 75.7099C237.602 74.7214 238.003 73.5846 238.113 72.4019C238.277 70.96 238.62 69.5443 239.133 68.1871C240.538 64.3583 242.669 60.8374 245.407 57.8179C245.904 57.2834 246.427 56.7749 246.976 56.2945C249.926 53.7247 247.928 51.6345 245.848 49.029Z" stroke="#54575C" stroke-width="0.73812" stroke-miterlimit="10"/>
<path d="M242.286 6.65816C242.286 6.65816 242.286 4.79905 241.137 4.44494C239.988 4.09083 235.128 0.46113 234.156 1.34642C233.184 2.23172 231.947 4.62201 232.743 5.68436C233.037 6.07768 233.489 6.68948 234.045 7.33098C234.99 8.42211 236.234 9.59924 237.514 9.93375C238.21 10.0268 238.918 9.97965 239.596 9.79508L241.049 9.93375C241.049 9.93375 242.374 10.4649 242.816 9.22552C243.258 7.98612 243.081 6.48111 242.286 6.65816Z" stroke="#54575C" stroke-width="0.73812" stroke-miterlimit="10"/>
<path d="M263.316 44.3715C262.167 44.1944 259.693 45.6994 259.693 45.4338C259.693 45.1682 260.37 44.1641 259.398 44.8723C258.681 45.3948 256.98 47.4007 256.921 48.6253C257.666 49.138 259.861 50.6324 261.303 51.4382C262.69 49.8911 265.371 46.8435 265.437 46.3191C265.525 45.6109 264.465 44.5485 263.316 44.3715Z" stroke="#54575C" stroke-width="0.73812" stroke-miterlimit="10"/>
<path d="M262.435 51.9578C262.038 51.8321 261.657 51.6576 261.303 51.4383C259.862 50.6325 257.666 49.1381 256.921 48.6253C256.757 48.5125 256.664 48.4473 256.664 48.4473C252.092 55.5588 248.012 57.4639 245.407 57.8177C242.669 60.8373 240.538 64.3582 239.133 68.187C241.599 68.1696 244.287 68.1794 245.945 68.2717C249.656 68.4782 263.465 52.1643 262.435 51.9578Z" stroke="#54575C" stroke-width="0.73812" stroke-miterlimit="10"/>
<path d="M225.447 116.36C225.453 116.872 225.563 117.378 225.769 117.847C225.975 118.316 226.273 118.739 226.646 119.09C228.59 120.772 245.067 124.599 246.304 124.687C247.125 124.746 247.634 124.601 247.53 122.864C242.675 120.155 231.802 116.179 229.12 115.903C227.877 115.73 226.61 115.888 225.447 116.36Z" fill="#54575C" stroke="#54575C" stroke-width="0.73812" stroke-miterlimit="10"/>
<path d="M246.174 119.887C244.035 117.398 240.765 112.966 239.434 111.143C239.06 110.632 238.84 110.325 238.84 110.325L240.146 108.133L233.154 107.575C232.543 108.074 230.68 109.579 228.823 110.89C228.447 111.156 228.071 111.414 227.706 111.653C226.961 112.18 226.362 112.889 225.967 113.713C225.571 114.536 225.392 115.448 225.447 116.36C226.61 115.888 227.877 115.73 229.12 115.903C231.802 116.178 242.675 120.155 247.53 122.864C247.419 121.749 246.942 120.702 246.174 119.887Z" stroke="#54575C" stroke-width="0.73812" stroke-miterlimit="10"/>
<path d="M159.844 135.91C159.919 135.772 159.995 135.635 160.07 135.498C159.14 136.385 156.707 138.573 154.425 139.495C155.218 139.515 155.906 139.847 155.868 140.957C155.779 143.524 155.072 158.574 156.221 160.522C156.58 161.226 156.755 162.009 156.73 162.799C157.31 162.572 157.816 162.191 158.194 161.695C158.572 161.2 158.806 160.61 158.872 159.99C159.225 157.246 160.904 147.685 162.318 145.56C163.801 143.593 165.382 141.702 167.057 139.896C164.055 140.129 159.844 135.91 159.844 135.91Z" stroke="#54575C" stroke-width="0.73812" stroke-miterlimit="10"/>
<path d="M251.564 80.8454C246.883 78.6266 241.983 76.9054 236.944 75.7098C232.276 74.6532 229.738 74.7369 229.738 74.7369C229.738 74.7369 210.327 77.6697 205.523 79.8601C205.242 79.9794 204.976 80.1318 204.732 80.3142C201.993 82.5275 202.258 90.2295 198.988 91.2918C195.719 92.3542 182.464 109.175 182.111 110.414C182.111 110.414 172.508 112.864 160.07 135.498C159.995 135.635 159.919 135.772 159.844 135.91C159.844 135.91 164.055 140.129 167.057 139.896C167.068 139.896 167.079 139.895 167.089 139.894C170.094 139.629 220.725 94.3903 220.725 94.3903C220.725 94.3903 230.092 94.2133 236.1 92.7083L242.109 91.2033L235.623 101.784L232.124 107.493L233.154 107.575L240.146 108.133L242.109 108.289C242.109 108.289 243.549 106.642 245.316 104.676C247.747 101.97 250.796 98.6585 251.564 98.1971C252.889 97.4003 265.348 87.2195 251.564 80.8454Z" stroke="#54575C" stroke-width="0.73812" stroke-miterlimit="10"/>
<path d="M155.868 140.957C155.906 139.848 155.218 139.515 154.425 139.495C153.92 139.699 153.357 139.647 152.952 139.894C150.573 141.345 151.803 148.482 150.654 150.341C149.506 152.2 146.855 158.485 152.863 162.292C153.422 162.677 154.064 162.923 154.736 163.011C155.408 163.099 156.092 163.026 156.731 162.799C156.755 162.009 156.58 161.226 156.221 160.522C155.072 158.574 155.779 143.524 155.868 140.957Z" fill="#54575C" stroke="#54575C" stroke-width="0.73812" stroke-miterlimit="10"/>
<path d="M242.286 6.6582C242.286 6.6582 240.45 6.89054 240.023 8.34283" stroke="#54575C" stroke-width="0.73812" stroke-miterlimit="10"/>
<path d="M239.577 7.38477C239.577 7.38477 238.35 9.99297 235.801 9.03504" stroke="#54575C" stroke-width="0.73812" stroke-miterlimit="10"/>
<path d="M240.526 91.4723C240.526 91.4723 248.952 86.6868 250.397 86.8074L241.281 92.6881L242.109 91.2034L240.526 91.4723Z" fill="#54575C"/>
<path d="M220.726 94.3903C220.726 94.3903 212.144 94.2699 210.026 91.9121" stroke="#54575C" stroke-width="0.73812" stroke-miterlimit="10"/>
<path d="M229.676 31.907C229.558 32.4964 226.932 42.6399 224.303 44.5236" stroke="#54575C" stroke-width="0.73812" stroke-miterlimit="10"/>
<path d="M234.971 73.5216C234.383 71.6354 235.912 70.5744 233.324 62.9117C230.735 55.249 236.03 52.3018 236.03 52.3018" stroke="#54575C" stroke-width="0.73812" stroke-miterlimit="10"/>
<path d="M244.185 39.4039C244.154 39.2454 243.363 38.0414 242.319 39.5623" stroke="#54575C" stroke-width="0.73812" stroke-miterlimit="10"/>
<path d="M249.277 42.8578C249.504 42.8578 249.688 42.6733 249.688 42.4459C249.688 42.2184 249.504 42.0339 249.277 42.0339C249.05 42.0339 248.866 42.2184 248.866 42.4459C248.866 42.6733 249.05 42.8578 249.277 42.8578Z" fill="#54575C"/>
<path d="M230.942 74.5856C230.942 74.5856 210.185 77.7189 205.523 79.86C205.523 79.86 204.595 78.9397 207.176 78.4635C209.756 77.9872 223.887 74.4675 227.072 74.1774C228.374 74.1551 229.673 74.2922 230.942 74.5856Z" fill="#54575C"/>
<path d="M425.386 131.909C416.759 135.829 406.615 136.496 370.493 133.138C320.265 128.469 273.145 158.559 265.378 161.671C260.547 163.607 254.316 187.613 250.667 206.488H425.386V131.909Z" fill="white"/>
<path d="M425.387 134.751C416.969 138.217 406.17 138.683 371.659 135.475C321.432 130.806 274.311 160.895 266.544 164.008C261.911 165.865 255.989 188.025 252.293 206.488H425.387V134.751Z" fill="#468FBA"/>
<path d="M425.386 132.169C416.67 136.248 406.771 136.987 370.103 133.579C319.876 128.91 272.755 158.999 264.988 162.112C260.195 164.033 254.023 187.682 250.363 206.488H425.386V132.169Z" stroke="#54575C" stroke-width="0.73812" stroke-miterlimit="10"/>
<path d="M79.2497 161.705L76.7381 86.051L63.2927 86.7756L70.2781 161.601" fill="white"/>
<path d="M23.9837 61.8238L15.9392 74.8369L26.9098 87.518L114.215 83.1247L109.936 50.1121L23.9837 61.8238Z" fill="white"/>
<path d="M78.6677 161.361L76.1561 85.7065L62.7107 86.4316L69.696 161.256" fill="#F5C65D"/>
<path d="M15.5384 64.2633L7.4939 77.2764L18.4644 89.9575L127.244 82.2662L123.151 53.2922L15.5384 64.2633Z" fill="#F5C65D"/>
<path d="M78.5206 160.037L76.0171 84.4707L62.5667 85.4032L69.549 159.933" stroke="#54575C" stroke-width="0.73812" stroke-miterlimit="10"/>
<path d="M18.2039 62.6381L10.1594 75.6512L21.13 88.3317L129.909 80.6404L125.816 51.6665L18.2039 62.6381Z" stroke="#54575C" stroke-width="0.73812" stroke-miterlimit="10"/>
<path d="M156.071 206.488C148.91 191.308 139.622 176.885 130.103 176.641C109.908 176.122 69.5193 141.882 49.8425 132.025C39.1338 126.661 18.1507 127.597 1.24707 129.564V206.488H156.071Z" fill="white"/>
<path d="M151.894 206.488C144.796 191.657 135.695 177.815 126.371 177.576C106.177 177.057 65.7878 142.817 46.111 132.96C36.8408 128.316 18.2836 128.54 1.24707 130.075V206.488H151.894Z" fill="#468FBA"/>
<path d="M155.927 206.488C148.765 191.299 139.471 176.859 129.947 176.614C109.752 176.096 69.3631 141.856 49.6864 131.999C40.0792 127.186 19.6458 127.831 1.24707 129.75V206.488H155.927Z" stroke="#54575C" stroke-width="0.73812" stroke-miterlimit="10"/>
<path d="M267.482 40.7199L260.109 42.4879C259.681 42.5907 259.416 43.0223 259.519 43.4518L260.62 48.0633C260.723 48.4928 261.154 48.7577 261.582 48.6549L268.955 46.8869C269.384 46.7841 269.648 46.3526 269.546 45.9231L268.444 41.3115C268.341 40.882 267.911 40.6171 267.482 40.7199Z" fill="white"/>
<path d="M268.276 40.9851L260.903 42.7531C260.474 42.8559 260.21 43.2874 260.313 43.7169L261.414 48.3285C261.517 48.758 261.948 49.0228 262.376 48.92L269.749 47.152C270.178 47.0492 270.442 46.6177 270.34 46.1882L269.238 41.5766C269.135 41.1471 268.705 40.8823 268.276 40.9851Z" fill="#4890BA"/>
<path d="M267.482 40.7199L260.109 42.4879C259.681 42.5907 259.416 43.0223 259.519 43.4518L260.62 48.0633C260.723 48.4928 261.154 48.7577 261.582 48.6549L268.955 46.8869C269.384 46.7841 269.648 46.3526 269.546 45.9231L268.444 41.3115C268.341 40.882 267.911 40.6171 267.482 40.7199Z" stroke="#54575C" stroke-width="0.73812" stroke-miterlimit="10"/>
<path d="M256.787 48.6252C256.787 48.6252 258.689 43.2016 260.874 43.4896C263.059 43.7776 260.184 46.8309 260.184 46.8309" fill="#B36549"/>
<path d="M256.743 48.4689C256.743 48.4689 258.644 43.0453 260.83 43.3333C263.015 43.6214 260.184 46.831 260.184 46.831" stroke="#54575C" stroke-width="0.73812" stroke-miterlimit="10"/>
<path d="M261.616 46.1633L264.215 45.522" stroke="#54575C" stroke-width="0.73812" stroke-miterlimit="10"/>
<path d="M264.78 45.3958L266.634 44.9363" stroke="#54575C" stroke-width="0.73812" stroke-miterlimit="10"/>
<path d="M261.883 47.2353L266.898 46.0071" stroke="#54575C" stroke-width="0.73812" stroke-miterlimit="10"/>
<path d="M267.852 42.9544L267.712 42.4519C267.658 42.258 267.457 42.1447 267.264 42.1987L266.376 42.4469C266.182 42.5009 266.069 42.7019 266.123 42.8958L266.263 43.3984C266.317 43.5922 266.518 43.7056 266.711 43.6515L267.599 43.4033C267.793 43.3493 267.906 43.1483 267.852 42.9544Z" fill="#F4F4F5"/>
<path d="M267.638 43.206L267.509 42.7005C267.459 42.5055 267.261 42.3878 267.067 42.4376L266.173 42.6663C265.979 42.7161 265.861 42.9146 265.911 43.1096L266.04 43.6151C266.09 43.8101 266.288 43.9278 266.482 43.878L267.376 43.6493C267.57 43.5995 267.688 43.401 267.638 43.206Z" stroke="#54575C" stroke-width="0.73812" stroke-miterlimit="10"/>
<path d="M122.222 75.2224L117.064 75.5902L116.704 70.5212L111.744 70.8749L111.384 65.8059L106.325 66.1662L105.959 60.9983L100.502 61.3868" stroke="#54575C" stroke-width="0.73812" stroke-miterlimit="10"/>
<path d="M38.6112 68.6558C38.6376 68.6916 38.6558 68.7328 38.6645 68.7765C38.6732 68.8201 38.6721 68.8652 38.6613 68.9084L35.7704 83.1457C35.7516 83.2395 35.7007 83.3237 35.6266 83.3839C35.5524 83.4441 35.4596 83.4764 35.3641 83.4754L34.17 83.5739C33.9221 83.5944 33.7646 83.5152 33.6974 83.3364L29.6521 72.4744C29.6334 72.4104 29.6118 72.3791 29.5852 72.3813C29.5591 72.3833 29.5365 72.4247 29.5168 72.5052L27.2554 83.8477C27.2366 83.9414 27.1858 84.0256 27.1116 84.0858C27.0374 84.146 26.9446 84.1784 26.8492 84.1773L25.6354 84.2773C25.3875 84.2978 25.2298 84.2186 25.1622 84.0398L20.0453 70.4428C20.0276 70.4019 20.0192 70.3576 20.0207 70.3131C20.0222 70.2685 20.0336 70.2249 20.0541 70.1853C20.0806 70.1476 20.116 70.117 20.1572 70.0963C20.1985 70.0757 20.2441 70.0656 20.2902 70.0671L21.5434 69.9639C21.6241 69.952 21.7065 69.9622 21.7819 69.9934C21.8127 70.013 21.8389 70.0391 21.8585 70.07C21.8781 70.1008 21.8908 70.1355 21.8955 70.1718L26.0234 81.323C26.0746 81.464 26.1223 81.529 26.1675 81.5187C26.2123 81.5081 26.2433 81.443 26.2595 81.3235L28.5691 69.6022C28.5921 69.5452 28.6243 69.4925 28.6645 69.4462C28.7299 69.387 28.8154 69.3552 28.9035 69.3573L30.0195 69.2654C30.1033 69.2508 30.1896 69.2609 30.2679 69.2942C30.3273 69.3381 30.3705 69.4005 30.3908 69.4716L34.5433 80.6802C34.592 80.7948 34.6358 80.8473 34.6746 80.8369C34.713 80.8276 34.7479 80.7687 34.7784 80.6608L37.0644 68.902C37.0652 68.8673 37.0741 68.8334 37.0904 68.8029C37.1067 68.7724 37.13 68.7461 37.1583 68.7263C37.2252 68.6854 37.3013 68.662 37.3796 68.6585L38.3584 68.578C38.4037 68.5691 38.4504 68.5716 38.4945 68.5852C38.5386 68.5987 38.5787 68.623 38.6112 68.6558Z" fill="#54575C"/>
<path d="M45.5189 82.4609C44.9364 82.766 44.2969 82.9465 43.6411 82.9909C42.7758 83.113 41.8963 82.9033 41.1786 82.4038C40.8704 82.1692 40.6175 81.8695 40.4377 81.5261C40.258 81.1827 40.1558 80.8039 40.1383 80.4165C40.0703 79.7698 40.2257 79.1192 40.5785 78.5734C40.9931 77.984 41.5618 77.5205 42.2222 77.2338C43.1092 76.8361 44.0513 76.5752 45.0163 76.4602L46.5335 76.2168C46.6087 76.1983 46.6796 76.1657 46.7425 76.1207C46.7748 76.0941 46.7993 76.0593 46.8134 76.0199C46.8275 75.9805 46.8307 75.938 46.8227 75.897L46.7789 75.3673C46.7689 75.0559 46.693 74.7502 46.5563 74.4704C46.4195 74.1907 46.225 73.9432 45.9857 73.7444C45.4633 73.3543 44.8091 73.1849 44.1634 73.2726C43.6187 73.3098 43.0933 73.4893 42.6393 73.7931C42.1661 74.1278 41.7742 74.5651 41.4928 75.0723C41.4616 75.1242 41.4223 75.1707 41.3763 75.2101C41.3501 75.222 41.3218 75.2286 41.2931 75.2292C41.2643 75.2299 41.2358 75.2247 41.2091 75.214L40.1231 74.9484C40.0835 74.9271 40.0503 74.8956 40.0267 74.8573C40.0041 74.8201 40.0146 74.7469 40.0582 74.6377C40.3937 73.9255 40.9208 73.3213 41.5804 72.8929C42.3536 72.4118 43.2362 72.1353 44.1453 72.0895C44.8912 72.0037 45.6468 72.0794 46.3609 72.3114C46.9278 72.5051 47.4198 72.872 47.7676 73.3605C48.1173 73.8832 48.3203 74.4906 48.3553 75.1189L48.9253 82.0615C48.9424 82.1438 48.9281 82.2295 48.8855 82.3018C48.8344 82.3509 48.766 82.3778 48.6952 82.3767L47.6968 82.459C47.6596 82.4656 47.6213 82.4625 47.5857 82.4499C47.5501 82.4373 47.5184 82.4156 47.4936 82.387C47.4452 82.3223 47.4121 82.2474 47.3968 82.168L47.3033 81.2672C47.2487 81.0876 47.1497 81.0826 47.0062 81.2522C46.5877 81.7421 46.0837 82.1516 45.5189 82.4609ZM46.655 77.2139L45.3728 77.4378C44.8326 77.5004 44.3006 77.6203 43.7857 77.7956C43.3757 77.9335 42.9872 78.1285 42.6314 78.3748C42.3462 78.5697 42.111 78.8293 41.9448 79.1324C41.7947 79.426 41.7328 79.7568 41.7668 80.0849C41.7749 80.3411 41.8431 80.5918 41.966 80.8167C42.0889 81.0416 42.2629 81.2343 42.474 81.3791C42.969 81.6827 43.5535 81.8054 44.1285 81.7265C44.5405 81.6936 44.9425 81.5834 45.3138 81.4016C45.6667 81.233 45.9909 81.0098 46.2743 80.7401C46.5277 80.5018 46.7411 80.2242 46.9063 79.9179C47.0399 79.6788 47.103 79.4066 47.0883 79.133L46.9545 77.5054C46.9363 77.2831 46.8365 77.1859 46.655 77.2139Z" fill="#54575C"/>
<path d="M53.6 72.7518C53.5785 72.7505 53.557 72.7543 53.5372 72.7628C53.5174 72.7713 53.4998 72.7843 53.4859 72.8007C53.4719 72.8172 53.462 72.8367 53.4569 72.8576C53.4518 72.8786 53.4516 72.9005 53.4564 72.9215L53.9669 79.1384C53.9513 79.579 54.099 80.0099 54.3815 80.3481C54.5185 80.4501 54.6745 80.5236 54.8403 80.5642C55.0062 80.6049 55.1784 80.6118 55.347 80.5846L56.6975 80.4732C56.7537 80.4658 56.8107 80.4786 56.8584 80.5094C56.8816 80.5294 56.9002 80.5542 56.9127 80.5822C56.9252 80.6102 56.9313 80.6406 56.9306 80.6713L56.9661 81.3397C56.9764 81.4706 56.9049 81.562 56.7516 81.6142C56.5699 81.6616 56.3852 81.6966 56.1988 81.7189C55.9583 81.7522 55.7242 81.7813 55.4965 81.8064C55.2688 81.832 55.0766 81.8511 54.9201 81.8638C54.5988 81.9192 54.2698 81.9096 53.9523 81.8358C53.6348 81.7619 53.3353 81.6252 53.0713 81.4336C52.6074 80.9553 52.3495 80.3136 52.3532 79.6466L51.8152 73.096C51.8168 73.0691 51.8122 73.0421 51.8016 73.0173C51.791 72.9925 51.7748 72.9705 51.7543 72.9531C51.7338 72.9357 51.7095 72.9233 51.6833 72.9169C51.6572 72.9105 51.6299 72.9103 51.6037 72.9163L50.0377 73.0454C50.0088 73.0521 49.9787 73.0519 49.9499 73.0448C49.9211 73.0378 49.8943 73.0241 49.8717 73.0049C49.849 72.9857 49.8312 72.9614 49.8195 72.9341C49.8079 72.9067 49.8028 72.877 49.8046 72.8474L49.7367 72.0235C49.7308 71.9971 49.731 71.9697 49.7374 71.9435C49.7439 71.9173 49.7563 71.8929 49.7738 71.8723C49.7912 71.8517 49.8133 71.8355 49.8381 71.8249C49.8629 71.8143 49.8898 71.8097 49.9167 71.8113L51.5806 71.6741C51.6716 71.6667 51.7134 71.611 51.7045 71.5061L51.6637 68.3699C51.6627 68.199 51.7275 68.108 51.858 68.0972L52.8367 68.0164C52.9936 68.0036 53.0792 68.0888 53.0944 68.2719L53.3487 71.3706C53.3474 71.3921 53.3511 71.4137 53.3596 71.4336C53.3681 71.4535 53.3811 71.4711 53.3976 71.4851C53.414 71.4991 53.4335 71.509 53.4545 71.5141C53.4755 71.5192 53.4973 71.5193 53.5184 71.5144L55.9849 71.3112C56.128 71.2994 56.2052 71.3521 56.2146 71.4699L56.2839 72.3132C56.2905 72.3422 56.2903 72.3723 56.2832 72.4012C56.2762 72.43 56.2626 72.4569 56.2434 72.4795C56.2242 72.5022 56.2 72.5201 56.1727 72.5318C56.1454 72.5434 56.1158 72.5486 56.0862 72.5468L53.6 72.7518Z" fill="#54575C"/>
<path d="M60.2598 78.61C60.5995 79.1054 61.0597 79.5058 61.597 79.7732C62.1452 80.046 62.7587 80.1597 63.3681 80.1013C63.9739 80.0627 64.5608 79.8753 65.0772 79.5556C65.587 79.2208 66.0036 78.7618 66.2881 78.2217C66.3186 78.1787 66.36 78.1446 66.4081 78.1229C66.4584 78.1155 66.5098 78.1215 66.5571 78.1404L67.4129 78.4844C67.5363 78.54 67.5565 78.6305 67.4748 78.7556C67.1957 79.2683 66.8385 79.7341 66.4159 80.1363C66.0203 80.5035 65.5591 80.7927 65.0565 80.9888C64.4974 81.1999 63.9105 81.3282 63.3145 81.3694C62.4161 81.461 61.51 81.3034 60.695 80.9139C59.9116 80.5278 59.2493 79.9334 58.7803 79.1956C58.2666 78.3795 57.9664 77.4468 57.9073 76.4838C57.796 75.4692 57.9387 74.4429 58.3224 73.4974C58.6647 72.6795 59.2277 71.9733 59.9484 71.4582C60.6741 70.9478 61.525 70.6456 62.4095 70.5843C63.2777 70.4915 64.1548 70.6376 64.9463 71.0068C65.6983 71.3791 66.3229 71.9668 66.741 72.6952C67.2288 73.5644 67.5107 74.5342 67.5648 75.5298C67.5723 75.6223 67.57 75.7153 67.5579 75.8072C67.5456 75.9001 67.4614 75.9531 67.3051 75.9661L59.8078 76.5841C59.7805 76.5873 59.7547 76.5982 59.7334 76.6157C59.7122 76.6331 59.6963 76.6562 59.6878 76.6824C59.659 76.7485 59.6478 76.821 59.6553 76.8928C59.6994 77.5091 59.9082 78.1023 60.2598 78.61ZM65.5331 75.026C65.6282 75.0291 65.7221 75.0042 65.8031 74.9543C65.8395 74.9188 65.8528 74.842 65.843 74.7239C65.8016 74.1764 65.6332 73.646 65.3511 73.1752C65.0781 72.713 64.6863 72.3326 64.2165 72.0739C63.7035 71.8028 63.1211 71.6926 62.5448 71.7575C61.912 71.7881 61.3041 72.0142 60.8047 72.4048C60.3543 72.7705 60.0122 73.2528 59.8156 73.7993C59.6127 74.3475 59.533 74.9338 59.582 75.5165L65.5331 75.026Z" fill="#54575C"/>
<path d="M70.3694 80.5211C70.3437 80.4985 70.323 80.4708 70.3085 80.4398C70.294 80.4087 70.2861 80.375 70.2853 80.3408L69.4737 70.4559C69.46 70.2864 69.5244 70.1953 69.668 70.1835L70.8031 70.0898C70.832 70.0832 70.8621 70.0835 70.8909 70.0905C70.9197 70.0975 70.9464 70.1112 70.9691 70.1304C70.9917 70.1496 71.0095 70.1738 71.0212 70.2011C71.0329 70.2284 71.038 70.258 71.0363 70.2877L71.141 71.5624C71.1474 71.641 71.171 71.6856 71.2114 71.6952C71.2512 71.7051 71.3009 71.6748 71.3609 71.6038C71.6302 71.2132 71.9412 70.8531 72.2885 70.5301C72.574 70.2654 72.8981 70.0457 73.2495 69.8784C73.5652 69.7298 73.9047 69.6383 74.2523 69.6082C74.7087 69.5705 74.944 69.6366 74.9581 69.8065L75.055 70.9834C75.0653 71.1143 75.0112 71.1714 74.8917 71.1549C74.7732 71.1515 74.6379 71.1495 74.4869 71.1485C74.3359 71.1483 74.1751 71.1547 74.0059 71.1687C73.691 71.2002 73.3846 71.289 73.1014 71.4306C72.7833 71.583 72.4905 71.7837 72.2334 72.0256C71.9811 72.2578 71.7673 72.5286 71.5999 72.828C71.4478 73.0829 71.3759 73.3777 71.3933 73.6741L71.926 80.1659C71.9351 80.2053 71.9348 80.2464 71.9253 80.2857C71.9157 80.3251 71.8972 80.3616 71.8711 80.3925C71.8449 80.4234 71.812 80.4478 71.7748 80.4637C71.7377 80.4796 71.6973 80.4866 71.657 80.4842L70.5803 80.5731C70.5435 80.5791 70.5058 80.5776 70.4696 80.5687C70.4333 80.5598 70.3992 80.5436 70.3694 80.5211Z" fill="#54575C"/>
<path d="M82.3482 69.1976C82.3833 69.2336 82.4046 69.2809 82.4082 69.3311L82.4775 70.1744C82.4835 70.2008 82.4832 70.2281 82.4769 70.2543C82.4705 70.2805 82.4581 70.3049 82.4406 70.3254C82.4232 70.346 82.4013 70.3623 82.3765 70.3729C82.3518 70.3835 82.3249 70.3882 82.298 70.3866L80.0661 70.5706C80.0446 70.5693 80.023 70.573 80.0032 70.5815C79.9834 70.59 79.9658 70.603 79.9519 70.6195C79.9379 70.636 79.928 70.6555 79.9229 70.6764C79.9178 70.6974 79.9177 70.7193 79.9225 70.7404L80.6391 79.4678C80.6538 79.6508 80.5835 79.7486 80.4266 79.7617L79.2324 79.86C79.0888 79.8718 79.01 79.7928 78.9959 79.623L78.2763 70.8562C78.2775 70.8373 78.2742 70.8185 78.2668 70.8011C78.2594 70.7838 78.248 70.7684 78.2337 70.7562C78.2193 70.744 78.2023 70.7353 78.184 70.7308C78.1658 70.7263 78.1467 70.7261 78.1283 70.7303L76.2097 70.8884C76.1834 70.8944 76.1561 70.8942 76.1299 70.8877C76.1037 70.8813 76.0794 70.8689 76.0588 70.8514C76.0383 70.8339 76.0221 70.8119 76.0115 70.7871C76.0008 70.7623 75.9961 70.7353 75.9977 70.7083L75.9289 69.865C75.9249 69.8372 75.9273 69.8089 75.9357 69.7822C75.9441 69.7554 75.9583 69.7309 75.9774 69.7104C75.9965 69.6899 76.02 69.6739 76.046 69.6637C76.0721 69.6534 76.1001 69.6491 76.128 69.6511L77.9876 69.4979C78.1052 69.4883 78.1585 69.4181 78.1475 69.2872L78.0299 67.8553C77.9262 67.1768 78.0884 66.4843 78.4824 65.9227C78.7083 65.6722 78.9839 65.4718 79.2916 65.3342C79.5993 65.1967 79.9323 65.1251 80.2692 65.124L81.8942 64.99C82.0634 64.9762 82.1547 65.0476 82.1682 65.2043L82.2306 65.9691C82.2349 65.9955 82.2338 66.0225 82.2275 66.0484C82.2212 66.0744 82.2097 66.0989 82.1937 66.1203C82.1499 66.1617 82.0916 66.1842 82.0314 66.1832L80.6612 66.2962C80.4943 66.2946 80.3296 66.3354 80.1827 66.4148C80.0358 66.4942 79.9114 66.6096 79.8211 66.7503C79.656 67.0743 79.5933 67.441 79.6416 67.8016L79.7543 69.1744C79.7528 69.1987 79.757 69.223 79.7665 69.2453C79.7761 69.2677 79.7907 69.2875 79.8092 69.3033C79.8277 69.319 79.8496 69.3302 79.8732 69.336C79.8968 69.3417 79.9214 69.3419 79.9451 69.3365L82.1962 69.151C82.2234 69.1469 82.2511 69.1489 82.2775 69.1569C82.3038 69.165 82.3279 69.1789 82.3482 69.1976Z" fill="#54575C"/>
<path d="M89.6027 78.8278C89.0202 79.1328 88.3808 79.3133 87.725 79.3578C86.8596 79.4798 85.9801 79.2701 85.2624 78.7707C84.9542 78.5361 84.7013 78.2364 84.5215 77.893C84.3418 77.5496 84.2396 77.1708 84.2222 76.7834C84.154 76.1367 84.3092 75.4862 84.6618 74.9403C85.0767 74.3509 85.6456 73.8873 86.306 73.6005C87.1931 73.2028 88.1351 72.9421 89.1001 72.8271L90.6174 72.5837C90.6925 72.5652 90.7634 72.5326 90.8264 72.4876C90.8587 72.461 90.8831 72.4261 90.8972 72.3867C90.9112 72.3472 90.9143 72.3047 90.906 72.2636L90.8628 71.7339C90.8528 71.4226 90.7769 71.1169 90.6401 70.8372C90.5033 70.5575 90.3088 70.31 90.0695 70.1113C89.5471 69.7212 88.8929 69.5517 88.2472 69.6392C87.7025 69.6765 87.177 69.856 86.7231 70.1601C86.2498 70.4947 85.8579 70.9319 85.5766 71.4392C85.5452 71.491 85.5059 71.5375 85.4601 71.577C85.4339 71.5889 85.4056 71.5955 85.3769 71.5961C85.3481 71.5968 85.3195 71.5916 85.2929 71.5809L84.2069 71.3153C84.1674 71.2939 84.1342 71.2624 84.1105 71.2242C84.0879 71.1867 84.0982 71.1138 84.142 71.0044C84.4775 70.2923 85.0047 69.6882 85.6642 69.2598C86.4374 68.7787 87.32 68.5022 88.2291 68.4564C88.975 68.3706 89.7305 68.4463 90.4447 68.6784C91.0116 68.872 91.5036 69.2389 91.8514 69.7274C92.2009 70.2502 92.4038 70.8576 92.4386 71.4858L93.0086 78.4285C93.0257 78.5107 93.0117 78.5963 92.9693 78.6687C92.9182 78.7178 92.8498 78.7447 92.7789 78.7436L91.7805 78.8259C91.7433 78.8325 91.7051 78.8294 91.6694 78.8167C91.6338 78.804 91.6021 78.7823 91.5774 78.7537C91.5292 78.689 91.496 78.6142 91.4805 78.5349L91.3871 77.6342C91.3325 77.4543 91.2335 77.4492 91.09 77.6189C90.6715 78.1089 90.1676 78.5185 89.6027 78.8278ZM90.7389 73.5807L89.4567 73.8047C88.9165 73.8673 88.3845 73.9872 87.8696 74.1625C87.4596 74.3003 87.071 74.4952 86.7152 74.7414C86.4302 74.9364 86.1949 75.196 86.0286 75.499C85.8785 75.7926 85.8167 76.1235 85.8506 76.4515C85.8587 76.7078 85.9269 76.9585 86.0498 77.1834C86.1727 77.4083 86.3467 77.6011 86.5579 77.746C87.0528 78.0496 87.6374 78.1723 88.2124 78.0931C88.6243 78.0605 89.0264 77.9503 89.3976 77.7684C89.7506 77.5999 90.0747 77.3767 90.3582 77.1069C90.6116 76.8686 90.8249 76.591 90.9902 76.2848C91.1237 76.0455 91.1868 75.7733 91.1722 75.4996L91.0384 73.872C91.0202 73.6497 90.9203 73.5527 90.7389 73.5807Z" fill="#54575C"/>
<path d="M97.5858 78.0118C97.5954 78.0584 97.5954 78.1065 97.5858 78.1531C97.5761 78.1997 97.5571 78.2439 97.5298 78.2828C97.4535 78.3435 97.3586 78.3758 97.2612 78.3742L96.2431 78.458C96.0474 78.474 95.942 78.3906 95.9269 78.2077L94.7967 64.2029C94.7814 64.0201 94.8528 63.922 95.0092 63.909L96.1836 63.8121C96.3405 63.7993 96.4251 63.8782 96.4394 64.0477L97.5858 78.0118Z" fill="#54575C"/>
<path d="M102.264 77.6263C102.274 77.6729 102.274 77.721 102.264 77.7677C102.255 77.8143 102.236 77.8584 102.208 77.8973C102.132 77.958 102.037 77.9903 101.94 77.9887L100.922 78.0725C100.726 78.0887 100.621 78.0053 100.605 77.8222L99.4757 63.8174C99.4604 63.6346 99.5311 63.5366 99.6876 63.5235L100.862 63.4266C101.019 63.4138 101.104 63.4927 101.118 63.6622L102.264 77.6263Z" fill="#54575C"/>
<path d="M305.206 72.316C305.166 72.2409 305.156 72.1536 305.177 72.0713L309.186 57.7322C309.21 57.6521 309.252 57.5783 309.307 57.5159C309.377 57.4579 309.466 57.4267 309.557 57.4277L311.084 57.3107C311.181 57.2923 311.281 57.3082 311.367 57.3556C311.453 57.403 311.521 57.479 311.557 57.5706L317.633 71.1178C317.665 71.1896 317.668 71.2709 317.641 71.3445C317.627 71.3809 317.603 71.4121 317.571 71.434C317.539 71.4559 317.501 71.4672 317.463 71.4665L316.072 71.5729C316.006 71.5843 315.938 71.5736 315.879 71.5425C315.82 71.5114 315.772 71.4615 315.744 71.4007L314.102 67.6976C314.079 67.6562 314.05 67.6185 314.015 67.586C313.967 67.5575 313.91 67.5477 313.855 67.5587L308.156 67.9948C308.105 67.9947 308.055 68.0119 308.015 68.0436C307.974 68.0753 307.946 68.1197 307.934 68.1697L306.834 72.1024C306.826 72.1553 306.798 72.2032 306.756 72.2366C306.697 72.2784 306.627 72.301 306.555 72.3014L305.38 72.3916C305.346 72.3969 305.313 72.3926 305.282 72.3792C305.251 72.3658 305.225 72.3439 305.206 72.316ZM313.233 66.1066C313.389 66.0945 313.435 66.0055 313.37 65.8395L310.527 59.5638C310.466 59.4499 310.412 59.395 310.367 59.3984C310.321 59.4019 310.283 59.4641 310.253 59.585L308.359 66.2623C308.305 66.4116 308.349 66.4805 308.493 66.4692L313.233 66.1066Z" fill="#54575C"/>
<path d="M328.912 60.0313C328.945 60.0594 328.972 60.0944 328.99 60.1339C329.009 60.1733 329.018 60.2164 329.018 60.2599L329.07 60.9466C329.084 61.0456 329.06 61.1461 329.003 61.2282C328.965 61.2673 328.918 61.2969 328.867 61.3145C328.815 61.3322 328.76 61.3375 328.706 61.33C328.522 61.3421 328.34 61.3693 328.16 61.4113C328.001 61.4511 327.847 61.5093 327.701 61.5845C327.397 61.7264 327.277 61.8868 327.343 62.0659C327.42 62.2051 327.505 62.3729 327.599 62.5692C327.706 62.8248 327.767 63.0976 327.778 63.3746C327.825 63.9332 327.711 64.4935 327.448 64.9884C327.144 65.5279 326.688 65.9649 326.135 66.2439C325.399 66.6137 324.592 66.8233 323.769 66.8589C323.243 66.8875 322.722 66.9671 322.211 67.0966C321.926 67.1599 321.66 67.2883 321.433 67.4719C321.369 67.5236 321.317 67.5891 321.282 67.6635C321.247 67.7379 321.229 67.8194 321.229 67.9018C321.245 68.1114 321.397 68.2511 321.684 68.3209C322.138 68.4039 322.6 68.4348 323.06 68.413L325.597 68.3568C326.507 68.27 327.419 68.4923 328.186 68.9878C328.469 69.2066 328.701 69.485 328.865 69.8032C329.028 70.1214 329.121 70.4717 329.135 70.8295C329.178 71.2973 329.097 71.7682 328.899 72.1942C328.701 72.6202 328.394 72.986 328.009 73.2543C327.185 73.89 325.969 74.2692 324.363 74.3921C322.705 74.5189 321.424 74.3769 320.519 73.9658C320.114 73.8159 319.761 73.5521 319.503 73.2061C319.244 72.86 319.09 72.4466 319.061 72.0153C319.025 71.5576 319.163 71.1034 319.446 70.7425C319.799 70.2991 320.236 69.9302 320.732 69.657C320.871 69.5806 320.865 69.5086 320.716 69.4414C320.452 69.3534 320.212 69.2063 320.013 69.0115C319.842 68.8334 319.74 68.5994 319.727 68.3524C319.716 68.1557 319.763 67.9601 319.861 67.7897C319.983 67.576 320.146 67.389 320.341 67.2398C320.587 67.0477 320.856 66.8878 321.142 66.764C321.219 66.732 321.255 66.6963 321.252 66.6568C321.249 66.6179 321.213 66.5745 321.144 66.527C320.611 66.33 320.142 65.9904 319.788 65.5452C319.469 65.1007 319.286 64.5733 319.259 64.0265C319.206 63.5618 319.267 63.0911 319.436 62.6552C319.605 62.2192 319.878 61.8312 320.231 61.5246C321.146 60.8057 322.271 60.4076 323.434 60.3915C324.019 60.3335 324.61 60.3682 325.185 60.4942C325.634 60.5975 326.06 60.7859 326.439 61.0493C326.501 61.1018 326.58 61.1307 326.661 61.1311C326.699 61.1258 326.735 61.1131 326.767 61.0937C326.8 61.0742 326.828 61.0485 326.85 61.018C327.005 60.8533 327.171 60.6989 327.346 60.5556C327.534 60.402 327.739 60.2704 327.957 60.1636C328.164 60.0586 328.39 59.9944 328.622 59.9746C328.722 59.9581 328.825 59.9782 328.912 60.0313ZM322.261 69.8161C321.986 69.8343 321.721 69.9263 321.494 70.0825C321.213 70.2592 320.97 70.4889 320.777 70.7588C320.577 71.0318 320.483 71.3691 320.514 71.7066C320.527 71.901 320.577 72.0911 320.663 72.2657C320.749 72.4404 320.869 72.5962 321.016 72.7241C321.396 73.0317 321.854 73.2287 322.339 73.2937C323.041 73.4049 323.754 73.4265 324.462 73.358C325.315 73.3424 326.151 73.1121 326.893 72.6884C327.148 72.5265 327.352 72.2953 327.482 72.0216C327.611 71.7479 327.66 71.443 327.622 71.1426C327.614 70.9442 327.562 70.75 327.472 70.5731C327.382 70.3961 327.256 70.2406 327.1 70.117C326.637 69.8262 326.09 69.7012 325.547 69.7622L322.261 69.8161ZM325.684 65.1037C325.893 64.8917 326.051 64.6345 326.146 64.3519C326.24 64.0692 326.269 63.7686 326.229 63.4732C326.221 63.1668 326.146 62.8659 326.01 62.5916C325.873 62.3173 325.678 62.0764 325.439 61.8858C324.822 61.4872 324.081 61.3298 323.357 61.4435C322.628 61.4526 321.926 61.7194 321.375 62.1969C321.154 62.4149 320.985 62.681 320.883 62.9746C320.781 63.2681 320.747 63.5814 320.785 63.89C320.792 64.1926 320.872 64.489 321.018 64.7543C321.163 65.0196 321.37 65.2461 321.621 65.4149C322.246 65.7775 322.975 65.9198 323.69 65.8192C324.418 65.8202 325.123 65.5672 325.684 65.1037Z" fill="#54575C"/>
<path d="M332.597 57.5982C332.616 57.8471 332.508 57.9803 332.273 57.9979L331.138 58.0849C331.095 58.0941 331.05 58.0926 331.008 58.0803C330.965 58.0681 330.927 58.0455 330.896 58.0146C330.847 57.9437 330.82 57.86 330.818 57.7739L330.692 56.1259C330.676 55.9167 330.759 55.8046 330.943 55.7908L332.176 55.6962C332.359 55.6822 332.458 55.7733 332.473 55.9697L332.597 57.5982ZM333.457 69.9067C333.475 69.9997 333.458 70.0959 333.409 70.177C333.33 70.24 333.231 70.2721 333.13 70.2674L332.131 70.3438C332.049 70.3601 331.964 70.3455 331.891 70.3029C331.841 70.2446 331.814 70.1689 331.817 70.0915L331.065 60.2416C331.051 60.0586 331.123 59.961 331.28 59.9489L332.474 59.8575C332.617 59.8467 332.696 59.9262 332.709 60.096L333.457 69.9067Z" fill="#54575C"/>
<path d="M338.157 69.5469C338.167 69.5936 338.166 69.6417 338.156 69.6883C338.146 69.7349 338.127 69.7789 338.099 69.8176C338.023 69.8779 337.928 69.9096 337.83 69.9073L336.812 69.9854C336.616 70.0005 336.512 69.9164 336.497 69.7331L335.448 55.722C335.435 55.5389 335.506 55.4413 335.662 55.4293L336.838 55.3393C336.994 55.3273 337.079 55.4066 337.092 55.5763L338.157 69.5469Z" fill="#54575C"/>
<path d="M342.543 66.7344C342.879 67.232 343.337 67.6351 343.873 67.9057C344.42 68.1815 345.032 68.2986 345.642 68.2437C346.248 68.2088 346.836 68.0249 347.355 67.7083C347.866 67.3764 348.285 66.9199 348.573 66.3816C348.604 66.3387 348.645 66.3049 348.694 66.2836C348.744 66.2764 348.796 66.2826 348.843 66.3015L349.697 66.6507C349.819 66.7073 349.839 66.7977 349.757 66.9222C349.475 67.4333 349.115 67.8971 348.689 68.2967C348.292 68.6617 347.83 68.9481 347.326 69.141C346.766 69.349 346.178 69.4739 345.582 69.5118C344.683 69.5982 343.777 69.4352 342.965 69.0408C342.183 68.6505 341.524 68.0523 341.06 67.3117C340.551 66.4926 340.256 65.558 340.203 64.5944C340.097 63.5794 340.246 62.554 340.635 61.611C340.982 60.7949 341.549 60.0919 342.273 59.5811C343.001 59.0749 343.854 58.7776 344.739 58.7213C345.608 58.6335 346.484 58.7848 347.273 59.1588C348.023 59.5356 348.644 60.1268 349.058 60.8576C349.541 61.7296 349.817 62.7011 349.865 63.6971C349.872 63.7895 349.87 63.8824 349.857 63.9743C349.844 64.0674 349.76 64.1196 349.603 64.1317L342.102 64.7058C342.075 64.7089 342.049 64.7198 342.028 64.7372C342.006 64.7545 341.991 64.7777 341.982 64.8038C341.953 64.8697 341.941 64.942 341.948 65.0137C341.989 65.6303 342.194 66.2246 342.543 66.7344ZM347.837 63.1814C347.932 63.1849 348.026 63.1606 348.107 63.1114C348.144 63.076 348.157 62.9991 348.148 62.8811C348.11 62.3333 347.945 61.802 347.666 61.3294C347.395 60.8657 347.005 60.4832 346.537 60.2217C346.026 59.9476 345.444 59.8339 344.867 59.8955C344.234 59.9227 343.625 60.1451 343.123 60.5324C342.671 60.8958 342.326 61.376 342.126 61.9212C341.92 62.4683 341.837 63.0542 341.883 63.6372L347.837 63.1814Z" fill="#54575C"/>
</g>
<defs>
<clipPath id="clip0_2588_1253">
<rect width="426" height="207" fill="white"/>
</clipPath>
</defs>
</svg>
