<svg width="464" height="258" viewBox="0 0 464 258" fill="none" xmlns="http://www.w3.org/2000/svg">
<mask id="mask0_2588_1362" style="mask-type:luminance" maskUnits="userSpaceOnUse" x="0" y="0" width="464" height="258">
<path d="M463.167 0H0V257.099H463.167V0Z" fill="white"/>
</mask>
<g mask="url(#mask0_2588_1362)">
<path d="M39.8714 267.571C39.425 267.571 38.9786 267.389 38.6535 267.037C38.0363 266.365 38.0804 265.318 38.7527 264.701L289.511 45.7767C289.814 45.4958 290.217 45.3416 290.63 45.3416H367.7C369.359 46.8013 368.351 48.6467 366.907 48.6467H291.275L40.9846 267.136C40.6705 267.428 40.2682 267.571 39.8714 267.571Z" stroke="#54575C" stroke-miterlimit="10"/>
</g>
<mask id="mask1_2588_1362" style="mask-type:luminance" maskUnits="userSpaceOnUse" x="0" y="0" width="464" height="258">
<path d="M463.167 0H0V257.099H463.167V0Z" fill="white"/>
</mask>
<g mask="url(#mask1_2588_1362)">
<path d="M470.336 133.595H279.178V153.228H259.537V172.856H239.902V192.488H220.261V212.121H200.626V231.748H180.985V253.067L209.702 259.192V239.56H229.343V219.927H248.984V200.3H268.619V180.667H288.26V161.039H307.896V141.407H467.079L314.619 141.401" stroke="#54575C" stroke-miterlimit="10"/>
</g>
<mask id="mask2_2588_1362" style="mask-type:luminance" maskUnits="userSpaceOnUse" x="0" y="0" width="464" height="258">
<path d="M463.167 0H0V257.099H463.167V0Z" fill="white"/>
</mask>
<g mask="url(#mask2_2588_1362)">
<path d="M307.896 141.407L279.178 133.595" stroke="#54575C" stroke-miterlimit="10"/>
</g>
<mask id="mask3_2588_1362" style="mask-type:luminance" maskUnits="userSpaceOnUse" x="0" y="0" width="464" height="258">
<path d="M463.167 0H0V257.099H463.167V0Z" fill="white"/>
</mask>
<g mask="url(#mask3_2588_1362)">
<path d="M307.896 161.04L279.178 153.228" stroke="#54575C" stroke-miterlimit="10"/>
</g>
<mask id="mask4_2588_1362" style="mask-type:luminance" maskUnits="userSpaceOnUse" x="0" y="0" width="464" height="258">
<path d="M463.167 0H0V257.099H463.167V0Z" fill="white"/>
</mask>
<g mask="url(#mask4_2588_1362)">
<path d="M288.261 161.04L259.538 153.228" stroke="#54575C" stroke-miterlimit="10"/>
</g>
<mask id="mask5_2588_1362" style="mask-type:luminance" maskUnits="userSpaceOnUse" x="0" y="0" width="464" height="258">
<path d="M463.167 0H0V257.099H463.167V0Z" fill="white"/>
</mask>
<g mask="url(#mask5_2588_1362)">
<path d="M288.261 180.667L259.538 172.855" stroke="#54575C" stroke-miterlimit="10"/>
</g>
<mask id="mask6_2588_1362" style="mask-type:luminance" maskUnits="userSpaceOnUse" x="0" y="0" width="464" height="258">
<path d="M463.167 0H0V257.099H463.167V0Z" fill="white"/>
</mask>
<g mask="url(#mask6_2588_1362)">
<path d="M268.62 180.667L239.902 172.855" stroke="#54575C" stroke-miterlimit="10"/>
</g>
<mask id="mask7_2588_1362" style="mask-type:luminance" maskUnits="userSpaceOnUse" x="0" y="0" width="464" height="258">
<path d="M463.167 0H0V257.099H463.167V0Z" fill="white"/>
</mask>
<g mask="url(#mask7_2588_1362)">
<path d="M268.62 200.3L239.902 192.488" stroke="#54575C" stroke-miterlimit="10"/>
</g>
<mask id="mask8_2588_1362" style="mask-type:luminance" maskUnits="userSpaceOnUse" x="0" y="0" width="464" height="258">
<path d="M463.167 0H0V257.099H463.167V0Z" fill="white"/>
</mask>
<g mask="url(#mask8_2588_1362)">
<path d="M248.984 200.3L220.261 192.488" stroke="#54575C" stroke-miterlimit="10"/>
</g>
<mask id="mask9_2588_1362" style="mask-type:luminance" maskUnits="userSpaceOnUse" x="0" y="0" width="464" height="258">
<path d="M463.167 0H0V257.099H463.167V0Z" fill="white"/>
</mask>
<g mask="url(#mask9_2588_1362)">
<path d="M220.261 212.121L248.984 219.927" stroke="#54575C" stroke-miterlimit="10"/>
</g>
<mask id="mask10_2588_1362" style="mask-type:luminance" maskUnits="userSpaceOnUse" x="0" y="0" width="464" height="258">
<path d="M463.167 0H0V257.099H463.167V0Z" fill="white"/>
</mask>
<g mask="url(#mask10_2588_1362)">
<path d="M229.343 219.927L200.626 212.121" stroke="#54575C" stroke-miterlimit="10"/>
</g>
<mask id="mask11_2588_1362" style="mask-type:luminance" maskUnits="userSpaceOnUse" x="0" y="0" width="464" height="258">
<path d="M463.167 0H0V257.099H463.167V0Z" fill="white"/>
</mask>
<g mask="url(#mask11_2588_1362)">
<path d="M229.343 239.56L200.626 231.748" stroke="#54575C" stroke-miterlimit="10"/>
</g>
<mask id="mask12_2588_1362" style="mask-type:luminance" maskUnits="userSpaceOnUse" x="0" y="0" width="464" height="258">
<path d="M463.167 0H0V257.099H463.167V0Z" fill="white"/>
</mask>
<g mask="url(#mask12_2588_1362)">
<path d="M209.702 239.56L180.985 231.748" stroke="#54575C" stroke-miterlimit="10"/>
</g>
<mask id="mask13_2588_1362" style="mask-type:luminance" maskUnits="userSpaceOnUse" x="0" y="0" width="464" height="258">
<path d="M463.167 0H0V257.099H463.167V0Z" fill="white"/>
</mask>
<g mask="url(#mask13_2588_1362)">
<path d="M180.984 253.067L160.644 254.565L160.875 263.671" stroke="#54575C" stroke-miterlimit="10"/>
</g>
<mask id="mask14_2588_1362" style="mask-type:luminance" maskUnits="userSpaceOnUse" x="0" y="0" width="464" height="258">
<path d="M463.167 0H0V257.099H463.167V0Z" fill="white"/>
</mask>
<g mask="url(#mask14_2588_1362)">
<path d="M209.702 259.192L191.819 263.671L160.644 254.565" stroke="#54575C" stroke-miterlimit="10"/>
</g>
<mask id="mask15_2588_1362" style="mask-type:luminance" maskUnits="userSpaceOnUse" x="0" y="0" width="464" height="258">
<path d="M463.167 0H0V257.099H463.167V0Z" fill="white"/>
</mask>
<g mask="url(#mask15_2588_1362)">
<path d="M161.001 134.73C160.957 134.752 160.913 134.78 160.869 134.807L161.078 134.862C161.04 134.846 161.012 134.829 161.012 134.829C161.012 134.829 161.012 134.791 161.001 134.73Z" fill="white"/>
<path d="M170.315 137.633L169.819 136.658L167.422 131.943C167.422 131.943 172.211 130.318 173.021 129.684C173.831 129.051 172.029 124.539 172.029 124.539C172.029 124.539 172.663 124.088 172.933 123.73C173.17 123.416 171.566 122.76 170.425 121.289C170.254 121.069 170.095 120.826 169.951 120.568C168.981 118.794 167.152 116.877 166.513 116.425C166.435 116.37 166.375 116.337 166.336 116.326C166.336 116.326 166.077 116.486 165.664 116.739C165.443 117.626 165.201 118.871 165.256 119.846C165.344 121.559 165.978 123.818 165.344 124.721C164.71 125.625 164.981 126.434 164.981 126.434C165.884 128.781 163.355 130.676 163.355 130.676C163.355 130.676 163.355 130.676 163.625 132.571C163.829 134.003 162.429 133.943 160.996 134.725C161.002 134.785 161.007 134.824 161.007 134.824C161.007 134.824 161.035 134.835 161.073 134.857C161.42 135.022 163.234 135.854 166.066 136.901C169.229 138.074 174.013 151.432 174.195 150.259C174.377 149.086 170.315 137.633 170.315 137.633Z" fill="white"/>
<path d="M170.409 119.306C169.687 117.769 169.599 116.144 168.42 115.604C167.246 115.064 165.168 113.709 163.631 113.891C162.093 114.073 159.839 115.246 159.387 115.786C158.935 116.326 156.406 114.882 154.78 115.874C153.154 116.866 151.981 119.036 152.432 120.209C152.884 121.383 152.884 121.383 152.884 121.383C152.884 121.383 150.895 120.479 150.719 122.374C150.537 124.269 149.275 125.624 150.719 126.528C152.162 127.431 152.614 128.693 152.614 128.693C152.614 128.693 150.178 130.681 150.267 132.031C150.355 133.386 151.804 133.744 151.892 135.281C151.981 136.818 150.9 138.333 154.009 138.966C155.64 139.297 156.764 138.559 158.208 137.303C158.72 136.856 159.211 136.366 159.657 135.821C160.032 135.364 160.451 135.05 160.87 134.802C160.914 134.774 160.958 134.747 161.002 134.725C162.44 133.942 163.835 134.003 163.631 132.571C163.361 130.676 163.361 130.676 163.361 130.676C163.361 130.676 165.89 128.781 164.986 126.434C164.986 126.434 164.716 125.624 165.35 124.721C165.984 123.817 165.35 121.559 165.262 119.846C165.212 118.865 165.455 117.626 165.67 116.739C166.083 116.485 166.342 116.326 166.342 116.326C166.381 116.337 166.441 116.375 166.518 116.425C167.152 116.877 168.987 118.794 169.957 120.567C170.1 120.826 170.26 121.069 170.431 121.289C170.652 120.854 170.811 120.165 170.409 119.306Z" fill="white"/>
<path d="M182.164 182.551C182.175 182.242 182.197 181.84 182.241 181.416C182.329 180.512 179.171 177.356 179.171 177.356L177.215 180.017C178.67 180.766 180.384 181.642 182.164 182.551Z" fill="white"/>
<path d="M176.95 163.358C174.966 166.454 174.294 166.878 174.294 166.878L174.162 166.867C173.743 170.305 172.867 177.505 172.938 177.714C172.955 177.763 173.782 178.221 175.104 178.915C175.71 179.234 176.427 179.603 177.215 180.011L179.171 177.35C177.502 176.105 177.066 167.358 176.95 163.358Z" fill="white"/>
<path d="M182.164 182.551C180.389 181.642 178.675 180.766 177.215 180.011C176.427 179.604 175.716 179.234 175.104 178.915C173.782 178.221 172.955 177.769 172.938 177.714C172.872 177.51 173.743 170.305 174.162 166.868L170.607 166.565L157.403 165.435L157.409 165.347C156.003 169.01 152.394 179.075 153.788 182.589C155.502 186.924 160.743 192.158 160.743 195.32C160.743 198.482 161.647 209.763 161.647 209.763C161.647 209.763 161.663 209.758 161.685 209.752C162.104 209.626 166.358 208.342 171.698 206.21C177.595 203.858 184.803 200.487 189.62 196.521C192.453 194.185 194.464 191.651 194.877 188.996C194.883 189.001 188.165 185.613 182.164 182.551Z" fill="white"/>
<path d="M164.358 254.356C162.099 253.722 155.144 244.875 154.516 244.605C154.516 244.605 153.43 248.037 154.427 251.106C155.419 254.174 154.879 256.521 154.879 256.521L155.601 256.609C155.601 256.609 154.879 249.569 156.411 250.379C157.949 251.188 160.027 256.339 162.826 256.515C165.626 256.691 172.58 256.515 172.58 254.527C172.58 253.111 169.015 252.841 166.959 252.802C166.965 252.802 166.976 252.808 166.981 252.808C168.061 252.824 166.612 254.989 164.358 254.356Z" fill="white"/>
<path d="M171.131 212.38C171.935 210.771 171.88 208.105 171.704 206.21C166.364 208.337 162.109 209.626 161.691 209.752L160.93 213.195C160.93 213.195 155.419 225.474 156.687 233.869C157.954 242.264 153.887 244.341 154.521 244.611C155.155 244.881 162.109 253.728 164.363 254.361C166.623 254.995 168.067 252.824 166.981 252.824C166.976 252.824 166.965 252.819 166.959 252.819C165.862 252.747 163.278 247.475 162.92 244.071C162.556 240.639 166.171 224.664 166.171 220.962C166.171 217.261 169.775 215.09 171.131 212.38Z" fill="white"/>
<path d="M210.231 231.825C210.369 231.941 210.49 232.023 210.594 232.062L210.231 231.825Z" fill="white"/>
<path d="M210.595 232.062C210.595 232.062 209.151 233.505 206.71 232.784C204.274 232.062 198.311 224.84 197.589 225.022C197.589 225.022 197.578 224.928 197.545 224.747C197.137 225.319 196.746 226.217 197.044 227.369C197.584 229.445 199.755 236.849 199.755 236.849L200.565 236.579L199.303 231.071C199.303 231.071 201.199 231.159 202.191 232.696C203.183 234.232 203.816 237.389 205.982 237.207C208.148 237.025 215.737 235.852 215.737 233.957C215.737 232.062 210.595 232.062 210.595 232.062Z" fill="white"/>
<path d="M210.231 231.825C208.098 230.019 202.212 219.299 201.11 215.994C199.936 212.474 200.118 194.416 199.936 192.251C199.754 190.086 194.877 189.001 194.877 189.001C194.458 191.656 192.452 194.19 189.62 196.526C193.246 198.25 192.739 200.503 192.078 205.615C191.356 211.212 194.965 215.184 196.139 219.067C197.071 222.141 197.429 224.075 197.545 224.752C197.572 224.929 197.589 225.028 197.589 225.028C198.311 224.846 204.273 232.068 206.709 232.789C209.145 233.511 210.594 232.068 210.594 232.068C210.49 232.024 210.369 231.941 210.231 231.825Z" fill="white"/>
<path d="M143.62 183.261C143.235 184.479 137.839 191.546 137.966 191.992C138.093 192.439 139.184 192.571 139.184 192.571C139.184 192.571 138.798 193.595 139.57 193.788C140.341 193.981 140.341 193.981 140.341 193.981C140.341 193.981 140.341 195.391 141.306 195.391C141.306 195.391 141.818 196.229 142.59 196.162C143.361 196.096 143.235 196.548 143.808 196.421C144.386 196.295 145.241 196.052 145.736 194.626C146.315 192.956 148.723 180.771 149.076 179.604C149.385 178.595 149.748 175.362 149.952 173.395L144.849 173.472C144.849 173.472 144.006 182.038 143.62 183.261Z" fill="white"/>
<path d="M177.816 152.887C176.73 149.273 177.998 146.656 176.46 143.77C174.922 140.883 173.12 138.531 172.123 137.27C171.55 136.542 170.558 136.531 169.819 136.658L170.315 137.633C170.315 137.633 174.377 149.097 174.201 150.27C174.024 151.443 169.235 138.085 166.072 136.912C163.239 135.859 161.432 135.028 161.079 134.868L160.87 134.813C160.451 135.055 160.037 135.375 159.657 135.832C159.205 136.377 158.72 136.867 158.208 137.314C156.158 140.63 152.89 146.078 151.98 148.562C150.625 152.264 145.119 171.941 145.026 172.216C144.937 172.486 144.844 173.478 144.844 173.478L149.947 173.401L150.713 173.39C150.713 173.39 152.069 163.458 154.416 161.205C156.764 158.952 158.12 157.321 158.12 157.321L157.403 165.353L157.398 165.441L170.602 166.57L174.156 166.873L174.289 166.884C174.289 166.884 174.961 166.46 176.945 163.364C177.022 163.243 177.094 163.133 177.176 163C179.348 159.569 178.896 156.5 177.816 152.887Z" fill="white"/>
</g>
<mask id="mask16_2588_1362" style="mask-type:luminance" maskUnits="userSpaceOnUse" x="0" y="0" width="464" height="258">
<path d="M463.167 0H0V257.099H463.167V0Z" fill="white"/>
</mask>
<g mask="url(#mask16_2588_1362)">
<path d="M169.698 136.84L169.202 135.865L166.805 131.15C166.805 131.15 171.594 129.525 172.404 128.891C173.214 128.258 171.412 123.746 171.412 123.746C171.412 123.746 172.046 123.294 172.316 122.936C172.553 122.622 170.949 121.967 169.808 120.496C169.637 120.276 169.477 120.033 169.334 119.774C168.364 118.001 166.535 116.084 165.895 115.632C165.818 115.577 165.758 115.544 165.719 115.533C165.719 115.533 165.46 115.692 165.047 115.946C164.826 116.833 164.584 118.078 164.639 119.053C164.727 120.766 165.361 123.024 164.727 123.928C164.093 124.831 164.363 125.641 164.363 125.641C165.267 127.988 162.738 129.883 162.738 129.883C162.738 129.883 162.738 129.883 163.008 131.778C163.212 133.21 161.812 133.149 160.379 133.932C160.384 133.992 160.39 134.031 160.39 134.031C160.39 134.031 160.417 134.042 160.456 134.064C160.803 134.229 162.616 135.061 165.449 136.107C168.612 137.281 173.396 150.639 173.578 149.466C173.759 148.293 169.698 136.84 169.698 136.84Z" fill="#EBB0A7"/>
<path d="M169.786 118.518C169.064 116.981 168.976 115.356 167.797 114.816C166.623 114.277 164.545 112.922 163.008 113.103C161.47 113.285 159.216 114.458 158.764 114.998C158.313 115.538 155.783 114.095 154.157 115.086C152.532 116.078 151.358 118.248 151.81 119.422C152.262 120.595 152.262 120.595 152.262 120.595C152.262 120.595 150.272 119.692 150.096 121.587C149.914 123.482 148.652 124.837 150.096 125.74C151.54 126.644 151.991 127.905 151.991 127.905C151.991 127.905 149.556 129.894 149.644 131.243C149.732 132.598 151.181 132.956 151.27 134.493C151.358 136.03 150.278 137.545 153.386 138.179C155.017 138.509 156.141 137.771 157.585 136.515C158.098 136.069 158.588 135.579 159.034 135.033C159.409 134.576 159.828 134.262 160.247 134.014C160.291 133.987 160.335 133.959 160.379 133.937C161.817 133.155 163.212 133.215 163.008 131.783C162.738 129.888 162.738 129.888 162.738 129.888C162.738 129.888 165.267 127.993 164.364 125.646C164.364 125.646 164.093 124.837 164.727 123.933C165.361 123.03 164.727 120.771 164.639 119.058C164.589 118.078 164.832 116.838 165.047 115.951C165.46 115.698 165.719 115.538 165.719 115.538C165.758 115.549 165.818 115.588 165.896 115.637C166.529 116.089 168.364 118.006 169.334 119.78C169.478 120.039 169.637 120.281 169.808 120.501C170.034 120.061 170.194 119.372 169.786 118.518Z" fill="#F5C65D"/>
<path d="M181.541 181.758C181.552 181.449 181.574 181.047 181.618 180.623C181.706 179.719 178.548 176.563 178.548 176.563L176.592 179.224C178.052 179.973 179.766 180.854 181.541 181.758Z" fill="#EBB0A7"/>
<path d="M176.333 162.571C174.349 165.667 173.677 166.091 173.677 166.091L173.545 166.08C173.126 169.517 172.25 176.717 172.321 176.926C172.338 176.976 173.164 177.433 174.487 178.127C175.093 178.447 175.81 178.816 176.598 179.223L178.554 176.563C176.884 175.318 176.443 166.565 176.333 162.571Z" fill="#6BA5C8"/>
<path d="M181.541 181.757C179.766 180.849 178.053 179.973 176.592 179.218C175.804 178.81 175.093 178.441 174.481 178.122C173.159 177.428 172.332 176.976 172.316 176.921C172.25 176.717 173.12 169.512 173.539 166.074L169.985 165.771L156.78 164.642L156.786 164.554C155.381 168.217 151.771 178.281 153.165 181.796C154.879 186.131 160.12 191.364 160.12 194.526C160.12 197.688 161.024 208.97 161.024 208.97C161.024 208.97 161.04 208.965 161.062 208.959C161.481 208.832 165.736 207.549 171.076 205.417C176.972 203.065 184.181 199.694 188.997 195.727C191.83 193.392 193.841 190.858 194.255 188.203C194.266 188.208 187.548 184.826 181.541 181.757Z" fill="#468FBA"/>
<path d="M163.735 253.568C161.476 252.935 154.521 244.088 153.893 243.818C153.893 243.818 152.807 247.25 153.805 250.318C154.797 253.386 154.257 255.733 154.257 255.733L154.978 255.821C154.978 255.821 154.257 248.781 155.789 249.591C157.326 250.401 159.404 255.551 162.203 255.728C165.003 255.904 171.958 255.728 171.958 253.739C171.958 252.323 168.392 252.053 166.336 252.015C166.342 252.015 166.353 252.02 166.359 252.02C167.439 252.031 165.995 254.202 163.735 253.568Z" fill="#468FBA"/>
<path d="M170.508 211.592C171.313 209.984 171.875 208.105 171.698 206.21C166.358 208.337 162.104 209.626 161.685 209.752L160.307 212.402C160.307 212.402 154.796 224.681 156.064 233.076C157.331 241.471 153.264 243.548 153.898 243.818C154.532 244.088 161.487 252.934 163.741 253.568C166 254.201 167.444 252.031 166.358 252.031C166.353 252.031 166.342 252.026 166.336 252.026C165.24 251.954 162.655 246.682 162.297 243.278C161.933 239.846 165.548 223.871 165.548 220.169C165.548 216.467 169.158 214.297 170.508 211.592Z" fill="#EBB0A7"/>
<path d="M209.614 231.032C209.751 231.148 209.872 231.23 209.977 231.269L209.614 231.032Z" stroke="#54575C" stroke-miterlimit="10" stroke-linejoin="round"/>
<path d="M209.978 231.269C209.978 231.269 208.534 232.713 206.093 231.991C203.657 231.269 197.694 224.048 196.972 224.229C196.972 224.229 196.961 224.136 196.928 223.954C196.52 224.527 196.129 225.425 196.426 226.576C196.966 228.653 199.138 236.056 199.138 236.056L199.948 235.786L198.686 230.278C198.686 230.278 200.582 230.366 201.574 231.903C202.566 233.44 203.199 236.596 205.365 236.414C207.531 236.233 215.119 235.059 215.119 233.164C215.119 231.269 209.978 231.269 209.978 231.269Z" fill="#468FBA"/>
<path d="M209.614 231.032C207.481 229.226 201.595 218.506 200.493 215.201C199.319 211.681 199.501 193.623 199.319 191.458C199.138 189.293 194.883 189.001 194.883 189.001C194.464 191.657 192.458 194.191 189.626 196.526C193.252 198.25 192.128 199.716 191.466 204.822C190.744 210.419 194.354 214.391 195.528 218.274C196.459 221.348 196.818 223.282 196.933 223.959C196.961 224.136 196.977 224.235 196.977 224.235C197.699 224.053 203.662 231.275 206.098 231.996C208.534 232.718 209.983 231.275 209.983 231.275C209.873 231.231 209.752 231.148 209.614 231.032Z" fill="#EBB0A7"/>
<path d="M142.998 182.468C142.612 183.685 137.217 190.753 137.344 191.199C137.47 191.645 138.561 191.778 138.561 191.778C138.561 191.778 138.176 192.802 138.947 192.995C139.719 193.188 139.719 193.188 139.719 193.188C139.719 193.188 139.719 194.598 140.683 194.598C140.683 194.598 141.196 195.435 141.967 195.369C142.739 195.303 142.612 195.755 143.185 195.628C143.764 195.501 144.618 195.259 145.114 193.832C145.693 192.163 148.101 179.978 148.454 178.81C148.762 177.802 149.126 174.569 149.33 172.602L144.227 172.679C144.232 172.679 143.383 181.251 142.998 182.468Z" fill="#EBB0A7"/>
<path d="M177.193 152.099C176.107 148.485 177.375 145.869 175.837 142.982C174.3 140.096 172.498 137.749 171.5 136.482C170.927 135.755 169.935 135.744 169.197 135.871L169.693 136.846C169.693 136.846 173.754 148.309 173.578 149.482C173.402 150.656 168.613 137.297 165.449 136.124C162.617 135.072 160.809 134.24 160.456 134.08L160.247 134.025C159.828 134.268 159.415 134.587 159.035 135.044C158.583 135.59 158.098 136.08 157.585 136.526C155.535 139.842 152.267 145.29 151.358 147.775C150.002 151.477 144.497 171.153 144.403 171.429C144.315 171.699 144.221 172.69 144.221 172.69L149.324 172.613L150.09 172.602C150.09 172.602 151.446 162.67 153.794 160.417C156.141 158.164 157.497 156.533 157.497 156.533L156.781 164.565L156.775 164.653L169.979 165.782L173.534 166.085L173.666 166.096C173.666 166.096 174.338 165.672 176.322 162.576C176.4 162.455 176.471 162.345 176.554 162.213C178.731 158.781 178.279 155.707 177.193 152.099Z" fill="#6BA5C8"/>
</g>
<mask id="mask17_2588_1362" style="mask-type:luminance" maskUnits="userSpaceOnUse" x="0" y="0" width="464" height="258">
<path d="M463.167 0H0V257.099H463.167V0Z" fill="white"/>
</mask>
<g mask="url(#mask17_2588_1362)">
<path d="M170.299 137.606L169.803 136.631L167.405 131.916C167.405 131.916 172.194 130.291 173.005 129.657C173.815 129.024 172.013 124.512 172.013 124.512C172.013 124.512 172.646 124.06 172.916 123.702C173.153 123.388 171.55 122.733 170.409 121.262C170.238 121.042 170.078 120.799 169.935 120.54C168.965 118.766 167.135 116.849 166.496 116.398C166.419 116.343 166.358 116.31 166.32 116.299C166.32 116.299 166.061 116.458 165.647 116.712C165.427 117.599 165.185 118.844 165.24 119.819C165.328 121.532 165.962 123.79 165.328 124.694C164.694 125.597 164.964 126.407 164.964 126.407C165.868 128.754 163.338 130.649 163.338 130.649C163.338 130.649 163.338 130.649 163.608 132.544C163.812 133.976 162.413 133.915 160.98 134.697C160.985 134.758 160.991 134.797 160.991 134.797C160.991 134.797 161.018 134.808 161.057 134.83C161.404 134.995 163.217 135.827 166.05 136.873C169.213 138.047 173.997 151.405 174.178 150.232C174.36 149.058 170.299 137.606 170.299 137.606Z" stroke="#54575C" stroke-miterlimit="10"/>
<path d="M170.387 119.284C169.665 117.747 169.577 116.122 168.397 115.582C167.224 115.043 165.146 113.687 163.608 113.869C162.071 114.051 159.817 115.224 159.365 115.764C158.913 116.304 156.384 114.861 154.758 115.852C153.132 116.844 151.958 119.014 152.41 120.188C152.862 121.361 152.862 121.361 152.862 121.361C152.862 121.361 150.873 120.458 150.696 122.352C150.514 124.247 149.252 125.603 150.696 126.506C152.14 127.409 152.592 128.671 152.592 128.671C152.592 128.671 150.156 130.66 150.244 132.009C150.333 133.364 151.782 133.722 151.87 135.259C151.958 136.796 150.878 138.311 153.986 138.944C155.618 139.275 156.742 138.537 158.186 137.281C158.698 136.835 159.189 136.344 159.635 135.799C160.01 135.342 160.429 135.028 160.847 134.78C160.892 134.752 160.936 134.725 160.98 134.703C162.418 133.921 163.812 133.981 163.608 132.549C163.338 130.654 163.338 130.654 163.338 130.654C163.338 130.654 165.868 128.759 164.964 126.412C164.964 126.412 164.694 125.603 165.328 124.699C165.962 123.796 165.328 121.537 165.24 119.824C165.19 118.843 165.433 117.604 165.647 116.717C166.061 116.464 166.32 116.304 166.32 116.304C166.358 116.315 166.419 116.354 166.496 116.403C167.13 116.855 168.965 118.772 169.935 120.546C170.078 120.805 170.238 121.047 170.409 121.267C170.629 120.827 170.795 120.138 170.387 119.284Z" stroke="#54575C" stroke-miterlimit="10"/>
<path d="M182.142 182.523C182.153 182.215 182.175 181.813 182.219 181.388C182.307 180.485 179.149 177.329 179.149 177.329L177.193 179.989C178.653 180.738 180.367 181.62 182.142 182.523Z" stroke="#54575C" stroke-miterlimit="10"/>
<path d="M176.928 163.337C174.944 166.433 174.272 166.857 174.272 166.857L174.14 166.846C173.721 170.283 172.845 177.483 172.916 177.692C172.933 177.742 173.759 178.199 175.082 178.893C175.688 179.213 176.405 179.582 177.193 179.989L179.149 177.329C177.485 176.078 177.044 167.33 176.928 163.337Z" stroke="#54575C" stroke-miterlimit="10"/>
<path d="M182.142 182.523C180.367 181.614 178.653 180.739 177.193 179.984C176.405 179.576 175.694 179.207 175.082 178.888C173.76 178.194 172.933 177.742 172.916 177.687C172.85 177.483 173.721 170.278 174.14 166.84L170.585 166.537L157.381 165.408L157.387 165.32C155.981 168.983 152.372 179.047 153.766 182.562C155.48 186.897 160.721 192.13 160.721 195.292C160.721 198.454 161.625 209.736 161.625 209.736C161.625 209.736 161.641 209.73 161.663 209.725C162.082 209.598 166.336 208.315 171.677 206.183C177.573 203.831 184.782 200.459 189.598 196.493C192.431 194.158 194.442 191.624 194.856 188.968C194.861 188.974 188.143 185.586 182.142 182.523Z" stroke="#54575C" stroke-miterlimit="10"/>
<path d="M164.336 254.334C162.077 253.7 155.122 244.853 154.494 244.583C154.494 244.583 153.408 248.015 154.405 251.084C155.397 254.152 154.857 256.499 154.857 256.499L155.579 256.587C155.579 256.587 154.857 249.547 156.389 250.357C157.927 251.166 160.005 256.317 162.804 256.493C165.604 256.669 172.558 256.493 172.558 254.505C172.558 253.089 168.993 252.819 166.937 252.78C166.943 252.78 166.954 252.786 166.959 252.786C168.04 252.797 166.596 254.962 164.336 254.334Z" stroke="#54575C" stroke-miterlimit="10" stroke-linejoin="round"/>
<path d="M171.109 212.353C171.913 210.744 171.858 208.078 171.682 206.183C166.342 208.309 162.087 209.598 161.669 209.725L160.908 213.168C160.908 213.168 155.397 225.447 156.665 233.842C157.932 242.237 153.865 244.314 154.499 244.584C155.133 244.853 162.087 253.7 164.341 254.334C166.601 254.967 168.045 252.797 166.959 252.797C166.954 252.797 166.943 252.791 166.937 252.791C165.84 252.72 163.256 247.448 162.898 244.044C162.534 240.612 166.149 224.637 166.149 220.935C166.149 217.233 169.759 215.063 171.109 212.353Z" stroke="#54575C" stroke-miterlimit="10" stroke-linejoin="round"/>
<path d="M210.215 231.798C210.352 231.914 210.473 231.996 210.578 232.034L210.215 231.798Z" stroke="#54575C" stroke-miterlimit="10" stroke-linejoin="round"/>
<path d="M210.579 232.035C210.579 232.035 209.135 233.478 206.693 232.757C204.258 232.035 198.295 224.813 197.573 224.995C197.573 224.995 197.562 224.901 197.529 224.719C197.121 225.292 196.73 226.19 197.027 227.342C197.567 229.418 199.739 236.822 199.739 236.822L200.549 236.552L199.287 231.043C199.287 231.043 201.182 231.132 202.174 232.668C203.166 234.205 203.8 237.362 205.966 237.18C208.132 236.998 215.72 235.825 215.72 233.93C215.72 232.035 210.579 232.035 210.579 232.035Z" stroke="#54575C" stroke-miterlimit="10" stroke-linejoin="round"/>
<path d="M210.214 231.798C208.082 229.991 202.196 219.271 201.094 215.966C199.92 212.446 200.102 194.389 199.92 192.224C199.738 190.059 194.861 188.974 194.861 188.974C194.442 191.629 192.436 194.163 189.604 196.499C193.23 198.223 192.723 200.476 192.061 205.588C191.339 211.185 194.949 215.156 196.123 219.04C197.054 222.114 197.413 224.047 197.528 224.725C197.556 224.901 197.572 225 197.572 225C198.294 224.819 204.257 232.04 206.693 232.762C209.129 233.484 210.578 232.04 210.578 232.04C210.473 231.996 210.352 231.914 210.214 231.798Z" stroke="#54575C" stroke-miterlimit="10" stroke-linejoin="round"/>
<path d="M143.598 183.234C143.213 184.451 137.817 191.519 137.944 191.965C138.071 192.411 139.162 192.543 139.162 192.543C139.162 192.543 138.776 193.568 139.548 193.761C140.319 193.954 140.319 193.954 140.319 193.954C140.319 193.954 140.319 195.364 141.284 195.364C141.284 195.364 141.796 196.201 142.568 196.135C143.339 196.069 143.213 196.521 143.786 196.394C144.364 196.267 145.219 196.025 145.715 194.598C146.293 192.929 148.701 180.744 149.054 179.576C149.363 178.568 149.726 175.335 149.93 173.368L144.827 173.445C144.833 173.445 143.984 182.016 143.598 183.234Z" stroke="#54575C" stroke-miterlimit="10"/>
<path d="M177.794 152.865C176.708 149.251 177.976 146.635 176.438 143.748C174.9 140.862 173.098 138.509 172.101 137.248C171.528 136.521 170.536 136.51 169.797 136.636L170.293 137.611C170.293 137.611 174.355 149.075 174.179 150.248C174.002 151.422 169.213 138.063 166.05 136.89C163.217 135.838 161.41 135.006 161.057 134.846L160.848 134.791C160.429 135.033 160.015 135.353 159.635 135.81C159.183 136.355 158.698 136.846 158.186 137.292C156.136 140.608 152.868 146.056 151.958 148.541C150.603 152.242 145.097 171.919 145.004 172.195C144.915 172.465 144.822 173.456 144.822 173.456L149.925 173.379L150.691 173.368C150.691 173.368 152.047 163.436 154.394 161.183C156.742 158.93 158.098 157.299 158.098 157.299L157.381 165.331L157.376 165.419L170.58 166.548L174.134 166.851L174.267 166.862C174.267 166.862 174.939 166.438 176.923 163.342C177 163.221 177.072 163.111 177.154 162.979C179.331 159.547 178.879 156.473 177.794 152.865Z" stroke="#54575C" stroke-miterlimit="10"/>
<path d="M171.666 127.057C171.666 127.057 169.346 128.941 168.332 126.478" stroke="#54575C" stroke-miterlimit="10" stroke-linejoin="round"/>
<path d="M158.108 157.288C158.108 157.288 162.677 152.716 162.39 150.975" stroke="#54575C" stroke-miterlimit="10" stroke-linejoin="round"/>
<path d="M139.167 192.543L140.87 190.257" stroke="#54575C" stroke-miterlimit="10" stroke-linejoin="round"/>
<path d="M140.325 193.954C140.325 193.954 141.157 192.841 141.73 192.268" stroke="#54575C" stroke-miterlimit="10" stroke-linejoin="round"/>
<path d="M141.29 195.369C141.29 195.369 141.62 194.339 142.022 193.882C142.425 193.419 143.229 192.731 143.229 192.731" stroke="#54575C" stroke-miterlimit="10" stroke-linejoin="round"/>
<path d="M143.229 196.124C143.284 195.953 143.229 195.491 143.918 194.626C144.607 193.761 145.009 193.359 145.009 193.359" stroke="#54575C" stroke-miterlimit="10" stroke-linejoin="round"/>
<path d="M168.43 122.551C168.716 122.551 168.948 122.319 168.948 122.033C168.948 121.747 168.716 121.515 168.43 121.515C168.144 121.515 167.912 121.747 167.912 122.033C167.912 122.319 168.144 122.551 168.43 122.551Z" fill="#54575C"/>
</g>
<path d="M349.889 66.0541C349.939 66.0431 349.972 66.0376 349.972 66.0376C349.972 66.0376 349.515 56.8988 348.236 53.7919C346.958 50.685 343.21 37.3431 341.838 33.14C340.466 28.9369 336.079 23.6376 333.974 22.6296C333.445 22.3762 332.927 22.2495 332.442 22.2054C332.557 22.0567 332.717 21.9355 332.976 21.8749C333.715 21.7096 333.88 21.1367 333.963 20.6409C334.045 20.1452 335.032 20.3931 335.28 19.9854C335.528 19.5723 334.541 18.6688 334.541 17.9307C334.541 17.1925 335.776 17.2752 335.445 16.5315C335.114 15.7933 336.184 15.7933 336.762 15.7107C337.341 15.6281 336.514 14.9726 336.106 14.1463C335.693 13.3255 336.437 13.8157 336.928 13.5679C337.418 13.32 335.859 11.1 335.611 10.2792C335.363 9.45841 336.189 9.78342 336.106 9.04526C336.024 8.30711 334.955 7.56344 333.803 6.90791C332.651 6.25238 334.541 7.07317 335.699 6.74265C336.85 6.41213 334.299 5.01294 331.747 4.27478C329.196 3.53663 329.934 3.86164 329.774 2.87559C329.615 1.88954 328.457 1.4764 327.636 1.72429C326.815 1.97217 326.402 2.71033 324.919 1.72429C323.437 0.738239 322.781 1.97217 321.872 3.20611C320.968 4.44004 321.376 3.70189 320.803 4.10952C320.224 4.52267 319.568 3.37137 319.072 4.0269C318.576 4.68242 316.025 5.59135 314.956 6.66002C313.886 7.7287 313.804 8.96263 313.638 9.87156C313.473 10.775 313.473 10.45 314.217 11.9263C314.956 13.4081 314.217 13.4081 314.956 14.642C315.694 15.876 314.956 14.642 315.451 15.2204C315.947 15.7989 316.19 16.6196 316.438 16.9502C316.46 16.9777 316.477 16.9997 316.493 17.0163C316.642 17.6883 316.813 18.5201 316.934 19.3354C317.006 19.7981 317.127 20.1452 317.276 20.4041L317.265 20.4592C317.265 20.4481 317.27 20.4261 317.276 20.4041C317.711 21.1643 318.345 21.1698 318.345 21.1698C318.345 21.1698 318.345 21.1698 319.166 21.8088C319.645 22.1834 320.064 23.241 320.329 24.0618C319.717 24.4639 319.199 25.147 318.758 25.9678C318.19 27.031 317.761 28.3255 317.441 29.5264C315.159 35.5473 310.547 47.1265 308.651 47.3964C306.094 47.76 289.043 50.1617 289.164 50.966C288.938 50.9164 288.657 50.8448 288.294 50.7346C286.993 50.338 285.726 50.2058 284.634 50.6355C283.543 51.0651 281.934 50.8889 282.375 51.4177C282.816 51.9465 284.122 52.266 284.122 52.266C284.122 52.266 284.293 53.1254 281.895 53.3182C281.499 53.3512 281.08 53.3677 280.666 53.3733C280.518 53.2961 280.319 53.2851 280.06 53.3843C279.228 53.3953 278.451 53.3898 277.933 53.4449C277.305 53.511 277.222 53.7533 277.173 53.858C277.051 54.1059 281.581 57.962 282.739 57.984C283.896 58.006 286.624 57.6039 288.068 56.7225C288.734 56.3149 289.749 56.0449 290.652 55.8742C291.093 57.0365 291.225 57.009 291.225 57.009C291.225 57.009 310.293 54.0618 311.302 53.0593C311.77 52.591 314.008 50.2774 316.251 47.9473C316.752 53.2025 317.061 60.7328 317.061 60.7328C317.061 60.7328 317.287 60.6887 317.656 60.6226C317.656 60.6226 315.76 94.5228 315.76 99.9708C315.76 102.802 318.301 123.416 319.948 128.693H319.937C319.937 128.693 318.042 130.191 315.766 131.078C313.567 131.932 310.988 132.141 310.403 133.463C309.814 134.796 314.112 135.43 318.714 135.601C317.215 136.025 315.892 136.41 315.496 137.303C314.305 139.986 332.927 139.837 333.968 138.79C335.01 137.749 332.805 133.843 332.805 133.843C332.805 133.843 334.415 114.817 332.034 97.839C330.05 83.6983 336.718 74.5429 337.424 72.973C339.523 68.2962 339.545 65.2003 339.115 63.2778C339.573 63.3714 339.859 63.388 339.915 63.2943C340.278 62.6553 335.798 53.6983 334.613 51.1423C333.428 48.5863 335.892 41.4581 335.892 41.4581C335.892 41.4581 339.551 48.129 341.469 51.3296C343.21 54.2326 345.629 63.6854 346.203 65.8173C345.773 67.4533 344.803 71.2929 344.996 71.7446C345.244 72.323 345.651 73.9645 345.899 73.1438C346.147 72.323 346.721 69.9322 346.721 69.9322C346.721 69.9322 347.955 71.3314 348.203 72.8959C348.451 74.4603 348.418 78.3439 348.859 77.0108C349.107 76.2727 349.107 74.6256 349.597 73.7993C350.093 72.9785 350.997 71.0009 350.914 69.3538C350.87 68.3292 350.303 66.9465 349.889 66.0541ZM331.097 60.9146C330.937 60.865 330.772 60.8209 330.612 60.7714C330.777 60.8209 330.937 60.8705 331.097 60.9146ZM330.535 60.7493C330.353 60.6997 330.177 60.6447 329.995 60.5951C330.171 60.6502 330.353 60.6997 330.535 60.7493ZM329.973 60.5896C329.598 60.4849 329.234 60.3857 328.882 60.2921C329.234 60.3913 329.598 60.4904 329.973 60.5896ZM328.766 60.2701C328.634 60.237 328.501 60.204 328.369 60.1709C328.501 60.1985 328.634 60.2315 328.766 60.2701ZM328.198 60.1268C328.088 60.0993 327.983 60.0773 327.879 60.0497C327.983 60.0718 328.094 60.0993 328.198 60.1268ZM327.691 60.0057C327.598 59.9836 327.498 59.9616 327.405 59.9395C327.498 59.9616 327.592 59.9836 327.691 60.0057ZM327.217 59.901C327.129 59.8845 327.041 59.8624 326.953 59.8459C327.041 59.8679 327.129 59.8845 327.217 59.901ZM326.771 59.8129C326.688 59.7963 326.606 59.7853 326.528 59.7688C326.606 59.7853 326.688 59.8018 326.771 59.8129ZM326.352 59.7412C326.275 59.7302 326.198 59.7192 326.126 59.7082C326.203 59.7192 326.275 59.7302 326.352 59.7412ZM325.966 59.6917C325.889 59.6806 325.823 59.6751 325.751 59.6696C325.823 59.6751 325.895 59.6806 325.966 59.6917ZM331.213 60.9476C331.367 60.9917 331.516 61.0358 331.67 61.0853C331.521 61.0413 331.367 60.9972 331.213 60.9476ZM332.282 61.2671C332.117 61.2176 331.951 61.168 331.791 61.1184C331.957 61.168 332.122 61.2176 332.282 61.2671ZM338.575 63.1566C338.597 63.1621 338.614 63.1676 338.636 63.1731C338.619 63.1676 338.597 63.1621 338.575 63.1566ZM337.936 62.9858C337.969 62.9968 338.002 63.0024 338.035 63.0134C338.002 63.0079 337.975 62.9968 337.936 62.9858ZM335.015 62.11C334.332 61.9006 333.616 61.6748 332.888 61.4544C332.701 61.3993 332.513 61.3387 332.326 61.2837C333.246 61.5646 334.161 61.8455 335.015 62.11ZM337.335 62.8151C337.291 62.804 337.247 62.7875 337.203 62.7765C337.247 62.793 337.291 62.804 337.335 62.8151ZM336.547 62.5837C336.498 62.5672 336.448 62.5562 336.399 62.5396C336.448 62.5506 336.498 62.5672 336.547 62.5837ZM335.759 62.3413C335.638 62.3028 335.511 62.2642 335.39 62.2256C335.517 62.2642 335.638 62.3028 335.759 62.3413Z" fill="white"/>
<path d="M289.804 51.3681C289.748 51.0541 289.699 50.7456 289.644 50.4316C288.459 50.1121 287.307 50.0295 286.31 50.4206C285.218 50.8502 283.609 50.674 284.05 51.2028C284.491 51.7316 285.797 52.0511 285.797 52.0511C285.797 52.0511 285.968 52.9105 283.571 53.1033C283.174 53.1363 282.755 53.1529 282.342 53.1584C282.138 53.1639 281.934 53.1639 281.736 53.1694C280.903 53.1804 280.126 53.1749 279.608 53.23C278.98 53.2961 278.897 53.5385 278.848 53.6431C278.727 53.891 283.257 57.7471 284.414 57.7691C285.571 57.7911 288.299 57.389 289.743 56.5076C290.057 56.3148 290.448 56.1551 290.867 56.0228C290.652 54.4474 290.079 52.9435 289.804 51.3681Z" fill="#CE8060"/>
<path d="M316.868 47.3412C316.427 45.0385 315.991 42.7359 316.162 40.3727C316.3 38.4943 316.691 36.6544 316.972 34.7925C314.636 40.5545 311.737 46.9776 310.332 47.1759C307.774 47.5395 290.724 49.9412 290.845 50.7455C291.038 52.0621 291.754 54.1223 292.338 55.6592C292.779 56.8215 292.911 56.794 292.911 56.794C292.911 56.794 311.979 53.8469 312.988 52.8443C313.385 52.4477 315.043 50.7345 316.901 48.8065C316.873 48.6798 316.862 48.542 316.862 48.3988C316.857 48.0518 316.862 47.6937 316.868 47.3412Z" fill="#F5C65D"/>
<path d="M351.57 65.8391C351.069 65.9437 348.164 66.5056 347.993 66.0043C347.977 65.9547 347.938 65.8115 347.878 65.5967C347.448 67.2327 346.478 71.0723 346.671 71.524C346.919 72.1024 347.327 73.744 347.575 72.9232C347.823 72.1024 348.396 69.7116 348.396 69.7116C348.396 69.7116 349.63 71.1108 349.878 72.6753C350.126 74.2397 350.093 78.1233 350.534 76.7902C350.782 76.0521 350.782 74.405 351.272 73.5787C351.768 72.7579 352.672 70.7803 352.59 69.1332C352.551 68.1141 351.989 66.7315 351.57 65.8391Z" fill="#CE8060"/>
<path d="M349.917 53.5826C348.638 50.4757 344.891 37.1338 343.519 32.9307C342.147 28.7276 337.76 23.4283 335.655 22.4203C335.126 22.1669 334.608 22.0402 334.123 21.9961C333.913 22.277 333.891 22.6626 333.836 22.9821C333.753 23.4779 332.85 24.1334 332.85 24.1334C332.85 24.1334 332.436 25.7805 331.78 25.1195C331.439 24.778 331.279 24.2877 331.13 23.8139C328.672 26.0394 323.569 30.5069 322.676 30.0938C321.486 29.5429 325.548 25.4114 325.548 25.4114L325.255 24.4199C324.429 24.9873 323.448 25.439 322.384 25.472C321.905 25.4886 321.469 25.1746 321.332 24.7174C321.299 24.6072 321.266 24.4915 321.221 24.3703C320.61 24.7724 320.092 25.4555 319.651 26.2763C318.146 29.1022 318.378 33.0134 318.378 33.0134C318.378 33.0134 316.548 40.0479 317.375 43.612C317.579 44.4989 317.766 45.9917 317.931 47.7324C318.433 52.9877 318.742 60.518 318.742 60.518C318.742 60.518 318.968 60.4739 319.337 60.4078C320.72 60.1599 324.242 59.565 326.694 59.4218C329.356 59.2675 338.096 62.5176 340.796 63.063C341.254 63.1566 341.54 63.1732 341.595 63.0795C341.959 62.4405 337.479 53.4835 336.294 50.9275C335.109 48.3714 337.572 41.2433 337.572 41.2433C337.572 41.2433 341.232 47.9142 343.15 51.1147C344.891 54.0178 347.31 63.4706 347.883 65.6025C347.938 65.8173 347.983 65.9605 347.999 66.0101C348.164 66.5114 351.069 65.944 351.576 65.8448C351.625 65.8338 351.658 65.8283 351.658 65.8283C351.658 65.8283 351.195 56.6895 349.917 53.5826Z" fill="#F5C65D"/>
<path d="M334.486 133.634C334.486 133.634 332.673 133.596 330.799 133.43C328.799 133.249 326.732 132.924 326.71 132.329C326.71 132.329 324.814 133.827 322.538 134.714C321.839 134.984 321.095 135.193 320.395 135.391C318.896 135.816 317.573 136.201 317.176 137.094C315.986 139.776 334.607 139.628 335.649 138.581C336.696 137.54 334.486 133.634 334.486 133.634Z" fill="#F5C65D"/>
<path d="M326.556 130.814C326.49 130.356 326.407 129.839 326.303 129.271L321.629 128.483H321.618C321.618 128.483 319.723 129.982 317.447 130.869C315.248 131.722 312.669 131.932 312.084 133.254C311.495 134.587 315.793 135.22 320.395 135.391C321.095 135.193 321.839 134.984 322.539 134.714C324.815 133.832 326.71 132.328 326.71 132.328C326.699 131.948 326.644 131.436 326.556 130.814Z" fill="#F5C65D"/>
<path d="M340.797 63.0684C339.579 62.8261 337.137 62.0273 334.575 61.2451C331.45 60.2866 328.154 59.3446 326.694 59.4327C324.242 59.576 320.72 60.1764 319.337 60.4188C319.337 60.4188 317.441 94.3189 317.441 99.767C317.441 102.598 319.982 123.212 321.629 128.489L326.303 129.277C326.402 129.844 326.49 130.362 326.556 130.819C326.644 131.442 326.7 131.954 326.711 132.334C326.727 132.929 328.799 133.254 330.8 133.436C332.673 133.607 334.486 133.64 334.486 133.64C334.486 133.64 336.096 114.613 333.715 97.6351C331.731 83.4945 338.399 74.3391 339.105 72.7692C341.204 68.0868 341.226 64.991 340.797 63.0684Z" fill="#DCEFFA"/>
<path d="M330.623 22.6571C330.595 22.624 330.579 22.591 330.551 22.5579C330.16 21.996 330.325 21.313 329.548 20.8502C329.383 20.7511 329.278 20.6519 329.19 20.5583L329.074 20.7125C328.86 20.6795 328.656 20.6244 328.452 20.5473C328.408 20.5252 328.358 20.5032 328.314 20.4812C328.187 20.4151 328.038 20.371 327.895 20.371C327.823 20.382 327.746 20.393 327.675 20.3985C327.564 20.4261 327.471 20.4756 327.394 20.5473C327.377 20.5583 327.366 20.5803 327.35 20.5913C327.068 20.0239 327.785 20.2333 326.942 19.4621C326.793 19.3243 326.6 19.1646 326.341 18.9553C324.368 17.3908 324.776 19.0379 324.368 17.3908C323.96 15.7437 324.947 14.3445 323.955 14.2619C323.646 14.2344 323.393 14.1958 323.183 14.1848C323.178 14.1683 323.178 14.1462 323.172 14.1297C323.112 13.9038 322.941 13.7166 322.737 13.6119C322.428 13.2153 321.954 13.0335 321.464 12.8737C320.935 12.703 320.4 12.5542 319.855 12.4275C319.524 12.3504 319.193 12.4551 318.984 12.725C318.951 12.7636 318.934 12.8131 318.912 12.8572C318.808 12.9288 318.719 13.0225 318.659 13.1381C318.642 13.1602 318.626 13.1767 318.604 13.1987C317.948 14.0195 317.948 13.6945 318.108 14.6806C318.273 15.6666 319.177 16.245 318.521 16.6527C317.92 17.0272 318.069 17.3247 317.915 17.1319C318.064 17.804 318.234 18.6358 318.356 19.451C318.631 21.2799 319.766 21.2909 319.766 21.2909C319.766 21.2909 319.766 21.2909 320.588 21.9299C321.067 22.3045 321.486 23.3622 321.75 24.183C321.789 24.3042 321.828 24.4198 321.861 24.53C321.998 24.9927 322.434 25.3012 322.913 25.2847C323.977 25.2461 324.958 24.7999 325.784 24.2325C325.884 24.1664 325.178 24.6181 325.272 24.5465L325.531 25.4224C325.531 25.4224 321.475 29.5594 322.66 30.1047C323.558 30.5179 328.656 26.0504 331.113 23.8249C330.987 23.3677 330.865 22.9325 330.623 22.6571Z" fill="#CE8060"/>
<path d="M327.603 20.5638C327.487 20.7621 327.526 21.0816 327.592 21.3956L328.072 20.7676C327.713 20.382 327.862 20.1011 327.603 20.5638Z" stroke="#54575C" stroke-miterlimit="10"/>
<path d="M329.493 22.8664C329.466 22.8333 329.449 22.8003 329.421 22.7672C329.03 22.2053 329.195 21.5223 328.418 21.0595C328.253 20.9604 328.148 20.8612 328.06 20.7676L327.581 21.3956C327.708 21.9795 327.939 22.5303 327.509 22.2108C327.3 22.0511 327.234 21.9685 327.206 21.8968C326.986 22.1778 326.633 22.602 326.176 23.0482C325.812 23.4062 325.376 23.7753 324.891 24.1113L325.184 25.1029C325.184 25.1029 320.339 29.7632 321.524 30.314C322.423 30.7272 327.52 26.2597 329.978 24.0342C329.857 23.5825 329.736 23.1473 329.493 22.8664Z" stroke="#54575C" stroke-miterlimit="10"/>
<path d="M326.694 20.8117C325.906 19.8092 327.041 20.2388 326.06 19.3409C325.911 19.2032 325.718 19.0435 325.459 18.8341C323.486 17.2697 323.894 18.9168 323.486 17.2697C323.078 15.6226 324.065 14.2234 323.073 14.1408C322.081 14.0582 321.59 13.8103 321.756 14.7963C321.921 15.7824 322.412 16.9337 321.838 16.6913C321.26 16.4434 321.26 15.7052 320.604 14.9616C319.948 14.2234 320.356 13.1492 319.866 12.7416C319.37 12.3284 319.37 13.32 318.962 13.5624C318.548 13.8103 319.866 14.6311 319.54 15.0442C319.21 15.4574 319.458 15.4574 318.719 14.6311C317.981 13.8103 318.389 12.2458 317.733 13.0666C317.077 13.8874 317.077 13.5624 317.237 14.5484C317.402 15.5345 318.306 16.1129 317.65 16.5205C317.049 16.8951 317.198 17.1926 317.044 16.9998C317.193 17.6718 317.364 18.5036 317.485 19.3189C317.76 21.1478 318.896 21.1588 318.896 21.1588C318.896 21.1588 318.896 21.1588 319.717 21.7978C320.196 22.1724 320.615 23.23 320.88 24.0508C320.918 24.172 320.957 24.2877 320.99 24.3979C321.128 24.8606 321.563 25.1691 322.042 25.1526C323.106 25.114 324.087 24.6678 324.914 24.1004C325.399 23.7644 325.828 23.3953 326.198 23.0372C326.655 22.591 327.008 22.1669 327.228 21.8859C327.168 21.7317 327.311 21.594 326.694 20.8117Z" stroke="#54575C" stroke-miterlimit="10"/>
<path d="M281.212 53.3732C281.625 53.3677 282.044 53.3512 282.441 53.3181C284.838 53.1253 284.667 52.266 284.667 52.266C284.667 52.266 283.361 51.9465 282.92 51.4176C282.479 50.8888 284.089 51.0651 285.18 50.6354C286.271 50.2057 287.538 50.3379 288.839 50.7346C289.203 50.8447 289.484 50.9163 289.704 50.9604C289.897 52.277 290.614 54.3372 291.198 55.8741C290.294 56.0449 289.28 56.3148 288.613 56.7224C287.169 57.6038 284.441 58.006 283.284 57.9839C282.127 57.9619 277.597 54.1058 277.718 53.8579C277.768 53.7533 277.85 53.5109 278.478 53.4448M281.212 53.3732C281.631 53.5825 281.691 54.2766 281.631 54.519C281.548 54.844 282.165 56.0339 282.165 56.0339M281.212 53.3732C281.008 53.3787 280.804 53.3787 280.606 53.3842M280.606 53.3842C279.636 53.7533 280.936 56.5737 281.052 56.7114M280.606 53.3842C279.774 53.3952 278.997 53.3897 278.478 53.4448M278.478 53.4448C279.079 53.3952 280.253 54.6512 280.253 54.6512M282.865 54.4143C283.94 53.8524 283.433 55.0974 283.466 55.5601C283.499 56.0228 284.177 56.8436 284.37 56.9428M282.865 54.4143C281.791 54.9762 282.601 57.5542 282.711 57.7911C282.601 57.5598 281.791 54.9762 282.865 54.4143Z" stroke="#54575C" stroke-miterlimit="10"/>
<path d="M319.303 25.9678C319.303 25.9678 311.759 47.0328 309.196 47.3964C306.639 47.7599 289.588 50.1617 289.709 50.966C289.902 52.2825 290.619 54.3428 291.203 55.8797C291.644 57.042 291.776 57.0145 291.776 57.0145C291.776 57.0145 310.844 54.0673 311.852 53.0648C312.321 52.5965 314.558 50.2829 316.801 47.9527C316.636 46.212 316.448 44.7192 316.245 43.8323C315.423 40.2682 317.248 33.2337 317.248 33.2337C317.248 33.2337 317.799 28.7937 319.303 25.9678Z" stroke="#54575C" stroke-miterlimit="10"/>
<path d="M337.478 13.5679C337.974 13.32 336.409 11.1 336.161 10.2792C335.913 9.45841 336.74 9.78342 336.657 9.04526C336.575 8.30711 335.506 7.56344 334.354 6.90791C333.202 6.25238 335.092 7.07317 336.25 6.74265C337.401 6.41214 334.85 5.01294 332.298 4.27478C329.747 3.53663 330.485 3.86164 330.325 2.87559C330.165 1.88954 329.008 1.4764 328.187 1.72429C327.366 1.97217 326.953 2.71033 325.47 1.72429C323.988 0.738239 323.332 1.97217 322.423 3.20611C321.519 4.44004 321.927 3.70189 321.354 4.10952C320.775 4.52267 320.119 3.37137 319.623 4.0269C319.127 4.68242 316.576 5.59135 315.506 6.66002C314.437 7.7287 314.355 8.96263 314.189 9.87156C314.024 10.775 314.024 10.45 314.768 11.9263C315.506 13.4081 314.768 13.4081 315.506 14.642C316.245 15.876 315.506 14.642 316.002 15.2204C316.498 15.7989 316.741 16.6196 316.989 16.9502C317.011 16.9777 317.027 16.9997 317.044 17.0163C317.198 17.2091 317.049 16.9116 317.65 16.537C318.306 16.1239 317.402 15.551 317.237 14.5649C317.072 13.5789 317.072 13.9094 317.733 13.0831C318.389 12.2623 317.981 13.8213 318.719 14.6475C319.458 15.4683 319.215 15.4683 319.54 15.0607C319.871 14.6475 318.554 13.8268 318.962 13.5789C319.375 13.331 319.375 12.3449 319.866 12.7581C320.362 13.1712 319.948 14.2399 320.604 14.9781C321.26 15.7162 321.26 16.4599 321.838 16.7078C322.417 16.9557 321.921 15.8044 321.756 14.8128C321.59 13.8213 322.086 14.0746 323.073 14.1573C324.059 14.2399 323.073 15.6391 323.486 17.2862C323.9 18.9333 323.486 17.2862 325.459 18.8506C325.718 19.0545 325.911 19.2197 326.06 19.3574C327.041 20.2498 325.906 19.8257 326.694 20.8282C327.311 21.6105 327.162 21.7482 327.217 21.9079C327.239 21.9851 327.311 22.0677 327.52 22.2219C327.95 22.5414 327.713 21.9906 327.592 21.4066C327.526 21.0982 327.493 20.7787 327.603 20.5748C327.867 20.1121 327.719 20.3931 328.066 20.7787C328.154 20.8723 328.259 20.9715 328.424 21.0706C329.201 21.5389 329.03 22.2219 329.427 22.7783C329.449 22.8113 329.471 22.8444 329.499 22.8774C329.736 23.1584 329.862 23.5936 330 24.0398C330.149 24.5135 330.314 25.0093 330.65 25.3453C331.306 26.0008 331.72 24.3593 331.72 24.3593C331.72 24.3593 332.623 23.7037 332.706 23.208C332.761 22.8885 332.783 22.4974 332.993 22.2219C333.108 22.0732 333.268 21.952 333.527 21.8914C334.266 21.7261 334.431 21.1532 334.514 20.6575C334.596 20.1617 335.583 20.4096 335.831 20.0019C336.079 19.5888 335.092 18.6854 335.092 17.9472C335.092 17.2091 336.327 17.2917 335.996 16.548C335.665 15.8099 336.735 15.8099 337.313 15.7272C337.892 15.6446 337.065 14.9891 336.657 14.1628C336.244 13.32 336.983 13.8157 337.478 13.5679Z" fill="#54575C"/>
<path d="M350.44 66.0541C349.939 66.1588 347.034 66.7207 346.864 66.2194C346.847 66.1698 346.808 66.0266 346.748 65.8118C346.318 67.4478 345.348 71.2873 345.541 71.7391C345.789 72.3175 346.197 73.959 346.445 73.1383C346.693 72.3175 347.266 69.9267 347.266 69.9267C347.266 69.9267 348.5 71.3259 348.748 72.8904C348.996 74.4548 348.963 78.3384 349.404 77.0053C349.652 76.2672 349.652 74.6201 350.143 73.7938C350.639 72.973 351.542 70.9954 351.46 69.3483C351.421 68.3292 350.853 66.9465 350.44 66.0541Z" stroke="#54575C" stroke-miterlimit="10"/>
<path d="M348.781 53.7918C347.503 50.685 343.755 37.3431 342.383 33.14C341.011 28.9369 336.624 23.6376 334.519 22.6295C333.99 22.3761 333.472 22.2494 332.987 22.2053C332.778 22.4863 332.756 22.8719 332.701 23.1914C332.618 23.6871 331.714 24.3427 331.714 24.3427C331.714 24.3427 331.301 25.9898 330.645 25.3287C330.303 24.9872 330.143 24.4969 329.995 24.0232C327.537 26.2487 322.434 30.7162 321.541 30.303C320.351 29.7522 325.2 25.0918 325.2 25.0918L324.908 24.1003C324.081 24.6677 323.1 25.1194 322.037 25.1524C321.557 25.169 321.122 24.855 320.984 24.3978C320.951 24.2876 320.918 24.1719 320.874 24.0507C320.262 24.4528 319.744 25.1359 319.303 25.9567C317.799 28.7826 317.242 33.2226 317.242 33.2226C317.242 33.2226 315.413 40.2571 316.239 43.8212C316.443 44.7081 316.631 46.2009 316.796 47.9417C317.297 53.1969 317.606 60.7272 317.606 60.7272C317.606 60.7272 317.832 60.6831 318.201 60.617C319.584 60.3692 323.106 59.7742 325.558 59.631C328.22 59.4768 336.96 62.7269 339.661 63.2722C340.118 63.3659 340.405 63.3824 340.46 63.2887C340.824 62.6497 336.343 53.6927 335.158 51.1367C333.974 48.5807 336.437 41.4525 336.437 41.4525C336.437 41.4525 340.096 48.1235 342.014 51.324C343.755 54.227 346.175 63.6799 346.748 65.8117C346.803 66.0265 346.847 66.1697 346.864 66.2193C347.029 66.7206 349.933 66.1532 350.44 66.0541C350.49 66.0431 350.523 66.0375 350.523 66.0375C350.523 66.0375 350.06 56.8987 348.781 53.7918Z" stroke="#54575C" stroke-miterlimit="10"/>
<path d="M317.81 20.4536C317.81 20.2553 318.901 17.7819 318.405 16.5425" stroke="#54575C" stroke-miterlimit="10"/>
<path d="M318.89 21.1699C318.89 21.1699 320.34 20.9496 320.439 20.6521" stroke="#54575C" stroke-miterlimit="10"/>
<path d="M322.808 20.6023C322.808 20.6023 322.511 22.6295 320.284 22.3816" stroke="#54575C" stroke-miterlimit="10"/>
<path d="M321.447 18.2778C321.636 18.2778 321.789 18.1249 321.789 17.9363C321.789 17.7476 321.636 17.5947 321.447 17.5947C321.258 17.5947 321.105 17.7476 321.105 17.9363C321.105 18.1249 321.258 18.2778 321.447 18.2778Z" fill="#54575C"/>
<path d="M317.661 17.727C317.85 17.727 318.003 17.5741 318.003 17.3855C318.003 17.1969 317.85 17.0439 317.661 17.0439C317.473 17.0439 317.32 17.1969 317.32 17.3855C317.32 17.5741 317.473 17.727 317.661 17.727Z" fill="#54575C"/>
<path d="M333.356 133.849C333.356 133.849 331.543 133.81 329.669 133.645C327.669 133.463 325.602 133.138 325.58 132.543C325.58 132.543 323.685 134.042 321.409 134.929C320.709 135.199 319.965 135.408 319.265 135.606C317.766 136.03 316.443 136.416 316.046 137.308C314.856 139.991 333.477 139.842 334.519 138.796C335.561 137.749 333.356 133.849 333.356 133.849Z" stroke="#54575C" stroke-miterlimit="10"/>
<path d="M325.426 131.028C325.36 130.571 325.277 130.053 325.173 129.486L320.499 128.698H320.488C320.488 128.698 318.593 130.197 316.317 131.083C314.118 131.937 311.539 132.147 310.955 133.469C310.365 134.802 314.663 135.435 319.265 135.606C319.965 135.408 320.709 135.198 321.409 134.929C323.685 134.047 325.581 132.543 325.581 132.543C325.57 132.158 325.514 131.645 325.426 131.028Z" stroke="#54575C" stroke-miterlimit="10"/>
<path d="M339.666 63.2777C338.448 63.0353 336.007 62.2365 333.445 61.4543C330.32 60.4958 327.024 59.5538 325.564 59.642C323.112 59.7852 319.59 60.3856 318.207 60.628C318.207 60.628 316.311 94.5282 316.311 99.9762C316.311 102.808 318.852 123.421 320.499 128.698L325.173 129.486C325.272 130.053 325.36 130.571 325.426 131.028C325.514 131.651 325.569 132.163 325.58 132.543C325.597 133.138 327.669 133.463 329.67 133.645C331.543 133.816 333.356 133.849 333.356 133.849C333.356 133.849 334.966 114.822 332.585 97.8444C330.601 83.7037 337.269 74.5483 337.975 72.9784C340.074 68.296 340.096 65.2002 339.666 63.2777Z" stroke="#54575C" stroke-miterlimit="10"/>
<path d="M317.777 69.1665C318.025 70.8742 318.284 78.5753 318.284 97.8665C318.284 103.535 323.635 120.86 325.178 129.481C325.278 130.048 325.366 130.566 325.432 131.023C325.52 131.645 325.575 132.158 325.586 132.538" stroke="#54575C" stroke-miterlimit="10"/>
</svg>
