<svg width="422" height="281" viewBox="0 0 422 281" fill="none" xmlns="http://www.w3.org/2000/svg">
<path d="M390.853 14.8672H27.3835V244.637H390.853V14.8672Z" fill="white"/>
<path d="M394.445 16.7183H30.9756V246.488H394.445V16.7183Z" stroke="#54575C" stroke-miterlimit="10"/>
<path d="M216.712 112.882H197.802V132.372H216.712V112.882Z" stroke="#54575C" stroke-miterlimit="10"/>
<path d="M183.194 158.315H164.285V177.805H183.194V158.315Z" stroke="#54575C" stroke-miterlimit="10"/>
<path d="M183.194 184.487H164.285V203.977H183.194V184.487Z" stroke="#54575C" stroke-miterlimit="10"/>
<path d="M208.79 184.487H189.88V203.977H208.79V184.487Z" stroke="#54575C" stroke-miterlimit="10"/>
<path d="M180.832 96.3901H161.923V115.88H180.832V96.3901Z" stroke="#54575C" stroke-miterlimit="10"/>
<path d="M266.68 84.4879H247.771V103.978H266.68V84.4879Z" fill="#F2C35C"/>
<path d="M265.225 83.6544H246.315V103.144H265.225V83.6544Z" stroke="#54575C" stroke-miterlimit="10"/>
<path d="M288.992 83.6544H270.083V103.144H288.992V83.6544Z" stroke="#54575C" stroke-miterlimit="10"/>
<path d="M314.214 84.4879H295.305V103.978H314.214V84.4879Z" fill="#468FBA"/>
<path d="M312.759 83.6544H293.85V103.144H312.759V83.6544Z" stroke="#54575C" stroke-miterlimit="10"/>
<path d="M312.759 110.036H293.85V129.525H312.759V110.036Z" stroke="#54575C" stroke-miterlimit="10"/>
<path d="M288.619 110.869H269.709V130.359H288.619V110.869Z" fill="#F2C35C"/>
<path d="M287.164 110.036H268.254V129.525H287.164V110.036Z" stroke="#54575C" stroke-miterlimit="10"/>
<path d="M265.631 110.869H246.722V130.359H265.631V110.869Z" fill="#468FBA"/>
<path d="M264.176 110.036H245.267V129.525H264.176V110.036Z" stroke="#54575C" stroke-miterlimit="10"/>
<path d="M265.631 134.947H246.722V154.437H265.631V134.947Z" fill="#F2C35C"/>
<path d="M209.612 160.533H190.703V180.023H209.612V160.533Z" fill="#F2C35C"/>
<path d="M264.176 134.113H245.267V153.603H264.176V134.113Z" stroke="#54575C" stroke-miterlimit="10"/>
<path d="M287.367 134.113H268.458V153.603H287.367V134.113Z" stroke="#54575C" stroke-miterlimit="10"/>
<path d="M315.391 141.334H296.482V160.824H315.391V141.334Z" stroke="#54575C" stroke-miterlimit="10"/>
<path d="M340.831 177.921H321.922V197.41H340.831V177.921Z" fill="#F2C35C"/>
<path d="M212.939 80.5667H194.03V100.057H212.939V80.5667Z" fill="#F2C35C"/>
<path d="M147.43 54.6346H128.521V74.1245H147.43V54.6346Z" fill="#468FBA"/>
<path d="M148.489 53.907H129.58V73.3969H148.489V53.907Z" stroke="#54575C" stroke-miterlimit="10"/>
<path d="M111.802 89.0676H92.8921V108.558H111.802V89.0676Z" stroke="#54575C" stroke-miterlimit="10"/>
<path d="M168.171 142.057C168.171 140.821 162.607 145.742 161.954 146.426C162.671 146.368 163.386 146.56 163.984 146.971C164.983 146.079 168.171 143.148 168.171 142.057Z" fill="white"/>
<path d="M164.405 147.51C164.304 147.301 164.16 147.118 163.984 146.971C163.386 146.56 162.671 146.368 161.954 146.426C161.475 146.433 161.096 146.493 160.998 146.493C160.781 146.524 160.566 146.574 160.356 146.641C160.542 147.141 160.64 147.417 160.64 147.417C160.915 147.544 161.149 147.752 161.31 148.015C162.896 149.587 163.838 151.725 163.945 153.99C164.557 152.898 165.036 148.81 164.405 147.51Z" fill="white"/>
<path d="M152.988 155.63C151.805 152.928 150.866 150.929 150.866 150.929C151.477 152.54 152.185 154.11 152.988 155.63Z" fill="white"/>
<path d="M146.742 107.402C145.666 107.494 145.576 106.108 144.949 107.586C144.321 109.065 144.59 108.141 142.887 109.342C141.183 110.544 142.438 111.191 141.452 111.56C140.466 111.93 140.107 111.375 139.838 112.484C139.569 113.593 139.21 113.778 138.045 113.963C136.879 114.148 134.817 114.24 134.458 115.627C134.1 117.013 132.037 116.736 132.037 116.736C131.888 116.709 131.74 116.675 131.595 116.632C130.096 120.092 125.313 122.558 125.313 122.558C129.079 125.238 140.914 122.558 140.914 122.558C140.914 122.558 140.913 122.531 140.911 122.482C140.875 121.118 140.936 119.754 141.093 118.399C141.362 116.089 142.169 117.29 143.694 117.013C144.423 116.885 145.088 116.503 145.577 115.932C146.066 115.36 146.351 114.632 146.383 113.871C146.383 113.037 146.868 109.884 147.29 107.291C147.113 107.352 146.929 107.389 146.742 107.402Z" fill="white"/>
<path d="M144.703 94.3723C144.693 94.387 144.697 94.3915 144.703 94.3723V94.3723Z" fill="white"/>
<path d="M151.046 104.075C149.97 103.058 149.97 101.765 149.97 100.286C149.97 98.8073 148.715 98.9921 147.997 97.0514C147.28 95.1107 147.28 95.0183 145.756 94.4638C144.93 94.1635 144.736 94.3237 144.703 94.3725C144.693 94.3866 144.697 94.391 144.703 94.3725C144.728 94.2182 144.72 94.0602 144.68 93.9093C144.5 92.8927 142.08 92.3382 140.735 92.3382C139.39 92.3382 139.21 91.8762 137.686 91.3217C136.162 90.7671 134.996 92.3382 134.996 92.3382C128.272 92.8003 126.568 95.2955 124.954 96.5893C123.34 97.8831 124.954 98.6224 123.788 99.8238C122.623 101.025 122.354 100.656 123.699 102.781C125.044 104.907 123.43 103.983 122.981 105.738C122.533 107.494 122.981 108.511 125.402 109.62C127.823 110.729 125.761 111.468 126.747 113.871C127.734 116.274 127.913 114.518 129.347 115.534C130.033 116.025 130.792 116.396 131.595 116.632C131.74 116.675 131.888 116.71 132.037 116.736C132.037 116.736 134.1 117.013 134.458 115.627C134.817 114.241 136.879 114.148 138.045 113.963C139.21 113.778 139.569 113.594 139.838 112.485C140.107 111.376 140.466 111.93 141.452 111.561C142.438 111.191 141.183 110.544 142.886 109.343C144.59 108.141 144.321 109.065 144.949 107.587C145.576 106.108 145.666 107.494 146.742 107.402C146.929 107.39 147.113 107.352 147.29 107.292C147.698 107.147 147.728 106.979 149.163 107.402C151.046 107.956 151.315 106.478 151.315 106.478C151.536 106.104 151.63 105.664 151.581 105.229C151.533 104.793 151.344 104.387 151.046 104.075Z" fill="white"/>
<path d="M163.945 153.99C163.838 151.725 162.896 149.587 161.31 148.014C161.149 147.752 160.915 147.544 160.64 147.417C160.64 147.417 160.542 147.141 160.356 146.641C160.33 146.65 160.304 146.659 160.279 146.669C160.254 146.679 160.23 146.689 160.207 146.7C160.23 146.689 160.254 146.679 160.279 146.669C160.304 146.659 160.33 146.65 160.356 146.641C158.65 142.083 156.71 137.622 154.543 133.278C150.866 125.977 149.521 125.607 146.652 124.129C144.826 123.297 142.892 122.742 140.911 122.482C140.913 122.531 140.914 122.558 140.914 122.558C140.914 122.558 129.079 125.238 125.313 122.558C124.954 122.65 122.085 124.314 119.216 125.515C116.346 126.716 113.477 133.647 115.54 141.503C117.602 149.358 121.009 156.012 118.588 165.715C116.167 175.419 116.436 175.234 117.691 178.561C117.864 178.966 118.148 179.311 118.509 179.552C118.869 179.793 119.29 179.92 119.72 179.918C122.56 180.256 127.594 178.361 131.589 179.116C136.969 180.132 141.811 177.637 147.728 179.762C148.907 180.243 150.171 180.461 151.437 180.404C152.703 180.346 153.943 180.015 155.076 179.43C155.778 179.068 156.416 178.587 156.963 178.007C156.963 178.007 158.667 170.798 156.784 165.161C155.809 162.242 154.258 158.531 152.988 155.63C152.185 154.11 151.477 152.54 150.866 150.929C150.866 150.929 151.805 152.928 152.988 155.63C154.388 158.269 156.274 161.552 158.488 161.834C160.331 162.069 160.55 160.725 160.55 160.725C160.55 160.725 163.15 161.002 163.867 155.642C163.941 155.095 163.967 154.542 163.945 153.99Z" fill="white"/>
<path d="M119.014 271.758C119.014 271.758 116.227 274.791 118.873 277.291C120.473 278.803 126.639 276.673 131.224 273.427C132.619 272.394 133.88 271.179 134.975 269.815C135.196 269.548 135.353 269.232 135.433 268.891C135.514 268.551 135.515 268.195 135.438 267.854C135.36 267.512 135.206 267.195 134.987 266.926C134.768 266.658 134.491 266.446 134.178 266.309C132.863 265.758 131.484 265.389 130.076 265.21C129.701 267.863 129.061 270.47 128.166 272.988C127.268 275.178 119.014 271.758 119.014 271.758Z" fill="white"/>
<path d="M141.297 272.988C141.297 272.988 140.266 278.201 142.913 279.11C145.559 280.019 157.027 278.201 157.027 278.201C157.027 278.201 166.511 276.61 165.188 273.655C164.319 271.715 158.51 270.167 154.62 269.332C154.326 272.477 153.998 274.537 153.633 275.039C151.245 278.32 141.297 272.988 141.297 272.988Z" fill="white"/>
<path d="M155.076 179.43C153.943 180.015 152.703 180.347 151.437 180.404C150.171 180.461 148.907 180.243 147.728 179.763C141.811 177.637 136.969 180.132 131.589 179.116C127.594 178.361 122.56 180.256 119.72 179.918C119.126 184.969 118.598 192.794 119.933 198.985C122.085 208.966 117.333 251.938 117.333 251.938L119.014 271.758C119.014 271.758 127.268 275.178 128.166 272.988C129.061 270.47 129.701 267.864 130.076 265.21C133.554 244.638 134.533 199.164 134.533 199.164C134.533 199.164 138.91 204.496 139.706 216.8C140.502 229.104 142.491 252.481 142.491 252.481L141.297 272.988C141.297 272.988 151.245 278.32 153.633 275.039C153.998 274.537 154.326 272.477 154.62 269.332C156.245 251.926 156.816 201.219 156.816 196.703C156.816 193.662 156.039 185.951 155.076 179.43Z" fill="white"/>
<path d="M167.952 143.188C167.952 141.952 162.387 146.873 161.734 147.557C162.451 147.499 163.166 147.691 163.765 148.102C164.764 147.21 167.952 144.279 167.952 143.188Z" fill="#C77B46"/>
<path d="M164.186 148.641C164.085 148.432 163.941 148.249 163.765 148.102C163.166 147.691 162.451 147.499 161.734 147.557C161.256 147.564 160.876 147.624 160.779 147.624C160.561 147.655 160.346 147.705 160.136 147.772C160.322 148.272 160.42 148.548 160.42 148.548C160.696 148.675 160.929 148.883 161.091 149.146C162.676 150.718 163.618 152.856 163.725 155.121C164.338 154.029 164.817 149.941 164.186 148.641Z" fill="#C77B46"/>
<path d="M152.768 156.761C151.585 154.059 150.647 152.06 150.647 152.06C151.257 153.671 151.966 155.242 152.768 156.761Z" stroke="#54575C" stroke-miterlimit="10"/>
<path d="M146.522 108.533C145.446 108.625 145.357 107.239 144.729 108.718C144.101 110.196 144.37 109.272 142.667 110.473C140.963 111.675 142.219 112.322 141.232 112.691C140.246 113.061 139.887 112.507 139.618 113.616C139.349 114.725 138.991 114.909 137.825 115.094C136.659 115.279 134.597 115.371 134.239 116.758C133.88 118.144 131.818 117.867 131.818 117.867C131.668 117.841 131.52 117.806 131.375 117.763C129.877 121.223 125.093 123.689 125.093 123.689C128.859 126.369 140.694 123.689 140.694 123.689C140.694 123.689 140.693 123.662 140.691 123.613C140.655 122.249 140.716 120.885 140.874 119.53C141.143 117.22 141.95 118.421 143.474 118.144C144.203 118.016 144.868 117.634 145.357 117.063C145.847 116.491 146.131 115.764 146.164 115.002C146.164 114.168 146.648 111.015 147.071 108.423C146.893 108.483 146.709 108.52 146.522 108.533Z" fill="#C77B46"/>
<path d="M144.484 95.5034C144.474 95.518 144.478 95.5226 144.484 95.5034V95.5034Z" stroke="#54575C" stroke-miterlimit="10"/>
<path d="M150.826 105.206C149.751 104.189 149.751 102.895 149.751 101.417C149.751 99.938 148.495 100.123 147.778 98.1821C147.061 96.2414 147.061 96.149 145.536 95.5945C144.711 95.2942 144.517 95.4545 144.484 95.5033C144.474 95.5173 144.478 95.5218 144.484 95.5033C144.508 95.3489 144.5 95.1909 144.46 95.04C144.281 94.0234 141.86 93.469 140.515 93.469C139.17 93.469 138.991 93.0069 137.467 92.4524C135.943 91.8979 134.777 93.469 134.777 93.469C128.052 93.9311 126.349 96.4263 124.735 97.7201C123.121 99.0139 124.735 99.7532 123.569 100.955C122.404 102.156 122.135 101.786 123.48 103.912C124.824 106.037 123.211 105.113 122.762 106.869C122.314 108.625 122.762 109.642 125.183 110.751C127.604 111.86 125.542 112.599 126.528 115.002C127.514 117.404 127.694 115.649 129.128 116.665C129.814 117.156 130.573 117.527 131.375 117.763C131.521 117.806 131.669 117.84 131.818 117.866C131.818 117.866 133.88 118.144 134.239 116.758C134.598 115.371 136.66 115.279 137.825 115.094C138.991 114.909 139.35 114.724 139.619 113.615C139.888 112.506 140.246 113.061 141.233 112.691C142.219 112.322 140.964 111.675 142.667 110.473C144.371 109.272 144.102 110.196 144.729 108.717C145.357 107.239 145.447 108.625 146.523 108.533C146.709 108.52 146.894 108.483 147.071 108.422C147.479 108.278 147.509 108.11 148.944 108.533C150.826 109.087 151.095 107.608 151.095 107.608C151.317 107.234 151.411 106.795 151.362 106.359C151.313 105.924 151.125 105.518 150.826 105.206Z" fill="#54575C"/>
<path d="M163.725 155.121C163.618 152.856 162.676 150.718 161.091 149.146C160.929 148.883 160.696 148.675 160.42 148.548C160.42 148.548 160.322 148.272 160.136 147.772C160.11 147.781 160.085 147.79 160.06 147.8C160.035 147.81 160.011 147.82 159.988 147.831C160.011 147.82 160.035 147.81 160.06 147.8C160.085 147.79 160.11 147.781 160.136 147.772C158.431 143.214 156.49 138.753 154.323 134.409C150.647 127.108 149.302 126.738 146.433 125.26C144.606 124.428 142.672 123.873 140.691 123.613C140.693 123.662 140.694 123.689 140.694 123.689C140.694 123.689 128.859 126.369 125.093 123.689C124.735 123.781 121.865 125.445 118.996 126.646C116.127 127.847 113.258 134.779 115.32 142.634C117.382 150.489 120.789 157.143 118.369 166.847C115.948 176.55 116.217 176.365 117.472 179.692C117.645 180.098 117.929 180.442 118.289 180.683C118.65 180.924 119.071 181.051 119.5 181.049C122.341 181.387 127.374 179.492 131.37 180.247C136.749 181.263 141.591 178.768 147.509 180.894C148.687 181.374 149.951 181.592 151.217 181.535C152.483 181.478 153.724 181.146 154.857 180.561C155.559 180.199 156.197 179.718 156.744 179.138C156.744 179.138 158.448 171.929 156.565 166.292C155.59 163.373 154.038 159.662 152.768 156.761C151.966 155.242 151.257 153.672 150.647 152.06C150.647 152.06 151.585 154.059 152.768 156.761C154.169 159.4 156.055 162.683 158.268 162.965C160.111 163.2 160.331 161.856 160.331 161.856C160.331 161.856 162.931 162.133 163.648 156.773C163.722 156.226 163.747 155.673 163.725 155.121Z" fill="#F2C35C"/>
<path d="M118.795 272.889C118.795 272.889 116.007 275.922 118.654 278.423C120.254 279.934 126.42 277.804 131.004 274.558C132.4 273.525 133.66 272.311 134.755 270.946C134.976 270.68 135.134 270.363 135.214 270.023C135.294 269.682 135.296 269.326 135.218 268.985C135.141 268.644 134.986 268.326 134.767 268.058C134.548 267.789 134.271 267.578 133.958 267.44C132.644 266.889 131.265 266.52 129.857 266.341C129.481 268.995 128.841 271.601 127.947 274.119C127.048 276.31 118.795 272.889 118.795 272.889Z" fill="#54575C"/>
<path d="M141.078 274.119C141.078 274.119 140.047 279.332 142.693 280.241C145.34 281.15 156.808 279.332 156.808 279.332C156.808 279.332 166.291 277.741 164.968 274.786C164.099 272.846 158.29 271.298 154.4 270.463C154.107 273.608 153.779 275.668 153.413 276.17C151.026 279.451 141.078 274.119 141.078 274.119Z" fill="#54575C"/>
<path d="M154.857 180.561C153.724 181.146 152.483 181.478 151.217 181.535C149.951 181.592 148.687 181.374 147.509 180.894C141.591 178.768 136.749 181.263 131.37 180.247C127.374 179.492 122.341 181.387 119.5 181.049C118.907 186.1 118.379 193.925 119.713 200.116C121.865 210.097 117.113 253.07 117.113 253.07L118.795 272.889C118.795 272.889 127.048 276.31 127.947 274.119C128.841 271.601 129.481 268.995 129.857 266.341C133.335 245.769 134.313 200.295 134.313 200.295C134.313 200.295 138.69 205.627 139.486 217.931C140.282 230.235 142.272 253.613 142.272 253.613L141.078 274.119C141.078 274.119 151.026 279.451 153.413 276.17C153.779 275.668 154.107 273.608 154.4 270.463C156.026 253.057 156.597 202.35 156.597 197.835C156.597 194.793 155.82 187.082 154.857 180.561Z" fill="#468FBA"/>
<path d="M168.665 142.309C168.665 141.073 163.1 145.994 162.447 146.677C163.164 146.619 163.879 146.812 164.477 147.223C165.477 146.331 168.665 143.4 168.665 142.309Z" stroke="#54575C" stroke-miterlimit="10"/>
<path d="M164.899 147.761C164.798 147.553 164.654 147.369 164.477 147.223C163.879 146.812 163.164 146.62 162.447 146.677C161.969 146.684 161.589 146.745 161.492 146.745C161.274 146.776 161.059 146.825 160.849 146.892C161.035 147.392 161.133 147.669 161.133 147.669C161.409 147.795 161.642 148.003 161.804 148.266C163.389 149.839 164.331 151.976 164.438 154.241C165.051 153.15 165.53 149.062 164.899 147.761Z" stroke="#54575C" stroke-miterlimit="10"/>
<path d="M153.481 155.881C152.298 153.179 151.36 151.18 151.36 151.18C151.97 152.792 152.679 154.362 153.481 155.881Z" stroke="#54575C" stroke-miterlimit="10"/>
<path d="M147.235 107.653C146.159 107.746 146.07 106.359 145.442 107.838C144.815 109.317 145.084 108.393 143.38 109.594C141.676 110.795 142.932 111.442 141.945 111.812C140.959 112.182 140.6 111.627 140.331 112.736C140.062 113.845 139.704 114.03 138.538 114.215C137.373 114.4 135.31 114.492 134.952 115.878C134.593 117.264 132.531 116.987 132.531 116.987C132.381 116.961 132.234 116.926 132.088 116.883C130.59 120.343 125.806 122.809 125.806 122.809C129.572 125.489 141.407 122.809 141.407 122.809C141.407 122.809 141.406 122.783 141.404 122.733C141.368 121.37 141.429 120.005 141.587 118.651C141.856 116.34 142.663 117.542 144.187 117.264C144.916 117.136 145.581 116.755 146.07 116.183C146.56 115.611 146.844 114.884 146.877 114.122C146.877 113.289 147.361 110.136 147.784 107.543C147.606 107.604 147.422 107.641 147.235 107.653V107.653Z" stroke="#54575C" stroke-miterlimit="10"/>
<path d="M145.196 94.6239C145.187 94.6385 145.19 94.6431 145.196 94.6239V94.6239Z" stroke="#54575C" stroke-miterlimit="10"/>
<path d="M151.539 104.326C150.463 103.31 150.463 102.016 150.463 100.537C150.463 99.0585 149.208 99.2433 148.491 97.3026C147.774 95.3619 147.774 95.2695 146.249 94.715C145.424 94.4147 145.23 94.575 145.197 94.6237C145.187 94.6378 145.191 94.6423 145.197 94.6237C145.221 94.4694 145.213 94.3114 145.173 94.1605C144.994 93.1439 142.573 92.5895 141.228 92.5895C139.883 92.5895 139.704 92.1274 138.18 91.5729C136.655 91.0184 135.49 92.5895 135.49 92.5895C128.765 93.0516 127.062 95.5467 125.448 96.8405C123.834 98.1343 125.448 98.8737 124.282 100.075C123.116 101.276 122.847 100.907 124.192 103.032C125.537 105.158 123.923 104.234 123.475 105.99C123.027 107.745 123.475 108.762 125.896 109.871C128.317 110.98 126.255 111.719 127.241 114.122C128.227 116.525 128.406 114.769 129.841 115.786C130.527 116.276 131.286 116.647 132.088 116.883C132.234 116.926 132.382 116.961 132.531 116.987C132.531 116.987 134.593 117.264 134.952 115.878C135.311 114.492 137.373 114.399 138.538 114.215C139.704 114.03 140.063 113.845 140.332 112.736C140.601 111.627 140.959 112.181 141.946 111.812C142.932 111.442 141.677 110.795 143.38 109.594C145.084 108.392 144.815 109.317 145.442 107.838C146.07 106.359 146.16 107.745 147.236 107.653C147.422 107.641 147.606 107.604 147.784 107.543C148.192 107.398 148.222 107.231 149.656 107.653C151.539 108.208 151.808 106.729 151.808 106.729C152.03 106.355 152.124 105.915 152.075 105.48C152.026 105.044 151.838 104.638 151.539 104.326Z" fill="#54575C"/>
<path d="M164.438 154.241C164.331 151.976 163.389 149.839 161.804 148.266C161.642 148.003 161.409 147.795 161.133 147.669C161.133 147.669 161.035 147.392 160.849 146.892C160.823 146.901 160.798 146.911 160.773 146.92C160.748 146.93 160.724 146.941 160.701 146.951C160.724 146.941 160.748 146.93 160.773 146.92C160.798 146.911 160.823 146.901 160.849 146.892C159.144 142.334 157.203 137.874 155.036 133.529C151.36 126.228 150.015 125.859 147.146 124.38C145.319 123.548 143.385 122.993 141.404 122.733C141.406 122.783 141.407 122.809 141.407 122.809C141.407 122.809 129.572 125.489 125.806 122.809C125.447 122.902 122.578 124.565 119.709 125.766C116.84 126.968 113.971 133.899 116.033 141.754C118.095 149.609 121.502 156.263 119.081 165.967C116.661 175.67 116.93 175.486 118.185 178.813C118.358 179.218 118.642 179.562 119.002 179.803C119.363 180.045 119.783 180.172 120.213 180.17C123.053 180.507 128.087 178.612 132.082 179.367C137.462 180.384 142.304 177.888 148.222 180.014C149.4 180.494 150.664 180.713 151.93 180.655C153.196 180.598 154.437 180.266 155.57 179.681C156.272 179.319 156.91 178.838 157.457 178.258C157.457 178.258 159.16 171.05 157.278 165.412C156.303 162.494 154.751 158.782 153.481 155.881C152.679 154.362 151.97 152.792 151.36 151.18C151.36 151.18 152.298 153.179 153.481 155.881C154.882 158.52 156.767 161.804 158.981 162.085C160.824 162.32 161.043 160.976 161.043 160.976C161.043 160.976 163.644 161.254 164.361 155.894C164.434 155.346 164.46 154.793 164.438 154.241Z" stroke="#54575C" stroke-miterlimit="10"/>
<path d="M119.508 272.009C119.508 272.009 116.72 275.043 119.367 277.543C120.966 279.054 127.132 276.924 131.717 273.679C133.113 272.645 134.373 271.431 135.468 270.066C135.689 269.8 135.846 269.483 135.927 269.143C136.007 268.802 136.009 268.447 135.931 268.105C135.854 267.764 135.699 267.446 135.48 267.178C135.261 266.909 134.984 266.698 134.671 266.56C133.357 266.01 131.978 265.64 130.57 265.461C130.194 268.115 129.554 270.721 128.66 273.239C127.761 275.43 119.508 272.009 119.508 272.009Z" stroke="#54575C" stroke-miterlimit="10"/>
<path d="M141.791 273.239C141.791 273.239 140.76 278.452 143.406 279.361C146.053 280.271 157.521 278.452 157.521 278.452C157.521 278.452 167.004 276.861 165.681 273.906C164.813 271.966 159.003 270.418 155.113 269.584C154.82 272.728 154.492 274.788 154.127 275.29C151.739 278.571 141.791 273.239 141.791 273.239Z" stroke="#54575C" stroke-miterlimit="10"/>
<path d="M155.57 179.681C154.437 180.266 153.197 180.598 151.93 180.655C150.664 180.713 149.401 180.494 148.222 180.014C142.304 177.888 137.462 180.384 132.083 179.367C128.087 178.612 123.054 180.507 120.213 180.17C119.62 185.221 119.092 193.046 120.427 199.236C122.579 209.217 117.826 252.19 117.826 252.19L119.508 272.009V272.009C119.508 272.009 127.761 275.43 128.66 273.24C129.554 270.721 130.194 268.115 130.57 265.462V265.462C134.048 244.89 135.027 199.416 135.027 199.416C135.027 199.416 139.404 204.748 140.199 217.051C140.995 229.355 142.985 252.733 142.985 252.733L141.791 273.24C141.791 273.24 151.739 278.571 154.126 275.29C154.492 274.788 154.82 272.728 155.113 269.584C156.739 252.177 157.31 201.471 157.31 196.955C157.31 193.914 156.533 186.203 155.57 179.681Z" stroke="#54575C" stroke-miterlimit="10"/>
<path d="M161.044 160.977C161.044 160.977 163.398 152.879 160.701 146.951" stroke="#54575C" stroke-miterlimit="10"/>
<path d="M9.95522 182.523L17.7656 224.986C18.328 228.043 21.1888 230.052 24.1554 229.473L81.9746 218.175C84.9412 217.595 86.8902 214.646 86.3277 211.589L78.5174 169.126C77.955 166.068 75.0941 164.059 72.1276 164.639L14.3084 175.937C11.3418 176.517 9.39281 179.465 9.95522 182.523Z" fill="white"/>
<path d="M10.3544 181.073L18.1648 223.536C18.7272 226.593 21.588 228.602 24.5546 228.022L82.3738 216.724C85.3404 216.145 87.2893 213.196 86.7269 210.138L78.9166 167.676C78.3541 164.618 75.4933 162.609 72.5267 163.189L14.7075 174.487C11.741 175.066 9.79198 178.015 10.3544 181.073Z" stroke="#54575C" stroke-miterlimit="10"/>
<path d="M15.7231 179.442L24.0459 224.691L81.9954 213.368L73.6726 168.119L15.7231 179.442Z" fill="white"/>
<path d="M14.8366 178.243L23.1594 223.492L81.109 212.169L72.7861 166.92L14.8366 178.243Z" stroke="#54575C" stroke-miterlimit="10"/>
<path d="M67.798 172.501L20.5526 181.733C20.2496 181.792 19.9817 181.973 19.8081 182.235C19.6344 182.498 19.5691 182.821 19.6266 183.134L24.8723 211.653C24.9008 211.808 24.9585 211.956 25.0422 212.087C25.1259 212.219 25.234 212.332 25.3602 212.421C25.4865 212.51 25.6284 212.572 25.7779 212.604C25.9275 212.636 26.0817 212.637 26.2317 212.608L73.477 203.376C73.6271 203.347 73.7701 203.287 73.8979 203.201C74.0256 203.115 74.1356 203.003 74.2216 202.873C74.3076 202.743 74.3679 202.597 74.399 202.443C74.4302 202.289 74.4316 202.13 74.4031 201.975L69.1574 173.455C69.0999 173.143 68.9244 172.867 68.6695 172.688C68.4145 172.509 68.1011 172.442 67.798 172.501ZM53.808 192.327L48.4618 197.072L43.1155 201.818C42.9545 201.961 42.7598 202.057 42.5511 202.098C42.3424 202.139 42.1269 202.122 41.9263 202.05C41.7257 201.978 41.5472 201.852 41.4085 201.686C41.2699 201.52 41.1761 201.32 41.1365 201.105L39.8223 193.96L38.5081 186.815C38.4685 186.6 38.4846 186.378 38.5547 186.171C38.6248 185.964 38.7465 185.78 38.9075 185.637C39.0685 185.494 39.2631 185.398 39.4719 185.357C39.6806 185.316 39.8961 185.333 40.0967 185.405L46.7571 187.804L53.4176 190.204C53.6182 190.276 53.7967 190.401 53.9354 190.567C54.074 190.733 54.1678 190.934 54.2074 191.149C54.247 191.364 54.2309 191.586 54.1608 191.793C54.0907 192 53.969 192.184 53.808 192.327Z" fill="#468FBA"/>
<path d="M68.4601 171.577L21.2148 180.808C20.9117 180.868 20.6439 181.049 20.4702 181.311C20.2965 181.574 20.2312 181.897 20.2887 182.21L25.5344 210.729C25.5919 211.042 25.7674 211.318 26.0223 211.497C26.2773 211.676 26.5908 211.743 26.8938 211.684L74.1391 202.452C74.2892 202.423 74.4322 202.363 74.56 202.277C74.6877 202.191 74.7977 202.079 74.8837 201.949C74.9697 201.819 75.03 201.673 75.0612 201.519C75.0923 201.365 75.0937 201.206 75.0652 201.051L69.8195 172.531C69.762 172.219 69.5865 171.943 69.3316 171.764C69.0767 171.585 68.7632 171.517 68.4601 171.577ZM54.4701 191.402L49.1239 196.148L43.7776 200.894C43.6166 201.036 43.422 201.133 43.2132 201.174C43.0045 201.215 42.789 201.198 42.5884 201.126C42.3879 201.054 42.2093 200.928 42.0706 200.762C41.932 200.596 41.8382 200.396 41.7986 200.181L40.4844 193.036L39.1702 185.891C39.1306 185.676 39.1467 185.454 39.2168 185.247C39.2869 185.04 39.4086 184.856 39.5696 184.713C39.7305 184.57 39.9252 184.473 40.1339 184.433C40.3427 184.392 40.5582 184.408 40.7587 184.481L47.4192 186.88L54.0797 189.28C54.2802 189.352 54.4588 189.477 54.5975 189.643C54.7361 189.809 54.8299 190.01 54.8695 190.225C54.9091 190.44 54.893 190.662 54.8229 190.869C54.7528 191.075 54.6311 191.26 54.4701 191.402Z" stroke="#54575C" stroke-miterlimit="10"/>
<path d="M27.376 216.622L74.9878 207.319" stroke="#54575C" stroke-miterlimit="10"/>
<path d="M42.3678 215.095C43.174 215.095 43.8275 214.422 43.8275 213.591C43.8275 212.76 43.174 212.086 42.3678 212.086C41.5617 212.086 40.9082 212.76 40.9082 213.591C40.9082 214.422 41.5617 215.095 42.3678 215.095Z" fill="white"/>
<path d="M43.2421 214.924C44.0482 214.924 44.7017 214.251 44.7017 213.42C44.7017 212.589 44.0482 211.916 43.2421 211.916C42.436 211.916 41.7825 212.589 41.7825 213.42C41.7825 214.251 42.436 214.924 43.2421 214.924Z" fill="white"/>
<path d="M42.79 215.013C43.5961 215.013 44.2496 214.339 44.2496 213.509C44.2496 212.678 43.5961 212.004 42.79 212.004C41.9838 212.004 41.3303 212.678 41.3303 213.509C41.3303 214.339 41.9838 215.013 42.79 215.013Z" stroke="#54575C" stroke-miterlimit="10"/>
<path d="M34.0632 126.643L69.5605 105.338L38.7145 50.7398L34.0906 49.4817L1.51562 69.0326L34.0632 126.643Z" fill="white"/>
<path d="M33.9309 126.722L69.4282 105.418L38.5822 50.8191L33.9583 49.561L1.3833 69.112L33.9309 126.722Z" stroke="#54575C" stroke-miterlimit="10"/>
<path d="M33.9583 49.561L35.8091 52.8376L38.7313 51.0837" stroke="#54575C" stroke-miterlimit="10"/>
<path d="M9.98438 74.9181L36.0775 59.2576" stroke="#54575C" stroke-miterlimit="10"/>
<path d="M12.718 79.757L38.8112 64.0964" stroke="#54575C" stroke-miterlimit="10"/>
<path d="M15.4519 84.5959L41.545 68.9353" stroke="#54575C" stroke-miterlimit="10"/>
<path d="M18.1855 89.4346L44.2787 73.774" stroke="#54575C" stroke-miterlimit="10"/>
<path d="M20.9192 94.2737L47.0124 78.6132" stroke="#54575C" stroke-miterlimit="10"/>
<path d="M23.6531 99.1122L49.7462 83.4517" stroke="#54575C" stroke-miterlimit="10"/>
<path d="M26.3867 103.951L52.4799 88.2905" stroke="#54575C" stroke-miterlimit="10"/>
<path d="M29.1204 108.79L55.2135 93.1294" stroke="#54575C" stroke-miterlimit="10"/>
<path d="M31.8542 113.629L57.9474 97.9683" stroke="#54575C" stroke-miterlimit="10"/>
<path d="M34.5879 118.468L60.681 102.807" stroke="#54575C" stroke-miterlimit="10"/>
<path d="M338.411 179.347H319.501V198.837H338.411V179.347Z" stroke="#54575C" stroke-miterlimit="10"/>
<path d="M208.586 158.525H189.677V178.015H208.586V158.525Z" stroke="#54575C" stroke-miterlimit="10"/>
<path d="M226.785 215.862C225.511 217.395 224.315 218.996 223.202 220.657C225.623 221.071 230.184 221.738 233.37 222.195C231.233 218.482 226.785 215.862 226.785 215.862Z" fill="white"/>
<path d="M227.534 175.914C227.4 175.8 227.258 175.698 227.108 175.609C227.249 176.779 227.268 177.962 227.165 179.136C227.325 178.529 227.55 177.943 227.837 177.388C228.154 176.815 228.185 176.762 228.579 176.925C228.244 176.575 227.892 176.231 227.534 175.914Z" fill="white"/>
<path d="M223.431 169.886C225.77 170.951 226.787 173.159 227.108 175.609C227.258 175.698 227.4 175.8 227.533 175.914C227.892 176.231 228.244 176.575 228.578 176.924C229.902 177.497 231.31 177.837 232.743 177.93C237.65 178.471 235.547 181.903 235.547 181.903C235.955 181.946 236.352 182.068 236.717 182.262C238.222 180.675 241.222 178.219 239.229 175.284C236.785 171.685 219.678 166.918 219.678 166.918C219.678 166.918 214.616 156.392 213.83 157.202C213.045 158.012 214.528 160.71 214.267 160.35C214.005 159.991 210.775 154.683 210.339 155.403C209.903 156.122 212.172 160.171 212.172 160.171C212.172 160.171 208.593 155.133 208.157 155.583C207.721 156.032 209.903 160.62 209.903 160.62C209.903 160.62 207.197 157.292 206.76 158.461C206.324 159.631 211.124 164.759 211.474 165.838C211.823 166.918 211.124 166.648 207.197 166.288C203.269 165.928 204.928 168.152 206.673 168.357C208.296 168.589 209.886 169.02 211.409 169.642C212.015 169.227 212.649 168.858 213.307 168.537C219.154 165.658 220.039 168.342 223.431 169.886Z" fill="white"/>
<path d="M225.208 194.728C228.362 191.838 230.465 186.238 230.465 186.238C232.025 182.541 227.894 181.133 226.966 180.868C226.759 182.228 226.459 183.571 226.07 184.888C226.135 185.687 226.039 186.49 225.788 187.248C225.781 188.51 225.839 189.771 225.962 191.027C226.072 191.704 224.151 192.949 221.994 193.27C222.656 194.12 223.409 195.096 224.027 195.919C224.416 195.49 224.812 195.091 225.208 194.728Z" fill="white"/>
<path d="M227.108 175.609C226.787 173.159 225.77 170.951 223.431 169.886C220.039 168.342 219.155 165.658 213.307 168.537C212.649 168.858 212.015 169.227 211.41 169.642C207.359 172.437 207.083 176.039 208.157 178.252C209.379 180.771 210.252 183.56 213.132 185.899C215.61 187.912 214.926 188.392 217.576 188.716C217.988 187.796 218.492 186.855 218.456 185.899C218.378 183.791 219.647 182.487 222.518 182.448C222.833 182.444 223.165 182.454 223.519 182.481C225.357 182.619 225.95 183.755 226.07 184.888C226.459 183.571 226.759 182.228 226.966 180.868C227.014 180.548 227.057 180.22 227.094 179.887C227.122 179.639 227.145 179.389 227.165 179.136C227.268 177.962 227.249 176.779 227.108 175.609Z" fill="white"/>
<path d="M225.788 187.249C226.039 186.491 226.135 185.687 226.07 184.889C225.95 183.756 225.357 182.619 223.518 182.481C223.165 182.454 222.833 182.444 222.518 182.448C219.647 182.488 218.378 183.791 218.456 185.899C218.492 186.855 217.988 187.797 217.576 188.717C216.981 190.047 216.579 191.333 218.282 192.556C219.387 193.269 220.713 193.524 221.994 193.27C224.151 192.949 226.072 191.705 225.962 191.027C225.839 189.772 225.781 188.51 225.788 187.249Z" fill="white"/>
<path d="M255 216.223C252.196 210.804 246.763 195.451 243.433 190.212C240.701 185.914 238.559 183.199 236.717 182.262C236.352 182.068 235.955 181.946 235.547 181.903C235.547 181.903 237.65 178.472 232.743 177.93C231.31 177.837 229.902 177.497 228.578 176.925C228.185 176.762 228.154 176.815 227.836 177.388C227.55 177.943 227.325 178.529 227.165 179.136C227.145 179.389 227.122 179.639 227.094 179.887C227.057 180.22 227.013 180.548 226.965 180.868C227.893 181.133 232.025 182.541 230.465 186.239C230.465 186.239 228.362 191.838 225.207 194.728C224.812 195.091 224.416 195.491 224.027 195.919C221.316 198.905 218.943 203.287 219.249 206.288C219.6 209.72 220.301 210.623 218.373 214.055C217.445 215.721 216.425 217.329 215.318 218.873C218.337 219.439 220.959 220.222 222.035 220.444C222.319 220.502 222.718 220.575 223.202 220.658C224.315 218.996 225.511 217.395 226.785 215.862C226.785 215.862 231.233 218.482 233.37 222.195C233.905 223.09 234.265 224.084 234.428 225.122C234.801 227.775 232.508 229.26 232.508 229.26C232.508 229.26 247.219 228.914 256.128 232.602C256.714 232.845 257.274 233.104 257.804 233.383C257.804 233.383 257.804 221.642 255 216.223Z" fill="white"/>
<path d="M237.413 258.846C238.241 259.552 238.97 260.373 239.578 261.285C240.189 262.545 236.873 264.164 235.563 266.233C234.254 268.302 238.444 268.482 242.284 268.842C246.124 269.202 249.615 252.919 249.179 249.77C248.913 247.853 245.539 247.17 242.942 246.929C241.985 247.837 239.025 254.99 237.413 258.846Z" fill="white"/>
<path d="M217.409 256.787C212.696 258.137 215.489 259.396 215.489 259.396C218.332 260.955 224.32 259.229 227.727 258.023C225.526 257.107 223.071 256.046 220.57 254.904C219.712 255.83 218.615 256.484 217.409 256.787Z" fill="white"/>
<path d="M256.128 232.602C247.22 228.914 232.508 229.26 232.508 229.26C232.508 229.26 234.801 227.775 234.429 225.121C234.265 224.084 233.905 223.09 233.37 222.195C230.185 221.738 225.623 221.071 223.202 220.657C222.718 220.575 222.319 220.502 222.035 220.443C220.959 220.222 218.337 219.439 215.318 218.873C210.988 218.062 205.841 217.698 203.269 220.084C201.713 221.528 200.009 223.296 200.04 224.941C200.105 228.399 203.706 231.509 203.706 231.509C203.706 231.509 199.95 232.462 199.08 235.377C198.491 237.351 200.107 241.271 202.222 243.923C204.776 247.126 212.893 251.398 220.57 254.903C223.072 256.046 225.527 257.107 227.727 258.023C232.621 260.06 236.256 261.381 236.349 261.285C236.418 261.214 236.826 260.248 237.412 258.846C239.025 254.99 241.985 247.837 242.941 246.929C242.955 246.916 242.969 246.902 242.982 246.892C244.164 245.935 258.65 248.847 256.128 232.602Z" fill="white"/>
<path d="M224.732 169.986C227.07 171.05 228.087 173.259 228.409 175.709C228.558 175.798 228.7 175.9 228.834 176.013C229.193 176.33 229.544 176.675 229.879 177.024C231.203 177.597 232.611 177.937 234.044 178.029C238.951 178.571 236.848 182.003 236.848 182.003C237.256 182.046 237.653 182.167 238.017 182.362C239.523 180.775 242.523 178.319 240.529 175.384C238.085 171.785 220.978 167.017 220.978 167.017C220.978 167.017 215.916 156.492 215.131 157.302C214.345 158.111 215.829 160.81 215.567 160.45C215.305 160.09 212.076 154.783 211.639 155.502C211.203 156.222 213.472 160.27 213.472 160.27C213.472 160.27 209.894 155.233 209.457 155.682C209.021 156.132 211.203 160.72 211.203 160.72C211.203 160.72 208.497 157.392 208.061 158.561C207.625 159.731 212.425 164.858 212.774 165.938C213.123 167.017 212.425 166.747 208.497 166.388C204.57 166.028 206.229 168.252 207.974 168.457C209.597 168.689 211.187 169.12 212.71 169.742C213.316 169.327 213.95 168.957 214.607 168.637C220.455 165.758 221.339 168.442 224.732 169.986Z" fill="#E8A576"/>
<path d="M226.508 194.828C229.663 191.938 231.766 186.338 231.766 186.338C233.325 182.641 229.194 181.233 228.266 180.968C228.059 182.328 227.76 183.671 227.37 184.988C227.436 185.787 227.34 186.59 227.088 187.348C227.081 188.61 227.139 189.871 227.263 191.127C227.372 191.804 225.452 193.049 223.294 193.37C223.956 194.22 224.709 195.196 225.327 196.019C225.716 195.59 226.112 195.191 226.508 194.828Z" fill="#E8A576"/>
<path d="M228.409 175.709C228.087 173.259 227.07 171.05 224.732 169.986C221.339 168.442 220.455 165.758 214.607 168.636C213.95 168.957 213.316 169.327 212.71 169.742C208.659 172.536 208.384 176.139 209.457 178.352C210.679 180.871 211.552 183.66 214.432 185.999C216.911 188.011 216.226 188.492 218.877 188.816C219.288 187.896 219.792 186.955 219.757 185.999C219.678 183.891 220.947 182.587 223.818 182.548C224.133 182.543 224.466 182.554 224.819 182.58C226.658 182.719 227.251 183.855 227.37 184.988C227.76 183.671 228.059 182.328 228.266 180.967C228.314 180.647 228.357 180.32 228.394 179.987C228.422 179.739 228.446 179.489 228.466 179.235C228.568 178.061 228.549 176.879 228.409 175.709Z" fill="#8F5D40"/>
<path d="M227.088 187.348C227.34 186.59 227.436 185.787 227.37 184.988C227.251 183.855 226.658 182.719 224.819 182.58C224.466 182.554 224.133 182.544 223.819 182.548C220.947 182.587 219.678 183.891 219.757 185.999C219.792 186.955 219.289 187.896 218.877 188.816C218.282 190.147 217.879 191.433 219.582 192.656C220.688 193.368 222.014 193.624 223.295 193.37C225.452 193.049 227.372 191.804 227.263 191.127C227.139 189.871 227.081 188.61 227.088 187.348Z" fill="#8F5D40"/>
<path d="M256.3 216.323C253.496 210.904 248.064 195.55 244.734 190.312C242.002 186.014 239.86 183.298 238.017 182.362C237.653 182.167 237.256 182.046 236.848 182.003C236.848 182.003 238.951 178.571 234.044 178.029C232.611 177.937 231.203 177.597 229.879 177.024C229.485 176.862 229.454 176.915 229.137 177.487C228.85 178.042 228.625 178.629 228.466 179.236C228.446 179.488 228.422 179.739 228.394 179.987C228.357 180.32 228.314 180.647 228.266 180.968C229.194 181.233 233.325 182.641 231.765 186.338C231.765 186.338 229.662 191.938 226.508 194.828C226.112 195.191 225.716 195.59 225.327 196.019C222.617 199.004 220.243 203.387 220.55 206.388C220.9 209.82 221.601 210.723 219.673 214.155C218.746 215.82 217.726 217.429 216.619 218.973C219.637 219.539 222.26 220.322 223.335 220.543C223.62 220.602 224.018 220.675 224.502 220.757C225.615 219.096 226.811 217.495 228.085 215.961C228.085 215.961 232.533 218.582 234.67 222.295C235.206 223.19 235.565 224.184 235.729 225.221C236.101 227.875 233.809 229.359 233.809 229.359C233.809 229.359 248.52 229.014 257.429 232.702C258.014 232.944 258.575 233.204 259.104 233.482C259.104 233.483 259.104 221.742 256.3 216.323Z" fill="#468FBA"/>
<path d="M238.713 258.946C239.541 259.652 240.27 260.472 240.879 261.385C241.489 262.645 238.173 264.264 236.864 266.333C235.554 268.402 239.744 268.582 243.584 268.942C247.425 269.302 250.916 253.019 250.479 249.87C250.213 247.952 246.839 247.27 244.242 247.029C243.286 247.937 240.326 255.09 238.713 258.946Z" fill="#54575C"/>
<path d="M218.709 256.887C213.996 258.236 216.789 259.496 216.789 259.496C219.633 261.055 225.62 259.329 229.028 258.123C226.827 257.207 224.372 256.146 221.87 255.003C221.013 255.93 219.916 256.584 218.709 256.887Z" fill="#54575C"/>
<path d="M257.429 232.702C248.52 229.014 233.809 229.36 233.809 229.36C233.809 229.36 236.102 227.875 235.729 225.221C235.565 224.184 235.206 223.19 234.67 222.295C231.485 221.838 226.924 221.171 224.502 220.757C224.019 220.675 223.62 220.602 223.335 220.544C222.26 220.322 219.638 219.539 216.619 218.973C212.288 218.162 207.141 217.798 204.57 220.184C203.013 221.628 201.31 223.396 201.341 225.042C201.406 228.499 205.006 231.609 205.006 231.609C205.006 231.609 201.25 232.562 200.381 235.477C199.791 237.451 201.408 241.371 203.523 244.023C206.076 247.226 214.193 251.498 221.87 255.003C224.372 256.146 226.827 257.207 229.028 258.123C233.921 260.16 237.557 261.481 237.649 261.385C237.718 261.314 238.127 260.348 238.713 258.946C240.326 255.09 243.286 247.937 244.242 247.029C244.256 247.016 244.27 247.002 244.283 246.992C245.464 246.035 259.951 248.947 257.429 232.702Z" fill="#F2C35C"/>
<path d="M223.003 169.877C225.341 170.942 226.358 173.151 226.68 175.601C226.829 175.69 226.971 175.791 227.105 175.905C227.464 176.222 227.815 176.566 228.15 176.916C229.474 177.488 230.882 177.828 232.315 177.921C237.222 178.463 235.119 181.895 235.119 181.895C235.527 181.937 235.924 182.059 236.288 182.253C237.794 180.666 240.794 178.21 238.8 175.275C236.356 171.677 219.25 166.909 219.25 166.909C219.25 166.909 214.187 156.383 213.402 157.193C212.616 158.003 214.1 160.702 213.838 160.342C213.576 159.982 210.347 154.674 209.91 155.394C209.474 156.114 211.743 160.162 211.743 160.162C211.743 160.162 208.165 155.124 207.728 155.574C207.292 156.024 209.474 160.612 209.474 160.612C209.474 160.612 206.768 157.283 206.332 158.453C205.896 159.622 210.696 164.75 211.045 165.829C211.394 166.909 210.696 166.639 206.768 166.279C202.841 165.919 204.5 168.143 206.245 168.348C207.868 168.58 209.458 169.011 210.981 169.633C211.587 169.218 212.221 168.849 212.878 168.528C218.726 165.649 219.61 168.334 223.003 169.877Z" stroke="#54575C" stroke-miterlimit="10"/>
<path d="M224.779 194.719C227.934 191.829 230.037 186.23 230.037 186.23C231.596 182.532 227.465 181.124 226.537 180.859C226.33 182.219 226.031 183.563 225.641 184.88C225.707 185.678 225.611 186.482 225.359 187.24C225.352 188.501 225.41 189.763 225.534 191.018C225.643 191.696 223.723 192.94 221.565 193.261C222.227 194.112 222.98 195.087 223.598 195.91C223.987 195.482 224.383 195.082 224.779 194.719Z" stroke="#54575C" stroke-miterlimit="10"/>
<path d="M226.68 175.601C226.358 173.151 225.342 170.942 223.003 169.877C219.611 168.334 218.726 165.649 212.878 168.528C212.221 168.849 211.587 169.218 210.981 169.633C206.931 172.428 206.655 176.03 207.729 178.244C208.951 180.763 209.823 183.551 212.704 185.89C215.182 187.903 214.497 188.383 217.148 188.708C217.56 187.788 218.063 186.846 218.028 185.89C217.949 183.782 219.218 182.479 222.09 182.439C222.404 182.435 222.737 182.445 223.09 182.472C224.929 182.61 225.522 183.747 225.641 184.88C226.031 183.563 226.33 182.219 226.537 180.859C226.585 180.539 226.629 180.211 226.666 179.879C226.693 179.631 226.717 179.38 226.737 179.127C226.84 177.953 226.821 176.771 226.68 175.601V175.601Z" stroke="#54575C" stroke-miterlimit="10"/>
<path d="M225.359 187.24C225.61 186.481 225.707 185.678 225.641 184.88C225.522 183.747 224.929 182.61 223.09 182.472C222.737 182.445 222.404 182.435 222.089 182.439C219.218 182.478 217.949 183.782 218.028 185.89C218.063 186.846 217.559 187.787 217.148 188.707C216.552 190.038 216.15 191.324 217.853 192.547C218.959 193.26 220.285 193.515 221.565 193.261C223.723 192.94 225.643 191.696 225.534 191.018C225.41 189.762 225.352 188.501 225.359 187.24V187.24Z" stroke="#54575C" stroke-miterlimit="10"/>
<path d="M254.572 216.214C251.768 210.795 246.335 195.442 243.005 190.204C240.273 185.905 238.131 183.19 236.288 182.253C235.924 182.059 235.527 181.937 235.119 181.895C235.119 181.895 237.222 178.463 232.315 177.921C230.882 177.828 229.474 177.488 228.15 176.916C227.757 176.753 227.725 176.806 227.408 177.379C227.121 177.934 226.896 178.52 226.737 179.127C226.717 179.38 226.693 179.63 226.666 179.879C226.629 180.211 226.585 180.539 226.537 180.859C227.465 181.124 231.596 182.532 230.037 186.23C230.037 186.23 227.934 191.829 224.779 194.719C224.383 195.082 223.987 195.482 223.598 195.91C220.888 198.896 218.514 203.278 218.821 206.28C219.171 209.711 219.872 210.615 217.945 214.047C217.017 215.712 215.997 217.32 214.89 218.864C217.909 219.43 220.531 220.213 221.606 220.435C221.891 220.494 222.29 220.566 222.774 220.649C223.887 218.987 225.083 217.387 226.357 215.853C226.357 215.853 230.805 218.473 232.942 222.187C233.477 223.081 233.836 224.075 234 225.113C234.373 227.767 232.08 229.251 232.08 229.251C232.08 229.251 246.791 228.905 255.7 232.594C256.285 232.836 256.846 233.095 257.376 233.374C257.376 233.374 257.376 221.633 254.572 216.214Z" stroke="#54575C" stroke-miterlimit="10"/>
<path d="M236.984 258.838C237.812 259.543 238.541 260.364 239.15 261.277C239.76 262.536 236.444 264.155 235.135 266.224C233.825 268.294 238.015 268.473 241.855 268.833C245.696 269.193 249.187 252.91 248.75 249.762C248.485 247.844 245.11 247.161 242.513 246.92C241.557 247.829 238.597 254.982 236.984 258.838Z" stroke="#54575C" stroke-miterlimit="10"/>
<path d="M216.98 256.779C212.267 258.128 215.06 259.387 215.06 259.387C217.904 260.946 223.891 259.221 227.299 258.015C225.098 257.098 222.643 256.037 220.141 254.895C219.284 255.821 218.187 256.475 216.98 256.779V256.779Z" stroke="#54575C" stroke-miterlimit="10"/>
<path d="M255.7 232.593C246.791 228.905 232.08 229.251 232.08 229.251C232.08 229.251 234.372 227.766 234 225.113C233.836 224.075 233.476 223.081 232.941 222.186C229.756 221.73 225.194 221.062 222.773 220.649C222.289 220.566 221.891 220.493 221.606 220.435C220.53 220.213 217.908 219.43 214.89 218.864C210.559 218.053 205.412 217.689 202.841 220.075C201.284 221.519 199.58 223.287 199.611 224.933C199.677 228.39 203.277 231.5 203.277 231.5C203.277 231.5 199.521 232.453 198.651 235.368C198.062 237.343 199.678 241.262 201.793 243.914C204.347 247.117 212.464 251.389 220.141 254.895C222.643 256.037 225.098 257.098 227.299 258.014C232.192 260.051 235.827 261.372 235.92 261.276C235.989 261.205 236.397 260.239 236.984 258.838C238.597 254.982 241.557 247.828 242.513 246.92C242.526 246.907 242.54 246.893 242.553 246.883C243.735 245.926 258.222 248.838 255.7 232.593Z" stroke="#54575C" stroke-miterlimit="10"/>
<path d="M242.513 246.92C242.513 246.92 232.333 243.471 227.802 242.621C223.27 241.772 212.283 238.8 210.772 239.79" stroke="#54575C" stroke-miterlimit="10"/>
<path d="M203.277 231.5C207.626 229.742 212.286 228.949 216.952 229.175C224.368 229.458 232.08 229.251 232.08 229.251" stroke="#54575C" stroke-miterlimit="10"/>
<path d="M226.356 215.853C226.356 215.853 230.274 213.604 229.999 210.773" stroke="#54575C" stroke-miterlimit="10"/>
<path d="M214.772 79.3987H195.863V98.8886H214.772V79.3987Z" stroke="#54575C" stroke-miterlimit="10"/>
</svg>
