<svg id="Layer_1" data-name="Layer 1" xmlns="http://www.w3.org/2000/svg" xmlns:xlink="http://www.w3.org/1999/xlink" viewBox="0 0 141.73228 141.73228"><defs><style>.cls-1,.cls-3{fill:none;}.cls-2{fill:#468fba;}.cls-3,.cls-5{stroke:#55575b;stroke-miterlimit:10;}.cls-4{clip-path:url(#clip-path);}.cls-5{fill:#55575b;stroke-width:1.27073px;}.cls-6{fill:#fff;}</style><clipPath id="clip-path"><path class="cls-1" d="M72.992,125.73743a55.99128,55.99128,0,0,1-9.01922-.72785A55.364,55.364,0,0,1,40.15233,115.0081,55.83406,55.83406,0,0,1,23.59254,95.68458a55.21356,55.21356,0,0,1-5.47919-16.53431,56.25,56.25,0,0,1,0-18.03935A55.361,55.361,0,0,1,28.11486,37.28974,55.82891,55.82891,0,0,1,47.43844,20.731a55.21545,55.21545,0,0,1,16.53435-5.47853A55.60964,55.60964,0,1,1,72.992,125.73743Z"/></clipPath></defs><path class="cls-2" d="M73.57375,125.1557a55.99014,55.99014,0,0,1-9.01922-.72786,55.364,55.364,0,0,1-23.82046-10.00148A55.83406,55.83406,0,0,1,24.17428,95.10284a55.213,55.213,0,0,1-5.4792-16.53431,56.25081,56.25081,0,0,1,0-18.03935A55.361,55.361,0,0,1,28.6966,36.708,55.82883,55.82883,0,0,1,48.02018,20.14928a55.21481,55.21481,0,0,1,16.53435-5.47852A55.60964,55.60964,0,1,1,73.57375,125.1557Z"/><path class="cls-3" d="M72.41028,125.1557a55.99014,55.99014,0,0,1-9.01922-.72786A55.364,55.364,0,0,1,39.5706,114.42636,55.83406,55.83406,0,0,1,23.01081,95.10284a55.213,55.213,0,0,1-5.4792-16.53431,56.25081,56.25081,0,0,1,0-18.03935A55.361,55.361,0,0,1,27.53313,36.708,55.82883,55.82883,0,0,1,46.85671,20.14928a55.21481,55.21481,0,0,1,16.53435-5.47852A55.60964,55.60964,0,1,1,72.41028,125.1557Z"/><g class="cls-4"><path class="cls-5" d="M106.37116,118.70639c-2.82124,4.14548-8.36664,13.12634-13.63764,14.23224-2.54534,2.8199-4.53281,6.49161-8.671,6.63178-.11822,1.95285-.17748,2.93317-2.38322,2.81658-3.27225.6633-5.05092,6.13-7.5256,8.69319.00207.613.99761,1.87043-.99784,1.09744.94526-.32307.46485-.78137-.2394-.97019.83167-1.45563-.37269-3.41269.57363-4.363l-.07676.28524c-.22867-2.94547,11.34276-18.86876,5.01356-23.68621-2.29338-4.57145-4.55137-14.04537-.25929-17.6122,2.105-6.59248,1.826-6.0377,6.75533-9.81766-1.60065,6.39746-.18026-.90989,7.0802,2.64162-.3147,1.12189,1.76226,1.45216.63291,2.17189.30652.6924,1.05688.43407,1.538.829.23234,2.42953,6.16133,4.963,5.4829,5.5526.78481,1.718-.5509,2.96065-2.09755,4.39949,3.65648.95816,10.35356,1.82254,8.81178,7.09819"/><polyline class="cls-5" points="91.156 21.313 91.156 21.313 91.156 21.313"/><path class="cls-5" d="M30.61889,40.12023c-.19947.29379-.26118.18467-.49077.1959.0657-.24822.58372-.54541.49077-.1959"/><path class="cls-5" d="M140.454,86.16647a70.47975,70.47975,0,0,0-5.02049-26.21218l.00175.01293c-.905-1.517-.905-1.517-1.03028-1.62632-.08875.27237-.07913.29573.42506,1.519,1.20416,5.99733,5.68721,9.80359,5.61458,27.46906q.00939-.5782.00938-1.16244m-6.69868-30.07176q-.38654-.82083-.79341-1.63006.39325.81666.79341,1.63006M113.6488,30.75532a54.9075,54.9075,0,0,0-6.44429-4.45479c.17246.12672.17246.12672.63784.44478-.16972-.0987-.33539-.20414-.50246-.30723.18691.14061.37828.27508.56862.41095-.2736-.17285-.53917-.35809-.81408-.52892,2.34835,1.27,12.83675,15.28428,11.18575,11.23893,1.65407,1.3054,2.66071,3.21433,4.26044,4.5704.08657-.50709.21735-1.2734-8.64939-10.60894,2.62746,1.474,4.262,4.62325,6.66053,6.18593a3.27781,3.27781,0,0,0-.10316-.40935c1.48947.84965,1.23216,2.12432,3.7035,5.21617.86789,3.3-2.83739-.38-3.27844-1.66407.01222,1.254,1.77516,2.6006,1.7376,4.09235a1.07363,1.07363,0,0,1-.33177-.27453c-.18645.97865,1.16034,2.93736-.24027,2.96178-.22093.69018.87225.9143-.37587,1.11812,1.11881,1.93982,6.10049,6.51175.77413,5.15742-.14379,1.42162,1.10555,8.8602,4.69755,8.49632.07941-10.07166,1.22679-10.3316,5.89628-.78509a10.49,10.49,0,0,0-.4186-2.2314,1.34485,1.34485,0,0,1,.32192.28694c-.9736-2.34518-3.40749-3.80751-3.89612-6.44582,1.98409,1.93609,4.83916,7.57321,6.09155,10.3467a31.75906,31.75906,0,0,0-1.43609-4.23036,2.97056,2.97056,0,0,1,.33747.52989c-.12234-.251-.30144-1.25767.38879-.25413.01777-.18282.01777-.18282-2.43963-6.49552a10.20651,10.20651,0,0,1,1.30683,2.38236c-4.19025-9.82846-11.72876-18.45429-20.02715-25.02148.10921.06756.24962.16611.35165.24408-.011-.00866.02582.02.03687.02851"/><path class="cls-5" d="M137.79227,105.44432c3.20919-11.19069,3.30309-21.61207.90792-33.10737.07718.29378.17436.687.24376.98274.12038-2.20631-1.07877-2.62585-2.7536-5.45533a9.61183,9.61183,0,0,0,.05854,2.66748c-3.73671-4.36436-2.42783-9.62059-9.8623-7.99656-.49475-.31775-.85783,7.76049-2.594,9.64116-1.4703,5.27606-.6841,10.85548-.5176,15.57134,2.488,16.89175,3.24868,3.99441,9.70948,9.90807,1.35961,3.06122-3.01185,20.64071-15.17849,37.44254,1.83418-.012,14.29985-10.3688,19.98633-29.65407"/><path class="cls-5" d="M72.85677,17.45379c-.01993-.00606-.036-.02085-.05644-.02194.01853.008.03719.01581.05644.02194m5.065-.0292c.02041-.00268.047-.00982.06721-.014-.431-.15743-2.51887-.74538-2.28374-.4189-.39392-.03044-.578-.25882-1.017-.13977.098.08863.233.12032.3284.21291a2.38257,2.38257,0,0,0-1.06494-.15468c-.04722.05453.64272.32378.7181.39258-4.65984-.56552.32734.73,1.44977.81971-.61242-.03594-.84588.04832-.65707.44274-1.18779-.52324-2.12613-.49477.68066.8054-1.85427-.46294-1.01462.55727.23138.87012.11061.83207-1.341-.61552-1.56293-.28032.31514.68908-.17491,1.13683,1.14749,1.22847.42542-.55065,1.884.248,2.26072.172,1.52536-.54355-2.88989-.89851-.63421-1.09438,1.01022-.05437.25321-.22511.58008-.65291-.20776-.48477-2.08893-.8367-.23094-.59938-.801-.5518.05527-.1728.49585-.208-.23622-.32709-.48774-.35263-.13512-.763-.38937-.458-1.81217-.57228-.37368-.61857"/><path class="cls-5" d="M91.152,31.69736c-.24714.31072-.46782.43657-.14725.86535-.64848-.1785-.382.10078-.21511.58843-1.122.15045-1.40168-1.87339-2.72716-1.7319-.37266,1.23151,2.568,2.32278,2.965,4.41675-.719-.32746-1.46761-1.40808-2.31271-1.16446.63139.72251,1.42663,1.27652,2.05716,2-4.43666-1.72189-2.85708-1.47383-4.09159-2.75843-.82305-.6746-4.596-.27419-3.12483-1.47368,1.48736-.16447,1.98882.105,1.29909-1.18822.34159-1.14736.34159-1.14736.1805-1.38629-1.51953-.78308-3.39825-3.04044-4.96089-3.361,1.29684,1.03653,1.29684,1.03653.79937,1.01908-.52226-.2009-3.30505-.21535-4.74933-1.44564a3.95766,3.95766,0,0,0,.77212-.02964c-.91393-.432-2.37154-1.79324-.41594-2.71831.6029.08394.56535.21113.49058.46451-.675.97185,2.01387,3.544.59612,1.41394-.28227-3.7147,1.55857.41346,2.9537.21033,1.32869-1.26217,1.80752,1.02673,3.18728.65354.33368.71155.91823.80946,1.69839,1.01036.26118.22882-.26567,1.08473.48439.54532.39088-.51534.86557.96506.61473.9144-.15306,1.44523,2.86466,2.27571,4.64638,3.15568"/><path class="cls-5" d="M61.937,24.07037l.0034.00027q-.13471-.01366-.26961-.02553c.08861.00978.17741.01775.26621.02526m8.60882,2.72652a15.6763,15.6763,0,0,0-2.64453-3.60475,5.02826,5.02826,0,0,1-.23884,1.29236c-.24748-.39266-.3574-.85287-.61064-1.2427-1.29606,1.73313-1.52572-1.19637-2.71059-.10293,1.5814-.75984-.73414-1.56286-1.44256-1.63353-1.188.12234-1.146,1.64494-2.2759,2.09792a2.53537,2.53537,0,0,0,2.74052.10055c-.22975.33315-.2227.33534.1462.44963,1.66678.464.15536.47783-.439.7213.82.30543,1.697.43579,2.49443.81072-4.43776-.27094-1.49843,1.39061-.546,1.60885.13137.11786,6.94621.3053,4.478-.31755-.057-.7025.68232-.28244,1.04892-.17987"/><path class="cls-5" d="M126.08705,128.88148c-.08787.11214-.17662.2236-.268.333a87.43414,87.43414,0,0,0,5.45552-8.1946,70.77449,70.77449,0,0,1-5.18756,7.86164"/><path class="cls-5" d="M116.23962,40.22807l.00123.00044-.0359-.01233.03467.01189m-.03617-.01241.0015.00052-.02294-.00771.02144.00719m5.222,4.692a30.71088,30.71088,0,0,0-4.4903-4.37135c1.00886-.56486-1.849-1.63129-1.72844-2.56829-1.30352-.64829.513,2.00521,1.10761,2.28692l-.05194-.01876c.68017.86109,2.98185,2.75976,3.05943,4.7262,1.521.40084.3189,2.71657,2.64118,1.12793-.71548-.68321-.31322-.55236-.53754-1.18265"/><path class="cls-5" d="M72.49007,18.57393l.002.00008-.01608-.00057.01406.00049m.08583.00315h.00036c-.028-.00151-.0561-.002-.08417-.00307.02792.0011.05586.00278.08381.00307m2.19441.31026c.02571-.00532.06057-.00906.08652-.013-2.28124-2.08937-4.33152-.899-1.42346-.00352-1.51736-.07542.68954.96627,1.33694.01647"/><path class="cls-5" d="M106.05,31.32041c-.04123-.01683-.08307-.03243-.12534-.04638.04168.0157.08328.03174.12534.04638m-.07979-.25464c-.59563-.67754-4.571-3.73268-2.79395-1.56787-.74218-.22465-1.05417-.54449-.56507.40775-2.40124-2.36037-1.61416-.21528-.05106.17606-.72323.6101.62838.30751.70187.83863.235,1.2263,2.72912.9831,2.70821.14543"/><path class="cls-5" d="M77.11867,22.473l.00859-.0017c-.09056.01328-.17992.033-.26966.05064.08723-.01509.17418-.0319.26107-.04894m1.54611-.12009c.08281-.67981-3.32918.02573-4.73821-1.697-.97337,1.1272.65256,2.36113,3.22451,1.81209.53931-.11605,1.43016.94106,1.51367-.11507"/><path class="cls-5" d="M69.1231,21.54357c-.54611.1444-2.77578.49765-3.13722.174.36382-.22027.81266-.20266,1.17735-.42057-.41367-.01641-2.5962.06027-1.87-.3455,1.114-.28915.15755-1.13432,2.1015-.07208,1.08417.5147.35992-.44507.35012-.456.50122-.576.67338.29761.982.605.15711-.4768.58548.111.39619.51512"/><path class="cls-5" d="M90.91965,18.95024c-.07515-.02218-.15057-.04367-.22595-.065q.11281.033.22595.065m1.31272.29061c-.49311-.18551-1.9851-.63725-2.21729-.67135a2.94546,2.94546,0,0,0,.3916.14614c-.18519-.02208-.34674-.15633-.5453-.11512,1.126.39621,3.25278.9766,3.621,1.21736l-.0208-.02954c.51692.129,1.03984.48814,1.73618.659-.1119-.13039-2.67362-1.09671-2.96536-1.20646"/><path class="cls-5" d="M102.712,52.72491c1.18638,2.478-1.593,1.86784-1.20526.63629-.81384-.16308-1.69677.18317-2.46315-.33335-.27694-.581.581-3.18542,1.10359-3.39058-.23876,1.52364.45908.59794.8328,1.70131-.05443.04765.4081.05608,1.20694.3669-.16007.57416.372.69909.52508,1.01943"/><path class="cls-5" d="M90.21714,18.56357c-.09523-.02481.1305.0496.13245.04453-.042-.019-.08856-.02905-.13245-.04453m-.066-.064-1.567-.426c-.05326-.01714,2.634.8098,3.236,1.00226-.1306-.07341-.95735-.35887-1.66908-.57631"/><path class="cls-5" d="M71.33349,24.98688c-.05907-.02943-.11955-.06409-.17783-.08939.05872.03087.11709.06253.17783.08939m1.29954-.73713c-.178-.51633-1.31018-.51639-.314-1.19471-1.06845-.1444-1.41646-.32636-1.22393.65873-2.17362-.42141,1.10074,2.56991,1.53793.536"/><path class="cls-5" d="M117.57,42.7193c1.45808,2.45707.62067,3.18454-.58907,1.54408.82778-.53449-1.34118-1.75328-1.08226-2.15262.839-.46653.29289-1.22372,1.67131.60854"/><path class="cls-5" d="M82.0301,33.89335c-.94012.58978-1.572-1.26877-2.13326.1628-1.78792-.03375-1.57158-1.1479-1.14422-2.70511.947.94242,2.5122,1.66843,3.27748,2.54231"/><path class="cls-5" d="M74.90461,23.205a.93462.93462,0,0,1-1.2332.83c-.31147,2.05946-1.61706-2.81537,1.2332-.82993"/><path class="cls-5" d="M64.10861,20.3085a.38707.38707,0,0,0-.0518-.00738.49444.49444,0,0,0,.0518.00738m2.19028-.63038c-1.55426-.98758-3.98683,1.86649,0,0"/><path class="cls-5" d="M70.05317,18.93973c-.01793-.06779-.0573-.11628-.06934-.11281-.02853.012.00657.13565.06934.11281m1.30708.62534.013.00034c-.48147-.70538-1.27489-1.19212-1.72334-1.07688.39016.48282.48582,1.05012,1.71032,1.07654"/><path class="cls-5" d="M71.89275,21.12257c-.33946,1.58954-.66556-.16019-1.5405.10026-.06906-.26359.31158-.72673.7764-.23189-.51464-.81464.84627-.34234.7641.13163"/><path class="cls-5" d="M88.02174,83.22355c-3.54461.70382-2.89694-2.81628-6.55861-3.512,1.726-.80685,5.45226,1.83343,6.73648,3.47259-.05335.01182-.12416.02935-.17787.03937"/><path class="cls-5" d="M92.64228,85.42311c-.64882.849-2.96143.40718-4.67993-.39,1.0496-.23,2.1161.41474.97523-1.31986,1.288.17714,3.19908.59718,3.7047,1.70993"/><path class="cls-5" d="M73.137,27.88576a1.76255,1.76255,0,0,1-1.72817-.32168c.50478-.97214,1.57112-.37453,1.72815.32168"/><path class="cls-5" d="M72.11484,19.5741l.00662.00025c-.01762-.0008-.03528-.00191-.05295-.00217a.33954.33954,0,0,0,.04631.00192m.00748.00025v0l-.00084,0,.00084,0m.001,0h0l-.001,0,.001,0m.00072,0h.00007l-.00077,0h0l.0007,0m.05076.00179.00194.00008-.05263-.00187.05069.00179m.015.00062-.01308-.00054a.05961.05961,0,0,0,.01308.00054m.30666-.17239c-.03129-.15911-.33428-.35176-.73551-.385-.71911.18456.78337.89015.73551.385"/><path class="cls-5" d="M83.71516,29.76559l-.00111-.003c.007.01945.01329.03923.02088.05847l-.01977-.05542m-.04895-.13649,0,0c.00448.01433.01022.02824.01536.04232l-.01534-.0423m.01911.05316c-1.8631-1.90133-.39694,2.32936.00709.01984l.02164.06044c-.01053-.02977-.021-.05958-.03186-.08924l.00217.0062.001.00278"/><path class="cls-5" d="M133.03479,61.88917c.262,1.01767.58276,1.81575-.75228-.16365.13464-.42788.71141-.20348.75228.16365"/><path class="cls-5" d="M72.98118,20.89876l.00519-.0004a1.29478,1.29478,0,0,0-.13181.01029c.04222-.00312.08442-.00672.12662-.00989m.21557-.11483c-.06-.30287-.6784-.4971-1.00783-.39864.21685.344.77536.76244,1.00783.39864"/><path class="cls-5" d="M68.15454,19.35582c-1.06368.80211-1.18035-.55792.03131-.03845l-.03131.03845"/><path class="cls-5" d="M130.52234,58.90255c.755,2.27059-.969-.56557-.609-.94987.32268-.06317.56529.86877.609.94987"/><path class="cls-5" d="M100.21893,110.91777c-.87383,1.1264-1.64718.93385-1.63247.38-.00274.03688-.00537.07383-.00855.11066.00576-.08647.01214-.17291.01773-.25941-.00074.02373-.00236.04744-.00389.07115-.1794-.86836,1.58952-.81043,1.62718-.30236"/><path class="cls-5" d="M79.36658,95.36874c-.03729-.07192-.08409-.13872-.1264-.20788.04327.06865.0804.1414.12638.20788M52.558,48.618l.00876-.02644a1.50039,1.50039,0,0,0-.36828.82116A4.80207,4.80207,0,0,0,52.558,48.618m.05908-.19445a2.69238,2.69238,0,0,1-.4186.98917c-.138-1.12955-.0429-2.2497-.74317-3.20288,1.00581.54709,1.50567,1.31049,1.16177,2.21374m-1.213-2.24713c-.476-.005-.72889-.2887-.972-.76463a1.14018,1.14018,0,0,1,.98655.76453l-.01455.0001m48.68462,1.87446c.94307-1.47872-4.86915-.94583-1.81163-2.68672-3.54-.7629-5.63052-9.41008-6.34463-5.02543-.6264.15781-2.203-.14855-2.24794-1.19649-.06539-1.52451-3.949-4.39565-5.6495-3.75674-.2105,2.20227,1.3101,4.41409,1.44609,6.50695-1.545,1.99658-.20488,4.26571-1.083,6.05322-2.74732-.59388-1.024-4.25129-3.46567-5.05337-3.81225-.96028-11.11762-5.24673-4.89511-8.69577.05335-.5324-.48981-.68406-.87938-.89725,2.52032.24646,3.63416-1.27286.83125-2.24656,1.57543.34416,2.81847.64871,2.04712-.41983.456-.12413.456-.12413,1.30109.20781l-.19617-.40189c2.50967,1.21056,1.07571-3.60294-.92579-3.01215,1.3064,1.9-2.18979,2.97757-1.10805.99933-2.20363.49538-1.52171-2.8062-3.68719-2.98347-1.18708.23974.42635,1.63078.82838,2.56141-.74772,1.69951-1.18455,1.234-2.03709.26252a1.189,1.189,0,0,1,.07987.7415c-6.35492-.68017-5.50823.56163-8.869-.99438.9718-2.77454-6.28249-2.80048-7.50217-1.49983-.18659-.8594,1.396-.761,1.93429-1.21879-5.37168,2.06179-2.1179.28687-8.81771-1.80447-7.05658,2.08807-2.72846,2.0907-5.8613,4.22154-.54041-1.986-4.80413,2.65817-.93017,1.22113-.07247,2.65116-4.106.81186-4.45983,3.42828.44087,1.06185-2.48164,3.35537.89741,2.77095-.51817,1.48528-2.0801,1.74026-3.102,2.63181,2.798-.24044,5.11394-3.14514,7.68955-4.3567-.48166.429-.99015.82741-1.45745,1.2729,4.89321-3.23511,4.58539,2.96662,7.53446,1.13291.429.61875,2.25585,8.29857.3688,9.93016C50.77042,47.86366,52.15,47.3436,50.745,50.578c-1.90757,8.0355,1.49271,22.25693,6.58655,25.37043-1.05084-.6963-2.84523-7.31643-2.69308-8.54088.844.29135,6.92152,9.05985,6.306,11.9981-1.64142,5.15421,11.215,6.80851,14.851,9.811,2.12971,2.58662,2.44876,6.245,5.91514,7.42421.79648-1.88-1.174-2.21244-1.95135-3.24295-1.23538-1.76177,1.08157-3.872-.54872-5.595-1.09057-1.15259-3.1155.90915-3.82273-.78957-.31545-2.39384,4.96506-9.16651-1.22988-5.44935-6.12009,9.49987-7.73973-8.19392-2.44654-10.55458,1.45424-.30537,3.93909,1.81629,4.3928-.20564,4.76807-.13785,8.09109,5.86078,7.35485,6.04191,1.67979-1.96272-.736-4.46776-.5569-6.6133.08189-2.68543,3.99057-1.6764,4.14417-4.29272.83506-.53623-.87414-4.57577.70873-3.10647,1.66894-2.01856,1.09659-4.09266,4.01931-3.52978a3.66942,3.66942,0,0,1,4.61846-3.95885c-1.6731.78238-1.6731.78238-1.76259.90546.30312,2.05543,2.35107-.23667,3.38963-.62285a6.5711,6.5711,0,0,1-3.85526-3.39568c3.2361-1.95486-2.13317-1.45426-3.16477.92227.90822-5.44611,7.47065-1.55311,9.08885-5.10272"/><path class="cls-5" d="M98.72071,54.96206c.0354.28143-.29874.55345-.7543.1928-1.11087-.84664.77172-2.13719.27507-.67337-.17757.3247.47938.20628.47923.48057"/><path class="cls-5" d="M39.585,36.45194q-.04266.018-.08437.03809c.02811-.01268.05672-.02435.08437-.03809m-.08452.03816.00015-.00007-.00015.00007m.50317.2153c.2091-.34205-.20646-.39222-.56866-.18521l.02962-.01337c-1.24869.7686-.68654,1.05628.539.19858"/><path class="cls-5" d="M120.24652,40.16349h0m0,0h0m0,0v0m0,0v0m0,0h0m0,0h0m0,0h0m0,0h0m0,0h0m0,0h0m0,0v0m0,0h0m0,0h0m0,0h0m0,0h0m0,0v0m0,0h0m0,0h0m0,0h0m0,0v0m0,0v0m0,0h0m0,0h0m0,0h0m0,0v0m0,0h0m0,0h0m0,0h0m0,0h0m0,0h0m0,0h0m0,0h0m0,0v0m0,0h0m0,0v0l0,0m0,0h0m0,0,0,0v0m0,0v0m0,0h0m0,0v0m0,0v0m0,0v0m0,0v0m0,0v0m0,0h0m0,0v0m0,0,0,0,0,0m0,0v0m0,0h0m0,0v0m0-.00005v0m0,0v0m0-.00005v0m0,0v0m0,0v0m0,0v0m0,0,0,0,0,0m0-.00005v0m0-.00005v0m0,0h0m0,0v0m0,0v0m-.00015-.00068,0,0,.00017.00069-.00007-.00047m-.0069-.0676-.00014-.00121c.00137.02294.00438.04576.00694.06859-.00219-.02245-.00424-.045-.0068-.06736m-.287-.58309c-.01842-.023-.04348-.05327-.06212-.0761-.067.28695.23766,1.24734.34852.65478l0,.00015c-.006-.13075-.0107-.234-.28642-.57883"/><path class="cls-5" d="M122.12662,41.84141c1.25141,1.98492-1.01311-.90229,0,0"/><path class="cls-5" d="M137.30783,65.97474c.36769,1.34-.27685.20112-.02152-.0975l.02152.0975"/><path class="cls-5" d="M23.6536,77.48923c-.42906,1.12832-.88428.45948-.4977-.79345a.68868.68868,0,0,1,.4977.79345"/><path class="cls-5" d="M136.33,65.71547c-.02635.60833-.35162-.2538-.549-.61689.06935-.017.62925.57738.549.61689"/><path class="cls-5" d="M48.99077,40.58611a1.4614,1.4614,0,0,1-.08189-1.48052c.31806.3297.34468.715.10545,1.52695l-.02356-.04643"/><path class="cls-5" d="M35.302,37.99608c-.63789.58184-.96422.67965-1.258.64752.52863-.55579.87182-.73812,1.31155-.69681l-.05357.04929"/><path class="cls-5" d="M91.6335,21.57151l-.0002-.00017.00687.00756-.00667-.00736m-.01165-.01244h0l.01145.01224-.01145-.01224m.77222.2313c.04482.01587-.83092-.44907-.73605-.19421.14969.11152.95234.36359.73605.19421"/><path class="cls-5" d="M48.6835,41.86559c-1.32237,1.52577-.30777-1.599,0,0"/><path class="cls-5" d="M85.93488,85.4331c-.53926.19972-1.46488-.19553-1.28622-.54924.24962-.629,1.51094.31344,1.28622.54924"/><path class="cls-5" d="M33.433,38.94339c-.00462.00549-.54278.50109-.94231.26673a2.65984,2.65984,0,0,1,.87966-.50731l-.0489.00852c.169-.06824.25374.08071.11155.23206"/><path class="cls-5" d="M81.34311,79.76329a2.87425,2.87425,0,0,1-1.688.69513,1.78455,1.78455,0,0,1,1.73644-.73541l-.04843.04028"/><path class="cls-5" d="M81.41545,79.72166c-.0017.00453-.01131.00507-.02391.00135.00517-.00657.02289-.01079.02391-.00133"/><path class="cls-5" d="M48.67891,37.37813c-1.422.68585-.01078-1.33527.00626.00438l-.00626-.00438"/><path class="cls-5" d="M94.72224,85.84774c-1.40321,1.21022-.79955-1.05626,0,0"/><path class="cls-5" d="M48.48375,38.23236a2.847,2.847,0,0,1-.33568.53476c-.34322-.27776.53035-1.537.33568-.53476"/><path class="cls-5" d="M81.44846,79.70529c-.03808.04955-.036-.02423,0,0"/><path class="cls-5" d="M95.81779,23.49307c-.05015-.0341-.11916-.07635-.17022-.10907.22082,2.16513-2.02431-1.636-.73664.63718a3.32938,3.32938,0,0,0-2.40331-1.48892,21.30747,21.30747,0,0,1,2.621.521c-1.45708-.79952-3.22447-.85624-4.57464-1.91169.19741-.144.33668.14779.5407.17-1.03-.82779-2.354-1.05879-3.47067-1.71062l.13873.00714a18.91616,18.91616,0,0,0-3.46835-1.322l.10409.09124C82.37475,18.03572,80.573,16.97,78.561,16.59c.53752.2233,1.1081.34556,1.6548.54079-.43877-.12061-.873-.25752-1.316-.36287.08814.03883.08814.03883.62809.22064a1.74736,1.74736,0,0,1-.4482-.10424c.09343.04572.21821.10626.3121.151-.80454-.19792-1.57693-.51026-2.39129-.67339.09271.12122.09271.12122.74715.31567-.08772-.01386-.205-.03-.29329-.04011a4.65792,4.65792,0,0,0,.64552.16707c-.08063-.00421-.18794-.01494-.26771-.02745.205.0696.41356.12783.62017.19228a1.66332,1.66332,0,0,1-.41785-.0616c.08772.06677.08772.06677.67094.28495a3.43121,3.43121,0,0,1-.63676-.2023l.13016.06236a1.89093,1.89093,0,0,1-.44953-.06519,2.73773,2.73773,0,0,0,.32023.16332l-.13465.01135c2.271,1.06188-.29067,1.279,2.52191,2.04478-.10977.18086-.33963.04731-.51775.06623,1.22808.916,6.29236,2.58118,6.59,3.91505.48866.34414.51545.75139.89064,1.06591.33082-.98433,1.85508.78172,2.10371.7631-.35041.04145-1.85026-.44525-.804.19856-.367.95472,2.73413,1.62186.51967.23381.99175-.03184,2.34985,1.38838,1.816,1.75808,1.2811.42868.57327,1.32741.23923.453-.47381.13553-.517.84259-.66187.67157,1.92386.65214.60962,1.48243,2.1969.45068.05241.47943-1.01186.99792-.2544,1.48372.67849-.10412,2.00123,2.6591,1.45674.61739a6.66187,6.66187,0,0,1,1.30164.91218c-2.79135-.15613,3.53234,3.97449,4.38318,4.30556.89388-.97741,1.91709,1.02613,1.926,1.04794,2.79515.32475-1.95079-3.94515-1.24516-5.054-.99765-.61053-1.1343-1.57931-1.81362-2.21118.33647-.0954-.0137-.6946.08486-.98646a8.039,8.039,0,0,1,.56891.59725c.07418-1.09622-1.06641-2.25858-1.92449-3.32349.16724.04736.33436.0953.50094.145a4.40459,4.40459,0,0,0-1.99623-2.824"/><path class="cls-5" d="M83.67431,95.8717c-.61038-.04264-.365.01936-1.29587-.60815.61411-.19562.89312.01615,1.32328.60655l-.02741.0016"/><path class="cls-5" d="M23.14215,76.14806c-.19292.55962-.42731-.47815-.15952-.46667.122.01925.18089.29637.15952.46667"/><path class="cls-5" d="M129.29421,56.04567c.42931,1.093-.22232.581-.00529-.01571l.00529.01571"/><path class="cls-5" d="M31.426,39.80444c-.03587.05325-.27571.33522-.30809.21121-.09334-.17171.5381-.67782.30809-.21121"/><path class="cls-5" d="M93.00072,98.81076c-.1717.70062-.76257-.17371-.17537-.23666a.1933.1933,0,0,1,.17537.23666"/><path class="cls-5" d="M85.57778,22.51483c.015.21126-.36676-.31395.01.01524l-.01027-.01531.00022.0001"/><path class="cls-5" d="M90.29434,25.87787c.109.23259-.20864-.02189-.16837-.14969a1.44742,1.44742,0,0,1,.16835.14969"/><path class="cls-5" d="M22.16909,75.24142c-.25346.58344-.18175-.70992,0,0"/></g><circle class="cls-6" cx="105.48514" cy="85.53964" r="9.4657"/><path class="cls-6" d="M84.57646,124.72606c0-15.22765,9.33355-27.57211,20.84707-27.57211s20.84708,12.34446,20.84708,27.57211Z"/><circle class="cls-3" cx="106.70094" cy="85.52592" r="9.4657"/><path class="cls-3" d="M85.79226,124.71233c0-15.22765,9.33355-27.57211,20.84708-27.57211s20.84707,12.34446,20.84707,27.57211Z"/></svg>