<svg xmlns="http://www.w3.org/2000/svg" viewBox="0 0 841.88976 467.71654"><defs><style>.cls-1{fill:#ddddde;}.cls-2{fill:#fff;}.cls-3{fill:#61a575;}.cls-4{fill:#e0635d;}.cls-5{fill:#e0635c;}.cls-6,.cls-8{fill:none;stroke-miterlimit:10;}.cls-6{stroke:#54575c;}.cls-7{fill:#dd8659;}.cls-8{stroke:#fff;}</style></defs><g id="Layer_3" data-name="Layer 3"><rect class="cls-1" x="-4.53693" y="-8.74304" width="855.54199" height="479.34387"/><path class="cls-2" d="M189.74773,237.85981a18.49129,18.49129,0,0,1,7.34748-14.7558l-4.70923-6.75678a26.764,26.764,0,0,0-9.1529,30.90039l8.21283-1.67041A18.44065,18.44065,0,0,1,189.74773,237.85981Z"/><path class="cls-2" d="M225.07769,230.03235a18.52541,18.52541,0,0,1-28.43988,22.24115l-5.2237,6.343a26.75026,26.75026,0,0,0,41.2154-31.85492Z"/><path class="cls-2" d="M208.28832,219.31922a18.52589,18.52589,0,0,1,16.78937,10.71313l7.55182-3.27081A26.74991,26.74991,0,0,0,192.386,216.34723l4.70923,6.75678A18.43466,18.43466,0,0,1,208.28832,219.31922Z"/><path class="cls-2" d="M191.44591,245.57721l-8.21283,1.67041a26.80916,26.80916,0,0,0,8.181,11.36884l5.2237-6.343A18.58764,18.58764,0,0,1,191.44591,245.57721Z"/><path class="cls-2" d="M491.75728,64.71862c1.6435-.00329,3.30029-.00641,4.95789-.00927-.0055-8.134.00116-15.33564.03021-19.66559A25.22613,25.22613,0,0,0,481.91231,49.858,25.36615,25.36615,0,0,1,491.75728,64.71862Z"/><path class="cls-2" d="M491.58858,76.77032a25.38116,25.38116,0,0,1-9.67627,14.15613,25.22717,25.22717,0,0,0,14.85639,4.81518l.00378-.00012c-.01532-5.73273-.031-12.35541-.04236-18.98089C495.01088,76.76361,493.29213,76.76684,491.58858,76.77032Z"/><path class="cls-2" d="M496.71517,64.70935c1.69476-.00287,3.38879-.00562,5.0686-.00788A25.36665,25.36665,0,0,1,511.62514,49.858a25.22735,25.22735,0,0,0-14.85644-4.81519l-.02332.00092C496.71633,49.37371,496.70967,56.57537,496.71517,64.70935Z"/><path class="cls-2" d="M501.94387,76.75262c-1.72736.00232-3.47.005-5.21375.008.01135,6.62548.027,13.24816.04236,18.98089a25.22743,25.22743,0,0,0,14.85266-4.81506A25.38094,25.38094,0,0,1,501.94387,76.75262Z"/><path class="cls-2" d="M496.73012,76.76062c1.74371-.003,3.48639-.00568,5.21375-.008a25.25243,25.25243,0,0,1-.1601-12.05115c-1.67981.00226-3.37384.005-5.0686.00788C496.71773,68.58642,496.7231,72.67175,496.73012,76.76062Z"/><path class="cls-2" d="M491.75728,64.71862a25.24166,25.24166,0,0,1-.1687,12.0517c1.70355-.00348,3.4223-.00671,5.14154-.0097-.007-4.08887-.01239-8.1742-.01495-12.05127C495.05757,64.71221,493.40078,64.71533,491.75728,64.71862Z"/><path class="cls-2" d="M491.58858,76.77032c-7.097.0144-13.91724.03235-19.33911.048a25.38188,25.38188,0,0,0,9.66284,14.10816A25.38116,25.38116,0,0,0,491.58858,76.77032Z"/><path class="cls-2" d="M481.91231,49.858a25.3654,25.3654,0,0,0-9.85565,14.90948c5.49469-.01593,12.45972-.03424,19.70062-.04889A25.36615,25.36615,0,0,0,481.91231,49.858Z"/><path class="cls-2" d="M492.40529,70.39221a25.37518,25.37518,0,0,0-.648-5.67359c-7.2409.01465-14.20593.033-19.70062.04889a25.21578,25.21578,0,0,0,.19281,12.05078c5.42187-.01562,12.24213-.03357,19.33911-.048A25.3469,25.3469,0,0,0,492.40529,70.39221Z"/><path class="cls-2" d="M501.78377,64.70147c7.23987-.00976,14.19818-.01282,19.68207-.00281a25.36683,25.36683,0,0,0-9.8407-14.84063A25.36665,25.36665,0,0,0,501.78377,64.70147Z"/><path class="cls-2" d="M521.46584,64.69866c-5.48389-.01-12.4422-.007-19.68207.00281a25.25243,25.25243,0,0,0,.1601,12.05115c7.11169-.00952,13.94525-.01245,19.36334-.00293a25.25473,25.25473,0,0,0,.15863-12.051Z"/><path class="cls-2" d="M501.94387,76.75262a25.38094,25.38094,0,0,0,9.68127,14.17383,25.38094,25.38094,0,0,0,9.68207-14.17676C515.88912,76.74017,509.05556,76.7431,501.94387,76.75262Z"/><circle class="cls-2" cx="276.76975" cy="370.01386" r="7.48015"/><circle class="cls-2" cx="644.54386" cy="375.83176" r="7.48015"/><circle class="cls-2" cx="222.74644" cy="185.50346" r="7.48015"/><circle class="cls-2" cx="171.06011" cy="414.83911" r="7.47833"/><circle class="cls-2" cx="150.85387" cy="172.62098" r="4.15564"/><circle class="cls-2" cx="570.98904" cy="94.49495" r="4.15564"/><circle class="cls-2" cx="579.71589" cy="105.71518" r="4.15564"/><circle class="cls-2" cx="624.18123" cy="315.15942" r="4.15564"/><circle class="cls-2" cx="701.82073" cy="75.84599" r="4.15564"/><circle class="cls-2" cx="586.78047" cy="94.07939" r="4.15564"/><circle class="cls-2" cx="275.52306" cy="64.98991" r="4.15564"/><circle class="cls-3" cx="171.13382" cy="418.29999" r="7.47833"/><circle class="cls-3" cx="149.85387" cy="173.62098" r="4.15564"/><circle class="cls-3" cx="274.52306" cy="65.98991" r="4.15564"/><circle class="cls-2" cx="571.74059" cy="92.69125" r="4.15564"/><circle class="cls-4" cx="580.46743" cy="103.91148" r="4.15564"/><circle class="cls-3" cx="587.53202" cy="92.27568" r="4.15564"/><circle class="cls-4" cx="274.92377" cy="373.20638" r="7.48015"/><circle class="cls-3" cx="625.53534" cy="313.39871" r="4.47405"/><circle class="cls-4" cx="645.88156" cy="374.90802" r="7.48015"/><circle class="cls-4" cx="221.74644" cy="186.50346" r="7.48015"/><path class="cls-3" d="M494.47616,62.38252c1.64349-.00329,3.30029-.00641,4.95788-.00928-.00549-8.134.00116-15.33563.03022-19.66558a25.22611,25.22611,0,0,0-14.83307,4.81427A25.36624,25.36624,0,0,1,494.47616,62.38252Z"/><path class="cls-3" d="M494.30746,74.43422a25.38128,25.38128,0,0,1-9.67627,14.15613,25.22716,25.22716,0,0,0,14.85638,4.81518l.00379-.00012c-.01532-5.73273-.031-12.35541-.04236-18.9809C497.72976,74.4275,496.011,74.43074,494.30746,74.43422Z"/><path class="cls-3" d="M499.434,62.37324c1.69477-.00286,3.3888-.00561,5.06861-.00787A25.36665,25.36665,0,0,1,514.344,47.52193a25.22734,25.22734,0,0,0-14.85645-4.81519l-.02331.00092C499.4352,47.03761,499.42855,54.23927,499.434,62.37324Z"/><path class="cls-3" d="M504.66274,74.41652c-1.72735.00232-3.47.005-5.21374.008.01135,6.62549.027,13.24817.04236,18.9809A25.22755,25.22755,0,0,0,514.344,88.59035,25.381,25.381,0,0,1,504.66274,74.41652Z"/><path class="cls-3" d="M499.449,74.42451c1.74371-.003,3.48639-.00567,5.21374-.008a25.25225,25.25225,0,0,1-.16009-12.05115c-1.67981.00226-3.37384.005-5.06861.00787C499.43661,66.25032,499.442,70.33565,499.449,74.42451Z"/><path class="cls-3" d="M494.47616,62.38252a25.24166,25.24166,0,0,1-.1687,12.0517c1.70355-.00348,3.4223-.00672,5.14154-.00971-.007-4.08886-.01239-8.17419-.015-12.05127C497.77645,62.37611,496.11965,62.37923,494.47616,62.38252Z"/><path class="cls-3" d="M494.30746,74.43422c-7.097.0144-13.91724.03235-19.33912.048a25.382,25.382,0,0,0,9.66285,14.10816A25.38128,25.38128,0,0,0,494.30746,74.43422Z"/><path class="cls-3" d="M484.63119,47.52193a25.36546,25.36546,0,0,0-9.85566,14.90948c5.49469-.01593,12.45972-.03424,19.70063-.04889A25.36624,25.36624,0,0,0,484.63119,47.52193Z"/><path class="cls-3" d="M495.12417,68.05611a25.37518,25.37518,0,0,0-.648-5.67359c-7.24091.01465-14.20594.033-19.70063.04889a25.21578,25.21578,0,0,0,.19281,12.05078c5.42188-.01562,12.24213-.03357,19.33912-.048A25.3469,25.3469,0,0,0,495.12417,68.05611Z"/><path class="cls-3" d="M504.50265,62.36537c7.23986-.00977,14.19818-.01282,19.68206-.00281A25.3668,25.3668,0,0,0,514.344,47.52193,25.36665,25.36665,0,0,0,504.50265,62.36537Z"/><path class="cls-3" d="M524.18471,62.36256c-5.48388-.01-12.4422-.007-19.68206.00281a25.25225,25.25225,0,0,0,.16009,12.05115c7.1117-.00952,13.94525-.01245,19.36334-.00293a25.2544,25.2544,0,0,0,.15863-12.051Z"/><path class="cls-3" d="M504.66274,74.41652A25.381,25.381,0,0,0,514.344,88.59035a25.381,25.381,0,0,0,9.68206-14.17676C518.608,74.40407,511.77444,74.407,504.66274,74.41652Z"/><path class="cls-4" d="M192.01659,236.72538a18.4913,18.4913,0,0,1,7.34747-14.7558l-4.70923-6.75677a26.764,26.764,0,0,0-9.15289,30.90039l8.21283-1.67041A18.44073,18.44073,0,0,1,192.01659,236.72538Z"/><path class="cls-3" d="M227.34654,228.89793a18.52541,18.52541,0,0,1-28.43988,22.24115l-5.22369,6.343a26.75025,26.75025,0,0,0,41.21539-31.85492Z"/><path class="cls-3" d="M210.55718,218.18479a18.52587,18.52587,0,0,1,16.78936,10.71314l7.55182-3.27082a26.74989,26.74989,0,0,0-40.24353-10.4143l4.70923,6.75677A18.43467,18.43467,0,0,1,210.55718,218.18479Z"/><path class="cls-2" d="M193.71477,244.44279l-8.21283,1.67041a26.80911,26.80911,0,0,0,8.181,11.36883l5.22369-6.343A18.58778,18.58778,0,0,1,193.71477,244.44279Z"/><path class="cls-2" d="M539.70487,196.75954s-3.65813,2.54431-5.17723,3.65149c-9.94379,7.24755-19.79749,14.62036-29.81219,21.768-2.93995,2.09827-6.96485,3.59363-9.33637.01264-2.25049-3.39795.96082-6.02124,3.66-8.084,1.04761-.80054,2.16413-1.51013,3.22565-2.29315,4.94678-3.64911,9.91187-7.27454,14.80512-10.99433,1.01208-.76934,2.198-1.87249,1.5263-3.32415-.846-1.82825-2.64685-1.361-4.04254-.9018a30.23241,30.23241,0,0,0-4.72742,2.28632c-9.09784,4.89191-18.13116,9.9071-27.29156,14.6784-4.25989,2.21879-6.57669,2.37167-7.80849.0344a6.04241,6.04241,0,0,1,2.12142-7.7282c6.68419-4.49081,13.89728-8.11222,20.72277-12.36558,2.55378-1.59143,7.65888-2.77814,5.809-6.56647-1.66742-3.4148-5.38556.1095-7.94,1.09387-7.70709,2.97009-15.23962,6.38977-22.90539,9.472-3.57678,1.43817-8.22461,3.57586-10.26459-1.08026-1.91644-4.37409,3.20746-5.47687,6.05548-6.94288,8.50922-4.38,17.1861-8.43365,25.78559-12.6394,1.7088-.83575,4.04821-1.74023,3.09436-4.05078-.83075-2.01245-2.88593-.83215-4.61731-.5423-8.79743,1.47278-17.27784,4.13489-25.83692,6.51862-2.4472.68158-5.18054.76648-6.23614-1.99176-.96356-2.51758.19415-4.66815,2.94824-5.72382,2.0274-.7771,3.92432-1.92114,5.98041-2.59228,10.951-3.57471,21.981-6.91425,32.8797-10.639,3.71289-1.269,7.878-3.34668,7.00915-8.1698-.86517-4.80341-5.15283-6.23828-9.56-6.14588a23.0588,23.0588,0,0,1-8.98278-1.5899c-3.63391-1.43329-8.169-3.36884-7.15613-8.09357,1.01379-4.7287,5.82117-2.59124,9.01648-2.70471,7.01965-.24933,14.05432-.07739,21.60565-.07739C476.38573,85.01308,410.10436,70.24477,354.64092,94.60988c-49.77917,21.868-75.96155,69.824-73.73157,108.33935.96894-.42938,1.03907-1.73419,1.71869-2.49359A308.12406,308.12406,0,0,0,307.82141,169.104a17.38822,17.38822,0,0,1,6.99925-6.00814c5.64209-2.60968,9.13212-1.15466,11.09236,5.09859,2.616,8.345-1.34632,15.41925-5.56672,21.92249-3.55126,5.47223-8.46606,10.04327-12.5653,15.18231-2.47852,3.10718-4.94715,6.81781-2.10236,10.6626,2.46253,3.32818,6.33643,2.89691,10.22955,2.074,12.48749-2.6394,23.76227-8.09515,34.798-14.22955,13.53351-7.523,26.12921-16.71393,40.535-22.69031,5.37671-2.23053,11.0177-3.8457,14.36243,2.39063,3.33966,6.22687-2.38825,9.09271-6.36371,11.85449-13.43951,9.33643-27.10821,18.34235-40.58679,27.62347-2.8783,1.98194-8.20215,4.08368-6.0957,7.9112,2.293,4.16656,6.51458-.15888,9.67016-1.23035,19.10278-6.4862,36.89026-16.58587,56.93231-20.53845,8.55222-1.68666,13.153,1.51411,12.56042,8.61885a5.73852,5.73852,0,0,1-3.50562,4.77089c-4.07937,1.727-8.14445,3.49187-12.28783,5.04837-15.43384,5.79779-30.96954,11.35547-45.11621,20.03125-1.8363,1.12616-4.33539,2.5047-3.59778,4.964.80383,2.68011,3.74988,1.80481,5.77741,1.69763a115.3636,115.3636,0,0,0,41.392-9.95886c4.02954-1.80444,8.04089-3.51929,12.635-3.2041,6.19079.42468,8.55474,4.25439,5.8919,9.91278-2.11,4.48358-6.17694,6.72363-10.43548,8.62988-14.535,6.50635-29.90229,10.141-45.4281,13.3197-4.66913.95594-9.68177.71473-13.91687,3.58606-2.13105,1.44483-4.13617,3.13593-3.60572,5.75727.55286,2.73193,3.278,3.46844,5.72315,3.53558,5.70154.15662,11.409.50317,17.10925-.37878q15.59976-2.41361,31.23944-4.56592c3.9884-.54993,7.05786,1.06531,8.06452,5.09363,1.03918,4.15838-2.002,6.06976-5.19953,7.21228a51.98393,51.98393,0,0,1-8.97113,2.02441q-32.45361,5.39658-64.92383,10.69373c-1.31122.21539-4.85238.59049-4.85238.59049,13.96447,10.966,31.93232,17.72185,49.37042,20.46994q4.12815.65057,8.29526,1.009c34.08422,2.96082,66.2382-3.57232,94.291-24.24376,12.2351-9.01575,23.31517-19.72473,31.94182-32.282a109.801,109.801,0,0,0,17.09716-40.2675,118.99334,118.99334,0,0,0,2.00657-14.41707,92.71333,92.71333,0,0,0,.49458-11.21647C541.17607,204.78714,539.61811,196.81919,539.70487,196.75954Z"/><path class="cls-5" d="M538.57044,198.86446s-3.65812,2.54431-5.17723,3.65149c-9.94378,7.24756-19.79748,14.62036-29.81219,21.768-2.93994,2.09827-6.96485,3.59363-9.33637.01264-2.25049-3.398.96082-6.02124,3.66-8.08405,1.0476-.80054,2.16412-1.51013,3.22564-2.29315,4.94678-3.64911,9.91187-7.27454,14.80512-10.99432,1.01208-.76935,2.198-1.8725,1.52631-3.32416-.846-1.82825-2.64686-1.361-4.04255-.9018a30.23277,30.23277,0,0,0-4.72741,2.28632c-9.09784,4.89191-18.13117,9.9071-27.29157,14.67841-4.25989,2.21879-6.57669,2.37166-7.80849.03439a6.04242,6.04242,0,0,1,2.12142-7.7282c6.68419-4.49081,13.89728-8.11222,20.72278-12.36558,2.55377-1.59143,7.65887-2.77814,5.809-6.56647-1.66742-3.41479-5.38556.1095-7.93994,1.09387-7.7071,2.9701-15.23963,6.38977-22.9054,9.472-3.57678,1.43817-8.22461,3.57587-10.26459-1.08026-1.91644-4.37409,3.20746-5.47687,6.05548-6.94287,8.50922-4.38,17.1861-8.43366,25.78559-12.63941,1.7088-.83575,4.04822-1.74023,3.09436-4.05078-.83075-2.01245-2.88593-.83215-4.61731-.5423-8.79743,1.47278-17.27783,4.13489-25.83691,6.51862-2.44721.68158-5.18055.76648-6.23615-1.99176-.96356-2.51758.19415-4.66815,2.94824-5.72382,2.02741-.7771,3.92432-1.92114,5.98041-2.59228,10.951-3.57471,21.981-6.91425,32.8797-10.639,3.71289-1.269,7.878-3.34668,7.00915-8.1698-.86517-4.8034-5.15283-6.23828-9.56-6.14587a23.05907,23.05907,0,0,1-8.98279-1.58991c-3.63391-1.43329-8.169-3.36883-7.15613-8.09356,1.0138-4.7287,5.82117-2.59125,9.01648-2.70472,7.01965-.24933,14.05432-.07739,21.60565-.07739C475.25131,87.118,408.96993,72.34969,353.50649,96.7148c-49.77917,21.868-75.96154,69.824-73.73156,108.33936.96893-.42939,1.03906-1.7342,1.71869-2.4936A308.12679,308.12679,0,0,0,306.687,171.20894a17.38817,17.38817,0,0,1,6.99924-6.00813c5.64209-2.60969,9.13212-1.15466,11.09236,5.09859,2.616,8.345-1.34631,15.41925-5.56671,21.92248-3.55127,5.47223-8.46607,10.04327-12.56531,15.18231-2.47852,3.10718-4.94714,6.81781-2.10236,10.6626,2.46253,3.32819,6.33643,2.89691,10.22956,2.074,12.48748-2.63941,23.76226-8.09516,34.798-14.22956,13.53351-7.523,26.12921-16.71393,40.535-22.69031,5.37671-2.23052,11.0177-3.8457,14.36243,2.39063,3.33966,6.22687-2.38824,9.09271-6.36371,11.85449-13.43951,9.33643-27.10821,18.34235-40.58679,27.62348-2.87829,1.98193-8.20215,4.08368-6.0957,7.91119,2.293,4.16657,6.51459-.15887,9.67016-1.23035,19.10279-6.4862,36.89026-16.58587,56.93232-20.53845,8.55221-1.68665,13.153,1.51411,12.56042,8.61885a5.73855,5.73855,0,0,1-3.50563,4.7709c-4.07936,1.727-8.14444,3.49186-12.28783,5.04836-15.43383,5.79779-30.96954,11.35547-45.11621,20.03125-1.8363,1.12616-4.33539,2.5047-3.59778,4.964.80384,2.68012,3.74988,1.80481,5.77741,1.69763a115.3636,115.3636,0,0,0,41.392-9.95886c4.02954-1.80444,8.04089-3.51929,12.635-3.2041,6.19079.42468,8.55475,4.25439,5.8919,9.91278-2.11,4.48358-6.17694,6.72363-10.43548,8.62988-14.535,6.50635-29.90228,10.141-45.4281,13.31971-4.66913.95593-9.68176.71472-13.91687,3.58606-2.131,1.44482-4.13617,3.13592-3.60571,5.75726.55285,2.73193,3.278,3.46844,5.72314,3.53558,5.70154.15662,11.409.50318,17.10925-.37878q15.59976-2.41361,31.23944-4.56592c3.98841-.54993,7.05786,1.06531,8.06452,5.09363,1.03918,4.15838-2.002,6.06976-5.19953,7.21228a51.98393,51.98393,0,0,1-8.97113,2.02441q-32.45361,5.39658-64.92382,10.69373c-1.31122.21539-4.85239.59049-4.85239.59049,13.96447,10.966,31.93232,17.72185,49.37042,20.47q4.12815.65055,8.29526,1.00895c34.08422,2.96082,66.23821-3.57232,94.291-24.24376,12.23509-9.01575,23.31516-19.72473,31.94181-32.282a109.801,109.801,0,0,0,17.09716-40.2675,118.99545,118.99545,0,0,0,2.00658-14.41706,92.71561,92.71561,0,0,0,.49457-11.21648C540.04164,206.89206,538.48368,198.92411,538.57044,198.86446Z"/><path class="cls-6" d="M539.63141,196.57518s-3.65812,2.54431-5.17723,3.65148c-9.94378,7.24756-19.79748,14.62037-29.81219,21.768-2.93994,2.09827-6.96484,3.59363-9.33636.01263-2.25049-3.39795.96081-6.02124,3.66-8.084,1.04761-.80054,2.16412-1.51013,3.22565-2.29315,4.94677-3.64911,9.91186-7.27454,14.80511-10.99433,1.01209-.76934,2.198-1.87249,1.52631-3.32415-.846-1.82825-2.64685-1.361-4.04254-.9018a30.232,30.232,0,0,0-4.72742,2.28632c-9.09784,4.8919-18.13117,9.9071-27.29157,14.6784-4.25988,2.21879-6.57668,2.37167-7.80849.03439a6.0424,6.0424,0,0,1,2.12143-7.72819c6.68418-4.49081,13.89728-8.11222,20.72277-12.36558,2.55377-1.59144,7.65887-2.77814,5.809-6.56647-1.66742-3.4148-5.38556.1095-7.93994,1.09387-7.70709,2.97009-15.23962,6.38977-22.9054,9.472-3.57678,1.43817-8.22461,3.57586-10.26458-1.08027-1.91645-4.37408,3.20745-5.47686,6.05548-6.94287,8.50921-4.38,17.18609-8.43365,25.78558-12.6394,1.7088-.83576,4.04822-1.74024,3.09436-4.05078-.83075-2.01245-2.88592-.83216-4.61731-.5423-8.79742,1.47278-17.27783,4.13489-25.83691,6.51862-2.44721.68158-5.18054.76648-6.23615-1.99176-.96356-2.51758.19416-4.66816,2.94824-5.72382,2.02741-.7771,3.92432-1.92114,5.98041-2.59229,10.951-3.5747,21.981-6.91424,32.8797-10.639,3.71289-1.269,7.878-3.34668,7.00916-8.1698-.86518-4.80341-5.15283-6.23828-9.56-6.14588a23.05906,23.05906,0,0,1-8.98279-1.5899c-3.63391-1.43329-8.169-3.36884-7.15613-8.09357,1.0138-4.7287,5.82117-2.59125,9.01648-2.70471,7.01966-.24933,14.05432-.07739,21.60565-.07739C476.31228,84.82872,410.03091,70.0604,354.56747,94.42552c-49.77918,21.868-75.96155,69.824-73.73157,108.33935.96893-.42938,1.03906-1.73419,1.71869-2.49359A308.12679,308.12679,0,0,0,307.748,168.91966a17.38815,17.38815,0,0,1,6.99925-6.00814c5.64208-2.60968,9.13211-1.15466,11.09235,5.09859,2.616,8.345-1.34631,15.41925-5.56671,21.92249-3.55127,5.47223-8.46607,10.04327-12.56531,15.18231-2.47851,3.10718-4.94714,6.81781-2.10235,10.6626,2.46252,3.32818,6.33642,2.89691,10.22955,2.074,12.48749-2.6394,23.76227-8.09515,34.798-14.22955,13.53351-7.523,26.12921-16.71393,40.535-22.69031,5.37671-2.23053,11.0177-3.8457,14.36242,2.39063,3.33966,6.22686-2.38824,9.09271-6.3637,11.85449-13.43952,9.33642-27.10822,18.34234-40.5868,27.62347-2.87829,1.98194-8.20215,4.08368-6.0957,7.9112,2.293,4.16656,6.51459-.15888,9.67017-1.23035,19.10278-6.48621,36.89025-16.58588,56.93231-20.53845,8.55221-1.68666,13.153,1.51411,12.56042,8.61885a5.73854,5.73854,0,0,1-3.50563,4.77089c-4.07936,1.727-8.14444,3.49187-12.28782,5.04837-15.43384,5.79779-30.96955,11.35547-45.11622,20.03125-1.8363,1.12616-4.33538,2.5047-3.59777,4.96405.80383,2.68011,3.74987,1.80481,5.7774,1.69763a115.3636,115.3636,0,0,0,41.392-9.95886c4.02954-1.80445,8.04089-3.51929,12.635-3.2041,6.1908.42468,8.55475,4.25439,5.89191,9.91278-2.11005,4.48358-6.17694,6.72363-10.43549,8.62988-14.535,6.50635-29.90228,10.141-45.4281,13.3197-4.66913.95593-9.68176.71472-13.91687,3.58606-2.131,1.44483-4.13617,3.13593-3.60571,5.75727.55285,2.73193,3.278,3.46844,5.72314,3.53558,5.70154.15661,11.409.50317,17.10925-.37879q15.59978-2.41361,31.23945-4.56591c3.9884-.54993,7.05786,1.0653,8.06451,5.09362,1.03918,4.15839-2.002,6.06977-5.19952,7.21228a51.98324,51.98324,0,0,1-8.97113,2.02442q-32.45362,5.39658-64.92383,10.69372c-1.31122.2154-4.85239.5905-4.85239.5905,13.96447,10.96595,31.93232,17.72185,49.37042,20.46994q4.12815.65056,8.29526,1.009c34.08422,2.96082,66.23821-3.57232,94.291-24.24376,12.23509-9.01575,23.31516-19.72473,31.94181-32.282a109.80111,109.80111,0,0,0,17.09716-40.2675,118.99364,118.99364,0,0,0,2.00658-14.41707,92.71554,92.71554,0,0,0,.49457-11.21647C541.10261,204.60278,539.54465,196.63483,539.63141,196.57518Z"/><polyline class="cls-6" points="520.74 273.448 589.677 272.95 621.034 312.271"/><path class="cls-2" d="M387.49738,360.88129c0,9.20807,38.3255,79.38842,38.3255,79.38842a137.69538,137.69538,0,0,1,17.75482,30.33112h93.44873c1.10132-11.32294,6.46655-23.19812,7.7547-29.08673,1.74206-7.96375,7.7149-34.09479,8.46148-40.06757s4.47962-11.44787,6.22168-16.67407,1.74207-35.09021-.74658-43.5517c-2.48871-8.46142-18.91388-7.466-18.91388-7.466s4.9773-25.1355-4.23077-32.35266c-16.77307-13.14648-22.398,2.23981-22.398,2.23981s-4.23077-26.62873-7.21716-29.36628-10.7013-4.47961-16.92292,0c-1.62713,1.17151-3.2019,4.34449-4.6557,8.51966.19355-.69757.30976-1.11341.30976-1.11341s-13.605,30.59357-11.24091,34.13978c2.18659,3.28,3.26123,2.30175,3.41052,2.136-.11621.92316-.208,1.72864-.267,2.35834-.74658,7.96374-5.475,13.68768-6.71942,11.44787-1.24432-2.2398,1.24439-46.28918,1.24439-46.28918l-7.317-56.36017-1.89111-14.56689s-6.96832-9.20807-14.932-2.98639c-7.96374,6.22168-6.22168,46.78692-5.4751,58.2348s-2.2398,40.06757-1.9909,48.529c.24884,8.46143-9.457,49.27558-9.457,49.27558l-13.93652-19.9093c1.24432-19.16279-11.94562-33.34815-22.398-35.83686-10.4524-2.48865-10.70124,3.733-10.70124,3.733,3.48413,4.72846,5.72388,18.91388,5.97278,25.13556C389.23944,346.9447,387.49738,351.67322,387.49738,360.88129Z"/><path class="cls-7" d="M384.50366,363.875c0,9.20807,38.3255,79.38843,38.3255,79.38843a136.88772,136.88772,0,0,1,16.43683,27.3374h95.15c1.63019-10.37012,6.19654-20.722,7.37146-26.093,1.74207-7.96374,7.71491-34.09479,8.46149-40.06756s4.47962-11.44788,6.22168-16.67408,1.74207-35.09021-.74658-43.55169c-2.48871-8.46143-18.91388-7.466-18.91388-7.466s4.97729-25.13549-4.23077-32.35266c-16.77308-13.14648-22.39795,2.23981-22.39795,2.23981s-4.23078-26.62872-7.21717-29.36627-10.70129-4.47962-16.92291,0c-1.62714,1.17151-3.2019,4.34448-4.6557,8.51965.19354-.69757.30975-1.1134.30975-1.1134s-13.605,30.59357-11.2409,34.13977c2.18658,3.28,3.26123,2.30176,3.41052,2.136-.11621.92316-.208,1.72864-.267,2.35834-.74658,7.96375-5.475,13.68769-6.71942,11.44788-1.24432-2.23981,1.24438-46.28919,1.24438-46.28919l-7.317-56.36016-1.89111-14.5669s-6.96833-9.20807-14.932-2.98639c-7.96375,6.22168-6.22168,46.78693-5.4751,58.2348s-2.23981,40.06757-1.9909,48.52906c.24884,8.46142-9.457,49.27557-9.457,49.27557l-13.93653-19.9093c1.24433-19.16278-11.94562-33.34815-22.398-35.83685s-10.70123,3.733-10.70123,3.733c3.48413,4.72845,5.72388,18.91388,5.97278,25.13556C386.24573,349.93842,384.50366,354.66693,384.50366,363.875Z"/><path class="cls-6" d="M386.49951,360.38232c0,9.20807,38.3255,79.38849,38.3255,79.38849a137.84567,137.84567,0,0,1,17.968,30.83h93.185c.98846-11.47119,6.49817-23.6106,7.80523-29.58569,1.74207-7.96375,7.71491-34.09473,8.46149-40.06757.74658-5.97278,4.47962-11.44788,6.22168-16.67407s1.74207-35.09021-.74664-43.55164c-2.48865-8.46148-18.91388-7.466-18.91388-7.466s4.97735-25.13556-4.23071-32.35266c-16.77308-13.14649-22.398,2.23974-22.398,2.23974s-4.23072-26.62872-7.21711-29.36627c-2.98639-2.73749-10.70129-4.47955-16.923,0-6.22162,4.47962-11.69672,38.07666-12.4433,46.04035-.74664,7.96374-5.4751,13.68768-6.71942,11.44787s1.24432-46.28918,1.24432-46.28918l-7.31689-56.36017-1.89118-14.56683s-6.96826-9.20807-14.932-2.98639c-7.96375,6.22162-6.22168,46.78692-5.475,58.2348.74658,11.44788-2.23981,40.0675-1.991,48.529.24891,8.46149-9.4569,49.27557-9.4569,49.27557l-13.93653-19.9093c1.24433-19.16272-11.94562-33.34814-22.398-35.83679-10.45239-2.48871-10.70129,3.733-10.70129,3.733,3.48413,4.72846,5.72394,18.91388,5.97284,25.13556C388.24158,346.4458,386.49951,351.17426,386.49951,360.38232Z"/><path class="cls-6" d="M445.97865,211.0623s.99547,14.932,3.98187,18.41614,12.84127-.86289,12.84127-.86289"/><path class="cls-6" d="M512.1772,303.143s1.24433,26.62873-2.73753,33.09927"/><path class="cls-6" d="M538.80594,333.25586s-2.73754,23.1446-5.47507,26.8776"/><line class="cls-6" x1="429.05572" y1="367.10173" x2="424.82498" y2="389.25087"/><path class="cls-6" d="M387.56016,334.43715s7.42341-3.0567,7.20507-5.45839-2.33863-16.94126-8.01535-17.59627"/><path class="cls-6" d="M483.6912,281.183s-13.60505,30.59356-11.2409,34.13978,3.43075,2.11277,3.43075,2.11277,2.04386-13.46268,3.11034-18.46039C479.872,294.84859,483.6912,281.183,483.6912,281.183Z"/><line class="cls-6" x1="580.71731" y1="301.07195" x2="638.20552" y2="371.7501"/><polyline class="cls-6" points="694.449 371.75 662.346 372.248 663.092 331.931 687.73 311.275 724.562 311.275 724.562 344.375"/><polyline class="cls-6" points="499.587 115.666 523.727 94.761 567.279 94.761"/><line class="cls-6" x1="336.3302" y1="103.72065" x2="279.09086" y2="67.13724"/><path class="cls-6" d="M277.95147,105.73711c-.7466-.24887-42.55621,0-42.55621,0"/><line class="cls-6" x1="277.95147" y1="123.93203" x2="200.05619" y2="123.93203"/><path class="cls-6" d="M277.95147,142.07165c-1.74207.49773-106.51495,0-106.51495,0"/><line class="cls-6" x1="283.57046" y1="172.159" x2="154.6575" y2="172.159"/><line class="cls-6" x1="281.82839" y1="184.35346" x2="230.06412" y2="184.35346"/><line class="cls-6" x1="344.29394" y1="311.77322" x2="283.32159" y2="367.02163"/><polyline class="cls-6" points="337.711 354.782 279.506 414.804 177.719 414.804"/><line class="cls-6" x1="313.43446" y1="314.79136" x2="255.44852" y2="314.79136"/><line class="cls-6" x1="308.20826" y1="323.25282" x2="261.17245" y2="323.25282"/><line class="cls-6" x1="167.34971" y1="203.26733" x2="117.3275" y2="203.26733"/><line class="cls-6" x1="167.34971" y1="212.97314" x2="117.3275" y2="212.97314"/><line class="cls-6" x1="167.34971" y1="222.67894" x2="117.3275" y2="222.67894"/><line class="cls-6" x1="599.26652" y1="232.66481" x2="549.24431" y2="232.66481"/><line class="cls-6" x1="599.26652" y1="242.37061" x2="549.24431" y2="242.37061"/><line class="cls-6" x1="599.26652" y1="252.07642" x2="549.24431" y2="252.07642"/><path class="cls-6" d="M189.74773,237.85981a18.49129,18.49129,0,0,1,7.34748-14.7558l-4.70923-6.75678a26.764,26.764,0,0,0-9.1529,30.90039l8.21283-1.67041A18.44065,18.44065,0,0,1,189.74773,237.85981Z"/><path class="cls-6" d="M225.07769,230.03235a18.52541,18.52541,0,0,1-28.43988,22.24115l-5.2237,6.343a26.75026,26.75026,0,0,0,41.2154-31.85492Z"/><path class="cls-6" d="M208.28832,219.31922a18.52589,18.52589,0,0,1,16.78937,10.71313l7.55182-3.27081A26.74991,26.74991,0,0,0,192.386,216.34723l4.70923,6.75678A18.43466,18.43466,0,0,1,208.28832,219.31922Z"/><path class="cls-6" d="M191.44591,245.57721l-8.21283,1.67041a26.80916,26.80916,0,0,0,8.181,11.36884l5.2237-6.343A18.58764,18.58764,0,0,1,191.44591,245.57721Z"/><path class="cls-8" d="M465.36071,233.33636a19.07771,19.07771,0,0,0,8.41962-15.83541"/><path class="cls-8" d="M454.68349,198.40411a19.11034,19.11034,0,0,0-18.033,25.39761"/><path class="cls-6" d="M491.75728,64.71862c1.6435-.00329,3.30029-.00641,4.95789-.00927-.0055-8.134.00116-15.33564.03021-19.66559A25.22613,25.22613,0,0,0,481.91231,49.858,25.36615,25.36615,0,0,1,491.75728,64.71862Z"/><path class="cls-6" d="M491.58858,76.77032a25.38116,25.38116,0,0,1-9.67627,14.15613,25.22717,25.22717,0,0,0,14.85639,4.81518l.00378-.00012c-.01532-5.73273-.031-12.35541-.04236-18.98089C495.01088,76.76361,493.29213,76.76684,491.58858,76.77032Z"/><path class="cls-6" d="M496.71517,64.70935c1.69476-.00287,3.38879-.00562,5.0686-.00788A25.36665,25.36665,0,0,1,511.62514,49.858a25.22735,25.22735,0,0,0-14.85644-4.81519l-.02332.00092C496.71633,49.37371,496.70967,56.57537,496.71517,64.70935Z"/><path class="cls-6" d="M501.94387,76.75262c-1.72736.00232-3.47.005-5.21375.008.01135,6.62548.027,13.24816.04236,18.98089a25.22743,25.22743,0,0,0,14.85266-4.81506A25.38094,25.38094,0,0,1,501.94387,76.75262Z"/><path class="cls-6" d="M496.73012,76.76062c1.74371-.003,3.48639-.00568,5.21375-.008a25.25243,25.25243,0,0,1-.1601-12.05115c-1.67981.00226-3.37384.005-5.0686.00788C496.71773,68.58642,496.7231,72.67175,496.73012,76.76062Z"/><path class="cls-6" d="M491.75728,64.71862a25.24166,25.24166,0,0,1-.1687,12.0517c1.70355-.00348,3.4223-.00671,5.14154-.0097-.007-4.08887-.01239-8.1742-.01495-12.05127C495.05757,64.71221,493.40078,64.71533,491.75728,64.71862Z"/><path class="cls-6" d="M491.58858,76.77032c-7.097.0144-13.91724.03235-19.33911.048a25.38188,25.38188,0,0,0,9.66284,14.10816A25.38116,25.38116,0,0,0,491.58858,76.77032Z"/><path class="cls-6" d="M481.91231,49.858a25.3654,25.3654,0,0,0-9.85565,14.90948c5.49469-.01593,12.45972-.03424,19.70062-.04889A25.36615,25.36615,0,0,0,481.91231,49.858Z"/><path class="cls-6" d="M492.40529,70.39221a25.37518,25.37518,0,0,0-.648-5.67359c-7.2409.01465-14.20593.033-19.70062.04889a25.21578,25.21578,0,0,0,.19281,12.05078c5.42187-.01562,12.24213-.03357,19.33911-.048A25.3469,25.3469,0,0,0,492.40529,70.39221Z"/><path class="cls-6" d="M501.78377,64.70147c7.23987-.00976,14.19818-.01282,19.68207-.00281a25.36683,25.36683,0,0,0-9.8407-14.84063A25.36665,25.36665,0,0,0,501.78377,64.70147Z"/><path class="cls-6" d="M521.46584,64.69866c-5.48389-.01-12.4422-.007-19.68207.00281a25.25243,25.25243,0,0,0,.1601,12.05115c7.11169-.00952,13.94525-.01245,19.36334-.00293a25.25473,25.25473,0,0,0,.15863-12.051Z"/><path class="cls-6" d="M501.94387,76.75262a25.38094,25.38094,0,0,0,9.68127,14.17383,25.38094,25.38094,0,0,0,9.68207-14.17676C515.88912,76.74017,509.05556,76.7431,501.94387,76.75262Z"/><circle class="cls-6" cx="276.76975" cy="370.01386" r="7.48015"/><circle class="cls-6" cx="644.54386" cy="375.83176" r="7.48015"/><circle class="cls-6" cx="222.74644" cy="185.50346" r="7.48015"/><circle class="cls-6" cx="170.44828" cy="414.83911" r="7.47833"/><circle class="cls-6" cx="150.85387" cy="172.62098" r="4.15564"/><circle class="cls-6" cx="570.98904" cy="94.49495" r="4.15564"/><circle class="cls-6" cx="579.71589" cy="105.71518" r="4.15564"/><circle class="cls-6" cx="624.18123" cy="315.15942" r="4.15564"/><circle class="cls-3" cx="703.17484" cy="77.6067" r="4.47405"/><polyline class="cls-6" points="523.929 117.558 667.316 118.055 698.673 78.734"/><circle class="cls-6" cx="701.82073" cy="75.84599" r="4.15564"/><circle class="cls-6" cx="586.78047" cy="94.07939" r="4.15564"/><circle class="cls-6" cx="275.52306" cy="64.98991" r="4.15564"/></g></svg>