<?xml version="1.0" encoding="utf-8"?>
<!-- Generator: Adobe Illustrator 24.0.3, SVG Export Plug-In . SVG Version: 6.00 Build 0)  -->
<svg version="1.1" xmlns="http://www.w3.org/2000/svg" xmlns:xlink="http://www.w3.org/1999/xlink" x="0px" y="0px"
	 viewBox="0 0 841.89 467.72" style="enable-background:new 0 0 841.89 467.72;" xml:space="preserve">
<style type="text/css">
	.st0{fill:#F5C65D;}
	.st1{fill:#FFFFFF;}
	.st2{fill:#F4F4F5;}
	.st3{fill:#4890BA;}
	.st4{fill:none;stroke:#54565A;stroke-miterlimit:10;}
	.st5{fill:#E0635D;}
	.st6{fill:#61A575;}
	.st7{fill:none;stroke:#FFFFFF;stroke-miterlimit:10;}
	.st8{fill:none;stroke:#54565A;stroke-width:0.8763;stroke-miterlimit:10;}
	.st9{fill:#54565A;}
	.st10{fill:none;}
	.st11{fill:#54575C;}
	.st12{fill:none;stroke:#54575C;stroke-miterlimit:10;}
	.st13{fill:none;stroke:#54575C;stroke-width:0.965;stroke-miterlimit:10;}
</style>
<g id="Layer_1">
</g>
<g id="Layer_2">
</g>
<g id="Layer_3">
	<g>
		<rect class="st0" width="841.89" height="467.72"/>
		<g>
			<path class="st1" d="M422.4,393.8L491,432.54l-22.76-43.19C457.74,390.45,440.98,392.15,422.4,393.8z"/>
			<path class="st1" d="M360.63,358.91l28.11,15.87c27.06-0.79,56.09-3.09,69.59-4.25l-21.74-41.25l-75.5,23.31
				C358.32,353.66,358.05,357.45,360.63,358.91z"/>
			<path class="st1" d="M458.32,370.53c-13.5,1.17-42.52,3.47-69.59,4.25c-25.39,0.74-49.06,0.14-56.52-3.99
				c-7.64-4.22-15.68-10.79-22.48-17.01c-5.87-5.37-10.8-10.49-13.7-13.6c-7.06,1.03-16.18,2.12-22.99,2.08
				c3.38,4.67,8.43,11.53,14.13,18.83c12.51,16.04,28.11,34.23,35.89,36.18c12.89,3.22,60.11,0,99.34-3.48
				c18.57-1.65,35.34-3.35,45.83-4.45L458.32,370.53z"/>
			<path class="st1" d="M326.26,229.86c-3.11-9.8-17.93-9.8-17.93-9.8c5.5-14.35-32.28-4.78-48.3,6.22
				c-16.02,11-15.78,36.34-15.78,36.34c-2.15,17.45,15.06,19.37,15.06,19.37c-2.02,1.61-3.04,3.56-3.4,5.64
				c-0.04,0.23-0.07,0.47-0.09,0.71c-0.75,7.36,6.12,15.89,6.12,15.89s-5.02,33.71,3.35,37.06c1.71,0.68,4.47,0.97,7.76,0.99
				c6.81,0.04,15.93-1.05,22.99-2.08c2.91-0.43,5.47-0.84,7.38-1.16c1.97-0.33,3.35-2.1,3.21-4.09c-0.66-8.95-2.18-32.54-0.45-39.08
				c1.22-4.61,0.9-13.51,0.4-20.36c-0.01-0.15-0.02-0.29-0.03-0.44c-0.38-5.02-0.85-8.84-0.85-8.84
				C333.43,249.95,329.36,239.66,326.26,229.86z"/>
			<path class="st1" d="M138.08,300.4c-0.84,8.81-3.38,20.09-11.74,23.28l0.03,0.15c0,0-1.36,10.35-5.66,15.84
				c0.11,0.09,0.24,0.16,0.4,0.18c3.55,0.44,39.74-42.03,45.02-48.25l-3.77-21.62C157.1,276.54,146.41,289.89,138.08,300.4z"/>
			<path class="st1" d="M126.34,323.67c-0.89,0.34-1.85,0.57-2.88,0.71c-0.68,0.09-1.37,0.16-2.11,0.16c-11.72,0-20.43-3.84-26-9.49
				c-2.48,3.73,11,27.12,18.83,27.9c2.7,0.27,4.84-1.14,6.54-3.29c4.3-5.49,5.66-15.84,5.66-15.84L126.34,323.67z"/>
			<path class="st1" d="M188.05,177.5c0,0-18.45-32.43-45.73-22.55c-2.99,1.08-6.08,2.66-9.27,4.86
				c-26.86,18.5-47.1,90.14-47.1,90.14c-8.85,5.02-1.43,26.78-1.43,26.78s1.91,12.43,3.83,24.63c0.78,4.99,3.13,9.78,6.99,13.7
				c5.57,5.65,14.28,9.49,26,9.49c0.74,0,1.44-0.06,2.11-0.16c1.03-0.14,1.99-0.38,2.88-0.71c8.37-3.19,10.9-14.47,11.74-23.28
				c0.59-6.2,0.35-11.18,0.72-11.24c5.98-0.96,5.98-17.22,5.98-17.22c5.98,0,9.8-16.26,9.8-16.26l5.52,1.33l1.41,0.34
				c3.35,11.72,23.19,6.46,23.19,6.46C229.66,243.73,188.05,177.5,188.05,177.5z"/>
			<path class="st1" d="M417.96,152.05l-4.95,36.19l-22.11-28.65l4.23,31.76l36.51-5.58l5.24-35.5c-2.74,0.97-6.6,1.77-11.98,1.91
				C422.26,152.26,419.96,152.21,417.96,152.05z"/>
			<g>
				<g>
					<path class="st1" d="M376.22,214.72l15.04,28.54l-5.52-50.37C376.45,195.37,371.6,205.96,376.22,214.72z"/>
					<g>
						<path class="st1" d="M391.26,243.26l-15.04-28.54c-4.62-8.76,0.23-19.35,9.51-21.83l-7.5-68.41c-2.13-1.4-4.17-3.09-6.03-5.17
							c-13.08-14.66-9.51-17.44-9.51-17.44s-7.28-1.68-7.93-17.44c-0.16-3.88,1.09-7.14,2.36-9.54l-211,6l10.6,72.48
							c19.17,2.76,31.33,24.13,31.33,24.13s41.6,66.23-3.35,86.32c0,0-5.8,1.53-11.66,1.09l5.29,36.16l79.38-17.48
							c0.44-0.56,0.97-1.1,1.59-1.59c0,0-17.22-1.91-15.06-19.37c0,0-0.24-25.35,15.78-36.34c16.02-11,53.8-20.56,48.3-6.22
							c0,0,14.82,0,17.93,9.8s7.17,20.08-20.56,36.34c0,0,0.15,1.27,0.36,3.31l85.64-22.26L391.26,243.26z"/>
					</g>
				</g>
			</g>
			<path class="st1" d="M459.37,118.9c-3.96-6.34-13.47-5.94-13.47-5.94c2.38-4.36,4.76-18.62-0.79-30.91s-32.49-19.81-49.93-24.96
				c-9.11-2.69-15.08,0.46-18.99,4.25c-2.3,2.23-3.88,4.68-4.97,6.29c-0.61,0.9-1.4,1.74-1.4,1.74s-5.76-6.97-10.44,1.71
				c-0.93,1.72-4.9,6.62-4.62,13.35c0.65,15.76,7.93,17.44,7.93,17.44s-3.57,2.77,9.51,17.44c4.28,4.79,9.48,7.59,14.55,9.19
				c10.44,3.3,20.32,1.51,20.32,1.51s-1.19,1.98-1.19,10.7c0,7.19,2.7,10.6,12.09,11.36c2,0.16,4.29,0.2,6.93,0.13
				c5.38-0.14,9.24-0.94,11.98-1.91c4.93-1.74,6.25-4.03,6.25-4.03l1.98-13.87c0,0,2.77,6.74,12.28,6.34S463.34,125.24,459.37,118.9
				z"/>
			<path class="st1" d="M676.47,156.82l0.17,0.33c2.49-2.14,5.58-4.89,8.76-7.94c-2.95-4.41-4.79-7.39-4.89-8.13
				c-0.49-3.93,9.33-15.71,13.26-12.27c0,0,1.67,2.32,4.44,6.2c3.04-4.24,4.9-8.18,4.39-11.11c0,0-2.22-18.7-16.36-21.58
				c0,0-6.71-14.13-17.73-13.18c0,0-13.66-35.46-47.43-36.41c-33.78-0.96-43.12,34.02-43.12,34.02s-11.98,24.92,5.99,32.1
				c0,0,12.94,6.47,24.68-0.96c0,0,5.03,3.59,11.02,1.44c0,0,4.79,5.99,10.78,5.99s15.57,0.72,15.57,0.72s7.01,14.26,14.39,24.79
				l3.4-0.52C668.97,149.51,674.08,152.14,676.47,156.82z"/>
			<path class="st1" d="M775.55,351.28l-39.26-77.05l-9.59-18.82l-50.07-98.27l-0.17-0.33c-2.38-4.68-7.5-7.3-12.69-6.51l-3.4,0.52
				l-228.74,34.95l-36.51,5.58l-1.5,0.23l-6.22,0.95c-10.37,1.58-16.08,12.91-11.19,22.19l20.04,38.04l0.01,0.03l32.85,62.35
				l7.45,14.14l21.74,41.25l9.91,18.82L491,432.54l271.72-54.74C774.72,375.38,781.1,362.19,775.55,351.28z"/>
			<path class="st1" d="M753.66,217.67c-0.41-5.31-41.66-63.38-55.46-82.67c-2.77-3.88-4.44-6.2-4.44-6.2
				c-3.93-3.44-13.75,8.35-13.26,12.27c0.09,0.74,1.93,3.72,4.89,8.13c12.7,18.96,46.03,64.43,49.61,72.39
				c3.08,6.85-3.63,23.73-8.3,33.81l9.59,18.82C746.67,257.97,754.09,223.24,753.66,217.67z"/>
		</g>
		<g>
			<path class="st10" d="M333.66,374.42c7.47,4.13,31.13,4.72,56.52,3.99l-28.11-15.87c-2.58-1.46-2.31-5.26,0.45-6.33l75.5-23.31
				l-7.45-14.14l-119.39,38.66C317.98,363.64,326.03,370.2,333.66,374.42z"/>
			<path class="st10" d="M736.46,225.22c-3.59-7.97-36.91-53.43-49.61-72.39c-3.18,3.05-6.27,5.8-8.76,7.94l50.07,98.27
				C732.83,248.95,739.54,232.07,736.46,225.22z"/>
			<path class="st10" d="M419.41,155.68c-9.38-0.76-12.09-4.17-12.09-11.36c0-8.72,1.19-10.7,1.19-10.7s-9.87,1.79-20.32-1.51
				l4.15,31.1l22.11,28.65L419.41,155.68z"/>
			<path class="st10" d="M146.23,275.57c0,0,0,16.26-5.98,17.22c-0.36,0.06-0.12,5.03-0.72,11.24
				c8.33-10.51,19.02-23.86,24.28-30.42l-2.26-12.96l-5.52-1.33C156.03,259.31,152.2,275.57,146.23,275.57z"/>
			<path class="st2" d="M423.85,397.42l68.59,38.74l-22.76-43.19C459.19,394.07,442.43,395.78,423.85,397.42z"/>
			<path class="st2" d="M362.08,362.54l28.11,15.87c27.06-0.79,56.09-3.09,69.59-4.25l-21.74-41.25l-75.5,23.31
				C359.77,357.28,359.5,361.08,362.08,362.54z"/>
			<path class="st2" d="M459.77,374.15c-13.5,1.17-42.52,3.47-69.59,4.25c-25.39,0.74-49.06,0.14-56.52-3.99
				c-7.64-4.22-15.68-10.79-22.48-17.01c-5.87-5.37-10.8-10.49-13.7-13.6c-7.06,1.03-16.18,2.12-22.99,2.08
				c3.38,4.67,8.43,11.53,14.13,18.83c12.51,16.04,28.11,34.23,35.89,36.18c12.89,3.22,60.11,0,99.34-3.48
				c18.57-1.65,35.34-3.35,45.83-4.45L459.77,374.15z"/>
			<path class="st3" d="M327.71,233.48c-3.11-9.8-17.93-9.8-17.93-9.8c5.5-14.35-32.28-4.78-48.3,6.22
				c-16.02,11-15.78,36.34-15.78,36.34c-2.15,17.45,15.06,19.37,15.06,19.37c-2.02,1.61-3.04,3.56-3.4,5.64
				c-0.04,0.23-0.07,0.47-0.09,0.71c-0.75,7.36,6.12,15.89,6.12,15.89s-5.02,33.71,3.35,37.06c1.71,0.68,4.47,0.97,7.76,0.99
				c6.81,0.04,15.93-1.05,22.99-2.08c2.91-0.43,5.47-0.84,7.38-1.16c1.97-0.33,3.35-2.1,3.21-4.09c-0.66-8.95-2.18-32.54-0.45-39.08
				c1.22-4.61,0.9-13.51,0.4-20.36c-0.01-0.15-0.02-0.29-0.03-0.44c-0.38-5.02-0.85-8.84-0.85-8.84
				C334.88,253.57,330.81,243.29,327.71,233.48z"/>
			<path class="st2" d="M139.53,304.02c-0.84,8.81-3.38,20.09-11.74,23.28l0.03,0.15c0,0-1.36,10.35-5.66,15.84
				c0.11,0.09,0.24,0.16,0.4,0.18c3.55,0.44,39.74-42.03,45.02-48.25l-3.77-21.62C158.55,280.16,147.86,293.51,139.53,304.02z"/>
			<path class="st11" d="M127.79,327.3c-0.89,0.34-1.85,0.57-2.88,0.71c-0.68,0.09-1.37,0.16-2.11,0.16c-11.72,0-20.43-3.84-26-9.49
				c-2.48,3.73,11,27.12,18.83,27.9c2.7,0.27,4.84-1.14,6.54-3.29c4.3-5.49,5.66-15.84,5.66-15.84L127.79,327.3z"/>
			<path class="st5" d="M189.5,181.12c0,0-18.45-32.43-45.73-22.55c-2.99,1.08-6.08,2.66-9.27,4.86
				c-26.86,18.5-47.1,90.14-47.1,90.14c-8.85,5.02-1.43,26.78-1.43,26.78s1.91,12.43,3.83,24.63c0.78,4.99,3.13,9.78,6.99,13.7
				c5.57,5.65,14.28,9.49,26,9.49c0.74,0,1.44-0.06,2.11-0.16c1.03-0.14,1.99-0.38,2.88-0.71c8.37-3.19,10.9-14.47,11.74-23.28
				c0.59-6.2,0.35-11.18,0.72-11.24c5.98-0.96,5.98-17.22,5.98-17.22c5.98,0,9.8-16.26,9.8-16.26l5.52,1.33l1.41,0.34
				c3.35,11.72,23.19,6.46,23.19,6.46C231.11,247.35,189.5,181.12,189.5,181.12z"/>
			<path class="st2" d="M419.41,155.68l-4.95,36.19l-22.11-28.65l4.23,31.76l36.51-5.58l5.24-35.5c-2.74,0.97-6.6,1.77-11.98,1.91
				C423.71,155.88,421.41,155.84,419.41,155.68z"/>
			<g>
				<g>
					<path class="st10" d="M377.67,218.34l15.04,28.54l-5.52-50.37C377.9,198.99,373.05,209.58,377.67,218.34z"/>
					<g>
						<path class="st5" d="M392.71,246.88l-15.04-28.54c-4.62-8.76,0.23-19.35,9.51-21.83l-7.5-68.41c-2.13-1.4-4.17-3.09-6.03-5.17
							c-13.08-14.66-9.51-17.44-9.51-17.44s-7.28-1.68-7.93-17.44c-0.16-3.88,1.09-7.14,2.36-9.54l-211,6l10.6,72.48
							c19.17,2.76,31.33,24.13,31.33,24.13s41.6,66.23-3.35,86.32c0,0-5.8,1.53-11.66,1.09l5.29,36.16l79.38-17.48
							c0.44-0.56,0.97-1.1,1.59-1.59c0,0-17.22-1.91-15.06-19.37c0,0-0.24-25.35,15.78-36.34c16.02-11,53.8-20.56,48.3-6.22
							c0,0,14.82,0,17.93,9.8s7.17,20.08-20.56,36.34c0,0,0.15,1.27,0.36,3.31l85.64-22.26L392.71,246.88z"/>
					</g>
				</g>
			</g>
			<path class="st5" d="M460.82,122.53c-3.96-6.34-13.47-5.94-13.47-5.94c2.38-4.36,4.76-18.62-0.79-30.91s-32.49-19.81-49.93-24.96
				c-9.11-2.69-15.08,0.46-18.99,4.25c-2.3,2.23-3.88,4.68-4.97,6.29c-0.61,0.9-1.4,1.74-1.4,1.74s-5.76-6.97-10.44,1.71
				c-0.93,1.72-4.9,6.62-4.62,13.35c0.65,15.76,7.93,17.44,7.93,17.44s-3.57,2.77,9.51,17.44c4.28,4.79,9.48,7.59,14.55,9.19
				c10.44,3.3,20.32,1.51,20.32,1.51s-1.19,1.98-1.19,10.7c0,7.19,2.7,10.6,12.09,11.36c2,0.16,4.29,0.2,6.93,0.13
				c5.38-0.14,9.24-0.94,11.98-1.91c4.93-1.74,6.25-4.03,6.25-4.03l1.98-13.87c0,0,2.77,6.74,12.28,6.34
				S464.79,128.87,460.82,122.53z"/>
			<path class="st3" d="M677.92,160.44l0.17,0.33c2.49-2.14,5.58-4.89,8.76-7.94c-2.95-4.41-4.79-7.39-4.89-8.13
				c-0.49-3.93,9.33-15.71,13.26-12.27c0,0,1.67,2.32,4.44,6.2c3.04-4.24,4.9-8.18,4.39-11.11c0,0-2.22-18.7-16.36-21.58
				c0,0-6.71-14.13-17.73-13.18c0,0-13.66-35.46-47.43-36.41c-33.78-0.96-43.12,34.02-43.12,34.02s-11.98,24.92,5.99,32.1
				c0,0,12.94,6.47,24.68-0.96c0,0,5.03,3.59,11.02,1.44c0,0,4.79,5.99,10.78,5.99s15.57,0.72,15.57,0.72s7.01,14.26,14.39,24.79
				l3.4-0.52C670.42,153.14,675.53,155.76,677.92,160.44z"/>
			<path class="st2" d="M777,354.9l-39.26-77.05l-9.59-18.82l-50.07-98.27l-0.17-0.33c-2.38-4.68-7.5-7.3-12.69-6.51l-3.4,0.52
				L433.09,189.4l-36.51,5.58l-1.5,0.23l-6.22,0.95c-10.37,1.58-16.08,12.91-11.19,22.19l20.04,38.04l0.01,0.03l32.85,62.35
				l7.45,14.14l21.74,41.25l9.91,18.82l22.76,43.19l271.72-54.74C776.17,379.01,782.55,365.81,777,354.9z"/>
			<path class="st2" d="M755.11,221.29c-0.41-5.31-41.66-63.38-55.46-82.67c-2.77-3.88-4.44-6.2-4.44-6.2
				c-3.93-3.44-13.75,8.35-13.26,12.27c0.09,0.74,1.93,3.72,4.89,8.13c12.7,18.96,46.03,64.43,49.61,72.39
				c3.08,6.85-3.63,23.73-8.3,33.81l9.59,18.82C748.12,261.59,755.54,226.86,755.11,221.29z"/>
		</g>
		<path class="st10" d="M333.65,371.38c7.47,4.13,31.13,4.72,56.52,3.99l-28.11-15.87c-2.58-1.46-2.31-5.26,0.45-6.33l75.5-23.31
			l-7.45-14.14l-119.39,38.66C317.97,360.59,326.02,367.16,333.65,371.38z"/>
		<path class="st10" d="M736.44,222.18c-3.59-7.97-36.91-53.43-49.61-72.39c-3.18,3.05-6.27,5.8-8.76,7.94l50.07,98.27
			C732.81,245.91,739.53,229.03,736.44,222.18z"/>
		<path class="st10" d="M419.4,152.63c-9.38-0.76-12.09-4.17-12.09-11.36c0-8.72,1.19-10.7,1.19-10.7s-9.87,1.79-20.32-1.51
			l4.15,31.1l22.11,28.65L419.4,152.63z"/>
		<path class="st10" d="M146.21,272.52c0,0,0,16.26-5.98,17.22c-0.36,0.06-0.12,5.03-0.72,11.24c8.33-10.51,19.02-23.86,24.28-30.42
			l-2.26-12.96l-5.52-1.33C156.02,256.26,152.19,272.52,146.21,272.52z"/>
		<path class="st12" d="M423.84,394.38l68.59,38.74l-22.76-43.19C459.18,391.03,442.41,392.73,423.84,394.38z"/>
		<path class="st12" d="M362.07,359.49l28.11,15.87c27.06-0.79,56.09-3.09,69.59-4.25l-21.74-41.25l-75.5,23.31
			C359.76,354.24,359.49,358.03,362.07,359.49z"/>
		<path class="st11" d="M397.71,253.36l-0.01-0.03l-89.72,22.29c0.01,0.15,0.02,0.29,0.03,0.44c0.5,6.85,0.82,15.76-0.4,20.36
			c-1.73,6.54-0.21,30.13,0.45,39.08c0.15,1.99-1.24,3.76-3.21,4.09c-1.9,0.32-4.46,0.74-7.38,1.16c2.9,3.12,7.83,8.23,13.7,13.6
			l119.39-38.66L397.71,253.36z"/>
		<path class="st12" d="M459.76,371.11c-13.5,1.17-42.52,3.47-69.59,4.25c-25.39,0.74-49.06,0.14-56.52-3.99
			c-7.64-4.22-15.68-10.79-22.48-17.01c-5.87-5.37-10.8-10.49-13.7-13.6c-7.06,1.03-16.18,2.12-22.99,2.08
			c3.38,4.67,8.43,11.53,14.13,18.83c12.51,16.04,28.11,34.23,35.89,36.18c12.89,3.22,60.11,0,99.34-3.48
			c18.57-1.65,35.34-3.35,45.83-4.45L459.76,371.11z"/>
		<path class="st12" d="M327.69,230.44c-3.11-9.8-17.93-9.8-17.93-9.8c5.5-14.35-32.28-4.78-48.3,6.22
			c-16.02,11-15.78,36.34-15.78,36.34c-2.15,17.45,15.06,19.37,15.06,19.37c-2.02,1.61-3.04,3.56-3.4,5.64
			c-0.04,0.23-0.07,0.47-0.09,0.71c-0.75,7.36,6.12,15.89,6.12,15.89s-5.02,33.71,3.35,37.06c1.71,0.68,4.47,0.97,7.76,0.99
			c6.81,0.04,15.93-1.05,22.99-2.08c2.91-0.43,5.47-0.84,7.38-1.16c1.97-0.33,3.35-2.1,3.21-4.09c-0.66-8.95-2.18-32.54-0.45-39.08
			c1.22-4.61,0.9-13.51,0.4-20.36c-0.01-0.15-0.02-0.29-0.03-0.44c-0.38-5.02-0.85-8.84-0.85-8.84
			C334.87,250.52,330.8,240.24,327.69,230.44z"/>
		<path class="st12" d="M139.52,300.98c-0.84,8.81-3.38,20.09-11.74,23.28l0.03,0.15c0,0-1.36,10.35-5.66,15.84
			c0.11,0.09,0.24,0.16,0.4,0.18c3.55,0.44,39.74-42.03,45.02-48.25l-3.77-21.62C158.54,277.12,147.85,290.47,139.52,300.98z"/>
		<path class="st2" d="M127.78,324.25c-0.89,0.34-1.85,0.57-2.88,0.71c-0.68,0.09-1.37,0.16-2.11,0.16c-11.72,0-20.43-3.84-26-9.49
			c-2.48,3.73,11,27.12,18.83,27.9c2.7,0.27,4.84-1.14,6.54-3.29c4.3-5.49,5.66-15.84,5.66-15.84L127.78,324.25z"/>
		<path class="st12" d="M189.49,178.08c0,0-18.45-32.43-45.73-22.55c-2.99,1.08-6.08,2.66-9.27,4.86
			c-26.86,18.5-47.1,90.14-47.1,90.14c-8.85,5.02-1.43,26.78-1.43,26.78s1.91,12.43,3.83,24.63c0.78,4.99,3.13,9.78,6.99,13.7
			c5.57,5.65,14.28,9.49,26,9.49c0.74,0,1.44-0.06,2.11-0.16c1.03-0.14,1.99-0.38,2.88-0.71c8.37-3.19,10.9-14.47,11.74-23.28
			c0.59-6.2,0.35-11.18,0.72-11.24c5.98-0.96,5.98-17.22,5.98-17.22c5.98,0,9.8-16.26,9.8-16.26l5.52,1.33l1.41,0.34
			c3.35,11.72,23.19,6.46,23.19,6.46C231.1,244.31,189.49,178.08,189.49,178.08z"/>
		<path class="st12" d="M419.4,152.63l-4.95,36.19l-22.11-28.65l4.23,31.76l36.51-5.58l5.24-35.5c-2.74,0.97-6.6,1.77-11.98,1.91
			C423.69,152.84,421.4,152.79,419.4,152.63z"/>
		<g>
			<path class="st11" d="M288.61,361.68c-5.69-7.3-10.75-14.16-14.13-18.83c-3.3-0.02-6.05-0.3-7.76-0.99
				c-8.37-3.35-3.35-37.06-3.35-37.06s-6.87-8.53-6.12-15.89l-78.22,19.8c-0.53,0.13-1.07,0.21-1.59,0.23l107.28,53.99
				L288.61,361.68z"/>
			<g>
				<path class="st10" d="M377.66,215.3l15.04,28.54l-5.52-50.37C377.88,195.95,373.04,206.54,377.66,215.3z"/>
				<path class="st11" d="M388.85,193.11l6.22-0.95l1.5-0.23l-4.23-31.76l-4.15-31.1c-2.86-0.9-5.76-2.21-8.52-4.02l7.5,68.41
					C387.72,193.32,388.27,193.2,388.85,193.11z"/>
				<path class="st11" d="M358.56,75.46c0.93-1.77,1.87-3.08,2.26-3.8c4.67-8.68,10.44-1.71,10.44-1.71s0.79-0.84,1.4-1.74
					c1.09-1.62,2.68-4.06,4.97-6.29c-1.2-1.11-2.78-1.8-4.51-1.85L145.48,53.7c-10.1-0.28-17.93,8.76-16.19,18.72l14.47,83.11
					c5.13-1.86,9.96-2.22,14.4-1.58l-10.6-72.48L358.56,75.46z"/>
				<g>
					<path class="st11" d="M174.48,265.49c-4.98-0.37-10-2.17-11.53-7.55l-1.41-0.34l2.26,12.96l3.77,21.62l1.79,10.25
						c0.69,3.97,4.23,6.69,8.1,6.51l79.81-20.04c0.02-0.23,0.05-0.47,0.09-0.7c0.25-1.47,0.85-2.87,1.88-4.14l-79.45,17.57
						L174.48,265.49z"/>
					<path class="st12" d="M392.69,243.84l-15.04-28.54c-4.62-8.76,0.23-19.35,9.51-21.83l-7.5-68.41c-2.13-1.4-4.17-3.09-6.03-5.17
						c-13.08-14.66-9.51-17.44-9.51-17.44s-7.28-1.68-7.93-17.44c-0.16-3.88,1.09-7.14,2.36-9.54l-211,6l10.6,72.48
						c19.17,2.76,31.33,24.13,31.33,24.13s41.6,66.23-3.35,86.32c0,0-5.8,1.53-11.66,1.09l5.29,36.16l79.45-17.57
						c0.43-0.53,0.93-1.03,1.52-1.51c0,0-17.22-1.91-15.06-19.37c0,0-0.24-25.35,15.78-36.34c16.02-11,53.8-20.56,48.3-6.22
						c0,0,14.82,0,17.93,9.8c3.11,9.8,7.17,20.08-20.56,36.34c0,0,0.15,1.27,0.36,3.31l85.64-22.26L392.69,243.84z"/>
				</g>
				<path class="st11" d="M397.7,253.34l-5.01-9.5l0.44,3.99l-85.64,22.26c0.15,1.5,0.33,3.41,0.49,5.54L397.7,253.34z"/>
			</g>
		</g>
		<path class="st12" d="M460.81,119.48c-3.96-6.34-13.47-5.94-13.47-5.94c2.38-4.36,4.76-18.62-0.79-30.91s-32.49-19.81-49.93-24.96
			c-9.11-2.69-15.08,0.46-18.99,4.25c-2.3,2.23-3.88,4.68-4.97,6.29c-0.61,0.9-1.4,1.74-1.4,1.74s-5.76-6.97-10.44,1.71
			c-0.93,1.72-4.9,6.62-4.62,13.35c0.65,15.76,7.93,17.44,7.93,17.44s-3.57,2.77,9.51,17.44c4.28,4.79,9.48,7.59,14.55,9.19
			c10.44,3.3,20.32,1.51,20.32,1.51s-1.19,1.98-1.19,10.7c0,7.19,2.7,10.6,12.09,11.36c2,0.16,4.29,0.2,6.93,0.13
			c5.38-0.14,9.24-0.94,11.98-1.91c4.93-1.74,6.25-4.03,6.25-4.03l1.98-13.87c0,0,2.77,6.74,12.28,6.34S464.77,125.82,460.81,119.48
			z"/>
		<path class="st12" d="M677.9,157.4l0.17,0.33c2.49-2.14,5.58-4.89,8.76-7.94c-2.95-4.41-4.79-7.39-4.89-8.13
			c-0.49-3.93,9.33-15.71,13.26-12.27c0,0,1.67,2.32,4.44,6.2c3.04-4.24,4.9-8.18,4.39-11.11c0,0-2.22-18.7-16.36-21.58
			c0,0-6.71-14.13-17.73-13.18c0,0-13.66-35.46-47.43-36.41c-33.78-0.96-43.12,34.02-43.12,34.02s-11.98,24.92,5.99,32.1
			c0,0,12.94,6.47,24.68-0.96c0,0,5.03,3.59,11.02,1.44c0,0,4.79,5.99,10.78,5.99s15.57,0.72,15.57,0.72s7.01,14.26,14.39,24.79
			l3.4-0.52C670.41,150.09,675.52,152.72,677.9,157.4z"/>
		<path class="st12" d="M776.98,351.86l-39.26-77.05l-9.59-18.82l-50.07-98.27l-0.17-0.33c-2.38-4.68-7.5-7.3-12.69-6.51l-3.4,0.52
			l-228.74,34.95l-36.51,5.58l-1.5,0.23l-6.22,0.95c-10.37,1.58-16.08,12.91-11.19,22.19l20.04,38.04l0.01,0.03l32.85,62.35
			l7.45,14.14l21.74,41.25l9.91,18.82l22.76,43.19l271.72-54.74C776.16,375.96,782.54,362.77,776.98,351.86z"/>
		<path class="st12" d="M755.1,218.25c-0.41-5.31-41.66-63.38-55.46-82.67c-2.77-3.88-4.44-6.2-4.44-6.2
			c-3.93-3.44-13.75,8.35-13.26,12.27c0.09,0.74,1.93,3.72,4.89,8.13c12.7,18.96,46.03,64.43,49.61,72.39
			c3.08,6.85-3.63,23.73-8.3,33.81l9.59,18.82C748.11,258.55,755.53,223.82,755.1,218.25z"/>
		<path class="st12" d="M309.76,220.64c0,0-25.11,0.57-25.5,5.34C283.86,230.74,309.76,220.64,309.76,220.64z"/>
		<path class="st12" d="M260.74,282.56c0,0,14.78,6.53,25.9-3.39"/>
		<path class="st12" d="M263.37,304.8c0,0,16.59,6.33,30.41-1.02"/>
		<path class="st12" d="M307.13,266.78c0,0-20.28,14.08-35.76,8.92"/>
		<path class="st12" d="M308.47,281.55c0,0-16.67-5.16-21.84-2.38"/>
		<path class="st12" d="M140.24,289.74c0,0-17.95,18.81-28.67,16.03s-25.6-28.47-25.6-28.47"/>
		<path class="st12" d="M119.9,287.9c0,0-1.59-13.5,16.28-30.97c7.72-7.55,27-17.87,40.49-6.35c13.5,11.51,5.96,14.29,5.96,14.29"/>
		<path class="st12" d="M179.05,264.08c0,0,0.4-11.51-19.85-9.53s-12.99,17.97-12.99,17.97s-27.11,20.94-34.65,17.37
			c-7.54-3.57-23.33-26.33-24.17-39.36"/>
		<path class="st12" d="M408.51,130.58c0,0,11.13,1.31,12.72-6.63c1.59-7.94,9.53-25.41,17.47-24.61"/>
		<path class="st12" d="M447.34,113.54c0,0-4.79,8.87-4.27,11.73c0.52,2.86,3.47,7.68,3.47,7.68"/>
		<path class="st12" d="M443.07,125.27c0,0-16.14,10.67-29.16,7.03"/>
		<path class="st12" d="M446.2,135.42c0,0-11.98,10.15-21.87,7.81"/>
		<path class="st12" d="M371.26,69.95c0,0-8.23,26.59-7.13,32.49"/>
		<path class="st12" d="M422.24,118.5c0,0,17.96-2.6,20.57-17.96"/>
		<path class="st12" d="M446.46,116.42c0,0,9.89,2.86,10.93,9.11c1.04,6.25,2.6,9.63-1.82,10.93"/>
		<path class="st12" d="M687.68,102.89c0,0-22.52,10.4-23.57,19.25"/>
		<path class="st12" d="M669.95,89.72c0,0-19.12,11.34-20.16,16.03"/>
		<path class="st12" d="M678.07,157.73c0,0,2.18-12.7,3.87-16.07l-45.17-38.52c0,0-16.14-20.05-32.28-27.6
			c-16.14-7.55-25.1,11.78-25.1,11.78"/>
		<path class="st12" d="M695.2,129.38c0,0,7.37-7.27,8.84-4.91"/>
		<path class="st12" d="M610.06,118.47c0,0,14.74-7.25,15-14.02"/>
		<path class="st12" d="M621.08,119.9c0.08-1.4-2.53-5.31-2.53-6.35"/>
		<line class="st12" x1="397.67" y1="266.3" x2="311.61" y2="291.74"/>
		<path class="st12" d="M348.92,338.8l-18.21-14.57c-2.22-1.77-1.61-5.3,1.08-6.22l61.52-21.23c3.02-1.04,6.36-0.63,9.03,1.13
			l24.17,15.87"/>
		<polyline class="st12" points="263.27,306.58 224.27,319.3 234.87,325.24 		"/>
		
			<ellipse transform="matrix(0.9023 -0.4311 0.4311 0.9023 -63.0823 285.4348)" class="st3" cx="598.3" cy="281.91" rx="40.28" ry="43.25"/>
		
			<ellipse transform="matrix(0.9023 -0.4311 0.4311 0.9023 -62.4558 286.1992)" class="st13" cx="600.3" cy="280.91" rx="40.28" ry="43.25"/>
		<path class="st13" d="M218.81,225.09c1.52-0.38,42.44-53.43,129.61-21.22"/>
		<path class="st13" d="M259.73,139.44c-1.14-0.38-33.73-21.22-33.73-21.22"/>
		<path class="st13" d="M295.36,136.41c0,0,23.5-21.6,25.01-21.6"/>
		<circle class="st11" cx="245.26" cy="167.22" r="5.56"/>
		<circle class="st11" cx="315.91" cy="162.45" r="5.56"/>
	</g>
</g>
</svg>
