<?xml version="1.0" encoding="utf-8"?>
<!-- Generator: Adobe Illustrator 24.0.3, SVG Export Plug-In . SVG Version: 6.00 Build 0)  -->
<svg version="1.1" id="Layer_1" xmlns="http://www.w3.org/2000/svg" xmlns:xlink="http://www.w3.org/1999/xlink" x="0px" y="0px"
	 viewBox="0 0 1280 169" style="enable-background:new 0 0 1280 169;" xml:space="preserve">
<style type="text/css">
	.st0{fill:none;stroke:#1F3B65;stroke-miterlimit:10;}
	.st1{clip-path:url(#SVGID_2_);}
	.st2{clip-path:url(#SVGID_4_);}
	.st3{fill:#478FB9;}
	.st4{fill:none;stroke:#82B2D0;stroke-miterlimit:10;}
	.st5{clip-path:url(#SVGID_2_);fill:#79ABC2;}
	.st6{clip-path:url(#SVGID_2_);fill:none;stroke:#245486;stroke-miterlimit:10;}
	.st7{fill:#68A3BB;}
	.st8{fill:#E84949;}
	.st9{fill:#82B2D0;}
	.st10{fill:none;stroke:#245486;stroke-miterlimit:10;}
	.st11{fill:#336480;}
	.st12{fill:#74ABC4;}
	.st13{fill:#44799D;}
	.st14{fill:#97C0D2;}
	.st15{fill:#30769E;}
	.st16{fill:#79ABC2;}
	.st17{fill:#3581AD;}
	.st18{fill:#386FA0;}
	.st19{fill:#245486;}
	.st20{fill:#4BB1DF;}
	.st21{fill:#3489C3;}
	.st22{fill:none;stroke:#245486;stroke-linejoin:round;stroke-miterlimit:10;}
</style>
<g>
	<defs>
		<rect id="SVGID_1_" x="-1.54" y="-1.43" width="1283.08" height="171.86"/>
	</defs>
	<clipPath id="SVGID_2_">
		<use xlink:href="#SVGID_1_"  style="overflow:visible;"/>
	</clipPath>
	<g class="st1">
		<g>
			<defs>
				<rect id="SVGID_3_" x="-1.54" y="-1.43" width="1283.08" height="171.86"/>
			</defs>
			<clipPath id="SVGID_4_">
				<use xlink:href="#SVGID_3_"  style="overflow:visible;"/>
			</clipPath>
			<g class="st2">
				<rect x="-1.54" y="-1.43" class="st3" width="1283.08" height="171.86"/>
			</g>
		</g>
		<circle class="st4" cx="995.41" cy="141.74" r="43.97"/>
		<path class="st4" d="M761.41,186.25l25.66-18.29c0.7-0.5,0.86-1.46,0.36-2.16l-18.29-25.66c-0.5-0.7-1.46-0.86-2.16-0.36
			l-25.66,18.29c-0.7,0.5-0.86,1.46-0.36,2.16l18.29,25.66C759.74,186.58,760.71,186.74,761.41,186.25z"/>
		<circle class="st4" cx="830.18" cy="7.36" r="43.97"/>
		<circle class="st4" cx="1240.51" cy="74.51" r="22.59"/>
		<circle class="st4" cx="368.53" cy="53.67" r="22.59"/>
		<circle class="st4" cx="238.65" cy="138.93" r="43.97"/>
		<path class="st4" d="M1183.93,224.98l49.54-35.3c1.34-0.96,1.66-2.82,0.7-4.17l-35.3-49.54c-0.96-1.34-2.82-1.66-4.17-0.7
			l-49.54,35.3c-1.34,0.96-1.66,2.82-0.7,4.17l35.3,49.54C1180.72,225.62,1182.59,225.93,1183.93,224.98z"/>
		<path class="st4" d="M87.65,168.03L107.34,154c0.53-0.38,0.66-1.12,0.28-1.66l-14.03-19.69c-0.38-0.53-1.12-0.66-1.66-0.28
			L72.25,146.4c-0.53,0.38-0.66,1.12-0.28,1.66L86,167.75C86.38,168.28,87.12,168.41,87.65,168.03z"/>
		<path class="st4" d="M102.3,31.21l22.4,26.29c0.61,0.71,1.68,0.8,2.39,0.19l26.29-22.4c0.71-0.61,0.8-1.68,0.19-2.39l-22.4-26.29
			c-0.61-0.71-1.68-0.8-2.39-0.19l-26.29,22.4C101.77,29.43,101.69,30.5,102.3,31.21z"/>
		<path class="st4" d="M1081.56-4.64l10.92,64.48c0.13,0.79,1.07,1.13,1.68,0.63l50.39-41.7c0.61-0.51,0.45-1.49-0.3-1.77
			l-61.3-22.79C1082.2-6.06,1081.43-5.43,1081.56-4.64z"/>
		<path class="st4" d="M580.43-18.56l10.92,64.48c0.13,0.79,1.07,1.13,1.68,0.63l50.39-41.7c0.61-0.51,0.45-1.49-0.3-1.77
			l-61.3-22.79C581.06-19.98,580.29-19.34,580.43-18.56z"/>
		<path class="st4" d="M46.12,98.34L7.23,45.75c-0.47-0.64-1.47-0.53-1.78,0.2l-26.09,59.97c-0.32,0.73,0.27,1.53,1.07,1.44
			l64.98-7.39C46.2,99.89,46.59,98.98,46.12,98.34z"/>
	</g>
	<path class="st5" d="M60.05,47.78L34.26,86.67c-1.83-0.27-3.75-0.24-5.67,0.15c-5.66,1.15-10.04,5.07-12.01,10.07l14.08-2.85
		l5.46,7.97l-1.93,9.46l-14.11,2.86c3.76,3.86,9.34,5.8,15.02,4.65c8.88-1.8,14.62-10.45,12.82-19.33c-0.39-1.92-1.1-3.7-2.06-5.28
		l24.83-37.43c2.4,0.66,4.99,0.79,7.6,0.26c5.66-1.15,10.04-5.07,12.01-10.07l-14.08,2.85L70.76,42l1.93-9.46l14.11-2.86
		c-3.76-3.86-9.34-5.8-15.02-4.65c-8.88,1.8-14.62,10.45-12.82,19.33C59.2,45.57,59.57,46.71,60.05,47.78z"/>
	<path class="st6" d="M62.7,48.62L36.91,87.5c-1.83-0.27-3.75-0.24-5.67,0.15c-5.66,1.15-10.04,5.07-12.01,10.07l14.08-2.85
		l5.46,7.97l-1.93,9.46l-14.11,2.86c3.76,3.86,9.34,5.8,15.02,4.65c8.88-1.8,14.62-10.45,12.82-19.33c-0.39-1.92-1.1-3.7-2.06-5.28
		l24.83-37.43c2.4,0.66,4.99,0.79,7.6,0.26c5.66-1.15,10.04-5.07,12.01-10.07L78.87,50.8l-5.46-7.97l1.93-9.46l14.11-2.86
		c-3.76-3.86-9.34-5.8-15.02-4.65c-8.88,1.8-14.62,10.45-12.82,19.33C61.85,46.4,62.22,47.54,62.7,48.62z"/>
	<g class="st1">
		<g>
			<path class="st7" d="M245.19,44.78l-5.09-2.92l-3.2-1.84c-0.43-0.25-0.85-0.51-1.26-0.78c-0.18-0.12-0.37-0.24-0.54-0.37
				c-0.4-0.28-0.79-0.57-1.17-0.87c0,0,0,0,0,0c-0.01-0.01-0.01-0.01-0.02-0.02c-0.12-0.09-0.23-0.19-0.35-0.28
				c-0.41-0.34-0.81-0.69-1.2-1.06c-0.07-0.07-0.14-0.14-0.21-0.21c-0.17-0.17-0.35-0.34-0.51-0.51c-0.06-0.07-0.13-0.13-0.19-0.2
				c-0.01-0.01-0.01-0.01-0.02-0.02c-0.07-0.08-0.15-0.16-0.22-0.24c-0.19-0.21-0.39-0.43-0.57-0.65c-0.09-0.1-0.17-0.2-0.25-0.3
				c-0.09-0.11-0.19-0.23-0.28-0.34c0,0-0.01-0.01-0.01-0.01c-0.09-0.12-0.19-0.23-0.28-0.36c-0.37-0.48-0.72-0.97-1.04-1.47
				c-0.05-0.08-0.1-0.16-0.15-0.24c-0.06-0.09-0.12-0.18-0.17-0.28c-0.05-0.08-0.1-0.16-0.14-0.24c-0.16-0.26-0.31-0.53-0.46-0.8
				c-0.07-0.12-0.13-0.24-0.2-0.36c-0.08-0.16-0.17-0.32-0.25-0.48c-0.06-0.12-0.12-0.25-0.18-0.37l-5.85-12.24l0,0l-98.8,49.96
				l-16.88,8.54l0.78,2.91l1.54,5.72l1.58,5.86l1.34,4.98l5.01,2.3l2.36-5.15l5.15,2.36l2.36-5.15l3.17,1.45l1.98,0.91l2.36-5.15
				l5.15,2.36l2.36-5.15l5.15,2.36l2.36-5.15l5.15,2.36l2.36-5.15l5.15,2.36l2.36-5.15l5.15,2.36l2.36-5.15l5.15,2.36l2.36-5.15
				l5.15,2.36l2.36-5.15l5.15,2.36l2.36-5.15l5.15,2.36l2.36-5.15l5.15,2.36l2.36-5.15l5.15,2.36l2.36-5.15l5.15,2.36l2.36-5.15
				l5.15,2.36l2.36-5.15l5.15,2.36l2.36-5.15l5.15,2.36l2.29-5l0,0l0,0C245.69,45.06,245.44,44.92,245.19,44.78z"/>
			<path class="st8" d="M283.88,28.17c-0.04,0.72-0.18,1.43-0.42,2.1C283.7,29.6,283.84,28.89,283.88,28.17z"/>
			<path class="st8" d="M283.81,26.72c0.07,0.48,0.09,0.97,0.07,1.45C283.9,27.69,283.88,27.2,283.81,26.72z"/>
			<path class="st9" d="M261.19-5.85c-0.24,0.09-0.47,0.18-0.7,0.29l-38.11,18.23c-1.46,0.7-2.07,2.44-1.38,3.9l0.37,0.76
				l5.85,12.24c0.06,0.12,0.12,0.25,0.18,0.37c0.08,0.16,0.16,0.32,0.25,0.48c0.06,0.12,0.13,0.24,0.2,0.36
				c0.15,0.27,0.3,0.54,0.46,0.8c0.05,0.08,0.1,0.16,0.14,0.24c0.06,0.09,0.11,0.19,0.17,0.28c0.05,0.08,0.1,0.16,0.15,0.24
				c0.33,0.51,0.68,1,1.04,1.47c0.09,0.12,0.18,0.24,0.28,0.36c0,0,0.01,0.01,0.01,0.01c0.09,0.11,0.18,0.23,0.28,0.34
				c0.08,0.1,0.17,0.2,0.25,0.3c0.19,0.22,0.38,0.43,0.57,0.65c0.07,0.08,0.15,0.16,0.22,0.24c0.01,0.01,0.01,0.01,0.02,0.02
				c0.06,0.07,0.13,0.13,0.19,0.2c0.17,0.17,0.34,0.34,0.51,0.51c0.07,0.07,0.14,0.14,0.21,0.21c0.39,0.37,0.79,0.72,1.2,1.06
				c0.12,0.1,0.23,0.19,0.35,0.28c0.01,0.01,0.01,0.01,0.02,0.02c0,0,0,0,0,0c0.38,0.3,0.77,0.59,1.17,0.87
				c0.18,0.12,0.36,0.25,0.54,0.37c0.41,0.27,0.83,0.53,1.26,0.78l3.2,1.84l5.09,2.92c0.25,0.14,0.5,0.27,0.75,0.4c0,0,0,0,0.01,0
				c0.44,0.21,0.89,0.4,1.34,0.57c0.1,0.04,0.2,0.07,0.31,0.11l0.05,0.02c0.11,0.03,0.22,0.07,0.34,0.1
				c0.12,0.04,0.24,0.07,0.35,0.1c0.12,0.03,0.23,0.06,0.35,0.09c0.12,0.03,0.24,0.05,0.35,0.08c0.36,0.07,0.72,0.13,1.07,0.17
				c0.36,0.04,0.72,0.07,1.08,0.08c0.12,0,0.24,0.01,0.36,0.01c0.24,0,0.48,0,0.73-0.02c0.11-0.01,0.22-0.01,0.33-0.02
				c0.32-0.03,0.64-0.06,0.96-0.11c0.07-0.01,0.14-0.02,0.21-0.03c0.06-0.01,0.12-0.02,0.18-0.03c0.07-0.01,0.15-0.03,0.22-0.04
				c0.17-0.03,0.34-0.07,0.51-0.11c0.07-0.02,0.14-0.03,0.21-0.05c0.05-0.01,0.11-0.03,0.16-0.04c0.07-0.02,0.14-0.04,0.2-0.06
				c0.17-0.05,0.34-0.1,0.52-0.16c0.07-0.02,0.14-0.05,0.21-0.07c0.06-0.02,0.12-0.04,0.18-0.06c0.11-0.04,0.21-0.08,0.31-0.12
				c0.08-0.03,0.17-0.07,0.25-0.1c0.16-0.07,0.32-0.14,0.48-0.22l20.71-9.91c0,0,0,0,0,0l1.71-0.82c0.7-0.33,1.32-0.76,1.85-1.26
				c0.18-0.17,0.35-0.34,0.51-0.52c0.48-0.54,0.88-1.15,1.18-1.8c0.1-0.22,0.19-0.44,0.27-0.66c0.24-0.67,0.38-1.38,0.42-2.1
				c0.02-0.48,0-0.96-0.07-1.45c-0.11-0.73-0.32-1.45-0.65-2.14L270.42-2.05c-0.33-0.7-0.76-1.32-1.26-1.85
				c-0.33-0.36-0.7-0.68-1.09-0.96c-0.39-0.28-0.8-0.52-1.24-0.73c-0.22-0.1-0.44-0.19-0.66-0.27c-0.45-0.16-0.91-0.27-1.39-0.34
				c-0.71-0.11-1.44-0.11-2.16,0c-0.24,0.04-0.48,0.08-0.72,0.14C261.66-6.01,261.42-5.94,261.19-5.85z M267.76,32.97
				c-3.79,1.81-8.01,0.94-9.38-1.93l-8.54-17.86c-1.37-2.87,0.6-6.71,4.38-8.52l8.12-3.88l13.54,28.31L267.76,32.97z"/>
		</g>
		<g>
			<path class="st10" d="M243.6,47.11l-5.09-2.92l-3.2-1.84c-0.43-0.25-0.85-0.51-1.26-0.78c-0.18-0.12-0.37-0.24-0.54-0.37
				c-0.4-0.28-0.79-0.57-1.17-0.87c0,0,0,0,0,0c-0.01-0.01-0.01-0.01-0.02-0.02c-0.12-0.09-0.23-0.19-0.35-0.28
				c-0.41-0.34-0.81-0.69-1.2-1.06c-0.07-0.07-0.14-0.14-0.21-0.21c-0.17-0.17-0.35-0.34-0.51-0.51c-0.06-0.07-0.13-0.13-0.19-0.2
				c-0.01-0.01-0.01-0.01-0.02-0.02c-0.07-0.08-0.15-0.16-0.22-0.24c-0.19-0.21-0.39-0.43-0.57-0.65c-0.09-0.1-0.17-0.2-0.25-0.3
				c-0.09-0.11-0.19-0.23-0.28-0.34c0,0-0.01-0.01-0.01-0.01c-0.09-0.12-0.19-0.23-0.28-0.36c-0.37-0.48-0.72-0.97-1.04-1.47
				c-0.05-0.08-0.1-0.16-0.15-0.24c-0.06-0.09-0.12-0.18-0.17-0.28c-0.05-0.08-0.1-0.16-0.14-0.24c-0.16-0.26-0.31-0.53-0.46-0.8
				c-0.07-0.12-0.13-0.24-0.2-0.36c-0.08-0.16-0.17-0.32-0.25-0.48c-0.06-0.12-0.12-0.25-0.18-0.37l-5.85-12.24l0,0l-98.8,49.96
				l-16.88,8.54l0.78,2.91l1.54,5.72l1.58,5.86l1.34,4.98l5.01,2.3l2.36-5.15l5.15,2.36l2.36-5.15l3.17,1.45l1.98,0.91l2.36-5.15
				l5.15,2.36l2.36-5.15l5.15,2.36l2.36-5.15l5.15,2.36l2.36-5.15l5.15,2.36l2.36-5.15l5.15,2.36l2.36-5.15l5.15,2.36l2.36-5.15
				l5.15,2.36l2.36-5.15l5.15,2.36l2.36-5.15l5.15,2.36l2.36-5.15l5.15,2.36l2.36-5.15l5.15,2.36l2.36-5.15l5.15,2.36l2.36-5.15
				l5.15,2.36l2.36-5.15l5.15,2.36l2.36-5.15l5.15,2.36l2.29-5l0,0l0,0C244.09,47.39,243.84,47.25,243.6,47.11z"/>
			<path class="st10" d="M282.28,30.5c-0.04,0.72-0.18,1.43-0.42,2.1C282.1,31.93,282.25,31.22,282.28,30.5z"/>
			<path class="st10" d="M282.22,29.05c0.07,0.48,0.09,0.97,0.07,1.45C282.31,30.02,282.29,29.53,282.22,29.05z"/>
			<path class="st10" d="M259.59-3.52c-0.24,0.09-0.47,0.18-0.7,0.29L220.77,15c-1.46,0.7-2.07,2.44-1.38,3.9l0.37,0.76l5.85,12.24
				c0.06,0.12,0.12,0.25,0.18,0.37c0.08,0.16,0.16,0.32,0.25,0.48c0.06,0.12,0.13,0.24,0.2,0.36c0.15,0.27,0.3,0.54,0.46,0.8
				c0.05,0.08,0.1,0.16,0.14,0.24c0.06,0.09,0.11,0.19,0.17,0.28c0.05,0.08,0.1,0.16,0.15,0.24c0.33,0.51,0.68,1,1.04,1.47
				c0.09,0.12,0.18,0.24,0.28,0.36c0,0,0.01,0.01,0.01,0.01c0.09,0.11,0.18,0.23,0.28,0.34c0.08,0.1,0.17,0.2,0.25,0.3
				c0.19,0.22,0.38,0.43,0.57,0.65c0.07,0.08,0.15,0.16,0.22,0.24c0.01,0.01,0.01,0.01,0.02,0.02c0.06,0.07,0.13,0.13,0.19,0.2
				c0.17,0.17,0.34,0.34,0.51,0.51c0.07,0.07,0.14,0.14,0.21,0.21c0.39,0.37,0.79,0.72,1.2,1.06c0.12,0.1,0.23,0.19,0.35,0.28
				c0.01,0.01,0.01,0.01,0.02,0.02c0,0,0,0,0,0c0.38,0.3,0.77,0.59,1.17,0.87c0.18,0.12,0.36,0.25,0.54,0.37
				c0.41,0.27,0.83,0.53,1.26,0.78l3.2,1.84l5.09,2.92c0.25,0.14,0.5,0.27,0.75,0.4c0,0,0,0,0.01,0c0.44,0.21,0.89,0.4,1.34,0.57
				c0.1,0.04,0.2,0.07,0.31,0.11l0.05,0.02c0.11,0.03,0.22,0.07,0.34,0.1c0.12,0.04,0.24,0.07,0.35,0.1
				c0.12,0.03,0.23,0.06,0.35,0.09c0.12,0.03,0.24,0.05,0.35,0.08c0.36,0.07,0.72,0.13,1.07,0.17c0.36,0.04,0.72,0.07,1.08,0.08
				c0.12,0,0.24,0.01,0.36,0.01c0.24,0,0.48,0,0.73-0.02c0.11-0.01,0.22-0.01,0.33-0.02c0.32-0.03,0.64-0.06,0.96-0.11
				c0.07-0.01,0.14-0.02,0.21-0.03c0.06-0.01,0.12-0.02,0.18-0.03c0.07-0.01,0.15-0.03,0.22-0.04c0.17-0.03,0.34-0.07,0.51-0.11
				c0.07-0.02,0.14-0.03,0.21-0.05c0.05-0.01,0.11-0.03,0.16-0.04c0.07-0.02,0.14-0.04,0.2-0.06c0.17-0.05,0.34-0.1,0.52-0.16
				c0.07-0.02,0.14-0.05,0.21-0.07c0.06-0.02,0.12-0.04,0.18-0.06c0.11-0.04,0.21-0.08,0.31-0.12c0.08-0.03,0.17-0.07,0.25-0.1
				c0.16-0.07,0.32-0.14,0.48-0.22l20.71-9.91c0,0,0,0,0,0l1.71-0.82c0.7-0.33,1.32-0.76,1.85-1.26c0.18-0.17,0.35-0.34,0.51-0.52
				c0.48-0.54,0.88-1.15,1.18-1.8c0.1-0.22,0.19-0.44,0.27-0.66c0.24-0.67,0.38-1.38,0.42-2.1c0.02-0.48,0-0.96-0.07-1.45
				c-0.11-0.73-0.32-1.45-0.65-2.14L268.82,0.28c-0.33-0.7-0.76-1.32-1.26-1.85c-0.33-0.36-0.7-0.68-1.09-0.96
				c-0.39-0.28-0.8-0.52-1.24-0.73c-0.22-0.1-0.44-0.19-0.66-0.27c-0.45-0.16-0.91-0.27-1.39-0.34c-0.71-0.11-1.44-0.11-2.16,0
				c-0.24,0.04-0.48,0.08-0.72,0.14C260.07-3.68,259.83-3.61,259.59-3.52z M266.16,35.3c-3.79,1.81-8.01,0.94-9.38-1.93l-8.54-17.86
				c-1.37-2.87,0.6-6.71,4.38-8.52l8.12-3.88l13.54,28.31L266.16,35.3z"/>
		</g>
	</g>
	<g class="st1">
		<g>
			<path class="st11" d="M196.76,158.95l-0.99-0.75c-4.36-3.33-4.83-10.03-1.05-14.97l-0.9,1.18c-3.78,4.94-3.31,11.64,1.05,14.97
				l0.99,0.75c4.36,3.33,10.94,2.03,14.72-2.91l0.9-1.18C207.7,160.98,201.11,162.28,196.76,158.95z"/>
			<g>
				
					<rect x="232.42" y="75.74" transform="matrix(0.6076 -0.7943 0.7943 0.6076 39.032 235.4073)" class="st9" width="50.63" height="4.92"/>
				<polygon class="st12" points="281.19,44.79 271.16,56.6 275.07,59.59 283.85,46.83 				"/>
				<path class="st13" d="M248.14,102.74l-11.57-8.85c-0.89-0.68-2.16-0.51-2.84,0.38l-1.81,2.37c-0.68,0.89-0.51,2.16,0.38,2.84
					l0.13,0.1l-0.94,1.05l-7.38,8.34c-0.98,1.12-2.56,1.37-3.61,0.57l-26.68,34.87c-3.78,4.94-3.31,11.64,1.05,14.97l0.99,0.75
					c4.36,3.33,10.94,2.03,14.72-2.91l26.68-34.87c-1.04-0.8-1.22-2.39-0.39-3.63l6.12-9.31l0.77-1.18l0.13,0.1
					c0.89,0.68,2.16,0.51,2.84-0.38l1.81-2.37C249.2,104.69,249.03,103.42,248.14,102.74z"/>
			</g>
		</g>
		<g>
			<polygon class="st10" points="280.52,44.62 270.5,56.43 239.74,96.65 243.65,99.64 274.41,59.42 283.18,46.66 			"/>
			<path class="st10" d="M247.48,102.57l-11.57-8.85c-0.89-0.68-2.16-0.51-2.84,0.38l-1.81,2.37c-0.68,0.89-0.51,2.16,0.38,2.84
				l0.13,0.1l-0.94,1.05l-7.38,8.34c-0.98,1.12-2.56,1.37-3.61,0.57l-26.68,34.87c-3.78,4.94-3.31,11.64,1.05,14.97l0.99,0.75
				c4.36,3.33,10.94,2.03,14.72-2.91l26.68-34.87c-1.04-0.8-1.22-2.39-0.39-3.63l6.12-9.31l0.77-1.18l0.13,0.1
				c0.89,0.68,2.16,0.51,2.84-0.38l1.81-2.37C248.53,104.52,248.37,103.25,247.48,102.57z"/>
		</g>
	</g>
	<g class="st1">
		<g>
			<polygon class="st14" points="876.86,118.16 915.03,96.26 932.56,120.93 889.25,145.78 			"/>
			<path class="st15" d="M903,76.4l-2.42-4.21c-1.04-1.81-3.36-2.43-5.18-1.38c-2.21,1.27-4.73,1.53-7,0.92
				c-2.28-0.61-4.31-2.08-5.58-4.28c-2.38-7.46-5.54-14.63-9.42-21.39c-1.17-2.04-2.41-4.04-3.71-6.01
				c-2.22-3.35-4.61-6.57-7.19-9.67c-1.01-1.21-2.13-2.31-3.35-3.29c-1.22-0.98-2.55-1.84-3.95-2.56l-1.81-0.93
				c-3.6-1.85-7.94,0.64-8.16,4.68l-0.11,2.04c-0.18,3.15,0.29,6.3,1.36,9.26c1.37,3.79,2.95,7.49,4.72,11.09
				c1.04,2.11,2.15,4.19,3.32,6.23c3.88,6.76,8.47,13.1,13.71,18.92c1.26,2.2,1.51,4.7,0.88,6.97c-0.62,2.27-2.12,4.31-4.33,5.58
				c-0.91,0.52-1.53,1.36-1.78,2.3c-0.26,0.94-0.16,1.97,0.36,2.87l2.42,4.21L903,76.4z M852.96,32.3c1.95-1.12,4.44-0.46,5.55,1.48
				c1.11,1.94,0.43,4.42-1.52,5.54c-1.95,1.12-4.44,0.46-5.55-1.48C850.32,35.91,851.01,33.42,852.96,32.3z"/>
			<g>
				<path class="st11" d="M857.73,34.23c1,1.74,0.55,3.92-0.97,5.15c0.21-0.08,0.41-0.17,0.61-0.28c1.95-1.12,2.63-3.6,1.52-5.54
					c-1.11-1.94-3.6-2.6-5.55-1.48c-0.2,0.11-0.38,0.25-0.55,0.39C854.62,31.78,856.73,32.49,857.73,34.23z"/>
				<path class="st11" d="M866.94,97.1l-2.42-4.21c-0.52-0.9-0.62-1.94-0.36-2.87c0.26-0.94,0.87-1.77,1.78-2.3
					c2.21-1.27,3.7-3.31,4.33-5.58c0.62-2.27,0.38-4.78-0.88-6.97c-5.24-5.82-9.83-12.16-13.71-18.92
					c-1.17-2.04-2.28-4.12-3.32-6.23c-1.77-3.6-3.35-7.3-4.72-11.09c-1.07-2.96-1.54-6.11-1.36-9.26l0.11-2.04
					c0.1-1.77,0.98-3.24,2.25-4.18c-1.86,0.8-3.29,2.58-3.41,4.85l-0.11,2.04c-0.18,3.15,0.29,6.3,1.36,9.26
					c1.37,3.79,2.95,7.49,4.72,11.09c1.04,2.11,2.15,4.19,3.32,6.23c3.88,6.76,8.47,13.1,13.71,18.92c1.26,2.2,1.51,4.7,0.88,6.97
					c-0.62,2.27-2.12,4.31-4.33,5.58c-0.91,0.52-1.53,1.36-1.78,2.3c-0.26,0.94-0.16,1.97,0.36,2.87l2.42,4.21L866.94,97.1z"/>
			</g>
			<path class="st14" d="M916.5,92.82l-1.57-2.73l0,0l-0.54-0.94l0,0l-5.24-9.13l-0.41-0.71l0,0l-1.57-2.73
				c-0.62-1.08-2-1.45-3.09-0.82l-39.42,22.62c-1.08,0.62-1.46,2-0.84,3.08l1.57,2.73l0,0l0.54,0.94l0,0l5.1,8.9l0,0l0.54,0.94l0,0
				l1.57,2.73c0.62,1.08,2,1.45,3.09,0.82l39.42-22.62C916.74,95.28,917.12,93.9,916.5,92.82z"/>
			<g>
				<polygon class="st12" points="914.72,96.44 915.5,95.99 933.09,120.62 932.21,121.13 				"/>
				<polygon class="st12" points="913.07,97.38 913.85,96.93 931.23,121.69 930.34,122.2 				"/>
				<polygon class="st12" points="911.43,98.33 912.21,97.88 929.36,122.77 928.47,123.27 				"/>
				<polygon class="st12" points="909.78,99.27 910.56,98.82 927.49,123.84 926.61,124.35 				"/>
				<polygon class="st12" points="908.13,100.22 908.91,99.77 925.62,124.91 924.74,125.42 				"/>
				<polygon class="st12" points="906.49,101.16 907.27,100.71 923.75,125.98 922.87,126.49 				"/>
				<polygon class="st12" points="904.84,102.11 905.62,101.66 921.89,127.05 921,127.56 				"/>
				<polygon class="st12" points="903.2,103.05 903.98,102.6 920.02,128.13 919.13,128.63 				"/>
				<polygon class="st12" points="901.55,103.99 902.33,103.55 918.15,129.2 917.27,129.7 				"/>
				<polygon class="st12" points="899.9,104.94 900.68,104.49 916.28,130.27 915.4,130.78 				"/>
				<polygon class="st12" points="898.26,105.88 899.04,105.44 914.41,131.34 913.53,131.85 				"/>
				<polygon class="st12" points="896.61,106.83 897.39,106.38 912.55,132.41 911.66,132.92 				"/>
				<polygon class="st12" points="894.97,107.77 895.74,107.33 910.68,133.48 909.79,133.99 				"/>
				<polygon class="st12" points="893.32,108.72 894.1,108.27 908.81,134.56 907.93,135.06 				"/>
				<polygon class="st12" points="891.67,109.66 892.45,109.21 906.94,135.63 906.06,136.14 				"/>
				<polygon class="st12" points="890.03,110.61 890.81,110.16 905.08,136.7 904.19,137.21 				"/>
				<polygon class="st12" points="888.38,111.55 889.16,111.1 903.21,137.77 902.32,138.28 				"/>
				<polygon class="st12" points="886.73,112.5 887.51,112.05 901.34,138.84 900.45,139.35 				"/>
				<polygon class="st12" points="885.09,113.44 885.87,112.99 899.47,139.92 898.59,140.42 				"/>
				<polygon class="st12" points="883.44,114.39 884.22,113.94 897.6,140.99 896.72,141.5 				"/>
				<polygon class="st12" points="881.8,115.33 882.58,114.88 895.74,142.06 894.85,142.57 				"/>
				<polygon class="st12" points="880.15,116.27 880.93,115.83 893.87,143.13 892.98,143.64 				"/>
				<polygon class="st12" points="878.5,117.22 879.28,116.77 892,144.2 891.11,144.71 				"/>
				<polygon class="st12" points="876.86,118.16 877.64,117.72 890.13,145.28 889.25,145.78 				"/>
			</g>
		</g>
		<g>
			<polygon class="st10" points="877.26,116.99 915.43,95.08 932.96,119.75 889.65,144.61 			"/>
			<path class="st10" d="M903.4,75.22l-2.42-4.21c-1.04-1.81-3.36-2.43-5.18-1.38c-2.21,1.27-4.73,1.53-7,0.92
				c-2.28-0.61-4.31-2.08-5.58-4.28c-2.38-7.46-5.54-14.63-9.42-21.39c-1.17-2.04-2.41-4.04-3.71-6.01
				c-2.22-3.35-4.61-6.57-7.19-9.67c-1.01-1.21-2.13-2.31-3.35-3.29c-1.22-0.98-2.55-1.84-3.95-2.56l-1.81-0.93
				c-3.6-1.85-7.94,0.64-8.16,4.68l-0.11,2.04c-0.18,3.15,0.29,6.3,1.36,9.26c1.37,3.79,2.95,7.49,4.72,11.09
				c1.04,2.11,2.15,4.19,3.32,6.23c3.88,6.76,8.47,13.1,13.71,18.92c1.26,2.2,1.51,4.7,0.88,6.97c-0.62,2.27-2.12,4.31-4.33,5.58
				c-0.91,0.52-1.53,1.36-1.78,2.3c-0.26,0.94-0.16,1.97,0.36,2.87l2.42,4.21L903.4,75.22z M853.35,31.13
				c1.95-1.12,4.44-0.46,5.55,1.48c1.11,1.94,0.43,4.42-1.52,5.54c-1.95,1.12-4.44,0.46-5.55-1.48
				C850.72,34.73,851.4,32.25,853.35,31.13z"/>
			<path class="st10" d="M916.9,91.65l-1.57-2.73l0,0l-0.54-0.94l0,0l-5.1-8.9l0,0l-0.54-0.94l0,0l-1.57-2.73
				c-0.62-1.08-2-1.45-3.09-0.82l-39.42,22.62c-1.08,0.62-1.46,2-0.84,3.08l7.56,13.18l0.18,0.32l0,0l1.57,2.73
				c0.62,1.08,2,1.45,3.09,0.82l39.42-22.62C917.14,94.1,917.51,92.72,916.9,91.65z"/>
		</g>
	</g>
	<g class="st1">
		<g>
			<path class="st16" d="M1152.68,40.11c-5.49-5.7-14.57-5.87-20.27-0.38c-4.07,3.92-5.3,9.66-3.69,14.7l-46.4,44.72
				c-5.62-2.32-12.32-1.27-16.97,3.21c-4.04,3.9-5.56,9.43-4.5,14.55l7.33-7.06c2.5-2.41,6.51-2.33,8.92,0.17l2.92,3.03
				c2.41,2.5,2.33,6.51-0.16,8.92l-7.33,7.07c5.08,1.25,10.67-0.06,14.71-3.95c4.65-4.49,5.95-11.14,3.84-16.85l46.4-44.71
				c4.98,1.8,10.76,0.78,14.83-3.14C1158.01,54.88,1158.18,45.81,1152.68,40.11z M1151.46,50.23l-1.3,4.51
				c-0.47,1.62-1.77,2.88-3.41,3.28l-4.55,1.13c-1.64,0.41-3.37-0.09-4.55-1.31l-3.26-3.38c-1.17-1.22-1.61-2.97-1.14-4.59l1.3-4.51
				c0.47-1.62,1.77-2.88,3.41-3.28l4.55-1.13c1.64-0.41,3.37,0.09,4.55,1.31l3.26,3.38C1151.49,46.86,1151.93,48.61,1151.46,50.23z"
				/>
		</g>
		<g>
			<path class="st10" d="M1150.18,39.97c-5.49-5.7-14.57-5.87-20.27-0.38c-4.07,3.92-5.3,9.66-3.69,14.7l-46.4,44.72
				c-5.62-2.32-12.32-1.27-16.97,3.21c-4.04,3.9-5.56,9.43-4.5,14.55l7.33-7.06c2.5-2.41,6.51-2.33,8.92,0.17l2.92,3.03
				c2.41,2.5,2.33,6.51-0.16,8.92l-7.33,7.07c5.08,1.25,10.67-0.06,14.71-3.95c4.65-4.49,5.95-11.14,3.84-16.85l46.4-44.71
				c4.98,1.8,10.76,0.78,14.83-3.14C1155.51,54.75,1155.68,45.67,1150.18,39.97z M1148.96,50.1l-1.3,4.51
				c-0.47,1.62-1.77,2.88-3.41,3.28l-4.55,1.13c-1.64,0.41-3.37-0.09-4.55-1.31l-3.26-3.38c-1.17-1.22-1.61-2.97-1.14-4.59l1.3-4.51
				c0.47-1.62,1.77-2.88,3.41-3.28l4.55-1.13c1.64-0.41,3.37,0.09,4.55,1.31l3.26,3.38C1148.99,46.72,1149.43,48.47,1148.96,50.1z"
				/>
		</g>
	</g>
	<g class="st1">
		<path class="st17" d="M332.56,142.14l3.04-0.13l-0.22-5.39l-3.42,0.14c-0.28-1.01-0.63-1.98-1.06-2.91l2.91-1.7l-2.73-4.66
			l-3.18,1.86c-0.67-0.74-1.4-1.43-2.18-2.05l1.87-3.03l-4.59-2.84l-1.98,3.2c-0.77-0.3-1.56-0.54-2.39-0.73v-3.28h-5.4v2.88
			c-0.81,0.06-1.6,0.16-2.37,0.32l-1.22-2.64l-4.9,2.28l1.06,2.27c-1.04,0.58-2,1.26-2.9,2.03l-1.99-1.52l-3.27,4.3l1.72,1.31
			c-0.65,1.04-1.19,2.14-1.63,3.3l-2.18-0.35l-0.86,5.33l1.94,0.31c-0.02,0.33-0.05,0.66-0.05,0.99c0,0.94,0.09,1.85,0.23,2.75
			l-1.99,0.68l1.73,5.12l1.87-0.64c0.56,1.13,1.21,2.18,1.98,3.16l-1.51,1.59l3.93,3.71l1.5-1.58c0.98,0.68,2.04,1.28,3.16,1.76
			l-0.66,2.36l5.2,1.44l0.68-2.44c0.62,0.06,1.25,0.1,1.89,0.1c0.31,0,0.6-0.03,0.91-0.05l0.31,2.05l5.34-0.81l-0.35-2.31
			c1.15-0.42,2.23-0.95,3.25-1.58l1.38,1.85l4.33-3.22l-1.58-2.14c0.75-0.86,1.43-1.81,2.01-2.8l2.39,1.14l2.32-4.88l-2.75-1.31
			C332.39,144.34,332.52,143.25,332.56,142.14z M315.15,144.36c-1.74,0-3.15-1.41-3.15-3.15c0-1.73,1.41-3.14,3.15-3.14
			c1.73,0,3.14,1.41,3.14,3.14C318.29,142.96,316.88,144.36,315.15,144.36z"/>
		<path class="st10" d="M331.18,140.29l3.04-0.13l-0.22-5.39l-3.42,0.14c-0.28-1.01-0.63-1.98-1.06-2.91l2.91-1.7l-2.73-4.66
			l-3.18,1.86c-0.67-0.74-1.4-1.43-2.18-2.05l1.87-3.03l-4.59-2.84l-1.98,3.2c-0.77-0.3-1.56-0.54-2.39-0.73v-3.28h-5.4v2.88
			c-0.81,0.06-1.6,0.16-2.37,0.32l-1.22-2.64l-4.9,2.28l1.06,2.27c-1.04,0.58-2,1.26-2.9,2.03l-1.99-1.52l-3.27,4.3l1.72,1.31
			c-0.65,1.04-1.19,2.14-1.63,3.3l-2.18-0.35l-0.86,5.33l1.94,0.31c-0.02,0.33-0.05,0.66-0.05,0.99c0,0.94,0.09,1.85,0.23,2.75
			l-1.99,0.68l1.73,5.12l1.87-0.64c0.56,1.13,1.21,2.18,1.98,3.16l-1.51,1.59l3.93,3.71l1.5-1.58c0.98,0.68,2.04,1.28,3.16,1.76
			l-0.66,2.36l5.2,1.44l0.68-2.44c0.62,0.06,1.25,0.1,1.89,0.1c0.31,0,0.6-0.03,0.91-0.05l0.31,2.05l5.34-0.81l-0.35-2.31
			c1.15-0.42,2.23-0.95,3.25-1.58l1.38,1.85l4.33-3.22l-1.58-2.14c0.75-0.86,1.43-1.81,2.01-2.8l2.39,1.14l2.32-4.88l-2.75-1.31
			C331.01,142.49,331.14,141.4,331.18,140.29z M313.77,142.51c-1.74,0-3.15-1.41-3.15-3.15c0-1.73,1.41-3.14,3.15-3.14
			c1.73,0,3.14,1.41,3.14,3.14C316.91,141.11,315.5,142.51,313.77,142.51z"/>
	</g>
	<g class="st1">
		<path class="st9" d="M1201.88,116.58l3.04-0.13l-0.22-5.39l-3.42,0.14c-0.28-1.01-0.63-1.98-1.06-2.91l2.91-1.7l-2.73-4.66
			l-3.18,1.86c-0.67-0.74-1.4-1.43-2.18-2.05l1.87-3.03l-4.59-2.84l-1.98,3.2c-0.77-0.3-1.56-0.54-2.39-0.73v-3.28h-5.4v2.88
			c-0.81,0.06-1.6,0.16-2.37,0.32l-1.22-2.64l-4.9,2.28l1.06,2.27c-1.04,0.58-2,1.26-2.9,2.03l-1.99-1.52l-3.27,4.3l1.72,1.31
			c-0.65,1.04-1.19,2.14-1.63,3.3l-2.18-0.35l-0.86,5.33l1.94,0.31c-0.02,0.33-0.05,0.66-0.05,0.99c0,0.94,0.09,1.85,0.23,2.75
			l-1.99,0.68l1.73,5.12l1.87-0.64c0.56,1.13,1.21,2.18,1.98,3.16l-1.51,1.59l3.93,3.71l1.5-1.58c0.98,0.68,2.04,1.28,3.16,1.76
			l-0.66,2.36l5.2,1.44l0.68-2.44c0.62,0.06,1.25,0.1,1.89,0.1c0.31,0,0.6-0.03,0.91-0.05l0.31,2.05l5.34-0.81l-0.35-2.31
			c1.15-0.42,2.23-0.95,3.25-1.58l1.38,1.85l4.33-3.22l-1.58-2.14c0.75-0.86,1.43-1.81,2.01-2.81l2.39,1.14l2.32-4.88l-2.75-1.31
			C1201.7,118.77,1201.83,117.69,1201.88,116.58z M1184.47,118.8c-1.74,0-3.15-1.41-3.15-3.15c0-1.73,1.41-3.14,3.15-3.14
			c1.73,0,3.14,1.41,3.14,3.14C1187.61,117.4,1186.2,118.8,1184.47,118.8z"/>
		<path class="st10" d="M1200.5,114.73l3.04-0.13l-0.22-5.39l-3.42,0.14c-0.28-1.01-0.63-1.98-1.06-2.91l2.91-1.7l-2.73-4.66
			l-3.18,1.86c-0.67-0.74-1.4-1.43-2.18-2.05l1.87-3.03l-4.59-2.84l-1.98,3.2c-0.77-0.3-1.56-0.54-2.39-0.73v-3.28h-5.4v2.88
			c-0.81,0.06-1.6,0.16-2.37,0.32l-1.22-2.64l-4.9,2.28l1.06,2.27c-1.04,0.58-2,1.26-2.9,2.03l-1.99-1.52l-3.27,4.3l1.72,1.31
			c-0.65,1.04-1.19,2.14-1.63,3.3l-2.18-0.35l-0.86,5.33l1.94,0.31c-0.02,0.33-0.05,0.66-0.05,0.99c0,0.94,0.09,1.85,0.23,2.75
			l-1.99,0.68l1.73,5.12l1.87-0.64c0.56,1.13,1.21,2.18,1.98,3.16l-1.51,1.59l3.93,3.71l1.5-1.58c0.98,0.68,2.04,1.28,3.16,1.76
			l-0.66,2.36l5.2,1.44l0.68-2.44c0.62,0.06,1.25,0.1,1.89,0.1c0.31,0,0.6-0.03,0.91-0.05l0.31,2.05l5.34-0.81l-0.35-2.31
			c1.15-0.42,2.23-0.95,3.25-1.58l1.38,1.85l4.33-3.22l-1.58-2.14c0.75-0.86,1.43-1.81,2.01-2.81l2.39,1.14l2.32-4.88l-2.75-1.31
			C1200.33,116.92,1200.45,115.84,1200.5,114.73z M1183.09,116.95c-1.74,0-3.15-1.41-3.15-3.15c0-1.73,1.41-3.14,3.15-3.14
			c1.73,0,3.14,1.41,3.14,3.14C1186.23,115.54,1184.82,116.95,1183.09,116.95z"/>
	</g>
	<g class="st1">
		<path class="st16" d="M1161.86,139.88l2.15-0.09l-0.16-3.82l-2.42,0.1c-0.2-0.72-0.45-1.41-0.76-2.06l2.06-1.21l-1.94-3.3
			l-2.25,1.32c-0.47-0.53-0.99-1.01-1.54-1.45l1.33-2.15l-3.26-2.02l-1.41,2.27c-0.55-0.21-1.11-0.38-1.69-0.52v-2.33h-3.83v2.04
			c-0.57,0.04-1.14,0.11-1.68,0.23l-0.87-1.87l-3.47,1.62l0.75,1.61c-0.74,0.41-1.42,0.89-2.06,1.44l-1.41-1.08l-2.32,3.05
			l1.22,0.93c-0.46,0.74-0.85,1.52-1.16,2.34l-1.55-0.25l-0.61,3.78l1.38,0.22c-0.01,0.24-0.03,0.47-0.03,0.7
			c0,0.67,0.07,1.31,0.16,1.95l-1.41,0.48l1.23,3.63l1.33-0.45c0.39,0.8,0.86,1.55,1.41,2.24l-1.07,1.13l2.79,2.63l1.06-1.12
			c0.7,0.49,1.45,0.91,2.24,1.25l-0.47,1.68l3.69,1.02l0.48-1.73c0.44,0.05,0.89,0.07,1.34,0.07c0.22,0,0.43-0.02,0.64-0.03
			l0.22,1.45l3.79-0.57l-0.25-1.64c0.81-0.3,1.58-0.68,2.31-1.12l0.98,1.31l3.07-2.29l-1.12-1.52c0.53-0.61,1.01-1.28,1.43-1.99
			l1.69,0.81l1.65-3.46l-1.95-0.93C1161.74,141.44,1161.83,140.67,1161.86,139.88z M1149.51,141.46c-1.23,0-2.23-1-2.23-2.23
			c0-1.23,1-2.23,2.23-2.23c1.23,0,2.23,1,2.23,2.23C1151.73,140.46,1150.73,141.46,1149.51,141.46z"/>
		<path class="st10" d="M1160.88,138.57l2.15-0.09l-0.16-3.82l-2.42,0.1c-0.2-0.72-0.45-1.41-0.76-2.06l2.06-1.21l-1.94-3.3
			l-2.25,1.32c-0.47-0.53-0.99-1.01-1.54-1.45l1.33-2.15l-3.26-2.02l-1.41,2.27c-0.55-0.21-1.11-0.38-1.69-0.52v-2.33h-3.83v2.04
			c-0.57,0.04-1.14,0.11-1.68,0.23l-0.87-1.87l-3.47,1.62l0.75,1.61c-0.74,0.41-1.42,0.89-2.06,1.44l-1.41-1.08l-2.32,3.05
			l1.22,0.93c-0.46,0.74-0.85,1.52-1.16,2.34l-1.55-0.25l-0.61,3.78l1.38,0.22c-0.01,0.24-0.03,0.47-0.03,0.7
			c0,0.67,0.07,1.31,0.16,1.95l-1.41,0.48l1.23,3.63l1.33-0.45c0.39,0.8,0.86,1.55,1.41,2.24l-1.07,1.13l2.79,2.63l1.06-1.12
			c0.7,0.49,1.45,0.91,2.24,1.25l-0.47,1.68l3.69,1.02l0.48-1.73c0.44,0.05,0.89,0.07,1.34,0.07c0.22,0,0.43-0.02,0.64-0.03
			l0.22,1.45l3.79-0.57l-0.25-1.64c0.81-0.3,1.58-0.68,2.31-1.12l0.98,1.31l3.07-2.29l-1.12-1.52c0.53-0.61,1.01-1.28,1.43-1.99
			l1.69,0.81l1.65-3.46l-1.95-0.93C1160.76,140.13,1160.85,139.36,1160.88,138.57z M1148.53,140.15c-1.23,0-2.23-1-2.23-2.23
			c0-1.23,1-2.23,2.23-2.23c1.23,0,2.23,1,2.23,2.23C1150.75,139.15,1149.75,140.15,1148.53,140.15z"/>
	</g>
	<g class="st1">
		
			<rect x="98.44" y="93.87" transform="matrix(-0.4597 -0.8881 0.8881 -0.4597 35.4565 313.3708)" class="st18" width="29.23" height="104.06"/>
		<g>
			<path class="st19" d="M153.36,106.76c-0.25,0-0.55,0.11-0.97,0.31c-0.34,0.16-0.68,0.34-1.01,0.52
				c-15.14,7.83-30.27,15.67-45.41,23.5c0.01,0.01,0.01,0.02,0.02,0.04c-15.24,7.89-30.48,15.77-45.71,23.66
				c-2.02,1.05-2.04,1.08-0.95,3.15c4.27,8.15,8.56,16.29,12.85,24.44c0.49,0.93,0.73,1.32,1.17,1.32c0.3,0,0.7-0.19,1.34-0.52
				c30.69-15.92,61.39-31.85,92.08-47.78c0.2-0.1,0.41-0.2,0.6-0.32c0.62-0.39,0.73-0.66,0.45-1.32c-0.3-0.7-0.65-1.37-0.99-2.04
				c-4.04-7.84-8.09-15.68-12.14-23.53c-0.09-0.17-0.17-0.34-0.27-0.5C154.02,107.04,153.76,106.76,153.36,106.76L153.36,106.76z
				 M153.49,121.5c0.4-0.42,0.08-0.79-0.08-1.13c-0.81-1.67-1.63-3.34-2.47-4.99c-0.84-1.65-1.7-3.29-2.59-5.02
				c1.71-0.88,3.33-1.73,5.06-2.62c4.56,8.81,9.11,17.6,13.68,26.42c-31.19,16.15-62.38,32.29-93.66,48.48
				c-4.62-8.92-9.15-17.67-13.67-26.41c0.61-0.57,3.84-2.22,5.02-2.55c0.17,0.34,0.36,0.7,0.55,1.06c1.49,2.86,2.98,5.71,4.49,8.56
				c0.19,0.36,0.29,0.86,0.89,0.86c0.02,0,0.03,0,0.05,0c0.38-0.48,0.03-0.86-0.16-1.24c-1.14-2.27-2.3-4.53-3.46-6.79
				c-0.5-0.97-1-1.94-1.54-2.98c0.95-0.49,1.81-0.94,2.74-1.42c0.84,1.08,1.14,2.52,2.12,3.49c0.55-0.32,0.41-0.65,0.26-0.96
				c-0.31-0.65-0.64-1.29-0.97-1.93c-0.17-0.33-0.34-0.66-0.55-1.06c0.89-0.46,1.72-0.89,2.66-1.38c0.65,1.25,1.27,2.46,1.9,3.66
				c0.21,0.4,0.41,0.82,0.67,1.19c0.15,0.21,0.41,0.34,0.74,0.42c0.07-1.14-0.63-1.97-1.04-2.9c-0.41-0.93-0.92-1.82-1.43-2.79
				c0.92-0.47,1.7-0.88,2.53-1.31c0.83,0.96,1.11,2.3,2.15,3.21c0.52-0.85-0.05-1.36-0.27-1.9c-0.24-0.59-0.58-1.14-0.91-1.79
				c0.95-0.49,1.79-0.93,2.56-1.33c1.92,3.51,3.8,6.96,5.7,10.4c0.03,0.06,0.2,0.05,0.34,0.09c0.35-0.47,0.07-0.87-0.13-1.25
				c-0.92-1.83-1.85-3.65-2.78-5.48c-0.72-1.41-1.45-2.81-2.21-4.27c0.69-0.36,1.32-0.68,1.93-1c0.87,0.97,1,2.4,2.23,3.05
				c0.16-1.37-0.91-2.3-1.21-3.57c0.79-0.41,1.58-0.82,2.48-1.29c0.39,0.76,0.76,1.49,1.15,2.21c0.41,0.77,0.81,1.54,1.24,2.3
				c0.15,0.27,0.39,0.49,0.59,0.73c0.63-0.44,0.34-0.83,0.17-1.18c-0.57-1.15-1.17-2.3-1.75-3.45c-0.17-0.33-0.34-0.66-0.55-1.06
				c0.86-0.45,1.66-0.86,2.54-1.31c0.36,0.65,0.67,1.29,1.06,1.87c0.37,0.55,0.41,1.39,1.41,1.67c0.03-1.61-1.2-2.64-1.49-4.05
				c0.82-0.42,1.64-0.85,2.53-1.31c1.34,2.58,2.64,5.1,3.94,7.62c0.35,0.67,0.7,1.34,1.06,2.01c0.11,0.2,0.18,0.44,0.34,0.59
				c0.17,0.16,0.41,0.23,0.62,0.34c0.05-0.23,0.18-0.47,0.14-0.68c-0.06-0.29-0.25-0.55-0.39-0.82c-1.62-3.13-3.24-6.26-4.9-9.46
				c0.81-0.42,1.57-0.81,2.43-1.26c0.33,0.58,0.63,1.18,1,1.73c0.33,0.5,0.41,1.25,1.23,1.37c0.44-0.73-0.14-1.23-0.37-1.78
				c-0.24-0.59-0.58-1.14-0.89-1.74c0.73-0.71,1.59-0.97,2.35-1.36c0.96,1.65,1.86,3.21,2.78,4.77c0.03,0.06,0.2,0.03,0.32,0.05
				c0.41-0.42,0.11-0.79-0.07-1.14c-0.54-1.08-1.1-2.16-1.66-3.24c-0.14-0.27-0.28-0.53-0.45-0.87c0.77-0.4,1.5-0.78,2.28-1.18
				c0.77,0.96,1.09,2.21,2.02,3.14c0.6-0.82,0.01-1.32-0.21-1.85c-0.24-0.59-0.58-1.14-0.9-1.77c0.99-0.51,1.89-0.98,2.89-1.5
				c0.21,0.4,0.39,0.77,0.58,1.12c1.55,2.91,3.1,5.82,4.67,8.72c0.18,0.34,0.26,0.86,0.83,0.86c0.03,0,0.05,0,0.08,0
				c0.33-0.5-0.03-0.88-0.22-1.25c-1.4-2.82-2.81-5.63-4.23-8.44c-0.24-0.47-0.48-0.94-0.77-1.48c0.75-0.39,1.43-0.74,2.24-1.16
				c0.36,0.64,0.68,1.32,1.09,1.93c0.36,0.54,0.38,1.43,1.36,1.49c0.2-0.85-0.4-1.38-0.66-2.01c-0.26-0.62-0.61-1.2-0.95-1.86
				c0.93-0.48,1.72-0.89,2.62-1.35c0.47,0.82,0.94,1.63,1.4,2.44c0.36,0.63,0.69,1.27,1.06,1.88c0.14,0.23,0.36,0.41,0.55,0.62
				c0.47-0.41,0.21-0.72,0.08-1c-0.56-1.2-1.14-2.4-1.7-3.6c-0.13-0.27-0.24-0.54-0.38-0.86c0.87-0.45,1.69-0.88,2.5-1.3
				c0.71,1.12,1.37,2.16,2.04,3.2c0.01,0.01,0.02,0.01,0.04,0.01c0.05,0,0.16-0.02,0.31-0.03c-0.15-1.34-1.01-2.39-1.43-3.68
				c0.97-0.5,1.93-1,2.94-1.52c0.16,0.28,0.33,0.52,0.46,0.78c1.49,2.81,2.97,5.63,4.47,8.44c0.22,0.41,0.36,0.93,0.97,1.04
				c0.41-0.43,0.08-0.78-0.09-1.12c-1.07-2.18-2.14-4.35-3.22-6.53c-0.51-1.01-1.04-2.02-1.6-3.11c0.69-0.36,1.34-0.69,2.12-1.1
				c0.31,0.6,0.61,1.19,0.93,1.79c0.18,0.33,0.32,0.7,0.57,0.98c0.13,0.15,0.44,0.15,0.67,0.21c0.03-0.21,0.14-0.46,0.06-0.62
				c-0.44-0.92-0.92-1.81-1.43-2.79c0.93-0.48,1.72-0.89,2.56-1.33c1.18,1.62,1.68,3.67,3.18,5.25c0.3-0.98,0.3-0.98-0.74-3.01
				c-0.47-0.91-0.94-1.81-1.44-2.78c0.78-0.4,1.47-0.76,2.18-1.13c0.9,0.94,0.99,2.45,2.27,3.22c0.4-0.89-0.2-1.4-0.41-1.99
				c-0.22-0.6-0.52-1.16-0.81-1.79c0.94-0.49,1.84-0.95,2.8-1.45c0.18,0.29,0.34,0.53,0.47,0.78c1.52,2.89,3.02,5.78,4.55,8.66
				c0.22,0.41,0.52,0.78,0.79,1.16c0.09-0.03,0.17-0.05,0.26-0.08c0.03-0.23,0.13-0.47,0.08-0.68c-0.09-0.32-0.27-0.62-0.43-0.93
				c-1.46-2.87-2.93-5.74-4.4-8.61c-0.12-0.23-0.22-0.47-0.36-0.78c0.85-0.44,1.67-0.86,2.59-1.34c0.36,0.7,0.69,1.33,1.02,1.97
				c0.14,0.27,0.26,0.57,0.46,0.78c0.15,0.15,0.44,0.17,0.67,0.25c0.03-0.21,0.13-0.43,0.08-0.61c-0.09-0.33-0.27-0.63-0.41-0.94
				c-0.28-0.62-0.55-1.24-0.86-1.93c0.93-0.48,1.82-0.94,2.82-1.46c0.55,1.02,1.08,2.01,1.6,3c0.27,0.5,0.51,1.02,0.81,1.5
				c0.14,0.22,0.38,0.38,0.57,0.57c0.52-0.44,0.27-0.78,0.11-1.1c-0.56-1.12-1.12-2.24-1.68-3.35c-0.17-0.33-0.34-0.66-0.55-1.06
				c0.81-0.42,1.53-0.79,2.25-1.16c0.76,0.87,0.96,2.08,1.9,2.84c0.65-0.71,0.08-1.2-0.13-1.69c-0.23-0.55-0.54-1.06-0.84-1.64
				c0.99-0.51,1.89-0.98,2.84-1.47c0.18,0.29,0.34,0.54,0.48,0.8c1.59,2.98,3.17,5.96,4.76,8.93
				C152.79,120.94,152.91,121.44,153.49,121.5L153.49,121.5z"/>
		</g>
	</g>
	<g class="st1">
		<g>
			<path class="st9" d="M1053.66,36.98c-0.81-0.28-1.63-0.55-2.44-0.83c-1.49-0.51-2.98-1.02-4.47-1.52
				c-0.37-0.13-0.75-0.25-1.12-0.38l-13.14,38.59l-0.54,1.59l5.59,1.91l3.56,1.21l0.54-1.59l13.15-38.59
				C1054.41,37.24,1054.04,37.11,1053.66,36.98z"/>
			<path class="st11" d="M1015.65,26.98c0.26,0.1,0.54,0.14,0.81,0.13C1016.19,27.12,1015.91,27.08,1015.65,26.98L1015.65,26.98z"/>
			<path class="st19" d="M1015.07,25.87c-0.21,0.43-0.12,0.84,0.58,1.11c0,0,0,0,0,0C1014.95,26.71,1014.86,26.3,1015.07,25.87z"/>
			<path class="st19" d="M1085.14,26.37c-0.29-0.1-0.58-0.2-0.87-0.3l-0.03,0.08c-0.04,0.12-0.09,0.23-0.14,0.34
				c-0.01,0.03-0.03,0.05-0.04,0.08c-0.05,0.09-0.1,0.17-0.15,0.26c-0.01,0.02-0.02,0.04-0.04,0.05c-0.14,0.21-0.31,0.39-0.5,0.56v0
				c-0.78,0.68-1.89,0.94-2.94,0.58l-8.65-2.95c-1.57-0.53-2.41-2.24-1.87-3.81l0.38-1.11c-7.14-2.47-25.79-8.91-28.07-9.01
				c-2.84-0.12-5.58,0.78-8.18,1.99c0,0,0,0,0,0c0,0,0,0,0,0c-0.85,0.4-1.69,0.83-2.5,1.27c-3.33,1.8-6.56,3.79-9.66,5.96
				c-1.55,1.09-3.07,2.22-4.55,3.4c-0.16,0.12-0.47,0.34-0.81,0.6c-0.43,0.33-0.92,0.73-1.23,1.13c-0.09,0.12-0.17,0.24-0.23,0.36
				c-0.21,0.43-0.12,0.84,0.58,1.11c0.26,0.1,0.54,0.14,0.81,0.13c0.28-0.02,0.55-0.09,0.8-0.21c4.69-2.23,9.45-4.33,14.37-6.02
				c1.33-0.46,2.69-0.88,4.09-0.87c0.33,0,0.66,0.03,0.99,0.1c0.22,0.04,0.43,0.09,0.64,0.16c0.31,0.1,0.62,0.23,0.9,0.39
				c0.15,0.09,0.3,0.18,0.43,0.29c0.28,0.21,0.52,0.45,0.73,0.74c1.03,1.41,0.84,3.37,0.28,5.02c-0.21,0.62-0.47,1.22-0.73,1.83
				c-0.21,0.5-0.42,1.01-0.6,1.52c-0.18,0.51-0.33,1.03-0.42,1.57c2.56,0.87,5.12,1.75,7.68,2.62c0.37,0.13,0.75,0.25,1.12,0.38
				c1.49,0.51,2.98,1.02,4.47,1.52c0.81,0.28,1.63,0.55,2.44,0.83c0.37,0.13,0.75,0.25,1.12,0.38c2.88,0.98,5.76,1.96,8.64,2.94
				l0.35-1.03l0.04-0.11c0.36-1.05,1.24-1.77,2.25-1.97c0.24-0.05,0.49-0.07,0.74-0.05c0.02,0,0.04,0,0.07,0.01
				c0.1,0.01,0.2,0.02,0.29,0.04c0.03,0.01,0.06,0.01,0.09,0.02c0.12,0.02,0.24,0.05,0.36,0.1l8.66,2.95
				c0.1,0.03,0.19,0.07,0.29,0.11c0.37,0.17,0.69,0.41,0.95,0.69c0.13,0.14,0.25,0.3,0.35,0.46c0.15,0.25,0.27,0.51,0.34,0.79
				c0.04,0.16,0.07,0.32,0.09,0.48c0.02,0.15,0.02,0.31,0.01,0.46c-0.01,0.16-0.03,0.31-0.06,0.47c-0.02,0.11-0.05,0.23-0.09,0.34
				l-0.03,0.08l9.03,3.07l0.35-1.03l5.8-17.02C1090.58,28.23,1087.86,27.3,1085.14,26.37z"/>
			<path class="st18" d="M1026.77,124.17l14.87-48.21l-0.54,1.59l-3.56-1.21l-5.59-1.91l0.54-1.59l-0.01,0.01l-13.36,35.77
				l-11.18,29.94c-1.07,3.06,0.55,6.4,3.62,7.45l1.99,0.68c3.07,1.04,6.4-0.61,7.41-3.69L1026.77,124.17z"/>
		</g>
		<g>
			<path class="st10" d="M1051.94,37.08c-0.81-0.28-1.63-0.55-2.44-0.83c-1.49-0.51-2.98-1.02-4.47-1.52
				c-0.37-0.13-0.75-0.25-1.12-0.38l-13.14,38.59l-0.54,1.59l5.59,1.91l3.56,1.21l0.54-1.59l13.15-38.59
				C1052.69,37.34,1052.32,37.21,1051.94,37.08z"/>
			<path class="st10" d="M1013.93,27.08c0.26,0.1,0.54,0.14,0.81,0.13C1014.47,27.22,1014.19,27.18,1013.93,27.08L1013.93,27.08z"/>
			<path class="st10" d="M1013.35,25.97c-0.21,0.43-0.12,0.84,0.58,1.11c0,0,0,0,0,0C1013.23,26.81,1013.14,26.4,1013.35,25.97z"/>
			<path class="st10" d="M1083.42,26.48c-0.29-0.1-0.58-0.2-0.87-0.3l-0.03,0.08c-0.04,0.12-0.09,0.23-0.14,0.34
				c-0.01,0.03-0.03,0.05-0.04,0.08c-0.05,0.09-0.1,0.17-0.15,0.26c-0.01,0.02-0.02,0.04-0.04,0.05c-0.14,0.21-0.31,0.39-0.5,0.56v0
				c-0.78,0.68-1.89,0.94-2.94,0.58l-8.65-2.95c-1.57-0.53-2.41-2.24-1.87-3.81l0.38-1.11c-7.14-2.47-25.79-8.91-28.07-9.01
				c-2.84-0.12-5.58,0.78-8.18,1.99c0,0,0,0,0,0c0,0,0,0,0,0c-0.85,0.4-1.69,0.83-2.5,1.27c-3.33,1.8-6.56,3.79-9.66,5.96
				c-1.55,1.09-3.07,2.22-4.55,3.4c-0.16,0.12-0.47,0.34-0.81,0.6c-0.43,0.33-0.92,0.73-1.23,1.13c-0.09,0.12-0.17,0.24-0.23,0.36
				c-0.21,0.43-0.12,0.84,0.58,1.11c0.26,0.1,0.54,0.14,0.81,0.13c0.28-0.02,0.55-0.09,0.8-0.21c4.69-2.23,9.45-4.33,14.37-6.02
				c1.33-0.46,2.69-0.88,4.09-0.87c0.33,0,0.66,0.03,0.99,0.1c0.22,0.04,0.43,0.09,0.64,0.16c0.32,0.1,0.62,0.23,0.9,0.39
				c0.15,0.09,0.3,0.18,0.43,0.29c0.28,0.21,0.52,0.45,0.73,0.74c1.03,1.41,0.84,3.37,0.28,5.02c-0.21,0.62-0.47,1.22-0.73,1.83
				c-0.21,0.5-0.42,1.01-0.6,1.52c-0.18,0.51-0.33,1.03-0.42,1.57c2.56,0.87,5.12,1.75,7.68,2.62c0.37,0.13,0.75,0.25,1.12,0.38
				c1.49,0.51,2.98,1.02,4.47,1.52c0.81,0.28,1.63,0.55,2.44,0.83c0.37,0.13,0.75,0.25,1.12,0.38c2.88,0.98,5.76,1.96,8.64,2.94
				l0.35-1.03l0.04-0.11c0.36-1.05,1.24-1.77,2.25-1.97c0.24-0.05,0.49-0.07,0.74-0.05c0.02,0,0.04,0,0.07,0.01
				c0.1,0.01,0.2,0.02,0.29,0.04c0.03,0.01,0.06,0.01,0.09,0.02c0.12,0.02,0.24,0.05,0.36,0.1l8.66,2.95
				c0.1,0.03,0.19,0.07,0.29,0.11c0.37,0.17,0.69,0.41,0.95,0.69c0.13,0.14,0.25,0.3,0.35,0.46c0.15,0.25,0.27,0.51,0.34,0.79
				c0.04,0.16,0.07,0.32,0.09,0.48c0.02,0.15,0.02,0.31,0.01,0.46c-0.01,0.16-0.03,0.31-0.06,0.47c-0.02,0.11-0.05,0.23-0.09,0.34
				l-0.03,0.08l9.03,3.07l0.35-1.03l5.8-17.02C1088.86,28.33,1086.14,27.4,1083.42,26.48z"/>
			<path class="st10" d="M1025.05,124.27l14.87-48.21l-0.54,1.59l-3.56-1.21l-5.59-1.91l0.54-1.59l-0.01,0.01l-13.36,35.77
				l-11.18,29.94c-1.07,3.06,0.55,6.4,3.62,7.45l1.99,0.68c3.07,1.04,6.4-0.61,7.41-3.69L1025.05,124.27z"/>
		</g>
	</g>
	<g class="st1">
		<path class="st16" d="M314.9,61.01L311.11,52l8.62,4.62l61.14,67.2c1.21,1.33,1.12,3.4-0.22,4.61l0,0
			c-1.33,1.21-3.4,1.12-4.61-0.22L314.9,61.01z"/>
		<path class="st10" d="M315.44,60.63l-3.79-9.02l8.62,4.62l61.14,67.2c1.21,1.33,1.12,3.4-0.22,4.61l0,0
			c-1.33,1.21-3.4,1.12-4.61-0.22L315.44,60.63z"/>
	</g>
	<g class="st1">
		<path class="st9" d="M956.94,106.22l0.1-9.78l6.08,7.67l29.45,85.95c0.58,1.7-0.32,3.56-2.03,4.14l0,0
			c-1.7,0.58-3.56-0.32-4.14-2.03L956.94,106.22z"/>
		<path class="st10" d="M957.59,106.08l0.1-9.78l6.08,7.67l29.45,85.95c0.58,1.7-0.32,3.56-2.03,4.14l0,0
			c-1.7,0.58-3.56-0.32-4.14-2.03L957.59,106.08z"/>
	</g>
	<g class="st1">
		<g>
			<path class="st14" d="M1206.09,81.5c0.39-0.57,0.87-1.09,1.45-1.53c2.86-2.18,6.96-1.63,9.14,1.23c2.18,2.86,1.63,6.96-1.23,9.14
				c-0.58,0.44-1.2,0.77-1.85,0.99l33.89,43.56l13.08-9.97l-73.98-96.91l-13.08,9.97L1206.09,81.5z M1235.55,105.69
				c2.86-2.18,6.96-1.63,9.14,1.23c2.18,2.86,1.63,6.96-1.23,9.14c-2.86,2.18-6.96,1.63-9.14-1.23
				C1232.13,111.96,1232.68,107.87,1235.55,105.69z M1190.61,46.87c2.86-2.18,6.96-1.63,9.14,1.23c2.18,2.86,1.63,6.96-1.23,9.14
				c-2.86,2.18-6.96,1.63-9.14-1.23S1187.74,49.05,1190.61,46.87z"/>
			<path class="st19" d="M1247.91,134.57l4.04,5.3c1.15,1.51,2.88,2.12,3.87,1.36l8.64-6.59c0.99-0.75,0.86-2.59-0.29-4.09
				l-4.04-5.3L1247.91,134.57z"/>
			<path class="st19" d="M1169.89,32.37l4.04,5.3l12.22-9.32l-4.04-5.3c-1.15-1.51-2.88-2.12-3.87-1.36l-8.64,6.59
				C1168.61,29.03,1168.74,30.86,1169.89,32.37z"/>
			<polygon class="st19" points="1212.65,90.1 1213.59,91.34 1213.59,91.34 1212.65,90.1 			"/>
			<polygon class="st19" points="1207.04,82.75 1206.09,81.5 1206.09,81.5 1210.46,87.23 1207.04,82.75 			"/>
			<path class="st19" d="M1215.45,90.35c2.86-2.18,3.42-6.28,1.23-9.14c-2.18-2.86-6.28-3.42-9.14-1.23
				c-0.58,0.44-1.06,0.96-1.45,1.53l0.95,1.24l0,0c0.06-0.12,0.13-0.24,0.21-0.35c0.15-0.24,0.33-0.46,0.52-0.67
				c0.2-0.21,0.41-0.41,0.65-0.59c0.47-0.36,0.99-0.63,1.53-0.8c0.13-0.04,0.26-0.08,0.39-0.11c1.88-0.44,3.93,0.22,5.18,1.86
				s1.35,3.79,0.42,5.49c-0.06,0.11-0.13,0.22-0.2,0.33c-0.15,0.24-0.33,0.47-0.53,0.68s-0.42,0.41-0.66,0.6
				c-0.48,0.37-1,0.63-1.54,0.8c-0.12,0.04-0.25,0.07-0.37,0.1v0l0,0l0.95,1.24C1214.24,91.12,1214.87,90.79,1215.45,90.35z"/>
			<polygon class="st20" points="1212.65,90.1 1212.65,90.1 1210.46,87.23 			"/>
			<polygon class="st20" points="1207.04,82.75 1207.04,82.75 1210.46,87.23 1212.65,90.1 1212.65,90.1 			"/>
			<polygon class="st20" points="1212.65,90.1 1211.29,88.31 1211.15,88.13 1211.15,88.13 1208.54,84.71 1208.54,84.71 
				1208.35,84.47 1208.35,84.47 1207.04,82.75 1207.04,82.75 1207.04,82.75 1212.65,90.1 			"/>
			<path class="st20" d="M1209.95,80.34c0.13-0.04,0.26-0.08,0.39-0.11l1.31,1.72v0l0.19,0.24v0l2.61,3.42l0,0l0.18,0.24l1.32,1.73
				c-0.06,0.11-0.13,0.22-0.2,0.33c-0.15,0.24-0.33,0.47-0.53,0.68c0.2-0.21,0.37-0.44,0.53-0.68c0.07-0.11,0.14-0.22,0.2-0.33
				c0.92-1.7,0.82-3.85-0.42-5.49s-3.3-2.3-5.18-1.86C1210.21,80.26,1210.08,80.3,1209.95,80.34c-0.54,0.17-1.05,0.44-1.53,0.8
				c-0.24,0.18-0.45,0.38-0.65,0.59c0.2-0.21,0.41-0.41,0.65-0.59C1208.9,80.78,1209.41,80.51,1209.95,80.34z"/>
			<path class="st21" d="M1207.25,82.4c0.15-0.24,0.33-0.46,0.52-0.67C1207.58,81.94,1207.4,82.16,1207.25,82.4
				c-0.07,0.11-0.14,0.23-0.21,0.35l0,0C1207.11,82.63,1207.18,82.51,1207.25,82.4z"/>
			<path class="st21" d="M1213.02,90c-0.12,0.04-0.25,0.07-0.37,0.1l0,0v0C1212.77,90.07,1212.9,90.04,1213.02,90
				c0.54-0.17,1.07-0.44,1.54-0.8c0.24-0.18,0.46-0.38,0.66-0.6c-0.2,0.21-0.42,0.41-0.66,0.6
				C1214.08,89.56,1213.56,89.83,1213.02,90z"/>
			<path class="st21" d="M1215.95,87.58l-1.32-1.73l0.01,0.01l-3.3,2.52l-0.05-0.06l1.36,1.78l0,0c0.12-0.03,0.25-0.06,0.37-0.1
				c0.54-0.17,1.07-0.44,1.54-0.8c0.24-0.18,0.46-0.38,0.66-0.6c0.2-0.21,0.37-0.44,0.53-0.68
				C1215.82,87.81,1215.88,87.7,1215.95,87.58z"/>
			<path class="st21" d="M1208.35,84.47l3.3-2.52l-1.31-1.72c-0.13,0.03-0.26,0.07-0.39,0.11c-0.54,0.17-1.05,0.44-1.53,0.8
				c-0.24,0.18-0.45,0.38-0.65,0.59c-0.2,0.21-0.37,0.44-0.52,0.67c-0.07,0.11-0.14,0.23-0.21,0.35l0,0c0,0,0,0,0,0L1208.35,84.47z"
				/>
			
				<rect x="1209.42" y="83.01" transform="matrix(0.7953 -0.6063 0.6063 0.7953 196.4029 751.9184)" class="st21" width="4.15" height="4.3"/>
			<polygon class="st19" points="1208.35,84.47 1208.54,84.71 1208.54,84.71 1208.35,84.47 			"/>
			<polygon class="st19" points="1211.84,82.2 1211.65,81.95 1211.65,81.95 1211.84,82.2 			"/>
			
				<rect x="1208.02" y="83.18" transform="matrix(0.7953 -0.6063 0.6063 0.7953 197.2265 750.6935)" class="st19" width="4.15" height="0.31"/>
			<polygon class="st19" points="1214.45,85.62 1214.45,85.62 1214.63,85.85 			"/>
			<polygon class="st19" points="1211.15,88.13 1211.29,88.31 1211.15,88.13 			"/>
			<polygon class="st19" points="1214.63,85.86 1214.63,85.85 1214.45,85.62 1211.15,88.13 1211.29,88.31 1211.33,88.38 			"/>
			<path class="st19" d="M1234.32,114.83c2.18,2.86,6.28,3.42,9.14,1.23c2.86-2.18,3.42-6.28,1.23-9.14
				c-2.18-2.86-6.28-3.42-9.14-1.23C1232.68,107.87,1232.13,111.96,1234.32,114.83z M1236.43,106.84c1.64-1.25,3.79-1.35,5.49-0.42
				c0.11,0.06,0.22,0.13,0.33,0.2c0.48,0.31,0.91,0.71,1.28,1.18c0.37,0.48,0.63,1,0.8,1.54c0.04,0.12,0.07,0.25,0.1,0.37
				c0.44,1.88-0.22,3.93-1.86,5.18c-1.64,1.25-3.79,1.34-5.49,0.42c-0.12-0.06-0.24-0.13-0.35-0.21c-0.47-0.31-0.9-0.7-1.26-1.17
				c-0.36-0.47-0.63-0.99-0.8-1.53c-0.04-0.13-0.08-0.26-0.11-0.39C1234.13,110.14,1234.79,108.09,1236.43,106.84z"/>
			<path class="st20" d="M1242.71,111.03l-0.09,0.07l-3.57,2.72l0,0l-0.24,0.19l0,0l-1.72,1.31c1.7,0.92,3.85,0.83,5.49-0.42
				c1.64-1.25,2.3-3.3,1.86-5.18L1242.71,111.03L1242.71,111.03z"/>
			<path class="st20" d="M1239.95,107.92L1239.95,107.92l0.21-0.16l1.75-1.33c-1.7-0.92-3.85-0.82-5.49,0.42
				c-1.64,1.25-2.3,3.3-1.86,5.18L1239.95,107.92z"/>
			<path class="st21" d="M1240.2,107.73l2.52,3.3l1.72-1.31c-0.03-0.12-0.06-0.25-0.1-0.37c-0.17-0.54-0.44-1.07-0.8-1.54
				c-0.37-0.48-0.8-0.88-1.28-1.18c-0.11-0.07-0.22-0.14-0.33-0.2l-1.75,1.33L1240.2,107.73z"/>
			<path class="st21" d="M1236.29,110.71l0.24-0.19l2.52,3.3l3.57-2.72l-0.15,0.11l-2.52-3.3l-5.39,4.11
				c0.03,0.13,0.07,0.26,0.11,0.39c0.17,0.54,0.44,1.05,0.8,1.53c0.36,0.47,0.79,0.87,1.26,1.17c0.11,0.07,0.23,0.14,0.35,0.21
				l1.72-1.31L1236.29,110.71z"/>
			<polygon class="st19" points="1238.8,114.01 1239.05,113.83 1239.05,113.83 1238.8,114.01 			"/>
			
				<rect x="1237.51" y="110.19" transform="matrix(0.7953 -0.6063 0.6063 0.7953 185.3273 773.3326)" class="st19" width="0.31" height="4.15"/>
			<polygon class="st19" points="1239.95,107.92 1239.95,107.92 1240.17,107.75 			"/>
			<polygon class="st19" points="1242.71,111.03 1242.71,111.03 1242.62,111.1 			"/>
			<polygon class="st19" points="1242.62,111.1 1242.71,111.03 1240.2,107.73 1240.17,107.75 1239.95,107.92 1242.47,111.22 			"/>
			<path class="st19" d="M1189.37,56.01c2.18,2.86,6.28,3.42,9.14,1.23c2.86-2.18,3.42-6.28,1.23-9.14
				c-2.18-2.86-6.28-3.42-9.14-1.23C1187.74,49.05,1187.19,53.14,1189.37,56.01z M1191.49,48.03c1.64-1.25,3.79-1.35,5.49-0.42
				c0.11,0.06,0.22,0.13,0.33,0.2c0.48,0.31,0.91,0.71,1.28,1.18c0.37,0.48,0.63,1,0.8,1.54c0.04,0.12,0.07,0.25,0.1,0.37
				c0.44,1.88-0.22,3.93-1.86,5.18c-1.64,1.25-3.79,1.34-5.49,0.42c-0.12-0.06-0.24-0.13-0.35-0.21c-0.47-0.31-0.9-0.7-1.26-1.17
				c-0.36-0.47-0.63-0.99-0.8-1.53c-0.04-0.13-0.08-0.26-0.11-0.39C1189.19,51.32,1189.85,49.28,1191.49,48.03z"/>
			<path class="st20" d="M1195.01,49.1L1195.01,49.1l0.24-0.19l0,0l1.72-1.31c-1.7-0.92-3.85-0.82-5.49,0.42s-2.3,3.3-1.86,5.18
				L1195.01,49.1z"/>
			<path class="st20" d="M1197.77,52.21l-0.22,0.16l-3.54,2.7l-0.16,0.12l0,0l-1.72,1.31c1.7,0.92,3.85,0.83,5.49-0.42
				c1.64-1.25,2.3-3.3,1.86-5.18L1197.77,52.21L1197.77,52.21z"/>
			<path class="st21" d="M1197.77,52.21l1.72-1.31c-0.03-0.12-0.06-0.25-0.1-0.37c-0.17-0.54-0.44-1.07-0.8-1.54
				c-0.37-0.48-0.8-0.88-1.28-1.18c-0.11-0.07-0.22-0.14-0.33-0.2l-1.72,1.31L1197.77,52.21z"/>
			<path class="st21" d="M1191.35,51.9l0.24-0.19l2.52,3.3l-0.09,0.07l3.54-2.7l-0.03,0.02l-2.52-3.3l-5.39,4.11
				c0.03,0.13,0.07,0.26,0.11,0.39c0.17,0.54,0.44,1.05,0.8,1.53c0.36,0.47,0.79,0.87,1.26,1.17c0.11,0.07,0.23,0.14,0.35,0.21
				l1.72-1.31L1191.35,51.9z"/>
			<polygon class="st19" points="1193.86,55.19 1194.02,55.07 1193.86,55.19 			"/>
			<polygon class="st19" points="1191.59,51.71 1191.35,51.9 1193.86,55.19 1194.02,55.07 1194.11,55.01 			"/>
			<polygon class="st19" points="1195.26,48.91 1195.01,49.1 1195.01,49.1 1195.26,48.91 			"/>
			<polygon class="st19" points="1197.77,52.21 1197.77,52.21 1197.56,52.38 			"/>
			<polygon class="st19" points="1197.56,52.38 1197.77,52.21 1195.26,48.91 1195.01,49.1 1197.53,52.4 			"/>
		</g>
		<g>
			<path class="st22" d="M1206.07,80.27c0.39-0.57,0.87-1.09,1.45-1.53c2.86-2.18,6.96-1.63,9.14,1.23
				c2.18,2.86,1.63,6.96-1.23,9.14c-0.58,0.44-1.2,0.77-1.85,0.99l33.89,43.56l13.08-9.97l-73.98-96.91l-13.08,9.97L1206.07,80.27z
				 M1235.52,104.46c2.86-2.18,6.96-1.63,9.14,1.23c2.18,2.86,1.63,6.96-1.23,9.14c-2.86,2.18-6.96,1.63-9.14-1.23
				C1232.11,110.73,1232.66,106.64,1235.52,104.46z M1190.58,45.64c2.86-2.18,6.96-1.63,9.14,1.23c2.18,2.86,1.63,6.96-1.23,9.14
				c-2.86,2.18-6.96,1.63-9.14-1.23S1187.72,47.82,1190.58,45.64z"/>
			<path class="st22" d="M1247.88,133.35l4.04,5.3c1.15,1.51,2.88,2.12,3.87,1.36l8.64-6.59c0.99-0.75,0.86-2.59-0.29-4.09
				l-4.04-5.3L1247.88,133.35z"/>
			<path class="st22" d="M1169.87,31.14l4.04,5.3l12.22-9.32l-4.04-5.3c-1.15-1.51-2.88-2.12-3.87-1.36l-8.64,6.59
				C1168.59,27.8,1168.72,29.63,1169.87,31.14z"/>
			<polygon class="st22" points="1212.62,88.87 1213.57,90.11 1213.57,90.11 1212.62,88.87 			"/>
			<polygon class="st22" points="1207.02,81.52 1206.07,80.27 1206.07,80.27 1210.43,86 1207.02,81.52 			"/>
			<path class="st22" d="M1215.42,89.12c2.86-2.18,3.42-6.28,1.23-9.14c-2.18-2.86-6.28-3.42-9.14-1.23
				c-0.58,0.44-1.06,0.96-1.45,1.53l0.95,1.24l0,0c0.06-0.12,0.13-0.24,0.21-0.35c0.15-0.24,0.33-0.46,0.52-0.67
				c0.2-0.21,0.41-0.41,0.65-0.59c0.47-0.36,0.99-0.63,1.53-0.8c0.13-0.04,0.26-0.08,0.39-0.11c1.88-0.44,3.93,0.22,5.18,1.86
				s1.35,3.79,0.42,5.49c-0.06,0.11-0.13,0.22-0.2,0.33c-0.15,0.24-0.33,0.47-0.53,0.68s-0.42,0.41-0.66,0.6
				c-0.48,0.37-1,0.63-1.54,0.8c-0.12,0.04-0.25,0.07-0.37,0.1l0,0l0,0l0.95,1.24C1214.22,89.89,1214.84,89.56,1215.42,89.12z"/>
			<polygon class="st22" points="1212.62,88.87 1212.62,88.87 1210.43,86 			"/>
			<polygon class="st22" points="1207.02,81.52 1207.02,81.52 1210.43,86 1212.62,88.87 1212.62,88.87 			"/>
			<polygon class="st22" points="1212.62,88.87 1211.26,87.08 1211.12,86.9 1211.12,86.9 1208.51,83.48 1208.51,83.48 
				1208.33,83.24 1208.33,83.24 1207.02,81.52 1207.02,81.52 1207.02,81.52 1212.62,88.87 			"/>
			<path class="st22" d="M1209.92,79.11c0.13-0.04,0.26-0.08,0.39-0.11l1.31,1.72v0l0.19,0.24v0l2.61,3.42l0,0l0.18,0.24l1.32,1.73
				c-0.06,0.11-0.13,0.22-0.2,0.33c-0.15,0.24-0.33,0.47-0.53,0.68c0.2-0.21,0.37-0.44,0.53-0.68c0.07-0.11,0.14-0.22,0.2-0.33
				c0.92-1.7,0.82-3.85-0.42-5.49s-3.3-2.3-5.18-1.86C1210.19,79.03,1210.05,79.07,1209.92,79.11c-0.54,0.17-1.05,0.44-1.53,0.8
				c-0.24,0.18-0.45,0.38-0.65,0.59c0.2-0.21,0.41-0.41,0.65-0.59C1208.87,79.55,1209.39,79.28,1209.92,79.11z"/>
			<path class="st22" d="M1207.22,81.17c0.15-0.24,0.33-0.46,0.52-0.67C1207.55,80.71,1207.38,80.93,1207.22,81.17
				c-0.07,0.11-0.14,0.23-0.21,0.35l0,0C1207.08,81.4,1207.15,81.28,1207.22,81.17z"/>
			<path class="st22" d="M1212.99,88.77c-0.12,0.04-0.25,0.07-0.37,0.1l0,0l0,0C1212.74,88.84,1212.87,88.81,1212.99,88.77
				c0.54-0.17,1.06-0.44,1.54-0.8c0.24-0.18,0.46-0.38,0.66-0.6c-0.2,0.21-0.42,0.41-0.66,0.6
				C1214.06,88.33,1213.54,88.6,1212.99,88.77z"/>
			<path class="st22" d="M1215.92,86.35l-1.32-1.73l0.01,0.01l-3.3,2.52l-0.05-0.06l1.36,1.78l0,0c0.12-0.03,0.25-0.06,0.37-0.1
				c0.54-0.17,1.07-0.44,1.54-0.8c0.24-0.18,0.46-0.38,0.66-0.6c0.2-0.21,0.37-0.44,0.53-0.68
				C1215.79,86.58,1215.86,86.47,1215.92,86.35z"/>
			<path class="st22" d="M1208.33,83.24l3.3-2.52l-1.31-1.72c-0.13,0.03-0.26,0.07-0.39,0.11c-0.54,0.17-1.05,0.44-1.53,0.8
				c-0.24,0.18-0.45,0.38-0.65,0.59c-0.2,0.21-0.37,0.44-0.52,0.67c-0.07,0.11-0.14,0.23-0.21,0.35l0,0c0,0,0,0,0,0L1208.33,83.24z"
				/>
			
				<rect x="1209.39" y="81.78" transform="matrix(0.7953 -0.6063 0.6063 0.7953 197.1431 751.6511)" class="st22" width="4.15" height="4.3"/>
			<polygon class="st22" points="1208.33,83.24 1208.51,83.48 1208.51,83.48 1208.33,83.24 			"/>
			<polygon class="st22" points="1211.81,80.97 1211.63,80.72 1211.63,80.72 1211.81,80.97 			"/>
			
				<rect x="1208" y="81.95" transform="matrix(0.7953 -0.6063 0.6063 0.7953 197.9667 750.4263)" class="st22" width="4.15" height="0.31"/>
			<polygon class="st22" points="1214.42,84.39 1214.42,84.39 1214.6,84.62 			"/>
			<polygon class="st22" points="1211.12,86.9 1211.26,87.08 1211.12,86.9 			"/>
			<polygon class="st22" points="1214.61,84.63 1214.6,84.62 1214.42,84.39 1211.12,86.9 1211.26,87.08 1211.31,87.15 			"/>
			<path class="st22" d="M1234.29,113.6c2.18,2.86,6.28,3.42,9.14,1.23c2.86-2.18,3.42-6.28,1.23-9.14
				c-2.18-2.86-6.28-3.42-9.14-1.23C1232.66,106.64,1232.11,110.73,1234.29,113.6z M1236.4,105.61c1.64-1.25,3.79-1.35,5.49-0.42
				c0.11,0.06,0.22,0.13,0.33,0.2c0.48,0.31,0.91,0.71,1.28,1.18c0.37,0.48,0.63,1,0.8,1.54c0.04,0.12,0.07,0.25,0.1,0.37
				c0.44,1.88-0.22,3.93-1.86,5.18c-1.64,1.25-3.79,1.34-5.49,0.42c-0.12-0.06-0.24-0.13-0.35-0.21c-0.47-0.31-0.9-0.7-1.26-1.17
				c-0.36-0.47-0.63-0.99-0.8-1.53c-0.04-0.13-0.08-0.26-0.11-0.39C1234.1,108.91,1234.77,106.86,1236.4,105.61z"/>
			<path class="st22" d="M1242.69,109.8l-0.09,0.07l-3.57,2.72l0,0l-0.24,0.19l0,0l-1.72,1.31c1.7,0.92,3.85,0.83,5.49-0.42
				c1.64-1.25,2.3-3.3,1.86-5.18L1242.69,109.8L1242.69,109.8z"/>
			<path class="st22" d="M1239.93,106.69L1239.93,106.69l0.21-0.16l1.75-1.33c-1.7-0.92-3.85-0.82-5.49,0.42
				c-1.64,1.25-2.3,3.3-1.86,5.18L1239.93,106.69z"/>
			<path class="st22" d="M1240.17,106.5l2.52,3.3l1.72-1.31c-0.03-0.12-0.06-0.25-0.1-0.37c-0.17-0.54-0.44-1.07-0.8-1.54
				c-0.37-0.48-0.8-0.88-1.28-1.18c-0.11-0.07-0.22-0.14-0.33-0.2l-1.75,1.33L1240.17,106.5z"/>
			<path class="st22" d="M1236.26,109.48l0.24-0.19l2.52,3.3l3.57-2.72l-0.15,0.11l-2.52-3.3l-5.39,4.11
				c0.03,0.13,0.07,0.26,0.11,0.39c0.17,0.54,0.44,1.05,0.8,1.53c0.36,0.47,0.79,0.87,1.26,1.17c0.11,0.07,0.23,0.14,0.35,0.21
				l1.72-1.31L1236.26,109.48z"/>
			<polygon class="st22" points="1238.78,112.78 1239.02,112.6 1239.02,112.6 1238.78,112.78 			"/>
			
				<rect x="1237.49" y="108.97" transform="matrix(0.7953 -0.6063 0.6063 0.7953 186.0675 773.0653)" class="st22" width="0.31" height="4.15"/>
			<polygon class="st22" points="1239.93,106.69 1239.93,106.69 1240.14,106.52 			"/>
			<polygon class="st22" points="1242.69,109.8 1242.69,109.8 1242.59,109.87 			"/>
			<polygon class="st22" points="1242.59,109.87 1242.69,109.8 1240.17,106.5 1240.14,106.52 1239.93,106.69 1242.44,109.99 			"/>
			<path class="st22" d="M1189.35,54.78c2.18,2.86,6.28,3.42,9.14,1.23c2.86-2.18,3.42-6.28,1.23-9.14
				c-2.18-2.86-6.28-3.42-9.14-1.23C1187.72,47.82,1187.16,51.91,1189.35,54.78z M1191.46,46.8c1.64-1.25,3.79-1.35,5.49-0.42
				c0.11,0.06,0.22,0.13,0.33,0.2c0.48,0.31,0.91,0.71,1.28,1.18c0.37,0.48,0.63,1,0.8,1.54c0.04,0.12,0.07,0.25,0.1,0.37
				c0.44,1.88-0.22,3.93-1.86,5.18c-1.64,1.25-3.79,1.34-5.49,0.42c-0.12-0.06-0.24-0.13-0.35-0.21c-0.47-0.31-0.9-0.7-1.26-1.17
				c-0.36-0.47-0.63-0.99-0.8-1.53c-0.04-0.13-0.08-0.26-0.11-0.39C1189.16,50.1,1189.83,48.05,1191.46,46.8z"/>
			<path class="st22" d="M1194.99,47.87L1194.99,47.87l0.24-0.19l0,0l1.72-1.31c-1.7-0.92-3.85-0.82-5.49,0.42s-2.3,3.3-1.86,5.18
				L1194.99,47.87z"/>
			<path class="st22" d="M1197.75,50.98l-0.22,0.16l-3.54,2.7l-0.16,0.12l0,0l-1.72,1.31c1.7,0.92,3.85,0.83,5.49-0.42
				c1.64-1.25,2.3-3.3,1.86-5.18L1197.75,50.98L1197.75,50.98z"/>
			<path class="st22" d="M1197.75,50.98l1.72-1.31c-0.03-0.12-0.06-0.25-0.1-0.37c-0.17-0.54-0.44-1.07-0.8-1.54
				c-0.37-0.48-0.8-0.88-1.28-1.18c-0.11-0.07-0.22-0.14-0.33-0.2l-1.72,1.31L1197.75,50.98z"/>
			<path class="st22" d="M1191.32,50.67l0.24-0.19l2.52,3.3l-0.09,0.07l3.54-2.7l-0.03,0.02l-2.52-3.3l-5.39,4.11
				c0.03,0.13,0.07,0.26,0.11,0.39c0.17,0.54,0.44,1.05,0.8,1.53c0.36,0.47,0.79,0.87,1.26,1.17c0.11,0.07,0.23,0.14,0.35,0.21
				l1.72-1.31L1191.32,50.67z"/>
			<polygon class="st22" points="1193.84,53.97 1193.99,53.84 1193.84,53.97 			"/>
			<polygon class="st22" points="1191.56,50.48 1191.32,50.67 1193.84,53.97 1193.99,53.84 1194.08,53.78 			"/>
			<polygon class="st22" points="1195.23,47.68 1194.99,47.87 1194.99,47.87 1195.23,47.68 			"/>
			<polygon class="st22" points="1197.75,50.98 1197.75,50.98 1197.53,51.15 			"/>
			<polygon class="st22" points="1197.53,51.15 1197.75,50.98 1195.23,47.68 1194.99,47.87 1197.5,51.17 			"/>
		</g>
	</g>
</g>
</svg>
