<svg id="Layer_1" data-name="Layer 1" xmlns="http://www.w3.org/2000/svg" viewBox="0 0 841.88976 467.71654"><defs><style>.cls-1{fill:#ddeffa;}.cls-15,.cls-2,.cls-6,.cls-7,.cls-8{fill:none;}.cls-11,.cls-15,.cls-2,.cls-6{stroke:#55585c;}.cls-11,.cls-15,.cls-2,.cls-6,.cls-7{stroke-miterlimit:10;}.cls-3{fill:#f4f4f4;}.cls-4{fill:#fff;}.cls-5{fill:#55585c;}.cls-6{stroke-width:1.08429px;}.cls-7{stroke:#f4f4f4;}.cls-9{fill:#488fba;}.cls-10{fill:#eab28b;}.cls-11{fill:#245486;}.cls-12{fill:#f6c65d;}.cls-13{fill:#60a675;}.cls-14{fill:#e1635d;}.cls-15{stroke-width:0.77222px;}</style></defs><polygon class="cls-1" points="842.091 70.919 382.759 56.69 0.163 115.298 0.163 397.199 489.37 308.595 842.091 321.99 842.091 70.919"/><path class="cls-1" d="M842.09113,60.02812,448.697,40.79453S110.39606,87.6729.16309,107.89812v87.6856L494.95477,90.15593S768.252,93.11619,842.09113,99.89586Z"/><path class="cls-2" d="M842.09113,57.855,449.75744,38.6735S109.68005,85.876.16309,105.97172v87.71692L496.01532,88.03489s270.70374,2.93177,346.07581,9.64277Z"/><polygon class="cls-3" points="842.091 87.789 483.364 76.657 -1.028 191.381 0.163 210.358 494.955 93.338 842.091 108.109 842.091 87.789"/><polygon class="cls-2" points="842.091 85.427 482.962 76.637 0.163 187.758 0.163 204.36 493.362 90.937 842.091 105.776 842.091 85.427"/><line class="cls-2" x1="493.64425" y1="305.02476" x2="486.7866" y2="93.80739"/><path class="cls-2" d="M.16309,397.19945C78.03429,383.03967,158,367.10966,239,353.10966c8-1,15-5,23-6,13-2,25-3,38-5,67-13,129-25,194-37,114,5,233.369,9,347.36471,14.44255"/><path class="cls-4" d="M480.21913,297.431l-210.793,3.79031a7.74243,7.74243,0,0,1-7.88163-7.74118V110.38239a7.74243,7.74243,0,0,1,7.93087-7.74014l204.94341,4.9893a7.74243,7.74243,0,0,1,7.54965,7.48048l5.8496,174.31811A7.74243,7.74243,0,0,1,480.21913,297.431Z"/><polygon class="cls-4" points="476.637 284.573 270.625 284.573 270.625 112.896 471.55 115.439 476.637 284.573"/><path class="cls-3" d="M478.34768,298.99053l-210.793,3.79032a7.74244,7.74244,0,0,1-7.88163-7.74119V111.94193a7.74244,7.74244,0,0,1,7.93087-7.74014l204.94341,4.9893a7.74244,7.74244,0,0,1,7.54965,7.48048l5.8496,174.31811A7.74243,7.74243,0,0,1,478.34768,298.99053Z"/><polygon class="cls-5" points="474.765 286.132 268.753 286.132 268.753 114.456 469.678 116.999 474.765 286.132"/><path class="cls-6" d="M480.31859,297.34014l-210.793,3.79032a7.74243,7.74243,0,0,1-7.88163-7.74118V110.29154a7.74243,7.74243,0,0,1,7.93087-7.74014l204.94341,4.98931a7.74244,7.74244,0,0,1,7.54965,7.48047l5.8496,174.31811A7.74243,7.74243,0,0,1,480.31859,297.34014Z"/><polygon class="cls-6" points="476.736 284.482 270.724 284.482 270.724 112.805 471.649 115.349 476.736 284.482"/><line class="cls-7" x1="276.36002" y1="144.38982" x2="470.84701" y2="145.04028"/><line class="cls-7" x1="280.26276" y1="152.84578" x2="309.53338" y2="152.84578"/><line class="cls-7" x1="280.11266" y1="162.15233" x2="309.38328" y2="162.15233"/><line class="cls-7" x1="279.96255" y1="171.45889" x2="309.23317" y2="171.45889"/><line class="cls-7" x1="279.81245" y1="180.76544" x2="309.08306" y2="180.76544"/><line class="cls-7" x1="279.66234" y1="190.072" x2="308.93296" y2="190.072"/><line class="cls-7" x1="279.51224" y1="199.37855" x2="308.78285" y2="199.37855"/><line class="cls-7" x1="279.36213" y1="208.68511" x2="308.63275" y2="208.68511"/><line class="cls-7" x1="279.06192" y1="227.29822" x2="308.33254" y2="227.29822"/><line class="cls-7" x1="278.91181" y1="236.60477" x2="308.18243" y2="236.60477"/><line class="cls-7" x1="278.76171" y1="245.91133" x2="308.03232" y2="245.91133"/><line class="cls-7" x1="278.6116" y1="255.21788" x2="307.88222" y2="255.21788"/><line class="cls-7" x1="278.4615" y1="264.52444" x2="307.73211" y2="264.52444"/><line class="cls-7" x1="324.49392" y1="152.84578" x2="338.15354" y2="152.84578"/><line class="cls-7" x1="324.34381" y1="162.15233" x2="337.9534" y2="162.15233"/><line class="cls-7" x1="324.19371" y1="171.45889" x2="337.75326" y2="171.45889"/><line class="cls-7" x1="324.0436" y1="180.76544" x2="337.55312" y2="180.76544"/><line class="cls-7" x1="323.8935" y1="190.072" x2="337.35298" y2="190.072"/><line class="cls-7" x1="323.59329" y1="208.68511" x2="336.9527" y2="208.68511"/><line class="cls-7" x1="323.44318" y1="217.99166" x2="336.75255" y2="217.99166"/><line class="cls-7" x1="323.29307" y1="227.29822" x2="336.55241" y2="227.29822"/><line class="cls-7" x1="323.14297" y1="236.60477" x2="336.35227" y2="236.60477"/><line class="cls-7" x1="322.84276" y1="255.21788" x2="335.95199" y2="255.21788"/><line class="cls-7" x1="322.69265" y1="264.52444" x2="335.75185" y2="264.52444"/><line class="cls-7" x1="357.01683" y1="152.84578" x2="370.67645" y2="152.84578"/><line class="cls-7" x1="356.86672" y1="162.15233" x2="370.47631" y2="162.15233"/><line class="cls-7" x1="356.56651" y1="180.76544" x2="370.07603" y2="180.76544"/><line class="cls-7" x1="356.4164" y1="190.072" x2="369.87589" y2="190.072"/><line class="cls-7" x1="356.2663" y1="199.37855" x2="369.67574" y2="199.37855"/><line class="cls-7" x1="356.11619" y1="208.68511" x2="369.4756" y2="208.68511"/><line class="cls-7" x1="355.96609" y1="217.99166" x2="369.27546" y2="217.99166"/><line class="cls-7" x1="355.81598" y1="227.29822" x2="369.07532" y2="227.29822"/><line class="cls-7" x1="355.66588" y1="236.60477" x2="368.87518" y2="236.60477"/><line class="cls-7" x1="355.51577" y1="245.91133" x2="368.67504" y2="245.91133"/><line class="cls-7" x1="355.36566" y1="255.21788" x2="368.4749" y2="255.21788"/><line class="cls-7" x1="355.21556" y1="264.52444" x2="368.27476" y2="264.52444"/><line class="cls-7" x1="387.58836" y1="152.84578" x2="414.9076" y2="152.84578"/><line class="cls-7" x1="387.43826" y1="162.15233" x2="414.9076" y2="162.15233"/><line class="cls-7" x1="387.28815" y1="171.45889" x2="414.9076" y2="171.45889"/><line class="cls-7" x1="386.98794" y1="190.072" x2="414.9076" y2="190.072"/><line class="cls-7" x1="386.83783" y1="199.37855" x2="414.9076" y2="199.37855"/><line class="cls-7" x1="386.68773" y1="208.68511" x2="414.9076" y2="208.68511"/><line class="cls-7" x1="386.53762" y1="217.99166" x2="414.9076" y2="217.99166"/><line class="cls-7" x1="386.38752" y1="227.29822" x2="414.9076" y2="227.29822"/><line class="cls-7" x1="386.23741" y1="236.60477" x2="414.9076" y2="236.60477"/><line class="cls-7" x1="385.9372" y1="255.21788" x2="414.9076" y2="255.21788"/><line class="cls-7" x1="385.78709" y1="264.52444" x2="414.9076" y2="264.52444"/><line class="cls-7" x1="426.61585" y1="160.00081" x2="453.93509" y2="160.00081"/><line class="cls-7" x1="426.46575" y1="169.30737" x2="453.93509" y2="169.30737"/><line class="cls-7" x1="426.31564" y1="178.61393" x2="453.93509" y2="178.61393"/><line class="cls-7" x1="426.16553" y1="187.92048" x2="453.93509" y2="187.92048"/><line class="cls-7" x1="425.86532" y1="206.53359" x2="453.93509" y2="206.53359"/><line class="cls-7" x1="425.71522" y1="215.84015" x2="453.93509" y2="215.84015"/><line class="cls-7" x1="425.41501" y1="234.45326" x2="453.93509" y2="234.45326"/><line class="cls-7" x1="425.2649" y1="243.75981" x2="453.93509" y2="243.75981"/><line class="cls-7" x1="425.11479" y1="253.06637" x2="453.93509" y2="253.06637"/><line class="cls-7" x1="424.96469" y1="262.37292" x2="453.93509" y2="262.37292"/><line class="cls-7" x1="424.66448" y1="280.98603" x2="453.93509" y2="280.98603"/><line class="cls-7" x1="286.11689" y1="133.98249" x2="398.64615" y2="135.93386"/><line class="cls-7" x1="288.06826" y1="126.17699" x2="333.60033" y2="126.82745"/><path class="cls-3" d="M842.09113,352.59544l-176.45466-1.50952v19.50641c1.65394,0,131.32892,1.08588,176.45466,1.46423Z"/><path class="cls-4" d="M413.2466,436.75122c51.28674-2.438,81.236,1.16388,97.1507,4.51184a94.887,94.887,0,0,1,1.18463-15.30518c-6.635-5.00531-15.68512-12.50195-25.54114-20.9862Z"/><path class="cls-4" d="M566.49343,227.11536c-7.87464,3.74975-10.12451,5.62469-14.62427,14.9992-2.56738,5.34876-13.67761,15.59314-23.51453,33.18042l51.26306-56.05426A76.72233,76.72233,0,0,1,566.49343,227.11536Z"/><path class="cls-4" d="M594.67354,164.741a47.16,47.16,0,0,0-32.51861-24.11371c-11.20826-2.21247-23.83222-2.00879-30.90967-3.8822-25.49872-6.7497-35.62317-21.37391-35.62317-21.37391l-5.24976,2.99982c-4.12475,20.249,17.62409,34.49823,19.874,39.74793,2.24987,5.24975-.24689,23.40667,3.12793,26.40649,3.37481,2.99988,10.37133-2.03272,10.37133-2.03272s15.754,17.01441,25.87366,26.6236c12.99347,12.338,25.987-9.54578,25.987-9.54578l1.32031,6.47431,2.6911,13.19592L528.35463,275.295q-.36108.64554-.7193,1.30548c10.43232-8.71588,59.78772-51.02514,74.85621-83.60833C604.28414,185.64245,599.821,174.43658,594.67354,164.741Z"/><path class="cls-4" d="M617.14791,187.34582l-14.65637,5.64631A115.88688,115.88688,0,0,0,617.14791,187.34582Z"/><path class="cls-4" d="M752.752,466.16559c7.25891-43.63489,26.48511-160.31446,28.69849-185.21485,2.73547-30.774-12.30963-25.3031-12.30963-25.3031C713.06374,258.38312,695.967,450.55005,695.967,450.55005l-27.2182-4.3302c.56988,8.76507,1.06122,15.8742,1.34753,19.94574Z"/><path class="cls-4" d="M513.96346,466.16559a88.08242,88.08242,0,0,1-3.56616-24.90253c-15.91474-3.348-45.864-6.94989-97.1507-4.51184l-67.37652,29.41437Z"/><path class="cls-4" d="M670.09633,466.16559c-.28631-4.07154-.77765-11.18067-1.34753-19.94574-1.89234-29.10578-4.64978-76.46387-3.63556-91.42365,1.49994-22.12384,8.62457-79.87085,7.12463-112.1192-1.49987-32.24829-44.99762-57.747-46.87256-58.49695l-8.2174,3.16577a115.88688,115.88688,0,0,1-14.65637,5.64631c-15.06849,32.58319-64.42389,74.89245-74.85621,83.60833a127.82087,127.82087,0,0,0-15.1391,51.94709c-1.72491,22.03173-.03979,35.01184,1.81928,44.96411,18.91,12.40008,35.05078,22.96838,35.67877,23.28235l.37494-16.12415c.20874-.1745.4212-.33685.63233-.5036,15.23876,1.77869,41.91656,4.72162,59.62927,9.85315-2.23139,14.17456-36.7768,54.19269-44.88739,64.1466-8.24958,10.12446-29.99842-14.24926-45.74762-22.49884a70.992,70.992,0,0,1-8.41388-5.70929,94.887,94.887,0,0,0-1.18463,15.30518,88.08242,88.08242,0,0,0,3.56616,24.90253Z"/><path class="cls-4" d="M345.87008,466.16559l67.37652-29.41437,72.79419-31.77954c-7.02331-6.04584-14.451-12.58893-21.70258-19.08594L255.95229,466.16559Z"/><path class="cls-4" d="M386.12777,267.80072c.75-2.24988,6.74969-.75,8.62457,3.74982,1.87488,4.49975,23.62378,22.12384,27.74853,23.99871.76026.34559,2.13514,1.76667,3.89753,3.86487l32.95031,22.56873s4.10321-11.62573,16.41284-4.10321c6.08393,3.718,5.817,12.78015,3.99372,20.99707,2.61127-6.77356,7.28064-23.42127-6.72919-29.88733C455.2455,300.783,335.56862,225.55749,304.79457,229.6607l43.96528,30.39209c14.39648,5.59864,27.90014,10.90375,36.56781,14.31879A13.70837,13.70837,0,0,1,386.12777,267.80072Z"/><path class="cls-4" d="M475.76155,317.87964c-12.30963-7.52252-16.41284,4.10321-16.41284,4.10321L426.3984,299.41412c4.53741,5.40192,11.6604,15.32074,17.61163,23.16126,4.27893,5.63733,7.95111,10.19842,9.61426,11.22192,1.48132.91156,10.82885,7.02112,23.15893,15.10089a81.52312,81.52312,0,0,0,2.97205-10.02148C481.57851,330.65979,481.84548,321.59759,475.76155,317.87964Z"/><path class="cls-4" d="M551.00155,380.16626c-.21113.16675-.42359.3291-.63233.5036l-.37494,16.12415c-.628-.314-16.7688-10.88227-35.67877-23.28235-12.53235-8.218-26.27417-17.23609-37.53229-24.61347-12.33008-8.07977-21.67761-14.18933-23.15893-15.10089-1.66315-1.0235-5.33533-5.58459-9.61426-11.22192-5.95123-7.84052-13.07422-17.75934-17.61163-23.16126-1.76239-2.0982-3.13727-3.51928-3.89753-3.86487-4.12475-1.87487-25.87365-19.499-27.74853-23.99871-1.87488-4.49982-7.87457-5.9997-8.62457-3.74982a13.70837,13.70837,0,0,0-.80011,6.57086,9.044,9.044,0,0,0,2.3,4.67853c3.74982,4.12482,10.49946,11.62439,10.49946,11.62439l-10.2345-3.57019L382.003,285.0498s-4.87476-7.87457-10.87445-4.87475c-5.9997,2.99988-6.74963,12.37439-3.74982,22.49884,1.49994,5.06222,11.24631,19.27988,23.50642,27.43572s27.034,10.24984,28.6159,13.0622c1.11865,1.98865,10.81018,11.47821,23.83709,23.57428,6.40143,5.944,13.60663,12.51563,21.00006,19.13965,7.25159,6.497,14.67927,13.0401,21.70258,19.08594,9.856,8.48425,18.90613,15.98089,25.54114,20.9862a70.992,70.992,0,0,0,8.41388,5.70929c15.7492,8.24958,37.498,32.6233,45.74762,22.49884,8.11059-9.95391,42.656-49.972,44.88739-64.1466C592.91811,384.88788,566.24031,381.945,551.00155,380.16626Z"/><path class="cls-4" d="M287.69783,438.24042c3.48743-.69751,6.2613-6.90723,8.1446-12.82672-29.3418.32543-80.89734-.86353-123.31818-2.06891l2.33539,6.00531S280.85915,439.60815,287.69783,438.24042Z"/><path class="cls-4" d="M317.66286,420.44055l25.42828,1.387,8.89032-29.40631-46.51593,1.604a34.04966,34.04966,0,0,0,3.43226,14.80884C311.29769,413.42059,315.3608,417.60748,317.66286,420.44055Z"/><path class="cls-4" d="M215.89174,347.286c4.72016-.85822,70.55921,7.70727,118.95917,14.20825-39.74158-10.80334-76.55939-21.04694-76.55939-21.04694s-.09607-1.12567-.14264-2.88537l-8.74762-1.90167s1.49176-3.39392,3.79517-8.99494c-24.66974,3.24268-70.49951,9.78766-71.49811,13.782-.82129,3.28528,17.09711,13.72059,31.54663,21.53522C212.29586,354.863,212.331,347.93335,215.89174,347.286Z"/><path class="cls-4" d="M419.50106,343.17181c-1.61994-2.87988-16.8841-5.32336-28.61591-13.06219-12.70911-8.38361-21.94647-22.17108-23.50641-27.43573-2.99981-10.12445-2.24988-19.499,3.74982-22.49884,5.99969-2.99982,10.87445,4.87475,10.87445,4.87475l5.88965,2.05451,10.2345,3.57019s-6.74964-7.49957-10.49946-11.62439a9.044,9.044,0,0,1-2.3-4.67853c-8.66767-3.415-22.17133-8.72015-36.56781-14.31879-28.29895-11.00524-60.06642-22.9658-65.16523-24.2373-5.063-1.26257-5.47094,6.15478-5.47094,6.15478-1.0484,24.11329-17.365,66.30646-24.92725,84.695-2.30341,5.601-3.79517,8.99494-3.79517,8.99494l8.74762,1.90167,90.0268,19.571,87.17242,18.9505,2.80072.60889,5.18933-9.94617C430.31124,354.65,420.61971,345.16046,419.50106,343.17181Z"/><path class="cls-4" d="M431.776,386.29242c-3.81079.11938-45.03546-10.74506-86.34351-21.92749q-5.3019-1.43528-10.58154-2.87073c-48.4-6.501-114.239-15.06647-118.95917-14.20825-3.56079.6474-3.59588,7.57709-2.64679,14.69653A136.21137,136.21137,0,0,0,216.57558,378.06l218.83777,17.78058Z"/><path class="cls-4" d="M348.17568,357.13287l-90.0268-19.571c.04657,1.7597.14264,2.88537.14264,2.88537s36.81781,10.2436,76.55939,21.04694q5.2685,1.43215,10.58154,2.87073c41.308,11.18243,82.53272,22.04687,86.34351,21.92749a.866.866,0,0,0,.218-.026c2.30877-.76959,3.10193-5.86957,3.35412-10.183Z"/><path class="cls-4" d="M166.24782,339.485c-51.22107-18.41284-65.98321-19.795-85.08368-3.82013a14.30041,14.30041,0,0,0-3.05291,4.62354,3.51708,3.51708,0,0,0-.07258,2.32208c1.04181,2.77826,5.55646,5.55652,5.55646,5.55652l20.14227,4.16736s4.86194-11.80756,9.72382-11.80756c4.86194,0,53.82843,11.80756,53.4812,14.23853-.34729,2.43091-4.16736,10.41839-4.16736,10.41839s30.36451,7.88978,40.90174,9.18744c2.1618.26624,3.491.25568,3.55011-.15814C207.57418,371.782,219.38167,358.58539,166.24782,339.485Z"/><path class="cls-4" d="M116.047,386.26642c2.56237-.64063,44.27923.81909,87.91125,2.55212l-.58093-4.50244c-7.96088-.22345-135.75708-34.41272-135.75708-34.41272s-.34729,32.64435,2.7782,34.03345c1.17865.5238,20.53259,1.8872,44.18359,3.38244A3.17968,3.17968,0,0,1,116.047,386.26642Z"/><path class="cls-4" d="M317.66286,420.44055c-2.30206-2.83307-6.36517-7.02-8.76507-11.60644a34.04966,34.04966,0,0,1-3.43226-14.80884c-.00293-.58234.01288-.92017.01288-.92017s-51.99389-2.3194-101.52014-4.28656c-43.632-1.733-85.34888-3.19275-87.91125-2.55212a3.17968,3.17968,0,0,0-1.465,1.05285c-5.25555,5.89179-11.52856,33.82441-11.52856,33.82441s30.97161,1.10717,69.47076,2.20111c42.42084,1.20538,93.97638,2.39434,123.31818,2.06891,13.39245-.14856,22.16064-.61237,23.31335-1.53455C319.79885,423.36468,319.05074,422.14856,317.66286,420.44055Z"/><path class="cls-4" d="M203.67678,374.37115c-10.53723-1.29766-40.90174-9.18744-40.90174-9.18744s3.82007-7.98748,4.16736-10.41839c.34723-2.431-48.61926-14.23853-53.4812-14.23853-4.86188,0-9.72382,11.80756-9.72382,11.80756L83.59511,348.167s-4.51465-2.77826-5.55646-5.55652a3.51708,3.51708,0,0,1,.07258-2.32208c-5.0254,4.15039-10.491,9.615-10.491,9.615s127.7962,34.18927,135.75708,34.41272a.97179.97179,0,0,0,.37677-.032C205.14327,383.49029,204.49086,378.50214,203.67678,374.37115Z"/><polygon class="cls-4" points="105.986 409.357 96.23 411.974 95.754 421.492 103.053 421.144 105.986 409.357"/><polygon class="cls-4" points="107.176 404.36 97.419 405.549 101.227 395.079 111.459 393.176 107.176 404.36"/><path class="cls-4" d="M259.22919,310.84294l-4.99707-4.04524L249.473,320.59912l5.473,2.85547s-4.52116-3.56933-5.473-2.85547-5.71093,10.2321-5.71093,10.2321l6.18684,3.09342"/><path class="cls-8" d="M412.91005,440.09726c51.28675-2.43805,81.236,1.16387,97.1507,4.51184a94.8881,94.8881,0,0,1,1.18463-15.30518c-6.635-5.00531-15.68512-12.502-25.54114-20.98621Z"/><path class="cls-9" d="M566.15688,230.46139c-7.87463,3.74976-10.12451,5.6247-14.62427,14.99921-2.56738,5.34875-13.67761,15.59314-23.51452,33.18042l51.26306-56.05426A76.72308,76.72308,0,0,1,566.15688,230.46139Z"/><path class="cls-10" d="M594.337,168.087a47.16,47.16,0,0,0-32.51862-24.11371c-11.20825-2.21246-23.83221-2.00879-30.90967-3.8822-25.49872-6.74969-35.62317-21.3739-35.62317-21.3739l-5.24975,2.99982c-4.12476,20.249,17.62408,34.49823,19.874,39.74792,2.24988,5.24976-.24689,23.40668,3.12793,26.4065s10.37134-2.03272,10.37134-2.03272,15.754,17.0144,25.87366,26.6236c12.99346,12.338,25.987-9.54578,25.987-9.54578l1.32032,6.4743,2.6911,13.19593L528.01809,278.641q-.36109.64554-.7193,1.30548c10.43231-8.71588,59.78772-51.02515,74.8562-83.60834C603.94759,188.98849,599.48446,177.78262,594.337,168.087Z"/><path class="cls-2" d="M616.81136,190.69186l-14.65637,5.6463A115.88759,115.88759,0,0,0,616.81136,190.69186Z"/><path class="cls-5" d="M752.714,467.71654c7.47241-44.94928,26.21619-158.85224,28.4-183.4198,2.73548-30.774-12.30963-25.3031-12.30963-25.3031-56.07715,2.73547-73.17389,194.9024-73.17389,194.9024l-27.2182-4.3302c.49378,7.59412.92829,13.94128,1.2218,18.1507Z"/><path class="cls-11" d="M513.10822,467.71654a89.5291,89.5291,0,0,1-3.04749-23.10749c-15.91473-3.348-45.86395-6.94989-97.1507-4.51184l-63.26477,27.61933Z"/><path class="cls-9" d="M669.634,467.71654c-.29351-4.20942-.728-10.55658-1.2218-18.1507-1.89233-29.10577-4.64978-76.46387-3.63556-91.42365,1.49994-22.12384,8.62458-79.87084,7.12464-112.1192-1.49988-32.24829-44.99762-57.747-46.87256-58.49695l-8.21741,3.16578a115.88759,115.88759,0,0,1-14.65637,5.6463c-15.06848,32.58319-64.42389,74.89245-74.8562,83.60833a127.82072,127.82072,0,0,0-15.1391,51.94709c-1.72492,22.03174-.0398,35.01184,1.81927,44.96411,18.91,12.40008,35.05078,22.96838,35.67877,23.28235l.37494-16.12415c.20874-.1745.42121-.33685.63233-.5036,15.23877,1.77869,41.91656,4.72162,59.62927,9.85315-2.23138,14.17456-36.77679,54.19269-44.88739,64.14661-8.24957,10.12445-29.99841-14.24927-45.74762-22.49884a70.99322,70.99322,0,0,1-8.41388-5.70929,94.88693,94.88693,0,0,0-1.18463,15.30517,89.5291,89.5291,0,0,0,3.04749,23.10749Z"/><path class="cls-3" d="M349.64526,467.71654,412.91,440.09721l72.79419-31.77954c-7.02331-6.04584-14.451-12.58893-21.70257-19.08594L260.27521,467.71654Z"/><path class="cls-4" d="M385.79122,271.14675c.75-2.24987,6.74969-.75,8.62457,3.74982,1.87488,4.49976,23.62378,22.12384,27.74854,23.99872.76025.34558,2.13513,1.76666,3.89752,3.86487l32.95032,22.56872s4.10321-11.62573,16.41284-4.10321c6.08392,3.718,5.817,12.78015,3.99371,20.99707,2.61127-6.77356,7.28064-23.42126-6.72919-29.88733C454.909,304.129,335.23208,228.90353,304.458,233.00674l43.96527,30.39209c14.39648,5.59863,27.90015,10.90375,36.56781,14.31879A13.7084,13.7084,0,0,1,385.79122,271.14675Z"/><path class="cls-12" d="M475.425,321.22567c-12.30963-7.52252-16.41284,4.10321-16.41284,4.10321l-32.95032-22.56872c4.53741,5.40191,11.6604,15.32074,17.61163,23.16125,4.27893,5.63733,7.95111,10.19843,9.61426,11.22193,1.48132.91156,10.82886,7.02112,23.15894,15.10089a81.52462,81.52462,0,0,0,2.972-10.02149C481.242,334.00582,481.50893,324.94363,475.425,321.22567Z"/><path class="cls-10" d="M550.665,383.51229c-.21112.16675-.42359.32911-.63233.50361L549.65774,400.14c-.628-.314-16.7688-10.88226-35.67878-23.28235-12.53235-8.218-26.27417-17.23608-37.53228-24.61346-12.33008-8.07977-21.67762-14.18933-23.15894-15.10089-1.66315-1.0235-5.33533-5.5846-9.61426-11.22193-5.95123-7.84051-13.07422-17.75934-17.61163-23.16125-1.76239-2.09821-3.13727-3.51929-3.89752-3.86487-4.12476-1.87488-25.87366-19.499-27.74854-23.99872-1.87488-4.49982-7.87457-5.99969-8.62457-3.74982a13.7084,13.7084,0,0,0-.80011,6.57087,9.04391,9.04391,0,0,0,2.3,4.67852c3.74981,4.12482,10.49945,11.62439,10.49945,11.62439l-10.2345-3.57019-5.88965-2.0545s-4.87475-7.87457-10.87445-4.87476c-5.99969,2.99988-6.74963,12.37439-3.74981,22.49884,1.49993,5.06223,11.2463,19.27989,23.50641,27.43572s27.034,10.24985,28.6159,13.06221c1.11865,1.98865,10.81018,11.47821,23.8371,23.57428,6.40143,5.944,13.60663,12.51562,21.00006,19.13965,7.25159,6.497,14.67926,13.0401,21.70257,19.08593,9.856,8.48426,18.90613,15.9809,25.54114,20.98621a70.992,70.992,0,0,0,8.41388,5.70929c15.74921,8.24957,37.49805,32.62329,45.74762,22.49884,8.1106-9.95392,42.656-49.972,44.88739-64.14661C592.58156,388.23391,565.90377,385.291,550.665,383.51229Z"/><path class="cls-12" d="M287.36129,441.58645c3.48742-.69751,6.26129-6.90722,8.14459-12.82672-29.3418.32544-80.89734-.86352-123.31818-2.06891l2.33539,6.00531S280.5226,442.95419,287.36129,441.58645Z"/><path class="cls-3" d="M317.32631,423.78659l25.42829,1.387,8.89032-29.40631-46.51593,1.604a34.04958,34.04958,0,0,0,3.43225,14.80884C310.96114,416.76663,315.02425,420.95352,317.32631,423.78659Z"/><path class="cls-3" d="M215.5552,350.632c4.72015-.85821,70.5592,7.70728,118.95916,14.20826C294.77279,354.03689,257.955,343.7933,257.955,343.7933s-.09607-1.12567-.14264-2.88538l-8.74762-1.90167s1.49176-3.39392,3.79516-8.99493c-24.66974,3.24267-70.49951,9.78766-71.4981,13.782-.82129,3.28528,17.0971,13.72058,31.54663,21.53522C211.95931,358.20907,211.99441,351.27938,215.5552,350.632Z"/><path class="cls-12" d="M419.16451,346.51785c-1.61993-2.87988-16.88409-5.32337-28.61591-13.0622-12.7091-8.3836-21.94647-22.17108-23.5064-27.43573-2.99982-10.12445-2.24988-19.499,3.74981-22.49884,5.9997-2.99981,10.87445,4.87476,10.87445,4.87476l5.88965,2.0545,10.2345,3.57019s-6.74964-7.49957-10.49945-11.62439a9.04391,9.04391,0,0,1-2.3-4.67852c-8.66766-3.415-22.17133-8.72016-36.56781-14.31879-28.29895-11.00525-60.06642-22.96581-65.16522-24.2373-5.063-1.26257-5.471,6.15478-5.471,6.15478-1.0484,24.11328-17.365,66.30646-24.92725,84.695-2.3034,5.601-3.79516,8.99493-3.79516,8.99493l8.74762,1.90167,90.02679,19.571,87.17243,18.9505,2.80072.60889,5.18933-9.94617C429.97469,357.99606,420.28316,348.5065,419.16451,346.51785Z"/><path class="cls-12" d="M431.43941,389.63845c-3.81079.11939-45.03546-10.745-86.3435-21.92749q-5.30192-1.43526-10.58155-2.87072c-48.4-6.501-114.239-15.06647-118.95916-14.20826-3.56079.6474-3.59589,7.57709-2.64679,14.69654A136.21257,136.21257,0,0,0,216.239,381.406L435.0768,399.18661Z"/><path class="cls-3" d="M347.83913,360.47891l-90.02679-19.571c.04657,1.75971.14264,2.88538.14264,2.88538s36.81781,10.24359,76.55938,21.04694q5.26849,1.43215,10.58155,2.87072c41.308,11.18244,82.53271,22.04688,86.3435,21.92749a.86553.86553,0,0,0,.218-.026c2.30878-.76959,3.10193-5.86956,3.35413-10.183Z"/><path class="cls-4" d="M165.91128,342.831c-51.22107-18.41284-65.98322-19.795-85.08368-3.82013a14.30037,14.30037,0,0,0-3.05292,4.62354,3.51708,3.51708,0,0,0-.07257,2.32208c1.04181,2.77826,5.55646,5.55652,5.55646,5.55652l20.14227,4.16736s4.86194-11.80756,9.72381-11.80756c4.86194,0,53.82843,11.80756,53.48121,14.23852-.34729,2.43091-4.16736,10.4184-4.16736,10.4184s30.3645,7.88977,40.90173,9.18744c2.1618.26623,3.491.25568,3.55011-.15814C207.23763,375.12808,219.04513,361.93142,165.91128,342.831Z"/><path class="cls-4" d="M115.71047,389.61245c2.56238-.64062,44.27924.8191,87.91125,2.55213l-.58093-4.50244c-7.96087-.22345-135.75708-34.41272-135.75708-34.41272s-.34729,32.64434,2.7782,34.03344c1.17865.52381,20.53259,1.88721,44.18359,3.38245A3.17984,3.17984,0,0,1,115.71047,389.61245Z"/><path class="cls-12" d="M317.32631,423.78659c-2.30206-2.83307-6.36517-7.02-8.76507-11.60645A34.04958,34.04958,0,0,1,305.129,397.3713c-.00293-.58233.01288-.92016.01288-.92016s-51.9939-2.3194-101.52015-4.28656c-43.632-1.733-85.34887-3.19275-87.91125-2.55213a3.17984,3.17984,0,0,0-1.465,1.05286c-5.25555,5.89178-11.52856,33.8244-11.52856,33.8244s30.97162,1.10718,69.47076,2.20111c42.42084,1.20539,93.97638,2.39435,123.31818,2.06891,13.39246-.14856,22.16064-.61236,23.31335-1.53454C319.4623,426.71072,318.71419,425.49459,317.32631,423.78659Z"/><path class="cls-3" d="M203.34023,377.71719c-10.53723-1.29767-40.90173-9.18744-40.90173-9.18744s3.82007-7.98749,4.16736-10.4184c.34722-2.431-48.61927-14.23852-53.48121-14.23852-4.86187,0-9.72381,11.80756-9.72381,11.80756L83.25857,351.513s-4.51465-2.77826-5.55646-5.55652a3.51708,3.51708,0,0,1,.07257-2.32208c-5.02539,4.15039-10.491,9.615-10.491,9.615s127.79621,34.18927,135.75708,34.41272a.97173.97173,0,0,0,.37677-.032C204.80672,386.83633,204.15432,381.84817,203.34023,377.71719Z"/><polygon class="cls-13" points="105.649 412.703 95.893 415.32 95.417 424.838 102.717 424.49 105.649 412.703"/><polygon class="cls-14" points="106.839 407.706 97.083 408.895 100.89 398.425 111.122 396.522 106.839 407.706"/><path class="cls-14" d="M258.89265,314.189l-4.99707-4.04525-4.75912,13.80143,5.473,2.85547s-4.52115-3.56934-5.473-2.85547-5.71093,10.23209-5.71093,10.23209l6.18685,3.09343"/><path class="cls-8" d="M414.51912,437.924c51.28674-2.438,81.236,1.16388,97.15069,4.51185a94.8881,94.8881,0,0,1,1.18463-15.30518c-6.635-5.00531-15.68512-12.502-25.54113-20.98621Z"/><path class="cls-2" d="M567.76594,228.28811c-7.87463,3.74976-10.12451,5.62469-14.62427,14.99921-2.56738,5.34875-13.67761,15.59314-23.51452,33.18042l51.26306-56.05426A76.72308,76.72308,0,0,1,567.76594,228.28811Z"/><path class="cls-5" d="M550.8918,210.289c-10.11969-9.6092-25.87366-26.6236-25.87366-26.6236s-6.99652,5.03259-10.37134,2.03271c-3.37482-2.99981-.87805-21.15673-3.12793-26.40649-2.24994-5.24969-23.99878-19.499-19.874-39.74792l5.24975-2.99982s10.12445,14.6242,35.62317,21.3739c7.07746,1.87341,19.70142,1.66974,30.90967,3.8822a47.16,47.16,0,0,1,32.51862,24.11371c5.14746,9.69562,9.61059,20.90149,7.818,28.25116l14.65637-5.6463c10.737-4.88391,28.05047-11.16954,38.47089-26.072,13.26292-18.96754,15.0451-23.93537,15.0451-23.93537s1.29611-25.47964-34.49543-41.39409C611.5951,85.625,601.16488,79.56421,582.34974,57.81484c-16.45144-19.017-77.2771-4.787-86.85125,28.03858-9.57416,32.82568-19.14832,30.09021-16.41285,46.50305,2.73548,16.41278,28.72248,38.98047,28.03858,51.2901-.68384,12.30957,12.99353,62.23193,26.6709,67.019,2.1311.74591,32.41882-30.83386,44.404-43.44806l-1.32031-6.4743S563.88527,222.627,550.8918,210.289Z"/><path class="cls-2" d="M595.94606,165.91372A47.16,47.16,0,0,0,563.42744,141.8c-11.20825-2.21246-23.83221-2.00879-30.90967-3.8822-25.49872-6.7497-35.62317-21.3739-35.62317-21.3739l-5.24975,2.99982c-4.12476,20.249,17.62408,34.49823,19.874,39.74792,2.24988,5.24976-.24689,23.40668,3.12793,26.40649,3.37482,2.99988,10.37134-2.03271,10.37134-2.03271s15.754,17.0144,25.87366,26.6236c12.99347,12.338,25.987-9.54578,25.987-9.54578l1.32031,6.4743,2.6911,13.19593-51.26306,56.05426q-.36108.64554-.7193,1.30548c10.43231-8.71588,59.78772-51.02515,74.8562-83.60834C605.55665,186.81521,601.09352,175.60934,595.94606,165.91372Z"/><path class="cls-2" d="M618.42042,188.51858l-14.65637,5.6463A115.88759,115.88759,0,0,0,618.42042,188.51858Z"/><path class="cls-2" d="M754.02455,467.33834c7.25891-43.63489,26.48511-160.31445,28.69848-185.21484,2.73548-30.774-12.30963-25.3031-12.30963-25.3031-56.07715,2.73547-73.17389,194.9024-73.17389,194.9024l-27.2182-4.3302c.56989,8.76508,1.06122,15.87421,1.34754,19.94574Z"/><path class="cls-2" d="M515.236,467.33834a88.08265,88.08265,0,0,1-3.56616-24.90252c-15.91473-3.348-45.86395-6.9499-97.15069-4.51185l-67.37653,29.41437"/><path class="cls-2" d="M671.36885,467.33834c-.28632-4.07153-.77765-11.18066-1.34754-19.94574-1.89233-29.10577-4.64978-76.46386-3.63556-91.42364,1.49994-22.12384,8.62458-79.87085,7.12464-112.1192-1.49988-32.2483-44.99762-57.747-46.87256-58.49695l-8.21741,3.16577a115.88759,115.88759,0,0,1-14.65637,5.6463c-15.06848,32.58319-64.42389,74.89246-74.8562,83.60834a127.82062,127.82062,0,0,0-15.1391,51.94708c-1.72492,22.03174-.0398,35.01184,1.81927,44.96411,18.91,12.40009,35.05079,22.96839,35.67878,23.28235l.37494-16.12415c.20874-.1745.4212-.33685.63232-.5036,15.23877,1.77869,41.91656,4.72162,59.62927,9.85315-2.23138,14.17456-36.77679,54.19269-44.88739,64.14661-8.24957,10.12445-29.99841-14.24927-45.74762-22.49884a70.9928,70.9928,0,0,1-8.41388-5.70929,94.8881,94.8881,0,0,0-1.18463,15.30518,88.08265,88.08265,0,0,0,3.56616,24.90252"/><path class="cls-2" d="M347.14259,467.33834,414.51912,437.924l72.79419-31.77954c-7.02332-6.04583-14.451-12.58892-21.70258-19.08593L257.2248,467.33834"/><path class="cls-2" d="M387.40028,268.97347c.75-2.24987,6.7497-.75,8.62457,3.74982,1.87488,4.49976,23.62378,22.12384,27.74854,23.99872.76025.34558,2.13513,1.76666,3.89752,3.86487l32.95032,22.56872s4.10321-11.62573,16.41284-4.10321c6.08392,3.718,5.817,12.78015,3.99371,20.99707,2.61127-6.77356,7.28064-23.42126-6.72918-29.88733-17.78058-8.20642-137.45746-83.43188-168.23151-79.32867l43.96527,30.39209c14.39648,5.59863,27.90015,10.90375,36.56781,14.31879A13.70852,13.70852,0,0,1,387.40028,268.97347Z"/><path class="cls-2" d="M477.03407,319.05239c-12.30963-7.52252-16.41284,4.10321-16.41284,4.10321l-32.95032-22.56872c4.53741,5.40191,11.6604,15.32074,17.61163,23.16125,4.27893,5.63733,7.95111,10.19843,9.61426,11.22193,1.48132.91156,10.82886,7.02111,23.15894,15.10089a81.52287,81.52287,0,0,0,2.972-10.02149C482.851,331.83254,483.118,322.77035,477.03407,319.05239Z"/><path class="cls-2" d="M552.27406,381.339c-.21112.16675-.42358.3291-.63232.5036l-.37494,16.12415c-.628-.314-16.7688-10.88226-35.67878-23.28235-12.53234-8.218-26.27417-17.23608-37.53228-24.61346-12.33008-8.07978-21.67762-14.18933-23.15894-15.10089-1.66315-1.0235-5.33533-5.5846-9.61426-11.22193-5.95123-7.84051-13.07422-17.75934-17.61163-23.16125-1.76239-2.09821-3.13727-3.51929-3.89752-3.86487-4.12476-1.87488-25.87366-19.499-27.74854-23.99872-1.87487-4.49982-7.87457-5.99969-8.62457-3.74982a13.70852,13.70852,0,0,0-.80011,6.57087,9.04394,9.04394,0,0,0,2.3,4.67852c3.74982,4.12482,10.49945,11.62439,10.49945,11.62439l-10.2345-3.57019-5.88965-2.0545s-4.87475-7.87457-10.87445-4.87476c-5.99969,2.99988-6.74963,12.37439-3.74981,22.49884,1.49994,5.06223,11.24631,19.27989,23.50641,27.43572s27.034,10.24985,28.6159,13.06221c1.11865,1.98865,10.81018,11.47821,23.8371,23.57428,6.40143,5.944,13.60663,12.51562,21.00006,19.13965,7.25159,6.497,14.67926,13.0401,21.70258,19.08593,9.856,8.48426,18.90612,15.9809,25.54113,20.98621a70.9928,70.9928,0,0,0,8.41388,5.70929c15.74921,8.24957,37.49805,32.62329,45.74762,22.49884,8.1106-9.95392,42.656-49.97205,44.88739-64.14661C594.19062,386.06063,567.51283,383.1177,552.27406,381.339Z"/><path class="cls-2" d="M288.97035,439.41317c3.48743-.69751,6.26129-6.90723,8.14459-12.82672-29.3418.32544-80.89734-.86353-123.31818-2.06891l2.33539,6.00531S282.13166,440.78091,288.97035,439.41317Z"/><path class="cls-2" d="M318.93538,421.61331l25.42828,1.387L353.254,393.594l-46.51593,1.604a34.04958,34.04958,0,0,0,3.43225,14.80884C312.5702,414.59335,316.63331,418.78024,318.93538,421.61331Z"/><path class="cls-2" d="M217.16426,348.4587c4.72015-.85821,70.5592,7.70728,118.95916,14.20826C296.38185,351.86361,259.564,341.62,259.564,341.62s-.09607-1.12567-.14264-2.88538l-8.74762-1.90167s1.49176-3.39392,3.79516-8.99493c-24.66973,3.24267-70.49951,9.78766-71.4981,13.782-.82129,3.28528,17.0971,13.72058,31.54663,21.53522C213.56837,356.03579,213.60347,349.1061,217.16426,348.4587Z"/><path class="cls-2" d="M420.77357,344.34457c-1.61993-2.87989-16.88409-5.32337-28.6159-13.0622-12.70911-8.3836-21.94648-22.17108-23.50641-27.43573-2.99982-10.12445-2.24988-19.499,3.74981-22.49884,5.9997-2.99981,10.87445,4.87476,10.87445,4.87476l5.88965,2.0545,10.2345,3.57019s-6.74963-7.49957-10.49945-11.62439a9.04394,9.04394,0,0,1-2.3-4.67852c-8.66766-3.415-22.17133-8.72016-36.56781-14.31879-28.29895-11.00525-60.02692-23.13623-65.16522-24.23731-9.5741-2.05157-5.471,6.15479-5.471,6.15479-1.0484,24.11328-17.365,66.30646-24.92725,84.695-2.3034,5.601-3.79516,8.99493-3.79516,8.99493l8.74762,1.90167,90.02679,19.571,87.17243,18.9505,2.80072.60888,5.18933-9.94616C431.58375,355.82278,421.89222,346.33322,420.77357,344.34457Z"/><path class="cls-2" d="M433.04847,387.46517c-3.81079.11939-45.03546-10.745-86.3435-21.92749q-5.30192-1.43528-10.58155-2.87072c-48.4-6.501-114.239-15.06647-118.95916-14.20826-3.56079.6474-3.59589,7.57709-2.64679,14.69654a136.21148,136.21148,0,0,0,3.33063,16.07751l218.83776,17.78058Z"/><path class="cls-2" d="M349.44819,358.30563l-90.02679-19.571c.04657,1.75971.14264,2.88538.14264,2.88538s36.81781,10.24359,76.55938,21.04694q5.26849,1.43215,10.58155,2.87072c41.308,11.18244,82.53271,22.04688,86.3435,21.92749a.866.866,0,0,0,.218-.026c2.30878-.76959,3.10193-5.86957,3.35413-10.183Z"/><path class="cls-2" d="M167.52034,340.65774c-51.22107-18.41284-65.98322-19.795-85.08368-3.82013a14.3004,14.3004,0,0,0-3.05292,4.62353,3.51711,3.51711,0,0,0-.07257,2.32209c1.04181,2.77826,5.55646,5.55652,5.55646,5.55652l20.14227,4.16735s4.86194-11.80755,9.72382-11.80755c4.86193,0,53.82843,11.80755,53.4812,14.23852-.34729,2.43091-4.16736,10.4184-4.16736,10.4184s30.3645,7.88977,40.90173,9.18744c2.16181.26623,3.491.25567,3.55011-.15814C208.84669,372.9548,220.65419,359.75814,167.52034,340.65774Z"/><path class="cls-2" d="M117.31953,387.43917c2.56238-.64062,44.27924.81909,87.91126,2.55213l-.58094-4.50245c-7.96087-.22345-135.75708-34.41272-135.75708-34.41272s-.34729,32.64435,2.7782,34.03345c1.17865.52381,20.53259,1.88721,44.18359,3.38245A3.17976,3.17976,0,0,1,117.31953,387.43917Z"/><path class="cls-2" d="M318.93538,421.61331c-2.30207-2.83307-6.36518-7.02-8.76508-11.60645a34.04958,34.04958,0,0,1-3.43225-14.80884c-.00293-.58233.01288-.92016.01288-.92016s-51.9939-2.3194-101.52014-4.28656c-43.632-1.733-85.34888-3.19275-87.91126-2.55213a3.17976,3.17976,0,0,0-1.465,1.05286c-5.25555,5.89178-11.52856,33.8244-11.52856,33.8244s30.97162,1.10718,69.47076,2.20111c42.42084,1.20538,93.97638,2.39435,123.31818,2.06891,13.39246-.14856,22.16065-.61237,23.31336-1.53455C321.07136,424.53744,320.32325,423.32131,318.93538,421.61331Z"/><path class="cls-2" d="M204.94929,375.54391c-10.53723-1.29767-40.90173-9.18744-40.90173-9.18744s3.82007-7.98749,4.16736-10.4184c.34723-2.431-48.61927-14.23852-53.4812-14.23852-4.86188,0-9.72382,11.80755-9.72382,11.80755l-20.14227-4.16735s-4.51465-2.77826-5.55646-5.55652a3.51711,3.51711,0,0,1,.07257-2.32209c-5.02539,4.1504-10.491,9.615-10.491,9.615S196.689,385.2654,204.64985,385.48885a.97153.97153,0,0,0,.37677-.032C206.41578,384.66305,205.76338,379.67489,204.94929,375.54391Z"/><polygon class="cls-2" points="107.258 410.529 97.502 413.147 97.026 422.665 104.326 422.316 107.258 410.529"/><polygon class="cls-2" points="108.448 405.532 98.692 406.722 102.499 396.252 112.731 394.348 108.448 405.532"/><path class="cls-2" d="M260.50171,312.0157l-4.99707-4.04525-4.75911,13.80143,5.473,2.85547s-4.52115-3.56934-5.473-2.85547-5.71094,10.23209-5.71094,10.23209l6.18685,3.09343"/><path class="cls-2" d="M551.25263,382.78627s4.64623-94.3033,24.42416-116.45457"/><path class="cls-2" d="M611.51423,392.13582l21.91409,11.05911s27.6891-84.64952,29.27133-123.41425"/><path class="cls-2" d="M522.672,292.43855s65.72225-48.52037,95.35937-102.97632"/><path class="cls-15" d="M842.09113,353.42113,666.304,352.2802v19.5064c1.78442,0,144.6571,1.264,175.78711,1.53968Z"/><circle class="cls-5" cx="521.14911" cy="153.74995" r="2.92706"/><path class="cls-2" d="M542.93946,196.68019s7.155.65045,7.155-16.26146"/></svg>