<?xml version="1.0" encoding="utf-8"?>
<!-- Generator: Adobe Illustrator 23.0.6, SVG Export Plug-In . SVG Version: 6.00 Build 0)  -->
<svg version="1.1" xmlns="http://www.w3.org/2000/svg" xmlns:xlink="http://www.w3.org/1999/xlink" x="0px" y="0px"
	 viewBox="0 0 841.89 467.72" style="enable-background:new 0 0 841.89 467.72;" xml:space="preserve">
<style type="text/css">
	.st0{fill:#F5C65D;}
	.st1{fill:#FFFFFF;}
	.st2{fill:#4890BA;}
	.st3{fill:#DF774F;}
	.st4{fill:#ECAE83;}
	.st5{fill:#F4F4F5;}
	.st6{fill:#E0635D;}
	.st7{fill:none;stroke:#54575C;stroke-miterlimit:10;}
	.st8{fill:none;}
	.st9{fill:#DCEFFA;}
	.st10{fill:none;stroke:#54575C;stroke-width:0.7621;stroke-miterlimit:10;}
	.st11{fill:#54575C;}
	.st12{fill:none;stroke:#54575C;stroke-width:1.0251;stroke-miterlimit:10;}
</style>
<g id="Layer_1">
</g>
<g id="Layer_2">
</g>
<g id="Layer_3">
	<rect x="-4.08" y="-6.88" class="st0" width="847.57" height="476.29"/>
	<g>
		<path class="st1" d="M642.62,471.76c0.17-0.28,0.36-0.57,0.53-0.85c14.69-23.72,13.61-31.04,13.03-43.37
			c-0.69-14.43-18.55-26.11-59.09-18.55c-31.8,5.93-69.09,43.98-85.35,62.77H642.62z"/>
		<path class="st1" d="M307.29,134.46c-1.31,0.33-2.69,0.5-4.15,0.45c-15.8-0.49-12.84-11.85-12.84-11.85s-10.56-5.35-8.89-16.78
			c1.29-8.81,5.91-14.1,9.24-16.84c2.36-1.95,4.16-4.49,5.21-7.36c5.34-14.55,24.84-55.67,72.64-47.8c1.5,0.25,2.96,0.71,4.32,1.4
			c4.09,2.07,13.56,7.01,17.55,10.25c5.16,4.19,24.19,17.09,21.61,49.02c-0.74,9.1-1.47,16.28-2.15,21.9
			c6.57,2.62,15.06,6.43,21.15,10.66c0.76,0.53,1.45,1.18,2.1,1.92c2.31-8.4,2.62-17.36-2.6-24.13
			c-13.33-17.28-7.4-26.16-8.39-40.97c-0.99-14.81-18.76-26.16-35.54-30.11c-16.78-3.95-41.96-5.43-41.96-5.43
			s-30.11-13.33-45.91-9.38c-15.8,3.95-18.76,19.75-18.76,19.75c-6.42,16.29-13.33,14.32-28.14,14.32
			c-14.81,0-11.85,16.78-11.85,16.78c-36.53,7.9-11.35,45.91-3.46,57.26c7.9,11.35-1.97,10.86-1.48,28.63s14.81,7.4,28.14,24.19
			c3.86,4.86,8.26,7.7,12.43,9.32C283.34,186.85,304.51,175.51,307.29,134.46z"/>
		<path class="st1" d="M372.75,205.5c-4.8-9.97,14.81-5.92,28.14-8.39c2.02-0.37,3.89-1.62,5.61-3.47
			c-5.58-3.29-12.73-6.96-17.96-10.35c-5.2-3.38-9.02-7.17-11.63-10.29c-2.5,2.4-5.32,4.05-8.61,3.87
			c-8.89-0.49-14.32-3.95-14.32-3.95l-7.54,28.65l7.38,4.03c0,0,6.18-3.44,12.37,0c0.79,0.44,2.16,1.53,3.92,3.06
			C372.27,207.77,373.34,206.72,372.75,205.5z"/>
		<path class="st1" d="M440.88,170.45c0-1.38,1.29-30.7-7.77-41.03c-0.65-0.74-1.34-1.39-2.1-1.92
			c-6.08-4.23-14.57-8.04-21.15-10.66c-0.1,0.87-0.21,1.7-0.31,2.5c2.93,4.33,4.53,10.19,2.7,18.03
			c-1.47,6.29-4.33,10.94-7.76,14.37c-0.44,6.56-1.41,14.16-3.6,15.25c-3.95,1.97-7.9,4.94-11.35,2.96c-1.2-0.69-2.94-3.58-4.7-7.07
			c-2.34,3.19-4.89,7.2-7.92,10.11c2.61,3.12,6.42,6.91,11.63,10.29c5.22,3.39,12.37,7.06,17.96,10.35c2.09,1.23,3.96,2.41,5.42,3.5
			c10.7-3.57,26.28-6.66,29.32-7.24C441.1,182.62,440.88,171.44,440.88,170.45z"/>
		<path class="st1" d="M409.55,119.34c-0.41-0.61-0.85-1.18-1.3-1.73c-0.66-0.8-1.37-1.53-2.1-2.21c-0.41-0.15-0.81-0.3-1.19-0.44
			c-0.19,1.26-0.39,2.62-0.61,4.15c-0.7,4.93-0.85,9.18-1.18,12.98c-0.37,4.2-0.95,7.84-2.77,11.21
			c-3.46,6.42-7.9,11.35-12.84,16.29c-0.26,0.26-0.53,0.55-0.79,0.86c5.12-0.81,12.17-3.14,17.72-8.7
			c3.43-3.43,6.28-8.08,7.76-14.37C414.08,129.54,412.47,123.68,409.55,119.34z"/>
		<path class="st1" d="M356.68,211.39c-0.51-2.83-2.85-5.79-2.85-5.79l-7.38-4.03l-0.1,0.37l-0.44,1.68
			c-3.29,4.12-23.59,0.2-41.98-4.41c-16.35-4.1-31.18-8.73-31.18-8.73c-2.3,0.25-4.47,0.6-6.53,1.03c1.81,0.59,4.34,1.42,7.39,2.41
			c11.15,3.62,29.35,9.43,45.62,14.22c5.24,1.54,10.28,2.98,14.82,4.2c2.14,0.58,4.18,1.11,6.06,1.58
			c6.81,1.7,11.74,2.62,13.29,2.23C356.47,215.38,357.04,213.42,356.68,211.39z"/>
		<path class="st1" d="M444.2,368.39c-2.61,0-7.29,5.18-10.84,9.66l21.39-7.09C451.15,369.72,446.68,368.39,444.2,368.39z"/>
		<path class="st1" d="M472.25,346.83c-3.17-1.18-6.27-1.96-8.79-1.83c-9.17,0.46-29.81,12.84-38.98,17.88
			c-9.17,5.04-47.23,14.67-53.65,14.67v21.23l62.53-20.74c3.55-4.48,8.23-9.66,10.84-9.66c2.47,0,6.95,1.34,10.55,2.57l15.69-5.2
			l12.57-4.17l3.37-7.61C483.04,351.92,477.54,348.81,472.25,346.83z"/>
		<path class="st1" d="M678.51,230.93l-123.66-2.41c-7.72-0.15-14.78,4.35-17.92,11.41l-50.55,114.04l-3.37,7.61l-12.57,4.17
			l-15.69,5.2l-21.39,7.09l-62.53,20.74l-7.28,2.41c-0.51,0.17-0.95,0.41-1.34,0.68c-3.53,2.42-2.61,8.39,2.1,9.18
			c8.05,1.36,17.44,2.91,26.03,4.25c1.24-1,1.98-1.51,1.98-1.51s1.8-0.65,5.09-1.84c11.03-3.97,38.82-13.93,71.81-25.32
			c52.56-18.15,118.33-39.96,150.54-47.05c6.89-1.51,12.45-1.55,17.12-0.44c8.9-20.35,37.06-86.79,44.36-104.02
			C682.07,233.16,680.65,230.97,678.51,230.93z"/>
		<path class="st1" d="M410.18,249.57c0,0,10.91,29.48,11.84,34.74"/>
		<path class="st1" d="M404.84,98.38c-1.97-6.91-4.44-27.65-4.44-27.65c-1.12-2.52-2.56-5-4.11-7.27c-3.49,0.3-12.48,1.33-28.42,4.8
			c-21.21,4.61-23.36,28.28-37.81,28.59c-2,0.04-3.74,0.05-5.25,0.03c1.31,2.36,2.17,4.77,2.04,6.92
			c-0.45,7.17-6.6,27.37-19.55,30.65c-2.78,41.06-23.95,52.4-31.7,55.19c-1.76,0.64-2.84,0.83-2.84,0.83s14.83,4.63,31.18,8.73
			c18.39,4.61,38.69,8.53,41.98,4.41l0.44-1.68l0.1-0.37l7.54-28.65c0,0,5.43,3.46,14.32,3.95c3.3,0.18,6.12-1.47,8.61-3.87
			c3.03-2.91,5.58-6.92,7.92-10.11c0.66-0.89,1.3-1.72,1.93-2.44c0.27-0.3,0.53-0.59,0.79-0.86c4.94-4.94,9.38-9.87,12.84-16.29
			c1.81-3.37,2.4-7.01,2.77-11.21c0.33-3.8,0.48-8.05,1.18-12.98c0.22-1.53,0.42-2.89,0.61-4.15c0.03-0.18,0.05-0.36,0.08-0.53
			C406.07,107.5,406.48,104.13,404.84,98.38z"/>
		<g>
			<path class="st1" d="M396.29,63.46c-1.67-2.46-3.46-4.67-5.1-6.43C392.83,58.78,394.62,60.99,396.29,63.46z"/>
			<path class="st1" d="M322.83,93.79C322.83,93.79,322.83,93.78,322.83,93.79c-0.36-0.51-0.73-1-1.1-1.47
				c-0.01-0.01-0.02-0.02-0.03-0.03c-0.37-0.47-0.74-0.94-1.12-1.38c-0.76-0.91-1.51-1.75-2.22-2.51c-2.2-2.36-5.33-3.59-8.54-3.35
				c-0.36,2.7-0.99,9.15-0.25,17.46c0.93,10.49-3.06,17.62-8.62,20.2c-3.31,1.53-7.85,1.33-10.76,0.96
				c-0.35,2.35-0.66,10.82,12.95,11.25c1.45,0.05,2.83-0.12,4.15-0.45c12.95-3.28,19.1-23.48,19.55-30.65
				c0.13-2.15-0.72-4.56-2.04-6.92l0,0C324.22,95.83,323.55,94.79,322.83,93.79z"/>
			<polygon class="st1" points="396.29,63.46 396.29,63.46 396.29,63.46 			"/>
			<path class="st1" d="M390.39,45.91c-4-3.25-13.48-8.19-17.57-10.26c-1.25-0.63-2.57-1.1-3.95-1.33
				c-48.05-8.13-67.64,33.15-72.99,47.74c-1.06,2.88-2.85,5.41-5.21,7.36c-3.33,2.75-7.96,8.04-9.24,16.84
				c-1.67,11.44,8.89,16.78,8.89,16.78s-0.06,0.22-0.11,0.6c2.91,0.36,7.44,0.57,10.76-0.96c5.57-2.58,9.56-9.71,8.62-20.2
				c-0.74-8.31-0.11-14.76,0.25-17.46c0.03-0.19,0.05-0.35,0.07-0.5c24.46-37.11,37.38-49.93,52.11-46.03
				c34.66,9.18,38.7,20.32,46.12,36.44c4.4,9.56,2.56,27.95,0.34,41.35c-0.07,0.45-0.15,0.89-0.22,1.32
				c0.46,0.55,0.89,1.12,1.3,1.73c0.1-0.8,0.21-1.63,0.31-2.5c0.68-5.63,1.41-12.81,2.15-21.9
				C414.58,63.01,395.55,50.11,390.39,45.91z"/>
			<path class="st1" d="M408.13,74.94c-7.42-16.13-11.46-27.27-46.12-36.44c-14.72-3.9-27.65,8.92-52.11,46.03
				c-0.02,0.15-0.05,0.31-0.07,0.5c3.2-0.24,6.34,0.99,8.54,3.35c0.71,0.76,1.46,1.61,2.22,2.51c0.37,0.45,0.75,0.91,1.12,1.38
				c0.01,0.01,0.02,0.02,0.03,0.03c0.37,0.48,0.74,0.97,1.09,1.47c0,0,0,0,0,0.01c0.72,1.01,1.39,2.05,1.97,3.1
				c1.52,0.02,3.25,0.01,5.25-0.03c14.45-0.31,16.6-23.98,37.81-28.59c15.94-3.47,24.94-4.5,28.42-4.8c0,0,0-0.01,0-0.01
				c-1.67-2.46-3.46-4.67-5.1-6.43c1.64,1.76,3.43,3.97,5.1,6.43c0,0,0,0,0.01,0.01c0,0,0,0,0,0c1.54,2.27,2.98,4.74,4.11,7.27
				c0,0,2.47,20.73,4.44,27.65c1.64,5.75,1.23,9.12,0.2,16.06c-0.03,0.17-0.05,0.35-0.08,0.53c0.38,0.14,0.78,0.29,1.19,0.44
				c0.73,0.68,1.44,1.41,2.1,2.21c0.07-0.44,0.15-0.88,0.22-1.32C410.69,102.9,412.53,84.5,408.13,74.94z"/>
		</g>
		<path class="st1" d="M473.4,305.92c-0.98-13.27-12.28-66.96-21.16-96.47c-3.54-11.75-10.44-19.66-10.44-19.66s-0.2,0.04-0.54,0.1
			c-3.04,0.59-18.62,3.67-29.32,7.24c-4.22,1.41-7.69,2.9-9.31,4.34c-6.18,5.5,7.56,48.1,7.56,48.1s-3.93-8.12-9.09-13.56
			c-2.3-2.42-3.86-1.71-6.58-4.29c-8.4-7.98-18.57-17.99-24.39-23.06c-1.76-1.53-3.12-2.62-3.92-3.06c-6.18-3.44-12.37,0-12.37,0
			s2.34,2.96,2.85,5.79c0.36,2.03-0.21,3.99-3.28,4.76c-1.55,0.39-6.48-0.54-13.29-2.23c-1.89-0.47-3.92-1-6.06-1.58
			c-4.54-1.22-9.58-2.66-14.82-4.2c-16.26-4.79-34.47-10.6-45.62-14.22c-3.05-0.99-5.58-1.81-7.39-2.41
			c-33.32,12.04-29.64,17.27-40.89,28.52c-1.86,1.86-3.35,3.97-4.59,6.26c-6.99,12.94-5.48,31.64-11.9,43.9
			c-7.56,14.43-4.12,30.92-4.81,36.42c-0.69,5.5-9.62,61.16-14.43,71.46c-4.81,10.31,3.44,10.99,10.31,22.68
			c6.87,11.68,2.06,13.06,5.5,22.68c1.43,3.99,4.39,4.9,7.37,4.61c4.2-0.42,8.44-3.23,8.44-3.23s1.98,4.72,15.38,5.58
			c5.84,0.38,28.7-0.31,53.27-1.5c31.77-1.53,66.4-3.9,70.79-5.85l3.59-1.59c2.64-1.17,4.59-3.51,5.26-6.33l0.73-3.05
			c-2.03-0.34-4.01-0.67-5.91-0.99c-4.71-0.79-5.62-6.77-2.1-9.18c0.4-0.27,0.83-0.51,1.34-0.68l7.28-2.41v-21.23
			c6.42,0,44.48-9.63,53.65-14.67c9.17-5.04,29.81-17.43,38.98-17.88c2.51-0.13,5.61,0.65,8.79,1.83c0.76-2.99,2.02-7.72,3.9-14.11
			C479.58,321.04,474.77,324.47,473.4,305.92z M259.36,367.33c-1.21-6.64,8.44-30.76,8.44-30.76l16.29,29.56
			C267.8,360.09,259.36,367.33,259.36,367.33z"/>
		<path class="st1" d="M284.09,366.13l-16.29-29.56c0,0-9.65,24.13-8.44,30.76C259.36,367.33,267.8,360.09,284.09,366.13z"/>
		<path class="st1" d="M294.22,447.13c-2.37-7.77-3.71-14.53-4.35-18.25c-24.57,1.19-47.43,1.88-53.27,1.5
			c-13.4-0.86-15.38-5.58-15.38-5.58s-4.23,2.82-8.44,3.23c-2.98,0.29-5.94-0.62-7.37-4.61c-3.44-9.62,1.37-10.99-5.5-22.68
			c-6.87-11.68-15.12-12.37-10.31-22.68c4.81-10.31,13.74-65.97,14.43-71.46c0.69-5.5-2.75-21.99,4.81-36.42
			c6.42-12.26,4.91-30.97,11.9-43.9c-34.01,0.3-114.45,3.67-132.34,34.01c-18.98,32.18-6.24,167.75-1.54,211.47h126.03h92.15
			C300.13,463.99,296.64,455.05,294.22,447.13z"/>
		<path class="st1" d="M390.34,415.31c-6.56-1.03-13.58-2.17-20.11-3.26l-0.73,3.05c-0.67,2.81-2.61,5.15-5.26,6.33l-3.59,1.59
			c-4.39,1.95-39.02,4.31-70.79,5.85c0.64,3.72,1.98,10.48,4.35,18.25c2.42,7.92,5.91,16.86,10.82,24.64h58.4
			C366.64,431.38,390.34,415.31,390.34,415.31z"/>
		<path class="st1" d="M675.42,387.69c-15.65-21.41-19.91-44.14-38.54-48.54c-4.67-1.1-10.23-1.07-17.12,0.44
			c-32.22,7.09-97.98,28.89-150.54,47.05c-32.99,11.39-60.78,21.35-71.81,25.32c-3.29,1.19-5.09,1.84-5.09,1.84
			s-0.74,0.52-1.98,1.51c0,0-23.69,16.07-26.9,56.45h148.29c16.26-18.79,53.55-56.84,85.35-62.77c40.54-7.56,58.41,4.12,59.09,18.55
			c0.59,12.33,1.66,19.65-13.03,43.37l0.74,0.85h89.85C725.27,458.7,699.34,420.42,675.42,387.69z"/>
		
			<ellipse transform="matrix(0.4316 -0.9021 0.9021 0.4316 74.6271 325.4424)" class="st1" cx="295.55" cy="103.5" rx="9.83" ry="7.81"/>
	</g>
	<g>
		<path class="st2" d="M282.08,365.88l-14.74-20.31c0,0-7.55,15.78-10.57,21.82C256.77,367.39,265.79,359.85,282.08,365.88z"/>
		<path class="st3" d="M306.83,135.9c-1.31,0.33-2.69,0.5-4.15,0.45c-15.8-0.49-12.84-11.85-12.84-11.85s-10.56-5.35-8.89-16.78
			c1.29-8.81,5.91-14.1,9.24-16.84c2.36-1.95,4.16-4.49,5.21-7.36c5.34-14.55,24.84-55.67,72.64-47.8c1.5,0.25,2.96,0.71,4.32,1.4
			c4.09,2.07,13.56,7.01,17.55,10.25c5.16,4.19,24.19,17.09,21.61,49.02c-0.74,9.1-1.47,16.28-2.15,21.9
			c6.57,2.62,15.06,6.43,21.15,10.66c0.76,0.53,1.45,1.18,2.1,1.92c2.31-8.4,2.62-17.36-2.6-24.13
			c-13.33-17.28-7.4-26.16-8.39-40.97c-0.99-14.81-18.76-26.16-35.54-30.11c-16.78-3.95-41.96-5.43-41.96-5.43
			s-30.11-13.33-45.91-9.38c-15.8,3.95-18.76,19.75-18.76,19.75c-6.42,16.29-13.33,14.32-28.14,14.32
			c-14.81,0-11.85,16.78-11.85,16.78c-36.53,7.9-11.35,45.91-3.46,57.26c7.9,11.35-1.97,10.86-1.48,28.63s14.81,7.4,28.14,24.19
			c3.86,4.86,8.26,7.7,12.43,9.32C282.88,188.3,304.05,176.96,306.83,135.9z"/>
		<path class="st3" d="M372.29,206.95c-4.8-9.97,14.81-5.92,28.14-8.39c2.02-0.37,3.89-1.62,5.61-3.47
			c-5.58-3.29-12.73-6.96-17.96-10.35c-5.2-3.38-9.02-7.17-11.63-10.29c-2.5,2.4-5.32,4.05-8.61,3.87
			c-8.89-0.49-14.32-3.95-14.32-3.95l-7.54,28.65l7.38,4.03c0,0,6.18-3.44,12.37,0c0.79,0.44,2.16,1.53,3.92,3.06
			C371.81,209.22,372.88,208.17,372.29,206.95z"/>
		<path class="st4" d="M440.42,171.9c0-1.38,1.29-30.7-7.77-41.03c-0.65-0.74-1.34-1.39-2.1-1.92c-6.08-4.23-14.57-8.04-21.15-10.66
			c-0.1,0.87-0.21,1.7-0.31,2.5c2.93,4.33,4.53,10.19,2.7,18.03c-1.47,6.29-4.33,10.94-7.76,14.37c-0.44,6.56-1.41,14.16-3.6,15.25
			c-3.95,1.97-7.9,4.94-11.35,2.96c-1.2-0.69-2.94-3.58-4.7-7.07c-2.34,3.19-4.89,7.2-7.92,10.11c2.61,3.12,6.42,6.91,11.63,10.29
			c5.22,3.39,12.37,7.06,17.96,10.35c2.09,1.23,3.96,2.41,5.42,3.5c10.7-3.57,26.28-6.66,29.32-7.24
			C440.64,184.07,440.42,172.89,440.42,171.9z"/>
		<path class="st5" d="M409.08,120.79c-0.41-0.61-0.85-1.18-1.3-1.73c-0.66-0.8-1.37-1.53-2.1-2.21c-0.41-0.15-0.81-0.3-1.19-0.44
			c-0.19,1.26-0.39,2.62-0.61,4.15c-0.7,4.93-0.85,9.18-1.18,12.98c-0.37,4.2-0.95,7.84-2.77,11.21
			c-3.46,6.42-7.9,11.35-12.84,16.29c-0.26,0.26-0.53,0.55-0.79,0.86c5.12-0.81,12.17-3.14,17.72-8.7
			c3.43-3.43,6.28-8.08,7.76-14.37C413.62,130.98,412.01,125.12,409.08,120.79z"/>
		<path class="st1" d="M356.22,212.83c-0.51-2.83-2.85-5.79-2.85-5.79l-7.38-4.03l-0.1,0.37l-0.44,1.68
			c-3.29,4.12-23.59,0.2-41.98-4.41c-16.35-4.1-31.18-8.73-31.18-8.73c-2.3,0.25-4.47,0.6-6.53,1.03c1.81,0.59,4.34,1.42,7.39,2.41
			c11.15,3.62,29.35,9.43,45.62,14.22c5.24,1.54,10.28,2.98,14.82,4.2c2.14,0.58,4.18,1.11,6.06,1.58
			c6.81,1.7,11.74,2.62,13.29,2.23C356.01,216.83,356.58,214.86,356.22,212.83z"/>
		<path class="st6" d="M443.74,369.83c-2.61,0-7.29,5.18-10.84,9.66l21.39-7.09C450.69,371.17,446.21,369.83,443.74,369.83z"/>
		<path class="st7" d="M409.72,251.02c0,0,10.91,29.48,11.84,34.74"/>
		<path class="st4" d="M399.17,97.22c-1.97-6.91-4.44-27.65-4.44-27.65c-1.12-2.52-2.56-5-4.11-7.27c-3.49,0.3-12.48,1.33-28.42,4.8
			c-21.21,4.61-23.36,28.28-37.81,28.59c-2,0.04-3.74,0.05-5.25,0.03c1.31,2.36,2.17,4.77,2.04,6.92
			c-0.45,7.17-6.6,27.37-19.55,30.65c-2.78,41.06-23.95,52.4-31.7,55.19c-1.76,0.64-2.84,0.83-2.84,0.83s14.83,4.63,31.18,8.73
			c18.39,4.61,38.69,8.53,41.98,4.41l0.44-1.68l0.1-0.37l7.54-28.65c0,0,5.43,3.46,14.32,3.95c3.3,0.18,6.12-1.47,8.61-3.87
			c3.03-2.91,5.58-6.92,7.92-10.11c0.66-0.89,1.3-1.72,1.93-2.44c0.27-0.3,0.53-0.59,0.79-0.86c4.94-4.94,9.38-9.87,12.84-16.29
			c1.81-3.37,2.4-7.01,2.77-11.21c0.33-3.8,0.48-8.05,1.18-12.98c0.22-1.53,0.42-2.89,0.61-4.15c0.03-0.18,0.05-0.36,0.08-0.53
			C400.4,106.34,400.81,102.97,399.17,97.22z"/>
		<g>
			<path class="st8" d="M395.82,64.9c-1.67-2.46-3.46-4.67-5.1-6.43C392.36,60.23,394.15,62.44,395.82,64.9z"/>
			<path class="st5" d="M322.37,95.23C322.37,95.23,322.36,95.23,322.37,95.23c-0.36-0.51-0.73-1-1.1-1.47
				c-0.01-0.01-0.02-0.02-0.03-0.03c-0.37-0.47-0.74-0.94-1.12-1.38c-0.76-0.91-1.51-1.75-2.22-2.51c-2.2-2.36-5.33-3.59-8.54-3.35
				c-0.36,2.7-0.99,9.15-0.25,17.46c0.93,10.49-3.06,17.62-8.62,20.2c-3.31,1.53-7.85,1.33-10.76,0.96
				c-0.35,2.35-0.66,10.82,12.95,11.25c1.45,0.05,2.83-0.12,4.15-0.45c12.95-3.28,19.1-23.48,19.55-30.65
				c0.13-2.15-0.72-4.56-2.04-6.92l0,0C323.76,97.28,323.08,96.24,322.37,95.23z"/>
			<polygon class="st7" points="395.82,64.9 395.83,64.91 395.83,64.91 			"/>
			<path class="st5" d="M389.93,47.36c-4-3.25-13.48-8.19-17.57-10.26c-1.25-0.63-2.57-1.1-3.95-1.33
				c-48.05-8.13-67.64,33.15-72.99,47.74c-1.06,2.88-2.85,5.41-5.21,7.36c-3.33,2.75-7.96,8.04-9.24,16.84
				c-1.67,11.44,8.89,16.78,8.89,16.78s-0.06,0.22-0.11,0.6c2.91,0.36,7.44,0.57,10.76-0.96c5.57-2.58,9.56-9.71,8.62-20.2
				c-0.74-8.31-0.11-14.76,0.25-17.46c0.03-0.19,0.05-0.35,0.07-0.5c24.46-37.11,37.38-49.93,52.11-46.03
				c34.66,9.18,38.7,20.32,46.12,36.44c4.4,9.56,2.56,27.95,0.34,41.35c-0.07,0.45-0.15,0.89-0.22,1.32
				c0.46,0.55,0.89,1.12,1.3,1.73c0.1-0.8,0.21-1.63,0.31-2.5c0.68-5.63,1.41-12.81,2.15-21.9
				C414.12,64.45,395.09,51.55,389.93,47.36z"/>
			<path class="st3" d="M407.67,76.39c-7.42-16.13-11.46-27.27-46.12-36.44c-14.72-3.9-27.65,8.92-52.11,46.03
				c-0.02,0.15-0.05,0.31-0.07,0.5c3.2-0.24,6.34,0.99,8.54,3.35c0.71,0.76,1.46,1.61,2.22,2.51c0.37,0.45,0.75,0.91,1.12,1.38
				c0.01,0.01,0.02,0.02,0.03,0.03c0.37,0.48,0.74,0.97,1.09,1.47c0,0,0,0,0,0.01c0.72,1.01,1.39,2.05,1.97,3.1
				c1.52,0.02,3.25,0.01,5.25-0.03c14.45-0.31,16.6-23.98,37.81-28.59c15.94-3.47,24.94-4.5,28.42-4.8c0,0,0-0.01,0-0.01
				c-1.67-2.46-3.46-4.67-5.1-6.43c1.64,1.76,3.43,3.97,5.1,6.43c0,0,0,0,0.01,0.01c0,0,0,0,0,0c1.54,2.27,2.98,4.74,4.11,7.27
				c0,0,2.47,20.73,4.44,27.65c1.64,5.75,1.23,9.12,0.2,16.06c-0.03,0.17-0.05,0.35-0.08,0.53c0.38,0.14,0.78,0.29,1.19,0.44
				c0.73,0.68,1.44,1.41,2.1,2.21c0.07-0.44,0.15-0.88,0.22-1.32C410.23,104.34,412.07,85.94,407.67,76.39z"/>
		</g>
		<path class="st6" d="M472.93,309.97c-0.98-13.27-12.28-66.96-21.16-96.47c-3.54-11.75-10.44-19.66-10.44-19.66s-0.2,0.04-0.54,0.1
			c-3.04,0.59-18.62,3.67-29.32,7.24c-4.22,1.41-7.69,2.9-9.31,4.34c-6.18,5.5,7.56,48.1,7.56,48.1s-3.93-8.12-9.09-13.56
			c-2.3-2.42-3.86-1.71-6.58-4.29c-8.4-7.98-18.57-17.99-24.39-23.06c-1.76-1.53-3.12-2.62-3.92-3.06c-6.18-3.44-12.37,0-12.37,0
			s2.34,2.96,2.85,5.79c0.36,2.03-0.21,3.99-3.28,4.76c-1.55,0.39-6.48-0.54-13.29-2.23c-1.89-0.47-3.92-1-6.06-1.58
			c-4.54-1.22-9.58-2.66-14.82-4.2c-16.26-4.79-34.47-10.6-45.62-14.22c-3.05-0.99-5.58-1.81-7.39-2.41
			c-33.32,12.04-29.64,17.27-40.89,28.52c-1.86,1.86-3.35,3.97-4.59,6.26c-6.99,12.94-5.48,31.64-11.9,43.9
			c-7.56,14.43-4.12,30.92-4.81,36.42c-0.69,5.5-9.62,61.16-14.43,71.46c-4.81,10.31,3.44,10.99,10.31,22.68
			c6.87,11.68,2.06,13.06,5.5,22.68c1.43,3.99,4.39,4.9,7.37,4.61c4.2-0.42,8.44-3.23,8.44-3.23s1.98,4.72,15.38,5.58
			c5.84,0.38,28.7-0.31,53.27-1.5c31.77-1.53,66.4-3.9,70.79-5.85l3.59-1.59c2.64-1.17,4.59-3.51,5.26-6.33l0.73-3.05
			c-2.03-0.34-4.01-0.67-5.91-0.99c-4.71-0.79-5.62-6.77-2.1-9.18c0.4-0.27,0.83-0.51,1.34-0.68l7.28-2.41v-21.23
			c6.42,0,44.48-9.63,53.65-14.67c9.17-5.04,29.81-17.43,38.98-17.88c2.51-0.13,5.61,0.65,8.79,1.83c0.76-2.99,2.02-7.72,3.9-14.11
			C479.12,325.09,474.31,328.52,472.93,309.97z M258.9,371.38c-1.21-6.64,8.44-30.76,8.44-30.76l16.29,29.56
			C267.34,364.14,258.9,371.38,258.9,371.38z"/>
		<path class="st2" d="M293.76,448.57c-2.37-7.77-3.71-14.53-4.35-18.25c-24.57,1.19-47.43,1.88-53.27,1.5
			c-13.4-0.86-17.52-3.23-17.52-3.23s-4.23,2.82-8.44,3.23c-2.98,0.29-5.94-0.62-7.37-4.61c-3.44-9.62-0.51-12.92-7.38-24.6
			c-6.87-11.68-12.98-14.72-8.17-25.02c4.81-10.31,13.74-65.97,14.43-71.46c0.69-5.5-2.75-21.99,4.81-36.42
			c6.42-12.26,4.91-30.97,11.9-43.9c-34.01,0.3-112.56,5.59-130.46,35.94C68.96,293.92,81.7,429.5,86.4,473.21h126.03h92.15
			C299.67,465.43,296.18,456.49,293.76,448.57z"/>
		<path class="st6" d="M389.88,416.76c-6.56-1.03-13.58-2.17-20.11-3.26l-0.73,3.05c-0.67,2.81-2.61,5.15-5.26,6.33l-3.59,1.59
			c-4.39,1.95-39.02,4.31-70.79,5.85c0.64,3.72,1.98,10.48,4.35,18.25c2.42,7.92,5.91,16.86,10.82,24.64h58.4
			C366.18,432.83,389.88,416.76,389.88,416.76z"/>
		
			<ellipse transform="matrix(0.4316 -0.9021 0.9021 0.4316 73.0614 325.8473)" class="st6" cx="295.09" cy="104.95" rx="9.83" ry="7.81"/>
		<path class="st5" d="M646.5,478.42c0.17-0.28,0.36-0.57,0.53-0.85c14.69-23.72,13.61-31.04,13.03-43.37
			c-0.69-14.43-18.55-26.11-59.09-18.55c-31.8,5.93-69.09,43.98-85.35,62.77H646.5z"/>
		<path class="st4" d="M471.79,348.28c-3.17-1.18-6.27-1.96-8.79-1.83c-9.17,0.46-29.81,12.84-38.98,17.88
			c-9.17,5.04-47.23,14.67-53.65,14.67v21.23l62.53-20.74c3.55-4.48,8.23-9.66,10.84-9.66c2.47,0,6.95,1.34,10.55,2.57l15.69-5.2
			l12.57-4.17l3.37-7.61C482.57,353.37,477.08,350.25,471.79,348.28z"/>
		<path class="st5" d="M678.05,232.38l-123.66-2.41c-7.72-0.15-14.78,4.35-17.92,11.41l-50.55,114.04l-3.37,7.61l-12.57,4.17
			l-15.69,5.2l-21.39,7.09l-62.53,20.74l-7.28,2.41c-0.51,0.17-0.95,0.41-1.34,0.68c-3.53,2.42-2.61,8.39,2.1,9.18
			c8.05,1.36,17.44,2.91,26.03,4.25c1.24-1,1.98-1.51,1.98-1.51s1.8-0.65,5.09-1.84c11.03-3.97,38.82-13.93,71.81-25.32
			c52.56-18.15,118.33-39.96,150.54-47.05c6.89-1.51,12.45-1.55,17.12-0.44c8.9-20.35,37.06-86.79,44.36-104.02
			C681.61,234.61,680.19,232.42,678.05,232.38z"/>
		<path class="st9" d="M675.82,391.74c-15.65-21.41-19.91-44.14-38.54-48.54c-4.67-1.1-10.23-1.07-17.12,0.44
			c-32.22,7.09-97.98,28.89-150.54,47.05c-32.99,11.39-60.78,21.35-71.81,25.32c-3.29,1.19-5.09,1.84-5.09,1.84
			s-0.74,0.52-1.98,1.51c0,0-23.69,16.07-26.9,56.45h148.29c16.26-18.79,53.55-56.84,85.35-62.77c40.54-7.56,58.41,4.12,59.09,18.55
			c0.59,12.33,1.66,19.65-13.03,43.37l0.74,0.85h89.85C725.68,462.75,699.75,424.47,675.82,391.74z"/>
	</g>
	<g>
		<path class="st8" d="M398.01,196.57c-13.33,2.47-32.94-1.58-28.14,8.39c0.59,1.22-0.48,2.27-2.63,3.16
			c5.82,5.08,15.99,15.08,24.39,23.06c2.72,2.58,4.28,1.87,6.58,4.29c5.16,5.44,9.09,13.56,9.09,13.56s-13.74-42.6-7.56-48.1
			c1.62-1.44,5.08-2.93,9.31-4.34c-1.47-1.09-3.33-2.27-5.42-3.5C401.9,194.94,400.03,196.19,398.01,196.57z"/>
		<path class="st7" d="M639.74,471.22c0.17-0.28,0.36-0.57,0.53-0.85c14.69-23.72,13.61-31.04,13.03-43.37
			c-0.69-14.43-18.55-26.11-59.09-18.55c-31.8,5.93-69.09,43.98-85.35,62.77H639.74z"/>
		<path class="st7" d="M304.41,133.92c-1.31,0.33-2.69,0.5-4.15,0.45c-15.8-0.49-12.84-11.85-12.84-11.85s-10.56-5.35-8.89-16.78
			c1.29-8.81,5.91-14.1,9.24-16.84c2.36-1.95,4.16-4.49,5.21-7.36c5.43-14.79,25.49-57.04,75.03-47.37c0,0,14.33,7.03,19.49,11.22
			c5.16,4.19,24.19,17.09,21.61,49.02c-0.74,9.1-1.47,16.28-2.15,21.9c6.57,2.62,15.06,6.43,21.15,10.66
			c0.76,0.53,1.45,1.18,2.1,1.92c2.31-8.4,2.62-17.36-2.6-24.13c-13.33-17.28-7.4-26.16-8.39-40.97
			c-0.99-14.81-18.76-26.16-35.54-30.11c-16.78-3.95-41.96-5.43-41.96-5.43s-30.11-13.33-45.91-9.38
			c-15.8,3.95-18.76,19.75-18.76,19.75c-6.42,16.29-13.33,14.32-28.14,14.32c-14.81,0-11.85,16.78-11.85,16.78
			c-36.53,7.9-11.35,45.91-3.46,57.26c7.9,11.35-1.97,10.86-1.48,28.63s14.81,7.4,28.14,24.19c3.86,4.86,8.26,7.7,12.43,9.32
			C280.46,186.31,301.64,174.97,304.41,133.92z"/>
		<path class="st7" d="M383.89,159.9c-0.63,0.72-1.27,1.55-1.93,2.44c1.76,3.48,3.5,6.38,4.7,7.07c3.46,1.97,7.4-0.99,11.35-2.96
			c2.19-1.09,3.16-8.68,3.6-15.25C396.06,156.76,389.01,159.09,383.89,159.9z"/>
		<path class="st7" d="M369.87,204.96c-4.8-9.97,14.81-5.92,28.14-8.39c2.02-0.37,3.89-1.62,5.61-3.47
			c-5.58-3.29-12.73-6.96-17.96-10.35c-5.2-3.38-9.02-7.17-11.63-10.29c-2.5,2.4-5.32,4.05-8.61,3.87
			c-8.89-0.49-14.32-3.95-14.32-3.95l-7.54,28.65l7.38,4.03c0,0,6.18-3.44,12.37,0c0.79,0.44,2.16,1.53,3.92,3.06
			C369.4,207.23,370.46,206.18,369.87,204.96z"/>
		<path class="st7" d="M438,169.91c0-1.38,1.29-30.7-7.77-41.03c-0.65-0.74-1.34-1.39-2.1-1.92c-6.08-4.23-14.57-8.04-21.15-10.66
			c-0.1,0.87-0.21,1.7-0.31,2.5c2.93,4.33,4.53,10.19,2.7,18.03c-1.47,6.29-4.33,10.94-7.76,14.37c-0.44,6.56-1.41,14.16-3.6,15.25
			c-3.95,1.97-7.9,4.94-11.35,2.96c-1.2-0.69-2.94-3.58-4.7-7.07c-2.34,3.19-4.89,7.2-7.92,10.11c2.61,3.12,6.42,6.91,11.63,10.29
			c5.22,3.39,12.37,7.06,17.96,10.35c2.09,1.23,3.96,2.41,5.42,3.5c10.7-3.57,26.28-6.66,29.32-7.24
			C438.22,182.08,438,170.9,438,169.91z"/>
		<path class="st7" d="M387.52,45.37c-5.16-4.19-19.49-11.22-19.49-11.22c-49.54-9.67-69.6,32.58-75.03,47.37
			c-1.06,2.88-2.85,5.41-5.21,7.36c-3.33,2.75-7.96,8.04-9.24,16.84c-1.67,11.44,8.89,16.78,8.89,16.78s-2.96,11.35,12.84,11.85
			c1.45,0.05,2.83-0.12,4.15-0.45c12.95-3.28,19.1-23.48,19.55-30.65c0.25-4.06-3.02-9.04-6.25-12.91
			c-0.76-0.91-1.51-1.75-2.22-2.51c-2.26-2.43-5.51-3.67-8.81-3.34c24.68-37.52,37.65-50.47,52.45-46.55
			c34.66,9.18,38.7,20.32,46.12,36.44c4.4,9.56,2.56,27.95,0.34,41.35c-0.07,0.45-0.15,0.89-0.22,1.32c0.46,0.55,0.89,1.12,1.3,1.73
			c0.1-0.8,0.2-1.63,0.31-2.5c0.68-5.63,1.41-12.81,2.15-21.9C411.7,62.47,392.68,49.57,387.52,45.37z"/>
		<path class="st7" d="M406.67,118.8c-0.41-0.61-0.85-1.18-1.3-1.73c-0.66-0.8-1.37-1.53-2.1-2.21c-0.41-0.15-0.81-0.3-1.19-0.44
			c-0.19,1.26-0.39,2.62-0.61,4.15c-0.7,4.93-0.85,9.18-1.18,12.98c-0.37,4.2-0.95,7.84-2.77,11.21
			c-3.46,6.42-7.9,11.35-12.84,16.29c-0.26,0.26-0.53,0.55-0.79,0.86c5.12-0.81,12.17-3.14,17.72-8.7
			c3.43-3.43,6.28-8.08,7.76-14.37C411.2,129,409.59,123.14,406.67,118.8z"/>
		<path class="st7" d="M353.81,210.85c-0.51-2.83-2.85-5.79-2.85-5.79l-7.38-4.03l-0.1,0.37l-0.44,1.68
			c-3.29,4.12-23.59,0.2-41.98-4.41c-16.35-4.1-31.18-8.73-31.18-8.73c-2.3,0.25-4.47,0.6-6.53,1.03c1.81,0.59,4.34,1.42,7.39,2.41
			c11.15,3.62,29.35,9.43,45.62,14.22c5.24,1.54,10.28,2.98,14.82,4.2c2.14,0.58,4.18,1.11,6.06,1.58
			c6.81,1.7,11.74,2.62,13.29,2.23C353.59,214.84,354.17,212.88,353.81,210.85z"/>
		<path class="st7" d="M441.32,367.85c-2.61,0-7.29,5.18-10.84,9.66l21.39-7.09C448.28,369.18,443.8,367.85,441.32,367.85z"/>
		<path class="st7" d="M469.37,346.29c-3.17-1.18-6.27-1.96-8.79-1.83c-9.17,0.46-29.81,12.84-38.98,17.88
			c-9.17,5.04-47.23,14.67-53.65,14.67v21.23l62.53-20.74c3.55-4.48,8.23-9.66,10.84-9.66c2.47,0,6.95,1.34,10.55,2.57l15.69-5.2
			l12.57-4.17l3.37-7.61C480.16,351.38,474.66,348.26,469.37,346.29z"/>
		<path class="st7" d="M675.64,230.39l-123.66-2.41c-7.72-0.15-14.78,4.35-17.92,11.41l-50.55,114.04l-3.37,7.61l-12.57,4.17
			l-15.69,5.2l-21.39,7.09l-62.53,20.74l-7.28,2.41c-0.51,0.17-0.95,0.41-1.34,0.68c-3.53,2.42-2.61,8.39,2.1,9.18
			c8.05,1.36,17.44,2.91,26.03,4.25c1.24-1,1.98-1.51,1.98-1.51s1.8-0.65,5.09-1.84c11.03-3.97,38.82-13.93,71.81-25.32
			c52.56-18.15,118.33-39.96,150.54-47.05c6.89-1.51,12.45-1.55,17.12-0.44c8.9-20.35,37.06-86.79,44.36-104.02
			C679.19,232.62,677.77,230.43,675.64,230.39z"/>
		<path class="st7" d="M367.95,377.02c0,0-9.74-5.97-20.98-6.4c-11.24-0.43-57.17,0.31-65.76-5.03"/>
		<path class="st7" d="M264.93,336.03c0.35-2.59,20.23-23.77,17.21-45.38"/>
		<path class="st7" d="M391.63,231.18c0,0,40.64,98.98,41.19,124.23"/>
		<path class="st7" d="M407.3,249.03c0,0,10.91,29.48,11.84,34.74"/>
		<path class="st7" d="M405.25,74.4c-7.42-16.13-11.46-27.27-46.12-36.44c-14.79-3.92-27.76,9.03-52.45,46.55
			c3.3-0.33,6.55,0.91,8.81,3.34c0.71,0.76,1.46,1.61,2.22,2.51c1.52,1.82,3.05,3.89,4.21,5.99c1.52,0.02,3.25,0.01,5.25-0.03
			c14.45-0.31,16.6-23.98,37.81-28.59c15.94-3.47,24.94-4.5,28.42-4.8c-1.67-2.46-3.46-4.68-5.1-6.44
			c3.16,3.38,6.87,8.45,9.21,13.71c0,0,2.47,20.73,4.44,27.65c1.64,5.75,1.23,9.12,0.2,16.06c-0.03,0.17-0.05,0.35-0.08,0.53
			c0.38,0.14,0.78,0.29,1.19,0.44c0.73,0.68,1.44,1.41,2.1,2.21c0.07-0.44,0.15-0.88,0.22-1.32
			C407.82,102.35,409.65,83.96,405.25,74.4z"/>
		<path class="st7" d="M401.96,97.83c-1.97-6.91-4.44-27.65-4.44-27.65c-1.12-2.52-2.56-5-4.11-7.27c-3.49,0.3-12.48,1.33-28.42,4.8
			c-21.21,4.61-23.36,28.28-37.81,28.59c-2,0.04-3.74,0.05-5.25,0.03c1.31,2.36,2.17,4.77,2.04,6.92
			c-0.45,7.17-6.6,27.37-19.55,30.65c-2.78,41.06-23.95,52.4-31.7,55.19c-1.76,0.64-2.84,0.83-2.84,0.83s14.83,4.63,31.18,8.73
			c18.39,4.61,38.69,8.53,41.98,4.41l0.44-1.68l0.1-0.37l7.54-28.65c0,0,5.43,3.46,14.32,3.95c3.3,0.18,6.12-1.47,8.61-3.87
			c3.03-2.91,5.58-6.92,7.92-10.11c0.66-0.89,1.3-1.72,1.93-2.44c0.27-0.3,0.53-0.59,0.79-0.86c4.94-4.94,9.38-9.87,12.84-16.29
			c1.81-3.37,2.4-7.01,2.77-11.21c0.33-3.8,0.48-8.05,1.18-12.98c0.22-1.53,0.42-2.89,0.61-4.15c0.03-0.18,0.05-0.36,0.08-0.53
			C403.2,106.96,403.61,103.58,401.96,97.83z"/>
		
			<ellipse transform="matrix(0.4316 -0.9021 0.9021 0.4316 73.4802 322.5403)" class="st7" cx="292.68" cy="102.96" rx="9.83" ry="7.81"/>
		<path class="st7" d="M287.43,122.52c0,0,5.38,2.08,10.65-0.36c5.57-2.58,9.56-9.71,8.62-20.2c-0.99-11.09-0.02-17.45-0.02-17.45"
			/>
		<path class="st7" d="M295.76,133.73c0,0,25.32-12.69,19.74-45.89"/>
		<path class="st7" d="M419.78,138.17c-1.72-1.72-10.46-14.38-10.46-14.38"/>
		<path class="st7" d="M269.96,344.74c0,0-3.86-17.65,15.24-11.28s40.84,22.25,40.84,22.25"/>
		<path class="st7" d="M230.33,210.93c0,0,20.42,2.74,31.09,23.47s12.8,24.69,12.8,24.69"/>
		<polyline class="st7" points="480.14,361.04 472.25,373.66 500.27,375.04 		"/>
		<line class="st7" x1="472.25" y1="373.66" x2="358.33" y2="408.58"/>
		<path class="st7" d="M470.52,305.38c-0.98-13.27-12.28-66.96-21.16-96.47c-3.54-11.75-10.44-19.66-10.44-19.66s-0.2,0.04-0.54,0.1
			c-3.04,0.59-18.62,3.67-29.32,7.24c-4.22,1.41-7.69,2.9-9.31,4.34c-6.18,5.5,7.56,48.1,7.56,48.1s-3.93-8.12-9.09-13.56
			c-2.3-2.42-3.86-1.71-6.58-4.29c-8.4-7.98-18.57-17.99-24.39-23.06c-1.76-1.53-3.12-2.62-3.92-3.06c-6.18-3.44-12.37,0-12.37,0
			s2.34,2.96,2.85,5.79c0.36,2.03-0.21,3.99-3.28,4.76c-1.55,0.39-6.48-0.54-13.29-2.23c-1.89-0.47-3.92-1-6.06-1.58
			c-4.54-1.22-9.58-2.66-14.82-4.2c-16.26-4.79-34.47-10.6-45.62-14.22c-3.05-0.99-5.58-1.81-7.39-2.41
			c-33.32,12.04-29.64,17.27-40.89,28.52c-1.86,1.86-3.35,3.97-4.59,6.26c-6.99,12.94-5.48,31.64-11.9,43.9
			c-7.56,14.43-4.12,30.92-4.81,36.42c-0.69,5.5-9.62,61.16-14.43,71.46c-4.81,10.31,3.44,10.99,10.31,22.68
			c6.87,11.68,2.06,13.06,5.5,22.68c1.43,3.99,4.39,4.9,7.37,4.61c4.2-0.42,8.44-3.23,8.44-3.23s1.98,4.72,15.38,5.58
			c5.84,0.38,28.7-0.31,53.27-1.5c31.77-1.53,66.4-3.9,70.79-5.85l3.59-1.59c2.64-1.17,4.59-3.51,5.26-6.33l0.73-3.05
			c-2.03-0.34-4.01-0.67-5.91-0.99c-4.71-0.79-5.62-6.77-2.1-9.18c0.4-0.27,0.83-0.51,1.34-0.68l7.28-2.41v-21.23
			c6.42,0,44.48-9.63,53.65-14.67c9.17-5.04,29.81-17.43,38.98-17.88c2.51-0.13,5.61,0.65,8.79,1.83c0.76-2.99,2.02-7.72,3.9-14.11
			C476.7,320.5,471.89,323.93,470.52,305.38z M256.48,366.79c-1.21-6.64,8.44-30.76,8.44-30.76l16.29,29.56
			C264.93,359.55,256.48,366.79,256.48,366.79z"/>
		<path class="st7" d="M281.21,365.59l-16.29-29.56c0,0-9.65,24.13-8.44,30.76C256.48,366.79,264.93,359.55,281.21,365.59z"/>
		<path class="st7" d="M291.34,446.59c-2.37-7.77-3.71-14.53-4.35-18.25c-24.57,1.19-47.43,1.88-53.27,1.5
			c-13.4-0.86-15.38-5.58-15.38-5.58s-4.23,2.82-8.44,3.23c-2.98,0.29-5.94-0.62-7.37-4.61c-3.44-9.62,1.37-10.99-5.5-22.68
			c-6.87-11.68-15.12-12.37-10.31-22.68c4.81-10.31,13.74-65.97,14.43-71.46c0.69-5.5-2.75-21.99,4.81-36.42
			c6.42-12.26,4.91-30.97,11.9-43.9c-34.01,0.3-114.45,3.67-132.34,34.01c-18.98,32.18-6.24,167.75-1.54,211.47h126.03h92.15
			C297.25,463.45,293.76,454.51,291.34,446.59z"/>
		<g>
			<path class="st7" d="M387.46,414.77c-6.56-1.03-13.58-2.17-20.11-3.26l-0.73,3.05c-0.67,2.81-2.61,5.15-5.26,6.33l-3.59,1.59
				c-4.39,1.95-39.02,4.31-70.79,5.85c0.64,3.72,1.98,10.48,4.35,18.25c2.42,7.92,5.91,16.86,10.82,24.64h58.4
				C363.77,430.84,387.46,414.77,387.46,414.77z"/>
			<path class="st7" d="M672.54,387.15C656.89,365.74,652.63,343,634,338.61c-4.67-1.1-10.23-1.07-17.12,0.44
				c-32.22,7.09-97.98,28.89-150.54,47.05c-32.99,11.39-60.78,21.35-71.81,25.32c-3.29,1.19-5.09,1.84-5.09,1.84
				s-0.74,0.52-1.98,1.51c0,0-23.69,16.07-26.9,56.45h148.29c16.26-18.79,53.55-56.84,85.35-62.77
				c40.54-7.56,58.41,4.12,59.09,18.55c0.59,12.33,1.66,19.65-13.03,43.37l0.74,0.85h89.85
				C722.39,458.16,696.46,419.87,672.54,387.15z"/>
		</g>
		<path class="st7" d="M412.52,145.26c0,0-1.97-5.66-3.16-8.43"/>
		<polyline class="st7" points="339.44,101.98 336.1,101.2 317.71,90.35 		"/>
		<path class="st7" d="M377.83,113.05c0,0,5.99-2.77,9.87,2.94"/>
		<path class="st7" d="M376.65,149.83c0,0-21.71-3.43-28.33-15.99l-1.6,2.28"/>
		<path class="st7" d="M351.12,172.38c-1.43-0.15-30.9-22.54-33.87-27.11"/>
		<path class="st7" d="M382.57,46.53c0,0-16.7-1.77-23.78,1.01c-7.08,2.78-15.18,18.97-23.53,22.52
			c-8.35,3.54-19.73,3.79-21.25,2.78"/>
		<path class="st7" d="M344.88,33.12c0,0-22.52-10.37-38.71,2.53s-22.81,42.54-69.09,34.05"/>
		<path class="st7" d="M289.67,130.77c0,0,7.68,10.97-2.98,25.55c-4.81,6.58-23.84,7.12-21.25,16.95
			c2.53,9.61,3.04,14.17,3.04,14.17"/>
		<path class="st7" d="M369.87,204.96c0,0-14.22-12.29-1.45-18.38c5.79-2.76,5.62-14.12,5.62-14.12"/>
		<path class="st7" d="M248.16,170.46c0,0-12.38-18.28,1.77-25.35c14.15-7.07,20.44-15.72,20.24-32.03
			c-0.2-16.31-2.36-25.35,8.45-35.77s25.15-31.25,33.8-37.73c9.55-7.16,22.01-3.73,22.01-3.73"/>
		<path class="st7" d="M462.86,366.61c0,0-10.92-8.74-22.58-7.93"/>
		<path class="st7" d="M468.65,364.61c0,0-11.34-9.71-15.37-10.52"/>
		<path class="st7" d="M477.69,361.5c0,0-11.27-9.66-20.92-10.06"/>
		<line class="st7" x1="474.44" y1="362.71" x2="468.29" y2="355.15"/>
		<path class="st7" d="M394.2,476.83c2.18-1.09,152.85-79.42,189.3-90.84c7.84-2.46,24.53-12.83,55.48-3.26
			c21.05,6.51,62.01,87.58,62.01,87.58"/>
		<path class="st7" d="M508.85,471.22l4.6,1.75c0,0,56.73-72.2,121.72-64.69"/>
		
			<ellipse transform="matrix(0.4642 -0.8857 0.8857 0.4642 58.2314 686.1238)" class="st10" cx="596.22" cy="294.93" rx="18.06" ry="11.82"/>
		<path class="st7" d="M213.04,238.97c0,0-70.27-2.58-90.25,24.5c-16.26,22.04-1.93,204.35-1.93,204.35"/>
		<path class="st7" d="M382.19,102.42c0,0-0.33,21.79,1.65,25.42c1.12,2.05-2.64,6.93-7.92,6.27"/>
		
			<ellipse transform="matrix(0.0451 -0.999 0.999 0.0451 257.4252 504.7748)" class="st11" cx="392.74" cy="117.74" rx="2.5" ry="2"/>
		<circle class="st11" cx="359.17" cy="107.9" r="2.77"/>
		<path class="st12" d="M336.41,105.13c-1.97,11.5,5.75,22.42,17.25,24.39c11.5,1.97,22.42-5.75,24.39-17.25s3.72-19.04-17.25-24.39
			C342.02,83.09,338.38,93.63,336.41,105.13z"/>
		<path class="st7" d="M387.47,118.06c-1.97,11.5,2.37,21.84,9.69,23.09s14.86-7.05,16.83-18.55c1.97-11.5,3.56-19.07-9.69-23.09
			C392.43,95.91,389.44,106.56,387.47,118.06z"/>
	</g>
</g>
</svg>
