<?xml version="1.0" encoding="utf-8"?>
<!-- Generator: Adobe Illustrator 24.0.3, SVG Export Plug-In . SVG Version: 6.00 Build 0)  -->
<svg version="1.1" xmlns="http://www.w3.org/2000/svg" xmlns:xlink="http://www.w3.org/1999/xlink" x="0px" y="0px"
	 viewBox="0 0 841.89 467.72" style="enable-background:new 0 0 841.89 467.72;" xml:space="preserve">
<style type="text/css">
	.st0{fill:#F4F4F5;}
	.st1{fill:#E6B59E;}
	.st2{fill:#4890BA;}
	.st3{fill:#E0635D;}
	.st4{fill:none;}
	.st5{fill:none;stroke:#54575C;stroke-miterlimit:10;}
	.st6{fill:#54575C;}
	.st7{fill:#FFFFFF;}
	.st8{fill:#F5C65D;}
</style>
<g id="Layer_1">
</g>
<g id="Layer_2">
</g>
<g id="Layer_3">
	<rect x="-3.89" y="-0.6" class="st0" width="847.78" height="469.93"/>
	<g>
		<path class="st1" d="M387.55,343.43c48.9-5.62,74.21-52.58,83.12-74.94c-0.67-2.08-1.38-3.75-2.15-4.91
			c-2.5-3.8-5.05-7.86-7.47-11.81c-11.79,15-39.34,47.88-54.38,48.17c-18.68,0.36-59.37-47.45-69.01-68.27
			c-1.6,5.34-3.49,11.57-5.48,18.36c1.22,2.27,2.35,4.95,2.89,7.92C336.56,266.21,357.27,346.91,387.55,343.43z"/>
		<path class="st2" d="M479.74,370.76c-0.48-16.16-1.47-45.62-3.81-69.86c-1.3-13.49-3.01-25.35-5.27-32.41
			c-8.91,22.36-34.22,69.32-83.12,74.94c-30.28,3.48-50.98-77.22-52.48-85.47c-0.54-2.98-1.67-5.66-2.89-7.92
			c-2.2,7.54-4.52,15.77-6.68,24.27c-6.21,24.44-11.08,50.96-8.09,69.05l45.39,5.46l50.2,6.04l11.85,1.42l-22.98,44.92
			C423.26,392.71,457.39,379.43,479.74,370.76z"/>
		<path class="st1" d="M456.97,241.03c-5.43-9.1-9.45-16.31-9.45-16.31s-10.81-24.03,9.99-35.42c-0.72-0.68-1.43-1.38-2.12-2.06
			c-4.12-4.12-3-15.37-4.87-26.62c-1.14-6.86-3.12-12.74-4.75-17.13c-14.57,4.77-36.53,9.38-47.72-0.98c0,0-19.39,13.26-54.1-3.49
			c0.52,17.49,0.88,42.12-1.02,47.84c-0.9,2.71-3.28,5.69-6.14,8.54l-0.08,10.53c2.9,1.29,4.88,2.33,5.42,2.95
			c0.5,0.58-0.16,3.75-1.56,8.79c-0.77,2.8-1.77,6.18-2.92,10.01c9.64,20.82,50.34,68.63,69.01,68.27
			c15.04-0.29,42.59-33.17,54.38-48.17C459.63,245.47,458.26,243.2,456.97,241.03z"/>
		<path class="st2" d="M581.73,308.19c-6.39-8.83,6.49-48.79-3.48-69.93c-2.31-4.9-5.85-8.79-11.14-11.04
			c-28.12-12-46.11-2.25-46.11-2.25l-13.5-47.98c0,0-0.91,0.18-2.56,0.55c-4.46,1.01-14.39,3.45-26.95,7.71
			c-2.11,0.72-4.3,1.49-6.55,2.31c-3.36,1.23-6.85,2.57-10.43,4.05c-1.27,0.52-2.42,1.09-3.5,1.69c-20.8,11.4-9.99,35.42-9.99,35.42
			s4.02,7.21,9.45,16.31c1.29,2.16,2.66,4.43,4.07,6.74c2.42,3.95,4.97,8.01,7.47,11.81c0.77,1.16,1.48,2.83,2.15,4.91
			c2.26,7.06,3.97,18.92,5.27,32.41c2.33,24.24,3.33,53.7,3.81,69.86c6.19-2.4,11.48-4.45,15.35-5.95c4.34-1.68,6.88-2.66,6.88-2.66
			l1.96,7.84l-16.34,13.72l22.91-6.87l68.58-20.57l8.53,1.85c3.1-1.74,5.14-3.07,5.75-3.82
			C598.23,348.31,589.61,319.07,581.73,308.19z"/>
		<path class="st2" d="M342.13,212.87c-0.54-0.62-2.52-1.65-5.42-2.95c-2.27-1.01-5.1-2.18-8.24-3.42
			c-5.46-2.16-11.85-4.54-17.84-6.72c-6.16-2.24-11.89-4.27-15.77-5.64c-3.09-1.08-5-1.74-5-1.74l-9.58,32.67
			c-21.92-14.54-34.79,2.52-43.04,21.65c-5.74,13.3-9.25,27.61-12.02,32.99c-3.49,6.78-6.17,30.89-7.96,52.76
			c0.7-0.66,1.08-1.02,1.08-1.02l64.27,7.73l34.79,4.18c-2.99-18.09,1.88-44.62,8.09-69.05c2.16-8.49,4.47-16.72,6.68-24.27
			c1.99-6.8,3.88-13.02,5.48-18.36c1.15-3.84,2.15-7.21,2.92-10.01C341.97,216.62,342.64,213.45,342.13,212.87z"/>
		<path class="st3" d="M537.91,147.82c-21.56-13.72-11.76-45.74-5.88-59.47c5.88-13.72-39.86-50.97-62.73-57.51
			c-22.87-6.53-45.74,1.31-69.92,10.46c-24.18,9.15-24.83-1.96-42.48,10.46c-17.64,12.42-45.74,7.19-69.27,3.92
			c-23.53-3.27-25.49,16.34-32.02,38.56c-6.53,22.22-22.87,24.18-32.67,26.14c-9.8,1.96-22.87,1.96-32.67,30.71
			c-9.8,28.75,9.15,37.9,17.64,58.81c8.5,20.91-1.96,22.87,11.76,32.67c5.79,4.13,12.15,4.78,17.58,4.14
			c8.25-19.13,21.12-36.18,43.04-21.65l9.58-32.67c0,0,1.91,0.66,5,1.74c1.74-16.18,6.25-59.31,5.34-63.26
			c-1.12-4.87,3.37-8.25,3.37-8.25s0-5.62,0.38-10.5c0.37-4.87,29.99-34.11,32.99-34.49c6.32-0.79,9.75,10.12,9.75,10.12
			c8.62,2.25,9.37,15,9.37,15s6-0.75,4.87,6.75c-1.12,7.5-10.12,6-10.87,7.12c-0.3,0.45-1.42,1.66-2.66,3.03
			c-1.9,2.09-4.08,4.54-4.08,5.22c0,0.41,0.35,8.1,0.65,18.14c34.71,16.74,54.1,3.49,54.1,3.49c11.19,10.36,33.14,5.74,47.72,0.98
			c-1.04-2.81-1.94-5.02-2.37-6.48c-1.12-3.75,0-12.37-1.87-15c-0.74-1.04-1.36-2.89-1.84-4.75c-0.74-2.86-1.16-5.74-1.16-5.74
			s-3.75,0-5.62-3.75c-1.87-3.75,3.75-11.25,3.75-11.25c-2.25-6.75,4.12-11.25,4.12-11.25s0,0,0-1.87s10.5-13.87,12.75-15.74
			s7.5,2.25,7.5,2.25c15-4.87,28.87,37.49,31.86,43.49c2.49,4.97,9.36,45.26,12.06,60.16c1.65-0.37,2.56-0.55,2.56-0.55l13.5,47.98
			c0,0,17.99-9.75,46.11,2.25c5.29,2.26,8.83,6.15,11.14,11.04C612.04,196.6,558.65,161.02,537.91,147.82z"/>
		<path class="st1" d="M492.89,117.38c-3-6-16.87-48.36-31.86-43.49c0,0-5.25-4.12-7.5-2.25s-12.75,13.87-12.75,15.74s0,1.87,0,1.87
			s-6.37,4.5-4.12,11.25c0,0-5.62,7.5-3.75,11.25c1.87,3.75,5.62,3.75,5.62,3.75s0.41,2.88,1.16,5.74c0.48,1.86,1.1,3.72,1.84,4.75
			c1.87,2.62,0.75,11.25,1.87,15c0.44,1.46,1.34,3.67,2.37,6.48c1.63,4.4,3.6,10.27,4.75,17.13c1.87,11.25,0.75,22.49,4.87,26.62
			c0.69,0.69,1.4,1.38,2.12,2.06c1.09-0.6,2.24-1.17,3.5-1.69c3.58-1.47,7.07-2.82,10.43-4.05c2.25-0.82,4.43-1.59,6.55-2.31
			c12.55-4.26,22.49-6.7,26.95-7.71C502.24,162.64,495.37,122.36,492.89,117.38z"/>
		<path class="st1" d="M356.06,102.76c0,0-0.75-12.75-9.37-15c0,0-3.42-10.91-9.75-10.12c-3,0.37-32.61,29.62-32.99,34.49
			c-0.38,4.87-0.38,10.5-0.38,10.5s-4.5,3.37-3.37,8.25c0.91,3.95-3.6,47.08-5.34,63.26c3.88,1.36,9.61,3.39,15.77,5.64
			c5.99,2.18,12.38,4.57,17.84,6.72c2.71-2.05,5.72-4.52,8.32-7.1c2.87-2.85,5.24-5.83,6.14-8.54c1.91-5.72,1.54-30.34,1.02-47.84
			c-0.3-10.04-0.65-17.73-0.65-18.14c0-0.68,2.19-3.13,4.08-5.22c1.24-1.37,2.37-2.58,2.66-3.03c0.75-1.12,9.75,0.37,10.87-7.12
			C362.06,102.01,356.06,102.76,356.06,102.76z"/>
		<path class="st2" d="M280.28,225.07c0,0-16.23,58.05-22.72,66.58c-6.49,8.52-23.94,41.8-23.94,41.8"/>
		<path class="st2" d="M521,224.97c0,0,13.32,44.76,21.84,65.05c8.52,20.29,27.19,64.93,27.19,67.36"/>
	</g>
	<path class="st4" d="M330.16,203.13c3.14,1.24,5.97,2.41,8.24,3.42l0.08-10.53C335.88,198.61,332.86,201.08,330.16,203.13z"/>
	<path class="st5" d="M389.23,340.06c48.9-5.62,74.21-52.58,83.12-74.94c-0.67-2.08-1.38-3.75-2.15-4.91
		c-2.5-3.8-5.05-7.86-7.47-11.81c-11.79,15-39.34,47.88-54.38,48.17c-18.68,0.36-59.37-47.45-69.01-68.27
		c-1.6,5.34-3.49,11.57-5.48,18.36c1.22,2.27,2.35,4.95,2.89,7.92C338.25,262.83,358.95,343.53,389.23,340.06z"/>
	<path class="st5" d="M481.43,367.39c-0.48-16.16-1.47-45.62-3.81-69.86c-1.3-13.49-3.01-25.35-5.27-32.41
		c-8.91,22.36-34.22,69.32-83.12,74.94c-30.28,3.48-50.98-77.22-52.48-85.47c-0.54-2.98-1.67-5.66-2.89-7.92
		c-2.2,7.54-4.52,15.77-6.68,24.27c-6.21,24.44-11.08,50.96-8.09,69.05l45.39,5.46l50.2,6.04l11.85,1.42l-22.98,44.92
		C424.94,389.33,459.08,376.06,481.43,367.39z"/>
	<path class="st5" d="M458.66,241.66c-5.43-9.1-9.45-16.31-9.45-16.31s-10.81-24.03,9.99-35.42c-0.72-0.68-1.43-1.38-2.12-2.06
		c-4.12-4.12-3-15.37-4.87-26.62c-1.14-6.86-3.12-12.74-4.75-17.13c-14.57,4.77-36.53,9.38-47.72-0.98c0,0-19.39,13.26-54.1-3.49
		c0.52,17.49,0.88,42.12-1.02,47.84c-0.9,2.71-3.28,5.69-6.14,8.54l-0.08,10.53c2.9,1.29,4.88,2.33,5.42,2.95
		c0.5,0.58-0.16,3.75-1.56,8.79c-0.77,2.8-1.77,6.18-2.92,10.01c9.64,20.82,50.34,68.63,69.01,68.27
		c15.04-0.29,42.59-33.17,54.38-48.17C461.32,246.09,459.95,243.82,458.66,241.66z"/>
	<path class="st5" d="M583.42,304.82c-6.39-8.83,6.49-48.79-3.48-69.93c-2.31-4.9-5.85-8.79-11.14-11.04
		c-28.12-12-46.11-2.25-46.11-2.25l-13.5-47.98c0,0-0.91,0.18-2.56,0.55c-4.46,1.01-14.39,3.45-26.95,7.71
		c-2.11,0.72-4.3,1.49-6.55,2.31c-3.36,1.23-6.85,2.57-10.43,4.05c-1.27,0.52-2.42,1.09-3.5,1.69c-20.8,11.4-9.99,35.42-9.99,35.42
		s4.02,7.21,9.45,16.31c1.29,2.16,2.66,4.43,4.07,6.74c2.42,3.95,4.97,8.01,7.47,11.81c0.77,1.16,1.48,2.83,2.15,4.91
		c2.26,7.06,3.97,18.92,5.27,32.41c2.33,24.24,3.33,53.7,3.81,69.86c6.19-2.4,11.48-4.45,15.35-5.95c4.34-1.68,6.88-2.66,6.88-2.66
		l1.96,7.84l-16.34,13.72l22.91-6.87l68.58-20.57l8.53,1.85c3.1-1.74,5.14-3.07,5.75-3.82
		C599.91,344.93,591.29,315.69,583.42,304.82z"/>
	<path class="st5" d="M343.82,209.49c-0.54-0.62-2.52-1.65-5.42-2.95c-2.27-1.01-5.1-2.18-8.24-3.42
		c-5.46-2.16-11.85-4.54-17.84-6.72c-6.16-2.24-11.89-4.27-15.77-5.64c-3.09-1.08-5-1.74-5-1.74l-9.58,32.67
		c-21.92-14.54-34.79,2.52-43.04,21.65c-5.74,13.3-9.25,27.61-12.02,32.99c-3.49,6.78-6.17,30.89-7.96,52.76
		c0.7-0.66,1.08-1.02,1.08-1.02l64.27,7.73l34.79,4.18c-2.99-18.09,1.88-44.62,8.09-69.05c2.16-8.49,4.47-16.72,6.68-24.27
		c1.99-6.8,3.88-13.02,5.48-18.36c1.15-3.84,2.15-7.21,2.92-10.01C343.66,213.24,344.33,210.07,343.82,209.49z"/>
	<path class="st5" d="M539.6,144.44c-21.56-13.72-11.76-45.74-5.88-59.47c5.88-13.72-39.86-50.97-62.73-57.51
		c-22.87-6.53-45.74,1.31-69.92,10.46c-24.18,9.15-24.83-1.96-42.48,10.46c-17.64,12.42-45.74,7.19-69.27,3.92
		c-23.53-3.27-25.49,16.34-32.02,38.56s-22.87,24.18-32.67,26.14c-9.8,1.96-22.87,1.96-32.67,30.71
		c-9.8,28.75,9.15,37.9,17.64,58.81c8.5,20.91-1.96,22.87,11.76,32.67c5.79,4.13,12.15,4.78,17.58,4.14
		c8.25-19.13,21.12-36.18,43.04-21.65l9.58-32.67c0,0,1.91,0.66,5,1.74c1.74-16.18,6.25-59.31,5.34-63.26
		c-1.12-4.87,3.37-8.25,3.37-8.25s0-5.62,0.38-10.5c0.37-4.87,29.99-34.11,32.99-34.49c6.32-0.79,9.75,10.12,9.75,10.12
		c8.62,2.25,9.37,15,9.37,15s6-0.75,4.87,6.75c-1.12,7.5-10.12,6-10.87,7.12c-0.3,0.45-1.42,1.66-2.66,3.03
		c-1.9,2.09-4.08,4.54-4.08,5.22c0,0.41,0.35,8.1,0.65,18.14c34.71,16.74,54.1,3.49,54.1,3.49c11.19,10.36,33.14,5.74,47.72,0.98
		c-1.04-2.81-1.94-5.02-2.37-6.48c-1.12-3.75,0-12.37-1.87-15c-0.74-1.04-1.36-2.89-1.84-4.75c-0.74-2.86-1.16-5.74-1.16-5.74
		s-3.75,0-5.62-3.75c-1.87-3.75,3.75-11.25,3.75-11.25c-2.25-6.75,4.12-11.25,4.12-11.25s0,0,0-1.87s10.5-13.87,12.75-15.74
		s7.5,2.25,7.5,2.25c15-4.87,28.87,37.49,31.86,43.49c2.49,4.97,9.36,45.26,12.06,60.16c1.65-0.37,2.56-0.55,2.56-0.55l13.5,47.98
		c0,0,17.99-9.75,46.11,2.25c5.29,2.26,8.83,6.15,11.14,11.04C613.73,193.22,560.34,157.64,539.6,144.44z"/>
	<path class="st5" d="M494.57,114.01c-3-6-16.87-48.36-31.86-43.49c0,0-5.25-4.12-7.5-2.25s-12.75,13.87-12.75,15.74s0,1.87,0,1.87
		s-6.37,4.5-4.12,11.25c0,0-5.62,7.5-3.75,11.25c1.87,3.75,5.62,3.75,5.62,3.75s0.41,2.88,1.16,5.74c0.48,1.86,1.1,3.72,1.84,4.75
		c1.87,2.62,0.75,11.25,1.87,15c0.44,1.46,1.34,3.67,2.37,6.48c1.63,4.4,3.6,10.27,4.75,17.13c1.87,11.25,0.75,22.49,4.87,26.62
		c0.69,0.69,1.4,1.38,2.12,2.06c1.09-0.6,2.24-1.17,3.5-1.69c3.58-1.47,7.07-2.82,10.43-4.05c2.25-0.82,4.43-1.59,6.55-2.31
		c12.55-4.26,22.49-6.7,26.95-7.71C503.93,159.27,497.06,118.98,494.57,114.01z"/>
	<path class="st5" d="M357.74,99.39c0,0-0.75-12.75-9.37-15c0,0-3.42-10.91-9.75-10.12c-3,0.37-32.61,29.62-32.99,34.49
		c-0.38,4.87-0.38,10.5-0.38,10.5s-4.5,3.37-3.37,8.25c0.91,3.95-3.6,47.08-5.34,63.26c3.88,1.36,9.61,3.39,15.77,5.64
		c5.99,2.18,12.38,4.57,17.84,6.72c2.71-2.05,5.72-4.52,8.32-7.1c2.87-2.85,5.24-5.83,6.14-8.54c1.91-5.72,1.54-30.34,1.02-47.84
		c-0.3-10.04-0.65-17.73-0.65-18.14c0-0.68,2.19-3.13,4.08-5.22c1.24-1.37,2.37-2.58,2.66-3.03c0.75-1.12,9.75,0.37,10.87-7.12
		C363.74,98.64,357.74,99.39,357.74,99.39z"/>
	<path class="st5" d="M429.22,284.43c0,0-12.03,31.22-10.41,37.07"/>
	<path class="st5" d="M411.67,239.23c0,0-15.93,14.63-27.64-2.6"/>
	<path class="st5" d="M414.27,259.07c0,0-32.52,2.6-34.79,1.3s-2.93,2.93-2.93,2.93"/>
	<path class="st5" d="M351.75,113.26c0,0,0.41-4.74-0.89-8.64"/>
	<line class="st5" x1="440.22" y1="112.13" x2="440.61" y2="106.89"/>
	<path class="st5" d="M438.34,97.14c0,0,10.72-4.55,12.02-1.95c1.3,2.6,10.73,28.29,10.73,28.29"/>
	<path class="st5" d="M442.47,85.89c0,0,12.45-6.31,15.05-4.69s13.33,23.41,13.33,23.41"/>
	<line class="st5" x1="462.71" y1="70.52" x2="478.65" y2="102.34"/>
	<path class="st5" d="M357.74,99.39c0,0-9.81-9.08-12.41-8.75c-2.6,0.33-7.15,1.63-7.48,4.23c-0.33,2.6-7.8,18.86-7.8,18.86"/>
	<path class="st5" d="M348.37,84.39c0,0-8.57-3.51-10.85-1.24c-2.28,2.28-12.68,16.91-12.68,16.91"/>
	<line class="st5" x1="305.26" y1="119.25" x2="305.99" y2="126.4"/>
	<path class="st5" d="M399.75,143.13c0,0,4.76-1.45-1.09-6c-5.85-4.55-14.31-5.85-7.48-18.21s12.36-13.33,2.93-51.38"/>
	<path class="st5" d="M281.97,221.69c0,0-16.23,58.05-22.72,66.58c-6.49,8.52-23.94,41.8-23.94,41.8"/>
	<path class="st5" d="M522.69,221.59c0,0,13.32,44.76,21.84,65.05c8.52,20.29,27.19,64.93,27.19,67.36"/>
	<circle class="st6" cx="368.57" cy="198.88" r="2.75"/>
	<circle class="st6" cx="429.7" cy="198.88" r="2.75"/>
	<g>
		<path class="st7" d="M615.95,201.19l78.83-38.88C694.79,162.31,619.68,199.06,615.95,201.19z"/>
		<path class="st8" d="M841.39,86.86V66.89c-8.99-3.7-56.96-22.41-56.96-22.41l-86.94,35.9l86.94-35.9c0,0,47.96,18.71,56.96,22.41
			V40.46c-4.16-1.56-50.79-20.1-50.79-20.1l-175,73.48l5.61,6.17l-5.61-6.17l175-73.48c0,0,46.62,18.54,50.79,20.1V15.64
			c-7.06-2.92-65.11-12.59-65.11-12.59s-74.85,42.23-116.12,50.6c-70.42,14.28-62.08,49.95-57.05,54.42
			c47.98-15.51,169.17-46.35,170.51-45.9C775.11,62.66,833.31,83.91,841.39,86.86z M781.63,9.14l58.33,16.83L781.63,9.14
			l-166.03,71.8l6.73,7.85l-6.73-7.85L781.63,9.14z"/>
		<g>
			<path class="st7" d="M588.72,141.58l3.12,2.62L588.72,141.58l-9.02,2.75l8.56,5.33l135.82-45.93l117.31,49.37v-11.44
				c-10.41-4.93-112.49-42.75-112.49-42.75L588.72,141.58z"/>
			<path class="st8" d="M588.72,141.58l-3.41-2.86l8.42-2.57c-1.73-3.29-4.57-7.88-6.74-7.52c-3.37,0.56,134.62-41.51,134.62-41.51
				s95.36,29.65,119.78,37.79V86.86c-8.09-2.95-66.28-24.2-67.77-24.69c-1.34-0.45-122.53,30.38-170.51,45.9
				c-9.06,2.93-15.52,5.31-18.05,6.84c-15.98,9.59-29.83,30.89-7.46,38.35l10.67-3.61l-8.56-5.33L588.72,141.58z"/>
			<path class="st7" d="M593.74,136.14c0.95,1.8,1.57,3.22,1.57,3.22S594.69,137.94,593.74,136.14l-8.42,2.57l3.41,2.86
				l140.19-42.69c0,0,102.07,37.82,112.49,42.75v-6.57L733.96,93.28L593.74,136.14z"/>
			<path class="st7" d="M721.62,87.11c0,0-137.98,42.07-134.62,41.51c2.18-0.36,5.01,4.23,6.74,7.52l140.22-42.86l107.44,41.79
				V124.9C816.98,116.75,721.62,87.11,721.62,87.11z"/>
		</g>
		<path class="st8" d="M724.73,144.46l-12.65-4.63l7.85-7.29l50.48,14.58l-5.51,10.52l75.84,24.9c0-0.75,0.23-7.19,0.48-13.84
			c0.06-1.56,0.12-3.13,0.17-4.65v-10.82c-7.55-1.64-117.31-49.53-117.31-49.53s-143.63,50.49-146.48,49.54
			c0,0,32.12,10.6,47.47,15.09c1.3,0.38,2.47,0.71,3.5,1c29.28-22.19,69.41-33.66,69.41-33.66L724.73,144.46z"/>
		<path class="st7" d="M841.39,233.02v-21.65l-0.12-6.44c0,2.13-146.48-42.61-146.48-42.61l-78.83,38.88c0,0-26.2,22.32-3.11,36.4
			l76.09-55.57L841.39,233.02z"/>
		<path class="st3" d="M681.8,279.06c-0.08-0.02-0.17-0.04-0.25-0.06c-0.4-0.1-0.82-0.21-1.26-0.32c-0.04-0.01-0.09-0.02-0.14-0.03
			c-0.39-0.1-0.8-0.2-1.22-0.31c-0.11-0.03-0.23-0.06-0.34-0.09c-0.47-0.12-0.95-0.24-1.44-0.37c-0.05-0.01-0.11-0.03-0.16-0.04
			c-0.47-0.12-0.96-0.25-1.45-0.38c-0.08-0.02-0.17-0.04-0.25-0.07c-0.54-0.14-1.1-0.29-1.67-0.44c-0.07-0.02-0.13-0.04-0.2-0.05
			c-0.52-0.14-1.05-0.28-1.59-0.42c-0.09-0.02-0.18-0.05-0.27-0.07c-0.59-0.16-1.2-0.32-1.82-0.49c-0.07-0.02-0.14-0.04-0.21-0.06
			c-0.61-0.17-1.23-0.33-1.85-0.51c-0.03-0.01-0.07-0.02-0.1-0.03c-0.66-0.18-1.33-0.37-2.01-0.56c-0.07-0.02-0.13-0.04-0.2-0.05
			c-1.37-0.38-2.77-0.78-4.2-1.18c-0.06-0.02-0.13-0.04-0.19-0.05c-1.43-0.41-2.89-0.83-4.37-1.27c-0.06-0.02-0.13-0.04-0.19-0.06
			c-1.49-0.44-2.99-0.89-4.5-1.35c-0.05-0.01-0.09-0.03-0.14-0.04c-1.53-0.47-3.07-0.94-4.61-1.43c-0.03-0.01-0.05-0.02-0.08-0.02
			c-1.56-0.49-3.11-0.99-4.66-1.5c-0.01,0-0.01,0-0.02-0.01c-0.77-0.25-1.54-0.51-2.31-0.77c-0.01,0-0.02-0.01-0.03-0.01
			c-1.52-0.51-3.03-1.03-4.51-1.55c-0.03-0.01-0.05-0.02-0.08-0.03c-1.46-0.52-2.9-1.04-4.29-1.56c-0.04-0.01-0.08-0.03-0.12-0.04
			c-1.39-0.52-2.74-1.05-4.04-1.57c-0.04-0.02-0.08-0.03-0.13-0.05c-1.3-0.52-2.55-1.05-3.75-1.57c-0.04-0.02-0.09-0.04-0.13-0.06
			c-1.19-0.52-2.33-1.05-3.4-1.57c-0.04-0.02-0.08-0.04-0.12-0.06c-0.54-0.26-1.06-0.52-1.57-0.79c0,0,0,0,0,0
			c-0.01,0-0.01-0.01-0.02-0.01c-1.51-0.78-2.86-1.55-4.03-2.32c-0.05-0.04-0.11-0.07-0.16-0.11c-0.17-0.11-0.34-0.23-0.5-0.34
			c-0.08-0.05-0.15-0.11-0.23-0.16c-0.14-0.1-0.28-0.2-0.42-0.3c-0.09-0.06-0.17-0.13-0.26-0.19c-0.12-0.09-0.24-0.19-0.36-0.28
			c-0.09-0.07-0.17-0.14-0.26-0.21c-0.11-0.09-0.21-0.18-0.31-0.27c-0.09-0.07-0.17-0.15-0.25-0.22c-0.09-0.08-0.18-0.17-0.27-0.25
			c-0.08-0.08-0.16-0.15-0.23-0.23c-0.08-0.08-0.16-0.16-0.23-0.24c-0.07-0.08-0.14-0.16-0.21-0.24c-0.06-0.08-0.13-0.15-0.19-0.23
			c-0.07-0.08-0.13-0.17-0.19-0.25c-0.05-0.07-0.1-0.14-0.15-0.21c-0.06-0.09-0.11-0.18-0.16-0.27c-0.04-0.06-0.08-0.13-0.11-0.19
			c-0.05-0.1-0.1-0.2-0.14-0.3c-0.02-0.05-0.05-0.1-0.07-0.16c-0.06-0.15-0.1-0.3-0.14-0.45c-2.66-11.72,94.82-30.89,94.82-30.89
			s123.53,30.4,137.27,34.25l0.28-8.4v-12.67l-152.46-51l-76.09,55.57l-32.58,23.79l101.45,18.08c0.41-0.04,0.82-0.08,1.23-0.11
			C682.59,279.26,682.2,279.16,681.8,279.06z M731.15,221.17c0,0,43.19,3.93,43.75,6.73c0.56,2.8-3.93,8.41-3.93,8.41l-44.87-11.22
			L731.15,221.17z"/>
		<path class="st0" d="M706.47,429.82c10.96,2.19,84.68-16.07,134.8-29.07v-11.89c-52.13,14.06-127.95,33.85-138.73,31.99
			c10.78,1.87,86.6-17.93,138.73-31.99v-4.34c-59.52,9-152.86,24.97-155.29,33.46c-3.53,12.37,2.36,20.61,37.1,18.26
			c33.94-2.3,81.05-11.1,118.18-18.95v-16.54C791.16,413.76,717.43,432.02,706.47,429.82z"/>
		<path class="st0" d="M588.43,359.23l69.89,15.14l3.49,3.87l2.98-0.91c0,0,102.91-8.29,176.49-19.89c0-29.96,0-53.99,0-53.99
			c-23.61,15.44-149.05,30.88-185.53,35.1c-19.66,3.29-35.16,5.56-42.45,5.92c-32.49,1.6-60.72,2.66-60.19,5.33
			s14.91,10.12,14.91,10.12l0.92,0.75l10.96-3.29L588.43,359.23z M804.07,331.67l3.37,6.73l-71.24,15.14l-2.24-8.41L804.07,331.67z"
			/>
		<path class="st8" d="M483.87,419.73c2.1-0.64,4.34-0.91,6.22-1.02c3.73-2.62,14.63-9.91,23.51-12.38
			c-27.87-4.24-30.3-10.3-30.3-14.54c0-4.24,69.68,12.12,89.67,12.72c20,0.61,91.22-23.6,91.22-23.6l-2.4-2.66l-3.49-3.87
			l-69.89-15.14l-8.53-1.85l-10.96,3.29l-6.53,1.96l-51.09,15.33l-22.91,6.87l-11.09,9.65L483.87,419.73z"/>
		<path class="st0" d="M813.61,271.09l27.67,32.38l-0.53-37.82c0,0-0.04,0-0.09,0.01c-0.04,0-0.08,0.01-0.14,0.01
			c-0.04,0-0.09,0.01-0.14,0.01c-0.11,0.01-0.24,0.02-0.39,0.03c-0.35,0.03-0.8,0.07-1.37,0.11c-0.96,0.08-2.24,0.18-3.8,0.31
			c-0.31,0.03-0.62,0.05-0.95,0.08c-0.57,0.05-1.16,0.1-1.79,0.15c-0.1,0.01-0.2,0.02-0.3,0.02c-0.29,0.02-0.59,0.05-0.9,0.07
			c-0.06,0.01-0.13,0.01-0.2,0.02c-1.47,0.12-3.08,0.26-4.83,0.4c-1.47,0.12-3.04,0.25-4.7,0.39c-2.17,0.18-4.48,0.37-6.94,0.58
			c-0.32,0.03-0.64,0.05-0.96,0.08c-0.29,0.02-0.58,0.05-0.87,0.07c-1.07,0.09-2.18,0.18-3.3,0.28c-0.95,0.08-1.92,0.16-2.91,0.24
			c-0.25,0.02-0.5,0.04-0.76,0.06c-0.12,0.01-0.25,0.02-0.38,0.03c-0.61,0.05-1.23,0.1-1.86,0.16c-0.4,0.03-0.81,0.07-1.21,0.1
			c-0.43,0.04-0.85,0.07-1.28,0.11c-0.38,0.03-0.76,0.06-1.15,0.1c-0.55,0.05-1.09,0.09-1.65,0.14c-0.15,0.01-0.31,0.03-0.47,0.04
			c-0.69,0.06-1.38,0.12-2.07,0.18c-0.29,0.02-0.58,0.05-0.88,0.07c-0.52,0.04-1.05,0.09-1.57,0.13c-0.35,0.03-0.69,0.06-1.04,0.09
			c-0.77,0.07-1.54,0.13-2.32,0.2c-0.06,0-0.12,0.01-0.17,0.01c-0.63,0.05-1.28,0.11-1.92,0.16c-0.43,0.04-0.86,0.07-1.3,0.11
			c-0.82,0.07-1.64,0.14-2.47,0.21c-0.01,0-0.02,0-0.03,0c-1.88,0.16-3.79,0.32-5.73,0.49c-0.46,0.04-0.93,0.08-1.4,0.12
			c-0.53,0.05-1.05,0.09-1.58,0.14c-0.56,0.05-1.13,0.1-1.7,0.15c-0.34,0.03-0.67,0.06-1.01,0.09c-0.69,0.06-1.38,0.12-2.08,0.18
			c-0.31,0.03-0.63,0.05-0.94,0.08c-0.56,0.05-1.13,0.1-1.7,0.15c-0.52,0.04-1.05,0.09-1.57,0.14c-0.51,0.04-1.01,0.09-1.52,0.13
			c-0.55,0.05-1.11,0.1-1.66,0.14c-0.36,0.03-0.71,0.06-1.07,0.09c-0.89,0.08-1.77,0.15-2.67,0.23c-0.14,0.01-0.27,0.02-0.41,0.04
			c-0.85,0.07-1.71,0.15-2.57,0.22c-0.26,0.02-0.53,0.05-0.79,0.07c-1.76,0.15-3.53,0.31-5.31,0.46c-2.06,0.18-4.13,0.36-6.21,0.54
			c-0.39,0.03-0.77,0.07-1.16,0.1c-0.61,0.05-1.22,0.11-1.83,0.16c-0.48,0.04-0.96,0.08-1.45,0.13c-0.62,0.05-1.24,0.11-1.85,0.16
			c-0.45,0.04-0.9,0.08-1.34,0.12c-0.57,0.05-1.14,0.1-1.71,0.15c-0.6,0.05-1.19,0.11-1.79,0.16c-0.52,0.05-1.04,0.09-1.56,0.14
			c-0.57,0.05-1.14,0.1-1.72,0.15c-0.49,0.04-0.97,0.09-1.46,0.13c-0.61,0.05-1.22,0.11-1.84,0.16c-0.57,0.05-1.14,0.1-1.71,0.15
			c-0.41,0.04-0.83,0.07-1.24,0.11c-0.66,0.06-1.33,0.12-1.99,0.18c-0.86,0.08-1.72,0.15-2.58,0.23c-0.22,0.02-0.44,0.04-0.66,0.06
			c-1.11,0.1-2.22,0.2-3.33,0.3c-0.72,0.06-1.43,0.13-2.15,0.19c-0.33,0.03-0.67,0.06-1,0.09c-0.8,0.07-1.61,0.14-2.41,0.22
			c-0.3,0.03-0.61,0.05-0.91,0.08c-0.69,0.06-1.38,0.12-2.06,0.19c-0.46,0.04-0.92,0.08-1.37,0.12c-0.63,0.06-1.27,0.12-1.9,0.17
			c-0.46,0.04-0.93,0.08-1.39,0.13c-0.61,0.06-1.22,0.11-1.83,0.17c-0.61,0.06-1.22,0.11-1.83,0.17c-0.41,0.04-0.82,0.07-1.23,0.11
			c-0.71,0.07-1.42,0.13-2.13,0.2c-0.48,0.04-0.97,0.09-1.45,0.13c-0.64,0.06-1.27,0.12-1.91,0.18c-0.42,0.04-0.84,0.08-1.27,0.12
			c-0.69,0.06-1.37,0.13-2.06,0.19c-0.48,0.04-0.95,0.09-1.43,0.13c-1.07,0.1-2.13,0.2-3.19,0.3c-0.41,0.04-0.82,0.08-1.23,0.11
			c-55.29,5.14-104.12,10.23-105.72,12.28c-3.25,4.17-9.31,10.77,1.83,18.03C616.5,311.19,813.61,271.09,813.61,271.09z"/>
		<path class="st8" d="M813.61,271.09c0,0-197.11,40.1-235.78,38.69c1.66,1.08,3.68,2.17,6.16,3.28c7.08,3.15,17.35,7.6,27.5,11.97
			c17.33,7.46,34.29,14.67,34.29,14.67s3.65-0.39,9.96-1.12c67.94-11.39,185.53-35.1,185.53-35.1L813.61,271.09z"/>
		<path class="st0" d="M609.03,250.73c0.03,0.15,0.08,0.3,0.14,0.45c0.02,0.05,0.05,0.1,0.07,0.16c0.04,0.1,0.09,0.2,0.14,0.3
			c0.03,0.06,0.07,0.13,0.11,0.19c0.05,0.09,0.1,0.18,0.16,0.27c0.05,0.07,0.1,0.14,0.15,0.21c0.06,0.08,0.12,0.17,0.19,0.25
			c0.06,0.08,0.13,0.15,0.19,0.23c0.07,0.08,0.14,0.16,0.21,0.24c0.07,0.08,0.15,0.16,0.23,0.24c0.08,0.08,0.15,0.15,0.23,0.23
			c0.09,0.08,0.18,0.17,0.27,0.25c0.08,0.07,0.16,0.15,0.25,0.22c0.1,0.09,0.21,0.18,0.31,0.27c0.08,0.07,0.17,0.14,0.26,0.21
			c0.12,0.09,0.24,0.19,0.36,0.28c0.08,0.06,0.17,0.13,0.26,0.19c0.14,0.1,0.28,0.2,0.42,0.3c0.07,0.05,0.15,0.11,0.23,0.16
			c0.16,0.11,0.33,0.23,0.5,0.34c0.05,0.04,0.11,0.07,0.16,0.11c1.17,0.76,2.52,1.54,4.03,2.32c0.01,0,0.01,0.01,0.02,0.01
			l86.87-22.98l133.82,30.63c0.58-0.05,1.03-0.08,1.37-0.11c0.15-0.01,0.28-0.02,0.39-0.03c0.05,0,0.1-0.01,0.14-0.01
			c0.06,0,0.1-0.01,0.14-0.01c0.05,0,0.09-0.01,0.09-0.01l0.38-11.56c-13.74-3.85-137.27-34.25-137.27-34.25
			S606.37,239.01,609.03,250.73z"/>
		<path class="st8" d="M704.79,235.19l-86.87,22.98c0,0,0,0,0,0c0.51,0.26,1.03,0.52,1.57,0.79c0.04,0.02,0.08,0.04,0.12,0.06
			c1.08,0.52,2.21,1.04,3.4,1.57c0.04,0.02,0.09,0.04,0.13,0.06c1.2,0.52,2.45,1.05,3.75,1.57c0.04,0.02,0.08,0.03,0.13,0.05
			c1.31,0.53,2.66,1.05,4.04,1.57c0.04,0.01,0.08,0.03,0.12,0.04c1.4,0.52,2.83,1.05,4.29,1.56c0.03,0.01,0.05,0.02,0.08,0.03
			c1.48,0.52,2.98,1.04,4.51,1.55c0.01,0,0.02,0.01,0.03,0.01c0.76,0.26,1.53,0.51,2.31,0.77c0.01,0,0.01,0,0.02,0.01
			c1.54,0.51,3.1,1.01,4.66,1.5c0.03,0.01,0.05,0.02,0.08,0.02c1.54,0.48,3.08,0.96,4.61,1.43c0.05,0.01,0.09,0.03,0.14,0.04
			c1.51,0.46,3.01,0.91,4.5,1.35c0.06,0.02,0.13,0.04,0.19,0.06c1.48,0.43,2.93,0.86,4.37,1.27c0.06,0.02,0.13,0.04,0.19,0.05
			c1.43,0.41,2.83,0.8,4.2,1.18c0.07,0.02,0.13,0.04,0.2,0.05c0.68,0.19,1.35,0.37,2.01,0.56c0.03,0.01,0.07,0.02,0.1,0.03
			c0.63,0.17,1.25,0.34,1.85,0.51c0.07,0.02,0.14,0.04,0.21,0.06c0.62,0.17,1.22,0.33,1.82,0.49c0.09,0.02,0.18,0.05,0.27,0.07
			c0.54,0.14,1.07,0.29,1.59,0.42c0.07,0.02,0.13,0.04,0.2,0.05c0.57,0.15,1.12,0.3,1.67,0.44c0.09,0.02,0.17,0.04,0.25,0.07
			c0.5,0.13,0.98,0.26,1.45,0.38c0.05,0.01,0.11,0.03,0.16,0.04c0.49,0.13,0.97,0.25,1.44,0.37c0.11,0.03,0.23,0.06,0.34,0.09
			c0.42,0.11,0.82,0.21,1.22,0.31c0.04,0.01,0.09,0.02,0.14,0.03c0.44,0.11,0.85,0.22,1.26,0.32c0.09,0.02,0.17,0.04,0.25,0.06
			c0.4,0.1,0.78,0.2,1.15,0.29c1.06-0.1,2.13-0.2,3.19-0.3c0.48-0.04,0.95-0.09,1.43-0.13c0.69-0.06,1.37-0.13,2.06-0.19
			c0.42-0.04,0.84-0.08,1.27-0.12c0.63-0.06,1.27-0.12,1.91-0.18c0.48-0.04,0.97-0.09,1.45-0.13c0.71-0.07,1.42-0.13,2.13-0.2
			c0.41-0.04,0.82-0.07,1.23-0.11c0.61-0.06,1.22-0.11,1.83-0.17c0.61-0.06,1.22-0.11,1.83-0.17c0.46-0.04,0.93-0.08,1.39-0.13
			c0.63-0.06,1.27-0.12,1.9-0.17c0.46-0.04,0.92-0.08,1.37-0.12c0.69-0.06,1.38-0.12,2.06-0.19c0.3-0.03,0.61-0.05,0.91-0.08
			c0.8-0.07,1.61-0.14,2.41-0.22c0.33-0.03,0.67-0.06,1-0.09c0.72-0.06,1.43-0.13,2.15-0.19c1.11-0.1,2.22-0.2,3.33-0.3
			c0.22-0.02,0.44-0.04,0.66-0.06c0.86-0.08,1.72-0.15,2.58-0.23c0.66-0.06,1.33-0.12,1.99-0.18c0.41-0.04,0.83-0.07,1.24-0.11
			c0.57-0.05,1.14-0.1,1.71-0.15c0.61-0.05,1.22-0.11,1.84-0.16c0.49-0.04,0.97-0.09,1.46-0.13c0.57-0.05,1.15-0.1,1.72-0.15
			c0.52-0.05,1.04-0.09,1.56-0.14c0.6-0.05,1.2-0.11,1.79-0.16c0.57-0.05,1.14-0.1,1.71-0.15c0.45-0.04,0.9-0.08,1.34-0.12
			c0.62-0.05,1.24-0.11,1.85-0.16c0.48-0.04,0.97-0.08,1.45-0.13c0.61-0.05,1.22-0.11,1.83-0.16c0.39-0.03,0.77-0.07,1.16-0.1
			c2.08-0.18,4.16-0.36,6.21-0.54c1.78-0.16,3.55-0.31,5.31-0.46c0.26-0.02,0.53-0.05,0.79-0.07c0.86-0.07,1.72-0.15,2.57-0.22
			c0.14-0.01,0.27-0.02,0.41-0.04c0.89-0.08,1.78-0.15,2.67-0.23c0.36-0.03,0.71-0.06,1.07-0.09c0.56-0.05,1.11-0.1,1.66-0.14
			c0.51-0.04,1.01-0.09,1.52-0.13c0.53-0.05,1.05-0.09,1.57-0.14c0.57-0.05,1.13-0.1,1.7-0.15c0.31-0.03,0.63-0.05,0.94-0.08
			c0.7-0.06,1.39-0.12,2.08-0.18c0.34-0.03,0.68-0.06,1.01-0.09c0.57-0.05,1.14-0.1,1.7-0.15c0.53-0.05,1.05-0.09,1.58-0.14
			c0.47-0.04,0.93-0.08,1.4-0.12c1.94-0.17,3.85-0.33,5.73-0.49c0.01,0,0.02,0,0.03,0c0.83-0.07,1.65-0.14,2.47-0.21
			c0.44-0.04,0.87-0.07,1.3-0.11c0.64-0.05,1.28-0.11,1.92-0.16c0.06,0,0.12-0.01,0.17-0.01c0.78-0.07,1.55-0.13,2.32-0.2
			c0.35-0.03,0.7-0.06,1.04-0.09c0.53-0.04,1.05-0.09,1.57-0.13c0.29-0.02,0.59-0.05,0.88-0.07c0.7-0.06,1.39-0.12,2.07-0.18
			c0.16-0.01,0.31-0.03,0.47-0.04c0.55-0.05,1.1-0.09,1.65-0.14c0.38-0.03,0.77-0.06,1.15-0.1c0.43-0.04,0.86-0.07,1.28-0.11
			c0.4-0.03,0.81-0.07,1.21-0.1c0.63-0.05,1.25-0.1,1.86-0.16c0.12-0.01,0.25-0.02,0.38-0.03c0.26-0.02,0.51-0.04,0.76-0.06
			c0.99-0.08,1.95-0.16,2.91-0.24c1.12-0.09,2.23-0.19,3.3-0.28c0.29-0.02,0.58-0.05,0.87-0.07c0.32-0.03,0.64-0.05,0.96-0.08
			c2.46-0.21,4.78-0.4,6.94-0.58c1.66-0.14,3.23-0.27,4.7-0.39c1.75-0.15,3.36-0.28,4.83-0.4c0.07-0.01,0.13-0.01,0.2-0.02
			c0.31-0.03,0.6-0.05,0.9-0.07c0.1-0.01,0.2-0.02,0.3-0.02c0.63-0.05,1.23-0.1,1.79-0.15c0.33-0.03,0.65-0.05,0.95-0.08
			c1.56-0.13,2.84-0.23,3.8-0.31L704.79,235.19z"/>
		<path class="st2" d="M774.9,227.9c-0.56-2.8-43.75-6.73-43.75-6.73l-5.05,3.93l44.87,11.22
			C770.98,236.31,775.46,230.7,774.9,227.9z"/>
		<polygon class="st3" points="770.42,147.13 719.93,132.54 712.08,139.83 724.73,144.46 764.9,157.65 		"/>
		<path class="st7" d="M840.96,191.04c-0.12-4.57-0.22-8.49-0.22-8.49l-75.84-24.9l-40.17-13.19l9.33,3.41
			c-20.68-6.97-36.08-12.19-36.08-12.19s-40.13,11.47-69.41,33.66c-0.81,0.62-1.62,1.24-2.41,1.87
			c-5.58,4.44-10.69,9.28-14.97,14.53c-3.43,4.22-3.36,10.44,0.46,14.32c1.31,1.32,2.78,2,4.3,1.14
			c3.73-2.13,78.83-38.88,78.83-38.88l146.48,42.61C841.27,203.73,841.11,196.85,840.96,191.04z"/>
		<polygon class="st2" points="807.44,338.4 804.07,331.67 733.96,345.13 736.2,353.54 		"/>
		<path class="st0" d="M709.29,474.36l117.97-0.52c8.61-0.23,14.02-0.55,14.02-0.98c0-0.57,0-12.87,0-30.59
			C790.78,446.06,709.3,455.16,709.29,474.36z"/>
		<path class="st8" d="M157.3,446.74c-4.45-1.54-8.43-3.14-11.86-4.77c-5.4,4.52-11.23,9.47-11.78,10.29l1.25,0.35
			C138.63,448.87,148.44,447.31,157.3,446.74z"/>
		<path class="st0" d="M354.54,460l-0.79-2.21c-1.69,1.59-3.9,2.84-5.85,3.73c-2.5,1.15-4.57,1.73-4.57,1.73
			c-23.51,9.9-102.82,3.82-157.37-8.57c-10.71-2.43-20.47-5.11-28.66-7.95c-8.86,0.57-18.67,2.13-22.39,5.87
			c-0.93,0.93-1.49,1.99-1.55,3.21c-0.53,10.65,1.07,14.38,12.25,15.45c11.19,1.07,195.11,4.41,195.11,4.41l11.34-0.04
			c3.3-3.43,7.22-7.39,11.47-11.45c1.17-1.12,2.37-2.24,3.58-3.37c0.05-0.98,0.14-2.21,0.26-3.63L354.54,460z"/>
		<path class="st7" d="M502.79,363.27c0,0-2.54,0.98-6.88,2.66c-3.86,1.49-9.15,3.54-15.35,5.95
			c-22.35,8.67-56.49,21.94-77.87,30.44l-5.77,11.28l-2.88,3.52l-3,3.66c0,0,0,14.38-10.46,14.38c-1.24,0-4.96-0.08-10.59-0.25
			c-1.08-0.03-2.22-0.07-3.43-0.11c-2.05,0.62-3.62,1.02-3.62,1.02s-0.36,0.76-0.91,2c-1.56,3.5-4.66,10.82-5.63,15.64
			c-0.33,1.66-1.34,3.1-2.65,4.34l0.79,2.21l12.84-2.82l4.98-1.09l45.66-10.02l59.3-51.58l11.09-9.65l16.34-13.72L502.79,363.27z"/>
		<polygon class="st8" points="487.75,434.67 489.23,440.39 484.91,441.84 384.84,475.51 484.03,475.16 496.48,450.53 
			503.17,437.29 		"/>
		<path class="st0" d="M487.75,434.67l-3.88-14.94l-6.56-25.25l-59.3,51.58l-45.66,10.02c-1.77,1.55-3.53,3.14-5.24,4.72
			c-0.06,1.33-0.04,2.2,0.08,2.46c0.28,0.56-1.26,0.83-3.67,0.91c-4.25,4.06-8.17,8.02-11.47,11.45l13.1-0.05l19.67-0.07
			l100.07-33.67l4.33-1.46L487.75,434.67z"/>
		<path class="st3" d="M160.19,247.2l-10.72,0.38c-49.02,4.23-143.03,5.32-150.06,5.4v0.05l159.13,15.67l19.02,4.96
			c0,0,2.05,0.66,4.95,1.78l27.3-11.7L160.19,247.2z"/>
		<path class="st8" d="M145.77,205.89c-1.32,0.01-2.11-0.03-2.11-0.03c-17.74,0.74-116.11-11.74-139.11-14.39l-4.75-0.49
			l-0.39,29.41v32.6c7.03-0.08,101.04-1.17,150.06-5.4c14.22-1.23,24.65-2.71,28.08-4.52C192.71,235.08,165.52,207.09,145.77,205.89
			z"/>
		<path class="st8" d="M146.14,301.76c0,0-3.96-0.09-10.57-0.24c-52.82,1.29-123.23-0.91-136.15-1.34v35.71
			c22.15-2.81,154.17-3.54,154.17-3.54s1.05,0.11,2.77,0.33c1.5-0.36,2.8-0.74,3.85-1.15C183.34,322.43,146.14,301.76,146.14,301.76
			z"/>
		<path class="st0" d="M182.5,275.43c-2.9-1.12-4.95-1.78-4.95-1.78l-19.02-4.96L-0.59,253.03v47.15
			c12.93,0.43,83.33,2.63,136.15,1.34c24.99-0.61,46.05-2,55.22-4.72C214.76,289.67,193.02,279.5,182.5,275.43z"/>
		<path class="st7" d="M174.25,364.59c-8.27,4.96-151.29,62.83-151.29,62.83l-23.54-7.85v10.33H33.7l93.42-33.07l32.22-7.96
			c4.45-4.47,10.76-9.49,16.55-15.09L174.25,364.59z"/>
		<path class="st8" d="M187.48,343.1c-1.36-6.1-23.29-9.42-31.13-10.42c-1.72-0.22-2.77-0.33-2.77-0.33s-132.02,0.73-154.17,3.54
			v81.21c1.45-6.77,2.87-13.65,2.87-13.65l171.96-38.86C187.48,361.29,189.13,350.54,187.48,343.1z"/>
		<path class="st7" d="M2.28,403.45c0,0-1.42,6.88-2.87,13.65v2.48l23.54,7.85c0,0,143.03-57.87,151.29-62.83L2.28,403.45z"/>
		<path class="st3" d="M367.44,415.86c-47.88-4.72-175.78-20.37-198.68-23.18c-2.33-0.29-4.69-0.04-6.91,0.72l-4.76,1.63
			c-2.74,0.94-5.18,2.6-6.99,4.86c-0.49,0.61-0.78,1.05-0.85,1.28c-0.81,2.96,0.49,5.7,2.3,7.9c0.2,0.24,0.4,0.47,0.6,0.69
			c2.5,2.74,5.59,4.48,5.59,4.48c5.08,2.92,16.23,5.5,30.95,7.75l165.48,15.68l7.86,0.14c0.55-1.24,0.91-2,0.91-2
			s1.57-0.39,3.62-1.02c1.21,0.04,2.36,0.07,3.43,0.11c5.63,0.17,9.35,0.25,10.59,0.25c10.46,0,10.46-14.38,10.46-14.38l3-3.66
			C390.84,417.77,381.14,417.21,367.44,415.86z"/>
		<path class="st0" d="M127.12,396.84L33.7,429.91H-0.59v2.26c7.05,3.39,24.37,8.49,24.37,8.49l125.98-43.12
			c1.67-2.34,8.83-7.97,9.15-8.3L127.12,396.84z"/>
		<path class="st3" d="M413.82,355.96l-50.2-6.04l-45.39-5.46l-34.79-4.18l-64.27-7.73c0,0-0.39,0.36-1.08,1.02
			c-4.82,4.53-24.94,23.49-42.2,40.21c-5.78,5.6-24.47,21.41-26.13,23.75c-3.26,4.59-1.5,8.65,1.19,11.61
			c0.2-0.03,0.4-0.06,0.6-0.08c-1.81-2.2-3.11-4.94-2.3-7.9c0.05-0.18,0.25-0.5,0.57-0.93c1.86-2.45,4.45-4.24,7.36-5.24l4.6-1.57
			c2.27-0.78,4.67-1.03,7.05-0.74c23.09,2.84,150.78,18.46,198.61,23.17c13.7,1.35,23.4,1.91,26.6,1.25l2.88-3.52l5.77-11.28
			l13.18-25.77l9.8-19.15L413.82,355.96z"/>
		<path class="st8" d="M132.6,421.09c-12.34,2.95-117.12,27.68-133.18,31.48v16.65c5.08,1.07,18.31,3.68,26.85,3.68
			c9.24,0,83.8-31.14,106.17-40.95c-0.36-0.74-0.59-1.49-0.67-2.24C131.41,426.33,131.75,423.49,132.6,421.09z"/>
		<path class="st8" d="M354.17,437.67l-165.48-15.68c-14.72-2.25-25.87-4.83-30.95-7.75c0,0-3.23-1.58-5.98-4.24
			c-0.28-0.27-0.55-0.55-0.82-0.84c-7.4,1.09-15.36,4.08-18.22,11.57l0.2,0.29c-0.1,0.02-0.22,0.05-0.33,0.08
			c-0.85,2.4-1.19,5.24-0.84,8.62c0.08,0.75,0.31,1.5,0.67,2.24c1.67,3.43,6.25,6.8,13.01,10.02c3.43,1.63,7.42,3.22,11.86,4.77
			c8.19,2.84,17.95,5.52,28.66,7.95c54.55,12.38,133.86,18.46,157.37,8.57c0,0,2.07-0.58,4.57-1.73c1.95-0.9,4.16-2.14,5.85-3.73
			c1.31-1.24,2.32-2.68,2.65-4.34c0.97-4.83,4.07-12.15,5.63-15.64L354.17,437.67z"/>
		<path class="st0" d="M149.76,397.54L23.78,440.66c0,0-17.32-5.09-24.37-8.49v20.39c16.07-3.79,120.84-28.52,133.18-31.48
			c0.04-0.12,0.08-0.25,0.13-0.37c2.86-7.49,10.82-10.47,18.22-11.57C148.25,406.19,146.49,402.13,149.76,397.54z"/>
		<path class="st0" d="M143.66,205.86c0,0,0.79,0.03,2.11,0.03C145.06,205.84,144.35,205.83,143.66,205.86z"/>
		<path class="st3" d="M171.77,185.19c-3.48-6.26-18.55-12.66-38.45-18.86C84.28,151.07,5.92,137-0.59,129.07v43.52
			c0.21,10.36,0.39,18.39,0.39,18.39c0.35,0,2.03,0.18,4.75,0.49c22.99,2.65,121.36,15.13,139.11,14.39
			c0.69-0.03,1.4-0.02,2.11,0.03C153.93,205.85,182.44,204.4,171.77,185.19z"/>
		<path class="st3" d="M576.01,420.87c0,0-34.54-10.3-62.41-14.54c-8.89,2.47-19.78,9.76-23.51,12.38c2.47-0.14,4.3,0,4.3,0
			c14.45,3.61,74.31,28.38,78.44,27.35c3.8-0.95,90.41-28.63,104-32.97l-1.62-8.49l-5.14-13.23L576.01,420.87z"/>
		<path class="st8" d="M841.27,384.53c0-9.23,0-18.4,0-27.07c-73.58,11.6-176.49,19.89-176.49,19.89l-2.98,0.91l2.4,2.66l3.49,6.2
			l2.4,4.26l5.14,13.23l3.12,8.02c0.19-0.06,0.29-0.09,0.29-0.09l13.16,29.09l17.5,32.75c0.01-19.2,81.49-28.3,131.98-32.1
			c0-7.51,0-15.99,0-24.97c-37.13,7.85-84.24,16.65-118.18,18.95c-34.75,2.36-40.64-5.89-37.1-18.26
			C688.41,409.5,781.76,393.53,841.27,384.53z"/>
		<path class="st0" d="M691.79,441.61l-7.99-14.95l-5.46-14.04c-0.29,0.09-0.8,0.26-1.5,0.48c-13.59,4.35-100.2,32.02-104,32.97
			c-4.13,1.03-63.99-23.74-78.44-27.35c0,0-1.83-0.15-4.3,0c-1.88,0.11-4.12,0.39-6.22,1.02l3.88,14.94l15.42,2.62l-6.69,13.23
			c18.39,11.72,44.72,21.98,51.16,24.41l95.13-0.34l55.47-18.73L691.79,441.61z"/>
		<polygon class="st7" points="851.14,26.64 783.64,7.12 617.61,78.91 624.34,86.77 617.61,91.81 623.22,97.98 775.62,60.14 
			854.45,94.08 		"/>
		<path class="st8" d="M97.6,38.37C69.28,32.62,25.15,10.94,0.24-2.11v52.72c34.81,8.6,116.94,30.06,154.41,42.18
			C159.68,88.32,168.02,52.65,97.6,38.37z"/>
		<path class="st8" d="M172.71,99.62c-2.54-1.52-8.99-3.91-18.05-6.84C117.18,80.67,35.06,59.21,0.24,50.61v51.9l33.44-14.07
			l146.48,49.54C202.54,130.52,188.69,109.21,172.71,99.62z"/>
		<path class="st8" d="M33.68,88.44c0,0-14.56,6.35-33.44,14.51v26.33c10.68,2.64,121.34,30.01,122.58,29.65
			c15.35-4.49,57.34-20.95,57.34-20.95C177.31,138.93,33.68,88.44,33.68,88.44z"/>
		<polygon class="st7" points="0.37,11.2 120.88,56.4 119.91,64.17 144.69,69.52 134,87.98 0.24,50.61 		"/>
		<line class="st7" x1="119.91" y1="64.17" x2="0.86" y2="30.16"/>
		<path class="st7" d="M-1.09,60.28c1.46,0.49,178.33,50.54,178.33,50.54l-4.86,4.37l6.8,2.92l-9.23,5.35l6.32,4.37l-10.2,6.8
			L33.68,88.44L0.24,102.95L-1.09,60.28z"/>
		<path class="st7" d="M0.7,145.1c3.07,0.61,157.21,35,157.21,35l-6.76,5.53l9.83,4.3l-11.67,6.14c0,0,6.45,4.49,2.46,6.14
			c-3.99,1.65-149.96-13.26-149.96-13.26L0.7,145.1z"/>
		<polygon class="st7" points="160.36,223.71 172.64,232.92 159.13,234.76 162.2,239.67 1.31,244.58 3.77,214.49 		"/>
		<g>
			<polygon class="st7" points="158.51,347.43 3.48,391.22 177.14,351.62 			"/>
			<polygon class="st7" points="142.31,331.06 2.33,381.97 177.02,342.63 			"/>
		</g>
		<polygon class="st7" points="159.77,343.85 156.62,353.82 3.48,391.22 3.85,332.3 142.31,331.06 		"/>
	</g>
	<g>
		<path class="st4" d="M659.98,268.44c-1.43-0.41-2.89-0.83-4.37-1.27C657.08,267.61,658.54,268.03,659.98,268.44z"/>
		<path class="st4" d="M681.95,274.33c-0.36-0.09-0.75-0.19-1.15-0.29C681.2,274.14,681.59,274.24,681.95,274.33z"/>
		<path class="st4" d="M680.55,273.97c-0.4-0.1-0.82-0.21-1.26-0.32C679.73,273.77,680.15,273.87,680.55,273.97z"/>
		<path class="st4" d="M674.29,272.36c-0.54-0.14-1.1-0.29-1.67-0.44C673.19,272.07,673.75,272.22,674.29,272.36z"/>
		<path class="st4" d="M679.16,273.62c-0.39-0.1-0.8-0.2-1.22-0.31C678.36,273.41,678.77,273.52,679.16,273.62z"/>
		<path class="st4" d="M676,272.8c-0.47-0.12-0.96-0.25-1.45-0.38C675.04,272.55,675.53,272.68,676,272.8z"/>
		<path class="st4" d="M666.58,270.29c-0.66-0.18-1.33-0.37-2.01-0.56C665.25,269.92,665.92,270.1,666.58,270.29z"/>
		<path class="st4" d="M664.37,269.68c-1.37-0.38-2.77-0.78-4.2-1.18C661.6,268.9,663,269.29,664.37,269.68z"/>
		<path class="st4" d="M672.43,271.87c-0.52-0.14-1.05-0.28-1.59-0.42C671.38,271.59,671.91,271.73,672.43,271.87z"/>
		<path class="st4" d="M668.53,270.82c-0.61-0.17-1.23-0.33-1.85-0.51C667.31,270.49,667.92,270.65,668.53,270.82z"/>
		<path class="st4" d="M677.6,273.22c-0.47-0.12-0.95-0.24-1.44-0.37C676.66,272.98,677.14,273.1,677.6,273.22z"/>
		<path class="st4" d="M701.66,272.52c-0.46,0.04-0.93,0.08-1.39,0.13C700.73,272.6,701.19,272.56,701.66,272.52z"/>
		<path class="st4" d="M704.94,272.22c-0.46,0.04-0.92,0.08-1.37,0.12C704.02,272.3,704.48,272.26,704.94,272.22z"/>
		<path class="st4" d="M685.15,274.03c-1.07,0.1-2.13,0.2-3.19,0.3C683.01,274.23,684.08,274.13,685.15,274.03z"/>
		<path class="st4" d="M711.32,271.64c-0.33,0.03-0.67,0.06-1,0.09C710.65,271.7,710.98,271.67,711.32,271.64z"/>
		<path class="st4" d="M716.79,271.15c-1.11,0.1-2.22,0.2-3.33,0.3C714.57,271.35,715.68,271.25,716.79,271.15z"/>
		<path class="st4" d="M707.91,271.95c-0.3,0.03-0.61,0.05-0.91,0.08C707.3,272.01,707.61,271.98,707.91,271.95z"/>
		<path class="st4" d="M698.44,272.81c-0.61,0.06-1.22,0.11-1.83,0.17C697.22,272.92,697.83,272.87,698.44,272.81z"/>
		<path class="st4" d="M688.63,273.71c-0.69,0.06-1.37,0.13-2.06,0.19C687.26,273.84,687.94,273.77,688.63,273.71z"/>
		<path class="st4" d="M691.8,273.42c-0.64,0.06-1.27,0.12-1.91,0.18C690.53,273.53,691.17,273.48,691.8,273.42z"/>
		<path class="st4" d="M695.38,273.09c-0.71,0.06-1.42,0.13-2.13,0.2C693.96,273.22,694.67,273.15,695.38,273.09z"/>
		<path class="st4" d="M670.56,271.37c-0.59-0.16-1.2-0.32-1.82-0.49C669.36,271.04,669.97,271.21,670.56,271.37z"/>
		<path class="st4" d="M610.69,249.22c-0.11-0.09-0.21-0.18-0.31-0.27C610.48,249.05,610.58,249.13,610.69,249.22z"/>
		<path class="st4" d="M655.42,267.12c-1.49-0.44-2.99-0.89-4.5-1.35C652.42,266.23,653.93,266.68,655.42,267.12z"/>
		<path class="st4" d="M611.98,250.21c-0.14-0.1-0.28-0.2-0.42-0.3C611.7,250.01,611.84,250.11,611.98,250.21z"/>
		<path class="st4" d="M609.62,248.25c-0.08-0.08-0.16-0.16-0.23-0.24C609.47,248.09,609.54,248.17,609.62,248.25z"/>
		<path class="st4" d="M611.31,249.71c-0.12-0.09-0.24-0.19-0.36-0.28C611.06,249.53,611.18,249.62,611.31,249.71z"/>
		<path class="st4" d="M610.13,248.74c-0.09-0.08-0.18-0.17-0.27-0.25C609.94,248.57,610.03,248.65,610.13,248.74z"/>
		<path class="st4" d="M608.49,246.81c-0.04-0.06-0.08-0.13-0.11-0.19C608.41,246.68,608.45,246.74,608.49,246.81z"/>
		<path class="st4" d="M608.24,246.31c-0.02-0.05-0.05-0.1-0.07-0.16C608.19,246.21,608.22,246.26,608.24,246.31z"/>
		<path class="st4" d="M608.8,247.29c-0.05-0.07-0.1-0.14-0.15-0.21C608.7,247.15,608.75,247.22,608.8,247.29z"/>
		<path class="st4" d="M609.18,247.77c-0.06-0.08-0.13-0.15-0.19-0.23C609.05,247.62,609.12,247.69,609.18,247.77z"/>
		<path class="st4" d="M612.71,250.71c-0.17-0.11-0.34-0.23-0.5-0.34C612.38,250.48,612.54,250.59,612.71,250.71z"/>
		<path class="st4" d="M641.41,262.77c-0.77-0.25-1.54-0.51-2.31-0.77C639.87,262.26,640.64,262.52,641.41,262.77z"/>
		<path class="st4" d="M639.07,262c-1.52-0.51-3.03-1.03-4.51-1.55C636.04,260.97,637.55,261.48,639.07,262z"/>
		<path class="st4" d="M634.48,260.41c-1.46-0.52-2.9-1.04-4.29-1.56C631.59,259.37,633.02,259.9,634.48,260.41z"/>
		<path class="st4" d="M646.09,264.28c-1.56-0.49-3.11-0.99-4.66-1.5C642.97,263.29,644.53,263.79,646.09,264.28z"/>
		<path class="st4" d="M650.77,265.73c-1.53-0.47-3.07-0.94-4.61-1.43C647.7,264.79,649.24,265.26,650.77,265.73z"/>
		<path class="st4" d="M630.07,258.8c-1.39-0.52-2.74-1.05-4.04-1.57C627.33,257.76,628.68,258.28,630.07,258.8z"/>
		<path class="st4" d="M616.91,253.13c-1.51-0.78-2.86-1.55-4.03-2.32C614.05,251.58,615.4,252.35,616.91,253.13z"/>
		<path class="st4" d="M618.5,253.93c-0.54-0.26-1.06-0.52-1.57-0.79C617.43,253.4,617.96,253.66,618.5,253.93z"/>
		<path class="st4" d="M622.02,255.55c-1.19-0.52-2.33-1.05-3.4-1.57C619.7,254.51,620.83,255.03,622.02,255.55z"/>
		<path class="st4" d="M625.9,257.18c-1.3-0.52-2.55-1.05-3.75-1.57C623.35,256.13,624.6,256.66,625.9,257.18z"/>
		<path class="st4" d="M796.41,264.24c-0.69,0.06-1.38,0.12-2.07,0.18C795.03,264.35,795.73,264.29,796.41,264.24z"/>
		<path class="st4" d="M788.35,264.92c-0.64,0.05-1.28,0.11-1.92,0.16C787.07,265.03,787.71,264.97,788.35,264.92z"/>
		<path class="st4" d="M811.37,262.98c-1.08,0.09-2.18,0.18-3.3,0.28C809.19,263.16,810.3,263.07,811.37,262.98z"/>
		<path class="st4" d="M813.2,262.82c-0.32,0.03-0.64,0.05-0.96,0.08C812.56,262.88,812.89,262.85,813.2,262.82z"/>
		<path class="st4" d="M804.02,263.59c-0.62,0.05-1.23,0.1-1.86,0.16C802.79,263.7,803.41,263.65,804.02,263.59z"/>
		<path class="st4" d="M798.52,264.06c-0.54,0.05-1.09,0.09-1.65,0.14C797.43,264.15,797.98,264.1,798.52,264.06z"/>
		<path class="st4" d="M790.84,264.71c-0.77,0.07-1.54,0.13-2.32,0.2C789.3,264.84,790.07,264.77,790.84,264.71z"/>
		<path class="st4" d="M793.46,264.49c-0.52,0.04-1.05,0.09-1.57,0.13C792.41,264.57,792.94,264.53,793.46,264.49z"/>
		<path class="st4" d="M800.95,263.85c-0.43,0.04-0.85,0.07-1.28,0.11C800.1,263.92,800.53,263.89,800.95,263.85z"/>
		<path class="st4" d="M824.84,261.85c-1.47,0.12-3.04,0.25-4.7,0.39C821.81,262.1,823.37,261.97,824.84,261.85z"/>
		<path class="st4" d="M805.16,263.5c-0.25,0.02-0.5,0.04-0.76,0.06C804.66,263.54,804.91,263.52,805.16,263.5z"/>
		<path class="st4" d="M839.65,260.63c-0.03,0-0.08,0.01-0.14,0.01C839.57,260.64,839.62,260.63,839.65,260.63z"/>
		<path class="st4" d="M720.03,270.86c-0.86,0.08-1.72,0.15-2.58,0.23C718.31,271.02,719.17,270.94,720.03,270.86z"/>
		<path class="st4" d="M833.81,261.11c-0.31,0.03-0.62,0.05-0.95,0.08C833.19,261.16,833.5,261.13,833.81,261.11z"/>
		<path class="st4" d="M831.07,261.34c-0.1,0.01-0.2,0.02-0.3,0.02C830.87,261.35,830.97,261.34,831.07,261.34z"/>
		<path class="st4" d="M839.37,260.65c-0.11,0.01-0.24,0.02-0.39,0.03C839.14,260.67,839.27,260.66,839.37,260.65z"/>
		<path class="st4" d="M829.87,261.43c-0.07,0.01-0.13,0.01-0.2,0.02C829.74,261.45,829.81,261.44,829.87,261.43z"/>
		<path class="st4" d="M723.26,270.58c-0.41,0.04-0.83,0.07-1.24,0.11C722.44,270.65,722.85,270.61,723.26,270.58z"/>
		<path class="st4" d="M754.22,267.85c-1.76,0.15-3.53,0.31-5.31,0.46C750.69,268.16,752.46,268.01,754.22,267.85z"/>
		<path class="st4" d="M785.12,265.19c-0.82,0.07-1.64,0.14-2.47,0.21C783.48,265.33,784.31,265.26,785.12,265.19z"/>
		<path class="st4" d="M757.58,267.56c-0.85,0.07-1.71,0.15-2.57,0.22C755.87,267.71,756.73,267.64,757.58,267.56z"/>
		<path class="st4" d="M739.7,269.12c-0.48,0.04-0.96,0.08-1.45,0.13C738.73,269.21,739.21,269.17,739.7,269.12z"/>
		<path class="st4" d="M763.39,267.06c-0.55,0.05-1.11,0.1-1.66,0.14C762.28,267.15,762.84,267.11,763.39,267.06z"/>
		<path class="st4" d="M760.65,267.3c-0.89,0.08-1.77,0.15-2.67,0.23C758.88,267.45,759.77,267.37,760.65,267.3z"/>
		<path class="st4" d="M736.39,269.41c-0.45,0.04-0.9,0.08-1.34,0.12C735.5,269.49,735.95,269.45,736.39,269.41z"/>
		<path class="st4" d="M726.81,270.26c-0.61,0.05-1.22,0.11-1.84,0.16C725.58,270.37,726.2,270.32,726.81,270.26z"/>
		<path class="st4" d="M729.98,269.98c-0.57,0.05-1.14,0.1-1.72,0.15C728.84,270.08,729.41,270.03,729.98,269.98z"/>
		<path class="st4" d="M733.34,269.68c-0.6,0.05-1.19,0.11-1.79,0.16C732.15,269.79,732.74,269.74,733.34,269.68z"/>
		<path class="st4" d="M742.69,268.86c-0.39,0.03-0.77,0.07-1.16,0.1C741.92,268.93,742.31,268.89,742.69,268.86z"/>
		<path class="st4" d="M772.21,266.3c-0.34,0.03-0.67,0.06-1.01,0.09C771.53,266.36,771.87,266.33,772.21,266.3z"/>
		<path class="st4" d="M769.11,266.57c-0.31,0.03-0.63,0.05-0.94,0.08C768.49,266.62,768.8,266.59,769.11,266.57z"/>
		<path class="st4" d="M775.49,266.02c-0.53,0.05-1.05,0.09-1.58,0.14C774.44,266.11,774.97,266.06,775.49,266.02z"/>
		<path class="st4" d="M782.62,265.41c-1.88,0.16-3.79,0.32-5.73,0.49C778.83,265.73,780.74,265.57,782.62,265.41z"/>
		<path class="st4" d="M766.48,266.79c-0.52,0.05-1.05,0.09-1.57,0.14C765.43,266.88,765.96,266.84,766.48,266.79z"/>
		<path class="st4" d="M614.95,196.17l78.83-38.88C693.79,157.28,618.68,194.04,614.95,196.17z"/>
		<path class="st5" d="M840.4,81.83V61.86c-8.99-3.7-56.96-22.41-56.96-22.41l-86.94,35.9l86.94-35.9c0,0,47.96,18.71,56.96,22.41
			V35.43c-4.16-1.56-50.79-20.1-50.79-20.1l-175,73.48l5.61,6.17l-5.61-6.17l175-73.48c0,0,46.62,18.54,50.79,20.1V10.61
			c-7.06-2.92-65.11-12.59-65.11-12.59s-74.85,42.23-116.12,50.6c-70.42,14.28-62.08,49.95-57.05,54.42
			c47.98-15.51,169.17-46.35,170.51-45.9C774.11,57.64,832.31,78.88,840.4,81.83z M780.64,4.12l58.33,16.83L780.64,4.12
			l-166.03,71.8l6.73,7.85l-6.73-7.85L780.64,4.12z"/>
		<path class="st5" d="M840.4,148.06v-11.44c-10.41-4.93-112.49-42.75-112.49-42.75l-149.2,45.43l8.97,4.49l-8.97-4.49l149.2-45.43
			c0,0,102.07,37.82,112.49,42.75V81.83c-8.09-2.95-66.28-24.2-67.77-24.69c-1.34-0.45-122.53,30.38-170.51,45.9
			c-9.06,2.93-15.52,5.31-18.05,6.84c-15.98,9.59-29.83,30.89-7.46,38.35l146.48-49.54L840.4,148.06z M720.62,82.08
			c0,0,113.3,35.34,116.11,37.02C833.92,117.42,720.62,82.08,720.62,82.08S582.63,124.15,586,123.59c3.37-0.56,6.17,5.61,6.17,5.61
			s-2.8-6.17-6.17-5.61C582.63,124.15,720.62,82.08,720.62,82.08z M732.96,88.25l106.57,40.95L732.96,88.25l-148.64,45.43l3.93,2.24
			l-3.93-2.24L732.96,88.25z"/>
		<path class="st5" d="M723.09,98.69L576.6,148.23C579.46,149.18,723.09,98.69,723.09,98.69z"/>
		<path class="st5" d="M840.4,148.22v-0.16L723.09,98.69C723.09,98.69,832.84,146.58,840.4,148.22z"/>
		<path class="st5" d="M839.96,186.01c0.16-0.38,0.3-0.93,0.44-1.59v-20.68l-0.17-0.06c-0.25,6.65-0.48,13.09-0.48,13.84
			C839.74,177.53,839.84,181.44,839.96,186.01z"/>
		<path class="st5" d="M723.74,139.43l-12.65-4.63l7.85-7.29l50.48,14.58l-5.51,10.52l75.84,24.9c0-0.75,0.23-7.19,0.48-13.84
			c0.06-1.56,0.12-3.13,0.17-4.65v-10.82c-7.55-1.64-117.31-49.53-117.31-49.53s-143.63,50.49-146.48,49.54
			c0,0,32.12,10.6,47.47,15.09c1.3,0.38,2.47,0.71,3.5,1c29.28-22.19,69.41-33.66,69.41-33.66L723.74,139.43z"/>
		<path class="st5" d="M94.6,35.37C66.28,29.62,22.15,7.94-2.76-5.11v52.72c34.81,8.6,116.94,30.06,154.41,42.18
			C156.68,85.32,165.02,49.65,94.6,35.37z"/>
		<path class="st5" d="M169.71,96.62c-2.54-1.52-8.99-3.91-18.05-6.84C114.18,77.67,32.06,56.21-2.76,47.61v51.9l33.44-14.07
			l146.48,49.54C199.54,127.52,185.69,106.21,169.71,96.62z"/>
		<path class="st5" d="M30.68,85.44c0,0-14.56,6.35-33.44,14.51v26.33c10.68,2.64,121.34,30.01,122.58,29.65
			c15.35-4.49,57.34-20.95,57.34-20.95C174.31,135.93,30.68,85.44,30.68,85.44z"/>
		<path class="st5" d="M696.99,130.65c0,0,15.4,5.23,36.08,12.19l-9.33-3.41L696.99,130.65z"/>
		<path class="st5" d="M840.4,227.99v-21.65l-0.12-6.44c0,2.13-146.48-42.61-146.48-42.61l-78.83,38.88c0,0-26.2,22.32-3.11,36.4
			l76.09-55.57L840.4,227.99z"/>
		<path class="st5" d="M840.27,199.9l-146.48-42.61C693.79,157.28,840.27,202.03,840.27,199.9z"/>
		<path class="st5" d="M840.4,256.04v-6.9c-0.09-0.03-0.17-0.05-0.28-0.08l-0.38,11.56L840.4,256.04z"/>
		<path class="st5" d="M680.8,274.04c-0.08-0.02-0.17-0.04-0.25-0.06c-0.4-0.1-0.82-0.21-1.26-0.32c-0.04-0.01-0.09-0.02-0.14-0.03
			c-0.39-0.1-0.8-0.2-1.22-0.31c-0.11-0.03-0.23-0.06-0.34-0.09c-0.47-0.12-0.95-0.24-1.44-0.37c-0.05-0.01-0.11-0.03-0.16-0.04
			c-0.47-0.12-0.96-0.25-1.45-0.38c-0.08-0.02-0.17-0.04-0.25-0.07c-0.54-0.14-1.1-0.29-1.67-0.44c-0.07-0.02-0.13-0.04-0.2-0.05
			c-0.52-0.14-1.05-0.28-1.59-0.42c-0.09-0.02-0.18-0.05-0.27-0.07c-0.59-0.16-1.2-0.32-1.82-0.49c-0.07-0.02-0.14-0.04-0.21-0.06
			c-0.61-0.17-1.23-0.33-1.85-0.51c-0.03-0.01-0.07-0.02-0.1-0.03c-0.66-0.18-1.33-0.37-2.01-0.56c-0.07-0.02-0.13-0.04-0.2-0.05
			c-1.37-0.38-2.77-0.78-4.2-1.18c-0.06-0.02-0.13-0.04-0.19-0.05c-1.43-0.41-2.89-0.83-4.37-1.27c-0.06-0.02-0.13-0.04-0.19-0.06
			c-1.49-0.44-2.99-0.89-4.5-1.35c-0.05-0.01-0.09-0.03-0.14-0.04c-1.53-0.47-3.07-0.94-4.61-1.43c-0.03-0.01-0.05-0.02-0.08-0.02
			c-1.56-0.49-3.11-0.99-4.66-1.5c-0.01,0-0.01,0-0.02-0.01c-0.77-0.25-1.54-0.51-2.31-0.77c-0.01,0-0.02-0.01-0.03-0.01
			c-1.52-0.51-3.03-1.03-4.51-1.55c-0.03-0.01-0.05-0.02-0.08-0.03c-1.46-0.52-2.9-1.04-4.29-1.56c-0.04-0.01-0.08-0.03-0.12-0.04
			c-1.39-0.52-2.74-1.05-4.04-1.57c-0.04-0.02-0.08-0.03-0.13-0.05c-1.3-0.52-2.55-1.05-3.75-1.57c-0.04-0.02-0.09-0.04-0.13-0.06
			c-1.19-0.52-2.33-1.05-3.4-1.57c-0.04-0.02-0.08-0.04-0.12-0.06c-0.54-0.26-1.06-0.52-1.57-0.79c0,0,0,0,0,0
			c-0.01,0-0.01-0.01-0.02-0.01c-1.51-0.78-2.86-1.55-4.03-2.32c-0.05-0.04-0.11-0.07-0.16-0.11c-0.17-0.11-0.34-0.23-0.5-0.34
			c-0.08-0.05-0.15-0.11-0.23-0.16c-0.14-0.1-0.28-0.2-0.42-0.3c-0.09-0.06-0.17-0.13-0.26-0.19c-0.12-0.09-0.24-0.19-0.36-0.28
			c-0.09-0.07-0.17-0.14-0.26-0.21c-0.11-0.09-0.21-0.18-0.31-0.27c-0.09-0.07-0.17-0.15-0.25-0.22c-0.09-0.08-0.18-0.17-0.27-0.25
			c-0.08-0.08-0.16-0.15-0.23-0.23c-0.08-0.08-0.16-0.16-0.23-0.24c-0.07-0.08-0.14-0.16-0.21-0.24c-0.06-0.08-0.13-0.15-0.19-0.23
			c-0.07-0.08-0.13-0.17-0.19-0.25c-0.05-0.07-0.1-0.14-0.15-0.21c-0.06-0.09-0.11-0.18-0.16-0.27c-0.04-0.06-0.08-0.13-0.11-0.19
			c-0.05-0.1-0.1-0.2-0.14-0.3c-0.02-0.05-0.05-0.1-0.07-0.16c-0.06-0.15-0.1-0.3-0.14-0.45c-2.66-11.72,94.82-30.89,94.82-30.89
			s123.53,30.4,137.27,34.25l0.28-8.4v-12.67l-152.46-51l-76.09,55.57l-32.58,23.79l101.45,18.08c0.41-0.04,0.82-0.08,1.23-0.11
			C681.59,274.24,681.2,274.14,680.8,274.04z M730.15,216.14c0,0,43.19,3.93,43.75,6.73c0.56,2.8-3.93,8.41-3.93,8.41l-44.87-11.22
			L730.15,216.14z"/>
		<path class="st5" d="M840.27,412.26c0.04-0.01,0.08-0.02,0.12-0.03v-16.54c-0.04,0.01-0.08,0.02-0.12,0.03V412.26z"/>
		<path class="st5" d="M840.27,383.84v11.89c0.04-0.01,0.08-0.02,0.12-0.03V383.8C840.35,383.81,840.31,383.82,840.27,383.84z"/>
		<path class="st5" d="M840.4,383.8v-4.32c-0.04,0.01-0.08,0.01-0.12,0.02v4.34C840.31,383.82,840.35,383.81,840.4,383.8z"/>
		<path class="st5" d="M840.27,379.5c-59.52,9-152.86,24.97-155.29,33.46c-3.53,12.37,2.36,20.61,37.1,18.26
			c33.94-2.3,81.05-11.1,118.18-18.95V379.5z"/>
		<path class="st5" d="M840.4,352.41v-53.9l-0.12-0.07c0,0,0,24.03,0,53.99C840.31,352.42,840.35,352.41,840.4,352.41z"/>
		<path class="st5" d="M587.43,354.21l69.89,15.14l3.49,3.87l2.98-0.91c0,0,102.91-8.29,176.49-19.89c0-29.96,0-53.99,0-53.99
			c-23.61,15.44-149.05,30.88-185.53,35.1c-19.66,3.29-35.16,5.56-42.45,5.92c-32.49,1.6-60.72,2.66-60.19,5.33
			s14.91,10.12,14.91,10.12l0.92,0.75l10.96-3.29L587.43,354.21z M803.07,326.64l3.37,6.73l-71.24,15.14l-2.24-8.41L803.07,326.64z
			 M840.09,327.76c-4.49,0-185.1,39.26-202.49,35.34C654.99,367.02,835.6,327.76,840.09,327.76z"/>
		<path class="st5" d="M366.11,455.78c1.72-1.59,3.47-3.17,5.24-4.72l-4.98,1.09C366.25,453.57,366.16,454.8,366.11,455.78z"/>
		<path class="st5" d="M482.87,414.71c2.1-0.64,4.34-0.91,6.22-1.02c3.73-2.62,14.63-9.91,23.51-12.38
			c-27.87-4.24-30.3-10.3-30.3-14.54c0-4.24,69.68,12.12,89.67,12.72c20,0.61,91.22-23.6,91.22-23.6l-2.4-2.66l-3.49-3.87
			l-69.89-15.14l-8.53-1.85l-10.96,3.29l-6.53,1.96l-51.09,15.33l-22.91,6.87l-11.09,9.65L482.87,414.71z"/>
		<path class="st5" d="M677.34,407.59l-3.12-8.02l1.62,8.49C676.54,407.84,677.05,407.68,677.34,407.59z"/>
		<path class="st5" d="M483.03,470.13l63.61-0.23c-6.44-2.43-32.76-12.69-51.16-24.41L483.03,470.13z"/>
		<polygon class="st5" points="697.24,450.84 641.77,469.57 708.29,469.33 690.79,436.58 		"/>
		<path class="st5" d="M654.74,333.54c36.48-4.22,161.91-19.66,185.53-35.1C840.27,298.44,722.68,322.15,654.74,333.54z"/>
		<path class="st5" d="M812.61,266.06l27.67,32.38l-0.53-37.82c0,0-0.04,0-0.09,0.01c-0.04,0-0.08,0.01-0.14,0.01
			c-0.04,0-0.09,0.01-0.14,0.01c-0.11,0.01-0.24,0.02-0.39,0.03c-0.35,0.03-0.8,0.07-1.37,0.11c-0.96,0.08-2.24,0.18-3.8,0.31
			c-0.31,0.03-0.62,0.05-0.95,0.08c-0.57,0.05-1.16,0.1-1.79,0.15c-0.1,0.01-0.2,0.02-0.3,0.02c-0.29,0.02-0.59,0.05-0.9,0.07
			c-0.06,0.01-0.13,0.01-0.2,0.02c-1.47,0.12-3.08,0.26-4.83,0.4c-1.47,0.12-3.04,0.25-4.7,0.39c-2.17,0.18-4.48,0.37-6.94,0.58
			c-0.32,0.03-0.64,0.05-0.96,0.08c-0.29,0.02-0.58,0.05-0.87,0.07c-1.07,0.09-2.18,0.18-3.3,0.28c-0.95,0.08-1.92,0.16-2.91,0.24
			c-0.25,0.02-0.5,0.04-0.76,0.06c-0.12,0.01-0.25,0.02-0.38,0.03c-0.61,0.05-1.23,0.1-1.86,0.16c-0.4,0.03-0.81,0.07-1.21,0.1
			c-0.43,0.04-0.85,0.07-1.28,0.11c-0.38,0.03-0.76,0.06-1.15,0.1c-0.55,0.05-1.09,0.09-1.65,0.14c-0.15,0.01-0.31,0.03-0.47,0.04
			c-0.69,0.06-1.38,0.12-2.07,0.18c-0.29,0.02-0.58,0.05-0.88,0.07c-0.52,0.04-1.05,0.09-1.57,0.13c-0.35,0.03-0.69,0.06-1.04,0.09
			c-0.77,0.07-1.54,0.13-2.32,0.2c-0.06,0-0.12,0.01-0.17,0.01c-0.63,0.05-1.28,0.11-1.92,0.16c-0.43,0.04-0.86,0.07-1.3,0.11
			c-0.82,0.07-1.64,0.14-2.47,0.21c-0.01,0-0.02,0-0.03,0c-1.88,0.16-3.79,0.32-5.73,0.49c-0.46,0.04-0.93,0.08-1.4,0.12
			c-0.53,0.05-1.05,0.09-1.58,0.14c-0.56,0.05-1.13,0.1-1.7,0.15c-0.34,0.03-0.67,0.06-1.01,0.09c-0.69,0.06-1.38,0.12-2.08,0.18
			c-0.31,0.03-0.63,0.05-0.94,0.08c-0.56,0.05-1.13,0.1-1.7,0.15c-0.52,0.04-1.05,0.09-1.57,0.14c-0.51,0.04-1.01,0.09-1.52,0.13
			c-0.55,0.05-1.11,0.1-1.66,0.14c-0.36,0.03-0.71,0.06-1.07,0.09c-0.89,0.08-1.77,0.15-2.67,0.23c-0.14,0.01-0.27,0.02-0.41,0.04
			c-0.85,0.07-1.71,0.15-2.57,0.22c-0.26,0.02-0.53,0.05-0.79,0.07c-1.76,0.15-3.53,0.31-5.31,0.46c-2.06,0.18-4.13,0.36-6.21,0.54
			c-0.39,0.03-0.77,0.07-1.16,0.1c-0.61,0.05-1.22,0.11-1.83,0.16c-0.48,0.04-0.96,0.08-1.45,0.13c-0.62,0.05-1.24,0.11-1.85,0.16
			c-0.45,0.04-0.9,0.08-1.34,0.12c-0.57,0.05-1.14,0.1-1.71,0.15c-0.6,0.05-1.19,0.11-1.79,0.16c-0.52,0.05-1.04,0.09-1.56,0.14
			c-0.57,0.05-1.14,0.1-1.72,0.15c-0.49,0.04-0.97,0.09-1.46,0.13c-0.61,0.05-1.22,0.11-1.84,0.16c-0.57,0.05-1.14,0.1-1.71,0.15
			c-0.41,0.04-0.83,0.07-1.24,0.11c-0.66,0.06-1.33,0.12-1.99,0.18c-0.86,0.08-1.72,0.15-2.58,0.23c-0.22,0.02-0.44,0.04-0.66,0.06
			c-1.11,0.1-2.22,0.2-3.33,0.3c-0.72,0.06-1.43,0.13-2.15,0.19c-0.33,0.03-0.67,0.06-1,0.09c-0.8,0.07-1.61,0.14-2.41,0.22
			c-0.3,0.03-0.61,0.05-0.91,0.08c-0.69,0.06-1.38,0.12-2.06,0.19c-0.46,0.04-0.92,0.08-1.37,0.12c-0.63,0.06-1.27,0.12-1.9,0.17
			c-0.46,0.04-0.93,0.08-1.39,0.13c-0.61,0.06-1.22,0.11-1.83,0.17c-0.61,0.06-1.22,0.11-1.83,0.17c-0.41,0.04-0.82,0.07-1.23,0.11
			c-0.71,0.07-1.42,0.13-2.13,0.2c-0.48,0.04-0.97,0.09-1.45,0.13c-0.64,0.06-1.27,0.12-1.91,0.18c-0.42,0.04-0.84,0.08-1.27,0.12
			c-0.69,0.06-1.37,0.13-2.06,0.19c-0.48,0.04-0.95,0.09-1.43,0.13c-1.07,0.1-2.13,0.2-3.19,0.3c-0.41,0.04-0.82,0.08-1.23,0.11
			c-55.29,5.14-104.12,10.23-105.72,12.28c-3.25,4.17-9.31,10.77,1.83,18.03C615.5,306.16,812.61,266.06,812.61,266.06z"/>
		<path class="st5" d="M812.61,266.06c0,0-197.11,40.1-235.78,38.69c1.66,1.08,3.68,2.17,6.16,3.28c7.08,3.15,17.35,7.6,27.5,11.97
			c17.33,7.46,34.29,14.67,34.29,14.67s3.65-0.39,9.96-1.12c67.94-11.39,185.53-35.1,185.53-35.1L812.61,266.06z"/>
		<path class="st5" d="M608.03,245.71c0.03,0.15,0.08,0.3,0.14,0.45c0.02,0.05,0.05,0.1,0.07,0.16c0.04,0.1,0.09,0.2,0.14,0.3
			c0.03,0.06,0.07,0.13,0.11,0.19c0.05,0.09,0.1,0.18,0.16,0.27c0.05,0.07,0.1,0.14,0.15,0.21c0.06,0.08,0.12,0.17,0.19,0.25
			c0.06,0.08,0.13,0.15,0.19,0.23c0.07,0.08,0.14,0.16,0.21,0.24c0.07,0.08,0.15,0.16,0.23,0.24c0.08,0.08,0.15,0.15,0.23,0.23
			c0.09,0.08,0.18,0.17,0.27,0.25c0.08,0.07,0.16,0.15,0.25,0.22c0.1,0.09,0.21,0.18,0.31,0.27c0.08,0.07,0.17,0.14,0.26,0.21
			c0.12,0.09,0.24,0.19,0.36,0.28c0.08,0.06,0.17,0.13,0.26,0.19c0.14,0.1,0.28,0.2,0.42,0.3c0.07,0.05,0.15,0.11,0.23,0.16
			c0.16,0.11,0.33,0.23,0.5,0.34c0.05,0.04,0.11,0.07,0.16,0.11c1.17,0.76,2.52,1.54,4.03,2.32c0.01,0,0.01,0.01,0.02,0.01
			l86.87-22.98l133.82,30.63c0.58-0.05,1.03-0.08,1.37-0.11c0.15-0.01,0.28-0.02,0.39-0.03c0.05,0,0.1-0.01,0.14-0.01
			c0.06,0,0.1-0.01,0.14-0.01c0.05,0,0.09-0.01,0.09-0.01l0.38-11.56c-13.74-3.85-137.27-34.25-137.27-34.25
			S605.37,233.99,608.03,245.71z"/>
		<path class="st5" d="M612.87,250.81c-0.05-0.04-0.11-0.07-0.16-0.11C612.76,250.74,612.82,250.78,612.87,250.81z"/>
		<path class="st5" d="M612.21,250.37c-0.08-0.05-0.15-0.11-0.23-0.16C612.06,250.26,612.14,250.32,612.21,250.37z"/>
		<path class="st5" d="M611.56,249.91c-0.09-0.06-0.17-0.13-0.26-0.19C611.39,249.78,611.48,249.84,611.56,249.91z"/>
		<path class="st5" d="M610.95,249.43c-0.09-0.07-0.17-0.14-0.26-0.21C610.77,249.29,610.86,249.36,610.95,249.43z"/>
		<path class="st5" d="M610.37,248.96c-0.09-0.07-0.17-0.15-0.25-0.22C610.21,248.81,610.29,248.88,610.37,248.96z"/>
		<path class="st5" d="M609.85,248.48c-0.08-0.08-0.16-0.15-0.23-0.23C609.7,248.33,609.78,248.4,609.85,248.48z"/>
		<path class="st5" d="M609.39,248.01c-0.07-0.08-0.14-0.16-0.21-0.24C609.25,247.85,609.32,247.93,609.39,248.01z"/>
		<path class="st5" d="M608.17,246.16c-0.06-0.15-0.1-0.3-0.14-0.45C608.06,245.86,608.11,246.01,608.17,246.16z"/>
		<path class="st5" d="M616.91,253.13c0.01,0,0.01,0.01,0.02,0.01l0,0C616.92,253.14,616.91,253.13,616.91,253.13z"/>
		<path class="st5" d="M608.38,246.61c-0.05-0.1-0.1-0.2-0.14-0.3C608.28,246.41,608.32,246.51,608.38,246.61z"/>
		<path class="st5" d="M608.65,247.08c-0.06-0.09-0.11-0.18-0.16-0.27C608.54,246.9,608.59,246.98,608.65,247.08z"/>
		<path class="st5" d="M608.99,247.54c-0.07-0.08-0.13-0.17-0.19-0.25C608.86,247.37,608.92,247.46,608.99,247.54z"/>
		<path class="st5" d="M837.61,260.8c0.57-0.05,1.03-0.08,1.37-0.11C838.64,260.71,838.19,260.75,837.61,260.8L837.61,260.8z"/>
		<path class="st5" d="M839.74,260.62c0,0-0.03,0-0.09,0.01C839.71,260.62,839.74,260.62,839.74,260.62z"/>
		<path class="st5" d="M839.52,260.64c-0.04,0-0.09,0.01-0.14,0.01C839.43,260.65,839.47,260.64,839.52,260.64z"/>
		<path class="st5" d="M703.79,230.16l-86.87,22.98c0,0,0,0,0,0c0.51,0.26,1.03,0.52,1.57,0.79c0.04,0.02,0.08,0.04,0.12,0.06
			c1.08,0.52,2.21,1.04,3.4,1.57c0.04,0.02,0.09,0.04,0.13,0.06c1.2,0.52,2.45,1.05,3.75,1.57c0.04,0.02,0.08,0.03,0.13,0.05
			c1.31,0.53,2.66,1.05,4.04,1.57c0.04,0.01,0.08,0.03,0.12,0.04c1.4,0.52,2.83,1.05,4.29,1.56c0.03,0.01,0.05,0.02,0.08,0.03
			c1.48,0.52,2.98,1.04,4.51,1.55c0.01,0,0.02,0.01,0.03,0.01c0.76,0.26,1.53,0.51,2.31,0.77c0.01,0,0.01,0,0.02,0.01
			c1.54,0.51,3.1,1.01,4.66,1.5c0.03,0.01,0.05,0.02,0.08,0.02c1.54,0.48,3.08,0.96,4.61,1.43c0.05,0.01,0.09,0.03,0.14,0.04
			c1.51,0.46,3.01,0.91,4.5,1.35c0.06,0.02,0.13,0.04,0.19,0.06c1.48,0.43,2.93,0.86,4.37,1.27c0.06,0.02,0.13,0.04,0.19,0.05
			c1.43,0.41,2.83,0.8,4.2,1.18c0.07,0.02,0.13,0.04,0.2,0.05c0.68,0.19,1.35,0.37,2.01,0.56c0.03,0.01,0.07,0.02,0.1,0.03
			c0.63,0.17,1.25,0.34,1.85,0.51c0.07,0.02,0.14,0.04,0.21,0.06c0.62,0.17,1.22,0.33,1.82,0.49c0.09,0.02,0.18,0.05,0.27,0.07
			c0.54,0.14,1.07,0.29,1.59,0.42c0.07,0.02,0.13,0.04,0.2,0.05c0.57,0.15,1.12,0.3,1.67,0.44c0.09,0.02,0.17,0.04,0.25,0.07
			c0.5,0.13,0.98,0.26,1.45,0.38c0.05,0.01,0.11,0.03,0.16,0.04c0.49,0.13,0.97,0.25,1.44,0.37c0.11,0.03,0.23,0.06,0.34,0.09
			c0.42,0.11,0.82,0.21,1.22,0.31c0.04,0.01,0.09,0.02,0.14,0.03c0.44,0.11,0.85,0.22,1.26,0.32c0.09,0.02,0.17,0.04,0.25,0.06
			c0.4,0.1,0.78,0.2,1.15,0.29c1.06-0.1,2.13-0.2,3.19-0.3c0.48-0.04,0.95-0.09,1.43-0.13c0.69-0.06,1.37-0.13,2.06-0.19
			c0.42-0.04,0.84-0.08,1.27-0.12c0.63-0.06,1.27-0.12,1.91-0.18c0.48-0.04,0.97-0.09,1.45-0.13c0.71-0.07,1.42-0.13,2.13-0.2
			c0.41-0.04,0.82-0.07,1.23-0.11c0.61-0.06,1.22-0.11,1.83-0.17c0.61-0.06,1.22-0.11,1.83-0.17c0.46-0.04,0.93-0.08,1.39-0.13
			c0.63-0.06,1.27-0.12,1.9-0.17c0.46-0.04,0.92-0.08,1.37-0.12c0.69-0.06,1.38-0.12,2.06-0.19c0.3-0.03,0.61-0.05,0.91-0.08
			c0.8-0.07,1.61-0.14,2.41-0.22c0.33-0.03,0.67-0.06,1-0.09c0.72-0.06,1.43-0.13,2.15-0.19c1.11-0.1,2.22-0.2,3.33-0.3
			c0.22-0.02,0.44-0.04,0.66-0.06c0.86-0.08,1.72-0.15,2.58-0.23c0.66-0.06,1.33-0.12,1.99-0.18c0.41-0.04,0.83-0.07,1.24-0.11
			c0.57-0.05,1.14-0.1,1.71-0.15c0.61-0.05,1.22-0.11,1.84-0.16c0.49-0.04,0.97-0.09,1.46-0.13c0.57-0.05,1.15-0.1,1.72-0.15
			c0.52-0.05,1.04-0.09,1.56-0.14c0.6-0.05,1.2-0.11,1.79-0.16c0.57-0.05,1.14-0.1,1.71-0.15c0.45-0.04,0.9-0.08,1.34-0.12
			c0.62-0.05,1.24-0.11,1.85-0.16c0.48-0.04,0.97-0.08,1.45-0.13c0.61-0.05,1.22-0.11,1.83-0.16c0.39-0.03,0.77-0.07,1.16-0.1
			c2.08-0.18,4.16-0.36,6.21-0.54c1.78-0.16,3.55-0.31,5.31-0.46c0.26-0.02,0.53-0.05,0.79-0.07c0.86-0.07,1.72-0.15,2.57-0.22
			c0.14-0.01,0.27-0.02,0.41-0.04c0.89-0.08,1.78-0.15,2.67-0.23c0.36-0.03,0.71-0.06,1.07-0.09c0.56-0.05,1.11-0.1,1.66-0.14
			c0.51-0.04,1.01-0.09,1.52-0.13c0.53-0.05,1.05-0.09,1.57-0.14c0.57-0.05,1.13-0.1,1.7-0.15c0.31-0.03,0.63-0.05,0.94-0.08
			c0.7-0.06,1.39-0.12,2.08-0.18c0.34-0.03,0.68-0.06,1.01-0.09c0.57-0.05,1.14-0.1,1.7-0.15c0.53-0.05,1.05-0.09,1.58-0.14
			c0.47-0.04,0.93-0.08,1.4-0.12c1.94-0.17,3.85-0.33,5.73-0.49c0.01,0,0.02,0,0.03,0c0.83-0.07,1.65-0.14,2.47-0.21
			c0.44-0.04,0.87-0.07,1.3-0.11c0.64-0.05,1.28-0.11,1.92-0.16c0.06,0,0.12-0.01,0.17-0.01c0.78-0.07,1.55-0.13,2.32-0.2
			c0.35-0.03,0.7-0.06,1.04-0.09c0.53-0.04,1.05-0.09,1.57-0.13c0.29-0.02,0.59-0.05,0.88-0.07c0.7-0.06,1.39-0.12,2.07-0.18
			c0.16-0.01,0.31-0.03,0.47-0.04c0.55-0.05,1.1-0.09,1.65-0.14c0.38-0.03,0.77-0.06,1.15-0.1c0.43-0.04,0.86-0.07,1.28-0.11
			c0.4-0.03,0.81-0.07,1.21-0.1c0.63-0.05,1.25-0.1,1.86-0.16c0.12-0.01,0.25-0.02,0.38-0.03c0.26-0.02,0.51-0.04,0.76-0.06
			c0.99-0.08,1.95-0.16,2.91-0.24c1.12-0.09,2.23-0.19,3.3-0.28c0.29-0.02,0.58-0.05,0.87-0.07c0.32-0.03,0.64-0.05,0.96-0.08
			c2.46-0.21,4.78-0.4,6.94-0.58c1.66-0.14,3.23-0.27,4.7-0.39c1.75-0.15,3.36-0.28,4.83-0.4c0.07-0.01,0.13-0.01,0.2-0.02
			c0.31-0.03,0.6-0.05,0.9-0.07c0.1-0.01,0.2-0.02,0.3-0.02c0.63-0.05,1.23-0.1,1.79-0.15c0.33-0.03,0.65-0.05,0.95-0.08
			c1.56-0.13,2.84-0.23,3.8-0.31L703.79,230.16z"/>
		<path class="st5" d="M674.55,272.42c-0.08-0.02-0.17-0.04-0.25-0.07C674.38,272.38,674.46,272.4,674.55,272.42z"/>
		<path class="st5" d="M650.91,265.77c-0.05-0.01-0.09-0.03-0.14-0.04C650.82,265.74,650.87,265.76,650.91,265.77z"/>
		<path class="st5" d="M646.17,264.3c-0.03-0.01-0.05-0.02-0.08-0.02C646.11,264.29,646.14,264.3,646.17,264.3z"/>
		<path class="st5" d="M641.43,262.78c-0.01,0-0.01,0-0.02-0.01C641.42,262.78,641.42,262.78,641.43,262.78z"/>
		<path class="st5" d="M676.16,272.85c-0.05-0.01-0.11-0.03-0.16-0.04C676.05,272.82,676.11,272.83,676.16,272.85z"/>
		<path class="st5" d="M666.68,270.31c-0.03-0.01-0.07-0.02-0.1-0.03C666.61,270.29,666.64,270.3,666.68,270.31z"/>
		<path class="st5" d="M655.61,267.17c-0.06-0.02-0.13-0.04-0.19-0.06C655.48,267.13,655.54,267.15,655.61,267.17z"/>
		<path class="st5" d="M639.1,262.01c-0.01,0-0.02-0.01-0.03-0.01C639.08,262,639.09,262,639.1,262.01z"/>
		<path class="st5" d="M664.57,269.73c-0.07-0.02-0.13-0.04-0.2-0.05C664.44,269.69,664.5,269.71,664.57,269.73z"/>
		<path class="st5" d="M670.84,271.44c-0.09-0.02-0.18-0.05-0.27-0.07C670.65,271.39,670.75,271.42,670.84,271.44z"/>
		<path class="st5" d="M672.63,271.92c-0.07-0.02-0.13-0.04-0.2-0.05C672.49,271.88,672.56,271.9,672.63,271.92z"/>
		<path class="st5" d="M660.17,268.49c-0.06-0.02-0.13-0.04-0.19-0.05C660.04,268.46,660.1,268.47,660.17,268.49z"/>
		<path class="st5" d="M618.62,253.99c-0.04-0.02-0.08-0.04-0.12-0.06C618.54,253.95,618.58,253.97,618.62,253.99z"/>
		<path class="st5" d="M679.3,273.65c-0.04-0.01-0.09-0.02-0.14-0.03C679.2,273.63,679.25,273.64,679.3,273.65z"/>
		<path class="st5" d="M626.03,257.23c-0.04-0.02-0.08-0.03-0.13-0.05C625.94,257.2,625.99,257.22,626.03,257.23z"/>
		<path class="st5" d="M622.15,255.61c-0.04-0.02-0.09-0.04-0.13-0.06C622.07,255.57,622.11,255.59,622.15,255.61z"/>
		<path class="st5" d="M668.75,270.88c-0.07-0.02-0.14-0.04-0.21-0.06C668.6,270.84,668.68,270.86,668.75,270.88z"/>
		<path class="st5" d="M677.94,273.31c-0.11-0.03-0.23-0.06-0.34-0.09C677.72,273.25,677.83,273.28,677.94,273.31z"/>
		<path class="st5" d="M680.8,274.04c-0.08-0.02-0.17-0.04-0.25-0.06C680.64,274,680.72,274.02,680.8,274.04z"/>
		<path class="st5" d="M634.56,260.44c-0.03-0.01-0.05-0.02-0.08-0.03C634.51,260.42,634.53,260.43,634.56,260.44z"/>
		<path class="st5" d="M630.19,258.85c-0.04-0.01-0.08-0.03-0.12-0.04C630.11,258.82,630.15,258.83,630.19,258.85z"/>
		<path class="st5" d="M791.88,264.62c-0.35,0.03-0.69,0.06-1.04,0.09C791.19,264.68,791.54,264.65,791.88,264.62z"/>
		<path class="st5" d="M689.9,273.59c-0.42,0.04-0.84,0.08-1.27,0.12C689.05,273.67,689.47,273.63,689.9,273.59z"/>
		<path class="st5" d="M700.27,272.64c-0.61,0.06-1.22,0.11-1.83,0.17C699.05,272.76,699.66,272.7,700.27,272.64z"/>
		<path class="st5" d="M761.73,267.2c-0.36,0.03-0.71,0.06-1.07,0.09C761.01,267.26,761.37,267.23,761.73,267.2z"/>
		<path class="st5" d="M696.61,272.98c-0.41,0.04-0.82,0.07-1.23,0.11C695.79,273.05,696.2,273.01,696.61,272.98z"/>
		<path class="st5" d="M703.56,272.35c-0.64,0.06-1.27,0.12-1.9,0.17C702.29,272.46,702.93,272.4,703.56,272.35z"/>
		<path class="st5" d="M707,272.03c-0.69,0.06-1.38,0.12-2.06,0.19C705.62,272.16,706.31,272.1,707,272.03z"/>
		<path class="st5" d="M693.25,273.28c-0.48,0.04-0.97,0.09-1.45,0.13C692.28,273.37,692.77,273.33,693.25,273.28z"/>
		<path class="st5" d="M757.99,267.53c-0.14,0.01-0.27,0.02-0.41,0.04C757.72,267.55,757.85,267.54,757.99,267.53z"/>
		<path class="st5" d="M735.05,269.53c-0.57,0.05-1.14,0.1-1.71,0.15C733.91,269.63,734.48,269.58,735.05,269.53z"/>
		<path class="st5" d="M808.07,263.25c-0.95,0.08-1.92,0.16-2.91,0.24C806.15,263.41,807.11,263.33,808.07,263.25z"/>
		<path class="st5" d="M728.27,270.13c-0.49,0.04-0.97,0.09-1.46,0.13C727.29,270.22,727.78,270.17,728.27,270.13z"/>
		<path class="st5" d="M738.25,269.25c-0.62,0.05-1.24,0.11-1.85,0.16C737.01,269.36,737.63,269.3,738.25,269.25z"/>
		<path class="st5" d="M710.32,271.73c-0.8,0.07-1.61,0.14-2.41,0.22C708.71,271.88,709.51,271.81,710.32,271.73z"/>
		<path class="st5" d="M748.91,268.32c-2.06,0.18-4.13,0.36-6.21,0.54C744.78,268.68,746.85,268.5,748.91,268.32z"/>
		<path class="st5" d="M804.4,263.56c-0.12,0.01-0.25,0.02-0.38,0.03C804.15,263.58,804.28,263.57,804.4,263.56z"/>
		<path class="st5" d="M741.53,268.96c-0.61,0.05-1.22,0.11-1.83,0.16C740.31,269.07,740.92,269.02,741.53,268.96z"/>
		<path class="st5" d="M731.55,269.84c-0.52,0.05-1.04,0.09-1.56,0.14C730.51,269.93,731.03,269.89,731.55,269.84z"/>
		<path class="st5" d="M717.45,271.09c-0.22,0.02-0.44,0.04-0.66,0.06C717.01,271.13,717.23,271.11,717.45,271.09z"/>
		<path class="st5" d="M724.97,270.42c-0.57,0.05-1.14,0.1-1.71,0.15C723.83,270.53,724.4,270.47,724.97,270.42z"/>
		<path class="st5" d="M832.86,261.19c-0.56,0.05-1.17,0.1-1.79,0.15C831.7,261.28,832.29,261.23,832.86,261.19z"/>
		<path class="st5" d="M713.46,271.45c-0.72,0.06-1.43,0.13-2.15,0.19C712.03,271.58,712.75,271.52,713.46,271.45z"/>
		<path class="st5" d="M755.01,267.79c-0.26,0.02-0.53,0.05-0.79,0.07C754.48,267.83,754.74,267.81,755.01,267.79z"/>
		<path class="st5" d="M802.16,263.75c-0.4,0.03-0.8,0.07-1.21,0.1C801.36,263.82,801.76,263.78,802.16,263.75z"/>
		<path class="st5" d="M722.02,270.69c-0.66,0.06-1.33,0.12-1.99,0.18C720.7,270.8,721.36,270.75,722.02,270.69z"/>
		<path class="st5" d="M773.91,266.15c-0.56,0.05-1.13,0.1-1.7,0.15C772.78,266.25,773.35,266.2,773.91,266.15z"/>
		<path class="st5" d="M812.24,262.9c-0.29,0.02-0.58,0.05-0.87,0.07C811.66,262.95,811.95,262.93,812.24,262.9z"/>
		<path class="st5" d="M768.18,266.65c-0.56,0.05-1.13,0.1-1.7,0.15C767.05,266.74,767.61,266.69,768.18,266.65z"/>
		<path class="st5" d="M794.34,264.41c-0.29,0.02-0.58,0.05-0.88,0.07C793.75,264.46,794.04,264.44,794.34,264.41z"/>
		<path class="st5" d="M771.2,266.39c-0.69,0.06-1.38,0.12-2.08,0.18C769.81,266.51,770.51,266.45,771.2,266.39z"/>
		<path class="st5" d="M796.88,264.2c-0.15,0.01-0.31,0.03-0.47,0.04C796.57,264.22,796.72,264.21,796.88,264.2z"/>
		<path class="st5" d="M686.57,273.9c-0.48,0.04-0.95,0.09-1.43,0.13C685.62,273.99,686.1,273.94,686.57,273.9z"/>
		<path class="st5" d="M830.77,261.36c-0.29,0.02-0.59,0.05-0.9,0.07C830.18,261.41,830.48,261.38,830.77,261.36z"/>
		<path class="st5" d="M782.65,265.41c-0.01,0-0.02,0-0.03,0C782.63,265.41,782.64,265.41,782.65,265.41z"/>
		<path class="st5" d="M829.67,261.45c-1.47,0.12-3.08,0.26-4.83,0.4C826.59,261.71,828.21,261.57,829.67,261.45z"/>
		<path class="st5" d="M788.52,264.91c-0.06,0-0.12,0.01-0.17,0.01C788.4,264.92,788.46,264.91,788.52,264.91z"/>
		<path class="st5" d="M776.89,265.9c-0.46,0.04-0.93,0.08-1.4,0.12C775.96,265.98,776.43,265.94,776.89,265.9z"/>
		<path class="st5" d="M786.43,265.08c-0.43,0.04-0.87,0.07-1.3,0.11C785.56,265.16,785.99,265.12,786.43,265.08z"/>
		<path class="st5" d="M820.15,262.24c-2.17,0.18-4.49,0.37-6.94,0.58C815.66,262.62,817.98,262.42,820.15,262.24z"/>
		<path class="st5" d="M799.67,263.96c-0.38,0.03-0.76,0.06-1.15,0.1C798.91,264.02,799.29,263.99,799.67,263.96z"/>
		<path class="st5" d="M764.91,266.93c-0.51,0.04-1.01,0.09-1.52,0.13C763.9,267.02,764.4,266.97,764.91,266.93z"/>
		<path class="st5" d="M833.81,261.11c1.56-0.13,2.84-0.23,3.8-0.31l0,0C836.65,260.87,835.37,260.98,833.81,261.11z"/>
		<path class="st5" d="M773.9,222.87c-0.56-2.8-43.75-6.73-43.75-6.73l-5.05,3.93l44.87,11.22
			C769.98,231.28,774.47,225.68,773.9,222.87z"/>
		<polygon class="st5" points="769.42,142.1 718.94,127.52 711.08,134.81 723.74,139.43 763.9,152.62 		"/>
		<path class="st5" d="M839.96,186.01c-0.12-4.57-0.22-8.49-0.22-8.49l-75.84-24.9l-40.17-13.19l9.33,3.41
			c-20.68-6.97-36.08-12.19-36.08-12.19s-40.13,11.47-69.41,33.66c-0.81,0.62-1.62,1.24-2.41,1.87
			c-5.58,4.44-10.69,9.28-14.97,14.53c-3.43,4.22-3.36,10.44,0.46,14.32c1.31,1.32,2.78,2,4.3,1.14
			c3.73-2.13,78.83-38.88,78.83-38.88l146.48,42.61C840.27,198.7,840.11,191.83,839.96,186.01z"/>
		<polygon class="st5" points="806.44,333.37 803.07,326.64 732.96,340.1 735.2,348.51 		"/>
		<path class="st5" d="M708.29,469.33l117.97-0.52c8.61-0.23,14.02-0.55,14.02-0.98c0-0.57,0-12.87,0-30.59
			C789.78,441.03,708.3,450.13,708.29,469.33z"/>
		<path class="st5" d="M151.16,404.74l-0.39,0.23c2.75,2.66,5.98,4.24,5.98,4.24S153.66,407.47,151.16,404.74z"/>
		<path class="st5" d="M156.3,441.71c-4.45-1.54-8.43-3.14-11.86-4.77c-5.4,4.52-11.23,9.47-11.78,10.29l1.25,0.35
			C137.63,443.84,147.44,442.28,156.3,441.71z"/>
		<path class="st5" d="M353.54,454.97l-0.79-2.21c-1.69,1.59-3.9,2.84-5.85,3.73c-2.5,1.15-4.57,1.73-4.57,1.73
			c-23.51,9.9-102.82,3.82-157.37-8.57c-10.71-2.43-20.47-5.11-28.66-7.95c-8.86,0.57-18.67,2.13-22.39,5.87
			c-0.93,0.93-1.49,1.99-1.55,3.21c-0.53,10.65,1.07,14.38,12.25,15.45c11.19,1.07,195.11,4.41,195.11,4.41l11.34-0.04
			c3.3-3.43,7.22-7.39,11.47-11.45c1.17-1.12,2.37-2.24,3.58-3.37c0.05-0.98,0.14-2.21,0.26-3.63L353.54,454.97z"/>
		<path class="st5" d="M690.79,436.58l-13.16-29.09c0,0-0.1,0.03-0.29,0.09l5.46,14.04L690.79,436.58z"/>
		<path class="st5" d="M366.2,458.24c-0.13-0.26-0.15-1.13-0.08-2.46c-1.21,1.12-2.41,2.25-3.58,3.37
			C364.94,459.07,366.48,458.8,366.2,458.24z"/>
		<path class="st5" d="M501.79,358.24c0,0-2.54,0.98-6.88,2.66c-3.86,1.49-9.15,3.54-15.35,5.95
			c-22.35,8.67-56.49,21.94-77.87,30.44l-5.77,11.28l-2.88,3.52l-3,3.66c0,0,0,14.38-10.46,14.38c-1.24,0-4.96-0.08-10.59-0.25
			c-1.08-0.03-2.22-0.07-3.43-0.11c-2.05,0.62-3.62,1.02-3.62,1.02s-0.36,0.76-0.91,2c-1.56,3.5-4.66,10.82-5.63,15.64
			c-0.33,1.66-1.34,3.1-2.65,4.34l0.79,2.21l12.84-2.82l4.98-1.09l45.66-10.02l59.3-51.58l11.09-9.65l16.34-13.72L501.79,358.24z"/>
		<polygon class="st5" points="486.75,429.64 488.23,435.36 483.91,436.82 383.84,470.48 483.03,470.13 495.48,445.5 502.17,432.26 
					"/>
		<path class="st5" d="M486.75,429.64l-3.88-14.94l-6.56-25.25l-59.3,51.58l-45.66,10.02c-1.77,1.55-3.53,3.14-5.24,4.72
			c-0.06,1.33-0.04,2.2,0.08,2.46c0.28,0.56-1.26,0.83-3.67,0.91c-4.25,4.06-8.17,8.02-11.47,11.45l13.1-0.05l19.67-0.07
			l100.07-33.67l4.33-1.46L486.75,429.64z"/>
		<path class="st5" d="M159.19,242.17l-10.72,0.38c-49.02,4.23-143.03,5.32-150.06,5.4V248l159.13,15.67l19.02,4.96
			c0,0,2.05,0.66,4.95,1.78l27.3-11.7L159.19,242.17z"/>
		<path class="st5" d="M144.77,200.86c-1.32,0.01-2.11-0.03-2.11-0.03c-17.74,0.74-116.11-11.74-139.11-14.39l-4.75-0.49
			l-0.39,29.41v32.6c7.03-0.08,101.04-1.17,150.06-5.4c14.22-1.23,24.65-2.71,28.08-4.52C191.72,230.06,164.53,202.06,144.77,200.86
			z"/>
		<path class="st5" d="M145.14,296.74c0,0-3.96-0.09-10.57-0.24c-52.82,1.29-123.23-0.91-136.15-1.34v35.71
			c22.15-2.81,154.17-3.54,154.17-3.54s1.05,0.11,2.77,0.33c1.5-0.36,2.8-0.74,3.85-1.15C182.34,317.4,145.14,296.74,145.14,296.74z
			"/>
		<path class="st5" d="M181.5,270.4c-2.9-1.12-4.95-1.78-4.95-1.78l-19.02-4.96L-1.59,248v47.15c12.93,0.43,83.33,2.63,136.15,1.34
			c24.99-0.61,46.05-2,55.22-4.72C213.76,284.65,192.02,274.47,181.5,270.4z"/>
		<path class="st5" d="M173.25,359.57c-8.27,4.96-151.29,62.83-151.29,62.83l-23.54-7.85v10.33H32.7l93.42-33.07l32.22-7.96
			c4.45-4.47,10.76-9.49,16.55-15.09L173.25,359.57z"/>
		<path class="st5" d="M186.48,338.07c-1.36-6.1-23.29-9.42-31.13-10.42c-1.72-0.22-2.77-0.33-2.77-0.33s-132.02,0.73-154.17,3.54
			v81.21c1.45-6.77,2.87-13.65,2.87-13.65l171.96-38.86C186.48,356.26,188.13,345.51,186.48,338.07z"/>
		<path class="st5" d="M1.29,398.42c0,0-1.42,6.88-2.87,13.65v2.48l23.54,7.85c0,0,143.03-57.87,151.29-62.83L1.29,398.42z"/>
		<path class="st5" d="M150.55,404.04c-0.2,0.03-0.4,0.05-0.6,0.08c0.26,0.29,0.54,0.57,0.82,0.84l0.39-0.23
			C150.95,404.51,150.75,404.28,150.55,404.04z"/>
		<path class="st5" d="M366.44,410.84c-47.88-4.72-175.78-20.37-198.68-23.18c-2.33-0.29-4.69-0.04-6.91,0.72l-4.76,1.63
			c-2.74,0.94-5.18,2.6-6.99,4.86c-0.49,0.61-0.78,1.05-0.85,1.28c-0.81,2.96,0.49,5.7,2.3,7.9c0.2,0.24,0.4,0.47,0.6,0.69
			c2.5,2.74,5.59,4.48,5.59,4.48c5.08,2.92,16.23,5.5,30.95,7.75l165.48,15.68l7.86,0.14c0.55-1.24,0.91-2,0.91-2
			s1.57-0.39,3.62-1.02c1.21,0.04,2.36,0.07,3.43,0.11c5.63,0.17,9.35,0.25,10.59,0.25c10.46,0,10.46-14.38,10.46-14.38l3-3.66
			C389.84,412.74,380.14,412.19,366.44,410.84z"/>
		<path class="st5" d="M126.12,391.81L32.7,424.88H-1.59v2.26c7.05,3.39,24.37,8.49,24.37,8.49l125.98-43.12
			c1.67-2.34,8.83-7.97,9.15-8.3L126.12,391.81z"/>
		<path class="st5" d="M412.83,350.94l-50.2-6.04l-45.39-5.46l-34.79-4.18l-64.27-7.73c0,0-0.39,0.36-1.08,1.02
			c-4.82,4.53-24.94,23.49-42.2,40.21c-5.78,5.6-24.47,21.41-26.13,23.75c-3.26,4.59-1.5,8.65,1.19,11.61
			c0.2-0.03,0.4-0.06,0.6-0.08c-1.81-2.2-3.11-4.94-2.3-7.9c0.05-0.18,0.25-0.5,0.57-0.93c1.86-2.45,4.45-4.24,7.36-5.24l4.6-1.57
			c2.27-0.78,4.67-1.03,7.05-0.74c23.09,2.84,150.78,18.46,198.61,23.17c13.7,1.35,23.4,1.91,26.6,1.25l2.88-3.52l5.77-11.28
			l13.18-25.77l9.8-19.15L412.83,350.94z"/>
		<path class="st5" d="M131.6,416.06c-12.34,2.95-117.12,27.68-133.18,31.48v16.65c5.08,1.07,18.31,3.68,26.85,3.68
			c9.24,0,83.8-31.14,106.17-40.95c-0.36-0.74-0.59-1.49-0.67-2.24C130.41,421.3,130.75,418.46,131.6,416.06z"/>
		<path class="st5" d="M353.17,432.64l-165.48-15.68c-14.72-2.25-25.87-4.83-30.95-7.75c0,0-3.23-1.58-5.98-4.24
			c-0.28-0.27-0.55-0.55-0.82-0.84c-7.4,1.09-15.36,4.08-18.22,11.57l0.2,0.29c-0.1,0.02-0.22,0.05-0.33,0.08
			c-0.85,2.4-1.19,5.24-0.84,8.62c0.08,0.75,0.31,1.5,0.67,2.24c1.67,3.43,6.25,6.8,13.01,10.02c3.43,1.63,7.42,3.22,11.86,4.77
			c8.19,2.84,17.95,5.52,28.66,7.95c54.55,12.38,133.86,18.46,157.37,8.57c0,0,2.07-0.58,4.57-1.73c1.95-0.9,4.16-2.14,5.85-3.73
			c1.31-1.24,2.32-2.68,2.65-4.34c0.97-4.83,4.07-12.15,5.63-15.64L353.17,432.64z"/>
		<path class="st5" d="M148.76,392.51L22.78,435.63c0,0-17.32-5.09-24.37-8.49v20.39c16.07-3.79,120.84-28.52,133.18-31.48
			c0.04-0.12,0.08-0.25,0.13-0.37c2.86-7.49,10.82-10.47,18.22-11.57C147.26,401.16,145.49,397.1,148.76,392.51z"/>
		<path class="st5" d="M131.6,416.06c0.12-0.03,0.23-0.06,0.33-0.08l-0.2-0.29C131.68,415.82,131.64,415.94,131.6,416.06z"/>
		<path class="st5" d="M142.66,200.83c0,0,0.79,0.03,2.11,0.03C144.06,200.82,143.35,200.8,142.66,200.83z"/>
		<path class="st5" d="M-1.19,185.95l4.75,0.49C0.83,186.13-0.84,185.95-1.19,185.95z"/>
		<path class="st5" d="M170.77,180.16c-3.48-6.26-18.55-12.66-38.45-18.86c-49.04-15.27-127.4-29.33-133.9-37.26v43.52
			c0.21,10.36,0.39,18.39,0.39,18.39c0.35,0,2.03,0.18,4.75,0.49c22.99,2.65,121.36,15.13,139.11,14.39
			c0.69-0.03,1.4-0.02,2.11,0.03C152.94,200.83,181.44,199.37,170.77,180.16z"/>
		<path class="st5" d="M575.01,415.85c0,0-34.54-10.3-62.41-14.54c-8.89,2.47-19.78,9.76-23.51,12.38c2.47-0.14,4.3,0,4.3,0
			c14.45,3.61,74.31,28.38,78.44,27.35c3.8-0.95,90.41-28.63,104-32.97l-1.62-8.49l-5.14-13.23L575.01,415.85z"/>
		<path class="st5" d="M840.27,379.5c0-9.23,0-18.4,0-27.07c-73.58,11.6-176.49,19.89-176.49,19.89l-2.98,0.91l2.4,2.66l3.49,6.2
			l2.4,4.26l5.14,13.23l3.12,8.02c0.19-0.06,0.29-0.09,0.29-0.09l13.16,29.09l17.5,32.75c0.01-19.2,81.49-28.3,131.98-32.1
			c0-7.51,0-15.99,0-24.97c-37.13,7.85-84.24,16.65-118.18,18.95c-34.75,2.36-40.64-5.89-37.1-18.26
			C687.41,404.47,780.76,388.5,840.27,379.5z"/>
		<path class="st5" d="M690.79,436.58l-7.99-14.95l-5.46-14.04c-0.29,0.09-0.8,0.26-1.5,0.48c-13.59,4.35-100.2,32.02-104,32.97
			c-4.13,1.03-63.99-23.74-78.44-27.35c0,0-1.83-0.15-4.3,0c-1.88,0.11-4.12,0.39-6.22,1.02l3.88,14.94l15.42,2.62l-6.69,13.23
			c18.39,11.72,44.72,21.98,51.16,24.41l95.13-0.34l55.47-18.73L690.79,436.58z"/>
		<path class="st5" d="M666.68,382.08l-3.49-6.2c0,0-71.22,24.21-91.22,23.6c-19.99-0.61-89.67-16.97-89.67-12.72
			c0,4.24,2.42,10.3,30.3,14.54c27.87,4.24,62.41,14.54,62.41,14.54l94.07-29.5L666.68,382.08z"/>
		<polygon class="st5" points="-2.63,8.2 117.88,53.4 116.91,61.17 141.69,66.52 131,84.98 -2.76,47.61 		"/>
		<line class="st5" x1="116.91" y1="61.17" x2="-2.14" y2="27.16"/>
		<path class="st5" d="M-4.09,57.28c1.46,0.49,178.33,50.54,178.33,50.54l-4.86,4.37l6.8,2.92l-9.23,5.35l6.32,4.37l-10.2,6.8
			L30.68,85.44L-2.76,99.95L-4.09,57.28z"/>
	</g>
	<polyline class="st5" points="155.51,344.43 174.14,348.62 0.48,388.22 	"/>
	<polyline class="st5" points="-0.67,378.97 174.02,339.63 139.31,328.06 	"/>
	<line class="st5" x1="156.44" y1="333.72" x2="-0.98" y2="361.66"/>
	<line class="st5" x1="190.9" y1="275.5" x2="-0.52" y2="265.72"/>
	<polyline class="st5" points="-1.45,282.02 189.97,284.35 176.46,274.57 	"/>
	<polyline class="st5" points="177.4,284.35 180.19,288.54 -0.52,289.47 	"/>
	<path class="st5" d="M-2.3,142.1c3.07,0.61,157.21,35,157.21,35l-6.76,5.53l9.83,4.3l-11.67,6.14c0,0,6.45,4.49,2.46,6.14
		c-3.99,1.65-149.96-13.26-149.96-13.26L-2.3,142.1z"/>
	<path class="st5" d="M0.77,211.49c15.35,1.23,156.59,9.21,156.59,9.21s21.49,1.84,23.34,6.76"/>
	<polygon class="st5" points="157.36,220.71 169.64,229.92 156.13,231.76 159.2,236.67 -1.69,241.58 0.77,211.49 	"/>
	<line class="st5" x1="156.13" y1="231.76" x2="-2.92" y2="230.53"/>
	<line class="st5" x1="148.15" y1="182.63" x2="-0.46" y2="158.07"/>
	<line class="st5" x1="146.31" y1="193.07" x2="0.77" y2="173.42"/>
	<polyline class="st5" points="166.96,120.45 24.1,75.78 -3.53,88.06 	"/>
	<polyline class="st5" points="169.39,112.19 19.8,67.8 -4.15,77.01 	"/>
	<path class="st7" d="M165.76,387.35l215.68,25.96l-6.22,5.44l3.11,3.89l-19.05,3.5l-3.5,3.89c0,0-197.09-22.37-199.85-26.44
		l6.61-4.67l-9.33-1.56L165.76,387.35z"/>
	<path class="st7" d="M355.17,434.64l-0.51,10.99l-5.05,1.94l1.56,5.83l-209.18-19.83l2.33-5.44l-7.78-1.17l17.5-17.11
		c0,0,12.14,6,35.65,9.1C246.22,426.43,347.83,435.25,355.17,434.64z"/>
	<path class="st5" d="M353.17,432.64l-0.51,10.99l-5.05,1.94l1.56,5.83l-209.18-19.83l2.33-5.44l-7.78-1.17l17.5-17.11
		c0,0,12.14,6,35.65,9.1C244.22,424.43,345.83,433.25,353.17,432.64z"/>
	<path class="st5" d="M165.76,389.68l215.68,25.96l-6.22,5.44l3.11,3.89l-19.05,3.5l-3.5,3.89c0,0-197.09-22.37-199.85-26.44
		l6.61-4.67l-9.33-1.56L165.76,389.68z"/>
	<polyline class="st5" points="142.32,426.14 347.61,445.58 348,433.91 	"/>
	<path class="st5" d="M138.82,419.91c1.56,0,204.9,22.16,204.9,22.16l-0.78-8.94"/>
	<line class="st5" x1="162.54" y1="401.25" x2="359.28" y2="428.47"/>
	<polyline class="st5" points="375.22,421.08 162.54,398.92 171.48,390.75 	"/>
	<polyline class="st5" points="501.79,358.24 412.71,434.74 355.41,448.42 	"/>
	<polyline class="st5" points="282.3,465.46 139.13,459.66 156.3,441.71 	"/>
	<polyline class="st5" points="837.96,188.04 697.27,149.33 617.82,186.56 623.72,191.1 	"/>
	<polyline class="st5" points="625.99,182.02 620.09,178.39 701.36,138.44 837.56,182.48 	"/>
	<path class="st5" d="M838.39,208.37c-4.47-0.01-147.93-44.51-147.93-44.51l-81.72,55.39l2.72,4.54"/>
	<polyline class="st5" points="611.84,232.57 608.28,225.15 690.46,169.76 838.47,217.89 	"/>
	<polyline class="st5" points="613.73,215.62 610.1,208.81 680.02,166.13 684.56,167.95 690.46,163.86 838.27,201.92 	"/>
	<path class="st5" d="M838.27,385.86c-2.56-0.8-145.92,27.87-145.92,27.87l1.84,5.15l-5.15,2.57l1.47,6.62"/>
	<path class="st5" d="M838.65,389.1c0,0-130.13,34.19-144.46,29.77"/>
	<path class="st5" d="M838.27,397.75c0,0-124.23,35.46-149.23,23.7"/>
	<path class="st5" d="M840.86,447.18c-2.21,0-132.81,15.26-132.57,22.15"/>
	<path class="st5" d="M718.08,468.87c2.94-0.74,122.41-12.13,122.41-12.13"/>
</g>
</svg>
