<svg xmlns="http://www.w3.org/2000/svg" xmlns:xlink="http://www.w3.org/1999/xlink" viewBox="0 0 841.88976 467.71654"><defs><style>.cls-1,.cls-10,.cls-3,.cls-5,.cls-8{fill:none;}.cls-2{clip-path:url(#clip-path);}.cls-3{stroke:#54575c;}.cls-10,.cls-3,.cls-5,.cls-8{stroke-miterlimit:10;}.cls-4{fill:#dceffa;}.cls-5{stroke:#f4f4f5;}.cls-6{fill:#54575c;}.cls-13,.cls-7{fill:#e0635d;}.cls-8{stroke:#e0635d;}.cls-9{font-size:19.4824px;}.cls-11,.cls-12,.cls-9{fill:#61a575;}.cls-12,.cls-13,.cls-9{font-family:Geomanist-Bold, Geomanist;font-weight:700;}.cls-10{stroke:#61a575;}.cls-12,.cls-13{font-size:16.39896px;}.cls-14{fill:#4890ba;}.cls-15{fill:#fff;}</style><clipPath id="clip-path"><circle class="cls-1" cx="-244.39109" cy="365.80534" r="24.00007"/></clipPath></defs><title>risk-utility-graph-with-api2</title><g id="Layer_3" data-name="Layer 3"><g class="cls-2"><path class="cls-3" d="M9.21883,229.6197c-79.36562,5.43876-96.85834,36.385-165.812,57.09569-34.00128,10.21251-73.9916,4.51262-100.68731-2.10378-93.46612-23.16509-109.63173,82.58641-126.90446,122.47293-15.03794,34.72586-34.77337,67.25569-57.74067,97.29269-14.16526,18.52555-30.006,40.39706-48.919,54.58182"/><path class="cls-3" d="M-490.84457,558.95905c12.7802-9.40378,24.50732-22.0343,35.11966-34.71345,5.16865-6.1487,10.12731-12.28086,14.92177-18.05271a518.681,518.681,0,0,0,33.89035-45.42029,397.3526,397.3526,0,0,0,26.94669-47.29367c1.64409-3.44061,3.25339-7.38266,4.92448-11.68636,11.57143-29.80084,24.1-76.78094,55.1445-98.67229,16.83611-11.87215,39.01181-16.94831,68.35459-10.53436,14.36462,3.13992,32.15644,6.05858,50.32849,5.49534a170.57162,170.57162,0,0,0,47.87383-7.86987c5.87629-1.87943,11.48571-3.812,16.98048-5.7927,33.554-12.12128,53.71973-24.67815,79.91173-37.33913,18.33249-8.86176,37.61317-15.00333,65.66416-17.479"/><path class="cls-3" d="M-490.84457,558.95905c12.81537-9.24878,24.895-21.48241,35.76222-33.65482,5.30082-5.9375,10.43235-11.79359,15.40165-17.29567A555.47122,555.47122,0,0,0-404.333,465.046a359.11766,359.11766,0,0,0,28.58569-45.17264c1.76672-3.365,3.47475-7.22025,5.25275-11.42123,12.66966-29.93544,25.172-77.05961,56.26223-97.60281,17.06407-11.27528,39.50547-15.76955,68.42769-10.28905,14.56481,2.75991,32.26835,5.29041,49.78734,3.47182a198.83263,198.83263,0,0,0,45.93-10.32466c5.68527-1.95643,11.24681-3.90393,16.89348-5.91093,34.02016-12.13913,53.5635-23.14684,79.16988-37.82751,18.59163-10.659,36.32067-17.4362,63.23741-20.38754"/><path class="cls-3" d="M-490.84457,558.95905c12.85053-9.09378,25.29842-20.91847,36.40478-32.5962,5.44058-5.72047,10.73739-11.30632,15.88153-16.53863,12.94661-13.24756,25.35127-26.46265,36.80511-40.50491a323.85778,323.85778,0,0,0,30.22469-43.0516c1.89069-3.28937,3.7008-7.05718,5.581-11.15611,13.79349-30.07028,26.25758-77.32881,57.38-96.53332,17.29894-10.67455,40.01208-14.617,68.5008-10.04374,14.77148,2.37124,32.41532,4.451,49.24618,1.44831,16.67744-2.97535,29.17463-7.32961,43.98616-12.77946,5.49734-2.02273,11.00791-3.99586,16.80649-6.02916,34.48628-12.157,53.39388-21.70262,78.428-38.31589,18.85015-12.50943,35.02816-19.86906,60.81065-23.29607"/><path class="cls-3" d="M-490.84457,558.95905c12.88569-8.93878,25.704-20.35354,37.04734-31.53758,5.58139-5.503,11.04243-10.819,16.36141-15.78158,13.35648-12.55553,26.25876-24.851,38.26249-38.04722,11.30194-12.42468,22.44491-25.91681,31.86369-40.93057,2.016-3.2136,3.93128-6.89317,5.90928-10.891,14.94323-30.20236,27.3561-77.58722,58.49769-95.46384,17.54055-10.069,40.52971-13.49086,68.57391-9.79843,14.98383,1.97285,32.58461,3.53443,48.705-.57521,16.79037-4.28043,27.61058-9.55931,42.04233-15.23426,5.30948-2.08782,10.769-4.08778,16.7195-6.14738,34.9524-12.17482,53.20037-20.33083,77.68618-38.80428,19.09675-14.40764,33.73565-22.30191,58.3839-26.20459"/><path class="cls-3" d="M-490.84457,558.95905a336.88187,336.88187,0,0,0,37.6899-30.479c5.72323-5.285,11.35773-10.31978,16.84129-15.02454,13.79222-11.8334,27.15977-23.24093,39.71987-35.58953,11.75026-11.55237,23.58793-24.292,33.50269-38.80953a113.319,113.319,0,0,0,6.23754-10.62586c16.119-30.32866,28.46692-77.8335,59.61543-94.39435,17.78866-9.45777,41.05638-12.39127,68.647-9.55311,15.201,1.56367,32.76247,2.54,48.16385-2.59873,16.92278-5.64637,26.04679-11.78591,40.09849-17.68906,5.12179-2.15167,10.53011-4.17971,16.63252-6.26561,35.41852-12.19267,52.97689-19.0168,76.94432-39.29266C-27.4283,242.29-14.30851,233.90233,9.20549,229.524"/><path class="cls-3" d="M-490.84457,558.95905a400.71173,400.71173,0,0,0,38.33246-29.42033c5.86608-5.06629,11.66318-9.83084,17.32117-14.2675,14.20311-11.13726,28.05433-21.63359,41.17725-33.13184,12.19237-10.6829,24.73749-22.6645,35.14169-36.6885a102.80494,102.80494,0,0,0,6.56581-10.36073c17.32084-30.44631,29.58907-78.06645,60.73316-93.32488,18.04291-8.83976,41.59-11.318,68.72011-9.30779,15.42191,1.14268,32.93561,1.47219,47.62269-4.62225,17.05756-7.07808,24.48354-14.00917,38.15466-20.14385,4.93434-2.2142,10.2912-4.27163,16.54553-6.38384,35.88464-12.21052,52.72073-17.74711,76.20247-39.781,19.52477-18.32094,31.15064-27.16764,53.53039-32.02165"/><path class="cls-3" d="M-490.84457,558.95905c12.99118-8.47378,26.93341-18.65053,38.975-28.36171,6.00987-4.84677,11.96815-9.34232,17.801-13.51046,14.61279-10.44218,28.94277-20.03027,42.63464-30.67414,12.62867-9.81735,25.8932-21.03372,36.78069-34.56746a93.77406,93.77406,0,0,0,6.89407-10.09561c18.54836-30.5525,30.7214-78.28492,61.85089-92.2554,18.30279-8.214,42.12853-10.27061,68.79322-9.06248,15.64559.70887,33.09242.33929,47.08153-6.64576,17.17747-8.57707,22.92114-16.22889,36.21083-22.59865a141.24288,141.24288,0,0,1,16.45854-6.50207c36.35075-12.22836,52.43154-16.51025,75.46061-40.26943,19.69816-20.32266,29.85814-29.60049,51.10365-34.93017"/><path class="cls-3" d="M-490.84457,558.95905c13.02634-8.31878,27.347-18.07939,39.61759-27.30309,6.15456-4.62633,12.2727-8.85429,18.28091-12.75341,15.02139-9.74834,29.82568-18.43222,44.092-28.21646,13.05981-8.95676,27.05458-19.399,38.41969-32.44642a86.05271,86.05271,0,0,0,7.22234-9.83049c19.8011-30.64455,31.86253-78.48791,62.96862-91.18591,18.56768-7.57962,42.68794-7.75015,68.86633-8.81717,15.85983-.64645,33.22367-.84777,46.54036-8.66928,17.26645-10.14138,21.36-18.44485,34.267-25.05344a114.15472,114.15472,0,0,1,16.37155-6.62029c36.81687-12.24622,52.1105-15.29673,74.71876-40.75782,19.8425-22.34634,28.56563-32.03336,48.67689-37.83871"/><path class="cls-3" d="M-490.84457,558.95905c13.06151-8.16378,27.76221-17.50617,40.26015-26.24446,6.3-4.40487,12.57688-8.36682,18.76079-11.99638,15.42909-9.05587,30.704-16.84051,45.5494-25.75876,13.48671-8.102,28.221-17.75976,40.05869-30.32539a79.47138,79.47138,0,0,0,7.5506-9.56536c21.0784-30.72,33.01088-78.67462,64.08636-90.11643,18.83683-6.93561,43.27084-6.79751,68.93943-8.57186,16.0594-1.11011,33.32284-2.07685,45.9992-10.69279,17.31077-11.76589,19.80049-20.65687,32.32316-27.50824a95.32327,95.32327,0,0,1,16.28457-6.73852c37.283-12.26407,51.75972-14.099,73.9769-41.24621,19.95806-24.3868,27.27313-34.46621,46.25014-40.74723"/><path class="cls-3" d="M-490.84457,558.95905c13.09667-8.00878,28.17882-16.93073,40.90271-25.18584,6.44626-4.18226,12.88079-7.87994,19.24067-11.23933,15.83608-8.36489,31.57879-15.256,47.00678-23.30107,13.91049-7.25374,29.39185-16.1156,41.69769-28.20436a73.87465,73.87465,0,0,0,7.87887-9.30023c22.37941-30.77649,34.1647-78.84442,65.20408-89.047,19.10937-6.28118,43.75194-7.2763,69.01254-8.32655,16.32115-.67858,33.386-3.33573,45.458-12.71631,17.29985-13.44282,18.24316-22.86477,30.37933-29.963a81.48617,81.48617,0,0,1,16.19757-6.85675c37.74912-12.28192,51.38171-12.91107,73.23506-41.73459,20.046-26.43968,25.98062-36.89907,43.82339-43.65576"/><path class="cls-3" d="M-490.84457,558.95905c13.13183-7.85378,28.59659-16.35292,41.54527-24.12722,6.59307-3.95843,13.18449-7.39367,19.72055-10.48229,16.24258-7.67543,32.45143-13.6793,48.46416-20.84338,14.33242-6.41231,30.56637-14.46613,43.33668-26.08332a69.12246,69.12246,0,0,0,8.20714-9.03511c23.7031-30.81194,35.32209-78.99691,66.32182-87.97746,19.38429-5.61559,44.28872-6.324,69.08564-8.08124,16.54355-1.17235,33.41153-4.613,44.91688-14.73982,17.2267-15.16261,16.68854-25.06843,28.4355-32.41783a70.90154,70.90154,0,0,1,16.11058-6.975c38.21524-12.29976,50.97915-11.72854,72.49321-42.223C-12.09922,247.47208-7.519,236.64149,9.18949,229.40914"/><path class="cls-3" d="M-490.84457,558.95905c13.167-7.69878,29.01525-15.77262,42.18784-23.0686a202.67972,202.67972,0,0,1,20.20042-9.72525c16.63547-7.01923,33.3233-12.11056,49.92154-18.38568,14.7538-5.57781,31.74382-12.81115,44.97568-23.96229a65.0975,65.0975,0,0,0,8.53541-8.77c25.04829-30.82446,36.48106-79.132,67.43955-86.908,19.66052-4.93824,44.82-5.39248,69.15875-7.83592,16.76227-1.68281,33.39978-5.89873,44.37571-16.76334,17.088-16.91469,15.13726-27.26776,26.49167-34.87262,3.82188-2.55979,8.85779-4.8232,16.02359-7.09321,38.68136-12.31761,50.55468-10.548,71.75135-42.71136C-9.63717,248.29391-6.38745,237.098,9.18682,229.39"/><path class="cls-3" d="M-490.84457,558.95905c13.20216-7.54378,29.43454-15.18979,42.8304-22.01a189.63519,189.63519,0,0,1,20.6803-8.96821c17.04534-6.3272,34.19573-10.5497,51.37892-15.928,15.17588-4.75,32.92343-11.15049,46.61468-21.84125a61.696,61.696,0,0,0,8.86367-8.50485c26.41366-30.81239,37.63955-79.24966,68.55729-85.83851,19.9369-4.24873,45.34372-4.48019,69.23185-7.59061,16.97591-2.21039,33.35253-7.18451,43.83455-18.78685,16.88393-18.68847,13.59-29.46276,24.54783-37.32742,3.64-2.61247,8.6189-4.91512,15.93661-7.21144,39.14748-12.33546,50.11082-9.36706,71.0095-43.19974,20.16195-32.64,22.1031-44.19766,36.54312-52.38134"/><path class="cls-3" d="M-490.84457,558.95905c13.23732-7.38878,29.85418-14.60437,43.473-20.95135a179.62218,179.62218,0,0,1,21.16018-8.21117c17.45521-5.63516,35.07-8.99627,52.8363-13.4703,15.59981-3.92845,34.10447-9.48415,48.25368-19.72022a58.83171,58.83171,0,0,0,9.19194-8.23973c27.79775-30.77431,38.79548-79.35037,69.675-84.769,20.21223-3.54678,45.85822-3.58552,69.305-7.3453,17.183-2.75536,33.27255-8.46385,43.29339-20.81037,16.61734-20.474,12.04744-31.65346,22.604-39.78222,3.45951-2.66388,8.38-5.007,15.84962-7.32966,39.6136-12.35331,49.64986-8.18389,70.26764-43.68812,20.15821-34.71284,20.8106-46.63052,34.11638-55.28987"/><path class="cls-3" d="M-490.84457,558.95905c13.27248-7.23378,30.28094-13.99974,44.11552-19.89273A173.60108,173.60108,0,0,1-425.089,531.6122c17.86508-4.94313,35.94712-7.44958,54.29368-11.01261,16.02651-3.11246,35.28622-7.81218,49.89268-17.59919a56.43,56.43,0,0,0,9.5202-7.9746c29.199-30.70909,39.94685-79.43471,70.79275-83.69954,20.48526-2.83234,46.36175-2.70676,69.37806-7.1,17.3822-3.31782,33.16323-9.7319,42.75224-22.83388,16.29328-22.2624,10.51038-33.84,20.66016-42.237,3.28073-2.71416,8.14109-5.099,15.76263-7.44789,40.07972-12.37115,49.17388-6.99729,69.52579-44.17651C-2.37414,250.745-2.99271,238.4676,9.17882,229.33258"/><path class="cls-3" d="M-490.84457,558.95905c13.30765-7.07878,30.69334-13.42585,44.75808-18.83411,25.396-9.76543,51.26778-11.53186,77.871-15.252,20.39513-2.852,46.24986-8.05735,61.38014-23.18763,30.61582-30.61582,41.0917-79.50351,71.91048-82.63005,36.89326-3.7428,90.66974,0,111.66224-31.71208s2.23324-42.43165,34.392-52.25793c40.54583-12.389,48.68473-5.80643,68.78393-44.66489s18.2256-51.49624,29.26287-61.10693"/></g><rect class="cls-4" x="0.06622" width="841.82354" height="467.71654"/><rect class="cls-5" x="65.69283" y="76.56305" width="497.25954" height="331.50636"/><line class="cls-5" x1="65.69283" y1="366.63112" x2="562.95238" y2="366.63112"/><line class="cls-5" x1="65.69283" y1="325.19282" x2="562.95238" y2="325.19282"/><line class="cls-5" x1="65.69283" y1="283.75453" x2="562.95238" y2="283.75453"/><line class="cls-5" x1="65.69283" y1="242.31623" x2="562.95238" y2="242.31623"/><line class="cls-5" x1="65.69283" y1="200.87794" x2="562.95238" y2="200.87794"/><line class="cls-5" x1="65.69283" y1="159.43964" x2="562.95238" y2="159.43964"/><line class="cls-5" x1="65.69283" y1="118.00135" x2="562.95238" y2="118.00135"/><line class="cls-5" x1="521.51408" y1="76.56305" x2="521.51408" y2="408.06941"/><line class="cls-5" x1="480.07579" y1="76.56305" x2="480.07579" y2="408.06941"/><line class="cls-5" x1="438.63749" y1="76.56305" x2="438.63749" y2="408.06941"/><line class="cls-5" x1="397.1992" y1="76.56305" x2="397.1992" y2="408.06941"/><line class="cls-5" x1="355.7609" y1="76.56305" x2="355.7609" y2="408.06941"/><line class="cls-5" x1="314.3226" y1="76.56305" x2="314.3226" y2="408.06941"/><line class="cls-5" x1="272.88431" y1="76.56305" x2="272.88431" y2="408.06941"/><line class="cls-5" x1="231.44601" y1="76.56305" x2="231.44601" y2="408.06941"/><line class="cls-5" x1="190.00772" y1="76.56305" x2="190.00772" y2="408.06941"/><line class="cls-5" x1="148.56942" y1="76.56305" x2="148.56942" y2="408.06941"/><line class="cls-5" x1="107.13113" y1="76.56305" x2="107.13113" y2="408.06941"/><path class="cls-6" d="M621.06727,75.936,617.621,89.35693h-5.917l-5.55176-21.35156h5.582l3.2334,15.0376,3.751-15.0376h4.69825l3.751,15.0376,3.2334-15.0376h5.582l-5.55175,21.35156h-5.917Z"/><path class="cls-6" d="M643.33582,89.35693H638.12V68.00537h5.21582Z"/><path class="cls-6" d="M655.62781,72.67236V89.35693H650.412V72.67236h-4.60644v-4.667h14.42773v4.667Z"/><path class="cls-6" d="M680.7616,89.35693h-5.21582V80.99951h-7.625v8.35742H662.705V68.00537h5.21582v8.29639h7.625V68.00537h5.21582Z"/><path class="cls-6" d="M695.58582,84.56787l-1.52441,4.78906h-5.24707l7.38183-21.35156h5.49024l7.38183,21.35156h-5.24609l-1.52539-4.78906Zm3.35547-11.0415-2.01269,6.77148H700.955Z"/><path class="cls-6" d="M716.20594,76.27148V89.35693h-5.124V68.00537h5.30761l7.8086,13.23779V68.00537h5.124V89.35693H724.1366Z"/><path class="cls-6" d="M744.08582,84.56787l-1.52441,4.78906h-5.24707l7.38183-21.35156h5.49024l7.38183,21.35156h-5.24609l-1.52539-4.78906Zm3.35547-11.0415-2.01269,6.77148H749.455Z"/><path class="cls-6" d="M767.36024,81.88379h-2.501v7.47314h-5.21582V68.00537H767.33c4.33106,0,6.89356,2.68408,6.89356,6.89356C774.22352,79.04736,771.50867,81.88379,767.36024,81.88379Zm-2.501-9.39453V77.3999h1.708a2.23064,2.23064,0,0,0,2.31836-2.501,2.17343,2.17343,0,0,0-2.25782-2.40967Z"/><path class="cls-6" d="M781.91,89.35693h-5.21582V68.00537H781.91Z"/><path class="cls-7" d="M246.04969,429.21973s-.01953-.03907,3.13672,5.8457h-3.68164l-2.43653-5.04688h-1.01269v5.04688h-3.332V421.42578h4.44238c3.21484,0,4.77441,1.48047,4.77441,4.18945A3.996,3.996,0,0,1,246.04969,429.21973ZM242.05555,424.29v2.94238h.99316a1.37787,1.37787,0,0,0,1.48145-1.501c0-.89551-.42969-1.44141-1.63672-1.44141Z"/><path class="cls-7" d="M250.02235,422.458a1.8236,1.8236,0,1,1,1.8125,1.7539A1.74071,1.74071,0,0,1,250.02235,422.458Zm3.46875,12.60742h-3.25391V424.83594h3.25391Z"/><path class="cls-7" d="M254.69813,433.56543l1.832-1.77344a3.21023,3.21023,0,0,0,2.25976.89649c.623,0,.916-.19532.916-.56543,0-1.16895-4.67676-.66211-4.67676-4.38379,0-1.96875,1.71485-3.15723,3.93652-3.15723a4.32461,4.32461,0,0,1,3.66309,1.75391l-2.10449,1.65625a2.45188,2.45188,0,0,0-1.69531-.79883c-.46778,0-.74024.19434-.74024.50684,0,1.28613,4.71485.54492,4.71485,4.248,0,2.084-1.832,3.37012-4.16993,3.37012A4.91691,4.91691,0,0,1,254.69813,433.56543Z"/><path class="cls-7" d="M270.38172,429.51172l3.56641,5.55371h-3.81836l-2.86524-4.77441v4.77441h-3.2539V420.97754h3.2539v7.96973l2.76758-4.11133h3.64258Z"/><path class="cls-7" d="M277.00672,437.16992h-2.82617l5.82617-16.71875h2.82617Z"/><path class="cls-7" d="M284.21375,429.82422v-8.39844h3.332v8.39844a2.20644,2.20644,0,0,0,2.377,2.39648,2.17393,2.17393,0,0,0,2.33789-2.416v-8.37891h3.332v8.37891c0,3.19531-2.084,5.49414-5.68946,5.49414C286.23914,435.29883,284.21375,433.07812,284.21375,429.82422Z"/><path class="cls-7" d="M297.03211,433.56543l1.832-1.77344a3.21892,3.21892,0,0,0,2.26172.89649c.62305,0,.91406-.19532.91406-.56543,0-1.16895-4.67578-.66211-4.67578-4.38379,0-1.96875,1.71485-3.15723,3.93555-3.15723a4.32382,4.32382,0,0,1,3.66406,1.75391l-2.10547,1.65625a2.44761,2.44761,0,0,0-1.69531-.79883c-.4668,0-.74023.19434-.74023.50684,0,1.28613,4.71679.54492,4.71679,4.248,0,2.084-1.832,3.37012-4.16992,3.37012A4.923,4.923,0,0,1,297.03211,433.56543Z"/><path class="cls-7" d="M309.17078,430.79785a2.03081,2.03081,0,0,0,2.16211,1.69531,2.64131,2.64131,0,0,0,2.14453-1.09082l2.14258,1.65625a4.89923,4.89923,0,0,1-4.3457,2.25977,5.12824,5.12824,0,0,1-5.43555-5.33887c0-3.001,2.02539-5.39746,5.02735-5.39746,3.2539,0,5.02734,2.085,5.02734,5.57324,0,.19434,0,.40918-.01953.64258Zm.09766-2.06543h3.3125a1.56951,1.56951,0,0,0-1.65625-1.51953A1.61853,1.61853,0,0,0,309.26844,428.73242Z"/><path class="cls-7" d="M323.08094,427.89453a3.42476,3.42476,0,0,0-.52539-.03906c-1.57813,0-2.10547,1.15039-2.10547,2.68945v4.52051h-3.25391V424.83594H320.372v1.36328a2.88324,2.88324,0,0,1,2.709-1.61719Z"/><path class="cls-7" d="M331.7118,432.00586l-.97461,3.05957h-3.35156l4.71484-13.63965h3.50781l4.7168,13.63965h-3.35156l-.97461-3.05957Zm2.14258-7.05371-1.28516,4.32617h2.57227Z"/><path class="cls-7" d="M344.54969,430.93457a1.30348,1.30348,0,0,0,1.3457,1.46094,1.35394,1.35394,0,0,0,1.40235-1.46094v-6.09863h3.2539v10.22949h-3.17578v-1.05176a3.06922,3.06922,0,0,1-2.57226,1.30469c-3.19532,0-3.50782-2.72754-3.50782-4.8125v-5.66992h3.25391Z"/><path class="cls-7" d="M355.86805,424.83594h1.73437v2.62988h-1.73437v3.76074c0,.89649.60547,1.11133,1.26758,1.11133.17578,0,.33007,0,.54492-.01953v2.78613a5.21349,5.21349,0,0,1-1.2461.11719c-2.416,0-3.82031-1.11133-3.82031-4.15039v-3.60547H351.62v-2.62988h.99414v-2.16309h3.25391Z"/><path class="cls-7" d="M365.23914,428.9668a1.30291,1.30291,0,0,0-1.34375-1.46192,1.3855,1.3855,0,0,0-1.4414,1.46192v6.09863h-3.25391V420.97754H362.454v4.91016a2.98585,2.98585,0,0,1,2.5332-1.30567c3.19531,0,3.50586,2.72852,3.50586,4.81348v5.66992h-3.25391Z"/><path class="cls-7" d="M375.31336,424.582a5.28973,5.28973,0,0,1,5.61133,5.3584,5.34913,5.34913,0,0,1-5.61133,5.37793,5.25831,5.25831,0,0,1-5.55469-5.33887A5.35026,5.35026,0,0,1,375.31336,424.582Zm0,7.87207a2.369,2.369,0,0,0,2.35742-2.51367,2.336,2.336,0,1,0-4.6582.03906A2.29125,2.29125,0,0,0,375.31336,432.4541Z"/><path class="cls-7" d="M388.15125,427.89453a3.42476,3.42476,0,0,0-.52539-.03906c-1.57812,0-2.10547,1.15039-2.10547,2.68945v4.52051h-3.2539V424.83594h3.17578v1.36328a2.88323,2.88323,0,0,1,2.709-1.61719Z"/><path class="cls-7" d="M389.2411,422.458a1.8236,1.8236,0,1,1,1.8125,1.7539A1.74071,1.74071,0,0,1,389.2411,422.458Zm3.46875,12.60742h-3.25391V424.83594h3.25391Z"/><path class="cls-7" d="M398.10633,424.83594h1.73437v2.62988h-1.73437v3.76074c0,.89649.60352,1.11133,1.26562,1.11133.17579,0,.332,0,.54688-.01953v2.78613a5.24262,5.24262,0,0,1-1.24805.11719c-2.416,0-3.81836-1.11133-3.81836-4.15039v-3.60547h-.99414v-2.62988h.99414v-2.16309h3.25391Z"/><path class="cls-7" d="M406.7157,438.55371h-3.07812l1.38477-3.81933-3.82032-9.89844h3.48828l1.8125,5.88379,1.88868-5.88379h3.39062Z"/><line class="cls-8" x1="64.10937" y1="408.57375" x2="564.58063" y2="408.57375"/><polygon class="cls-7" points="573.243 408.499 562.727 402.428 562.727 414.571 573.243 408.499"/><text class="cls-9" transform="translate(52.56794 256.41504) rotate(-90)">Utility</text><line class="cls-10" x1="64.10937" y1="74.15341" x2="64.10937" y2="408.57375"/><polygon class="cls-11" points="64.377 66.02 58.305 76.536 70.449 76.536 64.377 66.02"/><text class="cls-12" transform="translate(177.76471 135.59793)">COMPILED<tspan x="0" y="19.67871">QUERY MENU</tspan></text><text class="cls-13" transform="translate(491.27935 356.4241)">SQL</text><path class="cls-14" d="M395.17762,232.23193l-2.3291,1.06641a1.55273,1.55273,0,0,0-1.44336-1.13184.80795.80795,0,0,0-.90235.77051c0,1.5586,4.78907,1.39453,4.78907,4.90381,0,2.11621-1.50879,3.6416-4.01856,3.6416a3.9875,3.9875,0,0,1-3.90332-2.73926l2.3457-1.16406a2.01779,2.01779,0,0,0,1.72168,1.2793c.67286,0,1.01758-.29492,1.01758-.80371,0-1.52539-4.75781-1.39453-4.75781-5.06787,0-2.06739,1.49316-3.41211,3.77344-3.41211A3.77265,3.77265,0,0,1,395.17762,232.23193Z"/><path class="cls-14" d="M406.49305,241.26953h-2.80469v-4.49414h-4.10058v4.49414h-2.80567V229.7876h2.80567v4.46191h4.10058V229.7876h2.80469Z"/><path class="cls-14" d="M411.247,238.69434l-.82031,2.57519h-2.82129l3.96973-11.48193h2.95215l3.96972,11.48193h-2.82128l-.82032-2.57519Zm1.80372-5.938-1.082,3.64111h2.165Z"/><path class="cls-14" d="M425.77723,236.34863s-.0166-.0332,2.64062,4.9209h-3.09961l-2.05078-4.24805h-.85254v4.24805h-2.80566V229.7876h3.74023c2.707,0,4.01856,1.24707,4.01856,3.52734A3.36276,3.36276,0,0,1,425.77723,236.34863Zm-3.36231-4.1499v2.47754h.83594a1.15956,1.15956,0,0,0,1.24707-1.26367c0-.75391-.36133-1.21387-1.37793-1.21387Z"/><path class="cls-14" d="M429.53016,241.26953V229.7876h6.11914v2.50976h-3.31348v1.91895h2.82129V236.709h-2.82129v2.05079h3.44434v2.50976Z"/><path class="cls-14" d="M440.86414,229.7876c3.69043,0,6.05274,2.14941,6.05274,5.74072,0,3.59277-2.36231,5.74121-6.05274,5.74121h-3.37988V229.7876Zm-.57422,2.42773v6.62647h.57422c1.88574,0,3.13281-1.11524,3.13281-3.31348,0-2.19775-1.24707-3.313-3.13281-3.313Z"/><path class="cls-14" d="M391.48719,249.46582c3.69043,0,6.05273,2.14941,6.05273,5.74121,0,3.59277-2.3623,5.74121-6.05273,5.74121h-3.37988V249.46582Zm-.57422,2.42773v6.627h.57422c1.88574,0,3.13281-1.11524,3.13281-3.31348s-1.24707-3.31348-3.13281-3.31348Z"/><path class="cls-14" d="M398.996,260.94824V249.46582h6.11914v2.50977h-3.31348v1.91894h2.82129v2.49317h-2.82129v2.05078H405.246v2.50976Z"/><path class="cls-14" d="M410.16492,260.94824l-4.15039-11.48242h3.084l2.59179,8.16895,2.5918-8.16895h3.083l-4.14942,11.48242Z"/><path class="cls-14" d="M418.46082,260.94824V249.46582H424.58v2.50977h-3.31347v1.91894h2.82129v2.49317h-2.82129v2.05078h3.44433v2.50976Z"/><path class="cls-14" d="M426.41492,260.94824V249.46582h2.80567v8.97266h3.44433v2.50976Z"/><path class="cls-14" d="M432.69617,255.19043a6.01973,6.01973,0,1,1,6.01953,5.9707A5.76777,5.76777,0,0,1,432.69617,255.19043Zm2.91895,0a3.10742,3.10742,0,1,0,3.10058-3.31348A3.11276,3.11276,0,0,0,435.61512,255.19043Z"/><path class="cls-14" d="M450.34168,256.92969H448.997v4.01855h-2.80566V249.46582h4.13379a3.42983,3.42983,0,0,1,3.707,3.707A3.52166,3.52166,0,0,1,450.34168,256.92969ZM448.997,251.877v2.6416h.918a1.19973,1.19973,0,0,0,1.24707-1.3457,1.169,1.169,0,0,0-1.21386-1.2959Z"/><path class="cls-14" d="M460.54188,260.01367l-2.52539-6.59472v7.52929h-2.69043V249.46582h3.6416l2.85351,7.2666,2.8711-7.2666h3.6416v11.48242h-2.69043V253.419l-2.52637,6.59472Z"/><path class="cls-14" d="M470.33094,260.94824V249.46582h6.11914v2.50977H473.1366v1.91894h2.82129v2.49317H473.1366v2.05078h3.44434v2.50976Z"/><path class="cls-14" d="M481.0077,253.91113v7.03711h-2.75586V249.46582h2.85351l4.19922,7.11914v-7.11914h2.75586v11.48242h-2.78808Z"/><path class="cls-14" d="M494.63563,251.97559v8.97265H491.83v-8.97265H489.3534v-2.50977h7.75879v2.50977Z"/><path class="cls-14" d="M388.10731,280.627V269.14453h6.11914v2.50977H390.913v1.91894h2.82129v2.49317H390.913v2.05078h3.44434V280.627Z"/><path class="cls-14" d="M398.8661,276.24707V280.627h-2.80567V269.14453h6.06934v2.50977H398.8661v2.09961h2.85351v2.49316Z"/><path class="cls-14" d="M406.60633,276.24707V280.627h-2.80566V269.14453H409.87v2.50977h-3.26367v2.09961h2.85352v2.49316Z"/><path class="cls-14" d="M410.63953,274.86914a6.01973,6.01973,0,1,1,6.01953,5.9707A5.76777,5.76777,0,0,1,410.63953,274.86914Zm2.91895,0a3.10742,3.10742,0,1,0,3.10058-3.31348A3.11276,3.11276,0,0,0,413.55848,274.86914Z"/><path class="cls-14" d="M430.3036,275.70605s-.01661-.0332,2.64062,4.9209h-3.09961l-2.05078-4.248h-.85254v4.248h-2.80566V269.14453h3.74023c2.707,0,4.01856,1.24707,4.01856,3.52735A3.36355,3.36355,0,0,1,430.3036,275.70605Zm-3.36231-4.15039v2.47754h.83594a1.15956,1.15956,0,0,0,1.24707-1.26367c0-.75391-.36133-1.21387-1.37793-1.21387Z"/><path class="cls-14" d="M438.30555,271.6543V280.627h-2.80567V271.6543h-2.47656v-2.50977h7.75879v2.50977Z"/><rect class="cls-14" x="413.00842" y="186.12079" width="47.29252" height="34.37163" rx="3.0708"/><rect class="cls-3" x="413.62155" y="186.12079" width="47.29252" height="34.37163" rx="3.0708"/><path class="cls-15" d="M419.84729,202.41228l9.88942-4.43155v3.33542l-6.2742,2.47235,6.2742,2.47236v3.35878l-9.88942-4.43155Z"/><path class="cls-15" d="M434.44862,213.60812h-3.38214l6.974-20.01249h3.38214Z"/><path class="cls-15" d="M452.64209,205.18809l-9.88943,4.43155v-3.35878l6.27421-2.47236-6.27421-2.47235v-3.33542l9.88943,4.43155Z"/><path class="cls-3" d="M419.84729,202.00353l9.88942-4.43155v3.33542l-6.2742,2.47235,6.2742,2.47236v3.35878l-9.88942-4.43156Z"/><path class="cls-3" d="M434.44862,213.19937h-3.38214l6.974-20.01249h3.38214Z"/><path class="cls-3" d="M452.64209,204.77933l-9.88943,4.43156v-3.35878l6.27421-2.47236-6.27421-2.47235V197.572l9.88943,4.43155Z"/><circle class="cls-7" cx="445.63156" cy="351.34327" r="31.05171"/><circle class="cls-3" cx="445.87278" cy="351.82572" r="31.05171"/><path class="cls-15" d="M462.73531,338.1593c0,1.80315-2.802,3.39877-7.10333,4.37955a49.51087,49.51087,0,0,1-20.00093,0c-4.30127-.98078-7.10334-2.5764-7.10334-4.37955h-.03936v8.75933h.03936c0,2.9825,7.6577,5.40029,17.1038,5.40029s17.1038-2.41779,17.1038-5.40029h.03945V338.1593Z"/><path class="cls-15" d="M462.73531,346.96347c0,1.80315-2.802,3.39877-7.10333,4.37955a49.51087,49.51087,0,0,1-20.00093,0c-4.30127-.98078-7.10334-2.5764-7.10334-4.37955h-.03936v8.75933h.03936c0,2.9825,7.6577,5.40029,17.1038,5.40029s17.1038-2.41779,17.1038-5.40029h.03945v-8.75933Z"/><path class="cls-15" d="M462.73531,355.76764c0,1.80315-2.802,3.39877-7.10333,4.37956a49.51135,49.51135,0,0,1-20.00093,0c-4.30127-.98079-7.10334-2.57641-7.10334-4.37956h-.03936V364.527h.03936c0,2.9825,7.6577,5.40029,17.1038,5.40029s17.1038-2.41779,17.1038-5.40029h.03945v-8.75933Z"/><path class="cls-15" d="M445.63151,332.75929c-9.4461,0-17.1038,2.41768-17.1038,5.4,0,1.80315,2.80207,3.39877,7.10334,4.37955a49.51087,49.51087,0,0,0,20.00093,0c4.30135-.98078,7.10333-2.5764,7.10333-4.37955C462.73531,335.177,455.0777,332.75929,445.63151,332.75929Z"/><circle class="cls-11" cx="132.38301" cy="144.46995" r="31.05171"/><circle class="cls-3" cx="132.83378" cy="144.77046" r="31.05171"/><rect class="cls-15" x="115.01955" y="126.84967" width="34.72691" height="9.69115"/><rect class="cls-15" x="115.01955" y="139.62437" width="34.72691" height="9.69115"/><rect class="cls-15" x="115.01955" y="152.39908" width="34.72691" height="9.69115"/><rect class="cls-3" x="115.12894" y="127.27654" width="34.72691" height="9.69115"/><rect class="cls-3" x="115.12894" y="140.05125" width="34.72691" height="9.69115"/><rect class="cls-3" x="115.12894" y="152.82595" width="34.72691" height="9.69115"/><path class="cls-3" d="M462.97654,338.40053c0,1.80314-2.802,3.39876-7.10334,4.37955a49.51135,49.51135,0,0,1-20.00093,0c-4.30126-.98079-7.10334-2.57641-7.10334-4.37955h-.03935v8.75932h.03935c0,2.9825,7.65771,5.40029,17.10381,5.40029s17.1038-2.41779,17.1038-5.40029h.03945v-8.75932Z"/><path class="cls-3" d="M462.97654,347.2047c0,1.80314-2.802,3.39876-7.10334,4.37955a49.51087,49.51087,0,0,1-20.00093,0c-4.30126-.98079-7.10334-2.57641-7.10334-4.37955h-.03935V355.964h.03935c0,2.9825,7.65771,5.40029,17.10381,5.40029s17.1038-2.41779,17.1038-5.40029h.03945V347.2047Z"/><path class="cls-3" d="M462.97654,356.00887c0,1.80314-2.802,3.39877-7.10334,4.37955a49.51087,49.51087,0,0,1-20.00093,0c-4.30126-.98078-7.10334-2.57641-7.10334-4.37955h-.03935v8.75932h.03935c0,2.9825,7.65771,5.40029,17.10381,5.40029s17.1038-2.41779,17.1038-5.40029h.03945v-8.75932Z"/><path class="cls-3" d="M445.87274,333.00051c-9.4461,0-17.10381,2.41768-17.10381,5.4,0,1.80314,2.80208,3.39876,7.10334,4.37955a49.51135,49.51135,0,0,0,20.00093,0c4.30136-.98079,7.10334-2.57641,7.10334-4.37955C462.97654,335.41819,455.31893,333.00051,445.87274,333.00051Z"/><rect class="cls-14" x="454.05265" y="192.26432" width="60.70231" height="44.1177" rx="3.94152"/><rect class="cls-3" x="454.83962" y="192.26432" width="60.70231" height="44.1177" rx="3.94152"/><path class="cls-15" d="M462.83067,213.17525l12.69357-5.68811v4.28117L467.471,214.9417l8.05326,3.17339v4.31116l-12.69357-5.68812Z"/><path class="cls-15" d="M481.57221,227.54566h-4.34115l8.95148-25.687h4.34114Z"/><path class="cls-15" d="M504.92443,216.73813l-12.69357,5.68812v-4.31116l8.05326-3.17339-8.05326-3.17339v-4.28117l12.69357,5.68811Z"/><path class="cls-3" d="M462.83067,212.6506l12.69357-5.68811v4.28117l-8.05326,3.17339,8.05326,3.17339v4.31116l-12.69357-5.68812Z"/><path class="cls-3" d="M481.57221,227.021h-4.34115l8.95148-25.687h4.34114Z"/><path class="cls-3" d="M504.92443,216.21348l-12.69357,5.68812v-4.31116l8.05326-3.17339-8.05326-3.17339v-4.28117l12.69357,5.68811Z"/><polygon class="cls-14" points="422.906 317.871 233.988 193.407 247.324 172.663 161.385 168.959 199.909 243.044 215.467 223.782 404.385 346.764 422.906 317.871"/><polygon class="cls-3" points="422.165 316.389 233.248 191.925 246.583 171.182 160.644 167.477 199.168 241.563 214.726 222.3 403.644 345.282 422.165 316.389"/><path class="cls-6" d="M613.51551,306.36816H612.4911v-1.09082a2.83183,2.83183,0,0,1-2.39551,1.26368,3.36581,3.36581,0,0,1-3.37891-3.61914,3.32853,3.32853,0,0,1,3.29981-3.64551,2.83422,2.83422,0,0,1,2.43457,1.29v-3.81836h1.06445Zm-3.37988-6.13378a2.44632,2.44632,0,0,0-2.3418,2.70117,2.37164,2.37164,0,1,0,2.3418-2.70117Z"/><path class="cls-6" d="M618.48035,299.27637a3.63239,3.63239,0,1,1-3.61914,3.63183A3.51694,3.51694,0,0,1,618.48035,299.27637Zm-.01367,6.30664a2.67853,2.67853,0,1,0-2.52832-2.67481A2.52853,2.52853,0,0,0,618.46668,305.583Z"/><path class="cls-6" d="M627.954,300.87305l-1.84961,5.49511h-1.15723l-2.3291-6.91894h1.14453l1.80957,5.69531s.01367-.02734,1.86328-5.69531h1.03711c1.83691,5.668,1.84961,5.69531,1.84961,5.69531l1.82324-5.69531h1.14453l-2.34179,6.91894h-1.15821Z"/><path class="cls-6" d="M639.8241,302.044v4.32421h-1.05078v-4.36425a1.60953,1.60953,0,0,0-1.63672-1.76953,1.77709,1.77709,0,0,0-1.7959,1.92968v4.2041H634.289v-6.91894H635.327v.998a2.34974,2.34974,0,0,1,2.0625-1.1709C638.99988,299.27637,639.8241,300.47363,639.8241,302.044Z"/><path class="cls-6" d="M647.17078,301.96387a2.63337,2.63337,0,0,1,1.82325.626v-.85156a1.48292,1.48292,0,0,0-1.67676-1.53027,3.96807,3.96807,0,0,0-2.03614.59863l-.42578-.77148a4.87756,4.87756,0,0,1,2.55469-.75879,2.31152,2.31152,0,0,1,2.63477,2.52832v4.56347h-.9043l-.12012-.585a2.35926,2.35926,0,0,1-1.876.75782,2.313,2.313,0,1,1,.02636-4.57715Zm.14649,3.69922a1.52967,1.52967,0,0,0,1.71679-1.4375c0-.86426-.69238-1.42286-1.72949-1.42286-1.05176,0-1.73047.61133-1.73047,1.42286A1.54833,1.54833,0,0,0,647.31727,305.66309Z"/><path class="cls-6" d="M657.28309,302.044v4.32421h-1.05078v-4.36425a1.60953,1.60953,0,0,0-1.63672-1.76953,1.77709,1.77709,0,0,0-1.7959,1.92968v4.2041h-1.05176v-6.91894H652.786v.998a2.34973,2.34973,0,0,1,2.0625-1.1709C656.45887,299.27637,657.28309,300.47363,657.28309,302.044Z"/><path class="cls-6" d="M665.37488,306.36816h-1.02441v-1.09082A2.8318,2.8318,0,0,1,661.955,306.541a3.3658,3.3658,0,0,1-3.3789-3.61914,3.32852,3.32852,0,0,1,3.2998-3.64551,2.83422,2.83422,0,0,1,2.43457,1.29v-3.81836h1.06445Zm-3.37988-6.13378a2.44632,2.44632,0,0,0-2.3418,2.70117,2.37164,2.37164,0,1,0,2.3418-2.70117Z"/><path class="cls-6" d="M670.64539,297.999h1.05176v1.4502h1.5166v.8916h-1.5166v3.56543c0,1.291.37207,1.59668,1.27734,1.59668.13282,0,.292-.0127.292-.0127v.93165a5.12733,5.12733,0,0,1-.63868.03906c-1.38378,0-1.98242-.9043-1.98242-2.46094v-3.65918h-.81152v-.8916h.81152Z"/><path class="cls-6" d="M677.64539,299.27637a3.63239,3.63239,0,1,1-3.61914,3.63183A3.51694,3.51694,0,0,1,677.64539,299.27637Zm-.01367,6.30664a2.67853,2.67853,0,1,0-2.52832-2.67481A2.52853,2.52853,0,0,0,677.63172,305.583Z"/><path class="cls-6" d="M686.05555,297.999h1.05176v1.4502h1.5166v.8916h-1.5166v3.56543c0,1.291.37207,1.59668,1.27734,1.59668.13281,0,.292-.0127.292-.0127v.93165a5.12706,5.12706,0,0,1-.63867.03906c-1.38379,0-1.98242-.9043-1.98242-2.46094v-3.65918H685.244v-.8916h.81152Z"/><path class="cls-6" d="M695.45008,302.044v4.32421H694.3993v-4.36425a1.61672,1.61672,0,0,0-1.63672-1.76953,1.78741,1.78741,0,0,0-1.80957,1.92968v4.2041h-1.05078v-9.62011H690.953v3.69922a2.34227,2.34227,0,0,1,2.04883-1.1709C694.61219,299.27637,695.45008,300.47363,695.45008,302.044Z"/><path class="cls-6" d="M700.09461,299.27637a3.22132,3.22132,0,0,1,3.28613,3.53906c0,.04,0,.18652-.01367.31934h-5.54785a2.3486,2.3486,0,0,0,2.48828,2.47461,2.53276,2.53276,0,0,0,2.15528-1.07715l.6914.50488a3.21588,3.21588,0,0,1-2.86035,1.50391,3.63841,3.63841,0,0,1-.19922-7.26465Zm2.208,3.07324a2.1239,2.1239,0,0,0-2.208-2.16895,2.23911,2.23911,0,0,0-2.22266,2.16895Z"/><path class="cls-6" d="M711.19227,300.32715c-1.583,0-2.04883,1.251-2.04883,2.72754v3.31347h-1.05176v-6.91894h1.03809v1.15723a2.14379,2.14379,0,0,1,2.0625-1.33008Z"/><path class="cls-6" d="M712.88367,296.94727a.72562.72562,0,1,1-.71875.71875A.71912.71912,0,0,1,712.88367,296.94727Zm-.51855,2.502h1.05078v6.91894h-1.05078Z"/><path class="cls-6" d="M715.97059,307.40625a4.34786,4.34786,0,0,0,2.08984.57227c1.31641,0,2.43457-.5459,2.43457-2.08985v-.61133a2.7853,2.7853,0,0,1-2.39551,1.26368,3.64581,3.64581,0,0,1-.01269-7.26465,2.87619,2.87619,0,0,1,2.44824,1.29v-1.11719h1.01074v5.96094c0,2.62109-1.47656,3.51269-3.47265,3.51269a5.05142,5.05142,0,0,1-2.47461-.69238Zm2.19629-7.17187a2.696,2.696,0,1,0,2.36816,2.6875A2.44139,2.44139,0,0,0,718.16688,300.23438Z"/><path class="cls-6" d="M728.85145,302.044v4.32421h-1.05078v-4.36425a1.61672,1.61672,0,0,0-1.63672-1.76953,1.78741,1.78741,0,0,0-1.80957,1.92968v4.2041h-1.05176v-9.62011h1.05176v3.69922a2.34349,2.34349,0,0,1,2.04882-1.1709C728.01356,299.27637,728.85145,300.47363,728.85145,302.044Z"/><path class="cls-6" d="M730.67469,297.999h1.05176v1.4502h1.5166v.8916h-1.5166v3.56543c0,1.291.37207,1.59668,1.27734,1.59668.13281,0,.292-.0127.292-.0127v.93165a5.12706,5.12706,0,0,1-.63867.03906c-1.38379,0-1.98242-.9043-1.98242-2.46094v-3.65918h-.81152v-.8916h.81152Z"/><path class="cls-6" d="M607.70106,312.916a.72562.72562,0,1,1-.71875.71875A.71911.71911,0,0,1,607.70106,312.916Zm-.51953,2.502h1.05175v6.91894h-1.05175Z"/><path class="cls-6" d="M610.25574,320.55371a1.84257,1.84257,0,0,0,1.73047,1.06445,1.14872,1.14872,0,0,0,1.27735-1.10449c0-1.59668-3.47266-1.05078-3.47266-3.39258a1.97229,1.97229,0,0,1,2.22168-1.876,2.19706,2.19706,0,0,1,2.14258,1.33008l-.77246.43945a1.47651,1.47651,0,0,0-1.43653-.8916,1.01584,1.01584,0,0,0-1.14453.958c0,1.55665,3.48633.97168,3.48633,3.37989a2.135,2.135,0,0,1-2.35547,2.04883,2.468,2.468,0,0,1-2.4082-1.47657Z"/><path class="cls-6" d="M619.11805,313.02344h2.56836c1.76953,0,2.76758.90429,2.76758,2.38086a2.2543,2.2543,0,0,1-1.19727,2.0498,2.25815,2.25815,0,0,1,1.5166,2.23535,2.57858,2.57858,0,0,1-2.80762,2.64746h-2.84765Zm2.68848,4.03125a1.46666,1.46666,0,0,0,1.543-1.57031,1.3963,1.3963,0,0,0-1.543-1.50391h-1.61036v3.07422Zm-.02735,4.33789c1.10449,0,1.87695-.53223,1.87695-1.73047,0-1.22363-.8125-1.70313-1.88964-1.70313h-1.57032v3.4336Z"/><path class="cls-6" d="M627.67469,319.31641l-1.11719,3.0205h-1.09082l3.48535-9.31347h1.09082l3.48633,9.31347h-1.09082l-1.11816-3.0205Zm1.82324-5.10938-1.49023,4.17774h2.99414Z"/><path class="cls-6" d="M634.75477,313.02344h1.916c3.18067,0,4.99024,1.74218,4.99024,4.65625,0,3.08691-1.876,4.65722-4.99024,4.65722h-1.916Zm2.1289,8.35547a3.36129,3.36129,0,0,0,3.67286-3.69922,3.40157,3.40157,0,0,0-3.67286-3.68555h-1.05078v7.38477Z"/><path class="cls-6" d="M610.27625,382.53711v-4.32422H611.328v4.36426a1.61673,1.61673,0,0,0,1.63672,1.76953,1.7768,1.7768,0,0,0,1.7959-1.92871v-4.20508h1.06445v6.91895H614.7743v-.99805a2.3249,2.3249,0,0,1-2.04981,1.1709C611.11512,385.30469,610.27625,384.10742,610.27625,382.53711Z"/><path class="cls-6" d="M617.56922,378.21289H618.58v1.09082a2.8634,2.8634,0,0,1,2.40821-1.26367,3.3732,3.3732,0,0,1,3.37988,3.61914,3.32935,3.32935,0,0,1-3.29981,3.64551,2.86209,2.86209,0,0,1-2.44824-1.291v3.60645h-1.05078Zm3.37891,6.13379a2.696,2.696,0,1,0-2.36817-2.6875A2.434,2.434,0,0,0,620.94813,384.34668Z"/><path class="cls-6" d="M631.31531,380.72754a2.63135,2.63135,0,0,1,1.82325.626V380.502a1.48292,1.48292,0,0,0-1.67676-1.53027,3.9613,3.9613,0,0,0-2.03516.59863l-.42578-.77148a4.86817,4.86817,0,0,1,2.55469-.75879,2.3112,2.3112,0,0,1,2.63379,2.52832v4.56348h-.9043l-.12012-.585a2.35929,2.35929,0,0,1-1.876.75781,2.313,2.313,0,1,1,.02636-4.57715Zm.14649,3.69922a1.52968,1.52968,0,0,0,1.7168-1.4375c0-.86426-.69239-1.42285-1.73047-1.42285-1.05078,0-1.7295.61132-1.7295,1.42285A1.54833,1.54833,0,0,0,631.4618,384.42676Z"/><path class="cls-6" d="M641.4286,380.80762v4.32422h-1.05079v-4.36426a1.60953,1.60953,0,0,0-1.63671-1.76953,1.77709,1.77709,0,0,0-1.7959,1.92968v4.20411h-1.05176v-6.91895h1.03809v.998a2.34972,2.34972,0,0,1,2.0625-1.1709C640.60438,378.04,641.4286,379.2373,641.4286,380.80762Z"/><path class="cls-6" d="M649.51942,385.13184H648.495V384.041a2.8318,2.8318,0,0,1-2.39551,1.26367,3.3658,3.3658,0,0,1-3.3789-3.61914,3.32853,3.32853,0,0,1,3.2998-3.64551,2.83421,2.83421,0,0,1,2.43457,1.29v-3.81836h1.06446Zm-3.37989-6.13379a2.44574,2.44574,0,0,0-2.34179,2.70117,2.37164,2.37164,0,1,0,2.34179-2.70117Z"/><path class="cls-6" d="M654.78992,376.7627h1.05176v1.45019h1.5166v.8916h-1.5166v3.56543c0,1.291.37207,1.59668,1.27735,1.59668.13281,0,.292-.01269.292-.01269v.93164a5.12726,5.12726,0,0,1-.63867.03906c-1.38379,0-1.98243-.9043-1.98243-2.46094v-3.65918h-.81152v-.8916h.81152Z"/><path class="cls-6" d="M661.78992,378.04a3.63239,3.63239,0,1,1-3.61914,3.63184A3.51694,3.51694,0,0,1,661.78992,378.04Zm-.01367,6.30664a2.67853,2.67853,0,1,0-2.52832-2.6748A2.52853,2.52853,0,0,0,661.77625,384.34668Z"/><path class="cls-6" d="M670.20008,376.7627h1.05176v1.45019h1.5166v.8916h-1.5166v3.56543c0,1.291.37207,1.59668,1.27734,1.59668.13281,0,.292-.01269.292-.01269v.93164a5.12706,5.12706,0,0,1-.63867.03906c-1.38379,0-1.98242-.9043-1.98242-2.46094v-3.65918h-.81152v-.8916h.81152Z"/><path class="cls-6" d="M679.59461,380.80762v4.32422h-1.05078v-4.36426a1.61673,1.61673,0,0,0-1.63672-1.76953,1.78741,1.78741,0,0,0-1.80957,1.92968v4.20411h-1.05176v-9.62012h1.05176v3.69922a2.34351,2.34351,0,0,1,2.04883-1.1709C678.75672,378.04,679.59461,379.2373,679.59461,380.80762Z"/><path class="cls-6" d="M684.23914,378.04a3.22133,3.22133,0,0,1,3.28614,3.53906c0,.04,0,.18652-.0127.31934h-5.54883a2.3491,2.3491,0,0,0,2.48828,2.47461,2.53276,2.53276,0,0,0,2.15528-1.07715l.69238.50488a3.21906,3.21906,0,0,1-2.86133,1.50391,3.63841,3.63841,0,0,1-.19922-7.26465Zm2.209,3.07324a2.12467,2.12467,0,0,0-2.209-2.16894,2.23909,2.23909,0,0,0-2.22265,2.16894Z"/><path class="cls-6" d="M692.23719,375.51172H693.289v9.62012h-1.05176Z"/><path class="cls-6" d="M697.99891,378.04a3.22133,3.22133,0,0,1,3.28613,3.53906c0,.04,0,.18652-.01269.31934h-5.54883a2.3491,2.3491,0,0,0,2.48828,2.47461,2.53274,2.53274,0,0,0,2.15527-1.07715l.69238.50488a3.219,3.219,0,0,1-2.86132,1.50391,3.63841,3.63841,0,0,1-.19922-7.26465Zm2.209,3.07324a2.12466,2.12466,0,0,0-2.209-2.16894,2.2391,2.2391,0,0,0-2.22266,2.16894Z"/><path class="cls-6" d="M702.83094,379.10449h-.77246v-.8916h.77246v-.35937a2.02115,2.02115,0,0,1,2.168-2.30176,4.05883,4.05883,0,0,1,.43945.02636v.918a2.56808,2.56808,0,0,0-.333-.02636c-.78418,0-1.21.42578-1.21,1.38379v.35937H705.372v.8916h-1.47656v6.02735h-1.06445Z"/><path class="cls-6" d="M707.00867,376.7627h1.05176v1.45019h1.5166v.8916h-1.5166v3.56543c0,1.291.37207,1.59668,1.27735,1.59668.13281,0,.292-.01269.292-.01269v.93164a5.12726,5.12726,0,0,1-.63867.03906c-1.38379,0-1.98243-.9043-1.98243-2.46094v-3.65918h-.81152v-.8916h.81152Z"/><path class="cls-6" d="M714.75379,375.71094a.72562.72562,0,1,1-.71875.71875A.71912.71912,0,0,1,714.75379,375.71094Zm-.51855,2.502H715.286v6.91895h-1.05078Z"/><path class="cls-6" d="M717.3075,383.34863a1.84257,1.84257,0,0,0,1.73047,1.06446,1.14872,1.14872,0,0,0,1.27734-1.1045c0-1.59668-3.47265-1.05078-3.47265-3.39257a1.97229,1.97229,0,0,1,2.22168-1.876,2.19707,2.19707,0,0,1,2.14258,1.33008l-.77247.43945a1.47649,1.47649,0,0,0-1.43652-.8916,1.01584,1.01584,0,0,0-1.14453.958c0,1.55664,3.48633.97168,3.48633,3.37988a2.135,2.135,0,0,1-2.35547,2.04883,2.468,2.468,0,0,1-2.4082-1.47657Z"/><path class="cls-6" d="M618.10047,392.9707l-.69238.71875a3.706,3.706,0,0,0-2.71387-1.06445,3.83233,3.83233,0,0,0-.01367,7.65039,3.82876,3.82876,0,0,0,2.72754-.9707v-1.95606h-2.0752v-.94531h3.11328v3.36621a5.00864,5.00864,0,0,1-3.80566,1.50391,4.60891,4.60891,0,0,1-4.68359-4.81641,4.79858,4.79858,0,0,1,8.14355-3.48633Z"/><path class="cls-6" d="M624.48817,391.61328a4.83088,4.83088,0,1,1-4.75,4.83008A4.70549,4.70549,0,0,1,624.48817,391.61328Zm0,8.64942a3.82361,3.82361,0,1,0-3.63282-3.81934A3.63345,3.63345,0,0,0,624.48817,400.2627Z"/><path class="cls-6" d="M635.01453,391.61328a4.83088,4.83088,0,1,1-4.75,4.83008A4.70548,4.70548,0,0,1,635.01453,391.61328Zm0,8.64942a3.82361,3.82361,0,1,0-3.63281-3.81934A3.63423,3.63423,0,0,0,635.01453,400.2627Z"/><path class="cls-6" d="M641.33582,391.78711h1.916c3.18066,0,4.99023,1.74219,4.99023,4.65625,0,3.08691-1.876,4.65723-4.99023,4.65723h-1.916Zm2.12891,8.35547a3.36128,3.36128,0,0,0,3.67285-3.69922,3.40156,3.40156,0,0,0-3.67285-3.68555H642.414v7.38477Z"/><circle class="cls-11" cx="617.66217" cy="358.10648" r="11.75408"/><circle class="cls-7" cx="617.66217" cy="277.83364" r="11.75408"/><circle class="cls-3" cx="618.66217" cy="356.10647" r="11.75408"/><circle class="cls-3" cx="618.66217" cy="275.83364" r="11.75408"/></g></svg>