<?xml version="1.0" encoding="utf-8"?>
<!-- Generator: Adobe Illustrator 23.0.6, SVG Export Plug-In . SVG Version: 6.00 Build 0)  -->
<svg version="1.1" xmlns="http://www.w3.org/2000/svg" xmlns:xlink="http://www.w3.org/1999/xlink" x="0px" y="0px"
	 viewBox="0 0 841.89 467.72" style="enable-background:new 0 0 841.89 467.72;" xml:space="preserve">
<style type="text/css">
	.st0{fill:#DCEFFA;}
	.st1{fill:#FFFFFF;}
	.st2{clip-path:url(#SVGID_2_);}
	.st3{fill:#F4F4F5;}
	.st4{fill:#E0635D;}
	.st5{fill:#F5C65D;}
	.st6{fill:#61A575;}
	.st7{fill:none;stroke:#54575C;stroke-miterlimit:10;}
	.st8{fill:#4890BA;}
	.st9{fill:#235485;}
	.st10{fill:#FCD4B4;}
	.st11{fill:#D09487;}
	.st12{fill:#54575C;}
	.st13{clip-path:url(#SVGID_4_);}
	.st14{fill:#54575C;stroke:#54575C;stroke-miterlimit:10;}
	.st15{fill:none;stroke:#54575C;stroke-linejoin:round;stroke-miterlimit:10;}
	.st16{fill:url(#SVGID_5_);}
	.st17{fill:url(#SVGID_6_);}
	.st18{fill:url(#SVGID_7_);}
	.st19{fill:url(#SVGID_8_);}
	.st20{fill:url(#SVGID_9_);}
	.st21{fill:url(#SVGID_10_);}
	.st22{fill:url(#SVGID_11_);}
	.st23{fill:url(#SVGID_12_);}
	.st24{fill:url(#SVGID_13_);}
	.st25{fill:url(#SVGID_14_);}
	.st26{fill:url(#SVGID_15_);}
	.st27{fill:url(#SVGID_16_);}
	.st28{fill:url(#SVGID_17_);}
	.st29{fill:url(#SVGID_18_);}
	.st30{fill:#EAA66E;}
	.st31{fill:#7E3B16;}
	.st32{fill:none;}
	.st33{fill:#54575C;stroke:#54575C;stroke-width:0.8854;stroke-miterlimit:10;}
	.st34{fill:none;stroke:#61A575;stroke-miterlimit:10;}
	.st35{clip-path:url(#SVGID_20_);fill:#4890BA;}
	.st36{clip-path:url(#SVGID_20_);}
</style>
<g id="Layer_1">
</g>
<g id="Layer_2">
</g>
<g id="Layer_3">
	<g>
		<defs>
			<rect id="SVGID_19_" x="-3.7" y="-2.05" width="849.28" height="471.81"/>
		</defs>
		<clipPath id="SVGID_2_">
			<use xlink:href="#SVGID_19_"  style="overflow:visible;"/>
		</clipPath>
		<rect x="-71.77" y="-20.56" style="clip-path:url(#SVGID_2_);fill:#4890BA;" width="940.11" height="500.36"/>
		<g class="st2">
			<g>
				<g>
					<path class="st1" d="M372.54,119.7h-61.67c-1.83,0-3.32-1.49-3.32-3.32V25.8c0-1.83,1.49-3.32,3.32-3.32h61.67
						c1.83,0,3.32,1.49,3.32,3.32v90.58C375.86,118.21,374.37,119.7,372.54,119.7z"/>
					<path class="st1" d="M369.27,118.39h-61.67c-1.83,0-3.32-1.49-3.32-3.32V24.49c0-1.83,1.49-3.32,3.32-3.32h61.67
						c1.83,0,3.32,1.49,3.32,3.32v90.58C372.58,116.91,371.1,118.39,369.27,118.39z"/>
					<path class="st7" d="M372.54,119.7h-61.67c-1.83,0-3.32-1.49-3.32-3.32V25.8c0-1.83,1.49-3.32,3.32-3.32h61.67
						c1.83,0,3.32,1.49,3.32,3.32v90.58C375.86,118.21,374.37,119.7,372.54,119.7z"/>
					<circle class="st7" cx="310.62" cy="25.55" r="1.11"/>
					<circle class="st7" cx="313.87" cy="25.55" r="1.11"/>
					<circle class="st7" cx="317.13" cy="25.55" r="1.11"/>
					<line class="st7" x1="307.02" y1="28.85" x2="375.67" y2="28.85"/>
				</g>
				<g>
					<g>
						<line class="st7" x1="313.41" y1="87.63" x2="339.46" y2="87.63"/>
						<line class="st7" x1="313.41" y1="92.46" x2="339.46" y2="92.46"/>
						<line class="st7" x1="313.41" y1="97.28" x2="339.46" y2="97.28"/>
						<line class="st7" x1="313.41" y1="102.11" x2="339.46" y2="102.11"/>
						<line class="st7" x1="313.41" y1="106.93" x2="339.46" y2="106.93"/>
						<line class="st7" x1="313.41" y1="111.76" x2="339.46" y2="111.76"/>
					</g>
					<g>
						<line class="st7" x1="314.01" y1="36.71" x2="369.19" y2="36.71"/>
						<line class="st7" x1="314.01" y1="41.54" x2="369.19" y2="41.54"/>
						<line class="st7" x1="314.01" y1="46.36" x2="340.06" y2="46.36"/>
						<line class="st7" x1="314.01" y1="62.91" x2="367.04" y2="62.91"/>
						<line class="st7" x1="314.01" y1="67.74" x2="353.36" y2="67.74"/>
						<line class="st7" x1="314.01" y1="72.56" x2="340.06" y2="72.56"/>
					</g>
					<g>
						<line class="st7" x1="355.41" y1="87.63" x2="367.33" y2="87.63"/>
						<line class="st7" x1="355.41" y1="92.46" x2="367.33" y2="92.46"/>
						<line class="st7" x1="355.41" y1="97.28" x2="367.33" y2="97.28"/>
						<line class="st7" x1="355.41" y1="102.11" x2="367.33" y2="102.11"/>
						<line class="st7" x1="355.41" y1="106.93" x2="367.33" y2="106.93"/>
						<line class="st7" x1="355.41" y1="111.76" x2="367.33" y2="111.76"/>
					</g>
				</g>
			</g>
			<g>
				<g>
					<path class="st1" d="M447.28,148.51h-50.44c-1.5,0-2.71-1.21-2.71-2.71V71.71c0-1.5,1.21-2.71,2.71-2.71h50.44
						c1.5,0,2.71,1.21,2.71,2.71v74.09C450,147.3,448.78,148.51,447.28,148.51z"/>
					<path class="st1" d="M444.84,149.94H394.4c-1.5,0-2.71-1.21-2.71-2.71V73.13c0-1.5,1.21-2.71,2.71-2.71h50.44
						c1.5,0,2.71,1.21,2.71,2.71v74.09C447.56,148.72,446.34,149.94,444.84,149.94z"/>
					<path class="st7" d="M447.28,148.51h-50.44c-1.5,0-2.71-1.21-2.71-2.71V71.71c0-1.5,1.21-2.71,2.71-2.71h50.44
						c1.5,0,2.71,1.21,2.71,2.71v74.09C450,147.3,448.78,148.51,447.28,148.51z"/>
					<path class="st7" d="M394,73.73c0.82,0,55.58,0,55.58,0"/>
					<circle class="st7" cx="396.64" cy="71.5" r="0.91"/>
					<circle class="st7" cx="399.3" cy="71.5" r="0.91"/>
					<circle class="st7" cx="401.96" cy="71.5" r="0.91"/>
				</g>
				<g>
					<g>
						<line class="st7" x1="399.16" y1="82.88" x2="414.03" y2="82.88"/>
						<line class="st7" x1="399.16" y1="92.65" x2="414.03" y2="92.65"/>
						<line class="st7" x1="399.16" y1="102.42" x2="414.03" y2="102.42"/>
						<line class="st7" x1="399.16" y1="112.19" x2="414.03" y2="112.19"/>
						<line class="st7" x1="399.16" y1="121.96" x2="414.03" y2="121.96"/>
						<line class="st7" x1="399.16" y1="131.74" x2="414.03" y2="131.74"/>
					</g>
					<g>
						<line class="st7" x1="417.75" y1="82.88" x2="444.84" y2="82.88"/>
						<line class="st7" x1="417.75" y1="92.65" x2="444.84" y2="92.65"/>
						<line class="st7" x1="417.75" y1="102.42" x2="444.84" y2="102.42"/>
						<line class="st7" x1="417.75" y1="112.19" x2="444.84" y2="112.19"/>
						<line class="st7" x1="417.75" y1="121.96" x2="444.84" y2="121.96"/>
						<line class="st7" x1="417.75" y1="131.74" x2="444.84" y2="131.74"/>
					</g>
				</g>
			</g>
			<g>
				<rect x="209.27" y="356.97" class="st12" width="19.46" height="190.26"/>
				
					<rect x="465.87" y="101.52" transform="matrix(-1.836970e-16 1 -1 -1.836970e-16 840.8456 -110.3634)" class="st12" width="19.46" height="527.45"/>
				<rect x="735.7" y="341.37" class="st12" width="19.46" height="190.26"/>
				<path class="st1" d="M795.74,342.98H127.67c-5.2,0-6.91-6.97-2.31-9.38l136.82-71.75c7.28-3.82,15.38-5.81,23.6-5.81h411.14
					c7.02,0,13.84,2.4,19.31,6.8l83.97,67.45C805.45,334.51,802.47,342.98,795.74,342.98z"/>
				<path class="st0" d="M791.99,348.61H123.92c-5.2,0-6.91-6.97-2.31-9.38l136.82-71.75c7.28-3.82,15.38-5.81,23.6-5.81h411.14
					c7.02,0,13.84,2.4,19.31,6.8l83.97,67.45C801.7,340.13,798.72,348.61,791.99,348.61z"/>
				<path class="st7" d="M794.53,342.98H126.47c-5.2,0-6.91-6.97-2.31-9.38l136.82-71.75c7.28-3.82,15.38-5.81,23.6-5.81h411.14
					c7.02,0,13.84,2.4,19.31,6.8L799,330.29C804.25,334.51,801.27,342.98,794.53,342.98z"/>
			</g>
			<g>
				<path class="st1" d="M484,176.37c0-1.69,1.37-3.07,3.07-3.07c0,0,0.78-0.03,2.16-0.08c-0.04-5.23-0.14-8.45-0.32-8.51
					c-0.9-0.3-16.36-2.2-19.35-2.56c-0.22-0.03-0.36-0.04-0.44-0.05c-0.04,0-0.06-0.01-0.06-0.01h-69.54
					c-1.24,0-2.24,1.01-2.24,2.24v129.19c0,1.24,1.01,2.24,2.24,2.24h69.54c1.24,0,2.24-1.01,2.24-2.24L484,272.69V176.37z"/>
				<path class="st1" d="M698.27,316.02l-6.35,0.26l-51.89,2.14l-4.43-9.98c-0.54,1.86-1.54,3.23-3.38,3.3
					c-0.84,0.03-1.71,0.02-2.58-0.01c-1.88-0.07-3.77-0.28-5.43-0.61l6.43,13.96l66.53-2.74l-2.83-3.26l6.35-0.26L698.27,316.02z"/>
				<path class="st1" d="M629.65,311.29c0.87,0.03,1.74,0.04,2.58,0.01c1.84-0.06,2.85-1.44,3.38-3.3l4.43,9.98l51.89-2.14
					l6.35-0.26l8.29-0.34l-43.44-52.44l-10.15,0.51l-3.16-3.64l-43.44,1.17l1.56,3.38l-5.08,0.14l13.03,28.25
					c-1.43,0.61-2.55,1.34-3.37,2c-1.03,0.83-1.25,2.31-0.53,3.43c2.02,3.09,6.16,9.39,7.32,10.67c0.75,0.84,2.61,1.51,4.9,1.96
					C625.88,311.01,627.77,311.22,629.65,311.29z"/>
				<path class="st1" d="M692.15,287.82c1.69,0.99,6.16,0.7,7.45-0.1c1.29-0.79-10.03-14.01-12.12-14.51s-4.47,0.89-5.17,1.19
					c0,0-1.39,0.89-1.39,1.39S690.46,286.83,692.15,287.82z"/>
				<path class="st1" d="M599.62,284.31l-0.14-0.34l-1.72,0.3l-28.31-0.54l0,0l-6.15-11.39h15.84v-6.46c5.55-0.23,9.33-0.4,9.33-0.4
					c1.5,0,2.71-1.22,2.71-2.71v-86.45c0-1.5-1.21-2.71-2.71-2.71c0,0-36.63-1.48-49-1.48c-12.98,0-52.43,1.48-52.43,1.48
					c-1.5,0-2.71,1.22-2.71,2.71v86.45c0,1.5,1.22,2.71,2.71,2.71c0,0,3.71,0.21,9.21,0.49v6.37h8.23v10.15l-20.04-0.38l-8.99,23.62
					l-0.11,0.02l0.1,0l-1.45,3.81l140.22,1.37l-13.7-26.61L599.62,284.31z M527.34,272.35h16l-23.12,0.13l-3.45-0.13H527.34z"/>
			</g>
			<g>
				<g>
					<path class="st3" d="M473.56,161.4c0,0,0.03,0,0.06,0.01C473.6,161.4,473.58,161.4,473.56,161.4z"/>
					<path class="st3" d="M491.57,172.6c0,0,0.78-0.03,2.16-0.08c-0.04-5.23-0.14-8.45-0.32-8.51c-0.9-0.3-16.36-2.2-19.35-2.56
						c1,0.23,1.74,1.12,1.74,2.18v129.19l12.71-20.84v-96.32C488.51,173.98,489.88,172.6,491.57,172.6z"/>
					<path class="st3" d="M474.06,161.46c-0.14-0.03-0.29-0.05-0.44-0.05c-0.04,0-0.06-0.01-0.06-0.01h-69.54
						c-1.24,0-2.24,1.01-2.24,2.24v129.19c0,1.24,1.01,2.24,2.24,2.24h69.54c1.24,0,2.24-1.01,2.24-2.24V163.64
						C475.8,162.57,475.06,161.69,474.06,161.46z"/>
					<path class="st3" d="M473.62,161.4c0.15,0.01,0.3,0.02,0.44,0.05C473.84,161.43,473.7,161.41,473.62,161.4z"/>
				</g>
				<g>
					<path class="st1" d="M629.65,312.82c-1.88-0.07-3.77-0.28-5.43-0.61l6.43,13.96l66.53-2.74l-2.83-3.26l-60.18,2.48
						L629.65,312.82z"/>
					<path class="st1" d="M698.28,317.12l-6.35,0.26l-51.89,2.14l-4.43-9.98c-0.54,1.86-1.54,3.23-3.38,3.3
						c-0.84,0.03-1.71,0.02-2.58-0.01l4.53,9.82l60.18-2.48l6.35-0.26L698.28,317.12z"/>
					<g>
						<path class="st12" d="M582.76,197.17c-0.21-3.45-0.46-6.9-0.77-10.38c-28.19-2.01-56.26-2.01-84.45,0
							c-1.91,21.05-1.91,41.56,0,62.6c0.88,0.06,1.76,0.11,2.63,0.16c2.26,0.15,4.52,0.3,6.78,0.42
							c24.07,1.33,48.07,1.19,72.14-0.41c0.96-0.06,1.93-0.11,2.89-0.18c0.48-5.25,0.84-10.47,1.07-15.67v-31.26
							C582.99,200.7,582.87,198.93,582.76,197.17z"/>
						<path class="st3" d="M488.27,181.68v74.61h8.01h6.96H575h4.17h5.85v-74.61H488.27z M578.09,251.06
							c-0.96,0.07-1.93,0.12-2.89,0.18c-24.08,1.6-48.08,1.74-72.14,0.41c-2.26-0.13-4.52-0.27-6.78-0.42
							c-0.88-0.06-1.76-0.1-2.63-0.16c-1.91-21.04-1.91-41.55,0-62.6c28.19-2.01,56.26-2.01,84.45,0c0.32,3.47,0.56,6.93,0.77,10.38
							c0.11,1.77,0.22,3.53,0.3,5.29v31.26C578.93,240.59,578.57,245.81,578.09,251.06z"/>
						<path class="st3" d="M550.16,268.12c-4.78,0.17-8.94,0.3-11.66,0.35c-4.12,0.08-10.54-0.07-17.47-0.31
							c-5.54-0.19-11.41-0.44-16.68-0.69c0.8,1.34,2.3,2.26,4.05,2.56c2.47,0.44,5.12,0.79,7.88,1.09
							c11.61,1.25,25.44,1.28,38.88,0.36c5.24-0.36,10.43-0.86,15.39-1.5c1.74-0.22,3.18-1.3,3.7-2.79
							C566.81,267.5,557.71,267.86,550.16,268.12z"/>
						<path class="st3" d="M588.49,174.72c0,0-36.63-1.48-49-1.48c-12.98,0-52.43,1.48-52.43,1.48c-1.5,0-2.71,1.22-2.71,2.71v86.45
							c0,1.5,1.22,2.71,2.71,2.71c0,0,3.71,0.21,9.21,0.49c2.4,0.12,5.14,0.26,8.07,0.39c5.27,0.25,11.13,0.5,16.68,0.69
							c6.93,0.24,13.36,0.39,17.47,0.31c2.73-0.05,6.89-0.18,11.66-0.35c7.55-0.26,16.65-0.63,24.08-0.93
							c1.75-0.07,3.4-0.14,4.92-0.2c5.55-0.23,9.33-0.4,9.33-0.4c1.5,0,2.71-1.22,2.71-2.71v-86.45
							C591.21,175.93,589.99,174.72,588.49,174.72z M585.02,256.29h-5.85H575h-71.76h-6.96h-8.01v-74.61h96.75V256.29z"/>
						<path class="st3" d="M563.32,273.44h-8.82h-4.08l0.53,2.01l0.77,2.92c0,3.13-7.33,5.67-16.37,5.67s-16.37-2.54-16.37-5.67
							c0-0.19,0.44-1.82,0.8-3.14c0.25-0.91,0.46-1.66,0.46-1.66l-3.45-0.13H504.5v10.15l64.97,1.23L563.32,273.44z"/>
						<path class="st3" d="M519.78,275.24c-0.36,1.31-0.8,2.95-0.8,3.14c0,3.13,7.33,5.67,16.37,5.67s16.37-2.54,16.37-5.67
							l-0.77-2.92c-3.59,1.3-9.11,2.14-15.3,2.14C529.12,277.59,523.34,276.66,519.78,275.24z"/>
						<path class="st3" d="M550.42,273.44h-2.95h-4.11l-23.12,0.13c0,0-0.21,0.75-0.46,1.66c3.56,1.42,9.33,2.35,15.86,2.35
							c6.2,0,11.72-0.83,15.3-2.14L550.42,273.44z"/>
						<path class="st3" d="M574.24,267.19c-0.52,1.49-1.96,2.57-3.7,2.79c-4.96,0.64-10.15,1.14-15.39,1.5
							c-13.44,0.92-27.28,0.89-38.88-0.36c-2.76-0.3-5.41-0.65-7.88-1.09c-1.74-0.31-3.24-1.23-4.05-2.56
							c-2.93-0.14-5.67-0.27-8.07-0.39v6.37h8.23h12.28h10.57h16h4.11h2.95h4.08h8.82h15.84v-6.46
							C577.65,267.05,575.99,267.12,574.24,267.19z"/>
						<path class="st1" d="M607.97,265.33l-5.08,0.14l13.03,28.25c1.28-0.54,2.82-0.98,4.6-1.18L607.97,265.33z"/>
						<path class="st1" d="M653.01,264.41l-3.16-3.64l-43.44,1.17l1.56,3.38l12.55,27.21c1.4-0.15,2.96-0.16,4.67,0.06
							c1.26,0.16,2.37,0.36,3.36,0.57l-11.97-26.93l30.12-1.52L653.01,264.41z"/>
						<path class="st1" d="M663.15,263.9l-10.15,0.51l-6.3,0.32l-30.12,1.52l11.97,26.93c6.31,1.38,7.48,3.74,7.48,5.97
							c0,1.66,0.57,6.6-0.4,9.96l4.43,9.98l51.89-2.14l6.35-0.26l8.29-0.34L663.15,263.9z"/>
						<path class="st3" d="M636.54,282.85l7.71,26.79c0.07,0.26,0.31,0.43,0.58,0.41l22.21-1.11c0.4-0.02,0.65-0.43,0.5-0.8
							l-11.89-27.87c-0.18-0.43-0.63-0.7-1.1-0.65l-17,1.73C636.82,281.44,636.34,282.15,636.54,282.85z"/>
						<path class="st3" d="M636.03,299.14c0-2.23-1.17-4.59-7.48-5.97c-0.99-0.22-2.1-0.41-3.36-0.57
							c-1.72-0.22-3.27-0.22-4.67-0.06c-1.79,0.2-3.32,0.63-4.6,1.18c-1.43,0.61-2.55,1.34-3.37,2c-1.03,0.83-1.25,2.31-0.53,3.43
							c2.02,3.09,6.16,9.39,7.32,10.67c0.75,0.84,2.61,1.51,4.9,1.96c1.66,0.33,3.55,0.54,5.43,0.61c0.87,0.03,1.74,0.04,2.58,0.01
							c1.84-0.06,2.85-1.44,3.38-3.3C636.6,305.74,636.03,300.8,636.03,299.14z"/>
						<path class="st3" d="M682.33,275.51c0.7-0.3,3.08-1.69,5.17-1.19c2.09,0.5,13.41,13.71,12.12,14.51
							c-1.29,0.79-5.76,1.09-7.45,0.1c-1.69-0.99-11.23-11.52-11.23-12.02S682.33,275.51,682.33,275.51z"/>
						<path class="st3" d="M639.75,284.22l0.9,2.9c0.07,0.24,0.3,0.39,0.55,0.36l13.46-1.53c0.34-0.04,0.55-0.38,0.42-0.7
							l-1.01-2.58c-0.08-0.21-0.3-0.35-0.53-0.33l-13.35,1.21C639.87,283.58,639.65,283.9,639.75,284.22z"/>
					</g>
				</g>
				<polygon class="st3" points="600.09,287.22 569.02,286.63 504.05,285.4 484.01,285.01 473.57,312.46 613.79,313.83 				"/>
			</g>
			<g>
				<line class="st34" x1="504.93" y1="198.8" x2="555.18" y2="198.8"/>
				<line class="st34" x1="504.48" y1="205.97" x2="539.48" y2="205.97"/>
				<rect x="505.72" y="213.15" class="st34" width="58.78" height="27.37"/>
			</g>
			<g>
				<g>
					<g>
						<path class="st1" d="M275.09,163.26H202.4c-2.16,0-3.91-1.75-3.91-3.91V52.58c0-2.16,1.75-3.91,3.91-3.91h72.69
							c2.16,0,3.91,1.75,3.91,3.91v106.77C279,161.51,277.25,163.26,275.09,163.26z"/>
						<circle class="st1" cx="202.1" cy="52.28" r="1.31"/>
						<circle class="st1" cx="205.94" cy="52.28" r="1.31"/>
						<circle class="st1" cx="209.78" cy="52.28" r="1.31"/>
					</g>
				</g>
				<g>
					<g>
						<path class="st1" d="M272.79,164.89H200.1c-2.16,0-3.91-1.75-3.91-3.91V54.22c0-2.16,1.75-3.91,3.91-3.91h72.69
							c2.16,0,3.91,1.75,3.91,3.91v106.77C276.7,163.14,274.95,164.89,272.79,164.89z"/>
						<circle class="st1" cx="199.81" cy="53.92" r="1.31"/>
						<circle class="st1" cx="203.65" cy="53.92" r="1.31"/>
						<circle class="st1" cx="207.48" cy="53.92" r="1.31"/>
					</g>
				</g>
				<g>
					<g>
						<path class="st7" d="M275.09,163.26H202.4c-2.16,0-3.91-1.75-3.91-3.91V52.58c0-2.16,1.75-3.91,3.91-3.91h72.69
							c2.16,0,3.91,1.75,3.91,3.91v106.77C279,161.51,277.25,163.26,275.09,163.26z"/>
						<circle class="st7" cx="202.1" cy="52.28" r="1.31"/>
						<circle class="st7" cx="205.94" cy="52.28" r="1.31"/>
						<circle class="st7" cx="209.78" cy="52.28" r="1.31"/>
					</g>
				</g>
				<g>
					<polyline class="st12" points="258.36,73.41 260.89,74.87 260.91,66.97 254.09,70.94 256.62,72.4 					"/>
				</g>
				<path class="st7" d="M206.52,113.04c0,0,6.5-29.88,14.55-27.02c8.06,2.86,22.35,18.71,37.42-13.77"/>
				<polyline class="st7" points="206.33,60.23 206.33,112.84 272.52,112.84 				"/>
				<line class="st7" x1="272.32" y1="111.06" x2="272.32" y2="114.64"/>
				<line class="st7" x1="208.07" y1="59.98" x2="204.42" y2="59.98"/>
				<line class="st7" x1="198.3" y1="55.41" x2="278.67" y2="55.41"/>
				<g>
					<line class="st7" x1="210.94" y1="127" x2="268.86" y2="127"/>
					<line class="st7" x1="210.94" y1="136.91" x2="268.71" y2="136.91"/>
					<line class="st7" x1="210.94" y1="146.81" x2="268.55" y2="146.81"/>
				</g>
			</g>
			<g>
				<g>
					<path class="st1" d="M207.47,244.44h-97.42c-2.89,0-5.24-2.35-5.24-5.24V96.11c0-2.89,2.35-5.24,5.24-5.24h97.42
						c2.89,0,5.24,2.35,5.24,5.24V239.2C212.71,242.09,210.36,244.44,207.47,244.44z"/>
					<path class="st1" d="M205.83,242.48h-97.42c-2.89,0-5.24-2.35-5.24-5.24V94.14c0-2.89,2.35-5.24,5.24-5.24h97.42
						c2.89,0,5.24,2.35,5.24,5.24v143.09C211.07,240.13,208.72,242.48,205.83,242.48z"/>
					<path class="st7" d="M207.47,244.44h-97.42c-2.89,0-5.24-2.35-5.24-5.24V96.11c0-2.89,2.35-5.24,5.24-5.24h97.42
						c2.89,0,5.24,2.35,5.24,5.24V239.2C212.71,242.09,210.36,244.44,207.47,244.44z"/>
					<path class="st7" d="M104.55,100.01c1.59,0,107.35,0,107.35,0"/>
					<circle class="st7" cx="109.65" cy="95.71" r="1.75"/>
					<circle class="st7" cx="114.79" cy="95.71" r="1.75"/>
					<circle class="st7" cx="119.94" cy="95.71" r="1.75"/>
				</g>
				<g>
					<g>
						<line class="st7" x1="112.48" y1="114.04" x2="203.15" y2="114.04"/>
						<line class="st7" x1="112.48" y1="122.93" x2="194.1" y2="122.93"/>
						<line class="st7" x1="112.48" y1="131.81" x2="185.05" y2="131.81"/>
						<line class="st7" x1="112.48" y1="140.69" x2="176.01" y2="140.69"/>
						<line class="st7" x1="112.48" y1="149.57" x2="166.96" y2="149.57"/>
						<line class="st7" x1="112.48" y1="158.46" x2="157.91" y2="158.46"/>
					</g>
					<g>
						<g>
							<g>
								<g>
									<rect x="119.64" y="176.11" class="st3" width="9.25" height="44.68"/>
									<rect x="119.64" y="214.25" class="st6" width="9.25" height="6.54"/>
								</g>
								<g>
									<rect x="134.18" y="176.11" class="st3" width="9.25" height="44.68"/>
									<rect x="134.18" y="209.24" class="st6" width="9.25" height="11.55"/>
								</g>
								<g>
									<rect x="148.72" y="176.11" class="st3" width="9.25" height="44.68"/>
									<rect x="148.72" y="204.66" class="st6" width="9.25" height="16.13"/>
								</g>
								<g>
									<rect x="163.26" y="176.11" class="st3" width="9.25" height="44.68"/>
									<rect x="163.26" y="198.56" class="st6" width="9.25" height="22.23"/>
								</g>
								<g>
									<rect x="177.8" y="176.11" class="st3" width="9.25" height="44.68"/>
									<rect x="177.8" y="191.15" class="st6" width="9.25" height="29.64"/>
								</g>
								<g>
									<rect x="192.6" y="176.11" class="st3" width="9.25" height="44.68"/>
									<rect x="192.6" y="185.26" class="st6" width="9.25" height="35.52"/>
								</g>
							</g>
						</g>
					</g>
					<g>
						<g>
							<g>
								<g>
									<rect x="118.63" y="175.11" class="st7" width="9.25" height="44.68"/>
									<rect x="118.63" y="213.25" class="st7" width="9.25" height="6.54"/>
								</g>
								<g>
									<rect x="133.18" y="175.11" class="st7" width="9.25" height="44.68"/>
									<rect x="133.18" y="208.23" class="st7" width="9.25" height="11.55"/>
								</g>
								<g>
									<rect x="147.72" y="175.11" class="st7" width="9.25" height="44.68"/>
									<rect x="147.72" y="203.66" class="st7" width="9.25" height="16.13"/>
								</g>
								<g>
									<rect x="162.26" y="175.11" class="st7" width="9.25" height="44.68"/>
									<rect x="162.26" y="197.55" class="st7" width="9.25" height="22.23"/>
								</g>
								<g>
									<rect x="176.8" y="175.11" class="st7" width="9.25" height="44.68"/>
									<rect x="176.8" y="190.14" class="st7" width="9.25" height="29.64"/>
								</g>
								<g>
									<rect x="191.6" y="175.11" class="st7" width="9.25" height="44.68"/>
									<rect x="191.6" y="184.26" class="st7" width="9.25" height="35.52"/>
								</g>
							</g>
						</g>
					</g>
				</g>
			</g>
			<g>
				<path class="st7" d="M462,236.48h-57.02c-0.48,0-0.86-0.39-0.86-0.86v-17.63c0-0.48,0.39-0.86,0.86-0.86H462
					c0.48,0,0.86,0.39,0.86,0.86v17.63C462.86,236.1,462.48,236.48,462,236.48z"/>
				<path class="st7" d="M462,213.45h-57.02c-0.48,0-0.86-0.39-0.86-0.86v-17.63c0-0.48,0.39-0.86,0.86-0.86H462
					c0.48,0,0.86,0.39,0.86,0.86v17.63C462.86,213.07,462.48,213.45,462,213.45z"/>
				<path class="st7" d="M407.62,256.51h37.73c1.01,0,1.83-0.82,1.83-1.83v-11.69c0-1.01-0.82-1.83-1.83-1.83h-37.73
					c-1.01,0-1.83,0.82-1.83,1.83v11.69C405.79,255.69,406.61,256.51,407.62,256.51z"/>
				<g>
					<path class="st7" d="M469.05,162.1c0,0,0.03,0,0.06,0.01C469.09,162.11,469.07,162.1,469.05,162.1z"/>
					<path class="st7" d="M487.06,173.31c0,0,0.78-0.03,2.16-0.08c-0.04-5.23-0.14-8.45-0.32-8.51c-0.9-0.3-16.36-2.2-19.35-2.56
						c1,0.23,1.74,1.12,1.74,2.18v129.19L484,272.69v-96.32C484,174.68,485.37,173.31,487.06,173.31z"/>
					<path class="st7" d="M469.55,162.16c-0.14-0.03-0.29-0.05-0.44-0.05c-0.04,0-0.06-0.01-0.06-0.01h-69.54
						c-1.24,0-2.24,1.01-2.24,2.24v129.19c0,1.24,1.01,2.24,2.24,2.24h69.54c1.24,0,2.24-1.01,2.24-2.24V164.34
						C471.29,163.28,470.55,162.39,469.55,162.16z"/>
					<path class="st7" d="M469.11,162.11c0.15,0.01,0.3,0.02,0.44,0.05C469.33,162.13,469.19,162.12,469.11,162.11z"/>
				</g>
				<g>
					<path class="st7" d="M629.63,311.73c-1.88-0.07-3.77-0.28-5.43-0.61l6.43,13.96l66.53-2.74l-2.83-3.26l-60.18,2.48
						L629.63,311.73z"/>
					<path class="st7" d="M698.27,316.02l-6.35,0.26l-51.89,2.14l-4.43-9.98c-0.54,1.86-1.54,3.23-3.38,3.3
						c-0.84,0.03-1.71,0.02-2.58-0.01l4.53,9.82l60.18-2.48l6.35-0.26L698.27,316.02z"/>
					<g>
						<path class="st7" d="M488.25,180.59v74.61h8.01h6.96h71.76h4.17h5.85v-74.61H488.25z M578.08,249.97
							c-0.96,0.07-1.93,0.12-2.89,0.18c-24.08,1.6-48.08,1.74-72.14,0.41c-2.26-0.13-4.52-0.27-6.78-0.42
							c-0.88-0.06-1.76-0.1-2.63-0.16c-1.91-21.04-1.91-41.55,0-62.6c28.19-2.01,56.26-2.01,84.45,0c0.32,3.47,0.56,6.93,0.77,10.38
							c0.11,1.77,0.22,3.53,0.3,5.29v31.26C578.91,239.5,578.55,244.71,578.08,249.97z"/>
						<path class="st7" d="M578.85,197.74c-0.21-3.45-0.46-6.9-0.77-10.38c-28.19-2.01-56.26-2.01-84.45,0
							c-1.91,21.05-1.91,41.56,0,62.6c0.88,0.06,1.76,0.11,2.63,0.16c2.26,0.15,4.52,0.3,6.78,0.42
							c24.07,1.33,48.07,1.19,72.14-0.41c0.96-0.06,1.93-0.11,2.89-0.18c0.48-5.25,0.84-10.47,1.07-15.67v-31.26
							C579.07,201.28,578.96,199.51,578.85,197.74z"/>
						<path class="st7" d="M550.15,267.03c-4.78,0.17-8.94,0.3-11.66,0.35c-4.12,0.08-10.54-0.07-17.47-0.31
							c-5.54-0.19-11.41-0.44-16.68-0.69c0.8,1.34,2.3,2.26,4.05,2.56c2.47,0.44,5.12,0.79,7.88,1.09
							c11.61,1.25,25.44,1.28,38.88,0.36c5.24-0.36,10.43-0.86,15.39-1.5c1.74-0.22,3.18-1.3,3.7-2.79
							C566.79,266.4,557.7,266.77,550.15,267.03z"/>
						<path class="st7" d="M588.48,173.62c0,0-36.63-1.48-49-1.48c-12.98,0-52.43,1.48-52.43,1.48c-1.5,0-2.71,1.22-2.71,2.71v86.45
							c0,1.5,1.22,2.71,2.71,2.71c0,0,3.71,0.21,9.21,0.49c2.4,0.12,5.14,0.26,8.07,0.39c5.27,0.25,11.13,0.5,16.68,0.69
							c6.93,0.24,13.36,0.39,17.47,0.31c2.73-0.05,6.89-0.18,11.66-0.35c7.55-0.26,16.65-0.63,24.08-0.93
							c1.75-0.07,3.4-0.14,4.92-0.2c5.55-0.23,9.33-0.4,9.33-0.4c1.5,0,2.71-1.22,2.71-2.71v-86.45
							C591.19,174.84,589.98,173.62,588.48,173.62z M585.01,255.19h-5.85h-4.17h-71.76h-6.96h-8.01v-74.61h96.75V255.19z"/>
						<path class="st7" d="M563.31,272.35h-8.82h-4.08l0.53,2.01l0.77,2.92c0,3.13-7.33,5.67-16.37,5.67
							c-9.04,0-16.37-2.54-16.37-5.67c0-0.19,0.44-1.82,0.8-3.14c0.25-0.91,0.46-1.66,0.46-1.66l-3.45-0.13h-12.28v10.15l64.97,1.23
							L563.31,272.35z"/>
						<path class="st7" d="M519.77,274.15c-0.36,1.31-0.8,2.95-0.8,3.14c0,3.13,7.33,5.67,16.37,5.67c9.04,0,16.37-2.54,16.37-5.67
							l-0.77-2.92c-3.59,1.3-9.11,2.14-15.3,2.14C529.1,276.5,523.32,275.57,519.77,274.15z"/>
						<path class="st7" d="M550.4,272.35h-2.95h-4.11l-23.12,0.13c0,0-0.21,0.75-0.46,1.66c3.56,1.42,9.33,2.35,15.86,2.35
							c6.2,0,11.72-0.83,15.3-2.14L550.4,272.35z"/>
						<path class="st7" d="M574.23,266.1c-0.52,1.49-1.96,2.57-3.7,2.79c-4.96,0.64-10.15,1.14-15.39,1.5
							c-13.44,0.92-27.28,0.89-38.88-0.36c-2.76-0.3-5.41-0.65-7.88-1.09c-1.74-0.31-3.24-1.23-4.05-2.56
							c-2.93-0.14-5.67-0.27-8.07-0.39v6.37h8.23h12.28h10.57h16h4.11h2.95h4.08h8.82h15.84v-6.46
							C577.63,265.96,575.97,266.03,574.23,266.1z"/>
						<path class="st7" d="M607.96,264.23l-5.08,0.14l13.03,28.25c1.28-0.54,2.82-0.98,4.6-1.18L607.96,264.23z"/>
						<path class="st7" d="M652.99,263.32l-3.16-3.64l-43.44,1.17l1.56,3.38l12.55,27.21c1.4-0.15,2.96-0.16,4.67,0.06
							c1.26,0.16,2.37,0.36,3.36,0.57l-11.97-26.93l30.12-1.52L652.99,263.32z"/>
						<path class="st7" d="M663.14,262.8l-10.15,0.51l-6.3,0.32l-30.12,1.52l11.97,26.93c6.31,1.38,7.48,3.74,7.48,5.97
							c0,1.66,0.57,6.6-0.4,9.96l4.43,9.98l51.89-2.14l6.35-0.26l8.29-0.34L663.14,262.8z"/>
						<path class="st7" d="M636.52,281.76l7.71,26.79c0.07,0.26,0.31,0.43,0.58,0.41l22.21-1.11c0.4-0.02,0.65-0.43,0.5-0.8
							l-11.89-27.87c-0.18-0.43-0.63-0.7-1.1-0.65l-17,1.73C636.8,280.35,636.32,281.06,636.52,281.76z"/>
						<path class="st7" d="M636.02,298.05c0-2.23-1.17-4.59-7.48-5.97c-0.99-0.22-2.1-0.41-3.36-0.57
							c-1.72-0.22-3.27-0.22-4.67-0.06c-1.79,0.2-3.32,0.63-4.6,1.18c-1.43,0.61-2.55,1.34-3.37,2c-1.03,0.83-1.25,2.31-0.53,3.43
							c2.02,3.09,6.16,9.39,7.32,10.67c0.75,0.84,2.61,1.51,4.9,1.96c1.66,0.33,3.55,0.54,5.43,0.61c0.87,0.03,1.74,0.04,2.58,0.01
							c1.84-0.06,2.85-1.44,3.38-3.3C636.59,304.65,636.02,299.71,636.02,298.05z"/>
						<path class="st7" d="M617.73,296.77c0.6-0.4,13.11-3.18,15.9-2.78"/>
						<path class="st7" d="M578.99,270.54c0,0,5.56,4.97,12.72,3.38s11.52,0,12.12,4.17c0.6,4.17,0.6,11.72,4.37,12.92
							c3.78,1.19,5.36,0.2,5.96,1.99c0,0,4.17,3.38,5.36,7.15c1.19,3.78,3.17,11.56,10.13,11.14"/>
						<line class="st7" x1="656.68" y1="267.16" x2="623.5" y2="268.95"/>
						<line class="st7" x1="651.51" y1="270.54" x2="627.47" y2="272.33"/>
						<line class="st7" x1="642.37" y1="275.31" x2="629.06" y2="276.3"/>
						<line class="st7" x1="660.45" y1="274.51" x2="644.96" y2="275.31"/>
						<path class="st12" d="M671.44,285.94l11.47,15.17c0.29,0.38,0.79,0.56,1.28,0.44l0,0c0.82-0.19,1.18-1.11,0.69-1.76
							l-21.69-28.74c-0.36-0.48-0.89-0.83-1.5-0.99c-1.12-0.28-2.82-0.6-2.82,0.07c0,0.82,6.72,10.67,9.06,14.07
							c0.51,0.73,1.29,1.25,2.2,1.45L671.44,285.94z"/>
						<path class="st7" d="M682.31,274.41c0.7-0.3,3.08-1.69,5.17-1.19c2.09,0.5,13.41,13.71,12.12,14.51
							c-1.29,0.79-5.76,1.09-7.45,0.1c-1.69-0.99-11.23-11.52-11.23-12.02S682.31,274.41,682.31,274.41z"/>
						<circle class="st12" cx="578.48" cy="260.93" r="1.59"/>
						<path class="st7" d="M639.74,283.12l0.9,2.9c0.07,0.24,0.3,0.39,0.55,0.36l13.46-1.53c0.34-0.04,0.55-0.38,0.42-0.7
							l-1.01-2.58c-0.08-0.21-0.3-0.35-0.53-0.33l-13.35,1.21C639.85,282.49,639.64,282.81,639.74,283.12z"/>
						<line class="st7" x1="641.87" y1="288.87" x2="645.23" y2="288.5"/>
						<line class="st7" x1="646.88" y1="288.26" x2="650.18" y2="287.95"/>
						<line class="st7" x1="651.83" y1="287.59" x2="655.86" y2="287.16"/>
						<path class="st7" d="M642.91,292.6c0.43-0.06,3.12-0.43,3.12-0.43"/>
						<path class="st7" d="M653.05,291.25c1.47-0.12,4.52-0.55,4.52-0.55"/>
						<line class="st7" x1="643.33" y1="295.84" x2="658.25" y2="293.82"/>
						<line class="st7" x1="644.31" y1="298.77" x2="647.31" y2="298.53"/>
						<line class="st7" x1="649.26" y1="298.04" x2="652.5" y2="297.67"/>
						<line class="st7" x1="647.86" y1="291.93" x2="651.28" y2="291.74"/>
						<line class="st7" x1="654.34" y1="297.18" x2="660.26" y2="296.57"/>
					</g>
				</g>
				<polygon class="st7" points="600.53,284.33 569.45,283.74 504.49,282.5 484.45,282.12 474,309.57 614.22,310.94 				"/>
				<polyline class="st7" points="475.35,305.76 608.9,307.37 599.48,283.97 				"/>
				<line class="st7" x1="408.73" y1="203.95" x2="455.83" y2="203.95"/>
				<line class="st7" x1="410.04" y1="227.07" x2="456.27" y2="227.07"/>
				<line class="st7" x1="410.04" y1="248" x2="444.5" y2="248"/>
				<circle class="st7" cx="456.65" cy="253.24" r="1.54"/>
				<circle class="st7" cx="456.21" cy="264.69" r="3.74"/>
				<path class="st7" d="M458.97,211.62h-5.95c-0.79,0-1.43-0.64-1.43-1.43l0,0c0-0.79,0.64-1.43,1.43-1.43h5.95
					c0.79,0,1.43,0.64,1.43,1.43l0,0C460.4,210.98,459.75,211.62,458.97,211.62z"/>
				<path class="st7" d="M459.08,234.75h-1.32c-0.73,0-1.32-0.59-1.32-1.32l0,0c0-0.73,0.59-1.32,1.32-1.32h1.32
					c0.73,0,1.32,0.59,1.32,1.32l0,0C460.4,234.15,459.8,234.75,459.08,234.75z"/>
				<path class="st7" d="M450.93,234.75h1.1c0.73,0,1.32-0.59,1.32-1.32l0,0c0-0.73-0.59-1.32-1.32-1.32h-1.1
					c-0.73,0-1.32,0.59-1.32,1.32l0,0C449.61,234.15,450.2,234.75,450.93,234.75z"/>
			</g>
			<g>
				<path class="st1" d="M573.31,482.32c-2.82-9.58-89.56-28.16-95.75-29.85c-4.41-1.2-49.61-10.68-75.31-16.04
					c-1.94-3.43-9.19-10.45-8.96-18.86c0.26-9.7-1.57-17.56-4.19-27.78c-0.07-0.29-0.16-0.54-0.24-0.82
					c18.78,7.84,32.5-23.14,32.5-24.5c0-0.46-0.4-0.89-0.94-1.26c0.98-2.2,1.63-3.84,1.63-3.84c2.78-1.16,5.33-8.11,6.49-10.9
					c1.16-2.78,3.94-2.78,2.32-7.65c-1.62-4.87-0.23-5.56-0.23-5.56c4.17-4.17,0-9.74,0-9.74s-3.51-3.89-10.41-6.63l18.72-28.76
					l5.07-7.8c1.34-2.47-0.18-5.53-2.96-5.96l-58.25-9.22c-0.07-2.25-0.22-4.32-0.49-6.26c-1.64-11.91-7.45-18.27-22.05-24.15
					c-16.04-6.46-37.36-8.94-43.4-9.54c0.01-0.58-0.02-1-0.09-1.22c-0.53-1.58-3.16-2.88-5.53-3.76c2.86-4.35,5.52-9.43,7.54-15.07
					c1.09-3.05,1.92-6.34,2.55-9.72c2,0.91,4.46,1.77,5.46,1.11c1.8-1.2-2.4-6.41-0.6-8.82c1.8-2.4,7.41-1.4,6.01-5.81
					c-1.4-4.41,3.41-2,4.01-6.21s2.8,0.4,4.61-3.61s-7.61-7.81-5.81-12.82c1.8-5.01,8.01-8.21,1.6-11.22
					c-6.41-3.01-8.21-4.01-6.81-9.02c1.4-5.01,0.6-9.82-6.21-11.22c-6.81-1.4-7.41-10.02-15.03-10.82c0,0-1.8,2.4-4.41,2.4
					s-9.82-6.21-13.22-6.01s-11.82,0.2-15.83-1.2c-4.01-1.4-5.81,6.21-7.61,6.21c-1.8,0-10.42-1.6-13.62,0.6
					c-3.21,2.2-6.61,4.01-11.82,7.41c-5.21,3.41-1.4,7.61-2,10.22c-0.6,2.6-8.01,6.41-8.61,10.22c-0.6,3.81,1,3.81-2,8.41
					c-3.01,4.61-2.4,2.8-0.8,7.21c1.6,4.41-3.21,3.41-4.01,5.81c-0.8,2.4,3.61,3.41,2.2,5.01c-1.4,1.6-4.81,2.4-0.4,4.01
					s6.21-1.4,5.81,5.21c0,0,1.8,15.23,5.81,17.23c4.01,2,5.41,6.01,6.81,7.01c1.4,1,1.4-1.4,3.21-3.01c1.8-1.6,2.6,3.61,4.61,2.4
					c0.33-0.2,0.6-0.48,0.82-0.81c0.25,4.96,0.06,10.8-1,17.37c-2.67-0.03-5.53,0.16-6.04,1.07c-25.09,22.92-41.4,18.17-57.08,20.33
					c-15.68,2.16-25.95,16.22-32.98,27.03s-25.41,19.46-36.76,34.6c-11.35,15.14,10.81,25.95,20,28.11
					c3.76,0.88,14.12,0.32,25.06-0.65c-0.95,32.53-3.06,156.72,19.42,179.2c13.68,13.68,37.57,15.9,57.07,14.94
					c1.97,1.45,3.34,2.22,3.34,2.22c24.39,3.07,47.15-2.19,67.38-11.54l234.39,29.3C546.27,549.34,576.13,491.89,573.31,482.32z"/>
				<path class="st1" d="M266.66,267.29c3.29,1,6.87,1.52,10.54,1.07c-2.54-1.14-5.51-3.58-7.6-5.48
					C268.89,264.05,267.86,265.59,266.66,267.29z"/>
				<path class="st1" d="M286.41,247.08c-0.28,0.27-0.44,0.42-0.44,0.42s-1.06,14.49-3.83,19.62c4.72-1.81,9.4-5.57,13.6-12.27
					C292.96,251.99,289.76,249.15,286.41,247.08z"/>
				<path class="st30" d="M318.44,156.66c-0.73-1.29-1.73-2.66-3.03-4.04c-3.41-3.61-11.82-1.4-15.23-3.41
					c-3.41-2-3.61-1.2-7.81-0.2c-4.21,1-14.02-7.21-15.83-5.81s-2,2.8-2,2.8c-3.81,0.8-0.6,4.61-3.81,10.22
					c-3.21,5.61-6.61,3.41-8.01,4.41c-1.4,1-1.8,5.61-5.01,10.42c-3.21,4.81-9.42,1-9.42,1c-0.4,2.6-2.4,2.8-5.01,5.41
					c-1.28,1.28-1.01,4.29-0.41,7.03c1.26,2.05,3.05,3.34,4.55,4.11c1.59,0.82,2.87,1.07,2.87,1.07s1.4,4.81,8.01,18.03
					c6.61,13.22,20.24,25.64,30.45,25.64c0.42,0,0.91-0.1,1.44-0.27c3.38-1.09,8.86-5.53,14.11-12.42c0.93-1.22,1.86-2.53,2.76-3.9
					c2.86-4.35,5.52-9.43,7.54-15.07c1.09-3.05,1.92-6.34,2.55-9.72c1.66-8.9,1.92-18.38,1.76-25.62c0.46-2.37,0.8-4.08,0.89-4.53
					C320.06,160.6,319.62,158.75,318.44,156.66z"/>
				<path class="st30" d="M291.81,235.73c-0.56,0.17-1.06,0.27-1.5,0.27c-10.61,0-24.75-12.34-31.61-25.48
					c-6.86-13.14-8.32-17.92-8.32-17.92s-1.32-0.25-2.98-1.07c0.36,1.41,0.74,3.12,1.08,5.11c1.05,1.08,1.9,2.08,1.9,2.53
					c0,1,0.14,3.92-1.02,5.56c0.26,4.93,0.06,10.73-1.03,17.25c-0.46,2.76-1.08,5.63-1.9,8.63l22.67,29.86c0,0,1.12,1.11,2.76,2.54
					c2.17,1.89,5.26,4.31,7.89,5.44c1.7-0.2,3.42-0.6,5.13-1.23c2.87-5.1,3.97-19.49,3.97-19.49s0.16-0.15,0.46-0.42
					c-1.32-0.78-2.65-1.45-3.99-1.97C284.93,245.2,287.99,240.88,291.81,235.73z"/>
				<path class="st1" d="M311.21,222.86c-0.53-1.58-3.16-2.88-5.53-3.76c-0.9,1.37-1.83,2.68-2.76,3.9
					c-5.25,6.89-10.73,11.33-14.11,12.42c-3.68,5.18-6.62,9.54-6.25,9.68c1.29,0.52,2.58,1.2,3.85,1.99
					c3.35,2.07,6.55,4.91,9.33,7.77c5.45,5.61,9.26,11.28,9.26,11.28s6.2-34.64,6.3-42.06C311.31,223.5,311.28,223.08,311.21,222.86
					z"/>
				<path class="st1" d="M266.93,260.32l-21.84-30.05c0.79-3.02,1.38-5.91,1.83-8.69c-2.67-0.03-5.53,0.16-6.04,1.07
					c-1,1.8-13.22,25.04-13.22,25.04s27.65,35.26,28.05,34.46c0.26-0.52,6.63-8.74,10.94-14.87c1.2-1.71,2.24-3.24,2.94-4.41
					C268.01,261.45,266.93,260.32,266.93,260.32z"/>
				<path class="st30" d="M335.35,286.3c-12.29-5.33-16.46-7.65-31.07-6.95c0,0-5.56-7.88-15.07-6.49
					c-9.51,1.39-12.06,6.26-14.84,6.49c-2.78,0.23-11.36,1.85-16.92,5.8c-3.76,2.66-22.49,4.17-22.49,4.17s3.48,23.41,6.49,25.96
					c0,0,12.75-3.71,27.59,1.16c14.84,4.87,28.05,2.32,35.01-2.09c0,0,19.01,4.17,24.81,0.46c5.8-3.71,4.4-6.26-4.4-10.2l-9.04-1.85
					c0,0,4.4-4.87,0.46-10.43c0,0,3.41-0.13,6.26,0.23c12.29,1.56,19.39,6.99,19.89,7.38l4.76-7.71
					C344.67,290.82,341.15,288.82,335.35,286.3z"/>
				<path class="st4" d="M407.68,371.53c-2.67,0.22-23.77,6.01-22.3-8.59c-0.35-0.18-0.71-0.37-1.06-0.57l-5.57,8.55
					c-0.86,1.48-2.17,2.58-3.69,3.21c2.35,1.52,6.19,4.59,8.24,11.7c18.78,7.84,32.5-23.14,32.5-24.5c0-0.46-0.4-0.89-0.94-1.26
					C412.86,364.55,409.54,371.38,407.68,371.53z"/>
				<path class="st1" d="M407.44,362.26c-2.91,0.43-4.23,9.93-22.07,0.68c-1.47,14.6,19.62,8.82,22.3,8.59
					c1.87-0.16,5.19-6.98,7.18-11.46c-0.35-0.24-0.75-0.46-1.14-0.64C412.25,360.65,410.18,361.85,407.44,362.26z"/>
				<path class="st30" d="M430.22,334.41c4.17-4.17,0-9.74,0-9.74s-3.51-3.89-10.41-6.63c-3.89-1.55-8.84-2.73-14.86-2.65
					c-16.69,0.23-12.06,9.74-12.06,9.74c-21.33,1.62-12.75,9.5-12.75,9.5c-2.18,1.05-3.61,2.05-4.52,2.99
					c-1.9,1.97-1.42,3.67-0.36,4.92c1.24,1.45,3.25,2.3,3.25,2.3l10.31,7.05l6.2,4.24l-2.2,3.37l-3.36,5.16
					c0.36,0.19,0.72,0.39,1.06,0.57c17.84,9.25,19.16-0.25,22.07-0.68c2.73-0.4,4.8-1.61,6.27-2.83c0.39,0.18,0.79,0.4,1.14,0.64
					c0.98-2.2,1.63-3.84,1.63-3.84c2.78-1.16,5.33-8.11,6.49-10.9c1.16-2.78,3.94-2.78,2.32-7.65
					C428.83,335.11,430.22,334.41,430.22,334.41z"/>
				<path class="st12" d="M435.5,273.24l-51.83-9l-8.07-1.28l-0.71-0.11c-2.91-0.45-5.81,0.92-7.3,3.47l-14.37,23.27l-4.76,7.71
					l-39.83,64.49c-2.54,4.32,0.37,9.8,5.37,10.12l52.82,2.58l4.86,0.23c1.18,0.08,2.33-0.14,3.39-0.57
					c1.52-0.63,2.83-1.73,3.69-3.21l5.57-8.55l3.36-5.16l2.2-3.37l-6.2-4.24l-10.31-7.05c0,0-2.02-0.85-3.25-2.3
					c-1.07-1.25-1.54-2.94,0.36-4.92c0.9-0.94,2.34-1.94,4.52-2.99c0,0-8.58-7.88,12.75-9.5c0,0-4.64-9.5,12.06-9.74
					c6.02-0.08,10.97,1.1,14.86,2.65l18.72-28.76l5.07-7.8C439.79,276.72,438.28,273.67,435.5,273.24z"/>
				<path class="st12" d="M225.52,515.65c-14.61-2.48-29.87-8.58-33.46-22.95c-7.32-29.29-10.7-139.69-14.08-153.21
					c-0.85-3.41-0.34-6.6,0.89-9.47c-5.82,0.68-12.89,1.45-19.75,2.06c-0.95,32.53-3.06,156.72,19.42,179.2
					c13.68,13.68,37.57,15.9,57.07,14.94C232.73,524.1,228.57,520.49,225.52,515.65z"/>
				<path class="st12" d="M179.13,337.77c3.38,13.52,6.76,123.92,14.08,153.21c3.59,14.37,18.85,20.47,33.46,22.95
					c-2.49-3.96-4.23-8.75-3.87-14.24c1.08-16.76-10.81-66.5-11.35-69.74c-0.54-3.24-28.65-84.34-18.38-103.26
					c0,0-5.45,0.73-13.04,1.61C178.78,331.17,178.27,334.36,179.13,337.77z"/>
				<path class="st5" d="M470.28,452.19c-4.41-1.2-49.61-10.68-75.31-16.04c0.3,0.53,0.47,0.97,0.47,1.32
					c0,1.91-36.18,57.05-90.83,82.3L539,549.07c0,0,29.85-57.45,27.04-67.03C563.22,472.47,476.48,453.88,470.28,452.19z"/>
				<path class="st4" d="M401.27,435c-1.94-3.43-9.19-10.45-8.96-18.86c0.26-9.7-1.57-17.56-4.19-27.78
					c-0.07-0.29-0.16-0.54-0.24-0.82c-2.05-7.1-5.89-10.18-8.24-11.7c-1.05,0.44-2.21,0.65-3.39,0.57l-4.86-0.23l-59.24-2.8
					c-5-0.32-7.91-5.8-5.37-10.12l39.83-64.49c-0.5-0.39-7.6-5.82-19.89-7.38c-2.84-0.36-6.26-0.23-6.26-0.23
					c3.94,5.56-0.46,10.43-0.46,10.43l9.04,1.85c8.81,3.94,10.2,6.49,4.4,10.2c-5.8,3.71-24.81-0.46-24.81-0.46
					c-6.95,4.4-20.17,6.95-35.01,2.09c-14.84-4.87-27.59-1.16-27.59-1.16c-3.01-2.55-6.49-25.96-6.49-25.96s18.73-1.51,22.49-4.17
					c5.56-3.94,14.14-5.56,16.92-5.8s5.33-5.1,14.84-6.49c9.51-1.39,15.07,6.49,15.07,6.49c14.61-0.7,18.78,1.62,31.07,6.95
					c5.8,2.52,9.33,4.52,11.44,5.93l14.37-23.27c1.49-2.54,4.39-3.92,7.3-3.47l0.71,0.11l8.07,1.28c-0.07-2.25-0.22-4.32-0.49-6.26
					c-1.64-11.91-7.45-18.27-22.05-24.15c-16.04-6.46-37.36-8.94-43.4-9.54c-0.1,7.42-6.3,42.06-6.3,42.06s-3.81-5.67-9.26-11.28
					c-4.2,6.71-8.88,10.46-13.6,12.27c-1.65,0.63-3.31,1.03-4.94,1.24c-3.67,0.45-7.25-0.06-10.54-1.07
					c-4.31,6.13-10.68,14.35-10.94,14.87c-0.4,0.8-28.05-34.46-28.05-34.46s12.22-23.24,13.22-25.04
					c-25.09,22.92-41.4,18.17-57.08,20.33c-15.68,2.16-25.95,16.22-32.98,27.03c-7.03,10.81-25.41,19.46-36.76,34.6
					c-11.35,15.14,10.81,25.95,20,28.11c3.76,0.88,14.12,0.32,25.06-0.65c6.85-0.61,13.93-1.38,19.75-2.06
					c7.59-0.89,13.04-1.61,13.04-1.61c-10.27,18.92,17.84,100.02,18.38,103.26c0.54,3.24,12.43,52.98,11.35,69.74
					c-0.35,5.49,1.38,10.27,3.87,14.24c3.04,4.84,7.21,8.45,10.09,10.57c1.97,1.45,3.34,2.22,3.34,2.22
					c24.39,3.07,47.15-2.19,67.38-11.54c54.65-25.25,90.83-80.39,90.83-82.3C401.75,435.98,401.57,435.53,401.27,435z"/>
				<path class="st31" d="M334.11,160.37c1.8-5.01,8.01-8.21,1.6-11.22c-6.41-3.01-8.21-4.01-6.81-9.02
					c1.4-5.01,0.6-9.82-6.21-11.22c-6.81-1.4-7.41-10.02-15.03-10.82c0,0-1.8,2.4-4.41,2.4c-2.6,0-9.82-6.21-13.22-6.01
					c-3.41,0.2-11.82,0.2-15.83-1.2c-4.01-1.4-5.81,6.21-7.61,6.21c-1.8,0-10.42-1.6-13.62,0.6c-3.21,2.2-6.61,4.01-11.82,7.41
					c-5.21,3.41-1.4,7.61-2,10.22c-0.6,2.6-8.01,6.41-8.61,10.22c-0.6,3.81,1,3.81-2,8.41c-3.01,4.61-2.4,2.8-0.8,7.21
					c1.6,4.41-3.21,3.41-4.01,5.81c-0.8,2.4,3.61,3.41,2.2,5.01c-1.4,1.6-4.81,2.4-0.4,4.01c4.41,1.6,6.21-1.4,5.81,5.21
					c0,0,1.8,15.23,5.81,17.23c4.01,2,5.41,6.01,6.81,7.01c1.4,1,1.4-1.4,3.21-3.01c1.8-1.6,2.6,3.61,4.61,2.4
					c0.33-0.2,0.6-0.48,0.82-0.81c1.12-1.65,0.98-4.6,0.98-5.6c0-0.45-0.81-1.46-1.83-2.54c-0.32-2-0.69-3.72-1.04-5.14
					c-1.51-0.78-3.3-2.06-4.55-4.11c-0.6-2.74-0.87-5.75,0.41-7.03c2.6-2.6,4.61-2.8,5.01-5.41c0,0,6.21,3.81,9.42-1
					c3.21-4.81,3.61-9.42,5.01-10.42c1.4-1,4.81,1.2,8.01-4.41c3.21-5.61-1.13-11.64,2.68-12.44c0,0,1.33,0.82,3.13-0.58
					c1.8-1.4,11.62,6.81,15.83,5.81c4.21-1,4.41-1.8,7.81,0.2c3.41,2,11.82-0.2,15.23,3.41c1.3,1.38,2.3,2.75,3.03,4.04
					c1.18,2.09,1.63,3.94,1.38,5.18c-0.09,0.45-0.43,2.16-0.89,4.53c0.16,7.24-0.1,16.72-1.76,25.62c2,0.91,4.46,1.77,5.46,1.11
					c1.8-1.2-2.4-6.41-0.6-8.82c1.8-2.4,7.41-1.4,6.01-5.81c-1.4-4.41,3.41-2,4.01-6.21s2.8,0.4,4.61-3.61
					C341.72,169.18,332.31,165.38,334.11,160.37z"/>
				<g>
					<path class="st32" d="M272.21,270.43c3.29,1,6.87,1.52,10.54,1.07c-2.54-1.14-5.51-3.58-7.6-5.48
						C274.45,267.19,273.41,268.72,272.21,270.43z"/>
					<path class="st32" d="M291.96,250.22c-0.28,0.27-0.44,0.42-0.44,0.42s-1.06,14.49-3.83,19.62c4.72-1.81,9.4-5.57,13.6-12.27
						C298.52,255.13,295.31,252.29,291.96,250.22z"/>
					<path class="st7" d="M335,161.28c1.8-5.01,8.01-8.21,1.6-11.22c-6.41-3.01-8.21-4.01-6.81-9.02c1.4-5.01,0.6-9.82-6.21-11.22
						c-6.81-1.4-7.41-10.02-15.03-10.82c0,0-1.8,2.4-4.41,2.4c-2.6,0-9.82-6.21-13.22-6.01c-3.41,0.2-11.82,0.2-15.83-1.2
						c-4.01-1.4-5.81,6.21-7.61,6.21c-1.8,0-10.42-1.6-13.62,0.6c-3.21,2.2-6.61,4.01-11.82,7.41c-5.21,3.41-1.4,7.61-2,10.22
						c-0.6,2.6-8.01,6.41-8.61,10.22c-0.6,3.81,1,3.81-2,8.41c-3.01,4.61-2.4,2.8-0.8,7.21c1.6,4.41-3.21,3.41-4.01,5.81
						c-0.8,2.4,3.61,3.41,2.2,5.01c-1.4,1.6-4.81,2.4-0.4,4.01c4.41,1.6,6.21-1.4,5.81,5.21c0,0,1.8,15.23,5.81,17.23
						s5.41,6.01,6.81,7.01c1.4,1,1.4-1.4,3.21-3.01c1.8-1.6,2.6,3.61,4.61,2.4c0.33-0.2,0.6-0.48,0.82-0.81
						c1.12-1.65,0.98-4.6,0.98-5.6c0-0.45-0.81-1.46-1.83-2.54c-0.32-2-0.69-3.72-1.04-5.14c-1.51-0.78-3.3-2.06-4.55-4.11
						c-0.6-2.74-0.87-5.75,0.41-7.03c2.6-2.6,4.61-2.8,5.01-5.41c0,0,6.21,3.81,9.42-1c3.21-4.81,3.61-9.42,5.01-10.42
						c1.4-1,4.81,1.2,8.01-4.41c3.21-5.61,0-9.42,3.81-10.22c0,0,0.2-1.4,2-2.8c1.8-1.4,11.62,6.81,15.83,5.81
						c4.21-1,4.41-1.8,7.81,0.2s11.82-0.2,15.23,3.41c1.3,1.38,2.3,2.75,3.03,4.04c1.18,2.09,1.63,3.94,1.38,5.18
						c-0.09,0.45-0.43,2.16-0.89,4.53c0.16,7.24-0.1,16.72-1.76,25.62c2,0.91,4.46,1.77,5.46,1.11c1.8-1.2-2.4-6.41-0.6-8.82
						c1.8-2.4,7.41-1.4,6.01-5.81c-1.4-4.41,3.41-2,4.01-6.21c0.6-4.21,2.8,0.4,4.61-3.61C342.61,170.1,333.2,166.29,335,161.28z"/>
					<path class="st7" d="M322.6,162.11c-0.73-1.29-1.73-2.66-3.03-4.04c-3.41-3.61-11.82-1.4-15.23-3.41s-3.61-1.2-7.81-0.2
						c-4.21,1-14.02-7.21-15.83-5.81c-1.8,1.4-2,2.8-2,2.8c-3.81,0.8-0.6,4.61-3.81,10.22c-3.21,5.61-6.61,3.41-8.01,4.41
						c-1.4,1-1.8,5.61-5.01,10.42c-3.21,4.81-9.42,1-9.42,1c-0.4,2.6-2.4,2.8-5.01,5.41c-1.28,1.28-1.01,4.29-0.41,7.03
						c1.26,2.05,3.05,3.34,4.55,4.11c1.59,0.82,2.87,1.07,2.87,1.07s1.4,4.81,8.01,18.03c6.61,13.22,20.24,25.64,30.45,25.64
						c0.42,0,0.91-0.1,1.44-0.27c3.38-1.09,8.86-5.53,14.11-12.42c0.93-1.22,1.86-2.53,2.76-3.9c2.86-4.35,5.52-9.43,7.54-15.07
						c1.09-3.05,1.92-6.34,2.55-9.72c1.66-8.9,1.92-18.38,1.76-25.62c0.46-2.37,0.8-4.08,0.89-4.53
						C324.23,166.06,323.78,164.2,322.6,162.11z"/>
					<path class="st7" d="M294.37,238.55c-0.54,0.17-1.02,0.27-1.44,0.27c-10.22,0-23.84-12.42-30.45-25.64
						c-6.61-13.22-8.01-18.03-8.01-18.03s-1.28-0.26-2.87-1.07c0.35,1.42,0.72,3.14,1.04,5.14c1.02,1.09,1.83,2.1,1.83,2.54
						c0,1,0.13,3.95-0.98,5.6c0.25,4.96,0.06,10.8-1,17.37c-0.45,2.77-1.04,5.67-1.83,8.69l21.84,30.05c0,0,1.08,1.12,2.66,2.56
						c2.09,1.9,5.07,4.34,7.6,5.48c1.64-0.2,3.29-0.6,4.94-1.24c2.77-5.14,3.83-19.62,3.83-19.62s0.16-0.15,0.44-0.42
						c-1.27-0.78-2.55-1.46-3.85-1.99C287.75,248.09,290.69,243.73,294.37,238.55z"/>
					<path class="st7" d="M316.77,226c-0.53-1.58-3.16-2.88-5.53-3.76c-0.9,1.37-1.83,2.68-2.76,3.9
						c-5.25,6.89-10.73,11.33-14.11,12.42c-3.68,5.18-6.62,9.54-6.25,9.68c1.29,0.52,2.58,1.2,3.85,1.99
						c3.35,2.07,6.55,4.91,9.33,7.77c5.45,5.61,9.26,11.28,9.26,11.28s6.2-34.64,6.3-42.06C316.87,226.63,316.84,226.21,316.77,226z
						"/>
					<path class="st7" d="M272.49,263.46l-21.84-30.05c0.79-3.02,1.38-5.91,1.83-8.69c-2.67-0.03-5.53,0.16-6.04,1.07
						c-1,1.8-13.22,25.04-13.22,25.04s27.65,35.26,28.05,34.46c0.26-0.52,6.63-8.74,10.94-14.87c1.2-1.71,2.24-3.24,2.94-4.41
						C273.57,264.58,272.49,263.46,272.49,263.46z"/>
					<path class="st7" d="M340.9,286.57c-12.29-5.33-16.46-7.65-31.07-6.95c0,0-5.56-7.88-15.07-6.49
						c-9.5,1.39-12.06,6.26-14.84,6.49c-2.78,0.23-11.36,1.85-16.92,5.8c-3.76,2.66-22.49,4.17-22.49,4.17s3.48,23.41,6.49,25.96
						c0,0,12.75-3.71,27.59,1.16c14.84,4.87,28.05,2.32,35.01-2.09c0,0,19.01,4.17,24.81,0.46c5.8-3.71,4.4-6.26-4.4-10.2
						l-9.04-1.85c0,0,4.4-4.87,0.46-10.43c0,0,3.41-0.13,6.26,0.23c12.29,1.56,19.39,6.99,19.89,7.38l4.76-7.71
						C350.23,291.09,346.7,289.09,340.9,286.57z"/>
					<path class="st7" d="M413.23,374.67c-2.67,0.22-23.77,6.01-22.3-8.59c-0.35-0.18-0.71-0.37-1.06-0.57l-5.57,8.55
						c-0.86,1.48-2.17,2.58-3.69,3.21c2.35,1.52,6.19,4.59,8.24,11.7c18.78,7.84,32.5-23.14,32.5-24.5c0-0.46-0.4-0.89-0.94-1.26
						C418.42,367.69,415.1,374.51,413.23,374.67z"/>
					<path class="st7" d="M413,365.4c-2.91,0.43-4.23,9.93-22.07,0.68c-1.47,14.6,19.62,8.82,22.3,8.59
						c1.87-0.16,5.19-6.98,7.18-11.46c-0.35-0.24-0.75-0.46-1.14-0.64C417.8,363.79,415.73,364.99,413,365.4z"/>
					<path class="st7" d="M430.62,335.26c4.17-4.17,0-9.74,0-9.74s-3.51-3.89-10.41-6.63c-3.89-1.55-8.84-2.73-14.86-2.65
						c-16.69,0.23-12.06,9.74-12.06,9.74c-21.33,1.62-12.75,9.5-12.75,9.5c-2.18,1.05-3.61,2.05-4.52,2.99
						c-1.9,1.97-1.42,3.67-0.36,4.92c1.24,1.45,3.25,2.3,3.25,2.3l10.31,7.05l6.2,4.24l-2.2,3.37l-3.36,5.16
						c0.36,0.19,0.72,0.39,1.06,0.57c17.84,9.25,19.16-0.25,22.07-0.68c2.73-0.4,4.8-1.61,6.27-2.83c0.39,0.18,0.79,0.4,1.14,0.64
						c0.98-2.2,1.63-3.84,1.63-3.84c2.78-1.16,5.33-8.11,6.49-10.9c1.16-2.78,3.94-2.78,2.32-7.65
						C429.23,335.95,430.62,335.26,430.62,335.26z"/>
					<path class="st7" d="M441.05,276.37l-58.25-9.22l-8.07-1.28l-0.71-0.11c-2.91-0.45-5.81,0.92-7.3,3.47l-14.37,23.27l-4.76,7.71
						l-39.83,64.49c-2.54,4.32,0.37,9.8,5.37,10.12l59.24,2.8l4.86,0.23c1.18,0.08,2.33-0.14,3.39-0.57
						c1.52-0.63,2.83-1.73,3.69-3.21l5.57-8.55l3.36-5.16l2.2-3.37l-6.2-4.24l-10.31-7.05c0,0-2.02-0.85-3.25-2.3
						c-1.07-1.25-1.54-2.94,0.36-4.92c0.9-0.94,2.34-1.94,4.52-2.99c0,0-8.58-7.88,12.75-9.5c0,0-4.64-9.5,12.06-9.74
						c6.02-0.08,10.97,1.1,14.86,2.65l18.72-28.76l5.07-7.8C445.35,279.86,443.83,276.81,441.05,276.37z"/>
					<path class="st7" d="M231.08,518.79c-14.61-2.48-29.87-8.58-33.46-22.95c-7.32-29.29-10.7-139.69-14.08-153.21
						c-0.85-3.41-0.34-6.6,0.89-9.47c-5.82,0.68-12.89,1.45-19.75,2.06c-0.95,32.53-3.06,156.72,19.42,179.2
						c13.68,13.68,37.57,15.9,57.07,14.94C238.29,527.24,234.12,523.63,231.08,518.79z"/>
					<path class="st7" d="M183.54,342.63c3.38,13.52,6.76,123.92,14.08,153.21c3.59,14.37,18.85,20.47,33.46,22.95
						c-2.49-3.96-4.23-8.75-3.87-14.24c1.08-16.76-10.81-66.5-11.35-69.74c-0.54-3.24-28.65-84.34-18.38-103.26
						c0,0-5.45,0.73-13.04,1.61C183.19,336.03,182.68,339.22,183.54,342.63z"/>
					<path class="st7" d="M477.56,452.46c-4.41-1.2-49.61-10.68-75.31-16.04c0.3,0.53,0.47,0.97,0.47,1.32
						c0,1.91-36.18,57.05-90.83,82.3l234.39,29.3c0,0,29.85-57.45,27.04-67.03C570.49,472.74,483.75,454.15,477.56,452.46z"/>
					<path class="st7" d="M402.24,436.42c-1.94-3.43-9.19-10.45-8.96-18.86c0.26-9.7-1.57-17.56-4.19-27.78
						c-0.07-0.29-0.16-0.54-0.24-0.82c-2.05-7.1-5.89-10.18-8.24-11.7c-1.05,0.44-2.21,0.65-3.39,0.57l-4.86-0.23l-59.24-2.8
						c-5-0.32-7.91-5.8-5.37-10.12l39.83-64.49c-0.5-0.39-7.6-5.82-19.89-7.38c-2.84-0.36-6.26-0.23-6.26-0.23
						c3.94,5.56-0.46,10.43-0.46,10.43l9.04,1.85c8.81,3.94,10.2,6.49,4.4,10.2c-5.8,3.71-24.81-0.46-24.81-0.46
						c-6.95,4.4-20.17,6.95-35.01,2.09c-14.84-4.87-27.59-1.16-27.59-1.16c-3.01-2.55-6.49-25.96-6.49-25.96s18.73-1.51,22.49-4.17
						c5.56-3.94,14.14-5.56,16.92-5.8c2.78-0.23,5.33-5.1,14.84-6.49c9.51-1.39,15.07,6.49,15.07,6.49
						c14.61-0.7,18.78,1.62,31.07,6.95c5.8,2.52,9.33,4.52,11.44,5.93l14.37-23.27c1.49-2.54,4.39-3.92,7.3-3.47l0.71,0.11
						l8.07,1.28c-0.07-2.25-0.22-4.32-0.49-6.26c-1.64-11.91-7.45-18.27-22.05-24.15c-16.04-6.46-37.36-8.94-43.4-9.54
						c-0.1,7.42-6.3,42.06-6.3,42.06s-3.81-5.67-9.26-11.28c-4.2,6.71-8.88,10.46-13.6,12.27c-1.65,0.63-3.31,1.03-4.94,1.24
						c-3.67,0.45-7.25-0.06-10.54-1.07c-4.31,6.13-10.68,14.35-10.94,14.87c-0.4,0.8-28.05-34.46-28.05-34.46
						s12.22-23.24,13.22-25.04c-25.09,22.92-41.4,18.17-57.08,20.33c-15.68,2.16-25.95,16.22-32.98,27.03
						c-7.03,10.81-25.41,19.46-36.76,34.6c-11.35,15.14,10.81,25.95,20,28.11c3.76,0.88,14.12,0.32,25.06-0.65
						c6.85-0.61,13.93-1.38,19.75-2.06c7.59-0.89,13.04-1.61,13.04-1.61c-10.27,18.92,17.84,100.02,18.38,103.26
						c0.54,3.24,12.43,52.98,11.35,69.74c-0.35,5.49,1.38,10.27,3.87,14.24c3.04,4.84,7.21,8.45,10.09,10.57
						c1.97,1.45,3.34,2.22,3.34,2.22c24.39,3.07,47.15-2.19,67.38-11.54c54.65-25.25,90.83-80.39,90.83-82.3
						C402.72,437.39,402.54,436.95,402.24,436.42z"/>
					<line class="st7" x1="201.84" y1="262.44" x2="200.61" y2="285.12"/>
					<path class="st7" d="M174.24,278.46c0.99,0,14.54,5.67,21.69,6.16c7.15,0.49,40.91,1.73,40.91,1.73s3.9,1.3,3.68,3.24"/>
					<path class="st33" d="M247.01,315.55c0,0,2.4,5.3,5.36,5.3s-1.79-5.76-1.79-5.76L247.01,315.55z"/>
					<line class="st7" x1="252.37" y1="320.86" x2="197.47" y2="331.55"/>
					<path class="st7" d="M309.6,314.63c0,0,8.24-4.37,11.36-11.59"/>
					<path class="st7" d="M321.43,292.6c-0.54-0.8-9.85-12.06-11.59-12.98"/>
					<path class="st7" d="M272.81,299.38c0,0,14.78-9.08,18.37-3.38c3.59,5.7,6.76,6.34,8.24,3.8l0.48-1.75
						c0.31-1.43-0.72-6.04-4.1-12.18s-14.54-6.35-15.25-6.35"/>
					<path class="st7" d="M291.82,297.05c0,0-12.88,6.33-11.83,8.87c1.06,2.53,9.71,4.86,9.71,4.86s3.38,7.39,10.56,7.18"/>
					<path class="st7" d="M289.71,310.78c0,0,15.95-3.3,18.52-12.48c2.57-9.18-10.28-20.94-10.28-20.94"/>
					<path class="st7" d="M393.29,325.99c4.92,3.9,19.98,3.9,19.98,3.9"/>
					<path class="st7" d="M380.54,335.49c0,0,7.94,3.4,12.53,3.58c3.48,0.14,21.49,6.24,23.69,5.88"/>
					<path class="st7" d="M378.92,345.69c0,0,9.01,0.91,13.23,2.2c4.22,1.29,20.75,7.16,24.24,6.61"/>
					<path class="st7" d="M395.43,356.97c1.14,0.1,9.4,3.77,9.59,5.79s-1.47,2.39-1.47,2.39"/>
					<path class="st7" d="M309.37,183.23c0,0,0.72,20.71-2.03,21.43c-3.85,1.01-6.78-0.8-9.41-2.03c-1.22-0.57-3.33-0.29-3.33-0.29"
						/>
					<path class="st7" d="M309.08,216.68c0,0-14.19,3.48-25.2-12.02"/>
					<path class="st7" d="M249.41,181.49c0,0,0.14,7.1,4.92,6.66"/>
					<circle class="st12" cx="289.96" cy="184.82" r="1.81"/>
					<circle class="st12" cx="315.6" cy="191.19" r="1.81"/>
				</g>
			</g>
			<g>
				<g>
					<path class="st1" d="M144.12,426.71H49.73c-2.8,0-5.08-2.27-5.08-5.08V283c0-2.8,2.27-5.08,5.08-5.08h94.38
						c2.8,0,5.08,2.27,5.08,5.08v138.63C149.2,424.44,146.92,426.71,144.12,426.71z"/>
					<path class="st1" d="M138.47,424.83H44.09c-2.8,0-5.08-2.27-5.08-5.08V281.12c0-2.8,2.27-5.08,5.08-5.08h94.38
						c2.8,0,5.08,2.27,5.08,5.08v138.63C143.55,422.56,141.28,424.83,138.47,424.83z"/>
					<path class="st7" d="M144.12,426.71H49.73c-2.8,0-5.08-2.27-5.08-5.08V283c0-2.8,2.27-5.08,5.08-5.08h94.38
						c2.8,0,5.08,2.27,5.08,5.08v138.63C149.2,424.44,146.92,426.71,144.12,426.71z"/>
					<path class="st7" d="M44.41,286.78c1.54,0,104,0,104,0"/>
					<circle class="st7" cx="49.35" cy="282.62" r="1.7"/>
					<circle class="st7" cx="54.33" cy="282.62" r="1.7"/>
					<circle class="st7" cx="59.32" cy="282.62" r="1.7"/>
				</g>
				<g>
					<line class="st7" x1="54.55" y1="299.71" x2="138.98" y2="299.71"/>
					<line class="st7" x1="54.55" y1="399.58" x2="135.69" y2="399.58"/>
					<line class="st7" x1="54.55" y1="406.97" x2="114.76" y2="406.97"/>
					<line class="st7" x1="54.55" y1="414.35" x2="94.41" y2="414.35"/>
				</g>
				<g>
					<line class="st7" x1="112.16" y1="309.95" x2="137.07" y2="309.95"/>
					<line class="st7" x1="112.16" y1="322.37" x2="137.07" y2="322.37"/>
					<line class="st7" x1="112.16" y1="334.79" x2="137.07" y2="334.79"/>
					<line class="st7" x1="112.16" y1="347.22" x2="137.07" y2="347.22"/>
					<line class="st7" x1="112.16" y1="359.64" x2="137.07" y2="359.64"/>
					<line class="st7" x1="112.16" y1="372.06" x2="137.07" y2="372.06"/>
				</g>
				<g>
					<line class="st7" x1="87.15" y1="309.95" x2="105.41" y2="309.95"/>
					<line class="st7" x1="87.15" y1="322.37" x2="105.41" y2="322.37"/>
					<line class="st7" x1="87.15" y1="334.79" x2="105.41" y2="334.79"/>
					<line class="st7" x1="87.15" y1="347.22" x2="105.41" y2="347.22"/>
					<line class="st7" x1="87.15" y1="359.64" x2="105.41" y2="359.64"/>
					<line class="st7" x1="87.15" y1="372.06" x2="105.41" y2="372.06"/>
				</g>
				<g>
					<line class="st7" x1="55.49" y1="309.95" x2="81.49" y2="309.95"/>
					<line class="st7" x1="55.49" y1="322.37" x2="81.49" y2="322.37"/>
					<line class="st7" x1="55.49" y1="334.79" x2="81.49" y2="334.79"/>
					<line class="st7" x1="55.49" y1="347.22" x2="81.49" y2="347.22"/>
					<line class="st7" x1="55.49" y1="359.64" x2="81.49" y2="359.64"/>
					<line class="st7" x1="55.49" y1="372.06" x2="81.49" y2="372.06"/>
				</g>
				<rect x="90.07" y="381.15" class="st7" width="45.45" height="10.87"/>
			</g>
		</g>
	</g>
</g>
</svg>
