<?xml version="1.0" encoding="utf-8"?>
<!-- Generator: Adobe Illustrator 24.0.3, SVG Export Plug-In . SVG Version: 6.00 Build 0)  -->
<svg version="1.1" id="Layer_1" xmlns="http://www.w3.org/2000/svg" xmlns:xlink="http://www.w3.org/1999/xlink" x="0px" y="0px"
	 viewBox="0 0 566.93 595.28" style="enable-background:new 0 0 566.93 595.28;" xml:space="preserve">
<style type="text/css">
	.st0{fill:#54575C;}
	.st1{fill:none;stroke:#54575C;stroke-miterlimit:10;}
	.st2{fill-rule:evenodd;clip-rule:evenodd;fill:#F4F4F5;}
	.st3{fill:#FFFFFF;}
	.st4{fill:none;}
	.st5{fill:#E17E41;}
	.st6{fill:#F5C65D;}
	.st7{fill:#4890BA;}
	.st8{fill:#235485;}
	.st9{fill:#F4F4F5;stroke:#54575C;stroke-miterlimit:10;}
	.st10{fill:#3581AD;}
	.st11{fill:#DCEFFA;}
	.st12{fill:#906253;}
	.st13{fill:#ECBB8F;}
	.st14{fill:none;stroke:#54575C;stroke-linejoin:round;stroke-miterlimit:10;}
	.st15{fill:#E0635D;}
	.st16{fill:none;stroke:#54575C;stroke-miterlimit:10.0001;}
	.st17{fill:#F4F4F5;}
	.st18{fill:#C7895C;}
	.st19{fill:#61A575;}
	.st20{fill:none;stroke:#54575C;stroke-width:0.9549;stroke-miterlimit:10;}
</style>
<g>
	<g>
		<path class="st0" d="M396.67,140.78l-223.45-0.98c-2.98,0-5.46,2.49-5.51,5.61v136.15c-0.05,3.1-0.44,5.64,2.56,5.64l223.45,0.98
			c2.98,0,5.46-2.49,5.51-5.61V146.42C399.28,143.34,399.65,140.8,396.67,140.78z M314.55,219.21l-28.73,16.93l-28.73,16.93
			c-3.8,2.24-8.42-0.6-8.32-5.1l0.68-34.11l0.68-34.11c0.09-4.5,4.85-7.3,8.55-5.02l28.06,17.18l28.06,17.18
			C318.47,211.34,318.35,216.96,314.55,219.21z"/>
	</g>
	<line class="st1" x1="170.24" y1="310.77" x2="395.42" y2="312.51"/>
	
		<ellipse transform="matrix(0.2017 -0.9795 0.9795 0.2017 -111.2588 486.205)" class="st0" cx="242.62" cy="311.35" rx="7.06" ry="6.77"/>
</g>
<g>
	<path class="st1" d="M461,97.79v230.48c0,6.61-5.36,11.98-11.98,11.98H117.54c-6.61,0-11.98-5.36-11.98-11.98V97.79
		c0-6.61,5.36-11.98,11.98-11.98h331.48C455.64,85.81,461,91.17,461,97.79z"/>
	<path class="st2" d="M106.87,96.08v20.48h349.77V96.08c0-5-4.5-9.1-10-9.1H116.87C111.37,86.99,106.87,91.08,106.87,96.08z"/>
	<line class="st1" x1="105.93" y1="116.9" x2="461.36" y2="116.9"/>
	<g>
		<circle class="st1" cx="120.34" cy="102.63" r="4.53"/>
		<circle class="st1" cx="142.37" cy="102.63" r="4.53"/>
		<circle class="st1" cx="160.72" cy="102.63" r="4.53"/>
	</g>
</g>
<g>
	<g>
		<g>
			<path class="st3" d="M265.17,156.69c0.71-0.14,0.2-0.82-0.8-1.66c-1.1-0.09-2.33-0.21-3.65-0.36
				C262.71,155.91,264.4,156.85,265.17,156.69z"/>
			<path class="st3" d="M404.68,186.82c0,0-3.03,1.04-6.15,0.5c-3.18-0.56-6.46-2.77-6.67-9.47c0,0,1.5-2.35-1.92-2.99
				s-5.34-5.98-3.42-7.48c1.92-1.5-2.35-2.56-2.35-2.56s-3.85-1.5-3.2-4.91c0.64-3.42,0-5.55-2.14-6.84
				c-1.81-1.09-6.22-2.94-4.03-8.02c0.87-2.02,0.53-4.34-0.98-5.93c-0.7-0.73-1.45-1.56-2.18-2.43c-0.72,3.56-4.11,19.69-7.34,22.15
				c-3.63,2.78,2.78,2.78,2.78,2.78s-3.42,19.66-0.21,20.94c3.2,1.28,14.31-0.85,14.31-0.85l-0.2,7.09l-0.22,7.87
				c0,0,14.97,14.95,31.09-7.69C409.79,189.88,407.19,189.93,404.68,186.82z"/>
			<path class="st3" d="M431.39,147.51c2.99-0.85,1.71-7.69,1.71-7.69c-2.35-8.76-11.96-10.04-11.96-10.04s-3.63-3.63-7.69-4.06
				s-8.76,0.43-8.76,0.43l-3.42-5.55c-6.41-9.4-19.01-2.35-19.01-2.35c-13.46-3.85-10.26,6.84-10.26,6.84s-3.2,0.43-4.06,4.27
				c-0.41,1.82,1.54,4.75,3.71,7.33c0.73,0.87,1.48,1.7,2.18,2.43c1.51,1.59,1.85,3.92,0.98,5.93c-2.2,5.08,2.22,6.94,4.03,8.02
				c2.14,1.28,2.78,3.42,2.14,6.84c-0.64,3.42,3.2,4.91,3.2,4.91s4.27,1.07,2.35,2.56c-1.92,1.5,0,6.84,3.42,7.48
				s1.92,2.99,1.92,2.99c0.22,6.7,3.49,8.91,6.67,9.47c3.12,0.55,6.15-0.5,6.15-0.5c2.51,3.11,5.11,3.06,7.16,2.14
				c0.92-0.41,1.72-1,2.37-1.56c0.99-0.86,1.58-1.65,1.58-1.65s0.85,1.5,3.85,2.14c2.99,0.64,4.91-8.55,5.13-9.4
				c0.21-0.85,2.35-1.07,3.85-2.14s0.85-7.91,3.63-8.55c2.78-0.64,3.42-8.33,4.06-12.39S431.39,147.51,431.39,147.51z"/>
			<path class="st3" d="M280.34,162.68c-1.28-2.56-8.76-17.52-22.22-17.73c-13.46-0.21-5.98,3.63-0.64,4.27
				c4.32,0.52,2.21,1.31,1.25,1.6c5.28,0.6,9.92,1.3,10.29,1.39c0,0,0.85,1.71-0.21,2.78c-0.25,0.25-1.98,0.24-4.43,0.05
				c0.99,0.84,1.5,1.52,0.8,1.66c-0.76,0.15-2.46-0.79-4.45-2.02c-2.51-1.55-5.5-3.55-7.73-4.43c-0.96-0.38-1.77-0.55-2.35-0.39
				c-0.14,0.04-0.23,0.11-0.3,0.19c-0.42,0.51,0.41,1.82,1.81,3.41c3.28,3.74,9.6,9,9.6,9s3.2,5.77,10.47,8.55
				c6.54,2.5,28.45,18.13,32.78,21.25c1-6.01,2.23-13.24,2.97-16.85C303.54,173.68,281.49,164.98,280.34,162.68z"/>
			<g>
				<path class="st3" d="M250.34,150.05c-3.86-0.24-6.96-0.2-7.61,0.45c-0.84,0.84,3.82,2,9.42,2.96
					C250.76,151.87,249.92,150.56,250.34,150.05z"/>
				<path class="st3" d="M269.01,152.21c-0.37-0.09-5-0.79-10.29-1.39c-1.88-0.21-3.85-0.42-5.74-0.57
					c2.23,0.88,5.22,2.88,7.73,4.43c1.32,0.15,2.56,0.27,3.65,0.36c2.45,0.19,4.17,0.21,4.43-0.05
					C269.87,153.92,269.01,152.21,269.01,152.21z"/>
			</g>
			<path class="st3" d="M452.96,271.42c5.98-11.54-9.83-51.7-18.59-69.22c-4.95-9.89-13.5-13.52-20.17-14.8
				c-0.64,0.56-1.45,1.15-2.37,1.56c-16.12,22.64-31.09,7.69-31.09,7.69l0.22-7.87c-43.2,4.12-65.86-14.59-67.95-15.85
				c-2.14-1.28-3.85-0.64-4.49,0.21c-0.1,0.14-0.3,0.97-0.57,2.26c-0.74,3.61-1.97,10.84-2.97,16.85c-0.89,5.35-1.02,5.16-1.02,5.16
				s3.2,2.78,23.07,11.54c19.87,8.76,34.47,3.72,34.47,3.72l-10.9,80.12c7.11,10.34,12.71,13.59,20.02,14.79
				c0.87-1.03,2.02-2.23,3.18-3.38c2.14-2.13,4.32-4.1,4.79-4.57c1.07-1.07,1.5-2.35,1.5-2.35l-5.34,2.14
				c-0.43,0.24-0.83,0.45-1.22,0.66c-8.73,4.62-7.76,1.69-7.76,1.69c11.11-16.02,54.7-33.81,55.33-33.76
				c12.61,1.07,14.31,8.12,14.31,8.12s-34.61,15.6-36.11,16.24c-1.21,0.52-2.39,1.41-3.54,2.52c-3.85,3.74-7.27,10.06-9.76,13.71
				c0.02,0,0.03,0,0.05,0c13.24,0.68,47.77,13.62,63.13,15.81c3.98,0.57,6.67,0.41,7.37-0.86
				C460.01,317.36,452.96,271.42,452.96,271.42z"/>
			<path class="st3" d="M421.13,268.01c-0.64-0.05-44.23,17.73-55.33,33.76c0,0-0.97,2.93,7.76-1.69c0.39-0.21,0.79-0.42,1.22-0.66
				l5.34-2.14c0,0-0.43,1.28-1.5,2.35c-0.47,0.47-2.64,2.44-4.79,4.57c-1.16,1.15-2.31,2.35-3.18,3.38
				c-1.2,1.42-1.85,2.52-1.22,2.73c0.99,0.33,4.63-0.75,4.64-0.5c-1.83,1.61-3.51,3.49-1.44,3.49c0.49,0,1.03-0.08,1.6-0.21
				c3.6-0.82,8.23-3.85,8.23-3.85s-1.71,3.2,1.07,2.14c0.66-0.25,1.51-1.3,2.52-2.78c2.48-3.65,5.91-9.97,9.76-13.71
				c1.15-1.11,2.33-2.01,3.54-2.52c1.5-0.64,36.11-16.24,36.11-16.24S433.74,269.07,421.13,268.01z"/>
			<path class="st3" d="M401.99,518.92c-5.1,5.2-12.75,11.24-17.18,14.65c-7.48,5.77-25.85,12.39-22.22,15.81
				c3.63,3.42,51.28-0.85,59.18-2.99c5.83-1.58,4.8-19.4,3.86-28.66C420.19,520.41,407.51,519.48,401.99,518.92z"/>
			<path class="st3" d="M504.45,484.05c-6.6,7.22-18.91,15.07-19.87,15.55c-0.01,0.01-0.04-0.01-0.06-0.01
				c-0.64,8.76-2.71,22.46-9.34,29.92c-5.32,5.98-4.08,5.97-5.98,8.69c-1.23,1.76-0.23,4.23,1.89,4.6c4.9,0.86,4.85,0.94,8.83-0.91
				c3.83-1.78,11.71-5.35,15.56-11.32c7.75-12,19-21.72,18.8-24.57C514.08,503.25,508.03,491.04,504.45,484.05z"/>
			<path class="st3" d="M468.99,417.13c-7.69-7.69-13.89-11.75-17.73-29.91c-2.78-13.11-2.43-45.69-2.03-62.81
				c-15.36-2.19-49.89-15.14-63.13-15.81c-0.02,0-0.03,0-0.05,0c-1.01,1.48-1.86,2.53-2.52,2.78c-2.78,1.07-1.07-2.14-1.07-2.14
				s-4.63,3.03-8.23,3.85c1.05,21.21,3.82,64.51,9.51,83.96c7.69,26.28,15.6,121.57,15.6,121.57s1.01,0.14,2.65,0.3
				c5.52,0.56,18.2,1.49,23.65-1.19c1.75-0.86,2.76-2.08,2.55-3.81c-0.21-1.71,4.49-86.1,4.49-86.1s49.68,71.06,51.86,71.77
				c0.02,0.01,0.05,0.02,0.06,0.01c0.96-0.48,13.27-8.33,19.87-15.55c2.18-2.39,3.74-4.71,4.06-6.67
				C508.51,477.38,476.68,424.82,468.99,417.13z"/>
		</g>
		<g>
			<path class="st4" d="M267.41,158.28c0.71-0.14,0.2-0.82-0.8-1.66c-1.1-0.09-2.33-0.21-3.65-0.36
				C264.95,157.49,266.64,158.43,267.41,158.28z"/>
			<path class="st5" d="M406.92,188.41c0,0-3.03,1.04-6.15,0.5c-3.18-0.56-6.46-2.77-6.67-9.47c0,0,1.5-2.35-1.92-2.99
				s-5.34-5.98-3.42-7.48c1.92-1.5-2.35-2.56-2.35-2.56s-3.85-1.5-3.2-4.91c0.64-3.42,0-5.55-2.14-6.84
				c-1.81-1.09-6.22-2.94-4.03-8.02c0.87-2.02,0.53-4.34-0.98-5.93c-0.7-0.73-1.45-1.56-2.18-2.43c-0.72,3.56-4.11,19.69-7.34,22.15
				c-3.63,2.78,2.78,2.78,2.78,2.78s-3.42,19.66-0.21,20.94c3.2,1.28,14.31-0.85,14.31-0.85l-0.2,7.09l-0.22,7.87
				c0,0,14.97,14.95,31.09-7.69C412.03,191.47,409.43,191.51,406.92,188.41z"/>
			<path class="st0" d="M430.85,147.56c2.99-0.85,1.71-7.69,1.71-7.69c-2.35-8.76-11.96-10.04-11.96-10.04s-3.63-3.63-7.69-4.06
				s-8.76,0.43-8.76,0.43l-3.42-5.55c-6.41-9.4-19.01-2.35-19.01-2.35c-13.46-3.85-10.26,6.84-10.26,6.84s-3.2,0.43-4.06,4.27
				c-0.41,1.82,1.54,4.75,3.71,7.33c0.73,0.87,1.48,1.7,2.18,2.43c1.51,1.59,1.85,3.92,0.98,5.93c-2.2,5.08,2.22,6.94,4.03,8.02
				c2.14,1.28,2.78,3.42,2.14,6.84c-0.64,3.42,3.2,4.91,3.2,4.91s4.27,1.07,2.35,2.56c-1.92,1.5,0,6.84,3.42,7.48
				s1.92,2.99,1.92,2.99c0.22,6.7,3.49,8.91,6.67,9.47c3.12,0.55,6.15-0.5,6.15-0.5c2.51,3.11,5.11,3.06,7.16,2.14
				c0.92-0.41,1.72-1,2.37-1.56c0.99-0.86,1.58-1.65,1.58-1.65s0.85,1.5,3.85,2.14c2.99,0.64,4.91-8.55,5.13-9.4
				c0.21-0.85,2.35-1.07,3.85-2.14s0.85-7.91,3.63-8.55c2.78-0.64,3.42-8.33,4.06-12.39S430.85,147.56,430.85,147.56z"/>
			<path class="st5" d="M282.58,164.26c-1.28-2.56-8.76-17.52-22.22-17.73c-13.46-0.21-5.98,3.63-0.64,4.27
				c4.32,0.52,2.21,1.31,1.25,1.6c5.28,0.6,9.92,1.3,10.29,1.39c0,0,0.85,1.71-0.21,2.78c-0.25,0.25-1.98,0.24-4.43,0.05
				c0.99,0.84,1.5,1.52,0.8,1.66c-0.76,0.15-2.46-0.79-4.45-2.02c-2.51-1.55-5.5-3.55-7.73-4.43c-0.96-0.38-1.77-0.55-2.35-0.39
				c-0.14,0.04-0.23,0.11-0.3,0.19c-0.42,0.51,0.41,1.82,1.81,3.41c3.28,3.74,9.6,9,9.6,9s3.2,5.77,10.47,8.55
				c6.54,2.5,26.69,16.85,31.03,19.97c1-6.01,1.76-13.08,2.5-16.68C303.55,174.15,283.73,166.57,282.58,164.26z"/>
			<path class="st6" d="M455.2,273.01c5.98-11.54-9.83-51.7-18.59-69.22c-4.95-9.89-13.5-13.52-20.17-14.8
				c-0.64,0.56-1.45,1.15-2.37,1.56c-16.12,22.64-33.33,6.1-33.33,6.1l-0.13-6.35c-43.2,4.12-63.26-14.52-65.36-15.77
				c-2.14-1.28-3.85-0.64-4.49,0.21c-0.1,0.14-0.3,0.97-0.57,2.26c-0.74,3.61-1.97,10.84-2.97,16.85c-0.89,5.35-1.02,5.16-1.02,5.16
				s3.2,2.78,23.07,11.54c19.87,8.76,34.47,3.72,34.47,3.72l-10.9,80.12c6.14,8.93,11.16,12.56,17.12,14.16
				c0.15-0.22,0.32-0.43,0.52-0.64c1.84-1.95,3.55-4,5.28-6.04c0.11-0.13,0.22-0.25,0.33-0.37c-0.1,0.06-0.22,0.12-0.32,0.17
				c-8.73,4.62-10,0.11-10,0.11c11.11-16.02,55.44-34.56,56.08-34.51c12.61,1.07,15.81,10.46,15.81,10.46s-34.61,15.6-36.11,16.24
				c-1.21,0.52-2.39,1.41-3.54,2.52c-3.85,3.74-7.27,10.06-9.76,13.71c0.02,0,0.03,0,0.05,0c13.24,0.68,47.77,13.62,63.13,15.81
				c3.98,0.57,6.67,0.41,7.37-0.86C462.25,318.95,455.2,273.01,455.2,273.01z"/>
			<path class="st5" d="M423.37,269.59c-0.64-0.05-44.23,17.73-55.33,33.76c0,0-0.97,2.93,7.76-1.69c0.39-0.21,0.79-0.42,1.22-0.66
				l5.34-2.14c0,0-0.43,1.28-1.5,2.35c-0.47,0.47-2.64,2.44-4.79,4.57c-1.16,1.15-2.31,2.35-3.18,3.38
				c-1.2,1.42-1.85,2.52-1.22,2.73c0.99,0.33,4.63-0.75,4.64-0.5c-1.83,1.61-3.51,3.49-1.44,3.49c0.49,0,1.03-0.08,1.6-0.21
				c3.6-0.82,8.23-3.85,8.23-3.85s-1.71,3.2,1.07,2.14c0.66-0.25,1.51-1.3,2.52-2.78c2.48-3.65,5.91-9.97,9.76-13.71
				c1.15-1.11,2.33-2.01,3.54-2.52c1.5-0.64,36.11-16.24,36.11-16.24S435.98,270.66,423.37,269.59z"/>
			<path class="st7" d="M404.23,520.51c-5.1,5.2-12.75,11.24-17.18,14.65c-7.48,5.77-25.85,12.39-22.22,15.81
				c3.63,3.42,51.28-0.85,59.18-2.99c5.83-1.58,4.8-19.4,3.86-28.66C422.42,521.99,409.75,521.07,404.23,520.51z"/>
			<path class="st7" d="M506.69,485.64c-6.6,7.22-18.91,15.07-19.87,15.55c-0.01,0.01-0.04-0.01-0.06-0.01
				c-0.64,8.76-2.71,22.46-9.34,29.92c-5.32,5.98-4.08,5.97-5.98,8.69c-1.23,1.76-0.23,4.23,1.89,4.6c4.9,0.86,4.85,0.94,8.83-0.91
				c3.83-1.78,11.71-5.35,15.56-11.32c7.75-12,19-21.72,18.8-24.57C516.32,504.84,510.27,492.63,506.69,485.64z"/>
			<path class="st8" d="M471.23,418.72c-7.69-7.69-13.89-11.75-17.73-29.91c-2.78-13.11-2.43-45.69-2.03-62.81
				c-15.36-2.19-49.89-15.14-63.13-15.81c-0.02,0-0.03,0-0.05,0c-1.01,1.48-1.86,2.53-2.52,2.78c-2.78,1.07-1.07-2.14-1.07-2.14
				s-4.63,3.03-8.23,3.85c1.05,21.21,3.82,64.51,9.51,83.96c7.69,26.28,15.6,121.57,15.6,121.57s1.01,0.14,2.65,0.3
				c5.52,0.56,18.2,1.49,23.65-1.19c1.75-0.86,2.76-2.08,2.55-3.81c-0.21-1.71,4.49-86.1,4.49-86.1s49.68,71.06,51.86,71.77
				c0.02,0.01,0.05,0.02,0.06,0.01c0.96-0.48,13.27-8.33,19.87-15.55c2.18-2.39,3.74-4.71,4.06-6.67
				C510.75,478.97,478.92,426.41,471.23,418.72z"/>
		</g>
		<g>
			<g>
				<path class="st4" d="M265.17,156.69c0.71-0.14,0.2-0.82-0.8-1.66c-1.1-0.09-2.33-0.21-3.65-0.36
					C262.71,155.91,264.4,156.85,265.17,156.69z"/>
				<path class="st1" d="M404.68,186.82c0,0-3.03,1.04-6.15,0.5c-3.18-0.56-6.46-2.77-6.67-9.47c0,0,1.5-2.35-1.92-2.99
					s-5.34-5.98-3.42-7.48c1.92-1.5-2.35-2.56-2.35-2.56s-3.85-1.5-3.2-4.91c0.64-3.42,0-5.55-2.14-6.84
					c-1.81-1.09-6.22-2.94-4.03-8.02c0.87-2.02,0.53-4.34-0.98-5.93c-0.7-0.73-1.45-1.56-2.18-2.43
					c-0.72,3.56-4.11,19.69-7.34,22.15c-3.63,2.78,2.78,2.78,2.78,2.78s-3.42,19.66-0.21,20.94c3.2,1.28,14.31-0.85,14.31-0.85
					l-0.2,7.09l-0.22,7.87c0,0,14.97,14.95,31.09-7.69C409.79,189.88,407.19,189.93,404.68,186.82z"/>
				<path class="st1" d="M431.39,147.51c2.99-0.85,1.71-7.69,1.71-7.69c-2.35-8.76-11.96-10.04-11.96-10.04s-3.63-3.63-7.69-4.06
					s-8.76,0.43-8.76,0.43l-3.42-5.55c-6.41-9.4-19.01-2.35-19.01-2.35c-13.46-3.85-10.26,6.84-10.26,6.84s-3.2,0.43-4.06,4.27
					c-0.41,1.82,1.54,4.75,3.71,7.33c0.73,0.87,1.48,1.7,2.18,2.43c1.51,1.59,1.85,3.92,0.98,5.93c-2.2,5.08,2.22,6.94,4.03,8.02
					c2.14,1.28,2.78,3.42,2.14,6.84c-0.64,3.42,3.2,4.91,3.2,4.91s4.27,1.07,2.35,2.56c-1.92,1.5,0,6.84,3.42,7.48
					s1.92,2.99,1.92,2.99c0.22,6.7,3.49,8.91,6.67,9.47c3.12,0.55,6.15-0.5,6.15-0.5c2.51,3.11,5.11,3.06,7.16,2.14
					c0.92-0.41,1.72-1,2.37-1.56c0.99-0.86,1.58-1.65,1.58-1.65s0.85,1.5,3.85,2.14c2.99,0.64,4.91-8.55,5.13-9.4
					c0.21-0.85,2.35-1.07,3.85-2.14s0.85-7.91,3.63-8.55c2.78-0.64,3.42-8.33,4.06-12.39S431.39,147.51,431.39,147.51z"/>
				<path class="st1" d="M280.34,162.68c-1.28-2.56-8.76-17.52-22.22-17.73c-13.46-0.21-5.98,3.63-0.64,4.27
					c4.32,0.52,2.21,1.31,1.25,1.6c5.28,0.6,9.92,1.3,10.29,1.39c0,0,0.85,1.71-0.21,2.78c-0.25,0.25-1.98,0.24-4.43,0.05
					c0.99,0.84,1.5,1.52,0.8,1.66c-0.76,0.15-2.46-0.79-4.45-2.02c-2.51-1.55-5.5-3.55-7.73-4.43c-0.96-0.38-1.77-0.55-2.35-0.39
					c-0.14,0.04-0.23,0.11-0.3,0.19c-0.42,0.51,0.41,1.82,1.81,3.41c3.28,3.74,9.6,9,9.6,9s3.2,5.77,10.47,8.55
					c6.54,2.5,28.45,18.13,32.78,21.25c1-6.01,2.23-13.24,2.97-16.85C303.54,173.68,281.49,164.98,280.34,162.68z"/>
				<g>
					<path class="st9" d="M250.34,150.05c-3.86-0.24-6.96-0.2-7.61,0.45c-0.84,0.84,3.82,2,9.42,2.96
						C250.76,151.87,249.92,150.56,250.34,150.05z"/>
					<path class="st9" d="M269.01,152.21c-0.37-0.09-5-0.79-10.29-1.39c-1.88-0.21-3.85-0.42-5.74-0.57
						c2.23,0.88,5.22,2.88,7.73,4.43c1.32,0.15,2.56,0.27,3.65,0.36c2.45,0.19,4.17,0.21,4.43-0.05
						C269.87,153.92,269.01,152.21,269.01,152.21z"/>
				</g>
				<path class="st1" d="M452.96,271.42c5.98-11.54-9.83-51.7-18.59-69.22c-4.95-9.89-13.5-13.52-20.17-14.8
					c-0.64,0.56-1.45,1.15-2.37,1.56c-16.12,22.64-31.09,7.69-31.09,7.69l0.22-7.87c-43.2,4.12-65.86-14.59-67.95-15.85
					c-2.14-1.28-3.85-0.64-4.49,0.21c-0.1,0.14-0.3,0.97-0.57,2.26c-0.74,3.61-1.97,10.84-2.97,16.85
					c-0.89,5.35-1.02,5.16-1.02,5.16s3.2,2.78,23.07,11.54c19.87,8.76,34.47,3.72,34.47,3.72l-10.9,80.12
					c7.11,10.34,12.71,13.59,20.02,14.79c0.87-1.03,2.02-2.23,3.18-3.38c2.14-2.13,4.32-4.1,4.79-4.57c1.07-1.07,1.5-2.35,1.5-2.35
					l-5.34,2.14c-0.43,0.24-0.83,0.45-1.22,0.66c-8.73,4.62-7.76,1.69-7.76,1.69c11.11-16.02,54.7-33.81,55.33-33.76
					c12.61,1.07,14.31,8.12,14.31,8.12s-34.61,15.6-36.11,16.24c-1.21,0.52-2.39,1.41-3.54,2.52c-3.85,3.74-7.27,10.06-9.76,13.71
					c0.02,0,0.03,0,0.05,0c13.24,0.68,47.77,13.62,63.13,15.81c3.98,0.57,6.67,0.41,7.37-0.86
					C460.01,317.36,452.96,271.42,452.96,271.42z"/>
				<path class="st1" d="M421.13,268.01c-0.64-0.05-44.23,17.73-55.33,33.76c0,0-0.97,2.93,7.76-1.69c0.39-0.21,0.79-0.42,1.22-0.66
					l5.34-2.14c0,0-0.43,1.28-1.5,2.35c-0.47,0.47-2.64,2.44-4.79,4.57c-1.16,1.15-2.31,2.35-3.18,3.38
					c-1.2,1.42-1.85,2.52-1.22,2.73c0.99,0.33,4.63-0.75,4.64-0.5c-1.83,1.61-3.51,3.49-1.44,3.49c0.49,0,1.03-0.08,1.6-0.21
					c3.6-0.82,8.23-3.85,8.23-3.85s-1.71,3.2,1.07,2.14c0.66-0.25,1.51-1.3,2.52-2.78c2.48-3.65,5.91-9.97,9.76-13.71
					c1.15-1.11,2.33-2.01,3.54-2.52c1.5-0.64,36.11-16.24,36.11-16.24S433.74,269.07,421.13,268.01z"/>
				<path class="st1" d="M401.99,518.92c-5.1,5.2-12.75,11.24-17.18,14.65c-7.48,5.77-25.85,12.39-22.22,15.81
					c3.63,3.42,51.28-0.85,59.18-2.99c5.83-1.58,4.8-19.4,3.86-28.66C420.19,520.41,407.51,519.48,401.99,518.92z"/>
				<path class="st1" d="M504.45,484.05c-6.6,7.22-18.91,15.07-19.87,15.55c-0.01,0.01-0.04-0.01-0.06-0.01
					c-0.64,8.76-2.71,22.46-9.34,29.92c-5.32,5.98-4.08,5.97-5.98,8.69c-1.23,1.76-0.23,4.23,1.89,4.6c4.9,0.86,4.85,0.94,8.83-0.91
					c3.83-1.78,11.71-5.35,15.56-11.32c7.75-12,19-21.72,18.8-24.57C514.08,503.25,508.03,491.04,504.45,484.05z"/>
				<path class="st1" d="M468.99,417.13c-7.69-7.69-13.89-11.75-17.73-29.91c-2.78-13.11-2.43-45.69-2.03-62.81
					c-15.36-2.19-49.89-15.14-63.13-15.81c-0.02,0-0.03,0-0.05,0c-1.01,1.48-1.86,2.53-2.52,2.78c-2.78,1.07-1.07-2.14-1.07-2.14
					s-4.63,3.03-8.23,3.85c1.05,21.21,3.82,64.51,9.51,83.96c7.69,26.28,15.6,121.57,15.6,121.57s1.01,0.14,2.65,0.3
					c5.52,0.56,18.2,1.49,23.65-1.19c1.75-0.86,2.76-2.08,2.55-3.81c-0.21-1.71,4.49-86.1,4.49-86.1s49.68,71.06,51.86,71.77
					c0.02,0.01,0.05,0.02,0.06,0.01c0.96-0.48,13.27-8.33,19.87-15.55c2.18-2.39,3.74-4.71,4.06-6.67
					C508.51,477.38,476.68,424.82,468.99,417.13z"/>
			</g>
			<path class="st1" d="M374.07,309.81c0,0,8.17-5.22,11.5-11.76"/>
			<path class="st1" d="M382.2,309.68c0,0,9.44-10.04,10.86-11.82"/>
			<line class="st1" x1="361.52" y1="212.67" x2="362.26" y2="203.54"/>
			<path class="st0" d="M435.51,275.55c0,0,3.84,5.05,0,6.76c-3.84,1.71-8.56-2.36-8.56-2.36L435.51,275.55z"/>
			<path class="st1" d="M421.2,267.65c0,0-2.47-26.9-7.2-45.93"/>
			<path class="st1" d="M452.96,271.42c0,0-12.16,11.44-18.92,11.33c0,0-2.59,1.13-7.09-2.81"/>
			<path class="st1" d="M432.67,427.81c0,0-17-20.44-19.19-35.26c-2.19-14.82-6.32-46.41-6.32-46.41"/>
			<path class="st1" d="M368.17,173.52c0,0,4.82-0.91,4.69-5.6"/>
			<circle class="st0" cx="373.38" cy="153.21" r="1.04"/>
		</g>
	</g>
	<g>
		<line class="st1" x1="433.14" y1="322.44" x2="436.89" y2="394.45"/>
		<g>
			<polygon class="st4" points="436.77,314.51 436.77,314.51 436.77,314.51 			"/>
			<path class="st4" d="M436.41,314.01L436.41,314.01c0.03,0.04,0.07,0.08,0.1,0.11C436.48,314.09,436.45,314.05,436.41,314.01z"/>
			<path class="st4" d="M437.04,316.14c0-0.01,0-0.03,0-0.04C437.05,316.11,437.05,316.13,437.04,316.14L437.04,316.14z"/>
			<polygon class="st4" points="436.95,314.92 436.95,314.92 436.95,314.92 			"/>
			<path class="st4" d="M437.04,315.29c-0.02-0.1-0.04-0.21-0.07-0.31C437,315.08,437.02,315.19,437.04,315.29
				C437.04,315.29,437.04,315.29,437.04,315.29z"/>
			<path class="st4" d="M421.19,308.67c-0.15,0.05-0.29,0.12-0.43,0.19l0,0C420.9,308.78,421.04,308.71,421.19,308.67L421.19,308.67
				z"/>
			<path class="st4" d="M420.53,309c-0.09,0.06-0.18,0.12-0.27,0.2l0,0C420.35,309.13,420.44,309.07,420.53,309
				C420.53,309,420.53,309,420.53,309z"/>
			<path class="st3" d="M425.35,327.15c0.01,0,0.02,0,0.03,0c-0.82-0.01-1.6-0.17-2.32-0.46
				C423.76,326.98,424.54,327.15,425.35,327.15z"/>
			<path class="st3" d="M436.94,316.54c0.05-0.13,0.08-0.26,0.1-0.4c0-0.01,0-0.03,0-0.04c0.01-0.06,0.01-0.12,0.02-0.18
				c0.01-0.07,0.01-0.14,0.01-0.22c0-0.09-0.01-0.19-0.02-0.28c-0.01-0.05-0.01-0.09-0.02-0.14c-0.02-0.1-0.04-0.21-0.07-0.31
				c0,0,0-0.01,0-0.01c-0.01-0.02-0.01-0.04-0.02-0.06c0,0,0,0,0,0c-0.05-0.14-0.11-0.28-0.18-0.41c0,0,0,0,0,0
				c-0.06-0.11-0.13-0.22-0.2-0.32c-0.02-0.02-0.04-0.04-0.06-0.07c-0.03-0.04-0.06-0.08-0.1-0.11c-0.12-0.13-0.24-0.25-0.38-0.35
				c-0.19-0.13-0.38-0.25-0.6-0.33l-2.56-0.94c0.01,0.12,0,0.24-0.04,0.36c-0.08,0.24-0.25,0.43-0.47,0.55
				c-0.13,0.07-0.28,0.1-0.42,0.1c-0.1,0-0.2-0.02-0.29-0.05l-2.91-0.96c-0.24-0.08-0.43-0.25-0.54-0.47
				c-0.02-0.05-0.02-0.1-0.04-0.14c-0.18,0.17-0.43,0.28-0.7,0.28c-0.56,0-1.01-0.45-1.01-1.01c0-0.36,0.2-0.67,0.49-0.85l-4.08-1.5
				c-0.25-0.09-0.52-0.13-0.78-0.14c-0.07,0-0.14-0.01-0.21-0.01c-0.04,0-0.07,0.01-0.11,0.02c-0.19,0.02-0.37,0.06-0.55,0.11
				c0,0,0,0-0.01,0c-0.15,0.05-0.29,0.12-0.43,0.19c-0.08,0.04-0.15,0.09-0.22,0.15c-0.09,0.06-0.18,0.12-0.27,0.2
				c-0.15,0.14-0.29,0.29-0.4,0.45c-0.01,0.02-0.03,0.04-0.04,0.06c-0.01,0.03-0.03,0.05-0.04,0.08l-6.41,17.42
				c1.82,3.57,4.2,7.2,7.28,10.1c0.27,0.1,0.54,0.19,0.81,0.29c2,0.71,4.06,1.43,6.05,2.26l-0.38,0.92
				c-1.41-0.58-2.85-1.11-4.29-1.62c1.46,1.08,3.05,2,4.78,2.67l9.3-25.25C436.93,316.57,436.94,316.55,436.94,316.54z
				 M418.62,327.86l-3.64-1.34l0.35-0.94l3.64,1.34L418.62,327.86z M430.55,332.26c-2.19-0.98-4.54-1.79-6.82-2.57
				c-1.44-0.5-2.94-1.01-4.38-1.56l0.36-0.93c1.42,0.55,2.91,1.06,4.34,1.55c2.3,0.79,4.67,1.61,6.9,2.6L430.55,332.26z
				 M425.35,328.15c-3.8,0-6.9-3.09-6.9-6.9c0-3.8,3.09-6.9,6.9-6.9c0.02,0,0.04,0,0.07,0c0.01,0,0.02,0,0.03,0
				c0.9,0,1.75,0.19,2.52,0.52c2.51,1.03,4.28,3.5,4.28,6.38C432.25,325.05,429.16,328.15,425.35,328.15z"/>
			<path class="st3" d="M428.41,310.8c0.02-0.01,0.03-0.03,0.05-0.04l-0.06-0.02C428.4,310.76,428.4,310.78,428.41,310.8z"/>
			<path class="st10" d="M425.45,314.36c-0.01,0-0.02,0-0.03,0c0.9,0.01,1.77,0.19,2.55,0.52
				C427.2,314.54,426.35,314.36,425.45,314.36z"/>
			<path class="st10" d="M425.35,315.35c-3.25,0-5.9,2.65-5.9,5.9c0,2.44,1.49,4.54,3.6,5.43c0.72,0.29,1.5,0.45,2.32,0.46
				c3.24-0.02,5.87-2.65,5.87-5.9C431.25,318,428.6,315.35,425.35,315.35z M431.13,320.41c0.14,0.37,0.12,0.78-0.05,1.14
				c-0.17,0.36-0.47,0.63-0.84,0.77l-6.69,2.42c-0.16,0.06-0.33,0.09-0.5,0.09c-0.25,0-0.5-0.06-0.72-0.18l-0.08-0.05
				c-0.33-0.21-0.57-0.55-0.66-0.94l-0.98-4.37c-0.18-0.8,0.33-1.6,1.13-1.78c0.39-0.09,0.79-0.02,1.13,0.2
				c0.34,0.21,0.57,0.55,0.66,0.93l0.61,2.72l5.1-1.84C430,319.22,430.85,319.63,431.13,320.41z"/>
			<path class="st11" d="M422.54,318.85c-0.03-0.13-0.11-0.24-0.22-0.31c-0.08-0.05-0.17-0.08-0.26-0.08c-0.04,0-0.07,0-0.11,0.01
				c-0.27,0.06-0.43,0.32-0.38,0.59l0.98,4.38c0.03,0.13,0.11,0.24,0.22,0.31l0,0l-0.27,0.42l0.29-0.41
				c0.13,0.07,0.28,0.08,0.41,0.04l6.69-2.42c0.25-0.09,0.39-0.38,0.3-0.63c-0.09-0.26-0.38-0.39-0.63-0.3l-6.17,2.23L422.54,318.85
				z"/>
			<path class="st0" d="M436.96,311.17l-13.87-5.11c-1.96-0.72-4.16,0.29-4.88,2.25l-6.03,16.38c0.37,0.83,0.77,1.67,1.21,2.52
				l6.41-17.42c0.01-0.03,0.03-0.05,0.04-0.08c0.01-0.02,0.03-0.04,0.04-0.06c0.12-0.17,0.25-0.32,0.4-0.45l0,0
				c0.08-0.07,0.18-0.14,0.27-0.2c0,0,0,0,0,0c0.07-0.05,0.15-0.1,0.22-0.15l0,0c0.14-0.08,0.28-0.14,0.43-0.19h0
				c0.18-0.06,0.36-0.1,0.55-0.11c0.04,0,0.07-0.01,0.11-0.02c0.07,0,0.14,0.01,0.21,0.01c0.26,0.01,0.53,0.05,0.78,0.14l4.08,1.5
				c-0.29,0.18-0.49,0.48-0.49,0.85c0,0.56,0.45,1.01,1.01,1.01c0.27,0,0.52-0.11,0.7-0.28c0.02,0.05,0.02,0.1,0.04,0.14
				c0.11,0.22,0.31,0.39,0.54,0.47l2.91,0.96c0.1,0.03,0.2,0.05,0.29,0.05c0.14,0,0.29-0.03,0.42-0.1c0.22-0.11,0.39-0.31,0.47-0.55
				c0.04-0.12,0.05-0.24,0.04-0.36l2.56,0.94c0.22,0.08,0.42,0.2,0.6,0.33c0.14,0.1,0.27,0.22,0.38,0.35l0,0
				c0.03,0.04,0.06,0.08,0.1,0.11c0.1,0.12,0.18,0.25,0.26,0.38c0,0,0,0,0,0v0c0.07,0.13,0.13,0.27,0.18,0.41c0,0,0,0,0,0
				c0,0,0,0,0,0c0.01,0.02,0.01,0.04,0.02,0.06c0.03,0.1,0.05,0.2,0.07,0.31c0,0,0,0,0,0c0.05,0.26,0.05,0.53,0.01,0.81
				c0,0.01,0,0.03,0,0.04v0c-0.03,0.15-0.06,0.29-0.12,0.44l-9.3,25.25c0.6,0.23,1.22,0.43,1.86,0.61l9.72-26.39
				C439.93,314.08,438.92,311.89,436.96,311.17z M428.41,310.8c-0.01-0.02-0.01-0.04-0.01-0.06l0.06,0.02
				C428.44,310.77,428.42,310.79,428.41,310.8z"/>
			<path class="st0" d="M419.87,309.66c0.11-0.17,0.25-0.32,0.4-0.45C420.12,309.34,419.98,309.49,419.87,309.66z"/>
			<path class="st0" d="M420.53,309c0.07-0.05,0.15-0.1,0.22-0.15C420.68,308.9,420.61,308.95,420.53,309z"/>
			<path class="st0" d="M436.77,314.51c0.07,0.13,0.13,0.27,0.18,0.41C436.9,314.78,436.84,314.64,436.77,314.51z"/>
			<path class="st0" d="M436.03,313.66c0.14,0.1,0.26,0.23,0.38,0.35C436.3,313.88,436.17,313.76,436.03,313.66z"/>
			<path class="st0" d="M421.74,308.55c-0.19,0.02-0.37,0.06-0.55,0.11c0,0,0,0,0.01,0C421.37,308.61,421.56,308.57,421.74,308.55z"
				/>
			<path class="st0" d="M436.97,314.98c-0.01-0.02-0.01-0.04-0.02-0.06C436.96,314.94,436.96,314.96,436.97,314.98
				C436.97,314.98,436.97,314.98,436.97,314.98z"/>
			<path class="st0" d="M436.77,314.51c-0.07-0.13-0.16-0.26-0.26-0.38c0.02,0.02,0.04,0.04,0.06,0.07
				C436.64,314.29,436.71,314.4,436.77,314.51z"/>
			<path class="st0" d="M436.93,316.58c0.05-0.15,0.09-0.29,0.12-0.44c-0.02,0.13-0.06,0.27-0.1,0.4
				C436.94,316.55,436.93,316.57,436.93,316.58z"/>
			<path class="st0" d="M437.08,315.71c0,0.07-0.01,0.14-0.01,0.22c0,0.06-0.01,0.12-0.02,0.18c0.04-0.27,0.04-0.54-0.01-0.81
				c0.01,0.05,0.01,0.09,0.02,0.14C437.07,315.52,437.08,315.61,437.08,315.71z"/>
			<path class="st0" d="M419.71,327.19l-0.36,0.93c1.44,0.55,2.93,1.07,4.38,1.56c2.28,0.78,4.63,1.59,6.82,2.57l0.41-0.91
				c-2.23-0.99-4.6-1.81-6.9-2.6C422.62,328.25,421.13,327.74,419.71,327.19z"/>
			
				<rect x="416.48" y="324.78" transform="matrix(0.3465 -0.9381 0.9381 0.3465 -33.978 604.6625)" class="st0" width="1" height="3.88"/>
			<path class="st0" d="M427.51,339.86c-1.99-0.82-4.06-1.55-6.05-2.26c-0.27-0.09-0.54-0.19-0.81-0.29c0.7,0.66,1.43,1.28,2.2,1.85
				c1.44,0.51,2.88,1.04,4.29,1.62L427.51,339.86z"/>
			<path class="st0" d="M427.97,314.87c-0.79-0.33-1.65-0.51-2.55-0.52c-0.02,0-0.04,0-0.07,0c-3.8,0-6.9,3.09-6.9,6.9
				c0,3.8,3.09,6.9,6.9,6.9c3.8,0,6.9-3.09,6.9-6.9C432.25,318.38,430.48,315.91,427.97,314.87z M425.38,327.15
				c-0.01,0-0.02,0-0.03,0c-0.81,0-1.59-0.17-2.3-0.47c-2.11-0.9-3.6-2.99-3.6-5.43c0-3.25,2.65-5.9,5.9-5.9
				c3.25,0,5.9,2.65,5.9,5.9C431.25,324.49,428.62,327.13,425.38,327.15z"/>
			<path class="st0" d="M424.13,321.35l-0.61-2.72c-0.09-0.39-0.32-0.72-0.66-0.93c-0.34-0.21-0.74-0.28-1.13-0.2
				c-0.8,0.18-1.31,0.98-1.13,1.78l0.98,4.37c0.08,0.38,0.32,0.73,0.66,0.94l0.08,0.05c0.22,0.12,0.47,0.18,0.72,0.18
				c0.17,0,0.34-0.03,0.5-0.09l6.69-2.42c0.37-0.14,0.67-0.41,0.84-0.77c0.17-0.36,0.19-0.77,0.05-1.14
				c-0.28-0.77-1.14-1.18-1.91-0.89L424.13,321.35z M430.2,320.75c0.09,0.25-0.04,0.54-0.3,0.63l-6.69,2.42
				c-0.13,0.05-0.28,0.04-0.41-0.04l-0.29,0.41l0.27-0.42l0,0c-0.11-0.07-0.19-0.18-0.22-0.31l-0.98-4.38
				c-0.06-0.26,0.11-0.53,0.38-0.59c0.04-0.01,0.07-0.01,0.11-0.01c0.09,0,0.18,0.03,0.26,0.08c0.11,0.07,0.19,0.18,0.22,0.31
				l0.86,3.83l6.17-2.23C429.82,320.36,430.1,320.49,430.2,320.75z"/>
		</g>
		<path class="st1" d="M410.18,316.5c0,0,5.74,25.72,23.54,24.93"/>
	</g>
</g>
</svg>
