<svg width="67" height="67" viewBox="0 0 67 67" fill="none" xmlns="http://www.w3.org/2000/svg">
<circle cx="33.5" cy="33.5" r="33.5" fill="#90BCD6"/>
<path d="M38.5 46.9951H36V29.2281C36 27.825 34.8805 26.6899 33.5 26.6899H28.5C27.1195 26.6899 26 27.825 26 29.2281C26 30.6312 27.1195 31.6948 28.5 31.6948H31V46.9237H28.5C27.1195 46.9237 26 48.0587 26 49.4619C26 50.865 27.1195 52 28.5 52H38.5C39.8805 52 41 50.865 41 49.4619C41 48.0587 39.8828 46.9951 38.5 46.9951ZM33.5 21.6136C35.5711 21.6136 37.25 19.9091 37.25 17.8064C37.25 15.7037 35.5703 14 33.5 14C31.4297 14 29.75 15.7045 29.75 17.8072C29.75 19.9099 31.4289 21.6136 33.5 21.6136Z" fill="#37383B"/>
</svg>
