<?xml version="1.0" encoding="utf-8"?>
<!-- Generator: Adobe Illustrator 23.0.6, SVG Export Plug-In . SVG Version: 6.00 Build 0)  -->
<svg version="1.1" xmlns="http://www.w3.org/2000/svg" xmlns:xlink="http://www.w3.org/1999/xlink" x="0px" y="0px"
	 viewBox="0 0 841.89 467.72" style="enable-background:new 0 0 841.89 467.72;" xml:space="preserve">
<style type="text/css">
	.st0{fill:#F5C65D;}
	.st1{fill:none;stroke:#54575C;stroke-width:1.0414;stroke-miterlimit:10;}
	.st2{fill:#F4F4F5;}
	.st3{fill:#DCEFFA;}
	.st4{fill:#FFFFFF;}
	.st5{fill:none;stroke:#54575C;stroke-width:1.1801;stroke-miterlimit:10;}
	.st6{fill:none;stroke:#54575C;stroke-miterlimit:10;}
	.st7{fill:none;stroke:#54575C;stroke-width:0.9458;stroke-miterlimit:10;}
	.st8{fill:#235485;}
	.st9{fill:#E0635D;}
	.st10{fill:#61A575;}
	.st11{fill:#4890BA;}
	.st12{fill:#54575C;}
	.st13{clip-path:url(#SVGID_2_);fill:#FFFFFF;}
	.st14{fill:#DD8868;}
	.st15{fill:#E07A3D;}
	.st16{fill:none;}
	.st17{fill:#F8CBAA;}
	.st18{fill:none;stroke:#54575C;stroke-linejoin:round;stroke-miterlimit:10;}
</style>
<g id="Layer_1">
</g>
<g id="Layer_2">
</g>
<g id="Layer_3">
	<rect x="-1.73" y="-3.96" class="st0" width="845.34" height="475.63"/>
	<g>
		<g>
			<ellipse class="st1" cx="418.77" cy="46.05" rx="91.87" ry="9.31"/>
			<path class="st2" d="M418.77,33.3c-53.25,0-96.41,5.43-96.41,12.13l17.61,376.81c0,7.49,36.28,13.56,81.03,13.56
				c44.75,0,81.03-6.07,81.03-13.56l13.15-376.81C515.19,38.73,472.02,33.3,418.77,33.3z"/>
			<path class="st3" d="M418.77,103.56c-50.07,0-90.65,3.48-90.65,7.78l12.36,276.73c0,7.49,34.89,13.32,79.64,13.32
				s81.03-6.07,81.03-13.56l8.27-276.5C509.43,107.04,468.84,103.56,418.77,103.56z"/>
			<ellipse class="st4" cx="418.77" cy="111.34" rx="90.65" ry="7.78"/>
		</g>
		<g>
			<ellipse class="st4" cx="420.51" cy="52.13" rx="91.87" ry="9.31"/>
			<ellipse class="st1" cx="423.12" cy="48.66" rx="91.87" ry="9.31"/>
			<path class="st5" d="M423.12,35.9c-53.25,0-96.41,5.43-96.41,12.13l17.61,376.81c0,7.49,36.28,13.56,81.03,13.56
				c44.75,0,81.03-6.07,81.03-13.56l13.15-376.81C519.53,41.33,476.36,35.9,423.12,35.9z"/>
			<path class="st6" d="M423.12,106.16c-50.07,0-90.65,3.48-90.65,7.78l12.36,276.73c0,7.49,34.89,13.32,79.64,13.32
				s81.03-6.07,81.03-13.56l8.27-276.5C513.77,109.64,473.18,106.16,423.12,106.16z"/>
			<ellipse class="st7" cx="423.12" cy="113.94" rx="90.65" ry="7.78"/>
		</g>
	</g>
	<g>
		<g>
			<path class="st4" d="M403.08,409.52c-3.7-7.41-2.56-17.38-3.7-23.36c-0.6-3.13-2.2-8.27-3.6-12.48
				c-0.98,0.34-2.13,0.65-3.53,0.92c-4.42,0.84-16.4,2.02-29.41,2.97c3.58,4.56,8.25,11.21,9.76,16.57
				c2.56,9.12,1.42,24.22,7.41,34.19c5.98,9.97,21.94,41.6,21.94,45.3l22.79-0.85c0,0-7.12-9.4-8.55-16.81
				S406.78,416.92,403.08,409.52z"/>
			<path class="st4" d="M631.46,91.21c-5.55-7.63-2.31-12.02-3.47-17.56c-1.16-5.55-8.09-8.55-14.79-11.09s-10.17-6.01-13.87-3
				s-7.86,8.32-9.71,9.47c-1.85,1.16-7.16,2.54-7.63,7.16c-0.06,0.56-0.1,1.11-0.15,1.65c-0.32,3.9-0.37,7.37-0.78,12.45
				c-0.46,5.78,1.85,14.56,7.4,15.48c0.01,0,0.01,0,0.01,0c-0.85-3.73-1.86-7.86-1.86-7.86s-5.08-0.46-4.16-3
				c0.57-1.57,2.03-9.24,3.05-14.86c0.63-3.47,1.11-6.17,1.11-6.17s2.2-5.34,6.04-3.42c0.2,0.1,0.38,0.23,0.56,0.38
				c3.18,2.55,2.49,11.36,5.63,13.28c3.31,2.03,7.26,2.88,7.47,5.23s0.89,3.6,3.95,4.91c4.48,1.92,3.57,9.01,1.49,10.88
				c0,0-3.19,2.95,0.28,3.87c0.91,0.24,1.9,0.47,2.91,0.63c2.84,0.45,5.85,0.38,7.72-1.32c2.54-2.31,4.39,1.16,6.01-1.39
				C630.3,104.38,637,98.84,631.46,91.21z"/>
			<path class="st4" d="M629.51,117.33c-0.96-0.45-2.43-1.05-4.76-1.85c-5.13-1.77-8.36-3.41-9.8-5.84c-1.01-0.16-2-0.39-2.91-0.63
				c-3.47-0.92-0.28-3.87-0.28-3.87c2.07-1.87,2.99-8.96-1.49-10.88c-3.05-1.31-3.73-2.56-3.95-4.91s-4.16-3.2-7.47-5.23
				c-3.13-1.92-2.44-10.73-5.63-13.28c-0.18-0.14-0.36-0.28-0.56-0.38c-3.84-1.92-6.04,3.42-6.04,3.42s-0.47,2.7-1.11,6.17
				c-1.03,5.62-2.48,13.29-3.05,14.86c-0.92,2.54,4.16,3,4.16,3s1.01,4.13,1.86,7.86c0.56,2.45,1.05,4.72,1.14,5.55
				c0.23,2.08,7.4,0.46,8.55-0.23c0,0,5.32,8.78,3.47,11.55c-0.2,0.29-0.43,0.59-0.69,0.89c-2.18,2.55-6.24,5.47-6.24,10.43
				c0,5.55-1.39,19.41,2.08,18.72c1.16-0.23,3.89-3.2,7.12-7.14c6.41-7.82,14.84-19.51,17.14-21.51c3.47-3,10.17-5.55,10.17-5.55
				S631.31,118.18,629.51,117.33z"/>
			<path class="st4" d="M564.16,167.23c2.35,3.2,5.22,7.38,7.77,7.12c2.55-0.26,7.25,0.33,6.72-3.59c-0.52-3.92-5.74-6.66-7.51-9.92
				c-0.91-0.39-2.42,1.96-2.42,1.96c-1.24,0.07-3.13,1.5-3.13,1.5c-1.47,0.43-2.14,1.21-2.45,1.77
				C563.51,166.42,563.85,166.8,564.16,167.23z"/>
			<path class="st4" d="M614.05,193.45l-0.01-8.26c-1.54-0.11-4.37-1.16-7.39-2.47c-3.33-1.44-6.89-3.2-9.21-4.38
				c-1.54-0.78-2.53-1.31-2.53-1.31s-8.36-2.87-14.17-10.45c-0.47-0.61-0.91-1.16-1.33-1.69c-4.8-5.95-6.61-6.4-7.81-6.34
				c-1.31,0.07-0.46,2.28-0.46,2.28c1.76,3.26,6.99,6.01,7.51,9.92c0.52,3.92-4.18,3.33-6.72,3.59c-2.55,0.26-5.42-3.92-7.77-7.12
				c-0.31-0.43-0.66-0.81-1.01-1.16c-1.75-1.72-3.85-2.53-4.75-2.82c-0.26-0.08-0.56,0-0.73,0.22c-2.13,2.87,1.99,5.72,3.14,6.92
				c1.31,1.37,7.59,6.51,9.16,6.9c0.8,0.2,1.77,0.47,2.94,0.72c1.13,0.25,2.44,0.49,3.98,0.65c2.12,0.22,3.94,2.64,5.96,4.66
				c0.97,0.97,1.99,1.84,3.12,2.33c1.2,0.52,4.99,1.69,9.44,3.01c7.27,2.15,16.3,4.67,18.64,5.32L614.05,193.45z"/>
			<path class="st4" d="M598.18,111.09c-1.16,0.69-8.32,2.31-8.55,0.23c-0.09-0.82-0.58-3.1-1.14-5.55c-0.01,0-0.01,0-0.01,0
				c-5.55-0.92-7.86-9.71-7.4-15.48c0.41-5.08,0.46-8.55,0.78-12.45c-1.04-0.44-2.49-0.85-3.88-0.57c-1.01,0.2-1.99,0.75-2.75,1.94
				c-2.02,3.14-9.05,14.63-14.99,20.14c-2.02,1.87-3.91,3.05-5.43,2.98c0,0,0.48-6.92,2.5-11.4l-0.72-1.14
				c-2.83,0.8-8.62,3.04-8.39,8.04c0,0-5.1,1.8-7.51,9.91c-2.4,8.11-5.1,31.83-4.2,38.13s-2.1,47.44-1.2,55.85
				c0.9,8.41-0.9,16.51-0.9,16.51c15.29,8.27,31.84,1.69,36.88-0.71c2.81-8.28,6.58-19.3,7.1-20.62l-5.45-18.89
				c-1.17-0.26-2.14-0.52-2.94-0.72c-1.57-0.39-7.86-5.53-9.16-6.9c-1.14-1.2-5.26-4.04-3.14-6.92c0.16-0.22,0.46-0.31,0.73-0.22
				c0.9,0.29,2.99,1.1,4.75,2.82c0.31-0.57,0.98-1.35,2.45-1.77c0,0,1.89-1.44,3.13-1.5c0,0,1.5-2.35,2.42-1.96
				c0,0-0.85-2.22,0.46-2.28c1.2-0.06,3.02,0.39,7.81,6.34c-0.12-1.39-0.16-2.61-0.09-3.53c0.06-0.81,0.09-2.01,0.11-3.46
				c0.12-8.22-0.02-24.76,4.58-28.02c5.11-3.62,11.65-5.17,16.93-6.36c0.26-0.3,0.5-0.6,0.69-0.89
				C603.49,119.87,598.18,111.09,598.18,111.09z"/>
			<path class="st4" d="M537.42,46.52c3.08-1.08,3.7,2.77,5.85,5.7c2.16,2.93,5.24,3.54,7.09,3.54c1.85,0,0.77-1.23,2-2.16
				c1.23-0.92,1.85-0.31,3.08-0.31s1.23-2.16,1.23-2.16c0-2.16,2.47-1.85,2.47-1.85c3.39-0.31,4.16,6.78,4.16,6.78l2.31,0.31
				c1.85,4.01,5.85,6.32,5.85,6.32c0,0.02,0,0.05,0,0.08c0.48,0.06,0.88,0.05,1.15-0.3c0.78-1.02,0.85-2.91,1.11-3.77
				c0.46-1.54-0.17-6.08-2.89-13.41c-2.69-7.26-8.17-11.4-11.09-13.71s-9.86,0.46-15.25,0.77c-5.39,0.31-7.09,1.23-10.32,6.01
				c-3.24,4.78-5.85,8.01-5.85,10.63c0,1.52,1.44,2.41,2.66,2.9c-0.22-0.56-0.35-0.89-0.35-0.89
				C532.8,50.06,534.34,47.6,537.42,46.52z"/>
			<path class="st4" d="M571.47,62.77c0-0.02,0-0.05,0-0.08c0,0-4.01-2.31-5.85-6.32l-2.31-0.31c0,0-0.77-7.09-4.16-6.78
				c0,0-2.47-0.31-2.47,1.85c0,0,0,2.16-1.23,2.16s-1.85-0.62-3.08,0.31c-1.23,0.92-0.15,2.16-2,2.16c-1.85,0-4.93-0.62-7.09-3.54
				c-2.16-2.93-2.77-6.78-5.85-5.7s-4.62,3.54-6.78,4.47c0,0,0.13,0.33,0.35,0.89c1.06,2.77,4.17,11.31,3.66,15.28
				c-0.62,4.78,0.46,7.24,1.69,7.24s2.47,0.15,2.47,0.15s2.77,3.39,3.24,5.24c0.46,1.85-0.15,6.16,3.39,6.47s9.24,0.46,9.24,0.46
				l1.91,3.04l0.72,1.14c-2.02,4.48-2.5,11.4-2.5,11.4c1.52,0.08,3.41-1.11,5.43-2.98c5.94-5.51,12.97-17,14.99-20.14
				c0.76-1.19,1.74-1.74,2.75-1.94C575.9,73.41,571.46,64.91,571.47,62.77z"/>
			<path class="st4" d="M343.7,157.8c1.18,0.13,2.29,0.56,3.32,1.18l0.92-3.66c0,0,8.19-1.9,11.26-2.63s0.44-8.34,3.07-15.5
				c2.63-7.17-1.17-5.26-3.22-10.24s-4.97-13.45-4.97-13.45s-0.22,0.09-0.6,0.24c-0.62,0.93-1.22,2.09-1.6,3.42
				c-1.02,3.66-1.61,10.09-1.61,10.09s-4.39-4.39-7.9-1.46s-2.63,5.56-2.63,5.56s-0.15,12.72-5.41,13.16
				c-0.49,0.04-0.95,0.12-1.4,0.2c-0.94,0.49-2,0.76-3.03,0.92c-1.61,0.64-3.01,1.36-4.39,1.64c0.64,1.93-1.03,7.54-1.79,9.91
				C330.28,157.01,339.52,157.35,343.7,157.8z"/>
			<path class="st4" d="M350.58,102.52c-2.05-2.34-11.26-6.29-16.82-6.43s-14.48,3.51-14.48,3.51s-7.75-8.63-16.96-2.63
				s2.63,17.99,2.63,17.99c5.7,6.87,10.09,4.53,10.09,4.53s-2.49,7.31-3.8,11.85c-1.32,4.53,7.6,14.04,11.26,15.65
				c1.04,0.46,2.03,0.48,3.03,0.28c1.38-0.28,2.78-0.99,4.39-1.64c1.03-0.16,2.09-0.43,3.03-0.92c0.45-0.09,0.91-0.16,1.4-0.2
				c5.26-0.44,5.41-13.16,5.41-13.16s-0.88-2.63,2.63-5.56s7.9,1.46,7.9,1.46s0.58-6.43,1.61-10.09c0.37-1.33,0.98-2.48,1.6-3.42
				c1.08-1.63,2.21-2.58,2.21-2.58C357.3,107.79,352.63,104.86,350.58,102.52z"/>
			<path class="st4" d="M354.76,168.34c-0.95-1.89-3.79-7-7.73-9.36c-1.04-0.62-2.15-1.05-3.32-1.18
				c-4.19-0.46-13.42-0.8-19.97-0.64c-3.97,0.1-6.95,0.38-7.23,0.93c-0.73,1.46-1.02,6.43-0.58,6.73s8.48,1.9,17.4,1.46
				c8.92-0.44,14.62,0.15,17.55,1.75s4.24,1.02,4.24,1.02S354.99,168.79,354.76,168.34z"/>
			<path class="st4" d="M379.43,119.29c-6.55-0.72-12.45,4-13.17,10.56c-0.64,5.84,3.05,11.15,8.5,12.75l-2.25,14.94l-0.64,4.23
				c0.55-0.08,1.17-0.25,1.81-0.55c0.64-0.31,1.29-0.75,1.9-1.4c0.76-0.81,1.54-0.59,2.35,0.17l0.63-16.91
				c5.82-0.21,10.77-4.64,11.43-10.61C390.71,125.91,385.98,120.01,379.43,119.29z M387.56,132.19c-0.57,5.21-5.27,8.97-10.48,8.4
				c-5.21-0.57-8.97-5.27-8.4-10.48s5.27-8.97,10.48-8.4C384.37,122.29,388.13,126.98,387.56,132.19z"/>
			<path class="st4" d="M383.84,167.61c-2.11-1.46-4.07-5.92-5.91-7.64c-0.81-0.76-1.59-0.98-2.35-0.17c-0.61,0.65-1.26,1.1-1.9,1.4
				c-0.64,0.3-1.26,0.47-1.81,0.55c-1.15,0.17-1.99,0-1.99,0s-1.48,0.56-2.46,1.89c-0.63,0.87-1.05,2.07-0.7,3.67
				c0.51,2.3,0.3,8.01,0.02,12.54c-0.21,3.46-0.47,6.23-0.47,6.23l4.25,25.64c0,0-20.8,3.04-21.73,5.84c0,0,4.91,29.21,7.71,31.31
				c2.51,1.88,7.83-1.3,12.44-6.51c0.54-0.61,1.07-1.24,1.58-1.9c4.91-6.31,9.58-20.33,9.81-33.42c0.23-13.09-4.92-26.45,1.25-31.48
				C385.41,172.46,386.87,169.72,383.84,167.61z"/>
			<path class="st4" d="M322.38,379.03c-1.83-0.13-3.62-0.24-5.35-0.35c1.2,6.22,3.31,18.08,3.71,27.13
				c0.57,12.82,2.28,55.84,10.83,67.24l19.37,1.14c0,0-4.47-13.18-6.55-26.5c-1.88-12-1.41-24.02-1.14-28.21
				c0.42-6.46,0.22-29.05,0.09-40.74C334.41,379.17,326.61,379.33,322.38,379.03z"/>
			<path class="st4" d="M400.66,368.52c0,0-19.86-55.85-22.43-59.59s-6.01-38.08-4.84-45.39c1.09-6.83-3.81-19.52-4.46-21.17
				c-4.61,5.21-9.93,8.39-12.44,6.51c-2.8-2.1-7.71-31.31-7.71-31.31c0.79-2.37,15.79-4.91,20.4-5.64c0.84-0.13,1.34-0.2,1.34-0.2
				l-4.25-25.64c0,0,0.25-2.77,0.47-6.23c-0.7-1.49-1.64-3.12-2.85-5.23c-2.08-3.61-6.6-5.5-9.12-6.28
				c0.23,0.46,0.35,0.73,0.35,0.73s-1.32,0.58-4.24-1.02s-8.63-2.19-17.55-1.75c-8.92,0.44-16.96-1.17-17.4-1.46
				c-2.95,3.81-19.48,24.93-22.28,32.64s3.51,17.53,5.84,24.77s10.28,22.67,10.28,22.67s2.34,2.57,4.21,6.78
				s-11.68,35.52-17.76,56.78s-2.8,37.15-3.27,46.03c-0.47,8.88-2.34,18.93,1.64,21.26c3.42,2.01,11.85,2.29,22.46,2.93
				c1.73,0.1,3.51,0.22,5.35,0.35c4.24,0.3,12.03,0.14,20.96-0.28c6.22-0.29,12.98-0.71,19.5-1.19c13.01-0.95,24.99-2.12,29.41-2.97
				c1.39-0.26,2.55-0.58,3.53-0.92C401.69,371.61,400.66,368.52,400.66,368.52z"/>
			<path class="st4" d="M220.7,82.89c6.48-3.64,10.43,1.58,15.18-2.21c1.53-1.23,4.32-1.44,5.85-3.16c3.2-3.61,4.74-8.85,4.74-8.85
				s0.07,0.29,0.19,0.79c0.24-3.35-0.44-8.12-5.41-9.64c-7.75-2.37-7.59-4.27-17.55-1.26c-9.96,3-10.75,5.69-14.7,6.48
				c-3.95,0.79-4.11,1.74-4.11,1.74s1.63-6.46-3.95-8.69c-5.53-2.21-8.69,0.79-9.48,1.42c-0.79,0.63-4.74,10.59-0.32,16.6
				s8.38,8.22,10.59,3.95c0,0,3,7.9,7.27,10.59s3.32,8.06,3.32,8.06l3.32-3.79l2.53-0.16C218.17,94.75,214.22,86.53,220.7,82.89z"/>
			<path class="st4" d="M253.84,93.51c0.76-0.24,1.08-1.12,0.67-1.81c-2.87-4.77-7.01-18.79-7.85-22.25
				c-0.12-0.5-0.19-0.79-0.19-0.79s-1.54,5.24-4.74,8.85c-1.53,1.72-4.32,1.94-5.85,3.16c-4.74,3.79-8.69-1.42-15.18,2.21
				c-6.48,3.64-2.53,11.86-2.53,11.86l-2.53,0.16c2,5,0.05,6.64-1.25,9.07c-0.34,0.64-0.64,1.33-0.81,2.16
				c-0.79,3.95,6.32,12.8,9.64,14.86c3.32,2.05,3.95,0.79,6.96,3.16c2.07,1.64,8.29,13.23,11.95,20.24
				c0.54,1.04,2.11,0.54,1.96-0.62l-1.89-14.24c0,0-3.82-8.31-5.45-13.72c-0.15-0.51-0.29-1-0.4-1.45
				c-1.26-5.22,3.95-4.58,3.95-4.58s4.27-0.32,6.32-0.95c5.16-1.59,3.32-14.07,3.32-14.07L253.84,93.51z"/>
			<path class="st4" d="M279.35,199.39c-3.32-2.37-1.26-1.42-1.74-3.48c-0.38-1.63-12.03-14.74-16.8-20.05
				c1.1,7.02,2.63,14.53,3.2,17.84c0.18,1.07,0.5,3.18,0.88,5.9c0.65,0.87,1.29,1.79,1.81,2.63c1.74,2.85,0,7.43,2.37,9.01
				c2.37,1.58,4.27,0,6.16-0.47c1.9-0.47,3.79,7.59,4.58,8.06c0.79,0.47,1.42-4.58,1.11-7.59s1.74-3.64,1.74-3.64s5.69,3,8.06,2.53
				C293.1,209.67,282.67,201.76,279.35,199.39z"/>
			<path class="st4" d="M264.89,199.61c-0.38-2.72-0.69-4.84-0.88-5.9c-0.57-3.31-2.1-10.82-3.2-17.84
				c-0.74-4.7-1.29-9.18-1.22-12.04c0.16-7.11-1.58-17.23-6.32-22.45c-4.74-5.22-5.06-12.17-6.64-14.86s-3.79-4.27-3.79-4.27
				s2.61-7.11-6.08-6.45c1.63,5.41,5.45,13.72,5.45,13.72l1.87,14.07c0.16,1.19-1.46,1.71-2.02,0.64
				c-3.66-7.03-9.81-18.46-11.87-20.09c-3-2.37-3.64-1.11-6.96-3.16c-3.32-2.05-10.43-10.91-9.64-14.86
				c0.17-0.83,0.46-1.52,0.81-2.16c-2.47,0.27-6.21,1.23-6.97,4.05c-1.11,4.11-9.64,13.28-12.33,16.44
				c-2.69,3.16-4.11,11.38-4.11,18.02c0,6.64,4.27,23.55,8.22,39.52c3.95,15.97,7.59,22.29,7.59,30.51c0,8.22-1.74,18.49-1.74,18.49
				s0.11,0.01,0.3,0.02c1.51,0.1,8.8,0.6,17.94,1.19c-1.98-1.71-3.88-3.18-4.98-4c-0.58-0.43-0.94-0.69-0.94-0.69l11.7-5.85
				c0,0,1.97,3,4.69,6.4c1.35,1.69,2.89,3.48,4.47,5.06c10.43,0.61,20.7,1.15,26.35,1.24c2.76,0.05,4.42-0.01,4.47-0.21
				C269.33,233.15,266.49,211.01,264.89,199.61z"/>
			<path class="st4" d="M261.96,255.51c-2.85-0.32-7.27-11.07-7.27-11.07s7.43,0.32,9.17-2.05c1.74-2.37-12.8-3.48-18.97-4.74
				c-2-0.41-4.36-2.23-6.64-4.51c-1.58-1.58-3.12-3.36-4.47-5.06c-2.72-3.4-4.69-6.4-4.69-6.4l-11.7,5.85c0,0,0.36,0.26,0.94,0.69
				c1.09,0.82,3,2.28,4.98,4c0.72,0.63,1.45,1.28,2.15,1.95c3.64,3.48,17.55,15.49,21.97,18.02c4.43,2.53,11.86,16.12,15.02,15.97
				s-2.69-9.96-2.69-9.96s9.8,1.74,11.38-0.79C272.71,254.88,264.8,255.83,261.96,255.51z"/>
			<path class="st4" d="M245.84,411.85c-3.41-0.13-6.18-1.17-8.26-2.32c0.02,0.38,0.03,0.64,0.04,0.74
				c0.04,0.39-1.01,0.78-2.64,1.14c4.34,7.06,15.34,14.64,15.34,14.64s14.22,6.46,20.46,4.95s10.98-2.37,10.34-4.95
				c-0.65-2.58-5.11-3.85-10.12-6.46c-4.1-2.13-7.82-6.14-9.56-9.64C258.83,410.6,252.15,412.09,245.84,411.85z"/>
			<path class="st4" d="M250.32,426.04c0,0-11-7.57-15.34-14.64c-0.28,0.06-0.59,0.12-0.91,0.18c-4,0.75-10.34,1.28-13.34,1.16
				c-0.94,3.85-2.74,12.09-1.43,13.72c1.72,2.15,19.82,12.06,27.79,10.55C255.06,435.52,254.84,431.21,250.32,426.04z"/>
			<g>
				<g>
					<defs>
						<path id="SVGID_1_" d="M289.15,317.16c-2.85-13.28-17.07-64.18-17.07-64.18s-5.09-11.78-7.48-18.6
							c-5.66-0.1-15.92-0.63-26.35-1.24c2.28,2.27,4.64,4.1,6.64,4.51c6.16,1.26,20.71,2.37,18.97,4.74
							c-1.74,2.37-9.17,2.05-9.17,2.05s4.43,10.75,7.27,11.07s10.75-0.63,9.17,1.9c-1.58,2.53-11.38,0.79-11.38,0.79
							s5.85,9.8,2.69,9.96s-10.59-13.44-15.02-15.97c-4.43-2.53-18.34-14.54-21.97-18.02c-0.7-0.67-1.43-1.33-2.15-1.95
							c-9.15-0.59-16.43-1.09-17.94-1.19c-0.5,3.88-1.43,11.43-1.88,17.05c-0.63,7.9-1.11,38.41,2.05,49.64
							c3.16,11.22,6.16,44.1,6.16,44.1s2.69,30.51,3.16,38.89c0.47,8.38,3.16,30.82,4.27,31.77c0.17,0.15,0.76,0.24,1.62,0.27
							c3,0.12,9.34-0.41,13.34-1.16c0.32-0.06,0.62-0.12,0.91-0.18c1.62-0.35,2.67-0.75,2.64-1.14c-0.01-0.1-0.03-0.36-0.04-0.74
							c2.08,1.15,4.86,2.19,8.26,2.32c6.32,0.25,13-1.25,15.61-1.91c0.72-0.18,1.15-0.31,1.15-0.31s0.32-18.18,2.37-24.19
							c2.05-6.01,21.02-48.37,21.02-48.37S291.99,330.44,289.15,317.16z M258.01,323.17c-0.47,3.79-14.15,48.42-20.99,70.61
							c-0.33-11.03-0.62-24.03-0.35-26.98c0.47-5.22,11.07-71.61,11.07-71.61S258.64,318.11,258.01,323.17z"/>
					</defs>
					<use xlink:href="#SVGID_1_"  style="overflow:visible;fill:#FFFFFF;"/>
					<clipPath id="SVGID_2_">
						<use xlink:href="#SVGID_1_"  style="overflow:visible;"/>
					</clipPath>
					<path class="st13" d="M289.15,317.16c-2.85-13.28-17.07-64.18-17.07-64.18s-5.09-11.78-7.48-18.6
						c-5.66-0.1-15.92-0.63-26.35-1.24c2.28,2.27,4.64,4.1,6.64,4.51c6.16,1.26,20.71,2.37,18.97,4.74
						c-1.74,2.37-9.17,2.05-9.17,2.05s4.43,10.75,7.27,11.07s10.75-0.63,9.17,1.9c-1.58,2.53-11.38,0.79-11.38,0.79
						s5.85,9.8,2.69,9.96s-10.59-13.44-15.02-15.97c-4.43-2.53-18.34-14.54-21.97-18.02c-0.7-0.67-1.43-1.33-2.15-1.95
						c-9.15-0.59-16.43-1.09-17.94-1.19c-0.5,3.88-1.43,11.43-1.88,17.05c-0.63,7.9-1.11,38.41,2.05,49.64
						c3.16,11.22,6.16,44.1,6.16,44.1s2.69,30.51,3.16,38.89c0.47,8.38,3.16,30.82,4.27,31.77c0.17,0.15,0.76,0.24,1.62,0.27
						c3,0.12,9.34-0.41,13.34-1.16c0.32-0.06,0.62-0.12,0.91-0.18c1.62-0.35,2.67-0.75,2.64-1.14c-0.01-0.1-0.03-0.36-0.04-0.74
						c2.08,1.15,4.86,2.19,8.26,2.32c6.32,0.25,13-1.25,15.61-1.91c0.72-0.18,1.15-0.31,1.15-0.31s0.32-18.18,2.37-24.19
						c2.05-6.01,21.02-48.37,21.02-48.37S291.99,330.44,289.15,317.16z M258.01,323.17c-0.47,3.79-14.15,48.42-20.99,70.61
						c-0.33-11.03-0.62-24.03-0.35-26.98c0.47-5.22,11.07-71.61,11.07-71.61S258.64,318.11,258.01,323.17z"/>
					<path class="st13" d="M230.23,356.01c-2.49-29.98-4.98-59.97-7.47-89.95c-1.33-16.07-2.31-32.41-7.17-47.89
						c-0.77-2.45-4.63-1.4-3.86,1.06c4.28,13.65,5.46,27.93,6.63,42.11c1.24,14.91,2.47,29.82,3.71,44.73
						c2.48,29.9,4.96,59.8,7.44,89.7l4.17,50.19c0.21,2.55,4.21,2.57,4,0C235.2,415.97,232.72,385.99,230.23,356.01z"/>
					<path class="st13" d="M221.61,366.66c-3.4-29.86-7.19-59.68-11.37-89.44c-2.35-16.75-4.82-33.49-7.41-50.21
						c-0.17-1.07-1.5-1.66-2.46-1.4c-1.14,0.31-1.56,1.39-1.4,2.46c4.6,29.67,8.82,59.4,12.65,89.18
						c3.81,29.63,7.23,59.31,10.27,89.03c1.71,16.75,3.3,33.51,4.77,50.28c0.09,1.08,0.85,2,2,2c1.01,0,2.09-0.92,2-2
						C228.04,426.56,225.02,396.59,221.61,366.66z"/>
					<path class="st13" d="M243.56,281.66c-0.35-23.96-1.43-47.9-3.23-71.79c-1.02-13.51-2.27-27-3.75-40.47c-0.12-1.07-0.83-2-2-2
						c-0.99,0-2.12,0.92-2,2c2.63,23.98,4.54,48.04,5.71,72.13c1.16,23.93,1.6,47.9,1.31,71.85c-0.16,13.55-0.56,27.09-1.18,40.63
						c-0.12,2.57,3.88,2.57,4,0C243.53,329.92,243.91,305.79,243.56,281.66z"/>
					<path class="st13" d="M273.36,257.32c-3.5-7.46-7.43-14.73-11.75-21.75c-0.43-0.69-1.06-0.96-1.69-0.94
						c0.54-4.94,1.05-9.88,1.52-14.83c0.84-8.82,1.57-17.66,2.19-26.5c0.18-2.57-3.82-2.56-4,0c-2.2,31.09-5.7,62.09-10.53,92.89
						c-1.35,8.59-2.8,17.17-4.35,25.73c-0.19,1.06,0.29,2.16,1.4,2.46c0.97,0.27,2.26-0.33,2.46-1.39
						c1.38,25.94-0.29,52.04-5.09,77.58c-1.5,7.98-3.3,15.9-5.38,23.75c-0.66,2.49,3.2,3.55,3.86,1.06
						c7.48-28.17,11.23-57.34,11.09-86.48c-0.04-8.28-0.4-16.55-1.06-24.8c-0.08-1.01-0.76-1.62-1.53-1.83
						c0.63-3.69,1.24-7.37,1.83-11.06c2.84,7.57,5.56,15.18,8.13,22.85c1.47,4.37,2.9,8.78,3.68,13.34c0.77,4.5,0.63,9.1-0.09,13.6
						c-0.75,4.66-2,9.22-3.21,13.78c-1.23,4.63-2.47,9.25-3.73,13.87c-2.51,9.24-5.05,18.48-7.64,27.7
						c-2.95,10.49-5.95,20.97-9.01,31.43c-0.72,2.48,3.14,3.53,3.86,1.06c5.46-18.7,10.76-37.46,15.87-56.26
						c2.52-9.26,5.38-18.53,7.25-27.94c0.93-4.67,1.5-9.48,1.09-14.24c-0.4-4.71-1.59-9.28-3.02-13.77
						c-3.27-10.29-6.99-20.46-10.85-30.55c-0.24-0.64-0.72-1.15-1.31-1.36c1.26-8.18,2.44-16.37,3.52-24.57
						c7.77,17.09,12.2,35.6,14.25,54.23c2.38,21.56,1.67,43.33-0.15,64.91c-1.06,12.53-2.49,25.02-3.93,37.51c-0.12,1.07,1.01,2,2,2
						c1.18,0,1.88-0.92,2-2c2.58-22.41,5.15-44.88,5.55-67.45c0.36-21.03-1.22-42.23-6.34-62.68c-2.82-11.26-6.74-22.25-11.88-32.66
						c-0.16-0.33-0.38-0.57-0.62-0.73c0.57-4.55,1.11-9.1,1.63-13.66c14.37,23.95,24.08,50.58,28.54,78.15
						c1.29,7.96,2.11,16,2.49,24.06c0.12,2.56,4.12,2.58,4,0C292.99,312.6,285.79,283.79,273.36,257.32z"/>
				</g>
			</g>
			<path class="st4" d="M662.71,419.09c-1.75-2.71-5.71-7.73-7.96-10.54l-18.87,10.87c-1.21,4.64-3.99,11.21-5.17,14.07
				c-1.6,3.89-10.74,5.26-13.03,7.77s7.77,4.57,7.77,4.57c11.2,2.51,19.89-8.91,23.09-11.66s11.2-5.26,16.23-7.09
				C669.8,425.26,665.23,422.97,662.71,419.09z"/>
			<path class="st4" d="M590.81,409.16c0,0-0.26-3.08-0.68-7.85c-6.46,0.97-16.4,1.21-22.22,1.27c-1.6,2.43-5.86,4.4-9.66,6.67
				c-4.57,2.74-5.03,3.66-5.03,3.66c2.73,6.42,26.33,3.07,33.27,1.93c1.95-2.25,3.67-4.21,4.85-5.56
				C591.01,409.21,590.81,409.16,590.81,409.16z"/>
			<path class="st4" d="M608.75,409.16c-1.36,2.73-9.44,1.68-14.28,0.77c-1.39-0.26-2.5-0.5-3.12-0.65c-1.18,1.34-2.9,3.3-4.85,5.56
				c-6.04,6.98-14.19,16.64-14.76,18.64c-0.91,3.2,5.49,1.14,15.09-0.69c9.6-1.83,20.57-8.46,22.86-12.57
				S608.75,409.16,608.75,409.16z"/>
			<path class="st4" d="M645.95,385.97c-5.91-11.6-29.98-56.9-29.76-63.46c0.22-6.56,2.84-29.1,3.5-33.48s3.72-19.48,6.78-27.35
				c1.35-3.46,2.18-13.16,1.28-19.23c-3.12,0.54-12.36,1.87-18.66,0.12c-5.35-1.49-22.53-7.36-32.88-11.63
				c-4.52-1.86-7.74-3.42-8.1-4.16c0,0-7.74,20.68-3.14,35.56s18.82,77.47,20.13,86.66c0.89,6.21,3.17,31.5,4.56,47.25
				c0.16,1.84,0.31,3.55,0.45,5.08c0.42,4.77,0.68,7.85,0.68,7.85s0.2,0.05,0.54,0.13c0.62,0.14,1.74,0.39,3.12,0.65
				c4.84,0.9,12.91,1.95,14.28-0.77l1.75-26.92c0,0,19.26,34.79,24.95,37.42l0.43-0.25l18.87-10.87l0.83-0.48
				C655.58,408.07,651.86,397.57,645.95,385.97z"/>
			<path class="st4" d="M562.31,398.69l-11.04-10.25c-5.17,4.2-15.92,9.94-20.68,10.53c-5.49,0.69-5.03,1.6-5.03,1.6
				c1.83,9.83,23.09,4.11,30.86,3.2c3.6-0.42,5.72-0.85,6.96-1.18c-0.1,0-0.18,0-0.18,0L562.31,398.69z"/>
			<path class="st4" d="M589.68,396.23c-1.39-15.75-3.67-41.04-4.56-47.25c-1.31-9.19-15.54-71.78-20.13-86.66
				s3.14-35.56,3.14-35.56s0.52-1.53,1.32-3.88c0.51-1.51,1.14-3.36,1.82-5.37c-5.04,2.4-21.59,8.99-36.88,0.71
				c0,0-0.3,50.14,3,60.65c0,0,7.21,61.56,9.91,69.66c2.7,8.11,6.31,16.51,4.5,26.42c-1.8,9.91-2.1,12.01-2.1,12.01l1.57,1.46
				l11.04,10.25l0.9,3.9c0,0,0.07,0,0.18,0c0.5,0,2.17,0.01,4.52-0.01c5.82-0.05,15.75-0.3,22.22-1.27
				C589.99,399.78,589.84,398.07,589.68,396.23z"/>
		</g>
		<g>
			<path class="st4" d="M585.92,189.12c0.01-0.04,0.03-0.09,0.02-0.12c-0.17-0.75-2.19-4.19-3.09-5.69
				c-2.02-2.01-3.84-4.43-5.96-4.66c-1.54-0.16-2.85-0.4-3.98-0.65l5.45,18.89C581.65,190.81,584.4,189.38,585.92,189.12z"/>
			<g>
				<path class="st4" d="M650.28,182.49c-0.1-0.63-0.19-1.34-0.27-2.08c-0.69,0.14-1.42,0.22-2.21,0.22c-1.67,0-3.11-0.34-4.35-0.92
					c-0.15,0.01-0.3,0.02-0.45,0.02c-12.89,0-12.87-20,0-20c1.67,0,3.11,0.34,4.35,0.92c0.15-0.01,0.3-0.02,0.45-0.02
					c0.53,0,1.04,0.05,1.53,0.11c-0.01-4.01-0.01-8.35-0.01-12.93c0-6.17-1.11-10.86-2.6-14.53c-0.81,0.66-1.75,1.2-2.84,1.55
					c-0.81,1.1-1.8,2.01-3,2.72c-0.8,0.34-1.59,0.67-2.39,1.01c-1.33,0.42-2.66,0.48-3.99,0.18c-1.33-0.06-2.57-0.46-3.72-1.19
					c-1.17-0.63-2.1-1.49-2.81-2.58c-0.88-0.97-1.48-2.1-1.79-3.4c-0.1-0.4-0.2-0.8-0.3-1.2c-0.48-1.77-0.48-3.54,0-5.32
					c0.34-0.8,0.67-1.59,1.01-2.39c0.89-1.5,2.08-2.7,3.59-3.59c0.72-0.3,1.44-0.61,2.16-0.91c-1.3-0.42-2.45-0.7-3.13-0.85
					c1.8,0.85,1.72,1.15,1.72,1.15s-6.7,2.54-10.17,5.55c-2.3,2-10.73,13.69-17.14,21.51c-3.23,3.95-5.96,6.91-7.12,7.14
					c-3.47,0.69-2.08-13.17-2.08-18.72c0-4.96,4.06-7.89,6.24-10.43c-3.1,0.7-6.64,1.54-10.07,2.84c1.3,3.06,1.15,6.8-0.47,9.7
					c-0.04,0.84-0.14,1.69-0.37,2.49c-0.16,0.42-0.33,0.83-0.52,1.24c-0.16,0.42-0.34,0.83-0.52,1.24
					c-0.02,0.05-0.05,0.08-0.08,0.13c-0.89,1.5-2.08,2.7-3.59,3.59c-0.8,0.34-1.59,0.67-2.39,1.01c-1.07,0.29-2.13,0.38-3.2,0.32
					c-0.25,4.35-0.26,8.69-0.3,11.83c-0.02,1.45-0.05,2.64-0.11,3.46c-0.07,0.92-0.03,2.14,0.09,3.53c0.42,0.52,0.86,1.07,1.33,1.69
					c4.19,5.46,9.69,8.47,12.44,9.73c1.38-3.11,4.29-5.47,8.72-5.47c0.91,0,1.75,0.11,2.53,0.29c1.74-0.45,3.48-0.45,5.22,0.02
					c0.8,0.34,1.59,0.67,2.39,1.01c1.5,0.89,2.7,2.08,3.59,3.59c0.34,0.8,0.67,1.59,1.01,2.39c0.42,1.33,0.48,2.66,0.18,3.99
					c-0.06,1.33-0.46,2.57-1.19,3.72c-0.42,0.78-0.95,1.45-1.58,2.02l0,5.59l0,0.13c1.04-0.58,2.14-0.92,3.33-0.97
					c1.33-0.3,2.66-0.24,3.99,0.18c2.45,0.68,4.67,2.42,5.98,4.6c0.6,1,1.2,2,1.8,3c1.41,2.34,1.6,5.1,1.01,7.71
					c-0.58,2.55-2.46,4.6-4.6,5.98c-1.15,0.73-2.39,1.13-3.72,1.19c-1.33,0.3-2.66,0.24-3.99-0.18c-2.45-0.68-4.67-2.42-5.98-4.6
					c-0.6-1-1.2-2-1.8-3c-1.41-2.34-1.6-5.1-1.01-7.71c0.58-2.52,2.42-4.56,4.53-5.93c-1.89-0.53-6.15-1.72-10.81-3.05
					c-0.29,0.02-0.58,0.04-0.88,0.04c-2.58,0-4.63-0.81-6.18-2.09c-0.1-0.03-0.21-0.06-0.31-0.09c-4.45-1.31-8.25-2.49-9.44-3.01
					c-1.12-0.49-2.14-1.36-3.12-2.33c0.85,1.42,2.7,4.57,3.05,5.54c1.04,0.61,1.89,1.41,2.54,2.41c0.88,0.97,1.48,2.1,1.79,3.4
					c0.42,1.33,0.48,2.66,0.18,3.99c-0.02,0.39-0.07,0.77-0.15,1.14c-0.06,0.56-0.14,1.13-0.29,1.69c-0.34,0.8-0.67,1.59-1.01,2.39
					c-0.89,1.5-2.08,2.7-3.59,3.59c-0.8,0.34-1.59,0.67-2.39,1.01c-1.33,0.42-2.66,0.48-3.99,0.18c-0.89-0.04-1.73-0.24-2.53-0.58
					c-0.59,0.1-1.2,0.16-1.86,0.16c-0.06,0-0.11-0.01-0.17-0.01c-1.05,3.07-2.17,6.36-3.17,9.29c-0.69,2.02-1.31,3.86-1.82,5.37
					c-0.8,2.35-1.32,3.88-1.32,3.88c0.36,0.75,3.58,2.3,8.1,4.16c10.35,4.26,27.53,10.14,32.88,11.63c0.73,0.2,1.5,0.36,2.3,0.49
					c-3.46-5.9-0.72-15.52,8.21-15.52c8.61,0,11.45,8.91,8.56,14.84c0.43-0.08,0.67-0.13,0.67-0.13s2.24-2.56,0.43-10.99
					c-1.81-8.43,1.92-17.07,2.88-19.31c0.96-2.24,2.56-7.47,2.56-7.47C652.1,209.38,651.35,189.11,650.28,182.49z M624.57,157.56
					c-1.65,1.65-4.1,2.76-6.46,2.9c-0.72,0.3-1.43,0.61-2.15,0.91c-1.77,0.48-3.54,0.48-5.32,0c-0.8-0.34-1.59-0.67-2.39-1.01
					c-1.17-0.63-2.1-1.49-2.81-2.58c-0.88-0.97-1.48-2.1-1.79-3.4c-0.34-1.08-0.43-2.15-0.3-3.23c-0.02-0.24-0.05-0.48-0.06-0.72
					c-0.11-2.49,1.19-5.34,2.93-7.07c1.79-1.79,4.53-2.96,7.07-2.93c1.4,0.02,2.8,0.04,4.2,0.06c2.72,0.04,5.1,1.12,7.07,2.93
					c1.96,1.8,2.81,4.48,2.93,7.07C627.61,152.98,626.31,155.83,624.57,157.56z M597.95,233.89c-0.64,0.47-1.33,0.84-2.09,1.08
					c-1.19,0.63-2.48,0.91-3.85,0.86h-0.6c-1.81-0.01-3.49-0.46-5.05-1.37c-0.67-0.52-1.35-1.04-2.02-1.56
					c-1.24-1.25-2.1-2.72-2.57-4.41c-0.12-0.89-0.24-1.77-0.36-2.66c-0.05-1.38,0.24-2.66,0.86-3.85c0.4-1.24,1.09-2.31,2.07-3.22
					c0.91-0.98,1.98-1.66,3.22-2.07c0.02-0.01,0.04-0.01,0.05-0.02c1.29-3.33,4.26-5.94,8.9-5.94c7.61,0,10.72,6.97,9.33,12.67
					C606.09,228.13,603.46,233.03,597.95,233.89z"/>
				<path class="st4" d="M582.94,145.76c0.8-0.34,1.59-0.67,2.39-1.01c1.5-0.89,2.7-2.08,3.59-3.59c0.03-0.04,0.06-0.08,0.08-0.13
					c0.19-0.41,0.36-0.82,0.52-1.24c0.19-0.41,0.37-0.82,0.52-1.24c0.23-0.81,0.33-1.65,0.37-2.49c1.62-2.9,1.77-6.64,0.47-9.7
					c-2.4,0.91-4.75,2.03-6.86,3.52c-2.85,2.02-3.88,9.12-4.28,16.19C580.81,146.14,581.88,146.05,582.94,145.76z"/>
				<path class="st4" d="M617.5,140.49c-1.4-0.02-2.8-0.04-4.2-0.06c-2.54-0.03-5.28,1.14-7.07,2.93c-1.73,1.73-3.04,4.58-2.93,7.07
					c0.01,0.24,0.03,0.48,0.06,0.72c-0.13,1.08-0.04,2.15,0.3,3.23c0.31,1.3,0.91,2.43,1.79,3.4c0.71,1.09,1.64,1.95,2.81,2.58
					c0.8,0.34,1.59,0.67,2.39,1.01c1.77,0.48,3.54,0.48,5.32,0c0.72-0.3,1.43-0.61,2.15-0.91c2.36-0.14,4.81-1.25,6.46-2.9
					c1.73-1.73,3.04-4.58,2.93-7.07c-0.12-2.59-0.97-5.27-2.93-7.07C622.6,141.61,620.22,140.53,617.5,140.49z"/>
				<path class="st4" d="M626.9,122.68c-0.34,0.8-0.67,1.59-1.01,2.39c-0.48,1.77-0.48,3.54,0,5.32c0.1,0.4,0.2,0.8,0.3,1.2
					c0.31,1.3,0.91,2.43,1.79,3.4c0.71,1.09,1.64,1.95,2.81,2.58c1.15,0.73,2.39,1.13,3.72,1.19c1.33,0.3,2.66,0.24,3.99-0.18
					c0.8-0.34,1.59-0.67,2.39-1.01c1.2-0.71,2.19-1.62,3-2.72c1.09-0.35,2.03-0.89,2.84-1.55c-2.22-5.46-5.3-8.63-6.9-10.86
					c-1.47-2.05-4.63-3.42-7.18-4.24c-0.72,0.3-1.44,0.61-2.16,0.91C628.98,119.98,627.79,121.17,626.9,122.68z"/>
				<path class="st4" d="M647.35,160.65c-1.24-0.58-2.68-0.92-4.35-0.92c-12.87,0-12.89,20,0,20c0.16,0,0.3-0.02,0.45-0.02
					c1.24,0.58,2.68,0.92,4.35,0.92c0.78,0,1.52-0.08,2.21-0.22c-0.52-4.7-0.65-11.5-0.68-19.67c-0.49-0.07-0.99-0.11-1.53-0.11
					C647.65,160.63,647.5,160.65,647.35,160.65z"/>
				<path class="st4" d="M609.06,199.77c-0.59,2.61-0.4,5.36,1.01,7.71c0.6,1,1.2,2,1.8,3c1.3,2.17,3.52,3.92,5.98,4.6
					c1.33,0.42,2.66,0.48,3.99,0.18c1.33-0.06,2.57-0.46,3.72-1.19c2.14-1.38,4.01-3.43,4.6-5.98c0.59-2.61,0.4-5.36-1.01-7.71
					c-0.6-1-1.2-2-1.8-3c-1.3-2.17-3.52-3.92-5.98-4.6c-1.33-0.42-2.66-0.48-3.99-0.18c-1.18,0.05-2.29,0.39-3.33,0.97l0,0.39
					c-0.13-0.04-0.29-0.08-0.46-0.13C611.48,195.22,609.63,197.25,609.06,199.77z"/>
				<path class="st4" d="M615.62,185.84c0.73-1.15,1.13-2.39,1.19-3.72c0.3-1.33,0.24-2.66-0.18-3.99c-0.34-0.8-0.67-1.59-1.01-2.39
					c-0.89-1.5-2.08-2.7-3.59-3.59c-0.8-0.34-1.59-0.67-2.39-1.01c-1.74-0.47-3.48-0.47-5.22-0.02c-0.78-0.18-1.62-0.29-2.53-0.29
					c-4.43,0-7.33,2.37-8.72,5.47c1.06,0.49,1.73,0.72,1.73,0.72s0.99,0.53,2.53,1.31c2.32,1.18,5.88,2.94,9.21,4.38
					c3.02,1.31,5.85,2.35,7.39,2.47l0,2.67C614.67,187.28,615.2,186.62,615.62,185.84z"/>
				<path class="st4" d="M602.78,190.79c-2.34-0.67-4.78-1.37-7.06-2.05c1.55,1.28,3.6,2.09,6.18,2.09
					C602.21,190.83,602.5,190.81,602.78,190.79z"/>
				<path class="st4" d="M576.46,208.07c0.8,0.34,1.64,0.54,2.53,0.58c1.33,0.3,2.66,0.24,3.99-0.18c0.8-0.34,1.59-0.67,2.39-1.01
					c1.5-0.89,2.7-2.08,3.59-3.59c0.34-0.8,0.67-1.59,1.01-2.39c0.15-0.56,0.24-1.13,0.29-1.69c0.08-0.37,0.13-0.75,0.15-1.14
					c0.3-1.33,0.24-2.66-0.18-3.99c-0.31-1.3-0.91-2.43-1.79-3.4c-0.65-1-1.5-1.8-2.54-2.41c0.02,0.06,0.04,0.11,0.05,0.15
					c0.01,0.03-0.02,0.08-0.02,0.12c-1.52,0.26-4.27,1.68-7.55,7.77c-0.34,0.85-2.03,5.74-3.94,11.33c0.06,0,0.11,0.01,0.17,0.01
					C575.26,208.23,575.87,208.17,576.46,208.07z"/>
				<path class="st4" d="M596.5,210.73c-4.64,0-7.61,2.61-8.9,5.94c-0.02,0.01-0.04,0.01-0.05,0.02c-1.24,0.4-2.31,1.09-3.22,2.07
					c-0.98,0.91-1.66,1.98-2.07,3.22c-0.63,1.19-0.91,2.48-0.86,3.85c0.12,0.89,0.24,1.77,0.36,2.66c0.48,1.69,1.33,3.16,2.57,4.41
					c0.67,0.52,1.35,1.04,2.02,1.56c1.56,0.9,3.24,1.36,5.05,1.37h0.6c1.38,0.05,2.66-0.24,3.85-0.86c0.76-0.25,1.46-0.62,2.09-1.08
					c5.51-0.86,8.14-5.76,7.89-10.48C607.22,217.7,604.11,210.73,596.5,210.73z"/>
				<path class="st4" d="M619.6,227.53c-8.93,0-11.67,9.62-8.21,15.52c6.07,0.96,13.61-0.13,16.36-0.61
					c0.15-0.03,0.28-0.05,0.4-0.07C631.05,236.44,628.21,227.53,619.6,227.53z"/>
			</g>
		</g>
	</g>
	<g>
		<g>
			<path class="st10" d="M573.41,178.46c-1.57-0.39-7.86-5.53-9.16-6.9c-1.14-1.2-5.26-4.04-3.14-6.92
				c0.16-0.22,0.46-0.31,0.73-0.22c0.9,0.29,2.99,1.1,4.75,2.82c0.31-0.57,0.98-1.35,2.45-1.77c0,0,1.89-1.44,3.13-1.5
				c0,0,1.5-2.35,2.42-1.96c0,0-0.85-2.22,0.46-2.28c0.8-0.04,1.88,0.16,3.94,2.06c0.04-2.37,0.07-4.75,0.05-7.12
				c-0.04-5.37-0.69-10.77,0.31-16.1c2.11-11.2,10.85-13.56,20.45-16.18c0.57-0.15,1.07-0.12,1.51,0.03
				c0.78-2.2,0.38-4.56-0.41-6.97c-0.5-0.21-0.93-0.56-1.18-1.05c-4.88,0.27-11.38,0.2-10.77-5.56c0.01-0.09,0.03-0.16,0.05-0.24
				c-0.25-1.11-0.36-2.29-0.45-3.43c-0.57-0.56-1.08-1.23-1.53-1.97c-0.39,0.01-0.8-0.06-1.22-0.24c-7.8-3.45-4.52-16.71-3.44-23.05
				c0.12-0.68,0.43-1.16,0.83-1.47c-0.58-0.08-1.18-0.09-1.77,0.03c-1.01,0.2-1.99,0.75-2.75,1.94
				c-2.02,3.14-9.05,14.63-14.99,20.14c-2.02,1.87-3.91,3.05-5.43,2.98c0,0,0.48-6.92,2.5-11.4l-0.72-1.14
				c-2.83,0.8-8.62,3.04-8.39,8.04c0,0-5.1,1.8-7.51,9.91c-2.4,8.11-5.1,31.83-4.2,38.13s-2.1,47.44-1.2,55.85
				c0.9,8.41-0.9,16.51-0.9,16.51c15.29,8.27,31.84,1.69,36.88-0.71c2.81-8.28,6.58-19.3,7.1-20.62l-5.45-18.89
				C575.18,178.93,574.21,178.66,573.41,178.46z"/>
			<path class="st14" d="M573.42,61.96c0-0.02,0-0.05,0-0.08c0,0-4.01-2.31-5.85-6.32l-2.31-0.31c0,0-0.77-7.09-4.16-6.78
				c0,0-2.47-0.31-2.47,1.85c0,0,0,2.16-1.23,2.16s-1.85-0.62-3.08,0.31c-1.23,0.92-0.15,2.16-2,2.16c-1.85,0-4.93-0.62-7.09-3.54
				c-2.16-2.93-2.77-6.78-5.85-5.7s-4.62,3.54-6.78,4.47c0,0,0.13,0.33,0.35,0.89c1.06,2.77,4.17,11.31,3.66,15.28
				c-0.62,4.78,0.46,7.24,1.69,7.24s2.47,0.15,2.47,0.15s2.77,3.39,3.24,5.24c0.46,1.85-0.15,6.16,3.39,6.47s9.24,0.46,9.24,0.46
				l1.91,3.04l0.72,1.14c-2.02,4.48-2.5,11.4-2.5,11.4c1.52,0.08,3.41-1.11,5.43-2.98c5.94-5.51,12.97-17,14.99-20.14
				c0.76-1.19,1.74-1.74,2.75-1.94C577.85,72.61,573.41,64.1,573.42,61.96z"/>
			<path class="st8" d="M593.12,397.41c-1.39-15.75-3.67-41.04-4.56-47.25c-1.31-9.19-15.54-71.78-20.13-86.66
				c-4.6-14.88,3.14-35.56,3.14-35.56s0.52-1.53,1.32-3.88c0.51-1.51,1.14-3.36,1.82-5.37c-5.04,2.4-21.59,8.99-36.88,0.71
				c0,0-0.3,50.14,3,60.65c0,0,7.21,61.56,9.91,69.66c2.7,8.11,6.31,16.51,4.5,26.42c-1.8,9.91-2.1,12.01-2.1,12.01l1.57,1.46
				l11.04,10.25l0.9,3.9c0,0,0.07,0,0.18,0c0.5,0,2.17,0.01,4.52-0.01c5.82-0.05,15.75-0.3,22.22-1.27
				C593.43,400.96,593.28,399.25,593.12,397.41z"/>
			<path class="st15" d="M400.42,410.13c-3.7-7.41-2.56-17.38-3.7-23.36c-0.6-3.13-2.2-8.27-3.6-12.48
				c-0.98,0.34-2.13,0.65-3.53,0.92c-4.42,0.84-16.4,2.02-29.41,2.97c3.58,4.56,8.25,11.21,9.76,16.57
				c2.56,9.12,1.42,24.22,7.41,34.19c5.98,9.97,21.94,41.6,21.94,45.3l22.79-0.85c0,0-7.12-9.4-8.55-16.81
				S404.12,417.54,400.42,410.13z"/>
			<path class="st16" d="M384.9,132.81c0.57-5.21-3.18-9.9-8.4-10.48c-5.21-0.57-9.9,3.18-10.48,8.4c-0.57,5.21,3.18,9.9,8.4,10.48
				C379.63,141.78,384.32,138.02,384.9,132.81z"/>
			<path class="st16" d="M245.08,295.8c0,0-10.59,66.39-11.07,71.61c-0.27,2.95,0.02,15.95,0.35,26.98
				c6.84-22.2,20.52-66.82,20.99-70.61C255.98,318.73,245.08,295.8,245.08,295.8z"/>
			<path class="st9" d="M630.78,91.83c-5.55-7.63-2.31-12.02-3.47-17.56c-1.16-5.55-8.09-8.55-14.79-11.09s-10.17-6.01-13.87-3
				s-7.86,8.32-9.71,9.47c-1.85,1.16-7.16,2.54-7.63,7.16c-0.06,0.56-0.1,1.11-0.15,1.65c-0.32,3.9-0.37,7.37-0.78,12.45
				c-0.46,5.78,1.85,14.56,7.4,15.48c0.01,0,0.01,0,0.01,0c-0.85-3.73-1.86-7.86-1.86-7.86s-5.08-0.46-4.16-3
				c0.57-1.57,2.03-9.24,3.05-14.86c0.63-3.47,1.11-6.17,1.11-6.17s2.2-5.34,6.04-3.42c0.2,0.1,0.38,0.23,0.56,0.38
				c3.18,2.55,2.49,11.36,5.63,13.28c3.31,2.03,7.26,2.88,7.47,5.23s0.89,3.6,3.95,4.91c4.48,1.92,3.57,9.01,1.49,10.88
				c0,0-3.19,2.95,0.28,3.87c0.91,0.24,1.9,0.47,2.91,0.63c2.84,0.45,5.85,0.38,7.72-1.32c2.54-2.31,4.39,1.16,6.01-1.39
				C629.63,105,636.33,99.46,630.78,91.83z"/>
			<path class="st17" d="M632.3,117.7c-0.96-0.45-2.43-1.05-4.76-1.85c-5.13-1.77-8.36-3.41-9.8-5.84
				c-0.96-0.15-1.89-0.36-2.76-0.59c-1.86,1.36-5.07-0.98-3.79-3.61c1.91-3.94,1.98-8.98-1.56-11.91c-2.1-1.74-3.66-3-4.47-5.74
				c-0.1-0.35-0.13-0.67-0.11-0.97c-2.48-1.12-5.19-1.85-6.77-4.25c-2.45-3.72-0.97-8.61-4.45-11.85c-0.21-0.2-0.36-0.41-0.49-0.62
				c-2.53,0.39-3.94,3.79-3.94,3.79s-0.47,2.7-1.11,6.17c-1.03,5.62-2.48,13.29-3.05,14.86c-0.92,2.54,4.16,3,4.16,3
				s1.01,4.13,1.86,7.86c0.56,2.45,1.05,4.72,1.14,5.55c0.23,2.08,7.4,0.46,8.55-0.23c0,0,5.32,8.78,3.47,11.55
				c-0.2,0.29-0.43,0.59-0.69,0.89c-2.18,2.55-6.24,5.47-6.24,10.43c0,5.55-1.39,19.41,2.08,18.72c1.16-0.23,3.89-3.2,7.12-7.14
				c6.41-7.82,14.84-19.51,17.14-21.51c3.47-3,10.17-5.55,10.17-5.55S634.1,118.55,632.3,117.7z"/>
			<path class="st17" d="M561.51,167.85c2.35,3.2,5.22,7.38,7.77,7.12c2.55-0.26,7.25,0.33,6.72-3.59
				c-0.52-3.92-5.74-6.66-7.51-9.92c-0.91-0.39-2.42,1.96-2.42,1.96c-1.24,0.07-3.13,1.5-3.13,1.5c-1.47,0.43-2.14,1.21-2.45,1.77
				C560.85,167.04,561.19,167.42,561.51,167.85z"/>
			<path class="st17" d="M611.39,194.06l-0.01-8.26c-1.54-0.11-4.37-1.16-7.39-2.47c-3.33-1.44-6.89-3.2-9.21-4.38
				c-1.54-0.78-2.53-1.31-2.53-1.31s-8.36-2.87-14.17-10.45c-0.47-0.61-0.91-1.16-1.33-1.69c-4.8-5.95-6.61-6.4-7.81-6.34
				c-1.31,0.07-0.46,2.28-0.46,2.28c1.76,3.26,6.99,6.01,7.51,9.92c0.52,3.92-4.18,3.33-6.72,3.59c-2.55,0.26-5.42-3.92-7.77-7.12
				c-0.31-0.43-0.66-0.81-1.01-1.16c-1.75-1.72-3.85-2.53-4.75-2.82c-0.26-0.08-0.56,0-0.73,0.22c-2.13,2.87,1.99,5.72,3.14,6.92
				c1.31,1.37,7.59,6.51,9.16,6.9c0.8,0.2,1.77,0.47,2.94,0.72c1.13,0.25,2.44,0.49,3.98,0.65c2.12,0.22,3.94,2.64,5.96,4.66
				c0.97,0.97,1.99,1.84,3.12,2.33c1.2,0.52,4.99,1.69,9.44,3.01c7.27,2.15,16.3,4.67,18.64,5.32L611.39,194.06z"/>
			<path class="st15" d="M341.05,157.18c1.18,0.13,2.29,0.56,3.32,1.18l0.92-3.66c0,0,8.19-1.9,11.26-2.63s0.44-8.34,3.07-15.5
				c2.63-7.17-1.17-5.26-3.22-10.24c-2.05-4.97-4.97-13.45-4.97-13.45s-0.22,0.09-0.6,0.24c-0.62,0.93-1.22,2.09-1.6,3.42
				c-1.02,3.66-1.61,10.09-1.61,10.09s-4.39-4.39-7.9-1.46c-3.51,2.92-2.63,5.56-2.63,5.56s-0.15,12.72-5.41,13.16
				c-0.49,0.04-0.95,0.12-1.4,0.2c-0.94,0.49-2,0.76-3.03,0.92c-1.61,0.64-3.01,1.36-4.39,1.64c0.64,1.93-1.03,7.54-1.79,9.91
				C327.63,156.39,336.86,156.73,341.05,157.18z"/>
			<path class="st11" d="M352.1,168.96c-0.95-1.89-3.79-7-7.73-9.36c-1.04-0.62-2.15-1.05-3.32-1.18
				c-4.19-0.46-13.42-0.8-19.97-0.64c-3.97,0.1-6.95,0.38-7.23,0.93c-0.73,1.46-1.02,6.43-0.58,6.73s8.48,1.9,17.4,1.46
				c8.92-0.44,14.62,0.15,17.55,1.75s4.24,1.02,4.24,1.02S352.33,169.41,352.1,168.96z"/>
			<path class="st15" d="M381.18,168.23c-2.11-1.46-4.07-5.92-5.91-7.64c-0.59-0.55-1.17-0.81-1.74-0.6
				c0.03-0.11,0.07-0.22,0.09-0.34c0.08-0.27,0.1-0.53,0.04-0.8c0-0.06-0.02-0.11-0.03-0.16c0.11-0.47,0.05-1.07-0.21-1.47
				c-0.28-0.43-0.69-0.8-1.2-0.92c-0.49-0.11-1.12-0.11-1.54,0.2c-0.28,0.21-0.58,0.42-0.82,0.68c-0.24,0.26-0.46,0.55-0.66,0.83
				c-0.25,0.35-0.44,0.72-0.63,1.1c-0.47,0.93-0.94,1.86-1.4,2.79c-0.1,0.19-0.16,0.39-0.21,0.59c-0.11,0.05-0.23,0.11-0.38,0.2
				c-0.09,7.99,0.29,16.02,0.58,24c0.29,8,2.89,15.67,2.62,23.73c-0.08,2.28-2.47,3.02-4.01,2.25c-5.3,0.86-18.89,3.26-19.64,5.52
				c0,0,4.91,29.21,7.71,31.31c2.51,1.88,7.83-1.3,12.44-6.51c0.54-0.61,1.07-1.24,1.58-1.9c4.91-6.31,9.58-20.33,9.81-33.42
				c0.23-13.09-4.92-26.45,1.25-31.48C382.75,173.08,384.22,170.33,381.18,168.23z"/>
			<path class="st15" d="M319.72,379.65c-1.83-0.13-3.62-0.24-5.35-0.35c1.2,6.22,3.31,18.08,3.71,27.13
				c0.57,12.82,2.28,55.84,10.83,67.24l19.37,1.14c0,0-4.47-13.18-6.55-26.5c-1.88-12-1.41-24.02-1.14-28.21
				c0.42-6.46,0.22-29.05,0.09-40.74C331.75,379.79,323.96,379.95,319.72,379.65z"/>
			<path class="st11" d="M398,369.13c0,0-19.86-55.85-22.43-59.59s-6.01-38.08-4.84-45.39c1.09-6.83-3.81-19.52-4.46-21.17
				c-4.61,5.21-9.93,8.39-12.44,6.51c-2.8-2.1-7.71-31.31-7.71-31.31c0.79-2.37,15.79-4.91,20.4-5.64c0.84-0.13,1.34-0.2,1.34-0.2
				l-4.25-25.64c0,0,0.25-2.77,0.47-6.23c-0.7-1.49-1.64-3.12-2.85-5.23c-2.08-3.61-6.6-5.5-9.12-6.28
				c0.23,0.46,0.35,0.73,0.35,0.73s-1.32,0.58-4.24-1.02s-8.63-2.19-17.55-1.75c-8.92,0.44-16.96-1.17-17.4-1.46
				c-2.95,3.81-19.48,24.93-22.28,32.64s3.51,17.53,5.84,24.77s10.28,22.67,10.28,22.67s2.34,2.57,4.21,6.78
				c1.87,4.21-11.68,35.52-17.76,56.78s-2.8,37.15-3.27,46.03c-0.47,8.88-2.34,18.93,1.64,21.26c3.42,2.01,11.85,2.29,22.46,2.93
				c1.73,0.1,3.51,0.22,5.35,0.35c4.24,0.3,12.03,0.14,20.96-0.28c6.22-0.29,12.98-0.71,19.5-1.19c13.01-0.95,24.99-2.12,29.41-2.97
				c1.39-0.26,2.55-0.58,3.53-0.92C399.03,372.23,398,369.13,398,369.13z"/>
			<path class="st4" d="M218.04,83.51c6.48-3.64,10.43,1.58,15.18-2.21c1.53-1.23,4.32-1.44,5.85-3.16c3.2-3.61,4.74-8.85,4.74-8.85
				s0.07,0.29,0.19,0.79c0.24-3.35-0.44-8.12-5.41-9.64c-7.75-2.37-7.59-4.27-17.55-1.26c-9.96,3-10.75,5.69-14.7,6.48
				c-3.95,0.79-4.11,1.74-4.11,1.74s1.63-6.46-3.95-8.69c-5.53-2.21-8.69,0.79-9.48,1.42c-0.79,0.63-4.74,10.59-0.32,16.6
				s8.38,8.22,10.59,3.95c0,0,3,7.9,7.27,10.59s3.32,8.06,3.32,8.06l3.32-3.79l2.53-0.16C215.52,95.37,211.56,87.15,218.04,83.51z"
				/>
			<path class="st17" d="M251.18,94.13c0.76-0.24,1.08-1.12,0.67-1.81c-2.87-4.77-7.01-18.79-7.85-22.25
				c-0.12-0.5-0.19-0.79-0.19-0.79s-1.54,5.24-4.74,8.85c-1.53,1.72-4.32,1.94-5.85,3.16c-4.74,3.79-8.69-1.42-15.18,2.21
				c-6.48,3.64-2.53,11.86-2.53,11.86l-2.53,0.16c2,5,0.05,6.64-1.25,9.07c-0.34,0.64-0.64,1.33-0.81,2.16
				c-0.79,3.95,6.32,12.8,9.64,14.86c3.32,2.05,3.95,0.79,6.96,3.16c2.07,1.64,8.29,13.23,11.95,20.24
				c0.54,1.04,2.11,0.54,1.96-0.62l-1.89-14.24c0,0-3.82-8.31-5.45-13.72c-0.15-0.51-0.29-1-0.4-1.45
				c-1.26-5.22,3.95-4.58,3.95-4.58s4.27-0.32,6.32-0.95c5.16-1.59,3.32-14.07,3.32-14.07L251.18,94.13z"/>
			<path class="st17" d="M276.69,200.01c-3.32-2.37-1.26-1.42-1.74-3.48c-0.29-1.25-7.16-9.19-12.51-15.24
				c1.19,6.85,1.84,13.79,3.28,20.6c0.25,1.19-0.25,2.13-1.02,2.7c0.58,2.71-0.22,5.99,1.71,7.27c2.37,1.58,4.27,0,6.16-0.47
				c1.9-0.47,3.79,7.59,4.58,8.06c0.79,0.47,1.42-4.58,1.11-7.59s1.74-3.64,1.74-3.64s5.69,3,8.06,2.53
				C290.44,210.29,280.01,202.38,276.69,200.01z"/>
			<path class="st9" d="M263.57,200.03c-0.38-2.72-0.69-4.84-0.88-5.9c-0.57-3.31-2.1-10.82-3.2-17.84
				c-0.74-4.7-1.29-9.18-1.22-12.04c0.16-7.11-1.58-17.23-6.32-22.45c-4.74-5.22-5.06-12.17-6.64-14.86s-3.79-4.27-3.79-4.27
				s2.61-7.11-6.08-6.45c1.63,5.41,5.45,13.72,5.45,13.72l1.87,14.07c0.16,1.19-1.46,1.71-2.02,0.64
				c-3.66-7.03-9.81-18.46-11.87-20.09c-3-2.37-3.64-1.11-6.96-3.16c-3.32-2.05-10.43-10.91-9.64-14.86
				c0.17-0.83,0.46-1.52,0.81-2.16c-2.47,0.27-6.21,1.23-6.97,4.05c-1.11,4.11-9.64,13.28-12.33,16.44
				c-2.69,3.16-4.11,11.38-4.11,18.02c0,6.64,4.27,23.55,8.22,39.52c3.95,15.97,7.59,22.29,7.59,30.51c0,8.22-1.74,18.49-1.74,18.49
				s0.11,0.01,0.3,0.02c1.51,0.1,8.8,0.6,17.94,1.19c-1.98-1.71-3.88-3.18-4.98-4c-0.58-0.43-0.94-0.69-0.94-0.69l11.7-5.85
				c0,0,1.97,3,4.69,6.4c1.35,1.69,2.89,3.48,4.47,5.06c10.43,0.61,20.7,1.15,26.35,1.24c2.76,0.05,4.42-0.01,4.47-0.21
				C268,233.58,265.17,211.44,263.57,200.03z"/>
			<path class="st4" d="M243.18,412.46c-3.41-0.13-6.18-1.17-8.26-2.32c0.02,0.38,0.03,0.64,0.04,0.74
				c0.04,0.39-1.01,0.78-2.64,1.14c4.34,7.06,15.34,14.64,15.34,14.64s14.22,6.46,20.46,4.95s10.98-2.37,10.34-4.95
				c-0.65-2.58-5.11-3.85-10.12-6.46c-4.1-2.13-7.82-6.14-9.56-9.64C256.18,411.22,249.49,412.71,243.18,412.46z"/>
			<path class="st4" d="M247.66,426.66c0,0-11-7.57-15.34-14.64c-0.28,0.06-0.59,0.12-0.91,0.18c-4,0.75-10.34,1.28-13.34,1.16
				c-0.94,3.85-2.74,12.09-1.43,13.72c1.72,2.15,19.82,12.06,27.79,10.55C252.4,436.14,252.19,431.83,247.66,426.66z"/>
			<g>
				<path class="st16" d="M248.41,303.14c-0.15-0.35-0.31-0.7-0.46-1.03c-0.04,0.26-0.08,0.52-0.13,0.78
					C248.03,302.94,248.23,303.03,248.41,303.14z"/>
				<path class="st9" d="M208.97,317.88c-2.64-20.56-5.48-41.1-8.5-61.61c-0.33,12.28-0.1,33.2,2.4,42.07
					c3.16,11.22,6.16,44.1,6.16,44.1s2.69,30.51,3.16,38.89c0.47,8.38,3.16,30.82,4.27,31.77c0.17,0.15,0.76,0.24,1.62,0.27
					c0.51,0.02,1.12,0.02,1.8,0c-0.22-2.15-0.42-4.31-0.64-6.46C216.2,377.19,212.78,347.51,208.97,317.88z"/>
				<path class="st9" d="M240.79,322.84c0.49-3.13,0.97-6.16,1.42-8.99c-0.16-0.4-0.2-0.85-0.12-1.3c1.55-8.56,3-17.14,4.35-25.73
					c1.46-9.33,2.79-18.67,4.01-28.03c-2.06-2.66-4.07-5.05-5.68-5.97c-1.11-0.63-2.82-1.87-4.81-3.41
					c0.46,10.96,0.79,21.92,0.95,32.88C241.1,295.8,241.06,309.32,240.79,322.84z"/>
				<path class="st9" d="M239.2,233.97c0.05,0.99,0.11,1.98,0.17,2.97c1,0.66,1.97,1.14,2.87,1.33c2.62,0.54,6.76,1.05,10.52,1.64
					c0.2-1.73,0.37-3.47,0.56-5.2C249.11,234.51,244.24,234.26,239.2,233.97z"/>
				<path class="st9" d="M256.66,240.6c0.1,0.02,0.2,0.04,0.3,0.06c-0.09-0.14-0.17-0.29-0.25-0.43
					C256.69,240.35,256.67,240.47,256.66,240.6z"/>
				<path class="st9" d="M258.95,236.19c4.25,6.91,8.11,14.05,11.57,21.38c-0.7-2.5-1.11-3.97-1.11-3.97s-5.09-11.78-7.48-18.6
					c-1.31-0.02-2.88-0.07-4.64-0.13c-0.01,0.13-0.03,0.26-0.04,0.38C257.89,235.23,258.53,235.5,258.95,236.19z"/>
				<path class="st9" d="M219.43,306.68c-1.24-14.91-2.47-29.82-3.71-44.73c-0.82-9.92-1.65-19.9-3.54-29.67
					c-4.93-0.33-8.48-0.57-9.48-0.64c-0.22,1.75-0.54,4.24-0.85,6.97c1.98,13.06,3.92,26.14,5.75,39.22
					c4.17,29.76,7.96,59.58,11.37,89.44c1.74,15.28,3.38,30.57,4.91,45.87c1.44-0.12,2.94-0.27,4.36-0.45l-1.35-16.31
					C224.39,366.48,221.91,336.58,219.43,306.68z"/>
				<path class="st9" d="M254.44,369.26c1.25-4.62,2.49-9.25,3.73-13.87c1.21-4.56,2.46-9.12,3.21-13.78
					c0.73-4.5,0.86-9.1,0.09-13.6c-0.78-4.56-2.22-8.97-3.68-13.34c-2.57-7.67-5.28-15.28-8.13-22.85
					c-0.55,3.43-1.12,6.86-1.7,10.29c0.15,0.34,0.3,0.68,0.46,1.03c0.51,0.31,0.89,0.83,0.95,1.57c0.02,0.25,0.03,0.49,0.05,0.74
					c2.96,6.91,6.29,15.47,5.93,18.33c-0.18,1.43-2.25,8.71-5.12,18.41c-0.8,23.57-4.12,47.06-9.9,69.93
					c0.66,0.13,1.35,0.23,2.08,0.29c1.47-5.14,2.94-10.29,4.38-15.45C249.38,387.74,251.93,378.51,254.44,369.26z"/>
				<path class="st9" d="M256.15,244.9c-0.27,2.29-0.54,4.59-0.82,6.88c1.31,2.24,2.78,4.21,3.97,4.35
					c1.39,0.15,3.99,0.01,6.11,0.11c-1.99-4.04-4.09-8.02-6.32-11.93C258.19,244.61,257.15,244.79,256.15,244.9z"/>
				<path class="st9" d="M268.45,314.99c-1.82-16.48-5.5-32.87-11.71-48.27c-0.89-0.95-1.87-2.16-2.89-3.47
					c-0.99,7.37-2.04,14.73-3.18,22.08c0.6,0.21,1.07,0.72,1.31,1.36c3.86,10.09,7.58,20.26,10.85,30.55
					c1.43,4.49,2.62,9.06,3.02,13.77c0.41,4.77-0.16,9.57-1.09,14.24c-1.87,9.41-4.73,18.69-7.25,27.94
					c-3.57,13.11-7.22,26.19-10.96,39.25c5.18-0.24,10.09-1.34,12.23-1.89c0.72-0.18,1.15-0.31,1.15-0.31s0.32-18.18,2.37-24.19
					c0.71-2.08,3.46-8.53,6.74-16.07C270.26,351.68,270.46,333.26,268.45,314.99z"/>
				<path class="st9" d="M252.03,245.06c0,0,0.03,0.08,0.09,0.21c0.01-0.07,0.02-0.14,0.02-0.2
					C252.07,245.06,252.03,245.06,252.03,245.06z"/>
				<path class="st9" d="M285.25,318.38c-3.32-20.54-9.56-40.55-18.47-59.33c-2.66,0.73-7.34,0.13-9.04-0.13
					c4.15,9.12,7.41,18.63,9.84,28.36c5.11,20.45,6.7,41.65,6.34,62.68c-0.06,3.21-0.17,6.41-0.3,9.62
					c4.99-11.32,9.72-21.88,9.72-21.88s2.38-2.64,3.43-7.9C286.36,325.97,285.86,322.17,285.25,318.38z"/>
				<path class="st9" d="M245.24,358.82c-3.84,12.67-7.98,26.15-10.88,35.58c-0.33-11.03-0.62-24.03-0.35-26.98
					c0.11-1.24,0.8-5.92,1.77-12.35c-0.02-0.14-0.03-0.28-0.02-0.43c0.62-13.53,1.02-27.08,1.18-40.63
					c0.27-22.65-0.11-45.3-1.14-67.92c-5.22-4.28-10.89-9.26-13.02-11.3c-0.7-0.67-1.43-1.33-2.15-1.95
					c-1.5-0.1-2.95-0.19-4.34-0.28c2.09,11.24,2.86,22.75,3.8,34.12c2.49,29.98,4.98,59.97,7.47,89.95
					c1.53,18.48,3.07,36.95,4.6,55.43c0.05-0.01,0.1-0.02,0.15-0.03c1.62-0.35,2.67-0.75,2.64-1.14c-0.01-0.1-0.03-0.36-0.04-0.74
					c0.49,0.27,1.02,0.54,1.59,0.79c1.65-6.53,3.11-13.11,4.35-19.73C242.87,380.48,244.32,369.67,245.24,358.82z"/>
				<path class="st4" d="M220.1,266.68c-0.94-11.37-1.72-22.88-3.8-34.12c-1.46-0.09-2.84-0.19-4.13-0.27
					c1.89,9.77,2.72,19.75,3.54,29.67c1.24,14.91,2.47,29.82,3.71,44.73c2.48,29.9,4.96,59.8,7.44,89.7l1.35,16.31
					c1.15-0.15,2.24-0.31,3.19-0.49c0.26-0.05,0.51-0.1,0.75-0.15c-1.53-18.48-3.07-36.95-4.6-55.43
					C225.08,326.64,222.59,296.66,220.1,266.68z"/>
				<path class="st4" d="M207.59,277.84c-1.83-13.09-3.77-26.16-5.75-39.22c-0.39,3.32-0.78,6.99-1.03,10.08
					c-0.13,1.66-0.26,4.31-0.34,7.57c3.01,20.51,5.86,41.05,8.5,61.61c3.81,29.63,7.23,59.31,10.27,89.03
					c0.22,2.15,0.42,4.31,0.64,6.46c1.17-0.03,2.55-0.1,3.99-0.22c-1.54-15.3-3.17-30.59-4.91-45.87
					C215.55,337.42,211.76,307.6,207.59,277.84z"/>
				<path class="st4" d="M235.59,233.76c1.26,1.26,2.54,2.36,3.77,3.18c-0.05-0.99-0.11-1.98-0.17-2.97
					C238,233.9,236.8,233.83,235.59,233.76z"/>
				<path class="st4" d="M236.94,314.01c-0.16,13.55-0.56,27.09-1.18,40.63c-0.01,0.15,0,0.3,0.02,0.43
					c1.35-8.91,3.27-21.17,5.01-32.23c0.26-13.52,0.31-27.04,0.11-40.55c-0.16-10.96-0.48-21.93-0.95-32.88
					c-1.29-1-2.7-2.13-4.15-3.32C236.83,268.71,237.21,291.36,236.94,314.01z"/>
				<path class="st4" d="M252.14,245.07c-0.01,0.07-0.02,0.14-0.02,0.2c0.34,0.8,1.66,3.84,3.21,6.51c0.28-2.29,0.55-4.59,0.82-6.88
					C254.29,245.11,252.57,245.08,252.14,245.07z"/>
				<path class="st4" d="M264.76,345.26c0.93-4.67,1.5-9.48,1.09-14.24c-0.4-4.71-1.59-9.28-3.02-13.77
					c-3.27-10.29-6.99-20.46-10.85-30.55c-0.24-0.64-0.72-1.15-1.31-1.36c1.14-7.35,2.19-14.71,3.18-22.08
					c-1.11-1.44-2.27-2.99-3.41-4.47c-1.22,9.36-2.54,18.71-4.01,28.03c-1.35,8.59-2.8,17.17-4.35,25.73
					c-0.08,0.45-0.03,0.9,0.12,1.3c1.64-10.35,2.86-18.04,2.86-18.04s1.25,2.63,2.88,6.31c0.58-3.43,1.15-6.86,1.7-10.29
					c2.84,7.57,5.56,15.18,8.13,22.85c1.47,4.37,2.9,8.78,3.68,13.34c0.77,4.5,0.63,9.1-0.09,13.6c-0.75,4.66-2,9.22-3.21,13.78
					c-1.23,4.63-2.47,9.25-3.73,13.87c-2.51,9.24-5.05,18.48-7.64,27.7c-1.45,5.15-2.91,10.3-4.38,15.45
					c0.25,0.02,0.51,0.05,0.77,0.06c1.12,0.04,2.26,0.03,3.38-0.02c3.74-13.06,7.39-26.14,10.96-39.25
					C260.03,363.94,262.89,354.67,264.76,345.26z"/>
				<path class="st4" d="M267.58,287.28c-2.43-9.72-5.69-19.24-9.84-28.36c-0.41-0.06-0.64-0.1-0.64-0.1s5.85,9.8,2.69,9.96
					c-0.79,0.04-1.84-0.77-3.04-2.05c6.21,15.4,9.89,31.79,11.71,48.27c2.01,18.27,1.81,36.68,0.59,55
					c1.46-3.36,3.03-6.93,4.57-10.42c0.14-3.2,0.25-6.41,0.3-9.62C274.28,328.93,272.69,307.73,267.58,287.28z"/>
				<path class="st4" d="M245.24,358.82c-0.92,10.85-2.37,21.66-4.38,32.37c-1.24,6.62-2.71,13.2-4.35,19.73
					c1.13,0.49,2.41,0.92,3.83,1.2c5.77-22.87,9.1-46.36,9.9-69.93C248.73,347.24,247.02,352.94,245.24,358.82z"/>
				<path class="st4" d="M249.36,304.71c-0.06-0.74-0.44-1.26-0.95-1.57c0.33,0.74,0.66,1.51,1,2.31
					C249.4,305.21,249.38,304.96,249.36,304.71z"/>
				<path class="st4" d="M286.76,329.79c0.62-3.1,0.78-7.1-0.27-12.01c-2.36-11.02-12.57-47.97-15.97-60.21
					c-3.46-7.33-7.33-14.47-11.57-21.38c-0.43-0.69-1.06-0.96-1.69-0.94c0.01-0.13,0.03-0.26,0.04-0.38
					c-1.24-0.05-2.58-0.1-3.99-0.16c-0.19,1.73-0.37,3.47-0.56,5.2c1.39,0.22,2.72,0.45,3.91,0.69c0.01-0.12,0.03-0.25,0.04-0.37
					c0.09,0.14,0.17,0.29,0.25,0.43c2.99,0.64,4.94,1.39,4.24,2.35c-0.43,0.58-1.2,1-2.11,1.3c2.23,3.91,4.33,7.89,6.32,11.93
					c2.2,0.11,3.87,0.49,3.06,1.78c-0.3,0.49-0.91,0.81-1.69,1.03c8.9,18.77,15.15,38.79,18.47,59.33
					C285.86,322.17,286.36,325.97,286.76,329.79z"/>
			</g>
			<path class="st9" d="M660.06,419.71c-1.75-2.71-5.71-7.73-7.96-10.54l-18.87,10.87c-1.21,4.64-3.99,11.21-5.17,14.07
				c-1.6,3.89-10.74,5.26-13.03,7.77s7.77,4.57,7.77,4.57c11.2,2.51,19.89-8.91,23.09-11.66s11.2-5.26,16.23-7.09
				C667.14,425.88,662.57,423.59,660.06,419.71z"/>
			<path class="st11" d="M588.15,409.78c0,0-0.26-3.08-0.68-7.85c-6.46,0.97-16.4,1.21-22.22,1.27c-1.6,2.43-5.86,4.4-9.66,6.67
				c-4.57,2.74-5.03,3.66-5.03,3.66c2.73,6.42,26.33,3.07,33.27,1.93c1.95-2.25,3.67-4.21,4.85-5.56
				C588.35,409.83,588.15,409.78,588.15,409.78z"/>
			<path class="st9" d="M606.1,409.78c-1.36,2.73-9.44,1.68-14.28,0.77c-1.39-0.26-2.5-0.5-3.12-0.65c-1.18,1.34-2.9,3.3-4.85,5.56
				c-6.04,6.98-14.19,16.64-14.76,18.64c-0.91,3.2,5.49,1.14,15.09-0.69c9.6-1.83,20.57-8.46,22.86-12.57S606.1,409.78,606.1,409.78
				z"/>
			<path class="st12" d="M643.3,386.59c-5.91-11.6-29.98-56.9-29.76-63.46c0.22-6.56,2.84-29.1,3.5-33.48s3.72-19.48,6.78-27.35
				c1.35-3.46,2.18-13.16,1.28-19.23c-3.12,0.54-12.36,1.87-18.66,0.12c-5.35-1.49-22.53-7.36-32.88-11.63
				c-4.52-1.86-7.74-3.42-8.1-4.16c0,0-7.74,20.68-3.14,35.56c4.6,14.88,18.82,77.47,20.13,86.66c0.89,6.21,3.17,31.5,4.56,47.25
				c0.16,1.84,0.31,3.55,0.45,5.08c0.42,4.77,0.68,7.85,0.68,7.85s0.2,0.05,0.54,0.13c0.62,0.14,1.74,0.39,3.12,0.65
				c4.84,0.9,12.91,1.95,14.28-0.77l1.75-26.92c0,0,19.26,34.79,24.95,37.42l0.43-0.25l18.87-10.87l0.83-0.48
				C652.93,408.69,649.21,398.18,643.3,386.59z"/>
			<path class="st11" d="M559.65,399.31l-11.04-10.25c-5.17,4.2-15.92,9.94-20.68,10.53c-5.49,0.69-5.03,1.6-5.03,1.6
				c1.83,9.83,23.09,4.11,30.86,3.2c3.6-0.42,5.72-0.85,6.96-1.18c-0.1,0-0.18,0-0.18,0L559.65,399.31z"/>
			<path class="st4" d="M261.58,254.99c-2.85-0.32-7.27-11.07-7.27-11.07s7.43,0.32,9.17-2.05c1.74-2.37-12.8-3.48-18.97-4.74
				c-2-0.41-4.36-2.23-6.64-4.51c-1.58-1.58-3.12-3.36-4.47-5.06c-2.72-3.4-4.69-6.4-4.69-6.4l-11.7,5.85c0,0,0.36,0.26,0.94,0.69
				c1.09,0.82,3,2.28,4.98,4c0.72,0.63,1.45,1.28,2.15,1.95c3.64,3.48,17.55,15.49,21.97,18.02c4.43,2.53,11.86,16.12,15.02,15.97
				s-2.69-9.96-2.69-9.96s9.8,1.74,11.38-0.79C272.33,254.35,264.43,255.3,261.58,254.99z"/>
			<path class="st17" d="M259.3,256.13c-2.85-0.32-7.27-11.07-7.27-11.07s7.43,0.32,9.17-2.05c1.74-2.37-12.8-3.48-18.97-4.74
				c-2-0.41-4.36-2.23-6.64-4.51c-1.58-1.58-3.12-3.36-4.47-5.06c-2.72-3.4-4.69-6.4-4.69-6.4l-11.7,5.85c0,0,0.36,0.26,0.94,0.69
				c1.09,0.82,3,2.28,4.98,4c0.72,0.63,1.45,1.28,2.15,1.95c3.64,3.48,17.55,15.49,21.97,18.02c4.43,2.53,11.86,16.12,15.02,15.97
				s-2.69-9.96-2.69-9.96s9.8,1.74,11.38-0.79C270.05,255.5,262.15,256.44,259.3,256.13z"/>
		</g>
		<g>
			<path class="st17" d="M583.26,189.74c0.01-0.04,0.03-0.09,0.02-0.12c-0.17-0.75-2.19-4.19-3.09-5.69
				c-2.02-2.01-3.84-4.43-5.96-4.66c-1.54-0.16-2.85-0.4-3.98-0.65l5.45,18.89C578.99,191.42,581.74,190,583.26,189.74z"/>
			<g>
				<path class="st4" d="M647.63,183.11c-0.1-0.63-0.19-1.34-0.27-2.08c-0.69,0.14-1.42,0.22-2.21,0.22c-1.67,0-3.11-0.34-4.35-0.92
					c-0.15,0.01-0.3,0.02-0.45,0.02c-12.89,0-12.87-20,0-20c1.67,0,3.11,0.34,4.35,0.92c0.15-0.01,0.3-0.02,0.45-0.02
					c0.53,0,1.04,0.05,1.53,0.11c-0.01-4.01-0.01-8.35-0.01-12.93c0-6.17-1.11-10.86-2.6-14.53c-0.81,0.66-1.75,1.2-2.84,1.55
					c-0.81,1.1-1.8,2.01-3,2.72c-0.8,0.34-1.59,0.67-2.39,1.01c-1.33,0.42-2.66,0.48-3.99,0.18c-1.33-0.06-2.57-0.46-3.72-1.19
					c-1.17-0.63-2.1-1.49-2.81-2.58c-0.88-0.97-1.48-2.1-1.79-3.4c-0.1-0.4-0.2-0.8-0.3-1.2c-0.48-1.77-0.48-3.54,0-5.32
					c0.34-0.8,0.67-1.59,1.01-2.39c0.89-1.5,2.08-2.7,3.59-3.59c0.72-0.3,1.44-0.61,2.16-0.91c-1.3-0.42-2.45-0.7-3.13-0.85
					c1.8,0.85,1.72,1.15,1.72,1.15s-6.7,2.54-10.17,5.55c-2.3,2-10.73,13.69-17.14,21.51c-3.23,3.95-5.96,6.91-7.12,7.14
					c-3.47,0.69-2.08-13.17-2.08-18.72c0-4.96,4.06-7.89,6.24-10.43c-3.1,0.7-6.64,1.54-10.07,2.84c1.3,3.06,1.15,6.8-0.47,9.7
					c-0.04,0.84-0.14,1.69-0.37,2.49c-0.16,0.42-0.33,0.83-0.52,1.24c-0.16,0.42-0.34,0.83-0.52,1.24
					c-0.02,0.05-0.05,0.08-0.08,0.13c-0.89,1.5-2.08,2.7-3.59,3.59c-0.8,0.34-1.59,0.67-2.39,1.01c-1.07,0.29-2.13,0.38-3.2,0.32
					c-0.25,4.35-0.26,8.69-0.3,11.83c-0.02,1.45-0.05,2.64-0.11,3.46c-0.03,0.35-0.03,0.76-0.03,1.2
					c5.13,4.03,8.83,9.04,14.61,12.35c0.01,0.01,0.03,0.01,0.04,0.02c1.57-2.4,4.21-4.1,7.95-4.1c0.91,0,1.75,0.11,2.53,0.29
					c1.74-0.45,3.48-0.45,5.22,0.02c0.8,0.34,1.59,0.67,2.39,1.01c1.5,0.89,2.7,2.08,3.59,3.59c0.34,0.8,0.67,1.59,1.01,2.39
					c0.42,1.33,0.48,2.66,0.18,3.99c-0.06,1.33-0.46,2.57-1.19,3.72c-0.01,0.02-0.03,0.04-0.04,0.07c-0.14,0.92-0.69,1.76-1.54,2.1
					l0,5.44l0,0.13c1.04-0.58,2.14-0.92,3.33-0.97c1.33-0.3,2.66-0.24,3.99,0.18c2.45,0.68,4.67,2.42,5.98,4.6c0.6,1,1.2,2,1.8,3
					c1.41,2.34,1.6,5.1,1.01,7.71c-0.58,2.55-2.46,4.6-4.6,5.98c-1.15,0.73-2.39,1.13-3.72,1.19c-1.33,0.3-2.66,0.24-3.99-0.18
					c-2.45-0.68-4.67-2.42-5.98-4.6c-0.6-1-1.2-2-1.8-3c-1.41-2.34-1.6-5.1-1.01-7.71c0.58-2.52,2.42-4.56,4.53-5.93
					c-1.89-0.53-6.15-1.72-10.81-3.05c-0.29,0.02-0.58,0.04-0.88,0.04c-2.58,0-4.63-0.81-6.18-2.09c-0.1-0.03-0.21-0.06-0.31-0.09
					c-4.45-1.31-8.25-2.49-9.44-3.01c-1.12-0.49-2.14-1.36-3.12-2.33c0.85,1.42,2.7,4.57,3.05,5.54c1.04,0.61,1.89,1.41,2.54,2.41
					c0.88,0.97,1.48,2.1,1.79,3.4c0.42,1.33,0.48,2.66,0.18,3.99c-0.02,0.39-0.07,0.77-0.15,1.14c-0.06,0.56-0.14,1.13-0.29,1.69
					c-0.34,0.8-0.67,1.59-1.01,2.39c-0.89,1.5-2.08,2.7-3.59,3.59c-0.8,0.34-1.59,0.67-2.39,1.01c-1.33,0.42-2.66,0.48-3.99,0.18
					c-0.89-0.04-1.73-0.24-2.53-0.58c-0.59,0.1-1.2,0.16-1.86,0.16c-0.06,0-0.11-0.01-0.17-0.01c-1.05,3.07-2.17,6.36-3.17,9.29
					c-0.69,2.02-1.31,3.86-1.82,5.37c-0.8,2.35-1.32,3.88-1.32,3.88c0.36,0.75,3.58,2.3,8.1,4.16
					c10.35,4.26,27.53,10.14,32.88,11.63c0.73,0.2,1.5,0.36,2.3,0.49c-3.46-5.9-0.72-15.52,8.21-15.52c8.61,0,11.45,8.91,8.56,14.84
					c0.43-0.08,0.67-0.13,0.67-0.13s2.24-2.56,0.43-10.99c-1.81-8.43,1.92-17.07,2.88-19.31c0.96-2.24,2.56-7.47,2.56-7.47
					C649.44,210,648.69,189.73,647.63,183.11z M621.92,158.18c-1.65,1.65-4.1,2.76-6.46,2.9c-0.72,0.3-1.43,0.61-2.15,0.91
					c-1.77,0.48-3.54,0.48-5.32,0c-0.8-0.34-1.59-0.67-2.39-1.01c-1.17-0.63-2.1-1.49-2.81-2.58c-0.88-0.97-1.48-2.1-1.79-3.4
					c-0.34-1.08-0.43-2.15-0.3-3.23c-0.02-0.24-0.05-0.48-0.06-0.72c-0.11-2.49,1.19-5.34,2.93-7.07c1.79-1.79,4.53-2.96,7.07-2.93
					c1.4,0.02,2.8,0.04,4.2,0.06c2.72,0.04,5.1,1.12,7.07,2.93c1.96,1.8,2.81,4.48,2.93,7.07
					C624.96,153.6,623.65,156.45,621.92,158.18z M595.29,234.5c-0.64,0.47-1.33,0.84-2.09,1.08c-1.19,0.63-2.48,0.91-3.85,0.86h-0.6
					c-1.81-0.01-3.49-0.46-5.05-1.37c-0.67-0.52-1.35-1.04-2.02-1.56c-1.24-1.25-2.1-2.72-2.57-4.41c-0.12-0.89-0.24-1.77-0.36-2.66
					c-0.05-1.38,0.24-2.66,0.86-3.85c0.4-1.24,1.09-2.31,2.07-3.22c0.91-0.98,1.98-1.66,3.22-2.07c0.02-0.01,0.04-0.01,0.05-0.02
					c1.29-3.33,4.26-5.94,8.9-5.94c7.61,0,10.72,6.97,9.33,12.67C603.43,228.75,600.8,233.64,595.29,234.5z"/>
				<path class="st0" d="M580.29,146.38c0.8-0.34,1.59-0.67,2.39-1.01c1.5-0.89,2.7-2.08,3.59-3.59c0.03-0.04,0.06-0.08,0.08-0.13
					c0.19-0.41,0.36-0.82,0.52-1.24c0.19-0.41,0.37-0.82,0.52-1.24c0.23-0.81,0.33-1.65,0.37-2.49c1.62-2.9,1.77-6.64,0.47-9.7
					c-2.4,0.91-4.75,2.03-6.86,3.52c-2.85,2.02-3.88,9.12-4.28,16.19C578.15,146.76,579.22,146.67,580.29,146.38z"/>
				<path class="st0" d="M614.85,141.11c-1.4-0.02-2.8-0.04-4.2-0.06c-2.54-0.03-5.28,1.14-7.07,2.93
					c-1.73,1.73-3.04,4.58-2.93,7.07c0.01,0.24,0.03,0.48,0.06,0.72c-0.13,1.08-0.04,2.15,0.3,3.23c0.31,1.3,0.91,2.43,1.79,3.4
					c0.71,1.09,1.64,1.95,2.81,2.58c0.8,0.34,1.59,0.67,2.39,1.01c1.77,0.48,3.54,0.48,5.32,0c0.72-0.3,1.43-0.61,2.15-0.91
					c2.36-0.14,4.81-1.25,6.46-2.9c1.73-1.73,3.04-4.58,2.93-7.07c-0.12-2.59-0.97-5.27-2.93-7.07
					C619.95,142.23,617.57,141.15,614.85,141.11z"/>
				<path class="st0" d="M624.24,123.29c-0.34,0.8-0.67,1.59-1.01,2.39c-0.48,1.77-0.48,3.54,0,5.32c0.1,0.4,0.2,0.8,0.3,1.2
					c0.31,1.3,0.91,2.43,1.79,3.4c0.71,1.09,1.64,1.95,2.81,2.58c1.15,0.73,2.39,1.13,3.72,1.19c1.33,0.3,2.66,0.24,3.99-0.18
					c0.8-0.34,1.59-0.67,2.39-1.01c1.2-0.71,2.19-1.62,3-2.72c1.09-0.35,2.03-0.89,2.84-1.55c-2.22-5.46-5.3-8.63-6.9-10.86
					c-1.47-2.05-4.63-3.42-7.18-4.24c-0.72,0.3-1.44,0.61-2.16,0.91C626.32,120.6,625.13,121.79,624.24,123.29z"/>
				<path class="st0" d="M644.69,161.27c-1.24-0.58-2.68-0.92-4.35-0.92c-12.87,0-12.89,20,0,20c0.16,0,0.3-0.02,0.45-0.02
					c1.24,0.58,2.68,0.92,4.35,0.92c0.78,0,1.52-0.08,2.21-0.22c-0.52-4.7-0.65-11.5-0.68-19.67c-0.49-0.07-0.99-0.11-1.53-0.11
					C644.99,161.25,644.85,161.27,644.69,161.27z"/>
				<path class="st0" d="M606.4,200.39c-0.59,2.61-0.4,5.36,1.01,7.71c0.6,1,1.2,2,1.8,3c1.3,2.17,3.52,3.92,5.98,4.6
					c1.33,0.42,2.66,0.48,3.99,0.18c1.33-0.06,2.57-0.46,3.72-1.19c2.14-1.38,4.01-3.43,4.6-5.98c0.59-2.61,0.4-5.36-1.01-7.71
					c-0.6-1-1.2-2-1.8-3c-1.3-2.17-3.52-3.92-5.98-4.6c-1.33-0.42-2.66-0.48-3.99-0.18c-1.18,0.05-2.29,0.39-3.33,0.97l0,0.39
					c-0.13-0.04-0.29-0.08-0.46-0.13C608.83,195.84,606.98,197.87,606.4,200.39z"/>
				<path class="st0" d="M613.97,178.75c-0.34-0.8-0.67-1.59-1.01-2.39c-0.89-1.5-2.08-2.7-3.59-3.59c-0.8-0.34-1.59-0.67-2.39-1.01
					c-1.74-0.47-3.48-0.47-5.22-0.02c-0.78-0.18-1.62-0.29-2.53-0.29c-3.74,0-6.39,1.7-7.95,4.1c6.37,3.65,12.9,5.75,19.84,7.99
					c1.47,0.47,1.97,1.79,1.79,2.98c0.01-0.02,0.03-0.04,0.04-0.07c0.73-1.15,1.13-2.39,1.19-3.72
					C614.45,181.41,614.39,180.08,613.97,178.75z"/>
				<path class="st0" d="M600.13,191.41c-2.34-0.67-4.78-1.37-7.06-2.05c1.55,1.28,3.6,2.09,6.18,2.09
					C599.55,191.45,599.84,191.43,600.13,191.41z"/>
				<path class="st0" d="M573.81,208.69c0.8,0.34,1.64,0.54,2.53,0.58c1.33,0.3,2.66,0.24,3.99-0.18c0.8-0.34,1.59-0.67,2.39-1.01
					c1.5-0.89,2.7-2.08,3.59-3.59c0.34-0.8,0.67-1.59,1.01-2.39c0.15-0.56,0.24-1.13,0.29-1.69c0.08-0.37,0.13-0.75,0.15-1.14
					c0.3-1.33,0.24-2.66-0.18-3.99c-0.31-1.3-0.91-2.43-1.79-3.4c-0.65-1-1.5-1.8-2.54-2.41c0.02,0.06,0.04,0.11,0.05,0.15
					c0.01,0.03-0.02,0.08-0.02,0.12c-1.52,0.26-4.27,1.68-7.55,7.77c-0.34,0.85-2.03,5.74-3.94,11.33c0.06,0,0.11,0.01,0.17,0.01
					C572.6,208.85,573.22,208.79,573.81,208.69z"/>
				<path class="st0" d="M593.84,211.35c-4.64,0-7.61,2.61-8.9,5.94c-0.02,0.01-0.04,0.01-0.05,0.02c-1.24,0.4-2.31,1.09-3.22,2.07
					c-0.98,0.91-1.66,1.98-2.07,3.22c-0.63,1.19-0.91,2.48-0.86,3.85c0.12,0.89,0.24,1.77,0.36,2.66c0.48,1.69,1.33,3.16,2.57,4.41
					c0.67,0.52,1.35,1.04,2.02,1.56c1.56,0.9,3.24,1.36,5.05,1.37h0.6c1.38,0.05,2.66-0.24,3.85-0.86c0.76-0.25,1.46-0.62,2.09-1.08
					c5.51-0.86,8.14-5.76,7.89-10.48C604.56,218.32,601.46,211.35,593.84,211.35z"/>
				<path class="st0" d="M616.94,228.15c-8.93,0-11.67,9.62-8.21,15.52c6.07,0.96,13.61-0.13,16.36-0.61
					c0.15-0.03,0.28-0.05,0.4-0.07C628.39,237.06,625.55,228.15,616.94,228.15z"/>
			</g>
		</g>
	</g>
	<g>
		<g>
			<path class="st6" d="M403.08,409.52c-3.7-7.41-2.56-17.38-3.7-23.36c-0.6-3.13-2.2-8.27-3.6-12.48
				c-0.98,0.34-2.13,0.65-3.53,0.92c-4.42,0.84-16.4,2.02-29.41,2.97c3.58,4.56,8.25,11.21,9.76,16.57
				c2.56,9.12,1.42,24.22,7.41,34.19c5.98,9.97,21.94,41.6,21.94,45.3l22.79-0.85c0,0-7.12-9.4-8.55-16.81
				S406.78,416.92,403.08,409.52z"/>
			<path class="st16" d="M387.56,132.19c0.57-5.21-3.18-9.9-8.4-10.48c-5.21-0.57-9.9,3.18-10.48,8.4s3.18,9.9,8.4,10.48
				C382.29,141.16,386.98,137.4,387.56,132.19z"/>
			<path class="st16" d="M247.73,295.19c0,0-10.59,66.39-11.07,71.61c-0.27,2.95,0.02,15.95,0.35,26.98
				c6.84-22.2,20.52-66.82,20.99-70.61C258.64,318.11,247.73,295.19,247.73,295.19z"/>
			<path class="st6" d="M631.46,91.21c-5.55-7.63-2.31-12.02-3.47-17.56c-1.16-5.55-8.09-8.55-14.79-11.09s-10.17-6.01-13.87-3
				s-7.86,8.32-9.71,9.47c-1.85,1.16-7.16,2.54-7.63,7.16c-0.06,0.56-0.1,1.11-0.15,1.65c-0.32,3.9-0.37,7.37-0.78,12.45
				c-0.46,5.78,1.85,14.56,7.4,15.48c0.01,0,0.01,0,0.01,0c-0.85-3.73-1.86-7.86-1.86-7.86s-5.08-0.46-4.16-3
				c0.57-1.57,2.03-9.24,3.05-14.86c0.63-3.47,1.11-6.17,1.11-6.17s2.2-5.34,6.04-3.42c0.2,0.1,0.38,0.23,0.56,0.38
				c3.18,2.55,2.49,11.36,5.63,13.28c3.31,2.03,7.26,2.88,7.47,5.23s0.89,3.6,3.95,4.91c4.48,1.92,3.57,9.01,1.49,10.88
				c0,0-3.19,2.95,0.28,3.87c0.91,0.24,1.9,0.47,2.91,0.63c2.84,0.45,5.85,0.38,7.72-1.32c2.54-2.31,4.39,1.16,6.01-1.39
				C630.3,104.38,637,98.84,631.46,91.21z"/>
			<path class="st6" d="M629.51,117.33c-0.96-0.45-2.43-1.05-4.76-1.85c-5.13-1.77-8.36-3.41-9.8-5.84c-1.01-0.16-2-0.39-2.91-0.63
				c-3.47-0.92-0.28-3.87-0.28-3.87c2.07-1.87,2.99-8.96-1.49-10.88c-3.05-1.31-3.73-2.56-3.95-4.91s-4.16-3.2-7.47-5.23
				c-3.13-1.92-2.44-10.73-5.63-13.28c-0.18-0.14-0.36-0.28-0.56-0.38c-3.84-1.92-6.04,3.42-6.04,3.42s-0.47,2.7-1.11,6.17
				c-1.03,5.62-2.48,13.29-3.05,14.86c-0.92,2.54,4.16,3,4.16,3s1.01,4.13,1.86,7.86c0.56,2.45,1.05,4.72,1.14,5.55
				c0.23,2.08,7.4,0.46,8.55-0.23c0,0,5.32,8.78,3.47,11.55c-0.2,0.29-0.43,0.59-0.69,0.89c-2.18,2.55-6.24,5.47-6.24,10.43
				c0,5.55-1.39,19.41,2.08,18.72c1.16-0.23,3.89-3.2,7.12-7.14c6.41-7.82,14.84-19.51,17.14-21.51c3.47-3,10.17-5.55,10.17-5.55
				S631.31,118.18,629.51,117.33z"/>
			<path class="st6" d="M564.16,167.23c2.35,3.2,5.22,7.38,7.77,7.12c2.55-0.26,7.25,0.33,6.72-3.59c-0.52-3.92-5.74-6.66-7.51-9.92
				c-0.91-0.39-2.42,1.96-2.42,1.96c-1.24,0.07-3.13,1.5-3.13,1.5c-1.47,0.43-2.14,1.21-2.45,1.77
				C563.51,166.42,563.85,166.8,564.16,167.23z"/>
			<path class="st6" d="M614.05,193.45l-0.01-8.26c-1.54-0.11-4.37-1.16-7.39-2.47c-3.33-1.44-6.89-3.2-9.21-4.38
				c-1.54-0.78-2.53-1.31-2.53-1.31s-8.36-2.87-14.17-10.45c-0.47-0.61-0.91-1.16-1.33-1.69c-4.8-5.95-6.61-6.4-7.81-6.34
				c-1.31,0.07-0.46,2.28-0.46,2.28c1.76,3.26,6.99,6.01,7.51,9.92c0.52,3.92-4.18,3.33-6.72,3.59c-2.55,0.26-5.42-3.92-7.77-7.12
				c-0.31-0.43-0.66-0.81-1.01-1.16c-1.75-1.72-3.85-2.53-4.75-2.82c-0.26-0.08-0.56,0-0.73,0.22c-2.13,2.87,1.99,5.72,3.14,6.92
				c1.31,1.37,7.59,6.51,9.16,6.9c0.8,0.2,1.77,0.47,2.94,0.72c1.13,0.25,2.44,0.49,3.98,0.65c2.12,0.22,3.94,2.64,5.96,4.66
				c0.97,0.97,1.99,1.84,3.12,2.33c1.2,0.52,4.99,1.69,9.44,3.01c7.27,2.15,16.3,4.67,18.64,5.32L614.05,193.45z"/>
			<path class="st6" d="M598.18,111.09c-1.16,0.69-8.32,2.31-8.55,0.23c-0.09-0.82-0.58-3.1-1.14-5.55c-0.01,0-0.01,0-0.01,0
				c-5.55-0.92-7.86-9.71-7.4-15.48c0.41-5.08,0.46-8.55,0.78-12.45c-1.04-0.44-2.49-0.85-3.88-0.57c-1.01,0.2-1.99,0.75-2.75,1.94
				c-2.02,3.14-9.05,14.63-14.99,20.14c-2.02,1.87-3.91,3.05-5.43,2.98c0,0,0.48-6.92,2.5-11.4l-0.72-1.14
				c-2.83,0.8-8.62,3.04-8.39,8.04c0,0-5.1,1.8-7.51,9.91c-2.4,8.11-5.1,31.83-4.2,38.13s-2.1,47.44-1.2,55.85
				c0.9,8.41-0.9,16.51-0.9,16.51c15.29,8.27,31.84,1.69,36.88-0.71c2.81-8.28,6.58-19.3,7.1-20.62l-5.45-18.89
				c-1.17-0.26-2.14-0.52-2.94-0.72c-1.57-0.39-7.86-5.53-9.16-6.9c-1.14-1.2-5.26-4.04-3.14-6.92c0.16-0.22,0.46-0.31,0.73-0.22
				c0.9,0.29,2.99,1.1,4.75,2.82c0.31-0.57,0.98-1.35,2.45-1.77c0,0,1.89-1.44,3.13-1.5c0,0,1.5-2.35,2.42-1.96
				c0,0-0.85-2.22,0.46-2.28c1.2-0.06,3.02,0.39,7.81,6.34c-0.12-1.39-0.16-2.61-0.09-3.53c0.06-0.81,0.09-2.01,0.11-3.46
				c0.12-8.22-0.02-24.76,4.58-28.02c5.11-3.62,11.65-5.17,16.93-6.36c0.26-0.3,0.5-0.6,0.69-0.89
				C603.49,119.87,598.18,111.09,598.18,111.09z"/>
			<path class="st12" d="M537.42,46.52c3.08-1.08,3.7,2.77,5.85,5.7c2.16,2.93,5.24,3.54,7.09,3.54c1.85,0,0.77-1.23,2-2.16
				c1.23-0.92,1.85-0.31,3.08-0.31s1.23-2.16,1.23-2.16c0-2.16,2.47-1.85,2.47-1.85c3.39-0.31,4.16,6.78,4.16,6.78l2.31,0.31
				c1.85,4.01,5.85,6.32,5.85,6.32c0,0.02,0,0.05,0,0.08c0.48,0.06,0.88,0.05,1.15-0.3c0.78-1.02,0.85-2.91,1.11-3.77
				c0.46-1.54-0.17-6.08-2.89-13.41c-2.69-7.26-8.17-11.4-11.09-13.71s-9.86,0.46-15.25,0.77c-5.39,0.31-7.09,1.23-10.32,6.01
				c-3.24,4.78-5.85,8.01-5.85,10.63c0,1.52,1.44,2.41,2.66,2.9c-0.22-0.56-0.35-0.89-0.35-0.89
				C532.8,50.06,534.34,47.6,537.42,46.52z"/>
			<path class="st6" d="M571.47,62.77c0-0.02,0-0.05,0-0.08c0,0-4.01-2.31-5.85-6.32l-2.31-0.31c0,0-0.77-7.09-4.16-6.78
				c0,0-2.47-0.31-2.47,1.85c0,0,0,2.16-1.23,2.16s-1.85-0.62-3.08,0.31c-1.23,0.92-0.15,2.16-2,2.16c-1.85,0-4.93-0.62-7.09-3.54
				c-2.16-2.93-2.77-6.78-5.85-5.7s-4.62,3.54-6.78,4.47c0,0,0.13,0.33,0.35,0.89c1.06,2.77,4.17,11.31,3.66,15.28
				c-0.62,4.78,0.46,7.24,1.69,7.24s2.47,0.15,2.47,0.15s2.77,3.39,3.24,5.24c0.46,1.85-0.15,6.16,3.39,6.47s9.24,0.46,9.24,0.46
				l1.91,3.04l0.72,1.14c-2.02,4.48-2.5,11.4-2.5,11.4c1.52,0.08,3.41-1.11,5.43-2.98c5.94-5.51,12.97-17,14.99-20.14
				c0.76-1.19,1.74-1.74,2.75-1.94C575.9,73.41,571.46,64.91,571.47,62.77z"/>
			<path class="st6" d="M343.7,157.8c1.18,0.13,2.29,0.56,3.32,1.18l0.92-3.66c0,0,8.19-1.9,11.26-2.63s0.44-8.34,3.07-15.5
				c2.63-7.17-1.17-5.26-3.22-10.24s-4.97-13.45-4.97-13.45s-0.22,0.09-0.6,0.24c-0.62,0.93-1.22,2.09-1.6,3.42
				c-1.02,3.66-1.61,10.09-1.61,10.09s-4.39-4.39-7.9-1.46s-2.63,5.56-2.63,5.56s-0.15,12.72-5.41,13.16
				c-0.49,0.04-0.95,0.12-1.4,0.2c-0.94,0.49-2,0.76-3.03,0.92c-1.61,0.64-3.01,1.36-4.39,1.64c0.64,1.93-1.03,7.54-1.79,9.91
				C330.28,157.01,339.52,157.35,343.7,157.8z"/>
			<path class="st12" d="M350.58,102.52c-2.05-2.34-11.26-6.29-16.82-6.43s-14.48,3.51-14.48,3.51s-7.75-8.63-16.96-2.63
				s2.63,17.99,2.63,17.99c5.7,6.87,10.09,4.53,10.09,4.53s-2.49,7.31-3.8,11.85c-1.32,4.53,7.6,14.04,11.26,15.65
				c1.04,0.46,2.03,0.48,3.03,0.28c1.38-0.28,2.78-0.99,4.39-1.64c1.03-0.16,2.09-0.43,3.03-0.92c0.45-0.09,0.91-0.16,1.4-0.2
				c5.26-0.44,5.41-13.16,5.41-13.16s-0.88-2.63,2.63-5.56s7.9,1.46,7.9,1.46s0.58-6.43,1.61-10.09c0.37-1.33,0.98-2.48,1.6-3.42
				c1.08-1.63,2.21-2.58,2.21-2.58C357.3,107.79,352.63,104.86,350.58,102.52z"/>
			<path class="st6" d="M354.76,168.34c-0.95-1.89-3.79-7-7.73-9.36c-1.04-0.62-2.15-1.05-3.32-1.18
				c-4.19-0.46-13.42-0.8-19.97-0.64c-3.97,0.1-6.95,0.38-7.23,0.93c-0.73,1.46-1.02,6.43-0.58,6.73s8.48,1.9,17.4,1.46
				c8.92-0.44,14.62,0.15,17.55,1.75s4.24,1.02,4.24,1.02S354.99,168.79,354.76,168.34z"/>
			<path class="st6" d="M369.87,161.76c0,0,0.84,0.18,1.99,0l0.64-4.23l-0.53-0.57c-2.55,0.3-4.8,6.61-4.8,6.61l0.25,0.09
				C368.39,162.31,369.87,161.76,369.87,161.76z"/>
			<path class="st12" d="M379.43,119.29c-6.55-0.72-12.45,4-13.17,10.56c-0.64,5.84,3.05,11.15,8.5,12.75l-2.25,14.94l-0.64,4.23
				c0.55-0.08,1.17-0.25,1.81-0.55c0.64-0.31,1.29-0.75,1.9-1.4c0.76-0.81,1.54-0.59,2.35,0.17l0.63-16.91
				c5.82-0.21,10.77-4.64,11.43-10.61C390.71,125.91,385.98,120.01,379.43,119.29z M387.56,132.19c-0.57,5.21-5.27,8.97-10.48,8.4
				c-5.21-0.57-8.97-5.27-8.4-10.48s5.27-8.97,10.48-8.4C384.37,122.29,388.13,126.98,387.56,132.19z"/>
			<path class="st6" d="M383.84,167.61c-2.11-1.46-4.07-5.92-5.91-7.64c-0.81-0.76-1.59-0.98-2.35-0.17c-0.61,0.65-1.26,1.1-1.9,1.4
				c-0.64,0.3-1.26,0.47-1.81,0.55c-1.15,0.17-1.99,0-1.99,0s-1.48,0.56-2.46,1.89c-0.63,0.87-1.05,2.07-0.7,3.67
				c0.51,2.3,0.3,8.01,0.02,12.54c-0.21,3.46-0.47,6.23-0.47,6.23l4.25,25.64c0,0-20.8,3.04-21.73,5.84c0,0,4.91,29.21,7.71,31.31
				c2.51,1.88,7.83-1.3,12.44-6.51c0.54-0.61,1.07-1.24,1.58-1.9c4.91-6.31,9.58-20.33,9.81-33.42c0.23-13.09-4.92-26.45,1.25-31.48
				C385.41,172.46,386.87,169.72,383.84,167.61z"/>
			<path class="st6" d="M322.38,379.03c-1.83-0.13-3.62-0.24-5.35-0.35c1.2,6.22,3.31,18.08,3.71,27.13
				c0.57,12.82,2.28,55.84,10.83,67.24l19.37,1.14c0,0-4.47-13.18-6.55-26.5c-1.88-12-1.41-24.02-1.14-28.21
				c0.42-6.46,0.22-29.05,0.09-40.74C334.41,379.17,326.61,379.33,322.38,379.03z"/>
			<path class="st6" d="M400.66,368.52c0,0-19.86-55.85-22.43-59.59s-6.01-38.08-4.84-45.39c1.09-6.83-3.81-19.52-4.46-21.17
				c-4.61,5.21-9.93,8.39-12.44,6.51c-2.8-2.1-7.71-31.31-7.71-31.31c0.79-2.37,15.79-4.91,20.4-5.64c0.84-0.13,1.34-0.2,1.34-0.2
				l-4.25-25.64c0,0,0.25-2.77,0.47-6.23c-0.7-1.49-1.64-3.12-2.85-5.23c-2.08-3.61-6.6-5.5-9.12-6.28
				c0.23,0.46,0.35,0.73,0.35,0.73s-1.32,0.58-4.24-1.02s-8.63-2.19-17.55-1.75c-8.92,0.44-16.96-1.17-17.4-1.46
				c-2.95,3.81-19.48,24.93-22.28,32.64s3.51,17.53,5.84,24.77s10.28,22.67,10.28,22.67s2.34,2.57,4.21,6.78
				s-11.68,35.52-17.76,56.78s-2.8,37.15-3.27,46.03c-0.47,8.88-2.34,18.93,1.64,21.26c3.42,2.01,11.85,2.29,22.46,2.93
				c1.73,0.1,3.51,0.22,5.35,0.35c4.24,0.3,12.03,0.14,20.96-0.28c6.22-0.29,12.98-0.71,19.5-1.19c13.01-0.95,24.99-2.12,29.41-2.97
				c1.39-0.26,2.55-0.58,3.53-0.92C401.69,371.61,400.66,368.52,400.66,368.52z"/>
			<path class="st6" d="M220.7,82.89c6.48-3.64,10.43,1.58,15.18-2.21c1.53-1.23,4.32-1.44,5.85-3.16c3.2-3.61,4.74-8.85,4.74-8.85
				s0.07,0.29,0.19,0.79c0.24-3.35-0.44-8.12-5.41-9.64c-7.75-2.37-7.59-4.27-17.55-1.26c-9.96,3-10.75,5.69-14.7,6.48
				c-3.95,0.79-4.11,1.74-4.11,1.74s1.63-6.46-3.95-8.69c-5.53-2.21-8.69,0.79-9.48,1.42c-0.79,0.63-4.74,10.59-0.32,16.6
				s8.38,8.22,10.59,3.95c0,0,3,7.9,7.27,10.59s3.32,8.06,3.32,8.06l3.32-3.79l2.53-0.16C218.17,94.75,214.22,86.53,220.7,82.89z"/>
			<path class="st6" d="M253.84,93.51c0.76-0.24,1.08-1.12,0.67-1.81c-2.87-4.77-7.01-18.79-7.85-22.25
				c-0.12-0.5-0.19-0.79-0.19-0.79s-1.54,5.24-4.74,8.85c-1.53,1.72-4.32,1.94-5.85,3.16c-4.74,3.79-8.69-1.42-15.18,2.21
				c-6.48,3.64-2.53,11.86-2.53,11.86l-2.53,0.16c2,5,0.05,6.64-1.25,9.07c-0.34,0.64-0.64,1.33-0.81,2.16
				c-0.79,3.95,6.32,12.8,9.64,14.86c3.32,2.05,3.95,0.79,6.96,3.16c2.07,1.64,8.29,13.23,11.95,20.24
				c0.54,1.04,2.11,0.54,1.96-0.62l-1.89-14.24c0,0-3.82-8.31-5.45-13.72c-0.15-0.51-0.29-1-0.4-1.45
				c-1.26-5.22,3.95-4.58,3.95-4.58s4.27-0.32,6.32-0.95c5.16-1.59,3.32-14.07,3.32-14.07L253.84,93.51z"/>
			<path class="st6" d="M279.35,199.39c-3.32-2.37-1.26-1.42-1.74-3.48c-0.38-1.63-12.03-14.74-16.8-20.05
				c1.1,7.02,2.63,14.53,3.2,17.84c0.18,1.07,0.5,3.18,0.88,5.9c0.65,0.87,1.29,1.79,1.81,2.63c1.74,2.85,0,7.43,2.37,9.01
				c2.37,1.58,4.27,0,6.16-0.47c1.9-0.47,3.79,7.59,4.58,8.06c0.79,0.47,1.42-4.58,1.11-7.59s1.74-3.64,1.74-3.64s5.69,3,8.06,2.53
				C293.1,209.67,282.67,201.76,279.35,199.39z"/>
			<path class="st6" d="M264.89,199.61c-0.38-2.72-0.69-4.84-0.88-5.9c-0.57-3.31-2.1-10.82-3.2-17.84
				c-0.74-4.7-1.29-9.18-1.22-12.04c0.16-7.11-1.58-17.23-6.32-22.45c-4.74-5.22-5.06-12.17-6.64-14.86s-3.79-4.27-3.79-4.27
				s2.61-7.11-6.08-6.45c1.63,5.41,5.45,13.72,5.45,13.72l1.87,14.07c0.16,1.19-1.46,1.71-2.02,0.64
				c-3.66-7.03-9.81-18.46-11.87-20.09c-3-2.37-3.64-1.11-6.96-3.16c-3.32-2.05-10.43-10.91-9.64-14.86
				c0.17-0.83,0.46-1.52,0.81-2.16c-2.47,0.27-6.21,1.23-6.97,4.05c-1.11,4.11-9.64,13.28-12.33,16.44
				c-2.69,3.16-4.11,11.38-4.11,18.02c0,6.64,4.27,23.55,8.22,39.52c3.95,15.97,7.59,22.29,7.59,30.51c0,8.22-1.74,18.49-1.74,18.49
				s0.11,0.01,0.3,0.02c1.51,0.1,8.8,0.6,17.94,1.19c-1.98-1.71-3.88-3.18-4.98-4c-0.58-0.43-0.94-0.69-0.94-0.69l11.7-5.85
				c0,0,1.97,3,4.69,6.4c1.35,1.69,2.89,3.48,4.47,5.06c10.43,0.61,20.7,1.15,26.35,1.24c2.76,0.05,4.42-0.01,4.47-0.21
				C269.33,233.15,266.49,211.01,264.89,199.61z"/>
			<path class="st6" d="M261.96,255.51c-2.85-0.32-7.27-11.07-7.27-11.07s7.43,0.32,9.17-2.05c1.74-2.37-12.8-3.48-18.97-4.74
				c-2-0.41-4.36-2.23-6.64-4.51c-1.58-1.58-3.12-3.36-4.47-5.06c-2.72-3.4-4.69-6.4-4.69-6.4l-11.7,5.85c0,0,0.36,0.26,0.94,0.69
				c1.09,0.82,3,2.28,4.98,4c0.72,0.63,1.45,1.28,2.15,1.95c3.64,3.48,17.55,15.49,21.97,18.02c4.43,2.53,11.86,16.12,15.02,15.97
				s-2.69-9.96-2.69-9.96s9.8,1.74,11.38-0.79C272.71,254.88,264.8,255.83,261.96,255.51z"/>
			<path class="st6" d="M245.84,411.85c-3.41-0.13-6.18-1.17-8.26-2.32c0.02,0.38,0.03,0.64,0.04,0.74
				c0.04,0.39-1.01,0.78-2.64,1.14c4.34,7.06,15.34,14.64,15.34,14.64s14.22,6.46,20.46,4.95s10.98-2.37,10.34-4.95
				c-0.65-2.58-5.11-3.85-10.12-6.46c-4.1-2.13-7.82-6.14-9.56-9.64C258.83,410.6,252.15,412.09,245.84,411.85z"/>
			<path class="st6" d="M250.32,426.04c0,0-11-7.57-15.34-14.64c-0.28,0.06-0.59,0.12-0.91,0.18c-4,0.75-10.34,1.28-13.34,1.16
				c-0.94,3.85-2.74,12.09-1.43,13.72c1.72,2.15,19.82,12.06,27.79,10.55C255.06,435.52,254.84,431.21,250.32,426.04z"/>
			<path class="st6" d="M289.15,317.16c-2.85-13.28-17.07-64.18-17.07-64.18s-5.09-11.78-7.48-18.6c-5.66-0.1-15.92-0.63-26.35-1.24
				c2.28,2.27,4.64,4.1,6.64,4.51c6.16,1.26,20.71,2.37,18.97,4.74c-1.74,2.37-9.17,2.05-9.17,2.05s4.43,10.75,7.27,11.07
				s10.75-0.63,9.17,1.9c-1.58,2.53-11.38,0.79-11.38,0.79s5.85,9.8,2.69,9.96s-10.59-13.44-15.02-15.97
				c-4.43-2.53-18.34-14.54-21.97-18.02c-0.7-0.67-1.43-1.33-2.15-1.95c-9.15-0.59-16.43-1.09-17.94-1.19
				c-0.5,3.88-1.43,11.43-1.88,17.05c-0.63,7.9-1.11,38.41,2.05,49.64c3.16,11.22,6.16,44.1,6.16,44.1s2.69,30.51,3.16,38.89
				c0.47,8.38,3.16,30.82,4.27,31.77c0.17,0.15,0.76,0.24,1.62,0.27c3,0.12,9.34-0.41,13.34-1.16c0.32-0.06,0.62-0.12,0.91-0.18
				c1.62-0.35,2.67-0.75,2.64-1.14c-0.01-0.1-0.03-0.36-0.04-0.74c2.08,1.15,4.86,2.19,8.26,2.32c6.32,0.25,13-1.25,15.61-1.91
				c0.72-0.18,1.15-0.31,1.15-0.31s0.32-18.18,2.37-24.19c2.05-6.01,21.02-48.37,21.02-48.37S291.99,330.44,289.15,317.16z
				 M236.67,366.79c0.47-5.22,11.07-71.61,11.07-71.61s10.91,22.92,10.27,27.98c-0.47,3.79-14.15,48.42-20.99,70.61
				C236.69,382.74,236.4,369.74,236.67,366.79z"/>
			<path class="st6" d="M662.71,419.09c-1.75-2.71-5.71-7.73-7.96-10.54l-18.87,10.87c-1.21,4.64-3.99,11.21-5.17,14.07
				c-1.6,3.89-10.74,5.26-13.03,7.77s7.77,4.57,7.77,4.57c11.2,2.51,19.89-8.91,23.09-11.66s11.2-5.26,16.23-7.09
				C669.8,425.26,665.23,422.97,662.71,419.09z"/>
			<path class="st6" d="M590.81,409.16c0,0-0.26-3.08-0.68-7.85c-6.46,0.97-16.4,1.21-22.22,1.27c-1.6,2.43-5.86,4.4-9.66,6.67
				c-4.57,2.74-5.03,3.66-5.03,3.66c2.73,6.42,26.33,3.07,33.27,1.93c1.95-2.25,3.67-4.21,4.85-5.56
				C591.01,409.21,590.81,409.16,590.81,409.16z"/>
			<path class="st6" d="M608.75,409.16c-1.36,2.73-9.44,1.68-14.28,0.77c-1.39-0.26-2.5-0.5-3.12-0.65c-1.18,1.34-2.9,3.3-4.85,5.56
				c-6.04,6.98-14.19,16.64-14.76,18.64c-0.91,3.2,5.49,1.14,15.09-0.69c9.6-1.83,20.57-8.46,22.86-12.57
				S608.75,409.16,608.75,409.16z"/>
			<path class="st6" d="M645.95,385.97c-5.91-11.6-29.98-56.9-29.76-63.46c0.22-6.56,2.84-29.1,3.5-33.48s3.72-19.48,6.78-27.35
				c1.35-3.46,2.18-13.16,1.28-19.23c-3.12,0.54-12.36,1.87-18.66,0.12c-5.35-1.49-22.53-7.36-32.88-11.63
				c-4.52-1.86-7.74-3.42-8.1-4.16c0,0-7.74,20.68-3.14,35.56s18.82,77.47,20.13,86.66c0.89,6.21,3.17,31.5,4.56,47.25
				c0.16,1.84,0.31,3.55,0.45,5.08c0.42,4.77,0.68,7.85,0.68,7.85s0.2,0.05,0.54,0.13c0.62,0.14,1.74,0.39,3.12,0.65
				c4.84,0.9,12.91,1.95,14.28-0.77l1.75-26.92c0,0,19.26,34.79,24.95,37.42l0.43-0.25l18.87-10.87l0.83-0.48
				C655.58,408.07,651.86,397.57,645.95,385.97z"/>
			<path class="st6" d="M562.31,398.69l-11.04-10.25c-5.17,4.2-15.92,9.94-20.68,10.53c-5.49,0.69-5.03,1.6-5.03,1.6
				c1.83,9.83,23.09,4.11,30.86,3.2c3.6-0.42,5.72-0.85,6.96-1.18c-0.1,0-0.18,0-0.18,0L562.31,398.69z"/>
			<path class="st6" d="M589.68,396.23c-1.39-15.75-3.67-41.04-4.56-47.25c-1.31-9.19-15.54-71.78-20.13-86.66
				s3.14-35.56,3.14-35.56s0.52-1.53,1.32-3.88c0.51-1.51,1.14-3.36,1.82-5.37c-5.04,2.4-21.59,8.99-36.88,0.71
				c0,0-0.3,50.14,3,60.65c0,0,7.21,61.56,9.91,69.66c2.7,8.11,6.31,16.51,4.5,26.42c-1.8,9.91-2.1,12.01-2.1,12.01l1.57,1.46
				l11.04,10.25l0.9,3.9c0,0,0.07,0,0.18,0c0.5,0,2.17,0.01,4.52-0.01c5.82-0.05,15.75-0.3,22.22-1.27
				C589.99,399.78,589.84,398.07,589.68,396.23z"/>
			<circle class="st12" cx="245.1" cy="84.22" r="1.27"/>
			<circle class="st12" cx="357.19" cy="124.73" r="1.27"/>
			<path class="st6" d="M247.75,99.56c0,0-2.08,2.65-5.19,2.42c0,0,0.58,1.62,3.11,0.23"/>
			<path class="st6" d="M218.17,94.75c0,0,0.74,1.58,2.58,1.81"/>
			<path class="st6" d="M221.79,89.06c3.15-5.57-4.19-2.5-3,1.96c0.84,3.17,2.88,3,2.88,3"/>
			<path class="st6" d="M201.73,80.05c0,0,0.1-12.44,3.22-14.06"/>
			<path class="st6" d="M204.89,66.77c0,0-0.41-4.13-3.29-4.59"/>
			<path class="st6" d="M227.33,122.64c0,0-8.77,5.31-9.23,7.73c0,0-14.19-12.69-13.96-16.27"/>
			<line class="st6" x1="242.83" y1="122.25" x2="241.98" y2="128.87"/>
			<path class="st6" d="M217.38,227.53c0,0-3.06,2.07-4.67,1.38c-1.62-0.69-5.89-19.04-5.89-19.04"/>
			<path class="st6" d="M229.08,221.68c0,0,0.37-0.74,0.37-1.31s-8.08-18.93-7.85-22.39c0.23-3.46-4.15-8.42-3.12-25.04
				c1.04-16.62-1.04-24.47-1.04-24.47"/>
			<line class="st6" x1="237.57" y1="409.52" x2="237.02" y2="393.78"/>
			<path class="st6" d="M247.73,295.19c-0.12-1.38,2.85-24.18,0.02-28.9"/>
			<path class="st6" d="M313.97,251.68c2.87,0.57,19.88,3.94,25.14,1.38"/>
			<path class="st6" d="M372.03,230.66c-0.67,0.67-1.25-18.03-2.85-18.73"/>
			<path class="st6" d="M348.78,217.56c0.04-0.67-8.19-24.69-4.41-31.16"/>
			<path class="st6" d="M348.42,137.15c0,0-6.88,1.89-8.64-6.75"/>
			<path class="st6" d="M348.28,133.91c0,0-3.91-1.62-3.24-4.59c0.36-1.6,1.35-1.48,1.35-1.48"/>
		</g>
		<path class="st6" d="M622.76,150.27c0,0,9.42,28.73,8.86,30.43c-0.57,1.7-5.56,2.5-6.02,2.5c-0.38,0-8.06,0.4-10.5,0.53
			c-0.42,0.02-0.75,0.36-0.75,0.78l-0.24,12.51l20.6,7.45"/>
		<g>
			<path class="st6" d="M585.92,189.12c0.01-0.04,0.03-0.09,0.02-0.12c-0.17-0.75-2.19-4.19-3.09-5.69
				c-2.02-2.01-3.84-4.43-5.96-4.66c-1.54-0.16-2.85-0.4-3.98-0.65l5.45,18.89C581.65,190.81,584.4,189.38,585.92,189.12z"/>
			<path class="st6" d="M650.28,182.49c-1.07-6.62-0.96-19.31-0.96-34.68s-6.83-21.66-9.5-25.39c-2.21-3.1-8.3-4.65-10.32-5.09
				c1.8,0.85,1.72,1.15,1.72,1.15s-6.7,2.54-10.17,5.55c-2.3,2-10.73,13.69-17.14,21.51c-3.23,3.95-5.96,6.91-7.12,7.14
				c-3.47,0.69-2.08-13.17-2.08-18.72c0-4.96,4.06-7.89,6.24-10.43c-5.28,1.19-11.82,2.74-16.93,6.36
				c-4.6,3.26-4.46,19.79-4.58,28.02c-0.02,1.45-0.05,2.64-0.11,3.46c-0.07,0.92-0.03,2.14,0.09,3.53c0.42,0.52,0.86,1.07,1.33,1.69
				c5.81,7.57,14.17,10.45,14.17,10.45s0.99,0.53,2.53,1.31c2.32,1.18,5.88,2.94,9.21,4.38c3.02,1.31,5.85,2.35,7.39,2.47l0.01,8.26
				l0,0.52c-2.34-0.65-11.36-3.17-18.64-5.32c-4.45-1.31-8.25-2.49-9.44-3.01c-1.12-0.49-2.14-1.36-3.12-2.33
				c0.9,1.5,2.93,4.94,3.09,5.69c0.01,0.03-0.02,0.08-0.02,0.12c-1.52,0.26-4.27,1.68-7.55,7.77c-0.53,1.31-4.29,12.34-7.1,20.62
				c-0.69,2.02-1.31,3.86-1.82,5.37c-0.8,2.35-1.32,3.88-1.32,3.88c0.36,0.75,3.58,2.3,8.1,4.16c10.35,4.26,27.53,10.14,32.88,11.63
				c6.3,1.75,15.54,0.41,18.66-0.12c0.68-0.12,1.08-0.2,1.08-0.2s2.24-2.56,0.43-10.99c-1.81-8.43,1.92-17.07,2.88-19.31
				c0.96-2.24,2.56-7.47,2.56-7.47C652.1,209.38,651.35,189.11,650.28,182.49z"/>
		</g>
		<path class="st6" d="M597.61,111.24c0,0,7.6-2.71,8.75-6.17"/>
		<path class="st6" d="M596.73,100.11c0,0-0.07,1.63-0.68,2.17s-2.04,1.83-3.94,1.42"/>
		<circle class="st12" cx="591.3" cy="87.42" r="1.22"/>
		<circle class="st12" cx="538.79" cy="61.03" r="1.36"/>
		<path class="st6" d="M563.3,56.07c0,0-0.23,3.6-2.53,3.33s-2.71-2.99-2.71-2.99"/>
		<path class="st6" d="M542.59,74.33c0.27-0.07,4.61-1.7,4.75-3.46c0,0,0.41,4.75-1.29,5.63"/>
		<g>
			<g>
				<path class="st4" d="M653.19,57.59c0-22.25,21.04-40.29,46.98-40.29s46.98,18.04,46.98,40.29s-21.04,40.29-46.98,40.29
					c-3.44,0-10.27-0.37-10.27-0.37c-29.54-2.39-34.21,5.3-34.74,9.16l-1.88-46.54C653.23,59.3,653.19,58.45,653.19,57.59z"/>
			</g>
			<g>
				<path class="st4" d="M647.83,59.99c0-22.25,21.04-40.29,46.98-40.29s46.98,18.04,46.98,40.29s-21.04,40.29-46.98,40.29
					c-3.44,0-10.27-0.37-10.27-0.37c-29.54-2.39-34.21,5.3-34.74,9.16l-1.88-46.54C647.87,61.7,647.83,60.85,647.83,59.99z"/>
				<path class="st4" d="M617.79,111.16c0,0-0.34-0.85-0.11-2.09L617.79,111.16z"/>
			</g>
			<g>
				<path class="st18" d="M654.06,57.59c0-22.25,21.04-40.29,46.98-40.29s46.98,18.04,46.98,40.29s-21.04,40.29-46.98,40.29
					c-3.44,0-10.27-0.37-10.27-0.37c-29.54-2.39-34.21,5.3-34.74,9.16l-1.88-46.54C654.1,59.3,654.06,58.45,654.06,57.59z"/>
			</g>
		</g>
		<g>
			<g>
				<path class="st4" d="M171.19,74.69c0-22.25-21.04-40.29-46.98-40.29S77.23,52.45,77.23,74.69s21.04,40.29,46.98,40.29
					c3.44,0,10.27-0.37,10.27-0.37c29.54-2.39,34.21,5.3,34.74,9.16l1.88-46.54C171.15,76.4,171.19,75.55,171.19,74.69z"/>
			</g>
			<g>
				<path class="st4" d="M176.55,77.09c0-22.25-21.04-40.29-46.98-40.29S82.59,54.84,82.59,77.09s21.04,40.29,46.98,40.29
					c3.44,0,10.27-0.37,10.27-0.37c29.54-2.39,34.21,5.3,34.74,9.16l1.88-46.54C176.51,78.8,176.55,77.95,176.55,77.09z"/>
				<path class="st4" d="M206.6,128.26c0,0,0.34-0.85,0.11-2.09L206.6,128.26z"/>
			</g>
			<g>
				<path class="st6" d="M170.32,74.69c0-22.25-21.04-40.29-46.98-40.29S76.36,52.45,76.36,74.69s21.04,40.29,46.98,40.29
					c3.44,0,10.27-0.37,10.27-0.37c29.54-2.39,34.21,5.3,34.74,9.16l1.88-46.54C170.28,76.4,170.32,75.55,170.32,74.69z"/>
			</g>
		</g>
		<g>
			<g>
				<path class="st4" d="M581.88,26.85c0-10.51,9.94-19.04,22.2-19.04c12.26,0,22.2,8.52,22.2,19.04s-9.94,19.04-22.2,19.04
					c-1.62,0-4.85-0.17-4.85-0.17c-13.96-1.13-16.16,2.51-16.41,4.33l-0.89-21.99C581.9,27.66,581.88,27.26,581.88,26.85z"/>
			</g>
			<g>
				<path class="st4" d="M579.35,27.99c0-10.51,9.94-19.04,22.2-19.04c12.26,0,22.2,8.52,22.2,19.04s-9.94,19.04-22.2,19.04
					c-1.62,0-4.85-0.17-4.85-0.17c-13.96-1.13-16.16,2.51-16.41,4.33l-0.89-21.99C579.37,28.79,579.35,28.39,579.35,27.99z"/>
				<path class="st4" d="M565.15,52.16c0,0-0.16-0.4-0.05-0.99L565.15,52.16z"/>
			</g>
			<g>
				<path class="st6" d="M582.29,26.85c0-10.51,9.94-19.04,22.2-19.04c12.26,0,22.2,8.52,22.2,19.04s-9.94,19.04-22.2,19.04
					c-1.62,0-4.85-0.17-4.85-0.17c-13.96-1.13-16.16,2.51-16.41,4.33l-0.89-21.99C582.31,27.66,582.29,27.26,582.29,26.85z"/>
			</g>
		</g>
		<polyline class="st6" points="548.2,97.82 554.47,106.82 554.88,101.42 		"/>
		<path class="st6" d="M564.33,94.67c0,0,7.96-4.18,13.5-1.48l3.37-5.53"/>
		<path class="st6" d="M568.73,162.79c0,0,7.74,8.68,8.01,10.98"/>
		<path class="st6" d="M565.6,164.29c0,0,7.37,8.13,7.37,9.88"/>
	</g>
</g>
</svg>
