<svg xmlns="http://www.w3.org/2000/svg" xmlns:xlink="http://www.w3.org/1999/xlink" viewBox="0 0 9000 4965"><style>.st6{fill:#fff}.st9{fill:#4890ba}.st10{fill:#e0635d}.st12{fill:#61a575}.st19{fill:none}.st27{fill:#dceffa}.st28{fill:#d16f47}.st38{fill:#f4f4f5}.st39{fill:#54575c}.st40,.st41,.st42,.st43{fill:none;stroke:#54575c;stroke-width:7.1217}.st41,.st42,.st43{stroke-width:7}.st42,.st43{stroke-width:7.4608}.st43{stroke-width:5.2169}.st44{fill:#f8b369}.st47{fill:none;stroke:#54575c;stroke-width:5.408}</style><g id="Layer_2"><path class="st38" d="M-350.5-193.57h9839.61v5352.19H-350.5z"/><path class="st39" d="M4999.86 4659.11h861.85l-296.31-212.12-563.68 148.23z"/><path class="st12" d="M6394.8 4041.73c-24.61 62.58-38.08 130.45-38.08 201.35 0 135.48 49.19 259.88 131.29 357.51h1662.31c17.06-53.14 26.24-109.62 26.24-168.16 0-71.64-13.76-140.17-38.86-203.29 31.75-69.79 49.38-146.91 49.38-228 0-313.72-263.74-568.04-589.08-568.04-90.81 0-176.81 19.82-253.63 55.21-54.38-259.53-292.22-454.94-577.4-454.94-325.34 0-589.08 254.32-589.08 568.04 0 177.6 84.54 336.16 216.91 440.32z"/><path class="st40" d="M6427.87 4050.27c-24.61 62.58-38.08 130.45-38.08 201.35 0 135.48 49.19 259.88 131.29 357.51h1662.31c17.06-53.14 26.24-109.62 26.24-168.16 0-71.64-13.76-140.17-38.86-203.29 31.75-69.79 49.38-146.91 49.38-228 0-313.72-263.74-568.04-589.08-568.04-90.81 0-176.81 19.82-253.63 55.21-54.38-259.53-292.22-454.94-577.4-454.94-325.34 0-589.08 254.32-589.08 568.04 0 177.6 84.54 336.16 216.91 440.32z"/><path class="st12" d="M1038.81 4109.13c-21.75 55.32-33.66 115.3-33.66 177.97 0 119.75 43.48 229.7 116.04 315.99h1469.27c15.07-46.97 23.2-96.89 23.2-148.63 0-63.32-12.16-123.89-34.34-179.69 28.06-61.68 43.64-129.85 43.64-201.52 0-277.29-233.11-502.08-520.67-502.08-80.26 0-156.28 17.52-224.17 48.8-48.06-229.39-258.28-402.11-510.34-402.11-287.56 0-520.67 224.79-520.67 502.08-.02 156.98 74.7 297.13 191.7 389.19z"/><path class="st40" d="M986.35 4111.72c-21.75 55.32-33.66 115.3-33.66 177.97 0 119.75 43.48 229.7 116.04 315.99H2538c15.07-46.97 23.2-96.89 23.2-148.63 0-63.32-12.16-123.89-34.34-179.69 28.06-61.68 43.64-129.85 43.64-201.52 0-277.29-233.11-502.08-520.67-502.08-80.26 0-156.28 17.52-224.17 48.8-48.06-229.39-258.28-402.11-510.34-402.11-287.56 0-520.67 224.79-520.67 502.08-.02 156.98 74.7 297.13 191.7 389.19z"/><path class="st10" d="M6667.28 2290.22l-104.92-276.28H2119.32l-126.47 288.13h4678.92z"/><path class="st6" d="M6512.68 1011.3l-4275.53-24.14-117.83 1026.78h4443.04zM3865.57 2451.68c-14.23 44.33-55.8 76.42-104.86 76.42h-116.35c-54.14 0-99.15-39.07-108.38-90.55-9.24 51.48-54.25 90.55-108.38 90.55h-116.35c-54.14 0-99.15-39.07-108.38-90.55-9.24 51.48-54.25 90.55-108.38 90.55h-116.35c-54.14 0-99.15-39.07-108.38-90.55-9.24 51.48-54.25 90.55-108.38 90.55h-116.35c-54.14 0-99.15-39.07-108.38-90.55-9.24 51.48-54.25 90.55-108.38 90.55h-116.35c-8.78 0-17.32-1.04-25.51-2.98V4633.6h1636.72V2517.13c-27.08-13.02-48.05-36.62-57.56-65.45zM4867.14 2460.87V4633.6h121.36V2528.11h-18.98c-45.86 0-85.24-27.68-102.38-67.24z"/><path class="st38" d="M4862.82 2449.18c-9.53 34.36-35.31 61.94-68.53 74.01v1497.23h-808.76V2528.11h-14.23c-17.28 0-33.63-3.95-48.23-10.98V4633.6h944.06V2460.87c-1.63-3.79-3.09-7.69-4.31-11.69z"/><path class="st27" d="M4640.35 2529.79c-51.9 0-95.41-35.91-107.05-84.24-12.69 47.54-56.04 82.56-107.58 82.56h-121.44c-49.39 0-91.26-32.16-105.83-76.68-14.56 44.52-56.43 76.68-105.81 76.68h-107.1v1492.31h808.76V2523.19c-11.73 4.26-24.38 6.6-37.58 6.6h-116.37z"/><path class="st38" d="M5898.89 2505.2v1515.22l-274.15-116.2V2527.31c-11.62-1.4-22.67-4.61-32.88-9.34v1901.35l258.5 214.28h81.42V2522.62a109.397 109.397 0 01-32.89-17.42z"/><path class="st27" d="M5860.25 2448.41c-13.2 46.02-55.6 79.7-105.86 79.7h-116.35c-4.5 0-8.94-.28-13.31-.8v1376.91l274.15 116.2V2505.2c-18.33-14.15-32.08-33.95-38.63-56.79z"/><path class="st6" d="M6408.86 2529.79h-116.35c-49.56 0-91.47-32.74-105.29-77.78-14.33 44.16-55.81 76.1-104.75 76.1h-116.35c-12 0-23.54-1.94-34.34-5.48V4633.6h572.09V2475.39c-19.15 32.55-54.52 54.4-95.01 54.4z"/><path class="st10" d="M1988.67 2303.02v115.3c0 60.82 49.3 110.12 110.12 110.12l29.86-.33c38.21 0 71.86-19.46 91.61-49.01 15.21 22.75 38.67 39.51 66.1 46.02 8.19 1.94 16.73 2.98 25.51 2.98h116.35c54.14 0 99.15-39.07 108.38-90.55 9.24 51.48 54.25 90.55 108.38 90.55h116.35c54.14 0 99.15-39.07 108.38-90.55 9.24 51.48 54.25 90.55 108.38 90.55h116.35c54.14 0 99.15-39.07 108.38-90.55 9.24 51.48 54.25 90.55 108.38 90.55h116.35c54.14 0 99.15-39.07 108.38-90.55 9.24 51.48 54.25 90.55 108.38 90.55h116.35c49.06 0 90.63-32.09 104.86-76.42 9.51 28.83 30.48 52.43 57.51 65.45 14.59 7.03 30.94 10.98 48.23 10.98h121.33c49.38 0 91.25-32.16 105.81-76.68 14.57 44.52 56.45 76.68 105.83 76.68h121.44c51.54 0 94.89-35.02 107.58-82.56 11.64 48.33 55.15 84.24 107.05 84.24h116.35c13.2 0 25.85-2.34 37.58-6.6 33.22-12.07 59-39.65 68.53-74.01 1.22 4 2.67 7.9 4.32 11.69 17.14 39.56 56.52 67.23 102.37 67.23h122.25c43.46 0 81.1-24.85 99.52-61.12 20.18 33.84 57.14 56.52 99.41 56.52h139.99c46.13 0 85.95-27.01 104.52-66.08 10.29 26.8 30.75 48.55 56.65 60.54 10.21 4.73 21.27 7.94 32.88 9.34 4.36.53 8.8.8 13.31.8h116.35c50.27 0 92.66-33.68 105.86-79.7 6.55 22.84 20.3 42.64 38.63 56.79a109.834 109.834 0 0067.22 22.91h116.35c48.94 0 90.42-31.93 104.75-76.1 13.82 45.03 55.73 77.78 105.29 77.78h116.35c40.49 0 75.86-21.85 94.99-54.4 1.23-2.1 2.4-4.23 3.49-6.41 17.76 36.97 57.57 57.24 57.57 57.24 60.82 0 110.12-49.3 110.12-110.12V2300.8l-4686.28 2.22z"/><path class="st41" d="M6629.19 2313.55l-104.91-276.28H2081.24l-126.48 288.12h4678.93zM6474.6 1034.63l-4275.53-24.14-117.83 1026.78h4443.04zM2248.28 2037.27l-92.59 284.15M2564.81 2036.94l-77.58 284.78M2881.34 2036.6l-62.56 285.43M3197.87 2036.27l-47.55 286.07M3514.4 2035.94l-32.53 286.7M3830.93 2035.61l-17.52 287.34M4147.45 2035.27l-2.49 287.98M4463.98 2034.94l12.52 288.62M4780.51 2034.61l27.54 289.25M5097.04 2034.27l42.55 289.9M5413.57 2033.94l57.57 290.54M5730.1 2033.61l72.58 291.17M6046.63 2033.28l87.6 291.81M6363.16 2032.94l102.61 292.45"/><g><path class="st42" d="M3827.49 2475.01c-14.23 44.33-55.8 76.42-104.86 76.42h-116.35c-54.14 0-99.15-39.07-108.38-90.55-9.24 51.48-54.25 90.55-108.38 90.55h-116.35c-54.14 0-99.15-39.07-108.38-90.55-9.24 51.48-54.25 90.55-108.38 90.55h-116.35c-54.14 0-99.15-39.07-108.38-90.55-9.24 51.48-54.25 90.55-108.38 90.55h-116.35c-54.14 0-99.15-39.07-108.38-90.55-9.24 51.48-54.25 90.55-108.38 90.55h-116.35c-8.78 0-17.32-1.04-25.51-2.98v2108.48h1636.72V2540.46c-27.09-13.02-48.06-36.62-57.56-65.45zM4829.06 2484.2v2172.73h121.36V2551.44h-18.98c-45.86 0-85.24-27.68-102.38-67.24z"/><path class="st42" d="M4824.74 2472.51c-9.53 34.36-35.31 61.94-68.53 74.01v1497.23h-808.76V2551.44h-14.23c-17.28 0-33.63-3.95-48.23-10.98v2116.47h944.06V2484.2c-1.64-3.79-3.09-7.69-4.31-11.69z"/><path class="st42" d="M4602.27 2553.12c-51.9 0-95.41-35.91-107.05-84.24-12.69 47.54-56.04 82.56-107.58 82.56H4266.2c-49.39 0-91.26-32.16-105.83-76.68-14.56 44.52-56.43 76.68-105.81 76.68h-107.1v1492.31h808.76V2546.51c-11.73 4.26-24.38 6.6-37.58 6.6h-116.37z"/><path class="st43" d="M5860.8 2528.53v1515.22l-274.15-116.2V2550.63c-11.62-1.4-22.67-4.61-32.88-9.34v1901.35l258.5 214.28h81.42V2545.95c-12.01-3.94-23.1-9.87-32.89-17.42z"/><path class="st43" d="M5822.17 2471.73c-13.2 46.02-55.6 79.7-105.86 79.7h-116.35c-4.5 0-8.94-.28-13.3-.8v1376.91l274.15 116.2V2528.53c-18.34-14.16-32.09-33.95-38.64-56.8z"/><path class="st42" d="M6370.78 2553.12h-116.35c-49.56 0-91.47-32.74-105.29-77.78-14.33 44.16-55.81 76.1-104.75 76.1h-116.35c-12 0-23.53-1.94-34.34-5.48v2110.98h572.09V2498.71c-19.15 32.55-54.52 54.41-95.01 54.41z"/><path class="st42" d="M1950.59 2326.35v115.3c0 60.82 49.3 110.12 110.12 110.12l29.86-.33c38.21 0 71.86-19.46 91.61-49.01 15.21 22.75 38.67 39.51 66.1 46.02 8.19 1.94 16.73 2.98 25.51 2.98h116.35c54.14 0 99.15-39.07 108.38-90.55 9.24 51.48 54.25 90.55 108.38 90.55h116.35c54.14 0 99.15-39.07 108.38-90.55 9.24 51.48 54.25 90.55 108.38 90.55h116.35c54.14 0 99.15-39.07 108.38-90.55 9.24 51.48 54.25 90.55 108.38 90.55h116.35c54.14 0 99.15-39.07 108.38-90.55 9.24 51.48 54.25 90.55 108.38 90.55h116.35c49.06 0 90.63-32.09 104.86-76.42 9.51 28.83 30.48 52.43 57.51 65.45 14.59 7.03 30.94 10.98 48.23 10.98h121.33c49.38 0 91.25-32.16 105.81-76.68 14.57 44.52 56.45 76.68 105.83 76.68h121.44c51.54 0 94.89-35.02 107.58-82.56 11.64 48.33 55.15 84.24 107.05 84.24h116.35c13.2 0 25.85-2.34 37.58-6.6 33.22-12.07 59-39.65 68.53-74.01 1.22 4 2.67 7.9 4.32 11.69 17.14 39.56 56.52 67.23 102.37 67.23h122.25c43.46 0 81.1-24.85 99.52-61.12 20.18 33.84 57.14 56.52 99.41 56.52h139.99c46.13 0 85.95-27.01 104.52-66.08 10.28 26.8 30.75 48.55 56.65 60.54 10.21 4.73 21.27 7.94 32.88 9.34 4.36.53 8.8.8 13.3.8h116.35c50.27 0 92.66-33.68 105.86-79.7 6.55 22.84 20.3 42.64 38.63 56.79a109.834 109.834 0 0067.22 22.91h116.35c48.94 0 90.42-31.93 104.75-76.1 13.82 45.03 55.73 77.78 105.29 77.78h116.35c40.49 0 75.86-21.85 94.99-54.4 1.23-2.1 2.4-4.23 3.49-6.41 17.76 36.97 57.57 57.24 57.57 57.24 60.82 0 110.12-49.3 110.12-110.12v-115.29l-4686.27 2.22z"/></g><path class="st41" d="M4397.09 2598.31l313.68 288.46M4595.9 2597l138.83 122.5M2241.21 4652.95H289.7M8735.69 4652.95h-1951.5"/><g><path class="st6" d="M5760.85 1220.84l1139.98-.08c56.38 0 102.09 45.7 102.1 102.08l-.13 206.42.02 218.05.01 102.62c0 15.25-19.65 21.41-28.35 8.88l-77.41-111.49-1136.31.08c-56.38 0-102.09-45.7-102.1-102.08l.12-322.39c-.01-56.38 45.69-102.09 102.07-102.09z"/><path class="st12" d="M5730.41 1243.07l1139.98-.08c56.38 0 102.09 45.7 102.1 102.08l-.13 206.42.02 218.05.01 102.62c0 15.25-19.65 21.41-28.35 8.88l-77.41-111.49-1136.31.08c-56.38 0-102.09-45.7-102.1-102.08l.12-322.39c-.02-56.38 45.69-102.09 102.07-102.09z"/><path class="st41" d="M5760.85 1220.84l1139.98-.08c56.38 0 102.09 45.7 102.1 102.08l-.13 206.42.02 218.05.01 102.62c0 15.25-19.65 21.41-28.35 8.88l-77.41-111.49-1136.31.08c-56.38 0-102.09-45.7-102.1-102.08l.12-322.39c-.01-56.38 45.69-102.09 102.07-102.09zM6878.68 1375.02H5868.45M6601.36 1513.68h-732.91"/></g><g><path class="st6" d="M6906.65 1990.49l-1139.92-11.63c-56.38-.58-102.55 44.66-103.13 101.04l-4.77 467.88-2.22 218.04-1.05 102.61c-.16 15.25 19.44 21.6 28.26 9.17l78.54-110.7 1136.25 11.59c56.38.58 102.55-44.66 103.13-101.04l5.96-583.84c.57-56.38-44.67-102.55-101.05-103.12z"/><path class="st9" d="M6936.87 2013.03l-1139.92-11.63c-56.38-.58-102.55 44.66-103.13 101.04l-4.77 467.88-2.22 218.04-1.05 102.61c-.16 15.25 19.44 21.6 28.26 9.17l78.54-110.7 1136.25 11.59c56.38.58 102.55-44.66 103.13-101.04l5.96-583.84c.57-56.38-44.67-102.55-101.05-103.12z"/><path class="st41" d="M6906.65 1990.49l-1139.92-11.63c-56.38-.58-102.55 44.66-103.13 101.04l-4.77 467.88-2.22 218.04-1.05 102.61c-.16 15.25 19.44 21.6 28.26 9.17l78.54-110.7 1136.25 11.59c56.38.58 102.55-44.66 103.13-101.04l5.96-583.84c.57-56.38-44.67-102.55-101.05-103.12zM6881.98 2424.91H5871.74M6616.54 2563.57h-732.91M6881.98 2147.59H5871.74M6881.98 2286.25h-998.35"/></g><g><path class="st6" d="M5276.91 3176.7l-6.11.31-57.73 2.98 15.55 54.3 8.8 13.49s13.66-24.59 28.87-29.83c3.07-1.06 6.21-1.33 9.31-.45 12.06 3.45-2.37 25.49-13.98 41.79-6.13 8.61-11.47 15.62-11.69 17.44-.34 2.68 4.46 1.6 9.93-2.1 5.27-3.56 11.18-9.56 13.76-16.99 2.98-8.57 12.7-16.29 20.58-21.38-6.06-22.36-17.29-59.56-17.29-59.56zM5445.77 3315.79c-.37-.86-.8-1.67-1.27-2.44-1.61-1.51-3.49-2.96-5.68-4.36l-27.64-9.21s-13.82-41.47-22.38-45.41c-8.56-3.95-2.63-21.06-18.43-22.38-4.15-.35-10.29-1.24-17.2-2.3-14.48-2.23-32.35-5.23-42.3-5.61-1.25-.05-2.37-.05-3.34-.01-1.68.07-2.93.29-3.63.68-4.4 2.44-4.44 6.34-4.17 8.18.09.64.22 1.03.22 1.03s3.38 2.41 6.04 5.05c.66.65 1.27 1.31 1.78 1.96.84 1.06 1.39 2.06 1.39 2.87 0 3.29 12.51 0 11.85 7.9-.66 7.9 15.14 3.29 13.82 18.43-1.32 15.14-10.53 32.25-10.53 32.25s9.09 11.78 20.76 20.89c4.65 3.63 9.72 6.85 14.78 8.72 17.77 6.58 68.45 40.15 68.45 40.15s2.75-2.36 6.39-6.26c8.7-16.45 16.74-37.15 11.09-50.13z"/><path class="st6" d="M5321 3251.73c.66-7.9-11.85-4.61-11.85-7.9 0-.81-.56-1.81-1.39-2.87-.51-.64-1.12-1.31-1.78-1.96-2.67-2.63-6.04-5.05-6.04-5.05s-.13-.39-.22-1.03c-1.63.93-3.51 2.05-5.52 3.35-7.88 5.09-17.6 12.81-20.58 21.38-2.58 7.43-8.49 13.42-13.76 16.99-5.48 3.7-10.27 4.78-9.93 2.1.23-1.82 5.57-8.83 11.69-17.44 11.6-16.3 26.03-38.35 13.98-41.79-3.1-.89-6.23-.61-9.31.45-15.2 5.24-28.87 29.83-28.87 29.83l-8.8-13.49-1.07-1.65s-19.09 32.91-19.75 48.05-9.87 60.55-9.87 60.55-11.19 44.76 8.56 49.36c11.53 2.69 27.99-.23 39.7-4.04 8.34-2.72 14.27-5.89 14.27-7.8 0-4.61-.66-33.57 1.32-34.23.98-.33 16.44-10.74 31.73-21.13 1.37-.93 2.73-1.86 4.09-2.78 13.98-9.5 26.7-18.22 26.7-18.22s9.21-17.11 10.53-32.25c1.31-15.14-14.48-10.53-13.83-18.43zM5415.19 4593.69c-6.39-1.37-9.17-10.83-9.9-23.94-4.44 4.45-8.41 8.57-10.31 10.95-5.77 7.22 8.66 66.4 14.43 66.4s44.75 8.66 60.63-2.89c15.88-11.55 0-60.63 0-60.63s-34.64 14.44-54.85 10.11z"/><path class="st6" d="M5549.55 3978.26l-110.65 2.98c.65 49.94 1.36 131.79-.6 156.32-2.89 36.09-21.65 314.67-24.54 340.66-1.97 17.76-10.02 63.19-8.45 91.53.72 13.11 3.5 22.58 9.9 23.94 20.21 4.33 54.85-10.1 54.85-10.1s1.44-153.01 5.77-161.67c4.33-8.66 60.89-217.86 60.63-290.14-.15-38.19 1.77-105.22 13.09-153.52zM5314.15 4592.24c-6.48-5.67-4.32-24.99-.67-49.26-10.32 20.68-23.3 50.48-22.42 68.03 1.44 28.87 51.96 37.53 69.29 41.86s18.77-17.32 21.65-31.76c1.97-9.84-3.44-30.4-8.45-43.41-10.6 5.18-49.45 23.25-59.4 14.54z"/><path class="st6" d="M5399.32 4146.21c0-6.17 6.59-106.79 10.38-164.19l-134.47 3.62 2.84 7.57s27.43 111.15 18.77 154.45c-8.66 43.3 27.43 285.81 24.54 333.44-1.27 20.9-5.03 42.91-7.89 61.88-3.65 24.28-5.81 43.59.67 49.26 9.95 8.7 48.8-9.36 59.39-14.54 1.71-.83 2.68-1.33 2.68-1.33s-1.44-108.26-1.44-122.69c-.01-14.44 24.53-298.8 24.53-307.47zM5325.51 3041.73c1.33-3.71 2.49-7.27 3.4-10.48 4.57-16.24 15.78-18.78 20.68-19.09-11.13-17.39-20.09-36.77-23.97-48.04-7.24-21.06-1.32-77.67-1.32-77.67s26.99-23.04 32.25-33.57c5.27-10.53 56.6-11.85 55.29-1.97-1.32 9.87 20.4 25.67 29.62 30.93 9.21 5.27 50.68 53.31 53.97 61.87 3.29 8.56-15.8 10.53-15.8 10.53l-1.32 41.47s-2.25 3.2-6.04 8.2l1.44-.3 2.99 11.17 1.62-5.24s17.77 4.61 34.88 17.77c17.11 13.16 26.99 15.8 26.99 15.8l-1.06 5.03s16.38.72 34.66 6.22c.79-2.17 1.59-3.69 2.41-4.42 8.72-7.75 18.4-24.21 2.9-37.77-15.49-13.56-32.92-56.17-27.11-78.44 5.81-22.27-10.65-58.1-27.11-68.75-16.46-10.65 20.34-.97-7.75-22.27-28.08-21.3-31.96-12.59-35.83-12.59-3.87 0-6.78-29.05-17.43-29.05-10.65 0-15.49-21.3-32.92-16.46s-33.89-3.87-37.77 3.87c0 0-13.56-8.72-23.24 8.72-9.68 17.43-7.75 0-31.96 19.37s-34.86 35.83-57.13 61.01c-22.27 25.18-5.81 65.85-17.43 76.5-11.62 10.65 6.78 35.83-1.94 43.58s-21.3 33.89-15.49 43.58l5.81 9.68.17.46c29.03-11.64 67.7-9.98 73.54-9.65zM5394.94 3073.4l.17.04c-.18-.19-.36-.38-.54-.56l.37.52z"/><path class="st6" d="M5370.1 3038.02c3.8 3.57 7.65 6.45 11.46 8.36 23.69 11.85 32.91 19.09 54.63-1.32 14.52-13.64 28.44-31.09 36.08-41.17 3.79-5 6.04-8.2 6.04-8.2l1.32-41.47s19.09-1.97 15.8-10.53c-3.29-8.56-44.76-56.6-53.97-61.87-9.21-5.27-30.93-21.06-29.62-30.93 1.32-9.87-50.02-8.56-55.29 1.97-5.27 10.53-32.25 33.57-32.25 33.57s-5.92 56.6 1.32 77.67c3.87 11.27 12.84 30.65 23.97 48.04 3.93 6.14 8.13 12.03 12.46 17.23 2.64 3.18 5.33 6.09 8.05 8.65z"/><path class="st6" d="M5394.94 3073.4l-.37-.52-24.47-34.85c-2.72-2.56-5.41-5.47-8.06-8.64-4.34-5.2-8.54-11.09-12.46-17.23-4.9.31-16.11 2.86-20.68 19.09-.9 3.22-2.07 6.77-3.4 10.48-.67 1.88-1.38 3.79-2.12 5.72-7.37 19.31-17.52 40.39-17.52 40.39l17.43-17.13 20.75-20.39 24.7 11.4 24.25 11.19 1.95.49z"/><path class="st6" d="M5445.07 3128.34c.74-9.85 1.65-20.45 3.62-28.65.77-3.2 2.66-7.03 5.21-11.12l.23-.73 22.56-73.07-2.99-11.17-1.44.3c-7.64 10.08-21.56 27.53-36.08 41.17-21.72 20.4-30.93 13.16-54.63 1.32-3.81-1.91-7.66-4.79-11.46-8.36l24.47 34.85c.18.19.36.37.54.56 13.73 14.57 21.81 34.81 27.05 54.15l22.92.75z"/><path class="st6" d="M5453.91 3088.57l-5.87 19.02.33-.33 10.26-10.26 6.49-6.49 13.86-13.86s15.42 15.99 21.72 19.75c5.99 3.57 26.33 9.21 26.33 9.21l12.1-57.5 1.06-5.03s-9.87-2.63-26.99-15.8c-17.11-13.16-34.88-17.77-34.88-17.77l-1.62 5.24-22.56 73.07-.23.75zM5395.38 3074.02l-.44-.62-1.95-.48zM5368.74 3061.73c-.05.49-.11 1.07-.17 1.7.06-.63.12-1.21.17-1.7zM5527.19 3429.21zM5528.29 3429.48l-1.1-.27 1.1.27zM5536.29 3431.36zM5545.6 3433.41c-2.67-.56-5.34-1.15-8.03-1.75 2.69.6 5.37 1.18 8.03 1.75zM5546.59 3433.61l-.99-.21c.33.08.66.14.99.21zM5537.58 3431.65c-.43-.1-.86-.19-1.29-.29.43.1.86.19 1.29.29z"/><path class="st6" d="M5312.94 3124.01l109.22 3.58c-5.27-18.91-13.73-40.03-27.05-54.15l-.17-.04.44.63-2.39-1.1-24.25-11.19c-.05.49-.11 1.07-.17 1.7.06-.63.12-1.21.17-1.7l-24.7-11.4-20.75 20.39-17.43 17.13s10.15-21.08 17.52-40.39c.74-1.93 1.45-3.85 2.12-5.72-5.84-.33-44.51-1.98-73.56 9.62-12.68 5.07-23.53 12.66-29.01 23.99-19.09 39.49-56.6 310.66-49.36 329.09 6.38 16.24 34.72 62.6 62.08 53.16 3.7-1.28 7.38-3.56 10.98-7.08 17.1-16.73 30.42-48.98 38.77-73.9 6.44-19.2 9.93-34.04 9.93-34.04l2.26-21.93c-1.35.92-2.72 1.85-4.09 2.78-15.3 10.39-30.75 20.8-31.73 21.13-1.97.66-1.32 29.62-1.32 34.23 0 1.92-5.93 5.09-14.27 7.8-11.71 3.81-28.17 6.73-39.7 4.04-19.75-4.61-8.56-49.36-8.56-49.36s9.21-45.41 9.87-60.55 19.75-48.05 19.75-48.05l1.07 1.65-15.55-54.3 57.74-2.98 6.11-.31s11.23 37.2 17.29 59.58c2.01-1.3 3.9-2.42 5.52-3.35-.27-1.84-.23-5.74 4.17-8.18.7-.39 1.95-.6 3.63-.68.98-.04 2.1-.04 3.34.01.32.01.69.03 1.08.06-.42-6.96-.75-10.9-.75-10.9l1.75-89.27z"/><path class="st6" d="M5515.88 3316.45c-1.02-7.14 10.5-185.44 10.5-185.44l-81.3-2.67-22.91-.75-109.22-3.58-1.75 89.22s.34 3.94.75 10.9c11.78.78 54.41 7.51 58.42 7.85 15.8 1.32 9.87 18.43 18.43 22.38 8.56 3.95 22.38 45.41 22.38 45.41l20.65 6.88s44.74 7.47 84.86 15.07c-.29-1.74-.56-3.5-.81-5.27zM5553.9 3435.08z"/><path class="st6" d="M5622.41 3098.82c-3.88-25.4-27.52-38.13-48.63-44.48-18.28-5.5-34.66-6.22-34.66-6.22l-12.1 57.5s-20.34-5.65-26.33-9.21c-6.3-3.76-21.72-19.74-21.72-19.74l-13.86 13.86-6.49 6.49-10.26 10.26-.33.33 5.87-19.02c-2.55 4.09-4.44 7.92-5.21 11.12-1.9 7.92-2.89 19.03-3.62 28.65l81.3 2.67s-11.52 178.3-10.5 185.44c.25 1.77.52 3.52.81 5.28-40.11-7.6-84.86-15.07-84.86-15.07l6.99 2.33c2.19 1.39 4.07 2.85 5.68 4.36.47.77.89 1.58 1.27 2.44 5.66 12.98-2.39 33.68-11.09 50.13-7.56 14.28-15.61 25.35-15.61 25.35 3.13 3.76 22.59 12.07 48.9 20.87a758.094 758.094 0 0050.92 15.01c2.76.71 5.53 1.4 8.3 2.07l1.1.27c2.67.64 5.33 1.27 8 1.88.43.1.86.2 1.29.29 2.68.61 5.36 1.19 8.03 1.75l.99.21c2.45.51 4.89 1 7.32 1.47.34.07.68.13 1.02.19 15.04 2.89 29.53 4.96 42.32 5.68 1.13.06 2.24.12 3.34.16 16.6.65 30.04-1.1 37.67-6.42 21.97-15.33-8.61-288.51-15.85-335.9z"/><path class="st6" d="M5554.93 3435.29s0-.01-.01-.01c-.34-.07-.68-.13-1.02-.19.35.06.69.14 1.03.2zM5262.19 3985.99l13.04-.35 134.47-3.62 29.2-.79 110.65-2.98 34.53-.93 6.18-46.11-337.65 9.29c5.28 27.19 9.58 45.49 9.58 45.49z"/><path class="st6" d="M5554.93 3435.29c-11.85-2.28-24.04-5.07-36.04-8.15-18.04-4.63-35.63-9.9-50.92-15.01-26.3-8.79-45.77-17.11-48.9-20.87 0 0 8.05-11.07 15.61-25.35-3.64 3.9-6.39 6.26-6.39 6.26s-50.68-33.57-68.45-40.15c-5.06-1.88-10.13-5.09-14.78-8.72-11.67-9.12-20.76-20.89-20.76-20.89s-4.56 3.12-11.22 7.67c0 .06 0 .12-.01.18-5.05 3.38-11.53 7.68-15.48 10.37l-2.26 21.93s-1.45 15.65-9.93 34.04c-10.4 22.55-12.77 40.29-27 60.33-2.3 3.24-14.66 63.34-15.02 65.26 0 0-.08.4-.12.62-6.38 34.11-54.91 305.54-9.05 438.2l18.39-.51 337.65-9.29 25.35-.7c0 .01 38.1-127.14-60.67-495.22zm-308.29 63.04M5312.94 3124.01c-.51-4.65 31.1-73.68 31.1-73.68l13.61 7.89-20.94 65.33-23.77.46zM5526.38 3131.01c-4.56-2.44.64-25.39.64-25.39l-26.33-9.21-4.84 33.01 30.53 1.59z"/><path class="st6" d="M5258.4 3436.94s235.36 51.33 301.24 13.03l-4.71-14.68s-218.21 4.72-281.02-23.62l-15.51 25.27z"/><g><path class="st6" d="M5344.71 3177.59l-4.21 50.12c4.32.67 8.62 1.35 12.66 1.97 6.91 1.06 13.06 1.96 17.2 2.3 15.8 1.32 9.87 18.43 18.43 22.38 8.56 3.95 22.38 45.41 22.38 45.41l11.02 3.67 39.83 3.06c16.04 1.23 29.86-11.18 30.35-27.27l2.77-91.87c-.01.02-135.89-9.03-150.43-9.77z"/></g><g><path class="st44" d="M5428.44 3323.94c-.37-.86-.8-1.67-1.27-2.44-1.61-1.51-3.49-2.96-5.68-4.36l-27.64-9.21s-13.82-41.47-22.38-45.41c-8.56-3.95-2.63-21.06-18.43-22.38-4.15-.35-10.29-1.24-17.2-2.3-14.48-2.23-32.35-5.23-42.3-5.61-1.25-.05-2.37-.05-3.34-.01-1.68.07-2.93.29-3.63.68-4.4 2.44-4.44 6.34-4.17 8.18.09.64.22 1.03.22 1.03s14.66-10.79 17.33-8.16c.66.65 8.71 9.23 9.21 9.87.84 1.06-1.21 7.84-1.21 8.65 0 3.29-3.61-.49-4.27 7.41-.66 7.9 15.14 3.29 13.82 18.43s-10.53 32.25-10.53 32.25 9.09 11.78 20.76 20.89c4.65 3.63 9.72 6.85 14.78 8.72 17.77 6.58 68.45 40.15 68.45 40.15s2.75-2.36 6.39-6.26c8.7-16.43 16.74-37.14 11.09-50.12zM5562.38 3976.37l-110.65 2.98c.65 49.94 1.36 131.79-.6 156.32-2.89 36.09-21.65 314.67-24.54 340.66-1.97 17.76-10.02 63.19-8.45 91.53.72 13.11 3.5 22.58 9.9 23.94 20.21 4.33 54.85-10.1 54.85-10.1s1.44-153.01 5.77-161.67c4.33-8.66 60.89-217.86 60.63-290.14-.15-38.19 1.78-105.21 13.09-153.52zM5415.83 4147.17c0-6.17 6.59-106.79 10.38-164.19l-134.47 3.62 2.84 7.57s27.43 111.15 18.76 154.45c-8.66 43.3 27.43 285.81 24.54 333.44-1.27 20.9-5.03 42.91-7.89 61.88-3.65 24.28-5.81 43.59.67 49.26 9.95 8.7 48.8-9.36 59.39-14.54 1.71-.83 2.68-1.34 2.68-1.34s-1.44-108.26-1.44-122.69c0-14.44 24.54-298.8 24.54-307.46z"/><path class="st9" d="M5379.37 3074.35l.17.04c-.18-.19-.36-.38-.54-.56l.37.52z"/><path class="st9" d="M5385.47 3077.67l-.37-.52-24.47-34.85c-2.72-2.56-5.41-5.47-8.06-8.64-4.34-5.2-8.54-11.09-12.46-17.23-4.9.31-16.11 2.86-20.68 19.09-.9 3.22-2.07 6.77-3.4 10.48-.67 1.88-1.38 3.79-2.12 5.72-7.37 19.31-17.52 40.39-17.52 40.39l17.43-17.13 20.75-20.39 24.7 11.4 24.25 11.19 1.95.49z"/><path class="st44" d="M5429.51 3129.3c.74-9.85 1.65-20.45 3.62-28.65.77-3.2 2.66-7.03 5.21-11.12l.23-.73 22.56-73.07-2.99-11.17-1.44.3c-7.64 10.08-21.56 27.53-36.08 41.17-21.72 20.4-30.93 13.16-54.63 1.32-3.81-1.91-7.66-4.79-11.46-8.36l24.47 34.85c.18.19.36.37.54.56 13.73 14.57 21.81 34.81 27.05 54.15l22.92.75z"/><path class="st9" d="M5457.18 3074.01l-5.87 19.02.33-.33 10.26-10.26 6.49-6.49 13.86-13.86s15.42 15.99 21.72 19.75c5.99 3.57 26.33 9.21 26.33 9.21l12.1-57.5 1.06-5.03s-9.87-2.63-26.99-15.8-34.88-17.77-34.88-17.77l-1.62 5.24-22.56 73.07-.23.75zM5379.81 3074.98l-.44-.63-1.95-.48zM5378.11 3064.9c-.05.49-.11 1.07-.17 1.7.06-.63.12-1.21.17-1.7zM5536.56 3432.38zM5537.66 3432.65l-1.1-.27 1.1.27zM5545.66 3434.53zM5554.97 3436.58c-2.67-.56-5.34-1.15-8.03-1.75 2.69.6 5.37 1.18 8.03 1.75zM5555.96 3436.78l-.99-.21c.33.08.66.14.99.21zM5546.95 3434.82c-.43-.1-.86-.19-1.29-.29.43.1.86.19 1.29.29z"/><path class="st9" d="M5322.31 3127.18l109.22 3.58c-5.27-18.91-13.73-40.03-27.05-54.15l-.17-.04.44.63-2.39-1.1-24.25-11.19c-.05.49-.11 1.07-.17 1.7.06-.63.12-1.21.17-1.7l-24.7-11.4-20.75 20.39-17.43 17.13s10.15-21.08 17.52-40.39c.74-1.93 1.45-3.85 2.12-5.72-5.84-.33-44.51-1.98-73.56 9.62-12.68 5.07-23.53 12.66-29.01 23.99-19.09 39.49-56.6 310.66-49.36 329.09 6.38 16.24 34.72 62.6 62.08 53.16 3.7-1.28 7.38-3.56 10.98-7.08 17.1-16.73 30.42-48.98 38.77-73.9 6.44-19.2 9.93-34.04 9.93-34.04l2.26-21.93c-1.35.92-2.72 1.85-4.09 2.78-15.3 10.39-30.75 20.8-31.73 21.13-1.97.66-1.32 29.62-1.32 34.23 0 1.92-5.93 5.09-14.27 7.8-11.71 3.81-28.17 6.73-39.7 4.04-19.75-4.61-8.56-49.36-8.56-49.36s9.21-45.41 9.87-60.55 19.75-48.05 19.75-48.05l1.07 1.65-15.55-54.3 57.74-2.98 6.11-.31s11.23 37.2 17.29 59.58c2.01-1.3 3.9-2.42 5.52-3.35-.27-1.84-.23-5.74 4.17-8.18.7-.39 1.95-.6 3.63-.68.98-.04 2.1-.04 3.34.01.32.01.69.03 1.08.06-.42-6.96-.75-10.9-.75-10.9l1.75-89.27z"/><path class="st6" d="M5525.25 3319.62c-1.02-7.14 10.5-185.44 10.5-185.44l-81.3-2.67-22.91-.75-109.22-3.58-1.75 89.22s.34 3.94.75 10.9c11.78.78 54.41 7.51 58.42 7.85 15.8 1.32 9.87 18.43 18.43 22.38 8.56 3.95 22.38 45.41 22.38 45.41l20.65 6.88s44.74 7.47 84.86 15.07c-.29-1.74-.56-3.5-.81-5.27z"/><path class="st9" d="M5563.28 3438.25zM5631.78 3101.99c-3.88-25.4-27.52-38.13-48.63-44.48-18.28-5.5-34.66-6.22-34.66-6.22l-12.1 57.5s-20.34-5.65-26.33-9.21c-6.3-3.76-21.72-19.75-21.72-19.75l-13.86 13.86-6.49 6.49-10.26 10.26-.33.33s-2.23 11.13-2.96 20.75l81.3 2.67s-11.52 178.3-10.5 185.44c.25 1.77.52 3.52.81 5.28-40.11-7.6-84.86-15.07-84.86-15.07l6.99 2.33c2.19 1.39 4.07 2.85 5.68 4.36.47.77.89 1.58 1.27 2.44 5.66 12.98-2.39 33.68-11.09 50.13-7.56 14.28-15.61 25.35-15.61 25.35 3.13 3.76 22.59 12.07 48.9 20.87a758.094 758.094 0 0050.92 15.01c2.76.71 5.53 1.4 8.3 2.07l1.1.27c2.67.64 5.33 1.27 8 1.88.43.1.86.2 1.29.29 2.68.61 5.36 1.19 8.03 1.75l.99.21c2.45.51 4.89 1 7.32 1.47.34.07.68.13 1.02.19 15.04 2.89 29.53 4.96 42.32 5.68 1.13.06 2.24.12 3.34.16 16.6.65 30.04-1.1 37.67-6.42 21.97-15.32-8.61-288.5-15.85-335.89z"/><path class="st9" d="M5564.3 3438.46s0-.01-.01-.01c-.34-.07-.68-.13-1.02-.19.35.06.69.14 1.03.2zM5280.7 3986.94l13.04-.35 134.47-3.62 29.2-.79 110.65-2.98 34.53-.93 6.18-46.11-337.65 9.29c5.28 27.2 9.58 45.49 9.58 45.49z"/><path class="st6" d="M5573.44 3436.24c-11.85-2.28-24.04-5.07-36.04-8.15-18.04-4.63-35.63-9.9-50.92-15.01-26.3-8.79-45.77-17.11-48.9-20.87 0 0 8.05-11.07 15.61-25.35-3.64 3.9-6.39 6.26-6.39 6.26s-50.68-33.57-68.45-40.15c-5.06-1.88-10.13-5.09-14.78-8.72-11.67-9.12-20.76-20.89-20.76-20.89s-4.56 3.12-11.22 7.67c0 .06 0 .12-.01.18-5.05 3.38-11.53 7.68-15.48 10.37l-2.26 21.93s-1.45 15.65-9.93 34.04c-10.4 22.55-12.77 40.29-27 60.33-2.3 3.24-14.66 63.34-15.02 65.26 0 0-.08.4-.12.62-6.38 34.11-54.91 305.54-9.05 438.2l18.39-.51 337.65-9.29 25.35-.7c0 .01 38.1-127.14-60.67-495.22zm-308.29 63.04M5310.47 3124.97c-.51-4.65 31.1-73.68 31.1-73.68l13.61 7.89-20.94 65.33-23.77.46zM5518.67 3133.27c-4.56-2.44.64-25.39.64-25.39l-26.33-9.21-4.84 33.01 30.53 1.59z"/><path class="st6" d="M5274.07 3437.89s235.36 51.33 301.24 13.03l-4.71-14.68s-218.21 4.72-281.02-23.62l-15.51 25.27z"/><g><path class="st10" d="M5328.81 3179.43l-4.33 51.5c4.44.69 8.86 1.39 13.01 2.03 7.1 1.09 13.42 2.01 17.68 2.36 16.23 1.35 10.14 18.94 18.94 22.99 8.79 4.06 22.99 46.66 22.99 46.66l11.32 3.77 40.92 3.15c16.48 1.27 30.68-11.49 31.18-28.01l2.84-94.4c.01.01-139.61-9.3-154.55-10.05z"/></g><path class="st44" d="M5363.4 3048.95c3.8 3.57 7.65 6.45 11.46 8.36 23.69 11.85 32.91 19.09 54.63-1.32 14.52-13.64 28.44-31.09 36.08-41.17 3.79-5 6.04-8.2 6.04-8.2l1.32-41.47s19.09-1.97 15.8-10.53c-3.29-8.56-44.76-56.6-53.97-61.87-9.21-5.27-30.93-21.06-29.62-30.93 1.32-9.87-50.02-8.56-55.29 1.97-5.27 10.53-32.25 33.57-32.25 33.57s-5.92 56.6 1.32 77.67c3.87 11.27 12.84 30.65 23.97 48.04 3.93 6.14 8.13 12.03 12.46 17.23 2.64 3.18 5.33 6.09 8.05 8.65zM5327.05 3265.43c.66-7.9-11.85-4.61-11.85-7.9 0-.81-.56-1.81-1.39-2.87-.51-.64-1.12-1.31-1.78-1.96-2.67-2.63-6.04-5.05-6.04-5.05s-.13-.39-.22-1.03c-1.63.93-3.51 2.05-5.52 3.35-7.88 5.09-17.6 12.81-20.58 21.38-2.58 7.43-8.49 13.42-13.76 16.99-5.48 3.7-19.15-1.44-18.82-4.13.23-1.82 7.4-9.08 13.52-17.69 11.6-16.3 33.09-31.88 21.03-35.32-3.1-.89-6.23-.61-9.31.45-15.2 5.24-33.05 22.39-33.05 22.39l-4.62-6.05-2.64-5s-17.52 36.26-18.18 51.4-9.87 60.55-9.87 60.55-17.23 31.06 2.51 35.67c11.53 2.69 31.9-2.97 43.61-6.78 8.34-2.72 10.36-3.15 10.36-5.06 0-4.61-1.26-36.39.72-37.05.98-.33 17.95-12.88 33.25-23.27 1.37-.93 6.96-3.51 8.31-4.43 13.98-9.5 21.61-15.51 21.61-15.51s7-2.04 8.31-17.18-6.26-8-5.6-15.9z"/><g><defs><path id="SVGID_5_" d="M5573.44 3436.24c-11.85-2.28-24.04-5.07-36.04-8.15-18.04-4.63-35.63-9.9-50.92-15.01-26.3-8.79-45.77-17.11-48.9-20.87 0 0 8.05-11.07 15.61-25.35-3.64 3.9-6.39 6.26-6.39 6.26s-50.68-33.57-68.45-40.15c-5.06-1.88-10.13-5.09-14.78-8.72-11.67-9.12-20.76-20.89-20.76-20.89s-4.56 3.12-11.22 7.67c0 .06 0 .12-.01.18-5.05 3.38-11.53 7.68-15.48 10.37l-2.26 21.93s-1.45 15.65-9.93 34.04c-10.4 22.55-12.77 40.29-27 60.33-2.3 3.24-14.66 63.34-15.02 65.26 0 0-.08.4-.12.62-6.38 34.11-54.91 305.54-9.05 438.2l18.39-.51 337.65-9.29 25.35-.7c0 .01 38.1-127.14-60.67-495.22zm-308.29 63.04"/></defs><clipPath id="SVGID_2_"><use xlink:href="#SVGID_5_" overflow="visible"/></clipPath><g clip-path="url(#SVGID_2_)"><path class="st10" d="M5343.46 3558.34c-.65-14.48-5.41-29.5-16.4-39.6-10.96-10.06-24.42-16.4-39.6-16.4-14.36 0-29.44 6.25-39.6 16.4-9.71 9.71-17.03 25.65-16.4 39.6.65 14.48 5.41 29.5 16.4 39.6 10.96 10.06 24.42 16.4 39.6 16.4 14.36 0 29.44-6.25 39.6-16.4 9.71-9.72 17.03-25.65 16.4-39.6zM5595.36 3704.02c-.65-14.48-5.41-29.5-16.4-39.6-10.96-10.06-24.42-16.4-39.6-16.4-14.36 0-29.44 6.25-39.6 16.4-9.71 9.71-17.03 25.65-16.4 39.6.65 14.48 5.41 29.5 16.4 39.6 10.96 10.06 24.42 16.4 39.6 16.4 14.36 0 29.44-6.25 39.6-16.4 9.71-9.72 17.03-25.65 16.4-39.6zM5413.27 3843.62c-.65-14.48-5.41-29.5-16.4-39.6-10.96-10.06-24.42-16.4-39.6-16.4-14.36 0-29.44 6.25-39.6 16.4-9.71 9.71-17.03 25.65-16.4 39.6.65 14.48 5.41 29.5 16.4 39.6 10.96 10.06 24.42 16.4 39.6 16.4 14.36 0 29.44-6.25 39.6-16.4 9.71-9.71 17.02-25.65 16.4-39.6zM5607.5 3925.57c-.65-14.48-5.41-29.5-16.4-39.6-10.96-10.06-24.42-16.4-39.6-16.4-14.36 0-29.44 6.25-39.6 16.4-9.71 9.71-17.03 25.65-16.4 39.6.65 14.48 5.41 29.5 16.4 39.6 10.96 10.06 24.42 16.4 39.6 16.4 14.36 0 29.44-6.25 39.6-16.4 9.71-9.72 17.03-25.65 16.4-39.6zM5252.41 3740.43c-.65-14.48-5.41-29.5-16.4-39.6-10.96-10.06-24.42-16.4-39.6-16.4-14.36 0-29.44 6.25-39.6 16.4-9.71 9.71-17.03 25.65-16.4 39.6.65 14.48 5.41 29.5 16.4 39.6 10.96 10.06 24.42 16.4 39.6 16.4 14.36 0 29.44-6.25 39.6-16.4 9.71-9.71 17.03-25.65 16.4-39.6zM5707.65 3837.55c-.65-14.48-5.41-29.5-16.4-39.6-10.96-10.06-24.42-16.4-39.6-16.4-14.36 0-29.44 6.25-39.6 16.4-9.71 9.71-17.03 25.65-16.4 39.6.65 14.48 5.41 29.5 16.4 39.6 10.96 10.06 24.42 16.4 39.6 16.4 14.36 0 29.44-6.25 39.6-16.4 9.71-9.71 17.03-25.65 16.4-39.6zM5525.56 3482.47c-.65-14.48-5.41-29.5-16.4-39.6-10.96-10.06-24.42-16.4-39.6-16.4-14.36 0-29.44 6.25-39.6 16.4-9.71 9.71-17.03 25.65-16.4 39.6.65 14.48 5.41 29.5 16.4 39.6 10.96 10.06 24.42 16.4 39.6 16.4 14.36 0 29.44-6.25 39.6-16.4 9.71-9.72 17.02-25.65 16.4-39.6zM5334.36 3385.35c-.65-14.48-5.41-29.5-16.4-39.6-10.96-10.06-24.42-16.4-39.6-16.4-14.36 0-29.44 6.25-39.6 16.4-9.71 9.71-17.03 25.65-16.4 39.6.65 14.48 5.41 29.5 16.4 39.6 10.96 10.06 24.42 16.4 39.6 16.4 14.36 0 29.44-6.25 39.6-16.4 9.71-9.72 17.02-25.65 16.4-39.6zM5686.41 3561.37c-.65-14.48-5.41-29.5-16.4-39.6-10.96-10.06-24.42-16.4-39.6-16.4-14.36 0-29.44 6.25-39.6 16.4-9.71 9.71-17.03 25.65-16.4 39.6.65 14.48 5.41 29.5 16.4 39.6 10.96 10.06 24.42 16.4 39.6 16.4 14.36 0 29.44-6.25 39.6-16.4 9.71-9.71 17.02-25.65 16.4-39.6z"/></g></g></g><g><path class="st39" d="M5276.91 3176.7l-6.11.31-57.73 2.98 15.55 54.3 8.8 13.49s13.66-24.59 28.87-29.83c3.07-1.06 6.21-1.33 9.31-.45 12.06 3.45-2.37 25.49-13.98 41.79-6.13 8.61-11.47 15.62-11.69 17.44-.34 2.68 4.46 1.6 9.93-2.1 5.27-3.56 11.18-9.56 13.76-16.99 2.98-8.57 12.7-16.29 20.58-21.38-6.06-22.36-17.29-59.56-17.29-59.56z"/><path class="st41" d="M5445.77 3315.79c-.37-.86-.8-1.67-1.27-2.44-1.61-1.51-3.49-2.96-5.68-4.36l-27.64-9.21s-13.82-41.47-22.38-45.41c-8.56-3.95-2.63-21.06-18.43-22.38-4.15-.35-10.29-1.24-17.2-2.3-14.48-2.23-32.35-5.23-42.3-5.61-1.25-.05-2.37-.05-3.34-.01-1.68.07-2.93.29-3.63.68-4.4 2.44-4.44 6.34-4.17 8.18.09.64.22 1.03.22 1.03s3.38 2.41 6.04 5.05c.66.65 1.27 1.31 1.78 1.96.84 1.06 1.39 2.06 1.39 2.87 0 3.29 12.51 0 11.85 7.9-.66 7.9 15.14 3.29 13.82 18.43-1.32 15.14-10.53 32.25-10.53 32.25s9.09 11.78 20.76 20.89c4.65 3.63 9.72 6.85 14.78 8.72 17.77 6.58 68.45 40.15 68.45 40.15s2.75-2.36 6.39-6.26c8.7-16.45 16.74-37.15 11.09-50.13z"/><path class="st41" d="M5321 3251.73c.66-7.9-11.85-4.61-11.85-7.9 0-.81-.56-1.81-1.39-2.87-.51-.64-1.12-1.31-1.78-1.96-2.67-2.63-6.04-5.05-6.04-5.05s-.13-.39-.22-1.03c-1.63.93-3.51 2.05-5.52 3.35-7.88 5.09-17.6 12.81-20.58 21.38-2.58 7.43-8.49 13.42-13.76 16.99-5.48 3.7-10.27 4.78-9.93 2.1.23-1.82 5.57-8.83 11.69-17.44 11.6-16.3 26.03-38.35 13.98-41.79-3.1-.89-6.23-.61-9.31.45-15.2 5.24-28.87 29.83-28.87 29.83l-8.8-13.49-1.07-1.65s-19.09 32.91-19.75 48.05-9.87 60.55-9.87 60.55-11.19 44.76 8.56 49.36c11.53 2.69 27.99-.23 39.7-4.04 8.34-2.72 14.27-5.89 14.27-7.8 0-4.61-.66-33.57 1.32-34.23.98-.33 16.44-10.74 31.73-21.13 1.37-.93 2.73-1.86 4.09-2.78 13.98-9.5 26.7-18.22 26.7-18.22s9.21-17.11 10.53-32.25c1.31-15.14-14.48-10.53-13.83-18.43z"/><path class="st39" d="M5415.19 4593.69c-6.39-1.37-9.17-10.83-9.9-23.94-4.44 4.45-8.41 8.57-10.31 10.95-5.77 7.22 8.66 66.4 14.43 66.4s44.75 8.66 60.63-2.89c15.88-11.55 0-60.63 0-60.63s-34.64 14.44-54.85 10.11z"/><path class="st41" d="M5549.55 3978.26l-110.65 2.98c.65 49.94 1.36 131.79-.6 156.32-2.89 36.09-21.65 314.67-24.54 340.66-1.97 17.76-10.02 63.19-8.45 91.53.72 13.11 3.5 22.58 9.9 23.94 20.21 4.33 54.85-10.1 54.85-10.1s1.44-153.01 5.77-161.67c4.33-8.66 60.89-217.86 60.63-290.14-.15-38.19 1.77-105.22 13.09-153.52z"/><path class="st39" d="M5314.15 4592.24c-6.48-5.67-4.32-24.99-.67-49.26-10.32 20.68-23.3 50.48-22.42 68.03 1.44 28.87 51.96 37.53 69.29 41.86s18.77-17.32 21.65-31.76c1.97-9.84-3.44-30.4-8.45-43.41-10.6 5.18-49.45 23.25-59.4 14.54z"/><path class="st41" d="M5399.32 4146.21c0-6.17 6.59-106.79 10.38-164.19l-134.47 3.62 2.84 7.57s27.43 111.15 18.77 154.45c-8.66 43.3 27.43 285.81 24.54 333.44-1.27 20.9-5.03 42.91-7.89 61.88-3.65 24.28-5.81 43.59.67 49.26 9.95 8.7 48.8-9.36 59.39-14.54 1.71-.83 2.68-1.33 2.68-1.33s-1.44-108.26-1.44-122.69c-.01-14.44 24.53-298.8 24.53-307.47z"/><path class="st39" d="M5325.51 3041.73c1.33-3.71 2.49-7.27 3.4-10.48 4.57-16.24 15.78-18.78 20.68-19.09-11.13-17.39-20.09-36.77-23.97-48.04-7.24-21.06-1.32-77.67-1.32-77.67s26.99-23.04 32.25-33.57c5.27-10.53 56.6-11.85 55.29-1.97-1.32 9.87 20.4 25.67 29.62 30.93 9.21 5.27 50.68 53.31 53.97 61.87 3.29 8.56-15.8 10.53-15.8 10.53l-1.32 41.47s-2.25 3.2-6.04 8.2l1.44-.3 2.99 11.17 1.62-5.24s17.77 4.61 34.88 17.77c17.11 13.16 26.99 15.8 26.99 15.8l-1.06 5.03s16.38.72 34.66 6.22c.79-2.17 1.59-3.69 2.41-4.42 8.72-7.75 18.4-24.21 2.9-37.77-15.49-13.56-32.92-56.17-27.11-78.44 5.81-22.27-10.65-58.1-27.11-68.75-16.46-10.65 20.34-.97-7.75-22.27-28.08-21.3-31.96-12.59-35.83-12.59-3.87 0-6.78-29.05-17.43-29.05-10.65 0-15.49-21.3-32.92-16.46s-33.89-3.87-37.77 3.87c0 0-13.56-8.72-23.24 8.72-9.68 17.43-7.75 0-31.96 19.37s-34.86 35.83-57.13 61.01c-22.27 25.18-5.81 65.85-17.43 76.5-11.62 10.65 6.78 35.83-1.94 43.58s-21.3 33.89-15.49 43.58l5.81 9.68.17.46c29.03-11.64 67.7-9.98 73.54-9.65z"/><path class="st19" d="M5394.94 3073.4l.17.04c-.18-.19-.36-.38-.54-.56l.37.52z"/><path class="st41" d="M5370.1 3038.02c3.8 3.57 7.65 6.45 11.46 8.36 23.69 11.85 32.91 19.09 54.63-1.32 14.52-13.64 28.44-31.09 36.08-41.17 3.79-5 6.04-8.2 6.04-8.2l1.32-41.47s19.09-1.97 15.8-10.53c-3.29-8.56-44.76-56.6-53.97-61.87-9.21-5.27-30.93-21.06-29.62-30.93 1.32-9.87-50.02-8.56-55.29 1.97-5.27 10.53-32.25 33.57-32.25 33.57s-5.92 56.6 1.32 77.67c3.87 11.27 12.84 30.65 23.97 48.04 3.93 6.14 8.13 12.03 12.46 17.23 2.64 3.18 5.33 6.09 8.05 8.65z"/><path class="st41" d="M5394.94 3073.4l-.37-.52-24.47-34.85c-2.72-2.56-5.41-5.47-8.06-8.64-4.34-5.2-8.54-11.09-12.46-17.23-4.9.31-16.11 2.86-20.68 19.09-.9 3.22-2.07 6.77-3.4 10.48-.67 1.88-1.38 3.79-2.12 5.72-7.37 19.31-17.52 40.39-17.52 40.39l17.43-17.13 20.75-20.39 24.7 11.4 24.25 11.19 1.95.49z"/><path class="st41" d="M5445.07 3128.34c.74-9.85 1.65-20.45 3.62-28.65.77-3.2 2.66-7.03 5.21-11.12l.23-.73 22.56-73.07-2.99-11.17-1.44.3c-7.64 10.08-21.56 27.53-36.08 41.17-21.72 20.4-30.93 13.16-54.63 1.32-3.81-1.91-7.66-4.79-11.46-8.36l24.47 34.85c.18.19.36.37.54.56 13.73 14.57 21.81 34.81 27.05 54.15l22.92.75z"/><path class="st41" d="M5453.91 3088.57l-5.87 19.02.33-.33 10.26-10.26 6.49-6.49 13.86-13.86s15.42 15.99 21.72 19.75c5.99 3.57 26.33 9.21 26.33 9.21l12.1-57.5 1.06-5.03s-9.87-2.63-26.99-15.8c-17.11-13.16-34.88-17.77-34.88-17.77l-1.62 5.24-22.56 73.07-.23.75zM5395.38 3074.02l-.44-.62-1.95-.48z"/><path class="st19" d="M5368.74 3061.73c-.05.49-.11 1.07-.17 1.7.06-.63.12-1.21.17-1.7z"/><path class="st41" d="M5527.19 3429.21zM5528.29 3429.48l-1.1-.27 1.1.27zM5536.29 3431.36zM5545.6 3433.41c-2.67-.56-5.34-1.15-8.03-1.75 2.69.6 5.37 1.18 8.03 1.75zM5546.59 3433.61l-.99-.21c.33.08.66.14.99.21zM5537.58 3431.65c-.43-.1-.86-.19-1.29-.29.43.1.86.19 1.29.29zM5312.94 3124.01l109.22 3.58c-5.27-18.91-13.73-40.03-27.05-54.15l-.17-.04.44.63-2.39-1.1-24.25-11.19c-.05.49-.11 1.07-.17 1.7.06-.63.12-1.21.17-1.7l-24.7-11.4-20.75 20.39-17.43 17.13s10.15-21.08 17.52-40.39c.74-1.93 1.45-3.85 2.12-5.72-5.84-.33-44.51-1.98-73.56 9.62-12.68 5.07-23.53 12.66-29.01 23.99-19.09 39.49-56.6 310.66-49.36 329.09 6.38 16.24 34.72 62.6 62.08 53.16 3.7-1.28 7.38-3.56 10.98-7.08 17.1-16.73 30.42-48.98 38.77-73.9 6.44-19.2 9.93-34.04 9.93-34.04l2.26-21.93c-1.35.92-2.72 1.85-4.09 2.78-15.3 10.39-30.75 20.8-31.73 21.13-1.97.66-1.32 29.62-1.32 34.23 0 1.92-5.93 5.09-14.27 7.8-11.71 3.81-28.17 6.73-39.7 4.04-19.75-4.61-8.56-49.36-8.56-49.36s9.21-45.41 9.87-60.55 19.75-48.05 19.75-48.05l1.07 1.65-15.55-54.3 57.74-2.98 6.11-.31s11.23 37.2 17.29 59.58c2.01-1.3 3.9-2.42 5.52-3.35-.27-1.84-.23-5.74 4.17-8.18.7-.39 1.95-.6 3.63-.68.98-.04 2.1-.04 3.34.01.32.01.69.03 1.08.06-.42-6.96-.75-10.9-.75-10.9l1.75-89.27z"/><path class="st41" d="M5515.88 3316.45c-1.02-7.14 10.5-185.44 10.5-185.44l-81.3-2.67-22.91-.75-109.22-3.58-1.75 89.22s.34 3.94.75 10.9c11.78.78 54.41 7.51 58.42 7.85 15.8 1.32 9.87 18.43 18.43 22.38 8.56 3.95 22.38 45.41 22.38 45.41l20.65 6.88s44.74 7.47 84.86 15.07c-.29-1.74-.56-3.5-.81-5.27zM5553.9 3435.08z"/><path class="st41" d="M5622.41 3098.82c-3.88-25.4-27.52-38.13-48.63-44.48-18.28-5.5-34.66-6.22-34.66-6.22l-12.1 57.5s-20.34-5.65-26.33-9.21c-6.3-3.76-21.72-19.74-21.72-19.74l-13.86 13.86-6.49 6.49-10.26 10.26-.33.33 5.87-19.02c-2.55 4.09-4.44 7.92-5.21 11.12-1.9 7.92-2.89 19.03-3.62 28.65l81.3 2.67s-11.52 178.3-10.5 185.44c.25 1.77.52 3.52.81 5.28-40.11-7.6-84.86-15.07-84.86-15.07l6.99 2.33c2.19 1.39 4.07 2.85 5.68 4.36.47.77.89 1.58 1.27 2.44 5.66 12.98-2.39 33.68-11.09 50.13-7.56 14.28-15.61 25.35-15.61 25.35 3.13 3.76 22.59 12.07 48.9 20.87a758.094 758.094 0 0050.92 15.01c2.76.71 5.53 1.4 8.3 2.07l1.1.27c2.67.64 5.33 1.27 8 1.88.43.1.86.2 1.29.29 2.68.61 5.36 1.19 8.03 1.75l.99.21c2.45.51 4.89 1 7.32 1.47.34.07.68.13 1.02.19 15.04 2.89 29.53 4.96 42.32 5.68 1.13.06 2.24.12 3.34.16 16.6.65 30.04-1.1 37.67-6.42 21.97-15.33-8.61-288.51-15.85-335.9z"/><path class="st41" d="M5554.93 3435.29s0-.01-.01-.01c-.34-.07-.68-.13-1.02-.19.35.06.69.14 1.03.2zM5385.99 2968.85l-5.4 12.31c.17 5.39 5.55 9.03 10.62 7.19l12.05-5.27"/><circle class="st39" cx="5352.31" cy="2946.08" r="6.01"/><circle class="st39" cx="5425.14" cy="2938.57" r="6.01"/><path class="st41" d="M5396.61 3015.16s24.78 2.25 31.53-9.01M5516.68 3321.73l31.36 9.88s1.43-83.16 1.43-106.1M5260.45 3378.76s10.88 17.37 9.45 24.54"/><g><path class="st41" d="M5262.19 3985.99l13.04-.35 134.47-3.62 29.2-.79 110.65-2.98 34.53-.93 6.18-46.11-337.65 9.29c5.28 27.19 9.58 45.49 9.58 45.49z"/><path class="st41" d="M5554.93 3435.29c-11.85-2.28-24.04-5.07-36.04-8.15-18.04-4.63-35.63-9.9-50.92-15.01-26.3-8.79-45.77-17.11-48.9-20.87 0 0 8.05-11.07 15.61-25.35-3.64 3.9-6.39 6.26-6.39 6.26s-50.68-33.57-68.45-40.15c-5.06-1.88-10.13-5.09-14.78-8.72-11.67-9.12-20.76-20.89-20.76-20.89s-4.56 3.12-11.22 7.67c0 .06 0 .12-.01.18-5.05 3.38-11.53 7.68-15.48 10.37l-2.26 21.93s-1.45 15.65-9.93 34.04c-10.4 22.55-12.77 40.29-27 60.33-2.3 3.24-14.66 63.34-15.02 65.26 0 0-.08.4-.12.62-6.38 34.11-54.91 305.54-9.05 438.2l18.39-.51 337.65-9.29 25.35-.7c0 .01 38.1-127.14-60.67-495.22zm-308.29 63.04"/></g><path class="st41" d="M5312.94 3124.01c-.51-4.65 31.1-73.68 31.1-73.68l13.61 7.89-20.94 65.33-23.77.46zM5526.38 3131.01c-4.56-2.44.64-25.39.64-25.39l-26.33-9.21-4.84 33.01 30.53 1.59zM5258.4 3436.94s235.36 51.33 301.24 13.03l-4.71-14.68s-218.21 4.72-281.02-23.62l-15.51 25.27zM5293.01 3448.8s-21.9 89.58-27.87 145.32M5519.96 3468.71s25.88 55.74 29.86 127.41"/><g><path d="M5344.71 3177.59l-4.21 50.12c4.32.67 8.62 1.35 12.66 1.97 6.91 1.06 13.06 1.96 17.2 2.3 15.8 1.32 9.87 18.43 18.43 22.38 8.56 3.95 22.38 45.41 22.38 45.41l11.02 3.67 39.83 3.06c16.04 1.23 29.86-11.18 30.35-27.27l2.77-91.87c-.01.02-135.89-9.03-150.43-9.77z" fill="none" stroke="#54575c" stroke-width="5.758"/></g></g></g><path d="M4242.69 3115.83h312.07c22.88 0 41.43-18.55 41.43-41.43v-231.18c0-22.88-18.55-41.43-41.43-41.43h-312.07c-22.88 0-41.43 18.55-41.43 41.43v231.18c.01 22.88 18.55 41.43 41.43 41.43z" fill="#f5c65d"/><path class="st47" d="M4234.17 3121.51h312.07c22.88 0 41.43-18.55 41.43-41.43V2848.9c0-22.88-18.55-41.43-41.43-41.43h-312.07c-22.88 0-41.43 18.55-41.43 41.43v231.18c0 22.88 18.55 41.43 41.43 41.43z"/><path class="st47" d="M4570.41 2809.02l-174.01-72.11-186.4 79.18"/><text transform="translate(4246.181 3009.7)" class="st39" font-size="102.49" font-family="Arimo">OPEN</text><g><path class="st6" d="M3689.5 1716.82c141.29-125.88 20.06-173.85-2.23-191.68-17.33-13.87-98.01-16.95-133.03-17.63v302.29c26.72-10.46 70.37-35.17 135.26-92.98zM3739.42 2756.04c-2.38-24.66-9.11-87.13-22.48-160.68-13.23-72.77-115.27-127.49-162.7-149.26v83.1l185.18 226.84z"/><path class="st6" d="M5072.13 4225.87c-22.01-27.41-60.34-64.16-120.18-104.04-44.03-29.34-65.92-107.73-84.81-153.81-91.02-221.94-278.29-394.65-402.4-598.55-46.4-76.23-228.69-294.98-338.06-255.2 0 0-56.34 9.94-59.66 43.09l-327.6-401.31-185.18-226.84-17.52-21.46s-69.6-145.83-152.46-135.89c0 0-39.77 23.2-33.14 59.66 0 0-66.29 53.03 9.94 195.55 30.83 57.64 109.91 204.2 193.18 358.31l254.26 470.27-98.89 129.16c-16.44-24.93-36.29-46.39-60.2-62.88 0 0-32.8-56.21-95.17-66.81-10.53-1.79-21.89-2.29-34.09-.99-20.82 2.22-44.04 9.64-69.6 24.71 0 0-29.83 16.57-19.89 82.86 3.2 21.34 7.09 43.7 10.89 64.67 2.84 15.68 5.64 30.58 8.06 43.67 1.81 9.77 3.41 18.54 4.66 25.89 1.8 10.53 2.91 18.14 2.91 21.55 0 13.26-106.06 112.69-79.54 232 26.51 119.32 76.23 324.81 62.97 384.46-13.26 59.66 6.63 301.6 106.06 460.69 99.43 159.09 197.5 702.86 197.5 702.86h1276.02s184.72-789.43 113.53-1121.06c-9.12-42.46-37.74-120.87-61.59-150.56zm-1018.15 80.47s-49.3-11.6-89.89 37.7c-40.6 49.3-49.17 51.72-92.79 5.8-55.1-58-113.09-272.58-113.09-272.58s101.49 84.1 205.89-75.4c0 0 5.8 81.2 40.6 113.09 34.8 31.9 49.3 29 49.3 29v162.39zm-395.49-1074.72s-82.09 35.92-100.91 5.13l-11.97-215.5 112.88 210.37z"/><path class="st6" d="M3554.24 2042.52v-785.14c0-55.85-45.28-101.13-101.13-101.13H2440c-55.85 0-101.13 45.28-101.13 101.13v502.56s82.53 35.74 71.84 160.43c-4.78 55.74-37.31 142.08-71.84 220.53v766.71c67.65 154.06 135.84 407.2 121.24 788.31h994.17c-1.26-7.34-2.86-16.11-4.66-25.89-2.42-13.09-5.21-27.99-8.06-43.67-3.8-20.97-7.69-43.33-10.89-64.67-9.94-66.29 19.89-82.86 19.89-82.86 25.56-15.07 48.78-22.5 69.6-24.71 12.2-1.3 23.56-.8 34.09.99v-469.75c-83.26-154.12-162.34-300.67-193.18-358.31-76.23-142.52-9.94-195.55-9.94-195.55-6.63-36.46 33.14-59.66 33.14-59.66 82.86-9.94 152.46 135.89 152.46 135.89l17.52 21.46V2042.52z"/><path class="st6" d="M2338.87 2907.62v-590.13l-84.92 87.41-3.56-81.94s45.76-84.99 88.48-182.05c34.53-78.45 67.06-164.79 71.84-220.53 10.69-124.69-71.84-160.43-71.84-160.43-51.69-46.76-75.04-3.62-75.04-3.62l-115.78 268.84s-129.27 134.34-206.05 174.65-65.86 289.1-63.94 304.45 15.36 385.83-42.23 481.8c-57.59 95.98-61.88 235.9-61.88 235.9 36.93 343.79-18.57 505.97-92.84 645.22-74.27 139.26-1122.6 1556.53-1122.6 1556.53l1169.96 26.51s591.89-1006.92 641.6-1116.29c49.71-109.37 251.89-172.35 391.09-235.32 124.1-56.14 221.86-341.47 241.61-402.7H2460.1c14.61-381.1-53.58-634.24-121.23-788.3zM3584.74 2378.8c8.92 13.37 37.89 17.83 37.89 17.83 113.67 20.06 162.71-42.35 164.94-124.82 2.23-82.47-78.01-138.19-133.73-196.14-31.69-32.96-71.32-36.36-99.6-33.16v338.17c18.57 3.53 30.5-1.88 30.5-1.88zM3764 1716.82c141.29-125.88 20.06-173.85-2.23-191.68-17.33-13.87-98.01-16.95-133.03-17.63v302.29c26.72-10.46 70.37-35.17 135.26-92.98zM3813.92 2756.04c-2.38-24.66-9.11-87.13-22.48-160.68-13.23-72.77-115.27-127.49-162.7-149.26v83.1l185.18 226.84z"/><path class="st6" d="M5146.63 4225.87c-22.01-27.41-60.34-64.16-120.18-104.04-44.03-29.34-65.92-107.73-84.81-153.81-91.02-221.94-278.29-394.65-402.4-598.55-46.4-76.23-228.69-294.98-338.06-255.2 0 0-56.34 9.94-59.66 43.09l-327.6-401.31-185.18-226.84-17.52-21.46s-69.6-145.83-152.46-135.89c0 0-39.77 23.2-33.14 59.66 0 0-66.29 53.03 9.94 195.55 30.83 57.64 109.91 204.2 193.18 358.31L3883 3455.65l-98.89 129.16c-16.44-24.93-36.29-46.39-60.2-62.88 0 0-32.8-56.21-95.17-66.81-10.53-1.79-21.89-2.29-34.09-.99-20.82 2.22-44.04 9.64-69.6 24.71 0 0-29.83 16.57-19.89 82.86 3.2 21.34 7.09 43.7 10.89 64.67 2.84 15.68 5.64 30.58 8.06 43.67 1.81 9.77 3.41 18.54 4.66 25.89 1.8 10.53 2.91 18.14 2.91 21.55 0 13.26-106.06 112.69-79.54 232 26.51 119.32 76.23 324.81 62.97 384.46-13.26 59.66 6.63 301.6 106.06 460.69 99.43 159.09 197.5 702.86 197.5 702.86h1276.02s184.72-789.43 113.53-1121.06c-9.12-42.46-37.75-120.87-61.59-150.56zm-1018.15 80.47s-49.3-11.6-89.89 37.7c-40.6 49.3-49.17 51.72-92.79 5.8-55.1-58-113.09-272.58-113.09-272.58s101.49 84.1 205.89-75.4c0 0 5.8 81.2 40.6 113.09 34.8 31.9 49.3 29 49.3 29v162.39zm-395.49-1074.72s-82.09 35.92-100.91 5.13l-11.97-215.5 112.88 210.37z"/><path class="st6" d="M3628.74 2042.52v-785.14c0-55.85-45.28-101.13-101.13-101.13H2514.5c-55.85 0-101.13 45.28-101.13 101.13v502.56s82.53 35.74 71.84 160.43c-4.78 55.74-37.31 142.08-71.84 220.53v766.71c67.65 154.06 135.83 407.2 121.24 788.31h994.17c-1.26-7.34-2.86-16.11-4.66-25.89-2.42-13.09-5.21-27.99-8.06-43.67-3.8-20.97-7.69-43.33-10.89-64.67-9.94-66.29 19.89-82.86 19.89-82.86 25.56-15.07 48.78-22.5 69.6-24.71 12.2-1.3 23.56-.8 34.09.99v-469.75c-83.26-154.12-162.34-300.67-193.18-358.31-76.23-142.52-9.94-195.55-9.94-195.55-6.63-36.46 33.14-59.66 33.14-59.66 82.86-9.94 152.46 135.89 152.46 135.89l17.52 21.46V2042.52z"/><path class="st6" d="M2413.37 2907.62v-590.13l-84.92 87.41-3.56-81.94s45.76-84.99 88.48-182.05c34.53-78.45 67.06-164.79 71.84-220.53 10.69-124.69-71.84-160.43-71.84-160.43-51.69-46.76-75.04-3.62-75.04-3.62l-115.78 268.84s-129.27 134.34-206.05 174.65-65.86 289.1-63.94 304.45c1.92 15.36 15.36 385.83-42.23 481.8-57.59 95.98-61.88 235.9-61.88 235.9 36.93 343.79-18.57 505.97-92.84 645.22-74.27 139.26-1122.6 1556.53-1122.6 1556.53l1169.96 26.51s591.89-1006.92 641.6-1116.29c49.71-109.37 251.89-172.35 391.09-235.32 124.1-56.14 221.86-341.47 241.61-402.7H2534.6c14.61-381.1-53.58-634.24-121.23-788.3zM3659.24 2378.8c8.92 13.37 37.89 17.83 37.89 17.83 113.67 20.06 162.71-42.35 164.94-124.82 2.23-82.47-78.01-138.19-133.73-196.14-31.69-32.96-71.32-36.36-99.6-33.16v338.17c18.56 3.53 30.5-1.88 30.5-1.88z"/><path class="st28" d="M3724.25 1697.79c141.29-125.88 20.06-173.85-2.23-191.68-17.33-13.87-98.01-16.95-133.03-17.63v302.29c26.72-10.46 70.37-35.17 135.26-92.98zM3774.16 2737.01c-2.38-24.66-9.11-87.13-22.48-160.68-13.23-72.77-115.27-127.49-162.7-149.26v83.1l185.18 226.84z"/><path class="st28" d="M5106.88 4206.84c-22.01-27.41-60.34-64.16-120.18-104.04-44.03-29.34-65.92-107.73-84.81-153.81-91.02-221.94-278.29-394.65-402.4-598.55-46.4-76.23-228.69-294.98-338.06-255.2 0 0-56.34 9.94-59.66 43.09l-327.6-401.31-185.18-226.84-17.52-21.46s-69.6-145.83-152.46-135.89c0 0-39.77 23.2-33.14 59.66 0 0-66.29 53.03 9.94 195.55 30.83 57.64 109.91 204.2 193.18 358.31l254.26 470.27-98.89 129.16c-16.44-24.93-36.29-46.39-60.2-62.88 0 0-32.8-56.21-95.17-66.81-10.53-1.79-21.89-2.29-34.09-.99-20.82 2.22-44.04 9.64-69.6 24.71 0 0-29.83 16.57-19.89 82.86 3.2 21.34 7.09 43.7 10.89 64.67 2.84 15.68 5.64 30.58 8.06 43.67 1.81 9.77 3.41 18.54 4.66 25.89 1.8 10.53 2.91 18.14 2.91 21.55 0 13.26-106.06 112.69-79.54 232 26.51 119.32 76.23 324.8 62.97 384.46-13.26 59.66 6.63 301.6 106.06 460.69 99.43 159.09 197.5 702.86 197.5 702.86h1276.02s184.72-789.43 113.53-1121.06c-9.12-42.46-37.75-120.87-61.59-150.56zm-1018.15 80.47s-49.3-11.6-89.89 37.7c-40.6 49.3-49.17 51.72-92.79 5.8-55.1-58-113.09-272.58-113.09-272.58s101.49 84.09 205.89-75.4c0 0 5.8 81.19 40.6 113.09 34.8 31.9 49.3 29 49.3 29v162.39zm-395.5-1074.72s-82.09 35.92-100.91 5.13l-11.97-215.5 112.88 210.37z"/><path class="st27" d="M3588.99 2023.49v-785.13c0-55.85-45.28-101.13-101.13-101.13H2474.74c-55.85 0-101.13 45.28-101.13 101.13v502.56s82.53 35.74 71.84 160.43c-4.78 55.74-37.31 142.08-71.84 220.53v766.71c67.65 154.06 135.84 407.2 121.24 788.31h994.17c-1.26-7.34-2.86-16.11-4.66-25.89-2.42-13.09-5.21-27.99-8.06-43.67-3.8-20.97-7.69-43.33-10.89-64.67-9.94-66.29 19.89-82.86 19.89-82.86 25.56-15.07 48.78-22.5 69.6-24.71 12.2-1.3 23.56-.8 34.09.99v-469.75c-83.26-154.12-162.34-300.67-193.18-358.31-76.23-142.52-9.94-195.55-9.94-195.55-6.63-36.46 33.14-59.66 33.14-59.66 82.86-9.94 152.46 135.89 152.46 135.89l17.52 21.46v-486.68z"/><path class="st28" d="M2373.62 2888.59v-590.13l-84.92 87.41-3.56-81.94s45.76-84.99 88.48-182.05c34.53-78.45 67.06-164.79 71.84-220.53 10.69-124.69-71.84-160.43-71.84-160.43-51.69-46.76-75.04-3.62-75.04-3.62l-115.78 268.84s-129.27 134.34-206.05 174.65-65.86 289.1-63.94 304.45c1.92 15.36 15.36 385.83-42.23 481.8-57.59 95.98-61.88 235.9-61.88 235.9 36.93 343.79-18.57 505.97-92.84 645.22-74.27 139.26-1122.6 1556.53-1122.6 1556.53l1169.96 26.51s591.89-1006.92 641.6-1116.29c49.71-109.37 251.89-172.35 391.09-235.32 124.1-56.14 221.86-341.47 241.61-402.7h-542.67c14.6-381.1-53.59-634.24-121.23-788.3zM3619.49 2359.77c8.92 13.37 37.89 17.83 37.89 17.83 113.67 20.06 162.71-42.35 164.94-124.82 2.23-82.47-78.01-138.19-133.73-196.14-31.69-32.96-71.32-36.36-99.6-33.16v338.17c18.56 3.53 30.5-1.88 30.5-1.88z"/><path class="st19" d="M3575.39 3230.84v220.59c62.37 10.6 95.17 66.81 95.17 66.81 23.9 16.48 43.75 37.94 60.2 62.88l98.89-129.16s-54.73-101.15-126.47-233.83c-13.4 9.52-27.62 16.07-42.56 18.4-40.43 6.31-67.36 2.03-85.23-5.69zM4025.83 4111.27c-34.8-31.9-40.6-113.09-40.6-113.09-104.39 159.49-205.89 75.4-205.89 75.4s58 214.59 113.09 272.58c43.62 45.92 52.2 43.5 92.79-5.8s89.89-37.7 89.89-37.7v-162.39c.02-.01-14.48 2.89-49.28-29z"/><path class="st40" d="M3710.65 1713.13c141.29-125.88 20.06-173.85-2.23-191.68-17.33-13.87-98.01-16.95-133.03-17.63v302.29c26.72-10.46 70.37-35.17 135.26-92.98zM3760.57 2752.35c-2.38-24.66-9.11-87.13-22.48-160.68-13.23-72.77-115.27-127.49-162.7-149.26v83.1l185.18 226.84zM3660.62 3236.52c14.94-2.33 29.16-8.88 42.56-18.4-39.53-73.12-84.23-155.81-127.79-236.44v249.16c17.87 7.72 44.8 12 85.23 5.68z"/><path class="st19" d="M3541.31 3196.75v253.69c12.2-1.3 23.56-.8 34.09.99v-220.59c-29.01-12.52-34.09-34.09-34.09-34.09zM4025.83 4111.27c-34.8-31.9-40.6-113.09-40.6-113.09-104.39 159.49-205.89 75.4-205.89 75.4s58 214.59 113.09 272.58c43.62 45.92 52.2 43.5 92.79-5.8s89.89-37.7 89.89-37.7v-162.39c.02-.01-14.48 2.89-49.28-29z"/><path class="st19" d="M3575.39 3230.84v220.59c62.37 10.6 95.17 66.81 95.17 66.81 23.9 16.48 43.75 37.94 60.2 62.88l98.89-129.16s-54.73-101.15-126.47-233.83c-39.53-73.12-84.23-155.81-127.79-236.44v249.15z"/><path class="st40" d="M5127.63 4244.18c-26.7-29.19-79.38-75.96-154.52-126.04-44.03-29.34-65.92-107.73-84.81-153.81-91.02-221.94-278.29-394.65-402.4-598.55-46.4-76.23-228.69-294.98-338.06-255.2 0 0-56.34 9.94-59.66 43.09l-327.6-401.31-185.18-226.84-17.52-21.46s-69.6-145.83-152.46-135.89c0 0-39.77 23.2-33.14 59.66 0 0-66.29 53.03 9.94 195.55 30.83 57.64 109.91 204.2 193.18 358.31 43.56 80.63 88.26 163.32 127.79 236.44 71.74 132.69 126.47 233.83 126.47 233.83l-98.89 129.16c-16.44-24.93-36.29-46.39-60.2-62.88 0 0-32.8-56.21-95.17-66.81-10.53-1.79-21.89-2.29-34.09-.99-20.82 2.22-44.04 9.64-69.6 24.71 0 0-29.83 16.57-19.89 82.86 3.2 21.34 7.09 43.7 10.89 64.67 2.84 15.68 5.64 30.58 8.06 43.67 1.81 9.77 3.41 18.54 4.66 25.89 1.8 10.53 2.91 18.14 2.91 21.55 0 13.26-106.06 112.69-79.54 232 26.51 119.32 76.23 324.81 62.97 384.46-13.26 59.66 6.63 301.6 106.06 460.69 99.43 159.09 197.5 702.86 197.5 702.86h1276.02s206.42-774.34 145.36-1109.35c-8.35-45.72-41.49-121.04-59.08-140.27zm-1052.5 58.47s-49.3-11.6-89.89 37.7-49.17 51.72-92.79 5.8c-55.1-58-113.09-272.58-113.09-272.58s101.49 84.1 205.89-75.4c0 0 5.8 81.2 40.6 113.09 34.8 31.9 49.3 29 49.3 29v162.39zM2275.11 2401.21l84.92-87.41v-176.58c-42.72 97.07-88.48 182.05-88.48 182.05l3.56 81.94z"/><path class="st40" d="M3575.39 2038.83V1253.7c0-55.85-45.28-101.13-101.13-101.13H2461.15c-55.85 0-101.13 45.28-101.13 101.13v502.56s82.53 35.74 71.84 160.43c-4.78 55.74-37.31 142.08-71.84 220.53v766.71c67.65 154.06 135.84 407.2 121.24 788.31h994.17c-1.26-7.34-2.86-16.11-4.66-25.89-2.42-13.09-5.21-27.99-8.06-43.67-3.8-20.97-7.69-43.33-10.89-64.67-9.94-66.29 19.89-82.86 19.89-82.86 25.56-15.07 48.78-22.5 69.6-24.71 12.2-1.3 23.56-.8 34.09.99v-469.75c-83.26-154.12-162.34-300.67-193.18-358.31-76.23-142.52-9.94-195.55-9.94-195.55-6.63-36.46 33.14-59.66 33.14-59.66 82.86-9.94 152.46 135.89 152.46 135.89l17.52 21.46v-486.68z"/><path class="st40" d="M2360.02 2903.93V2313.8l-84.92 87.41-3.56-81.94s45.76-84.99 88.48-182.05c34.53-78.45 67.06-164.79 71.84-220.53 10.69-124.69-71.84-160.43-71.84-160.43-51.69-46.76-88.41-10.05-88.41-10.05l-109.41 249.54s-124.77 124.77-201.55 165.08c-76.78 40.31-63.34 324.4-61.42 339.76s15.36 385.83-42.23 481.8c-57.59 95.98-61.88 235.9-61.88 235.9 36.93 343.79-18.57 505.97-92.84 645.22C1628 4002.76 579.66 5420.03 579.66 5420.03l1169.96 26.51s591.89-1006.92 641.6-1116.29c49.71-109.37 251.89-172.35 391.09-235.32 124.1-56.14 221.86-341.47 241.61-402.7h-542.67c14.61-381.1-53.58-634.24-121.23-788.3zM3605.89 2375.11c8.92 13.37 37.89 17.83 37.89 17.83 113.67 20.06 162.71-42.35 164.94-124.82 2.23-82.47-78.01-138.19-133.73-196.14-31.69-32.96-71.32-36.36-99.6-33.16V2377c18.57 3.52 30.5-1.89 30.5-1.89z"/><g><path class="st40" d="M4071.57 4302.65s-49.3-11.6-89.89 37.7-49.17 51.72-92.79 5.8c-55.1-58-113.09-272.58-113.09-272.58s101.49 84.1 205.89-75.4c0 0 5.8 81.2 40.6 113.09 34.8 31.9 49.3 29 49.3 29v162.39zM4084.62 3153.66s76.85 119.55 97.15 165.95 162.39 263.88 246.49 327.68c84.09 63.8 176.89 197.19 182.69 246.49M4842.93 3861.88s58 144.99 17.4 246.48M3775.79 4073.57c2.9-14.5 82.62-248.34-48.59-492.45M3981.68 3998.17l40.96-225.82"/><path class="st40" d="M3826.1 3451.96s45.39 131.54 97.59 175.04 162.61 223.21 159.49 385.68c-1.84 96.02-11.6 127.59-11.6 127.59"/><path class="st40" d="M3827.38 3583.86c5.64 2.26 107.23 41.76 163.66 129.8l12.42 168.17M3474.78 3713.79s150.57-38.51 166.37-100.59c15.8-62.08-34.99-151.24-38.38-153.5"/></g><path class="st40" d="M2275.11 2401.21s0 181.7-21.38 252.95M2360.02 2903.93c-10.34-18.37-47.49-89.42-126-186.04M3692.31 2087.71s-.48 66.62-3.54 91.71c0 0 120.08 31.74 118.09 81.38M3614.12 2383.18s-41-40.38-42.22-73.43M3372.27 2427.82s127.96 120.46 173.65 129.83c45.69 9.37 29.47-32.14 29.47-32.14M3742.75 2627.95s-50.38-43.35-73.81-8.2l1.17 24.6M3612.71 3050.89s-19.92 28.12-24.6 59.75c0 0 86.7 28.12 93.73 66.78M2360.02 1756.25s27.69 46.64-22.72 113.25-114.36 142.65-175.1 126.24"/><g><path class="st6" d="M3148.54 1269.94h-456.7c-9.96 0-18.03-8.07-18.03-18.03s8.07-18.03 18.03-18.03h456.7c9.96 0 18.03 8.07 18.03 18.03 0 9.95-8.07 18.03-18.03 18.03z"/><circle class="st6" cx="3224.85" cy="1253.3" r="23.22"/><path class="st6" d="M2511.94 2955.59h-53.5c-9.59 0-17.37-7.77-17.37-17.37v-98.77c0-9.59 7.77-17.37 17.37-17.37h53.5c9.59 0 17.37 7.77 17.37 17.37v98.77c0 9.59-7.77 17.37-17.37 17.37zM2622.78 2955.59h-53.5c-9.59 0-17.37-7.77-17.37-17.37v-98.77c0-9.59 7.77-17.37 17.37-17.37h53.5c9.59 0 17.37 7.77 17.37 17.37v98.77c0 9.59-7.78 17.37-17.37 17.37zM2733.61 2955.59h-53.5c-9.59 0-17.37-7.77-17.37-17.37v-98.77c0-9.59 7.77-17.37 17.37-17.37h53.5c9.59 0 17.37 7.77 17.37 17.37v98.77c0 9.59-7.77 17.37-17.37 17.37zM2844.45 2955.59h-53.5c-9.59 0-17.37-7.77-17.37-17.37v-98.77c0-9.59 7.77-17.37 17.37-17.37h53.5c9.59 0 17.37 7.77 17.37 17.37v98.77c0 9.59-7.78 17.37-17.37 17.37zM2955.29 2955.59h-53.5c-9.59 0-17.37-7.77-17.37-17.37v-98.77c0-9.59 7.77-17.37 17.37-17.37h53.5c9.59 0 17.37 7.77 17.37 17.37v98.77c-.01 9.59-7.78 17.37-17.37 17.37zM3066.12 2955.59h-53.5c-9.59 0-17.37-7.77-17.37-17.37v-98.77c0-9.59 7.77-17.37 17.37-17.37h53.5c9.59 0 17.37 7.77 17.37 17.37v98.77c0 9.59-7.78 17.37-17.37 17.37zM3176.96 2955.59h-53.5c-9.59 0-17.37-7.77-17.37-17.37v-98.77c0-9.59 7.77-17.37 17.37-17.37h53.5c9.59 0 17.37 7.77 17.37 17.37v98.77c-.01 9.59-7.78 17.37-17.37 17.37zM3287.79 2955.59h-53.5c-9.59 0-17.37-7.77-17.37-17.37v-98.77c0-9.59 7.77-17.37 17.37-17.37h53.5c9.59 0 17.37 7.77 17.37 17.37v98.77c0 9.59-7.78 17.37-17.37 17.37zM3398.63 2955.59h-53.5c-9.59 0-17.37-7.77-17.37-17.37v-98.77c0-9.59 7.77-17.37 17.37-17.37h53.5c9.59 0 17.37 7.77 17.37 17.37v98.77c-.01 9.59-7.78 17.37-17.37 17.37zM3526.83 2902.7v35.52c0 9.59-7.77 17.37-17.37 17.37h-53.5c-9.59 0-17.37-7.77-17.37-17.37v-98.77c0-9.59 7.77-17.37 17.37-17.37h24.44"/><g><path class="st6" d="M2558.76 3151.36h-53.5c-9.59 0-17.37-7.77-17.37-17.37v-98.77c0-9.59 7.77-17.37 17.37-17.37h53.5c9.59 0 17.37 7.77 17.37 17.37v98.77c0 9.59-7.78 17.37-17.37 17.37zM2669.6 3151.36h-53.5c-9.59 0-17.37-7.77-17.37-17.37v-98.77c0-9.59 7.77-17.37 17.37-17.37h53.5c9.59 0 17.37 7.77 17.37 17.37v98.77c-.01 9.59-7.78 17.37-17.37 17.37zM2780.43 3151.36h-53.5c-9.59 0-17.37-7.77-17.37-17.37v-98.77c0-9.59 7.77-17.37 17.37-17.37h53.5c9.59 0 17.37 7.77 17.37 17.37v98.77c0 9.59-7.78 17.37-17.37 17.37zM2891.27 3151.36h-53.5c-9.59 0-17.37-7.77-17.37-17.37v-98.77c0-9.59 7.77-17.37 17.37-17.37h53.5c9.59 0 17.37 7.77 17.37 17.37v98.77c-.01 9.59-7.78 17.37-17.37 17.37zM3002.1 3151.36h-53.5c-9.59 0-17.37-7.77-17.37-17.37v-98.77c0-9.59 7.77-17.37 17.37-17.37h53.5c9.59 0 17.37 7.77 17.37 17.37v98.77c0 9.59-7.78 17.37-17.37 17.37zM3112.94 3151.36h-53.5c-9.59 0-17.37-7.77-17.37-17.37v-98.77c0-9.59 7.77-17.37 17.37-17.37h53.5c9.59 0 17.37 7.77 17.37 17.37v98.77c-.01 9.59-7.78 17.37-17.37 17.37zM3223.77 3151.36h-53.5c-9.59 0-17.37-7.77-17.37-17.37v-98.77c0-9.59 7.77-17.37 17.37-17.37h53.5c9.59 0 17.37 7.77 17.37 17.37v98.77c0 9.59-7.78 17.37-17.37 17.37zM3334.61 3151.36h-53.5c-9.59 0-17.37-7.77-17.37-17.37v-98.77c0-9.59 7.77-17.37 17.37-17.37h53.5c9.59 0 17.37 7.77 17.37 17.37v98.77c-.01 9.59-7.78 17.37-17.37 17.37zM3445.44 3151.36h-53.5c-9.59 0-17.37-7.77-17.37-17.37v-98.77c0-9.59 7.77-17.37 17.37-17.37h53.5c9.59 0 17.37 7.77 17.37 17.37v98.77c0 9.59-7.78 17.37-17.37 17.37z"/></g><g><path class="st6" d="M2558.76 3213.62h-92.71c1.91 8.39 17.92 124.65 19.09 133.5h73.62c9.59 0 17.37-7.77 17.37-17.37v-98.77c0-9.58-7.78-17.36-17.37-17.36zM2669.6 3347.13h-53.5c-9.59 0-17.37-7.77-17.37-17.37v-98.77c0-9.59 7.77-17.37 17.37-17.37h53.5c9.59 0 17.37 7.77 17.37 17.37v98.77c-.01 9.59-7.78 17.37-17.37 17.37zM2780.43 3347.13h-53.5c-9.59 0-17.37-7.77-17.37-17.37v-98.77c0-9.59 7.77-17.37 17.37-17.37h53.5c9.59 0 17.37 7.77 17.37 17.37v98.77c0 9.59-7.78 17.37-17.37 17.37zM2891.27 3347.13h-53.5c-9.59 0-17.37-7.77-17.37-17.37v-98.77c0-9.59 7.77-17.37 17.37-17.37h53.5c9.59 0 17.37 7.77 17.37 17.37v98.77c-.01 9.59-7.78 17.37-17.37 17.37zM3002.1 3347.13h-53.5c-9.59 0-17.37-7.77-17.37-17.37v-98.77c0-9.59 7.77-17.37 17.37-17.37h53.5c9.59 0 17.37 7.77 17.37 17.37v98.77c0 9.59-7.78 17.37-17.37 17.37zM3112.94 3347.13h-53.5c-9.59 0-17.37-7.77-17.37-17.37v-98.77c0-9.59 7.77-17.37 17.37-17.37h53.5c9.59 0 17.37 7.77 17.37 17.37v98.77c-.01 9.59-7.78 17.37-17.37 17.37zM3223.77 3347.13h-53.5c-9.59 0-17.37-7.77-17.37-17.37v-98.77c0-9.59 7.77-17.37 17.37-17.37h53.5c9.59 0 17.37 7.77 17.37 17.37v98.77c0 9.59-7.78 17.37-17.37 17.37zM3334.61 3347.13h-53.5c-9.59 0-17.37-7.77-17.37-17.37v-98.77c0-9.59 7.77-17.37 17.37-17.37h53.5c9.59 0 17.37 7.77 17.37 17.37v98.77c-.01 9.59-7.78 17.37-17.37 17.37zM3526.83 3347.13h-134.88c-9.59 0-17.37-7.77-17.37-17.37v-98.77c0-9.59 7.77-17.37 17.37-17.37h134.88c9.59 0 17.37 7.77 17.37 17.37v98.77c-.01 9.59-7.78 17.37-17.37 17.37z"/></g><g><path class="st6" d="M2558.76 3394.16h-70.01c1.91 8.39 7.7 124.65 8.87 133.5h61.15c9.59 0 17.37-7.77 17.37-17.37v-98.77c-.01-9.58-7.79-17.36-17.38-17.36zM2719.25 3527.66H2616.1c-9.59 0-17.37-7.77-17.37-17.37v-98.77c0-9.59 7.77-17.37 17.37-17.37h103.15c9.59 0 17.37 7.77 17.37 17.37v98.77c-.01 9.6-7.78 17.37-17.37 17.37zM3235.29 3527.66h-463.21c-9.59 0-17.37-7.77-17.37-17.37v-98.77c0-9.59 7.77-17.37 17.37-17.37h463.21c9.59 0 17.37 7.77 17.37 17.37v98.77c-.01 9.6-7.78 17.37-17.37 17.37zM3462.16 3527.66h-165.18c-9.59 0-17.37-7.77-17.37-17.37v-98.77c0-9.59 7.77-17.37 17.37-17.37h229.85c9.59 0 17.37 7.77 17.37 17.37v33.55"/></g><path class="st6" d="M3359.61 2482.68h-746.59c-64.76 0-117.26 52.5-117.26 117.26 0 64.32 51.82 116.64 116.14 117.25l835.37-3.89c-2.39-2.91-99.59-181.86-87.66-230.62z"/></g><g><path class="st40" d="M3139.08 1284.74h-456.7c-9.96 0-18.03-8.07-18.03-18.03s8.07-18.03 18.03-18.03h456.7c9.96 0 18.03 8.07 18.03 18.03s-8.07 18.03-18.03 18.03z"/><circle class="st40" cx="3215.39" cy="1268.11" r="23.22"/><path class="st40" d="M2502.48 2970.39h-53.5c-9.59 0-17.37-7.77-17.37-17.37v-98.77c0-9.59 7.77-17.37 17.37-17.37h53.5c9.59 0 17.37 7.77 17.37 17.37v98.77c0 9.6-7.78 17.37-17.37 17.37zM2613.32 2970.39h-53.5c-9.59 0-17.37-7.77-17.37-17.37v-98.77c0-9.59 7.77-17.37 17.37-17.37h53.5c9.59 0 17.37 7.77 17.37 17.37v98.77c-.01 9.6-7.78 17.37-17.37 17.37zM2724.15 2970.39h-53.5c-9.59 0-17.37-7.77-17.37-17.37v-98.77c0-9.59 7.77-17.37 17.37-17.37h53.5c9.59 0 17.37 7.77 17.37 17.37v98.77c0 9.6-7.78 17.37-17.37 17.37zM2834.99 2970.39h-53.5c-9.59 0-17.37-7.77-17.37-17.37v-98.77c0-9.59 7.77-17.37 17.37-17.37h53.5c9.59 0 17.37 7.77 17.37 17.37v98.77c-.01 9.6-7.78 17.37-17.37 17.37zM2945.82 2970.39h-53.5c-9.59 0-17.37-7.77-17.37-17.37v-98.77c0-9.59 7.77-17.37 17.37-17.37h53.5c9.59 0 17.37 7.77 17.37 17.37v98.77c0 9.6-7.78 17.37-17.37 17.37zM3056.66 2970.39h-53.5c-9.59 0-17.37-7.77-17.37-17.37v-98.77c0-9.59 7.77-17.37 17.37-17.37h53.5c9.59 0 17.37 7.77 17.37 17.37v98.77c-.01 9.6-7.78 17.37-17.37 17.37zM3167.49 2970.39H3114c-9.59 0-17.37-7.77-17.37-17.37v-98.77c0-9.59 7.77-17.37 17.37-17.37h53.5c9.59 0 17.37 7.77 17.37 17.37v98.77c-.01 9.6-7.79 17.37-17.38 17.37zM3278.33 2970.39h-53.5c-9.59 0-17.37-7.77-17.37-17.37v-98.77c0-9.59 7.77-17.37 17.37-17.37h53.5c9.59 0 17.37 7.77 17.37 17.37v98.77c-.01 9.6-7.78 17.37-17.37 17.37zM3389.16 2970.39h-53.5c-9.59 0-17.37-7.77-17.37-17.37v-98.77c0-9.59 7.77-17.37 17.37-17.37h53.5c9.59 0 17.37 7.77 17.37 17.37v98.77c0 9.6-7.78 17.37-17.37 17.37zM3517.36 2872.16v80.87c0 9.59-7.77 17.37-17.37 17.37h-53.5c-9.59 0-17.37-7.77-17.37-17.37v-98.77c0-9.59 7.77-17.37 17.37-17.37h53.5"/><g><path class="st40" d="M2549.3 3166.16h-53.5c-9.59 0-17.37-7.77-17.37-17.37v-98.77c0-9.59 7.77-17.37 17.37-17.37h53.5c9.59 0 17.37 7.77 17.37 17.37v98.77c-.01 9.6-7.78 17.37-17.37 17.37zM2660.13 3166.16h-53.5c-9.59 0-17.37-7.77-17.37-17.37v-98.77c0-9.59 7.77-17.37 17.37-17.37h53.5c9.59 0 17.37 7.77 17.37 17.37v98.77c0 9.6-7.78 17.37-17.37 17.37zM2770.97 3166.16h-53.5c-9.59 0-17.37-7.77-17.37-17.37v-98.77c0-9.59 7.77-17.37 17.37-17.37h53.5c9.59 0 17.37 7.77 17.37 17.37v98.77c-.01 9.6-7.78 17.37-17.37 17.37zM2881.8 3166.16h-53.5c-9.59 0-17.37-7.77-17.37-17.37v-98.77c0-9.59 7.77-17.37 17.37-17.37h53.5c9.59 0 17.37 7.77 17.37 17.37v98.77c0 9.6-7.78 17.37-17.37 17.37zM2992.64 3166.16h-53.5c-9.59 0-17.37-7.77-17.37-17.37v-98.77c0-9.59 7.77-17.37 17.37-17.37h53.5c9.59 0 17.37 7.77 17.37 17.37v98.77c-.01 9.6-7.78 17.37-17.37 17.37zM3103.47 3166.16h-53.5c-9.59 0-17.37-7.77-17.37-17.37v-98.77c0-9.59 7.77-17.37 17.37-17.37h53.5c9.59 0 17.37 7.77 17.37 17.37v98.77c0 9.6-7.78 17.37-17.37 17.37zM3214.31 3166.16h-53.5c-9.59 0-17.37-7.77-17.37-17.37v-98.77c0-9.59 7.77-17.37 17.37-17.37h53.5c9.59 0 17.37 7.77 17.37 17.37v98.77c-.01 9.6-7.78 17.37-17.37 17.37zM3325.14 3166.16h-53.5c-9.59 0-17.37-7.77-17.37-17.37v-98.77c0-9.59 7.77-17.37 17.37-17.37h53.5c9.59 0 17.37 7.77 17.37 17.37v98.77c0 9.6-7.78 17.37-17.37 17.37zM3435.98 3166.16h-53.5c-9.59 0-17.37-7.77-17.37-17.37v-98.77c0-9.59 7.77-17.37 17.37-17.37h53.5c9.59 0 17.37 7.77 17.37 17.37v98.77c-.01 9.6-7.78 17.37-17.37 17.37z"/></g><g><path class="st40" d="M2549.3 3228.43h-92.71c1.91 8.39 17.92 124.65 19.09 133.5h73.62c9.59 0 17.37-7.77 17.37-17.37v-98.77c-.01-9.59-7.78-17.36-17.37-17.36zM2660.13 3361.93h-53.5c-9.59 0-17.37-7.77-17.37-17.37v-98.77c0-9.59 7.77-17.37 17.37-17.37h53.5c9.59 0 17.37 7.77 17.37 17.37v98.77c0 9.6-7.78 17.37-17.37 17.37zM2770.97 3361.93h-53.5c-9.59 0-17.37-7.77-17.37-17.37v-98.77c0-9.59 7.77-17.37 17.37-17.37h53.5c9.59 0 17.37 7.77 17.37 17.37v98.77c-.01 9.6-7.78 17.37-17.37 17.37zM2881.8 3361.93h-53.5c-9.59 0-17.37-7.77-17.37-17.37v-98.77c0-9.59 7.77-17.37 17.37-17.37h53.5c9.59 0 17.37 7.77 17.37 17.37v98.77c0 9.6-7.78 17.37-17.37 17.37zM2992.64 3361.93h-53.5c-9.59 0-17.37-7.77-17.37-17.37v-98.77c0-9.59 7.77-17.37 17.37-17.37h53.5c9.59 0 17.37 7.77 17.37 17.37v98.77c-.01 9.6-7.78 17.37-17.37 17.37zM3103.47 3361.93h-53.5c-9.59 0-17.37-7.77-17.37-17.37v-98.77c0-9.59 7.77-17.37 17.37-17.37h53.5c9.59 0 17.37 7.77 17.37 17.37v98.77c0 9.6-7.78 17.37-17.37 17.37zM3214.31 3361.93h-53.5c-9.59 0-17.37-7.77-17.37-17.37v-98.77c0-9.59 7.77-17.37 17.37-17.37h53.5c9.59 0 17.37 7.77 17.37 17.37v98.77c-.01 9.6-7.78 17.37-17.37 17.37zM3325.14 3361.93h-53.5c-9.59 0-17.37-7.77-17.37-17.37v-98.77c0-9.59 7.77-17.37 17.37-17.37h53.5c9.59 0 17.37 7.77 17.37 17.37v98.77c0 9.6-7.78 17.37-17.37 17.37zM3517.36 3361.93h-134.88c-9.59 0-17.37-7.77-17.37-17.37v-98.77c0-9.59 7.77-17.37 17.37-17.37h134.88c9.59 0 17.37 7.77 17.37 17.37v98.77c0 9.6-7.78 17.37-17.37 17.37z"/></g><g><path class="st40" d="M2549.3 3408.97h-70.01c1.91 8.39 7.7 124.65 8.87 133.5h61.15c9.59 0 17.37-7.77 17.37-17.37v-98.77c-.02-9.59-7.79-17.36-17.38-17.36zM2709.78 3542.47h-103.15c-9.59 0-17.37-7.77-17.37-17.37v-98.77c0-9.59 7.77-17.37 17.37-17.37h103.15c9.59 0 17.37 7.77 17.37 17.37v98.77c0 9.59-7.77 17.37-17.37 17.37zM3225.82 3542.47h-463.21c-9.59 0-17.37-7.77-17.37-17.37v-98.77c0-9.59 7.77-17.37 17.37-17.37h463.21c9.59 0 17.37 7.77 17.37 17.37v98.77c0 9.59-7.78 17.37-17.37 17.37zM3452.69 3542.47h-165.18c-9.59 0-17.37-7.77-17.37-17.37v-98.77c0-9.59 7.77-17.37 17.37-17.37h229.85c9.59 0 17.37 7.77 17.37 17.37v33.55"/></g><path class="st40" d="M3350.14 2497.49h-746.59c-64.76 0-117.26 52.5-117.26 117.26 0 64.32 51.82 116.64 116.14 117.25l835.37-3.89c-2.38-2.91-99.58-181.86-87.66-230.62z"/></g><path class="st40" d="M2364.06 2804.02h1059.63M2420.34 2804.02h1059.63"/><g><path class="st12" d="M2620.58 1998.25h705.93c34.92 0 63.22 28.3 63.22 63.22v288.45c0 9.44-12.17 13.25-17.56 5.5l-47.93-69.04h-703.66c-34.91 0-63.22-28.3-63.22-63.22v-161.68c0-34.93 28.31-63.23 63.22-63.23z"/><path class="st40" d="M2602.49 1984.11h705.93c34.92 0 63.22 28.3 63.22 63.22v288.45c0 9.44-12.17 13.25-17.56 5.5l-47.93-69.04h-703.66c-34.92 0-63.22-28.3-63.22-63.22v-161.68c0-34.93 28.31-63.23 63.22-63.23z"/></g><g><path class="st9" d="M3306.03 1459.44H2600.1c-34.91 0-63.22 28.3-63.22 63.22v414.46c0 9.44 12.17 13.25 17.56 5.5l47.93-69.04h703.66c34.92 0 63.22-28.3 63.22-63.22v-287.69c0-34.92-28.31-63.23-63.22-63.23z"/><path class="st40" d="M3321.2 1442.53h-705.93c-34.92 0-63.22 28.3-63.22 63.22v414.46c0 9.44 12.17 13.25 17.56 5.5l47.93-69.04h703.66c34.92 0 63.22-28.3 63.22-63.22v-287.69c0-34.93-28.3-63.23-63.22-63.23z"/></g><path class="st39" d="M2178.87 1990.44s70.64 19.62 176.61-164.84c54.53-94.92-60.83-82.42-60.83-82.42l-115.78 247.26zM3493.43 3687.26s104.24-22.5 135.41-66.66-26.07-160.91-26.07-160.91-115.28-36.31-139.38 35.98c-13.83 41.49 30.04 191.59 30.04 191.59zM3577.24 2535.31s-37.11 30.04-146.69-74.23l-61.86-56.56s30.88-57 68.93-37.11 139.62 167.9 139.62 167.9zM3681.52 2655.49l5.3-47.72s40.03-9.86 55.93 20.18l17.82 124.4-79.05-96.86zM3702.72 2100.54l-3.53 67.16s26.73 2.43 51.25 14.14 46.83 32.7 47.72 30.04c1.77-5.3-26.51-49.49-47.72-63.62-21.2-14.14-47.72-47.72-47.72-47.72zM3614.36 3061.98l-26.26 48.66 70.44 20.27z"/><path class="st41" d="M3258.26 1552.3l-613.06 6.81M2645.2 1668.1c20.44 0 475.08 8.52 475.08 8.52M3299.13 2083.61H2645.2M2645.2 2192.6l504.07-6.81"/></g><circle class="st39" cx="4399.94" cy="2740.46" r="10.65"/></g></svg>