<?xml version="1.0" encoding="utf-8"?>
<!-- Generator: Adobe Illustrator 23.0.6, SVG Export Plug-In . SVG Version: 6.00 Build 0)  -->
<svg version="1.1" id="Layer_1" xmlns="http://www.w3.org/2000/svg" xmlns:xlink="http://www.w3.org/1999/xlink" x="0px" y="0px"
	 viewBox="0 0 841.9 467.7" style="enable-background:new 0 0 841.9 467.7;" xml:space="preserve">
<style type="text/css">
	.st0{clip-path:url(#SVGID_2_);}
	.st1{fill:#F4F4F5;}
	.st2{fill:#54575C;}
	.st3{fill:#61A575;}
	.st4{fill:none;stroke:#54575C;stroke-width:0.6647;}
	.st5{fill:#E0635D;}
	.st6{fill:#FFFFFF;}
	.st7{fill:#DCEFFA;}
	.st8{fill:none;stroke:#54575C;stroke-width:0.6533;}
	.st9{fill:none;stroke:#54575C;stroke-width:0.6963;}
	.st10{fill:none;stroke:#54575C;stroke-width:0.4869;}
	.st11{fill:#4890BA;}
	.st12{fill:#F7B269;}
	.st13{clip-path:url(#SVGID_4_);}
	.st14{fill:none;}
	.st15{fill:none;stroke:#54575C;stroke-width:0.5374;}
	.st16{fill:#F5C65D;}
	.st17{fill:none;stroke:#54575C;stroke-width:0.5047;}
	.st18{enable-background:new    ;}
	.st19{fill:#D16F46;}
</style>
<title>Developing a consumer-to-business messaging service</title>
<g>
	<defs>
		<rect id="SVGID_1_" x="0.1" y="-0.4" width="841.6" height="468.6"/>
	</defs>
	<clipPath id="SVGID_2_">
		<use xlink:href="#SVGID_1_"  style="overflow:visible;"/>
	</clipPath>
	<g class="st0">
		<rect x="0.1" y="-0.4" class="st1" width="841.6" height="468.6"/>
		<polygon class="st2" points="466.5,436.1 547.1,436.1 519.4,416.4 466.7,430.2 		"/>
		<path class="st3" d="M593.7,378.6c-6.9,17.6-3.6,37.7,8.7,52.1h155.4c3.6-11.3,3.2-23.6-1.2-34.6c3-6.7,4.6-13.9,4.6-21.2
			c0-29.2-24.7-52.9-55.1-52.9c-8.2,0-16.3,1.7-23.7,5.1c-5.1-24.2-27.3-42.4-54-42.4c-30.4,0-55.1,23.7-55.1,52.9
			C573.5,353.7,581,368.8,593.7,378.6z"/>
		<path class="st4" d="M596.8,379.4c-6.9,17.6-3.6,37.7,8.7,52.1h155.4c3.6-11.3,3.2-23.6-1.2-34.6c3-6.7,4.6-13.9,4.6-21.2
			c0-29.2-24.7-52.9-55.1-52.9c-8.2,0-16.3,1.7-23.7,5.1c-5.1-24.2-27.3-42.4-54-42.4c-30.4,0-55.1,23.7-55.1,52.9
			C576.6,354.5,584.1,369.6,596.8,379.4z"/>
		<path class="st3" d="M96.2,384.9c-6.1,15.6-3.2,33.3,7.7,46h137.4c3.2-10,2.8-20.8-1-30.6c2.7-5.9,4.1-12.3,4.1-18.8
			c0-25.8-21.8-46.8-48.7-46.8c-7.2,0-14.4,1.5-21,4.5c-4.5-21.4-24.1-37.5-47.7-37.5c-26.9,0-48.7,20.9-48.7,46.8
			C78.3,362.8,84.9,376.2,96.2,384.9z"/>
		<path class="st4" d="M91.3,385.1c-6.1,15.6-3.2,33.3,7.7,46h137.4c3.2-10,2.8-20.8-1-30.6c2.7-5.9,4.1-12.3,4.1-18.8
			c0-25.8-21.8-46.8-48.7-46.8c-7.2,0-14.4,1.5-21,4.5c-4.5-21.4-24.1-37.5-47.7-37.5c-26.9,0-48.7,20.9-48.7,46.8
			C73.4,363.1,80,376.5,91.3,385.1z"/>
		<polygon class="st5" points="622.4,215.4 612.6,189.7 607.9,189.7 607.1,189.7 212.8,189.7 197.2,189.7 185.4,216.5 186.1,216.5 
			212.8,216.5 488.6,216.5 494.9,216.5 523.1,216.5 540.6,216.5 607.1,216.5 622.8,216.5 		"/>
		<polygon class="st6" points="607.9,96.2 208.2,94 197.2,189.7 197.2,189.7 212.8,189.7 607.1,189.7 607.9,189.7 612.6,189.7 		"/>
		<path class="st6" d="M360.4,230.5c-1.4,4.2-5.3,7.1-9.8,7.1h-10.9c-5,0-9.2-3.5-10.1-8.4c-0.9,4.9-5.2,8.4-10.1,8.4h-10.9
			c-5,0-9.2-3.5-10.1-8.4c-0.9,4.9-5.2,8.4-10.1,8.4h-10.9c-5,0-9.2-3.5-10.1-8.4c-0.9,4.9-5.2,8.4-10.1,8.4h-10.9
			c-5,0-9.2-3.5-10.1-8.4c-0.9,4.9-5.2,8.4-10.1,8.4h-10.9c-0.8,0-1.6-0.1-2.4-0.3v196.5h153V236.6
			C363.3,235.3,361.3,233.1,360.4,230.5z"/>
		<path class="st6" d="M454.1,231.3v202.4h11.3V237.6h-1.8C459.5,237.6,455.7,235.1,454.1,231.3z"/>
		<path class="st1" d="M453.7,230.2c-0.9,3.2-3.3,5.8-6.4,6.9v139.5h-75.6v-139h-1.3c-1.6,0-3.1-0.3-4.5-1v197.2h88.3V231.3
			C453.9,231,453.8,230.6,453.7,230.2z"/>
		<path class="st7" d="M432.9,237.7c-4.7,0-8.9-3.2-10-7.8c-1.2,4.5-5.4,7.7-10.1,7.7h-11.4c-4.5,0-8.5-2.9-9.9-7.1
			c-1.4,4.3-5.4,7.1-9.9,7.1h-10v139h75.6V237.1c-1.1,0.4-2.3,0.6-3.5,0.6L432.9,237.7z"/>
		<path class="st1" d="M550.5,235.4v141.2l-25.6-10.8V237.5c-1.1-0.1-2.1-0.4-3.1-0.9v177.2l24.2,20h7.6V237.1
			C552.5,236.7,551.5,236.2,550.5,235.4z"/>
		<path class="st7" d="M546.9,230.2c-1.3,4.4-5.3,7.4-9.9,7.4h-10.9c-0.4,0-0.8,0-1.2-0.1v128.3l25.6,10.8V235.4
			C548.8,234.1,547.5,232.3,546.9,230.2z"/>
		<path class="st6" d="M598.2,237.7h-10.9c-4.5,0-8.5-2.9-9.8-7.2c-1.4,4.2-5.3,7.1-9.8,7.1h-10.9c-1.1,0-2.2-0.2-3.2-0.5v196.7
			h53.5V232.7C605.2,235.8,601.9,237.7,598.2,237.7z"/>
		<path class="st5" d="M185,216.6v10.7c0,5.7,4.6,10.3,10.3,10.3l2.8,0c3.4,0,6.7-1.7,8.6-4.6c1.9,2.9,5.1,4.6,8.6,4.6h10.9
			c5,0,9.2-3.5,10.1-8.4c0.9,4.9,5.2,8.4,10.1,8.4h10.9c5,0,9.2-3.5,10.1-8.4c0.9,4.9,5.2,8.4,10.1,8.4h10.9c5,0,9.2-3.5,10.1-8.4
			c0.9,4.9,5.2,8.4,10.1,8.4h10.9c5,0,9.2-3.5,10.1-8.4c0.9,4.9,5.2,8.4,10.1,8.4h10.9c4.5,0,8.4-2.9,9.8-7.1
			c1.4,4.3,5.4,7.1,9.9,7.1h11.3c4.5,0,8.5-2.9,9.9-7.1c1.4,4.3,5.4,7.1,9.9,7.1h11.4c4.7,0,8.8-3.1,10.1-7.7
			c1.1,4.6,5.3,7.9,10,7.8h10.9c4.6,0,8.7-3.1,9.9-7.5c0.1,0.4,0.2,0.7,0.4,1.1c1.7,3.8,5.4,6.3,9.6,6.3h11.4c3.9,0,7.5-2.2,9.3-5.7
			c2,3.3,5.5,5.3,9.3,5.3h13.1c4.2,0,8-2.4,9.8-6.2c1.4,3.6,4.6,6.1,8.4,6.5c0.4,0,0.8,0.1,1.2,0.1H537c4.6,0,8.6-3,9.9-7.4
			c1.3,4.4,5.3,7.4,9.9,7.4h10.9c4.5,0,8.4-2.9,9.8-7.1c1.3,4.3,5.3,7.3,9.8,7.2h10.9c3.6,0,7-1.9,8.9-5.1c0.1-0.2,0.2-0.4,0.3-0.6
			c1.2,2.3,3.1,4.1,5.4,5.3c5.7,0,10.3-4.6,10.3-10.3v-10.7L185,216.6z"/>
		<polygon class="st8" points="618.8,217.6 609,191.8 604.4,191.8 603.5,191.8 209.3,191.8 193.6,191.8 181.8,218.7 182.6,218.7 
			209.3,218.7 485.1,218.7 491.3,218.7 519.6,218.7 537.1,218.7 603.5,218.7 619.2,218.7 		"/>
		<polygon class="st8" points="604.4,98.4 204.7,96.2 193.6,191.8 193.6,191.8 209.3,191.8 603.5,191.8 604.4,191.8 609,191.8 		"/>
		<line class="st8" x1="209.3" y1="191.8" x2="200.6" y2="218.3"/>
		<line class="st8" x1="238.8" y1="191.8" x2="231.6" y2="218.3"/>
		<line class="st8" x1="268.4" y1="191.8" x2="262.6" y2="218.4"/>
		<line class="st8" x1="298" y1="191.8" x2="293.6" y2="218.4"/>
		<line class="st8" x1="327.6" y1="191.7" x2="324.6" y2="218.4"/>
		<line class="st8" x1="357.2" y1="191.7" x2="355.6" y2="218.5"/>
		<line class="st8" x1="386.8" y1="191.7" x2="386.6" y2="218.5"/>
		<line class="st8" x1="416.4" y1="191.6" x2="417.6" y2="218.5"/>
		<line class="st8" x1="446" y1="191.6" x2="448.6" y2="218.5"/>
		<line class="st8" x1="475.6" y1="191.6" x2="479.6" y2="218.6"/>
		<line class="st8" x1="505.2" y1="191.5" x2="510.5" y2="218.6"/>
		<line class="st8" x1="534.8" y1="191.5" x2="541.5" y2="218.6"/>
		<line class="st8" x1="564.3" y1="191.5" x2="572.5" y2="218.7"/>
		<line class="st8" x1="593.9" y1="191.4" x2="603.5" y2="218.7"/>
		<path class="st9" d="M356.9,232.6c-1.4,4.2-5.3,7.1-9.8,7.1h-10.9c-5,0-9.2-3.5-10.1-8.4c-0.9,4.9-5.2,8.4-10.1,8.4h-10.9
			c-5,0-9.2-3.5-10.1-8.4c-0.9,4.9-5.2,8.4-10.1,8.4h-10.9c-5,0-9.2-3.5-10.1-8.4c-0.9,4.9-5.2,8.4-10.1,8.4h-10.9
			c-5,0-9.2-3.5-10.1-8.4c-0.9,4.9-5.2,8.4-10.1,8.4h-10.9c-0.8,0-1.6-0.1-2.4-0.3v196.5h153V238.7
			C359.7,237.5,357.8,235.3,356.9,232.6z"/>
		<path class="st9" d="M450.5,233.5v202.4h11.3V239.8h-1.8C455.9,239.8,452.2,237.3,450.5,233.5z"/>
		<path class="st9" d="M450.1,232.4c-0.9,3.2-3.3,5.8-6.4,6.9v139.5h-75.6V239.8h-1.3c-1.6,0-3.1-0.3-4.5-1v197.2h88.3V233.5
			C450.4,233.1,450.2,232.8,450.1,232.4z"/>
		<path class="st9" d="M429.3,239.9c-4.7,0-8.9-3.2-10-7.8c-1.2,4.5-5.4,7.7-10.1,7.7h-11.4c-4.5,0-8.5-2.9-9.9-7.1
			c-1.4,4.3-5.4,7.1-9.9,7.1h-10v139h75.6V239.3c-1.1,0.4-2.3,0.6-3.5,0.6H429.3z"/>
		<path class="st10" d="M547,237.6v141.2L521.3,368V239.7c-1.1-0.1-2.1-0.4-3.1-0.9V416l24.2,20h7.6V239.2
			C548.9,238.9,547.9,238.3,547,237.6z"/>
		<path class="st10" d="M543.4,232.3c-1.3,4.4-5.3,7.4-9.9,7.4h-10.9c-0.4,0-0.8,0-1.2-0.1V368l25.6,10.8V237.6
			C545.2,236.3,544,234.4,543.4,232.3z"/>
		<path class="st9" d="M594.7,239.9h-10.9c-4.5,0-8.5-2.9-9.8-7.2c-1.4,4.2-5.3,7.1-9.8,7.1h-10.9c-1.1,0-2.2-0.2-3.2-0.5v196.7
			h53.5V234.8C601.7,238,598.3,239.9,594.7,239.9z"/>
		<path class="st9" d="M181.4,218.8v10.7c0,5.7,4.6,10.3,10.3,10.3l2.8,0c3.4,0,6.7-1.7,8.6-4.6c1.9,2.9,5.1,4.6,8.6,4.6h10.9
			c5,0,9.2-3.5,10.1-8.4c0.9,4.9,5.2,8.4,10.1,8.4h10.9c5,0,9.2-3.5,10.1-8.4c0.9,4.9,5.2,8.4,10.1,8.4h10.9c5,0,9.2-3.5,10.1-8.4
			c0.9,4.9,5.2,8.4,10.1,8.4h10.9c5,0,9.2-3.5,10.1-8.4c0.9,4.9,5.2,8.4,10.1,8.4h10.9c4.5,0,8.4-2.9,9.8-7.1
			c1.4,4.3,5.4,7.1,9.9,7.1h11.3c4.5,0,8.5-2.9,9.9-7.1c1.4,4.3,5.4,7.1,9.9,7.1h11.4c4.7,0,8.8-3.1,10.1-7.7
			c1.1,4.6,5.3,7.9,10,7.8h10.9c4.6,0,8.7-3.1,9.9-7.5c0.1,0.4,0.2,0.7,0.4,1.1c1.7,3.8,5.4,6.3,9.6,6.3h11.4c3.9,0,7.5-2.2,9.3-5.7
			c2,3.3,5.5,5.3,9.3,5.3h13.1c4.2,0,8-2.4,9.8-6.2c1.4,3.6,4.6,6.1,8.4,6.5c0.4,0,0.8,0.1,1.2,0.1h10.9c4.6,0,8.6-3,9.9-7.4
			c1.3,4.4,5.3,7.4,9.9,7.4h10.9c4.5,0,8.4-2.9,9.8-7.1c1.3,4.3,5.3,7.3,9.8,7.2h10.9c3.6,0,7-1.9,8.9-5.1c0.1-0.2,0.2-0.4,0.3-0.6
			c1.2,2.3,3.1,4.1,5.4,5.3c5.7,0,10.3-4.6,10.3-10.3v-10.7L181.4,218.8z"/>
		<line class="st8" x1="410.1" y1="244.1" x2="439.5" y2="271"/>
		<line class="st8" x1="428.7" y1="244" x2="441.7" y2="255.4"/>
		<line class="st8" x1="208.6" y1="435.6" x2="26.2" y2="435.6"/>
		<line class="st8" x1="815.7" y1="435.6" x2="609.1" y2="435.6"/>
		<path class="st6" d="M537.6,115.8l106.6,0c5.3,0,9.5,4.2,9.5,9.5l0,19.2l0,20.3l0,9.6c0,0.8-0.7,1.5-1.5,1.5
			c-0.5,0-0.9-0.2-1.2-0.6l-7.2-10.4l-106.2,0c-5.3,0-9.5-4.2-9.5-9.5l0-30C528.1,120,532.4,115.8,537.6,115.8L537.6,115.8z"/>
		<path class="st3" d="M534.8,117.8l106.6,0c5.3,0,9.5,4.2,9.5,9.5l0,19.2l0,20.3l0,9.6c0,0.8-0.7,1.5-1.5,1.5
			c-0.5,0-0.9-0.2-1.2-0.6l-7.2-10.4l-106.2,0c-5.3,0-9.5-4.2-9.5-9.5l0-30C525.2,122.1,529.5,117.8,534.8,117.8z"/>
		<path class="st8" d="M537.6,115.8l106.6,0c5.3,0,9.5,4.2,9.5,9.5l0,19.2l0,20.3l0,9.6c0,0.8-0.7,1.5-1.5,1.5
			c-0.5,0-0.9-0.2-1.2-0.6l-7.2-10.4l-106.2,0c-5.3,0-9.5-4.2-9.5-9.5l0-30C528.1,120,532.4,115.8,537.6,115.8L537.6,115.8z"/>
		<line class="st8" x1="642.1" y1="130.1" x2="547.7" y2="130.1"/>
		<line class="st8" x1="616.2" y1="143.1" x2="547.7" y2="143.1"/>
		<path class="st6" d="M644.7,187.5l-106.6-1.1c-5.3-0.1-9.6,4.2-9.6,9.4l-0.4,43.6l-0.2,20.3l-0.1,9.6c0,0.8,0.6,1.5,1.4,1.5
			c0.5,0,0.9-0.2,1.2-0.6l7.3-10.3l106.2,1.1c5.3,0.1,9.6-4.2,9.6-9.4l0.6-54.4C654.2,191.8,650,187.5,644.7,187.5
			C644.7,187.5,644.7,187.5,644.7,187.5z"/>
		<path class="st11" d="M647.6,189.6L541,188.5c-5.3-0.1-9.6,4.2-9.6,9.4l-0.4,43.6l-0.2,20.3l-0.1,9.6c0,0.8,0.6,1.5,1.4,1.5
			c0.5,0,0.9-0.2,1.2-0.6l7.3-10.3l106.2,1.1c5.3,0.1,9.6-4.2,9.6-9.4l0.6-54.4C657.1,193.9,652.8,189.6,647.6,189.6
			C647.6,189.6,647.6,189.6,647.6,189.6z"/>
		<path class="st8" d="M644.7,187.5l-106.6-1.1c-5.3-0.1-9.6,4.2-9.6,9.4l-0.4,43.6l-0.2,20.3l-0.1,9.6c0,0.8,0.6,1.5,1.4,1.5
			c0.5,0,0.9-0.2,1.2-0.6l7.3-10.3l106.2,1.1c5.3,0.1,9.6-4.2,9.6-9.4l0.6-54.4C654.2,191.8,650,187.5,644.7,187.5
			C644.7,187.5,644.7,187.5,644.7,187.5z"/>
		<line class="st8" x1="642.4" y1="228" x2="548" y2="228"/>
		<line class="st8" x1="617.6" y1="240.9" x2="549.1" y2="240.9"/>
		<line class="st8" x1="642.4" y1="202.1" x2="548" y2="202.1"/>
		<line class="st8" x1="642.4" y1="215" x2="549.1" y2="215"/>
		<path class="st6" d="M492.4,298l-0.6,0l-5.4,0.3l1.5,5.1l0.8,1.3c0,0,1.3-2.3,2.7-2.8c0.3-0.1,0.6-0.1,0.9,0
			c1.1,0.3-0.2,2.4-1.3,3.9c-0.4,0.5-0.8,1.1-1.1,1.6c0,0.2,0.4,0.1,0.9-0.2c0.6-0.4,1-0.9,1.3-1.6c0.4-0.8,1.1-1.5,1.9-2
			C493.4,301.5,492.4,298,492.4,298z"/>
		<path class="st6" d="M508.2,311c0-0.1-0.1-0.2-0.1-0.2c-0.2-0.2-0.3-0.3-0.5-0.4l-2.6-0.9c0,0-1.3-3.9-2.1-4.2s-0.2-2-1.7-2.1
			c-0.4,0-1-0.1-1.6-0.2c-1.4-0.2-3-0.5-4-0.5c-0.1,0-0.2,0-0.3,0c-0.1,0-0.2,0-0.3,0.1c-0.3,0.1-0.4,0.4-0.4,0.8c0,0,0,0.1,0,0.1
			c0.2,0.1,0.4,0.3,0.6,0.5c0.1,0.1,0.1,0.1,0.2,0.2c0.1,0.1,0.1,0.2,0.1,0.3c0,0.3,1.2,0,1.1,0.7s1.4,0.3,1.3,1.7
			c-0.2,1.1-0.5,2.1-1,3c0.6,0.7,1.2,1.4,1.9,1.9c0.4,0.3,0.9,0.6,1.4,0.8c2.2,1.1,4.3,2.4,6.4,3.7c0,0,0.3-0.2,0.6-0.6
			C508,314.1,508.7,312.2,508.2,311z"/>
		<path class="st6" d="M496.5,305c0.1-0.7-1.1-0.4-1.1-0.7c0-0.1-0.1-0.2-0.1-0.3c-0.1-0.1-0.1-0.1-0.2-0.2
			c-0.2-0.2-0.4-0.3-0.6-0.5c0,0,0-0.1,0-0.1c-0.2,0.1-0.3,0.2-0.5,0.3c-0.8,0.5-1.5,1.2-1.9,2c-0.3,0.6-0.7,1.2-1.3,1.6
			c-0.5,0.3-1,0.4-0.9,0.2c0.3-0.6,0.7-1.1,1.1-1.6c1.1-1.5,2.4-3.6,1.3-3.9c-0.3-0.1-0.6-0.1-0.9,0c-1.4,0.5-2.7,2.8-2.7,2.8
			l-0.8-1.3l-0.1-0.2c0,0-1.8,3.1-1.8,4.5s-0.9,5.6-0.9,5.6s-1,4.2,0.8,4.6c1.2,0.2,2.5,0,3.7-0.4c0.8-0.3,1.3-0.5,1.3-0.7
			c-0.1-1.1,0-2.1,0.1-3.2c0.1,0,1.5-1,3-2c0.1-0.1,0.3-0.2,0.4-0.3c1.3-0.9,2.5-1.7,2.5-1.7c0.5-0.9,0.8-2,1-3
			C497.9,305.3,496.4,305.7,496.5,305z"/>
		<path class="st6" d="M505.3,430c-0.6-0.1-0.9-1-0.9-2.2c-0.4,0.4-0.8,0.8-1,1c-0.5,0.7,0.8,6.2,1.3,6.2s4.2,0.8,5.7-0.3
			s0-5.6,0-5.6S507.2,430.4,505.3,430z"/>
		<path class="st6" d="M517.9,372.7l-10.3,0.3c0.1,4.7,0.1,12.3-0.1,14.6c-0.3,3.4-2,29.3-2.3,31.7c-0.5,2.8-0.7,5.7-0.8,8.5
			c0.1,1.2,0.3,2.1,0.9,2.2c1.9,0.4,5.1-0.9,5.1-0.9s0.1-14.3,0.5-15.1s5.7-20.3,5.7-27C516.6,382.2,517,377.4,517.9,372.7z"/>
		<path class="st6" d="M495.9,429.9c-0.6-0.5-0.4-2.3-0.1-4.6c-1,1.9-2.2,4.7-2.1,6.3c0.1,2.7,4.9,3.5,6.5,3.9s1.8-1.6,2-3
			c0-1.4-0.2-2.8-0.8-4C500.4,429,496.8,430.7,495.9,429.9z"/>
		<path class="st6" d="M503.8,388.4c0-0.6,0.6-10,1-15.3l-12.6,0.3l0.3,0.7c0,0,2.6,10.4,1.8,14.4s2.6,26.6,2.3,31.1
			c-0.1,1.9-0.5,4-0.7,5.8c-0.3,2.3-0.5,4.1,0.1,4.6c0.9,0.8,4.6-0.9,5.6-1.4c0.2-0.1,0.3-0.1,0.3-0.1s-0.1-10.1-0.1-11.4
			S503.8,389.2,503.8,388.4z"/>
		<path class="st6" d="M496.9,285.4c0.1-0.3,0.2-0.7,0.3-1c0.2-1,1-1.7,1.9-1.8c-0.9-1.4-1.7-2.9-2.2-4.5c-0.7-2-0.1-7.2-0.1-7.2
			c1.1-0.9,2.1-2,3-3.1c0.5-1,5.3-1.1,5.2-0.2s1.9,2.4,2.8,2.9c1.9,1.7,3.6,3.6,5,5.8c0.3,0.8-1.5,1-1.5,1l-0.1,3.9
			c0,0-0.2,0.3-0.6,0.8l0.1,0l0.3,1l0.2-0.5c1.2,0.4,2.3,0.9,3.3,1.7c0.7,0.6,1.6,1.1,2.5,1.5l-0.1,0.5c1.1,0.1,2.2,0.3,3.2,0.6
			c0-0.2,0.1-0.3,0.2-0.4c0.8-0.7,1.7-2.3,0.3-3.5s-3.1-5.2-2.5-7.3s-1-5.4-2.5-6.4s1.9-0.1-0.7-2.1s-3-1.2-3.3-1.2
			s-0.6-2.7-1.6-2.7s-1.4-2-3.1-1.5s-3.2-0.4-3.5,0.4c0,0-1.3-0.8-2.2,0.8s-0.7,0-3,1.8s-3.3,3.3-5.3,5.7s-0.5,6.1-1.6,7.1
			s0.6,3.3-0.2,4.1s-2,3.2-1.4,4.1l0.5,0.9l0,0C492.3,285.6,494.6,285.3,496.9,285.4z"/>
		<path class="st6" d="M503.4,288.4L503.4,288.4L503.4,288.4L503.4,288.4z"/>
		<path class="st6" d="M501.1,285.1c0.3,0.3,0.7,0.6,1.1,0.8c2.2,1.1,3.1,1.8,5.1-0.1c1.2-1.2,2.4-2.5,3.4-3.8
			c0.4-0.5,0.6-0.8,0.6-0.8l0.1-3.9c0,0,1.8-0.2,1.5-1c-1.4-2.1-3.1-4.1-5-5.8c-0.9-0.5-2.9-2-2.8-2.9s-4.7-0.8-5.2,0.2
			c-0.9,1.2-1.9,2.2-3,3.1c0,0-0.6,5.3,0.1,7.2c0.6,1.6,1.3,3.1,2.2,4.5c0.4,0.6,0.7,1.1,1.2,1.6
			C500.6,284.6,500.8,284.8,501.1,285.1z"/>
		<path class="st6" d="M503.4,288.4L503.4,288.4l-2.3-3.3c-0.3-0.3-0.5-0.5-0.8-0.8c-0.4-0.5-0.8-1-1.2-1.6c-1,0.1-1.8,0.8-1.9,1.8
			c-0.1,0.3-0.2,0.6-0.3,1c-0.1,0.2-0.1,0.4-0.2,0.5c-0.7,1.8-1.6,3.8-1.6,3.8l1.6-1.6l1.9-1.9l2.3,1.1l2.3,1L503.4,288.4z"/>
		<path class="st6" d="M508.1,293.5c0-0.9,0.2-1.8,0.3-2.7c0.1-0.4,0.3-0.7,0.5-1l0-0.1l2.1-6.8l-0.3-1l-0.1,0
			c-1,1.4-2.2,2.6-3.4,3.8c-2,1.9-2.9,1.2-5.1,0.1c-0.4-0.2-0.8-0.5-1.1-0.8l2.3,3.2l0.1,0.1c1.2,1.5,2.1,3.2,2.5,5L508.1,293.5z"/>
		<path class="st6" d="M508.9,289.8l-0.5,1.8l0,0l1-1l0.6-0.6l1.3-1.3c0.6,0.7,1.3,1.3,2,1.8c0.8,0.3,1.6,0.6,2.5,0.9l1.1-5.4
			l0.1-0.5c-0.9-0.3-1.8-0.8-2.5-1.5c-1-0.7-2.1-1.3-3.3-1.7l-0.2,0.5L508.9,289.8L508.9,289.8z"/>
		<polygon class="st6" points="503.5,288.4 503.4,288.4 503.2,288.3 		"/>
		<path class="st6" d="M501,287.3l0,0.2L501,287.3z"/>
		<path class="st6" d="M515.8,321.5c-0.3-0.1-0.5-0.1-0.8-0.2C515.3,321.4,515.5,321.5,515.8,321.5z"/>
		<path class="st6" d="M515.9,321.6l-0.1,0L515.9,321.6z"/>
		<path class="st6" d="M516.6,321.7c-0.2-0.1-0.5-0.1-0.7-0.2C516.1,321.6,516.4,321.7,516.6,321.7z"/>
		<path class="st6" d="M517.5,321.9c-0.2-0.1-0.5-0.1-0.8-0.2C517,321.8,517.3,321.9,517.5,321.9z"/>
		<path class="st6" d="M517.6,322L517.6,322L517.6,322z"/>
		<path class="st6" d="M516.8,321.8l-0.1,0L516.8,321.8z"/>
		<path class="st6" d="M495.8,293.1l10.2,0.3c-0.4-1.9-1.3-3.6-2.5-5l0,0l0,0.1l-0.2-0.1l-2.3-1l0,0.2l0-0.2l-2.3-1.1l-1.9,1.9
			l-1.6,1.6c0,0,0.9-2,1.6-3.8c0.1-0.2,0.1-0.4,0.2-0.5c-2.3-0.1-4.7,0.2-6.9,0.9c-1.2,0.4-2.1,1.2-2.7,2.2
			c-1.8,3.7-5.3,28.9-4.6,30.7c0.6,1.5,3.2,5.8,5.8,5c0.4-0.1,0.7-0.4,1-0.7c1.6-1.6,2.8-4.6,3.6-6.9c0.6-1.8,0.9-3.2,0.9-3.2l0.2-2
			c-0.1,0.1-0.3,0.2-0.4,0.3c-1.4,1-2.9,1.9-3,2c-0.1,1.1-0.2,2.1-0.1,3.2c0,0.2-0.6,0.5-1.3,0.7c-1.2,0.4-2.5,0.6-3.7,0.4
			c-1.8-0.4-0.8-4.6-0.8-4.6s0.9-4.2,0.9-5.6s1.8-4.5,1.8-4.5l0.1,0.2l-1.5-5.1l5.4-0.3l0.6,0c0,0,1,3.5,1.6,5.6
			c0.2-0.1,0.4-0.2,0.5-0.3c-0.1-0.3,0.1-0.6,0.4-0.8c0.1,0,0.2-0.1,0.3-0.1c0.1,0,0.2,0,0.3,0c0,0,0.1,0,0.1,0c0-0.6-0.1-1-0.1-1
			L495.8,293.1z"/>
		<path class="st6" d="M514.7,311c-0.1-0.7,1-17.3,1-17.3l-7.6-0.2l-2.1-0.1l-10.2-0.3l-0.2,8.3c0,0,0,0.4,0.1,1
			c1.1,0.1,5.1,0.7,5.5,0.7c1.5,0.1,0.9,1.7,1.7,2.1s2.1,4.2,2.1,4.2l1.9,0.6c0,0,4.2,0.7,7.9,1.4
			C514.8,311.4,514.8,311.2,514.7,311z"/>
		<path class="st6" d="M518.3,322.1c-0.2,0-0.5-0.1-0.7-0.1C517.8,322,518.1,322,518.3,322.1z"/>
		<path class="st6" d="M524.7,290.8c-0.4-2.4-2.6-3.6-4.5-4.1c-1.1-0.3-2.1-0.5-3.2-0.6l-1.1,5.4c-0.8-0.2-1.7-0.5-2.5-0.9
			c-0.7-0.6-1.4-1.2-2-1.8L510,290l-0.6,0.6l-1,1l0,0l0.5-1.8c-0.2,0.3-0.4,0.7-0.5,1c-0.2,0.9-0.3,1.8-0.3,2.7l7.6,0.2
			c0,0-1.1,16.6-1,17.3c0,0.2,0,0.3,0.1,0.5c-3.8-0.7-7.9-1.4-7.9-1.4l0.7,0.2c0.2,0.1,0.4,0.3,0.5,0.4c0,0.1,0.1,0.1,0.1,0.2
			c0.5,1.2-0.2,3.1-1,4.7c-0.4,0.8-0.9,1.6-1.5,2.4c1.4,0.9,3,1.5,4.6,1.9c1.4,0.5,3.1,1,4.8,1.4c0.3,0.1,0.5,0.1,0.8,0.2l0.1,0
			c0.2,0.1,0.5,0.1,0.7,0.2l0.1,0c0.3,0.1,0.5,0.1,0.8,0.2l0.1,0c0.2,0,0.5,0.1,0.7,0.1l0.1,0c1.3,0.3,2.6,0.4,4,0.5
			c0.1,0,0.2,0,0.3,0c1.2,0.2,2.4-0.1,3.5-0.6C528.2,320.6,525.4,295.2,524.7,290.8z"/>
		<path class="st6" d="M518.4,322.1L518.4,322.1L518.4,322.1C518.3,322.1,518.3,322.1,518.4,322.1z"/>
		<path class="st6" d="M491,373.4l1.2,0l12.6-0.3l2.7-0.1l10.3-0.3l3.2-0.1l0.6-4.3l-31.6,0.9C490.6,371.7,491,373.4,491,373.4z"/>
		<path class="st6" d="M518.4,322.1c-1.1-0.2-2.2-0.5-3.4-0.8c-1.7-0.4-3.3-0.9-4.8-1.4c-1.6-0.4-3.1-1.1-4.6-1.9
			c0.5-0.8,1-1.5,1.5-2.4c-0.3,0.4-0.6,0.6-0.6,0.6c-2.1-1.4-4.2-2.6-6.4-3.7c-0.5-0.2-1-0.5-1.4-0.8c-0.7-0.6-1.4-1.2-1.9-1.9
			c0,0-0.4,0.3-1,0.7l0,0c-0.5,0.3-1.1,0.7-1.4,1l-0.2,2c-0.1,1.1-0.5,2.2-0.9,3.2c-1,2.1-1.2,3.8-2.5,5.6c-0.2,0.3-1.4,5.9-1.4,6.1
			l0,0.1c-0.6,3.2-5.1,28.5-0.8,40.8l1.7,0l31.6-0.9l2.4-0.1C524.1,368.3,527.6,356.4,518.4,322.1z"/>
		<path class="st6" d="M495.8,293.1c0-0.4,2.9-6.9,2.9-6.9l1.3,0.7l-2,6.1L495.8,293.1z"/>
		<path class="st6" d="M515.7,293.8c-0.4-0.2,0.1-2.4,0.1-2.4l-2.5-0.9l-0.5,3.1L515.7,293.8z"/>
		<path class="st6" d="M490.7,322.3c0,0,22,4.8,28.2,1.2l-0.4-1.4c0,0-20.4,0.4-26.3-2.2L490.7,322.3z"/>
		<path class="st6" d="M498.7,298.1l-0.4,4.7c0.4,0.1,0.8,0.1,1.2,0.2c0.6,0.1,1.2,0.2,1.6,0.2c1.5,0.1,0.9,1.7,1.7,2.1
			s2.1,4.2,2.1,4.2l1,0.3l3.7,0.3c1.4,0.1,2.7-1,2.8-2.4c0,0,0-0.1,0-0.1l0.3-8.6C512.8,299,500.1,298.2,498.7,298.1z"/>
		<path class="st12" d="M506.6,311.7c0-0.1-0.1-0.2-0.1-0.2c-0.2-0.2-0.3-0.3-0.5-0.4l-2.6-0.9c0,0-1.3-3.9-2.1-4.2s-0.2-2-1.7-2.1
			c-0.4,0-1-0.1-1.6-0.2c-1.4-0.2-3-0.5-4-0.5c-0.1,0-0.2,0-0.3,0c-0.1,0-0.2,0-0.3,0.1c-0.3,0.1-0.4,0.4-0.4,0.8c0,0,0,0.1,0,0.1
			c0,0,1.4-1,1.6-0.8c0.1,0.1,0.8,0.9,0.9,0.9c0.1,0.1-0.1,0.7-0.1,0.8c0,0.3-0.3,0-0.4,0.7s1.4,0.3,1.3,1.7c-0.2,1.1-0.5,2.1-1,3
			c0.6,0.7,1.2,1.4,1.9,1.9c0.4,0.3,0.9,0.6,1.4,0.8c2.2,1.1,4.3,2.4,6.4,3.7c0,0,0.3-0.2,0.6-0.6
			C506.3,314.9,507.1,312.9,506.6,311.7z"/>
		<path class="st12" d="M519.1,372.5l-10.3,0.3c0.1,4.7,0.1,12.3-0.1,14.6c-0.3,3.4-2,29.3-2.3,31.7c-0.5,2.8-0.7,5.7-0.8,8.5
			c0.1,1.2,0.3,2.1,0.9,2.2c1.9,0.4,5.1-0.9,5.1-0.9s0.1-14.3,0.5-15.1s5.7-20.3,5.7-27C517.8,382,518.2,377.2,519.1,372.5z"/>
		<path class="st12" d="M505.4,388.4c0-0.6,0.6-10,1-15.3l-12.6,0.3l0.3,0.7c0,0,2.6,10.4,1.8,14.4s2.6,26.6,2.3,31.1
			c-0.1,1.9-0.5,4-0.7,5.8c-0.3,2.3-0.5,4.1,0.1,4.6c0.9,0.8,4.6-0.9,5.6-1.4c0.2-0.1,0.3-0.1,0.3-0.1s-0.1-10.1-0.1-11.4
			S505.4,389.2,505.4,388.4z"/>
		<path class="st11" d="M502,288.5L502,288.5L502,288.5L502,288.5z"/>
		<path class="st11" d="M502.5,288.8L502.5,288.8l-2.3-3.3c-0.3-0.3-0.5-0.5-0.8-0.8c-0.4-0.5-0.8-1-1.2-1.6c-1,0.1-1.8,0.8-1.9,1.8
			c-0.1,0.3-0.2,0.6-0.3,1c-0.1,0.2-0.1,0.4-0.2,0.5c-0.7,1.8-1.6,3.8-1.6,3.8l1.6-1.6l1.9-1.9l2.3,1.1l2.3,1L502.5,288.8z"/>
		<path class="st12" d="M506.7,293.6c0-0.9,0.2-1.8,0.3-2.7c0.1-0.4,0.3-0.7,0.5-1l0-0.1l2.1-6.8l-0.3-1l-0.1,0
			c-1,1.4-2.2,2.6-3.4,3.8c-2,1.9-2.9,1.2-5.1,0.1c-0.4-0.2-0.8-0.5-1.1-0.8l2.3,3.2l0.1,0.1c1.2,1.5,2.1,3.2,2.5,5L506.7,293.6z"/>
		<path class="st11" d="M509.2,288.4l-0.5,1.8l0,0l1-1l0.6-0.6l1.3-1.3c0.6,0.7,1.3,1.3,2,1.8c0.8,0.3,1.6,0.6,2.5,0.9l1.1-5.4
			l0.1-0.5c-0.9-0.3-1.8-0.8-2.5-1.5c-1-0.7-2.1-1.3-3.3-1.7l-0.2,0.5L509.2,288.4L509.2,288.4z"/>
		<polygon class="st11" points="502,288.5 502,288.5 501.8,288.4 		"/>
		<path class="st11" d="M501.8,287.6l0,0.2L501.8,287.6z"/>
		<path class="st11" d="M516.7,321.8c-0.3-0.1-0.5-0.1-0.8-0.2C516.1,321.7,516.4,321.8,516.7,321.8z"/>
		<path class="st11" d="M516.8,321.9l-0.1,0L516.8,321.9z"/>
		<path class="st11" d="M517.5,322c-0.2-0.1-0.5-0.1-0.7-0.2C517,321.9,517.3,322,517.5,322z"/>
		<path class="st11" d="M518.4,322.2c-0.2-0.1-0.5-0.1-0.8-0.2C517.9,322.1,518.1,322.2,518.4,322.2z"/>
		<path class="st11" d="M518.5,322.2L518.5,322.2L518.5,322.2z"/>
		<path class="st11" d="M517.6,322.1l-0.1,0L517.6,322.1z"/>
		<path class="st11" d="M496.6,293.4l10.2,0.3c-0.4-1.9-1.3-3.6-2.5-5l0,0l0,0.1l-0.2-0.1l-2.3-1l0,0.2l0-0.2l-2.3-1.1l-1.9,1.9
			L496,290c0,0,0.9-2,1.6-3.8c0.1-0.2,0.1-0.4,0.2-0.5c-2.3-0.1-4.7,0.2-6.9,0.9c-1.2,0.4-2.1,1.2-2.7,2.2
			c-1.8,3.7-5.3,28.9-4.6,30.7c0.6,1.5,3.2,5.8,5.8,5c0.4-0.1,0.7-0.4,1-0.7c1.6-1.6,2.8-4.6,3.6-6.9c0.6-1.8,0.9-3.2,0.9-3.2l0.2-2
			c-0.1,0.1-0.3,0.2-0.4,0.3c-1.4,1-2.9,1.9-3,2c-0.1,1.1-0.2,2.1-0.1,3.2c0,0.2-0.6,0.5-1.3,0.7c-1.2,0.4-2.5,0.6-3.7,0.4
			c-1.8-0.4-0.8-4.6-0.8-4.6s0.9-4.2,0.9-5.6s1.8-4.5,1.8-4.5l0.1,0.2l-1.5-5.1l5.4-0.3l0.6,0c0,0,1,3.5,1.6,5.6
			c0.2-0.1,0.4-0.2,0.5-0.3c-0.1-0.3,0.1-0.6,0.4-0.8c0.1,0,0.2-0.1,0.3-0.1c0.1,0,0.2,0,0.3,0c0,0,0.1,0,0.1,0c0-0.6-0.1-1-0.1-1
			L496.6,293.4z"/>
		<path class="st6" d="M515.6,311.3c-0.1-0.7,1-17.3,1-17.3l-7.6-0.2l-2.1-0.1l-10.2-0.3l-0.2,8.3c0,0,0,0.4,0.1,1
			c1.1,0.1,5.1,0.7,5.5,0.7c1.5,0.1,0.9,1.7,1.7,2.1s2.1,4.2,2.1,4.2l1.9,0.6c0,0,4.2,0.7,7.9,1.4
			C515.7,311.7,515.6,311.5,515.6,311.3z"/>
		<path class="st11" d="M519.2,322.4c-0.2,0-0.5-0.1-0.7-0.1C518.7,322.3,518.9,322.3,519.2,322.4z"/>
		<path class="st11" d="M525.6,291.1c-0.4-2.4-2.6-3.6-4.5-4.1c-1.1-0.3-2.1-0.5-3.2-0.6l-1.1,5.4c-0.8-0.2-1.7-0.5-2.5-0.9
			c-0.7-0.6-1.4-1.2-2-1.8l-1.3,1.3l-0.6,0.6l-1,1l0,0c-0.1,0.6-0.2,1.3-0.3,1.9l7.6,0.2c0,0-1.1,16.6-1,17.3c0,0.2,0,0.3,0.1,0.5
			c-3.8-0.7-7.9-1.4-7.9-1.4l0.7,0.2c0.2,0.1,0.4,0.3,0.5,0.4c0,0.1,0.1,0.1,0.1,0.2c0.5,1.2-0.2,3.1-1,4.7
			c-0.4,0.8-0.9,1.6-1.5,2.4c1.4,0.9,3,1.5,4.6,1.9c1.4,0.5,3.1,1,4.8,1.4c0.3,0.1,0.5,0.1,0.8,0.2l0.1,0c0.2,0.1,0.5,0.1,0.7,0.2
			l0.1,0c0.3,0.1,0.5,0.1,0.8,0.2l0.1,0c0.2,0,0.5,0.1,0.7,0.1l0.1,0c1.3,0.3,2.6,0.4,4,0.5c0.1,0,0.2,0,0.3,0
			c1.2,0.2,2.4-0.1,3.5-0.6C529.1,320.9,526.2,295.5,525.6,291.1z"/>
		<path class="st11" d="M519.3,322.4L519.3,322.4L519.3,322.4C519.2,322.4,519.2,322.4,519.3,322.4z"/>
		<path class="st11" d="M492.7,373.5l1.2,0l12.6-0.3l2.7-0.1l10.3-0.3l3.2-0.1l0.6-4.3l-31.6,0.9
			C492.3,371.8,492.7,373.5,492.7,373.5z"/>
		<path class="st6" d="M520.1,322.2c-1.1-0.2-2.2-0.5-3.4-0.8c-1.7-0.4-3.3-0.9-4.8-1.4c-1.6-0.4-3.1-1.1-4.6-1.9
			c0.5-0.8,1-1.5,1.5-2.4c-0.3,0.4-0.6,0.6-0.6,0.6c-2.1-1.4-4.2-2.6-6.4-3.7c-0.5-0.2-1-0.5-1.4-0.8c-0.7-0.6-1.4-1.2-1.9-1.9
			c0,0-0.4,0.3-1,0.7l0,0c-0.5,0.3-1.1,0.7-1.4,1l-0.2,2c-0.1,1.1-0.5,2.2-0.9,3.2c-1,2.1-1.2,3.8-2.5,5.6c-0.2,0.3-1.4,5.9-1.4,6.1
			l0,0.1c-0.6,3.2-5.1,28.5-0.8,40.8l1.7,0l31.6-0.9l2.4-0.1C525.8,368.3,529.3,356.5,520.1,322.2z"/>
		<path class="st6" d="M495.5,293.2c0-0.4,2.9-6.9,2.9-6.9l1.3,0.7l-2,6.1L495.5,293.2z"/>
		<path class="st6" d="M515,294c-0.4-0.2,0.1-2.4,0.1-2.4l-2.5-0.9l-0.5,3.1L515,294z"/>
		<path class="st6" d="M492.1,322.4c0,0,22,4.8,28.2,1.2l-0.4-1.4c0,0-20.4,0.4-26.3-2.2L492.1,322.4z"/>
		<path class="st5" d="M497.2,298.3l-0.4,4.8c0.4,0.1,0.8,0.1,1.2,0.2c0.7,0.1,1.3,0.2,1.7,0.2c1.5,0.1,0.9,1.8,1.8,2.1
			s2.1,4.3,2.1,4.3l1.1,0.4l3.8,0.3c1.5,0.1,2.8-1,2.9-2.5c0,0,0-0.1,0-0.1l0.3-8.8C511.7,299.2,498.6,298.3,497.2,298.3z"/>
		<path class="st12" d="M500.5,286.1c0.3,0.3,0.7,0.6,1.1,0.8c2.2,1.1,3.1,1.8,5.1-0.1c1.2-1.2,2.4-2.5,3.4-3.8
			c0.4-0.5,0.6-0.8,0.6-0.8l0.1-3.9c0,0,1.8-0.2,1.5-1c-1.4-2.1-3.1-4.1-5-5.8c-0.9-0.5-2.9-2-2.8-2.9s-4.7-0.8-5.2,0.2
			c-0.9,1.2-1.9,2.2-3,3.1c0,0-0.6,5.3,0.1,7.2c0.6,1.6,1.3,3.1,2.2,4.5c0.4,0.6,0.7,1.1,1.2,1.6C500,285.6,500.2,285.9,500.5,286.1
			z"/>
		<path class="st12" d="M497.1,306.3c0.1-0.7-1.1-0.4-1.1-0.7c0-0.1-0.1-0.2-0.1-0.3c-0.1-0.1-0.1-0.1-0.2-0.2
			c-0.2-0.2-0.4-0.3-0.6-0.5c0,0,0-0.1,0-0.1c-0.2,0.1-0.3,0.2-0.5,0.3c-0.8,0.5-1.5,1.2-1.9,2c-0.3,0.6-0.7,1.2-1.3,1.6
			c-0.5,0.3-1.8-0.1-1.8-0.4c0-0.2,0.7-0.8,1.3-1.6c1.1-1.5,3.1-3,2-3.3c-0.3-0.1-0.6-0.1-0.9,0c-1.1,0.5-2.2,1.2-3.1,2.1l-0.4-0.6
			l-0.2-0.5c0,0-1.6,3.4-1.7,4.8s-0.9,5.6-0.9,5.6s-1.6,2.9,0.2,3.3c1.4,0.1,2.8-0.1,4.1-0.6c0.8-0.3,1-0.3,1-0.5
			c-0.1-1.2-0.1-2.3,0.1-3.5c0.1,0,1.7-1.2,3.1-2.2c0.1-0.1,0.7-0.3,0.8-0.4c1.3-0.9,2-1.4,2-1.4s0.7-0.2,0.8-1.6
			S497,307,497.1,306.3z"/>
		<g>
			<defs>
				<path id="SVGID_3_" d="M520.1,322.2c-1.1-0.2-2.2-0.5-3.4-0.8c-1.7-0.4-3.3-0.9-4.8-1.4c-1.6-0.4-3.1-1.1-4.6-1.9
					c0.5-0.8,1-1.5,1.5-2.4c-0.3,0.4-0.6,0.6-0.6,0.6c-2.1-1.4-4.2-2.6-6.4-3.7c-0.5-0.2-1-0.5-1.4-0.8c-0.7-0.6-1.4-1.2-1.9-1.9
					c0,0-0.4,0.3-1,0.7l0,0c-0.5,0.3-1.1,0.7-1.4,1l-0.2,2c-0.1,1.1-0.5,2.2-0.9,3.2c-1,2.1-1.2,3.8-2.5,5.6
					c-0.2,0.3-1.4,5.9-1.4,6.1l0,0.1c-0.6,3.2-5.1,28.5-0.8,40.8l1.7,0l31.6-0.9l2.4-0.1C525.8,368.3,529.3,356.5,520.1,322.2z"/>
			</defs>
			<clipPath id="SVGID_4_">
				<use xlink:href="#SVGID_3_"  style="overflow:visible;"/>
			</clipPath>
			<g class="st13">
				<path class="st5" d="M498.6,333.6c0-1.4-0.6-2.7-1.5-3.7c-2-2-5.4-2-7.4,0c-2,2-2,5.3,0,7.4c0,0,0,0,0,0c2,2,5.4,2,7.4,0
					C498,336.3,498.6,335,498.6,333.6z"/>
				<path class="st5" d="M522.2,347.1c0-1.4-0.6-2.7-1.5-3.7c-2-2-5.4-2-7.4,0c-2,2-2,5.3,0,7.4c0,0,0,0,0,0c2,2,5.4,2,7.4,0
					C521.6,349.9,522.1,348.5,522.2,347.1z"/>
				<path class="st5" d="M505.1,360.2c0-1.4-0.6-2.7-1.5-3.7c-2-2-5.4-2-7.4,0c-2,2-2,5.3,0,7.4c0,0,0,0,0,0c2,2,5.4,2,7.4,0
					C504.6,362.9,505.1,361.5,505.1,360.2z"/>
				<path class="st5" d="M523.3,367.8c0-1.4-0.6-2.7-1.5-3.7c-2-2-5.4-2-7.4,0c-2,2-2,5.3,0,7.4c0,0,0,0,0,0c2,2,5.4,2,7.4,0
					C522.7,370.5,523.3,369.2,523.3,367.8z"/>
				<path class="st5" d="M490.1,350.5c0-1.4-0.6-2.7-1.5-3.7c-2-2-5.4-2-7.4,0c-2,2-2,5.3,0,7.4c0,0,0,0,0,0c2,2,5.4,2,7.4,0
					C489.5,353.2,490.1,351.9,490.1,350.5z"/>
				<path class="st5" d="M532.7,359.6c0-1.4-0.6-2.7-1.5-3.7c-2-2-5.4-2-7.4,0c-2,2-2,5.3,0,7.4c0,0,0,0,0,0c2,2,5.4,2,7.4,0
					C532.1,362.3,532.6,361,532.7,359.6z"/>
				<path class="st5" d="M515.6,326.5c0-1.4-0.6-2.7-1.5-3.7c-2-2-5.4-2-7.4,0c-2,2-2,5.3,0,7.4c0,0,0,0,0,0c2,2,5.4,2,7.4,0
					C515.1,329.2,515.6,327.9,515.6,326.5z"/>
				<path class="st5" d="M497.8,317.5c0-1.4-0.6-2.7-1.5-3.7c-2-2-5.4-2-7.4,0c-2,2-2,5.3,0,7.4c0,0,0,0,0,0c2,2,5.4,2,7.4,0
					C497.2,320.2,497.7,318.8,497.8,317.5z"/>
				<path class="st5" d="M530.7,333.9c0-1.4-0.6-2.7-1.5-3.7c-2-2-5.4-2-7.4,0c-2,2-2,5.3,0,7.4c0,0,0,0,0,0c2,2,5.4,2,7.4,0
					C530.1,336.6,530.7,335.2,530.7,333.9z"/>
			</g>
		</g>
		<path class="st2" d="M492.4,298l-0.6,0l-5.4,0.3l1.5,5.1l0.8,1.3c0,0,1.3-2.3,2.7-2.8c0.3-0.1,0.6-0.1,0.9,0
			c1.1,0.3-0.2,2.4-1.3,3.9c-0.4,0.5-0.8,1.1-1.1,1.6c0,0.2,0.4,0.1,0.9-0.2c0.6-0.4,1-0.9,1.3-1.6c0.4-0.8,1.1-1.5,1.9-2
			C493.4,301.5,492.4,298,492.4,298z"/>
		<path class="st8" d="M508.2,311c0-0.1-0.1-0.2-0.1-0.2c-0.2-0.2-0.3-0.3-0.5-0.4l-2.6-0.9c0,0-1.3-3.9-2.1-4.2s-0.2-2-1.7-2.1
			c-0.4,0-1-0.1-1.6-0.2c-1.4-0.2-3-0.5-4-0.5c-0.1,0-0.2,0-0.3,0c-0.1,0-0.2,0-0.3,0.1c-0.3,0.1-0.4,0.4-0.4,0.8c0,0,0,0.1,0,0.1
			c0.2,0.1,0.4,0.3,0.6,0.5c0.1,0.1,0.1,0.1,0.2,0.2c0.1,0.1,0.1,0.2,0.1,0.3c0,0.3,1.2,0,1.1,0.7s1.4,0.3,1.3,1.7
			c-0.2,1.1-0.5,2.1-1,3c0.6,0.7,1.2,1.4,1.9,1.9c0.4,0.3,0.9,0.6,1.4,0.8c2.2,1.1,4.3,2.4,6.4,3.7c0,0,0.3-0.2,0.6-0.6
			C508,314.1,508.7,312.2,508.2,311z"/>
		<path class="st8" d="M496.5,305c0.1-0.7-1.1-0.4-1.1-0.7c0-0.1-0.1-0.2-0.1-0.3c-0.1-0.1-0.1-0.1-0.2-0.2
			c-0.2-0.2-0.4-0.3-0.6-0.5c0,0,0-0.1,0-0.1c-0.2,0.1-0.3,0.2-0.5,0.3c-0.8,0.5-1.5,1.2-1.9,2c-0.3,0.6-0.7,1.2-1.3,1.6
			c-0.5,0.3-1,0.4-0.9,0.2c0.3-0.6,0.7-1.1,1.1-1.6c1.1-1.5,2.4-3.6,1.3-3.9c-0.3-0.1-0.6-0.1-0.9,0c-1.4,0.5-2.7,2.8-2.7,2.8
			l-0.8-1.3l-0.1-0.2c0,0-1.8,3.1-1.8,4.5s-0.9,5.6-0.9,5.6s-1,4.2,0.8,4.6c1.2,0.2,2.5,0,3.7-0.4c0.8-0.3,1.3-0.5,1.3-0.7
			c-0.1-1.1,0-2.1,0.1-3.2c0.1,0,1.5-1,3-2c0.1-0.1,0.3-0.2,0.4-0.3c1.3-0.9,2.5-1.7,2.5-1.7c0.5-0.9,0.8-2,1-3
			C497.9,305.3,496.4,305.7,496.5,305z"/>
		<path class="st2" d="M505.3,430c-0.6-0.1-0.9-1-0.9-2.2c-0.4,0.4-0.8,0.8-1,1c-0.5,0.7,0.8,6.2,1.3,6.2s4.2,0.8,5.7-0.3
			s0-5.6,0-5.6S507.2,430.4,505.3,430z"/>
		<path class="st8" d="M517.9,372.7l-10.3,0.3c0.1,4.7,0.1,12.3-0.1,14.6c-0.3,3.4-2,29.3-2.3,31.7c-0.5,2.8-0.7,5.7-0.8,8.5
			c0.1,1.2,0.3,2.1,0.9,2.2c1.9,0.4,5.1-0.9,5.1-0.9s0.1-14.3,0.5-15.1s5.7-20.3,5.7-27C516.6,382.2,517,377.4,517.9,372.7z"/>
		<path class="st2" d="M495.9,429.9c-0.6-0.5-0.4-2.3-0.1-4.6c-1,1.9-2.2,4.7-2.1,6.3c0.1,2.7,4.9,3.5,6.5,3.9s1.8-1.6,2-3
			c0-1.4-0.2-2.8-0.8-4C500.4,429,496.8,430.7,495.9,429.9z"/>
		<path class="st8" d="M503.8,388.4c0-0.6,0.6-10,1-15.3l-12.6,0.3l0.3,0.7c0,0,2.6,10.4,1.8,14.4s2.6,26.6,2.3,31.1
			c-0.1,1.9-0.5,4-0.7,5.8c-0.3,2.3-0.5,4.1,0.1,4.6c0.9,0.8,4.6-0.9,5.6-1.4c0.2-0.1,0.3-0.1,0.3-0.1s-0.1-10.1-0.1-11.4
			S503.8,389.2,503.8,388.4z"/>
		<path class="st2" d="M496.9,285.4c0.1-0.3,0.2-0.7,0.3-1c0.2-1,1-1.7,1.9-1.8c-0.9-1.4-1.7-2.9-2.2-4.5c-0.7-2-0.1-7.2-0.1-7.2
			c1.1-0.9,2.1-2,3-3.1c0.5-1,5.3-1.1,5.2-0.2s1.9,2.4,2.8,2.9c1.9,1.7,3.6,3.6,5,5.8c0.3,0.8-1.5,1-1.5,1l-0.1,3.9
			c0,0-0.2,0.3-0.6,0.8l0.1,0l0.3,1l0.2-0.5c1.2,0.4,2.3,0.9,3.3,1.7c0.7,0.6,1.6,1.1,2.5,1.5l-0.1,0.5c1.1,0.1,2.2,0.3,3.2,0.6
			c0-0.2,0.1-0.3,0.2-0.4c0.8-0.7,1.7-2.3,0.3-3.5s-3.1-5.2-2.5-7.3s-1-5.4-2.5-6.4s1.9-0.1-0.7-2.1s-3-1.2-3.3-1.2
			s-0.6-2.7-1.6-2.7s-1.4-2-3.1-1.5s-3.2-0.4-3.5,0.4c0,0-1.3-0.8-2.2,0.8s-0.7,0-3,1.8s-3.3,3.3-5.3,5.7s-0.5,6.1-1.6,7.1
			s0.6,3.3-0.2,4.1s-2,3.2-1.4,4.1l0.5,0.9l0,0C492.3,285.6,494.6,285.3,496.9,285.4z"/>
		<path class="st14" d="M503.4,288.4L503.4,288.4L503.4,288.4L503.4,288.4z"/>
		<path class="st8" d="M501.1,285.1c0.3,0.3,0.7,0.6,1.1,0.8c2.2,1.1,3.1,1.8,5.1-0.1c1.2-1.2,2.4-2.5,3.4-3.8
			c0.4-0.5,0.6-0.8,0.6-0.8l0.1-3.9c0,0,1.8-0.2,1.5-1c-1.4-2.1-3.1-4.1-5-5.8c-0.9-0.5-2.9-2-2.8-2.9s-4.7-0.8-5.2,0.2
			c-0.9,1.2-1.9,2.2-3,3.1c0,0-0.6,5.3,0.1,7.2c0.6,1.6,1.3,3.1,2.2,4.5c0.4,0.6,0.7,1.1,1.2,1.6
			C500.6,284.6,500.8,284.8,501.1,285.1z"/>
		<path class="st8" d="M503.4,288.4L503.4,288.4l-2.3-3.3c-0.3-0.3-0.5-0.5-0.8-0.8c-0.4-0.5-0.8-1-1.2-1.6c-1,0.1-1.8,0.8-1.9,1.8
			c-0.1,0.3-0.2,0.6-0.3,1c-0.1,0.2-0.1,0.4-0.2,0.5c-0.7,1.8-1.6,3.8-1.6,3.8l1.6-1.6l1.9-1.9l2.3,1.1l2.3,1L503.4,288.4z"/>
		<path class="st8" d="M508.1,293.5c0-0.9,0.2-1.8,0.3-2.7c0.1-0.4,0.3-0.7,0.5-1l0-0.1l2.1-6.8l-0.3-1l-0.1,0
			c-1,1.4-2.2,2.6-3.4,3.8c-2,1.9-2.9,1.2-5.1,0.1c-0.4-0.2-0.8-0.5-1.1-0.8l2.3,3.2l0.1,0.1c1.2,1.5,2.1,3.2,2.5,5L508.1,293.5z"/>
		<path class="st8" d="M508.9,289.8l-0.5,1.8l0,0l1-1l0.6-0.6l1.3-1.3c0.6,0.7,1.3,1.3,2,1.8c0.8,0.3,1.6,0.6,2.5,0.9l1.1-5.4
			l0.1-0.5c-0.9-0.3-1.8-0.8-2.5-1.5c-1-0.7-2.1-1.3-3.3-1.7l-0.2,0.5L508.9,289.8L508.9,289.8z"/>
		<polygon class="st8" points="503.5,288.4 503.4,288.4 503.2,288.3 		"/>
		<path class="st14" d="M501,287.3l0,0.2L501,287.3z"/>
		<path class="st8" d="M515.8,321.5c-0.3-0.1-0.5-0.1-0.8-0.2C515.3,321.4,515.5,321.5,515.8,321.5z"/>
		<path class="st8" d="M515.9,321.6l-0.1,0L515.9,321.6z"/>
		<path class="st8" d="M516.6,321.7c-0.2-0.1-0.5-0.1-0.7-0.2C516.1,321.6,516.4,321.7,516.6,321.7z"/>
		<path class="st8" d="M517.5,321.9c-0.2-0.1-0.5-0.1-0.8-0.2C517,321.8,517.3,321.9,517.5,321.9z"/>
		<path class="st8" d="M517.6,322L517.6,322L517.6,322z"/>
		<path class="st8" d="M516.8,321.8l-0.1,0L516.8,321.8z"/>
		<path class="st8" d="M495.8,293.1l10.2,0.3c-0.4-1.9-1.3-3.6-2.5-5l0,0l0,0.1l-0.2-0.1l-2.3-1l0,0.2l0-0.2l-2.3-1.1l-1.9,1.9
			l-1.6,1.6c0,0,0.9-2,1.6-3.8c0.1-0.2,0.1-0.4,0.2-0.5c-2.3-0.1-4.7,0.2-6.9,0.9c-1.2,0.4-2.1,1.2-2.7,2.2
			c-1.8,3.7-5.3,28.9-4.6,30.7c0.6,1.5,3.2,5.8,5.8,5c0.4-0.1,0.7-0.4,1-0.7c1.6-1.6,2.8-4.6,3.6-6.9c0.6-1.8,0.9-3.2,0.9-3.2l0.2-2
			c-0.1,0.1-0.3,0.2-0.4,0.3c-1.4,1-2.9,1.9-3,2c-0.1,1.1-0.2,2.1-0.1,3.2c0,0.2-0.6,0.5-1.3,0.7c-1.2,0.4-2.5,0.6-3.7,0.4
			c-1.8-0.4-0.8-4.6-0.8-4.6s0.9-4.2,0.9-5.6s1.8-4.5,1.8-4.5l0.1,0.2l-1.5-5.1l5.4-0.3l0.6,0c0,0,1,3.5,1.6,5.6
			c0.2-0.1,0.4-0.2,0.5-0.3c-0.1-0.3,0.1-0.6,0.4-0.8c0.1,0,0.2-0.1,0.3-0.1c0.1,0,0.2,0,0.3,0c0,0,0.1,0,0.1,0c0-0.6-0.1-1-0.1-1
			L495.8,293.1z"/>
		<path class="st8" d="M514.7,311c-0.1-0.7,1-17.3,1-17.3l-7.6-0.2l-2.1-0.1l-10.2-0.3l-0.2,8.3c0,0,0,0.4,0.1,1
			c1.1,0.1,5.1,0.7,5.5,0.7c1.5,0.1,0.9,1.7,1.7,2.1s2.1,4.2,2.1,4.2l1.9,0.6c0,0,4.2,0.7,7.9,1.4
			C514.8,311.4,514.8,311.2,514.7,311z"/>
		<path class="st8" d="M518.3,322.1c-0.2,0-0.5-0.1-0.7-0.1C517.8,322,518.1,322,518.3,322.1z"/>
		<path class="st8" d="M524.7,290.8c-0.4-2.4-2.6-3.6-4.5-4.1c-1.1-0.3-2.1-0.5-3.2-0.6l-1.1,5.4c-0.8-0.2-1.7-0.5-2.5-0.9
			c-0.7-0.6-1.4-1.2-2-1.8L510,290l-0.6,0.6l-1,1l0,0l0.5-1.8c-0.2,0.3-0.4,0.7-0.5,1c-0.2,0.9-0.3,1.8-0.3,2.7l7.6,0.2
			c0,0-1.1,16.6-1,17.3c0,0.2,0,0.3,0.1,0.5c-3.8-0.7-7.9-1.4-7.9-1.4l0.7,0.2c0.2,0.1,0.4,0.3,0.5,0.4c0,0.1,0.1,0.1,0.1,0.2
			c0.5,1.2-0.2,3.1-1,4.7c-0.4,0.8-0.9,1.6-1.5,2.4c1.4,0.9,3,1.5,4.6,1.9c1.4,0.5,3.1,1,4.8,1.4c0.3,0.1,0.5,0.1,0.8,0.2l0.1,0
			c0.2,0.1,0.5,0.1,0.7,0.2l0.1,0c0.3,0.1,0.5,0.1,0.8,0.2l0.1,0c0.2,0,0.5,0.1,0.7,0.1l0.1,0c1.3,0.3,2.6,0.4,4,0.5
			c0.1,0,0.2,0,0.3,0c1.2,0.2,2.4-0.1,3.5-0.6C528.2,320.6,525.4,295.2,524.7,290.8z"/>
		<path class="st8" d="M518.4,322.1L518.4,322.1L518.4,322.1C518.3,322.1,518.3,322.1,518.4,322.1z"/>
		<path class="st8" d="M502.6,278.6l-0.5,1.1c0,0.4,0.4,0.7,0.8,0.7c0.1,0,0.2,0,0.2,0l1.1-0.5"/>
		<circle class="st2" cx="499.4" cy="276.5" r="0.6"/>
		<circle class="st2" cx="506.2" cy="275.8" r="0.6"/>
		<path class="st8" d="M503.6,283c0,0,2.3,0.2,2.9-0.8"/>
		<path class="st8" d="M514.8,311.5l2.9,0.9c0,0,0.1-7.7,0.1-9.9"/>
		<path class="st8" d="M490.8,316.8c0,0,1,1.6,0.9,2.3"/>
		<path class="st8" d="M491,373.4l1.2,0l12.6-0.3l2.7-0.1l10.3-0.3l3.2-0.1l0.6-4.3l-31.6,0.9C490.6,371.7,491,373.4,491,373.4z"/>
		<path class="st8" d="M518.4,322.1c-1.1-0.2-2.2-0.5-3.4-0.8c-1.7-0.4-3.3-0.9-4.8-1.4c-1.6-0.4-3.1-1.1-4.6-1.9
			c0.5-0.8,1-1.5,1.5-2.4c-0.3,0.4-0.6,0.6-0.6,0.6c-2.1-1.4-4.2-2.6-6.4-3.7c-0.5-0.2-1-0.5-1.4-0.8c-0.7-0.6-1.4-1.2-1.9-1.9
			c0,0-0.4,0.3-1,0.7l0,0c-0.5,0.3-1.1,0.7-1.4,1l-0.2,2c-0.1,1.1-0.5,2.2-0.9,3.2c-1,2.1-1.2,3.8-2.5,5.6c-0.2,0.3-1.4,5.9-1.4,6.1
			l0,0.1c-0.6,3.2-5.1,28.5-0.8,40.8l1.7,0l31.6-0.9l2.4-0.1C524.1,368.3,527.6,356.4,518.4,322.1z"/>
		<path class="st8" d="M495.8,293.1c0-0.4,2.9-6.9,2.9-6.9l1.3,0.7l-2,6.1L495.8,293.1z"/>
		<path class="st8" d="M515.7,293.8c-0.4-0.2,0.1-2.4,0.1-2.4l-2.5-0.9l-0.5,3.1L515.7,293.8z"/>
		<path class="st8" d="M490.7,322.3c0,0,22,4.8,28.2,1.2l-0.4-1.4c0,0-20.4,0.4-26.3-2.2L490.7,322.3z"/>
		<path class="st8" d="M493.9,323.4c-1.1,4.5-2,9-2.6,13.5"/>
		<path class="st8" d="M515.1,325.2c1.6,3.8,2.5,7.8,2.8,11.9"/>
		<path class="st15" d="M498.7,298.1l-0.4,4.7c0.4,0.1,0.8,0.1,1.2,0.2c0.6,0.1,1.2,0.2,1.6,0.2c1.5,0.1,0.9,1.7,1.7,2.1
			s2.1,4.2,2.1,4.2l1,0.3l3.7,0.3c1.4,0.1,2.7-1,2.8-2.4c0,0,0-0.1,0-0.1l0.3-8.6C512.8,299,500.1,298.2,498.7,298.1z"/>
		<path class="st16" d="M395.7,292.3h29.2c2.1,0,3.9-1.7,3.9-3.9v-21.5c0-2.1-1.7-3.9-3.9-3.9h-29.2c-2.1,0-3.9,1.7-3.9,3.9v21.5
			C391.8,290.6,393.6,292.3,395.7,292.3z"/>
		<path class="st17" d="M396.1,292.9h29.2c2.1,0,3.9-1.7,3.9-3.9v-21.5c0-2.1-1.7-3.9-3.9-3.9h-29.2c-2.1,0-3.9,1.7-3.9,3.9V289
			C392.2,291.1,394,292.9,396.1,292.9z"/>
		<polyline class="st17" points="425.7,263.6 410.3,257 395.6,263.7 		"/>
		<g class="st18">
			<path class="st2" d="M402.6,275.6c1.9,0,3.4,1.5,3.4,3.5c0,2-1.5,3.5-3.4,3.5c-1.9,0-3.4-1.5-3.4-3.5
				C399.2,277.1,400.7,275.6,402.6,275.6z M402.6,281.9c1.5,0,2.6-1.2,2.6-2.7c0-1.6-1.1-2.7-2.6-2.7s-2.6,1.2-2.6,2.7
				C400,280.7,401.1,281.9,402.6,281.9z"/>
			<path class="st2" d="M407.2,275.8h1.8c1.2,0,2,0.7,2,1.9c0,1.2-0.8,2-2,2h-1.1v2.8h-0.8V275.8z M408.9,279c0.8,0,1.3-0.5,1.3-1.3
				c0-0.8-0.5-1.2-1.3-1.2h-1v2.5H408.9z"/>
			<path class="st2" d="M412,275.8h3.2v0.7h-2.4v2.2h2.1v0.7h-2.1v2.4h2.5v0.7H412V275.8z"/>
			<path class="st2" d="M416.5,275.8h0.8l3.7,5.5v-5.5h0.8v6.7H421l-3.7-5.4v5.4h-0.8V275.8z"/>
		</g>
		<path class="st6" d="M344,162c13.2-11.7,1.9-16.2-0.2-17.9c-1.6-1.3-9.2-1.6-12.4-1.6v28.2C333.8,169.7,337.9,167.4,344,162z"/>
		<path class="st6" d="M348.7,258.8c-0.2-2.3-0.9-8.1-2.1-15c-1.2-6.8-10.8-11.9-15.2-13.9v7.7L348.7,258.8z"/>
		<path class="st6" d="M473.2,395.8c-3.2-3.8-7-7-11.2-9.7c-4.1-2.7-6.2-10-7.9-14.3c-8.5-20.7-26-36.8-37.6-55.8
			c-4.3-7.1-21.4-27.5-31.6-23.8c0,0-5.3,0.9-5.6,4l-30.6-37.4l-17.3-21.1l-1.6-2c0,0-6.5-13.6-14.3-12.7c0,0-3.7,2.2-3.1,5.6
			c0,0-6.2,4.9,0.9,18.2c2.9,5.4,10.3,19,18.1,33.4l23.8,43.8l-9.2,12c-1.5-2.3-3.4-4.3-5.6-5.9c0,0-3.1-5.2-8.9-6.2
			c-1.1-0.2-2.1-0.2-3.2-0.1c-2.3,0.3-4.5,1.1-6.5,2.3c0,0-2.8,1.5-1.9,7.7c0.3,2,0.7,4.1,1,6c0.3,1.5,0.5,2.8,0.8,4.1
			c0.2,0.9,0.3,1.7,0.4,2.4c0.1,0.7,0.2,1.3,0.3,2c0,1.2-9.9,10.5-7.4,21.6s7.1,30.3,5.9,35.8s0.6,28.1,9.9,42.9
			s18.5,65.5,18.5,65.5h119.3c0,0,17.3-73.6,10.6-104.5C478.1,405.8,475.5,398.5,473.2,395.8z M378.1,403.3c0,0-4.6-1.1-8.4,3.5
			s-4.6,4.8-8.7,0.5c-5.2-5.4-10.6-25.4-10.6-25.4s9.5,7.8,19.2-7c0,0,0.5,7.6,3.8,10.5s4.6,2.7,4.6,2.7V403.3z M341.1,303.1
			c0,0-7.7,3.3-9.4,0.5l-1.1-20.1L341.1,303.1z"/>
		<path class="st6" d="M331.3,192.3v-73.2c0-5.2-4.2-9.4-9.5-9.4h-94.7c-5.2,0-9.4,4.2-9.5,9.4V166c0,0,7.7,3.3,6.7,14.9
			c-0.4,5.2-3.5,13.2-6.7,20.5v71.4c6.3,14.4,12.7,37.9,11.3,73.5H322c-0.1-0.7-0.3-1.5-0.4-2.4c-0.2-1.2-0.5-2.6-0.8-4.1
			c-0.4-2-0.7-4-1-6c-0.9-6.2,1.9-7.7,1.9-7.7c2-1.2,4.2-2,6.5-2.3c1.1-0.1,2.1-0.1,3.2,0.1v-43.8c-7.8-14.4-15.2-28-18.1-33.4
			c-7.1-13.3-0.9-18.2-0.9-18.2c-0.6-3.4,3.1-5.6,3.1-5.6c7.7-0.9,14.3,12.7,14.3,12.7l1.6,2L331.3,192.3L331.3,192.3z"/>
		<path class="st6" d="M217.7,272.9v-55l-7.9,8.1l-0.3-7.6c0,0,4.3-7.9,8.3-17c3.2-7.3,6.3-15.4,6.7-20.5c1-11.6-6.7-14.9-6.7-14.9
			c-4.8-4.4-7-0.3-7-0.3l-10.8,25.1c0,0-12.1,12.5-19.3,16.3s-6.2,26.9-6,28.4s1.4,36-3.9,44.9s-5.8,22-5.8,22
			c3.5,32-1.7,47.1-8.7,60.1s-104.9,145-104.9,145l109.4,2.5c0,0,55.3-93.8,60-104s23.5-16.1,36.6-21.9
			c11.6-5.2,20.7-31.8,22.6-37.5h-50.7C230.4,310.9,224,287.3,217.7,272.9z"/>
		<path class="st6" d="M334.2,223.7c0.8,1.2,3.5,1.7,3.5,1.7c10.6,1.9,15.2-3.9,15.4-11.6s-7.3-12.9-12.5-18.3
			c-2.4-2.5-5.9-3.6-9.3-3.1v31.5C332.3,224.1,333.3,224,334.2,223.7z"/>
		<path class="st6" d="M351,162c13.2-11.7,1.9-16.2-0.2-17.9c-1.6-1.3-9.2-1.6-12.4-1.6v28.2C340.8,169.7,344.9,167.4,351,162z"/>
		<path class="st6" d="M355.6,258.8c-0.2-2.3-0.9-8.1-2.1-15c-1.2-6.8-10.8-11.9-15.2-13.9v7.7L355.6,258.8z"/>
		<path class="st6" d="M480.2,395.8c-3.2-3.8-7-7-11.2-9.7c-4.1-2.7-6.2-10-7.9-14.3c-8.5-20.7-26-36.8-37.6-55.8
			c-4.3-7.1-21.4-27.5-31.6-23.8c0,0-5.3,0.9-5.6,4l-30.6-37.4l-17.3-21.1l-1.6-2c0,0-6.5-13.6-14.3-12.7c0,0-3.7,2.2-3.1,5.6
			c0,0-6.2,4.9,0.9,18.2c2.9,5.4,10.3,19,18.1,33.4l23.8,43.8l-9.2,12c-1.5-2.3-3.4-4.3-5.6-5.9c0,0-3.1-5.2-8.9-6.2
			c-1.1-0.2-2.1-0.2-3.2-0.1c-2.3,0.3-4.5,1.1-6.5,2.3c0,0-2.8,1.5-1.9,7.7c0.3,2,0.7,4.1,1,6c0.3,1.5,0.5,2.8,0.8,4.1
			c0.2,0.9,0.3,1.7,0.4,2.4c0.1,0.7,0.2,1.3,0.3,2c0,1.2-9.9,10.5-7.4,21.6s7.1,30.3,5.9,35.8s0.6,28.1,9.9,42.9
			s18.5,65.5,18.5,65.5h119.3c0,0,17.3-73.6,10.6-104.5C485.1,405.8,482.4,398.5,480.2,395.8z M385,403.3c0,0-4.6-1.1-8.4,3.5
			s-4.6,4.8-8.7,0.5c-5.2-5.4-10.6-25.4-10.6-25.4s9.5,7.8,19.2-7c0,0,0.5,7.6,3.8,10.5s4.6,2.7,4.6,2.7V403.3z M348.1,303.1
			c0,0-7.7,3.3-9.4,0.5l-1.1-20.1L348.1,303.1z"/>
		<path class="st6" d="M338.3,192.3v-73.2c0-5.2-4.2-9.4-9.5-9.4h-94.7c-5.2,0-9.4,4.2-9.5,9.4V166c0,0,7.7,3.3,6.7,14.9
			c-0.4,5.2-3.5,13.2-6.7,20.5v71.4c6.3,14.4,12.7,37.9,11.3,73.5H329c-0.1-0.7-0.3-1.5-0.4-2.4c-0.2-1.2-0.5-2.6-0.8-4.1
			c-0.4-2-0.7-4-1-6c-0.9-6.2,1.9-7.7,1.9-7.7c2-1.2,4.2-2,6.5-2.3c1.1-0.1,2.1-0.1,3.2,0.1v-43.8c-7.8-14.4-15.2-28-18.1-33.4
			c-7.1-13.3-0.9-18.2-0.9-18.2c-0.6-3.4,3.1-5.6,3.1-5.6c7.7-0.9,14.3,12.7,14.3,12.7l1.6,2L338.3,192.3L338.3,192.3z"/>
		<path class="st6" d="M224.7,272.9v-55l-7.9,8.1l-0.3-7.6c0,0,4.3-7.9,8.3-17c3.2-7.3,6.3-15.4,6.7-20.5c1-11.6-6.7-14.9-6.7-14.9
			c-4.8-4.4-7-0.3-7-0.3l-10.8,25.1c0,0-12.1,12.5-19.3,16.3s-6.2,26.9-6,28.4s1.4,36-3.9,44.9s-5.8,22-5.8,22
			c3.5,32-1.7,47.1-8.7,60.1s-104.9,145-104.9,145l109.4,2.5c0,0,55.3-93.8,60-104s23.5-16.1,36.6-21.9
			c11.6-5.2,20.7-31.8,22.6-37.5H236C237.4,310.9,231,287.3,224.7,272.9z"/>
		<path class="st6" d="M341.2,223.7c0.8,1.2,3.5,1.7,3.5,1.7c10.6,1.9,15.2-3.9,15.4-11.6s-7.3-12.9-12.5-18.3
			c-2.4-2.5-5.9-3.6-9.3-3.1v31.5C339.3,224.1,340.2,224,341.2,223.7z"/>
		<path class="st19" d="M347.2,160.2c13.2-11.7,1.9-16.2-0.2-17.9c-1.6-1.3-9.2-1.6-12.4-1.6v28.2
			C337.1,167.9,341.2,165.6,347.2,160.2z"/>
		<path class="st19" d="M351.9,257c-0.2-2.3-0.9-8.1-2.1-15c-1.2-6.8-10.8-11.9-15.2-13.9v7.7L351.9,257z"/>
		<path class="st19" d="M476.5,394c-3.2-3.8-7-7-11.2-9.7c-4.1-2.7-6.2-10-7.9-14.3c-8.5-20.7-26-36.8-37.6-55.8
			c-4.3-7.1-21.4-27.5-31.6-23.8c0,0-5.3,0.9-5.6,4L351.9,257l-17.3-21.1l-1.6-2c0,0-6.5-13.6-14.3-12.7c0,0-3.7,2.2-3.1,5.6
			c0,0-6.2,4.9,0.9,18.2c2.9,5.4,10.3,19,18.1,33.4l23.8,43.8l-9.2,12c-1.5-2.3-3.4-4.3-5.6-5.9c0,0-3.1-5.2-8.9-6.2
			c-1.1-0.2-2.1-0.2-3.2-0.1c-2.3,0.3-4.5,1.1-6.5,2.3c0,0-2.8,1.5-1.9,7.7c0.3,2,0.7,4.1,1,6c0.3,1.5,0.5,2.8,0.8,4.1
			c0.2,0.9,0.3,1.7,0.4,2.4c0.1,0.7,0.2,1.3,0.3,2c0,1.2-9.9,10.5-7.4,21.6s7.1,30.3,5.9,35.8s0.6,28.1,9.9,42.9
			s18.5,65.5,18.5,65.5h119.3c0,0,17.3-73.6,10.6-104.5C481.4,404.1,478.7,396.8,476.5,394z M381.3,401.5c0,0-4.6-1.1-8.4,3.5
			s-4.6,4.8-8.7,0.5c-5.2-5.4-10.6-25.4-10.6-25.4s9.5,7.8,19.2-7c0,0,0.5,7.6,3.8,10.5s4.6,2.7,4.6,2.7V401.5z M344.3,301.4
			c0,0-7.7,3.3-9.4,0.5l-1.1-20.1L344.3,301.4z"/>
		<path class="st7" d="M334.6,190.6v-73.2c0-5.2-4.2-9.4-9.5-9.4h-94.7c-5.2,0-9.4,4.2-9.5,9.4v46.8c0,0,7.7,3.3,6.7,14.9
			c-0.4,5.2-3.5,13.2-6.7,20.5v71.4c6.3,14.4,12.7,37.9,11.3,73.5h92.9c-0.1-0.7-0.3-1.5-0.4-2.4c-0.2-1.2-0.5-2.6-0.8-4.1
			c-0.4-2-0.7-4-1-6c-0.9-6.2,1.9-7.7,1.9-7.7c2-1.2,4.2-2,6.5-2.3c1.1-0.1,2.1-0.1,3.2,0.1v-43.8c-7.8-14.4-15.2-28-18.1-33.4
			c-7.1-13.3-0.9-18.2-0.9-18.2c-0.6-3.4,3.1-5.6,3.1-5.6c7.7-0.9,14.3,12.7,14.3,12.7l1.6,2V190.6L334.6,190.6z"/>
		<path class="st19" d="M221,271.2v-55l-7.9,8.1l-0.3-7.6c0,0,4.3-7.9,8.3-17c3.2-7.3,6.3-15.4,6.7-20.5c1-11.6-6.7-14.9-6.7-14.9
			c-4.8-4.4-7-0.3-7-0.3l-10.8,25.1c0,0-12.1,12.5-19.3,16.3s-6.2,26.9-6,28.4s1.4,36-3.9,44.9s-5.8,22-5.8,22
			c3.5,32-1.7,47.1-8.7,60.1s-104.9,145-104.9,145l109.4,2.5c0,0,55.3-93.8,60-104s23.5-16.1,36.6-21.9
			c11.6-5.2,20.7-31.8,22.6-37.5h-50.7C233.7,309.1,227.3,285.5,221,271.2z"/>
		<path class="st19" d="M337.4,221.9c0.8,1.2,3.5,1.7,3.5,1.7c10.6,1.9,15.2-3.9,15.4-11.6s-7.3-12.9-12.5-18.3
			c-2.4-2.5-5.9-3.6-9.3-3.1v31.5C335.5,222.3,336.5,222.2,337.4,221.9z"/>
		<path class="st14" d="M333.3,303.1v20.6c5.8,1,8.9,6.2,8.9,6.2c2.2,1.6,4.1,3.6,5.6,5.9l9.2-12c0,0-5.1-9.4-11.8-21.8
			c-1.2,0.9-2.5,1.5-4,1.7C337.5,304.2,335,303.8,333.3,303.1z"/>
		<path class="st14" d="M375.4,385.1c-3.3-3-3.8-10.5-3.8-10.5c-9.8,14.9-19.2,7-19.2,7s5.4,20,10.6,25.4c4.1,4.3,4.9,4.1,8.7-0.5
			s8.4-3.5,8.4-3.5v-15.1C380,387.8,378.7,388.1,375.4,385.1z"/>
		<path class="st4" d="M346,161.6c13.2-11.7,1.9-16.2-0.2-17.9c-1.6-1.3-9.2-1.6-12.4-1.6v28.2C335.8,169.3,339.9,167,346,161.6z"/>
		<path class="st4" d="M350.6,258.5c-0.2-2.3-0.9-8.1-2.1-15c-1.2-6.8-10.8-11.9-15.2-13.9v7.7L350.6,258.5z"/>
		<path class="st4" d="M341.3,303.6c1.4-0.3,2.8-0.8,4-1.7c-3.7-6.8-7.9-14.5-11.9-22v23.2C335,303.8,337.5,304.2,341.3,303.6z"/>
		<path class="st14" d="M330.1,299.9v23.6c1.1-0.1,2.1-0.1,3.2,0.1v-20.6C331.8,302.5,330.7,301.4,330.1,299.9z"/>
		<path class="st14" d="M375.4,385.1c-3.3-3-3.8-10.5-3.8-10.5c-9.8,14.9-19.2,7-19.2,7s5.4,20,10.6,25.4c4.1,4.3,4.9,4.1,8.7-0.5
			s8.4-3.5,8.4-3.5v-15.1C380,387.8,378.7,388.1,375.4,385.1z"/>
		<path class="st14" d="M333.3,303.1v20.6c5.8,1,8.9,6.2,8.9,6.2c2.2,1.6,4.1,3.6,5.6,5.9l9.2-12c0,0-5.1-9.4-11.8-21.8
			c-3.7-6.8-7.9-14.5-11.9-22L333.3,303.1L333.3,303.1z"/>
		<path class="st4" d="M478.4,397.5c-4.4-4.4-9.2-8.4-14.4-11.7c-4.1-2.7-6.2-10-7.9-14.3c-8.5-20.7-26-36.8-37.6-55.8
			c-4.3-7.1-21.4-27.5-31.6-23.8c0,0-5.3,0.9-5.6,4l-30.6-37.4l-17.3-21.1l-1.6-2c0,0-6.5-13.6-14.3-12.7c0,0-3.7,2.2-3.1,5.6
			c0,0-6.2,4.9,0.9,18.2c2.9,5.4,10.3,19,18.1,33.4c4.1,7.5,8.3,15.2,11.9,22c6.7,12.4,11.8,21.8,11.8,21.8l-9.2,12
			c-1.5-2.3-3.4-4.3-5.6-5.9c0,0-3.1-5.2-8.9-6.2c-1.1-0.2-2.1-0.2-3.2-0.1c-2.3,0.3-4.5,1.1-6.5,2.3c0,0-2.8,1.5-1.9,7.7
			c0.3,2,0.7,4.1,1,6c0.3,1.5,0.5,2.8,0.8,4.1c0.2,0.9,0.3,1.7,0.4,2.4c0.1,0.7,0.2,1.3,0.3,2c0,1.2-9.9,10.5-7.4,21.6
			s7.1,30.3,5.9,35.8s0.6,28.1,9.9,42.9s18.5,65.5,18.5,65.5h119.3c0,0,19.3-72.2,13.6-103.4C483.2,406.3,480.1,399.3,478.4,397.5z
			 M380,402.9c0,0-4.6-1.1-8.4,3.5s-4.6,4.8-8.7,0.5c-5.2-5.4-10.6-25.4-10.6-25.4s9.5,7.8,19.2-7c0,0,0.5,7.6,3.8,10.5
			s4.6,2.7,4.6,2.7V402.9z"/>
		<path class="st4" d="M211.8,225.8l7.9-8.1v-16.5c-4,9-8.3,17-8.3,17L211.8,225.8z"/>
		<path class="st4" d="M333.3,192v-73.2c0-5.2-4.2-9.4-9.5-9.4h-94.7c-5.2,0-9.4,4.2-9.5,9.4v46.8c0,0,7.7,3.3,6.7,14.9
			c-0.4,5.2-3.5,13.2-6.7,20.5v71.4C226,287,232.4,310.5,231,346H324c-0.1-0.7-0.3-1.5-0.4-2.4c-0.2-1.2-0.5-2.6-0.8-4.1
			c-0.4-2-0.7-4-1-6c-0.9-6.2,1.9-7.7,1.9-7.7c2-1.2,4.2-2,6.5-2.3c1.1-0.1,2.1-0.1,3.2,0.1v-43.8c-7.8-14.4-15.2-28-18.1-33.4
			c-7.1-13.3-0.9-18.2-0.9-18.2c-0.6-3.4,3.1-5.6,3.1-5.6c7.7-0.9,14.3,12.7,14.3,12.7l1.6,2V192L333.3,192z"/>
		<path class="st4" d="M219.7,272.6v-55l-7.9,8.1l-0.3-7.6c0,0,4.3-7.9,8.3-17c3.2-7.3,6.3-15.4,6.7-20.5c1-11.6-6.7-14.9-6.7-14.9
			c-4.8-4.4-8.3-0.9-8.3-0.9L201.2,188c0,0-11.7,11.6-18.8,15.4s-5.9,30.2-5.7,31.7s1.4,36-3.9,44.9s-5.8,22-5.8,22
			c3.5,32-1.7,47.1-8.7,60.1S53.3,507,53.3,507l109.4,2.5c0,0,55.3-93.8,60-104s23.5-16.1,36.6-21.9c11.6-5.2,20.7-31.8,22.6-37.5
			H231C232.4,310.5,226,287,219.7,272.6z"/>
		<path class="st4" d="M336.2,223.3c0.8,1.2,3.5,1.7,3.5,1.7c10.6,1.9,15.2-3.9,15.4-11.6s-7.3-12.9-12.5-18.3
			c-2.4-2.5-5.9-3.6-9.3-3.1v31.5C334.3,223.7,335.3,223.7,336.2,223.3z"/>
		<path class="st4" d="M379.7,402.9c0,0-4.6-1.1-8.4,3.5s-4.6,4.8-8.7,0.5c-5.2-5.4-10.6-25.4-10.6-25.4s9.5,7.8,19.2-7
			c0,0,0.5,7.6,3.8,10.5s4.6,2.7,4.6,2.7V402.9z"/>
		<path class="st4" d="M380.9,295.9c0,0,7.2,11.1,9.1,15.5s15.2,24.6,23,30.5s16.5,18.4,17.1,23"/>
		<path class="st4" d="M451.8,361.9c0,0,5.4,13.5,1.6,23"/>
		<path class="st4" d="M352.1,381.6c0.3-1.4,7.7-23.1-4.5-45.9"/>
		<line class="st4" x1="371.3" y1="374.6" x2="375.1" y2="353.5"/>
		<path class="st4" d="M356.8,323.7c0,0,4.2,12.3,9.1,16.3s15.2,20.8,14.9,35.9c-0.2,8.9-1.1,11.9-1.1,11.9"/>
		<path class="st4" d="M356.9,336c0.5,0.2,10,3.9,15.3,12.1l1.2,15.7"/>
		<path class="st4" d="M323.9,348.1c0,0,14.1-3.6,15.6-9.4s-3.3-14.1-3.6-14.3"/>
		<path class="st4" d="M211.8,225.8c0,0,0,16.9-2,23.6"/>
		<path class="st4" d="M219.7,272.6c-3.4-6.1-7.3-11.9-11.8-17.3"/>
		<path class="st4" d="M344.2,196.5c0,0,0,6.2-0.3,8.5c0,0,11.2,3,11,7.6"/>
		<path class="st4" d="M336.9,224.1c0,0-3.8-3.8-3.9-6.8"/>
		<path class="st4" d="M314.3,228.2c0,0,12,11.2,16.2,12.1s2.8-3,2.8-3"/>
		<path class="st4" d="M349,246.9c0,0-4.7-4-6.9-0.8l0.1,2.3"/>
		<path class="st4" d="M336.8,286.3c-1.1,1.7-1.9,3.6-2.3,5.6c0,0,8.1,2.6,8.8,6.2"/>
		<path class="st4" d="M219.7,165.7c0,0,2.6,4.3-2.1,10.6s-10.7,13.3-16.4,11.8"/>
		<path class="st6" d="M250.7,117h42.7c0.9,0,1.7,0.8,1.7,1.7v0c0,0.9-0.8,1.7-1.7,1.7h-42.7c-0.9,0-1.7-0.8-1.7-1.7v0
			C249,117.7,249.8,117,250.7,117z"/>
		<ellipse class="st6" cx="300.5" cy="118.8" rx="2.2" ry="2.2"/>
		<path class="st6" d="M228.9,265h5c0.9,0,1.6,0.7,1.6,1.6v9.2c0,0.9-0.7,1.6-1.6,1.6h-5c-0.9,0-1.6-0.7-1.6-1.6v-9.2
			C227.3,265.7,228,265,228.9,265z"/>
		<path class="st6" d="M239.3,265h5c0.9,0,1.6,0.7,1.6,1.6v9.2c0,0.9-0.7,1.6-1.6,1.6h-5c-0.9,0-1.6-0.7-1.6-1.6v-9.2
			C237.6,265.7,238.4,265,239.3,265z"/>
		<path class="st6" d="M249.6,265h5c0.9,0,1.6,0.7,1.6,1.6v9.2c0,0.9-0.7,1.6-1.6,1.6h-5c-0.9,0-1.6-0.7-1.6-1.6v-9.2
			C248,265.7,248.7,265,249.6,265z"/>
		<path class="st6" d="M260,265h5c0.9,0,1.6,0.7,1.6,1.6v9.2c0,0.9-0.7,1.6-1.6,1.6h-5c-0.9,0-1.6-0.7-1.6-1.6v-9.2
			C258.4,265.7,259.1,265,260,265z"/>
		<path class="st6" d="M270.3,265h5c0.9,0,1.6,0.7,1.6,1.6v9.2c0,0.9-0.7,1.6-1.6,1.6h-5c-0.9,0-1.6-0.7-1.6-1.6v-9.2
			C268.7,265.7,269.4,265,270.3,265z"/>
		<path class="st6" d="M280.7,265h5c0.9,0,1.6,0.7,1.6,1.6v9.2c0,0.9-0.7,1.6-1.6,1.6h-5c-0.9,0-1.6-0.7-1.6-1.6v-9.2
			C279.1,265.7,279.8,265,280.7,265z"/>
		<path class="st6" d="M291.1,265h5c0.9,0,1.6,0.7,1.6,1.6v9.2c0,0.9-0.7,1.6-1.6,1.6h-5c-0.9,0-1.6-0.7-1.6-1.6v-9.2
			C289.4,265.7,290.2,265,291.1,265z"/>
		<path class="st6" d="M301.4,265h5c0.9,0,1.6,0.7,1.6,1.6v9.2c0,0.9-0.7,1.6-1.6,1.6h-5c-0.9,0-1.6-0.7-1.6-1.6v-9.2
			C299.8,265.7,300.5,265,301.4,265z"/>
		<path class="st6" d="M311.8,265h5c0.9,0,1.6,0.7,1.6,1.6v9.2c0,0.9-0.7,1.6-1.6,1.6h-5c-0.9,0-1.6-0.7-1.6-1.6v-9.2
			C310.2,265.7,310.9,265,311.8,265z"/>
		<path class="st6" d="M328.8,272.5v3.3c0,0.9-0.7,1.6-1.6,1.6l0,0h-5c-0.9,0-1.6-0.7-1.6-1.6l0,0v-9.2c0-0.9,0.7-1.6,1.6-1.6l0,0
			h2.3"/>
		<path class="st6" d="M233.3,283.2h5c0.9,0,1.6,0.7,1.6,1.6v9.2c0,0.9-0.7,1.6-1.6,1.6h-5c-0.9,0-1.6-0.7-1.6-1.6v-9.2
			C231.7,283.9,232.4,283.2,233.3,283.2z"/>
		<path class="st6" d="M243.6,283.2h5c0.9,0,1.6,0.7,1.6,1.6v9.2c0,0.9-0.7,1.6-1.6,1.6h-5c-0.9,0-1.6-0.7-1.6-1.6v-9.2
			C242,283.9,242.7,283.2,243.6,283.2z"/>
		<path class="st6" d="M254,283.2h5c0.9,0,1.6,0.7,1.6,1.6v9.2c0,0.9-0.7,1.6-1.6,1.6h-5c-0.9,0-1.6-0.7-1.6-1.6v-9.2
			C252.4,283.9,253.1,283.2,254,283.2z"/>
		<path class="st6" d="M264.4,283.2h5c0.9,0,1.6,0.7,1.6,1.6v9.2c0,0.9-0.7,1.6-1.6,1.6h-5c-0.9,0-1.6-0.7-1.6-1.6v-9.2
			C262.7,283.9,263.5,283.2,264.4,283.2z"/>
		<path class="st6" d="M274.7,283.2h5c0.9,0,1.6,0.7,1.6,1.6v9.2c0,0.9-0.7,1.6-1.6,1.6h-5c-0.9,0-1.6-0.7-1.6-1.6v-9.2
			C273.1,283.9,273.8,283.2,274.7,283.2z"/>
		<path class="st6" d="M285.1,283.2h5c0.9,0,1.6,0.7,1.6,1.6v9.2c0,0.9-0.7,1.6-1.6,1.6h-5c-0.9,0-1.6-0.7-1.6-1.6v-9.2
			C283.5,283.9,284.2,283.2,285.1,283.2z"/>
		<path class="st6" d="M295.4,283.2h5c0.9,0,1.6,0.7,1.6,1.6v9.2c0,0.9-0.7,1.6-1.6,1.6h-5c-0.9,0-1.6-0.7-1.6-1.6v-9.2
			C293.8,283.9,294.5,283.2,295.4,283.2z"/>
		<path class="st6" d="M305.8,283.2h5c0.9,0,1.6,0.7,1.6,1.6v9.2c0,0.9-0.7,1.6-1.6,1.6h-5c-0.9,0-1.6-0.7-1.6-1.6v-9.2
			C304.2,283.9,304.9,283.2,305.8,283.2z"/>
		<path class="st6" d="M316.2,283.2h5c0.9,0,1.6,0.7,1.6,1.6v9.2c0,0.9-0.7,1.6-1.6,1.6h-5c-0.9,0-1.6-0.7-1.6-1.6v-9.2
			C314.5,283.9,315.3,283.2,316.2,283.2z"/>
		<path class="st6" d="M238.3,301.5h-8.7c0.2,0.8,1.7,11.6,1.8,12.4h6.9c0.9,0,1.6-0.7,1.6-1.6v-9.2
			C239.9,302.2,239.2,301.5,238.3,301.5z"/>
		<path class="st6" d="M243.6,301.5h5c0.9,0,1.6,0.7,1.6,1.6v9.2c0,0.9-0.7,1.6-1.6,1.6h-5c-0.9,0-1.6-0.7-1.6-1.6v-9.2
			C242,302.2,242.7,301.5,243.6,301.5z"/>
		<path class="st6" d="M254,301.5h5c0.9,0,1.6,0.7,1.6,1.6v9.2c0,0.9-0.7,1.6-1.6,1.6h-5c-0.9,0-1.6-0.7-1.6-1.6v-9.2
			C252.4,302.2,253.1,301.5,254,301.5z"/>
		<path class="st6" d="M264.4,301.5h5c0.9,0,1.6,0.7,1.6,1.6v9.2c0,0.9-0.7,1.6-1.6,1.6h-5c-0.9,0-1.6-0.7-1.6-1.6v-9.2
			C262.7,302.2,263.5,301.5,264.4,301.5z"/>
		<path class="st6" d="M274.7,301.5h5c0.9,0,1.6,0.7,1.6,1.6v9.2c0,0.9-0.7,1.6-1.6,1.6h-5c-0.9,0-1.6-0.7-1.6-1.6v-9.2
			C273.1,302.2,273.8,301.5,274.7,301.5z"/>
		<path class="st6" d="M285.1,301.5h5c0.9,0,1.6,0.7,1.6,1.6v9.2c0,0.9-0.7,1.6-1.6,1.6h-5c-0.9,0-1.6-0.7-1.6-1.6v-9.2
			C283.5,302.2,284.2,301.5,285.1,301.5z"/>
		<path class="st6" d="M295.4,301.5h5c0.9,0,1.6,0.7,1.6,1.6v9.2c0,0.9-0.7,1.6-1.6,1.6h-5c-0.9,0-1.6-0.7-1.6-1.6v-9.2
			C293.8,302.2,294.5,301.5,295.4,301.5z"/>
		<path class="st6" d="M305.8,301.5h5c0.9,0,1.6,0.7,1.6,1.6v9.2c0,0.9-0.7,1.6-1.6,1.6h-5c-0.9,0-1.6-0.7-1.6-1.6v-9.2
			C304.2,302.2,304.9,301.5,305.8,301.5z"/>
		<path class="st6" d="M316.2,301.5h12.6c0.9,0,1.6,0.7,1.6,1.6v9.2c0,0.9-0.7,1.6-1.6,1.6h-12.6c-0.9,0-1.6-0.7-1.6-1.6v-9.2
			C314.5,302.2,315.3,301.5,316.2,301.5z"/>
		<path class="st6" d="M238.3,318.3h-6.5c0.2,0.8,0.7,11.6,0.8,12.4h5.7c0.9,0,1.6-0.7,1.6-1.6v-9.2
			C239.9,319,239.2,318.3,238.3,318.3z"/>
		<path class="st6" d="M243.6,318.3h9.6c0.9,0,1.6,0.7,1.6,1.6v9.2c0,0.9-0.7,1.6-1.6,1.6h-9.6c-0.9,0-1.6-0.7-1.6-1.6v-9.2
			C242,319,242.7,318.3,243.6,318.3z"/>
		<path class="st6" d="M258.2,318.3h43.3c0.9,0,1.6,0.7,1.6,1.6v9.2c0,0.9-0.7,1.6-1.6,1.6h-43.3c-0.9,0-1.6-0.7-1.6-1.6v-9.2
			C256.6,319,257.3,318.3,258.2,318.3z"/>
		<path class="st6" d="M322.7,330.7h-15.4c-0.9,0-1.6-0.7-1.6-1.6l0,0v-9.2c0-0.9,0.7-1.6,1.6-1.6c0,0,0,0,0,0h21.5
			c0.9,0,1.6,0.7,1.6,1.6c0,0,0,0,0,0v3.1"/>
		<path class="st6" d="M313.1,233.3h-69.8c-6,0-11,4.9-11,10.9l0,0c0,6,4.9,10.9,10.9,10.9l78.1-0.4
			C321.1,254.6,312,237.9,313.1,233.3z"/>
		<path class="st4" d="M249.8,118.4h42.7c0.9,0,1.7,0.8,1.7,1.7v0c0,0.9-0.8,1.7-1.7,1.7h-42.7c-0.9,0-1.7-0.8-1.7-1.7v0
			C248.2,119.1,248.9,118.4,249.8,118.4z"/>
		<ellipse class="st4" cx="299.7" cy="120.2" rx="2.2" ry="2.2"/>
		<path class="st4" d="M228,266.4h5c0.9,0,1.6,0.7,1.6,1.6v9.2c0,0.9-0.7,1.6-1.6,1.6h-5c-0.9,0-1.6-0.7-1.6-1.6V268
			C226.4,267.1,227.1,266.4,228,266.4z"/>
		<path class="st4" d="M238.4,266.4h5c0.9,0,1.6,0.7,1.6,1.6v9.2c0,0.9-0.7,1.6-1.6,1.6h-5c-0.9,0-1.6-0.7-1.6-1.6V268
			C236.8,267.1,237.5,266.4,238.4,266.4z"/>
		<path class="st4" d="M248.7,266.4h5c0.9,0,1.6,0.7,1.6,1.6v9.2c0,0.9-0.7,1.6-1.6,1.6h-5c-0.9,0-1.6-0.7-1.6-1.6V268
			C247.1,267.1,247.8,266.4,248.7,266.4z"/>
		<path class="st4" d="M259.1,266.4h5c0.9,0,1.6,0.7,1.6,1.6v9.2c0,0.9-0.7,1.6-1.6,1.6h-5c-0.9,0-1.6-0.7-1.6-1.6V268
			C257.5,267.1,258.2,266.4,259.1,266.4z"/>
		<path class="st4" d="M269.5,266.4h5c0.9,0,1.6,0.7,1.6,1.6v9.2c0,0.9-0.7,1.6-1.6,1.6h-5c-0.9,0-1.6-0.7-1.6-1.6V268
			C267.8,267.1,268.6,266.4,269.5,266.4z"/>
		<path class="st4" d="M279.8,266.4h5c0.9,0,1.6,0.7,1.6,1.6v9.2c0,0.9-0.7,1.6-1.6,1.6h-5c-0.9,0-1.6-0.7-1.6-1.6V268
			C278.2,267.1,278.9,266.4,279.8,266.4z"/>
		<path class="st4" d="M290.2,266.4h5c0.9,0,1.6,0.7,1.6,1.6v9.2c0,0.9-0.7,1.6-1.6,1.6h-5c-0.9,0-1.6-0.7-1.6-1.6V268
			C288.6,267.1,289.3,266.4,290.2,266.4z"/>
		<path class="st4" d="M300.5,266.4h5c0.9,0,1.6,0.7,1.6,1.6v9.2c0,0.9-0.7,1.6-1.6,1.6h-5c-0.9,0-1.6-0.7-1.6-1.6V268
			C298.9,267.1,299.6,266.4,300.5,266.4z"/>
		<path class="st4" d="M310.9,266.4h5c0.9,0,1.6,0.7,1.6,1.6v9.2c0,0.9-0.7,1.6-1.6,1.6h-5c-0.9,0-1.6-0.7-1.6-1.6V268
			C309.3,267.1,310,266.4,310.9,266.4z"/>
		<path class="st4" d="M327.9,269.6v7.5c0,0.9-0.7,1.6-1.6,1.6l0,0h-5c-0.9,0-1.6-0.7-1.6-1.6V268c0-0.9,0.7-1.6,1.6-1.6l0,0h5"/>
		<path class="st4" d="M232.4,284.6h5c0.9,0,1.6,0.7,1.6,1.6v9.2c0,0.9-0.7,1.6-1.6,1.6h-5c-0.9,0-1.6-0.7-1.6-1.6v-9.2
			C230.8,285.3,231.5,284.6,232.4,284.6z"/>
		<path class="st4" d="M242.8,284.6h5c0.9,0,1.6,0.7,1.6,1.6v9.2c0,0.9-0.7,1.6-1.6,1.6h-5c-0.9,0-1.6-0.7-1.6-1.6v-9.2
			C241.1,285.3,241.9,284.6,242.8,284.6z"/>
		<path class="st4" d="M253.1,284.6h5c0.9,0,1.6,0.7,1.6,1.6v9.2c0,0.9-0.7,1.6-1.6,1.6h-5c-0.9,0-1.6-0.7-1.6-1.6v-9.2
			C251.5,285.3,252.2,284.6,253.1,284.6z"/>
		<path class="st4" d="M263.5,284.6h5c0.9,0,1.6,0.7,1.6,1.6v9.2c0,0.9-0.7,1.6-1.6,1.6h-5c-0.9,0-1.6-0.7-1.6-1.6v-9.2
			C261.9,285.3,262.6,284.6,263.5,284.6z"/>
		<path class="st4" d="M273.8,284.6h5c0.9,0,1.6,0.7,1.6,1.6v9.2c0,0.9-0.7,1.6-1.6,1.6h-5c-0.9,0-1.6-0.7-1.6-1.6v-9.2
			C272.2,285.3,272.9,284.6,273.8,284.6z"/>
		<path class="st4" d="M284.2,284.6h5c0.9,0,1.6,0.7,1.6,1.6v9.2c0,0.9-0.7,1.6-1.6,1.6h-5c-0.9,0-1.6-0.7-1.6-1.6v-9.2
			C282.6,285.3,283.3,284.6,284.2,284.6z"/>
		<path class="st4" d="M294.6,284.6h5c0.9,0,1.6,0.7,1.6,1.6v9.2c0,0.9-0.7,1.6-1.6,1.6h-5c-0.9,0-1.6-0.7-1.6-1.6v-9.2
			C292.9,285.3,293.7,284.6,294.6,284.6z"/>
		<path class="st4" d="M304.9,284.6h5c0.9,0,1.6,0.7,1.6,1.6v9.2c0,0.9-0.7,1.6-1.6,1.6h-5c-0.9,0-1.6-0.7-1.6-1.6v-9.2
			C303.3,285.3,304,284.6,304.9,284.6z"/>
		<path class="st4" d="M315.3,284.6h5c0.9,0,1.6,0.7,1.6,1.6v9.2c0,0.9-0.7,1.6-1.6,1.6h-5c-0.9,0-1.6-0.7-1.6-1.6v-9.2
			C313.7,285.3,314.4,284.6,315.3,284.6z"/>
		<path class="st4" d="M237.4,302.8h-8.7c0.2,0.8,1.7,11.6,1.8,12.4h6.9c0.9,0,1.6-0.7,1.6-1.6v-9.2
			C239,303.6,238.3,302.8,237.4,302.8C237.4,302.8,237.4,302.8,237.4,302.8z"/>
		<path class="st4" d="M242.8,302.8h5c0.9,0,1.6,0.7,1.6,1.6v9.2c0,0.9-0.7,1.6-1.6,1.6h-5c-0.9,0-1.6-0.7-1.6-1.6v-9.2
			C241.1,303.6,241.9,302.8,242.8,302.8z"/>
		<path class="st4" d="M253.1,302.8h5c0.9,0,1.6,0.7,1.6,1.6v9.2c0,0.9-0.7,1.6-1.6,1.6h-5c-0.9,0-1.6-0.7-1.6-1.6v-9.2
			C251.5,303.6,252.2,302.8,253.1,302.8z"/>
		<path class="st4" d="M263.5,302.8h5c0.9,0,1.6,0.7,1.6,1.6v9.2c0,0.9-0.7,1.6-1.6,1.6h-5c-0.9,0-1.6-0.7-1.6-1.6v-9.2
			C261.9,303.6,262.6,302.8,263.5,302.8z"/>
		<path class="st4" d="M273.8,302.8h5c0.9,0,1.6,0.7,1.6,1.6v9.2c0,0.9-0.7,1.6-1.6,1.6h-5c-0.9,0-1.6-0.7-1.6-1.6v-9.2
			C272.2,303.6,272.9,302.8,273.8,302.8z"/>
		<path class="st4" d="M284.2,302.8h5c0.9,0,1.6,0.7,1.6,1.6v9.2c0,0.9-0.7,1.6-1.6,1.6h-5c-0.9,0-1.6-0.7-1.6-1.6v-9.2
			C282.6,303.6,283.3,302.8,284.2,302.8z"/>
		<path class="st4" d="M294.6,302.8h5c0.9,0,1.6,0.7,1.6,1.6v9.2c0,0.9-0.7,1.6-1.6,1.6h-5c-0.9,0-1.6-0.7-1.6-1.6v-9.2
			C292.9,303.6,293.7,302.8,294.6,302.8z"/>
		<path class="st4" d="M304.9,302.8h5c0.9,0,1.6,0.7,1.6,1.6v9.2c0,0.9-0.7,1.6-1.6,1.6h-5c-0.9,0-1.6-0.7-1.6-1.6v-9.2
			C303.3,303.6,304,302.8,304.9,302.8z"/>
		<path class="st4" d="M315.3,302.8h12.6c0.9,0,1.6,0.7,1.6,1.6v9.2c0,0.9-0.7,1.6-1.6,1.6h-12.6c-0.9,0-1.6-0.7-1.6-1.6v-9.2
			C313.7,303.6,314.4,302.8,315.3,302.8z"/>
		<path class="st4" d="M237.4,319.7h-6.5c0.2,0.8,0.7,11.6,0.8,12.4h5.7c0.9,0,1.6-0.7,1.6-1.6v-9.2
			C239,320.4,238.3,319.7,237.4,319.7L237.4,319.7z"/>
		<path class="st4" d="M242.8,319.7h9.6c0.9,0,1.6,0.7,1.6,1.6v9.2c0,0.9-0.7,1.6-1.6,1.6h-9.6c-0.9,0-1.6-0.7-1.6-1.6v-9.2
			C241.1,320.4,241.9,319.7,242.8,319.7z"/>
		<path class="st4" d="M257.3,319.7h43.3c0.9,0,1.6,0.7,1.6,1.6v9.2c0,0.9-0.7,1.6-1.6,1.6h-43.3c-0.9,0-1.6-0.7-1.6-1.6v-9.2
			C255.7,320.4,256.4,319.7,257.3,319.7z"/>
		<path class="st4" d="M321.8,332.1h-15.4c-0.9,0-1.6-0.7-1.6-1.6l0,0v-9.2c0-0.9,0.7-1.6,1.6-1.6h21.5c0.9,0,1.6,0.7,1.6,1.6l0,0
			v3.1"/>
		<path class="st4" d="M312.3,234.7h-69.8c-6,0-11,4.9-11,10.9l0,0c0,6,4.9,10.9,10.9,10.9l78.1-0.4
			C320.2,255.9,311.1,239.3,312.3,234.7z"/>
		<line class="st4" x1="220.1" y1="263.3" x2="319.1" y2="263.3"/>
		<line class="st4" x1="225.3" y1="263.3" x2="324.4" y2="263.3"/>
		<path class="st3" d="M244.1,188.2h66c3.3,0,5.9,2.6,5.9,5.9V221c0,0.5-0.4,0.9-0.9,0.9c-0.3,0-0.6-0.1-0.7-0.4l-4.5-6.4h-65.8
			c-3.3,0-5.9-2.6-5.9-5.9v-15.1C238.2,190.8,240.8,188.2,244.1,188.2z"/>
		<path class="st4" d="M242.4,186.9h66c3.3,0,5.9,2.6,5.9,5.9v26.9c0,0.5-0.4,0.9-0.9,0.9c-0.3,0-0.6-0.1-0.7-0.4l-4.5-6.4h-65.8
			c-3.3,0-5.9-2.6-5.9-5.9v-15.1C236.5,189.5,239.1,186.9,242.4,186.9L242.4,186.9z"/>
		<path class="st11" d="M308.1,138h-66c-3.3,0-5.9,2.6-5.9,5.9v38.6c0,0.5,0.4,0.9,0.9,0.9c0.3,0,0.6-0.1,0.7-0.4l4.5-6.4h65.8
			c3.3,0,5.9-2.6,5.9-5.9v-26.8C314,140.6,311.4,138,308.1,138L308.1,138z"/>
		<path class="st4" d="M309.6,136.4h-66c-3.3,0-5.9,2.6-5.9,5.9v38.6c0,0.5,0.4,0.9,0.9,0.9c0.3,0,0.6-0.1,0.7-0.4l4.5-6.4h65.8
			c3.3,0,5.9-2.6,5.9-5.9v-26.8C315.5,139.1,312.8,136.4,309.6,136.4C309.6,136.4,309.6,136.4,309.6,136.4z"/>
		<path class="st2" d="M202.8,187.5c0,0,6.6,1.8,16.5-15.4c5.1-8.8-5.7-7.7-5.7-7.7L202.8,187.5z"/>
		<path class="st2" d="M325.7,345.6c0,0,9.7-2.1,12.7-6.2s-2.4-15-2.4-15s-10.8-3.4-13,3.4C321.6,331.6,325.7,345.6,325.7,345.6z"/>
		<path class="st2" d="M333.5,238.3c0,0-3.5,2.8-13.7-6.9l-5.8-5.3c0,0,2.9-5.3,6.4-3.5S333.5,238.3,333.5,238.3z"/>
		<path class="st2" d="M343.2,249.4l0.5-4.4c0,0,3.7-0.9,5.2,1.9l1.7,11.6L343.2,249.4z"/>
		<path class="st2" d="M345.2,197.7l-0.3,6.3c1.7,0.2,3.3,0.6,4.8,1.3c2.3,1.1,4.4,3,4.5,2.8c0.2-0.5-2.5-4.6-4.5-5.9
			C348,200.9,346.5,199.4,345.2,197.7z"/>
		<polygon class="st2" points="337,287.3 334.5,291.9 341.1,293.7 		"/>
		<line class="st8" x1="303.7" y1="146.7" x2="246.4" y2="147.3"/>
		<path class="st8" d="M246.4,157.4c1.9,0,44.4,0.8,44.4,0.8"/>
		<line class="st8" x1="307.5" y1="196.2" x2="246.4" y2="196.2"/>
		<line class="st8" x1="246.4" y1="206.3" x2="293.5" y2="205.7"/>
		<circle class="st2" cx="410.4" cy="257.4" r="1"/>
	</g>
</g>
</svg>
