<?xml version="1.0" encoding="UTF-8"?><svg id="Layer_3" xmlns="http://www.w3.org/2000/svg" xmlns:xlink="http://www.w3.org/1999/xlink" viewBox="0 0 841.88976 467.71654"><defs><style>.cls-1,.cls-2{fill:none;}.cls-3{clip-path:url(#clippath);}.cls-4{fill:#f4f4f5;}.cls-5{fill:#fff;}.cls-6{fill:#989a9c;}.cls-7{fill:#90bcd6;}.cls-8{fill:#cc8562;}.cls-9{fill:#54565a;}.cls-10{fill:#76767b;}.cls-2{stroke:#54565a;stroke-miterlimit:10;}</style><clipPath id="clippath"><rect class="cls-7" width="841.88976" height="467.71654"/></clipPath></defs><g><rect class="cls-7" width="841.88976" height="467.71654"/><g class="cls-3"><rect class="cls-7" width="841.88976" height="467.71654"/></g></g><path class="cls-5" d="m356.10122,135.35954c2.02659-4.58305,3.16078-9.64886,3.16078-14.9823,0-20.48662-16.60774-37.09431-37.09436-37.09431-9.24115,0-17.68611,3.38703-24.18034,8.97723-11.75298-14.13714-29.46838-23.14112-49.28978-23.14112-9.91258,0-19.29792,2.25329-27.67577,6.27194-11.67509-12.70872-29.1921-20.79509-48.7843-20.79509-27.56747,0-51.03525,16.00017-59.88034,38.37921-6.69104-3.24157-14.19907-5.06138-22.13286-5.06138-26.93443,0-48.96255,20.95265-50.7064,47.44582h316.58337Z"/><path class="cls-5" d="m844.91004,138.4018c-3.56543-.6488-7.23315-1.00494-10.98608-1.00494-24.33777,0-45.34155,14.25134-55.13745,34.86121-12.31201-7.75024-27.22974-12.29871-43.31714-12.29871-9.34863,0-18.302,1.5387-26.5813,4.34357-13.59912-21.698-37.71069-36.13617-65.20703-36.13617-33.27075,0-61.60278,21.12628-72.32568,50.69403-4.93188-1.88275-10.27979-2.92365-15.87305-2.92365-16.16187,0-30.31152,8.61066-38.11499,21.49384h327.54272v-59.02917Z"/><path class="cls-5" d="m0,354.25983h269.34277c-.52954-33.2439-27.62646-60.03412-60.99634-60.03412-24.33765,0-45.34155,14.25134-55.13745,34.86121-12.31201-7.75024-27.22974-12.29871-43.31714-12.29871-9.34863,0-18.302,1.5387-26.5813,4.34357-13.59912-21.698-37.71069-36.13617-65.20703-36.13617-6.23584,0-12.2981.74225-18.10352,2.14301v67.12122Z"/><g><path class="cls-5" d="m183.59658,467.71654c4.66675-9.68402,9.20752-19.25146,11.85571-25.20966,7.14648-16.08008,34.20166-23.7373,34.20166-23.7373,48.75098-19.65338,99.28833-19.14294,101.33008-19.39819,2.04199-.25519,44.66699-.25519,86.271-6.12573,18.58838-2.62292,43.10791-13.16034,61.25732-19.14294,22.47217-7.40741,35.65723-9.40033,44.41162-12.50671,15.8252-5.6153,40.32812-8.16766,59.98145-16.08008s35.47803-15.56958,35.47803-15.56958l49.26123-18.37726,42.36987-18.8877s1.91699-.96539,4.87915-2.48267c9.78027-5.00989,30.95508-16.03674,32.13037-18.19171,1.53174-2.80762-1.78662-4.08386-1.78662-4.08386-7.91211-31.90491-40.37402-21.64899-40.37402-21.64899-17.56519-11.5321-44.80273,5.79346-49.82373,10.04193-5.021,4.24854-30.89502,11.44641-30.89502,11.44641,0,0-4.25146-4.49426-15.06592-4.88049s-50.98242,11.97308-50.98242,11.97308c-48.44482-4.12427-58.59277,1.89069-94.89819-.04047-5.96606-.31732-15.14966-.35394-26.57007-.85437-8.86523-.38849-24.01855-2.77325-34.54541-3.25903-29.63281-1.36749-69.82715,2.02106-96.79346.97772-26.19946-1.01373-35.69824-6.47534-35.70557-6.47955-33.10034-19.0412-87.36157-5.31573-116.31445,19.78754-12.93066,11.21155-42.29663,51.48169-50.323,62.68433-17.59033,24.55109-56.64355,85.48334-78.62622,120.04529h159.27661Z"/><path class="cls-8" d="m187.86367,467.71654c4.16431-8.66876,8.08472-16.96307,10.46948-22.32867,7.14648-16.08008,34.2019-23.7373,34.2019-23.7373,48.75073-19.65338,99.28809-19.14294,101.33008-19.39819,2.04199-.25519,44.66675-.25519,86.271-6.12573,18.58838-2.62292,43.10767-13.16034,61.25732-19.14294,22.47192-7.40741,35.65723-9.40033,44.41162-12.50671,15.82495-5.6153,40.32788-8.16766,59.9812-16.08008,19.65356-7.91241,35.47827-15.56958,35.47827-15.56958l49.26123-18.37726,42.36963-18.8877s1.91699-.96539,4.87915-2.48267c9.78052-5.00989,30.95508-16.03674,32.13062-18.19171,1.53149-2.80762-1.78662-4.08386-1.78662-4.08386-7.91235-31.90491-40.37427-21.64899-40.37427-21.64899-17.56519-11.5321-44.80249,5.79346-49.82349,10.04193-5.021,4.24854-30.89526,11.44641-30.89526,11.44641,0,0-4.25146-4.49426-15.06592-4.88049s-50.98218,11.97308-50.98218,11.97308c-48.44482-4.12427-58.59277,1.89069-94.89844-.04047-5.96606-.31732-15.14966-.35394-26.56982-.85437-8.86548-.38849-24.0188-2.77325-34.54565-3.25903-29.63281-1.36749-69.82715,2.02106-96.79321.97772-26.19946-1.01373-35.69849-6.47534-35.70581-6.47955-33.1001-19.0412-87.36133-5.3158-116.31421,19.78754-12.93091,11.21149-42.29688,51.48169-50.32324,62.68433-17.11035,23.88135-54.53198,82.19092-76.79321,117.16431h158.82983Z"/><path class="cls-2" d="m184.02041,467.71654c4.74097-9.83362,9.37915-19.6012,12.06738-25.64972,7.14673-16.08008,34.2019-23.7373,34.2019-23.7373,48.75073-19.65338,99.28809-19.14294,101.33008-19.39819,2.04199-.25519,44.66699-.25519,86.271-6.12573,18.58838-2.62292,43.10791-13.16034,61.25732-19.14294,22.47217-7.40741,35.65723-9.40033,44.41162-12.50671,15.82495-5.6153,40.32788-8.16766,59.9812-16.08008,19.65356-7.91241,35.47827-15.56958,35.47827-15.56958l49.26123-18.37726,42.36963-18.8877s1.91699-.96539,4.87915-2.48267c9.78052-5.00989,30.95532-16.03674,32.13062-18.19171,1.53149-2.80762-1.78662-4.08386-1.78662-4.08386-7.91235-31.90491-40.37427-21.64899-40.37427-21.64899-17.56519-11.5321-44.80249,5.79346-49.82349,10.04193-5.021,4.24854-30.89526,11.44641-30.89526,11.44641,0,0-4.25146-4.49426-15.06592-4.88049s-50.98218,11.97308-50.98218,11.97308c-48.44482-4.12427-58.59277,1.89069-94.89844-.04047-5.96582-.31732-15.14966-.35394-26.56982-.85437-8.86548-.38849-24.01855-2.77325-34.54565-3.25903-29.63257-1.36749-69.8269,2.02106-96.79321.97772-26.19971-1.01373-35.69849-6.47534-35.70581-6.47955-33.1001-19.0412-87.36133-5.3158-116.31421,19.78754-12.93091,11.21149-42.29688,51.48169-50.32324,62.68433-17.66455,24.65497-56.97607,86.00244-78.90601,120.48535"/><path class="cls-2" d="m275.41719,271.38558s13.33811,12.63502,22.4239,18.56602c17.36044,11.33251,34.47976,17.84267,39.78434,17.84267,2.65229,0,16.81792-7.47463,32.79194-10.60916,15.97401-3.13452,33.75641-1.92894,33.75641-1.92894,40.50769,7.95687,29.89853,43.15998,27.96959,45.57115-.63827.79783-7.79758,5.07035-19.77161,9.16245-9.18077,3.13751-23.03206,6.18987-33.99752,9.40357-17.95475,5.26208-32.48744,10.23073-38.09652,11.33251-13.50256,2.65229-29.65742-2.89341-48.70567-6.02793s-43.53163,1.33359-43.53163,1.33359"/><path class="cls-2" d="m428.04438,324.9136c-1.962-5.57621-5.53749-16.36171-23.42196-19.88434-2.34164-.46122-4.76393-.33328-7.04742.36073-7.20533,2.18986-24.16451,7.45325-26.43427,9.15557-2.89341,2.17005-4.58123,4.34011-1.92894,14.46703,2.65229,10.12692,11.81474,21.94166,17.60156,22.18278s33.03306-5.78681,34.96199-6.51016,10.85027-6.75128,6.26905-19.77161Z"/><path class="cls-2" d="m710.65016,292.24133s6.49386-7.52424,6.97597-13.38112c.13884-1.68674-1.25353-1.86606-2.17005-3.37564-4.09899-6.75128-11.81474-15.91373-32.79194-11.81474s-29.65742,6.26905-46.05338,9.64469-39.3021,15.91373-61.48489,18.56602-40.98992,1.92894-58.35036,3.13452c-17.36044,1.20559-69.20064,9.88581-75.46968,12.05586"/><path class="cls-2" d="m705.499,245.83411s-39.23083,13.4956-56.35015,24.587"/><path class="cls-2" d="m717.1439,277.41351s-20.49496,10.60916-28.45183,17.84267c-7.95687,7.23352-10.60916,11.57363-10.60916,11.57363"/><path class="cls-2" d="m745.87319,267.48311s-6.78762-1.88435-14.98561,1.73241-13.9848,12.05586-13.9848,12.05586"/><path class="cls-2" d="m624.78013,267.32243s-26.74812,8.64438-33.01717,10.57331-21.94166,4.34011-34.23864,6.9924-28.69295,6.02793-38.81987,6.02793-29.65742,4.34011-36.64981,2.41117c-14.56202-4.01711-21.70055-2.89341-24.59395-2.65229"/><path class="cls-2" d="m355.56393,296.94981c-2.00447,0-19.54357-4.00894-30.56815-.50112"/></g><g><g><g><path class="cls-5" d="m474.72683,269.32166c1.28752.31773,2.48322.89338,3.51594,1.68593l4.50449-6.02201c-2.63558.49224-5.24826.9612-7.80027,1.39567l-.22016,2.94041Z"/><path class="cls-5" d="m635.76257,181.6498c.17293-.04044.37047-.07461.57968-.10569-4.49482-2.67568-32.27384-22.81322-82.67506,8.09156,8.01839.27267,33.86322.9715,52.50965-.58291,22.32662-1.86119,29.58574-7.40296,29.58574-7.40296Z"/><path class="cls-5" d="m591.44036,218.46501c-1.0599,2.95443-3.50527,4.45906,6.31304,10.55394,0,0,3.98204-.47688,3.51353-6.07576-.23171-2.76944-.20652-4.63073-.12188-5.80477.0698-.96627-.68243-1.78608-1.65017-1.8297-2.48924-.11209-7.321,1.11169-8.05452,3.15629Z"/><path class="cls-5" d="m361.16671,267.52678l-16.67825,6.81159-.44961.18367c1.43232,2.30914,3.34263,4.48887,5.87675,6.35545,0,0,6.22074,1.05305,17.7794-4.36868.14737-.0691.28515-.12691.43435-.1982,0,0-3.8514-3.29927-6.96264-8.78384Z"/><path class="cls-5" d="m358.41784,246.33476s-8.4549-1.98044-17.82252,5.80618c0,0-.99662,4.51867-.43003,10.29286l.3159-.07957,17.275-3.87047c-.70797-3.67369-.68595-7.76866.66164-12.149Z"/><path class="cls-5" d="m344.02256,274.20121l-.15487.02697c.05852.09755.11085.19671.17117.29387l.44961-.18367c-.29876-.0935-.4659-.13716-.4659-.13716Z"/><path class="cls-5" d="m585.69486,256.06512l-1.45775-3.16437c-.84458,1.37738-1.14471,3.10559-.6189,4.85668.71617,2.38505,2.94282,4.10522,5.43143,4.1959,3.74538.13648,6.57908-3.0605,6.16988-6.62545-.07395-.64424-.26741-1.93556-.63051-2.53851-2.24048-3.72042-5.12649-2.95253-6.73586-2.54821l1.17292,4.64766c.17144.67932-.07301,1.3959-.62387,1.82882h0c-.9013.70834-2.22769.38865-2.70733-.65251Z"/><path class="cls-5" d="m474.94699,266.38125c-1.09257.18598-2.17349.36559-3.24016.5379l-.09235,2.16489c1.07212-.09495,2.11864-.00747,3.11235.23762l.22016-2.94041Z"/><path class="cls-5" d="m478.24277,271.00759c.67555.51826,1.27709,1.12898,1.79457,1.81179l6.4414-8.54273c-1.24597.24062-2.49096.47719-3.73148.70893l-4.50449,6.02201Z"/><path class="cls-5" d="m480.03735,272.81938c-.51748-.68281-1.11903-1.29354-1.79457-1.81179-1.03272-.79255-2.22843-1.3682-3.51594-1.68593-.99371-.24509-2.04023-.33258-3.11235-.23762-.09902.00879-.19667.00849-.29606.0204-5.22075.62522-8.94624,5.36435-8.32101,10.5851.62523,5.22081,5.36441,8.94623,10.58516,8.32101s8.94612-5.36433,8.32088-10.58515c-.20818-1.73837-.8799-3.30462-1.86611-4.60601Z"/><path class="cls-5" d="m490.80009,268.34637c1.29308-1.60171,3.18443-2.72274,5.38987-2.98686.55621-.06661,1.10597-.07516,1.64366-.03148l1.3691-3.62381c-3.91067.82241-7.964,1.6485-12.02018,2.43639l3.61756,4.20576Z"/><path class="cls-5" d="m497.83362,265.32803c-.53769-.04367-1.08745-.03513-1.64366.03148-2.20543.26412-4.09678,1.38515-5.38987,2.98686-1.33749,1.65694-2.0343,3.82844-1.76109,6.10975.53731,4.48662,4.60997,7.68815,9.09671,7.15082,4.4865-.53729,7.68802-4.60996,7.15072-9.09658-.47069-3.93035-3.65457-6.87392-7.45281-7.18234Z"/><path class="cls-5" d="m484.73155,243.1601c-30.42418,5.6631-65.64488,20.18124-65.64488,20.18124,0,0-.07992,1.01936,2.58714,4.73924,2.66718,3.71986,31.14562,1.05611,31.14562,1.05611,4.94699-.19792,11.57945-1.03702,18.88741-2.21753,1.06667-.17231,2.14759-.35192,3.24016-.5379,2.55202-.43447,5.16469-.90343,7.80027-1.39567,1.24052-.23173,2.48551-.4683,3.73148-.70893.23467-.04538.46913-.09048.70378-.13604,4.05618-.78789,8.10952-1.61398,12.02018-2.43639,16.86168-3.54601,31.04017-7.01879,31.04017-7.01879,4.15206-.78394,7.85483-1.7039,11.15185-2.69606,8.72824-2.62656,14.58486-5.75974,18.26766-8.24255,1.17183-.79001,2.12389-1.51411,2.8777-2.13465,1.12859-.92906.76424-2.75477-.63822-3.16704-20.11768-5.91371-48.19882-.6778-77.17032,4.71496Z"/><path class="cls-5" d="m584.75076,245.31724c-.81152.30102-2.01035.66429-3.51189,1.07457-8.62021,2.35526-27.09645,6.23835-38.06172,8.52849,1.68972,2.22459,4.25774,4.30552,7.89789,4.08529,6.08057-.36791,24.99955-5.12854,31.70129-9.27583,1.66197-1.0284,2.58446-2.01964,2.35986-2.89619-.12496-.48805-.25453-.99818-.38543-1.51632Z"/><path class="cls-5" d="m700.9604,191.71901l5.8729-3.54742-55.78606-6.11758s-10.60993-1.11785-14.705-.5099c-.20921.03108-.40675.06525-.57968.10569,0,0-7.25912,5.54177-29.58574,7.40296-18.64643,1.55441-44.49126.85558-52.50965.58291-1.58257-.05384-2.48492-.0914-2.48492-.0914,0,0-28.28949,13.13907-48.31,18.99019-20.02051,5.85113-31.85175,8.2679-31.85175,8.2679-1.90908-.04332-61.34859-3.5326-61.34859-3.5326l-67.89304-40.01139-29.21809,8.12296s-1.35197,2.33781,2.18688,4.63386l36.15585,42.99619-2.58506,1.12555,1.79991,8.21609,2.6814-.32112.9747,5.86707,20.05767-5.12198-.04332,1.90914-15.37098,5.64863c-1.34759,4.38034-1.36961,8.47531-.66164,12.149l-17.275,3.87047-.3159.07957-9.98117,2.51351-15.68403,14.38978,25.88489-4.50305,3.4827-.60586.15487-.02697s.16714.04367.4659.13716l16.67825-6.81159c3.11124,5.48457,6.96264,8.78384,6.96264,8.78384-.1492.07129-.28698.1291-.43435.1982,4.59837-.51473,29.15851-3.30477,42.88558-5.68616l.969,10.29233,27.76839-.68701.99111-3.148s6.49682.39458,9.57965.02539c3.08283-.36919,2.93069-8.16871,2.93069-8.16871,0,0-28.47844,2.66376-31.14562-1.05611-2.66706-3.71988-2.58714-4.73924-2.58714-4.73924,0,0,35.2207-14.51813,65.64488-20.18124,28.9715-5.39276,57.05264-10.62868,77.17032-4.71496,1.40246.41226,1.76681,2.23798.63822,3.16704-.75381.62053-1.70586,1.34464-2.8777,2.13465-3.68281,2.48281-9.53942,5.61599-18.26766,8.24255-3.29702.99216-6.99979,1.91212-11.15185,2.69606,0,0,.16507,3.0096,4.63532,1.98562,1.03769-.23769,4.12482-.87897,8.29894-1.75076,10.96527-2.29014,29.44151-6.17323,38.06172-8.52849,1.50154-.41028,2.70037-.77354,3.51189-1.07457.3961-.14696.70464-.2798.90367-.39486.26228-.15159.50252-.32291.72914-.50533,3.09094-2.4881,2.99525-7.56295,2.99525-7.56295,0,0,10.40176-5.34994,11.28091-7.80054,0,0,4.89325-12.99662,6.74332-14.68403l.43958-1.22527-10.09657,2.18635.41296-3.07882s85.9206-12.21357,102.80139-20.53278Z"/><path class="cls-5" d="m587.85313,250.24115l-1.46956-5.8241c-.22662.18242-.46687.35374-.72914.50533-.19903.11506-.50757.2479-.90367.39486.1309.51814.26047,1.02826.38543,1.51632.2246.87655-.6979,1.86778-2.35986,2.89619l1.46079,3.171,1.45775,3.16437c.47964,1.04116,1.80603,1.36085,2.70733.65251h0c.55086-.43292.7953-1.14951.62387-1.82883l-1.17292-4.64766Z"/></g><path class="cls-5" d="m599.49488,215.30872c.96774.04362,1.71997.86344,1.65017,1.8297-.08463,1.17403-.10983,3.03533.12188,5.80477.46851,5.59888-3.51353,6.07576-3.51353,6.07576-9.81831-6.09488-7.37294-7.59952-6.31304-10.55394.73352-2.0446,5.56528-3.26838,8.05452-3.15629Z"/><circle class="cls-5" cx="471.9635" cy="278.66057" r="5.85755"/></g><g><g><path class="cls-1" d="m474.78885,269.83951c1.28752.31773,2.48322.89338,3.51594,1.68593l4.50449-6.02201c-2.63558.49224-5.24826.9612-7.80027,1.39567l-.22016,2.94041Z"/><path class="cls-6" d="m635.82459,182.16765c.17293-.04044.37047-.07461.57968-.10569-4.49482-2.67568-32.27384-22.81322-82.67506,8.09156,8.01839.27267,33.86322.9715,52.50965-.58291,22.32662-1.86119,29.58574-7.40296,29.58574-7.40296Z"/><path class="cls-2" d="m591.50238,218.98286c-1.0599,2.95443-3.50527,4.45906,6.31304,10.55394,0,0,3.98204-.47688,3.51353-6.07576-.23171-2.76944-.20652-4.63073-.12188-5.80477.0698-.96627-.68243-1.78608-1.65017-1.8297-2.48924-.11209-7.321,1.11169-8.05452,3.15629Z"/><path class="cls-9" d="m361.22873,268.04464l-16.67825,6.81159-.44961.18367c1.43232,2.30914,3.34263,4.48887,5.87675,6.35545,0,0,6.22074,1.05305,17.7794-4.36868.14737-.0691.28515-.12691.43435-.1982,0,0-3.8514-3.29927-6.96264-8.78384Z"/><path class="cls-9" d="m358.47986,246.85262s-8.4549-1.98044-17.82252,5.80618c0,0-.99662,4.51867-.43003,10.29286l.3159-.07957,17.275-3.87047c-.70797-3.67369-.68595-7.76866.66164-12.149Z"/><path class="cls-2" d="m344.08458,274.71907l-.15487.02697c.05852.09755.11085.19671.17117.29387l.44961-.18367c-.29876-.0935-.4659-.13716-.4659-.13716Z"/><path class="cls-9" d="m585.75688,256.58297l-1.45775-3.16437c-.84458,1.37738-1.14471,3.10559-.6189,4.85668.71617,2.38505,2.94282,4.10522,5.43143,4.1959,3.74538.13648,6.57908-3.0605,6.16988-6.62545-.07395-.64424-.26741-1.93556-.63051-2.53851-2.24048-3.72042-5.12649-2.95253-6.73586-2.54821l1.17292,4.64766c.17144.67932-.07301,1.3959-.62387,1.82882h0c-.9013.70834-2.22769.38865-2.70733-.65251Z"/><path class="cls-10" d="m475.00901,266.8991c-1.09257.18598-2.17349.36559-3.24016.5379l-.09235,2.16489c1.07212-.09495,2.11864-.00747,3.11235.23762l.22016-2.94041Z"/><path class="cls-10" d="m478.30479,271.52544c.67555.51826,1.27709,1.12898,1.79457,1.81179l6.4414-8.54273c-1.24597.24062-2.49096.47719-3.73148.70893l-4.50449,6.02201Z"/><path class="cls-9" d="m480.09936,273.33724c-.51748-.68281-1.11903-1.29354-1.79457-1.81179-1.03272-.79255-2.22843-1.3682-3.51594-1.68593-.99371-.24509-2.04023-.33258-3.11235-.23762-.09902.00879-.19667.00849-.29606.0204-5.22075.62522-8.94624,5.36435-8.32101,10.5851s5.36441,8.94623,10.58516,8.32101,8.94612-5.36433,8.32088-10.58515c-.20818-1.73837-.8799-3.30462-1.86611-4.60601Z"/><path class="cls-10" d="m490.86211,268.86423c1.29308-1.60171,3.18443-2.72274,5.38987-2.98686.55621-.06661,1.10597-.07516,1.64366-.03148l1.3691-3.62381c-3.91067.82241-7.964,1.6485-12.02018,2.43639l3.61756,4.20576Z"/><path class="cls-9" d="m497.89563,265.84589c-.53769-.04367-1.08745-.03513-1.64366.03148-2.20543.26412-4.09678,1.38515-5.38987,2.98686-1.33749,1.65694-2.0343,3.82844-1.76109,6.10975.53731,4.48662,4.60997,7.68815,9.09671,7.15082,4.4865-.53729,7.68802-4.60996,7.15072-9.09658-.47069-3.93035-3.65457-6.87392-7.45281-7.18234Z"/><path class="cls-9" d="m484.79357,243.67795c-30.42418,5.6631-65.64488,20.18124-65.64488,20.18124,0,0-.07992,1.01936,2.58714,4.73924,2.66718,3.71986,31.14562,1.05611,31.14562,1.05611,4.94699-.19792,11.57945-1.03702,18.88741-2.21753,1.06667-.17231,2.14759-.35192,3.24016-.5379,2.55202-.43447,5.16469-.90343,7.80027-1.39567,1.24052-.23173,2.48551-.4683,3.73148-.70893.23467-.04538.46913-.09048.70378-.13604,4.05618-.78789,8.10952-1.61398,12.02018-2.43639,16.86168-3.54601,31.04017-7.01879,31.04017-7.01879,4.15206-.78394,7.85483-1.7039,11.15185-2.69606,8.72824-2.62656,14.58486-5.75974,18.26766-8.24255,1.17183-.79001,2.12389-1.51411,2.8777-2.13465,1.12859-.92906.76424-2.75477-.63822-3.16704-20.11768-5.91371-48.19882-.6778-77.17032,4.71496Z"/><path class="cls-9" d="m584.81277,245.83509c-.81152.30102-2.01035.66429-3.51189,1.07457-8.62021,2.35526-27.09645,6.23835-38.06172,8.52849,1.68972,2.22459,4.25774,4.30552,7.89789,4.08529,6.08057-.36791,24.99955-5.12854,31.70129-9.27583,1.66197-1.0284,2.58446-2.01964,2.35986-2.89619-.12496-.48805-.25453-.99818-.38543-1.51632Z"/><path class="cls-10" d="m701.02242,192.23686l5.8729-3.54742-55.78606-6.11758s-10.60993-1.11785-14.705-.5099c-.20921.03108-.40675.06525-.57968.10569,0,0-7.25912,5.54177-29.58574,7.40296-18.64643,1.55441-44.49126.85558-52.50965.58291-1.58257-.05384-2.48492-.0914-2.48492-.0914,0,0-28.28949,13.13907-48.31,18.99019-20.02051,5.85113-31.85175,8.2679-31.85175,8.2679-1.90908-.04332-61.34859-3.5326-61.34859-3.5326l-67.89304-40.01139-29.21809,8.12296s-1.35197,2.33781,2.18688,4.63386l36.15585,42.99619-2.58506,1.12555,1.79991,8.21609,2.6814-.32112.9747,5.86707,20.05767-5.12198-.04332,1.90914-15.37098,5.64863c-1.34759,4.38034-1.36961,8.47531-.66164,12.149l-17.275,3.87047-.3159.07957-9.98117,2.51351-15.68403,14.38978,25.88489-4.50305,3.4827-.60586.15487-.02697s.16714.04367.4659.13716l16.67825-6.81159c3.11124,5.48457,6.96264,8.78384,6.96264,8.78384-.1492.07129-.28698.1291-.43435.1982,4.59837-.51473,29.15851-3.30477,42.88558-5.68616l.969,10.29233,27.76839-.68701.99111-3.148s6.49682.39458,9.57965.02539,2.93069-8.16871,2.93069-8.16871c0,0-28.47844,2.66376-31.14562-1.05611-2.66706-3.71988-2.58714-4.73924-2.58714-4.73924,0,0,35.2207-14.51813,65.64488-20.18124,28.9715-5.39276,57.05264-10.62868,77.17032-4.71496,1.40246.41226,1.76681,2.23798.63822,3.16704-.75381.62053-1.70586,1.34464-2.8777,2.13465-3.68281,2.48281-9.53942,5.61599-18.26766,8.24255-3.29702.99216-6.99979,1.91212-11.15185,2.69606,0,0,.16507,3.0096,4.63532,1.98562,1.03769-.23769,4.12482-.87897,8.29894-1.75076,10.96527-2.29014,29.44151-6.17323,38.06172-8.52849,1.50154-.41028,2.70037-.77354,3.51189-1.07457.3961-.14696.70464-.2798.90367-.39486.26228-.15159.50252-.32291.72914-.50533,3.09094-2.4881,2.99525-7.56295,2.99525-7.56295,0,0,10.40176-5.34994,11.28091-7.80054,0,0,4.89325-12.99662,6.74332-14.68403l.43958-1.22527-10.09657,2.18635.41296-3.07882s85.9206-12.21357,102.80139-20.53278Z"/><path class="cls-10" d="m587.91515,250.759l-1.46956-5.8241c-.22662.18242-.46687.35374-.72914.50533-.19903.11506-.50757.2479-.90367.39486.1309.51814.26047,1.02826.38543,1.51632.2246.87655-.6979,1.86778-2.35986,2.89619l1.46079,3.171,1.45775,3.16437c.47964,1.04116,1.80603,1.36085,2.70733.65251h0c.55086-.43292.7953-1.14951.62387-1.82883l-1.17292-4.64766Z"/></g><path class="cls-9" d="m599.55689,215.82658c.96774.04362,1.71997.86344,1.65017,1.8297-.08463,1.17403-.10983,3.03533.12188,5.80477.46851,5.59888-3.51353,6.07576-3.51353,6.07576-9.81831-6.09488-7.37294-7.59952-6.31304-10.55394.73352-2.0446,5.56528-3.26838,8.05452-3.15629Z"/><circle class="cls-10" cx="472.02552" cy="279.17842" r="5.85755"/></g><g><path class="cls-1" d="m476.0789,268.70587c1.28752.31773,2.48322.89338,3.51594,1.68593l4.50449-6.02201c-2.63558.49224-5.24826.9612-7.80027,1.39567l-.22016,2.94041Z"/><path class="cls-2" d="m637.11463,181.03401c.17293-.04044.37047-.07461.57968-.10569-4.49482-2.67568-35.95125-18.72418-82.67506,8.09156,8.01839.27267,33.86322.9715,52.50965-.58291,22.32662-1.86119,29.58574-7.40296,29.58574-7.40296Z"/><path class="cls-2" d="m592.79242,217.84922c-1.0599,2.95443-3.50527,4.45906,6.31304,10.55394,0,0,3.98204-.47688,3.51353-6.07576-.23171-2.76944-.20652-4.63073-.12188-5.80477.0698-.96627-.68243-1.78608-1.65017-1.8297-2.48924-.11209-7.321,1.11169-8.05452,3.15629Z"/><path class="cls-2" d="m362.51878,266.91099l-16.67825,6.81159-.44961.18367c1.43232,2.30914,3.34263,4.48887,5.87675,6.35545,0,0,6.22074,1.05305,17.7794-4.36868.14737-.0691.28515-.12691.43435-.1982,0,0-3.8514-3.29927-6.96264-8.78384Z"/><path class="cls-2" d="m359.7699,245.71898s-8.4549-1.98044-17.82252,5.80618c0,0-.99662,4.51867-.43003,10.29286l.3159-.07957,17.275-3.87047c-.70797-3.67369-.68595-7.76866.66164-12.149Z"/><path class="cls-2" d="m345.37463,273.58542l-.15487.02697c.05852.09755.11085.19671.17117.29387l.44961-.18367c-.29876-.0935-.4659-.13716-.4659-.13716Z"/><path class="cls-2" d="m587.04692,255.44933l-1.45775-3.16437c-.84458,1.37738-1.14471,3.10559-.6189,4.85668.71617,2.38505,2.94282,4.10522,5.43143,4.1959,3.74538.13648,6.57908-3.0605,6.16988-6.62545-.07395-.64424-.26741-1.93556-.63051-2.53851-2.24048-3.72042-5.12649-2.95253-6.73586-2.54821l1.17292,4.64766c.17144.67932-.07301,1.3959-.62387,1.82882h0c-.9013.70834-2.22769.38865-2.70733-.65251Z"/><path class="cls-2" d="m476.29906,265.76546c-1.09257.18598-2.17349.36559-3.24016.5379l-.09235,2.16489c1.07212-.09495,2.11864-.00747,3.11235.23762l.22016-2.94041Z"/><path class="cls-2" d="m479.59484,270.3918c.67555.51826,1.27709,1.12898,1.79457,1.81179l6.4414-8.54273c-1.24597.24062-2.49096.47719-3.73148.70893l-4.50449,6.02201Z"/><path class="cls-2" d="m481.38941,272.20359c-.51748-.68281-1.11903-1.29354-1.79457-1.81179-1.03272-.79255-2.22843-1.3682-3.51594-1.68593-.99371-.24509-2.04023-.33258-3.11235-.23762-.09902.00879-.19667.00849-.29606.0204-5.22075.62522-8.94624,5.36435-8.32101,10.5851s5.36441,8.94623,10.58516,8.32101c5.22075-.62522,8.94612-5.36433,8.32088-10.58515-.20818-1.73837-.8799-3.30462-1.86611-4.60601Z"/><path class="cls-2" d="m492.15216,267.73059c1.29308-1.60171,3.18443-2.72274,5.38987-2.98686.55621-.06661,1.10597-.07516,1.64366-.03148l1.3691-3.62381c-3.91067.82241-7.964,1.6485-12.02018,2.43639l3.61756,4.20576Z"/><path class="cls-2" d="m499.18568,264.71225c-.53769-.04367-1.08745-.03513-1.64366.03148-2.20543.26412-4.09678,1.38515-5.38987,2.98686-1.33749,1.65694-2.0343,3.82844-1.76109,6.10975.53731,4.48662,4.60997,7.68815,9.09671,7.15082,4.4865-.53729,7.68802-4.60996,7.15072-9.09658-.47069-3.93035-3.65457-6.87392-7.45281-7.18234Z"/><path class="cls-2" d="m486.08361,242.54431c-30.42418,5.6631-65.64488,20.18124-65.64488,20.18124,0,0-.07992,1.01936,2.58714,4.73924,2.66718,3.71986,31.14562,1.05611,31.14562,1.05611,4.94699-.19792,11.57945-1.03702,18.88741-2.21753,1.06667-.17231,2.14759-.35192,3.24016-.5379,2.55202-.43447,5.16469-.90343,7.80027-1.39567,1.24052-.23173,2.48551-.4683,3.73148-.70893.23467-.04538.46913-.09048.70378-.13604,4.05618-.78789,8.10952-1.61398,12.02018-2.43639,16.86168-3.54601,31.04017-7.01879,31.04017-7.01879,4.15206-.78394,7.85483-1.7039,11.15185-2.69606,8.72824-2.62656,14.58486-5.75974,18.26766-8.24255,1.17183-.79001,2.12389-1.51411,2.8777-2.13465,1.12859-.92906.76424-2.75477-.63822-3.16704-20.11768-5.91371-48.19882-.6778-77.17032,4.71496Z"/><path class="cls-2" d="m586.10282,244.70145c-.81152.30102-2.01035.66429-3.51189,1.07457-8.62021,2.35526-27.09645,6.23835-38.06172,8.52849,1.68972,2.22459,4.25774,4.30552,7.89789,4.08529,6.08057-.36791,24.99955-5.12854,31.70129-9.27583,1.66197-1.0284,2.58446-2.01964,2.35986-2.89619-.12496-.48805-.25453-.99818-.38543-1.51632Z"/><path class="cls-2" d="m702.31247,191.10322l5.8729-3.54742-55.78606-6.11758s-10.60993-1.11785-14.705-.5099c-.20921.03108-.40675.06525-.57968.10569,0,0-7.25912,5.54177-29.58574,7.40296-18.64643,1.55441-44.49126.85558-52.50965.58291-1.58257-.05384-2.48492-.0914-2.48492-.0914,0,0-28.28949,13.13907-48.31,18.99019-20.02051,5.85113-31.85175,8.2679-31.85175,8.2679-1.90908-.04332-61.34859-3.5326-61.34859-3.5326l-67.89304-40.01139-29.21809,8.12296s-1.35197,2.33781,2.18688,4.63386l36.15585,42.99619-2.58506,1.12555,1.79991,8.21609,2.6814-.32112.9747,5.86707,20.05767-5.12198-.04332,1.90914-15.37098,5.64863c-1.34759,4.38034-1.36961,8.47531-.66164,12.149l-17.275,3.87047-.3159.07957-9.98117,2.51351-15.68403,14.38978,25.88489-4.50305,3.4827-.60586.15487-.02697s.16714.04367.4659.13716l16.67825-6.81159c3.11124,5.48457,6.96264,8.78384,6.96264,8.78384-.1492.07129-.28698.1291-.43435.1982,4.59837-.51473,29.15851-3.30477,42.88558-5.68616l.969,10.29233,27.76839-.68701.99111-3.148s6.49682.39458,9.57965.02539c3.08283-.36919,2.93069-8.16871,2.93069-8.16871,0,0-28.47844,2.66376-31.14562-1.05611-2.66706-3.71988-2.58714-4.73924-2.58714-4.73924,0,0,35.2207-14.51813,65.64488-20.18124,28.9715-5.39276,57.05264-10.62868,77.17032-4.71496,1.40246.41226,1.76681,2.23798.63822,3.16704-.75381.62053-1.70586,1.34464-2.8777,2.13465-3.68281,2.48281-9.53942,5.61599-18.26766,8.24255-3.29702.99216-6.99979,1.91212-11.15185,2.69606,0,0,.16507,3.0096,4.63532,1.98562,1.03769-.23769,4.12482-.87897,8.29894-1.75076,10.96527-2.29014,29.44151-6.17323,38.06172-8.52849,1.50154-.41028,2.70037-.77354,3.51189-1.07457.3961-.14696.70464-.2798.90367-.39486.26228-.15159.50252-.32291.72914-.50533,3.09094-2.4881,2.99525-7.56295,2.99525-7.56295,0,0,10.40176-5.34994,11.28091-7.80054,0,0,4.89325-12.99662,6.74332-14.68403l.43958-1.22527-10.09657,2.18635.41296-3.07882s85.9206-12.21357,102.80139-20.53278Zm-101.46552,23.58972c.96774.04362,1.71997.86344,1.65017,1.8297-.08463,1.17403-.10983,3.03533.12188,5.80477.46851,5.59888-3.51353,6.07576-3.51353,6.07576-9.81831-6.09488-7.37294-7.59952-6.31304-10.55394.73352-2.0446,5.56528-3.26838,8.05452-3.15629Z"/><path class="cls-2" d="m589.2052,249.62536l-1.46956-5.8241c-.22662.18242-.46687.35374-.72914.50533-.19903.11506-.50757.2479-.90367.39486.1309.51814.26047,1.02826.38543,1.51632.2246.87655-.6979,1.86778-2.35986,2.89619l1.46079,3.171,1.45775,3.16437c.47964,1.04116,1.80603,1.36085,2.70733.65251h0c.55086-.43292.7953-1.14951.62387-1.82883l-1.17292-4.64766Z"/></g><path class="cls-9" d="m469.97887,248.30333l-70.515,12.83991-1.29443-9.35465,64.09017-9.14963c.34497-.04925.69511-.05018,1.04034-.00276l7.59853,1.04366c1.34041.18411,1.8902,1.8235.93181,2.77853l-1.85142,1.84494Z"/><g><path class="cls-4" d="m466.0639,239.30456c-3.55985-1.74153-9.88849-1.07768-10.89751-.95782.25994,1.95501.59868,4.33795.82466,5.90772,1.12763-.26585,8.15014-1.98005,10.22714-3.91408.42033-.39126.36142-.78352-.15429-1.03582Z"/><path class="cls-10" d="m455.16639,238.34674c-.08946.01065-.15245.01844-.15245.01844l-72.70824,10.45677-6.81712-3.36272-2.26316,2.77359-3.38648-.44478s.26447,3.87765,1.1362,3.80633l.31477,2.62837c.05731.47858.36382.86264.77193,1.04791l-.59069,4.08322c-.05717.36234.32736.63206.64854.45492l11.09882-5.8213,72.60272-9.69326s.07034-.01629.16982-.03976c-.22598-1.56978-.56471-3.95272-.82466-5.90772Z"/><g><path class="cls-10" d="m394.47856,259.48279c-.57766,1.02905-1.82669,3.82811.78145,4.96796l.98117-2.33065-1.76263-2.63731Z"/><path class="cls-10" d="m457.22457,257.6354c.68745-.53316,4.11258-3.82592,5.63608-5.29705-1.24971.26793-2.58751.54457-3.98455.82652-.73926,1.547-2.34595,5.00907-1.65152,4.47053Z"/><path class="cls-10" d="m454.5751,246.87317c-.39313-.00892.67312,1.38806,1.64752,2.57444l4.35465-.74409c-2.18114-.72491-5.54579-1.81997-6.00217-1.83035Z"/><path class="cls-10" d="m464.81518,247.97937l-4.23791.72415-4.35465.74409-44.64644,7.62881.61211,4.30019s28.68998-4.57976,46.6878-8.21174c1.39704-.28195,2.73484-.55859,3.98455-.82652,1.16497-.24973,2.25839-.49231,3.2644-.72553,4.3535-1.00926,5.75811-2.12014,5.91408-2.55479.72863-2.03104-7.22395-1.07866-7.22395-1.07866Z"/><path class="cls-10" d="m411.57618,257.07642c-.29897-.06138-6.80564-3.26691-7.09314-3.23248s-12.03072,2.60706-12.03072,2.60706l2.02625,3.03179,1.76263,2.63731-.98117,2.33065-2.12102,5.03844,11.76223-1.60299,7.28706-6.5096-.61211-4.30019Z"/></g><polyline class="cls-10" points="370.97514 251.59437 379.77191 249.81924 373.22542 248.23282"/><line class="cls-10" x1="383.21851" y1="253.98749" x2="372.06183" y2="255.27066"/><line class="cls-10" x1="396.24119" y1="262.1201" x2="411.68345" y2="259.40432"/></g><circle class="cls-2" cx="473.19349" cy="278.01202" r="5.58666"/><path class="cls-2" d="m411.02399,212.65397s-38.02552,16.59178-58.76841,15.74162"/><line class="cls-2" x1="354.82889" y1="209.89519" x2="329.8328" y2="184.88715"/><line class="cls-2" x1="316.09974" y1="185.3994" x2="348.80892" y2="176.32856"/><line class="cls-2" x1="360.82483" y1="183.46709" x2="365.43675" y2="181.74679"/><line class="cls-2" x1="329.89285" y1="201.91722" x2="327.82003" y2="202.89544"/><line class="cls-2" x1="321.56455" y1="192.11075" x2="319.20386" y2="193.12345"/><path class="cls-2" d="m358.70184,249.8584s-10.75451.41195-17.41081,4.56704"/><path class="cls-2" d="m358.78199,251.74677s-11.30181,1.93747-17.75039,4.16971"/><line class="cls-2" x1="358.90178" y1="256.40436" x2="341.15139" y2="260.57408"/><path class="cls-2" d="m363.60242,268.83524s-12.6498,5.31086-17.38237,6.02361"/><path class="cls-2" d="m364.83404,270.58572s-6.62182,4.44296-17.5263,6.04085"/><line class="cls-2" x1="362.51878" y1="266.91099" x2="393.56048" y2="254.44369"/><path class="cls-2" d="m375.1842,238.16121c1.11464-1.06803,63.88869-15.7396,70.60186-16.98155,6.71317-1.24195,26.58652-4.99309,26.58652-4.99309"/><path class="cls-2" d="m375.14088,240.07035s23.55985-6.09797,41.82308-12.08107c-.84203.20533,4.32132-1.32351,8.82765-2.31282"/><path class="cls-2" d="m637.69431,180.92832s-1.41185,4.8835-3.93356,5.90665-82.52962,15.41242-82.52962,15.41242"/><path class="cls-2" d="m588.61521,189.24819s-2.97475-9.10003-10.71109-10.45639l-2.7411,1.08835s7.6295.9443,10.84122,9.42735l2.61097-.05932Z"/><path class="cls-2" d="m647.63324,180.61598s-3.01846-1.29618-7.3122-.02849l-.20817.77841s6.30204-.22728,7.42207.31672l.09831-1.06665Z"/><path class="cls-2" d="m647.63857,183.17719s-4.53971-1.41539-7.85887-.18907l-.17259,1.07555s5.03345-.75349,8.17379.30205l-.14234-1.18853Z"/><path class="cls-2" d="m646.88238,189.44631c-.31492-.11298-8.47404.3367-9.40725,1.35263l-.71926.91497,1.46164.87983,8.53365-1.09732.13122-2.05012Z"/><path class="cls-2" d="m629.6957,198.89661s-189.53154,43.7846-210.58222,44.08591c0,0,12.18949-4.78927,48.25345-14.10244"/><line class="cls-2" x1="485.39727" y1="231.16014" x2="501.3474" y2="239.23845"/><path class="cls-2" d="m596.76574,214.77728s-27.83543,5.23096-66.14737,15.78255"/><path class="cls-2" d="m556.44234,233.43066s28.87236-5.62621,31.70471-4.61007l-2.45951,4.36053"/><path class="cls-2" d="m590.73089,236.23831s.73732-7.68709-27.47695,1.59104"/><path class="cls-2" d="m708.18537,187.5558s7.40624-1.37529,12.89012-3.11629"/><path class="cls-2" d="m660.76404,201.42063s.82249,2.34109-2.11707,2.69312-3.69805-1.45459-3.69805-1.45459l5.81512-1.23854Z"/><line class="cls-2" x1="441.66115" y1="276.6642" x2="444.07773" y2="270.0429"/><path class="cls-4" d="m425.02647,243.16235c-.62575-.21178-9.74683,1.85155-9.74683,1.85155l-2.95481-3.95066,3.9663.64491,1.11889-2.19644,7.76822,2.09256-.15177,1.55808Z"/><polygon class="cls-4" points="424.0054 248.55715 415.87969 254.33718 416.59418 249.21417 424.0054 248.55715"/><polygon class="cls-4" points="379.26847 250.39651 379.10907 249.06552 370.70467 246.52803 368.50195 246.4543 370.41076 251.11977 379.26847 250.39651"/><polygon class="cls-4" points="380.61301 255.59128 369.88213 260.70873 371.6848 255.28086 380.9216 254.32798 380.61301 255.59128"/><polygon class="cls-4" points="371.78858 249.9422 373.97239 245.63041 375.98881 245.55769 383.62111 248.69393 371.78858 249.9422"/><polyline class="cls-4" points="382.11251 254.03206 382.29349 255.54332 376.02401 259.51331 374.88197 257.65726 375.2512 255.62022"/><path class="cls-4" d="m467.86404,247.66633s-.97849,2.18389-.26964,2.92568,4.43366-.94431,4.43366-.94431c0,0,1.81788-2.07774-4.16402-1.98137Z"/><g><path class="cls-2" d="m466.38039,239.50583c-3.55985-1.74153-9.88849-1.07768-10.89751-.95782.25994,1.95501.59868,4.33795.82466,5.90772,1.12763-.26585,8.15014-1.98005,10.22714-3.91408.42033-.39126.36142-.78352-.15429-1.03582Z"/><path class="cls-2" d="m455.48289,238.548c-.08946.01065-.15245.01844-.15245.01844l-72.70824,10.45677-6.81712-3.36272-2.26316,2.77359-3.38648-.44478s.26447,3.87765,1.1362,3.80633l.31477,2.62837c.05731.47858.36382.86264.77193,1.04791l-.59069,4.08322c-.05717.36234.32736.63206.64854.45492l11.09882-5.8213,72.60272-9.69326s.07034-.01629.16982-.03976c-.22598-1.56978-.56471-3.95272-.82466-5.90772Z"/><g><path class="cls-2" d="m394.79506,259.68406c-.57766,1.02905-1.82669,3.82811.78145,4.96796l.98117-2.33065-1.76263-2.63731Z"/><path class="cls-2" d="m457.54106,257.83666c.68745-.53316,4.11258-3.82592,5.63608-5.29705-1.24971.26793-2.58751.54457-3.98455.82652-.73926,1.547-2.34595,5.00907-1.65152,4.47053Z"/><path class="cls-2" d="m454.8916,247.07443c-.39313-.00892.67312,1.38806,1.64752,2.57444l4.35465-.74409c-2.18114-.72491-5.54579-1.81997-6.00217-1.83035Z"/><path class="cls-2" d="m465.13167,248.18064l-4.23791.72415-4.35465.74409-44.64644,7.62881.61211,4.30019s28.68998-4.57976,46.6878-8.21174c1.39704-.28195,2.73484-.55859,3.98455-.82652,1.16497-.24973,2.25839-.49231,3.2644-.72553,4.3535-1.00926,5.75811-2.12014,5.91408-2.55479.72863-2.03104-7.22395-1.07866-7.22395-1.07866Z"/><path class="cls-2" d="m411.89268,257.27768c-.29897-.06138-6.80564-3.26691-7.09314-3.23248s-12.03072,2.60706-12.03072,2.60706l2.02625,3.03179,1.76263,2.63731-.98117,2.33065-2.12102,5.03844,11.76223-1.60299,7.28706-6.5096-.61211-4.30019Z"/></g><polyline class="cls-2" points="371.29163 251.79564 380.08841 250.0205 373.54191 248.43408"/><line class="cls-2" x1="383.535" y1="254.18875" x2="372.37833" y2="255.47192"/><line class="cls-2" x1="396.55768" y1="262.32136" x2="411.99994" y2="259.60558"/></g><polyline class="cls-4" points="412.32483 241.06324 416.29113 241.70815 417.41002 239.51171"/><polygon class="cls-4" points="424.0054 248.55715 415.87969 254.33718 416.59418 249.21417 424.0054 248.55715"/><path class="cls-2" d="m425.02647,243.16235c-.62575-.21178-9.74683,1.85155-9.74683,1.85155l-2.95481-3.95066,3.9663.64491,1.11889-2.19644,7.76822,2.09256-.15177,1.55808Z"/><polygon class="cls-2" points="424.0054 248.55715 415.87969 254.33718 416.59418 249.21417 424.0054 248.55715"/></g></svg>