<?xml version="1.0" encoding="utf-8"?>
<!-- Generator: Adobe Illustrator 24.0.3, SVG Export Plug-In . SVG Version: 6.00 Build 0)  -->
<svg version="1.1" xmlns="http://www.w3.org/2000/svg" xmlns:xlink="http://www.w3.org/1999/xlink" x="0px" y="0px"
	 viewBox="0 0 841.89 467.72" style="enable-background:new 0 0 841.89 467.72;" xml:space="preserve">
<style type="text/css">
	.st0{fill:#4890BA;}
	.st1{fill:#FFFFFF;}
	.st2{fill:#C95C44;}
	.st3{fill:#F4F4F5;}
	.st4{fill:#F5C65D;}
	.st5{fill:#54575C;}
	.st6{font-family:'Geomanist-Bold';}
	.st7{font-size:2.7203px;}
	.st8{fill:none;stroke:#54575C;stroke-miterlimit:10;}
	.st9{fill:#E0635D;stroke:#E0635D;stroke-width:0.9448;stroke-miterlimit:10;}
	.st10{fill:#235485;stroke:#235485;stroke-width:0.9448;stroke-miterlimit:10;}
	.st11{fill:#4890BA;stroke:#4890BA;stroke-width:0.9448;stroke-miterlimit:10;}
	.st12{fill:#F5C65D;stroke:#F5C65D;stroke-width:0.9448;stroke-miterlimit:10;}
	.st13{fill:#61A575;stroke:#61A575;stroke-width:0.9448;stroke-miterlimit:10;}
	.st14{fill:none;}
</style>
<g id="Layer_1">
</g>
<g id="Layer_2">
</g>
<g id="Layer_3">
	<rect class="st0" width="841.89" height="467.72"/>
	<g>
		<g>
			<g>
				<path class="st1" d="M368.13,341.82l125.62,5.88c-0.25-3.81-0.68-7.28-1.34-10.22c-5.14-22.7-1.18-35.44-2.68-40.37
					c-1.5-4.93-7.5-37.48,0.54-45.93c8.03-8.46,21.63-1.61,23.66,2.03c1.02,1.82,4.74,10.96,8.56,20.13
					c0.51-0.32,1.11-0.5,1.76-0.46l21.35,1.19c1.65,0.09,2.92,1.51,2.83,3.16l-0.1,1.8l-0.35,6.19l-0.1,1.8
					c-0.09,1.65-1.51,2.92-3.16,2.83l-15.52-0.87c1.05,2.29,1.89,3.98,2.4,4.7c0,0,1.12,1.86,2.08,4.44l10.54,0.59
					c1.65,0.09,2.92,1.51,2.83,3.16l-0.1,1.8l-0.35,6.19l-0.1,1.8c-0.09,1.65-1.51,2.92-3.16,2.83l-6.78-0.38
					c0.23,1.61,0.44,3.14,0.62,4.43c0.31,2.22,0.52,3.73,0.52,3.73s6.75-0.96,9.74-1.28c2-0.21,9.63,2.99,15.75,6.76l1.18-41.42
					l3.99-139.72l-0.14-6.21l-2.49-107.6c-0.16-7.24-6.04-13.04-13.28-13.11l-157.99-2.95c-7.58-0.07-13.71,6.17-13.52,13.75
					l-6.78,122.45l-21.37,170.67C351.64,333,358.7,341.38,368.13,341.82z"/>
				<path class="st1" d="M564.38,286.34c12.58-18.25,23.15-40.17,26.49-64.85c0.66-4.92,1.12-8.19-1.13-11.88
					c0,0,29.41-18.1,6.22-49.2c0,0,21.49-22.06,1.13-33.93c0,0-13.57-2.83-22.62,6.79c-2.21,2.35-4.31,4.79-6.24,7.15l0.14,6.21
					L564.38,286.34z"/>
				<path class="st1" d="M454.93,376.67c0.75-5.25,2.78-22.91,5.46-23.77c2.68-0.86,9.23-2.98,14.35,0.96
					c2.82,2.11,6.33,5.38,9.21,10.9l10.06-9.15c-0.02-2.75-0.1-5.4-0.26-7.91l-125.62-5.88c-9.44-0.44-16.49-8.83-15.32-18.2
					l21.37-170.67c0,0-3.64-26.13-16.54-33.08c-12.9-6.95-11.91,5.29-13.56,10.25c-1.65,4.96,0,22.16-7.28,28.45
					c-7.28,6.29-9.26,20.18-8.6,27.13c0.66,6.95-15.22,56.57-15.88,62.19c-0.66,5.62,4.3,16.87,7.94,29.11
					c3.64,12.24,12.98,50.47,8.97,55.65c-4.01,5.19-60.36,49.52-92.43,63.9c-32.07,14.38-122.38,62.25-129.69,70.5h264.33
					l72.95-66.32c0.51-3.45,1.22-6.29,2.18-8.21C453.42,378.8,454.18,381.92,454.93,376.67z"/>
				<path class="st1" d="M547.88,287.03l0.1-1.8c-0.09,1.65-1.51,2.92-3.16,2.83l-16.45-0.92c0.29,0.65,0.57,1.27,0.83,1.85
					l15.52,0.87C546.36,289.95,547.78,288.68,547.88,287.03z"/>
				<path class="st1" d="M544.82,288.06c1.65,0.09,3.07-1.18,3.16-2.83l0.35-6.19l0.1-1.8c0.09-1.65-1.18-3.07-2.83-3.16
					l-21.35-1.19c-0.64-0.04-1.25,0.14-1.76,0.46c2.07,4.98,4.16,9.95,5.87,13.79L544.82,288.06z"/>
				<path class="st1" d="M546.5,311.67l0.1-1.8c-0.09,1.65-1.51,2.92-3.16,2.83l-7.14-0.4c0.09,0.61,0.17,1.22,0.26,1.82l6.78,0.38
					C544.99,314.59,546.41,313.32,546.5,311.67z"/>
				<path class="st1" d="M536.3,312.3l7.14,0.4c1.65,0.09,3.07-1.18,3.16-2.83l0.35-6.19l0.1-1.8c0.09-1.65-1.18-3.07-2.83-3.16
					l-10.54-0.59c0.46,1.25,0.89,2.66,1.13,4.12C535.14,304.23,535.74,308.33,536.3,312.3z"/>
				<path class="st1" d="M660.73,428.28c-2.89-17.02-19.49-29.23-21.84-30.84c-2.36-1.61-16.17-9.64-16.17-9.64
					c-1.07-2.89-16.6-19.92-25.06-25.7c-8.46-5.78-18.31-7.5-18.63-7.39c-0.32,0.11-4.5-15.74-8.67-21.2
					c-1.4-1.83-4.09-3.87-7.16-5.76c-6.12-3.77-13.75-6.98-15.75-6.76c-3,0.32-9.74,1.28-9.74,1.28s-0.21-1.51-0.52-3.73
					c-0.18-1.29-0.4-2.82-0.62-4.43c-0.08-0.6-0.17-1.21-0.26-1.82c-0.57-3.98-1.16-8.07-1.49-10.05c-0.24-1.46-0.67-2.88-1.13-4.12
					c-0.96-2.59-2.08-4.44-2.08-4.44c-0.51-0.72-1.35-2.41-2.4-4.7c-0.27-0.58-0.54-1.2-0.83-1.85c-1.71-3.84-3.8-8.81-5.87-13.79
					c-3.82-9.17-7.54-18.31-8.56-20.13c-2.03-3.64-15.63-10.49-23.66-2.03c-8.03,8.46-2.03,41.01-0.54,45.93
					c1.5,4.93-2.46,17.67,2.68,40.37c0.67,2.94,1.1,6.41,1.34,10.22c0.16,2.51,0.25,5.16,0.26,7.91
					c0.17,25.37-5.25,58.85-5.25,58.85c0.43-4.28-2.78-10.6-2.78-10.6s2.25-15.85,0.86-29.02c-0.45-4.23-1.52-7.48-2.89-10.09
					c-2.88-5.52-6.43-8.75-9.21-10.9c-4.85-3.63-11.67-1.82-14.35-0.96c-2.68,0.86-4.71,18.52-5.46,23.77
					c-0.75,5.25-1.51,2.13-8.37,15.86c-0.96,1.92-1.67,4.76-2.18,8.21c-3.13,21.23,1.26,65.9,1.26,65.9l212.62-0.13
					C658.27,466.51,663.62,445.31,660.73,428.28z"/>
			</g>
			<path class="st1" d="M545.54,143.32l-150.19-3.54c-2.87-0.07-5.14-2.45-5.08-5.32l2.32-98.31c0.07-2.87,2.45-5.14,5.32-5.08
				l150.19,3.54c2.87,0.07,5.14,2.45,5.08,5.32l-2.32,98.31C550.79,141.11,548.41,143.39,545.54,143.32z"/>
			<g>
				<path class="st1" d="M408.56,172.89c0.62-2.53,0.04-5.32-1.82-7.42c-3.01-3.42-8.22-3.75-11.64-0.74
					c-2.1,1.85-3.03,4.54-2.74,7.13c0.19,1.61,0.84,3.19,2,4.5c3.01,3.42,8.22,3.75,11.64,0.74
					C407.33,175.95,408.18,174.47,408.56,172.89z"/>
			</g>
			<path class="st1" d="M406.75,165.47c-3.01-3.42-8.22-3.75-11.64-0.74c-1.24,1.09-2.07,2.46-2.48,3.94
				c-0.29,1.04-0.58,5.79-0.28,7.06c0.3,1.28,0.91,2.5,1.84,3.56c3.01,3.42,8.22,3.75,11.64,0.74c1.05-0.93,1.81-2.06,2.27-3.29
				c0.46-1.23,0.75-5.61,0.68-6.5C408.64,168.53,407.97,166.85,406.75,165.47z"/>
			<g>
				<path class="st1" d="M443.03,173.36c0.62-2.53,0.04-5.32-1.82-7.42c-3.01-3.42-8.22-3.75-11.64-0.74
					c-2.1,1.85-3.03,4.54-2.74,7.13c0.19,1.61,0.84,3.19,2,4.5c3.01,3.42,8.22,3.75,11.64,0.74
					C441.79,176.42,442.64,174.94,443.03,173.36z"/>
			</g>
			<path class="st1" d="M441.21,165.94c-3.01-3.42-8.22-3.75-11.64-0.74c-1.24,1.09-2.07,2.46-2.48,3.94
				c-0.29,1.04-0.58,5.79-0.28,7.06c0.3,1.28,0.91,2.5,1.84,3.56c3.01,3.42,8.22,3.75,11.64,0.74c1.05-0.93,1.81-2.06,2.27-3.29
				c0.46-1.23,0.75-5.61,0.68-6.5C443.1,169,442.43,167.32,441.21,165.94z"/>
			<g>
				<path class="st1" d="M476.45,173.82c0.62-2.53,0.04-5.32-1.82-7.42c-3.01-3.42-8.22-3.75-11.64-0.74
					c-2.1,1.85-3.03,4.54-2.74,7.13c0.19,1.61,0.84,3.19,2,4.5c3.01,3.42,8.22,3.75,11.64,0.74
					C475.21,176.88,476.07,175.4,476.45,173.82z"/>
			</g>
			<path class="st1" d="M474.64,166.4c-3.01-3.42-8.22-3.75-11.64-0.74c-1.24,1.09-2.07,2.46-2.48,3.94
				c-0.29,1.04-0.58,5.79-0.28,7.06c0.3,1.28,0.91,2.5,1.84,3.56c3.01,3.42,8.22,3.75,11.64,0.74c1.05-0.93,1.81-2.06,2.27-3.29
				c0.46-1.23,0.75-5.61,0.68-6.5C476.52,169.46,475.86,167.78,474.64,166.4z"/>
			<g>
				<path class="st1" d="M511.62,174.3c0.62-2.53,0.04-5.32-1.82-7.42c-3.01-3.42-8.22-3.75-11.64-0.74
					c-2.1,1.85-3.03,4.54-2.74,7.13c0.19,1.61,0.84,3.19,2,4.5c3.01,3.42,8.22,3.75,11.64,0.74
					C510.38,177.36,511.23,175.88,511.62,174.3z"/>
			</g>
			<path class="st1" d="M509.8,166.88c-3.01-3.42-8.22-3.75-11.64-0.74c-1.24,1.09-2.07,2.46-2.48,3.94
				c-0.29,1.04-0.58,5.79-0.28,7.06c0.3,1.28,0.91,2.5,1.84,3.56c3.01,3.42,8.22,3.75,11.64,0.74c1.05-0.93,1.81-2.06,2.27-3.29
				c0.46-1.23,0.75-5.61,0.68-6.5C511.69,169.94,511.02,168.26,509.8,166.88z"/>
			<g>
				<path class="st1" d="M546.23,174.78c0.62-2.53,0.04-5.32-1.82-7.42c-3.01-3.42-8.22-3.75-11.64-0.74
					c-2.1,1.85-3.03,4.54-2.74,7.13c0.19,1.61,0.84,3.19,2,4.5c3.01,3.42,8.22,3.75,11.64,0.74
					C544.99,177.84,545.84,176.35,546.23,174.78z"/>
			</g>
			<path class="st1" d="M544.41,167.35c-3.01-3.42-8.22-3.75-11.64-0.74c-1.24,1.09-2.07,2.46-2.48,3.94
				c-0.29,1.04-0.58,5.79-0.28,7.06c0.3,1.28,0.91,2.5,1.84,3.56c3.01,3.42,8.22,3.75,11.64,0.74c1.05-0.93,1.81-2.06,2.27-3.29
				s0.75-5.61,0.68-6.5C546.3,170.41,545.63,168.74,544.41,167.35z"/>
			<g>
				<path class="st1" d="M528.38,203.55c0.59-2.54-0.03-5.32-1.92-7.4c-3.06-3.37-8.27-3.63-11.65-0.58
					c-2.08,1.88-2.97,4.58-2.64,7.17c0.21,1.61,0.89,3.18,2.06,4.48c3.06,3.38,8.27,3.63,11.65,0.58
					C527.18,206.63,528.01,205.13,528.38,203.55z"/>
			</g>
			<path class="st1" d="M526.45,195.93c-3.04-3.12-8.25-3.34-11.64-0.48c-1.22,1.03-2.04,2.33-2.44,3.7
				c-0.28,0.97-0.52,5.39-0.21,6.57c0.31,1.18,0.93,2.31,1.87,3.27c3.04,3.12,8.25,3.34,11.64,0.48c1.04-0.88,1.79-1.95,2.24-3.1
				s0.7-5.23,0.62-6.05C528.36,198.74,527.68,197.2,526.45,195.93z"/>
			<g>
				<path class="st1" d="M529.48,236.69c0.59-2.54-0.03-5.32-1.92-7.4c-3.06-3.37-8.27-3.63-11.65-0.58
					c-2.08,1.88-2.97,4.58-2.64,7.17c0.21,1.61,0.89,3.18,2.06,4.48c3.06,3.38,8.27,3.63,11.65,0.58
					C528.29,239.77,529.12,238.28,529.48,236.69z"/>
			</g>
			<path class="st1" d="M527.55,229.08c-3.04-3.12-8.25-3.34-11.64-0.48c-1.22,1.03-2.04,2.33-2.44,3.7
				c-0.28,0.97-0.52,5.39-0.21,6.57c0.31,1.18,0.93,2.31,1.87,3.27c3.04,3.12,8.25,3.34,11.64,0.48c1.04-0.88,1.79-1.95,2.24-3.1
				s0.7-5.23,0.62-6.05C529.47,231.89,528.78,230.34,527.55,229.08z"/>
			<g>
				<path class="st1" d="M546.42,219.02c0.59-2.54-0.03-5.32-1.92-7.4c-3.06-3.37-8.27-3.63-11.65-0.58
					c-2.08,1.88-2.97,4.58-2.64,7.17c0.21,1.61,0.89,3.18,2.06,4.48c3.06,3.38,8.27,3.63,11.65,0.58
					C545.23,222.09,546.06,220.6,546.42,219.02z"/>
			</g>
			<path class="st1" d="M544.49,211.4c-3.04-3.12-8.25-3.34-11.64-0.48c-1.22,1.03-2.04,2.33-2.44,3.7
				c-0.28,0.97-0.52,5.39-0.21,6.57c0.31,1.18,0.93,2.31,1.87,3.27c3.04,3.12,8.25,3.34,11.64,0.48c1.04-0.88,1.79-1.95,2.24-3.1
				s0.7-5.23,0.62-6.05C546.41,214.21,545.72,212.66,544.49,211.4z"/>
			<g>
				<path class="st1" d="M511.81,219.02c0.59-2.54-0.03-5.32-1.92-7.4c-3.06-3.37-8.27-3.63-11.65-0.58
					c-2.08,1.88-2.97,4.58-2.64,7.17c0.21,1.61,0.89,3.18,2.06,4.48c3.06,3.38,8.27,3.63,11.65,0.58
					C510.61,222.09,511.44,220.6,511.81,219.02z"/>
			</g>
			<path class="st1" d="M509.87,211.4c-3.04-3.12-8.25-3.34-11.64-0.48c-1.22,1.03-2.04,2.33-2.44,3.7
				c-0.28,0.97-0.52,5.39-0.21,6.57c0.31,1.18,0.93,2.31,1.87,3.27c3.04,3.12,8.25,3.34,11.64,0.48c1.04-0.88,1.79-1.95,2.24-3.1
				s0.7-5.23,0.62-6.05C511.79,214.21,511.11,212.66,509.87,211.4z"/>
			<g>
				<path class="st1" d="M410.49,209.89l-21.35-1.19c-1.65-0.09-2.92-1.51-2.83-3.16l-0.1,1.8c-0.09,1.65,1.18,3.07,2.83,3.16
					l21.35,1.19c1.65,0.09,3.07-1.18,3.16-2.83l0.1-1.8C413.56,208.71,412.13,209.99,410.49,209.89z"/>
				<path class="st1" d="M411.27,195.92l-21.35-1.19c-1.65-0.09-3.07,1.18-3.16,2.83l-0.1,1.8l-0.35,6.19
					c-0.09,1.65,1.18,3.07,2.83,3.16l21.35,1.19c1.65,0.09,3.07-1.18,3.16-2.83l0.35-6.19l0.1-1.8
					C414.19,197.43,412.91,196.01,411.27,195.92z"/>
			</g>
			<g>
				<path class="st1" d="M448.4,212.01l-21.35-1.19c-1.65-0.09-2.92-1.51-2.83-3.16l-0.1,1.8c-0.09,1.65,1.18,3.07,2.83,3.16
					l21.35,1.19c1.65,0.09,3.07-1.18,3.16-2.83l0.1-1.8C451.47,210.83,450.04,212.1,448.4,212.01z"/>
				<path class="st1" d="M449.18,198.04l-21.35-1.19c-1.65-0.09-3.07,1.18-3.16,2.83l-0.1,1.8l-0.35,6.19
					c-0.09,1.65,1.18,3.07,2.83,3.16l21.35,1.19c1.65,0.09,3.07-1.18,3.16-2.83l0.35-6.19l0.1-1.8
					C452.1,199.55,450.83,198.13,449.18,198.04z"/>
			</g>
			<g>
				<path class="st1" d="M486.31,214.13l-21.35-1.19c-1.65-0.09-2.92-1.51-2.83-3.16l-0.1,1.8c-0.09,1.65,1.18,3.07,2.83,3.16
					l21.35,1.19c1.65,0.09,3.07-1.18,3.16-2.83l0.1-1.8C489.38,212.95,487.96,214.22,486.31,214.13z"/>
				<path class="st1" d="M487.09,200.15l-21.35-1.19c-1.65-0.09-3.07,1.18-3.16,2.83l-0.1,1.8l-0.35,6.19
					c-0.09,1.65,1.18,3.07,2.83,3.16l21.35,1.19c1.65,0.09,3.07-1.18,3.16-2.83l0.35-6.19l0.1-1.8
					C490.01,201.67,488.74,200.25,487.09,200.15z"/>
			</g>
			<g>
				<path class="st1" d="M409.11,234.54l-21.35-1.19c-1.65-0.09-2.92-1.51-2.83-3.16l-0.1,1.8c-0.09,1.65,1.18,3.07,2.83,3.16
					l21.35,1.19c1.65,0.09,3.07-1.18,3.16-2.83l0.1-1.8C412.18,233.36,410.76,234.63,409.11,234.54z"/>
				<path class="st1" d="M409.89,220.56l-21.35-1.19c-1.65-0.09-3.07,1.18-3.16,2.83l-0.1,1.8l-0.35,6.19
					c-0.09,1.65,1.18,3.07,2.83,3.16l21.35,1.19c1.65,0.09,3.07-1.18,3.16-2.83l0.35-6.19l0.1-1.8
					C412.81,222.07,411.54,220.65,409.89,220.56z"/>
			</g>
			<g>
				<path class="st1" d="M447.02,236.65l-21.35-1.19c-1.65-0.09-2.92-1.51-2.83-3.16l-0.1,1.8c-0.09,1.65,1.18,3.07,2.83,3.16
					l21.35,1.19c1.65,0.09,3.07-1.18,3.16-2.83l0.1-1.8C450.09,235.47,448.67,236.75,447.02,236.65z"/>
				<path class="st1" d="M447.8,222.68l-21.35-1.19c-1.65-0.09-3.07,1.18-3.16,2.83l-0.1,1.8l-0.35,6.19
					c-0.09,1.65,1.18,3.07,2.83,3.16l21.35,1.19c1.65,0.09,3.07-1.18,3.16-2.83l0.35-6.19l0.1-1.8
					C450.72,224.19,449.45,222.77,447.8,222.68z"/>
			</g>
			<g>
				<path class="st1" d="M484.93,238.77l-21.35-1.19c-1.65-0.09-2.92-1.51-2.83-3.16l-0.1,1.8c-0.09,1.65,1.18,3.07,2.83,3.16
					l21.35,1.19c1.65,0.09,3.07-1.18,3.16-2.83l0.1-1.8C488,237.59,486.58,238.87,484.93,238.77z"/>
				<path class="st1" d="M485.71,224.8l-21.35-1.19c-1.65-0.09-3.07,1.18-3.16,2.83l-0.1,1.8l-0.35,6.19
					c-0.09,1.65,1.18,3.07,2.83,3.16l21.35,1.19c1.65,0.09,3.07-1.18,3.16-2.83l0.35-6.19l0.1-1.8
					C488.63,226.31,487.36,224.89,485.71,224.8z"/>
			</g>
			<g>
				<path class="st1" d="M407.73,259.18l-21.35-1.19c-1.65-0.09-2.92-1.51-2.83-3.16l-0.1,1.8c-0.09,1.65,1.18,3.07,2.83,3.16
					l21.35,1.19c1.65,0.09,3.07-1.18,3.16-2.83l0.1-1.8C410.8,258,409.38,259.27,407.73,259.18z"/>
				<path class="st1" d="M408.51,245.2l-21.35-1.19c-1.65-0.09-3.07,1.18-3.16,2.83l-0.1,1.8l-0.35,6.19
					c-0.09,1.65,1.18,3.07,2.83,3.16l21.35,1.19c1.65,0.09,3.07-1.18,3.16-2.83l0.35-6.19l0.1-1.8
					C411.43,246.72,410.16,245.29,408.51,245.2z"/>
			</g>
			<g>
				<path class="st1" d="M445.64,261.3l-21.35-1.19c-1.65-0.09-2.92-1.51-2.83-3.16l-0.1,1.8c-0.09,1.65,1.18,3.07,2.83,3.16
					l21.35,1.19c1.65,0.09,3.07-1.18,3.16-2.83l0.1-1.8C448.71,260.12,447.29,261.39,445.64,261.3z"/>
				<path class="st1" d="M446.42,247.32l-21.35-1.19c-1.65-0.09-3.07,1.18-3.16,2.83l-0.1,1.8l-0.35,6.19
					c-0.09,1.65,1.18,3.07,2.83,3.16l21.35,1.19c1.65,0.09,3.07-1.18,3.16-2.83l0.35-6.19l0.1-1.8
					C449.34,248.83,448.07,247.41,446.42,247.32z"/>
			</g>
			<g>
				<path class="st1" d="M483.56,263.42l-21.35-1.19c-1.65-0.09-2.92-1.51-2.83-3.16l-0.1,1.8c-0.09,1.65,1.18,3.07,2.83,3.16
					l21.35,1.19c1.65,0.09,3.07-1.18,3.16-2.83l0.1-1.8C486.62,262.24,485.2,263.51,483.56,263.42z"/>
				<path class="st1" d="M484.34,249.44l-21.35-1.19c-1.65-0.09-3.07,1.18-3.16,2.83l-0.1,1.8l-0.35,6.19
					c-0.09,1.65,1.18,3.07,2.83,3.16l21.35,1.19c1.65,0.09,3.07-1.18,3.16-2.83l0.35-6.19l0.1-1.8
					C487.26,250.95,485.98,249.53,484.34,249.44z"/>
			</g>
			<g>
				<path class="st1" d="M406.36,283.82L385,282.63c-1.65-0.09-2.92-1.51-2.83-3.16l-0.1,1.8c-0.09,1.65,1.18,3.07,2.83,3.16
					l21.35,1.19c1.65,0.09,3.07-1.18,3.16-2.83l0.1-1.8C409.42,282.64,408,283.91,406.36,283.82z"/>
				<path class="st1" d="M407.14,269.84l-21.35-1.19c-1.65-0.09-3.07,1.18-3.16,2.83l-0.1,1.8l-0.35,6.19
					c-0.09,1.65,1.18,3.07,2.83,3.16l21.35,1.19c1.65,0.09,3.07-1.18,3.16-2.83l0.35-6.19l0.1-1.8
					C410.06,271.36,408.78,269.94,407.14,269.84z"/>
			</g>
			<g>
				<path class="st1" d="M444.27,285.94l-21.35-1.19c-1.65-0.09-2.92-1.51-2.83-3.16l-0.1,1.8c-0.09,1.65,1.18,3.07,2.83,3.16
					l21.35,1.19c1.65,0.09,3.07-1.18,3.16-2.83l0.1-1.8C447.34,284.76,445.91,286.03,444.27,285.94z"/>
				<path class="st1" d="M445.05,271.96l-21.35-1.19c-1.65-0.09-3.07,1.18-3.16,2.83l-0.1,1.8l-0.35,6.19
					c-0.09,1.65,1.18,3.07,2.83,3.16l21.35,1.19c1.65,0.09,3.07-1.18,3.16-2.83l0.35-6.19l0.1-1.8
					C447.97,273.48,446.69,272.05,445.05,271.96z"/>
			</g>
			<g>
				<path class="st1" d="M482.18,288.06l-21.35-1.19c-1.65-0.09-2.92-1.51-2.83-3.16l-0.1,1.8c-0.09,1.65,1.18,3.07,2.83,3.16
					l21.35,1.19c1.65,0.09,3.07-1.18,3.16-2.83l0.1-1.8C485.25,286.88,483.82,288.15,482.18,288.06z"/>
				<path class="st1" d="M482.96,274.08l-21.35-1.19c-1.65-0.09-3.07,1.18-3.16,2.83l-0.1,1.8L458,283.7
					c-0.09,1.65,1.18,3.07,2.83,3.16l21.35,1.19c1.65,0.09,3.07-1.18,3.16-2.83l0.35-6.19l0.1-1.8
					C485.88,275.6,484.61,274.17,482.96,274.08z"/>
			</g>
			<g>
				<path class="st1" d="M404.98,308.46l-21.35-1.19c-1.65-0.09-2.92-1.51-2.83-3.16l-0.1,1.8c-0.09,1.65,1.18,3.07,2.83,3.16
					l21.35,1.19c1.65,0.09,3.07-1.18,3.16-2.83l0.1-1.8C408.05,307.28,406.62,308.56,404.98,308.46z"/>
				<path class="st1" d="M405.76,294.49l-21.35-1.19c-1.65-0.09-3.07,1.18-3.16,2.83l-0.1,1.8l-0.35,6.19
					c-0.09,1.65,1.18,3.07,2.83,3.16l21.35,1.19c1.65,0.09,3.07-1.18,3.16-2.83l0.35-6.19l0.1-1.8
					C408.68,296,407.41,294.58,405.76,294.49z"/>
			</g>
			<g>
				<path class="st1" d="M442.89,310.58l-21.35-1.19c-1.65-0.09-2.92-1.51-2.83-3.16l-0.1,1.8c-0.09,1.65,1.18,3.07,2.83,3.16
					l21.35,1.19c1.65,0.09,3.07-1.18,3.16-2.83l0.1-1.8C445.96,309.4,444.54,310.67,442.89,310.58z"/>
				<path class="st1" d="M443.67,296.61l-21.35-1.19c-1.65-0.09-3.07,1.18-3.16,2.83l-0.1,1.8l-0.35,6.19
					c-0.09,1.65,1.18,3.07,2.83,3.16l21.35,1.19c1.65,0.09,3.07-1.18,3.16-2.83l0.35-6.19l0.1-1.8
					C446.59,298.12,445.32,296.7,443.67,296.61z"/>
			</g>
			<g>
				<path class="st1" d="M480.8,312.7l-21.35-1.19c-1.65-0.09-2.92-1.51-2.83-3.16l-0.1,1.8c-0.09,1.65,1.18,3.07,2.83,3.16
					l21.35,1.19c1.65,0.09,3.07-1.18,3.16-2.83l0.1-1.8C483.87,311.52,482.45,312.79,480.8,312.7z"/>
				<path class="st1" d="M481.58,298.72l-21.35-1.19c-1.65-0.09-3.07,1.18-3.16,2.83l-0.1,1.8l-0.35,6.19
					c-0.09,1.65,1.18,3.07,2.83,3.16l21.35,1.19c1.65,0.09,3.07-1.18,3.16-2.83l0.35-6.19l0.1-1.8
					C484.5,300.24,483.23,298.82,481.58,298.72z"/>
			</g>
			<g>
				<path class="st1" d="M546.19,263.42l-21.35-1.19c-1.65-0.09-2.92-1.51-2.83-3.16l-0.1,1.8c-0.09,1.65,1.18,3.07,2.83,3.16
					l21.35,1.19c1.65,0.09,3.07-1.18,3.16-2.83l0.1-1.8C549.26,262.24,547.84,263.51,546.19,263.42z"/>
				<path class="st1" d="M546.97,249.44l-21.35-1.19c-1.65-0.09-3.07,1.18-3.16,2.83l-0.1,1.8l-0.35,6.19
					c-0.09,1.65,1.18,3.07,2.83,3.16l21.35,1.19c1.65,0.09,3.07-1.18,3.16-2.83l0.35-6.19l0.1-1.8
					C549.89,250.95,548.62,249.53,546.97,249.44z"/>
			</g>
		</g>
		<g>
			<g>
				<path class="st2" d="M458.79,377.1c0.75-5.25,2.78-22.91,5.46-23.77c2.68-0.86,9.23-2.98,14.35,0.96
					c2.82,2.11,6.33,5.38,9.21,10.9l10.06-9.15c-0.02-2.75-0.1-5.4-0.26-7.91l-125.62-5.88c-9.44-0.44-16.49-8.83-15.32-18.2
					l21.37-170.67c0,0-3.64-26.13-16.54-33.08c-12.9-6.95-11.91,5.29-13.56,10.25c-1.65,4.96,0,22.16-7.28,28.45
					c-7.28,6.29-9.26,20.18-8.6,27.13c0.66,6.95-15.22,56.57-15.88,62.19c-0.66,5.62,4.3,16.87,7.94,29.11
					c3.64,12.24,12.98,50.47,8.97,55.65c-4.01,5.19-60.36,49.52-92.43,63.9s-122.38,62.25-129.69,70.5h264.33l72.95-66.32
					c0.51-3.45,1.22-6.29,2.18-8.21C457.28,379.23,458.04,382.35,458.79,377.1z"/>
				<path class="st3" d="M364.43,340.36l125.62,5.88c-0.25-3.81-0.68-7.28-1.34-10.22c-5.14-22.7-1.18-35.44-2.68-40.37
					c-1.5-4.93-7.5-37.48,0.54-45.93c8.03-8.46,21.63-1.61,23.66,2.03c1.02,1.82,4.74,10.96,8.56,20.13
					c0.51-0.32,1.11-0.5,1.76-0.46l21.35,1.19c1.65,0.09,2.92,1.51,2.83,3.16l-0.1,1.8l-0.35,6.19l-0.1,1.8
					c-0.09,1.65-1.51,2.92-3.16,2.83l-15.52-0.87c1.05,2.29,1.89,3.98,2.4,4.7c0,0,1.12,1.86,2.08,4.44l10.54,0.59
					c1.65,0.09,2.92,1.51,2.83,3.16l-0.1,1.8l-0.35,6.19l-0.1,1.8c-0.09,1.65-1.51,2.92-3.16,2.83l-6.78-0.38
					c0.23,1.61,0.44,3.14,0.62,4.43c0.31,2.22,0.52,3.73,0.52,3.73s6.75-0.96,9.74-1.28c2-0.21,9.63,2.99,15.75,6.76l1.18-41.42
					l3.99-139.72l-0.14-6.21l-2.49-107.6c-0.16-7.24-6.04-13.04-13.28-13.11l-153.99-2.95c-7.58-0.07-13.71,6.17-13.52,13.75
					l-10.78,122.45l-21.37,170.67C347.93,331.53,354.99,339.92,364.43,340.36z"/>
				<path class="st2" d="M564.74,283.23c12.58-18.25,19.08-38.53,22.42-63.2c0.66-4.92,1.12-8.19-1.13-11.88
					c0,0,29.41-18.1,6.22-49.2c0,0,21.49-22.06,1.13-33.93c0,0-13.57-2.83-22.62,6.79c-2.21,2.35-0.25,2.45-2.17,4.81l0.21,15
					L564.74,283.23z"/>
				<path class="st4" d="M544.17,285.57l0.1-1.8c-0.09,1.65-1.51,2.92-3.16,2.83l-16.45-0.92c0.29,0.65,0.57,1.27,0.83,1.85
					l15.52,0.87C542.66,288.49,544.08,287.21,544.17,285.57z"/>
				<path class="st4" d="M541.11,286.6c1.65,0.09,3.07-1.18,3.16-2.83l0.35-6.19l0.1-1.8c0.09-1.65-1.18-3.07-2.83-3.16l-21.35-1.19
					c-0.64-0.04-1.25,0.14-1.76,0.46c2.07,4.98,4.16,9.95,5.87,13.79L541.11,286.6z"/>
				<path class="st4" d="M542.8,310.21l0.1-1.8c-0.09,1.65-1.51,2.92-3.16,2.83l-7.14-0.4c0.09,0.61,0.17,1.22,0.26,1.82l6.78,0.38
					C541.28,313.13,542.7,311.86,542.8,310.21z"/>
				<path class="st4" d="M532.6,310.84l7.14,0.4c1.65,0.09,3.07-1.18,3.16-2.83l0.35-6.19l0.1-1.8c0.09-1.65-1.18-3.07-2.83-3.16
					l-10.54-0.59c0.46,1.25,0.89,2.66,1.13,4.12C531.43,302.77,532.03,306.86,532.6,310.84z"/>
				<g>
					<path class="st4" d="M404.86,171.43c0.62-2.53,0.04-5.32-1.82-7.42c-3.01-3.42-8.22-3.75-11.64-0.74
						c-2.1,1.85-3.03,4.54-2.74,7.13c0.19,1.61,0.84,3.19,2,4.5c3.01,3.42,8.22,3.75,11.64,0.74
						C403.62,174.48,404.47,173,404.86,171.43z"/>
				</g>
				<path class="st4" d="M403.04,164c-3.01-3.42-8.22-3.75-11.64-0.74c-1.24,1.09-2.07,2.46-2.48,3.94
					c-0.29,1.04-0.58,5.79-0.28,7.06c0.3,1.28,0.91,2.5,1.84,3.56c3.01,3.42,8.22,3.75,11.64,0.74c1.05-0.93,1.81-2.06,2.27-3.29
					c0.46-1.23,0.75-5.61,0.68-6.5C404.93,167.06,404.26,165.39,403.04,164z"/>
				<g>
					<path class="st4" d="M439.33,171.9c0.62-2.53,0.04-5.32-1.82-7.42c-3.01-3.42-8.22-3.75-11.64-0.74
						c-2.1,1.85-3.03,4.54-2.74,7.13c0.19,1.61,0.84,3.19,2,4.5c3.01,3.42,8.22,3.75,11.64,0.74
						C438.09,174.96,438.94,173.48,439.33,171.9z"/>
				</g>
				<path class="st4" d="M437.51,164.48c-3.01-3.42-8.22-3.75-11.64-0.74c-1.24,1.09-2.07,2.46-2.48,3.94
					c-0.29,1.04-0.58,5.79-0.28,7.06c0.3,1.28,0.91,2.5,1.84,3.56c3.01,3.42,8.22,3.75,11.64,0.74c1.05-0.93,1.81-2.06,2.27-3.29
					c0.46-1.23,0.75-5.61,0.68-6.5C439.4,167.53,438.73,165.86,437.51,164.48z"/>
				<g>
					<path class="st4" d="M472.75,172.36c0.62-2.53,0.04-5.32-1.82-7.42c-3.01-3.42-8.22-3.75-11.64-0.74
						c-2.1,1.85-3.03,4.54-2.74,7.13c0.19,1.61,0.84,3.19,2,4.5c3.01,3.42,8.22,3.75,11.64,0.74
						C471.51,175.42,472.36,173.93,472.75,172.36z"/>
				</g>
				<path class="st4" d="M470.93,164.93c-3.01-3.42-8.22-3.75-11.64-0.74c-1.24,1.09-2.07,2.46-2.48,3.94
					c-0.29,1.04-0.58,5.79-0.28,7.06c0.3,1.28,0.91,2.5,1.84,3.56c3.01,3.42,8.22,3.75,11.64,0.74c1.05-0.93,1.81-2.06,2.27-3.29
					c0.46-1.23,0.75-5.61,0.68-6.5C472.82,167.99,472.15,166.32,470.93,164.93z"/>
				<g>
					<path class="st4" d="M507.91,172.84c0.62-2.53,0.04-5.32-1.82-7.42c-3.01-3.42-8.22-3.75-11.64-0.74
						c-2.1,1.85-3.03,4.54-2.74,7.13c0.19,1.61,0.84,3.19,2,4.5c3.01,3.42,8.22,3.75,11.64,0.74
						C506.67,175.9,507.52,174.42,507.91,172.84z"/>
				</g>
				<path class="st4" d="M506.1,165.42c-3.01-3.42-8.22-3.75-11.64-0.74c-1.24,1.09-2.07,2.46-2.48,3.94
					c-0.29,1.04-0.58,5.79-0.28,7.06c0.3,1.28,0.91,2.5,1.84,3.56c3.01,3.42,8.22,3.75,11.64,0.74c1.05-0.93,1.81-2.06,2.27-3.29
					c0.46-1.23,0.75-5.61,0.68-6.5C507.98,168.48,507.31,166.8,506.1,165.42z"/>
				<g>
					<path class="st4" d="M542.52,173.31c0.62-2.53,0.04-5.32-1.82-7.42c-3.01-3.42-8.22-3.75-11.64-0.74
						c-2.1,1.85-3.03,4.54-2.74,7.13c0.19,1.61,0.84,3.19,2,4.5c3.01,3.42,8.22,3.75,11.64,0.74
						C541.29,176.37,542.14,174.89,542.52,173.31z"/>
				</g>
				<path class="st4" d="M540.71,165.89c-3.01-3.42-8.22-3.75-11.64-0.74c-1.24,1.09-2.07,2.46-2.48,3.94
					c-0.29,1.04-0.58,5.79-0.28,7.06c0.3,1.28,0.91,2.5,1.84,3.56c3.01,3.42,8.22,3.75,11.64,0.74c1.05-0.93,1.81-2.06,2.27-3.29
					c0.46-1.23,0.75-5.61,0.68-6.5C542.6,168.95,541.93,167.27,540.71,165.89z"/>
				<g>
					<path class="st4" d="M524.67,202.09c0.59-2.54-0.03-5.32-1.92-7.4c-3.06-3.37-8.27-3.63-11.65-0.58
						c-2.08,1.88-2.97,4.58-2.64,7.17c0.21,1.61,0.89,3.18,2.06,4.48c3.06,3.38,8.27,3.63,11.65,0.58
						C523.48,205.16,524.31,203.67,524.67,202.09z"/>
				</g>
				<path class="st4" d="M522.74,194.47c-3.04-3.12-8.25-3.34-11.64-0.48c-1.22,1.03-2.04,2.33-2.44,3.7
					c-0.28,0.97-0.52,5.39-0.21,6.57c0.31,1.18,0.93,2.31,1.87,3.27c3.04,3.12,8.25,3.34,11.64,0.48c1.04-0.88,1.79-1.95,2.24-3.1
					s0.7-5.23,0.62-6.05C524.66,197.28,523.97,195.74,522.74,194.47z"/>
				<g>
					<path class="st4" d="M525.78,235.23c0.59-2.54-0.03-5.32-1.92-7.4c-3.06-3.37-8.27-3.63-11.65-0.58
						c-2.08,1.88-2.97,4.58-2.64,7.17c0.21,1.61,0.89,3.18,2.06,4.48c3.06,3.38,8.27,3.63,11.65,0.58
						C524.58,238.31,525.41,236.81,525.78,235.23z"/>
				</g>
				<path class="st4" d="M523.85,227.61c-3.04-3.12-8.25-3.34-11.64-0.48c-1.22,1.03-2.04,2.33-2.44,3.7
					c-0.28,0.97-0.52,5.39-0.21,6.57c0.31,1.18,0.93,2.31,1.87,3.27c3.04,3.12,8.25,3.34,11.64,0.48c1.04-0.88,1.79-1.95,2.24-3.1
					s0.7-5.23,0.62-6.05C525.76,230.42,525.08,228.88,523.85,227.61z"/>
				<g>
					<path class="st4" d="M542.72,217.55c0.59-2.54-0.03-5.32-1.92-7.4c-3.06-3.37-8.27-3.63-11.65-0.58
						c-2.08,1.88-2.97,4.58-2.64,7.17c0.21,1.61,0.89,3.18,2.06,4.48c3.06,3.38,8.27,3.63,11.65,0.58
						C541.52,220.63,542.35,219.14,542.72,217.55z"/>
				</g>
				<path class="st4" d="M540.79,209.94c-3.04-3.12-8.25-3.34-11.64-0.48c-1.22,1.03-2.04,2.33-2.44,3.7
					c-0.28,0.97-0.52,5.39-0.21,6.57c0.31,1.18,0.93,2.31,1.87,3.27c3.04,3.12,8.25,3.34,11.64,0.48c1.04-0.88,1.79-1.95,2.24-3.1
					s0.7-5.23,0.62-6.05C542.7,212.75,542.02,211.2,540.79,209.94z"/>
				<g>
					<path class="st4" d="M508.1,217.55c0.59-2.54-0.03-5.32-1.92-7.4c-3.06-3.37-8.27-3.63-11.65-0.58
						c-2.08,1.88-2.97,4.58-2.64,7.17c0.21,1.61,0.89,3.18,2.06,4.48c3.06,3.38,8.27,3.63,11.65,0.58
						C506.91,220.63,507.74,219.14,508.1,217.55z"/>
				</g>
				<path class="st4" d="M506.17,209.94c-3.04-3.12-8.25-3.34-11.64-0.48c-1.22,1.03-2.04,2.33-2.44,3.7
					c-0.28,0.97-0.52,5.39-0.21,6.57c0.31,1.18,0.93,2.31,1.87,3.27c3.04,3.12,8.25,3.34,11.64,0.48c1.04-0.88,1.79-1.95,2.24-3.1
					c0.45-1.15,0.7-5.23,0.62-6.05C508.09,212.75,507.4,211.2,506.17,209.94z"/>
				<g>
					<path class="st4" d="M406.78,208.43l-21.35-1.19c-1.65-0.09-2.92-1.51-2.83-3.16l-0.1,1.8c-0.09,1.65,1.18,3.07,2.83,3.16
						l21.35,1.19c1.65,0.09,3.07-1.18,3.16-2.83l0.1-1.8C409.85,207.25,408.43,208.52,406.78,208.43z"/>
					<path class="st4" d="M407.56,194.45l-21.35-1.19c-1.65-0.09-3.07,1.18-3.16,2.83l-0.1,1.8l-0.35,6.19
						c-0.09,1.65,1.18,3.07,2.83,3.16l21.35,1.19c1.65,0.09,3.07-1.18,3.16-2.83l0.35-6.19l0.1-1.8
						C410.48,195.97,409.21,194.55,407.56,194.45z"/>
				</g>
				<g>
					<path class="st4" d="M444.69,210.55l-21.35-1.19c-1.65-0.09-2.92-1.51-2.83-3.16l-0.1,1.8c-0.09,1.65,1.18,3.07,2.83,3.16
						l21.35,1.19c1.65,0.09,3.07-1.18,3.16-2.83l0.1-1.8C447.76,209.37,446.34,210.64,444.69,210.55z"/>
					<path class="st4" d="M445.48,196.57l-21.35-1.19c-1.65-0.09-3.07,1.18-3.16,2.83l-0.1,1.8l-0.35,6.19
						c-0.09,1.65,1.18,3.07,2.83,3.16l21.35,1.19c1.65,0.09,3.07-1.18,3.16-2.83l0.35-6.19l0.1-1.8
						C448.39,198.09,447.12,196.66,445.48,196.57z"/>
				</g>
				<g>
					<path class="st4" d="M482.61,212.67l-21.35-1.19c-1.65-0.09-2.92-1.51-2.83-3.16l-0.1,1.8c-0.09,1.65,1.18,3.07,2.83,3.16
						l21.35,1.19c1.65,0.09,3.07-1.18,3.16-2.83l0.1-1.8C485.68,211.49,484.25,212.76,482.61,212.67z"/>
					<path class="st4" d="M483.39,198.69l-21.35-1.19c-1.65-0.09-3.07,1.18-3.16,2.83l-0.1,1.8l-0.35,6.19
						c-0.09,1.65,1.18,3.07,2.83,3.16l21.35,1.19c1.65,0.09,3.07-1.18,3.16-2.83l0.35-6.19l0.1-1.8
						C486.31,200.21,485.03,198.78,483.39,198.69z"/>
				</g>
				<g>
					<path class="st4" d="M405.41,233.07l-21.35-1.19c-1.65-0.09-2.92-1.51-2.83-3.16l-0.1,1.8c-0.09,1.65,1.18,3.07,2.83,3.16
						l21.35,1.19c1.65,0.09,3.07-1.18,3.16-2.83l0.1-1.8C408.48,231.89,407.05,233.17,405.41,233.07z"/>
					<path class="st4" d="M406.19,219.1l-21.35-1.19c-1.65-0.09-3.07,1.18-3.16,2.83l-0.1,1.8l-0.35,6.19
						c-0.09,1.65,1.18,3.07,2.83,3.16l21.35,1.19c1.65,0.09,3.07-1.18,3.16-2.83l0.35-6.19l0.1-1.8
						C409.11,220.61,407.83,219.19,406.19,219.1z"/>
				</g>
				<g>
					<path class="st4" d="M443.32,235.19L421.97,234c-1.65-0.09-2.92-1.51-2.83-3.16l-0.1,1.8c-0.09,1.65,1.18,3.07,2.83,3.16
						l21.35,1.19c1.65,0.09,3.07-1.18,3.16-2.83l0.1-1.8C446.39,234.01,444.96,235.28,443.32,235.19z"/>
					<path class="st4" d="M444.1,221.21l-21.35-1.19c-1.65-0.09-3.07,1.18-3.16,2.83l-0.1,1.8l-0.35,6.19
						c-0.09,1.65,1.18,3.07,2.83,3.16l21.35,1.19c1.65,0.09,3.07-1.18,3.16-2.83l0.35-6.19l0.1-1.8
						C447.02,222.73,445.74,221.31,444.1,221.21z"/>
				</g>
				<g>
					<path class="st4" d="M481.23,237.31l-21.35-1.19c-1.65-0.09-2.92-1.51-2.83-3.16l-0.1,1.8c-0.09,1.65,1.18,3.07,2.83,3.16
						l21.35,1.19c1.65,0.09,3.07-1.18,3.16-2.83l0.1-1.8C484.3,236.13,482.88,237.4,481.23,237.31z"/>
					<path class="st4" d="M482.01,223.33l-21.35-1.19c-1.65-0.09-3.07,1.18-3.16,2.83l-0.1,1.8l-0.35,6.19
						c-0.09,1.65,1.18,3.07,2.83,3.16l21.35,1.19c1.65,0.09,3.07-1.18,3.16-2.83l0.35-6.19l0.1-1.8
						C484.93,224.85,483.66,223.43,482.01,223.33z"/>
				</g>
				<g>
					<path class="st4" d="M404.03,257.72l-21.35-1.19c-1.65-0.09-2.92-1.51-2.83-3.16l-0.1,1.8c-0.09,1.65,1.18,3.07,2.83,3.16
						l21.35,1.19c1.65,0.09,3.07-1.18,3.16-2.83l0.1-1.8C407.1,256.54,405.68,257.81,404.03,257.72z"/>
					<path class="st4" d="M404.81,243.74l-21.35-1.19c-1.65-0.09-3.07,1.18-3.16,2.83l-0.1,1.8l-0.35,6.19
						c-0.09,1.65,1.18,3.07,2.83,3.16l21.35,1.19c1.65,0.09,3.07-1.18,3.16-2.83l0.35-6.19l0.1-1.8
						C407.73,245.25,406.46,243.83,404.81,243.74z"/>
				</g>
				<g>
					<path class="st4" d="M441.94,259.83l-21.35-1.19c-1.65-0.09-2.92-1.51-2.83-3.16l-0.1,1.8c-0.09,1.65,1.18,3.07,2.83,3.16
						l21.35,1.19c1.65,0.09,3.07-1.18,3.16-2.83l0.1-1.8C445.01,258.65,443.59,259.93,441.94,259.83z"/>
					<path class="st4" d="M442.72,245.86l-21.35-1.19c-1.65-0.09-3.07,1.18-3.16,2.83l-0.1,1.8l-0.35,6.19
						c-0.09,1.65,1.18,3.07,2.83,3.16l21.35,1.19c1.65,0.09,3.07-1.18,3.16-2.83l0.35-6.19l0.1-1.8
						C445.64,247.37,444.37,245.95,442.72,245.86z"/>
				</g>
				<g>
					<path class="st4" d="M479.85,261.95l-21.35-1.19c-1.65-0.09-2.92-1.51-2.83-3.16l-0.1,1.8c-0.09,1.65,1.18,3.07,2.83,3.16
						l21.35,1.19c1.65,0.09,3.07-1.18,3.16-2.83l0.1-1.8C482.92,260.77,481.5,262.05,479.85,261.95z"/>
					<path class="st4" d="M480.63,247.98l-21.35-1.19c-1.65-0.09-3.07,1.18-3.16,2.83l-0.1,1.8l-0.35,6.19
						c-0.09,1.65,1.18,3.07,2.83,3.16l21.35,1.19c1.65,0.09,3.07-1.18,3.16-2.83l0.35-6.19l0.1-1.8
						C483.55,249.49,482.28,248.07,480.63,247.98z"/>
				</g>
				<g>
					<path class="st4" d="M402.65,282.36l-21.35-1.19c-1.65-0.09-2.92-1.51-2.83-3.16l-0.1,1.8c-0.09,1.65,1.18,3.07,2.83,3.16
						l21.35,1.19c1.65,0.09,3.07-1.18,3.16-2.83l0.1-1.8C405.72,281.18,404.3,282.45,402.65,282.36z"/>
					<path class="st4" d="M403.43,268.38l-21.35-1.19c-1.65-0.09-3.07,1.18-3.16,2.83l-0.1,1.8l-0.35,6.19
						c-0.09,1.65,1.18,3.07,2.83,3.16l21.35,1.19c1.65,0.09,3.07-1.18,3.16-2.83l0.35-6.19l0.1-1.8
						C406.35,269.9,405.08,268.47,403.43,268.38z"/>
				</g>
				<g>
					<path class="st4" d="M440.56,284.48l-21.35-1.19c-1.65-0.09-2.92-1.51-2.83-3.16l-0.1,1.8c-0.09,1.65,1.18,3.07,2.83,3.16
						l21.35,1.19c1.65,0.09,3.07-1.18,3.16-2.83l0.1-1.8C443.63,283.3,442.21,284.57,440.56,284.48z"/>
					<path class="st4" d="M441.34,270.5l-21.35-1.19c-1.65-0.09-3.07,1.18-3.16,2.83l-0.1,1.8l-0.35,6.19
						c-0.09,1.65,1.18,3.07,2.83,3.16l21.35,1.19c1.65,0.09,3.07-1.18,3.16-2.83l0.35-6.19l0.1-1.8
						C444.26,272.01,442.99,270.59,441.34,270.5z"/>
				</g>
				<g>
					<path class="st4" d="M478.47,286.6l-21.35-1.19c-1.65-0.09-2.92-1.51-2.83-3.16l-0.1,1.8c-0.09,1.65,1.18,3.07,2.83,3.16
						l21.35,1.19c1.65,0.09,3.07-1.18,3.16-2.83l0.1-1.8C481.54,285.42,480.12,286.69,478.47,286.6z"/>
					<path class="st4" d="M479.26,272.62l-21.35-1.19c-1.65-0.09-3.07,1.18-3.16,2.83l-0.1,1.8l-0.35,6.19
						c-0.09,1.65,1.18,3.07,2.83,3.16l21.35,1.19c1.65,0.09,3.07-1.18,3.16-2.83l0.35-6.19l0.1-1.8
						C482.17,274.13,480.9,272.71,479.26,272.62z"/>
				</g>
				<g>
					<path class="st4" d="M401.27,307l-21.35-1.19c-1.65-0.09-2.92-1.51-2.83-3.16l-0.1,1.8c-0.09,1.65,1.18,3.07,2.83,3.16
						l21.35,1.19c1.65,0.09,3.07-1.18,3.16-2.83l0.1-1.8C404.34,305.82,402.92,307.09,401.27,307z"/>
					<path class="st4" d="M402.06,293.02l-21.35-1.19c-1.65-0.09-3.07,1.18-3.16,2.83l-0.1,1.8l-0.35,6.19
						c-0.09,1.65,1.18,3.07,2.83,3.16l21.35,1.19c1.65,0.09,3.07-1.18,3.16-2.83l0.35-6.19l0.1-1.8
						C404.97,294.54,403.7,293.12,402.06,293.02z"/>
				</g>
				<g>
					<path class="st4" d="M439.19,309.12l-21.35-1.19c-1.65-0.09-2.92-1.51-2.83-3.16l-0.1,1.8c-0.09,1.65,1.18,3.07,2.83,3.16
						l21.35,1.19c1.65,0.09,3.07-1.18,3.16-2.83l0.1-1.8C442.26,307.94,440.83,309.21,439.19,309.12z"/>
					<path class="st4" d="M439.97,295.14l-21.35-1.19c-1.65-0.09-3.07,1.18-3.16,2.83l-0.1,1.8l-0.35,6.19
						c-0.09,1.65,1.18,3.07,2.83,3.16l21.35,1.19c1.65,0.09,3.07-1.18,3.16-2.83l0.35-6.19l0.1-1.8
						C442.89,296.66,441.61,295.23,439.97,295.14z"/>
				</g>
				<g>
					<path class="st4" d="M477.1,311.24l-21.35-1.19c-1.65-0.09-2.92-1.51-2.83-3.16l-0.1,1.8c-0.09,1.65,1.18,3.07,2.83,3.16
						l21.35,1.19c1.65,0.09,3.07-1.18,3.16-2.83l0.1-1.8C480.17,310.06,478.74,311.33,477.1,311.24z"/>
					<path class="st4" d="M477.88,297.26l-21.35-1.19c-1.65-0.09-3.07,1.18-3.16,2.83l-0.1,1.8l-0.35,6.19
						c-0.09,1.65,1.18,3.07,2.83,3.16l21.35,1.19c1.65,0.09,3.07-1.18,3.16-2.83l0.35-6.19l0.1-1.8
						C480.8,298.78,479.53,297.35,477.88,297.26z"/>
				</g>
				<g>
					<path class="st4" d="M542.49,261.95l-21.35-1.19c-1.65-0.09-2.92-1.51-2.83-3.16l-0.1,1.8c-0.09,1.65,1.18,3.07,2.83,3.16
						l21.35,1.19c1.65,0.09,3.07-1.18,3.16-2.83l0.1-1.8C545.56,260.77,544.14,262.05,542.49,261.95z"/>
					<path class="st4" d="M543.27,247.98l-21.35-1.19c-1.65-0.09-3.07,1.18-3.16,2.83l-0.1,1.8l-0.35,6.19
						c-0.09,1.65,1.18,3.07,2.83,3.16l21.35,1.19c1.65,0.09,3.07-1.18,3.16-2.83l0.35-6.19l0.1-1.8
						C546.19,249.49,544.92,248.07,543.27,247.98z"/>
				</g>
				<path class="st1" d="M658.91,426.82c-2.89-17.02-19.49-29.23-21.84-30.84c-2.36-1.61-16.17-9.64-16.17-9.64
					c-1.07-2.89-16.6-19.92-25.06-25.7c-8.46-5.78-18.31-7.5-18.63-7.39c-0.32,0.11-4.5-15.74-8.67-21.2
					c-1.4-1.83-4.09-3.87-7.16-5.76c-6.12-3.77-13.75-6.98-15.75-6.76c-3,0.32-9.74,1.28-9.74,1.28s-0.21-1.51-0.52-3.73
					c-0.18-1.29-0.4-2.82-0.62-4.43c-0.08-0.6-0.17-1.21-0.26-1.82c-0.57-3.98-1.16-8.07-1.49-10.05c-0.24-1.46-0.67-2.88-1.13-4.12
					c-0.96-2.59-2.08-4.44-2.08-4.44c-0.51-0.72-1.35-2.41-2.4-4.7c-0.27-0.58-0.54-1.2-0.83-1.85c-1.71-3.84-3.8-8.81-5.87-13.79
					c-3.82-9.17-7.54-18.31-8.56-20.13c-2.03-3.64-15.63-10.49-23.66-2.03c-8.03,8.46-2.03,41.01-0.54,45.93
					c1.5,4.93-2.46,17.67,2.68,40.37c0.67,2.94,1.1,6.41,1.34,10.22c0.16,2.51,0.25,5.16,0.26,7.91
					c0.17,25.37-5.25,58.85-5.25,58.85c0.43-4.28-2.78-10.6-2.78-10.6s2.25-15.85,0.86-29.02c-0.45-4.23-1.52-7.48-2.89-10.09
					c-2.88-5.52-6.43-8.75-9.21-10.9c-4.85-3.63-11.67-1.82-14.35-0.96c-2.68,0.86-4.71,18.52-5.46,23.77
					c-0.75,5.25-1.51,2.13-8.37,15.86c-0.96,1.92-1.67,4.76-2.18,8.21c-3.13,21.23,1.26,65.9,1.26,65.9l212.62-0.13
					C656.45,465.05,661.81,443.84,658.91,426.82z"/>
				<path class="st2" d="M655.15,429.36c-2.89-17.02-19.49-29.23-21.84-30.84c-2.36-1.61-16.17-9.64-16.17-9.64
					c-1.07-2.89-16.6-19.92-25.06-25.7c-8.46-5.78-18.31-7.5-18.63-7.39c-0.32,0.11-4.5-15.74-8.67-21.2
					c-1.4-1.83-4.09-3.87-7.16-5.76c-6.12-3.77-13.75-6.98-15.75-6.76c-3,0.32-9.74,1.28-9.74,1.28s-0.21-1.51-0.52-3.73
					c-0.18-1.29-0.4-2.82-0.62-4.43c-0.08-0.6-0.17-1.21-0.26-1.82c-0.57-3.98-1.16-8.07-1.49-10.05c-0.24-1.46-0.67-2.88-1.13-4.12
					c-0.96-2.59-2.08-4.44-2.08-4.44c-0.51-0.72-1.35-2.41-2.4-4.7c-0.27-0.58-0.54-1.2-0.83-1.85c-1.71-3.84-3.8-8.81-5.87-13.79
					c-3.82-9.17-7.54-18.31-8.56-20.13c-2.03-3.64-15.63-10.49-23.66-2.03c-8.03,8.46-2.03,41.01-0.54,45.93
					c1.5,4.93-2.46,17.67,2.68,40.37c0.67,2.94,1.1,6.41,1.34,10.22c0.16,2.51,0.25,5.16,0.26,7.91
					c0.17,25.37-5.25,58.85-5.25,58.85c0.43-4.28-2.78-10.6-2.78-10.6s2.25-15.85,0.86-29.02c-0.45-4.23-1.52-7.48-2.89-10.09
					c-2.88-5.52-6.43-8.75-9.21-10.9c-4.85-3.63-11.67-1.82-14.35-0.96c-2.68,0.86-4.71,18.52-5.46,23.77
					c-0.75,5.25-1.51,2.13-8.37,15.86c-0.96,1.92-1.67,4.76-2.18,8.21c-3.13,21.23,1.26,65.9,1.26,65.9l212.62-0.13
					C652.68,467.58,658.04,446.38,655.15,429.36z"/>
			</g>
			<path class="st1" d="M545.84,141.86l-154.19-3.54c-2.87-0.07-5.14-2.45-5.08-5.32l7.32-98.31c0.07-2.87,2.45-5.14,5.32-5.08
				l145.19,3.54c2.87,0.07,5.14,2.45,5.08,5.32l1.68,98.31C551.09,139.65,548.71,141.92,545.84,141.86z"/>
		</g>
		<g>
			<g>
				<polygon class="st5" points="407.12,46.92 405.7,49.18 408.44,49.25 				"/>
				<text transform="matrix(0.9997 0.0236 -0.0236 0.9997 404.6584 53.491)" class="st5 st6 st7">1</text>
				<text transform="matrix(0.9997 0.0236 -0.0236 0.9997 527.6071 128.4428)" class="st5 st6 st7">1</text>
				<line class="st8" x1="406.9" y1="53.18" x2="405.83" y2="53.15"/>
				<line class="st8" x1="406.57" y1="66.98" x2="405.5" y2="66.96"/>
				<line class="st8" x1="406.25" y1="80.78" x2="405.18" y2="80.76"/>
				<line class="st8" x1="405.92" y1="94.59" x2="404.85" y2="94.56"/>
				<text transform="matrix(0.9997 0.0236 -0.0236 0.9997 400.0005 108.9899)" class="st5 st6 st7">0.2</text>
				<text transform="matrix(0.9997 0.0236 -0.0236 0.9997 426.9378 126.0714)" class="st5 st6 st7">0.2</text>
				<text transform="matrix(0.9997 0.0236 -0.0236 0.9997 400.3226 95.3179)" class="st5 st6 st7">0.4</text>
				<text transform="matrix(0.9997 0.0236 -0.0236 0.9997 452.5541 126.3266)" class="st5 st6 st7">0.4</text>
				<text transform="matrix(0.9997 0.0236 -0.0236 0.9997 400.6511 81.3736)" class="st5 st6 st7">0.6</text>
				<text transform="matrix(0.9997 0.0236 -0.0236 0.9997 477.1055 127.2532)" class="st5 st6 st7">0.6</text>
				<text transform="matrix(0.9997 0.0236 -0.0236 0.9997 400.9741 67.662)" class="st5 st6 st7">0.8</text>
				<text transform="matrix(0.9997 0.0236 -0.0236 0.9997 501.7774 127.8344)" class="st5 st6 st7">0.8</text>
				<line class="st8" x1="405.6" y1="108.39" x2="404.52" y2="108.37"/>
				<line class="st8" x1="429.75" y1="122.61" x2="429.73" y2="123.65"/>
				<line class="st8" x1="454.51" y1="123.2" x2="454.48" y2="124.23"/>
				<line class="st8" x1="479.01" y1="123.78" x2="478.99" y2="124.81"/>
				<line class="st8" x1="503.78" y1="124.36" x2="503.75" y2="125.39"/>
				<line class="st8" x1="528.35" y1="124.94" x2="528.33" y2="125.97"/>
				<text transform="matrix(0.9997 0.0236 -0.0236 0.9997 401.804 123.409)" class="st5 st6 st7">0</text>
				<g>
					<line class="st8" x1="405.29" y1="122.06" x2="539.81" y2="125.23"/>
					<polygon class="st5" points="541.77,125.26 539.42,123.87 539.36,126.52 					"/>
				</g>
				<line class="st8" x1="407.01" y1="49.06" x2="405.29" y2="122.06"/>
				<g>
					<polygon class="st9" points="541.7,53.68 405.1,121.78 405.19,121.95 542.11,53.69 					"/>
				</g>
				<g>
					<path class="st10" d="M539.82,53.64c-8.92,6.99-38.74,29.6-72.22,46.72c-18.56,9.49-34.52,14.8-44.63,17.58
						c-10.96,3.02-17.62,3.8-17.69,3.81l0.02,0.19c0.07-0.01,6.74-0.79,17.71-3.81c10.13-2.79,26.1-8.1,44.68-17.6
						c33.73-17.25,63.74-40.06,72.44-46.88L539.82,53.64z"/>
				</g>
				<g>
					<path class="st11" d="M538.88,53.62c-7.4,7.75-29,28.62-47.36,40.71c-21.23,13.98-38.78,18.01-48.22,20.18
						c-1.2,0.28-2.24,0.52-3.13,0.74c-10.63,2.68-21.34,4.74-31.86,6.14c-1.19,0.16-1.99,0.25-3.04,0.36l0.02,0.19
						c1.06-0.11,1.85-0.21,3.05-0.36c10.52-1.39,21.24-3.46,31.88-6.14c0.89-0.22,1.93-0.46,3.13-0.74
						c9.44-2.17,27.02-6.22,48.28-20.21c18.47-12.16,40.22-33.21,47.51-40.86L538.88,53.62z"/>
				</g>
				<g>
					<path class="st12" d="M538.06,53.6c-3.23,4.83-9.55,13.82-17.83,23.43c-7.17,8.33-14.39,15.49-21.46,21.3
						c-8.83,7.25-17.45,12.38-25.62,15.24c-15.62,5.48-33.25,7.44-45.3,8.12c-13.05,0.74-22.53,0.17-22.63,0.16l-0.01,0.19
						c0.04,0,1.57,0.09,4.22,0.16c4,0.09,10.57,0.12,18.43-0.32c12.06-0.68,29.71-2.64,45.35-8.13c8.19-2.87,16.83-8.01,25.68-15.27
						c7.08-5.81,14.31-12.98,21.49-21.32c8.34-9.69,14.69-18.74,17.91-23.55L538.06,53.6z"/>
				</g>
				<g>
					<path class="st13" d="M537.99,53.59c-6.39,7.98-21.23,25.85-33.38,35.54c-17.18,13.7-34.15,22.66-51.88,27.41
						c-15.63,4.18-29.76,4.63-43.43,5.07c-1.35,0.04-2.69,0.09-4.03,0.13l0.01,0.19c1.34-0.05,2.68-0.09,4.02-0.13
						c13.68-0.44,27.83-0.89,43.47-5.08c17.75-4.75,34.75-13.72,51.95-27.44c12.22-9.75,27.15-27.76,33.5-35.69L537.99,53.59z"/>
				</g>
			</g>
			<path class="st8" d="M548.54,143.32l-156.64-5.77c-2.87-0.07-5.14-2.45-5.08-5.32l8.76-96.08c0.07-2.87,2.45-5.14,5.32-5.08
				l147.19,3.54c2.87,0.07,5.14,2.45,5.08,5.32l0.68,98.31C553.79,141.11,551.41,143.39,548.54,143.32z"/>
			<g>
				<path class="st8" d="M408.56,172.89c0.62-2.53,0.04-5.32-1.82-7.42c-3.01-3.42-8.22-3.75-11.64-0.74
					c-2.1,1.85-3.03,4.54-2.74,7.13c0.19,1.61,0.84,3.19,2,4.5c3.01,3.42,8.22,3.75,11.64,0.74
					C407.33,175.95,408.18,174.47,408.56,172.89z"/>
			</g>
			<path class="st8" d="M406.75,165.47c-3.01-3.42-8.22-3.75-11.64-0.74c-1.24,1.09-2.07,2.46-2.48,3.94
				c-0.29,1.04-0.58,5.79-0.28,7.06c0.3,1.28,0.91,2.5,1.84,3.56c3.01,3.42,8.22,3.75,11.64,0.74c1.05-0.93,1.81-2.06,2.27-3.29
				c0.46-1.23,0.75-5.61,0.68-6.5C408.64,168.53,407.97,166.85,406.75,165.47z"/>
			<g>
				<path class="st8" d="M443.03,173.36c0.62-2.53,0.04-5.32-1.82-7.42c-3.01-3.42-8.22-3.75-11.64-0.74
					c-2.1,1.85-3.03,4.54-2.74,7.13c0.19,1.61,0.84,3.19,2,4.5c3.01,3.42,8.22,3.75,11.64,0.74
					C441.79,176.42,442.64,174.94,443.03,173.36z"/>
			</g>
			<path class="st8" d="M441.21,165.94c-3.01-3.42-8.22-3.75-11.64-0.74c-1.24,1.09-2.07,2.46-2.48,3.94
				c-0.29,1.04-0.58,5.79-0.28,7.06c0.3,1.28,0.91,2.5,1.84,3.56c3.01,3.42,8.22,3.75,11.64,0.74c1.05-0.93,1.81-2.06,2.27-3.29
				c0.46-1.23,0.75-5.61,0.68-6.5C443.1,169,442.43,167.32,441.21,165.94z"/>
			<g>
				<path class="st8" d="M476.45,173.82c0.62-2.53,0.04-5.32-1.82-7.42c-3.01-3.42-8.22-3.75-11.64-0.74
					c-2.1,1.85-3.03,4.54-2.74,7.13c0.19,1.61,0.84,3.19,2,4.5c3.01,3.42,8.22,3.75,11.64,0.74
					C475.21,176.88,476.07,175.4,476.45,173.82z"/>
			</g>
			<path class="st8" d="M474.64,166.4c-3.01-3.42-8.22-3.75-11.64-0.74c-1.24,1.09-2.07,2.46-2.48,3.94
				c-0.29,1.04-0.58,5.79-0.28,7.06c0.3,1.28,0.91,2.5,1.84,3.56c3.01,3.42,8.22,3.75,11.64,0.74c1.05-0.93,1.81-2.06,2.27-3.29
				c0.46-1.23,0.75-5.61,0.68-6.5C476.52,169.46,475.86,167.78,474.64,166.4z"/>
			<g>
				<path class="st8" d="M511.62,174.3c0.62-2.53,0.04-5.32-1.82-7.42c-3.01-3.42-8.22-3.75-11.64-0.74
					c-2.1,1.85-3.03,4.54-2.74,7.13c0.19,1.61,0.84,3.19,2,4.5c3.01,3.42,8.22,3.75,11.64,0.74
					C510.38,177.36,511.23,175.88,511.62,174.3z"/>
			</g>
			<path class="st8" d="M509.8,166.88c-3.01-3.42-8.22-3.75-11.64-0.74c-1.24,1.09-2.07,2.46-2.48,3.94
				c-0.29,1.04-0.58,5.79-0.28,7.06c0.3,1.28,0.91,2.5,1.84,3.56c3.01,3.42,8.22,3.75,11.64,0.74c1.05-0.93,1.81-2.06,2.27-3.29
				c0.46-1.23,0.75-5.61,0.68-6.5C511.69,169.94,511.02,168.26,509.8,166.88z"/>
			<g>
				<path class="st8" d="M546.23,174.78c0.62-2.53,0.04-5.32-1.82-7.42c-3.01-3.42-8.22-3.75-11.64-0.74
					c-2.1,1.85-3.03,4.54-2.74,7.13c0.19,1.61,0.84,3.19,2,4.5c3.01,3.42,8.22,3.75,11.64,0.74
					C544.99,177.84,545.84,176.35,546.23,174.78z"/>
			</g>
			<path class="st8" d="M544.41,167.35c-3.01-3.42-8.22-3.75-11.64-0.74c-1.24,1.09-2.07,2.46-2.48,3.94
				c-0.29,1.04-0.58,5.79-0.28,7.06c0.3,1.28,0.91,2.5,1.84,3.56c3.01,3.42,8.22,3.75,11.64,0.74c1.05-0.93,1.81-2.06,2.27-3.29
				s0.75-5.61,0.68-6.5C546.3,170.41,545.63,168.74,544.41,167.35z"/>
			<g>
				<path class="st8" d="M528.38,203.55c0.59-2.54-0.03-5.32-1.92-7.4c-3.06-3.37-8.27-3.63-11.65-0.58
					c-2.08,1.88-2.97,4.58-2.64,7.17c0.21,1.61,0.89,3.18,2.06,4.48c3.06,3.38,8.27,3.63,11.65,0.58
					C527.18,206.63,528.01,205.13,528.38,203.55z"/>
			</g>
			<path class="st8" d="M526.45,195.93c-3.04-3.12-8.25-3.34-11.64-0.48c-1.22,1.03-2.04,2.33-2.44,3.7
				c-0.28,0.97-0.52,5.39-0.21,6.57c0.31,1.18,0.93,2.31,1.87,3.27c3.04,3.12,8.25,3.34,11.64,0.48c1.04-0.88,1.79-1.95,2.24-3.1
				s0.7-5.23,0.62-6.05C528.36,198.74,527.68,197.2,526.45,195.93z"/>
			<g>
				<path class="st8" d="M529.48,236.69c0.59-2.54-0.03-5.32-1.92-7.4c-3.06-3.37-8.27-3.63-11.65-0.58
					c-2.08,1.88-2.97,4.58-2.64,7.17c0.21,1.61,0.89,3.18,2.06,4.48c3.06,3.38,8.27,3.63,11.65,0.58
					C528.29,239.77,529.12,238.28,529.48,236.69z"/>
			</g>
			<path class="st8" d="M527.55,229.08c-3.04-3.12-8.25-3.34-11.64-0.48c-1.22,1.03-2.04,2.33-2.44,3.7
				c-0.28,0.97-0.52,5.39-0.21,6.57c0.31,1.18,0.93,2.31,1.87,3.27c3.04,3.12,8.25,3.34,11.64,0.48c1.04-0.88,1.79-1.95,2.24-3.1
				s0.7-5.23,0.62-6.05C529.47,231.89,528.78,230.34,527.55,229.08z"/>
			<g>
				<path class="st8" d="M546.42,219.02c0.59-2.54-0.03-5.32-1.92-7.4c-3.06-3.37-8.27-3.63-11.65-0.58
					c-2.08,1.88-2.97,4.58-2.64,7.17c0.21,1.61,0.89,3.18,2.06,4.48c3.06,3.38,8.27,3.63,11.65,0.58
					C545.23,222.09,546.06,220.6,546.42,219.02z"/>
			</g>
			<path class="st8" d="M544.49,211.4c-3.04-3.12-8.25-3.34-11.64-0.48c-1.22,1.03-2.04,2.33-2.44,3.7
				c-0.28,0.97-0.52,5.39-0.21,6.57c0.31,1.18,0.93,2.31,1.87,3.27c3.04,3.12,8.25,3.34,11.64,0.48c1.04-0.88,1.79-1.95,2.24-3.1
				s0.7-5.23,0.62-6.05C546.41,214.21,545.72,212.66,544.49,211.4z"/>
			<g>
				<path class="st8" d="M511.81,219.02c0.59-2.54-0.03-5.32-1.92-7.4c-3.06-3.37-8.27-3.63-11.65-0.58
					c-2.08,1.88-2.97,4.58-2.64,7.17c0.21,1.61,0.89,3.18,2.06,4.48c3.06,3.38,8.27,3.63,11.65,0.58
					C510.61,222.09,511.44,220.6,511.81,219.02z"/>
			</g>
			<path class="st8" d="M509.87,211.4c-3.04-3.12-8.25-3.34-11.64-0.48c-1.22,1.03-2.04,2.33-2.44,3.7
				c-0.28,0.97-0.52,5.39-0.21,6.57c0.31,1.18,0.93,2.31,1.87,3.27c3.04,3.12,8.25,3.34,11.64,0.48c1.04-0.88,1.79-1.95,2.24-3.1
				s0.7-5.23,0.62-6.05C511.79,214.21,511.11,212.66,509.87,211.4z"/>
			<g>
				<path class="st8" d="M410.49,209.89l-21.35-1.19c-1.65-0.09-2.92-1.51-2.83-3.16l-0.1,1.8c-0.09,1.65,1.18,3.07,2.83,3.16
					l21.35,1.19c1.65,0.09,3.07-1.18,3.16-2.83l0.1-1.8C413.56,208.71,412.13,209.99,410.49,209.89z"/>
				<path class="st8" d="M411.27,195.92l-21.35-1.19c-1.65-0.09-3.07,1.18-3.16,2.83l-0.1,1.8l-0.35,6.19
					c-0.09,1.65,1.18,3.07,2.83,3.16l21.35,1.19c1.65,0.09,3.07-1.18,3.16-2.83l0.35-6.19l0.1-1.8
					C414.19,197.43,412.91,196.01,411.27,195.92z"/>
			</g>
			<g>
				<path class="st8" d="M448.4,212.01l-21.35-1.19c-1.65-0.09-2.92-1.51-2.83-3.16l-0.1,1.8c-0.09,1.65,1.18,3.07,2.83,3.16
					l21.35,1.19c1.65,0.09,3.07-1.18,3.16-2.83l0.1-1.8C451.47,210.83,450.04,212.1,448.4,212.01z"/>
				<path class="st8" d="M449.18,198.04l-21.35-1.19c-1.65-0.09-3.07,1.18-3.16,2.83l-0.1,1.8l-0.35,6.19
					c-0.09,1.65,1.18,3.07,2.83,3.16l21.35,1.19c1.65,0.09,3.07-1.18,3.16-2.83l0.35-6.19l0.1-1.8
					C452.1,199.55,450.83,198.13,449.18,198.04z"/>
			</g>
			<g>
				<path class="st8" d="M486.31,214.13l-21.35-1.19c-1.65-0.09-2.92-1.51-2.83-3.16l-0.1,1.8c-0.09,1.65,1.18,3.07,2.83,3.16
					l21.35,1.19c1.65,0.09,3.07-1.18,3.16-2.83l0.1-1.8C489.38,212.95,487.96,214.22,486.31,214.13z"/>
				<path class="st8" d="M487.09,200.15l-21.35-1.19c-1.65-0.09-3.07,1.18-3.16,2.83l-0.1,1.8l-0.35,6.19
					c-0.09,1.65,1.18,3.07,2.83,3.16l21.35,1.19c1.65,0.09,3.07-1.18,3.16-2.83l0.35-6.19l0.1-1.8
					C490.01,201.67,488.74,200.25,487.09,200.15z"/>
			</g>
			<g>
				<path class="st8" d="M409.11,234.54l-21.35-1.19c-1.65-0.09-2.92-1.51-2.83-3.16l-0.1,1.8c-0.09,1.65,1.18,3.07,2.83,3.16
					l21.35,1.19c1.65,0.09,3.07-1.18,3.16-2.83l0.1-1.8C412.18,233.36,410.76,234.63,409.11,234.54z"/>
				<path class="st8" d="M409.89,220.56l-21.35-1.19c-1.65-0.09-3.07,1.18-3.16,2.83l-0.1,1.8l-0.35,6.19
					c-0.09,1.65,1.18,3.07,2.83,3.16l21.35,1.19c1.65,0.09,3.07-1.18,3.16-2.83l0.35-6.19l0.1-1.8
					C412.81,222.07,411.54,220.65,409.89,220.56z"/>
			</g>
			<g>
				<path class="st8" d="M447.02,236.65l-21.35-1.19c-1.65-0.09-2.92-1.51-2.83-3.16l-0.1,1.8c-0.09,1.65,1.18,3.07,2.83,3.16
					l21.35,1.19c1.65,0.09,3.07-1.18,3.16-2.83l0.1-1.8C450.09,235.47,448.67,236.75,447.02,236.65z"/>
				<path class="st8" d="M447.8,222.68l-21.35-1.19c-1.65-0.09-3.07,1.18-3.16,2.83l-0.1,1.8l-0.35,6.19
					c-0.09,1.65,1.18,3.07,2.83,3.16l21.35,1.19c1.65,0.09,3.07-1.18,3.16-2.83l0.35-6.19l0.1-1.8
					C450.72,224.19,449.45,222.77,447.8,222.68z"/>
			</g>
			<g>
				<path class="st8" d="M484.93,238.77l-21.35-1.19c-1.65-0.09-2.92-1.51-2.83-3.16l-0.1,1.8c-0.09,1.65,1.18,3.07,2.83,3.16
					l21.35,1.19c1.65,0.09,3.07-1.18,3.16-2.83l0.1-1.8C488,237.59,486.58,238.87,484.93,238.77z"/>
				<path class="st8" d="M485.71,224.8l-21.35-1.19c-1.65-0.09-3.07,1.18-3.16,2.83l-0.1,1.8l-0.35,6.19
					c-0.09,1.65,1.18,3.07,2.83,3.16l21.35,1.19c1.65,0.09,3.07-1.18,3.16-2.83l0.35-6.19l0.1-1.8
					C488.63,226.31,487.36,224.89,485.71,224.8z"/>
			</g>
			<g>
				<path class="st8" d="M407.73,259.18l-21.35-1.19c-1.65-0.09-2.92-1.51-2.83-3.16l-0.1,1.8c-0.09,1.65,1.18,3.07,2.83,3.16
					l21.35,1.19c1.65,0.09,3.07-1.18,3.16-2.83l0.1-1.8C410.8,258,409.38,259.27,407.73,259.18z"/>
				<path class="st8" d="M408.51,245.2l-21.35-1.19c-1.65-0.09-3.07,1.18-3.16,2.83l-0.1,1.8l-0.35,6.19
					c-0.09,1.65,1.18,3.07,2.83,3.16l21.35,1.19c1.65,0.09,3.07-1.18,3.16-2.83l0.35-6.19l0.1-1.8
					C411.43,246.72,410.16,245.29,408.51,245.2z"/>
			</g>
			<g>
				<path class="st8" d="M445.64,261.3l-21.35-1.19c-1.65-0.09-2.92-1.51-2.83-3.16l-0.1,1.8c-0.09,1.65,1.18,3.07,2.83,3.16
					l21.35,1.19c1.65,0.09,3.07-1.18,3.16-2.83l0.1-1.8C448.71,260.12,447.29,261.39,445.64,261.3z"/>
				<path class="st8" d="M446.42,247.32l-21.35-1.19c-1.65-0.09-3.07,1.18-3.16,2.83l-0.1,1.8l-0.35,6.19
					c-0.09,1.65,1.18,3.07,2.83,3.16l21.35,1.19c1.65,0.09,3.07-1.18,3.16-2.83l0.35-6.19l0.1-1.8
					C449.34,248.83,448.07,247.41,446.42,247.32z"/>
			</g>
			<g>
				<path class="st8" d="M483.56,263.42l-21.35-1.19c-1.65-0.09-2.92-1.51-2.83-3.16l-0.1,1.8c-0.09,1.65,1.18,3.07,2.83,3.16
					l21.35,1.19c1.65,0.09,3.07-1.18,3.16-2.83l0.1-1.8C486.62,262.24,485.2,263.51,483.56,263.42z"/>
				<path class="st8" d="M484.34,249.44l-21.35-1.19c-1.65-0.09-3.07,1.18-3.16,2.83l-0.1,1.8l-0.35,6.19
					c-0.09,1.65,1.18,3.07,2.83,3.16l21.35,1.19c1.65,0.09,3.07-1.18,3.16-2.83l0.35-6.19l0.1-1.8
					C487.26,250.95,485.98,249.53,484.34,249.44z"/>
			</g>
			<g>
				<path class="st8" d="M406.36,283.82L385,282.63c-1.65-0.09-2.92-1.51-2.83-3.16l-0.1,1.8c-0.09,1.65,1.18,3.07,2.83,3.16
					l21.35,1.19c1.65,0.09,3.07-1.18,3.16-2.83l0.1-1.8C409.42,282.64,408,283.91,406.36,283.82z"/>
				<path class="st8" d="M407.14,269.84l-21.35-1.19c-1.65-0.09-3.07,1.18-3.16,2.83l-0.1,1.8l-0.35,6.19
					c-0.09,1.65,1.18,3.07,2.83,3.16l21.35,1.19c1.65,0.09,3.07-1.18,3.16-2.83l0.35-6.19l0.1-1.8
					C410.06,271.36,408.78,269.94,407.14,269.84z"/>
			</g>
			<g>
				<path class="st8" d="M444.27,285.94l-21.35-1.19c-1.65-0.09-2.92-1.51-2.83-3.16l-0.1,1.8c-0.09,1.65,1.18,3.07,2.83,3.16
					l21.35,1.19c1.65,0.09,3.07-1.18,3.16-2.83l0.1-1.8C447.34,284.76,445.91,286.03,444.27,285.94z"/>
				<path class="st8" d="M445.05,271.96l-21.35-1.19c-1.65-0.09-3.07,1.18-3.16,2.83l-0.1,1.8l-0.35,6.19
					c-0.09,1.65,1.18,3.07,2.83,3.16l21.35,1.19c1.65,0.09,3.07-1.18,3.16-2.83l0.35-6.19l0.1-1.8
					C447.97,273.48,446.69,272.05,445.05,271.96z"/>
			</g>
			<g>
				<path class="st8" d="M482.18,288.06l-21.35-1.19c-1.65-0.09-2.92-1.51-2.83-3.16l-0.1,1.8c-0.09,1.65,1.18,3.07,2.83,3.16
					l21.35,1.19c1.65,0.09,3.07-1.18,3.16-2.83l0.1-1.8C485.25,286.88,483.82,288.15,482.18,288.06z"/>
				<path class="st8" d="M482.96,274.08l-21.35-1.19c-1.65-0.09-3.07,1.18-3.16,2.83l-0.1,1.8L458,283.7
					c-0.09,1.65,1.18,3.07,2.83,3.16l21.35,1.19c1.65,0.09,3.07-1.18,3.16-2.83l0.35-6.19l0.1-1.8
					C485.88,275.6,484.61,274.17,482.96,274.08z"/>
			</g>
			<g>
				<path class="st8" d="M404.98,308.46l-21.35-1.19c-1.65-0.09-2.92-1.51-2.83-3.16l-0.1,1.8c-0.09,1.65,1.18,3.07,2.83,3.16
					l21.35,1.19c1.65,0.09,3.07-1.18,3.16-2.83l0.1-1.8C408.05,307.28,406.62,308.56,404.98,308.46z"/>
				<path class="st8" d="M405.76,294.49l-21.35-1.19c-1.65-0.09-3.07,1.18-3.16,2.83l-0.1,1.8l-0.35,6.19
					c-0.09,1.65,1.18,3.07,2.83,3.16l21.35,1.19c1.65,0.09,3.07-1.18,3.16-2.83l0.35-6.19l0.1-1.8
					C408.68,296,407.41,294.58,405.76,294.49z"/>
			</g>
			<g>
				<path class="st8" d="M442.89,310.58l-21.35-1.19c-1.65-0.09-2.92-1.51-2.83-3.16l-0.1,1.8c-0.09,1.65,1.18,3.07,2.83,3.16
					l21.35,1.19c1.65,0.09,3.07-1.18,3.16-2.83l0.1-1.8C445.96,309.4,444.54,310.67,442.89,310.58z"/>
				<path class="st8" d="M443.67,296.61l-21.35-1.19c-1.65-0.09-3.07,1.18-3.16,2.83l-0.1,1.8l-0.35,6.19
					c-0.09,1.65,1.18,3.07,2.83,3.16l21.35,1.19c1.65,0.09,3.07-1.18,3.16-2.83l0.35-6.19l0.1-1.8
					C446.59,298.12,445.32,296.7,443.67,296.61z"/>
			</g>
			<g>
				<path class="st8" d="M480.8,312.7l-21.35-1.19c-1.65-0.09-2.92-1.51-2.83-3.16l-0.1,1.8c-0.09,1.65,1.18,3.07,2.83,3.16
					l21.35,1.19c1.65,0.09,3.07-1.18,3.16-2.83l0.1-1.8C483.87,311.52,482.45,312.79,480.8,312.7z"/>
				<path class="st8" d="M481.58,298.72l-21.35-1.19c-1.65-0.09-3.07,1.18-3.16,2.83l-0.1,1.8l-0.35,6.19
					c-0.09,1.65,1.18,3.07,2.83,3.16l21.35,1.19c1.65,0.09,3.07-1.18,3.16-2.83l0.35-6.19l0.1-1.8
					C484.5,300.24,483.23,298.82,481.58,298.72z"/>
			</g>
			<g>
				<path class="st8" d="M546.19,263.42l-21.35-1.19c-1.65-0.09-2.92-1.51-2.83-3.16l-0.1,1.8c-0.09,1.65,1.18,3.07,2.83,3.16
					l21.35,1.19c1.65,0.09,3.07-1.18,3.16-2.83l0.1-1.8C549.26,262.24,547.84,263.51,546.19,263.42z"/>
				<path class="st8" d="M546.97,249.44l-21.35-1.19c-1.65-0.09-3.07,1.18-3.16,2.83l-0.1,1.8l-0.35,6.19
					c-0.09,1.65,1.18,3.07,2.83,3.16l21.35,1.19c1.65,0.09,3.07-1.18,3.16-2.83l0.35-6.19l0.1-1.8
					C549.89,250.95,548.62,249.53,546.97,249.44z"/>
			</g>
			<g>
				<path class="st14" d="M460.39,352.9c2.68-0.86,9.49-2.66,14.35,0.96C469.62,349.92,463.07,352.05,460.39,352.9z"/>
				<path class="st14" d="M486.84,374.85c1.39,13.17-0.86,29.02-0.86,29.02s3.21,6.32,2.78,10.6c0,0,5.41-33.48,5.25-58.85
					l-10.06,9.15C485.32,367.37,486.39,370.62,486.84,374.85z"/>
				<path class="st8" d="M564.38,286.34c12.58-18.25,23.15-40.17,26.49-64.85c0.66-4.92,1.12-8.19-1.13-11.88
					c0,0,29.41-18.1,6.22-49.2c0,0,21.49-22.06,1.13-33.93c0,0-13.57-2.83-22.62,6.79c-2.21,2.35-4.31,4.79-6.24,7.15l0.14,6.21
					L564.38,286.34z"/>
				<path class="st8" d="M371.43,467.06l72.95-66.32c0.51-3.45,1.22-6.29,2.18-8.21c6.86-13.72,7.62-10.61,8.37-15.86
					c0.75-5.25,2.78-22.91,5.46-23.77c2.68-0.86,9.23-2.98,14.35,0.96c2.82,2.11,6.33,5.38,9.21,10.9l10.06-9.15
					c-0.02-2.75-0.1-5.4-0.26-7.91l-125.62-5.88c-9.44-0.44-16.49-8.83-15.32-18.2l21.37-170.67c0,0-3.64-26.13-16.54-33.08
					c-12.9-6.95-11.91,5.29-13.56,10.25c-1.65,4.96,0,22.16-7.28,28.45c-7.28,6.29-9.26,20.18-8.6,27.13
					c0.66,6.95-15.22,56.57-15.88,62.19c-0.66,5.62,4.3,16.87,7.94,29.11c3.64,12.24,12.98,50.47,8.97,55.65
					c-4.01,5.19-60.36,49.52-92.43,63.9c-32.07,14.38-122.38,62.25-129.69,70.5"/>
				<path class="st8" d="M368.13,341.82l125.62,5.88c-0.25-3.81-0.68-7.28-1.34-10.22c-5.14-22.7-1.18-35.44-2.68-40.37
					c-1.5-4.93-7.5-37.48,0.54-45.93c8.03-8.46,21.63-1.61,23.66,2.03c1.02,1.82,4.74,10.96,8.56,20.13
					c0.51-0.32,1.11-0.5,1.76-0.46l21.35,1.19c1.65,0.09,2.92,1.51,2.83,3.16l-0.1,1.8l-0.35,6.19l-0.1,1.8
					c-0.09,1.65-1.51,2.92-3.16,2.83l-15.52-0.87c1.05,2.29,1.89,3.98,2.4,4.7c0,0,1.12,1.86,2.08,4.44l10.54,0.59
					c1.65,0.09,2.92,1.51,2.83,3.16l-0.1,1.8l-0.35,6.19l-0.1,1.8c-0.09,1.65-1.51,2.92-3.16,2.83l-6.78-0.38
					c0.23,1.61,0.44,3.14,0.62,4.43c0.31,2.22,0.52,3.73,0.52,3.73s6.75-0.96,9.74-1.28c2-0.21,9.63,2.99,15.75,6.76l1.18-41.42
					l3.99-139.72l-0.14-6.21l-2.49-107.6c-0.16-7.24-6.04-13.04-13.28-13.11l-154.99-2.95c-7.58-0.07-13.71,6.17-13.52,13.75
					l-9.78,122.45l-21.37,170.67C351.64,333,358.7,341.38,368.13,341.82z"/>
				<path class="st8" d="M474.74,353.87c2.79,2.15,6.33,5.38,9.21,10.9C481.08,359.25,477.56,355.97,474.74,353.87z"/>
				<path class="st8" d="M547.88,287.03l0.1-1.8c-0.09,1.65-1.51,2.92-3.16,2.83l-16.45-0.92c0.29,0.65,0.57,1.27,0.83,1.85
					l15.52,0.87C546.36,289.95,547.78,288.68,547.88,287.03z"/>
				<path class="st8" d="M544.82,288.06c1.65,0.09,3.07-1.18,3.16-2.83l0.35-6.19l0.1-1.8c0.09-1.65-1.18-3.07-2.83-3.16
					l-21.35-1.19c-0.64-0.04-1.25,0.14-1.76,0.46c2.07,4.98,4.16,9.95,5.87,13.79L544.82,288.06z"/>
				<path class="st8" d="M546.5,311.67l0.1-1.8c-0.09,1.65-1.51,2.92-3.16,2.83l-7.14-0.4c0.09,0.61,0.17,1.22,0.26,1.82l6.78,0.38
					C544.99,314.59,546.41,313.32,546.5,311.67z"/>
				<path class="st8" d="M536.3,312.3l7.14,0.4c1.65,0.09,3.07-1.18,3.16-2.83l0.35-6.19l0.1-1.8c0.09-1.65-1.18-3.07-2.83-3.16
					l-10.54-0.59c0.46,1.25,0.89,2.66,1.13,4.12C535.14,304.23,535.74,308.33,536.3,312.3z"/>
				<path class="st8" d="M658.27,466.51c0,0,5.35-21.2,2.46-38.23c-2.89-17.02-19.49-29.23-21.84-30.84
					c-2.36-1.61-16.17-9.64-16.17-9.64c-1.07-2.89-16.6-19.92-25.06-25.7c-8.46-5.78-18.31-7.5-18.63-7.39
					c-0.32,0.11-4.5-15.74-8.67-21.2c-1.4-1.83-4.09-3.87-7.16-5.76c-6.12-3.77-13.75-6.98-15.75-6.76c-3,0.32-9.74,1.28-9.74,1.28
					s-0.21-1.51-0.52-3.73c-0.18-1.29-0.4-2.82-0.62-4.43c-0.08-0.6-0.17-1.21-0.26-1.82c-0.57-3.98-1.16-8.07-1.49-10.05
					c-0.24-1.46-0.67-2.88-1.13-4.12c-0.96-2.59-2.08-4.44-2.08-4.44c-0.51-0.72-1.35-2.41-2.4-4.7c-0.27-0.58-0.54-1.2-0.83-1.85
					c-1.71-3.84-3.8-8.81-5.87-13.79c-3.82-9.17-7.54-18.31-8.56-20.13c-2.03-3.64-15.63-10.49-23.66-2.03
					c-8.03,8.46-2.03,41.01-0.54,45.93c1.5,4.93-2.46,17.67,2.68,40.37c0.67,2.94,1.1,6.41,1.34,10.22
					c0.16,2.51,0.25,5.16,0.26,7.91c0.17,25.37-5.25,58.85-5.25,58.85c0.43-4.28-2.78-10.6-2.78-10.6s2.25-15.85,0.86-29.02
					c-0.45-4.23-1.52-7.48-2.89-10.09c-2.88-5.52-6.43-8.75-9.21-10.9c-4.85-3.63-11.67-1.82-14.35-0.96
					c-2.68,0.86-4.71,18.52-5.46,23.77c-0.75,5.25-1.51,2.13-8.37,15.86c-0.96,1.92-1.67,4.76-2.18,8.21
					c-3.13,21.23,1.26,65.9,1.26,65.9"/>
			</g>
			<path class="st8" d="M567.48,186.27c0,0,14.73-36.46,28.47-25.86"/>
			<path class="st8" d="M566.01,226.78c0,0,7.3-28.08,23.72-17.17"/>
			<path class="st8" d="M537.7,322.28c0,0,1.06,27.87,6.22,30.81"/>
			<path class="st8" d="M460.39,352.9c0,0,6.56,3.14,6.56,4.98c0,1.84-8.1,22.46-13.26,22.1"/>
			<line class="st8" x1="488.77" y1="414.47" x2="485.36" y2="427.85"/>
			<path class="st8" d="M513.93,253.22c0,0-2.05,5.23-6.47,5.23c-4.42,0-9.71,2.4-17.19-7.27"/>
		</g>
	</g>
</g>
</svg>
