<svg width="893" height="180" viewBox="0 0 893 180" fill="none" xmlns="http://www.w3.org/2000/svg">
<rect x="713.75" y="0.75" width="178.5" height="178.5" rx="30.75" stroke="#989A9C" stroke-width="1.5"/>
<rect x="0.75" y="0.75" width="178.5" height="178.5" stroke="#989A9C" stroke-width="1.5"/>
<rect x="470.75" y="0.75" width="178.5" height="178.5" rx="59.25" stroke="#989A9C" stroke-width="1.5"/>
<rect x="235.75" y="0.75" width="178.5" height="178.5" rx="89.25" stroke="#989A9C" stroke-width="1.5"/>
<path fill-rule="evenodd" clip-rule="evenodd" d="M738.5 90C738.5 54.3776 767.378 25.5 803 25.5V55.6002H803C784.001 55.6002 768.6 71.0015 768.6 90H738.5Z" fill="#80B690"/>
<path fill-rule="evenodd" clip-rule="evenodd" d="M803 154.5C767.378 154.5 738.5 125.622 738.5 90L768.6 90L768.6 90.0002C768.6 108.999 784.001 124.4 803 124.4C803 124.4 803 124.4 803 124.4L803 154.5Z" fill="#468FBA"/>
<path fill-rule="evenodd" clip-rule="evenodd" d="M867.5 90C867.5 125.622 838.622 154.5 803 154.5L803 124.4L803 124.4C821.999 124.4 837.4 108.999 837.4 90.0002C837.4 90.0001 837.4 90.0001 837.4 90L867.5 90Z" fill="#DF635C"/>
<path fill-rule="evenodd" clip-rule="evenodd" d="M803 25.5C838.622 25.5 867.5 54.3776 867.5 90L837.4 90C837.4 71.0015 821.999 55.6002 803 55.6002C803 55.6002 803 55.6002 803 55.6002L803 25.5Z" fill="#F4C55C"/>
<path fill-rule="evenodd" clip-rule="evenodd" d="M25.5 90C25.5 54.3776 54.3776 25.5 90 25.5V55.6002H89.9996C71.0011 55.6002 55.5997 71.0015 55.5996 90H25.5Z" fill="#80B690"/>
<path fill-rule="evenodd" clip-rule="evenodd" d="M90 154.5C54.3776 154.5 25.5 125.622 25.5 90L55.5996 90L55.5996 90.0002C55.5996 108.999 71.001 124.4 89.9996 124.4C89.9997 124.4 89.9999 124.4 90 124.4L90 154.5Z" fill="#468FBA"/>
<path fill-rule="evenodd" clip-rule="evenodd" d="M154.5 90C154.5 125.622 125.622 154.5 90 154.5L90 124.4L90.0004 124.4C108.999 124.4 124.4 108.999 124.4 90.0002C124.4 90.0001 124.4 90.0001 124.4 90L154.5 90Z" fill="#DF635C"/>
<path fill-rule="evenodd" clip-rule="evenodd" d="M90 25.5C125.622 25.5 154.5 54.3776 154.5 90L124.4 90C124.4 71.0015 108.999 55.6002 90.0004 55.6002C90.0003 55.6002 90.0001 55.6002 90 55.6002L90 25.5Z" fill="#F4C55C"/>
<path fill-rule="evenodd" clip-rule="evenodd" d="M495.5 90C495.5 54.3776 524.378 25.5 560 25.5V55.6002H560C541.001 55.6002 525.6 71.0015 525.6 90H495.5Z" fill="#80B690"/>
<path fill-rule="evenodd" clip-rule="evenodd" d="M560 154.5C524.378 154.5 495.5 125.622 495.5 90L525.6 90L525.6 90.0002C525.6 108.999 541.001 124.4 560 124.4C560 124.4 560 124.4 560 124.4L560 154.5Z" fill="#468FBA"/>
<path fill-rule="evenodd" clip-rule="evenodd" d="M624.5 90C624.5 125.622 595.622 154.5 560 154.5L560 124.4L560 124.4C578.999 124.4 594.4 108.999 594.4 90.0002C594.4 90.0001 594.4 90.0001 594.4 90L624.5 90Z" fill="#DF635C"/>
<path fill-rule="evenodd" clip-rule="evenodd" d="M560 25.5C595.622 25.5 624.5 54.3776 624.5 90L594.4 90C594.4 71.0015 578.999 55.6002 560 55.6002C560 55.6002 560 55.6002 560 55.6002L560 25.5Z" fill="#F4C55C"/>
<path fill-rule="evenodd" clip-rule="evenodd" d="M252.25 90.75C252.25 50.5713 284.821 18 325 18V51.9501H324.999C303.571 51.9501 286.199 69.3214 286.199 90.75H252.25Z" fill="#80B690"/>
<path fill-rule="evenodd" clip-rule="evenodd" d="M325 163.5C284.821 163.5 252.25 130.929 252.25 90.75L286.199 90.75L286.199 90.7502C286.199 112.179 303.571 129.55 324.999 129.55C324.999 129.55 325 129.55 325 129.55L325 163.5Z" fill="#468FBA"/>
<path fill-rule="evenodd" clip-rule="evenodd" d="M397.75 90.75C397.75 130.929 365.179 163.5 325 163.5L325 129.55L325.001 129.55C346.429 129.55 363.801 112.179 363.801 90.7502C363.801 90.7502 363.801 90.7501 363.801 90.75L397.75 90.75Z" fill="#DF635C"/>
<path fill-rule="evenodd" clip-rule="evenodd" d="M325 18C365.179 18 397.75 50.5713 397.75 90.75L363.801 90.75C363.801 69.3214 346.429 51.9501 325.001 51.9501C325.001 51.9501 325 51.9501 325 51.9501L325 18Z" fill="#F4C55C"/>
</svg>
