<svg width="226" height="226" viewBox="0 0 226 226" fill="none" xmlns="http://www.w3.org/2000/svg">
<path fill-rule="evenodd" clip-rule="evenodd" d="M0 113C0 50.5918 50.5918 0 113 0V52.7335H112.998C79.7136 52.7335 52.7313 79.7157 52.7312 113H0Z" fill="#80B690"/>
<path fill-rule="evenodd" clip-rule="evenodd" d="M113 226C50.5918 226 -2.21144e-06 175.408 -4.93939e-06 113L52.7312 113L52.7312 113C52.7312 146.285 79.7135 173.267 112.998 173.267C112.999 173.267 112.999 173.267 113 173.267L113 226Z" fill="#468FBA"/>
<path fill-rule="evenodd" clip-rule="evenodd" d="M226 113C226 175.408 175.408 226 113 226L113 173.267L113.002 173.267C146.286 173.267 173.269 146.285 173.269 113C173.269 113 173.269 113 173.269 113L226 113Z" fill="#DF635C"/>
<path fill-rule="evenodd" clip-rule="evenodd" d="M113 -4.93939e-06C175.408 -2.21144e-06 226 50.5918 226 113L173.269 113C173.269 79.7157 146.286 52.7335 113.002 52.7335C113.001 52.7335 113.001 52.7335 113 52.7335L113 -4.93939e-06Z" fill="#F4C55C"/>
</svg>
