<?xml version="1.0" encoding="utf-8"?>
<!-- Generator: Adobe Illustrator 24.0.3, SVG Export Plug-In . SVG Version: 6.00 Build 0)  -->
<svg version="1.1" xmlns="http://www.w3.org/2000/svg" xmlns:xlink="http://www.w3.org/1999/xlink" x="0px" y="0px"
	 viewBox="0 0 841.89 467.72" style="enable-background:new 0 0 841.89 467.72;" xml:space="preserve">
<style type="text/css">
	.st0{clip-path:url(#SVGID_2_);fill:#F4F4F5;}
	.st1{clip-path:url(#SVGID_2_);fill:none;stroke:#54575C;stroke-width:0.8133;stroke-miterlimit:10;}
	.st2{clip-path:url(#SVGID_2_);fill:#F5C65D;}
	.st3{clip-path:url(#SVGID_2_);}
	.st4{fill:#4890BA;}
	.st5{fill:none;stroke:#54575C;stroke-miterlimit:10;}
	.st6{fill:#FFFFFF;}
	.st7{fill:#54575C;}
	.st8{fill:#D06F52;}
	.st9{fill:#F4F4F5;}
	.st10{fill:#F6C9B6;}
	.st11{fill:#F5C65D;}
	.st12{fill:#E29A7B;}
	.st13{fill:#E0635D;}
	.st14{fill:#DB8B5F;}
	.st15{fill:#61A575;}
	.st16{fill:none;stroke:#54575C;stroke-linejoin:round;stroke-miterlimit:10;}
	.st17{fill:none;stroke:#54575C;stroke-width:0.8133;stroke-miterlimit:10;}
	.st18{fill:#DCEFFA;}
</style>
<g id="Layer_1">
</g>
<g id="Layer_2">
</g>
<g id="Layer_3">
	<g>
		<defs>
			<rect id="SVGID_1_" x="-0.86" y="-1.03" width="843.61" height="469.77"/>
		</defs>
		<clipPath id="SVGID_2_">
			<use xlink:href="#SVGID_1_"  style="overflow:visible;"/>
		</clipPath>
		<rect x="-74.09" y="-10.17" class="st0" width="943.47" height="501.29"/>
		<rect x="-86.45" y="360.18" class="st1" width="943.47" height="131.89"/>
		<polygon class="st2" points="855.47,389.55 790.92,389.55 790.92,12.17 476.92,12.17 476.92,389.55 -22.13,389.55 -22.13,-11.89 
			855.47,-11.89 		"/>
		<polygon class="st1" points="848.81,393.36 784.26,393.36 784.26,15.98 470.26,15.98 470.26,393.36 -28.79,393.36 -28.79,-8.08 
			848.81,-8.08 		"/>
		<g class="st3">
			<g>
				<path class="st4" d="M794.55,68.13c-113.42,24.1-220.8,22.47-334.22-1.63c0-24.63,0-29.91,0-54.53
					c113.42,24.1,220.8,25.73,334.22,1.63C794.56,38.22,794.56,43.5,794.55,68.13z"/>
			</g>
			<g>
				<path class="st5" d="M796.58,66.78c-113.42,24.1-220.8,22.47-334.22-1.63c0-24.63,0-29.91,0-54.53
					c113.42,24.1,220.8,25.73,334.22,1.63C796.58,36.87,796.58,42.15,796.58,66.78z"/>
			</g>
			<g>
				<g>
					<path class="st6" d="M485.55,38.19l-8.21,17.6l-1.64-0.24l-3.03-21.38l1.58,0.23l2.59,19.25l8.19-17.69l1.64,0.24l2.82,19.29
						l7.96-17.72l1.58,0.23l-8.98,19.64l-1.64-0.24L485.55,38.19z"/>
					<path class="st6" d="M501.4,38.22l9.37,1.16l-0.17,1.38l-7.87-0.97l-0.99,7.99l6.9,0.85l-0.17,1.38l-6.9-0.85l-1.04,8.43
						l8.2,1.01l-0.17,1.38l-9.69-1.2L501.4,38.22z"/>
					<path class="st6" d="M514.91,39.86l1.5,0.17l-2.11,19.21l8.21,0.9l-0.15,1.38l-9.71-1.07L514.91,39.86z"/>
					<path class="st6" d="M541.82,61.18c-0.62,0.54-3.3,2.28-7.08,1.93c-5.86-0.55-9.92-5.56-9.35-11.66
						c0.57-6.1,5.59-10.27,11.25-9.74c3.27,0.3,5.41,1.96,6.3,2.88l-0.66,1.31c-0.65-0.68-2.68-2.48-5.78-2.77
						c-4.8-0.45-9.06,3.14-9.56,8.47s2.82,9.63,7.92,10.1c3.57,0.33,5.93-1.41,6.57-1.88L541.82,61.18z"/>
					<path class="st6" d="M555.86,43.26c5.85,0.42,10.12,5.41,9.69,11.46c-0.43,6.08-5.4,10.39-11.25,9.97
						c-5.82-0.42-10.1-5.29-9.66-11.46C545.07,47.12,550.04,42.85,555.86,43.26z M554.43,63.28c4.99,0.36,9.17-3.29,9.55-8.67
						c0.38-5.31-3.23-9.58-8.22-9.94c-5.02-0.36-9.17,3.35-9.55,8.67C545.82,58.72,549.41,62.92,554.43,63.28z"/>
					<path class="st6" d="M578.69,62.15l8.99-16.7l1.89,0.09l-0.98,20.7l-1.45-0.07l0.87-18.48l-8.61,16.13l-1.6-0.08l-7.06-16.87
						l-0.87,18.48l-1.45-0.07l0.97-20.7l1.89,0.09L578.69,62.15z"/>
					<path class="st6" d="M594.09,45.64l9.44,0.25l-0.04,1.39l-7.93-0.21l-0.22,8.05l6.95,0.19l-0.04,1.39l-6.95-0.19L595.08,65
						l8.25,0.22l-0.04,1.39l-9.76-0.26L594.09,45.64z"/>
					<path class="st6" d="M619.31,47.46l-5.95-0.02l0-1.39l13.41,0.04l0,1.39l-5.95-0.02l-0.06,19.33l-1.51,0L619.31,47.46z"/>
					<path class="st6" d="M638.15,45.58c5.86-0.09,10.55,4.51,10.65,10.58c0.1,6.1-4.48,10.82-10.34,10.91
						c-5.83,0.09-10.52-4.39-10.62-10.58C627.74,50.37,632.32,45.67,638.15,45.58z M638.47,65.65c5-0.08,8.85-4.08,8.76-9.47
						c-0.08-5.33-4.06-9.26-9.06-9.18c-5.03,0.08-8.85,4.14-8.76,9.47C629.5,61.86,633.44,65.73,638.47,65.65z"/>
					<path class="st6" d="M663.58,46.6l-5.94,0.27l-0.06-1.39l13.39-0.61l0.06,1.39l-5.94,0.27l0.87,19.31l-1.51,0.07L663.58,46.6z"
						/>
					<path class="st6" d="M674.06,44.71l1.51-0.1l0.61,9.4l12.2-0.79l-0.61-9.4l1.51-0.1l1.34,20.68l-1.51,0.1l-0.64-9.87
						l-12.2,0.79l0.64,9.87l-1.51,0.1L674.06,44.71z"/>
					<path class="st6" d="M693.78,43.37l9.41-0.79l0.12,1.39l-7.9,0.67l0.68,8.02l6.93-0.58l0.12,1.39l-6.93,0.58l0.71,8.46
						l8.23-0.69l0.12,1.39l-9.73,0.82L693.78,43.37z"/>
					<path class="st6" d="M718.98,42.4l-5.91,0.65l-0.15-1.38l13.32-1.47l0.15,1.38l-5.91,0.65l2.11,19.21l-1.5,0.17L718.98,42.4z"
						/>
					<path class="st6" d="M729.36,39.81l9.36-1.19l0.18,1.38l-7.87,1l1.02,7.99l6.9-0.88l0.18,1.38l-6.9,0.88l1.07,8.43l8.19-1.04
						l0.18,1.38l-9.69,1.24L729.36,39.81z"/>
					<path class="st6" d="M746.89,50.9l-1.7,7.76l-1.52,0.22l4.83-21.65l1.46-0.22l10.86,19.34l-1.52,0.22l-3.86-6.94L746.89,50.9z
						 M749.48,38.82l-2.27,10.62l7.5-1.1L749.48,38.82z"/>
					<path class="st6" d="M772.96,50.63l5.13-18.26l1.87-0.33l3.57,20.4l-1.43,0.25l-3.19-18.22l-4.88,17.62l-1.57,0.28
						l-10.57-14.91l3.19,18.22l-1.43,0.25l-3.57-20.4l1.87-0.33L772.96,50.63z"/>
				</g>
			</g>
			<g>
				<g>
					<g>
						<polygon class="st6" points="486.97,56.83 484.3,38.9 476.63,55.33 474.25,54.99 471.08,32.57 473.7,32.95 476.11,50.88 
							483.74,34.41 486.11,34.75 488.74,52.71 496.15,36.21 498.77,36.59 489.35,57.18 						"/>
						<path class="st7" d="M471.67,33.16l1.58,0.23l2.59,19.25l8.19-17.69l1.64,0.24l2.82,19.29l7.96-17.72l1.58,0.23l-8.98,19.64
							l-1.64-0.24l-2.87-19.2l-8.21,17.6l-1.64-0.24L471.67,33.16 M470.49,31.98l0.19,1.32l3.03,21.38l0.11,0.74l0.74,0.11
							l1.64,0.24l0.74,0.11l0.31-0.67l6.8-14.59l2.38,15.92l0.11,0.74l0.74,0.11l1.64,0.24l0.74,0.11l0.31-0.68l8.98-19.64
							l0.56-1.21L498.18,36l-1.58-0.23l-0.75-0.11l-0.31,0.69l-6.55,14.59l-2.33-15.89l-0.11-0.74l-0.74-0.11l-1.64-0.24l-0.74-0.11
							l-0.31,0.68l-6.75,14.58l-2.13-15.86l-0.1-0.75l-0.75-0.11l-1.58-0.23L470.49,31.98L470.49,31.98z"/>
					</g>
					<g>
						<polygon class="st6" points="497.3,58.22 499.97,36.66 510.33,37.94 510.04,40.31 502.17,39.34 501.3,46.34 508.2,47.19 
							507.91,49.56 501.01,48.71 500.09,56.15 508.28,57.16 507.99,59.54 						"/>
						<path class="st7" d="M500.4,37.22l9.37,1.16l-0.17,1.38l-7.87-0.97l-0.99,7.99l6.9,0.85l-0.17,1.38l-6.9-0.85l-1.04,8.43
							l8.2,1.01l-0.17,1.38l-9.69-1.2L500.4,37.22 M499.53,36.1l-0.12,0.99l-2.54,20.56l-0.12,0.99l0.99,0.12l9.69,1.2l0.99,0.12
							l0.12-0.99l0.17-1.38l0.12-0.99l-0.99-0.12l-7.2-0.89l0.8-6.45l5.91,0.73l0.99,0.12l0.12-0.99l0.17-1.38l0.12-0.99l-0.99-0.12
							l-5.91-0.73l0.74-6.01l6.88,0.85l0.99,0.12l0.12-0.99l0.17-1.38l0.12-0.99l-0.99-0.12l-9.37-1.16L499.53,36.1L499.53,36.1z"/>
					</g>
					<g>
						<polygon class="st6" points="511.09,59.89 513.47,38.31 515.96,38.58 513.85,57.79 522.05,58.7 521.79,61.07 						"/>
						<path class="st7" d="M513.91,38.86l1.5,0.17l-2.11,19.21l8.21,0.9l-0.15,1.38l-9.71-1.07L513.91,38.86 M513.02,37.76
							l-0.11,0.99l-2.27,20.59l-0.11,0.99l0.99,0.11l9.71,1.07l0.99,0.11l0.11-0.99l0.15-1.38l0.11-0.99l-0.99-0.11l-7.21-0.79
							l2-18.21l0.11-0.99l-0.99-0.11l-1.5-0.17L513.02,37.76L513.02,37.76z"/>
					</g>
					<g>
						<path class="st6" d="M534.73,62.65c-0.34,0-0.69-0.02-1.04-0.05c-6.18-0.58-10.39-5.82-9.8-12.21
							c0.54-5.84,5.18-10.24,10.79-10.24c0.33,0,0.67,0.02,1.01,0.05c3.63,0.34,5.83,2.23,6.61,3.02l0.25,0.26l-1.14,2.26
							l-0.49-0.52c-0.51-0.54-2.43-2.33-5.46-2.61c-0.25-0.02-0.51-0.04-0.76-0.04c-4.35,0-7.82,3.39-8.25,8.06
							c-0.47,5.09,2.67,9.11,7.46,9.56c0.29,0.03,0.57,0.04,0.85,0.04c1.94,0,3.75-0.62,5.37-1.83l0.59-0.44l0.66,2.38l-0.24,0.21
							C540.31,61.28,537.9,62.65,534.73,62.65z"/>
						<path class="st7" d="M534.68,40.66c0.32,0,0.64,0.01,0.96,0.04c3.27,0.3,5.41,1.96,6.3,2.88l-0.66,1.31
							c-0.65-0.68-2.68-2.48-5.78-2.77c-0.27-0.03-0.54-0.04-0.81-0.04c-4.47,0-8.28,3.48-8.75,8.51c-0.5,5.33,2.82,9.63,7.92,10.1
							c0.31,0.03,0.61,0.04,0.89,0.04c3.07,0,5.09-1.49,5.67-1.93l0.38,1.37c-0.56,0.49-2.83,1.97-6.08,1.97
							c-0.32,0-0.66-0.01-1-0.05c-5.86-0.55-9.92-5.56-9.35-11.66C524.93,44.69,529.43,40.66,534.68,40.66 M534.68,39.66
							c-5.87,0-10.72,4.6-11.29,10.69c-0.62,6.67,3.79,12.15,10.25,12.75c0.36,0.03,0.73,0.05,1.09,0.05c3.32,0,5.86-1.45,6.74-2.22
							l0.47-0.41l-0.17-0.61l-0.38-1.37l-0.39-1.41L539.84,58c-1.54,1.15-3.25,1.73-5.08,1.73c-0.26,0-0.53-0.01-0.8-0.04
							c-2.18-0.2-4.09-1.21-5.36-2.85c-1.28-1.64-1.87-3.83-1.65-6.17c0.41-4.41,3.67-7.6,7.76-7.6c0.24,0,0.48,0.01,0.71,0.03
							c2.93,0.27,4.8,2.1,5.14,2.46l0.98,1.03l0.64-1.27l0.66-1.31l0.32-0.64l-0.5-0.51c-0.82-0.84-3.13-2.82-6.92-3.17
							C535.39,39.67,535.03,39.66,534.68,39.66L534.68,39.66z"/>
					</g>
					<g>
						<path class="st6" d="M554.08,64.23c-0.27,0-0.54-0.01-0.82-0.03c-6.23-0.44-10.58-5.6-10.12-12
							c0.43-5.97,5.13-10.46,10.94-10.46c0.27,0,0.54,0.01,0.81,0.03c2.97,0.21,5.65,1.56,7.54,3.79c1.9,2.24,2.82,5.15,2.61,8.2
							C564.62,59.73,559.9,64.23,554.08,64.23z M554.09,44.16c-4.52,0-8.04,3.46-8.39,8.23c-0.18,2.46,0.52,4.76,1.97,6.49
							c1.43,1.71,3.49,2.74,5.79,2.91c0.21,0.02,0.42,0.02,0.63,0.02c4.52,0,8.04-3.46,8.38-8.23c0.36-5.02-2.98-9.06-7.76-9.4
							C554.51,44.16,554.3,44.16,554.09,44.16z"/>
						<path class="st7" d="M554.08,42.24c0.26,0,0.52,0.01,0.78,0.03c5.85,0.42,10.12,5.41,9.69,11.46c-0.41,5.81-4.96,10-10.47,10
							c-0.26,0-0.52-0.01-0.78-0.03c-5.82-0.42-10.1-5.29-9.66-11.46C544.06,46.4,548.6,42.24,554.08,42.24 M554.1,62.31
							c4.69,0,8.52-3.56,8.88-8.69c0.38-5.31-3.23-9.58-8.22-9.94c-0.22-0.02-0.45-0.02-0.67-0.02c-4.72,0-8.52,3.61-8.88,8.69
							c-0.38,5.37,3.2,9.58,8.22,9.94C553.65,62.3,553.87,62.31,554.1,62.31 M554.08,41.24L554.08,41.24
							c-6.08,0-10.99,4.7-11.44,10.93c-0.48,6.68,4.07,12.07,10.58,12.53c0.29,0.02,0.57,0.03,0.85,0.03
							c6.09,0,11.02-4.7,11.46-10.93c0.23-3.18-0.74-6.22-2.72-8.56c-1.98-2.34-4.79-3.75-7.89-3.97
							C554.64,41.25,554.36,41.24,554.08,41.24L554.08,41.24z M554.1,61.31c-0.2,0-0.4-0.01-0.6-0.02c-2.17-0.15-4.1-1.12-5.44-2.73
							c-1.36-1.63-2.02-3.81-1.86-6.14c0.32-4.5,3.64-7.76,7.89-7.76c0.2,0,0.4,0.01,0.6,0.02c4.5,0.32,7.64,4.13,7.3,8.87
							C561.66,58.04,558.34,61.31,554.1,61.31L554.1,61.31z"/>
					</g>
					<g>
						<polygon class="st6" points="585.63,65.63 586.42,48.87 578.7,63.32 576.48,63.22 570.15,48.11 569.36,64.87 566.92,64.75 
							567.94,43.06 570.64,43.19 577.75,59.99 586.39,43.93 589.1,44.06 588.08,65.75 						"/>
						<path class="st7" d="M568.41,43.58l1.89,0.09l7.38,17.47l8.99-16.7l1.89,0.09l-0.98,20.7l-1.45-0.07l0.87-18.48l-8.61,16.13
							l-1.6-0.08l-7.06-16.87l-0.87,18.48l-1.45-0.07L568.41,43.58 M567.46,42.54l-0.05,1l-0.97,20.7l-0.05,1l1,0.05l1.45,0.07
							l1,0.05l0.05-1l0.66-14.05l5.34,12.77l0.24,0.58l0.63,0.03l1.6,0.08l0.63,0.03l0.3-0.56l6.52-12.21l-0.66,14.05l-0.05,1
							l1,0.05l1.45,0.07l1,0.05l0.05-1l0.98-20.7l0.05-1l-1-0.05l-1.89-0.09l-0.63-0.03l-0.3,0.55l-8.01,14.87l-6.57-15.55
							l-0.25-0.58l-0.63-0.03l-1.89-0.09L567.46,42.54L567.46,42.54z"/>
					</g>
					<g>
						<polygon class="st6" points="592.03,65.83 592.6,44.12 603.04,44.4 602.98,46.79 595.05,46.58 594.86,53.63 601.81,53.81 
							601.75,56.2 594.8,56.02 594.6,63.51 602.85,63.73 602.79,66.12 						"/>
						<path class="st7" d="M593.09,44.64l9.44,0.25l-0.04,1.39l-7.93-0.21l-0.22,8.05l6.95,0.19l-0.04,1.39l-6.95-0.19L594.08,64
							l8.25,0.22l-0.04,1.39l-9.76-0.26L593.09,44.64 M592.12,43.61l-0.03,1l-0.55,20.71l-0.03,1l1,0.03l9.76,0.26l1,0.03l0.03-1
							l0.04-1.39l0.03-1l-1-0.03l-7.25-0.19l0.17-6.49l5.95,0.16l1,0.03l0.03-1l0.04-1.39l0.03-1l-1-0.03l-5.95-0.16l0.16-6.05
							l6.93,0.19l1,0.03l0.03-1l0.04-1.39l0.03-1l-1-0.03l-9.44-0.25L592.12,43.61L592.12,43.61z"/>
					</g>
					<g>
						<polygon class="st6" points="617.75,66.29 617.81,46.96 611.86,46.94 611.87,44.55 626.28,44.6 626.27,46.99 620.32,46.97 
							620.26,66.3 						"/>
						<path class="st7" d="M612.37,45.05l13.41,0.04l0,1.39l-5.95-0.02l-0.06,19.33l-1.51,0l0.06-19.33l-5.95-0.02L612.37,45.05
							 M611.37,44.05l0,1l0,1.39l0,1l1,0l4.95,0.02l-0.06,18.33l0,1l1,0l1.51,0l1,0l0-1l0.06-18.33l4.95,0.02l1,0l0-1l0-1.39l0-1
							l-1,0l-13.41-0.04L611.37,44.05L611.37,44.05z"/>
					</g>
					<g>
						<path class="st6" d="M637.29,66.57c-6.14,0-10.84-4.76-10.94-11.07c-0.05-3.08,1.04-5.95,3.07-8.07
							c2.01-2.11,4.76-3.3,7.73-3.35l0.18,0c6.06,0,10.88,4.86,10.97,11.07c0.05,3.07-1.04,5.93-3.07,8.06
							c-2.02,2.12-4.78,3.31-7.76,3.36L637.29,66.57z M637.18,46.5c-4.79,0.08-8.35,3.93-8.27,8.96c0.08,4.96,3.69,8.69,8.41,8.69
							l0.15,0c2.3-0.04,4.41-0.95,5.93-2.58c1.55-1.65,2.38-3.92,2.34-6.37c-0.08-4.96-3.69-8.69-8.41-8.69L637.18,46.5z"/>
						<path class="st7" d="M637.32,44.58c5.78,0,10.38,4.57,10.48,10.58c0.1,6.1-4.48,10.82-10.34,10.91c-0.06,0-0.12,0-0.18,0
							c-5.75,0-10.35-4.46-10.44-10.58c-0.1-6.13,4.48-10.82,10.31-10.91C637.21,44.58,637.27,44.58,637.32,44.58 M637.32,64.65
							c0.05,0,0.1,0,0.15,0c5-0.08,8.85-4.08,8.76-9.47c-0.08-5.28-3.98-9.18-8.91-9.18c-0.05,0-0.1,0-0.15,0
							c-5.03,0.08-8.85,4.14-8.76,9.47C628.5,60.8,632.36,64.65,637.32,64.65 M637.33,43.58L637.33,43.58l-0.19,0
							c-3.11,0.05-5.98,1.29-8.09,3.5c-2.12,2.22-3.26,5.21-3.21,8.42c0.1,6.59,5.02,11.56,11.44,11.56l0.19,0
							c3.12-0.05,6-1.3,8.11-3.51c2.12-2.22,3.26-5.21,3.21-8.41C648.7,48.66,643.66,43.58,637.33,43.58L637.33,43.58z
							 M637.32,63.65c-4.5,0-7.83-3.45-7.91-8.2c-0.08-4.75,3.27-8.38,7.78-8.45l0.13,0c4.44,0,7.84,3.53,7.91,8.2
							c0.04,2.33-0.74,4.47-2.2,6.02c-1.43,1.53-3.41,2.39-5.57,2.43L637.32,63.65L637.32,63.65z"/>
					</g>
					<g>
						<polygon class="st6" points="662.1,46.13 656.16,46.39 656.05,44.01 670.44,43.36 670.55,45.74 664.61,46.01 665.48,65.32 
							662.98,65.43 						"/>
						<path class="st7" d="M669.97,43.88l0.06,1.39l-5.94,0.27l0.87,19.31l-1.51,0.07l-0.87-19.31l-5.94,0.27l-0.06-1.39
							L669.97,43.88 M670.92,42.83l-1,0.05l-13.39,0.61l-1,0.05l0.05,1l0.06,1.39l0.04,1l1-0.05l4.94-0.22l0.83,18.31l0.05,1l1-0.05
							l1.51-0.07l1-0.05l-0.05-1l-0.83-18.31l4.94-0.22l1-0.05l-0.05-1l-0.06-1.39L670.92,42.83L670.92,42.83z"/>
					</g>
					<g>
						<polygon class="st6" points="672.53,43.24 675.03,43.08 675.65,52.48 686.85,51.75 686.24,42.35 688.74,42.19 690.15,63.87 
							687.65,64.03 687.01,54.17 675.8,54.89 676.44,64.76 673.94,64.92 						"/>
						<path class="st7" d="M688.28,42.72l1.34,20.68l-1.51,0.1l-0.64-9.87l-12.2,0.79l0.64,9.87l-1.51,0.1l-1.34-20.68l1.51-0.1
							l0.61,9.4l12.2-0.79l-0.61-9.4L688.28,42.72 M689.21,41.66l-1,0.06l-1.51,0.1l-1,0.06l0.06,1l0.55,8.4l-10.21,0.66l-0.55-8.4
							l-0.06-1l-1,0.06l-1.51,0.1l-1,0.06l0.06,1l1.34,20.68l0.06,1l1-0.07l1.51-0.1l1-0.06l-0.06-1l-0.58-8.87l10.21-0.66
							l0.58,8.87l0.06,1l1-0.06l1.51-0.1l1-0.06l-0.06-1l-1.34-20.68L689.21,41.66L689.21,41.66z"/>
					</g>
					<g>
						<polygon class="st6" points="692.24,41.92 702.65,41.04 702.85,43.42 694.95,44.09 695.54,51.11 702.47,50.53 702.67,52.91 
							695.74,53.49 696.37,60.96 704.59,60.27 704.79,62.65 694.07,63.55 						"/>
						<path class="st7" d="M702.19,41.58l0.12,1.39l-7.9,0.67l0.68,8.02l6.93-0.58l0.12,1.39l-6.93,0.58l0.71,8.46l8.23-0.69
							l0.12,1.39l-9.73,0.82l-1.74-20.64L702.19,41.58 M703.1,40.5l-1,0.08l-9.41,0.79l-1,0.08l0.08,1l1.74,20.64l0.08,1l1-0.08
							l9.73-0.82l1-0.08l-0.08-1l-0.12-1.39l-0.08-1l-1,0.08l-7.23,0.61l-0.55-6.47l5.93-0.5l1-0.08l-0.08-1l-0.12-1.39l-0.08-1
							l-1,0.08l-5.93,0.5l-0.51-6.03l6.91-0.58l1-0.08l-0.08-1l-0.12-1.39L703.1,40.5L703.1,40.5z"/>
					</g>
					<g>
						<polygon class="st6" points="717.54,41.95 711.63,42.6 711.37,40.22 725.69,38.65 725.95,41.02 720.04,41.67 722.15,60.88 
							719.66,61.16 						"/>
						<path class="st7" d="M725.24,39.2l0.15,1.38l-5.91,0.65l2.11,19.21l-1.5,0.17l-2.11-19.21l-5.91,0.65l-0.15-1.38L725.24,39.2
							 M726.13,38.09l-0.99,0.11l-13.32,1.47l-0.99,0.11l0.11,0.99l0.15,1.38l0.11,0.99l0.99-0.11l4.92-0.54l2,18.21l0.11,0.99
							l0.99-0.11l1.5-0.17l0.99-0.11l-0.11-0.99l-2-18.21l4.92-0.54l0.99-0.11l-0.11-0.99l-0.15-1.38L726.13,38.09L726.13,38.09z"/>
					</g>
					<g>
						<polygon class="st6" points="727.8,38.38 738.16,37.06 738.46,39.43 730.6,40.43 731.49,47.42 738.39,46.54 738.69,48.92 
							731.79,49.8 732.74,57.23 740.93,56.18 741.23,58.56 730.55,59.92 						"/>
						<path class="st7" d="M737.73,37.61l0.18,1.38l-7.87,1l1.02,7.99l6.9-0.88l0.18,1.38l-6.9,0.88l1.07,8.43l8.19-1.04l0.18,1.38
							l-9.69,1.24l-2.62-20.55L737.73,37.61 M738.59,36.5l-0.99,0.13l-9.36,1.19l-0.99,0.13l0.13,0.99l2.62,20.55l0.13,0.99
							l0.99-0.13l9.69-1.24l0.99-0.13L741.67,58l-0.18-1.38l-0.13-0.99l-0.99,0.13l-7.2,0.92l-0.82-6.44l5.91-0.75l0.99-0.13
							l-0.13-0.99l-0.18-1.38l-0.13-0.99l-0.99,0.13l-5.91,0.75l-0.77-6l6.88-0.88l0.99-0.13l-0.13-0.99l-0.18-1.38L738.59,36.5
							L738.59,36.5z"/>
					</g>
					<g>
						<path class="st6" d="M747.09,35.79l2.14-0.32l11.39,20.28l-2.58,0.38l-3.86-6.94l-7.87,1.16l-1.7,7.76l-2.58,0.38
							L747.09,35.79z M746.85,47.85l6.07-0.89l-4.24-7.71L746.85,47.85z"/>
						<path class="st7" d="M748.96,36.02l10.86,19.34l-1.52,0.22l-3.86-6.94l-8.55,1.26l-1.7,7.76l-1.52,0.22l4.83-21.65
							L748.96,36.02 M746.21,48.45l7.5-1.1l-5.23-9.52L746.21,48.45 M749.5,34.93l-0.68,0.1l-1.46,0.22l-0.68,0.1l-0.15,0.67
							l-4.83,21.65l-0.32,1.42l1.44-0.21l1.52-0.22l0.68-0.1l0.15-0.67l1.55-7.08l7.18-1.06l3.53,6.34l0.34,0.6l0.68-0.1l1.52-0.22
							l1.44-0.21l-0.71-1.27l-10.86-19.34L749.5,34.93L749.5,34.93z M747.49,47.25l1.4-6.59l3.24,5.9L747.49,47.25L747.49,47.25z"/>
					</g>
					<g>
						<polygon class="st6" points="758.49,34.11 761.16,33.65 771.76,48.49 776.69,30.93 779.36,30.46 783.1,51.85 780.69,52.28 
							777.8,35.75 773.42,51.53 771.23,51.92 761.76,38.56 764.65,55.08 762.24,55.5 						"/>
						<path class="st7" d="M778.95,31.04l3.57,20.4l-1.43,0.25l-3.19-18.22l-4.88,17.62l-1.57,0.28l-10.57-14.91l3.19,18.22
							l-1.43,0.25l-3.57-20.4l1.87-0.33l11.02,15.44l5.13-18.26L778.95,31.04 M779.76,29.89l-0.98,0.17l-1.87,0.33l-0.62,0.11
							l-0.17,0.61l-4.56,16.25l-9.81-13.74l-0.37-0.51l-0.62,0.11l-1.87,0.33l-0.99,0.17l0.17,0.99l3.57,20.4l0.17,0.99l0.99-0.17
							l1.43-0.25l0.99-0.17l-0.17-0.99l-2.42-13.85l8.01,11.29l0.37,0.52l0.62-0.11l1.57-0.28l0.62-0.11l0.17-0.61l3.69-13.34
							l2.42,13.85l0.17,0.99l0.99-0.17l1.43-0.25l0.99-0.17l-0.17-0.99l-3.57-20.4L779.76,29.89L779.76,29.89z"/>
					</g>
				</g>
			</g>
		</g>
		<g class="st3">
			<g>
				<path class="st6" d="M670.31,346.05c-0.66,14.26,5.14,33.25,9.02,47.83c4.85-2.14,10.58-5.45,14.05-10.15
					c6.92-9.36-1.02-31.34-1.42-35c-0.41-3.66-10.79-45.18-12.21-53.93c-0.95-5.86-7.37-22.64-11.51-33.11
					C674.02,291.94,670.91,333.31,670.31,346.05z"/>
				<path class="st6" d="M550.72,82.46c0,0-4.35-2.84-5.68-5.11c-1.32-2.27-4.92-6.43-8.52-6.81c-3.6-0.38-7.38,0.95-11.16-1.14
					c-3.78-2.08-10.41-11.16-24.41-8.52c-14,2.65-27.25,10.03-27.44,12.68c-0.19,2.65-5.92,7.59-2.89,11.75s5.03,4.12,5.45,5.21
					c0.2,0.53,0.62,0.9,1.42,1.02c2.46,0.38,7-0.76,9.08,1.32c2.08,2.08,2.46,1.89,5.3,0.57c2.84-1.32,3.6-1.89,6.24-0.38
					c2.65,1.51,6.62-0.57,8.89,0s6.24,3.6,6.06,7.38c-0.19,3.78-2.46,10.03,0.57,11.16s7,0,8.33,1.51c1.32,1.51,2.27,5.68,2.84,3.78
					s1.7-8.14,3.41-6.24c1.7,1.89,0,3.41,3.03,2.65c1.36-0.34,3.17-2.08,5.3-2.27c2.6-0.23,5.5,1.21,6.43,2.46
					c0.94,1.26,2.29,2.45,3.3,3.27c0.21-0.22,0.41-0.45,0.62-0.67c0.51-0.55,1.04-1.1,1.56-1.65c0.39-0.41,0.7-0.8,0.98-1.16
					c1.47-3.68,3.4-8.39,3.75-9.44C553.75,102.14,560.75,86.81,550.72,82.46z"/>
				<path class="st6" d="M542.59,123.15c0.27-2.33,1.84-4.36,3.68-6.38c-1.02-0.82-2.36-2.02-3.3-3.27
					c-0.94-1.25-3.83-2.69-6.43-2.46c-2.13,0.19-3.94,1.93-5.3,2.27c-3.03,0.76-1.32-0.76-3.03-2.65c-1.7-1.89-2.84,4.35-3.41,6.24
					s-1.51-2.27-2.84-3.78c-1.32-1.51-5.3-0.38-8.33-1.51s-0.76-7.38-0.57-11.16c0.19-3.78-3.78-6.81-6.06-7.38s-6.24,1.51-8.89,0
					c-2.65-1.51-3.41-0.95-6.24,0.38c-2.84,1.32-3.22,1.51-5.3-0.57c-2.08-2.08-6.62-0.95-9.08-1.32c-0.8-0.12-1.22-0.49-1.42-1.02
					c-1.92,3.39-4.63,8.97-4.26,12.94c0.57,6.06,4.54,24.22,4.54,24.22s-8.14,8.52-7.38,12.11c0.57,2.72,5.38,1.33,7,0.95
					c0,0,2.84,3.6,2.27,8.33s-1.89,13.62,1.14,16.27c2.4,2.1,3.37,4.07,9.95,3.21c1.74-0.23,3.86-0.65,6.51-1.32
					c0,0,4.35,18.54,4.73,19.49c0.21,0.52,6.37,0.1,14.95-5.87c6.92-4.81,15.55-13.98,22.9-23.28l0.95-0.29
					c-0.14-1.27-0.54-5.53-0.66-6.69c-0.1-0.98-0.19-1.9-0.26-2.73c-0.2-2.57,0.62-4.3,1.54-5.44c-0.13-1.04,0.02-2.03,0.51-2.83
					c1.51-2.46-4.16-3.97-1.51-8.89C541.64,125.8,542.21,126.36,542.59,123.15z"/>
				<path class="st6" d="M539.73,167.02c0.43-2.85,0.16-4.98-0.36-9.73l-0.95,0.29c-7.35,9.29-15.98,18.47-22.9,23.28
					c-8.58,5.96-14.74,6.39-14.95,5.87c-0.38-0.95-4.73-19.49-4.73-19.49c-2.65,0.67-4.77,1.09-6.51,1.32
					c-1.31,1.9-3.07,4.55-4.84,7.53c-4.16,7.01-8.36,15.83-6.82,20.86c0,0,10.6-10.35,8.94-7.98c-1.67,2.39,0.52,5.33,0.52,5.33
					s8.33,15.9,34.63-1.89l6.06,9.65c0,0,3.94-7.32,8.16-13.03c1.28-1.73,2.59-3.32,3.81-4.5c-0.99-1.69-1.83-3.1-2.41-4.09
					C534.41,175.33,539.1,171.28,539.73,167.02z"/>
				<path class="st6" d="M548.56,243.27c9.67,5.19,19.6,20.25,25.66,30.74c2.2,3.81,3.89,7.02,4.86,8.93
					c0.63,1.22,0.9,2.59,0.82,3.96l-4.34,66.72c0,0,5.04,46.42-17.29,66.46c-1.62,1.46-3.39,2.77-5.32,3.92l0.04,0.12
					c0,0,0.56,17.34,3.36,28.81c0.82,3.37,0.09,9.96-1.28,15.79h144.87c0.53-4.27,0.75-10.91-1.2-18.3
					c-4.24-16.07-15.23-35.8-16.46-43.71c-0.55-3.55-1.64-7.94-2.94-12.82c-3.88-14.58-9.68-33.57-9.02-47.83
					c0.59-12.74,3.71-54.11-2.08-84.36c-2.86-14.94-7.9-27.16-16.48-31.87c-6.62-3.64-11.01-6.52-13.14-7.98
					c-1.02-0.7-2.19-1.13-3.42-1.25c0,0-1.69-0.23-4.14-0.53c-4.94-0.6-12.96-1.49-16.41-1.38c-6.21,0.21-18.04,2.96-26.25,5.05
					c-5.16,1.31-8.9,2.37-8.9,2.37l-4.68-0.39l-0.01,0c0,0-2.93,4.69-10.16,7.03s-10.35,3.52-14.84,4.3
					c-3.84,0.67-8.39,3.05-9.75,5.44C542.75,241.63,545.79,241.78,548.56,243.27z"/>
				<path class="st6" d="M498.83,417.73c-1.22-0.62-2.03-1.02-2.03-1.02S497.54,417.18,498.83,417.73z"/>
				<path class="st6" d="M525.85,300.2c-3.08,6.15-14.27,22.94-11.19,36.09c1.46,6.23,6,14.6,10.37,21.68
					c0.72,1.17,1.44,2.3,2.14,3.39l0.07-3.49l0.69-34.36l0.2-25.44c0.1-1.95,0.21-3.91,0.32-5.87
					C527.39,296.06,526.47,298.96,525.85,300.2z"/>
				<path class="st6" d="M508.61,386.34c0.5-0.01,0.98-0.01,1.43,0.01c5.06,0.16,7.31,1.66,7.31,1.66l9.36-4.07l0.32-15.63
					c-6.46,0.51-16.96,8.14-22.77,12.76C506.46,382.21,507.81,384.44,508.61,386.34z"/>
				<path class="st6" d="M579.89,286.9c0.09-1.37-0.19-2.74-0.82-3.96c-0.98-1.91-2.66-5.12-4.86-8.93
					c-6.05-10.49-15.99-25.56-25.66-30.74c-2.77-1.48-5.8-1.63-8.5-0.78c-3.74,1.18-6.83,4.3-7.65,8.56
					c-1.54,8.07-2.97,24.39-3.95,41.14c-0.11,1.96-0.22,3.92-0.32,5.87l-0.2,25.44l-0.69,34.36l-0.07,3.49l-0.14,6.96l-0.32,15.63
					l-9.36,4.07c0,0-2.24-1.49-7.31-1.66c-0.45-0.01-0.94-0.01-1.43-0.01c-0.8-1.9-2.15-4.13-4.35-5.28
					c-1.29-0.67-2.88-0.97-4.82-0.59c-8.34,1.63-4.27,7.94-6.72,9.97s-5.9,3.26-5.09,8.75c0.1,0.67,0.18,1.23,0.25,1.72
					c0.5,3.51,0.26,2.82-0.46,6.22c-0.81,3.87-0.41,10.38,2.24,12.62c2.65,2.24,16.28,7.94,18.72,7.53
					c2.44-0.41,3.46-2.24,1.42-3.66c-1.48-1.04-7.72-4.23-10.99-5.89c-1.29-0.55-2.03-1.02-2.03-1.02s0.81,0.41,2.03,1.02
					c3.27,1.39,10.06,3.25,17.11-1.08c0.94,0.78,1.88,1.61,2.84,2.5c13.84,12.82,25.44,8.55,25.44,8.55
					c3.22-0.87,6.12-2.13,8.73-3.7c1.92-1.15,3.69-2.47,5.32-3.92c22.33-20.04,17.29-66.46,17.29-66.46L579.89,286.9z"/>
				<path class="st6" d="M367.5,351.74c1.51,4.51,2.39,10.05,2.39,10.05c4.72,2.88,4.2,12.06,5.51,17.83
					c0.84,3.69,0.06,5.77-2.05,8.1c0.79-0.44,1.53-0.91,2.1-1.38c2.11-1.76,15.13-30.26,19-35.54c0.35-0.48,0.71-0.9,1.07-1.29
					c2.28-2.48,4.56-3.28,4.56-3.28s0.7-6.69-4.93-12.67s-8.87-4.91-8.87-4.91l-2.74,7.38C379.52,343.13,372,348.79,367.5,351.74z"
					/>
				<path class="st6" d="M378.17,197.12c0,0,4.93,10.72-2.65,26.48c0.2,1.21,0.38,2.69,0.54,4.41c6.3,1.95,12.94,0.53,18.03-1.41
					c0,0,0,0,0,0c1.35-5.63,10.76-16.72,17.37-23.99c2.4-11,7.8-34.12,7.8-34.12s0.93,4.09,3.16,2.05
					c2.23-2.05,5.21-13.39,2.98-15.25c-2.53-2.11-4.46,1.49-4.46,1.49s-0.42-18.71-3.72-20.08c-4.46-1.86-5.58-5.58-10.78-6.69
					c-5.21-1.12-18.41-6.32-19.9-7.81s-23.06,1.3-24.92,26.59l-0.93,2.42c0,0-0.11-0.1-0.25-0.16c-0.39-0.15-1.05,0.1-0.5,4.06
					c0.74,5.39-1.3,14.5,0.19,15.25c0.42,0.21,0.93,1.45,1.75,3.4C363.99,178.71,368.15,188.3,378.17,197.12z"/>
				<path class="st6" d="M376.07,228c0.09,0.93,0.17,1.96,0.26,3.02c2.57,5.02,3.89,10.3,4.08,12.4c0.14,1.54,2.5,4.33,5.39,7.2
					c1.27-3.68,2.55-7.22,3.72-10.45c0.75-2.08,1.46-4.02,2.09-5.8c1.16-3.28,2.07-5.98,2.5-7.77
					C389.01,228.52,382.37,229.95,376.07,228z"/>
				<path class="st6" d="M440.46,199.63c-2.62,0.04-5.46-0.17-8.35-0.85c-10.56-2.46-14.08-3.17-14.08-3.17s-2.84,2.89-6.56,6.98
					c-6.61,7.27-16.02,18.36-17.37,23.99c0,0,0,0,0,0c-0.43,1.79-1.33,4.49-2.5,7.77c-0.63,1.78-1.33,3.72-2.09,5.8
					c-1.17,3.23-2.45,6.78-3.72,10.45c4.77,4.74,10.97,9.72,10.97,9.72c-0.19,12.46-12.46,18.04-12.46,18.04s-1.83-4.46-4.58-7.53
					c-0.62-0.69-1.28-1.29-1.98-1.77c-0.64-0.43-1.3-0.77-1.99-0.93c-3.55-0.82-8-1.34-11.22-3.03c0.22,4.84,0.52,15.66-1.05,18.09
					l0.19,7.62c0,0,0.21,2.24-2.75,4.05c-3.59,2.2-11.25,1.96-13.05-3.55c-0.36-1.1-0.74-0.92-1.12-1.43c0,0-3.79-4.95-8.72-11.63
					c-0.39,1.7-0.65,3.19-0.73,4.36c-0.54,8.35-5.51,37.46-7.98,51.57c6.75,7.99,23.18,20.3,25.36,21.83
					c1.29,0.9,3.21,2.12,4.86,3.41c0.08-0.78,0.12-1.33,0.12-1.57c0-2.36-0.79-4.72-1.84-7.34s2.36-5.25,6.03-4.46
					c1.44,0.31,2.67,2.78,3.64,5.68c4.5-2.95,12.02-8.61,16.04-15.71l2.74-7.38c0,0,1.68-3.62,5.3-8.14
					c1.05-1.31,3.37-2.56,4.48-3.98c4-5.09,8.11-10.54,9.9-13.62c1.32-2.27,2.65-9.08,2.65-11.35s7-11.73,15.14-25.74
					c7.04-12.11,19.45-52.38,23.41-66.84C445.26,199.32,442.97,199.59,440.46,199.63z"/>
				<path class="st6" d="M375.53,223.59c-0.24-1.45-0.49-2.49-0.78-2.98c0,0-2.05,0.86-4.81,2.08c2.65,2.1,4.76,5.16,6.38,8.33
					c-0.08-1.06-0.17-2.08-0.26-3.02C375.91,226.28,375.72,224.8,375.53,223.59z"/>
				<path class="st6" d="M354.86,232.44c-0.2,0.49-0.43,1.05-0.7,1.7c3.29,1.69,5.61,2.96,5.61,2.96S357.66,235.11,354.86,232.44z"
					/>
				<path class="st6" d="M368.88,232.82l-4.65-5.58c0,0-0.5-0.57-1.12-1.38c-0.9,0.44-1.76,0.87-2.58,1.3
					C365.03,230.15,368.88,232.82,368.88,232.82z"/>
				<path class="st6" d="M332.43,225.75c0.52-0.48,2.06-0.23,4.17,0.45c-1.76-2.7-4.29-5.61-6.77-5.1c-3.14,0.65,1.16,8.55,4,13.2
					c3.73,0.51,9.76,2.98,9.76,2.98S330.01,227.98,332.43,225.75z"/>
				<path class="st6" d="M348.51,248c-0.07,0.17-0.14,0.34-0.21,0.52c1,0.17,1.61,0.29,1.61,0.29S349.38,248.51,348.51,248z"/>
				<path class="st6" d="M363.49,283.21c1.58-2.44,1.28-13.25,1.05-18.09c-1.16-0.61-2.17-1.37-2.91-2.36
					c-2.79-3.72-5.58-3.16-8.93-4.46c-1.1-0.43-3.97-1.3-7.28-2.38c-6.77-2.22-15.41-5.35-14.66-7.47c0.91-2.58,13.1-0.7,17.54,0.08
					c0.07-0.17,0.14-0.34,0.21-0.52c-4.43-2.58-17.87-10.62-17.56-12.95c0.05-0.35,0.28-0.58,0.66-0.71l-0.48-0.78
					c0,0-5.76-11.53-10.41-10.6c-2.26,0.45,9.48,21.94,9.48,21.94s-13.02-17.48-15.25-15.06c-2.23,2.42,11.16,15.99,11.71,16.92
					c0.56,0.93,5.02,6.69,3.53,8c-1.49,1.3-10.78-13.39-14.13-11.34c-2.23,1.36,12.13,21.54,21.96,34.86
					c4.93,6.67,8.72,11.63,8.72,11.63c0.37,0.52,0.76,0.34,1.12,1.43c1.81,5.51,9.46,5.75,13.05,3.55c2.96-1.81,2.75-4.05,2.75-4.05
					L363.49,283.21z"/>
				<path class="st6" d="M385.8,250.62c-2.89-2.87-5.25-5.66-5.39-7.2c-0.19-2.1-1.51-7.38-4.08-12.4
					c-1.62-3.17-3.74-6.23-6.38-8.33c-1.34-1.06-2.8-1.88-4.41-2.33c-7.47-2.12-4.36,2.93-2.42,5.5c0.62,0.82,1.12,1.38,1.12,1.38
					l4.65,5.58c0,0-3.84-2.66-8.34-5.67c-1.05-0.7-2.14-1.42-3.23-2.13c-4.53-2.96-8.97-5.74-10.37-6.15
					c-3.16-0.93-6.32-2.05-5.76-0.37c0.37,1.1,8.3,8.8,13.68,13.94c2.8,2.67,4.91,4.65,4.91,4.65s-2.32-1.26-5.61-2.96
					c-5.2-2.67-12.81-6.41-17.56-7.94c-2.1-0.68-3.65-0.93-4.17-0.45c-2.42,2.23,11.16,11.53,11.16,11.53s-6.03-2.46-9.76-2.98
					c-0.92-0.13-1.7-0.14-2.22,0.04c-0.38,0.13-0.62,0.36-0.66,0.71c-0.31,2.33,13.13,10.37,17.56,12.95
					c0.87,0.51,1.4,0.81,1.4,0.81s-0.61-0.12-1.61-0.29c-4.44-0.78-16.63-2.66-17.54-0.08c-0.75,2.12,7.89,5.25,14.66,7.47
					c3.31,1.09,6.18,1.96,7.28,2.38c3.35,1.3,6.14,0.74,8.93,4.46c0.74,0.99,1.75,1.75,2.91,2.36c3.22,1.69,7.67,2.21,11.22,3.03
					c0.69,0.16,1.35,0.49,1.99,0.93c0.7,0.48,1.36,1.09,1.98,1.77c2.75,3.06,4.58,7.53,4.58,7.53s12.27-5.58,12.46-18.04
					C396.77,260.34,390.57,255.36,385.8,250.62z"/>
				<path class="st6" d="M375.4,379.63c-1.31-5.77-0.79-14.95-5.51-17.83c0,0-0.88-5.54-2.39-10.05c-0.97-2.9-2.21-5.37-3.64-5.68
					c-3.67-0.79-7.08,1.84-6.03,4.46s1.84,4.98,1.84,7.34c0,0.24-0.04,0.79-0.12,1.57c1.71,1.33,3.14,2.74,3.27,3.94
					c0.26,2.36,1.31,13.37,1.57,17.31s-1.57,6.82-6.56,10.49c-0.56,0.42-1.37,0.63-2.35,0.7c-0.01,0.05-0.01,0.08-0.01,0.08
					s7.61,5.25,13.11,0.26c1.98-1.79,3.59-3.18,4.77-4.49C375.46,385.4,376.24,383.32,375.4,379.63z"/>
				<path class="st6" d="M429.56,468.72c2.11-9.76,7.18-32.95,10.64-46.13c3.42-13.02,6.23-25.89,8.03-34.65
					c-11.25,7.01-81.6,15.84-91.86,15.31c-1.69-0.09-3.27-0.59-4.67-1.42c-1.32,10.93-5.64,46.74-7.79,66.89H429.56z"/>
				<path class="st6" d="M555.06,468.72c1.37-5.82,2.1-12.42,1.28-15.79c-2.8-11.47-3.36-28.81-3.36-28.81l-0.04-0.12
					c-2.61,1.56-5.51,2.82-8.73,3.7c0,0-11.6,4.27-25.44-8.55c-0.96-0.89-1.9-1.71-2.84-2.5c-7.05,4.33-13.84,2.48-17.11,1.08
					c3.28,1.66,9.51,4.86,10.99,5.89c2.04,1.42,1.02,3.26-1.42,3.66c-2.44,0.41-16.08-5.29-18.72-7.53
					c-2.65-2.24-3.05-8.75-2.24-12.62c0.72-3.4,0.96-2.71,0.46-6.22c-5.48-1.57-10.96-3.64-13.91-6.13
					c-3.76-3.17-11.99-5.85-18.48-7.6c-1.6-0.43-3.1-0.81-4.4-1.12c-0.91-0.22-1.71-0.4-2.39-0.55c-0.15,0.77-0.32,1.57-0.49,2.42
					c-1.8,8.76-4.6,21.63-8.03,34.65c-3.46,13.17-8.53,36.36-10.64,46.13H555.06z"/>
				<path class="st6" d="M573.15,214.49c-2.34-1.7-9.38-0.13-12.56,0.85c-2.85,0.89-8.6-1.1-9.15-5.53
					c-0.56-4.54-4.25-12.06-7.81-18.55c-1.36-2.47-2.69-4.79-3.83-6.73c-1.23,1.18-2.53,2.77-3.81,4.5
					c-4.22,5.71-8.16,13.03-8.16,13.03l-6.06-9.65c-26.3,17.79-34.63,1.89-34.63,1.89s-2.45-3.28-0.38-5.49
					c1.98-2.11-9.08,8.14-9.08,8.14c-1.54-5.03,2.66-13.84,6.82-20.86c-2.43-0.37-6.38,0-13.06,2.5
					c-15.14,5.68-21.95,9.84-23.09,15.71c-0.15,0.79-0.57,2.43-1.19,4.69c-3.96,14.46-16.38,54.73-23.41,66.84
					c-8.14,14-15.14,23.46-15.14,25.74s-1.32,9.08-2.65,11.35c-1.79,3.08-5.9,8.52-9.9,13.62c-1.11,1.42-3.44,2.67-4.48,3.98
					c-3.62,4.52-5.3,8.14-5.3,8.14s3.24-1.07,8.87,4.91s4.93,12.67,4.93,12.67s-2.28,0.8-4.56,3.28c0.82,1.07,1.66,1.91,2.5,2.41
					c2.71,1.63,8.89,0.95,11.92-2.84l1.7-3.03c0,0,23.88-21.26,30.09-26.87c5.87-5.3,10.98-14.95,12.3-28.2
					c0,0,2.27,8.52-0.19,17.98c-2.46,9.46-9.65,44.28-9.27,50.15c0.25,3.81,0.41,7.77,0.81,11.06c0.21,1.79,0.5,3.38,0.89,4.64
					c1.14,3.6-0.19,8.14,0.19,10.22c0,0,0.85,0.17,2.26,0.48c0.68,0.15,1.48,0.34,2.39,0.55c1.29,0.31,2.79,0.69,4.4,1.12
					c6.49,1.75,14.72,4.43,18.48,7.6c2.95,2.48,8.43,4.55,13.91,6.13c-0.07-0.49-0.15-1.05-0.25-1.72
					c-0.81-5.49,2.65-6.72,5.09-8.75s-1.63-8.34,6.72-9.97c1.94-0.38,3.52-0.08,4.82,0.59c5.81-4.62,16.3-12.25,22.77-12.76
					l0.14-6.96c-0.7-1.08-1.41-2.22-2.14-3.39c-4.37-7.08-8.91-15.44-10.37-21.68c-3.08-13.15,8.11-29.93,11.19-36.09
					c0.62-1.23,1.53-4.14,2.61-8.01c0.98-16.75,2.41-33.07,3.95-41.14c0.82-4.27,3.91-7.38,7.65-8.56c1.36-2.39,5.91-4.77,9.75-5.44
					c4.49-0.78,7.62-1.95,14.84-4.3s10.16-7.03,10.16-7.03l0.01,0L573.15,214.49z"/>
				<path class="st6" d="M454.03,290.99c-1.32,13.25-6.43,22.9-12.3,28.2c-6.21,5.61-30.09,26.87-30.09,26.87l-1.7,3.03
					c-3.03,3.78-9.22,4.47-11.92,2.84c-0.84-0.5-1.67-1.35-2.5-2.41c-0.36,0.39-0.72,0.82-1.07,1.29
					c-3.87,5.28-16.89,33.78-19,35.54c-0.57,0.47-1.31,0.94-2.1,1.38c-1.19,1.31-2.79,2.69-4.77,4.49
					c-5.51,4.98-13.11-0.26-13.11-0.26s0-0.03,0.01-0.08c-2.66,0.19-6.61-0.75-10.64-2.08l2.17,6.16c0.81,2.51,2.51,4.59,4.68,5.88
					c1.39,0.83,2.98,1.33,4.67,1.42c10.27,0.53,80.61-8.31,91.86-15.31c0.17-0.85,0.34-1.65,0.49-2.42
					c-1.4-0.31-2.26-0.48-2.26-0.48c-0.38-2.08,0.95-6.62-0.19-10.22c-0.4-1.26-0.68-2.86-0.89-4.64c-0.4-3.3-0.56-7.26-0.81-11.06
					c-0.38-5.87,6.81-40.68,9.27-50.15C456.3,299.51,454.03,290.99,454.03,290.99z"/>
				<path class="st6" d="M287.9,468.72c0.12-3.15,0.25-6.47,0.38-9.68c-11.21,5.95-29.57,8.35-47.79,9.68H287.9z"/>
				<path class="st6" d="M210.33,468.72c-23.29-2.75-48.84-11.12-54.74-13.12l-0.73,13.12H210.33z"/>
				<path class="st6" d="M266.5,217.52c0.36,0.21,0.68,0.46,0.98,0.74c3.28-4.92,12.31-9.33,12.31-9.33s0.25,0.5,5.73-0.62
					c5.48-1.12,8.48-5.23,9.6-8.48c1.12-3.24,7.73-13.09,8.6-15.21c0.87-2.12,2.74-3.24,4.36-5.36c1.62-2.12-0.5-8.48-1-11.47
					c-0.5-2.99,1.82-8,2.52-9.74c0.53-1.33-1.58-12.61-3.53-19.69c-0.82-0.69-1.5-1.32-1.98-1.13c-1.44,0.57-3.35,1.15-3.92,4.59
					c-0.57,3.45,0.77,14.17-0.77,15.51c-1.53,1.34-1.53,2.97-5.74,3.25c-4.21,0.29-7.37,2.3-7.37,2.3s-2.78-4.31-5.26-2.49
					c-2.49,1.82-4.59,4.5-6.03,11.87c0,0-2.01,2.11-3.64,4.69c-1.63,2.58-2.49,9.57-6.8,9.48c-4.31-0.1-8.33-2.3-19.62-0.57
					c-10.16,1.55-14.43,1.77-17.91-2.87c-1.23,5.75-3.65,10.66-5.48,14.59c-1.44,3.09-3.98,6.78-5.88,9.49
					c9.62-0.03,25.34,0.68,31.23,2.09C254.96,211.09,262.51,215.14,266.5,217.52z"/>
				<path class="st6" d="M148.03,363.11c0,0-0.52,34.09-1.05,40.39c-0.52,6.29-6.03,29.9-1.31,41.17s8.65,10.49,8.65,10.49
					s0.45,0.16,1.27,0.44c5.9,2.01,31.45,10.38,54.74,13.12h30.16c18.22-1.33,36.58-3.73,47.79-9.68c4.43-2.35,7.75-5.25,9.49-8.86
					c5.03-10.41,7.08-73.17,7.08-77.1s-1.31-4.98-1.31-4.98s23.34,14.95,25.96,15.47c0,0,7.79,3.76,15.33,6.23
					c4.03,1.32,7.99,2.27,10.64,2.08c0.98-0.07,1.78-0.29,2.35-0.7c4.98-3.67,6.82-6.56,6.56-10.49s-1.31-14.95-1.57-17.31
					c-0.13-1.2-1.56-2.6-3.27-3.94c-1.65-1.29-3.57-2.5-4.86-3.41c-2.19-1.53-18.61-13.83-25.36-21.83
					c-1.34-1.59-2.31-3.01-2.7-4.14c-2.36-6.82-9.97-47.99-10.23-54.02c-0.26-6.03-10.29-42.57-36.72-49.04
					c-7.5-1.84-9.73-4.12-10.28-5.7c-0.41-1.16-1.04-2.22-1.92-3.03c-0.3-0.28-0.63-0.53-0.98-0.74c-3.99-2.39-11.53-6.43-19.6-8.36
					c-5.89-1.41-21.61-2.12-31.23-2.09c-4.4,0.01-7.52,0.18-7.85,0.51c0,0-11.15,5.7-16,7.87c-29.37,13.11-36.98,30.42-39.34,43.27
					c-2.36,12.85-4.2,36.72-5.24,42.48c0,0-5.25,39.08-5.51,44.06c-0.26,4.98-0.52,9.44,2.88,13.64
					C148.03,363.11,148.03,363.11,148.03,363.11z"/>
				<path class="st6" d="M375.53,223.59c0.68-1.41,1.25-2.78,1.75-4.11l-2.52,1.13C375.03,221.1,375.29,222.15,375.53,223.59z"/>
				<path class="st6" d="M378.17,197.12c-10.02-8.82-14.19-18.41-16.29-23.38c0.21,3.15,0.37,7.09,0.3,12.04
					c-0.13,8.77-3.12,27.87-4.88,39.24c1.09,0.71,2.17,1.43,3.23,2.13c0.81-0.42,1.68-0.86,2.58-1.3c-1.94-2.56-5.05-7.61,2.42-5.5
					c1.61,0.46,3.08,1.27,4.41,2.33c2.76-1.22,4.81-2.08,4.81-2.08l2.52-1.13C382.26,206,378.17,197.12,378.17,197.12z"/>
				<path class="st6" d="M411.47,202.6c3.72-4.09,6.56-6.98,6.56-6.98l-4.92-0.37C412.49,197.98,411.93,200.51,411.47,202.6z"/>
				<path class="st6" d="M440.46,199.63c-2.6-10.16-9.51-40.75-9.66-44.36c-0.19-4.28-8.93-30.68-15.06-33.28s-7.81-8.74-20.83-7.81
					c0,0-6.88,0.93-6.88,1.86c0,0.93-3.35-2.6-6.88-2.05s-9.11,2.98-13.39,8.37c-4.28,5.39-4.28,7.44-6.14,10.6
					c-1.86,3.16-1.49,10.78-1.49,13.2c0,0.78,0.14,2.63,0.31,4.86c0.14,0.05,0.25,0.16,0.25,0.16l0.93-2.42
					c1.86-25.29,23.43-28.08,24.92-26.59s14.69,6.69,19.9,7.81c5.21,1.12,6.32,4.83,10.78,6.69c3.3,1.37,3.72,20.08,3.72,20.08
					s1.93-3.6,4.46-1.49c2.23,1.86-0.74,13.2-2.98,15.25c-2.23,2.05-3.16-2.05-3.16-2.05s-3.54,15.16-6.16,26.77l4.92,0.37
					c0,0,3.52,0.7,14.08,3.17C435,199.46,437.84,199.68,440.46,199.63z"/>
				<path class="st6" d="M309.83,127.96c-0.77-1.63,5.64-8.32,1.91-13.02c-2.58-3.25-9.48-6.22-14.64-8.71
					c-5.17-2.49-12.83-3.06-21.34-4.98c-8.52-1.91-9,0.29-16.65,2.58c-7.66,2.3-11.2,3.06-15.41,3.35
					c-4.21,0.29-6.6,1.15-11.58,3.92c-4.98,2.78-4.51,1.54-4.21,7.56c0.29,5.74-2.2,4.21-4.31,7.18s-7.37,8.52-10.91,13.02
					s-1.53,3.64-0.86,13.59c0.67,9.95,4.5,13.5,4.5,13.5l0.64,1.02c2.08,3.81,1.95,9.41,4.63,9.41c0.69,0,0.9-0.27,1.2-0.1
					l3.11,4.98c-0.81-1.4-1.59-2.73-2.34-4c0.46,0.74,1.16,1.97,2.34,4c0.37,0.64,0.75,1.2,1.14,1.72
					c3.47,4.64,7.74,4.42,17.91,2.87c11.29-1.72,15.31,0.48,19.62,0.57c4.31,0.1,5.17-6.89,6.8-9.48c1.63-2.58,3.64-4.69,3.64-4.69
					c1.44-7.37,3.54-10.05,6.03-11.87c2.49-1.82,5.26,2.49,5.26,2.49s3.16-2.01,7.37-2.3c4.21-0.29,4.21-1.91,5.74-3.25
					c1.53-1.34,0.19-12.06,0.77-15.51c0.57-3.45,2.49-4.02,3.92-4.59c0.49-0.2,1.16,0.44,1.98,1.13c1.6,1.34,3.79,2.89,6.34-1.03
					C317.96,128.83,310.76,129.95,309.83,127.96z"/>
				<path class="st6" d="M608.77,184.28c-4.47,0.26-4.2,4.73-11.82,0.79s-8.41-4.47-9.2-2.63c-0.79,1.84-1.05,7.36-3.42,4.99
					s-9.2-10.51-9.2-10.51s-3.15,2.36-4.2,0.79c-1.05-1.58,0-3.94-1.84-6.04s0.79-3.68-1.05-5.78s-4.47-3.42-6.83-7.09
					c-2.36-3.68-2.63-4.2-7.36-4.73s-4.2-1.05-6.31-3.94s-4.6-0.4-7.55-7.69c-0.93,1.13-1.74,2.87-1.54,5.44
					c0.06,0.83,0.15,1.76,0.26,2.73c0.12,1.16,0.52,5.42,0.66,6.69c0.52,4.75,0.79,6.88,0.36,9.73c-0.64,4.26-5.32,8.3-2.34,13.41
					c0.58,0.99,1.42,2.4,2.41,4.09c1.14,1.95,2.48,4.27,3.83,6.73c3.56,6.49,7.25,14.01,7.81,18.55c0.55,4.44,6.3,6.42,9.15,5.53
					c3.18-0.99,10.22-2.55,12.56-0.85l1.66,11.24l4.68,0.39c0,0,3.74-1.05,8.9-2.37c8.21-2.09,20.05-4.84,26.25-5.05
					c3.45-0.12,11.47,0.77,16.41,1.38c-5.07-6.46-13.75-19.72-15.55-34.21C615.5,185.84,611.41,184.13,608.77,184.28z"/>
				<path class="st6" d="M631.34,144.15c-1.32-2.84,0.57-3.41,1.32-5.11s-0.95-2.65-3.03-4.35c-2.08-1.7-2.46-6.62-3.6-9.84
					s-5.49-3.03-5.11-6.06c0.38-3.03-1.32-9.46-2.46-10.79c-1.14-1.32-10.22-5.11-14-6.43c-3.78-1.32-4.35-0.19-6.24-0.57
					c-1.89-0.38-1.51-3.03-2.08-3.78s-6.62,0.38-9.84,0.76c-3.22,0.38-3.97-1.7-6.62-0.57c-2.65,1.14-4.92,0.57-7,0
					c-2.08-0.57-1.32,1.89-3.97,1.7c-2.65-0.19-3.97,1.51-6.24,4.16c-2.27,2.65-2.84,2.65-4.73,3.03c-1.89,0.38-1.89,2.08-2.08,3.22
					s-1.14,0.95-3.03,0.76c-1.62-0.16-1.58,0.92-3.18,3.01c-0.27,0.36-0.59,0.74-0.98,1.16c-0.52,0.56-1.05,1.11-1.56,1.65
					c-0.21,0.22-0.42,0.45-0.62,0.67c-1.85,2.02-3.41,4.05-3.68,6.38c-0.38,3.22-0.95,2.65-3.6,7.57c-2.65,4.92,3.03,6.43,1.51,8.89
					c-0.49,0.79-0.64,1.78-0.51,2.83c2.96,7.29,5.45,4.8,7.55,7.69s1.58,3.42,6.31,3.94s4.99,1.05,7.36,4.73
					c2.36,3.68,4.99,4.99,6.83,7.09s-0.79,3.68,1.05,5.78s0.79,4.47,1.84,6.04c1.05,1.58,4.2-0.79,4.2-0.79s6.83,8.15,9.2,10.51
					s2.63-3.15,3.42-4.99c0.79-1.84,1.58-1.31,9.2,2.63s7.36-0.53,11.82-0.79c2.77-0.16,5.85,1.09,7.78,2.07c0.01,0,0.01,0,0.02,0
					c6.06,0.19,7.76-6.81,7.76-6.81s3.41,0.57,5.11-2.84s-2.08-5.3-2.46-9.65c-0.38-4.35,1.89-3.6,6.24-10.03
					C637.58,150.58,632.66,146.99,631.34,144.15z"/>
			</g>
			<g>
				<path class="st8" d="M670.36,346.44c-0.66,14.26,5.14,33.25,9.02,47.83c4.85-2.14,10.58-5.45,14.05-10.15
					c6.92-9.36-1.02-31.34-1.42-35c-0.41-3.66-10.79-45.18-12.21-53.93c-0.95-5.86-7.37-22.64-11.51-33.11
					C674.07,292.32,670.95,333.7,670.36,346.44z"/>
				<path class="st9" d="M550.77,82.85c0,0-4.35-2.84-5.68-5.11c-1.32-2.27-4.92-6.43-8.52-6.81c-3.6-0.38-7.38,0.95-11.16-1.14
					c-3.78-2.08-10.41-11.16-24.41-8.52c-14,2.65-27.25,10.03-27.44,12.68c-0.19,2.65-5.92,7.59-2.89,11.75s5.03,4.12,5.45,5.21
					c0.2,0.53,0.62,0.9,1.42,1.02c2.46,0.38,7-0.76,9.08,1.32c2.08,2.08,2.46,1.89,5.3,0.57c2.84-1.32,3.6-1.89,6.24-0.38
					c2.65,1.51,6.62-0.57,8.89,0s6.24,3.6,6.06,7.38c-0.19,3.78-2.46,10.03,0.57,11.16s7,0,8.33,1.51c1.32,1.51,2.27,5.68,2.84,3.78
					s1.7-8.14,3.41-6.24c1.7,1.89,0,3.41,3.03,2.65c1.36-0.34,3.17-2.08,5.3-2.27c2.6-0.23,5.5,1.21,6.43,2.46
					c0.94,1.26,2.29,2.45,3.3,3.27c0.21-0.22,0.41-0.45,0.62-0.67c0.51-0.55,1.04-1.1,1.56-1.65c0.39-0.41,0.7-0.8,0.98-1.16
					c1.47-3.68,3.4-8.39,3.75-9.44C553.8,102.53,560.8,87.2,550.77,82.85z"/>
				<path class="st10" d="M546.08,121.81c0.27-2.33,1.84-4.36,3.68-6.38c-1.02-0.82-2.36-2.02-3.3-3.27
					c-0.94-1.25-3.83-2.69-6.43-2.46c-2.13,0.19-3.94,1.93-5.3,2.27c-3.03,0.76-1.32-0.76-3.03-2.65c-1.7-1.89-2.84,4.35-3.41,6.24
					s-1.51-2.27-2.84-3.78c-1.32-1.51-5.3-0.38-8.33-1.51s-0.76-7.38-0.57-11.16c0.19-3.78-3.78-6.81-6.06-7.38s-6.24,1.51-8.89,0
					c-2.65-1.51-3.41-0.95-6.24,0.38c-2.84,1.32-3.22,1.51-5.3-0.57c-2.08-2.08-6.62-0.95-9.08-1.32c-0.8-0.12-1.22-0.49-1.42-1.02
					c-1.92,3.39-4.63,8.97-4.26,12.94c0.57,6.06,4.54,24.22,4.54,24.22s-8.14,8.52-7.38,12.11c0.57,2.72,5.38,1.33,7,0.95
					c0,0,2.84,3.6,2.27,8.33s-1.89,13.62,1.14,16.27c2.4,2.1,3.37,4.07,9.95,3.21c1.74-0.23,3.86-0.65,6.51-1.32
					c0,0,4.35,18.54,4.73,19.49c0.21,0.52,6.37,0.1,14.95-5.87c6.92-4.81,15.55-13.98,22.9-23.28l0.95-0.29
					c-0.14-1.27-0.54-5.53-0.66-6.69c-0.1-0.98-0.19-1.9-0.26-2.73c-0.2-2.57,0.62-4.3,1.54-5.44c-0.13-1.04,0.02-2.03,0.51-2.83
					c1.51-2.46-4.16-3.97-1.51-8.89C545.13,124.46,545.7,125.03,546.08,121.81z"/>
				<path class="st6" d="M539.78,167.41c0.43-2.85,0.16-4.98-0.36-9.73l-0.95,0.29c-7.35,9.29-15.98,18.47-22.9,23.28
					c-8.58,5.96-14.74,6.39-14.95,5.87c-0.38-0.95-4.73-19.49-4.73-19.49c-2.65,0.67-4.77,1.09-6.51,1.32
					c-1.31,1.9-3.07,4.55-4.84,7.53c-4.16,7.01-8.36,15.83-6.82,20.86c0,0,10.6-10.35,8.94-7.98c-1.67,2.39,0.52,5.33,0.52,5.33
					s8.33,15.9,34.63-1.89l6.06,9.65c0,0,3.94-7.32,8.16-13.03c1.28-1.73,2.59-3.32,3.81-4.5c-0.99-1.69-1.83-3.1-2.41-4.09
					C534.46,175.71,539.14,171.67,539.78,167.41z"/>
				<path class="st11" d="M545.16,243.65c9.67,5.19,19.6,20.25,25.66,30.74c2.2,3.81,3.89,7.02,4.86,8.93
					c0.63,1.22,0.9,2.59,0.82,3.96L572.16,354c0,0,5.04,46.42-17.29,66.46c-1.62,1.46-3.39,2.77-5.32,3.92l0.04,0.12
					c0,0,0.56,17.34,3.36,28.81c0.82,3.37,0.09,9.96-1.28,15.79h144.87c0.53-4.27,0.75-10.91-1.2-18.3
					c-4.24-16.07-15.23-35.8-16.46-43.71c-0.55-3.55-1.64-7.94-2.94-12.82c-3.88-14.58-9.68-33.57-9.02-47.83
					c0.59-12.74,3.71-54.11-2.08-84.36c-2.86-14.94-7.9-27.16-16.48-31.87c-6.62-3.64-11.01-6.52-13.14-7.98
					c-1.02-0.7-2.19-1.13-3.42-1.25c0,0-1.69-0.23-4.14-0.53c-4.94-0.6-12.96-1.49-16.41-1.38c-6.21,0.21-18.04,2.96-26.25,5.05
					c-5.16,1.31-8.9,2.37-8.9,2.37l-4.68-0.39l-0.01,0c0,0-2.93,4.69-10.16,7.03s-10.35,3.52-14.84,4.3
					c-3.84,0.67-8.39,3.05-9.75,5.44C539.36,242.02,542.39,242.17,545.16,243.65z"/>
				<path class="st6" d="M498.88,418.11c-1.22-0.62-2.03-1.02-2.03-1.02S497.59,417.56,498.88,418.11z"/>
				<path class="st11" d="M528.33,300.3c-0.04,0.1-0.09,0.2-0.13,0.28c-3.08,6.15-14.27,22.94-11.19,36.09
					c1.4,5.96,5.61,13.88,9.8,20.76C527.37,338.38,528.15,319.35,528.33,300.3z"/>
				<path class="st8" d="M508.66,386.73c0.5-0.01,0.98-0.01,1.43,0.01c5.06,0.16,7.31,1.66,7.31,1.66l9.36-4.07l0.32-15.63
					c-6.46,0.51-16.96,8.14-22.77,12.76C506.51,382.59,507.86,384.83,508.66,386.73z"/>
				<path class="st8" d="M582.24,289.01c0.09-1.37-0.19-2.74-0.82-3.96c-0.98-1.91-2.66-5.12-4.86-8.93
					c-6.05-10.49-15.99-25.56-25.66-30.74c-2.77-1.48-5.8-1.63-8.5-0.78c-3.74,1.18-6.83,4.3-7.65,8.56
					c-1.54,8.07-2.97,24.39-3.95,41.14c-0.11,1.96-0.22,3.92-0.32,5.87l-0.2,25.44l-0.69,34.36l-0.07,3.49l-0.14,6.96l-0.32,15.63
					l-9.36,4.07c0,0-2.24-1.49-7.31-1.66c-0.45-0.01-0.94-0.01-1.43-0.01c-0.8-1.9-2.15-4.13-4.35-5.28
					c-1.29-0.67-2.88-0.97-4.82-0.59c-8.34,1.63-4.27,7.94-6.72,9.97s-5.9,3.26-5.09,8.75c0.1,0.67,0.18,1.23,0.25,1.72
					c0.5,3.51,0.26,2.82-0.46,6.22c-0.81,3.87-0.41,10.38,2.24,12.62c2.65,2.24,16.28,7.94,18.72,7.53
					c2.44-0.41,3.46-2.24,1.42-3.66c-1.48-1.04-7.72-4.23-10.99-5.89c-1.29-0.55-2.03-1.02-2.03-1.02s0.81,0.41,2.03,1.02
					c3.27,1.39,10.06,3.25,17.11-1.08c0.94,0.78,1.88,1.61,2.84,2.5c13.84,12.82,25.44,8.55,25.44,8.55
					c3.22-0.87,6.12-2.13,8.73-3.7c1.92-1.15,3.69-2.47,5.32-3.92c22.33-20.04,17.29-66.46,17.29-66.46L582.24,289.01z"/>
				<path class="st10" d="M367.55,353.25c1.51,4.51,2.39,10.05,2.39,10.05c4.72,2.88,4.2,12.06,5.51,17.83
					c0.84,3.69,0.06,5.77-2.05,8.1c0.79-0.44,1.53-0.91,2.1-1.38c2.11-1.76,15.13-30.26,19-35.54c0.35-0.48,0.71-0.9,1.07-1.29
					c2.28-2.48,4.56-3.28,4.56-3.28s0.7-6.69-4.93-12.67s-8.87-4.91-8.87-4.91l-2.74,7.38C379.57,344.64,372.05,350.3,367.55,353.25
					z"/>
				<path class="st12" d="M428.9,156.81c-2.53-2.11-4.46,1.49-4.46,1.49s-0.42-18.71-3.72-20.08c-4.46-1.86-5.58-5.58-10.78-6.69
					c-5.21-1.12-18.41-6.32-19.9-7.81s-23.06,1.3-24.92,26.59l-0.93,2.42c0,0-0.11-0.1-0.25-0.16c-0.39-0.15-1.05,0.1-0.5,4.06
					c0.74,5.39-1.3,14.5,0.19,15.25c0.42,0.21,0.93,1.45,1.75,3.4c2.1,4.97,6.27,14.56,16.29,23.38c0,0,4.93,10.72-2.65,26.48
					c0.2,1.21,0.38,2.69,0.54,4.41c4.83,1.5,9.87,1,14.25-0.18c-0.2-0.29-0.28-0.67-0.17-1.11c2.46-9.56,9.26-16.78,16.33-23.45
					c0.19-0.23,0.37-0.46,0.56-0.69c0.51-1.11,1.18-2.16,1.97-3.11c-0.36-0.36-0.51-0.92-0.41-1.43c0.05-0.25,0.09-0.51,0.13-0.76
					c0.02-0.13,0.04-0.26,0.06-0.39c0.01-0.05,0.01-0.1,0.01-0.11c0.07-0.52,0.12-1.05,0.18-1.57c0.14-1.14,0.29-2.27,0.61-3.37
					c0.23-0.77,0.99-1.17,1.75-1c0.03,0.01,0.05,0.02,0.08,0.03c0.22-1.01,0.42-2.02,0.57-3.04c0.12-0.77,1.08-1.18,1.75-1
					c0.6,0.16,0.92,0.63,1,1.18c2.25-9.82,4.51-19.5,4.51-19.5s0.93,4.09,3.16,2.05C428.15,170.01,431.13,158.67,428.9,156.81z"/>
				<path class="st13" d="M376.12,228.38c0.09,0.93,0.17,1.96,0.26,3.02c2.57,5.02,3.89,10.3,4.08,12.4c0.14,1.54,2.5,4.33,5.39,7.2
					c1.27-3.68,2.55-7.22,3.72-10.45c0.75-2.08,1.46-4.02,2.09-5.8c1.16-3.28,2.07-5.98,2.5-7.77
					C389.06,228.91,382.42,230.33,376.12,228.38z"/>
				<path class="st6" d="M441.64,202.27c-2.62,0.04-5.46-0.17-8.35-0.85c-10.56-2.46-14.08-3.17-14.08-3.17s-2.84,2.89-6.56,6.98
					c-6.61,7.27-16.02,18.36-17.37,23.99c0,0,0,0,0,0c-0.43,1.79-1.33,4.49-2.5,7.77c-0.63,1.78-1.33,3.72-2.09,5.8
					c-1.17,3.23-2.45,6.78-3.72,10.45c4.77,4.74,10.97,9.72,10.97,9.72c-0.19,12.46-12.46,18.04-12.46,18.04s-1.83-4.46-4.58-7.53
					c-0.62-0.69-1.28-1.29-1.98-1.77c-0.64-0.43-1.3-0.77-1.99-0.93c-3.55-0.82-8-1.34-11.22-3.03c0.22,4.84,0.52,15.66-1.05,18.09
					l0.19,7.62c0,0,0.21,2.24-2.75,4.05c-3.59,2.2-11.25,1.96-13.05-3.55c-0.36-1.1-0.74-0.92-1.12-1.43c0,0-3.79-4.95-8.72-11.63
					c-0.39,1.7-0.65,3.19-0.73,4.36c-0.54,8.35-5.51,37.46-7.98,51.57c6.75,7.99,23.18,20.3,25.36,21.83
					c1.29,0.9,3.21,2.12,4.86,3.41c0.08-0.78,0.12-1.33,0.12-1.57c0-2.36-0.79-4.72-1.84-7.34s2.36-5.25,6.03-4.46
					c1.44,0.31,2.67,2.78,3.64,5.68c4.5-2.95,12.02-8.61,16.04-15.71l2.74-7.38c0,0,1.68-3.62,5.3-8.14
					c1.05-1.31,3.37-2.56,4.48-3.98c4-5.09,8.11-10.54,9.9-13.62c1.32-2.27,2.65-9.08,2.65-11.35s7-11.73,15.14-25.74
					c7.04-12.11,19.45-52.38,23.41-66.84C446.44,201.96,444.14,202.23,441.64,202.27z"/>
				<path class="st6" d="M375.58,223.98c-0.24-1.45-0.49-2.49-0.78-2.98c0,0-2.05,0.86-4.81,2.08c2.65,2.1,4.76,5.16,6.38,8.33
					c-0.08-1.06-0.17-2.08-0.26-3.02C375.95,226.66,375.77,225.18,375.58,223.98z"/>
				<path class="st6" d="M354.91,232.83c-0.2,0.49-0.43,1.05-0.7,1.7c3.29,1.69,5.61,2.96,5.61,2.96S357.7,235.5,354.91,232.83z"/>
				<path class="st6" d="M368.93,233.2l-4.65-5.58c0,0-0.5-0.57-1.12-1.38c-0.9,0.44-1.76,0.87-2.58,1.3
					C365.08,230.54,368.93,233.2,368.93,233.2z"/>
				<path class="st12" d="M332.48,226.14c0.52-0.48,2.06-0.23,4.17,0.45c-1.76-2.7-4.29-5.61-6.77-5.1c-3.14,0.65,1.16,8.55,4,13.2
					c3.73,0.51,9.76,2.98,9.76,2.98S330.06,228.37,332.48,226.14z"/>
				<path class="st6" d="M348.56,248.38c-0.07,0.17-0.14,0.34-0.21,0.52c1,0.17,1.61,0.29,1.61,0.29S349.43,248.89,348.56,248.38z"
					/>
				<path class="st12" d="M363.53,283.59c1.58-2.44,1.28-13.25,1.05-18.09c-1.16-0.61-2.17-1.37-2.91-2.36
					c-2.79-3.72-5.58-3.16-8.93-4.46c-1.1-0.43-3.97-1.3-7.28-2.38c-6.77-2.22-15.41-5.35-14.66-7.47c0.91-2.58,13.1-0.7,17.54,0.08
					c0.07-0.17,0.14-0.34,0.21-0.52c-4.43-2.58-17.87-10.62-17.56-12.95c0.05-0.35,0.28-0.58,0.66-0.71l-0.48-0.78
					c0,0-5.76-11.53-10.41-10.6c-2.26,0.45,9.48,21.94,9.48,21.94s-13.02-17.48-15.25-15.06c-2.23,2.42,11.16,15.99,11.71,16.92
					c0.56,0.93,5.02,6.69,3.53,8c-1.49,1.3-10.78-13.39-14.13-11.34c-2.23,1.36,12.13,21.54,21.96,34.86
					c4.93,6.67,8.72,11.63,8.72,11.63c0.37,0.52,0.76,0.34,1.12,1.43c1.81,5.51,9.46,5.75,13.05,3.55c2.96-1.81,2.75-4.05,2.75-4.05
					L363.53,283.59z"/>
				<path class="st12" d="M387.53,250.44c-2.89-2.87-5.25-5.66-5.39-7.2c-0.19-2.1-1.51-7.38-4.08-12.4
					c-1.62-3.17-3.74-6.23-6.38-8.33c-1.34-1.06-2.8-1.88-4.41-2.33c-7.47-2.12-4.36,2.93-2.42,5.5c0.62,0.82,1.12,1.38,1.12,1.38
					l4.65,5.58c0,0-3.84-2.66-8.34-5.67c-1.05-0.7-2.14-1.42-3.23-2.13c-4.53-2.96-8.97-5.74-10.37-6.15
					c-3.16-0.93-6.32-2.05-5.76-0.37c0.37,1.1,8.3,8.8,13.68,13.94c2.8,2.67,4.91,4.65,4.91,4.65s-2.32-1.26-5.61-2.96
					c-5.2-2.67-12.81-6.41-17.56-7.94c-2.1-0.68-3.65-0.93-4.17-0.45c-2.42,2.23,11.16,11.53,11.16,11.53s-6.03-2.46-9.76-2.98
					c-0.92-0.13-1.7-0.14-2.22,0.04c-0.38,0.13-0.62,0.36-0.66,0.71c-0.31,2.33,13.13,10.37,17.56,12.95
					c0.87,0.51,1.4,0.81,1.4,0.81s-0.61-0.12-1.61-0.29c-4.44-0.78-16.63-2.66-17.54-0.08c-0.75,2.12,7.89,5.25,14.66,7.47
					c3.31,1.09,6.18,1.96,7.28,2.38c3.35,1.3,6.14,0.74,8.93,4.46c0.74,0.99,1.75,1.75,2.91,2.36c3.22,1.69,7.67,2.21,11.22,3.03
					c0.69,0.16,1.35,0.49,1.99,0.93c0.7,0.48,1.36,1.09,1.98,1.77c2.75,3.06,4.58,7.53,4.58,7.53s12.27-5.58,12.46-18.04
					C398.51,260.16,392.3,255.18,387.53,250.44z"/>
				<path class="st14" d="M375.45,380.01c-1.31-5.77-0.79-14.95-5.51-17.83c0,0-0.88-5.54-2.39-10.05c-0.97-2.9-2.21-5.37-3.64-5.68
					c-3.67-0.79-7.08,1.84-6.03,4.46s1.84,4.98,1.84,7.34c0,0.24-0.04,0.79-0.12,1.57c1.71,1.33,3.14,2.74,3.27,3.94
					c0.26,2.36,1.31,13.37,1.57,17.31s-1.57,6.82-6.56,10.49c-0.56,0.42-1.37,0.63-2.35,0.7c-0.01,0.05-0.01,0.08-0.01,0.08
					s7.61,5.25,13.11,0.26c1.98-1.79,3.59-3.18,4.77-4.49C375.51,385.79,376.29,383.7,375.45,380.01z"/>
				<path class="st13" d="M429.05,471.35c2.11-9.76,7.18-32.95,10.64-46.13c3.42-13.02,6.23-25.89,8.03-34.65
					c-11.25,7.01-81.6,15.84-91.86,15.31c-1.69-0.09-3.27-0.59-4.67-1.42c-1.32,10.93-5.64,46.74-7.79,66.89H429.05z"/>
				<path class="st4" d="M555.11,471.92c1.37-5.82,2.1-12.42,1.28-15.79c-2.8-11.47-3.36-28.81-3.36-28.81l-0.04-0.12
					c-2.61,1.56-5.51,2.82-8.73,3.7c0,0-11.6,4.27-25.44-8.55c-0.96-0.89-1.9-1.71-2.84-2.5c-7.05,4.33-13.84,2.48-17.11,1.08
					c3.28,1.66,9.51,4.86,10.99,5.89c2.04,1.42,1.02,3.26-1.42,3.66c-2.44,0.41-16.08-5.29-18.72-7.53
					c-2.65-2.24-3.05-8.75-2.24-12.62c0.72-3.4,0.96-2.71,0.46-6.22c-5.48-1.57-10.96-3.64-13.91-6.13
					c-3.76-3.17-11.99-5.85-18.48-7.6c-1.6-0.43-3.1-0.81-4.4-1.12c-0.91-0.22-1.71-0.4-2.39-0.55c-0.15,0.77-0.32,1.57-0.49,2.42
					c-1.8,8.76-4.6,21.63-8.03,34.65c-3.46,13.17-8.53,36.36-10.64,46.13H555.11z"/>
				<path class="st15" d="M574.89,214.87c-2.34-1.7-9.38-0.13-12.56,0.85c-2.85,0.89-8.6-1.1-9.15-5.53
					c-0.56-4.54-4.25-12.06-7.81-18.55c-1.36-2.47-2.69-4.79-3.83-6.73c-1.23,1.18-2.53,2.77-3.81,4.5
					c-4.22,5.71-8.16,13.03-8.16,13.03l-6.06-9.65c-26.3,17.79-34.63,1.89-34.63,1.89s-2.45-3.28-0.38-5.49
					c1.98-2.11-9.08,8.14-9.08,8.14c-1.54-5.03,2.66-13.84,6.82-20.86c-2.43-0.37-6.38,0-13.06,2.5
					c-15.14,5.68-21.95,9.84-23.09,15.71c-0.15,0.79-0.57,2.43-1.19,4.69c-3.96,14.46-16.38,54.73-23.41,66.84
					c-8.14,14-15.14,23.46-15.14,25.74s-1.32,9.08-2.65,11.35c-1.79,3.08-5.9,8.52-9.9,13.62c-1.11,1.42-3.44,2.67-4.48,3.98
					c-3.62,4.52-5.3,8.14-5.3,8.14s3.24-1.07,8.87,4.91s4.93,12.67,4.93,12.67s-2.28,0.8-4.56,3.28c0.82,1.07,1.66,1.91,2.5,2.41
					c2.71,1.63,8.89,0.95,11.92-2.84l1.7-3.03c0,0,23.88-21.26,30.09-26.87c5.87-5.3,10.98-14.95,12.3-28.2
					c0,0,2.27,8.52-0.19,17.98c-2.46,9.46-9.65,44.28-9.27,50.15c0.25,3.81,0.41,7.77,0.81,11.06c0.21,1.79,0.5,3.38,0.89,4.64
					c1.14,3.6-0.19,8.14,0.19,10.22c0,0,0.85,0.17,2.26,0.48c0.68,0.15,1.48,0.34,2.39,0.55c1.29,0.31,2.79,0.69,4.4,1.12
					c6.49,1.75,14.72,4.43,18.48,7.6c2.95,2.48,8.43,4.55,13.91,6.13c-0.07-0.49-0.15-1.05-0.25-1.72
					c-0.81-5.49,2.65-6.72,5.09-8.75s-1.63-8.34,6.72-9.97c1.94-0.38,3.52-0.08,4.82,0.59c5.81-4.62,16.3-12.25,22.77-12.76
					l0.14-6.96c-0.7-1.08-1.41-2.22-2.14-3.39c-4.37-7.08-8.91-15.44-10.37-21.68c-3.08-13.15,8.11-29.93,11.19-36.09
					c0.62-1.23,1.53-4.14,2.61-8.01c0.98-16.75,2.41-33.07,3.95-41.14c0.82-4.27,3.91-7.38,7.65-8.56c1.36-2.39,5.91-4.77,9.75-5.44
					c4.49-0.78,7.62-1.95,14.84-4.3s10.16-7.03,10.16-7.03l0.01,0L574.89,214.87z"/>
				<path class="st6" d="M454.08,291.38c-1.32,13.25-6.43,22.9-12.3,28.2c-6.21,5.61-30.09,26.87-30.09,26.87l-1.7,3.03
					c-3.03,3.78-9.22,4.47-11.92,2.84c-0.84-0.5-1.67-1.35-2.5-2.41c-0.36,0.39-0.72,0.82-1.07,1.29
					c-3.87,5.28-16.89,33.78-19,35.54c-0.57,0.47-1.31,0.94-2.1,1.38c-1.19,1.31-2.79,2.69-4.77,4.49
					c-5.51,4.98-13.11-0.26-13.11-0.26s0-0.03,0.01-0.08c-2.66,0.19-6.61-0.75-10.64-2.08l2.17,6.16c0.81,2.51,2.51,4.59,4.68,5.88
					c1.39,0.83,2.98,1.33,4.67,1.42c10.27,0.53,80.61-8.31,91.86-15.31c0.17-0.85,0.34-1.65,0.49-2.42
					c-1.4-0.31-2.26-0.48-2.26-0.48c-0.38-2.08,0.95-6.62-0.19-10.22c-0.4-1.26-0.68-2.86-0.89-4.64c-0.4-3.3-0.56-7.26-0.81-11.06
					c-0.38-5.87,6.81-40.68,9.27-50.15C456.35,299.89,454.08,291.38,454.08,291.38z"/>
				<path class="st15" d="M287.95,469.1c0.12-3.15,0.25-6.47,0.38-9.68c-11.21,5.95-29.57,8.35-47.79,9.68H287.95z"/>
				<path class="st15" d="M210.38,469.1c-23.29-2.75-48.84-11.12-54.74-13.12l-0.73,13.12H210.38z"/>
				<path class="st14" d="M264.77,216.14c0.36,0.21,0.68,0.46,0.98,0.74c3.28-4.92,12.31-9.33,12.31-9.33s0.25,0.5,5.73-0.62
					c5.48-1.12,8.48-5.23,9.6-8.48c1.12-3.24,7.73-13.09,8.6-15.21c0.87-2.12,2.74-3.24,4.36-5.36c1.62-2.12-0.5-8.48-1-11.47
					c-0.5-2.99,1.82-8,2.52-9.74c0.53-1.33-1.58-12.61-3.53-19.69c-0.82-0.69-1.5-1.32-1.98-1.13c-1.44,0.57-3.35,1.15-3.92,4.59
					c-0.57,3.45,0.77,14.17-0.77,15.51c-1.53,1.34-1.53,2.97-5.74,3.25c-4.21,0.29-7.37,2.3-7.37,2.3s-2.78-4.31-5.26-2.49
					c-2.49,1.82-4.59,4.5-6.03,11.87c0,0-2.01,2.11-3.64,4.69c-1.63,2.58-2.49,9.57-6.8,9.48c-4.31-0.1-8.33-2.3-19.62-0.57
					c-10.16,1.55-14.43,1.77-17.91-2.87c-1.23,5.75-3.65,10.66-5.48,14.59c-1.44,3.09-3.98,6.78-5.88,9.49
					c9.62-0.03,25.34,0.68,31.23,2.09C253.24,209.7,260.78,213.75,264.77,216.14z"/>
				<path class="st4" d="M147.49,365.85c0,0-0.52,34.09-1.05,40.39c-0.52,6.29-6.03,29.9-1.31,41.17s8.65,10.49,8.65,10.49
					s0.45,0.16,1.27,0.44c5.9,2.01,31.45,10.38,54.74,13.12h30.16c18.22-1.33,36.58-3.73,47.79-9.68c4.43-2.35,7.75-5.25,9.49-8.86
					c5.03-10.41,7.08-73.17,7.08-77.1s-1.31-4.98-1.31-4.98s23.34,14.95,25.96,15.47c0,0,7.79,3.76,15.33,6.23
					c4.03,1.32,7.99,2.27,10.64,2.08c0.98-0.07,1.78-0.29,2.35-0.7c4.98-3.67,6.82-6.56,6.56-10.49s-1.31-14.95-1.57-17.31
					c-0.13-1.2-1.56-2.6-3.27-3.94c-1.65-1.29-3.57-2.5-4.86-3.41c-2.19-1.53-18.61-13.83-25.36-21.83
					c-1.34-1.59-2.31-3.01-2.7-4.14c-2.36-6.82-9.97-47.99-10.23-54.02c-0.26-6.03-10.29-42.57-36.72-49.04
					c-7.5-1.84-9.73-4.12-10.28-5.7c-0.41-1.16-1.04-2.22-1.92-3.03c-0.3-0.28-0.63-0.53-0.98-0.74c-3.99-2.39-11.53-6.43-19.6-8.36
					c-5.89-1.41-21.61-2.12-31.23-2.09c-4.4,0.01-7.52,0.18-7.85,0.51c0,0-11.15,5.7-16,7.87c-29.37,13.11-36.98,30.42-39.34,43.27
					c-2.36,12.85-4.2,36.72-5.24,42.48c0,0-5.25,39.08-5.51,44.06c-0.26,4.98-0.52,9.44,2.88,13.64
					C147.49,365.85,147.49,365.85,147.49,365.85z"/>
				<path class="st6" d="M375.58,223.98c0.68-1.41,1.25-2.78,1.75-4.11l-2.52,1.13C375.08,221.49,375.34,222.53,375.58,223.98z"/>
				<path class="st6" d="M414.34,204.68c3.72-4.09,6.56-6.98,6.56-6.98l-4.92-0.37C415.36,200.05,414.79,202.58,414.34,204.68z"/>
				<path class="st8" d="M612.27,182.94c-4.47,0.26-4.2,4.73-11.82,0.79s-8.41-4.47-9.2-2.63c-0.79,1.84-1.05,7.36-3.42,4.99
					s-9.2-10.51-9.2-10.51s-3.15,2.36-4.2,0.79c-1.05-1.58,0-3.94-1.84-6.04s0.79-3.68-1.05-5.78s-4.47-3.42-6.83-7.09
					c-2.36-3.68-2.63-4.2-7.36-4.73s-4.2-1.05-6.31-3.94s-4.6-0.4-7.55-7.69c-0.93,1.13-1.74,2.87-1.54,5.44
					c0.06,0.83,0.15,1.76,0.26,2.73c0.12,1.16,0.52,5.42,0.66,6.69c0.52,4.75,0.79,6.88,0.36,9.73c-0.64,4.26-5.32,8.3-2.34,13.41
					c0.58,0.99,1.42,2.4,2.41,4.09c1.14,1.95,2.48,4.27,3.83,6.73c3.56,6.49,7.25,14.01,7.81,18.55c0.55,4.44,6.3,6.42,9.15,5.53
					c3.18-0.99,10.22-2.55,12.56-0.85l1.66,11.24l4.68,0.39c0,0,3.74-1.05,8.9-2.37c8.21-2.09,20.05-4.84,26.25-5.05
					c3.45-0.12,11.47,0.77,16.41,1.38c-5.07-6.46-13.75-19.72-15.55-34.21C618.99,184.5,614.9,182.79,612.27,182.94z"/>
			</g>
			<g>
				<path class="st5" d="M670.31,345.55c-0.66,14.26,5.14,33.25,9.02,47.83c4.85-2.14,10.58-5.45,14.05-10.15
					c6.92-9.36-1.02-31.34-1.42-35c-0.41-3.66-10.79-45.18-12.21-53.93c-0.95-5.86-7.37-22.64-11.51-33.11
					C674.02,291.44,670.91,332.81,670.31,345.55z"/>
				<path class="st5" d="M550.72,81.96c0,0-4.35-2.84-5.68-5.11c-1.32-2.27-4.92-6.43-8.52-6.81c-3.6-0.38-7.38,0.95-11.16-1.14
					c-3.78-2.08-10.41-11.16-24.41-8.52c-14,2.65-27.25,10.03-27.44,12.68c-0.19,2.65-5.92,7.59-2.89,11.75s5.03,4.12,5.45,5.21
					c0.2,0.53,0.62,0.9,1.42,1.02c2.46,0.38,7-0.76,9.08,1.32c2.08,2.08,2.46,1.89,5.3,0.57c2.84-1.32,3.6-1.89,6.24-0.38
					c2.65,1.51,6.62-0.57,8.89,0s6.24,3.6,6.06,7.38c-0.19,3.78-2.46,10.03,0.57,11.16s7,0,8.33,1.51c1.32,1.51,2.27,5.68,2.84,3.78
					s1.7-8.14,3.41-6.24c1.7,1.89,0,3.41,3.03,2.65c1.36-0.34,3.17-2.08,5.3-2.27c2.6-0.23,5.5,1.21,6.43,2.46
					c0.94,1.26,2.29,2.45,3.3,3.27c0.21-0.22,0.41-0.45,0.62-0.67c0.51-0.55,1.04-1.1,1.56-1.65c0.39-0.41,0.7-0.8,0.98-1.16
					c1.47-3.68,3.4-8.39,3.75-9.44C553.75,101.64,560.75,86.31,550.72,81.96z"/>
				<path class="st5" d="M542.59,122.64c0.27-2.33,1.84-4.36,3.68-6.38c-1.02-0.82-2.36-2.02-3.3-3.27
					c-0.94-1.25-3.83-2.69-6.43-2.46c-2.13,0.19-3.94,1.93-5.3,2.27c-3.03,0.76-1.32-0.76-3.03-2.65c-1.7-1.89-2.84,4.35-3.41,6.24
					s-1.51-2.27-2.84-3.78c-1.32-1.51-5.3-0.38-8.33-1.51s-0.76-7.38-0.57-11.16c0.19-3.78-3.78-6.81-6.06-7.38s-6.24,1.51-8.89,0
					c-2.65-1.51-3.41-0.95-6.24,0.38c-2.84,1.32-3.22,1.51-5.3-0.57c-2.08-2.08-6.62-0.95-9.08-1.32c-0.8-0.12-1.22-0.49-1.42-1.02
					c-1.92,3.39-4.63,8.97-4.26,12.94c0.57,6.06,4.54,24.22,4.54,24.22s-8.14,8.52-7.38,12.11c0.57,2.72,5.38,1.33,7,0.95
					c0,0,2.84,3.6,2.27,8.33s-1.89,13.62,1.14,16.27c2.4,2.1,3.37,4.07,9.95,3.21c1.74-0.23,3.86-0.65,6.51-1.32
					c0,0,4.35,18.54,4.73,19.49c0.21,0.52,6.37,0.1,14.95-5.87c6.92-4.81,15.55-13.98,22.9-23.28l0.95-0.29
					c-0.14-1.27-0.54-5.53-0.66-6.69c-0.1-0.98-0.19-1.9-0.26-2.73c-0.2-2.57,0.62-4.3,1.54-5.44c-0.13-1.04,0.02-2.03,0.51-2.83
					c1.51-2.46-4.16-3.97-1.51-8.89C541.64,125.29,542.21,125.86,542.59,122.64z"/>
				<path class="st5" d="M539.73,166.52c0.43-2.85,0.16-4.98-0.36-9.73l-0.95,0.29c-7.35,9.29-15.98,18.47-22.9,23.28
					c-8.58,5.96-14.74,6.39-14.95,5.87c-0.38-0.95-4.73-19.49-4.73-19.49c-2.65,0.67-4.77,1.09-6.51,1.32
					c-1.31,1.9-3.07,4.55-4.84,7.53c-4.16,7.01-8.36,15.83-6.82,20.86c0,0,10.6-10.35,8.94-7.98c-1.67,2.39,0.52,5.33,0.52,5.33
					s8.33,15.9,34.63-1.89l6.06,9.65c0,0,3.94-7.32,8.16-13.03c1.28-1.73,2.59-3.32,3.81-4.5c-0.99-1.69-1.83-3.1-2.41-4.09
					C534.41,174.82,539.1,170.78,539.73,166.52z"/>
				<path class="st5" d="M548.56,242.76c9.67,5.19,19.6,20.25,25.66,30.74c2.2,3.81,3.89,7.02,4.86,8.93
					c0.63,1.22,0.9,2.59,0.82,3.96l-4.34,66.72c0,0,5.04,46.42-17.29,66.46c-1.62,1.46-3.39,2.77-5.32,3.92l0.04,0.12
					c0,0,0.56,17.34,3.36,28.81c0.82,3.37,0.09,9.96-1.28,15.79h144.87c0.53-4.27,0.75-10.91-1.2-18.3
					c-4.24-16.07-15.23-35.8-16.46-43.71c-0.55-3.55-1.64-7.94-2.94-12.82c-3.88-14.58-9.68-33.57-9.02-47.83
					c0.59-12.74,3.71-54.11-2.08-84.36c-2.86-14.94-7.9-27.16-16.48-31.87c-6.62-3.64-11.01-6.52-13.14-7.98
					c-1.02-0.7-2.19-1.13-3.42-1.25c0,0-1.69-0.23-4.14-0.53c-4.94-0.6-12.96-1.49-16.41-1.38c-6.21,0.21-18.04,2.96-26.25,5.05
					c-5.16,1.31-8.9,2.37-8.9,2.37l-4.68-0.39l-0.01,0c0,0-2.93,4.69-10.16,7.03s-10.35,3.52-14.84,4.3
					c-3.84,0.67-8.39,3.05-9.75,5.44C542.75,241.13,545.79,241.28,548.56,242.76z"/>
				<path class="st5" d="M498.83,417.22c-1.22-0.62-2.03-1.02-2.03-1.02S497.54,416.67,498.83,417.22z"/>
				<path class="st5" d="M525.85,299.69c-3.08,6.15-14.27,22.94-11.19,36.09c1.46,6.23,6,14.6,10.37,21.68
					c0.72,1.17,1.44,2.3,2.14,3.39l0.07-3.49l0.69-34.36l0.2-25.44c0.1-1.95,0.21-3.91,0.32-5.87
					C527.39,295.56,526.47,298.46,525.85,299.69z"/>
				<path class="st5" d="M508.61,385.84c0.5-0.01,0.98-0.01,1.43,0.01c5.06,0.16,7.31,1.66,7.31,1.66l9.36-4.07l0.32-15.63
					c-6.46,0.51-16.96,8.14-22.77,12.76C506.46,381.71,507.81,383.94,508.61,385.84z"/>
				<path class="st5" d="M579.89,286.4c0.09-1.37-0.19-2.74-0.82-3.96c-0.98-1.91-2.66-5.12-4.86-8.93
					c-6.05-10.49-15.99-25.56-25.66-30.74c-2.77-1.48-5.8-1.63-8.5-0.78c-3.74,1.18-6.83,4.3-7.65,8.56
					c-1.54,8.07-2.97,24.39-3.95,41.14c-0.11,1.96-0.22,3.92-0.32,5.87l-0.2,25.44l-0.69,34.36l-0.07,3.49l-0.14,6.96l-0.32,15.63
					l-9.36,4.07c0,0-2.24-1.49-7.31-1.66c-0.45-0.01-0.94-0.01-1.43-0.01c-0.8-1.9-2.15-4.13-4.35-5.28
					c-1.29-0.67-2.88-0.97-4.82-0.59c-8.34,1.63-4.27,7.94-6.72,9.97s-5.9,3.26-5.09,8.75c0.1,0.67,0.18,1.23,0.25,1.72
					c0.5,3.51,0.26,2.82-0.46,6.22c-0.81,3.87-0.41,10.38,2.24,12.62c2.65,2.24,16.28,7.94,18.72,7.53
					c2.44-0.41,3.46-2.24,1.42-3.66c-1.48-1.04-7.72-4.23-10.99-5.89c-1.29-0.55-2.03-1.02-2.03-1.02s0.81,0.41,2.03,1.02
					c3.27,1.39,10.06,3.25,17.11-1.08c0.94,0.78,1.88,1.61,2.84,2.5c13.84,12.82,25.44,8.55,25.44,8.55
					c3.22-0.87,6.12-2.13,8.73-3.7c1.92-1.15,3.69-2.47,5.32-3.92c22.33-20.04,17.29-66.46,17.29-66.46L579.89,286.4z"/>
				<path class="st5" d="M367.5,351.24c1.51,4.51,2.39,10.05,2.39,10.05c4.72,2.88,4.2,12.06,5.51,17.83
					c0.84,3.69,0.06,5.77-2.05,8.1c0.79-0.44,1.53-0.91,2.1-1.38c2.11-1.76,15.13-30.26,19-35.54c0.35-0.48,0.71-0.9,1.07-1.29
					c2.28-2.48,4.56-3.28,4.56-3.28s0.7-6.69-4.93-12.67s-8.87-4.91-8.87-4.91l-2.74,7.38C379.52,342.62,372,348.29,367.5,351.24z"
					/>
				<path class="st5" d="M378.17,196.61c0,0,4.93,10.72-2.65,26.48c0.2,1.21,0.38,2.69,0.54,4.41c6.3,1.95,12.94,0.53,18.03-1.41
					c0,0,0,0,0,0c1.35-5.63,10.76-16.72,17.37-23.99c2.4-11,7.8-34.12,7.8-34.12s0.93,4.09,3.16,2.05
					c2.23-2.05,5.21-13.39,2.98-15.25c-2.53-2.11-4.46,1.49-4.46,1.49s-0.42-18.71-3.72-20.08c-4.46-1.86-5.58-5.58-10.78-6.69
					c-5.21-1.12-18.41-6.32-19.9-7.81s-23.06,1.3-24.92,26.59l-0.93,2.42c0,0-0.11-0.1-0.25-0.16c-0.39-0.15-1.05,0.1-0.5,4.06
					c0.74,5.39-1.3,14.5,0.19,15.25c0.42,0.21,0.93,1.45,1.75,3.4C363.99,178.21,368.15,187.79,378.17,196.61z"/>
				<path class="st5" d="M376.07,227.49c0.09,0.93,0.17,1.96,0.26,3.02c2.57,5.02,3.89,10.3,4.08,12.4c0.14,1.54,2.5,4.33,5.39,7.2
					c1.27-3.68,2.55-7.22,3.72-10.45c0.75-2.08,1.46-4.02,2.09-5.8c1.16-3.28,2.07-5.98,2.5-7.77
					C389.01,228.02,382.37,229.45,376.07,227.49z"/>
				<path class="st5" d="M440.46,199.13c-2.62,0.04-5.46-0.17-8.35-0.85c-10.56-2.46-14.08-3.17-14.08-3.17s-2.84,2.89-6.56,6.98
					c-6.61,7.27-16.02,18.36-17.37,23.99c0,0,0,0,0,0c-0.43,1.79-1.33,4.49-2.5,7.77c-0.63,1.78-1.33,3.72-2.09,5.8
					c-1.17,3.23-2.45,6.78-3.72,10.45c4.77,4.74,10.97,9.72,10.97,9.72c-0.19,12.46-12.46,18.04-12.46,18.04s-1.83-4.46-4.58-7.53
					c-0.62-0.69-1.28-1.29-1.98-1.77c-0.64-0.43-1.3-0.77-1.99-0.93c-3.55-0.82-8-1.34-11.22-3.03c0.22,4.84,0.52,15.66-1.05,18.09
					l0.19,7.62c0,0,0.21,2.24-2.75,4.05c-3.59,2.2-11.25,1.96-13.05-3.55c-0.36-1.1-0.74-0.92-1.12-1.43c0,0-3.79-4.95-8.72-11.63
					c-0.39,1.7-0.65,3.19-0.73,4.36c-0.54,8.35-5.51,37.46-7.98,51.57c6.75,7.99,23.18,20.3,25.36,21.83
					c1.29,0.9,3.21,2.12,4.86,3.41c0.08-0.78,0.12-1.33,0.12-1.57c0-2.36-0.79-4.72-1.84-7.34s2.36-5.25,6.03-4.46
					c1.44,0.31,2.67,2.78,3.64,5.68c4.5-2.95,12.02-8.61,16.04-15.71l2.74-7.38c0,0,1.68-3.62,5.3-8.14
					c1.05-1.31,3.37-2.56,4.48-3.98c4-5.09,8.11-10.54,9.9-13.62c1.32-2.27,2.65-9.08,2.65-11.35s7-11.73,15.14-25.74
					c7.04-12.11,19.45-52.38,23.41-66.84C445.26,198.82,442.97,199.09,440.46,199.13z"/>
				<path class="st5" d="M375.53,223.09c-0.24-1.45-0.49-2.49-0.78-2.98c0,0-2.05,0.86-4.81,2.08c2.65,2.1,4.76,5.16,6.38,8.33
					c-0.08-1.06-0.17-2.08-0.26-3.02C375.91,225.77,375.72,224.29,375.53,223.09z"/>
				<path class="st5" d="M354.86,231.94c-0.2,0.49-0.43,1.05-0.7,1.7c3.29,1.69,5.61,2.96,5.61,2.96S357.66,234.61,354.86,231.94z"
					/>
				<path class="st5" d="M368.88,232.31l-4.65-5.58c0,0-0.5-0.57-1.12-1.38c-0.9,0.44-1.76,0.87-2.58,1.3
					C365.03,229.65,368.88,232.31,368.88,232.31z"/>
				<path class="st5" d="M332.43,225.25c0.52-0.48,2.06-0.23,4.17,0.45c-1.76-2.7-4.29-5.61-6.77-5.1c-3.14,0.65,1.16,8.55,4,13.2
					c3.73,0.51,9.76,2.98,9.76,2.98S330.01,227.48,332.43,225.25z"/>
				<path class="st5" d="M348.51,247.49c-0.07,0.17-0.14,0.34-0.21,0.52c1,0.17,1.61,0.29,1.61,0.29S349.38,248,348.51,247.49z"/>
				<path class="st5" d="M363.49,282.7c1.58-2.44,1.28-13.25,1.05-18.09c-1.16-0.61-2.17-1.37-2.91-2.36
					c-2.79-3.72-5.58-3.16-8.93-4.46c-1.1-0.43-3.97-1.3-7.28-2.38c-6.77-2.22-15.41-5.35-14.66-7.47c0.91-2.58,13.1-0.7,17.54,0.08
					c0.07-0.17,0.14-0.34,0.21-0.52c-4.43-2.58-17.87-10.62-17.56-12.95c0.05-0.35,0.28-0.58,0.66-0.71l-0.48-0.78
					c0,0-5.76-11.53-10.41-10.6c-2.26,0.45,9.48,21.94,9.48,21.94s-13.02-17.48-15.25-15.06c-2.23,2.42,11.16,15.99,11.71,16.92
					c0.56,0.93,5.02,6.69,3.53,8c-1.49,1.3-10.78-13.39-14.13-11.34c-2.23,1.36,12.13,21.54,21.96,34.86
					c4.93,6.67,8.72,11.63,8.72,11.63c0.37,0.52,0.76,0.34,1.12,1.43c1.81,5.51,9.46,5.75,13.05,3.55c2.96-1.81,2.75-4.05,2.75-4.05
					L363.49,282.7z"/>
				<path class="st5" d="M385.8,250.11c-2.89-2.87-5.25-5.66-5.39-7.2c-0.19-2.1-1.51-7.38-4.08-12.4
					c-1.62-3.17-3.74-6.23-6.38-8.33c-1.34-1.06-2.8-1.88-4.41-2.33c-7.47-2.12-4.36,2.93-2.42,5.5c0.62,0.82,1.12,1.38,1.12,1.38
					l4.65,5.58c0,0-3.84-2.66-8.34-5.67c-1.05-0.7-2.14-1.42-3.23-2.13c-4.53-2.96-8.97-5.74-10.37-6.15
					c-3.16-0.93-6.32-2.05-5.76-0.37c0.37,1.1,8.3,8.8,13.68,13.94c2.8,2.67,4.91,4.65,4.91,4.65s-2.32-1.26-5.61-2.96
					c-5.2-2.67-12.81-6.41-17.56-7.94c-2.1-0.68-3.65-0.93-4.17-0.45c-2.42,2.23,11.16,11.53,11.16,11.53s-6.03-2.46-9.76-2.98
					c-0.92-0.13-1.7-0.14-2.22,0.04c-0.38,0.13-0.62,0.36-0.66,0.71c-0.31,2.33,13.13,10.37,17.56,12.95
					c0.87,0.51,1.4,0.81,1.4,0.81s-0.61-0.12-1.61-0.29c-4.44-0.78-16.63-2.66-17.54-0.08c-0.75,2.12,7.89,5.25,14.66,7.47
					c3.31,1.09,6.18,1.96,7.28,2.38c3.35,1.3,6.14,0.74,8.93,4.46c0.74,0.99,1.75,1.75,2.91,2.36c3.22,1.69,7.67,2.21,11.22,3.03
					c0.69,0.16,1.35,0.49,1.99,0.93c0.7,0.48,1.36,1.09,1.98,1.77c2.75,3.06,4.58,7.53,4.58,7.53s12.27-5.58,12.46-18.04
					C396.77,259.83,390.57,254.86,385.8,250.11z"/>
				<path class="st5" d="M375.4,379.12c-1.31-5.77-0.79-14.95-5.51-17.83c0,0-0.88-5.54-2.39-10.05c-0.97-2.9-2.21-5.37-3.64-5.68
					c-3.67-0.79-7.08,1.84-6.03,4.46s1.84,4.98,1.84,7.34c0,0.24-0.04,0.79-0.12,1.57c1.71,1.33,3.14,2.74,3.27,3.94
					c0.26,2.36,1.31,13.37,1.57,17.31s-1.57,6.82-6.56,10.49c-0.56,0.42-1.37,0.63-2.35,0.7c-0.01,0.05-0.01,0.08-0.01,0.08
					s7.61,5.25,13.11,0.26c1.98-1.79,3.59-3.18,4.77-4.49C375.46,384.9,376.24,382.82,375.4,379.12z"/>
				<path class="st5" d="M429.56,468.21c2.11-9.76,7.18-32.95,10.64-46.13c3.42-13.02,6.23-25.89,8.03-34.65
					c-11.25,7.01-81.6,15.84-91.86,15.31c-1.69-0.09-3.27-0.59-4.67-1.42c-1.32,10.93-5.64,46.74-7.79,66.89H429.56z"/>
				<path class="st5" d="M555.06,468.21c1.37-5.82,2.1-12.42,1.28-15.79c-2.8-11.47-3.36-28.81-3.36-28.81l-0.04-0.12
					c-2.61,1.56-5.51,2.82-8.73,3.7c0,0-11.6,4.27-25.44-8.55c-0.96-0.89-1.9-1.71-2.84-2.5c-7.05,4.33-13.84,2.48-17.11,1.08
					c3.28,1.66,9.51,4.86,10.99,5.89c2.04,1.42,1.02,3.26-1.42,3.66c-2.44,0.41-16.08-5.29-18.72-7.53
					c-2.65-2.24-3.05-8.75-2.24-12.62c0.72-3.4,0.96-2.71,0.46-6.22c-5.48-1.57-10.96-3.64-13.91-6.13
					c-3.76-3.17-11.99-5.85-18.48-7.6c-1.6-0.43-3.1-0.81-4.4-1.12c-0.91-0.22-1.71-0.4-2.39-0.55c-0.15,0.77-0.32,1.57-0.49,2.42
					c-1.8,8.76-4.6,21.63-8.03,34.65c-3.46,13.17-8.53,36.36-10.64,46.13H555.06z"/>
				<path class="st5" d="M573.15,213.98c-2.34-1.7-9.38-0.13-12.56,0.85c-2.85,0.89-8.6-1.1-9.15-5.53
					c-0.56-4.54-4.25-12.06-7.81-18.55c-1.36-2.47-2.69-4.79-3.83-6.73c-1.23,1.18-2.53,2.77-3.81,4.5
					c-4.22,5.71-8.16,13.03-8.16,13.03l-6.06-9.65c-26.3,17.79-34.63,1.89-34.63,1.89s-2.45-3.28-0.38-5.49
					c1.98-2.11-9.08,8.14-9.08,8.14c-1.54-5.03,2.66-13.84,6.82-20.86c-2.43-0.37-6.38,0-13.06,2.5
					c-15.14,5.68-21.95,9.84-23.09,15.71c-0.15,0.79-0.57,2.43-1.19,4.69c-3.96,14.46-16.38,54.73-23.41,66.84
					c-8.14,14-15.14,23.46-15.14,25.74s-1.32,9.08-2.65,11.35c-1.79,3.08-5.9,8.52-9.9,13.62c-1.11,1.42-3.44,2.67-4.48,3.98
					c-3.62,4.52-5.3,8.14-5.3,8.14s3.24-1.07,8.87,4.91s4.93,12.67,4.93,12.67s-2.28,0.8-4.56,3.28c0.82,1.07,1.66,1.91,2.5,2.41
					c2.71,1.63,8.89,0.95,11.92-2.84l1.7-3.03c0,0,23.88-21.26,30.09-26.87c5.87-5.3,10.98-14.95,12.3-28.2
					c0,0,2.27,8.52-0.19,17.98c-2.46,9.46-9.65,44.28-9.27,50.15c0.25,3.81,0.41,7.77,0.81,11.06c0.21,1.79,0.5,3.38,0.89,4.64
					c1.14,3.6-0.19,8.14,0.19,10.22c0,0,0.85,0.17,2.26,0.48c0.68,0.15,1.48,0.34,2.39,0.55c1.29,0.31,2.79,0.69,4.4,1.12
					c6.49,1.75,14.72,4.43,18.48,7.6c2.95,2.48,8.43,4.55,13.91,6.13c-0.07-0.49-0.15-1.05-0.25-1.72
					c-0.81-5.49,2.65-6.72,5.09-8.75s-1.63-8.34,6.72-9.97c1.94-0.38,3.52-0.08,4.82,0.59c5.81-4.62,16.3-12.25,22.77-12.76
					l0.14-6.96c-0.7-1.08-1.41-2.22-2.14-3.39c-4.37-7.08-8.91-15.44-10.37-21.68c-3.08-13.15,8.11-29.93,11.19-36.09
					c0.62-1.23,1.53-4.14,2.61-8.01c0.98-16.75,2.41-33.07,3.95-41.14c0.82-4.27,3.91-7.38,7.65-8.56c1.36-2.39,5.91-4.77,9.75-5.44
					c4.49-0.78,7.62-1.95,14.84-4.3s10.16-7.03,10.16-7.03l0.01,0L573.15,213.98z"/>
				<path class="st5" d="M454.03,290.49c-1.32,13.25-6.43,22.9-12.3,28.2c-6.21,5.61-30.09,26.87-30.09,26.87l-1.7,3.03
					c-3.03,3.78-9.22,4.47-11.92,2.84c-0.84-0.5-1.67-1.35-2.5-2.41c-0.36,0.39-0.72,0.82-1.07,1.29
					c-3.87,5.28-16.89,33.78-19,35.54c-0.57,0.47-1.31,0.94-2.1,1.38c-1.19,1.31-2.79,2.69-4.77,4.49
					c-5.51,4.98-13.11-0.26-13.11-0.26s0-0.03,0.01-0.08c-2.66,0.19-6.61-0.75-10.64-2.08l2.17,6.16c0.81,2.51,2.51,4.59,4.68,5.88
					c1.39,0.83,2.98,1.33,4.67,1.42c10.27,0.53,80.61-8.31,91.86-15.31c0.17-0.85,0.34-1.65,0.49-2.42
					c-1.4-0.31-2.26-0.48-2.26-0.48c-0.38-2.08,0.95-6.62-0.19-10.22c-0.4-1.26-0.68-2.86-0.89-4.64c-0.4-3.3-0.56-7.26-0.81-11.06
					c-0.38-5.87,6.81-40.68,9.27-50.15C456.3,299,454.03,290.49,454.03,290.49z"/>
				<path class="st5" d="M287.9,468.21c0.12-3.15,0.25-6.47,0.38-9.68c-11.21,5.95-29.57,8.35-47.79,9.68H287.9z"/>
				<path class="st5" d="M210.33,468.21c-23.29-2.75-48.84-11.12-54.74-13.12l-0.73,13.12H210.33z"/>
				<path class="st5" d="M266.5,217.02c0.36,0.21,0.68,0.46,0.98,0.74c3.28-4.92,12.31-9.33,12.31-9.33s0.25,0.5,5.73-0.62
					c5.48-1.12,8.48-5.23,9.6-8.48c1.12-3.24,7.73-13.09,8.6-15.21c0.87-2.12,2.74-3.24,4.36-5.36c1.62-2.12-0.5-8.48-1-11.47
					c-0.5-2.99,1.82-8,2.52-9.74c0.53-1.33-1.58-12.61-3.53-19.69c-0.82-0.69-1.5-1.32-1.98-1.13c-1.44,0.57-3.35,1.15-3.92,4.59
					c-0.57,3.45,0.77,14.17-0.77,15.51c-1.53,1.34-1.53,2.97-5.74,3.25c-4.21,0.29-7.37,2.3-7.37,2.3s-2.78-4.31-5.26-2.49
					c-2.49,1.82-4.59,4.5-6.03,11.87c0,0-2.01,2.11-3.64,4.69c-1.63,2.58-2.49,9.57-6.8,9.48c-4.31-0.1-8.33-2.3-19.62-0.57
					c-10.16,1.55-14.43,1.77-17.91-2.87c-1.23,5.75-3.65,10.66-5.48,14.59c-1.44,3.09-3.98,6.78-5.88,9.49
					c9.62-0.03,25.34,0.68,31.23,2.09C254.96,210.58,262.51,214.63,266.5,217.02z"/>
				<path class="st5" d="M148.03,362.6c0,0-0.52,34.09-1.05,40.39c-0.52,6.29-6.03,29.9-1.31,41.17s8.65,10.49,8.65,10.49
					s0.45,0.16,1.27,0.44c5.9,2.01,31.45,10.38,54.74,13.12h30.16c18.22-1.33,36.58-3.73,47.79-9.68c4.43-2.35,7.75-5.25,9.49-8.86
					c5.03-10.41,7.08-73.17,7.08-77.1s-1.31-4.98-1.31-4.98s23.34,14.95,25.96,15.47c0,0,7.79,3.76,15.33,6.23
					c4.03,1.32,7.99,2.27,10.64,2.08c0.98-0.07,1.78-0.29,2.35-0.7c4.98-3.67,6.82-6.56,6.56-10.49s-1.31-14.95-1.57-17.31
					c-0.13-1.2-1.56-2.6-3.27-3.94c-1.65-1.29-3.57-2.5-4.86-3.41c-2.19-1.53-18.61-13.83-25.36-21.83
					c-1.34-1.59-2.31-3.01-2.7-4.14c-2.36-6.82-9.97-47.99-10.23-54.02c-0.26-6.03-10.29-42.57-36.72-49.04
					c-7.5-1.84-9.73-4.12-10.28-5.7c-0.41-1.16-1.04-2.22-1.92-3.03c-0.3-0.28-0.63-0.53-0.98-0.74c-3.99-2.39-11.53-6.43-19.6-8.36
					c-5.89-1.41-21.61-2.12-31.23-2.09c-4.4,0.01-7.52,0.18-7.85,0.51c0,0-11.15,5.7-16,7.87c-29.37,13.11-36.98,30.42-39.34,43.27
					c-2.36,12.85-4.2,36.72-5.24,42.48c0,0-5.25,39.08-5.51,44.06c-0.26,4.98-0.52,9.44,2.88,13.64
					C148.03,362.6,148.03,362.6,148.03,362.6z"/>
				<path class="st5" d="M375.53,223.09c0.68-1.41,1.25-2.78,1.75-4.11l-2.52,1.13C375.03,220.6,375.29,221.64,375.53,223.09z"/>
				<path class="st7" d="M378.17,196.61c-10.02-8.82-14.19-18.41-16.29-23.38c0.21,3.15,0.37,7.09,0.3,12.04
					c-0.13,8.77-3.12,27.87-4.88,39.24c1.09,0.71,2.17,1.43,3.23,2.13c0.81-0.42,1.68-0.86,2.58-1.3c-1.94-2.56-5.05-7.61,2.42-5.5
					c1.61,0.46,3.08,1.27,4.41,2.33c2.76-1.22,4.81-2.08,4.81-2.08l2.52-1.13C382.26,205.5,378.17,196.61,378.17,196.61z"/>
				<path class="st5" d="M411.47,202.1c3.72-4.09,6.56-6.98,6.56-6.98l-4.92-0.37C412.49,197.47,411.93,200.01,411.47,202.1z"/>
				<path class="st7" d="M440.46,199.13c-2.6-10.16-9.51-40.75-9.66-44.36c-0.19-4.28-8.93-30.68-15.06-33.28s-7.81-8.74-20.83-7.81
					c0,0-6.88,0.93-6.88,1.86c0,0.93-3.35-2.6-6.88-2.05s-9.11,2.98-13.39,8.37c-4.28,5.39-4.28,7.44-6.14,10.6
					c-1.86,3.16-1.49,10.78-1.49,13.2c0,0.78,0.14,2.63,0.31,4.86c0.14,0.05,0.25,0.16,0.25,0.16l0.93-2.42
					c1.86-25.29,23.43-28.08,24.92-26.59s14.69,6.69,19.9,7.81c5.21,1.12,6.32,4.83,10.78,6.69c3.3,1.37,3.72,20.08,3.72,20.08
					s1.93-3.6,4.46-1.49c2.23,1.86-0.74,13.2-2.98,15.25c-2.23,2.05-3.16-2.05-3.16-2.05s-3.54,15.16-6.16,26.77l4.92,0.37
					c0,0,3.52,0.7,14.08,3.17C435,198.96,437.84,199.17,440.46,199.13z"/>
				<path class="st7" d="M309.83,127.46c-0.77-1.63,5.64-8.32,1.91-13.02c-2.58-3.25-9.48-6.22-14.64-8.71
					c-5.17-2.49-12.83-3.06-21.34-4.98c-8.52-1.91-9,0.29-16.65,2.58c-7.66,2.3-11.2,3.06-15.41,3.35
					c-4.21,0.29-6.6,1.15-11.58,3.92c-4.98,2.78-4.51,1.54-4.21,7.56c0.29,5.74-2.2,4.21-4.31,7.18s-7.37,8.52-10.91,13.02
					s-1.53,3.64-0.86,13.59c0.67,9.95,4.5,13.5,4.5,13.5l0.64,1.02c2.08,3.81,1.95,9.41,4.63,9.41c0.69,0,0.9-0.27,1.2-0.1
					l3.11,4.98c-0.81-1.4-1.59-2.73-2.34-4c0.46,0.74,1.16,1.97,2.34,4c0.37,0.64,0.75,1.2,1.14,1.72
					c3.47,4.64,7.74,4.42,17.91,2.87c11.29-1.72,15.31,0.48,19.62,0.57c4.31,0.1,5.17-6.89,6.8-9.48c1.63-2.58,3.64-4.69,3.64-4.69
					c1.44-7.37,3.54-10.05,6.03-11.87c2.49-1.82,5.26,2.49,5.26,2.49s3.16-2.01,7.37-2.3c4.21-0.29,4.21-1.91,5.74-3.25
					c1.53-1.34,0.19-12.06,0.77-15.51c0.57-3.45,2.49-4.02,3.92-4.59c0.49-0.2,1.16,0.44,1.98,1.13c1.6,1.34,3.79,2.89,6.34-1.03
					C317.96,128.32,310.76,129.44,309.83,127.46z"/>
				<line class="st5" x1="573.15" y1="213.98" x2="570.41" y2="200.33"/>
				<path class="st5" d="M608.77,183.78c-4.47,0.26-4.2,4.73-11.82,0.79s-8.41-4.47-9.2-2.63c-0.79,1.84-1.05,7.36-3.42,4.99
					s-9.2-10.51-9.2-10.51s-3.15,2.36-4.2,0.79c-1.05-1.58,0-3.94-1.84-6.04s0.79-3.68-1.05-5.78s-4.47-3.42-6.83-7.09
					c-2.36-3.68-2.63-4.2-7.36-4.73s-4.2-1.05-6.31-3.94s-4.6-0.4-7.55-7.69c-0.93,1.13-1.74,2.87-1.54,5.44
					c0.06,0.83,0.15,1.76,0.26,2.73c0.12,1.16,0.52,5.42,0.66,6.69c0.52,4.75,0.79,6.88,0.36,9.73c-0.64,4.26-5.32,8.3-2.34,13.41
					c0.58,0.99,1.42,2.4,2.41,4.09c1.14,1.95,2.48,4.27,3.83,6.73c3.56,6.49,7.25,14.01,7.81,18.55c0.55,4.44,6.3,6.42,9.15,5.53
					c3.18-0.99,10.22-2.55,12.56-0.85l1.66,11.24l4.68,0.39c0,0,3.74-1.05,8.9-2.37c8.21-2.09,20.05-4.84,26.25-5.05
					c3.45-0.12,11.47,0.77,16.41,1.38c-5.07-6.46-13.75-19.72-15.55-34.21C615.5,185.33,611.41,183.62,608.77,183.78z"/>
				<path class="st7" d="M631.34,143.65c-1.32-2.84,0.57-3.41,1.32-5.11s-0.95-2.65-3.03-4.35c-2.08-1.7-2.46-6.62-3.6-9.84
					s-5.49-3.03-5.11-6.06c0.38-3.03-1.32-9.46-2.46-10.79c-1.14-1.32-10.22-5.11-14-6.43c-3.78-1.32-4.35-0.19-6.24-0.57
					c-1.89-0.38-1.51-3.03-2.08-3.78s-6.62,0.38-9.84,0.76c-3.22,0.38-3.97-1.7-6.62-0.57c-2.65,1.14-4.92,0.57-7,0
					c-2.08-0.57-1.32,1.89-3.97,1.7c-2.65-0.19-3.97,1.51-6.24,4.16c-2.27,2.65-2.84,2.65-4.73,3.03c-1.89,0.38-1.89,2.08-2.08,3.22
					s-1.14,0.95-3.03,0.76c-1.62-0.16-1.58,0.92-3.18,3.01c-0.27,0.36-0.59,0.74-0.98,1.16c-0.52,0.56-1.05,1.11-1.56,1.65
					c-0.21,0.22-0.42,0.45-0.62,0.67c-1.85,2.02-3.41,4.05-3.68,6.38c-0.38,3.22-0.95,2.65-3.6,7.57c-2.65,4.92,3.03,6.43,1.51,8.89
					c-0.49,0.79-0.64,1.78-0.51,2.83c2.96,7.29,5.45,4.8,7.55,7.69s1.58,3.42,6.31,3.94s4.99,1.05,7.36,4.73
					c2.36,3.68,4.99,4.99,6.83,7.09s-0.79,3.68,1.05,5.78s0.79,4.47,1.84,6.04c1.05,1.58,4.2-0.79,4.2-0.79s6.83,8.15,9.2,10.51
					s2.63-3.15,3.42-4.99c0.79-1.84,1.58-1.31,9.2,2.63s7.36-0.53,11.82-0.79c2.77-0.16,5.85,1.09,7.78,2.07c0.01,0,0.01,0,0.02,0
					c6.06,0.19,7.76-6.81,7.76-6.81s3.41,0.57,5.11-2.84s-2.08-5.3-2.46-9.65c-0.38-4.35,1.89-3.6,6.24-10.03
					C637.58,150.08,632.66,146.49,631.34,143.65z"/>
			</g>
			<path class="st5" d="M555.54,160.65c0,0,2.98-9.13,6.89,0.75c3.91,9.87-2.9,21.46-4.35,22.54c-1.11,0.83-2.17-0.54-2.54-2.35"/>
			<path class="st5" d="M515.93,416.14c0,0-17.81-7.28-18.7-9.96"/>
			<path class="st5" d="M502.37,410.2c0,0-8.04,3.57-7.59,5.36"/>
			<path class="st5" d="M503.93,386.3c0,0-11.84,3.8-10.27,17.42"/>
			<path class="st5" d="M526.72,376.92c0,0-5.7,2.65-13.18,4.69c-4.91,1.34-4.93,4.23-4.93,4.23"/>
			<path class="st5" d="M411.64,345.55c0,0,4.31-11.94-16.51-27.89"/>
			<path class="st5" d="M399.41,352.07c0,0,1.62-1.92,0.74-7.38"/>
			<line class="st5" x1="454.03" y1="290.49" x2="452.72" y2="271"/>
			<path class="st5" d="M421.71,268.05c0,0-21.97-5.36-24.94-8.22"/>
			<path class="st5" d="M384.31,277.87c0,0-1.74-0.07-0.7,1.11c1.03,1.18,12.11,18.31,13.44,21.86c1.33,3.54,5.02,7.24,5.02,7.24"/>
			<line class="st5" x1="363.67" y1="290.33" x2="363.86" y2="345.56"/>
			<line class="st5" x1="346.75" y1="289.4" x2="329.32" y2="333.69"/>
			<path class="st5" d="M303.54,367.58c0,0-11.51-7.67-14.36-17.62s-11.1-16.79-14.8-26.46c-3.7-9.67-15.65-20.2-13.37-34.43"/>
			<path class="st5" d="M148.03,362.6c0.31-2.11,7.99-92.31,11.41-96.58"/>
			<path class="st5" d="M274.99,171.78c0,0-1.74,4.61,0.82,8.03c2.56,3.41,1.99,4.84,4.27,4.55"/>
			<path class="st5" d="M281.67,170.85c0.67-2.28-0.63-2.56-0.63-2.56c-2.61-0.37-2.48,1.81-2.32,4.06c0.2,2.9,0.96,6.1,1.45,6.14
				c0.6,0.05,0.97-0.88,0.97-0.88"/>
			<path class="st5" d="M286.28,162.4c0,0,0.54,1.08,0.27,2.23"/>
			<path class="st5" d="M307.15,165.1c0,0.12-0.19,6.03-0.43,8.71c-0.32,3.51-2.44,9.34-2.44,9.34"/>
			<path class="st5" d="M269.39,220.79c0,0-23.64-10.32-69.25-9.77"/>
			<path class="st5" d="M378.17,196.61c0,0,2.47,4.12,12.48,1.34s15.85-8.34,15.85-8.34"/>
			<path class="st5" d="M385.92,147.34c0,0-1.39,9.46-2.5,12.52c-1.11,3.06-0.83,7.79,3.89,7.23"/>
			<path class="st5" d="M360.7,150.68c0,0,1.87,10.28,1.31,13.34"/>
			<path class="st5" d="M399.27,175.98c0,0-22.02-2.77-21.14,1.67c0.56,2.78,0,8.9,8.34,6.12c8.34-2.78,10.57-4.73,10.57-4.73"/>
			<path class="st16" d="M495.34,144.01c0,0-6.54,6.54-12.14,7.1c0,0,3.36,2.8,8.4-0.37"/>
			<line class="st16" x1="475.98" y1="140.24" x2="479.84" y2="138.78"/>
			<path class="st16" d="M495.85,166.73c0,0,15.74-4.61,23.77-11.52"/>
			<path class="st16" d="M535.12,119.92c0.07-2.55,6.35-9.34,9.71-1.87"/>
			<path class="st16" d="M539.04,135.23c0,0-0.56,2.99-3.17,1.12"/>
			<path class="st16" d="M486.55,188.2c0.93-0.48,5.42-3.48,9.91,1.75c4.48,5.23,5.6,9.71,5.6,9.71s2.05-7.28,7.47-11.95
				c7.97-6.87,12.24,4.19,12.24,4.19"/>
			<path class="st5" d="M524.01,196.33c0.3-0.11-9.46,10.57-23.82,8.57c-17.74-2.47-19.24-11.58-19.24-11.58"/>
			<line class="st5" x1="485.11" y1="441.44" x2="492.7" y2="468.36"/>
			<path class="st5" d="M379.66,449.5c0,0,1.44,9.85,2.53,18.5"/>
			<circle class="st7" cx="375.06" cy="151.48" r="1.71"/>
			<circle class="st7" cx="402.66" cy="151.98" r="1.71"/>
			<circle class="st7" cx="495.22" cy="121.82" r="1.71"/>
			<path class="st5" d="M423.42,154.24c0,0,2.09-8.95,0.99-12.43"/>
			<path class="st5" d="M556.15,173.85c0,0,0.6-3.71,2.54-2.42c1.53,1.02,0.76,3.05,0.76,3.05"/>
			<path class="st5" d="M377.75,268.57c0,0-1.72,67.36,0.38,72.26"/>
			<line class="st5" x1="380.23" y1="377.94" x2="380.93" y2="399.64"/>
		</g>
		<g class="st3">
			<g>
				<path class="st6" d="M756.8,294.7c-0.59-0.44-1.16-0.89-1.7-1.4c-1.33-1.28-2.43-2.99-3.01-6.08c-0.16-0.84-0.56-1.83-1.15-2.91
					c-0.67-0.71-1.34-1.73-1.98-3.01c-5.44-7.28-16.85-16.73-26.71-18.67c-1.91-0.38-3.88,0.19-5.37,1.44
					c-1.49,1.25-2.38,3.1-2.34,5.05c0.31,13.21,12.96,31.29,19.16,33.6c7.31,2.71,5.68,7.16,10.26,11.27
					c2.58,2.31,7.09,2.31,10.54,1.86c-0.66-4.44-0.19-11.26,1.45-18.01C756.2,296.77,756.49,295.73,756.8,294.7z"/>
				<path class="st6" d="M800.4,291.55c-0.17,1.32-0.72,2.58-1.53,3.76c2.82,10.89,3.1,22.09,0.88,26.33
					c-0.3,0.57-0.55,1.11-0.76,1.62c3.91-5.32,10.2-11.33,16.52-14.39c0.49-0.43,1.06-0.86,1.72-1.3
					c5.53-3.62,13.86-24.05,11.24-37.01c-0.39-1.91-1.67-3.51-3.4-4.4c-1.73-0.89-3.78-1.01-5.56-0.22
					c-7.6,3.38-15.1,12.01-19.56,19.59C800.37,287.29,800.69,289.18,800.4,291.55z"/>
				<path class="st6" d="M826.21,312.53c-0.11-1.69-1.03-3.22-2.42-4.2c-1.39-0.97-3.14-1.31-4.77-0.84
					c-1.16,0.34-2.34,0.81-3.52,1.38c-6.31,3.05-12.61,9.07-16.52,14.39c-0.4,0.54-0.78,1.08-1.12,1.61
					c-1.64,2.47-2.67,4.7-2.82,6.26c-0.65,6.75-4.75,6.38-7.18,11.15c-0.87,1.71-0.78,3.86-0.3,5.92h19.62
					c0.79-1.84,1.85-3.56,5.01-5.06C817.39,340.66,826.96,324.01,826.21,312.53z"/>
				<g>
					<path class="st6" d="M780.59,301.25c1.19,8.04,0.75,15.64-1.04,18.65c-3.99,6.69,0.06,9.14-0.94,15.21
						c-0.23,1.42-1.15,6.08-2.33,10.58c0.7,0.67,1.38,1.44,1.96,2.52h9.32c-0.48-2.06-0.57-4.21,0.3-5.92
						c2.43-4.77,6.54-4.4,7.18-11.15c0.15-1.56,1.18-3.78,2.82-6.26c0.35-0.53,0.72-1.06,1.12-1.61c0.21-0.52,0.46-1.06,0.76-1.62
						c2.22-4.23,1.94-15.44-0.88-26.33c0.8-1.18,1.36-2.44,1.53-3.76c0.3-2.37-0.02-4.26-0.44-6.01c-0.87-3.67-2.17-6.74,0.87-12.3
						c3.81-6.98,1.05-33.36-9.08-45.6c-1.49-1.8-3.76-2.78-6.1-2.74c-2.34,0.04-4.58,1.08-6.01,2.92
						c-6.44,8.28-9.49,22.63-9.66,33.4c3.13,6.57,4.8,12.93,4.14,16.06c-0.11,0.51-0.18,0.99-0.24,1.44
						c0.19,1.16,0.18,2.22,0.06,3.25c0.04,0.23,0.1,0.45,0.15,0.66c0.03,0.05,0.06,0.09,0.1,0.14
						C777.53,287.67,779.61,294.61,780.59,301.25z"/>
					<path class="st6" d="M755.76,334.58c-0.7-5.97,3.24-8.28-0.03-14.8c-1.88-1.13-3.78-2.03-5.65-2.56
						c-1.47-0.42-3.05-0.1-4.29,0.78c-1.24,0.88-2.06,2.27-2.15,3.79c-0.55,9.26,6.37,22.2,11.2,26.4h5.08
						C757.88,342.98,756.06,337.15,755.76,334.58z"/>
					<path class="st6" d="M776.27,345.69c-0.23,0.85-0.46,1.7-0.7,2.52h2.67C777.65,347.13,776.97,346.35,776.27,345.69z"/>
					<path class="st6" d="M780.59,301.25c-0.98-6.64-3.06-13.58-6.39-18.48c-0.03-0.05-0.06-0.09-0.1-0.14
						c-0.07-0.1-0.14-0.19-0.2-0.28c-0.15-0.21-0.3-0.43-0.46-0.64c-1.18-1.54-3.04-2.43-4.98-2.47c-1.95-0.04-3.84,0.75-5.09,2.24
						c-2.87,3.42-5.05,8.18-6.57,13.22c-0.31,1.03-0.59,2.07-0.85,3.12c-1.64,6.74-2.1,13.57-1.45,18.01
						c0.22,1.46,0.55,2.67,1.01,3.52c0.08,0.15,0.14,0.29,0.22,0.44c3.27,6.52-0.67,8.82,0.03,14.8c0.3,2.57,2.12,8.4,4.16,13.62
						h15.65c0.24-0.82,0.48-1.66,0.7-2.52c1.19-4.5,2.1-9.16,2.33-10.58c1-6.07-3.05-8.52,0.94-15.21
						C781.35,316.89,781.78,309.29,780.59,301.25z"/>
					<polygon class="st6" points="807.18,348.2 787.56,348.2 778.24,348.2 775.57,348.2 759.92,348.2 754.84,348.2 749.55,348.2 
						768.01,418.52 798.33,418.52 816.79,348.2 					"/>
				</g>
				<path class="st6" d="M769.98,261.22c-3.35-7.02-8.38-14.28-14.07-18.05c-1.62-1.08-3.66-1.3-5.52-0.71
					c-1.85,0.59-3.38,1.96-4.08,3.78c-4,10.39-1.22,27.29,2.65,35.05c0.64,1.28,1.3,2.3,1.98,3.01c0.6,1.09,1,2.08,1.15,2.91
					c0.58,3.1,1.68,4.8,3.01,6.08c0.54,0.52,1.11,0.96,1.7,1.4c1.51-5.04,3.69-9.8,6.57-13.22c1.25-1.49,3.15-2.28,5.09-2.24
					c1.94,0.04,3.8,0.93,4.98,2.47c0.16,0.21,0.31,0.42,0.46,0.64c0.07,0.1,0.14,0.19,0.2,0.28c-0.06-0.22-0.11-0.43-0.15-0.66
					c0.12-1.02,0.14-2.08-0.06-3.25c0.05-0.45,0.13-0.93,0.24-1.44C774.78,274.15,773.11,267.79,769.98,261.22z"/>
			</g>
			<g>
				<path class="st15" d="M754.5,295.48c-0.59-0.44-1.16-0.89-1.7-1.4c-1.33-1.28-2.43-2.99-3.01-6.08
					c-0.16-0.84-0.56-1.83-1.15-2.91c-0.67-0.71-1.34-1.73-1.98-3.01c-5.44-7.28-16.85-16.73-26.71-18.67
					c-1.91-0.38-3.88,0.19-5.37,1.44c-1.49,1.25-2.38,3.1-2.34,5.05c0.31,13.21,12.96,31.29,19.16,33.6
					c7.31,2.71,5.68,7.16,10.26,11.27c2.58,2.31,7.09,2.31,10.54,1.86c-0.66-4.44-0.19-11.26,1.45-18.01
					C753.91,297.56,754.19,296.52,754.5,295.48z"/>
				<path class="st15" d="M802.32,290.94c-0.17,1.32-0.72,2.58-1.53,3.76c2.82,10.89,3.1,22.09,0.88,26.33
					c-0.3,0.57-0.55,1.11-0.76,1.62c3.91-5.32,10.2-11.33,16.52-14.39c0.49-0.43,1.06-0.86,1.72-1.3
					c5.53-3.62,13.86-24.05,11.24-37.01c-0.39-1.91-1.67-3.51-3.4-4.4c-1.73-0.89-3.78-1.01-5.56-0.22
					c-7.6,3.38-15.1,12.01-19.56,19.59C802.3,286.67,802.61,288.56,802.32,290.94z"/>
				<path class="st15" d="M826.72,313.78c-0.11-1.69-1.03-3.22-2.42-4.2c-1.39-0.97-3.14-1.31-4.77-0.84
					c-1.16,0.34-2.34,0.81-3.52,1.38c-6.31,3.05-12.61,9.07-16.52,14.39c-0.4,0.54-0.78,1.08-1.12,1.61
					c-1.64,2.47-2.67,4.7-2.82,6.26c-0.65,6.75-4.75,6.38-7.18,11.15c-0.87,1.71-0.78,3.86-0.3,5.92h19.62
					c0.79-1.84,1.85-3.56,5.01-5.06C817.9,341.92,827.47,325.27,826.72,313.78z"/>
				<g>
					<path class="st15" d="M780.64,301.57c1.19,8.04,0.75,15.64-1.04,18.65c-3.99,6.69,0.06,9.14-0.94,15.21
						c-0.23,1.42-1.15,6.08-2.33,10.58c0.7,0.67,1.38,1.44,1.96,2.52h9.32c-0.48-2.06-0.57-4.21,0.3-5.92
						c2.43-4.77,6.54-4.4,7.18-11.15c0.15-1.56,1.18-3.78,2.82-6.26c0.35-0.53,0.72-1.06,1.12-1.61c0.21-0.52,0.46-1.06,0.76-1.62
						c2.22-4.23,1.94-15.44-0.88-26.33c0.8-1.18,1.36-2.44,1.53-3.76c0.3-2.37-0.02-4.26-0.44-6.01c-0.87-3.67-2.17-6.74,0.87-12.3
						c3.81-6.98,1.05-33.36-9.08-45.6c-1.49-1.8-3.76-2.78-6.1-2.74c-2.34,0.04-4.58,1.08-6.01,2.92
						c-6.44,8.28-9.49,22.63-9.66,33.4c3.13,6.57,4.8,12.93,4.14,16.06c-0.11,0.51-0.18,0.99-0.24,1.44
						c0.19,1.16,0.18,2.22,0.06,3.25c0.04,0.23,0.1,0.45,0.15,0.66c0.03,0.05,0.06,0.09,0.1,0.14
						C777.57,287.99,779.66,294.93,780.64,301.57z"/>
					<path class="st15" d="M752.05,334.9c-0.7-5.97,3.24-8.28-0.03-14.8c-1.88-1.13-3.78-2.03-5.65-2.56
						c-1.47-0.42-3.05-0.1-4.29,0.78c-1.24,0.88-2.06,2.27-2.15,3.79c-0.55,9.26,6.37,22.2,11.2,26.4h5.08
						C754.17,343.3,752.35,337.47,752.05,334.9z"/>
					<path class="st15" d="M773.98,346.47c-0.23,0.85-0.46,1.7-0.7,2.52h2.67C775.35,347.91,774.67,347.14,773.98,346.47z"/>
					<path class="st15" d="M778.29,302.03c-0.98-6.64-3.06-13.58-6.39-18.48c-0.03-0.05-0.06-0.09-0.1-0.14
						c-0.07-0.1-0.14-0.19-0.2-0.28c-0.15-0.21-0.3-0.43-0.46-0.64c-1.18-1.54-3.04-2.43-4.98-2.47c-1.95-0.04-3.84,0.75-5.09,2.24
						c-2.87,3.42-5.05,8.18-6.57,13.22c-0.31,1.03-0.59,2.07-0.85,3.12c-1.64,6.74-2.1,13.57-1.45,18.01
						c0.22,1.46,0.55,2.67,1.01,3.52c0.08,0.15,0.14,0.29,0.22,0.44c3.27,6.52-0.67,8.82,0.03,14.8c0.3,2.57,2.12,8.4,4.16,13.62
						h15.65c0.24-0.82,0.48-1.66,0.7-2.52c1.19-4.5,2.1-9.16,2.33-10.58c1-6.07-3.05-8.52,0.94-15.21
						C779.05,317.67,779.48,310.08,778.29,302.03z"/>
					<polygon class="st13" points="804.41,350.4 784.79,350.4 775.47,350.4 772.8,350.4 757.15,350.4 752.07,350.4 746.78,350.4 
						765.24,420.71 795.56,420.71 814.02,350.4 					"/>
				</g>
				<path class="st15" d="M767.68,262.01c-3.35-7.02-8.38-14.28-14.07-18.05c-1.62-1.08-3.66-1.3-5.52-0.71
					c-1.85,0.59-3.38,1.96-4.08,3.78c-4,10.39-1.22,27.29,2.65,35.05c0.64,1.28,1.3,2.3,1.98,3.01c0.6,1.09,1,2.08,1.15,2.91
					c0.58,3.1,1.68,4.8,3.01,6.08c0.54,0.52,1.11,0.96,1.7,1.4c1.51-5.04,3.69-9.8,6.57-13.22c1.25-1.49,3.15-2.28,5.09-2.24
					c1.94,0.04,3.8,0.93,4.98,2.47c0.16,0.21,0.31,0.42,0.46,0.64c0.07,0.1,0.14,0.19,0.2,0.28c-0.06-0.22-0.11-0.43-0.15-0.66
					c0.12-1.02,0.14-2.08-0.06-3.25c0.05-0.45,0.13-0.93,0.24-1.44C772.48,274.94,770.82,268.57,767.68,262.01z"/>
			</g>
			<g>
				<path class="st17" d="M756.6,294.3c-0.59-0.44-1.16-0.89-1.7-1.4c-1.33-1.28-2.43-2.99-3.01-6.08
					c-0.16-0.84-0.56-1.83-1.15-2.91c-0.67-0.71-1.34-1.73-1.98-3.01c-5.44-7.28-16.85-16.73-26.71-18.67
					c-1.91-0.38-3.88,0.19-5.37,1.44c-1.49,1.25-2.38,3.1-2.34,5.05c0.31,13.21,12.96,31.29,19.16,33.6
					c7.31,2.71,5.68,7.16,10.26,11.27c2.58,2.31,7.09,2.31,10.54,1.86c-0.66-4.44-0.19-11.26,1.45-18.01
					C756.01,296.38,756.29,295.33,756.6,294.3z"/>
				<path class="st17" d="M800.2,291.16c-0.17,1.32-0.72,2.58-1.53,3.76c2.82,10.89,3.1,22.09,0.88,26.33
					c-0.3,0.57-0.55,1.11-0.76,1.62c3.91-5.32,10.2-11.33,16.52-14.39c0.49-0.43,1.06-0.86,1.72-1.3
					c5.53-3.62,13.86-24.05,11.24-37.01c-0.39-1.91-1.67-3.51-3.4-4.4s-3.78-1.01-5.56-0.22c-7.6,3.38-15.1,12.01-19.56,19.59
					C800.18,286.9,800.49,288.79,800.2,291.16z"/>
				<path class="st17" d="M826.01,312.13c-0.11-1.69-1.03-3.22-2.42-4.2c-1.39-0.97-3.14-1.31-4.77-0.84
					c-1.16,0.34-2.34,0.81-3.52,1.38c-6.31,3.05-12.61,9.07-16.52,14.39c-0.4,0.54-0.78,1.08-1.12,1.61
					c-1.64,2.47-2.67,4.7-2.82,6.26c-0.65,6.75-4.75,6.38-7.18,11.15c-0.87,1.71-0.78,3.86-0.3,5.92h19.62
					c0.79-1.84,1.85-3.56,5.01-5.06C817.19,340.27,826.76,323.62,826.01,312.13z"/>
				<g>
					<path class="st17" d="M780.39,300.85c1.19,8.04,0.75,15.64-1.04,18.65c-3.99,6.69,0.06,9.14-0.94,15.21
						c-0.23,1.42-1.15,6.08-2.33,10.58c0.7,0.67,1.38,1.44,1.96,2.52h9.32c-0.48-2.06-0.57-4.21,0.3-5.92
						c2.43-4.77,6.54-4.4,7.18-11.15c0.15-1.56,1.18-3.78,2.82-6.26c0.35-0.53,0.72-1.06,1.12-1.61c0.21-0.52,0.46-1.06,0.76-1.62
						c2.22-4.23,1.94-15.44-0.88-26.33c0.8-1.18,1.36-2.44,1.53-3.76c0.3-2.37-0.02-4.26-0.44-6.01c-0.87-3.67-2.17-6.74,0.87-12.3
						c3.81-6.98,1.05-33.36-9.08-45.6c-1.49-1.8-3.76-2.78-6.1-2.74c-2.34,0.04-4.58,1.08-6.01,2.92
						c-6.44,8.28-9.49,22.63-9.66,33.4c3.13,6.57,4.8,12.93,4.14,16.06c-0.11,0.51-0.18,0.99-0.24,1.44
						c0.19,1.16,0.18,2.22,0.06,3.25c0.04,0.23,0.1,0.45,0.15,0.66c0.03,0.05,0.06,0.09,0.1,0.14
						C777.33,287.28,779.41,294.21,780.39,300.85z"/>
					<path class="st17" d="M755.56,334.19c-0.7-5.97,3.24-8.28-0.03-14.8c-1.88-1.13-3.78-2.03-5.65-2.56
						c-1.47-0.42-3.05-0.1-4.29,0.78c-1.24,0.88-2.06,2.27-2.15,3.79c-0.55,9.26,6.37,22.2,11.2,26.4h5.08
						C757.68,342.59,755.86,336.76,755.56,334.19z"/>
					<path class="st17" d="M776.08,345.29c-0.23,0.85-0.46,1.7-0.7,2.52h2.67C777.45,346.73,776.77,345.96,776.08,345.29z"/>
					<path class="st17" d="M780.39,300.85c-0.98-6.64-3.06-13.58-6.39-18.48c-0.03-0.05-0.06-0.09-0.1-0.14
						c-0.07-0.1-0.14-0.19-0.2-0.28c-0.15-0.21-0.3-0.43-0.46-0.64c-1.18-1.54-3.04-2.43-4.98-2.47c-1.95-0.04-3.84,0.75-5.09,2.24
						c-2.87,3.42-5.05,8.18-6.57,13.22c-0.31,1.03-0.59,2.07-0.85,3.12c-1.64,6.74-2.1,13.57-1.45,18.01
						c0.22,1.46,0.55,2.67,1.01,3.52c0.08,0.15,0.14,0.29,0.22,0.44c3.27,6.52-0.67,8.82,0.03,14.8c0.3,2.57,2.12,8.4,4.16,13.62
						h15.65c0.24-0.82,0.48-1.66,0.7-2.52c1.19-4.5,2.1-9.16,2.33-10.58c1-6.07-3.05-8.52,0.94-15.21
						C781.15,316.49,781.58,308.89,780.39,300.85z"/>
					<polygon class="st17" points="806.98,347.81 787.36,347.81 778.04,347.81 775.37,347.81 759.72,347.81 754.64,347.81 
						749.35,347.81 767.81,418.12 798.13,418.12 816.59,347.81 					"/>
				</g>
				<path class="st17" d="M769.78,260.82c-3.35-7.02-8.38-14.28-14.07-18.05c-1.62-1.08-3.66-1.3-5.52-0.71
					c-1.85,0.59-3.38,1.96-4.08,3.78c-4,10.39-1.22,27.29,2.65,35.05c0.64,1.28,1.3,2.3,1.98,3.01c0.6,1.09,1,2.08,1.15,2.91
					c0.58,3.1,1.68,4.8,3.01,6.08c0.54,0.52,1.11,0.96,1.7,1.4c1.51-5.04,3.69-9.8,6.57-13.22c1.25-1.49,3.15-2.28,5.09-2.24
					c1.94,0.04,3.8,0.93,4.98,2.47c0.16,0.21,0.31,0.42,0.46,0.64c0.07,0.1,0.14,0.19,0.2,0.28c-0.06-0.22-0.11-0.43-0.15-0.66
					c0.12-1.02,0.14-2.08-0.06-3.25c0.05-0.45,0.13-0.93,0.24-1.44C774.58,273.76,772.92,267.39,769.78,260.82z"/>
			</g>
		</g>
		<g class="st3">
			<g>
				<circle class="st6" cx="181.44" cy="110.44" r="2.49"/>
				<circle class="st6" cx="251.21" cy="63.6" r="3.49"/>
				<circle class="st6" cx="81.19" cy="139.59" r="3.49"/>
				<circle class="st6" cx="698.56" cy="248.5" r="3.49"/>
				<circle class="st6" cx="330.61" cy="177.82" r="2.16"/>
				<circle class="st6" cx="449.62" cy="133.82" r="2.16"/>
				<circle class="st6" cx="336.38" cy="33.57" r="3.61"/>
				<circle class="st6" cx="684.02" cy="199.45" r="2.16"/>
				<circle class="st6" cx="699.89" cy="97.04" r="2.88"/>
				<circle class="st6" cx="118.57" cy="227.58" r="2.16"/>
				<path class="st6" d="M157.52,181.8c0,0,15.7-3.77,11.31-16.96l8.17,2.51c0,0-3.14,16.96-11.31,17.59L157.52,181.8z"/>
				<path class="st6" d="M62.08,217.23c0,0,15.7-3.77,11.31-16.96l8.17,2.51c0,0-3.14,16.96-11.31,17.59L62.08,217.23z"/>
				<path class="st6" d="M106.31,73.61c0,0,15.7-3.77,11.31-16.96l8.17,2.51c0,0-3.14,16.96-11.31,17.59L106.31,73.61z"/>
				<path class="st6" d="M699.91,160.09c0,0,7.32-14.4-5.57-19.61l7.21-4.58c0,0,10.87,13.39,6.05,20.02L699.91,160.09z"/>
				<path class="st6" d="M212.15,93.3c0,0-2.24-15.99-15.8-12.88l3.29-7.89c0,0,16.58,4.76,16.42,12.94L212.15,93.3z"/>
				<path class="st6" d="M334.53,153.3c0,0,6.08-14.96-7.21-19.07l6.8-5.18c0,0,11.96,12.43,7.72,19.43L334.53,153.3z"/>
				<path class="st6" d="M424.56,97.56c0,0,3.38,15.79,16.68,11.72l-2.71,8.1c0,0-16.88-3.55-17.31-11.73L424.56,97.56z"/>
				<path class="st6" d="M636.6,191.32c0,0,3.38,15.79,16.68,11.72l-2.71,8.1c0,0-16.88-3.55-17.31-11.73L636.6,191.32z"/>
				<path class="st6" d="M665.7,101.82c0,0-15.97-2.39-16.84,11.49l-6.63-5.39c0,0,9.27-14.55,17.07-12.07L665.7,101.82z"/>
				<path class="st6" d="M287.78,23.93c0,0-15.97-2.39-16.84,11.49l-6.63-5.39c0,0,9.27-14.55,17.07-12.07L287.78,23.93z"/>
				<path class="st6" d="M113.96,300.16c0,0-15.97-2.39-16.84,11.49l-6.63-5.39c0,0,9.27-14.55,17.07-12.07L113.96,300.16z"/>
				<path class="st6" d="M718.96,326.56c0,0-15.97-2.39-16.84,11.49l-6.63-5.39c0,0,9.27-14.55,17.07-12.07L718.96,326.56z"/>
			</g>
			<g>
				<circle class="st13" cx="181.62" cy="110.75" r="2.49"/>
				<circle class="st15" cx="250.74" cy="63.49" r="3.49"/>
				<circle class="st4" cx="80.34" cy="140.52" r="3.49"/>
				<circle class="st15" cx="698.02" cy="249.67" r="3.49"/>
				<circle class="st18" cx="331.73" cy="177.13" r="2.16"/>
				<circle class="st13" cx="450.46" cy="134.7" r="2.16"/>
				<circle class="st4" cx="334.92" cy="32.47" r="3.61"/>
				<circle class="st15" cx="684.71" cy="200.52" r="2.16"/>
				<circle class="st4" cx="701.37" cy="97.41" r="2.88"/>
				<circle class="st4" cx="121.06" cy="227.09" r="2.16"/>
				<path class="st18" d="M156.05,180.69c0,0,15.7-3.77,11.31-16.96l8.17,2.51c0,0-3.14,16.96-11.31,17.59L156.05,180.69z"/>
				<path class="st13" d="M60.61,216.13c0,0,15.7-3.77,11.31-16.96l8.17,2.51c0,0-3.14,16.96-11.31,17.59L60.61,216.13z"/>
				<path class="st15" d="M104.84,72.51c0,0,15.7-3.77,11.31-16.96l8.17,2.51c0,0-3.14,16.96-11.31,17.59L104.84,72.51z"/>
				<path class="st18" d="M698.44,158.99c0,0,7.32-14.4-5.57-19.61l7.21-4.58c0,0,10.87,13.39,6.05,20.02L698.44,158.99z"/>
				<path class="st4" d="M210.68,92.19c0,0-2.24-15.99-15.8-12.88l3.29-7.89c0,0,16.58,4.76,16.42,12.94L210.68,92.19z"/>
				<path class="st4" d="M333.06,152.2c0,0,6.08-14.96-7.21-19.07l6.8-5.18c0,0,11.96,12.43,7.72,19.43L333.06,152.2z"/>
				<path class="st18" d="M423.09,96.46c0,0,3.38,15.79,16.68,11.72l-2.71,8.1c0,0-16.88-3.55-17.31-11.73L423.09,96.46z"/>
				<path class="st4" d="M635.13,190.22c0,0,3.38,15.79,16.68,11.72l-2.71,8.1c0,0-16.88-3.55-17.31-11.73L635.13,190.22z"/>
				<path class="st13" d="M664.23,100.72c0,0-15.97-2.39-16.84,11.49l-6.63-5.39c0,0,9.27-14.55,17.07-12.07L664.23,100.72z"/>
				<path class="st18" d="M286.31,22.82c0,0-15.97-2.39-16.84,11.49l-6.63-5.39c0,0,9.27-14.55,17.07-12.07L286.31,22.82z"/>
				<path class="st15" d="M112.49,299.06c0,0-15.97-2.39-16.84,11.49l-6.63-5.39c0,0,9.27-14.55,17.07-12.07L112.49,299.06z"/>
				<path class="st13" d="M717.49,325.46c0,0-15.97-2.39-16.84,11.49l-6.63-5.39c0,0,9.27-14.55,17.07-12.07L717.49,325.46z"/>
			</g>
			<circle class="st5" cx="182.18" cy="110.81" r="2.49"/>
			<circle class="st5" cx="251.95" cy="63.96" r="3.49"/>
			<circle class="st5" cx="81.92" cy="139.96" r="3.49"/>
			<circle class="st5" cx="699.3" cy="248.87" r="3.49"/>
			<circle class="st5" cx="331.35" cy="178.18" r="2.16"/>
			<circle class="st5" cx="450.35" cy="134.19" r="2.16"/>
			<circle class="st5" cx="337.12" cy="33.94" r="3.61"/>
			<circle class="st5" cx="684.75" cy="199.82" r="2.16"/>
			<circle class="st5" cx="700.62" cy="97.41" r="2.88"/>
			<circle class="st5" cx="119.31" cy="227.95" r="2.16"/>
			<path class="st5" d="M158.25,182.16c0,0,15.7-3.77,11.31-16.96l8.17,2.51c0,0-3.14,16.96-11.31,17.59L158.25,182.16z"/>
			<path class="st6" d="M357.63,86.02c0,0,15.7-3.77,11.31-16.96l8.17,2.51c0,0-3.14,16.96-11.31,17.59L357.63,86.02z"/>
			<path class="st18" d="M356.16,84.91c0,0,15.7-3.77,11.31-16.96l8.17,2.51c0,0-3.14,16.96-11.31,17.59L356.16,84.91z"/>
			<path class="st5" d="M358.37,86.38c0,0,15.7-3.77,11.31-16.96l8.17,2.51c0,0-3.14,16.96-11.31,17.59L358.37,86.38z"/>
			<path class="st5" d="M62.82,217.6c0,0,15.7-3.77,11.31-16.96l8.17,2.51c0,0-3.14,16.96-11.31,17.59L62.82,217.6z"/>
			<path class="st6" d="M421.85,48.25c0,0-5.01-15.35-17.81-9.92l1.86-8.34c0,0,17.16,1.78,18.43,9.87L421.85,48.25z"/>
			<path class="st13" d="M420.87,49.8c0,0-5.01-15.35-17.81-9.92l1.86-8.34c0,0,17.16,1.78,18.43,9.87L420.87,49.8z"/>
			<path class="st5" d="M422.16,47.48c0,0-5.01-15.35-17.81-9.92l1.86-8.34c0,0,17.16,1.78,18.43,9.87L422.16,47.48z"/>
			<path class="st5" d="M107.05,73.98c0,0,15.7-3.77,11.31-16.96l8.17,2.51c0,0-3.14,16.96-11.31,17.59L107.05,73.98z"/>
			<path class="st5" d="M700.64,160.46c0,0,7.32-14.4-5.57-19.61l7.21-4.58c0,0,10.87,13.39,6.05,20.02L700.64,160.46z"/>
			<path class="st5" d="M212.88,93.66c0,0-2.24-15.99-15.8-12.88l3.29-7.89c0,0,16.58,4.76,16.42,12.94L212.88,93.66z"/>
			<path class="st5" d="M335.27,153.67c0,0,6.08-14.96-7.21-19.07l6.8-5.18c0,0,11.96,12.43,7.72,19.43L335.27,153.67z"/>
			<path class="st5" d="M425.29,97.93c0,0,3.38,15.79,16.68,11.72l-2.71,8.1c0,0-16.88-3.55-17.31-11.73L425.29,97.93z"/>
			<path class="st5" d="M637.33,191.69c0,0,3.38,15.79,16.68,11.72l-2.71,8.1c0,0-16.88-3.55-17.31-11.73L637.33,191.69z"/>
			<path class="st5" d="M666.44,102.19c0,0-15.97-2.39-16.84,11.49l-6.63-5.39c0,0,9.27-14.55,17.07-12.07L666.44,102.19z"/>
			<path class="st5" d="M288.51,24.29c0,0-15.97-2.39-16.84,11.49l-6.63-5.39c0,0,9.27-14.55,17.07-12.07L288.51,24.29z"/>
			<path class="st5" d="M114.7,300.53c0,0-15.97-2.39-16.84,11.49l-6.63-5.39c0,0,9.27-14.55,17.07-12.07L114.7,300.53z"/>
			<path class="st5" d="M719.7,326.93c0,0-15.97-2.39-16.84,11.49l-6.63-5.39c0,0,9.27-14.55,17.07-12.07L719.7,326.93z"/>
		</g>
	</g>
</g>
</svg>
