<?xml version="1.0" encoding="utf-8"?>
<!-- Generator: Adobe Illustrator 24.0.3, SVG Export Plug-In . SVG Version: 6.00 Build 0)  -->
<svg version="1.1" xmlns="http://www.w3.org/2000/svg" xmlns:xlink="http://www.w3.org/1999/xlink" x="0px" y="0px"
	 viewBox="0 0 841.89 467.72" style="enable-background:new 0 0 841.89 467.72;" xml:space="preserve">
<style type="text/css">
	.st0{fill:none;stroke:#54575C;stroke-miterlimit:10;}
	.st1{fill:#DCEFFA;}
	.st2{fill:#54575C;}
	.st3{fill:#FFFFFF;}
	.st4{fill:#54565A;}
	.st5{fill:#61A575;}
	.st6{fill:#4890BA;}
</style>
<g id="Layer_1">
</g>
<g id="Layer_2">
</g>
<g id="Layer_3">
	<g>
		<rect x="1366.58" y="604.61" class="st0" width="76.23" height="21.27"/>
		<rect x="1366.58" y="632.66" class="st0" width="76.23" height="21.27"/>
		<rect x="1366.58" y="660.7" class="st0" width="76.23" height="21.27"/>
	</g>
	<g>
		<rect x="-0.3" y="0.44" class="st1" width="841.89" height="467.72"/>
	</g>
	<g>
		<rect x="32.24" y="11.8" class="st2" width="776.81" height="53.76"/>
	</g>
	<g>
		<path class="st3" d="M132.6,49.69l-5.88-16.28h4.37l3.67,11.58l3.67-11.58h4.37l-5.88,16.28H132.6z"/>
		<path class="st3" d="M143.79,34.65c0-1.23,0.93-2.12,2.16-2.12s2.19,0.88,2.19,2.12c0,1.21-0.95,2.09-2.19,2.09
			S143.79,35.86,143.79,34.65z M147.93,49.69h-3.88V37.48h3.88V49.69z"/>
		<path class="st3" d="M157.18,41.13c-0.16-0.02-0.35-0.05-0.63-0.05c-1.88,0-2.51,1.37-2.51,3.21v5.4h-3.88V37.48h3.79v1.63
			c0.58-1.19,1.72-1.93,3.23-1.93V41.13z"/>
		<path class="st3" d="M163.65,37.48h2.07v3.14h-2.07v4.49c0,1.07,0.72,1.33,1.51,1.33c0.21,0,0.4,0,0.65-0.02v3.33
			c0,0-0.51,0.14-1.49,0.14c-2.88,0-4.56-1.33-4.56-4.95v-4.3h-1.19v-3.14h1.19V34.9h3.88V37.48z"/>
		<path class="st3" d="M171.41,44.76c0,1.14,0.67,1.74,1.61,1.74c1.07,0,1.67-0.77,1.67-1.74v-7.28h3.88v12.21h-3.79v-1.26
			c-0.46,0.72-1.53,1.56-3.07,1.56c-3.81,0-4.19-3.26-4.19-5.74v-6.77h3.88V44.76z"/>
		<path class="st3" d="M184.81,41.85c1.07,0,1.91,0.26,2.35,0.44v-0.44c0-0.74-0.61-1.33-1.86-1.33c-1.07,0-2.12,0.3-3.07,0.77
			l-1.44-2.6c1.3-0.86,2.95-1.51,4.98-1.51c4.21,0,5.28,2.16,5.28,4.95v7.56h-3.46l-0.21-0.67c-0.63,0.63-1.51,0.98-2.77,0.98
			c-2.39,0-4.53-1.44-4.53-4.09C180.06,43.46,181.92,41.85,184.81,41.85z M185.6,47.02c0.93,0,1.63-0.44,1.63-1.26
			c0-0.84-0.72-1.3-1.65-1.3c-0.93,0-1.63,0.51-1.63,1.3C183.95,46.58,184.69,47.02,185.6,47.02z"/>
		<path class="st3" d="M193.13,32.88h3.88v16.81h-3.88V32.88z"/>
		<path class="st3" d="M211.48,48.37l-3.58-9.35v10.67h-3.81V33.41h5.16l4.05,10.3l4.07-10.3h5.16v16.28h-3.81V39.02l-3.58,9.35
			H211.48z"/>
		<path class="st3" d="M229.13,41.85c1.07,0,1.91,0.26,2.35,0.44v-0.44c0-0.74-0.6-1.33-1.86-1.33c-1.07,0-2.12,0.3-3.07,0.77
			l-1.44-2.6c1.3-0.86,2.95-1.51,4.98-1.51c4.21,0,5.28,2.16,5.28,4.95v7.56h-3.46l-0.21-0.67c-0.63,0.63-1.51,0.98-2.77,0.98
			c-2.4,0-4.53-1.44-4.53-4.09C224.39,43.46,226.25,41.85,229.13,41.85z M229.92,47.02c0.93,0,1.63-0.44,1.63-1.26
			c0-0.84-0.72-1.3-1.65-1.3c-0.93,0-1.63,0.51-1.63,1.3C228.27,46.58,229.01,47.02,229.92,47.02z"/>
		<path class="st3" d="M246.01,45.72l1.02,3.19c-0.81,0.56-2.05,1.09-3.58,1.09c-3.88,0-6.63-2.65-6.63-6.4
			c0-3.74,2.84-6.42,6.6-6.42c1.58,0,2.77,0.51,3.63,1.12l-1.05,3.28c-0.67-0.56-1.54-0.91-2.44-0.91c-1.84,0-2.86,1.28-2.86,2.91
			c0,1.79,1.21,3,3,3C244.62,46.58,245.48,46.16,246.01,45.72z"/>
		<path class="st3" d="M255.8,42.41c0-1.14-0.67-1.74-1.6-1.74c-1.07,0-1.72,0.77-1.72,1.74v7.28h-3.88V32.88h3.88v5.86
			c0.46-0.72,1.49-1.56,3.02-1.56c3.81,0,4.19,3.26,4.19,5.74v6.77h-3.88V42.41z"/>
		<path class="st3" d="M261.57,34.65c0-1.23,0.93-2.12,2.16-2.12s2.19,0.88,2.19,2.12c0,1.21-0.95,2.09-2.19,2.09
			S261.57,35.86,261.57,34.65z M265.71,49.69h-3.88V37.48h3.88V49.69z"/>
		<path class="st3" d="M275.11,42.41c0-1.14-0.67-1.74-1.6-1.74c-1.07,0-1.67,0.77-1.67,1.74v7.28h-3.88V37.48h3.79v1.26
			c0.46-0.72,1.54-1.56,3.07-1.56c3.81,0,4.19,3.26,4.19,5.74v6.77h-3.88V42.41z"/>
		<path class="st3" d="M284.5,44.6c0.09,1.09,1.14,2.02,2.58,2.02c1.46,0,2.33-0.95,2.56-1.3l2.56,1.98
			c-0.35,0.72-2.02,2.7-5.19,2.7c-4.02,0-6.49-2.77-6.49-6.37c0-3.58,2.42-6.44,6-6.44c3.88,0,6,2.49,6,6.65
			c0,0.23,0,0.49-0.02,0.77H284.5z M284.62,42.13h3.95c-0.05-0.98-0.77-1.81-1.98-1.81C285.31,40.32,284.71,41.27,284.62,42.13z"/>
		<path class="st3" d="M293.29,47.9l2.19-2.12c0.65,0.58,1.46,1.07,2.7,1.07c0.74,0,1.09-0.23,1.09-0.67c0-1.4-5.58-0.79-5.58-5.23
			c0-2.35,2.05-3.77,4.7-3.77c2.32,0,3.65,1.12,4.37,2.09l-2.51,1.98c-0.37-0.37-1.07-0.95-2.02-0.95c-0.56,0-0.88,0.23-0.88,0.6
			c0,1.53,5.63,0.65,5.63,5.07c0,2.49-2.19,4.02-4.98,4.02C295.66,49.99,294.01,48.88,293.29,47.9z"/>
	</g>
	<g>
		<path class="st3" d="M558.1,39.4c0-4.77,3.53-8.42,8.6-8.42c2.02,0,3.58,0.58,4.74,1.37l-1.12,3.49
			c-0.86-0.58-2.09-1.14-3.49-1.14c-2.98,0-4.6,2.16-4.6,4.7s1.63,4.74,4.6,4.74c1.4,0,2.7-0.56,3.56-1.14l1.12,3.49
			c-1.16,0.79-2.79,1.37-4.81,1.37C561.44,47.86,558.1,44.19,558.1,39.4z"/>
		<path class="st3" d="M579.23,35.05c3.93,0,6.7,2.7,6.7,6.4c0,3.67-2.84,6.42-6.7,6.42c-3.88,0-6.63-2.7-6.63-6.37
			C572.61,37.8,575.47,35.05,579.23,35.05z M579.23,44.45c1.6,0,2.81-1.26,2.81-3c0-1.79-1.23-2.98-2.81-2.98
			c-1.6,0-2.74,1.23-2.74,3.02C576.49,43.26,577.65,44.45,579.23,44.45z"/>
		<path class="st3" d="M594.7,40.28c0-1.14-0.67-1.74-1.6-1.74c-1.07,0-1.67,0.77-1.67,1.74v7.28h-3.88V35.35h3.79v1.26
			c0.46-0.72,1.54-1.56,3.07-1.56c3.81,0,4.19,3.26,4.19,5.74v6.77h-3.88V40.28z"/>
		<path class="st3" d="M604.93,35.35H607v3.14h-2.07v4.49c0,1.07,0.72,1.33,1.51,1.33c0.21,0,0.4,0,0.65-0.02v3.33
			c0,0-0.51,0.14-1.49,0.14c-2.88,0-4.56-1.33-4.56-4.95v-4.3h-1.19v-3.14h1.19v-2.58h3.88V35.35z"/>
		<path class="st3" d="M613,39.73c1.07,0,1.91,0.26,2.35,0.44v-0.44c0-0.74-0.6-1.33-1.86-1.33c-1.07,0-2.12,0.3-3.07,0.77
			l-1.44-2.6c1.3-0.86,2.95-1.51,4.98-1.51c4.21,0,5.28,2.16,5.28,4.95v7.56h-3.46l-0.21-0.67c-0.63,0.63-1.51,0.98-2.77,0.98
			c-2.4,0-4.54-1.44-4.54-4.09C608.25,41.33,610.12,39.73,613,39.73z M613.79,44.89c0.93,0,1.63-0.44,1.63-1.26
			c0-0.84-0.72-1.3-1.65-1.3c-0.93,0-1.63,0.51-1.63,1.3C612.14,44.45,612.88,44.89,613.79,44.89z"/>
		<path class="st3" d="M621.07,32.52c0-1.23,0.93-2.12,2.16-2.12s2.19,0.88,2.19,2.12c0,1.21-0.95,2.09-2.19,2.09
			S621.07,33.73,621.07,32.52z M625.21,47.56h-3.88V35.35h3.88V47.56z"/>
		<path class="st3" d="M634.6,40.28c0-1.14-0.67-1.74-1.6-1.74c-1.07,0-1.67,0.77-1.67,1.74v7.28h-3.88V35.35h3.79v1.26
			c0.46-0.72,1.54-1.56,3.07-1.56c3.81,0,4.19,3.26,4.19,5.74v6.77h-3.88V40.28z"/>
		<path class="st3" d="M644,42.47c0.09,1.09,1.14,2.02,2.58,2.02c1.46,0,2.33-0.95,2.56-1.3l2.56,1.98c-0.35,0.72-2.02,2.7-5.19,2.7
			c-4.02,0-6.49-2.77-6.49-6.37c0-3.58,2.42-6.44,6-6.44c3.88,0,6,2.49,6,6.65c0,0.23,0,0.49-0.02,0.77H644z M644.11,40h3.95
			c-0.05-0.98-0.77-1.81-1.98-1.81C644.81,38.19,644.21,39.14,644.11,40z"/>
		<path class="st3" d="M660.6,39c-0.16-0.02-0.35-0.05-0.63-0.05c-1.88,0-2.51,1.37-2.51,3.21v5.4h-3.88V35.35h3.79v1.63
			c0.58-1.19,1.72-1.93,3.23-1.93V39z"/>
		<path class="st3" d="M661.37,45.77l2.19-2.12c0.65,0.58,1.46,1.07,2.7,1.07c0.74,0,1.09-0.23,1.09-0.67c0-1.4-5.58-0.79-5.58-5.23
			c0-2.35,2.05-3.77,4.7-3.77c2.33,0,3.65,1.12,4.37,2.09l-2.51,1.98c-0.37-0.37-1.07-0.95-2.02-0.95c-0.56,0-0.88,0.23-0.88,0.6
			c0,1.53,5.63,0.65,5.63,5.07c0,2.49-2.19,4.02-4.98,4.02C663.74,47.86,662.09,46.75,661.37,45.77z"/>
	</g>
	<g>
		<path class="st4" d="M176.06,415.96h-3.93v-12.39l-1.58,0.49l-0.93-3.3l3.19-1.07h3.26V415.96z"/>
		<path class="st4" d="M182.85,406.07c0-1.28,1.02-2.33,2.3-2.33c1.28,0,2.33,1.05,2.33,2.33c0,1.26-1.05,2.3-2.33,2.3
			C183.88,408.38,182.85,407.33,182.85,406.07z M182.85,413.96c0-1.28,1.02-2.33,2.3-2.33c1.28,0,2.33,1.05,2.33,2.33
			c0,1.26-1.05,2.3-2.33,2.3C183.88,416.26,182.85,415.21,182.85,413.96z"/>
		<path class="st4" d="M201.55,414.63l-3.58-9.35v10.67h-3.81v-16.28h5.16l4.05,10.3l4.07-10.3h5.16v16.28h-3.81v-10.67l-3.58,9.35
			H201.55z"/>
		<path class="st4" d="M219.29,412.31l-1.16,3.65h-4l5.63-16.28h4.19l5.63,16.28h-4l-1.16-3.65H219.29z M221.85,403.89l-1.54,5.16
			h3.07L221.85,403.89z"/>
		<path class="st4" d="M235.01,405.98v9.98h-3.91v-16.28h4.05l5.95,10.09v-10.09h3.91v16.28h-3.95L235.01,405.98z"/>
		<path class="st4" d="M251.53,415.96v-7.35l-4.98-8.93h4.46l2.49,5.33l2.56-5.33h4.4l-4.98,8.93v7.35H251.53z"/>
	</g>
	<g>
		<path class="st4" d="M156.85,436.21c0,0.6,0.26,1.05,1,1.05v0.83c-1.24,0-1.94-0.61-1.94-1.93v-7c0-1.33,0.71-1.93,1.94-1.93v0.83
			c-0.73,0-1,0.44-1,1.06V436.21z"/>
		<path class="st4" d="M163.88,434.52l3.02-6.54h1.24v8.4h-0.94v-6.99l-2.84,6.22h-0.96l-2.84-6.22v6.99h-0.94v-8.4h1.25
			L163.88,434.52z"/>
		<path class="st4" d="M171.9,432.41c0.79,0,1.39,0.3,1.64,0.56v-0.77c0-0.88-0.59-1.38-1.51-1.38c-0.77,0-1.39,0.28-1.83,0.54
			l-0.38-0.7c0.42-0.26,1.25-0.68,2.3-0.68c1.7,0,2.37,0.95,2.37,2.28v4.11h-0.82l-0.11-0.53c-0.32,0.37-0.85,0.68-1.69,0.68
			c-1.37,0-2.38-0.86-2.38-2.08C169.5,433.28,170.5,432.41,171.9,432.41z M172.03,435.75c0.91,0,1.55-0.54,1.55-1.29
			c0-0.78-0.62-1.28-1.56-1.28c-0.95,0-1.56,0.55-1.56,1.28C170.46,435.17,171.07,435.75,172.03,435.75z"/>
		<path class="st4" d="M180.67,431.66c-0.25-0.26-0.9-0.79-1.85-0.79c-1.31,0-2.23,1.04-2.23,2.4c0,1.34,0.97,2.41,2.25,2.41
			c0.98,0,1.61-0.58,1.86-0.83l0.29,0.8c-0.25,0.26-1.02,0.89-2.18,0.89c-1.86,0-3.2-1.43-3.2-3.27c0-1.85,1.38-3.27,3.19-3.27
			c1.14,0,1.87,0.54,2.19,0.85L180.67,431.66z"/>
		<path class="st4" d="M187.18,432.48v3.9h-0.95v-3.93c0-1-0.63-1.59-1.47-1.59c-0.96,0-1.63,0.71-1.63,1.74v3.79h-0.95v-8.67h0.95
			v3.33c0.3-0.56,1-1.05,1.85-1.05C186.42,429.99,187.18,431.07,187.18,432.48z"/>
		<path class="st4" d="M189.22,427.89c0.37,0,0.66,0.29,0.66,0.65c0,0.37-0.29,0.66-0.66,0.66c-0.36,0-0.65-0.29-0.65-0.66
			C188.57,428.18,188.86,427.89,189.22,427.89z M188.75,430.15h0.95v6.24h-0.95V430.15z"/>
		<path class="st4" d="M196.32,432.48v3.9h-0.95v-3.93c0-1-0.62-1.59-1.48-1.59c-0.96,0-1.62,0.71-1.62,1.74v3.79h-0.95v-6.24h0.94
			v0.9c0.3-0.56,1-1.05,1.86-1.05C195.58,429.99,196.32,431.07,196.32,432.48z"/>
		<path class="st4" d="M200.52,429.99c1.83,0,2.96,1.32,2.96,3.19c0,0.04,0,0.17-0.01,0.29h-5c0.01,1.39,0.95,2.23,2.24,2.23
			c1.06,0,1.64-0.55,1.94-0.97l0.62,0.46c-0.35,0.59-1.16,1.35-2.58,1.35c-1.9,0-3.2-1.33-3.2-3.25
			C197.5,431.3,198.87,429.99,200.52,429.99z M202.51,432.76c-0.06-1.29-0.96-1.96-1.99-1.96c-1.02,0-1.93,0.78-2,1.96H202.51z"/>
		<path class="st4" d="M204.36,432.33h3.06v0.89h-3.06V432.33z"/>
		<path class="st4" d="M208.81,428.84h0.95v1.31h1.37v0.8h-1.37v3.21c0,1.16,0.34,1.44,1.15,1.44c0.12,0,0.26-0.01,0.26-0.01v0.84
			c0,0-0.25,0.04-0.58,0.04c-1.25,0-1.79-0.82-1.79-2.22v-3.3h-0.73v-0.8h0.73V428.84z"/>
		<path class="st4" d="M215.12,429.99c1.88,0,3.25,1.4,3.25,3.27s-1.39,3.27-3.26,3.27s-3.25-1.38-3.25-3.27
			C211.86,431.38,213.26,429.99,215.12,429.99z M215.11,435.67c1.34,0,2.3-1.02,2.3-2.41c0-1.38-0.96-2.41-2.3-2.41
			c-1.34,0-2.28,1.04-2.28,2.41C212.83,434.67,213.78,435.67,215.11,435.67z"/>
		<path class="st4" d="M219.27,432.33h3.06v0.89h-3.06V432.33z"/>
		<path class="st4" d="M224.6,433.66l-1.01,2.72h-0.98l3.14-8.4h0.98l3.14,8.4h-0.98l-1.01-2.72H224.6z M226.25,429.05l-1.34,3.77
			h2.7L226.25,429.05z"/>
		<path class="st4" d="M230.86,430.15h0.91v0.98c0.16-0.23,0.82-1.14,2.17-1.14c1.78,0,3.05,1.36,3.05,3.26
			c0,1.93-1.21,3.29-2.97,3.29c-1.31,0-2.01-0.84-2.21-1.16v3.25h-0.95V430.15z M233.9,435.67c1.22,0,2.11-1,2.11-2.42
			c0-1.46-0.94-2.4-2.13-2.4c-1.3,0-2.11,1.09-2.11,2.4C231.77,434.79,232.73,435.67,233.9,435.67z"/>
		<path class="st4" d="M238.21,430.15h0.91v0.98c0.16-0.23,0.82-1.14,2.17-1.14c1.77,0,3.05,1.36,3.05,3.26
			c0,1.93-1.21,3.29-2.97,3.29c-1.31,0-2.01-0.84-2.21-1.16v3.25h-0.95V430.15z M241.26,435.67c1.22,0,2.11-1,2.11-2.42
			c0-1.46-0.94-2.4-2.13-2.4c-1.29,0-2.11,1.09-2.11,2.4C239.12,434.79,240.08,435.67,241.26,435.67z"/>
		<path class="st4" d="M251.41,430.94c-1.43,0-1.85,1.13-1.85,2.46v2.99h-0.95v-6.24h0.94v1.04c0.22-0.62,0.91-1.2,1.86-1.2V430.94z
			"/>
		<path class="st4" d="M254.46,432.41c0.79,0,1.39,0.3,1.64,0.56v-0.77c0-0.88-0.59-1.38-1.51-1.38c-0.77,0-1.39,0.28-1.83,0.54
			l-0.38-0.7c0.42-0.26,1.25-0.68,2.3-0.68c1.7,0,2.38,0.95,2.38,2.28v4.11h-0.82l-0.11-0.53c-0.32,0.37-0.85,0.68-1.69,0.68
			c-1.37,0-2.38-0.86-2.38-2.08C252.06,433.28,253.06,432.41,254.46,432.41z M254.59,435.75c0.91,0,1.55-0.54,1.55-1.29
			c0-0.78-0.62-1.28-1.56-1.28c-0.95,0-1.56,0.55-1.56,1.28C253.02,435.17,253.63,435.75,254.59,435.75z"/>
		<path class="st4" d="M258.66,428.84h0.95v1.31h1.37v0.8h-1.37v3.21c0,1.16,0.34,1.44,1.15,1.44c0.12,0,0.26-0.01,0.26-0.01v0.84
			c0,0-0.25,0.04-0.58,0.04c-1.25,0-1.79-0.82-1.79-2.22v-3.3h-0.73v-0.8h0.73V428.84z"/>
		<path class="st4" d="M262.6,427.89c0.37,0,0.66,0.29,0.66,0.65c0,0.37-0.29,0.66-0.66,0.66c-0.36,0-0.65-0.29-0.65-0.66
			C261.95,428.18,262.24,427.89,262.6,427.89z M262.13,430.15h0.95v6.24h-0.95V430.15z"/>
		<path class="st4" d="M267.55,429.99c1.88,0,3.25,1.4,3.25,3.27s-1.39,3.27-3.26,3.27s-3.25-1.38-3.25-3.27
			C264.29,431.38,265.69,429.99,267.55,429.99z M267.54,435.67c1.34,0,2.3-1.02,2.3-2.41c0-1.38-0.96-2.41-2.3-2.41
			c-1.34,0-2.28,1.04-2.28,2.41C265.26,434.67,266.21,435.67,267.54,435.67z"/>
		<path class="st4" d="M273.04,429.11c0-0.61-0.26-1.06-1-1.06v-0.83c1.24,0,1.94,0.6,1.94,1.93v7c0,1.32-0.71,1.93-1.94,1.93v-0.83
			c0.73,0,1-0.46,1-1.05V429.11z"/>
	</g>
	<g>
		<path class="st4" d="M556.33,436.21c0,0.6,0.26,1.05,1,1.05v0.83c-1.24,0-1.94-0.61-1.94-1.93v-7c0-1.33,0.71-1.93,1.94-1.93v0.83
			c-0.73,0-1,0.44-1,1.06V436.21z"/>
		<path class="st4" d="M563.36,434.52l3.02-6.54h1.24v8.4h-0.94v-6.99l-2.84,6.22h-0.96l-2.84-6.22v6.99h-0.94v-8.4h1.25
			L563.36,434.52z"/>
		<path class="st4" d="M571.37,432.41c0.79,0,1.39,0.3,1.64,0.56v-0.77c0-0.88-0.59-1.38-1.51-1.38c-0.77,0-1.39,0.28-1.83,0.54
			l-0.38-0.7c0.42-0.26,1.25-0.68,2.3-0.68c1.7,0,2.38,0.95,2.38,2.28v4.11h-0.82l-0.11-0.53c-0.32,0.37-0.85,0.68-1.69,0.68
			c-1.37,0-2.37-0.86-2.37-2.08C568.97,433.28,569.97,432.41,571.37,432.41z M571.5,435.75c0.91,0,1.55-0.54,1.55-1.29
			c0-0.78-0.62-1.28-1.56-1.28c-0.95,0-1.56,0.55-1.56,1.28C569.93,435.17,570.54,435.75,571.5,435.75z"/>
		<path class="st4" d="M580.14,431.66c-0.25-0.26-0.9-0.79-1.85-0.79c-1.31,0-2.23,1.04-2.23,2.4c0,1.34,0.97,2.41,2.25,2.41
			c0.98,0,1.61-0.58,1.86-0.83l0.29,0.8c-0.25,0.26-1.02,0.89-2.18,0.89c-1.86,0-3.2-1.43-3.2-3.27c0-1.85,1.38-3.27,3.19-3.27
			c1.14,0,1.87,0.54,2.2,0.85L580.14,431.66z"/>
		<path class="st4" d="M586.65,432.48v3.9h-0.95v-3.93c0-1-0.64-1.59-1.48-1.59c-0.96,0-1.63,0.71-1.63,1.74v3.79h-0.95v-8.67h0.95
			v3.33c0.3-0.56,1-1.05,1.85-1.05C585.89,429.99,586.65,431.07,586.65,432.48z"/>
		<path class="st4" d="M588.69,427.89c0.37,0,0.66,0.29,0.66,0.65c0,0.37-0.29,0.66-0.66,0.66c-0.36,0-0.65-0.29-0.65-0.66
			C588.04,428.18,588.33,427.89,588.69,427.89z M588.22,430.15h0.95v6.24h-0.95V430.15z"/>
		<path class="st4" d="M595.79,432.48v3.9h-0.95v-3.93c0-1-0.62-1.59-1.47-1.59c-0.96,0-1.62,0.71-1.62,1.74v3.79h-0.95v-6.24h0.94
			v0.9c0.3-0.56,1-1.05,1.86-1.05C595.05,429.99,595.79,431.07,595.79,432.48z"/>
		<path class="st4" d="M599.99,429.99c1.83,0,2.96,1.32,2.96,3.19c0,0.04,0,0.17-0.01,0.29h-5c0.01,1.39,0.95,2.23,2.24,2.23
			c1.05,0,1.64-0.55,1.94-0.97l0.62,0.46c-0.35,0.59-1.16,1.35-2.58,1.35c-1.89,0-3.2-1.33-3.2-3.25
			C596.97,431.3,598.34,429.99,599.99,429.99z M601.98,432.76c-0.06-1.29-0.96-1.96-1.99-1.96c-1.02,0-1.93,0.78-2,1.96H601.98z"/>
		<path class="st4" d="M603.83,432.33h3.06v0.89h-3.06V432.33z"/>
		<path class="st4" d="M608.29,428.84h0.95v1.31h1.37v0.8h-1.37v3.21c0,1.16,0.34,1.44,1.15,1.44c0.12,0,0.26-0.01,0.26-0.01v0.84
			c0,0-0.25,0.04-0.58,0.04c-1.25,0-1.79-0.82-1.79-2.22v-3.3h-0.73v-0.8h0.73V428.84z"/>
		<path class="st4" d="M614.6,429.99c1.88,0,3.25,1.4,3.25,3.27s-1.39,3.27-3.26,3.27s-3.25-1.38-3.25-3.27
			C611.33,431.38,612.74,429.99,614.6,429.99z M614.58,435.67c1.34,0,2.3-1.02,2.3-2.41c0-1.38-0.96-2.41-2.3-2.41
			c-1.34,0-2.28,1.04-2.28,2.41C612.3,434.67,613.25,435.67,614.58,435.67z"/>
		<path class="st4" d="M618.74,432.33h3.06v0.89h-3.06V432.33z"/>
		<path class="st4" d="M624.08,433.66l-1.01,2.72h-0.98l3.14-8.4h0.98l3.14,8.4h-0.98l-1.01-2.72H624.08z M625.72,429.05l-1.34,3.77
			h2.7L625.72,429.05z"/>
		<path class="st4" d="M630.33,430.15h0.91v0.98c0.16-0.23,0.82-1.14,2.17-1.14c1.77,0,3.05,1.36,3.05,3.26
			c0,1.93-1.21,3.29-2.97,3.29c-1.31,0-2.01-0.84-2.21-1.16v3.25h-0.95V430.15z M633.37,435.67c1.22,0,2.11-1,2.11-2.42
			c0-1.46-0.94-2.4-2.13-2.4c-1.29,0-2.11,1.09-2.11,2.4C631.24,434.79,632.2,435.67,633.37,435.67z"/>
		<path class="st4" d="M637.68,430.15h0.91v0.98c0.16-0.23,0.82-1.14,2.17-1.14c1.78,0,3.05,1.36,3.05,3.26
			c0,1.93-1.21,3.29-2.97,3.29c-1.31,0-2.01-0.84-2.21-1.16v3.25h-0.95V430.15z M640.73,435.67c1.22,0,2.11-1,2.11-2.42
			c0-1.46-0.94-2.4-2.13-2.4c-1.3,0-2.11,1.09-2.11,2.4C638.6,434.79,639.56,435.67,640.73,435.67z"/>
		<path class="st4" d="M650.88,430.94c-1.43,0-1.85,1.13-1.85,2.46v2.99h-0.95v-6.24h0.94v1.04c0.22-0.62,0.91-1.2,1.86-1.2V430.94z
			"/>
		<path class="st4" d="M653.93,432.41c0.79,0,1.39,0.3,1.64,0.56v-0.77c0-0.88-0.59-1.38-1.51-1.38c-0.77,0-1.39,0.28-1.83,0.54
			l-0.38-0.7c0.42-0.26,1.25-0.68,2.3-0.68c1.7,0,2.37,0.95,2.37,2.28v4.11h-0.82l-0.11-0.53c-0.32,0.37-0.85,0.68-1.69,0.68
			c-1.37,0-2.38-0.86-2.38-2.08C651.53,433.28,652.53,432.41,653.93,432.41z M654.06,435.75c0.91,0,1.55-0.54,1.55-1.29
			c0-0.78-0.62-1.28-1.56-1.28c-0.95,0-1.56,0.55-1.56,1.28C652.49,435.17,653.1,435.75,654.06,435.75z"/>
		<path class="st4" d="M658.13,428.84h0.95v1.31h1.37v0.8h-1.37v3.21c0,1.16,0.34,1.44,1.15,1.44c0.12,0,0.26-0.01,0.26-0.01v0.84
			c0,0-0.25,0.04-0.58,0.04c-1.25,0-1.79-0.82-1.79-2.22v-3.3h-0.73v-0.8h0.73V428.84z"/>
		<path class="st4" d="M662.07,427.89c0.37,0,0.66,0.29,0.66,0.65c0,0.37-0.29,0.66-0.66,0.66c-0.36,0-0.65-0.29-0.65-0.66
			C661.42,428.18,661.71,427.89,662.07,427.89z M661.6,430.15h0.95v6.24h-0.95V430.15z"/>
		<path class="st4" d="M667.02,429.99c1.88,0,3.25,1.4,3.25,3.27s-1.39,3.27-3.26,3.27s-3.25-1.38-3.25-3.27
			C663.76,431.38,665.16,429.99,667.02,429.99z M667.01,435.67c1.34,0,2.3-1.02,2.3-2.41c0-1.38-0.96-2.41-2.3-2.41
			c-1.34,0-2.28,1.04-2.28,2.41C664.73,434.67,665.68,435.67,667.01,435.67z"/>
		<path class="st4" d="M672.51,429.11c0-0.61-0.26-1.06-1-1.06v-0.83c1.24,0,1.94,0.6,1.94,1.93v7c0,1.32-0.71,1.93-1.94,1.93v-0.83
			c0.73,0,1-0.46,1-1.05V429.11z"/>
	</g>
	<g>
		<g>
			<g>
				<path class="st2" d="M140.63,106.48l-4.05-11.2h3.01l2.53,7.97l2.53-7.97h3.01l-4.05,11.2H140.63z"/>
				<path class="st2" d="M153.78,105.57l-2.46-6.43v7.35h-2.62v-11.2h3.55l2.79,7.09l2.8-7.09h3.55v11.2h-2.62v-7.35l-2.46,6.43
					H153.78z"/>
				<path class="st2" d="M167.31,106.48h-2.71v-8.53l-1.09,0.34l-0.64-2.27l2.19-0.74h2.24V106.48z"/>
			</g>
			<g>
				<path class="st2" d="M200.07,106.48l-4.05-11.2h3.01l2.53,7.97l2.53-7.97h3.01l-4.05,11.2H200.07z"/>
				<path class="st2" d="M213.22,105.57l-2.46-6.43v7.35h-2.62v-11.2h3.55l2.79,7.09l2.8-7.09h3.55v11.2h-2.62v-7.35l-2.46,6.43
					H213.22z"/>
				<path class="st2" d="M222.76,106.48v-0.98c0-3.23,4.77-5.19,4.77-6.87c0-0.67-0.45-1.06-1.14-1.06c-0.74,0-1.15,0.5-1.34,1.1
					l-2.37-0.7c0.29-1.22,1.3-2.91,3.83-2.91c2.19,0,3.81,1.28,3.81,3.46c0,2.85-3.76,4.08-4.29,5.57h4.4v2.38H222.76z"/>
			</g>
			<g>
				<path class="st2" d="M261.35,106.48l-4.05-11.2h3.01l2.53,7.97l2.53-7.97h3.01l-4.05,11.2H261.35z"/>
				<path class="st2" d="M274.5,105.57l-2.46-6.43v7.35h-2.62v-11.2h3.55l2.79,7.09l2.8-7.09h3.55v11.2h-2.62v-7.35l-2.46,6.43
					H274.5z"/>
				<path class="st2" d="M283.59,103.78l2.37-0.7c0.19,0.61,0.66,1.1,1.39,1.1c0.75,0,1.23-0.46,1.23-1.2
					c0-0.62-0.45-1.15-1.31-1.15h-1.55v-2.1l2-2.06h-3.67v-2.39h6.8v2.37l-2.03,1.94c1.33,0.27,2.53,1.1,2.53,3.28
					c0,2.29-1.67,3.83-3.94,3.83C284.88,106.69,283.87,105,283.59,103.78z"/>
			</g>
		</g>
		<g>
			<g>
				<rect x="124.77" y="224.83" class="st5" width="180.36" height="49.95"/>
			</g>
			<g>
				<path class="st3" d="M173.32,255.99h-3.69v-5.92h-5.4v5.92h-3.7v-15.12h3.7v5.88h5.4v-5.88h3.69V255.99z"/>
				<path class="st3" d="M180.9,259.86h-3.41l1.53-4.23l-4.23-10.98h3.87l2.01,6.53l2.1-6.53h3.76L180.9,259.86z"/>
				<path class="st3" d="M191.07,245.54c0.32-0.37,1.4-1.17,3.07-1.17c3.26,0,5.55,2.46,5.55,5.94c0,3.52-2.07,5.96-5.36,5.96
					c-1.73,0-2.79-0.86-3.03-1.15v4.9h-3.61v-15.38h3.37V245.54z M193.64,253.1c1.47,0,2.44-1.14,2.44-2.81
					c0-1.69-0.99-2.77-2.44-2.77c-1.56,0-2.44,1.25-2.44,2.77C191.2,252.08,192.22,253.1,193.64,253.1z"/>
				<path class="st3" d="M204.33,251.26c0.09,1.02,1.06,1.88,2.4,1.88c1.36,0,2.16-0.89,2.38-1.21l2.38,1.84
					c-0.32,0.67-1.88,2.51-4.82,2.51c-3.74,0-6.03-2.57-6.03-5.92c0-3.33,2.25-5.98,5.57-5.98c3.61,0,5.57,2.31,5.57,6.18
					c0,0.22,0,0.45-0.02,0.71H204.33z M204.44,248.97h3.67c-0.04-0.91-0.71-1.68-1.84-1.68
					C205.09,247.29,204.53,248.17,204.44,248.97z"/>
				<path class="st3" d="M219.76,248.04c-0.15-0.02-0.32-0.04-0.58-0.04c-1.75,0-2.33,1.27-2.33,2.98v5.01h-3.61v-11.34h3.52v1.51
					c0.54-1.1,1.6-1.79,3-1.79V248.04z"/>
				<path class="st3" d="M226.89,252.17l2.14-7.52h3.76l-3.82,11.34h-4.19l-3.89-11.34h3.87L226.89,252.17z"/>
				<path class="st3" d="M233.67,242.01c0-1.14,0.86-1.97,2.01-1.97s2.03,0.82,2.03,1.97c0,1.12-0.89,1.94-2.03,1.94
					S233.67,243.14,233.67,242.01z M237.51,255.99h-3.61v-11.34h3.61V255.99z"/>
				<path class="st3" d="M238.85,254.33l2.03-1.97c0.61,0.54,1.36,0.99,2.51,0.99c0.69,0,1.02-0.22,1.02-0.63
					c0-1.3-5.19-0.73-5.19-4.86c0-2.18,1.9-3.5,4.36-3.5c2.16,0,3.39,1.04,4.06,1.94l-2.33,1.84c-0.35-0.35-0.99-0.89-1.88-0.89
					c-0.52,0-0.82,0.22-0.82,0.56c0,1.43,5.23,0.6,5.23,4.71c0,2.31-2.03,3.74-4.62,3.74C241.05,256.27,239.52,255.24,238.85,254.33
					z"/>
				<path class="st3" d="M254.75,244.37c3.65,0,6.22,2.51,6.22,5.94c0,3.41-2.64,5.96-6.22,5.96c-3.61,0-6.16-2.51-6.16-5.92
					C248.59,246.92,251.25,244.37,254.75,244.37z M254.75,253.1c1.49,0,2.61-1.17,2.61-2.79c0-1.66-1.15-2.77-2.61-2.77
					c-1.49,0-2.55,1.15-2.55,2.81C252.2,252,253.28,253.1,254.75,253.1z"/>
				<path class="st3" d="M268.98,248.04c-0.15-0.02-0.32-0.04-0.58-0.04c-1.75,0-2.33,1.27-2.33,2.98v5.01h-3.61v-11.34h3.52v1.51
					c0.54-1.1,1.6-1.79,3-1.79V248.04z"/>
			</g>
			<g>
				<rect x="124.77" y="280.42" class="st6" width="180.36" height="49.95"/>
			</g>
			<g>
				<path class="st3" d="M190.03,311.58h-3.69v-5.92h-5.4v5.92h-3.7v-15.12h3.7v5.88h5.4v-5.88h3.69V311.58z"/>
				<path class="st3" d="M197.97,299.95c3.65,0,6.22,2.51,6.22,5.94c0,3.41-2.64,5.96-6.22,5.96c-3.61,0-6.16-2.51-6.16-5.92
					C191.82,302.5,194.47,299.95,197.97,299.95z M197.97,308.68c1.49,0,2.62-1.17,2.62-2.79c0-1.66-1.15-2.77-2.62-2.77
					c-1.49,0-2.55,1.15-2.55,2.81C195.42,307.58,196.5,308.68,197.97,308.68z"/>
				<path class="st3" d="M204.95,309.91l2.03-1.97c0.61,0.54,1.36,0.99,2.51,0.99c0.69,0,1.02-0.22,1.02-0.63
					c0-1.3-5.19-0.73-5.19-4.86c0-2.18,1.9-3.5,4.36-3.5c2.16,0,3.39,1.04,4.06,1.94l-2.33,1.84c-0.35-0.35-0.99-0.89-1.88-0.89
					c-0.52,0-0.82,0.22-0.82,0.56c0,1.43,5.23,0.6,5.23,4.71c0,2.31-2.03,3.74-4.62,3.74C207.15,311.86,205.62,310.82,204.95,309.91
					z"/>
				<path class="st3" d="M219.18,300.23h1.92v2.92h-1.92v4.17c0,0.99,0.67,1.23,1.4,1.23c0.19,0,0.37,0,0.6-0.02v3.09
					c0,0-0.47,0.13-1.38,0.13c-2.68,0-4.23-1.23-4.23-4.6v-4h-1.1v-2.92h1.1v-2.4h3.61V300.23z"/>
				<path class="st3" d="M226.66,303.99c0-4.39,3.15-7.82,7.93-7.82s7.93,3.44,7.93,7.82c0,4.45-3.15,7.87-7.93,7.87
					S226.66,308.45,226.66,303.99z M230.5,303.99c0,2.55,1.69,4.41,4.08,4.41s4.08-1.86,4.08-4.41c0-2.48-1.66-4.36-4.08-4.36
					S230.5,301.51,230.5,303.99z"/>
				<path class="st3" d="M253.74,299.67l-3.07,1.4c-0.3-0.67-0.76-1.49-1.9-1.49c-0.71,0-1.19,0.43-1.19,1.01
					c0,2.05,6.31,1.84,6.31,6.46c0,2.79-1.99,4.8-5.29,4.8c-3.39,0-4.75-2.46-5.14-3.61l3.09-1.53c0.41,0.89,1.23,1.69,2.27,1.69
					c0.89,0,1.34-0.39,1.34-1.06c0-2.01-6.27-1.84-6.27-6.68c0-2.72,1.97-4.49,4.97-4.49C252.1,296.17,253.36,298.53,253.74,299.67z
					"/>
			</g>
			<g>
				<rect x="124.77" y="336" class="st2" width="180.36" height="49.95"/>
			</g>
			<g>
				<path class="st3" d="M154.54,367.16h-3.7v-5.92h-5.4v5.92h-3.69v-15.12h3.69v5.88h5.4v-5.88h3.7V367.16z"/>
				<path class="st3" d="M162.49,355.54c3.65,0,6.22,2.51,6.22,5.94c0,3.41-2.64,5.96-6.22,5.96c-3.61,0-6.16-2.51-6.16-5.92
					C156.33,358.09,158.99,355.54,162.49,355.54z M162.49,364.27c1.49,0,2.61-1.17,2.61-2.79c0-1.66-1.15-2.77-2.61-2.77
					c-1.49,0-2.55,1.15-2.55,2.81C159.94,363.17,161.02,364.27,162.49,364.27z"/>
				<path class="st3" d="M169.46,365.5l2.03-1.97c0.61,0.54,1.36,0.99,2.51,0.99c0.69,0,1.02-0.22,1.02-0.63
					c0-1.3-5.19-0.73-5.19-4.86c0-2.18,1.9-3.5,4.36-3.5c2.16,0,3.39,1.04,4.06,1.94l-2.33,1.84c-0.35-0.35-0.99-0.89-1.88-0.89
					c-0.52,0-0.82,0.22-0.82,0.56c0,1.43,5.23,0.6,5.23,4.71c0,2.31-2.03,3.74-4.62,3.74C171.66,367.45,170.13,366.41,169.46,365.5z
					"/>
				<path class="st3" d="M183.7,355.82h1.92v2.92h-1.92v4.17c0,0.99,0.67,1.23,1.4,1.23c0.19,0,0.37,0,0.61-0.02v3.09
					c0,0-0.48,0.13-1.38,0.13c-2.68,0-4.24-1.23-4.24-4.6v-4h-1.1v-2.92h1.1v-2.4h3.61V355.82z"/>
				<path class="st3" d="M204.72,367.16h-3.7v-5.92h-5.4v5.92h-3.69v-15.12h3.69v5.88h5.4v-5.88h3.7V367.16z"/>
				<path class="st3" d="M210.89,359.88c0.99,0,1.77,0.24,2.18,0.41v-0.41c0-0.69-0.56-1.23-1.73-1.23c-0.99,0-1.97,0.28-2.85,0.71
					l-1.34-2.42c1.21-0.8,2.74-1.4,4.62-1.4c3.91,0,4.91,2.01,4.91,4.6v7.02h-3.22l-0.19-0.63c-0.58,0.58-1.4,0.91-2.57,0.91
					c-2.23,0-4.21-1.34-4.21-3.8C206.48,361.37,208.21,359.88,210.89,359.88z M211.62,364.68c0.86,0,1.51-0.41,1.51-1.17
					c0-0.78-0.67-1.21-1.53-1.21s-1.51,0.48-1.51,1.21C210.09,364.27,210.78,364.68,211.62,364.68z"/>
				<path class="st3" d="M225.15,359.21c-0.15-0.02-0.32-0.04-0.58-0.04c-1.75,0-2.33,1.27-2.33,2.98v5.01h-3.61v-11.34h3.52v1.51
					c0.54-1.1,1.6-1.79,3-1.79V359.21z"/>
				<path class="st3" d="M234.65,366.28c-0.32,0.37-1.4,1.17-3.07,1.17c-3.26,0-5.55-2.46-5.55-5.94c0-3.52,2.07-5.96,5.36-5.96
					c1.73,0,2.79,0.86,3.02,1.14v-5.14h3.61v15.62h-3.37V366.28z M232.08,358.72c-1.47,0-2.44,1.15-2.44,2.81
					c0,1.69,0.99,2.77,2.44,2.77c1.56,0,2.44-1.25,2.44-2.77C234.52,359.73,233.51,358.72,232.08,358.72z"/>
				<path class="st3" d="M248.06,360.75l-1.62,6.42h-4.06l-3.18-11.34h3.93l1.53,7.41l1.71-7.41h3.37l1.71,7.41l1.53-7.41h3.93
					l-3.18,11.34h-4.06L248.06,360.75z"/>
				<path class="st3" d="M261.91,359.88c0.99,0,1.77,0.24,2.18,0.41v-0.41c0-0.69-0.56-1.23-1.73-1.23c-0.99,0-1.97,0.28-2.85,0.71
					l-1.34-2.42c1.21-0.8,2.74-1.4,4.62-1.4c3.91,0,4.9,2.01,4.9,4.6v7.02h-3.22l-0.19-0.63c-0.58,0.58-1.41,0.91-2.57,0.91
					c-2.23,0-4.21-1.34-4.21-3.8C257.5,361.37,259.23,359.88,261.91,359.88z M262.64,364.68c0.86,0,1.51-0.41,1.51-1.17
					c0-0.78-0.67-1.21-1.53-1.21s-1.51,0.48-1.51,1.21C261.11,364.27,261.8,364.68,262.64,364.68z"/>
				<path class="st3" d="M276.17,359.21c-0.15-0.02-0.32-0.04-0.58-0.04c-1.75,0-2.33,1.27-2.33,2.98v5.01h-3.61v-11.34h3.52v1.51
					c0.54-1.1,1.6-1.79,3-1.79V359.21z"/>
				<path class="st3" d="M280.31,362.43c0.09,1.01,1.06,1.88,2.4,1.88c1.36,0,2.16-0.89,2.38-1.21l2.38,1.84
					c-0.32,0.67-1.88,2.51-4.82,2.51c-3.74,0-6.03-2.57-6.03-5.92c0-3.33,2.25-5.98,5.57-5.98c3.61,0,5.58,2.31,5.58,6.18
					c0,0.22,0,0.45-0.02,0.71H280.31z M280.42,360.14h3.67c-0.04-0.91-0.71-1.68-1.84-1.68
					C281.07,358.46,280.51,359.34,280.42,360.14z"/>
			</g>
			<g>
				<path class="st2" d="M305.12,274.41H124.77c-0.28,0-0.5-0.22-0.5-0.5v-49.95c0-0.28,0.22-0.5,0.5-0.5h180.36
					c0.28,0,0.5,0.22,0.5,0.5v49.95C305.62,274.18,305.4,274.41,305.12,274.41z M125.27,273.41h179.36v-48.95H125.27V273.41z"/>
			</g>
			<g>
				<path class="st2" d="M305.12,329.99H124.77c-0.28,0-0.5-0.22-0.5-0.5v-49.95c0-0.28,0.22-0.5,0.5-0.5h180.36
					c0.28,0,0.5,0.22,0.5,0.5v49.95C305.62,329.77,305.4,329.99,305.12,329.99z M125.27,328.99h179.36v-48.95H125.27V328.99z"/>
			</g>
			<g>
				<path class="st2" d="M305.12,385.58H124.77c-0.28,0-0.5-0.22-0.5-0.5v-49.95c0-0.28,0.22-0.5,0.5-0.5h180.36
					c0.28,0,0.5,0.22,0.5,0.5v49.95C305.62,385.35,305.4,385.58,305.12,385.58z M125.27,384.58h179.36v-48.95H125.27V384.58z"/>
			</g>
			<g>
				<g>
					<rect x="124.77" y="117.92" class="st5" width="56.45" height="44.8"/>
				</g>
				<g>
					<rect x="124.77" y="168.46" class="st2" width="56.46" height="50.4"/>
				</g>
				<g>
					<path class="st2" d="M181.22,164.44h-56.45c-0.28,0-0.5-0.22-0.5-0.5v-44.8c0-0.28,0.22-0.5,0.5-0.5h56.45
						c0.28,0,0.5,0.22,0.5,0.5v44.8C181.72,164.21,181.5,164.44,181.22,164.44z M125.27,163.44h55.45v-43.8h-55.45V163.44z"/>
				</g>
				<g>
					<path class="st2" d="M181.22,219.24h-56.46c-0.28,0-0.5-0.22-0.5-0.5v-50.4c0-0.28,0.22-0.5,0.5-0.5h56.46
						c0.28,0,0.5,0.22,0.5,0.5v50.4C181.72,219.02,181.5,219.24,181.22,219.24z M125.27,218.24h55.46v-49.4h-55.46V218.24z"/>
				</g>
				<g>
					<path class="st3" d="M137.75,144.8l-1.04,3.26h-3.57l5.02-14.52h3.73l5.02,14.52h-3.57l-1.04-3.26H137.75z M140.04,137.3
						l-1.37,4.6h2.74L140.04,137.3z"/>
					<path class="st3" d="M151.27,138.02c0.31-0.35,1.35-1.12,2.95-1.12c3.13,0,5.33,2.36,5.33,5.7c0,3.38-1.99,5.72-5.14,5.72
						c-1.66,0-2.67-0.83-2.9-1.1v4.71h-3.46v-14.76h3.23V138.02z M153.74,145.28c1.41,0,2.34-1.1,2.34-2.7
						c0-1.62-0.95-2.65-2.34-2.65c-1.49,0-2.34,1.2-2.34,2.65C151.4,144.31,152.37,145.28,153.74,145.28z"/>
					<path class="st3" d="M164.23,138.02c0.31-0.35,1.35-1.12,2.95-1.12c3.13,0,5.33,2.36,5.33,5.7c0,3.38-1.99,5.72-5.14,5.72
						c-1.66,0-2.67-0.83-2.9-1.1v4.71H161v-14.76h3.23V138.02z M166.7,145.28c1.41,0,2.34-1.1,2.34-2.7c0-1.62-0.95-2.65-2.34-2.65
						c-1.49,0-2.34,1.2-2.34,2.65C164.36,144.31,165.33,145.28,166.7,145.28z"/>
				</g>
				<g>
					<path class="st3" d="M141.6,189.29c-1.27,0.98-2.74,1.89-5.51,1.89c-3.41,0-6.23-2.41-6.23-6.28c0-3.44,2.55-6.21,6.3-6.21
						c2.84,0,4.29,1.33,4.91,2.1l-1.86,1.93c-0.26-0.34-1.29-1.31-2.91-1.31c-2.15,0-3.39,1.5-3.39,3.44c0,2.24,1.48,3.61,3.39,3.61
						c1.51,0,2.38-0.55,2.57-0.74v-1.07h-2.08v-2.46h4.82V189.29z"/>
					<path class="st3" d="M145.97,187.31c0,0.84,0.5,1.29,1.19,1.29c0.79,0,1.24-0.57,1.24-1.29v-5.39h2.87v9.04h-2.8v-0.93
						c-0.34,0.53-1.14,1.15-2.27,1.15c-2.82,0-3.1-2.41-3.1-4.25v-5.01h2.88V187.31z"/>
					<path class="st3" d="M155.35,187.19c0.07,0.81,0.84,1.5,1.91,1.5c1.08,0,1.72-0.71,1.89-0.96l1.89,1.46
						c-0.26,0.53-1.5,2-3.84,2c-2.98,0-4.8-2.05-4.8-4.72c0-2.65,1.79-4.77,4.44-4.77c2.88,0,4.44,1.84,4.44,4.92
						c0,0.17,0,0.36-0.02,0.57H155.35z M155.44,185.37h2.93c-0.04-0.72-0.57-1.34-1.46-1.34
						C155.96,184.03,155.51,184.73,155.44,185.37z"/>
					<path class="st3" d="M161.86,189.64l1.62-1.57c0.48,0.43,1.08,0.79,2,0.79c0.55,0,0.81-0.17,0.81-0.5
						c0-1.03-4.13-0.59-4.13-3.87c0-1.74,1.52-2.79,3.48-2.79c1.72,0,2.7,0.83,3.24,1.55l-1.86,1.46c-0.28-0.28-0.79-0.71-1.5-0.71
						c-0.41,0-0.65,0.17-0.65,0.45c0,1.14,4.17,0.48,4.17,3.75c0,1.84-1.62,2.98-3.68,2.98
						C163.61,191.19,162.39,190.36,161.86,189.64z"/>
					<path class="st3" d="M173.2,181.93h1.53v2.32h-1.53v3.32c0,0.79,0.53,0.98,1.12,0.98c0.16,0,0.29,0,0.48-0.02V191
						c0,0-0.38,0.1-1.1,0.1c-2.13,0-3.37-0.98-3.37-3.67v-3.18h-0.88v-2.32h0.88v-1.91h2.87V181.93z"/>
					<path class="st3" d="M141.48,200.62c0-3.49,2.51-6.23,6.32-6.23c3.8,0,6.32,2.74,6.32,6.23c0,3.54-2.51,6.26-6.32,6.26
						C143.99,206.89,141.48,204.17,141.48,200.62z M144.54,200.62c0,2.03,1.34,3.51,3.25,3.51s3.25-1.48,3.25-3.51
						c0-1.98-1.33-3.48-3.25-3.48S144.54,198.65,144.54,200.62z"/>
					<path class="st3" d="M163.06,197.18l-2.44,1.12c-0.24-0.53-0.6-1.19-1.51-1.19c-0.57,0-0.95,0.34-0.95,0.81
						c0,1.64,5.03,1.46,5.03,5.15c0,2.22-1.58,3.82-4.22,3.82c-2.7,0-3.79-1.96-4.1-2.87l2.46-1.22c0.33,0.71,0.98,1.34,1.81,1.34
						c0.71,0,1.07-0.31,1.07-0.84c0-1.6-4.99-1.46-4.99-5.32c0-2.17,1.57-3.58,3.96-3.58C161.76,194.39,162.75,196.27,163.06,197.18
						z"/>
				</g>
			</g>
			<g>
				<g>
					<rect x="186.06" y="117.92" class="st5" width="56.45" height="44.8"/>
				</g>
				<g>
					<rect x="186.07" y="168.46" class="st2" width="56.45" height="50.4"/>
				</g>
				<g>
					<path class="st2" d="M242.51,164.44h-56.45c-0.28,0-0.5-0.22-0.5-0.5v-44.8c0-0.28,0.22-0.5,0.5-0.5h56.45
						c0.28,0,0.5,0.22,0.5,0.5v44.8C243.01,164.21,242.79,164.44,242.51,164.44z M186.56,163.44h55.45v-43.8h-55.45V163.44z"/>
				</g>
				<g>
					<path class="st2" d="M242.52,219.24h-56.45c-0.28,0-0.5-0.22-0.5-0.5v-50.4c0-0.28,0.22-0.5,0.5-0.5h56.45
						c0.28,0,0.5,0.22,0.5,0.5v50.4C243.02,219.02,242.79,219.24,242.52,219.24z M186.57,218.24h55.45v-49.4h-55.45V218.24z"/>
				</g>
				<g>
					<path class="st3" d="M199.05,144.8l-1.04,3.26h-3.57l5.02-14.52h3.73l5.02,14.52h-3.57l-1.04-3.26H199.05z M201.33,137.3
						l-1.37,4.6h2.74L201.33,137.3z"/>
					<path class="st3" d="M212.57,138.02c0.31-0.35,1.35-1.12,2.94-1.12c3.13,0,5.33,2.36,5.33,5.7c0,3.38-1.99,5.72-5.14,5.72
						c-1.66,0-2.67-0.83-2.9-1.1v4.71h-3.46v-14.76h3.24V138.02z M215.04,145.28c1.41,0,2.34-1.1,2.34-2.7
						c0-1.62-0.95-2.65-2.34-2.65c-1.49,0-2.34,1.2-2.34,2.65C212.69,144.31,213.67,145.28,215.04,145.28z"/>
					<path class="st3" d="M225.53,138.02c0.31-0.35,1.35-1.12,2.94-1.12c3.13,0,5.33,2.36,5.33,5.7c0,3.38-1.99,5.72-5.14,5.72
						c-1.66,0-2.67-0.83-2.9-1.1v4.71h-3.46v-14.76h3.24V138.02z M227.99,145.28c1.41,0,2.34-1.1,2.34-2.7
						c0-1.62-0.95-2.65-2.34-2.65c-1.49,0-2.34,1.2-2.34,2.65C225.65,144.31,226.63,145.28,227.99,145.28z"/>
				</g>
				<g>
					<path class="st3" d="M202.9,189.6c-1.27,0.98-2.74,1.89-5.51,1.89c-3.41,0-6.23-2.41-6.23-6.28c0-3.44,2.55-6.21,6.3-6.21
						c2.84,0,4.29,1.33,4.91,2.1l-1.86,1.93c-0.26-0.34-1.29-1.31-2.91-1.31c-2.15,0-3.39,1.5-3.39,3.44c0,2.24,1.48,3.61,3.39,3.61
						c1.51,0,2.38-0.55,2.57-0.74v-1.07h-2.08v-2.46h4.82V189.6z"/>
					<path class="st3" d="M207.27,187.62c0,0.84,0.5,1.29,1.19,1.29c0.79,0,1.24-0.57,1.24-1.29v-5.39h2.88v9.04h-2.81v-0.93
						c-0.34,0.53-1.14,1.15-2.27,1.15c-2.82,0-3.1-2.41-3.1-4.25v-5.01h2.87V187.62z"/>
					<path class="st3" d="M216.65,187.5c0.07,0.81,0.84,1.5,1.91,1.5c1.08,0,1.72-0.71,1.89-0.96l1.89,1.46c-0.26,0.53-1.5,2-3.84,2
						c-2.98,0-4.8-2.05-4.8-4.72c0-2.65,1.79-4.77,4.44-4.77c2.87,0,4.44,1.84,4.44,4.92c0,0.17,0,0.36-0.02,0.57H216.65z
						 M216.73,185.68h2.93c-0.04-0.72-0.57-1.34-1.46-1.34C217.25,184.33,216.8,185.04,216.73,185.68z"/>
					<path class="st3" d="M223.15,189.95l1.62-1.57c0.48,0.43,1.08,0.79,2,0.79c0.55,0,0.81-0.17,0.81-0.5
						c0-1.03-4.13-0.59-4.13-3.87c0-1.74,1.51-2.79,3.48-2.79c1.72,0,2.7,0.83,3.24,1.55l-1.86,1.46c-0.28-0.28-0.79-0.71-1.5-0.71
						c-0.41,0-0.65,0.17-0.65,0.45c0,1.14,4.17,0.48,4.17,3.75c0,1.84-1.62,2.98-3.68,2.98
						C224.91,191.49,223.69,190.67,223.15,189.95z"/>
					<path class="st3" d="M234.5,182.23h1.53v2.32h-1.53v3.32c0,0.79,0.53,0.98,1.12,0.98c0.16,0,0.29,0,0.48-0.02v2.46
						c0,0-0.38,0.1-1.1,0.1c-2.13,0-3.37-0.98-3.37-3.67v-3.18h-0.88v-2.32h0.88v-1.91h2.87V182.23z"/>
					<path class="st3" d="M202.78,200.93c0-3.49,2.51-6.23,6.32-6.23c3.8,0,6.32,2.74,6.32,6.23c0,3.54-2.51,6.26-6.32,6.26
						C205.29,207.2,202.78,204.48,202.78,200.93z M205.84,200.93c0,2.03,1.34,3.51,3.25,3.51c1.91,0,3.25-1.48,3.25-3.51
						c0-1.98-1.33-3.48-3.25-3.48S205.84,198.95,205.84,200.93z"/>
					<path class="st3" d="M224.36,197.49l-2.44,1.12c-0.24-0.53-0.6-1.19-1.51-1.19c-0.57,0-0.95,0.34-0.95,0.81
						c0,1.64,5.03,1.46,5.03,5.15c0,2.22-1.58,3.82-4.22,3.82c-2.7,0-3.79-1.96-4.1-2.87l2.46-1.22c0.33,0.71,0.98,1.34,1.81,1.34
						c0.71,0,1.07-0.31,1.07-0.84c0-1.6-4.99-1.46-4.99-5.32c0-2.17,1.57-3.58,3.96-3.58C223.05,194.7,224.05,196.58,224.36,197.49z
						"/>
				</g>
			</g>
			<g>
				<g>
					<rect x="248.67" y="117.92" class="st5" width="56.45" height="44.8"/>
				</g>
				<g>
					<rect x="248.67" y="168.46" class="st2" width="56.45" height="50.4"/>
				</g>
				<g>
					<path class="st2" d="M305.12,164.44h-56.45c-0.28,0-0.5-0.22-0.5-0.5v-44.8c0-0.28,0.22-0.5,0.5-0.5h56.45
						c0.28,0,0.5,0.22,0.5,0.5v44.8C305.62,164.21,305.4,164.44,305.12,164.44z M249.17,163.44h55.45v-43.8h-55.45V163.44z"/>
				</g>
				<g>
					<path class="st2" d="M305.12,219.24h-56.45c-0.28,0-0.5-0.22-0.5-0.5v-50.4c0-0.28,0.22-0.5,0.5-0.5h56.45
						c0.28,0,0.5,0.22,0.5,0.5v50.4C305.62,219.02,305.4,219.24,305.12,219.24z M249.17,218.24h55.45v-49.4h-55.45V218.24z"/>
				</g>
				<g>
					<path class="st3" d="M261.66,144.8l-1.04,3.26h-3.57l5.02-14.52h3.73l5.02,14.52h-3.57l-1.04-3.26H261.66z M263.94,137.3
						l-1.37,4.6h2.74L263.94,137.3z"/>
					<path class="st3" d="M275.17,138.02c0.31-0.35,1.35-1.12,2.95-1.12c3.13,0,5.33,2.36,5.33,5.7c0,3.38-1.99,5.72-5.14,5.72
						c-1.66,0-2.67-0.83-2.9-1.1v4.71h-3.46v-14.76h3.23V138.02z M277.64,145.28c1.41,0,2.34-1.1,2.34-2.7
						c0-1.62-0.95-2.65-2.34-2.65c-1.49,0-2.34,1.2-2.34,2.65C275.3,144.31,276.27,145.28,277.64,145.28z"/>
					<path class="st3" d="M288.13,138.02c0.31-0.35,1.35-1.12,2.95-1.12c3.13,0,5.33,2.36,5.33,5.7c0,3.38-1.99,5.72-5.14,5.72
						c-1.66,0-2.67-0.83-2.9-1.1v4.71h-3.46v-14.76h3.23V138.02z M290.6,145.28c1.41,0,2.34-1.1,2.34-2.7
						c0-1.62-0.95-2.65-2.34-2.65c-1.49,0-2.34,1.2-2.34,2.65C288.26,144.31,289.23,145.28,290.6,145.28z"/>
				</g>
				<g>
					<path class="st3" d="M265.5,189.29c-1.27,0.98-2.74,1.89-5.51,1.89c-3.41,0-6.23-2.41-6.23-6.28c0-3.44,2.55-6.21,6.3-6.21
						c2.84,0,4.29,1.33,4.91,2.1l-1.86,1.93c-0.26-0.34-1.29-1.31-2.91-1.31c-2.15,0-3.39,1.5-3.39,3.44c0,2.24,1.48,3.61,3.39,3.61
						c1.51,0,2.38-0.55,2.57-0.74v-1.07h-2.08v-2.46h4.82V189.29z"/>
					<path class="st3" d="M269.87,187.31c0,0.84,0.5,1.29,1.19,1.29c0.79,0,1.24-0.57,1.24-1.29v-5.39h2.87v9.04h-2.8v-0.93
						c-0.34,0.53-1.14,1.15-2.27,1.15c-2.82,0-3.1-2.41-3.1-4.25v-5.01h2.88V187.31z"/>
					<path class="st3" d="M279.25,187.19c0.07,0.81,0.84,1.5,1.91,1.5c1.08,0,1.72-0.71,1.89-0.96l1.89,1.46
						c-0.26,0.53-1.5,2-3.84,2c-2.98,0-4.8-2.05-4.8-4.72c0-2.65,1.79-4.77,4.44-4.77c2.88,0,4.44,1.84,4.44,4.92
						c0,0.17,0,0.36-0.02,0.57H279.25z M279.34,185.37h2.93c-0.04-0.72-0.57-1.34-1.46-1.34
						C279.86,184.03,279.41,184.73,279.34,185.37z"/>
					<path class="st3" d="M285.76,189.64l1.62-1.57c0.48,0.43,1.08,0.79,2,0.79c0.55,0,0.81-0.17,0.81-0.5
						c0-1.03-4.13-0.59-4.13-3.87c0-1.74,1.52-2.79,3.48-2.79c1.72,0,2.7,0.83,3.24,1.55l-1.86,1.46c-0.28-0.28-0.79-0.71-1.5-0.71
						c-0.41,0-0.65,0.17-0.65,0.45c0,1.14,4.17,0.48,4.17,3.75c0,1.84-1.62,2.98-3.68,2.98
						C287.51,191.19,286.29,190.36,285.76,189.64z"/>
					<path class="st3" d="M297.1,181.93h1.53v2.32h-1.53v3.32c0,0.79,0.53,0.98,1.12,0.98c0.16,0,0.29,0,0.48-0.02V191
						c0,0-0.38,0.1-1.1,0.1c-2.13,0-3.37-0.98-3.37-3.67v-3.18h-0.88v-2.32h0.88v-1.91h2.87V181.93z"/>
					<path class="st3" d="M265.38,200.62c0-3.49,2.51-6.23,6.32-6.23c3.8,0,6.32,2.74,6.32,6.23c0,3.54-2.51,6.26-6.32,6.26
						C267.89,206.89,265.38,204.17,265.38,200.62z M268.45,200.62c0,2.03,1.34,3.51,3.25,3.51s3.25-1.48,3.25-3.51
						c0-1.98-1.33-3.48-3.25-3.48S268.45,198.65,268.45,200.62z"/>
					<path class="st3" d="M286.96,197.18l-2.44,1.12c-0.24-0.53-0.6-1.19-1.51-1.19c-0.57,0-0.95,0.34-0.95,0.81
						c0,1.64,5.03,1.46,5.03,5.15c0,2.22-1.58,3.82-4.22,3.82c-2.7,0-3.79-1.96-4.1-2.87l2.46-1.22c0.33,0.71,0.98,1.34,1.81,1.34
						c0.71,0,1.07-0.31,1.07-0.84c0-1.6-4.99-1.46-4.99-5.32c0-2.17,1.57-3.58,3.96-3.58C285.66,194.39,286.66,196.27,286.96,197.18
						z"/>
				</g>
			</g>
		</g>
	</g>
	<g>
		<path class="st4" d="M545.33,415.96h-3.93v-12.39l-1.58,0.49l-0.93-3.3l3.19-1.07h3.26V415.96z"/>
		<path class="st4" d="M552.12,406.07c0-1.28,1.02-2.33,2.3-2.33s2.33,1.05,2.33,2.33c0,1.26-1.05,2.3-2.33,2.3
			S552.12,407.33,552.12,406.07z M552.12,413.96c0-1.28,1.02-2.33,2.3-2.33s2.33,1.05,2.33,2.33c0,1.26-1.05,2.3-2.33,2.3
			S552.12,415.21,552.12,413.96z"/>
		<path class="st4" d="M568.02,415.96l-5.88-16.28h4.37l3.67,11.58l3.67-11.58h4.37l-5.88,16.28H568.02z"/>
		<path class="st4" d="M579.79,415.96v-16.28h8.67v3.56h-4.7v2.72h4v3.54h-4v2.91h4.88v3.56H579.79z"/>
		<path class="st4" d="M599.81,408.98c0,0-0.02-0.05,3.74,6.98h-4.4l-2.91-6.02h-1.21v6.02h-3.98v-16.28h5.3c3.84,0,5.7,1.77,5.7,5
			C602.07,406.47,601.3,408.17,599.81,408.98z M595.05,403.1v3.51h1.19c1.09,0,1.77-0.67,1.77-1.79c0-1.07-0.51-1.72-1.95-1.72
			H595.05z"/>
		<path class="st4" d="M608.81,415.96v-7.35l-4.98-8.93h4.46l2.49,5.33l2.56-5.33h4.4l-4.98,8.93v7.35H608.81z"/>
		<path class="st4" d="M631.23,414.63l-3.58-9.35v10.67h-3.81v-16.28H629l4.05,10.3l4.07-10.3h5.16v16.28h-3.81v-10.67l-3.58,9.35
			H631.23z"/>
		<path class="st4" d="M648.97,412.31l-1.16,3.65h-4l5.63-16.28h4.19l5.63,16.28h-4l-1.16-3.65H648.97z M651.53,403.89l-1.54,5.16
			h3.07L651.53,403.89z"/>
		<path class="st4" d="M664.69,405.98v9.98h-3.91v-16.28h4.05l5.95,10.09v-10.09h3.91v16.28h-3.95L664.69,405.98z"/>
		<path class="st4" d="M681.2,415.96v-7.35l-4.98-8.93h4.46l2.49,5.33l2.56-5.33h4.4l-4.98,8.93v7.35H681.2z"/>
	</g>
	<g>
		<path class="st4" d="M501.36,102.4c-0.33,0.29-1.31,0.97-2.75,0.97c-2.49,0-4.31-1.89-4.31-4.41c0-2.5,1.88-4.41,4.29-4.41
			c1.27,0,2.19,0.52,2.63,0.89l-0.32,0.87c-0.33-0.27-1.17-0.84-2.3-0.84c-1.88,0-3.29,1.51-3.29,3.49c0,1.98,1.35,3.49,3.32,3.49
			c1.29,0,2.13-0.67,2.42-0.91L501.36,102.4z"/>
		<path class="st4" d="M505.5,96.74c1.91,0,3.29,1.42,3.29,3.32c0,1.89-1.41,3.32-3.3,3.32s-3.29-1.4-3.29-3.32
			C502.2,98.15,503.62,96.74,505.5,96.74z M505.49,102.5c1.36,0,2.33-1.03,2.33-2.44c0-1.4-0.97-2.44-2.33-2.44
			s-2.31,1.06-2.31,2.44C503.18,101.48,504.14,102.5,505.49,102.5z"/>
		<path class="st4" d="M515.08,99.27v3.95h-0.96v-3.98c0-1.01-0.63-1.62-1.49-1.62c-0.97,0-1.64,0.72-1.64,1.76v3.84h-0.96V96.9
			h0.95v0.91c0.3-0.57,1.01-1.07,1.88-1.07C514.32,96.74,515.08,97.83,515.08,99.27z"/>
		<path class="st4" d="M516.75,95.57h0.96v1.32h1.38v0.81h-1.38v3.25c0,1.18,0.34,1.46,1.17,1.46c0.12,0,0.27-0.01,0.27-0.01v0.85
			c0,0-0.26,0.04-0.58,0.04c-1.26,0-1.81-0.83-1.81-2.25v-3.34h-0.74V96.9h0.74V95.57z"/>
		<path class="st4" d="M522.28,99.19c0.8,0,1.41,0.3,1.66,0.57v-0.78c0-0.89-0.59-1.4-1.53-1.4c-0.78,0-1.41,0.28-1.86,0.55
			l-0.39-0.7c0.43-0.27,1.26-0.69,2.33-0.69c1.72,0,2.41,0.96,2.41,2.31v4.17h-0.83l-0.11-0.53c-0.33,0.38-0.86,0.69-1.71,0.69
			c-1.38,0-2.4-0.87-2.4-2.1C519.85,100.07,520.86,99.19,522.28,99.19z M522.42,102.57c0.92,0,1.57-0.55,1.57-1.31
			c0-0.79-0.63-1.3-1.58-1.3c-0.96,0-1.58,0.56-1.58,1.3C520.83,101.99,521.45,102.57,522.42,102.57z"/>
		<path class="st4" d="M526.94,94.61c0.38,0,0.67,0.29,0.67,0.66c0,0.38-0.29,0.67-0.67,0.67c-0.36,0-0.66-0.29-0.66-0.67
			C526.28,94.9,526.57,94.61,526.94,94.61z M526.46,96.9h0.96v6.32h-0.96V96.9z"/>
		<path class="st4" d="M534.13,99.27v3.95h-0.96v-3.98c0-1.01-0.63-1.62-1.49-1.62c-0.97,0-1.64,0.72-1.64,1.76v3.84h-0.96V96.9
			h0.95v0.91c0.3-0.57,1.01-1.07,1.88-1.07C533.38,96.74,534.13,97.83,534.13,99.27z"/>
		<path class="st4" d="M538.38,96.74c1.86,0,3,1.34,3,3.23c0,0.04,0,0.17-0.01,0.29h-5.07c0.01,1.41,0.96,2.26,2.27,2.26
			c1.07,0,1.66-0.56,1.97-0.98l0.63,0.46c-0.35,0.59-1.18,1.37-2.61,1.37c-1.92,0-3.24-1.35-3.24-3.29
			C535.32,98.06,536.71,96.74,538.38,96.74z M540.4,99.54c-0.06-1.31-0.97-1.98-2.02-1.98c-1.03,0-1.96,0.79-2.03,1.98H540.4z"/>
		<path class="st4" d="M545.43,97.7c-1.45,0-1.87,1.14-1.87,2.49v3.02h-0.96V96.9h0.95v1.06c0.22-0.63,0.92-1.21,1.88-1.21V97.7z"/>
		<path class="st4" d="M546.7,101.58c0.27,0.5,0.72,0.97,1.58,0.97c0.63,0,1.17-0.36,1.17-1.01c0-1.46-3.17-0.96-3.17-3.1
			c0-1.07,0.89-1.71,2.03-1.71c1.18,0,1.79,0.74,1.96,1.21l-0.7,0.4c-0.17-0.34-0.5-0.81-1.31-0.81c-0.58,0-1.04,0.33-1.04,0.87
			c0,1.42,3.18,0.89,3.18,3.09c0,1.12-0.92,1.87-2.15,1.87c-1.32,0-1.92-0.75-2.2-1.35L546.7,101.58z"/>
		<path class="st4" d="M556.67,99.19c0.8,0,1.41,0.3,1.66,0.57v-0.78c0-0.89-0.59-1.4-1.53-1.4c-0.78,0-1.41,0.28-1.86,0.55
			l-0.39-0.7c0.43-0.27,1.26-0.69,2.33-0.69c1.72,0,2.41,0.96,2.41,2.31v4.17h-0.83l-0.11-0.53c-0.33,0.38-0.86,0.69-1.71,0.69
			c-1.38,0-2.4-0.87-2.4-2.1C554.24,100.07,555.25,99.19,556.67,99.19z M556.8,102.57c0.92,0,1.57-0.55,1.57-1.31
			c0-0.79-0.63-1.3-1.58-1.3c-0.96,0-1.58,0.56-1.58,1.3C555.21,101.99,555.83,102.57,556.8,102.57z"/>
		<path class="st4" d="M563.68,97.7c-1.45,0-1.87,1.14-1.87,2.49v3.02h-0.96V96.9h0.95v1.06c0.22-0.63,0.92-1.21,1.88-1.21V97.7z"/>
		<path class="st4" d="M567.16,96.74c1.86,0,3,1.34,3,3.23c0,0.04,0,0.17-0.01,0.29h-5.07c0.01,1.41,0.96,2.26,2.27,2.26
			c1.07,0,1.66-0.56,1.97-0.98l0.63,0.46c-0.35,0.59-1.18,1.37-2.61,1.37c-1.92,0-3.24-1.35-3.24-3.29
			C564.1,98.06,565.48,96.74,567.16,96.74z M569.17,99.54c-0.06-1.31-0.97-1.98-2.02-1.98c-1.03,0-1.96,0.79-2.03,1.98H569.17z"/>
		<path class="st4" d="M574.93,94.61c0.38,0,0.67,0.29,0.67,0.66c0,0.38-0.29,0.67-0.67,0.67c-0.36,0-0.66-0.29-0.66-0.67
			C574.28,94.9,574.57,94.61,574.93,94.61z M574.46,96.9h0.96v6.32h-0.96V96.9z"/>
		<path class="st4" d="M577.27,101.58c0.27,0.5,0.72,0.97,1.58,0.97c0.63,0,1.17-0.36,1.17-1.01c0-1.46-3.17-0.96-3.17-3.1
			c0-1.07,0.89-1.71,2.03-1.71c1.18,0,1.79,0.74,1.96,1.21l-0.7,0.4c-0.17-0.34-0.5-0.81-1.31-0.81c-0.58,0-1.04,0.33-1.04,0.87
			c0,1.42,3.18,0.89,3.18,3.09c0,1.12-0.92,1.87-2.15,1.87c-1.32,0-1.92-0.75-2.2-1.35L577.27,101.58z"/>
		<path class="st4" d="M585.02,96.74c1.91,0,3.29,1.42,3.29,3.32c0,1.89-1.41,3.32-3.3,3.32s-3.29-1.4-3.29-3.32
			C581.71,98.15,583.14,96.74,585.02,96.74z M585.01,102.5c1.36,0,2.33-1.03,2.33-2.44c0-1.4-0.97-2.44-2.33-2.44
			s-2.31,1.06-2.31,2.44C582.7,101.48,583.66,102.5,585.01,102.5z"/>
		<path class="st4" d="M589.54,94.43h0.96v8.78h-0.96V94.43z"/>
		<path class="st4" d="M594.17,99.19c0.8,0,1.41,0.3,1.66,0.57v-0.78c0-0.89-0.59-1.4-1.53-1.4c-0.78,0-1.41,0.28-1.86,0.55
			l-0.39-0.7c0.43-0.27,1.26-0.69,2.33-0.69c1.72,0,2.41,0.96,2.41,2.31v4.17h-0.83l-0.11-0.53c-0.33,0.38-0.86,0.69-1.71,0.69
			c-1.38,0-2.4-0.87-2.4-2.1C591.74,100.07,592.75,99.19,594.17,99.19z M594.3,102.57c0.92,0,1.57-0.55,1.57-1.31
			c0-0.79-0.63-1.3-1.58-1.3c-0.96,0-1.58,0.56-1.58,1.3C592.71,101.99,593.33,102.57,594.3,102.57z"/>
		<path class="st4" d="M598.42,95.57h0.96v1.32h1.38v0.81h-1.38v3.25c0,1.18,0.34,1.46,1.17,1.46c0.12,0,0.27-0.01,0.27-0.01v0.85
			c0,0-0.26,0.04-0.58,0.04c-1.26,0-1.81-0.83-1.81-2.25v-3.34h-0.74V96.9h0.74V95.57z"/>
		<path class="st4" d="M604.58,96.74c1.86,0,3,1.34,3,3.23c0,0.04,0,0.17-0.01,0.29h-5.07c0.01,1.41,0.96,2.26,2.27,2.26
			c1.07,0,1.66-0.56,1.97-0.98l0.63,0.46c-0.35,0.59-1.18,1.37-2.61,1.37c-1.92,0-3.24-1.35-3.24-3.29
			C601.52,98.06,602.91,96.74,604.58,96.74z M606.6,99.54c-0.06-1.31-0.97-1.98-2.02-1.98c-1.03,0-1.96,0.79-2.03,1.98H606.6z"/>
		<path class="st4" d="M614.58,103.21h-0.94v-1c-0.16,0.23-0.81,1.15-2.19,1.15c-1.81,0-3.09-1.37-3.09-3.3
			c0-1.94,1.21-3.33,3.01-3.33c1.31,0,2.04,0.85,2.22,1.18v-3.49h0.97V103.21z M611.49,97.61c-1.24,0-2.14,1.02-2.14,2.47
			c0,1.47,0.94,2.43,2.15,2.43c1.32,0,2.14-1.1,2.14-2.43C613.64,98.51,612.67,97.61,611.49,97.61z"/>
		<path class="st4" d="M619.32,94.43h0.96v3.49c0.19-0.33,0.91-1.18,2.24-1.18c1.79,0,3.01,1.38,3.01,3.33c0,1.93-1.29,3.3-3.08,3.3
			c-1.37,0-2.04-0.92-2.2-1.15v1h-0.92V94.43z M622.38,102.51c1.21,0,2.16-0.96,2.16-2.43c0-1.45-0.9-2.47-2.14-2.47
			c-1.19,0-2.16,0.9-2.16,2.47C620.24,101.4,621.07,102.51,622.38,102.51z"/>
		<path class="st4" d="M626.7,100.84V96.9h0.96v3.98c0,1.01,0.64,1.62,1.49,1.62c0.97,0,1.64-0.72,1.64-1.76V96.9h0.97v6.32h-0.96
			v-0.91c-0.29,0.57-1.01,1.07-1.87,1.07C627.46,103.37,626.7,102.28,626.7,100.84z"/>
		<path class="st4" d="M633.43,95.57h0.96v1.32h1.38v0.81h-1.38v3.25c0,1.18,0.34,1.46,1.17,1.46c0.12,0,0.27-0.01,0.27-0.01v0.85
			c0,0-0.26,0.04-0.58,0.04c-1.26,0-1.81-0.83-1.81-2.25v-3.34h-0.74V96.9h0.74V95.57z"/>
		<path class="st4" d="M645.81,103.21h-0.94v-1c-0.16,0.23-0.81,1.15-2.19,1.15c-1.81,0-3.09-1.37-3.09-3.3
			c0-1.94,1.21-3.33,3.01-3.33c1.31,0,2.04,0.85,2.22,1.18v-3.49h0.97V103.21z M642.72,97.61c-1.24,0-2.14,1.02-2.14,2.47
			c0,1.47,0.94,2.43,2.15,2.43c1.32,0,2.14-1.1,2.14-2.43C644.87,98.51,643.9,97.61,642.72,97.61z"/>
		<path class="st4" d="M650.34,96.74c1.91,0,3.29,1.42,3.29,3.32c0,1.89-1.41,3.32-3.3,3.32s-3.29-1.4-3.29-3.32
			C647.04,98.15,648.46,96.74,650.34,96.74z M650.33,102.5c1.36,0,2.33-1.03,2.33-2.44c0-1.4-0.97-2.44-2.33-2.44
			s-2.31,1.06-2.31,2.44C648.02,101.48,648.98,102.5,650.33,102.5z"/>
		<path class="st4" d="M659.92,99.27v3.95h-0.96v-3.98c0-1.01-0.63-1.62-1.49-1.62c-0.97,0-1.64,0.72-1.64,1.76v3.84h-0.96V96.9
			h0.95v0.91c0.3-0.57,1.01-1.07,1.88-1.07C659.16,96.74,659.92,97.83,659.92,99.27z"/>
		<path class="st4" d="M661.44,94.52c0.41,0,0.72,0.28,0.72,0.73c0,0.86-0.41,1.48-0.94,1.94l-0.45-0.44
			c0.21-0.16,0.53-0.52,0.59-0.89c-0.36-0.05-0.58-0.35-0.58-0.67C660.78,94.82,661.06,94.52,661.44,94.52z"/>
		<path class="st4" d="M663.48,95.57h0.96v1.32h1.38v0.81h-1.38v3.25c0,1.18,0.34,1.46,1.17,1.46c0.12,0,0.27-0.01,0.27-0.01v0.85
			c0,0-0.26,0.04-0.58,0.04c-1.26,0-1.81-0.83-1.81-2.25v-3.34h-0.74V96.9h0.74V95.57z"/>
		<path class="st4" d="M672.91,97.7c-1.45,0-1.87,1.14-1.87,2.49v3.02h-0.96V96.9h0.95v1.06c0.22-0.63,0.92-1.21,1.88-1.21V97.7z"/>
		<path class="st4" d="M676.38,96.74c1.86,0,3,1.34,3,3.23c0,0.04,0,0.17-0.01,0.29h-5.07c0.01,1.41,0.96,2.26,2.27,2.26
			c1.07,0,1.66-0.56,1.97-0.98l0.63,0.46c-0.35,0.59-1.18,1.37-2.61,1.37c-1.92,0-3.24-1.35-3.24-3.29
			C673.32,98.06,674.7,96.74,676.38,96.74z M678.4,99.54c-0.06-1.31-0.97-1.98-2.02-1.98c-1.03,0-1.96,0.79-2.03,1.98H678.4z"/>
		<path class="st4" d="M686.38,105.48h-0.96v-3.29c-0.18,0.33-0.91,1.18-2.22,1.18c-1.8,0-3.01-1.37-3.01-3.33
			c0-1.93,1.28-3.3,3.08-3.3c1.37,0,2.03,0.92,2.19,1.15v-1h0.92V105.48z M683.32,97.61c-1.21,0-2.16,0.95-2.16,2.43
			c0,1.45,0.91,2.45,2.14,2.45c1.19,0,2.16-0.9,2.16-2.45C685.46,98.72,684.64,97.61,683.32,97.61z"/>
		<path class="st4" d="M687.99,100.84V96.9h0.96v3.98c0,1.01,0.64,1.62,1.49,1.62c0.97,0,1.64-0.72,1.64-1.76V96.9h0.97v6.32h-0.96
			v-0.91c-0.29,0.57-1.01,1.07-1.87,1.07C688.75,103.37,687.99,102.28,687.99,100.84z"/>
		<path class="st4" d="M695.12,94.61c0.38,0,0.67,0.29,0.67,0.66c0,0.38-0.29,0.67-0.67,0.67c-0.36,0-0.66-0.29-0.66-0.67
			C694.46,94.9,694.75,94.61,695.12,94.61z M694.65,96.9h0.96v6.32h-0.96V96.9z"/>
		<path class="st4" d="M700.09,97.7c-1.45,0-1.87,1.14-1.87,2.49v3.02h-0.96V96.9h0.95v1.06c0.22-0.63,0.92-1.21,1.88-1.21V97.7z"/>
		<path class="st4" d="M703.56,96.74c1.86,0,3,1.34,3,3.23c0,0.04,0,0.17-0.01,0.29h-5.07c0.01,1.41,0.96,2.26,2.27,2.26
			c1.07,0,1.66-0.56,1.97-0.98l0.63,0.46c-0.35,0.59-1.18,1.37-2.61,1.37c-1.92,0-3.24-1.35-3.24-3.29
			C700.5,98.06,701.89,96.74,703.56,96.74z M705.58,99.54c-0.06-1.31-0.97-1.98-2.02-1.98c-1.03,0-1.96,0.79-2.03,1.98H705.58z"/>
		<path class="st4" d="M710.94,95.57h0.96v1.32h1.38v0.81h-1.38v3.25c0,1.18,0.34,1.46,1.17,1.46c0.12,0,0.27-0.01,0.27-0.01v0.85
			c0,0-0.26,0.04-0.58,0.04c-1.26,0-1.81-0.83-1.81-2.25v-3.34h-0.74V96.9h0.74V95.57z"/>
		<path class="st4" d="M719.52,99.27v3.95h-0.96v-3.98c0-1.01-0.64-1.62-1.49-1.62c-0.97,0-1.65,0.72-1.65,1.76v3.84h-0.96v-8.78
			h0.96v3.38c0.3-0.57,1.01-1.07,1.87-1.07C718.75,96.74,719.52,97.83,719.52,99.27z"/>
		<path class="st4" d="M723.76,96.74c1.86,0,3,1.34,3,3.23c0,0.04,0,0.17-0.01,0.29h-5.07c0.01,1.41,0.96,2.26,2.27,2.26
			c1.07,0,1.66-0.56,1.97-0.98l0.63,0.46c-0.35,0.59-1.18,1.37-2.61,1.37c-1.92,0-3.24-1.35-3.24-3.29
			C720.7,98.06,722.08,96.74,723.76,96.74z M725.77,99.54c-0.06-1.31-0.97-1.98-2.02-1.98c-1.03,0-1.96,0.79-2.03,1.98H725.77z"/>
		<path class="st4" d="M728.45,94.61c0.38,0,0.67,0.29,0.67,0.66c0,0.38-0.29,0.67-0.67,0.67c-0.36,0-0.66-0.29-0.66-0.67
			C727.79,94.9,728.08,94.61,728.45,94.61z M727.98,96.9h0.96v6.32h-0.96V96.9z"/>
		<path class="st4" d="M733.42,97.7c-1.45,0-1.87,1.14-1.87,2.49v3.02h-0.96V96.9h0.95v1.06c0.22-0.63,0.92-1.21,1.88-1.21V97.7z"/>
		<path class="st4" d="M497.53,111.32c1.91,0,3.29,1.42,3.29,3.32c0,1.89-1.41,3.32-3.3,3.32s-3.29-1.4-3.29-3.32
			C494.23,112.73,495.65,111.32,497.53,111.32z M497.52,117.08c1.36,0,2.33-1.03,2.33-2.44c0-1.4-0.97-2.44-2.33-2.44
			s-2.31,1.06-2.31,2.44C495.21,116.06,496.17,117.08,497.52,117.08z"/>
		<path class="st4" d="M506.18,112.78l-1.69,5.02h-1.06l-2.13-6.32h1.04l1.65,5.2c0,0,0.01-0.02,1.7-5.2h0.95
			c1.68,5.17,1.69,5.2,1.69,5.2l1.66-5.2h1.04l-2.14,6.32h-1.06L506.18,112.78z"/>
		<path class="st4" d="M517.02,113.85v3.95h-0.96v-3.98c0-1.01-0.63-1.62-1.49-1.62c-0.97,0-1.64,0.72-1.64,1.76v3.84h-0.96v-6.32
			h0.95v0.91c0.3-0.57,1.01-1.07,1.88-1.07C516.27,111.32,517.02,112.41,517.02,113.85z"/>
		<path class="st4" d="M525.69,109.13c2.48,0,4.34,1.93,4.34,4.41c0,2.5-1.87,4.41-4.35,4.41c-2.46,0-4.32-1.88-4.32-4.41
			C521.35,111.04,523.22,109.13,525.69,109.13z M525.69,117.03c1.88,0,3.32-1.47,3.32-3.49c0-1.99-1.43-3.49-3.32-3.49
			s-3.32,1.49-3.32,3.49C522.37,115.56,523.8,117.03,525.69,117.03z"/>
		<path class="st4" d="M531.75,115.72c0.23,0.66,0.74,1.32,1.86,1.32c0.9,0,1.54-0.52,1.54-1.41c0-2.13-3.98-1.58-3.98-4.32
			c0-1.21,0.92-2.17,2.43-2.17c1.52,0,2.2,1.06,2.4,1.63l-0.83,0.34c-0.19-0.43-0.66-1.07-1.59-1.07s-1.43,0.57-1.43,1.28
			c0,1.94,4,1.54,4,4.26c0,1.34-0.98,2.38-2.57,2.38c-1.65,0-2.39-1.06-2.66-1.87L531.75,115.72z"/>
		<path class="st4" d="M537.93,116.59c0.38,0,0.68,0.3,0.68,0.68s-0.3,0.68-0.68,0.68c-0.38,0-0.69-0.3-0.69-0.68
			S537.56,116.59,537.93,116.59z"/>
		<path class="st4" d="M544.87,110.19h-2.3v-0.9h5.56v0.9h-2.28v7.6h-0.98V110.19z"/>
		<path class="st4" d="M554.42,113.85v3.95h-0.96v-3.98c0-1.01-0.64-1.62-1.49-1.62c-0.97,0-1.65,0.72-1.65,1.76v3.84h-0.96v-8.78
			h0.96v3.38c0.3-0.57,1.01-1.07,1.87-1.07C553.66,111.32,554.42,112.41,554.42,113.85z"/>
		<path class="st4" d="M558.66,111.32c1.86,0,3,1.34,3,3.23c0,0.04,0,0.17-0.01,0.29h-5.07c0.01,1.41,0.96,2.26,2.27,2.26
			c1.07,0,1.66-0.56,1.97-0.98l0.63,0.46c-0.35,0.59-1.18,1.37-2.61,1.37c-1.92,0-3.24-1.35-3.24-3.29
			C555.6,112.64,556.99,111.32,558.66,111.32z M560.68,114.13c-0.06-1.31-0.97-1.98-2.02-1.98c-1.03,0-1.96,0.79-2.03,1.98H560.68z"
			/>
		<path class="st4" d="M563.79,119.97l0.91-2.23l-2.57-6.26h1.04l2,5.08l1.94-5.08h1.02l-3.39,8.49H563.79z"/>
		<path class="st4" d="M569.33,109.1c0.41,0,0.72,0.28,0.72,0.73c0,0.86-0.41,1.48-0.94,1.94l-0.45-0.44
			c0.21-0.16,0.53-0.52,0.59-0.89c-0.36-0.05-0.58-0.35-0.58-0.67C568.68,109.4,568.95,109.1,569.33,109.1z"/>
		<path class="st4" d="M574.13,112.28c-1.45,0-1.87,1.14-1.87,2.49v3.02h-0.96v-6.32h0.95v1.06c0.22-0.63,0.92-1.21,1.88-1.21
			V112.28z"/>
		<path class="st4" d="M577.61,111.32c1.86,0,3,1.34,3,3.23c0,0.04,0,0.17-0.01,0.29h-5.07c0.01,1.41,0.96,2.26,2.27,2.26
			c1.07,0,1.66-0.56,1.97-0.98l0.63,0.46c-0.35,0.59-1.18,1.37-2.61,1.37c-1.92,0-3.24-1.35-3.24-3.29
			C574.55,112.64,575.93,111.32,577.61,111.32z M579.62,114.13c-0.06-1.31-0.97-1.98-2.02-1.98c-1.03,0-1.96,0.79-2.03,1.98H579.62z
			"/>
		<path class="st4" d="M585.1,116.17c0.27,0.5,0.72,0.97,1.58,0.97c0.63,0,1.17-0.36,1.17-1.01c0-1.46-3.17-0.96-3.17-3.1
			c0-1.07,0.89-1.71,2.03-1.71c1.18,0,1.79,0.74,1.96,1.21l-0.7,0.4c-0.17-0.34-0.5-0.81-1.31-0.81c-0.58,0-1.04,0.33-1.04,0.87
			c0,1.42,3.18,0.89,3.18,3.09c0,1.12-0.92,1.87-2.15,1.87c-1.32,0-1.92-0.75-2.2-1.35L585.1,116.17z"/>
		<path class="st4" d="M598.81,117.79h-0.96v-3.8c0-1.19-0.49-1.8-1.42-1.8c-0.89,0-1.55,0.63-1.55,1.81v3.79h-0.96v-3.98
			c0-1.01-0.56-1.62-1.45-1.62c-0.84,0-1.53,0.7-1.53,1.77v3.83h-0.96v-6.32h0.95c0,0.58,0,0.91,0,0.91
			c0.24-0.55,0.91-1.07,1.79-1.07c0.95,0,1.62,0.46,1.91,1.15c0.38-0.75,1.13-1.15,2.03-1.15c1.41,0,2.16,1,2.16,2.38V117.79z"/>
		<path class="st4" d="M602.43,113.77c0.8,0,1.41,0.3,1.66,0.57v-0.78c0-0.89-0.59-1.4-1.53-1.4c-0.78,0-1.41,0.28-1.86,0.55
			l-0.39-0.7c0.43-0.27,1.26-0.69,2.33-0.69c1.72,0,2.41,0.96,2.41,2.31v4.17h-0.83l-0.11-0.53c-0.33,0.38-0.86,0.69-1.71,0.69
			c-1.38,0-2.41-0.87-2.41-2.1C600,114.65,601.01,113.77,602.43,113.77z M602.56,117.15c0.92,0,1.57-0.55,1.57-1.31
			c0-0.79-0.63-1.3-1.58-1.3c-0.96,0-1.58,0.56-1.58,1.3C600.97,116.57,601.59,117.15,602.56,117.15z"/>
		<path class="st4" d="M606.61,109.01h0.96v8.78h-0.96V109.01z"/>
		<path class="st4" d="M609.22,109.01h0.96v8.78h-0.96V109.01z"/>
		<path class="st4" d="M614.48,111.32c1.86,0,3,1.34,3,3.23c0,0.04,0,0.17-0.01,0.29h-5.07c0.01,1.41,0.96,2.26,2.27,2.26
			c1.07,0,1.66-0.56,1.97-0.98l0.63,0.46c-0.35,0.59-1.18,1.37-2.61,1.37c-1.92,0-3.24-1.35-3.24-3.29
			C611.42,112.64,612.81,111.32,614.48,111.32z M616.5,114.13c-0.06-1.31-0.97-1.98-2.02-1.98c-1.03,0-1.96,0.79-2.03,1.98H616.5z"
			/>
		<path class="st4" d="M621.53,112.28c-1.45,0-1.87,1.14-1.87,2.49v3.02h-0.96v-6.32h0.95v1.06c0.22-0.63,0.92-1.21,1.88-1.21
			V112.28z"/>
		<path class="st4" d="M622.55,116.59c0.4,0,0.72,0.28,0.72,0.73c0,0.86-0.41,1.48-0.93,1.94l-0.45-0.44
			c0.21-0.16,0.54-0.52,0.6-0.89c-0.36-0.05-0.6-0.35-0.6-0.67C621.88,116.89,622.18,116.59,622.55,116.59z"/>
		<path class="st4" d="M627.78,109.01h0.96v3.49c0.19-0.33,0.91-1.18,2.24-1.18c1.79,0,3.01,1.38,3.01,3.33
			c0,1.93-1.29,3.3-3.08,3.3c-1.37,0-2.04-0.92-2.2-1.15v1h-0.92V109.01z M630.84,117.09c1.21,0,2.16-0.96,2.16-2.43
			c0-1.45-0.9-2.47-2.14-2.47c-1.19,0-2.16,0.9-2.16,2.47C628.7,115.98,629.53,117.09,630.84,117.09z"/>
		<path class="st4" d="M638.09,111.32c1.91,0,3.29,1.42,3.29,3.32c0,1.89-1.41,3.32-3.3,3.32s-3.29-1.4-3.29-3.32
			C634.79,112.73,636.21,111.32,638.09,111.32z M638.08,117.08c1.36,0,2.33-1.03,2.33-2.44c0-1.4-0.97-2.44-2.33-2.44
			s-2.31,1.06-2.31,2.44C635.77,116.06,636.73,117.08,638.08,117.08z"/>
		<path class="st4" d="M645.49,111.32c1.91,0,3.29,1.42,3.29,3.32c0,1.89-1.41,3.32-3.3,3.32s-3.29-1.4-3.29-3.32
			C642.19,112.73,643.61,111.32,645.49,111.32z M645.48,117.08c1.36,0,2.33-1.03,2.33-2.44c0-1.4-0.97-2.44-2.33-2.44
			s-2.31,1.06-2.31,2.44C643.17,116.06,644.13,117.08,645.48,117.08z"/>
		<path class="st4" d="M650.09,110.15h0.96v1.32h1.38v0.81h-1.38v3.25c0,1.18,0.34,1.46,1.17,1.46c0.12,0,0.27-0.01,0.27-0.01v0.85
			c0,0-0.26,0.04-0.58,0.04c-1.26,0-1.81-0.83-1.81-2.25v-3.34h-0.74v-0.81h0.74V110.15z"/>
		<path class="st4" d="M656.88,112.29h-0.71v-0.81h0.71v-0.33c0-1.59,0.96-2.1,1.98-2.1c0.21,0,0.4,0.02,0.4,0.02v0.84
			c0,0-0.16-0.02-0.3-0.02c-0.72,0-1.11,0.39-1.11,1.26v0.33h1.35v0.81h-1.35v5.5h-0.97V112.29z"/>
		<path class="st4" d="M662.27,113.77c0.8,0,1.41,0.3,1.66,0.57v-0.78c0-0.89-0.59-1.4-1.53-1.4c-0.78,0-1.41,0.28-1.86,0.55
			l-0.39-0.7c0.43-0.27,1.26-0.69,2.33-0.69c1.72,0,2.41,0.96,2.41,2.31v4.17h-0.83l-0.11-0.53c-0.33,0.38-0.86,0.69-1.71,0.69
			c-1.38,0-2.4-0.87-2.4-2.1C659.84,114.65,660.85,113.77,662.27,113.77z M662.41,117.15c0.92,0,1.57-0.55,1.57-1.31
			c0-0.79-0.63-1.3-1.58-1.3c-0.96,0-1.58,0.56-1.58,1.3C660.82,116.57,661.44,117.15,662.41,117.15z"/>
		<path class="st4" d="M666.65,116.17c0.27,0.5,0.72,0.97,1.58,0.97c0.63,0,1.17-0.36,1.17-1.01c0-1.46-3.17-0.96-3.17-3.1
			c0-1.07,0.89-1.71,2.03-1.71c1.18,0,1.79,0.74,1.96,1.21l-0.7,0.4c-0.17-0.34-0.5-0.81-1.31-0.81c-0.58,0-1.04,0.33-1.04,0.87
			c0,1.42,3.18,0.89,3.18,3.09c0,1.12-0.92,1.87-2.15,1.87c-1.32,0-1.92-0.75-2.2-1.35L666.65,116.17z"/>
		<path class="st4" d="M671.59,110.15h0.96v1.32h1.38v0.81h-1.38v3.25c0,1.18,0.34,1.46,1.17,1.46c0.12,0,0.27-0.01,0.27-0.01v0.85
			c0,0-0.26,0.04-0.58,0.04c-1.26,0-1.81-0.83-1.81-2.25v-3.34h-0.74v-0.81h0.74V110.15z"/>
		<path class="st4" d="M677.75,111.32c1.86,0,3,1.34,3,3.23c0,0.04,0,0.17-0.01,0.29h-5.07c0.01,1.41,0.96,2.26,2.27,2.26
			c1.07,0,1.66-0.56,1.97-0.98l0.63,0.46c-0.35,0.59-1.18,1.37-2.61,1.37c-1.92,0-3.24-1.35-3.24-3.29
			C674.69,112.64,676.08,111.32,677.75,111.32z M679.77,114.13c-0.06-1.31-0.97-1.98-2.02-1.98c-1.03,0-1.96,0.79-2.03,1.98H679.77z
			"/>
		<path class="st4" d="M684.8,112.28c-1.45,0-1.87,1.14-1.87,2.49v3.02h-0.96v-6.32h0.95v1.06c0.22-0.63,0.92-1.21,1.88-1.21V112.28
			z"/>
		<path class="st4" d="M685.82,116.59c0.4,0,0.72,0.28,0.72,0.73c0,0.86-0.41,1.48-0.93,1.94l-0.45-0.44
			c0.21-0.16,0.54-0.52,0.6-0.89c-0.36-0.05-0.6-0.35-0.6-0.67C685.15,116.89,685.45,116.59,685.82,116.59z"/>
		<path class="st4" d="M693.06,113.77c0.8,0,1.41,0.3,1.66,0.57v-0.78c0-0.89-0.59-1.4-1.53-1.4c-0.78,0-1.41,0.28-1.86,0.55
			l-0.39-0.7c0.43-0.27,1.26-0.69,2.33-0.69c1.72,0,2.41,0.96,2.41,2.31v4.17h-0.83l-0.11-0.53c-0.33,0.38-0.86,0.69-1.71,0.69
			c-1.38,0-2.41-0.87-2.41-2.1C690.63,114.65,691.64,113.77,693.06,113.77z M693.2,117.15c0.92,0,1.57-0.55,1.57-1.31
			c0-0.79-0.63-1.3-1.58-1.3c-0.96,0-1.58,0.56-1.58,1.3C691.61,116.57,692.23,117.15,693.2,117.15z"/>
		<path class="st4" d="M702.3,113.85v3.95h-0.96v-3.98c0-1.01-0.63-1.62-1.49-1.62c-0.97,0-1.64,0.72-1.64,1.76v3.84h-0.96v-6.32
			h0.95v0.91c0.3-0.57,1.01-1.07,1.88-1.07C701.54,111.32,702.3,112.41,702.3,113.85z"/>
		<path class="st4" d="M709.69,117.79h-0.94v-1c-0.16,0.23-0.81,1.15-2.19,1.15c-1.81,0-3.09-1.37-3.09-3.3
			c0-1.94,1.21-3.33,3.01-3.33c1.31,0,2.04,0.85,2.22,1.18v-3.49h0.97V117.79z M706.6,112.19c-1.24,0-2.14,1.02-2.14,2.47
			c0,1.47,0.94,2.43,2.15,2.43c1.32,0,2.14-1.1,2.14-2.43C708.75,113.09,707.78,112.19,706.6,112.19z"/>
		<path class="st4" d="M497.48,126.86c-1.45,0-1.87,1.14-1.87,2.49v3.02h-0.96v-6.32h0.95v1.06c0.22-0.63,0.92-1.21,1.88-1.21
			V126.86z"/>
		<path class="st4" d="M500.96,125.9c1.86,0,3,1.34,3,3.23c0,0.04,0,0.17-0.01,0.29h-5.07c0.01,1.41,0.96,2.26,2.27,2.26
			c1.07,0,1.66-0.56,1.97-0.98l0.63,0.46c-0.35,0.6-1.18,1.37-2.61,1.37c-1.92,0-3.24-1.35-3.24-3.29
			C497.9,127.23,499.28,125.9,500.96,125.9z M502.97,128.71c-0.06-1.31-0.97-1.98-2.02-1.98c-1.03,0-1.96,0.79-2.03,1.98H502.97z"/>
		<path class="st4" d="M510.96,134.65H510v-3.29c-0.18,0.33-0.91,1.18-2.22,1.18c-1.8,0-3.01-1.37-3.01-3.33
			c0-1.93,1.28-3.3,3.08-3.3c1.37,0,2.03,0.92,2.19,1.15v-1h0.92V134.65z M507.9,126.78c-1.21,0-2.16,0.95-2.16,2.43
			c0,1.45,0.91,2.45,2.14,2.45c1.19,0,2.16-0.9,2.16-2.45C510.03,127.88,509.22,126.78,507.9,126.78z"/>
		<path class="st4" d="M512.56,130.01v-3.95h0.96v3.98c0,1.01,0.64,1.62,1.49,1.62c0.97,0,1.64-0.72,1.64-1.76v-3.84h0.97v6.32
			h-0.96v-0.91c-0.29,0.57-1.01,1.07-1.87,1.07C513.33,132.53,512.56,131.44,512.56,130.01z"/>
		<path class="st4" d="M519.7,123.78c0.38,0,0.67,0.29,0.67,0.66c0,0.38-0.29,0.67-0.67,0.67c-0.36,0-0.66-0.29-0.66-0.67
			C519.04,124.07,519.33,123.78,519.7,123.78z M519.22,126.06h0.96v6.32h-0.96V126.06z"/>
		<path class="st4" d="M524.66,126.86c-1.45,0-1.87,1.14-1.87,2.49v3.02h-0.96v-6.32h0.95v1.06c0.22-0.63,0.92-1.21,1.88-1.21
			V126.86z"/>
		<path class="st4" d="M528.14,125.9c1.86,0,3,1.34,3,3.23c0,0.04,0,0.17-0.01,0.29h-5.07c0.01,1.41,0.96,2.26,2.27,2.26
			c1.07,0,1.66-0.56,1.97-0.98l0.63,0.46c-0.35,0.6-1.18,1.37-2.61,1.37c-1.92,0-3.24-1.35-3.24-3.29
			C525.08,127.23,526.46,125.9,528.14,125.9z M530.16,128.71c-0.06-1.31-0.97-1.98-2.02-1.98c-1.03,0-1.96,0.79-2.03,1.98H530.16z"
			/>
		<path class="st4" d="M535.64,126.87h-0.71v-0.81h0.71v-0.33c0-1.59,0.96-2.1,1.98-2.1c0.21,0,0.4,0.02,0.4,0.02v0.84
			c0,0-0.16-0.02-0.3-0.02c-0.72,0-1.11,0.39-1.11,1.26v0.33h1.35v0.81h-1.35v5.5h-0.97V126.87z"/>
		<path class="st4" d="M541.54,125.9c1.86,0,3,1.34,3,3.23c0,0.04,0,0.17-0.01,0.29h-5.07c0.01,1.41,0.96,2.26,2.27,2.26
			c1.07,0,1.66-0.56,1.97-0.98l0.63,0.46c-0.35,0.6-1.18,1.37-2.61,1.37c-1.92,0-3.24-1.35-3.24-3.29
			C538.48,127.23,539.87,125.9,541.54,125.9z M543.56,128.71c-0.06-1.31-0.97-1.98-2.02-1.98c-1.03,0-1.96,0.79-2.03,1.98H543.56z"
			/>
		<path class="st4" d="M549.89,127.36l-1.69,5.02h-1.06l-2.13-6.32h1.04l1.65,5.2c0,0,0.01-0.02,1.7-5.2h0.95
			c1.68,5.17,1.69,5.2,1.69,5.2l1.66-5.2h1.04l-2.14,6.32h-1.06L549.89,127.36z"/>
		<path class="st4" d="M558.32,125.9c1.86,0,3,1.34,3,3.23c0,0.04,0,0.17-0.01,0.29h-5.07c0.01,1.41,0.96,2.26,2.27,2.26
			c1.07,0,1.66-0.56,1.97-0.98l0.63,0.46c-0.35,0.6-1.18,1.37-2.61,1.37c-1.92,0-3.24-1.35-3.24-3.29
			C555.26,127.23,556.65,125.9,558.32,125.9z M560.34,128.71c-0.06-1.31-0.97-1.98-2.02-1.98c-1.03,0-1.96,0.79-2.03,1.98H560.34z"
			/>
		<path class="st4" d="M565.37,126.86c-1.45,0-1.87,1.14-1.87,2.49v3.02h-0.96v-6.32h0.95v1.06c0.22-0.63,0.92-1.21,1.88-1.21
			V126.86z"/>
		<path class="st4" d="M572.36,126.86c-1.45,0-1.87,1.14-1.87,2.49v3.02h-0.96v-6.32h0.95v1.06c0.22-0.63,0.92-1.21,1.88-1.21
			V126.86z"/>
		<path class="st4" d="M575.83,125.9c1.86,0,3,1.34,3,3.23c0,0.04,0,0.17-0.01,0.29h-5.07c0.01,1.41,0.96,2.26,2.27,2.26
			c1.07,0,1.66-0.56,1.97-0.98l0.63,0.46c-0.35,0.6-1.18,1.37-2.61,1.37c-1.92,0-3.24-1.35-3.24-3.29
			C572.77,127.23,574.16,125.9,575.83,125.9z M577.85,128.71c-0.06-1.31-0.97-1.98-2.02-1.98c-1.03,0-1.96,0.79-2.03,1.98H577.85z"
			/>
		<path class="st4" d="M580.24,130.75c0.27,0.5,0.72,0.97,1.58,0.97c0.63,0,1.17-0.36,1.17-1.01c0-1.46-3.17-0.96-3.17-3.1
			c0-1.07,0.89-1.71,2.03-1.71c1.18,0,1.79,0.74,1.96,1.21l-0.7,0.4c-0.17-0.34-0.5-0.81-1.31-0.81c-0.58,0-1.04,0.33-1.04,0.87
			c0,1.42,3.18,0.89,3.18,3.09c0,1.12-0.92,1.87-2.15,1.87c-1.32,0-1.92-0.75-2.2-1.35L580.24,130.75z"/>
		<path class="st4" d="M587.99,125.9c1.91,0,3.29,1.42,3.29,3.32c0,1.9-1.41,3.32-3.3,3.32s-3.29-1.4-3.29-3.32
			C584.69,127.31,586.11,125.9,587.99,125.9z M587.98,131.66c1.36,0,2.33-1.03,2.33-2.44c0-1.4-0.97-2.44-2.33-2.44
			s-2.31,1.06-2.31,2.44C585.68,130.64,586.63,131.66,587.98,131.66z"/>
		<path class="st4" d="M592.46,130.01v-3.95h0.96v3.98c0,1.01,0.64,1.62,1.49,1.62c0.97,0,1.64-0.72,1.64-1.76v-3.84h0.97v6.32
			h-0.96v-0.91c-0.29,0.57-1.01,1.07-1.87,1.07C593.22,132.53,592.46,131.44,592.46,130.01z"/>
		<path class="st4" d="M601.95,126.86c-1.45,0-1.87,1.14-1.87,2.49v3.02h-0.96v-6.32h0.95v1.06c0.22-0.63,0.92-1.21,1.88-1.21
			V126.86z"/>
		<path class="st4" d="M607.72,127.59c-0.25-0.27-0.91-0.8-1.87-0.8c-1.32,0-2.26,1.06-2.26,2.43c0,1.36,0.98,2.44,2.28,2.44
			c1,0,1.63-0.58,1.88-0.84l0.29,0.81c-0.25,0.27-1.03,0.9-2.21,0.9c-1.88,0-3.24-1.45-3.24-3.32c0-1.87,1.4-3.32,3.23-3.32
			c1.15,0,1.89,0.55,2.22,0.86L607.72,127.59z"/>
		<path class="st4" d="M611.88,125.9c1.86,0,3,1.34,3,3.23c0,0.04,0,0.17-0.01,0.29h-5.07c0.01,1.41,0.96,2.26,2.27,2.26
			c1.07,0,1.66-0.56,1.97-0.98l0.63,0.46c-0.35,0.6-1.18,1.37-2.61,1.37c-1.92,0-3.24-1.35-3.24-3.29
			C608.82,127.23,610.21,125.9,611.88,125.9z M613.9,128.71c-0.06-1.31-0.97-1.98-2.02-1.98c-1.03,0-1.96,0.79-2.03,1.98H613.9z"/>
		<path class="st4" d="M616.3,130.75c0.27,0.5,0.72,0.97,1.58,0.97c0.63,0,1.17-0.36,1.17-1.01c0-1.46-3.17-0.96-3.17-3.1
			c0-1.07,0.89-1.71,2.03-1.71c1.18,0,1.79,0.74,1.96,1.21l-0.7,0.4c-0.17-0.34-0.5-0.81-1.31-0.81c-0.58,0-1.04,0.33-1.04,0.87
			c0,1.42,3.18,0.89,3.18,3.09c0,1.12-0.92,1.87-2.15,1.87c-1.32,0-1.92-0.75-2.2-1.35L616.3,130.75z"/>
		<path class="st4" d="M624.33,124.74h0.96v1.32h1.38v0.81h-1.38v3.25c0,1.18,0.34,1.46,1.17,1.46c0.12,0,0.27-0.01,0.27-0.01v0.85
			c0,0-0.26,0.04-0.58,0.04c-1.26,0-1.81-0.83-1.81-2.25v-3.34h-0.74v-0.81h0.74V124.74z"/>
		<path class="st4" d="M630.72,125.9c1.91,0,3.29,1.42,3.29,3.32c0,1.9-1.41,3.32-3.3,3.32s-3.29-1.4-3.29-3.32
			C627.41,127.31,628.84,125.9,630.72,125.9z M630.71,131.66c1.36,0,2.33-1.03,2.33-2.44c0-1.4-0.97-2.44-2.33-2.44
			s-2.31,1.06-2.31,2.44C628.4,130.64,629.36,131.66,630.71,131.66z"/>
		<path class="st4" d="M641.16,126.86c-1.45,0-1.87,1.14-1.87,2.49v3.02h-0.96v-6.32h0.95v1.06c0.22-0.63,0.92-1.21,1.88-1.21
			V126.86z"/>
		<path class="st4" d="M642.17,130.01v-3.95h0.96v3.98c0,1.01,0.64,1.62,1.49,1.62c0.97,0,1.64-0.72,1.64-1.76v-3.84h0.97v6.32
			h-0.96v-0.91c-0.29,0.57-1.01,1.07-1.87,1.07C642.93,132.53,642.17,131.44,642.17,130.01z"/>
		<path class="st4" d="M653.88,128.43v3.95h-0.96v-3.98c0-1.01-0.63-1.62-1.49-1.62c-0.97,0-1.64,0.72-1.64,1.76v3.84h-0.96v-6.32
			h0.95v0.91c0.3-0.57,1.01-1.07,1.88-1.07C653.12,125.9,653.88,126.99,653.88,128.43z"/>
		<path class="st4" d="M655.94,131.17c0.38,0,0.68,0.3,0.68,0.68c0,0.38-0.3,0.68-0.68,0.68c-0.38,0-0.69-0.3-0.69-0.68
			C655.25,131.48,655.57,131.17,655.94,131.17z"/>
	</g>
	<g>
		<g>
			<g>
				<rect x="494.12" y="223.95" class="st5" width="240.59" height="49.95"/>
			</g>
			<g>
				<path class="st3" d="M574.27,253.56h-3.62v-5.8h-5.29v5.8h-3.62v-14.81h3.62v5.76h5.29v-5.76h3.62V253.56z"/>
				<path class="st3" d="M581.7,257.35h-3.34l1.5-4.15l-4.15-10.75h3.79l1.97,6.39l2.05-6.39h3.68L581.7,257.35z"/>
				<path class="st3" d="M591.67,243.32c0.32-0.36,1.38-1.14,3.01-1.14c3.2,0,5.44,2.41,5.44,5.82c0,3.45-2.03,5.84-5.25,5.84
					c-1.69,0-2.73-0.85-2.96-1.12v4.8h-3.54v-15.07h3.3V243.32z M594.19,250.72c1.44,0,2.39-1.12,2.39-2.75
					c0-1.65-0.97-2.71-2.39-2.71c-1.52,0-2.39,1.23-2.39,2.71C591.79,249.73,592.79,250.72,594.19,250.72z"/>
				<path class="st3" d="M604.66,248.92c0.08,0.99,1.04,1.84,2.35,1.84c1.33,0,2.12-0.87,2.33-1.18l2.33,1.8
					c-0.32,0.66-1.84,2.46-4.72,2.46c-3.66,0-5.9-2.52-5.9-5.8c0-3.26,2.2-5.86,5.46-5.86c3.54,0,5.46,2.26,5.46,6.05
					c0,0.21,0,0.44-0.02,0.7H604.66z M604.77,246.68h3.6c-0.04-0.89-0.7-1.65-1.8-1.65C605.4,245.03,604.85,245.9,604.77,246.68z"/>
				<path class="st3" d="M619.77,245.77c-0.15-0.02-0.32-0.04-0.57-0.04c-1.71,0-2.29,1.25-2.29,2.92v4.91h-3.53v-11.11h3.45v1.48
					c0.53-1.08,1.57-1.76,2.94-1.76V245.77z"/>
				<path class="st3" d="M626.76,249.81l2.1-7.37h3.68l-3.75,11.11h-4.11l-3.81-11.11h3.79L626.76,249.81z"/>
				<path class="st3" d="M633.4,239.87c0-1.12,0.85-1.93,1.97-1.93s1.99,0.8,1.99,1.93c0,1.1-0.87,1.91-1.99,1.91
					S633.4,240.97,633.4,239.87z M637.17,253.56h-3.53v-11.11h3.53V253.56z"/>
				<path class="st3" d="M638.48,251.93l1.99-1.93c0.59,0.53,1.33,0.97,2.46,0.97c0.68,0,1-0.21,1-0.61c0-1.27-5.08-0.72-5.08-4.76
					c0-2.14,1.86-3.43,4.27-3.43c2.12,0,3.32,1.02,3.98,1.9l-2.29,1.8c-0.34-0.34-0.97-0.87-1.84-0.87c-0.51,0-0.8,0.21-0.8,0.55
					c0,1.4,5.12,0.59,5.12,4.61c0,2.26-1.99,3.66-4.53,3.66C640.64,253.83,639.14,252.82,638.48,251.93z"/>
				<path class="st3" d="M654.06,242.17c3.58,0,6.1,2.45,6.1,5.82c0,3.34-2.58,5.84-6.1,5.84c-3.53,0-6.03-2.46-6.03-5.8
					C648.02,244.67,650.63,242.17,654.06,242.17z M654.06,250.72c1.46,0,2.56-1.14,2.56-2.73c0-1.63-1.12-2.71-2.56-2.71
					c-1.46,0-2.5,1.12-2.5,2.75C651.56,249.64,652.62,250.72,654.06,250.72z"/>
				<path class="st3" d="M668,245.77c-0.15-0.02-0.32-0.04-0.57-0.04c-1.71,0-2.29,1.25-2.29,2.92v4.91h-3.54v-11.11h3.45v1.48
					c0.53-1.08,1.57-1.76,2.94-1.76V245.77z"/>
			</g>
			<g>
				<rect x="494.12" y="278.34" class="st6" width="240.59" height="49.95"/>
			</g>
			<g>
				<path class="st3" d="M518.92,307.94h-3.62v-5.8h-5.29v5.8h-3.62v-14.81h3.62v5.76h5.29v-5.76h3.62V307.94z"/>
				<path class="st3" d="M526.71,296.56c3.58,0,6.09,2.45,6.09,5.82c0,3.34-2.58,5.84-6.09,5.84c-3.54,0-6.03-2.46-6.03-5.8
					C520.68,299.05,523.28,296.56,526.71,296.56z M526.71,305.11c1.46,0,2.56-1.14,2.56-2.73c0-1.63-1.12-2.71-2.56-2.71
					c-1.46,0-2.5,1.12-2.5,2.75C524.21,304.03,525.27,305.11,526.71,305.11z"/>
				<path class="st3" d="M533.54,306.31l1.99-1.93c0.59,0.53,1.33,0.97,2.46,0.97c0.68,0,0.99-0.21,0.99-0.61
					c0-1.27-5.08-0.72-5.08-4.76c0-2.14,1.86-3.43,4.28-3.43c2.12,0,3.32,1.02,3.98,1.9l-2.29,1.8c-0.34-0.34-0.97-0.87-1.84-0.87
					c-0.51,0-0.8,0.21-0.8,0.55c0,1.4,5.12,0.59,5.12,4.61c0,2.26-1.99,3.66-4.53,3.66C535.7,308.22,534.2,307.2,533.54,306.31z"/>
				<path class="st3" d="M547.49,296.83h1.88v2.86h-1.88v4.08c0,0.97,0.66,1.21,1.38,1.21c0.19,0,0.36,0,0.59-0.02v3.03
					c0,0-0.46,0.13-1.35,0.13c-2.62,0-4.15-1.21-4.15-4.51v-3.92h-1.08v-2.86h1.08v-2.35h3.53V296.83z"/>
				<path class="st3" d="M554.81,300.51c0-4.3,3.09-7.66,7.77-7.66c4.68,0,7.77,3.37,7.77,7.66c0,4.36-3.09,7.7-7.77,7.7
					C557.9,308.22,554.81,304.88,554.81,300.51z M558.58,300.51c0,2.5,1.65,4.32,4,4.32c2.35,0,4-1.82,4-4.32
					c0-2.43-1.63-4.28-4-4.28C560.21,296.24,558.58,298.08,558.58,300.51z"/>
				<path class="st3" d="M581.35,296.28l-3,1.38c-0.3-0.66-0.74-1.46-1.86-1.46c-0.7,0-1.16,0.42-1.16,1c0,2.01,6.18,1.8,6.18,6.33
					c0,2.73-1.95,4.7-5.19,4.7c-3.32,0-4.66-2.41-5.04-3.53l3.03-1.5c0.4,0.87,1.21,1.65,2.22,1.65c0.87,0,1.31-0.38,1.31-1.04
					c0-1.97-6.14-1.8-6.14-6.54c0-2.67,1.93-4.4,4.87-4.4C579.74,292.85,580.97,295.16,581.35,296.28z"/>
				<path class="st3" d="M585.41,310.23h-3.07l6.33-18.16h3.07L585.41,310.23z"/>
				<path class="st3" d="M602.41,296.28l-3,1.38c-0.3-0.66-0.74-1.46-1.86-1.46c-0.7,0-1.16,0.42-1.16,1c0,2.01,6.18,1.8,6.18,6.33
					c0,2.73-1.95,4.7-5.19,4.7c-3.32,0-4.66-2.41-5.04-3.53l3.03-1.5c0.4,0.87,1.21,1.65,2.22,1.65c0.87,0,1.31-0.38,1.31-1.04
					c0-1.97-6.14-1.8-6.14-6.54c0-2.67,1.93-4.4,4.87-4.4C600.8,292.85,602.03,295.16,602.41,296.28z"/>
				<path class="st3" d="M610.75,301.32c0-1.04-0.61-1.59-1.46-1.59c-0.97,0-1.57,0.7-1.57,1.59v6.62h-3.53v-15.3h3.53v5.33
					c0.42-0.66,1.35-1.42,2.75-1.42c3.47,0,3.81,2.96,3.81,5.23v6.16h-3.53V301.32z"/>
				<path class="st3" d="M619.95,300.81c0.97,0,1.74,0.23,2.14,0.4v-0.4c0-0.68-0.55-1.21-1.69-1.21c-0.97,0-1.93,0.28-2.79,0.7
					l-1.31-2.37c1.19-0.78,2.69-1.38,4.53-1.38c3.83,0,4.8,1.97,4.8,4.51v6.88h-3.15l-0.19-0.61c-0.57,0.57-1.38,0.89-2.52,0.89
					c-2.18,0-4.13-1.31-4.13-3.73C615.63,302.27,617.33,300.81,619.95,300.81z M620.67,305.51c0.85,0,1.48-0.4,1.48-1.14
					c0-0.76-0.66-1.18-1.5-1.18s-1.48,0.47-1.48,1.18C619.17,305.11,619.85,305.51,620.67,305.51z"/>
				<path class="st3" d="M633.92,300.16c-0.15-0.02-0.32-0.04-0.57-0.04c-1.71,0-2.29,1.25-2.29,2.92v4.91h-3.53v-11.11h3.45v1.48
					c0.53-1.08,1.57-1.76,2.94-1.76V300.16z"/>
				<path class="st3" d="M637.98,303.31c0.08,0.99,1.04,1.84,2.35,1.84c1.33,0,2.12-0.87,2.33-1.18l2.33,1.8
					c-0.32,0.66-1.84,2.46-4.72,2.46c-3.66,0-5.9-2.52-5.9-5.8c0-3.26,2.2-5.86,5.46-5.86c3.53,0,5.46,2.26,5.46,6.05
					c0,0.21,0,0.44-0.02,0.7H637.98z M638.09,301.07h3.6c-0.04-0.89-0.7-1.65-1.8-1.65C638.72,299.41,638.17,300.28,638.09,301.07z"
					/>
				<path class="st3" d="M654.6,307.08c-0.32,0.36-1.38,1.14-3.01,1.14c-3.2,0-5.44-2.41-5.44-5.82c0-3.45,2.03-5.84,5.25-5.84
					c1.69,0,2.73,0.85,2.96,1.12v-5.04h3.54v15.3h-3.3V307.08z M652.08,299.67c-1.44,0-2.39,1.12-2.39,2.75
					c0,1.65,0.97,2.71,2.39,2.71c1.52,0,2.39-1.23,2.39-2.71C654.47,300.66,653.47,299.67,652.08,299.67z"/>
				<path class="st3" d="M667.99,298.84l4.32-5.71h4.04l-5.54,7.09l5.65,7.72h-4.15l-4.32-5.97v5.97h-3.62v-14.81h3.62V298.84z"/>
				<path class="st3" d="M680.69,303.31c0.08,0.99,1.04,1.84,2.35,1.84c1.33,0,2.12-0.87,2.33-1.18l2.33,1.8
					c-0.32,0.66-1.84,2.46-4.72,2.46c-3.66,0-5.9-2.52-5.9-5.8c0-3.26,2.2-5.86,5.46-5.86c3.53,0,5.46,2.26,5.46,6.05
					c0,0.21,0,0.44-0.02,0.7H680.69z M680.8,301.07h3.6c-0.04-0.89-0.7-1.65-1.8-1.65C681.43,299.41,680.88,300.28,680.8,301.07z"/>
				<path class="st3" d="M695.8,300.16c-0.15-0.02-0.32-0.04-0.57-0.04c-1.71,0-2.29,1.25-2.29,2.92v4.91h-3.53v-11.11h3.45v1.48
					c0.53-1.08,1.57-1.76,2.94-1.76V300.16z"/>
				<path class="st3" d="M703.74,301.32c0-1.04-0.61-1.59-1.46-1.59c-0.97,0-1.52,0.7-1.52,1.59v6.62h-3.53v-11.11h3.45v1.14
					c0.42-0.66,1.4-1.42,2.79-1.42c3.47,0,3.81,2.96,3.81,5.23v6.16h-3.53V301.32z"/>
				<path class="st3" d="M712.29,303.31c0.08,0.99,1.04,1.84,2.35,1.84c1.33,0,2.12-0.87,2.33-1.18l2.33,1.8
					c-0.32,0.66-1.84,2.46-4.72,2.46c-3.66,0-5.9-2.52-5.9-5.8c0-3.26,2.2-5.86,5.46-5.86c3.53,0,5.46,2.26,5.46,6.05
					c0,0.21,0,0.44-0.02,0.7H712.29z M712.39,301.07h3.6c-0.04-0.89-0.7-1.65-1.8-1.65C713.03,299.41,712.48,300.28,712.39,301.07z"
					/>
				<path class="st3" d="M721,292.64h3.53v15.3H721V292.64z"/>
			</g>
			<g>
				<rect x="494.12" y="335.12" class="st2" width="240.59" height="49.95"/>
			</g>
			<g>
				<path class="st3" d="M555.87,364.73h-3.62v-5.8h-5.29v5.8h-3.62v-14.81h3.62v5.76h5.29v-5.76h3.62V364.73z"/>
				<path class="st3" d="M563.66,353.34c3.58,0,6.1,2.45,6.1,5.82c0,3.34-2.58,5.84-6.1,5.84c-3.53,0-6.03-2.46-6.03-5.8
					C557.63,355.84,560.23,353.34,563.66,353.34z M563.66,361.89c1.46,0,2.56-1.14,2.56-2.73c0-1.63-1.12-2.71-2.56-2.71
					c-1.46,0-2.5,1.12-2.5,2.75C561.16,360.81,562.22,361.89,563.66,361.89z"/>
				<path class="st3" d="M570.49,363.1l1.99-1.93c0.59,0.53,1.33,0.97,2.46,0.97c0.68,0,0.99-0.21,0.99-0.61
					c0-1.27-5.08-0.72-5.08-4.76c0-2.14,1.86-3.43,4.28-3.43c2.12,0,3.32,1.02,3.98,1.9l-2.29,1.8c-0.34-0.34-0.97-0.87-1.84-0.87
					c-0.51,0-0.8,0.21-0.8,0.55c0,1.4,5.12,0.59,5.12,4.61c0,2.26-1.99,3.66-4.53,3.66C572.65,365,571.15,363.99,570.49,363.1z"/>
				<path class="st3" d="M584.44,353.62h1.88v2.86h-1.88v4.08c0,0.97,0.66,1.21,1.38,1.21c0.19,0,0.36,0,0.59-0.02v3.03
					c0,0-0.47,0.13-1.35,0.13c-2.62,0-4.15-1.21-4.15-4.51v-3.92h-1.08v-2.86h1.08v-2.35h3.53V353.62z"/>
				<path class="st3" d="M605.03,364.73h-3.62v-5.8h-5.29v5.8h-3.62v-14.81h3.62v5.76h5.29v-5.76h3.62V364.73z"/>
				<path class="st3" d="M611.08,357.6c0.97,0,1.74,0.23,2.14,0.4v-0.4c0-0.68-0.55-1.21-1.69-1.21c-0.97,0-1.93,0.28-2.79,0.7
					l-1.31-2.37c1.19-0.78,2.69-1.38,4.53-1.38c3.83,0,4.8,1.97,4.8,4.51v6.88h-3.15l-0.19-0.61c-0.57,0.57-1.38,0.89-2.52,0.89
					c-2.18,0-4.13-1.31-4.13-3.73C606.77,359.06,608.46,357.6,611.08,357.6z M611.8,362.3c0.85,0,1.48-0.4,1.48-1.14
					c0-0.76-0.66-1.18-1.5-1.18c-0.85,0-1.48,0.47-1.48,1.18C610.3,361.89,610.98,362.3,611.8,362.3z"/>
				<path class="st3" d="M625.05,356.94c-0.15-0.02-0.32-0.04-0.57-0.04c-1.71,0-2.29,1.25-2.29,2.92v4.91h-3.53v-11.11h3.45v1.48
					c0.53-1.08,1.57-1.76,2.94-1.76V356.94z"/>
				<path class="st3" d="M634.36,363.86c-0.32,0.36-1.38,1.14-3,1.14c-3.2,0-5.44-2.41-5.44-5.82c0-3.45,2.03-5.84,5.25-5.84
					c1.69,0,2.73,0.85,2.96,1.12v-5.04h3.53v15.3h-3.3V363.86z M631.84,356.45c-1.44,0-2.39,1.12-2.39,2.75
					c0,1.65,0.97,2.71,2.39,2.71c1.52,0,2.39-1.23,2.39-2.71C634.24,357.45,633.24,356.45,631.84,356.45z"/>
				<path class="st3" d="M647.51,358.44l-1.59,6.29h-3.98l-3.11-11.11h3.85l1.5,7.26l1.67-7.26h3.3l1.67,7.26l1.5-7.26h3.85
					l-3.11,11.11h-3.98L647.51,358.44z"/>
				<path class="st3" d="M661.07,357.6c0.97,0,1.74,0.23,2.14,0.4v-0.4c0-0.68-0.55-1.21-1.69-1.21c-0.97,0-1.93,0.28-2.79,0.7
					l-1.31-2.37c1.18-0.78,2.69-1.38,4.53-1.38c3.83,0,4.8,1.97,4.8,4.51v6.88h-3.15l-0.19-0.61c-0.57,0.57-1.38,0.89-2.52,0.89
					c-2.18,0-4.13-1.31-4.13-3.73C656.75,359.06,658.45,357.6,661.07,357.6z M661.79,362.3c0.85,0,1.48-0.4,1.48-1.14
					c0-0.76-0.66-1.18-1.5-1.18s-1.48,0.47-1.48,1.18C660.29,361.89,660.96,362.3,661.79,362.3z"/>
				<path class="st3" d="M675.04,356.94c-0.15-0.02-0.32-0.04-0.57-0.04c-1.71,0-2.29,1.25-2.29,2.92v4.91h-3.53v-11.11h3.45v1.48
					c0.53-1.08,1.57-1.76,2.94-1.76V356.94z"/>
				<path class="st3" d="M679.1,360.09c0.08,0.99,1.04,1.84,2.35,1.84c1.33,0,2.12-0.87,2.33-1.18l2.33,1.8
					c-0.32,0.66-1.84,2.46-4.72,2.46c-3.66,0-5.9-2.52-5.9-5.8c0-3.26,2.2-5.86,5.46-5.86c3.53,0,5.46,2.26,5.46,6.05
					c0,0.21,0,0.44-0.02,0.7H679.1z M679.21,357.85h3.6c-0.04-0.89-0.7-1.65-1.8-1.65C679.84,356.2,679.29,357.07,679.21,357.85z"/>
			</g>
			<g>
				<path class="st2" d="M734.71,272.41H494.12c-0.28,0-0.5-0.22-0.5-0.5v-49.95c0-0.28,0.22-0.5,0.5-0.5h240.59
					c0.28,0,0.5,0.22,0.5,0.5v49.95C735.21,272.18,734.99,272.41,734.71,272.41z M494.62,271.41h239.59v-48.95H494.62V271.41z"/>
			</g>
			<g>
				<path class="st2" d="M734.71,326.79H494.12c-0.28,0-0.5-0.22-0.5-0.5v-49.95c0-0.28,0.22-0.5,0.5-0.5h240.59
					c0.28,0,0.5,0.22,0.5,0.5v49.95C735.21,326.57,734.99,326.79,734.71,326.79z M494.62,325.79h239.59v-48.95H494.62V325.79z"/>
			</g>
			<g>
				<path class="st2" d="M734.71,383.58H494.12c-0.28,0-0.5-0.22-0.5-0.5v-49.95c0-0.28,0.22-0.5,0.5-0.5h240.59
					c0.28,0,0.5,0.22,0.5,0.5v49.95C735.21,383.35,734.99,383.58,734.71,383.58z M494.62,382.58h239.59v-48.95H494.62V382.58z"/>
			</g>
		</g>
		<g>
			<g>
				<g>
					<rect x="495.42" y="151.16" class="st5" width="56.45" height="64.66"/>
				</g>
				<g>
					<path class="st2" d="M550.89,217.53h-56.45c-0.28,0-0.5-0.22-0.5-0.5v-64.66c0-0.28,0.22-0.5,0.5-0.5h56.45
						c0.28,0,0.5,0.22,0.5,0.5v64.66C551.39,217.31,551.17,217.53,550.89,217.53z M494.94,216.53h55.45v-63.66h-55.45V216.53z"/>
				</g>
				<g>
					<path class="st3" d="M507.42,178.01l-1.04,3.26h-3.57l5.02-14.52h3.73l5.02,14.52h-3.57l-1.04-3.26H507.42z M509.71,170.5
						l-1.37,4.6h2.74L509.71,170.5z"/>
					<path class="st3" d="M520.94,171.23c0.31-0.35,1.35-1.12,2.94-1.12c3.13,0,5.33,2.36,5.33,5.7c0,3.38-1.99,5.72-5.14,5.72
						c-1.66,0-2.67-0.83-2.9-1.1v4.71h-3.46v-14.76h3.23V171.23z M523.41,178.49c1.41,0,2.34-1.1,2.34-2.7
						c0-1.62-0.95-2.65-2.34-2.65c-1.49,0-2.34,1.2-2.34,2.65C521.07,177.51,522.04,178.49,523.41,178.49z"/>
					<path class="st3" d="M533.9,171.23c0.31-0.35,1.35-1.12,2.94-1.12c3.13,0,5.33,2.36,5.33,5.7c0,3.38-1.99,5.72-5.14,5.72
						c-1.66,0-2.67-0.83-2.9-1.1v4.71h-3.46v-14.76h3.23V171.23z M536.37,178.49c1.41,0,2.34-1.1,2.34-2.7
						c0-1.62-0.95-2.65-2.34-2.65c-1.49,0-2.34,1.2-2.34,2.65C534.03,177.51,535,178.49,536.37,178.49z"/>
					<path class="st3" d="M525.01,206.15h-3.5v-11.05l-1.41,0.44l-0.83-2.94l2.84-0.95h2.9V206.15z"/>
				</g>
			</g>
			<g>
				<g>
					<rect x="556.26" y="151.16" class="st5" width="56.45" height="64.66"/>
				</g>
				<g>
					<path class="st2" d="M611.73,217.53h-56.45c-0.28,0-0.5-0.22-0.5-0.5v-64.66c0-0.28,0.22-0.5,0.5-0.5h56.45
						c0.28,0,0.5,0.22,0.5,0.5v64.66C612.23,217.31,612.01,217.53,611.73,217.53z M555.78,216.53h55.45v-63.66h-55.45V216.53z"/>
				</g>
				<g>
					<path class="st3" d="M568.27,178.01l-1.04,3.26h-3.57l5.02-14.52h3.73l5.02,14.52h-3.57l-1.04-3.26H568.27z M570.55,170.5
						l-1.37,4.6h2.74L570.55,170.5z"/>
					<path class="st3" d="M581.79,171.23c0.31-0.35,1.35-1.12,2.94-1.12c3.13,0,5.33,2.36,5.33,5.7c0,3.38-1.99,5.72-5.14,5.72
						c-1.66,0-2.67-0.83-2.9-1.1v4.71h-3.46v-14.76h3.24V171.23z M584.25,178.49c1.41,0,2.34-1.1,2.34-2.7
						c0-1.62-0.95-2.65-2.34-2.65c-1.49,0-2.34,1.2-2.34,2.65C581.91,177.51,582.88,178.49,584.25,178.49z"/>
					<path class="st3" d="M594.74,171.23c0.31-0.35,1.35-1.12,2.94-1.12c3.13,0,5.33,2.36,5.33,5.7c0,3.38-1.99,5.72-5.14,5.72
						c-1.66,0-2.67-0.83-2.9-1.1v4.71h-3.46v-14.76h3.24V171.23z M597.21,178.49c1.41,0,2.34-1.1,2.34-2.7
						c0-1.62-0.95-2.65-2.34-2.65c-1.49,0-2.34,1.2-2.34,2.65C594.87,177.51,595.84,178.49,597.21,178.49z"/>
					<path class="st3" d="M578.58,206.15v-1.27c0-4.19,6.18-6.72,6.18-8.9c0-0.87-0.58-1.37-1.47-1.37c-0.95,0-1.49,0.64-1.74,1.43
						l-3.07-0.91c0.37-1.58,1.68-3.77,4.96-3.77c2.84,0,4.93,1.66,4.93,4.48c0,3.69-4.87,5.29-5.56,7.22h5.7v3.09H578.58z"/>
				</g>
			</g>
			<g>
				<g>
					<rect x="617.1" y="151.16" class="st5" width="56.45" height="64.66"/>
				</g>
				<g>
					<path class="st2" d="M672.57,217.53h-56.45c-0.28,0-0.5-0.22-0.5-0.5v-64.66c0-0.28,0.22-0.5,0.5-0.5h56.45
						c0.28,0,0.5,0.22,0.5,0.5v64.66C673.07,217.31,672.85,217.53,672.57,217.53z M616.62,216.53h55.45v-63.66h-55.45V216.53z"/>
				</g>
				<g>
					<path class="st3" d="M629.11,178.01l-1.04,3.26h-3.57l5.02-14.52h3.73l5.02,14.52h-3.57l-1.04-3.26H629.11z M631.39,170.5
						l-1.37,4.6h2.74L631.39,170.5z"/>
					<path class="st3" d="M642.63,171.23c0.31-0.35,1.35-1.12,2.94-1.12c3.13,0,5.33,2.36,5.33,5.7c0,3.38-1.99,5.72-5.14,5.72
						c-1.66,0-2.67-0.83-2.9-1.1v4.71h-3.46v-14.76h3.24V171.23z M645.09,178.49c1.41,0,2.34-1.1,2.34-2.7
						c0-1.62-0.95-2.65-2.34-2.65c-1.49,0-2.34,1.2-2.34,2.65C642.75,177.51,643.73,178.49,645.09,178.49z"/>
					<path class="st3" d="M655.59,171.23c0.31-0.35,1.35-1.12,2.94-1.12c3.13,0,5.33,2.36,5.33,5.7c0,3.38-1.99,5.72-5.14,5.72
						c-1.66,0-2.67-0.83-2.9-1.1v4.71h-3.46v-14.76h3.24V171.23z M658.05,178.49c1.41,0,2.34-1.1,2.34-2.7
						c0-1.62-0.95-2.65-2.34-2.65c-1.49,0-2.34,1.2-2.34,2.65C655.71,177.51,656.68,178.49,658.05,178.49z"/>
					<path class="st3" d="M639.34,202.64l3.07-0.91c0.25,0.79,0.85,1.43,1.8,1.43c0.97,0,1.6-0.6,1.6-1.56
						c0-0.81-0.58-1.49-1.7-1.49h-2.01v-2.72l2.59-2.67h-4.75v-3.09h8.81v3.07l-2.63,2.51c1.72,0.35,3.28,1.43,3.28,4.25
						c0,2.97-2.16,4.96-5.1,4.96C641.02,206.42,639.71,204.22,639.34,202.64z"/>
				</g>
			</g>
			<g>
				<g>
					<rect x="677.95" y="151.16" class="st5" width="56.45" height="64.66"/>
				</g>
				<g>
					<path class="st2" d="M733.41,217.53h-56.45c-0.28,0-0.5-0.22-0.5-0.5v-64.66c0-0.28,0.22-0.5,0.5-0.5h56.45
						c0.28,0,0.5,0.22,0.5,0.5v64.66C733.91,217.31,733.69,217.53,733.41,217.53z M677.46,216.53h55.45v-63.66h-55.45V216.53z"/>
				</g>
				<g>
					<path class="st3" d="M689.95,178.01l-1.04,3.26h-3.57l5.02-14.52h3.73l5.02,14.52h-3.57l-1.04-3.26H689.95z M692.23,170.5
						l-1.37,4.6h2.74L692.23,170.5z"/>
					<path class="st3" d="M703.47,171.23c0.31-0.35,1.35-1.12,2.94-1.12c3.13,0,5.33,2.36,5.33,5.7c0,3.38-1.99,5.72-5.14,5.72
						c-1.66,0-2.67-0.83-2.9-1.1v4.71h-3.46v-14.76h3.23V171.23z M705.94,178.49c1.41,0,2.34-1.1,2.34-2.7
						c0-1.62-0.95-2.65-2.34-2.65c-1.49,0-2.34,1.2-2.34,2.65C703.59,177.51,704.57,178.49,705.94,178.49z"/>
					<path class="st3" d="M716.43,171.23c0.31-0.35,1.35-1.12,2.94-1.12c3.13,0,5.33,2.36,5.33,5.7c0,3.38-1.99,5.72-5.14,5.72
						c-1.66,0-2.67-0.83-2.9-1.1v4.71h-3.46v-14.76h3.23V171.23z M718.89,178.49c1.41,0,2.34-1.1,2.34-2.7
						c0-1.62-0.95-2.65-2.34-2.65c-1.49,0-2.34,1.2-2.34,2.65C716.55,177.51,717.53,178.49,718.89,178.49z"/>
					<path class="st3" d="M709.27,202.91v3.23h-3.46v-3.23h-6.35v-2.51l5.64-8.77h4.17v8.29h1.62v2.99H709.27z M703.07,199.93h2.74
						v-4.5L703.07,199.93z"/>
				</g>
			</g>
		</g>
	</g>
	<g>
		<rect x="418.39" y="16.13" class="st3" width="4.51" height="45.1"/>
	</g>
</g>
</svg>
