<?xml version="1.0" encoding="utf-8"?>
<!-- Generator: Adobe Illustrator 24.0.3, SVG Export Plug-In . SVG Version: 6.00 Build 0)  -->
<svg version="1.1" xmlns="http://www.w3.org/2000/svg" xmlns:xlink="http://www.w3.org/1999/xlink" x="0px" y="0px"
	 viewBox="0 0 841.89 467.72" style="enable-background:new 0 0 841.89 467.72;" xml:space="preserve">
<style type="text/css">
	.st0{fill:#4890BA;}
	.st1{fill:none;stroke:#54575C;stroke-width:1.2013;stroke-miterlimit:10;}
	.st2{fill:#FFFFFF;}
	.st3{fill:#D08D6F;}
	.st4{fill:none;stroke:#54575C;stroke-width:1.3811;stroke-miterlimit:10;}
	.st5{fill:#54575C;}
</style>
<g id="Layer_1">
</g>
<g id="Layer_2">
</g>
<g id="Layer_3">
	<rect class="st0" width="841.89" height="467.72"/>
	<g>
		<g>
			<path class="st2" d="M611.98,274.95c0,0-30.58-40.49-83.05-28.92c-27.46,6.05-52.93,23.57-56.28,22.76
				c-9.77-2.36-18.25-14.36-27.89-18.52c-26.96-11.65-54.22-4.65-78.46,9.37c-8.85,5.12-7.9-5.53-7.9-5.53s5.02-19.23,13.11-46.91
				c3.3-11.29,39.66-68.17,51.65-69c11.98-0.83,24.72,11.75,43.55,1.43c0,0,4.71,16.66,22.27,14.12s14.48-9.96,14.48-9.96
				s7.06,3.26,11.77,2.17c4.71-1.09,16.29,15.39,25.17,3.44c8.87-11.95-7.97-22.99-7.97-22.99s16.48-9.6,15.03-18.11
				c0,0,10.32-5.97,4.16-12.67c-6.16-6.7-33.5-27.52-37.3-30.78c-3.8-3.26-19.19-5.07-35.12,0c-15.93,5.07-74.23,22.45-80.39,26.25
				c-6.16,3.8-41.6,28.53-58.78,45.29c-17.18,16.76-67.9,62.03-85.08,94.72s-37.72,51.97-43.59,64.54
				c-5.87,12.57,7.12,31.85,11.74,36.88s84.66,79.63,174.35,75.44c89.69-4.19,108.13-16.35,108.13-16.35s57.03,21.84,95.57-4.93
				C660.01,345.82,611.98,274.95,611.98,274.95z"/>
			<path class="st3" d="M614.16,280.39c0,0-30.58-40.49-83.05-28.92c-27.46,6.05-52.93,23.57-56.28,22.76
				c-9.77-2.36-18.25-14.36-27.89-18.52c-26.96-11.65-54.22-4.65-78.46,9.37c-8.85,5.12-7.9-5.53-7.9-5.53s5.02-19.23,13.11-46.91
				c3.3-11.29,39.66-68.17,51.65-69c11.98-0.83,24.72,11.75,43.55,1.43c0,0,4.71,16.66,22.27,14.12s14.48-9.96,14.48-9.96
				s7.06,3.26,11.77,2.17c4.71-1.09,16.29,15.39,25.17,3.44c8.87-11.95-7.97-22.99-7.97-22.99s16.48-9.6,15.03-18.11
				c0,0,10.32-5.97,4.16-12.67c-6.16-6.7-33.5-27.52-37.3-30.78s-19.19-5.07-35.12,0c-15.93,5.07-74.23,22.45-80.39,26.25
				c-6.16,3.8-41.6,28.53-58.78,45.29c-17.18,16.76-67.9,62.03-85.08,94.72s-37.72,51.97-43.59,64.54
				c-5.87,12.57,7.12,31.85,11.74,36.88s84.66,79.63,174.35,75.44c89.69-4.19,108.13-16.35,108.13-16.35s57.03,21.84,95.57-4.93
				C662.19,351.26,614.16,280.39,614.16,280.39z"/>
			<path class="st4" d="M611.38,274.95c0,0-30.58-40.49-83.05-28.92c-27.46,6.05-52.93,23.57-56.28,22.76
				c-9.77-2.36-18.25-14.36-27.89-18.52c-26.96-11.65-54.22-4.65-78.46,9.37c-8.85,5.12-7.9-5.53-7.9-5.53s5.02-19.23,13.11-46.91
				c3.3-11.29,39.66-68.17,51.65-69s24.72,11.75,43.55,1.43c0,0,4.71,16.66,22.27,14.12s14.48-9.96,14.48-9.96s7.06,3.26,11.77,2.17
				c4.71-1.09,16.29,15.39,25.17,3.44c8.87-11.95-7.97-22.99-7.97-22.99s16.48-9.6,15.03-18.11c0,0,10.32-5.97,4.16-12.67
				c-6.16-6.7-33.5-27.52-37.3-30.78c-3.8-3.26-19.19-5.07-35.12,0c-15.93,5.07-74.23,22.45-80.39,26.25
				c-6.16,3.8-41.6,28.53-58.78,45.29c-17.18,16.76-67.9,62.03-85.08,94.72s-37.72,51.97-43.59,64.54
				c-5.87,12.57,7.12,31.85,11.74,36.88c4.61,5.03,84.66,79.63,174.35,75.44c89.69-4.19,108.13-16.35,108.13-16.35
				s57.03,21.84,95.57-4.93C659.41,345.82,611.38,274.95,611.38,274.95z"/>
			<path class="st4" d="M357.8,254.1c0,0-23.63,55.31-53.17,56.39"/>
			<path class="st4" d="M358.87,282.57c0,0-6.81-13.93,15.2-27.36"/>
			<path class="st4" d="M479.56,280.64c0,0-10.19-12.38-17.82-17.6"/>
			<path class="st4" d="M502.86,143.78c-0.49-1.68-3.21-16.32-7.3-22.44"/>
			<path class="st4" d="M506.02,145.35c0,0,23.09-7.03,25.81-18.94l-20.61-27.19"/>
			<path class="st4" d="M546.86,108.3c0,0-20.67-21.72-23.8-23.28"/>
			<path class="st4" d="M475.44,152.17c0,0,1.77-17.24-3.3-18c-5.07-0.76-6.04,5.44-6.04,5.44"/>
			<path class="st4" d="M513.64,321.62c0,0-82.94,33.83-159.33,8.73"/>
		</g>
		<g>
			<g>
				<path class="st5" d="M695.52,183.66V94.41c0-24.03-9.44-38.62-28.75-38.62h-6.01V45.07h5.58c21.02,0,40.33,12.44,40.33,48.48
					v90.1c0,30.89,9.87,45.05,31.32,45.05v10.3c-21.45,0-31.32,14.16-31.32,45.05v90.1c0,36.04-19.31,48.48-40.33,48.48h-5.58
					v-10.73h6.01c19.31,0,28.75-14.59,28.75-38.62v-89.24c0-38.19,17.16-46.77,24.03-50.2
					C712.68,230.43,695.52,221.84,695.52,183.66z"/>
			</g>
			<g>
				<path class="st5" d="M146.37,284.06v89.24c0,24.03,9.44,38.62,28.75,38.62h6.01v10.73h-5.58c-21.02,0-40.33-12.44-40.33-48.48
					v-90.1c0-30.89-9.87-45.05-31.32-45.05v-10.3c21.45,0,31.32-14.16,31.32-45.05v-90.1c0-36.04,19.31-48.48,40.33-48.48h5.58V55.8
					h-6.01c-19.31,0-28.75,14.59-28.75,38.62v89.24c0,38.19-17.16,46.77-24.03,50.2C129.21,237.29,146.37,245.87,146.37,284.06z"/>
			</g>
		</g>
	</g>
</g>
</svg>
