<?xml version="1.0" encoding="utf-8"?>
<!-- Generator: Adobe Illustrator 23.0.6, SVG Export Plug-In . SVG Version: 6.00 Build 0)  -->
<svg version="1.1" id="Layer_1" xmlns="http://www.w3.org/2000/svg" xmlns:xlink="http://www.w3.org/1999/xlink" x="0px" y="0px"
	 viewBox="0 0 841.9 467.7" style="enable-background:new 0 0 841.9 467.7;" xml:space="preserve">
<style type="text/css">
	.st0{clip-path:url(#SVGID_2_);fill:#F4F4F5;}
	.st1{clip-path:url(#SVGID_2_);fill:#FFFFFF;}
	.st2{clip-path:url(#SVGID_2_);}
	.st3{fill:#61A575;}
	.st4{fill:none;stroke:#54575C;stroke-width:0.5814;stroke-miterlimit:10;}
	.st5{fill:#54575C;}
	.st6{fill:#E0635D;}
	.st7{fill:#F6CE75;}
	.st8{fill:#4890BA;}
	.st9{fill:none;stroke:#54575C;stroke-width:2.7736;stroke-miterlimit:10;}
	.st10{fill:#FFFFFF;}
	.st11{fill:none;stroke:#4890BA;stroke-width:8.562236e-02;stroke-miterlimit:10;}
	.st12{clip-path:url(#SVGID_4_);fill:#FFFFFF;}
	.st13{fill:#8D6159;}
	.st14{clip-path:url(#SVGID_6_);fill:#4890BA;}
	.st15{clip-path:url(#SVGID_6_);fill:#DCEFFA;}
	.st16{fill:none;stroke:#54575C;stroke-width:0.8562;stroke-miterlimit:10;}
	.st17{fill:#FFFFFF;stroke:#54575C;stroke-width:0.4138;stroke-miterlimit:10;}
	.st18{fill:none;stroke:#54575C;stroke-width:0.4138;stroke-miterlimit:10;}
	.st19{fill:#C5A79F;}
	.st20{fill:#F4F4F5;}
	.st21{fill:#235485;}
	.st22{fill:none;stroke:#54575C;stroke-width:0.6674;stroke-miterlimit:10;}
</style>
<g>
	<defs>
		<rect id="SVGID_1_" x="-9.3" y="-6.6" width="863.8" height="476.5"/>
	</defs>
	<clipPath id="SVGID_2_">
		<use xlink:href="#SVGID_1_"  style="overflow:visible;"/>
	</clipPath>
	<rect x="-9.3" y="-6.6" class="st0" width="863.8" height="476.5"/>
	<rect x="57.3" y="22.6" class="st1" width="733.8" height="353.8"/>
	<g class="st2">
		<g>
			<g>
				<path class="st3" d="M120.2,182.7c0,0,1.7,30.3-2.4,33.6l39.4,0.5c0,0,1.2-31.5-0.2-34H120.2z"/>
				<path class="st4" d="M122.1,183.9c0,0,1.7,30.3-2.4,33.6l39.4,0.5c0,0,1.2-31.5-0.2-34H122.1z"/>
				<path class="st5" d="M123.7,217.6l-1.9,2.7l40.3-0.5c0,0-1.5-33.8-2-35.8l-0.9,0l0.4,12.8l-0.2,21.1L123.7,217.6z"/>
			</g>
			<g>
				<path class="st6" d="M172.7,263.5c0,0,1.7,30.3-2.4,33.6l39.4,0.5c0,0,1.2-31.5-0.2-34H172.7z"/>
				<path class="st4" d="M174.7,264.6c0,0,1.7,30.3-2.4,33.6l39.4,0.5c0,0,1.2-31.5-0.2-34H174.7z"/>
				<path class="st5" d="M176.3,298.4l-1.9,2.7l40.3-0.5c0,0-1.5-33.8-2-35.8l-0.9,0l0.4,12.8l-0.2,21.1L176.3,298.4z"/>
			</g>
			<g>
				<path class="st7" d="M185.4,108.8c0,0,4.9,30,1.1,33.6l39.3-3.3c0,0-2.1-31.5-3.8-33.8L185.4,108.8z"/>
				<path class="st4" d="M187.4,109.7c0,0,4.9,30,1.1,33.6l39.3-3.3c0,0-2.1-31.5-3.8-33.8L187.4,109.7z"/>
				<path class="st5" d="M192.6,143.1l-1.6,2.8l40-4.3c0,0-5-33.5-5.8-35.4l-0.9,0l1.7,12.7l2,21L192.6,143.1z"/>
			</g>
			<g>
				<path class="st3" d="M109.9,112.4c0,0,1.7,30.3-2.4,33.6l39.4,0.5c0,0,1.2-31.5-0.2-34H109.9z"/>
				<path class="st4" d="M111.8,113.5c0,0,1.7,30.3-2.4,33.6l39.4,0.5c0,0,1.2-31.5-0.2-34H111.8z"/>
				<path class="st5" d="M113.4,147.3l-1.9,2.7l40.3-0.5c0,0-1.5-33.8-2-35.8l-0.9,0l0.4,12.8l-0.2,21.1L113.4,147.3z"/>
			</g>
			<g>
				<path class="st6" d="M188.4,159.1c0,0,1.7,30.3-2.4,33.6l39.4,0.5c0,0,1.2-31.5-0.2-34H188.4z"/>
				<path class="st4" d="M190.3,160.2c0,0,1.7,30.3-2.4,33.6l39.4,0.5c0,0,1.2-31.5-0.2-34H190.3z"/>
				<path class="st5" d="M192,194l-1.9,2.7l40.3-0.5c0,0-1.5-33.8-2-35.8l-0.9,0l0.4,12.8l-0.2,21.1L192,194z"/>
			</g>
			<g>
				<path class="st8" d="M167.8,216.6c0,0,1.7,30.3-2.4,33.6l39.4,0.5c0,0,1.2-31.5-0.2-34H167.8z"/>
				<path class="st4" d="M169.7,217.8c0,0,1.7,30.3-2.4,33.6l39.4,0.5c0,0,1.2-31.5-0.2-34H169.7z"/>
				<path class="st5" d="M171.3,251.5l-1.9,2.7l40.3-0.5c0,0-1.5-33.8-2-35.8l-0.9,0l0.4,12.8l-0.2,21.1L171.3,251.5z"/>
			</g>
		</g>
		<g>
			<g>
				<path class="st7" d="M292.1,108.4c0,0-7.5,29.5-12.4,31.5l37.7,11.1c0,0,10.6-29.9,10-32.7L292.1,108.4z"/>
				<path class="st4" d="M293.6,110.1c0,0-7.5,29.5-12.4,31.5l37.7,11.1c0,0,10.6-29.9,10-32.7L293.6,110.1z"/>
				<path class="st5" d="M285,142.8l-2.6,2l38.8,10.5c0,0,8.7-32.8,8.8-34.9l-0.8-0.3l-3.5,12.4l-6.5,20.2L285,142.8z"/>
			</g>
			<g>
				<path class="st8" d="M352.8,113.9c0,0,1.7,30.3-2.4,33.6l39.4,0.5c0,0,1.2-31.5-0.2-34H352.8z"/>
				<path class="st4" d="M354.7,115.1c0,0,1.7,30.3-2.4,33.6l39.4,0.5c0,0,1.2-31.5-0.2-34H354.7z"/>
				<path class="st5" d="M356.3,148.8l-1.9,2.7l40.3-0.5c0,0-1.5-33.8-2-35.8l-0.9,0l0.4,12.8L392,149L356.3,148.8z"/>
			</g>
			<g>
				<path class="st8" d="M292.2,289.8c0,0,1.7,30.3-2.4,33.6l39.4,0.5c0,0,1.2-31.5-0.2-34H292.2z"/>
				<path class="st4" d="M294.2,290.9c0,0,1.7,30.3-2.4,33.6l39.4,0.5c0,0,1.2-31.5-0.2-34H294.2z"/>
				<path class="st5" d="M295.8,324.7l-1.9,2.7l40.3-0.5c0,0-1.5-33.8-2-35.8l-0.9,0l0.4,12.8l-0.2,21.1L295.8,324.7z"/>
			</g>
			<g>
				<path class="st6" d="M283.7,169.7c0,0,1.7,30.3-2.4,33.6l39.4,0.5c0,0,1.2-31.5-0.2-34H283.7z"/>
				<path class="st4" d="M285.7,170.8c0,0,1.7,30.3-2.4,33.6l39.4,0.5c0,0,1.2-31.5-0.2-34H285.7z"/>
				<path class="st5" d="M287.3,204.6l-1.9,2.7l40.3-0.5c0,0-1.5-33.8-2-35.8l-0.9,0l0.4,12.8l-0.2,21.1L287.3,204.6z"/>
			</g>
			<g>
				<path class="st6" d="M347,297.8c0,0,5.1,30,1.4,33.6l39.2-4c0,0-2.4-31.4-4.1-33.8L347,297.8z"/>
				<path class="st4" d="M349,298.7c0,0,5.1,30,1.4,33.6l39.2-4c0,0-2.4-31.4-4.1-33.8L349,298.7z"/>
				<path class="st5" d="M354.4,332.1l-1.6,2.9l40-5.1c0,0-5.3-33.4-6.1-35.4l-0.9,0.1l1.8,12.7l2.2,21L354.4,332.1z"/>
			</g>
			<g>
				<path class="st7" d="M338.7,167.3c0,0,5.2,30,1.5,33.6l39.3-3.6c0,0-2.4-31.4-4.2-33.8L338.7,167.3z"/>
				<path class="st4" d="M340.8,168.2c0,0,5.2,30,1.5,33.6l39.3-3.6c0,0-2.4-31.4-4.2-33.8L340.8,168.2z"/>
				<path class="st5" d="M346.3,201.6l-1.6,2.8l40-4.7c0,0-5.4-33.5-6.1-35.4l-0.9,0l1.8,12.7l2.2,21L346.3,201.6z"/>
			</g>
			<g>
				<path class="st7" d="M289.5,224c0,0,1.7,30.3-2.4,33.6l39.4,0.5c0,0,1.2-31.5-0.2-34H289.5z"/>
				<path class="st4" d="M291.4,225.2c0,0,1.7,30.3-2.4,33.6l39.4,0.5c0,0,1.2-31.5-0.2-34H291.4z"/>
				<path class="st5" d="M293,258.9l-1.9,2.7l40.3-0.5c0,0-1.5-33.8-2-35.8l-0.9,0l0.4,12.8l-0.2,21.1L293,258.9z"/>
			</g>
			<g>
				<path class="st3" d="M345.6,232.2c0,0,1.7,30.3-2.4,33.6l39.4,0.5c0,0,1.2-31.5-0.2-34H345.6z"/>
				<path class="st4" d="M347.5,233.4c0,0,1.7,30.3-2.4,33.6l39.4,0.5c0,0,1.2-31.5-0.2-34H347.5z"/>
				<path class="st5" d="M349.1,267.1l-1.9,2.7l40.3-0.5c0,0-1.5-33.8-2-35.8l-0.9,0l0.4,12.8l-0.2,21.1L349.1,267.1z"/>
			</g>
		</g>
		<g>
			<g>
				<path class="st6" d="M540,183.4c0,0,1.7,30.3-2.4,33.6l39.4,0.5c0,0,1.2-31.5-0.2-34H540z"/>
				<path class="st4" d="M542,184.6c0,0,1.7,30.3-2.4,33.6l39.4,0.5c0,0,1.2-31.5-0.2-34H542z"/>
				<path class="st5" d="M543.6,218.3l-1.9,2.7l40.3-0.5c0,0-1.5-33.8-2-35.8l-0.9,0l0.4,12.8l-0.2,21.1L543.6,218.3z"/>
			</g>
			<g>
				<path class="st7" d="M492.5,224.9c0,0,1.7,30.3-2.4,33.6l39.4,0.5c0,0,1.2-31.5-0.2-34H492.5z"/>
				<path class="st4" d="M494.4,226.1c0,0,1.7,30.3-2.4,33.6l39.4,0.5c0,0,1.2-31.5-0.2-34H494.4z"/>
				<path class="st5" d="M496,259.8l-1.9,2.7l40.3-0.5c0,0-1.5-33.8-2-35.8l-0.9,0l0.4,12.8l-0.2,21.1L496,259.8z"/>
			</g>
			<g>
				<path class="st7" d="M541.9,247.8c0,0,1.7,30.3-2.4,33.6l39.4,0.5c0,0,1.2-31.5-0.2-34H541.9z"/>
				<path class="st4" d="M543.9,249c0,0,1.7,30.3-2.4,33.6l39.4,0.5c0,0,1.2-31.5-0.2-34H543.9z"/>
				<path class="st5" d="M545.5,282.7l-1.9,2.7l40.3-0.5c0,0-1.5-33.8-2-35.8l-0.9,0l0.4,12.8l-0.2,21.1L545.5,282.7z"/>
			</g>
			<g>
				<path class="st3" d="M481.4,176.7c0,0,1.7,30.3-2.4,33.6l39.4,0.5c0,0,1.2-31.5-0.2-34H481.4z"/>
				<path class="st4" d="M483.4,177.8c0,0,1.7,30.3-2.4,33.6l39.4,0.5c0,0,1.2-31.5-0.2-34H483.4z"/>
				<path class="st5" d="M485,211.6l-1.9,2.7l40.3-0.5c0,0-1.5-33.8-2-35.8l-0.9,0l0.4,12.8l-0.2,21.1L485,211.6z"/>
			</g>
		</g>
		<rect x="275.6" y="43.6" class="st5" width="84.4" height="8.3"/>
		<g>
			<line class="st9" x1="80.8" y1="93.5" x2="767" y2="93.5"/>
			<line class="st9" x1="252.6" y1="31.7" x2="252.6" y2="364.3"/>
			<line class="st9" x1="424.3" y1="31.7" x2="424.3" y2="364.3"/>
			<line class="st9" x1="596" y1="31.7" x2="596" y2="364.3"/>
		</g>
		<g>
			<path class="st7" d="M475.6,101.7c0,0,1.7,30.3-2.4,33.6l39.4,0.5c0,0,1.2-31.5-0.2-34H475.6z"/>
			<path class="st4" d="M477.5,102.9c0,0,1.7,30.3-2.4,33.6l39.4,0.5c0,0,1.2-31.5-0.2-34H477.5z"/>
			<path class="st5" d="M479.2,136.6l-1.9,2.7l40.3-0.5c0,0-1.5-33.8-2-35.8l-0.9,0l0.4,12.8l-0.2,21.1L479.2,136.6z"/>
		</g>
		<g>
			<path class="st8" d="M535.7,124.6c0,0,1.7,30.3-2.4,33.6l39.4,0.5c0,0,1.2-31.5-0.2-34H535.7z"/>
			<path class="st4" d="M537.6,125.7c0,0,1.7,30.3-2.4,33.6l39.4,0.5c0,0,1.2-31.5-0.2-34H537.6z"/>
			<path class="st5" d="M539.2,159.5l-1.9,2.7l40.3-0.5c0,0-1.5-33.8-2-35.8l-0.9,0l0.4,12.8l-0.2,21.1L539.2,159.5z"/>
		</g>
		<rect x="447.2" y="43.6" class="st5" width="38.8" height="8.3"/>
		<rect x="447.2" y="66.2" class="st5" width="84.4" height="8.3"/>
		<rect x="618.6" y="43.6" class="st5" width="84.4" height="8.3"/>
		<rect x="103.8" y="43.6" class="st5" width="84.4" height="8.3"/>
		<rect x="103.8" y="66.2" class="st5" width="103.5" height="8.3"/>
	</g>
	<g class="st2">
		<g>
			<g>
				<path class="st7" d="M729.1,114.6c0,0,7.5,29.5,12.4,31.5l-37.7,11.1c0,0-10.6-29.9-10-32.7L729.1,114.6z"/>
				<path class="st4" d="M727.5,116.2c0,0,7.5,29.5,12.4,31.5l-37.7,11.1c0,0-10.6-29.9-10-32.7L727.5,116.2z"/>
				<path class="st5" d="M736.1,149l2.6,2L700,161.5c0,0-8.7-32.8-8.8-34.9l0.8-0.3l3.5,12.4l6.5,20.2L736.1,149z"/>
			</g>
			<g>
				<path class="st8" d="M668.4,120.1c0,0-1.7,30.3,2.4,33.6l-39.4,0.5c0,0-1.2-31.5,0.2-34H668.4z"/>
				<path class="st4" d="M666.5,121.2c0,0-1.7,30.3,2.4,33.6l-39.4,0.5c0,0-1.2-31.5,0.2-34H666.5z"/>
				<path class="st5" d="M664.8,155l1.9,2.7l-40.3-0.5c0,0,1.5-33.8,2-35.8l0.9,0l-0.4,12.8l0.2,21.1L664.8,155z"/>
			</g>
			<g>
				<path class="st6" d="M737.4,175.8c0,0-1.7,30.3,2.4,33.6l-39.4,0.5c0,0-1.2-31.5,0.2-34H737.4z"/>
				<path class="st4" d="M735.5,177c0,0-1.7,30.3,2.4,33.6l-39.4,0.5c0,0-1.2-31.5,0.2-34H735.5z"/>
				<path class="st5" d="M733.9,210.7l1.9,2.7l-40.3-0.5c0,0,1.5-33.8,2-35.8l0.9,0l-0.4,12.8l0.2,21.1L733.9,210.7z"/>
			</g>
			<g>
				<path class="st6" d="M686.9,290.7c0,0-2.9,30.3,1.1,33.6l-39.4-1.1c0,0,0-31.5,1.6-34L686.9,290.7z"/>
				<path class="st4" d="M684.9,291.8c0,0-2.9,30.3,1.1,33.6l-39.4-1.1c0,0,0-31.5,1.6-34L684.9,291.8z"/>
				<path class="st5" d="M682,325.5l1.8,2.7l-40.3-2.1c0,0,2.8-33.7,3.4-35.7l0.9,0l-0.9,12.8l-0.6,21.1L682,325.5z"/>
			</g>
			<g>
				<path class="st7" d="M682.4,173.4c0,0-5.2,30-1.5,33.6l-39.3-3.6c0,0,2.4-31.4,4.2-33.8L682.4,173.4z"/>
				<path class="st4" d="M680.4,174.4c0,0-5.2,30-1.5,33.6l-39.3-3.6c0,0,2.4-31.4,4.2-33.8L680.4,174.4z"/>
				<path class="st5" d="M674.9,207.7l1.6,2.8l-40-4.7c0,0,5.4-33.5,6.1-35.4l0.9,0l-1.8,12.7l-2.2,21L674.9,207.7z"/>
			</g>
			<g>
				<path class="st7" d="M741,236c0,0-1.7,30.3,2.4,33.6L704,270c0,0-1.2-31.5,0.2-34H741z"/>
				<path class="st4" d="M739.1,237.1c0,0-1.7,30.3,2.4,33.6l-39.4,0.5c0,0-1.2-31.5,0.2-34H739.1z"/>
				<path class="st5" d="M737.4,270.9l1.9,2.7l-40.3-0.5c0,0,1.5-33.8,2-35.8l0.9,0l-0.4,12.8l0.2,21.1L737.4,270.9z"/>
			</g>
			<g>
				<path class="st3" d="M675.6,238.4c0,0-1.7,30.3,2.4,33.6l-39.4,0.5c0,0-1.2-31.5,0.2-34H675.6z"/>
				<path class="st4" d="M673.7,239.5c0,0-1.7,30.3,2.4,33.6l-39.4,0.5c0,0-1.2-31.5,0.2-34H673.7z"/>
				<path class="st5" d="M672,273.3l1.9,2.7l-40.3-0.5c0,0,1.5-33.8,2-35.8l0.9,0l-0.4,12.8l0.2,21.1L672,273.3z"/>
			</g>
		</g>
	</g>
	<g class="st2">
		<path class="st10" d="M428.2,481.2c2.8-6,25.3-65.8,25.3-65.8l-10.8,0.1L419,483.4L428.2,481.2z"/>
		<polygon class="st6" points="443,425.2 424.7,477.1 578.3,475.5 579.9,439.6 		"/>
		<g>
			<g>
				<path class="st10" d="M444.6,205.2l5,5.2l29.7-56.6c0,0,14.9-6,15.2-10c0.4-5.5-1.7-15-1.7-15c0.2-0.6,8.5-15.8,3.3-15.8
					c-5.2,0-9.1,8.5-9.1,8.5s-1.7-3.9-5.6-2.4c-3.9,1.6-5.4,5.3-5.4,5.3s-10.8,2.8-11.8,5.9c-1,3.2-5.7,17.6-5.9,18.4
					c-0.2,0.8-46.8,51.8-45.1,65.9c0.1,1,2.4,7,4.4,11.9c1.1-5.6,3.2-12.9,3.2-12.9C429.1,197.9,444.6,205.2,444.6,205.2z"/>
				<path class="st10" d="M549.7,214.8l0.2-6.7c2.3-12.6-10.8-22.8-10.8-22.8c-6.3-4.7-13.4-7.3-24.5-3.7c-2.3,0.8-4.9,1.8-7.6,3.1
					c-4.8,2.4-8,5.8-10,9.7c-4.6,8.7-3.6,19.7-3.4,25.4c0.2,8.3,2.7,7.9,2.7,7.9l3.7,6.5l-0.5,1.4l-0.8,2.4
					c2.9,3.5,10.5,10.1,17.6,11.4c6.9,1.2,14.2-2.3,17.3-4l0.2-1.1l0.2-1.1l0.5-3l6.9-10l2.4-3.5c0,0,0.2,1.4,2.3,0.6
					s3.1-4.9,4.8-8.3C552.6,215.4,549.7,214.8,549.7,214.8z"/>
				<path class="st10" d="M541.5,230l-6.9,10l-0.5,3l-0.2,1.1l-0.2,1.1c0.5-0.3,0.9-0.5,1.2-0.7c0.2-0.2,0.4-0.2,0.4-0.2
					c6.2-6.9,13.9-0.8,13.9-0.8l1.5,0.2L541.5,230z"/>
				<path class="st10" d="M536.3,244.8c-0.7-0.2-1.1-0.4-1.1-0.4s-0.1,0.1-0.4,0.2c-0.3,0.2-0.7,0.4-1.2,0.7
					c-3.1,1.7-10.4,5.2-17.3,4c-7.2-1.2-14.7-7.8-17.6-11.4c-0.8-1-1.2-1.7-1.2-2c0-1.6-11.4,5.1-11.4,5.1
					c2.3,18.7,33.4,17.5,43.3,16.5c10-1,18-3.5,18-3.5C548.5,249.5,539.6,245.9,536.3,244.8z"/>
				<g>
					<defs>
						<path id="SVGID_3_" d="M560.7,340.5c0,0-1-13.8-1-14.6c0-0.8,18-48.9,17-50.8c-0.8-1.6,4.4-20.5-12-29l-14.1-2.3l-1.5-0.2
							c0,0-7.7-6.1-13.9,0.8c0,0,0.4,0.1,1.1,0.4c3.2,1.1,12.1,4.7,11.1,9.3c0,0-8.1,2.6-18,3.5c-10,1-41,2.2-43.3-16.5
							c0,0-4.8-11.2-24.5-18.3l-12-12.4l-5-5.2c0,0-15.5-7.3-23.6,8.5c0,0-2.1,7.3-3.2,12.9c-0.4,2-0.7,3.9-0.7,5
							c0,0,22.8,60.7,28.6,74.1c5.8,13.4,3.1,10.6,3.1,10.6s-11.6,38-11,58.5c0.6,20.5-2,27.1-3.8,37.3c-1.2,6.5-2.8,8.3-2.8,8.2
							c0,0-1.2,1.4-1.2,1.4c0,0,6.2,1.9,15.8,4.7c28.4,8.2,87.2,24.3,111.7,24.3c0.4,0,2.9-0.7,5.8-1.6c5.2-1.6,12-3.7,12-3.7
							l2.1-5.7c0,0,6.8-3.2,6.6-7.3C583.9,428.2,564.5,353.7,560.7,340.5z"/>
					</defs>
					<use xlink:href="#SVGID_3_"  style="overflow:visible;fill:#FFFFFF;"/>
					<clipPath id="SVGID_4_">
						<use xlink:href="#SVGID_3_"  style="overflow:visible;"/>
					</clipPath>
					<path class="st12" d="M560.7,340.5c0,0-1-13.8-1-14.6c0-0.8,18-48.9,17-50.8c-0.8-1.6,4.4-20.5-12-29l-14.1-2.3l-1.5-0.2
						c0,0-7.7-6.1-13.9,0.8c0,0,0.4,0.1,1.1,0.4c3.2,1.1,12.1,4.7,11.1,9.3c0,0-8.1,2.6-18,3.5c-10,1-41,2.2-43.3-16.5
						c0,0-4.8-11.2-24.5-18.3l-12-12.4l-5-5.2c0,0-15.5-7.3-23.6,8.5c0,0-2.1,7.3-3.2,12.9c-0.4,2-0.7,3.9-0.7,5
						c0,0,22.8,60.7,28.6,74.1c5.8,13.4,3.1,10.6,3.1,10.6s-11.6,38-11,58.5c0.6,20.5-2,27.1-3.8,37.3c-1.2,6.5-2.8,8.3-2.8,8.2
						c0,0-1.2,1.4-1.2,1.4c0,0,6.2,1.9,15.8,4.7c28.4,8.2,87.2,24.3,111.7,24.3c0.4,0,2.9-0.7,5.8-1.6c5.2-1.6,12-3.7,12-3.7
						l2.1-5.7c0,0,6.8-3.2,6.6-7.3C583.9,428.2,564.5,353.7,560.7,340.5z"/>
					<path class="st12" d="M484.5,217.3c-0.1-2.3-0.9-4.7-2.7-6.3c-1.7-1.5-4.2-2.8-6.6-2.6c-7.3,0.5-14.9,1-21.7,3.6
						c-2.2,0.8-4.3,1.7-6.4,2.9c-2,1.2-3.9,2.6-5.7,4.1c-2.6,2.2-4.9,4.7-7.2,7.2c-9.7,10.9-18.7,22.4-27,34.3
						c-4.5,6.5-8.7,13.1-12.7,19.9c-1.2,2-1.6,4.6-0.9,6.8c0.6,2.1,2.3,4.3,4.3,5.3c4.4,2.2,10.2,1.1,12.8-3.2
						c8.3-14,17.6-27.4,27.9-40.2c2.6-3.2,5.3-6.4,8.1-9.5c2.6-3,5.3-6,8.4-8.5c1.3-0.9,2.7-1.6,4.1-2.3c2.9-1,5.9-1.7,8.9-2.1
						c2.4-0.3,4.7-0.5,7.1-0.6c2.5-0.2,4.8-0.9,6.6-2.6C483.4,222,484.6,219.5,484.5,217.3z"/>
					<path class="st12" d="M615.6,264.3c-0.2-3.2-1.3-6.5-3.8-8.7c-2.4-2.1-5.9-4-9.2-3.6c-17,2-34.1,3.3-51.2,3.8
						c-17.2,0.5-34.4,0.2-51.6-0.9c-2-0.1-4-0.3-6-0.4c1.5-1.8,2.4-4.2,2.4-6.5c0-2.6-1.2-5.7-3.2-7.4c-2.1-1.8-4.9-3.2-7.8-3.1
						c-2.9,0.1-5.7,1.1-7.8,3.1c-12,11.5-28.2,37.7-41.1,48.3c-3.3,2.7-2.5-9.2-6-6.6c-5.7,4.1-11.6,8-17.7,11.6
						c-2.4,1.4-4.3,3.7-5.1,6.3c-0.7,2.5-0.4,5.9,1.1,8.1c1.5,2.2,3.8,4.2,6.6,4.8c2.9,0.6,4.8-6.8,7.4-8.3
						c16.9-9.8,33.3-14.7,47.6-27.7c0.3,0,0.6,0,0.9,0c17,2,34.1,3.2,51.2,3.6c17.2,0.4,34.4,0,51.6-1.1c9.6-0.7,19.2-1.6,28.8-2.7
						c1.8,0.1,3.5-0.3,5-1.1c1.6-0.5,3-1.3,4.2-2.6C614,270.9,615.7,267.4,615.6,264.3z"/>
					<path class="st12" d="M626.3,286c-1-3-3-5.9-6-7.4c-3-1.5-6.7-2.3-10-1.2c-14.9,4.8-26.7,15.9-41.6,20.7
						c-14.6,4.7-32.2,3.3-47,7.3c-7.7,2.1-15.5,3.8-23.3,4.9c-15.7,1.8-31.6,1.3-47.3,0.2c-4.6-0.3-9.2-0.7-13.8-1.1
						c-3.2-0.3-7,1.6-9.2,3.6c-2.3,2.1-4,5.7-3.8,8.7c0.2,3.2,1.3,6.5,3.8,8.7c0.9,0.6,1.8,1.3,2.6,1.9c2,1.1,4.2,1.7,6.6,1.7
						c11.9,1,23.7,1.9,35.6,2.1c12.8,0.2,25.7-0.7,38.3-3c11.4-2,22.5-5.2,33.5-8.6c11.3-3.5,22.6-7.2,33.8-10.8l38.8-12.5
						c3.2-1,6-2.8,7.8-5.7C626.6,292.8,627.3,288.9,626.3,286z"/>
					<path class="st12" d="M652.9,328c-1.8-2.6-4.5-5-7.8-5.7c-3.4-0.7-7-0.5-10,1.2c-10.7,6.3-21.9,11.9-33.4,16.6
						c-16.4,6.4-33.4,11.3-50.8,14.5c-4.4,0.8-8.8,1.5-13.2,2.1c-17.7,2.2-35.6,2.7-53.4,1.4c-4.5-0.3-9-0.7-13.5-1.3
						c-12.5-1.7-24.9-4.2-37-7.7c-3.2-0.9-7.2-0.3-10,1.2c-2.7,1.5-5.3,4.4-6,7.4c-0.8,3.2-0.6,6.7,1.3,9.5c1.9,2.7,4.4,4.7,7.8,5.7
						c14.8,4.2,29.9,6.9,45.2,8.7c14.2,1.6,28.6,2.2,43,1.6c15.4-0.6,30.7-6.1,45.8-9.1c14-2.8,25.7-16.5,39.1-21.4
						c14.3-5.2,30.5,2.1,43.7-5.4c1.5-0.9,3-1.7,4.5-2.6c2.8-1.7,5.1-4.3,6-7.4C655,334.5,654.6,330.6,652.9,328z"/>
					<path class="st12" d="M658.9,415.6c-1-3-3-5.9-6-7.4c-1-0.4-2.1-0.8-3.1-1.2c-2.3-0.6-4.6-0.6-6.9,0c-1.9,0.3-3.7,0.6-5.6,0.9
						c-15.1,1.8-29.6,8.6-44.7,7.3c-3.9-0.3-10.3-1.4-14.2-1.9c-20-2.7-38.1-13.1-57.9-17c-21.4-4.3-42.9-8.3-64.7-10.3
						c-11.6-1.1-23.3-1.5-35-0.9c-3.4,0.2-6.7,1.3-9.2,3.6c-2.3,2.1-4,5.7-3.8,8.7c0.2,3.2,1.3,6.5,3.8,8.7c2.5,2.2,5.7,3.8,9.2,3.6
						c15.3-0.8,30.6,0.2,45.8,2c22.9,3.1,45.4,16.4,68.1,12.5c26-4.5,48.3,8.9,72.9,9.6c14.1,0.4,28.2-0.6,42.2-3
						c3-0.5,6.3-3.2,7.8-5.7C659.2,422.5,659.9,418.6,658.9,415.6z"/>
				</g>
			</g>
			<g>
				<path class="st13" d="M447,205.2l5,5.2l29.7-56.6c0,0,14.9-6,15.2-10c0.4-5.5-1.7-15-1.7-15c0.2-0.6,8.5-15.8,3.3-15.8
					c-5.2,0-9.1,8.5-9.1,8.5s-1.7-3.9-5.6-2.4c-3.9,1.6-5.4,5.3-5.4,5.3s-10.8,2.8-11.8,5.9c-1,3.2-5.7,17.6-5.9,18.4
					c-0.2,0.8-46.8,51.8-45.1,65.9c0.1,1,2.4,7,4.4,11.9c1.1-5.6,3.2-12.9,3.2-12.9C431.5,197.9,447,205.2,447,205.2z"/>
				<path class="st13" d="M552.1,214.8l0.2-6.7c2.3-12.6-10.8-22.8-10.8-22.8c-6.3-4.7-13.4-7.3-24.5-3.7c-2.3,0.8-4.9,1.8-7.6,3.1
					c-4.8,2.4-8,5.8-10,9.7c-4.6,8.7-3.6,19.7-3.4,25.4c0.2,8.3,2.7,7.9,2.7,7.9l3.7,6.5l-0.5,1.4l-0.8,2.4
					c2.9,3.5,10.5,10.1,17.6,11.4c6.9,1.2,14.2-2.3,17.3-4l0.2-1.1l0.2-1.1l0.5-3l6.9-10l2.4-3.5c0,0,0.2,1.4,2.3,0.6
					s3.1-4.9,4.8-8.3C555,215.4,552.1,214.8,552.1,214.8z"/>
				<path class="st13" d="M543.9,230l-6.9,10l-0.5,3l-0.2,1.1l-0.2,1.1c0.5-0.3,0.9-0.5,1.2-0.7c0.2-0.2,0.4-0.2,0.4-0.2
					c6.2-6.9,13.9-0.8,13.9-0.8l1.5,0.2L543.9,230z"/>
				<path class="st8" d="M538.7,244.8c-0.7-0.2-1.1-0.4-1.1-0.4s-0.1,0.1-0.4,0.2c-0.3,0.2-0.7,0.4-1.2,0.7
					c-3.1,1.7-10.4,5.2-17.3,4c-7.2-1.2-14.7-7.8-17.6-11.4c-0.8-1-1.2-1.7-1.2-2c0-1.6-11.4,5.1-11.4,5.1
					c2.3,18.7,33.4,17.5,43.3,16.5c10-1,18-3.5,18-3.5C550.9,249.5,541.9,245.9,538.7,244.8z"/>
				<g>
					<defs>
						<path id="SVGID_5_" d="M563.1,340.5c0,0-1-13.8-1-14.6c0-0.8,18-48.9,17-50.8c-0.8-1.6,4.4-20.5-12-29l-14.1-2.3l-1.5-0.2
							c0,0-7.7-6.1-13.9,0.8c0,0,0.4,0.1,1.1,0.4c3.2,1.1,12.1,4.7,11.1,9.3c0,0-8.1,2.6-18,3.5c-10,1-41,2.2-43.3-16.5
							c0,0-4.8-11.2-24.5-18.3l-12-12.4l-5-5.2c0,0-15.5-7.3-23.6,8.5c0,0-2.1,7.3-3.2,12.9c-0.4,2-0.7,3.9-0.7,5
							c0,0,22.8,60.7,28.6,74.1c5.8,13.4,3.1,10.6,3.1,10.6s-11.6,38-11,58.5c0.6,20.5-2,27.1-3.8,37.3c-1.2,6.5-2.8,8.3-2.8,8.2
							c0,0-1.2,1.4-1.2,1.4c0,0,6.2,1.9,15.8,4.7c28.4,8.2,87.2,24.3,111.7,24.3c0.4,0,2.9-0.7,5.8-1.6c5.2-1.6,12-3.7,12-3.7
							l2.1-5.7c0,0,6.8-3.2,6.6-7.3C586.3,428.2,566.8,353.7,563.1,340.5z"/>
					</defs>
					<clipPath id="SVGID_6_">
						<use xlink:href="#SVGID_5_"  style="overflow:visible;"/>
					</clipPath>
					<path class="st14" d="M563.1,340.5c0,0-1-13.8-1-14.6c0-0.8,18-48.9,17-50.8c-0.8-1.6,4.4-20.5-12-29l-14.1-2.3l-1.5-0.2
						c0,0-7.7-6.1-13.9,0.8c0,0,0.4,0.1,1.1,0.4c3.2,1.1,12.1,4.7,11.1,9.3c0,0-8.1,2.6-18,3.5c-10,1-41,2.2-43.3-16.5
						c0,0-4.8-11.2-24.5-18.3l-12-12.4l-5-5.2c0,0-15.5-7.3-23.6,8.5c0,0-2.1,7.3-3.2,12.9c-0.4,2-0.7,3.9-0.7,5
						c0,0,22.8,60.7,28.6,74.1c5.8,13.4,3.1,10.6,3.1,10.6s-11.6,38-11,58.5c0.6,20.5-2,27.1-3.8,37.3c-1.2,6.5-2.8,8.3-2.8,8.2
						c0,0-1.2,1.4-1.2,1.4c0,0,6.2,1.9,15.8,4.7c28.4,8.2,87.2,24.3,111.7,24.3c0.4,0,2.9-0.7,5.8-1.6c5.2-1.6,12-3.7,12-3.7
						l2.1-5.7c0,0,6.8-3.2,6.6-7.3C586.3,428.2,566.8,353.7,563.1,340.5z"/>
					<path class="st15" d="M486.9,217.3c-0.1-2.3-0.9-4.7-2.7-6.3c-1.7-1.5-4.2-2.8-6.6-2.6c-7.3,0.5-14.9,1-21.7,3.6
						c-2.2,0.8-4.3,1.7-6.4,2.9c-2,1.2-3.9,2.6-5.7,4.1c-2.6,2.2-4.9,4.7-7.2,7.2c-9.7,10.9-18.7,22.4-27,34.3
						c-4.5,6.5-8.7,13.1-12.7,19.9c-1.2,2-1.6,4.6-0.9,6.8c0.6,2.1,2.3,4.3,4.3,5.3c4.4,2.2,10.2,1.1,12.8-3.2
						c8.3-14,17.6-27.4,27.9-40.2c2.6-3.2,5.3-6.4,8.1-9.5c2.6-3,5.3-6,8.4-8.5c1.3-0.9,2.7-1.6,4.1-2.3c2.9-1,5.9-1.7,8.9-2.1
						c2.4-0.3,4.7-0.5,7.1-0.6c2.5-0.2,4.8-0.9,6.6-2.6C485.8,222,487,219.5,486.9,217.3z"/>
					<path class="st15" d="M617.9,264.3c-0.2-3.2-1.3-6.5-3.8-8.7c-2.4-2.1-5.9-4-9.2-3.6c-17,2-34.1,3.3-51.2,3.8
						c-17.2,0.5-34.4,0.2-51.6-0.9c-2-0.1-4-0.3-6-0.4c1.5-1.8,2.4-4.2,2.4-6.5c0-2.6-1.2-5.7-3.2-7.4c-2.1-1.8-4.9-3.2-7.8-3.1
						c-2.9,0.1-5.7,1.1-7.8,3.1c-12,11.5-28.2,37.7-41.1,48.3c-3.3,2.7-2.5-9.2-6-6.6c-5.7,4.1-11.6,8-17.7,11.6
						c-2.4,1.4-4.3,3.7-5.1,6.3c-0.7,2.5-0.4,5.9,1.1,8.1c1.5,2.2,3.8,4.2,6.6,4.8c2.9,0.6,4.8-6.8,7.4-8.3
						c16.9-9.8,33.3-14.7,47.6-27.7c0.3,0,0.6,0,0.9,0c17,2,34.1,3.2,51.2,3.6c17.2,0.4,34.4,0,51.6-1.1c9.6-0.7,19.2-1.6,28.8-2.7
						c1.8,0.1,3.5-0.3,5-1.1c1.6-0.5,3-1.3,4.2-2.6C616.4,270.9,618.1,267.4,617.9,264.3z"/>
					<path class="st15" d="M628.7,286c-1-3-3-5.9-6-7.4c-3-1.5-6.7-2.3-10-1.2c-14.9,4.8-26.7,15.9-41.6,20.7
						c-14.6,4.7-32.2,3.3-47,7.3c-7.7,2.1-15.5,3.8-23.3,4.9c-15.7,1.8-31.6,1.3-47.3,0.2c-4.6-0.3-9.2-0.7-13.8-1.1
						c-3.2-0.3-7,1.6-9.2,3.6c-2.3,2.1-4,5.7-3.8,8.7c0.2,3.2,1.3,6.5,3.8,8.7c0.9,0.6,1.8,1.3,2.6,1.9c2,1.1,4.2,1.7,6.6,1.7
						c11.9,1,23.7,1.9,35.6,2.1c12.8,0.2,25.7-0.7,38.3-3c11.4-2,22.5-5.2,33.5-8.6c11.3-3.5,22.6-7.2,33.8-10.8l38.8-12.5
						c3.2-1,6-2.8,7.8-5.7C629,292.8,629.7,288.9,628.7,286z"/>
					<path class="st15" d="M655.2,328c-1.8-2.6-4.5-5-7.8-5.7c-3.4-0.7-7-0.5-10,1.2c-10.7,6.3-21.9,11.9-33.4,16.6
						c-16.4,6.4-33.4,11.3-50.8,14.5c-4.4,0.8-8.8,1.5-13.2,2.1c-17.7,2.2-35.6,2.7-53.4,1.4c-4.5-0.3-9-0.7-13.5-1.3
						c-12.5-1.7-24.9-4.2-37-7.7c-3.2-0.9-7.2-0.3-10,1.2c-2.7,1.5-5.3,4.4-6,7.4c-0.8,3.2-0.6,6.7,1.3,9.5c1.9,2.7,4.4,4.7,7.8,5.7
						c14.8,4.2,29.9,6.9,45.2,8.7c14.2,1.6,28.6,2.2,43,1.6c15.4-0.6,30.7-6.1,45.8-9.1c14-2.8,25.7-16.5,39.1-21.4
						c14.3-5.2,30.5,2.1,43.7-5.4c1.5-0.9,3-1.7,4.5-2.6c2.8-1.7,5.1-4.3,6-7.4C657.4,334.5,657,330.6,655.2,328z"/>
					<path class="st15" d="M661.3,415.6c-1-3-3-5.9-6-7.4c-1-0.4-2.1-0.8-3.1-1.2c-2.3-0.6-4.6-0.6-6.9,0c-1.9,0.3-3.7,0.6-5.6,0.9
						c-15.1,1.8-29.6,8.6-44.7,7.3c-3.9-0.3-10.3-1.4-14.2-1.9c-20-2.7-38.1-13.1-57.9-17c-21.4-4.3-42.9-8.3-64.7-10.3
						c-11.6-1.1-23.3-1.5-35-0.9c-3.4,0.2-6.7,1.3-9.2,3.6c-2.3,2.1-4,5.7-3.8,8.7c0.2,3.2,1.3,6.5,3.8,8.7c2.5,2.2,5.7,3.8,9.2,3.6
						c15.3-0.8,30.6,0.2,45.8,2c22.9,3.1,45.4,16.4,68.1,12.5c26-4.5,48.3,8.9,72.9,9.6c14.1,0.4,28.2-0.6,42.2-3
						c3-0.5,6.3-3.2,7.8-5.7C661.6,422.5,662.3,418.6,661.3,415.6z"/>
				</g>
			</g>
			<g>
				<path class="st16" d="M444.6,204.7l5,5.2l29.7-56.6c0,0,14.9-6,15.2-10c0.4-5.5-1.7-15-1.7-15c0.2-0.6,8.5-15.8,3.3-15.8
					c-5.2,0-9.1,8.5-9.1,8.5s-1.7-3.9-5.6-2.4c-3.9,1.6-5.4,5.3-5.4,5.3s-10.8,2.8-11.8,5.9c-1,3.2-5.7,17.6-5.9,18.4
					c-0.2,0.8-46.8,51.8-45.1,65.9c0.1,1,2.4,7,4.4,11.9c1.1-5.6,3.2-12.9,3.2-12.9C429.1,197.4,444.6,204.7,444.6,204.7z"/>
				<path class="st16" d="M549.7,214.3l0.2-6.7c2.3-12.6-10.8-22.8-10.8-22.8c-6.3-4.7-13.4-7.3-24.5-3.7c-2.3,0.8-4.9,1.8-7.6,3.1
					c-4.8,2.4-8,5.8-10,9.7c-4.6,8.7-3.6,19.7-3.4,25.4c0.2,8.3,2.7,7.9,2.7,7.9l3.7,6.5l-0.5,1.4l-0.8,2.4
					c2.9,3.5,10.5,10.1,17.6,11.4c6.9,1.2,14.2-2.3,17.3-4l0.2-1.1l0.2-1.1l0.5-3l6.9-10l2.4-3.5c0,0,0.2,1.4,2.3,0.6
					s3.1-4.9,4.8-8.3C552.6,214.9,549.7,214.3,549.7,214.3z"/>
				<path class="st16" d="M541.5,229.5l-6.9,10l-0.5,3l-0.2,1.1l-0.2,1.1c0.5-0.3,0.9-0.5,1.2-0.7c0.2-0.2,0.4-0.2,0.4-0.2
					c6.2-6.9,13.9-0.8,13.9-0.8l1.5,0.2L541.5,229.5z"/>
				<path class="st16" d="M536.3,244.2c-0.7-0.2-1.1-0.4-1.1-0.4s-0.1,0.1-0.4,0.2c-0.3,0.2-0.7,0.4-1.2,0.7
					c-3.1,1.7-10.4,5.2-17.3,4c-7.2-1.2-14.7-7.8-17.6-11.4c-0.8-1-1.2-1.7-1.2-2c0-1.6-11.4,5.1-11.4,5.1
					c2.3,18.7,33.4,17.5,43.3,16.5c10-1,18-3.5,18-3.5C548.5,249,539.5,245.4,536.3,244.2z"/>
				<path class="st5" d="M423.8,248.7l33.6,67.6c0,0,27.3,31.8,33,37.6c0,0-41.6-35.1-41.6-38.2
					C448.8,312.6,423.8,248.7,423.8,248.7z"/>
				<path class="st5" d="M560.7,340c0,0-26.9,57.2-47.3,64.1c0,0,6.1-0.9,10.9-3.7s40.9-43.1,40.9-43.1L560.7,340z"/>
				<path class="st5" d="M540,245.1c0,0,10.3,4.1,10.6,9.5c0,0-6.6,7.6-48.8,4.9c0,0-8.8-3.7-13.1-12.7c0,0,4.3,9.1,20.3,9.7
					c16,0.5,27.9,1.3,38.5-3C547.4,253.5,546,247.7,540,245.1z"/>
				<path class="st16" d="M560.7,340c0,0-1-13.8-1-14.6s18-48.9,17-50.8c-0.8-1.6,4.4-20.5-12-29l-14.1-2.3l-1.5-0.2
					c0,0-7.7-6.1-13.9,0.8c0,0,0.4,0.1,1.1,0.4c3.2,1.1,12.1,4.7,11.1,9.3c0,0-8.1,2.6-18,3.5c-10,1-41,2.2-43.3-16.5
					c0,0-4.8-11.2-24.5-18.3l-12-12.4l-5-5.2c0,0-15.5-7.3-23.6,8.5c0,0-2.1,7.3-3.2,12.9c-0.4,2-0.7,3.9-0.7,5
					c0,0,22.8,60.7,28.6,74.1c5.8,13.4,3.1,10.6,3.1,10.6s-11.6,38-11,58.5c0.6,20.5-2,27.1-3.8,37.3c-1.2,6.5-2.8,8.3-2.8,8.2
					c0,0-1.2,1.4-1.2,1.4c0,0,6.2,1.9,15.8,4.7c28.4,8.2,87.2,24.3,111.7,24.3c0.4,0,2.9-0.7,5.8-1.6c5.2-1.6,12-3.7,12-3.7l2.1-5.7
					c0,0,6.8-3.2,6.6-7.3C583.9,427.6,564.4,353.2,560.7,340z"/>
				<path class="st16" d="M486.1,240.5c0,0,1.1,39.7-41.4,54.6"/>
			</g>
		</g>
		<line class="st16" x1="421.1" y1="477.6" x2="439.3" y2="424.3"/>
		<line class="st16" x1="575.4" y1="444.8" x2="575.4" y2="475.1"/>
		<polyline class="st16" points="442.4,477.6 452.9,446.5 508.3,455.7 501.6,477.2 		"/>
		<path class="st16" d="M534.7,447.3c0,0-4.2,21.1-3.8,28.3"/>
		<path class="st5" d="M451.7,446.6c0,0,37.9,15.2,55.4,9.2"/>
	</g>
	<g class="st2">
		<g>
			<path class="st10" d="M156.3,271.6c3.7-3.1,10.9-9,13.2-9c3.1,0,17.4,4.7,14.3,5.7c-3.1,1-14.8,0.2-14.8,0.2s-0.2,0.1-0.6,0.4
				c-4.1,0-7.2,0-7.2,0l0.7,8.2l7.3-1.3c3.2,0,6.3-0.3,6.3-0.3l7.6-2.2c0,0,2.9-0.2,0,3.7c-2.9,4-16.7,15.6-16.7,15.6l-5.6,2.2
				c-1.7-3.4-3-6.3-3.8-8.2C155.2,282.3,155.7,276.7,156.3,271.6z"/>
			<path class="st10" d="M168.3,268.9c7.8,0,19.3,0,20-0.1l3.2,1.3l-2.9,2.1l-19.6,3.6l-7.3,1.3l-0.7-8.2
				C161.1,268.8,164.2,268.9,168.3,268.9z"/>
			<path class="st17" d="M78.5,336.3c-0.1-0.3-0.3-0.7-0.4-1l0-0.7L78.5,336.3z"/>
			<path class="st10" d="M91.2,275.3c-0.7,15.9-11.2,29.7-16.4,46.8c-0.2,0.7-0.4,1.4-0.6,2c-3.8-12.8-6-28-0.1-38.6
				c4.4-7.8,10.6-12.2,17-14.7C91.2,272.6,91.3,274.1,91.2,275.3z"/>
			<path class="st10" d="M100.8,373.6l7.6-15.6l3,17.5c0,0,6.6-6.9,2-23.7c-4.6-16.9,15.1-75.5,15.1-75.5s0.3,2.2,9.9,14.7
				c5.2,6.8,8.7,28.4,10.8,47.1c-0.8-0.9-14.2-15-26.6-8.1c0,0-8.2,37.4-5.6,52.8l-32.7,2.5c0,0,0,0,0,0.1c-3-4,1-9.9,0-11.2
				c-1.6-2.2-0.2-6.7-0.2-6.7s-1.2-2.5-2.8-7.2c-0.8-2.3-0.1-5.2,0.8-7.6C85.6,366.1,100.8,373.6,100.8,373.6z"/>
			<path class="st10" d="M149,338.2c1.7,15.6,2.5,29,2.3,29.8c-0.3,1.8,8.2,2.2,8.8,2.2c-1.7,2.6-2.9,4.3-1.9,5.3
				c1.5,1.5,1,4.4,0,7.2c-5.7-4.7-13.8-11.6-13.8-11.6L149,338.2z"/>
			<path class="st10" d="M78.8,353c0,0-8.5-12.7-4.5-28.9c0.2-0.7,0.3-1.4,0.6-2c5.3-17.2,15.8-30.9,16.4-46.8
				c0.1-1.2,0-2.7-0.1-4.4c-1.4-20.5-12.2-72.6,29.3-75.8c0,0,26.3-5.9,30.2,13.7c3.9,19.7,0.3,46.2,4.6,49.9c2.3,2,1.6,7.1,1,12.8
				c-0.5,5.1-1,10.7,0.7,15c0.8,1.9,2.1,4.7,3.8,8.2c6.3,12.9,16.9,34,16.9,44.6c0,13.4-17.4,30.9-17.4,30.9s0,0,0,0
				c-0.7,0-9.1-0.4-8.8-2.2c0.1-0.9-0.6-14.3-2.3-29.8l0-0.1c0,0,0,0,0,0c-2.1-18.6-5.6-40.3-10.8-47.1c-9.5-12.5-9.9-14.7-9.9-14.7
				s-19.7,58.7-15.1,75.5c4.6,16.9-2,23.7-2,23.7l-3-17.5l-7.6,15.6c0,0-15.1-7.6-18.9-21c1-2.4-1.9-8-3.3-16.3l-0.4-1.7l0,0.7
				L78.8,353z"/>
			<path class="st17" d="M149,338.2c0-0.1,0-0.1,0-0.2c0,0,0,0,0,0L149,338.2z"/>
			<path class="st10" d="M84.1,385.3C84.1,385.3,84.1,385.2,84.1,385.3l32.7-2.6c0.5,2.9,1.3,5,2.7,5.9c0.2,0.1,0.4,0.3,0.6,0.4
				c8.2,5.7,26.5,19,41.8,19.2c0.2,24.7-2.7,104-2.7,104c-39.7,12.5-85.6-3.6-85.6-3.6s2.1-47.3-1.8-68.8
				C68,418.6,82.9,387.1,84.1,385.3z"/>
			<path class="st10" d="M122.4,329.9c12.4-7,25.7,7.2,26.6,8.1c0,0.1,0,0.1,0,0.2l-4.6,32.9c0,0,8.1,6.9,13.8,11.6
				c2.2,1.8,4,3.3,4.9,4c3.3,2.5,18.7,14.4,21,20.6c2.3,6.2-14.1,12.8-18.1,11.9c-3.9-0.9-0.3-11.2-0.3-11.2
				c-1.3,0.2-2.6,0.3-3.9,0.3c-15.4-0.2-33.6-13.5-41.8-19.2c-0.2-0.1-0.4-0.3-0.6-0.4c-1.3-0.9-2.2-3-2.7-5.9
				C114.3,367.4,122.4,329.9,122.4,329.9z"/>
		</g>
		<g>
			<path class="st18" d="M76.1,337.1c-0.1-0.3-0.3-0.7-0.4-1l0-0.7L76.1,337.1z"/>
			<path class="st18" d="M146.6,339c0-0.1,0-0.1,0-0.2c0,0,0,0,0,0L146.6,339z"/>
			<g>
				<path class="st19" d="M159,272.9c3.7-3.1,10.9-9,13.2-9c3.1,0,17.4,4.7,14.3,5.7c-3.1,1-14.8,0.2-14.8,0.2s-0.2,0.1-0.6,0.4
					c-4.1,0-7.2,0-7.2,0l0.7,8.2l7.3-1.3c3.2,0,6.3-0.3,6.3-0.3l7.6-2.2c0,0,2.9-0.2,0,3.7c-2.9,4-16.7,15.6-16.7,15.6l-5.6,2.2
					c-1.7-3.4-3-6.3-3.8-8.2C157.9,283.6,158.4,278.1,159,272.9z"/>
				<path class="st20" d="M171,270.2c7.8,0,19.3,0,20-0.1l3.2,1.3l-2.9,2.1l-19.6,3.6l-7.3,1.3l-0.7-8.2
					C163.8,270.2,166.9,270.2,171,270.2z"/>
				<path class="st21" d="M93.9,276.7c-0.7,15.9-11.2,29.7-16.4,46.8c-0.2,0.7-0.4,1.4-0.6,2c-3.8-12.8-6-28-0.1-38.6
					c4.4-7.8,10.6-12.2,17-14.7C93.9,274,94,275.5,93.9,276.7z"/>
				<path class="st21" d="M103.5,375l7.6-15.6l3,17.5c0,0,6.6-6.9,2-23.7c-4.6-16.9,15.1-75.5,15.1-75.5s0.3,2.2,9.9,14.7
					c5.2,6.8,8.7,28.4,10.8,47.1c-0.8-0.9-14.2-15-26.6-8.1c0,0-8.2,37.4-5.6,52.8l-32.7,2.5c0,0,0,0,0,0.1c-3-4,1-9.9,0-11.2
					c-1.6-2.2-0.2-6.7-0.2-6.7s-1.2-2.5-2.8-7.2c-0.8-2.3-0.1-5.2,0.8-7.6C88.3,367.4,103.5,375,103.5,375z"/>
				<path class="st21" d="M151.7,339.6c1.7,15.6,2.5,29,2.3,29.8c-0.3,1.8,8.2,2.2,8.8,2.2c-1.7,2.6-2.9,4.3-1.9,5.3
					c1.5,1.5,1,4.4,0,7.2c-5.7-4.7-13.8-11.6-13.8-11.6L151.7,339.6z"/>
				<path class="st6" d="M81.5,354.4c0,0-8.5-12.7-4.5-28.9c0.2-0.7,0.3-1.4,0.6-2c5.3-17.2,15.8-30.9,16.4-46.8
					c0.1-1.2,0-2.7-0.1-4.4c-1.4-20.5-12.2-72.6,29.3-75.8c0,0,26.3-5.9,30.2,13.7c3.9,19.7,0.3,46.2,4.6,49.9c2.3,2,1.6,7.1,1,12.8
					c-0.5,5.1-1,10.7,0.7,15c0.8,1.9,2.1,4.7,3.8,8.2c6.3,12.9,16.9,34,16.9,44.6c0,13.4-17.4,30.9-17.4,30.9s0,0,0,0
					c-0.7,0-9.1-0.4-8.8-2.2c0.1-0.9-0.6-14.3-2.3-29.8l0-0.1c0,0,0,0,0,0c-2.1-18.6-5.6-40.3-10.8-47.1
					c-9.5-12.5-9.9-14.7-9.9-14.7s-19.7,58.7-15.1,75.5c4.6,16.9-2,23.7-2,23.7l-3-17.5l-7.6,15.6c0,0-15.1-7.6-18.9-21
					c1-2.4-1.9-8-3.3-16.3l-0.4-1.7l0,0.7L81.5,354.4z"/>
				<path class="st8" d="M86.8,386.6C86.8,386.6,86.8,386.6,86.8,386.6l32.7-2.6c0.5,2.9,1.3,5,2.7,5.9c0.2,0.1,0.4,0.3,0.6,0.4
					c8.2,5.7,26.5,19,41.8,19.2c0.2,24.7-2.7,104-2.7,104c-39.7,12.5-85.6-3.6-85.6-3.6s2.1-47.3-1.8-68.8
					C70.7,419.9,85.6,388.4,86.8,386.6z"/>
				<path class="st19" d="M125.1,331.3c12.4-7,25.7,7.2,26.6,8.1c0,0.1,0,0.1,0,0.2l-4.6,32.9c0,0,8.1,6.9,13.8,11.6
					c2.2,1.8,4,3.3,4.9,4c3.3,2.5,18.7,14.4,21,20.6c2.3,6.2-14.1,12.8-18.1,11.9c-3.9-0.9-0.3-11.2-0.3-11.2
					c-1.3,0.2-2.6,0.3-3.9,0.3c-15.4-0.2-33.6-13.5-41.8-19.2c-0.2-0.1-0.4-0.3-0.6-0.4c-1.3-0.9-2.2-3-2.7-5.9
					C117,368.7,125.1,331.3,125.1,331.3z"/>
			</g>
		</g>
		<g>
			<path class="st22" d="M156.2,271.9c3.7-3.1,10.9-9,13.2-9c3.1,0,17.4,4.7,14.3,5.7c-3.1,1-14.8,0.2-14.8,0.2s-0.2,0.1-0.6,0.4
				c-4.1,0-7.2,0-7.2,0l0.7,8.2l7.3-1.3c3.2,0,6.3-0.3,6.3-0.3l7.6-2.2c0,0,2.9-0.2,0,3.7c-2.9,4-16.7,15.6-16.7,15.6l-5.6,2.2
				c-1.7-3.4-3-6.3-3.8-8.2C155.1,282.6,155.6,277,156.2,271.9z"/>
			<path class="st22" d="M168.2,269.1c7.8,0,19.3,0,20-0.1l3.2,1.3l-2.9,2.1L169,276l-7.3,1.3l-0.7-8.2
				C161,269.1,164.1,269.1,168.2,269.1z"/>
			<path class="st22" d="M78.4,336.6c-0.1-0.3-0.3-0.7-0.4-1l0-0.7L78.4,336.6z"/>
			<path class="st22" d="M91.1,275.6c-0.7,15.9-11.2,29.7-16.4,46.8c-0.2,0.7-0.4,1.4-0.6,2c-3.8-12.8-6-28-0.1-38.6
				c4.4-7.8,10.6-12.2,17-14.7C91.1,272.9,91.2,274.4,91.1,275.6z"/>
			<path class="st22" d="M100.7,373.9l7.6-15.6l3,17.5c0,0,6.6-6.9,2-23.7c-4.6-16.9,15.1-75.5,15.1-75.5s0.3,2.2,9.9,14.7
				c5.2,6.8,8.7,28.4,10.8,47.1c-0.8-0.9-14.2-15-26.6-8.1c0,0-8.2,37.4-5.6,52.8L84,385.5c0,0,0,0,0,0.1c-3-4,1-9.9,0-11.2
				c-1.6-2.2-0.2-6.7-0.2-6.7s-1.2-2.5-2.8-7.2c-0.8-2.3-0.1-5.2,0.8-7.6C85.5,366.4,100.7,373.9,100.7,373.9z"/>
			<path class="st22" d="M148.9,338.5c1.7,15.6,2.5,29,2.3,29.8c-0.3,1.8,8.2,2.2,8.8,2.2c-1.7,2.6-2.9,4.3-1.9,5.3
				c1.5,1.5,1,4.4,0,7.2c-5.7-4.7-13.8-11.6-13.8-11.6L148.9,338.5z"/>
			<path class="st22" d="M78.7,353.3c0,0-8.5-12.7-4.5-28.9c0.2-0.7,0.3-1.4,0.6-2c5.3-17.2,15.8-30.9,16.4-46.8
				c0.1-1.2,0-2.7-0.1-4.4c-1.4-20.5-12.2-72.6,29.3-75.8c0,0,26.3-5.9,30.2,13.7c3.9,19.7,0.3,46.2,4.6,49.9c2.3,2,1.6,7.1,1,12.8
				c-0.5,5.1-1,10.7,0.7,15c0.8,1.9,2.1,4.7,3.8,8.2c6.3,12.9,16.9,34,16.9,44.6c0,13.4-17.4,30.9-17.4,30.9s0,0,0,0
				c-0.7,0-9.1-0.4-8.8-2.2c0.1-0.9-0.6-14.3-2.3-29.8l0-0.1c0,0,0,0,0,0c-2.1-18.6-5.6-40.3-10.8-47.1c-9.5-12.5-9.9-14.7-9.9-14.7
				s-19.7,58.7-15.1,75.5c4.6,16.9-2,23.7-2,23.7l-3-17.5l-7.6,15.6c0,0-15.1-7.6-18.9-21c1-2.4-1.9-8-3.3-16.3l-0.4-1.7l0,0.7
				L78.7,353.3z"/>
			<path class="st22" d="M148.9,338.5c0-0.1,0-0.1,0-0.2c0,0,0,0,0,0L148.9,338.5z"/>
			<path class="st22" d="M84,385.6C84,385.5,84,385.5,84,385.6l32.7-2.6c0.5,2.9,1.3,5,2.7,5.9c0.2,0.1,0.4,0.3,0.6,0.4
				c8.2,5.7,26.5,19,41.8,19.2c0.2,24.7-2.7,104-2.7,104c-39.7,12.5-85.6-3.6-85.6-3.6s2.1-47.3-1.8-68.8
				C67.9,418.8,82.8,387.4,84,385.6z"/>
			<path class="st22" d="M122.3,330.2c12.4-7,25.7,7.2,26.6,8.1c0,0.1,0,0.1,0,0.2l-4.6,32.9c0,0,8.1,6.9,13.8,11.6
				c2.2,1.8,4,3.3,4.9,4c3.3,2.5,18.7,14.4,21,20.6c2.3,6.2-14.1,12.8-18.1,11.9c-3.9-0.9-0.3-11.2-0.3-11.2
				c-1.3,0.2-2.6,0.3-3.9,0.3c-15.4-0.2-33.6-13.5-41.8-19.2c-0.2-0.1-0.4-0.3-0.6-0.4c-1.3-0.9-2.2-3-2.7-5.9
				C114.2,367.7,122.3,330.2,122.3,330.2z"/>
		</g>
	</g>
</g>
</svg>
