<svg id="Layer_1" data-name="Layer 1" xmlns="http://www.w3.org/2000/svg" viewBox="0 0 173.259 289.401"><title>DITAP3</title><path d="M82.96,254.649a3.7,3.7,0,0,1-1.55.089,20.507,20.507,0,0,1-5.7-1.938,31.926,31.926,0,0,1-4.593-2.232,2.809,2.809,0,0,1-.96-1.1l-3.509-1.228c1.48,6.661,4.45,15.84,5.931,22.5l9.527,1.289A56.743,56.743,0,0,1,82.96,254.649Z" fill="#f0d5d1"/><path d="M39.573,258.238a3.716,3.716,0,0,0,1.55.09,20.546,20.546,0,0,0,5.7-1.938,32.088,32.088,0,0,0,4.593-2.233,2.811,2.811,0,0,0,.96-1.1l3.509-1.228c-1.48,6.661-4.451,15.84-5.931,22.5l-9.528,1.289A56.681,56.681,0,0,0,39.573,258.238Z" fill="#f0d5d1"/><path d="M148.261,45.948l-.388.082a6.384,6.384,0,0,0,.469-.8,2.769,2.769,0,0,0,.183-2.76,1.991,1.991,0,0,0-1.744-.725,4.875,4.875,0,0,0-1.862.6,19.077,19.077,0,0,0-6.39,5.227,6.5,6.5,0,0,0-1.184,2.5c-.054.211-.113.427-.18.641a2.878,2.878,0,0,1,.239.23,2.978,2.978,0,0,1,1.751,1.27c.012.019.022.039.034.059a5.284,5.284,0,0,1,1.02.959,14.6,14.6,0,0,1,2.041,3.677l.052-.028,0-.079a5.863,5.863,0,0,0,3.1,1.884,4.873,4.873,0,0,0,4.535-1.309,6.053,6.053,0,0,0,1.454-3.843A9.045,9.045,0,0,0,148.261,45.948Z" fill="#f0d5d1"/><path d="M68.008,47.108v1.05a8,8,0,0,1-3.74,5.16,8.367,8.367,0,0,1-4.12,1.14.8.8,0,0,1-.15-.03,3.355,3.355,0,0,1-2.37-1.72l-.11-1.52c0-1.09.08-2.77.2-4.71q-1.14-.03-2.25,0a1.927,1.927,0,0,1,.01-.24c.31-5.23.9-12.43.9-15.37l2.2,2,9.19,8.4c.08,1.14.15,4.39.23,5.69C68,47.018,68.008,47.068,68.008,47.108Z" fill="#f0d5d1"/><path d="M58.819,21.879c-1.2-.768-2.84,3.081-3.69,4.223a2.949,2.949,0,0,0,.428,3.857c1.08.928,2.589,1.618,3.59.606A8.943,8.943,0,0,0,72.3,39.8c3.083-1.7,4.917-5.112,5.553-8.574.669-3.639.356-5.81-.025-9.15Z" fill="#f0d5d1"/><path d="M61.287,11.108a10.943,10.943,0,0,0-9.723-8.452,12,12,0,0,0-9.912,4.612,15.265,15.265,0,0,0-3.034,10.677c.186,2.263,1.023,4.749,3.072,5.727a5.452,5.452,0,0,0,5.146-.608,16.1,16.1,0,0,0,3.784-3.83Z" fill="#e0635d"/><path d="M50.137,23.844A16.393,16.393,0,0,1,77.77,15.415c.957.951,1.845,2.359,1.247,3.569l-.293.618a1.952,1.952,0,0,1,1.248,2,2.9,2.9,0,0,1-1.3,2.088,5.889,5.889,0,0,1-2.367.871c-3.862.677-6.91,1.191-9.693-1.572l-.522.61a6.6,6.6,0,0,1-3.44,3.914,3.038,3.038,0,0,1-1.292.328,2.328,2.328,0,0,0-1.786-1.313,2.226,2.226,0,0,0-2.356,1.405,2.547,2.547,0,0,0-.162.588,2.14,2.14,0,0,0-.127.3,2.1,2.1,0,0,0,1.522,2.347l-.048,2.74c-2.323.744-6.107-.887-7.373-2.971A9.967,9.967,0,0,1,50.137,23.844Z" fill="#e0635d"/><path d="M149.493,42.273l.162-1.691L171.068,10.17a2.3,2.3,0,0,1,1.657,1.449L150.839,43.733A6.43,6.43,0,0,0,149.493,42.273Z" fill="#235485"/><path d="M48.234,49.166C33.007,53.875,23.39,69.921,20.64,84.854c-2.425,13.167-.362,26.84,3.788,39.569a9.526,9.526,0,0,0,2.439,4.437c2.434,2.1,6.4,1.271,8.774-.9-3.078-9.827-4.431-20.3-2.925-30.492s6-20.068,13.413-27.216a59.065,59.065,0,0,1,.024,34.7,4,4,0,0,0-.25,2.318,3.59,3.59,0,0,0,1.089,1.478,25.531,25.531,0,0,0,37.639-3.1,3.289,3.289,0,0,0,.768-1.513,3.579,3.579,0,0,0-.353-1.709,103.544,103.544,0,0,1-6.788-40.658l.1,6.858c18.426,8.149,40.48,4.018,57.888-6.126a8.145,8.145,0,0,0,3.182-2.733c1.745-3.056-2.223-7.075-5.308-6.692-1.954.242-3.645,1.412-5.352,2.394A31.951,31.951,0,0,1,102.944,58c-5.173-1.753-9.8-4.815-14.815-6.974s-10.853-3.374-15.9-1.27l1.375,3.29c-3.72,3.234-7.769,6.512-12.638,7.284a6.66,6.66,0,0,1-5.34-1.055,5.82,5.82,0,0,1-1.572-5.655,16.086,16.086,0,0,1,2.733-5.487,19.865,19.865,0,0,0-7.335.68Q48.842,48.978,48.234,49.166Zm-4.384,14.7a52.653,52.653,0,0,1,2.35,6.336Z" fill="#f5c65d"/><path d="M60.827,25.75A2.845,2.845,0,0,0,57.436,30.3c1.08.928,2.59,1.618,3.591.606a8.943,8.943,0,0,0,13.148,9.236c3.083-1.7,4.916-5.112,5.553-8.574.669-3.639.355-5.81-.025-9.15" fill="none" stroke="#54575c" stroke-linecap="round" stroke-linejoin="round" stroke-width="0.75"/><path d="M79.458,18.427a1.952,1.952,0,0,1,1.248,2,2.9,2.9,0,0,1-1.3,2.088,5.889,5.889,0,0,1-2.367.871,12.527,12.527,0,0,1-10.8-3.391" fill="none" stroke="#54575c" stroke-linecap="round" stroke-linejoin="round" stroke-width="0.75"/><path d="M66.823,22.421a6.6,6.6,0,0,1-3.439,3.914,2.743,2.743,0,0,1-1.557.317,1.3,1.3,0,0,1-1.115-1.009" fill="none" stroke="#54575c" stroke-linecap="round" stroke-linejoin="round" stroke-width="0.75"/><path d="M70.008,41.508c.08,1.14.15,4.39.23,5.69,0,.06.01.11.01.15V48.4a7.965,7.965,0,0,1-3.74,5.16,8.6,8.6,0,0,1-6.36.9.8.8,0,0,1-.15-.03,3.355,3.355,0,0,1-2.37-1.72l-.11-1.52c0-1.09.08-2.77.2-4.71.26-4.38.71-10.13.86-13.61.02-.68.04-1.28.04-1.76" fill="none" stroke="#54575c" stroke-linecap="round" stroke-linejoin="round" stroke-width="0.75"/><path d="M70.9,47.24c5-2.409,11.251-1.381,16.422.724s9.808,5.2,15.1,7.038c10.5,3.649,23.182,1.7,31.715-4.871" fill="none" stroke="#54575c" stroke-linecap="round" stroke-linejoin="round" stroke-width="0.75"/><path d="M141.43,56.411a6.946,6.946,0,0,0-6.968-6.478" fill="none" stroke="#54575c" stroke-linecap="round" stroke-linejoin="round" stroke-width="0.75"/><path d="M23.458,124.808a97.2,97.2,0,0,1-5.78-23.33c-2.52-22.34,10.45-54.11,37.79-55q1.11-.03,2.25,0" fill="none" stroke="#54575c" stroke-linecap="round" stroke-linejoin="round" stroke-width="0.75"/><path d="M141.27,56.638C126.781,69.21,95.311,74.8,77.921,65.741" fill="none" stroke="#54575c" stroke-linecap="round" stroke-linejoin="round" stroke-width="0.75"/><path d="M57.52,47.646a8.409,8.409,0,0,0-2.16,2.595c-1.08,1.819-1.895,4.073-1.677,5.38a5.79,5.79,0,0,0,4.1,4.556,9.57,9.57,0,0,0,5.389-.474c3.808-1.221,7.379-4.129,10.42-6.744a12.81,12.81,0,0,0-1.478-3.286,23.621,23.621,0,0,0-1.553-2.226" fill="none" stroke="#54575c" stroke-linecap="round" stroke-linejoin="round" stroke-width="0.75"/><path d="M77.742,59a101.365,101.365,0,0,0,7.825,42.724c-4.727,6.037-13.4,10.913-21.064,11.194a26.834,26.834,0,0,1-20.541-8.639,58.123,58.123,0,0,0-1.669-43.2" fill="none" stroke="#54575c" stroke-linecap="round" stroke-linejoin="round" stroke-width="0.75"/><path d="M65.809,58.591c4.175,3.4,8.656,7.946,13.065,11.039,1.776,1.247,3.569,2.466,5.431,3.58.935.559,1.883,1.1,2.846,1.605.341.179,2.586,1.006,2.647,1.293a6.221,6.221,0,0,1-1.24,5.144c-.967,1.189-3.337,3.238-5.04,2.507a3.225,3.225,0,0,1-.769-.525c-7.484-6.3-14.638-14.743-18.933-23.535l-.06-.2c-.769,9.755-4.326,20.234-8.977,28.84a3.164,3.164,0,0,1-.523.772c-1.315,1.3-4.272.267-5.607-.483A6.224,6.224,0,0,1,45.607,84.3c-.048-.29,1.737-1.882,1.988-2.174q1.065-1.239,2.058-2.537c1.325-1.72,2.545-3.511,3.74-5.323,2.966-4.5,5.072-9.338,7.709-14.029Z" fill="#fff"/><path d="M63.546,58.935c4.315,3.51,8.946,8.211,13.5,11.409,1.836,1.288,3.688,2.548,5.613,3.7.966.578,1.945,1.134,2.941,1.658.353.186,2.672,1.04,2.735,1.337a6.43,6.43,0,0,1-1.281,5.316c-1,1.228-3.449,3.346-5.208,2.591a3.3,3.3,0,0,1-.8-.543c-7.735-6.51-15.128-15.236-19.566-24.322l-.062-.2c-.795,10.081-4.471,20.911-9.278,29.805a3.273,3.273,0,0,1-.54.8c-1.359,1.349-4.415.277-5.8-.5A6.428,6.428,0,0,1,42.669,85.5c-.05-.3,1.794-1.945,2.054-2.247.734-.853,1.441-1.73,2.127-2.622,1.369-1.777,2.63-3.629,3.865-5.5,3.065-4.646,5.241-9.65,7.967-14.5Z" fill="#235485"/><path d="M63.756,59.5c-.769,9.755-4.326,20.234-8.977,28.84a3.164,3.164,0,0,1-.523.772c-1.315,1.3-4.272.267-5.607-.483A6.224,6.224,0,0,1,45.607,84.3c-.048-.29,1.737-1.882,1.988-2.174q1.065-1.239,2.058-2.537c1.325-1.72,2.545-3.511,3.74-5.323,2.966-4.5,5.072-9.338,7.709-14.029" fill="none" stroke="#54575c" stroke-linecap="round" stroke-linejoin="round" stroke-width="0.75"/><path d="M63.816,59.7c4.3,8.792,11.449,17.235,18.933,23.535a3.225,3.225,0,0,0,.769.525c1.7.731,4.073-1.318,5.04-2.507a6.221,6.221,0,0,0,1.24-5.144c-.061-.287-2.306-1.114-2.647-1.293-.963-.508-1.911-1.046-2.846-1.605-1.862-1.114-3.655-2.333-5.431-3.58-4.409-3.093-8.89-7.643-13.065-11.039" fill="none" stroke="#54575c" stroke-linecap="round" stroke-linejoin="round" stroke-width="0.75"/><path d="M63.6,59.551l.343-4.876" fill="none" stroke="#54575c" stroke-linecap="round" stroke-linejoin="round" stroke-width="0.75"/><path d="M68.008,76.568a6,6,0,0,1-2.6,3.485" fill="none" stroke="#54575c" stroke-linecap="round" stroke-linejoin="round" stroke-width="0.75"/><path d="M63.868,66.035A26.882,26.882,0,0,0,66.2,70.828" fill="none" stroke="#54575c" stroke-linecap="round" stroke-linejoin="round" stroke-width="0.75"/><path d="M65.349,101.541q.355,3.519,1.029,7" fill="none" stroke="#54575c" stroke-linecap="round" stroke-linejoin="round" stroke-width="0.75"/><path d="M65.2,88.053q-.248,3.207-.227,6.426" fill="none" stroke="#54575c" stroke-linecap="round" stroke-linejoin="round" stroke-width="0.75"/><ellipse cx="67.624" cy="73.621" rx="1.491" ry="2.238" transform="translate(-10.389 11.115) rotate(-8.728)" fill="#54575c"/><ellipse cx="65.409" cy="84.285" rx="2.238" ry="1.491" transform="matrix(0.256, -0.967, 0.967, 0.256, -32.828, 125.901)" fill="#54575c"/><ellipse cx="65.111" cy="97.979" rx="1.491" ry="2.238" transform="matrix(0.999, -0.046, 0.046, 0.999, -4.463, 3.117)" fill="#54575c"/><polyline points="23.169 287.603 168.971 284.963 136.539 271.771 21.718 286.915" fill="#f4f4f5"/><path d="M49.341,109.326c-8.654,38.762-19.662,91.328-31.186,142.945" fill="none" stroke="#54575c" stroke-linecap="round" stroke-linejoin="round" stroke-width="0.75"/><path d="M33.576,131.384l9.882-.629c.98,8.324,3.435,15.945,3.337,24.326-7.169,1.588-16.246,2.384-23.115-.214,1.189-5.383,2.051-13.819,3.24-19.2" fill="#fff"/><path d="M20.623,128.589l-7.176-3.213C9.617,132.832,4.65,139.112,1.81,147c6.161,4,14.386,7.917,21.73,7.886.769-5.459,2.676-13.706,3.444-19.165" fill="#fff"/><path d="M24.052,153.55c.636-3.036,1-6.115,1.409-9.187.176-1.313.142-2.763.438-4.045.272-1.178.995-2.062,1.309-3.226a1.99,1.99,0,0,0,.037-.923,7.781,7.781,0,0,0,.926.077l.1.293a3.229,3.229,0,0,0,1,1.45c1.086.879,2.974.716,3.333-.88.03-.132.072-.252.109-.376a1.9,1.9,0,0,0,.2-.451c.031-.114.041-.233.061-.35a4.835,4.835,0,0,0,.32-1.42,1.912,1.912,0,0,0-.171-.9l8.527-.543c.98,8.325,3.435,15.946,3.337,24.327-7.17,1.588-17.12,2.092-23.989-.506.136-.612.289-1.32.454-2.1A1.789,1.789,0,0,0,24.052,153.55Z" fill="#61a575"/><path d="M34.25,128.554a18.415,18.415,0,0,1,1.676,8.41c-.1,1.462-.67,3.2-2.1,3.5a2.591,2.591,0,0,1-2.258-.79A7.643,7.643,0,0,1,30.2,137.6c-2.278-.038-4.723-.384-6.167-2.146a5,5,0,0,1-.879-4.074c.269-1.409,2.463-3.036,3.306-4.2L31.536,127Z" fill="#f0d5d1"/><path d="M11.637,127.7l7.176,3.213,2.038.786a5.973,5.973,0,0,0,4.6,4.151l.079.018c-1.017,6.137-3.126,16.528-3.8,21.34-7.344.03-15.569-3.89-21.73-7.886C2.84,141.431,7.807,135.15,11.637,127.7Z" fill="#61a575"/><path d="M18.155,252.271c12.6,6.837,28.869,5.687,40.918-2.863" fill="none" stroke="#54575c" stroke-linecap="round" stroke-linejoin="round" stroke-width="0.75"/><path d="M69.771,117.009c-1.3,38.283-1.469,82.784-10.7,132.4" fill="none" stroke="#54575c" stroke-linecap="round" stroke-linejoin="round" stroke-width="0.75"/><path d="M79.866,108.908c8.356,39.638,14.7,85.788,18.487,139.664C94.027,252.758,86.6,254.6,80.6,254.066s-16.346-6.933-20.25-11.833" fill="none" stroke="#54575c" stroke-linecap="round" stroke-linejoin="round" stroke-width="0.75"/><path d="M51.9,253.626l-4.441,19.983" fill="none" stroke="#54575c" stroke-linecap="round" stroke-linejoin="round" stroke-width="0.75"/><path d="M37.928,274.9a56.726,56.726,0,0,0-.984-18.033" fill="none" stroke="#54575c" stroke-linecap="round" stroke-linejoin="round" stroke-width="0.75"/><path d="M71.039,251.011l4.441,19.983" fill="none" stroke="#54575c" stroke-linecap="round" stroke-linejoin="round" stroke-width="0.75"/><path d="M85.007,272.283a56.726,56.726,0,0,1,.984-18.033" fill="none" stroke="#54575c" stroke-linecap="round" stroke-linejoin="round" stroke-width="0.75"/><path d="M47.313,273.656c1.8,1.077,2.887,4.665,2.1,6.616a7.535,7.535,0,0,1-4.607,4.022,22.338,22.338,0,0,1-6.21.956l-24.05,1.406a5.492,5.492,0,0,1,2.075-4.788,16.221,16.221,0,0,1,4.789-2.542l16.758-6.608" fill="#fff"/><path d="M12.311,281.825a17.113,17.113,0,0,1,5.1-2.66l.18-.069c7.557,4.662,19.945,2.18,26.646-2.837a9.348,9.348,0,0,0,1.591-1.514,6.1,6.1,0,0,1,1.237,5.7,7.994,7.994,0,0,1-4.917,4.239,23.566,23.566,0,0,1-6.587.957c-8.5.421-17.742,1.622-26.238,2.043C9.04,285.769,10.845,283.077,12.311,281.825Z" fill="#e0635d"/><path d="M47.313,273.656c1.8,1.077,2.887,4.665,2.1,6.616a7.535,7.535,0,0,1-4.607,4.022,22.338,22.338,0,0,1-6.21.956l-24.05,1.406a5.492,5.492,0,0,1,2.075-4.788,16.221,16.221,0,0,1,4.789-2.542l16.758-6.608" fill="none" stroke="#54575c" stroke-linecap="round" stroke-linejoin="round" stroke-width="0.75"/><path d="M75.728,270.943c-1.92.853-3.422,4.287-2.879,6.317a7.537,7.537,0,0,0,4.095,4.544A22.359,22.359,0,0,0,83,283.493l23.711,4.265a5.49,5.49,0,0,0-1.49-5,16.186,16.186,0,0,0-4.451-3.1l-15.85-8.56" fill="#fff"/><path d="M78.118,271.47l.384-.056c.074.114.368.12.635.118,3.549,8.356,15.54,12.154,24.05,10.217a6.488,6.488,0,0,0,2.619-1.206,14.184,14.184,0,0,1,3.7,2.686c1.307,1.417,2.777,4.305,2.272,6.172-8.385-1.432-17.422-3.727-25.807-5.159a23.539,23.539,0,0,1-6.426-1.735,7.994,7.994,0,0,1-4.376-4.8A6.033,6.033,0,0,1,78.118,271.47Z" fill="#e0635d"/><path d="M75.728,270.943c-1.92.853-3.422,4.287-2.879,6.317a7.537,7.537,0,0,0,4.095,4.544A22.359,22.359,0,0,0,83,283.493l23.711,4.265a5.49,5.49,0,0,0-1.49-5,16.186,16.186,0,0,0-4.451-3.1l-15.85-8.56" fill="none" stroke="#54575c" stroke-linecap="round" stroke-linejoin="round" stroke-width="0.75"/><path d="M146.207,43.029a1.593,1.593,0,0,0,2.027.285,3.787,3.787,0,0,0,1.4-1.708,2.771,2.771,0,0,0,.182-2.76,1.987,1.987,0,0,0-1.744-.725,4.858,4.858,0,0,0-1.862.6,19.071,19.071,0,0,0-6.389,5.227,6.5,6.5,0,0,0-1.184,2.5,3.638,3.638,0,0,1-1.372,2.416" fill="none" stroke="#54575c" stroke-linecap="round" stroke-linejoin="round" stroke-width="0.75"/><path d="M149.551,42.326a9.038,9.038,0,0,1,3.129,7.585,6.057,6.057,0,0,1-1.453,3.844,4.88,4.88,0,0,1-4.536,1.309,6.064,6.064,0,0,1-3.826-2.9,5.145,5.145,0,0,1-.745-3.191,3.451,3.451,0,0,1,1.78-2.663" fill="none" stroke="#54575c" stroke-linecap="round" stroke-linejoin="round" stroke-width="0.75"/><path d="M143.591,53.258l-1.867,1.016" fill="none" stroke="#54575c" stroke-linecap="round" stroke-linejoin="round" stroke-width="0.75"/><path d="M150.308,43.008,172.884,9.882a2.306,2.306,0,0,0-1.658-1.449L149.814,38.846" fill="none" stroke="#54575c" stroke-linecap="round" stroke-linejoin="round" stroke-width="0.75"/><path d="M31.9,127.269a16.019,16.019,0,0,1,1.465,7.858c-.1,1.462-.67,3.2-2.1,3.5a2.59,2.59,0,0,1-2.258-.79,7.643,7.643,0,0,1-1.36-2.074c-2.278-.038-4.724-.384-6.168-2.146a4.994,4.994,0,0,1-.878-4.074c.269-1.409,2.27-2.693,3.114-3.854" fill="none" stroke="#54575c" stroke-linecap="round" stroke-linejoin="round" stroke-width="0.75"/><path d="M33.576,131.384l9.882-.629c.98,8.324,3.435,15.945,3.337,24.326-7.169,1.588-16.246,2.384-23.115-.214,1.189-5.383,2.051-13.819,3.24-19.2" fill="none" stroke="#54575c" stroke-linecap="round" stroke-linejoin="round" stroke-width="0.75"/><path d="M20.623,128.589l-7.176-3.213C9.617,132.832,4.65,139.112,1.81,147c6.161,4,14.386,7.917,21.73,7.886.769-5.459,2.676-13.706,3.444-19.165" fill="none" stroke="#54575c" stroke-linecap="round" stroke-linejoin="round" stroke-width="0.75"/><path d="M74.558,29.416a2.959,2.959,0,0,1,1.194,2.729,1.652,1.652,0,0,1-.545,1.107,1.545,1.545,0,0,1-1.088.278,4.54,4.54,0,0,1-1.11-.289" fill="none" stroke="#54575c" stroke-linecap="round" stroke-linejoin="round" stroke-width="0.75"/><path d="M70.9,27.416a3.163,3.163,0,0,1,.126,1.239,1.259,1.259,0,0,1-.683.987,1.3,1.3,0,0,1-1.494-.566,3.791,3.791,0,0,1-.5-1.641" fill="none" stroke="#54575c" stroke-linecap="round" stroke-linejoin="round" stroke-width="0.75"/><path d="M78.781,27.542a3.984,3.984,0,0,1,.177,1.137,1.342,1.342,0,0,1-.466,1.018.99.99,0,0,1-1.584-.918" fill="none" stroke="#54575c" stroke-linecap="round" stroke-linejoin="round" stroke-width="0.75"/><path d="M69.9,25.147a2.91,2.91,0,0,0-2.41,1.276" fill="none" stroke="#54575c" stroke-linecap="round" stroke-linejoin="round" stroke-width="0.75"/><path d="M78.807,25.953a2.533,2.533,0,0,0-2.442.212" fill="none" stroke="#54575c" stroke-linecap="round" stroke-linejoin="round" stroke-width="0.75"/><path d="M72.766,37.306a4.55,4.55,0,0,0,2.341-.6,4.266,4.266,0,0,1-.455.978,2.826,2.826,0,0,1-1.117,1.08,3.1,3.1,0,0,1-3.211-.369,2.6,2.6,0,0,1-.644-.8,4.149,4.149,0,0,1-.45-1.968A4.225,4.225,0,0,0,72.766,37.306Z" fill="#e0635d"/><path d="M76.107,34.791a4.782,4.782,0,0,1-7.366-.811" fill="none" stroke="#54575c" stroke-linecap="round" stroke-linejoin="round" stroke-width="0.75"/><path d="M69.3,34.988a4.078,4.078,0,0,0,.379,2.605,2.6,2.6,0,0,0,.644.8,3.1,3.1,0,0,0,3.211.369,2.826,2.826,0,0,0,1.117-1.08,4.117,4.117,0,0,0,.645-2.046" fill="none" stroke="#54575c" stroke-linecap="round" stroke-linejoin="round" stroke-width="0.75"/><path d="M77.221,18.112a2.472,2.472,0,0,1-1.576,2.467,4.046,4.046,0,0,1-3.064-.144,12,12,0,0,1-2.641-1.7" fill="none" stroke="#54575c" stroke-linecap="round" stroke-linejoin="round" stroke-width="0.75"/><path d="M79.75,17.809c.6-1.21-.289-2.618-1.246-3.569a16.393,16.393,0,0,0-27.633,8.429,9.962,9.962,0,0,0,.891,7.091c1.266,2.084,3.9,3.437,6.225,2.693" fill="none" stroke="#54575c" stroke-linecap="round" stroke-linejoin="round" stroke-width="0.75"/><path d="M62.031,9.974A10.942,10.942,0,0,0,53.272.527a12,12,0,0,0-10.349,3.52,15.265,15.265,0,0,0-4.164,10.289c-.058,2.27.507,4.832,2.439,6.025a5.451,5.451,0,0,0,5.181-.052,16.092,16.092,0,0,0,4.174-3.4" fill="none" stroke="#54575c" stroke-linecap="round" stroke-linejoin="round" stroke-width="0.75"/><path d="M59.205,9.179a12.628,12.628,0,0,0-6.953,6.146" fill="none" stroke="#54575c" stroke-linecap="round" stroke-linejoin="round" stroke-width="0.75"/><path d="M51.707,12.162a3.734,3.734,0,0,0-1.345,3.184" fill="none" stroke="#54575c" stroke-linecap="round" stroke-linejoin="round" stroke-width="0.75"/><path d="M46.819,17.008A3.178,3.178,0,0,1,43.8,18.38a3.835,3.835,0,0,1-2.787-1.9,4.864,4.864,0,0,1-.5-3.381" fill="none" stroke="#54575c" stroke-linecap="round" stroke-linejoin="round" stroke-width="0.75"/><path d="M57.04,131.341a23.908,23.908,0,0,0-12.384-9.255" fill="none" stroke="#54575c" stroke-linecap="round" stroke-linejoin="round" stroke-width="0.75"/><path d="M53,132.332l-7.9-6.413" fill="none" stroke="#54575c" stroke-linecap="round" stroke-linejoin="round" stroke-width="0.75"/><path d="M84.513,127.338l-8.348,8.081" fill="none" stroke="#54575c" stroke-linecap="round" stroke-linejoin="round" stroke-width="0.75"/><path d="M83.5,131.856l-3.741,4.325" fill="none" stroke="#54575c" stroke-linecap="round" stroke-linejoin="round" stroke-width="0.75"/><path d="M57.491,246.75a44.347,44.347,0,0,1-37.83,3.01" fill="none" stroke="#54575c" stroke-linecap="round" stroke-linejoin="round" stroke-width="0.75"/><path d="M96.778,246.682a24.923,24.923,0,0,1-32.836-5.119" fill="none" stroke="#54575c" stroke-linecap="round" stroke-linejoin="round" stroke-width="0.75"/><path d="M47.893,172.9,35.8,229.036" fill="none" stroke="#54575c" stroke-linecap="round" stroke-linejoin="round" stroke-width="0.75"/><path d="M94.665,241.858l-3.707-43.784" fill="none" stroke="#54575c" stroke-linecap="round" stroke-linejoin="round" stroke-width="0.75"/><path d="M110.289,58.04a32.7,32.7,0,0,1-4.746,9.535" fill="none" stroke="#54575c" stroke-linecap="round" stroke-linejoin="round" stroke-width="0.75"/><path d="M29.509,94.082a19.951,19.951,0,0,0-7.791,2.741" fill="none" stroke="#54575c" stroke-linecap="round" stroke-linejoin="round" stroke-width="0.75"/><path d="M138.823,58.613a7.765,7.765,0,0,0-6.062-7.146" fill="none" stroke="#54575c" stroke-linecap="round" stroke-linejoin="round" stroke-width="0.75"/><path d="M32.613,123.057a7.271,7.271,0,0,1-10.653-2.822" fill="none" stroke="#54575c" stroke-linecap="round" stroke-linejoin="round" stroke-width="0.75"/><path d="M19.906,145.265l-.864,4.676a21.558,21.558,0,0,1-12.606-5.083l3.1-3.151a18.715,18.715,0,0,0,10.115,3.507" fill="none" stroke="#54575c" stroke-linecap="round" stroke-linejoin="round" stroke-width="0.75"/><path d="M69.733,118.13s4.435,108.807-6.7,126.862L59.9,242.1" fill="#54575c"/><path d="M51.339,253.818s-4.61,10.051-13.49,8.441c0,0,.256-5.623-1.964-5.88C35.885,256.379,39.983,257.831,51.339,253.818Z" fill="#54575c"/><path d="M71.039,251.011s5.3,10.742,14.183,9.132c0,0-.572-5.96,1.648-6.216C86.87,253.927,82.4,255.024,71.039,251.011Z" fill="#54575c"/><path d="M59.469,27.369a3.618,3.618,0,0,0-.685.591,1.485,1.485,0,0,0-.367.813.94.94,0,0,0,.318.81,1.57,1.57,0,0,0,.854.252" fill="none" stroke="#54575c" stroke-miterlimit="10" stroke-width="0.75"/><path d="M44.755,67.509c-15.267,12.544-17.89,40.023-10.792,57.627a8.3,8.3,0,0,1-5.583,2.215,7.1,7.1,0,0,1-4.922-2.545" fill="none" stroke="#54575c" stroke-linecap="round" stroke-linejoin="round" stroke-width="0.75"/></svg>