<svg id="Layer_1" data-name="Layer 1" xmlns="http://www.w3.org/2000/svg" viewBox="0 0 173.259 289.401"><title>DITAP2</title><polyline points="5.645 287.732 161.504 272.518 125.665 261.151 4.034 287.119" fill="#dceffa"/><path d="M90.454,190.109a13.669,13.669,0,0,1-3.421,8.052,52.182,52.182,0,0,0,9.95,11.513,10.1,10.1,0,0,0,4.067,2.366,4.206,4.206,0,0,0,4.3-1.32c1.27-1.648.9-4.063.371-6.1a64.441,64.441,0,0,0-8.369-18.953l3.6.455s-.327-5.167-2.764-7.688l-12.363-1.146-.141,1.026A14.5,14.5,0,0,1,90.454,190.109Z" fill="#235485"/><path d="M26.841,266.665a16.281,16.281,0,0,1-10.306-3.628A67.2,67.2,0,0,0,3.323,277.413a13.75,13.75,0,0,0-2.507,5.62,5.741,5.741,0,0,0,2.072,5.519c2.169,1.493,5.116.745,7.581-.179a78.528,78.528,0,0,0,22.572-13.107l-.191,4.8s6.354-1,9.22-4.486l.148-16.423-1.283-.074A17.645,17.645,0,0,1,26.841,266.665Z" fill="#235485"/><polygon points="77.695 85.2 58.928 58.543 11.98 58.543 27.854 85.2 77.695 85.2" fill="#e0635d"/><path d="M37.084,82.145a5.324,5.324,0,0,0,1.979,5.175,8,8,0,0,0,5.675,1.764c8.045-.549,11.28-5.075,14.478-7.377Z" fill="#bb9c87"/><path d="M71.123,82.8c.218.9,3.276-.573,3.953.055.249.231.655-.31.979-.21a1.131,1.131,0,0,0,.976-.115.763.763,0,0,0,.283-.895l-.084-2.126a2.545,2.545,0,0,0,.524,2.379,2.734,2.734,0,0,0,2.923.273,4.177,4.177,0,0,0-.688-3.361,4.674,4.674,0,0,0-3.062-1.834,9.7,9.7,0,0,0-4.161.6l-3.219.96Z" fill="#bb9c87"/><path d="M108.505,71.26c-.662,9.5-8.941,15.766-17.821,17.19-5,.8-10.081.244-15.106-.152a27.654,27.654,0,0,0-3.662-.255c-.976.051-1.993.478-2.98.6a16.707,16.707,0,0,1-6.276-.406,13.952,13.952,0,0,1-8.514-6.246l34.513-1.933a7.53,7.53,0,0,0,4.618-6.632c.011-.152.021-.3.021-.457a10.66,10.66,0,0,0,9.2-.122c2.787-1.374,5.913-3.653,6.473-6.7C109.454,68.116,108.647,69.236,108.505,71.26Z" fill="#bb9c87"/><path d="M72.387,26.713c.926,4.28,5.25,10.281,8.75,13.1a9.737,9.737,0,0,1-5.044,7.308,8.914,8.914,0,0,1-8.47-.292,6.371,6.371,0,0,1-2.956-5.047l-.059-5.756Z" fill="#bb9c87"/><path d="M53.249,13.819c-.045,5.1-.058,8.306-.1,13.4-.018,2.106-.009,4.325,1.036,6.154a7.362,7.362,0,0,0,6.852,3.351,12.114,12.114,0,0,0,7.144-3.35,36.045,36.045,0,0,0,5.077-6.21c1.466-.133,3.308-.918,3.935-2.248a4.325,4.325,0,0,0-.333-4.2c-.688-1.008-2.128-1.692-3.138-1.005L68.3,8.742Z" fill="#bb9c87"/><path d="M85.437,20.174c-.332-.526-1.988-2.36-2.766-1.958a4.607,4.607,0,0,0,2.363-4.738A6.167,6.167,0,0,0,83.813,10.8c-.462-.609-2.677-2.94-3.649-2.267a1.5,1.5,0,0,0,.369-1.6,4.594,4.594,0,0,0-3.461-3.353c-1.777-.365-3.8.9-4.821,2.27l.179,13.69A4.294,4.294,0,0,1,75.064,22.3a3.888,3.888,0,0,1-.45,3.18l.009-.006-.027.046a3.848,3.848,0,0,1-1.585,1.51c-.03.016-.058.037-.088.052-.128.062-.259.114-.392.163l0,.127,1.743,5.181a17.393,17.393,0,0,0,4.8.832,3.872,3.872,0,0,0,2.656-1.036c1.925-1.966.069-3.975-.837-5.8a4.4,4.4,0,0,0,4.838-2.4A4.264,4.264,0,0,0,85.437,20.174Z" fill="#54575c"/><path d="M52.331,11.633a3.279,3.279,0,0,1-1.68-3.756,6.952,6.952,0,0,1,2.941-3.8c3.67-2.4,8.768-2.784,12.978-1.986A19.547,19.547,0,0,1,74.5,5.5c2.546,1.873,4.729,4.613,4.859,7.772s-4.633,5.694-7.775,5.348a3.056,3.056,0,0,1-5.863-.794c-.16-1.332-.2-2.775,1.046-3.264l-.538-.332A47.646,47.646,0,0,1,53.5,16.484a6.469,6.469,0,0,1-2.363-.218,2.417,2.417,0,0,1-1.627-1.606,2.476,2.476,0,0,1,1.425-2.584,7.232,7.232,0,0,1,3.1-.583" fill="#54575c"/><path d="M72.554,20.37c.544.4,1.271.506,1.773.956.686.614.8,1.727,1.558,2.248a1.925,1.925,0,0,0,2.477-.584,4.437,4.437,0,0,0,.725-2.659,5.615,5.615,0,0,0-.475-2.678,2.583,2.583,0,0,0-2.149-1.488,8.328,8.328,0,0,0-2.288.674,11.485,11.485,0,0,0-1.452.244C71.411,17.643,71.515,19.612,72.554,20.37Z" fill="#54575c"/><path d="M71.539,17.312c-.621.141-1,1.026-1.035,1.836a1.888,1.888,0,0,0,1.02,1.833" fill="none" stroke="#54575c" stroke-linecap="round" stroke-linejoin="round" stroke-width="0.75"/><path d="M37.124,197.141c-5.361-.366-10.732-4.414-13.814-8.819a12.119,12.119,0,0,1-1.515-9.358,34.475,34.475,0,0,1,3.641-9,741.8,741.8,0,0,1,37.941-64.795c.092-.122.173-.254.254-.376l-.122.427Z" fill="#61a575"/><path d="M91.309,101.455c-2.172,56.374-22.266,118.431-44.39,158.3-5.971,2.36-16.061,2.5-19.876-2.939,5.91-42.437,30.17-101.811,43.76-142.173L65.137,105.8a30.236,30.236,0,0,0,26.172-4.221v-.122Z" fill="#61a575"/><path d="M91.312,101.572c-9.793,55.893-26.977,117.719-49.094,157.585-5.972,2.362-16.063,2.51-19.879-2.934C28.25,213.79,52.5,154.416,66.1,114.046" fill="none" stroke="#54575c" stroke-linecap="round" stroke-linejoin="round" stroke-width="0.75"/><path d="M44.507,254.845a39.242,39.242,0,0,1-9.838.691,17.5,17.5,0,0,1-6.477-1.4,9.1,9.1,0,0,1-4.7-4.767" fill="none" stroke="#54575c" stroke-linecap="round" stroke-linejoin="round" stroke-width="0.75"/><path d="M51.1,15.085c-.045,5.1-.058,8.305-.1,13.4-.018,2.106-.009,4.324,1.036,6.153a7.36,7.36,0,0,0,6.852,3.351,12.1,12.1,0,0,0,7.144-3.35A36.076,36.076,0,0,0,71.1,28.433c1.465-.133,3.308-.919,3.935-2.249a4.326,4.326,0,0,0-.333-4.2c-.688-1.008-2.128-1.692-3.138-1.005" fill="none" stroke="#54575c" stroke-linecap="round" stroke-linejoin="round" stroke-width="0.75"/><path d="M62.527,37.476l.056,5.457a6.04,6.04,0,0,0,2.8,4.784,8.453,8.453,0,0,0,8.029.277c2.492-1.269,4.2-4.439,4.448-7.223" fill="none" stroke="#54575c" stroke-linecap="round" stroke-linejoin="round" stroke-width="0.75"/><circle cx="62.37" cy="22.371" r="1.353" fill="#54575c"/><circle cx="53.53" cy="21.527" r="1.353" fill="#54575c"/><path d="M64.411,20.75a2.176,2.176,0,0,0-3.231-1.2" fill="none" stroke="#54575c" stroke-linecap="round" stroke-linejoin="round" stroke-width="0.75"/><path d="M55.787,19.985a2.175,2.175,0,0,0-3.231-1.2" fill="none" stroke="#54575c" stroke-linecap="round" stroke-linejoin="round" stroke-width="0.75"/><path d="M72.752,22.744a1.329,1.329,0,1,1-.044,2.651" fill="none" stroke="#54575c" stroke-miterlimit="10" stroke-width="0.75"/><path d="M52.177,11.534C47.642,10.3,49.567,8.124,50,6.541a6.952,6.952,0,0,1,2.941-3.8C56.61.34,61.709-.047,65.918.751a19.561,19.561,0,0,1,7.93,3.409c2.546,1.874,4.729,4.614,4.859,7.772s-4.633,5.695-7.775,5.349a3.056,3.056,0,0,1-5.863-.795c-.16-1.332-.2-2.775,1.046-3.264l-.538-.332a47.647,47.647,0,0,1-12.731,2.259,6.513,6.513,0,0,1-2.363-.218,2.418,2.418,0,0,1-1.627-1.607c-.246-1.031,1.1-1.742,2.043-2.232" fill="none" stroke="#fff" stroke-linecap="round" stroke-linejoin="round" stroke-width="0.75"/><path d="M75.37,23.253a4.348,4.348,0,0,0,.794-6.7" fill="none" stroke="#fff" stroke-linecap="round" stroke-linejoin="round" stroke-width="0.75"/><path d="M72.618,3.1c1.109-1.49,3.3-2.855,5.225-2.459a4.972,4.972,0,0,1,3.75,3.633,1.622,1.622,0,0,1-.4,1.732c1.054-.73,3.454,1.8,3.955,2.456a6.693,6.693,0,0,1,1.324,2.908A4.994,4.994,0,0,1,83.911,16.5c.843-.435,2.637,1.552,3,2.122a4.619,4.619,0,0,1,.316,4.311,4.771,4.771,0,0,1-5.243,2.6c.983,1.981,2.993,4.158.907,6.289a4.2,4.2,0,0,1-2.877,1.122,23.5,23.5,0,0,1-5.7-.817" fill="none" stroke="#54575c" stroke-linecap="round" stroke-linejoin="round" stroke-width="0.75"/><path d="M73.213,28.073a49.666,49.666,0,0,0,4.649,12.7" fill="none" stroke="#54575c" stroke-linecap="round" stroke-linejoin="round" stroke-width="0.75"/><path d="M57.183,24.06A3.737,3.737,0,0,0,55.23,25.3a1.73,1.73,0,0,0,.036,2.165,1.77,1.77,0,0,0,1.242.455,5.246,5.246,0,0,0,1.334-.223" fill="none" stroke="#54575c" stroke-linecap="round" stroke-linejoin="round" stroke-width="0.75"/><path d="M55.149,32.339a8.478,8.478,0,0,0,9.285-3.349" fill="none" stroke="#54575c" stroke-linecap="round" stroke-linejoin="round" stroke-width="0.75"/><path d="M76.22,37.413c8.21,4.064,16.621,8.347,23.058,14.171s10.979,13.456,10.427,21.3c-.67,9.506-8.945,15.771-17.825,17.19-5.009.8-10.083.244-15.1-.149a28.132,28.132,0,0,0-3.669-.258c-.979.056-1.989.477-2.982.6a16.755,16.755,0,0,1-6.275-.4,13.965,13.965,0,0,1-8.51-6.248" fill="none" stroke="#54575c" stroke-linecap="round" stroke-linejoin="round" stroke-width="0.75"/><path d="M55.579,37.618c-10.053,1.056-14.122,10.21-16.2,19.319" fill="none" stroke="#54575c" stroke-linecap="round" stroke-linejoin="round" stroke-width="0.75"/><polygon points="74.611 83.615 55.845 56.959 8.897 56.959 24.77 83.615 74.611 83.615" fill="none" stroke="#54575c" stroke-linecap="round" stroke-linejoin="round" stroke-width="0.75"/><path d="M73.091,81.5H88.705a1.06,1.06,0,0,1,1.06,1.06h0a1.06,1.06,0,0,1-1.06,1.06H66.9Z" fill="#fff"/><path d="M73.936,82.277H89.55a1.06,1.06,0,0,1,1.06,1.06h0a1.059,1.059,0,0,1-1.06,1.06h-21.8Z" fill="#e0635d"/><path d="M73.091,81.5H88.705a1.06,1.06,0,0,1,1.06,1.06h0a1.06,1.06,0,0,1-1.06,1.06H66.9" fill="none" stroke="#54575c" stroke-linecap="round" stroke-linejoin="round" stroke-width="0.75"/><path d="M91.1,45.78a21.936,21.936,0,0,0-4.263,12.044" fill="none" stroke="#54575c" stroke-linecap="round" stroke-linejoin="round" stroke-width="0.75"/><path d="M85.43,61.393a31.154,31.154,0,0,1,6.3,5.749,12,12,0,0,1,2.741,7.908,7.52,7.52,0,0,1-4.618,6.626" fill="none" stroke="#54575c" stroke-linecap="round" stroke-linejoin="round" stroke-width="0.75"/><path d="M94.483,74.591h.01a10.66,10.66,0,0,0,9.2-.122,10.987,10.987,0,0,0,5.473-7.589" fill="none" stroke="#54575c" stroke-linecap="round" stroke-linejoin="round" stroke-width="0.75"/><path d="M68.125,85.076a8.858,8.858,0,0,1-1.463-1.586,2.977,2.977,0,0,1-.537-2.045,1.815,1.815,0,0,1,1.339-1.526,2.769,2.769,0,0,1,2.335,1.1A16.605,16.605,0,0,1,72.76,85.2" fill="#fff"/><path d="M69.546,85.326a8.892,8.892,0,0,1-1.463-1.585,2.978,2.978,0,0,1-.537-2.046,1.82,1.82,0,0,1,1.34-1.526,2.774,2.774,0,0,1,2.335,1.105,16.6,16.6,0,0,1,2.96,4.177" fill="#bb9c87"/><path d="M68.125,85.076a8.858,8.858,0,0,1-1.463-1.586,2.977,2.977,0,0,1-.537-2.045,1.815,1.815,0,0,1,1.339-1.526,2.769,2.769,0,0,1,2.335,1.1A16.605,16.605,0,0,1,72.76,85.2" fill="none" stroke="#54575c" stroke-linecap="round" stroke-linejoin="round" stroke-width="0.75"/><path d="M91.309,90.469v11.108A30.236,30.236,0,0,1,65.137,105.8c-.549-.173-1.088-.366-1.628-.58a1.055,1.055,0,0,1-.132-.051,25.347,25.347,0,0,1-4.252-2.156L53.144,88.6" fill="none" stroke="#54575c" stroke-linecap="round" stroke-linejoin="round" stroke-width="0.75"/><path d="M70.319,77.166l3.22-.96a9.694,9.694,0,0,1,4.16-.6,4.669,4.669,0,0,1,3.062,1.834,4.177,4.177,0,0,1,.688,3.361,2.734,2.734,0,0,1-2.923-.273A2.542,2.542,0,0,1,78,78.149" fill="none" stroke="#54575c" stroke-linecap="round" stroke-linejoin="round" stroke-width="0.75"/><path d="M74.594,78.392a4.762,4.762,0,0,0,1.381,2.355,2.268,2.268,0,0,0,.853.538,1.129,1.129,0,0,0,.975-.115.761.761,0,0,0,.283-.895" fill="none" stroke="#54575c" stroke-linecap="round" stroke-linejoin="round" stroke-width="0.75"/><path d="M59.36,103.518a747.53,747.53,0,0,0-38.631,65.847,34.972,34.972,0,0,0-3.641,9,12.168,12.168,0,0,0,1.516,9.357c3.083,4.4,13.161,9.045,18.521,9.412" fill="none" stroke="#54575c" stroke-linecap="round" stroke-linejoin="round" stroke-width="0.75"/><path d="M69.377,201.728l11.374-3.791c3.483-1.161,6.03-4.9,7.006-8.435a13.087,13.087,0,0,0-1.678-10.548l-10.217.363Z" fill="#61a575"/><path d="M67.9,198.537l11.374-3.791c3.482-1.161,6.03-4.9,7.006-8.435A13.087,13.087,0,0,0,84.6,175.763l-10.217.363" fill="none" stroke="#54575c" stroke-linecap="round" stroke-linejoin="round" stroke-width="0.75"/><path d="M76.217,195.765c3.442-3.478,6.362-9.043,6.413-13.936.022-2.088-.829-4.784-2.592-5.9" fill="none" stroke="#54575c" stroke-linecap="round" stroke-linejoin="round" stroke-width="0.75"/><path d="M22.339,256.223c-7.877,3.742-14.9,10.572-19.767,17.81a13.75,13.75,0,0,0-2.507,5.62,5.741,5.741,0,0,0,2.072,5.519c2.169,1.493,5.116.745,7.581-.179A78.528,78.528,0,0,0,32.29,271.886l-.191,4.8s6.354-1,9.22-4.486l.9-13.043" fill="none" stroke="#54575c" stroke-linecap="round" stroke-linejoin="round" stroke-width="0.75"/><path d="M36.7,83.772a5.324,5.324,0,0,0,1.98,5.175,8.9,8.9,0,0,0,5.674,1.764c3.94.07,9.663-2.388,12.861-4.689" fill="none" stroke="#54575c" stroke-linecap="round" stroke-linejoin="round" stroke-width="0.75"/><path d="M52.575,56.737a19.813,19.813,0,0,1,1.285-9.83" fill="none" stroke="#54575c" stroke-linecap="round" stroke-linejoin="round" stroke-width="0.75"/><path d="M79.517,110.152a25,25,0,0,0,10.632-3.5" fill="none" stroke="#54575c" stroke-linecap="round" stroke-linejoin="round" stroke-width="0.75"/><path d="M76.164,118.507A18.477,18.477,0,0,0,85.131,134.7" fill="none" stroke="#54575c" stroke-linecap="round" stroke-linejoin="round" stroke-width="0.75"/><path d="M73.435,124.526a24.292,24.292,0,0,0,10.716,12.466" fill="none" stroke="#54575c" stroke-linecap="round" stroke-linejoin="round" stroke-width="0.75"/><path d="M44.837,120.728a16.283,16.283,0,0,0,13.912-6.242" fill="none" stroke="#54575c" stroke-linecap="round" stroke-linejoin="round" stroke-width="0.75"/><path d="M45.27,123.168a13.62,13.62,0,0,0,9.438-1.066" fill="none" stroke="#54575c" stroke-linecap="round" stroke-linejoin="round" stroke-width="0.75"/><path d="M59.675,41.483a10,10,0,0,0,2.149,5.651,10.524,10.524,0,0,0,7.61,3.845,11.579,11.579,0,0,0,8.083-2.852" fill="none" stroke="#54575c" stroke-linecap="round" stroke-linejoin="round" stroke-width="0.75"/><path d="M61.071,102.568a67.957,67.957,0,0,0,14.086,1.5c4.728-.158,9.55-1.381,13.287-4.282" fill="none" stroke="#54575c" stroke-linecap="round" stroke-linejoin="round" stroke-width="0.75"/><path d="M82.287,193.072a41.132,41.132,0,0,0,12.1,16.994,10.109,10.109,0,0,0,4.067,2.366,4.206,4.206,0,0,0,4.3-1.32c1.27-1.649.9-4.063.371-6.1a64.439,64.439,0,0,0-8.368-18.953l3.6.454s-.327-5.167-2.764-7.687L85.38,177.2" fill="none" stroke="#54575c" stroke-linecap="round" stroke-linejoin="round" stroke-width="0.75"/></svg>