<svg id="Layer_1" data-name="Layer 1" xmlns="http://www.w3.org/2000/svg" viewBox="0 0 459.2126 467.71654"><defs><style>.cls-1{fill:#cd8662;}.cls-2{fill:#ddddde;}.cls-3,.cls-9{fill:#fff;}.cls-4{fill:#468fba;}.cls-11,.cls-12,.cls-13,.cls-14,.cls-5,.cls-7,.cls-8{fill:none;}.cls-10,.cls-11,.cls-12,.cls-13,.cls-14,.cls-5,.cls-7,.cls-8,.cls-9{stroke:#54575c;}.cls-10,.cls-12,.cls-13,.cls-14,.cls-5,.cls-7,.cls-8,.cls-9{stroke-miterlimit:10;}.cls-5{stroke-width:1.64184px;}.cls-10,.cls-6{fill:#54575c;}.cls-7{stroke-width:1.37579px;}.cls-10,.cls-8,.cls-9{stroke-width:1.24752px;}.cls-11{stroke-linejoin:round;stroke-width:1.43269px;}.cls-12{stroke-width:1.23975px;}.cls-13{stroke-width:1.1992px;}.cls-14{stroke-width:1.60152px;}</style></defs><path class="cls-1" d="M122.15732,468.28323h.24333c.08112-1.80766,1.05448-11.43693,2.6188-12.31759,12.51457-7.09159,23.59229-30.64914,27.26554-38.36646,3.91661-8.22718,8.80656-23.094,9.00355-28.96892.197-5.86331,5.46933-18.21566,8.03018-23.882a60.00518,60.00518,0,0,0,3.71961-11.5528c4.89-3.12866,5.28393-11.15884,5.28393-11.15884s24.66994-25.64329,35.63177-32.68852,15.45782-19.189,15.45782-19.189c16.62817-12.52616,33.87046-38.56343,33.87046-38.56343l-25.81711-8.60955-24.49612,22.71164s-5.66632,7.6362-7.83319,9.20053c-2.15528,1.56433-21.54128,12.72315-23.882,15.26085s-19.977,13.89348-19.977,14.68146-1.17034-2.53768-1.17034-2.53768,31.71517-23.291,35.63178-26.41966,26.999-25.79392,26.999-25.79392l-53.01312-2.39864s-13.54587,7.90274-17.6131,11.15884c-3.569,2.85055-12.92014,12.92013-12.92014,12.92013l-8.22718-13.31412s4.299-.97335,11.35583-7.05683c7.05682-6.07189,22.6421-20.95032,22.6421-20.95032l-17.35818-39.93075a73.37034,73.37034,0,0,0-10.56786,7.05682,67.65269,67.65269,0,0,0-5.08694,5.08694s.197-10.96184.394-13.11712,7.63621-6.07189,12.92014-16.44276c5.28393-10.35929,12.92013-34.25285,2.34069-50.8926,0,0-3.12864-7.43921-15.85179-6.85984,0,0-6.26887.97336-9.00354,3.12864,0,0-9.39752,14.09049-11.5528,20.75334,0,0-4.496,7.63621-6.26888,9.7915-1.76131,2.15528-22.51465,25.44629-24.65835,31.32119-2.15529,5.86331-9.39752,16.62817-13.49952,22.12067-4.102,5.46933-9.98848,21.72669-17.21913,31.13579a47.52993,47.52993,0,0,0-9.39751,27.787c0,7.05683-8.81814,28.57493-8.42417,59.69916.394,31.13579-10.96184,73.60422-14.28747,90.83493C15.09977,424.0419.22133,468.28326.22133,468.28326H122.16891v0Z"/><path class="cls-2" d="M398.24274,159.83374a10.2692,10.2692,0,0,1,3.60371,5.07536c.24333.394.4867.78794.69526,1.19351a3.4525,3.4525,0,0,1,.40558,1.6802l15.90974,4.88995,14.10209-33.56918-31.44868-10.20865-10.66058,25.77076A14.766,14.766,0,0,1,398.24274,159.83374Z"/><path class="cls-3" d="M382.84285,152.10481c2.47975.17381,4.91311.62572,7.36967,1.00812a2.50879,2.50879,0,0,1,1.06608.44033l10.20864-24.64677-14.948-18.56328-11.92361,32.54947,5.8517,9.21211A18.06392,18.06392,0,0,1,382.84285,152.10481Z"/><polygon class="cls-4" points="400.363 132.163 386.539 110.332 412.994 114.526 432.936 139.104 400.363 132.163"/><polygon class="cls-5" points="399.83 133.205 432.403 140.146 418.301 173.716 386.841 164.04 399.703 132.997 399.83 133.205"/><polygon class="cls-5" points="399.703 132.997 386.841 164.04 374.083 143.924 386.006 111.375 399.703 132.997"/><polygon class="cls-5" points="432.403 140.146 399.83 133.205 399.703 132.997 386.006 111.375 412.461 115.569 432.403 140.146"/><ellipse class="cls-6" cx="406.13904" cy="145.77146" rx="11.13611" ry="6.57043" transform="translate(-12.46327 250.51086) rotate(-33.79177)"/><ellipse class="cls-3" cx="406.81287" cy="143.89787" rx="7.62493" ry="4.49617" transform="translate(-11.3074 250.56911) rotate(-33.79177)"/><path class="cls-7" d="M377.304,149.12682c.74162-.85749,14.48446-30.49848,14.48446-30.49848l17.46248,3.372,5.97919,7.7405"/><line class="cls-7" x1="388.52075" y1="127.52759" x2="392.54164" y2="134.8741"/><line class="cls-7" x1="382.91237" y1="139.2542" x2="386.58564" y2="143.62272"/><ellipse class="cls-6" cx="392.14155" cy="135.60025" rx="2.47965" ry="2.49122" transform="translate(-16.54332 63.91274) rotate(-9.12603)"/><ellipse class="cls-6" cx="386.54537" cy="143.61926" rx="2.47965" ry="2.49121" transform="translate(-17.88603 63.12665) rotate(-9.12603)"/><path class="cls-8" d="M125.12374,468.28323h.24334c.08111-1.80766,1.05447-12.16695,2.61879-13.05918,12.51457-7.09159,23.5923-30.64913,27.26556-38.36642,3.9166-8.22718,8.80655-23.10562,9.00354-28.96892s5.46934-18.21566,8.03018-23.882a60.00562,60.00562,0,0,0,3.71962-11.5528c4.88995-3.12866,5.28392-11.15884,5.28392-11.15884s24.66993-25.64329,35.63178-32.68852c10.96184-7.05682,15.45781-19.189,15.45781-19.189,16.62817-12.52616,33.87046-38.56343,33.87046-38.56343l-28.77194-7.868-21.54128,21.97s-5.66632,7.6362-7.83319,9.20053c-2.15529,1.56433-21.54129,12.72315-23.882,15.26085s-19.977,13.89348-19.977,14.68146c0,.77638-1.17034-2.53768-1.17034-2.53768s31.71517-23.291,35.63178-26.41966,25.94456-24.22961,25.94456-24.22961l-51.97025-3.95136s-13.54587,7.90273-17.6131,11.15883c-3.569,2.85055-12.92013,12.92013-12.92013,12.92013l-8.22717-13.31412s4.299-.97335,11.35581-7.05683c7.05682-6.07189,18.59805-17.21912,18.59805-17.21912l-13.31412-43.662a73.37018,73.37018,0,0,0-10.56787,7.05682c-2.31751,1.99307-6.69761,6.35-6.69761,6.35s1.80766-12.21329,2.00465-14.38018,7.6362-6.07189,12.92013-16.44276c5.28393-10.38247,12.92014-34.26444,2.35228-50.8926,0,0-3.12864-7.43922-15.8518-6.85984,0,0-6.26887.97335-9.00353,3.12864,0,0-9.39752,14.09049-11.55281,20.75334,0,0-4.496,7.6362-6.26888,9.79149-1.76131,2.15529-22.51465,25.44631-24.65834,31.3212-2.15529,5.8633-9.39752,16.62817-13.51111,22.12066-4.102,5.46934-9.98849,21.72669-17.21913,31.12421a47.53649,47.53649,0,0,0-9.39752,27.79858c0,7.05683-8.81814,28.57494-8.42416,59.69916s-10.96184,73.60423-14.28747,90.835C18.0546,423.312,3.17616,468.2833,3.17616,468.2833"/><path class="cls-8" d="M181.30028,341.30663s-14.04413-33.2679-17.61311-38.13469c-3.55739-4.86679,0-4.62343-5.7822-10.40565-5.44615-5.44615-15.7591-21.73827-15.7591-21.73827s-9.45546-17.34659-12.92014-17.81009"/><path class="cls-8" d="M135.29762,188.81424s-1.2167,11.90044-3.52262,18.60963-3.71961,13.63857-3.01277,24.5193c.591,9.04989,2.08577,17.56676-2.08576,25.66646,0,0,22.66529,36.31545,2.781,120.03563"/><path class="cls-8" d="M127.99745,455.224c-1.07764-1.01971-17.96073-35.01763-57.27735-61.391"/><path class="cls-8" d="M108.6578,146.60072s-18.73709,23.81245-18.96885,29.838c-.197,5.13328-1.72654,10.13912-2.28275,15.22606-.8459,7.69415-12.29441,35.87512-15.17971,43.82418-3.27929,9.06148-6.87143,31.84263-18.15772,35.3189"/><path class="cls-8" d="M90.3842,173.87786s13.65016,5.55044,21.73829,6.2457c0,0,3.23293.45192,4.62343,2.30593"/><path class="cls-8" d="M150.58162,121.47888s1.08923,10.77644-5.14488,17.71739c-6.2457,6.941-8.33147,7.63621-15.02908,6.7092-6.70921-.927-13.41841-5.31869-15.26083-5.08694-1.854.23175,2.53768-9.01513,2.53768-9.01513"/><path class="cls-1" d="M455.14927,468.28323c-.97335-.97335-11.98154-67.34695-12.63044-81.58808s-.32446-87.41662-.32446-87.41662,1.28621-21.69193,1.61069-26.5587,3.88185-9.06149-9.71038-29.79165c-13.59224-20.71858-33.99793-76.73288-33.99793-76.73288s-1.61069-9.38594-20.40572-17.81009c-18.78344-8.42416-55.68985-39.82646-57.961-42.735-2.27115-2.92006-17.14959-20.06966-24.92487-14.57716-7.77525,5.5041-7.11478,24.612-.97335,32.05122,6.153,7.43922,10.69534,18.77186,19.74523,23.9631,0,0,6.47744,13.91666,11.33264,18.77186l-1.28621,7.43922s8.42415,4.53074,12.306,5.82854c0,0,1.2862,30.44055,23.96308,39.17757,0,0-3.88184,3.23292-5.5041,6.80189,0,0-18.77187-34.95969-32.05122-44.35721l-6.153,31.07787s1.61069,6.47745,5.17964,7.77527c0,0,.32445,21.69193,10.03484,29.13114,0,0-.6489,20.06968,7.43924,30.1161l-3.5574.32445s-14.57714-23.31418-16.51228-44.03276a28.37973,28.37973,0,0,0-8.42415-13.59221c-6.8019-6.153-19.09633-37.55532-33.67347-44.35721s-21.36748-1.94671-25.24932,4.86677c-3.88185,6.8019-6.8019,16.82516-1.62226,30.44055,5.17965,13.59221,16.82516,42.735,22.97815,52.13248,5.53886,8.44733,11.42535,16.25735,14.92478,25.86344,2.88529,7.91429,4.35694,16.211,6.23412,24.40342,1.74973,7.6478,5.77062,15.43465,6.37316,23.23306.91543,11.94678-1.61069,34.95971,12.306,60.209s32.68852,54.07917,33.349,69.94255h107.185v0Z"/><path class="cls-8" d="M456.67884,468.28323c-.97336-.97335-11.98155-68.18125-12.63045-82.42238s-.32445-87.41662-.32445-87.41662,1.28621-21.69193,1.61069-26.55871,3.88184-9.06149-9.71039-29.79165S401.62632,165.361,401.62632,165.361s-1.61069-9.38593-20.40573-17.81008c-18.77187-8.42416-55.68985-39.82647-57.961-42.735-2.27115-2.92007-17.14959-20.06967-24.92487-14.57717s-7.11479,24.612-.97335,32.05122c6.153,7.43922,10.69533,18.77186,19.74522,23.9631,0,0,6.47745,13.91667,11.33264,18.77186l-1.2862,7.43922s8.42415,4.53074,12.306,5.82854c0,0,1.28621,30.44055,23.96309,39.17757,0,0-3.88185,3.23292-5.5041,6.8019,0,0-18.77187-34.95969-32.05122-44.35721l-6.153,31.07786s1.61068,6.47745,5.17964,7.77527c0,0,.32445,21.69193,10.03484,29.13115,0,0-.6489,20.06967,7.43923,30.11609l-3.55739.32445S324.233,255.02562,322.29784,234.307a28.37977,28.37977,0,0,0-8.42415-13.59221c-6.8019-6.153-19.09633-37.55531-33.67347-44.35721s-21.36748-1.9467-25.24933,4.86678c-3.88184,6.80189-6.80189,16.82515-1.62225,30.44054,5.17965,13.59222,16.82516,42.735,22.97815,52.13248,5.29553,8.08812,10.97343,15.56211,14.48444,24.68153,3.04754,7.93749,4.61187,16.29211,6.50061,24.54246,1.81926,7.98385,5.92123,16.14147,6.547,24.26437.91543,11.93518-1.61069,34.95971,12.306,60.209s32.68853,54.91351,33.349,70.77689"/><path class="cls-8" d="M274.73083,173.97057s13.26776,10.33611,15.6664,19.4787c0,0,4.13677,6.19935-.54462,9.24687s-23.70816,13.59221-26.31536,15.34195-4.46122-4.03247-4.68137-4.35692-8.36623-17.729-8.15764-21.64557,5.226-17.08008,12.94331-18.15772C271.35886,172.78863,274.73083,173.97057,274.73083,173.97057Z"/><path class="cls-8" d="M311.49818,234.2375s-6.744,17.18437-29.80323,22.30607"/><path class="cls-8" d="M357.92957,224.307s6.98731,29.33971-4.00928,46.37345c-1.61069,2.49132-6.51221,7.02207-11.51805,7.38128"/><path class="cls-8" d="M338.138,278.51361s20.7765,7.613,26.44284,19.36284a12.88227,12.88227,0,0,1,1.52957,5.97919"/><path class="cls-8" d="M327.69761,163.97049c4.35694,6.96412,13.69652,13.48793,13.69652,13.48793.54461,21.20525,21.76145,39.38615,22.028,40.04663"/><path class="cls-8" d="M328.57828,109.91448s36.327,36.10686,43.18685,40.89253a13.6017,13.6017,0,0,1,3.58056,6.08347c1.18192,4.00931,24.47294,37.41627,26.63981,39.49044,2.17847,2.07417,16.31528,24.26437,17.08006,35.2378"/><path class="cls-4" d="M318.5666,212.42971l7.4508-38.51709,1.2862-7.43921c-4.86679-4.86678-11.33264-18.77186-11.33264-18.77186-9.06148-5.17964-13.59223-16.51228-19.74522-23.96309-3.27927-3.97454-4.99424-11.27471-4.70455-18.05344l-.08113-.0927c-1.63385-1.90036-22.61893-29.86116-26.10679-34.51937l-20.33618,65.08737s19.93061,24.29914,30.27832,40.0814a40.38548,40.38548,0,0,1,3.78914,1.55273c14.57715,6.8019,26.87157,38.20421,33.67347,44.35721a28.3862,28.3862,0,0,1,2.73465,2.85055l3.42991-11.47169C318.68249,212.87,318.5666,212.42971,318.5666,212.42971Z"/><path class="cls-3" d="M265.40283,71.803c-.31287-.41716-.50985-.66049-.50985-.66049L231.46283,84.15531l-2.82737,8.63274-17.08008,60.15107L245.19409,136.508Z"/><path class="cls-3" d="M245.06666,136.90193l.12747-.40557-33.63871,16.43118-.139.49825,40.85776,60.39441c-5.17964-13.59222-2.27117-23.63864,1.62226-30.44055,3.53421-6.17618,9.47862-10.7185,21.46018-6.40793C264.99728,161.20106,245.06666,136.90193,245.06666,136.90193Z"/><path class="cls-8" d="M266.96716,70.25024c-.31287-.41716-.50985-.66049-.50985-.66049L233.03876,82.60258l-2.82737,8.63274L213.10815,151.398l33.65029-16.44276Z"/><path class="cls-8" d="M246.631,135.33761l.12747-.40557-33.65031,16.44277-.139.49825,40.85776,60.39441c-5.17964-13.59222-2.27117-23.63864,1.62226-30.44055,3.53421-6.17618,9.47864-10.7185,21.46018-6.41951C266.56159,159.63673,246.631,135.33761,246.631,135.33761Z"/><path class="cls-8" d="M320.20045,211.61857l7.43924-38.51709,1.2862-7.43922c-4.86679-4.86677-11.33264-18.77185-11.33264-18.77185-9.06149-5.17965-13.59223-16.51229-19.74523-23.9631-3.27926-3.97453-4.99423-11.2747-4.70455-18.05343l-.08112-.0927c-1.63385-1.90036-22.61894-29.86116-26.10679-34.51937l-20.33618,65.08737s19.93061,24.29913,30.27832,40.0814a40.38278,40.38278,0,0,1,3.78914,1.55273c14.57714,6.80189,26.87157,38.20421,33.67347,44.35721a28.3862,28.3862,0,0,1,2.73465,2.85055l3.42991-11.47169C320.30474,212.04732,320.20045,211.61857,320.20045,211.61857Z"/><path class="cls-9" d="M233.68766,182.47584l7.58986,33.71983L259.3773,226.358c-2.16687-5.38821-4.09041-10.33611-5.52728-14.09049Z"/><path class="cls-10" d="M233.68766,182.47584l7.58986,33.71983L259.3773,226.358c-2.16687-5.38821-4.09041-10.33611-5.52728-14.09049Z"/><path class="cls-2" d="M238.20683,217.04156,230.617,183.32172,209.91,152.70737l7.61305-27.55524L206.6191,93.4949l-39.94235,15.97926L170.03714,123.02l27.24237,108.65663c12.54934-4.44962,31.80787-11.26312,41.12428-14.496Z"/><path class="cls-3" d="M256.28342,227.21544,238.4965,217.21536l-41.20539,14.48446.06952.28969L247.5,258.69886l18.853-7.79843C263.00421,243.5655,259.40048,234.93277,256.28342,227.21544Z"/><path class="cls-8" d="M241.53245,215.94074l-7.58986-33.71983-20.707-30.60277,7.613-27.55524L214.151,94.31761l-4.20629-1.93512L170.0024,108.35016l3.36038,13.54587,27.24237,108.65664c12.54934-4.44963,31.80787-11.26312,41.12429-14.496Z"/><path class="cls-8" d="M259.62065,226.103,241.84532,216.103l-41.20539,14.48446.06952.28969,50.13942,26.70935,18.853-7.79843C266.32984,242.45309,262.72611,233.82035,259.62065,226.103Z"/><polygon class="cls-10" points="227.129 100.621 209.69 92.637 219.933 126.682 227.129 100.621"/><path class="cls-4" d="M169.956,118.41976c-1.62226-5.63156-2.4218-9.79149-2.4218-9.79149l5.0406-2.12053,4.11359-15.73592-32.30615,8.28511-4.87836,16.17625c6.90619,1.70337,8.85291,6.23411,8.85291,6.23411,7.39287,11.64551,5.8749,26.81364,2.49132,38.42437l9.5134-3.30246Z"/><path class="cls-4" d="M215.26344,240.20511l-17.03373-9.08465-6.61651-26.3849c-7.77526-11.97-15.39987-23.91674-21.08937-32.87392L160.33837,156.7051l.02318-.09271-9.5134,3.30247a73.5904,73.5904,0,0,1-4.8436,12.45663c-4.91313,9.664-11.69185,13.71968-12.78109,15.96767L181.59,262.14039,224.4524,252.233C222.76059,250.58756,219.46971,246.23064,215.26344,240.20511Z"/><path class="cls-9" d="M219.238,241.16687l-1.77289-.9386c4.20629,6.014,7.49715,10.38247,9.18893,12.00473l1.22828-6.45429Z"/><path class="cls-8" d="M172.16927,118.41976c-1.62226-5.63156-2.4218-9.79149-2.4218-9.79149l5.0406-2.12053,4.12517-15.73592-32.30615,8.28511-4.87837,16.17625c6.9062,1.70337,8.8529,6.23411,8.8529,6.23411,7.39287,11.64551,5.87491,26.81364,2.49132,38.42437l9.5134-3.30246Z"/><path class="cls-8" d="M217.47667,240.20511l-17.03373-9.08465-6.62809-26.3849c-7.77526-11.97-15.39987-23.91674-21.08937-32.87392L162.54,156.7051l.02318-.09271-9.51341,3.30247a72.54367,72.54367,0,0,1-4.85519,12.45663c-4.91313,9.664-11.69185,13.71968-12.7695,15.96767l48.36651,73.80123L226.654,252.233C224.97381,250.58756,221.69454,246.23064,217.47667,240.20511Z"/><path class="cls-10" d="M162.56316,156.70508l10.18547,15.15654c5.70108,8.96878,13.3257,20.904,21.08937,32.87393l-.591-2.35228L175.518,131.6991c-.79954-2.79261-2.31751-8.07653-3.73119-12.9549Z"/><polygon class="cls-10" points="187.72 101.34 178.89 90.76 178.89 90.76 178.89 90.76 178.89 90.76 178.89 90.76 174.776 106.496 187.72 101.34"/><polygon class="cls-6" points="204.533 99.497 213.514 128.547 184.475 141.734 174.44 112.174 204.533 99.497"/><polyline class="cls-8" points="256.805 73.089 243.618 122.73 228.299 129.602"/><polygon class="cls-6" points="197.685 189.266 204.533 221.48 230.408 213.032 225.136 182.395 197.685 189.266"/><polyline class="cls-8" points="186.584 223.589 153.073 159.903 167.048 103.194"/><path class="cls-8" d="M145.92343,176.58935l33.66189,61.79651a13.36928,13.36928,0,0,0,14.82049,6.61651l8.0186-1.88878"/><line class="cls-8" x1="250.47806" y1="127.15679" x2="309.09958" y2="199.82243"/><path class="cls-8" d="M254.05861,118.16483,285.84332,157.69a7.71451,7.71451,0,0,0,13.41839-2.41022l2.45656-7.7289"/><line class="cls-8" x1="209.29583" y1="228.33944" x2="246.78162" y2="249.98501"/><line class="cls-8" x1="224.08158" y1="222.53407" x2="243.08518" y2="233.61178"/><ellipse class="cls-10" cx="203.2274" cy="243.39107" rx="4.13668" ry="4.76239" transform="translate(-94.46961 134.2257) rotate(-30.00073)"/><ellipse class="cls-10" cx="301.67799" cy="147.55253" rx="4.13668" ry="4.76239" transform="matrix(0.86602, -0.50001, 0.50001, 0.86602, -33.35879, 170.61154)"/><ellipse class="cls-6" cx="309.07741" cy="199.81107" rx="4.13668" ry="4.76239" transform="translate(-58.49725 181.31298) rotate(-30.00073)"/><ellipse class="cls-6" cx="229.50455" cy="128.06062" rx="4.13677" ry="4.76249"/><ellipse class="cls-10" cx="187.12267" cy="225.2319" rx="3.77735" ry="4.48416" transform="translate(-94.67462 145.64176) rotate(-34.50852)"/><ellipse class="cls-6" cx="166.05236" cy="102.21016" rx="4.48442" ry="3.77758" transform="translate(-12.97972 24.95851) rotate(-8.27352)"/><polygon class="cls-2" points="165.715 135.025 195.623 119.822 178.67 87.62 149.319 105.5 165.715 135.025"/><polygon class="cls-4" points="179.887 135.905 208.774 120.529 196.839 118.501 165.68 134.909 179.887 135.905"/><polygon class="cls-3" points="194.835 118.663 208.774 120.529 191.242 87.829 178.67 87.62 194.835 118.663"/><polygon class="cls-11" points="178.763 88.779 178.89 88.964 178.681 88.86 195.078 119.312 167.43 136.601 149.342 106.23 178.763 88.779"/><polygon class="cls-11" points="178.89 88.964 191.868 88.825 209.62 122.139 195.24 119.382 195.078 119.312 178.681 88.86 178.89 88.964"/><polygon class="cls-11" points="195.078 119.312 195.24 119.382 209.62 122.139 179.91 138.153 167.43 136.601 195.078 119.312"/><polygon class="cls-2" points="178.264 208.05 211.37 202.65 205.008 166.833 170.327 172.986 178.264 208.05"/><polygon class="cls-3" points="191.497 213.194 223.688 207.32 212.946 201.769 178.264 207.934 191.497 213.194"/><polygon class="cls-4" points="210.976 201.306 223.688 207.32 216.92 170.842 205.008 166.833 210.976 201.306"/><polygon class="cls-11" points="180.512 210.819 180.732 210.773 180.512 210.692 213.212 204.075 207.245 169.59 172.586 175.743 180.512 210.819"/><polygon class="cls-11" points="180.732 210.773 193.745 215.964 225.936 210.089 213.386 204.156 213.212 204.075 180.512 210.692 180.732 210.773"/><path class="cls-11" d="M213.21243,204.07506l.17381.08113.01158.1854c.54462.27811,1.08923.54462,1.63385.83431L219.18,173.61135l-11.912-4.0093Z"/><polygon class="cls-3" points="253.085 54.526 228.114 42.231 237.233 18.94 261.788 31.2 253.085 54.526"/><polygon class="cls-4" points="237.373 63.217 213.479 52.649 228.114 42.231 253.085 54.526 237.373 63.217"/><polygon class="cls-2" points="230.524 43.24 213.479 52.649 217.859 32.846 237.233 18.94 230.524 43.24"/><polygon class="cls-12" points="229.192 41.71 235.901 17.399 260.443 29.671 251.741 52.996 229.018 41.803 229.192 41.71"/><polygon class="cls-12" points="229.018 41.803 251.741 52.996 236.04 61.687 212.146 51.119 229.018 41.803"/><polygon class="cls-12" points="235.901 17.399 229.192 41.71 229.018 41.803 212.146 51.119 216.515 31.304 235.901 17.399"/><polygon class="cls-2" points="250.188 253.427 272.796 240.089 288.045 259.777 265.658 272.813 250.188 253.427"/><polygon class="cls-4" points="250.501 236.277 271.127 222.859 272.796 240.089 250.188 253.427 250.501 236.277"/><polygon class="cls-3" points="270.756 241.457 271.127 222.859 285.751 236.914 288.045 259.777 270.756 241.457"/><polygon class="cls-13" points="272.715 241.213 290.003 259.533 267.616 272.569 252.135 253.183 272.715 241.028 272.715 241.213"/><polygon class="cls-13" points="272.715 241.028 252.135 253.183 252.46 236.022 273.074 222.615 272.715 241.028"/><polygon class="cls-13" points="290.003 259.533 272.715 241.213 272.715 241.028 273.074 222.615 287.697 236.659 290.003 259.533"/><polygon class="cls-4" points="312.564 55.372 300.351 21.571 269.146 29.937 281.371 63.217 312.564 55.372"/><polygon class="cls-3" points="325.971 36.472 315.82 4.282 300.351 21.571 312.564 55.372 325.971 36.472"/><polygon class="cls-2" points="301.301 24.804 315.82 4.282 289.783 7.063 269.146 29.937 301.301 24.804"/><polygon class="cls-14" points="299.528 22.869 267.373 28.014 279.598 61.281 310.791 53.448 299.679 22.66 299.528 22.869"/><polygon class="cls-14" points="299.679 22.66 310.791 53.448 324.198 34.526 314.047 2.347 299.679 22.66"/><polygon class="cls-14" points="267.373 28.014 299.528 22.869 299.679 22.66 314.047 2.347 287.987 5.117 267.373 28.014"/><ellipse class="cls-6" cx="292.91944" cy="14.72886" rx="8.64464" ry="5.07554" transform="translate(35.21927 154.76228) rotate(-31.39809)"/><ellipse class="cls-3" cx="293.88461" cy="16.4209" rx="5.92145" ry="3.4764" transform="translate(34.4791 155.51294) rotate(-31.3981)"/></svg>