<?xml version="1.0" encoding="UTF-8"?>
<svg width="9000px" height="6203px" viewBox="0 0 9000 6203" version="1.1" xmlns="http://www.w3.org/2000/svg" xmlns:xlink="http://www.w3.org/1999/xlink">
    <!-- Generator: Sketch 59.1 (86144) - https://sketch.com -->
    <title>we make goverment work 9000px-01</title>
    <desc>Created with Sketch.</desc>
    <g id="Page-1" stroke="none" stroke-width="1" fill="none" fill-rule="evenodd">
        <g id="we-make-goverment-work-9000px-01">
            <rect id="Rectangle" fill="#235384" fill-rule="nonzero" x="0.87" y="0.22" width="8998.38" height="6201.83"></rect>
            <g id="Group" transform="translate(2628.000000, 1871.000000)">
                <g transform="translate(0.590600, 0.354500)" fill="#FFFFFF" font-family="Geomanist-Bold, Geomanist" font-size="355.0408" font-weight="bold">
                    <text id="We-make-government">
                        <tspan x="30" y="337">We make government</tspan>
                    </text>
                    <text id="work-in-a-digital-world">
                        <tspan x="0.79" y="763.05">work in a digital world</tspan>
                    </text>
                </g>
                <path d="M2348.85,1648.26 L1382.18,1648.26 C1286.33,1648.26 1208.64,1570.56 1208.64,1474.72 L1208.64,1474.72 C1208.64,1378.87 1286.34,1301.18 1382.18,1301.18 L2348.85,1301.18 C2444.7,1301.18 2522.39,1378.88 2522.39,1474.72 L2522.39,1474.72 C2522.39,1570.56 2444.69,1648.26 2348.85,1648.26 Z" id="Path" fill="#F6C65D" fill-rule="nonzero"></path>
                <text id="Let’s-Talk" fill="#1D1D1B" font-family="Geomanist-Bold, Geomanist" font-size="189.2029" font-weight="bold">
                    <tspan x="1447.3738" y="1542.1367">Let’s Talk</tspan>
                </text>
                <g transform="translate(64.713100, 849.909700)" fill="#FFFFFF" font-family="Geomanist" font-size="123.1203" font-weight="normal">
                    <text id="Skylight-is-a-HUBZon">
                        <tspan x="18" y="117">Skylight i</tspan>
                        <tspan x="494.598681" y="117">s a</tspan>
                        <tspan x="640.003756" y="117"> HUBZone digital consultancy, using design, technology,</tspan>
                    </text>
                    <text id="and-procurement-to-enable-government-success-in-the-digital-age.">
                        <tspan x="0.78" y="284.99">and procurement to enable government success in the digital age.</tspan>
                    </text>
                </g>
            </g>
            <g id="Group" transform="translate(386.000000, 296.000000)">
                <path d="M6244.55,1059.55 C6244.55,902.89 6371.55,775.89 6528.21,775.89 L6738.49,775.89" id="Path" stroke="#3280AC" stroke-width="8.1797"></path>
                <g transform="translate(139.000000, 3127.000000)">
                    <path d="M707.65,232.42 C707.65,232.42 705.21,208.6 697.09,203.72 C695.79,202.94 694.36,202.6 692.76,202.96 C692.76,202.96 641.04,221.37 635.35,219.18 C628.67,216.6 622.33,214.61 616.26,213.07 C618.89,250.96 608.54,301.16 551.55,340.27 C552.54,341.37 553.54,342.46 554.56,343.53 C554.56,343.53 546.91,364.72 560.69,372.26 C560.88,372.36 561.06,372.48 561.26,372.57 C561.89,372.88 562.62,373.13 563.33,373.38 C563.79,373.55 564.23,373.74 564.72,373.87 C565.91,374.2 567.18,374.47 568.6,374.65 C574.55,375.36 582.17,374.46 592.07,370.93 C592.07,370.93 580.87,387.23 597.57,400.52 L597.13,401.56 L594.52,407.73 L583.83,432.94 C583.83,432.94 587.32,434.49 593.65,436.27 C609.86,440.83 668.53,442.37 715.99,428 L722.73,376.17 C729.76,366.29 756.05,319.84 757.17,285.07 C758.03,258.99 719.68,246.85 707.65,232.42 Z" id="Path" fill="#78AAC1" fill-rule="nonzero"></path>
                    <path d="M791.79,79.99 L711.67,197.89 C719.79,202.77 722.23,226.59 722.23,226.59 C734.26,241.02 772.6,253.16 771.76,279.24 C770.64,314.01 744.35,360.46 737.32,370.34 L730.58,422.17 C683.11,436.54 624.45,435 608.24,430.44 L607.89,431.48 C656.89,446.83 730.58,422.17 730.58,422.17 L761.54,383.98 C773.19,348.95 813.88,86.07 813.88,86.07 L791.79,79.99 Z" id="Path" fill="#43789C" fill-rule="nonzero"></path>
                    <path d="M949.86,75.47 C949.86,75.47 954.77,65.1 992.49,56.01 C1030.21,46.92 1018.07,65.94 1018.07,65.94 L1006.97,73.91 C1006.97,73.91 1132.72,23.99 1193.6,48.34 L998.63,115.38 L949.86,75.47 Z" id="Path" fill="#78AAC1" fill-rule="nonzero"></path>
                    <path d="M717.02,65.36 L814.5,86.7 L837.79,62.16 C837.79,62.16 884.12,26.22 845.33,26.88 C834.34,27.07 821.63,44.25 821.63,44.25 L801.43,46.46 C801.43,46.46 792.55,47.09 749.88,45.77 C725.22,45.01 702.46,32.22 689,11.54 L683.35,2.86 C680.78,-1.09 674.64,1.47 675.65,6.08 L680.68,29.03 C684.66,47.19 698.85,61.38 717.02,65.36 Z" id="Path" fill="#78AAC1" fill-rule="nonzero"></path>
                    <path d="M998.64,115.38 L949.87,75.46 L843.35,283.27 L714.23,422.17 C714.23,422.17 640.53,446.83 591.54,431.48 C583.71,429.03 576.48,425.59 570.31,420.82 C570.31,420.82 385.28,427.79 334.05,807.83 C327.9,853.49 315.61,887.23 303.47,941.88 C303.47,941.88 856.79,1174.17 863.28,1051.44 C864.17,1034.66 801.35,861.71 869.34,694.14 C923.75,559.99 998.64,115.38 998.64,115.38 Z" id="Path" fill="#43789C" fill-rule="nonzero"></path>
                    <path d="M646.31,122.27 C623.72,65.65 536.68,116.69 536.68,116.69 L533.46,133.31 C533.46,133.31 438.56,152.67 445.56,199.47 C445.56,199.47 364.69,206.6 351.349656,291.05 C351.349656,291.05 350.49,423.75 434.83,430.83 C489.56,435.42 505.37,388.13 505.37,388.13 C505.37,388.13 569.22,426.83 592.75,401.89 L595.36,395.72 L595.8,394.68 C579.1,381.39 590.3,365.09 590.3,365.09 C580.4,368.62 572.79,369.52 566.83,368.81 C565.44,368.64 564.16,368.37 562.95,368.03 C562.45,367.89 562.02,367.7 561.56,367.54 C560.85,367.29 560.14,367.03 559.49,366.73 C559.29,366.63 559.11,366.52 558.92,366.42 C557.92,365.9 557.13,365.21 556.28,364.56 C546.24,355.9 552.79,337.68 552.79,337.68 C551.77,336.62 550.78,335.52 549.78,334.42 C606.77,295.32 617.11,245.11 614.49,207.22 C614.41,205.99 614.35,204.74 614.24,203.54 C635.52,196.03 664.33,167.45 646.31,122.27 Z" id="Path" fill="#43789C" fill-rule="nonzero"></path>
                    <path d="M857.77,1473.89 L807.68,1090.05 C740.07,1091.63 513.81,1046.8 412.46,1000.12 C400.38,994.56 389.09,989.22 378.91,984.32 C373.68,981.8 345.88,965.35 341.27,963.09 C341.27,963.09 267.14,1072.86 257.66,1132.97 C247.62,1196.62 319.26,1475.22 319.26,1475.22 L6.96,1853.48 L90.97,1876.5 C90.97,1876.5 422.82,1714.41 472.51,1577.73 C523.46,1437.6 484.5,1430.64 525.65,1322.74 C551.01,1382.34 716.67,1548.25 651.3,1624.86 C530.45,1766.5 510.91,1936.14 510.91,1936.14 L595.93,1924.02 L833.72,1601.61 C860.81,1564.94 869.65,1517.9 857.77,1473.89 Z" id="Path" fill="#488FBA" fill-rule="nonzero"></path>
                    <path d="M709.19,301.61 C709.19,301.61 724.47,294.62 723.36,276.78" id="Path" stroke="#1F3B65" stroke-width="8.1797"></path>
                    <ellipse id="Oval" fill="#1F3B65" fill-rule="nonzero" transform="translate(649.555860, 230.119470) rotate(-73.518630) translate(-649.555860, -230.119470) " cx="649.55586" cy="230.11947" rx="4.8999385" ry="6.11992319"></ellipse>
                    <path d="M577.34,342.58 C577.34,342.58 592.23,363.11 608.02,345.38" id="Path" stroke="#1F3B65" stroke-width="8.1797"></path>
                    <path d="M646.32,160.32 C646.32,160.32 647.5,192.05 630.77,198.39 C630.77,198.39 628.29,180.93 619.69,146.63" id="Path" stroke="#1F3B65" stroke-width="8.1797"></path>
                    <path d="M617.77,207.8 C615.44,211.97 624.91,347.03 486.68,332.82" id="Path" stroke="#1F3B65" stroke-width="8.1797"></path>
                    <path d="M1015,115.38 L966.23,75.46 L859.71,283.27 L730.59,422.17 C730.59,422.17 656.89,446.83 607.9,431.48 C600.07,429.03 592.84,425.59 586.67,420.82 C586.67,420.82 401.64,427.79 350.41,807.83 C344.26,853.49 331.97,887.23 319.83,941.88 C319.83,941.88 873.15,1174.17 879.64,1051.44 C880.53,1034.66 817.71,861.71 885.7,694.14 C940.11,559.99 1015,115.38 1015,115.38 Z" id="Path" stroke="#1F3B65" stroke-width="8.1797"></path>
                    <path d="M966.22,75.47 C966.22,75.47 971.13,65.1 1008.85,56.01 C1046.57,46.92 1034.43,65.94 1034.43,65.94 L1023.33,73.91 C1023.33,73.91 1149.08,23.99 1209.96,48.34 L1015,115.38 L966.22,75.47 Z" id="Path" stroke="#1F3B65" stroke-width="8.1797"></path>
                    <path d="M733.38,65.36 L830.86,86.7 L854.15,62.16 C854.15,62.16 900.48,26.22 861.69,26.88 C850.7,27.07 837.99,44.25 837.99,44.25 L817.79,46.46 C817.79,46.46 808.91,47.09 766.24,45.77 C741.58,45.01 718.82,32.22 705.36,11.54 L699.71,2.86 C697.14,-1.09 691,1.47 692.01,6.08 L697.04,29.03 C701.02,47.19 715.21,61.38 733.38,65.36 Z" id="Path" stroke="#1F3B65" stroke-width="8.1797"></path>
                    <g transform="translate(0.000000, 957.000000)" id="Path" stroke="#1F3B65" stroke-width="8.1797">
                        <path d="M874.13,516.89 L824.04,133.05 C756.43,134.63 530.17,89.8 428.82,43.12 C416.74,37.56 405.45,32.22 395.27,27.32 C390.04,24.8 345.28,2.26 340.67,0 C340.67,0 283.51,115.87 274.03,175.97 C263.99,239.62 335.63,518.22 335.63,518.22 L23.33,896.48 L107.34,919.5 C107.34,919.5 439.19,757.41 488.88,620.73 C539.83,480.6 500.87,473.64 542.02,365.74 C567.38,425.34 733.04,591.25 667.67,667.86 C546.82,809.5 527.28,979.14 527.28,979.14 L612.3,967.02 L850.09,644.61 C877.17,607.94 886.01,560.9 874.13,516.89 Z"></path>
                        <path d="M527.29,979.15 C527.29,979.15 508.97,1047.09 515.93,1055.25 C522.89,1063.41 719.9,1082.87 748.04,1049.27 C776.18,1015.68 628.72,1008.96 612.91,965.56 L527.29,979.15 Z" fill="#1F3B65" fill-rule="nonzero"></path>
                        <path d="M23.33,896.49 C23.33,896.49 -8.03,961.61 2.11,981.17 C7.18,990.95 45.01,989.25 83.27,1002.9 C118.59,1015.5 136.86,1053.43 196.37,1026.83 C205.12,1022.92 208.09,1011.84 202.49,1004.05 C193.14,991.05 178.13,973.45 162.63,968.63 C137.22,960.72 98.39,918.21 98.39,918.21 L23.33,896.49 Z" fill="#1F3B65" fill-rule="nonzero"></path>
                    </g>
                    <path d="M829.24,1086.19 L831.2,1116.13 C831.2,1116.13 815.15,1115.99 808.48,1121.57 C777.92,1147.12 580.26,1132.5 389,1020.05 L325.97,984.25 L340.66,957 C340.67,957 709.51,1083.51 829.24,1086.19 Z" id="Path" stroke="#1F3B65" stroke-width="8.1797" fill="#1F3B65" fill-rule="nonzero"></path>
                    <path d="M791.79,79.99 L711.67,197.89 C719.79,202.77 722.23,226.59 722.23,226.59 C734.26,241.02 772.6,253.16 771.76,279.24 C770.64,314.01 744.35,360.46 737.32,370.34 L730.58,422.17 C683.11,436.54 624.45,435 608.24,430.44 L607.89,431.48 C656.89,446.83 730.58,422.17 730.58,422.17 L781.32,366.02 C792.97,330.99 830.86,86.7 830.86,86.7 L791.79,79.99 Z" id="Path" stroke="#1F3B65" stroke-width="8.1797"></path>
                    <path d="M579.31,368.05 C580.52,368.39 581.8,368.66 583.19,368.83 C581.77,368.65 580.5,368.38 579.31,368.05 Z" id="Path" stroke="#1F3B65" stroke-width="8.1797"></path>
                    <path d="M575.85,366.74 C576.5,367.05 577.21,367.3 577.92,367.55 C577.2,367.3 576.47,367.05 575.85,366.74 Z" id="Path" stroke="#1F3B65" stroke-width="8.1797"></path>
                    <path d="M722.23,226.59 C722.23,226.59 719.79,202.77 711.67,197.89 C710.37,197.11 708.94,196.77 707.34,197.13 C707.34,197.13 655.62,215.54 649.93,213.35 C643.25,210.77 636.91,208.78 630.84,207.24 C633.47,245.13 623.12,295.33 566.13,334.44 C567.12,335.54 568.12,336.63 569.14,337.7 C569.14,337.7 561.49,358.89 575.27,366.43 C575.46,366.53 575.64,366.65 575.84,366.74 C576.47,367.05 577.2,367.3 577.91,367.55 C578.37,367.72 578.81,367.91 579.3,368.04 C580.49,368.37 581.76,368.64 583.18,368.82 C589.13,369.53 596.75,368.63 606.65,365.1 C606.65,365.1 595.45,381.4 612.15,394.69 L611.71,395.73 L609.1,401.9 L598.41,427.11 C598.41,427.11 601.9,428.66 608.23,430.44 C624.44,435 683.11,436.54 730.57,422.17 L737.31,370.34 C744.34,360.46 770.63,314.01 771.75,279.24 C772.6,253.16 734.26,241.02 722.23,226.59 Z" id="Path" stroke="#1F3B65" stroke-width="8.1797"></path>
                    <path d="M575.28,366.43 C575.47,366.53 575.65,366.64 575.85,366.74 C575.65,366.64 575.47,366.53 575.28,366.43 Z" id="Path" stroke="#1F3B65" stroke-width="8.1797"></path>
                    <path d="M577.92,367.55 C578.38,367.72 578.81,367.9 579.31,368.04 C578.81,367.91 578.38,367.72 577.92,367.55 Z" id="Path" stroke="#1F3B65" stroke-width="8.1797"></path>
                    <path d="M662.67,122.27 C640.08,65.65 553.04,116.69 553.04,116.69 L549.82,133.31 C549.82,133.31 450.85,166.55 457.85,213.35 C457.85,213.35 381.06,206.6 367.709656,291.05 C367.709656,291.05 366.85,423.75 451.19,430.83 C505.92,435.42 521.73,388.13 521.73,388.13 C521.73,388.13 585.58,426.83 609.11,401.89 L611.72,395.72 L612.16,394.68 C595.46,381.39 606.66,365.09 606.66,365.09 C596.76,368.62 589.15,369.52 583.19,368.81 C581.8,368.64 580.52,368.37 579.31,368.03 C578.81,367.89 578.38,367.7 577.92,367.54 C577.21,367.29 576.5,367.03 575.85,366.73 C575.65,366.63 575.47,366.52 575.28,366.42 C574.28,365.9 573.49,365.21 572.64,364.56 C562.6,355.9 569.15,337.68 569.15,337.68 C568.13,336.62 567.14,335.52 566.14,334.42 C623.13,295.32 633.47,245.11 630.85,207.22 C630.77,205.99 630.71,204.74 630.6,203.54 C651.88,196.03 680.69,167.45 662.67,122.27 Z" id="Path" stroke="#1F3B65" stroke-width="8.1797"></path>
                    <path d="M539.94,1315.9 L514.53,1465.87 C514.53,1465.87 477.76,1352.13 445.31,1306.1 C416.08,1264.64 418.98,1227.49 418.23,1224.19 C416.65,1217.23 466.3,1294.22 539.94,1315.9 Z" id="Path" stroke="#1F3B65" stroke-width="8.1797" fill="#1F3B65" fill-rule="nonzero"></path>
                </g>
                <path d="M1043.28,2116.17 C1045.58,2116.23 1047.78,2116.8 1048.09,2119.4 C1048.31,2121.3 1046.39,2122.29 1044.98,2121.72 C1043.09,2120.96 1040.76,2119.66 1040.08,2118 C1039.41,2116.35 1041.95,2116.46 1043.28,2116.17 Z" id="Path" fill="#3280AC" fill-rule="nonzero"></path>
                <path d="M3739.62,4643.31 C3737.29,4642.89 3735.55,4641.29 3735.53,4638.88 C3735.49,4634.33 3738.82,4633.56 3742.47,4633.75 C3745.3,4633.89 3746.38,4635.75 3745.62,4638.26 C3744.78,4641.02 3743.25,4643.39 3739.62,4643.31 Z" id="Path" fill="#3280AC" fill-rule="nonzero"></path>
                <circle id="Oval" stroke="#3280AC" stroke-width="8.1797" cx="4386.31" cy="513.23" r="314.43"></circle>
                <line x1="4016.02" y1="3971.96" x2="2608.69" y2="3971.96" id="Path" stroke="#3280AC" stroke-width="8.1797"></line>
                <line x1="2473.78" y1="3927.33" x2="2169.27" y2="3927.33" id="Path" stroke="#3280AC" stroke-width="17.3987"></line>
                <line x1="4016.02" y1="4092.09" x2="2527.99" y2="4092.09" id="Path" stroke="#3280AC" stroke-width="8.1797"></line>
                <g transform="translate(6172.000000, 312.000000)" id="Path" stroke="#3280AC" stroke-width="8.1797">
                    <polygon points="1850.03 229.9 0.99 221.37 1.93 0.29 1850.95 8.82"></polygon>
                    <polygon opacity="0.2" points="1850.03 229.9 0.99 221.37 1.93 0.29 1850.95 8.82"></polygon>
                </g>
                <g transform="translate(6512.000000, 986.000000)">
                    <rect id="Rectangle" stroke="#3280AC" stroke-width="8.1797" x="0.64" y="0.78" width="120.89" height="3728.32"></rect>
                    <polygon id="Path" fill="#3280AC" fill-rule="nonzero" points="58 17.25 73.94 44.87 89.89 72.49 58 72.49 26.1 72.49 42.05 44.87"></polygon>
                    <polygon id="Path" fill="#3280AC" fill-rule="nonzero" points="59.52 3690.61 43.57 3662.99 27.62 3635.36 59.52 3635.36 91.41 3635.36 75.46 3662.99"></polygon>
                </g>
                <path d="M4014.76,3733.37 C3978.39,3796.37 3887.45,3796.37 3851.08,3733.37 L3782.54,3614.66 C3746.17,3551.66 3655.23,3551.66 3618.86,3614.66 L3550.32,3733.37 C3513.95,3796.37 3423.01,3796.37 3386.64,3733.37 L3318.1,3614.66 C3281.73,3551.66 3190.79,3551.66 3154.42,3614.66 L3085.88,3733.37 C3049.51,3796.37 2958.57,3796.37 2922.2,3733.37 L2853.66,3614.66 C2817.29,3551.66 2726.35,3551.66 2689.98,3614.66 L2621.44,3733.37" id="Path" stroke="#3280AC" stroke-width="8.1797"></path>
                <path d="M7933.15,1984.39 L6814.54,1984.39 C6759.88,1984.39 6715.56,1940.08 6715.56,1885.41 L6715.56,766.8 C6715.56,712.14 6759.87,667.82 6814.54,667.82 L7933.15,667.82 C7987.81,667.82 8032.13,712.13 8032.13,766.8 L8032.13,1885.41 C8032.13,1940.08 7987.82,1984.39 7933.15,1984.39 Z" id="Path" stroke="#3280AC" stroke-width="8.1797"></path>
                <line x1="6914.52" y1="863.42" x2="7879.68" y2="1828.58" id="Path" stroke="#3280AC" stroke-width="8.1797"></line>
                <path d="M6944.22,1798.88 C7023.41,1709.79 7849.98,893.12 7849.98,893.12" id="Path" stroke="#3280AC" stroke-width="8.1797"></path>
                <circle id="Oval" fill="#3280AC" fill-rule="nonzero" cx="2241.96" cy="754.93" r="87.35"></circle>
                <circle id="Oval" fill="#3280AC" fill-rule="nonzero" cx="4925.5" cy="524.96" r="117.58"></circle>
                <circle id="Oval" fill="#3280AC" fill-rule="nonzero" cx="2657.85" cy="490.7" r="147.14"></circle>
                <circle id="Oval" fill="#3280AC" fill-rule="nonzero" cx="3004.01" cy="525.17" r="117.58"></circle>
                <circle id="Oval" fill="#3280AC" fill-rule="nonzero" cx="3402.63" cy="503.6" r="117.58"></circle>
                <circle id="Oval" stroke="#3280AC" stroke-width="8.1797" cx="7397.1" cy="1346" r="355.19"></circle>
                <path d="M2258.75,757.69 L3848.98,757.69 C3962.52,757.69 4054.56,849.73 4054.56,963.27 L4054.56,1032.96" id="Path" stroke="#3280AC" stroke-width="8.1797"></path>
                <line x1="2665.1" y1="532.84" x2="2887.94" y2="756.07" id="Path" stroke="#3280AC" stroke-width="8.1797"></line>
                <line x1="2973.15" y1="532.84" x2="3195.98" y2="756.07" id="Path" stroke="#3280AC" stroke-width="8.1797"></line>
                <polyline id="Path" stroke="#3280AC" stroke-width="8.1797" points="3448.51 503.99 3776.21 503.99 3776.21 759.6"></polyline>
                <circle id="Oval" fill="#3280AC" fill-rule="nonzero" cx="6276.37" cy="4624.57" r="117.58"></circle>
                <circle id="Oval" fill="#3280AC" fill-rule="nonzero" cx="5004.82" cy="4899.52" r="117.58"></circle>
                <circle id="Oval" fill="#3280AC" fill-rule="nonzero" cx="4675.38" cy="4906.39" r="117.58"></circle>
                <circle id="Oval" fill="#3280AC" fill-rule="nonzero" cx="3171.14" cy="4939.86" r="117.58"></circle>
                <path d="M6230.5,4624.57 L2901.98,4624.57 C2788.44,4624.57 2696.4,4532.53 2696.4,4418.99" id="Path" stroke="#3280AC" stroke-width="8.1797"></path>
                <line x1="4988.78" y1="4841.24" x2="4765.94" y2="4618.02" id="Path" stroke="#3280AC" stroke-width="8.1797"></line>
                <line x1="4680.74" y1="4854.35" x2="4457.9" y2="4631.12" id="Path" stroke="#3280AC" stroke-width="8.1797"></line>
                <circle id="Oval" fill="#3280AC" fill-rule="nonzero" cx="4113.91" cy="4906.39" r="117.58"></circle>
                <polyline id="Path" stroke="#3280AC" stroke-width="8.1797" points="4068.03 4899.84 3740.33 4899.84 3740.33 4644.23"></polyline>
                <path d="M4925.5,524.96 C4925.5,489.91 4925.5,0.15 4925.5,0.15 L5658.99,0.15 C5858.87,0.15 6020.9,162.18 6020.9,362.06 L6020.9,1335.25" id="Path" stroke="#3280AC" stroke-width="8.1797"></path>
                <path d="M7981.88,3503.86 L6782.3,3503.86 C6750.63,3503.86 6724.95,3478.18 6724.95,3446.51 L6724.95,2680.39 C6724.95,2648.71 6750.63,2623.04 6782.3,2623.04 L7981.88,2623.04 C8013.55,2623.04 8039.23,2648.72 8039.23,2680.39 L8039.23,3446.51 C8039.23,3478.18 8013.55,3503.86 7981.88,3503.86 Z" id="Path" stroke="#3280AC" stroke-width="8.1797"></path>
                <g transform="translate(1049.000000, 549.000000)" fill="#3280AC" fill-rule="nonzero">
                    <circle id="Oval" cx="31.74" cy="33.36" r="30.96"></circle>
                    <path d="M385.17,52.69 L131.1,52.69 C116.75,52.69 105.12,41.06 105.12,26.71 L105.12,26.71 C105.12,12.36 116.75,0.73 131.1,0.73 L385.17,0.73 C399.52,0.73 411.150006,12.36 411.150006,26.71 L411.150006,26.71 C411.16,41.06 399.52,52.69 385.17,52.69 Z" id="Path"></path>
                </g>
                <path d="M1206.98,1509.33 C1380.63489,1509.33 1521.41,1368.55489 1521.41,1194.9 C1521.41,1021.24511 1380.63489,880.47 1206.98,880.47 C1033.32511,880.47 892.55,1021.24511 892.55,1194.9 C892.55,1368.55489 1033.32511,1509.33 1206.98,1509.33 Z" id="Oval" stroke="#43789C" stroke-width="8.1797" stroke-dasharray="108.1522"></path>
                <rect id="Rectangle" fill="#43789C" fill-rule="nonzero" x="868.33" y="2054.91" width="695" height="25.95"></rect>
                <rect id="Rectangle" fill="#43789C" fill-rule="nonzero" x="868.33" y="2151.61" width="742.86" height="28.31"></rect>
                <rect id="Rectangle" fill="#43789C" fill-rule="nonzero" x="868.33" y="2249.43" width="742.86" height="28.31"></rect>
                <rect id="Rectangle" fill="#43789C" fill-rule="nonzero" x="868.33" y="1914.47" width="309.13" height="67.31"></rect>
                <path d="M1177.76,3033.1 C1184.05,3035.58 1193.69,3031.47 1194.48,3042.4 C1194.98,3049.29 1188.07,3054.11 1179.49,3053.36 C1171.8,3052.68 1166.43,3047.63 1167.14,3041.23 C1167.85,3034.78 1171.79,3032.16 1177.76,3033.1 Z" id="Path" fill="#3280AC" fill-rule="nonzero"></path>
                <path d="M1144.0202,2992.51 C1144.06,2999.07 1137.98,3005.65 1131.74,3005.44 C1124.09,3005.18 1122.19,2999.42 1121.81,2993.25 C1121.38,2986.15 1127.1,2980.16 1133.58,2980.65 C1140.88,2981.21 1143.1,2986.52 1144.0202,2992.51 Z" id="Path" fill="#3280AC" fill-rule="nonzero"></path>
                <circle id="Oval" stroke="#3280AC" stroke-width="8.1797" cx="1133.07" cy="1223.01" r="314.43"></circle>
                <g transform="translate(924.000000, 1003.000000)" id="Path" stroke="#3280AC" stroke-width="8.1797">
                    <path d="M217.25,203.65 C253.7,188.36 279.62,150.78 279.83,106.49 C280.07,48.47 236.16,1.24 181.76,0.989003681 C127.38,0.74 83.08,47.57 82.84,105.58 C82.66,150.28 108.76,188.31 145.6,203.65 C-5.98,226.49 0.9,391.23 0.9,391.23 L359.34,392.88 C359.33,392.88 367.51,226.34 217.25,203.65 Z"></path>
                    <path d="M217.25,203.65 C253.7,188.36 279.62,150.78 279.83,106.49 C280.07,48.47 236.16,1.24 181.76,0.989003681 C127.38,0.74 83.08,47.57 82.84,105.58 C82.66,150.28 108.76,188.31 145.6,203.65 C-5.98,226.49 0.9,391.23 0.9,391.23 L359.34,392.88 C359.33,392.88 367.51,226.34 217.25,203.65 Z" opacity="0.1"></path>
                </g>
                <g transform="translate(6742.000000, 2512.000000)">
                    <g>
                        <path d="M314.86,34.07 C314.86,34.07 308.53,22.48 264.6,14.55 C220.67,6.62 235.88,27.66 235.88,27.66 L249.16,36.08 C249.16,36.08 101.4,-12.89 33.09,19.13 L261.49,83.17 L314.86,34.07 Z" id="Path" fill="#376E9F" fill-rule="nonzero"></path>
                        <path d="M496.3,27.67 C496.3,27.67 438.67,12.73 400.24,14.86 C361.82,16.99 308.46,15.86 308.46,15.86 L342.6,49.02 L370.46,50.05 L496.3,27.67 Z" id="Path" fill="#43789C" fill-rule="nonzero"></path>
                        <path d="M608.46,1246.84 C662.49,1287.51 839.96,1204.67 953.27,1144.31 C966.78,1137.12 979.38,1130.24 990.75,1123.93 C996.58,1120.69 1002.07,1117.62 1007.21,1114.71 L1458.54,2472.52 L1403.13,2551.35 C1403.13,2551.35 1178.91,2306.02 1112.73,2152.34 C1073.21,2060.55 940.67,1645.94 882.62,1516.7 C796,1758.16 702.58,2570.35 702.58,2570.35 L604.48,2588.37 L608.46,1246.84 Z" id="Path" fill="#488FBA" fill-rule="nonzero"></path>
                        <g transform="translate(228.000000, 19.000000)">
                            <path d="M372.4,397.62 L237.73,222.23 C222.02,182.77 153.39,21.48 153.39,21.48 L279.33,8.67 L441.56,219.99 L513.94,400.14 C458.69,421.04 372.4,397.62 372.4,397.62 Z" id="Path" fill="#43789C" fill-rule="nonzero"></path>
                            <path d="M8.96,55.99 L62.32,6.9 L221.37,214.05 L356.04,389.44 C356.04,389.44 442.33,412.86 497.58,391.97 C506.42,388.63 514.49,384.2 521.25,378.31 C521.25,378.31 778.35,634.22 807.28,1069.92 C807.28,1069.92 363.96,1338.53 348.34,1197.99 C346.21,1178.78 290.37,903.96 280.03,711.3 C271.13,544.98 8.96,55.99 8.96,55.99 Z" id="Path" fill="#43789C" fill-rule="nonzero"></path>
                            <path d="M347.86,389.44 L213.19,214.05 C197.48,174.59 128.85,13.3 128.85,13.3 L254.79,0.49 L417.02,211.81 L489.4,391.96 C434.15,412.86 347.86,389.44 347.86,389.44 Z" id="Path" stroke="#1F3B65" stroke-width="8.1797"></path>
                            <path d="M492.97,120.77 L376.07,122.04 C376.07,122.04 348.64,106.68 350.68,164.39 C350.68,164.39 268.08,251.02 309.49,308.36 C319.04,321.59 331.98,321.83 356.87,332.08 L347.87,389.43 L500.36,385.89 L543.6,331.28 C543.6,331.28 579.89,222.31 578.94,216.89 C577.99,211.48 492.97,120.77 492.97,120.77 Z" id="Path" fill="#488FBA" fill-rule="nonzero"></path>
                            <path d="M502.57,126.13 L385.67,127.4 C385.67,127.4 358.24,112.04 360.28,169.75 C360.28,169.75 239.99,282.92 372.7,337.58 L352.81,394 C352.81,394 428.91,402.05 452.46,400.76 C465.8,400.03 500.36,385.9 500.36,385.9 L532.15,331.29 C532.15,331.29 589.5,227.68 588.55,222.27 C587.59,216.85 502.57,126.13 502.57,126.13 Z" id="Path" fill="#376E9F" fill-rule="nonzero"></path>
                            <path d="M364.42,249.54 C364.42,249.54 346.4,242.53 346.49,221.96" id="Path" stroke="#1F3B65" stroke-width="8.1335"></path>
                            <ellipse id="Oval" fill="#1F3B65" fill-rule="nonzero" transform="translate(429.321693, 163.524151) rotate(-19.797583) translate(-429.321693, -163.524151) " cx="429.321693" cy="163.524151" rx="7.05003701" ry="5.64002961"></ellipse>
                            <path d="M507.91,340.19 L500.36,385.89 C500.36,385.89 445.31,418.37 347.87,389.43 L356.87,332.07 C335.06,322.07 311.55,319.22 303.9,297.97 C290,259.37 314.45,204.76 344.45,164.23 C344.45,164.23 346.05,127.15 359.59,129.4 C359.59,129.4 423.9,129.06 430.29,126.16 C499.36,94.83 538.52,133.06 557.35,185.36 C568.31,215.81 558.46,249.96 534.23,278.25" id="Path" stroke="#1F3B65" stroke-width="8.1335"></path>
                            <path d="M519.34,295.44 C519.34,295.44 507.38,322.63 488.05,303.31" id="Path" stroke="#1F3B65" stroke-width="10.5804"></path>
                            <path d="M447.62,125.76 C447.62,125.76 440.88,280.11 538.49,281.7 C538.49,281.7 551.08,329 495.2,329.47 C439.31,329.94 539.24,412.88 587,386.57 L606.84,376.7 C617.12,371.59 625.58,363.43 631.06,353.34 L637.29,341.88 C637.29,341.88 691.78,312.96 686.83,305.21 C681.89,297.47 701.17,285.53 703.13,255.77 C705.09,226.01 687.3,221.9 687.3,221.9 C687.3,221.9 615.51,174.54 616.25,166.52 C617,158.5 590.56,133.58 590.56,133.58 C590.56,133.58 592.51,99.78 578.44,80.33 C549.36,40.13 485.49,12.09 430.28,126.18 L447.62,125.76 Z" id="Path" fill="#1E4873" fill-rule="nonzero"></path>
                            <path d="M414.33,92.1 C414.33,92.1 419.83,139.22 447.62,125.77 C447.62,125.77 432.47,100.09 440.07,60.11" id="Path" stroke="#1F3B65" stroke-width="10.5804"></path>
                            <path d="M463.45,105.38 C469.33,82.29 525.3,33.76 569.74,87.18 C577.2,96.15 572.65,113.38 579.96,128.32" id="Path" stroke="#1F3B65" stroke-width="10.5804"></path>
                            <path d="M457.09,142.56 C460.05,147.19 458.15,302.95 615.97,277.44" id="Path" stroke="#1F3B65" stroke-width="10.5804"></path>
                            <path d="M488.69,188.12 C492.88,189.96 559.59,269.29 609.05,247.74" id="Path" stroke="#1F3B65" stroke-width="10.5804"></path>
                            <path d="M567.62,307.81 C563.94,316.18 529.88,359.5 491.14,349.12" id="Path" stroke="#1F3B65" stroke-width="10.5804"></path>
                            <path d="M556.13,171.15 C556.13,171.15 636.3,163.11 677.05,214.36" id="Path" stroke="#1F3B65" stroke-width="10.5804"></path>
                            <path d="M584.26,326.79 C594.64,329.69 667.65,348.34 686.83,305.22" id="Path" stroke="#1F3B65" stroke-width="10.5804"></path>
                            <path d="M0.78,55.99 L54.14,6.9 L213.19,214.05 L347.86,389.44 C347.86,389.44 434.15,412.86 489.4,391.97 C498.24,388.63 506.31,384.2 513.07,378.31 C513.07,378.31 770.17,634.22 799.1,1069.92 C799.1,1069.92 355.78,1338.53 340.16,1197.99 C338.03,1178.78 282.19,903.96 271.85,711.3 C262.95,544.98 0.78,55.99 0.78,55.99 Z" id="Path" stroke="#1F3B65" stroke-width="8.1797"></path>
                        </g>
                        <path d="M282.15,25.89 C282.15,25.89 275.82,14.3 231.89,6.37 C187.96,-1.56 203.17,19.48 203.17,19.48 L216.45,27.9 C216.45,27.9 68.69,-21.07 0.38,10.95 L228.78,74.99 L282.15,25.89 Z" id="Path" stroke="#1F3B65" stroke-width="8.1797"></path>
                        <path d="M463.59,19.49 C463.59,19.49 405.96,4.55 367.53,6.68 C329.11,8.81 275.75,7.68 275.75,7.68 L309.89,40.84 L337.75,41.87 L463.59,19.49 Z" id="Path" stroke="#1F3B65" stroke-width="8.1797"></path>
                        <g transform="translate(457.000000, 1114.000000)" id="Path" stroke="#1F3B65" stroke-width="8.1797">
                            <path d="M513.57,14.51 C512.03,15.6 509.22,9.93 509.22,9.93 C515.05,6.69 520.54,3.62 525.68,0.71 L977.02,1358.52 L921.61,1437.35 C921.61,1437.35 697.39,1192.02 631.21,1038.34 C591.69,946.55 459.15,531.94 401.1,402.7 C410.89,375.4 420.35,353.19 429.24,337.8 C516.75,186.24 513.57,14.51 513.57,14.51 Z"></path>
                            <path d="M126.93,132.84 C180.96,173.51 358.43,90.67 471.74,30.31 C485.25,23.12 497.85,16.24 509.22,9.93 C509.22,9.93 512.03,15.59 513.57,14.51 C513.57,14.51 516.75,186.25 429.23,337.8 C420.34,353.2 410.89,375.4 401.09,402.7 C314.47,644.16 221.05,1456.35 221.05,1456.35 L122.95,1474.37 L126.93,132.84 Z"></path>
                            <path d="M221.06,1456.35 C221.06,1456.35 266.94,1523.06 262.51,1534.57 C258.08,1546.08 51.77,1642.59 8.39,1616.92 C-35,1591.24 122.42,1527.52 122.96,1474.38 L221.06,1456.35 Z" fill="#1F3B65" fill-rule="nonzero"></path>
                            <path d="M977.01,1358.53 C977.01,1358.53 1000.26,1394.95 1011.59,1414.15 C1030.26,1445.76 946.07,1502.69 944.3,1525.72 C942.53,1548.75 884.09,1570.88 864.61,1563.79 C864.61,1563.79 838.93,1562.02 857.53,1533.68 C876.12,1505.35 923.7,1450.83 921.61,1437.36 L977.01,1358.53 Z" fill="#1F3B65" fill-rule="nonzero"></path>
                        </g>
                    </g>
                    <path d="M449.82,538.27 L622.58,838.33 C622.58,838.33 565.91,766.26 516.96,703.32 C501.24,683.11 449.82,538.27 449.82,538.27 Z" id="Path" fill="#1F3B65" fill-rule="nonzero"></path>
                    <path d="M353.26,26.9 L437.6,227.65 L572.27,403.04 L581.27,345.69 C581.27,345.69 534.43,337.21 528.3,311.59 C522.17,285.97 534.73,238.65 534.73,238.65 L370.55,27.15 L353.26,26.9 Z" id="Path" fill="#1F3B65" fill-rule="nonzero"></path>
                    <path d="M854.5,1511.31 L939.84,1697.97 L968.87,1196.6 C968.87,1196.6 921.73,1356.88 882.64,1446.41 C869.61,1476.25 866.81,1509.5 854.5,1511.31 Z" id="Path" fill="#1F3B65" fill-rule="nonzero"></path>
                    <path d="M580.33,1241.44 C580.33,1241.44 660.13,1420.89 968.87,1146.46 L995.26,1133.27 L979.09,1109.33 C979.08,1109.32 715.54,1267.84 580.33,1241.44 Z" id="Path" fill="#1F3B65" fill-rule="nonzero"></path>
                </g>
                <g transform="translate(4383.000000, 3421.000000)">
                    <path d="M411.26,291.89 C382.07,302.18 359.19,312.24 359.19,312.24 L354.97,289.26 C490.8,211.54 385.5,119.67 385.5,119.67 L403.71,81.5 C409,70.4 404.73,56.43 393.41,51.63 C388.47,49.54 382.52,49.22 375.79,52.45 L312.31,76.35 L261.61,51.59 C250.74,46.67 222.42,58.94 222.42,58.94 C98.32,106.3 178.22,160.04 192.48,189.83 C206.75,219.62 192.77,204.56 224.08,197.47 C255.39,190.37 249.93,218.48 249.93,218.48 C212.74,260.98 261.58,304.73 261.58,304.73 L267.7,330.84 L268.63,336.34 C268.63,336.34 234.34,349.96 192.53,370.81 C347.66,518.61 397.48,361.42 411.26,291.89 Z" id="Path" fill="#31637F" fill-rule="nonzero"></path>
                    <path d="M1082.23,38.04 L1079.25,42.21 C1079.36,42.53 1079.38,42.89 1079.16,43.25 L1006.03,167.4 C1006.03,167.4 1071.6,160.31 1069.83,181.58 C1068.06,202.85 961.73,217.02 961.73,217.02 L904.69,286.4 L756.62,493.53 C757.03,493.89 757.25,494.09 757.25,494.09 L731.28,528.97 L580.23,740.26 L497.6,855.84 C500.29,855.8 507,856.39 505.01,858.62 C484.02,882.3 498.21,899.37 486.89,913.37 C502.22,906.11 544.53,897.66 563.6,904.73 C578.77,910.36 590.85,935.37 597.98,945.17 L777.83,668.01 L981.57,379.69 L1177.93,101.81 L1082.23,38.04 Z" id="Path" fill="#488FBA" fill-rule="nonzero"></path>
                    <path d="M790.82,668.9 C802.61,676.2 822.02,684.76 840.03,676.88 C868.38,664.47 994.56,380.58 994.56,380.58 L790.82,668.9 Z" id="Path" fill="#43789C" fill-rule="nonzero"></path>
                    <path d="M568.65,521.56 L688.76,604.39 L744.26,529.84 L807.66,453.07 C795.27,442.02 562.53,309.66 534.78,284.44 C517.67,268.89 460.65,284.65 417.45,299.89 C403.67,369.43 353.86,526.61 198.72,378.8 C148.83,403.67 90.48,440.63 62.21,473.5 C-33.15,584.37 34.32,913.1 34.32,913.1 C136.58,1077.78 412.83,999.93 412.83,999.93 L456.65,913.1 C456.65,913.1 489.44,857 510.58,856.73 L635.24,693.97 L568.65,521.56 Z" id="Path" fill="#43789C" fill-rule="nonzero"></path>
                    <polygon id="Path" fill="#43789C" fill-rule="nonzero" points="922.21 195.85 917.67 287.27 968.53 216.12"></polygon>
                    <path d="M404.06,999.92 C431.46,1047.35 535.27,1005.55 535.27,1005.55 C542.84,1013.75 558.71,1024.04 569.35,1027.01 C586.3,1031.73 590.73,1033.56 594.73,1029.57 C601.23,1023.07 555.12,985.33 555.12,985.33 L527.82,982.51 L559.36,973.1 C559.36,973.1 599.36,1010.91 602.19,1003.22 C602.19,1003.22 612.98,994.48 605.82,983.74 C605.82,983.74 615.86,974.27 602.8,958.24 C602.8,958.24 606.94,958.47 602.94,948.6 C598.94,938.73 582.01,918.56 575.29,909.44 C561.63,890.9 493.97,913.37 493.97,913.37 C493.97,913.37 491.46,874.34 507.47,859.95 C516.47,851.87 494.85,853.56 478.1,869.65 C462.25,884.87 446.98,910.08 447.89,913.11" id="Path" fill="#31637F" fill-rule="nonzero"></path>
                    <path d="M1083.46,43.07 C1083.21,42.31 1082.3,41.81 1081.49,42.37 L985.43,109.78 C985.43,109.78 919.86,166.49 928.72,200.16 L960.38,215.24 L965.93,217.89 C965.93,217.89 1072.26,203.71 1074.03,182.45 C1075.8,161.18 1010.23,168.27 1010.23,168.27 L1083.36,44.12 C1083.59,43.75 1083.57,43.39 1083.46,43.07 Z" id="Path" fill="#31637F" fill-rule="nonzero"></path>
                    <path d="M426.36,291.04 C397.17,301.33 374.29,311.39 374.29,311.39 L370.07,288.41 C505.9,210.69 400.6,118.82 400.6,118.82 L418.8,80.65 C424.09,69.55 419.82,55.58 408.5,50.78 C403.56,48.69 397.61,48.37 390.88,51.6 L327.4,75.5 L276.7,50.74 C265.83,45.82 237.51,58.09 237.51,58.09 C113.41,105.45 193.31,159.19 207.57,188.98 C221.84,218.77 207.86,203.71 239.17,196.62 C270.48,189.52 265.02,217.63 265.02,217.63 C227.83,260.13 276.67,303.88 276.67,303.88 L282.79,329.99 L283.72,335.49 C283.72,335.49 249.43,349.11 207.62,369.96 C362.77,517.76 412.58,360.58 426.36,291.04 Z" id="Path" stroke="#1F3B65" stroke-width="8.7772"></path>
                    <path d="M456.89,912.93 C456.89,912.93 250.27,926.67 209.48,800.27 C168.69,673.87 174,584.89 174,584.89 C174,584.89 180.64,903.63 456.89,912.93 Z" id="Path" stroke="#1F3B65" stroke-width="8.7772" fill="#1F3B65" fill-rule="nonzero"></path>
                    <path d="M421.61,991.14 C449.01,1038.57 552.82,996.77 552.82,996.77 C560.39,1004.97 576.26,1015.26 586.9,1018.23 C603.85,1022.95 608.28,1024.78 612.28,1020.79 C618.78,1014.29 572.67,976.55 572.67,976.55 L545.37,973.73 L576.91,964.32 C576.91,964.32 616.91,1002.13 619.74,994.44 C619.74,994.44 630.53,985.7 623.37,974.96 C623.37,974.96 633.41,965.49 620.35,949.46 C620.35,949.46 624.49,949.69 620.49,939.82 C616.49,929.95 599.56,909.78 592.84,900.66 C579.18,882.12 511.52,904.59 511.52,904.59 C511.52,904.59 509.01,865.56 525.02,851.17 C534.02,843.09 512.4,844.78 495.65,860.87 C479.8,876.09 464.53,901.3 465.44,904.33" id="Path" stroke="#1F3B65" stroke-width="8.7772"></path>
                    <polygon id="Path" stroke="#1F3B65" stroke-width="8.7772" points="977.94 206.46 977.31 207.34 983.49 209.11"></polygon>
                    <path d="M799.59,660.12 C811.38,667.42 830.79,675.98 848.8,668.1 C877.15,655.69 1003.33,371.8 1003.33,371.8 L799.59,660.12 Z" id="Path" stroke="#1F3B65" stroke-width="8.7772"></path>
                    <polygon id="Path" points="577.43 512.79 601.99 732.36 753.03 521.07 697.54 595.62"></polygon>
                    <path d="M577.43,512.79 L697.54,595.62 L753.04,521.07 L816.15,441.19 C803.76,430.13 571.31,300.9 543.56,275.67 C526.45,260.12 469.43,275.88 426.23,291.12 C412.45,360.66 362.64,517.84 207.5,370.03 C157.61,394.9 101.66,434.08 70.99,464.73 C-68.22,603.86 43.1,904.33 43.1,904.33 C145.36,1069.01 421.61,991.16 421.61,991.16 L465.43,904.33 C465.43,904.33 498.22,848.23 519.36,847.96 L642.64,681.03 L577.43,512.79 Z" id="Path" stroke="#1F3B65" stroke-width="8.7772"></path>
                    <path d="M1104,30.12 L1101.02,34.29 C1101.13,34.61 1101.14,34.97 1100.93,35.33 L1027.8,159.48 C1027.8,159.48 1093.37,152.39 1091.6,173.66 C1089.83,194.93 983.5,209.1 983.5,209.1 L926.46,278.48 L778.39,485.61 C778.8,485.97 779.02,486.17 779.02,486.17 L753.05,521.05 L602,732.34 L519.37,847.92 C522.06,847.88 528.77,848.47 526.78,850.7 C505.79,874.38 519.98,891.45 508.66,905.45 C523.99,898.19 566.3,889.74 585.37,896.81 C600.54,902.43 612.62,927.45 619.75,937.25 L799.6,660.09 L1003.34,371.77 L1199.7,93.89 L1104,30.12 Z" id="Path" stroke="#1F3B65" stroke-width="8.7772"></path>
                    <path d="M779,486.18 C779,486.18 778.78,485.98 778.37,485.62 L753.03,521.06 L779,486.18 Z" id="Path" stroke="#1F3B65" stroke-width="8.7772"></path>
                    <polygon id="Path" stroke="#1F3B65" stroke-width="8.7772" points="930.99 187.07 926.45 278.49 977.31 207.34"></polygon>
                    <polygon id="Path" stroke="#1F3B65" stroke-width="8.7772" points="977.31 207.34 926.45 278.49 983.49 209.11"></polygon>
                    <path d="M1101.01,34.29 C1100.76,33.53 1099.85,33.03 1099.04,33.59 L1002.98,101 C1002.98,101 937.41,157.71 946.27,191.38 L977.93,206.46 L983.48,209.11 C983.48,209.11 1089.81,194.93 1091.58,173.67 C1093.35,152.4 1027.78,159.49 1027.78,159.49 L1100.91,35.34 C1101.14,34.97 1101.12,34.62 1101.01,34.29 Z" id="Path" stroke="#1F3B65" stroke-width="8.7772"></path>
                    <circle id="Oval" fill="#1F3B65" fill-rule="nonzero" cx="292.29" cy="120.63" r="9.33"></circle>
                    <path d="M572.51,507.41 C572.51,507.41 559.67,435.03 564.7,445.07 C569.73,455.11 705.34,578.18 705.34,578.18 L697.54,595.61 L572.51,507.41 Z" id="Path" fill="#1F3B65" fill-rule="nonzero"></path>
                    <path d="M807.23,651.24 C807.23,651.24 844.05,674.25 865.91,653.54 C865.91,653.54 847.5,680 821.04,670.8 C794.58,661.6 799.59,660.12 799.59,660.12 L807.23,651.24 Z" id="Path" fill="#1F3B65" fill-rule="nonzero"></path>
                    <path d="M284.25,269.87 C284.25,269.87 276.99,291.96 238.34,257.17" id="Path" stroke="#1F3B65" stroke-width="8.7772"></path>
                    <path d="M276.71,50.74 C276.71,50.74 181.07,-82.67 52.58,86.88 C-75.91,256.43 81.72,310.74 109.54,322.66 C137.36,334.58 276.68,303.87 276.68,303.87 C276.68,303.87 240.67,261.73 249.95,240.54 C263.14,210.4 271.69,197.06 239.18,196.62 C207.45,196.19 224.04,199.24 224.08,197.46 C224.08,197.46 143.98,130.6 181.07,93.51 C200.35,74.22 245.18,49.03 276.71,50.74 Z" id="Path" fill="#1F3B65" fill-rule="nonzero"></path>
                </g>
                <path d="M1923.18,2964.73 C1923.18,3042.56 1860.08,3105.66 1782.25,3105.66 L627.2,3105.66 C549.37,3105.66 486.27,3042.56 486.27,2964.73 L486.27,567.75 C486.27,489.92 549.37,426.82 627.2,426.82 L1782.25,426.82 C1860.08,426.82 1923.18,489.92 1923.18,567.75 L1923.18,993.38" id="Path" stroke="#3280AC" stroke-width="8.1797"></path>
                <g transform="translate(1736.000000, 995.000000)">
                    <path d="M4501.61,3428.9 L166.75,3428.9 C77.61,3428.9 5.35,3356.64 5.35,3267.5 L5.35,161.63 C5.35,72.49 77.61,0.23 166.75,0.23 L4501.61,0.23 C4590.75,0.23 4663.01,72.49 4663.01,161.63 L4663.01,3267.5 C4663.01,3356.64 4590.74,3428.9 4501.61,3428.9 Z" id="Path" stroke="#3280AC" stroke-width="8.1797"></path>
                    <path d="M4510.65,16.05 L198.89,16.05 C124.78,16.05 64.14,71.21 64.14,138.63 L64.14,414.65 L4645.4,414.65 L4645.4,138.63 C4645.4,71.21 4584.76,16.05 4510.65,16.05 Z" id="Path" fill="#3280AC"></path>
                    <line x1="0.5" y1="419.21" x2="4658.15" y2="419.21" id="Path" stroke="#3280AC" stroke-width="8.1797"></line>
                    <circle id="Oval" stroke="#3280AC" stroke-width="8.1797" fill="#488FBA" cx="4414.17" cy="223.38" r="61"></circle>
                    <circle id="Oval" stroke="#3280AC" stroke-width="8.1797" fill="#488FBA" cx="4166.97" cy="223.38" r="61"></circle>
                    <circle id="Oval" stroke="#3280AC" stroke-width="8.1797" fill="#488FBA" cx="3919.77" cy="223.38" r="61"></circle>
                </g>
                <g transform="translate(645.000000, 2404.000000)" fill-rule="nonzero">
                    <g>
                        <g id="Path">
                            <path d="M101.22,767.9 L1231.84,767.9 C1287.5,767.9 1332.62,722.78 1332.62,667.12 L1332.62,123.77 L0.44,123.77 L0.44,667.12 C0.44,722.78 45.56,767.9 101.22,767.9 Z" fill="#488FBA"></path>
                            <path d="M0.44,80.33 L0.44,123.77 L1332.62,123.77 L1332.62,80.33 C1332.62,36.11 1296.78,0.27 1252.56,0.27 L80.5,0.27 C36.28,0.27 0.44,36.12 0.44,80.33 Z" fill="#43789C"></path>
                        </g>
                        <rect id="Rectangle" fill="#43789C" x="175.71" y="409.84" width="884.51" height="25.95"></rect>
                        <rect id="Rectangle" fill="#43789C" x="175.71" y="506.54" width="945.43" height="28.31"></rect>
                        <rect id="Rectangle" fill="#43789C" x="175.71" y="604.36" width="945.43" height="28.31"></rect>
                        <rect id="Rectangle" fill="#43789C" x="175.71" y="269.4" width="309.12" height="67.31"></rect>
                    </g>
                    <g transform="translate(1194.000000, 18.000000)" fill="#43789C" id="Path">
                        <path d="M0.44,86.83 C-1.26,85.2 15.9,64.5 38.77,40.59 C61.65,16.67 81.57,-1.39 83.27,0.23 C84.97,1.86 67.81,22.56 44.93,46.47 C22.07,70.39 2.14,88.46 0.44,86.83 Z"></path>
                        <path d="M83.28,86.83 C81.58,88.46 61.66,70.39 38.79,46.48 C15.9,22.56 -1.25,1.86 0.45,0.24 C2.15,-1.39 22.06,16.68 44.94,40.6 C67.81,64.5 84.98,85.21 83.28,86.83 Z"></path>
                    </g>
                </g>
                <g transform="translate(610.000000, 2419.000000)" id="Path" stroke="#3280AC" stroke-width="8.1797">
                    <path d="M100.78,768.09 L1231.4,768.09 C1287.06,768.09 1332.18,722.97 1332.18,667.31 L1332.18,123.96 L0,123.96 L0,667.31 C0,722.96 45.12,768.09 100.78,768.09 Z"></path>
                    <path d="M0,80.52 L0,123.96 L1332.18,123.96 L1332.18,80.52 C1332.18,36.3 1296.34,0.46 1252.12,0.46 L80.06,0.46 C35.85,0.46 0,36.3 0,80.52 Z"></path>
                </g>
                <g transform="translate(0.000000, 397.000000)">
                    <g>
                        <path d="M515.1,399.41 C516.49,349.5 467,365.15 467,365.15 C449.57,467.94 395.21,391.97 370.81,383.03 C346.41,374.09 333.87,389.73 332.47,393.46 C331.07,397.19 336.65,441.13 336.65,441.13 C336.65,441.13 303.89,402.4 299.71,444.85 C295.53,487.31 324.8,490.29 324.8,490.29 L316.44,514.13 L374.55,571.01 L382.65,545.41 L407.74,558.82 C424.01,564.4 437.69,567.08 449.2,567.61 C463.05,568.24 477.76,575.26 486.03,570.9 C494.29,566.55 496.09,550.82 500.19,544.01 C511.78,524.74 516.35,499.15 516.35,499.15 L538.01,493.36 C548.18,491.68 553.15,479.16 547.21,470.18 L525.52,423.84 L515.1,399.41 Z" id="Path" fill="#2F759D" fill-rule="nonzero"></path>
                        <path d="M710.47,612.27 C710.47,612.27 758.9,567.38 772.2,580.68 C772.2,580.68 869.43,556.96 871.95,585.67 C874.47,614.37 753.93,669.17 753.93,669.17 L710.47,612.27 Z" id="Path" fill="#2F759D" fill-rule="nonzero"></path>
                        <path d="M421.78,225.42 C420.18,216.61 538.16,20.93 558.11,9.29 C578.06,-2.35 775.9,-12.32 772.57,50.85 L673.56,52.37 C673.56,52.37 704.41,52.52 694.43,74.13 C684.45,95.74 616.29,64.15 616.29,64.15 C616.29,64.15 552.81,103.62 548.13,138.96 C543.45,174.3 515.94,243.82 515.94,243.82 C515.94,243.82 425.1,243.7 421.78,225.42 Z" id="Path" fill="#2F759D" fill-rule="nonzero"></path>
                        <g transform="translate(0.000000, 500.000000)" fill-rule="nonzero" id="Path">
                            <path d="M578.32,741.1 L555.92,1175.14 L659.71,1165.91 C659.71,1165.91 889.68,558.89 790.51,482.78 C700.75,413.9 466.25,540.88 422.53,565.62 L409.61,641.8 C309.22,731.98 95.53,680.1 23.53,639.86 C18.77,637.2 12.8,639.77 11.51,645.07 C3.44,678.11 0.57,693.86 37.11,784.6 C57.11,834.27 123.8,887.31 161.83,950.6 C301.22,1182.54 463.49,1792.56 596.25,1880.17 C599.35,1882.22 603.33,1882.38 606.74,1880.92 L702.46,1839.9 C708.67,1837.24 711.2,1829.78 707.86,1823.91 C670.53,1758.19 424.23,1091.28 407.46,873.46 C407.46,873.45 506.82,849.5 578.32,741.1 Z" fill="#235485"></path>
                            <path d="M710.66,120.45 L475.99,247.63 C475.99,247.63 377.29,31.24 266.45,0.75 L1.46,618.49 C-0.3,622.32 1.09,626.87 4.71,629.03 C7.24,630.54 10.49,632.45 14.35,634.67 C75.75,670 304.51,736.2 409.59,641.81 L422.51,565.63 L441.63,452.92 C441.63,452.92 737.51,332.94 754.11,177.35 L710.66,120.45 Z" fill="#488FBA"></path>
                        </g>
                        <path d="M525.68,404.7 C527.07,354.79 477.58,370.44 477.58,370.44 C445.45,442.42 405.79,397.26 381.39,388.32 C356.99,379.38 344.45,395.02 343.05,398.75 C341.66,402.47 347.23,446.42 347.23,446.42 C347.23,446.42 314.47,407.69 310.29,450.14 C306.11,492.6 335.38,495.58 335.38,495.58 L327.02,519.42 L385.13,576.3 L393.23,550.7 L418.32,564.11 C434.59,569.69 448.27,572.37 459.78,572.9 C473.63,573.53 488.34,580.55 496.61,576.19 C504.88,571.83 506.67,556.11 510.77,549.3 C522.36,530.03 526.93,504.44 526.93,504.44 L548.59,498.65 C558.76,496.97 563.73,484.45 557.79,475.47 L528.61,416.32 L525.68,404.7 Z" id="Path" stroke="#1F3B65" stroke-width="8.1797"></path>
                        <path d="M582.21,344.37 C579.98,269.88 568.06,267.65 532.3,252.01 C496.55,236.37 481.27,252.47 470.1,217.46 C458.93,182.45 386.31,233.39 363.22,225.94 C340.13,218.49 253.72,236.37 265.64,305.64 C265.64,305.64 218.18,361.77 212.75,390.56 C203.07,441.95 232.12,510.48 328.2,519.42 L337.14,495.58 C337.14,495.58 305.86,492.6 310.32,450.14 C314.79,407.68 349.8,446.42 349.8,446.42 C349.8,446.42 343.84,402.47 345.33,398.75 C346.82,395.03 360.23,379.38 386.3,388.32 C412.37,397.26 433.06,441.1 489.09,370.44 C489.09,370.44 541.98,354.8 540.49,404.7 C540.49,404.7 584.44,418.86 582.21,344.37 Z" id="Path" stroke="#1F3B65" stroke-width="8.1797" fill="#1F3B65" fill-rule="nonzero"></path>
                        <g transform="translate(16.000000, 500.000000)" id="Path" stroke="#1F3B65" stroke-width="8.1797">
                            <path d="M578.49,741.1 L556.09,1175.14 L659.88,1165.91 C659.88,1165.91 889.85,558.89 790.68,482.78 C700.92,413.9 466.42,540.88 422.7,565.62 L409.78,641.8 C309.39,731.98 95.7,680.1 23.7,639.86 C18.94,637.2 12.97,639.77 11.68,645.07 C3.61,678.11 0.74,693.86 37.28,784.6 C57.28,834.27 123.97,887.31 162,950.6 C301.39,1182.54 463.66,1792.56 596.42,1880.17 C599.52,1882.22 603.5,1882.38 606.91,1880.92 L702.63,1839.9 C708.84,1837.24 711.37,1829.78 708.03,1823.91 C670.7,1758.19 424.4,1091.28 407.63,873.46 C407.62,873.45 506.99,849.5 578.49,741.1 Z"></path>
                            <path d="M710.83,120.45 L476.16,247.63 C476.16,247.63 377.46,31.24 266.62,0.75 L1.63,618.49 C-0.13,622.32 1.26,626.87 4.88,629.03 C7.41,630.54 10.66,632.45 14.52,634.67 C75.92,670 304.68,736.2 409.76,641.81 L422.68,565.63 L441.8,452.92 C441.8,452.92 737.68,332.94 754.28,177.35 L710.83,120.45 Z"></path>
                        </g>
                        <g transform="translate(617.000000, 2336.000000)" id="Path">
                            <path d="M216.1,166.08 C210.69,151.45 185.98,132.91 185.98,132.91 C185.98,132.91 80.63,36.49 25.2,40.67 C21.33,40.96 17.69,41.72 14.36,43.06 C-36.67,63.59 68.28,146.16 68.28,146.16 C89.07,172.89 172.22,187.74 206.67,181.7 C217.2,179.85 218.63,172.89 216.1,166.08 Z" fill="#67A0BA" fill-rule="nonzero"></path>
                            <path d="M194.16,124.73 C194.16,124.73 194.17,124.73 194.16,124.73 C218.39,103.12 186.66,131.43 210.88,109.82 C185.31,69 135.19,19.71 118.71,3.97 C115.45,0.86 110.66,-0.01 106.51,1.74 L67.57,18.11 C58.12,22.08 58.38,35.48 67.96,39.13 C123.92,60.44 194.16,124.73 194.16,124.73 Z" stroke="#1F3B65" stroke-width="8.1797" fill="#1F3B65" fill-rule="nonzero"></path>
                            <path d="M224.28,157.9 C218.87,143.27 194.16,124.73 194.16,124.73 C194.16,124.73 88.81,28.31 33.38,32.49 C29.51,32.78 25.87,33.54 22.54,34.88 C-28.49,55.41 76.46,137.98 76.46,137.98 C97.25,164.71 180.4,179.56 214.85,173.52 C225.38,171.67 226.81,164.71 224.28,157.9 Z" stroke="#1F3B65" stroke-width="8.1797"></path>
                        </g>
                        <path d="M572.09,1675.15 L568.94,1721.44 C568.94,1721.44 751.56,1824.92 771.34,1794.49 C791.12,1764.05 675.87,1665.93 675.87,1665.93 L572.09,1675.15 Z" id="Path" stroke="#1F3B65" stroke-width="8.1797" fill="#1F3B65" fill-rule="nonzero"></path>
                        <path d="M726.83,620.45 C726.83,620.45 775.26,575.56 788.56,588.86 C788.56,588.86 885.79,565.14 888.31,593.85 C890.83,622.56 770.29,677.35 770.29,677.35 L726.83,620.45 Z" id="Path" stroke="#1F3B65" stroke-width="8.1797"></path>
                        <path d="M438.14,233.6 C436.54,224.79 554.52,29.11 574.47,17.47 C594.42,5.83 792.26,-4.14 788.93,59.03 L689.92,60.55 C689.92,60.55 720.77,60.7 710.79,82.31 C700.81,103.92 632.65,72.33 632.65,72.33 C632.65,72.33 569.17,111.8 564.49,147.14 C559.81,182.48 532.3,252.01 532.3,252.01 C532.3,252.01 441.46,251.88 438.14,233.6 Z" id="Path" stroke="#1F3B65" stroke-width="8.1797"></path>
                        <path d="M90.25,1233.91 C90.25,1233.91 262.29,1437.87 423.62,1373.45 L438.62,1467.73 C438.62,1467.74 217.52,1497.54 90.25,1233.91 Z" id="Path" stroke="#1F3B65" stroke-width="8.1797" fill="#1F3B65" fill-rule="nonzero"></path>
                        <polygon id="Path" stroke="#1F3B65" stroke-width="8.1797" fill="#1F3B65" fill-rule="nonzero" points="594.49 1241.1 660.03 1140.49 582.37 1599.14"></polygon>
                        <circle id="Oval" fill="#1F3B65" fill-rule="nonzero" cx="479.89" cy="426.94" r="10.99"></circle>
                    </g>
                    <path d="M457.81,952.93 C457.81,952.93 421.56,932.34 384.44,893.68 C347.02,854.72 308.72,797.42 305.74,724.38 C305.74,724.38 289.66,786.21 320.61,865.85 C348.93,938.74 423.73,1007.34 448.91,1014.53 L457.81,952.93 Z" id="Path" fill="#1F3B65" fill-rule="nonzero"></path>
                </g>
                <g transform="translate(1602.000000, 3036.000000)">
                    <path d="M893.26,421.53 L879.36,521.04 L889.5,541.97 C900.3,556.97 884.14,577.11 867.46,569.15 C865.97,568.44 859.98,561.24 858.42,560.3 C858.42,560.3 830.61,616.64 788.52,635.45 C763.27,646.74 733.68,636.07 707.67,626.76 L800,485.54 C800.02,485.54 879.69,478.82 893.26,421.53 Z" id="Path" fill="#187497" fill-rule="nonzero"></path>
                    <path d="M452.15,153.21 C456.75,130.77 446.83,58.38 435.59,44.89 C415.27,20.5 413.23,99.76 413.23,99.76 C413.23,99.76 318.46,-2.83 297.39,0.18 C276.32,3.19 382.27,108.11 382.27,108.11 C382.27,108.11 275.86,6.51 260.81,24.57 C245.76,42.63 333.33,109.7 333.33,109.7 C333.33,109.7 244.91,25.81 256.75,67.25 C264.88,95.7 307.29,130.24 307.29,130.24 C307.29,130.24 257.95,119.27 273,134.32 C288.05,149.37 367.37,186.28 367.37,186.28 L452.15,153.21 Z" id="Path" fill="#187497" fill-rule="nonzero"></path>
                    <path d="M1071.91,575.51 L1100.04,496.49 C1106.09,479.49 1122.83,468.68 1140.8,470.27 C1166.24,472.51 1198.93,477.74 1203.8,489.91 C1211.93,510.23 1149.8,533.79 1149.8,533.79 C1149.8,533.79 1182.01,586.45 1164.67,591.07 C1147.32,595.69 1108.29,619.98 1108.29,619.98 L1071.91,575.51 Z" id="Path" fill="#187497" fill-rule="nonzero"></path>
                    <path d="M1187.88,587.23 C1187.88,587.23 1223.37,548.71 1205.82,540.98 C1188.01,533.12 1172.27,557.86 1175.2,554.64" id="Path" fill="#187497" fill-rule="nonzero"></path>
                    <g transform="translate(0.000000, 153.000000)" id="Path">
                        <path d="M46.58,2093.54 L66.17,2161.06 C66.17,2161.06 147.72,2097.16 243.76,2018.22 C235.61,1968.71 226.04,1914.4 215.2,1859.13 C136.41,1969.15 46.58,2093.54 46.58,2093.54 Z" fill="#488FBA" fill-rule="nonzero"></path>
                        <path d="M518.79,1235.17 C491.36,1220.46 318.76,1135.46 292.27,1104.17 C290.82,1102.46 289.38,1100.75 287.94,1099.01 C215.5,1011.45 152.56,884.63 128.61,833.61 C66.35,955.16 -64.33,1101.6 39.59,1309.44 C79.34,1388.95 179.85,1678.78 215.21,1859.13 C226.04,1914.4 235.62,1968.71 243.77,2018.22 C264.6,2144.73 276.19,2239.94 276.19,2239.94 L281.52,2242.14 C281.37,2238.56 281.33,2236.33 281.33,2236.33 L338.74,2243.96 C338.74,2243.96 347.92,2251.16 359.63,2259.64 L372.61,1910 C452.35,1841.2 521.85,1776.77 542.57,1744.79 C584.2,1680.55 591.03,1399.84 518.79,1235.17 Z" fill="#488FBA" fill-rule="nonzero"></path>
                        <path d="M1063.73,430.69 C1063.73,430.69 845.73,680.48 682.31,504.34 L559.95,378.13 L443.97,0.21 L359.2,33.27 L322.75,527.04 L118.31,811.09 C118.31,811.09 121.97,819.45 128.62,833.62 C152.57,884.64 215.51,1011.45 287.95,1099.02 C289.39,1100.76 290.83,1102.48 292.28,1104.18 C318.78,1135.46 491.37,1220.46 518.8,1235.18 C531.42,1241.95 543.99,1246.4 556.37,1247.95 L556.37,1247.95 C595.19,1236.21 584.8,1196.52 598.07,1158.2 L617.15,754.41 C617.15,754.41 764.03,901.34 827.87,847.73 C985.19,715.6 1100.11,475.17 1100.11,475.17 L1063.73,430.69 Z" fill="#43789C" fill-rule="nonzero"></path>
                        <path d="M306.06,2242.14 C306.77,2259.35 310.15,2310.3 325.45,2323.38 C343.95,2339.18 532.16,2379.88 520.55,2353.71 C508.94,2327.55 444.34,2292.54 425.45,2285.26 C415.24,2281.33 397.94,2269.6 384.17,2259.63 L383.63,2274.12 L306.06,2242.14 Z" stroke="#1F3B65" stroke-width="16.1938" fill="#1F3B65" fill-rule="nonzero"></path>
                        <path d="M71.12,2093.54 L90.71,2161.06 C90.71,2161.06 172.26,2097.16 268.3,2018.22 C260.15,1968.71 250.58,1914.4 239.74,1859.13 C160.95,1969.15 71.12,2093.54 71.12,2093.54 Z" stroke="#1F3B65" stroke-width="9.8783"></path>
                        <path d="M305.87,2236.33 C305.87,2236.33 305.91,2238.55 306.06,2242.14 L383.63,2274.13 L384.17,2259.64 C372.45,2251.16 363.28,2243.96 363.28,2243.96 L305.87,2236.33 Z" stroke="#1F3B65" stroke-width="16.1938" fill="#1F3B65" fill-rule="nonzero"></path>
                        <path d="M543.33,1235.17 C515.9,1220.46 343.31,1135.46 316.81,1104.17 C315.36,1102.46 313.92,1100.75 312.48,1099.01 C240.04,1011.45 177.1,884.63 153.15,833.61 C90.89,955.16 -39.79,1101.6 64.13,1309.44 C103.88,1388.95 204.39,1678.78 239.75,1859.13 C250.58,1914.4 260.16,1968.71 268.31,2018.22 C289.14,2144.73 300.73,2239.94 300.73,2239.94 L306.06,2242.14 C305.91,2238.56 305.87,2236.33 305.87,2236.33 L363.28,2243.96 C363.28,2243.96 372.46,2251.16 384.17,2259.64 L397.15,1910 C476.89,1841.2 546.39,1776.77 567.11,1744.79 C608.74,1680.55 615.57,1399.84 543.33,1235.17 Z" stroke="#1F3B65" stroke-width="9.8783"></path>
                        <path d="M1088.27,430.69 C1088.27,430.69 870.27,680.48 706.85,504.34 L584.49,378.13 L468.51,0.21 L383.74,33.27 L347.29,527.04 L142.85,811.09 C142.85,811.09 146.51,819.45 153.16,833.62 C177.11,884.64 240.05,1011.45 312.49,1099.02 C313.93,1100.76 315.37,1102.48 316.82,1104.18 C343.32,1135.46 515.91,1220.46 543.34,1235.18 C555.96,1241.95 568.53,1246.4 580.91,1247.95 L580.91,1247.95 C619.73,1236.21 627.04,1209.2 622.61,1158.2 L641.69,754.41 C641.69,754.41 788.57,901.34 852.41,847.73 C1009.73,715.6 1124.65,475.17 1124.65,475.17 L1088.27,430.69 Z" stroke="#1F3B65" stroke-width="9.8783"></path>
                    </g>
                    <path d="M71.12,2246.54 C71.12,2246.54 13.42,2235.1 8.59,2278.56 C3.76,2322.02 71.37,2539.33 71.37,2539.33 C71.37,2539.33 81.03,2580.38 97.93,2476.55 C110.83,2397.33 90.71,2314.05 90.71,2314.05 L71.12,2246.54 Z" id="Path" stroke="#1F3B65" stroke-width="16.1938" fill="#1F3B65" fill-rule="nonzero"></path>
                    <path d="M468.51,153.21 C473.11,130.77 463.19,58.38 451.95,44.89 C431.63,20.5 429.59,99.76 429.59,99.76 C429.59,99.76 334.82,-2.83 313.75,0.18 C292.68,3.19 398.63,108.11 398.63,108.11 C398.63,108.11 292.22,6.51 277.17,24.57 C262.12,42.63 349.69,109.7 349.69,109.7 C349.69,109.7 261.27,25.81 273.11,67.25 C281.24,95.7 323.65,130.24 323.65,130.24 C323.65,130.24 274.31,119.27 289.36,134.32 C304.41,149.37 383.73,186.28 383.73,186.28 L468.51,153.21 Z" id="Path" stroke="#1F3B65" stroke-width="9.8783"></path>
                    <path d="M1088.27,583.69 L1116.4,504.67 C1122.45,487.67 1139.19,476.86 1157.16,478.45 C1182.6,480.69 1215.29,485.92 1220.16,498.09 C1228.29,518.41 1166.16,541.97 1166.16,541.97 C1166.16,541.97 1198.37,594.63 1181.03,599.25 C1163.68,603.87 1124.65,628.16 1124.65,628.16 L1088.27,583.69 Z" id="Path" stroke="#1F3B65" stroke-width="9.8783"></path>
                    <path d="M1187.88,587.23 C1187.88,587.23 1223.37,548.71 1205.82,540.98 C1188.01,533.12 1172.27,557.86 1175.2,554.64" id="Path" stroke="#1F3B65" stroke-width="9.8783"></path>
                    <path d="M906.35,425.46 L892.45,524.97 L902.59,545.9 C913.39,560.9 897.23,581.04 880.55,573.08 C879.06,572.37 873.07,565.17 871.51,564.23 C871.51,564.23 843.7,620.57 801.61,639.38 C776.36,650.67 746.77,640 720.76,630.69 L813.09,489.47 C813.11,489.47 892.78,482.75 906.35,425.46 Z" id="Path" stroke="#1F3B65" stroke-width="9.8783"></path>
                    <circle id="Oval" fill="#1F3B65" fill-rule="nonzero" cx="866.79" cy="512.88" r="8.53"></circle>
                    <path d="M641.68,907.4 C639.8,895.11 634.76,864.82 634.76,864.82 L574.19,1099.55 L641.68,907.4 Z" id="Path" fill="#1F3B65" fill-rule="nonzero"></path>
                    <path d="M392.4,2139.42 L421.64,1914.77 L448.32,1932.11 C478.22,1871.28 500.57,1788.63 476.31,1725.35 L412.23,1570.15 L397.51,1758.3 L392.4,2139.42 Z" id="Path" fill="#1F3B65" fill-rule="nonzero"></path>
                    <path d="M239.75,2012.13 C238.5,2033.4 140.07,2275.7 140.07,2275.7 L268.31,2171.22 L239.75,2012.13 Z" id="Path" fill="#1F3B65" fill-rule="nonzero"></path>
                    <path d="M181.3,1056.17 C181.3,1056.17 361.72,1510.32 578.24,1510.77 L543.32,1388.17 C543.32,1388.17 325.66,1254.43 292.17,1206.96 C264.82,1168.2 181.3,1056.17 181.3,1056.17 Z" id="Path" fill="#1F3B65" fill-rule="nonzero"></path>
                </g>
                <polyline id="Path" stroke="#3280AC" stroke-width="8.1797" points="3132.41 4947.31 2464.94 4947.31 2464.94 4429.79"></polyline>
                <path d="M7984.19,2505.22 L6786.3,2505.22 C6749.92,2505.22 6720.42,2475.73 6720.42,2439.34 L6720.42,2154.2 C6720.42,2117.82 6749.91,2088.32 6786.3,2088.32 L7984.2,2088.32 C8020.58,2088.32 8050.08,2117.81 8050.08,2154.2 L8050.08,2439.34 C8050.08,2475.73 8020.58,2505.22 7984.19,2505.22 Z" id="Path" fill="#3280AC" fill-rule="nonzero"></path>
                <path d="M2415.11,3525.47 C2415.11,3525.47 2400.92,3713.42 2252.53,3706 C2104.14,3698.58 2102.19,3573.23 2102.19,3573.23 C2102.19,3573.23 2015.12,3513.1 2052.21,3383.26 C2052.21,3383.26 2080.87,3308.36 2164.64,3286.11 C2164.64,3286.11 2183.24,3179.27 2304.47,3182.94 C2426.89,3186.65 2456.57,3251.87 2456.57,3251.87 C2456.57,3251.87 2558.63,3239.55 2578.98,3368.42 C2590.11,3438.91 2577.69,3511.87 2415.11,3525.47 Z" id="Path" fill="#1F3B65" fill-rule="nonzero"></path>
                <path d="M824.36,3361.45 C826.83,3346.2 816.46,3331.83 801.21,3329.37 C785.96,3326.91 783.43,3339.18 780.96,3354.44 C779.11,3365.88 777.82,3375.74 783.73,3381 C785.7,3382.75 788.47,3383.99 792.28,3384.61 C807.53,3387.07 821.89,3376.71 824.36,3361.45 Z" id="Path" stroke="#1F3B65" stroke-width="8.1797"></path>
                <line x1="792.28" y1="3384.61" x2="714.45" y2="3457.38" id="Path" stroke="#1F3B65" stroke-width="8.1797"></line>
                <g transform="translate(5419.000000, 3905.000000)" id="Path">
                    <path d="M275.31,1549.3 C276.39,1555.78 302.68,1609.9 325.59,1606.76 C348.5,1603.62 384.25,1597.18 397.42,1566.06 C428.6,1492.37 428.6,1412.11 428.6,1412.11 C428.6,1412.11 430.7,1394.99 427.29,1376.64 C392.92,1364.14 365.92,1353.6 350.09,1347.09 C330.91,1367.46 323.45,1416.54 311.22,1451.14 C292.59,1503.83 274.18,1542.53 275.31,1549.3 Z" fill="#488FBA" fill-rule="nonzero"></path>
                    <path d="M209.63,1242.71 C176.33,1265.61 119.32,1303.37 82.26,1327.82 C61.46,1341.54 66.8,1374.82 91.31,1379.27 C94.58,1379.86 97.61,1379.8 100.2,1378.83 C113.3,1373.92 225.53,1326.87 279.22,1304.33 C257.25,1287.98 232.31,1267.05 209.63,1242.71 Z" fill="#488FBA" fill-rule="nonzero"></path>
                    <path d="M1044.27,767.26 C1094.57,873.67 1288,902.12 1288,902.12 L1273.19,1000.39 L1289.6,923.07 C1289.6,923.07 1323.84,883.16 1332.48,896.12 C1341.12,909.08 1323.84,937.18 1323.84,937.18 C1323.84,937.18 1359.58,920.19 1381.56,920.62 L1635.6,646.52 C1277.49,731.85 845.29,351.45 845.29,351.45 L824.64,381.73 C914.71,406.99 993.98,660.85 1044.27,767.26 Z" fill="#43789C" fill-rule="nonzero"></path>
                    <path d="M1273.19,1000.38 C1273.19,1000.38 1142.68,1030.44 990.03,932.36 C837.37,834.28 793,744.62 793,744.62 L743.72,942.03 L737.43,975.84 C773.05,1006.61 807.85,1032.16 841.25,1053.36 C1023.66,1169.17 1163.94,1155.41 1163.94,1155.41 L1304.96,1003.26 C1287.72,1002.05 1273.19,1000.38 1273.19,1000.38 Z" fill="#43789C" fill-rule="nonzero"></path>
                    <path d="M721.98,1058.98 C766.46,1082.78 822.69,1115.97 875.56,1154.96 C867.68,1115.67 855.86,1082.08 841.26,1053.37 C807.86,1032.17 773.06,1006.62 737.44,975.85 L721.98,1058.98 Z" fill="#43789C" fill-rule="nonzero"></path>
                    <path d="M875.55,1154.96 C822.68,1115.97 766.45,1082.78 721.97,1058.98 L713.13,1106.54 C677.19,1135.43 629.63,1146.8 579.53,1148.69 C467.48,1152.92 202.59,1092.21 166.51,1090.57 C128.67,1088.85 60.52,1065.52 24.36,1047.09 C22.59,1102.6 161.87,1218.17 200.93,1260.08 C223.61,1284.41 248.55,1305.35 270.53,1321.7 C296.43,1340.96 318.18,1353.86 327.02,1358.25 C329.2,1359.33 334.17,1361.49 341.4,1364.47 C357.22,1370.98 384.22,1381.53 418.6,1394.02 C601.57,1460.55 1025.49,1535.64 1040.76,1393.13 C1049.8,1308.77 967.84,1223.03 875.55,1154.96 Z" fill="#43789C" fill-rule="nonzero"></path>
                    <path d="M1061.45,743.03 C1011.15,636.62 914.71,407 824.65,381.73 C798.89,374.5 776.19,363.35 754.54,351.26 C711.58,327.28 672.81,299.69 623.56,290.99 C610.83,288.74 597.48,287.61 583.08,288.31 L577.15,299.6 C577.15,299.6 410.26,259.26 375.45,341.52 C340.65,423.78 141.6,738.26 141.6,738.26 C141.6,738.26 -3.53,1014.64 0.42,1029.67 C1.51,1033.8 10.65,1040.1 24.38,1047.1 C60.54,1065.53 129.93,1080.81 166.53,1090.58 C227.63,1106.89 467.5,1152.93 579.55,1148.7 C629.65,1146.81 677.21,1135.44 713.15,1106.55 L721.99,1058.99 L737.45,975.86 L743.74,942.05 L793.02,744.64 C793.02,744.64 837.39,834.3 990.05,932.38 C1142.71,1030.46 1273.21,1000.4 1273.21,1000.4 L1288.02,902.13 C1288,902.12 1111.75,849.43 1061.45,743.03 Z" fill="#488FBA" fill-rule="nonzero"></path>
                    <path d="M777.6,310.76 C771.2,311.24 764.55,311.39 757.54,311.05 C680.86,307.39 656.73,278.8 649.54,257.06 L632.23,282.29 C681.48,290.99 720.25,318.58 763.21,342.56 L777.6,310.76 Z" fill="#43789C" fill-rule="nonzero"></path>
                    <path d="M877.99,60.6 C867.3,62.52 835.6,20.57 779.09,2.91 C722.57,-14.75 674.3,55.89 660.17,87.68 C646.04,119.47 654.45,131.85 654.45,131.85 L661.18,150.23 C661.18,150.23 688.43,106.53 704.91,138.32 C721.39,170.11 647.22,240.76 647.22,240.76 C647.22,240.76 646.21,245.69 646.87,253.06 C647.2,256.77 648.01,261.12 649.55,265.76 C656.74,287.5 680.87,316.09 757.55,319.75 C764.56,320.08 771.21,319.927288 777.61,319.46 C885.93,311.41 942.37,208.84 952.38,185.5 C962.97,160.75 933.11,50.71 877.99,60.6 Z" fill="#73ABC4" fill-rule="nonzero"></path>
                    <path d="M638.53,249.43 C638.53,249.43 712.71,178.78 696.22,146.99 C679.74,115.2 652.49,158.9 652.49,158.9 L645.76,140.52 C645.76,140.52 637.35,128.14 651.48,96.35 L616.16,130.5 L619.69,142.27 C619.69,142.27 574.52,218.11 631.84,257.9 C633.88,259.32 636.01,260.56 638.18,261.72 C637.52,254.36 638.53,249.43 638.53,249.43 Z" fill="#6191A6" fill-rule="nonzero"></path>
                    <path d="M1398.01,939.27 C1396.41,932.08 1389.96,929.45 1381.56,929.29 C1359.58,928.87 1323.84,945.85 1323.84,945.85 C1323.84,945.85 1341.13,917.76 1332.48,904.79 C1323.84,891.82 1289.6,931.74 1289.6,931.74 L1273.19,1009.06 C1273.19,1009.06 1287.72,1010.73 1304.96,1011.95 C1325.62,1013.41 1350.18,1014.21 1358.42,1010.68 C1373.54,1004.2 1403.8,965.3 1398.01,939.27 Z" fill="#6191A6" fill-rule="nonzero"></path>
                    <path d="M655.9,240.75 C655.9,240.75 730.08,170.1 713.59,138.31 C697.11,106.52 669.86,150.22 669.86,150.22 L663.13,131.84 C663.13,131.84 654.72,119.46 668.85,87.67 L633.53,121.82 L637.06,133.59 C637.06,133.59 591.89,209.43 649.21,249.22 C651.25,250.64 653.38,251.88 655.55,253.04 C654.89,245.67 655.9,240.75 655.9,240.75 Z" stroke="#1F3B65" stroke-width="8.6839"></path>
                    <path d="M786.29,319.44 C779.89,319.92 773.24,320.07 766.23,319.73 C689.55,316.07 665.42,287.48 658.23,265.74 L640.92,290.97 C690.17,299.67 728.94,327.26 771.9,351.24 L786.29,319.44 Z" stroke="#1F3B65" stroke-width="8.6839"></path>
                    <path d="M886.68,60.6 C876.37,64.01 844.29,20.57 787.78,2.91 C731.26,-14.75 682.99,55.89 668.86,87.68 C654.73,119.47 663.14,131.85 663.14,131.85 L669.87,150.23 C669.87,150.23 697.12,106.53 713.6,138.32 C730.08,170.11 655.91,240.76 655.91,240.76 C655.91,240.76 654.9,245.69 655.56,253.06 C655.89,256.77 656.7,261.12 658.24,265.76 C665.43,287.5 689.56,316.09 766.24,319.75 C773.25,320.08 779.9,319.927288 786.3,319.46 C894.62,311.41 951.06,208.84 961.07,185.5 C971.65,160.75 941.33,42.5 886.68,60.6 Z" stroke="#1F3B65" stroke-width="8.6839"></path>
                    <path d="M739.34,1058.98 C783.82,1082.78 840.05,1115.97 892.92,1154.96 C885.04,1115.67 873.22,1082.08 858.62,1053.37 C825.22,1032.17 790.42,1006.62 754.8,975.85 L739.34,1058.98 Z" stroke="#1F3B65" stroke-width="8.6839"></path>
                    <path d="M284,1566.67 C285.08,1573.15 311.37,1627.27 334.28,1624.13 C357.19,1620.99 392.94,1614.55 406.11,1583.43 C437.29,1509.73 437.29,1429.48 437.29,1429.48 C437.29,1429.48 439.39,1412.36 435.98,1394.01 C401.61,1381.51 374.61,1370.97 358.78,1364.46 C339.6,1384.83 332.14,1433.91 319.91,1468.51 C301.28,1521.2 282.87,1559.9 284,1566.67 Z" stroke="#1F3B65" stroke-width="8.6839"></path>
                    <path d="M206.38,1261.27 C173.08,1284.18 128.01,1320.75 90.94,1345.19 C70.14,1358.91 75.48,1392.19 99.99,1396.64 C103.26,1397.23 106.29,1397.17 108.88,1396.2 C121.98,1391.29 234.21,1344.24 287.9,1321.7 C265.93,1305.35 229.06,1285.6 206.38,1261.27 Z" stroke="#1F3B65" stroke-width="8.6839"></path>
                    <path d="M892.92,1154.96 C840.05,1115.97 783.82,1082.78 739.34,1058.98 L730.5,1106.54 C694.56,1135.43 647,1146.8 596.9,1148.69 C484.85,1152.92 219.96,1092.21 183.88,1090.57 C146.04,1088.85 77.89,1065.52 41.73,1047.09 C39.96,1102.6 148.6,1198.59 187.67,1240.5 C210.35,1264.83 265.92,1305.36 287.9,1321.7 C313.8,1340.96 335.55,1353.86 344.39,1358.25 C346.57,1359.33 351.54,1361.49 358.77,1364.47 C374.6,1370.98 401.59,1381.53 435.97,1394.02 C618.94,1460.55 1042.86,1535.64 1058.13,1393.13 C1067.17,1308.77 985.21,1223.03 892.92,1154.96 Z" stroke="#1F3B65" stroke-width="8.6839"></path>
                    <path d="M1082.83,731.36 C1133.13,837.77 1305.37,902.12 1305.37,902.12 L1290.56,1000.39 L1306.97,923.07 C1306.97,923.07 1341.21,883.16 1349.85,896.12 C1358.49,909.08 1341.21,937.18 1341.21,937.18 C1341.21,937.18 1376.95,920.19 1398.93,920.62 L1652.97,646.52 C1294.86,731.85 862.66,351.45 862.66,351.45 L842.01,381.73 C932.08,406.99 1032.53,624.95 1082.83,731.36 Z" stroke="#1F3B65" stroke-width="8.6839"></path>
                    <path d="M1290.56,1000.38 C1290.56,1000.38 1160.05,1030.44 1007.39,932.36 C854.73,834.28 810.36,744.62 810.36,744.62 L761.08,942.03 L754.79,975.84 C790.41,1006.61 825.21,1032.16 858.61,1053.36 C1041.02,1169.17 1181.3,1155.41 1181.3,1155.41 L1322.32,1003.26 C1305.09,1002.05 1290.56,1000.38 1290.56,1000.38 Z" stroke="#1F3B65" stroke-width="8.6839"></path>
                    <path d="M1082.83,731.36 C1032.53,624.95 932.08,406.99 842.01,381.72 C816.25,374.49 793.55,363.34 771.89,351.25 C728.93,327.27 690.16,299.68 640.91,290.98 C628.18,288.73 614.83,287.6 600.43,288.3 L594.5,299.59 C594.5,299.59 427.61,259.25 392.8,341.51 C357.99,423.77 158.95,738.25 158.95,738.25 C158.95,738.25 13.82,1014.63 17.77,1029.66 C18.86,1033.79 28,1040.09 41.73,1047.09 C77.89,1065.52 147.28,1080.8 183.88,1090.57 C244.98,1106.88 484.85,1152.92 596.9,1148.69 C647,1146.8 694.56,1135.43 730.5,1106.54 L739.34,1058.98 L754.8,975.85 L761.09,942.04 L810.37,744.63 C810.37,744.63 854.74,834.29 1007.4,932.37 C1160.06,1030.45 1290.57,1000.39 1290.57,1000.39 L1305.38,902.12 C1305.38,902.12 1133.13,837.77 1082.83,731.36 Z" stroke="#1F3B65" stroke-width="8.6839"></path>
                    <path d="M1415.38,930.58 C1413.78,923.39 1407.33,920.77 1398.93,920.6 C1376.95,920.17 1341.21,937.16 1341.21,937.16 C1341.21,937.16 1358.5,909.07 1349.85,896.1 C1341.2,883.13 1306.97,923.05 1306.97,923.05 L1290.56,1000.37 C1290.56,1000.37 1305.09,1002.04 1322.32,1003.26 C1342.98,1004.72 1367.54,1005.52 1375.78,1001.99 C1390.91,995.52 1421.16,956.62 1415.38,930.58 Z" stroke="#1F3B65" stroke-width="8.6839"></path>
                    <polygon fill="#1F3B65" fill-rule="nonzero" points="745.81 1017.9 739.34 1058.98 892.92 1154.96"></polygon>
                    <polygon fill="#1F3B65" fill-rule="nonzero" points="200.94 1260.08 211.03 1353.22 287.91 1321.7"></polygon>
                    <path d="M358.78,1364.46 L435.98,1394.01 C435.98,1394.01 401.79,1436.08 386.76,1445.7 C371.89,1455.22 322.02,1454.95078 322.02,1454.95078 L358.78,1364.46 Z" fill="#1F3B65" fill-rule="nonzero"></path>
                    <path d="M730.5,1106.54 C730.5,1106.54 636.34,1247.01 78.6,1122.07 C78.6,1122.07 28.1,1056.68 41.74,1047.09 C55.39,1037.5 610.48,1182.32 730.5,1106.54 Z" fill="#1F3B65" fill-rule="nonzero"></path>
                    <path d="M803.43,761.11 L814.06,662.53 C814.06,662.53 863.73,816.73 960.85,893.04 C960.85,893.04 885.21,856.87 803.43,761.11 Z" fill="#1F3B65" fill-rule="nonzero"></path>
                    <path d="M674.85,76.06 C667.52,69.66 654.19,72.92 645.09,83.35 C635.98,93.78 634.54,107.42 641.87,113.82" stroke="#1F3B65" stroke-width="8.6839"></path>
                    <path d="M896.21,134.57 C903.99,91.8 851.5,80.14 851.5,80.14 C851.5,80.14 872.88,60.7 826.23,56.81" stroke="#1F3B65" stroke-width="8.6839"></path>
                </g>
                <g transform="translate(6286.000000, 554.000000)" id="Path">
                    <path d="M1514.59,1181.29 C1572.01,1074.56 1624.25,765.14 1624.25,765.14 L1732.78,829.03 L1732.66,476.28 L1650.91,404.73 C1607.08,597.41 1355.2,784.92 1355.2,784.92 C1355.2,784.92 1314.45,1121.75 1300.18,1200.24 C1288.49,1264.55 1770.05,1568.24 1770.05,1568.24 L1804.54,1530.05 C1785.69,1458.21 1501.54,1205.56 1514.59,1181.29 Z" fill="#43789C" fill-rule="nonzero"></path>
                    <path d="M1203.75,232.1 C1203.75,232.1 1101.63,157.86 1027.47,184.64 C985.75,199.71 968.22,230.51 936.84,264.16 C912.45,290.31 879.69,318.18 820.68,341.71 C820.68,341.71 815.6,343.81 807.17,347.43 C769.62,363.56 665.01,410.07 641.02,437.76 C611.64,471.66 225.19,445.67 225.19,445.67 C225.19,445.67 165.3,522.51 184.51,534.94 C203.72,547.37 495.25,615.17 495.25,615.17 C511.52,615.27 663.62,658.11 822.48,578.49 C822.48,578.49 829.04,569.34 865.89,599.35 C975.5,688.62 1364.76,790.19 1364.76,790.19 C1364.76,790.19 1616.65,602.68 1660.47,410 C1662.91,399.29 1664.85,388.58 1665.92,377.87 L1670.44,342.84 C1642.18,341.71 1372.11,317.98 1203.75,232.1 Z" fill="#488FBA" fill-rule="nonzero"></path>
                    <path d="M924.11,258.9 C893.64,258.69 842.16,255.45 806.9,237.91 C806.9,237.91 781.3,171.47 735.73,227.98 C735.73,227.98 699.22,218.44 685.07,178.32 C678.91,160.86 658.94,152.73 642.98,162.12 C622.63,174.1 597.17,187.28 575.7,192.87 L575.31,196.99 L569.01,317.71 C569.01,317.71 602.66,337.35 606.3,326.42 C606.3,326.42 666.54,392.25 755.82,331.08 L794.44,342.18 C802.87,338.56 807.95,336.46 807.95,336.46 C866.95,312.92 899.71,285.05 924.11,258.9 Z" fill="#43789C" fill-rule="nonzero"></path>
                    <path d="M212.45,440.41 C183.55,439.79 126.3,411.47 111.99,434.17 C97.68,456.87 99.36,476.27 92.34,476.27 C85.32,476.27 -4.48,458.03 1.13,469.25 C6.74,480.47 110.58,508.54 110.58,508.54 L171.77,529.67 C171.77,529.67 167.97,512.09 169.77,506.58 C178.59,479.68 212.45,440.41 212.45,440.41 Z" fill="#43789C" fill-rule="nonzero"></path>
                    <path d="M637.77,224.07 C640.82,228.74 642.77,220.81 648.93,216.79 C655.09,212.77 663.14,214.18 660.09,209.51 C657.04,204.84 649.57,204.31 643.41,208.33 C637.25,212.35 634.72,219.39 637.77,224.07 Z" fill="#1F3B65" fill-rule="nonzero"></path>
                    <path d="M735.7,65.77 C691.95,85.82 614.7,35.88 614.7,35.88 L560.7,0.14 L564.9,40.01 C564.9,40.01 515.13,1.96 509.66,14.72 C504.19,27.48 522.42,142.32 549.76,175.14 C557.34,184.23 571.67,184.5 588.43,180.14 C609.9,174.55 635.36,161.36 655.71,149.39 C671.67,140 691.64,148.13 697.8,165.59 C711.95,205.71 748.46,215.25 748.46,215.25 C794.03,158.74 819.63,225.18 819.63,225.18 C819.63,225.18 837.78,211.6 848.72,124.1 C859.66,36.6 779.45,45.72 735.7,65.77 Z" stroke="#1F3B65" stroke-width="8.9948"></path>
                    <path d="M771.19,212 C771.19,212 805.72,200.92 800.4,230.76 C800.4,230.76 796.96,244.62 778.88,243.49" stroke="#1F3B65" stroke-width="8.9948"></path>
                    <path d="M936.84,246.17 C906.37,245.96 854.89,242.72 819.63,225.18 C819.63,225.18 794.03,158.74 748.46,215.25 C748.46,215.25 711.95,205.71 697.8,165.59 C691.64,148.13 671.67,140 655.71,149.39 C635.36,161.37 609.9,174.55 588.43,180.14 L588.04,184.26 L585.46,310.07 C585.46,310.07 615.38,324.62 619.03,313.69 C619.03,313.69 679.27,379.52 768.55,318.35 L807.17,329.45 C815.6,325.83 820.68,323.73 820.68,323.73 C879.69,300.19 912.45,272.32 936.84,246.17 Z" stroke="#1F3B65" stroke-width="8.9948"></path>
                    <path d="M1524.14,1168.56 C1581.56,1061.83 1633.79,752.41 1633.79,752.41 L1742.32,816.3 L1742.21,463.55 L1660.46,392 C1616.63,584.68 1364.75,772.19 1364.75,772.19 C1364.75,772.19 1324,1109.02 1309.73,1187.51 C1298.04,1251.82 1779.6,1555.51 1779.6,1555.51 L1814.09,1517.32 C1795.24,1445.48 1511.09,1192.82 1524.14,1168.56 Z" stroke="#1F3B65" stroke-width="8.9948"></path>
                    <path d="M1203.75,214.11 C1203.75,214.11 1101.63,139.87 1027.47,166.65 C985.75,181.72 968.22,212.52 936.84,246.17 C912.45,272.32 879.69,300.19 820.68,323.72 C820.68,323.72 815.6,325.82 807.17,329.44 C769.62,345.57 665.01,392.08 641.02,419.77 C611.64,453.67 225.19,427.68 225.19,427.68 C225.19,427.68 165.3,504.52 184.51,516.95 C203.72,529.38 495.25,597.18 495.25,597.18 C511.52,597.28 663.62,640.12 822.48,560.5 C822.48,560.5 829.04,551.35 865.89,581.36 C975.5,670.63 1364.76,772.2 1364.76,772.2 C1364.76,772.2 1616.65,584.69 1660.47,392.01 C1662.91,381.3 1664.85,370.59 1665.92,359.88 L1670.44,324.85 C1642.18,323.72 1372.11,299.99 1203.75,214.11 Z" stroke="#1F3B65" stroke-width="8.9948"></path>
                    <path d="M1830.67,1586.34 L1752.93,1701.98 C1752.93,1701.98 1731.4,1693.94 1738.35,1669.91 C1745.31,1645.88 1779.59,1555.52 1779.59,1555.52 L1814.08,1517.33 L1835.52,1527.07 L1830.67,1586.34 Z" stroke="#1F3B65" stroke-width="8.9948" fill="#1F3B65" fill-rule="nonzero"></path>
                    <path d="M225.18,427.68 C196.28,427.06 139.03,398.74 124.72,421.44 C110.41,444.14 112.09,463.54 105.07,463.54 C98.05,463.54 8.25,445.3 13.86,456.52 C19.47,467.75 123.31,495.81 123.31,495.81 L184.5,516.94 C184.5,516.94 180.7,499.36 182.5,493.85 C191.33,466.95 225.18,427.68 225.18,427.68 Z" stroke="#1F3B65" stroke-width="8.9948"></path>
                    <polygon fill="#1F3B65" fill-rule="nonzero" points="1629.63 750.1 1633.88 698.37 1656.77 751.36 1741.09 764.92 1742.33 816.3"></polygon>
                    <path d="M1524.14,1168.56 L1503.27,1173.71 L1473.04,1181.16 L1473.04,1181.16 C1506.34,1190.94 1536.51,1209.23 1560.58,1234.23 L1783.07,1465.36 L1524.14,1168.56 Z" fill="#1F3B65" fill-rule="nonzero"></path>
                    <path d="M1669.8,400.46 C1669.8,400.46 1564.9,751.64 1349.68,909.47 L1364.75,772.19 C1364.75,772.19 1489.33,672.01 1521.8,630.21 C1664.65,446.33 1660.46,392 1660.46,392 L1669.8,400.46 Z" fill="#1F3B65" fill-rule="nonzero"></path>
                    <path d="M812.58,563.28 C836.88,544.03 886.83,521.21 886.83,521.21 L865.88,581.35 L843.63,564.57 L812.58,563.28 Z" fill="#1F3B65" fill-rule="nonzero"></path>
                    <path d="M734.2,34.43 C690.45,54.48 614.7,35.88 614.7,35.88 L560.7,0.14 L564.9,40.01 C564.9,40.01 515.13,1.96 509.66,14.72 C504.19,27.48 522.42,142.32 549.76,175.14 C557.34,184.23 571.67,184.5 588.43,180.14 C609.9,174.55 635.36,161.36 655.71,149.39 C671.67,140 691.64,148.13 697.8,165.59 C711.95,205.71 748.46,215.25 748.46,215.25 C794.03,158.74 819.63,225.18 819.63,225.18 C819.63,225.18 837.78,211.6 848.72,124.1 C859.66,36.6 777.95,14.38 734.2,34.43 Z" fill="#1F3B65" fill-rule="nonzero"></path>
                </g>
            </g>
        </g>
    </g>
</svg>