<svg id="Layer_1" data-name="Layer 1" xmlns="http://www.w3.org/2000/svg" xmlns:xlink="http://www.w3.org/1999/xlink" viewBox="0 0 1300 294"><defs><style>.cls-1,.cls-4,.cls-6{fill:none;}.cls-2{clip-path:url(#clip-path);}.cls-3{fill:#428252;}.cls-4{stroke:#5f9c70;}.cls-11,.cls-4,.cls-6{stroke-miterlimit:10;}.cls-5{fill:#80b590;}.cls-11,.cls-6{stroke:#0a5d2b;}.cls-11,.cls-7{fill:#0a5d2b;}.cls-8{fill:#5f9c70;}.cls-9{fill:#88bc95;}.cls-10{fill:#b3d3bc;}.cls-11{stroke-width:0.5px;}.cls-12{fill:#bfdbc7;}.cls-13{fill:#99c5a6;}</style><clipPath id="clip-path"><rect class="cls-1" x="-3.53672" y="-0.56934" width="1302.82962" height="293.93084"/></clipPath></defs><g class="cls-2"><rect class="cls-3" x="-3.53672" y="-0.56934" width="1302.82962" height="293.93084"/><path class="cls-4" d="M1133.05566.00415l-2.93988,26.36926a2.44315,2.44315,0,0,0,2.15735,2.69873l49.44953,5.51307a2.4433,2.4433,0,0,0,2.69873-2.15735L1188.03613.00415Z"/><rect class="cls-4" x="410.45742" y="-18.22927" width="34.60656" height="34.60656" rx="1.54728" transform="translate(79.9239 248.05118) rotate(-35.47058)"/><rect class="cls-4" x="96.09295" y="-21.82564" width="52.99823" height="52.99823" rx="2.36958" transform="translate(20.03947 72.00564) rotate(-35.47058)"/><rect class="cls-4" x="926.78166" y="264.09614" width="34.60656" height="34.60656" rx="1.54728" transform="translate(-38.93343 345.87338) rotate(-20.35004)"/><rect class="cls-4" x="1207.47065" y="217.27735" width="34.60656" height="34.60656" rx="1.54728" transform="translate(91.17779 754.25268) rotate(-35.47058)"/><path class="cls-4" d="M509.86329,294h34.78625l21.25818-17.5918a1.03629,1.03629,0,0,0-.29962-1.76977l-61.304-22.78809a1.03627,1.03627,0,0,0-1.38282,1.14435Z"/><circle class="cls-4" cx="183.65804" cy="67.82638" r="22.59069"/><circle class="cls-4" cx="1188.76681" cy="129.61999" r="22.59069"/><circle class="cls-4" cx="184.52465" cy="185.77148" r="36.82656"/><circle class="cls-4" cx="493.87175" cy="10.57708" r="22.59069"/><path class="cls-4" d="M115.10085,312.37448l4.039-36.2276a2.44312,2.44312,0,0,0-2.15735-2.69873L67.533,267.93509a2.44311,2.44311,0,0,0-2.69873,2.15734l-4.71392,42.28205Z"/><path class="cls-4" d="M50.65335,98.56212,57.977,141.822a.69522.69522,0,0,0,1.1287.41957l33.80237-27.97244a.69521.69521,0,0,0-.201-1.18726l-41.126-15.28749A.69522.69522,0,0,0,50.65335,98.56212Z"/><path class="cls-5" d="M193.31756,65.52034h-.11707V63.99a7.81358,7.81358,0,0,0-6.632-7.8371A7.63857,7.63857,0,0,0,177.94332,63.72v1.80032h-.116a1.42355,1.42355,0,0,0-1.42957,1.41765V77.31151a2.30371,2.30371,0,0,0,2.31121,2.307c2.13628-.00738,5.20461-.01258,6.73882.01009h6.9912a2.307,2.307,0,0,0,2.307-2.307V66.938A1.42674,1.42674,0,0,0,193.31756,65.52034Zm-3.15943,0h-9.17135V63.72a4.58568,4.58568,0,0,1,9.17135,0Zm-6.28733,9.5778a.353.353,0,0,1-.07477-.29589l.52462-2.9209a1.74857,1.74857,0,0,1-.53-1.25946,1.78131,1.78131,0,1,1,3.03256,1.25946l.52462,2.9209a.37217.37217,0,0,1-.07478.29589.38224.38224,0,0,1-.27534.1279h-2.85153A.38238.38238,0,0,1,183.8708,75.09814Z"/><path class="cls-6" d="M192.16773,65.2456h-.11707V63.71523a7.81356,7.81356,0,0,0-6.632-7.8371,7.63856,7.63856,0,0,0-8.62511,7.56715V65.2456h-.116a1.42355,1.42355,0,0,0-1.42957,1.41765V77.03677a2.30372,2.30372,0,0,0,2.31121,2.307c2.13628-.00738,5.20461-.01258,6.73882.01009h6.9912a2.307,2.307,0,0,0,2.307-2.307V66.66325A1.42674,1.42674,0,0,0,192.16773,65.2456Zm-3.15943,0H179.837V63.44528a4.58568,4.58568,0,0,1,9.17135,0ZM182.721,74.8234a.353.353,0,0,1-.07478-.29589l.52462-2.9209a1.74857,1.74857,0,0,1-.53-1.25946,1.78131,1.78131,0,1,1,3.03256,1.25946l.52462,2.9209a.37217.37217,0,0,1-.07478.29589.38223.38223,0,0,1-.27533.1279h-2.85154A.38236.38236,0,0,1,182.721,74.8234Z"/><path class="cls-7" d="M1105.87578,42.74957s.13187-3.95576-2.2416-4.7469c0,0-.65927-3.82388-2.63714-4.87878a1.91981,1.91981,0,0,0-.13188-2.769c-1.45045-1.31857-1.31857-1.05486-3.03274-1.71416s-.39558-.923-1.05485-2.50531-.79115-.26371-3.03274-1.71416.26371-1.31858-3.16461-2.10972-1.45045-2.10975-5.01062-3.29649-8.70265.79118-10.1531,2.10976-5.14249,4.7469-5.53808,7.12036-1.58229.79115-1.71413,3.16458,1.45042,2.63718.13184,3.82392-2.37343,1.45044-2.24159,3.56016-.26372.79115-1.31858,3.42833-2.63718,1.97788-1.71416,3.95575a13.043,13.043,0,0,0,2.42463,3.10041,9.34832,9.34832,0,0,1,3.64085-2.573,34.7106,34.7106,0,0,1,7.00734-1.66339,5.984,5.984,0,0,1-2.52416-2.4242c-.65927-1.71417-3.82388-12.3947-2.10972-14.50445s1.31858-2.50531,3.82388-1.05486,3.03274,1.45045,3.692,4.21947,1.71417,1.71416,2.50531,4.0876,1.45045,3.82391,2.63718,4.61506a4.63215,4.63215,0,0,1,1.32079,1.93958,14.83741,14.83741,0,0,1,.65709,1.8843,6.42968,6.42968,0,0,0-1.10411.94583,1.82821,1.82821,0,0,0-.61005,1.82319c.36093.90235,1.33864.94111,1.70914,1.76246a2.789,2.789,0,0,1,.005,1.79774c-.6593,2.769-.79114,5.538,1.45045,5.93363s3.692,2.10972,5.14246.26372.26371-1.846,1.97787-3.16461,1.18674-2.2416.923-5.14249c-.07269-.79953-.11458-1.52548-.13821-2.1627.35083.16211.73209.35746,1.134.58341a16.15922,16.15922,0,0,1,5.99268,5.79876c.02895.04862.05572.09837.08444.14712a3.98744,3.98744,0,0,0,2.15716-4.63031A3.1769,3.1769,0,0,0,1105.87578,42.74957Z"/><path class="cls-8" d="M1085.0778,46.57345a1.82821,1.82821,0,0,1,.61005-1.82319,6.42968,6.42968,0,0,1,1.10411-.94583,14.83741,14.83741,0,0,0-.65709-1.8843,4.63215,4.63215,0,0,0-1.32079-1.93958c-1.18673-.79115-1.846-2.2416-2.63718-4.61506s-1.846-1.31858-2.5053-4.0876-1.18674-2.769-3.692-4.21947-2.10971-1.05486-3.82388,1.05486,1.45045,12.79028,2.10972,14.50445a5.984,5.984,0,0,0,2.52416,2.4242,11.53,11.53,0,0,0,1.07007.55991l-.1659.31234a2.69841,2.69841,0,0,0,2.24159,2.37343,11.46482,11.46482,0,0,0,2.9515.26161c1.34954-.00872,2.80685-.11379,3.90013-.21331C1086.41644,47.51456,1085.43873,47.4758,1085.0778,46.57345Z"/><path class="cls-8" d="M1085.87275,86.51531l-.21631-3.67758s-3.82392.26372-5.27433-1.45041c-1.14673-1.35522-3.04634-2.04133-5.61143-2.143l.86449,2.53858Z"/><path class="cls-9" d="M1089.09032,87.39026l-3.04069-1.40559-10.23758-4.73244-.86449-2.53858L1068.235,59.00211a3.19123,3.19123,0,0,0-2.99455-2.1624l-4.46047-.03687-23.40173-.1934a1.2524,1.2524,0,0,0-1.19195,1.66752l7.33807,20.88523a2.81164,2.81164,0,0,0,2.57674,1.87861l.13864.00377c.33719-.46762.61642-.8434.82719-1.11091,3.42832-4.35135,7.12033-2.9009,7.12033-2.9009l25.34742,11.06437c.25055-.01.64832-.02578,1.14742-.04555,2.259-.08942,6.55914-.25807,8.33919-.31716A.18038.18038,0,0,0,1089.09032,87.39026Z"/><path class="cls-5" d="M1012.38816,122.52392c-2.90087,2.5053-7.51593,1.05489-8.96637,1.846s3.42832,3.42833,7.91151,5.66992,7.51592.79115,7.51592.79115l-2.10972,3.03273,5.27433,2.37347,2.10972-3.95575c1.562-.48063,3.01458-5.45008,4.35765-9.32169l-5.293-5.097C1020.62125,118.63606,1014.63949,120.57961,1012.38816,122.52392Z"/><path class="cls-5" d="M1047.87152,145.37663c-.16564.72087-.40147,1.88766-.67274,3.65084-.52743,3.42833-1.45042,4.61506-4.21947,6.06551s-3.42829,2.90086-1.05486,3.692,8.17523.26371,8.17523.26371l1.846-1.71413,3.95576-.52746s.6593-5.80176.13187-7.77964c-.21275-.79788-.57559-2.06707-.933-3.29836C1054.26752,146.40119,1049.86438,145.727,1047.87152,145.37663Z"/><path class="cls-7" d="M1032.29878,155.093l3.29648.79115,10.38289-20.76577c-.1265-1.8983-.25583-3.95573-.38374-6.07175Z"/><path class="cls-3" d="M1089.49628,96.72354a17.94111,17.94111,0,0,0-.944-2.48487c-.31848-.69017-.6901-1.41064-1.13672-2.17082l-3.77269-1.64679-4.10823-1.79329L1054.18727,77.5634s-3.692-1.45045-7.12033,2.9009c-.21077.26751-.49.64329-.82719,1.11091-5.14754,7.13865-23.9622,35.9413-23.9622,35.9413l.91067.87694,5.293,5.097.91671.88275,14.9-18.46021s.62943,12.63,1.29649,23.66429c.12791,2.116.25724,4.17346.38374,6.07175.38324,5.75049.74087,10.042.95691,10.08523.11735.02347.45887.08906.93646.173,1.99286.35033,6.396,1.02456,7.22883.35248a.33211.33211,0,0,0,.14181-.2618c0-1.013,1.634-22.56748,2.39153-32.50608.22856-2.99867.3775-4.94173.3775-4.94173l28.74511-2.24159S1091.539,103.72673,1089.49628,96.72354Z"/><path class="cls-7" d="M1065.642,111.65988c-.308,7.39412-2.62015,38.818-2.62015,38.818l2.24159-.13187,3.54981-29.61278-.33792-9.53381Z"/><path class="cls-7" d="M1071.539,110.70164l-1.55351.25243-1.51019.24539.33792,9.53381,1.46081,41.21633s3.692.52743,3.692-.13184C1073.96605,161.22811,1071.96239,119.51043,1071.539,110.70164Z"/><path class="cls-7" d="M1096.51385,154.96111h4.48319L1084.48933,109.405c-1.59718.32535-3.06522.55147-4.37769.70635Z"/><path class="cls-9" d="M1096.11826,88.9l-3.82388-.65931s0,4.61506-.923,6.85666l-.923,2.24159s-.36409-.4485-.95206-1.14607c2.04274,7.00319-2.74,9.585-2.74,9.585l-28.74511,2.24159s-.14894,1.943-.3775,4.94173l8.00826-1.30135,2.83333-.46042,1.51019-.24539,1.55351-.25243,1.89964-.3087a37.60236,37.60236,0,0,0,6.673-.28164c1.31247-.15488,2.78051-.381,4.37769-.70635.31319-.0638.62576-.127.9484-.19871,7.12036-1.58233,8.43894-4.35135,11.86726-8.70266,1.17261-1.48831,1.63544-6.17031,1.73708-11.68647A20.80166,20.80166,0,0,1,1096.11826,88.9Z"/><path class="cls-10" d="M1108.11737,69.78055a40.67375,40.67375,0,0,0-5.45361-17.39006c-.02872-.04875-.05549-.0985-.08444-.14712a16.15922,16.15922,0,0,0-5.99268-5.79876c-.40193-.22595-.78319-.4213-1.134-.58341.02363.63722.06552,1.36317.13821,2.1627.26372,2.90089.79115,3.82391-.923,5.14249s-.52743,1.31857-1.97787,3.16461-2.90087.13184-5.14246-.26372-2.10975-3.16461-1.45045-5.93363a2.789,2.789,0,0,0-.005-1.79774c-1.09328.09952-2.55059.20459-3.90013.21331a11.46482,11.46482,0,0,1-2.9515-.26161,2.69841,2.69841,0,0,1-2.24159-2.37343l.1659-.31234a11.53,11.53,0,0,1-1.07007-.55991,34.7106,34.7106,0,0,0-7.00734,1.66339,9.34832,9.34832,0,0,0-3.64085,2.573,12.08846,12.08846,0,0,0-2.02907,3.62437,11.48933,11.48933,0,0,1-2.63738,3.90017l4.46047.03687a3.19123,3.19123,0,0,1,2.99455,2.1624l6.71256,19.71154c2.56509.1017,4.4647.78781,5.61143,2.143,1.45041,1.71413,5.27433,1.45041,5.27433,1.45041l.21631,3.67758,3.04069,1.40559a.18038.18038,0,0,1-.069.34416c-1.78005.05909-6.08016.22774-8.33919.31716-.4991.01977-.89687.03558-1.14742.04555l4.10823,1.79329,3.77269,1.64679c.44662.76018.81824,1.48065,1.13672,2.17082a17.94063,17.94063,0,0,1,.944,2.48487c.588.69757.95206,1.14607.95206,1.14607l.923-2.24159c.923-2.2416.923-6.85666.923-6.85666l3.82388.65931a20.80166,20.80166,0,0,0,2.92381-.08292c7.5825-.76738,9.61022-5.85174,10.78946-8.09231C1111.15014,78.21949,1108.513,75.45047,1108.11737,69.78055Zm-6.94948,8.33632-1.16055.17855-5.52461,1.08179s2.32913-6.002,2.32913-8.3311.5375-2.86663.5375-2.86663l1.27279,4.1385a21.083,21.083,0,0,0,1.77922,3.75482A2.95508,2.95508,0,0,1,1101.16789,78.11687Z"/><path class="cls-9" d="M1098.62215,72.318l-1.27279-4.1385s-.5375.5375-.5375,2.86663-2.32913,8.3311-2.32913,8.3311l5.52461-1.08179-1.09837.169C1098.82925,76.28341,1098.727,74.19118,1098.62215,72.318Z"/><path class="cls-6" d="M1105.45035,41.71263s.13187-3.95576-2.24159-4.7469c0,0-.65927-3.82388-2.63715-4.87877a1.91982,1.91982,0,0,0-.13187-2.769c-1.45045-1.31857-1.31858-1.05486-3.03274-1.71416s-.39559-.923-1.05486-2.50531-.79115-.26371-3.03274-1.71416.26372-1.31857-3.16461-2.10972-1.45045-2.10975-5.01061-3.29648-8.70266.79117-10.15311,2.10975-5.14249,4.7469-5.53808,7.12036-1.58228.79115-1.71413,3.16458,1.45042,2.63718.13185,3.82392-2.37344,1.45045-2.2416,3.56016c.13188,2.10976-.26371.79115-1.31857,3.42833s-2.63718,1.97788-1.71416,3.95576a13.04264,13.04264,0,0,0,2.42463,3.1004,9.34816,9.34816,0,0,1,3.64084-2.573,34.71008,34.71008,0,0,1,7.00734-1.6634,5.984,5.984,0,0,1-2.52416-2.4242c-.65927-1.71416-3.82388-12.3947-2.10971-14.50445s1.31857-2.50531,3.82388-1.05486,3.03273,1.45045,3.692,4.21947,1.71416,1.71416,2.50531,4.0876,1.45044,3.82391,2.63718,4.61506a4.63213,4.63213,0,0,1,1.32078,1.93958,14.83657,14.83657,0,0,1,.6571,1.8843,6.42925,6.42925,0,0,0-1.10411.94583,1.82822,1.82822,0,0,0-.61006,1.82319c.36093.90236,1.33865.94111,1.70915,1.76246a2.78918,2.78918,0,0,1,.005,1.79774c-.65931,2.769-.79115,5.538,1.45044,5.93363s3.692,2.10972,5.14246.26372.26371-1.846,1.97788-3.16461,1.18673-2.24159.923-5.14249c-.07269-.79953-.11458-1.52548-.13822-2.1627.35083.16211.73209.35746,1.134.58341a16.15931,16.15931,0,0,1,5.99269,5.79876c.02895.04862.05572.09837.08444.14712a3.98744,3.98744,0,0,0,2.15715-4.63031A3.17689,3.17689,0,0,0,1105.45035,41.71263Z"/><path class="cls-6" d="M1083.95744,45.53651a1.82822,1.82822,0,0,1,.61006-1.82319,6.42925,6.42925,0,0,1,1.10411-.94583,14.83657,14.83657,0,0,0-.6571-1.8843,4.63213,4.63213,0,0,0-1.32078-1.93958c-1.18674-.79115-1.846-2.2416-2.63718-4.61506s-1.846-1.31858-2.50531-4.0876-1.18673-2.769-3.692-4.21947-2.10972-1.05486-3.82388,1.05486,1.45044,12.79029,2.10971,14.50445a5.984,5.984,0,0,0,2.52416,2.4242,11.52768,11.52768,0,0,0,1.07008.55991l-.16591.31234a2.69841,2.69841,0,0,0,2.24159,2.37343,11.46437,11.46437,0,0,0,2.9515.26161c1.34954-.00872,2.80686-.11379,3.90014-.21331C1085.29609,46.47762,1084.31837,46.43887,1083.95744,45.53651Z"/><path class="cls-6" d="M1085.6242,84.94774l-.21631-3.67759s-3.82391.26372-5.27433-1.45041c-1.14672-1.35522-3.04634-2.04132-5.61142-2.143l.86449,2.53858Z"/><path class="cls-6" d="M1088.6649,86.35332l-3.0407-1.40558-10.23757-4.73245-.86449-2.53858-6.71257-19.71153a3.19121,3.19121,0,0,0-2.99454-2.16241l-4.46048-.03687-23.40173-.1934a1.25241,1.25241,0,0,0-1.19195,1.66752l7.33807,20.88523a2.81166,2.81166,0,0,0,2.57674,1.87862l.13864.00376c.3372-.46762.61642-.8434.82719-1.11091,3.42833-4.35135,7.12034-2.9009,7.12034-2.9009l25.34742,11.06437c.25054-.01.64831-.02578,1.14742-.04555,2.259-.08942,6.55913-.25807,8.33918-.31716A.18038.18038,0,0,0,1088.6649,86.35332Z"/><path class="cls-6" d="M1011.96273,121.487c-2.90086,2.50531-7.51592,1.05489-8.96637,1.846s3.42833,3.42832,7.91151,5.66991,7.51592.79115,7.51592.79115l-2.10972,3.03274,5.27433,2.37346,2.10972-3.95575c1.56206-.48062,3.01458-5.45008,4.35765-9.32169l-5.293-5.097C1020.19582,117.59912,1014.21406,119.54267,1011.96273,121.487Z"/><path class="cls-6" d="M1047.44609,144.33969c-.16564.72087-.40146,1.88766-.67274,3.65085-.52743,3.42832-1.45041,4.615-4.21947,6.0655s-3.42829,2.90087-1.05486,3.692,8.17523.26371,8.17523.26371l1.846-1.71413,3.95576-.52746s.6593-5.80176.13187-7.77963c-.21275-.79788-.57559-2.06708-.933-3.29837C1053.84209,145.36425,1049.439,144.69,1047.44609,144.33969Z"/><path class="cls-6" d="M1031.87335,154.056l3.29648.79115,10.38289-20.76577c-.12649-1.89829-.25583-3.95572-.38374-6.07175Z"/><path class="cls-6" d="M1089.07085,95.156a17.93945,17.93945,0,0,0-.944-2.48488c-.31848-.69017-.6901-1.41064-1.13672-2.17082l-3.77268-1.64679-4.10823-1.79329-25.34742-11.06437s-3.692-1.45045-7.12034,2.9009c-.21077.26751-.49.64329-.82719,1.11091-5.14754,7.13865-23.9622,35.9413-23.9622,35.9413l.91067.87694,5.293,5.097.91672.88275,14.9-18.46021s.62943,12.63,1.29649,23.66429c.12791,2.116.25725,4.17346.38374,6.07175.38324,5.75049.74087,10.042.95692,10.08523.11735.02347.45887.08906.93645.173,1.99287.35033,6.396,1.02456,7.22884.35248a.33214.33214,0,0,0,.14181-.2618c0-1.013,1.634-22.56748,2.39152-32.50608.22856-2.99867.3775-4.94173.3775-4.94173l28.74512-2.24159S1091.11359,102.15915,1089.07085,95.156Z"/><path class="cls-6" d="M1065.21652,110.62294c-.308,7.39412-2.62014,38.818-2.62014,38.818l2.24159-.13187,3.5498-29.61278-.33792-9.53381Z"/><path class="cls-6" d="M1071.11355,109.6647l-1.55351.25243-1.51019.24539.33792,9.53381,1.46081,41.21633s3.692.52743,3.692-.13184C1073.54062,160.19117,1071.537,118.47349,1071.11355,109.6647Z"/><path class="cls-6" d="M1096.08842,153.92417h4.48319L1084.0639,108.368c-1.59718.32534-3.06522.55146-4.37769.70634Z"/><path class="cls-6" d="M1095.69284,87.86309l-3.82389-.6593s0,4.61506-.923,6.85665l-.923,2.24159s-.3641-.4485-.95207-1.14606c2.04274,7.00318-2.74,9.585-2.74,9.585l-28.74512,2.24159s-.14894,1.94306-.3775,4.94173l8.00826-1.30135,2.83333-.46042,1.51019-.24539,1.55351-.25243,1.89964-.3087a37.60235,37.60235,0,0,0,6.673-.28164c1.31247-.15488,2.78051-.381,4.37769-.70634.3132-.06381.62576-.127.9484-.19872,7.12037-1.58232,8.43894-4.35135,11.86727-8.70266,1.1726-1.48831,1.63543-6.17031,1.73707-11.68647A20.80151,20.80151,0,0,1,1095.69284,87.86309Z"/><path class="cls-6" d="M1107.69194,68.74362a40.67391,40.67391,0,0,0-5.4536-17.39007c-.02872-.04875-.05549-.0985-.08444-.14712a16.15931,16.15931,0,0,0-5.99269-5.79876c-.40193-.226-.78319-.4213-1.134-.58341.02364.63722.06553,1.36317.13822,2.1627.26371,2.9009.79114,3.82391-.923,5.14249s-.52743,1.31857-1.97788,3.16461-2.90086.13184-5.14246-.26372-2.10975-3.16461-1.45044-5.93363a2.78918,2.78918,0,0,0-.005-1.79774c-1.09328.09952-2.5506.20459-3.90014.21331a11.46437,11.46437,0,0,1-2.9515-.26161,2.69841,2.69841,0,0,1-2.24159-2.37343l.16591-.31234a11.52768,11.52768,0,0,1-1.07008-.55991,34.71008,34.71008,0,0,0-7.00734,1.6634,9.34816,9.34816,0,0,0-3.64084,2.573,12.08861,12.08861,0,0,0-2.02908,3.62437,11.48933,11.48933,0,0,1-2.63738,3.90017l4.46048.03687a3.19121,3.19121,0,0,1,2.99454,2.16241l6.71257,19.71153c2.56508.10171,4.4647.78781,5.61142,2.143,1.45042,1.71413,5.27433,1.45041,5.27433,1.45041l.21631,3.67759,3.0407,1.40558a.18038.18038,0,0,1-.069.34416c-1.78005.05909-6.08016.22774-8.33918.31716-.49911.01977-.89688.03558-1.14742.04555l4.10823,1.79329,3.77268,1.64679c.44662.76018.81824,1.48065,1.13672,2.17082a17.93945,17.93945,0,0,1,.944,2.48488c.588.69756.95207,1.14606.95207,1.14606l.923-2.24159c.923-2.24159.923-6.85665.923-6.85665l3.82389.6593a20.80151,20.80151,0,0,0,2.9238-.08292c7.5825-.76738,9.61023-5.85174,10.78947-8.09231C1110.72471,77.18256,1108.08753,74.41353,1107.69194,68.74362Zm-6.94947,8.33631-1.16056.17855-5.52461,1.08179s2.32914-6.002,2.32914-8.33109.53749-2.86664.53749-2.86664l1.27279,4.1385a21.08376,21.08376,0,0,0,1.77923,3.75483A2.95505,2.95505,0,0,1,1100.74247,77.07993Z"/><path class="cls-6" d="M1099.976,75.03587a21.08376,21.08376,0,0,1-1.77923-3.75483c.10488,1.87321.20711,3.96543.28682,6.14642l1.09837-.169,1.16056-.17855A2.95505,2.95505,0,0,0,1099.976,75.03587Z"/><path class="cls-6" d="M1098.19672,71.281l-1.27279-4.1385s-.53749.5375-.53749,2.86664-2.32914,8.33109-2.32914,8.33109l5.52461-1.08179-1.09837.169C1098.40383,75.24647,1098.3016,73.15425,1098.19672,71.281Z"/><path class="cls-6" d="M1076.73927,44.5649c.20324-.027,5.04584.322,6.52916-1.33582"/><path class="cls-6" d="M1079.77827,40.26244s-.87254,3.272-3.05389,1.39606"/><path class="cls-6" d="M1077.07339,39.17176s-1.91847.84643-2.39948-.43627c-.39264-1.047.6544-2.53036.6544-2.53036"/><circle class="cls-7" cx="1072.09991" cy="34.37279" r="0.4799"/><circle class="cls-7" cx="1078.90573" cy="34.59093" r="0.4799"/><line class="cls-6" x1="1075.38663" y1="80.21529" x2="1063.99311" y2="80.4921"/><path class="cls-6" d="M1067.15593,106.21639c-.52713-.63256-6.099-5.23982-9.27761-11.597-.84342-1.68684-4.34513-2.24189-6.5365-.63256-4.09412,3.00669-7.46933,10.35857-7.46933,10.35857"/><path class="cls-6" d="M1057.58576,106.98256s-.65629-6.2484-2.87026-7.19724"/><line class="cls-6" x1="1102.89584" y1="76.59128" x2="1085.40789" y2="81.27015"/><line class="cls-6" x1="1091.86895" y1="87.20379" x2="1088.59587" y2="86.69748"/><path class="cls-6" d="M1096.92393,67.14254s-2.46229-5.10025-2.25143-6.36538"/><ellipse class="cls-6" cx="1056.61319" cy="69.10593" rx="4.00624" ry="3.47911"/><path class="cls-10" d="M1050.13952,17.37h-20.219a4.01461,4.01461,0,0,0-4.01456,4.01456V36.65315a4.01454,4.01454,0,0,0,4.01456,4.01448h19.03628l5.19726,6.76365V21.38454A4.01461,4.01461,0,0,0,1050.13952,17.37Z"/><path class="cls-6" d="M1048.84734,17.2373h-20.219a4.01461,4.01461,0,0,0-4.01456,4.01456V36.52047a4.01454,4.01454,0,0,0,4.01456,4.01448h19.03628l5.19726,6.76365V21.25186A4.01461,4.01461,0,0,0,1048.84734,17.2373Z"/><path class="cls-11" d="M1047.02345,25.77987a.329.329,0,0,0,.02662-.093l.00059-.01071-.00417-.00237.00476-.00834a.495.495,0,0,0-.01527-.10476c-.00833-.00476-.00773-.01547-.01607-.02023a.16383.16383,0,0,0-.04228-.06712.03332.03332,0,0,0-.01939-.02212.29715.29715,0,0,0-.06787-.06084l-.0125-.00714-.00748-.00427c-.3204-.13883-7.83121-3.45792-12.802-.54879-2.03708,1.19726-3.21774,2.67923-3.48408,4.39284a6.89125,6.89125,0,0,0,1.546,5.04371c-.03218.0467-.06451.10332-.10149.15841a1.08609,1.08609,0,0,1-.79936.50293.98711.98711,0,0,1-.50258-.08139,2.00137,2.00137,0,0,1-.3601.51459,1.57391,1.57391,0,0,0,.93405.17835,1.69249,1.69249,0,0,0,1.25181-.79442c.0227-.0301.04125-.06258.06311-.09316a6.08317,6.08317,0,0,0,4.08953.52342,5.11527,5.11527,0,0,0,3.11341-2.69573,15.89365,15.89365,0,0,1,7.0452-6.53261.93279.93279,0,0,0,.08265-.05c.00476-.00833.01235-.01392.01711-.02226a.50426.50426,0,0,0,.05014-.06846A.05524.05524,0,0,0,1047.02345,25.77987Zm-14.54011,7.93436a6.23241,6.23241,0,0,1-1.29171-4.39286c.23872-1.52406,1.31516-2.86022,3.18657-3.95884,3.41964-2.00411,8.31006-.79721,10.74772.01285C1038.83184,25.82441,1034.67307,30.436,1032.48334,33.71423Zm6.78935-1.52533a4.527,4.527,0,0,1-2.723,2.3909,5.38382,5.38382,0,0,1-3.59384-.45564c2.13181-3.22521,6.25273-7.83619,12.49741-8.1523A16.30811,16.30811,0,0,0,1039.27269,32.1889Z"/><path class="cls-3" d="M208.6809,156.04046h24.28239a4.82143,4.82143,0,0,1,4.82137,4.82136V179.199a4.82135,4.82135,0,0,1-4.82137,4.82127h-22.862l-6.24176,8.123V160.86182A4.82143,4.82143,0,0,1,208.6809,156.04046Z"/><path class="cls-6" d="M210.23276,155.88112h24.2824a4.82142,4.82142,0,0,1,4.82136,4.82136v18.33715a4.82135,4.82135,0,0,1-4.82136,4.82127h-22.862l-6.24175,8.12294V160.70248A4.82142,4.82142,0,0,1,210.23276,155.88112Z"/><path class="cls-7" d="M225.026,172.02167a.36815.36815,0,0,1,.11583-.29226,1.42038,1.42038,0,0,1,.37351-.21055l3.69431-1.38542-3.69431-1.41281q-.48956-.1899-.48934-.50236v-1.03211a.30872.30872,0,0,1,.12256-.25813.2886.2886,0,0,1,.29855-.02739l5.74595,2.2411a.47728.47728,0,0,1,.21728.12929.35733.35733,0,0,1,.08126.2514V170.731a.29851.29851,0,0,1-.088.23121,1.09641,1.09641,0,0,1-.21055.14949l-5.732,2.21371a.35865.35865,0,0,1-.30572,0,.2909.2909,0,0,1-.1293-.28507Z"/><path class="cls-7" d="M223.99346,175.13191H223.07a.41715.41715,0,0,1-.23075-.06106.40892.40892,0,0,1-.1495-.224l-3.30059-9.671q-.12255-.35353.18991-.35331h.91a.28885.28885,0,0,1,.28553.20382l3.38184,9.90221Q224.22511,175.13191,223.99346,175.13191Z"/><path class="cls-7" d="M218.47916,172.02167v1.01864a.29655.29655,0,0,1-.12256.28507.34209.34209,0,0,1-.29854,0l-5.732-2.21371a1.08254,1.08254,0,0,1-.21055-.14949.29875.29875,0,0,1-.08844-.23121v-1.20854a.35539.35539,0,0,1,.08171-.2514.47491.47491,0,0,1,.21728-.12929l5.732-2.2411a.3012.3012,0,0,1,.43457.28552v1.03211q0,.31247-.4889.50236l-3.69475,1.41281,3.69475,1.38542a1.298,1.298,0,0,1,.36679.21055A.38142.38142,0,0,1,218.47916,172.02167Z"/><path class="cls-8" d="M226.47121,15.024H210.68733a3.134,3.134,0,0,0-3.13395,3.134V30.07733a3.13394,3.13394,0,0,0,3.13395,3.13389h14.86061l4.05722,5.28V18.15794A3.134,3.134,0,0,0,226.47121,15.024Z"/><path class="cls-6" d="M225.46248,14.92042H209.6786a3.134,3.134,0,0,0-3.13395,3.13395V29.97376a3.13394,3.13394,0,0,0,3.13395,3.13389h14.86061l4.05722,5.28V18.05437A3.134,3.134,0,0,0,225.46248,14.92042Z"/><path class="cls-10" d="M260.08755,75.89a8.95233,8.95233,0,0,1,3.19587,2.51913,10.59861,10.59861,0,0,0,2.44292-.41962c.84218-.72188,5.4141,1.08284,3.48908-5.65475-1.34663-4.71325-3.92808-12.60079-5.35868-16.918l-.657,15.95553Z"/><path class="cls-8" d="M255.62,91.585c0,.43142.08952,4.66088.21015,10.16494,4.64161-.57748,11.32315-2.16166,11.58058-6.19459.19142-2.99888-2.29046-5.42109-4.82548-7.05412a4.65176,4.65176,0,0,1-.46831.7978C260.55285,91.46467,255.62,91.585,255.62,91.585Z"/><path class="cls-10" d="M249.12307,132.13062s-.60157,6.73758-1.6844,9.14384-2.52656,8.061.84222,8.18133,9.986.24062,9.14383-2.52659-.361-14.79858-.48126-15.1595c-.04764-.14287-.39771-.85269-.80231-1.6565C254.996,130.63274,251.06343,132.33487,249.12307,132.13062Z"/><path class="cls-7" d="M237.13323,112.88654l-.51887,1.00662a1.09731,1.09731,0,0,1-1.77876.25731,5.84377,5.84377,0,0,0-.76488-.69563l-1.43163,3.57907,8.423-.1831-8.91519,4.75478c-.20619,1.15041-.46091,2.40543-.75992,3.57173,3.8034-1.68143,9.506-3.96073,13.72285-4.67536-.38036-1.60444-.75152-3.251-1.10115-4.854A63.61593,63.61593,0,0,1,237.13323,112.88654Z"/><path class="cls-12" d="M233.49744,113.05144a21.54984,21.54984,0,0,0-5.64012-2.30815l-1.83444,4.1825c.97249-.45764,2.54292.1186,3.9233.8487a21.62122,21.62122,0,0,1,2.083,1.27266l.60995-.01324,1.43163-3.57907C233.89057,113.31577,233.69835,113.1816,233.49744,113.05144Z"/><path class="cls-7" d="M224.69943,131.16813a2.23439,2.23439,0,0,0,4.33127,0,1.78508,1.78508,0,0,0-1.49635-1.594c-.933.26058-1.452.88386-2.791,1.255A1.33149,1.33149,0,0,0,224.69943,131.16813Z"/><path class="cls-10" d="M232.50061,117.38009c-.12116-.088-.2802-.20136-.47147-.33294a21.62122,21.62122,0,0,0-2.083-1.27266c-1.38038-.7301-2.95081-1.30634-3.9233-.8487-2.04533.96252-8.422,5.53444-10.347,6.136s-5.77506,2.6469-4.211,5.2938,10.58759,5.05314,12.87353,4.57191c.14311-.03011.27772-.06309.4049-.09833,1.339-.37116,1.85795-.99444,2.791-1.255a3.899,3.899,0,0,1,1.49635-.09043c.943.09927,1.74212-1.91113,2.35626-4.30641.299-1.1663.55373-2.42132.75992-3.57173.39688-2.21454.61355-4.0329.61355-4.0329S232.66528,117.49975,232.50061,117.38009Z"/><path class="cls-7" d="M270.4477,122.65335l-.00454-.00905a2.33269,2.33269,0,0,0-.244-.34326,10.519,10.519,0,0,0-2.18584-.65516,2.31883,2.31883,0,0,0-1.56509,2.24327,2.17259,2.17259,0,1,0,4.3313,0A2.4706,2.4706,0,0,0,270.4477,122.65335Z"/><path class="cls-7" d="M270.41856,119.49771a103.38,103.38,0,0,0-14.25379-2.704c.02224.98989.044,1.95631.06492,2.88651,2.61687.36526,8.46941,1.21665,11.78362,1.96566a10.519,10.519,0,0,1,2.18584.65516c.13273.07223.21145.14087.21941.20452a.78544.78544,0,0,0,.0246.13874l.00454.00905C270.51592,122.71146,270.41856,119.49771,270.41856,119.49771Z"/><path class="cls-7" d="M238.65579,36.0001c.12031-.36093-.60157-6.25629-.60157-6.25629s2.76721-.60157,4.3313-.96253.9625.96253,3.00782-.24061,3.00786-.72188,3.48912-.12031a8.02984,8.02984,0,0,1,.71267,2.16192.32291.32291,0,0,0,.10147-.0599c.36983-.36981,0-2.14491.29585-2.73662s.44378-.73961,0-1.7751a9.31324,9.31324,0,0,1-.3698-3.47623c0-1.03549-.22188-.59172-1.7751-.73963s-1.03549-.73964-2.071-1.18341-1.84907.51775-3.62417.36983-1.923.29583-3.47623.73961-.73963.29586-2.51473,1.40529-1.03549,1.84907-1.923,2.36679-.07395,1.55324.14794,3.03248-.8136,2.36679.59169,3.69811a13.61559,13.61559,0,0,1,2.19578,3.04339c.087-.03778.17865-.07444.27881-.109C237.45265,35.15791,238.53548,36.36105,238.65579,36.0001Z"/><path class="cls-3" d="M250.20591,35.0376a19.05032,19.05032,0,0,0-.61078-4.45532,8.02984,8.02984,0,0,0-.71267-2.16192c-.48126-.60157-1.44379-1.08283-3.48912.12031s-1.44375-.12031-3.00782.24061-4.3313.96253-4.3313.96253.72188,5.89536.60157,6.25629-1.20314-.84219-1.20314-.84219c-.10016.03454-.19183.0712-.27881.109-2.943,1.27844,1.48195,4.34263,1.48195,4.34263.82.54662.8636,3.227.7484,5.44174-.08763,1.68487-.26714,3.10052-.26714,3.10052,3.36878,3.12816,9.14384-.96252,9.14384-.96252l-.27014-2.97149-.09082-.99886C249.00277,42.858,250.08557,36.60167,250.20591,35.0376Z"/><path class="cls-7" d="M231.00008,54.846l.79785,23.02327,1.9977-.07819c2.261-1.77934,4.86016-3.53123,4.86016-3.53123,5.05318-4.33127,4.09066-1.20311,15.27982,0A18.14747,18.14747,0,0,1,260.08755,75.89l3.1122-4.51773.657-15.95553.12332-2.99444a1.33277,1.33277,0,0,0-1.43792-1.38335l-.51132.04091-29.79834,2.38387A1.34006,1.34006,0,0,0,231.00008,54.846Z"/><path class="cls-10" d="M233.79563,77.791l-1.9977.07819L231.00008,54.846a1.34006,1.34006,0,0,1,1.2324-1.3822l29.79834-2.38387c-1.56465-2.127-5.62838-6.21293-14.02007-6.86211l.27014,2.97149s-5.77506,4.09068-9.14384.96252c0,0,.17951-1.41565.26714-3.10052l-.86871.09267a83.19285,83.19285,0,0,0-9.14383,5.77506c-3.11687,2.46468-3.48908.12031-4.09065,5.53441s-2.88755,19.97207-.72188,21.65644a16.73248,16.73248,0,0,0,4.29325,2.32818,6.22723,6.22723,0,0,0,1.72242.439A13.73149,13.73149,0,0,1,233.79563,77.791Z"/><path class="cls-3" d="M263.28342,78.40915A8.95233,8.95233,0,0,0,260.08755,75.89a18.14747,18.14747,0,0,0-6.15194-1.63022c-11.18916-1.20311-10.22664-4.33127-15.27982,0,0,0-2.5992,1.75189-4.86016,3.53123a13.73149,13.73149,0,0,0-3.20084,3.086c-.53524,1.12008.467,4.93417,1.25635,7.53133q-.2498.70668-.49657,1.421-.05755.16705-.1147.33473c-.71763,2.0935-1.40916,4.21754-2.05241,6.262-2.31815,7.36788-4.00677,13.68714-4.00677,13.68714s1.14483.20737,2.67663.63a21.54984,21.54984,0,0,1,5.64012,2.30815c.20091.13016.39313.26433.57328.4034a5.84377,5.84377,0,0,1,.76488.69563,1.09731,1.09731,0,0,0,1.77876-.25731l.51887-1.00662,4.53041-8.789s1.01541,5.454,2.345,11.55038c.34963,1.603.72079,3.24956,1.10115,4.854,1.43872,6.06874,3.00617,11.52266,4.01326,11.62866,1.94036.20425,5.87289-1.49788,7.01808-2.01742.204-.09253.32105-.14821.32105-.14821s-.10073-4.43223-.23251-10.28477c-.02094-.9302-.04268-1.89662-.06492-2.88651-.11054-4.92172-.23348-10.4298-.33461-15.0438-.12063-5.50406-.21015-9.73352-.21015-10.16494,0,0,4.93284-.1203,6.49694-2.286a4.65176,4.65176,0,0,0,.46831-.7978c.79107-1.73737-.11984-2.99652.61449-4.25535a10.90233,10.90233,0,0,1,1.44378-2.04535A6.07533,6.07533,0,0,0,263.28342,78.40915Z"/><path class="cls-1" d="M233.91679,117.24534s-.21666,1.81836-.61354,4.0329l8.91519-4.75478-8.423.1831-.13847.34618C233.82164,117.1724,233.91679,117.24534,233.91679,117.24534Z"/><path class="cls-1" d="M238.28959,112.55919a63.61628,63.61628,0,0,0,6.87544,2.76142c-1.32961-6.0964-2.345-11.55038-2.345-11.55038Z"/><path class="cls-6" d="M261.24391,75.56267a8.95246,8.95246,0,0,1,3.19588,2.51913,10.59832,10.59832,0,0,0,2.44291-.41962c.84219-.72188,5.41411,1.08284,3.48909-5.65475-1.34663-4.71325-3.92808-12.60079-5.35869-16.918l-.657,15.95553Z"/><path class="cls-6" d="M232.11208,89.93418c-2.59944.93311-2.46536,3.60154-1.76825,6.16459.64324-2.04445,1.33477-4.16849,2.0524-6.262C232.29754,89.86929,232.20239,89.90176,232.11208,89.93418Z"/><path class="cls-6" d="M256.77638,91.25762c0,.43142.08951,4.66088.21014,10.16494,4.64162-.57748,11.32316-2.16166,11.58059-6.19459.19142-2.99888-2.29046-5.42109-4.82548-7.05412a4.6512,4.6512,0,0,1-.46832.7978C261.70922,91.13732,256.77638,91.25762,256.77638,91.25762Z"/><path class="cls-6" d="M233.657,117.05274l.13847-.34618-.60994.01324C233.37678,116.85138,233.53581,116.9647,233.657,117.05274Z"/><path class="cls-6" d="M250.27944,131.80327s-.60157,6.73758-1.6844,9.14384-2.52656,8.061.84221,8.18133,9.986.24062,9.14384-2.52659-.361-14.79858-.48127-15.1595c-.04763-.14287-.3977-.85269-.80231-1.6565C256.15233,130.30539,252.2198,132.00752,250.27944,131.80327Z"/><path class="cls-6" d="M238.28959,112.55919l-.51887,1.00662a1.0973,1.0973,0,0,1-1.77875.25731,5.84441,5.84441,0,0,0-.76488-.69563l-1.43164,3.57907,8.423-.1831-8.91519,4.75478c-.2062,1.15041-.46091,2.40543-.75993,3.57173,3.80341-1.68143,9.506-3.96073,13.72286-4.67536-.38036-1.60444-.75152-3.251-1.10115-4.854A63.61628,63.61628,0,0,1,238.28959,112.55919Z"/><path class="cls-6" d="M234.6538,112.72409a21.5497,21.5497,0,0,0-5.64012-2.30815l-1.83444,4.1825c.9725-.45764,2.54293.1186,3.9233.8487a21.62152,21.62152,0,0,1,2.083,1.27266l.60994-.01324,1.43164-3.57907C235.04694,112.98842,234.85472,112.85425,234.6538,112.72409Z"/><path class="cls-6" d="M225.85579,130.84078a2.23439,2.23439,0,0,0,4.33127,0,1.78507,1.78507,0,0,0-1.49634-1.594c-.933.26058-1.452.88386-2.791,1.255A1.33105,1.33105,0,0,0,225.85579,130.84078Z"/><path class="cls-6" d="M233.657,117.05274c-.12117-.088-.2802-.20136-.47147-.33294a21.62152,21.62152,0,0,0-2.083-1.27266c-1.38037-.7301-2.9508-1.30634-3.9233-.8487-2.04533.96252-8.42195,5.53444-10.347,6.136s-5.77506,2.6469-4.211,5.2938,10.58759,5.05314,12.87353,4.57191c.14311-.03011.27772-.06309.4049-.09833,1.339-.37116,1.85795-.99444,2.791-1.255a3.899,3.899,0,0,1,1.49634-.09043c.943.09927,1.74213-1.91113,2.35626-4.30641.299-1.1663.55373-2.42132.75993-3.57173.39688-2.21454.61354-4.0329.61354-4.0329S233.82164,117.1724,233.657,117.05274Z"/><path class="cls-6" d="M271.60407,122.326l-.00454-.009a2.33418,2.33418,0,0,0-.244-.34326,10.519,10.519,0,0,0-2.18584-.65516,2.31882,2.31882,0,0,0-1.5651,2.24327,2.17259,2.17259,0,1,0,4.3313,0A2.47069,2.47069,0,0,0,271.60407,122.326Z"/><path class="cls-6" d="M271.57493,119.17036a103.38036,103.38036,0,0,0-14.25379-2.704c.02224.98989.044,1.95631.06492,2.88651,2.61687.36526,8.46941,1.21665,11.78362,1.96566a10.519,10.519,0,0,1,2.18584.65516c.13272.07223.21144.14087.21941.20452a.78443.78443,0,0,0,.0246.13874l.00454.009C271.67229,122.38411,271.57493,119.17036,271.57493,119.17036Z"/><path class="cls-6" d="M239.81216,35.67275c.12031-.36093-.60157-6.25629-.60157-6.25629s2.7672-.60157,4.3313-.96253.96249.96253,3.00782-.24061,3.00785-.72188,3.48911-.12031a8.03011,8.03011,0,0,1,.71268,2.16192.32273.32273,0,0,0,.10146-.0599c.36983-.36981,0-2.14491.29586-2.73662s.44378-.73961,0-1.7751a9.31324,9.31324,0,0,1-.3698-3.47623c0-1.03549-.22189-.59172-1.7751-.73963s-1.03549-.73964-2.071-1.18341-1.84907.51775-3.62417.36983-1.923.29583-3.47622.73961-.73964.29586-2.51473,1.40529-1.0355,1.84907-1.923,2.36679-.07394,1.55324.148,3.03248-.81361,2.36679.59169,3.69811a13.61622,13.61622,0,0,1,2.19578,3.04339c.087-.03778.17864-.07444.27881-.109C238.609,34.83056,239.69185,36.0337,239.81216,35.67275Z"/><path class="cls-6" d="M251.36227,34.71025a19.04969,19.04969,0,0,0-.61077-4.45532,8.03011,8.03011,0,0,0-.71268-2.16192c-.48126-.60157-1.44378-1.08283-3.48911.12031s-1.44376-.12031-3.00782.24061-4.3313.96253-4.3313.96253.72188,5.89536.60157,6.25629-1.20314-.84219-1.20314-.84219c-.10017.03454-.19183.0712-.27881.109-2.943,1.27844,1.482,4.34263,1.482,4.34263.82.54662.8636,3.227.74839,5.44174-.08763,1.68487-.26713,3.10052-.26713,3.10052,3.36878,3.12816,9.14383-.96252,9.14383-.96252l-.27014-2.97149-.09081-.99886C250.15913,42.53064,251.24194,36.27432,251.36227,34.71025Z"/><path class="cls-6" d="M232.15644,54.5186l.79786,23.02327,1.99769-.07819c2.261-1.77934,4.86017-3.53123,4.86017-3.53123,5.05318-4.33127,4.09065-1.20311,15.27981,0a18.14734,18.14734,0,0,1,6.15194,1.63022l3.1122-4.51773.657-15.95553.12332-2.99444a1.33276,1.33276,0,0,0-1.43792-1.38335l-.51131.04091L233.38884,53.1364A1.34007,1.34007,0,0,0,232.15644,54.5186Z"/><path class="cls-6" d="M234.952,77.46368l-1.99769.07819-.79786-23.02327a1.34007,1.34007,0,0,1,1.2324-1.3822l29.79835-2.38387c-1.56466-2.127-5.62838-6.21293-14.02008-6.86211l.27014,2.97149s-5.775,4.09068-9.14383.96252c0,0,.1795-1.41565.26713-3.10052l-.8687.09267s-6.588,2.38531-9.72451,5.01129c-1.538,1.28766-2.90841.88408-3.51,6.29818s-2.88754,19.97207-.72188,21.65644a16.73283,16.73283,0,0,0,4.29326,2.32818,6.22723,6.22723,0,0,0,1.72242.439A13.73139,13.73139,0,0,1,234.952,77.46368Z"/><path class="cls-6" d="M264.43979,78.0818a8.95246,8.95246,0,0,0-3.19588-2.51913,18.14734,18.14734,0,0,0-6.15194-1.63022c-11.18916-1.20311-10.22663-4.33127-15.27981,0,0,0-2.59921,1.75189-4.86017,3.53123a13.73139,13.73139,0,0,0-3.20083,3.086c-.53524,1.12008.467,4.93417,1.25635,7.53133q-.24979.70668-.49657,1.421-.05757.16706-.11471.33473c-.71763,2.0935-1.40916,4.21754-2.0524,6.262-2.31815,7.36788-4.00677,13.68714-4.00677,13.68714s1.14483.20737,2.67662.63a21.5497,21.5497,0,0,1,5.64012,2.30815c.20092.13016.39314.26433.57329.4034a5.84441,5.84441,0,0,1,.76488.69563,1.0973,1.0973,0,0,0,1.77875-.25731l.51887-1.00662,4.53042-8.789s1.01541,5.454,2.345,11.55038c.34963,1.603.72079,3.24956,1.10115,4.854,1.43871,6.06874,3.00617,11.52266,4.01326,11.62866,1.94036.20425,5.87289-1.49788,7.01807-2.01742.204-.09253.32105-.14821.32105-.14821s-.10072-4.43223-.2325-10.28477c-.02094-.9302-.04268-1.89662-.06492-2.88651-.11055-4.92172-.23348-10.4298-.33462-15.0438-.12063-5.50406-.21014-9.73352-.21014-10.16494,0,0,4.93284-.1203,6.49693-2.286a4.6512,4.6512,0,0,0,.46832-.7978c.79107-1.73737-.11984-2.99652.61448-4.25535a10.90258,10.90258,0,0,1,1.44379-2.04535A6.07533,6.07533,0,0,0,264.43979,78.0818Z"/><line class="cls-6" x1="239.81216" y1="73.93245" x2="233.00751" y2="88.08103"/><path class="cls-6" d="M264.35611,71.04494c-.70262.23629-17.8509,1.27558-17.8509,1.27558"/><line class="cls-6" x1="240.68519" y1="73.15195" x2="232.78659" y2="73.98338"/><path class="cls-6" d="M232.26694,71.48908c-1.03929-.7275-2.39037-2.39036-4.365-1.14321"/><path class="cls-6" d="M256.77638,91.25762s-3.72364-7.0892-6.84151-6.88134-7.11486,19.394-7.11486,19.394"/><path class="cls-6" d="M249.0763,42.89156s-3.61038,3.031-5.37717-.50259"/><path class="cls-6" d="M248.272,39.89467s-1.14321,1.24715-3.11786-.31178"/><path class="cls-6" d="M248.06415,35.01s2.79181,3.21419-1.66287,2.39037"/><path class="cls-6" d="M246.91022,33.38358l-.1192,1.40657a.6399.6399,0,0,1-.44064.55479l-1.98884.64345a.63991.63991,0,0,1-.79276-.37535l-.72713-1.85544a.6399.6399,0,0,1,.552-.87188l2.83518-.19457A.63989.63989,0,0,1,246.91022,33.38358Z"/><path class="cls-6" d="M248.59132,33.10353l.325,1.37369a.6399.6399,0,0,0,.51752.48388l2.0619.34362a.63989.63989,0,0,0,.72886-.488l.446-1.94228a.6399.6399,0,0,0-.67432-.78111l-2.83293.225A.63991.63991,0,0,0,248.59132,33.10353Z"/><path class="cls-6" d="M248.67465,33.59983s-1.30878-.39263-1.78867.47989"/><line class="cls-6" x1="243.00326" y1="34.25423" x2="238.60902" y2="34.83056"/><circle class="cls-7" cx="245.01741" cy="34.35714" r="0.41461"/><circle class="cls-7" cx="249.8797" cy="33.86714" r="0.41461"/><path class="cls-12" d="M218.46743,30.47845a1.3469,1.3469,0,0,1-.94345-.41651l-4.201-4.39848a1.34742,1.34742,0,1,1,1.9488-1.86128l3.14405,3.29205,5.11292-6.30445a1.3473,1.3473,0,1,1,2.09273,1.69746l-6.07675,7.493a1.34792,1.34792,0,0,1-.99175.49755C218.52434,30.47892,218.49573,30.4791,218.46743,30.47845Z"/><path class="cls-6" d="M218.28163,30.02939a1.347,1.347,0,0,1-.94345-.41652l-4.201-4.39848a1.34742,1.34742,0,1,1,1.94879-1.86128l3.14405,3.29206,5.11292-6.30445a1.34731,1.34731,0,1,1,2.09274,1.69746l-6.07675,7.493a1.34794,1.34794,0,0,1-.99176.49755C218.33854,30.02986,218.30993,30.03,218.28163,30.02939Z"/><path class="cls-6" d="M1131.58785,167.30992l.02568.19087.20611-.01415C1131.74152,167.42813,1131.66509,167.36882,1131.58785,167.30992Z"/><path class="cls-13" d="M1199.192,200.73435c-2.37315-4.74616-2.09931-7.30182-2.09931-7.30182-1.004-13.69094-2.73818-14.6949-5.65893-16.79421-1.75369-1.26047-9.85256-3.41363-16.43929-6.04774-4.383-1.75289-7.53144-4.30316-9.756-4.81369a71.39993,71.39993,0,0,0-8.67094-1.55164l-.15636.16513,3.89856,1.20392c.54761,1.643-3.46836,8.48843-9.12729,12.048s-11.13527,2.92076-13.69094,1.73415c-2.55559-1.18654-5.38509-8.21452-5.38509-8.21452l-.49288-3.66119c-5.06481.3473-11.24641.76443-14.27008.94229-5.61647.33038-4.29493,4.46012-12.88479,8.25947s-8.75506,1.98224-14.04107,4.79051c-5.28609,2.8082-10.40691,4.79044-16.02338,8.58979-5.6164,3.79936-6.60755,4.9557-7.26832,10.24179a3.3238,3.3238,0,0,0,1.00463,3.17424c.6262-4.97936,6.2306-11.99487,10.489-12.44314,5.66742-.59654,6.56226,2.6846,7.75541,5.66742,1.19314,2.9829,2.38629,3.87774,11.33491,4.77265a10.54136,10.54136,0,0,1,5.17258,1.54995c.27215-.05008.41989-.07811.41989-.07811l5.94685-2.80821,4.29129,6.64133,51.48747-.21278a5.542,5.542,0,0,1,5.54954,5.13l2.23808,30.028,7.22142-6.24549s-1.19315,1.19314,4.176.2983c5.36919-.89491,7.15894-2.088,10.73837,3.57944,1.28164,2.02921,1.48983,4.86127,1.23244,7.66132,2.06514-2.6602,6.866-9.2044,5.92892-11.439-1.18654-2.82944-.82144-14.87741,1.004-19.98873C1204.94216,210.50057,1201.56506,205.48058,1199.192,200.73435Z"/><path class="cls-3" d="M1160.30973,165.5943l-3.89856-1.20392-1.429-.44133a1.90364,1.90364,0,0,1-1.21249-1.12891l-.6913-1.77762c-.52874,1.23911-3.75,8.15346-10.56691,10.0282-.06969.01914-.13648.02487-.2057.04185-2.65.65066-4.95509-.26379-7.36989-1.59348a26.90485,26.90485,0,0,1-3.11627-2.03245l-.20611.01415.49288,3.66119s2.8295,7.028,5.38509,8.21452c2.55567,1.18661,8.032,1.82547,13.69094-1.73415S1160.85734,167.23726,1160.30973,165.5943Z"/><path class="cls-3" d="M1155.65483,139.85539c-1.04709.1848-2.09223,1.57286-2.66249,2.45746-.27478.42623-.44078.73706-.44078.73706s-.91277-3.83345-2.8295-5.02.91277-2.64692.3651-4.10723c-.54761-1.46038.54767-2.28182-1.82547-3.37711a7.52818,7.52818,0,0,1-3.377-3.10326s-.63893,1.91672-2.008,1.8254c-1.36906-.09126-.54761-.27377-2.1905.73019a12.65851,12.65851,0,0,1-5.93277,1.91673c-1.91673,0-1.91673-.45635-3.46836.73019s-1.09528.45635-3.65095.82144c-2.55559.3651-3.92471,3.10327-4.016,4.38113-.09125,1.2778-.27383,8.032-.27383,8.032l-.2206-.02837-1.18681-.15286s-1.20109-3.84363-2.162-1.92178c-.961,1.92178,1.68158,12.01131,3.60337,10.08953,0,0,.961,5.285,2.64253,7.92747a26.72332,26.72332,0,0,0,5.56713,5.51652c.07724.0589.15367.11821.23179.17672a26.90485,26.90485,0,0,0,3.11627,2.03245c2.4148,1.32969,4.71988,2.24414,7.36989,1.59348.06922-.017.136-.02271.2057-.04185,6.817-1.87474,10.03817-8.78909,10.56691-10.0282.05257-.12327.088-.21.088-.21l.2402-9.36885s2.79587,1.07864,3.79989-4.12387C1158.21042,142.13721,1157.20646,139.58155,1155.65483,139.85539Z"/><path class="cls-3" d="M1194.9513,239.37821c-3.57943-5.66749-5.36918-4.47435-10.73837-3.57944-5.36912.89484-4.176-.2983-4.176-.2983l-7.22142,6.24549.95739,12.84483.84531,2.38224,11.60908-5.43975,9.03988-3.33707s.36671-.44847.91654-1.15668C1196.44113,244.23948,1196.23294,241.40742,1194.9513,239.37821Z"/><path class="cls-13" d="M1187.71405,259.46237a33.22554,33.22554,0,0,0-1.48673-7.92909l-11.60908,5.43975,2.43582,6.86468-7.1133.05877-.04557-.05877h-12.26587c.12131.06612.2154.107.32021.15791a2.52476,2.52476,0,0,0,.69116.25719c3.30385.33039,8.58986,4.46012,12.88479,6.27724,4.29493,1.817,3.13859,3.13858,3.13859,3.13858,3.96454,10.7373,5.94685,9.25057,5.94685,9.25057.21075-.18858.384-.37811.57356-.56723,5.45835-5.4448,2.38871-11.06808,2.06945-13.14346C1182.92354,267.06108,1187.87924,263.42692,1187.71405,259.46237Z"/><path class="cls-10" d="M1123.617,264.2793l-18.74828.155-3.87773-12.52806-2.19232-33.10442c-1.6071-1.29344-3.19682-2.29389-4.37-2.39168-3.57943-.29824-8.65031-1.78969-10.44006-3.57944-1.09778-1.09778-4.66515-1.52474-8.29156-2.51488a5.14016,5.14016,0,0,0-3.93819,5.49778c.2983,8.94862,4.47434,30.42522,10.14176,46.53271,2.40125,6.82464,5.06866,13.59078,7.34745,19.12853,13.002-6.1576,27.18992-12.97686,31.13149-15.25079C1121.42911,265.6185,1122.50215,264.95287,1123.617,264.2793Z"/><path class="cls-3" d="M1102.88242,203.04576a10.54136,10.54136,0,0,0-5.17258-1.54995c-8.94862-.89491-10.14177-1.78975-11.33491-4.77265-1.19315-2.98282-2.088-6.264-7.75541-5.66742-4.2584.44827-9.8628,7.46378-10.489,12.44314a4.13568,4.13568,0,0,0,1.24208,3.96265,17.58691,17.58691,0,0,0,6.32448,2.85424c3.62641.99014,7.19378,1.4171,8.29156,2.51488,1.78975,1.78975,6.86063,3.2812,10.44006,3.57944,1.17313.09779,2.76285,1.09824,4.37,2.39168l-.04152-.62754-.37284-5.62955a5.34973,5.34973,0,0,1,5.31594-5.70327l1.44184-.00593A6.49208,6.49208,0,0,0,1102.88242,203.04576Z"/><path class="cls-7" d="M1174.61824,256.973l-.84531-2.38224-.95739-12.84483-2.23808-30.028a5.542,5.542,0,0,0-5.54954-5.13l-51.48747.21278-8.39838.03471-1.44184.00593a5.34973,5.34973,0,0,0-5.31594,5.70327l.37284,5.62955.04152.62754,2.19232,33.10442,3.87773,12.52806,18.74828-.155.13149-.07926c7.10091-4.28091,15.98125-8.81072,32.12729-.36233h14.01943l.04557.05877,7.1133-.05877Z"/><path class="cls-10" d="M1180.61092,282.9192s-1.98231,1.48673-5.94685-9.25057c0,0,1.15634-1.32153-3.13859-3.13858-4.29493-1.81712-9.58094-5.94685-12.88479-6.27724a2.52476,2.52476,0,0,1-.69116-.25719c-.10481-.05088-.1989-.09179-.32021-.15791h-1.75356c-16.146-8.44839-25.02638-3.91858-32.12729.36233l-.13149.07926c-1.11483.67357-2.18787,1.3392-3.23739,1.9447-3.94157,2.27393-18.1295,9.09319-31.13149,15.25079-12.5809,5.95811-24.05148,11.2967-24.05148,11.2967l.70067,3.03614,2.54663,11.03559.33214,1.43915a56.17272,56.17272,0,0,0,6.21125,1.04851c16.31636,1.85762,30.22337-3.75838,38.19506-8.11019a55.76109,55.76109,0,0,0,7.19722-4.57147l16.70409,2.98283c3.87774,5.36919,13.7212,8.65032,13.7212,8.65032,25.73184,2.33931,29.81494-17.331,30.3796-25.9304C1180.99488,282.54109,1180.82167,282.73062,1180.61092,282.9192Z"/><path class="cls-1" d="M1106.54258,205.88226l8.39838-.03471-4.29129-6.64132-5.94685,2.8082s-.14774.028-.41989.07811A6.49213,6.49213,0,0,1,1106.54258,205.88226Z"/><path class="cls-7" d="M1125.01856,136.89419c.09126-1.27787,1.46038-4.016,4.016-4.38113,2.55566-.3651,2.09931.36509,3.651-.82145s1.55163-.73019,3.46836-.73019a12.65851,12.65851,0,0,0,5.93277-1.91673c1.64289-1.004.82144-.82144,2.19049-.73018,1.36912.09132,2.00806-1.82541,2.00806-1.82541a7.52818,7.52818,0,0,0,3.377,3.10327c2.37315,1.09528,1.27787,1.91673,1.82548,3.3771.54767,1.46031-2.28183,2.92069-.3651,4.10723s2.8295,5.02,2.8295,5.02.166-.31084.44078-.73706c.23549-2.31559.47826-4.65012.56318-5.2869.18258-1.36912,2.09931-3.3771,1.46038-5.65893s-2.09925-1.73421-2.19057-5.11125c-.09126-3.3771-1.36905-3.83346-2.92069-5.02006-1.55163-1.18654-2.82949-1.55164-6.024-2.09924-3.19452-.54768-4.56365-2.82944-7.028-1.73422-2.46441,1.09528-3.65095,1.09528-7.11931.82151-3.46836-.27383-4.19855,2.5556-7.39307,4.56358-3.1946,2.008-6.024,11.68295-3.7422,13.41717,1.74594,1.32686,3.70135,6.81163,4.52556,9.64652l.2206.02838S1124.92731,138.172,1125.01856,136.89419Z"/><path class="cls-6" d="M1132.98836,166.3567l.02568.19087.2061-.01415C1133.142,166.47492,1133.0656,166.41561,1132.98836,166.3567Z"/><path class="cls-6" d="M1200.59249,199.78113c-2.37315-4.74616-2.09931-7.30182-2.09931-7.30182-1.004-13.69093-2.73818-14.69489-5.65893-16.7942-1.7537-1.26048-9.85256-3.41364-16.43929-6.04775-4.383-1.75288-7.53144-4.30315-9.756-4.81369a71.39826,71.39826,0,0,0-8.67094-1.55163l-.15636.16512,3.89856,1.20393c.54761,1.643-3.46836,8.48843-9.12729,12.048s-11.13528,2.92076-13.69094,1.73415c-2.55559-1.18654-5.38509-8.21452-5.38509-8.21452l-.49288-3.66119c-5.06482.3473-11.24641.76443-14.27009.94229-5.61646.33039-4.29493,4.46013-12.88479,8.25948s-8.755,1.98224-14.04107,4.79051c-5.28608,2.8082-10.4069,4.79044-16.02337,8.58979-5.6164,3.79935-6.60755,4.9557-7.26832,10.24178a3.32379,3.32379,0,0,0,1.00463,3.17424c.62619-4.97936,6.2306-11.99487,10.489-12.44313,5.66742-.59654,6.56226,2.68459,7.7554,5.66742,1.19315,2.98289,2.38629,3.87774,11.33491,4.77264a10.54137,10.54137,0,0,1,5.17259,1.55c.27215-.05007.41989-.07811.41989-.07811l5.94685-2.8082,4.29129,6.64132,51.48747-.21278a5.542,5.542,0,0,1,5.54954,5.13l2.23808,30.028,7.22142-6.2455s-1.19315,1.19315,4.176.29831c5.36919-.89491,7.15894-2.08806,10.73837,3.57943,1.28164,2.02922,1.48983,4.86128,1.23244,7.66132,2.06514-2.66019,6.866-9.20439,5.92892-11.439-1.18654-2.82943-.82144-14.87741,1.004-19.98873C1206.34267,209.54736,1202.96556,204.52736,1200.59249,199.78113Z"/><path class="cls-6" d="M1161.71024,164.64109l-3.89856-1.20393-1.429-.44132a1.90366,1.90366,0,0,1-1.21249-1.12892l-.6913-1.77761c-.52874,1.23911-3.75,8.15345-10.56691,10.02819-.06969.01915-.13648.02487-.2057.04186-2.65.65066-4.95509-.2638-7.36989-1.59349a26.90367,26.90367,0,0,1-3.11628-2.03245l-.2061.01415.49288,3.66119s2.8295,7.028,5.38509,8.21452c2.55566,1.18661,8.032,1.82547,13.69094-1.73415S1162.25785,166.28405,1161.71024,164.64109Z"/><path class="cls-6" d="M1157.05534,138.90217c-1.04709.18481-2.09223,1.57287-2.66249,2.45747-.27478.42622-.44078.73706-.44078.73706s-.91277-3.83346-2.8295-5.02.91277-2.64692.3651-4.10723c-.54761-1.46037.54767-2.28182-1.82548-3.3771a7.52818,7.52818,0,0,1-3.377-3.10327s-.63894,1.91673-2.00806,1.82541c-1.36905-.09126-.5476-.27378-2.19049.73018a12.65851,12.65851,0,0,1-5.93277,1.91673c-1.91673,0-1.91673-.45635-3.46836.73019s-1.09529.45635-3.651.82145c-2.55559.36509-3.92471,3.10326-4.016,4.38113-.09125,1.27779-.27383,8.032-.27383,8.032l-.2206-.02838-1.18681-.15286s-1.2011-3.84363-2.162-1.92178c-.961,1.92178,1.68158,12.01131,3.60336,10.08953,0,0,.961,5.285,2.64254,7.92748a26.72333,26.72333,0,0,0,5.56713,5.51651c.07724.05891.15367.11822.23178.17672a26.90367,26.90367,0,0,0,3.11628,2.03245c2.4148,1.32969,4.71987,2.24415,7.36989,1.59349.06922-.017.136-.02271.2057-.04186,6.817-1.87474,10.03817-8.78908,10.56691-10.02819.05257-.12328.088-.21.088-.21l.24021-9.36884s2.79587,1.07863,3.79989-4.12388C1159.61093,141.184,1158.607,138.62834,1157.05534,138.90217Z"/><path class="cls-6" d="M1196.35181,238.425c-3.57943-5.66749-5.36918-4.47434-10.73837-3.57943-5.36912.89484-4.176-.29831-4.176-.29831l-7.22142,6.2455.95739,12.84482.8453,2.38225,11.60909-5.43976,9.03987-3.33707s.36672-.44846.91655-1.15668C1197.84164,243.28627,1197.63345,240.45421,1196.35181,238.425Z"/><path class="cls-6" d="M1189.11456,258.50916a33.22555,33.22555,0,0,0-1.48673-7.9291l-11.60909,5.43976,2.43583,6.86467-7.11331.05877-.04556-.05877h-12.26587c.12131.06612.2154.107.3202.15792a2.52525,2.52525,0,0,0,.69117.25719c3.30384.33038,8.58986,4.46012,12.88479,6.27723,4.29493,1.81705,3.13859,3.13859,3.13859,3.13859,3.96454,10.73729,5.94685,9.25056,5.94685,9.25056.21075-.18858.384-.3781.57355-.56722,5.45836-5.44481,2.38872-11.06808,2.06946-13.14346C1184.32405,266.10786,1189.27975,262.4737,1189.11456,258.50916Z"/><path class="cls-6" d="M1125.01748,263.32608l-18.74827.15495-3.87773-12.528-2.19232-33.10443c-1.60711-1.29343-3.19682-2.29389-4.36995-2.39168-3.57943-.29824-8.65031-1.78968-10.44006-3.57943-1.09778-1.09778-4.66515-1.52475-8.29156-2.51489a5.14018,5.14018,0,0,0-3.9382,5.49778c.29831,8.94862,4.47435,30.42523,10.14177,46.53271,2.40125,6.82465,5.06866,13.59079,7.34745,19.12854,13.002-6.15761,27.18992-12.97686,31.13148-15.2508C1122.82961,264.66528,1123.90266,263.99966,1125.01748,263.32608Z"/><path class="cls-6" d="M1104.28293,202.09254a10.54137,10.54137,0,0,0-5.17259-1.55c-8.94862-.8949-10.14176-1.78975-11.33491-4.77264-1.19314-2.98283-2.088-6.264-7.7554-5.66742-4.2584.44826-9.86281,7.46377-10.489,12.44313a4.13569,4.13569,0,0,0,1.24208,3.96266,17.58672,17.58672,0,0,0,6.32448,2.85423c3.62641.99014,7.19378,1.41711,8.29156,2.51489,1.78975,1.78975,6.86063,3.28119,10.44006,3.57943,1.17313.09779,2.76284,1.09825,4.36995,2.39168l-.04152-.62754-.37285-5.62954a5.34975,5.34975,0,0,1,5.316-5.70328l1.44184-.00593A6.49213,6.49213,0,0,0,1104.28293,202.09254Z"/><path class="cls-6" d="M1176.01874,256.01982l-.8453-2.38225-.95739-12.84482-2.23808-30.028a5.542,5.542,0,0,0-5.54954-5.13l-51.48747.21278-8.39838.03471-1.44184.00593a5.34975,5.34975,0,0,0-5.316,5.70328l.37285,5.62954.04152.62754,2.19232,33.10443,3.87773,12.528,18.74827-.15495.1315-.07926c7.1009-4.28091,15.98125-8.81072,32.12729-.36233h14.01943l.04556.05877,7.11331-.05877Z"/><path class="cls-6" d="M1182.01143,281.966s-1.98231,1.48673-5.94685-9.25056c0,0,1.15634-1.32154-3.13859-3.13859-4.29493-1.81711-9.581-5.94685-12.88479-6.27723a2.52525,2.52525,0,0,1-.69117-.25719c-.1048-.05089-.19889-.0918-.3202-.15792h-1.75356c-16.146-8.44839-25.02639-3.91858-32.12729.36233l-.1315.07926c-1.11482.67358-2.18787,1.3392-3.23739,1.9447-3.94156,2.27394-18.12949,9.09319-31.13148,15.2508-12.5809,5.9581-24.05148,11.29669-24.05148,11.29669l.70067,3.03614,2.54663,11.03559.33214,1.43915a56.17037,56.17037,0,0,0,6.21125,1.04851c16.31635,1.85762,30.22337-3.75838,38.19506-8.11019a55.76075,55.76075,0,0,0,7.19721-4.57146l16.7041,2.98283c3.87774,5.36918,13.7212,8.65031,13.7212,8.65031,25.73184,2.33931,29.81493-17.331,30.37959-25.93039C1182.39539,281.58788,1182.22218,281.7774,1182.01143,281.966Z"/><path class="cls-6" d="M1049.72077,299.787a19.24185,19.24185,0,0,0-3.70547-4.091c-3.87774-2.6846-4.77258-1.19315-9.54516,1.49144s-8.65031,2.6846-17.00233,2.38629-11.33491,6.264-14.31773,11.33491c-2.9829,5.07082,2.68459,7.45711,6.56233,9.54516,3.87767,2.088,33.40805-6.56233,33.40805-6.56233l1.78975-14.01943S1048.01122,299.89227,1049.72077,299.787Z"/><path class="cls-6" d="M1145.01656,161.69571s-1.55383,2.46025-5.56792.518"/><path class="cls-6" d="M1139.18967,148.61758s-1.56369,10.19336.259,10.87686c2.07179.77692,4.27306-1.42435,3.8846-2.71921"/><line class="cls-6" x1="1153.95207" y1="142.0967" x2="1150.455" y2="147.58168"/><line class="cls-6" x1="1124.52413" y1="144.89782" x2="1129.3487" y2="149.00604"/><path class="cls-6" d="M1143.33324,148.87655s-5.43843-1.16538-6.60381.51794"/><rect class="cls-6" x="1129.3487" y="148.09963" width="7.38073" height="4.27305" rx="1.23796"/><rect class="cls-6" x="1143.33324" y="147.32271" width="7.38073" height="4.27305" rx="1.23796"/><path class="cls-6" d="M1110.64967,199.20623c.7004-.21841,8.59908-31.42465,12.61316-31.81311"/><path class="cls-6" d="M1181.43747,234.54725a23.16637,23.16637,0,0,1-.68263-13.67621c1.94229-7.51022-3.10768-8.02816-2.07179-11.65378s1.03589-10.35892,1.03589-10.35892-16.698-32.21794-16.32981-34.42689"/><path class="cls-6" d="M1157.27627,262.88449s12.18747,10.15361,14.39642,13.467"/><line class="cls-6" x1="1138.48419" y1="298.67884" x2="1131.72754" y2="290.34153"/><path class="cls-6" d="M1121.78009,295.696c.74349-.56842,13.99719-7.19527,16.75837-11.42909"/><line class="cls-6" x1="1106.26921" y1="263.48103" x2="1107.4291" y2="272.30178"/><line class="cls-6" x1="1175.17344" y1="253.63757" x2="1102.39148" y2="250.95298"/><circle class="cls-7" cx="1134.49288" cy="150.23616" r="0.72691"/><circle class="cls-7" cx="1146.55103" cy="149.95147" r="0.72691"/><path class="cls-13" d="M1194.29164,119.62227a7.18939,7.18939,0,0,0-6.17012,3.604.64034.64034,0,0,1-1.08522,0,7.13528,7.13528,0,0,0-13.33349,3.70173c0,8.12623,11.7401,16.233,13.8761,17.62573,2.134-1.39278,13.87413-9.4995,13.87413-17.62573A7.24379,7.24379,0,0,0,1194.29164,119.62227Zm-.54262,13.27543a1.59807,1.59807,0,0,1-1.601,1.60376h-2.25673v2.307a1.60511,1.60511,0,0,1-1.59142,1.62135H1186.858a1.60508,1.60508,0,0,1-1.59142-1.62135v-2.307h-2.25679a1.59,1.59,0,0,1-1.59142-1.60376v-1.469a1.60928,1.60928,0,0,1,1.59142-1.63893h2.25679v-2.28937a1.60507,1.60507,0,0,1,1.59142-1.62134h1.44187a1.6051,1.6051,0,0,1,1.59142,1.62134v2.28937h2.25673a1.61722,1.61722,0,0,1,1.601,1.63893Z"/><path class="cls-7" d="M1201.99386,126.744a8.51873,8.51873,0,0,0-8.425-8.58528,8.3811,8.3811,0,0,0-6.71272,3.41457,8.38131,8.38131,0,0,0-6.71273-3.41457,8.52034,8.52034,0,0,0-8.42691,8.58528c0,9.61477,14.21162,18.56146,14.81176,18.94233a.69178.69178,0,0,0,.32788.09576.66787.66787,0,0,0,.32788-.09576C1187.79185,145.30543,1201.99386,136.35874,1201.99386,126.744Zm-15.13767,17.62573c-2.136-1.39279-13.8761-9.4995-13.8761-17.62573a7.13528,7.13528,0,0,1,13.33348-3.70174.64034.64034,0,0,0,1.08523,0,7.13406,7.13406,0,0,1,13.33152,3.70174C1200.73032,134.8702,1188.99022,142.97691,1186.85619,144.3697Z"/><path class="cls-7" d="M1191.42527,129.60573h-2.25673v-2.28937a1.60511,1.60511,0,0,0-1.59142-1.62135h-1.44187a1.60507,1.60507,0,0,0-1.59142,1.62135v2.28937H1182.287a1.60928,1.60928,0,0,0-1.59143,1.63892v1.469a1.59,1.59,0,0,0,1.59143,1.60376h2.25679v2.307a1.60507,1.60507,0,0,0,1.59142,1.62134h1.44187a1.6051,1.6051,0,0,0,1.59142-1.62134v-2.307h2.25673a1.59806,1.59806,0,0,0,1.601-1.60376v-1.469A1.61722,1.61722,0,0,0,1191.42527,129.60573Zm.33553,3.10789a.3343.3343,0,0,1-.33553.32426h-2.88373a.63555.63555,0,0,0-.627.64857v2.938a.33987.33987,0,0,1-.33742.34377h-1.44187a.3308.3308,0,0,1-.32788-.34377v-2.938a.63863.63863,0,0,0-.6366-.64857H1182.287a.32628.32628,0,0,1-.32788-.32426v-1.469a.33037.33037,0,0,1,.32788-.34184h2.88373a.65116.65116,0,0,0,.6366-.64851v-2.93794a.33086.33086,0,0,1,.32788-.34384h1.44187a.33992.33992,0,0,1,.33742.34384v2.93794a.64816.64816,0,0,0,.627.64851h2.88373a.33788.33788,0,0,1,.33553.34184Z"/><path class="cls-1" d="M172.41834,273.22011l5.69715-11.81632c-1.91411-2.18754-7.77191-2.01779-11.32469-1.68564,2.77377-.99786,10.00023-4.22946,9.796-10.76569l4.00293,8.1598-8.04432,16.08863Z"/><path class="cls-10" d="M165.72545,260.0663s.40906-.11208,1.06535-.34815c3.55278-.33215,9.41058-.5019,11.32469,1.68564l-5.69715,11.81632-1.53906,3.192a1.836,1.836,0,0,1-3.0821-.13394,3.85263,3.85263,0,0,1-.94373-2.2169c-.06246-.64229-.02426-1.10857-.6643-1.53524a4.22431,4.22431,0,0,0-2.98958-.33557Z"/><path class="cls-10" d="M166.85345,274.06132a3.85263,3.85263,0,0,0,.94373,2.2169,1.836,1.836,0,0,0,3.0821.13394l1.53906-3.192.127-.01922,8.04432-16.08863,11.722-23.44408a3.55917,3.55917,0,0,1,3.05968-1.96531l.71772-.025,74.95624-2.60924a1.10987,1.10987,0,0,1,.993,1.67584l-26.50233,44.63561a4.91151,4.91151,0,0,1-3.70114,2.37617l-58.267,6.22856-12.538,1.34026s-15.9854-2.26954-28.22033-3.90989c-4.86731-.65258-9.14109-1.20559-11.57869-1.4765a.24817.24817,0,0,1-.00227-.49228Z"/><path class="cls-9" d="M141.93453,281.77233l.875-.35712c12.23493,1.64035,28.22033,3.90989,28.22033,3.90989l12.538-1.34026c7.57074,3.04778,21.21923,8.6355,21.3171,8.92907.04284.12846-3.19933,2.08334-7.62338,4.67987-9.41917,5.52824-24.21611,13.97605-24.21611,13.97605l-36.75331-15.27638-12.046-5.00686S141.53251,281.63832,141.93453,281.77233Z"/><path class="cls-3" d="M82.50185,232.71737c3.09881-2.634,13.53106-6.329,20.95966-8.74177a141.62489,141.62489,0,0,0-.00864,17.04765c.09955,1.39756.22743,2.7057.3886,3.88783,1.51557,11.11383,3.28367,26.52171,6.81986,27.02684a16.78709,16.78709,0,0,1,3.15424.9816c-7.08471-.82314-21.51538-6.68237-26.58753-6.87019A8.88554,8.88554,0,0,1,81.24617,263.2c-3.05624-3.02714-5.09248-7.87095-6.70418-11.578C72.0545,245.90087,77.52693,236.94606,82.50185,232.71737Z"/><path class="cls-8" d="M72.80073,203.86282A208.82853,208.82853,0,0,0,88.11,180.309c2.39439-4.22365,3.84421-7.04194,3.84421-7.04194s.56668-1.83758,1.45931-4.59347c2.7077-8.36014,8.42266-25.19436,10.48051-25.00731,2.73621.24872,7.95986,1.74119,8.20864,7.71113.24873,5.96988-3.98,6.71611-3.98,12.18854s2.98494,13.681-1.24374,15.42227c-2.28845.94231-5.00776,1.80932-7.0271,2.40878l.55971.57616-.24872,6.46738s4.22868,15.17355,4.72613,16.41723c.08407.2102.25124.72107.47,1.40362a160.225,160.225,0,0,0-1.89746,17.7142c-7.4286,2.41272-17.86085,6.10776-20.95966,8.74177-4.97492,4.22869-10.44735,13.1835-7.95986,18.90465,1.6117,3.70705,3.64794,8.55086,6.70418,11.578-23.0354-1.13839-22.4804-10.755-24.11643-17.29915C55.38855,238.936,62.60217,217.04638,72.80073,203.86282Z"/><path class="cls-8" d="M86.064,170.89765a12.8509,12.8509,0,0,1-2.31845-2.35677c-2.985-3.73117-13.68107-21.88965-13.68107-25.12332,0-3.23372,1.49247-7.95992,10.94486-7.46241,9.45232.49752,7.71113,9.20361,9.45232,12.68606,1.74126,3.48245,4.80529,13.75505,2.23871,16.41722-1.00012,1.03736,1.10909,2.1496.71307,3.61517l-7.42918,1.85726Z"/><path class="cls-5" d="M90.53893,169.39222l2.87455-.71862c-.89263,2.75589-1.45931,4.59347-1.45931,4.59347S90.50435,176.08536,88.11,180.309L86.064,170.89765l-.07974-.36679Z"/><path class="cls-9" d="M127.857,170.34653c-3.846,3.846-.48841,14.01651,1.67874,17.34147a31.17778,31.17778,0,0,0-6.49758.1382c-3.85537.918-9.17689.77327-12.96129,5.18151-.03239-4.34353.84282-9.75467,6.00568-13.02452,7.46241-4.72613,8.95488-20.39719,18.15848-27.1133,9.2036-6.71618,14.92476-19.40223,30.59575-10.94486,1.31923.712,2.51091,1.44247,3.60445,2.18167C140.19482,138.57543,131.9434,166.26017,127.857,170.34653Z"/><path class="cls-6" d="M179.51279,161.32726c.00677-.10433.00665-.20434.01174-.30763C179.52208,161.21822,179.51279,161.32726,179.51279,161.32726Z"/><path class="cls-3" d="M103.46151,223.9756a160.225,160.225,0,0,1,1.89746-17.7142c.37686-2.2.798-4.24513,1.261-6.05839a17.39743,17.39743,0,0,1,3.4569-7.1953c3.7844-4.40824,9.10592-4.26353,12.96129-5.18151a31.17778,31.17778,0,0,1,6.49758-.1382,5.44087,5.44087,0,0,0,.55919.74823,2.56019,2.56019,0,0,0,2.88119.38067,18.06182,18.06182,0,0,0,1.04129,3.13146,28.97169,28.97169,0,0,0,6.6143,9.076c13.52067,13.14769,16.27016,9.172,16.27016,9.172l3.33092-7.03195s5.3888,1.96285,7.44021-.46161c1.59938-1.89017,4.89853-7.51054,7.2902-11.44792a36.74507,36.74507,0,0,1,6.92793,2.38084c7.996,3.61723,12.40327,25.74,14.19795,38.04216l-.71772.025a3.55938,3.55938,0,0,0-3.05972,1.96539l-11.72193,23.444-4.00293-8.1598c.20427,6.53623-7.02219,9.76783-9.796,10.76569-.65629.23607-1.06535.34815-1.06535.34815l-2.52588,12.12421s-9.34574-.75772-28.795,1.263c-13.37506,1.38963-17.91053.39015-20.589-.534a16.78709,16.78709,0,0,0-3.15424-.9816c-3.53619-.50513-5.30429-15.913-6.81986-27.02684-.16117-1.18213-.28905-2.49027-.3886-3.88783A141.62489,141.62489,0,0,1,103.46151,223.9756Z"/><path class="cls-10" d="M137.13156,188.18q.43888-.51844.902-1.05464c1.54848.153,3.88957-.30666,5.86174-3.6311a6.02585,6.02585,0,0,0,.81676-3.14779,11.69274,11.69274,0,0,1,1.22-.86076c4.22869-2.48742,2.48749-8.70609,5.72122-12.686,3.23366-3.98,13.681-5.47243,18.15842-6.46745,4.4774-.995,7.83862,18.03344,7.83862,18.03344s.09117,8.50646-.93244,10.07055c-.47119.72-1.0787,1.7059-1.75468,2.81867-2.39167,3.93738-5.69082,9.55775-7.2902,11.44792-2.05141,2.42446-7.44021.46161-7.44021.46161l-3.16889,5.97634s-2.91152,5.03133-16.43219-8.11636a28.97169,28.97169,0,0,1-6.6143-9.076C134.77323,191.02128,135.86781,189.67281,137.13156,188.18Z"/><path class="cls-9" d="M142.3101,156.63939c7.4597-9.88409,18.27623-9.13812,26.48184-9.04489,8.20561.0933,10.72085,13.73276,10.72085,13.73276l.46867,6.96786c.368,2.3131.78869,5.12054-.12388,7.27763l-1.68422,2.13108-.52306.66185s-3.36122-19.0284-7.83862-18.03344c-4.47741.995-14.92476,2.48749-18.15842,6.46745-3.23373,3.97989-1.49253,10.19856-5.72122,12.686a11.69274,11.69274,0,0,0-1.22.86076c-.00839-3.04275-1.88862-6.30647-3.53155-8.63505-1.07554-1.52447-2.04785-2.64944-2.32051-3.04327-.83921-1.21219-4.3825.373-4.3825.373S134.85046,166.52341,142.3101,156.63939Z"/><path class="cls-9" d="M134.60252,187.98788a13.59561,13.59561,0,0,0,1.73983-1.32329,4.96315,4.96315,0,0,0,1.69119.46073q-.46153.53471-.902,1.05464c-1.26375,1.49285-2.35833,2.84132-3.11417,3.7684a18.06182,18.06182,0,0,1-1.04129-3.13146A8.41736,8.41736,0,0,0,134.60252,187.98788Z"/><path class="cls-7" d="M127.857,170.34653c4.08642-4.08636,12.33784-31.7711,40.58423-26.23983.758.14839,1.52183.3066,2.3089.504,0,0,9.32761,5.18106,8.77442,16.409-.00509.10329-.005.2033-.01174.30763,0,0-2.51524-13.63946-10.72085-13.73276-8.20561-.09323-19.02214-.8392-26.48184,9.04489-7.45964,9.884-7.83262,12.40171-7.83262,12.40171s3.54329-1.58518,4.3825-.373c.27266.39383,1.245,1.5188,2.32051,3.04327,1.64293,2.32858,3.52316,5.5923,3.53155,8.63505a6.02585,6.02585,0,0,1-.81676,3.14779c-1.97217,3.32444-4.31326,3.78414-5.86174,3.6311a4.96315,4.96315,0,0,1-1.69119-.46073,13.59561,13.59561,0,0,1-1.73983,1.32329,8.41736,8.41736,0,0,1-1.62642.829,2.56019,2.56019,0,0,1-2.88119-.38067,5.44087,5.44087,0,0,1-.55919-.74823C127.36857,184.363,124.011,174.19255,127.857,170.34653Z"/><path class="cls-1" d="M170.95071,271.32342l5.69715-11.81633c-1.9141-2.18754-7.77191-2.01779-11.32468-1.68564,2.77376-.99786,10.00022-4.22946,9.796-10.76569l4.00293,8.1598-8.04431,16.08863Z"/><path class="cls-6" d="M164.25783,258.1696s.409-.11207,1.06535-.34815c3.55277-.33215,9.41058-.5019,11.32468,1.68564l-5.69715,11.81633-1.539,3.192a1.836,1.836,0,0,1-3.0821-.13394,3.85263,3.85263,0,0,1-.94373-2.2169c-.06246-.64229-.02426-1.10857-.6643-1.53524a4.22431,4.22431,0,0,0-2.98958-.33557Z"/><path class="cls-6" d="M165.38583,272.16462a3.85263,3.85263,0,0,0,.94373,2.2169,1.836,1.836,0,0,0,3.0821.13394l1.539-3.192.127-.01923,8.04431-16.08863,11.722-23.44408a3.55915,3.55915,0,0,1,3.05968-1.96531l.71771-.025,74.95625-2.60924a1.10988,1.10988,0,0,1,.993,1.67585l-26.50234,44.6356a4.9115,4.9115,0,0,1-3.70113,2.37617l-58.267,6.22856-12.538,1.34026s-15.98539-2.26954-28.22032-3.90989c-4.86732-.65258-9.14109-1.20558-11.57869-1.4765a.24817.24817,0,0,1-.00227-.49228Z"/><path class="cls-6" d="M195.79388,295.69708l11.35456,5.76741s-27.36208,19.15351-28.10832,18.90472c-.74623-.24873-49.50046-22.13838-49.50046-22.13838l5.28481-3.83408,36.75331,15.27639S186.37472,301.22532,195.79388,295.69708Z"/><path class="cls-6" d="M140.46691,279.87563l.87495-.35712c12.23493,1.64035,28.22032,3.90989,28.22032,3.90989l12.538-1.34026c7.57074,3.04778,21.21923,8.6355,21.31711,8.92907.04284.12846-3.19934,2.08334-7.62339,4.67987-9.41916,5.52824-24.2161,13.97606-24.2161,13.97606l-36.75331-15.27639-12.046-5.00686S140.06489,279.74162,140.46691,279.87563Z"/><path class="cls-6" d="M81.03422,230.82067c3.09882-2.634,13.53107-6.329,20.95967-8.74177a141.62282,141.62282,0,0,0-.00864,17.04765c.09955,1.39756.22743,2.7057.3886,3.88783,1.51556,11.11383,3.28366,26.52171,6.81986,27.02684a16.787,16.787,0,0,1,3.15423.9816c-7.08471-.82314-21.51537-6.68237-26.58752-6.87019a8.88556,8.88556,0,0,1-5.98188-2.84931c-3.05623-3.02714-5.09247-7.87095-6.70417-11.578C70.58688,244.00417,76.05931,235.04936,81.03422,230.82067Z"/><path class="cls-6" d="M71.33311,201.96612a208.83132,208.83132,0,0,0,15.30923-23.55381c2.39439-4.22365,3.84421-7.04193,3.84421-7.04193s.56668-1.83759,1.45931-4.59348c2.70769-8.36014,8.42265-25.19435,10.48051-25.00731,2.73621.24872,7.95985,1.74119,8.20864,7.71113.24872,5.96988-3.98,6.71611-3.98,12.18854s2.98494,13.681-1.24375,15.42227c-2.28844.94231-5.00775,1.80932-7.02709,2.40878l.55971.57616-.24873,6.46738s4.22869,15.17355,4.72613,16.41723c.08407.2102.25124.72107.47,1.40362a160.22258,160.22258,0,0,0-1.89746,17.7142c-7.4286,2.41272-17.86085,6.10776-20.95967,8.74177-4.97491,4.22869-10.44734,13.1835-7.95985,18.90466,1.6117,3.707,3.64794,8.55085,6.70417,11.578-23.03539-1.13839-22.48039-10.755-24.11642-17.29915C53.92093,237.03927,61.13455,215.14968,71.33311,201.96612Z"/><path class="cls-6" d="M84.59642,169.001a12.85073,12.85073,0,0,1-2.31845-2.35678C79.293,162.913,68.5969,144.75453,68.5969,141.52087c0-3.23373,1.49246-7.95993,10.94485-7.46241,9.45233.49751,7.71114,9.2036,9.45233,12.686,1.74126,3.48245,4.80529,13.75505,2.2387,16.41722-1.00011,1.03736,1.1091,2.1496.71308,3.61517l-7.42919,1.85726Z"/><path class="cls-6" d="M89.07131,167.49552l2.87455-.71862c-.89263,2.75589-1.45931,4.59348-1.45931,4.59348s-1.44982,2.81828-3.84421,7.04193L84.59642,169.001l-.07975-.3668Z"/><path class="cls-6" d="M126.38936,168.44983c-3.846,3.846-.48841,14.01651,1.67874,17.34147a31.17774,31.17774,0,0,0-6.49758.1382c-3.85538.918-9.1769.77327-12.9613,5.18151-.03239-4.34353.84282-9.75467,6.00569-13.02452,7.46241-4.72613,8.95488-20.39719,18.15848-27.1133,9.2036-6.71617,14.92475-19.40223,30.59574-10.94486,1.31924.712,2.51092,1.44247,3.60446,2.18167C138.7272,136.67873,130.47578,164.36347,126.38936,168.44983Z"/><path class="cls-6" d="M178.04517,159.43056c.00677-.10433.00664-.20434.01174-.30763C178.05446,159.32152,178.04517,159.43056,178.04517,159.43056Z"/><path class="cls-6" d="M101.99389,222.0789a160.22258,160.22258,0,0,1,1.89746-17.7142c.37686-2.2.798-4.24513,1.261-6.05839a17.39768,17.39768,0,0,1,3.4569-7.1953c3.7844-4.40824,9.10592-4.26353,12.9613-5.18151a31.17774,31.17774,0,0,1,6.49758-.1382,5.43925,5.43925,0,0,0,.55919.74823,2.56019,2.56019,0,0,0,2.88119.38067,18.06089,18.06089,0,0,0,1.04128,3.13146,28.97169,28.97169,0,0,0,6.6143,9.07605c13.52068,13.14769,15.93026,10.12411,15.93026,10.12411l2.98384-7.08665s5.35065,2.23941,7.40206-.185c1.59938-1.89017,5.62366-8.68454,8.01534-12.62192a36.74507,36.74507,0,0,1,6.92793,2.38084c7.996,3.61723,12.40326,25.74,14.19794,38.04216l-.71771.025a3.55939,3.55939,0,0,0-3.05972,1.9654l-11.72194,23.444-4.00293-8.1598c.20427,6.53623-7.02219,9.76783-9.796,10.76569-.6563.23608-1.06535.34815-1.06535.34815L161.732,270.29381s-9.34574-.75772-28.795,1.263c-13.37506,1.38963-17.91054.39015-20.589-.534a16.787,16.787,0,0,0-3.15423-.9816c-3.5362-.50513-5.3043-15.913-6.81986-27.02684-.16117-1.18213-.28905-2.49027-.3886-3.88783A141.62282,141.62282,0,0,1,101.99389,222.0789Z"/><path class="cls-6" d="M135.66393,186.28326q.4389-.51845.902-1.05464c1.54847.153,3.88957-.30666,5.86174-3.6311a6.026,6.026,0,0,0,.81676-3.14779,11.691,11.691,0,0,1,1.22-.86075c4.22868-2.48743,2.48749-8.7061,5.72122-12.686,3.23366-3.98,13.681-5.47243,18.15841-6.46745,4.47741-.995,7.83863,18.03344,7.83863,18.03344s.09116,8.50647-.93244,10.07055c-.47119.72-1.07871,1.7059-1.75468,2.81867-2.39168,3.93738-6.416,10.73175-8.01534,12.62192-2.05141,2.42446-7.40206.185-7.40206.185l-2.98384,7.08665s-2.40958,3.02358-15.93026-10.12411a28.97169,28.97169,0,0,1-6.6143-9.07605C133.30561,189.12458,134.40019,187.77612,135.66393,186.28326Z"/><path class="cls-6" d="M140.84248,154.74269c7.4597-9.88409,18.27623-9.13812,26.48184-9.04489,8.20561.0933,10.72085,13.73276,10.72085,13.73276l.46867,6.96787c.368,2.31309.78869,5.12053-.12388,7.27762l-1.68422,2.13109-.52306.66184s-3.36122-19.0284-7.83863-18.03344c-4.4774.995-14.92475,2.48749-18.15841,6.46745-3.23373,3.97989-1.49254,10.19856-5.72122,12.686a11.691,11.691,0,0,0-1.22.86075c-.00839-3.04275-1.88862-6.30647-3.53155-8.635-1.07555-1.52447-2.04786-2.64944-2.32052-3.04327-.83921-1.21219-4.3825.373-4.3825.373S133.38284,164.62672,140.84248,154.74269Z"/><path class="cls-6" d="M133.13489,186.09118a13.59531,13.59531,0,0,0,1.73984-1.32329,4.96315,4.96315,0,0,0,1.69119.46073q-.46154.53471-.902,1.05464c-1.26374,1.49286-2.35832,2.84132-3.11417,3.7684a18.06089,18.06089,0,0,1-1.04128-3.13146A8.417,8.417,0,0,0,133.13489,186.09118Z"/><path class="cls-6" d="M126.38936,168.44983c4.08642-4.08636,12.33784-31.7711,40.58423-26.23983.758.1484,1.52183.3066,2.3089.504,0,0,9.32761,5.18106,8.77442,16.409-.0051.10329-.005.2033-.01174.30763,0,0-2.51524-13.63946-10.72085-13.73276-8.20561-.09323-19.02214-.8392-26.48184,9.04489-7.45964,9.884-7.83263,12.40171-7.83263,12.40171s3.54329-1.58518,4.3825-.373c.27266.39383,1.245,1.5188,2.32052,3.04327,1.64293,2.32858,3.52316,5.5923,3.53155,8.635a6.026,6.026,0,0,1-.81676,3.14779c-1.97217,3.32444-4.31327,3.78414-5.86174,3.6311a4.96315,4.96315,0,0,1-1.69119-.46073,13.59531,13.59531,0,0,1-1.73984,1.32329,8.417,8.417,0,0,1-1.62641.829,2.56019,2.56019,0,0,1-2.88119-.38067,5.43925,5.43925,0,0,1-.55919-.74823C125.901,182.46634,122.54334,172.29585,126.38936,168.44983Z"/><path class="cls-6" d="M102.85218,216.17206s-3.9276-5.61087-15.42987,2.52489c0,0-8.69684-5.33033-27.77378,16.13123"/><line class="cls-6" x1="87.42231" y1="218.69695" x2="98.64403" y2="185.31231"/><path class="cls-6" d="M98.38421,179.50031s-7.07776-4.67819-7.89766-8.12993"/><path class="cls-6" d="M101.02865,143.51137s-1.40272,9.3982-1.12217,13.88689.14027,17.67422,5.75113,18.095"/><path class="cls-6" d="M69.46754,142.81s8.276,9.95928,9.67874,12.76471,4.629,11.08146,9.3982,9.53847"/><path class="cls-6" d="M164.25783,258.1696s-19.74475,1.39383-29.65433-2.79869c-7.02031-2.97013-5.90764-3.23967-5.33593-10.67186s2.668-26.48907,2.47739-28.58533"/><path class="cls-6" d="M175.11913,247.05576s-3.3547-17.03051-3.16413-18.36449"/><path class="cls-6" d="M161.4498,202.85759a27.37923,27.37923,0,0,1-13.50648-6.563"/><path class="cls-6" d="M157.17834,193.02923s3.53331,4.64163,8.107,3.49822"/><path class="cls-6" d="M167.11123,182.88511s4.42311,2.29895,2.86869,5.18572c-.77234,1.43435-3.972.331-3.972.331"/><path class="cls-6" d="M133.00985,167.1444s3.60472,16.30019,1.86488,17.62349"/><path class="cls-6" d="M169.41166,274.51546s-6.05367,7.62283.15052,8.91294"/><ellipse class="cls-6" cx="129.64871" cy="177.90466" rx="2.95382" ry="5.24064" transform="matrix(0.97729, -0.21193, 0.21193, 0.97729, -34.75799, 31.51718)"/><path class="cls-6" d="M133.30078,167.40882c2.51116-.54455,5.39069,2.90531,6.43163,7.70548s-.15092,9.13293-2.66208,9.67748"/><circle class="cls-7" cx="172.07805" cy="177.84874" r="0.71466"/><circle class="cls-7" cx="157.62246" cy="178.63472" r="0.71466"/><path class="cls-6" d="M168.34405,158.43554s-5.79886-12.79426-8.79857-12.60678"/><path class="cls-6" d="M137.39235,166.77141s4.15488-10.25619,12.779-9.88122,10.68646-3.37468,10.68646-3.37468"/><path class="cls-6" d="M179.7599,180.50105c0,1.8361-2.364,3.32454-5.28016,3.32454s-5.28016-1.48844-5.28016-3.32454,2.55957-1.95561,5.47572-1.95561S179.7599,178.665,179.7599,180.50105Z"/><path class="cls-6" d="M163.319,181.25907c0,1.8361-2.364,3.32455-5.28016,3.32455s-5.28016-1.48845-5.28016-3.32455,2.55957-1.95561,5.47572-1.95561S163.319,179.423,163.319,181.25907Z"/><path class="cls-6" d="M169.19958,180.50105s-3.825-.97835-5.88054.758"/><path class="cls-6" d="M152.87808,180.01642c-.55167-.11034-9.81976-4.63405-9.81976-4.63405"/></g></svg>