<svg id="Layer_1" data-name="Layer 1" xmlns="http://www.w3.org/2000/svg" xmlns:xlink="http://www.w3.org/1999/xlink" viewBox="0 0 1300 294"><defs><style>.cls-1,.cls-10,.cls-11,.cls-2,.cls-5{fill:none;}.cls-2{stroke:#468fba;}.cls-10,.cls-14,.cls-2,.cls-5{stroke-miterlimit:10;}.cls-3{clip-path:url(#clip-path);}.cls-4{fill:#468fba;}.cls-5{stroke:#91bcd6;}.cls-6{fill:#b5d2e3;}.cls-7{fill:#dae9f2;}.cls-8{fill:#91bcd6;}.cls-12,.cls-14,.cls-9{fill:#1d5493;}.cls-10,.cls-11,.cls-12,.cls-14{stroke:#1d5493;}.cls-11,.cls-12{stroke-linejoin:round;}.cls-12{stroke-width:0.38195px;}.cls-13{fill:#b6d2e3;}.cls-14{stroke-width:0.97709px;}</style><clipPath id="clip-path"><rect class="cls-1" y="0.03458" width="1301.21303" height="293.93084"/></clipPath></defs><path class="cls-2" d="M1296.98233,135.94381l-2.93989,26.36926a2.44316,2.44316,0,0,0,2.15735,2.69873l49.44953,5.51306a2.44328,2.44328,0,0,0,2.69873-2.15734l3.61474-32.42371Z"/><g class="cls-3"><rect class="cls-4" y="0.03458" width="1301.21303" height="293.93084"/><circle class="cls-5" cx="1193.7429" cy="120.90074" r="41.06662"/><circle class="cls-5" cx="178.00713" cy="85.46412" r="17.98203"/><circle class="cls-5" cx="85.27779" cy="192.35486" r="53.09592"/><path class="cls-5" d="M829.825,294H887.6269a37.49138,37.49138,0,1,0-57.80186,0Z"/><path class="cls-5" d="M413.35-29.15339H370.8767a27.44281,27.44281,0,0,0-6.2149,19.73944A27.54383,27.54383,0,0,0,394.329,15.82861a27.54392,27.54392,0,0,0,25.24256-29.66724A27.38691,27.38691,0,0,0,413.35-29.15339Z"/><rect class="cls-5" x="461.67335" y="242.87047" width="69.53268" height="69.53268" rx="3.10884" transform="translate(-37.41054 81.32457) rotate(-9.02642)"/><rect class="cls-5" x="1012.75282" y="226.66809" width="34.60656" height="34.60656" rx="1.54728" transform="translate(49.59151 643.00367) rotate(-35.47058)"/><rect class="cls-5" x="1135.22915" y="28.94436" width="34.60656" height="34.60656" rx="1.54728" transform="translate(41.3347 -263.1218) rotate(13.2599)"/><rect class="cls-5" x="949.67044" y="-16.20988" width="34.60656" height="34.60656" rx="1.54728" transform="translate(178.82267 561.32308) rotate(-35.47058)"/><path class="cls-5" d="M806.74708,294.12739l-14.40631-16.91375a1.6959,1.6959,0,0,0-2.39069-.19141l-20.0824,17.10516Z"/><path class="cls-5" d="M49.15667-1.23274,39.66222,5.94554a1.03631,1.03631,0,0,0,.22156,1.78125l60.24371,25.459a1.03633,1.03633,0,0,0,1.43183-1.08251l-4.147-33.33606Z"/><path class="cls-5" d="M158.78619,294l4.039-36.2276a2.44312,2.44312,0,0,0-2.15735-2.69873l-49.44947-5.51306a2.44311,2.44311,0,0,0-2.69873,2.15735L103.80573,294Z"/><path class="cls-5" d="M955.20486,68.57578l46.10462,21.2544a.80444.80444,0,0,0,1.13784-.80416l-4.64546-50.555a.80443.80443,0,0,0-1.26533-.58332L955.07737,67.1883A.80444.80444,0,0,0,955.20486,68.57578Z"/><path class="cls-5" d="M1219.28062,303.20211l46.10461,21.2544a.80444.80444,0,0,0,1.13785-.80415l-4.64546-50.555a.80444.80444,0,0,0-1.26534-.58333l-41.45916,29.30058A.80443.80443,0,0,0,1219.28062,303.20211Z"/><path class="cls-5" d="M271.89131,49.60709l59.76034-38.04127a1.1225,1.1225,0,0,0-.08411-1.9424L268.74266-23.10992a1.1225,1.1225,0,0,0-1.64012,1.044l3.06454,70.77461A1.1225,1.1225,0,0,0,271.89131,49.60709Z"/><path class="cls-1" d="M265.37365,32.27816l.2091.42533A.884.884,0,0,1,265.37365,32.27816Z"/><path class="cls-4" d="M273.50506,36.75021c-.97817-1.203-1.54441-.27612-1.54441-.27612s-2.93606-.64465-3.76787-2.01969l.93708,1.687a33.41433,33.41433,0,0,1-3.54711-3.43791l-.2091-.42533s-1.7768-.17728.212-2.34038,7.41274.52427,7.41274.52427-1.04233-1.999,2.99147-2.64447,3.85882,5.1368,2.385,5.73624a3.48121,3.48121,0,0,1-2.55352.12566s.72659,1.063,1.1333,5.11607c.31915,3.18044-2.15851,3.47832-3.24047,3.45921l-1.04494-2.95366S274.48327,37.95321,273.50506,36.75021Z"/><path class="cls-6" d="M263.61052,39.22992l1.04615-2.07969a19.36383,19.36383,0,0,1,.717-4.87207.884.884,0,0,0,.2091.42533,33.41433,33.41433,0,0,0,3.54711,3.43791l-.93708-1.687c.83181,1.375,3.76787,2.01969,3.76787,2.01969s.56624-.92687,1.54441.27612-.83591,2.55089-.83591,2.55089l1.04494,2.95366.16855.4764c-.01892.00176-.03661-.0007-.05572.00166a16.8654,16.8654,0,0,1-3.80484,1.97l-2.27922-.91893c-2.3751.35162-2.62261-3.71424-2.62261-3.71424Z"/><path class="cls-7" d="M232.69421,47.88249l4.41558,1.933,6.8788-10.23919s-1.44831-3.40507-.65578-4.49612c0,0,.77838-.3562.99812,1.46036s.4291.7725.4291.7725.05825-10.20318.43448-10.08676c.17862.05525.34716.60757.47546,1.17235-.37812,1.16612-.42862,10.86511-.066,11.39573.29322.429.46489.29083.53187.26556-.94149,2.91394-5.149,15.54446-7.6109,16.3916,0,0-3.13729-.97678-5.68281-1.85041-.67834-1.83769-1.22427-3.12528-1.26323-3.31275C231.4408,50.623,232.26075,48.78769,232.69421,47.88249Z"/><path class="cls-6" d="M245.67,28.39867a.317.317,0,0,1,.04819-.10467c.4217-.45033.4335,2.79623.62562,3.11382s.39775-1.78071.9122-2.11361.56289,3.3687.65092,3.94449.349-.31956.72459-.3082-.34853,3.94176-.21853,5.555a12.89068,12.89068,0,0,0,.97189,3.37435,18.9475,18.9475,0,0,0-1.898,2.044c-.47009-1.33468-1.31118-3.73248-1.31838-3.82185-.00224-.02772-.01329-.02931-.03256-.022-.067.02527-.23865.16344-.53187-.26556C245.24135,39.26378,245.29185,29.56479,245.67,28.39867Z"/><path class="cls-7" d="M218.7451,40.26885c-.17544-.936-.6557-2.69793-.94409-3.72613.246-.10376.38549-.42651.46066-.5456.16849-.26692,1.017.04472,1.35395-.48912s.6212-.93674.6212-.93674,1.221.21828,1.3641-.36327.85055-.44854,1.18754-.98238,1.4646-.688,1.40882-1.38022.57648.08021,1.27075-.73575.59884-.42827,1.03425-.52669.58155.14314,1.12254-.21713a1.66371,1.66371,0,0,0,.25342-.20684l2.34827,6.91021s-.82188.72657-1.19225.683.958,2.78424-.38587,3.40614c-.63268.29277-1.37546.61-1.98624.86462-.68662.28624-1.206.49317-1.206.49317l-.1922.05055.11185,1.14883.1754,1.80114s-1.39815,2.68063-3.28623.19144a6.84754,6.84754,0,0,0-4.03419-2.51665A6.9666,6.9666,0,0,0,218.7451,40.26885Z"/><path class="cls-6" d="M217.32569,77.48669c.55566,1.03627,1.05508,1.96023,1.41771,2.64727-.34932.04531-.66455.08-.93039.10264a2.21041,2.21041,0,0,1-.82946-.00667c-.0702-.05976-.29766-1.90895-.58259-4.47835C216.71668,76.34859,217.02876,76.933,217.32569,77.48669Z"/><path class="cls-6" d="M218.20875,43.20047a5.01275,5.01275,0,0,1,.72624.10794,6.84745,6.84745,0,0,1,4.0342,2.51664c1.88808,2.48919,3.28622-.19144,3.28622-.19144l-.1754-1.80113-.11185-1.14884.1922-.05055s.51939-.20693,1.206-.49317c1.57657.94007,5.69288,3.47919,6.3256,4.7287,0,0-.10491.20442-.25593.51985-.43346.9052-1.25341,2.74053-1.11527,3.4059.039.18748.58489,1.47506,1.26323,3.31276,1.4107,3.82154,3.39689,10.03414,2.60747,13.7641A87.89311,87.89311,0,0,0,234.81971,80.895s-.06523-.0125-.17664-.03334c-1.24147-.23244-8.85057-1.61818-10.61906-1.00435-.16691.05793-.35534.11584-.5584.17321-.38574-1.12525-.81648-2.41188-1.27282-3.64941-.14819-.40172-.29892-.79842-.4518-1.18228a31.21693,31.21693,0,0,0-3.25762-5.82724c-.07767-.96393.81485-3.42123,1.28892-4.94631a25.85343,25.85343,0,0,0,.93034-4.844l-6.9957-.31672-.46886-3.99758S211.74411,48.56385,218.20875,43.20047Z"/><path class="cls-7" d="M214.24837,58.43921l6.9957.31672a25.85343,25.85343,0,0,1-.93034,4.844c-.47406,1.52508-1.36659,3.98238-1.28892,4.94631a31.21693,31.21693,0,0,1,3.25762,5.82724c.15288.38386.30361.78056.4518,1.18228.45634,1.23753.88708,2.52416,1.27282,3.64941a16.53454,16.53454,0,0,0,1.266,3.14479c1.31318,1.72844,4.37943,4.26943,4.3887,5.29587.00937,1.02643-2.71234-.882-2.71234-.882s2.06188,5.55674,1.32118,5.46969-2.03737-3.431-2.03737-3.431,1.10146,3.65313.35488,3.49319-1.99973-3.87423-1.99973-3.87423.86861,4.40558-.42937,3.77649l-.65477-2.66194s.26434,3.28035-.74789,2.55484c-1.01232-.72548-2.0088-9.44964-2.72119-11.00636-.09538-.20838-.2763-.56064-.51517-1.0132-.36264-.687-.86205-1.611-1.41772-2.64727-.29693-.55371-.609-1.1381-.92472-1.73511-1.61167-3.04806-3.3025-6.40392-3.38716-7.45461C213.63767,66.33907,214.24837,58.43921,214.24837,58.43921Z"/><path class="cls-8" d="M247.17233,43.23438a18.94737,18.94737,0,0,1,1.898-2.044,2.57981,2.57981,0,0,1,.49948-.3881s4.63671,6.83662,8.171,6.95239,6.68879-1.50036,9.61463-1.97647a10.69549,10.69549,0,0,0,1.84539-.48818,16.86466,16.86466,0,0,0,3.80484-1.97c.01911-.00235.0368.0001.05572-.00166,3.67456-.34156,3.99954,10.59419,3.81533,15.23184-.18517,4.66153,4.89032,15.94917,2.87443,20.75823a2.49051,2.49051,0,0,1-.45716.70476c-3.03572,3.36286-16.0359,1.81029-19.2404.16034-.43305-.22295-.68883-.44766-.71515-.66225-.23353-1.90392,2.55131-26.00229,2.55131-26.00229s-6.075.16907-7.68623.05856-7.65613-8.516-7.70745-9.15282A2.7048,2.7048,0,0,1,247.17233,43.23438Z"/><path class="cls-9" d="M260.82394,128.28953a.63292.63292,0,0,0,.28971-.40137c.93024,1.53255,1.81777,3.57953.72064,4.58421-1.8811,1.72264-13.47643,2.657-14.01224,1.578s2.88821-3.1504,3.93128-4.13219c.55116-.51877,2.58334-2.09671,4.37768-3.46976-.13578.52921-.24832.96113-.32938,1.27a.45842.45842,0,0,0,.41913.57355A24.15984,24.15984,0,0,0,260.82394,128.28953Z"/><path class="cls-7" d="M255.72043,126.74207c1.13737-4.433,3.90739-15.69964,3.48578-18.70965-.52845-3.77282.504-7.67141.78826-9.71423.20488-1.47245.01984-12.12423-.09947-17.95811,3.2045,1.64994,16.20467,3.20252,19.2404-.16035.31091,2.57086.6469,7.12358.83807,15.38633.0584,2.52428.88483,7.754.88046,10.92638-.00124.89888,1.67023,13.43953,2.51908,19.74972a7.42809,7.42809,0,0,1-2.88721.104,6.91111,6.91111,0,0,1-2.29775-1.04611.63211.63211,0,0,0,.10757-.42224c-.3308-1.32-9.09329-37.64566-9.09329-37.64566s-4.11922,18.51119-4.03674,22.31995-1.9465,12.05191-4.31687,16.05831a8.67933,8.67933,0,0,1-.14565,2.55136.6329.6329,0,0,1-.28972.40137,24.15983,24.15983,0,0,1-4.60318.00244.45841.45841,0,0,1-.41912-.57355C255.47211,127.7032,255.58464,127.27129,255.72043,126.74207Z"/><path class="cls-9" d="M283.2311,125.57881c.2888,2.147.48257,3.57408.48257,3.57408s-9.1033,6.79331-11.75383,4.53811c-2.43007-2.06766,5.07518-7.19762,6.0863-9.05428a6.91151,6.91151,0,0,0,2.29775,1.04611A7.42848,7.42848,0,0,0,283.2311,125.57881Z"/><path class="cls-4" d="M229.61509,129.54409s4.429-.577,5.87525-.84028c.08718-.01586.166-.03344.23862-.05211,1.2983,1.78643,3.6084,4.23731,5.0089,4.63755,1.83783.52522,6.62834,1.48579,6.0672,2.87763s-16.11636,3.31859-16.42919,2.22162l-.31283-1.097s-6.44867.74408-7.0923-1.67284c-.33093-1.24267.177-3.85718.74844-6.10532A25.713,25.713,0,0,0,229.61509,129.54409Z"/><path class="cls-8" d="M220.22008,88.43365c-.00635-.697-1.16246-4.75152-1.87543-8.06619.26583-.02262.58107-.05733.93039-.10265.23887.45256.41979.80483.51517,1.0132.71239,1.55673,1.70887,10.28089,2.72119,11.00637,1.01223.72551.7479-2.55484.7479-2.55484l.65476,2.66194c1.298.62909.42937-3.77649.42937-3.77649s1.25311,3.71428,1.99973,3.87422-.35487-3.49318-.35487-3.49318,1.29661,3.34393,2.03736,3.431c.7407.087-1.32118-5.46968-1.32118-5.46968s2.72171,1.90841,2.71234.882c-.00927-1.02643-3.07552-3.56742-4.3887-5.29587a16.53424,16.53424,0,0,1-1.266-3.14479c.20306-.05736.39149-.11527.5584-.17321,1.76849-.61382,9.37759.77191,10.61906,1.00436a23.82782,23.82782,0,0,1,.442,5.14787c-.19657,3.024-.36778,14.557-.71112,15.75856-.34343,1.2016,1.56951,1.26756,1.10247,5.48731s-1.90308,11.8926,1.05334,21.26588c0,0,.566.60208-.56568.89315-.07259.01867-.15144.03625-.23862.05211-1.4462.26328-5.87526.84028-5.87526.84028a25.71347,25.71347,0,0,1-5.8959-.03071c-.58826-.13119-.99662-.3379-1.05629-.65636-.2574-1.37328,2.017-26.86933,1.83485-29.12913C225.02938,99.85875,220.2294,89.46009,220.22008,88.43365Z"/><path class="cls-10" d="M225.92521,41.8704s-.43278.15205-.87078.29982"/><line class="cls-4" x1="230.06304" y1="137.29154" x2="230.59555" y2="129.5626"/><path class="cls-1" d="M264.90769,32.60812l.2091.42533A.884.884,0,0,1,264.90769,32.60812Z"/><path class="cls-11" d="M273.03911,37.08016c-.97818-1.203-1.54442-.27611-1.54442-.27611s-2.93606-.64465-3.76787-2.01969l.93708,1.687a33.41433,33.41433,0,0,1-3.54711-3.43791l-.2091-.42533s-1.77679-.17729.212-2.34039,7.41274.52428,7.41274.52428-1.04232-1.999,2.99147-2.64447,3.85882,5.1368,2.385,5.73624a3.48128,3.48128,0,0,1-2.55352.12566s.72659,1.063,1.1333,5.11607c.31915,3.18044-2.15851,3.47832-3.24046,3.45921l-1.04495-2.95366S274.01731,38.28317,273.03911,37.08016Z"/><path class="cls-11" d="M263.14457,39.55988l1.04615-2.07969a19.36348,19.36348,0,0,1,.717-4.87207.884.884,0,0,0,.2091.42533,33.41433,33.41433,0,0,0,3.54711,3.43791l-.93708-1.687c.83181,1.375,3.76787,2.01969,3.76787,2.01969s.56624-.92687,1.54442.27611-.83592,2.5509-.83592,2.5509l1.04495,2.95366.16854.4764c-.01892.00176-.03661-.0007-.05572.00166a16.86514,16.86514,0,0,1-3.80484,1.97l-2.27922-.91892c-2.3751.35162-2.6226-3.71424-2.6226-3.71424Z"/><path class="cls-11" d="M232.73492,46.95573l4.41559,1.933,6.87879-10.23918s-1.4483-3.40508-.65577-4.49612c0,0,.77837-.3562.99812,1.46035s.42909.7725.42909.7725.05826-10.20318.43448-10.08676c.17863.05526.34716.60758.47547,1.17235-.37812,1.16613-.42862,10.86511-.066,11.39573.29322.429.46489.29084.53187.26556-.9415,2.914-5.149,15.54446-7.6109,16.3916,0,0-3.13729-.97677-5.68281-1.8504-.67834-1.8377-1.22427-3.12529-1.26324-3.31276C231.48151,49.69627,232.30147,47.86093,232.73492,46.95573Z"/><path class="cls-11" d="M245.71069,27.47191a.31657.31657,0,0,1,.04819-.10466c.42169-.45034.4335,2.79622.62561,3.11381s.39776-1.78071.9122-2.1136.5629,3.3687.65093,3.94448.349-.31956.72459-.3082-.34853,3.94176-.21853,5.555a12.89026,12.89026,0,0,0,.97189,3.37436,18.94729,18.94729,0,0,0-1.898,2.04394c-.47008-1.33467-1.31118-3.73247-1.31838-3.82184-.00223-.02772-.01328-.02931-.03255-.022-.067.02528-.23865.16344-.53187-.26556C245.28207,38.337,245.33257,28.638,245.71069,27.47191Z"/><path class="cls-10" d="M218.7482,39.95307c-.17544-.936-.6557-2.69793-.94409-3.72613.246-.10376.38549-.42651.46066-.5456.16849-.26692,1.017.04472,1.35395-.48912s.6212-.93674.6212-.93674,1.221.21828,1.3641-.36327.85055-.44854,1.18754-.98238,1.4646-.688,1.40882-1.38023.57648.08022,1.27075-.73574.59884-.42827,1.03425-.52669.58155.14314,1.12254-.21713a1.66313,1.66313,0,0,0,.25342-.20685l2.34827,6.91022s-.82188.72657-1.19225.683.958,2.78424-.38587,3.40614c-.63268.29277-1.37546.61-1.98624.86462-.68662.28624-1.206.49317-1.206.49317l-.1922.05054.11185,1.14884.1754,1.80114s-1.39815,2.68063-3.28623.19144a6.84754,6.84754,0,0,0-4.03419-2.51665A6.96662,6.96662,0,0,0,218.7482,39.95307Z"/><path class="cls-10" d="M216.85973,77.81665c.55566,1.03627,1.05508,1.96023,1.41771,2.64727-.34932.04531-.66455.08-.93038.10264a2.21037,2.21037,0,0,1-.82946-.00667c-.07021-.05976-.29767-1.90895-.5826-4.47836C216.25072,76.67855,216.5628,77.26294,216.85973,77.81665Z"/><path class="cls-10" d="M217.50763,42.76774a5.01341,5.01341,0,0,1,.72625.10793,6.84754,6.84754,0,0,1,4.03419,2.51665c1.88808,2.48919,3.28623-.19144,3.28623-.19144l-.1754-1.80114-.11185-1.14884.1922-.05054s.51938-.20693,1.206-.49317c1.57657.94007,5.69289,3.47919,6.32561,4.7287,0,0-.10491.20442-.25594.51984-.43345.9052-1.25341,2.74054-1.11527,3.40591.039.18747.5849,1.47506,1.26324,3.31276,1.41069,3.82154,3.39688,10.03414,2.60747,13.7641a87.89161,87.89161,0,0,0-1.37176,13.02373s-.06523-.0125-.17665-.03334c-1.24146-.23245-8.85056-1.61818-10.61906-1.00436-.16691.05794-.35533.11585-.5584.17321-.38573-1.12525-.81647-2.41187-1.27282-3.6494-.14819-.40172-.29892-.79843-.45179-1.18228a31.21831,31.21831,0,0,0-3.25762-5.82725c-.07768-.96392.81485-3.42122,1.28891-4.9463a25.853,25.853,0,0,0,.93035-4.844l-6.9957-.31672-.46887-3.99758S211.043,48.13111,217.50763,42.76774Z"/><path class="cls-10" d="M213.00582,58.83175l6.9957.31672a25.853,25.853,0,0,1-.93035,4.844c-.47406,1.52508-1.36659,3.98238-1.28891,4.9463a31.21831,31.21831,0,0,1,3.25762,5.82725c.15287.38385.3036.78056.45179,1.18228.45635,1.23753.88709,2.52415,1.27282,3.6494a16.53376,16.53376,0,0,0,1.266,3.14479c1.31318,1.72845,4.37942,4.26944,4.3887,5.29587.00936,1.02643-2.71234-.882-2.71234-.882s2.06187,5.55673,1.32117,5.46968-2.03736-3.431-2.03736-3.431,1.10145,3.65313.35488,3.49318c-.74662-.15994-1.99974-3.87422-1.99974-3.87422s.86861,4.40558-.42937,3.77649l-.65476-2.66194s.26433,3.28035-.7479,2.55484c-1.01232-.72548-2.0088-9.44964-2.72119-11.00637-.09537-.20837-.2763-.56063-.51517-1.01319-.36263-.687-.86205-1.611-1.41771-2.64727-.29693-.55371-.609-1.1381-.92473-1.73512-1.61167-3.04806-3.30249-6.40391-3.38716-7.45461C212.39511,66.7316,213.00582,58.83175,213.00582,58.83175Z"/><path class="cls-10" d="M247.52753,42.97707a18.94729,18.94729,0,0,1,1.898-2.04394,2.579,2.579,0,0,1,.49947-.3881s4.63672,6.83662,8.17106,6.95238,6.68878-1.50036,9.61463-1.97646a10.69485,10.69485,0,0,0,1.84539-.48819,16.86514,16.86514,0,0,0,3.80484-1.97c.01911-.00236.0368.0001.05572-.00166,3.67456-.34157,3.99954,10.59419,3.81532,15.23183-.18516,4.66154,4.89033,15.94918,2.87444,20.75823a2.49041,2.49041,0,0,1-.45717.70476c-3.03572,3.36287-16.03589,1.81029-19.24039.16035-.43306-.223-.68883-.44767-.71515-.66226-.23353-1.90392,2.5513-26.00229,2.5513-26.00229s-6.075.16907-7.68623.05857-7.65613-8.516-7.70744-9.15282A2.70487,2.70487,0,0,1,247.52753,42.97707Z"/><path class="cls-10" d="M260.92723,128.13937a.63286.63286,0,0,0,.28971-.40137c.93025,1.53255,1.81777,3.57953.72065,4.58422-1.8811,1.72263-13.47644,2.657-14.01225,1.578s2.88822-3.1504,3.93129-4.13218c.55115-.51877,2.58333-2.09672,4.37767-3.46977-.13578.52922-.24831.96113-.32937,1.27a.45841.45841,0,0,0,.41912.57355A24.15983,24.15983,0,0,0,260.92723,128.13937Z"/><path class="cls-10" d="M256.2343,126.29828c1.13738-4.433,3.9074-15.69964,3.48579-18.70965-.52845-3.77282.504-7.67141.78826-9.71423.20488-1.47245.01984-12.12423-.09947-17.95811,3.2045,1.64994,16.20467,3.20252,19.24039-.16035.31092,2.57086.64691,7.12358.83807,15.38633.05841,2.52428.88484,7.754.88047,10.92638-.00124.89889,1.67023,13.43953,2.51908,19.74972a7.42809,7.42809,0,0,1-2.88721.104,6.91111,6.91111,0,0,1-2.29775-1.04611.63217.63217,0,0,0,.10757-.42224c-.3308-1.32-9.09329-37.64566-9.09329-37.64566s-4.11922,18.51119-4.03674,22.32-1.94651,12.05191-4.31688,16.05831a8.679,8.679,0,0,1-.14565,2.55136.63286.63286,0,0,1-.28971.40137,24.15983,24.15983,0,0,1-4.60318.00244.45841.45841,0,0,1-.41912-.57355C255.986,127.25941,256.09852,126.8275,256.2343,126.29828Z"/><path class="cls-10" d="M283.88689,125.81837c.2888,2.147.48257,3.57409.48257,3.57409s-9.1033,6.7933-11.75383,4.53811c-2.43007-2.06766,5.07519-7.19763,6.0863-9.05429a6.91111,6.91111,0,0,0,2.29775,1.04611A7.42809,7.42809,0,0,0,283.88689,125.81837Z"/><path class="cls-10" d="M229.14913,129.87405s4.429-.577,5.87526-.84028c.08717-.01586.166-.03344.23861-.05211,1.2983,1.78643,3.6084,4.23731,5.0089,4.63755,1.83783.52522,6.62834,1.48579,6.0672,2.87763s-16.11636,3.31859-16.42919,2.22161l-.31283-1.09695s-6.44867.74408-7.0923-1.67284c-.33093-1.24268.177-3.85719.74844-6.10532A25.71355,25.71355,0,0,0,229.14913,129.87405Z"/><path class="cls-10" d="M219.22249,88.63275c-.00635-.697-1.16246-4.75152-1.87543-8.06619.26583-.02262.58106-.05733.93038-.10264.23887.45256.4198.80482.51517,1.01319.71239,1.55673,1.70887,10.28089,2.72119,11.00637,1.01223.72551.7479-2.55484.7479-2.55484l.65476,2.66194c1.298.62909.42937-3.77649.42937-3.77649s1.25312,3.71428,1.99974,3.87422c.74657.15995-.35488-3.49318-.35488-3.49318s1.29662,3.34393,2.03736,3.431-1.32117-5.46968-1.32117-5.46968,2.7217,1.90841,2.71234.882c-.00928-1.02643-3.07552-3.56742-4.3887-5.29587a16.53376,16.53376,0,0,1-1.266-3.14479c.20307-.05736.39149-.11527.5584-.17321,1.7685-.61382,9.3776.77191,10.61906,1.00436a23.82784,23.82784,0,0,1,.442,5.14787c-.19658,3.024-.36779,14.557-.71113,15.75856-.34343,1.2016,1.56951,1.26756,1.10247,5.48732s-1.90307,11.8926,1.05334,21.26588c0,0,.566.60207-.56568.89314-.07259.01867-.15144.03625-.23861.05211-1.44621.26328-5.87526.84028-5.87526.84028a25.71355,25.71355,0,0,1-5.89591-.03071c-.58826-.13119-.99662-.3379-1.05629-.65636-.2574-1.37328,2.017-26.86933,1.83486-29.12913C224.03179,100.05785,219.23181,89.65919,219.22249,88.63275Z"/><path class="cls-12" d="M215.85444,33.27883c-.57141-.01729-.62718-.70948-.57739-1.66352s.20607-.58662.01936-1.33162.03458-1.14282.8222-1.5863.00715-.69726.20815-1.34678c.201-.64957.78255-.50643,1.0414-1.224s.43334.66176,1.291-.484.68505.64149,1.31132-.23233,1.73451.30357,1.767-.07906,1.20275-.7936,1.49-.3734,1.14282.03458,1.903.03666.51147.84547,1.01488.80491.63733.83533.64032,1.65845c.00162.43224.59969.24515.98446.42735.348.16479.2405.69279.32815.98874a.876.876,0,0,1-.21695.96928,1.66313,1.66313,0,0,1-.25342.20685c-.541.36027-.68712.11871-1.12254.21713s-.34-.28928-1.03425.52669-1.32653.04355-1.27075.73574-1.07183.84639-1.40882,1.38023-1.04439.40083-1.18754.98238-1.3641.36327-1.3641.36327-.2842.40291-.6212.93674-1.18546.2222-1.35395.48912c-.07517.11909-.21465.44184-.46066.5456a.39455.39455,0,0,1-.18748.0348c-.30152-.02316-.80424-.5267-.80424-.5267s-.2872-.42021-.79361-1.20275S216.42585,33.29612,215.85444,33.27883Z"/><path class="cls-10" d="M265.75446,41.09507s1.47794.89321,1.89527-.209"/><path class="cls-10" d="M267.2769,44.11384a6.89668,6.89668,0,0,0,2.57347-1.043"/><path class="cls-10" d="M225.45925,42.20036s-.43278.152-.87078.29982"/><path class="cls-10" d="M221.89786,35.63091s-1.39055-.50657-1.70514.47484.62527,2.874,1.59317,3.021"/><path class="cls-10" d="M226.42359,38.753s.83629.60748,1.43291.33444"/><line class="cls-10" x1="227.66668" y1="35.2644" x2="221.23189" y2="35.48267"/><ellipse class="cls-10" cx="228.28894" cy="35.88401" rx="0.61904" ry="1.15311" transform="translate(-2.14465 18.45237) rotate(-4.60703)"/><path class="cls-10" d="M229.93722,33.82218c.06644.82462-.2518,1.49874-.55917,1.5235s-.48747-.60919-.55392-1.43381.27289-1.53916.58026-1.56393S229.87077,32.99755,229.93722,33.82218Z"/><path class="cls-10" d="M231.61965,50.36164c-.18983-.23589-.359.04636-.44806-1.05931s-.45792-3.30167-.45792-3.30167"/><path class="cls-10" d="M220.00152,59.14847s2.51979-11.95042-3.92978-11.50745"/><path class="cls-10" d="M262.245,53.25174s4.13524-.17826,5.08837-.4045"/><path class="cls-10" d="M269.03655,45.238s2.845.06963,3.35973,1.82142"/><path class="cls-10" d="M233.57579,101.5587s-2.5935-12.08358-1.71922-15.14282"/><path class="cls-10" d="M224.03179,100.05785s2.5946,5.83305,2.34413,9.21562,2.53,20.26937,3.30226,20.58074"/><line class="cls-10" x1="229.59708" y1="137.6215" x2="230.12959" y2="129.89256"/><circle class="cls-9" cx="266.17373" cy="37.29057" r="0.38648"/><polygon class="cls-9" points="260.189 73.84 262.72 55.555 266.162 53.094 262.245 53.252 260.189 73.84"/><path class="cls-9" d="M224.00643,103.39339l2.32313,3.632s-1.44288-6.5069-2.1192-6.50074Z"/><path class="cls-9" d="M233.942,80.42889s-9.71015-.88095-11.00306.521l-.1744-1.35212S222.74881,78.23591,233.942,80.42889Z"/><path class="cls-9" d="M260.40888,79.91629s12.43125,7.048,19.32558.00376l-2.524,1.31283-2.75638.46865-7.78177-.19474Z"/><path class="cls-4" d="M1070.46777,15.21541c-.51446-.31932-1.54336,2.37715-1.54336,2.37715l-.12418-.01776s.65637-4.31077.24836-4.38173-1.54336,4.15112-1.54336,4.15112.85149-4.772.21287-5.02037c-.54478-.21186-1.21862,1.69321-1.40493,2.25783-.03211.0973-.20939,3.20605-.20939,3.20605s.08869-4.38175-.05323-4.73654-.65637.39028-.86925.7628-.7096,7.20238-.7096,7.20238c-.01773-.49671-.97568-1.5079-1.79173-1.95138a.96392.96392,0,0,0-1.40145.23061c-.10642.21287.15968.60315.9757,1.09988a2.37869,2.37869,0,0,1,1.0289,1.89816,1.56883,1.56883,0,0,0,.99344,1.25953.98223.98223,0,0,1,.62889.78854,15.10064,15.10064,0,0,1-3.52778,8.49895c-.13979.198-.21934.33558-.19485.39909a4.32849,4.32849,0,0,0,4.779,2.5539c.35479-.14191,1.59657-5.48161,1.68528-5.8364s1.25953-4.93168,1.25953-4.93168c.39028-.07095,1.01117-1.50789,1.0644-2.04009s0-5.48161,0-5.48161S1070.98223,15.53473,1070.46777,15.21541Z"/><path class="cls-4" d="M1047.24237,27.63187c-.33225-.62756.07383-1.36588-.443-1.99345s-.07383-1.25513-.9598-1.47661a4.71016,4.71016,0,0,1-1.62429-.59065c-.47989-.29532-.29533.36916-1.292.07384a3.82824,3.82824,0,0,1-1.292-.55373,1.45741,1.45741,0,0,1-1.29205.47989c-.886-.07384-.51681.22149-.9967.36916s-.84908.25841-.51684.84905.59065.886.25841.99673-1.03362-.11076-.7383.40605.25841,1.10748.11076,1.1444-.77524,0-.51683.47989.14767,1.51353-.22149,1.58737-.7014.33224-.73832.22149a2.78141,2.78141,0,0,0-1.07054-1.80886s-.77521-1.07056-1.18129.95981a2.48809,2.48809,0,0,0,1.29205,2.80555c.19981,1.9126-.76745,4.54407-1.13226,5.64407-.10695.32252-.1647.51988-.12287.52082,1.66118.03692,6.16486,4.46677,6.16486,4.46677a1.51486,1.51486,0,0,0,1.55046-.03692c.48427-.339.91955-2.10319,1.16269-3.28.12756-.61738.20319-1.076.20319-1.076,3.32237-1.21821,3.47-7.16161,3.47-7.16161l.07677-2.30322A2.03888,2.03888,0,0,0,1047.24237,27.63187Z"/><path class="cls-6" d="M1047.75917,26.7828c.11076-.55373-.29532-.9967-.18456-1.36586s-.18457-.59065-.443-.99673a1.9282,1.9282,0,0,1-.07383-1.43969c.11073-.4799-.62757.22148-.95981-.33225s-.36916-.36916-.40608-.7014-.40605-.03689-1.14437-.40605.11075-.40608-.55373-.59065-.51681.11073-1.10745-.18459-.73832-.18457-1.4397,0a7.37124,7.37124,0,0,1-1.1444.29532,2.54511,2.54511,0,0,0-1.62426.33224c-.77524.47992-.33225.443-.99673.81216s-.59065.36914-1.21821,1.292a5.3435,5.3435,0,0,0-.886,1.99345,5.4673,5.4673,0,0,0,.33224,2.32567,2.78141,2.78141,0,0,1,1.07054,1.80886c.03692.11075.36916-.14768.73832-.22149s.47989-1.10748.22149-1.58737.36916-.443.51683-.47989.18457-.62757-.11076-1.1444.40608-.29532.7383-.40605.07384-.40608-.25841-.99673.03692-.7014.51684-.84905.11073-.443.9967-.36916a1.45741,1.45741,0,0,0,1.29205-.47989,3.82824,3.82824,0,0,0,1.292.55373c.9967.29532.81214-.36916,1.292-.07384a4.71016,4.71016,0,0,0,1.62429.59065c.886.22148.443.84905.9598,1.47661s.11073,1.36589.443,1.99345a2.03888,2.03888,0,0,1,.1506.72383c.07233.9503-.06772,2.35753-.03985,2.52473a4.24143,4.24143,0,0,0,.40605-1.329C1047.90685,28.66549,1047.64844,27.33655,1047.75917,26.7828Z"/><path class="cls-13" d="M1061.18282,33.23972c-.02449-.06351.05506-.20114.19485-.39909-.202-.01529-.45582.09782-.73537.53711-.67155,1.05527-2.01462,3.06987-2.68614,3.30972s-2.1585-.23985-2.44632,1.00729-1.391,1.53492-3.64546,1.8707-5.08449-.47968-6.57146-.5756c-.50156-.03235-1.08972-.06462-1.64995-.09329-.24314,1.17679-.67842,2.941-1.16269,3.28a1.51486,1.51486,0,0,1-1.55046.03692s-4.50368-4.42985-6.16486-4.46677c-.04183-.00094.01592-.1983.12287-.52082a3.91094,3.91094,0,0,0-1.63454.03718c-1.439.5756-4.84464,2.35037-5.08449,3.93327s-.33577,2.97394-.71949,3.45361a8.59761,8.59761,0,0,0-.76748,5.51616s-.38372-.09593-.38372,2.11054.2878,4.89261-.1439,6.23568a9.97146,9.97146,0,0,0-.52765,4.94058c.2878,2.35037-.23982,2.0146-.19185,3.83734s-.19187,4.84463.2878,6.37958a10.16287,10.16287,0,0,0,.93264,2.18336c-.255-.5949-.416-.96164-.416-.96164l6.14278-.94133s.30681,2.12417.60685,4.23268c.09445.66364.18815,1.32524.27147,1.919l10.76208.90061.647.05414s1.19918.76748,1.10323-.52764-.5756-1.7268.57559-2.78207,1.487-3.02189,1.00733-7.67467a35.86162,35.86162,0,0,1-.096-6.61941c.33577-2.59021.81544-12.47136-.38373-14.96562,0,0-.95934-.096,2.06257-.47968s5.94788-2.15849,7.6267-2.878,2.30242.096,3.21379-.67152.95932-.4317,1.82272-1.34308a19.771,19.771,0,0,0,1.72682-2.878c.52762-.71952,2.01459,0,2.63342-4.44337A4.32849,4.32849,0,0,1,1061.18282,33.23972Z"/><path class="cls-4" d="M1034.94641,88.511c-.52158-1.782-1.34743-5.6939-1.39088-6.21548-.01369-.16427-.13524-1.05326-.29523-2.19355-.08332-.59381-.177-1.25541-.27147-1.919-.3-2.10851-.60685-4.23268-.60685-4.23268l-6.14278.94133s.161.36674.416.96164c1.05031,2.45079,3.71661,8.82616,3.50168,9.90086-.26711,1.33555-1.24651,1.78072-1.24651,3.20532a17.05472,17.05472,0,0,1-.30979,3.85464c-.21733.565-1.52128,2.78175-.82585,3.173.54806.30827,1.55234-1.26906,1.95452-1.95317a12.53221,12.53221,0,0,0-1.38947,2.99632c.1304.652.8693.52158.8693.52158s-.058.43549.21732.565a1.36506,1.36506,0,0,0,1.23346-.00344c.04228-.02235.07049-.04.07049-.04s.30425.5216,1.13008.21733,3.43375-4.12916,3.3468-5.38966A14.14868,14.14868,0,0,0,1034.94641,88.511Z"/><path class="cls-9" d="M1008.86031,146.71739a77.72474,77.72474,0,0,1,6.562,4.897c1.37115,1.37116,8.71666,5.09286,12.73218,2.4485,0,0,1.27322-2.4485-.9794-3.33s-4.30935-.58764-4.60317-2.44849c-.2083-1.31917-1.10133-3.276-1.18739-4.82816a53.08364,53.08364,0,0,1-7.5179-2.99158C1012.197,141.73954,1009.28363,144.17747,1008.86031,146.71739Z"/><path class="cls-4" d="M1045.10986,90.7806a70.77577,70.77577,0,0,0-1.08748-9.77806l-10.76208-.90061c.16,1.14029.28154,2.02928.29523,2.19355.04345.52158.8693,4.43343,1.39088,6.21548a14.14868,14.14868,0,0,1,.26077,4.38995c.08695,1.2605-2.521,5.08541-3.3468,5.38966s-1.13008-.21733-1.13008-.21733-.02821.01769-.07049.04c-.08446,5.07708,1.94474,13.21892,1.02048,14.22721-1.07734,1.17529,0,1.567-2.05674,4.30937s-16.258,21.93851-16.55181,23.01584c-.05569.20417.25555.48239.79486.799a53.08364,53.08364,0,0,0,7.5179,2.99158c.778.26,1.28532.42086,1.28532.42086S1037.067,121.64478,1040.299,119.588a3.8989,3.8989,0,0,0,1.22842-1.42663c2.127-3.803,2.53644-13.06489,3.37477-20.60982A46.397,46.397,0,0,0,1045.10986,90.7806Z"/><path class="cls-9" d="M1047.32106,139.66183c-.71814,2.07631-2.01258,6.22736-1.04774,6.66378,1.45266.6571,3.62378-.78352,6.65992-1.17527s8.91251-1.17527,8.71664-4.60317a2.30653,2.30653,0,0,0-1.46909-.88147,43.9068,43.9068,0,0,1-7.44523-1.38654l.00179.01538A53.99047,53.99047,0,0,1,1047.32106,139.66183Z"/><path class="cls-4" d="M1051.46413,117.5313c.78353-3.32994,2.44852-5.97432,1.27322-10.0878-.79469-2.78141-4.992-11.383-7.62749-16.6629a46.397,46.397,0,0,1-.20768,6.771c-.83833,7.54493-1.2478,16.80683-3.37477,20.60982.23591,8.02973.68648,21.28755,2.19948,21.70018a9.68409,9.68409,0,0,0,3.59417-.19976,53.99047,53.99047,0,0,0,5.41629-1.36729l-.00179-.01538C1052.66913,137.71314,1050.69375,120.80543,1051.46413,117.5313Z"/><path class="cls-10" d="M1070.93388,16.49752c-.51446-.31932-1.54336,2.37715-1.54336,2.37715l-.12418-.01775s.65638-4.31077.24836-4.38173-1.54336,4.15112-1.54336,4.15112.85149-4.772.21287-5.02037c-.54477-.21186-1.21862,1.69321-1.40493,2.25783-.0321.0973-.20939,3.206-.20939,3.206s.08869-4.38175-.05322-4.73654-.65638.39028-.86926.76281-.7096,7.20238-.7096,7.20238c-.01773-.49671-.97568-1.5079-1.79173-1.95138a.9639.9639,0,0,0-1.40145.23061c-.10642.21287.15968.60315.97571,1.09988a2.37873,2.37873,0,0,1,1.0289,1.89815,1.5688,1.5688,0,0,0,.99343,1.25954.98225.98225,0,0,1,.6289.78854,15.10067,15.10067,0,0,1-3.52779,8.499c-.13979.19795-.21934.33558-.19485.39909a4.32849,4.32849,0,0,0,4.779,2.5539c.35479-.14191,1.59657-5.48161,1.68528-5.8364s1.25954-4.93168,1.25954-4.93168c.39028-.071,1.01116-1.5079,1.06439-2.04009s0-5.48161,0-5.48161S1071.44835,16.81685,1070.93388,16.49752Z"/><path class="cls-10" d="M1047.70848,28.914c-.33224-.62756.07383-1.36588-.443-1.99345s-.07383-1.25513-.9598-1.47661a4.71016,4.71016,0,0,1-1.62429-.59065c-.47989-.29532-.29532.36916-1.292.07384a3.82852,3.82852,0,0,1-1.29205-.55373,1.45741,1.45741,0,0,1-1.29205.47989c-.886-.07384-.51681.22149-.9967.36916s-.84907.2584-.51683.84905.59064.886.2584.99672-1.03362-.11075-.73829.40606.2584,1.10748.11075,1.1444-.77524,0-.51683.47989.14767,1.51353-.22149,1.58737-.7014.33224-.73832.22148a2.78142,2.78142,0,0,0-1.07054-1.80885s-.77521-1.07056-1.18129.9598a2.4881,2.4881,0,0,0,1.29205,2.80556c.19981,1.9126-.76745,4.54406-1.13225,5.64407-.107.32251-.16471.51988-.12288.52082,1.66118.03692,6.16487,4.46677,6.16487,4.46677a1.51484,1.51484,0,0,0,1.55045-.03692c.48427-.339.91955-2.10319,1.16269-3.28.12757-.61738.20319-1.076.20319-1.076,3.32237-1.21821,3.47-7.16162,3.47-7.16162l.07677-2.30321A2.03861,2.03861,0,0,0,1047.70848,28.914Z"/><path class="cls-10" d="M1048.22529,28.06491c.11075-.55372-.29533-.9967-.18457-1.36586s-.18457-.59064-.443-.99672a1.92818,1.92818,0,0,1-.07384-1.4397c.11073-.47989-.62757.22149-.95981-.33224s-.36916-.36916-.40607-.7014-.40606-.03689-1.14438-.40605.11076-.40608-.55373-.59065-.51681.11073-1.10745-.18459-.73832-.18457-1.4397,0a7.37124,7.37124,0,0,1-1.1444.29532,2.54512,2.54512,0,0,0-1.62426.33224c-.77524.47992-.33224.443-.99673.81216s-.59064.36913-1.21821,1.292a5.3435,5.3435,0,0,0-.886,1.99345,5.46746,5.46746,0,0,0,.33224,2.32567,2.78142,2.78142,0,0,1,1.07054,1.80885c.03692.11076.36916-.14767.73832-.22148s.47989-1.10748.22149-1.58737.36916-.443.51683-.47989.18457-.62757-.11075-1.1444.40607-.29532.73829-.40606.07384-.40607-.2584-.99672.03692-.7014.51683-.84905.11073-.443.9967-.36916a1.45741,1.45741,0,0,0,1.29205-.47989,3.82852,3.82852,0,0,0,1.29205.55373c.9967.29532.81213-.36916,1.292-.07384a4.71016,4.71016,0,0,0,1.62429.59065c.886.22148.443.849.9598,1.47661s.11074,1.36589.443,1.99345a2.03861,2.03861,0,0,1,.1506.72383c.07234.9503-.06772,2.35753-.03985,2.52472a4.24143,4.24143,0,0,0,.40606-1.329C1048.373,29.94761,1048.11456,28.61867,1048.22529,28.06491Z"/><path class="cls-10" d="M1061.64893,34.52184c-.02449-.06351.05506-.20114.19485-.39909-.202-.01529-.45582.09781-.73537.53711-.67155,1.05527-2.01462,3.06986-2.68614,3.30971s-2.1585-.23985-2.44632,1.0073-1.391,1.53492-3.64546,1.87069-5.08448-.47967-6.57145-.57559c-.50157-.03235-1.08973-.06462-1.65-.09329-.24314,1.17679-.67842,2.941-1.16269,3.28a1.51484,1.51484,0,0,1-1.55045.03692s-4.50369-4.42985-6.16487-4.46677c-.04183-.00094.01592-.19831.12288-.52082a3.911,3.911,0,0,0-1.63455.03718c-1.439.5756-4.84463,2.35037-5.08448,3.93326s-.33578,2.97394-.7195,3.45362a8.59754,8.59754,0,0,0-.76747,5.51615s-.38373-.09592-.38373,2.11055.2878,4.89261-.1439,6.23568a9.97156,9.97156,0,0,0-.52765,4.94058c.2878,2.35037-.23982,2.01459-.19185,3.83734s-.19187,4.84463.2878,6.37958a10.16312,10.16312,0,0,0,.93264,2.18336c-.25494-.5949-.41595-.96165-.41595-.96165l6.14278-.94132s.30682,2.12417.60686,4.23268c.09445.66363.18814,1.32524.27147,1.919l10.76208.90061.647.05414s1.19917.76747,1.10322-.52765-.5756-1.72679.5756-2.78206,1.487-3.02189,1.00732-7.67468a35.8615,35.8615,0,0,1-.09595-6.6194c.33577-2.59022.81545-12.47136-.38373-14.96563,0,0-.95934-.09595,2.06257-.47967s5.94788-2.15849,7.6267-2.878,2.30242.09594,3.21379-.67153.95932-.4317,1.82272-1.34307a19.771,19.771,0,0,0,1.72682-2.878c.52762-.71952,2.01459,0,2.63342-4.44337A4.32849,4.32849,0,0,1,1061.64893,34.52184Z"/><path class="cls-10" d="M1035.41252,89.79308c-.52158-1.782-1.34743-5.6939-1.39088-6.21548-.01369-.16427-.13524-1.05326-.29522-2.19355-.08333-.59381-.177-1.25542-.27147-1.919-.3-2.10851-.60686-4.23268-.60686-4.23268l-6.14278.94132s.161.36675.41595.96165c1.05031,2.45079,3.71662,8.82616,3.50169,9.90086-.26712,1.33555-1.24652,1.78072-1.24652,3.20532a17.05472,17.05472,0,0,1-.30979,3.85464c-.21733.565-1.52128,2.78175-.82585,3.173.54807.30826,1.55234-1.26907,1.95452-1.95317a12.53221,12.53221,0,0,0-1.38947,2.99632c.1304.652.8693.52157.8693.52157s-.058.4355.21732.565a1.36507,1.36507,0,0,0,1.23346-.00343c.04229-.02236.0705-.04.0705-.04s.30425.5216,1.13007.21732,3.43375-4.12915,3.3468-5.38965A14.14867,14.14867,0,0,0,1035.41252,89.79308Z"/><path class="cls-10" d="M1009.32642,147.9995a77.72538,77.72538,0,0,1,6.562,4.897c1.37116,1.37116,8.71666,5.09285,12.73218,2.44849,0,0,1.27323-2.44849-.9794-3.33s-4.30934-.58765-4.60317-2.44849c-.2083-1.31917-1.10133-3.276-1.18739-4.82816a53.08483,53.08483,0,0,1-7.5179-2.99158C1012.66306,143.02166,1009.74975,145.45958,1009.32642,147.9995Z"/><path class="cls-10" d="M1045.576,92.06271a70.77744,70.77744,0,0,0-1.08747-9.778l-10.76208-.90061c.16,1.14029.28153,2.02928.29522,2.19355.04345.52158.8693,4.43343,1.39088,6.21548a14.14867,14.14867,0,0,1,.26077,4.38995c.087,1.2605-2.52095,5.0854-3.3468,5.38965s-1.13007-.21732-1.13007-.21732-.02821.01768-.0705.04c-.08446,5.07708,1.94475,13.21892,1.02048,14.22721-1.07734,1.17529,0,1.56705-2.05674,4.30936s-16.258,21.93851-16.55181,23.01585c-.05569.20416.25555.48238.79486.799a53.08483,53.08483,0,0,0,7.5179,2.99158c.778.26,1.28533.42086,1.28533.42086s14.39716-22.23234,17.62917-24.28907a3.89921,3.89921,0,0,0,1.22842-1.42664c2.127-3.803,2.53643-13.06488,3.37477-20.60981A46.39848,46.39848,0,0,0,1045.576,92.06271Z"/><path class="cls-10" d="M1047.78718,140.944c-.71815,2.07631-2.01259,6.22736-1.04775,6.66377,1.45266.65711,3.62379-.78351,6.65993-1.17527s8.9125-1.17526,8.71664-4.60316a2.30653,2.30653,0,0,0-1.4691-.88147,43.90686,43.90686,0,0,1-7.44522-1.38655l.00179.01539A53.99131,53.99131,0,0,1,1047.78718,140.944Z"/><path class="cls-10" d="M1051.93024,118.81342c.78354-3.32994,2.44852-5.97433,1.27323-10.0878-.79469-2.78141-4.992-11.383-7.6275-16.66291a46.39848,46.39848,0,0,1-.20767,6.771c-.83834,7.54493-1.2478,16.80683-3.37477,20.60981.2359,8.02973.68647,21.28756,2.19947,21.70019a9.68436,9.68436,0,0,0,3.59418-.19976,53.99131,53.99131,0,0,0,5.41629-1.36729l-.00179-.01539C1053.13524,138.99526,1051.15986,122.08754,1051.93024,118.81342Z"/><path class="cls-10" d="M1044.31227,39.10265a3.16754,3.16754,0,0,1-3.87662-.85462c-1.90166-2.00446-2.8782-1.85027-2.8782-2.36424a13.23689,13.23689,0,0,0-.15419-1.4905"/><path class="cls-11" d="M1041.82336,34.75307s3.34077.514,3.80334.10279a2.21326,2.21326,0,0,1-2.36424,1.38771A3.58981,3.58981,0,0,1,1041.82336,34.75307Z"/><path class="cls-11" d="M1045.11273,29.66482a3.60883,3.60883,0,0,0-.35977,1.79887c.15419.71956.46257,1.28492.30838,1.43911a9.48831,9.48831,0,0,1-1.33631.61675"/><path class="cls-11" d="M1047.342,49.76938a10.79822,10.79822,0,0,1,.392-2.27"/><path class="cls-11" d="M1035.70718,42c5.91059,1.90167,3.64915,8.01785,3.13518,10.07371s-3.64915,4.57428-3.495,6.78433a5.01643,5.01643,0,0,1-1.28491,4.00893c-.56536.61675,0,0-.15419,2.10725s-.77094,2.67262-.46257,5.191-.257,3.13519-.59764,5.06709"/><path class="cls-11" d="M1041.39594,43.49558s1.60954-.10791,1.60954,3.28426,1.4391,10.89605,1.90167,14.80218-.56536,6.63015-.82235,10.63907-.41117,9.25137-.41117,9.25137"/><line class="cls-11" x1="1027.91542" y1="45.93205" x2="1032.75075" y2="39.12377"/><circle class="cls-9" cx="1041.62806" cy="30.1984" r="0.32095"/><circle class="cls-9" cx="1046.05003" cy="30.69765" r="0.32095"/><path class="cls-11" d="M1037.4417,32.45013s-.34772.7216-.9555.41379"/><path class="cls-11" d="M1036.99126,31.28429c-.13248-.159-.7154-1.19234-.7419-.63592s.212,1.4573.58292,1.40431"/><path class="cls-9" d="M1041.99353,119.44352a11.23692,11.23692,0,0,0,1.7744-5.71223c.22892-3.66264,2.12813-19.30107,1.808-21.66858l2.198,4.61441s-3.72725,22.4049-5.69338,23.19135Z"/><polygon class="cls-9" points="1044.488 82.285 1034.022 83.578 1033.726 81.384 1044.488 82.285"/><path class="cls-1" d="M1113.68905,172.516l14.40024,16.03669c2.90085-8.46187,3.03565-19.17372,1.52347-22.02016a29.70079,29.70079,0,0,0-3.78373-5.2568,62.77287,62.77287,0,0,0-6.15656,4.3882C1116.57719,168.20675,1113.93688,171.48311,1113.68905,172.516Z"/><path class="cls-7" d="M1168.596,119.06618c-3.60682-7.21377-2.9306-19.387-12.17326-21.6413-9.24255-2.25433-12.84949-6.76291-16.231-.90177,0,0-5.185,0-5.63572,3.156-.451,3.156-5.63584,10.3698-5.41047,15.55473.22548,5.18487-1.57793,7.43919,1.12731,12.17321a10.408,10.408,0,0,1,1.36349,5.62743c-.06892,2.03172-.61729,3.3898-.23642,3.3898.15032,0-.22772-.4105,2.55562-.38821.36146.00288,2.67206.65063,5.21145,1.36973.01659-.196.07716-.30818.193-.30818,1.15813,0,6.7555.8686,7.52759-1.54411a5.43187,5.43187,0,0,0-.44309-2.9069c-1.34-3.89253-4.97715-10.06127-7.0845-13.11338-2.79875-4.05332-.57906-4.53588-.193-5.98347.38592-1.4476-.67551-3.37776-.96511-5.40442s3.47427-7.72061,3.47427-7.72061c1.15812-1.83364,5.59737-1.83364,5.59737-1.83364,3.48845,1.73108,16.80237,13.00381,16.0204,19.49454-.69963,5.80628-3.76138,8.54569-4.051,8.73871-.28947.193,1.9909,3.41715,2.40235,3.758l4.64027-.91582c.33735.04216,1.19518.22713,2.34684.51554a7.51566,7.51566,0,0,1,2.21792-3.67675C1174.0062,123.34934,1172.20279,126.27994,1168.596,119.06618Z"/><path class="cls-13" d="M1168.63243,130.18212c-1.15166-.28841-2.00949-.47338-2.34684-.51554l-4.64027.91582c-.41145-.34088-2.69182-3.565-2.40235-3.758.28959-.193,3.35134-2.93243,4.051-8.73871.782-6.49073-11.43839-18.07591-16.0204-19.49454,0,0-4.43925,0-5.59737,1.83364,0,0-3.76386,5.69395-3.47427,7.72061s1.351,3.95682.96511,5.40442c-.386,1.44759-2.60573,1.93015.193,5.98347,2.10735,3.05211,5.74453,9.22085,7.0845,13.11338a5.43187,5.43187,0,0,1,.44309,2.9069c-.77209,2.41271-6.36946,1.54411-7.52759,1.54411-.11586,0-.17643.11216-.193.30818-.14915,1.76348,3.43568,10.6358,5.694,11.8518,2.50915,1.35109,12.5459,5.79045,20.65255.193C1172.39757,144.69734,1168.3913,131.185,1168.63243,130.18212Z"/><path class="cls-13" d="M1184.81515,158.52235s-2.89532,12.4495-3.76386,15.82725c-.86865,3.37776-2.50927,8.78217-.77208,14.86216.24407.854.55883,1.82788.90935,2.86538,12.44392-13.47307,10.28552-22.07892,10.28552-24.00054,0-1.37379-1.55146-7.93275-2.6416-12.07817C1187.68941,157.42415,1186.07125,158.72072,1184.81515,158.52235Z"/><path class="cls-13" d="M1127.29651,190.65936c.28724-.68.54648-1.388.79278-2.10671L1113.68905,172.516c.24783-1.03285,2.88814-4.30921,5.98342-6.85207a62.77287,62.77287,0,0,1,6.15656-4.3882c-.45521-.51584-.75209-.82319-.75209-.82319s-13.3588-6.90212-16.45-9.3163c-2.35225,3.75286-6.84572,10.80024-10.18624,15.29978-4.72884,6.36952,9.74727,18.33641,13.3181,20.74912a38.25733,38.25733,0,0,1,9.84372,9.55425c2.99177,4.14983-.28947,10.22982-.28947,12.25648s2.8952,3.18473,2.8952,3.18473l.48261-4.14983A37.88928,37.88928,0,0,1,1127.29651,190.65936Z"/><path class="cls-4" d="M1181.91983,135.457c-1.28222-1.88569-9.1668-4.24293-13.2874-5.27491-.24113,1.00286,3.76514,14.51522-3.11892,19.26853-8.10665,5.59743-18.1434,1.15807-20.65255-.193-2.25827-1.216-5.8431-10.08832-5.694-11.8518-2.53939-.7191-4.85-1.36685-5.21145-1.36973-2.78334-.02229-2.4053.38821-2.55562.38821-.38087,0,.1675-1.35808.23642-3.3898-2.92672.11209-5.41023.24389-6.75256.39586-5.11476.57906-16.59922,15.92377-16.8887,16.98533-.03564.13056.19832.38192.63188.7205,3.09116,2.41418,16.45,9.3163,16.45,9.3163s.29688.30735.75209.82319a29.70079,29.70079,0,0,1,3.78373,5.2568c1.51218,2.84644,1.37738,13.55829-1.52347,22.02016-.2463.71874-.50554,1.42672-.79278,2.10671a37.88928,37.88928,0,0,0-2.60561,17.37137s.22443-.0667.63411-.16874a46.32839,46.32839,0,0,1,22.33458.36176c10.23494,2.79857,29.797,1.954,36.20939,1.58186,1.32691-.077,2.10417-.13426,2.10417-.13426.99546-2.23968-2.63948-11.24539-4.78459-17.59421-.35052-1.0375-.66528-2.01137-.90935-2.86538-1.73719-6.08-.09657-11.4844.77208-14.86216.86854-3.37775,3.76386-15.82725,3.76386-15.82725,1.2561.19837,2.87426-1.0982,4.01733-2.52392a8.55159,8.55159,0,0,0,1.194-1.91545C1190.79856,152.24934,1183.56057,137.86974,1181.91983,135.457Z"/><path class="cls-13" d="M1183.869,209.80561c-6.4124.37211-25.97445,1.21671-36.20939-1.58186a46.32839,46.32839,0,0,0-22.33458-.36176c-.569,5.73247-2.13617,21.68653.17844,30.82933,1.6178,6.39052,11.65489,40.12033,19.95257,67.82956l-5.52575,34.9964s.39781.05516,1.04356.13985c2.63784.34588,9.4738,1.19106,10.83718.85025a.64675.64675,0,0,0,.07328-.03111c.7168-.29042,1.87669-2.30538,2.9793-4.61892,1.279,4.2504,2.03925,6.77155,2.03925,6.77155s.793-.04669,1.96844-.123c2.86873-.18626,8.02407-.54966,9.58777-.84831.29441-.05622.466-.11021.466-.1602,0-.42433-5.79887-47.382-5.79887-47.382s17.397-49.07923,18.66988-55.58543C1182.988,234.43821,1186.03914,214.83269,1183.869,209.80561Z"/><path class="cls-11" d="M1167.11461,118.43659c-3.60682-7.21377-2.9306-19.387-12.17327-21.6413-9.24254-2.25432-12.84948-6.76291-16.23094-.90176,0,0-5.185,0-5.63572,3.156-.451,3.156-5.63584,10.36979-5.41047,15.55472.22548,5.18487-1.57793,7.43919,1.12731,12.17321a10.408,10.408,0,0,1,1.36349,5.62743c-.06892,2.03172-.61729,3.38981-.23642,3.38981.15032,0-.22772-.41051,2.55562-.38822.36146.00288,2.67206.65064,5.21145,1.36973.01658-.196.07716-.30818.193-.30818,1.15813,0,6.7555.8686,7.52759-1.54411a5.43187,5.43187,0,0,0-.44309-2.9069c-1.34-3.89253-4.97715-10.06127-7.0845-13.11337-2.79875-4.05333-.57906-4.53588-.193-5.98348.38592-1.4476-.67552-3.37775-.96511-5.40442s3.47427-7.7206,3.47427-7.7206c1.15812-1.83365,5.59737-1.83365,5.59737-1.83365,6.37581,2.20444,16.80236,13.00381,16.0204,19.49455-.69963,5.80627-3.76138,8.54568-4.051,8.7387-.28948.193,1.9909,3.41715,2.40235,3.758l4.64027-.91582c.33735.04217,1.19518.22713,2.34684.51554a7.51571,7.51571,0,0,1,2.21791-3.67675C1172.52485,122.71975,1170.72144,125.65036,1167.11461,118.43659Z"/><path class="cls-11" d="M1167.15108,129.55253c-1.15166-.28841-2.00949-.47337-2.34684-.51554l-4.64027.91582c-.41145-.34088-2.69183-3.565-2.40235-3.758.28959-.193,3.35134-2.93243,4.051-8.7387.782-6.49074-10.11326-17.29011-16.0204-19.49455,0,0-4.43925,0-5.59737,1.83365,0,0-3.76386,5.69394-3.47427,7.7206s1.351,3.95682.96511,5.40442c-.386,1.4476-2.60573,1.93015.193,5.98348,2.10735,3.0521,5.74452,9.22084,7.0845,13.11337a5.43187,5.43187,0,0,1,.44309,2.9069c-.77209,2.41271-6.36946,1.54411-7.52759,1.54411-.11586,0-.17644.11216-.193.30818-.14915,1.76348,3.43568,10.6358,5.69394,11.8518,2.50916,1.35109,12.54591,5.79046,20.65256.193C1170.91622,144.06776,1166.91,130.5554,1167.15108,129.55253Z"/><path class="cls-11" d="M1183.33379,157.89276s-2.89531,12.44951-3.76385,15.82726c-.86865,3.37775-2.50927,8.78216-.77208,14.86215.24407.854.55883,1.82788.90935,2.86538,12.44392-13.47307,10.28552-22.07892,10.28552-24.00054,0-1.37379-1.55146-7.93274-2.6416-12.07817C1186.20806,156.79456,1184.5899,158.09113,1183.33379,157.89276Z"/><path class="cls-11" d="M1125.81516,190.02977c.28723-.68.54648-1.388.79278-2.10671l-14.40024-16.03668c.24783-1.03286,2.88814-4.30922,5.98342-6.85208a62.77287,62.77287,0,0,1,6.15656-4.3882c-.45521-.51584-.75209-.82319-.75209-.82319s-13.3588-6.90212-16.45-9.3163c-2.35225,3.75286-6.84572,10.80025-10.18624,15.29978-4.72884,6.36952,9.74727,18.33641,13.3181,20.74912a38.25733,38.25733,0,0,1,9.84372,9.55425c2.99177,4.14983-.28947,10.22982-.28947,12.25648s2.8952,3.18473,2.8952,3.18473l.48261-4.14983A37.88928,37.88928,0,0,1,1125.81516,190.02977Z"/><path class="cls-11" d="M1180.43848,134.82744c-1.28222-1.88569-9.1668-4.24293-13.2874-5.27491-.24113,1.00287,3.76514,14.51523-3.11892,19.26853-8.10665,5.59744-18.1434,1.15807-20.65256-.193-2.25826-1.216-5.84309-10.08832-5.69394-11.8518-2.53939-.71909-4.85-1.36685-5.21145-1.36973-2.78334-.02229-2.4053.38822-2.55562.38822-.38087,0,.1675-1.35809.23642-3.38981-2.92672.11209-5.41023.24389-6.75256.39586-5.11476.57906-16.59922,15.92377-16.8887,16.98533-.03564.13056.19832.38192.63188.7205,3.09116,2.41418,16.45,9.3163,16.45,9.3163s.29688.30735.75209.82319a29.70079,29.70079,0,0,1,3.78373,5.2568c1.51217,2.84644,1.37738,13.55829-1.52347,22.02016-.2463.71875-.50555,1.42673-.79278,2.10671a37.88928,37.88928,0,0,0-2.60561,17.37137s.22442-.06669.63411-.16873a46.3283,46.3283,0,0,1,22.33457.36175c10.23494,2.79857,29.797,1.954,36.2094,1.58187,1.32691-.077,2.10417-.13427,2.10417-.13427.99546-2.23968-2.63948-11.24539-4.78459-17.59421-.35052-1.0375-.66528-2.01137-.90935-2.86538-1.73719-6.08-.09657-11.4844.77208-14.86215.86854-3.37775,3.76385-15.82726,3.76385-15.82726,1.25611.19837,2.87427-1.0982,4.01734-2.52392a8.55137,8.55137,0,0,0,1.194-1.91545C1189.31721,151.61975,1182.07922,137.24015,1180.43848,134.82744Z"/><path class="cls-11" d="M1182.38763,209.176c-6.4124.3721-25.97446,1.2167-36.2094-1.58187a46.3283,46.3283,0,0,0-22.33457-.36175c-.569,5.73246-2.13617,21.68652.17844,30.82932,1.6178,6.39052,11.65489,40.12034,19.95257,67.82957l-5.52575,34.99639s.39781.05517,1.04356.13985c2.63784.34588,9.4738,1.19107,10.83718.85025a.64675.64675,0,0,0,.07328-.03111c.7168-.29042,1.87669-2.30537,2.9793-4.61892,1.279,4.2504,2.03925,6.77156,2.03925,6.77156s.793-.0467,1.96843-.123c2.86874-.18626,8.02408-.54966,9.58778-.8483.29441-.05623.466-.11022.466-.16021,0-.42433-5.79886-47.382-5.79886-47.382s17.39695-49.07923,18.66988-55.58543C1181.50662,233.80862,1184.55779,214.2031,1182.38763,209.176Z"/><path class="cls-11" d="M1150.65141,113.28273c.25135.08378,2.34593,1.0054,2.09458,2.42972s-2.84864.83783-2.84864.83783"/><path class="cls-11" d="M1156.6,121.07459s-2.34594,3.5189-7.20538,1.67566"/><circle class="cls-9" cx="1145.2098" cy="112.04188" r="0.85852"/><circle class="cls-9" cx="1154.82523" cy="109.80973" r="0.85852"/><path class="cls-11" d="M1157.76162,126.19478s-1.21895,5.03185-8.43588,1.70977"/><path class="cls-11" d="M1112.2077,171.88638s-5.9551-2.33454-8.86142-.59075"/><line class="cls-11" x1="1180.00288" y1="172.32428" x2="1186.5777" y2="172.09757"/><path class="cls-11" d="M1161.64486,295.48586s-4.394-55.71287-5.729-63.05538"/><path class="cls-9" d="M188.66123,261.631S184.07,290.529,189.74152,295.1202s64.54766,3.781,64.54766,3.781l6.48178-14.31392s4.59125-25.38695-10.803-29.70813S188.66123,261.631,188.66123,261.631Z"/><polygon class="cls-9" points="106.289 278.106 103.048 299.171 180.289 297.281 174.077 275.405 106.289 278.106"/><path class="cls-10" d="M215.96959,140.87661a3.979,3.979,0,0,0,.6383.13438Z"/><path class="cls-4" d="M225.94366,166.58921a15.518,15.518,0,0,1-2.14777-6.0651,8.449,8.449,0,0,1-1.08966,1.70917c-.64821.75623-1.404,1.59558-2.25287,2.42393-2.98467,2.91235-7.18749,5.68164-12.50518,4.16232-2.72192-.77767-4.97718-3.04771-6.73074-5.55017a6.19079,6.19079,0,0,0,.14449,6.038c2.19546,3.781,11.343,13.29445,28.05249,1.34166A15.62916,15.62916,0,0,1,225.94366,166.58921Z"/><path class="cls-4" d="M229.61645,144.67s.97575-.85375-1.21971-1.95151c-2.1954-1.0977-.12195-2.80525-.24389-5.36654-.122-2.5613-4.025-1.34166-6.7082-2.07345-2.6833-.7318.85375-1.70755.85375-4.0249s-4.63475-4.87869-4.5128-3.4151.12194,1.58561-1.0977,3.17115c-1.21964,1.58561,0,1.58561-1.0977,5.6105-.81208,2.97754,1.11027,3.95057,2.16695,4.25647l.6383.13438a3.97926,3.97926,0,0,1-.6383-.13438l-1.67911-.35352c-4.63474-1.0977-2.56129-3.781-2.56129-6.83015a4.84322,4.84322,0,0,0-2.5613-4.26884c-2.19546,3.78094-6.22035,5.36654-9.75739,8.17179s-.97576,1.4636-1.34166,4.75669c-.3659,3.29316-2.3174,2.56136-2.3174,2.56136s.57713,7.01358.96253,9.18131a3.36091,3.36091,0,0,0,.13523.57609,46.19785,46.19785,0,0,0,2.75763,6.02039,30.2102,30.2102,0,0,0,1.61061,2.57763c1.75356,2.50246,4.00883,4.7725,6.73075,5.55017,5.31769,1.51932,9.52051-1.25,12.50517-4.16232.84889-.82835,1.60466-1.6677,2.25287-2.42393a8.44853,8.44853,0,0,0,1.08966-1.70917,16.06489,16.06489,0,0,0,.77871-1.85995,41.705,41.705,0,0,0,1.79069-8.87152c2.56129,3.17115,3.903.12195,4.26884-3.17115C232.78759,143.32833,229.61645,144.67,229.61645,144.67Z"/><path class="cls-8" d="M156.8664,113.36147a32.11556,32.11556,0,0,0-8.64513-5.02352c-3.73849-1.40191-4.43945,0-11.21536,1.05143-6.776,1.05144-10.28075,9.93021-10.9817,12.03314-.48856,1.46567.61069,7.40818,1.36206,11.39316.3267,1.73256.5886,3.10033.624,3.56057.11682,1.5188,1.05143-3.27113,2.10287-4.08891s1.402-3.85526,1.16832-6.65908,2.57017-4.90676,4.32256-5.84137,10.39758-.58413,10.39758-.58413,7.94417-1.16826,8.17782,2.80389c.23365,3.97209,2.80382,3.1543,2.80382,5.72448s-.11611,11.09205,0,10.0471a8.08538,8.08538,0,0,1,.39564-1.31373c.83781-2.34928,2.77791-6.99738,3.57645-9.78481C161.9805,123.101,160.32381,116.12849,156.8664,113.36147Z"/><path class="cls-6" d="M156.32309,140.02137l.162-2.36516a8.08566,8.08566,0,0,0-.39564,1.31372c-.11611,1.045,0-7.47692,0-10.0471s-2.57017-1.75238-2.80382-5.72447c-.23366-3.97215-8.17782-2.80389-8.17782-2.80389s-8.64519-.35047-10.39758.58413-4.55621,3.03754-4.32256,5.84137-.11683,5.8413-1.16833,6.65908c-1.05143.81778-1.986,5.60771-2.10286,4.08891-.03538-.46024-.29728-1.828-.624-3.56057-2.56149-1.91723-4.22569.36927-3.69858,5.42985.58413,5.60765,3.97208,6.3086,3.97208,6.3086a18.84613,18.84613,0,0,0,1.5764,5.22989c2.54432,5.47663,7.48821,9.37342,12.44278,9.37342,3.672,0,7.91391-4.11949,10.87719-7.651a56.48039,56.48039,0,0,0,3.72612-4.96624c1.28509,1.986,4.90676-5.25717,4.78987-7.59369C160.06152,137.80167,156.32309,140.02137,156.32309,140.02137Z"/><path class="cls-4" d="M173.43527,222.04164q.05958-.77454.12156-1.47546a10.45876,10.45876,0,0,1-2.79346-3.94642,4.39855,4.39855,0,0,1-.88614,1.30653c-1.87064,1.62118-4.24014-.62359-5.23779-1.37178-.99766-.74826,1.49651-1.12238,1.37178-2.86836-.12467-1.74591-3.74122,1.12239-7.2331,1.87064-3.49182.74826-3.74129-1.49651-7.35784-1.87064S128.34919,226.03232,115.13,229.27481A56.34855,56.34855,0,0,1,108.88,230.465s-10.81683,43.08683-4.95362,49.815c12.51074,14.35644,76.10309-.46079,76.10309-.46079l.93629-.60557C179.24475,271.12622,172.8851,229.19407,173.43527,222.04164Z"/><path class="cls-4" d="M189.55026,206.349c-3.08153-10.92527-10.92527-30.81485-20.16975-33.056-4.81248-1.16664-11.51964-3.09164-16.84776-4.67006-.00324,2.19378-.01743,4.18688-.05682,5.73069a10.77156,10.77156,0,0,1-.28257,3.18074c-14.20178,7.10092-23.36533-9.22931-23.36533-9.22931l.1224-5.01918c-2.70274,1.18238-6.93731,3.03637-10.27661,4.50535-1.99336,1.05435-4.465,2.5173-4.65677,3.38627-.32456,1.47046.21143,3.59465-2.74888,4.65191a41.17594,41.17594,0,0,1-6.55508,1.90311c-2.05369.41073-3.70986-1.37528-5.54694-3.41543a12.30824,12.30824,0,0,0-3.86731,5.32015c-3.85525,9.93027-9.34608,28.6225-8.76195,34.69751.58413,6.075.701,16.58936,11.56578,16.93983-2.92473-17.37493,14.13024-24.36531,14.13024-24.36531,10.696,4.52991,49.1641-3.28285,53.65364-3.90638,4.48948-.62352,5.48713.62353,6.73425,3.11769a5.689,5.689,0,0,1,.36674,2.36341c.67406-.0171,2.7122-.06868,5.30078-.13237,3.55337-.08741,8.13324-.1975,11.6384-.27292A16.716,16.716,0,0,0,189.55026,206.349Z"/><path class="cls-6" d="M152.55615,151.50641c-2.96329,3.53154-7.20518,7.651-10.8772,7.651-4.95457,0-9.89846-3.8968-12.44277-9.37343l-.28575,11.71429-.1224,5.01917s9.16355,16.33024,23.36533,9.22932a10.77156,10.77156,0,0,0,.28257-3.18074c.03939-1.54381.05358-3.53692.05682-5.73069l.00026-.23851C152.53852,161.5388,152.48992,155.5015,152.55615,151.50641Z"/><path class="cls-6" d="M171.5026,208.079c-1.24712-2.49417-2.24477-3.74122-6.73424-3.11769-4.48954.62352-42.95762,8.43629-53.65365,3.90638,0,0-17.055,6.99038-14.13024,24.36531,0,0,2.57017,2.03108,10.77728.978a56.34812,56.34812,0,0,0,6.25009-1.19022c13.21915-3.24249,32.67369-15.96279,36.29025-15.58866s3.866,2.6189,7.35783,1.87064c3.49188-.74825,7.10844-3.61655,7.2331-1.87064.12473,1.746-2.36943,2.1201-1.37178,2.86836.99765.74819,3.36715,2.993,5.2378,1.37178a4.39892,4.39892,0,0,0,.88614-1.30653,26.95263,26.95263,0,0,0,2.22416-9.92334A5.68891,5.68891,0,0,0,171.5026,208.079Z"/><path class="cls-6" d="M185.38425,219.07006a3.963,3.963,0,0,0-.22044-.9731,14.821,14.821,0,0,1-5.8087-.17067,9.35966,9.35966,0,0,1-3.866,2.993,1.87376,1.87376,0,0,1-1.93226-.35314q-.0619.70155-.12156,1.47546c-.55017,7.15243,5.80948,49.08458,7.53044,57.17208C180.96571,279.21372,185.75015,225.65631,185.38425,219.07006Z"/><path class="cls-8" d="M250.27081,236.48341s1.58567-1.8295,4.75676-10.1233c3.17108-8.29374-.24389-37.44393-2.68331-44.762-2.43928-7.318-6.22035-8.04985-10.855-8.78165-2.26576-.35774-8.75929-2.63983-15.54557-5.03557a15.62916,15.62916,0,0,0,3.47076,4.05982c-16.70948,11.95279-25.857,2.43935-28.05249-1.34166a6.19079,6.19079,0,0,1-.14449-6.038,30.21036,30.21036,0,0,1-1.61062-2.57763,160.44473,160.44473,0,0,0-22.63832,4.10284c-6.67373,1.71617-17.42839,1.79237-24.43549,1.80229l-.00026.23851c5.32812,1.57841,12.03528,3.50342,16.84776,4.67006,9.24448,2.24114,17.08822,22.13071,20.16975,33.056a16.7166,16.7166,0,0,1,.37646,1.72971c2.4135-.0519,4.31945-.08747,5.017-.08747,2.61883,0,4.70738,1.48744,4.6142,1.87064-1.12238,4.61421-2.74363,6.48485-2.74363,6.48485l-4.90338-1.48239-.45908-.13879-.92774,1.42251-.9429,1.44578a7.94733,7.94733,0,0,1-4.41736,2.29071,3.963,3.963,0,0,1,.22044.9731c.3659,6.58625-1.34166,31.95544-1.0977,37.2.102,2.19358.23488,3.51294,2.73559,4.96533a34.82891,34.82891,0,0,0,6.18835,2.52559c4.88667,1.62241,12.48547,3.74076,24.37315,7.02316,32.68717,9.02561,46.95744-10.85509,46.95744-10.85509Z"/><path class="cls-4" d="M194.34784,207.69329c-.69752,0-2.60347.03557-5.017.08747-3.50517.07542-8.085.18551-11.63841.27292-2.58857.06369-4.62671.11527-5.30078.13238a26.95243,26.95243,0,0,1-2.22416,9.92334,10.45873,10.45873,0,0,0,2.79346,3.94642,1.87376,1.87376,0,0,0,1.93226.35313,9.35952,9.35952,0,0,0,3.866-2.993,14.82128,14.82128,0,0,0,5.80871.17067,7.94739,7.94739,0,0,0,4.41736-2.29071l.9429-1.44578.92774-1.42251.45907.13879,4.90339,1.48238s1.62124-1.87064,2.74363-6.48484C199.05522,209.18073,196.96668,207.69329,194.34784,207.69329Z"/><path class="cls-4" d="M116.343,165.16086s-10.57266-.63441-13.533,1.69161c-2.96037,2.326-5.70925,3.38323-3.80621,5.49776.05475.06084.10788.11883.16231.17929,1.83708,2.04014,3.49325,3.82616,5.54694,3.41542a41.17576,41.17576,0,0,0,6.55508-1.9031c2.96031-1.05727,2.42432-3.18145,2.74888-4.65192.19173-.869,2.66341-2.33192,4.65677-3.38626,1.37989-.72986,2.53259-1.26572,2.53259-1.26572A30.74211,30.74211,0,0,1,116.343,165.16086Z"/><path class="cls-9" d="M197.73045,141.52842c.3659-3.29309-2.19539-1.95144,1.34165-4.75669s7.56194-4.39085,9.7574-8.17179a4.84323,4.84323,0,0,1,2.5613,4.26885c0,3.04913-2.07345,5.73244,2.56129,6.83014l1.67911.35352c-1.05668-.3059-2.979-1.27893-2.167-4.25647,1.0977-4.02489-.12195-4.02489,1.0977-5.6105,1.21964-1.58554,1.21964-1.70755,1.09769-3.17115s4.51281,1.0977,4.51281,3.41511c0,2.31734-3.537,3.29309-.85375,4.02489,2.68324.7318,6.58619-.48785,6.7082,2.07345.12194,2.56129-1.95151,4.26884.24389,5.36654,2.19546,1.09776,1.2197,1.95151,1.2197,1.95151s3.17115-1.34166,2.80525,1.9515c-.3659,3.2931-1.70755,6.3423-4.26884,3.17115a41.705,41.705,0,0,1-1.79069,8.87152c1.84894,1.15977,8.04272,4.91576,7.5232,2.83732-.60986-2.43935-.97582-2.80525,1.82943-4.8787s4.75675-2.6833,5.00064-5.36654c.244-2.68331,5.12259-1.21971,3.17121-4.63475-1.9515-3.4151-.97581-3.903.60986-5.7325,1.58554-1.8295-2.19553-3.17115-3.04927-7.56194-.85374-4.39086,2.19553-5.36661.12207-6.46431s-1.58567-3.537-1.34178-5.85439c.244-2.3174-4.75675-1.0977-7.56187-2.3174-2.80532-1.21965-.73186-6.95215-3.781-6.3423-3.04921.60985-5.9764-2.80525-7.684-4.1469s0,1.9515-1.95151,2.56129c-1.95144.60986-2.07345-3.17114-3.29309-1.70748-1.21971,1.46359-3.29309-.85381-6.22035.60979-2.9272,1.46366-4.39079,3.0492-5.85439,3.0492-1.46366,0-.85381.3659-.85381,1.95151,0,1.58554-2.6833.97568-4.1469,1.82949-1.4636.85374,2.3174,2.9272-.85374,3.903s-8.29381,5.6105-9.0256,7.56194c-.7318,1.9515,1.5856-2.07339,2.07345.48791s-1.21965,5.36654-1.8295,8.6597c-.60985,3.29309,1.58554,2.80518,1.95144,3.537.3659.73179-1.8295,1.82949-1.95144,4.51273-.122,2.68331,2.43935,1.70755,3.659,2.43935,1.21971.7318-.24389,4.75676.3659,5.9764.42337.84681,3.4304.69415,5.23138.52167-.3854-2.16773-.96253-9.18131-.96253-9.18131S197.36455,144.82158,197.73045,141.52842Z"/><path class="cls-10" d="M215.6312,140.05245a3.97926,3.97926,0,0,0,.6383.13438Z"/><path class="cls-11" d="M225.60527,165.76505A15.518,15.518,0,0,1,223.4575,159.7a8.44853,8.44853,0,0,1-1.08966,1.70917c-.64821.75623-1.404,1.59559-2.25287,2.42393-2.98467,2.91235-7.18749,5.68164-12.50517,4.16232-2.72193-.77767-4.97719-3.04771-6.73075-5.55017a6.19082,6.19082,0,0,0,.1445,6.038c2.19546,3.781,11.343,13.29444,28.05249,1.34165A15.62908,15.62908,0,0,1,225.60527,165.76505Z"/><path class="cls-11" d="M227.49049,143.84583s.97576-.85375-1.2197-1.95151c-2.1954-1.0977-.12195-2.80525-.24389-5.36654-.122-2.5613-4.025-1.34165-6.7082-2.07345-2.6833-.7318.85375-1.70755.85375-4.02489,0-2.31741-4.63475-4.8787-4.51281-3.41511s.12195,1.58561-1.09769,3.17115c-1.21965,1.58561,0,1.58561-1.0977,5.6105-.81208,2.97754,1.11027,3.95057,2.167,4.25647l.6383.13438a3.97926,3.97926,0,0,1-.6383-.13438l-1.67911-.35352c-4.63474-1.0977-2.56129-3.781-2.56129-6.83014a4.84323,4.84323,0,0,0-2.5613-4.26885c-2.19546,3.78094-6.22035,5.36654-9.7574,8.17179s-.97575,1.4636-1.34165,4.75669c-.3659,3.29316-2.3174,2.56136-2.3174,2.56136s.57713,7.01358.96253,9.18131a3.36091,3.36091,0,0,0,.13523.57609,46.19864,46.19864,0,0,0,2.75762,6.02039,30.21287,30.21287,0,0,0,1.61062,2.57763c1.75356,2.50246,4.00882,4.7725,6.73075,5.55017,5.31768,1.51932,9.5205-1.25,12.50517-4.16232.84889-.82834,1.60466-1.6677,2.25287-2.42393A8.44853,8.44853,0,0,0,223.4575,159.7a16.06489,16.06489,0,0,0,.77871-1.85995,41.705,41.705,0,0,0,1.79069-8.87152c2.56129,3.17115,3.90294.12195,4.26884-3.17115C230.66164,142.50417,227.49049,143.84583,227.49049,143.84583Z"/><path class="cls-11" d="M156.528,112.53731a32.11548,32.11548,0,0,0-8.64512-5.02352c-3.7385-1.40191-4.43946,0-11.21536,1.05143-6.776,1.05144-10.28076,9.93021-10.98171,12.03314-.48856,1.46567.6107,7.40818,1.36206,11.39316.3267,1.73256.5886,3.10033.624,3.56057.11683,1.5188,1.05143-3.27113,2.10287-4.08891,1.0515-.81778,1.402-3.85526,1.16832-6.65908s2.57017-4.90676,4.32256-5.84137,10.39758-.58412,10.39758-.58412,7.94417-1.16826,8.17782,2.80388c.23365,3.97209,2.80382,3.1543,2.80382,5.72448s-.11611,11.09205,0,10.0471a8.08644,8.08644,0,0,1,.39564-1.31373c.83781-2.34928,2.77791-6.99738,3.57645-9.78481C161.64211,122.27682,159.98542,115.30433,156.528,112.53731Z"/><path class="cls-11" d="M156.87849,138.0055l.162-2.36516a8.08644,8.08644,0,0,0-.39564,1.31373c-.11611,1.045,0-7.47693,0-10.0471s-2.57017-1.75239-2.80382-5.72448c-.23365-3.97214-8.17782-2.80388-8.17782-2.80388s-8.64519-.35048-10.39758.58412-4.55621,3.03755-4.32256,5.84137-.11682,5.8413-1.16832,6.65908c-1.05144.81778-1.986,5.60771-2.10287,4.08891-.03538-.46024-.29728-1.828-.624-3.56057-2.56149-1.91723-4.22569.36927-3.69858,5.42985.58413,5.60765,3.97208,6.3086,3.97208,6.3086a18.84581,18.84581,0,0,0,1.57641,5.22989c2.54432,5.47663,7.4882,9.37343,12.44278,9.37343,3.672,0,7.9139-4.1195,10.87719-7.651a56.48283,56.48283,0,0,0,3.72612-4.96624c1.28508,1.986,4.90675-5.25716,4.78986-7.59368C160.61692,135.78581,156.87849,138.0055,156.87849,138.0055Z"/><path class="cls-11" d="M173.09689,221.21748q.05958-.77452.12155-1.47546a10.45863,10.45863,0,0,1-2.79345-3.94642,4.39892,4.39892,0,0,1-.88614,1.30653c-1.87065,1.62118-4.24015-.62359-5.2378-1.37178-.99765-.74826,1.49651-1.12238,1.37178-2.86836-.12466-1.74591-3.74122,1.12239-7.2331,1.87064-3.49182.74826-3.74128-1.49651-7.35783-1.87064s-23.07109,12.34617-36.29025,15.58866a56.34812,56.34812,0,0,1-6.25009,1.19022s-10.81683,43.08683-4.95361,49.815c12.51073,14.35644,76.10308-.46078,76.10308-.46078l.93629-.60558C178.90636,270.30206,172.54671,228.36991,173.09689,221.21748Z"/><path class="cls-11" d="M189.21188,203.73725c-3.08154-10.92527-10.92528-30.81484-20.16976-33.056-4.81247-1.16664-11.51963-3.09165-16.84775-4.67006-.00324,2.19377-.01743,4.18688-.05683,5.73069a10.77156,10.77156,0,0,1-.28257,3.18074c-14.20178,7.10092-23.36533-9.22932-23.36533-9.22932l.1224-5.01917c-2.70274,1.18238-6.93731,3.03637-10.2766,4.50535-1.99337,1.05435-4.46505,2.51729-4.65678,3.38626-.32456,1.47047.21143,3.59466-2.74888,4.65192a41.1747,41.1747,0,0,1-6.55508,1.9031c-2.05369.41074-3.70986-1.37528-5.54693-3.41542a12.30817,12.30817,0,0,0-3.86731,5.32015c-3.85526,9.93027-9.34608,28.62249-8.76195,34.69751.58413,6.075.701,16.58935,11.56577,16.93983-2.92473-17.37493,14.13024-24.36531,14.13024-24.36531,10.696,4.52991,49.16411-3.28286,53.65365-3.90638,4.48947-.62353,5.48712.62352,6.73424,3.11769a5.68891,5.68891,0,0,1,.36674,2.36341c.67407-.01711,2.7122-.06868,5.30078-.13238,3.55337-.08741,8.13324-.19749,11.63841-.27291A16.71886,16.71886,0,0,0,189.21188,203.73725Z"/><path class="cls-11" d="M152.21776,150.68225c-2.96329,3.53154-7.20518,7.651-10.87719,7.651-4.95458,0-9.89846-3.8968-12.44278-9.37343l-.28575,11.71429-.1224,5.01917s9.16355,16.33024,23.36533,9.22932a10.77156,10.77156,0,0,0,.28257-3.18074c.0394-1.54381.05359-3.53692.05683-5.73069l.00026-.23851C152.20013,160.71464,152.15154,154.67734,152.21776,150.68225Z"/><path class="cls-11" d="M172.28238,203.50886c-1.24711-2.49417-2.24477-3.74122-6.73424-3.11769-4.48954.62352-42.95762,8.43629-53.65364,3.90638,0,0-17.055,6.99038-14.13025,24.36531,0,0,2.57018,2.03108,10.77728.978a56.34769,56.34769,0,0,0,6.25009-1.19022c13.21916-3.24249,32.6737-15.96279,36.29025-15.58866s3.866,2.6189,7.35783,1.87064c3.49189-.74825,7.10844-3.61655,7.23311-1.87064.12473,1.746-2.36944,2.12011-1.37178,2.86836.99765.74819,3.36715,2.993,5.23779,1.37178a4.39855,4.39855,0,0,0,.88614-1.30653,26.95264,26.95264,0,0,0,2.22417-9.92334A5.68875,5.68875,0,0,0,172.28238,203.50886Z"/><path class="cls-11" d="M185.04586,218.2459a3.96291,3.96291,0,0,0-.22043-.9731,14.82106,14.82106,0,0,1-5.80871-.17067,9.35966,9.35966,0,0,1-3.866,2.993,1.87377,1.87377,0,0,1-1.93226-.35314q-.0619.70155-.12155,1.47546c-.55018,7.15243,5.80947,49.08458,7.53043,57.17208C180.62732,278.38956,185.41176,224.83215,185.04586,218.2459Z"/><path class="cls-11" d="M249.93242,234.46754s1.58567-1.82949,4.75676-10.1233c3.17108-8.29374-.24389-37.44392-2.68331-44.762-2.43928-7.318-6.22035-8.04985-10.855-8.78165-2.26576-.35773-8.75929-2.63983-15.54557-5.03557a15.62908,15.62908,0,0,0,3.47077,4.05982c-16.70949,11.95279-25.857,2.43935-28.05249-1.34165a6.19082,6.19082,0,0,1-.1445-6.038,30.21287,30.21287,0,0,1-1.61062-2.57763,160.445,160.445,0,0,0-22.63832,4.10284c-6.67372,1.71617-17.42839,1.79237-24.43548,1.80229l-.00026.23851c5.32812,1.57841,12.03528,3.50342,16.84775,4.67006,9.24448,2.24114,17.08822,22.13071,20.16976,33.056a16.71886,16.71886,0,0,1,.37646,1.72972c2.41349-.05191,4.31945-.08748,5.017-.08748,2.61883,0,4.70738,1.48744,4.6142,1.87064-1.12238,4.61421-2.74362,6.48485-2.74362,6.48485l-4.90339-1.48239-.45908-.13879-.92774,1.42252-.9429,1.44577a7.94721,7.94721,0,0,1-4.41735,2.29071,3.96291,3.96291,0,0,1,.22043.9731c.3659,6.58625-1.34165,31.95544-1.0977,37.2.102,2.19358.23488,3.51294,2.7356,4.96533a34.82873,34.82873,0,0,0,6.18834,2.52559c4.88667,1.62241,12.48548,3.74076,24.37315,7.02317,32.68717,9.0256,46.95744-10.8551,46.95744-10.8551Z"/><path class="cls-11" d="M194.60531,205.37949c-.69752,0-2.60348.03557-5.017.08748-3.50517.07542-8.085.1855-11.63841.27291-2.58858.0637-4.62671.11527-5.30078.13238a26.95263,26.95263,0,0,1-2.22416,9.92334,10.45863,10.45863,0,0,0,2.79345,3.94642,1.87377,1.87377,0,0,0,1.93226.35314,9.35966,9.35966,0,0,0,3.866-2.993,14.82106,14.82106,0,0,0,5.80871.17067,7.94721,7.94721,0,0,0,4.41735-2.29071l.9429-1.44577.92774-1.42252.45908.13879,4.90339,1.48239s1.62124-1.87064,2.74362-6.48485C199.31269,206.86693,197.22414,205.37949,194.60531,205.37949Z"/><path class="cls-11" d="M116.00462,164.3367s-10.57266-.63441-13.533,1.69161c-2.96037,2.326-5.70925,3.38323-3.80621,5.49776.05475.06084.10789.11883.16232.17929,1.83707,2.04014,3.49324,3.82616,5.54693,3.41542a41.1747,41.1747,0,0,0,6.55508-1.9031c2.96031-1.05726,2.42432-3.18145,2.74888-4.65192.19173-.869,2.66341-2.33191,4.65678-3.38626,1.37988-.72986,2.53259-1.26572,2.53259-1.26572A30.74232,30.74232,0,0,1,116.00462,164.3367Z"/><path class="cls-9" d="M128.90438,166.54937s-4.84188-4.89737-3.0317-4.89737a8.59617,8.59617,0,0,0,2.73936-.97785Z"/><path class="cls-9" d="M151.855,174.92264c2.11927-1.72684,4.33475-4.17553,4.10154-7.79025l-3.76214-1.12118Z"/><path class="cls-9" d="M225.60527,165.76505c.35409-.602,6.61026,2.41677,6.61026,2.41677l-3.23111,2.3086S225.175,166.49659,225.60527,165.76505Z"/><path class="cls-11" d="M235.61828,185.0007s-.6172,9.87513-.70537,15.16538,1.49891,11.90305-.96988,11.81488-22.83623-1.23439-30.94794-6.43646l-2.80706-1.22359a.48639.48639,0,0,0-.67956.412l-.48019,3.36791"/><path class="cls-11" d="M249.93242,234.46754c-12.66611,15.7856-32.65366,3.34746-40.85355.61417s-20.36745-9.9633-20.36745-9.9633c4.32037-1.23439,9.29659-13.99732,9.29659-13.99732"/><path class="cls-9" d="M194.178,212.86267s-8.288,12.43208-5.46659,12.25574,7.76447-11.38343,7.76447-11.38343Z"/><path class="cls-9" d="M199.788,204.04789s-.0722-.752-2.24844,1.03053c-1.48574,1.217.64144.98609.64144.98609l.43594.13813Z"/><path class="cls-11" d="M179.01672,217.10213s.25074-2.5192-1.01155-2.7997l-1.26228-.28051,6.17116.42076"/><path class="cls-11" d="M185.15811,179.09877a119.132,119.132,0,0,0,.2805,13.32409"/><path class="cls-11" d="M111.89452,204.29754c-.089-1.49591-2.89412-10.75265-2.3331-18.46659"/><path class="cls-11" d="M146.58837,145.99892s-2.10381,5.18939-10.519,1.8233"/><path class="cls-11" d="M206.19615,159.60352s6.0309.84152,7.8542-4.90887"/><path class="cls-11" d="M210.82452,149.926s-.561,2.94533-3.78685,1.40254a2.00457,2.00457,0,0,1,.42076-2.80507"/><path class="cls-11" d="M143.36253,140.38878a3.20608,3.20608,0,0,1-2.66481,1.8233,1.78572,1.78572,0,0,1-1.8233-1.8233"/><circle class="cls-9" cx="135.26414" cy="132.09311" r="1.10019"/><circle class="cls-9" cx="149.0165" cy="134.11012" r="1.10019"/><circle class="cls-9" cx="202.74241" cy="142.54491" r="1.10019"/><circle class="cls-9" cx="217.22823" cy="142.17818" r="1.10019"/><path class="cls-9" d="M252.54939,238.68213s-7.39676,16.18988-50.64772-6.08442c0,0,3.88077,1.20917,10.18061,3.59762,8.22958,3.12007,16.61638,8.13863,28.03308,5.53879l10.1733-6.7822Z"/><path class="cls-9" d="M151.08187,212.862s-42.69455,22.56173-43.6356,23.9733l1.09526-7.19442s11.92254-2.52972,16.78461-5.03917S147.66518,211.63064,151.08187,212.862Z"/><path class="cls-9" d="M197.73045,141.52842c.3659-3.29309-2.19539-1.95144,1.34165-4.75669s7.56194-4.39085,9.7574-8.17179a4.84323,4.84323,0,0,1,2.5613,4.26885c0,3.04913-2.07345,5.73244,2.56129,6.83014l1.67911.35352c-1.05668-.3059-2.979-1.27893-2.167-4.25647,1.0977-4.02489-.12195-4.02489,1.0977-5.6105,1.21964-1.58554,1.21964-1.70755,1.09769-3.17115s4.51281,1.0977,4.51281,3.41511c0,2.31734-3.537,3.29309-.85375,4.02489,2.68324.7318,6.58619-.48785,6.7082,2.07345.12194,2.56129-1.95151,4.26884.24389,5.36654,2.19546,1.09776,1.2197,1.95151,1.2197,1.95151s3.17115-1.34166,2.80525,1.9515c-.3659,3.2931-1.70755,6.3423-4.26884,3.17115a41.705,41.705,0,0,1-1.79069,8.87152c1.84894,1.15977,8.04272,4.91576,7.5232,2.83732-.60986-2.43935-.97582-2.80525,1.82943-4.8787s4.75675-2.6833,5.00064-5.36654c.244-2.68331,5.12259-1.21971,3.17121-4.63475-1.9515-3.4151-.97581-3.903.60986-5.7325,1.58554-1.8295-2.19553-3.17115-3.04927-7.56194-.85374-4.39086,2.19553-5.36661.12207-6.46431s-1.58567-3.537-1.34178-5.85439c.244-2.3174-4.75675-1.0977-7.56187-2.3174-2.80532-1.21965-.73186-6.95215-3.781-6.3423-3.04921.60985-5.9764-2.80525-7.684-4.1469s0,1.9515-1.95151,2.56129c-1.95144.60986-2.07345-3.17114-3.29309-1.70748-1.21971,1.46359-3.29309-.85381-6.22035.60979-2.9272,1.46366-4.39079,3.0492-5.85439,3.0492-1.46366,0-.85381.3659-.85381,1.95151,0,1.58554-2.6833.97568-4.1469,1.82949-1.4636.85374,2.3174,2.9272-.85374,3.903s-8.29381,5.6105-9.0256,7.56194c-.7318,1.9515,1.5856-2.07339,2.07345.48791s-1.21965,5.36654-1.8295,8.6597c-.60985,3.29309,1.58554,2.80518,1.95144,3.537.3659.73179-1.8295,1.82949-1.95144,4.51273-.122,2.68331,2.43935,1.70755,3.659,2.43935,1.21971.7318-.24389,4.75676.3659,5.9764.42337.84681,3.4304.69415,5.23138.52167-.3854-2.16773-.96253-9.18131-.96253-9.18131S197.36455,144.82158,197.73045,141.52842Z"/><path class="cls-10" d="M215.6312,140.05245a3.97926,3.97926,0,0,0,.6383.13438Z"/><path class="cls-11" d="M225.60527,165.76505A15.518,15.518,0,0,1,223.4575,159.7a8.44853,8.44853,0,0,1-1.08966,1.70917c-.64821.75623-1.404,1.59559-2.25287,2.42393-2.98467,2.91235-7.18749,5.68164-12.50517,4.16232-2.72193-.77767-4.97719-3.04771-6.73075-5.55017a6.19082,6.19082,0,0,0,.1445,6.038c2.19546,3.781,11.343,13.29444,28.05249,1.34165A15.62908,15.62908,0,0,1,225.60527,165.76505Z"/><path class="cls-11" d="M227.49049,143.84583s.97576-.85375-1.2197-1.95151c-2.1954-1.0977-.12195-2.80525-.24389-5.36654-.122-2.5613-4.025-1.34165-6.7082-2.07345-2.6833-.7318.85375-1.70755.85375-4.02489,0-2.31741-4.63475-4.8787-4.51281-3.41511s.12195,1.58561-1.09769,3.17115c-1.21965,1.58561,0,1.58561-1.0977,5.6105-.81208,2.97754,1.11027,3.95057,2.167,4.25647l.6383.13438a3.97926,3.97926,0,0,1-.6383-.13438l-1.67911-.35352c-4.63474-1.0977-2.56129-3.781-2.56129-6.83014a4.84323,4.84323,0,0,0-2.5613-4.26885c-2.19546,3.78094-6.22035,5.36654-9.7574,8.17179s-.97575,1.4636-1.34165,4.75669c-.3659,3.29316-2.3174,2.56136-2.3174,2.56136s.57713,7.01358.96253,9.18131a3.36091,3.36091,0,0,0,.13523.57609,46.19864,46.19864,0,0,0,2.75762,6.02039,30.21287,30.21287,0,0,0,1.61062,2.57763c1.75356,2.50246,4.00882,4.7725,6.73075,5.55017,5.31768,1.51932,9.5205-1.25,12.50517-4.16232.84889-.82834,1.60466-1.6677,2.25287-2.42393A8.44853,8.44853,0,0,0,223.4575,159.7a16.06489,16.06489,0,0,0,.77871-1.85995,41.705,41.705,0,0,0,1.79069-8.87152c2.56129,3.17115,3.90294.12195,4.26884-3.17115C230.66164,142.50417,227.49049,143.84583,227.49049,143.84583Z"/><path class="cls-11" d="M156.528,112.53731a32.11548,32.11548,0,0,0-8.64512-5.02352c-3.7385-1.40191-4.43946,0-11.21536,1.05143-6.776,1.05144-10.28076,9.93021-10.98171,12.03314-.48856,1.46567.6107,7.40818,1.36206,11.39316.3267,1.73256.5886,3.10033.624,3.56057.11683,1.5188,1.05143-3.27113,2.10287-4.08891,1.0515-.81778,1.402-3.85526,1.16832-6.65908s2.57017-4.90676,4.32256-5.84137,10.39758-.58412,10.39758-.58412,7.94417-1.16826,8.17782,2.80388c.23365,3.97209,2.80382,3.1543,2.80382,5.72448s-.11611,11.09205,0,10.0471a8.08644,8.08644,0,0,1,.39564-1.31373c.83781-2.34928,2.77791-6.99738,3.57645-9.78481C161.64211,122.27682,159.98542,115.30433,156.528,112.53731Z"/><path class="cls-11" d="M156.87849,138.0055l.162-2.36516a8.08644,8.08644,0,0,0-.39564,1.31373c-.11611,1.045,0-7.47693,0-10.0471s-2.57017-1.75239-2.80382-5.72448c-.23365-3.97214-8.17782-2.80388-8.17782-2.80388s-8.64519-.35048-10.39758.58412-4.55621,3.03755-4.32256,5.84137-.11682,5.8413-1.16832,6.65908c-1.05144.81778-1.986,5.60771-2.10287,4.08891-.03538-.46024-.29728-1.828-.624-3.56057-2.56149-1.91723-4.22569.36927-3.69858,5.42985.58413,5.60765,3.97208,6.3086,3.97208,6.3086a18.84581,18.84581,0,0,0,1.57641,5.22989c2.54432,5.47663,7.4882,9.37343,12.44278,9.37343,3.672,0,7.9139-4.1195,10.87719-7.651a56.48283,56.48283,0,0,0,3.72612-4.96624c1.28508,1.986,4.90675-5.25716,4.78986-7.59368C160.61692,135.78581,156.87849,138.0055,156.87849,138.0055Z"/><path class="cls-11" d="M173.09689,221.21748q.05958-.77452.12155-1.47546a10.45863,10.45863,0,0,1-2.79345-3.94642,4.39892,4.39892,0,0,1-.88614,1.30653c-1.87065,1.62118-4.24015-.62359-5.2378-1.37178-.99765-.74826,1.49651-1.12238,1.37178-2.86836-.12466-1.74591-3.74122,1.12239-7.2331,1.87064-3.49182.74826-3.74128-1.49651-7.35783-1.87064s-23.07109,12.34617-36.29025,15.58866a56.34812,56.34812,0,0,1-6.25009,1.19022s-10.81683,43.08683-4.95361,49.815c12.51073,14.35644,76.10308-.46078,76.10308-.46078l.93629-.60558C178.90636,270.30206,172.54671,228.36991,173.09689,221.21748Z"/><path class="cls-11" d="M189.21188,203.73725c-3.08154-10.92527-10.92528-30.81484-20.16976-33.056-4.81247-1.16664-11.51963-3.09165-16.84775-4.67006-.00324,2.19377-.01743,4.18688-.05683,5.73069a10.77156,10.77156,0,0,1-.28257,3.18074c-14.20178,7.10092-23.36533-9.22932-23.36533-9.22932l.1224-5.01917c-2.70274,1.18238-6.93731,3.03637-10.2766,4.50535-1.99337,1.05435-4.46505,2.51729-4.65678,3.38626-.32456,1.47047.21143,3.59466-2.74888,4.65192a41.1747,41.1747,0,0,1-6.55508,1.9031c-2.05369.41074-3.70986-1.37528-5.54693-3.41542a12.30817,12.30817,0,0,0-3.86731,5.32015c-3.85526,9.93027-9.34608,28.62249-8.76195,34.69751.58413,6.075.701,16.58935,11.56577,16.93983-2.92473-17.37493,14.13024-24.36531,14.13024-24.36531,10.696,4.52991,49.16411-3.28286,53.65365-3.90638,4.48947-.62353,5.48712.62352,6.73424,3.11769a5.68891,5.68891,0,0,1,.36674,2.36341c.67407-.01711,2.7122-.06868,5.30078-.13238,3.55337-.08741,8.13324-.19749,11.63841-.27291A16.71886,16.71886,0,0,0,189.21188,203.73725Z"/><path class="cls-11" d="M152.21776,150.68225c-2.96329,3.53154-7.20518,7.651-10.87719,7.651-4.95458,0-9.89846-3.8968-12.44278-9.37343l-.28575,11.71429-.1224,5.01917s9.16355,16.33024,23.36533,9.22932a10.77156,10.77156,0,0,0,.28257-3.18074c.0394-1.54381.05359-3.53692.05683-5.73069l.00026-.23851C152.20013,160.71464,152.15154,154.67734,152.21776,150.68225Z"/><path class="cls-11" d="M172.28238,203.50886c-1.24711-2.49417-2.24477-3.74122-6.73424-3.11769-4.48954.62352-42.95762,8.43629-53.65364,3.90638,0,0-17.055,6.99038-14.13025,24.36531,0,0,2.57018,2.03108,10.77728.978a56.34769,56.34769,0,0,0,6.25009-1.19022c13.21916-3.24249,32.6737-15.96279,36.29025-15.58866s3.866,2.6189,7.35783,1.87064c3.49189-.74825,7.10844-3.61655,7.23311-1.87064.12473,1.746-2.36944,2.12011-1.37178,2.86836.99765.74819,3.36715,2.993,5.23779,1.37178a4.39855,4.39855,0,0,0,.88614-1.30653,26.95264,26.95264,0,0,0,2.22417-9.92334A5.68875,5.68875,0,0,0,172.28238,203.50886Z"/><path class="cls-11" d="M185.04586,218.2459a3.96291,3.96291,0,0,0-.22043-.9731,14.82106,14.82106,0,0,1-5.80871-.17067,9.35966,9.35966,0,0,1-3.866,2.993,1.87377,1.87377,0,0,1-1.93226-.35314q-.0619.70155-.12155,1.47546c-.55018,7.15243,5.80947,49.08458,7.53043,57.17208C180.62732,278.38956,185.41176,224.83215,185.04586,218.2459Z"/><path class="cls-11" d="M249.93242,234.46754s1.58567-1.82949,4.75676-10.1233c3.17108-8.29374-.24389-37.44392-2.68331-44.762-2.43928-7.318-6.22035-8.04985-10.855-8.78165-2.26576-.35773-8.75929-2.63983-15.54557-5.03557a15.62908,15.62908,0,0,0,3.47077,4.05982c-16.70949,11.95279-25.857,2.43935-28.05249-1.34165a6.19082,6.19082,0,0,1-.1445-6.038,30.21287,30.21287,0,0,1-1.61062-2.57763,160.445,160.445,0,0,0-22.63832,4.10284c-6.67372,1.71617-17.42839,1.79237-24.43548,1.80229l-.00026.23851c5.32812,1.57841,12.03528,3.50342,16.84775,4.67006,9.24448,2.24114,17.08822,22.13071,20.16976,33.056a16.71886,16.71886,0,0,1,.37646,1.72972c2.41349-.05191,4.31945-.08748,5.017-.08748,2.61883,0,4.70738,1.48744,4.6142,1.87064-1.12238,4.61421-2.74362,6.48485-2.74362,6.48485l-4.90339-1.48239-.45908-.13879-.92774,1.42252-.9429,1.44577a7.94721,7.94721,0,0,1-4.41735,2.29071,3.96291,3.96291,0,0,1,.22043.9731c.3659,6.58625-1.34165,31.95544-1.0977,37.2.102,2.19358.23488,3.51294,2.7356,4.96533a34.82873,34.82873,0,0,0,6.18834,2.52559c4.88667,1.62241,12.48548,3.74076,24.37315,7.02317,32.68717,9.0256,46.95744-10.8551,46.95744-10.8551Z"/><path class="cls-11" d="M194.60531,205.37949c-.69752,0-2.60348.03557-5.017.08748-3.50517.07542-8.085.1855-11.63841.27291-2.58858.0637-4.62671.11527-5.30078.13238a26.95263,26.95263,0,0,1-2.22416,9.92334,10.45863,10.45863,0,0,0,2.79345,3.94642,1.87377,1.87377,0,0,0,1.93226.35314,9.35966,9.35966,0,0,0,3.866-2.993,14.82106,14.82106,0,0,0,5.80871.17067,7.94721,7.94721,0,0,0,4.41735-2.29071l.9429-1.44577.92774-1.42252.45908.13879,4.90339,1.48239s1.62124-1.87064,2.74362-6.48485C199.31269,206.86693,197.22414,205.37949,194.60531,205.37949Z"/><path class="cls-11" d="M116.00462,164.3367s-10.57266-.63441-13.533,1.69161c-2.96037,2.326-5.70925,3.38323-3.80621,5.49776.05475.06084.10789.11883.16232.17929,1.83707,2.04014,3.49324,3.82616,5.54693,3.41542a41.1747,41.1747,0,0,0,6.55508-1.9031c2.96031-1.05726,2.42432-3.18145,2.74888-4.65192.19173-.869,2.66341-2.33191,4.65678-3.38626,1.37988-.72986,2.53259-1.26572,2.53259-1.26572A30.74232,30.74232,0,0,1,116.00462,164.3367Z"/><path class="cls-9" d="M128.90438,166.54937s-4.84188-4.89737-3.0317-4.89737a8.59617,8.59617,0,0,0,2.73936-.97785Z"/><path class="cls-9" d="M151.855,174.92264c2.11927-1.72684,4.33475-4.17553,4.10154-7.79025l-3.76214-1.12118Z"/><path class="cls-9" d="M225.60527,165.76505c.35409-.602,6.61026,2.41677,6.61026,2.41677l-3.23111,2.3086S225.175,166.49659,225.60527,165.76505Z"/><path class="cls-11" d="M235.61828,185.0007s-.6172,9.87513-.70537,15.16538,1.49891,11.90305-.96988,11.81488-22.83623-1.23439-30.94794-6.43646l-2.80706-1.22359a.48639.48639,0,0,0-.67956.412l-.48019,3.36791"/><path class="cls-11" d="M249.93242,234.46754c-12.66611,15.7856-32.65366,3.34746-40.85355.61417s-20.36745-9.9633-20.36745-9.9633c4.32037-1.23439,9.29659-13.99732,9.29659-13.99732"/><path class="cls-9" d="M194.178,212.86267s-8.288,12.43208-5.46659,12.25574,7.76447-11.38343,7.76447-11.38343Z"/><path class="cls-9" d="M199.788,204.04789s-.0722-.752-2.24844,1.03053c-1.48574,1.217.64144.98609.64144.98609l.43594.13813Z"/><path class="cls-11" d="M179.01672,217.10213s.25074-2.5192-1.01155-2.7997l-1.26228-.28051,6.17116.42076"/><path class="cls-11" d="M185.15811,179.09877a119.132,119.132,0,0,0,.2805,13.32409"/><path class="cls-11" d="M111.89452,204.29754c-.089-1.49591-2.89412-10.75265-2.3331-18.46659"/><path class="cls-11" d="M146.58837,145.99892s-2.10381,5.18939-10.519,1.8233"/><path class="cls-11" d="M206.19615,159.60352s6.0309.84152,7.8542-4.90887"/><path class="cls-11" d="M210.82452,149.926s-.561,2.94533-3.78685,1.40254a2.00457,2.00457,0,0,1,.42076-2.80507"/><path class="cls-11" d="M143.36253,140.38878a3.20608,3.20608,0,0,1-2.66481,1.8233,1.78572,1.78572,0,0,1-1.8233-1.8233"/><circle class="cls-9" cx="135.26414" cy="132.09311" r="1.10019"/><circle class="cls-9" cx="149.0165" cy="134.11012" r="1.10019"/><circle class="cls-9" cx="202.74241" cy="142.54491" r="1.10019"/><circle class="cls-9" cx="217.22823" cy="142.17818" r="1.10019"/><path class="cls-9" d="M252.54939,238.68213s-7.39676,16.18988-50.64772-6.08442c0,0,3.88077,1.20917,10.18061,3.59762,8.22958,3.12007,16.61638,8.13863,28.03308,5.53879l10.1733-6.7822Z"/><path class="cls-9" d="M151.08187,212.862s-42.69455,22.56173-43.6356,23.9733l1.09526-7.19442s11.92254-2.52972,16.78461-5.03917S147.66518,211.63064,151.08187,212.862Z"/><path class="cls-8" d="M1133.7168,127.80987c3.26512-4.43729,1.84189-13.39548-.41865-15.15364-2.26048-1.75816-2.93026-1.17211-3.26513-3.85118a36.5632,36.5632,0,0,0-2.00929-6.86523c-1.08843-3.68371-11.38618-4.01863-15.48855-3.43258s-2.93027-.1674-4.10237-2.34421c-1.17211-2.17675-4.521.921-9.46051.66978-4.93961-.25113-7.70242,5.02328-8.03734,9.628-.33486,4.60469-4.1023,3.26513-7.53495,9.29311-3.43258,6.02793-.50232,5.52561,2.84659,11.55359,3.34886,6.02793,8.70706,5.52561,11.3024,5.27448,1.05629-.10222,1.52456-.33445,1.68123-.85562.22829-.75941-.21124-2.138-.50912-4.67005-.0362-.30772-.05207-.64622-.05749-.99927a17.94409,17.94409,0,0,1,.12989-2.27c-1.95353-1.56386-1.189-5.03055-.491-7.27964.69041-2.22476,2.29047-.86784,2.55419-.62458.01646-.0368.03292-.07264.04944-.10884.623-1.36217,1.29782-2.28684,1.91732-2.36425,2.00935-.25119,2.93027-1.1721,3.76745-.50238.83725.66978,2.5954-.41859,3.51632-.83718s1.1721,1.00464,2.34421,1.507a3.0495,3.0495,0,0,0,1.82292.18357,2.27659,2.27659,0,0,0,.35389-.09984c.50232,1.67443,3.77311,2.18665,4.33662,2.18665l-.83695,1.62988c1.25566.165,1.60734-1.47232,1.60734-1.47232,1.5907,3.09773,2.7628,3.43259,3.76745,5.107,1.0047,1.67442-.66979,5.107-.66979,5.107l-3.65751,4.58479c2.00935,1.84189,2.10477-1.323.43035.26766-1.32263,1.2565-3.74822,4.383-5.18946,5.18487.642.9883,1.4,2.0595,2.305,3.19076,4.01863,5.02328,8.79078,3.26512,9.12565,2.34421.33492-.921.921.83718,5.94425-2.17681,5.02328-3.01394,3.26513-8.87446,2.17675-10.29776C1132.87956,127.8936,1133.7168,127.80987,1133.7168,127.80987Z"/><path class="cls-8" d="M1124.1725,126.38657l-1.33957-.16746s1.67449-3.43259.66979-5.107c-1.00465-1.67443-2.17675-2.00929-3.76745-5.107,0,0-.35168,1.63734-1.60734,1.47232l.83695-1.62988c-.56351,0-3.8343-.51222-4.33662-2.18665a2.27659,2.27659,0,0,1-.35389.09984,3.0495,3.0495,0,0,1-1.82292-.18357c-1.17211-.50232-1.42324-1.92556-2.34421-1.507s-2.67907,1.507-3.51632.83718c-.83718-.66972-1.7581.25119-3.76745.50238-.6195.07741-1.29436,1.00208-1.91732,2.36425-.01652.0362-.033.072-.04944.10884-.26372-.24326-1.86378-1.60018-2.55419.62458-.698,2.24909-1.46254,5.71578.491,7.27964a17.94409,17.94409,0,0,0-.12989,2.27c.00542.353.02129.69155.05749.99927.29788,2.532.73741,3.91064.50912,4.67005a.6371.6371,0,0,1-.17426.85562c-.701.49063-6.902,3.43825-8.907,4.38719-.38961.1844-.63722.30117-.63722.30117s7.53495,2.51167,9.79543,4.01863c2.26048,1.507,7.61868,6.11172,11.21873,2.00935l.22167-.45473,3.04345-6.243s.242-.131.6253-.34422c1.44124-.80182,3.86683-3.92837,5.18946-5.18487C1121.28019,129.48087,1126.18185,128.22846,1124.1725,126.38657Z"/><path class="cls-8" d="M1063.99963,127.84159c-.90655-.07556-2.79519,6.57253-2.79519,6.57253.75548-4.23058-2.03976-16.0158-3.09736-16.0913-1.05767-.07556.90654,14.58034.67992,14.73146-.22668.15106-3.62623-12.23846-5.28825-13.52274s-.30218,3.09736-.30218,3.09736,2.493,7.7057,2.71962,8.83892c.22668,1.13316-.37768.67992-.37768.67992s-5.59043-9.821-6.95027-9.06554c-1.35984.75543,4.07953,8.91442,3.92841,9.6699-.15112.75542-5.43931-4.53277-6.7236-4.53277s2.71963,5.06157,3.70173,6.42141a7.14823,7.14823,0,0,1,1.28428,4.38165c.02427.58206,1.411,2.31791,2.68546,3.75653.19185.21661.38131.42707.563.62518a9.19892,9.19892,0,0,1,1.053,1.40582,14.0617,14.0617,0,0,0,7.82085-1.30539c.07324-.292.13353-.62488.1881-.9728a50.41257,50.41257,0,0,0,.30581-7.51325S1064.90623,127.91715,1063.99963,127.84159Z"/><path class="cls-8" d="M1126.45182,189.51982c-.02475-.07669-.04926-.15983-.07407-.23557-1.07125-3.27007-1.763-8.50977-2.21241-13.79647-.55409-6.51791-.7395-13.10731-.809-16.1658-.1259-5.5392-4.9098-11.20435-6.67225-13.84806-1.24587-1.86884-4.18407-2.47732-5.9365-2.63029l-.22167.45473c-3.6,4.10237-8.95825-.50232-11.21873-2.00935-2.26048-1.507-9.79543-4.01863-9.79543-4.01863s.24761-.11677.63722-.30117c-12.97754-1.91566-13.91384,1.1467-18.28243,4.09849-4.658,3.14728-7.80529,15.48468-7.80529,15.48468l-.08319-9.06744-.0427-4.65479s-.31173-.12643-.84589-.29842c-.05457.34792-.11486.68082-.1881.9728a14.0617,14.0617,0,0,1-7.82085,1.30539,9.19892,9.19892,0,0,0-1.053-1.40582c-.18172-.19811-.37118-.40857-.563-.62518a11.3733,11.3733,0,0,0-1.99248,1.43606,37.6295,37.6295,0,0,1,1.0034,8.42641,19.09759,19.09759,0,0,1-.37393,3.7851c-1.133,5.28747-1.88834,13.09276,2.51788,20.89805s10.449,5.791,10.449,5.791a214.55677,214.55677,0,0,0,6.924,32.98366c4.77162,16.06059,6.962,18.6709,10.05044,19.37175.25239.05726.51.10341.7763.14146,3.525.50358,6.04277-14.09985,24.29711-14.60342,14.6998-.40553,18.62189,3.35076,20.64442,4.89536a2.51366,2.51366,0,0,0,1.26078.64384c2.01424.12589,1.51072-5.791,1.76251-11.95972C1131.03308,208.48384,1128.81613,196.83775,1126.45182,189.51982Z"/><path class="cls-8" d="M1097.98877,269.325c-.56572,4.64065-1.32275,11.0221-2.08873,17.98895,5.15484-4.39936,8.92086-7.486,8.92086-7.486C1103.31375,278.72266,1100.819,274.65369,1097.98877,269.325Z"/><path class="cls-8" d="M1127.76068,225.9044c-2.02253-1.5446-5.94462-5.30089-20.64442-4.89536-18.25434.50357-20.77215,15.107-24.29711,14.60342-.26628-.038-.52391-.0842-.7763-.14146,3.0725,7.0222,10.201,23.03729,15.94592,33.854,2.83019,5.32874,5.325,9.39771,6.83213,10.5029,0,0-3.766,3.08669-8.92086,7.486-10.92257,9.32168-28.06659,24.53072-28.94767,28.8572-.013.06393-.03363.13293-.03948.192-.00322.03251-.02075.07461-.02177.10562a42.2792,42.2792,0,0,0,4.15688,4.1694c1.71939,1.47625,3.66988,2.79924,5.25837,2.97284a3.3195,3.3195,0,0,0,.34339.03865c1.49122,0,8.41806-4.10714,16.68273-9.5808,5.95535-3.94421,12.59879-8.59512,18.41214-12.93484,6.04188-4.51029,11.18551-8.68315,13.69825-11.36341,2.396-2.55568.55242-21.72671-3.1301-34.24725C1122.31278,255.52334,1126.88526,236.14741,1127.76068,225.9044Z"/><path class="cls-8" d="M1058.89607,144.04681a6.14311,6.14311,0,0,1-3.60846-.59494"/><path class="cls-14" d="M1135.0245,126.96469c3.26513-4.43729,1.84189-13.39548-.41865-15.15363-2.26048-1.75816-2.93026-1.17211-3.26512-3.85118a36.564,36.564,0,0,0-2.00929-6.86523c-1.08844-3.68372-11.38619-4.01864-15.48856-3.43258s-2.93026-.16741-4.10237-2.34421c-1.1721-2.17675-4.521.921-9.46051.66978-4.93961-.25113-7.70241,5.02328-8.03733,9.628-.33487,4.60469-4.10231,3.26512-7.535,9.29311-3.43258,6.02793-.50232,5.5256,2.84659,11.55359,3.34886,6.02793,8.70706,5.52561,11.3024,5.27447,1.05629-.10221,1.52456-.33444,1.68123-.85561.22829-.75942-.21123-2.138-.50912-4.67-.0362-.30773-.05206-.64623-.05749-.99928a17.944,17.944,0,0,1,.12989-2.27c-1.95353-1.56386-1.189-5.03056-.491-7.27965.69041-2.22475,2.29047-.86783,2.55419-.62457.01646-.0368.03292-.07264.04944-.10884.623-1.36217,1.29782-2.28684,1.91733-2.36425,2.00935-.25119,2.93026-1.1721,3.76744-.50238.83725.66978,2.5954-.41859,3.51632-.83719.921-.41859,1.1721,1.00465,2.34421,1.507a3.0494,3.0494,0,0,0,1.82292.18356,2.2774,2.2774,0,0,0,.35389-.09983c.50232,1.67443,3.77311,2.18665,4.33662,2.18665l-.83694,1.62988c1.25565.165,1.60733-1.47232,1.60733-1.47232,1.5907,3.09773,2.7628,3.43259,3.76745,5.107s-.66979,5.107-.66979,5.107l-3.65751,4.58479c2.00935,1.84189,2.10478-1.323.43035.26766-1.32263,1.25649-3.74821,4.383-5.18946,5.18487.642.9883,1.4,2.0595,2.305,3.19075,4.01864,5.02329,8.79079,3.26513,9.12565,2.34421.33492-.921.921.83719,5.94425-2.17681,5.02329-3.01393,3.26513-8.87445,2.17675-10.29775C1134.18726,127.04842,1135.0245,126.96469,1135.0245,126.96469Z"/><path class="cls-7" d="M1125.4802,125.5414l-1.33957-.16746s1.67449-3.43259.66979-5.107-2.17675-2.00928-3.76745-5.107c0,0-.35168,1.63734-1.60733,1.47232l.83694-1.62988c-.56351,0-3.8343-.51222-4.33662-2.18665a2.2774,2.2774,0,0,1-.35389.09983,3.0494,3.0494,0,0,1-1.82292-.18356c-1.17211-.50232-1.42324-1.92556-2.34421-1.507-.92092.4186-2.67907,1.507-3.51632.83719-.83718-.66972-1.75809.25119-3.76744.50238-.61951.07741-1.29436,1.00208-1.91733,2.36425-.01652.0362-.033.072-.04944.10884-.26372-.24326-1.86378-1.60018-2.55419.62457-.698,2.24909-1.46254,5.71579.491,7.27965a17.944,17.944,0,0,0-.12989,2.27c.00543.353.02129.69155.05749.99928.29789,2.532.73741,3.91063.50912,4.67a.63708.63708,0,0,1-.17426.85561c-.701.49064-6.902,3.43825-8.907,4.3872-.38961.1844-.63722.30116-.63722.30116s7.53495,2.51168,9.79543,4.01864c2.26048,1.507,7.61869,6.11172,11.21873,2.00935l.22167-.45473,3.04345-6.243s.242-.131.6253-.34422c1.44125-.80182,3.86683-3.92838,5.18946-5.18487C1122.5879,128.6357,1127.48955,127.38329,1125.4802,125.5414Z"/><path class="cls-7" d="M1065.30733,126.99642c-.90654-.07556-2.79519,6.57253-2.79519,6.57253.75548-4.23059-2.03976-16.01581-3.09736-16.09131-1.05766-.07556.90654,14.58035.67992,14.73147-.22668.15106-3.62623-12.23846-5.28825-13.52274s-.30218,3.09736-.30218,3.09736,2.493,7.70569,2.71962,8.83892c.22668,1.13316-.37768.67992-.37768.67992s-5.59043-9.821-6.95027-9.06554c-1.35984.75542,4.07953,8.91442,3.92841,9.6699-.15112.75542-5.43931-4.53277-6.72359-4.53277s2.71962,5.06157,3.70172,6.42141a7.14821,7.14821,0,0,1,1.28428,4.38165c.02428.58206,1.411,2.31791,2.68546,3.75653.19185.2166.38132.42706.563.62518a9.19826,9.19826,0,0,1,1.053,1.40582,14.06188,14.06188,0,0,0,7.82085-1.30539c.07324-.292.13353-.62488.1881-.9728a50.41168,50.41168,0,0,0,.30582-7.51325S1066.21393,127.072,1065.30733,126.99642Z"/><path class="cls-8" d="M1127.75953,188.67465c-.02475-.07669-.04926-.15983-.07407-.23557-1.07126-3.27007-1.763-8.50978-2.21242-13.79647-.55408-6.51791-.73949-13.10732-.809-16.1658-.1259-5.5392-4.90979-11.20436-6.67225-13.84806-1.24587-1.86885-4.18407-2.47732-5.9365-2.63029l-.22167.45473c-3.6,4.10237-8.95825-.50232-11.21873-2.00935-2.26048-1.507-9.79543-4.01864-9.79543-4.01864s.24761-.11676.63722-.30116c-12.97754-1.91566-13.91384,1.1467-18.28243,4.09849-4.658,3.14728-7.80529,15.48468-7.80529,15.48468l-.08319-9.06744-.0427-4.65479s-.31172-.12643-.84589-.29842c-.05457.34792-.11486.68081-.1881.9728a14.06188,14.06188,0,0,1-7.82085,1.30539,9.19826,9.19826,0,0,0-1.053-1.40582c-.18171-.19812-.37118-.40858-.563-.62518a11.373,11.373,0,0,0-1.99247,1.43606,37.62915,37.62915,0,0,1,1.00339,8.42641,19.09692,19.09692,0,0,1-.37393,3.7851c-1.133,5.28747-1.88834,13.09276,2.51788,20.898s10.449,5.791,10.449,5.791a214.55652,214.55652,0,0,0,6.924,32.98366c4.77162,16.0606,6.962,18.67091,10.05044,19.37176.25239.05725.51.10341.7763.14146,3.525.50358,6.04277-14.09985,24.29712-14.60342,14.69979-.40554,18.62188,3.35076,20.64441,4.89536a2.51375,2.51375,0,0,0,1.26078.64384c2.01424.12589,1.51073-5.791,1.76251-11.95972C1132.34078,207.63867,1130.12383,195.99258,1127.75953,188.67465Z"/><path class="cls-7" d="M1099.29647,268.47977c-.56572,4.64066-1.32275,11.02211-2.08873,17.989,5.15484-4.39936,8.92086-7.486,8.92086-7.486C1104.62145,277.87749,1102.12666,273.80852,1099.29647,268.47977Z"/><path class="cls-7" d="M1129.06838,225.05923c-2.02253-1.5446-5.94462-5.3009-20.64441-4.89536-18.25435.50357-20.77216,15.107-24.29712,14.60342-.26628-.038-.52391-.08421-.7763-.14146,3.0725,7.0222,10.201,23.03729,15.94592,33.85394,2.83019,5.32875,5.325,9.39772,6.83213,10.50291,0,0-3.766,3.08669-8.92086,7.486-10.92257,9.32168-28.06659,24.53072-28.94767,28.8572-.013.06393-.03363.13293-.03948.192-.00322.0325-.02075.07461-.02176.10562a42.27843,42.27843,0,0,0,4.15687,4.1694c1.7194,1.47625,3.66988,2.79924,5.25837,2.97284a3.3195,3.3195,0,0,0,.34339.03865c1.49123,0,8.41806-4.10714,16.68273-9.5808,5.95535-3.94421,12.59879-8.59512,18.41214-12.93485,6.04188-4.51028,11.18551-8.68314,13.69826-11.3634,2.396-2.55569.55241-21.72671-3.13011-34.24725C1123.62048,254.67817,1128.193,235.30223,1129.06838,225.05923Z"/><path class="cls-10" d="M1057.62831,143.20164a6.14311,6.14311,0,0,1-3.60846-.59494"/><path class="cls-14" d="M1134.41987,127.93556c3.26513-4.43729,1.84189-13.39548-.41865-15.15363-2.26048-1.75816-2.93026-1.17211-3.26512-3.85118a36.5632,36.5632,0,0,0-2.00929-6.86523c-1.08844-3.68372-11.38619-4.01864-15.48856-3.43259s-2.93026-.1674-4.10237-2.34421c-1.1721-2.17675-4.521.921-9.46051.66979-4.93961-.25113-7.70241,5.02328-8.03733,9.628-.33486,4.60469-4.10231,3.26512-7.535,9.29311-3.43258,6.02793-.50232,5.5256,2.8466,11.55359,3.34885,6.02793,8.707,5.5256,11.3024,5.27447,1.05629-.10222,1.52456-.33444,1.68122-.85561.22829-.75942-.21123-2.13805-.50912-4.67005-.0362-.30773-.05206-.64623-.05749-.99928a17.9459,17.9459,0,0,1,.12989-2.27c-1.95353-1.56386-1.189-5.03056-.491-7.27965.69042-2.22476,2.29048-.86784,2.55419-.62458.01646-.03679.03292-.07263.04944-.10883.623-1.36217,1.29782-2.28684,1.91733-2.36425,2.00935-.25119,2.93026-1.17211,3.76745-.50238s2.5954-.4186,3.51631-.83719c.921-.41859,1.17211,1.00465,2.34421,1.507a3.04948,3.04948,0,0,0,1.82292.18356,2.2774,2.2774,0,0,0,.35389-.09983c.50232,1.67443,3.77311,2.18665,4.33662,2.18665l-.83694,1.62988c1.25565.165,1.60733-1.47232,1.60733-1.47232,1.5907,3.09772,2.7628,3.43258,3.76745,5.107s-.66978,5.107-.66978,5.107l-3.65752,4.5848c2.00935,1.84188,2.10478-1.323.43035.26766-1.32263,1.25649-3.74821,4.383-5.18946,5.18486.642.98831,1.4,2.05951,2.305,3.19076,4.01864,5.02328,8.79079,3.26513,9.12565,2.34421.33492-.921.921.83719,5.94426-2.17681,5.02328-3.01393,3.26512-8.87446,2.17674-10.29775C1133.58263,128.01929,1134.41987,127.93556,1134.41987,127.93556Z"/><path class="cls-10" d="M1124.87557,126.51227l-1.33956-.16747s1.67448-3.43258.66978-5.107-2.17675-2.00929-3.76745-5.107c0,0-.35168,1.63733-1.60733,1.47232l.83694-1.62988c-.56351,0-3.8343-.51222-4.33662-2.18665a2.2774,2.2774,0,0,1-.35389.09983,3.04948,3.04948,0,0,1-1.82292-.18356c-1.1721-.50232-1.42324-1.92556-2.34421-1.507-.92091.41859-2.67907,1.507-3.51631.83719s-1.7581.25119-3.76745.50238c-.61951.07741-1.29436,1.00208-1.91733,2.36425-.01652.0362-.033.072-.04944.10883-.26371-.24326-1.86377-1.60018-2.55419.62458-.698,2.24909-1.46254,5.71579.491,7.27965a17.9459,17.9459,0,0,0-.12989,2.27c.00543.353.02129.69155.05749.99928.29789,2.532.73741,3.91063.50912,4.67005a.63708.63708,0,0,1-.17426.85561c-.701.49064-6.902,3.43825-8.907,4.3872-.38961.18439-.63722.30116-.63722.30116s7.53495,2.51167,9.79543,4.01864c2.26048,1.507,7.61869,6.11172,11.21873,2.00935l.22167-.45473,3.04346-6.243s.24194-.131.62529-.34423c1.44125-.80181,3.86683-3.92837,5.18946-5.18486C1121.98327,129.60656,1126.88492,128.35415,1124.87557,126.51227Z"/><path class="cls-10" d="M1064.7027,127.96729c-.90654-.07556-2.79519,6.57253-2.79519,6.57253.75549-4.23059-2.03976-16.01581-3.09736-16.09131-1.05766-.07556.90654,14.58035.67992,14.73147-.22668.15106-3.62623-12.23846-5.28825-13.52275s-.30218,3.09737-.30218,3.09737,2.493,7.70569,2.71963,8.83891c.22668,1.13317-.37769.67993-.37769.67993s-5.59042-9.821-6.95027-9.06554c-1.35984.75542,4.07953,8.91442,3.92841,9.6699-.15112.75542-5.43931-4.53277-6.72359-4.53277s2.71962,5.06157,3.70172,6.42141a7.14813,7.14813,0,0,1,1.28429,4.38165c.02427.58205,1.411,2.31791,2.68545,3.75653.19185.2166.38132.42706.563.62518a9.19826,9.19826,0,0,1,1.053,1.40582,14.06183,14.06183,0,0,0,7.82086-1.3054c.07323-.292.13352-.62487.18809-.97279a50.41168,50.41168,0,0,0,.30582-7.51325S1065.6093,128.04285,1064.7027,127.96729Z"/><path class="cls-11" d="M1127.1549,189.64552c-.02475-.0767-.04926-.15983-.07407-.23557-1.07126-3.27007-1.763-8.50978-2.21241-13.79648-.55409-6.5179-.7395-13.10731-.809-16.16579-.12589-5.5392-4.90979-11.20436-6.67224-13.84806-1.24588-1.86885-4.18407-2.47732-5.93651-2.63029l-.22167.45473c-3.6,4.10237-8.95825-.50232-11.21873-2.00935-2.26048-1.507-9.79543-4.01864-9.79543-4.01864s.24761-.11677.63722-.30116c-12.97754-1.91566-13.91384,1.1467-18.28243,4.09849-4.65794,3.14728-7.80529,15.48468-7.80529,15.48468l-.08319-9.06745-.0427-4.65478s-.31172-.12643-.84589-.29842c-.05457.34792-.11486.68081-.18809.97279a14.06183,14.06183,0,0,1-7.82086,1.3054,9.19826,9.19826,0,0,0-1.053-1.40582c-.18171-.19812-.37118-.40858-.563-.62518a11.373,11.373,0,0,0-1.99247,1.43606,37.629,37.629,0,0,1,1.00339,8.42641,19.09749,19.09749,0,0,1-.37392,3.78509c-1.133,5.28748-1.88835,13.09277,2.51787,20.89805s10.449,5.791,10.449,5.791a214.55731,214.55731,0,0,0,6.924,32.98366c4.77161,16.0606,6.962,18.67091,10.05044,19.37176.25238.05725.51.10341.77629.14146,3.525.50357,6.04278-14.09985,24.29712-14.60343,14.6998-.40553,18.62188,3.35077,20.64441,4.89536a2.51376,2.51376,0,0,0,1.26079.64385c2.01423.12589,1.51072-5.791,1.76251-11.95972C1131.73615,208.60954,1129.51921,196.96345,1127.1549,189.64552Z"/><path class="cls-10" d="M1098.69184,269.45064c-.56572,4.64065-1.32275,11.02211-2.08873,17.989,5.15485-4.39936,8.92086-7.486,8.92086-7.486C1104.01682,278.84836,1101.522,274.77939,1098.69184,269.45064Z"/><path class="cls-10" d="M1128.46375,226.03009c-2.02253-1.54459-5.94461-5.30089-20.64441-4.89536-18.25434.50358-20.77216,15.107-24.29712,14.60343-.26628-.038-.52391-.08421-.77629-.14146,3.07249,7.02219,10.201,23.03729,15.94591,33.85394,2.83019,5.32875,5.325,9.39772,6.83213,10.50291,0,0-3.766,3.08669-8.92086,7.486-10.92257,9.32168-28.06659,24.53071-28.94766,28.8572-.013.06393-.03364.13293-.03948.192-.00322.0325-.02076.0746-.02177.10562a42.27967,42.27967,0,0,0,4.15687,4.1694c1.7194,1.47625,3.66989,2.79924,5.25838,2.97284a3.32188,3.32188,0,0,0,.34339.03864c1.49122,0,8.418-4.10713,16.68272-9.5808,5.95535-3.94421,12.59879-8.59511,18.41214-12.93484,6.04189-4.51028,11.18551-8.68314,13.69826-11.36341,2.396-2.55568.55242-21.7267-3.13011-34.24724C1123.01585,255.649,1127.58834,236.2731,1128.46375,226.03009Z"/><path class="cls-10" d="M1055.78357,144.93562a6.14308,6.14308,0,0,1-3.60845-.59494"/><path class="cls-10" d="M1065.77145,183.24128s11.40776-.63046,14.07664-20.16177"/><path class="cls-10" d="M1064.7643,156.67808c.36394.24262,4.16567,2.39812,4.287,12.22443"/><path class="cls-10" d="M1123.01585,255.649c-.22316-1.22126-7.01666-16.87057-7.01666-16.87057"/><path class="cls-10" d="M1099.9333,131.8521s5.375,13.25814,14.56079,4.87425"/><path class="cls-11" d="M1105.78919,131.104s3.65705,4.59485,7.1166,1.37556c0,0-2.6763,4.41454-5.93061.889C1105.39169,131.65319,1105.78919,131.104,1105.78919,131.104Z"/><path class="cls-10" d="M1108.70611,129.27734s2.19021,2.82584,3.77658.3934c0,0-.68658-3.52876.5413-4.552"/><circle class="cls-9" cx="1108.55645" cy="120.6221" r="0.95183"/><circle class="cls-9" cx="1118.92077" cy="124.64091" r="0.95183"/><path class="cls-9" d="M1067.35384,191.79775l-1.58239-8.55647s10.08151-1.3732,12.1011-13.07C1077.87255,170.17127,1077.03106,185.31822,1067.35384,191.79775Z"/><path class="cls-9" d="M1128.46375,226.03009c.79848.565-21.938-13.83617-44.17032,9.53623-1.6914,1.77813-1.5475.03038-.77121.17184,0,0,5.86544-9.14761,11.566-11.61786S1115.85454,217.10878,1128.46375,226.03009Z"/><polygon class="cls-9" points="1117.646 241.574 1124.048 252.242 1123.016 255.649 1117.646 241.574"/></g></svg>