<?xml version="1.0" encoding="utf-8"?>
<!-- Generator: Adobe Illustrator 24.0.3, SVG Export Plug-In . SVG Version: 6.00 Build 0)  -->
<svg version="1.1" id="Layer_1" xmlns="http://www.w3.org/2000/svg" xmlns:xlink="http://www.w3.org/1999/xlink" x="0px" y="0px"
	 viewBox="0 0 1280 366" style="enable-background:new 0 0 1280 366;" xml:space="preserve">
<style type="text/css">
	.st0{clip-path:url(#SVGID_2_);}
	.st1{fill:#478FB9;}
	.st2{clip-path:url(#SVGID_2_);fill:none;stroke:#82B2D0;stroke-miterlimit:10;}
	.st3{clip-path:url(#SVGID_2_);fill:none;stroke:#82B2D0;stroke-width:0.6221;stroke-miterlimit:10;}
	.st4{clip-path:url(#SVGID_2_);fill:none;stroke:#4A8FBA;stroke-miterlimit:10;}
	.st5{clip-path:url(#SVGID_2_);fill:#245586;}
	.st6{fill:#386FA0;}
	.st7{fill:#245586;}
	.st8{fill:#638EAD;}
	.st9{fill:none;stroke:#245586;stroke-miterlimit:10;}
	.st10{fill:#69A1BB;}
	.st11{fill:#79ABC2;}
	.st12{fill:none;stroke:#245586;stroke-linecap:round;stroke-linejoin:round;stroke-miterlimit:10;}
	.st13{fill:#255586;}
	.st14{fill:#95BDD6;}
	.st15{fill:#82B2D0;}
	.st16{fill:#3581AD;}
	.st17{fill:#488FBA;}
	.st18{fill:#44799D;}
	.st19{fill:none;stroke:#245586;stroke-width:1.2372;stroke-miterlimit:10;}
</style>
<g>
	<defs>
		<rect id="SVGID_1_" width="1280" height="366"/>
	</defs>
	<clipPath id="SVGID_2_">
		<use xlink:href="#SVGID_1_"  style="overflow:visible;"/>
	</clipPath>
	<g class="st0">
		<rect x="1.1" class="st1" width="1280" height="366"/>
	</g>
	<circle class="st2" cx="1146.57" cy="343.1" r="43.97"/>
	<path class="st2" d="M1226.6,25.59l25.66-18.29c0.7-0.5,0.86-1.46,0.36-2.16l-18.29-25.66c-0.5-0.7-1.46-0.86-2.16-0.36
		l-25.66,18.29c-0.7,0.5-0.86,1.46-0.36,2.16l18.29,25.66C1224.94,25.92,1225.91,26.09,1226.6,25.59z"/>
	<circle class="st2" cx="1035.97" cy="-18.62" r="43.97"/>
	<circle class="st3" cx="1057.09" cy="217.41" r="27.35"/>
	<circle class="st2" cx="1241.61" cy="150.87" r="22.59"/>
	<circle class="st2" cx="84.07" cy="331.26" r="43.97"/>
	<path class="st4" d="M1201.94,293l49.54-35.3c1.34-0.96,1.66-2.82,0.7-4.17l-35.3-49.54c-0.96-1.34-2.82-1.66-4.17-0.7l-49.54,35.3
		c-1.34,0.96-1.66,2.82-0.7,4.17l35.3,49.54C1198.73,293.64,1200.59,293.95,1201.94,293z"/>
	<path class="st2" d="M88.76,244.39l19.69-14.03c0.53-0.38,0.66-1.12,0.28-1.66L94.7,209.02c-0.38-0.53-1.12-0.66-1.66-0.28
		l-19.69,14.03c-0.53,0.38-0.66,1.12-0.28,1.66l14.03,19.69C87.48,244.65,88.23,244.77,88.76,244.39z"/>
	<path class="st2" d="M184.35,125.86l22.4,26.29c0.61,0.71,1.68,0.8,2.39,0.19l26.29-22.4c0.71-0.61,0.8-1.68,0.19-2.39l-22.4-26.29
		c-0.61-0.71-1.68-0.8-2.39-0.19l-26.29,22.4C183.83,124.08,183.74,125.15,184.35,125.86z"/>
	<path class="st2" d="M1134.8,68.36l10.92,64.48c0.13,0.79,1.07,1.13,1.68,0.63l50.39-41.7c0.61-0.51,0.45-1.49-0.3-1.77
		l-61.3-22.79C1135.43,66.94,1134.66,67.57,1134.8,68.36z"/>
	<path class="st2" d="M201.41-20.23l10.92,64.48c0.13,0.79,1.07,1.13,1.68,0.63l50.39-41.7c0.61-0.51,0.45-1.49-0.3-1.77
		l-61.3-22.79C202.04-21.66,201.27-21.02,201.41-20.23z"/>
	<path class="st2" d="M47.22,152.99L8.33,100.4c-0.47-0.64-1.47-0.53-1.78,0.2l-26.09,59.97c-0.32,0.73,0.27,1.53,1.07,1.44
		l64.98-7.39C47.3,154.54,47.7,153.63,47.22,152.99z"/>
	<g class="st0">
		<g>
			<g>
				<polygon class="st6" points="228.87,127.85 235.74,120.2 175.28,65.91 174.54,66.74 162.25,80.43 161.54,81.21 222,135.5 				
					"/>
				<polygon class="st7" points="172.69,65.09 172.07,65.78 172.14,65.84 161.09,78.14 161.02,78.08 160.4,78.77 162.25,80.43 
					174.54,66.74 				"/>
				<path class="st8" d="M168.39,62.47c-0.69-0.62-1.75-0.56-2.38,0.13l-8.8,9.8c-0.62,0.69-0.56,1.75,0.13,2.37l3.68,3.31
					l11.05-12.3L168.39,62.47z"/>
				
					<rect x="158.31" y="71.91" transform="matrix(0.6681 -0.7441 0.7441 0.6681 1.7453 147.8331)" class="st9" width="16.54" height="0.09"/>
				<path class="st7" d="M241.67,141.51l2.35,2.11c0.61,0.55,1.55,0.5,2.1-0.11l0.31-0.35c0.55-0.61,0.5-1.55-0.11-2.1l-2.35-2.11
					l-1.22,1.36L241.67,141.51z"/>
				<path class="st8" d="M240.72,142.57l0.95-1.06l1.08-1.2l1.22-1.36l0.81-0.9c-7.26-6.52-9.04-17.85-9.04-17.85l-6.87,7.65
					L222,135.5C222,135.5,233.46,136.05,240.72,142.57z"/>
			</g>
		</g>
		<g>
			<g>
				<polygon class="st9" points="227.46,129.77 234.33,122.12 173.87,67.83 173.12,68.66 160.83,82.35 160.13,83.13 220.59,137.42 
									"/>
				<polygon class="st9" points="171.28,67 170.66,67.7 170.73,67.76 159.68,80.06 159.61,80 158.99,80.69 160.83,82.35 
					173.12,68.66 				"/>
				<path class="st9" d="M166.98,64.39c-0.69-0.62-1.75-0.56-2.38,0.13l-8.8,9.8c-0.62,0.69-0.56,1.75,0.13,2.37l3.68,3.31
					l11.05-12.3L166.98,64.39z"/>
				
					<rect x="156.9" y="73.83" transform="matrix(0.6681 -0.7441 0.7441 0.6681 -0.1507 147.419)" class="st9" width="16.54" height="0.09"/>
				<path class="st9" d="M240.26,143.43l2.35,2.11c0.61,0.55,1.55,0.5,2.1-0.11l0.31-0.35c0.55-0.61,0.5-1.55-0.11-2.1l-2.35-2.11
					l-1.22,1.36L240.26,143.43z"/>
				<path class="st9" d="M239.31,144.49l0.95-1.06l1.08-1.2l1.22-1.36l0.81-0.9c-7.26-6.52-9.04-17.85-9.04-17.85l-6.87,7.65
					l-6.87,7.65C220.59,137.42,232.05,137.97,239.31,144.49z"/>
			</g>
		</g>
	</g>
	<g class="st0">
		<g>
			<path class="st7" d="M1256.02,342.47l1.51,1.4c0.27,0.25,0.61,0.32,0.76,0.15l0.09-0.09c0.15-0.16,0.06-0.5-0.21-0.75l-1.51-1.4
				l-0.32,0.34L1256.02,342.47z"/>
			<path class="st10" d="M1255.75,342.76l0.27-0.29l0.32-0.34l0.32-0.34l0.27-0.29c-2.35-2.18-3.84-4.97-4.51-6.42l-3.41,3.67
				C1250.51,339.31,1253.41,340.59,1255.75,342.76z"/>
			<path class="st7" d="M1162.84,251.71c0.05-0.05,0.1-0.1,0.15-0.14l-2.35-2.18c-0.44-0.41-0.97-0.57-1.17-0.35l-3.21,3.46
				c-0.2,0.22-0.01,0.73,0.44,1.14l2.35,2.18c0.04-0.06,0.08-0.11,0.13-0.16L1162.84,251.71z"/>
			<path class="st6" d="M1198.26,291.42l-29.11-27.01c-0.84-0.78-1.13-1.82-0.65-2.34c0.48-0.51,1.54-0.3,2.38,0.47l29.11,27.01
				l3.53-3.8l-35.61-33.04c-1.7-1.58-3.84-2.06-4.92-1.15c-0.05,0.04-0.1,0.09-0.15,0.14l-3.67,3.95c-0.05,0.05-0.09,0.11-0.13,0.16
				c-0.83,1.14-0.19,3.24,1.51,4.82l35.61,33.04L1198.26,291.42z"/>
			<polygon class="st6" points="1246.31,337.99 1246.91,337.34 1250.86,333.08 1251.46,332.44 1204.73,289.09 1199.59,294.64 			"/>
			<path class="st11" d="M1199.59,294.64l5.15-5.55l1.1-1.19l-2.31-2.15l-3.53,3.8l0.15,0.14c0.84,0.78,1.13,1.82,0.65,2.34
				c-0.48,0.51-1.55,0.3-2.38-0.47l-0.15-0.14l-2.1,2.26l2.31,2.15L1199.59,294.64z"/>
			<path class="st7" d="M1200.8,292.04c0.48-0.51,0.19-1.56-0.65-2.34l-0.15-0.14l-29.11-27.01c-0.84-0.78-1.9-0.99-2.38-0.47
				c-0.48,0.51-0.19,1.56,0.65,2.34l29.11,27.01l0.15,0.14C1199.25,292.34,1200.32,292.55,1200.8,292.04z"/>
			<polygon class="st10" points="1248.03,338.37 1250,336.24 1251.97,334.12 1250.86,333.08 1246.91,337.34 			"/>
			<path class="st7" d="M1248.08,338.42l0.66,0.62l0.27-0.29l3.41-3.67l0.27-0.29l-0.66-0.62c-0.02-0.04-0.03-0.07-0.03-0.07
				l-0.02,0.03l-1.97,2.13l-1.97,2.13l-0.02,0.03C1248,338.4,1248.03,338.41,1248.08,338.42z"/>
		</g>
		<g>
			<path class="st12" d="M1256.11,341.84l1.51,1.4c0.27,0.25,0.61,0.32,0.76,0.15l0.09-0.09c0.15-0.16,0.06-0.5-0.21-0.75l-1.51-1.4
				l-0.32,0.34L1256.11,341.84z"/>
			<path class="st12" d="M1255.84,342.13l0.27-0.29l0.32-0.34l0.32-0.34l0.27-0.29c-2.35-2.18-3.84-4.97-4.51-6.42l-3.41,3.67
				C1250.6,338.68,1253.5,339.96,1255.84,342.13z"/>
			<path class="st12" d="M1162.93,251.08c0.05-0.05,0.1-0.1,0.15-0.14l-2.35-2.18c-0.44-0.41-0.97-0.57-1.17-0.35l-3.21,3.46
				c-0.2,0.22-0.01,0.73,0.44,1.14l2.35,2.18c0.04-0.06,0.08-0.11,0.13-0.16L1162.93,251.08z"/>
			<path class="st12" d="M1198.35,290.8l-29.11-27.01c-0.84-0.78-1.13-1.82-0.65-2.34c0.48-0.51,1.54-0.3,2.38,0.47l29.11,27.01
				l3.53-3.8L1168,252.09c-1.7-1.58-3.84-2.06-4.92-1.15c-0.05,0.04-0.1,0.09-0.15,0.14l-3.67,3.95c-0.05,0.05-0.09,0.11-0.13,0.16
				c-0.83,1.14-0.19,3.24,1.51,4.82l35.61,33.04L1198.35,290.8z"/>
			<polygon class="st12" points="1246.4,337.36 1247,336.71 1250.95,332.45 1251.55,331.81 1204.82,288.46 1199.68,294.01 			"/>
			<path class="st12" d="M1199.68,294.01l5.15-5.55l1.1-1.19l-2.31-2.15l-3.53,3.8l0.15,0.14c0.84,0.78,1.13,1.82,0.65,2.34
				c-0.48,0.51-1.55,0.3-2.38-0.47l-0.15-0.14l-2.09,2.26l2.31,2.15L1199.68,294.01z"/>
			<path class="st12" d="M1200.89,291.41c0.48-0.51,0.19-1.56-0.65-2.34l-0.15-0.14l-29.11-27.01c-0.84-0.78-1.9-0.99-2.38-0.47
				c-0.48,0.51-0.19,1.56,0.65,2.34l29.11,27.01l0.15,0.14C1199.34,291.71,1200.41,291.92,1200.89,291.41z"/>
			<polygon class="st12" points="1248.11,337.74 1250.09,335.62 1252.06,333.49 1250.95,332.45 1247,336.71 			"/>
			<path class="st12" d="M1248.17,337.79l0.66,0.62l0.27-0.29l3.41-3.67l0.27-0.29l-0.66-0.62c-0.02-0.04-0.03-0.07-0.03-0.07
				l-0.02,0.03l-1.97,2.13l-1.97,2.13l-0.02,0.03C1248.09,337.77,1248.12,337.78,1248.17,337.79z"/>
		</g>
	</g>
	<g class="st0">
		<path class="st13" d="M1090.14,29.14l40.76,17.53c6.56,2.82,9.6,10.43,6.77,17l-45.04,104.73c-2.82,6.56-10.43,9.6-17,6.77
			l-40.76-17.53c-6.56-2.82-9.6-10.43-6.77-17l45.04-104.73C1075.97,29.35,1083.58,26.31,1090.14,29.14z"/>
		<path class="st10" d="M1082.1,33.15l51.42,22.11c0.82,0.35,1.2,1.3,0.84,2.12l-45.3,105.33c-0.35,0.82-1.3,1.2-2.12,0.84
			l-51.42-22.11c-0.82-0.35-1.2-1.3-0.84-2.12l45.3-105.33C1080.33,33.17,1081.28,32.8,1082.1,33.15z"/>
		<g>
			<path class="st9" d="M1088.82,27.53l40.76,17.53c6.56,2.82,9.6,10.43,6.77,17l-45.04,104.73c-2.82,6.56-10.43,9.6-17,6.77
				l-40.76-17.53c-6.56-2.82-9.6-10.43-6.77-17l45.04-104.73C1074.65,27.74,1082.26,24.7,1088.82,27.53z"/>
			<path class="st9" d="M1080.78,31.54l51.42,22.11c0.82,0.35,1.2,1.3,0.84,2.12l-45.3,105.33c-0.35,0.82-1.3,1.2-2.12,0.84
				l-51.42-22.11c-0.82-0.35-1.2-1.3-0.84-2.12l45.3-105.33C1079.02,31.56,1079.97,31.18,1080.78,31.54z"/>
		</g>
		<g>
			<g>
				<path class="st14" d="M1069.25,78.31l-3.62,8.3c-1.71,3.92,0.08,8.49,4.01,10.21l13.76,6l7.29,12.44l2.84-8.02
					c3.93,1.71,8.5-0.08,10.21-4l3.62-8.3c1.71-3.93-0.08-8.49-4.01-10.21l-23.89-10.42C1075.53,72.59,1070.96,74.39,1069.25,78.31z
					"/>
			</g>
			<g>
				<path class="st12" d="M1069.67,80.1l-3.62,8.3c-1.71,3.92,0.08,8.49,4.01,10.21l13.76,6l7.29,12.44l2.84-8.02
					c3.93,1.71,8.5-0.08,10.21-4l3.62-8.3c1.71-3.93-0.08-8.49-4.01-10.21l-23.89-10.42C1075.96,74.38,1071.39,76.17,1069.67,80.1z"
					/>
				<line class="st12" x1="1096.85" y1="90.8" x2="1077.77" y2="82.48"/>
				<line class="st12" x1="1097.36" y1="102.72" x2="1083.74" y2="96.78"/>
				<line class="st12" x1="1099.5" y1="97.81" x2="1089.92" y2="93.63"/>
				<line class="st12" x1="1082.31" y1="90.31" x2="1076.23" y2="87.66"/>
			</g>
			<g>
				<path class="st6" d="M1092.39,127.87l-3.62,8.3c-1.71,3.92-6.28,5.72-10.21,4.01l-13.76-6l-14.08,3.12l3.95-7.54
					c-3.93-1.71-5.73-6.28-4.01-10.21l3.62-8.3c1.71-3.93,6.28-5.72,10.21-4l23.89,10.42
					C1092.31,119.37,1094.11,123.94,1092.39,127.87z"/>
			</g>
			<g>
				<path class="st12" d="M1092.78,129.36l-3.63,8.31c-1.71,3.93-6.29,5.72-10.22,4.01l-13.77-6.01l-14.09,3.13l3.95-7.55
					c-3.93-1.72-5.73-6.29-4.02-10.22l3.63-8.31c1.71-3.93,6.29-5.72,10.22-4.01l23.91,10.43
					C1092.69,120.85,1094.49,125.43,1092.78,129.36z"/>
				<line class="st12" x1="1066.41" y1="116.71" x2="1085.52" y2="125.04"/>
				<line class="st12" x1="1057.33" y1="124.45" x2="1070.96" y2="130.4"/>
				<line class="st12" x1="1059.47" y1="119.53" x2="1069.06" y2="123.72"/>
				<line class="st12" x1="1076.68" y1="127.04" x2="1082.76" y2="129.69"/>
			</g>
			<g>
				<path class="st6" d="M1120.69,62.15l-3.62,8.3c-1.71,3.92-6.28,5.72-10.21,4.01l-13.76-6l-14.08,3.12l3.95-7.54
					c-3.93-1.71-5.73-6.28-4.01-10.21l3.62-8.3c1.71-3.93,6.28-5.72,10.21-4l23.89,10.42C1120.61,53.66,1122.4,58.23,1120.69,62.15z
					"/>
			</g>
			<g>
				<path class="st12" d="M1121.07,63.64l-3.63,8.31c-1.71,3.93-6.29,5.72-10.22,4.01l-13.77-6.01l-14.09,3.13l3.95-7.55
					c-3.93-1.72-5.73-6.29-4.02-10.22l3.63-8.31c1.71-3.93,6.29-5.72,10.22-4.01l23.91,10.43
					C1120.99,55.14,1122.78,59.72,1121.07,63.64z"/>
				<line class="st12" x1="1094.71" y1="50.99" x2="1113.81" y2="59.33"/>
				<line class="st12" x1="1085.62" y1="58.74" x2="1099.25" y2="64.68"/>
				<line class="st12" x1="1087.77" y1="53.82" x2="1097.36" y2="58"/>
				<line class="st12" x1="1104.97" y1="61.33" x2="1111.06" y2="63.98"/>
			</g>
		</g>
	</g>
	<g class="st0">
		<g>
			<path class="st15" d="M30.9,165.87l44.99,16.57c5.63,2.07,11.86-0.81,13.94-6.43l41.3-112.13c2.07-5.63-0.81-11.86-6.43-13.94
				L79.71,33.37c-5.63-2.07-11.86,0.81-13.94,6.43l-41.3,112.13C22.39,157.56,25.27,163.8,30.9,165.87z"/>
			<g>
				<path class="st7" d="M25.09,170.17l49.6,18.27c6.12,2.25,12.91-0.88,15.17-7l44.48-120.75c2.25-6.12-0.88-12.91-7-15.17
					l-49.6-18.27c-6.12-2.25-12.91,0.88-15.17,7L18.09,155C15.84,161.13,18.97,167.92,25.09,170.17z M22.88,151.88l41.3-112.13
					c2.07-5.63,8.31-8.51,13.94-6.43l44.99,16.57c5.63,2.07,8.51,8.31,6.43,13.94l-41.3,112.13c-2.07,5.63-8.31,8.51-13.94,6.43
					l-44.99-16.57C23.69,163.74,20.81,157.5,22.88,151.88z"/>
				<path class="st9" d="M29.32,165.81l44.99,16.57c5.63,2.07,11.86-0.81,13.94-6.43l41.3-112.13c2.07-5.63-0.81-11.86-6.43-13.94
					L78.12,33.31c-5.63-2.07-11.86,0.81-13.94,6.43l-41.3,112.13C20.81,157.5,23.69,163.74,29.32,165.81z"/>
			</g>
			<g>
				<path class="st9" d="M24.38,171.59l49.6,18.27c6.12,2.25,12.91-0.88,15.17-7l44.48-120.75c2.25-6.12-0.88-12.91-7-15.17
					l-49.6-18.27c-6.12-2.25-12.91,0.88-15.17,7L17.38,156.42C15.13,162.54,18.26,169.33,24.38,171.59z M22.17,153.29l41.3-112.13
					c2.07-5.63,8.31-8.51,13.94-6.43L122.4,51.3c5.63,2.07,8.51,8.31,6.43,13.94l-41.3,112.13c-2.07,5.63-8.31,8.51-13.94,6.43
					l-44.99-16.57C22.98,165.16,20.1,158.92,22.17,153.29z"/>
				<path class="st9" d="M28.61,167.23L73.6,183.8c5.63,2.07,11.86-0.81,13.94-6.43l41.3-112.13c2.07-5.63-0.81-11.86-6.43-13.94
					L77.41,34.73c-5.63-2.07-11.86,0.81-13.94,6.43l-41.3,112.13C20.1,158.92,22.98,165.16,28.61,167.23z"/>
			</g>
			<path class="st9" d="M99.38,44.93l10.41,3.43c0.82,0.27,1.27,1.16,1,1.98v0c-0.27,0.82-1.16,1.27-1.98,1L98.4,47.9
				c-0.82-0.27-1.27-1.16-1-1.98l0,0C97.67,45.1,98.56,44.66,99.38,44.93z"/>
			<circle class="st9" cx="93.25" cy="44.81" r="1.83"/>
			<g>
				<path class="st9" d="M64.95,104.23c13.23,5.07,27.23,9.07,40.11,14.81"/>
				<path class="st9" d="M49.32,98.46c4.34,1.6,8.68,3.2,13.02,4.81"/>
				<path class="st9" d="M54.21,135.26c12.98,5.04,25.98,9.04,38.6,14.25"/>
				<path class="st9" d="M37.07,128.93c4.06,1.5,8.12,3,12.18,4.5"/>
				<path class="st9" d="M71.59,153.34c5.71,2.11,11.43,4.22,17.14,6.33"/>
				<path class="st9" d="M32.99,139.09c11.2,3.21,21.2,8.21,32.28,11.92"/>
				<path class="st9" d="M55.95,159.23c8.9,3.28,17.8,6.57,26.69,9.85c0.67,0.25,1.33,0.49,2,0.74"/>
				<path class="st9" d="M28.9,149.24c7.07,2.61,14.14,5.22,21.21,7.83"/>
			</g>
			<circle class="st16" cx="86.13" cy="79.54" r="22.87"/>
			<circle class="st9" cx="85.77" cy="81.31" r="22.87"/>
		</g>
		<g>
			<g>
				<path class="st8" d="M75.4,93.03c-0.79-0.5-1.36-1.3-1.56-2.22l-3.5-15.65c-0.43-1.92,0.78-3.81,2.69-4.24
					c1.92-0.43,3.81,0.78,4.24,2.69l2.62,11.71l20.13-7.28c1.84-0.67,3.88,0.29,4.55,2.13c0.67,1.84-0.29,3.88-2.13,4.55
					l-23.92,8.66c-0.96,0.35-2.02,0.26-2.92-0.23C75.53,93.11,75.46,93.07,75.4,93.03z"/>
			</g>
			<g>
				<path class="st9" d="M75.59,91.77c-0.79-0.5-1.36-1.3-1.56-2.22l-3.5-15.65c-0.43-1.92,0.78-3.81,2.69-4.24
					c1.92-0.43,3.81,0.78,4.24,2.69l2.62,11.71l20.13-7.28c1.84-0.67,3.88,0.29,4.55,2.13c0.67,1.84-0.29,3.88-2.13,4.55L78.7,92.11
					c-0.96,0.35-2.02,0.26-2.92-0.23C75.72,91.85,75.65,91.81,75.59,91.77z"/>
			</g>
		</g>
	</g>
	<g class="st0">
		<g>
			<path class="st11" d="M1266.63,109.73l15.37,81.08c1.11,5.84-2.73,11.47-8.57,12.57l-113.79,21.57
				c-5.84,1.11-11.47-2.73-12.57-8.57l-15.37-81.08c-1.11-5.84,2.73-11.47,8.57-12.57l113.79-21.57
				C1259.9,100.06,1265.53,103.89,1266.63,109.73z"/>
			<path class="st9" d="M1267.42,106.96l15.37,81.08c1.11,5.84-2.73,11.47-8.57,12.57l-113.79,21.57
				c-5.84,1.11-11.47-2.73-12.57-8.57l-15.37-81.08c-1.11-5.84,2.73-11.47,8.57-12.57l113.79-21.57
				C1260.68,97.29,1266.31,101.13,1267.42,106.96z"/>
			
				<rect x="1164.3" y="103.78" transform="matrix(-0.1863 -0.9825 0.9825 -0.1863 1274.3356 1379.0797)" class="st17" width="87.93" height="116.07"/>
			
				<rect x="1162.55" y="101.49" transform="matrix(-0.1863 -0.9825 0.9825 -0.1863 1274.516 1374.6504)" class="st9" width="87.93" height="116.07"/>
		</g>
		<g>
			<path class="st7" d="M1246.84,114.41l-92.98,17.63c-1.24,0.24-2.06,1.43-1.82,2.68l10.32,54.45c0.24,1.24,1.43,2.06,2.68,1.82
				l92.98-17.63c1.24-0.24,2.06-1.43,1.82-2.68l-10.32-54.45C1249.28,114.99,1248.08,114.18,1246.84,114.41z M1219.31,152.27
				l-10.52,9.06l-10.52,9.06c-1.39,1.2-3.55,0.44-3.89-1.36l-2.59-13.64l-2.59-13.64c-0.34-1.8,1.4-3.3,3.13-2.69l13.11,4.58
				l13.11,4.58C1220.27,148.82,1220.7,151.07,1219.31,152.27z"/>
		</g>
		<line class="st9" x1="1165.99" y1="200.42" x2="1259.69" y2="182.66"/>
		<circle class="st17" cx="1195.49" cy="194.63" r="2.87"/>
		<circle class="st16" cx="1197.21" cy="194.31" r="2.87"/>
		<circle class="st9" cx="1196.32" cy="194.47" r="2.87"/>
	</g>
	<g class="st0">
		<g>
			<path class="st9" d="M1095.96,329.52c0.24-0.05,0.49-0.09,0.73-0.14c0,0,0,0,0,0L1095.96,329.52L1095.96,329.52z"/>
			<path class="st9" d="M1095.04,329.69c0.24-0.04,0.47-0.09,0.71-0.13c0.07-0.01,0.14-0.03,0.21-0.04l0,0L1095.04,329.69z"/>
			<path class="st8" d="M1087.27,328.84c-18.61-0.15-49.6,8.94-49.6,8.94l-0.05-2.24l-1.35-64.34c1.02-0.69,2.04-1.32,3.05-1.93
				l-5.66,0.54l-1.26,71.64l62.63-11.77C1092.88,329.12,1090.23,328.86,1087.27,328.84z"/>
			<path class="st8" d="M1148.42,317.76c0,0-33.85-3.71-51.73,11.62l56.07-10.55l-10.04-70.15l-3.54,1.06l8.72,64.28L1148.42,317.76
				z"/>
			<path class="st15" d="M1147.91,314.02l-8.72-64.28l-0.08-0.62c-15.89-1.71-47.9,14.29-49.03,15.35l5.89,65.05l0.74-0.14
				c17.87-15.33,51.73-11.62,51.73-11.62L1147.91,314.02z"/>
			<path class="st15" d="M1090.07,264.47c0,0-24.62-10.71-50.75,4.81c-1.02,0.6-2.03,1.24-3.05,1.93l1.35,64.34l0.05,2.24
				c0,0,30.98-9.09,49.6-8.94c2.96,0.02,5.61,0.29,7.77,0.85l0.92-0.17L1090.07,264.47z"/>
		</g>
		<g>
			<path class="st9" d="M1095.54,328.4c0.24-0.05,0.49-0.09,0.73-0.14c0,0,0,0,0,0L1095.54,328.4L1095.54,328.4z"/>
			<path class="st9" d="M1094.62,328.57c0.24-0.04,0.47-0.09,0.71-0.13c0.07-0.01,0.14-0.03,0.21-0.04l0,0L1094.62,328.57z"/>
			<path class="st9" d="M1086.85,327.72c-18.61-0.15-49.6,8.94-49.6,8.94l-0.05-2.24l-1.35-64.34c1.02-0.69,2.04-1.32,3.05-1.93
				l-5.66,0.54l-1.26,71.64l62.63-11.77C1092.46,328,1089.81,327.74,1086.85,327.72z"/>
			<path class="st9" d="M1148,316.64c0,0-33.85-3.71-51.73,11.62l56.07-10.55l-10.04-70.15l-3.54,1.06l8.72,64.28L1148,316.64z"/>
			<path class="st9" d="M1147.5,312.9l-8.72-64.28l-0.08-0.62c-15.89-1.71-47.9,14.29-49.03,15.35l5.89,65.05l0.74-0.14
				c17.87-15.33,51.73-11.62,51.73-11.62L1147.5,312.9z"/>
			<path class="st9" d="M1089.66,263.35c0,0-24.62-10.71-50.75,4.81c-1.02,0.6-2.03,1.24-3.05,1.93l1.35,64.34l0.05,2.24
				c0,0,30.98-9.09,49.6-8.94c2.96,0.02,5.61,0.29,7.77,0.85l0.92-0.17L1089.66,263.35z"/>
		</g>
		<g>
			<path class="st8" d="M1138.71,324.92l6.86-4.58c0.3-0.2,0.45-0.55,0.39-0.91c-0.06-0.37-0.34-0.67-0.71-0.76l-29.03-7.29
				c-0.34-0.09-0.69,0.02-0.92,0.28c-0.22,0.26-0.28,0.62-0.15,0.94l11.04,27.38c0.14,0.35,0.47,0.58,0.84,0.6
				c0.36,0.01,0.69-0.17,0.85-0.49l3.82-7.39l9.79,8.47c0.2,0.17,0.45,0.25,0.7,0.23c0.23-0.02,0.45-0.12,0.61-0.3l5.76-6.43
				c0.16-0.18,0.24-0.42,0.23-0.66c-0.02-0.25-0.14-0.49-0.33-0.65L1138.71,324.92z"/>
			<path class="st9" d="M1139.09,323.79l6.75-4.74c0.29-0.2,0.44-0.56,0.37-0.92c-0.07-0.37-0.36-0.66-0.73-0.75l-29.2-6.61
				c-0.34-0.08-0.69,0.04-0.91,0.3c-0.22,0.26-0.27,0.63-0.13,0.95l11.68,27.11c0.15,0.34,0.48,0.57,0.86,0.58
				c0.36,0.01,0.69-0.19,0.84-0.51l3.65-7.48l9.99,8.24c0.2,0.17,0.46,0.24,0.7,0.21c0.23-0.02,0.45-0.13,0.6-0.31l5.61-6.57
				c0.16-0.19,0.23-0.42,0.21-0.67c-0.02-0.25-0.15-0.48-0.34-0.65L1139.09,323.79z"/>
		</g>
	</g>
	<g class="st0">
		<g>
			<g>
				<path class="st6" d="M253.24,186.66c-0.6-1.4-16.31,0.42-16.31,0.42l-6.99,1.06l0.14,7.03l3.29,134.29l5.47,3.77
					c10.59,2.54,16.73-0.64,16.73-0.64S253.88,188.15,253.24,186.66z"/>
				<path class="st18" d="M233.37,329.46l-3.29-134.29l-0.56-22.92c0.21-1.27-26.05,0.64-27.75,0.64c-1.69,0-14.61,7.41-14.61,7.41
					l0.21,12.28l0.03,0.66c2.69-0.07,5.26-0.02,5.26-0.02l0.55,119.57l0.51,10.48c0,0,10.38,12.71,11.23,13.98
					c0.85,1.27,17.16,0.21,22.03,0.64c4.87,0.42,6.57-1.27,6.57-1.27L233.37,329.46z"/>
				<path class="st10" d="M193.21,312.8l-0.55-119.57c0,0-2.58-0.05-5.26,0.02c-2.76,0.08-5.64,0.29-5.96,0.82
					c-0.64,1.06,1.48,137.46,1.48,137.46s0.12,0.01,0.32,0.03c1.57,0.14,8.56,0.72,10.06-0.03L193.21,312.8z"/>
				<path class="st10" d="M150.92,171.96l0.49-6.99c0,0-17.52-4.87-22.97-2.38l-5.17,6.8l-21.53,153.98c0,0,0.37,8.59,3.46,9.43
					c3.09,0.83,20.29,3.31,21.56,1.77C127.28,333.93,149.94,172.9,150.92,171.96z"/>
				<path class="st6" d="M182.92,331.54c0,0-2.12-136.4-1.48-137.46l-0.21-19.06c0,0-1.06-0.85-2.54-1.06
					c-1.48-0.21-27.11-0.42-27.96,0.64c-0.85,1.06-2.33,153.56-2.33,153.56s0.22,0.23,0.57,0.59c1.32,1.36,4.67,4.62,6.85,5.12
					c2.75,0.64,25.21,1.48,26.05,0.64c0.35-0.35,0.88-1.59,1.38-2.94C183.04,331.55,182.92,331.54,182.92,331.54z"/>
			</g>
			<g>
				<path class="st19" d="M252.05,186.6c-0.6-1.4-16.31,0.42-16.31,0.42l-6.99,1.06l0.14,7.03l3.29,134.29l5.47,3.77
					c10.59,2.54,16.73-0.64,16.73-0.64S252.68,188.08,252.05,186.6z"/>
				<path class="st19" d="M232.17,329.4l-3.29-134.29l-0.56-22.92c0.21-1.27-26.05,0.64-27.75,0.64c-1.69,0-14.61,7.41-14.61,7.41
					l0.21,12.28l0.03,0.66c2.69-0.07,5.26-0.02,5.26-0.02l0.55,119.57l0.51,10.48c0,0,10.38,12.71,11.23,13.98
					c0.85,1.27,17.16,0.21,22.03,0.64c4.87,0.42,6.57-1.27,6.57-1.27L232.17,329.4z"/>
				<path class="st19" d="M192.02,312.73l-0.55-119.57c0,0-2.58-0.05-5.26,0.02c-2.76,0.08-5.64,0.29-5.96,0.82
					c-0.64,1.06,1.48,137.46,1.48,137.46s0.12,0.01,0.32,0.03c1.57,0.14,8.56,0.72,10.06-0.03L192.02,312.73z"/>
				<path class="st19" d="M149.74,171.73l0.49-6.99c0,0-17.52-4.87-22.97-2.38l-5.17,6.8l-21.53,153.98c0,0,0.37,8.59,3.46,9.43
					c3.09,0.83,20.29,3.31,21.56,1.77C126.11,333.71,148.77,172.67,149.74,171.73z"/>
				<path class="st19" d="M181.73,331.47c0,0-2.12-136.4-1.48-137.46l-0.21-19.06c0,0-1.06-0.85-2.54-1.06
					c-1.48-0.21-27.11-0.42-27.96,0.64c-0.85,1.06-2.33,153.56-2.33,153.56s0.22,0.23,0.57,0.59c1.32,1.36,4.67,4.62,6.85,5.12
					c2.75,0.64,25.21,1.48,26.05,0.64c0.35-0.35,0.88-1.59,1.38-2.94C181.84,331.48,181.73,331.47,181.73,331.47z"/>
				<line class="st19" x1="127.26" y1="162.37" x2="104.03" y2="332.57"/>
				<line class="st19" x1="153.87" y1="174.09" x2="154.61" y2="333.8"/>
				<line class="st19" x1="200.58" y1="172.83" x2="203.75" y2="337.19"/>
				<line class="st19" x1="235.74" y1="187.02" x2="237.64" y2="333.17"/>
				<line class="st19" x1="221.43" y1="329.18" x2="211.58" y2="329.18"/>
				<path class="st19" d="M250.75,297.02c0,0-9.41,0.66-10.5-0.22"/>
				<line class="st19" x1="251.4" y1="289.8" x2="239.15" y2="289.58"/>
				<line class="st19" x1="248.78" y1="216.73" x2="240.46" y2="216.95"/>
				<line class="st19" x1="249" y1="224.82" x2="239.37" y2="225.04"/>
				<line class="st19" x1="246.15" y1="231.61" x2="243.53" y2="231.61"/>
				<line class="st19" x1="248.78" y1="239.48" x2="240.68" y2="239.7"/>
				<line class="st19" x1="249.21" y1="247.58" x2="239.81" y2="248.23"/>
				<line class="st19" x1="126.79" y1="191.3" x2="142.8" y2="193.41"/>
				<line class="st19" x1="127.35" y1="196.14" x2="139.45" y2="197.73"/>
			</g>
		</g>
		<g>
			<g>
				<path class="st11" d="M192.52,351.8c-1.44-4.13-2.06-3.51-6.6-10.94s-10.52-21.87-10.52-21.87l-6.94-18.3
					c-0.32-0.85-0.39-1.77-0.2-2.66l1.13-5.2c0.23-1.06,0.14-2.16-0.27-3.16l-1.57-3.89c-0.66-1.65,0.74-3.41,2.48-3.09
					c0.25,0.05,0.52,0.12,0.8,0.23c2.82,1.09,8.66,6.47,8.93,13.58l4.92,7.93c0,0,3.92-14.85,3.74-27.52
					c-0.18-12.67,0.09-21.51,0.82-25.7c0.73-4.19,1.35-7.63,5.92-7.84c5.02-0.23,4.1,11.85,4.1,11.85s0.36,11.66,1,15.67
					c0.64,4.01,0.18,16.49,0.18,16.49l2.1,1.28l0.18-3.83c0,0-0.27-0.36-0.18-2.92c0.09-2.55,0.27-9.48,3.55-11.75
					c3.28-2.28,4.65-1.91,4.65-1.91s5.19,0.36,5.65,4.01c0.46,3.64-0.36,10.02-0.36,10.02s2.29-5.2,4.58-5.2
					c2.29,0,6.23-0.32,6.87,3.87c0.63,4.18-1.03,11.29-1.03,11.29s5.29-3.31,7.42,1.5c0,0,1.26,0.63,1.26,7.73
					c0,7.1,0.24,12.23-2.6,17.84c-2.66,5.25-0.75,9.95-4.27,17.93c-0.52,1.17-0.73,2.46-0.65,3.74l0.89,14.08
					c0,0,0.47,9.79,2.76,15.63c2.29,5.84,7.81,30.19,7.81,30.19l-35.26,8.97C203.82,409.84,197.39,365.74,192.52,351.8z"/>
			</g>
			<g>
				<path class="st19" d="M191.74,351.61c-1.44-4.13-2.06-3.51-6.6-10.94c-4.54-7.43-10.52-21.87-10.52-21.87l-6.94-18.3
					c-0.32-0.85-0.39-1.77-0.2-2.66l1.13-5.2c0.23-1.06,0.14-2.16-0.27-3.16l-1.57-3.89c-0.66-1.65,0.74-3.41,2.48-3.09
					c0.25,0.05,0.52,0.12,0.8,0.23c2.82,1.09,8.66,6.47,8.93,13.58l4.92,7.93c0,0,3.92-14.85,3.74-27.52s0.09-21.51,0.82-25.7
					c0.73-4.19,1.35-7.63,5.92-7.84c5.02-0.23,4.1,11.85,4.1,11.85s0.36,11.66,1,15.67c0.64,4.01,0.18,16.49,0.18,16.49l2.1,1.28
					l0.18-3.83c0,0-0.27-0.36-0.18-2.92s0.27-9.48,3.55-11.75s4.65-1.91,4.65-1.91s5.19,0.36,5.65,4.01
					c0.46,3.64-0.36,10.02-0.36,10.02s2.29-5.2,4.58-5.2s6.23-0.32,6.87,3.87c0.63,4.18-1.03,11.29-1.03,11.29s5.29-3.31,7.42,1.5
					c0,0,1.26,0.63,1.26,7.73s0.24,12.23-2.6,17.84c-2.66,5.25-0.75,9.95-4.27,17.93c-0.52,1.17-0.73,2.46-0.65,3.74l0.89,14.08
					c0,0,0.47,9.79,2.76,15.63c2.29,5.84,7.81,30.19,7.81,30.19l-35.26,8.97C203.05,409.65,196.62,365.54,191.74,351.61z"/>
				<path class="st19" d="M183.92,304.24c0,0-1.33,2.09-1.77,6.79s-0.57,6.8-0.57,6.8"/>
				<path class="st19" d="M201.78,288.47c0,0,0.25,2.86-1.65,2.36l-0.44-3.63"/>
				<line class="st19" x1="201.96" y1="284.64" x2="203.17" y2="275.9"/>
				<path class="st19" d="M215.43,281.81l-0.82,8.58c-0.04,0.42,0.82,1.78,0.82,1.78"/>
				<path class="st19" d="M225.68,292.05c0,0-1.54,9.01,0.04,9.39"/>
				<path class="st19" d="M168.59,290.2c0,0,1.92-1.23,0.5-6.03c0,0-2.01-0.59-2.37,0.68"/>
				<path class="st19" d="M197.14,244.86c0,0-3.7-2.51-5.65,1.04c0,0-0.81,5.41,1.19,5.88c1.99,0.47,3.84-0.09,3.84-0.09
					S197.71,249.17,197.14,244.86z"/>
			</g>
		</g>
	</g>
	<g class="st0">
		<g>
			<path class="st14" d="M24.54,270.09l-1.19-15.03L33.72,266L90.7,393.88c1.13,2.54-0.01,5.51-2.55,6.64h0
				c-2.54,1.13-5.51-0.01-6.64-2.55L24.54,270.09z"/>
			<path class="st9" d="M25.51,269.79l-1.19-15.03L34.7,265.7l56.98,127.88c1.13,2.54-0.01,5.51-2.55,6.64h0
				c-2.54,1.13-5.51-0.01-6.64-2.55L25.51,269.79z"/>
		</g>
		<line class="st9" x1="34.7" y1="265.7" x2="25.51" y2="269.79"/>
		<line class="st9" x1="28.3" y1="268.45" x2="88.16" y2="400.52"/>
		<line class="st9" x1="31.24" y1="266.82" x2="90.94" y2="398.88"/>
	</g>
	<g class="st0">
		<g>
			<path class="st14" d="M1165.07,88.04l-14.94,2.01l10.35-10.96l124.55-63.92c2.47-1.27,5.5-0.29,6.77,2.18v0
				c1.27,2.47,0.29,5.5-2.18,6.77L1165.07,88.04z"/>
			<path class="st9" d="M1164.72,87.08l-14.94,2.01l10.35-10.96l124.55-63.92c2.47-1.27,5.5-0.29,6.77,2.18v0
				c1.27,2.47,0.29,5.5-2.18,6.77L1164.72,87.08z"/>
		</g>
		<path class="st9" d="M1164.92,87.31c0,0,2.9-5.28-4.59-8.95"/>
	</g>
</g>
</svg>
