<?xml version="1.0" encoding="utf-8"?>
<!-- Generator: Adobe Illustrator 23.0.6, SVG Export Plug-In . SVG Version: 6.00 Build 0)  -->
<svg version="1.1" id="Layer_1" xmlns="http://www.w3.org/2000/svg" xmlns:xlink="http://www.w3.org/1999/xlink" x="0px" y="0px"
	 viewBox="0 0 1280 584" style="enable-background:new 0 0 1280 584;" xml:space="preserve">
<style type="text/css">
	.st0{clip-path:url(#SVGID_2_);}
	.st1{fill:#245486;}
	.st2{fill:none;stroke:#3280AC;stroke-width:1.1704;stroke-miterlimit:10;}
	.st3{fill:#78AAC1;}
	.st4{fill:#43789C;}
	.st5{fill:#488FBA;}
	.st6{fill:none;stroke:#1F3B65;stroke-width:1.1704;stroke-miterlimit:10;}
	.st7{fill:#1F3B65;}
	.st8{fill:#1F3B65;stroke:#1F3B65;stroke-width:1.1704;stroke-miterlimit:10;}
	.st9{fill:#3280AC;}
	.st10{fill:none;stroke:#43789C;stroke-width:1.1339;stroke-miterlimit:10;stroke-dasharray:14.9929;}
	.st11{fill:none;stroke:#3280AC;stroke-width:1.1339;stroke-miterlimit:10;}
	.st12{opacity:0.1;fill:none;stroke:#3280AC;stroke-width:1.1339;stroke-miterlimit:10;}
	.st13{fill:#376E9F;}
	.st14{fill:none;stroke:#1F3B65;stroke-width:1.1638;stroke-miterlimit:10;}
	.st15{fill:none;stroke:#1F3B65;stroke-width:1.5139;stroke-miterlimit:10;}
	.st16{fill:#1E4873;}
	.st17{fill:#31637F;}
	.st18{fill:none;stroke:#1F3B65;stroke-width:1.2559;stroke-miterlimit:10;}
	.st19{fill:#1F3B65;stroke:#1F3B65;stroke-width:1.2559;stroke-miterlimit:10;}
	.st20{fill:none;}
	.st21{fill-rule:evenodd;clip-rule:evenodd;fill:#3280AC;}
	.st22{fill-rule:evenodd;clip-rule:evenodd;fill:none;stroke:#3280AC;stroke-width:1.1704;stroke-miterlimit:10;}
	.st23{fill-rule:evenodd;clip-rule:evenodd;fill:#488FBA;stroke:#3280AC;stroke-width:1.1704;stroke-miterlimit:10;}
	.st24{fill:#2F759D;}
	.st25{fill:#235485;}
	.st26{fill:#67A0BA;}
	.st27{fill:#187497;}
	.st28{fill:#1F3B65;stroke:#1F3B65;stroke-width:2.1431;stroke-miterlimit:10;}
	.st29{fill:none;stroke:#1F3B65;stroke-width:1.3073;stroke-miterlimit:10;}
	.st30{fill:#73ABC4;}
	.st31{fill:#6191A6;}
	.st32{fill:none;stroke:#1F3B65;stroke-width:1.2425;stroke-miterlimit:10;}
	.st33{fill:none;stroke:#1F3B65;stroke-width:1.287;stroke-miterlimit:10;}
	.st34{fill:#1F3B65;stroke:#1F3B65;stroke-width:1.287;stroke-miterlimit:10;}
</style>
<g>
	<defs>
		<rect id="SVGID_1_" x="-3.6" y="0.13" width="1283.08" height="584.89"/>
	</defs>
	<clipPath id="SVGID_2_">
		<use xlink:href="#SVGID_1_"  style="overflow:visible;"/>
	</clipPath>
	<g class="st0">
		<rect x="-3.6" y="0.13" class="st1" width="1283.08" height="584.89"/>
	</g>
	<g class="st0">
		<path class="st2" d="M931.14,84.51c0-22.42,18.17-40.59,40.59-40.59h63.41"/>
		<g>
			<path class="st3" d="M158.12,450.3c0,0-0.35-3.41-1.51-4.11c-0.19-0.11-0.39-0.16-0.62-0.11c0,0-7.4,2.63-8.21,2.32
				c-0.96-0.37-1.86-0.65-2.73-0.87c0.38,5.42-1.1,12.6-9.26,18.2c0.14,0.16,0.28,0.31,0.43,0.47c0,0-1.09,3.03,0.88,4.11
				c0.03,0.01,0.05,0.03,0.08,0.04c0.09,0.04,0.19,0.08,0.3,0.12c0.07,0.02,0.13,0.05,0.2,0.07c0.17,0.05,0.35,0.09,0.56,0.11
				c0.85,0.1,1.94-0.03,3.36-0.53c0,0-1.6,2.33,0.79,4.23l-0.06,0.15l-0.37,0.88l-1.53,3.61c0,0,0.5,0.22,1.4,0.48
				c2.32,0.65,10.71,0.87,17.51-1.18l0.96-7.42c1.01-1.41,4.77-8.06,4.93-13.03C165.33,454.1,159.84,452.36,158.12,450.3z"/>
			<path class="st4" d="M170.16,428.49l-11.46,16.87c1.16,0.7,1.51,4.11,1.51,4.11c1.72,2.06,7.21,3.8,7.09,7.53
				c-0.16,4.97-3.92,11.62-4.93,13.03l-0.96,7.42c-6.79,2.06-15.19,1.84-17.51,1.18l-0.05,0.15c7.01,2.2,17.56-1.33,17.56-1.33
				l4.43-5.46c1.67-5.01,7.49-42.63,7.49-42.63L170.16,428.49z"/>
			<path class="st3" d="M192.78,427.84c0,0,0.7-1.48,6.1-2.78s3.66,1.42,3.66,1.42l-1.59,1.14c0,0,17.99-7.14,26.7-3.66l-27.9,9.59
				L192.78,427.84z"/>
			<path class="st3" d="M159.46,426.39l13.95,3.05l3.33-3.51c0,0,6.63-5.14,1.08-5.05c-1.57,0.03-3.39,2.49-3.39,2.49l-2.89,0.32
				c0,0-1.27,0.09-7.38-0.1c-3.53-0.11-6.79-1.94-8.71-4.9l-0.81-1.24c-0.37-0.57-1.25-0.2-1.1,0.46l0.72,3.28
				C154.83,423.79,156.86,425.82,159.46,426.39z"/>
			<path class="st4" d="M199.76,433.55l-6.98-5.71l-15.24,29.73l-18.48,19.87c0,0-10.54,3.53-17.56,1.33
				c-1.12-0.35-2.15-0.84-3.04-1.53c0,0-26.47,1-33.8,55.37c-0.88,6.53-2.64,11.36-4.38,19.18c0,0,79.17,33.24,80.1,15.68
				c0.13-2.4-8.86-27.15,0.87-51.12C189.04,497.17,199.76,433.55,199.76,433.55z"/>
			<path class="st4" d="M149.34,434.54c-3.23-8.1-15.69-0.8-15.69-0.8l-0.46,2.38c0,0-13.58,2.77-12.58,9.47
				c0,0-11.57,1.02-13.48,13.1c0,0-0.12,18.99,11.94,20c7.83,0.66,10.09-6.11,10.09-6.11s9.14,5.54,12.5,1.97l0.37-0.88l0.06-0.15
				c-2.39-1.9-0.79-4.23-0.79-4.23c-1.42,0.5-2.51,0.63-3.36,0.53c-0.2-0.02-0.38-0.06-0.56-0.11c-0.07-0.02-0.13-0.05-0.2-0.07
				c-0.1-0.04-0.2-0.07-0.3-0.12c-0.03-0.01-0.05-0.03-0.08-0.04c-0.14-0.07-0.26-0.17-0.38-0.27c-1.44-1.24-0.5-3.85-0.5-3.85
				c-0.15-0.15-0.29-0.31-0.43-0.47c8.15-5.59,9.63-12.78,9.26-18.2c-0.01-0.18-0.02-0.35-0.04-0.53
				C147.8,445.09,151.92,441,149.34,434.54z"/>
			<g>
				<path class="st5" d="M179.6,627.93l-7.17-54.92c-9.67,0.23-42.05-6.19-56.55-12.87c-1.73-0.8-3.34-1.56-4.8-2.26
					c-0.75-0.36-4.73-2.71-5.38-3.04c0,0-10.61,15.71-11.96,24.31c-1.44,9.11,8.81,48.97,8.81,48.97l-44.68,54.12l12.02,3.29
					c0,0,47.48-23.19,54.59-42.75c7.29-20.05,1.72-21.05,7.6-36.48c3.63,8.53,27.33,32.27,17.98,43.23
					c-17.29,20.27-20.09,44.54-20.09,44.54l12.17-1.73l34.02-46.13C180.04,640.96,181.3,634.23,179.6,627.93z"/>
			</g>
			<path class="st6" d="M158.34,460.2c0,0,2.19-1,2.03-3.55"/>
			
				<ellipse transform="matrix(0.2837 -0.9589 0.9589 0.2837 -324.1875 465.968)" class="st7" cx="149.82" cy="449.99" rx="0.7" ry="0.88"/>
			<path class="st6" d="M139.48,466.06c0,0,2.13,2.94,4.39,0.4"/>
			<path class="st6" d="M149.35,439.98c0,0,0.17,4.54-2.23,5.45c0,0-0.35-2.5-1.59-7.41"/>
			<path class="st6" d="M145.26,446.77c-0.33,0.6,1.02,19.92-18.76,17.89"/>
			<path class="st6" d="M202.1,433.55l-6.98-5.71l-15.24,29.73l-18.48,19.87c0,0-10.54,3.53-17.56,1.33
				c-1.12-0.35-2.15-0.84-3.04-1.53c0,0-26.47,1-33.8,55.37c-0.88,6.53-2.64,11.36-4.38,19.18c0,0,79.17,33.24,80.1,15.68
				c0.13-2.4-8.86-27.15,0.87-51.12C191.38,497.17,202.1,433.55,202.1,433.55z"/>
			<path class="st6" d="M195.12,427.84c0,0,0.7-1.48,6.1-2.78s3.66,1.42,3.66,1.42l-1.59,1.14c0,0,17.99-7.14,26.7-3.66l-27.9,9.59
				L195.12,427.84z"/>
			<path class="st6" d="M161.8,426.39l13.95,3.05l3.33-3.51c0,0,6.63-5.14,1.08-5.05c-1.57,0.03-3.39,2.49-3.39,2.49l-2.89,0.32
				c0,0-1.27,0.09-7.38-0.1c-3.53-0.11-6.79-1.94-8.71-4.9l-0.81-1.24c-0.37-0.57-1.25-0.2-1.1,0.46l0.72,3.28
				C157.17,423.79,159.2,425.82,161.8,426.39z"/>
			<g>
				<path class="st6" d="M181.94,627.93l-7.17-54.92c-9.67,0.23-42.05-6.19-56.55-12.87c-1.73-0.8-3.34-1.56-4.8-2.26
					c-0.75-0.36-7.15-3.59-7.81-3.91c0,0-8.18,16.58-9.54,25.18c-1.44,9.11,8.81,48.97,8.81,48.97l-44.68,54.12l12.02,3.29
					c0,0,47.48-23.19,54.59-42.75c7.29-20.05,1.72-21.05,7.6-36.48c3.63,8.53,27.33,32.27,17.98,43.23
					c-17.29,20.27-20.09,44.54-20.09,44.54l12.17-1.73l34.02-46.13C182.38,640.96,183.64,634.23,181.94,627.93z"/>
			</g>
			<path class="st8" d="M175.52,572.46l0.28,4.28c0,0-2.3-0.02-3.25,0.78c-4.37,3.66-32.65,1.56-60.02-14.53l-9.02-5.12l2.1-3.9
				C105.61,553.97,158.39,572.07,175.52,572.46z"/>
			<path class="st6" d="M170.16,428.49l-11.46,16.87c1.16,0.7,1.51,4.11,1.51,4.11c1.72,2.06,7.21,3.8,7.09,7.53
				c-0.16,4.97-3.92,11.62-4.93,13.03l-0.96,7.42c-6.79,2.06-15.19,1.84-17.51,1.18l-0.05,0.15c7.01,2.2,17.56-1.33,17.56-1.33
				l7.26-8.03c1.67-5.01,7.09-39.97,7.09-39.97L170.16,428.49z"/>
			<path class="st6" d="M139.76,469.7c0.17,0.05,0.36,0.09,0.56,0.11C140.11,469.79,139.93,469.75,139.76,469.7z"/>
			<path class="st6" d="M139.26,469.52c0.09,0.04,0.19,0.08,0.3,0.12C139.46,469.6,139.35,469.56,139.26,469.52z"/>
			<path class="st6" d="M160.21,449.46c0,0-0.35-3.41-1.51-4.11c-0.19-0.11-0.39-0.16-0.62-0.11c0,0-7.4,2.63-8.21,2.32
				c-0.96-0.37-1.86-0.65-2.73-0.87c0.38,5.42-1.1,12.6-9.26,18.2c0.14,0.16,0.28,0.31,0.43,0.47c0,0-1.09,3.03,0.88,4.11
				c0.03,0.01,0.05,0.03,0.08,0.04c0.09,0.04,0.19,0.08,0.3,0.12c0.07,0.02,0.13,0.05,0.2,0.07c0.17,0.05,0.35,0.09,0.56,0.11
				c0.85,0.1,1.94-0.03,3.36-0.53c0,0-1.6,2.33,0.79,4.23l-0.06,0.15l-0.37,0.88l-1.53,3.61c0,0,0.5,0.22,1.4,0.48
				c2.32,0.65,10.71,0.87,17.51-1.18l0.96-7.42c1.01-1.41,4.77-8.06,4.93-13.03C167.41,453.26,161.93,451.53,160.21,449.46z"/>
			<path class="st6" d="M139.18,469.47c0.03,0.01,0.05,0.03,0.08,0.04C139.23,469.5,139.21,469.48,139.18,469.47z"/>
			<path class="st6" d="M139.56,469.63c0.07,0.02,0.13,0.05,0.2,0.07C139.69,469.68,139.63,469.66,139.56,469.63z"/>
			<path class="st6" d="M151.69,434.54c-3.23-8.1-15.69-0.8-15.69-0.8l-0.46,2.38c0,0-14.16,4.76-13.16,11.45
				c0,0-10.99-0.97-12.9,11.12c0,0-0.12,18.99,11.94,20c7.83,0.66,10.09-6.11,10.09-6.11s9.14,5.54,12.5,1.97l0.37-0.88l0.06-0.15
				c-2.39-1.9-0.79-4.23-0.79-4.23c-1.42,0.5-2.51,0.63-3.36,0.53c-0.2-0.02-0.38-0.06-0.56-0.11c-0.07-0.02-0.13-0.05-0.2-0.07
				c-0.1-0.04-0.2-0.07-0.3-0.12c-0.03-0.01-0.05-0.03-0.08-0.04c-0.14-0.07-0.26-0.17-0.38-0.27c-1.44-1.24-0.5-3.85-0.5-3.85
				c-0.15-0.15-0.29-0.31-0.43-0.47c8.15-5.59,9.63-12.78,9.26-18.2c-0.01-0.18-0.02-0.35-0.04-0.53
				C150.14,445.09,154.26,441,151.69,434.54z"/>
		</g>
		<path class="st9" d="M213.41,253.56c0.33,0.01,0.64,0.09,0.69,0.46c0.03,0.27-0.24,0.41-0.44,0.33c-0.27-0.11-0.6-0.29-0.7-0.53
			C212.86,253.58,213.22,253.6,213.41,253.56z"/>
		<path class="st9" d="M591.35,525.67c-0.33-0.06-0.58-0.29-0.59-0.63c-0.01-0.65,0.47-0.76,0.99-0.73c0.4,0.02,0.56,0.29,0.45,0.65
			C592.09,525.34,591.87,525.68,591.35,525.67z"/>
		<line class="st2" x1="630.9" y1="429.61" x2="429.54" y2="429.61"/>
		<line class="st2" x1="630.9" y1="446.8" x2="417.99" y2="446.8"/>
		<g>
			<rect x="990.65" y="59.4" class="st2" width="17.3" height="533.46"/>
			<polygon class="st9" points="998.86,61.76 1001.14,65.71 1003.42,69.66 998.86,69.66 994.29,69.66 996.57,65.71 			"/>
			<polygon class="st9" points="999.07,587.35 996.79,583.4 994.51,579.45 999.07,579.45 1003.64,579.45 1001.35,583.4 			"/>
		</g>
		<path class="st2" d="M620.48,411.43c-5.2,9.01-18.22,9.01-23.42,0l-9.81-16.99c-5.2-9.01-18.22-9.01-23.42,0l-9.81,16.99
			c-5.2,9.01-18.22,9.01-23.42,0l-9.81-16.99c-5.2-9.01-18.22-9.01-23.42,0l-9.81,16.99c-5.2,9.01-18.22,9.01-23.42,0l-9.81-16.99
			c-5.2-9.01-18.22-9.01-23.42,0l-9.81,16.99"/>
		<path class="st2" d="M1208.92,207.59h-160.05c-7.82,0-14.16-6.34-14.16-14.16V33.37c0-7.82,6.34-14.16,14.16-14.16h160.05
			c7.82,0,14.16,6.34,14.16,14.16v160.05C1223.08,201.25,1216.74,207.59,1208.92,207.59z"/>
		<line class="st2" x1="1063.17" y1="47.2" x2="1201.27" y2="185.29"/>
		<path class="st2" d="M1067.42,181.04c11.33-12.75,129.6-129.6,129.6-129.6"/>
		<circle class="st2" cx="1132.22" cy="116.24" r="50.82"/>
		<circle class="st9" cx="954.32" cy="522.99" r="16.82"/>
		<circle class="st9" cx="767.93" cy="552.79" r="16.82"/>
		<circle class="st9" cx="720.79" cy="553.77" r="16.82"/>
		<circle class="st9" cx="505.56" cy="558.56" r="16.82"/>
		<path class="st2" d="M947.75,522.99H471.5c-12.3,0-22.83-7.55-27.23-18.26"/>
		<line class="st2" x1="765.63" y1="544.45" x2="746.57" y2="521.64"/>
		<line class="st2" x1="721.56" y1="546.32" x2="702.49" y2="523.52"/>
		<circle class="st9" cx="640.45" cy="553.77" r="16.82"/>
		<polyline class="st2" points="633.89,552.83 587,552.83 587,523.55 		"/>
		<path class="st2" d="M1215.89,424.99h-171.64c-4.53,0-8.21-3.67-8.21-8.21V307.17c0-4.53,3.67-8.21,8.21-8.21h171.64
			c4.53,0,8.21,3.67,8.21,8.21v109.62C1224.1,421.32,1220.42,424.99,1215.89,424.99z"/>
		<g>
			<circle class="st9" cx="216.12" cy="45.34" r="4.29"/>
			<path class="st9" d="M265.12,48.02H229.9c-1.99,0-3.6-1.61-3.6-3.6v0c0-1.99,1.61-3.6,3.6-3.6h35.22c1.99,0,3.6,1.61,3.6,3.6v0
				C268.72,46.4,267.11,48.02,265.12,48.02z"/>
		</g>
		<circle class="st10" cx="233.62" cy="130.25" r="43.59"/>
		<g>
			<rect x="186.68" y="249.47" class="st4" width="96.35" height="3.6"/>
		</g>
		<g>
			<rect x="186.68" y="262.88" class="st4" width="102.98" height="3.92"/>
		</g>
		<g>
			<rect x="186.68" y="276.44" class="st4" width="102.98" height="3.92"/>
		</g>
		<g>
			<rect x="186.68" y="230" class="st4" width="42.85" height="9.33"/>
		</g>
		<path class="st9" d="M232.65,384.75c0.9,0.36,2.28-0.23,2.39,1.33c0.07,0.99-0.92,1.68-2.14,1.57c-1.1-0.1-1.87-0.82-1.77-1.74
			C231.24,384.99,231.8,384.62,232.65,384.75z"/>
		<path class="st9" d="M227.82,378.95c0.01,0.94-0.86,1.88-1.76,1.85c-1.09-0.04-1.37-0.86-1.42-1.74c-0.06-1.02,0.76-1.87,1.68-1.8
			C227.38,377.33,227.69,378.09,227.82,378.95z"/>
		<circle class="st11" cx="223.38" cy="134.15" r="43.59"/>
		<g>
			<path class="st11" d="M224.51,131.88c5.05-2.12,8.65-7.33,8.68-13.47c0.03-8.04-6.05-14.59-13.6-14.63
				c-7.54-0.03-13.68,6.46-13.71,14.5c-0.03,6.2,3.59,11.47,8.7,13.6c-21.01,3.17-20.06,26-20.06,26l49.69,0.23
				C244.21,158.11,245.34,135.03,224.51,131.88z"/>
			<path class="st12" d="M224.51,131.88c5.05-2.12,8.65-7.33,8.68-13.47c0.03-8.04-6.05-14.59-13.6-14.63
				c-7.54-0.03-13.68,6.46-13.71,14.5c-0.03,6.2,3.59,11.47,8.7,13.6c-21.01,3.17-20.06,26-20.06,26l49.69,0.23
				C244.21,158.11,245.34,135.03,224.51,131.88z"/>
		</g>
		<g>
			<g>
				<path class="st13" d="M1083.54,287.95c0,0-0.91-1.66-7.19-2.79s-4.11,1.88-4.11,1.88l1.9,1.2c0,0-21.14-7.01-30.92-2.43
					l32.68,9.16L1083.54,287.95z"/>
				<path class="st4" d="M1109.5,287.04c0,0-8.25-2.14-13.74-1.83s-13.13,0.14-13.13,0.14l4.89,4.74l3.99,0.15L1109.5,287.04z"/>
				<path class="st5" d="M1125.55,461.48c7.73,5.82,33.12-6.03,49.34-14.67c1.93-1.03,3.74-2.01,5.36-2.92
					c0.83-0.46,1.62-0.9,2.35-1.32l64.58,194.28l-7.93,11.28c0,0-32.08-35.1-41.55-57.09c-5.65-13.13-24.62-72.46-32.93-90.95
					c-12.39,34.55-25.76,150.76-25.76,150.76l-14.04,2.58L1125.55,461.48z"/>
				<g>
					<path class="st4" d="M1124.39,342.69l-19.27-25.1c-2.25-5.65-12.07-28.72-12.07-28.72l18.02-1.83l23.21,30.24l10.36,25.78
						C1136.74,346.04,1124.39,342.69,1124.39,342.69z"/>
					<path class="st4" d="M1072.39,293.81l7.64-7.02l22.76,29.64l19.27,25.1c0,0,12.35,3.35,20.25,0.36
						c1.26-0.48,2.42-1.11,3.39-1.95c0,0,36.79,36.62,40.93,98.96c0,0-63.43,38.43-65.67,18.33c-0.31-2.75-8.29-42.07-9.77-69.64
						C1109.9,363.77,1072.39,293.81,1072.39,293.81z"/>
					<path class="st6" d="M1120.88,341.52l-19.27-25.1c-2.25-5.65-12.07-28.72-12.07-28.72l18.02-1.83l23.21,30.24l10.36,25.78
						C1133.23,344.87,1120.88,341.52,1120.88,341.52z"/>
					<path class="st5" d="M1141.64,303.08l-16.73,0.18c0,0-3.92-2.2-3.63,6.06c0,0-11.82,12.4-5.89,20.6
						c1.37,1.89,3.22,1.93,6.78,3.39l-1.29,8.21l21.82-0.51l6.19-7.81c0,0,5.19-15.59,5.06-16.37
						C1153.81,316.06,1141.64,303.08,1141.64,303.08z"/>
					<path class="st13" d="M1143.02,303.84l-16.73,0.18c0,0-3.92-2.2-3.63,6.06c0,0-17.21,16.19,1.78,24.01l-2.85,8.07
						c0,0,10.89,1.15,14.26,0.97c1.91-0.1,6.85-2.13,6.85-2.13l4.55-7.81c0,0,8.21-14.82,8.07-15.6S1143.02,303.84,1143.02,303.84z"
						/>
					<path class="st14" d="M1123.25,321.5c0,0-2.58-1-2.57-3.95"/>
					
						<ellipse transform="matrix(0.9409 -0.3387 0.3387 0.9409 -37.7796 401.8731)" class="st7" cx="1132.53" cy="309.18" rx="1.01" ry="0.81"/>
					<path class="st14" d="M1143.78,334.47l-1.08,6.54c0,0-7.88,4.65-21.82,0.51l1.29-8.21c-3.12-1.43-6.48-1.84-7.58-4.88
						c-1.99-5.52,1.51-13.34,5.8-19.14c0,0,0.23-5.31,2.17-4.98c0,0,9.2-0.05,10.12-0.46c9.88-4.48,15.49,0.99,18.18,8.47
						c1.57,4.36,0.16,9.24-3.31,13.29"/>
					<path class="st15" d="M1145.42,328.07c0,0-1.71,3.89-4.48,1.13"/>
					<path class="st16" d="M1135.15,303.79c0,0-0.96,22.08,13,22.31c0,0,1.8,6.77-6.19,6.83c-8,0.07,6.3,11.93,13.14,8.17l2.84-1.41
						c1.47-0.73,2.68-1.9,3.47-3.34l0.89-1.64c0,0,7.8-4.14,7.09-5.25c-0.71-1.11,2.05-2.82,2.33-7.07s-2.26-4.85-2.26-4.85
						s-10.27-6.78-10.17-7.92c0.11-1.15-3.68-4.71-3.68-4.71s0.28-4.84-1.73-7.62c-4.16-5.75-13.3-9.76-21.2,6.56L1135.15,303.79z"
						/>
					<path class="st15" d="M1130.39,298.97c0,0,0.79,6.74,4.76,4.82c0,0-2.17-3.67-1.08-9.39"/>
					<path class="st15" d="M1137.42,300.87c0.84-3.3,8.85-10.25,15.21-2.6c1.07,1.28,0.42,3.75,1.46,5.89"/>
					<path class="st15" d="M1136.51,306.19c0.42,0.66,0.15,22.95,22.73,19.3"/>
					<path class="st15" d="M1141.03,312.71c0.6,0.26,10.14,11.61,17.22,8.53"/>
					<path class="st15" d="M1152.32,329.84c-0.53,1.2-5.4,7.4-10.94,5.91"/>
					<path class="st15" d="M1150.68,310.28c0,0,11.47-1.15,17.3,6.18"/>
					<path class="st15" d="M1154.71,332.55c1.49,0.42,11.93,3.08,14.68-3.09"/>
					<path class="st6" d="M1071.22,293.81l7.64-7.02l22.76,29.64l19.27,25.1c0,0,12.35,3.35,20.25,0.36
						c1.26-0.48,2.42-1.11,3.39-1.95c0,0,36.79,36.62,40.93,98.96c0,0-63.43,38.43-65.67,18.33c-0.31-2.75-8.29-42.07-9.77-69.64
						C1108.73,363.77,1071.22,293.81,1071.22,293.81z"/>
				</g>
				<path class="st6" d="M1078.86,286.78c0,0-0.91-1.66-7.19-2.79s-4.11,1.88-4.11,1.88l1.9,1.2c0,0-21.14-7.01-30.92-2.43
					l32.68,9.16L1078.86,286.78z"/>
				<path class="st6" d="M1104.82,285.87c0,0-8.25-2.14-13.74-1.83s-13.13,0.14-13.13,0.14l4.89,4.74l3.99,0.15L1104.82,285.87z"/>
				<g>
					<path class="st6" d="M1177.36,444.55c-0.22,0.16-0.62-0.65-0.62-0.65c0.83-0.46,1.62-0.9,2.35-1.32l64.58,194.28l-7.93,11.28
						c0,0-32.08-35.1-41.55-57.09c-5.65-13.13-24.62-72.46-32.93-90.95c1.4-3.91,2.75-7.08,4.03-9.29
						C1177.81,469.12,1177.36,444.55,1177.36,444.55z"/>
					<path class="st6" d="M1122.03,461.48c7.73,5.82,33.12-6.03,49.34-14.67c1.93-1.03,3.74-2.01,5.36-2.92c0,0,0.4,0.81,0.62,0.65
						c0,0,0.45,24.57-12.07,46.26c-1.27,2.2-2.62,5.38-4.03,9.29c-12.39,34.55-25.76,150.76-25.76,150.76l-14.04,2.58
						L1122.03,461.48z"/>
				</g>
			</g>
			<path class="st7" d="M1102.85,360.09l24.72,42.93c0,0-8.11-10.31-15.11-19.32C1110.2,380.82,1102.85,360.09,1102.85,360.09z"/>
			<path class="st7" d="M1089.03,286.93l12.07,28.72l19.27,25.1l1.29-8.21c0,0-6.7-1.21-7.58-4.88c-0.88-3.67,0.92-10.44,0.92-10.44
				l-23.49-30.26L1089.03,286.93z"/>
			<path class="st7" d="M1160.75,499.32l12.21,26.71l4.15-71.74c0,0-6.74,22.93-12.34,35.74
				C1162.91,494.3,1162.51,499.06,1160.75,499.32z"/>
			<path class="st7" d="M1121.52,460.71c0,0,11.42,25.68,55.59-13.59l3.78-1.89l-2.31-3.43
				C1178.57,441.8,1140.87,464.48,1121.52,460.71z"/>
		</g>
		<g>
			<path class="st17" d="M813.43,405.95c-4.18,1.47-7.45,2.91-7.45,2.91l-0.6-3.29c19.44-11.12,4.37-24.26,4.37-24.26l2.6-5.46
				c0.76-1.59,0.15-3.59-1.47-4.27c-0.71-0.3-1.56-0.35-2.52,0.12l-9.08,3.42l-7.25-3.54c-1.55-0.7-5.61,1.05-5.61,1.05
				c-17.76,6.78-6.32,14.47-4.28,18.73c2.04,4.26,0.04,2.11,4.52,1.09c4.48-1.02,3.7,3.01,3.7,3.01
				c-5.32,6.08,1.67,12.34,1.67,12.34l0.88,3.74l0.13,0.79c0,0-4.91,1.95-10.89,4.93C804.33,438.39,811.46,415.9,813.43,405.95z"/>
			<path class="st5" d="M909.43,369.63l-0.43,0.6c0.02,0.05,0.02,0.1-0.01,0.15l-10.46,17.76c0,0,9.38-1.01,9.13,2.03
				c-0.25,3.04-15.47,5.07-15.47,5.07l-8.16,9.93l-21.19,29.64c0.06,0.05,0.09,0.08,0.09,0.08l-3.72,4.99l-21.61,30.23l-11.82,16.54
				c0.38-0.01,1.34,0.08,1.06,0.4c-3,3.39-0.97,5.83-2.59,7.83c2.19-1.04,8.25-2.25,10.98-1.24c2.17,0.8,3.9,4.38,4.92,5.79
				l25.73-39.66l29.15-41.25l28.1-39.76L909.43,369.63z"/>
			<path class="st4" d="M867.74,459.89c1.69,1.04,4.46,2.27,7.04,1.14c4.06-1.77,22.11-42.39,22.11-42.39L867.74,459.89z"/>
			<path class="st4" d="M835.95,438.81l17.19,11.85l7.94-10.67l9.07-10.98c-1.77-1.58-35.07-20.52-39.04-24.13
				c-2.45-2.23-10.61,0.03-16.79,2.21c-1.97,9.95-9.1,32.44-31.3,11.29c-7.14,3.56-15.49,8.85-19.53,13.55
				c-13.64,15.86-3.99,62.9-3.99,62.9c14.63,23.56,54.16,12.42,54.16,12.42l6.27-12.42c0,0,4.69-8.03,7.72-8.07l17.84-23.29
				L835.95,438.81z"/>
			<polygon class="st4" points="886.54,392.21 885.89,405.29 893.16,395.11 			"/>
			<path class="st17" d="M812.4,507.26c3.92,6.79,18.77,0.81,18.77,0.81c1.08,1.17,3.35,2.65,4.88,3.07
				c2.42,0.68,3.06,0.94,3.63,0.37c0.93-0.93-5.67-6.33-5.67-6.33l-3.91-0.4l4.51-1.35c0,0,5.72,5.41,6.13,4.31
				c0,0,1.54-1.25,0.52-2.79c0,0,1.44-1.35-0.43-3.65c0,0,0.59,0.03,0.02-1.38c-0.57-1.41-2.99-4.3-3.96-5.6
				c-1.95-2.65-11.64,0.56-11.64,0.56s-0.36-5.58,1.93-7.64c1.29-1.16-1.8-0.91-4.2,1.39c-2.27,2.18-4.45,5.78-4.32,6.22"/>
			<path class="st17" d="M909.61,370.35c-0.04-0.11-0.17-0.18-0.28-0.1l-13.74,9.65c0,0-9.38,8.11-8.11,12.93l4.53,2.16l0.79,0.38
				c0,0,15.21-2.03,15.47-5.07c0.25-3.04-9.13-2.03-9.13-2.03l10.46-17.76C909.63,370.45,909.62,370.39,909.61,370.35z"/>
			<path class="st18" d="M815.59,405.83c-4.18,1.47-7.45,2.91-7.45,2.91l-0.6-3.29c19.44-11.12,4.37-24.26,4.37-24.26l2.6-5.46
				c0.76-1.59,0.15-3.59-1.47-4.27c-0.71-0.3-1.56-0.35-2.52,0.12l-9.08,3.42l-7.25-3.54c-1.55-0.7-5.61,1.05-5.61,1.05
				c-17.76,6.78-6.32,14.47-4.28,18.73c2.04,4.26,0.04,2.11,4.52,1.09c4.48-1.02,3.7,3.01,3.7,3.01
				c-5.32,6.08,1.67,12.34,1.67,12.34l0.88,3.74l0.13,0.79c0,0-4.91,1.95-10.89,4.93C806.49,438.27,813.62,415.78,815.59,405.83z"/>
			<path class="st19" d="M819.96,494.81c0,0-29.56,1.97-35.4-16.12s-5.08-30.82-5.08-30.82S780.43,493.48,819.96,494.81z"/>
			<path class="st18" d="M814.91,506c3.92,6.79,18.77,0.81,18.77,0.81c1.08,1.17,3.35,2.65,4.88,3.07c2.42,0.68,3.06,0.94,3.63,0.37
				c0.93-0.93-5.67-6.33-5.67-6.33l-3.91-0.4l4.51-1.35c0,0,5.72,5.41,6.13,4.31c0,0,1.54-1.25,0.52-2.79c0,0,1.44-1.35-0.43-3.65
				c0,0,0.59,0.03,0.02-1.38c-0.57-1.41-2.99-4.3-3.96-5.6c-1.95-2.65-11.64,0.56-11.64,0.56s-0.36-5.58,1.93-7.64
				c1.29-1.16-1.81-0.91-4.2,1.39c-2.27,2.18-4.45,5.78-4.32,6.22"/>
			<polygon class="st18" points="894.51,393.73 894.42,393.85 895.31,394.11 			"/>
			<path class="st18" d="M868.99,458.64c1.69,1.04,4.46,2.27,7.04,1.14c4.06-1.77,22.11-42.39,22.11-42.39L868.99,458.64z"/>
			<polygon class="st20" points="837.21,437.56 840.72,468.97 862.33,438.74 854.39,449.41 			"/>
			<path class="st18" d="M837.21,437.56l17.19,11.85l7.94-10.67l9.03-11.43c-1.77-1.58-35.03-20.07-39-23.68
				c-2.45-2.23-10.61,0.03-16.79,2.21c-1.97,9.95-9.1,32.44-31.3,11.29c-7.14,3.56-15.14,9.16-19.53,13.55
				c-19.92,19.91-3.99,62.9-3.99,62.9c14.63,23.56,54.16,12.42,54.16,12.42l6.27-12.42c0,0,4.69-8.03,7.72-8.07l17.64-23.88
				L837.21,437.56z"/>
			<path class="st18" d="M912.55,368.5l-0.43,0.6c0.02,0.05,0.02,0.1-0.01,0.15l-10.46,17.76c0,0,9.38-1.01,9.13,2.03
				c-0.25,3.04-15.47,5.07-15.47,5.07l-8.16,9.93l-21.19,29.64c0.06,0.05,0.09,0.08,0.09,0.08l-3.72,4.99l-21.61,30.23l-11.82,16.54
				c0.38-0.01,1.34,0.08,1.06,0.4c-3,3.39-0.97,5.83-2.59,7.83c2.19-1.04,8.25-2.25,10.98-1.24c2.17,0.8,3.9,4.38,4.92,5.79
				l25.73-39.66l29.15-41.25l28.1-39.76L912.55,368.5z"/>
			<path class="st18" d="M866.05,433.75c0,0-0.03-0.03-0.09-0.08l-3.63,5.07L866.05,433.75z"/>
			<polygon class="st18" points="887.79,390.95 887.14,404.03 894.42,393.85 			"/>
			<polygon class="st18" points="894.42,393.85 887.14,404.03 895.31,394.11 			"/>
			<path class="st18" d="M912.12,369.09c-0.04-0.11-0.17-0.18-0.28-0.1l-13.74,9.65c0,0-9.38,8.11-8.11,12.93l4.53,2.16l0.79,0.38
				c0,0,15.21-2.03,15.47-5.07c0.25-3.04-9.13-2.03-9.13-2.03l10.46-17.76C912.14,369.19,912.14,369.14,912.12,369.09z"/>
			<circle class="st7" cx="796.41" cy="381.45" r="1.33"/>
			<path class="st7" d="M836.5,436.79c0,0-1.84-10.36-1.12-8.92s20.12,19.05,20.12,19.05l-1.12,2.49L836.5,436.79z"/>
			<path class="st7" d="M870.09,457.37c0,0,5.27,3.29,8.4,0.33c0,0-2.63,3.79-6.42,2.47s-3.07-1.53-3.07-1.53L870.09,457.37z"/>
			<path class="st18" d="M795.26,402.8c0,0-1.04,3.16-6.57-1.82"/>
			<path class="st7" d="M794.18,371.45c0,0-13.68-19.09-32.07,5.17c-18.38,24.26,4.17,32.03,8.15,33.74
				c3.98,1.71,23.92-2.69,23.92-2.69s-5.15-6.03-3.83-9.06c1.89-4.31,3.11-6.22-1.54-6.28c-4.54-0.06-2.17,0.38-2.16,0.12
				c0,0-11.46-9.57-6.15-14.87C783.25,374.81,789.67,371.2,794.18,371.45z"/>
		</g>
		<path class="st11" d="M332.91,375.6c0,10.79-8.75,19.54-19.54,19.54H153.25c-10.79,0-19.54-8.75-19.54-19.54V43.31
			c0-10.79,8.75-19.54,19.54-19.54h160.12c10.79,0,19.54,8.75,19.54,19.54v59"/>
		<g>
			<path class="st2" d="M941.88,504.44H338.81c-12.75,0-23.09-10.34-23.09-23.09V102.66c0-12.75,10.34-23.09,23.09-23.09h603.08
				c12.75,0,23.09,10.34,23.09,23.09v378.69C964.98,494.1,954.64,504.44,941.88,504.44z"/>
			<path class="st21" d="M943.18,81.83H343.41c-10.6,0-19.28,7.89-19.28,17.54v39.49h638.33V99.36
				C962.46,89.72,953.78,81.83,943.18,81.83z"/>
			<line class="st22" x1="315.02" y1="139.51" x2="964.28" y2="139.51"/>
			<circle class="st23" cx="929.37" cy="111.49" r="8.73"/>
			<circle class="st23" cx="894" cy="111.49" r="8.73"/>
			<circle class="st23" cx="858.63" cy="111.49" r="8.73"/>
		</g>
		<g>
			<g>
				<g>
					<path class="st5" d="M169.3,423.32h161.77c7.96,0,14.42-6.46,14.42-14.42v-77.74H154.88v77.74
						C154.88,416.87,161.34,423.32,169.3,423.32z"/>
					<path class="st4" d="M154.88,324.95v6.21h190.61v-6.21c0-6.33-5.13-11.46-11.46-11.46h-167.7
						C160.01,313.49,154.88,318.62,154.88,324.95z"/>
				</g>
				<g>
					<rect x="179.96" y="372.09" class="st4" width="126.56" height="3.71"/>
				</g>
				<g>
					<rect x="179.96" y="385.93" class="st4" width="135.27" height="4.05"/>
				</g>
				<g>
					<rect x="179.96" y="399.93" class="st4" width="135.27" height="4.05"/>
				</g>
				<g>
					<rect x="179.96" y="352" class="st4" width="44.23" height="9.63"/>
				</g>
			</g>
			<g>
				<g>
					<g>
						<path class="st4" d="M325.72,328.45c-0.24-0.23,2.21-3.2,5.48-6.62c3.27-3.42,6.12-6.01,6.37-5.77
							c0.24,0.23-2.21,3.19-5.49,6.62C328.82,326.1,325.97,328.68,325.72,328.45z"/>
					</g>
				</g>
				<g>
					<g>
						<path class="st4" d="M337.58,328.45c-0.24,0.23-3.09-2.35-6.37-5.77c-3.27-3.42-5.73-6.38-5.49-6.62s3.09,2.35,6.37,5.77
							C335.36,325.26,337.82,328.22,337.58,328.45z"/>
					</g>
				</g>
			</g>
		</g>
		<g>
			<path class="st2" d="M164.23,425.5H326c7.96,0,14.42-6.46,14.42-14.42v-77.74H149.81v77.74
				C149.81,419.04,156.27,425.5,164.23,425.5z"/>
			<path class="st2" d="M149.81,327.12v6.21h190.61v-6.21c0-6.33-5.13-11.46-11.46-11.46h-167.7
				C154.94,315.66,149.81,320.79,149.81,327.12z"/>
		</g>
		<g>
			<g>
				<path class="st24" d="M127.81,72.93c0.2-7.14-6.88-4.9-6.88-4.9c-2.49,14.71-10.27,3.84-13.76,2.56
					c-3.49-1.28-5.29,0.96-5.49,1.49c-0.2,0.53,0.6,6.82,0.6,6.82s-4.69-5.54-5.29,0.53c-0.6,6.08,3.59,6.5,3.59,6.5l-1.2,3.41
					l8.32,8.14l1.16-3.66l3.59,1.92c2.33,0.8,4.29,1.18,5.93,1.26c1.98,0.09,4.09,1.09,5.27,0.47c1.18-0.62,1.44-2.87,2.03-3.85
					c1.66-2.76,2.31-6.42,2.31-6.42l3.1-0.83c1.45-0.24,2.17-2.03,1.32-3.32l-3.1-6.63L127.81,72.93z"/>
				<path class="st24" d="M155.77,103.39c0,0,6.93-6.42,8.83-4.52c0,0,13.91-3.39,14.27,0.71c0.36,4.11-16.89,11.95-16.89,11.95
					L155.77,103.39z"/>
				<path class="st24" d="M114.46,48.03c-0.23-1.26,16.65-29.26,19.51-30.92c2.85-1.67,31.16-3.09,30.69,5.95l-14.17,0.22
					c0,0,4.41,0.02,2.99,3.11s-11.18-1.43-11.18-1.43s-9.08,5.65-9.75,10.7c-0.67,5.06-4.61,15-4.61,15S114.94,50.65,114.46,48.03z"
					/>
				<g>
					<path class="st25" d="M136.86,193.36l-3.2,62.1l14.85-1.32c0,0,32.91-86.85,18.71-97.74c-12.84-9.86-46.4,8.31-52.65,11.85
						l-1.85,10.9c-14.36,12.9-44.94,5.48-55.24-0.28c-0.68-0.38-1.54-0.01-1.72,0.74c-1.15,4.73-1.57,6.98,3.66,19.96
						c2.86,7.11,12.4,14.7,17.85,23.75c19.94,33.19,43.16,120.47,62.16,133c0.44,0.29,1.01,0.32,1.5,0.11l13.7-5.87
						c0.89-0.38,1.25-1.45,0.77-2.29c-5.34-9.4-40.58-104.83-42.98-135.99C112.41,212.3,126.63,208.87,136.86,193.36z"/>
					<path class="st5" d="M155.79,104.56l-33.58,18.2c0,0-14.12-30.96-29.98-35.32l-37.91,88.39c-0.25,0.55-0.05,1.2,0.47,1.51
						c0.36,0.22,0.83,0.49,1.38,0.81c8.79,5.06,41.52,14.53,56.55,1.02l1.85-10.9l2.74-16.13c0,0,42.34-17.17,44.71-39.43
						L155.79,104.56z"/>
				</g>
				<path class="st6" d="M129.33,73.69c0.2-7.14-6.88-4.9-6.88-4.9c-4.6,10.3-10.27,3.84-13.76,2.56c-3.49-1.28-5.29,0.96-5.49,1.49
					c-0.2,0.53,0.6,6.82,0.6,6.82s-4.69-5.54-5.29,0.53c-0.6,6.08,3.59,6.5,3.59,6.5l-1.2,3.41l8.32,8.14l1.16-3.66l3.59,1.92
					c2.33,0.8,4.29,1.18,5.93,1.26c1.98,0.09,4.09,1.09,5.27,0.47s1.44-2.87,2.03-3.85c1.66-2.76,2.31-6.42,2.31-6.42l3.1-0.83
					c1.45-0.24,2.17-2.03,1.32-3.32l-4.17-8.46L129.33,73.69z"/>
				<path class="st8" d="M137.41,65.05c-0.32-10.66-2.02-10.98-7.14-13.22c-5.12-2.24-7.3,0.07-8.9-4.94
					c-1.6-5.01-11.99,2.28-15.29,1.21c-3.3-1.07-15.67,1.49-13.96,11.4c0,0-6.79,8.03-7.57,12.15c-1.39,7.35,2.77,17.16,16.52,18.44
					l1.28-3.41c0,0-4.48-0.43-3.84-6.5c0.64-6.07,5.65-0.53,5.65-0.53s-0.85-6.29-0.64-6.82c0.21-0.53,2.13-2.77,5.86-1.49
					c3.73,1.28,6.69,7.55,14.71-2.56c0,0,7.57-2.24,7.35,4.9C131.45,73.69,137.73,75.71,137.41,65.05z"/>
				<g>
					<path class="st6" d="M139.17,193.36l-3.21,62.1l14.85-1.32c0,0,32.91-86.85,18.71-97.74c-12.84-9.86-46.4,8.31-52.65,11.85
						l-1.85,10.9c-14.36,12.9-44.94,5.48-55.24-0.28c-0.68-0.38-1.54-0.01-1.72,0.74c-1.15,4.73-1.57,6.98,3.66,19.96
						c2.86,7.11,12.4,14.7,17.85,23.75c19.94,33.19,43.16,120.47,62.16,133c0.44,0.29,1.01,0.32,1.5,0.11l13.7-5.87
						c0.89-0.38,1.25-1.45,0.77-2.29c-5.34-9.4-40.58-104.83-42.98-135.99C114.72,212.3,128.94,208.87,139.17,193.36z"/>
					<path class="st6" d="M158.11,104.56l-33.58,18.2c0,0-14.12-30.96-29.98-35.32l-37.91,88.39c-0.25,0.55-0.05,1.2,0.47,1.51
						c0.36,0.22,0.83,0.49,1.38,0.81c8.79,5.06,41.52,14.53,56.55,1.02l1.85-10.9l2.74-16.13c0,0,42.34-17.17,44.71-39.43
						L158.11,104.56z"/>
				</g>
				<g>
					<path class="st26" d="M173.31,373.78c-0.77-2.09-4.31-4.75-4.31-4.75s-15.07-13.8-23-13.2c-0.55,0.04-1.07,0.15-1.55,0.34
						c-7.3,2.94,7.71,14.75,7.71,14.75c2.97,3.82,14.87,5.95,19.8,5.09C173.47,375.75,173.67,374.76,173.31,373.78z"/>
					<path class="st8" d="M170.17,367.87C170.17,367.87,170.17,367.87,170.17,367.87c3.47-3.09-1.07,0.96,2.39-2.13
						c-3.66-5.84-10.83-12.89-13.19-15.14c-0.47-0.45-1.15-0.57-1.75-0.32l-5.57,2.34c-1.35,0.57-1.31,2.49,0.06,3.01
						C160.12,358.67,170.17,367.87,170.17,367.87z"/>
					<path class="st6" d="M174.48,372.61c-0.77-2.09-4.31-4.75-4.31-4.75s-15.07-13.8-23-13.2c-0.55,0.04-1.07,0.15-1.55,0.34
						c-7.3,2.94,7.71,14.75,7.71,14.75c2.97,3.82,14.87,5.95,19.8,5.09C174.64,374.58,174.84,373.59,174.48,372.61z"/>
				</g>
				<path class="st8" d="M135.97,255.46l-0.45,6.62c0,0,26.13,14.81,28.96,10.45s-13.66-18.4-13.66-18.4L135.97,255.46z"/>
				<path class="st6" d="M158.11,104.56c0,0,6.93-6.42,8.83-4.52c0,0,13.91-3.39,14.27,0.71c0.36,4.11-16.89,11.95-16.89,11.95
					L158.11,104.56z"/>
				<path class="st6" d="M116.8,49.2c-0.23-1.26,16.65-29.26,19.51-30.92c2.85-1.67,31.16-3.09,30.69,5.95l-14.17,0.22
					c0,0,4.41,0.02,2.99,3.11s-11.18-1.43-11.18-1.43s-9.08,5.65-9.75,10.7c-0.67,5.06-4.61,15-4.61,15S117.28,51.82,116.8,49.2z"/>
				<path class="st8" d="M67.02,192.33c0,0,24.62,29.18,47.7,19.97l2.15,13.49C116.87,225.79,85.23,230.05,67.02,192.33z"/>
				<polygon class="st8" points="139.17,193.36 148.55,178.96 137.44,244.59 				"/>
				<circle class="st7" cx="122.77" cy="76.87" r="1.57"/>
			</g>
			<path class="st7" d="M119.62,152.13c0,0-5.19-2.95-10.5-8.48c-5.35-5.57-10.83-13.77-11.26-24.22c0,0-2.3,8.85,2.13,20.24
				c4.05,10.43,14.75,20.24,18.36,21.27L119.62,152.13z"/>
		</g>
		<polyline class="st2" points="500.02,559.62 404.52,559.62 404.52,505 		"/>
		<path class="st9" d="M1216.22,282.11h-171.4c-5.21,0-9.43-4.22-9.43-9.43v-40.8c0-5.21,4.22-9.43,9.43-9.43h171.4
			c5.21,0,9.43,4.22,9.43,9.43v40.8C1225.65,277.89,1221.43,282.11,1216.22,282.11z"/>
		<g>
			<g>
				<path class="st27" d="M384.77,403.56l-1.84,13.17l1.34,2.77c1.43,1.99-0.71,4.65-2.92,3.6c-0.2-0.09-0.99-1.05-1.2-1.17
					c0,0-3.68,7.46-9.25,9.95c-3.34,1.49-7.26,0.08-10.7-1.15l12.22-18.69C372.43,412.03,382.98,411.14,384.77,403.56z"/>
				<path class="st27" d="M326.39,368.05c0.61-2.97-0.7-12.55-2.19-14.34c-2.69-3.23-2.96,7.26-2.96,7.26s-12.54-13.58-15.33-13.18
					s11.23,14.28,11.23,14.28s-14.08-13.45-16.07-11.06c-1.99,2.39,9.6,11.27,9.6,11.27s-11.7-11.1-10.14-5.62
					c1.08,3.77,6.69,8.34,6.69,8.34s-6.53-1.45-4.54,0.54c1.99,1.99,12.49,6.88,12.49,6.88L326.39,368.05z"/>
				<path class="st27" d="M408.41,423.93l3.72-10.46c0.8-2.25,3.02-3.68,5.39-3.47c3.37,0.3,7.69,0.99,8.34,2.6
					c1.08,2.69-7.15,5.81-7.15,5.81s4.26,6.97,1.97,7.58c-2.3,0.61-7.46,3.83-7.46,3.83L408.41,423.93z"/>
				<path class="st27" d="M423.76,425.49c0,0,4.7-5.1,2.37-6.12c-2.36-1.04-4.44,2.23-4.05,1.81"/>
				<g>
					<path class="st5" d="M335.21,531.48c-3.63-1.95-26.47-13.2-29.98-17.34c-0.19-0.23-0.38-0.45-0.57-0.68
						c-9.59-11.59-17.92-28.37-21.09-35.12c-8.24,16.09-25.53,35.47-11.78,62.97c5.26,10.52,18.56,48.88,23.24,72.75
						c1.43,7.31,2.7,14.5,3.78,21.05c2.76,16.74,4.29,29.34,4.29,29.34l0.71,0.29c-0.02-0.47-0.02-0.77-0.02-0.77l7.6,1.01
						c0,0,1.21,0.95,2.76,2.07l1.72-46.27c10.55-9.11,19.75-17.63,22.49-21.86C343.87,590.43,344.77,553.28,335.21,531.48z"/>
					<path class="st4" d="M407.33,425.02c0,0-28.85,33.06-50.48,9.75l-16.19-16.7l-15.35-50.01l-11.22,4.38l-4.82,65.35
						l-27.06,37.59c0,0,0.48,1.11,1.36,2.98c3.17,6.75,11.5,23.53,21.09,35.12c0.19,0.23,0.38,0.46,0.57,0.68
						c3.51,4.14,26.35,15.39,29.98,17.34c1.67,0.9,3.33,1.49,4.97,1.69h0c5.14-1.55,3.76-6.81,5.52-11.88l2.53-53.44
						c0,0,19.44,19.45,27.89,12.35c20.82-17.49,36.03-49.31,36.03-49.31L407.33,425.02z"/>
					<path class="st29" d="M338.46,531.48c-3.63-1.95-26.47-13.2-29.98-17.34c-0.19-0.23-0.38-0.45-0.57-0.68
						c-9.59-11.59-17.92-28.37-21.09-35.12c-8.24,16.09-25.53,35.47-11.78,62.97c5.26,10.52,18.56,48.88,23.24,72.75
						c1.43,7.31,2.7,14.5,3.78,21.05c2.76,16.74,4.29,29.34,4.29,29.34l0.71,0.29c-0.02-0.47-0.02-0.77-0.02-0.77l7.6,1.01
						c0,0,1.21,0.95,2.76,2.07l1.72-46.27c10.55-9.11,19.75-17.63,22.49-21.86C347.12,590.43,348.02,553.28,338.46,531.48z"/>
					<path class="st29" d="M410.58,425.02c0,0-28.85,33.06-50.48,9.75l-16.19-16.7l-15.35-50.01l-11.22,4.38l-4.82,65.35
						l-27.06,37.59c0,0,0.48,1.11,1.36,2.98c3.17,6.75,11.5,23.53,21.09,35.12c0.19,0.23,0.38,0.46,0.57,0.68
						c3.51,4.14,26.35,15.39,29.98,17.34c1.67,0.9,3.33,1.49,4.97,1.69l0,0c5.14-1.55,6.11-5.13,5.52-11.88l2.53-53.44
						c0,0,19.44,19.45,27.89,12.35c20.82-17.49,36.03-49.31,36.03-49.31L410.58,425.02z"/>
				</g>
				<path class="st29" d="M328.56,368.05c0.61-2.97-0.7-12.55-2.19-14.34c-2.69-3.23-2.96,7.26-2.96,7.26s-12.54-13.58-15.33-13.18
					s11.23,14.28,11.23,14.28s-14.08-13.45-16.07-11.06c-1.99,2.39,9.6,11.27,9.6,11.27s-11.7-11.1-10.14-5.62
					c1.08,3.77,6.69,8.34,6.69,8.34s-6.53-1.45-4.54,0.54c1.99,1.99,12.49,6.88,12.49,6.88L328.56,368.05z"/>
				<path class="st29" d="M410.58,425.02l3.72-10.46c0.8-2.25,3.02-3.68,5.39-3.47c3.37,0.3,7.69,0.99,8.34,2.6
					c1.08,2.69-7.15,5.81-7.15,5.81s4.26,6.97,1.97,7.58s-7.46,3.83-7.46,3.83L410.58,425.02z"/>
				<path class="st29" d="M423.76,425.49c0,0,4.7-5.1,2.37-6.12c-2.36-1.04-4.44,2.23-4.05,1.81"/>
				<path class="st29" d="M386.5,404.08l-1.84,13.17l1.34,2.77c1.43,1.99-0.71,4.65-2.92,3.6c-0.2-0.09-0.99-1.05-1.2-1.17
					c0,0-3.68,7.46-9.25,9.95c-3.34,1.49-7.26,0.08-10.7-1.15l12.22-18.69C374.16,412.55,384.71,411.66,386.5,404.08z"/>
				<circle class="st7" cx="381.27" cy="415.65" r="1.13"/>
				<path class="st7" d="M351.48,467.86c-0.25-1.63-0.92-5.64-0.92-5.64l-8.02,31.06L351.48,467.86z"/>
				<path class="st7" d="M318.49,630.91l3.87-29.73l3.53,2.3c3.96-8.05,6.91-18.99,3.7-27.36l-8.48-20.54l-1.95,24.9L318.49,630.91z
					"/>
				<path class="st7" d="M290.55,487.55c0,0,23.88,60.1,52.53,60.16l-4.62-16.23c0,0-28.81-17.7-33.24-23.98
					C301.6,502.37,290.55,487.55,290.55,487.55z"/>
			</g>
			<path class="st7" d="M374.16,412.55c0,0-1.88,24.87-21.52,23.89c-19.64-0.98-19.9-17.57-19.9-17.57s-11.52-7.96-6.61-25.14
				c0,0,3.79-9.91,14.88-12.86c0,0,2.46-14.14,18.51-13.65c16.2,0.49,20.13,9.12,20.13,9.12s13.51-1.63,16.2,15.43
				C397.32,401.09,395.68,410.75,374.16,412.55z"/>
		</g>
		<g>
			<path class="st6" d="M154.4,449.59c0.35-2.18-1.13-4.24-3.31-4.59c-2.18-0.35-2.54,1.4-2.9,3.59c-0.26,1.64-0.45,3.05,0.4,3.8
				c0.28,0.25,0.68,0.43,1.22,0.52C151.99,453.25,154.05,451.77,154.4,449.59z"/>
			<line class="st6" x1="149.81" y1="452.9" x2="138.68" y2="463.31"/>
		</g>
		<g>
			<path class="st4" d="M995.84,571.91c7.2,15.22,34.87,19.3,34.87,19.3l-2.12,14.06l2.35-11.06c0,0,4.9-5.71,6.14-3.86
				c1.24,1.86-1.24,5.87-1.24,5.87s5.11-2.43,8.26-2.37l36.35-39.22c-51.24,12.21-113.08-42.22-113.08-42.22l-2.96,4.33
				C977.31,520.37,988.65,556.69,995.84,571.91z"/>
			<path class="st4" d="M1028.6,605.27c0,0-18.67,4.3-40.52-9.73c-21.84-14.03-28.19-26.86-28.19-26.86l-7.05,28.25l-0.9,4.84
				c5.1,4.4,10.08,8.06,14.85,11.09c26.1,16.57,46.17,14.6,46.17,14.6l20.18-21.77C1030.68,605.51,1028.6,605.27,1028.6,605.27z"/>
			<path class="st5" d="M998.3,568.45c-7.2-15.23-21-48.08-33.88-51.7c-3.69-1.03-6.93-2.63-10.03-4.36
				c-6.15-3.43-11.69-7.38-18.74-8.62c-1.82-0.32-3.73-0.48-5.79-0.38l-0.85,1.62c0,0-23.88-5.77-28.86,6
				c-4.98,11.77-33.46,56.77-33.46,56.77s-20.77,39.54-20.2,41.7c0.16,0.59,1.46,1.49,3.43,2.49c5.17,2.64,15.1,4.82,20.34,6.22
				c8.74,2.33,43.06,8.92,59.1,8.32c7.17-0.27,13.97-1.9,19.12-6.03l1.27-6.8l2.21-11.9l0.9-4.84l7.05-28.25
				c0,0,6.35,12.83,28.19,26.86c21.84,14.03,40.52,9.73,40.52,9.73l2.12-14.06C1030.72,591.21,1005.5,583.67,998.3,568.45z"/>
			<path class="st4" d="M957.69,506.6c-0.92,0.07-1.87,0.09-2.87,0.04c-10.97-0.52-14.42-4.61-15.45-7.72l-2.48,3.61
				c7.05,1.24,12.59,5.19,18.74,8.62L957.69,506.6z"/>
			<path class="st30" d="M972.05,470.8c-1.53,0.27-6.06-5.73-14.15-8.26c-8.09-2.53-14.99,7.58-17.02,12.13s-0.82,6.32-0.82,6.32
				l0.96,2.63c0,0,3.9-6.25,6.26-1.7c2.36,4.55-8.26,14.66-8.26,14.66s-0.14,0.71-0.05,1.76c0.05,0.53,0.16,1.15,0.38,1.82
				c1.03,3.11,4.48,7.2,15.45,7.72c1,0.05,1.95,0.03,2.87-0.04c15.5-1.15,23.57-15.83,25.01-19.17
				C984.21,485.13,979.94,469.39,972.05,470.8z"/>
			<path class="st31" d="M937.79,497.82c0,0,10.61-10.11,8.26-14.66c-2.36-4.55-6.26,1.7-6.26,1.7l-0.96-2.63
				c0,0-1.2-1.77,0.82-6.32l-5.05,4.89l0.51,1.68c0,0-6.46,10.85,1.74,16.54c0.29,0.2,0.6,0.38,0.91,0.55
				C937.64,498.53,937.79,497.82,937.79,497.82z"/>
			<path class="st32" d="M940.27,496.58c0,0,10.61-10.11,8.26-14.66c-2.36-4.55-6.26,1.7-6.26,1.7l-0.96-2.63
				c0,0-1.2-1.77,0.82-6.32l-5.05,4.89l0.51,1.68c0,0-6.46,10.85,1.74,16.54c0.29,0.2,0.6,0.38,0.91,0.55
				C940.13,497.28,940.27,496.58,940.27,496.58z"/>
			<path class="st32" d="M958.93,507.84c-0.92,0.07-1.87,0.09-2.87,0.04c-10.97-0.52-14.42-4.61-15.45-7.72l-2.48,3.61
				c7.05,1.24,12.59,5.19,18.74,8.62L958.93,507.84z"/>
			<path class="st32" d="M973.29,470.8c-1.47,0.49-6.06-5.73-14.15-8.26c-8.09-2.53-14.99,7.58-17.02,12.13
				c-2.02,4.55-0.82,6.32-0.82,6.32l0.96,2.63c0,0,3.9-6.25,6.26-1.7c2.36,4.55-8.26,14.66-8.26,14.66s-0.14,0.71-0.05,1.76
				c0.05,0.53,0.16,1.15,0.38,1.82c1.03,3.11,4.48,7.2,15.45,7.72c1,0.05,1.95,0.03,2.87-0.04c15.5-1.15,23.57-15.83,25.01-19.17
				C985.45,485.13,981.11,468.21,973.29,470.8z"/>
			<path class="st32" d="M1001.36,566.78c7.2,15.22,31.84,24.43,31.84,24.43l-2.12,14.06l2.35-11.06c0,0,4.9-5.71,6.14-3.86
				c1.24,1.86-1.24,5.87-1.24,5.87s5.11-2.43,8.26-2.37l36.35-39.22c-51.24,12.21-113.08-42.22-113.08-42.22l-2.96,4.33
				C979.79,520.37,994.16,551.55,1001.36,566.78z"/>
			<path class="st32" d="M1031.08,605.27c0,0-18.67,4.3-40.52-9.73c-21.84-14.03-28.19-26.86-28.19-26.86l-7.05,28.25l-0.9,4.84
				c5.1,4.4,10.08,8.06,14.85,11.09c26.1,16.57,46.17,14.6,46.17,14.6l20.18-21.77C1033.16,605.51,1031.08,605.27,1031.08,605.27z"
				/>
			<path class="st32" d="M1001.36,566.78c-7.2-15.23-21.57-46.41-34.46-50.03c-3.69-1.03-6.93-2.63-10.03-4.36
				c-6.15-3.43-11.69-7.38-18.74-8.62c-1.82-0.32-3.73-0.48-5.79-0.38l-0.85,1.62c0,0-23.88-5.77-28.86,6
				c-4.98,11.77-33.46,56.77-33.46,56.77s-20.77,39.54-20.2,41.7c0.16,0.59,1.46,1.49,3.43,2.49c5.17,2.64,15.1,4.82,20.34,6.22
				c8.74,2.33,43.06,8.92,59.1,8.32c7.17-0.27,13.97-1.9,19.12-6.03l1.27-6.8l2.21-11.9l0.9-4.84l7.05-28.25
				c0,0,6.35,12.83,28.19,26.86c21.84,14.03,40.52,9.73,40.52,9.73l2.12-14.06C1033.2,591.21,1008.56,582,1001.36,566.78z"/>
			<path class="st7" d="M961.38,571.03l1.52-14.1c0,0,7.11,22.06,21,32.98C983.91,589.91,973.08,584.73,961.38,571.03z"/>
			<path class="st32" d="M942.99,473.01c-1.05-0.92-2.96-0.45-4.26,1.04c-1.3,1.49-1.51,3.44-0.46,4.36"/>
			<path class="st32" d="M974.66,481.39c1.11-6.12-6.4-7.79-6.4-7.79s3.06-2.78-3.62-3.34"/>
		</g>
		<g>
			<path class="st4" d="M1189.95,195.77c8.22-15.27,15.69-59.54,15.69-59.54l15.53,9.14l-0.02-50.47l-11.7-10.24
				c-6.27,27.57-42.31,54.4-42.31,54.4s-5.83,48.19-7.87,59.42c-1.67,9.2,67.23,52.65,67.23,52.65l4.93-5.46
				C1228.74,235.39,1188.08,199.24,1189.95,195.77z"/>
			<path class="st5" d="M1145.47,59.96c0,0-14.61-10.62-25.22-6.79c-5.97,2.16-8.48,6.56-12.97,11.38
				c-3.49,3.74-8.18,7.73-16.62,11.1c0,0-0.73,0.3-1.93,0.82c-5.37,2.31-20.34,8.96-23.77,12.92c-4.2,4.85-59.5,1.13-59.5,1.13
				s-8.57,10.99-5.82,12.77c2.75,1.78,44.46,11.48,44.46,11.48c2.33,0.01,24.09,6.14,46.82-5.25c0,0,0.94-1.31,6.21,2.99
				c15.68,12.77,71.38,27.31,71.38,27.31s36.04-26.83,42.31-54.4c0.35-1.53,0.63-3.07,0.78-4.6l0.65-5.01
				C1208.21,75.64,1169.56,72.24,1145.47,59.96z"/>
			<path class="st4" d="M1105.46,63.79c-4.36-0.03-11.73-0.49-16.77-3c0,0-3.66-9.51-10.18-1.42c0,0-5.22-1.37-7.25-7.11
				c-0.88-2.5-3.74-3.66-6.02-2.32c-2.91,1.71-6.55,3.6-9.63,4.4l-0.06,0.59l-0.9,17.27c0,0,4.81,2.81,5.34,1.25
				c0,0,8.62,9.42,21.39,0.67l5.53,1.59c1.21-0.52,1.93-0.82,1.93-0.82C1097.29,71.52,1101.97,67.53,1105.46,63.79z"/>
			<path class="st4" d="M1003.64,89.76c-4.13-0.09-12.33-4.14-14.37-0.89c-2.05,3.25-1.81,6.02-2.81,6.02c-1,0-13.85-2.61-13.05-1
				s15.66,5.62,15.66,5.62l8.75,3.02c0,0-0.54-2.52-0.29-3.3C998.79,95.38,1003.64,89.76,1003.64,89.76z"/>
			<path class="st7" d="M1064.49,58.81c0.44,0.67,0.71-0.47,1.6-1.04c0.88-0.58,2.03-0.37,1.6-1.04c-0.44-0.67-1.5-0.74-2.39-0.17
				C1064.42,57.13,1064.06,58.14,1064.49,58.81z"/>
			<path class="st33" d="M1078.51,36.16c-6.26,2.87-17.31-4.28-17.31-4.28l-7.73-5.11l0.6,5.7c0,0-7.12-5.44-7.9-3.62
				c-0.78,1.83,1.83,18.26,5.74,22.95c1.08,1.3,3.14,1.34,5.53,0.71c3.07-0.8,6.71-2.69,9.63-4.4c2.28-1.34,5.14-0.18,6.02,2.32
				c2.02,5.74,7.25,7.11,7.25,7.11c6.52-8.09,10.18,1.42,10.18,1.42s2.6-1.94,4.16-14.46C1096.24,31.99,1084.76,33.29,1078.51,36.16
				z"/>
			<path class="st33" d="M1083.58,57.08c0,0,4.94-1.59,4.18,2.68c0,0-0.49,1.98-3.08,1.82"/>
			<path class="st33" d="M1107.28,61.97c-4.36-0.03-11.73-0.49-16.77-3c0,0-3.66-9.51-10.18-1.42c0,0-5.22-1.37-7.25-7.11
				c-0.88-2.5-3.74-3.66-6.02-2.32c-2.91,1.71-6.55,3.6-9.63,4.4l-0.06,0.59l-0.37,18c0,0,4.28,2.08,4.8,0.52
				c0,0,8.62,9.42,21.39,0.67l5.53,1.59c1.21-0.52,1.93-0.82,1.93-0.82C1099.11,69.7,1103.79,65.71,1107.28,61.97z"/>
			<path class="st33" d="M1191.32,193.95c8.22-15.27,15.69-59.54,15.69-59.54l15.53,9.14l-0.02-50.47l-11.7-10.24
				c-6.27,27.57-42.31,54.4-42.31,54.4s-5.83,48.19-7.87,59.42c-1.67,9.2,67.23,52.65,67.23,52.65l4.93-5.46
				C1230.11,233.57,1189.45,197.42,1191.32,193.95z"/>
			<path class="st33" d="M1145.47,57.38c0,0-14.61-10.62-25.22-6.79c-5.97,2.16-8.48,6.56-12.97,11.38
				c-3.49,3.74-8.18,7.73-16.62,11.1c0,0-0.73,0.3-1.93,0.82c-5.37,2.31-20.34,8.96-23.77,12.92c-4.2,4.85-59.5,1.13-59.5,1.13
				s-8.57,10.99-5.82,12.77c2.75,1.78,44.46,11.48,44.46,11.48c2.33,0.01,24.09,6.14,46.82-5.25c0,0,0.94-1.31,6.21,2.99
				c15.68,12.77,71.38,27.31,71.38,27.31s36.04-26.83,42.31-54.4c0.35-1.53,0.63-3.07,0.78-4.6l0.65-5.01
				C1208.21,73.07,1169.56,69.67,1145.47,57.38z"/>
			<path class="st34" d="M1235.18,253.73l-11.12,16.55c0,0-3.08-1.15-2.09-4.59c0.99-3.44,5.9-16.37,5.9-16.37l4.93-5.46l3.07,1.39
				L1235.18,253.73z"/>
			<path class="st33" d="M1005.46,87.94c-4.13-0.09-12.33-4.14-14.37-0.89c-2.05,3.25-1.81,6.02-2.81,6.02c-1,0-13.85-2.61-13.05-1
				s15.66,5.62,15.66,5.62l8.75,3.02c0,0-0.54-2.52-0.29-3.3C1000.62,93.56,1005.46,87.94,1005.46,87.94z"/>
			<polygon class="st7" points="1206.41,134.07 1207.02,126.67 1210.29,134.25 1222.36,136.19 1222.54,143.55 			"/>
			<path class="st7" d="M1191.32,193.95l-2.99,0.74l-4.32,1.07l0,0c4.76,1.4,9.08,4.02,12.53,7.59l31.83,33.07L1191.32,193.95z"/>
			<path class="st7" d="M1212.16,84.05c0,0-15.01,50.25-45.8,72.83l2.16-19.64c0,0,17.83-14.33,22.47-20.32
				c20.44-26.31,19.84-34.08,19.84-34.08L1212.16,84.05z"/>
			<path class="st7" d="M1089.51,107.34c3.48-2.75,10.62-6.02,10.62-6.02l-3,8.6l-3.18-2.4L1089.51,107.34z"/>
			<path class="st7" d="M1078.29,31.67c-6.26,2.87-17.1,0.21-17.1,0.21l-7.73-5.11l0.6,5.7c0,0-7.12-5.44-7.9-3.62
				c-0.78,1.83,1.83,18.26,5.74,22.95c1.08,1.3,3.14,1.34,5.53,0.71c3.07-0.8,6.71-2.69,9.63-4.4c2.28-1.34,5.14-0.18,6.02,2.32
				c2.02,5.74,7.25,7.11,7.25,7.11c6.52-8.09,10.18,1.42,10.18,1.42s2.6-1.94,4.16-14.46C1096.24,31.99,1084.55,28.81,1078.29,31.67
				z"/>
		</g>
	</g>
</g>
</svg>
