<?xml version="1.0" encoding="utf-8"?>
<!-- Generator: Adobe Illustrator 24.0.3, SVG Export Plug-In . SVG Version: 6.00 Build 0)  -->
<svg version="1.1" id="Layer_1" xmlns="http://www.w3.org/2000/svg" xmlns:xlink="http://www.w3.org/1999/xlink" x="0px" y="0px"
	 viewBox="0 0 1280 169" style="enable-background:new 0 0 1280 169;" xml:space="preserve">
<style type="text/css">
	.st0{clip-path:url(#SVGID_2_);}
	.st1{fill:#F4C55C;}
	.st2{clip-path:url(#SVGID_2_);fill:none;}
	.st3{clip-path:url(#SVGID_2_);fill:none;stroke:#FBECC8;stroke-miterlimit:10;}
	.st4{clip-path:url(#SVGID_2_);fill:none;stroke:#FBECC8;stroke-width:0.9825;stroke-miterlimit:10;}
	.st5{fill:none;stroke:#FBECC8;stroke-miterlimit:10;}
	.st6{fill:none;}
	.st7{fill:#F6C65D;}
	.st8{fill:#D9BC41;}
	.st9{fill:#DAB224;}
	.st10{fill:#F3B74E;}
	.st11{fill:#966414;}
	.st12{fill:#E4CF6E;}
	.st13{fill:none;stroke:#966414;stroke-miterlimit:10;}
	.st14{fill:#F0A203;}
	.st15{fill:#F8D382;}
	.st16{fill:#E0AC33;}
	.st17{fill:#E19800;}
	.st18{fill:none;stroke:#966414;stroke-linejoin:round;stroke-miterlimit:10;}
	.st19{clip-path:url(#SVGID_2_);fill:#966414;}
</style>
<g>
	<defs>
		<rect id="SVGID_1_" width="1280" height="169"/>
	</defs>
	<clipPath id="SVGID_2_">
		<use xlink:href="#SVGID_1_"  style="overflow:visible;"/>
	</clipPath>
	<g class="st0">
		<rect x="-1.54" y="-0.27" class="st1" width="1283.08" height="171.86"/>
	</g>
	<rect x="-1.54" y="-0.27" class="st2" width="1283.08" height="171.86"/>
	<circle class="st3" cx="1207.86" cy="75.67" r="22.59"/>
	<circle class="st4" cx="203.1" cy="131.4" r="43.97"/>
	<path class="st4" d="M41.05,170.97l25.66-18.29c0.7-0.5,0.86-1.46,0.36-2.16l-18.29-25.66c-0.5-0.7-1.46-0.86-2.16-0.36
		l-25.66,18.29c-0.7,0.5-0.86,1.46-0.36,2.16l18.29,25.66C39.38,171.3,40.35,171.46,41.05,170.97z"/>
	<g class="st0">
		<circle class="st5" cx="911.21" cy="190.12" r="43.97"/>
		<path class="st5" d="M728.75,187.41l25.66-18.29c0.7-0.5,0.86-1.46,0.36-2.16l-18.29-25.66c-0.5-0.7-1.46-0.86-2.16-0.36
			l-25.66,18.29c-0.7,0.5-0.86,1.46-0.36,2.16l18.29,25.66C727.09,187.75,728.06,187.91,728.75,187.41z"/>
		<circle class="st5" cx="797.53" cy="8.52" r="43.97"/>
		<path class="st5" d="M1168.18,217.79l49.54-35.3c1.34-0.96,1.66-2.82,0.7-4.17l-35.3-49.54c-0.96-1.34-2.82-1.66-4.17-0.7
			l-49.54,35.3c-1.34,0.96-1.66,2.82-0.7,4.17l35.3,49.54C1164.97,218.44,1166.84,218.75,1168.18,217.79z"/>
		<path class="st5" d="M950.85,107.57l49.45,5.51c1.34,0.15,2.55-0.82,2.7-2.16l5.51-49.45c0.15-1.34-0.82-2.55-2.16-2.7
			l-49.45-5.51c-1.34-0.15-2.55,0.82-2.7,2.16l-5.51,49.45C948.54,106.21,949.51,107.42,950.85,107.57z"/>
		<path class="st5" d="M150.59,50.66l22.4,26.29c0.61,0.71,1.68,0.8,2.39,0.19l26.29-22.4c0.71-0.61,0.8-1.68,0.19-2.39l-22.4-26.29
			c-0.61-0.71-1.68-0.8-2.39-0.19l-26.29,22.4C150.07,48.88,149.99,49.95,150.59,50.66z"/>
		<path class="st5" d="M1101.04-6.84l10.92,64.48c0.13,0.79,1.07,1.13,1.68,0.63l50.39-41.7c0.61-0.51,0.45-1.49-0.3-1.77
			l-61.3-22.79C1101.67-8.26,1100.91-7.63,1101.04-6.84z"/>
		<path class="st5" d="M547.78-17.39l10.92,64.48c0.13,0.79,1.07,1.13,1.68,0.63l50.39-41.7c0.61-0.51,0.45-1.49-0.3-1.77
			l-61.3-22.79C548.41-18.81,547.64-18.18,547.78-17.39z"/>
		<path class="st5" d="M31.37,88.69l-8.07-64.9c-0.1-0.79-1.02-1.18-1.65-0.7l-52.17,39.44c-0.64,0.48-0.51,1.47,0.22,1.78
			l60.24,25.46C30.67,90.09,31.47,89.48,31.37,88.69z"/>
	</g>
	<g class="st0">
		<rect x="-10.64" y="-0.14" class="st6" width="1283.08" height="171.86"/>
	</g>
	<g class="st0">
		<g>
			<path class="st7" d="M111.71,128.43l-2.09-22.35c-1.52-1.52-3.19-2.43-4.85-2.96l0.87,6.75l0.45,30.52l-0.45,0.01l-1.34,0.03
				l0.05,0.04c-0.89-0.2-2.07-0.28-3.38,0.09c-0.26,0.07-0.52,0.15-0.78,0.26c-3.25,1.33,2.8,2.95,2.8,2.95
				c1.7,0.93,3.48,0.39,5.02-0.57c1.41-0.88,2.62-2.12,3.39-2.97C113.04,138.47,111.71,128.43,111.71,128.43z"/>
			<path class="st7" d="M31.55,143.13c-0.16-0.3-0.44-0.56-0.67-0.74c-0.18-0.14-0.33-0.23-0.33-0.23l-6.94-0.74l1.33-7.23
				c0,0-1.62-21.1-1.48-21.84c0.11-0.56,1.14-5.8,1.65-8.35c-0.36,0.01-0.7,0.02-1.04,0.05c-3.57,0.26-6.08,1.42-7.73,2.56
				c-0.29,3.92-1.84,26,0.05,29.36c1.27,2.26,3.81,5.29,6.73,7.16c1.85,1.19,3.86,1.92,5.81,1.69c1.52-0.18,2.26-0.49,2.56-0.84
				C31.72,143.7,31.69,143.4,31.55,143.13z"/>
			<path class="st8" d="M104.78,103.12c-0.79-0.25-1.58-0.41-2.34-0.5c-4.01-0.49-7.4,0.87-7.4,0.87l-7.65,0.1l-41.29,0.56
				l-16.14,0.22c-1.78-0.31-3.39-0.42-4.85-0.38c-0.5,2.56-1.53,7.8-1.65,8.35c-0.15,0.74,1.48,21.84,1.48,21.84l-1.33,7.23
				l6.94,0.74c0,0,0.15,0.09,0.33,0.23l0.73-0.02l3.27-0.09l55.16-1.44l5.19-0.14l5.75-0.15c1.31-0.37,2.49-0.29,3.38-0.09
				l-0.05-0.04l1.34-0.03l0.45-0.01l-0.45-30.52L104.78,103.12z"/>
			<path class="st9" d="M90.08,145.03l-0.04-4.18l-55.16,1.44c-0.21,2.68-0.42,6.65-0.61,10.89c-0.12,2.62-0.24,5.34-0.34,7.92
				c6.39-0.83,20.82-3.5,29.97-2.71c9.22,0.8,21.24-2.97,26.26-4.73L90.08,145.03z"/>
			<path class="st10" d="M31.61,142.37l-0.73,0.02c0.23,0.18,0.52,0.44,0.67,0.74c0.15,0.27,0.17,0.57-0.06,0.84
				c-0.31,0.35-1.05,0.66-2.56,0.84c-1.95,0.23-3.95-0.5-5.81-1.69c-1.6,5.51-6.52,22.52-6.14,22.65c0.4,0.13,13.61,7.53,16.01,8.47
				c0.23,0.09,0.36,0.12,0.38,0.09c0.07-0.2,0.29-6.21,0.58-13.23c0.11-2.58,0.22-5.3,0.34-7.92c0.2-4.25,0.41-8.21,0.61-10.89
				L31.61,142.37z"/>
			<path class="st10" d="M108.03,143.2c-1.54,0.97-3.32,1.5-5.02,0.57c0,0-6.05-1.62-2.8-2.95c0.27-0.11,0.53-0.19,0.78-0.26
				l-5.75,0.15l-5.19,0.14l0.04,4.18l0.08,8.63l0.16,17.43c0,0,2.32-1.65,5.39-3.86c5.98-4.32,14.78-10.81,14.68-11.49
				C110.32,155.26,109.32,149.48,108.03,143.2z"/>
			<path class="st12" d="M95.7,167.22c-3.06,2.21-5.39,3.86-5.39,3.86l-0.16-17.43c-5.02,1.77-17.04,5.53-26.26,4.73
				c-9.16-0.79-23.58,1.88-29.97,2.71c-0.29,7.02-0.51,13.03-0.58,13.23c-0.01,0.04-0.15,0-0.38-0.09l-1.56,34.59l-6.27,32.61
				l-4.6,62.71c0,0,0.04,0.02,0.1,0.04c0.72,0.32,5.73,2.5,7.62,2.62c1.19,0.08,3.64-0.46,5.59-0.96c1.57-0.4,2.82-0.77,2.82-0.77
				s11.05-44,8.96-56.96l15.89-50.58c0,0,2.93,61.87,4.6,67.3c1.61,5.22,9,50.94,9.58,54.53c0.02,0.15,0.04,0.23,0.04,0.23
				s5.8,1.02,7.71,0.56c1.58-0.37,5.53-2.71,7.29-3.78c0.54-0.33,0.88-0.54,0.88-0.54s0.42-78.17,0.84-86.95
				C92.72,223.07,96.13,190.16,95.7,167.22z"/>
			<path class="st9" d="M85.35,72.02c-5-6.25-8.75-9.38-9.38-18.44c-0.09-1.25-0.24-2.44-0.43-3.55c-0.59-3.48-1.57-6.27-2.42-8.19
				c-1.13,0.99-2.36,1.94-3.66,2.75c-2.64,1.63-5.53,2.65-8.33,2.03c0,0-4.78-2.72-6.31-9.02c-0.22,1.71-0.53,3.56-0.97,5.5
				c2.96,3.04,7.63,8.84,7.4,12.67c-0.31,5.31-12.19,19.38-12.82,28.45c-0.33,4.82-1.37,12.55-2.22,18.87
				c-0.05,0.36-0.1,0.72-0.14,1.07l41.29-0.56c0.03-0.4,0.07-0.83,0.1-1.27C88.2,93.1,88.91,76.47,85.35,72.02z"/>
			<path class="st10" d="M53.88,43.09c-1.36,6.05-3.87,12.84-8.16,17.94c-6.73,8.01-6.73,9.46-6.55,12.19
				c0.18,2.73-3.82-3.09-2.18-11.83c0.88-4.67,2.64-9.04,4.08-13.92c-4.45,1.88-14.04,6.2-16.73,9.68
				c-3.54,4.58-14.61,45.31-10.63,51.95c0,0,0.78-1.24,2.61-2.5c1.65-1.14,4.17-2.3,7.73-2.56c0.34-0.02,0.69-0.04,1.04-0.05
				c1.45-0.03,3.06,0.07,4.85,0.38l16.14-0.22c0.05-0.35,0.1-0.71,0.14-1.07c0.85-6.33,1.89-14.06,2.22-18.87
				c0.63-9.07,12.5-23.13,12.82-28.45C61.51,51.92,56.84,46.13,53.88,43.09z"/>
			<path class="st10" d="M107.58,95.08c-0.89-1.03,0.3-30.4-2.66-37.63c-2.57-6.3-1.34-9.35-12.28-11.49
				c-1.63-0.32-3.51-0.62-5.73-0.9c0,0-9.13-0.14-10.76-6.18c-0.87,0.94-1.9,1.97-3.03,2.97c0.84,1.91,1.83,4.7,2.42,8.19
				c0.19,1.12,0.34,2.3,0.43,3.55c0.63,9.07,4.38,12.19,9.38,18.44c3.56,4.45,2.84,21.08,2.14,30.31c-0.03,0.44-0.07,0.87-0.1,1.27
				l7.65-0.1c0,0,3.38-1.36,7.4-0.87c0.76,0.09,1.55,0.25,2.34,0.5c1.66,0.52,3.33,1.44,4.85,2.96c0.21,0.21,0.41,0.43,0.62,0.66
				C110.24,106.73,112.74,101.1,107.58,95.08z"/>
			<path class="st7" d="M74.56,45.7c-0.49-1.71-1.03-3.15-1.53-4.29c-1.13,0.99-2.36,1.94-3.66,2.75c-2.64,1.63-5.53,2.65-8.33,2.03
				c0,0-4.78-2.72-6.31-9.02c-0.22,1.71-0.53,3.56-0.97,5.5c2.5,2.56,6.19,7.08,7.16,10.74C63.58,53.87,67.86,52.51,74.56,45.7z"/>
			<path class="st7" d="M85.56,27.64c-0.07,0.1-0.24,0.04-0.22-0.09c0.26-1.67,1.94-4.22,1.5-9.6c-0.25-3.11-1.42-5.6-2.57-7.37
				c-1.08-1.67-2.15-2.68-2.42-2.93c-2.46,0.32-5.98,1.38-9.84,4.46c-7.28,5.82-14.92,15.65-15.29,22.56
				c-0.03,0.53-0.07,1.11-0.13,1.7c-0.06,0.63-0.13,1.28-0.22,1.96c1.52,6.3,6.31,9.02,6.31,9.02c2.79,0.62,5.69-0.39,8.33-2.03
				c1.3-0.8,2.53-1.76,3.66-2.75c1.13-1,2.16-2.02,3.03-2.97c1.86-2.01,3.01-3.62,3.01-3.62c1.46-2.05,1.39-1.61,1.39-1.61
				c0.11,0.22-0.18,1.26,0.35,1.79c0.53,0.53,4.92-3.48,4.92-7.57C87.37,25.52,86.15,26.83,85.56,27.64z"/>
		</g>
		<g>
			<path class="st13" d="M114.1,129.68l-2.09-22.35c-1.52-1.52-3.19-2.43-4.85-2.96l0.87,6.75l0.45,30.52l-0.45,0.01l-1.34,0.03
				l0.05,0.04c-0.89-0.2-2.07-0.28-3.38,0.09c-0.26,0.07-0.52,0.15-0.78,0.26c-3.25,1.33,2.8,2.95,2.8,2.95
				c1.7,0.93,3.48,0.39,5.02-0.57c1.41-0.88,2.62-2.12,3.39-2.97C115.43,139.72,114.1,129.68,114.1,129.68z"/>
			<path class="st13" d="M33.93,144.38c-0.16-0.3-0.44-0.56-0.67-0.74c-0.18-0.14-0.33-0.23-0.33-0.23l-6.94-0.74l1.33-7.23
				c0,0-1.62-21.1-1.48-21.84c0.11-0.56,1.14-5.8,1.65-8.35c-0.36,0.01-0.7,0.02-1.04,0.05c-3.57,0.26-6.08,1.42-7.73,2.56
				c-0.29,3.92-1.84,26,0.05,29.36c1.27,2.26,3.81,5.29,6.73,7.16c1.85,1.19,3.86,1.92,5.81,1.69c1.52-0.18,2.26-0.49,2.56-0.84
				C34.11,144.95,34.08,144.65,33.93,144.38z"/>
			<path class="st13" d="M107.16,104.37c-0.79-0.25-1.58-0.41-2.34-0.5c-4.01-0.49-7.4,0.87-7.4,0.87l-7.65,0.1l-41.29,0.56
				l-16.14,0.22c-1.78-0.31-3.39-0.42-4.85-0.38c-0.5,2.56-1.53,7.8-1.65,8.35c-0.15,0.74,1.48,21.84,1.48,21.84l-1.33,7.23
				l6.94,0.74c0,0,0.15,0.09,0.33,0.23l0.73-0.02l3.27-0.09l55.16-1.44l5.19-0.14l5.75-0.15c1.31-0.37,2.49-0.29,3.38-0.09
				l-0.05-0.04l1.34-0.03l0.45-0.01l-0.45-30.52L107.16,104.37z"/>
			<path class="st13" d="M92.47,146.28l-0.04-4.18l-55.16,1.44c-0.21,2.68-0.42,6.65-0.61,10.89c-0.12,2.62-0.24,5.34-0.34,7.92
				c6.39-0.83,20.82-3.5,29.97-2.71c9.22,0.8,21.24-2.97,26.26-4.73L92.47,146.28z"/>
			<path class="st13" d="M33.99,143.62l-0.73,0.02c0.23,0.18,0.52,0.44,0.67,0.74c0.15,0.27,0.17,0.57-0.06,0.84
				c-0.31,0.35-1.05,0.66-2.56,0.84c-1.95,0.23-3.95-0.5-5.81-1.69c-1.6,5.51-6.52,22.52-6.14,22.65c0.4,0.13,13.61,7.53,16.01,8.47
				c0.23,0.09,0.36,0.12,0.38,0.09c0.07-0.2,0.29-6.21,0.58-13.23c0.11-2.58,0.22-5.3,0.34-7.92c0.2-4.25,0.41-8.21,0.61-10.89
				L33.99,143.62z"/>
			<path class="st13" d="M110.41,144.46c-1.54,0.97-3.32,1.5-5.02,0.57c0,0-6.05-1.62-2.8-2.95c0.27-0.11,0.53-0.19,0.78-0.26
				l-5.75,0.15l-5.19,0.14l0.04,4.18l0.08,8.63l0.16,17.43c0,0,2.32-1.65,5.39-3.86c5.98-4.32,14.78-10.81,14.68-11.49
				C112.7,156.51,111.71,150.73,110.41,144.46z"/>
			<path class="st13" d="M98.09,168.47c-3.06,2.21-5.39,3.86-5.39,3.86l-0.16-17.43c-5.02,1.77-17.04,5.53-26.26,4.73
				c-9.16-0.79-23.58,1.88-29.97,2.71c-0.29,7.02-0.51,13.03-0.58,13.23c-0.01,0.04-0.15,0-0.38-0.09l-1.56,34.59l-6.27,32.61
				l-4.6,62.71c0,0,0.04,0.02,0.1,0.04c0.72,0.32,5.73,2.5,7.62,2.62c1.19,0.08,3.64-0.46,5.59-0.96c1.57-0.4,2.82-0.77,2.82-0.77
				s11.05-44,8.96-56.96l15.89-50.58c0,0,2.93,61.87,4.6,67.3c1.61,5.22,9,50.94,9.58,54.53c0.02,0.15,0.04,0.23,0.04,0.23
				s5.8,1.02,7.71,0.56c1.58-0.37,5.53-2.71,7.29-3.78c0.54-0.33,0.88-0.54,0.88-0.54s0.42-78.17,0.84-86.95
				C95.11,224.32,98.52,191.41,98.09,168.47z"/>
			<path class="st11" d="M93.78,39.17c-2.18-6.91-1.27-26.02-3.46-33.3c-2.18-7.28-4.73-2.55-4.73-2.55s-0.73-7.1-14.01-6.19
				S45.74,22.25,45.74,34.26c0,5.58-1.03,10.22-2.28,14.46c-1.45,4.88-3.21,9.25-4.08,13.92c-1.64,8.73,2.37,14.56,2.18,11.83
				c-0.18-2.73-0.18-4.19,6.55-12.19c4.29-5.1,6.8-11.89,8.16-17.94c0.44-1.94,0.75-3.8,0.97-5.5c0.09-0.68,0.16-1.34,0.22-1.96
				c0.05-0.59,0.1-1.17,0.13-1.7c0.36-6.91,8.01-16.74,15.29-22.56c3.86-3.09,7.38-4.15,9.84-4.46c0.28,0.25,1.34,1.26,2.42,2.93
				c1.15,1.77,2.32,4.26,2.57,7.37c0.44,5.38-1.25,7.93-1.5,9.6c-0.02,0.13,0.14,0.19,0.22,0.09c0.59-0.81,1.81-2.12,1.81,0.99
				c0,4.09-4.39,8.1-4.92,7.57c-0.53-0.53-0.24-1.57-0.35-1.79c0,0,0.07-0.43-1.39,1.61c0,0-1.15,1.61-3.01,3.62
				c1.63,6.04,10.76,6.18,10.76,6.18c2.22,0.29,4.1,0.59,5.73,0.9C94.95,44.7,94.63,41.84,93.78,39.17z"/>
			<path class="st13" d="M56.26,44.34c-1.36,6.05-3.87,12.84-8.16,17.94c-6.73,8.01-6.73,9.46-6.55,12.19
				c0.18,2.73-3.82-3.09-2.18-11.83c0.88-4.67,2.64-9.04,4.08-13.92C39,50.6,29.42,54.92,26.73,58.4
				c-3.54,4.58-14.61,45.31-10.63,51.95c0,0,0.78-1.24,2.61-2.5c1.65-1.14,4.17-2.3,7.73-2.56c0.34-0.02,0.69-0.04,1.04-0.05
				c1.45-0.03,3.06,0.07,4.85,0.38l16.14-0.22c0.05-0.35,0.1-0.71,0.14-1.07c0.85-6.33,1.89-14.06,2.22-18.87
				c0.63-9.07,12.5-23.13,12.82-28.45C63.89,53.17,59.23,47.38,56.26,44.34z"/>
			<path class="st13" d="M86.41,28.12c-0.07,0.1-0.24,0.04-0.22-0.09c0.26-1.67,1.94-4.22,1.5-9.6c-0.25-3.11-1.42-5.6-2.57-7.37
				c-1.08-1.67-2.15-2.68-2.42-2.93c-2.46,0.32-5.98,1.38-9.84,4.46c-7.28,5.82-14.92,15.65-15.29,22.56
				c-0.03,0.53-0.07,1.11-0.13,1.7c-0.06,0.63-0.13,1.28-0.22,1.96c1.52,6.3,6.31,9.02,6.31,9.02c2.79,0.62,5.69-0.39,8.33-2.03
				c1.3-0.8,2.53-1.76,3.66-2.75c1.13-1,2.16-2.02,3.03-2.97c1.86-2.01,3.01-3.62,3.01-3.62c1.46-2.05,1.39-1.61,1.39-1.61
				c0.11,0.22-0.18,1.26,0.35,1.79c0.53,0.53,4.92-3.48,4.92-7.57C88.23,26,87,27.32,86.41,28.12z"/>
			<path class="st13" d="M109.97,96.33c-0.89-1.03,0.3-30.4-2.66-37.63c-2.57-6.3-1.34-9.35-12.28-11.49
				c-1.63-0.32-3.51-0.62-5.73-0.9c0,0-9.13-0.14-10.76-6.18c-0.87,0.94-1.9,1.97-3.03,2.97c0.84,1.91,1.83,4.7,2.42,8.19
				c0.19,1.12,0.34,2.3,0.43,3.55c0.63,9.07,4.38,12.19,9.38,18.44c3.56,4.45,2.84,21.08,2.14,30.31c-0.03,0.44-0.07,0.87-0.1,1.27
				l7.65-0.1c0,0,3.38-1.36,7.4-0.87c0.76,0.09,1.55,0.25,2.34,0.5c1.66,0.52,3.33,1.44,4.85,2.96c0.21,0.21,0.41,0.43,0.62,0.66
				C112.62,107.99,115.13,102.35,109.97,96.33z"/>
			<g>
				<path class="st13" d="M77.05,47.37c-0.49-1.71-1.03-3.15-1.53-4.29c-1.13,0.99-2.36,1.94-3.66,2.75
					c-2.64,1.63-5.53,2.65-8.33,2.03c0,0-4.78-2.72-6.31-9.02c-0.22,1.71-0.53,3.56-0.97,5.5c2.5,2.56,6.19,7.08,7.16,10.74
					C66.07,55.54,70.35,54.18,77.05,47.37z"/>
				<path class="st13" d="M87.74,73.27c-5-6.25-8.75-9.38-9.38-18.44c-0.09-1.25-0.24-2.44-0.43-3.55c-0.24-1.42-0.55-2.72-0.88-3.9
					c-6.7,6.81-10.98,8.17-13.63,7.7c0.18,0.68,0.28,1.34,0.24,1.94c-0.31,5.31-12.19,19.38-12.82,28.45
					c-0.33,4.82-1.37,12.55-2.22,18.87c-0.05,0.36-0.1,0.72-0.14,1.07l41.29-0.56c0.03-0.4,0.07-0.83,0.1-1.27
					C90.58,94.35,91.3,77.72,87.74,73.27z"/>
			</g>
		</g>
		<circle class="st11" cx="67.1" cy="22.33" r="1"/>
		<circle class="st11" cx="78.14" cy="24.56" r="1"/>
		<path class="st13" d="M71.89,34.16c0,0-3.12,1.34-4.13-1.9"/>
		<path class="st13" d="M71.45,37.28c0,0-1.45,3.79-7.7,0.11"/>
		<path class="st13" d="M88.18,46.43c0,0,1.45,3.57,2.12,5.02c0.67,1.45-4.24-0.22-6.13-0.56c-1.9-0.33-5.91,0.22-6.02,1.56"/>
		<path class="st13" d="M63.67,57.01c0,0-4.16-2.67-10.18,2.35c0,0-1.56-1.67-0.33-5.02"/>
		<path class="st13" d="M35.19,105.32c0.11-0.45,1-4.91,1-4.91s-11.27-6.47-20.97,2.12"/>
		<path class="st13" d="M36.2,100.41c-0.11-2.12,2.01-27.33,0.22-33.91"/>
		<path class="st13" d="M92.86,104.54c0,0-0.89-9.37,16.17-8.37"/>
		<path class="st13" d="M92.42,103.76c0.11-0.67,2.57-31.23-1.45-34.36"/>
		<path class="st13" d="M25.84,113.6c0.65-0.36,82.19-1.92,82.19-1.92"/>
		<line class="st13" x1="106.8" y1="105.1" x2="96.65" y2="104.87"/>
		<path class="st11" d="M101.74,143.49c-1.01,0-67.88,1.74-67.88,1.74l-0.61-1.58l69.33-1.56L101.74,143.49z"/>
		<polygon class="st11" points="89.77,104.84 48.63,104.34 48.48,105.41 		"/>
	</g>
	<g class="st0">
		<line class="st13" x1="976.38" y1="140.33" x2="975.55" y2="94.73"/>
		<g>
			<g>
				<path class="st6" d="M1023.79,110.84l0.86,0.3c-0.03-0.06-0.06-0.12-0.1-0.18c-0.03-0.01-0.05-0.01-0.08-0.02
					C1024.24,110.89,1024.01,110.86,1023.79,110.84z"/>
				<path class="st11" d="M1080.89-8.4c-4.96-1.24-7.09-2.66-13.12-2.48c-6.03,0.18-4.43,0-10.28,1.6s-5.67,4.08-9.57,8.33
					c-2.68,2.92-2.68,9.17-2.42,12.81c0.31-0.27,0.69-0.37,1.18-0.23c1.02,0.29,2.08,4.31,2.49,6c0.03,0.14,0.23,0.14,0.26-0.01
					c0.53-2.89,3.33-11,5.41-11.48c2.3-0.53,3.72,0.53,6.38-1.95s3.54,2.13,7.44,2.66c3.9,0.53,9.93-0.53,10.63,2.84
					c0.57,2.72,0.1,12.64-0.1,16.33c-0.02,0.39,0.47,0.57,0.71,0.26c0.93-1.25,2.4-2.89,2.76-1.34c0.05,0.23,0.06,0.51,0.03,0.8
					c0.69-1.05,1.43-2.59,2.1-4.87c1.95-6.74,3.9-6.2,4.96-9.93c1.06-3.72-4.05-4.55-4.79-10.46
					C1084.79-0.95,1085.85-7.16,1080.89-8.4z"/>
				<path class="st14" d="M1082.66,24.92c-0.36-1.54-1.83,0.09-2.76,1.34c-0.23,0.31-0.73,0.13-0.71-0.26
					c0.2-3.69,0.67-13.6,0.1-16.33c-0.71-3.37-6.73-2.3-10.63-2.84c-3.9-0.53-4.79-5.14-7.44-2.66s-4.08,1.42-6.38,1.95
					c-2.08,0.48-4.87,8.59-5.41,11.48c-0.03,0.14-0.23,0.15-0.26,0.01c-0.4-1.69-1.47-5.7-2.49-6c-0.49-0.14-0.87-0.04-1.18,0.23
					c-1.24,1.09-1.16,5.01-1.3,7.57c-0.18,3.19,3.37,4.96,3.37,4.96l-1.77,8.85l-0.18,0.89c-1.24,6.74,3.54,15.07,4.79,18.79
					c1.24,3.72,6.56,7.98,6.56,7.98c4.43,5.85,2.13,13.12,2.13,13.12c4.96-4.08,9.04-17.01,11.17-21.27
					c0.86-1.72,0.67-3.78,0.15-5.64c-0.2-0.71-0.44-1.39-0.7-2c-0.68-1.59-0.37-3.46,0.88-4.66c2.77-2.67,6.06-7.55,6.06-7.55
					c2.71,0,5.84-4.58,6.06-7.18C1082.72,25.43,1082.72,25.16,1082.66,24.92z"/>
				<path class="st14" d="M1073.45,120.81c-0.18,0.89-3.37,13.12-3.19,18.79c0.14,4.59-2.61,9.05-3.76,10.88
					c1.69,6.63,3.25,12.87,4.17,16.6c3.71-6.05,8.37-18.05,9.16-21.63c0.87-3.9,2.32-21.44,2.83-28.38
					C1078.86,118.83,1073.57,120.22,1073.45,120.81z"/>
				<path class="st15" d="M1082.84,57.36c-4.93-3.04-9.31-7.04-12.44-10.25c0.52,1.85,0.71,3.92-0.15,5.64
					c-2.13,4.25-6.2,17.19-11.17,21.27c0,0,2.3-7.27-2.13-13.12c0,0-5.32-4.25-6.56-7.98c-1.24-3.72-6.03-12.05-4.79-18.79
					l0.18-0.89c-3.58,1.22-10.51,3.75-11.17,5.32c0,0-8.51-3.01-14.71,0.35c-4.83,2.62-10.66,6.6-12.58,18.08
					c-0.55,3.25-2.54,7.55-1.95,12.05c0,0,0.58-0.01,1.5-0.01c3.75,0.02,13.32,0.35,13.75,3.2c0.53,3.54-5.85,13.65-3.54,21.8
					c1.54,5.44,5.2,12.68,7.47,16.91c0.03,0.06,0.06,0.12,0.1,0.18l34.44,11.98c0.33,0.65,1.33,4.19,2.65,9.08
					c1.4,5.2,3.14,11.92,4.76,18.28c1.15-1.82,3.9-6.29,3.76-10.88c-0.18-5.67,3.01-17.9,3.19-18.79c0.12-0.59,5.41-1.98,9.21-3.74
					c1.87-0.87,3.38-1.82,3.73-2.81c1.06-3.01,1.24-26.59,1.77-29.6C1088.69,81.64,1092.59,63.38,1082.84,57.36z"/>
				<path class="st14" d="M1017.09,94.05c-2.3-8.15,4.08-18.26,3.54-21.8c-0.43-2.85-9.99-3.18-13.75-3.2
					c-2.57,3.2-8.56,11.1-9.12,15.96c-0.69,6.02,0.81,13.87,7.86,19.51c0.22,0.17,0.42,0.35,0.64,0.52l3.01,0.89
					c0,0-0.89,6.91,3.37,5.49c2.72-0.91,3.41-2.32,3.55-3.22l0.78,0.27c0.65,0.78,1.73,1.75,3.29,2.24
					c0.84,0.26,2.06-0.03,3.51,0.13c0.22,0.02,0.45,0.06,0.69,0.1c0.03,0.01,0.05,0.01,0.08,0.02
					C1022.29,106.73,1018.62,99.48,1017.09,94.05z"/>
				<path class="st10" d="M1070.66,167.08c-0.91-3.73-2.48-9.97-4.17-16.6c-1.62-6.36-3.36-13.08-4.76-18.28
					c-1.31-4.88-2.32-8.42-2.65-9.08l-34.44-11.98l-0.86-0.3c-1.46-0.16-2.67,0.13-3.51-0.13c-1.57-0.49-2.64-1.46-3.29-2.24
					l-0.78-0.27c-0.15,0.9-0.83,2.31-3.55,3.22c-4.25,1.42-3.37-5.49-3.37-5.49l-3.01-0.89c-0.23-0.17-0.43-0.34-0.64-0.52
					l-32.15-11.18l-13.29,21.45l-0.89,46.08l38.87,12.84l32.52,10.74l21.86,7.22l6.54,2.16c0,0,1.13-2.07,2.7-4.96
					c3.65-6.71,9.7-17.89,9.7-18.26C1071.5,170.53,1071.19,169.21,1070.66,167.08z"/>
			</g>
			<g>
				<path class="st6" d="M1025.85,112.23l0.86,0.3c-0.03-0.06-0.06-0.12-0.1-0.18c-0.03-0.01-0.05-0.01-0.08-0.02
					C1026.3,112.29,1026.08,112.25,1025.85,112.23z"/>
				<path class="st13" d="M1082.95-7c-4.96-1.24-7.09-2.66-13.12-2.48c-6.03,0.18-4.43,0-10.28,1.6s-5.67,4.08-9.57,8.33
					c-2.68,2.92-2.68,9.17-2.42,12.81c0.31-0.27,0.69-0.37,1.18-0.23c1.02,0.29,2.08,4.31,2.49,6c0.03,0.14,0.23,0.14,0.26-0.01
					c0.53-2.89,3.33-11,5.41-11.48c2.3-0.53,3.72,0.53,6.38-1.95s3.54,2.13,7.44,2.66c3.9,0.53,9.93-0.53,10.63,2.84
					c0.57,2.72,0.1,12.64-0.1,16.33c-0.02,0.39,0.47,0.57,0.71,0.26c0.93-1.25,2.4-2.89,2.76-1.34c0.05,0.23,0.06,0.51,0.03,0.8
					c0.69-1.05,1.43-2.59,2.1-4.87c1.95-6.74,3.9-6.2,4.96-9.93c1.06-3.72-4.05-4.55-4.79-10.46
					C1086.85,0.44,1087.92-5.76,1082.95-7z"/>
				<path class="st13" d="M1084.73,26.32c-0.36-1.54-1.83,0.09-2.76,1.34c-0.23,0.31-0.73,0.13-0.71-0.26
					c0.2-3.69,0.67-13.6,0.1-16.33c-0.71-3.37-6.73-2.3-10.63-2.84c-3.9-0.53-4.79-5.14-7.44-2.66s-4.08,1.42-6.38,1.95
					c-2.08,0.48-4.87,8.59-5.41,11.48c-0.03,0.14-0.23,0.15-0.26,0.01c-0.4-1.69-1.47-5.7-2.49-6c-0.49-0.14-0.87-0.04-1.18,0.23
					c-1.24,1.09-1.16,5.01-1.3,7.57c-0.18,3.19,3.37,4.96,3.37,4.96l-1.77,8.85l-0.18,0.89c-1.24,6.74,3.54,15.07,4.79,18.79
					c1.24,3.72,6.56,7.98,6.56,7.98c4.43,5.85,2.13,13.12,2.13,13.12c4.96-4.08,9.04-17.01,11.17-21.27
					c0.86-1.72,0.67-3.78,0.15-5.64c-0.2-0.71-0.44-1.39-0.7-2c-0.68-1.59-0.37-3.46,0.88-4.66c2.77-2.67,6.06-7.55,6.06-7.55
					c2.71,0,5.84-4.58,6.06-7.18C1084.78,26.82,1084.78,26.55,1084.73,26.32z"/>
				<path class="st13" d="M1075.51,122.2c-0.18,0.89-3.37,13.12-3.19,18.79c0.14,4.59-2.61,9.05-3.76,10.88
					c1.69,6.63,3.25,12.87,4.17,16.6c3.71-6.05,8.37-18.05,9.16-21.63c0.87-3.9,2.32-21.44,2.83-28.38
					C1080.92,120.22,1075.63,121.61,1075.51,122.2z"/>
				<path class="st13" d="M1084.9,58.75c-4.93-3.04-9.31-7.04-12.44-10.25c0.52,1.85,0.71,3.92-0.15,5.64
					c-2.13,4.25-6.2,17.19-11.17,21.27c0,0,2.3-7.27-2.13-13.12c0,0-5.32-4.25-6.56-7.98c-1.24-3.72-6.03-12.05-4.79-18.79
					l0.18-0.89c-3.58,1.22-10.51,3.75-11.17,5.32c0,0-8.51-3.01-14.71,0.35c-4.83,2.62-10.66,6.6-12.58,18.08
					c-0.55,3.25-2.54,7.55-1.95,12.05c0,0,0.58-0.01,1.5-0.01c3.75,0.02,13.32,0.35,13.75,3.2c0.53,3.54-5.85,13.65-3.54,21.8
					c1.54,5.44,5.2,12.68,7.47,16.91c0.03,0.06,0.06,0.12,0.1,0.18l34.44,11.98c0.33,0.65,1.33,4.19,2.65,9.08
					c1.4,5.2,3.14,11.92,4.76,18.28c1.15-1.82,3.9-6.29,3.76-10.88c-0.18-5.67,3.01-17.9,3.19-18.79c0.12-0.59,5.41-1.98,9.21-3.74
					c1.87-0.87,3.38-1.82,3.73-2.81c1.06-3.01,1.24-26.59,1.77-29.6C1090.75,83.03,1094.65,64.78,1084.9,58.75z"/>
				<path class="st13" d="M1019.15,95.44c-2.3-8.15,4.08-18.26,3.54-21.8c-0.43-2.85-9.99-3.18-13.75-3.2
					c-2.57,3.2-8.56,11.1-9.12,15.96c-0.69,6.02,0.81,13.87,7.86,19.51c0.22,0.17,0.42,0.35,0.64,0.52l3.01,0.89
					c0,0-0.89,6.91,3.37,5.49c2.72-0.91,3.41-2.32,3.55-3.22l0.78,0.27c0.65,0.78,1.73,1.75,3.29,2.24
					c0.84,0.26,2.06-0.03,3.51,0.13c0.22,0.02,0.45,0.06,0.69,0.1c0.03,0.01,0.05,0.01,0.08,0.02
					C1024.35,108.13,1020.68,100.88,1019.15,95.44z"/>
				<path class="st13" d="M1072.73,168.47c-0.91-3.73-2.48-9.97-4.17-16.6c-1.62-6.36-3.36-13.08-4.76-18.28
					c-1.31-4.88-2.32-8.42-2.65-9.08l-34.44-11.98l-0.86-0.3c-1.46-0.16-2.67,0.13-3.51-0.13c-1.57-0.49-2.64-1.46-3.29-2.24
					l-0.78-0.27c-0.15,0.9-0.83,2.31-3.55,3.22c-4.25,1.42-3.37-5.49-3.37-5.49l-3.01-0.89c-0.23-0.17-0.43-0.34-0.64-0.52
					l-32.15-11.18l-13.29,21.45l-0.89,46.08l38.87,12.84l32.52,10.74l21.86,7.22l6.54,2.16c0,0,1.13-2.07,2.7-4.96
					c3.65-6.71,9.7-17.89,9.7-18.26C1073.56,171.92,1073.25,170.6,1072.73,168.47z"/>
			</g>
			<circle class="st11" cx="1059.81" cy="20.46" r="1.07"/>
			<circle class="st11" cx="1073.46" cy="23.29" r="1.07"/>
			<path class="st13" d="M1071.98,42.69c0,0-8.16,7.32-16.86,0c0,0-5.09-8.48-6.15-13.36"/>
			<path class="st13" d="M1066.46,35.91c0,0-4.88,3.82-9.22-1.8"/>
			<path class="st13" d="M1068.69,29.65c0,0-2.44,2.65-6.47-0.95"/>
			<path class="st13" d="M1079.19,55.1c0,0,5.09,9.44,2.97,11.77c0,0-7.32,0.32-7.42,0.74c-0.11,0.42-0.21,3.07-0.21,3.07
				s-14.53,3.82-17.71,15.06l5.3-11.45"/>
			<path class="st13" d="M1036.69,39.97c0,0,5.74,11.12,5.56,19.97c-0.01,0.65,0.59,1.14,1.23,0.98c3.16-0.77,11.14-2.46,13.33-0.52
				"/>
			<path class="st13" d="M1051.41,59.87c0,0,9.44,11.13,6.36,23.22"/>
			<path class="st13" d="M1075.51,122.2c0.81-1.78,11.89-37.57,11.89-37.57"/>
			<path class="st13" d="M1020.19,100.6c0,0-2.32-4.12-7.98-0.51c-5.66,3.6-3.87,6.34-3.87,6.34"/>
			<path class="st13" d="M1018.27,109.59c0,0,0.32-1.96,0.24-3.13"/>
			<path class="st13" d="M1011.35,107.32c0,0-0.35-1.48,0.83-2.18"/>
			<polyline class="st13" points="1073.56,172.01 976.38,140.33 961.37,162.26 			"/>
		</g>
	</g>
	<g class="st0">
		<g>
			<path class="st7" d="M317.67,161.23l1.31,4.97c1.22-0.33,2.2-0.45,2.2-0.45L317.67,161.23z"/>
			<path class="st16" d="M205.3,30.83c0,0,1.63-0.82,3.06-2.65c1.43-1.84,2.04-2.86,3.47-2.86c1.43,0,2.25-3.06,2.65-4.49
				c0.41-1.43,5.51-0.2,10.62-1.23c5.11-1.02,2.86-0.2,5.51,0.61c2.65,0.82,3.27-2.04,5.92-1.84c2.65,0.2,2.45,1.84,3.27,4.49
				c0.82,2.65,2.04,8.78,2.04,8.78s0.35,0.3,0.81,0.87c0.54-3.31,1.25-10.24,0.62-12.92c-0.82-3.47,0.82-4.49-2.25-6.13
				c-3.06-1.63-2.45-9.8-9.19-10.21c-6.74-0.41-13.68-0.82-16.54,2.65c-2.86,3.47-10.62,4.08-10.01,7.35
				c0.61,3.27-1.23,2.65-2.04,7.15c-0.82,4.49-2.04,6.94-0.41,9.19c1.04,1.44,3.59,5.37,5.29,8.03c0.14,0.08,0.22,0.14,0.22,0.14
				L205.3,30.83z"/>
			<path class="st7" d="M235.54,64.31c0.1-0.39,0.2-0.79,0.29-1.19c-0.24,0.16-0.47,0.31-0.73,0.47
				c-7.15,4.29-10.82-1.63-13.89-3.47c-0.76-0.46-1.69-1.43-2.65-2.64c-0.27,2.22-0.57,5.44-0.54,8.59
				c1.37,1.43,2.84,3.42,4.14,5.36C227.41,68.64,232.02,66.18,235.54,64.31z"/>
			<path class="st12" d="M241.11,61.35c1-0.53,1.54-0.82,1.54-0.82l5.94,0.1c-0.77-1.93-2.08-4.52-3.89-5.61
				c-0.74-0.45-1.61-0.38-2.49-0.04c-0.08,0.59-0.37,1.84-1.38,3.39L241.11,61.35z"/>
			<path class="st7" d="M240.83,58.37c-0.92,1.43-2.46,3.11-5,4.76c-0.09,0.4-0.19,0.8-0.29,1.19c2.44-1.3,4.35-2.31,5.57-2.96
				L240.83,58.37z"/>
			<path class="st7" d="M242.66,33.17c-0.46-0.57-0.81-0.87-0.81-0.87s-1.23-6.13-2.04-8.78c-0.82-2.65-0.61-4.29-3.27-4.49
				c-2.65-0.2-3.27,2.65-5.92,1.84c-2.65-0.82-0.41-1.63-5.51-0.61c-5.11,1.02-10.21-0.2-10.62,1.23c-0.41,1.43-1.23,4.49-2.65,4.49
				c-1.43,0-2.04,1.02-3.47,2.86c-1.43,1.84-3.06,2.65-3.06,2.65l3.06,6.94c0,0-0.09-0.06-0.22-0.14c-0.64-0.38-2.47-1.3-2.64,0.55
				c-0.2,2.25,3.06,10.62,5.31,10.21c0,0,3.23,5.77,6.13,9.41c0.96,1.21,1.89,2.18,2.65,2.64c3.06,1.84,6.74,7.76,13.89,3.47
				c0.26-0.16,0.49-0.31,0.73-0.47c2.54-1.65,4.08-3.33,5-4.76c1-1.55,1.3-2.8,1.38-3.39c0.03-0.23,0.04-0.37,0.04-0.37l0.41-9.19
				c0,0,3.8-1.85,4.08-6.54C245.65,31.16,243.63,34.35,242.66,33.17z"/>
			<path class="st12" d="M218.02,66.07c-1.19-1.24-2.29-2.07-3.14-2.07c-3.27,0-6.33,5.72-13.68,8.78
				c-7.35,3.06-21.85,8.17-20.83,16.75c0.18,1.51,0.4,2.77,0.64,3.84c12.05-6.44,26.22-13.99,37.94-20.23
				c1.09-0.58,2.17-1.15,3.21-1.71C220.86,69.49,219.39,67.51,218.02,66.07z"/>
			<path class="st7" d="M161.15,104.6c0-0.39,0.23-0.86,0.58-1.38c1.86-2.74,7.23-6.65,0.65-5.61c-7.81,1.23-6.58,13.15-6.17,18.09
				c0.18,2.18-0.13,9.2,2.06,13.56c2.77,5.52,8.17,8.44,8.63,10.28c0.65,2.6,5.66,3.9,7.93,2.72c0.6-0.31,1.02-0.79,1.11-1.48
				C176.36,137.48,161.15,104.6,161.15,104.6z"/>
			<path class="st7" d="M318.91,144.78c0.83,0,10.17-4.57,8.51-8.3c-1.11-2.5-9.57,1.59-15.08,4.58l1.43,5.39
				C316.31,145.55,318.57,144.78,318.91,144.78z"/>
			<path class="st7" d="M325.34,165.96c-1.39-1.77-5.63-5.85-8.74-8.77l1.07,4.05l3.52,4.52c0,0-0.98,0.11-2.2,0.45
				c-2.12,0.58-4.99,1.83-4.86,4.33c0,0-8.3,1.04-7.68,5.81c0,0-6.85,3.94-5.4,6.02c0.05,0.08,0.12,0.14,0.19,0.21
				c1.67,1.81,6.79,1.14,9.99-1.66l2.49-2.08c0,0,5.81,1.25,5.81-4.15c0,0,5.81,1.87,6.85-1.04
				C327.42,170.74,327.63,168.87,325.34,165.96z"/>
			<path class="st17" d="M317.67,161.23l-1.07-4.05l-2.84-10.73l-1.43-5.39l-21.08-79.72l-42.67-0.72l-5.94-0.1
				c0,0-0.54,0.29-1.54,0.82c-1.22,0.65-3.14,1.67-5.57,2.96c-3.52,1.87-8.13,4.32-13.38,7.12c-1.05,0.56-2.12,1.13-3.21,1.71
				c-11.72,6.24-25.89,13.79-37.94,20.23c-9.06,4.84-16.91,9.05-21.63,11.61c-0.35,0.51-0.58,0.99-0.58,1.38
				c0,0,15.21,32.88,14.8,36.17c-0.09,0.69-0.51,1.17-1.11,1.48c10.47,21.67,21.66,44.97,21.66,44.97s0.72,0.94,0.76,0.99
				c1.44,1.88,29.25,38.06,29.25,38.06l0.6-0.36l13.34-7.86l38.46-22.68l24.68-14.56c-0.06-0.07-0.13-0.13-0.19-0.21
				c-1.45-2.08,5.4-6.02,5.4-6.02c-0.62-4.77,7.68-5.81,7.68-5.81c-0.13-2.5,2.74-3.75,4.86-4.33L317.67,161.23z"/>
		</g>
		<g>
			<path class="st6" d="M317.98,159.94l1.31,4.97c1.22-0.33,2.2-0.45,2.2-0.45L317.98,159.94z"/>
			<path class="st13" d="M207.22,29.22c0,0,1.63-0.82,3.06-2.65c1.43-1.84,2.04-2.86,3.47-2.86c1.43,0,2.25-3.06,2.65-4.49
				c0.41-1.43,5.51-0.2,10.62-1.23c5.11-1.02,2.86-0.2,5.51,0.61c2.65,0.82,3.27-2.04,5.92-1.84c2.65,0.2,2.45,1.84,3.27,4.49
				c0.82,2.65,2.04,8.78,2.04,8.78s0.35,0.3,0.81,0.87c0.54-3.31,1.25-10.24,0.62-12.92c-0.82-3.47,0.82-4.49-2.25-6.13
				c-3.06-1.63-2.45-9.8-9.19-10.21c-6.74-0.41-13.68-0.82-16.54,2.65c-2.86,3.47-10.62,4.08-10.01,7.35
				c0.61,3.27-1.23,2.65-2.04,7.15c-0.82,4.49-2.04,6.94-0.41,9.19c1.04,1.44,3.59,5.37,5.29,8.03c0.14,0.08,0.22,0.14,0.22,0.14
				L207.22,29.22z"/>
			<path class="st13" d="M235.84,63.02c0.1-0.39,0.2-0.79,0.29-1.19c-0.24,0.16-0.47,0.31-0.73,0.47
				c-7.15,4.29-10.82-1.63-13.89-3.47c-0.76-0.46-1.69-1.43-2.65-2.64c-0.27,2.22-0.57,5.44-0.54,8.59
				c1.37,1.43,2.84,3.42,4.14,5.36C227.71,67.34,232.33,64.89,235.84,63.02z"/>
			<path class="st13" d="M241.42,60.06c1-0.53,1.54-0.82,1.54-0.82l5.94,0.1c-0.77-1.93-2.08-4.52-3.89-5.61
				c-0.74-0.45-1.61-0.38-2.49-0.04c-0.08,0.59-0.37,1.84-1.38,3.39L241.42,60.06z"/>
			<path class="st13" d="M241.14,57.08c-0.92,1.43-2.46,3.11-5,4.76c-0.09,0.4-0.19,0.8-0.29,1.19c2.44-1.3,4.35-2.31,5.57-2.96
				L241.14,57.08z"/>
			<path class="st13" d="M244.58,30.9c-0.46-0.57-0.81-0.87-0.81-0.87s-1.23-6.13-2.04-8.78c-0.82-2.65-0.61-4.29-3.27-4.49
				c-2.65-0.2-3.27,2.65-5.92,1.84c-2.65-0.82-0.41-1.63-5.51-0.61c-5.11,1.02-10.21-0.2-10.62,1.23c-0.41,1.43-1.23,4.49-2.65,4.49
				c-1.43,0-2.04,1.02-3.47,2.86c-1.43,1.84-3.06,2.65-3.06,2.65l3.06,6.94c0,0-0.09-0.06-0.22-0.14c-0.64-0.38-2.47-1.3-2.64,0.55
				c-0.2,2.25,3.06,10.62,5.31,10.21c0,0,3.23,5.77,6.13,9.41c0.96,1.21,1.89,2.18,2.65,2.64c3.06,1.84,6.74,7.76,13.89,3.47
				c0.26-0.16,0.49-0.31,0.73-0.47c2.54-1.65,4.08-3.33,5-4.76c1-1.55,1.3-2.8,1.38-3.39c0.03-0.23,0.04-0.37,0.04-0.37l0.41-9.19
				c0,0,3.8-1.85,4.08-6.54C247.57,28.9,245.55,32.08,244.58,30.9z"/>
			<path class="st13" d="M218.33,64.78c-1.19-1.24-2.29-2.07-3.14-2.07c-3.27,0-6.33,5.72-13.68,8.78
				c-7.35,3.06-21.85,8.17-20.83,16.75c0.18,1.51,0.4,2.77,0.64,3.84c12.05-6.44,26.22-13.99,37.94-20.23
				c1.09-0.58,2.17-1.15,3.21-1.71C221.16,68.2,219.69,66.21,218.33,64.78z"/>
			<path class="st13" d="M159.1,105.07c0-0.39,0.23-0.86,0.58-1.38c1.86-2.74,7.23-6.65,0.65-5.61c-7.81,1.23-6.58,13.15-6.17,18.09
				c0.18,2.18-0.13,9.2,2.06,13.56c2.77,5.52,8.17,8.44,8.63,10.28c0.65,2.6,5.66,3.9,7.93,2.72c0.6-0.31,1.02-0.79,1.11-1.48
				C174.31,137.95,159.1,105.07,159.1,105.07z"/>
			<path class="st13" d="M319.21,143.49c0.83,0,10.17-4.57,8.51-8.3c-1.11-2.5-9.57,1.59-15.08,4.58l1.43,5.39
				C316.61,144.26,318.87,143.49,319.21,143.49z"/>
			<path class="st13" d="M325.64,164.67c-1.39-1.77-5.63-5.85-8.74-8.77l1.07,4.05l3.52,4.52c0,0-0.98,0.11-2.2,0.45
				c-2.12,0.58-4.99,1.83-4.86,4.33c0,0-8.3,1.04-7.68,5.81c0,0-6.85,3.94-5.4,6.02c0.05,0.08,0.12,0.14,0.19,0.21
				c1.67,1.81,6.79,1.14,9.99-1.66l2.49-2.08c0,0,5.81,1.25,5.81-4.15c0,0,5.81,1.87,6.85-1.04
				C327.72,169.44,327.93,167.57,325.64,164.67z"/>
			<path class="st13" d="M317.98,159.94l-1.07-4.05l-2.84-10.73l-1.43-5.39l-21.08-79.72l-42.67-0.72l-5.94-0.1
				c0,0-0.54,0.29-1.54,0.82c-1.22,0.65-3.14,1.67-5.57,2.96c-3.52,1.87-8.13,4.32-13.38,7.12c-1.05,0.56-2.12,1.13-3.21,1.71
				c-11.72,6.24-25.89,13.79-37.94,20.23c-9.06,4.84-16.91,9.05-21.63,11.61c-0.35,0.51-0.58,0.99-0.58,1.38
				c0,0,15.21,32.88,14.8,36.17c-0.09,0.69-0.51,1.17-1.11,1.48c10.47,21.67,21.66,44.97,21.66,44.97s0.72,0.94,0.76,0.99
				c1.44,1.88,29.25,38.06,29.25,38.06l0.6-0.36l13.34-7.86l38.46-22.68l24.68-14.56c-0.06-0.07-0.13-0.13-0.19-0.21
				c-1.45-2.08,5.4-6.02,5.4-6.02c-0.62-4.77,7.68-5.81,7.68-5.81c-0.13-2.5,2.74-3.75,4.86-4.33L317.98,159.94z"/>
		</g>
		<path class="st13" d="M231.94,47.83c0,0-2.34,4.97-7.89,4.09c0,0,2.34,3.51,7.89,0.29"/>
		<polyline class="st13" points="291.56,60.05 177.85,121.52 159.1,105.07 		"/>
		<line class="st13" x1="225.06" y1="226.38" x2="177.85" y2="121.52"/>
		<path class="st13" d="M228.14,41.11c0,0,2.05,5.26-4.09,3.22"/>
		<circle class="st11" cx="218.84" cy="33.94" r="1.03"/>
		<circle class="st11" cx="234.14" cy="32.16" r="1.03"/>
	</g>
	<g class="st0">
		<g>
			<path class="st10" d="M854.73,96.62l-0.65,2.47c-0.61-0.17-1.1-0.22-1.1-0.22L854.73,96.62z"/>
			<path class="st10" d="M895.61,48.38c-0.05-0.19-0.1-0.39-0.14-0.59c0.12,0.08,0.23,0.16,0.36,0.23c3.56,2.13,5.39-0.81,6.91-1.73
				c0.38-0.23,0.84-0.71,1.32-1.31c0.13,1.11,0.28,2.71,0.27,4.27c-0.68,0.71-1.41,1.7-2.06,2.67
				C899.65,50.53,897.36,49.31,895.61,48.38z"/>
			<path class="st12" d="M892.83,46.91c-0.5-0.26-0.77-0.41-0.77-0.41l-2.95,0.05c0.38-0.96,1.03-2.25,1.94-2.79
				c0.37-0.22,0.8-0.19,1.24-0.02c0.04,0.29,0.19,0.91,0.69,1.69L892.83,46.91z"/>
			<path class="st10" d="M892.97,45.42c0.46,0.71,1.23,1.55,2.49,2.37c0.05,0.2,0.1,0.4,0.14,0.59c-1.21-0.65-2.17-1.15-2.77-1.47
				L892.97,45.42z"/>
			<path class="st10" d="M891.77,32.38c0.23-0.28,0.4-0.43,0.4-0.43s0.61-3.05,1.02-4.37c0.41-1.32,0.3-2.13,1.63-2.24
				c1.32-0.1,1.63,1.32,2.95,0.91s0.2-0.81,2.74-0.3c2.54,0.51,5.08-0.1,5.28,0.61c0.2,0.71,0.61,2.24,1.32,2.24
				s1.02,0.51,1.73,1.42c0.71,0.91,1.52,1.32,1.52,1.32l-1.52,3.46c0,0,0.04-0.03,0.11-0.07c0.32-0.19,1.23-0.65,1.31,0.27
				c0.1,1.12-1.52,5.28-2.64,5.08c0,0-1.61,2.87-3.05,4.68c-0.48,0.6-0.94,1.08-1.32,1.31c-1.52,0.91-3.35,3.86-6.91,1.73
				c-0.13-0.08-0.24-0.16-0.36-0.23c-1.26-0.82-2.03-1.66-2.49-2.37c-0.5-0.77-0.65-1.39-0.69-1.69c-0.02-0.12-0.02-0.19-0.02-0.19
				l-1.14-6.13c0,0-0.95,0.64-1.09-1.7C890.29,31.38,891.29,32.96,891.77,32.38z"/>
			<path class="st12" d="M904.32,49.26c0.59-0.62,1.14-1.03,1.56-1.03c1.63,0,3.15,2.85,6.81,4.37c3.66,1.52,10.87,4.07,10.37,8.33
				c-0.09,0.75-0.2,1.38-0.32,1.91c-6-3.21-13.05-6.96-18.88-10.07c-0.54-0.29-1.08-0.57-1.6-0.85
				C902.91,50.96,903.64,49.97,904.32,49.26z"/>
			<path class="st10" d="M932.62,68.43c0-0.19-0.11-0.43-0.29-0.69c-0.93-1.36-3.6-3.31-0.33-2.79c3.89,0.61,3.27,6.55,3.07,9
				c-0.09,1.08,0.06,4.58-1.02,6.75c-1.38,2.75-4.07,4.2-4.3,5.11c-0.32,1.29-2.82,1.94-3.95,1.35c-0.3-0.16-0.51-0.4-0.55-0.74
				C925.06,84.8,932.62,68.43,932.62,68.43z"/>
			<path class="st10" d="M854.12,88.43c-0.41,0-5.06-2.27-4.24-4.13c0.55-1.24,4.76,0.79,7.5,2.28l-0.71,2.68
				C855.41,88.81,854.29,88.43,854.12,88.43z"/>
			<path class="st10" d="M850.91,98.97c0.69-0.88,2.8-2.91,4.35-4.37l-0.53,2.01l-1.75,2.25c0,0,0.49,0.06,1.1,0.22
				c1.06,0.29,2.48,0.91,2.42,2.15c0,0,4.13,0.52,3.82,2.89c0,0,3.41,1.96,2.69,3c-0.03,0.04-0.06,0.07-0.09,0.1
				c-0.83,0.9-3.38,0.57-4.97-0.83l-1.24-1.03c0,0-2.89,0.62-2.89-2.07c0,0-2.89,0.93-3.41-0.52S849.78,100.42,850.91,98.97z"/>
			<path class="st8" d="M854.73,96.62l0.53-2.01l1.41-5.34l0.71-2.68l10.49-39.67l21.23-0.36l2.95-0.05c0,0,0.27,0.14,0.77,0.41
				c0.61,0.32,1.56,0.83,2.77,1.47c1.75,0.93,4.05,2.15,6.66,3.54c0.52,0.28,1.06,0.56,1.6,0.85c5.83,3.1,12.88,6.86,18.88,10.07
				c4.51,2.41,8.42,4.51,10.76,5.78c0.17,0.26,0.29,0.49,0.29,0.69c0,0-7.57,16.36-7.36,18c0.04,0.34,0.25,0.58,0.55,0.74
				c-5.21,10.78-10.78,22.38-10.78,22.38s-0.36,0.47-0.38,0.49c-0.72,0.93-14.55,18.94-14.55,18.94l-0.3-0.18l-6.64-3.91
				l-19.14-11.29l-12.28-7.24c0.03-0.03,0.07-0.07,0.09-0.1c0.72-1.03-2.69-3-2.69-3c0.31-2.38-3.82-2.89-3.82-2.89
				c0.07-1.24-1.36-1.86-2.42-2.15L854.73,96.62z"/>
			<path class="st11" d="M913.55,169.17c1.46,1.77,5.32-0.31,5.32-0.31l8.98,12.63c0,0,1.04,3.03,0.52,4.91
				c-0.52,1.88-3.86,1.98-3.86,1.98c-4.07,0.1-7.52-8.46-10.33-11.27c-2.82-2.82-3.44-3.55-3.86-5.95
				c-0.31-1.79,1.11-3.57,1.86-4.37l-0.09,0.61C912.08,167.4,912.08,167.4,913.55,169.17z"/>
			<path class="st10" d="M912.17,166.79l0.42-2.93c1.35,0.05,4.67-0.73,6.28-1.14v6.14c0,0-3.86,2.09-5.32,0.31
				c-1.46-1.77-1.46-1.77-1.46-1.77L912.17,166.79z"/>
			<g>
				<path class="st7" d="M917,109.45c1.41,9.53,3.74,26.16,3.23,28.56c-0.73,3.39,0.73,23.01,0.73,23.01s-0.35,0.09-0.91,0.23
					c-1.61,0.4-4.93,1.18-6.28,1.14c-0.29-0.01-0.5-0.06-0.56-0.16c-0.48-0.73-4.12-12.84-6.3-18.65
					c-1.15-3.08-3.13-9.56-4.76-15.37l0.3,0.18C902.44,128.39,916.28,110.39,917,109.45z"/>
				<path class="st7" d="M876.36,113.01l19.14,11.29c-3.43,5.64-9.38,15.58-10.4,18.31c-1.45,3.88-7.51,21.8-9.93,22.53
					c-2.42,0.73-4.12-0.24-4.36-0.97c0-0.01,0-0.03,0-0.05C870.73,162.64,874.68,127.76,876.36,113.01z"/>
			</g>
			<path class="st11" d="M868.45,169.8c0.21,0.94,2.4,0.94,3.86,0.52c0.8-0.23,1.37-1.29,1.65-2.22c0.64,0.71,1.55,2.01,1.48,3.58
				c-0.1,2.4-3.97,3.44-4.59,5.43c-0.63,1.98-2.92,11.38-8.35,11.9c0,0-3.72-0.11-3.86-2.3c-0.31-4.91,5.11-10.75,5.53-11.27
				c0.34-0.42,2.79-4.19,4.27-5.95C868.43,169.61,868.43,169.72,868.45,169.8z"/>
			<path class="st10" d="M868.44,169.49c0.06-0.92,0.78-2.86,1.19-3.91c0,0.02,0,0.04,0,0.05c0.24,0.73,1.94,1.7,4.36,0.97
				c0.23,0.03,0.2,0.72-0.03,1.5c-0.28,0.93-0.86,1.99-1.65,2.22c-1.46,0.42-3.65,0.42-3.86-0.52
				C868.43,169.72,868.43,169.61,868.44,169.49z"/>
		</g>
		<g>
			<path class="st6" d="M854.58,95.97l-0.65,2.47c-0.61-0.17-1.1-0.22-1.1-0.22L854.58,95.97z"/>
			<path class="st13" d="M895.45,47.74c-0.05-0.19-0.1-0.39-0.14-0.59c0.12,0.08,0.23,0.16,0.36,0.23c3.56,2.13,5.39-0.81,6.91-1.73
				c0.38-0.23,0.84-0.71,1.32-1.31c0.13,1.11,0.28,2.71,0.27,4.27c-0.68,0.71-1.41,1.7-2.06,2.67
				C899.5,49.89,897.2,48.67,895.45,47.74z"/>
			<path class="st13" d="M892.68,46.26c-0.5-0.26-0.77-0.41-0.77-0.41l-2.95,0.05c0.38-0.96,1.03-2.25,1.94-2.79
				c0.37-0.22,0.8-0.19,1.24-0.02c0.04,0.29,0.19,0.91,0.69,1.69L892.68,46.26z"/>
			<path class="st13" d="M892.82,44.78c0.46,0.71,1.23,1.55,2.49,2.37c0.05,0.2,0.1,0.4,0.14,0.59c-1.21-0.65-2.17-1.15-2.77-1.47
				L892.82,44.78z"/>
			<path class="st13" d="M891.57,32.04c0.23-0.28-0.06-0.72-0.06-0.72s0.61-3.05,1.02-4.37c0.41-1.32,0.3-2.13,1.63-2.24
				c1.32-0.1,1.63,1.32,2.95,0.91c1.32-0.41,0.2-0.81,2.74-0.3s5.08-0.1,5.28,0.61c0.2,0.71,0.61,2.24,1.32,2.24
				s1.02,0.51,1.73,1.42c0.71,0.91,1.52,1.32,1.52,1.32l-1.52,3.46c0,0,0.04-0.03,0.11-0.07c0.32-0.19,1.23-0.65,1.31,0.27
				c0.1,1.12-1.52,5.28-2.64,5.08c0,0-0.9,2.96-3.05,4.68c-0.6,0.48-0.94,1.08-1.32,1.31c-1.52,0.91-3.35,3.86-6.91,1.73
				c-0.13-0.08-0.24-0.16-0.36-0.23c-1.26-0.82-2.03-1.66-2.49-2.37c-0.5-0.77-0.65-1.39-0.69-1.69c-0.02-0.12-0.02-0.19-0.02-0.19
				l-0.91-5.29c0,0-1.19-0.2-1.33-2.53C889.62,30.76,891.09,32.63,891.57,32.04z"/>
			<path class="st13" d="M904.17,48.61c0.59-0.62,1.14-1.03,1.56-1.03c1.63,0,3.15,2.85,6.81,4.37c3.66,1.52,10.87,4.07,10.37,8.33
				c-0.09,0.75-0.2,1.38-0.32,1.91c-6-3.21-13.05-6.96-18.88-10.07c-0.54-0.29-1.08-0.57-1.6-0.85
				C902.76,50.32,903.49,49.33,904.17,48.61z"/>
			<path class="st13" d="M933.65,68.67c0-0.19-0.11-0.43-0.29-0.69c-0.93-1.36-3.6-3.31-0.33-2.79c3.89,0.61,3.27,6.55,3.07,9
				c-0.09,1.08,0.06,4.58-1.02,6.75c-1.38,2.75-4.07,4.2-4.3,5.11c-0.32,1.29-2.82,1.94-3.95,1.35c-0.3-0.16-0.51-0.4-0.55-0.74
				C926.08,85.03,933.65,68.67,933.65,68.67z"/>
			<path class="st13" d="M853.97,87.79c-0.41,0-5.06-2.27-4.24-4.13c0.55-1.24,4.76,0.79,7.5,2.28l-0.71,2.68
				C855.26,88.17,854.14,87.79,853.97,87.79z"/>
			<path class="st13" d="M850.76,98.33c0.69-0.88,2.8-2.91,4.35-4.37l-0.53,2.01l-1.75,2.25c0,0,0.49,0.06,1.1,0.22
				c1.06,0.29,2.48,0.91,2.42,2.15c0,0,4.13,0.52,3.82,2.89c0,0,3.41,1.96,2.69,3c-0.03,0.04-0.06,0.07-0.09,0.1
				c-0.83,0.9-3.38,0.57-4.97-0.83l-1.24-1.03c0,0-2.89,0.62-2.89-2.07c0,0-2.89,0.93-3.41-0.52
				C849.73,100.7,849.63,99.77,850.76,98.33z"/>
			<path class="st13" d="M854.58,95.97l0.53-2.01l1.41-5.34l0.71-2.68l10.49-39.67l21.23-0.36l2.95-0.05c0,0,0.27,0.14,0.77,0.41
				c0.61,0.32,1.56,0.83,2.77,1.47c1.75,0.93,4.05,2.15,6.66,3.54c0.52,0.28,1.06,0.56,1.6,0.85c5.83,3.1,12.88,6.86,18.88,10.07
				c4.51,2.41,8.42,4.51,10.76,5.78c0.17,0.26,0.29,0.49,0.29,0.69c0,0-7.57,16.36-7.36,18c0.04,0.34,0.25,0.58,0.55,0.74
				c-5.21,10.78-10.78,22.38-10.78,22.38s-0.36,0.47-0.38,0.49c-0.72,0.93-14.55,18.94-14.55,18.94l-0.3-0.18l-6.64-3.91
				l-19.14-11.29l-12.28-7.24c0.03-0.03,0.07-0.07,0.09-0.1c0.72-1.03-2.69-3-2.69-3c0.31-2.38-3.82-2.89-3.82-2.89
				c0.07-1.24-1.36-1.86-2.42-2.15L854.58,95.97z"/>
			<path class="st13" d="M913.4,168.53c1.46,1.77,5.32-0.31,5.32-0.31l8.98,12.63c0,0,1.04,3.03,0.52,4.91
				c-0.52,1.88-3.86,1.98-3.86,1.98c-4.07,0.1-7.52-8.46-10.33-11.27c-2.82-2.82-3.44-3.55-3.86-5.95
				c-0.31-1.79,1.11-3.57,1.86-4.37l-0.09,0.61C911.93,166.76,911.93,166.76,913.4,168.53z"/>
			<path class="st13" d="M912.02,166.14l0.42-2.93c1.35,0.05,4.67-0.73,6.28-1.14v6.14c0,0-3.86,2.09-5.32,0.31
				c-1.46-1.77-1.46-1.77-1.46-1.77L912.02,166.14z"/>
			<g>
				<path class="st13" d="M915.68,110.27c1.41,9.53,3.74,26.16,3.23,28.56c-0.73,3.39,0.73,23.01,0.73,23.01s-0.35,0.09-0.91,0.23
					c-1.61,0.4-4.93,1.18-6.28,1.14c-0.29-0.01-0.5-0.06-0.56-0.16c-0.48-0.73-4.12-12.84-6.3-18.65
					c-1.15-3.08-3.13-9.56-4.76-15.37l0.3,0.18C901.12,129.22,914.96,111.21,915.68,110.27z"/>
				<path class="st13" d="M875.04,113.84l19.14,11.29c-3.43,5.64-9.38,15.58-10.4,18.31c-1.45,3.88-7.51,21.8-9.93,22.53
					s-4.12-0.24-4.36-0.97c0-0.01,0-0.03,0-0.05C869.4,163.46,873.36,128.58,875.04,113.84z"/>
			</g>
			<path class="st13" d="M868.3,169.16c0.21,0.94,2.4,0.94,3.86,0.52c0.8-0.23,1.37-1.29,1.65-2.22c0.64,0.71,1.55,2.01,1.48,3.58
				c-0.1,2.4-3.97,3.44-4.59,5.43c-0.63,1.98-2.92,11.38-8.35,11.9c0,0-3.72-0.11-3.86-2.3c-0.31-4.91,5.11-10.75,5.53-11.27
				c0.34-0.42,2.79-4.19,4.27-5.95C868.28,168.97,868.28,169.08,868.3,169.16z"/>
			<path class="st13" d="M868.29,168.85c0.06-0.92,0.78-2.86,1.19-3.91c0,0.02,0,0.04,0,0.05c0.24,0.73,1.94,1.7,4.36,0.97
				c0.23,0.03,0.2,0.72-0.03,1.5c-0.28,0.93-0.86,1.99-1.65,2.22c-1.46,0.42-3.65,0.42-3.86-0.52
				C868.28,169.08,868.28,168.97,868.29,168.85z"/>
			<path class="st11" d="M889.31,27.96c0.25-0.59,0.41-1.23,0.49-1.87c0.07-0.61-0.02-1.26,0.13-1.86c0.14-0.56,0.55-0.93,0.99-1.28
				c0.47-0.38,0.96-0.73,1.45-1.07c1.05-1.29,1.15-4.5,4.12-4.68c0.5-0.03,1-0.06,1.49-0.08c0.44-0.42,1.3-0.35,1.84-0.15
				c0.09,0.03,0.17,0.07,0.26,0.1c0.42,0.01,0.83,0.03,1.22,0.06c0.09-0.04,0.17-0.09,0.25-0.15c0.46-0.31,0.88-0.57,1.44-0.63
				c0.58-0.06,1.17,0.08,1.7,0.29c0.51,0.19,1.1,0.41,1.53,0.75c0.42,0.34,0.39,0.9,0.78,1.26c0.37,0.34,0.9,0.47,1.37,0.58
				c0.67,0.16,1.46,0.38,1.95,0.88c0.04-0.01,0.09-0.02,0.14,0c0.72,0.21,1.31,0.82,1.49,1.55c0.23,0.19,0.44,0.39,0.6,0.65
				c0.48,0.78,0.32,1.72,0.39,2.58c0.07,0.91,0.7,1.7,0.7,2.62c0,0.39-0.14,0.75-0.34,1.08c-0.18,0.3-0.42,0.59-0.49,0.93
				c0.41,0.16,0.71,0.54,0.84,0.97c0.18,0.6,0,1.21-0.33,1.72c-0.37,0.57-0.88,1.11-1.4,1.56c-0.58,0.51-1.27,0.79-2.04,0.84
				c-0.28,0.02-0.34-0.33-0.16-0.48c0,0,0,0,0,0c0,0,0,0,0,0c-0.01-0.01-0.02-0.02-0.04-0.04c-0.04,0-0.08,0-0.12,0
				c-0.03,0-0.06,0-0.09,0.01c-0.01,0-0.02,0-0.02,0c0,0,0,0-0.01,0c-0.05,0.01-0.1,0.02-0.15,0.03c-0.04,0.01-0.09,0.03-0.13,0.04
				c-0.01,0-0.05,0.02-0.06,0.02c-0.03,0.01-0.05,0.03-0.08,0.04c-0.05,0.03-0.09,0.05-0.13,0.08c0,0,0,0,0,0
				c-0.01,0.01-0.02,0.02-0.03,0.03c-0.02,0.02-0.04,0.04-0.07,0.06c-0.17,0.17-0.46,0.04-0.47-0.17c-0.01,0.02-0.03,0.04-0.04,0.06
				c-0.07,0.04-0.11,0.07-0.11,0.07l1.52-3.46c0,0-0.81-0.41-1.52-1.32c-0.71-0.91-1.02-1.42-1.73-1.42c-0.71,0-1.12-1.52-1.32-2.24
				c-0.2-0.71-2.74-0.1-5.28-0.61c-2.54-0.51-1.42-0.1-2.74,0.3c-1.32,0.41-1.63-1.02-2.95-0.91c-1.32,0.1-1.22,0.91-1.63,2.24
				c-0.34,1.1-0.81,3.38-0.97,4.13v0.6c0,0.07-0.03,0.14-0.08,0.19c0.03,0.21-0.26,0.43-0.47,0.24c-0.48-0.44-0.97-0.86-1.44-1.31
				c-0.35-0.34-0.67-0.74-0.74-1.23C888.75,28.98,889.1,28.47,889.31,27.96z"/>
			
				<ellipse transform="matrix(0.3187 -0.9479 0.9479 0.3187 582.0705 880.9031)" class="st13" cx="903.81" cy="35.55" rx="2.06" ry="2.68"/>
			
				<ellipse transform="matrix(0.3187 -0.9479 0.9479 0.3187 578.4603 872.9839)" class="st13" cx="896.49" cy="34.1" rx="2.06" ry="2.68"/>
			<path class="st13" d="M899.03,34.96c0,0,1.81-0.67,2.17,0.41"/>
			<path class="st13" d="M893.95,33.25c-1.66-0.78-2.4-2.17-2.4-2.17"/>
			<line class="st13" x1="906.78" y1="35.66" x2="909.67" y2="33.05"/>
		</g>
		<path class="st13" d="M901.32,42.22c0,0-1.16,1.75-3.93,0.15"/>
		<polyline class="st13" points="867.72,46.26 924.32,76.85 933.65,68.67 		"/>
		<line class="st13" x1="900.82" y1="129.04" x2="924.32" y2="76.85"/>
		<path class="st13" d="M899.83,35.3c0,0-2.77,4.78,0.29,3.77"/>
		<circle class="st11" cx="903.94" cy="34.16" r="0.51"/>
		<circle class="st11" cx="896.3" cy="32.38" r="0.51"/>
		<polygon class="st11" points="915.68,110.27 916.4,114.71 900.85,129.66 901.12,129.22 		"/>
		<polygon class="st11" points="874.72,115.14 893.91,125.42 894.18,125.12 875.04,113.84 		"/>
	</g>
	<g class="st0">
		<g>
			<path class="st6" d="M1201.13,246.26c-1.34-1.34,1.61-8.07,2.69-16.67c1.08-8.6-4.3-69.1-4.3-69.1s-13.18,33.07-12.1,39.26
				c1.08,6.18,11.02,42.48,11.02,42.48c-0.4,0.34-0.87,0.66-1.38,0.97l3.74,3.48C1201.01,246.41,1201.13,246.26,1201.13,246.26z"/>
			<path class="st6" d="M1214.79,40.97c-0.3,0.39-0.59,0.7-0.87,0.92c-0.68,2.02-1.33,3.99-1.49,4.69
				c-0.19,0.84,0.56,1.68,1.35,2.37c1.26,0.8,3.68,2.43,6.45,4.16c-1-2.26-1.45-4.55-0.45-7.03c1.29-3.19,3.24-6.42,4.35-9.71
				C1221.35,37.01,1217.3,37.65,1214.79,40.97z"/>
			<path class="st15" d="M1247.69,27.39c-2.88-3.4-5.11-3.61-3.49-9.84s-3.74-7.73-3.74-7.73c-9.84-6.35-15.08,0-14.58,1
				c2.49,1.5,3.11,4.36,4.61,7.1c1.5,2.74,1.87,4.98-0.25,7.1c-2.12,2.12-3.86,1.62-2.37,4.24c1.5,2.62,0.5,5.61-1.99,6.6
				c-0.48,0.19-1.08,0.35-1.75,0.51c-1.11,3.29-3.06,6.52-4.35,9.71c-1,2.49-0.55,4.77,0.45,7.03c2.06,1.28,4.3,2.61,6.4,3.69
				c2.93,1.5,5.02,7.02,6.28,12.34c3.84,1.42,7.32,1.29,5.93-1.63c-2.62-5.48,2.01-5.72,4.24-7.85c5.86-5.61-5.48-14.83,2.24-19.31
				C1253.04,35.86,1251.18,31.5,1247.69,27.39z"/>
			<path class="st15" d="M1230.24,25.02c2.12-2.12,1.74-4.36,0.25-7.1c-1.5-2.74-2.12-5.61-4.61-7.1s-7.23-1.74-8.35-2.37
				c-14.29-7.94-18.32,7.85-18.32,7.85c-0.07-0.04-0.08,0.04-0.04,0.2c0.3-0.63,0.49-1.01,0.49-1.01c1.95,0.56,3.16-1.06,4.66-2.06
				c1.5-1,2.62-0.25,4.36,1.25s2.49,0.25,3.61-0.12c1.12-0.37,3.61-0.12,3.86,2.74c0.25,2.87,0.87,5.86,2.87,8.1
				c1.99,2.24-0.5,6.23-0.5,6.23c2.74,0.5,1.62,2.74,1.12,3.86c-0.5,1.12-3.86,1-3.86,1s-0.97,2.74-1.87,5.41
				c0.28-0.22,0.58-0.53,0.87-0.92c2.51-3.31,6.55-3.96,9.34-4.6c0.67-0.16,1.27-0.31,1.75-0.51c2.49-1,3.49-3.99,1.99-6.6
				C1226.38,26.64,1228.12,27.14,1230.24,25.02z"/>
			<path class="st10" d="M1218.53,31.62c0,0,2.49-3.99,0.5-6.23c-1.99-2.24-2.62-5.23-2.87-8.1c-0.25-2.87-2.74-3.12-3.86-2.74
				c-1.12,0.37-1.87,1.62-3.61,0.12s-2.87-2.24-4.36-1.25c-1.5,1-2.71,2.62-4.66,2.06c0,0-0.19,0.38-0.49,1.01
				c-1.16,2.44-3.92,8.72-3.38,11.98c0.68,4.1,3.95,10.14,2.96,11.62c-0.83,1.25-2.97,5.35-5.25,6.58
				c-0.22,0.12-0.43,0.22-0.65,0.27c-2.51,0.68,4.98,11.34,17.97,6.36l4.56-2.96c-0.11-0.26-0.88-0.76-1.61-1.4
				c-0.8-0.69-1.54-1.53-1.35-2.37c0.16-0.7,0.81-2.67,1.49-4.69c0.9-2.66,1.87-5.41,1.87-5.41s3.36,0.12,3.86-1
				C1220.15,34.36,1221.27,32.12,1218.53,31.62z"/>
			<path class="st12" d="M1232.91,69.13c-1.26-5.32-3.35-10.85-6.28-12.34c-2.1-1.07-4.35-2.4-6.4-3.69
				c-2.77-1.73-5.19-3.36-6.45-4.16c0.73,0.64,1.51,1.14,1.61,1.4l-4.56,2.96c-12.99,4.98-20.48-5.68-17.97-6.36
				c0.22-0.06,0.43-0.16,0.65-0.27c-4.61,1.21-13.4,2.01-17.59,2.64c-4.98,0.75-5.98,8.47-10.09,13.71c-1.88,2.39-2.5,4.1-2.61,5.4
				l35.75,1.32l2.84,36.25c0.96,0.08,1.92,0.14,2.89,0.14c6.73,0,10.84-3.36,12.34-5.11c1.5-1.74,0.37-16.45,0.37-16.45
				s10.43-1.94,14.88-3.41c1.07-0.35,1.8-0.68,1.95-0.95C1234.6,79.53,1234.17,74.44,1232.91,69.13z"/>
			<path class="st9" d="M1193.61,108.13c0,0-1.12,0.25-4.86-0.12c-3.74-0.37-1.37-1.62-1.37-1.62c3.52-2.35,8.77-0.86,14.43-0.39
				l-2.84-36.25l-35.75-1.32l-18.07-0.67l-22.8,10.22l-3.36,43.49l53.95,5.11l0.2-0.07l8.58-2.76c0.02-0.09,0.08-0.18,0.19-0.29
				c0.51-0.51,2.29-0.73,3.61-1.74c1.89-1.45,3.73-3.44,4.55-4.36c0.07-0.08-0.03-0.19-0.11-0.13c-1.71,1.14-6.85,4.43-7.06,2.87
				C1182.65,118.22,1193.61,108.13,1193.61,108.13z"/>
			<path class="st10" d="M1217.41,84.58c0,0,1.12,14.7-0.37,16.45c-1.5,1.74-5.61,5.11-12.34,5.11c-0.97,0-1.94-0.06-2.89-0.14
				c-5.66-0.48-10.91-1.96-14.43,0.39c0,0-2.37,1.25,1.37,1.62c3.74,0.37,4.86,0.12,4.86,0.12s-10.96,10.09-10.72,11.96
				c0.21,1.56,5.35-1.73,7.06-2.87c0.08-0.06,0.18,0.05,0.11,0.13c-0.82,0.92-2.66,2.91-4.55,4.36c-1.32,1.01-3.1,1.23-3.61,1.74
				c-0.1,0.1-0.16,0.2-0.19,0.29c-0.33,1.18,6.18,0.97,9.78-0.53c3.86-1.62,6.6-7.6,9.35-7.85c2.74-0.25,9.59,0.5,14.58-1.25
				c3.2-1.12,7.01-1.78,9.89-3.82c1.61-1.14,2.93-2.7,3.69-5.02c1.64-5.02,2.83-18.36,3.29-24.1
				C1227.84,82.64,1217.41,84.58,1217.41,84.58z"/>
			<path class="st12" d="M1225.3,110.28c-2.88,2.04-6.69,2.7-9.89,3.82c-4.98,1.74-11.84,1-14.58,1.25
				c-2.74,0.25-5.48,6.23-9.35,7.85c-3.6,1.51-10.1,1.72-9.78,0.53l-8.58,2.76l-0.08,3.06l1.87,1.25
				c21.01,10.18,46.34-0.02,52.2-2.65c0.81-0.37,1.26-0.59,1.26-0.59L1225.3,110.28z"/>
			<path class="st9" d="M1227.12,128.15c-5.86,2.63-31.19,12.83-52.2,2.65l-1.87-1.25c1.87,1.25-6.6,55.4-3.65,68.3
				c2.51,10.97,12.99,38.84,16.08,46.95c0.54,1.43,0.86,2.25,0.86,2.25s6.75-1.48,10.72-3.87c0.51-0.31,0.98-0.63,1.38-0.97
				c0,0-9.95-36.3-11.02-42.48c-1.08-6.18,12.1-39.26,12.1-39.26s5.38,60.5,4.3,69.1c-1.08,8.6-4.03,15.33-2.69,16.67
				c1.16,1.16,11.37,3.77,14.11,1.46c0.43-0.36,0.68-0.84,0.68-1.46c0-1.34,9.41-27.43,9.68-48.4
				C1225.81,181.34,1228.02,144.32,1227.12,128.15z"/>
		</g>
		<g>
			<path class="st6" d="M1203.94,245.38c-1.34-1.34,1.61-8.07,2.69-16.67c1.08-8.6-4.3-69.1-4.3-69.1s-13.18,33.07-12.1,39.26
				c1.08,6.18,11.02,42.48,11.02,42.48c-0.4,0.34-0.86,0.66-1.38,0.97l3.74,3.48C1203.82,245.53,1203.94,245.38,1203.94,245.38z"/>
			<path class="st6" d="M1217.6,40.08c-0.3,0.39-0.59,0.7-0.87,0.92c-0.68,2.02-1.33,3.99-1.49,4.69c-0.19,0.84,0.56,1.68,1.35,2.37
				c1.26,0.8,3.68,2.43,6.45,4.16c-1-2.26-1.45-4.55-0.45-7.03c1.29-3.19,3.24-6.42,4.35-9.71
				C1224.16,36.13,1220.11,36.77,1217.6,40.08z"/>
			<path class="st13" d="M1250.5,26.5c-2.88-3.4-5.11-3.61-3.49-9.84c1.62-6.23-3.74-7.73-3.74-7.73c-9.84-6.35-15.08,0-14.58,1
				c2.49,1.5,3.11,4.36,4.61,7.1c1.5,2.74,1.87,4.98-0.25,7.1c-2.12,2.12-3.86,1.62-2.37,4.24s0.5,5.61-1.99,6.6
				c-0.48,0.19-1.08,0.35-1.75,0.51c-1.11,3.29-3.06,6.52-4.35,9.71c-1,2.49-0.55,4.77,0.45,7.03c2.06,1.28,4.3,2.61,6.4,3.69
				c2.93,1.5,5.02,7.02,6.28,12.34c3.84,1.42,7.32,1.29,5.93-1.63c-2.62-5.48,2.01-5.72,4.24-7.85c5.86-5.61-5.48-14.83,2.24-19.31
				C1255.85,34.97,1253.98,30.61,1250.5,26.5z"/>
			<path class="st13" d="M1233.05,24.13c2.12-2.12,1.74-4.36,0.25-7.1c-1.5-2.74-2.12-5.61-4.61-7.1c-2.49-1.5-7.23-1.74-8.35-2.37
				c-14.29-7.94-18.32,7.85-18.32,7.85c-0.07-0.04-0.08,0.04-0.04,0.2c0.3-0.63,0.49-1.01,0.49-1.01c1.95,0.56,3.16-1.06,4.66-2.06
				c1.5-1,2.62-0.25,4.36,1.25s2.49,0.25,3.61-0.12c1.12-0.37,3.61-0.12,3.86,2.74c0.25,2.87,0.87,5.86,2.87,8.1
				c1.99,2.24-0.5,6.23-0.5,6.23c2.74,0.5,1.62,2.74,1.12,3.86c-0.5,1.12-3.86,1-3.86,1s-0.97,2.74-1.87,5.41
				c0.28-0.22,0.58-0.53,0.87-0.92c2.51-3.31,6.55-3.96,9.34-4.6c0.67-0.16,1.27-0.31,1.75-0.51c2.49-1,3.49-3.99,1.99-6.6
				S1230.93,26.25,1233.05,24.13z"/>
			<path class="st18" d="M1221.34,30.74c0,0,2.49-3.99,0.5-6.23c-1.99-2.24-2.62-5.23-2.87-8.1c-0.25-2.87-2.74-3.12-3.86-2.74
				c-1.12,0.37-1.87,1.62-3.61,0.12s-2.87-2.24-4.36-1.25c-1.5,1-2.71,2.62-4.66,2.06c0,0-0.19,0.38-0.49,1.01
				c-1.16,2.44-3.92,8.72-3.38,11.98c0.68,4.1,3.95,10.14,2.96,11.62c-0.83,1.25-2.97,5.35-5.25,6.58
				c-0.22,0.12-0.43,0.22-0.65,0.27c-2.51,0.68,4.98,11.34,17.97,6.36l4.56-2.96c-0.11-0.26-0.88-0.76-1.61-1.4
				c-0.8-0.69-1.54-1.53-1.35-2.37c0.16-0.7,0.81-2.67,1.49-4.69c0.9-2.66,1.87-5.41,1.87-5.41s3.36,0.12,3.86-1
				C1222.96,33.48,1224.08,31.24,1221.34,30.74z"/>
			<path class="st18" d="M1235.72,68.25c-1.26-5.32-3.35-10.85-6.28-12.34c-2.1-1.07-4.35-2.4-6.4-3.69
				c-2.77-1.73-5.19-3.36-6.45-4.16c0.73,0.64,1.51,1.14,1.61,1.4l-4.56,2.96c-12.99,4.98-20.48-5.68-17.97-6.36
				c0.22-0.06,0.43-0.16,0.65-0.27c-4.61,1.21-13.4,2.01-17.59,2.64c-4.98,0.75-5.98,8.47-10.09,13.71c-1.88,2.39-2.5,4.1-2.61,5.4
				l35.75,1.32l2.84,36.25c0.96,0.08,1.92,0.14,2.89,0.14c6.73,0,10.84-3.36,12.34-5.11c1.5-1.74,0.37-16.45,0.37-16.45
				s10.43-1.94,14.88-3.41c1.07-0.35,1.8-0.68,1.95-0.95C1237.41,78.65,1236.98,73.55,1235.72,68.25z"/>
			<path class="st13" d="M1196.42,107.24c0,0-1.12,0.25-4.86-0.12c-3.74-0.37-1.37-1.62-1.37-1.62c3.52-2.35,8.77-0.86,14.43-0.39
				l-2.84-36.25l-35.75-1.32l-18.07-0.67l-22.8,10.22l-3.36,43.49l53.95,5.11l0.2-0.07l8.58-2.76c0.02-0.09,0.08-0.18,0.19-0.29
				c0.51-0.51,2.29-0.73,3.61-1.74c1.89-1.45,3.73-3.44,4.55-4.36c0.07-0.08-0.03-0.19-0.11-0.13c-1.71,1.14-6.85,4.43-7.06,2.87
				C1185.45,117.34,1196.42,107.24,1196.42,107.24z"/>
			<path class="st13" d="M1220.22,83.69c0,0,1.12,14.7-0.37,16.45c-1.5,1.74-5.61,5.11-12.34,5.11c-0.97,0-1.94-0.06-2.89-0.14
				c-5.66-0.48-10.91-1.96-14.43,0.39c0,0-2.37,1.25,1.37,1.62c3.74,0.37,4.86,0.12,4.86,0.12s-10.96,10.09-10.72,11.96
				c0.21,1.56,5.35-1.73,7.06-2.87c0.08-0.06,0.18,0.05,0.11,0.13c-0.82,0.92-2.66,2.91-4.55,4.36c-1.32,1.01-3.1,1.23-3.61,1.74
				c-0.1,0.1-0.16,0.2-0.19,0.29c-0.33,1.18,6.18,0.97,9.78-0.53c3.86-1.62,6.6-7.6,9.35-7.85c2.74-0.25,9.59,0.5,14.58-1.25
				c3.2-1.12,7.01-1.78,9.89-3.82c1.61-1.14,2.93-2.7,3.69-5.02c1.64-5.02,2.83-18.36,3.29-24.1
				C1230.65,81.75,1220.22,83.69,1220.22,83.69z"/>
			<path class="st13" d="M1228.11,109.4c-2.88,2.04-6.69,2.7-9.89,3.82c-4.98,1.74-11.84,1-14.58,1.25
				c-2.74,0.25-5.48,6.23-9.35,7.85c-3.6,1.51-10.1,1.72-9.78,0.53l-8.58,2.76l-0.08,3.06l1.87,1.25
				c21.01,10.18,46.34-0.02,52.2-2.65c0.81-0.37,1.26-0.59,1.26-0.59L1228.11,109.4z"/>
			<path class="st13" d="M1229.92,127.27c-5.86,2.63-31.19,12.83-52.2,2.65l-1.87-1.25c1.87,1.25-6.6,55.4-3.65,68.3
				c2.51,10.97,12.99,38.84,16.08,46.95c0.54,1.43,0.86,2.25,0.86,2.25s6.75-1.48,10.72-3.87c0.51-0.31,0.98-0.63,1.38-0.97
				c0,0-9.95-36.3-11.02-42.48c-1.08-6.18,12.1-39.26,12.1-39.26s5.38,60.5,4.3,69.1c-1.08,8.6-4.03,15.33-2.69,16.67
				c1.16,1.16,11.37,3.77,14.11,1.46c0.43-0.36,0.68-0.84,0.68-1.46c0-1.34,9.41-27.43,9.68-48.4
				C1228.62,180.46,1230.83,143.44,1229.92,127.27z"/>
		</g>
		<path class="st13" d="M1205.32,24.63c-0.26,0.44-2.45,2.36-1.92,3.32c0.96,1.75,2.62,0.35,2.62,0.35"/>
		<path class="st13" d="M1208.81,32.23c0,0-2.36,2.18-4.19,1.05"/>
		<path class="st13" d="M1201.47,37.73c0,0,3.06,4.72,11.54-0.61"/>
		<path class="st13" d="M1125.15,77.09l49.85,4.25c0,0,25.87-12.41,26.13-12.58"/>
		<path class="st13" d="M1175.94,125.62c0,0-0.95-43.84-0.95-44.28"/>
		<path class="st13" d="M1220.22,83.69c0,0-0.52-7.04,2.3-8.83"/>
		<path class="st11" d="M1184.71,122.57l-8.77,3.05l0.01,1.58l9.05-3.74C1185,123.46,1184.08,123.14,1184.71,122.57z"/>
		<circle class="st11" cx="1203.31" cy="22.07" r="0.89"/>
		<circle class="st11" cx="1212.85" cy="24.43" r="0.89"/>
	</g>
	<g class="st0">
		<g>
			<path class="st6" d="M380.63,151.95c0.76-0.76-0.91-4.54-1.51-9.37c-0.6-4.84,2.42-38.86,2.42-38.86s7.41,18.6,6.8,22.07
				c-0.6,3.48-6.2,23.89-6.2,23.89c0.22,0.19,0.49,0.37,0.77,0.54l-2.1,1.96C380.7,152.04,380.63,151.95,380.63,151.95z"/>
			<path class="st6" d="M372.95,36.52c0.17,0.22,0.33,0.39,0.49,0.52c0.38,1.13,0.75,2.24,0.84,2.64c0.11,0.47-0.31,0.95-0.76,1.33
				c-0.71,0.45-2.07,1.37-3.63,2.34c0.56-1.27,0.82-2.56,0.25-3.95c-0.73-1.8-1.82-3.61-2.45-5.46
				C369.26,34.29,371.54,34.66,372.95,36.52z"/>
			<path class="st10" d="M368.6,31.26c0,0-1.4-2.24-0.28-3.5c1.12-1.26,1.47-2.94,1.61-4.55c0.14-1.61,1.54-1.75,2.17-1.54
				c0.63,0.21,1.05,0.91,2.03,0.07c0.98-0.84,1.61-1.26,2.45-0.7c0.84,0.56,1.52,1.47,2.62,1.16c0,0,0.11,0.21,0.28,0.57
				c0.65,1.37,1.8,4.88,1.9,6.74c0.26,4.96-2.22,5.7-1.67,6.53c0.47,0.7,1.67,3.01,2.95,3.7c0.12,0.07,0.24,0.12,0.36,0.15
				c1.41,0.38-2.8,6.38-10.1,3.58l-2.56-1.67c0.06-0.14,0.5-0.43,0.91-0.79c0.45-0.39,0.87-0.86,0.76-1.33
				c-0.09-0.39-0.45-1.5-0.84-2.64c-0.51-1.5-1.05-3.04-1.05-3.04s-1.89,0.07-2.17-0.56C367.69,32.81,367.06,31.54,368.6,31.26z"/>
			<path class="st12" d="M362.76,52.36c0.71-2.99,1.88-6.1,3.53-6.94c1.18-0.6,2.44-1.35,3.6-2.07c1.56-0.97,2.92-1.89,3.63-2.34
				c-0.41,0.36-0.85,0.64-0.91,0.79l2.56,1.67c7.3,2.8,11.51-3.19,10.1-3.58c-0.12-0.03-0.24-0.09-0.36-0.15
				c2.59,0.68,7.53,1.13,9.89,1.49c2.8,0.42,3.36,4.76,5.67,7.71c1.06,1.35,1.41,2.31,1.47,3.04l-20.1,0.74l-1.6,20.38
				c-0.54,0.05-1.08,0.08-1.63,0.08c-3.78,0-6.1-1.89-6.94-2.87c-0.84-0.98-0.21-9.25-0.21-9.25s-5.86-1.09-8.36-1.92
				c-0.6-0.2-1.01-0.38-1.09-0.53C361.81,58.2,362.05,55.34,362.76,52.36z"/>
			<path class="st15" d="M384.86,74.28c0,0,0.63,0.14,2.73-0.07c2.1-0.21,0.77-0.91,0.77-0.91c-1.98-1.32-4.93-0.49-8.11-0.22
				l1.6-20.38l20.1-0.74l3.98-0.26l8.24,5.59l0.31,23.95l-17.99,3.41l-0.11-0.04l-4.83-1.55c-0.01-0.05-0.05-0.1-0.1-0.16
				c-0.29-0.29-1.29-0.41-2.03-0.98c-1.06-0.81-2.1-1.93-2.56-2.45c-0.04-0.04,0.01-0.11,0.06-0.07c0.96,0.64,3.85,2.49,3.97,1.61
				C391.02,79.96,384.86,74.28,384.86,74.28z"/>
			<path class="st10" d="M371.48,61.04c0,0-0.63,8.27,0.21,9.25c0.84,0.98,3.15,2.87,6.94,2.87c0.55,0,1.09-0.03,1.63-0.08
				c3.18-0.27,6.13-1.1,8.11,0.22c0,0,1.33,0.7-0.77,0.91c-2.1,0.21-2.73,0.07-2.73,0.07s6.17,5.68,6.03,6.73
				c-0.12,0.88-3.01-0.97-3.97-1.61c-0.05-0.03-0.1,0.03-0.06,0.07c0.46,0.52,1.5,1.64,2.56,2.45c0.74,0.57,1.74,0.69,2.03,0.98
				c0.06,0.06,0.09,0.11,0.1,0.16c0.18,0.67-3.48,0.55-5.5-0.3c-2.17-0.91-3.71-4.27-5.25-4.41c-1.54-0.14-5.39,0.28-8.2-0.7
				c-1.8-0.63-3.94-1-5.56-2.15c-0.9-0.64-1.65-1.52-2.08-2.82c-0.92-2.82-1.59-10.32-1.85-13.55
				C365.61,59.95,371.48,61.04,371.48,61.04z"/>
			<path class="st12" d="M367.04,75.49c1.62,1.15,3.76,1.52,5.56,2.15c2.8,0.98,6.66,0.56,8.2,0.7c1.54,0.14,3.08,3.5,5.25,4.41
				c2.02,0.85,5.68,0.97,5.5,0.3l4.83,1.55l0.04,1.72l-1.05,0.7c-11.81,5.72-26.06-0.01-29.35-1.49c-0.46-0.21-0.71-0.33-0.71-0.33
				L367.04,75.49z"/>
			<path class="st11" d="M382.91,150.23c2.23,1.35,6.03,2.18,6.03,2.18s0.18-0.46,0.48-1.27c2.54,2.66,7.39,7.79,7.83,8.67
				c0.6,1.21-2.12,4.08-6.35,1.97c-1.76-0.88-4.09-2.41-6.22-3.9c-1.27-2.32-3.27-4.92-3.88-5.69L382.91,150.23z"/>
			<path class="st9" d="M366.02,85.54c3.29,1.48,17.54,7.21,29.35,1.49l1.05-0.7c-1.05,0.7,3.71,31.15,2.05,38.41
				c-1.41,6.17-7.31,21.84-9.04,26.4c-0.31,0.8-0.48,1.27-0.48,1.27s-3.8-0.83-6.03-2.18c-0.29-0.17-0.55-0.35-0.77-0.54
				c0,0,5.59-20.41,6.2-23.89c0.6-3.48-6.8-22.07-6.8-22.07s-3.02,34.02-2.42,38.86c0.6,4.84,2.27,8.62,1.51,9.37
				c-0.65,0.65-6.39,2.12-7.93,0.82c-0.24-0.2-0.38-0.47-0.38-0.82c0-0.76-5.29-15.42-5.44-27.21
				C366.75,115.45,365.51,94.64,366.02,85.54z"/>
			<path class="st11" d="M380.63,151.95c0,0,0.07,0.09,0.18,0.23c0.61,0.78,2.61,3.38,3.88,5.69c0.73,1.33,1.22,2.56,1.07,3.3
				c-0.45,2.27-7.26,1.36-9.83-1.36c-2.57-2.72-1.66-4.38-2.87-5.75c-0.27-0.3-0.37-0.76-0.37-1.29
				C374.24,154.07,379.97,152.61,380.63,151.95z"/>
		</g>
		<g>
			<path class="st6" d="M379.05,151.46c0.76-0.76-0.91-4.54-1.51-9.37c-0.6-4.84,2.42-38.86,2.42-38.86s7.41,18.6,6.8,22.07
				c-0.6,3.48-6.2,23.89-6.2,23.89c0.22,0.19,0.49,0.37,0.77,0.54l-2.1,1.96C379.12,151.54,379.05,151.46,379.05,151.46z"/>
			<path class="st6" d="M371.37,36.02c0.17,0.22,0.33,0.39,0.49,0.52c0.38,1.13,0.75,2.24,0.84,2.64c0.11,0.47-0.31,0.95-0.76,1.33
				c-0.71,0.45-2.07,1.37-3.63,2.34c0.56-1.27,0.82-2.56,0.25-3.95c-0.73-1.8-1.82-3.61-2.45-5.46
				C367.68,33.8,369.96,34.16,371.37,36.02z"/>
			<path class="st11" d="M362.68,27.05c-1.19-1.19-0.98-2.45-0.14-3.99c0.84-1.54,1.19-3.15,2.59-3.99c1.4-0.84,3.98-1.61,4.66-1.85
				c14.05-5.04,10.34,4.93,10.34,4.93c0.04-0.02,0.04,0.02,0.02,0.11c-0.17-0.35-0.28-0.57-0.28-0.57c-1.1,0.32-1.78-0.6-2.62-1.16
				c-0.84-0.56-1.47-0.14-2.45,0.7s-1.4,0.14-2.03-0.07c-0.63-0.21-2.03-0.07-2.17,1.54c-0.14,1.61-0.49,3.29-1.61,4.55
				c-1.12,1.26,0.28,3.5,0.28,3.5c-1.54,0.28-0.91,1.54-0.63,2.17c0.28,0.63,2.17,0.56,2.17,0.56s0.54,1.54,1.05,3.04
				c-0.16-0.13-0.32-0.3-0.49-0.52c-1.41-1.86-3.69-2.22-5.25-2.59c-0.38-0.09-0.71-0.18-0.99-0.28c-1.4-0.56-1.96-2.24-1.12-3.71
				S363.87,28.25,362.68,27.05z"/>
			<path class="st18" d="M369.27,30.77c0,0-1.4-2.24-0.28-3.5c1.12-1.26,1.47-2.94,1.61-4.55c0.14-1.61,1.54-1.75,2.17-1.54
				c0.63,0.21,1.05,0.91,2.03,0.07s1.61-1.26,2.45-0.7c0.84,0.56,1.52,1.47,2.62,1.16c0,0,0.11,0.21,0.28,0.57
				c0.65,1.37,1.55,4.91,1.9,6.74c1.01,5.23-2.22,5.7-1.67,6.53c0.47,0.7,1.67,3.01,2.95,3.7c0.12,0.07,0.24,0.12,0.36,0.15
				c1.41,0.38-2.8,6.38-10.1,3.58l-2.56-1.67c0.06-0.14,0.5-0.43,0.91-0.79c0.45-0.39,0.87-0.86,0.76-1.33
				c-0.09-0.39-0.45-1.5-0.84-2.64c-0.51-1.5-1.05-3.04-1.05-3.04s-1.89,0.07-2.17-0.56C368.35,32.31,367.72,31.05,369.27,30.77z"/>
			<path class="st18" d="M361.18,51.86c0.71-2.99,1.88-6.1,3.53-6.94c1.18-0.6,2.44-1.35,3.6-2.07c1.56-0.97,2.92-1.89,3.63-2.34
				c-0.41,0.36-0.85,0.64-0.91,0.79l2.56,1.67c7.3,2.8,11.51-3.19,10.1-3.58c-0.12-0.03-0.24-0.09-0.36-0.15
				c2.59,0.68,7.53,1.13,9.89,1.49c2.8,0.42,3.36,4.76,5.67,7.71c1.06,1.35,1.41,2.31,1.47,3.04l-20.1,0.74l-1.6,20.38
				c-0.54,0.05-1.08,0.08-1.63,0.08c-3.78,0-6.1-1.89-6.94-2.87c-0.84-0.98-0.21-9.25-0.21-9.25s-5.86-1.09-8.36-1.92
				c-0.6-0.2-1.01-0.38-1.09-0.53C360.23,57.71,360.47,54.84,361.18,51.86z"/>
			<path class="st13" d="M383.28,73.79c0,0,0.63,0.14,2.73-0.07c2.1-0.21,0.77-0.91,0.77-0.91c-1.98-1.32-4.93-0.49-8.11-0.22
				l1.6-20.38l20.1-0.74l3.98-0.26l8.24,5.59l0.31,23.95l-17.99,3.41l-0.11-0.04l-4.83-1.55c-0.01-0.05-0.05-0.1-0.1-0.16
				c-0.29-0.29-1.29-0.41-2.03-0.98c-1.06-0.81-2.1-1.93-2.56-2.45c-0.04-0.04,0.01-0.1,0.06-0.07c0.96,0.64,3.85,2.49,3.97,1.61
				C389.44,79.46,383.28,73.79,383.28,73.79z"/>
			<path class="st13" d="M369.9,60.54c0,0-0.63,8.27,0.21,9.25c0.84,0.98,3.15,2.87,6.94,2.87c0.55,0,1.09-0.03,1.63-0.08
				c3.18-0.27,6.13-1.1,8.11,0.22c0,0,1.33,0.7-0.77,0.91c-2.1,0.21-2.73,0.07-2.73,0.07s6.17,5.67,6.03,6.73
				c-0.12,0.88-3.01-0.97-3.97-1.61c-0.05-0.03-0.1,0.03-0.06,0.07c0.46,0.52,1.5,1.64,2.56,2.45c0.74,0.57,1.74,0.69,2.03,0.98
				c0.06,0.06,0.09,0.11,0.1,0.16c0.18,0.67-3.48,0.55-5.5-0.3c-2.17-0.91-3.71-4.27-5.25-4.41c-1.54-0.14-5.39,0.28-8.2-0.7
				c-1.8-0.63-3.94-1-5.56-2.15c-0.9-0.64-1.65-1.52-2.08-2.82c-0.92-2.82-1.59-10.32-1.85-13.55
				C364.03,59.45,369.9,60.54,369.9,60.54z"/>
			<path class="st13" d="M365.46,75c1.62,1.15,3.76,1.52,5.56,2.15c2.8,0.98,6.66,0.56,8.2,0.7c1.54,0.14,3.08,3.5,5.25,4.41
				c2.02,0.85,5.68,0.97,5.5,0.3l4.83,1.55l0.04,1.72l-1.05,0.7c-11.81,5.72-26.06-0.01-29.35-1.49c-0.46-0.21-0.71-0.33-0.71-0.33
				L365.46,75z"/>
			<path class="st13" d="M381.33,149.73c2.23,1.35,6.03,2.18,6.03,2.18s0.18-0.46,0.48-1.27c2.54,2.66,7.39,7.79,7.83,8.67
				c0.6,1.21-2.12,4.08-6.35,1.97c-1.76-0.88-4.09-2.41-6.22-3.9c-1.27-2.32-3.27-4.92-3.88-5.69L381.33,149.73z"/>
			<path class="st13" d="M364.44,85.05c3.29,1.48,17.54,7.21,29.35,1.49l1.05-0.7c-1.05,0.7,3.71,31.15,2.05,38.41
				c-1.41,6.17-7.31,21.84-9.04,26.4c-0.31,0.8-0.48,1.27-0.48,1.27s-3.8-0.83-6.03-2.18c-0.29-0.17-0.55-0.35-0.77-0.54
				c0,0,5.59-20.41,6.2-23.89c0.6-3.48-6.8-22.07-6.8-22.07s-3.02,34.02-2.42,38.86c0.6,4.84,2.27,8.62,1.51,9.37
				c-0.65,0.65-6.39,2.12-7.93,0.82c-0.24-0.2-0.38-0.47-0.38-0.82c0-0.76-5.29-15.42-5.44-27.21
				C365.17,114.95,363.93,94.14,364.44,85.05z"/>
			<path class="st13" d="M379.05,151.46c0,0,0.07,0.09,0.18,0.23c0.61,0.78,2.61,3.38,3.88,5.69c0.73,1.33,1.22,2.56,1.07,3.3
				c-0.45,2.27-7.26,1.36-9.83-1.36c-2.57-2.72-1.66-4.38-2.87-5.75c-0.27-0.3-0.37-0.76-0.37-1.29
				C372.66,153.58,378.39,152.11,379.05,151.46z"/>
		</g>
		<path class="st13" d="M377.45,27.74c0.15,0.25,2.2,0.91,1.91,1.46c-0.54,0.98-1.84,0.85-1.84,0.85"/>
		<path class="st13" d="M376.31,31.61c0,0,1.33,1.23,2.36,0.59"/>
		<path class="st13" d="M380.46,34.99c0,0-0.8,1.47-5.12,0.54"/>
		<path class="st13" d="M412.58,56.79l-17.26,2.43c0,0-14.54-6.98-14.69-7.08"/>
		<path class="st13" d="M394.79,84.12c0,0,0.53-24.65,0.53-24.9"/>
		<path class="st13" d="M369.9,60.54c0,0,0.29-3.96-1.29-4.97"/>
		<path class="st11" d="M389.86,82.4l4.93,1.71l-0.01,0.89l-5.09-2.1C389.7,82.91,390.22,82.72,389.86,82.4z"/>
		<circle class="st11" cx="379.4" cy="25.9" r="0.5"/>
		<circle class="st11" cx="374.04" cy="27.22" r="0.5"/>
	</g>
</g>
</svg>
