<?xml version="1.0" encoding="utf-8"?>
<!-- Generator: Adobe Illustrator 24.0.3, SVG Export Plug-In . SVG Version: 6.00 Build 0)  -->
<svg version="1.1" id="Layer_1" xmlns="http://www.w3.org/2000/svg" xmlns:xlink="http://www.w3.org/1999/xlink" x="0px" y="0px"
	 viewBox="0 0 1280 169" style="enable-background:new 0 0 1280 169;" xml:space="preserve">
<style type="text/css">
	.st0{fill:#245486;}
	.st1{fill:#E1635D;}
	.st2{fill:#F6C65D;}
	.st3{fill:#DDEFFA;}
	.st4{fill:#60A675;}
	.st5{fill:#488FBA;}
	.st6{clip-path:url(#SVGID_2_);}
	.st7{clip-path:url(#SVGID_4_);}
	.st8{fill:#235384;}
	.st9{clip-path:url(#SVGID_2_);fill:none;stroke:#4A8FBA;stroke-width:0.9825;stroke-miterlimit:10;}
	.st10{fill:none;stroke:#1F3B65;stroke-width:1.3386;stroke-miterlimit:10;}
	.st11{fill:#1C7598;}
	.st12{fill:#44799D;}
	.st13{fill:#79ABC2;}
	.st14{fill:#4A8FBA;}
	.st15{fill:none;stroke:#1F3B65;stroke-width:1.3386;stroke-linejoin:round;stroke-miterlimit:10;}
	.st16{fill:#1F3B65;}
	.st17{fill:none;stroke:#1F3B65;stroke-width:1.2526;stroke-miterlimit:10;}
	.st18{fill:none;stroke:#1F3B65;stroke-width:1.2526;stroke-linejoin:round;stroke-miterlimit:10;}
	.st19{fill:#1F3B65;stroke:#1F3B65;stroke-width:1.1871;stroke-miterlimit:10;}
	.st20{fill:#638EAD;}
	.st21{fill:#386FA0;}
	.st22{fill:none;stroke:#1F3B65;stroke-width:0.9825;stroke-miterlimit:10;}
	.st23{fill:none;stroke:#1F3B65;stroke-width:0.9825;stroke-linejoin:round;stroke-miterlimit:10;}
	.st24{fill:none;}
	.st25{fill:#336480;}
	.st26{fill:none;stroke:#1F3B65;stroke-width:1.0463;stroke-miterlimit:10;}
	.st27{fill:none;stroke:#1F3B65;stroke-width:1.0463;stroke-linejoin:round;stroke-miterlimit:10;}
	.st28{fill:#1F3B65;stroke:#1F3B65;stroke-width:1.0463;stroke-linejoin:round;stroke-miterlimit:10;}
	.st29{fill:#6291A6;}
	.st30{fill:#74ABC4;}
	.st31{fill:none;stroke:#1F3B65;stroke-width:0.9541;stroke-miterlimit:10;}
	.st32{fill:none;stroke:#1F3B65;stroke-width:0.9541;stroke-linejoin:round;stroke-miterlimit:10;}
	.st33{fill:none;stroke:#1F3B65;stroke-miterlimit:10;}
	.st34{fill:none;stroke:#1F3B65;stroke-linejoin:round;stroke-miterlimit:10;}
	.st35{fill:#1F3B65;stroke:#1F3B65;stroke-width:0.5973;stroke-linejoin:round;stroke-miterlimit:10;}
	.st36{fill:none;stroke:#1F3B65;stroke-width:1.5868;stroke-miterlimit:10;}
</style>
<g>
	<defs>
		<rect id="SVGID_1_" width="1280" height="169"/>
	</defs>
	<clipPath id="SVGID_2_">
		<use xlink:href="#SVGID_1_"  style="overflow:visible;"/>
	</clipPath>
	<g class="st6">
		<defs>
			<rect id="SVGID_3_" x="-4.03" width="1284.03" height="169"/>
		</defs>
		<clipPath id="SVGID_4_">
			<use xlink:href="#SVGID_3_"  style="overflow:visible;"/>
		</clipPath>
		<g class="st7">
			<rect x="-4.03" class="st8" width="1284.03" height="169"/>
		</g>
	</g>
	<circle class="st9" cx="928.3" cy="191.49" r="43.97"/>
	<path class="st9" d="M737.85,188.78l25.66-18.29c0.7-0.5,0.86-1.46,0.36-2.16l-18.29-25.66c-0.5-0.7-1.46-0.86-2.16-0.36
		l-25.66,18.29c-0.7,0.5-0.86,1.46-0.36,2.16l18.29,25.66C736.19,189.11,737.16,189.27,737.85,188.78z"/>
	<circle class="st9" cx="800.95" cy="19.81" r="43.97"/>
	<g class="st6">
		<g>
			<g>
				<g>
					<path class="st10" d="M397.31,57.78c0.47,0.14,0.8,0.17,0.8,0.17L397.31,57.78z"/>
					<path class="st11" d="M409.89,90.2c-1.21-2-2.31-4.56-2.71-7.65c-0.41,0.82-0.86,1.56-1.37,2.16
						c-0.82,0.95-1.77,2.01-2.84,3.06c-3.76,3.67-9.06,7.16-15.77,5.25c-3.43-0.98-6.28-3.84-8.49-7c-0.79,1.59-1.65,4.46,0.18,7.61
						c2.77,4.77,14.3,16.76,35.37,1.69C414.27,95.32,411.92,93.54,409.89,90.2z"/>
					<path class="st11" d="M414.52,62.56c0,0,1.23-1.08-1.54-2.46c-2.77-1.38-0.15-3.54-0.31-6.77c-0.15-3.23-5.08-1.69-8.46-2.61
						c-3.38-0.92,1.08-2.15,1.08-5.08c0-2.92-5.84-6.15-5.69-4.31c0.15,1.85,0.15,2-1.38,4c-1.54,2,0,2-1.38,7.07
						c-1.02,3.75,1.4,4.98,2.73,5.37l0.8,0.17c0,0-0.34-0.03-0.8-0.17l-2.12-0.45c-5.84-1.38-3.23-4.77-3.23-8.61
						c0-3.84-3.23-5.38-3.23-5.38c-2.77,4.77-7.84,6.77-12.3,10.3s-1.23,1.85-1.69,6c-0.46,4.15-2.92,3.23-2.92,3.23
						s0.73,8.84,1.21,11.58c0.06,0.34,0.12,0.61,0.17,0.73c0.22,0.5,1.4,3.88,3.48,7.59c0.6,1.08,1.28,2.18,2.03,3.25
						c2.21,3.16,5.05,6.02,8.49,7c6.71,1.92,12-1.58,15.77-5.25c1.07-1.04,2.02-2.1,2.84-3.06c0.51-0.6,0.96-1.34,1.37-2.16
						c0.36-0.73,0.69-1.52,0.98-2.35c1.75-4.98,2.26-11.19,2.26-11.19c3.23,4,4.92,0.15,5.38-4
						C418.52,60.87,414.52,62.56,414.52,62.56z"/>
					<path class="st12" d="M322.79,23.09c-2.43-1.94-6.19-4.57-10.9-6.33c-4.71-1.77-5.6,0-14.14,1.33
						c-8.54,1.33-12.96,12.52-13.85,15.17c-0.62,1.85,0.77,9.34,1.72,14.37c0.41,2.18,0.74,3.91,0.79,4.49
						c0.15,1.92,1.33-4.12,2.65-5.16c1.33-1.03,1.77-4.86,1.47-8.4s3.24-6.19,5.45-7.37s13.11-0.74,13.11-0.74
						s10.02-1.47,10.31,3.54c0.29,5.01,3.54,3.98,3.54,7.22c0,3.24-0.15,13.99,0,12.67c0.03-0.28,0.22-0.87,0.5-1.66
						c1.06-2.96,3.5-8.82,4.51-12.34C329.24,35.37,327.15,26.57,322.79,23.09z"/>
					<path class="st13" d="M322.1,56.7l0.2-2.98c-0.28,0.79-0.47,1.38-0.5,1.66c-0.15,1.32,0-9.43,0-12.67
						c0-3.24-3.24-2.21-3.54-7.22c-0.29-5.01-10.31-3.54-10.31-3.54s-10.9-0.44-13.11,0.74c-2.21,1.18-5.75,3.83-5.45,7.37
						c0.29,3.54-0.15,7.37-1.47,8.4c-1.33,1.03-2.5,7.07-2.65,5.16c-0.04-0.58-0.37-2.3-0.79-4.49c-3.23-2.42-5.33,0.47-4.66,6.85
						c0.74,7.07,5.01,7.95,5.01,7.95c0.34,2.33,1.04,4.54,1.99,6.59c3.21,6.91,9.44,11.82,15.69,11.82c4.63,0,9.98-5.19,13.72-9.65
						c2.8-3.34,4.7-6.26,4.7-6.26c1.62,2.5,6.19-6.63,6.04-9.58C326.82,53.9,322.1,56.7,322.1,56.7z"/>
					<path class="st14" d="M343.68,160.12c0.05-0.65,0.1-1.27,0.15-1.86c-1.33-0.97-2.59-2.94-3.52-4.98
						c-0.37,0.74-0.75,1.33-1.12,1.65c-2.36,2.04-5.35-0.79-6.6-1.73c-1.26-0.94,1.89-1.42,1.73-3.62c-0.16-2.2-4.72,1.42-9.12,2.36
						c-4.4,0.94-4.72-1.89-9.28-2.36c-4.56-0.47-29.09,15.57-45.76,19.66c-3,0.74-5.61,1.21-7.88,1.5l-6.22,44.58l96.05-0.15
						l1.18-0.76C351.11,204.22,342.99,169.14,343.68,160.12z"/>
					<path class="st14" d="M364,140.34c-3.89-13.78-13.78-38.86-25.43-41.68c-6.07-1.47-14.53-3.9-21.24-5.89
						c0,2.77-0.02,5.28-0.07,7.23c-0.06,2.38-0.17,3.92-0.36,4.01c-17.91,8.95-29.46-11.64-29.46-11.64l0.15-6.33
						c-3.41,1.49-8.75,3.83-12.96,5.68c-2.51,1.33-5.63,3.17-5.87,4.27c-0.41,1.85,0.27,4.53-3.47,5.87
						c-3.73,1.33-5.6,1.87-8.27,2.4c-2.59,0.52-4.68-1.73-6.99-4.31c-2,1.59-3.72,3.74-4.88,6.71
						c-4.86,12.52-11.78,36.09-11.05,43.75c0.74,7.66,0.88,20.92,14.58,21.36c-3.69-21.91,17.82-30.72,17.82-30.72
						c13.49,5.71,61.99-4.14,67.65-4.93c5.66-0.79,6.92,0.79,8.49,3.93c0.33,0.66,0.46,1.72,0.46,2.98
						c0.85-0.02,3.42-0.09,6.68-0.17c4.48-0.11,10.26-0.25,14.68-0.34C364.34,141.7,364.18,140.97,364,140.34z"/>
					<path class="st13" d="M317.35,71.18c-3.74,4.45-9.09,9.65-13.72,9.65c-6.25,0-12.48-4.91-15.69-11.82l-0.36,14.77l-0.15,6.33
						c0,0,11.55,20.59,29.46,11.64c0.19-0.09,0.3-1.63,0.36-4.01c0.05-1.95,0.07-4.46,0.07-7.23c0-0.1,0-0.2,0-0.3
						C317.33,83.83,317.27,76.22,317.35,71.18z"/>
					<path class="st13" d="M341.24,142.52c-1.57-3.14-2.83-4.72-8.49-3.93c-5.66,0.79-54.17,10.64-67.65,4.93
						c0,0-21.5,8.81-17.82,30.72c0,0,3.24,2.56,13.59,1.23c2.27-0.29,4.88-0.76,7.88-1.5c16.67-4.09,41.2-20.13,45.76-19.66
						s4.87,3.3,9.28,2.36c4.4-0.94,8.96-4.56,9.12-2.36c0.16,2.2-2.99,2.67-1.73,3.62c1.26,0.94,4.25,3.77,6.6,1.73
						c0.37-0.32,0.75-0.91,1.12-1.65c1.48-2.97,2.8-8.7,2.8-12.51C341.71,144.24,341.57,143.18,341.24,142.52z"/>
					<path class="st15" d="M358.75,156.38c-0.02-0.33-0.12-0.75-0.28-1.23c-3.75,0.72-7.32-0.22-7.32-0.22s-1.42,2.2-4.87,3.77
						c-0.8,0.37-1.63,0.14-2.44-0.45c-0.05,0.59-0.1,1.21-0.15,1.86c-0.69,9.02,7.43,44.09,9.6,54.29
						C353.28,214.41,359.21,164.68,358.75,156.38z"/>
					<path class="st12" d="M440.56,178.33c0,0,2-2.31,6-12.76c4-10.46-0.31-47.21-3.38-56.44c-3.08-9.23-7.84-10.15-13.69-11.07
						c-2.86-0.45-11.04-3.33-19.6-6.35c2.03,3.34,4.38,5.12,4.38,5.12c-21.07,15.07-32.6,3.08-35.37-1.69
						c-1.83-3.15-0.97-6.02-0.18-7.61c-0.75-1.07-1.43-2.17-2.03-3.25c-9.36,0.84-21.23,3.29-28.55,5.17
						c-8.42,2.16-21.98,2.26-30.81,2.27c0,0.1,0,0.2,0,0.3c6.72,1.99,15.18,4.42,21.24,5.89c11.66,2.83,21.55,27.91,25.43,41.68
						c0.18,0.64,0.34,1.37,0.47,2.18c3.04-0.07,5.45-0.11,6.33-0.11c3.3,0,5.94,1.88,5.82,2.36c-1.42,5.82-3.46,8.18-3.46,8.18
						l-6.18-1.87l-0.58-0.18l-1.17,1.79l-1.19,1.82c-1.57,1.68-3.6,2.51-5.57,2.89c0.16,0.48,0.26,0.9,0.28,1.23
						c0.46,8.3-1.69,40.29-1.38,46.91c0.13,2.77,0.3,4.43,3.45,6.26c1.64,0.95,4.11,1.96,7.8,3.18c6.16,2.05,15.74,4.72,30.73,8.86
						c41.22,11.38,59.21-13.69,59.21-13.69L440.56,178.33z"/>
					<path class="st11" d="M370.05,142.03c-0.88,0-3.28,0.04-6.33,0.11c-4.42,0.1-10.19,0.23-14.68,0.34
						c-3.26,0.08-5.83,0.15-6.68,0.17c0,3.81-1.32,9.54-2.8,12.51c0.93,2.04,2.19,4.01,3.52,4.98c0.8,0.58,1.63,0.81,2.44,0.45
						c3.46-1.57,4.87-3.77,4.87-3.77s3.58,0.93,7.32,0.22c1.97-0.38,4-1.21,5.57-2.89l1.19-1.82l1.17-1.79l0.58,0.18l6.18,1.87
						c0,0,2.04-2.36,3.46-8.18C375.99,143.91,373.35,142.03,370.05,142.03z"/>
					<path class="st11" d="M271.69,88.4c0,0-13.33-0.8-17.06,2.13c-3.73,2.93-7.2,4.27-4.8,6.93c0.07,0.08,0.14,0.15,0.2,0.23
						c2.32,2.57,4.4,4.82,6.99,4.31c2.67-0.53,4.53-1.07,8.27-2.4c3.73-1.33,3.06-4.01,3.47-5.87c0.24-1.1,3.36-2.94,5.87-4.27
						c1.74-0.92,3.19-1.6,3.19-1.6S274.89,88.4,271.69,88.4z"/>
				</g>
			</g>
		</g>
		<g>
			<g>
				<g>
					<path class="st16" d="M374.32,58.6c0.46-4.15-2.77-2.46,1.69-6c4.46-3.54,9.54-5.54,12.3-10.3c0,0,3.23,1.54,3.23,5.38
						c0,3.84-2.61,7.23,3.23,8.61l2.12,0.45c-1.33-0.39-3.76-1.61-2.73-5.37c1.38-5.08-0.15-5.08,1.38-7.07c1.54-2,1.54-2.15,1.38-4
						c-0.15-1.85,5.69,1.38,5.69,4.31c0,2.92-4.46,4.15-1.08,5.08c3.38,0.92,8.3-0.62,8.46,2.61c0.15,3.23-2.46,5.38,0.31,6.77
						c2.77,1.38,1.54,2.46,1.54,2.46s4-1.69,3.54,2.46c-0.46,4.15-2.15,8-5.38,4c0,0-0.51,6.21-2.26,11.19
						c2.33,1.46,10.14,6.2,9.49,3.58c-0.77-3.08-1.23-3.54,2.31-6.15s6-3.38,6.31-6.77c0.31-3.38,6.46-1.54,4-5.84
						c-2.46-4.31-1.23-4.92,0.77-7.23c2-2.31-2.77-4-3.84-9.54c-1.08-5.54,2.77-6.77,0.15-8.15c-2.61-1.38-2-4.46-1.69-7.38
						c0.31-2.92-6-1.38-9.53-2.92c-3.54-1.54-0.92-8.77-4.77-8c-3.84,0.77-7.54-3.54-9.69-5.23c-2.15-1.69,0,2.46-2.46,3.23
						c-2.46,0.77-2.61-4-4.15-2.15c-1.54,1.85-4.15-1.08-7.84,0.77c-3.69,1.85-5.54,3.84-7.38,3.84c-1.85,0-1.08,0.46-1.08,2.46
						c0,2-3.38,1.23-5.23,2.31c-1.85,1.08,2.92,3.69-1.08,4.92s-10.46,7.07-11.38,9.54c-0.92,2.46,2-2.61,2.61,0.62
						c0.62,3.23-1.54,6.77-2.31,10.92c-0.77,4.15,2,3.54,2.46,4.46c0.46,0.92-2.31,2.31-2.46,5.69c-0.15,3.38,3.08,2.15,4.61,3.08
						c1.54,0.92-0.31,6,0.46,7.54c0.53,1.07,4.33,0.88,6.6,0.66c-0.49-2.73-1.21-11.58-1.21-11.58S373.85,62.75,374.32,58.6z"/>
					<path class="st10" d="M396.89,56.74c0.47,0.14,0.8,0.17,0.8,0.17L396.89,56.74z"/>
					<path class="st15" d="M409.46,89.16c-1.21-2-2.31-4.56-2.71-7.65c-0.41,0.82-0.86,1.56-1.37,2.16
						c-0.82,0.95-1.77,2.01-2.84,3.06c-3.76,3.67-9.06,7.16-15.77,5.25c-3.43-0.98-6.28-3.84-8.49-7c-0.79,1.59-1.65,4.46,0.18,7.61
						c2.77,4.77,14.3,16.76,35.37,1.69C413.84,94.28,411.49,92.5,409.46,89.16z"/>
					<path class="st15" d="M411.84,61.52c0,0,1.23-1.08-1.54-2.46c-2.77-1.38-0.15-3.54-0.31-6.77c-0.15-3.23-5.08-1.69-8.46-2.61
						c-3.38-0.92,1.08-2.15,1.08-5.08c0-2.92-5.84-6.15-5.69-4.31c0.15,1.85,0.15,2-1.38,4c-1.54,2,0,2-1.38,7.07
						c-1.02,3.75,1.4,4.98,2.73,5.37l0.8,0.17c0,0-0.34-0.03-0.8-0.17l-2.12-0.45c-5.84-1.38-3.23-4.77-3.23-8.61
						c0-3.84-3.23-5.38-3.23-5.38c-2.77,4.77-7.84,6.77-12.3,10.3c-4.46,3.54-1.23,1.85-1.69,6c-0.46,4.15-2.92,3.23-2.92,3.23
						s0.73,8.84,1.21,11.58c0.06,0.34,0.12,0.61,0.17,0.73c0.22,0.5,1.4,3.88,3.48,7.59c0.6,1.08,1.28,2.18,2.03,3.25
						c2.21,3.16,5.05,6.02,8.49,7c6.71,1.92,12-1.58,15.77-5.25c1.07-1.04,2.02-2.1,2.84-3.06c0.51-0.6,0.96-1.34,1.37-2.16
						c0.36-0.73,0.69-1.52,0.98-2.35c1.75-4.98,2.26-11.19,2.26-11.19c3.23,4,4.92,0.15,5.38-4
						C415.84,59.83,411.84,61.52,411.84,61.52z"/>
					<path class="st15" d="M322.36,22.05c-2.43-1.94-6.19-4.57-10.9-6.33c-4.71-1.77-5.6,0-14.14,1.33
						c-8.54,1.33-12.96,12.52-13.85,15.17c-0.62,1.85,0.77,9.34,1.72,14.37c0.41,2.18,0.74,3.91,0.79,4.49
						c0.15,1.92,1.33-4.12,2.65-5.16c1.33-1.03,1.77-4.86,1.47-8.4c-0.29-3.54,3.24-6.19,5.45-7.37c2.21-1.18,13.11-0.74,13.11-0.74
						s10.02-1.47,10.31,3.54c0.29,5.01,3.54,3.98,3.54,7.22c0,3.24-0.15,13.99,0,12.67c0.03-0.28,0.22-0.87,0.5-1.66
						c1.06-2.96,3.5-8.82,4.51-12.34C328.81,34.33,326.72,25.54,322.36,22.05z"/>
					<path class="st15" d="M322.8,54.16l0.2-2.98c-0.28,0.79-0.47,1.38-0.5,1.66c-0.15,1.32,0-9.43,0-12.67
						c0-3.24-3.24-2.21-3.54-7.22c-0.29-5.01-10.31-3.54-10.31-3.54s-10.9-0.44-13.11,0.74c-2.21,1.18-5.75,3.83-5.45,7.37
						c0.29,3.54-0.15,7.37-1.47,8.4c-1.33,1.03-2.5,7.07-2.65,5.16c-0.04-0.58-0.37-2.3-0.79-4.49c-3.23-2.42-5.33,0.47-4.66,6.85
						c0.74,7.07,5.01,7.95,5.01,7.95c0.34,2.33,1.04,4.54,1.99,6.59c3.21,6.91,9.44,11.82,15.69,11.82c4.63,0,9.98-5.19,13.72-9.65
						c2.8-3.34,4.7-6.26,4.7-6.26c1.62,2.5,6.19-6.63,6.04-9.58C327.52,51.36,322.8,54.16,322.8,54.16z"/>
					<path class="st15" d="M343.25,159.08c0.05-0.65,0.1-1.27,0.15-1.86c-1.33-0.97-2.59-2.94-3.52-4.98
						c-0.37,0.74-0.75,1.33-1.12,1.65c-2.36,2.04-5.35-0.79-6.6-1.73c-1.26-0.94,1.89-1.42,1.73-3.62c-0.16-2.2-4.72,1.42-9.12,2.36
						c-4.4,0.94-4.72-1.89-9.28-2.36s-29.09,15.57-45.76,19.66c-3,0.74-5.61,1.21-7.88,1.5l-6.22,44.58l96.05-0.15l1.18-0.76
						C350.69,203.18,342.56,168.1,343.25,159.08z"/>
					<path class="st15" d="M363.57,137.04c-3.89-13.78-13.78-38.86-25.43-41.68c-6.07-1.47-14.53-3.9-21.24-5.89
						c0,2.77-0.02,5.28-0.07,7.23c-0.06,2.38-0.17,3.92-0.36,4.01c-17.91,8.95-29.46-11.64-29.46-11.64l0.15-6.33
						c-3.41,1.49-8.75,3.83-12.96,5.68c-2.51,1.33-5.63,3.17-5.87,4.27c-0.41,1.85,0.27,4.53-3.47,5.87
						c-3.73,1.33-5.6,1.87-8.27,2.4c-2.59,0.52-4.68-1.73-6.99-4.31c-2,1.59-3.72,3.74-4.88,6.71
						c-4.86,12.52-11.78,36.09-11.05,43.75c0.74,7.66,0.88,20.92,14.58,21.36c-3.69-21.91,17.82-30.72,17.82-30.72
						c13.49,5.71,61.99-4.14,67.65-4.93c5.66-0.79,6.92,0.79,8.49,3.93c0.33,0.66,0.46,1.72,0.46,2.98
						c0.85-0.02,3.42-0.09,6.68-0.17c4.48-0.11,10.26-0.25,14.68-0.34C363.91,138.41,363.75,137.68,363.57,137.04z"/>
					<path class="st15" d="M316.93,70.14c-3.74,4.45-9.09,9.65-13.72,9.65c-6.25,0-12.48-4.91-15.69-11.82l-0.36,14.77l-0.15,6.33
						c0,0,11.55,20.59,29.46,11.64c0.19-0.09,0.3-1.63,0.36-4.01c0.05-1.95,0.07-4.46,0.07-7.23c0-0.1,0-0.2,0-0.3
						C316.9,82.79,316.84,75.18,316.93,70.14z"/>
					<path class="st15" d="M342.23,136.75c-1.57-3.14-2.83-4.72-8.49-3.93c-5.66,0.79-54.17,10.64-67.65,4.93
						c0,0-21.5,8.81-17.82,30.72c0,0,3.24,2.56,13.59,1.23c2.27-0.29,4.88-0.76,7.88-1.5c16.67-4.09,41.2-20.13,45.76-19.66
						s4.87,3.3,9.28,2.36c4.4-0.94,8.96-4.56,9.12-2.36c0.16,2.2-2.99,2.67-1.73,3.62c1.26,0.94,4.25,3.77,6.6,1.73
						c0.37-0.32,0.75-0.91,1.12-1.65c1.48-2.97,2.8-8.7,2.8-12.51C342.69,138.47,342.56,137.41,342.23,136.75z"/>
					<path class="st15" d="M358.32,155.34c-0.02-0.33-0.12-0.75-0.28-1.23c-3.75,0.72-7.32-0.22-7.32-0.22s-1.42,2.2-4.87,3.77
						c-0.8,0.37-1.63,0.14-2.44-0.45c-0.05,0.59-0.1,1.21-0.15,1.86c-0.69,9.02,7.43,44.09,9.6,54.29
						C352.86,213.37,358.78,163.64,358.32,155.34z"/>
					<path class="st15" d="M440.14,175.79c0,0,2-2.31,6-12.76c4-10.46-0.31-47.21-3.38-56.44c-3.08-9.23-7.84-10.15-13.69-11.07
						c-2.86-0.45-11.04-3.33-19.6-6.35c2.03,3.34,4.38,5.12,4.38,5.12c-21.07,15.07-32.6,3.08-35.37-1.69
						c-1.83-3.15-0.97-6.02-0.18-7.61c-0.75-1.07-1.43-2.17-2.03-3.25c-9.36,0.84-21.23,3.29-28.55,5.17
						c-8.42,2.16-21.98,2.26-30.81,2.27c0,0.1,0,0.2,0,0.3c6.72,1.99,15.18,4.42,21.24,5.89c11.66,2.83,21.55,27.91,25.43,41.68
						c0.18,0.64,0.34,1.37,0.47,2.18c3.04-0.07,5.45-0.11,6.33-0.11c3.3,0,5.94,1.88,5.82,2.36c-1.42,5.82-3.46,8.18-3.46,8.18
						l-6.18-1.87l-0.58-0.18l-1.17,1.79l-1.19,1.82c-1.57,1.68-3.6,2.51-5.57,2.89c0.16,0.48,0.26,0.9,0.28,1.23
						c0.46,8.3-1.69,40.29-1.38,46.91c0.13,2.77,0.3,4.43,3.45,6.26c1.64,0.95,4.11,1.96,7.8,3.18c6.16,2.05,15.74,4.72,30.73,8.86
						c41.22,11.38,59.21-13.69,59.21-13.69L440.14,175.79z"/>
					<path class="st15" d="M370.37,139.11c-0.88,0-3.28,0.04-6.33,0.11c-4.42,0.1-10.19,0.23-14.68,0.34
						c-3.26,0.08-5.83,0.15-6.68,0.17c0,3.81-1.32,9.54-2.8,12.51c0.93,2.04,2.19,4.01,3.52,4.98c0.8,0.58,1.63,0.81,2.44,0.45
						c3.46-1.57,4.87-3.77,4.87-3.77s3.58,0.93,7.32,0.22c1.97-0.38,4-1.21,5.57-2.89l1.19-1.82l1.17-1.79l0.58,0.18l6.18,1.87
						c0,0,2.04-2.36,3.46-8.18C376.31,140.99,373.68,139.11,370.37,139.11z"/>
					<path class="st15" d="M271.27,87.36c0,0-13.33-0.8-17.06,2.13c-3.73,2.93-7.2,4.27-4.8,6.93c0.07,0.08,0.14,0.15,0.2,0.23
						c2.32,2.57,4.4,4.82,6.99,4.31c2.67-0.53,4.53-1.07,8.27-2.4c3.73-1.33,3.06-4.01,3.47-5.87c0.24-1.1,3.36-2.94,5.87-4.27
						c1.74-0.92,3.19-1.6,3.19-1.6S274.46,87.36,271.27,87.36z"/>
				</g>
				<path class="st16" d="M287.53,90.15c0,0-6.11-6.18-3.82-6.18c1.18,0,3.45-1.23,3.45-1.23L287.53,90.15z"/>
				<path class="st16" d="M316.47,100.71c2.67-2.18,5.47-5.27,5.17-9.82l-4.74-1.41L316.47,100.71z"/>
				<path class="st16" d="M409.46,89.16c0.45-0.76,8.34,3.05,8.34,3.05l-4.07,2.91C413.72,95.12,408.92,90.09,409.46,89.16z"/>
				<path class="st15" d="M422.09,113.42c0,0-0.78,12.45-0.89,19.12c-0.11,6.67,1.89,15.01-1.22,14.9
					c-3.11-0.11-28.79-1.56-39.02-8.12l-3.54-1.54c-0.39-0.17-0.83,0.1-0.86,0.52l-0.61,4.25"/>
				<path class="st15" d="M440.14,175.79c-15.97,19.9-41.17,4.22-51.51,0.77S362.94,164,362.94,164
					c5.45-1.56,11.72-17.65,11.72-17.65"/>
				<path class="st16" d="M369.84,148.55c0,0-10.45,15.68-6.89,15.45s9.79-14.35,9.79-14.35L369.84,148.55z"/>
				<path class="st16" d="M376.91,137.43c0,0-0.09-0.95-2.84,1.3c-1.87,1.53,0.81,1.24,0.81,1.24l0.55,0.17L376.91,137.43z"/>
				<path class="st15" d="M350.72,153.89c0,0,0.32-3.18-1.28-3.53c-1.59-0.35-1.59-0.35-1.59-0.35l7.78,0.53"/>
				<path class="st15" d="M358.46,105.98c0,0-0.35,10.96,0.35,16.8"/>
				<path class="st15" d="M266.08,137.75c-0.11-1.89-3.65-13.56-2.94-23.28"/>
				<path class="st15" d="M309.83,64.24c0,0-2.65,6.54-13.26,2.3"/>
				<path class="st15" d="M384.99,81.39c0,0,7.6,1.06,9.9-6.19"/>
				<path class="st15" d="M390.83,69.19c0,0-0.71,3.71-4.77,1.77c0,0-1.41-1.77,0.53-3.54"/>
				<path class="st15" d="M305.76,57.17c0,0-1.06,2.3-3.36,2.3s-2.3-2.3-2.3-2.3"/>
				<circle class="st16" cx="295.55" cy="46.7" r="1.39"/>
				<circle class="st16" cx="312.89" cy="49.25" r="1.39"/>
				<circle class="st16" cx="380.63" cy="59.88" r="1.39"/>
				<circle class="st16" cx="398.9" cy="59.42" r="1.39"/>
			</g>
			<path class="st16" d="M315.49,148.55c0,0-53.83,28.45-55.02,30.23l1.38-9.07c0,0,15.03-3.19,21.16-6.35
				C289.15,160.19,311.19,147,315.49,148.55z"/>
		</g>
		<g>
			<g>
				<g>
					<path class="st16" d="M374.32,58.6c0.46-4.15-2.77-2.46,1.69-6c4.46-3.54,9.54-5.54,12.3-10.3c0,0,3.23,1.54,3.23,5.38
						c0,3.84-2.61,7.23,3.23,8.61l2.12,0.45c-1.33-0.39-3.76-1.61-2.73-5.37c1.38-5.08-0.15-5.08,1.38-7.07c1.54-2,1.54-2.15,1.38-4
						c-0.15-1.85,5.69,1.38,5.69,4.31c0,2.92-4.46,4.15-1.08,5.08c3.38,0.92,8.3-0.62,8.46,2.61c0.15,3.23-2.46,5.38,0.31,6.77
						c2.77,1.38,1.54,2.46,1.54,2.46s4-1.69,3.54,2.46c-0.46,4.15-2.15,8-5.38,4c0,0-0.51,6.21-2.26,11.19
						c2.33,1.46,10.14,6.2,9.49,3.58c-0.77-3.08-1.23-3.54,2.31-6.15s6-3.38,6.31-6.77c0.31-3.38,6.46-1.54,4-5.84
						c-2.46-4.31-1.23-4.92,0.77-7.23c2-2.31-2.77-4-3.84-9.54c-1.08-5.54,2.77-6.77,0.15-8.15c-2.61-1.38-2-4.46-1.69-7.38
						c0.31-2.92-6-1.38-9.53-2.92c-3.54-1.54-0.92-8.77-4.77-8c-3.84,0.77-7.54-3.54-9.69-5.23c-2.15-1.69,0,2.46-2.46,3.23
						c-2.46,0.77-2.61-4-4.15-2.15c-1.54,1.85-4.15-1.08-7.84,0.77c-3.69,1.85-5.54,3.84-7.38,3.84c-1.85,0-1.08,0.46-1.08,2.46
						c0,2-3.38,1.23-5.23,2.31c-1.85,1.08,2.92,3.69-1.08,4.92s-10.46,7.07-11.38,9.54c-0.92,2.46,2-2.61,2.61,0.62
						c0.62,3.23-1.54,6.77-2.31,10.92c-0.77,4.15,2,3.54,2.46,4.46c0.46,0.92-2.31,2.31-2.46,5.69c-0.15,3.38,3.08,2.15,4.61,3.08
						c1.54,0.92-0.31,6,0.46,7.54c0.53,1.07,4.33,0.88,6.6,0.66c-0.49-2.73-1.21-11.58-1.21-11.58S373.85,62.75,374.32,58.6z"/>
					<path class="st17" d="M396.89,56.74c0.47,0.14,0.8,0.17,0.8,0.17L396.89,56.74z"/>
					<path class="st18" d="M409.46,89.16c-1.21-2-2.31-4.56-2.71-7.65c-0.41,0.82-0.86,1.56-1.37,2.16
						c-0.82,0.95-1.77,2.01-2.84,3.06c-3.76,3.67-9.06,7.16-15.77,5.25c-3.43-0.98-6.28-3.84-8.49-7c-0.79,1.59-1.65,4.46,0.18,7.61
						c2.77,4.77,14.3,16.76,35.37,1.69C413.84,94.28,411.49,92.5,409.46,89.16z"/>
					<path class="st18" d="M411.84,61.52c0,0,1.23-1.08-1.54-2.46c-2.77-1.38-0.15-3.54-0.31-6.77c-0.15-3.23-5.08-1.69-8.46-2.61
						c-3.38-0.92,1.08-2.15,1.08-5.08c0-2.92-5.84-6.15-5.69-4.31c0.15,1.85,0.15,2-1.38,4c-1.54,2,0,2-1.38,7.07
						c-1.02,3.75,1.4,4.98,2.73,5.37l0.8,0.17c0,0-0.34-0.03-0.8-0.17l-2.12-0.45c-5.84-1.38-3.23-4.77-3.23-8.61
						c0-3.84-3.23-5.38-3.23-5.38c-2.77,4.77-7.84,6.77-12.3,10.3c-4.46,3.54-1.23,1.85-1.69,6c-0.46,4.15-2.92,3.23-2.92,3.23
						s0.73,8.84,1.21,11.58c0.06,0.34,0.12,0.61,0.17,0.73c0.22,0.5,1.4,3.88,3.48,7.59c0.6,1.08,1.28,2.18,2.03,3.25
						c2.21,3.16,5.05,6.02,8.49,7c6.71,1.92,12-1.58,15.77-5.25c1.07-1.04,2.02-2.1,2.84-3.06c0.51-0.6,0.96-1.34,1.37-2.16
						c0.36-0.73,0.69-1.52,0.98-2.35c1.75-4.98,2.26-11.19,2.26-11.19c3.23,4,4.92,0.15,5.38-4
						C415.84,59.83,411.84,61.52,411.84,61.52z"/>
					<path class="st18" d="M322.36,22.05c-2.43-1.94-6.19-4.57-10.9-6.33c-4.71-1.77-5.6,0-14.14,1.33
						c-8.54,1.33-12.96,12.52-13.85,15.17c-0.62,1.85,0.77,9.34,1.72,14.37c0.41,2.18,0.74,3.91,0.79,4.49
						c0.15,1.92,1.33-4.12,2.65-5.16c1.33-1.03,1.77-4.86,1.47-8.4c-0.29-3.54,3.24-6.19,5.45-7.37c2.21-1.18,13.11-0.74,13.11-0.74
						s10.02-1.47,10.31,3.54c0.29,5.01,3.54,3.98,3.54,7.22c0,3.24-0.15,13.99,0,12.67c0.03-0.28,0.22-0.87,0.5-1.66
						c1.06-2.96,3.5-8.82,4.51-12.34C328.81,34.33,326.72,25.54,322.36,22.05z"/>
					<path class="st18" d="M322.8,54.16l0.2-2.98c-0.28,0.79-0.47,1.38-0.5,1.66c-0.15,1.32,0-9.43,0-12.67
						c0-3.24-3.24-2.21-3.54-7.22c-0.29-5.01-10.31-3.54-10.31-3.54s-10.9-0.44-13.11,0.74c-2.21,1.18-5.75,3.83-5.45,7.37
						c0.29,3.54-0.15,7.37-1.47,8.4c-1.33,1.03-2.5,7.07-2.65,5.16c-0.04-0.58-0.37-2.3-0.79-4.49c-3.23-2.42-5.33,0.47-4.66,6.85
						c0.74,7.07,5.01,7.95,5.01,7.95c0.34,2.33,1.04,4.54,1.99,6.59c3.21,6.91,9.44,11.82,15.69,11.82c4.63,0,9.98-5.19,13.72-9.65
						c2.8-3.34,4.7-6.26,4.7-6.26c1.62,2.5,6.19-6.63,6.04-9.58C327.52,51.36,322.8,54.16,322.8,54.16z"/>
					<path class="st18" d="M343.25,159.08c0.05-0.65,0.1-1.27,0.15-1.86c-1.33-0.97-2.59-2.94-3.52-4.98
						c-0.37,0.74-0.75,1.33-1.12,1.65c-2.36,2.04-5.35-0.79-6.6-1.73c-1.26-0.94,1.89-1.42,1.73-3.62c-0.16-2.2-4.72,1.42-9.12,2.36
						c-4.4,0.94-4.72-1.89-9.28-2.36s-29.09,15.57-45.76,19.66c-3,0.74-5.61,1.21-7.88,1.5l-6.22,44.58l96.05-0.15l1.18-0.76
						C350.69,203.18,342.56,168.1,343.25,159.08z"/>
					<path class="st18" d="M363.57,137.04c-3.89-13.78-13.78-38.86-25.43-41.68c-6.07-1.47-14.53-3.9-21.24-5.89
						c0,2.77-0.02,5.28-0.07,7.23c-0.06,2.38-0.17,3.92-0.36,4.01c-17.91,8.95-29.46-11.64-29.46-11.64l0.15-6.33
						c-3.41,1.49-8.75,3.83-12.96,5.68c-2.51,1.33-5.63,3.17-5.87,4.27c-0.41,1.85,0.27,4.53-3.47,5.87
						c-3.73,1.33-5.6,1.87-8.27,2.4c-2.59,0.52-4.68-1.73-6.99-4.31c-2,1.59-3.72,3.74-4.88,6.71
						c-4.86,12.52-11.78,36.09-11.05,43.75c0.74,7.66,0.88,20.92,14.58,21.36c-3.69-21.91,17.82-30.72,17.82-30.72
						c13.49,5.71,61.99-4.14,67.65-4.93c5.66-0.79,6.92,0.79,8.49,3.93c0.33,0.66,0.46,1.72,0.46,2.98
						c0.85-0.02,3.42-0.09,6.68-0.17c4.48-0.11,10.26-0.25,14.68-0.34C363.91,138.41,363.75,137.68,363.57,137.04z"/>
					<path class="st18" d="M316.93,70.14c-3.74,4.45-9.09,9.65-13.72,9.65c-6.25,0-12.48-4.91-15.69-11.82l-0.36,14.77l-0.15,6.33
						c0,0,11.55,20.59,29.46,11.64c0.19-0.09,0.3-1.63,0.36-4.01c0.05-1.95,0.07-4.46,0.07-7.23c0-0.1,0-0.2,0-0.3
						C316.9,82.79,316.84,75.18,316.93,70.14z"/>
					<path class="st18" d="M342.23,136.75c-1.57-3.14-2.83-4.72-8.49-3.93c-5.66,0.79-54.17,10.64-67.65,4.93
						c0,0-21.5,8.81-17.82,30.72c0,0,3.24,2.56,13.59,1.23c2.27-0.29,4.88-0.76,7.88-1.5c16.67-4.09,41.2-20.13,45.76-19.66
						s4.87,3.3,9.28,2.36c4.4-0.94,8.96-4.56,9.12-2.36c0.16,2.2-2.99,2.67-1.73,3.62c1.26,0.94,4.25,3.77,6.6,1.73
						c0.37-0.32,0.75-0.91,1.12-1.65c1.48-2.97,2.8-8.7,2.8-12.51C342.69,138.47,342.56,137.41,342.23,136.75z"/>
					<path class="st18" d="M358.32,155.34c-0.02-0.33-0.12-0.75-0.28-1.23c-3.75,0.72-7.32-0.22-7.32-0.22s-1.42,2.2-4.87,3.77
						c-0.8,0.37-1.63,0.14-2.44-0.45c-0.05,0.59-0.1,1.21-0.15,1.86c-0.69,9.02,7.43,44.09,9.6,54.29
						C352.86,213.37,358.78,163.64,358.32,155.34z"/>
					<path class="st18" d="M440.14,175.79c0,0,2-2.31,6-12.76c4-10.46-0.31-47.21-3.38-56.44c-3.08-9.23-7.84-10.15-13.69-11.07
						c-2.86-0.45-11.04-3.33-19.6-6.35c2.03,3.34,4.38,5.12,4.38,5.12c-21.07,15.07-32.6,3.08-35.37-1.69
						c-1.83-3.15-0.97-6.02-0.18-7.61c-0.75-1.07-1.43-2.17-2.03-3.25c-9.36,0.84-21.23,3.29-28.55,5.17
						c-8.42,2.16-21.98,2.26-30.81,2.27c0,0.1,0,0.2,0,0.3c6.72,1.99,15.18,4.42,21.24,5.89c11.66,2.83,21.55,27.91,25.43,41.68
						c0.18,0.64,0.34,1.37,0.47,2.18c3.04-0.07,5.45-0.11,6.33-0.11c3.3,0,5.94,1.88,5.82,2.36c-1.42,5.82-3.46,8.18-3.46,8.18
						l-6.18-1.87l-0.58-0.18l-1.17,1.79l-1.19,1.82c-1.57,1.68-3.6,2.51-5.57,2.89c0.16,0.48,0.26,0.9,0.28,1.23
						c0.46,8.3-1.69,40.29-1.38,46.91c0.13,2.77,0.3,4.43,3.45,6.26c1.64,0.95,4.11,1.96,7.8,3.18c6.16,2.05,15.74,4.72,30.73,8.86
						c41.22,11.38,59.21-13.69,59.21-13.69L440.14,175.79z"/>
					<path class="st18" d="M370.37,139.11c-0.88,0-3.28,0.04-6.33,0.11c-4.42,0.1-10.19,0.23-14.68,0.34
						c-3.26,0.08-5.83,0.15-6.68,0.17c0,3.81-1.32,9.54-2.8,12.51c0.93,2.04,2.19,4.01,3.52,4.98c0.8,0.58,1.63,0.81,2.44,0.45
						c3.46-1.57,4.87-3.77,4.87-3.77s3.58,0.93,7.32,0.22c1.97-0.38,4-1.21,5.57-2.89l1.19-1.82l1.17-1.79l0.58,0.18l6.18,1.87
						c0,0,2.04-2.36,3.46-8.18C376.31,140.99,373.68,139.11,370.37,139.11z"/>
					<path class="st18" d="M271.27,87.36c0,0-13.33-0.8-17.06,2.13c-3.73,2.93-7.2,4.27-4.8,6.93c0.07,0.08,0.14,0.15,0.2,0.23
						c2.32,2.57,4.4,4.82,6.99,4.31c2.67-0.53,4.53-1.07,8.27-2.4c3.73-1.33,3.06-4.01,3.47-5.87c0.24-1.1,3.36-2.94,5.87-4.27
						c1.74-0.92,3.19-1.6,3.19-1.6S274.46,87.36,271.27,87.36z"/>
				</g>
				<path class="st16" d="M287.53,90.15c0,0-6.11-6.18-3.82-6.18c1.18,0,3.45-1.23,3.45-1.23L287.53,90.15z"/>
				<path class="st16" d="M316.47,100.71c2.67-2.18,5.47-5.27,5.17-9.82l-4.74-1.41L316.47,100.71z"/>
				<path class="st16" d="M409.46,89.16c0.45-0.76,8.34,3.05,8.34,3.05l-4.07,2.91C413.72,95.12,408.92,90.09,409.46,89.16z"/>
				<path class="st18" d="M422.09,113.42c0,0-0.78,12.45-0.89,19.12c-0.11,6.67,1.89,15.01-1.22,14.9
					c-3.11-0.11-28.79-1.56-39.02-8.12l-3.54-1.54c-0.39-0.17-0.83,0.1-0.86,0.52l-0.61,4.25"/>
				<path class="st18" d="M440.14,175.79c-15.97,19.9-41.17,4.22-51.51,0.77S362.94,164,362.94,164
					c5.45-1.56,11.72-17.65,11.72-17.65"/>
				<path class="st16" d="M369.84,148.55c0,0-10.45,15.68-6.89,15.45s9.79-14.35,9.79-14.35L369.84,148.55z"/>
				<path class="st16" d="M376.91,137.43c0,0-0.09-0.95-2.84,1.3c-1.87,1.53,0.81,1.24,0.81,1.24l0.55,0.17L376.91,137.43z"/>
				<path class="st18" d="M350.72,153.89c0,0,0.32-3.18-1.28-3.53c-1.59-0.35-1.59-0.35-1.59-0.35l7.78,0.53"/>
				<path class="st18" d="M358.46,105.98c0,0-0.35,10.96,0.35,16.8"/>
				<path class="st18" d="M266.08,137.75c-0.11-1.89-3.65-13.56-2.94-23.28"/>
				<path class="st18" d="M309.83,64.24c0,0-2.65,6.54-13.26,2.3"/>
				<path class="st18" d="M384.99,81.39c0,0,7.6,1.06,9.9-6.19"/>
				<path class="st18" d="M390.83,69.19c0,0-0.71,3.71-4.77,1.77c0,0-1.41-1.77,0.53-3.54"/>
				<path class="st18" d="M305.76,57.17c0,0-1.06,2.3-3.36,2.3s-2.3-2.3-2.3-2.3"/>
				<circle class="st16" cx="295.55" cy="46.7" r="1.39"/>
				<circle class="st16" cx="312.89" cy="49.25" r="1.39"/>
				<circle class="st16" cx="380.63" cy="59.88" r="1.39"/>
				<circle class="st16" cx="398.9" cy="59.42" r="1.39"/>
			</g>
			<path class="st16" d="M315.49,148.55c0,0-53.83,28.45-55.02,30.23l1.38-9.07c0,0,15.03-3.19,21.16-6.35
				C289.15,160.19,311.19,147,315.49,148.55z"/>
		</g>
	</g>
	<circle class="st9" cx="1216.95" cy="77.04" r="22.59"/>
	<g class="st6">
		<g>
			<g>
				<path class="st19" d="M949.05,53.43c3.97-5.39,2.24-16.27-0.51-18.41s-3.56-1.42-3.97-4.68c-0.41-3.25-2.44-8.34-2.44-8.34
					c-1.32-4.48-13.83-4.88-18.82-4.17c-4.98,0.71-3.56-0.2-4.98-2.85c-1.42-2.64-5.49,1.12-11.49,0.81c-6-0.31-9.36,6.1-9.76,11.7
					c-0.41,5.59-4.98,3.97-9.15,11.29c-4.17,7.32-0.61,6.71,3.46,14.04c4.07,7.32,10.58,6.71,13.73,6.41
					c1.28-0.12,1.85-0.41,2.04-1.04c0.28-0.92-0.26-2.6-0.62-5.67c-0.04-0.37-0.06-0.79-0.07-1.21c-0.01-0.84,0.05-1.78,0.16-2.76
					c-2.37-1.9-1.44-6.11-0.6-8.84c0.84-2.7,2.78-1.05,3.1-0.76c0.02-0.04,0.04-0.09,0.06-0.13c0.76-1.65,1.58-2.78,2.33-2.87
					c2.44-0.31,3.56-1.42,4.58-0.61c1.02,0.81,3.15-0.51,4.27-1.02c1.12-0.51,1.42,1.22,2.85,1.83c0.91,0.39,1.74,0.32,2.21,0.22
					c0.27-0.06,0.43-0.12,0.43-0.12c0.61,2.03,4.58,2.66,5.27,2.66l-1.02,1.98c1.53,0.2,1.95-1.79,1.95-1.79
					c1.93,3.76,3.36,4.17,4.58,6.2c1.22,2.03-0.81,6.2-0.81,6.2l-4.44,5.57c2.44,2.24,2.56-1.61,0.52,0.33
					c-1.61,1.53-4.55,5.32-6.3,6.3c0.78,1.2,1.7,2.5,2.8,3.88c4.88,6.1,10.68,3.97,11.09,2.85c0.41-1.12,1.12,1.02,7.22-2.64
					c6.1-3.66,3.97-10.78,2.64-12.51C948.03,53.53,949.05,53.43,949.05,53.43z"/>
				<path class="st20" d="M937.45,51.7l-1.63-0.2c0,0,2.03-4.17,0.81-6.2c-1.22-2.03-2.64-2.44-4.58-6.2c0,0-0.43,1.99-1.95,1.79
					l1.02-1.98c-0.68,0-4.66-0.62-5.27-2.66c0,0-0.16,0.07-0.43,0.12c-0.48,0.1-1.3,0.17-2.21-0.22c-1.42-0.61-1.73-2.34-2.85-1.83
					c-1.12,0.51-3.25,1.83-4.27,1.02c-1.02-0.81-2.14,0.31-4.58,0.61c-0.75,0.09-1.57,1.22-2.33,2.87
					c-0.02,0.04-0.04,0.09-0.06,0.13c-0.32-0.3-2.26-1.94-3.1,0.76c-0.85,2.73-1.78,6.94,0.6,8.84c-0.11,0.98-0.17,1.92-0.16,2.76
					c0.01,0.43,0.03,0.84,0.07,1.21c0.36,3.08,0.9,4.75,0.62,5.67c0.16,0.38,0.18,0.77-0.21,1.04c-0.85,0.6-8.39,4.18-10.82,5.33
					c-0.47,0.22-0.77,0.37-0.77,0.37s9.15,3.05,11.9,4.88c2.75,1.83,9.26,7.43,13.63,2.44l0.27-0.55l3.7-7.58
					c0,0,0.29-0.16,0.76-0.42c1.75-0.97,4.7-4.77,6.3-6.3C933.94,55.46,939.89,53.94,937.45,51.7z"/>
				<path class="st20" d="M965.12,96.79c0,0,10.83-10.65,9.82-11.38c-1.01-0.73-11.38,6.42-11.66,6.42c-0.28,0,0.55-13.4-0.73-13.68
					c-1.28-0.28-6.15,19-6.15,19l-1.93,0.46c-4.9,1.69-8.84,5.76-11.41,9.15c0.14,1.68,0.79,8.65,2.27,9.73
					c1.04,0.76,3.73-0.19,5.63-1.02c0.08-0.04,0.16-0.05,0.24-0.07c3.61-1.94,12.2-6.72,13.28-8.89c1.38-2.75,4.04-1.65,4.96-4.31
					C970.35,99.54,965.12,96.79,965.12,96.79z"/>
				<path class="st21" d="M951.2,115.41c-0.08,0.02-0.16,0.03-0.24,0.07c-1.89,0.83-4.58,1.78-5.63,1.02
					c-1.48-1.07-2.13-8.05-2.27-9.73c-0.02-0.23-0.03-0.37-0.03-0.37s-2.83,2.53-5.59,4.96c0.55,6.42,1.39,12.79,2.69,16.76
					c0.03,0.09,0.06,0.19,0.09,0.29c3.95-2.21,8.78-4.98,10.16-6.1c1.42-1.15,2.07-3.59,2.36-5.44
					C952.88,115.95,952.05,115.22,951.2,115.41z"/>
				<path class="st20" d="M864.35,53.47c-1.1-0.09-3.4,7.98-3.4,7.98c0.92-5.14-2.48-19.46-3.76-19.55
					c-1.28-0.09,1.1,17.71,0.83,17.9c-0.28,0.18-4.41-14.87-6.42-16.43c-2.02-1.56-0.37,3.76-0.37,3.76s3.03,9.36,3.3,10.74
					c0.28,1.38-0.46,0.83-0.46,0.83s-6.79-11.93-8.44-11.01c-1.65,0.92,4.96,10.83,4.77,11.75c-0.18,0.92-6.61-5.51-8.17-5.51
					c-1.56,0,3.3,6.15,4.5,7.8c1.19,1.65,1.47,3.12,1.56,5.32c0.03,0.71,1.71,2.82,3.26,4.56c0.23,0.26,0.46,0.52,0.68,0.76
					c0.5,0.55,0.92,1.13,1.28,1.71c2.83,0.23,6.52,0.08,9.5-1.59c0.09-0.35,0.16-0.76,0.23-1.18c0.56-3.58,0.37-9.13,0.37-9.13
					S865.45,53.56,864.35,53.47z"/>
				<path class="st21" d="M940.22,128.4c-0.03-0.09-0.06-0.19-0.09-0.29c-1.3-3.97-2.14-10.34-2.69-16.76
					c-0.67-7.92-0.9-15.92-0.98-19.64c-0.15-6.73-5.96-13.61-8.11-16.82c-1.51-2.27-5.08-3.01-7.21-3.2l-0.27,0.55
					c-4.37,4.98-10.88-0.61-13.63-2.44c-2.75-1.83-11.9-4.88-11.9-4.88s0.3-0.14,0.77-0.37c-15.77-2.33-16.9,1.39-22.21,4.98
					c-5.66,3.82-9.48,18.81-9.48,18.81l-0.1-11.02l-0.05-5.66c0,0-0.38-0.15-1.03-0.36c-0.07,0.42-0.14,0.83-0.23,1.18
					c-2.98,1.66-6.67,1.82-9.5,1.59c-0.36-0.58-0.78-1.16-1.28-1.71c-0.22-0.24-0.45-0.5-0.68-0.76c-1.48,0.85-2.42,1.74-2.42,1.74
					s1.27,5,1.22,10.24c-0.01,1.55-0.14,3.13-0.45,4.6c-1.38,6.42-2.29,15.91,3.06,25.39c5.35,9.48,12.69,7.04,12.69,7.04
					s2.14,18.97,8.41,40.07c5.8,19.51,8.46,22.68,12.21,23.53c0.31,0.07,0.62,0.13,0.94,0.17c4.28,0.61,7.34-17.13,29.52-17.74
					c17.86-0.49,22.62,4.07,25.08,5.95c0.59,0.45,1.06,0.75,1.53,0.78c2.45,0.15,1.84-7.04,2.14-14.53
					C945.79,151.44,943.09,137.29,940.22,128.4z"/>
				<path class="st14" d="M941.81,172.61c-2.46-1.88-7.22-6.44-25.08-5.95c-22.18,0.61-25.24,18.35-29.52,17.74
					c-0.32-0.05-0.64-0.1-0.94-0.17c3.73,8.53,12.39,27.99,19.37,41.13c3.44,6.47,6.47,11.42,8.3,12.76c0,0-4.58,3.75-10.84,9.09
					c-13.27,11.32-34.1,29.8-35.17,35.06c-0.02,0.08-0.04,0.16-0.05,0.23c0,0.04-0.03,0.09-0.03,0.13c0,0,2.27,2.68,5.05,5.07
					c2.09,1.79,4.46,3.4,6.39,3.61c0.14,0.02,0.28,0.05,0.42,0.05c1.81,0,10.23-4.99,20.27-11.64c7.24-4.79,15.31-10.44,22.37-15.71
					c7.34-5.48,13.59-10.55,16.64-13.81c2.91-3.1,0.67-26.4-3.8-41.61C935.19,208.59,940.75,185.05,941.81,172.61z"/>
			</g>
			<path class="st22" d="M858.15,73.16c0,0-2.63,0.39-4.38-0.72"/>
		</g>
		<g>
			<g>
				<g>
					<path class="st19" d="M952.47,53.07c3.97-5.39,2.24-16.27-0.51-18.41c-2.75-2.14-3.56-1.42-3.97-4.68
						c-0.41-3.25-2.44-8.34-2.44-8.34c-1.32-4.48-13.83-4.88-18.82-4.17c-4.98,0.71-3.56-0.2-4.98-2.85
						c-1.42-2.64-5.49,1.12-11.49,0.81c-6-0.31-9.36,6.1-9.76,11.7c-0.41,5.59-4.98,3.97-9.15,11.29
						c-4.17,7.32-0.61,6.71,3.46,14.04c4.07,7.32,10.58,6.71,13.73,6.41c1.28-0.12,1.85-0.41,2.04-1.04
						c0.28-0.92-0.26-2.6-0.62-5.67c-0.04-0.37-0.06-0.79-0.07-1.21c-0.01-0.84,0.05-1.78,0.16-2.76c-2.37-1.9-1.44-6.11-0.6-8.84
						c0.84-2.7,2.78-1.05,3.1-0.76c0.02-0.04,0.04-0.09,0.06-0.13c0.76-1.65,1.58-2.78,2.33-2.87c2.44-0.31,3.56-1.42,4.58-0.61
						c1.02,0.81,3.15-0.51,4.27-1.02c1.12-0.51,1.42,1.22,2.85,1.83c0.91,0.39,1.74,0.32,2.21,0.22c0.27-0.06,0.43-0.12,0.43-0.12
						c0.61,2.03,4.58,2.66,5.27,2.66l-1.02,1.98c1.53,0.2,1.95-1.79,1.95-1.79c1.93,3.76,3.36,4.17,4.58,6.2
						c1.22,2.03-0.81,6.2-0.81,6.2l-4.44,5.57c2.44,2.24,2.56-1.61,0.52,0.33c-1.61,1.53-4.55,5.32-6.3,6.3
						c0.78,1.2,1.7,2.5,2.8,3.88c4.88,6.1,10.68,3.97,11.09,2.85c0.41-1.12,1.12,1.02,7.22-2.64c6.1-3.66,3.97-10.78,2.64-12.51
						C951.45,53.17,952.47,53.07,952.47,53.07z"/>
					<path class="st22" d="M940.87,51.34l-1.63-0.2c0,0,2.03-4.17,0.81-6.2c-1.22-2.03-2.64-2.44-4.58-6.2c0,0-0.43,1.99-1.95,1.79
						l1.02-1.98c-0.68,0-4.66-0.62-5.27-2.66c0,0-0.16,0.07-0.43,0.12c-0.48,0.1-1.3,0.17-2.21-0.22c-1.42-0.61-1.73-2.34-2.85-1.83
						c-1.12,0.51-3.25,1.83-4.27,1.02c-1.02-0.81-2.14,0.31-4.58,0.61c-0.75,0.09-1.57,1.22-2.33,2.87
						c-0.02,0.04-0.04,0.09-0.06,0.13c-0.32-0.3-2.26-1.94-3.1,0.76c-0.85,2.73-1.78,6.94,0.6,8.84c-0.11,0.98-0.17,1.92-0.16,2.76
						c0.01,0.43,0.03,0.84,0.07,1.21c0.36,3.08,0.9,4.75,0.62,5.67c0.16,0.38,0.18,0.77-0.21,1.04c-0.85,0.6-8.39,4.18-10.82,5.33
						c-0.47,0.22-0.77,0.37-0.77,0.37s9.15,3.05,11.9,4.88c2.75,1.83,9.26,7.43,13.63,2.44l0.27-0.55l3.7-7.58
						c0,0,0.29-0.16,0.76-0.42c1.75-0.97,4.7-4.77,6.3-6.3C937.36,55.1,943.31,53.58,940.87,51.34z"/>
					<path class="st22" d="M968.54,96.43c0,0,10.83-10.65,9.82-11.38c-1.01-0.73-11.38,6.42-11.66,6.42
						c-0.28,0,0.55-13.4-0.73-13.68c-1.28-0.28-6.15,19-6.15,19l-1.93,0.46c-4.9,1.69-8.84,5.76-11.41,9.15
						c0.14,1.68,0.79,8.65,2.27,9.73c1.04,0.76,3.73-0.19,5.63-1.02c0.08-0.04,0.16-0.05,0.24-0.07c3.61-1.94,12.2-6.72,13.28-8.89
						c1.38-2.75,4.04-1.65,4.96-4.31C973.77,99.18,968.54,96.43,968.54,96.43z"/>
					<path class="st22" d="M954.62,115.05c-0.08,0.02-0.16,0.03-0.24,0.07c-1.89,0.83-4.58,1.78-5.63,1.02
						c-1.48-1.07-2.13-8.05-2.27-9.73c-0.02-0.23-0.03-0.37-0.03-0.37s-2.83,2.53-5.59,4.96c0.55,6.42,1.39,12.79,2.69,16.76
						c0.03,0.09,0.06,0.19,0.09,0.29c3.95-2.21,8.78-4.98,10.16-6.1c1.42-1.15,2.07-3.59,2.36-5.44
						C956.3,115.59,955.47,114.86,954.62,115.05z"/>
					<path class="st22" d="M867.77,53.11c-1.1-0.09-3.4,7.98-3.4,7.98c0.92-5.14-2.48-19.46-3.76-19.55
						c-1.28-0.09,1.1,17.71,0.83,17.9c-0.28,0.18-4.41-14.87-6.42-16.43c-2.02-1.56-0.37,3.76-0.37,3.76s3.03,9.36,3.3,10.74
						c0.28,1.38-0.46,0.83-0.46,0.83s-6.79-11.93-8.44-11.01c-1.65,0.92,4.96,10.83,4.77,11.75c-0.18,0.92-6.61-5.51-8.17-5.51
						c-1.56,0,3.3,6.15,4.5,7.8c1.19,1.65,1.47,3.12,1.56,5.32c0.03,0.71,1.71,2.82,3.26,4.56c0.23,0.26,0.46,0.52,0.68,0.76
						c0.5,0.55,0.92,1.13,1.28,1.71c2.83,0.23,6.52,0.08,9.5-1.59c0.09-0.35,0.16-0.76,0.23-1.18c0.56-3.58,0.37-9.13,0.37-9.13
						S868.87,53.2,867.77,53.11z"/>
					<path class="st23" d="M943.64,128.04c-0.03-0.09-0.06-0.19-0.09-0.29c-1.3-3.97-2.14-10.34-2.69-16.76
						c-0.67-7.92-0.9-15.92-0.98-19.64c-0.15-6.73-5.96-13.61-8.11-16.82c-1.51-2.27-5.08-3.01-7.21-3.2l-0.27,0.55
						c-4.37,4.98-10.88-0.61-13.63-2.44c-2.75-1.83-11.9-4.88-11.9-4.88s0.3-0.14,0.77-0.37c-15.77-2.33-16.9,1.39-22.21,4.98
						c-5.66,3.82-9.48,18.81-9.48,18.81l-0.1-11.02l-0.05-5.66c0,0-0.38-0.15-1.03-0.36c-0.07,0.42-0.14,0.83-0.23,1.18
						c-2.98,1.66-6.67,1.82-9.5,1.59c-0.36-0.58-0.78-1.16-1.28-1.71c-0.22-0.24-0.45-0.5-0.68-0.76c-1.48,0.85-2.42,1.74-2.42,1.74
						s1.27,5,1.22,10.24c-0.01,1.55-0.14,3.13-0.45,4.6c-1.38,6.42-2.29,15.91,3.06,25.39c5.35,9.48,12.69,7.04,12.69,7.04
						s2.14,18.97,8.41,40.07c5.8,19.51,8.46,22.68,12.21,23.53c0.31,0.07,0.62,0.13,0.94,0.17c4.28,0.61,7.34-17.13,29.52-17.74
						c17.86-0.49,22.62,4.07,25.08,5.95c0.59,0.45,1.06,0.75,1.53,0.78c2.45,0.15,1.84-7.04,2.14-14.53
						C949.21,151.08,946.51,136.93,943.64,128.04z"/>
					<path class="st22" d="M945.23,172.25c-2.46-1.88-7.22-6.44-25.08-5.95c-22.18,0.61-25.24,18.35-29.52,17.74
						c-0.32-0.05-0.64-0.1-0.94-0.17c3.73,8.53,12.39,27.99,19.37,41.13c3.44,6.47,6.47,11.42,8.3,12.76c0,0-4.58,3.75-10.84,9.09
						c-13.27,11.32-34.1,29.8-35.17,35.06c-0.02,0.08-0.04,0.16-0.05,0.23c0,0.04-0.03,0.09-0.03,0.13c0,0,2.27,2.68,5.05,5.07
						c2.09,1.79,4.46,3.4,6.39,3.61c0.14,0.02,0.28,0.05,0.42,0.05c1.81,0,10.23-4.99,20.27-11.64
						c7.24-4.79,15.31-10.44,22.37-15.71c7.34-5.48,13.59-10.55,16.64-13.81c2.91-3.1,0.67-26.4-3.8-41.61
						C938.61,208.23,944.17,184.69,945.23,172.25z"/>
				</g>
				<path class="st22" d="M856.93,73.72c0,0-2.63,0.39-4.38-0.72"/>
				<path class="st22" d="M869.07,120.26c0,0,13.86-0.77,17.1-24.49"/>
				<path class="st22" d="M867.84,87.99c0.44,0.29,5.06,2.91,5.21,14.85"/>
				<path class="st22" d="M972.39,100.04c0,0-2.65-0.29-6.93,0.59c-4.27,0.88-7.52,6.04-7.52,6.04"/>
				<path class="st22" d="M959.82,96.8c0.62-0.59,6.79-1.18,8.72-0.37"/>
				<path class="st22" d="M910.57,57.83c0,0,6.53,16.11,17.69,5.92"/>
				<path class="st23" d="M917.68,56.92c0,0,4.44,5.58,8.65,1.67c0,0-3.25,5.36-7.21,1.08C917.2,57.59,917.68,56.92,917.68,56.92z"
					/>
				<path class="st22" d="M921.23,54.7c0,0,2.66,3.43,4.59,0.48c0,0-0.83-4.29,0.66-5.53"/>
				<circle class="st16" cx="921.05" cy="44.19" r="1.16"/>
				<circle class="st16" cx="933.64" cy="49.07" r="1.16"/>
			</g>
			<path class="st16" d="M870.99,130.66l-1.92-10.4c0,0,12.25-1.67,14.7-15.88C883.77,104.38,882.75,122.78,870.99,130.66z"/>
			<path class="st16" d="M945.23,172.25c0.97,0.69-26.65-16.81-53.66,11.59c-2.05,2.16-1.88,0.04-0.94,0.21
				c0,0,7.13-11.11,14.05-14.11C911.61,166.92,929.91,161.41,945.23,172.25z"/>
		</g>
	</g>
	<circle class="st9" cx="212.2" cy="132.76" r="43.97"/>
	<path class="st9" d="M1185.28,219.16l49.54-35.3c1.34-0.96,1.66-2.82,0.7-4.17l-35.3-49.54c-0.96-1.34-2.82-1.66-4.17-0.7
		l-49.54,35.3c-1.34,0.96-1.66,2.82-0.7,4.17l35.3,49.54C1182.07,219.8,1183.94,220.12,1185.28,219.16z"/>
	<path class="st9" d="M50.14,172.34l25.66-18.29c0.7-0.5,0.86-1.46,0.36-2.16l-18.29-25.66c-0.5-0.7-1.46-0.86-2.16-0.36
		l-25.66,18.29c-0.7,0.5-0.86,1.46-0.36,2.16l18.29,25.66C48.48,172.67,49.45,172.83,50.14,172.34z"/>
	<path class="st9" d="M959.95,108.94l49.45,5.51c1.34,0.15,2.55-0.82,2.7-2.16l5.51-49.45c0.15-1.34-0.82-2.55-2.16-2.7L966,54.63
		c-1.34-0.15-2.55,0.82-2.7,2.16l-5.51,49.45C957.64,107.58,958.61,108.79,959.95,108.94z"/>
	<path class="st9" d="M159.69,52.03l22.4,26.29c0.61,0.71,1.68,0.8,2.39,0.19l26.29-22.4c0.71-0.61,0.8-1.68,0.19-2.39l-22.4-26.29
		c-0.61-0.71-1.68-0.8-2.39-0.19l-26.29,22.4C159.17,50.25,159.08,51.32,159.69,52.03z"/>
	<path class="st9" d="M1110.14-5.48l10.92,64.48c0.13,0.79,1.07,1.13,1.68,0.63l50.39-41.7c0.61-0.51,0.45-1.49-0.3-1.77
		l-61.3-22.79C1110.77-6.9,1110-6.26,1110.14-5.48z"/>
	<path class="st9" d="M556.87-16.03l10.92,64.48c0.13,0.79,1.07,1.13,1.68,0.63l50.39-41.7c0.61-0.51,0.45-1.49-0.3-1.77
		l-61.3-22.79C557.51-17.45,556.74-16.81,556.87-16.03z"/>
	<path class="st9" d="M40.47,90.06l-8.07-64.9c-0.1-0.79-1.02-1.18-1.65-0.7L-21.43,63.9c-0.64,0.48-0.51,1.47,0.22,1.78
		l60.24,25.46C39.77,91.45,40.57,90.85,40.47,90.06z"/>
	<g class="st6">
		<g>
			<path class="st24" d="M117.53,31.31l0.57,1.17C117.74,31.97,117.52,31.56,117.53,31.31z"/>
			<path class="st13" d="M139.81,43.56c-2.68-3.3-4.23-0.76-4.23-0.76s-8.04-1.77-10.32-5.53l2.57,4.62c0,0-7.58-6.45-9.72-9.42
				l-0.57-1.17c0,0-4.87-0.49,0.58-6.41s20.31,1.44,20.31,1.44s-2.86-5.48,8.19-7.24c11.05-1.77,10.57,14.07,6.53,15.71
				c-4.04,1.64-7,0.34-7,0.34s1.99,2.91,3.1,14.02c0.87,8.71-5.91,9.53-8.88,9.48l-2.86-8.09
				C137.52,50.54,142.49,46.85,139.81,43.56z"/>
			<path class="st12" d="M112.7,50.35l2.87-5.7c-0.53-3.91,1.96-13.35,1.96-13.35c-0.01,0.25,0.21,0.67,0.57,1.17
				c2.14,2.97,9.72,9.42,9.72,9.42l-2.57-4.62c2.28,3.77,10.32,5.53,10.32,5.53s1.55-2.54,4.23,0.76c2.68,3.3-2.29,6.99-2.29,6.99
				l2.86,8.09l0.46,1.31c-0.05,0-0.1,0-0.15,0c0,0-4.59,3.33-10.42,5.4l-6.24-2.52c-6.51,0.96-7.18-10.17-7.18-10.17L112.7,50.35z"
				/>
			<path class="st25" d="M28.01,74.05l12.1,5.3L58.95,51.3c0,0-3.97-9.33-1.8-12.32c0,0,2.13-0.98,2.73,4
				c0.6,4.98,1.18,2.12,1.18,2.12s0.16-27.95,1.19-27.63c0.49,0.15,0.95,1.66,1.3,3.21c-1.04,3.19-1.17,29.76-0.18,31.22
				c0.8,1.18,1.27,0.8,1.46,0.73c-2.58,7.98-14.11,42.58-20.85,44.9c0,0-8.59-2.68-15.57-5.07c-1.86-5.03-3.35-8.56-3.46-9.08
				C24.58,81.56,26.82,76.53,28.01,74.05z"/>
			<path class="st12" d="M63.55,20.68c0.04-0.13,0.09-0.24,0.13-0.29c1.16-1.23,1.19,7.66,1.71,8.53c0.53,0.87,1.09-4.88,2.5-5.79
				c1.41-0.91,1.54,9.23,1.78,10.81s0.96-0.88,1.98-0.84c1.03,0.03-0.95,10.8-0.6,15.22c0.25,3.04,1.75,7.04,2.66,9.24
				c-1.46,1.33-3.65,3.63-5.2,5.6c-1.29-3.66-3.59-10.22-3.61-10.47c-0.01-0.08-0.04-0.08-0.09-0.06c-0.18,0.07-0.65,0.45-1.46-0.73
				C62.38,50.44,62.52,23.87,63.55,20.68z"/>
			<path class="st25" d="M-10.2,53.2c-0.48-2.56-1.8-7.39-2.59-10.21c0.67-0.28,1.06-1.17,1.26-1.49c0.46-0.73,2.79,0.12,3.71-1.34
				c0.92-1.46,1.7-2.57,1.7-2.57s3.34,0.6,3.74-1s2.33-1.23,3.25-2.69c0.92-1.46,4.01-1.88,3.86-3.78c-0.15-1.9,1.58,0.22,3.48-2.02
				s1.64-1.17,2.83-1.44s1.59,0.39,3.08-0.59c0.28-0.19,0.5-0.38,0.69-0.57l6.43,18.93c0,0-2.25,1.99-3.27,1.87
				c-1.01-0.12,2.62,7.63-1.06,9.33c-1.73,0.8-3.77,1.67-5.44,2.37c-1.88,0.78-3.3,1.35-3.3,1.35l-0.53,0.14l0.31,3.15l0.48,4.93
				c0,0-3.83,7.34-9,0.52c-3.55-4.68-8.38-6.33-11.05-6.89C-10.75,58.56-9.8,55.34-10.2,53.2z"/>
			<path class="st12" d="M-11.67,61.23c0,0,0.77,0.04,1.99,0.3c2.67,0.57,7.5,2.21,11.05,6.89c5.17,6.82,9-0.52,9-0.52l-0.48-4.93
				l-0.31-3.15l0.53-0.14c0,0,1.42-0.57,3.3-1.35c4.32,2.58,15.6,9.53,17.33,12.95c0,0-0.29,0.56-0.7,1.42
				c-1.19,2.48-3.43,7.51-3.06,9.33c0.11,0.51,1.6,4.04,3.46,9.08c3.86,10.47,9.31,27.49,7.14,37.71
				c-3.2,15.13-3.76,35.68-3.76,35.68s-0.18-0.03-0.48-0.09c-3.4-0.64-24.25-4.43-29.09-2.75c-0.46,0.16-0.97,0.32-1.53,0.47
				c-1.06-3.08-2.24-6.61-3.49-10c-0.41-1.1-0.82-2.19-1.24-3.24c-3.98-9.99-8.86-15.21-8.92-15.96c-0.21-2.64,2.23-9.37,3.53-13.55
				c1.98-6.38,2.55-13.27,2.55-13.27l-19.16-0.87l-1.28-10.95C-25.29,94.28-29.38,75.92-11.67,61.23z"/>
			<path class="st25" d="M-22.52,102.97l19.16,0.87c0,0-0.56,6.89-2.55,13.27c-1.3,4.18-3.74,10.91-3.53,13.55
				c0.06,0.75,4.95,5.98,8.92,15.96c0.42,1.05,0.83,2.14,1.24,3.24c1.25,3.39,2.43,6.91,3.49,10c1.42,4.16,2.63,7.51,3.47,8.61
				c3.6,4.73,12,11.7,12.02,14.51c0.03,2.81-7.43-2.42-7.43-2.42s5.65,15.22,3.62,14.98c-2.03-0.24-5.58-9.4-5.58-9.4
				s3.02,10.01,0.97,9.57c-2.05-0.44-5.48-10.61-5.48-10.61s2.38,12.07-1.18,10.35l-1.79-7.29c0,0,0.72,8.99-2.05,7
				c-2.77-1.99-5.5-25.89-7.45-30.15c-0.26-0.57-0.76-1.54-1.41-2.78c-0.99-1.88-2.36-4.41-3.88-7.25
				c-0.81-1.52-1.67-3.12-2.53-4.75c-4.42-8.35-9.05-17.54-9.28-20.42C-24.19,124.61-22.52,102.97-22.52,102.97z"/>
			<path class="st14" d="M67.67,61.32c1.55-1.97,3.74-4.27,5.2-5.6c0.62-0.56,1.12-0.96,1.37-1.06c0,0,12.7,18.73,22.38,19.05
				s18.32-4.11,26.34-5.41c1.74-0.28,3.44-0.76,5.06-1.34c5.84-2.07,10.42-5.4,10.42-5.4c0.05-0.01,0.1,0,0.15,0
				c10.07-0.94,10.96,29.02,10.45,41.73c-0.51,12.77,13.4,43.69,7.87,56.87c-0.29,0.7-0.72,1.34-1.25,1.93
				c-8.32,9.21-43.93,4.96-52.71,0.44c-1.19-0.61-1.89-1.23-1.96-1.81c-0.64-5.22,6.99-71.23,6.99-71.23s-16.64,0.46-21.06,0.16
				c-4.41-0.3-20.97-23.33-21.11-25.07C65.77,63.97,66.56,62.73,67.67,61.32z"/>
			<path class="st25" d="M91.09,290.08c3.12-12.14,10.7-43.01,9.55-51.25c-1.45-10.34,1.38-21.02,2.16-26.61
				c0.56-4.03,0.05-33.21-0.27-49.19c8.78,4.52,44.39,8.77,52.71-0.44c0.85,7.04,1.77,19.51,2.3,42.15
				c0.16,6.92,2.42,21.24,2.41,29.93c0,2.46,4.58,36.82,6.9,54.1c-2.23,0.5-5.04,0.8-7.91,0.28c-2.14-0.38-4.24-1.59-6.29-2.87
				c0.25-0.46,0.37-0.86,0.29-1.16c-0.91-3.62-24.91-103.13-24.91-103.13s-11.28,50.71-11.06,61.14
				c0.23,10.43-5.33,33.02-11.83,43.99c0,0,0.38,4.74-0.4,6.99c-0.19,0.55-0.44,0.95-0.79,1.1c-1.39,0.59-9.24,0.2-12.61,0.01
				c-0.79-0.05-1.35-0.8-1.15-1.57C90.41,292.71,90.72,291.53,91.09,290.08z"/>
			<path class="st14" d="M-6.16,185.14c-0.02-1.91-3.18-13.02-5.14-22.1c0.73-0.06,1.59-0.16,2.55-0.28
				c0.65,1.24,1.15,2.2,1.41,2.78c1.95,4.26,4.68,28.16,7.45,30.15c2.77,1.99,2.05-7,2.05-7l1.79,7.29
				c3.56,1.72,1.18-10.35,1.18-10.35s3.43,10.17,5.48,10.61c2.05,0.44-0.97-9.57-0.97-9.57s3.55,9.16,5.58,9.4
				c2.03,0.24-3.62-14.98-3.62-14.98s7.46,5.23,7.43,2.42c-0.03-2.81-8.43-9.77-12.02-14.51c-0.84-1.11-2.04-4.46-3.47-8.61
				c0.56-0.16,1.07-0.32,1.53-0.47c4.84-1.68,25.69,2.11,29.09,2.75c0.77,4.38,1.49,9.88,1.21,14.1
				c-0.54,8.28-1.01,39.88-1.95,43.17c-0.94,3.29,4.3,3.47,3.02,15.03c-1.28,11.56-5.21,32.58,2.89,58.26c0,0,1.55,1.65-1.55,2.45
				c-0.2,0.05-0.41,0.1-0.65,0.14c-3.96,0.72-16.09,2.3-16.09,2.3s-10.81,1.11-16.15-0.08c-1.61-0.36-2.73-0.93-2.89-1.8
				c-0.71-3.76,5.53-73.61,5.03-79.8C7.01,216.44-6.14,187.95-6.16,185.14z"/>
			<path class="st26" d="M9.47,57.58c0,0-1.19,0.42-2.39,0.82"/>
		</g>
	</g>
	<g class="st6">
		<g>
			<path class="st24" d="M116.25,32.21l0.57,1.17C116.47,32.88,116.24,32.46,116.25,32.21z"/>
			<path class="st27" d="M138.53,44.46c-2.68-3.3-4.23-0.76-4.23-0.76s-8.04-1.77-10.32-5.53l2.57,4.62c0,0-7.58-6.45-9.72-9.42
				l-0.57-1.17c0,0-4.87-0.49,0.58-6.41s20.31,1.44,20.31,1.44s-2.86-5.48,8.19-7.24c11.05-1.77,10.57,14.07,6.53,15.71
				c-4.04,1.64-7,0.34-7,0.34s1.99,2.91,3.1,14.02c0.87,8.71-5.91,9.53-8.88,9.48l-2.86-8.09
				C136.24,51.45,141.21,47.76,138.53,44.46z"/>
			<path class="st27" d="M111.42,51.25l2.87-5.7c-0.53-3.91,1.96-13.35,1.96-13.35c-0.01,0.25,0.21,0.67,0.57,1.17
				c2.14,2.97,9.72,9.42,9.72,9.42l-2.57-4.62c2.28,3.77,10.32,5.53,10.32,5.53s1.55-2.54,4.23,0.76c2.68,3.3-2.29,6.99-2.29,6.99
				l2.86,8.09l0.46,1.31c-0.05,0-0.1,0-0.15,0c0,0-4.59,3.33-10.42,5.4l-6.24-2.52c-6.51,0.96-7.18-10.17-7.18-10.17L111.42,51.25z"
				/>
			<path class="st27" d="M28.12,71.51l12.1,5.3l18.84-28.05c0,0-3.97-9.33-1.8-12.32c0,0,2.13-0.98,2.73,4
				c0.6,4.98,1.18,2.12,1.18,2.12s0.16-27.95,1.19-27.63c0.49,0.15,0.95,1.66,1.3,3.21c-1.04,3.19-1.17,29.76-0.18,31.22
				c0.8,1.18,1.27,0.8,1.46,0.73c-2.58,7.98-14.11,42.58-20.85,44.9c0,0-8.59-2.68-15.57-5.07c-1.86-5.03-3.35-8.56-3.46-9.08
				C24.69,79.02,26.93,73.99,28.12,71.51z"/>
			<path class="st27" d="M63.67,18.14c0.04-0.13,0.09-0.24,0.13-0.29c1.16-1.23,1.19,7.66,1.71,8.53c0.53,0.87,1.09-4.88,2.5-5.79
				c1.41-0.91,1.54,9.23,1.78,10.81c0.24,1.58,0.96-0.88,1.98-0.84c1.03,0.03-0.95,10.8-0.6,15.22c0.25,3.04,1.75,7.04,2.66,9.24
				c-1.46,1.33-3.65,3.63-5.2,5.6c-1.29-3.66-3.59-10.22-3.61-10.47c-0.01-0.08-0.04-0.08-0.09-0.06c-0.18,0.07-0.65,0.45-1.46-0.73
				C62.49,47.9,62.63,21.33,63.67,18.14z"/>
			<path class="st26" d="M-10.2,52.33c-0.48-2.56-1.8-7.39-2.59-10.21c0.67-0.28,1.06-1.17,1.26-1.49c0.46-0.73,2.79,0.12,3.71-1.34
				c0.92-1.46,1.7-2.57,1.7-2.57s3.34,0.6,3.74-1s2.33-1.23,3.25-2.69c0.92-1.46,4.01-1.88,3.86-3.78c-0.15-1.9,1.58,0.22,3.48-2.02
				s1.64-1.17,2.83-1.44s1.59,0.39,3.08-0.59c0.28-0.19,0.5-0.38,0.69-0.57l6.43,18.93c0,0-2.25,1.99-3.27,1.87
				c-1.01-0.12,2.62,7.63-1.06,9.33c-1.73,0.8-3.77,1.67-5.44,2.37c-1.88,0.78-3.3,1.35-3.3,1.35l-0.53,0.14l0.31,3.15l0.48,4.93
				c0,0-3.83,7.34-9,0.52c-3.55-4.68-8.38-6.33-11.05-6.89C-10.74,57.7-9.79,54.47-10.2,52.33z"/>
			<path class="st26" d="M-13.59,60.04c0,0,0.77,0.04,1.99,0.3c2.67,0.57,7.5,2.21,11.05,6.89c5.17,6.82,9-0.52,9-0.52l-0.48-4.93
				l-0.31-3.15l0.53-0.14c0,0,1.42-0.57,3.3-1.35c4.32,2.58,15.6,9.53,17.33,12.95c0,0-0.29,0.56-0.7,1.42
				c-1.19,2.48-3.43,7.51-3.06,9.33c0.11,0.51,1.6,4.04,3.46,9.08c3.86,10.47,9.31,27.49,7.14,37.71
				c-3.2,15.13-3.76,35.68-3.76,35.68s-0.18-0.03-0.48-0.09c-3.4-0.64-24.25-4.43-29.09-2.75c-0.46,0.16-0.97,0.32-1.53,0.47
				c-1.06-3.08-2.24-6.61-3.49-10c-0.41-1.1-0.82-2.19-1.24-3.24c-3.98-9.99-8.86-15.21-8.92-15.96c-0.21-2.64,2.23-9.37,3.53-13.55
				c1.98-6.38,2.55-13.27,2.55-13.27l-19.16-0.87l-1.28-10.95C-27.21,93.1-31.3,74.73-13.59,60.04z"/>
			<path class="st26" d="M-25.93,104.05l19.16,0.87c0,0-0.56,6.89-2.55,13.27c-1.3,4.18-3.74,10.91-3.53,13.55
				c0.06,0.75,4.95,5.98,8.92,15.96c0.42,1.05,0.83,2.14,1.24,3.24c1.25,3.39,2.43,6.91,3.49,10c1.42,4.16,2.63,7.51,3.47,8.61
				c3.6,4.73,12,11.7,12.02,14.51c0.03,2.81-7.43-2.42-7.43-2.42s5.65,15.22,3.62,14.98c-2.03-0.24-5.58-9.4-5.58-9.4
				s3.02,10.01,0.97,9.57c-2.05-0.44-5.48-10.61-5.48-10.61s2.38,12.07-1.18,10.35l-1.79-7.29c0,0,0.72,8.99-2.05,7
				c-2.77-1.99-5.5-25.89-7.45-30.15c-0.26-0.57-0.76-1.54-1.41-2.78c-0.99-1.88-2.36-4.41-3.88-7.25
				c-0.81-1.52-1.67-3.12-2.53-4.75c-4.42-8.35-9.05-17.54-9.28-20.42C-27.6,125.69-25.93,104.05-25.93,104.05z"/>
			<path class="st26" d="M68.64,60.61c1.55-1.97,3.74-4.27,5.2-5.6c0.62-0.56,1.12-0.96,1.37-1.06c0,0,12.7,18.73,22.38,19.05
				s18.32-4.11,26.34-5.41c1.74-0.28,3.44-0.76,5.06-1.34c5.84-2.07,10.42-5.4,10.42-5.4c0.05-0.01,0.1,0,0.15,0
				c10.07-0.94,10.96,29.02,10.45,41.73c-0.51,12.77,13.4,43.69,7.87,56.87c-0.29,0.7-0.72,1.34-1.25,1.93
				c-8.32,9.21-43.93,4.96-52.71,0.44c-1.19-0.61-1.89-1.23-1.96-1.81c-0.64-5.22,6.99-71.23,6.99-71.23s-16.64,0.46-21.06,0.16
				c-4.41-0.3-20.97-23.33-21.11-25.07C66.74,63.27,67.53,62.02,68.64,60.61z"/>
			<path class="st26" d="M92.49,288.87c3.12-12.14,10.7-43.01,9.55-51.25c-1.45-10.34,1.38-21.02,2.16-26.61
				c0.56-4.03,0.05-33.21-0.27-49.19c8.78,4.52,44.39,8.77,52.71-0.44c0.85,7.04,1.77,19.51,2.3,42.15
				c0.16,6.92,2.42,21.24,2.41,29.93c0,2.46,4.58,36.82,6.9,54.1c-2.23,0.5-5.04,0.8-7.91,0.28c-2.14-0.38-4.24-1.59-6.29-2.87
				c0.25-0.46,0.37-0.86,0.29-1.16c-0.91-3.62-24.91-103.13-24.91-103.13s-11.28,50.71-11.06,61.14
				c0.23,10.43-5.33,33.02-11.83,43.99c0,0,0.38,4.74-0.4,6.99c-0.19,0.55-0.44,0.95-0.79,1.1c-1.39,0.59-9.24,0.2-12.61,0.01
				c-0.79-0.05-1.35-0.8-1.15-1.57C91.81,291.5,92.12,290.32,92.49,288.87z"/>
			<path class="st26" d="M-8.9,185.68c-0.02-1.91-3.18-13.02-5.14-22.1c0.73-0.06,1.59-0.16,2.55-0.28c0.65,1.24,1.15,2.2,1.41,2.78
				c1.95,4.26,4.68,28.16,7.45,30.15c2.77,1.99,2.05-7,2.05-7l1.79,7.29c3.56,1.72,1.18-10.35,1.18-10.35s3.43,10.17,5.48,10.61
				c2.05,0.44-0.97-9.57-0.97-9.57s3.55,9.16,5.58,9.4c2.03,0.24-3.62-14.98-3.62-14.98s7.46,5.23,7.43,2.42
				c-0.03-2.81-8.43-9.77-12.02-14.51c-0.84-1.11-2.04-4.46-3.47-8.61c0.56-0.16,1.07-0.32,1.53-0.47
				c4.84-1.68,25.69,2.11,29.09,2.75c0.77,4.38,1.49,9.88,1.21,14.1c-0.54,8.28-1.01,39.88-1.95,43.17
				c-0.94,3.29,4.3,3.47,3.02,15.03c-1.28,11.56-5.21,32.58,2.89,58.26c0,0,1.55,1.65-1.55,2.45c-0.2,0.05-0.41,0.1-0.65,0.14
				c-3.96,0.72-16.09,2.3-16.09,2.3s-10.81,1.11-16.15-0.08c-1.61-0.36-2.73-0.93-2.89-1.8c-0.71-3.76,5.53-73.61,5.03-79.8
				C4.28,216.98-8.87,188.5-8.9,185.68z"/>
			<path class="st28" d="M-18.12,34.05c-1.57-0.05-1.72-1.94-1.58-4.56c0.14-2.61,0.56-1.61,0.05-3.65
				c-0.51-2.04,0.09-3.13,2.25-4.35s0.02-1.91,0.57-3.69c0.55-1.78,2.14-1.39,2.85-3.35c0.71-1.97,1.19,1.81,3.54-1.33
				s1.88,1.76,3.59-0.64s4.75,0.83,4.84-0.22c0.09-1.05,3.29-2.17,4.08-1.02s3.13,0.09,5.21,0.1s1.4,2.32,2.78,2.2
				s1.75,2.29,1.75,4.54c0,1.18,1.64,0.67,2.7,1.17c0.95,0.45,0.66,1.9,0.9,2.71c0.29,1,0.23,1.84-0.59,2.66
				c-0.19,0.19-0.41,0.38-0.69,0.57c-1.48,0.99-1.88,0.33-3.08,0.59S10.12,25,8.22,27.24s-3.63,0.12-3.48,2.02
				c0.15,1.9-2.94,2.32-3.86,3.78c-0.92,1.46-2.86,1.1-3.25,2.69s-3.74,1-3.74,1s-0.78,1.1-1.7,2.57c-0.92,1.46-3.25,0.61-3.71,1.34
				c-0.21,0.33-0.59,1.21-1.26,1.49c-0.16,0.07-0.32,0.11-0.51,0.1c-0.83-0.06-2.2-1.44-2.2-1.44s-0.79-1.15-2.17-3.29
				C-19.06,35.34-16.56,34.09-18.12,34.05z"/>
			<path class="st26" d="M118.57,55.46c0,0,4.05,2.45,5.19-0.57"/>
			<path class="st26" d="M122.75,63.73c0,0,5.04-1,7.05-2.86"/>
			<path class="st26" d="M8.19,58.49c0,0-1.19,0.42-2.39,0.82"/>
			<path class="st26" d="M10.83,49.04c0,0,2.29,1.66,3.93,0.92"/>
			<line class="st26" x1="14.24" y1="39.49" x2="-3.39" y2="40.08"/>
			
				<ellipse transform="matrix(0.9968 -0.0803 0.0803 0.9968 -3.2564 1.4135)" class="st26" cx="15.94" cy="41.18" rx="1.7" ry="3.16"/>
			<path class="st26" d="M20.46,35.54c0.18,2.26-0.69,4.11-1.53,4.17c-0.84,0.07-1.34-1.67-1.52-3.93s0.75-4.22,1.59-4.28
				S20.27,33.28,20.46,35.54z"/>
			<path class="st26" d="M25.07,80.84c-0.52-0.65-0.98,0.13-1.23-2.9c-0.24-3.03-1.25-9.04-1.25-9.04"/>
			<path class="st26" d="M108.96,88.76c0,0,11.33-0.49,13.94-1.11"/>
			<path class="st26" d="M127.57,66.81c0,0,7.79,0.19,9.2,4.99"/>
			<circle class="st16" cx="119.72" cy="45.04" r="1.06"/>
		</g>
		<polygon class="st16" points="103.33,145.16 110.26,95.07 119.69,88.33 108.96,88.76 		"/>
		<path class="st16" d="M31.43,163.21c0,0-26.6-2.41-30.14,1.43l-0.48-3.7C0.81,160.93,0.76,157.2,31.43,163.21z"/>
		<path class="st16" d="M103.93,161.81c0,0,34.05,19.31,52.94,0.01l-6.91,3.6l-7.55,1.28l-21.32-0.53L103.93,161.81z"/>
	</g>
	<g class="st6">
		<g>
			<g>
				<g>
					<path class="st29" d="M245.25,15.74c-0.82-0.51-2.46,3.78-2.46,3.78l-0.2-0.03c0,0,1.04-6.86,0.4-6.97
						c-0.65-0.11-2.46,6.61-2.46,6.61s1.36-7.6,0.34-7.99c-0.87-0.34-1.94,2.69-2.24,3.59c-0.05,0.15-0.33,5.1-0.33,5.1
						s0.14-6.97-0.08-7.54c-0.23-0.56-1.04,0.62-1.38,1.21c-0.34,0.59-1.13,11.46-1.13,11.46c-0.03-0.79-1.55-2.4-2.85-3.11
						c-1.3-0.71-2.06,0.03-2.23,0.37c-0.17,0.34,0.25,0.96,1.55,1.75c1.3,0.79,1.61,2.32,1.64,3.02c0.03,0.71,0.68,1.69,1.58,2
						c0.9,0.31,1,1.26,1,1.26c-0.48,7.44-4.47,11.9-5.61,13.53c-0.22,0.32-0.35,0.53-0.31,0.64c1.8,4.66,7.04,4.29,7.61,4.06
						c0.56-0.23,2.54-8.72,2.68-9.29c0.14-0.56,2-7.85,2-7.85c0.62-0.11,1.61-2.4,1.69-3.25c0.08-0.85,0-8.72,0-8.72
						S246.07,16.24,245.25,15.74z"/>
					<path class="st29" d="M208.29,35.5c-0.53-1,0.12-2.17-0.71-3.17c-0.82-1-0.12-2-1.53-2.35c-1.41-0.35-1.82-0.47-2.59-0.94
						c-0.76-0.47-0.47,0.59-2.06,0.12c-1.59-0.47-2.06-0.88-2.06-0.88s-0.65,0.88-2.06,0.76c-1.41-0.12-0.82,0.35-1.59,0.59
						c-0.76,0.24-1.35,0.41-0.82,1.35c0.53,0.94,0.94,1.41,0.41,1.59c-0.53,0.18-1.65-0.18-1.18,0.65c0.47,0.82,0.41,1.76,0.18,1.82
						c-0.24,0.06-1.23,0-0.82,0.76c0.41,0.76,0.24,2.41-0.35,2.53c-0.59,0.12-1.12,0.53-1.18,0.35c-0.06-0.18-0.29-2-1.7-2.88
						c0,0-1.23-1.7-1.88,1.53c-0.65,3.23,2.06,4.47,2.06,4.47c0.32,3.04-1.22,7.23-1.8,8.98c-0.17,0.51-0.26,0.83-0.2,0.83
						c2.64,0.06,9.81,7.11,9.81,7.11s1.29,0.76,2.47-0.06c0.77-0.54,1.46-3.35,1.85-5.22c0.2-0.98,0.32-1.71,0.32-1.71
						c5.29-1.94,5.52-11.4,5.52-11.4l0.12-3.67C208.49,36.16,208.42,35.74,208.29,35.5z"/>
					<path class="st30" d="M209.11,34.15c0.18-0.88-0.47-1.59-0.29-2.17c0.18-0.59-0.29-0.94-0.71-1.59
						c-0.41-0.65-0.29-1.53-0.12-2.29c0.18-0.76-1,0.35-1.53-0.53c-0.53-0.88-0.59-0.59-0.65-1.12c-0.06-0.53-0.65-0.06-1.82-0.65
						c-1.18-0.59,0.18-0.65-0.88-0.94c-1.06-0.29-0.82,0.18-1.76-0.29c-0.94-0.47-1.18-0.29-2.29,0c-1.12,0.29-1.23,0.41-1.82,0.47
						c-0.59,0.06-1.35-0.24-2.59,0.53c-1.23,0.76-0.53,0.71-1.59,1.29c-1.06,0.59-0.94,0.59-1.94,2.06c-1,1.47-1.06,2-1.41,3.17
						c-0.35,1.18,0.53,3.7,0.53,3.7c1.41,0.88,1.65,2.7,1.7,2.88c0.06,0.18,0.59-0.24,1.18-0.35c0.59-0.12,0.76-1.76,0.35-2.53
						c-0.41-0.76,0.59-0.71,0.82-0.76c0.24-0.06,0.29-1-0.18-1.82c-0.47-0.82,0.65-0.47,1.18-0.65c0.53-0.18,0.12-0.65-0.41-1.59
						c-0.53-0.94,0.06-1.12,0.82-1.35c0.76-0.24,0.18-0.71,1.59-0.59c1.41,0.12,2.06-0.76,2.06-0.76s0.47,0.41,2.06,0.88
						c1.59,0.47,1.29-0.59,2.06-0.12c0.76,0.47,1.18,0.59,2.59,0.94c1.41,0.35,0.71,1.35,1.53,2.35c0.82,1,0.18,2.17,0.71,3.17
						c0.13,0.24,0.2,0.66,0.24,1.15c0.12,1.51-0.11,3.75-0.06,4.02c0,0,0.41-0.71,0.65-2.12C209.35,37.14,208.93,35.03,209.11,34.15
						z"/>
					<path class="st14" d="M230.48,44.42c-0.04-0.1,0.09-0.32,0.31-0.64c-0.32-0.02-0.73,0.16-1.17,0.85
						c-1.07,1.68-3.21,4.89-4.28,5.27c-1.07,0.38-3.44-0.38-3.89,1.6c-0.46,1.98-2.21,2.44-5.8,2.98
						c-3.59,0.53-8.09-0.76-10.46-0.92c-0.8-0.05-1.73-0.1-2.63-0.15c-0.39,1.87-1.08,4.68-1.85,5.22
						c-1.18,0.82-2.47,0.06-2.47,0.06s-7.17-7.05-9.81-7.11c-0.07,0,0.03-0.32,0.2-0.83c-1.15-0.14-2.09-0.14-2.6,0.06
						c-2.29,0.92-7.71,3.74-8.09,6.26c-0.38,2.52-0.53,4.73-1.15,5.5c-0.61,0.76-2.06,4.96-1.22,8.78c0,0-0.61-0.15-0.61,3.36
						c0,3.51,0.46,7.79-0.23,9.92c-0.69,2.14-1.3,4.12-0.84,7.86c0.46,3.74-0.38,3.21-0.31,6.11c0.08,2.9-0.31,7.71,0.46,10.15
						c0.59,1.9,1.23,3.05,1.48,3.48c-0.41-0.95-0.66-1.53-0.66-1.53l9.78-1.5c0,0,0.49,3.38,0.97,6.74c0.15,1.06,0.3,2.11,0.43,3.05
						l17.13,1.43l1.03,0.09c0,0,1.91,1.22,1.76-0.84c-0.15-2.06-0.92-2.75,0.92-4.43c1.83-1.68,2.37-4.81,1.6-12.22
						c0,0-0.69-6.41-0.15-10.54c0.53-4.12,1.3-19.85-0.61-23.82c0,0-1.53-0.15,3.28-0.76c4.81-0.61,9.47-3.44,12.14-4.58
						c2.67-1.15,3.66,0.15,5.12-1.07c1.45-1.22,1.53-0.69,2.9-2.14c1.37-1.45,1.91-3.44,2.75-4.58c0.84-1.15,3.21,0,4.19-7.07
						C237.52,48.71,232.27,49.08,230.48,44.42z"/>
					<path class="st29" d="M188.72,132.39c-0.83-2.84-2.14-9.06-2.21-9.89c-0.02-0.26-0.22-1.68-0.47-3.49
						c-0.13-0.95-0.28-2-0.43-3.05c-0.48-3.36-0.97-6.74-0.97-6.74l-9.78,1.5c0,0,0.26,0.58,0.66,1.53
						c1.67,3.9,5.92,14.05,5.57,15.76c-0.43,2.13-1.98,2.83-1.98,5.1c0,2.27-0.15,5.24-0.49,6.14s-2.42,4.43-1.31,5.05
						c0.87,0.49,2.47-2.02,3.11-3.11c-0.67,1.19-2.33,4.19-2.21,4.77c0.21,1.04,1.38,0.83,1.38,0.83s-0.09,0.69,0.35,0.9
						c0.94,0.44,1.69,0.14,1.96-0.01c0.07-0.04,0.11-0.06,0.11-0.06s0.48,0.83,1.8,0.35c1.31-0.48,5.47-6.57,5.33-8.58
						C189.13,139.38,189.55,135.23,188.72,132.39z"/>
					<path class="st12" d="M204.89,136.01c-0.24-6.42-1.12-12.19-1.73-15.56l-17.13-1.43c0.25,1.81,0.45,3.23,0.47,3.49
						c0.07,0.83,1.38,7.06,2.21,9.89c0.83,2.84,0.42,6.99,0.42,6.99c0.14,2.01-4.01,8.09-5.33,8.58c-1.31,0.48-1.8-0.35-1.8-0.35
						s-0.04,0.03-0.11,0.06c-0.13,8.08,3.1,21.04,1.62,22.64c-1.71,1.87,0,2.49-3.27,6.86c-3.27,4.36-25.88,34.92-26.34,36.63
						c-0.09,0.32,0.41,0.77,1.27,1.27c2.65,1.55,8.76,3.69,11.97,4.76c1.24,0.41,2.05,0.67,2.05,0.67s22.91-35.39,28.06-38.66
						c0.74-0.47,1.39-1.25,1.96-2.27c3.39-6.05,4.04-20.79,5.37-32.8C204.96,143.19,205.02,139.5,204.89,136.01z"/>
					<path class="st12" d="M215.01,178.58c1.25-5.3,3.9-9.51,2.03-16.06c-1.26-4.43-7.95-18.12-12.14-26.52
						c0.13,3.5,0.07,7.18-0.33,10.78c-1.33,12.01-1.99,26.75-5.37,32.8c0.38,12.78,1.09,33.88,3.5,34.54
						c1.23,0.33,3.42,0.11,5.72-0.32c4.13-0.76,8.62-2.18,8.62-2.18s0-0.01,0-0.02C216.93,210.7,213.78,183.79,215.01,178.58z"/>
				</g>
			</g>
		</g>
		<g>
			<g>
				<g>
					<path class="st31" d="M246,17.78c-0.82-0.51-2.46,3.78-2.46,3.78l-0.2-0.03c0,0,1.04-6.86,0.4-6.97
						c-0.65-0.11-2.46,6.61-2.46,6.61s1.36-7.6,0.34-7.99c-0.87-0.34-1.94,2.69-2.24,3.59c-0.05,0.15-0.33,5.1-0.33,5.1
						s0.14-6.97-0.08-7.54c-0.23-0.56-1.04,0.62-1.38,1.21c-0.34,0.59-1.13,11.46-1.13,11.46c-0.03-0.79-1.55-2.4-2.85-3.11
						c-1.3-0.71-2.06,0.03-2.23,0.37c-0.17,0.34,0.25,0.96,1.55,1.75c1.3,0.79,1.61,2.32,1.64,3.02c0.03,0.71,0.68,1.69,1.58,2
						c0.9,0.31,1,1.26,1,1.26c-0.48,7.44-4.47,11.9-5.61,13.53c-0.22,0.32-0.35,0.53-0.31,0.64c1.8,4.66,7.04,4.29,7.61,4.06
						c0.56-0.23,2.54-8.72,2.68-9.29c0.14-0.56,2-7.85,2-7.85c0.62-0.11,1.61-2.4,1.69-3.25c0.08-0.85,0-8.72,0-8.72
						S246.81,18.28,246,17.78z"/>
					<path class="st31" d="M209.03,37.54c-0.53-1,0.12-2.17-0.71-3.17c-0.82-1-0.12-2-1.53-2.35c-1.41-0.35-1.82-0.47-2.59-0.94
						c-0.76-0.47-0.47,0.59-2.06,0.12c-1.59-0.47-2.06-0.88-2.06-0.88s-0.65,0.88-2.06,0.76c-1.41-0.12-0.82,0.35-1.59,0.59
						c-0.76,0.24-1.35,0.41-0.82,1.35c0.53,0.94,0.94,1.41,0.41,1.59c-0.53,0.18-1.65-0.18-1.18,0.65c0.47,0.82,0.41,1.76,0.18,1.82
						c-0.24,0.06-1.23,0-0.82,0.76s0.24,2.41-0.35,2.53c-0.59,0.12-1.12,0.53-1.18,0.35c-0.06-0.18-0.29-2-1.7-2.88
						c0,0-1.23-1.7-1.88,1.53c-0.65,3.23,2.06,4.47,2.06,4.47c0.32,3.04-1.22,7.23-1.8,8.98c-0.17,0.51-0.26,0.83-0.2,0.83
						c2.64,0.06,9.81,7.11,9.81,7.11s1.29,0.76,2.47-0.06c0.77-0.54,1.46-3.35,1.85-5.22c0.2-0.98,0.32-1.71,0.32-1.71
						c5.29-1.94,5.52-11.4,5.52-11.4l0.12-3.67C209.23,38.2,209.16,37.78,209.03,37.54z"/>
					<path class="st31" d="M209.85,36.19c0.18-0.88-0.47-1.59-0.29-2.17c0.18-0.59-0.29-0.94-0.71-1.59
						c-0.41-0.65-0.29-1.53-0.12-2.29c0.18-0.76-1,0.35-1.53-0.53c-0.53-0.88-0.59-0.59-0.65-1.12c-0.06-0.53-0.65-0.06-1.82-0.65
						c-1.18-0.59,0.18-0.65-0.88-0.94c-1.06-0.29-0.82,0.18-1.76-0.29c-0.94-0.47-1.18-0.29-2.29,0c-1.12,0.29-1.23,0.41-1.82,0.47
						c-0.59,0.06-1.35-0.24-2.59,0.53c-1.23,0.76-0.53,0.71-1.59,1.29c-1.06,0.59-0.94,0.59-1.94,2.06s-1.06,2-1.41,3.17
						c-0.35,1.18,0.53,3.7,0.53,3.7c1.41,0.88,1.65,2.7,1.7,2.88c0.06,0.18,0.59-0.24,1.18-0.35c0.59-0.12,0.76-1.76,0.35-2.53
						s0.59-0.71,0.82-0.76c0.24-0.06,0.29-1-0.18-1.82c-0.47-0.82,0.65-0.47,1.18-0.65c0.53-0.18,0.12-0.65-0.41-1.59
						c-0.53-0.94,0.06-1.12,0.82-1.35c0.76-0.24,0.18-0.71,1.59-0.59c1.41,0.12,2.06-0.76,2.06-0.76s0.47,0.41,2.06,0.88
						c1.59,0.47,1.29-0.59,2.06-0.12c0.76,0.47,1.18,0.59,2.59,0.94c1.41,0.35,0.71,1.35,1.53,2.35c0.82,1,0.18,2.17,0.71,3.17
						c0.13,0.24,0.2,0.66,0.24,1.15c0.12,1.51-0.11,3.75-0.06,4.02c0,0,0.41-0.71,0.65-2.12C210.09,39.18,209.68,37.07,209.85,36.19
						z"/>
					<path class="st31" d="M231.22,46.46c-0.04-0.1,0.09-0.32,0.31-0.64c-0.32-0.02-0.73,0.16-1.17,0.85
						c-1.07,1.68-3.21,4.89-4.28,5.27c-1.07,0.38-3.44-0.38-3.89,1.6c-0.46,1.98-2.21,2.44-5.8,2.98
						c-3.59,0.53-8.09-0.76-10.46-0.92c-0.8-0.05-1.73-0.1-2.63-0.15c-0.39,1.87-1.08,4.68-1.85,5.22
						c-1.18,0.82-2.47,0.06-2.47,0.06s-7.17-7.05-9.81-7.11c-0.07,0,0.03-0.32,0.2-0.83c-1.15-0.14-2.09-0.14-2.6,0.06
						c-2.29,0.92-7.71,3.74-8.09,6.26c-0.38,2.52-0.53,4.73-1.15,5.5c-0.61,0.76-2.06,4.96-1.22,8.78c0,0-0.61-0.15-0.61,3.36
						s0.46,7.79-0.23,9.92c-0.69,2.14-1.3,4.12-0.84,7.86c0.46,3.74-0.38,3.21-0.31,6.11c0.08,2.9-0.31,7.71,0.46,10.15
						c0.59,1.9,1.23,3.05,1.48,3.48c-0.41-0.95-0.66-1.53-0.66-1.53l9.78-1.5c0,0,0.49,3.38,0.97,6.74c0.15,1.06,0.3,2.11,0.43,3.05
						l17.13,1.43l1.03,0.09c0,0,1.91,1.22,1.76-0.84c-0.15-2.06-0.92-2.75,0.92-4.43c1.83-1.68,2.37-4.81,1.6-12.22
						c0,0-0.69-6.41-0.15-10.54c0.53-4.12,1.3-19.85-0.61-23.82c0,0-1.53-0.15,3.28-0.76c4.81-0.61,9.47-3.44,12.14-4.58
						c2.67-1.15,3.66,0.15,5.12-1.07c1.45-1.22,1.53-0.69,2.9-2.14s1.91-3.44,2.75-4.58c0.84-1.15,3.21,0,4.19-7.07
						C238.26,50.75,233.01,51.12,231.22,46.46z"/>
					<path class="st31" d="M189.46,134.43c-0.83-2.84-2.14-9.06-2.21-9.89c-0.02-0.26-0.22-1.68-0.47-3.49
						c-0.13-0.95-0.28-2-0.43-3.05c-0.48-3.36-0.97-6.74-0.97-6.74l-9.78,1.5c0,0,0.26,0.58,0.66,1.53
						c1.67,3.9,5.92,14.05,5.57,15.76c-0.43,2.13-1.98,2.83-1.98,5.1c0,2.27-0.15,5.24-0.49,6.14s-2.42,4.43-1.31,5.05
						c0.87,0.49,2.47-2.02,3.11-3.11c-0.67,1.19-2.33,4.19-2.21,4.77c0.21,1.04,1.38,0.83,1.38,0.83s-0.09,0.69,0.35,0.9
						c0.94,0.44,1.69,0.14,1.96-0.01c0.07-0.04,0.11-0.06,0.11-0.06s0.48,0.83,1.8,0.35c1.31-0.48,5.47-6.57,5.33-8.58
						C189.87,141.42,190.29,137.27,189.46,134.43z"/>
					<path class="st31" d="M205.64,138.05c-0.24-6.42-1.12-12.19-1.73-15.56l-17.13-1.43c0.25,1.81,0.45,3.23,0.47,3.49
						c0.07,0.83,1.38,7.06,2.21,9.89c0.83,2.84,0.42,6.99,0.42,6.99c0.14,2.01-4.01,8.09-5.33,8.58c-1.31,0.48-1.8-0.35-1.8-0.35
						s-0.04,0.03-0.11,0.06c-0.13,8.08,3.1,21.04,1.62,22.64c-1.71,1.87,0,2.49-3.27,6.86c-3.27,4.36-25.88,34.92-26.34,36.63
						c-0.09,0.32,0.41,0.77,1.27,1.27c2.65,1.55,8.76,3.69,11.97,4.76c1.24,0.41,2.05,0.67,2.05,0.67s22.91-35.39,28.06-38.66
						c0.74-0.47,1.39-1.25,1.96-2.27c3.39-6.05,4.04-20.79,5.37-32.8C205.7,145.23,205.77,141.54,205.64,138.05z"/>
					<path class="st31" d="M215.75,180.62c1.25-5.3,3.9-9.51,2.03-16.06c-1.26-4.43-7.95-18.12-12.14-26.52
						c0.13,3.5,0.07,7.18-0.33,10.78c-1.33,12.01-1.99,26.75-5.37,32.8c0.38,12.78,1.09,33.88,3.5,34.54
						c1.23,0.34,3.42,0.11,5.72-0.32c4.13-0.76,8.62-2.18,8.62-2.18s0-0.01,0-0.02C217.67,212.75,214.52,185.83,215.75,180.62z"/>
				</g>
				<path class="st31" d="M203.62,53.75c0,0-3.14,1.83-6.17-1.36c-3.03-3.19-4.58-2.94-4.58-3.76s-0.25-2.37-0.25-2.37"/>
				<path class="st32" d="M199.66,46.83c0,0,5.32,0.82,6.05,0.16c0,0-0.9,2.54-3.76,2.21C201.95,49.2,200.48,48.47,199.66,46.83z"/>
				<path class="st32" d="M204.9,38.73c0,0-0.82,1.72-0.57,2.86s0.74,2.05,0.49,2.29c-0.25,0.25-2.13,0.98-2.13,0.98"/>
				<path class="st32" d="M208.45,70.73c0.13-0.67,0.13-2.39,0.62-3.61"/>
				<path class="st32" d="M189.93,58.37c9.41,3.03,5.81,12.76,4.99,16.03c-0.82,3.27-5.81,7.28-5.56,10.8
					c0.25,3.52-1.15,5.4-2.05,6.38s0,0-0.25,3.35c-0.25,3.35-1.23,4.25-0.74,8.26c0.49,4.01-0.41,4.99-0.95,8.06"/>
				<path class="st32" d="M198.98,60.75c0,0,2.56-0.17,2.56,5.23s2.29,17.34,3.03,23.56c0.74,6.22-0.9,10.55-1.31,16.93
					c-0.41,6.38-0.65,14.72-0.65,14.72"/>
				<line class="st32" x1="177.53" y1="64.62" x2="185.22" y2="53.79"/>
				<circle class="st16" cx="199.35" cy="39.58" r="0.51"/>
				<circle class="st16" cx="206.39" cy="40.38" r="0.51"/>
				<path class="st32" d="M192.69,43.17c0,0-0.55,1.15-1.52,0.66"/>
				<path class="st32" d="M191.97,41.31c-0.21-0.25-1.14-1.9-1.18-1.01c-0.04,0.89,0.34,2.32,0.93,2.24"/>
			</g>
			<path class="st16" d="M199.93,181.63c0,0,2.46-3.26,2.82-9.09s3.39-30.72,2.88-34.49l3.5,7.34c0,0-5.93,35.66-9.06,36.91
				L199.93,181.63z"/>
			<polygon class="st16" points="203.91,122.48 187.25,124.54 186.78,121.05 			"/>
		</g>
	</g>
	<g class="st6">
		<g>
			<g>
				<path class="st24" d="M1018.95,41.77l-0.27,0.69C1018.86,42.15,1018.97,41.91,1018.95,41.77z"/>
				<path class="st12" d="M1022.24,53.63c0.43-0.06,0.7-0.49,0.56-0.9l-2.01-1.75l-1.84-9.21c0.02,0.14-0.09,0.39-0.27,0.69
					c-1.08,1.79-5.1,5.8-5.1,5.8l1.25-2.75c-1.12,2.25-5.62,3.62-5.62,3.62s-1-1.37-2.37,0.62c-1.37,2,1.62,3.87,1.62,3.87
					l-1.26,4.74l-0.2,0.76c0.03,0,0.06-0.01,0.09,0c0,0,2.76,1.68,6.18,2.59l3.44-1.72c3.75,0.25,3.62-6.12,3.62-6.12L1022.24,53.63
					z"/>
				<path class="st25" d="M1071.85,61.98l-6.64,3.57l-12.01-15.1c0,0,1.83-5.49,0.46-7.09c0,0-1.26-0.46-1.37,2.4
					s-0.57,1.26-0.57,1.26s-1.37-15.9-1.94-15.67c-0.27,0.11-0.46,0.99-0.59,1.89c0.74,1.77,2.03,16.88,1.53,17.76
					c-0.4,0.71-0.69,0.51-0.8,0.48c1.83,4.42,9.98,23.58,13.92,24.6c0,0,4.77-1.92,8.63-3.6c0.83-2.95,1.52-5.03,1.55-5.32
					C1074.15,66.1,1072.64,63.34,1071.85,61.98z"/>
				<path class="st12" d="M1049.18,33.24c-0.03-0.07-0.06-0.13-0.09-0.16c-0.71-0.65-0.32,4.41-0.58,4.93
					c-0.26,0.52-0.84-2.73-1.69-3.18c-0.84-0.45-0.45,5.32-0.52,6.23c-0.06,0.91-0.58-0.45-1.17-0.39c-0.58,0.06,1.04,6.1,1.04,8.63
					c0,1.74-0.67,4.09-1.09,5.38c0.89,0.69,2.24,1.9,3.22,2.95c0.57-2.14,1.57-5.98,1.57-6.12c0-0.04,0.02-0.05,0.05-0.04
					c0.11,0.03,0.39,0.22,0.8-0.48C1051.21,50.13,1049.91,35.01,1049.18,33.24z"/>
				<path class="st25" d="M1092.64,48.36c0.16-1.48,0.68-4.29,1-5.93c-0.4-0.13-0.65-0.62-0.79-0.79c-0.3-0.39-1.58,0.2-2.17-0.59
					c-0.59-0.79-1.09-1.38-1.09-1.38s-1.88,0.49-2.17-0.39c-0.3-0.89-1.38-0.59-1.97-1.38s-2.37-0.89-2.37-1.97s-0.89,0.2-2.07-0.99
					c-1.18-1.18-0.99-0.59-1.68-0.69c-0.69-0.1-0.89,0.3-1.78-0.2c-0.17-0.09-0.3-0.19-0.42-0.29l-2.79,11.07
					c0,0,1.37,1.03,1.94,0.91c0.57-0.11-1.14,4.46,1.03,5.26c1.02,0.38,2.22,0.78,3.2,1.1c1.11,0.36,1.94,0.62,1.94,0.62l0.31,0.05
					l-0.03,1.8l-0.05,2.83c0,0,2.52,4,5.15-0.11c1.81-2.83,4.48-3.98,5.97-4.43C1093.2,51.39,1092.51,49.6,1092.64,48.36z"/>
				<path class="st12" d="M1099.53,106.2c-0.74,1.69-1.4,3.19-1.88,4.3c0.55,0.03,1.05,0.04,1.46,0.04c0.73,0,1.21-0.03,1.29-0.11
					c0.1-0.1,0.22-3.01,0.35-7.05C1100.34,104.35,1099.92,105.3,1099.53,106.2z"/>
				<path class="st12" d="M1093.85,52.87c0,0-0.44,0.06-1.12,0.26c-1.49,0.45-4.17,1.6-5.97,4.43c-2.63,4.12-5.15,0.11-5.15,0.11
					l0.05-2.83l0.03-1.8l-0.31-0.05c0,0-0.84-0.26-1.94-0.62c-2.34,1.66-8.44,6.14-9.27,8.17c0,0,0.19,0.31,0.46,0.78
					c0.79,1.36,2.3,4.11,2.17,5.17c-0.04,0.3-0.73,2.37-1.55,5.32c-1.72,6.13-4.03,16.07-2.34,21.78
					c2.52,8.46,3.77,20.13,3.77,20.13s0.1-0.03,0.27-0.07c1.91-0.52,13.59-3.63,16.43-2.9c0.27,0.07,0.57,0.14,0.89,0.2
					c0.46-1.8,0.97-3.86,1.53-5.85c0.18-0.64,0.37-1.28,0.56-1.9c1.8-5.86,4.35-9.06,4.35-9.49c0-1.51-1.7-5.23-2.63-7.55
					c-1.42-3.54-2.06-7.43-2.06-7.43l10.87-1.37l0.23-6.29C1103.11,71.05,1104.6,60.42,1093.85,52.87z"/>
				<path class="st25" d="M1101.93,76.12l-10.87,1.37c0,0,0.64,3.89,2.06,7.43c0.93,2.32,2.63,6.04,2.63,7.55
					c0,0.43-2.54,3.63-4.35,9.49c-0.19,0.62-0.38,1.25-0.56,1.9c-0.56,1.99-1.07,4.05-1.53,5.85c-0.62,2.43-1.15,4.39-1.58,5.06
					c-1.83,2.86-6.29,7.21-6.18,8.81c0.11,1.6,4.12-1.72,4.12-1.72s-2.52,8.92-1.37,8.69c1.14-0.23,2.74-5.6,2.74-5.6
					s-1.26,5.83-0.11,5.49c1.14-0.34,2.63-6.29,2.63-6.29s-0.8,6.98,1.14,5.83l0.69-4.23c0,0,0,5.15,1.49,3.89
					c1.49-1.26,1.94-14.98,2.86-17.5c0.12-0.34,0.36-0.91,0.68-1.64c0.48-1.12,1.14-2.62,1.88-4.3c0.39-0.9,0.81-1.85,1.22-2.82
					c2.13-4.95,4.34-10.4,4.34-12.05C1103.88,88.36,1101.93,76.12,1101.93,76.12z"/>
				<path class="st14" d="M1048.7,56.56c-0.97-1.05-2.32-2.26-3.22-2.95c-0.38-0.29-0.68-0.49-0.83-0.54c0,0-6.37,11.24-11.86,11.86
					c-5.49,0.62-10.62-1.5-15.24-1.87c-1-0.08-1.99-0.28-2.94-0.53c-3.42-0.91-6.18-2.59-6.18-2.59c-0.03,0-0.06,0-0.09,0
					c-5.77-0.07-4.9,17.02-4.03,24.22c0.87,7.24-5.62,25.48-1.87,32.72c0.2,0.39,0.47,0.73,0.8,1.04
					c5.15,4.86,25.22,0.81,30.01-2.17c0.65-0.4,1.02-0.78,1.03-1.12c0.12-3-7.24-40.21-7.24-40.21s9.49-0.5,11.99-0.87
					s10.86-14.24,10.86-15.24C1049.9,57.98,1049.4,57.31,1048.7,56.56z"/>
				<path class="st25" d="M1045.86,187.81c-2.33-6.77-8.06-23.98-7.78-28.73c0.35-5.95-1.75-11.9-2.45-15.04
					c-0.5-2.27-1.55-18.9-2.1-28.01c-4.79,2.97-24.86,7.03-30.01,2.17c-0.16,4.05-0.11,11.19,0.63,24.09
					c0.23,3.94-0.41,12.2,0,17.14c0.11,1.4-0.92,21.16-1.45,31.1c1.29,0.18,2.9,0.22,4.51-0.2c1.2-0.32,2.34-1.1,3.45-1.92
					c-0.16-0.25-0.25-0.47-0.22-0.64c0.35-2.1,9.45-59.83,9.45-59.83s8.75,28.34,9.1,34.29s4.55,18.54,8.75,24.49
					c0,0,0,2.71,0.55,3.96c0.13,0.3,0.3,0.52,0.5,0.59c0.82,0.27,5.27-0.31,7.18-0.57c0.45-0.06,0.73-0.52,0.58-0.95
					C1046.37,189.27,1046.14,188.61,1045.86,187.81z"/>
				<path class="st14" d="M1096.39,123.63c-0.08-1.09,1.22-7.55,1.91-12.81c-0.42,0-0.91-0.02-1.46-0.04
					c-0.32,0.74-0.55,1.31-0.68,1.64c-0.91,2.52-1.37,16.24-2.86,17.5c-1.49,1.26-1.49-3.89-1.49-3.89l-0.69,4.23
					c-1.94,1.14-1.14-5.83-1.14-5.83s-1.49,5.95-2.63,6.29c-1.14,0.34,0.11-5.49,0.11-5.49s-1.6,5.38-2.74,5.6
					c-1.14,0.23,1.37-8.69,1.37-8.69s-4,3.32-4.12,1.72c-0.11-1.6,4.35-5.95,6.18-8.81c0.43-0.67,0.96-2.63,1.58-5.06
					c-0.32-0.06-0.62-0.13-0.89-0.2c-2.83-0.73-14.52,2.38-16.43,2.9c-0.24,2.53-0.39,5.69-0.04,8.08
					c0.69,4.69,2.4,22.65,3.09,24.48c0.69,1.83-2.29,2.17-1.03,8.69c1.26,6.52,4.46,18.3,1.03,33.28c0,0-0.81,1.01,0.99,1.32
					c0.12,0.02,0.24,0.04,0.38,0.05c2.29,0.23,9.26,0.57,9.26,0.57s6.2,0.13,9.19-0.79c0.9-0.28,1.51-0.65,1.56-1.16
					c0.23-2.17-6.52-41.63-6.52-45.18C1090.33,142.04,1096.51,125.23,1096.39,123.63z"/>
				<path class="st33" d="M1081.65,51.76c0,0,0.69,0.18,1.4,0.36"/>
				<path class="st16" d="M1006.84,49.76c1.37-2,2.37-0.62,2.37-0.62s4.5-1.37,5.62-3.62l-1.25,2.75c0,0,4.02-4.02,5.1-5.8
					l0.27-0.69c0,0,2.75-0.5-0.62-3.62c-3.37-3.12-7.69-4.6-7.69-4.6s-7.1-1.64-9.99,3.47c-2.19,3.87-8.66,11.61-5.75,15.97
					c3.22,4.83,10.63,5.55,12.31,5.38l1.26-4.74C1008.46,53.63,1005.46,51.76,1006.84,49.76z"/>
			</g>
		</g>
		<g>
			<g>
				<g>
					<path class="st24" d="M1019.72,42.22l-0.27,0.69C1019.63,42.61,1019.74,42.37,1019.72,42.22z"/>
					<path class="st34" d="M1022.56,52.26l-1.77-1.29c0.12-2.25-1.07-8.75-1.07-8.75c0.02,0.14-0.09,0.39-0.27,0.69
						c-1.08,1.79-5.1,5.8-5.1,5.8l1.25-2.75c-1.12,2.25-5.62,3.62-5.62,3.62s-1-1.37-2.37,0.62c-1.37,2,1.62,3.87,1.62,3.87
						l-1.26,4.74l-0.2,0.76c0.03,0,0.06-0.01,0.09,0c0,0,2.76,1.68,6.18,2.59l3.44-1.72c3.75,0.25,3.06-6.52,3.06-6.52l2-0.56
						C1022.93,53.11,1022.94,52.54,1022.56,52.26z"/>
					<path class="st34" d="M1071.67,60.55l-6.64,3.57l-12.01-15.1c0,0,1.83-5.49,0.46-7.09c0,0-1.26-0.46-1.37,2.4
						c-0.11,2.86-0.57,1.26-0.57,1.26s-1.37-15.9-1.94-15.67c-0.27,0.11-0.46,0.99-0.59,1.89c0.74,1.77,2.03,16.88,1.53,17.76
						c-0.4,0.71-0.69,0.51-0.8,0.48c1.83,4.42,9.98,23.58,13.92,24.6c0,0,4.77-1.92,8.63-3.6c0.83-2.95,1.52-5.03,1.55-5.32
						C1073.97,64.66,1072.46,61.9,1071.67,60.55z"/>
					<path class="st34" d="M1049,31.8c-0.03-0.07-0.06-0.13-0.09-0.16c-0.71-0.65-0.32,4.41-0.58,4.93
						c-0.26,0.52-0.84-2.73-1.69-3.18c-0.84-0.45-0.45,5.32-0.52,6.23c-0.06,0.91-0.58-0.45-1.17-0.39s1.04,6.1,1.04,8.63
						c0,1.74-0.67,4.09-1.09,5.38c0.89,0.69,2.24,1.9,3.22,2.95c0.57-2.14,1.58-5.98,1.58-6.12c0-0.04,0.02-0.05,0.05-0.04
						c0.11,0.03,0.39,0.22,0.8-0.48C1051.03,48.69,1049.73,33.57,1049,31.8z"/>
					<path class="st33" d="M1092.6,47.87c0.16-1.48,0.68-4.29,1-5.93c-0.4-0.13-0.65-0.62-0.79-0.79c-0.3-0.39-1.58,0.2-2.17-0.59
						s-1.09-1.38-1.09-1.38s-1.88,0.49-2.17-0.39s-1.38-0.59-1.97-1.38c-0.59-0.79-2.37-0.89-2.37-1.97s-0.89,0.2-2.07-0.99
						s-0.99-0.59-1.68-0.69c-0.69-0.1-0.89,0.3-1.78-0.2c-0.17-0.09-0.3-0.19-0.42-0.29l-2.79,11.07c0,0,1.37,1.03,1.94,0.91
						c0.57-0.11-1.14,4.46,1.03,5.26c1.02,0.38,2.22,0.78,3.2,1.1c1.11,0.36,1.94,0.62,1.94,0.62l0.31,0.05l-0.03,1.8l-0.05,2.83
						c0,0,2.52,4,5.15-0.11c1.81-2.83,4.48-3.98,5.97-4.43C1093.15,50.9,1092.47,49.11,1092.6,47.87z"/>
					<path class="st33" d="M1100.3,106.66c-0.74,1.69-1.4,3.19-1.88,4.3c0.55,0.03,1.05,0.04,1.46,0.04c0.73,0,1.21-0.03,1.29-0.11
						c0.1-0.1,0.22-3.01,0.35-7.05C1101.1,104.81,1100.69,105.76,1100.3,106.66z"/>
					<path class="st33" d="M1094.88,52.1c0,0-0.44,0.06-1.12,0.26c-1.49,0.45-4.17,1.6-5.97,4.43c-2.63,4.12-5.15,0.11-5.15,0.11
						l0.05-2.83l0.03-1.8l-0.31-0.05c0,0-0.84-0.26-1.94-0.62c-2.34,1.66-8.44,6.14-9.27,8.17c0,0,0.19,0.31,0.46,0.78
						c0.79,1.36,2.3,4.11,2.17,5.17c-0.04,0.3-0.73,2.37-1.55,5.32c-1.72,6.13-4.03,16.07-2.34,21.78
						c2.52,8.46,3.77,20.13,3.77,20.13s0.1-0.03,0.27-0.07c1.91-0.52,13.59-3.63,16.43-2.9c0.27,0.07,0.57,0.14,0.89,0.2
						c0.46-1.8,0.97-3.86,1.53-5.85c0.18-0.64,0.37-1.28,0.56-1.9c1.8-5.86,4.35-9.06,4.35-9.49c0-1.51-1.7-5.23-2.63-7.55
						c-1.42-3.54-2.06-7.43-2.06-7.43l10.87-1.37l0.23-6.29C1104.15,70.29,1105.64,59.65,1094.88,52.1z"/>
					<path class="st33" d="M1103.92,76.58l-10.87,1.37c0,0,0.64,3.89,2.06,7.43c0.93,2.32,2.63,6.04,2.63,7.55
						c0,0.43-2.54,3.63-4.35,9.49c-0.19,0.62-0.38,1.25-0.56,1.9c-0.56,1.99-1.07,4.05-1.53,5.85c-0.62,2.43-1.15,4.39-1.58,5.06
						c-1.83,2.86-6.29,7.21-6.18,8.81c0.11,1.6,4.12-1.72,4.12-1.72s-2.52,8.92-1.37,8.69c1.14-0.23,2.74-5.6,2.74-5.6
						s-1.26,5.83-0.11,5.49c1.14-0.34,2.63-6.29,2.63-6.29s-0.8,6.98,1.14,5.83l0.69-4.23c0,0,0,5.15,1.49,3.89
						c1.49-1.26,1.94-14.98,2.86-17.5c0.12-0.34,0.36-0.91,0.68-1.64c0.48-1.12,1.14-2.62,1.88-4.3c0.39-0.9,0.81-1.85,1.22-2.82
						c2.13-4.95,4.34-10.4,4.34-12.05C1105.86,88.82,1103.92,76.58,1103.92,76.58z"/>
					<path class="st33" d="M1048.11,56.2c-0.97-1.05-2.32-2.26-3.22-2.95c-0.38-0.29-0.68-0.49-0.83-0.54
						c0,0-6.37,11.24-11.86,11.86c-5.49,0.62-10.62-1.5-15.24-1.87c-1-0.08-1.99-0.28-2.94-0.53c-3.42-0.91-6.18-2.59-6.18-2.59
						c-0.03,0-0.06,0-0.09,0c-5.77-0.07-4.9,17.02-4.03,24.22c0.87,7.24-5.62,25.48-1.87,32.72c0.2,0.39,0.47,0.73,0.8,1.04
						c5.15,4.86,25.22,0.81,30.01-2.17c0.65-0.4,1.02-0.78,1.03-1.12c0.12-3-7.24-40.21-7.24-40.21s9.49-0.5,11.99-0.87
						s10.86-14.24,10.86-15.24C1049.32,57.62,1048.81,56.95,1048.11,56.2z"/>
					<path class="st33" d="M1045.01,187.18c-2.33-6.77-8.06-23.98-7.78-28.73c0.35-5.95-1.75-11.9-2.45-15.04
						c-0.5-2.27-1.55-18.9-2.1-28.01c-4.79,2.97-24.86,7.03-30.01,2.17c-0.16,4.05-0.11,11.19,0.63,24.09
						c0.23,3.94-0.41,12.2,0,17.14c0.11,1.4-0.92,21.16-1.45,31.1c1.29,0.18,2.9,0.22,4.51-0.2c1.2-0.32,2.34-1.1,3.45-1.92
						c-0.16-0.25-0.25-0.47-0.22-0.64c0.35-2.1,9.45-59.83,9.45-59.83s8.75,28.34,9.1,34.29s4.55,18.54,8.75,24.49
						c0,0,0,2.71,0.55,3.96c0.13,0.3,0.3,0.52,0.5,0.59c0.82,0.27,5.27-0.31,7.18-0.57c0.45-0.06,0.73-0.52,0.58-0.95
						C1045.52,188.65,1045.29,187.99,1045.01,187.18z"/>
					<path class="st33" d="M1097.97,123.82c-0.08-1.09,1.22-7.55,1.91-12.81c-0.42,0-0.91-0.02-1.46-0.04
						c-0.32,0.74-0.55,1.31-0.68,1.64c-0.91,2.52-1.37,16.24-2.86,17.5c-1.49,1.26-1.49-3.89-1.49-3.89l-0.69,4.23
						c-1.94,1.14-1.14-5.83-1.14-5.83s-1.49,5.95-2.63,6.29c-1.14,0.34,0.11-5.49,0.11-5.49s-1.6,5.38-2.74,5.6
						c-1.14,0.23,1.37-8.69,1.37-8.69s-4,3.32-4.12,1.72c-0.11-1.6,4.35-5.95,6.18-8.81c0.43-0.67,0.96-2.63,1.58-5.06
						c-0.32-0.06-0.62-0.13-0.89-0.2c-2.83-0.73-14.52,2.38-16.43,2.9c-0.24,2.53-0.39,5.69-0.04,8.08
						c0.69,4.69,2.4,22.65,3.09,24.48c0.69,1.83-2.29,2.17-1.03,8.69c1.26,6.52,4.46,18.3,1.03,33.28c0,0-0.81,1.01,0.99,1.32
						c0.12,0.02,0.24,0.04,0.38,0.05c2.29,0.23,9.26,0.57,9.26,0.57s6.2,0.13,9.19-0.79c0.9-0.28,1.51-0.65,1.56-1.16
						c0.23-2.17-6.52-41.63-6.52-45.18C1091.91,142.23,1098.09,125.42,1097.97,123.82z"/>
					<path class="st35" d="M1096.27,37.11c0.89-0.1,0.89-1.18,0.69-2.67c-0.2-1.48-0.39-0.89-0.2-2.07c0.2-1.18-0.2-1.78-1.48-2.37
						s-0.1-1.09-0.49-2.07c-0.39-0.99-1.28-0.69-1.78-1.78c-0.49-1.09-0.59,1.09-2.07-0.59c-1.48-1.68-0.99,1.09-2.07-0.2
						c-1.09-1.28-2.67,0.69-2.76,0.1s-1.97-1.09-2.37-0.39c-0.39,0.69-1.78,0.2-2.96,0.3c-1.18,0.1-0.69,1.38-1.48,1.38
						c-0.79,0-0.89,1.38-0.79,2.67c0.05,0.67-0.9,0.46-1.48,0.79c-0.52,0.3-0.29,1.11-0.39,1.58c-0.12,0.58-0.04,1.06,0.46,1.48
						c0.12,0.1,0.25,0.2,0.42,0.29c0.89,0.49,1.09,0.1,1.78,0.2c0.69,0.1,0.49-0.49,1.68,0.69s2.07-0.1,2.07,0.99
						s1.78,1.18,2.37,1.97c0.59,0.79,1.68,0.49,1.97,1.38s2.17,0.39,2.17,0.39s0.49,0.59,1.09,1.38s1.88,0.2,2.17,0.59
						c0.13,0.18,0.39,0.66,0.79,0.79c0.09,0.03,0.19,0.05,0.3,0.03c0.47-0.07,1.19-0.92,1.19-0.92s0.39-0.69,1.09-1.97
						C1096.86,37.8,1095.38,37.2,1096.27,37.11z"/>
					<path class="st33" d="M1018.51,56.18c0,0-1.23,0.96-2.02-0.71"/>
					<path class="st33" d="M1017.47,60.45c0,0-2.92-0.34-4.14-1.3"/>
					<path class="st33" d="M1082.42,52.22c0,0,0.69,0.18,1.4,0.36"/>
					<path class="st33" d="M1087.14,41.53c0,0,2.1-0.96,2.72,0.53c0.61,1.49-0.61,4.56-2.1,4.91"/>
					<path class="st33" d="M1080.48,46.97c0,0-1.23,1.05-2.19,0.7"/>
					<path class="st33" d="M1073.84,65.71c0.27-0.39,0.57,0.03,0.57-1.71c0-1.73,0.3-5.2,0.3-5.2"/>
					<path class="st33" d="M1093.05,77.95c0,0-5.43-18.31,4.68-18.43"/>
					<path class="st33" d="M1026.46,74.07c0,0-6.47,0.24-7.98,0.01"/>
					<path class="st33" d="M1014.87,62.43c0,0-4.43,0.47-5.01,3.26"/>
					<path class="st33" d="M1077.22,145.77c0,0,2.53-19.16,0.78-23.82"/>
					<path class="st33" d="M1091.91,142.23c0,0-3.31,9.42-2.5,14.66s-1.4,31.91-2.56,32.5"/>
					<circle class="st16" cx="1018.33" cy="49.68" r="0.6"/>
					<circle class="st16" cx="1078.04" cy="40.35" r="0.6"/>
				</g>
				<polygon class="st16" points="1032.25,105.9 1026.01,77.72 1020.34,74.31 1026.46,74.07 				"/>
				<path class="st16" d="M1092.37,147.43l-3.17,5.95c0,0,1.43-10.32,2.49-10.4L1092.37,147.43z"/>
				<path class="st16" d="M1074,112.88c0,0,15.03-2.59,17.22-0.57l0.1-2.13C1091.32,110.18,1091.17,108.05,1074,112.88z"/>
				<path class="st16" d="M1032.67,115.4c0,0-18.49,12.55-30.12,2.43l4.1,1.73l4.36,0.38l12.11-1.28L1032.67,115.4z"/>
			</g>
			<path class="st16" d="M1094,29.93c-1.49-3.16-4.76-4.52-7.98-5.24c-3.81-0.85-7.15-0.58-9.61,2.75
				c-0.02,0.02-0.03,0.05-0.04,0.08c-0.15,0.02-0.29,0.07-0.39,0.18c-0.13,0.13-0.25,0.28-0.34,0.45c-0.09,0.16-0.17,0.34-0.22,0.53
				c-0.03,0.11-0.06,0.24-0.05,0.35c0.01,0.19,0.07,0.36,0.21,0.5c0.07,0.07,0.15,0.11,0.23,0.15c-0.16,0.07-0.32,0.15-0.47,0.27
				c-0.36,0.29-0.55,0.75-0.49,1.2c0.06,0.45,0.38,0.81,0.77,1.03c0.02,0.01,0.04,0.02,0.06,0.03c0,0.01-0.01,0.01-0.01,0.02
				c-0.04,0.16-0.03,0.35,0.06,0.5c0.05,0.08,0.12,0.14,0.19,0.2c0,0.03-0.01,0.06-0.01,0.09c0,0.09,0.02,0.17,0.06,0.25
				c0.01,0.05,0.04,0.09,0.07,0.12c-0.09,0.32,0.09,0.75,0.44,0.81c0.87,0.15,1.75,0.02,2.52-0.42c0.29-0.17,0.42-0.59,0.23-0.88
				c-0.03-0.05-0.07-0.08-0.11-0.11c1.32,0.11,2.58-0.62,3.41-1.74c-0.32,0.43,0.48,0.28,0.86,0.34c0.7,0.11,1.47,0.31,2.16,0.51
				c1.1,0.32,1.85,0.59,2.35,1.64C1089.83,37.63,1095.93,34.04,1094,29.93z"/>
			<g>
				<polygon class="st16" points="1087.62,39.88 1087.63,39.88 1087.62,39.88 				"/>
				<path class="st16" d="M1089.26,38.99c-0.02,0-0.04,0-0.06,0c-0.06-0.02-0.12-0.03-0.18-0.05c-0.03-0.01-0.05-0.02-0.08-0.03
					c-0.05-0.02-0.11-0.05-0.16-0.07c-0.32-0.14-0.63-0.27-0.98-0.27c-0.15,0-0.31,0.02-0.46,0.06c0.11-0.08,0.21-0.21,0.24-0.34
					c0.04-0.16,0.03-0.35-0.06-0.5c-0.09-0.14-0.22-0.26-0.38-0.3c-0.13-0.03-0.25-0.04-0.38-0.04c-0.16-0.4-0.45-0.73-0.94-0.84
					c-0.28-0.06-0.56,0.05-0.71,0.28c0-0.25,0.01-0.5,0.02-0.74c0.02-0.35-0.31-0.64-0.64-0.64c-0.36,0-0.63,0.3-0.64,0.64
					c-0.02,0.47-0.03,0.93,0.04,1.4c0.07,0.49,0.27,0.91,0.53,1.33c0.23,0.38,0.26,0.78,0.28,1.21c0.02,0.49,0,0.99-0.08,1.47
					c-0.05,0.32,0.05,0.63,0.37,0.76c0.28,0.11,0.66,0.03,0.8-0.26c0.27-0.54,0.53-1.08,0.74-1.64c0.28,0.11,0.67,0.05,0.82-0.25
					c0.02-0.04,0.04-0.09,0.07-0.13c-0.01,0.01-0.01,0.01-0.02,0.02c0.01-0.01,0.02-0.02,0.03-0.03c0,0,0,0,0,0
					c0.02-0.02,0.04-0.04,0.04-0.04c0.02-0.02,0.04-0.03,0.05-0.05c0.02-0.02,0.05-0.03,0.07-0.04c0.01,0,0.02-0.01,0.02-0.01
					c-0.04,0.02-0.07,0.02,0,0c0,0,0,0,0,0c0.01-0.01,0.03-0.01,0.04-0.02c-0.01,0.01-0.02,0.01-0.03,0.02
					c0.04-0.01,0.09-0.02,0.13-0.04c0.01,0,0.03,0,0.03,0c0.01,0,0.03,0,0.04,0c0.1,0.02,0.19,0.05,0.29,0.09
					c0.02,0.01,0.03,0.02,0.05,0.02c0.05,0.02,0.11,0.05,0.16,0.07c0.3,0.13,0.59,0.24,0.93,0.24c0.34,0,0.66-0.3,0.64-0.64
					C1089.89,39.28,1089.62,38.99,1089.26,38.99z"/>
				<path class="st16" d="M1087.43,40.02C1087.43,40.03,1087.43,40.03,1087.43,40.02c0.03-0.02,0.04-0.04,0.04-0.04
					c-0.01,0.01-0.02,0.01-0.02,0.02C1087.44,40.01,1087.44,40.02,1087.43,40.02z"/>
			</g>
			<path class="st16" d="M1097.76,36.27c-0.3-0.19-0.63-0.32-0.95-0.47c-0.16-0.07-0.31-0.15-0.46-0.25
				c-0.03-0.02-0.07-0.04-0.1-0.07c0,0,0,0,0,0c-0.01-0.02-0.07-0.06-0.08-0.07c-0.04-0.04-0.08-0.07-0.11-0.11
				c-0.23-0.25-0.68-0.25-0.91,0c-0.24,0.27-0.24,0.65,0,0.91c0.32,0.35,0.72,0.55,1.14,0.75c-0.03,0.08-0.07,0.16-0.09,0.25
				c-0.03,0.13-0.05,0.26-0.05,0.4c-0.01,0.16,0.08,0.34,0.19,0.46c0.06,0.06,0.13,0.11,0.21,0.13c0.02,0.01,0.03,0,0.05,0.01
				c0,0,0,0.01-0.01,0.01c-0.02,0.03-0.03,0.07-0.04,0.1c-0.17-0.15-0.33-0.3-0.49-0.46c-0.24-0.23-0.67-0.26-0.91,0
				c-0.23,0.25-0.26,0.66,0,0.91c0.3,0.29,0.61,0.57,0.9,0.86c0.04,0.04,0.07,0.07,0.1,0.11c0,0,0,0,0,0
				c0.02,0.04,0.04,0.07,0.07,0.11c-0.01,0.01-0.03,0.04-0.04,0.05c-0.02,0.02-0.03,0.03-0.03,0.04c-0.03,0.03-0.06,0.06-0.09,0.08
				c-0.03,0.03-0.06,0.05-0.09,0.08c-0.01,0.01-0.01,0.01-0.01,0.01c0,0,0,0,0,0c-0.15,0.11-0.3,0.23-0.46,0.34
				c-0.13,0.09-0.27,0.17-0.41,0.25c-0.23-0.24-0.45-0.47-0.68-0.71c-0.58-0.6-1.49,0.31-0.91,0.91c0.2,0.21,0.4,0.42,0.61,0.63
				c0,0.07-0.01,0.13,0.02,0.2c0,0,0.01,0.01,0.01,0.01c-0.06,0.01-0.11,0.03-0.17,0.06c-0.02-0.04-0.04-0.08-0.06-0.11
				c-0.25-0.35-0.55-0.68-0.86-0.98c-0.01-0.01-0.02-0.02-0.03-0.03c-0.05-0.12-0.17-0.25-0.27-0.31c-0.04-0.02-0.1-0.03-0.15-0.05
				c-0.55-0.43-1.17-0.73-1.89-0.8c-0.35-0.03-0.64,0.32-0.64,0.64c0,0.38,0.3,0.61,0.64,0.64c0.1,0.01,0.39,0.09,0.49,0.14
				c0.15,0.07,0.32,0.17,0.46,0.27c-0.01,0.07-0.03,0.15-0.04,0.22c-0.04,0.21-0.09,0.42-0.1,0.63c-0.01,0.28,0.1,0.56,0.32,0.74
				c0.18,0.16,0.39,0.25,0.61,0.33c0.03,0.01,0.06,0.01,0.08,0.02c0.09,0.08,0.19,0.15,0.28,0.23c0.15,0.13,0.3,0.27,0.47,0.38
				c0.27,0.16,0.6,0.18,0.87,0.02c0.14-0.08,0.24-0.2,0.3-0.33c0.18,0.03,0.37,0.04,0.56-0.02c0.43-0.14,0.85-0.55,1.02-0.97
				c0.12-0.31,0.06-0.57-0.07-0.8c0.09-0.06,0.18-0.1,0.27-0.16c0.4-0.28,0.86-0.57,1.12-1c0.27-0.45,0.21-0.94-0.04-1.36
				c0.16-0.04,0.31-0.14,0.42-0.29c0.14-0.19,0.28-0.37,0.41-0.56c0.15-0.2,0.32-0.4,0.41-0.64
				C1098.73,37.04,1098.24,36.57,1097.76,36.27z"/>
		</g>
	</g>
	<g class="st6">
		<g>
			<path class="st24" d="M1146.53,142.11l23.71,26.41c4.78-13.93,5-31.57,2.51-36.26c-1.84-3.46-4.63-6.85-6.23-8.66
				c-2.87,1.81-6.65,4.36-10.14,7.23C1151.29,135.02,1146.94,140.41,1146.53,142.11z"/>
			<path class="st12" d="M1236.95,54.1c-5.94-11.88-4.83-31.93-20.05-35.64c-15.22-3.71-21.16-11.14-26.73-1.48c0,0-8.54,0-9.28,5.2
				c-0.74,5.2-9.28,17.08-8.91,25.61c0.37,8.54-2.6,12.25,1.86,20.05c1.95,3.41,2.33,6.67,2.25,9.27c-0.11,3.35-1.02,5.58-0.39,5.58
				c0.25,0-0.38-0.68,4.21-0.64c0.6,0,4.4,1.07,8.58,2.26c0.03-0.32,0.13-0.51,0.32-0.51c1.91,0,11.12,1.43,12.4-2.54
				c0.31-0.98-0.01-2.68-0.73-4.79c-2.21-6.41-8.2-16.57-11.67-21.59c-4.61-6.67-0.95-7.47-0.32-9.85c0.64-2.38-1.11-5.56-1.59-8.9
				c-0.48-3.34,5.72-12.71,5.72-12.71c1.91-3.02,9.22-3.02,9.22-3.02c5.74,2.85,27.67,21.41,26.38,32.1
				c-1.15,9.56-6.19,14.07-6.67,14.39c-0.48,0.32,3.28,5.63,3.96,6.19l7.64-1.51c0.56,0.07,1.97,0.37,3.86,0.85
				c0.44-1.83,1.36-3.76,3.65-6.05C1245.86,61.15,1242.89,65.98,1236.95,54.1z"/>
			<path class="st13" d="M1237.01,72.4c-1.9-0.47-3.31-0.78-3.86-0.85l-7.64,1.51c-0.68-0.56-4.43-5.87-3.96-6.19
				c0.48-0.32,5.52-4.83,6.67-14.39c1.29-10.69-18.84-29.77-26.38-32.1c0,0-7.31,0-9.22,3.02c0,0-6.2,9.38-5.72,12.71
				c0.48,3.34,2.22,6.52,1.59,8.9c-0.64,2.38-4.29,3.18,0.32,9.85c3.47,5.03,9.46,15.18,11.67,21.59c0.72,2.1,1.04,3.81,0.73,4.79
				c-1.27,3.97-10.49,2.54-12.4,2.54c-0.19,0-0.29,0.18-0.32,0.51c-0.25,2.9,5.66,17.51,9.38,19.52c4.13,2.22,20.66,9.54,34.01,0.32
				C1243.21,96.3,1236.61,74.05,1237.01,72.4z"/>
			<path class="st13" d="M1263.66,119.07c0,0-4.77,20.5-6.2,26.06c-1.43,5.56-4.13,14.46-1.27,24.47c0.4,1.41,0.92,3.01,1.5,4.72
				c20.49-22.19,16.94-36.36,16.94-39.52c0-2.26-2.55-13.06-4.35-19.89C1268.39,117.26,1265.72,119.4,1263.66,119.07z"/>
			<path class="st13" d="M1168.94,171.99c0.47-1.12,0.9-2.29,1.31-3.47l-23.71-26.41c0.41-1.7,4.76-7.1,9.85-11.28
				c3.49-2.86,7.27-5.41,10.14-7.23c-0.75-0.85-1.24-1.36-1.24-1.36s-22-11.37-27.09-15.34c-3.87,6.18-11.27,17.79-16.77,25.19
				c-7.79,10.49,16.05,30.2,21.93,34.17c5.88,3.97,11.28,8.9,16.21,15.73c4.93,6.83-0.48,16.85-0.48,20.18s4.77,5.24,4.77,5.24
				l0.79-6.83C1164.65,200.6,1162.9,186.3,1168.94,171.99z"/>
			<path class="st25" d="M1258.89,81.09c-2.11-3.11-15.1-6.99-21.88-8.69c-0.4,1.65,6.2,23.9-5.14,31.73
				c-13.35,9.22-29.88,1.91-34.01-0.32c-3.72-2-9.62-16.61-9.38-19.52c-4.18-1.18-7.99-2.25-8.58-2.26
				c-4.58-0.04-3.96,0.64-4.21,0.64c-0.63,0,0.28-2.24,0.39-5.58c-4.82,0.18-8.91,0.4-11.12,0.65
				c-8.42,0.95-27.33,26.22-27.81,27.97c-0.06,0.22,0.33,0.63,1.04,1.19c5.09,3.98,27.09,15.34,27.09,15.34s0.49,0.51,1.24,1.36
				c1.6,1.81,4.39,5.19,6.23,8.66c2.49,4.69,2.27,22.33-2.51,36.26c-0.41,1.18-0.83,2.35-1.31,3.47
				c-6.04,14.3-4.29,28.61-4.29,28.61s0.37-0.11,1.04-0.28c4.03-1.01,19.35-4.17,36.78,0.6c16.85,4.61,49.07,3.22,59.63,2.6
				c2.19-0.13,3.46-0.22,3.46-0.22c1.64-3.69-4.35-18.52-7.88-28.97c-0.58-1.71-1.1-3.31-1.5-4.72
				c-2.86-10.01-0.16-18.91,1.27-24.47c1.43-5.56,6.2-26.06,6.2-26.06c2.07,0.33,4.73-1.81,6.62-4.16c0.87-1.08,1.57-2.2,1.97-3.15
				C1273.51,108.74,1261.59,85.06,1258.89,81.09z"/>
		</g>
	</g>
	<g class="st6">
		<g>
			<path class="st36" d="M1234.51,53.06c-5.94-11.88-4.83-31.93-20.05-35.64c-15.22-3.71-21.16-11.14-26.73-1.48
				c0,0-8.54,0-9.28,5.2c-0.74,5.2-9.28,17.08-8.91,25.61c0.37,8.54-2.6,12.25,1.86,20.05c1.95,3.41,2.33,6.67,2.25,9.27
				c-0.11,3.35-1.02,5.58-0.39,5.58c0.25,0-0.38-0.68,4.21-0.64c0.6,0,4.4,1.07,8.58,2.26c0.03-0.32,0.13-0.51,0.32-0.51
				c1.91,0,11.12,1.43,12.4-2.54c0.31-0.98-0.01-2.68-0.73-4.79c-2.21-6.41-8.2-16.57-11.67-21.59c-4.61-6.67-0.95-7.47-0.32-9.85
				c0.64-2.38-1.11-5.56-1.59-8.9c-0.48-3.34,5.72-12.71,5.72-12.71c1.91-3.02,9.22-3.02,9.22-3.02
				c10.5,3.63,27.67,21.41,26.38,32.1c-1.15,9.56-6.19,14.07-6.67,14.39c-0.48,0.32,3.28,5.63,3.96,6.19l7.64-1.51
				c0.56,0.07,1.97,0.37,3.86,0.85c0.44-1.83,1.36-3.76,3.65-6.05C1243.42,60.11,1240.45,64.94,1234.51,53.06z"/>
			<path class="st36" d="M1234.57,71.37c-1.9-0.47-3.31-0.78-3.86-0.85l-7.64,1.51c-0.68-0.56-4.43-5.87-3.96-6.19
				c0.48-0.32,5.52-4.83,6.67-14.39c1.29-10.69-16.65-28.47-26.38-32.1c0,0-7.31,0-9.22,3.02c0,0-6.2,9.38-5.72,12.71
				c0.48,3.34,2.22,6.52,1.59,8.9c-0.64,2.38-4.29,3.18,0.32,9.85c3.47,5.03,9.46,15.18,11.67,21.59c0.72,2.1,1.04,3.81,0.73,4.79
				c-1.27,3.97-10.49,2.54-12.4,2.54c-0.19,0-0.29,0.18-0.32,0.51c-0.25,2.9,5.66,17.51,9.38,19.52c4.13,2.22,20.66,9.54,34.01,0.32
				C1240.77,95.27,1234.17,73.02,1234.57,71.37z"/>
			<path class="st36" d="M1261.22,118.03c0,0-4.77,20.5-6.2,26.06c-1.43,5.56-4.13,14.46-1.27,24.47c0.4,1.41,0.92,3.01,1.5,4.72
				c20.49-22.19,16.94-36.36,16.94-39.52c0-2.26-2.55-13.06-4.35-19.89C1265.95,116.23,1263.29,118.36,1261.22,118.03z"/>
			<path class="st36" d="M1166.5,170.96c0.47-1.12,0.9-2.29,1.31-3.47l-23.71-26.41c0.41-1.7,4.76-7.1,9.85-11.28
				c3.49-2.86,7.27-5.41,10.14-7.23c-0.75-0.85-1.24-1.36-1.24-1.36s-22-11.37-27.09-15.34c-3.87,6.18-11.27,17.79-16.77,25.19
				c-7.79,10.49,16.05,30.2,21.93,34.17c5.88,3.97,11.28,8.9,16.21,15.73c4.93,6.83-0.48,16.85-0.48,20.18
				c0,3.34,4.77,5.24,4.77,5.24l0.79-6.83C1162.21,199.56,1160.46,185.26,1166.5,170.96z"/>
			<path class="st36" d="M1256.45,80.05c-2.11-3.11-15.1-6.99-21.88-8.69c-0.4,1.65,6.2,23.9-5.14,31.73
				c-13.35,9.22-29.88,1.91-34.01-0.32c-3.72-2-9.62-16.61-9.38-19.52c-4.18-1.18-7.99-2.25-8.58-2.26
				c-4.58-0.04-3.96,0.64-4.21,0.64c-0.63,0,0.28-2.24,0.39-5.58c-4.82,0.18-8.91,0.4-11.12,0.65
				c-8.42,0.95-27.33,26.22-27.81,27.97c-0.06,0.22,0.33,0.63,1.04,1.19c5.09,3.98,27.09,15.34,27.09,15.34s0.49,0.51,1.24,1.36
				c1.6,1.81,4.39,5.19,6.23,8.66c2.49,4.69,2.27,22.33-2.51,36.26c-0.41,1.18-0.83,2.35-1.31,3.47
				c-6.04,14.3-4.29,28.61-4.29,28.61s0.37-0.11,1.04-0.28c4.03-1.01,19.35-4.17,36.78,0.6c16.85,4.61,49.07,3.22,59.63,2.6
				c2.19-0.13,3.47-0.22,3.47-0.22c1.64-3.69-4.35-18.52-7.88-28.97c-0.58-1.71-1.1-3.31-1.5-4.72
				c-2.86-10.01-0.16-18.91,1.27-24.47c1.43-5.56,6.2-26.06,6.2-26.06c2.07,0.33,4.73-1.81,6.62-4.16c0.87-1.08,1.57-2.2,1.97-3.15
				C1271.07,107.7,1259.15,84.02,1256.45,80.05z"/>
		</g>
		<path class="st36" d="M1207.4,44.57c0.41,0.14,3.86,1.66,3.45,4c-0.41,2.35-4.69,1.38-4.69,1.38"/>
		<path class="st36" d="M1217.19,57.4c0,0-3.86,5.79-11.87,2.76"/>
		<circle class="st16" cx="1198.44" cy="42.53" r="1.41"/>
		<circle class="st16" cx="1214.27" cy="38.85" r="1.41"/>
		<path class="st36" d="M1219.11,65.84c0,0-2.01,8.29-13.89,2.82"/>
		<path class="st36" d="M1144.09,141.08c0,0-9.81-3.84-14.59-0.97"/>
		<line class="st36" x1="1255.73" y1="141.8" x2="1266.56" y2="141.43"/>
	</g>
</g>
</svg>
