<svg id="Layer_1" data-name="Layer 1" xmlns="http://www.w3.org/2000/svg" xmlns:xlink="http://www.w3.org/1999/xlink" viewBox="0 0 1140 294"><defs><style>.cls-1,.cls-10,.cls-4,.cls-9{fill:none;}.cls-2{clip-path:url(#clip-path);}.cls-3{fill:#468fba;}.cls-4{stroke:#91bcd6;}.cls-13,.cls-4,.cls-9{stroke-miterlimit:10;}.cls-5{fill:#b5d2e3;}.cls-6{fill:#dae9f2;}.cls-7{fill:#91bcd6;}.cls-11,.cls-13,.cls-8{fill:#1d5493;}.cls-10,.cls-11,.cls-13,.cls-9{stroke:#1d5493;}.cls-10,.cls-11{stroke-linejoin:round;}.cls-11{stroke-width:0.38195px;}.cls-12{fill:#b6d2e3;}.cls-13{stroke-width:0.97709px;}</style><clipPath id="clip-path"><rect class="cls-1" y="0.03458" width="1140" height="293.93084"/></clipPath></defs><g class="cls-2"><rect class="cls-3" y="0.03458" width="1140" height="293.93084"/><path class="cls-4" d="M387.70473,293.16758a43.97011,43.97011,0,0,0-81.91724,0Z"/><circle class="cls-4" cx="161.01624" cy="180.79374" r="43.97198"/><circle class="cls-4" cx="1065.82693" cy="67.35877" r="43.97198"/><circle class="cls-4" cx="261.54658" cy="80.19549" r="31.85742"/><path class="cls-4" d="M857.63063,294H900.1039a27.549,27.549,0,1,0-42.47327,0Z"/><path class="cls-4" d="M682.29952-10.38941H639.82625a27.549,27.549,0,1,0,42.47327,0Z"/><rect class="cls-4" x="15.1012" y="129.98836" width="34.60656" height="34.60656" rx="1.54728" transform="translate(-79.45727 46.13915) rotate(-35.47058)"/><rect class="cls-4" x="659.02147" y="243.58271" width="34.60656" height="34.60656" rx="1.54728" transform="translate(-25.87151 440.87787) rotate(-35.47058)"/><rect class="cls-4" x="230.53912" y="222.52602" width="37.93064" height="37.93064" rx="1.6959" transform="translate(271.56335 -105.03996) rotate(49.57731)"/><path class="cls-4" d="M522.87451.00415l14.40631,16.91376a1.69591,1.69591,0,0,0,2.39069.1914L559.75391.00415Z"/><path class="cls-4" d="M198.60239-.15569h34.78626L254.64682,17.4361a1.0363,1.0363,0,0,1-.29962,1.76978L193.04325,41.994a1.03626,1.03626,0,0,1-1.38281-1.14434Z"/><path class="cls-4" d="M58.21307.00415,48.71863,7.18243a1.0363,1.0363,0,0,0,.22156,1.78125L109.1839,34.42273a1.03633,1.03633,0,0,0,1.43182-1.08252L106.46875.00415Z"/><path class="cls-4" d="M821.92621.00415,809.23083,9.60248a1.03633,1.03633,0,0,0,.22156,1.78125l60.24372,25.459a1.03633,1.03633,0,0,0,1.43182-1.08252l-4.448-35.7561Z"/><path class="cls-4" d="M591.976,294h42.49262L618.0592,270.96991a1.54722,1.54722,0,0,0-2.158-.36224l-25.66382,18.286a1.54716,1.54716,0,0,0-.36225,2.158Z"/><path class="cls-4" d="M78.78619,294l4.039-36.2276a2.44312,2.44312,0,0,0-2.15735-2.69873l-49.44947-5.51306a2.44311,2.44311,0,0,0-2.69873,2.15735L23.80573,294Z"/><path class="cls-4" d="M948.1409,143.20472l10.9169,64.48482a1.03632,1.03632,0,0,0,1.68248.62542l50.38705-41.69673a1.03633,1.03633,0,0,0-.29962-1.76978l-61.30394-22.78809A1.03632,1.03632,0,0,0,948.1409,143.20472Z"/><path class="cls-4" d="M858.83333,91.4036l10.9169,64.48482a1.03633,1.03633,0,0,0,1.68249.62542l50.387-41.69673a1.03632,1.03632,0,0,0-.29962-1.76978L860.2162,90.25924A1.03632,1.03632,0,0,0,858.83333,91.4036Z"/><path class="cls-1" d="M157.27419,33.55541l.2091.42533A.884.884,0,0,1,157.27419,33.55541Z"/><path class="cls-3" d="M165.40561,38.02745c-.97818-1.203-1.54442-.27611-1.54442-.27611s-2.93606-.64465-3.76787-2.01969l.93708,1.687a33.41433,33.41433,0,0,1-3.54711-3.43791l-.2091-.42533s-1.77679-.17729.212-2.34039,7.41274.52428,7.41274.52428-1.04233-1.999,2.99147-2.64447,3.85882,5.1368,2.385,5.73624a3.48128,3.48128,0,0,1-2.55352.12566s.72659,1.063,1.1333,5.11607c.31915,3.18044-2.15851,3.47832-3.24046,3.45921l-1.04495-2.95366S166.38381,39.23046,165.40561,38.02745Z"/><path class="cls-5" d="M155.51106,40.50717l1.04616-2.07969a19.36348,19.36348,0,0,1,.717-4.87207.884.884,0,0,0,.2091.42533,33.41433,33.41433,0,0,0,3.54711,3.43791l-.93708-1.687c.83181,1.375,3.76787,2.01969,3.76787,2.01969s.56624-.92687,1.54442.27611-.83592,2.5509-.83592,2.5509l1.045,2.95366.16854.4764c-.01892.00176-.03661-.0007-.05572.00166a16.86514,16.86514,0,0,1-3.80484,1.97l-2.27922-.91892c-2.3751.35162-2.6226-3.71424-2.6226-3.71424Z"/><path class="cls-6" d="M124.59475,49.15974l4.41559,1.933,6.87879-10.23919s-1.44831-3.40508-.65578-4.49612c0,0,.77838-.3562.99813,1.46035s.42909.7725.42909.7725.05826-10.20317.43448-10.08675c.17862.05525.34716.60757.47546,1.17235-.37812,1.16612-.42862,10.86511-.066,11.39572.29322.429.46489.29084.53187.26556-.94149,2.914-5.149,15.54446-7.6109,16.39161,0,0-3.13729-.97678-5.68281-1.85041-.67834-1.8377-1.22427-3.12528-1.26323-3.31276C123.34134,51.90027,124.16129,50.06494,124.59475,49.15974Z"/><path class="cls-5" d="M137.57051,29.67592a.317.317,0,0,1,.04819-.10467c.4217-.45033.4335,2.79623.62562,3.11382s.39775-1.78072.9122-2.11361.56289,3.3687.65092,3.94448.34895-.31955.72459-.30819-.34853,3.94176-.21853,5.555a12.89106,12.89106,0,0,0,.97189,3.37435,18.9475,18.9475,0,0,0-1.898,2.044c-.47009-1.33468-1.31118-3.73248-1.31838-3.82185-.00224-.02772-.01329-.02931-.03256-.022-.067.02528-.23865.16345-.53187-.26556C137.14189,40.541,137.19239,30.842,137.57051,29.67592Z"/><path class="cls-6" d="M110.64564,41.5461c-.17543-.936-.6557-2.69793-.94409-3.72613.246-.10377.3855-.42651.46066-.5456.16849-.26692,1.017.04472,1.35395-.48912s.62121-.93675.62121-.93675,1.221.21829,1.36409-.36326.85055-.44855,1.18754-.98238,1.4646-.688,1.40882-1.38023.57648.08022,1.27075-.73575.59884-.42826,1.03426-.52668.58155.14314,1.12253-.21713a1.66313,1.66313,0,0,0,.25342-.20685l2.34827,6.91022s-.82187.72657-1.19225.683.958,2.78424-.38587,3.40614c-.63268.29277-1.37546.61-1.98624.86462-.68662.28624-1.206.49317-1.206.49317l-.1922.05054.11185,1.14884.1754,1.80114s-1.39815,2.68063-3.28623.19144a6.84754,6.84754,0,0,0-4.03419-2.51665A6.96662,6.96662,0,0,0,110.64564,41.5461Z"/><path class="cls-5" d="M109.22623,78.76394c.55566,1.03627,1.05508,1.96023,1.41771,2.64727-.34932.04531-.66455.08-.93038.10264a2.21061,2.21061,0,0,1-.82946-.00667c-.07021-.05976-.29767-1.909-.5826-4.47836C108.61722,77.62584,108.9293,78.21023,109.22623,78.76394Z"/><path class="cls-5" d="M110.10929,44.47772a5.01361,5.01361,0,0,1,.72625.10793,6.84754,6.84754,0,0,1,4.03419,2.51665c1.88808,2.48919,3.28622-.19144,3.28622-.19144l-.1754-1.80114-.11185-1.14884.1922-.05054s.51939-.20693,1.206-.49317c1.57657.94007,5.69288,3.47919,6.3256,4.7287,0,0-.10491.20442-.25593.51984-.43346.9052-1.25341,2.74054-1.11527,3.40591.039.18747.5849,1.47506,1.26323,3.31276,1.4107,3.82154,3.39689,10.03414,2.60747,13.7641a87.89311,87.89311,0,0,0-1.37176,13.02373s-.06523-.0125-.17664-.03334c-1.24147-.23245-8.85057-1.61818-10.61906-1.00436-.16691.05794-.35534.11585-.5584.17321-.38574-1.12524-.81648-2.41187-1.27282-3.6494-.14819-.40172-.29892-.79843-.4518-1.18228a31.21765,31.21765,0,0,0-3.25762-5.82725c-.07767-.96392.81486-3.42122,1.28892-4.9463a25.85343,25.85343,0,0,0,.93034-4.844l-6.9957-.31672-.46886-3.99758S103.64465,49.84109,110.10929,44.47772Z"/><path class="cls-6" d="M106.14891,59.71646l6.9957.31672a25.85343,25.85343,0,0,1-.93034,4.844c-.47406,1.52508-1.36659,3.98238-1.28892,4.9463a31.21765,31.21765,0,0,1,3.25762,5.82725c.15288.38385.30361.78056.4518,1.18228.45634,1.23753.88708,2.52416,1.27282,3.6494a16.53355,16.53355,0,0,0,1.266,3.1448c1.31317,1.72844,4.37942,4.26943,4.38869,5.29587.00937,1.02642-2.71234-.882-2.71234-.882s2.06188,5.55674,1.32118,5.46968-2.03736-3.431-2.03736-3.431,1.10145,3.65313.35487,3.49318-1.99973-3.87422-1.99973-3.87422.86861,4.40558-.42937,3.77649l-.65476-2.66194s.26433,3.28035-.7479,2.55484c-1.01232-.72548-2.0088-9.44964-2.72119-11.00637-.09538-.20837-.2763-.56063-.51517-1.01319-.36264-.687-.862-1.611-1.41772-2.64727-.29693-.55371-.609-1.1381-.92472-1.73512-1.61167-3.04806-3.3025-6.40391-3.38716-7.4546C105.53821,67.61631,106.14891,59.71646,106.14891,59.71646Z"/><path class="cls-7" d="M139.07287,44.51163a18.94649,18.94649,0,0,1,1.898-2.04395,2.57939,2.57939,0,0,1,.49948-.3881s4.63671,6.83662,8.17105,6.95239,6.68879-1.50036,9.61463-1.97647a10.69584,10.69584,0,0,0,1.8454-.48818,16.86493,16.86493,0,0,0,3.80484-1.97c.0191-.00236.03679.0001.05571-.00166,3.67456-.34157,3.99954,10.59419,3.81533,15.23184-.18517,4.66153,4.89032,15.94917,2.87443,20.75823a2.49033,2.49033,0,0,1-.45716.70475c-3.03572,3.36287-16.0359,1.8103-19.24039.16035-.43306-.223-.68884-.44766-.71516-.66226-.23353-1.90392,2.55131-26.00229,2.55131-26.00229s-6.075.16907-7.68623.05857-7.65613-8.516-7.70745-9.15282A2.7048,2.7048,0,0,1,139.07287,44.51163Z"/><path class="cls-8" d="M152.72448,129.56678a.63292.63292,0,0,0,.28971-.40137c.93024,1.53255,1.81777,3.57953.72065,4.58421-1.88111,1.72263-13.47644,2.657-14.01225,1.578s2.88821-3.15041,3.93128-4.13219c.55116-.51877,2.58334-2.09671,4.37768-3.46976-.13578.52921-.24832.96113-.32938,1.27a.45842.45842,0,0,0,.41913.57355A24.15984,24.15984,0,0,0,152.72448,129.56678Z"/><path class="cls-6" d="M147.621,128.01932c1.13737-4.433,3.90739-15.69964,3.48578-18.70966-.52845-3.77281.504-7.67141.78826-9.71423.20488-1.47244.01984-12.12422-.09947-17.9581,3.2045,1.64994,16.20468,3.20252,19.2404-.16035.31091,2.57086.6469,7.12358.83807,15.38633.0584,2.52428.88483,7.754.88046,10.92638-.00124.89888,1.67023,13.43953,2.51908,19.74972a7.42828,7.42828,0,0,1-2.88721.104,6.91107,6.91107,0,0,1-2.29774-1.04611.63215.63215,0,0,0,.10756-.42224c-.33079-1.32-9.09329-37.64566-9.09329-37.64566s-4.11922,18.51119-4.03674,22.31994-1.9465,12.05191-4.31687,16.05832a8.67933,8.67933,0,0,1-.14565,2.55136.633.633,0,0,1-.28971.40137,24.15984,24.15984,0,0,1-4.60318.00244.45842.45842,0,0,1-.41913-.57355C147.37265,128.98045,147.48518,128.54853,147.621,128.01932Z"/><path class="cls-8" d="M175.13164,126.85606c.2888,2.147.48257,3.57408.48257,3.57408s-9.1033,6.79331-11.75383,4.53811c-2.43007-2.06766,5.07518-7.19763,6.0863-9.05429a6.91134,6.91134,0,0,0,2.29775,1.04612A7.42848,7.42848,0,0,0,175.13164,126.85606Z"/><path class="cls-3" d="M121.51563,130.82134s4.42905-.577,5.87526-.84028c.08717-.01586.166-.03344.23861-.05211,1.2983,1.78643,3.6084,4.23731,5.0089,4.63755,1.83783.52522,6.62834,1.48579,6.0672,2.87762s-16.11636,3.3186-16.42919,2.22162l-.31283-1.09695s-6.44867.74408-7.0923-1.67284c-.33093-1.24268.177-3.85719.74844-6.10532A25.71356,25.71356,0,0,0,121.51563,130.82134Z"/><path class="cls-7" d="M112.12062,89.7109c-.00635-.697-1.16245-4.75153-1.87543-8.0662.26583-.02261.58107-.05732.93039-.10264.23887.45256.41979.80483.51517,1.0132.71239,1.55673,1.70887,10.28089,2.72119,11.00637,1.01223.72551.7479-2.55485.7479-2.55485l.65476,2.66195c1.298.62909.42937-3.77649.42937-3.77649s1.25311,3.71428,1.99973,3.87422-.35487-3.49319-.35487-3.49319,1.29662,3.34394,2.03736,3.431-1.32118-5.46968-1.32118-5.46968,2.72171,1.90841,2.71234.882c-.00927-1.02643-3.07552-3.56743-4.38869-5.29587a16.53366,16.53366,0,0,1-1.266-3.14479c.20307-.05736.39149-.11528.5584-.17321,1.76849-.61382,9.3776.77191,10.61906,1.00436a23.82778,23.82778,0,0,1,.442,5.14786c-.19657,3.024-.36778,14.557-.71112,15.75857-.34343,1.2016,1.56951,1.26755,1.10247,5.48731s-1.90307,11.8926,1.05334,21.26588c0,0,.566.60208-.56568.89315-.07259.01866-.15144.03624-.23862.05211-1.4462.26327-5.87525.84028-5.87525.84028a25.71356,25.71356,0,0,1-5.89591-.03071c-.58826-.13119-.99662-.3379-1.05629-.65636-.2574-1.37328,2.01695-26.86933,1.83485-29.12913C116.92992,101.136,112.12994,90.73733,112.12062,89.7109Z"/><path class="cls-9" d="M117.82575,43.14765s-.43278.152-.87078.29982"/><line class="cls-3" x1="121.96358" y1="138.56879" x2="122.49609" y2="130.83985"/><path class="cls-1" d="M156.80823,33.88537l.2091.42533A.88412.88412,0,0,1,156.80823,33.88537Z"/><path class="cls-10" d="M164.93965,38.35741c-.97818-1.203-1.54442-.27611-1.54442-.27611s-2.936-.64465-3.76787-2.01969l.93708,1.687a33.415,33.415,0,0,1-3.54711-3.4379l-.2091-.42533s-1.77679-.17729.212-2.34039,7.41273.52427,7.41273.52427-1.04232-1.999,2.99147-2.64446,3.85882,5.1368,2.385,5.73624a3.48124,3.48124,0,0,1-2.55351.12566s.72658,1.063,1.13329,5.11606c.31915,3.18045-2.15851,3.47833-3.24046,3.45922l-1.04495-2.95366S165.91785,39.56042,164.93965,38.35741Z"/><path class="cls-10" d="M155.04511,40.83713l1.04615-2.0797a19.36346,19.36346,0,0,1,.717-4.87206.88412.88412,0,0,0,.2091.42533,33.415,33.415,0,0,0,3.54711,3.4379l-.93708-1.687c.83182,1.375,3.76787,2.01969,3.76787,2.01969s.56624-.92687,1.54442.27611-.83592,2.5509-.83592,2.5509l1.045,2.95366.16854.4764c-.01892.00175-.03661-.0007-.05572.00166a16.86514,16.86514,0,0,1-3.80484,1.97l-2.27922-.91892c-2.3751.35162-2.6226-3.71425-2.6226-3.71425Z"/><path class="cls-10" d="M124.63546,48.233l4.41559,1.933,6.8788-10.23918s-1.44831-3.40508-.65578-4.49613c0,0,.77837-.35619.99812,1.46036s.42909.7725.42909.7725.05826-10.20318.43449-10.08676c.17862.05526.34715.60758.47546,1.17235-.37812,1.16613-.42862,10.86511-.066,11.39573.29322.429.46489.29084.53187.26556-.9415,2.914-5.149,15.54446-7.6109,16.3916,0,0-3.13729-.97677-5.68281-1.85041-.67834-1.83769-1.22427-3.12528-1.26323-3.31275C123.38205,50.97352,124.202,49.13818,124.63546,48.233Z"/><path class="cls-10" d="M137.61123,28.74916a.31677.31677,0,0,1,.04819-.10466c.42169-.45034.4335,2.79622.62561,3.11381s.39776-1.78071.9122-2.1136.5629,3.36869.65093,3.94448.349-.31956.72459-.3082-.34853,3.94176-.21853,5.555a12.89037,12.89037,0,0,0,.97189,3.37436,18.94626,18.94626,0,0,0-1.898,2.04394c-.47009-1.33467-1.31119-3.73247-1.31839-3.82184-.00223-.02772-.01328-.02931-.03255-.022-.067.02528-.23865.16344-.53187-.26556C137.18261,39.61427,137.23311,29.91529,137.61123,28.74916Z"/><path class="cls-9" d="M110.64874,41.23032c-.17543-.936-.6557-2.69794-.94409-3.72613.246-.10377.3855-.42651.46066-.5456.16849-.26692,1.017.04472,1.35395-.48912s.62121-.93675.62121-.93675,1.221.21829,1.36409-.36326.85055-.44855,1.18754-.98238,1.4646-.688,1.40882-1.38023.57648.08022,1.27075-.73575.59884-.42826,1.03426-.52668.58155.14314,1.12253-.21713a1.66373,1.66373,0,0,0,.25342-.20685l2.34827,6.91022s-.82187.72656-1.19225.683.958,2.78424-.38587,3.40614c-.63268.29277-1.37546.61-1.98624.86462-.68662.28624-1.206.49317-1.206.49317l-.1922.05054.11185,1.14884.1754,1.80114s-1.39815,2.68063-3.28623.19144a6.84754,6.84754,0,0,0-4.03419-2.51665A6.96662,6.96662,0,0,0,110.64874,41.23032Z"/><path class="cls-9" d="M108.76027,79.0939c.55566,1.03627,1.05508,1.96022,1.41771,2.64726-.34932.04532-.66455.08-.93038.10264a2.21037,2.21037,0,0,1-.82946-.00667c-.07021-.05975-.29767-1.90894-.58259-4.47835C108.15126,77.95579,108.46334,78.54019,108.76027,79.0939Z"/><path class="cls-9" d="M109.40818,44.045a5.0134,5.0134,0,0,1,.72624.10793,6.84754,6.84754,0,0,1,4.03419,2.51665c1.88808,2.48919,3.28623-.19144,3.28623-.19144l-.1754-1.80114-.11185-1.14884.1922-.05054s.51938-.20693,1.206-.49317c1.57657.94006,5.69289,3.47919,6.32561,4.7287,0,0-.10491.20442-.25594.51984-.43345.9052-1.25341,2.74054-1.11526,3.40591.039.18747.58489,1.47506,1.26323,3.31275,1.4107,3.82154,3.39688,10.03415,2.60747,13.76411a87.893,87.893,0,0,0-1.37176,13.02373s-.06523-.0125-.17665-.03334c-1.24146-.23245-8.85056-1.61818-10.61906-1.00436-.16691.05794-.35533.11585-.55839.17321-.38574-1.12525-.81648-2.41187-1.27283-3.6494-.14818-.40173-.29892-.79843-.45179-1.18228a31.21724,31.21724,0,0,0-3.25762-5.82725c-.07768-.96393.81485-3.42122,1.28892-4.9463a25.85343,25.85343,0,0,0,.93034-4.844l-6.9957-.31672-.46887-3.99759S102.94353,49.40836,109.40818,44.045Z"/><path class="cls-9" d="M104.90636,60.109l6.9957.31672a25.85343,25.85343,0,0,1-.93034,4.844c-.47407,1.52508-1.3666,3.98237-1.28892,4.9463a31.21724,31.21724,0,0,1,3.25762,5.82725c.15287.38385.30361.78055.45179,1.18228.45635,1.23753.88709,2.52415,1.27283,3.6494a16.53355,16.53355,0,0,0,1.266,3.14479c1.31318,1.72845,4.37942,4.26944,4.3887,5.29587.00936,1.02643-2.71234-.882-2.71234-.882s2.06188,5.55673,1.32118,5.46968c-.74075-.087-2.03737-3.431-2.03737-3.431s1.10145,3.65314.35488,3.49319c-.74662-.15994-1.99974-3.87422-1.99974-3.87422s.86861,4.40558-.42937,3.77649l-.65476-2.662s.26434,3.28036-.74789,2.55485c-1.01233-.72548-2.00881-9.44964-2.7212-11.00637-.09537-.20837-.2763-.56064-.51517-1.0132-.36263-.687-.86205-1.611-1.41771-2.64726-.29693-.55371-.609-1.13811-.92472-1.73512-1.61168-3.04806-3.3025-6.40391-3.38717-7.45461C104.29565,68.00885,104.90636,60.109,104.90636,60.109Z"/><path class="cls-9" d="M139.42808,44.25432a18.94626,18.94626,0,0,1,1.898-2.04394,2.579,2.579,0,0,1,.49947-.3881s4.63672,6.83662,8.17106,6.95238,6.68878-1.50036,9.61463-1.97646a10.69551,10.69551,0,0,0,1.84539-.48819,16.86514,16.86514,0,0,0,3.80484-1.97c.01911-.00236.0368.00009.05572-.00166,3.67456-.34157,3.99954,10.59418,3.81532,15.23183-.18516,4.66153,4.89033,15.94918,2.87444,20.75823a2.49041,2.49041,0,0,1-.45717.70476c-3.03572,3.36287-16.03589,1.81029-19.24039.16035-.43306-.223-.68883-.44767-.71515-.66226-.23353-1.90392,2.5513-26.00229,2.5513-26.00229s-6.075.16907-7.68623.05857-7.65613-8.516-7.70744-9.15282A2.70482,2.70482,0,0,1,139.42808,44.25432Z"/><path class="cls-9" d="M152.82777,129.41662a.63288.63288,0,0,0,.28971-.40137c.93025,1.53255,1.81777,3.57953.72065,4.58421-1.8811,1.72264-13.47644,2.657-14.01225,1.578s2.88822-3.1504,3.93129-4.13219c.55115-.51877,2.58333-2.09671,4.37768-3.46976-.13579.52921-.24832.96113-.32938,1.27a.45841.45841,0,0,0,.41912.57355A24.15983,24.15983,0,0,0,152.82777,129.41662Z"/><path class="cls-9" d="M148.13485,127.57553c1.13737-4.433,3.90739-15.69964,3.48578-18.70965-.52845-3.77282.504-7.67141.78826-9.71424.20488-1.47244.01984-12.12422-.09947-17.9581,3.2045,1.64994,16.20467,3.20252,19.24039-.16035.31092,2.57086.64691,7.12358.83807,15.38633.05841,2.52428.88484,7.754.88047,10.92638-.00124.89888,1.67023,13.43953,2.51908,19.74972a7.42809,7.42809,0,0,1-2.88721.104,6.91111,6.91111,0,0,1-2.29775-1.04611.63211.63211,0,0,0,.10757-.42224c-.3308-1.32-9.09329-37.64566-9.09329-37.64566s-4.11922,18.51119-4.03674,22.31994-1.9465,12.05192-4.31687,16.05832a8.67909,8.67909,0,0,1-.14566,2.55136.63288.63288,0,0,1-.28971.40137,24.15983,24.15983,0,0,1-4.60318.00244.45841.45841,0,0,1-.41912-.57355C147.88653,128.53666,147.99906,128.10474,148.13485,127.57553Z"/><path class="cls-9" d="M175.78743,127.09562c.2888,2.147.48257,3.57409.48257,3.57409s-9.10329,6.7933-11.75383,4.53811c-2.43007-2.06766,5.07519-7.19763,6.0863-9.05429a6.91111,6.91111,0,0,0,2.29775,1.04611A7.42809,7.42809,0,0,0,175.78743,127.09562Z"/><path class="cls-9" d="M121.04967,131.1513s4.429-.577,5.87526-.84028c.08717-.01586.166-.03344.23861-.05211,1.2983,1.78643,3.6084,4.23731,5.0089,4.63754,1.83783.52523,6.62834,1.4858,6.0672,2.87763s-16.11636,3.3186-16.42919,2.22162l-.31283-1.09695s-6.44867.74407-7.0923-1.67284c-.33093-1.24268.177-3.85719.74844-6.10532A25.71355,25.71355,0,0,0,121.04967,131.1513Z"/><path class="cls-9" d="M111.123,89.91c-.00635-.697-1.16246-4.75153-1.87543-8.0662.26583-.02261.58106-.05732.93038-.10264.23887.45256.4198.80483.51517,1.0132.71239,1.55673,1.70887,10.28089,2.7212,11.00637,1.01223.72551.74789-2.55485.74789-2.55485l.65476,2.662c1.298.62909.42937-3.77649.42937-3.77649s1.25312,3.71428,1.99974,3.87422c.74657.16-.35488-3.49319-.35488-3.49319s1.29662,3.34394,2.03737,3.431c.7407.087-1.32118-5.46968-1.32118-5.46968s2.7217,1.90841,2.71234.882c-.00928-1.02643-3.07552-3.56742-4.3887-5.29587a16.53355,16.53355,0,0,1-1.266-3.14479c.20306-.05736.39148-.11527.55839-.17321,1.7685-.61382,9.3776.77191,10.61906,1.00436a23.8278,23.8278,0,0,1,.44205,5.14786c-.19658,3.024-.36779,14.557-.71113,15.75857-.34343,1.2016,1.56952,1.26756,1.10247,5.48731s-1.90307,11.8926,1.05335,21.26588c0,0,.566.60208-.56569.89315-.07259.01867-.15144.03625-.23861.05211-1.44621.26328-5.87526.84028-5.87526.84028a25.71355,25.71355,0,0,1-5.89591-.03071c-.58826-.13119-.99662-.3379-1.05629-.65636-.25739-1.37328,2.017-26.86933,1.83486-29.12913C115.93233,101.3351,111.13235,90.93643,111.123,89.91Z"/><path class="cls-11" d="M107.755,34.55608c-.57141-.01729-.62718-.70948-.57739-1.66352s.20607-.58662.01937-1.33162.03458-1.14282.82219-1.5863.00715-.69726.20815-1.34678.78255-.50643,1.04141-1.224.43333.66176,1.291-.484.685.64149,1.31131-.23234,1.73451.30358,1.767-.079,1.20275-.7936,1.49-.3734,1.14282.03458,1.903.03666.51147.84547,1.01488.80491.63733.83533.64032,1.65844c.00162.43225.59969.24515.98447.42736.348.16479.24049.69278.32815.98874a.876.876,0,0,1-.217.96928,1.66373,1.66373,0,0,1-.25342.20685c-.541.36027-.68712.1187-1.12253.21713s-.34-.28928-1.03426.52668-1.32652.04356-1.27075.73575-1.07182.84639-1.40882,1.38023-1.04439.40083-1.18754.98238-1.36409.36326-1.36409.36326-.28421.40292-.62121.93675-1.18546.2222-1.35395.48912c-.07516.11909-.21465.44183-.46066.5456a.39455.39455,0,0,1-.18748.0348c-.30152-.02316-.80424-.5267-.80424-.5267s-.2872-.42021-.79361-1.20276S108.32639,34.57337,107.755,34.55608Z"/><path class="cls-9" d="M157.655,42.37232s1.47794.8932,1.89528-.209"/><path class="cls-9" d="M159.17744,45.39109a6.89666,6.89666,0,0,0,2.57348-1.043"/><path class="cls-9" d="M117.35979,43.47761s-.43278.152-.87078.29981"/><path class="cls-9" d="M113.7984,36.90816s-1.39055-.50657-1.70514.47483.62527,2.874,1.59317,3.021"/><path class="cls-9" d="M118.32413,40.03027s.83629.60747,1.43292.33444"/><line class="cls-9" x1="119.56722" y1="36.54165" x2="113.13243" y2="36.75992"/><ellipse class="cls-9" cx="120.18948" cy="37.16126" rx="0.61904" ry="1.15311" transform="translate(-2.59651 9.77382) rotate(-4.60703)"/><path class="cls-9" d="M121.83776,35.09942c.06645.82463-.2518,1.49874-.55917,1.52351s-.48747-.60919-.55392-1.43381.27289-1.53916.58026-1.56393S121.77131,34.2748,121.83776,35.09942Z"/><path class="cls-9" d="M123.5202,51.63889c-.18984-.23589-.359.04636-.44806-1.05932s-.45793-3.30166-.45793-3.30166"/><path class="cls-9" d="M111.90206,60.42572s2.51979-11.95042-3.92978-11.50745"/><path class="cls-9" d="M154.14557,54.529s4.13525-.17826,5.08837-.4045"/><path class="cls-9" d="M160.93709,46.51526s2.845.06963,3.35973,1.82142"/><path class="cls-9" d="M125.47634,102.836s-2.59351-12.08358-1.71923-15.14282"/><path class="cls-9" d="M115.93233,101.3351s2.5946,5.833,2.34413,9.21562,2.53,20.26937,3.30226,20.58074"/><line class="cls-9" x1="121.49762" y1="138.89875" x2="122.03013" y2="131.1698"/><circle class="cls-8" cx="158.07428" cy="38.56781" r="0.38648"/><polygon class="cls-8" points="152.09 75.117 154.621 56.833 158.063 54.371 154.146 54.529 152.09 75.117"/><path class="cls-8" d="M115.907,104.67064l2.32313,3.632s-1.44288-6.5069-2.1192-6.50075Z"/><path class="cls-8" d="M125.84249,81.70614s-9.71015-.88095-11.00305.521L114.665,80.875S114.64935,79.51315,125.84249,81.70614Z"/><path class="cls-8" d="M152.30942,81.19354s12.43125,7.048,19.32558.00376l-2.524,1.31283-2.75638.46865-7.78177-.19474Z"/><path class="cls-3" d="M1018.72582,23.01886c-.51447-.31932-1.54337,2.37715-1.54337,2.37715l-.12418-.01775s.65638-4.31077.24836-4.38173-1.54336,4.15112-1.54336,4.15112.8515-4.772.21287-5.02037c-.54477-.21186-1.21862,1.69321-1.40493,2.25783-.0321.0973-.20939,3.206-.20939,3.206s.08869-4.38175-.05322-4.73654-.65638.39028-.86925.76281-.70961,7.20238-.70961,7.20238c-.01773-.49671-.97567-1.5079-1.79172-1.95138a.9639.9639,0,0,0-1.40145.23061c-.10643.21287.15967.60315.9757,1.09988a2.37867,2.37867,0,0,1,1.0289,1.89815,1.5688,1.5688,0,0,0,.99343,1.25953.98226.98226,0,0,1,.6289.78855,15.10067,15.10067,0,0,1-3.52779,8.499c-.13979.19795-.21933.33558-.19485.39909a4.3285,4.3285,0,0,0,4.779,2.5539c.35479-.14192,1.59656-5.48161,1.68528-5.8364s1.25953-4.93168,1.25953-4.93168c.39028-.071,1.01117-1.5079,1.06439-2.04009s0-5.48161,0-5.48161S1019.24028,23.33819,1018.72582,23.01886Z"/><path class="cls-3" d="M995.50041,35.43533c-.33224-.62757.07384-1.36589-.443-1.99345s-.07384-1.25513-.95981-1.47662a4.71006,4.71006,0,0,1-1.62429-.59064c-.47989-.29532-.29532.36916-1.292.07384a3.82852,3.82852,0,0,1-1.29205-.55373,1.45741,1.45741,0,0,1-1.29205.47989c-.886-.07384-.51681.22148-.9967.36916s-.84907.2584-.51683.849.59065.886.2584.99672-1.03361-.11075-.73829.40606.2584,1.10748.11075,1.1444-.77523,0-.51683.47989.14767,1.51353-.22149,1.58737-.7014.33224-.73832.22148a2.78136,2.78136,0,0,0-1.07053-1.80885s-.77522-1.07056-1.1813.9598a2.48811,2.48811,0,0,0,1.29205,2.80556c.19981,1.9126-.76745,4.54406-1.13225,5.64407-.107.32251-.16471.51988-.12288.52082,1.66119.03692,6.16487,4.46677,6.16487,4.46677a1.51484,1.51484,0,0,0,1.55045-.03692c.48427-.339.91955-2.10319,1.16269-3.28.12757-.61738.2032-1.076.2032-1.076,3.32236-1.21821,3.47-7.16162,3.47-7.16162l.07676-2.30321A2.03861,2.03861,0,0,0,995.50041,35.43533Z"/><path class="cls-5" d="M996.01722,34.58625c.11075-.55372-.29532-.9967-.18457-1.36586s-.18457-.59064-.443-.99672a1.92823,1.92823,0,0,1-.07384-1.4397c.11073-.47989-.62756.22149-.9598-.33224s-.36916-.36916-.40608-.7014-.40606-.0369-1.14438-.40606.11076-.40607-.55372-.59064-.51681.11073-1.10746-.18459-.73832-.18457-1.4397,0a7.37124,7.37124,0,0,1-1.1444.29532,2.54512,2.54512,0,0,0-1.62426.33224c-.77524.47992-.33224.443-.99672.81216s-.59065.36913-1.21822,1.292a5.34329,5.34329,0,0,0-.886,1.99345,5.4673,5.4673,0,0,0,.33224,2.32567,2.78136,2.78136,0,0,1,1.07053,1.80885c.03692.11076.36916-.14767.73832-.22148s.47989-1.10748.22149-1.58737.36916-.443.51683-.47989.18457-.62757-.11075-1.1444.40608-.29533.73829-.40606.07384-.40607-.2584-.99672.03692-.7014.51683-.849.11073-.443.9967-.36916a1.45741,1.45741,0,0,0,1.29205-.47989,3.82852,3.82852,0,0,0,1.29205.55373c.9967.29532.81213-.36916,1.292-.07384a4.71006,4.71006,0,0,0,1.62429.59064c.886.22149.443.84906.95981,1.47662s.11073,1.36588.443,1.99345a2.03861,2.03861,0,0,1,.1506.72383c.07234.9503-.06772,2.35753-.03985,2.52472a4.24143,4.24143,0,0,0,.40606-1.329C996.16489,36.469,995.90649,35.14,996.01722,34.58625Z"/><path class="cls-12" d="M1009.44086,41.04318c-.02448-.06351.05506-.20114.19485-.39909-.202-.01529-.45582.09781-.73537.53711-.67155,1.05527-2.01462,3.06986-2.68614,3.30971s-2.15849-.23985-2.44632,1.0073-1.391,1.53492-3.64546,1.87069-5.08448-.47967-6.57145-.5756c-.50157-.03234-1.08972-.06461-1.65-.09328-.24314,1.17679-.67842,2.941-1.16269,3.28a1.51484,1.51484,0,0,1-1.55045.03692s-4.50368-4.42985-6.16487-4.46677c-.04183-.00094.01592-.19831.12288-.52082a3.911,3.911,0,0,0-1.63455.03718c-1.439.5756-4.84463,2.35037-5.08448,3.93326s-.33577,2.97394-.7195,3.45362a8.59766,8.59766,0,0,0-.76747,5.51615s-.38373-.09592-.38373,2.11055.2878,4.8926-.14389,6.23568a9.97144,9.97144,0,0,0-.52765,4.94058c.2878,2.35037-.23983,2.01459-.19185,3.83734s-.19188,4.84463.2878,6.37958a10.16384,10.16384,0,0,0,.93263,2.18336c-.25494-.59491-.41595-.96165-.41595-.96165l6.14278-.94132s.30682,2.12416.60686,4.23268c.09445.66363.18815,1.32524.27147,1.919l10.76208.90061.647.05414s1.19917.76747,1.10322-.52765-.5756-1.72679.5756-2.78206,1.487-3.02189,1.00732-7.67468a35.86245,35.86245,0,0,1-.096-6.6194c.33577-2.59022.81545-12.47136-.38372-14.96563,0,0-.95935-.096,2.06257-.47967s5.94788-2.15849,7.6267-2.878,2.30241.09595,3.21378-.67152.95933-.4317,1.82272-1.34307a19.771,19.771,0,0,0,1.72682-2.878c.52763-.71952,2.0146,0,2.63343-4.44337A4.3285,4.3285,0,0,1,1009.44086,41.04318Z"/><path class="cls-3" d="M983.20445,96.31442c-.52158-1.782-1.34743-5.6939-1.39088-6.21548-.01369-.16427-.13523-1.05326-.29522-2.19355-.08332-.59381-.177-1.25542-.27147-1.919-.3-2.10852-.60686-4.23268-.60686-4.23268l-6.14278.94132s.161.36674.41595.96165c1.05032,2.45079,3.71662,8.82616,3.50169,9.90086-.26712,1.33555-1.24652,1.78072-1.24652,3.20532a17.05413,17.05413,0,0,1-.30979,3.85464c-.21732.565-1.52127,2.78175-.82585,3.173.54807.30826,1.55234-1.26907,1.95452-1.95317a12.53221,12.53221,0,0,0-1.38947,2.99632c.1304.652.8693.52157.8693.52157s-.058.4355.21733.565a1.36505,1.36505,0,0,0,1.23345-.00343c.04229-.02236.0705-.04.0705-.04s.30425.5216,1.13007.21732,3.43375-4.12915,3.34681-5.38965A14.14848,14.14848,0,0,0,983.20445,96.31442Z"/><path class="cls-8" d="M957.11835,154.52084a77.72538,77.72538,0,0,1,6.562,4.897c1.37116,1.37116,8.71666,5.09285,12.73218,2.44849,0,0,1.27323-2.44849-.9794-3.33s-4.30934-.58765-4.60316-2.44849c-.20831-1.31917-1.10134-3.276-1.18739-4.82816a53.085,53.085,0,0,1-7.51791-2.99158C960.455,149.543,957.54168,151.98092,957.11835,154.52084Z"/><path class="cls-3" d="M993.3679,98.58405a70.77588,70.77588,0,0,0-1.08747-9.77805l-10.76208-.90061c.16,1.14029.28153,2.02928.29522,2.19355.04345.52158.8693,4.43343,1.39088,6.21548a14.14848,14.14848,0,0,1,.26078,4.38995c.08694,1.2605-2.521,5.0854-3.34681,5.38965s-1.13007-.21732-1.13007-.21732-.02821.01768-.0705.04c-.08446,5.07708,1.94475,13.21892,1.02048,14.22721-1.07733,1.17529,0,1.567-2.05674,4.30936s-16.258,21.93851-16.55181,23.01585c-.05569.20416.25555.48238.79486.799a53.085,53.085,0,0,0,7.51791,2.99158c.778.26,1.28532.42086,1.28532.42086S985.325,129.44823,988.557,127.39149a3.89909,3.89909,0,0,0,1.22842-1.42663c2.127-3.803,2.53643-13.06488,3.37477-20.60981A46.39708,46.39708,0,0,0,993.3679,98.58405Z"/><path class="cls-8" d="M995.57911,147.46529c-.71814,2.07631-2.01259,6.22736-1.04775,6.66377,1.45267.65711,3.62379-.78351,6.65993-1.17527s8.9125-1.17527,8.71664-4.60316a2.30653,2.30653,0,0,0-1.46909-.88147,43.90693,43.90693,0,0,1-7.44523-1.38655l.00179.01539A53.99047,53.99047,0,0,1,995.57911,147.46529Z"/><path class="cls-3" d="M999.72217,125.33476c.78354-3.32994,2.44852-5.97433,1.27323-10.0878-.79469-2.78141-4.992-11.383-7.6275-16.66291a46.39708,46.39708,0,0,1-.20767,6.771c-.83834,7.54493-1.2478,16.80683-3.37477,20.60981.2359,8.02973.68647,21.28755,2.19948,21.70019a9.68431,9.68431,0,0,0,3.59417-.19976,53.99047,53.99047,0,0,0,5.41629-1.36729l-.00179-.01539C1000.92717,145.5166,998.9518,128.60888,999.72217,125.33476Z"/><path class="cls-9" d="M1019.19193,24.301c-.51446-.31932-1.54337,2.37715-1.54337,2.37715l-.12418-.01776s.65638-4.31077.24837-4.38172-1.54337,4.15112-1.54337,4.15112.8515-4.772.21288-5.02038c-.54478-.21185-1.21863,1.69322-1.40494,2.25783-.0321.09731-.20938,3.20605-.20938,3.20605s.08869-4.38175-.05323-4.73654-.65638.39028-.86925.7628-.7096,7.20238-.7096,7.20238c-.01774-.4967-.97568-1.50789-1.79173-1.95137a.96391.96391,0,0,0-1.40145.2306c-.10643.21288.15967.60316.9757,1.09989a2.37866,2.37866,0,0,1,1.0289,1.89815,1.56881,1.56881,0,0,0,.99344,1.25953.98226.98226,0,0,1,.62889.78855,15.10067,15.10067,0,0,1-3.52779,8.499c-.13978.19794-.21933.33558-.19485.39908a4.32851,4.32851,0,0,0,4.779,2.55391c.35479-.14192,1.59656-5.48161,1.68528-5.8364s1.25953-4.93168,1.25953-4.93168c.39028-.071,1.01117-1.5079,1.06439-2.0401s0-5.48161,0-5.48161S1019.70639,24.6203,1019.19193,24.301Z"/><path class="cls-9" d="M995.96652,36.71745c-.33224-.62757.07384-1.36589-.443-1.99345s-.07384-1.25513-.95981-1.47662a4.71006,4.71006,0,0,1-1.62429-.59064c-.47989-.29533-.29532.36916-1.292.07383a3.8284,3.8284,0,0,1-1.29205-.55373,1.45742,1.45742,0,0,1-1.292.4799c-.886-.07384-.51681.22148-.9967.36916s-.84908.2584-.51684.849.59065.886.25841.99672-1.03362-.11075-.7383.40605.25841,1.10748.11076,1.1444-.77524,0-.51684.47989.14768,1.51354-.22148,1.58737-.70141.33225-.73832.22149a2.78148,2.78148,0,0,0-1.07054-1.80886s-.77522-1.07056-1.18129.95981a2.48811,2.48811,0,0,0,1.292,2.80556c.19981,1.91259-.76744,4.54406-1.13225,5.64406-.107.32252-.1647.51988-.12288.52083,1.66119.03692,6.16487,4.46676,6.16487,4.46676a1.51484,1.51484,0,0,0,1.55045-.03692c.48427-.339.91955-2.10318,1.16269-3.28.12757-.61738.2032-1.076.2032-1.076,3.32237-1.21822,3.47-7.16162,3.47-7.16162l.07676-2.30322A2.03859,2.03859,0,0,0,995.96652,36.71745Z"/><path class="cls-9" d="M996.48333,35.86837c.11076-.55373-.29532-.9967-.18457-1.36586s-.18456-.59065-.443-.99672a1.92823,1.92823,0,0,1-.07384-1.4397c.11074-.47989-.62756.22149-.9598-.33224s-.36916-.36916-.40608-.7014-.406-.0369-1.14437-.40606.11075-.40608-.55373-.59064-.51681.11073-1.10746-.1846-.73832-.18456-1.43969,0a7.37192,7.37192,0,0,1-1.1444.29533,2.54515,2.54515,0,0,0-1.62427.33224c-.77524.47991-.33224.443-.99672.81216s-.59065.36913-1.21821,1.292a5.34317,5.34317,0,0,0-.886,1.99345,5.46727,5.46727,0,0,0,.33224,2.32566,2.78148,2.78148,0,0,1,1.07054,1.80886c.03691.11076.36916-.14767.73832-.22149s.47989-1.10748.22148-1.58737.36916-.443.51684-.47989.18456-.62756-.11076-1.1444.40608-.29532.7383-.40605.07383-.40608-.25841-.99672.03692-.70141.51684-.849.11073-.443.9967-.36916a1.45742,1.45742,0,0,0,1.292-.4799,3.8284,3.8284,0,0,0,1.29205.55373c.9967.29533.81213-.36916,1.292-.07383a4.71006,4.71006,0,0,0,1.62429.59064c.886.22149.443.849.95981,1.47662s.11073,1.36588.443,1.99345a2.03859,2.03859,0,0,1,.1506.72382c.07234.9503-.06771,2.35753-.03984,2.52473a4.24176,4.24176,0,0,0,.40605-1.329C996.631,37.75106,996.3726,36.42212,996.48333,35.86837Z"/><path class="cls-9" d="M1009.907,42.32529c-.02448-.0635.05507-.20114.19485-.39908-.202-.01529-.45582.09781-.73537.53711-.67154,1.05527-2.01461,3.06986-2.68614,3.30971s-2.15849-.23985-2.44631,1.0073-1.391,1.53492-3.64547,1.87069-5.08448-.47967-6.57145-.5756c-.50157-.03234-1.08972-.06462-1.65-.09329-.24314,1.1768-.67842,2.941-1.16269,3.28a1.51484,1.51484,0,0,1-1.55045.03692s-4.50368-4.42984-6.16487-4.46676c-.04182-.001.01592-.19831.12288-.52083a3.91113,3.91113,0,0,0-1.63455.03719c-1.439.5756-4.84463,2.35036-5.08448,3.93326s-.33577,2.97394-.7195,3.45361a8.59769,8.59769,0,0,0-.76747,5.51616s-.38372-.09592-.38372,2.11054.2878,4.89261-.1439,6.23568a9.97148,9.97148,0,0,0-.52765,4.94059c.2878,2.35036-.23983,2.01459-.19185,3.83733s-.19187,4.84464.2878,6.37958a10.163,10.163,0,0,0,.93264,2.18337c-.255-.59491-.416-.96165-.416-.96165l6.14278-.94132s.30681,2.12416.60685,4.23267c.09445.66364.18815,1.32524.27147,1.91906l10.76208.9006.647.05415s1.19917.76747,1.10322-.52765-.5756-1.72679.5756-2.78207,1.487-3.02189,1.00732-7.67467a35.86245,35.86245,0,0,1-.096-6.6194c.33578-2.59022.81545-12.47136-.38372-14.96563,0,0-.95935-.096,2.06257-.47967s5.94788-2.1585,7.6267-2.878,2.30241.096,3.21379-.67152.95932-.4317,1.82272-1.34307a19.77085,19.77085,0,0,0,1.72681-2.878c.52763-.71952,2.0146,0,2.63343-4.44337A4.32851,4.32851,0,0,1,1009.907,42.32529Z"/><path class="cls-9" d="M983.67056,97.59654c-.52157-1.78206-1.34742-5.69391-1.39087-6.21548-.0137-.16427-.13524-1.05327-.29523-2.19355-.08332-.59382-.177-1.25542-.27147-1.91906-.3-2.10851-.60685-4.23267-.60685-4.23267l-6.14278.94132s.161.36674.416.96165c1.05031,2.45079,3.71661,8.82616,3.50168,9.90086-.26711,1.33554-1.24652,1.78072-1.24652,3.20532a17.05409,17.05409,0,0,1-.30979,3.85463c-.21732.565-1.52127,2.78175-.82585,3.173.54807.30827,1.55234-1.26906,1.95453-1.95316a12.532,12.532,0,0,0-1.38948,2.99631c.1304.652.8693.52158.8693.52158s-.058.4355.21733.565a1.365,1.365,0,0,0,1.23345-.00344c.04229-.02235.0705-.04.0705-.04s.30425.52159,1.13008.21732,3.43375-4.12915,3.3468-5.38965A14.14848,14.14848,0,0,0,983.67056,97.59654Z"/><path class="cls-9" d="M957.58446,155.803a77.72538,77.72538,0,0,1,6.562,4.897c1.37116,1.37116,8.71667,5.09285,12.73218,2.44849,0,0,1.27323-2.44849-.9794-3.33s-4.30934-.58765-4.60316-2.4485c-.2083-1.31916-1.10134-3.276-1.18739-4.82816a53.08423,53.08423,0,0,1-7.51791-2.99157C960.9211,150.82512,958.00779,153.263,957.58446,155.803Z"/><path class="cls-9" d="M993.834,99.86617a70.77449,70.77449,0,0,0-1.08747-9.77806l-10.76208-.9006c.16,1.14028.28153,2.02928.29523,2.19355.04345.52157.8693,4.43342,1.39087,6.21548a14.14848,14.14848,0,0,1,.26078,4.38995c.087,1.2605-2.52095,5.0854-3.3468,5.38965s-1.13008-.21732-1.13008-.21732-.02821.01768-.0705.04c-.08446,5.07708,1.94475,13.21892,1.02048,14.22721-1.07733,1.1753,0,1.567-2.05673,4.30937s-16.258,21.93851-16.55181,23.01585c-.0557.20416.25555.48238.79485.799a53.08423,53.08423,0,0,0,7.51791,2.99157c.778.26,1.28532.42086,1.28532.42086s14.39716-22.23233,17.62917-24.28907a3.8989,3.8989,0,0,0,1.22842-1.42663c2.127-3.803,2.53644-13.06488,3.37477-20.60981A46.39708,46.39708,0,0,0,993.834,99.86617Z"/><path class="cls-9" d="M996.04522,148.74741c-.71814,2.07631-2.01258,6.22735-1.04775,6.66377,1.45267.6571,3.62379-.78351,6.65993-1.17527s8.91251-1.17527,8.71664-4.60316a2.30653,2.30653,0,0,0-1.46909-.88147,43.9071,43.9071,0,0,1-7.44523-1.38655l.00179.01539A53.99356,53.99356,0,0,1,996.04522,148.74741Z"/><path class="cls-9" d="M1000.18828,126.61687c.78354-3.32993,2.44852-5.97432,1.27323-10.08779-.79469-2.78142-4.992-11.383-7.6275-16.66291a46.39708,46.39708,0,0,1-.20767,6.771c-.83833,7.54493-1.2478,16.80683-3.37477,20.60981.23591,8.02973.68648,21.28755,2.19948,21.70019a9.68431,9.68431,0,0,0,3.59417-.19976,53.99356,53.99356,0,0,0,5.41629-1.36729l-.00179-.01539C1001.39329,146.79871,999.41791,129.891,1000.18828,126.61687Z"/><path class="cls-9" d="M992.57032,46.90611a3.16754,3.16754,0,0,1-3.87662-.85463c-1.90167-2.00446-2.8782-1.85027-2.8782-2.36423a13.23659,13.23659,0,0,0-.15419-1.4905"/><path class="cls-10" d="M990.0814,42.55652s3.34077.514,3.80334.1028a2.21325,2.21325,0,0,1-2.36424,1.3877A3.58987,3.58987,0,0,1,990.0814,42.55652Z"/><path class="cls-10" d="M993.37078,37.46827a3.60884,3.60884,0,0,0-.35978,1.79888c.15419.71955.46257,1.28491.30838,1.4391a9.48852,9.48852,0,0,1-1.33631.61676"/><path class="cls-10" d="M995.6,57.57284a10.79812,10.79812,0,0,1,.392-2.27"/><path class="cls-10" d="M983.96522,49.80343c5.9106,1.90167,3.64915,8.01785,3.13519,10.0737s-3.64915,4.57429-3.495,6.78434a5.01641,5.01641,0,0,1-1.28491,4.00892c-.56536.61676,0,0-.15419,2.10726s-.77095,2.67261-.46257,5.191-.257,3.13519-.59764,5.06709"/><path class="cls-10" d="M989.654,51.299s1.60954-.1079,1.60954,3.28427,1.4391,10.896,1.90167,14.80218-.56536,6.63015-.82234,10.63907-.41117,9.25136-.41117,9.25136"/><line class="cls-10" x1="976.17346" y1="53.7355" x2="981.0088" y2="46.92723"/><circle class="cls-8" cx="989.8861" cy="38.00185" r="0.32095"/><circle class="cls-8" cx="994.30808" cy="38.50111" r="0.32095"/><path class="cls-10" d="M985.69974,40.25358s-.34771.72161-.9555.4138"/><path class="cls-10" d="M985.24931,39.08774c-.13248-.159-.7154-1.19233-.7419-.63591s.212,1.4573.58292,1.40431"/><path class="cls-8" d="M990.25157,127.247a11.237,11.237,0,0,0,1.77441-5.71223c.22891-3.66264,2.12812-19.30108,1.808-21.66858l2.198,4.61441s-3.72725,22.40489-5.69337,23.19135Z"/><polygon class="cls-8" points="992.747 90.088 982.28 91.381 981.984 89.188 992.747 90.088"/><path class="cls-1" d="M1033.68905,172.516l14.40024,16.03669c2.90085-8.46187,3.03565-19.17372,1.52347-22.02016a29.70079,29.70079,0,0,0-3.78373-5.2568,62.77287,62.77287,0,0,0-6.15656,4.3882C1036.57719,168.20675,1033.93688,171.48311,1033.68905,172.516Z"/><path class="cls-6" d="M1088.596,119.06618c-3.60682-7.21377-2.9306-19.387-12.17326-21.6413-9.24255-2.25433-12.84949-6.76291-16.231-.90177,0,0-5.185,0-5.63572,3.156-.451,3.156-5.63584,10.3698-5.41047,15.55473.22548,5.18487-1.57793,7.43919,1.12731,12.17321a10.408,10.408,0,0,1,1.36349,5.62743c-.06892,2.03172-.61729,3.3898-.23642,3.3898.15032,0-.22772-.4105,2.55562-.38821.36146.00288,2.67206.65063,5.21145,1.36973.01659-.196.07716-.30818.193-.30818,1.15813,0,6.7555.8686,7.52759-1.54411a5.43187,5.43187,0,0,0-.44309-2.9069c-1.34-3.89253-4.97715-10.06127-7.0845-13.11338-2.79875-4.05332-.57906-4.53588-.193-5.98347.38592-1.4476-.67551-3.37776-.96511-5.40442s3.47427-7.72061,3.47427-7.72061c1.15812-1.83364,5.59737-1.83364,5.59737-1.83364,3.48845,1.73108,16.80237,13.00381,16.0204,19.49454-.69963,5.80628-3.76138,8.54569-4.051,8.73871-.28947.193,1.9909,3.41715,2.40235,3.758l4.64027-.91582c.33735.04216,1.19518.22713,2.34684.51554a7.51566,7.51566,0,0,1,2.21792-3.67675C1094.0062,123.34934,1092.20279,126.27994,1088.596,119.06618Z"/><path class="cls-12" d="M1088.63243,130.18212c-1.15166-.28841-2.00949-.47338-2.34684-.51554l-4.64027.91582c-.41145-.34088-2.69182-3.565-2.40235-3.758.28959-.193,3.35134-2.93243,4.051-8.73871.782-6.49073-11.43839-18.07591-16.0204-19.49454,0,0-4.43925,0-5.59737,1.83364,0,0-3.76386,5.69395-3.47427,7.72061s1.351,3.95682.96511,5.40442c-.386,1.44759-2.60573,1.93015.193,5.98347,2.10735,3.05211,5.74453,9.22085,7.0845,13.11338a5.43187,5.43187,0,0,1,.44309,2.9069c-.77209,2.41271-6.36946,1.54411-7.52759,1.54411-.11586,0-.17643.11216-.193.30818-.14915,1.76348,3.43568,10.6358,5.694,11.8518,2.50915,1.35109,12.5459,5.79045,20.65255.193C1092.39757,144.69734,1088.3913,131.185,1088.63243,130.18212Z"/><path class="cls-12" d="M1104.81515,158.52235s-2.89532,12.4495-3.76386,15.82725c-.86865,3.37776-2.50927,8.78217-.77208,14.86216.24407.854.55883,1.82788.90935,2.86538,12.44392-13.47307,10.28552-22.07892,10.28552-24.00054,0-1.37379-1.55146-7.93275-2.6416-12.07817C1107.68941,157.42415,1106.07125,158.72072,1104.81515,158.52235Z"/><path class="cls-12" d="M1047.29651,190.65936c.28724-.68.54648-1.388.79278-2.10671L1033.68905,172.516c.24783-1.03285,2.88814-4.30921,5.98342-6.85207a62.77287,62.77287,0,0,1,6.15656-4.3882c-.45521-.51584-.75209-.82319-.75209-.82319s-13.3588-6.90212-16.45-9.3163c-2.35225,3.75286-6.84572,10.80024-10.18624,15.29978-4.72884,6.36952,9.74727,18.33641,13.3181,20.74912a38.25733,38.25733,0,0,1,9.84372,9.55425c2.99177,4.14983-.28947,10.22982-.28947,12.25648s2.8952,3.18473,2.8952,3.18473l.48261-4.14983A37.88928,37.88928,0,0,1,1047.29651,190.65936Z"/><path class="cls-3" d="M1101.91983,135.457c-1.28222-1.88569-9.1668-4.24293-13.2874-5.27491-.24113,1.00286,3.76514,14.51522-3.11892,19.26853-8.10665,5.59743-18.1434,1.15807-20.65255-.193-2.25827-1.216-5.8431-10.08832-5.694-11.8518-2.53939-.7191-4.85-1.36685-5.21145-1.36973-2.78334-.02229-2.4053.38821-2.55562.38821-.38087,0,.1675-1.35808.23642-3.3898-2.92672.11209-5.41023.24389-6.75256.39586-5.11476.57906-16.59922,15.92377-16.8887,16.98533-.03564.13056.19832.38192.63188.7205,3.09116,2.41418,16.45,9.3163,16.45,9.3163s.29688.30735.75209.82319a29.70079,29.70079,0,0,1,3.78373,5.2568c1.51218,2.84644,1.37738,13.55829-1.52347,22.02016-.2463.71874-.50554,1.42672-.79278,2.10671a37.88928,37.88928,0,0,0-2.60561,17.37137s.22443-.0667.63411-.16874a46.32839,46.32839,0,0,1,22.33458.36176c10.23494,2.79857,29.797,1.954,36.20939,1.58186,1.32691-.077,2.10417-.13426,2.10417-.13426.99546-2.23968-2.63948-11.24539-4.78459-17.59421-.35052-1.0375-.66528-2.01137-.90935-2.86538-1.73719-6.08-.09657-11.4844.77208-14.86216.86854-3.37775,3.76386-15.82725,3.76386-15.82725,1.2561.19837,2.87426-1.0982,4.01733-2.52392a8.55159,8.55159,0,0,0,1.194-1.91545C1110.79856,152.24934,1103.56057,137.86974,1101.91983,135.457Z"/><path class="cls-12" d="M1103.869,209.80561c-6.4124.37211-25.97445,1.21671-36.20939-1.58186a46.32839,46.32839,0,0,0-22.33458-.36176c-.569,5.73247-2.13617,21.68653.17844,30.82933,1.6178,6.39052,11.65489,40.12033,19.95257,67.82956l-5.52575,34.9964s.39781.05516,1.04356.13985c2.63784.34588,9.4738,1.19106,10.83718.85025a.64675.64675,0,0,0,.07328-.03111c.7168-.29042,1.87669-2.30538,2.9793-4.61892,1.279,4.2504,2.03925,6.77155,2.03925,6.77155s.793-.04669,1.96844-.123c2.86873-.18626,8.02407-.54966,9.58777-.84831.29441-.05622.466-.11021.466-.1602,0-.42433-5.79887-47.382-5.79887-47.382s17.397-49.07923,18.66988-55.58543C1102.988,234.43821,1106.03914,214.83269,1103.869,209.80561Z"/><path class="cls-10" d="M1087.11461,118.43659c-3.60682-7.21377-2.9306-19.387-12.17327-21.6413-9.24254-2.25432-12.84948-6.76291-16.23094-.90176,0,0-5.185,0-5.63572,3.156-.451,3.156-5.63584,10.36979-5.41047,15.55472.22548,5.18487-1.57793,7.43919,1.12731,12.17321a10.408,10.408,0,0,1,1.36349,5.62743c-.06892,2.03172-.61729,3.38981-.23642,3.38981.15032,0-.22772-.41051,2.55562-.38822.36146.00288,2.67206.65064,5.21145,1.36973.01658-.196.07716-.30818.193-.30818,1.15813,0,6.7555.8686,7.52759-1.54411a5.43187,5.43187,0,0,0-.44309-2.9069c-1.34-3.89253-4.97715-10.06127-7.0845-13.11337-2.79875-4.05333-.57906-4.53588-.193-5.98348.38592-1.4476-.67552-3.37775-.96511-5.40442s3.47427-7.7206,3.47427-7.7206c1.15812-1.83365,5.59737-1.83365,5.59737-1.83365,6.37581,2.20444,16.80236,13.00381,16.0204,19.49455-.69963,5.80627-3.76138,8.54568-4.051,8.7387-.28948.193,1.9909,3.41715,2.40235,3.758l4.64027-.91582c.33735.04217,1.19518.22713,2.34684.51554a7.51571,7.51571,0,0,1,2.21791-3.67675C1092.52485,122.71975,1090.72144,125.65036,1087.11461,118.43659Z"/><path class="cls-10" d="M1087.15108,129.55253c-1.15166-.28841-2.00949-.47337-2.34684-.51554l-4.64027.91582c-.41145-.34088-2.69183-3.565-2.40235-3.758.28959-.193,3.35134-2.93243,4.051-8.7387.782-6.49074-10.11326-17.29011-16.0204-19.49455,0,0-4.43925,0-5.59737,1.83365,0,0-3.76386,5.69394-3.47427,7.7206s1.351,3.95682.96511,5.40442c-.386,1.4476-2.60573,1.93015.193,5.98348,2.10735,3.0521,5.74452,9.22084,7.0845,13.11337a5.43187,5.43187,0,0,1,.44309,2.9069c-.77209,2.41271-6.36946,1.54411-7.52759,1.54411-.11586,0-.17644.11216-.193.30818-.14915,1.76348,3.43568,10.6358,5.69394,11.8518,2.50916,1.35109,12.54591,5.79046,20.65256.193C1090.91622,144.06776,1086.91,130.5554,1087.15108,129.55253Z"/><path class="cls-10" d="M1103.33379,157.89276s-2.89531,12.44951-3.76385,15.82726c-.86865,3.37775-2.50927,8.78216-.77208,14.86215.24407.854.55883,1.82788.90935,2.86538,12.44392-13.47307,10.28552-22.07892,10.28552-24.00054,0-1.37379-1.55146-7.93274-2.6416-12.07817C1106.20806,156.79456,1104.5899,158.09113,1103.33379,157.89276Z"/><path class="cls-10" d="M1045.81516,190.02977c.28723-.68.54648-1.388.79278-2.10671l-14.40024-16.03668c.24783-1.03286,2.88814-4.30922,5.98342-6.85208a62.77287,62.77287,0,0,1,6.15656-4.3882c-.45521-.51584-.75209-.82319-.75209-.82319s-13.3588-6.90212-16.45-9.3163c-2.35225,3.75286-6.84572,10.80025-10.18624,15.29978-4.72884,6.36952,9.74727,18.33641,13.3181,20.74912a38.25733,38.25733,0,0,1,9.84372,9.55425c2.99177,4.14983-.28947,10.22982-.28947,12.25648s2.8952,3.18473,2.8952,3.18473l.48261-4.14983A37.88928,37.88928,0,0,1,1045.81516,190.02977Z"/><path class="cls-10" d="M1100.43848,134.82744c-1.28222-1.88569-9.1668-4.24293-13.2874-5.27491-.24113,1.00287,3.76514,14.51523-3.11892,19.26853-8.10665,5.59744-18.1434,1.15807-20.65256-.193-2.25826-1.216-5.84309-10.08832-5.69394-11.8518-2.53939-.71909-4.85-1.36685-5.21145-1.36973-2.78334-.02229-2.4053.38822-2.55562.38822-.38087,0,.1675-1.35809.23642-3.38981-2.92672.11209-5.41023.24389-6.75256.39586-5.11476.57906-16.59922,15.92377-16.8887,16.98533-.03564.13056.19832.38192.63188.7205,3.09116,2.41418,16.45,9.3163,16.45,9.3163s.29688.30735.75209.82319a29.70079,29.70079,0,0,1,3.78373,5.2568c1.51217,2.84644,1.37738,13.55829-1.52347,22.02016-.2463.71875-.50555,1.42673-.79278,2.10671a37.88928,37.88928,0,0,0-2.60561,17.37137s.22442-.06669.63411-.16873a46.3283,46.3283,0,0,1,22.33457.36175c10.23494,2.79857,29.797,1.954,36.2094,1.58187,1.32691-.077,2.10417-.13427,2.10417-.13427.99546-2.23968-2.63948-11.24539-4.78459-17.59421-.35052-1.0375-.66528-2.01137-.90935-2.86538-1.73719-6.08-.09657-11.4844.77208-14.86215.86854-3.37775,3.76385-15.82726,3.76385-15.82726,1.25611.19837,2.87427-1.0982,4.01734-2.52392a8.55137,8.55137,0,0,0,1.194-1.91545C1109.31721,151.61975,1102.07922,137.24015,1100.43848,134.82744Z"/><path class="cls-10" d="M1102.38763,209.176c-6.4124.3721-25.97446,1.2167-36.2094-1.58187a46.3283,46.3283,0,0,0-22.33457-.36175c-.569,5.73246-2.13617,21.68652.17844,30.82932,1.6178,6.39052,11.65489,40.12034,19.95257,67.82957l-5.52575,34.99639s.39781.05517,1.04356.13985c2.63784.34588,9.4738,1.19107,10.83718.85025a.64675.64675,0,0,0,.07328-.03111c.7168-.29042,1.87669-2.30537,2.9793-4.61892,1.279,4.2504,2.03925,6.77156,2.03925,6.77156s.793-.0467,1.96843-.123c2.86874-.18626,8.02408-.54966,9.58778-.8483.29441-.05623.466-.11022.466-.16021,0-.42433-5.79886-47.382-5.79886-47.382s17.39695-49.07923,18.66988-55.58543C1101.50662,233.80862,1104.55779,214.2031,1102.38763,209.176Z"/><path class="cls-10" d="M1070.65141,113.28273c.25135.08378,2.34593,1.0054,2.09458,2.42972s-2.84864.83783-2.84864.83783"/><path class="cls-10" d="M1076.6,121.07459s-2.34594,3.5189-7.20538,1.67566"/><circle class="cls-8" cx="1065.2098" cy="112.04188" r="0.85852"/><circle class="cls-8" cx="1074.82523" cy="109.80973" r="0.85852"/><path class="cls-10" d="M1077.76162,126.19478s-1.21895,5.03185-8.43588,1.70977"/><path class="cls-10" d="M1032.2077,171.88638s-5.9551-2.33454-8.86142-.59075"/><line class="cls-10" x1="1100.00288" y1="172.32428" x2="1106.5777" y2="172.09757"/><path class="cls-10" d="M1081.64486,295.48586s-4.394-55.71287-5.729-63.05538"/><path class="cls-8" d="M108.66123,261.631S104.07,290.529,109.74152,295.1202s64.54766,3.781,64.54766,3.781l6.48178-14.31392s4.59125-25.38695-10.803-29.70813S108.66123,261.631,108.66123,261.631Z"/><polygon class="cls-8" points="26.289 278.106 23.048 299.171 100.289 297.281 94.077 275.405 26.289 278.106"/><path class="cls-9" d="M135.96959,140.87661a3.979,3.979,0,0,0,.6383.13438Z"/><path class="cls-3" d="M145.94366,166.58921a15.518,15.518,0,0,1-2.14777-6.0651,8.449,8.449,0,0,1-1.08966,1.70917c-.64821.75623-1.404,1.59558-2.25287,2.42393-2.98467,2.91235-7.18749,5.68164-12.50518,4.16232-2.72192-.77767-4.97718-3.04771-6.73074-5.55017a6.19079,6.19079,0,0,0,.14449,6.038c2.19546,3.781,11.343,13.29445,28.05249,1.34166A15.62916,15.62916,0,0,1,145.94366,166.58921Z"/><path class="cls-3" d="M149.61645,144.67s.97575-.85375-1.21971-1.95151c-2.1954-1.0977-.12195-2.80525-.24389-5.36654-.122-2.5613-4.025-1.34166-6.7082-2.07345-2.6833-.7318.85375-1.70755.85375-4.0249s-4.63475-4.87869-4.5128-3.4151.12194,1.58561-1.0977,3.17115c-1.21964,1.58561,0,1.58561-1.0977,5.6105-.81208,2.97754,1.11027,3.95057,2.16695,4.25647l.6383.13438a3.97926,3.97926,0,0,1-.6383-.13438l-1.67911-.35352c-4.63474-1.0977-2.56129-3.781-2.56129-6.83015a4.84322,4.84322,0,0,0-2.5613-4.26884c-2.19546,3.78094-6.22035,5.36654-9.75739,8.17179s-.97576,1.4636-1.34166,4.75669c-.3659,3.29316-2.3174,2.56136-2.3174,2.56136s.57713,7.01358.96253,9.18131a3.36091,3.36091,0,0,0,.13523.57609,46.19785,46.19785,0,0,0,2.75763,6.02039,30.2102,30.2102,0,0,0,1.61061,2.57763c1.75356,2.50246,4.00883,4.7725,6.73075,5.55017,5.31769,1.51932,9.52051-1.25,12.50517-4.16232.84889-.82835,1.60466-1.6677,2.25287-2.42393a8.44853,8.44853,0,0,0,1.08966-1.70917,16.06489,16.06489,0,0,0,.77871-1.85995,41.705,41.705,0,0,0,1.79069-8.87152c2.56129,3.17115,3.903.12195,4.26884-3.17115C152.78759,143.32833,149.61645,144.67,149.61645,144.67Z"/><path class="cls-7" d="M76.8664,113.36147a32.11556,32.11556,0,0,0-8.64513-5.02352c-3.73849-1.40191-4.43945,0-11.21536,1.05143-6.776,1.05144-10.28075,9.93021-10.9817,12.03314-.48856,1.46567.61069,7.40818,1.36206,11.39316.3267,1.73256.5886,3.10033.624,3.56057.11682,1.5188,1.05143-3.27113,2.10287-4.08891,1.05149-.81778,1.402-3.85526,1.16832-6.65908s2.57017-4.90676,4.32256-5.84137,10.39758-.58413,10.39758-.58413,7.94417-1.16826,8.17782,2.80389c.23365,3.97209,2.80382,3.1543,2.80382,5.72448s-.11611,11.09205,0,10.0471a8.08538,8.08538,0,0,1,.39564-1.31373c.83781-2.34928,2.77791-6.99738,3.57645-9.78481C81.9805,123.101,80.32381,116.12849,76.8664,113.36147Z"/><path class="cls-5" d="M76.32309,140.02137l.162-2.36516a8.08566,8.08566,0,0,0-.39564,1.31372c-.11611,1.045,0-7.47692,0-10.0471s-2.57017-1.75238-2.80382-5.72447c-.23366-3.97215-8.17782-2.80389-8.17782-2.80389s-8.64519-.35047-10.39758.58413S50.154,124.01614,50.38766,126.82s-.11683,5.8413-1.16833,6.65908c-1.05143.81778-1.986,5.60771-2.10286,4.08891-.03538-.46024-.29728-1.828-.624-3.56057-2.56149-1.91723-4.22569.36927-3.69858,5.42985.58413,5.60765,3.97208,6.3086,3.97208,6.3086a18.84613,18.84613,0,0,0,1.5764,5.22989c2.54432,5.47663,7.48821,9.37342,12.44278,9.37342,3.672,0,7.91391-4.11949,10.87719-7.651a56.48039,56.48039,0,0,0,3.72612-4.96624c1.28509,1.986,4.90676-5.25717,4.78987-7.59369C80.06152,137.80167,76.32309,140.02137,76.32309,140.02137Z"/><path class="cls-3" d="M93.43527,222.04164q.05958-.77454.12156-1.47546a10.45876,10.45876,0,0,1-2.79346-3.94642,4.39855,4.39855,0,0,1-.88614,1.30653c-1.87064,1.62118-4.24014-.62359-5.23779-1.37178-.99766-.74826,1.49651-1.12238,1.37178-2.86836-.12467-1.74591-3.74122,1.12239-7.2331,1.87064-3.49182.74826-3.74129-1.49651-7.35784-1.87064S48.34919,226.03232,35.13,229.27481A56.34855,56.34855,0,0,1,28.88,230.465s-10.81683,43.08683-4.95362,49.815c12.51074,14.35644,76.10309-.46079,76.10309-.46079l.93629-.60557C99.24475,271.12622,92.8851,229.19407,93.43527,222.04164Z"/><path class="cls-3" d="M109.55026,206.349c-3.08153-10.92527-10.92527-30.81485-20.16975-33.056-4.81248-1.16664-11.51964-3.09164-16.84776-4.67006-.00324,2.19378-.01743,4.18688-.05682,5.73069a10.77156,10.77156,0,0,1-.28257,3.18074c-14.20178,7.10092-23.36533-9.22931-23.36533-9.22931l.1224-5.01918c-2.70274,1.18238-6.93731,3.03637-10.27661,4.50535-1.99336,1.05435-4.465,2.5173-4.65677,3.38627-.32456,1.47046.21143,3.59465-2.74888,4.65191a41.17594,41.17594,0,0,1-6.55508,1.90311c-2.05369.41073-3.70986-1.37528-5.54694-3.41543a12.30824,12.30824,0,0,0-3.86731,5.32015c-3.85525,9.93027-9.34608,28.6225-8.76195,34.69751.58413,6.075.701,16.58936,11.56578,16.93983-2.92473-17.37493,14.13024-24.36531,14.13024-24.36531,10.696,4.52991,49.1641-3.28285,53.65364-3.90638,4.48948-.62352,5.48713.62353,6.73425,3.11769a5.689,5.689,0,0,1,.36674,2.36341c.67406-.0171,2.7122-.06868,5.30078-.13237,3.55337-.08741,8.13324-.1975,11.6384-.27292A16.716,16.716,0,0,0,109.55026,206.349Z"/><path class="cls-5" d="M72.55615,151.50641c-2.96329,3.53154-7.20518,7.651-10.8772,7.651-4.95457,0-9.89846-3.8968-12.44277-9.37343l-.28575,11.71429-.1224,5.01917s9.16355,16.33024,23.36533,9.22932a10.77156,10.77156,0,0,0,.28257-3.18074c.03939-1.54381.05358-3.53692.05682-5.73069l.00026-.23851C72.53852,161.5388,72.48992,155.5015,72.55615,151.50641Z"/><path class="cls-5" d="M91.5026,208.079c-1.24712-2.49417-2.24477-3.74122-6.73424-3.11769-4.48954.62352-42.95762,8.43629-53.65365,3.90638,0,0-17.055,6.99038-14.13024,24.36531,0,0,2.57017,2.03108,10.77728.978a56.34812,56.34812,0,0,0,6.25009-1.19022C47.231,229.77831,66.68553,217.058,70.30209,217.43214s3.866,2.6189,7.35783,1.87064c3.49188-.74825,7.10844-3.61655,7.2331-1.87064.12473,1.746-2.36943,2.1201-1.37178,2.86836.99765.74819,3.36715,2.993,5.2378,1.37178a4.39892,4.39892,0,0,0,.88614-1.30653,26.95263,26.95263,0,0,0,2.22416-9.92334A5.68891,5.68891,0,0,0,91.5026,208.079Z"/><path class="cls-5" d="M105.38425,219.07006a3.963,3.963,0,0,0-.22044-.9731,14.821,14.821,0,0,1-5.8087-.17067,9.35966,9.35966,0,0,1-3.866,2.993,1.87376,1.87376,0,0,1-1.93226-.35314q-.06191.70155-.12156,1.47546c-.55017,7.15243,5.80948,49.08458,7.53044,57.17208C100.96571,279.21372,105.75015,225.65631,105.38425,219.07006Z"/><path class="cls-7" d="M170.27081,236.48341s1.58567-1.8295,4.75676-10.1233c3.17108-8.29374-.24389-37.44393-2.68331-44.762-2.43928-7.318-6.22035-8.04985-10.855-8.78165-2.26576-.35774-8.75929-2.63983-15.54557-5.03557a15.62916,15.62916,0,0,0,3.47076,4.05982c-16.70948,11.95279-25.857,2.43935-28.05249-1.34166a6.19079,6.19079,0,0,1-.14449-6.038,30.21036,30.21036,0,0,1-1.61062-2.57763,160.44473,160.44473,0,0,0-22.63832,4.10284c-6.67373,1.71617-17.42839,1.79237-24.43549,1.80229l-.00026.23851c5.32812,1.57841,12.03528,3.50342,16.84776,4.67006,9.24448,2.24114,17.08822,22.13071,20.16975,33.056a16.7166,16.7166,0,0,1,.37646,1.72971c2.4135-.0519,4.31945-.08747,5.017-.08747,2.61883,0,4.70738,1.48744,4.6142,1.87064-1.12238,4.61421-2.74363,6.48485-2.74363,6.48485l-4.90338-1.48239-.45908-.13879-.92774,1.42251-.9429,1.44578a7.94733,7.94733,0,0,1-4.41736,2.29071,3.963,3.963,0,0,1,.22044.9731c.3659,6.58625-1.34166,31.95544-1.0977,37.2.102,2.19358.23488,3.51294,2.73559,4.96533a34.82891,34.82891,0,0,0,6.18835,2.52559c4.88667,1.62241,12.48547,3.74076,24.37315,7.02316,32.68717,9.02561,46.95744-10.85509,46.95744-10.85509Z"/><path class="cls-3" d="M114.34784,207.69329c-.69752,0-2.60347.03557-5.017.08747-3.50517.07542-8.085.18551-11.63841.27292-2.58857.06369-4.62671.11527-5.30078.13238a26.95243,26.95243,0,0,1-2.22416,9.92334,10.45873,10.45873,0,0,0,2.79346,3.94642,1.87376,1.87376,0,0,0,1.93226.35313,9.35952,9.35952,0,0,0,3.866-2.993,14.82128,14.82128,0,0,0,5.80871.17067,7.94739,7.94739,0,0,0,4.41736-2.29071l.9429-1.44578.92774-1.42251.45907.13879,4.90339,1.48238s1.62124-1.87064,2.74363-6.48484C119.05522,209.18073,116.96668,207.69329,114.34784,207.69329Z"/><path class="cls-3" d="M36.343,165.16086s-10.57266-.63441-13.533,1.69161c-2.96037,2.326-5.70925,3.38323-3.80621,5.49776.05475.06084.10788.11883.16231.17929,1.83708,2.04014,3.49325,3.82616,5.54694,3.41542a41.17576,41.17576,0,0,0,6.55508-1.9031c2.96031-1.05727,2.42432-3.18145,2.74888-4.65192.19173-.869,2.66341-2.33192,4.65677-3.38626,1.37989-.72986,2.53259-1.26572,2.53259-1.26572A30.74211,30.74211,0,0,1,36.343,165.16086Z"/><path class="cls-8" d="M117.73045,141.52842c.3659-3.29309-2.19539-1.95144,1.34165-4.75669s7.56194-4.39085,9.7574-8.17179a4.84323,4.84323,0,0,1,2.5613,4.26885c0,3.04913-2.07345,5.73244,2.56129,6.83014l1.67911.35352c-1.05668-.3059-2.979-1.27893-2.167-4.25647,1.0977-4.02489-.12195-4.02489,1.0977-5.6105,1.21964-1.58554,1.21964-1.70755,1.09769-3.17115s4.51281,1.0977,4.51281,3.41511c0,2.31734-3.537,3.29309-.85375,4.02489,2.68324.7318,6.58619-.48785,6.7082,2.07345.12194,2.56129-1.95151,4.26884.24389,5.36654,2.19546,1.09776,1.2197,1.95151,1.2197,1.95151s3.17115-1.34166,2.80525,1.9515c-.3659,3.2931-1.70755,6.3423-4.26884,3.17115a41.705,41.705,0,0,1-1.79069,8.87152c1.84894,1.15977,8.04272,4.91576,7.5232,2.83732-.60986-2.43935-.97582-2.80525,1.82943-4.8787s4.75675-2.6833,5.00064-5.36654c.244-2.68331,5.12259-1.21971,3.17121-4.63475-1.9515-3.4151-.97581-3.903.60986-5.7325,1.58554-1.8295-2.19553-3.17115-3.04927-7.56194-.85374-4.39086,2.19553-5.36661.12207-6.46431s-1.58567-3.537-1.34178-5.85439c.244-2.3174-4.75675-1.0977-7.56187-2.3174-2.80532-1.21965-.73186-6.95215-3.781-6.3423-3.04921.60985-5.9764-2.80525-7.684-4.1469s0,1.9515-1.95151,2.56129c-1.95144.60986-2.07345-3.17114-3.29309-1.70748-1.21971,1.46359-3.29309-.85381-6.22035.60979-2.9272,1.46366-4.39079,3.0492-5.85439,3.0492-1.46366,0-.85381.3659-.85381,1.95151,0,1.58554-2.6833.97568-4.1469,1.82949-1.4636.85374,2.3174,2.9272-.85374,3.903s-8.29381,5.6105-9.0256,7.56194c-.7318,1.9515,1.5856-2.07339,2.07345.48791s-1.21965,5.36654-1.8295,8.6597c-.60985,3.29309,1.58554,2.80518,1.95144,3.537.3659.73179-1.8295,1.82949-1.95144,4.51273-.122,2.68331,2.43935,1.70755,3.659,2.43935,1.21971.7318-.24389,4.75676.3659,5.9764.42337.84681,3.4304.69415,5.23138.52167-.3854-2.16773-.96253-9.18131-.96253-9.18131S117.36455,144.82158,117.73045,141.52842Z"/><path class="cls-9" d="M135.6312,140.05245a3.97926,3.97926,0,0,0,.6383.13438Z"/><path class="cls-10" d="M145.60527,165.76505A15.518,15.518,0,0,1,143.4575,159.7a8.44853,8.44853,0,0,1-1.08966,1.70917c-.64821.75623-1.404,1.59559-2.25287,2.42393-2.98467,2.91235-7.18749,5.68164-12.50517,4.16232-2.72193-.77767-4.97719-3.04771-6.73075-5.55017a6.19082,6.19082,0,0,0,.1445,6.038c2.19546,3.781,11.343,13.29444,28.05249,1.34165A15.62908,15.62908,0,0,1,145.60527,165.76505Z"/><path class="cls-10" d="M147.49049,143.84583s.97576-.85375-1.2197-1.95151c-2.1954-1.0977-.12195-2.80525-.24389-5.36654-.122-2.5613-4.025-1.34165-6.7082-2.07345-2.6833-.7318.85375-1.70755.85375-4.02489,0-2.31741-4.63475-4.8787-4.51281-3.41511s.12195,1.58561-1.09769,3.17115c-1.21965,1.58561,0,1.58561-1.0977,5.6105-.81208,2.97754,1.11027,3.95057,2.167,4.25647l.6383.13438a3.97926,3.97926,0,0,1-.6383-.13438l-1.67911-.35352c-4.63474-1.0977-2.56129-3.781-2.56129-6.83014a4.84323,4.84323,0,0,0-2.5613-4.26885c-2.19546,3.78094-6.22035,5.36654-9.7574,8.17179s-.97575,1.4636-1.34165,4.75669c-.3659,3.29316-2.3174,2.56136-2.3174,2.56136s.57713,7.01358.96253,9.18131a3.36091,3.36091,0,0,0,.13523.57609,46.19864,46.19864,0,0,0,2.75762,6.02039,30.21287,30.21287,0,0,0,1.61062,2.57763c1.75356,2.50246,4.00882,4.7725,6.73075,5.55017,5.31768,1.51932,9.5205-1.25,12.50517-4.16232.84889-.82834,1.60466-1.6677,2.25287-2.42393A8.44853,8.44853,0,0,0,143.4575,159.7a16.06489,16.06489,0,0,0,.77871-1.85995,41.705,41.705,0,0,0,1.79069-8.87152c2.56129,3.17115,3.90294.12195,4.26884-3.17115C150.66164,142.50417,147.49049,143.84583,147.49049,143.84583Z"/><path class="cls-10" d="M76.528,112.53731a32.11548,32.11548,0,0,0-8.64512-5.02352c-3.7385-1.40191-4.43946,0-11.21536,1.05143-6.776,1.05144-10.28076,9.93021-10.98171,12.03314-.48856,1.46567.6107,7.40818,1.36206,11.39316.3267,1.73256.5886,3.10033.624,3.56057.11683,1.5188,1.05143-3.27113,2.10287-4.08891,1.0515-.81778,1.402-3.85526,1.16832-6.65908s2.57017-4.90676,4.32256-5.84137,10.39758-.58412,10.39758-.58412,7.94417-1.16826,8.17782,2.80388c.23365,3.97209,2.80382,3.1543,2.80382,5.72448s-.11611,11.09205,0,10.0471a8.08644,8.08644,0,0,1,.39564-1.31373c.83781-2.34928,2.77791-6.99738,3.57645-9.78481C81.64211,122.27682,79.98542,115.30433,76.528,112.53731Z"/><path class="cls-10" d="M76.87849,138.0055l.162-2.36516a8.08644,8.08644,0,0,0-.39564,1.31373c-.11611,1.045,0-7.47693,0-10.0471s-2.57017-1.75239-2.80382-5.72448c-.23365-3.97214-8.17782-2.80388-8.17782-2.80388s-8.64519-.35048-10.39758.58412-4.55621,3.03755-4.32256,5.84137-.11682,5.8413-1.16832,6.65908c-1.05144.81778-1.986,5.60771-2.10287,4.08891-.03538-.46024-.29728-1.828-.624-3.56057-2.56149-1.91723-4.22569.36927-3.69858,5.42985.58413,5.60765,3.97208,6.3086,3.97208,6.3086a18.84581,18.84581,0,0,0,1.57641,5.22989c2.54432,5.47663,7.4882,9.37343,12.44278,9.37343,3.672,0,7.9139-4.1195,10.87719-7.651a56.48283,56.48283,0,0,0,3.72612-4.96624c1.28508,1.986,4.90675-5.25716,4.78986-7.59368C80.61692,135.78581,76.87849,138.0055,76.87849,138.0055Z"/><path class="cls-10" d="M93.09689,221.21748q.05958-.77452.12155-1.47546A10.45863,10.45863,0,0,1,90.425,215.7956a4.39892,4.39892,0,0,1-.88614,1.30653c-1.87065,1.62118-4.24015-.62359-5.2378-1.37178-.99765-.74826,1.49651-1.12238,1.37178-2.86836-.12466-1.74591-3.74122,1.12239-7.2331,1.87064-3.49182.74826-3.74128-1.49651-7.35783-1.87064s-23.07109,12.34617-36.29025,15.58866a56.34812,56.34812,0,0,1-6.25009,1.19022s-10.81683,43.08683-4.95361,49.815c12.51073,14.35644,76.10308-.46078,76.10308-.46078l.93629-.60558C98.90636,270.30206,92.54671,228.36991,93.09689,221.21748Z"/><path class="cls-10" d="M109.21188,203.73725c-3.08154-10.92527-10.92528-30.81484-20.16976-33.056-4.81247-1.16664-11.51963-3.09165-16.84775-4.67006-.00324,2.19377-.01743,4.18688-.05683,5.73069a10.77156,10.77156,0,0,1-.28257,3.18074c-14.20178,7.10092-23.36533-9.22932-23.36533-9.22932l.1224-5.01917c-2.70274,1.18238-6.93731,3.03637-10.2766,4.50535-1.99337,1.05435-4.465,2.51729-4.65678,3.38626-.32456,1.47047.21143,3.59466-2.74888,4.65192a41.1747,41.1747,0,0,1-6.55508,1.9031c-2.05369.41074-3.70986-1.37528-5.54693-3.41542a12.30817,12.30817,0,0,0-3.86731,5.32015C11.1052,186.95578,5.61438,205.648,6.19851,211.723c.58413,6.075.701,16.58935,11.56577,16.93983-2.92473-17.37493,14.13024-24.36531,14.13024-24.36531,10.696,4.52991,49.16411-3.28286,53.65365-3.90638,4.48947-.62353,5.48712.62352,6.73424,3.11769a5.68891,5.68891,0,0,1,.36674,2.36341c.67407-.01711,2.7122-.06868,5.30078-.13238,3.55337-.08741,8.13324-.19749,11.63841-.27291A16.71886,16.71886,0,0,0,109.21188,203.73725Z"/><path class="cls-10" d="M72.21776,150.68225c-2.96329,3.53154-7.20518,7.651-10.87719,7.651-4.95458,0-9.89846-3.8968-12.44278-9.37343L48.612,160.67415l-.1224,5.01917s9.16355,16.33024,23.36533,9.22932a10.77156,10.77156,0,0,0,.28257-3.18074c.0394-1.54381.05359-3.53692.05683-5.73069l.00026-.23851C72.20013,160.71464,72.15154,154.67734,72.21776,150.68225Z"/><path class="cls-10" d="M92.28238,203.50886c-1.24711-2.49417-2.24477-3.74122-6.73424-3.11769-4.48954.62352-42.95762,8.43629-53.65364,3.90638,0,0-17.055,6.99038-14.13025,24.36531,0,0,2.57018,2.03108,10.77728.978a56.34769,56.34769,0,0,0,6.25009-1.19022c13.21916-3.24249,32.6737-15.96279,36.29025-15.58866s3.866,2.6189,7.35783,1.87064c3.49189-.74825,7.10844-3.61655,7.23311-1.87064.12473,1.746-2.36944,2.12011-1.37178,2.86836.99765.74819,3.36715,2.993,5.23779,1.37178a4.39855,4.39855,0,0,0,.88614-1.30653,26.95264,26.95264,0,0,0,2.22417-9.92334A5.68875,5.68875,0,0,0,92.28238,203.50886Z"/><path class="cls-10" d="M105.04586,218.2459a3.96291,3.96291,0,0,0-.22043-.9731,14.82106,14.82106,0,0,1-5.80871-.17067,9.35966,9.35966,0,0,1-3.866,2.993,1.87377,1.87377,0,0,1-1.93226-.35314q-.0619.70155-.12155,1.47546c-.55018,7.15243,5.80947,49.08458,7.53043,57.17208C100.62732,278.38956,105.41176,224.83215,105.04586,218.2459Z"/><path class="cls-10" d="M169.93242,234.46754s1.58567-1.82949,4.75676-10.1233c3.17108-8.29374-.24389-37.44392-2.68331-44.762-2.43928-7.318-6.22035-8.04985-10.855-8.78165-2.26576-.35773-8.75929-2.63983-15.54557-5.03557a15.62908,15.62908,0,0,0,3.47077,4.05982c-16.70949,11.95279-25.857,2.43935-28.05249-1.34165a6.19082,6.19082,0,0,1-.1445-6.038,30.21287,30.21287,0,0,1-1.61062-2.57763,160.445,160.445,0,0,0-22.63832,4.10284c-6.67372,1.71617-17.42839,1.79237-24.43548,1.80229l-.00026.23851c5.32812,1.57841,12.03528,3.50342,16.84775,4.67006,9.24448,2.24114,17.08822,22.13071,20.16976,33.056a16.71886,16.71886,0,0,1,.37646,1.72972c2.41349-.05191,4.31945-.08748,5.017-.08748,2.61883,0,4.70738,1.48744,4.6142,1.87064-1.12238,4.61421-2.74362,6.48485-2.74362,6.48485l-4.90339-1.48239-.45908-.13879-.92774,1.42252-.9429,1.44577a7.94721,7.94721,0,0,1-4.41735,2.29071,3.96291,3.96291,0,0,1,.22043.9731c.3659,6.58625-1.34165,31.95544-1.0977,37.2.10205,2.19358.23488,3.51294,2.7356,4.96533a34.82873,34.82873,0,0,0,6.18834,2.52559c4.88667,1.62241,12.48548,3.74076,24.37315,7.02317,32.68717,9.0256,46.95744-10.8551,46.95744-10.8551Z"/><path class="cls-10" d="M114.60531,205.37949c-.69752,0-2.60348.03557-5.017.08748-3.50517.07542-8.085.1855-11.63841.27291-2.58858.0637-4.62671.11527-5.30078.13238A26.95263,26.95263,0,0,1,90.425,215.7956a10.45863,10.45863,0,0,0,2.79345,3.94642,1.87377,1.87377,0,0,0,1.93226.35314,9.35966,9.35966,0,0,0,3.866-2.993,14.82106,14.82106,0,0,0,5.80871.17067,7.94721,7.94721,0,0,0,4.41735-2.29071l.9429-1.44577.92774-1.42252.45908.13879,4.90339,1.48239s1.62124-1.87064,2.74362-6.48485C119.31269,206.86693,117.22414,205.37949,114.60531,205.37949Z"/><path class="cls-10" d="M36.00462,164.3367s-10.57266-.63441-13.533,1.69161c-2.96037,2.326-5.70925,3.38323-3.80621,5.49776.05475.06084.10789.11883.16232.17929,1.83707,2.04014,3.49324,3.82616,5.54693,3.41542a41.1747,41.1747,0,0,0,6.55508-1.9031c2.96031-1.05726,2.42432-3.18145,2.74888-4.65192.19173-.869,2.66341-2.33191,4.65678-3.38626,1.37988-.72986,2.53259-1.26572,2.53259-1.26572A30.74232,30.74232,0,0,1,36.00462,164.3367Z"/><path class="cls-8" d="M48.90438,166.54937s-4.84188-4.89737-3.0317-4.89737a8.59617,8.59617,0,0,0,2.73936-.97785Z"/><path class="cls-8" d="M71.855,174.92264c2.11927-1.72684,4.33475-4.17553,4.10154-7.79025l-3.76214-1.12118Z"/><path class="cls-8" d="M145.60527,165.76505c.35409-.602,6.61026,2.41677,6.61026,2.41677l-3.23111,2.3086S145.175,166.49659,145.60527,165.76505Z"/><path class="cls-10" d="M155.61828,185.0007s-.6172,9.87513-.70537,15.16538,1.49891,11.90305-.96988,11.81488-22.83623-1.23439-30.94794-6.43646l-2.80706-1.22359a.48639.48639,0,0,0-.67956.412l-.48019,3.36791"/><path class="cls-10" d="M169.93242,234.46754c-12.66611,15.7856-32.65366,3.34746-40.85355.61417s-20.36745-9.9633-20.36745-9.9633c4.32037-1.23439,9.29659-13.99732,9.29659-13.99732"/><path class="cls-8" d="M114.178,212.86267s-8.288,12.43208-5.46659,12.25574,7.76447-11.38343,7.76447-11.38343Z"/><path class="cls-8" d="M119.788,204.04789s-.0722-.752-2.24844,1.03053c-1.48574,1.217.64144.98609.64144.98609l.43594.13813Z"/><path class="cls-10" d="M99.01672,217.10213s.25074-2.5192-1.01155-2.7997l-1.26228-.28051,6.17116.42076"/><path class="cls-10" d="M105.15811,179.09877a119.132,119.132,0,0,0,.2805,13.32409"/><path class="cls-10" d="M31.89452,204.29754c-.089-1.49591-2.89412-10.75265-2.3331-18.46659"/><path class="cls-10" d="M66.58837,145.99892s-2.10381,5.18939-10.519,1.8233"/><path class="cls-10" d="M126.19615,159.60352s6.0309.84152,7.8542-4.90887"/><path class="cls-10" d="M130.82452,149.926s-.561,2.94533-3.78685,1.40254a2.00457,2.00457,0,0,1,.42076-2.80507"/><path class="cls-10" d="M63.36253,140.38878a3.20608,3.20608,0,0,1-2.66481,1.8233,1.78572,1.78572,0,0,1-1.8233-1.8233"/><circle class="cls-8" cx="55.26414" cy="132.09311" r="1.10019"/><circle class="cls-8" cx="69.0165" cy="134.11012" r="1.10019"/><circle class="cls-8" cx="122.74241" cy="142.54491" r="1.10019"/><circle class="cls-8" cx="137.22823" cy="142.17818" r="1.10019"/><path class="cls-8" d="M172.54939,238.68213s-7.39676,16.18988-50.64772-6.08442c0,0,3.88077,1.20917,10.18061,3.59762,8.22958,3.12007,16.61638,8.13863,28.03308,5.53879l10.1733-6.7822Z"/><path class="cls-8" d="M71.08187,212.862s-42.69455,22.56173-43.6356,23.9733l1.09526-7.19442s11.92254-2.52972,16.78461-5.03917S67.66518,211.63064,71.08187,212.862Z"/><path class="cls-8" d="M117.73045,141.52842c.3659-3.29309-2.19539-1.95144,1.34165-4.75669s7.56194-4.39085,9.7574-8.17179a4.84323,4.84323,0,0,1,2.5613,4.26885c0,3.04913-2.07345,5.73244,2.56129,6.83014l1.67911.35352c-1.05668-.3059-2.979-1.27893-2.167-4.25647,1.0977-4.02489-.12195-4.02489,1.0977-5.6105,1.21964-1.58554,1.21964-1.70755,1.09769-3.17115s4.51281,1.0977,4.51281,3.41511c0,2.31734-3.537,3.29309-.85375,4.02489,2.68324.7318,6.58619-.48785,6.7082,2.07345.12194,2.56129-1.95151,4.26884.24389,5.36654,2.19546,1.09776,1.2197,1.95151,1.2197,1.95151s3.17115-1.34166,2.80525,1.9515c-.3659,3.2931-1.70755,6.3423-4.26884,3.17115a41.705,41.705,0,0,1-1.79069,8.87152c1.84894,1.15977,8.04272,4.91576,7.5232,2.83732-.60986-2.43935-.97582-2.80525,1.82943-4.8787s4.75675-2.6833,5.00064-5.36654c.244-2.68331,5.12259-1.21971,3.17121-4.63475-1.9515-3.4151-.97581-3.903.60986-5.7325,1.58554-1.8295-2.19553-3.17115-3.04927-7.56194-.85374-4.39086,2.19553-5.36661.12207-6.46431s-1.58567-3.537-1.34178-5.85439c.244-2.3174-4.75675-1.0977-7.56187-2.3174-2.80532-1.21965-.73186-6.95215-3.781-6.3423-3.04921.60985-5.9764-2.80525-7.684-4.1469s0,1.9515-1.95151,2.56129c-1.95144.60986-2.07345-3.17114-3.29309-1.70748-1.21971,1.46359-3.29309-.85381-6.22035.60979-2.9272,1.46366-4.39079,3.0492-5.85439,3.0492-1.46366,0-.85381.3659-.85381,1.95151,0,1.58554-2.6833.97568-4.1469,1.82949-1.4636.85374,2.3174,2.9272-.85374,3.903s-8.29381,5.6105-9.0256,7.56194c-.7318,1.9515,1.5856-2.07339,2.07345.48791s-1.21965,5.36654-1.8295,8.6597c-.60985,3.29309,1.58554,2.80518,1.95144,3.537.3659.73179-1.8295,1.82949-1.95144,4.51273-.122,2.68331,2.43935,1.70755,3.659,2.43935,1.21971.7318-.24389,4.75676.3659,5.9764.42337.84681,3.4304.69415,5.23138.52167-.3854-2.16773-.96253-9.18131-.96253-9.18131S117.36455,144.82158,117.73045,141.52842Z"/><path class="cls-9" d="M135.6312,140.05245a3.97926,3.97926,0,0,0,.6383.13438Z"/><path class="cls-10" d="M145.60527,165.76505A15.518,15.518,0,0,1,143.4575,159.7a8.44853,8.44853,0,0,1-1.08966,1.70917c-.64821.75623-1.404,1.59559-2.25287,2.42393-2.98467,2.91235-7.18749,5.68164-12.50517,4.16232-2.72193-.77767-4.97719-3.04771-6.73075-5.55017a6.19082,6.19082,0,0,0,.1445,6.038c2.19546,3.781,11.343,13.29444,28.05249,1.34165A15.62908,15.62908,0,0,1,145.60527,165.76505Z"/><path class="cls-10" d="M147.49049,143.84583s.97576-.85375-1.2197-1.95151c-2.1954-1.0977-.12195-2.80525-.24389-5.36654-.122-2.5613-4.025-1.34165-6.7082-2.07345-2.6833-.7318.85375-1.70755.85375-4.02489,0-2.31741-4.63475-4.8787-4.51281-3.41511s.12195,1.58561-1.09769,3.17115c-1.21965,1.58561,0,1.58561-1.0977,5.6105-.81208,2.97754,1.11027,3.95057,2.167,4.25647l.6383.13438a3.97926,3.97926,0,0,1-.6383-.13438l-1.67911-.35352c-4.63474-1.0977-2.56129-3.781-2.56129-6.83014a4.84323,4.84323,0,0,0-2.5613-4.26885c-2.19546,3.78094-6.22035,5.36654-9.7574,8.17179s-.97575,1.4636-1.34165,4.75669c-.3659,3.29316-2.3174,2.56136-2.3174,2.56136s.57713,7.01358.96253,9.18131a3.36091,3.36091,0,0,0,.13523.57609,46.19864,46.19864,0,0,0,2.75762,6.02039,30.21287,30.21287,0,0,0,1.61062,2.57763c1.75356,2.50246,4.00882,4.7725,6.73075,5.55017,5.31768,1.51932,9.5205-1.25,12.50517-4.16232.84889-.82834,1.60466-1.6677,2.25287-2.42393A8.44853,8.44853,0,0,0,143.4575,159.7a16.06489,16.06489,0,0,0,.77871-1.85995,41.705,41.705,0,0,0,1.79069-8.87152c2.56129,3.17115,3.90294.12195,4.26884-3.17115C150.66164,142.50417,147.49049,143.84583,147.49049,143.84583Z"/><path class="cls-10" d="M76.528,112.53731a32.11548,32.11548,0,0,0-8.64512-5.02352c-3.7385-1.40191-4.43946,0-11.21536,1.05143-6.776,1.05144-10.28076,9.93021-10.98171,12.03314-.48856,1.46567.6107,7.40818,1.36206,11.39316.3267,1.73256.5886,3.10033.624,3.56057.11683,1.5188,1.05143-3.27113,2.10287-4.08891,1.0515-.81778,1.402-3.85526,1.16832-6.65908s2.57017-4.90676,4.32256-5.84137,10.39758-.58412,10.39758-.58412,7.94417-1.16826,8.17782,2.80388c.23365,3.97209,2.80382,3.1543,2.80382,5.72448s-.11611,11.09205,0,10.0471a8.08644,8.08644,0,0,1,.39564-1.31373c.83781-2.34928,2.77791-6.99738,3.57645-9.78481C81.64211,122.27682,79.98542,115.30433,76.528,112.53731Z"/><path class="cls-10" d="M76.87849,138.0055l.162-2.36516a8.08644,8.08644,0,0,0-.39564,1.31373c-.11611,1.045,0-7.47693,0-10.0471s-2.57017-1.75239-2.80382-5.72448c-.23365-3.97214-8.17782-2.80388-8.17782-2.80388s-8.64519-.35048-10.39758.58412-4.55621,3.03755-4.32256,5.84137-.11682,5.8413-1.16832,6.65908c-1.05144.81778-1.986,5.60771-2.10287,4.08891-.03538-.46024-.29728-1.828-.624-3.56057-2.56149-1.91723-4.22569.36927-3.69858,5.42985.58413,5.60765,3.97208,6.3086,3.97208,6.3086a18.84581,18.84581,0,0,0,1.57641,5.22989c2.54432,5.47663,7.4882,9.37343,12.44278,9.37343,3.672,0,7.9139-4.1195,10.87719-7.651a56.48283,56.48283,0,0,0,3.72612-4.96624c1.28508,1.986,4.90675-5.25716,4.78986-7.59368C80.61692,135.78581,76.87849,138.0055,76.87849,138.0055Z"/><path class="cls-10" d="M93.09689,221.21748q.05958-.77452.12155-1.47546A10.45863,10.45863,0,0,1,90.425,215.7956a4.39892,4.39892,0,0,1-.88614,1.30653c-1.87065,1.62118-4.24015-.62359-5.2378-1.37178-.99765-.74826,1.49651-1.12238,1.37178-2.86836-.12466-1.74591-3.74122,1.12239-7.2331,1.87064-3.49182.74826-3.74128-1.49651-7.35783-1.87064s-23.07109,12.34617-36.29025,15.58866a56.34812,56.34812,0,0,1-6.25009,1.19022s-10.81683,43.08683-4.95361,49.815c12.51073,14.35644,76.10308-.46078,76.10308-.46078l.93629-.60558C98.90636,270.30206,92.54671,228.36991,93.09689,221.21748Z"/><path class="cls-10" d="M109.21188,203.73725c-3.08154-10.92527-10.92528-30.81484-20.16976-33.056-4.81247-1.16664-11.51963-3.09165-16.84775-4.67006-.00324,2.19377-.01743,4.18688-.05683,5.73069a10.77156,10.77156,0,0,1-.28257,3.18074c-14.20178,7.10092-23.36533-9.22932-23.36533-9.22932l.1224-5.01917c-2.70274,1.18238-6.93731,3.03637-10.2766,4.50535-1.99337,1.05435-4.465,2.51729-4.65678,3.38626-.32456,1.47047.21143,3.59466-2.74888,4.65192a41.1747,41.1747,0,0,1-6.55508,1.9031c-2.05369.41074-3.70986-1.37528-5.54693-3.41542a12.30817,12.30817,0,0,0-3.86731,5.32015C11.1052,186.95578,5.61438,205.648,6.19851,211.723c.58413,6.075.701,16.58935,11.56577,16.93983-2.92473-17.37493,14.13024-24.36531,14.13024-24.36531,10.696,4.52991,49.16411-3.28286,53.65365-3.90638,4.48947-.62353,5.48712.62352,6.73424,3.11769a5.68891,5.68891,0,0,1,.36674,2.36341c.67407-.01711,2.7122-.06868,5.30078-.13238,3.55337-.08741,8.13324-.19749,11.63841-.27291A16.71886,16.71886,0,0,0,109.21188,203.73725Z"/><path class="cls-10" d="M72.21776,150.68225c-2.96329,3.53154-7.20518,7.651-10.87719,7.651-4.95458,0-9.89846-3.8968-12.44278-9.37343L48.612,160.67415l-.1224,5.01917s9.16355,16.33024,23.36533,9.22932a10.77156,10.77156,0,0,0,.28257-3.18074c.0394-1.54381.05359-3.53692.05683-5.73069l.00026-.23851C72.20013,160.71464,72.15154,154.67734,72.21776,150.68225Z"/><path class="cls-10" d="M92.28238,203.50886c-1.24711-2.49417-2.24477-3.74122-6.73424-3.11769-4.48954.62352-42.95762,8.43629-53.65364,3.90638,0,0-17.055,6.99038-14.13025,24.36531,0,0,2.57018,2.03108,10.77728.978a56.34769,56.34769,0,0,0,6.25009-1.19022c13.21916-3.24249,32.6737-15.96279,36.29025-15.58866s3.866,2.6189,7.35783,1.87064c3.49189-.74825,7.10844-3.61655,7.23311-1.87064.12473,1.746-2.36944,2.12011-1.37178,2.86836.99765.74819,3.36715,2.993,5.23779,1.37178a4.39855,4.39855,0,0,0,.88614-1.30653,26.95264,26.95264,0,0,0,2.22417-9.92334A5.68875,5.68875,0,0,0,92.28238,203.50886Z"/><path class="cls-10" d="M105.04586,218.2459a3.96291,3.96291,0,0,0-.22043-.9731,14.82106,14.82106,0,0,1-5.80871-.17067,9.35966,9.35966,0,0,1-3.866,2.993,1.87377,1.87377,0,0,1-1.93226-.35314q-.0619.70155-.12155,1.47546c-.55018,7.15243,5.80947,49.08458,7.53043,57.17208C100.62732,278.38956,105.41176,224.83215,105.04586,218.2459Z"/><path class="cls-10" d="M169.93242,234.46754s1.58567-1.82949,4.75676-10.1233c3.17108-8.29374-.24389-37.44392-2.68331-44.762-2.43928-7.318-6.22035-8.04985-10.855-8.78165-2.26576-.35773-8.75929-2.63983-15.54557-5.03557a15.62908,15.62908,0,0,0,3.47077,4.05982c-16.70949,11.95279-25.857,2.43935-28.05249-1.34165a6.19082,6.19082,0,0,1-.1445-6.038,30.21287,30.21287,0,0,1-1.61062-2.57763,160.445,160.445,0,0,0-22.63832,4.10284c-6.67372,1.71617-17.42839,1.79237-24.43548,1.80229l-.00026.23851c5.32812,1.57841,12.03528,3.50342,16.84775,4.67006,9.24448,2.24114,17.08822,22.13071,20.16976,33.056a16.71886,16.71886,0,0,1,.37646,1.72972c2.41349-.05191,4.31945-.08748,5.017-.08748,2.61883,0,4.70738,1.48744,4.6142,1.87064-1.12238,4.61421-2.74362,6.48485-2.74362,6.48485l-4.90339-1.48239-.45908-.13879-.92774,1.42252-.9429,1.44577a7.94721,7.94721,0,0,1-4.41735,2.29071,3.96291,3.96291,0,0,1,.22043.9731c.3659,6.58625-1.34165,31.95544-1.0977,37.2.10205,2.19358.23488,3.51294,2.7356,4.96533a34.82873,34.82873,0,0,0,6.18834,2.52559c4.88667,1.62241,12.48548,3.74076,24.37315,7.02317,32.68717,9.0256,46.95744-10.8551,46.95744-10.8551Z"/><path class="cls-10" d="M114.60531,205.37949c-.69752,0-2.60348.03557-5.017.08748-3.50517.07542-8.085.1855-11.63841.27291-2.58858.0637-4.62671.11527-5.30078.13238A26.95263,26.95263,0,0,1,90.425,215.7956a10.45863,10.45863,0,0,0,2.79345,3.94642,1.87377,1.87377,0,0,0,1.93226.35314,9.35966,9.35966,0,0,0,3.866-2.993,14.82106,14.82106,0,0,0,5.80871.17067,7.94721,7.94721,0,0,0,4.41735-2.29071l.9429-1.44577.92774-1.42252.45908.13879,4.90339,1.48239s1.62124-1.87064,2.74362-6.48485C119.31269,206.86693,117.22414,205.37949,114.60531,205.37949Z"/><path class="cls-10" d="M36.00462,164.3367s-10.57266-.63441-13.533,1.69161c-2.96037,2.326-5.70925,3.38323-3.80621,5.49776.05475.06084.10789.11883.16232.17929,1.83707,2.04014,3.49324,3.82616,5.54693,3.41542a41.1747,41.1747,0,0,0,6.55508-1.9031c2.96031-1.05726,2.42432-3.18145,2.74888-4.65192.19173-.869,2.66341-2.33191,4.65678-3.38626,1.37988-.72986,2.53259-1.26572,2.53259-1.26572A30.74232,30.74232,0,0,1,36.00462,164.3367Z"/><path class="cls-8" d="M48.90438,166.54937s-4.84188-4.89737-3.0317-4.89737a8.59617,8.59617,0,0,0,2.73936-.97785Z"/><path class="cls-8" d="M71.855,174.92264c2.11927-1.72684,4.33475-4.17553,4.10154-7.79025l-3.76214-1.12118Z"/><path class="cls-8" d="M145.60527,165.76505c.35409-.602,6.61026,2.41677,6.61026,2.41677l-3.23111,2.3086S145.175,166.49659,145.60527,165.76505Z"/><path class="cls-10" d="M155.61828,185.0007s-.6172,9.87513-.70537,15.16538,1.49891,11.90305-.96988,11.81488-22.83623-1.23439-30.94794-6.43646l-2.80706-1.22359a.48639.48639,0,0,0-.67956.412l-.48019,3.36791"/><path class="cls-10" d="M169.93242,234.46754c-12.66611,15.7856-32.65366,3.34746-40.85355.61417s-20.36745-9.9633-20.36745-9.9633c4.32037-1.23439,9.29659-13.99732,9.29659-13.99732"/><path class="cls-8" d="M114.178,212.86267s-8.288,12.43208-5.46659,12.25574,7.76447-11.38343,7.76447-11.38343Z"/><path class="cls-8" d="M119.788,204.04789s-.0722-.752-2.24844,1.03053c-1.48574,1.217.64144.98609.64144.98609l.43594.13813Z"/><path class="cls-10" d="M99.01672,217.10213s.25074-2.5192-1.01155-2.7997l-1.26228-.28051,6.17116.42076"/><path class="cls-10" d="M105.15811,179.09877a119.132,119.132,0,0,0,.2805,13.32409"/><path class="cls-10" d="M31.89452,204.29754c-.089-1.49591-2.89412-10.75265-2.3331-18.46659"/><path class="cls-10" d="M66.58837,145.99892s-2.10381,5.18939-10.519,1.8233"/><path class="cls-10" d="M126.19615,159.60352s6.0309.84152,7.8542-4.90887"/><path class="cls-10" d="M130.82452,149.926s-.561,2.94533-3.78685,1.40254a2.00457,2.00457,0,0,1,.42076-2.80507"/><path class="cls-10" d="M63.36253,140.38878a3.20608,3.20608,0,0,1-2.66481,1.8233,1.78572,1.78572,0,0,1-1.8233-1.8233"/><circle class="cls-8" cx="55.26414" cy="132.09311" r="1.10019"/><circle class="cls-8" cx="69.0165" cy="134.11012" r="1.10019"/><circle class="cls-8" cx="122.74241" cy="142.54491" r="1.10019"/><circle class="cls-8" cx="137.22823" cy="142.17818" r="1.10019"/><path class="cls-8" d="M172.54939,238.68213s-7.39676,16.18988-50.64772-6.08442c0,0,3.88077,1.20917,10.18061,3.59762,8.22958,3.12007,16.61638,8.13863,28.03308,5.53879l10.1733-6.7822Z"/><path class="cls-8" d="M71.08187,212.862s-42.69455,22.56173-43.6356,23.9733l1.09526-7.19442s11.92254-2.52972,16.78461-5.03917S67.66518,211.63064,71.08187,212.862Z"/><path class="cls-7" d="M1053.7168,127.80987c3.26512-4.43729,1.84189-13.39548-.41865-15.15364-2.26048-1.75816-2.93026-1.17211-3.26513-3.85118a36.5632,36.5632,0,0,0-2.00929-6.86523c-1.08843-3.68371-11.38618-4.01863-15.48855-3.43258s-2.93027-.1674-4.10237-2.34421c-1.17211-2.17675-4.521.921-9.46051.66978-4.93961-.25113-7.70242,5.02328-8.03734,9.628-.33486,4.60469-4.1023,3.26513-7.535,9.29311-3.43258,6.02793-.50232,5.52561,2.84659,11.55359,3.34886,6.02793,8.70706,5.52561,11.3024,5.27448,1.05629-.10222,1.52456-.33445,1.68123-.85562.22829-.75941-.21124-2.138-.50912-4.67005-.0362-.30772-.05207-.64622-.05749-.99927a17.94409,17.94409,0,0,1,.12989-2.27c-1.95353-1.56386-1.189-5.03055-.491-7.27964.69041-2.22476,2.29047-.86784,2.55419-.62458.01646-.0368.03292-.07264.04944-.10884.623-1.36217,1.29782-2.28684,1.91732-2.36425,2.00935-.25119,2.93027-1.1721,3.76745-.50238.83725.66978,2.5954-.41859,3.51632-.83718s1.1721,1.00464,2.34421,1.507a3.0495,3.0495,0,0,0,1.82292.18357,2.27659,2.27659,0,0,0,.35389-.09984c.50232,1.67443,3.77311,2.18665,4.33662,2.18665l-.83695,1.62988c1.25566.165,1.60734-1.47232,1.60734-1.47232,1.5907,3.09773,2.7628,3.43259,3.76745,5.107,1.0047,1.67442-.66979,5.107-.66979,5.107l-3.65751,4.58479c2.00935,1.84189,2.10477-1.323.43035.26766-1.32263,1.2565-3.74822,4.383-5.18946,5.18487.642.9883,1.4,2.0595,2.305,3.19076,4.01863,5.02328,8.79078,3.26512,9.12565,2.34421.33492-.921.921.83718,5.94425-2.17681,5.02328-3.01394,3.26513-8.87446,2.17675-10.29776C1052.87956,127.8936,1053.7168,127.80987,1053.7168,127.80987Z"/><path class="cls-7" d="M1044.1725,126.38657l-1.33957-.16746s1.67449-3.43259.66979-5.107c-1.00465-1.67443-2.17675-2.00929-3.76745-5.107,0,0-.35168,1.63734-1.60734,1.47232l.83695-1.62988c-.56351,0-3.8343-.51222-4.33662-2.18665a2.27659,2.27659,0,0,1-.35389.09984,3.0495,3.0495,0,0,1-1.82292-.18357c-1.17211-.50232-1.42324-1.92556-2.34421-1.507s-2.67907,1.507-3.51632.83718c-.83718-.66972-1.7581.25119-3.76745.50238-.6195.07741-1.29436,1.00208-1.91732,2.36425-.01652.0362-.033.072-.04944.10884-.26372-.24326-1.86378-1.60018-2.55419.62458-.698,2.24909-1.46254,5.71578.491,7.27964a17.94409,17.94409,0,0,0-.12989,2.27c.00542.353.02129.69155.05749.99927.29788,2.532.73741,3.91064.50912,4.67005a.6371.6371,0,0,1-.17426.85562c-.701.49063-6.902,3.43825-8.907,4.38719-.38961.1844-.63722.30117-.63722.30117s7.535,2.51167,9.79543,4.01863c2.26048,1.507,7.61868,6.11172,11.21873,2.00935l.22167-.45473,3.04345-6.243s.242-.131.6253-.34422c1.44124-.80182,3.86683-3.92837,5.18946-5.18487C1041.28019,129.48087,1046.18185,128.22846,1044.1725,126.38657Z"/><path class="cls-7" d="M983.99963,127.84159c-.90655-.07556-2.79519,6.57253-2.79519,6.57253.75548-4.23058-2.03976-16.0158-3.09736-16.0913-1.05767-.07556.90654,14.58034.67992,14.73146-.22668.15106-3.62623-12.23846-5.28825-13.52274s-.30218,3.09736-.30218,3.09736,2.493,7.7057,2.71962,8.83892c.22668,1.13316-.37768.67992-.37768.67992s-5.59043-9.821-6.95027-9.06554c-1.35984.75543,4.07953,8.91442,3.92841,9.6699-.15112.75542-5.43931-4.53277-6.7236-4.53277s2.71963,5.06157,3.70173,6.42141a7.14823,7.14823,0,0,1,1.28428,4.38165c.02427.58206,1.411,2.31791,2.68546,3.75653.19185.21661.38131.42707.563.62518a9.19892,9.19892,0,0,1,1.053,1.40582,14.0617,14.0617,0,0,0,7.82085-1.30539c.07324-.292.13353-.62488.1881-.9728a50.41257,50.41257,0,0,0,.30581-7.51325S984.90623,127.91715,983.99963,127.84159Z"/><path class="cls-7" d="M1046.45182,189.51982c-.02475-.07669-.04926-.15983-.07407-.23557-1.07125-3.27007-1.763-8.50977-2.21241-13.79647-.55409-6.51791-.7395-13.10731-.809-16.1658-.1259-5.5392-4.9098-11.20435-6.67225-13.84806-1.24587-1.86884-4.18407-2.47732-5.9365-2.63029l-.22167.45473c-3.6,4.10237-8.95825-.50232-11.21873-2.00935-2.26048-1.507-9.79543-4.01863-9.79543-4.01863s.24761-.11677.63722-.30117c-12.97754-1.91566-13.91384,1.1467-18.28243,4.09849-4.658,3.14728-7.80529,15.48468-7.80529,15.48468l-.08319-9.06744-.0427-4.65479s-.31173-.12643-.84589-.29842c-.05457.34792-.11486.68082-.1881.9728a14.0617,14.0617,0,0,1-7.82085,1.30539,9.19892,9.19892,0,0,0-1.053-1.40582c-.18172-.19811-.37118-.40857-.563-.62518A11.3733,11.3733,0,0,0,971.472,144.215a37.6295,37.6295,0,0,1,1.0034,8.42641,19.09759,19.09759,0,0,1-.37393,3.7851c-1.133,5.28747-1.88834,13.09276,2.51788,20.89805s10.449,5.791,10.449,5.791a214.55677,214.55677,0,0,0,6.924,32.98366c4.77162,16.06059,6.962,18.6709,10.05044,19.37175.25239.05726.51.10341.7763.14146,3.525.50358,6.04277-14.09985,24.29711-14.60342,14.6998-.40553,18.62189,3.35076,20.64442,4.89536a2.51366,2.51366,0,0,0,1.26078.64384c2.01424.12589,1.51072-5.791,1.76251-11.95972C1051.03308,208.48384,1048.81613,196.83775,1046.45182,189.51982Z"/><path class="cls-7" d="M1017.98877,269.325c-.56572,4.64065-1.32275,11.0221-2.08873,17.98895,5.15484-4.39936,8.92086-7.486,8.92086-7.486C1023.31375,278.72266,1020.819,274.65369,1017.98877,269.325Z"/><path class="cls-7" d="M1047.76068,225.9044c-2.02253-1.5446-5.94462-5.30089-20.64442-4.89536-18.25434.50357-20.77215,15.107-24.29711,14.60342-.26628-.038-.52391-.0842-.7763-.14146,3.0725,7.0222,10.201,23.03729,15.94592,33.854,2.83019,5.32874,5.325,9.39771,6.83213,10.5029,0,0-3.766,3.08669-8.92086,7.486-10.92257,9.32168-28.06659,24.53072-28.94767,28.8572-.013.06393-.03363.13293-.03948.192-.00322.03251-.02075.07461-.02177.10562a42.2792,42.2792,0,0,0,4.15688,4.1694c1.71939,1.47625,3.66988,2.79924,5.25837,2.97284a3.3195,3.3195,0,0,0,.34339.03865c1.49122,0,8.41806-4.10714,16.68273-9.5808,5.95535-3.94421,12.59879-8.59512,18.41214-12.93484,6.04188-4.51029,11.18551-8.68315,13.69825-11.36341,2.396-2.55568.55242-21.72671-3.1301-34.24725C1042.31278,255.52334,1046.88526,236.14741,1047.76068,225.9044Z"/><path class="cls-7" d="M978.89607,144.04681a6.14311,6.14311,0,0,1-3.60846-.59494"/><path class="cls-13" d="M1055.0245,126.96469c3.26513-4.43729,1.84189-13.39548-.41865-15.15363-2.26048-1.75816-2.93026-1.17211-3.26512-3.85118a36.564,36.564,0,0,0-2.00929-6.86523c-1.08844-3.68372-11.38619-4.01864-15.48856-3.43258s-2.93026-.16741-4.10237-2.34421c-1.1721-2.17675-4.521.921-9.46051.66978-4.93961-.25113-7.70241,5.02328-8.03733,9.628-.33487,4.60469-4.10231,3.26512-7.535,9.29311-3.43258,6.02793-.50232,5.5256,2.84659,11.55359,3.34886,6.02793,8.70706,5.52561,11.3024,5.27447,1.05629-.10221,1.52456-.33444,1.68123-.85561.22829-.75942-.21123-2.138-.50912-4.67-.0362-.30773-.05206-.64623-.05749-.99928a17.944,17.944,0,0,1,.12989-2.27c-1.95353-1.56386-1.189-5.03056-.491-7.27965.69041-2.22475,2.29047-.86783,2.55419-.62457.01646-.0368.03292-.07264.04944-.10884.623-1.36217,1.29782-2.28684,1.91733-2.36425,2.00935-.25119,2.93026-1.1721,3.76744-.50238.83725.66978,2.5954-.41859,3.51632-.83719.921-.41859,1.1721,1.00465,2.34421,1.507a3.0494,3.0494,0,0,0,1.82292.18356,2.2774,2.2774,0,0,0,.35389-.09983c.50232,1.67443,3.77311,2.18665,4.33662,2.18665l-.83694,1.62988c1.25565.165,1.60733-1.47232,1.60733-1.47232,1.5907,3.09773,2.7628,3.43259,3.76745,5.107s-.66979,5.107-.66979,5.107l-3.65751,4.58479c2.00935,1.84189,2.10478-1.323.43035.26766-1.32263,1.25649-3.74821,4.383-5.18946,5.18487.642.9883,1.4,2.0595,2.305,3.19075,4.01864,5.02329,8.79079,3.26513,9.12565,2.34421.33492-.921.921.83719,5.94425-2.17681,5.02329-3.01393,3.26513-8.87445,2.17675-10.29775C1054.18726,127.04842,1055.0245,126.96469,1055.0245,126.96469Z"/><path class="cls-6" d="M1045.4802,125.5414l-1.33957-.16746s1.67449-3.43259.66979-5.107-2.17675-2.00928-3.76745-5.107c0,0-.35168,1.63734-1.60733,1.47232l.83694-1.62988c-.56351,0-3.8343-.51222-4.33662-2.18665a2.2774,2.2774,0,0,1-.35389.09983,3.0494,3.0494,0,0,1-1.82292-.18356c-1.17211-.50232-1.42324-1.92556-2.34421-1.507-.92092.4186-2.67907,1.507-3.51632.83719-.83718-.66972-1.75809.25119-3.76744.50238-.61951.07741-1.29436,1.00208-1.91733,2.36425-.01652.0362-.033.072-.04944.10884-.26372-.24326-1.86378-1.60018-2.55419.62457-.698,2.24909-1.46254,5.71579.491,7.27965a17.944,17.944,0,0,0-.12989,2.27c.00543.353.02129.69155.05749.99928.29789,2.532.73741,3.91063.50912,4.67a.63708.63708,0,0,1-.17426.85561c-.701.49064-6.902,3.43825-8.907,4.3872-.38961.1844-.63722.30116-.63722.30116s7.53495,2.51168,9.79543,4.01864c2.26048,1.507,7.61869,6.11172,11.21873,2.00935l.22167-.45473,3.04345-6.243s.242-.131.6253-.34422c1.44125-.80182,3.86683-3.92838,5.18946-5.18487C1042.5879,128.6357,1047.48955,127.38329,1045.4802,125.5414Z"/><path class="cls-6" d="M985.30733,126.99642c-.90654-.07556-2.79519,6.57253-2.79519,6.57253.75548-4.23059-2.03976-16.01581-3.09736-16.09131-1.05766-.07556.90654,14.58035.67992,14.73147-.22668.15106-3.62623-12.23846-5.28825-13.52274s-.30218,3.09736-.30218,3.09736,2.493,7.70569,2.71962,8.83892c.22668,1.13316-.37768.67992-.37768.67992s-5.59043-9.821-6.95027-9.06554c-1.35984.75542,4.07953,8.91442,3.92841,9.6699-.15112.75542-5.43931-4.53277-6.72359-4.53277s2.71962,5.06157,3.70172,6.42141a7.14821,7.14821,0,0,1,1.28428,4.38165c.02428.58206,1.411,2.31791,2.68546,3.75653.19185.2166.38132.42706.563.62518a9.19826,9.19826,0,0,1,1.053,1.40582,14.06188,14.06188,0,0,0,7.82085-1.30539c.07324-.292.13353-.62488.1881-.9728a50.41168,50.41168,0,0,0,.30582-7.51325S986.21393,127.072,985.30733,126.99642Z"/><path class="cls-7" d="M1047.75953,188.67465c-.02475-.07669-.04926-.15983-.07407-.23557-1.07126-3.27007-1.763-8.50978-2.21242-13.79647-.55408-6.51791-.73949-13.10732-.809-16.1658-.1259-5.5392-4.90979-11.20436-6.67225-13.84806-1.24587-1.86885-4.18407-2.47732-5.9365-2.63029l-.22167.45473c-3.6,4.10237-8.95825-.50232-11.21873-2.00935-2.26048-1.507-9.79543-4.01864-9.79543-4.01864s.24761-.11676.63722-.30116c-12.97754-1.91566-13.91384,1.1467-18.28243,4.09849-4.658,3.14728-7.80529,15.48468-7.80529,15.48468l-.08319-9.06744-.0427-4.65479s-.31172-.12643-.84589-.29842c-.05457.34792-.11486.68081-.1881.9728a14.06188,14.06188,0,0,1-7.82085,1.30539,9.19826,9.19826,0,0,0-1.053-1.40582c-.18171-.19812-.37118-.40858-.563-.62518a11.373,11.373,0,0,0-1.99247,1.43606,37.62915,37.62915,0,0,1,1.00339,8.42641,19.09692,19.09692,0,0,1-.37393,3.7851c-1.133,5.28747-1.88834,13.09276,2.51788,20.898s10.449,5.791,10.449,5.791a214.55652,214.55652,0,0,0,6.924,32.98366c4.77162,16.0606,6.962,18.67091,10.05044,19.37176.25239.05725.51.10341.7763.14146,3.525.50358,6.04277-14.09985,24.29712-14.60342,14.69979-.40554,18.62188,3.35076,20.64441,4.89536a2.51375,2.51375,0,0,0,1.26078.64384c2.01424.12589,1.51073-5.791,1.76251-11.95972C1052.34078,207.63867,1050.12383,195.99258,1047.75953,188.67465Z"/><path class="cls-6" d="M1019.29647,268.47977c-.56572,4.64066-1.32275,11.02211-2.08873,17.989,5.15484-4.39936,8.92086-7.486,8.92086-7.486C1024.62145,277.87749,1022.12666,273.80852,1019.29647,268.47977Z"/><path class="cls-6" d="M1049.06838,225.05923c-2.02253-1.5446-5.94462-5.3009-20.64441-4.89536-18.25435.50357-20.77216,15.107-24.29712,14.60342-.26628-.038-.52391-.08421-.7763-.14146,3.0725,7.0222,10.201,23.03729,15.94592,33.85394,2.83019,5.32875,5.325,9.39772,6.83213,10.50291,0,0-3.766,3.08669-8.92086,7.486-10.92257,9.32168-28.06659,24.53072-28.94767,28.8572-.013.06393-.03363.13293-.03948.192-.00322.0325-.02075.07461-.02176.10562a42.27843,42.27843,0,0,0,4.15687,4.1694c1.7194,1.47625,3.66988,2.79924,5.25837,2.97284a3.3195,3.3195,0,0,0,.34339.03865c1.49123,0,8.41806-4.10714,16.68273-9.5808,5.95535-3.94421,12.59879-8.59512,18.41214-12.93485,6.04188-4.51028,11.18551-8.68314,13.69826-11.3634,2.396-2.55569.55241-21.72671-3.13011-34.24725C1043.62048,254.67817,1048.193,235.30223,1049.06838,225.05923Z"/><path class="cls-9" d="M977.62831,143.20164a6.14311,6.14311,0,0,1-3.60846-.59494"/><path class="cls-13" d="M1054.41987,127.93556c3.26513-4.43729,1.84189-13.39548-.41865-15.15363-2.26048-1.75816-2.93026-1.17211-3.26512-3.85118a36.5632,36.5632,0,0,0-2.00929-6.86523c-1.08844-3.68372-11.38619-4.01864-15.48856-3.43259s-2.93026-.1674-4.10237-2.34421c-1.1721-2.17675-4.521.921-9.46051.66979-4.93961-.25113-7.70241,5.02328-8.03733,9.628-.33486,4.60469-4.10231,3.26512-7.535,9.29311-3.43258,6.02793-.50232,5.5256,2.8466,11.55359,3.34885,6.02793,8.70705,5.5256,11.3024,5.27447,1.05629-.10222,1.52456-.33444,1.68122-.85561.22829-.75942-.21123-2.13805-.50912-4.67005-.0362-.30773-.05206-.64623-.05749-.99928a17.9459,17.9459,0,0,1,.12989-2.27c-1.95353-1.56386-1.189-5.03056-.491-7.27965.69042-2.22476,2.29048-.86784,2.55419-.62458.01646-.03679.03292-.07263.04944-.10883.623-1.36217,1.29782-2.28684,1.91733-2.36425,2.00935-.25119,2.93026-1.17211,3.76745-.50238s2.5954-.4186,3.51631-.83719c.921-.41859,1.17211,1.00465,2.34421,1.507a3.04948,3.04948,0,0,0,1.82292.18356,2.2774,2.2774,0,0,0,.35389-.09983c.50232,1.67443,3.77311,2.18665,4.33662,2.18665l-.83694,1.62988c1.25565.165,1.60733-1.47232,1.60733-1.47232,1.5907,3.09772,2.7628,3.43258,3.76745,5.107s-.66978,5.107-.66978,5.107l-3.65752,4.5848c2.00935,1.84188,2.10478-1.323.43035.26766-1.32263,1.25649-3.74821,4.383-5.18946,5.18486.642.98831,1.4,2.05951,2.305,3.19076,4.01864,5.02328,8.79079,3.26513,9.12565,2.34421.33492-.921.921.83719,5.94426-2.17681,5.02328-3.01393,3.26512-8.87446,2.17674-10.29775C1053.58263,128.01929,1054.41987,127.93556,1054.41987,127.93556Z"/><path class="cls-9" d="M1044.87557,126.51227l-1.33956-.16747s1.67448-3.43258.66978-5.107-2.17675-2.00929-3.76745-5.107c0,0-.35168,1.63733-1.60733,1.47232l.83694-1.62988c-.56351,0-3.8343-.51222-4.33662-2.18665a2.2774,2.2774,0,0,1-.35389.09983,3.04948,3.04948,0,0,1-1.82292-.18356c-1.1721-.50232-1.42324-1.92556-2.34421-1.507-.92091.41859-2.67907,1.507-3.51631.83719s-1.7581.25119-3.76745.50238c-.61951.07741-1.29436,1.00208-1.91733,2.36425-.01652.0362-.033.072-.04944.10883-.26371-.24326-1.86377-1.60018-2.55419.62458-.698,2.24909-1.46254,5.71579.491,7.27965a17.9459,17.9459,0,0,0-.12989,2.27c.00543.353.02129.69155.05749.99928.29789,2.532.73741,3.91063.50912,4.67005a.63708.63708,0,0,1-.17426.85561c-.701.49064-6.902,3.43825-8.907,4.3872-.38961.18439-.63722.30116-.63722.30116s7.53495,2.51167,9.79543,4.01864c2.26048,1.507,7.61869,6.11172,11.21873,2.00935l.22167-.45473,3.04346-6.243s.24194-.131.62529-.34423c1.44125-.80181,3.86683-3.92837,5.18946-5.18486C1041.98327,129.60656,1046.88492,128.35415,1044.87557,126.51227Z"/><path class="cls-9" d="M984.7027,127.96729c-.90654-.07556-2.79519,6.57253-2.79519,6.57253.75549-4.23059-2.03976-16.01581-3.09736-16.09131-1.05766-.07556.90654,14.58035.67992,14.73147-.22668.15106-3.62623-12.23846-5.28825-13.52275s-.30218,3.09737-.30218,3.09737,2.493,7.70569,2.71963,8.83891c.22668,1.13317-.37769.67993-.37769.67993s-5.59042-9.821-6.95027-9.06554c-1.35984.75542,4.07953,8.91442,3.92841,9.6699-.15112.75542-5.43931-4.53277-6.72359-4.53277s2.71962,5.06157,3.70172,6.42141a7.14813,7.14813,0,0,1,1.28429,4.38165c.02427.58205,1.411,2.31791,2.68545,3.75653.19185.2166.38132.42706.563.62518a9.19826,9.19826,0,0,1,1.053,1.40582,14.06183,14.06183,0,0,0,7.82086-1.3054c.07323-.292.13352-.62487.18809-.97279a50.41168,50.41168,0,0,0,.30582-7.51325S985.6093,128.04285,984.7027,127.96729Z"/><path class="cls-10" d="M1047.1549,189.64552c-.02475-.0767-.04926-.15983-.07407-.23557-1.07126-3.27007-1.763-8.50978-2.21241-13.79648-.55409-6.5179-.7395-13.10731-.809-16.16579-.12589-5.5392-4.90979-11.20436-6.67224-13.84806-1.24588-1.86885-4.18407-2.47732-5.93651-2.63029l-.22167.45473c-3.6,4.10237-8.95825-.50232-11.21873-2.00935-2.26048-1.507-9.79543-4.01864-9.79543-4.01864s.24761-.11677.63722-.30116c-12.97754-1.91566-13.91384,1.1467-18.28243,4.09849-4.65794,3.14728-7.80529,15.48468-7.80529,15.48468l-.08319-9.06745-.0427-4.65478s-.31172-.12643-.84589-.29842c-.05457.34792-.11486.68081-.18809.97279a14.06183,14.06183,0,0,1-7.82086,1.3054,9.19826,9.19826,0,0,0-1.053-1.40582c-.18171-.19812-.37118-.40858-.563-.62518a11.373,11.373,0,0,0-1.99247,1.43606,37.629,37.629,0,0,1,1.00339,8.42641,19.09749,19.09749,0,0,1-.37392,3.78509c-1.133,5.28748-1.88835,13.09277,2.51787,20.89805s10.449,5.791,10.449,5.791a214.55731,214.55731,0,0,0,6.924,32.98366c4.77161,16.0606,6.962,18.67091,10.05044,19.37176.25238.05725.51.10341.77629.14146,3.525.50357,6.04278-14.09985,24.29712-14.60343,14.6998-.40553,18.62188,3.35077,20.64441,4.89536a2.51376,2.51376,0,0,0,1.26079.64385c2.01423.12589,1.51072-5.791,1.76251-11.95972C1051.73615,208.60954,1049.51921,196.96345,1047.1549,189.64552Z"/><path class="cls-9" d="M1018.69184,269.45064c-.56572,4.64065-1.32275,11.02211-2.08873,17.989,5.15485-4.39936,8.92086-7.486,8.92086-7.486C1024.01682,278.84836,1021.522,274.77939,1018.69184,269.45064Z"/><path class="cls-9" d="M1048.46375,226.03009c-2.02253-1.54459-5.94461-5.30089-20.64441-4.89536-18.25434.50358-20.77216,15.107-24.29712,14.60343-.26628-.038-.52391-.08421-.77629-.14146,3.07249,7.02219,10.201,23.03729,15.94591,33.85394,2.83019,5.32875,5.325,9.39772,6.83213,10.50291,0,0-3.766,3.08669-8.92086,7.486-10.92257,9.32168-28.06659,24.53071-28.94766,28.8572-.013.06393-.03364.13293-.03948.192-.00322.0325-.02076.0746-.02177.10562a42.27967,42.27967,0,0,0,4.15687,4.1694c1.7194,1.47625,3.66989,2.79924,5.25838,2.97284a3.32188,3.32188,0,0,0,.34339.03864c1.49122,0,8.418-4.10713,16.68272-9.5808,5.95535-3.94421,12.59879-8.59511,18.41214-12.93484,6.04189-4.51028,11.18551-8.68314,13.69826-11.36341,2.396-2.55568.55242-21.7267-3.13011-34.24724C1043.01585,255.649,1047.58834,236.2731,1048.46375,226.03009Z"/><path class="cls-9" d="M975.78357,144.93562a6.14308,6.14308,0,0,1-3.60845-.59494"/><path class="cls-9" d="M985.77145,183.24128s11.40776-.63046,14.07664-20.16177"/><path class="cls-9" d="M984.7643,156.67808c.36394.24262,4.16567,2.39812,4.287,12.22443"/><path class="cls-9" d="M1043.01585,255.649c-.22316-1.22126-7.01666-16.87057-7.01666-16.87057"/><path class="cls-9" d="M1019.9333,131.8521s5.375,13.25814,14.56079,4.87425"/><path class="cls-10" d="M1025.78919,131.104s3.65705,4.59485,7.1166,1.37556c0,0-2.6763,4.41454-5.93061.889C1025.39169,131.65319,1025.78919,131.104,1025.78919,131.104Z"/><path class="cls-9" d="M1028.70611,129.27734s2.19021,2.82584,3.77658.3934c0,0-.68658-3.52876.5413-4.552"/><circle class="cls-8" cx="1028.55645" cy="120.6221" r="0.95183"/><circle class="cls-8" cx="1038.92077" cy="124.64091" r="0.95183"/><path class="cls-8" d="M987.35384,191.79775l-1.58239-8.55647s10.08151-1.3732,12.1011-13.07C997.87255,170.17127,997.03106,185.31822,987.35384,191.79775Z"/><path class="cls-8" d="M1048.46375,226.03009c.79848.565-21.938-13.83617-44.17032,9.53623-1.6914,1.77813-1.5475.03038-.77121.17184,0,0,5.86544-9.14761,11.566-11.61786S1035.85454,217.10878,1048.46375,226.03009Z"/><polygon class="cls-8" points="1037.646 241.574 1044.048 252.242 1043.016 255.649 1037.646 241.574"/></g></svg>