<?xml version="1.0" encoding="utf-8"?>
<!-- Generator: Adobe Illustrator 25.2.0, SVG Export Plug-In . SVG Version: 6.00 Build 0)  -->
<svg version="1.1" id="Layer_1" xmlns="http://www.w3.org/2000/svg" xmlns:xlink="http://www.w3.org/1999/xlink" x="0px" y="0px"
	 viewBox="0 0 861.96 280.01" style="enable-background:new 0 0 861.96 280.01;" xml:space="preserve">
<style type="text/css">
	.st0{fill:#1D5392;}
	.st1{fill:none;stroke:#54565A;}
	.st2{fill:#DDDDDE;}
	.st3{fill:#C9E2FF;}
	.st4{fill:#E2EFFF;}
	.st5{fill:#9DCFFF;}
	.st6{fill:#58B0FF;}
	.st7{fill:#1A2E4D;}
	.st8{fill:#005E9E;}
	.st9{fill:#248DFF;}
	.st10{fill:#0B4778;}
	.st11{fill:#112F4E;}
	.st12{fill:#6BA5C8;}
	.st13{fill:#468FBA;}
	.st14{fill:#80B690;}
	.st15{fill:#609C70;}
	.st16{fill:#418152;}
	.st17{fill:#DF635C;}
	.st18{fill:#E5827D;}
	.st19{fill:#ECA19D;}
	.st20{fill:#F2C1BE;}
	.st21{fill:#F9E0DE;}
	.st22{fill:#BA3932;}
	.st23{fill:#E99821;}
	.st24{fill:#F4C55C;}
	.st25{fill:#F6D17D;}
	.st26{fill:#F8DC9D;}
	.st27{fill:#FBE8BE;}
	.st28{fill:#FDF3DE;}
	.st29{fill:#54565A;}
	.st30{fill:#76767B;}
	.st31{fill:#989A9C;}
	.st32{fill:#BBBBBD;}
	.st33{fill:#37383B;}
	.st34{fill:#1C1D20;}
	.st35{fill:#99C5A6;}
	.st36{fill:#B3D3BC;}
	.st37{fill:#BFDBC7;}
	.st38{fill:#DFEDE3;}
	.st39{fill:#90BCD6;}
	.st40{fill:#B5D2E3;}
	.st41{fill:#DAE9F1;}
	.st42{fill:#FFFFFF;stroke:#1D1D1B;stroke-miterlimit:10;}
	.st43{fill:#FFFFFF;}
	.st44{fill:none;}
	.st45{fill:#A6534B;}
	.st46{fill:#54565A;stroke:#54565A;}
	.st47{fill:#E2C1AE;}
	.st48{fill:none;stroke:#6BA5C8;stroke-miterlimit:10;}
	.st49{fill:none;stroke:#031A54;}
	.st50{fill:#031A54;stroke:#031A54;}
	.st51{fill:#031A54;}
</style>
<rect x="-0.85" y="0.13" class="st0" width="862.58" height="279.75"/>
<rect x="36.49" y="35.97" class="st12" width="35" height="36.95"/>
<rect x="84.14" y="35.97" class="st13" width="35" height="36.95"/>
<rect x="791.43" y="35.15" transform="matrix(0.9935 -0.114 0.114 0.9935 -0.8401 92.5622)" class="st12" width="35" height="36.95"/>
<path class="st48" d="M827.55,259.6H34.41c-7.59,0-13.74-6.15-13.74-13.74V34.16c0-7.59,6.15-13.74,13.74-13.74h793.13
	c7.59,0,13.74,6.15,13.74,13.74v211.7C841.29,253.44,835.14,259.6,827.55,259.6z"/>
<rect x="38.12" y="34.28" class="st49" width="35" height="36.95"/>
<rect x="85.76" y="34.28" class="st49" width="35" height="36.95"/>
<rect x="751.65" y="102.26" class="st12" width="35" height="36.95"/>
<rect x="752.34" y="101.68" class="st49" width="35" height="36.95"/>
<rect x="793.05" y="33.47" transform="matrix(0.9935 -0.114 0.114 0.9935 -0.6372 92.7361)" class="st49" width="35" height="36.95"/>
<line class="st49" x1="50.59" y1="200.05" x2="131.14" y2="200.05"/>
<path class="st49" d="M701.72,49.61c0,0,52.88-10.78,53.32,38.09"/>
<g>
	<g>
		<path class="st41" d="M691.53,270.6l-1.55-0.03C690.46,270.68,690.97,270.71,691.53,270.6z"/>
		<path class="st41" d="M94.11,156.74c1.08-0.45,2.88-2.61,4.49-3.33c1.62-0.72,2.34-3.32,1.89-3.77s0.45-1.89,0.54-2.61
			s-1.26-0.54-2.16-0.45c-0.9,0.09-0.36-0.72-0.45-0.99s-1.98-0.45-3.24-0.18c-1.26,0.27-2.52,1.62-2.52,1.62
			c-2.4,0.82-4.32,2.84-5.1,3.76c0.38,1.14,1.3,4.18,1.35,6.6C90.51,157.28,93.34,157.05,94.11,156.74z"/>
		<path class="st41" d="M89.97,105.42c-1.17,0-1.44,1.35-1.44,1.35s-1.26,2.34-3.86,1.08c-2.61-1.26,1.78-4.23-1.71-3.86
			c-2.92,0.31-2.83,1.79-4.67,3.15c-0.31,0.23-1.5,0.21-1.89,0.45c-1.52,0.91-1.84,0.31-1.83-0.39c0.01-0.62-0.42-1.16-1.04-1.24
			c-0.32-0.04-0.66-0.1-1-0.19c1.91,3.71,3.6,8.65,3.6,8.65s0.03,0.16,0.08,0.4c0.72,0.25,1.62,0.41,2.34,0.05
			c1.44-0.72,3.68-2.34,6.74-1.89c0,0,3.41-4.67,4.94-5.48c1.42-0.75,4.78-3.29,5.1-4.8c-0.31,0.18-0.68,0.34-1.14,0.48
			C92.13,103.81,92.49,105.42,89.97,105.42z"/>
		<path class="st41" d="M96.09,100.57c-0.72-0.9-0.81-2.43-0.27-3.5s-3.68-5.12-4.49-6.56c-0.81-1.44-2.34-0.9-3.59-1.53
			s-0.09-2.52-1.62-1.98s-3.24,0.27-4.58,0.54c-0.74,0.15-1.21,1.09-1.48,1.9c-0.25,0.75-0.96,1.24-1.75,1.24
			c-2.79-0.63-3.68,1.71-5.03,2.07c-0.77,0.21-1.07,0.94-1.19,1.53c-0.1,0.52-0.37,0.98-0.8,1.28c-0.98,0.69-1.81,1.96-1.56,3.15
			c0.18,0.87,0.44,1.46,0.86,2.66c0.16,0.46,0.23,1.03,0.27,1.57c0.12,0.16,0.24,0.32,0.37,0.5c0.45,0.65,0.9,1.44,1.34,2.3
			c0.33,0.08,0.68,0.14,1,0.19c0.62,0.08,1.05,0.62,1.04,1.24c-0.01,0.7,0.31,1.31,1.83,0.39c0.39-0.23,1.57-0.22,1.89-0.45
			c1.84-1.36,1.75-2.84,4.67-3.15c3.49-0.37-0.9,2.61,1.71,3.86c2.61,1.26,3.86-1.08,3.86-1.08s0.27-1.35,1.44-1.35
			c2.52,0,2.16-1.62,4.22-2.25c0.46-0.14,0.83-0.31,1.14-0.48C96.43,102.07,96.64,101.27,96.09,100.57z"/>
		<path class="st41" d="M87.57,150.79c-0.1-0.29-0.16-0.47-0.16-0.47s-8.69,2.95-10.33,1.64c-1.24-0.99,2.16-9.61,4.27-17.06
			c0.69-2.43,0.61-4.17,0.72-6.02c0.27-4.67-2.15-8.36-4.31-10.87c-0.95-1.11-1.37-2.52-1.53-3.19c-0.06-0.25-0.08-0.4-0.08-0.4
			s-1.69-4.94-3.6-8.65c-0.44-0.86-0.89-1.65-1.34-2.3c-0.12-0.18-0.24-0.35-0.37-0.5c-0.28-0.35-0.55-0.65-0.81-0.86
			c-2.61-2.07-7.37-1.44-9.53-1.17c-1.32,0.17-5.9-1.33-10.51-2.16c-2.91-0.52-5.69-0.21-7.19-0.45c-3.86-0.63-7.91,2.43-9.26,3.41
			c-2.06,1.51-17.88,9.08-20.04,11.32c-2.16,2.25-1.17,5.66,0.99,7.64c2.16,1.98,1.89,7.01,2.43,8.99c0.54,1.98,2.07,2.25,2.07,2.25
			c-0.75,2.53-2.34,6.69-2.97,9.44c-2.73,12.03-3.33,23.52-3.67,27.46c-0.06,0.67,0.55,1.21,1.2,1.06c0.18-0.04,0.38-0.09,0.58-0.14
			c1.54-0.39,3.74-1.13,5.56-2.5c4.31-3.24,12.31-4.85,20.58-5.03c8.27-0.18,10.78-3.15,12.4-3.41c0.05-0.01,0.09-0.03,0.14-0.04
			c1.47-0.34,1.66-1.85,1.66-1.85l9.26-8.18c1.71,1.35,0.36,8.09,0.99,9.71c0.63,1.62,1.03,3.19,1.2,4.34
			c0.16,1.15,6.56,1.31,6.56,1.31s13.78-1.8,15.75-3.94c0.54-0.59,0.72-1.61,0.69-2.77C88.87,154.96,87.95,151.93,87.57,150.79z"/>
		<path class="st41" d="M31.36,260.52c-0.29,0.04-0.58,0.01-0.84-0.08c-0.31,3.22-0.51,8.41,1.33,9.21c0,0,6.74,0.84,8.76-2.36
			c2.02-3.2,2.19-3.54,6.4-4.72c4.21-1.18,7.07-4.04,5.22-7.07c-1.85-3.03-4.04-0.34-5.89-1.35c-0.46-0.25-1.16-0.55-1.95-0.87
			C41.23,258.41,34.6,260.03,31.36,260.52z"/>
		<path class="st41" d="M93.66,257.19c-0.67-4.21-3.87,0.34-7.92-1.68c-1.13-0.57-2.58-0.97-4.08-1.26c0.11,0.35,0.18,0.62,0.2,0.76
			c0.17,1.18-5.56,5.56-8.59,6.74c-1.68,0.65-3.1,0.53-4.23,0.12c-0.51,2.32-1.24,6.63,0.36,7.12c2.19,0.67,7.75-0.17,12.63-3.37
			C82.04,265.61,94.49,262.39,93.66,257.19z"/>
		<path class="st41" d="M81.66,254.24c-0.83-2.65-3.88-10.63-4.18-12.72c-0.34-2.36-3.2-21.72-6.06-26.61
			c-2.86-4.88-8.25-19.54-9.6-23.91c-1.35-4.38-5.73-20.55-7.07-23.58c-0.64-1.44-1.36-5.16-1.93-8.67
			c-0.05,0.01-0.09,0.03-0.14,0.04c-1.62,0.27-4.13,3.24-12.4,3.41c-8.27,0.18-16.27,1.8-20.58,5.03c-1.82,1.37-4.03,2.11-5.56,2.5
			c-0.56,5.41-0.92,14.02,1.21,20.75c3.37,10.61,7.24,32.5,7.41,36.71c0.17,4.21,3.2,10.95,4.38,15.16
			c0.92,3.29,1.84,12.62,2.2,16.57c0.07,0.72,0.55,1.29,1.19,1.5c0.26,0.09,0.54,0.13,0.84,0.08c3.24-0.49,9.87-2.1,13.02-7.23
			c0.03-0.05,0.07-0.09,0.1-0.14c0,0-2.36-7.58-4.38-12.8c-1.34-3.46-4.26-19.35-3.7-26.44c0.67-8.59,0.51-21.05,0.51-21.05
			s10.78,19.37,14.48,27.62c0.58,1.28,1.97,6.7,3.87,11.62c4.48,11.59,10.79,27.75,11.62,28.46c0.53,0.45,1.26,0.97,2.17,1.3
			c1.13,0.41,2.55,0.53,4.23-0.12c3.03-1.18,8.76-5.56,8.59-6.74C81.85,254.86,81.77,254.59,81.66,254.24z"/>
		<path class="st41" d="M146.49,173.8c0.22,0.03,0.49,0.09,0.77,0.16c0.74-0.17,1.18-0.26,1.18-0.26s-5.96-6.47-6.27-8.94
			c-0.31-2.47-4.31-10.07-13.04-7.81s-10.99,10.27-10.07,17.36c0.92,7.09,3.18,16.64,2.88,18.49c-0.31,1.85,3.49-1.64,3.8-4.52
			c0.31-2.88,0.72-7.7,0.72-7.7s5.96,9.71,5.96,6.88c0-0.48-0.76-3.62-0.56-5.96c0.19-2.17,1.35-3.58,1.43-3.62
			C136.9,173.4,144.16,173.52,146.49,173.8z"/>
		<path class="st41" d="M161.18,253.02c-0.16,5.27-1.21,5.1-3.7,7.16c-4.57,3.79,2.16,5.24,2.16,5.24s12.63,0.41,12.33-1.03
			c-0.31-1.44,5.55-14.17,5.03-16.84c-0.29-1.52-3.4-2.5-6.03-3.07c-0.15,0.06-0.3,0.13-0.46,0.19
			C167.2,247.98,162.71,252.33,161.18,253.02z"/>
		<path class="st41" d="M167.44,245.6c-1.07,0.23-1.96,0.4-2.75,0.54c-4.79,0.82-4.86-0.02-7.42-0.64
			c-2.86-0.69-34.2-16.19-36.61-17.38c0.86,4.01,2.2,8.7,3.95,9.88c1.59,1.08,5.12,3.99,9.96,5.55c4.84,1.55,10.99,1.75,18.49,2.36
			c0,0,2.34-0.21,3.59,1.23c1.88,2.17,3.08,6.27,4.31,5.96c0.06-0.02,0.13-0.04,0.21-0.08c1.52-0.69,6.02-5.03,9.33-8.35
			C169.55,245.04,168.53,245.36,167.44,245.6z"/>
		<path class="st41" d="M115.57,263.98c0,0-5.55,0.1-7.29-2.05c-0.19-0.23-0.37-0.98-0.54-2.14c-0.19,0.09-0.39,0.18-0.59,0.29
			c-4.78,2.58-14.9,8.97-16.95,9.35c-2.77,0.51-1.95,4.11-1.64,4.11c0.31,0,7.29,0.92,14.17,0c6.43-0.86,13.87,0.62,16.43-0.92
			c1.82-1.09,0.44-6.94-0.52-10.25C117.86,263.7,115.57,263.98,115.57,263.98z"/>
		<path class="st41" d="M170.73,221.25c-3.7-1.95-20.75-5.14-22.7-7.6l-15.54-6.47c-19.72-2.96-20.21,0.49-23.7,2.98
			c-3.21,2.29-2.49,40.03-1.06,49.63c0.17,1.15,0.35,1.9,0.54,2.14c1.75,2.16,7.29,2.05,7.29,2.05s2.28-0.28,3.07-1.62
			c0.28-0.48,0.38-1.09,0.11-1.87c-0.54-1.58,1.65-10.26,2.26-18.39c0.54-7.22-0.51-14.07-0.51-14.07s0.07,0.03,0.16,0.08
			c2.41,1.19,33.74,16.69,36.61,17.38c2.56,0.62,2.63,1.46,7.42,0.64c0.78-0.13,1.68-0.31,2.75-0.54c1.09-0.24,2.11-0.56,3.07-0.93
			c0.15-0.06,0.31-0.12,0.46-0.19c5.47-2.29,8.76-6.48,9.62-8.54c0.62-1.48,1.05-4.06,1.29-5.89
			C181.44,229.64,174.31,223.14,170.73,221.25z"/>
		<path class="st41" d="M678.29,98.89c-0.13-1.5-0.02-4.21,2.51-4.7c3.52-0.68,3.25-2.91,2.44-4.2c-0.81-1.29-2.23-4.74-2.37-5.76
			s0.61-1.9-1.42-1.9s-2.57-2.37-4.67-4.27c-1.35-1.22-3.25-1.23-4.44-1.09c0.1,0.16,0.19,0.33,0.26,0.51
			c0.22,0.59,0.4,1.29,0.4,2.07c0,0,1.76,0.14,2.3,1.63c0.54,1.49-0.34,2.84,0.74,3.25c1.08,0.41,2.1,1.35,1.42,2.17
			c-0.68,0.81-3.39,0.81-2.51,3.66c0.88,2.84-2.12,6.77-3.66,6.77c-1.42,0-1.63-0.47-1.35,1.9c0.08,0.74-0.44,1.55-1.04,2.01
			c0.14,0.66,0.25,1.45,0.35,2.24c2.69-0.73,5.69-2.46,7.32-3.47c0.76-0.48,1.63-0.72,2.53-0.74
			C677.44,98.96,677.85,98.94,678.29,98.89z"/>
		<path class="st41" d="M674.03,84.44c-1.08-0.41-0.2-1.76-0.74-3.25c-0.54-1.49-2.3-1.63-2.3-1.63c0-0.78-0.17-1.48-0.4-2.07
			c-0.07-0.18-0.16-0.35-0.26-0.51c-0.53-0.88-1.45-1.49-2.49-1.63c-1.57-0.21-3.98-0.25-6.14,0.9c-2.09,1.1-2.64,2.03-3.59,3.12
			c-0.95,1.08-0.47,1.49-1.56,1.83c-1.08,0.34,1.08,2.64,0.2,2.98c-0.88,0.34-5.66,2.53-4.4,3.39c1.29,0.88-1.27,2.88-0.52,5.39
			c0.74,2.51,2.5,5.67,5.02,5.1c1.55-0.35,3.26-1.39,3.23-0.94c0,0,0.14-0.27,1.15,1.83c1.02,2.1,3.72,1.83,4.47,2.3
			c0.31,0.2,0.77,0.04,1.2-0.29c0.6-0.46,1.12-1.27,1.04-2.01c-0.27-2.37-0.07-1.9,1.35-1.9c1.54,0,4.54-3.93,3.66-6.77
			c-0.88-2.84,1.83-2.84,2.51-3.66C676.13,85.79,675.11,84.84,674.03,84.44z"/>
		<path class="st41" d="M708.86,63.93c0,0,0.45-5.03,0.34-6.15c-0.11-1.12-1.01-0.22-2.24-1.12s-2.91-1.45-3.47-1.23
			c-0.56,0.22-0.78-1.12-1.68-1.57s-0.45,2.8-1.68,4.81c-1.23,2.01,1.68,6.04,2.01,6.26C702.15,64.94,703.94,62.7,708.86,63.93z"/>
		<path class="st41" d="M645.15,266.71c0.02,0.18,0.04,0.36,0.08,0.53c0.67,3.13,2.01,5.26,2.01,5.26l15.35,0.93
			c-3.6-1.63-7.16-6.51-10.87-7.75C648.77,264.69,646.39,265.85,645.15,266.71z"/>
		<path class="st41" d="M646.68,259.75c-0.07-0.12-0.14-0.25-0.21-0.38c-0.6,1.75-1.57,5.06-1.33,7.34
			c1.24-0.86,3.62-2.02,6.57-1.04c3.72,1.24,7.27,6.12,10.87,7.75l1.32,0.08c0,0,5.66-1.03,6.77-5.12c0.26-0.97-0.27-1.99-1.22-2.32
			c-0.81-0.28-2.06-0.77-3.98-1.62c-4.02-1.76-5.2-7.22-7.39-9.22c0.13,0.67,0.23,1.05,0.23,1.05
			C657.42,260.53,646.68,259.75,646.68,259.75z"/>
		<path class="st41" d="M683.25,264.11c-2.34-1.79-6.92-0.56-6.93-0.56c-0.02,0.56,0.01,1.1,0.11,1.57
			c0.26,1.21,0.62,2.26,0.96,3.11c0.53,1.3,1.78,2.16,3.18,2.19l9.41,0.16C687.04,269.89,685.27,265.65,683.25,264.11z"/>
		<path class="st41" d="M687.39,258.85c0.37,2.58-10.4,2.91-10.4,2.91s-0.11-0.43-0.27-1.12c-0.22,0.98-0.37,1.99-0.4,2.91
			c0.02,0,4.59-1.23,6.93,0.56c2.02,1.54,3.79,5.78,6.73,6.46l1.55,0.03c0,0,5.67-1.03,6.77-5.12c0.26-0.97-0.26-1.98-1.21-2.32
			c-0.81-0.28-3.15-1.36-4.55-2.93c-3.7-4.13-4.52-5.8-4.81-6.55C687.51,256.51,687.35,258.59,687.39,258.85z"/>
		<path class="st41" d="M690.17,160.09c-0.31,0.19-0.67,0.3-1.06,0.28c-6.28-0.25-26.61-1.16-31.53-2.8
			c-0.96,4.89-3.01,15.26-3.85,18.64c-1.12,4.47-3.13,7.83-1.12,18.01c2.01,10.18-2.12,19.24-2.12,19.24s-9.82,35.69-4.01,45.92
			c0.07,0.12,0.13,0.26,0.21,0.38c0,0,10.74,0.78,11.63-3.47c0,0-0.1-0.38-0.23-1.05c-0.29-1.52-0.69-4.55-0.22-8
			c0.89-6.6,3.91-32.54,6.37-37.46c0,0,8.05-17.22,7.49-24.38c0,0,4.36,24.49,4.59,29.64c0.22,5.14-2.57,28.52-2.01,33.33
			c0.44,3.76,1.83,9.82,2.41,12.3c0.16,0.69,0.27,1.12,0.27,1.12s10.77-0.32,10.4-2.91c-0.04-0.26,0.12-2.35,0.33-5.18
			c0.42-5.56,1.09-14,1.01-17.19c-0.11-4.81,0.45-20.24,1.12-24.94c0.67-4.7,2.24-17.67,1.79-21.25c-0.45-3.58-0.45-12.3,0.11-15.88
			C692.12,172.07,690.99,164.81,690.17,160.09z"/>
		<path class="st41" d="M750.25,169.99c1.14,1.14-0.79,1.94,2.03,2.03c2.82,0.09,5.62,2.26,7.13,2.99c0.48,0.23,1.02,0.64,1.58,1.15
			c0.79-1.37,2.29-3.62,3.17-2.74c0.86,0.86-0.47,3.28-1.35,4.65c0.77,0.89,1.54,1.89,2.27,2.88c0.31-0.34,0.85-0.98,0.85-1.36
			c0-0.53,0.26-1.23,0.7-1.59c0.44-0.35,1.32,0.44,1.5-0.09c0.18-0.53,0.97-0.7,1.32-0.97s0.97-0.7,1.06-1.32
			c0.09-0.62,0.7-0.88,1.23-1.23s0.35-1.59,0.62-2.29s-0.62-0.88-0.62-1.41s0.53-0.97,0.62-1.32c0.09-0.35-0.26-1.23-0.7-1.59
			c-0.15-0.12-0.18-0.34-0.15-0.59c0.08-0.74-0.18-1.47-0.78-1.92l-0.11-0.09c-0.17-0.13-0.24-0.33-0.2-0.54
			c0.06-0.27,0.11-0.65,0-0.91c-0.09-0.22-0.9-0.1-1.05-0.42c-0.15-0.32,0.35-1.08,0.35-1.43c0-0.7-0.88-0.88-1.67-1.06
			c-0.79-0.18-0.09-0.79-0.53-1.41c-0.44-0.62-0.35-1.5-1.06-1.67s-1.32-0.35-1.67-1.06s-2.11,0.09-2.91,0.09
			c-0.79,0-0.62-1.59-1.94-1.67s-1.06,0.35-1.23-0.09c-0.18-0.44-1.5-0.7-2.2,0.09s-0.79-0.09-1.59-0.44s-1.41,0.35-4.05,0.97
			c-2.64,0.62-1.14,0.97-1.67,1.14c-0.53,0.18-1.41-0.09-1.58,1.14c-0.18,1.23,0.62,2.2-1.59,2.11c-2.2-0.09-1.23,1.59-1.5,2.99
			c-0.26,1.41-0.18,1.14-1.67,1.41s0.18,1.85-0.09,2.2s-0.88,0.18-0.35,1.14c0.28,0.51,0.26,1.21,0.19,1.76
			c0.26,0.04,0.52,0.07,0.78,0.09C746.3,169.83,749.6,169.34,750.25,169.99z"/>
		<path class="st41" d="M764.17,173.43c-0.88-0.88-2.38,1.37-3.17,2.74c0.58,0.53,1.2,1.19,1.82,1.91
			C763.69,176.7,765.03,174.29,764.17,173.43z"/>
		<path class="st41" d="M750.25,215.53c0.05,0.29,0.1,0.58,0.18,0.87c0.35,1.4,0.76,2.57,1.22,3.56c2.89-3.37,6.86-7.54,10.57-10.27
			c-1.12-1.1-2.48-2.04-4.03-2.35C754.99,206.69,751.89,212,750.25,215.53z"/>
		<path class="st41" d="M777.43,201.87c-0.05-0.3-0.11-0.57-0.18-0.8c-0.69-2.19-6.32-9.46-9.31-13.23c-0.22,0.1-0.46,0.2-0.74,0.26
			c-0.92,0.21-2.3-0.34-3.83,0.3c-3.1,1.3-5.81,4.4-4.14,9.69c0.18,0.56,0.02,1.44,0.05,2.14c1.67,2.84,3.49,5.91,4.83,8.19
			c0.98,1.67,1.72,2.91,1.96,3.31c1.03,1.72,3.61,1.8,4.38,1.63s3.18,1.63,5.07,1.03C777.28,213.83,778.07,205.5,777.43,201.87z"/>
		<path class="st41" d="M765.08,180.95c-0.73-0.99-1.5-1.98-2.27-2.88c-0.62-0.72-1.24-1.38-1.82-1.91
			c-0.57-0.52-1.1-0.92-1.58-1.15c-1.51-0.74-4.31-2.91-7.13-2.99c-2.82-0.09-0.88-0.88-2.03-2.03c-0.66-0.66-3.95-0.16-6.87-0.35
			c-0.27-0.02-0.53-0.05-0.78-0.09c-1.84-0.27-3.39-0.98-4.15-0.88c-2.03,0.26-1.59,3.26-1.59,3.26
			c-10.13,3.96-16.03,13.21-24.22,30.03c-8.19,16.82-6.6,39.8-4.49,40.51c0.17,0.06,0.44,0.1,0.79,0.14
			c3.91,0.44,18.07-0.32,22.19-2.34c4.49-2.2,7.22-2.29,13.47-4.76s11.89-10.39,11.89-10.39s-1.81-0.4-3.59-2.92
			c-0.43-0.61-0.87-1.35-1.27-2.24c-0.45-0.99-0.87-2.16-1.22-3.56c-0.07-0.29-0.13-0.58-0.18-0.87
			c-1.29-7.72,4.86-17.42,5.37-16.74c0.53,0.7,3.87,2.2,3.87,2.2c-0.14-0.19-0.19-0.46-0.21-0.77c-0.04-0.7,0.12-1.58-0.05-2.14
			c-1.67-5.28,1.04-8.39,4.14-9.69c1.52-0.64,2.91-0.09,3.83-0.3c0.29-0.07,0.53-0.16,0.74-0.26c0.81-0.39,1.16-0.94,1.16-0.94
			S767.29,183.94,765.08,180.95z"/>
		<path class="st41" d="M734.3,268.25c-2.41-1.55,0.09-6.7,0.09-6.7s0.43-1.03-1.72-1.12l-1.43-1.12l-6.54-5.09
			c-3.28,0.16-6.18,2.87-6.46,5.09c-0.26,2.1,2.44,10.8,3.73,14.77c0.39,1.22,1.48,2.07,2.75,2.16c3.99,0.28,12.4,0.66,13.71-1.03
			C740.14,272.98,736.7,269.8,734.3,268.25z"/>
		<path class="st41" d="M735.67,253.22c-2.92-0.34-7.65-1.29-8.59-0.43c-0.38,0.34-1.49,0.74-2.9,1.04l0.51,0.4l6.54,5.09l1.43,1.12
			l6.41-7.68C737.74,253.14,736.6,253.33,735.67,253.22z"/>
		<path class="st41" d="M783.78,205.11c-2.13-2.79-4.19-3.55-6.35-3.24c0.64,3.63-0.15,11.96-1.9,12.52c-1.89,0.6-4.3-1.2-5.07-1.03
			s-3.35,0.09-4.38-1.63c-0.24-0.4-0.97-1.64-1.96-3.31c-0.62,0.38-1.26,0.8-1.91,1.28c-3.7,2.72-7.67,6.89-10.57,10.27
			c0.41,0.89,0.84,1.63,1.27,2.24c1.78,2.52,3.59,2.92,3.59,2.92s-5.64,7.93-11.89,10.39s-8.98,2.55-13.47,4.76
			c-4.13,2.02-18.29,2.78-22.19,2.34c-0.24,1.84-0.47,3.93-0.43,5.03c0.09,2.23,5.41,5.33,8.76,6.27c2.01,0.57,4.78,0.36,6.89-0.08
			c1.41-0.29,2.53-0.69,2.9-1.04c0.95-0.86,5.67,0.09,8.59,0.43c0.93,0.11,2.07-0.08,3.4-0.46c2.86-0.82,6.58-2.56,10.86-4.26
			c6.27-2.49,10.05-7.99,10.05-7.99c1.29,4.38-3.69,16.84-3.69,16.84c2,0.44,6,1.11,9.63,1.64c3.52,0.51,6.71,0.89,7.38,0.76
			c1.37-0.26,0.69-2.75,0.69-2.75c-0.43-7.99,7.9-30.41,9.45-34.11S789.28,212.32,783.78,205.11z"/>
		<path class="st41" d="M754.74,264.3c0.07-0.23,0.15-0.53,0.24-0.88c-0.94,0.62-2.46,1.91-2.22,3.71c0.34,2.58,0.21,5.53,2.06,6.62
			c1.48,0.87,5.28,0.64,8.08,0.26c1.24-0.17,1.55-3.09,3.01-3.26c1.46-0.17,2.58-1.63,2.58-2.06c0-0.2-0.64-0.88-1.29-2.15
			c-0.51-1-1.06-2.28-1.78-3.15l-0.11,1C765.31,264.39,754.23,265.93,754.74,264.3z"/>
		<path class="st41" d="M756.29,257.34c0,0-0.76,3.94-1.3,6.08c-0.09,0.35-0.17,0.65-0.24,0.88c-0.52,1.63,10.57,0.09,10.57,0.09
			l0.11-1l0.49-4.4C762.29,258.45,758.29,257.78,756.29,257.34z"/>
		<path class="st41" d="M809.39,94.11l-0.82-0.9c-0.05,0.06-0.1,0.13-0.15,0.19c-0.63,0.67-1.51,1.45-2.42,1.79
			c-1.75,0.66-0.87,1.42-2.73,1.2c-1.86-0.22-3.6-0.33-4.26,0.22c-0.66,0.55-3.17-0.55-3.17-0.55s-1.09,1.31-3.06,0.98
			s-3.93-0.98-4.81-0.87c-0.45,0.06-1.35-0.66-2.41-1.28c1.31,2.06,5.51,8.15,9.35,8.6c2.83,0.33,5.98-0.22,6.74,0.11
			c0.4,0.17,1.15,1.14,1.78,2.04C805.52,100.98,808.22,95.25,809.39,94.11z"/>
		<path class="st41" d="M808.92,90.22c-0.15-0.29-0.36-0.54-0.63-0.7c-1.09-0.66-1.53-2.07-2.18-4.04c-0.55-1.66-1.86-1.2-2.18-3.06
			c-0.33-1.86-5.13-4.48-6.66-6.12c-1.53-1.64-4.8-2.07-6.12-1.31s-2.62,2.4-3.71,2.84c-0.6,0.24-1.13,1.32-1.53,2.4
			c-0.32,0.89-0.41,1.73-1.64,2.62c-1.18,0.85-2.65,0.58-3.39,1.53c-0.97,1.25-1.03,3.72-1.09,4.59c-0.11,1.53-0.87,1.53-0.87,2.62
			s2.73,2.73,3.49,2.51c1.03-0.29,2.16,0.21,3.16,0.79c1.06,0.62,1.96,1.34,2.41,1.28c0.87-0.11,2.84,0.55,4.81,0.87
			s3.06-0.98,3.06-0.98s2.51,1.09,3.17,0.55c0.66-0.55,2.4-0.44,4.26-0.22c1.86,0.22,0.98-0.55,2.73-1.2
			c0.91-0.34,1.78-1.12,2.42-1.79c0.06-0.06,0.1-0.12,0.15-0.19C809.24,92.36,809.44,91.18,808.92,90.22z"/>
		<path class="st41" d="M789.64,111.65c0.05-0.17,0.68-0.35,1.65-0.54c-0.4-1.08-1.57-3.02-4.97-3.97c-3.2-0.9-5.22,1.96-5.82,2.07
			c-0.6,0.11-5.49,0.92-4.79,1.96c0.71,1.03,2.07,1.74,2.07,1.74s-0.42,0.28,0.54,1.14c0.3,0.27,1.47,0.8,2.01,1.25
			c2.28,1.9,2.72,2.72,5,2.39c1.32-0.19,3.18-0.51,4.64-0.88C789.63,114.85,789.49,112.15,789.64,111.65z"/>
		<path class="st41" d="M804.64,115.73c0-0.38-0.16-0.75-0.44-1.01l-2.23-2.08c-0.72-0.44-1.01-1.34-0.67-2.12
			c0.08-0.19,0.17-0.41,0.27-0.63c-2.19,0.15-7.56,0.69-10.29,1.22c-0.96,0.19-1.6,0.37-1.65,0.54c-0.14,0.5,0,3.21,0.34,5.16
			c0.18,1.02,0.41,1.83,0.69,2.02c0.82,0.54,5.49,1.74,8.54,1.69c1.2-0.02,3.27-0.02,5.33,0c0-0.03,0-0.07,0-0.1
			C804.61,118.58,804.64,116.67,804.64,115.73z"/>
		<path class="st41" d="M799.99,160.12c0,0-2.44-0.09-3.25-0.72c-0.3-0.24-0.19-0.51,0.18-0.76c-1.26-0.12-2.57-0.14-2.7,0.22
			c-0.18,0.47,1.76,2.33,3.13,3.56C799.64,162.15,799.99,160.12,799.99,160.12z"/>
		<path class="st41" d="M804.84,157.83c-1.68-0.06-3.63-0.1-4.67-0.06c-1.3,0.06-2.64,0.43-3.25,0.86
			c-0.37,0.25-0.48,0.53-0.18,0.76c0.81,0.63,3.25,0.72,3.25,0.72s-0.35,2.03-2.64,2.3c-0.11,0.01-0.21,0.04-0.33,0.05
			c-2.62,0.09-2.98-0.09-2.71,0.54s1.35,1.17,3.25,1.71c1.9,0.54,0.99,1.17,3.34,2.17c2.35,0.99,3.07,2.35,8.3-0.54
			c0.35-0.19,0.68-0.38,0.99-0.57C808.13,163.91,805.36,159.52,804.84,157.83z"/>
		<path class="st41" d="M850,144.88c-2.5-1.79-4.02-9.95-5.6-13c-1.58-3.05-4.41-7.99-6.58-11.42c-2.18-3.43-1.9-9.03-7.12-16.48
			c-5.22-7.45-11.53-8.48-13.54-8.27c-2.01,0.22-2.18,0.6-2.83,0.27s-3.05-2.66-4.68-2.07c-0.07,0.03-0.16,0.1-0.26,0.19
			c-1.17,1.14-3.87,6.87-5.95,11.52c-0.73,1.64-1.38,3.13-1.86,4.25c-0.1,0.22-0.19,0.44-0.27,0.63c-0.33,0.78-0.04,1.68,0.67,2.12
			l2.23,2.08c0.28,0.26,0.44,0.63,0.44,1.01c-0.01,0.94-0.03,2.85-0.11,4.68c0,0.03,0,0.07,0,0.1c-0.05,2.66,2.18,10.84,2.39,12.02
			c0.22,1.2,3.81,10.6,4.51,12.94c0.71,2.34,1.31,6.8,0.54,7.89c-0.76,1.09-6.96,2.77-7.23,3.92c-0.03,0.12,0.01,0.32,0.09,0.56
			c0.52,1.69,3.29,6.08,5.34,7.95c0.55,0.5,1.05,0.82,1.43,0.85c2.01,0.16,4.13-2.66,4.57-3.64c0.39-0.89,1.15-0.17,2.14-0.19
			c0.1,0,0.2,0,0.31-0.02c1.14-0.22,11.47,2.12,21.97,2.01c6.36-0.07,10.8-1.84,13.33-3.24c1.65-0.91,2.49-1.66,2.49-1.66
			S852.5,146.67,850,144.88z"/>
		<path class="st41" d="M819.03,265.25c-0.03-0.21,0.03-1.12,0.17-2.49c-2.95,1.57-8.2,4.48-10.38,4.77
			c-2.93,0.39-7.32,1.66-6.44,4.1c0.88,2.44,2.93,0.98,7.32,1.76c4.39,0.78,13.07,2.15,17.17,1.85c4.1-0.29,6.34-0.98,6.54-2.05
			c0.11-0.63,0.3-3.34,0.43-5.48C825.9,271.04,819.21,266.4,819.03,265.25z"/>
		<path class="st41" d="M842.88,268.27c-0.64-0.32-1.08-0.94-1.14-1.66c-0.08-0.93-0.17-2.39-0.14-4.12
			c-2.06,1.27-4.81,3.17-4.98,4.46c-0.05,0.35,0.22,1.37,0.39,1.56c0.8,0.92,1.74-0.01,3.02,0.88c1.56,1.07,6.73,3.61,10.83,2.93
			c4.1-0.68,3.71-2.44,3.71-2.93c0-0.15,0.04-0.83,0.09-1.68c-0.39,0.36-0.86,0.69-1.43,0.97
			C848.94,270.76,844.76,269.21,842.88,268.27z"/>
		<path class="st41" d="M856.39,253.07c-0.18-1.17-1.35-6.86-0.63-11.82c0,0,0.36-9.02,0.27-14.8c-0.09-5.78-1.17-21.66-1.8-25.09
			c-0.63-3.43-2.8-9.93-2.53-11.55c0.16-0.94,2.98-7.77,3.7-14.98c0.45-4.51-0.31-8.86-1.47-13.29c-2.53,1.39-6.98,3.17-13.33,3.24
			c-10.5,0.11-20.83-2.23-21.97-2.01c-0.11,0.02-0.21,0.02-0.31,0.02c-0.16,5.73-0.45,18.62,0.18,21.33
			c0.81,3.52,1.8,14.17,1.99,17.78c0.18,3.61-0.79,21.18,0,24.09c1.62,5.96,2.98,6.95,2.08,11.55c-0.74,3.76-2.74,19.1-3.35,25.22
			c-0.14,1.36-0.2,2.27-0.17,2.49c0.18,1.15,6.87,5.79,14.8,2.46c0.15-0.06,0.3-0.11,0.45-0.18c0,0,0.31-1.21,0.49-5.37
			c0.18-4.15,2.13-16.59,2.31-20.47c0.18-3.88,0-11.73-0.63-14.98c-0.63-3.25-1.17-2.62-0.81-4.69c0.36-2.08-0.54-5.59-0.54-7.22
			s2.62-9.29,2.62-9.29s2.42,16.1,2.33,18.8c-0.05,1.46,2.45,12.82,2.83,24.2c0.15,4.51-0.91,8.41-1.17,11.9
			c-0.05,0.72-0.08,1.42-0.09,2.08c-0.03,1.73,0.06,3.19,0.14,4.12c0.06,0.72,0.5,1.33,1.14,1.66c1.88,0.94,6.06,2.5,10.34,0.41
			c0.58-0.28,1.04-0.61,1.43-0.97c1.87-1.75,1.82-4.37,1.82-7.06C856.48,257.4,856.57,254.24,856.39,253.07z"/>
		<g>
			<path class="st41" d="M138.4,201.79c-0.12-0.12-1.28-2.33-3.17-2.65s-3.54,0.44-2.53,0.76c2.04,0.64,3.45,3.45,2.12,3.41
				c-1.32-0.04-2-1.12-2.08-0.68c-0.05,0.29,0.86,2.09,1.5,3.28l4.62-3.34L138.4,201.79z"/>
			<path class="st41" d="M182.34,217.45c0-0.62-6.75-22.46-9.04-26.29c-3.77-6.32-11.4-9.66-14.28-11.51
				c-2.63-1.69-8.76-4.91-11.76-5.69c-0.28-0.07-0.55-0.13-0.77-0.16c-2.34-0.28-9.59-0.4-13.2,4.08c-0.36,0.45-0.7,0.92-0.97,1.47
				c-1.95,3.8,2.57,14.79,2.57,14.79l4.01,8.42l-0.03,0.02l-4.62,3.34l-1.75,1.27l15.54,6.47c1.95,2.47,19,5.65,22.7,7.6
				c3.58,1.89,10.71,8.39,11.15,8.79c0.01,0.01,0.04,0.04,0.04,0.04C183.47,228.14,182.34,218.07,182.34,217.45z"/>
		</g>
		<g>
			<path class="st41" d="M642.82,120.67c-1.28-0.28-0.71,1.14-0.71,2.21c0,1.07-1.35,1.14-1.57,2.06c-0.13,0.58-0.27,2.31-0.35,3.53
				l4.81-6.66C644.41,121.38,643.56,120.83,642.82,120.67z"/>
			<path class="st41" d="M646.12,135.84c-0.01,0.06-0.04,0.13-0.07,0.2c1.18-0.8,2.6-1.91,2.81-2.77c0.1-0.41-0.05-1.28-0.3-2.3
				l-2.89,3.64C645.68,134.61,646.35,134.83,646.12,135.84z"/>
			<path class="st41" d="M711.88,79.03c-1.34-4.33-3.02-15.1-3.02-15.1c-4.92-1.23-6.71,1.01-6.71,1.01s0.89,11.41-0.22,17.11
				c-1.12,5.7-5.93,6.71-11.3,10.4s-6.26,3.13-8.61,5.03c-1.09,0.88-2.52,1.26-3.73,1.41c-0.44,0.05-0.84,0.08-1.2,0.09
				c-0.9,0.02-1.77,0.27-2.53,0.74c-1.62,1.02-4.63,2.75-7.31,3.47c-0.66,0.18-1.29,0.3-1.89,0.33c-4.14,0.22-4.79,0.05-8.5,1.9
				c-3.8,1.9-9.95,13.76-9.95,13.76l-1.9,2.63l-4.81,6.66l-4.92,6.81c0.67,5.59,4.92,3.8,6.6,3.91c1.57,0.1,3.74-2.05,4.18-3.15
				c0.03-0.07,0.05-0.14,0.07-0.2c0.22-1.01-0.45-1.23-0.45-1.23l2.89-3.64l7.4-9.33c0,0-0.56,2.8,0.78,4.81
				c2.69,4.04,2.24,5.48,2.91,7.72c0.67,2.24,2.12,4.47,2.68,8.05c0.56,3.58-7.05,12.41-5.82,14.76c0.11,0.21,0.49,0.41,1.06,0.6
				c4.92,1.63,25.24,2.55,31.53,2.8c0.39,0.02,0.76-0.09,1.06-0.28c0.51-0.31,0.86-0.86,0.89-1.51c0.27-5.31,1.02-20.27,1.02-21.74
				c0-1.79,2.46-6.37,1.45-11.52c-1.01-5.14-1.79-14.54-1.79-14.54c-0.88-7.22,15.62-20.41,19.83-23.65
				c0.68-0.53,1.12-1.32,1.16-2.18C712.81,83.72,712.71,81.7,711.88,79.03z"/>
		</g>
	</g>
	<g>
		<path class="st44" d="M758.15,201.44c0,0-3.35-1.5-3.87-2.2c-0.51-0.68-6.66,9.02-5.37,16.74c1.63-3.53,4.74-8.84,7.93-8.19
			c1.55,0.32,2.91,1.25,4.03,2.35c0.65-0.48,1.29-0.91,1.91-1.28c-1.35-2.28-3.16-5.36-4.83-8.19
			C757.95,200.98,758.01,201.25,758.15,201.44z"/>
		<path class="st44" d="M690.18,271.05l-1.55-0.03C689.11,271.13,689.62,271.16,690.18,271.05z"/>
		<path class="st13" d="M92.76,157.19c1.08-0.45,2.88-2.61,4.49-3.33c1.62-0.72,2.34-3.32,1.89-3.77s0.45-1.89,0.54-2.61
			s-1.26-0.54-2.16-0.45c-0.9,0.09-0.36-0.72-0.45-0.99s-1.98-0.45-3.24-0.18c-1.26,0.27-2.52,1.62-2.52,1.62
			c-2.4,0.82-4.32,2.84-5.1,3.76c0.38,1.14,1.3,4.18,1.35,6.6C89.16,157.73,91.99,157.5,92.76,157.19z"/>
		<path class="st13" d="M88.62,105.87c-1.17,0-1.44,1.35-1.44,1.35s-1.26,2.34-3.86,1.08c-2.61-1.26,1.78-4.23-1.71-3.86
			c-2.92,0.31-2.83,1.79-4.67,3.15c-0.31,0.23-1.5,0.21-1.89,0.45c-1.52,0.91-1.84,0.31-1.83-0.39c0.01-0.62-0.42-1.16-1.04-1.24
			c-0.32-0.04-0.66-0.1-1-0.19c1.91,3.71,3.6,8.65,3.6,8.65s0.03,0.16,0.08,0.4c0.72,0.25,1.62,0.41,2.34,0.05
			c1.44-0.72,3.68-2.34,6.74-1.89c0,0,3.41-4.67,4.94-5.48c1.42-0.75,4.78-3.29,5.1-4.8c-0.31,0.18-0.68,0.34-1.14,0.48
			C90.78,104.26,91.14,105.87,88.62,105.87z"/>
		<path class="st50" d="M94.73,101.02c-0.72-0.9-0.81-2.43-0.27-3.5s-3.68-5.12-4.49-6.56c-0.81-1.44-2.34-0.9-3.59-1.53
			s-0.09-2.52-1.62-1.98s-3.24,0.27-4.58,0.54c-0.74,0.15-1.21,1.09-1.48,1.9c-0.25,0.75-0.96,1.24-1.75,1.24
			c-2.79-0.63-3.68,1.71-5.03,2.07c-0.77,0.21-1.07,0.94-1.19,1.53c-0.1,0.52-0.37,0.98-0.8,1.28c-0.98,0.69-1.81,1.96-1.56,3.15
			c0.18,0.87,0.44,1.46,0.86,2.66c0.16,0.46,0.23,1.03,0.27,1.57c0.12,0.16,0.24,0.32,0.37,0.5c0.45,0.65,0.9,1.44,1.34,2.3
			c0.33,0.08,0.68,0.14,1,0.19c0.62,0.08,1.05,0.62,1.04,1.24c-0.01,0.7,0.31,1.31,1.83,0.39c0.39-0.23,1.57-0.22,1.89-0.45
			c1.84-1.36,1.75-2.84,4.67-3.15c3.49-0.37-0.9,2.61,1.71,3.86c2.61,1.26,3.86-1.08,3.86-1.08s0.27-1.35,1.44-1.35
			c2.52,0,2.16-1.62,4.22-2.25c0.46-0.14,0.83-0.31,1.14-0.48C95.08,102.52,95.29,101.72,94.73,101.02z"/>
		<path class="st0" d="M86.22,151.24c-0.1-0.29-0.16-0.47-0.16-0.47s-8.69,2.95-10.33,1.64c-1.24-0.99,2.16-9.61,4.27-17.06
			c0.69-2.43,0.61-4.17,0.72-6.02c0.27-4.67-2.15-8.36-4.31-10.87c-0.95-1.11-1.37-2.52-1.53-3.19c-0.06-0.25-0.08-0.4-0.08-0.4
			s-1.69-4.94-3.6-8.65c-0.44-0.86-0.89-1.65-1.34-2.3c-0.12-0.18-0.24-0.35-0.37-0.5c-0.28-0.35-0.55-0.65-0.81-0.86
			c-2.61-2.07-7.37-1.44-9.53-1.17c-1.32,0.17-5.9-1.33-10.51-2.16c-2.91-0.52-5.69-0.21-7.19-0.45c-3.86-0.63-7.91,2.43-9.26,3.41
			c-2.06,1.51-17.88,9.08-20.04,11.32c-2.16,2.25-1.17,5.66,0.99,7.64c2.16,1.98,1.89,7.01,2.43,8.99c0.54,1.98,2.07,2.25,2.07,2.25
			c-0.75,2.53-2.34,6.69-2.97,9.44c-2.73,12.03-3.33,23.52-3.67,27.46c-0.06,0.67,0.55,1.21,1.2,1.06c0.18-0.04,0.38-0.09,0.58-0.14
			c1.54-0.39,3.74-1.13,5.56-2.5c4.31-3.24,12.31-4.85,20.58-5.03c8.27-0.18,10.78-3.15,12.4-3.41c0.05-0.01,0.09-0.03,0.14-0.04
			c1.47-0.34,1.66-1.85,1.66-1.85l9.26-8.18c1.71,1.35,0.36,8.09,0.99,9.71c0.63,1.62,1.03,3.19,1.2,4.34
			c0.16,1.15,6.56,1.31,6.56,1.31s13.78-1.8,15.75-3.94c0.54-0.59,0.72-1.61,0.69-2.77C87.52,155.42,86.59,152.38,86.22,151.24z"/>
		<path class="st50" d="M30.01,260.97c-0.29,0.04-0.58,0.01-0.84-0.08c-0.31,3.22-0.51,8.41,1.33,9.21c0,0,6.74,0.84,8.76-2.36
			c2.02-3.2,2.19-3.54,6.4-4.72c4.21-1.18,7.07-4.04,5.22-7.07c-1.85-3.03-4.04-0.34-5.89-1.35c-0.46-0.25-1.16-0.55-1.95-0.87
			C39.87,258.86,33.25,260.48,30.01,260.97z"/>
		<path class="st50" d="M92.3,257.64c-0.67-4.21-3.87,0.34-7.92-1.68c-1.13-0.57-2.58-0.97-4.08-1.26c0.11,0.35,0.18,0.62,0.2,0.76
			c0.17,1.18-5.56,5.56-8.59,6.74c-1.68,0.65-3.1,0.53-4.23,0.12c-0.51,2.32-1.24,6.63,0.36,7.12c2.19,0.67,7.75-0.17,12.63-3.37
			C80.68,266.06,93.13,262.84,92.3,257.64z"/>
		<path class="st13" d="M80.31,254.69c-0.83-2.65-3.88-10.63-4.18-12.72c-0.34-2.36-3.2-21.72-6.06-26.61
			c-2.86-4.88-8.25-19.54-9.6-23.91c-1.35-4.38-5.73-20.55-7.07-23.58c-0.64-1.44-1.36-5.16-1.93-8.67
			c-0.05,0.01-0.09,0.03-0.14,0.04c-1.62,0.27-4.13,3.24-12.4,3.41c-8.27,0.18-16.27,1.8-20.58,5.03c-1.82,1.37-4.03,2.11-5.56,2.5
			c-0.56,5.41-0.92,14.02,1.21,20.75c3.37,10.61,7.24,32.5,7.41,36.71c0.17,4.21,3.2,10.95,4.38,15.16
			c0.92,3.29,1.84,12.62,2.2,16.57c0.07,0.72,0.55,1.29,1.19,1.5c0.26,0.09,0.54,0.13,0.84,0.08c3.24-0.49,9.87-2.1,13.02-7.23
			c0.03-0.05,0.07-0.09,0.1-0.14c0,0-2.36-7.58-4.38-12.8c-1.34-3.46-4.26-19.35-3.7-26.44c0.67-8.59,0.51-21.05,0.51-21.05
			s10.78,19.37,14.48,27.62c0.58,1.28,1.97,6.7,3.87,11.62c4.48,11.59,10.79,27.75,11.62,28.46c0.53,0.45,1.26,0.97,2.17,1.3
			c1.13,0.41,2.55,0.53,4.23-0.12c3.03-1.18,8.76-5.56,8.59-6.74C80.49,255.31,80.42,255.04,80.31,254.69z"/>
		<path class="st39" d="M145.14,174.25c0.22,0.03,0.49,0.09,0.77,0.16c0.74-0.17,1.18-0.26,1.18-0.26s-5.96-6.47-6.27-8.94
			c-0.31-2.47-4.31-10.07-13.04-7.81s-10.99,10.27-10.07,17.36c0.92,7.09,3.18,16.64,2.88,18.49c-0.31,1.85,3.49-1.64,3.8-4.52
			c0.31-2.88,0.72-7.7,0.72-7.7s5.96,9.71,5.96,6.88c0-0.48-0.76-3.62-0.56-5.96c0.19-2.17,1.35-3.58,1.43-3.62
			C135.55,173.85,142.8,173.97,145.14,174.25z"/>
		<path class="st50" d="M159.83,253.47c-0.16,5.27-1.21,5.1-3.7,7.16c-4.57,3.79,2.16,5.24,2.16,5.24s12.63,0.41,12.33-1.03
			c-0.31-1.44,5.55-14.17,5.03-16.84c-0.29-1.52-3.4-2.5-6.03-3.07c-0.15,0.06-0.3,0.13-0.46,0.19
			C165.85,248.43,161.36,252.78,159.83,253.47z"/>
		<path class="st12" d="M166.09,246.05c-1.07,0.23-1.96,0.4-2.75,0.54c-4.79,0.82-4.86-0.02-7.42-0.64
			c-2.86-0.69-34.2-16.19-36.61-17.38c0.86,4.01,2.2,8.7,3.95,9.88c1.59,1.08,5.12,3.99,9.96,5.55c4.84,1.55,10.99,1.75,18.49,2.36
			c0,0,2.34-0.21,3.59,1.23c1.88,2.17,3.08,6.27,4.31,5.96c0.06-0.02,0.13-0.04,0.21-0.08c1.52-0.69,6.02-5.03,9.33-8.35
			C168.2,245.49,167.18,245.81,166.09,246.05z"/>
		<path class="st50" d="M114.22,264.43c0,0-5.55,0.1-7.29-2.05c-0.19-0.23-0.37-0.98-0.54-2.14c-0.19,0.09-0.39,0.18-0.59,0.29
			c-4.78,2.58-14.9,8.97-16.95,9.35c-2.77,0.51-1.95,4.11-1.64,4.11c0.31,0,7.29,0.92,14.17,0c6.43-0.86,13.87,0.62,16.43-0.92
			c1.82-1.09,0.44-6.94-0.52-10.25C116.51,264.15,114.22,264.43,114.22,264.43z"/>
		<path class="st12" d="M169.38,221.7c-3.7-1.95-20.75-5.14-22.7-7.6l-15.54-6.47c-19.72-2.96-20.21,0.49-23.7,2.98
			c-3.21,2.29-2.49,40.03-1.06,49.63c0.17,1.15,0.35,1.9,0.54,2.14c1.75,2.16,7.29,2.05,7.29,2.05s2.28-0.28,3.07-1.62
			c0.28-0.48,0.38-1.09,0.11-1.87c-0.54-1.58,1.65-10.26,2.26-18.39c0.54-7.22-0.51-14.07-0.51-14.07s0.07,0.03,0.16,0.08
			c2.41,1.19,33.74,16.69,36.61,17.38c2.56,0.62,2.63,1.46,7.42,0.64c0.78-0.13,1.68-0.31,2.75-0.54c1.09-0.24,2.11-0.56,3.07-0.93
			c0.15-0.06,0.31-0.12,0.46-0.19c5.47-2.29,8.76-6.48,9.62-8.54c0.62-1.48,1.05-4.06,1.29-5.89
			C180.08,230.09,172.96,223.59,169.38,221.7z"/>
		<path class="st40" d="M676.94,99.34c-0.13-1.5-0.02-4.21,2.51-4.7c3.52-0.68,3.25-2.91,2.44-4.2c-0.81-1.29-2.23-4.74-2.37-5.76
			s0.61-1.9-1.42-1.9s-2.57-2.37-4.67-4.27c-1.35-1.22-3.25-1.23-4.44-1.09c0.1,0.16,0.19,0.33,0.26,0.51
			c0.22,0.59,0.4,1.29,0.4,2.07c0,0,1.76,0.14,2.3,1.63c0.54,1.49-0.34,2.84,0.74,3.25c1.08,0.41,2.1,1.35,1.42,2.17
			c-0.68,0.81-3.39,0.81-2.51,3.66c0.88,2.84-2.12,6.77-3.66,6.77c-1.42,0-1.63-0.47-1.35,1.9c0.08,0.74-0.44,1.55-1.04,2.01
			c0.14,0.66,0.25,1.45,0.35,2.24c2.69-0.73,5.69-2.46,7.31-3.47c0.76-0.48,1.63-0.72,2.53-0.74
			C676.09,99.42,676.5,99.39,676.94,99.34z"/>
		<path class="st13" d="M672.68,84.89c-1.08-0.41-0.2-1.76-0.74-3.25c-0.54-1.49-2.3-1.63-2.3-1.63c0-0.78-0.17-1.48-0.4-2.07
			c-0.07-0.18-0.16-0.35-0.26-0.51c-0.53-0.88-1.45-1.49-2.49-1.63c-1.57-0.21-3.98-0.25-6.14,0.9c-2.09,1.1-2.64,2.03-3.59,3.12
			c-0.95,1.08-0.47,1.49-1.56,1.83c-1.08,0.34,1.08,2.64,0.2,2.98c-0.88,0.34-5.66,2.53-4.4,3.39c1.29,0.88-1.27,2.88-0.52,5.39
			c0.74,2.51,2.5,5.67,5.02,5.1c1.55-0.35,3.26-1.39,3.23-0.94c0,0,0.14-0.27,1.15,1.83c1.02,2.1,3.72,1.83,4.47,2.3
			c0.31,0.2,0.77,0.04,1.2-0.29c0.6-0.46,1.12-1.27,1.04-2.01c-0.27-2.37-0.07-1.9,1.35-1.9c1.54,0,4.54-3.93,3.66-6.77
			c-0.88-2.84,1.83-2.84,2.51-3.66C674.78,86.24,673.76,85.29,672.68,84.89z"/>
		<path class="st40" d="M707.51,64.38c0,0,0.45-5.03,0.34-6.15c-0.11-1.12-1.01-0.22-2.24-1.12s-2.91-1.45-3.47-1.23
			c-0.56,0.22-0.78-1.12-1.68-1.57s-0.45,2.8-1.68,4.81c-1.23,2.01,1.68,6.04,2.01,6.26C700.8,65.39,702.59,63.15,707.51,64.38z"/>
		<path class="st51" d="M643.8,267.16c0.02,0.18,0.04,0.36,0.08,0.53c0.67,3.13,2.01,5.26,2.01,5.26l15.35,0.93
			c-3.6-1.63-7.16-6.51-10.87-7.75C647.42,265.14,645.04,266.31,643.8,267.16z"/>
		<path class="st0" d="M645.33,260.2c-0.07-0.12-0.14-0.25-0.21-0.38c-0.6,1.75-1.57,5.06-1.33,7.34c1.24-0.86,3.62-2.02,6.57-1.04
			c3.72,1.24,7.27,6.12,10.87,7.75l1.32,0.08c0,0,5.66-1.03,6.77-5.12c0.26-0.97-0.27-1.99-1.22-2.32
			c-0.81-0.28-2.06-0.77-3.98-1.62c-4.02-1.76-5.2-7.22-7.39-9.22c0.13,0.67,0.23,1.05,0.23,1.05
			C656.07,260.98,645.33,260.2,645.33,260.2z"/>
		<path class="st51" d="M681.9,264.56c-2.34-1.79-6.92-0.56-6.93-0.56c-0.02,0.56,0.01,1.1,0.11,1.57c0.26,1.21,0.62,2.26,0.96,3.11
			c0.53,1.3,1.78,2.16,3.18,2.19l9.41,0.16C685.69,270.34,683.92,266.1,681.9,264.56z"/>
		<path class="st0" d="M686.04,259.31c0.37,2.58-10.4,2.91-10.4,2.91s-0.11-0.43-0.27-1.12c-0.22,0.98-0.37,1.99-0.4,2.91
			c0.02,0,4.59-1.23,6.93,0.56c2.02,1.54,3.79,5.78,6.73,6.46l1.55,0.03c0,0,5.67-1.03,6.77-5.12c0.26-0.97-0.26-1.98-1.21-2.32
			c-0.81-0.28-3.15-1.36-4.55-2.93c-3.7-4.13-4.52-5.8-4.81-6.55C686.15,256.96,686,259.04,686.04,259.31z"/>
		<path class="st12" d="M688.82,160.54c-0.31,0.19-0.67,0.3-1.06,0.28c-6.28-0.25-26.61-1.16-31.53-2.8
			c-0.96,4.89-3.01,15.26-3.85,18.64c-1.12,4.47-3.13,7.83-1.12,18.01c2.01,10.18-2.12,19.24-2.12,19.24s-9.82,35.69-4.01,45.92
			c0.07,0.12,0.13,0.26,0.21,0.38c0,0,10.74,0.78,11.63-3.47c0,0-0.1-0.38-0.23-1.05c-0.29-1.52-0.69-4.55-0.22-8
			c0.89-6.6,3.91-32.54,6.37-37.46c0,0,8.05-17.22,7.49-24.38c0,0,4.36,24.49,4.59,29.64c0.22,5.14-2.57,28.52-2.01,33.33
			c0.44,3.76,1.83,9.82,2.41,12.3c0.16,0.69,0.27,1.12,0.27,1.12s10.77-0.32,10.4-2.91c-0.04-0.26,0.12-2.35,0.33-5.18
			c0.42-5.56,1.09-14,1.01-17.19c-0.11-4.81,0.45-20.24,1.12-24.94c0.67-4.7,2.24-17.67,1.79-21.25c-0.45-3.58-0.45-12.3,0.11-15.88
			C690.77,172.52,689.64,165.26,688.82,160.54z"/>
		<path class="st13" d="M762.81,173.88c-0.88-0.88-2.38,1.37-3.17,2.74c0.58,0.53,1.2,1.19,1.82,1.91
			C762.34,177.15,763.68,174.74,762.81,173.88z"/>
		<path class="st12" d="M748.9,215.98c0.05,0.29,0.1,0.58,0.18,0.87c0.35,1.4,0.76,2.57,1.22,3.56c2.89-3.37,6.86-7.54,10.57-10.27
			c-1.12-1.1-2.48-2.04-4.03-2.35C753.64,207.14,750.53,212.45,748.9,215.98z"/>
		<path class="st13" d="M776.08,202.32c-0.05-0.3-0.11-0.57-0.18-0.8c-0.69-2.19-6.32-9.46-9.31-13.23c-0.22,0.1-0.46,0.2-0.74,0.26
			c-0.92,0.21-2.3-0.34-3.83,0.3c-3.1,1.3-5.81,4.4-4.14,9.69c0.18,0.56,0.02,1.44,0.05,2.14c1.67,2.84,3.49,5.91,4.83,8.19
			c0.98,1.67,1.72,2.91,1.96,3.31c1.03,1.72,3.61,1.8,4.38,1.63s3.18,1.63,5.07,1.03C775.93,214.28,776.72,205.95,776.08,202.32z"/>
		<path class="st13" d="M763.73,181.4c-0.73-0.99-1.5-1.98-2.27-2.88c-0.62-0.72-1.24-1.38-1.82-1.91c-0.57-0.52-1.1-0.92-1.58-1.15
			c-1.51-0.74-4.31-2.91-7.13-2.99c-2.82-0.09-0.88-0.88-2.03-2.03c-0.66-0.66-3.95-0.16-6.87-0.35c-0.27-0.02-0.53-0.05-0.78-0.09
			c-1.84-0.27-3.39-0.98-4.15-0.88c-2.03,0.26-1.59,3.26-1.59,3.26c-10.13,3.96-16.03,13.21-24.22,30.03
			c-8.19,16.82-6.6,39.8-4.49,40.51c0.17,0.06,0.44,0.1,0.79,0.14c3.91,0.44,18.07-0.32,22.19-2.34c4.49-2.2,7.22-2.29,13.47-4.76
			s11.89-10.39,11.89-10.39s-1.81-0.4-3.59-2.92c-0.43-0.61-0.87-1.35-1.27-2.24c-0.45-0.99-0.87-2.16-1.22-3.56
			c-0.07-0.29-0.13-0.58-0.18-0.87c-1.29-7.72,4.86-17.42,5.37-16.74c0.53,0.7,3.87,2.2,3.87,2.2c-0.14-0.19-0.19-0.46-0.21-0.77
			c-0.04-0.7,0.12-1.58-0.05-2.14c-1.67-5.28,1.04-8.39,4.14-9.69c1.52-0.64,2.91-0.09,3.83-0.3c0.29-0.07,0.53-0.16,0.74-0.26
			c0.81-0.39,1.16-0.94,1.16-0.94S765.94,184.39,763.73,181.4z"/>
		<path class="st51" d="M732.94,268.7c-2.41-1.55,0.09-6.7,0.09-6.7s0.43-1.03-1.72-1.12l-1.43-1.12l-6.54-5.09
			c-3.28,0.16-6.18,2.87-6.46,5.09c-0.26,2.1,2.44,10.8,3.73,14.77c0.39,1.22,1.48,2.07,2.75,2.16c3.99,0.28,12.4,0.66,13.71-1.03
			C738.79,273.43,735.35,270.25,732.94,268.7z"/>
		<path class="st13" d="M734.32,253.67c-2.92-0.34-7.65-1.29-8.59-0.43c-0.38,0.34-1.49,0.74-2.9,1.04l0.51,0.4l6.54,5.09l1.43,1.12
			l6.41-7.68C736.39,253.59,735.25,253.78,734.32,253.67z"/>
		<path class="st12" d="M782.43,205.56c-2.13-2.79-4.19-3.55-6.35-3.24c0.64,3.63-0.15,11.96-1.9,12.52c-1.89,0.6-4.3-1.2-5.07-1.03
			s-3.35,0.09-4.38-1.63c-0.24-0.4-0.97-1.64-1.96-3.31c-0.62,0.38-1.26,0.8-1.91,1.28c-3.7,2.72-7.67,6.89-10.57,10.27
			c0.41,0.89,0.84,1.63,1.27,2.24c1.78,2.52,3.59,2.92,3.59,2.92s-5.64,7.93-11.89,10.39s-8.98,2.55-13.47,4.76
			c-4.13,2.02-18.29,2.78-22.19,2.34c-0.24,1.84-0.47,3.93-0.43,5.03c0.09,2.23,5.41,5.33,8.76,6.27c2.01,0.57,4.78,0.36,6.89-0.08
			c1.41-0.29,2.53-0.69,2.9-1.04c0.95-0.86,5.67,0.09,8.59,0.43c0.93,0.11,2.07-0.08,3.4-0.46c2.86-0.82,6.58-2.56,10.86-4.26
			c6.27-2.49,10.05-7.99,10.05-7.99c1.29,4.38-3.69,16.84-3.69,16.84c2,0.44,6,1.11,9.63,1.64c3.52,0.51,6.71,0.89,7.38,0.76
			c1.37-0.26,0.69-2.75,0.69-2.75c-0.43-7.99,7.9-30.41,9.45-34.11S787.93,212.77,782.43,205.56z"/>
		<path class="st51" d="M753.39,264.75c0.07-0.23,0.15-0.53,0.24-0.88c-0.94,0.62-2.46,1.91-2.22,3.71
			c0.34,2.58,0.21,5.53,2.06,6.62c1.48,0.87,5.28,0.64,8.08,0.26c1.24-0.17,1.55-3.09,3.01-3.26c1.46-0.17,2.58-1.63,2.58-2.06
			c0-0.2-0.64-0.88-1.29-2.15c-0.51-1-1.06-2.28-1.78-3.15l-0.11,1C763.96,264.84,752.88,266.38,753.39,264.75z"/>
		<path class="st13" d="M754.94,257.79c0,0-0.76,3.94-1.3,6.08c-0.09,0.35-0.17,0.65-0.24,0.88c-0.52,1.63,10.57,0.09,10.57,0.09
			l0.11-1l0.49-4.4C760.94,258.91,756.94,258.23,754.94,257.79z"/>
		<path class="st40" d="M808.04,94.56l-0.82-0.9c-0.05,0.06-0.1,0.13-0.15,0.19c-0.63,0.67-1.51,1.45-2.42,1.79
			c-1.75,0.66-0.87,1.42-2.73,1.2c-1.86-0.22-3.6-0.33-4.26,0.22c-0.66,0.55-3.17-0.55-3.17-0.55s-1.09,1.31-3.06,0.98
			s-3.93-0.98-4.81-0.87c-0.45,0.06-1.35-0.66-2.41-1.28c1.31,2.06,5.51,8.15,9.35,8.6c2.83,0.33,5.98-0.22,6.74,0.11
			c0.4,0.17,1.15,1.14,1.78,2.04C804.16,101.43,806.87,95.7,808.04,94.56z"/>
		<path class="st39" d="M807.57,90.67c-0.15-0.29-0.36-0.54-0.63-0.7c-1.09-0.66-1.53-2.07-2.18-4.04c-0.55-1.66-1.86-1.2-2.18-3.06
			c-0.33-1.86-5.13-4.48-6.66-6.12c-1.53-1.64-4.8-2.07-6.12-1.31s-2.62,2.4-3.71,2.84c-0.6,0.24-1.13,1.32-1.53,2.4
			c-0.32,0.89-0.41,1.73-1.64,2.62c-1.18,0.85-2.65,0.58-3.39,1.53c-0.97,1.25-1.03,3.72-1.09,4.59c-0.11,1.53-0.87,1.53-0.87,2.62
			s2.73,2.73,3.49,2.51c1.03-0.29,2.16,0.21,3.16,0.79c1.06,0.62,1.96,1.34,2.41,1.28c0.87-0.11,2.84,0.55,4.81,0.87
			s3.06-0.98,3.06-0.98s2.51,1.09,3.17,0.55c0.66-0.55,2.4-0.44,4.26-0.22c1.86,0.22,0.98-0.55,2.73-1.2
			c0.91-0.34,1.78-1.12,2.42-1.79c0.06-0.06,0.1-0.12,0.15-0.19C807.89,92.81,808.08,91.63,807.57,90.67z"/>
		<path class="st40" d="M788.28,112.1c0.05-0.17,0.68-0.35,1.65-0.54c-0.4-1.08-1.57-3.02-4.97-3.97c-3.2-0.9-5.22,1.96-5.82,2.07
			c-0.6,0.11-5.49,0.92-4.79,1.96c0.71,1.03,2.07,1.74,2.07,1.74s-0.42,0.28,0.54,1.14c0.3,0.27,1.47,0.8,2.01,1.25
			c2.28,1.9,2.72,2.72,5,2.39c1.32-0.19,3.18-0.51,4.64-0.88C788.28,115.3,788.14,112.6,788.28,112.1z"/>
		<path class="st12" d="M803.29,116.18c0-0.38-0.16-0.75-0.44-1.01l-2.23-2.08c-0.72-0.44-1.01-1.34-0.67-2.12
			c0.08-0.19,0.17-0.41,0.27-0.63c-2.19,0.15-7.56,0.69-10.29,1.22c-0.96,0.19-1.6,0.37-1.65,0.54c-0.14,0.5,0,3.21,0.34,5.16
			c0.18,1.02,0.41,1.83,0.69,2.02c0.82,0.54,5.49,1.74,8.54,1.69c1.2-0.02,3.27-0.02,5.33,0c0-0.03,0-0.07,0-0.1
			C803.26,119.03,803.28,117.12,803.29,116.18z"/>
		<path class="st40" d="M798.64,160.57c0,0-2.44-0.09-3.25-0.72c-0.3-0.24-0.19-0.51,0.18-0.76c-1.26-0.12-2.57-0.14-2.7,0.22
			c-0.18,0.47,1.76,2.33,3.13,3.56C798.28,162.6,798.64,160.57,798.64,160.57z"/>
		<path class="st40" d="M803.49,158.28c-1.68-0.06-3.63-0.1-4.67-0.06c-1.3,0.06-2.64,0.43-3.25,0.86
			c-0.37,0.25-0.48,0.53-0.18,0.76c0.81,0.63,3.25,0.72,3.25,0.72s-0.35,2.03-2.64,2.3c-0.11,0.01-0.21,0.04-0.33,0.05
			c-2.62,0.09-2.98-0.09-2.71,0.54s1.35,1.17,3.25,1.71c1.9,0.54,0.99,1.17,3.34,2.17c2.35,0.99,3.07,2.35,8.3-0.54
			c0.35-0.19,0.68-0.38,0.99-0.57C806.78,164.36,804,159.97,803.49,158.28z"/>
		<path class="st12" d="M848.65,145.33c-2.5-1.79-4.02-9.95-5.6-13c-1.58-3.05-4.41-7.99-6.58-11.42c-2.18-3.43-1.9-9.03-7.12-16.48
			c-5.22-7.45-11.53-8.48-13.54-8.27c-2.01,0.22-2.18,0.6-2.83,0.27s-3.05-2.66-4.68-2.07c-0.07,0.03-0.16,0.1-0.26,0.19
			c-1.17,1.14-3.87,6.87-5.95,11.52c-0.73,1.64-1.38,3.13-1.86,4.25c-0.1,0.22-0.19,0.44-0.27,0.63c-0.33,0.78-0.04,1.68,0.67,2.12
			l2.23,2.08c0.28,0.26,0.44,0.63,0.44,1.01c-0.01,0.94-0.03,2.85-0.11,4.68c0,0.03,0,0.07,0,0.1c-0.05,2.66,2.18,10.84,2.39,12.02
			c0.22,1.2,3.81,10.6,4.51,12.94c0.71,2.34,1.31,6.8,0.54,7.89c-0.76,1.09-6.96,2.77-7.23,3.92c-0.03,0.12,0.01,0.32,0.09,0.56
			c0.52,1.69,3.29,6.08,5.34,7.95c0.55,0.5,1.05,0.82,1.43,0.85c2.01,0.16,4.13-2.66,4.57-3.64c0.39-0.89,1.15-0.17,2.14-0.19
			c0.1,0,0.2,0,0.31-0.02c1.14-0.22,11.47,2.12,21.97,2.01c6.36-0.07,10.8-1.84,13.33-3.24c1.65-0.91,2.49-1.66,2.49-1.66
			S851.15,147.12,848.65,145.33z"/>
		<path class="st12" d="M817.68,265.7c-0.03-0.21,0.03-1.12,0.17-2.49c-2.95,1.57-8.2,4.48-10.38,4.77
			c-2.93,0.39-7.32,1.66-6.44,4.1c0.88,2.44,2.93,0.98,7.32,1.76c4.39,0.78,13.07,2.15,17.17,1.85c4.1-0.29,6.34-0.98,6.54-2.05
			c0.11-0.63,0.3-3.34,0.43-5.48C824.55,271.49,817.85,266.85,817.68,265.7z"/>
		<path class="st12" d="M841.53,268.72c-0.64-0.32-1.08-0.94-1.14-1.66c-0.08-0.93-0.17-2.39-0.14-4.12
			c-2.06,1.27-4.81,3.17-4.98,4.46c-0.05,0.35,0.22,1.37,0.39,1.56c0.8,0.92,1.74-0.01,3.02,0.88c1.56,1.07,6.73,3.61,10.83,2.93
			c4.1-0.68,3.71-2.44,3.71-2.93c0-0.15,0.04-0.83,0.09-1.68c-0.39,0.36-0.86,0.69-1.43,0.97
			C847.59,271.21,843.41,269.66,841.53,268.72z"/>
		<path class="st0" d="M855.03,253.52c-0.18-1.17-1.35-6.86-0.63-11.82c0,0,0.36-9.02,0.27-14.8c-0.09-5.78-1.17-21.66-1.8-25.09
			c-0.63-3.43-2.8-9.93-2.53-11.55c0.16-0.94,2.98-7.77,3.7-14.98c0.45-4.51-0.31-8.86-1.47-13.29c-2.53,1.39-6.98,3.17-13.33,3.24
			c-10.5,0.11-20.83-2.23-21.97-2.01c-0.11,0.02-0.21,0.02-0.31,0.02c-0.16,5.73-0.45,18.62,0.18,21.33
			c0.81,3.52,1.8,14.17,1.99,17.78c0.18,3.61-0.79,21.18,0,24.09c1.62,5.96,2.98,6.95,2.08,11.55c-0.74,3.76-2.74,19.1-3.35,25.22
			c-0.14,1.36-0.2,2.27-0.17,2.49c0.18,1.15,6.87,5.79,14.8,2.46c0.15-0.06,0.3-0.11,0.45-0.18c0,0,0.31-1.21,0.49-5.37
			c0.18-4.15,2.13-16.59,2.31-20.47c0.18-3.88,0-11.73-0.63-14.98c-0.63-3.25-1.17-2.62-0.81-4.69c0.36-2.08-0.54-5.59-0.54-7.22
			s2.62-9.29,2.62-9.29s2.42,16.1,2.33,18.8c-0.05,1.46,2.45,12.82,2.83,24.2c0.15,4.51-0.91,8.41-1.17,11.9
			c-0.05,0.72-0.08,1.42-0.09,2.08c-0.03,1.73,0.06,3.19,0.14,4.12c0.06,0.72,0.5,1.33,1.14,1.66c1.88,0.94,6.06,2.5,10.34,0.41
			c0.58-0.28,1.04-0.61,1.43-0.97c1.87-1.75,1.82-4.37,1.82-7.06C855.13,257.85,855.22,254.69,855.03,253.52z"/>
		<g>
			<path class="st39" d="M137.05,202.24c-0.12-0.12-1.28-2.33-3.17-2.65s-3.54,0.44-2.53,0.76c2.04,0.64,3.45,3.45,2.12,3.41
				c-1.32-0.04-2-1.12-2.08-0.68c-0.05,0.29,0.86,2.09,1.5,3.28l4.62-3.34L137.05,202.24z"/>
			<path class="st13" d="M180.98,217.9c0-0.62-6.75-22.46-9.04-26.29c-3.77-6.32-11.4-9.66-14.28-11.51
				c-2.63-1.69-8.76-4.91-11.76-5.69c-0.28-0.07-0.55-0.13-0.77-0.16c-2.34-0.28-9.59-0.4-13.2,4.08c-0.36,0.45-0.7,0.92-0.97,1.47
				c-1.95,3.8,2.57,14.79,2.57,14.79l4.01,8.42l-0.03,0.02l-4.62,3.34l-1.75,1.27l15.54,6.47c1.95,2.47,19,5.65,22.7,7.6
				c3.58,1.89,10.71,8.39,11.15,8.79c0.01,0.01,0.04,0.04,0.04,0.04C182.11,228.59,180.98,218.52,180.98,217.9z"/>
		</g>
		<g>
			<path class="st40" d="M641.46,121.12c-1.28-0.28-0.71,1.14-0.71,2.21c0,1.07-1.35,1.14-1.57,2.06c-0.13,0.58-0.27,2.31-0.35,3.53
				l4.81-6.66C643.06,121.83,642.21,121.29,641.46,121.12z"/>
			<path class="st40" d="M644.77,136.29c-0.01,0.06-0.04,0.13-0.07,0.2c1.18-0.8,2.6-1.91,2.81-2.77c0.1-0.41-0.05-1.28-0.3-2.3
				l-2.89,3.64C644.32,135.06,645,135.28,644.77,136.29z"/>
			<path class="st0" d="M710.53,79.48c-1.34-4.33-3.02-15.1-3.02-15.1c-4.92-1.23-6.71,1.01-6.71,1.01s0.89,11.41-0.22,17.11
				c-1.12,5.7-5.93,6.71-11.3,10.4s-6.26,3.13-8.61,5.03c-1.09,0.88-2.52,1.26-3.73,1.41c-0.44,0.05-0.84,0.08-1.2,0.09
				c-0.9,0.02-1.77,0.27-2.53,0.74c-1.62,1.02-4.63,2.75-7.31,3.47c-0.66,0.18-1.29,0.3-1.89,0.33c-4.14,0.22-4.79,0.05-8.5,1.9
				c-3.8,1.9-9.95,13.76-9.95,13.76l-1.9,2.63l-4.81,6.66l-4.92,6.81c0.67,5.59,4.92,3.8,6.6,3.91c1.57,0.1,3.74-2.05,4.18-3.15
				c0.03-0.07,0.05-0.14,0.07-0.2c0.22-1.01-0.45-1.23-0.45-1.23l2.89-3.64l7.4-9.33c0,0-0.56,2.8,0.78,4.81
				c2.69,4.04,2.24,5.48,2.91,7.72c0.67,2.24,2.12,4.47,2.68,8.05c0.56,3.58-7.05,12.41-5.82,14.76c0.11,0.21,0.49,0.41,1.06,0.6
				c4.92,1.63,25.24,2.55,31.53,2.8c0.39,0.02,0.76-0.09,1.06-0.28c0.51-0.31,0.86-0.86,0.89-1.51c0.27-5.31,1.02-20.27,1.02-21.74
				c0-1.79,2.46-6.37,1.45-11.52c-1.01-5.14-1.79-14.54-1.79-14.54c-0.88-7.22,15.62-20.41,19.83-23.65
				c0.68-0.53,1.12-1.32,1.16-2.18C711.46,84.17,711.36,82.15,710.53,79.48z"/>
		</g>
	</g>
	<g>
		<path class="st44" d="M759.43,201.38c0,0-3.35-1.5-3.87-2.2c-0.51-0.68-6.66,9.02-5.37,16.74c1.63-3.53,4.74-8.84,7.93-8.19
			c1.55,0.32,2.91,1.25,4.03,2.35c0.65-0.48,1.29-0.91,1.91-1.28c-1.35-2.28-3.16-5.36-4.83-8.19
			C759.24,200.92,759.29,201.19,759.43,201.38z"/>
		<path class="st44" d="M691.46,270.99l-1.55-0.03C690.39,271.07,690.9,271.1,691.46,270.99z"/>
		<path class="st49" d="M94.04,157.13c1.08-0.45,2.88-2.61,4.49-3.33c1.62-0.72,2.34-3.32,1.89-3.77s0.45-1.89,0.54-2.61
			s-1.26-0.54-2.16-0.45c-0.9,0.09-0.36-0.72-0.45-0.99s-1.98-0.45-3.24-0.18c-1.26,0.27-2.52,1.62-2.52,1.62
			c-2.4,0.82-4.32,2.84-5.1,3.76c0.38,1.14,1.3,4.18,1.35,6.6C90.44,157.67,93.27,157.44,94.04,157.13z"/>
		<path class="st49" d="M89.9,105.81c-1.17,0-1.44,1.35-1.44,1.35s-1.26,2.34-3.86,1.08c-2.61-1.26,1.78-4.23-1.71-3.86
			c-2.92,0.31-2.83,1.79-4.67,3.15c-0.31,0.23-1.5,0.21-1.89,0.45c-1.52,0.91-1.84,0.31-1.83-0.39c0.01-0.62-0.42-1.16-1.04-1.24
			c-0.32-0.04-0.66-0.1-1-0.19c1.91,3.71,3.6,8.65,3.6,8.65s0.03,0.16,0.08,0.4c0.72,0.25,1.62,0.41,2.34,0.05
			c1.44-0.72,3.68-2.34,6.74-1.89c0,0,3.41-4.67,4.94-5.48c1.42-0.75,4.78-3.29,5.1-4.8c-0.31,0.18-0.68,0.34-1.14,0.48
			C92.06,104.2,92.42,105.81,89.9,105.81z"/>
		<path class="st50" d="M96.02,100.96c-0.72-0.9-0.81-2.43-0.27-3.5s-3.68-5.12-4.49-6.56c-0.81-1.44-2.34-0.9-3.59-1.53
			s-0.09-2.52-1.62-1.98s-3.24,0.27-4.58,0.54c-0.74,0.15-1.21,1.09-1.48,1.9c-0.25,0.75-0.96,1.24-1.75,1.24
			c-2.79-0.63-3.68,1.71-5.03,2.07c-0.77,0.21-1.07,0.94-1.19,1.53c-0.1,0.52-0.37,0.98-0.8,1.28c-0.98,0.69-1.81,1.96-1.56,3.15
			c0.18,0.87,0.44,1.46,0.86,2.66c0.16,0.46,0.23,1.03,0.27,1.57c0.12,0.16,0.24,0.32,0.37,0.5c0.45,0.65,0.9,1.44,1.34,2.3
			c0.33,0.08,0.68,0.14,1,0.19c0.62,0.08,1.05,0.62,1.04,1.24c-0.01,0.7,0.31,1.31,1.83,0.39c0.39-0.23,1.57-0.22,1.89-0.45
			c1.84-1.36,1.75-2.84,4.67-3.15c3.49-0.37-0.9,2.61,1.71,3.86c2.61,1.26,3.86-1.08,3.86-1.08s0.27-1.35,1.44-1.35
			c2.52,0,2.16-1.62,4.22-2.25c0.46-0.14,0.83-0.31,1.14-0.48C96.36,102.46,96.57,101.66,96.02,100.96z"/>
		<path class="st49" d="M87.5,151.18c-0.1-0.29-0.16-0.47-0.16-0.47s-8.69,2.95-10.33,1.64c-1.24-0.99,2.16-9.61,4.27-17.06
			c0.69-2.43,0.61-4.17,0.72-6.02c0.27-4.67-2.15-8.36-4.31-10.87c-0.95-1.11-1.37-2.52-1.53-3.19c-0.06-0.25-0.08-0.4-0.08-0.4
			s-1.69-4.94-3.6-8.65c-0.44-0.86-0.89-1.65-1.34-2.3c-0.12-0.18-0.24-0.35-0.37-0.5c-0.28-0.35-0.55-0.65-0.81-0.86
			c-2.61-2.07-7.37-1.44-9.53-1.17c-1.32,0.17-5.9-1.33-10.51-2.16c-2.91-0.52-5.69-0.21-7.19-0.45c-3.86-0.63-7.91,2.43-9.26,3.41
			c-2.06,1.51-17.88,9.08-20.04,11.32c-2.16,2.25-1.17,5.66,0.99,7.64c2.16,1.98,1.89,7.01,2.43,8.99c0.54,1.98,2.07,2.25,2.07,2.25
			c-0.75,2.53-2.34,6.69-2.97,9.44c-2.73,12.03-3.33,23.52-3.67,27.46c-0.06,0.67,0.55,1.21,1.2,1.06c0.18-0.04,0.38-0.09,0.58-0.14
			c1.54-0.39,3.74-1.13,5.56-2.5c4.31-3.24,12.31-4.85,20.58-5.03c8.27-0.18,10.78-3.15,12.4-3.41c0.05-0.01,0.09-0.03,0.14-0.04
			c1.47-0.34,1.66-1.85,1.66-1.85l9.26-8.18c1.71,1.35,0.36,8.09,0.99,9.71c0.63,1.62,1.03,3.19,1.2,4.34
			c0.16,1.15,6.56,1.31,6.56,1.31s13.78-1.8,15.75-3.94c0.54-0.59,0.72-1.61,0.69-2.77C88.8,155.36,87.88,152.32,87.5,151.18z"/>
		<path class="st49" d="M31.29,260.91c-0.29,0.04-0.58,0.01-0.84-0.08c-0.31,3.22-0.51,8.41,1.33,9.21c0,0,6.74,0.84,8.76-2.36
			c2.02-3.2,2.19-3.54,6.4-4.72c4.21-1.18,7.07-4.04,5.22-7.07c-1.85-3.03-4.04-0.34-5.89-1.35c-0.46-0.25-1.16-0.55-1.95-0.87
			C41.16,258.8,34.53,260.42,31.29,260.91z"/>
		<path class="st49" d="M93.59,257.58c-0.67-4.21-3.87,0.34-7.92-1.68c-1.13-0.57-2.58-0.97-4.08-1.26c0.11,0.35,0.18,0.62,0.2,0.76
			c0.17,1.18-5.56,5.56-8.59,6.74c-1.68,0.65-3.1,0.53-4.23,0.12c-0.51,2.32-1.24,6.63,0.36,7.12c2.19,0.67,7.75-0.17,12.63-3.37
			C81.97,266,94.42,262.78,93.59,257.58z"/>
		<path class="st49" d="M81.59,254.63c-0.83-2.65-3.88-10.63-4.18-12.72c-0.34-2.36-3.2-21.72-6.06-26.61
			c-2.86-4.88-8.25-19.54-9.6-23.91c-1.35-4.38-5.73-20.55-7.07-23.58c-0.64-1.44-1.36-5.16-1.93-8.67
			c-0.05,0.01-0.09,0.03-0.14,0.04c-1.62,0.27-4.13,3.24-12.4,3.41c-8.27,0.18-16.27,1.8-20.58,5.03c-1.82,1.37-4.03,2.11-5.56,2.5
			c-0.56,5.41-0.92,14.02,1.21,20.75c3.37,10.61,7.24,32.5,7.41,36.71c0.17,4.21,3.2,10.95,4.38,15.16
			c0.92,3.29,1.84,12.62,2.2,16.57c0.07,0.72,0.55,1.29,1.19,1.5c0.26,0.09,0.54,0.13,0.84,0.08c3.24-0.49,9.87-2.1,13.02-7.23
			c0.03-0.05,0.07-0.09,0.1-0.14c0,0-2.36-7.58-4.38-12.8c-1.34-3.46-4.26-19.35-3.7-26.44c0.67-8.59,0.51-21.05,0.51-21.05
			s10.78,19.37,14.48,27.62c0.58,1.28,1.97,6.7,3.87,11.62c4.48,11.59,10.79,27.75,11.62,28.46c0.53,0.45,1.26,0.97,2.17,1.3
			c1.13,0.41,2.55,0.53,4.23-0.12c3.03-1.18,8.76-5.56,8.59-6.74C81.78,255.25,81.7,254.98,81.59,254.63z"/>
		<path class="st49" d="M146.42,174.19c0.22,0.03,0.49,0.09,0.77,0.16c0.74-0.17,1.18-0.26,1.18-0.26s-5.96-6.47-6.27-8.94
			c-0.31-2.47-4.31-10.07-13.04-7.81s-10.99,10.27-10.07,17.36c0.92,7.09,3.18,16.64,2.88,18.49c-0.31,1.85,3.49-1.64,3.8-4.52
			c0.31-2.88,0.72-7.7,0.72-7.7s5.96,9.71,5.96,6.88c0-0.48-0.76-3.62-0.56-5.96c0.19-2.17,1.35-3.58,1.43-3.62
			C136.83,173.79,144.09,173.91,146.42,174.19z"/>
		<path class="st49" d="M161.11,253.41c-0.16,5.27-1.21,5.1-3.7,7.16c-4.57,3.79,2.16,5.24,2.16,5.24s12.63,0.41,12.33-1.03
			c-0.31-1.44,5.55-14.17,5.03-16.84c-0.29-1.52-3.4-2.5-6.03-3.07c-0.15,0.06-0.3,0.13-0.46,0.19
			C167.13,248.37,162.64,252.72,161.11,253.41z"/>
		<path class="st49" d="M167.37,245.99c-1.07,0.23-1.96,0.4-2.75,0.54c-4.79,0.82-4.86-0.02-7.42-0.64
			c-2.86-0.69-34.2-16.19-36.61-17.38c0.86,4.01,2.2,8.7,3.95,9.88c1.59,1.08,5.12,3.99,9.96,5.55c4.84,1.55,10.99,1.75,18.49,2.36
			c0,0,2.34-0.21,3.59,1.23c1.88,2.17,3.08,6.27,4.31,5.96c0.06-0.02,0.13-0.04,0.21-0.08c1.52-0.69,6.02-5.03,9.33-8.35
			C169.48,245.43,168.46,245.75,167.37,245.99z"/>
		<path class="st49" d="M115.5,264.37c0,0-5.55,0.1-7.29-2.05c-0.19-0.23-0.37-0.98-0.54-2.14c-0.19,0.09-0.39,0.18-0.59,0.29
			c-4.78,2.58-14.9,8.97-16.95,9.35c-2.77,0.51-1.95,4.11-1.64,4.11c0.31,0,7.29,0.92,14.17,0c6.43-0.86,13.87,0.62,16.43-0.92
			c1.82-1.09,0.44-6.94-0.52-10.25C117.79,264.09,115.5,264.37,115.5,264.37z"/>
		<path class="st49" d="M170.66,221.64c-3.7-1.95-20.75-5.14-22.7-7.6l-15.54-6.47c-19.72-2.96-20.21,0.49-23.7,2.98
			c-3.21,2.29-2.49,40.03-1.06,49.63c0.17,1.15,0.35,1.9,0.54,2.14c1.75,2.16,7.29,2.05,7.29,2.05s2.28-0.28,3.07-1.62
			c0.28-0.48,0.38-1.09,0.11-1.87c-0.54-1.58,1.65-10.26,2.26-18.39c0.54-7.22-0.51-14.07-0.51-14.07s0.07,0.03,0.16,0.08
			c2.41,1.19,33.74,16.69,36.61,17.38c2.56,0.62,2.63,1.46,7.42,0.64c0.78-0.13,1.68-0.31,2.75-0.54c1.09-0.24,2.11-0.56,3.07-0.93
			c0.15-0.06,0.31-0.12,0.46-0.19c5.47-2.29,8.76-6.48,9.62-8.54c0.62-1.48,1.05-4.06,1.29-5.89
			C181.37,230.03,174.24,223.53,170.66,221.64z"/>
		<path class="st49" d="M678.22,99.28c-0.13-1.5-0.02-4.21,2.51-4.7c3.52-0.68,3.25-2.91,2.44-4.2c-0.81-1.29-2.23-4.74-2.37-5.76
			s0.61-1.9-1.42-1.9s-2.57-2.37-4.67-4.27c-1.35-1.22-3.25-1.23-4.44-1.09c0.1,0.16,0.19,0.33,0.26,0.51
			c0.22,0.59,0.4,1.29,0.4,2.07c0,0,1.76,0.14,2.3,1.63c0.54,1.49-0.34,2.84,0.74,3.25c1.08,0.41,2.1,1.35,1.42,2.17
			c-0.68,0.81-3.39,0.81-2.51,3.66c0.88,2.84-2.12,6.77-3.66,6.77c-1.42,0-1.63-0.47-1.35,1.9c0.08,0.74-0.44,1.55-1.04,2.01
			c0.14,0.66,0.25,1.45,0.35,2.24c2.69-0.73,5.69-2.46,7.32-3.47c0.76-0.48,1.63-0.72,2.53-0.74
			C677.37,99.36,677.78,99.33,678.22,99.28z"/>
		<path class="st49" d="M673.96,84.83c-1.08-0.41-0.2-1.76-0.74-3.25c-0.54-1.49-2.3-1.63-2.3-1.63c0-0.78-0.17-1.48-0.4-2.07
			c-0.07-0.18-0.16-0.35-0.26-0.51c-0.53-0.88-1.45-1.49-2.49-1.63c-1.57-0.21-3.98-0.25-6.14,0.9c-2.09,1.1-2.64,2.03-3.59,3.12
			c-0.95,1.08-0.47,1.49-1.56,1.83c-1.08,0.34,1.08,2.64,0.2,2.98c-0.88,0.34-5.66,2.53-4.4,3.39c1.29,0.88-1.27,2.88-0.52,5.39
			c0.74,2.51,2.5,5.67,5.02,5.1c1.55-0.35,3.26-1.39,3.23-0.94c0,0,0.14-0.27,1.15,1.83c1.02,2.1,3.72,1.83,4.47,2.3
			c0.31,0.2,0.77,0.04,1.2-0.29c0.6-0.46,1.12-1.27,1.04-2.01c-0.27-2.37-0.07-1.9,1.35-1.9c1.54,0,4.54-3.93,3.66-6.77
			c-0.88-2.84,1.83-2.84,2.51-3.66C676.06,86.18,675.04,85.23,673.96,84.83z"/>
		<path class="st49" d="M708.79,64.32c0,0,0.45-5.03,0.34-6.15c-0.11-1.12-1.01-0.22-2.24-1.12s-2.91-1.45-3.47-1.23
			c-0.56,0.22-0.78-1.12-1.68-1.57s-0.45,2.8-1.68,4.81c-1.23,2.01,1.68,6.04,2.01,6.26C702.08,65.33,703.87,63.09,708.79,64.32z"/>
		<path class="st49" d="M645.08,267.1c0.02,0.18,0.04,0.36,0.08,0.53c0.67,3.13,2.01,5.26,2.01,5.26l15.35,0.93
			c-3.6-1.63-7.16-6.51-10.87-7.75C648.7,265.08,646.32,266.25,645.08,267.1z"/>
		<path class="st49" d="M646.61,260.14c-0.07-0.12-0.14-0.25-0.21-0.38c-0.6,1.75-1.57,5.06-1.33,7.34
			c1.24-0.86,3.62-2.02,6.57-1.04c3.72,1.24,7.27,6.12,10.87,7.75l1.32,0.08c0,0,5.66-1.03,6.77-5.12c0.26-0.97-0.27-1.99-1.22-2.32
			c-0.81-0.28-2.06-0.77-3.98-1.62c-4.02-1.76-5.2-7.22-7.39-9.22c0.13,0.67,0.23,1.05,0.23,1.05
			C657.35,260.92,646.61,260.14,646.61,260.14z"/>
		<path class="st49" d="M683.18,264.5c-2.34-1.79-6.92-0.56-6.93-0.56c-0.02,0.56,0.01,1.1,0.11,1.57c0.26,1.21,0.62,2.26,0.96,3.11
			c0.53,1.3,1.78,2.16,3.18,2.19l9.41,0.16C686.97,270.28,685.2,266.04,683.18,264.5z"/>
		<path class="st49" d="M687.32,259.25c0.37,2.58-10.4,2.91-10.4,2.91s-0.11-0.43-0.27-1.12c-0.22,0.98-0.37,1.99-0.4,2.91
			c0.02,0,4.59-1.23,6.93,0.56c2.02,1.54,3.79,5.78,6.73,6.46l1.55,0.03c0,0,5.67-1.03,6.77-5.12c0.26-0.97-0.26-1.98-1.21-2.32
			c-0.81-0.28-3.15-1.36-4.55-2.93c-3.7-4.13-4.52-5.8-4.81-6.55C687.44,256.9,687.28,258.98,687.32,259.25z"/>
		<path class="st49" d="M690.1,160.48c-0.31,0.19-0.67,0.3-1.06,0.28c-6.28-0.25-26.61-1.16-31.53-2.8
			c-0.96,4.89-3.01,15.26-3.85,18.64c-1.12,4.47-3.13,7.83-1.12,18.01c2.01,10.18-2.12,19.24-2.12,19.24s-9.82,35.69-4.01,45.92
			c0.07,0.12,0.13,0.26,0.21,0.38c0,0,10.74,0.78,11.63-3.47c0,0-0.1-0.38-0.23-1.05c-0.29-1.52-0.69-4.55-0.22-8
			c0.89-6.6,3.91-32.54,6.37-37.46c0,0,8.05-17.22,7.49-24.38c0,0,4.36,24.49,4.59,29.64c0.22,5.14-2.57,28.52-2.01,33.33
			c0.44,3.76,1.83,9.82,2.41,12.3c0.16,0.69,0.27,1.12,0.27,1.12s10.77-0.32,10.4-2.91c-0.04-0.26,0.12-2.35,0.33-5.18
			c0.42-5.56,1.09-14,1.01-17.19c-0.11-4.81,0.45-20.24,1.12-24.94c0.67-4.7,2.24-17.67,1.79-21.25c-0.45-3.58-0.45-12.3,0.11-15.88
			C692.05,172.46,690.92,165.2,690.1,160.48z"/>
		<path class="st50" d="M750.18,170.38c1.14,1.14-0.79,1.94,2.03,2.03c2.82,0.09,5.62,2.26,7.13,2.99c0.48,0.23,1.02,0.64,1.58,1.15
			c0.79-1.37,2.29-3.62,3.17-2.74c0.86,0.86-0.47,3.28-1.35,4.65c0.77,0.89,1.54,1.89,2.27,2.88c0.31-0.34,0.85-0.98,0.85-1.36
			c0-0.53,0.26-1.23,0.7-1.59c0.44-0.35,1.32,0.44,1.5-0.09c0.18-0.53,0.97-0.7,1.32-0.97s0.97-0.7,1.06-1.32
			c0.09-0.62,0.7-0.88,1.23-1.23s0.35-1.59,0.62-2.29s-0.62-0.88-0.62-1.41s0.53-0.97,0.62-1.32c0.09-0.35-0.26-1.23-0.7-1.59
			c-0.15-0.12-0.18-0.34-0.15-0.59c0.08-0.74-0.18-1.47-0.78-1.92l-0.11-0.09c-0.17-0.13-0.24-0.33-0.2-0.54
			c0.06-0.27,0.11-0.65,0-0.91c-0.09-0.22-0.9-0.1-1.05-0.42c-0.15-0.32,0.35-1.08,0.35-1.43c0-0.7-0.88-0.88-1.67-1.06
			c-0.79-0.18-0.09-0.79-0.53-1.41c-0.44-0.62-0.35-1.5-1.06-1.67s-1.32-0.35-1.67-1.06s-2.11,0.09-2.91,0.09
			c-0.79,0-0.62-1.59-1.94-1.67s-1.06,0.35-1.23-0.09c-0.18-0.44-1.5-0.7-2.2,0.09s-0.79-0.09-1.59-0.44s-1.41,0.35-4.05,0.97
			c-2.64,0.62-1.14,0.97-1.67,1.14c-0.53,0.18-1.41-0.09-1.58,1.14c-0.18,1.23,0.62,2.2-1.59,2.11c-2.2-0.09-1.23,1.59-1.5,2.99
			c-0.26,1.41-0.18,1.14-1.67,1.41s0.18,1.85-0.09,2.2s-0.88,0.18-0.35,1.14c0.28,0.51,0.26,1.21,0.19,1.76
			c0.26,0.04,0.52,0.07,0.78,0.09C746.23,170.22,749.53,169.73,750.18,170.38z"/>
		<path class="st49" d="M764.1,173.82c-0.88-0.88-2.38,1.37-3.17,2.74c0.58,0.53,1.2,1.19,1.82,1.91
			C763.62,177.09,764.96,174.68,764.1,173.82z"/>
		<path class="st49" d="M750.18,215.92c0.05,0.29,0.1,0.58,0.18,0.87c0.35,1.4,0.76,2.57,1.22,3.56c2.89-3.37,6.86-7.54,10.57-10.27
			c-1.12-1.1-2.48-2.04-4.03-2.35C754.92,207.08,751.82,212.39,750.18,215.92z"/>
		<path class="st49" d="M777.36,202.26c-0.05-0.3-0.11-0.57-0.18-0.8c-0.69-2.19-6.32-9.46-9.31-13.23c-0.22,0.1-0.46,0.2-0.74,0.26
			c-0.92,0.21-2.3-0.34-3.83,0.3c-3.1,1.3-5.81,4.4-4.14,9.69c0.18,0.56,0.02,1.44,0.05,2.14c1.67,2.84,3.49,5.91,4.83,8.19
			c0.98,1.67,1.72,2.91,1.96,3.31c1.03,1.72,3.61,1.8,4.38,1.63s3.18,1.63,5.07,1.03C777.21,214.22,778,205.89,777.36,202.26z"/>
		<path class="st49" d="M765.01,181.34c-0.73-0.99-1.5-1.98-2.27-2.88c-0.62-0.72-1.24-1.38-1.82-1.91
			c-0.57-0.52-1.1-0.92-1.58-1.15c-1.51-0.74-4.31-2.91-7.13-2.99c-2.82-0.09-0.88-0.88-2.03-2.03c-0.66-0.66-3.95-0.16-6.87-0.35
			c-0.27-0.02-0.53-0.05-0.78-0.09c-1.84-0.27-3.39-0.98-4.15-0.88c-2.03,0.26-1.59,3.26-1.59,3.26
			c-10.13,3.96-16.03,13.21-24.22,30.03c-8.19,16.82-6.6,39.8-4.49,40.51c0.17,0.06,0.44,0.1,0.79,0.14
			c3.91,0.44,18.07-0.32,22.19-2.34c4.49-2.2,7.22-2.29,13.47-4.76s11.89-10.39,11.89-10.39s-1.81-0.4-3.59-2.92
			c-0.43-0.61-0.87-1.35-1.27-2.24c-0.45-0.99-0.87-2.16-1.22-3.56c-0.07-0.29-0.13-0.58-0.18-0.87
			c-1.29-7.72,4.86-17.42,5.37-16.74c0.53,0.7,3.87,2.2,3.87,2.2c-0.14-0.19-0.19-0.46-0.21-0.77c-0.04-0.7,0.12-1.58-0.05-2.14
			c-1.67-5.28,1.04-8.39,4.14-9.69c1.52-0.64,2.91-0.09,3.83-0.3c0.29-0.07,0.53-0.16,0.74-0.26c0.81-0.39,1.16-0.94,1.16-0.94
			S767.22,184.33,765.01,181.34z"/>
		<path class="st49" d="M734.23,268.64c-2.41-1.55,0.09-6.7,0.09-6.7s0.43-1.03-1.72-1.12l-1.43-1.12l-6.54-5.09
			c-3.28,0.16-6.18,2.87-6.46,5.09c-0.26,2.1,2.44,10.8,3.73,14.77c0.39,1.22,1.48,2.07,2.75,2.16c3.99,0.28,12.4,0.66,13.71-1.03
			C740.07,273.37,736.63,270.19,734.23,268.64z"/>
		<path class="st49" d="M735.6,253.61c-2.92-0.34-7.65-1.29-8.59-0.43c-0.38,0.34-1.49,0.74-2.9,1.04l0.51,0.4l6.54,5.09l1.43,1.12
			l6.41-7.68C737.67,253.53,736.53,253.72,735.6,253.61z"/>
		<path class="st49" d="M783.71,205.5c-2.13-2.79-4.19-3.55-6.35-3.24c0.64,3.63-0.15,11.96-1.9,12.52c-1.89,0.6-4.3-1.2-5.07-1.03
			s-3.35,0.09-4.38-1.63c-0.24-0.4-0.97-1.64-1.96-3.31c-0.62,0.38-1.26,0.8-1.91,1.28c-3.7,2.72-7.67,6.89-10.57,10.27
			c0.41,0.89,0.84,1.63,1.27,2.24c1.78,2.52,3.59,2.92,3.59,2.92s-5.64,7.93-11.89,10.39s-8.98,2.55-13.47,4.76
			c-4.13,2.02-18.29,2.78-22.19,2.34c-0.24,1.84-0.47,3.93-0.43,5.03c0.09,2.23,5.41,5.33,8.76,6.27c2.01,0.57,4.78,0.36,6.89-0.08
			c1.41-0.29,2.53-0.69,2.9-1.04c0.95-0.86,5.67,0.09,8.59,0.43c0.93,0.11,2.07-0.08,3.4-0.46c2.86-0.82,6.58-2.56,10.86-4.26
			c6.27-2.49,10.05-7.99,10.05-7.99c1.29,4.38-3.69,16.84-3.69,16.84c2,0.44,6,1.11,9.63,1.64c3.52,0.51,6.71,0.89,7.38,0.76
			c1.37-0.26,0.69-2.75,0.69-2.75c-0.43-7.99,7.9-30.41,9.45-34.11S789.21,212.71,783.71,205.5z"/>
		<path class="st49" d="M754.67,264.69c0.07-0.23,0.15-0.53,0.24-0.88c-0.94,0.62-2.46,1.91-2.22,3.71
			c0.34,2.58,0.21,5.53,2.06,6.62c1.48,0.87,5.28,0.64,8.08,0.26c1.24-0.17,1.55-3.09,3.01-3.26c1.46-0.17,2.58-1.63,2.58-2.06
			c0-0.2-0.64-0.88-1.29-2.15c-0.51-1-1.06-2.28-1.78-3.15l-0.11,1C765.24,264.78,754.16,266.32,754.67,264.69z"/>
		<path class="st49" d="M756.22,257.73c0,0-0.76,3.94-1.3,6.08c-0.09,0.35-0.17,0.65-0.24,0.88c-0.52,1.63,10.57,0.09,10.57,0.09
			l0.11-1l0.49-4.4C762.22,258.85,758.22,258.17,756.22,257.73z"/>
		<path class="st49" d="M809.32,94.5l-0.82-0.9c-0.05,0.06-0.1,0.13-0.15,0.19c-0.63,0.67-1.51,1.45-2.42,1.79
			c-1.75,0.66-0.87,1.42-2.73,1.2c-1.86-0.22-3.6-0.33-4.26,0.22c-0.66,0.55-3.17-0.55-3.17-0.55s-1.09,1.31-3.06,0.98
			s-3.93-0.98-4.81-0.87c-0.45,0.06-1.35-0.66-2.41-1.28c1.31,2.06,5.51,8.15,9.35,8.6c2.83,0.33,5.98-0.22,6.74,0.11
			c0.4,0.17,1.15,1.14,1.78,2.04C805.45,101.37,808.15,95.64,809.32,94.5z"/>
		<path class="st49" d="M808.85,90.61c-0.15-0.29-0.36-0.54-0.63-0.7c-1.09-0.66-1.53-2.07-2.18-4.04c-0.55-1.66-1.86-1.2-2.18-3.06
			c-0.33-1.86-5.13-4.48-6.66-6.12c-1.53-1.64-4.8-2.07-6.12-1.31s-2.62,2.4-3.71,2.84c-0.6,0.24-1.13,1.32-1.53,2.4
			c-0.32,0.89-0.41,1.73-1.64,2.62c-1.18,0.85-2.65,0.58-3.39,1.53c-0.97,1.25-1.03,3.72-1.09,4.59c-0.11,1.53-0.87,1.53-0.87,2.62
			s2.73,2.73,3.49,2.51c1.03-0.29,2.16,0.21,3.16,0.79c1.06,0.62,1.96,1.34,2.41,1.28c0.87-0.11,2.84,0.55,4.81,0.87
			s3.06-0.98,3.06-0.98s2.51,1.09,3.17,0.55c0.66-0.55,2.4-0.44,4.26-0.22c1.86,0.22,0.98-0.55,2.73-1.2
			c0.91-0.34,1.78-1.12,2.42-1.79c0.06-0.06,0.1-0.12,0.15-0.19C809.17,92.75,809.37,91.57,808.85,90.61z"/>
		<path class="st49" d="M789.57,112.04c0.05-0.17,0.68-0.35,1.65-0.54c-0.4-1.08-1.57-3.02-4.97-3.97c-3.2-0.9-5.22,1.96-5.82,2.07
			c-0.6,0.11-5.49,0.92-4.79,1.96c0.71,1.03,2.07,1.74,2.07,1.74s-0.42,0.28,0.54,1.14c0.3,0.27,1.47,0.8,2.01,1.25
			c2.28,1.9,2.72,2.72,5,2.39c1.32-0.19,3.18-0.51,4.64-0.88C789.56,115.24,789.42,112.54,789.57,112.04z"/>
		<path class="st49" d="M804.57,116.12c0-0.38-0.16-0.75-0.44-1.01l-2.23-2.08c-0.72-0.44-1.01-1.34-0.67-2.12
			c0.08-0.19,0.17-0.41,0.27-0.63c-2.19,0.15-7.56,0.69-10.29,1.22c-0.96,0.19-1.6,0.37-1.65,0.54c-0.14,0.5,0,3.21,0.34,5.16
			c0.18,1.02,0.41,1.83,0.69,2.02c0.82,0.54,5.49,1.74,8.54,1.69c1.2-0.02,3.27-0.02,5.33,0c0-0.03,0-0.07,0-0.1
			C804.54,118.97,804.57,117.06,804.57,116.12z"/>
		<path class="st49" d="M799.92,160.51c0,0-2.44-0.09-3.25-0.72c-0.3-0.24-0.19-0.51,0.18-0.76c-1.26-0.12-2.57-0.14-2.7,0.22
			c-0.18,0.47,1.76,2.33,3.13,3.56C799.57,162.54,799.92,160.51,799.92,160.51z"/>
		<path class="st49" d="M804.77,158.22c-1.68-0.06-3.63-0.1-4.67-0.06c-1.3,0.06-2.64,0.43-3.25,0.86
			c-0.37,0.25-0.48,0.53-0.18,0.76c0.81,0.63,3.25,0.72,3.25,0.72s-0.35,2.03-2.64,2.3c-0.11,0.01-0.21,0.04-0.33,0.05
			c-2.62,0.09-2.98-0.09-2.71,0.54s1.35,1.17,3.25,1.71c1.9,0.54,0.99,1.17,3.34,2.17c2.35,0.99,3.07,2.35,8.3-0.54
			c0.35-0.19,0.68-0.38,0.99-0.57C808.06,164.3,805.29,159.91,804.77,158.22z"/>
		<path class="st49" d="M849.93,145.27c-2.5-1.79-4.02-9.95-5.6-13c-1.58-3.05-4.41-7.99-6.58-11.42c-2.18-3.43-1.9-9.03-7.12-16.48
			c-5.22-7.45-11.53-8.48-13.54-8.27c-2.01,0.22-2.18,0.6-2.83,0.27s-3.05-2.66-4.68-2.07c-0.07,0.03-0.16,0.1-0.26,0.19
			c-1.17,1.14-3.87,6.87-5.95,11.52c-0.73,1.64-1.38,3.13-1.86,4.25c-0.1,0.22-0.19,0.44-0.27,0.63c-0.33,0.78-0.04,1.68,0.67,2.12
			l2.23,2.08c0.28,0.26,0.44,0.63,0.44,1.01c-0.01,0.94-0.03,2.85-0.11,4.68c0,0.03,0,0.07,0,0.1c-0.05,2.66,2.18,10.84,2.39,12.02
			c0.22,1.2,3.81,10.6,4.51,12.94c0.71,2.34,1.31,6.8,0.54,7.89c-0.76,1.09-6.96,2.77-7.23,3.92c-0.03,0.12,0.01,0.32,0.09,0.56
			c0.52,1.69,3.29,6.08,5.34,7.95c0.55,0.5,1.05,0.82,1.43,0.85c2.01,0.16,4.13-2.66,4.57-3.64c0.39-0.89,1.15-0.17,2.14-0.19
			c0.1,0,0.2,0,0.31-0.02c1.14-0.22,11.47,2.12,21.97,2.01c6.36-0.07,10.8-1.84,13.33-3.24c1.65-0.91,2.49-1.66,2.49-1.66
			S852.43,147.06,849.93,145.27z"/>
		<path class="st49" d="M818.96,265.64c-0.03-0.21,0.03-1.12,0.17-2.49c-2.95,1.57-8.2,4.48-10.38,4.77
			c-2.93,0.39-7.32,1.66-6.44,4.1c0.88,2.44,2.93,0.98,7.32,1.76c4.39,0.78,13.07,2.15,17.17,1.85c4.1-0.29,6.34-0.98,6.54-2.05
			c0.11-0.63,0.3-3.34,0.43-5.48C825.83,271.43,819.14,266.79,818.96,265.64z"/>
		<path class="st49" d="M842.81,268.66c-0.64-0.32-1.08-0.94-1.14-1.66c-0.08-0.93-0.17-2.39-0.14-4.12
			c-2.06,1.27-4.81,3.17-4.98,4.46c-0.05,0.35,0.22,1.37,0.39,1.56c0.8,0.92,1.74-0.01,3.02,0.88c1.56,1.07,6.73,3.61,10.83,2.93
			c4.1-0.68,3.71-2.44,3.71-2.93c0-0.15,0.04-0.83,0.09-1.68c-0.39,0.36-0.86,0.69-1.43,0.97
			C848.87,271.15,844.69,269.6,842.81,268.66z"/>
		<path class="st49" d="M856.32,253.46c-0.18-1.17-1.35-6.86-0.63-11.82c0,0,0.36-9.02,0.27-14.8c-0.09-5.78-1.17-21.66-1.8-25.09
			c-0.63-3.43-2.8-9.93-2.53-11.55c0.16-0.94,2.98-7.77,3.7-14.98c0.45-4.51-0.31-8.86-1.47-13.29c-2.53,1.39-6.98,3.17-13.33,3.24
			c-10.5,0.11-20.83-2.23-21.97-2.01c-0.11,0.02-0.21,0.02-0.31,0.02c-0.16,5.73-0.45,18.62,0.18,21.33
			c0.81,3.52,1.8,14.17,1.99,17.78c0.18,3.61-0.79,21.18,0,24.09c1.62,5.96,2.98,6.95,2.08,11.55c-0.74,3.76-2.74,19.1-3.35,25.22
			c-0.14,1.36-0.2,2.27-0.17,2.49c0.18,1.15,6.87,5.79,14.8,2.46c0.15-0.06,0.3-0.11,0.45-0.18c0,0,0.31-1.21,0.49-5.37
			c0.18-4.15,2.13-16.59,2.31-20.47c0.18-3.88,0-11.73-0.63-14.98c-0.63-3.25-1.17-2.62-0.81-4.69c0.36-2.08-0.54-5.59-0.54-7.22
			s2.62-9.29,2.62-9.29s2.42,16.1,2.33,18.8c-0.05,1.46,2.45,12.82,2.83,24.2c0.15,4.51-0.91,8.41-1.17,11.9
			c-0.05,0.72-0.08,1.42-0.09,2.08c-0.03,1.73,0.06,3.19,0.14,4.12c0.06,0.72,0.5,1.33,1.14,1.66c1.88,0.94,6.06,2.5,10.34,0.41
			c0.58-0.28,1.04-0.61,1.43-0.97c1.87-1.75,1.82-4.37,1.82-7.06C856.41,257.79,856.5,254.63,856.32,253.46z"/>
		<g>
			<path class="st49" d="M138.33,202.18c-0.12-0.12-1.28-2.33-3.17-2.65s-3.54,0.44-2.53,0.76c2.04,0.64,3.45,3.45,2.12,3.41
				c-1.32-0.04-2-1.12-2.08-0.68c-0.05,0.29,0.86,2.09,1.5,3.28l4.62-3.34L138.33,202.18z"/>
			<path class="st49" d="M182.27,217.84c0-0.62-6.75-22.46-9.04-26.29c-3.77-6.32-11.4-9.66-14.28-11.51
				c-2.63-1.69-8.76-4.91-11.76-5.69c-0.28-0.07-0.55-0.13-0.77-0.16c-2.34-0.28-9.59-0.4-13.2,4.08c-0.36,0.45-0.7,0.92-0.97,1.47
				c-1.95,3.8,2.57,14.79,2.57,14.79l4.01,8.42l-0.03,0.02l-4.62,3.34l-1.75,1.27l15.54,6.47c1.95,2.47,19,5.65,22.7,7.6
				c3.58,1.89,10.71,8.39,11.15,8.79c0.01,0.01,0.04,0.04,0.04,0.04C183.4,228.53,182.27,218.46,182.27,217.84z"/>
		</g>
		<g>
			<path class="st49" d="M642.75,121.06c-1.28-0.28-0.71,1.14-0.71,2.21c0,1.07-1.35,1.14-1.57,2.06c-0.13,0.58-0.27,2.31-0.35,3.53
				l4.81-6.66C644.34,121.77,643.49,121.23,642.75,121.06z"/>
			<path class="st49" d="M646.05,136.23c-0.01,0.06-0.04,0.13-0.07,0.2c1.18-0.8,2.6-1.91,2.81-2.77c0.1-0.41-0.05-1.28-0.3-2.3
				l-2.89,3.64C645.61,135,646.28,135.22,646.05,136.23z"/>
			<path class="st49" d="M711.81,79.42c-1.34-4.33-3.02-15.1-3.02-15.1c-4.92-1.23-6.71,1.01-6.71,1.01s0.89,11.41-0.22,17.11
				c-1.12,5.7-5.93,6.71-11.3,10.4s-6.26,3.13-8.61,5.03c-1.09,0.88-2.52,1.26-3.73,1.41c-0.44,0.05-0.84,0.08-1.2,0.09
				c-0.9,0.02-1.77,0.27-2.53,0.74c-1.62,1.02-4.63,2.75-7.31,3.47c-0.66,0.18-1.29,0.3-1.89,0.33c-4.14,0.22-4.79,0.05-8.5,1.9
				c-3.8,1.9-9.95,13.76-9.95,13.76l-1.9,2.63l-4.81,6.66l-4.92,6.81c0.67,5.59,4.92,3.8,6.6,3.91c1.57,0.1,3.74-2.05,4.18-3.15
				c0.03-0.07,0.05-0.14,0.07-0.2c0.22-1.01-0.45-1.23-0.45-1.23l2.89-3.64l7.4-9.33c0,0-0.56,2.8,0.78,4.81
				c2.69,4.04,2.24,5.48,2.91,7.72c0.67,2.24,2.12,4.47,2.68,8.05c0.56,3.58-7.05,12.41-5.82,14.76c0.11,0.21,0.49,0.41,1.06,0.6
				c4.92,1.63,25.24,2.55,31.53,2.8c0.39,0.02,0.76-0.09,1.06-0.28c0.51-0.31,0.86-0.86,0.89-1.51c0.27-5.31,1.02-20.27,1.02-21.74
				c0-1.79,2.46-6.37,1.45-11.52c-1.01-5.14-1.79-14.54-1.79-14.54c-0.88-7.22,15.62-20.41,19.83-23.65
				c0.68-0.53,1.12-1.32,1.16-2.18C712.74,84.11,712.64,82.09,711.81,79.42z"/>
		</g>
	</g>
	<path class="st49" d="M63.66,149.13c0,0,5.27-16.69,2.39-21.37"/>
	<path class="st49" d="M77,152.35c0,0,0.93,4.02-1.41,6.18"/>
	<path class="st49" d="M98.8,146.97c0,0-3.55-0.37-3.55,0.52C95.25,147.49,94.79,148.41,98.8,146.97z"/>
	<path class="st49" d="M78.99,109.98c0,0-1.24-1.78,1.69-3.38c2.93-1.6,2.49-0.27,2.49-0.27"/>
	<path class="st49" d="M62.81,101.26c0,0,12.28,10.63,13.34,13.94"/>
	<path class="st49" d="M18.91,132.32c0.34-0.48,7.1-15.24,9.59-17.99c2.49-2.76,4.44-4.98,4.44-4.98"/>
	<path class="st49" d="M25.12,119.93c0,0-2.67-0.71-1.51-0.71s1.96-0.27,1.96-0.27"/>
	<path class="st49" d="M53.74,158.87c-0.16-0.12-1.94-0.7-2.84-1.33c-0.77-0.54-0.64-1.18-1.33-1.07c-2.66,0.44-5.25-0.35-7.56,0.18
		c-3.64,0.83-6.4,2.93-6.4,2.93"/>
	<path class="st49" d="M37.03,193.8c-0.42,0.11-11.29-14.49-11.29-16.53"/>
	<path class="st49" d="M120.43,228.42c0,0-0.36-6.52-4.36-8.3"/>
	<path class="st49" d="M176.52,247.24c0,0-2.58-0.27-3.64,2.13c-0.91,2.05-4.87,11.57-7.82,13.6c-2.84,1.96-6.58,2.4-6.58,2.4"/>
	<path class="st49" d="M146.2,180.84c0,0-1.51,2.4,1.33,6.22c2.84,3.82,6.67,13.42,7.02,17.51s0.18,3.56-1.78,5.96
		s-4.82,3.52-4.82,3.52"/>
	<path class="st49" d="M138.79,202.97l3.06-0.8c0,0-9.24-13.69-9.33-15.82"/>
	<path class="st49" d="M153.17,200.2c0,0,7.98-6.21,12.19-4.65"/>
	<path class="st49" d="M675.4,88.31c0,0-4.17,0.43-2.04,2.89c2.13,2.47,4.51,1.45,4.51,1.45"/>
	<path class="st49" d="M656.69,84.56c0.17-0.34,1.03-2.28,3.32-1.94c2.3,0.34,2.64,3.06,4.76,2.21c2.13-0.85,3.06,2.98,1.79,4.51
		c-1.28,1.53-3.66,1.96-3.32,2.98c0.34,1.02-0.43,2.64-1.53,2.81s-1.7,2.38-1.7,2.38"/>
	<polyline class="st49" points="700.38,58.26 700.72,51.95 701.74,51.82 702.04,54.07 	"/>
	<polyline class="st49" points="776.83,112.68 774.1,113.12 774.32,113.77 777.71,113.29 781.62,113.66 	"/>
	<path class="st49" d="M797.31,110.94c0,0-1.74,7.85,0.22,10.02"/>
	<path class="st49" d="M814.26,96.38c0,0-10.37,16.2-9.68,19.74"/>
	<path class="st49" d="M793.96,97.49c0,0,3.03,1.9,2.05,3.42c-0.98,1.53-2.14-0.05-2.14-0.05"/>
	<path class="st49" d="M816.1,163.38c0,0,7.95-2.98,10.52-4.94c2.57-1.96,7.41-3.48,6.8-8.92c-0.6-5.44-0.45-2.72-1.66-7.86
		c-1.21-5.14-0.45-7.1-1.97-9.98c-1.51-2.87-5.89-10.73-5.89-10.73"/>
	<path class="st49" d="M806.83,122.46c0,0-0.91,4.84,2.42,8.31c1.62,1.7,4.07,4.59,5.89,8.31c1.92,3.91,3.17,8.62,3.17,8.62
		s-2.06,5-6.4,6.05"/>
	<path class="st49" d="M837.64,205.9c0,0,8.04-25.1,8.19-29.33"/>
	<path class="st49" d="M759.91,240.89c0,0,16.51-21.29,21.05-21.14"/>
	<path class="st49" d="M755.56,199.18c-0.89-0.59-4.98-8.45-6.03-15.4c-0.86-5.64-2.12-2.57-2.12-2.57"/>
	<path class="st49" d="M736.8,172.32c0,0-0.28-1.54,4.41-0.18c4.69,1.36,8.92,0,8.92,0"/>
	<path class="st49" d="M737.13,276.28c0,0-4.23-3.93-6.2-9.37c-1.96-5.44-9.52-8.92-12.09-2.87"/>
</g>
<path class="st49" d="M103.47,145.93c0,0,52.22-7.52,53.04-73.65"/>
</svg>
