<svg id="Layer_1" data-name="Layer 1" xmlns="http://www.w3.org/2000/svg" xmlns:xlink="http://www.w3.org/1999/xlink" viewBox="0 0 1140 294"><defs><style>.cls-1,.cls-10,.cls-4,.cls-8{fill:none;}.cls-2{clip-path:url(#clip-path);}.cls-3{fill:#f4c55e;}.cls-4{stroke:#fbedc8;}.cls-4,.cls-8{stroke-miterlimit:10;}.cls-5{fill:#e99820;}.cls-6{fill:#a66a15;}.cls-7{fill:#f7d27d;}.cls-10,.cls-8{stroke:#a66a15;}.cls-9{fill:#f8dc9d;}.cls-10{stroke-linejoin:round;}</style><clipPath id="clip-path"><rect class="cls-1" y="0.28481" width="1140" height="293.93084"/></clipPath></defs><g class="cls-2"><rect class="cls-3" y="0.28481" width="1140" height="293.93084"/><rect class="cls-4" x="1052.7041" y="-22.64505" width="54.64196" height="54.64196" rx="2.44307" transform="translate(7.16838 -119.64034) rotate(6.36156)"/><circle class="cls-4" cx="892.25167" cy="216.31949" r="43.97198"/><rect class="cls-4" x="899.72516" y="41.5615" width="34.60656" height="34.60656" rx="1.54728" transform="translate(136.02965 543.06218) rotate(-35.47058)"/><rect class="cls-4" x="509.86181" y="248.67641" width="34.60656" height="34.60656" rx="1.54728" transform="translate(-56.50931 355.2681) rotate(-35.47058)"/><circle class="cls-4" cx="213.86852" cy="152.93961" r="43.97198"/><circle class="cls-4" cx="662.38074" cy="293.02161" r="30.25412"/><rect class="cls-4" x="71.53222" y="225.36595" width="34.60656" height="34.60656" rx="1.54728" transform="translate(-124.33061 96.586) rotate(-35.47058)"/><rect class="cls-4" x="1009.02558" y="241.12829" width="54.64196" height="54.64196" rx="2.44307" transform="translate(493.36118 -654.18071) rotate(45)"/><rect class="cls-4" x="250.65968" y="37.04587" width="37.93064" height="37.93064" rx="1.6959" transform="translate(137.43468 -185.56822) rotate(49.57731)"/><rect class="cls-4" x="521.55558" y="-27.49183" width="37.93064" height="37.93064" rx="1.6959" transform="translate(183.54452 -414.48638) rotate(49.57731)"/><path class="cls-4" d="M254.55383,250.40864l10.9169,64.48483a1.03633,1.03633,0,0,0,1.68249.62541l50.387-41.69672a1.03632,1.03632,0,0,0-.29962-1.76978l-61.30394-22.7881A1.03632,1.03632,0,0,0,254.55383,250.40864Z"/><path class="cls-4" d="M110.61571,33.34023,102.542-31.5619a1.03632,1.03632,0,0,0-1.65338-.69872L48.71858,7.18246a1.03633,1.03633,0,0,0,.22159,1.78124l60.24373,25.459A1.03632,1.03632,0,0,0,110.61571,33.34023Z"/><path class="cls-4" d="M871.12793,35.76025l-8.07368-64.90213a1.03632,1.03632,0,0,0-1.65339-.69872l-52.17,39.44308a1.03633,1.03633,0,0,0,.22158,1.78124l60.24374,25.459A1.03632,1.03632,0,0,0,871.12793,35.76025Z"/><path class="cls-3" d="M170.58736,114.93706l.83292,3.14974a10.4935,10.4935,0,0,1,1.39581-.28425Z"/><path class="cls-5" d="M99.34092,32.26442a6.3789,6.3789,0,0,0,1.94213-1.68319c.90632-1.16526,1.29474-1.81266,2.20109-1.81266s1.4242-1.9421,1.68315-2.84845,3.49581-.12947,6.73272-.77684,1.81262-.12947,3.49581.38842,2.07161-1.29473,3.75476-1.16526,1.55372,1.16526,2.07161,2.84845,1.29474,5.56742,1.29474,5.56742a5.19678,5.19678,0,0,1,.513.55206c.34462-2.09781.793-6.49253.39334-8.19109-.5179-2.20108.51789-2.84845-1.42425-3.88423s-1.55368-6.21483-5.82637-6.47378-8.67482-.51789-10.48748,1.68319-6.73268,2.5895-6.34426,4.66111-.77684,1.68315-1.29473,4.5316-1.29477,4.40217-.25895,5.82637c.6624.91082,2.27507,3.40583,3.35376,5.08947.08746.05217.142.08954.142.08954Z"/><path class="cls-3" d="M118.51433,53.49008c.06271-.24585.12468-.50119.18389-.75332-.1527.09918-.29862.19858-.463.29724-4.5316,2.719-6.86216-1.03579-8.80429-2.20108a7.47825,7.47825,0,0,1-1.67828-1.67169,44.70563,44.70563,0,0,0-.3438,5.44457,26.84759,26.84759,0,0,1,2.623,3.3966C113.36,56.23127,116.28471,54.67566,118.51433,53.49008Z"/><path class="cls-3" d="M122.04874,51.6111c.63323-.33658.977-.51924.977-.51924l3.76306.06327a7.51084,7.51084,0,0,0-2.46829-3.55908,1.74218,1.74218,0,0,0-1.57608-.02315,5.452,5.452,0,0,1-.87393,2.1492Z"/><path class="cls-3" d="M121.87052,49.7221a10.46368,10.46368,0,0,1-3.1723,3.01466c-.05921.25213-.12118.50747-.18389.75332,1.54564-.82184,2.75876-1.46675,3.53441-1.879Z"/><path class="cls-3" d="M123.02994,33.74506a5.198,5.198,0,0,0-.513-.55206s-.77684-3.88427-1.29474-5.56742-.38842-2.719-2.07161-2.84845-2.0716,1.68315-3.75476,1.16526-.25894-1.03578-3.49581-.38842-6.47377-.12947-6.73272.77684-.77684,2.84845-1.68315,2.84845-1.29477.6474-2.20109,1.81266a6.3789,6.3789,0,0,1-1.94213,1.68319l1.94213,4.40213s-.05459-.03737-.142-.08954c-.4068-.24265-1.56406-.82373-1.67061.34849-.12947,1.42424,1.94214,6.73272,3.36634,6.47377a54.49444,54.49444,0,0,0,3.88915,5.9673,7.47782,7.47782,0,0,0,1.67828,1.67169c1.94213,1.1653,4.27269,4.92006,8.80429,2.20109.16442-.09866.31034-.19807.463-.29724a10.4635,10.4635,0,0,0,3.17229-3.01466,5.45206,5.45206,0,0,0,.87394-2.1492,2.28329,2.28329,0,0,0,.02237-.2358l.25894-5.82637a5.05344,5.05344,0,0,0,2.58951-4.14318C124.92194,32.47433,123.64337,34.49328,123.02994,33.74506Z"/><path class="cls-3" d="M107.40881,54.6058a3.49068,3.49068,0,0,0-1.99163-1.31286c-2.07161,0-4.01375,3.62533-8.67482,5.56743s-13.85382,5.179-13.20646,10.617a24.65644,24.65644,0,0,0,.40376,2.43562c7.64234-4.08531,16.626-8.87188,24.05567-12.82664.6924-.36854,1.37352-.73106,2.03652-1.0839A26.84759,26.84759,0,0,0,107.40881,54.6058Z"/><path class="cls-3" d="M71.35405,79.03023a1.7223,1.7223,0,0,1,.36679-.87419c1.18186-1.73418,4.58211-4.214.415-3.556-4.95136.78182-4.16957,8.33913-3.909,11.46629.115,1.3798-.08172,5.83533,1.303,8.59975,1.7536,3.5008,5.18135,5.35,5.47256,6.51493.41212,1.64855,3.58718,2.47559,5.02973,1.72156a1.21322,1.21322,0,0,0,.70341-.93977C80.99614,99.878,71.35405,79.03023,71.35405,79.03023Z"/><path class="cls-3" d="M171.36826,104.50886c.52649,0,6.44939-2.89564,5.39645-5.26482-.70326-1.58238-6.07,1.00873-9.55906,2.905l.90412,3.419A30.79258,30.79258,0,0,1,171.36826,104.50886Z"/><path class="cls-3" d="M175.44851,117.93418c-.88235-1.123-3.572-3.71107-5.53955-5.56255l.6784,2.56543,2.22873,2.86549a10.4935,10.4935,0,0,0-1.39581.28425c-1.34419.36739-3.16273,1.15786-3.07929,2.74306,0,0-5.26486.65808-4.87,3.68535,0,0-4.34348,2.50082-3.42213,3.817a1.33216,1.33216,0,0,0,.11812.1332c1.05945,1.14724,4.30265.72049,6.33131-1.05455l1.57943-1.3162s3.6854.78972,3.6854-2.63241c0,0,3.68539,1.18457,4.34347-.65812S176.89631,119.77688,175.44851,117.93418Z"/><path class="cls-5" d="M170.58736,114.93706l-.6784-2.56543-1.79919-6.80361-.90412-3.419L153.8408,51.60979l-27.052-.45466-3.76306-.06327s-.34379.18266-.977.51924c-.77565.41223-1.98877,1.05714-3.53441,1.879-2.22962,1.18558-5.15436,2.74119-8.48248,4.51232-.663.35284-1.34412.71536-2.03652,1.0839-7.42966,3.95476-16.41333,8.74133-24.05567,12.82664-5.74126,3.0691-10.72157,5.74025-13.71133,7.36248a1.72233,1.72233,0,0,0-.36679.8742s9.64209,20.84779,9.3815,22.93258a1.21323,1.21323,0,0,1-.70341.93977c6.63488,13.73622,13.73328,28.50774,13.73328,28.50774l.48153.62668c.915,1.19071,18.5421,24.1301,18.5421,24.1301l.3834-.22612,8.45476-4.98612,24.38477-14.38079,15.64751-9.228a1.33216,1.33216,0,0,1-.11812-.1332c-.92135-1.3162,3.42213-3.817,3.42213-3.817-.39486-3.02727,4.87-3.68535,4.87-3.68535-.08344-1.5852,1.7351-2.37567,3.07929-2.74306Z"/><path class="cls-6" d="M95.65846,207.37239c-1.86175,2.2607-6.78215-.39895-6.78215-.39895L77.4398,223.06437s-1.32983,3.85651-.6649,6.25018,4.92036,2.52668,4.92036,2.52668c5.18633.133,9.57476-10.77162,13.16529-14.36215s4.38843-4.5214,4.92036-7.58c.39612-2.27782-1.419-4.55359-2.37224-5.56809l.11154.78071Z"/><path class="cls-3" d="M97.40867,204.331l-.53308-3.73162c-1.7153.05955-5.94408-.93523-7.99928-1.44936v7.82344s4.9204,2.65965,6.78215.39895l1.86175-2.2607Z"/><path class="cls-7" d="M91.26193,131.29075c-1.79528,12.14581-4.76408,33.32635-4.10946,36.38127.92574,4.32018-.92574,29.31551-.92574,29.31551s.44994.11991,1.15707.29683c2.0552.51414,6.284,1.50891,7.99928,1.44936.37365-.013.63226-.07417.71834-.20327.61714-.92577,5.24592-16.355,8.02317-23.761,1.47121-3.9232,3.98126-12.17565,6.06284-19.57472l-.3834.22612S92.17688,132.48146,91.26193,131.29075Z"/><path class="cls-7" d="M143.027,135.82782l-24.38477,14.38079c4.36759,7.182,11.95024,19.84726,13.255,23.32651,1.85148,4.93736,9.56609,27.77259,12.65194,28.69833s5.24592-.3086,5.55451-1.23433a.41323.41323,0,0,0,.00555-.06472C150.20817,199.041,145.17125,154.61528,143.027,135.82782Z"/><path class="cls-6" d="M153.107,208.17029c-.26594,1.19682-3.0586,1.19682-4.92035.6649-1.013-.28943-1.74731-1.64073-2.10481-2.8269a6.66208,6.66208,0,0,0-1.88467,4.55568c.133,3.0586,5.05332,4.38843,5.85123,6.91511s3.72353,14.49512,10.63861,15.16c0,0,4.74228-.1355,4.92039-2.92563.399-6.25018-6.51616-13.69722-7.04808-14.36215-.43018-.53766-3.55532-5.33494-5.439-7.57372A1.52144,1.52144,0,0,1,153.107,208.17029Z"/><path class="cls-3" d="M153.12031,207.77763A23.32384,23.32384,0,0,0,151.60169,202.8a.413.413,0,0,1-.00555.06471c-.30859.92574-2.46866,2.16008-5.55451,1.23434-.29523.03725-.25928.91543.04023,1.9092.3575,1.18617,1.09176,2.53747,2.10481,2.8269,1.86175.53192,4.65441.53192,4.92035-.6649A1.52144,1.52144,0,0,0,153.12031,207.77763Z"/><path class="cls-1" d="M170.77922,114.11761l.83292,3.14975a10.49316,10.49316,0,0,1,1.39581-.28425Z"/><path class="cls-8" d="M100.55951,31.23963a6.3789,6.3789,0,0,0,1.94213-1.68319c.90631-1.16526,1.29473-1.81266,2.20108-1.81266s1.42421-1.9421,1.68316-2.84845,3.49581-.12947,6.73272-.77684c3.23686-.64737,1.81262-.12947,3.49581.38842s2.07161-1.29473,3.75476-1.16526,1.55372,1.16526,2.07161,2.84845,1.29473,5.56742,1.29473,5.56742a5.19609,5.19609,0,0,1,.513.55206c.34462-2.09781.793-6.49253.39333-8.19109-.51789-2.20108.5179-2.84845-1.42424-3.88423s-1.55368-6.21483-5.82637-6.47378-8.67482-.51789-10.48748,1.68319-6.73268,2.5895-6.34426,4.66111-.77684,1.68316-1.29474,4.5316-1.29477,4.40217-.25894,5.82637c.6624.91082,2.27506,3.40583,3.35376,5.08947.08746.05217.142.08954.142.08954Z"/><path class="cls-8" d="M118.70619,52.67063c.06271-.24584.12467-.50118.18388-.75332-.15269.09918-.29862.19859-.463.29725-4.53161,2.719-6.86216-1.03579-8.8043-2.20109a7.478,7.478,0,0,1-1.67827-1.67169,44.70379,44.70379,0,0,0-.3438,5.44458,26.84684,26.84684,0,0,1,2.623,3.3966C113.55182,55.41183,116.47656,53.85621,118.70619,52.67063Z"/><path class="cls-8" d="M122.2406,50.79165c.63322-.33658.977-.51923.977-.51923l3.76306.06327a7.51091,7.51091,0,0,0-2.46829-3.55908,1.74218,1.74218,0,0,0-1.57608-.02315,5.45238,5.45238,0,0,1-.87394,2.1492Z"/><path class="cls-8" d="M122.06237,48.90266a10.46331,10.46331,0,0,1-3.1723,3.01465c-.05921.25214-.12117.50748-.18388.75332,1.54564-.82183,2.75876-1.46674,3.53441-1.879Z"/><path class="cls-8" d="M124.24853,32.30958a5.19609,5.19609,0,0,0-.513-.55206s-.77684-3.88427-1.29473-5.56742-.38842-2.719-2.07161-2.84845-2.07161,1.68315-3.75476,1.16526-.259-1.03579-3.49581-.38842c-3.23691.64737-6.47378-.12947-6.73272.77684s-.77684,2.84845-1.68316,2.84845-1.29477.6474-2.20108,1.81266a6.3789,6.3789,0,0,1-1.94213,1.68319l1.94213,4.40213s-.05459-.03737-.142-.08954c-.40681-.24265-1.56406-.82373-1.67061.34848-.12947,1.42425,1.94213,6.73272,3.36634,6.47378a54.49444,54.49444,0,0,0,3.88915,5.9673,7.478,7.478,0,0,0,1.67827,1.67169c1.94214,1.1653,4.27269,4.92006,8.8043,2.20109.16441-.09866.31034-.19807.463-.29725a10.46331,10.46331,0,0,0,3.1723-3.01465,5.45238,5.45238,0,0,0,.87394-2.1492,2.281,2.281,0,0,0,.02236-.2358l.25895-5.82637a5.05344,5.05344,0,0,0,2.5895-4.14318C126.14053,31.03885,124.862,33.0578,124.24853,32.30958Z"/><path class="cls-8" d="M107.60067,53.78636A3.49074,3.49074,0,0,0,105.609,52.4735c-2.07161,0-4.01375,3.62533-8.67482,5.56743s-13.85383,5.179-13.20646,10.617a24.65969,24.65969,0,0,0,.40375,2.43562c7.64235-4.08531,16.626-8.87188,24.05568-12.82664.69239-.36854,1.37351-.73106,2.03651-1.0839A26.84684,26.84684,0,0,0,107.60067,53.78636Z"/><path class="cls-8" d="M70.05339,79.33017a1.72233,1.72233,0,0,1,.3668-.87419c1.18186-1.73418,4.5821-4.214.415-3.556-4.95135.78182-4.16957,8.33913-3.90894,11.46629.11495,1.3798-.08173,5.83534,1.30295,8.59975,1.7536,3.5008,5.18135,5.35,5.47256,6.51494.41213,1.64854,3.58718,2.47558,5.02974,1.72155a1.21322,1.21322,0,0,0,.70341-.93977C79.69548,100.178,70.05339,79.33017,70.05339,79.33017Z"/><path class="cls-8" d="M171.56011,103.68942c.52649,0,6.4494-2.89564,5.39646-5.26483-.70327-1.58237-6.07,1.00873-9.55906,2.905l.90411,3.419A30.79477,30.79477,0,0,1,171.56011,103.68942Z"/><path class="cls-8" d="M175.64036,117.11474c-.88234-1.123-3.572-3.71107-5.53955-5.56255l.67841,2.56542,2.22873,2.8655a10.49316,10.49316,0,0,0-1.39581.28425c-1.34419.36739-3.16273,1.15785-3.0793,2.743,0,0-5.26486.65809-4.87,3.68536,0,0-4.34347,2.50081-3.42213,3.817a1.33226,1.33226,0,0,0,.11813.1332c1.05945,1.14724,4.30265.72049,6.33131-1.05455l1.57943-1.3162s3.68539.78971,3.68539-2.63241c0,0,3.68539,1.18457,4.34348-.65813S177.08816,118.95743,175.64036,117.11474Z"/><path class="cls-8" d="M170.77922,114.11761l-.67841-2.56542-1.79919-6.80362-.90411-3.419L154.03266,50.79035l-27.052-.45466-3.76306-.06327s-.3438.18265-.977.51923c-.77565.41224-1.98877,1.05715-3.53441,1.879-2.22963,1.18558-5.15437,2.7412-8.48249,4.51233-.663.35284-1.34412.71536-2.03651,1.0839-7.42966,3.95476-16.41333,8.74133-24.05568,12.82664C78.39026,74.1626,73.41,76.83375,70.42019,78.456a1.72233,1.72233,0,0,0-.3668.87419s9.64209,20.8478,9.38151,22.93258a1.21322,1.21322,0,0,1-.70341.93977c6.63488,13.73623,13.73328,28.50775,13.73328,28.50775l.48153.62667c.915,1.19072,18.5421,24.13011,18.5421,24.13011l.3834-.22612,8.45476-4.98612,24.38477-14.3808,15.64751-9.228a1.33226,1.33226,0,0,1-.11813-.1332c-.92134-1.31621,3.42213-3.817,3.42213-3.817-.39486-3.02727,4.87-3.68536,4.87-3.68536-.08343-1.5852,1.73511-2.37566,3.0793-2.743Z"/><path class="cls-8" d="M95.85031,206.553c-1.86175,2.2607-6.78214-.399-6.78214-.399L77.63165,222.24492s-1.32983,3.85651-.66489,6.25019,4.92035,2.52668,4.92035,2.52668c5.18634.133,9.57477-10.77162,13.1653-14.36215s4.38843-4.52141,4.92035-7.58c.39613-2.27782-1.419-4.5536-2.37223-5.5681l.11153.78071Z"/><path class="cls-8" d="M97.60053,203.51153l-.53308-3.73161c-1.71531.05955-5.94408-.93523-7.99928-1.44936V206.154s4.92039,2.65966,6.78214.399l1.86175-2.26071Z"/><path class="cls-8" d="M92.9463,132.33694c-1.79528,12.14581-4.76409,33.32636-4.10946,36.38128.92574,4.32017-.92574,29.31551-.92574,29.31551s.44993.11991,1.15707.29683c2.0552.51413,6.284,1.50891,7.99928,1.44936.37364-.013.63226-.07417.71834-.20327.61714-.92578,5.24591-16.355,8.02317-23.761,1.47121-3.9232,3.98125-12.17566,6.06284-19.57472l-.3834.22612S93.86125,133.52766,92.9463,132.33694Z"/><path class="cls-8" d="M144.71133,136.874l-24.38477,14.3808c4.36759,7.182,11.95024,19.84725,13.255,23.32651,1.85148,4.93736,9.5661,27.77258,12.652,28.69832s5.24592-.30859,5.55451-1.23433a.41465.41465,0,0,0,.00554-.06472C151.89254,200.08717,146.85562,155.66148,144.71133,136.874Z"/><path class="cls-8" d="M153.29888,207.35085c-.26594,1.19682-3.05861,1.19682-4.92036.66489-1.013-.28942-1.74731-1.64072-2.1048-2.8269a6.66206,6.66206,0,0,0-1.88468,4.55568c.133,3.05861,5.05333,4.38843,5.85123,6.91512s3.72354,14.49512,10.63862,15.16005c0,0,4.74228-.1355,4.92039-2.92563.39895-6.25018-6.51616-13.69722-7.04809-14.36215-.43017-.53766-3.55532-5.33494-5.439-7.57372A1.5215,1.5215,0,0,1,153.29888,207.35085Z"/><path class="cls-8" d="M153.31216,206.95819a23.32351,23.32351,0,0,0-1.51862-4.9776.41465.41465,0,0,1-.00554.06472c-.30859.92574-2.46866,2.16007-5.55451,1.23433-.29523.03726-.25928.91543.04023,1.9092.35749,1.18618,1.09176,2.53748,2.1048,2.8269,1.86175.53193,4.65442.53193,4.92036-.66489A1.5215,1.5215,0,0,0,153.31216,206.95819Z"/><path class="cls-8" d="M116.23391,43.04248a4.798,4.798,0,0,1-5.0051,2.59523s1.483,2.22449,5.0051.18538"/><polyline class="cls-8" points="154.033 50.79 81.94 89.757 70.053 79.33"/><line class="cls-8" x1="111.8718" y1="156.24093" x2="81.9397" y2="89.75675"/><path class="cls-8" d="M113.824,38.77887s1.29762,3.33674-2.59523,2.03912"/><circle class="cls-6" cx="107.9268" cy="34.23216" r="0.65049"/><circle class="cls-6" cx="117.62502" cy="33.10859" r="0.65049"/><polygon class="cls-6" points="92.946 132.337 92.028 137.988 111.831 157.029 111.488 156.467 92.946 132.337"/><polygon class="cls-6" points="145.127 138.532 120.677 151.626 120.327 151.255 144.711 136.874 145.127 138.532"/><path class="cls-5" d="M967.79078,95.50822l-.65382,2.47245a8.23549,8.23549,0,0,0-1.09567-.22313Z"/><path class="cls-5" d="M1008.66641,47.27434c-.04923-.193-.09787-.39342-.14434-.59133.11986.07785.2344.15588.36347.23332,3.55715,2.13431,5.38656-.81306,6.91108-1.72778a5.87009,5.87009,0,0,0,1.31739-1.31222,35.09137,35.09137,0,0,1,.26987,4.27381,21.07538,21.07538,0,0,0-2.059,2.66622C1012.71242,49.42608,1010.41659,48.205,1008.66641,47.27434Z"/><path class="cls-7" d="M1005.892,45.7994c-.49706-.26421-.76693-.40758-.76693-.40758l-2.95388.04966a5.89586,5.89586,0,0,1,1.93753-2.79376,1.36755,1.36755,0,0,1,1.23717-.01817,4.28,4.28,0,0,0,.686,1.687Z"/><path class="cls-5" d="M1006.03191,44.3166a8.21358,8.21358,0,0,0,2.49016,2.36641c.04647.19791.09511.39835.14434.59133-1.21328-.64512-2.16554-1.15135-2.7744-1.47494Z"/><path class="cls-5" d="M1004.83214,31.26824a4.07928,4.07928,0,0,1,.40271-.43335s.60979-3.049,1.01632-4.37024.30489-2.13431,1.62614-2.23594,1.62615,1.32122,2.94737.91469.20326-.81306,2.7441-.3049,5.0817-.10163,5.285.60979.60979,2.23594,1.32122,2.23594,1.01635.5082,1.72777,1.42289a5.00715,5.00715,0,0,0,1.52452,1.32124l-1.52452,3.45553s.04286-.02933.11151-.07029c.31933-.19046,1.22774-.6466,1.31138.27356.10163,1.118-1.52452,5.285-2.64247,5.0817a42.77577,42.77577,0,0,1-3.05286,4.68414,5.8701,5.8701,0,0,1-1.31739,1.31222c-1.52451.91472-3.35392,3.86209-6.91108,1.72778-.12907-.07745-.24361-.15547-.36347-.23333a8.21351,8.21351,0,0,1-2.49015-2.3664,4.2796,4.2796,0,0,1-.686-1.68706,1.79124,1.79124,0,0,1-.01756-.18509l-1.14112-6.13011s-.95361.63764-1.09482-1.69566C1003.347,30.27075,1004.35062,31.85557,1004.83214,31.26824Z"/><path class="cls-7" d="M1017.38388,48.15014a2.74007,2.74007,0,0,1,1.56337-1.03054c1.62614,0,3.15066,2.84576,6.80945,4.37024s10.8748,4.06535,10.36664,8.334a19.356,19.356,0,0,1-.31694,1.91187c-5.999-3.20683-13.05088-6.96413-18.88292-10.06849-.54351-.28929-1.07816-.57386-1.59859-.85083A21.07538,21.07538,0,0,1,1017.38388,48.15014Z"/><path class="cls-5" d="M1045.6857,67.32253a1.35206,1.35206,0,0,0-.28792-.68622c-.92772-1.36127-3.59681-3.30782-.32576-2.79133,3.88665.6137,3.273,6.54594,3.0684,9.00066-.09024,1.0831.06415,4.58055-1.02278,6.75053-1.37652,2.748-4.06719,4.19958-4.29579,5.114-.3235,1.29405-2.81581,1.94325-3.94817,1.35137a.95237.95237,0,0,1-.55216-.73769C1038.117,83.68737,1045.6857,67.32253,1045.6857,67.32253Z"/><path class="cls-5" d="M967.1778,87.32242c-.41328,0-5.06257-2.273-4.236-4.13271.552-1.24211,4.76474.79182,7.50355,2.28034l-.7097,2.68378A24.17113,24.17113,0,0,0,967.1778,87.32242Z"/><path class="cls-5" d="M963.97493,97.86086c.69262-.8815,2.80393-2.91307,4.34837-4.36642l-.53252,2.01378-1.74949,2.24932a8.23549,8.23549,0,0,1,1.09567.22313c1.05514.28839,2.48264.90887,2.41715,2.1532,0,0,4.13274.51658,3.82279,2.89289,0,0,3.40949,1.96306,2.68626,2.99624a1.04875,1.04875,0,0,1-.09272.10455c-.83164.90055-3.37744.56556-4.96988-.82778l-1.2398-1.03318s-2.89291.6199-2.89291-2.06636c0,0-2.89292.92985-3.40949-.5166A3.33042,3.33042,0,0,1,963.97493,97.86086Z"/><path class="cls-7" d="M967.79078,95.50822l.53252-2.01378,1.41231-5.34061.7097-2.68378,10.491-39.67167,21.23492-.3569,2.95388-.04966s.26987.14337.76693.40758c.60886.32359,1.56112.82982,2.7744,1.47494,1.75018.93064,4.046,2.15174,6.65848,3.542.52043.277,1.05508.56154,1.59859.85083,5.832,3.10436,12.88393,6.86166,18.88292,10.06849,4.50671,2.40915,8.41609,4.50592,10.763,5.77931a1.352,1.352,0,0,1,.28792.68622s-7.56873,16.36484-7.36418,18.00133a.95237.95237,0,0,0,.55216.73769c-5.20816,10.78248-10.78018,22.37765-10.78018,22.37765l-.378.49192c-.7182.93467-14.55494,18.94135-14.55494,18.94135l-.301-.1775-6.63671-3.91394-19.14125-11.28846-12.28278-7.2437a1.04875,1.04875,0,0,0,.09272-.10455c.72323-1.03318-2.68626-2.99624-2.68626-2.99624.31-2.37631-3.82279-2.89289-3.82279-2.89289.06549-1.24433-1.362-1.86481-2.41715-2.1532Z"/><path class="cls-6" d="M1026.60753,168.067c1.46141,1.77457,5.32376-.31317,5.32376-.31317l8.9773,12.63086s1.04387,3.02723.52192,4.90619-3.86232,1.98336-3.86232,1.98336c-4.07111.10438-7.51588-8.45537-10.33433-11.27382s-3.44478-3.54915-3.86232-5.95006c-.31094-1.788,1.11386-3.57442,1.86213-4.37077l-.08755.61283Z"/><path class="cls-5" d="M1025.23367,165.67954l.41845-2.9292a34.33667,34.33667,0,0,0,6.27917-1.1377v6.14114s-3.86235,2.08774-5.32376.31317l-1.46141-1.77458Z"/><path class="cls-9" d="M1030.05866,108.34533c1.40924,9.53407,3.73965,26.1601,3.22579,28.55812-.72667,3.3912.72668,23.01172.72668,23.01172s-.35319.09412-.90827.233a34.33674,34.33674,0,0,1-6.27917,1.13771c-.2933-.0102-.4963-.05822-.56387-.15956-.48444-.72671-4.11788-12.83813-6.29793-18.65162-1.15485-3.07958-3.12516-9.55749-4.75913-15.36552l.30095.1775S1029.34045,109.28,1030.05866,108.34533Z"/><path class="cls-9" d="M989.42479,111.90679l19.14125,11.28845c-3.42841,5.6376-9.38055,15.57945-10.40473,18.31055-1.45335,3.87567-7.50907,21.80058-9.93136,22.52726s-4.11788-.24224-4.36011-.96891a.325.325,0,0,1-.00435-.05081C983.78778,161.52706,987.74159,126.65433,989.42479,111.90679Z"/><path class="cls-6" d="M981.51227,168.69328c.20876.93946,2.40091.93946,3.86232.52192.79521-.22719,1.37158-1.28792,1.65221-2.219a5.22955,5.22955,0,0,1,1.4794,3.57606c-.10437,2.40091-3.96669,3.44478-4.593,5.42814s-2.92286,11.3782-8.351,11.90015c0,0-3.72253-.10636-3.86235-2.29653-.31316-4.90619,5.115-10.75187,5.53252-11.27382.33768-.422,2.79081-4.18775,4.26946-5.94512A1.1946,1.1946,0,0,0,981.51227,168.69328Z"/><path class="cls-5" d="M981.50184,168.38505a18.30905,18.30905,0,0,1,1.19207-3.90725.32485.32485,0,0,0,.00435.0508c.24224.72668,1.93782,1.69559,4.36011.96891.23175.02924.20353.71858-.03157,1.49866-.28063.93111-.857,1.99184-1.65221,2.219-1.46141.41754-3.65356.41754-3.86232-.52192A1.1946,1.1946,0,0,1,981.50184,168.38505Z"/><path class="cls-1" d="M967.64017,94.865l-.65381,2.47245a8.23743,8.23743,0,0,0-1.09567-.22313Z"/><path class="cls-8" d="M1008.51581,46.6311c-.04923-.193-.09787-.39341-.14434-.59133.11986.07785.2344.15588.36346.23332,3.55716,2.13431,5.38657-.81305,6.91109-1.72777a5.87038,5.87038,0,0,0,1.31739-1.31223,35.09343,35.09343,0,0,1,.26987,4.27382,21.074,21.074,0,0,0-2.059,2.66622C1012.56182,48.78285,1010.266,47.56174,1008.51581,46.6311Z"/><path class="cls-8" d="M1005.74141,45.15616c-.49706-.2642-.76693-.40758-.76693-.40758l-2.95388.04966a5.89591,5.89591,0,0,1,1.93753-2.79376,1.36755,1.36755,0,0,1,1.23717-.01817,4.2799,4.2799,0,0,0,.686,1.687Z"/><path class="cls-8" d="M1005.88131,43.67336a8.21346,8.21346,0,0,0,2.49016,2.36641c.04647.19792.09511.39835.14434.59133-1.21328-.64511-2.16554-1.15134-2.7744-1.47494Z"/><path class="cls-8" d="M1004.6311,30.93233c.23093-.28164-.06315-.71734-.06315-.71734s.6098-3.049,1.01633-4.37025.30489-2.1343,1.62614-2.23594,1.62615,1.32122,2.94737.91469.20326-.81305,2.7441-.30489,5.0817-.10163,5.285.60979.6098,2.23594,1.32122,2.23594,1.01636.50819,1.72778,1.42288a5.00731,5.00731,0,0,0,1.52451,1.32125l-1.52451,3.45553s.04286-.02933.11151-.07029c.31933-.19047,1.22774-.6466,1.31137.27355.10163,1.118-1.52451,5.285-2.64247,5.0817a10.84692,10.84692,0,0,1-3.05285,4.68414c-.598.48057-.93856,1.08492-1.31739,1.31223-1.52452.91472-3.35393,3.86208-6.91109,1.72777-.12906-.07744-.2436-.15547-.36346-.23332a8.21346,8.21346,0,0,1-2.49016-2.36641,4.2799,4.2799,0,0,1-.686-1.687,1.79254,1.79254,0,0,1-.01755-.18509l-.90872-5.293s-1.186-.1995-1.32722-2.53281C1002.68009,29.65085,1004.14958,31.51966,1004.6311,30.93233Z"/><path class="cls-8" d="M1017.23328,47.50691a2.7401,2.7401,0,0,1,1.56337-1.03055c1.62614,0,3.15066,2.84576,6.80945,4.37025s10.8748,4.06535,10.36664,8.334a19.35579,19.35579,0,0,1-.31694,1.91188c-5.999-3.20684-13.05088-6.96414-18.88292-10.06849-.54351-.2893-1.07816-.57386-1.5986-.85083A21.074,21.074,0,0,1,1017.23328,47.50691Z"/><path class="cls-8" d="M1046.70667,67.558a1.352,1.352,0,0,0-.28792-.68621c-.92772-1.36127-3.5968-3.30783-.32576-2.79134,3.88666.61371,3.273,6.54595,3.0684,9.00066-.09024,1.08311.06415,4.58056-1.02278,6.75053-1.37652,2.748-4.06719,4.19959-4.29578,5.114-.32351,1.29406-2.81582,1.94326-3.94818,1.35137a.95235.95235,0,0,1-.55216-.73769C1039.13794,83.92282,1046.70667,67.558,1046.70667,67.558Z"/><path class="cls-8" d="M967.0272,86.67919c-.41328,0-5.06257-2.273-4.236-4.13272.552-1.24211,4.76474.79182,7.50356,2.28034l-.7097,2.68378A24.17332,24.17332,0,0,0,967.0272,86.67919Z"/><path class="cls-8" d="M963.82433,97.21763c.69262-.88151,2.80393-2.91307,4.34837-4.36642l-.53253,2.01377-1.74948,2.24932a8.23743,8.23743,0,0,1,1.09567.22313c1.05514.28839,2.48264.90888,2.41714,2.15321,0,0,4.13275.51657,3.8228,2.89288,0,0,3.40949,1.96306,2.68626,2.99624a1.04537,1.04537,0,0,1-.09273.10455c-.83163.90055-3.37744.56557-4.96987-.82778l-1.2398-1.03318s-2.89291.6199-2.89291-2.06635c0,0-2.89292.92985-3.40949-.51661A3.33039,3.33039,0,0,1,963.82433,97.21763Z"/><path class="cls-8" d="M967.64017,94.865l.53253-2.01377,1.41231-5.34062.7097-2.68378,10.491-39.67167,21.23492-.3569,2.95388-.04966s.26987.14338.76693.40758c.60886.3236,1.56112.82983,2.7744,1.47494,1.75018.93064,4.046,2.15175,6.65847,3.542.52044.277,1.05509.56153,1.5986.85083,5.832,3.10435,12.88393,6.86165,18.88292,10.06849,4.5067,2.40914,8.41609,4.50591,10.763,5.77931a1.352,1.352,0,0,1,.28792.68621s-7.56873,16.36485-7.36418,18.00133a.95235.95235,0,0,0,.55216.73769c-5.20816,10.78249-10.78018,22.37765-10.78018,22.37765l-.378.49192c-.7182.93468-14.55494,18.94135-14.55494,18.94135l-.301-.1775-6.63671-3.91394L988.10262,112.728l-12.28279-7.24371a1.04537,1.04537,0,0,0,.09273-.10455c.72323-1.03318-2.68626-2.99624-2.68626-2.99624.30995-2.37631-3.8228-2.89288-3.8228-2.89288.0655-1.24433-1.362-1.86482-2.41714-2.15321Z"/><path class="cls-8" d="M1026.45693,167.42371c1.46141,1.77458,5.32376-.31316,5.32376-.31316l8.97729,12.63085s1.04387,3.02724.52192,4.90619-3.86231,1.98337-3.86231,1.98337c-4.07111.10437-7.51588-8.45538-10.33433-11.27382s-3.44478-3.54916-3.86232-5.95007c-.311-1.788,1.11386-3.57442,1.86213-4.37077l-.08755.61283Z"/><path class="cls-8" d="M1025.08307,165.0363l.41845-2.92919a34.33689,34.33689,0,0,0,6.27917-1.13771v6.14115s-3.86235,2.08774-5.32376.31316l-1.46141-1.77458Z"/><path class="cls-8" d="M1028.73648,109.16656c1.40924,9.53407,3.73966,26.16011,3.2258,28.55812-.72668,3.3912.72667,23.01172.72667,23.01172s-.35318.09413-.90826.233a34.33689,34.33689,0,0,1-6.27917,1.13771c-.2933-.0102-.49631-.05822-.56388-.15956-.48444-.72671-4.11787-12.83813-6.29793-18.65162-1.15485-3.07958-3.12515-9.55749-4.75913-15.36552l.301.1775S1028.01828,110.10124,1028.73648,109.16656Z"/><path class="cls-8" d="M988.10262,112.728l19.14125,11.28845c-3.42842,5.6376-9.38055,15.57945-10.40473,18.31055-1.45335,3.87567-7.50908,21.80058-9.93137,22.52726s-4.11787-.24224-4.36011-.96891a.325.325,0,0,1-.00435-.05081C982.4656,162.34829,986.41942,127.47556,988.10262,112.728Z"/><path class="cls-8" d="M981.36167,168.05c.20876.93946,2.40091.93946,3.86232.52192.79521-.22719,1.37158-1.28792,1.6522-2.219a5.22947,5.22947,0,0,1,1.47941,3.57606c-.10438,2.4009-3.96669,3.44477-4.593,5.42814s-2.92286,11.37819-8.351,11.90014c0,0-3.72253-.10636-3.86235-2.29652-.31316-4.90619,5.115-10.75187,5.53252-11.27382.33767-.422,2.79081-4.18776,4.26946-5.94513A1.19456,1.19456,0,0,0,981.36167,168.05Z"/><path class="cls-8" d="M981.35124,167.74181a18.30905,18.30905,0,0,1,1.19207-3.90725.325.325,0,0,0,.00435.05081c.24224.72667,1.93782,1.69558,4.36011.96891.23175.02924.20353.71858-.03158,1.49866-.28062.9311-.857,1.99183-1.6522,2.219-1.46141.41754-3.65356.41754-3.86232-.52192A1.19456,1.19456,0,0,1,981.35124,167.74181Z"/><path class="cls-6" d="M1002.371,26.84757a7.12108,7.12108,0,0,0,.49028-1.86589,15.092,15.092,0,0,1,.12863-1.85578,2.4578,2.4578,0,0,1,.98707-1.28146c.4707-.37577.95666-.73125,1.4525-1.07238,1.04523-1.29467,1.146-4.504,4.1185-4.68417.49716-.03012.99593-.05944,1.49059-.0833a1.91764,1.91764,0,0,1,1.84206-.14528c.08658.03252.17348.06693.2607.10086.42187.00695.83235.02572,1.2248.06255a2.17647,2.17647,0,0,0,.25463-.14713,3.05279,3.05279,0,0,1,1.44176-.62949,3.85238,3.85238,0,0,1,1.705.28657,5.64518,5.64518,0,0,1,1.53153.7528c.41965.33627.393.90258.777,1.25854a2.99227,2.99227,0,0,0,1.369.58224,4.01944,4.01944,0,0,1,1.95051.87751.2518.2518,0,0,1,.13846-.00253,2.1778,2.1778,0,0,1,1.4853,1.55128,2.72332,2.72332,0,0,1,.598.64967,5.524,5.524,0,0,1,.39063,2.58276c.07249.91387.69507,1.69635.6983,2.618a2.02386,2.02386,0,0,1-.34419,1.07758,3.09844,3.09844,0,0,0-.49092.92947,1.47283,1.47283,0,0,1,.83629.97312,2.08775,2.08775,0,0,1-.3262,1.72341,7.66505,7.66505,0,0,1-1.39653,1.5601,3.30618,3.30618,0,0,1-2.03684.83569c-.28472.01537-.33645-.33294-.16482-.4829l-.00165-.00222-.00209-.00175c-.01143-.01247-.024-.02366-.03572-.03569-.0392-.002-.07845-.004-.11771-.00276q-.04443.00141-.08873.00559l-.02413.00263-.01267.00212c-.05092.01075-.10167.02022-.15185.03441-.0434.01227-.08552.02777-.12765.0435-.00721.00361-.04727.02022-.05526.02417q-.03989.01967-.07849.04175c-.04515.02585-.08778.05483-.13048.08452l-.00094.0007-.03016.02518c-.02248.01941-.04408.03969-.06537.06035a.2821.2821,0,0,1-.47175-.1721l-.041.06393c-.06865.04094-.11151.07026-.11151.07026l1.52452-3.45552a5.0072,5.0072,0,0,1-1.52452-1.32125c-.71144-.91468-1.01631-1.42289-1.72779-1.42289-.71141,0-1.11795-1.52448-1.32122-2.23593s-2.74411-.10163-5.285-.60981-1.42285-.1016-2.74407.30491-1.62615-1.01632-2.94737-.91468-1.21962.91468-1.62616,2.23593c-.33779,1.0978-.81473,3.3829-.96678,4.12625v.59926a.53068.53068,0,0,1-.54959.425c-.48057-.435-.97436-.85927-1.44108-1.30918a2.17431,2.17431,0,0,1-.73989-1.23324A3.21536,3.21536,0,0,1,1002.371,26.84757Z"/><ellipse class="cls-8" cx="1016.86916" cy="34.44444" rx="2.06381" ry="2.67934" transform="translate(660.14997 987.31417) rotate(-71.416)"/><ellipse class="cls-8" cx="1009.55529" cy="32.99615" rx="2.06381" ry="2.67934" transform="translate(656.53976 979.39494) rotate(-71.416)"/><path class="cls-8" d="M1012.09492,33.85s1.80525-.67285,2.16732.41336"/><path class="cls-8" d="M1007.01566,32.14226a5.53982,5.53982,0,0,1-2.39818-2.17128"/><line class="cls-8" x1="1019.83816" y1="34.55306" x2="1022.73474" y2="31.94614"/><path class="cls-8" d="M1014.38531,41.11049s-1.1641,1.74615-3.92884.14551"/><polyline class="cls-8" points="980.786 45.155 1037.376 75.742 1046.707 67.558"/><line class="cls-8" x1="1013.88058" y1="127.93041" x2="1037.37631" y2="75.7425"/><path class="cls-8" d="M1012.88636,34.191s-2.76611,4.78414.28966,3.76556"/><circle class="cls-6" cx="1016.99821" cy="33.05496" r="0.51061"/><circle class="cls-6" cx="1009.36449" cy="31.27553" r="0.51061"/><polygon class="cls-6" points="1028.736 109.167 1029.457 113.602 1013.912 128.549 1014.182 128.108 1028.736 109.167"/><polygon class="cls-6" points="987.777 114.029 1006.968 124.308 1007.244 124.016 988.103 112.728 987.777 114.029"/><path class="cls-1" d="M1062.73852,345.07734c-1.31476-1.31471,1.57765-7.88837,2.62943-16.30267,1.05178-8.41424-4.20712-67.57712-4.20712-67.57712s-12.88435,32.34236-11.83257,38.39011,10.78079,41.54549,10.78079,41.54549a10.4314,10.4314,0,0,1-1.34528.94566l3.65356,3.40447C1062.61924,345.226,1062.73852,345.07734,1062.73852,345.07734Z"/><path class="cls-1" d="M1076.09708,144.31742a4.93967,4.93967,0,0,1-.85545.90019c-.6692,1.97255-1.30212,3.90033-1.45967,4.583-.19009.82379.54286,1.64615,1.32072,2.32061,1.23679.78575,3.59835,2.37854,6.308,4.06707a8.405,8.405,0,0,1-.43964-6.875c1.26241-3.12275,3.17057-6.2822,4.25559-9.49718C1082.50692,140.44824,1078.55151,141.07751,1076.09708,144.31742Z"/><path class="cls-9" d="M1108.26537,131.03581c-2.81717-3.32018-4.99583-3.53363-3.41182-9.62611,1.58407-6.09248-3.65549-7.55468-3.65549-7.55468-9.62607-6.2143-14.74377,0-14.25635.97483,2.437,1.4622,3.04622,4.26473,4.50842,6.9454s1.82774,4.874-.24369,6.94544-3.77736,1.584-2.31516,4.14287a4.40114,4.40114,0,0,1-1.94957,6.458,12.3077,12.3077,0,0,1-1.71507.49448c-1.085,3.215-2.99318,6.37443-4.25559,9.49718a8.405,8.405,0,0,0,.43964,6.875c2.0117,1.25364,4.20606,2.55409,6.26207,3.604,2.86758,1.46428,4.91007,6.86937,6.14326,12.07007,3.75677,1.38871,7.16028,1.2632,5.798-1.591-2.55885-5.36138,1.96378-5.59016,4.14286-7.67655,5.72694-5.4832-5.36138-14.50007,2.1933-18.88662C1113.50488,139.32159,1111.67713,135.05686,1108.26537,131.03581Z"/><path class="cls-9" d="M1091.20644,128.72069c2.07143-2.07143,1.70588-4.26473.24369-6.94544s-2.07144-5.4832-4.50842-6.9454c-2.437-1.4622-7.06731-1.70588-8.164-2.31516-13.97666-7.76481-17.91184,7.67654-17.91184,7.67654-.06726-.042-.07465.03434-.039.19558.29215-.61555.48136-.98526.48136-.98526,1.90461.5507,3.09123-1.03807,4.55343-2.01285,1.4622-.97483,2.55884-.24373,4.26473,1.21847s2.437.24368,3.53363-.12187a2.85415,2.85415,0,0,1,3.77732,2.68071c.24373,2.80254.853,5.72693,2.80253,7.92023s-.48737,6.09248-.48737,6.09248c2.68067.48737,1.584,2.68067,1.09665,3.77732s-3.77736.97478-3.77736.97478-.94677,2.68252-1.83024,5.28679a4.93967,4.93967,0,0,0,.85545-.90019c2.45443-3.23991,6.40984-3.86918,9.12956-4.50135a12.3077,12.3077,0,0,0,1.71507-.49448,4.40114,4.40114,0,0,0,1.94957-6.458C1087.42908,130.30471,1089.135,130.79213,1091.20644,128.72069Z"/><path class="cls-7" d="M1079.75258,135.17872s2.437-3.89923.48737-6.09248c-1.94957-2.1933-2.5588-5.11769-2.80253-7.92023a2.85415,2.85415,0,0,0-3.77732-2.68071c-1.09665.36555-1.82775,1.58406-3.53363.12187s-2.80253-2.1933-4.26473-1.21847c-1.4622.97478-2.64882,2.56355-4.55343,2.01285,0,0-.18921.36971-.48136.98526-1.13257,2.38612-3.8377,8.52661-3.30634,11.71472.66841,4.01048,3.86175,9.91517,2.89647,11.36311-.814,1.2211-2.9069,5.23578-5.13094,6.43283a3.06946,3.06946,0,0,1-.63458.2687c-2.45083.66846,4.874,11.08831,17.57427,6.22122l4.45611-2.89651a11.33355,11.33355,0,0,0-1.57926-1.36965c-.77786-.67446-1.51081-1.49682-1.32072-2.32061.15755-.68268.79047-2.61046,1.45967-4.583.88347-2.60427,1.83024-5.28679,1.83024-5.28679s3.28994.12187,3.77736-.97478S1082.43325,135.66609,1079.75258,135.17872Z"/><path class="cls-3" d="M1093.816,171.86235c-1.23319-5.2007-3.27568-10.60579-6.14326-12.07007-2.056-1.04989-4.25037-2.35034-6.26207-3.604-2.70966-1.68853-5.07122-3.28132-6.308-4.06707a11.33355,11.33355,0,0,1,1.57926,1.36965l-4.45611,2.89651c-12.70026,4.86709-20.0251-5.55276-17.57427-6.22122a3.06946,3.06946,0,0,0,.63458-.2687c-4.50454,1.1796-13.10163,1.96817-17.20609,2.58386-4.874.7311-5.8488,8.28578-9.8698,13.40343-1.83887,2.34037-2.44852,4.01329-2.55188,5.28494l34.9638,1.295,2.776,35.447c.93426.079,1.87844.13308,2.82913.13308a15.93362,15.93362,0,0,0,12.06309-4.99583c1.4622-1.70589.36555-16.08414.36555-16.08414s10.1998-1.89815,14.54721-3.3369a4.32021,4.32021,0,0,0,1.90248-.92784C1095.47066,182.03081,1095.04571,177.04822,1093.816,171.86235Z"/><path class="cls-5" d="M1055.38266,209.99428a18.559,18.559,0,0,1-4.7521-.12182c-3.6555-.36555-1.34038-1.58407-1.34038-1.58407,3.44006-2.29337,8.576-.84428,14.108-.37676l-2.776-35.447-34.9638-1.295-17.67517-.65466-22.29844,9.99167-3.28995,42.52549,52.76084,4.99583.19988-.06439,8.39222-2.70255a.65229.65229,0,0,1,.181-.27932c.50223-.50223,2.24126-.7155,3.53363-1.70588a35.30854,35.30854,0,0,0,4.449-4.26367.08409.08409,0,0,0-.1076-.12759c-1.66868,1.11345-6.69714,4.33065-6.90025,2.80719C1044.6599,219.86412,1055.38266,209.99428,1055.38266,209.99428Z"/><path class="cls-7" d="M1078.65593,186.96474s1.09665,14.37825-.36555,16.08414a15.93362,15.93362,0,0,1-12.06309,4.99583c-.95069,0-1.89487-.0541-2.82913-.13308-5.53194-.46752-10.66792-1.91661-14.108.37676,0,0-2.31512,1.21852,1.34038,1.58407a18.559,18.559,0,0,0,4.7521.12182s-10.72276,9.86984-10.479,11.69754c.20311,1.52346,5.23157-1.69374,6.90025-2.80719a.08409.08409,0,0,1,.1076.12759,35.30854,35.30854,0,0,1-4.449,4.26367c-1.29237.99038-3.0314,1.20365-3.53363,1.70588a.65229.65229,0,0,0-.181.27932c-.31791,1.15837,6.04679.9517,9.56348-.523,3.77731-1.58406,6.458-7.43281,9.13869-7.67654,2.68072-.24368,9.38243.48742,14.2564-1.21847,3.12755-1.09462,6.852-1.7454,9.67047-3.73983a9.36939,9.36939,0,0,0,3.61114-4.9115c1.60613-4.91283,2.77211-17.95145,3.21521-23.5639C1088.85573,185.06659,1078.65593,186.96474,1078.65593,186.96474Z"/><path class="cls-3" d="M1086.37679,212.10324c-2.8185,1.99443-6.54292,2.64521-9.67047,3.73983-4.874,1.70589-11.57568.97479-14.2564,1.21847-2.68066.24373-5.36138,6.09248-9.13869,7.67654-3.51669,1.47471-9.88139,1.68138-9.56348.523l-8.39222,2.70255-.078,2.98874,1.82774,1.21852c20.546,9.952,45.31437-.01685,51.04389-2.5931.79447-.35724,1.22954-.575,1.22954-.575Z"/><path class="cls-5" d="M1088.14915,229.5778c-5.72952,2.57625-30.49786,12.54506-51.04389,2.5931l-1.82774-1.21852c1.82774,1.21852-6.45905,54.17328-3.56664,66.7947,2.45872,10.72894,12.70593,37.98375,15.72408,45.917.53238,1.39933.84152,2.20207.84152,2.20207s6.604-1.4459,10.48729-3.78738a10.4314,10.4314,0,0,0,1.34528-.94566s-9.729-35.4977-10.78079-41.54549,11.83257-38.39011,11.83257-38.39011,5.2589,59.16288,4.20712,67.57712c-1.05178,8.4143-3.94419,14.988-2.62943,16.30267,1.13681,1.13681,11.11444,3.686,13.79548,1.43132a1.78732,1.78732,0,0,0,.66652-1.43132c0-1.31471,9.20314-26.82047,9.46607-47.33026C1086.87367,281.59572,1089.03659,245.3931,1088.14915,229.5778Z"/><path class="cls-1" d="M1065.4849,344.21363c-1.31476-1.31471,1.57765-7.88838,2.62943-16.30267s-4.20713-67.57712-4.20713-67.57712-12.88434,32.34236-11.83256,38.39011,10.78078,41.54549,10.78078,41.54549a10.43057,10.43057,0,0,1-1.34527.94566l3.65356,3.40447C1065.36562,344.36232,1065.4849,344.21363,1065.4849,344.21363Z"/><path class="cls-1" d="M1078.84346,143.45371a4.94,4.94,0,0,1-.85546.90019c-.6692,1.97255-1.30211,3.90033-1.45966,4.583-.19009.82379.54285,1.64615,1.32072,2.32061,1.23679.78575,3.59835,2.37854,6.308,4.06707a8.40509,8.40509,0,0,1-.43964-6.875c1.26242-3.12275,3.17058-6.2822,4.25559-9.49718C1085.2533,139.58453,1081.29789,140.2138,1078.84346,143.45371Z"/><path class="cls-8" d="M1111.01174,130.1721c-2.81716-3.32018-4.99583-3.53363-3.41181-9.62611s-3.6555-7.55468-3.6555-7.55468c-9.62606-6.2143-14.74376,0-14.25635.97483,2.437,1.4622,3.04622,4.26473,4.50842,6.9454s1.82775,4.874-.24368,6.94544c-2.07148,2.07143-3.77737,1.584-2.31517,4.14287a4.40114,4.40114,0,0,1-1.94957,6.458,12.30689,12.30689,0,0,1-1.71507.49448c-1.085,3.215-2.99317,6.37443-4.25559,9.49718a8.40509,8.40509,0,0,0,.43964,6.875c2.0117,1.25364,4.20606,2.55409,6.26208,3.604,2.86757,1.46428,4.91006,6.86937,6.14325,12.07007,3.75678,1.38871,7.16028,1.26319,5.798-1.591-2.55884-5.36138,1.96379-5.59016,4.14287-7.67655,5.72693-5.4832-5.36138-14.50007,2.1933-18.88663S1114.42351,134.19315,1111.01174,130.1721Z"/><path class="cls-8" d="M1093.95282,127.857c2.07143-2.07143,1.70588-4.26473.24368-6.94544s-2.07143-5.4832-4.50842-6.9454-7.06731-1.70589-8.164-2.31517c-13.97665-7.7648-17.91184,7.67655-17.91184,7.67655-.06726-.042-.07464.03434-.039.19558.29215-.61555.48137-.98526.48137-.98526,1.9046.5507,3.09122-1.03807,4.55342-2.01285,1.4622-.97483,2.55885-.24373,4.26473,1.21846s2.437.24369,3.53363-.12186a2.85415,2.85415,0,0,1,3.77732,2.68071c.24373,2.80254.853,5.72693,2.80253,7.92023,1.94962,2.19325-.48737,6.09248-.48737,6.09248,2.68067.48737,1.584,2.68067,1.09665,3.77732s-3.77736.97478-3.77736.97478-.94676,2.68252-1.83024,5.28679a4.94,4.94,0,0,0,.85546-.90019c2.45443-3.23991,6.40984-3.86918,9.12955-4.50135a12.30689,12.30689,0,0,0,1.71507-.49448,4.40114,4.40114,0,0,0,1.94957-6.458C1090.17545,129.441,1091.88134,129.92841,1093.95282,127.857Z"/><path class="cls-10" d="M1082.499,134.315s2.437-3.89923.48737-6.09248c-1.94956-2.1933-2.5588-5.11769-2.80253-7.92023a2.85415,2.85415,0,0,0-3.77732-2.68071c-1.09664.36555-1.82774,1.58406-3.53363.12186s-2.80253-2.19329-4.26473-1.21846c-1.4622.97478-2.64882,2.56355-4.55342,2.01285,0,0-.18922.36971-.48137.98526-1.13256,2.38612-3.8377,8.5266-3.30633,11.71472.66841,4.01048,3.86174,9.91517,2.89647,11.36311-.81406,1.2211-2.90691,5.23578-5.13095,6.43282a3.06874,3.06874,0,0,1-.63458.26871c-2.45083.66846,4.874,11.08831,17.57427,6.22122l4.45612-2.89651a11.33481,11.33481,0,0,0-1.57926-1.36965c-.77787-.67446-1.51081-1.49682-1.32072-2.32061.15755-.68268.79046-2.61046,1.45966-4.583.88348-2.60427,1.83024-5.28679,1.83024-5.28679s3.28995.12187,3.77736-.97478S1085.17962,134.80238,1082.499,134.315Z"/><path class="cls-10" d="M1096.56239,170.99864c-1.23319-5.2007-3.27568-10.60579-6.14325-12.07007-2.056-1.04989-4.25038-2.35034-6.26208-3.604-2.70965-1.68853-5.07121-3.28132-6.308-4.06707a11.33481,11.33481,0,0,1,1.57926,1.36965l-4.45612,2.89651c-12.70025,4.86709-20.0251-5.55276-17.57427-6.22122a3.06874,3.06874,0,0,0,.63458-.26871c-4.50454,1.17961-13.10163,1.96818-17.20609,2.58387-4.874.7311-5.84879,8.28578-9.86979,13.40343-1.83888,2.34037-2.44853,4.01329-2.55188,5.28494l34.9638,1.295,2.776,35.447c.93425.079,1.87843.13309,2.82912.13309a15.93363,15.93363,0,0,0,12.0631-4.99583c1.46219-1.70589.36555-16.08415.36555-16.08415s10.1998-1.89814,14.5472-3.33689a4.32021,4.32021,0,0,0,1.90249-.92784C1098.217,181.16709,1097.79208,176.18451,1096.56239,170.99864Z"/><path class="cls-8" d="M1058.129,209.13056a18.55849,18.55849,0,0,1-4.7521-.12181c-3.65549-.36555-1.34038-1.58407-1.34038-1.58407,3.44007-2.29337,8.576-.84429,14.108-.37677l-2.776-35.447-34.9638-1.295-17.67518-.65466L988.43113,179.643l-3.29,42.5255,52.76085,4.99583.19987-.06439,8.39223-2.70255a.65216.65216,0,0,1,.181-.27932c.50224-.50224,2.24126-.7155,3.53364-1.70589a35.30782,35.30782,0,0,0,4.449-4.26367.08409.08409,0,0,0-.1076-.12758c-1.66868,1.11345-6.69715,4.33064-6.90026,2.80719C1047.40627,219.00041,1058.129,209.13056,1058.129,209.13056Z"/><path class="cls-8" d="M1081.40231,186.101s1.09664,14.37826-.36555,16.08415a15.93363,15.93363,0,0,1-12.0631,4.99583c-.95069,0-1.89487-.0541-2.82912-.13309-5.532-.46752-10.66792-1.9166-14.108.37677,0,0-2.31511,1.21852,1.34038,1.58407a18.55849,18.55849,0,0,0,4.7521.12181s-10.72276,9.86985-10.479,11.69755c.20311,1.52345,5.23158-1.69374,6.90026-2.80719a.08409.08409,0,0,1,.1076.12758,35.30782,35.30782,0,0,1-4.449,4.26367c-1.29238.99039-3.0314,1.20365-3.53364,1.70589a.65216.65216,0,0,0-.181.27932c-.31791,1.15837,6.04678.9517,9.56347-.523,3.77732-1.58406,6.458-7.43281,9.1387-7.67654s9.38243.48741,14.25639-1.21847c3.12755-1.09462,6.852-1.7454,9.67047-3.73983a9.36937,9.36937,0,0,0,3.61114-4.9115c1.60613-4.91283,2.77211-17.95145,3.21521-23.5639C1091.60211,184.20288,1081.40231,186.101,1081.40231,186.101Z"/><path class="cls-8" d="M1089.12316,211.23953c-2.8185,1.99443-6.54292,2.64521-9.67047,3.73983-4.874,1.70588-11.57568.97478-14.25639,1.21847s-5.36138,6.09248-9.1387,7.67654c-3.51669,1.47471-9.88138,1.68138-9.56347.523l-8.39223,2.70255-.078,2.98874,1.82775,1.21852c20.546,9.952,45.31436-.01685,51.04388-2.5931.79448-.35724,1.22955-.575,1.22955-.575Z"/><path class="cls-8" d="M1090.89552,228.71409c-5.72952,2.57625-30.49785,12.54506-51.04388,2.5931l-1.82775-1.21852c1.82775,1.21852-6.459,54.17328-3.56664,66.7947,2.45873,10.72894,12.70594,37.98375,15.72409,45.917.53238,1.39933.84152,2.20207.84152,2.20207s6.604-1.44591,10.48729-3.78738a10.43057,10.43057,0,0,0,1.34527-.94566s-9.729-35.4977-10.78078-41.54549,11.83256-38.39011,11.83256-38.39011,5.25891,59.16288,4.20713,67.57712-3.94419,14.988-2.62943,16.30267c1.13681,1.13681,11.11444,3.686,13.79547,1.43132a1.78733,1.78733,0,0,0,.66652-1.43132c0-1.31471,9.20314-26.82047,9.46607-47.33026C1089.62,280.732,1091.783,244.52939,1090.89552,228.71409Z"/><path class="cls-8" d="M1066.83073,128.337c-.25638.4273-2.39287,2.30741-1.88011,3.24747.93407,1.71247,2.56379.34184,2.56379.34184"/><path class="cls-8" d="M1070.24911,135.772s-2.30741,2.13649-4.10206,1.02552"/><path class="cls-8" d="M1063.0705,141.156s2.99109,4.61482,11.28068-.59822"/><path class="cls-8" d="M988.43113,179.643l48.7451,4.15734s25.29606-12.13527,25.55244-12.30619"/><path class="cls-8" d="M1038.1019,227.09993s-.92567-42.8723-.92567-43.2996"/><path class="cls-8" d="M1081.40231,186.101s-.50928-6.88279,2.24681-8.63667"/><path class="cls-6" d="M1046.67517,224.11806l-8.57327,2.98187.01341,1.54921,8.84946-3.65636S1046.06393,224.67483,1046.67517,224.11806Z"/><circle class="cls-6" cx="1064.86779" cy="125.84133" r="0.86605"/><circle class="cls-6" cx="1074.20189" cy="128.1508" r="0.86605"/><path class="cls-1" d="M54.04869,343.12982c1.33411-1.33406-1.60087-8.00447-2.66813-16.5426-1.06726-8.53808,4.269-68.57168,4.269-68.57168s13.074,32.81835,12.00671,38.95511-10.93945,42.15693-10.93945,42.15693a10.58556,10.58556,0,0,0,1.36508.95958l-3.70733,3.45458C54.16973,343.28069,54.04869,343.12982,54.04869,343.12982Z"/><path class="cls-1" d="M40.49353,139.41524a5.01228,5.01228,0,0,0,.868.91343c.679,2.00159,1.32128,3.95774,1.48115,4.65047.19289.83591-.55085,1.67037-1.34016,2.35476-1.255.79732-3.6513,2.41355-6.40084,4.12693a8.52878,8.52878,0,0,0,.44611-6.97624c-1.281-3.16871-3.21724-6.37466-4.31822-9.63695C33.98935,135.48912,38.003,136.12765,40.49353,139.41524Z"/><path class="cls-5" d="M32.82973,130.142s-2.47285-3.95661-.49455-6.18214c1.97827-2.22558,2.59647-5.193,2.84378-8.0368a2.89615,2.89615,0,0,1,3.83291-2.72016c1.11279.37093,1.85465,1.60738,3.58564.12366s2.84378-2.22558,4.3275-1.2364,2.6878,2.60128,4.62043,2.04247c0,0,.192.37515.48846.99977,1.14923,2.42123,3.18374,8.61194,3.355,11.88712.45785,8.75648-3.91858,10.0611-2.9391,11.53035.826,1.23907,2.94969,5.31283,5.20646,6.5275a3.11433,3.11433,0,0,0,.64392.27266c2.4869.67829-4.94575,11.2515-17.83292,6.31278l-4.5217-2.93915a11.50233,11.50233,0,0,1,1.60251-1.3898c.78931-.68439,1.533-1.51885,1.34015-2.35476-.15986-.69273-.80209-2.64888-1.48114-4.65047-.89648-2.64259-1.85718-5.36459-1.85718-5.36459s-3.33836.12366-3.83295-.98913C31.2224,132.86216,30.10961,130.63659,32.82973,130.142Z"/><path class="cls-7" d="M22.51381,167.36555c1.25135-5.27723,3.3239-10.76187,6.23367-12.2477,2.08628-1.06534,4.31293-2.38493,6.35424-3.657,2.74954-1.71338,5.14585-3.32961,6.40084-4.12693a11.50141,11.50141,0,0,0-1.6025,1.3898l4.5217,2.93915c12.88717,4.93872,20.31981-5.63449,17.83291-6.31278a3.11448,3.11448,0,0,1-.64391-.27266c4.57083,1.197,13.29445,1.99713,17.45931,2.62189,4.9457.74186,5.93488,8.40773,10.01506,13.6007,1.86593,2.37481,2.48456,4.07235,2.58943,5.36271l-35.47837,1.314-2.81685,35.96865c-.948.08015-1.90608.13505-2.87076.13505A16.16809,16.16809,0,0,1,38.268,199.01107c-1.48372-1.731-.37093-16.32086-.37093-16.32086s-10.34992-1.92608-14.76131-3.386a4.38384,4.38384,0,0,1-1.93048-.9415C20.83482,177.68367,21.266,172.62775,22.51381,167.36555Z"/><path class="cls-3" d="M61.51281,206.05869a18.83253,18.83253,0,0,0,4.822-.12362c3.7093-.37093,1.36011-1.60737,1.36011-1.60737-3.49069-2.32713-8.70226-.85672-14.31562-.38232l2.81685-35.96865,35.47837-1.314,7.016-.452,14.54243,9.85723.55157,42.27493-31.747,6.015-.20282-.06534L73.319,221.55019a.66177.66177,0,0,0-.18371-.28344c-.50962-.50962-2.27424-.726-3.58563-1.731a35.8282,35.8282,0,0,1-4.51453-4.32642.08533.08533,0,0,1,.10918-.12947c1.69324,1.12984,6.79571,4.39438,7.00181,2.84851C72.39339,216.07379,61.51281,206.05869,61.51281,206.05869Z"/><path class="cls-5" d="M37.897,182.69021s-1.11279,14.58987.37093,16.32086a16.16809,16.16809,0,0,0,12.24063,5.06936c.96468,0,1.92276-.0549,2.87076-.13505,5.61336-.4744,10.82493-1.94481,14.31562.38232,0,0,2.34919,1.23644-1.36011,1.60737a18.83253,18.83253,0,0,1-4.822.12362s10.88058,10.0151,10.63326,11.8697c-.2061,1.54587-5.30857-1.71867-7.00181-2.84851a.08533.08533,0,0,0-.10918.12947,35.8282,35.8282,0,0,0,4.51453,4.32642c1.31139,1.005,3.076,1.22136,3.58563,1.731a.66177.66177,0,0,1,.18371.28344c.32259,1.17541-6.13577.96571-9.70422-.53071-3.83291-1.60737-6.55307-7.5422-9.27319-7.78952-2.72017-.24727-9.52052.49459-14.46621-1.2364-3.17359-1.11073-6.95281-1.77108-9.8128-3.79487a9.50726,9.50726,0,0,1-3.66428-4.98378c-1.62977-4.98514-2.81291-18.21565-3.26254-23.9107C27.5471,180.76413,37.897,182.69021,37.897,182.69021Z"/><path class="cls-7" d="M30.06253,208.19869c2.86,2.02379,6.63921,2.68414,9.8128,3.79487,4.94569,1.731,11.746.98913,14.46621,1.2364,2.72012.24732,5.44028,6.18215,9.27319,7.78952,3.56845,1.49642,10.02681,1.70612,9.70422.53071l8.51574,2.74232.07916,3.03273-1.85465,1.23645c-20.84841,10.09843-45.98127-.0171-51.79511-2.63126-.80617-.3625-1.24764-.58345-1.24764-.58345Z"/><path class="cls-9" d="M28.26409,225.93043c5.81384,2.61416,30.9467,12.72969,51.79511,2.63126l1.85465-1.23645C80.0592,228.56169,88.468,282.29581,85.533,295.103c-2.49491,10.88685-12.89293,38.54277-15.9555,46.59282-.54021,1.41992-.85391,2.23448-.85391,2.23448s-6.70123-1.46719-10.64163-3.84312a10.58556,10.58556,0,0,1-1.36508-.95958s9.87219-36.02013,10.93945-42.15693S55.6496,258.01554,55.6496,258.01554s-5.3363,60.0336-4.269,68.57168c1.06726,8.53813,4.00224,15.20854,2.66813,16.5426-1.15354,1.15354-11.278,3.74021-13.99851,1.45238a1.81364,1.81364,0,0,1-.67633-1.45238c0-1.33406-9.33858-27.2152-9.60538-48.02684C29.55834,278.71392,27.36358,241.97849,28.26409,225.93043Z"/><path class="cls-1" d="M51.2619,342.2534c1.33411-1.33406-1.60087-8.00448-2.66813-16.5426s4.269-68.57168,4.269-68.57168,13.074,32.81835,12.00671,38.9551c-1.06726,6.13681-10.93945,42.15694-10.93945,42.15694a10.58543,10.58543,0,0,0,1.36507.95958l-3.70733,3.45457C51.38293,342.40427,51.2619,342.2534,51.2619,342.2534Z"/><path class="cls-1" d="M37.70673,138.53882a5.0123,5.0123,0,0,0,.868.91343c.67905,2.00159,1.32128,3.95774,1.48114,4.65046.19289.83592-.55084,1.67038-1.34015,2.35477-1.255.79732-3.65131,2.41355-6.40084,4.12692a8.52879,8.52879,0,0,0,.44611-6.97623c-1.281-3.16871-3.21724-6.37466-4.31823-9.637C31.20256,134.61269,35.21618,135.25122,37.70673,138.53882Z"/><path class="cls-6" d="M22.375,122.71255c-2.10191-2.10192-1.731-4.3275-.24727-7.04767,1.48372-2.72012,2.10192-5.5639,4.57477-7.04761s7.02213-2.83327,8.22029-3.26332c24.79714-8.90051,18.23928,8.7036,18.23928,8.7036.06825-.04262.07574.03485.03954.19846-.29646-.62461-.48846-.99976-.48846-.99976-1.93263.55881-3.13671-1.05335-4.62043-2.04248s-2.59651-.24731-4.3275,1.2364-2.47285.24727-3.58564-.12366a2.89616,2.89616,0,0,0-3.83291,2.72017c-.24731,2.84378-.86552,5.81122-2.84378,8.0368s.49455,6.18214.49455,6.18214c-2.72012.49454-1.60733,2.72012-1.11279,3.83291.49459,1.11279,3.83295.98913,3.83295.98913s.9607,2.722,1.85718,5.36459a5.0123,5.0123,0,0,1-.868-.91343c-2.49055-3.2876-6.50417-3.92613-9.26392-4.56761a12.48673,12.48673,0,0,1-1.74031-.50175,4.46592,4.46592,0,0,1-1.97826-6.55308C26.208,124.31988,24.477,124.81446,22.375,122.71255Z"/><path class="cls-10" d="M33.99744,129.26562s-2.47285-3.95661-.49455-6.18214,2.59647-5.193,2.84378-8.0368a2.89616,2.89616,0,0,1,3.83291-2.72017c1.11279.37093,1.85465,1.60738,3.58564.12366s2.84378-2.22557,4.3275-1.2364,2.6878,2.60129,4.62043,2.04248c0,0,.192.37515.48846.99976,1.14923,2.42123,2.72972,8.66763,3.355,11.88713,1.791,9.222-3.91858,10.0611-2.9391,11.53034.826,1.23908,2.94969,5.31284,5.20646,6.52751a3.11373,3.11373,0,0,0,.64392.27265c2.4869.6783-4.94575,11.25151-17.83292,6.31279l-4.5217-2.93915a11.50164,11.50164,0,0,1,1.60251-1.3898c.78931-.68439,1.533-1.51885,1.34015-2.35477-.15986-.69272-.80209-2.64887-1.48114-4.65046-.89648-2.6426-1.85718-5.36459-1.85718-5.36459s-3.33836.12366-3.83295-.98913C32.39011,131.98574,31.27732,129.76016,33.99744,129.26562Z"/><path class="cls-10" d="M19.727,166.48913c1.25134-5.27723,3.32389-10.76188,6.23367-12.2477,2.08627-1.06534,4.31293-2.38493,6.35424-3.657,2.74953-1.71337,5.14584-3.3296,6.40084-4.12692a11.50164,11.50164,0,0,0-1.60251,1.3898l4.5217,2.93915c12.88717,4.93872,20.31982-5.63449,17.83292-6.31279a3.11373,3.11373,0,0,1-.64392-.27265c4.57084,1.197,13.29445,1.99713,17.45932,2.62189,4.9457.74186,5.93487,8.40772,10.01505,13.60069,1.86594,2.37481,2.48456,4.07236,2.58944,5.36272l-35.47838,1.314L50.59255,203.069c-.948.08015-1.90608.135-2.87076.135a16.16812,16.16812,0,0,1-12.24064-5.06935c-1.48371-1.731-.37092-16.32086-.37092-16.32086s-10.34992-1.92608-14.76131-3.386a4.38375,4.38375,0,0,1-1.93048-.94149C18.048,176.80724,18.47924,171.75133,19.727,166.48913Z"/><path class="cls-8" d="M58.726,205.18226a18.832,18.832,0,0,0,4.822-.12361c3.70929-.37093,1.3601-1.60738,1.3601-1.60738-3.49069-2.32712-8.70225-.85671-14.31561-.38231l2.81684-35.96865,35.47838-1.314,7.016-.452,14.54243,9.85723.55158,42.27494-31.747,6.015-.20282-.06534-8.51574-2.74233a.6618.6618,0,0,0-.18371-.28343c-.50962-.50962-2.27425-.726-3.58564-1.731a35.82748,35.82748,0,0,1-4.51453-4.32642.08533.08533,0,0,1,.10919-.12946c1.69323,1.12983,6.7957,4.39438,7.0018,2.84851C69.60659,215.19736,58.726,205.18226,58.726,205.18226Z"/><path class="cls-8" d="M35.11023,181.81379s-1.11279,14.58987.37092,16.32086A16.16812,16.16812,0,0,0,47.72179,203.204c.96468,0,1.92275-.05489,2.87076-.135,5.61336-.4744,10.82492-1.94481,14.31561.38231,0,0,2.34919,1.23645-1.3601,1.60738a18.832,18.832,0,0,1-4.822.12361s10.88057,10.0151,10.63325,11.86971c-.2061,1.54587-5.30857-1.71868-7.0018-2.84851a.08533.08533,0,0,0-.10919.12946,35.82748,35.82748,0,0,0,4.51453,4.32642c1.31139,1.005,3.076,1.22137,3.58564,1.731a.6618.6618,0,0,1,.18371.28343c.32259,1.17542-6.13578.96571-9.70422-.5307-3.83291-1.60738-6.55308-7.5422-9.2732-7.78952s-9.52051.49459-14.46621-1.2364c-3.17358-1.11073-6.95281-1.77109-9.81279-3.79488a9.5072,9.5072,0,0,1-3.66429-4.98378c-1.62976-4.98513-2.81291-18.21564-3.26253-23.9107C24.76031,179.88771,35.11023,181.81379,35.11023,181.81379Z"/><path class="cls-8" d="M27.27574,207.32226c2.86,2.02379,6.63921,2.68415,9.81279,3.79488,4.9457,1.731,11.74605.98913,14.46621,1.2364s5.44029,6.18214,9.2732,7.78952c3.56844,1.49641,10.02681,1.70612,9.70422.5307l8.51574,2.74233.07916,3.03273-1.85465,1.23645C56.424,237.7837,31.29113,227.66817,25.4773,225.054c-.80618-.36249-1.24765-.58344-1.24765-.58344Z"/><path class="cls-8" d="M25.4773,225.054c5.81383,2.61417,30.9467,12.7297,51.79511,2.63127l1.85465-1.23645c-1.85465,1.23645,6.5541,54.97057,3.61913,67.77773-2.49492,10.88685-12.89294,38.54278-15.95551,46.59283-.54021,1.41992-.8539,2.23448-.8539,2.23448s-6.70123-1.46719-10.64164-3.84312a10.58543,10.58543,0,0,1-1.36507-.95958s9.87219-36.02013,10.93945-42.15694c1.06726-6.13675-12.00671-38.9551-12.00671-38.9551s-5.3363,60.0336-4.269,68.57168,4.00224,15.20854,2.66813,16.5426c-1.15354,1.15354-11.278,3.74021-13.99851,1.45238a1.81361,1.81361,0,0,1-.67633-1.45238c0-1.33406-9.33859-27.2152-9.60539-48.02685C26.77154,277.8375,24.57679,241.10206,25.4773,225.054Z"/><path class="cls-8" d="M48.43463,123.927c.26015.43359,3.88971,1.614,3.36941,2.56788-.94782,1.73767-3.24232,1.499-3.24232,1.499"/><path class="cls-8" d="M46.42756,130.74406s2.34137,2.16794,4.16244,1.04061"/><path class="cls-8" d="M53.75686,136.71786s-1.41857,2.6007-9.03154.94571"/><path class="cls-8" d="M110.44615,175.19149l-30.459,4.28775s-25.66835-12.31387-25.9285-12.48731"/><path class="cls-8" d="M79.0479,223.41609s.93929-43.50327.93929-43.93685"/><path class="cls-8" d="M35.11023,181.81379s.51677-6.9841-2.27989-8.76378"/><path class="cls-6" d="M70.34845,220.39033l8.69945,3.02576-.01361,1.572-8.9797-3.71017S70.96869,220.9553,70.34845,220.39033Z"/><circle class="cls-6" cx="51.88808" cy="120.66723" r="0.8788"/><circle class="cls-6" cx="42.41662" cy="123.01069" r="0.8788"/></g></svg>