<svg id="Layer_1" data-name="Layer 1" xmlns="http://www.w3.org/2000/svg" xmlns:xlink="http://www.w3.org/1999/xlink" viewBox="0 0 1140 294"><defs><style>.cls-1,.cls-4,.cls-7,.cls-8{fill:none;}.cls-2{clip-path:url(#clip-path);}.cls-3{fill:#1d5493;}.cls-4{stroke:#468fba;}.cls-4,.cls-7{stroke-miterlimit:10;}.cls-5{fill:#4890bc;}.cls-6{fill:#6ca5c8;}.cls-7,.cls-8{stroke:#1d5493;}.cls-8{stroke-linecap:round;stroke-linejoin:round;}</style><clipPath id="clip-path"><rect class="cls-1" y="0.03458" width="1140" height="293.93084"/></clipPath></defs><g class="cls-2"><rect class="cls-3" y="0.03458" width="1140" height="293.93084"/><path class="cls-4" d="M936.4752-.25023,934.40776,18.2939a2.443,2.443,0,0,0,2.15728,2.69873l49.44941,5.51306a2.443,2.443,0,0,0,2.69873-2.15735L991.45573-.25023Z"/><circle class="cls-4" cx="885.1333" cy="143.86797" r="43.97198"/><rect class="cls-4" x="395.57593" y="268.81543" width="34.60656" height="34.60656" rx="1.54728" transform="translate(-89.40558 292.68727) rotate(-35.47058)"/><circle class="cls-4" cx="245.72462" cy="161.42141" r="43.97198"/><path class="cls-4" d="M698.59473,294.56557h53.18292a30.25616,30.25616,0,1,0-53.18292,0Z"/><circle class="cls-4" cx="1087.93192" cy="147.38466" r="30.25412"/><path class="cls-4" d="M403.7149-.25023H360.14563a30.25027,30.25027,0,1,0,43.56927,0Z"/><rect class="cls-4" x="97.71353" y="242.40419" width="34.60656" height="34.60656" rx="1.54728" transform="translate(-129.35874 114.94068) rotate(-35.47058)"/><path class="cls-4" d="M999.26971,294.56557h71.756l1.03216-1.03217a2.443,2.443,0,0,0,0-3.455l-35.18268-35.18267a2.44312,2.44312,0,0,0-3.455,0l-35.18268,35.18267a2.443,2.443,0,0,0,0,3.455Z"/><rect class="cls-4" x="214.08595" y="34.0533" width="37.93064" height="37.93064" rx="1.6959" transform="translate(122.29795 -158.77744) rotate(49.57731)"/><path class="cls-4" d="M522.45685-.73644l14.824,17.40412a1.69591,1.69591,0,0,0,2.39069.1914L560.32959-.73644Z"/><path class="cls-4" d="M581.04154,292.49784h28.00134l27.20941-22.51654a1.03632,1.03632,0,0,0-.29962-1.76977l-61.30395-22.78815a1.03638,1.03638,0,0,0-1.38288,1.14441Z"/><path class="cls-4" d="M62.52234-.25023,118.74164,23.508a1.03629,1.03629,0,0,0,1.43176-1.08252L117.3526-.25023Z"/><path class="cls-4" d="M795.85809-.25023,789.89392,4.259a1.03633,1.03633,0,0,0,.22162,1.78125l60.24371,25.459a1.03633,1.03633,0,0,0,1.43183-1.08252L847.9762-.25023Z"/><polygon class="cls-5" points="1104.11 29.851 1096.517 26.515 1070.155 86.527 1070.978 86.888 1084.565 92.856 1085.342 93.198 1111.704 33.187 1104.11 29.851"/><polygon class="cls-3" points="1070.175 88.717 1070.861 89.019 1070.892 88.95 1083.105 94.315 1083.074 94.384 1083.761 94.685 1084.565 92.856 1070.978 86.888 1070.175 88.717"/><path class="cls-6" d="M1069.25522,92.675a1.35709,1.35709,0,0,0,.69665,1.78807l9.72966,4.274a1.35673,1.35673,0,0,0,1.78668-.69721l1.60612-3.65625-12.213-5.36491Z"/><rect class="cls-7" x="1076.94537" y="84.99712" width="0.07515" height="13.33939" transform="translate(559.90993 1040.84043) rotate(-66.28514)"/><path class="cls-5" d="M1111.35079,16.59708l1.02433-2.33185a1.19859,1.19859,0,0,0-.61407-1.58062l-.344-.15111a1.19991,1.19991,0,0,0-1.58084.61644l-1.02433,2.33185,1.34954.59283Z"/><path class="cls-6" d="M1112.40391,17.05969l-1.05312-.46261-1.18936-.52246-1.34954-.59283-.89171-.39171c-3.16542,7.206-11.40327,11.42527-11.40327,11.42527l7.59295,3.33542,7.59421,3.336S1109.23849,24.26565,1112.40391,17.05969Z"/><polygon class="cls-7" points="1105.936 30.449 1098.343 27.114 1071.981 87.125 1072.804 87.487 1086.39 93.455 1087.168 93.797 1113.53 33.785 1105.936 30.449"/><polygon class="cls-7" points="1072 89.316 1072.687 89.617 1072.717 89.549 1084.93 94.914 1084.9 94.982 1085.587 95.284 1086.39 93.455 1072.804 87.487 1072 89.316"/><path class="cls-7" d="M1071.081,93.27367a1.3571,1.3571,0,0,0,.69665,1.78807l9.72966,4.274a1.35673,1.35673,0,0,0,1.78668-.6972l1.60612-3.65626-12.213-5.3649Z"/><rect class="cls-7" x="1078.77118" y="85.59577" width="0.07515" height="13.33939" transform="translate(560.45333 1042.86995) rotate(-66.28514)"/><path class="cls-7" d="M1113.1766,17.19572l1.02433-2.33185a1.19858,1.19858,0,0,0-.61407-1.58061l-.344-.15111a1.19989,1.19989,0,0,0-1.58083.61644l-1.02434,2.33185,1.34955.59282Z"/><path class="cls-7" d="M1114.22972,17.65834l-1.05312-.46262-1.18935-.52246-1.34955-.59282-.89171-.39171c-3.16542,7.206-11.40327,11.42527-11.40327,11.42527l7.59295,3.33542,7.59421,3.336S1111.0643,24.8643,1114.22972,17.65834Z"/><path class="cls-3" d="M150.79615,234.32307l-.27019,1.80914c-.04778.32.07318.603.26961.63234l.11188.01671c.19643.02933.39486-.206.44265-.526l.27018-1.80914-.412-.06153Z"/><path class="cls-6" d="M150.44967,234.27133l.34648.05174.41209.06155.412.06153.34654.05176a18.8564,18.8564,0,0,1,2.44-6.50917l-4.38884-.65545A18.85779,18.85779,0,0,1,150.44967,234.27133Z"/><path class="cls-3" d="M170.5847,120.80813a1.49591,1.49591,0,0,1,.17792.04168l.41983-2.81109c.07936-.53142-.0707-.99321-.33269-1.03233l-4.13263-.61719c-.26335-.03933-.53905.35887-.61842.89028l-.41982,2.8111a1.49777,1.49777,0,0,1,.18238.01212Z"/><path class="cls-5" d="M159.25227,166.569l5.196-34.79219c.14936-1.00011.77112-1.7357,1.38648-1.6438s.99365.97684.84429,1.97695l-5.19605,34.7922,4.54477.67874,6.356-42.55889c.30352-2.03235-.41676-3.83887-1.62116-4.17217a1.49591,1.49591,0,0,0-.17792-.04168l-4.72343-.70543a1.49777,1.49777,0,0,0-.18238-.01212c-1.25038-.03336-2.46584,1.4841-2.76936,3.51647l-6.356,42.55888Z"/><polygon class="cls-5" points="149.222 224.979 149.997 225.094 155.081 225.853 155.854 225.969 164.193 170.135 157.561 169.144 149.222 224.979"/><path class="cls-6" d="M157.56079,169.14432l6.63217.99048,1.42172.21233.41313-2.76626-4.54477-.67874-.0271.18146c-.14935,1-.76992,1.7373-1.38527,1.6454s-.99485-.97852-.8455-1.97855l.0271-.18147-2.69871-.403-.41312,2.76627Z"/><path class="cls-3" d="M160.07067,168.729c.61535.0919,1.23592-.64536,1.38527-1.6454l.0271-.18146,5.19605-34.7922c.14936-1.00011-.22894-1.885-.84429-1.97695s-1.23712.64369-1.38648,1.6438l-5.196,34.79219-.0271.18147C159.07582,167.75047,159.45531,168.63709,160.07067,168.729Z"/><polygon class="cls-6" points="149.798 226.427 152.34 226.806 154.882 227.186 155.081 225.853 149.997 225.094 149.798 226.427"/><path class="cls-3" d="M149.78888,226.48843l-.11843.793.3475.05187,4.38885.65547.34738.05189.11842-.79277.03927-.05753-.03-.00447-2.5418-.37962-2.54192-.37961-.03-.00448Z"/><path class="cls-8" d="M151.30059,234.074l-.27018,1.80913c-.04778.32.07318.603.26961.63234l.11188.01671c.19643.02934.39486-.206.44264-.526l.27019-1.80913-.412-.06154Z"/><path class="cls-8" d="M150.95411,234.02224l.34648.05175.4121.06154.412.06154.34653.05175a18.85652,18.85652,0,0,1,2.44-6.50916l-4.38885-.65546A18.85735,18.85735,0,0,1,150.95411,234.02224Z"/><path class="cls-8" d="M171.08915,120.559a1.49833,1.49833,0,0,1,.17792.04168l.41982-2.81109c.07937-.53142-.07069-.9932-.33268-1.03233l-4.13263-.61719c-.26335-.03933-.53906.35887-.61842.89029l-.41982,2.81109a1.49993,1.49993,0,0,1,.18238.01213Z"/><path class="cls-8" d="M159.75672,166.31989l5.196-34.7922c.14936-1.00011.77113-1.73569,1.38648-1.64379s.99365.97684.84429,1.97695l-5.196,34.79219,4.54477.67874,6.356-42.55889c.30352-2.03234-.41675-3.83887-1.62115-4.17217a1.49833,1.49833,0,0,0-.17792-.04168l-4.72343-.70542a1.49993,1.49993,0,0,0-.18238-.01213c-1.25039-.03336-2.46584,1.4841-2.76937,3.51647l-6.356,42.55889Z"/><polygon class="cls-8" points="149.727 224.729 150.502 224.845 155.585 225.604 156.359 225.72 164.697 169.886 158.065 168.895 149.727 224.729"/><path class="cls-8" d="M158.06524,168.89524l6.63217.99048,1.42172.21233.41313-2.76627-4.54477-.67874-.0271.18147c-.14935,1-.76992,1.7373-1.38527,1.6454s-.99486-.97852-.84551-1.97856l.02711-.18146-2.69871-.403-.41313,2.76626Z"/><path class="cls-8" d="M160.57512,168.47991c.61535.0919,1.23592-.64537,1.38527-1.6454l.0271-.18147,5.196-34.79219c.14936-1.00011-.22893-1.88505-.84429-1.97695s-1.23712.64368-1.38648,1.64379l-5.196,34.7922-.02711.18146C159.58026,167.50139,159.95976,168.388,160.57512,168.47991Z"/><polygon class="cls-8" points="150.303 226.178 152.844 226.557 155.386 226.937 155.585 225.604 150.502 224.845 150.303 226.178"/><path class="cls-8" d="M150.29332,226.23934l-.11842.793.3475.05188,4.38884.65546.34738.05189.11843-.79276.03927-.05753-.03-.00447-2.54181-.37963-2.54192-.3796-.03-.00448Z"/><path class="cls-5" d="M970.77413,43.61932H1058.925a8.00682,8.00682,0,0,1,8.00682,8.00682V86.99359a8.0068,8.0068,0,0,1-8.0068,8.0068H970.77416a8.0068,8.0068,0,0,1-8.0068-8.0068V51.6261A8.00678,8.00678,0,0,1,970.77413,43.61932Z" transform="translate(534.8636 966.15822) rotate(-65.75166)"/><path class="cls-6" d="M972.84109,112.39821l35.55153,16.01356a8.71324,8.71324,0,0,0,11.52294-4.366l38.98423-86.54852a8.71321,8.71321,0,0,0-4.366-11.52293L1018.98225,9.96072a8.71324,8.71324,0,0,0-11.52294,4.366l-38.98423,86.54852A8.71321,8.71321,0,0,0,972.84109,112.39821Zm-.679-13.57605,36.20287-80.37363a8.00683,8.00683,0,0,1,10.58874-4.01209l32.24714,14.52515a8.00684,8.00684,0,0,1,4.012,10.58874L1019.01,119.924a8.00678,8.00678,0,0,1-10.58874,4.01205l-32.24713-14.52515A8.00677,8.00677,0,0,1,972.162,98.82216Z"/><path class="cls-7" d="M969.612,43.49569h88.15084a8.00682,8.00682,0,0,1,8.00682,8.00682V86.87a8.0068,8.0068,0,0,1-8.0068,8.0068H969.612a8.0068,8.0068,0,0,1-8.0068-8.0068V51.50248a8.00678,8.00678,0,0,1,8.00678-8.00678Z" transform="translate(534.29148 965.02576) rotate(-65.75166)"/><path class="cls-7" d="M972.24583,113.405l35.55154,16.01355a8.71323,8.71323,0,0,0,11.52293-4.366L1058.30453,38.504a8.7132,8.7132,0,0,0-4.366-11.52293L1018.387,10.96754a8.71323,8.71323,0,0,0-11.52294,4.366L967.87983,101.8821A8.71322,8.71322,0,0,0,972.24583,113.405Z"/><rect class="cls-7" x="1032.09881" y="25.53183" width="10.3986" height="2.3108" rx="1.1554" transform="translate(1987.30018 444.05475) rotate(-157.75628)"/><circle class="cls-7" cx="1029.49107" cy="23.68569" r="1.35071"/><path class="cls-7" d="M1005.58827,65.94066c9.476,4.41572,19.57061,8.08445,28.75,12.97428"/><path class="cls-7" d="M994.38483,60.88478l9.32973,4.21031"/><path class="cls-7" d="M996.0755,88.21523c9.28833,4.3825,18.6471,7.99942,27.6687,12.48632"/><path class="cls-7" d="M983.7908,82.67139l8.72883,3.93914"/><path class="cls-7" d="M1007.92815,102.41992l12.28471,5.54383"/><path class="cls-7" d="M980.25945,89.93359c8.07628,2.9442,15.1757,7.14153,23.13762,10.44154"/><path class="cls-7" d="M996.11733,105.94576l19.1315,8.63366,1.43268.64654"/><path class="cls-7" d="M976.7281,97.1958l15.20031,6.85959"/><circle class="cls-5" cx="1022.44995" cy="48.87046" r="16.86896"/><circle class="cls-7" cx="1022.09722" cy="50.15654" r="16.86896"/><path class="cls-6" d="M1013.85529,58.244a2.6201,2.6201,0,0,1-1.03585-1.718l-1.76762-11.69868a2.621,2.621,0,1,1,5.18322-.78316l1.32271,8.75572,15.1881-4.31666a2.6208,2.6208,0,1,1,1.43262,5.042l-18.05128,5.1305a2.62205,2.62205,0,0,1-2.13492-.31715C1013.94535,58.30839,1013.89961,58.27668,1013.85529,58.244Z"/><path class="cls-7" d="M1014.06176,57.32147a2.62009,2.62009,0,0,1-1.03586-1.718l-1.76762-11.69867a2.621,2.621,0,0,1,5.18323-.78317l1.32271,8.75572,15.1881-4.31666a2.6208,2.6208,0,1,1,1.43262,5.042l-18.05129,5.1305a2.622,2.622,0,0,1-2.13491-.31714C1014.15181,57.38586,1014.10607,57.35416,1014.06176,57.32147Z"/><rect class="cls-6" x="997.82081" y="155.49577" width="96.33823" height="127.16646" rx="9.96284" transform="translate(1025.57467 1287.57034) rotate(-100.73481)"/><rect class="cls-7" x="998.54779" y="152.93185" width="96.33823" height="127.16646" rx="9.96284" transform="translate(1028.95612 1285.24311) rotate(-100.73481)"/><rect class="cls-5" x="1006.58462" y="164.18726" width="81.42618" height="107.48255" transform="translate(1028.25638 1287.49049) rotate(-100.73481)"/><rect class="cls-7" x="1004.96967" y="162.06732" width="81.42618" height="107.48255" transform="translate(1028.42346 1283.38899) rotate(-100.73481)"/><path class="cls-3" d="M1083.01651,174.03123,996.92116,190.3533a2.11948,2.11948,0,0,0-1.6876,2.47717l9.55939,50.42367a2.11952,2.11952,0,0,0,2.47722,1.68764l86.0953-16.32206a2.11948,2.11948,0,0,0,1.6876-2.47717l-9.55939-50.42371A2.11948,2.11948,0,0,0,1083.01651,174.03123Zm-25.49394,35.05256L1047.78,217.474l-9.74252,8.3902a2.20565,2.20565,0,0,1-3.60636-1.26047l-2.39486-12.63239-2.39486-12.63236a2.20563,2.20563,0,0,1,2.89476-2.49295l12.1374,4.24218,12.1374,4.24218A2.20563,2.20563,0,0,1,1057.52257,209.08379Z"/><line class="cls-7" x1="1008.14852" y1="253.67334" x2="1094.91159" y2="237.22468"/><circle class="cls-5" cx="1035.46851" cy="248.3135" r="2.65989"/><circle class="cls-5" cx="1037.0619" cy="248.01142" r="2.65989"/><circle class="cls-7" cx="1036.23735" cy="248.16774" r="2.65989"/><path class="cls-7" d="M132.46445,101.16838q.27487-.13651.55041-.27609l.00187-.0027-.55369.27513Z"/><path class="cls-7" d="M131.76918,101.5095q.26749-.12973.53883-.26343c.05208-.0257.10423-.05177.15644-.07769l-.00141-.00366Z"/><path class="cls-5" d="M125.39889,102.57657C110.566,106.63407,87.973,120.82139,87.973,120.82139l-.53981-1.76838L71.91143,68.20336c.65666-.77391,1.32289-1.51027,1.99534-2.21859l-4.37983,1.69746,15.08718,57.24542,47.15506-23.41815A26.80066,26.80066,0,0,0,125.39889,102.57657Z"/><path class="cls-5" d="M171.53457,80.03738s-27.75,4.65256-38.51784,20.85221l42.21569-20.9769-23.73525-53.52-2.57445,1.63741L170.292,77.1794Z"/><path class="cls-6" d="M170.292,77.1794,148.92272,28.03005l-.20775-.47779c-13.0173,2.21035-34.874,22.119-35.53743,23.21261l19.2855,50.39985.55369-.27513c10.76783-16.19965,38.51784-20.85221,38.51784-20.85221Z"/><path class="cls-6" d="M113.17754,50.76487a48.8579,48.8579,0,0,0-39.27077,15.2199c-.67245.70832-1.33868,1.44468-1.99534,2.21859L87.43317,119.053l.53981,1.76838s22.59306-14.18732,37.42591-18.24482a26.80066,26.80066,0,0,1,6.37029-1.06707l.69386-.34478Z"/><path class="cls-7" d="M131.88382,100.37045q.27489-.13652.55041-.27609l.00187-.0027-.55368.27513Z"/><path class="cls-7" d="M131.18855,100.71157q.2675-.12973.53883-.26343c.05208-.0257.10423-.05177.15644-.07769l-.0014-.00366Z"/><path class="cls-7" d="M124.81826,101.77864c-14.83284,4.05751-37.42591,18.24482-37.42591,18.24482l-.53981-1.76838L71.3308,67.40543c.65666-.77391,1.32289-1.51027,1.99534-2.21859L68.94631,66.8843l15.08718,57.24542,47.15506-23.41815A26.80066,26.80066,0,0,0,124.81826,101.77864Z"/><path class="cls-7" d="M170.954,79.23946s-27.75,4.65255-38.51785,20.8522l42.21569-20.9769-23.73524-53.52-2.57446,1.6374,21.36926,49.14935Z"/><path class="cls-7" d="M169.71135,76.38147,148.34209,27.23212l-.20775-.47779c-13.0173,2.21035-34.874,22.119-35.53743,23.21261l19.28551,50.39985.55368-.27513C143.20393,83.892,170.954,79.23946,170.954,79.23946Z"/><path class="cls-7" d="M112.59691,49.96694a48.8579,48.8579,0,0,0-39.27077,15.2199c-.67245.70832-1.33868,1.44468-1.99534,2.21859l15.52174,50.84965.53981,1.76838s22.59307-14.18731,37.42591-18.24482a26.80066,26.80066,0,0,1,6.37029-1.06707l.69387-.34478Z"/><path class="cls-5" d="M165.42421,87.90745l4.42341-5.18545a.74911.74911,0,0,0,.10494-.809.79074.79074,0,0,0-.73531-.4472l-24.72171.72328a.751.751,0,0,0-.57843,1.2151l14.927,19.28859a.79147.79147,0,0,0,.80454.28582.75006.75006,0,0,0,.56773-.57927l1.37877-6.73647,9.68755,4.5361a.78472.78472,0,0,0,.6052.02713.74679.74679,0,0,0,.41746-.37318l3.13579-6.40729a.743.743,0,0,0,.03223-.577.78882.78882,0,0,0-.40744-.44686Z"/><path class="cls-7" d="M165.46782,86.92439l4.30039-5.28791a.74911.74911,0,0,0,.08592-.81126.79075.79075,0,0,0-.74562-.42981l-24.69789,1.3037a.751.751,0,0,0-.54974,1.22835l15.3759,18.93269a.7915.7915,0,0,0,.811.26685.75005.75005,0,0,0,.554-.59244l1.22017-6.767,9.79142,4.30733a.78472.78472,0,0,0,.60567.01291.74684.74684,0,0,0,.40858-.38288l2.98444-6.47918a.743.743,0,0,0,.01867-.57759.78879.78879,0,0,0-.41783-.43716Z"/><path class="cls-5" d="M131.307,160.55992c-.45442-1.06026-12.31723.31991-12.31723.31991l-5.279.79983.10389,5.30906,2.48318,101.41791,4.13143,2.8494c7.99832,1.91956,12.6373-.47991,12.6373-.47991S131.78694,161.67966,131.307,160.55992Z"/><path class="cls-5" d="M116.29786,268.40663l-2.48318-101.41791-.4238-17.30646c.15988-.95982-19.67571.47988-20.95553.47988-1.27965,0-11.03757,5.5988-11.03757,5.5988l.16,9.278.02411.49763c2.02947-.0565,3.975-.01776,3.975-.01776l.41485,90.30162.38494,7.91719s7.83836,9.59792,8.47826,10.55774c.63983.95978,12.95721.15995,16.63646.47987,3.67908.32,4.95874-.95978,4.95874-.95978Z"/><path class="cls-6" d="M85.97174,255.82044l-.41485-90.30162s-1.94549-.03874-3.975.01776c-2.08563.05805-4.26.21674-4.50322.6221-.47987.79983,1.11978,103.81762,1.11978,103.81762s.08771.00848.2387.02212c1.18259.10667,6.46481.5453,7.59957-.02212Z"/><path class="cls-6" d="M54.03055,149.45273l.37085-5.27552s-13.23087-3.67565-17.35-1.79709l-3.90182,5.134-16.257,116.28771s.27614,6.49,2.61347,7.12c2.33726.63,15.32174,2.49842,16.28151,1.33386C36.17744,271.78268,53.29184,150.16232,54.03055,149.45273Z"/><path class="cls-5" d="M78.19849,269.9763s-1.59965-103.01779-1.11978-103.81762l-.16-14.39686a4.37116,4.37116,0,0,0-1.91956-.79986c-1.11977-.16-20.47557-.31991-21.1154.47991-.63991.79982-1.75968,115.975-1.75968,115.975s.16249.17621.42792.4491c.996,1.02406,3.52888,3.49109,5.17088,3.87,2.07952.47991,19.03589,1.11978,19.67571.47991a8.88111,8.88111,0,0,0,1.03857-2.21739C78.2862,269.98478,78.19849,269.9763,78.19849,269.9763Z"/><path class="cls-7" d="M130.40527,160.50824c-.45441-1.06026-12.31722.31992-12.31722.31992l-5.279.79982.10388,5.30907,2.48318,101.4179,4.13144,2.8494c7.99831,1.91956,12.6373-.47991,12.6373-.47991S130.88522,161.628,130.40527,160.50824Z"/><path class="cls-7" d="M115.39614,268.35495,112.913,166.93705l-.4238-17.30646c.15988-.95982-19.67571.47987-20.95552.47987-1.27966,0-11.03758,5.5988-11.03758,5.5988l.16,9.278.02411.49763c2.02947-.0565,3.975-.01776,3.975-.01776L85.07,255.76876,85.455,263.686s7.83836,9.59792,8.47827,10.55774c.63982.95978,12.95721.16,16.63645.47987,3.67909.32,4.95874-.95978,4.95874-.95978Z"/><path class="cls-7" d="M85.07,255.76876l-.41484-90.30162s-1.9455-.03874-3.975.01776c-2.08562.05806-4.26.21674-4.50322.62211-.47987.79982,1.11978,103.81761,1.11978,103.81761s.08771.00849.23871.02213c1.18258.10666,6.4648.54529,7.59957-.02213Z"/><path class="cls-7" d="M53.14326,149.284l.37086-5.27552s-13.23088-3.67565-17.35-1.79709l-3.90182,5.134L16.00528,263.633s.27614,6.49,2.61347,7.12c2.33725.63,15.32173,2.49842,16.28151,1.33386C35.29015,271.6139,52.40456,149.99354,53.14326,149.284Z"/><path class="cls-7" d="M77.29677,269.92462S75.69712,166.90683,76.177,166.107l-.16-14.39686a4.37118,4.37118,0,0,0-1.91956-.79987c-1.11978-.16-20.47558-.31991-21.11541.47991-.6399.79983-1.75968,115.975-1.75968,115.975s.16249.17622.42793.4491c.996,1.02406,3.52888,3.4911,5.17087,3.87,2.07952.47991,19.03589,1.11978,19.67572.47991a8.88172,8.88172,0,0,0,1.03857-2.21738C77.38448,269.93311,77.29677,269.92462,77.29677,269.92462Z"/><line class="cls-7" x1="36.1641" y1="142.21134" x2="18.61875" y2="270.75305"/><line class="cls-7" x1="56.2591" y1="151.06021" x2="56.82119" y2="271.68422"/><line class="cls-7" x1="91.53364" y1="150.11046" x2="93.93323" y2="274.24369"/><line class="cls-7" x1="118.08805" y1="160.82816" x2="119.52758" y2="271.20435"/><line class="cls-7" x1="107.28204" y1="268.19398" x2="99.84666" y2="268.19398"/><path class="cls-7" d="M129.423,243.90506s-7.10492.49569-7.93108-.16523"/><line class="cls-7" x1="129.91865" y1="238.45244" x2="120.66573" y2="238.28721"/><line class="cls-7" x1="127.93588" y1="183.26538" x2="121.65711" y2="183.43061"/><line class="cls-7" x1="128.10111" y1="189.37892" x2="120.83096" y2="189.54415"/><line class="cls-7" x1="125.95311" y1="194.50107" x2="123.97034" y2="194.50107"/><line class="cls-7" x1="127.93588" y1="200.44937" x2="121.82234" y2="200.61461"/><line class="cls-7" x1="128.26634" y1="206.56291" x2="121.16142" y2="207.0586"/><line class="cls-7" x1="35.80823" y1="164.06123" x2="47.89594" y2="165.65047"/><line class="cls-7" x1="36.22755" y1="167.71539" x2="45.36704" y2="168.917"/><path class="cls-6" d="M85.44543,285.27585c-1.0908-3.11656-1.55828-2.64908-4.9865-8.25888S72.5117,260.4992,72.5117,260.4992l-5.238-13.82248a3.53455,3.53455,0,0,1-.148-2.00631l.857-3.92607a4.06492,4.06492,0,0,0-.20061-2.385l-1.183-2.93851a1.71348,1.71348,0,0,1,1.87287-2.33657,3.35564,3.35564,0,0,1,.60366.17414,12.69852,12.69852,0,0,1,6.7443,10.25409l3.71625,5.98728s2.95923-11.21756,2.82159-20.78345.06882-16.24138.61938-19.40707,1.02128-5.76351,4.47326-5.91846c3.79231-.17024,3.09687,8.94652,3.09687,8.94652s.27528,8.80888.757,11.83693.13764,12.45631.13764,12.45631l1.58285.96347.13764-2.89041s-.20646-.27528-.13764-2.20222.20646-7.15722,2.68395-8.87771,3.50979-1.4452,3.50979-1.4452,3.92271.27528,4.26681,3.02805a40.01872,40.01872,0,0,1-.27528,7.57013s1.72728-3.92575,3.45573-3.92575,4.70854-.2384,5.18535,2.92049-.77482,8.523-.77482,8.523,3.99331-2.50327,5.60256,1.13244c0,0,.95363.47681.95363,5.841s.1788,9.23827-1.96686,13.47c-2.01156,3.96724-.56575,7.5154-3.22556,13.542a6.0382,6.0382,0,0,0-.48864,2.821l.67451,10.63661s.35761,7.39062,2.08606,11.80114,5.90137,22.79944,5.90137,22.79944l-26.62781,6.77173S89.1296,295.80206,85.44543,285.27585Z"/><path class="cls-7" d="M84.86049,285.12961c-1.09079-3.11656-1.55828-2.64907-4.98649-8.25888S71.92677,260.353,71.92677,260.353l-5.238-13.82248a3.53446,3.53446,0,0,1-.148-2.00631l.857-3.92606a4.06491,4.06491,0,0,0-.2006-2.385l-1.183-2.93851A1.71349,1.71349,0,0,1,67.887,232.938a3.3561,3.3561,0,0,1,.60366.17414,12.69856,12.69856,0,0,1,6.7443,10.25409l3.71624,5.98729s2.95924-11.21756,2.8216-20.78346.06882-16.24137.61937-19.40706,1.02128-5.76351,4.47326-5.91847c3.79231-.17023,3.09687,8.94652,3.09687,8.94652s.27528,8.80888.757,11.83694.13764,12.4563.13764,12.4563l1.58284.96348.13764-2.89042s-.20646-.27528-.13764-2.20222.20646-7.15721,2.684-8.8777,3.50979-1.44521,3.50979-1.44521,3.9227.27528,4.2668,3.02806a40.01878,40.01878,0,0,1-.27528,7.57013s1.72729-3.92575,3.45574-3.92575,4.70853-.23841,5.18534,2.92048-.77482,8.523-.77482,8.523,3.99332-2.50327,5.60256,1.13243c0,0,.95363.47682.95363,5.841s.17881,9.23826-1.96686,13.47c-2.01155,3.96723-.56575,7.5154-3.22556,13.542a6.03817,6.03817,0,0,0-.48864,2.821l.67452,10.63661s.35761,7.39061,2.08606,11.80114,5.90137,22.79943,5.90137,22.79943l-26.62781,6.77173S88.54467,295.65583,84.86049,285.12961Z"/><path class="cls-7" d="M78.95122,249.3535a12.5195,12.5195,0,0,0-1.33667,5.1286c-.33581,3.55-.43175,5.13309-.43175,5.13309"/><path class="cls-7" d="M92.43982,237.44775s.19022,2.16278-1.249,1.779l-.33388-2.74247"/><line class="cls-7" x1="92.57746" y1="234.55733" x2="93.49355" y2="227.95313"/><path class="cls-7" d="M102.7523,232.4146l-.61685,6.47694a4.50411,4.50411,0,0,0,.61685,1.34263"/><path class="cls-7" d="M110.49135,240.14817s-1.16677,6.80219.03255,7.09"/><path class="cls-7" d="M67.375,238.75678s1.448-.93085.37924-4.55082c0,0-1.51694-.44818-1.79275.51714"/><path class="cls-7" d="M88.938,204.50741s-2.7946-1.8989-4.26355.78822c0,0-.60908,4.08442.8957,4.4427a6.14491,6.14491,0,0,0,2.90209-.07166A9.933,9.933,0,0,0,88.938,204.50741Z"/><path class="cls-6" d="M70.69711,25.82768,79.16082,20.351,76.026,29.93228,18.88566,104.11582a3.36321,3.36321,0,0,1-4.71673.61214l0,0a3.3632,3.3632,0,0,1-.61214-4.71673Z"/><path class="cls-7" d="M71.18594,26.30565l8.4637-5.47671-3.13483,9.58131L19.37448,104.59379a3.3632,3.3632,0,0,1-4.71673.61213h0a3.36321,3.36321,0,0,1-.61213-4.71673Z"/><line class="cls-7" x1="76.51481" y1="30.41025" x2="71.18594" y2="26.30565"/><line class="cls-7" x1="72.85684" y1="27.51854" x2="14.16892" y2="104.72795"/><line class="cls-7" x1="74.75477" y1="28.73075" x2="16.0217" y2="105.84509"/><path class="cls-5" d="M1101.38457,106.01208l12.72407-1.40581-9.00747,9.09637L998.04046,165.44175a4.27077,4.27077,0,0,1-5.70358-1.987v0a4.27076,4.27076,0,0,1,1.987-5.70358Z"/><path class="cls-7" d="M1101.66781,106.83274l12.72407-1.40581-9.00746,9.09637L998.3237,166.2624a4.27076,4.27076,0,0,1-5.70358-1.987v0a4.27077,4.27077,0,0,1,1.987-5.70358Z"/><path class="cls-7" d="M1101.49819,106.63083s-2.56674,4.4252,3.71661,7.69056"/></g></svg>