<svg id="Layer_1" data-name="Layer 1" xmlns="http://www.w3.org/2000/svg" xmlns:xlink="http://www.w3.org/1999/xlink" viewBox="0 0 1300 294"><defs><style>.cls-1,.cls-4{fill:none;}.cls-2{clip-path:url(#clip-path);}.cls-3{fill:#ba3932;}.cls-4{stroke:#e0635c;stroke-miterlimit:10;}</style><clipPath id="clip-path"><rect class="cls-1" y="0.03458" width="1300" height="293.93084"/></clipPath></defs><g class="cls-2"><rect class="cls-3" y="0.03458" width="1300" height="293.93084"/><circle class="cls-4" cx="857.69123" cy="299.96283" r="32.64"/><rect class="cls-4" x="939.56452" y="77.31718" width="34.60656" height="34.60656" rx="1.54728" transform="translate(122.67482 572.81612) rotate(-35.47058)"/><rect class="cls-4" x="65.1823" y="122.69235" width="34.60656" height="34.60656" rx="1.54728" transform="translate(-65.92914 73.84641) rotate(-35.47058)"/><circle class="cls-4" cx="396.29834" cy="264.35667" r="15.95409"/><rect class="cls-4" x="151.53222" y="225.36595" width="34.60656" height="34.60656" rx="1.54728" transform="translate(-109.4837 143.00878) rotate(-35.47058)"/><rect class="cls-4" x="917.79022" y="241.12829" width="54.64196" height="54.64196" rx="2.44307" transform="translate(1590.82742 -472.05782) rotate(115.2315)"/><rect class="cls-4" x="367.42604" y="-17.5436" width="37.93064" height="37.93064" rx="1.6959" transform="translate(136.92927 -293.6528) rotate(49.57731)"/><rect class="cls-4" x="608.45841" y="-42.43864" width="75.31423" height="73.33001" rx="3.32326" transform="translate(499.53028 -635.06797) rotate(77.39955)"/><path class="cls-4" d="M426.58092,266.84291l10.9169,64.48482a1.03632,1.03632,0,0,0,1.68248.62542l50.387-41.69673a1.03632,1.03632,0,0,0-.29962-1.76978l-61.30394-22.78809A1.03632,1.03632,0,0,0,426.58092,266.84291Z"/><path class="cls-4" d="M1250.56277,90.76841,1214.542,104.31985a.60981.60981,0,0,0-.1722,1.0421l29.74626,24.41914a.60982.60982,0,0,0,.98859-.37191l6.27447-37.97059A.60981.60981,0,0,0,1250.56277,90.76841Z"/><path class="cls-4" d="M1006.86562,148.76963l8.17911,37.60634a.60982.60982,0,0,0,1.00607.32165l28.47849-25.88648a.60982.60982,0,0,0-.22448-1.03211l-36.6576-11.71985A.60982.60982,0,0,0,1006.86562,148.76963Z"/></g></svg>