<svg width="1440" height="294" viewBox="0 0 1440 294" fill="none" xmlns="http://www.w3.org/2000/svg">
<g clip-path="url(#clip0_694_9169)">
<rect width="1440" height="294" fill="#5C6BC4"/>
<path d="M386 61C365.013 61 348 78.0132 348 99C348 119.987 365.013 137 386 137C406.987 137 424 119.987 424 99C424 78.0132 406.987 61 386 61Z" stroke="#6777D2" stroke-width="1.5" stroke-miterlimit="10"/>
<path d="M599 -23C583.536 -23 571 -10.464 571 5C571 20.464 583.536 33 599 33C614.464 33 627 20.464 627 5C627 -10.464 614.464 -23 599 -23Z" stroke="#6777D2" stroke-width="1.5" stroke-miterlimit="10"/>
<g clip-path="url(#clip1_694_9169)">
<path d="M912.889 24.6555L930.688 60.0638C931.171 61.026 932.353 61.4275 933.355 60.9646L969.757 43.8482C970.746 43.3843 971.155 42.2387 970.673 41.264L952.874 5.85567C952.391 4.89352 951.209 4.49204 950.207 4.95497L913.805 22.0714C912.816 22.5353 912.394 23.6924 912.889 24.6555Z" stroke="#6777D2" stroke-width="1.5" stroke-miterlimit="10"/>
<path d="M791.74 230.591L792.492 317.261C792.496 318.323 793.655 318.965 794.558 318.439L869.253 274.45C870.158 273.91 870.154 272.594 869.231 272.07L793.8 229.378C792.862 228.866 791.722 229.528 791.74 230.591Z" stroke="#6777D2" stroke-width="1.5" stroke-miterlimit="10"/>
<path d="M1196.5 12.8026L1190.68 80.494C1190.52 82.3323 1191.88 83.9805 1193.76 84.2048L1262.29 91.9155C1264.15 92.1268 1265.78 90.8209 1265.95 88.9653L1271.77 21.2738C1271.93 19.4355 1270.57 17.7872 1268.69 17.563L1200.16 9.85235C1198.3 9.64105 1196.64 10.9514 1196.5 12.8026Z" stroke="#6777D2" stroke-width="1.5" stroke-miterlimit="10"/>
<path d="M566.77 280.43L569.974 243.167C570.062 242.155 569.31 241.248 568.276 241.124L530.552 236.88C529.527 236.763 528.633 237.482 528.538 238.504L525.334 275.767C525.246 276.779 525.997 277.686 527.032 277.809L564.755 282.054C565.78 282.17 566.691 281.449 566.77 280.43Z" stroke="#6777D2" stroke-width="1.5" stroke-miterlimit="10"/>
</g>
<path d="M145.943 252.96L151.763 185.268C151.923 183.43 150.558 181.782 148.679 181.557L80.1499 173.847C78.2889 173.635 76.6635 174.941 76.4909 176.797L70.6707 244.488C70.5107 246.327 71.8762 247.975 73.7551 248.199L142.284 255.91C144.145 256.121 145.801 254.811 145.943 252.96Z" stroke="#6777D2" stroke-width="1.5" stroke-miterlimit="10"/>
<path d="M157.079 66.4363L180.654 32.5656C180.945 32.1523 180.672 31.5837 180.176 31.5394L139.05 28.055C138.55 28.0152 138.189 28.5273 138.403 28.9849L155.944 66.3401C156.167 66.7976 156.793 66.854 157.079 66.4363Z" stroke="#6777D2" stroke-width="1.5" stroke-miterlimit="10"/>
</g>
<defs>
<clipPath id="clip0_694_9169">
<rect width="1440" height="294" fill="white"/>
</clipPath>
<clipPath id="clip1_694_9169">
<rect width="1118" height="294" fill="white" transform="translate(161)"/>
</clipPath>
</defs>
</svg>
