<svg id="Layer_1" data-name="Layer 1" xmlns="http://www.w3.org/2000/svg" xmlns:xlink="http://www.w3.org/1999/xlink" viewBox="0 0 1300 294"><defs><style>.cls-1,.cls-14,.cls-15,.cls-16,.cls-4,.cls-5{fill:none;}.cls-2{clip-path:url(#clip-path);}.cls-3{fill:#f4c55e;}.cls-4{stroke:#fbedc8;}.cls-14,.cls-16,.cls-4,.cls-5{stroke-miterlimit:10;}.cls-5{stroke:#966414;stroke-width:1.21104px;}.cls-6{fill:#966414;}.cls-7{fill:#f1a205;}.cls-8{fill:#f8d484;}.cls-9{fill:#f3b74f;}.cls-10{fill:#f8dc9d;}.cls-11{fill:#f7d27d;}.cls-12{fill:#e99820;}.cls-13{fill:#a66a15;}.cls-14,.cls-15,.cls-16{stroke:#a66a15;}.cls-15{stroke-linejoin:round;}.cls-16{stroke-width:1.05514px;}</style><clipPath id="clip-path"><rect class="cls-1" y="0.28481" width="1300" height="293.93084"/></clipPath></defs><g class="cls-2"><rect class="cls-3" y="0.28481" width="1300" height="293.93084"/><rect class="cls-4" x="55.80355" y="78.10606" width="44.26551" height="44.26551" rx="1.97913" transform="translate(79.24472 -26.72644) rotate(38.45572)"/><rect class="cls-4" x="1179.91767" y="141.12621" width="34.60656" height="34.60656" rx="1.54728" transform="translate(130.25368 724.13149) rotate(-35.47058)"/><circle class="cls-4" cx="142.13823" cy="158.40982" r="43.97198"/><circle class="cls-4" cx="1157.16869" cy="250.86968" r="30.25412"/><circle class="cls-4" cx="534.59705" cy="293.2523" r="30.25412"/><rect class="cls-4" x="151.53222" y="225.36595" width="34.60656" height="34.60656" rx="1.54728" transform="translate(-109.4837 143.00878) rotate(-35.47058)"/><rect class="cls-4" x="1075.31944" y="259.40314" width="54.64196" height="54.64196" rx="2.44307" transform="translate(525.70047 -695.70497) rotate(45)"/><rect class="cls-4" x="302.60065" y="187.33513" width="37.93064" height="37.93064" rx="1.6959" transform="translate(270.10847 -172.27144) rotate(49.57731)"/><rect class="cls-4" x="939.65441" y="201.39207" width="37.93064" height="37.93064" rx="1.6959" transform="translate(1120.54924 -749.84259) rotate(86.52985)"/><rect class="cls-4" x="601.55558" y="-27.49183" width="37.93064" height="37.93064" rx="1.6959" transform="translate(211.67081 -475.38891) rotate(49.57731)"/><path class="cls-4" d="M368.82555,171.54663l-8.07369-64.90213a1.03632,1.03632,0,0,0-1.65338-.69872l-52.17005,39.44308a1.03632,1.03632,0,0,0,.22158,1.78123l60.24374,25.45905A1.03632,1.03632,0,0,0,368.82555,171.54663Z"/><path class="cls-4" d="M1256.05258,240.39315l6.8362-65.04412a1.03633,1.03633,0,0,0-1.45216-1.055l-59.748,26.60174a1.03632,1.03632,0,0,0-.18762,1.78513l52.91176,38.44238A1.03632,1.03632,0,0,0,1256.05258,240.39315Z"/><path class="cls-4" d="M951.12793,35.76025l-8.07368-64.90213a1.03632,1.03632,0,0,0-1.65339-.69872l-52.17,39.44308a1.03633,1.03633,0,0,0,.22158,1.78124l60.24374,25.459A1.03632,1.03632,0,0,0,951.12793,35.76025Z"/><line class="cls-5" x1="1041.28566" y1="238.85956" x2="1040.29625" y2="188.33831"/><path class="cls-1" d="M1097.86832,206.18l1.02914.33237q-.0566-.09749-.114-.19665c-.032-.00622-.06475-.01339-.09666-.01947C1098.40719,206.2427,1098.13491,206.20638,1097.86832,206.18Z"/><path class="cls-6" d="M1166.013,74.078c-5.92238-1.37458-8.4606-2.94553-15.65214-2.74922-7.19153.19638-5.28789,0-12.2679,1.76733s-6.76848,4.51655-11.4218,9.22941c-3.19275,3.2336-3.19916,10.16409-2.88857,14.19673a1.49468,1.49468,0,0,1,1.408-.25453c1.22064.32378,2.48782,4.77162,2.97009,6.64228a.16029.16029,0,0,0,.30905-.00609c.63414-3.2054,3.972-12.19265,6.45054-12.72363,2.74975-.58913,4.44187.58907,7.61459-2.16008s4.23026,2.35646,8.88365,2.94553c4.65332.58913,11.84485-.58907,12.69088,3.1419.68439,3.018.12324,14.00185-.11625,18.09007a.47392.47392,0,0,0,.84427.287c1.11167-1.38451,2.86571-3.19945,3.29079-1.48926a2.72691,2.72691,0,0,1,.03715.88329,19.05891,19.05891,0,0,0,2.50107-5.39977c2.32662-7.46208,4.65332-6.873,5.92239-10.99674,1.26915-4.12373-4.829-5.03569-5.71086-11.58574C1170.6664,82.32554,1171.93548,75.45259,1166.013,74.078Z"/><path class="cls-7" d="M1168.12818,110.99545c-.42508-1.71019-2.17912.10475-3.29079,1.48926a.47392.47392,0,0,1-.84427-.287c.23949-4.08822.80064-15.07211.11625-18.09007-.846-3.731-8.03756-2.55277-12.69088-3.1419-4.65339-.58907-5.71093-5.69468-8.88365-2.94553s-4.86484,1.571-7.61459,2.16008c-2.47856.531-5.8164,9.51823-6.45054,12.72363a.16029.16029,0,0,1-.30905.00609c-.48227-1.87066-1.74945-6.3185-2.97009-6.64228a1.49468,1.49468,0,0,0-1.408.25453c-1.48242,1.20417-1.38358,5.5497-1.55329,8.38574-.21145,3.5346,4.01881,5.49831,4.01881,5.49831l-2.11342,9.81022-.21327.99014c-1.4806,7.462,4.23034,16.69135,5.71094,20.81514,1.48059,4.12373,7.8261,8.83659,7.8261,8.83659,5.28789,6.48019,2.53815,14.53133,2.53815,14.53133,5.92246-4.51648,10.7873-18.85144,13.32552-23.5643a8.17593,8.17593,0,0,0,.17671-6.2458,18.02774,18.02774,0,0,0-.83991-2.21649,4.40193,4.40193,0,0,1,1.0499-5.164,65.61805,65.61805,0,0,0,7.22781-8.36715c3.23325,0,6.96748-5.073,7.22868-7.95329A2.72691,2.72691,0,0,0,1168.12818,110.99545Z"/><path class="cls-7" d="M1157.12936,217.23125c-.21145.98189-4.01875,14.53134-3.80722,20.81515.17095,5.08046-3.11263,10.02946-4.48906,12.05112,2.01829,7.34867,3.88289,14.26232,4.97366,18.394,4.42576-6.70166,9.98811-19.99981,10.9372-23.965,1.03373-4.31882,2.7689-23.749,3.377-31.44415C1163.5874,215.03208,1157.27118,216.57315,1157.12936,217.23125Z"/><path class="cls-8" d="M1168.33971,146.93106a80.50789,80.50789,0,0,1-14.84086-11.35142,8.17593,8.17593,0,0,1-.17671,6.2458c-2.53822,4.71286-7.40306,19.04782-13.32552,23.5643,0,0,2.74974-8.05114-2.53815-14.53133,0,0-6.34551-4.71286-7.8261-8.83659-1.4806-4.12379-7.19154-13.35313-5.71094-20.81514l.21327-.99014c-4.278,1.35178-12.54651,4.15977-13.32719,5.89937,0,0-10.15273-3.33828-17.55579.39269-5.76812,2.907-12.72059,7.3106-15.01757,20.0297-.65111,3.60513-3.02741,8.36586-2.3267,13.35314,0,0,.688-.01488,1.78711-.00934,4.48.02259,15.89367.39032,16.40326,3.54393.6345,3.92742-6.98,15.12046-4.23034,24.15349,1.83393,6.02462,6.20573,14.05331,8.916,18.73621q.05746.09941.114.19665l41.09916,13.27171c.38838.72121,1.59255,4.64767,3.15684,10.05489,1.66714,5.76284,3.74305,13.2072,5.67962,20.25854,1.37643-2.02166,4.66-6.97066,4.48906-12.05112-.21153-6.28381,3.59577-19.83326,3.80722-20.81515.14182-.6581,6.458-2.19917,10.99161-4.14881,2.22989-.9589,4.03062-2.01618,4.44908-3.11682,1.26907-3.33828,1.4806-29.45542,2.1151-32.7937C1175.31972,173.83364,1179.973,153.60762,1168.33971,146.93106Z"/><path class="cls-7" d="M1089.86748,187.57952c-2.74967-9.033,4.86484-20.22607,4.23034-24.15349-.50959-3.15361-11.9233-3.52134-16.40326-3.54393-3.0679,3.542-10.21945,12.29849-10.88229,17.68257a22.84443,22.84443,0,0,0,9.38494,21.61736c.25661.19056.49873.38647.76779.57236l3.59577.98182s-1.05755,7.65846,4.01882,6.08751c3.24366-1.00387,4.06659-2.56651,4.23995-3.5657l.92557.29889a8.501,8.501,0,0,0,3.92966,2.4813c1.0019.29064,2.4535-.03016,4.19355.1418.26659.02637.53887.06269.81849.11625.03191.00608.06469.01325.09666.01947C1096.07321,201.63283,1091.70141,193.60414,1089.86748,187.57952Z"/><path class="cls-6" d="M1132.1963,295.74293c-3.01481,21.2386-8.69034,60.87853-10.23271,82.35774-1.29624,18.052-1.52175,46.58125-1.49531,66.49166,5.03856-34.52459,17.75726-117.70963,22.75591-151.95229-1.87881,3.20574-3.22757,5.49539-3.22757,5.49539Z"/><path class="cls-9" d="M1153.80674,268.49155c-1.09077-4.13171-2.95537-11.04536-4.97366-18.394-1.93657-7.05134-4.01248-14.4957-5.67962-20.25854-1.56429-5.40722-2.76846-9.33368-3.15684-10.05489l-41.09916-13.27171-1.02914-.33237c-1.74005-.172-3.19165.14884-4.19355-.1418a8.501,8.501,0,0,1-3.92966-2.4813l-.92557-.29889c-.17336.99919-.99629,2.56183-4.23995,3.5657-5.07637,1.57095-4.01882-6.08751-4.01882-6.08751l-3.59577-.98182c-.26906-.18589-.51118-.3818-.76779-.57236l-38.36252-12.388L1021.971,210.55469l-1.05755,51.05607,46.39265,14.22939,38.80458,11.902,26.0856,8.00083,7.80032,2.3925s1.34876-2.28965,3.22757-5.49539c4.35576-7.43178,11.57855-19.81736,11.57855-20.229C1154.80274,272.31286,1154.43089,270.85565,1153.80674,268.49155Z"/><path class="cls-6" d="M1132.1963,295.74293l-26.0856-8.00083-38.80458-11.90195c1.22574,22.57781,5.28126,89.53993,9.33752,102.511,4.85573,15.52756-7.01381,78.63962-5.665,80.39282.66458.86368,6.31354,5.91973,15.02937,9.36228a42.4868,42.4868,0,0,0,29.62746,1.12282,45.92436,45.92436,0,0,0,4.97934-1.97s-.08165-5.96814-.1239-15.06941c-.01092-2.34111-.019-4.88915-.02265-7.59732-.02644-19.91041.19907-48.43967,1.49531-66.49166C1123.506,356.62146,1129.18149,316.98153,1132.1963,295.74293Z"/><path class="cls-1" d="M1100.32989,207.7243l1.02914.33237q-.0566-.09749-.114-.19665c-.032-.00622-.06475-.01339-.09666-.01947C1100.86875,207.787,1100.59648,207.75068,1100.32989,207.7243Z"/><path class="cls-5" d="M1168.47458,75.62231c-5.92239-1.37457-8.4606-2.94553-15.65214-2.74922-7.19153.19638-5.28789,0-12.2679,1.76733s-6.76848,4.51655-11.4218,9.22941c-3.19275,3.2336-3.19916,10.1641-2.88857,14.19673a1.49468,1.49468,0,0,1,1.408-.25453c1.22064.32378,2.48782,4.77162,2.97008,6.64228a.1603.1603,0,0,0,.30906-.00608c.63414-3.20541,3.972-12.19266,6.45054-12.72363,2.74975-.58914,4.44187.58906,7.61459-2.16009s4.23026,2.35646,8.88365,2.94553c4.65332.58913,11.84485-.58907,12.69088,3.1419.68439,3.018.12324,14.00185-.11625,18.09007a.47392.47392,0,0,0,.84427.287c1.11167-1.38451,2.8657-3.19945,3.29079-1.48926a2.72691,2.72691,0,0,1,.03715.88329,19.05919,19.05919,0,0,0,2.50107-5.39977c2.32662-7.46208,4.65332-6.87295,5.92239-10.99674,1.26915-4.12373-4.829-5.03569-5.71086-11.58574C1173.128,83.86983,1174.397,76.99689,1168.47458,75.62231Z"/><path class="cls-5" d="M1170.58975,112.53974c-.42509-1.71019-2.17912.10475-3.29079,1.48926a.47392.47392,0,0,1-.84427-.287c.23949-4.08822.80064-15.07211.11625-18.09007-.846-3.731-8.03756-2.55277-12.69088-3.1419-4.65339-.58907-5.71093-5.69468-8.88365-2.94553s-4.86484,1.57095-7.61459,2.16009c-2.47856.531-5.8164,9.51822-6.45054,12.72363a.1603.1603,0,0,1-.30906.00608c-.48226-1.87066-1.74944-6.3185-2.97008-6.64228a1.49468,1.49468,0,0,0-1.408.25453c-1.48242,1.20417-1.38358,5.5497-1.55329,8.38575-.21146,3.53459,4.01881,5.4983,4.01881,5.4983l-2.11342,9.81022-.21327.99014c-1.4806,7.462,4.23034,16.69135,5.71094,20.81514,1.48059,4.12373,7.8261,8.83659,7.8261,8.83659,5.28789,6.48019,2.53815,14.53133,2.53815,14.53133,5.92246-4.51648,10.7873-18.85144,13.32552-23.5643a8.17593,8.17593,0,0,0,.17671-6.2458,18.02774,18.02774,0,0,0-.83991-2.21649,4.40193,4.40193,0,0,1,1.0499-5.164,65.61805,65.61805,0,0,0,7.22781-8.36715c3.23325,0,6.96748-5.073,7.22868-7.95329A2.72691,2.72691,0,0,0,1170.58975,112.53974Z"/><path class="cls-5" d="M1159.59093,218.77555c-.21145.98188-4.01875,14.53133-3.80722,20.81514.171,5.08046-3.11263,10.02946-4.48907,12.05112,2.0183,7.34867,3.8829,14.26232,4.97367,18.394,4.42576-6.70165,9.98811-19.99981,10.9372-23.965,1.03373-4.31882,2.7689-23.749,3.377-31.44415C1166.049,216.57637,1159.73274,218.11744,1159.59093,218.77555Z"/><path class="cls-5" d="M1170.80128,148.47535a80.50789,80.50789,0,0,1-14.84086-11.35142,8.17593,8.17593,0,0,1-.17671,6.2458c-2.53822,4.71286-7.40306,19.04782-13.32552,23.5643,0,0,2.74974-8.05114-2.53815-14.53133,0,0-6.34551-4.71286-7.8261-8.83659-1.4806-4.12379-7.19154-13.35313-5.71094-20.81514l.21327-.99014c-4.278,1.35179-12.54651,4.15977-13.3272,5.89937,0,0-10.15272-3.33828-17.55578.39269-5.76812,2.907-12.7206,7.3106-15.01757,20.0297-.65111,3.60513-3.02741,8.36586-2.3267,13.35314,0,0,.688-.01488,1.78711-.00933,4.48.02258,15.89367.39032,16.40325,3.54392.6345,3.92742-6.98,15.12047-4.23034,24.1535,1.83394,6.02461,6.20574,14.0533,8.916,18.7362q.05746.09941.114.19665l41.09916,13.27172c.38838.7212,1.59255,4.64767,3.15684,10.05488,1.66714,5.76284,3.74305,13.2072,5.67961,20.25854,1.37644-2.02166,4.66-6.97066,4.48907-12.05112-.21153-6.28381,3.59577-19.83326,3.80722-20.81514.14181-.65811,6.458-2.19918,10.99161-4.14882,2.22989-.9589,4.03062-2.01618,4.44908-3.11682,1.26907-3.33828,1.48059-29.45542,2.11509-32.7937C1177.78129,175.37793,1182.4346,155.15192,1170.80128,148.47535Z"/><path class="cls-5" d="M1092.329,189.12382c-2.74967-9.033,4.86484-20.22608,4.23034-24.1535-.50958-3.1536-11.92329-3.52134-16.40325-3.54392-3.06791,3.542-10.21945,12.29848-10.88229,17.68257a22.84442,22.84442,0,0,0,9.38494,21.61735c.25661.19056.49873.38647.76779.57236l3.59577.98183s-1.05755,7.65845,4.01882,6.0875c3.24366-1.00387,4.06659-2.5665,4.23995-3.5657l.92556.29889a8.501,8.501,0,0,0,3.92967,2.4813c1.0019.29064,2.4535-.03016,4.19355.1418.26659.02638.53886.06269.81849.11625.03191.00608.06468.01325.09666.01947C1098.53478,203.17712,1094.163,195.14843,1092.329,189.12382Z"/><path class="cls-5" d="M1134.65787,297.28722c-3.01481,21.2386-8.69035,60.87854-10.23271,82.35774-1.29624,18.052-1.52175,46.58125-1.49531,66.49166,5.03856-34.52458,17.75726-117.70962,22.7559-151.95229-1.8788,3.20574-3.22756,5.4954-3.22756,5.4954Z"/><path class="cls-5" d="M1156.26831,270.03584c-1.09077-4.13171-2.95537-11.04536-4.97367-18.394-1.93656-7.05134-4.01247-14.4957-5.67961-20.25854-1.56429-5.40721-2.76846-9.33368-3.15684-10.05488L1101.359,208.05667l-1.02914-.33237c-1.74-.172-3.19165.14884-4.19355-.1418a8.501,8.501,0,0,1-3.92967-2.4813l-.92556-.29889c-.17336.9992-.99629,2.56183-4.23995,3.5657-5.07637,1.571-4.01882-6.0875-4.01882-6.0875l-3.59577-.98183c-.26906-.18589-.51118-.3818-.76779-.57236l-38.36253-12.388L1024.43259,212.099l-1.05755,51.05607,46.39265,14.2294,38.80458,11.90194,26.0856,8.00083,7.80032,2.39251s1.34876-2.28966,3.22756-5.4954c4.35577-7.43178,11.57856-19.81736,11.57856-20.229C1157.26431,273.85716,1156.89246,272.4,1156.26831,270.03584Z"/><path class="cls-5" d="M1134.65787,297.28722l-26.0856-8.00083-38.80458-11.90194c1.22574,22.5778,5.28126,89.53992,9.33752,102.511,4.85573,15.52756-7.01381,78.63962-5.665,80.39282.66458.86368,6.31354,5.91973,15.02937,9.36229a42.48685,42.48685,0,0,0,29.62746,1.12281,45.92436,45.92436,0,0,0,4.97934-1.97s-.08165-5.96814-.1239-15.06941c-.01092-2.34111-.019-4.88915-.02265-7.59732-.02644-19.91041.19907-48.43967,1.49531-66.49166C1125.96752,358.16576,1131.64306,318.52582,1134.65787,297.28722Z"/><ellipse class="cls-6" cx="1140.85328" cy="106.04641" rx="1.27315" ry="1.18198"/><ellipse class="cls-6" cx="1157.14027" cy="109.19025" rx="1.27315" ry="1.18198"/><path class="cls-5" d="M1155.3755,130.68261s-9.74349,8.106-20.11968,0c0,0-6.07386-9.39822-7.33925-14.8022"/><path class="cls-5" d="M1148.79548,123.164s-5.82079,4.2292-11.00888-1.99712"/><path class="cls-5" d="M1151.4528,116.23285s-2.9104,2.93694-7.71887-1.0573"/><path class="cls-5" d="M1163.98014,144.4275s6.07387,10.45552,3.54309,13.04c0,0-8.73118.35243-8.85772.82234s-.25308,3.40686-.25308,3.40686-17.33582,4.22919-21.132,16.68183l6.32695-12.68759"/><path class="cls-5" d="M1113.26907,127.6602s6.85336,12.32247,6.63729,22.12111a1.1616,1.1616,0,0,0,1.46414,1.091c3.76985-.85151,13.29011-2.72248,15.90994-.57088"/><path class="cls-5" d="M1130.827,149.714s11.262,12.33516,7.59233,25.72762"/><path class="cls-5" d="M1159.59093,218.77555c.97062-1.96821,14.18375-41.62191,14.18375-41.62191"/><path class="cls-5" d="M1093.57405,194.8409s-2.76554-4.56446-9.52574-.57056-4.62174,7.02834-4.62174,7.02834"/><path class="cls-5" d="M1091.28111,204.80231a18.70455,18.70455,0,0,0,.2853-3.4675"/><path class="cls-5" d="M1083.02234,202.28051a2.21405,2.21405,0,0,1,.98524-2.41852"/><polyline class="cls-5" points="1157.264 273.955 1041.286 238.86 1023.375 263.155"/><polygon class="cls-6" points="1070.251 280.042 1141.85 301.077 1144.342 298.132 1145.686 294.184 1140.717 299.184 1069.768 277.384 1070.251 280.042"/><path class="cls-1" d="M1045.969,160.25637c-.81918-.81915.983-4.915,1.63829-10.15757s-2.62129-42.10472-2.62129-42.10472-8.02775,20.15128-7.37242,23.9194,6.71709,25.88542,6.71709,25.88542a6.4996,6.4996,0,0,1-.83819.5892l2.2764,2.1212C1045.89469,160.349,1045.969,160.25637,1045.969,160.25637Z"/><path class="cls-1" d="M1054.29222,35.17053a3.07784,3.07784,0,0,1-.533.56087c-.417,1.229-.81129,2.43015-.90946,2.8555-.11843.51328.33824,1.02566.82289,1.44589.7706.48957,2.242,1.482,3.93028,2.534a5.23684,5.23684,0,0,1-.27392-4.28358c.78656-1.94567,1.97546-3.9142,2.65149-5.91733C1058.28594,32.75979,1055.82148,33.15187,1054.29222,35.17053Z"/><path class="cls-10" d="M1074.33505,26.89527c-1.75527-2.06868-3.11272-2.20167-2.12578-5.99767s-2.2776-4.707-2.2776-4.707c-5.99763-3.87189-9.18627,0-8.88258.60738,1.51839.911,1.898,2.65719,2.809,4.32741s1.1388,3.03681-.15183,4.32745-2.35353.98694-1.44249,2.58126a2.74218,2.74218,0,0,1-1.2147,4.02375,7.66737,7.66737,0,0,1-1.0686.30809c-.676,2.00313-1.86493,3.97166-2.65149,5.91733a5.23684,5.23684,0,0,0,.27392,4.28358c1.25341.7811,2.62064,1.59136,3.90166,2.24551,1.78668.91233,3.05927,4.28,3.82763,7.52039,2.3407.86525,4.4613.78705,3.61252-.99128-1.59432-3.34047,1.22356-3.483,2.58126-4.783,3.56824-3.41638-3.34047-9.03445,1.36657-11.76754S1076.46079,29.40063,1074.33505,26.89527Z"/><path class="cls-10" d="M1063.70628,25.45281c1.29063-1.29064,1.06287-2.6572.15183-4.32745s-1.29063-3.41637-2.809-4.32741-4.40337-1.06287-5.08665-1.44249c-8.70832-4.838-11.16019,4.783-11.16019,4.783-.0419-.02617-.04651.0214-.02427.12186.182-.38353.29992-.61388.29992-.61388,1.18669.34313,1.926-.64678,2.83706-1.25413s1.59432-.15186,2.65719.75918,1.51839.15183,2.20168-.07593a1.77831,1.77831,0,0,1,2.3535,1.67025,8.30471,8.30471,0,0,0,1.74615,4.9348c1.21473,1.36653-.30366,3.796-.30366,3.796,1.67022.30366.98694,1.67022.68328,2.3535s-2.35353.60735-2.35353.60735-.5899,1.67137-1.14036,3.294a3.07784,3.07784,0,0,0,.533-.56087c1.52926-2.01866,3.99372-2.41074,5.68827-2.80462a7.66737,7.66737,0,0,0,1.0686-.30809,2.74218,2.74218,0,0,0,1.2147-4.02375C1061.35275,26.43975,1062.41562,26.74344,1063.70628,25.45281Z"/><path class="cls-11" d="M1056.56982,29.47656s1.51839-2.42946.30366-3.796a8.30471,8.30471,0,0,1-1.74615-4.9348,1.77831,1.77831,0,0,0-2.3535-1.67025c-.68329.22776-1.13881.987-2.20168.07593s-1.74615-1.36656-2.65719-.75918-1.65037,1.59726-2.83706,1.25413c0,0-.11789.23035-.29992.61388-.70566,1.4867-2.39112,5.3126-2.06005,7.299.41646,2.49877,2.4061,6.17776,1.80468,7.07992-.50721.76082-1.81118,3.26221-3.1969,4.008a1.91133,1.91133,0,0,1-.39538.16742c-1.527.41649,3.03681,6.90871,10.94986,3.87621l2.77643-1.80471a7.0619,7.0619,0,0,0-.984-.85337c-.48465-.42023-.94132-.93261-.82289-1.44589.09817-.42535.49251-1.62647.90946-2.8555.55046-1.62262,1.14036-3.294,1.14036-3.294s2.04984.07593,2.35353-.60735S1058.24,29.78022,1056.56982,29.47656Z"/><path class="cls-3" d="M1065.33221,52.33272c-.76836-3.24035-2.041-6.60806-3.82763-7.52039-1.281-.65415-2.64825-1.46441-3.90166-2.24551-1.68828-1.05205-3.15968-2.04446-3.93028-2.534a7.0619,7.0619,0,0,1,.984.85337l-2.77643,1.80471c-7.91305,3.0325-12.47688-3.45972-10.94986-3.87621a1.91133,1.91133,0,0,0,.39538-.16742c-2.80661.735-8.16312,1.2263-10.72046,1.60991-3.03678.45552-3.64416,5.16256-6.14949,8.35117a6.3413,6.3413,0,0,0-1.59,3.29284l21.78461.80684L1046.38,74.79365c.58209.04921,1.17038.08292,1.76271.08292a9.92762,9.92762,0,0,0,7.51606-3.11271c.911-1.06287.22776-10.02142.22776-10.02142s6.3551-1.18266,9.06381-2.07909a2.69184,2.69184,0,0,0,1.18536-.5781C1066.36315,58.6683,1066.09838,55.56384,1065.33221,52.33272Z"/><path class="cls-12" d="M1041.38585,76.09127a11.56334,11.56334,0,0,1-2.96085-.0759c-2.2776-.22776-.83514-.987-.83514-.987,2.14337-1.42891,5.3434-.526,8.79015-.23475L1044.65039,52.708l-21.78461-.80684-11.01272-.40789-13.89331,6.22542-2.04984,26.496,32.87326,3.11272.12454-.04013,5.22888-1.68385a.40615.40615,0,0,1,.1128-.174c.31292-.31293,1.39644-.4458,2.20167-1.06288a21.99925,21.99925,0,0,0,2.772-2.65653.05239.05239,0,0,0-.067-.07949c-1.03969.69375-4.17273,2.69826-4.29928,1.749C1034.70491,82.24079,1041.38585,76.09127,1041.38585,76.09127Z"/><path class="cls-11" d="M1055.88654,61.74244s.68328,8.95855-.22776,10.02142a9.92762,9.92762,0,0,1-7.51606,3.11271c-.59233,0-1.18062-.03371-1.76271-.08292-3.44675-.29129-6.64678-1.19416-8.79015.23475,0,0-1.44246.75921.83514.987a11.56334,11.56334,0,0,0,2.96085.0759s-6.68094,6.14952-6.52908,7.28829c.12655.94921,3.25959-1.0553,4.29928-1.749a.05239.05239,0,0,1,.067.07949,21.99925,21.99925,0,0,1-2.772,2.65653c-.80523.61708-1.88875.74995-2.20167,1.06288a.40615.40615,0,0,0-.1128.174c-.19808.72173,3.76751.593,5.95863-.32587,2.3535-.987,4.02375-4.6311,5.694-4.783s5.84583.30369,8.88262-.75918c1.94866-.682,4.2692-1.08749,6.0253-2.33015a5.83768,5.83768,0,0,0,2.25-3.06016c1.00072-3.061,1.7272-11.18486,2.00328-14.68177C1062.24164,60.55978,1055.88654,61.74244,1055.88654,61.74244Z"/><path class="cls-3" d="M1060.69711,77.40528c-1.7561,1.24266-4.07664,1.64814-6.0253,2.33015-3.03679,1.06287-7.21237.60735-8.88262.75918s-3.34047,3.796-5.694,4.783c-2.19112.91884-6.15671,1.0476-5.95863.32587l-5.22888,1.68385-.04861,1.86218,1.1388.75921c12.80145,6.20069,28.23365-.0105,31.8035-1.61566.495-.22259.76608-.35825.76608-.35825Z"/><path class="cls-13" d="M1043.49249,158.3881a26.74144,26.74144,0,0,1-6.53423,2.35977s-.19261-.50016-.52432-1.372c-2.75647,2.88431-8.00519,8.4373-8.48642,9.39976-.65533,1.31065,2.29365,4.42345,6.88092,2.1298a60.21629,60.21629,0,0,0,6.735-4.22606,52.312,52.312,0,0,1,4.20541-6.17005Z"/><path class="cls-12" d="M1061.8014,88.293c-3.56985,1.60516-19.00205,7.81635-31.8035,1.61566l-1.1388-.75921c1.1388.75921-4.02438,33.7533-2.22223,41.61722,1.53194,6.6848,7.91658,23.66622,9.79707,28.60916.33171.87186.52432,1.372.52432,1.372a26.74144,26.74144,0,0,0,6.53423-2.35977,6.4996,6.4996,0,0,0,.83819-.5892s-6.06177-22.11726-6.71709-25.88542,7.37242-23.9194,7.37242-23.9194,3.27662,36.86213,2.62129,42.10472-2.45747,9.33842-1.63829,10.15757c.7083.7083,6.925,2.29658,8.59543.8918a1.11361,1.11361,0,0,0,.41528-.8918c0-.81915,5.73413-16.71081,5.898-29.48968C1061.00669,120.7034,1062.35433,98.14692,1061.8014,88.293Z"/><path class="cls-13" d="M1045.969,160.25637s-.07432.09264-.20012.25293a52.312,52.312,0,0,0-4.20541,6.17005c-.79091,1.43766-1.32443,2.77247-1.16477,3.57074.4915,2.45747,7.86392,1.4745,10.64907-1.47448s1.80215-4.75112,3.1128-6.22559a2.08729,2.08729,0,0,0,.40386-1.40185C1052.894,162.553,1046.67731,160.96467,1045.969,160.25637Z"/><path class="cls-1" d="M1047.68017,159.71822c-.81918-.81914.983-4.91494,1.6383-10.15757s-2.6213-42.10472-2.6213-42.10472-8.02775,20.15129-7.37242,23.91941,6.71709,25.88541,6.71709,25.88541a6.49918,6.49918,0,0,1-.83818.5892l2.27639,2.1212C1047.60585,159.81086,1047.68017,159.71822,1047.68017,159.71822Z"/><path class="cls-1" d="M1056.00338,34.63238a3.07793,3.07793,0,0,1-.533.56088c-.417,1.229-.81129,2.43015-.90945,2.8555-.11844.51327.33823,1.02565.82288,1.44588.7706.48957,2.242,1.482,3.93028,2.534a5.23688,5.23688,0,0,1-.27392-4.28358c.78656-1.94567,1.97546-3.9142,2.6515-5.91734C1059.9971,32.22165,1057.53264,32.61372,1056.00338,34.63238Z"/><path class="cls-14" d="M1076.04621,26.35712c-1.75527-2.06868-3.11271-2.20167-2.12577-5.99766s-2.2776-4.707-2.2776-4.707c-5.99764-3.8719-9.18628,0-8.88259.60738,1.51839.911,1.898,2.65719,2.809,4.32741s1.1388,3.03681-.15183,4.32744-2.35353.98694-1.44249,2.58126a2.74218,2.74218,0,0,1-1.2147,4.02375,7.66761,7.66761,0,0,1-1.06859.30809c-.676,2.00314-1.86494,3.97167-2.6515,5.91734a5.23688,5.23688,0,0,0,.27392,4.28358c1.25341.78109,2.62064,1.59136,3.90166,2.2455,1.78668.91233,3.05927,4.28,3.82763,7.5204,2.3407.86525,4.4613.787,3.61252-.99129-1.59432-3.34047,1.22356-3.483,2.58127-4.783,3.56823-3.41637-3.34048-9.03444,1.36656-11.76754S1078.172,28.86248,1076.04621,26.35712Z"/><path class="cls-14" d="M1065.41744,24.91466c1.29063-1.29063,1.06287-2.65719.15183-4.32744s-1.29063-3.41637-2.809-4.32741-4.40337-1.06287-5.08665-1.44249c-8.70832-4.838-11.16019,4.783-11.16019,4.783-.0419-.02618-.0465.0214-.02427.12186.182-.38353.29992-.61388.29992-.61388,1.18669.34312,1.926-.64678,2.83706-1.25413s1.59432-.15186,2.6572.75918,1.51839.15183,2.20167-.07593a1.77831,1.77831,0,0,1,2.3535,1.67025,8.30468,8.30468,0,0,0,1.74615,4.93479c1.21473,1.36653-.30366,3.796-.30366,3.796,1.67022.30366.98694,1.67022.68328,2.3535s-2.35353.60735-2.35353.60735-.58989,1.67138-1.14036,3.294a3.07793,3.07793,0,0,0,.533-.56088c1.52926-2.01866,3.99372-2.41073,5.68828-2.80462a7.66761,7.66761,0,0,0,1.06859-.30809,2.74218,2.74218,0,0,0,1.2147-4.02375C1063.06391,25.9016,1064.12678,26.20529,1065.41744,24.91466Z"/><path class="cls-15" d="M1058.281,28.93841s1.51839-2.42946.30366-3.796a8.30468,8.30468,0,0,1-1.74615-4.93479,1.77831,1.77831,0,0,0-2.3535-1.67025c-.68328.22776-1.1388.987-2.20167.07593s-1.74616-1.36656-2.6572-.75918-1.65037,1.59725-2.83706,1.25413c0,0-.11789.23035-.29992.61388-.70566,1.48669-2.39112,5.3126-2.06,7.299.41646,2.49878,2.4061,6.17777,1.80468,7.07992-.50721.76082-1.81118,3.26221-3.1969,4.008a1.91242,1.91242,0,0,1-.39538.16742c-1.527.41649,3.03681,6.9087,10.94986,3.8762l2.77643-1.8047a7.0611,7.0611,0,0,0-.984-.85338c-.48465-.42023-.94132-.93261-.82288-1.44588.09816-.42535.4925-1.62648.90945-2.8555.55047-1.62262,1.14036-3.294,1.14036-3.294s2.04984.07593,2.35353-.60735S1059.9512,29.24207,1058.281,28.93841Z"/><path class="cls-15" d="M1067.04337,51.79458c-.76836-3.24036-2.041-6.60807-3.82763-7.5204-1.281-.65414-2.64825-1.46441-3.90166-2.2455-1.68828-1.05206-3.15968-2.04447-3.93028-2.534a7.0611,7.0611,0,0,1,.984.85338l-2.77643,1.8047c-7.913,3.0325-12.47688-3.45971-10.94986-3.8762a1.91242,1.91242,0,0,0,.39538-.16742c-2.8066.735-8.16312,1.22629-10.72045,1.60991-3.03679.45552-3.64417,5.16255-6.1495,8.35116a6.34134,6.34134,0,0,0-1.59,3.29284l21.78461.80684,1.72962,22.08566c.58209.04921,1.17038.08291,1.76271.08291a9.92762,9.92762,0,0,0,7.51606-3.11271c.911-1.06287.22776-10.02141.22776-10.02141s6.35511-1.18266,9.06381-2.07909a2.69178,2.69178,0,0,0,1.18536-.5781C1068.07432,58.13016,1067.80954,55.0257,1067.04337,51.79458Z"/><path class="cls-14" d="M1043.097,75.55313a11.56386,11.56386,0,0,1-2.96085-.07591c-2.2776-.22776-.83514-.987-.83514-.987,2.14337-1.42891,5.3434-.526,8.79015-.23474l-1.72962-22.08566-21.78461-.80684-11.01272-.40789-13.89331,6.22543-2.04984,26.496,32.87327,3.11271.12453-.04012,5.22888-1.68386a.40621.40621,0,0,1,.1128-.174c.31292-.31292,1.39644-.4458,2.20167-1.06287a21.99855,21.99855,0,0,0,2.772-2.65653.0524.0524,0,0,0-.067-.0795c-1.03969.69375-4.17273,2.69827-4.29928,1.74906C1036.41607,81.70265,1043.097,75.55313,1043.097,75.55313Z"/><path class="cls-14" d="M1057.5977,61.2043s.68328,8.95854-.22776,10.02141a9.92762,9.92762,0,0,1-7.51606,3.11271c-.59233,0-1.18062-.0337-1.76271-.08291-3.44675-.2913-6.64678-1.19417-8.79015.23474,0,0-1.44246.75921.83514.987a11.56386,11.56386,0,0,0,2.96085.07591s-6.68094,6.14952-6.52908,7.28829c.12655.94921,3.25959-1.05531,4.29928-1.74906a.0524.0524,0,0,1,.067.0795,21.99855,21.99855,0,0,1-2.772,2.65653c-.80523.61707-1.88875.74995-2.20167,1.06287a.40621.40621,0,0,0-.1128.174c-.19808.72174,3.76751.593,5.95863-.32586,2.3535-.987,4.02375-4.6311,5.694-4.783s5.84584.30369,8.88262-.75918c1.94866-.682,4.2692-1.08749,6.0253-2.33015a5.83766,5.83766,0,0,0,2.25-3.06017c1.00072-3.061,1.7272-11.18486,2.00328-14.68176C1063.95281,60.02164,1057.5977,61.2043,1057.5977,61.2043Z"/><path class="cls-14" d="M1062.40827,76.86714c-1.7561,1.24266-4.07664,1.64813-6.0253,2.33015-3.03678,1.06287-7.21237.60735-8.88262.75918s-3.34047,3.796-5.694,4.783c-2.19112.91883-6.15671,1.0476-5.95863.32586l-5.22888,1.68386-.04861,1.86217,1.13881.75921c12.80144,6.20069,28.23364-.0105,31.80349-1.61566.495-.22258.76608-.35825.76608-.35825Z"/><path class="cls-14" d="M1045.20366,157.85a26.74114,26.74114,0,0,1-6.53424,2.35977s-.19261-.50015-.52431-1.372c-2.75648,2.88432-8.0052,8.4373-8.48643,9.39977-.65533,1.31065,2.29365,4.42345,6.88092,2.1298a60.21684,60.21684,0,0,0,6.735-4.22606,52.31227,52.31227,0,0,1,4.20541-6.17006Z"/><path class="cls-14" d="M1063.51256,87.75487c-3.56985,1.60516-19.002,7.81635-31.80349,1.61566l-1.13881-.75921c1.13881.75921-4.02438,33.7533-2.22223,41.61722,1.53194,6.6848,7.91658,23.66623,9.79708,28.60916.3317.87187.52431,1.372.52431,1.372a26.74114,26.74114,0,0,0,6.53424-2.35977,6.49918,6.49918,0,0,0,.83818-.5892s-6.06177-22.11726-6.71709-25.88541,7.37242-23.91941,7.37242-23.91941,3.27662,36.86213,2.6213,42.10472-2.45748,9.33843-1.6383,10.15757c.7083.70831,6.925,2.29659,8.59543.8918a1.11361,1.11361,0,0,0,.41529-.8918c0-.81914,5.73412-16.71081,5.89794-29.48968C1062.71786,120.16525,1064.06549,97.60878,1063.51256,87.75487Z"/><path class="cls-14" d="M1047.68017,159.71822s-.07432.09264-.20012.25293a52.31227,52.31227,0,0,0-4.20541,6.17006c-.7909,1.43766-1.32442,2.77246-1.16477,3.57073.4915,2.45748,7.86392,1.4745,10.64907-1.47447s1.80215-4.75112,3.1128-6.2256a2.08728,2.08728,0,0,0,.40386-1.40185C1054.60515,162.01481,1048.38847,160.42653,1047.68017,159.71822Z"/><path class="cls-14" d="M1048.5187,25.21375c-.15973.26624-1.4909,1.43766-1.17142,2.02338.582,1.067,1.5974.213,1.5974.213"/><path class="cls-14" d="M1050.64857,29.84621s-1.43766,1.33117-2.55584.639"/><path class="cls-14" d="M1046.17585,33.20075s1.86364,2.87532,7.02856-.37273"/><path class="cls-14" d="M999.67091,57.18055l30.37121,2.59028s15.761-7.561,15.92075-7.66752"/><path class="cls-14" d="M1030.61887,86.74915s-.57675-26.71209-.57675-26.97832"/><path class="cls-14" d="M1057.5977,61.2043s-.31731-4.28841,1.3999-5.38118"/><path class="cls-13" d="M1035.96055,84.89126l-5.34168,1.85789.00835.96526,5.51377-2.27814S1035.5797,85.23817,1035.96055,84.89126Z"/><circle class="cls-13" cx="1047.29568" cy="23.65879" r="0.5396"/><circle class="cls-13" cx="1053.11139" cy="25.09773" r="0.5396"/><path class="cls-1" d="M245.38842,154.77785c.74616-.74614-.89536-4.47687-1.49227-9.2522s2.38766-38.35183,2.38766-38.35183,7.31221,18.35515,6.71529,21.78741-6.11838,23.57818-6.11838,23.57818a5.91932,5.91932,0,0,0,.76348.53669l-2.07349,1.93213C245.45612,154.86223,245.38842,154.77785,245.38842,154.77785Z"/><path class="cls-1" d="M237.80708,40.84123a2.80373,2.80373,0,0,0,.4855.51088c.37978,1.11947.739,2.21354.82839,2.601.10789.46752-.30808.93423-.74954,1.317-.70191.44593-2.04216,1.34988-3.58,2.30817a4.77009,4.77009,0,0,0,.24951-3.90178c-.71646-1.77224-1.79939-3.56531-2.41517-5.3899C234.16933,38.64536,236.41413,39.00249,237.80708,40.84123Z"/><path class="cls-12" d="M233.52075,35.65477s-1.383-2.21291-.27659-3.45764a7.56446,7.56446,0,0,0,1.59051-4.495,1.6198,1.6198,0,0,1,2.14373-1.52137c.62238.20746,1.0373.899,2.00543.06916s1.59051-1.24476,2.42035-.69151,1.50327,1.45488,2.58419,1.14235c0,0,.10738.20981.27319.55916a24.3394,24.3394,0,0,1,1.87643,6.64841c.25608,4.89746-2.19164,5.62713-1.64382,6.44887.462.693,1.64974,2.97144,2.91194,3.6508a1.742,1.742,0,0,0,.36014.1525c1.39092.37937-2.76613,6.29291-9.97386,3.53071l-2.529-1.64385a6.43208,6.43208,0,0,1,.89628-.77731c.44145-.38278.85742-.84949.74954-1.317-.08942-.38744-.44861-1.48151-.8284-2.601-.5014-1.478-1.03871-3.0004-1.03871-3.0004s-1.86713.06917-2.14375-.55321S231.9994,35.93137,233.52075,35.65477Z"/><path class="cls-10" d="M227.75111,56.47371c.69987-2.95153,1.859-6.01907,3.48646-6.85009,1.16685-.59584,2.41221-1.33388,3.5539-2.04535,1.5378-.95829,2.87805-1.86224,3.58-2.30817a6.43241,6.43241,0,0,0-.89627.77731l2.529,1.64385c7.20774,2.7622,11.36478-3.15134,9.97387-3.53071a1.74173,1.74173,0,0,1-.36014-.1525c2.55645.66946,7.43552,1.117,9.76491,1.46641,2.76611.41492,3.31935,4.70241,5.60138,7.60681a5.77607,5.77607,0,0,1,1.44826,2.99934l-19.84289.73493-1.57545,20.1171c-.53022.04482-1.06606.07552-1.6056.07552a9.04275,9.04275,0,0,1-6.84613-2.83526c-.82984-.96814-.20746-9.12818-.20746-9.12818s-5.78866-1.07725-8.25593-1.89378a2.45186,2.45186,0,0,1-1.07971-.52657C226.81206,62.24458,227.05323,59.41683,227.75111,56.47371Z"/><path class="cls-12" d="M249.56307,78.1146a10.53288,10.53288,0,0,0,2.69694-.06914c2.0746-.20746.76071-.899.76071-.899-1.95233-1.30155-4.86714-.47915-8.00666-.21382l1.57545-20.1171,19.84289-.73493,3.924-.25281,8.13351,5.5131.30849,23.64417-17.75595,3.36416-.11344-.03654-4.76281-1.53377a.37012.37012,0,0,0-.10275-.15852c-.285-.285-1.272-.40606-2.00543-.96814a20.03876,20.03876,0,0,1-2.52495-2.41974.04772.04772,0,0,1,.06106-.07241c.947.63191,3.80081,2.45776,3.91608,1.59316C255.64852,83.716,249.56307,78.1146,249.56307,78.1146Z"/><path class="cls-12" d="M236.35487,65.04472s-.62238,8.16.20746,9.12818a9.04275,9.04275,0,0,0,6.84613,2.83526c.53954,0,1.07538-.0307,1.6056-.07552,3.13952-.26533,6.05433-1.08773,8.00666.21382,0,0,1.31389.69154-.76071.899a10.53288,10.53288,0,0,1-2.69694.06914s6.08545,5.6014,5.94713,6.63867c-.11527.8646-2.96906-.96125-3.91608-1.59316a.04772.04772,0,0,0-.06106.07241,20.03876,20.03876,0,0,0,2.52495,2.41974c.73346.56208,1.7204.68311,2.00543.96814a.37012.37012,0,0,1,.10275.15852c.18042.65741-3.43171.54012-5.42753-.29682-2.14372-.899-3.6651-4.21832-5.18645-4.35664s-5.32478.27662-8.09088-.69152c-1.775-.62122-3.88868-.99056-5.48826-2.12245a5.31739,5.31739,0,0,1-2.04941-2.78741c-.91152-2.78816-1.57325-10.18792-1.82472-13.37314C230.56621,63.96747,236.35487,65.04472,236.35487,65.04472Z"/><path class="cls-10" d="M231.97307,79.31149c1.59958,1.13189,3.71329,1.50123,5.48826,2.12245,2.7661.96814,6.5695.55322,8.09088.69152s3.04273,3.45764,5.18645,4.35664c1.99582.83694,5.60795.95423,5.42753.29682l4.76281,1.53377.04428,1.69619-1.0373.69154c-11.66042,5.648-25.71711-.00956-28.96877-1.47165-.45088-.20274-.6978-.32632-.6978-.32632Z"/><path class="cls-13" d="M247.6442,153.0761a24.35788,24.35788,0,0,0,5.95182,2.14944s.17544-.45558.47758-1.24974c2.51078,2.62724,7.29167,7.68527,7.73,8.56195.59692,1.19383-2.08921,4.02917-6.2676,1.94a54.84889,54.84889,0,0,1-6.13474-3.84938,47.65,47.65,0,0,0-3.83056-5.6201Z"/><path class="cls-3" d="M230.96721,89.22877c3.25166,1.46209,17.30835,7.11966,28.96877,1.47165l1.0373-.69154c-1.0373.69154,3.66568,30.74479,2.02416,37.90778-1.39539,6.089-7.211,21.55679-8.92384,26.05914-.30214.79416-.47758,1.24974-.47758,1.24974a24.35788,24.35788,0,0,1-5.95182-2.14944,5.91932,5.91932,0,0,1-.76348-.53669s5.52147-20.14589,6.11838-23.57818-6.71529-21.78741-6.71529-21.78741-2.98457,33.57652-2.38766,38.35183,2.23843,8.50606,1.49227,9.2522c-.64517.64517-6.30774,2.09188-7.8293.81231a1.01438,1.01438,0,0,1-.37827-.81231c0-.74614-5.223-15.22134-5.37225-26.86119C231.69108,118.75033,230.46356,98.20437,230.96721,89.22877Z"/><path class="cls-13" d="M245.38842,154.77785s.0677.08438.18229.23038a47.65,47.65,0,0,1,3.83056,5.6201,6.00307,6.00307,0,0,1,1.061,3.25247c-.44769,2.23843-7.163,1.34307-9.69989-1.34305s-1.64152-4.32764-2.83535-5.67069a1.90125,1.90125,0,0,1-.36787-1.2769C239.08068,156.86973,244.74325,155.423,245.38842,154.77785Z"/><path class="cls-1" d="M243.82978,154.28767c.74616-.74614-.89536-4.47687-1.49227-9.2522s2.38765-38.35183,2.38765-38.35183,7.31222,18.35516,6.7153,21.78742-6.11838,23.57817-6.11838,23.57817a5.91932,5.91932,0,0,0,.76348.53669l-2.0735,1.93213C243.89748,154.37205,243.82978,154.28767,243.82978,154.28767Z"/><path class="cls-1" d="M236.24844,40.35105a2.8034,2.8034,0,0,0,.4855.51088c.37978,1.11948.739,2.21354.82839,2.601.10788.46752-.30808.93423-.74954,1.317-.70191.44593-2.04216,1.34988-3.58,2.30817a4.77017,4.77017,0,0,0,.24951-3.90178c-.71646-1.77224-1.79939-3.56531-2.41517-5.3899C232.61069,38.15519,234.85549,38.51231,236.24844,40.35105Z"/><path class="cls-13" d="M227.67348,31.49949c-1.1756-1.1756-.96814-2.42035-.1383-3.94173s1.17559-3.11186,2.55865-3.9417a28.19749,28.19749,0,0,1,4.59757-1.82516c13.86892-4.978,10.20114,4.86789,10.20114,4.86789.03817-.02384.04236.01949.02211.111-.1658-.34935-.27319-.55916-.27319-.55916-1.08091.31253-1.75435-.58914-2.58419-1.14235s-1.45221-.13833-2.42035.69151-1.383.1383-2.00543-.06916a1.6198,1.6198,0,0,0-2.14372,1.52138,7.56447,7.56447,0,0,1-1.59052,4.49494c-1.10645,1.24473.2766,3.45764.2766,3.45764-1.52135.2766-.899,1.52135-.62238,2.14373s2.14376.55322,2.14376.55322.53731,1.52239,1.03871,3.00039a2.8034,2.8034,0,0,1-.4855-.51088c-1.39295-1.83874-3.63775-2.19586-5.18127-2.55464a6.98512,6.98512,0,0,1-.97334-.28063,2.49777,2.49777,0,0,1-1.10644-3.66511C229.81723,32.39846,228.8491,32.67508,227.67348,31.49949Z"/><path class="cls-15" d="M234.17385,35.16459s-1.383-2.21291-.2766-3.45764a7.56447,7.56447,0,0,0,1.59052-4.49494,1.6198,1.6198,0,0,1,2.14372-1.52138c.62238.20746,1.0373.899,2.00543.06916s1.59052-1.24475,2.42035-.69151,1.50328,1.45488,2.58419,1.14235c0,0,.10739.20981.27319.55916a39.46156,39.46156,0,0,1,1.87644,6.64841c1.0017,5.1578-2.19165,5.62713-1.64383,6.44887.462.693,1.64975,2.97144,2.912,3.6508a1.74118,1.74118,0,0,0,.36014.1525c1.39091.37937-2.76613,6.29291-9.97387,3.53071l-2.529-1.64385a6.43241,6.43241,0,0,1,.89627-.77731c.44146-.38278.85742-.84949.74954-1.317-.08941-.38744-.44861-1.4815-.82839-2.601-.5014-1.478-1.03871-3.00039-1.03871-3.00039s-1.86714.06916-2.14376-.55322S232.6525,35.44119,234.17385,35.16459Z"/><path class="cls-15" d="M226.19247,55.98353c.69987-2.95153,1.859-6.01907,3.48646-6.85009,1.16685-.59584,2.4122-1.33388,3.5539-2.04535,1.5378-.95829,2.87805-1.86224,3.58-2.30817a6.43241,6.43241,0,0,0-.89627.77731l2.529,1.64385c7.20774,2.7622,11.36478-3.15134,9.97387-3.53071a1.74118,1.74118,0,0,1-.36014-.1525c2.55644.66946,7.43552,1.117,9.76491,1.46642,2.76611.41491,3.31935,4.7024,5.60138,7.6068a5.77607,5.77607,0,0,1,1.44826,2.99934l-19.8429.73493-1.57544,20.1171c-.53022.04482-1.06606.07553-1.60561.07553a9.04272,9.04272,0,0,1-6.84612-2.83527c-.82984-.96814-.20746-9.12818-.20746-9.12818s-5.78866-1.07725-8.25593-1.89378a2.4518,2.4518,0,0,1-1.07971-.52657C225.25342,61.7544,225.49459,58.92665,226.19247,55.98353Z"/><path class="cls-14" d="M248.00443,77.62442a10.53288,10.53288,0,0,0,2.69694-.06914c2.0746-.20746.76071-.899.76071-.899-1.95233-1.30155-4.86714-.47915-8.00666-.21382l1.57544-20.1171,19.8429-.73493,3.924-.25281,8.13351,5.5131.30849,23.64418-17.756,3.36416-.11344-.03655-4.76281-1.53377a.37012.37012,0,0,0-.10275-.15852c-.285-.285-1.272-.40606-2.00543-.96813a20.03964,20.03964,0,0,1-2.525-2.41975.04773.04773,0,0,1,.06107-.07241c.947.63191,3.80081,2.45776,3.91608,1.59316C254.08988,83.22582,248.00443,77.62442,248.00443,77.62442Z"/><path class="cls-14" d="M234.79623,64.55454s-.62238,8.16.20746,9.12818a9.04272,9.04272,0,0,0,6.84612,2.83527c.53955,0,1.07539-.03071,1.60561-.07553,3.13952-.26533,6.05433-1.08773,8.00666.21382,0,0,1.31389.69154-.76071.899a10.53288,10.53288,0,0,1-2.69694.06914s6.08545,5.6014,5.94713,6.63867c-.11527.8646-2.96906-.96125-3.91608-1.59316a.04773.04773,0,0,0-.06107.07241,20.03964,20.03964,0,0,0,2.525,2.41975c.73346.56207,1.7204.6831,2.00543.96813a.37012.37012,0,0,1,.10275.15852c.18042.65741-3.43171.54012-5.42753-.29682-2.14372-.899-3.6651-4.21832-5.18645-4.35664s-5.32478.27662-8.09089-.69151c-1.775-.62123-3.88867-.99056-5.48825-2.12246a5.3174,5.3174,0,0,1-2.04941-2.7874c-.91153-2.78817-1.57325-10.18793-1.82472-13.37315C229.00757,63.47729,234.79623,64.55454,234.79623,64.55454Z"/><path class="cls-14" d="M230.41443,78.82131c1.59958,1.1319,3.71328,1.50123,5.48825,2.12246,2.76611.96813,6.56951.55321,8.09089.69151s3.04273,3.45764,5.18645,4.35664c1.99582.83694,5.60795.95423,5.42753.29682l4.76281,1.53377.04428,1.69619-1.0373.69154c-11.66042,5.648-25.71711-.00956-28.96877-1.47165-.45088-.20274-.6978-.32632-.6978-.32632Z"/><path class="cls-14" d="M246.08556,152.58592a24.35788,24.35788,0,0,0,5.95182,2.14944s.17544-.45558.47758-1.24973c2.51078,2.62723,7.29167,7.68526,7.73,8.56194.59691,1.19383-2.08921,4.02917-6.26761,1.94a54.84884,54.84884,0,0,1-6.13473-3.84938,47.64853,47.64853,0,0,0-3.83057-5.6201Z"/><path class="cls-14" d="M229.40857,88.73859c3.25166,1.46209,17.30835,7.11966,28.96877,1.47165l1.0373-.69154c-1.0373.69154,3.66568,30.74479,2.02416,37.90778-1.39539,6.089-7.211,21.55679-8.92384,26.05915-.30214.79415-.47758,1.24973-.47758,1.24973a24.35788,24.35788,0,0,1-5.95182-2.14944,5.91932,5.91932,0,0,1-.76348-.53669s5.52147-20.14589,6.11838-23.57817-6.7153-21.78742-6.7153-21.78742-2.98456,33.57652-2.38765,38.35183,2.23843,8.50606,1.49227,9.2522c-.64517.64517-6.30774,2.09188-7.8293.81231a1.01438,1.01438,0,0,1-.37827-.81231c0-.74614-5.223-15.22134-5.37225-26.86119C230.13244,118.26015,228.90492,97.71419,229.40857,88.73859Z"/><path class="cls-14" d="M243.82978,154.28767s.0677.08438.18228.23038a47.64853,47.64853,0,0,1,3.83057,5.6201,6.00307,6.00307,0,0,1,1.061,3.25247c-.4477,2.23843-7.163,1.34307-9.6999-1.34305s-1.64152-4.32764-2.83534-5.67069a1.90124,1.90124,0,0,1-.36787-1.2769C237.522,156.37955,243.18461,154.93284,243.82978,154.28767Z"/><path class="cls-14" d="M242.24851,32.17875c.1455.2425,2.17549.90269,1.88449,1.4362a1.94458,1.94458,0,0,1-1.81341.83837"/><path class="cls-14" d="M241.126,35.99148s1.30952,1.21251,2.328.582"/><path class="cls-14" d="M245.2252,39.33259s-.7934,1.45457-5.0513.52894"/><path class="cls-14" d="M276.93126,60.85072l-17.03555,2.39811s-14.35619-6.88709-14.50169-6.98409"/><path class="cls-14" d="M259.37036,87.82251s.52535-24.33117.52535-24.57368"/><path class="cls-14" d="M234.79623,64.55454s.289-3.90617-1.27513-4.90154"/><path class="cls-13" d="M254.5048,86.13022l4.86556,1.69229-.00761.87922-5.0223-2.07508S254.8517,86.44621,254.5048,86.13022Z"/><circle class="cls-13" cx="244.18" cy="30.35555" r="0.49151"/><circle class="cls-13" cx="238.88266" cy="31.66624" r="0.49151"/><path class="cls-3" d="M243.91108,233.95221l1.28618,4.86376a16.20327,16.20327,0,0,1,2.15538-.43894Z"/><path class="cls-12" d="M133.894,106.29106a9.85016,9.85016,0,0,0,2.999-2.59914c1.39951-1.79937,1.9993-2.79907,3.39886-2.79907,1.39951,0,2.19923-2.99895,2.59909-4.39851.39985-1.39951,5.39815-.19993,10.3965-1.19958,4.9983-.99965,2.799-.19993,5.39816.59979,2.59908.79972,3.19893-1.9993,5.798-1.79937,2.59914.19993,2.39921,1.79937,3.19893,4.39851.79972,2.59908,1.9993,8.59709,1.9993,8.59709a8.0231,8.0231,0,0,1,.79219.85247c.53215-3.23939,1.22452-10.02561.60737-12.64849-.79972-3.39886.79972-4.39851-2.19928-5.99794-2.99894-1.5995-2.39915-9.59679-8.99694-9.99665-6.59774-.39986-13.39546-.79972-16.19453,2.59914-2.799,3.39886-10.39645,3.99865-9.79666,7.19758.59979,3.19887-1.19958,2.59908-1.99929,6.99759-.79978,4.39851-1.99936,6.79772-.39986,8.99694,1.02286,1.40646,3.5131,5.2592,5.1788,7.859.13505.08057.21935.13827.21935.13827Z"/><path class="cls-3" d="M163.50113,139.06722c.09683-.37963.19252-.77392.284-1.16326-.23579.15315-.46112.30665-.715.459-6.9976,4.19857-10.59639-1.59944-13.59539-3.39886a11.54778,11.54778,0,0,1-2.59155-2.58139,69.03247,69.03247,0,0,0-.53089,8.40739,41.458,41.458,0,0,1,4.05043,5.24494C155.54188,143.30011,160.05819,140.898,163.50113,139.06722Z"/><path class="cls-3" d="M168.95888,136.16574c.97781-.51973,1.50869-.80179,1.50869-.80179l5.81083.0977c-.75259-1.89333-2.034-4.42931-3.81147-5.49585a2.69028,2.69028,0,0,0-2.43375-.03575,8.41908,8.41908,0,0,1-1.34951,3.31875Z"/><path class="cls-3" d="M168.68367,133.2488a16.15747,16.15747,0,0,1-4.89859,4.65516c-.09143.38934-.18712.78363-.284,1.16326,2.38674-1.26906,4.26-2.26491,5.45775-2.90148Z"/><path class="cls-3" d="M170.474,108.57743a8.02437,8.02437,0,0,0-.79219-.85247s-1.19958-5.998-1.9993-8.59709c-.79972-2.59914-.59979-4.19858-3.19893-4.39851-2.59908-.19992-3.19893,2.59909-5.798,1.79937-2.59914-.79972-.39986-1.59944-5.39816-.59979-4.99835.99965-9.99665-.19993-10.3965,1.19958-.39986,1.39956-1.19958,4.39851-2.59909,4.39851-1.39956,0-1.99935.9997-3.39886,2.79907a9.85016,9.85016,0,0,1-2.999,2.59914l2.999,6.79766s-.0843-.0577-.21935-.13827c-.62818-.37468-2.41519-1.272-2.57972.53813-.19993,2.19928,2.999,10.39651,5.19823,9.99665a84.14752,84.14752,0,0,0,6.00553,9.21457,11.54778,11.54778,0,0,0,2.59155,2.58139c2.999,1.79942,6.59779,7.59743,13.59538,3.39886.25389-.15235.47922-.30585.715-.459a16.15734,16.15734,0,0,0,4.89859-4.65515,8.41919,8.41919,0,0,0,1.34951-3.31875,3.52445,3.52445,0,0,0,.03454-.36412l.39986-8.99694a7.80341,7.80341,0,0,0,3.99865-6.3978C173.39561,106.61519,171.42127,109.73282,170.474,108.57743Z"/><path class="cls-3" d="M146.35224,140.7901c-1.1617-1.218-2.24646-2.02729-3.07543-2.02729-3.19893,0-6.19793,5.59815-13.39545,8.59709-7.19758,2.999-21.39275,7.9973-20.3931,16.39445a38.07612,38.07612,0,0,0,.62346,3.761c11.80113-6.30844,25.67351-13.69974,37.14621-19.80659,1.06918-.5691,2.121-1.12889,3.14474-1.67374A41.458,41.458,0,0,0,146.35224,140.7901Z"/><path class="cls-3" d="M90.67732,178.50573a2.65957,2.65957,0,0,1,.5664-1.34991c1.825-2.67787,7.07557-6.50711.64082-5.49108-7.64577,1.20728-6.43855,12.87709-6.0361,17.706.17752,2.13066-.1262,9.01079,2.012,13.27954,2.70787,5.40585,8.00092,8.26136,8.4506,10.0602.6364,2.54564,5.53924,3.82274,7.7668,2.65839a1.87344,1.87344,0,0,0,1.08619-1.45117C105.56641,210.69841,90.67732,178.50573,90.67732,178.50573Z"/><path class="cls-3" d="M245.11692,217.84923c.813,0,9.959-4.47138,8.33308-8.12982-1.086-2.44346-9.37313,1.55766-14.76088,4.48586l1.39611,5.27948A47.55156,47.55156,0,0,1,245.11692,217.84923Z"/><path class="cls-3" d="M251.41754,238.5803c-1.36249-1.73409-5.51584-5.73055-8.554-8.58956l1.04758,3.96147,3.44156,4.42482a16.20327,16.20327,0,0,0-2.15538.43894c-2.07567.56732-4.88382,1.78793-4.755,4.23576,0,0-8.12987,1.0162-7.52014,5.69084,0,0-6.7071,3.8617-5.28437,5.89415a2.05675,2.05675,0,0,0,.1824.20568c1.636,1.77155,6.64405,1.11257,9.77666-1.6284l2.43893-2.03245s5.69089,1.21946,5.69089-4.06491c0,0,5.69089,1.82919,6.70709-1.01626C253.45,243.25493,253.6532,241.42574,251.41754,238.5803Z"/><path class="cls-12" d="M243.91108,233.95221l-1.04758-3.96147-2.77827-10.506-1.39611-5.27948-20.63768-78.04154-41.773-.70208-5.81083-.0977s-.53088.28206-1.50869.80179c-1.19774.63657-3.071,1.63242-5.45775,2.90148-3.44294,1.83074-7.95925,4.23289-13.09846,6.96782-1.02378.54485-2.07556,1.10464-3.14474,1.67374-11.4727,6.10685-25.34508,13.49815-37.14621,19.80659-8.86551,4.73923-16.556,8.864-21.1727,11.369a2.65954,2.65954,0,0,0-.5664,1.34991s14.88909,32.19268,14.4867,35.41195a1.87344,1.87344,0,0,1-1.08619,1.45117c10.24542,21.21115,21.20661,44.021,21.20661,44.021s.70691.91994.74357.9677c1.41284,1.83867,28.63228,37.26114,28.63228,37.26114l.592-.34917,13.05565-7.69944,37.65439-22.20649,24.16251-14.24971a2.05675,2.05675,0,0,1-.1824-.20568c-1.42273-2.03245,5.28437-5.89415,5.28437-5.89415-.60973-4.67464,7.52014-5.69084,7.52014-5.69084-.12884-2.44783,2.67931-3.66844,4.755-4.23576Z"/><path class="cls-11" d="M121.41861,259.20519c-2.77223,18.75528-7.35659,51.46177-6.34574,56.17911,1.42951,6.67112-1.4295,45.26832-1.4295,45.26832s.69478.18516,1.78672.45837c3.17359.79391,9.70357,2.33,12.3523,2.23807.577-.02006.97632-.11453,1.10924-.31389.953-1.42956,8.10062-25.255,12.38919-36.69118,2.27181-6.05811,6.14777-18.80136,9.3621-30.22683l-.592.34917S122.83145,261.04386,121.41861,259.20519Z"/><path class="cls-11" d="M201.353,266.21123l-37.6544,22.20649c6.74434,11.0902,18.45329,30.64766,20.468,36.02024,2.859,7.62416,14.77174,42.88578,19.53684,44.31529s8.10062-.47652,8.57714-1.906a.63891.63891,0,0,0,.00856-.09993C212.442,363.82351,204.66412,295.22239,201.353,266.21123Z"/><path class="cls-1" d="M244.20734,232.68684l1.28618,4.86377a16.20327,16.20327,0,0,1,2.15538-.43894Z"/><path class="cls-16" d="M135.7757,104.7086a9.85,9.85,0,0,0,2.999-2.59914c1.39951-1.79936,1.9993-2.79907,3.39886-2.79907,1.39951,0,2.19923-2.99894,2.59909-4.39851.39986-1.3995,5.39815-.19993,10.39651-1.19957,4.99829-.99965,2.799-.19993,5.39815.59978s3.19893-1.99929,5.798-1.79936c2.59914.19993,2.39921,1.79936,3.19893,4.39851.79971,2.59908,1.99929,8.59708,1.99929,8.59708a8.02437,8.02437,0,0,1,.79219.85247c.53215-3.23938,1.22452-10.02561.60738-12.64848-.79972-3.39886.79971-4.39851-2.19929-5.998-2.99894-1.59949-2.39915-9.59679-8.99694-9.99665-6.59773-.39986-13.39545-.79972-16.19452,2.59914s-10.39646,3.99865-9.79667,7.19758c.59979,3.19888-1.19957,2.59909-1.99929,6.99759-.79978,4.39851-1.99935,6.79772-.39986,8.99695,1.02286,1.40646,3.5131,5.2592,5.1788,7.859.13505.08057.21935.13827.21935.13827Z"/><path class="cls-16" d="M163.79739,137.80186c.09683-.37963.19252-.77392.284-1.16326-.23579.15315-.46112.30665-.715.459-6.9976,4.19858-10.59639-1.59943-13.59539-3.39886a11.54769,11.54769,0,0,1-2.59155-2.58138,69.0323,69.0323,0,0,0-.53089,8.40738,41.45815,41.45815,0,0,1,4.05043,5.24495C155.83814,142.03474,160.35445,139.6326,163.79739,137.80186Z"/><path class="cls-16" d="M169.25514,134.90038c.97781-.51974,1.50869-.80179,1.50869-.80179l5.81083.0977c-.75259-1.89333-2.034-4.42931-3.81147-5.49585a2.69025,2.69025,0,0,0-2.43375-.03575,8.41908,8.41908,0,0,1-1.34951,3.31875Z"/><path class="cls-16" d="M168.97993,131.98344a16.15747,16.15747,0,0,1-4.89859,4.65516c-.09143.38934-.18712.78363-.284,1.16326,2.38674-1.26906,4.26-2.26491,5.45775-2.90148Z"/><path class="cls-16" d="M172.35574,106.36079a8.02437,8.02437,0,0,0-.79219-.85247s-1.19958-5.998-1.99929-8.59708c-.79972-2.59915-.59979-4.19858-3.19893-4.39851-2.59909-.19993-3.19893,2.59908-5.798,1.79936s-.39986-1.59943-5.39815-.59978c-4.99836.99964-9.99665-.19993-10.39651,1.19957-.39986,1.39957-1.19958,4.39851-2.59909,4.39851-1.39956,0-1.99935.99971-3.39886,2.79907a9.85,9.85,0,0,1-2.999,2.59914l2.999,6.79767s-.0843-.0577-.21935-.13827c-.62818-.37469-2.41519-1.272-2.57972.53812-.19993,2.19929,2.999,10.39651,5.19823,9.99665a84.14824,84.14824,0,0,0,6.00553,9.21458,11.54769,11.54769,0,0,0,2.59155,2.58138c2.999,1.79943,6.59779,7.59744,13.59539,3.39886.25389-.15234.47922-.30584.715-.459a16.15747,16.15747,0,0,0,4.89859-4.65516,8.41908,8.41908,0,0,0,1.34951-3.31875,3.5219,3.5219,0,0,0,.03453-.36411l.39986-8.99695a7.80339,7.80339,0,0,0,3.99865-6.3978C175.27733,104.39856,173.303,107.51618,172.35574,106.36079Z"/><path class="cls-16" d="M146.6485,139.52473c-1.1617-1.218-2.24646-2.02728-3.07543-2.02728-3.19893,0-6.19793,5.59814-13.39545,8.59709-7.19758,2.999-21.39275,7.99729-20.3931,16.39445a38.07662,38.07662,0,0,0,.62346,3.761c11.80113-6.30844,25.67351-13.69974,37.14621-19.80659,1.06918-.5691,2.121-1.12889,3.14474-1.67374A41.45815,41.45815,0,0,0,146.6485,139.52473Z"/><path class="cls-16" d="M88.66888,178.96889a2.65957,2.65957,0,0,1,.5664-1.34991c1.825-2.67787,7.07557-6.5071.64082-5.49108-7.64577,1.20728-6.43855,12.8771-6.0361,17.706.17751,2.13066-.1262,9.01079,2.012,13.27954,2.70787,5.40585,8.00092,8.26136,8.4506,10.06021.6364,2.54564,5.53924,3.82274,7.7668,2.65839a1.87346,1.87346,0,0,0,1.08619-1.45117C103.558,211.16157,88.66888,178.96889,88.66888,178.96889Z"/><path class="cls-16" d="M245.41318,216.58386c.813,0,9.959-4.47137,8.33308-8.12981-1.086-2.44346-9.37313,1.55766-14.76088,4.48586l1.39611,5.27948A47.55016,47.55016,0,0,1,245.41318,216.58386Z"/><path class="cls-16" d="M251.7138,237.31493c-1.36249-1.73408-5.51584-5.73055-8.554-8.58956l1.04758,3.96147,3.44156,4.42483a16.20327,16.20327,0,0,0-2.15538.43894c-2.07567.56732-4.88382,1.78793-4.755,4.23576,0,0-8.12987,1.01619-7.52014,5.69083,0,0-6.7071,3.86171-5.28437,5.89416a2.059,2.059,0,0,0,.1824.20568c1.636,1.77155,6.644,1.11257,9.77666-1.6284l2.43893-2.03246s5.69089,1.21946,5.69089-4.06491c0,0,5.69089,1.8292,6.70709-1.01625C253.74626,241.98957,253.94946,240.16038,251.7138,237.31493Z"/><path class="cls-16" d="M244.20734,232.68684l-1.04758-3.96147-2.77827-10.506-1.39611-5.27948L218.3477,134.89837l-41.773-.70208-5.81083-.0977s-.53088.282-1.50869.80179c-1.19774.63657-3.071,1.63242-5.45775,2.90148-3.44294,1.83074-7.95925,4.23288-13.09846,6.96782-1.02378.54485-2.07556,1.10464-3.14474,1.67374-11.4727,6.10685-25.34508,13.49815-37.14621,19.80659-8.86551,4.73923-16.556,8.864-21.1727,11.369a2.65957,2.65957,0,0,0-.5664,1.34991s14.88909,32.19268,14.4867,35.412a1.87346,1.87346,0,0,1-1.08619,1.45117c10.24542,21.21115,21.20661,44.021,21.20661,44.021s.70691.91994.74357.96769c1.41284,1.83868,28.63228,37.26115,28.63228,37.26115l.592-.34918,13.05565-7.69944,37.65439-22.20649,24.16251-14.2497a2.059,2.059,0,0,1-.1824-.20568c-1.42273-2.03245,5.28437-5.89416,5.28437-5.89416-.60973-4.67464,7.52014-5.69083,7.52014-5.69083-.12884-2.44783,2.67931-3.66844,4.755-4.23576Z"/><path class="cls-16" d="M124.01957,260.8207c-2.77223,18.75528-7.35659,51.46178-6.34574,56.17911,1.42951,6.67112-1.4295,45.26833-1.4295,45.26833s.69478.18516,1.78672.45836c3.17359.79391,9.70357,2.33,12.3523,2.23807.577-.02006.97632-.11453,1.10924-.31389.953-1.42956,8.10062-25.255,12.3892-36.69118,2.2718-6.05811,6.14776-18.80136,9.36209-30.22683l-.592.34918S125.43241,262.65938,124.01957,260.8207Z"/><path class="cls-16" d="M203.95392,267.82674l-37.65439,22.20649c6.74433,11.0902,18.45328,30.64767,20.468,36.02025,2.859,7.62416,14.77175,42.88578,19.53684,44.31528s8.10062-.47652,8.57714-1.906a.63766.63766,0,0,0,.00856-.09993C215.043,365.439,207.26508,296.8379,203.95392,267.82674Z"/><path class="cls-16" d="M159.97975,122.93428a7.40889,7.40889,0,0,1-7.72876,4.0075s2.29,3.435,7.72876.28626"/><polyline class="cls-16" points="218.348 134.898 107.023 195.069 88.669 178.969"/><line class="cls-16" x1="153.24388" y1="297.73267" x2="107.02343" y2="195.06937"/><path class="cls-16" d="M156.2585,116.35052s2.00375,5.15251-4.00751,3.14876"/><circle class="cls-13" cx="147.15211" cy="109.3296" r="1.00447"/><circle class="cls-13" cx="162.12787" cy="107.5946" r="1.00447"/><polygon class="cls-13" points="124.02 260.821 122.602 269.547 153.182 298.95 152.652 298.082 124.02 260.821"/><polygon class="cls-13" points="204.595 270.387 166.841 290.606 166.3 290.033 203.954 267.827 204.595 270.387"/></g></svg>