<svg id="Layer_1" data-name="Layer 1" xmlns="http://www.w3.org/2000/svg" xmlns:xlink="http://www.w3.org/1999/xlink" viewBox="0 0 1140 354"><defs><style>.cls-1,.cls-10,.cls-11,.cls-3,.cls-5,.cls-6,.cls-9{fill:none;}.cls-2{clip-path:url(#clip-path);}.cls-3{stroke:#91bcd6;}.cls-11,.cls-3,.cls-5,.cls-6,.cls-9{stroke-miterlimit:10;}.cls-4{fill:#1d5493;}.cls-5,.cls-6{stroke:#468fba;}.cls-6{stroke-width:1.76767px;}.cls-7{fill:#4890bc;}.cls-8{fill:#6ca5c8;}.cls-10,.cls-11,.cls-9{stroke:#1d5493;}.cls-10{stroke-linecap:round;stroke-linejoin:round;}.cls-11{stroke-width:1.24037px;}</style><clipPath id="clip-path"><rect class="cls-1" width="1140" height="354"/></clipPath></defs><g class="cls-2"><path class="cls-3" d="M713.20117,338.17792a30.24976,30.24976,0,0,0,23.96466,0Z"/><path class="cls-3" d="M1012.63184,338.17792l20.78839,20.78839a2.443,2.443,0,0,0,3.455,0l20.7884-20.78839Z"/><path class="cls-3" d="M362.0575,338.17792l.87908,5.19262a1.03634,1.03634,0,0,0,1.6825.62543l7.03064-5.81805Z"/><rect class="cls-4" y="-13.5" width="1140" height="381"/><path class="cls-5" d="M936.4752-13.5,934.40776,5.04413A2.443,2.443,0,0,0,936.565,7.74286l49.44941,5.51306a2.443,2.443,0,0,0,2.69873-2.15735L991.45573-13.5Z"/><rect class="cls-5" x="395.57593" y="298.81543" width="34.60656" height="34.60656" rx="1.54728" transform="translate(-106.81413 298.25486) rotate(-35.47058)"/><rect class="cls-6" x="942.78821" y="323.95028" width="61.17306" height="61.17306" rx="2.73508" transform="translate(-25.08723 630.63178) rotate(-35.47058)"/><circle class="cls-5" cx="252.25608" cy="305.25558" r="43.97198"/><circle class="cls-5" cx="245.11202" cy="69.87896" r="43.97198"/><circle class="cls-5" cx="787.98793" cy="346.0383" r="43.97198"/><circle class="cls-5" cx="56.85428" cy="228.06218" r="30.25412"/><circle class="cls-5" cx="1093.31731" cy="147.69025" r="30.25412"/><path class="cls-5" d="M403.7149-13.5H360.14563a30.25027,30.25027,0,1,0,43.56927,0Z"/><rect class="cls-5" x="864.43361" y="189.08427" width="37.93064" height="37.93064" rx="1.6959" transform="translate(468.96852 -599.36959) rotate(49.57731)"/><rect class="cls-5" x="878.34895" y="76.05533" width="60.25069" height="60.25069" rx="2.69384" transform="translate(829.78318 -805.08635) rotate(78.39818)"/><path class="cls-5" d="M522.45685-13.5l14.824,17.40411a1.6959,1.6959,0,0,0,2.39069.19141L560.32959-13.5Z"/><path class="cls-5" d="M62.52234-13.5l56.2193,23.75824a1.03629,1.03629,0,0,0,1.43176-1.08252L117.3526-13.5Z"/><path class="cls-5" d="M790.09164-12.922l-5.96417,4.50922a1.03633,1.03633,0,0,0,.22161,1.78125l60.24372,25.459a1.03633,1.03633,0,0,0,1.43182-1.08252l-3.81488-30.667Z"/><polygon class="cls-7" points="1094.754 60.962 1088.445 55.579 1045.899 105.439 1046.582 106.022 1057.871 115.655 1058.517 116.206 1101.063 66.346 1094.754 60.962"/><polygon class="cls-4" points="1045.285 107.542 1045.856 108.029 1045.905 107.972 1056.052 116.631 1056.003 116.688 1056.574 117.175 1057.871 115.655 1046.582 106.022 1045.285 107.542"/><path class="cls-8" d="M1043.26381,111.06689a1.3571,1.3571,0,0,0,.15145,1.913l8.08393,6.8981a1.35674,1.35674,0,0,0,1.91183-.15239l2.5922-3.03782-10.14721-8.65872Z"/><rect class="cls-9" x="1050.91643" y="105.66016" width="0.07515" height="13.33939" transform="translate(283.3214 838.87131) rotate(-49.52553)"/><path class="cls-7" d="M1105.50887,50.35905l1.65323-1.93743a1.19859,1.19859,0,0,0-.13221-1.69055l-.28581-.24388a1.19989,1.19989,0,0,0-1.69143.13441l-1.65323,1.93743,1.12127.95679Z"/><path class="cls-8" d="M1106.38386,51.10569l-.875-.74664-.98818-.84323-1.12127-.95679-.74088-.6322c-5.10886,5.9871-14.21345,7.65174-14.21345,7.65174l6.30864,5.38323,6.30967,5.38411S1101.275,57.09279,1106.38386,51.10569Z"/><polygon class="cls-9" points="1096.329 62.062 1090.021 56.678 1047.474 106.539 1048.158 107.122 1059.446 116.755 1060.093 117.306 1102.639 67.446 1096.329 62.062"/><polygon class="cls-9" points="1046.861 108.642 1047.432 109.129 1047.48 109.072 1057.628 117.73 1057.579 117.787 1058.149 118.274 1059.446 116.755 1048.158 107.122 1046.861 108.642"/><path class="cls-9" d="M1044.83944,112.16659a1.35711,1.35711,0,0,0,.15145,1.913l8.08393,6.8981a1.35673,1.35673,0,0,0,1.91183-.15239l2.5922-3.03781-10.14721-8.65872Z"/><rect class="cls-9" x="1052.49206" y="106.75986" width="0.07515" height="13.33939" transform="translate(283.03773 840.45576) rotate(-49.52553)"/><path class="cls-9" d="M1107.0845,51.45875l1.65323-1.93743a1.19857,1.19857,0,0,0-.13221-1.69054l-.2858-.24388a1.19989,1.19989,0,0,0-1.69144.13441l-1.65323,1.93742,1.12127.9568Z"/><path class="cls-9" d="M1107.9595,52.20539l-.875-.74664-.98818-.84322-1.12127-.9568-.74088-.6322c-5.10885,5.9871-14.21345,7.65175-14.21345,7.65175l6.30864,5.38322,6.30967,5.38411S1102.85064,58.19249,1107.9595,52.20539Z"/><path class="cls-4" d="M1010.75148,145.51569l-1.50626-.03226c-.26639-.0057-.48505.12262-.48855.28616l-.002.09315c-.0035.16355.20946.30115.47585.30686l1.50627.03225.00735-.34306Z"/><path class="cls-8" d="M1010.75766,145.22721l-.00618.28848-.00734.3431-.00735.34306-.00618.28852a15.53111,15.53111,0,0,1,5.5724,1.31534l.07824-3.6541A15.532,15.532,0,0,1,1010.75766,145.22721Z"/><path class="cls-4" d="M1105.55818,149.85625a1.23261,1.23261,0,0,1-.01552.1497l2.34048.05012c.44246.00948.80411-.16124.80878-.37937l.07368-3.44078c.0047-.21927-.34937-.403-.79182-.41251l-2.34049-.05011a1.2341,1.2341,0,0,1,.0091.15027Z"/><path class="cls-7" d="M1066.98954,145.3652l28.96759.62028c.83268.01783,1.49845.44919,1.48748.96152s-.69457.91363-1.52726.89579l-28.96758-.62027-.081,3.78392,35.434.75875c1.69211.03623,3.093-.74048,3.23987-1.75924a1.23261,1.23261,0,0,0,.01552-.1497l.08421-3.93268a1.2341,1.2341,0,0,0-.0091-.15027c-.103-1.02508-1.46946-1.86-3.16159-1.89627l-35.434-.75874Z"/><polygon class="cls-7" points="1018.222 143.256 1018.208 143.901 1018.118 148.134 1018.104 148.778 1064.591 149.773 1064.709 144.252 1018.222 143.256"/><path class="cls-8" d="M1064.70917,144.25154l-.11824,5.52187-.02534,1.18371,2.30316.04932.081-3.78392-.15109-.00324c-.83261-.01783-1.49964-.448-1.48866-.96037s.69582-.91477,1.52843-.89694l.15109.00323.04812-2.24691-2.30317-.04932Z"/><path class="cls-4" d="M1065.31,146.25891c-.011.51234.65605.94254,1.48866.96037l.15109.00324,28.96758.62027c.83269.01784,1.51629-.38345,1.52726-.89579s-.6548-.94369-1.48748-.96152l-28.96759-.62028-.15109-.00323C1066.00584,145.34414,1065.321,145.74657,1065.31,146.25891Z"/><polygon class="cls-8" points="1017.099 143.878 1017.054 145.994 1017.008 148.11 1018.118 148.134 1018.208 143.901 1017.099 143.878"/><path class="cls-4" d="M1017.04766,143.87642l-.66022-.01414-.00617.28932-.07826,3.6541-.0062.28923.66.01416.05109.02609.00053-.025.04533-2.11628.0453-2.11637.00054-.025Z"/><path class="cls-10" d="M1011.00755,145.90188l-1.50626-.03225c-.26639-.00571-.48505.12261-.48855.28616l-.002.09315c-.0035.16354.20946.30115.47585.30685l1.50627.03226.00734-.34307Z"/><path class="cls-10" d="M1011.01373,145.6134l-.00618.28848-.00735.3431-.00734.34307-.00618.28852a15.53114,15.53114,0,0,1,5.5724,1.31533l.07824-3.6541A15.53178,15.53178,0,0,1,1011.01373,145.6134Z"/><path class="cls-10" d="M1105.81425,150.24244a1.23477,1.23477,0,0,1-.01552.14971l2.34048.05012c.44246.00947.80411-.16125.80878-.37938l.07368-3.44078c.00469-.21926-.34937-.403-.79182-.4125l-2.34049-.05012a1.23439,1.23439,0,0,1,.0091.15028Z"/><path class="cls-10" d="M1067.24561,145.7514l28.96758.62027c.83268.01783,1.49846.44919,1.48749.96153s-.69458.91362-1.52726.89579l-28.96758-.62028-.081,3.78393,35.434.75874c1.6921.03623,3.093-.74048,3.23987-1.75923a1.23477,1.23477,0,0,0,.01552-.14971l.08421-3.93267a1.23439,1.23439,0,0,0-.0091-.15028c-.103-1.02507-1.46947-1.86-3.16159-1.89626l-35.43405-.75875Z"/><polygon class="cls-10" points="1018.478 143.642 1018.465 144.287 1018.374 148.52 1018.36 149.164 1064.847 150.16 1064.965 144.638 1018.478 143.642"/><path class="cls-10" d="M1064.96524,144.63774l-.11824,5.52187-.02535,1.18371,2.30317.04932.081-3.78393-.15109-.00323c-.83262-.01783-1.49964-.448-1.48867-.96037s.69582-.91478,1.52844-.89695l.15109.00324.04811-2.24692-2.30316-.04931Z"/><path class="cls-10" d="M1065.56608,146.64511c-.011.51233.65605.94254,1.48867.96037l.15109.00323,28.96758.62028c.83268.01783,1.51629-.38345,1.52726-.89579s-.65481-.9437-1.48749-.96153l-28.96758-.62027-.15109-.00324C1066.2619,145.73033,1065.57705,146.13277,1065.56608,146.64511Z"/><polygon class="cls-10" points="1017.355 144.264 1017.31 146.38 1017.265 148.496 1018.374 148.52 1018.465 144.287 1017.355 144.264"/><path class="cls-10" d="M1017.30373,144.26261l-.66022-.01414-.00618.28932-.07825,3.65411-.0062.28923.66005.01416.05109.02608.00052-.025.04533-2.11629.04531-2.11637.00053-.025Z"/><path class="cls-7" d="M970.19747,37.7759h88.15084a8.00682,8.00682,0,0,1,8.00682,8.00682V81.15017a8.0068,8.0068,0,0,1-8.0068,8.0068H970.19749a8.0068,8.0068,0,0,1-8.0068-8.0068V45.78268a8.00678,8.00678,0,0,1,8.00678-8.00678Z" transform="translate(539.85165 962.18886) rotate(-65.75166)"/><path class="cls-8" d="M972.26442,106.55479l35.55154,16.01356a8.71323,8.71323,0,0,0,11.52293-4.36605l38.98423-86.54852a8.71322,8.71322,0,0,0-4.366-11.52293L1018.40558,4.1173a8.71324,8.71324,0,0,0-11.52293,4.366L967.89842,95.03186A8.71322,8.71322,0,0,0,972.26442,106.55479Zm-.679-13.576,36.20288-80.37363A8.00683,8.00683,0,0,1,1018.377,8.593l32.24713,14.52515a8.00682,8.00682,0,0,1,4.01205,10.58874l-36.20287,80.37363a8.00679,8.00679,0,0,1-10.58874,4.01205l-32.24714-14.52515A8.00677,8.00677,0,0,1,971.58537,92.97874Z"/><path class="cls-9" d="M969.03534,37.65227h88.15084a8.00682,8.00682,0,0,1,8.00682,8.00682V81.02654a8.0068,8.0068,0,0,1-8.0068,8.0068H969.03536a8.0068,8.0068,0,0,1-8.0068-8.0068V45.65905A8.00678,8.00678,0,0,1,969.03534,37.65227Z" transform="translate(539.27952 961.0564) rotate(-65.75166)"/><path class="cls-9" d="M971.66917,107.56161l35.55154,16.01355a8.71323,8.71323,0,0,0,11.52293-4.366l38.98423-86.54852a8.71322,8.71322,0,0,0-4.366-11.52293L1017.81033,5.12412a8.71322,8.71322,0,0,0-11.52293,4.366L967.30317,96.03868A8.71321,8.71321,0,0,0,971.66917,107.56161Z"/><rect class="cls-9" x="1031.52214" y="19.68841" width="10.3986" height="2.3108" rx="1.1554" transform="translate(1988.40177 432.58448) rotate(-157.75628)"/><circle class="cls-9" cx="1028.91441" cy="17.84227" r="1.35071"/><path class="cls-9" d="M1005.01161,60.09724c9.476,4.41572,19.5706,8.08445,28.75,12.97428"/><path class="cls-9" d="M993.80817,55.04136l9.32972,4.21031"/><path class="cls-9" d="M995.49884,82.37181c9.28832,4.3825,18.64709,7.99942,27.6687,12.48632"/><path class="cls-9" d="M983.21413,76.828l8.72883,3.93914"/><path class="cls-9" d="M1007.35149,96.5765l12.2847,5.54384"/><path class="cls-9" d="M979.68279,84.09017c8.07627,2.9442,15.17569,7.14153,23.13761,10.44154"/><path class="cls-9" d="M995.54067,100.10234l19.1315,8.63366,1.43268.64654"/><path class="cls-9" d="M976.15144,91.35238,991.35175,98.212"/><circle class="cls-7" cx="1021.87329" cy="43.02705" r="16.86896"/><circle class="cls-9" cx="1021.52055" cy="44.31312" r="16.86896"/><path class="cls-8" d="M1013.27863,52.40058a2.62008,2.62008,0,0,1-1.03586-1.718l-1.76762-11.69868a2.621,2.621,0,0,1,5.18323-.78316l1.3227,8.75572,15.18811-4.31666a2.6208,2.6208,0,1,1,1.43262,5.042l-18.05129,5.1305a2.622,2.622,0,0,1-2.13491-.31715C1013.36868,52.465,1013.32294,52.43326,1013.27863,52.40058Z"/><path class="cls-9" d="M1013.48509,51.47806a2.62012,2.62012,0,0,1-1.03585-1.718l-1.76762-11.69867a2.621,2.621,0,1,1,5.18322-.78317l1.32271,8.75572,15.1881-4.31666a2.6208,2.6208,0,1,1,1.43263,5.042L1015.757,51.88981a2.62206,2.62206,0,0,1-2.13491-.31715C1013.57515,51.54245,1013.52941,51.51074,1013.48509,51.47806Z"/><rect class="cls-8" x="56.91375" y="2.85224" width="87.28977" height="115.2225" rx="9.02709" transform="translate(59.88368 170.52447) rotate(-100.73481)"/><rect class="cls-9" x="57.57245" y="0.52913" width="87.28977" height="115.2225" rx="9.02709" transform="translate(62.94753 168.41582) rotate(-100.73481)"/><rect class="cls-7" x="64.85443" y="10.72739" width="73.77832" height="97.38738" transform="translate(62.31351 170.45211) rotate(-100.73481)"/><rect class="cls-9" x="63.39116" y="8.80656" width="73.77832" height="97.38738" transform="translate(62.4649 166.73584) rotate(-100.73481)"/><path class="cls-4" d="M134.10754,19.64678,56.0986,34.43581a1.92041,1.92041,0,0,0-1.5291,2.2445L63.231,82.368a1.92045,1.92045,0,0,0,2.24455,1.52913l78.0089-14.789a1.92041,1.92041,0,0,0,1.5291-2.2445L136.352,21.17587A1.92039,1.92039,0,0,0,134.10754,19.64678ZM111.00809,51.40706l-8.82748,7.60217-8.82746,7.60215a1.99848,1.99848,0,0,1-3.26764-1.14208L87.91558,54.02339,85.74566,42.57751a1.99847,1.99847,0,0,1,2.62287-2.2588l10.99741,3.84374,10.99741,3.84374A1.99847,1.99847,0,0,1,111.00809,51.40706Z"/><line class="cls-9" x1="66.27144" y1="91.80859" x2="144.88539" y2="76.90486"/><circle class="cls-7" cx="91.02543" cy="86.95216" r="2.41007"/><circle class="cls-7" cx="92.46916" cy="86.67846" r="2.41007"/><circle class="cls-9" cx="91.72206" cy="86.82009" r="2.41007"/><path class="cls-9" d="M79.48442,199.13355q.226-.11225.45257-.227l.00153-.00222-.45526.22622Z"/><path class="cls-9" d="M78.91274,199.414q.21995-.10668.443-.21661l.12863-.06388-.00116-.003Z"/><path class="cls-7" d="M73.67489,200.29142c-12.196,3.33621-30.77279,15.00147-30.77279,15.00147l-.44385-1.454L29.69578,172.02866c.53993-.63633,1.08772-1.2418,1.64063-1.8242l-3.60123,1.3957,12.40516,47.069L78.91274,199.414A22.036,22.036,0,0,0,73.67489,200.29142Z"/><path class="cls-7" d="M111.60913,181.759s-22.81695,3.82548-31.67061,17.14536l34.7111-17.24789-19.51588-44.0059-2.1168,1.34633,17.57049,40.41218Z"/><path class="cls-8" d="M110.58743,179.40905,93.01694,138.99687l-.17082-.39285c-10.70324,1.81741-28.67452,18.187-29.22,19.08615l15.85716,41.44038.45526-.22622c8.85366-13.31988,31.67061-17.14536,31.67061-17.14536Z"/><path class="cls-8" d="M63.6261,157.69017a40.17256,40.17256,0,0,0-32.28969,12.51429c-.55291.5824-1.1007,1.18787-1.64063,1.8242l12.76247,41.81021.44385,1.454s18.57675-11.66526,30.77279-15.00147a22.036,22.036,0,0,1,5.23785-.87738l.57052-.28349Z"/><path class="cls-9" d="M79.007,198.47747q.226-.11225.45256-.227l.00154-.00222-.45526.22621Z"/><path class="cls-9" d="M78.43533,198.758q.21994-.10668.44305-.2166l.12863-.06388-.00116-.003Z"/><path class="cls-9" d="M73.19747,199.63533c-12.196,3.33621-30.77278,15.00148-30.77278,15.00148l-.44385-1.454L29.21837,171.37257c.53993-.63633,1.08772-1.24179,1.64063-1.82419l-3.60124,1.3957,12.40517,47.069L78.43533,198.758A22.03669,22.03669,0,0,0,73.19747,199.63533Z"/><path class="cls-9" d="M111.13172,181.10289s-22.817,3.82548-31.67061,17.14536l34.7111-17.24789-19.51589-44.0059-2.1168,1.34633L110.11,178.753Z"/><path class="cls-9" d="M110.11,178.753l-17.5705-40.41218-.17082-.39286c-10.70324,1.81742-28.67451,18.187-29.22,19.08616l15.85716,41.44037.45526-.22621c8.85366-13.31988,31.67061-17.14536,31.67061-17.14536Z"/><path class="cls-9" d="M63.14869,157.03409A40.17252,40.17252,0,0,0,30.859,169.54838c-.55291.5824-1.1007,1.18786-1.64063,1.82419l12.76247,41.81022.44385,1.454s18.57675-11.66527,30.77278-15.00148a22.03669,22.03669,0,0,1,5.23786-.87738l.57052-.28349Z"/><path class="cls-7" d="M106.585,188.23l3.63706-4.26365a.616.616,0,0,0,.08629-.6652.65017.65017,0,0,0-.6046-.3677l-20.327.5947a.61751.61751,0,0,0-.4756.99909l12.27346,15.8597a.65076.65076,0,0,0,.66152.235.61673.61673,0,0,0,.4668-.47629l1.13367-5.53894,7.96541,3.72972a.64518.64518,0,0,0,.49762.02231.614.614,0,0,0,.34324-.30684l2.57835-5.26828a.6109.6109,0,0,0,.0265-.47442.64858.64858,0,0,0-.335-.36742Z"/><path class="cls-9" d="M106.62085,187.42169l3.53592-4.34789a.61594.61594,0,0,0,.07064-.667.65015.65015,0,0,0-.61306-.3534L89.30694,183.1253a.61752.61752,0,0,0-.452,1.01l12.64256,15.56707a.65079.65079,0,0,0,.66686.21942.61673.61673,0,0,0,.45548-.48713l1.00327-5.564,8.05081,3.54162a.64529.64529,0,0,0,.498.01062.61413.61413,0,0,0,.33595-.31482l2.4539-5.32739a.61093.61093,0,0,0,.01535-.47491.64858.64858,0,0,0-.34355-.35945Z"/><path class="cls-7" d="M1084.84563,194.85561c-.48012-1.12024-13.014.338-13.014.338l-5.5776.84506.10977,5.60939,2.62365,107.15493,4.36514,3.01059c8.45076,2.02815,13.35217-.50706,13.35217-.50706S1085.35272,196.03868,1084.84563,194.85561Z"/><path class="cls-7" d="M1068.98746,308.803l-2.62365-107.15493-.44778-18.28545c.16893-1.01411-20.78873.507-22.14094.507-1.352,0-11.66194,5.91552-11.66194,5.91552l.16908,9.80284.02548.52579c2.14428-.0597,4.19982-.01877,4.19982-.01877l.43831,95.40982.40672,8.365s8.28176,10.14086,8.95786,11.155c.676,1.01407,13.69018.169,17.57755.507,3.88721.33806,5.23925-1.01407,5.23925-1.01407Z"/><path class="cls-8" d="M1036.94584,295.50484l-.43831-95.40982s-2.05554-.04093-4.19982.01877c-2.20361.06133-4.501.229-4.758.65729-.507.84507,1.18312,109.69038,1.18312,109.69038s.09268.009.25221.02338c1.24948.1127,6.83051.57615,8.02947-.02338Z"/><path class="cls-8" d="M1003.1978,183.1201l.39183-5.57394s-13.97932-3.88358-18.33148-1.89876l-4.12253,5.42442L963.959,303.93771s.29176,6.85713,2.76131,7.52277c2.46947.66559,16.18845,2.63976,17.20252,1.40932C984.33477,312.37,1002.41731,183.86983,1003.1978,183.1201Z"/><path class="cls-7" d="M1028.73287,310.46146s-1.69013-108.84531-1.18312-109.69038l-.169-15.21126a4.61832,4.61832,0,0,0-2.02815-.84511c-1.18312-.169-21.63384-.338-22.30986.507-.67611.84507-1.85923,122.53545-1.85923,122.53545s.17169.18619.45214.47451c1.05232,1.082,3.7285,3.68858,5.46338,4.08889,2.19715.507,20.11271,1.18312,20.78873.507a9.38352,9.38352,0,0,0,1.09732-2.34282C1028.82555,310.47043,1028.73287,310.46146,1028.73287,310.46146Z"/><path class="cls-11" d="M1083.8929,194.801c-.48012-1.12024-13.014.338-13.014.338l-5.57759.84506.10977,5.60939,2.62364,107.15493,4.36514,3.01059c8.45077,2.02815,13.35217-.50706,13.35217-.50706S1084.4,195.98408,1083.8929,194.801Z"/><path class="cls-11" d="M1068.03473,308.7484l-2.62364-107.15493-.44778-18.28545c.16892-1.01411-20.78873.507-22.14094.507-1.352,0-11.662,5.91552-11.662,5.91552l.16909,9.80284.02547.52579c2.14428-.0597,4.19983-.01877,4.19983-.01877l.43831,95.40982.40671,8.365s8.28176,10.14086,8.95787,11.155c.676,1.01407,13.69018.169,17.57755.507,3.8872.33806,5.23924-1.01407,5.23924-1.01407Z"/><path class="cls-11" d="M1035.99312,295.45024l-.43831-95.40982s-2.05555-.04093-4.19983.01877c-2.2036.06133-4.501.229-4.758.65729-.507.84507,1.18312,109.69038,1.18312,109.69038s.09267.009.25221.02338c1.24948.1127,6.83051.57615,8.02946-.02338Z"/><path class="cls-11" d="M1002.26032,182.94178l.39183-5.57395s-13.97932-3.88357-18.33147-1.89875l-4.12254,5.42441-17.17663,122.8659s.29176,6.85712,2.76131,7.52277c2.46947.66559,16.18845,2.63975,17.20252,1.40932C983.39729,312.19171,1001.47983,183.6915,1002.26032,182.94178Z"/><path class="cls-11" d="M1027.78015,310.40686S1026.09,201.56155,1026.597,200.71648l-.169-15.21126a4.61825,4.61825,0,0,0-2.02814-.84511c-1.18312-.169-21.63385-.338-22.30987.507-.6761.84507-1.85922,122.53545-1.85922,122.53545s.17168.18619.45213.47451c1.05232,1.082,3.72851,3.68858,5.46339,4.08889,2.19715.507,20.11271,1.18312,20.78873.507a9.38425,9.38425,0,0,0,1.09732-2.34282C1027.87282,310.41583,1027.78015,310.40686,1027.78015,310.40686Z"/><line class="cls-11" x1="984.32068" y1="175.46908" x2="965.78282" y2="311.28216"/><line class="cls-11" x1="1005.55242" y1="184.81852" x2="1006.14631" y2="312.26601"/><line class="cls-11" x1="1042.82237" y1="183.81504" x2="1045.3577" y2="314.97026"/><line class="cls-11" x1="1070.87891" y1="195.13902" x2="1072.39987" y2="311.75899"/><line class="cls-11" x1="1059.46163" y1="308.57832" x2="1051.60564" y2="308.57832"/><path class="cls-11" d="M1082.855,282.91542s-7.50683.52374-8.37972-.17457"/><line class="cls-11" x1="1083.37875" y1="277.15437" x2="1073.60241" y2="276.97979"/><line class="cls-11" x1="1081.28382" y1="218.84547" x2="1074.64988" y2="219.02005"/><line class="cls-11" x1="1081.4584" y1="225.30484" x2="1073.77699" y2="225.47942"/><line class="cls-11" x1="1079.18889" y1="230.71674" x2="1077.09396" y2="230.71674"/><line class="cls-11" x1="1081.28382" y1="237.00153" x2="1074.82445" y2="237.17611"/><line class="cls-11" x1="1081.63298" y1="243.4609" x2="1074.12614" y2="243.98463"/><line class="cls-11" x1="983.94467" y1="198.55498" x2="996.71617" y2="200.23411"/><line class="cls-11" x1="984.38772" y1="202.41584" x2="994.04421" y2="203.68543"/><path class="cls-8" d="M1036.38976,326.62649c-1.1525-3.29286-1.64643-2.79893-5.26857-8.72608s-8.39679-17.45215-8.39679-17.45215l-5.53429-14.60439a3.73446,3.73446,0,0,1-.15642-2.1198l.90552-4.14816a4.29479,4.29479,0,0,0-.21194-2.52l-1.25-3.10473a1.81042,1.81042,0,0,1,1.97882-2.46875,3.54593,3.54593,0,0,1,.63781.184c2.25408.87255,6.90767,5.16258,7.12581,10.83414l3.92647,6.326s3.12663-11.85212,2.9812-21.95914.07272-17.16011.65441-20.50488,1.07906-6.08955,4.72631-6.25327c4.00683-.17986,3.27206,9.45261,3.27206,9.45261s.29084,9.30718.79983,12.50653.14543,13.16094.14543,13.16094l1.67238,1.018.14543-3.05392s-.21814-.29085-.14543-2.3268.21814-7.56208,2.83578-9.37989,3.70833-1.527,3.70833-1.527,4.14461.29085,4.50817,3.19934a42.2821,42.2821,0,0,1-.29085,7.99836s1.825-4.14782,3.65122-4.14782,4.97489-.25189,5.47868,3.08569-.81866,9.00518-.81866,9.00518,4.21921-2.64488,5.91949,1.19649c0,0,1.00757.50379,1.00757,6.17138s.18892,9.76086-2.07812,14.232c-2.12534,4.19166-.59775,7.94054-3.408,14.308a6.37985,6.37985,0,0,0-.51629,2.98054l.71268,11.2383s.37784,7.80869,2.20406,12.46871,6.2352,24.08916,6.2352,24.08916L1045.413,372.9399S1040.28234,337.74815,1036.38976,326.62649Z"/><path class="cls-11" d="M1035.77174,326.472c-1.1525-3.29286-1.64643-2.79893-5.26858-8.72608s-8.39679-17.45214-8.39679-17.45214l-5.53429-14.60439a3.73449,3.73449,0,0,1-.15641-2.11981l.90552-4.14816a4.29484,4.29484,0,0,0-.212-2.51995l-1.25-3.10473a1.81042,1.81042,0,0,1,1.97882-2.46876,3.54547,3.54547,0,0,1,.63781.184c2.25408.87255,6.90768,5.16258,7.12581,10.83415l3.92647,6.326s3.12663-11.85211,2.98121-21.95913.07271-17.16012.65441-20.50489,1.07905-6.08954,4.7263-6.25326c4.00683-.17987,3.27206,9.4526,3.27206,9.4526s.29085,9.30719.79984,12.50653.14542,13.16094.14542,13.16094l1.67238,1.018.14543-3.05392s-.21814-.29085-.14543-2.32679.21814-7.56209,2.83579-9.3799,3.70833-1.527,3.70833-1.527,4.1446.29085,4.50816,3.19935a42.28158,42.28158,0,0,1-.29084,7.99836s1.825-4.14782,3.65121-4.14782,4.97489-.2519,5.47868,3.08569-.81865,9.00518-.81865,9.00518,4.21921-2.64488,5.91948,1.19649c0,0,1.00758.50378,1.00758,6.17138s.18892,9.76085-2.07812,14.232c-2.12535,4.19165-.59776,7.94053-3.408,14.308a6.37984,6.37984,0,0,0-.51628,2.98054l.71267,11.23831s.37784,7.80868,2.20407,12.4687,6.2352,24.08916,6.2352,24.08916l-28.1341,7.15479S1039.66432,337.59364,1035.77174,326.472Z"/><path class="cls-11" d="M1029.52819,288.67207a13.22763,13.22763,0,0,0-1.41228,5.41872c-.35481,3.7508-.45618,5.42346-.45618,5.42346"/><path class="cls-11" d="M1043.77981,276.09283s.201,2.28513-1.31961,1.87964l-.35277-2.89761"/><line class="cls-11" x1="1043.92524" y1="273.03891" x2="1044.89315" y2="266.06113"/><path class="cls-11" d="M1054.67565,270.775l-.65174,6.84332a4.75883,4.75883,0,0,0,.65174,1.41858"/><path class="cls-11" d="M1062.85249,278.946s-1.23278,7.187.03438,7.4911"/><path class="cls-11" d="M1017.29711,277.47592s1.5299-.98351.40069-4.80825c0,0-1.60275-.47354-1.89416.54639"/><path class="cls-11" d="M1040.07991,241.28912s-2.95269-2.00631-4.50474.83281c0,0-.64354,4.31547.94637,4.694a6.49248,6.49248,0,0,0,3.06625-.07571A10.49492,10.49492,0,0,0,1040.07991,241.28912Z"/><path class="cls-8" d="M162.62013,316.58383l3.08017-9.599,3.64329,9.39975,2.77416,93.59764a3.36321,3.36321,0,0,1-3.26209,3.46137h0a3.36321,3.36321,0,0,1-3.46137-3.26209Z"/><path class="cls-9" d="M163.30114,316.64405l3.08017-9.599,3.64329,9.39974,2.77416,93.59764a3.36321,3.36321,0,0,1-3.26209,3.46137h0a3.36321,3.36321,0,0,1-3.46137-3.26209Z"/><line class="cls-9" x1="170.0246" y1="316.44477" x2="163.30114" y2="316.64405"/><line class="cls-9" x1="165.36237" y1="316.5242" x2="168.85566" y2="413.44356"/><line class="cls-9" x1="167.59884" y1="316.26002" x2="170.99697" y2="413.1344"/><rect class="cls-7" x="100.29044" y="207.72001" width="55.9371" height="111.39198" rx="10.30267" transform="translate(155.2288 555.15388) rotate(-159.31996)"/><rect class="cls-4" x="105.85299" y="213.39455" width="47.14042" height="93.87445" rx="1.28503" transform="translate(158.57139 549.59528) rotate(-159.31996)"/><rect class="cls-9" x="99.18503" y="206.48637" width="55.9371" height="111.39198" rx="10.30267" transform="translate(153.52487 552.3757) rotate(-159.31996)"/><rect class="cls-9" x="104.74757" y="212.1609" width="47.14042" height="93.87445" rx="1.28503" transform="translate(156.86746 546.8171) rotate(-159.31996)"/><path class="cls-7" d="M116.55158,244.94081l-2.583,6.73693a6.17442,6.17442,0,0,0,3.55476,7.97563l11.16177,4.27961,6.24461,9.63581,1.97216-6.48537a6.1755,6.1755,0,0,0,7.98069-3.55274l2.58305-6.73693a6.17552,6.17552,0,0,0-3.55975-7.97762l-19.37854-7.43A6.17442,6.17442,0,0,0,116.55158,244.94081Z"/><path class="cls-10" d="M116.95192,246.34694l-2.583,6.73693a6.17442,6.17442,0,0,0,3.55476,7.97563l11.16178,4.27961,6.2446,9.63581,1.97216-6.48537a6.17552,6.17552,0,0,0,7.9807-3.55274l2.583-6.73693a6.17552,6.17552,0,0,0-3.55975-7.97762l-19.37854-7.43A6.17442,6.17442,0,0,0,116.95192,246.34694Z"/><line class="cls-10" x1="138.95978" y1="253.88589" x2="123.47685" y2="247.94948"/><line class="cls-10" x1="139.79009" y1="263.34894" x2="128.742" y2="259.11292"/><line class="cls-10" x1="141.31851" y1="259.36262" x2="133.54421" y2="256.38182"/><line class="cls-10" x1="127.37308" y1="254.01571" x2="122.44137" y2="252.12481"/><path class="cls-7" d="M136.745,283.52936l-2.583,6.73693a6.17442,6.17442,0,0,1-7.97567,3.55467l-11.16177-4.27961-11.08594,2.991,2.86917-6.14144a6.17549,6.17549,0,0,1-3.55978-7.97755l2.58305-6.73693a6.17552,6.17552,0,0,1,7.98071-3.55281l19.37854,7.43006A6.17442,6.17442,0,0,1,136.745,283.52936Z"/><path class="cls-10" d="M137.10266,284.7021l-2.58552,6.74336a6.18033,6.18033,0,0,1-7.98331,3.55813l-11.17237-4.28368-11.09653,2.99382,2.87187-6.14729a6.18148,6.18148,0,0,1-3.56314-7.98523l2.58552-6.74335a6.18147,6.18147,0,0,1,7.98832-3.55621l19.397,7.43714A6.18033,6.18033,0,0,1,137.10266,284.7021Z"/><line class="cls-10" x1="115.67557" y1="275.58652" x2="131.17331" y2="281.52861"/><line class="cls-10" x1="108.7249" y1="282.07495" x2="119.78361" y2="286.31504"/><line class="cls-10" x1="110.25479" y1="278.08482" x2="118.03652" y2="281.06846"/><line class="cls-10" x1="124.21358" y1="283.43685" x2="129.15001" y2="285.32956"/><path class="cls-7" d="M156.89,230.23521l-2.583,6.73692a6.17439,6.17439,0,0,1-7.97567,3.55467l-11.16177-4.27961-11.08593,2.991,2.86917-6.14144a6.17552,6.17552,0,0,1-3.55979-7.97756l2.58305-6.73692a6.17553,6.17553,0,0,1,7.98072-3.55281l19.37854,7.43A6.17442,6.17442,0,0,1,156.89,230.23521Z"/><path class="cls-10" d="M157.24773,231.408l-2.58551,6.74336a6.18033,6.18033,0,0,1-7.98331,3.55812l-11.17238-4.28367L124.41,240.41957l2.87187-6.14728a6.18148,6.18148,0,0,1-3.56314-7.98523l2.58552-6.74336a6.18148,6.18148,0,0,1,7.98832-3.55621l19.397,7.43715A6.18033,6.18033,0,0,1,157.24773,231.408Z"/><line class="cls-10" x1="135.82065" y1="222.29237" x2="151.31839" y2="228.23446"/><line class="cls-10" x1="128.86998" y1="228.7808" x2="139.92869" y2="233.02089"/><line class="cls-10" x1="130.39986" y1="224.79066" x2="138.1816" y2="227.77431"/><line class="cls-10" x1="144.35865" y1="230.1427" x2="149.29508" y2="232.03541"/><path class="cls-5" d="M157.66985,136.58164l10.91691,64.48483a1.03632,1.03632,0,0,0,1.68248.62541l50.387-41.69672a1.03632,1.03632,0,0,0-.29961-1.76978l-61.304-22.7881A1.03632,1.03632,0,0,0,157.66985,136.58164Z"/><path class="cls-5" d="M637.35339,333.61568l10.9169,64.48482a1.03632,1.03632,0,0,0,1.68248.62541l50.38705-41.69672a1.03633,1.03633,0,0,0-.29962-1.76978l-61.30394-22.7881A1.03633,1.03633,0,0,0,637.35339,333.61568Z"/><path class="cls-7" d="M52.34869,316.68856l-2.21794-10.58221,8.38047,6.83154,52.21321,85.789a3.60708,3.60708,0,0,1-1.20593,4.95659l0,0a3.60709,3.60709,0,0,1-4.9566-1.20594Z"/><path class="cls-9" d="M53.01552,316.38362l-2.21794-10.5822,8.38047,6.83153,52.21321,85.789a3.60708,3.60708,0,0,1-1.20593,4.95659l0,0a3.60709,3.60709,0,0,1-4.9566-1.20594Z"/><path class="cls-9" d="M52.85959,316.54265s3.92912,1.79743,6.16254-3.75066"/></g></svg>