<svg id="Layer_1" data-name="Layer 1" xmlns="http://www.w3.org/2000/svg" xmlns:xlink="http://www.w3.org/1999/xlink" viewBox="0 0 1300 294"><defs><style>.cls-1{fill:none;stroke:#5f9c70;stroke-miterlimit:10;}.cls-2{clip-path:url(#clip-path);}.cls-3{fill:#428252;}</style><clipPath id="clip-path"><rect class="cls-1" x="-0.1336" y="-0.56934" width="1302.82962" height="293.93084"/></clipPath></defs><g class="cls-2"><rect class="cls-3" x="-0.1336" y="-0.56934" width="1302.82962" height="293.93084"/><path class="cls-1" d="M821.1022.00415l-2.93988,26.36926a2.44314,2.44314,0,0,0,2.15735,2.69873l49.44952,5.51307a2.4433,2.4433,0,0,0,2.69873-2.15735L876.08267.00415Z"/><rect class="cls-1" x="933.87925" y="67.28458" width="34.60656" height="34.60656" rx="1.54728" transform="translate(42.08647 -207.72648) rotate(12.74298)"/><rect class="cls-1" x="1234.01715" y="133.15452" width="34.60656" height="34.60656" rx="1.54728" transform="translate(144.91966 754.04516) rotate(-35.47058)"/><path class="cls-1" d="M138.21307.00415l-9.49444,7.17828a1.0363,1.0363,0,0,0,.22156,1.78125L189.1839,34.42273a1.03633,1.03633,0,0,0,1.43182-1.08252L186.46875.00415Z"/><circle class="cls-1" cx="347.39381" cy="97.32479" r="22.59069"/><circle class="cls-1" cx="574.75008" cy="306.01537" r="36.82656"/><circle class="cls-1" cx="243.10028" cy="199.83638" r="36.82656"/><circle class="cls-1" cx="1094.81205" cy="286.16722" r="36.82656"/><circle class="cls-1" cx="575.29263" cy="-6.87397" r="22.59069"/><path class="cls-1" d="M245.98535,300.80626l4.039-36.2276a2.44312,2.44312,0,0,0-2.15735-2.69873l-49.44947-5.51306a2.44311,2.44311,0,0,0-2.69873,2.15734l-4.71393,42.28205Z"/><path class="cls-1" d="M912.51645,156.49446l32.70118,56.64013a1.03632,1.03632,0,0,0,1.795,0l32.7012-56.64012a1.03632,1.03632,0,0,0-.89748-1.55448l-65.40238,0A1.03632,1.03632,0,0,0,912.51645,156.49446Z"/><path class="cls-1" d="M626.81413,281.1388l51.05969,40.87027a1.03632,1.03632,0,0,0,1.67207-.65274l9.86485-64.65412a1.03633,1.03633,0,0,0-1.40133-1.12169l-60.92454,23.78385A1.03633,1.03633,0,0,0,626.81413,281.1388Z"/></g><rect class="cls-1" x="-0.1336" y="-0.56934" width="1302.82962" height="293.93084"/></svg>