<svg id="Layer_1" data-name="Layer 1" xmlns="http://www.w3.org/2000/svg" xmlns:xlink="http://www.w3.org/1999/xlink" viewBox="0 0 1300 294"><defs><style>.cls-1,.cls-11,.cls-12,.cls-17,.cls-18,.cls-19,.cls-20,.cls-21,.cls-22,.cls-23,.cls-24,.cls-4,.cls-5,.cls-6,.cls-7{fill:none;}.cls-2{clip-path:url(#clip-path);}.cls-3{fill:#1d5493;}.cls-4,.cls-5,.cls-6,.cls-7{stroke:#468fba;}.cls-11,.cls-12,.cls-4{stroke-miterlimit:10;}.cls-5{stroke-miterlimit:10;}.cls-6{stroke-miterlimit:10;}.cls-7{stroke-miterlimit:10;}.cls-8{fill:#91bcd6;}.cls-9{fill:#468fba;}.cls-10{fill:#255486;}.cls-11{stroke:#255486;}.cls-12,.cls-17,.cls-18,.cls-19,.cls-20,.cls-21,.cls-22,.cls-23,.cls-24{stroke:#1d5493;}.cls-13{fill:#82b2d0;}.cls-14{fill:#b5d2e3;}.cls-15{fill:#336581;}.cls-16{fill:#e94949;}.cls-17{stroke-miterlimit:10;}.cls-18{stroke-miterlimit:10;}.cls-19{stroke-miterlimit:10;}.cls-20{stroke-miterlimit:10;}.cls-21{stroke-miterlimit:10;}.cls-22{stroke-miterlimit:10;}.cls-23{stroke-miterlimit:10;}.cls-24{stroke-miterlimit:10;}</style><clipPath id="clip-path"><rect class="cls-1" width="1300" height="294"/></clipPath></defs><g class="cls-2"><rect class="cls-1" x="80" y="0.03458" width="1140" height="293.93084"/><rect class="cls-3" width="1300" height="294"/><path class="cls-4" d="M1016.47522-.25023l-2.06744,18.54413a2.443,2.443,0,0,0,2.15716,2.69872l.00012,0,49.44941,5.51306a2.443,2.443,0,0,0,2.69873-2.15719v-.00016l2.74255-24.59857Z"/><rect class="cls-5" x="255.35677" y="266.5414" width="34.60657" height="34.60657" rx="1.54727" transform="translate(-114.10877 210.89824) rotate(-35.47058)"/><circle class="cls-4" cx="357.02732" cy="3.77727" r="20.84266"/><circle class="cls-4" cx="80.82532" cy="80.27139" r="30.13165"/><path class="cls-4" d="M778.59473,294.56558h53.18292a30.25616,30.25616,0,1,0-53.18292,0Z"/><circle class="cls-4" cx="1219.97917" cy="33.34509" r="19.55134"/><path class="cls-4" d="M446.443-.25023H402.87369a30.25027,30.25027,0,1,0,43.56928,0Z"/><path class="cls-6" d="M205.59651,245.27034h31.512a1.54729,1.54729,0,0,1,1.54729,1.54729v31.512a1.54729,1.54729,0,0,1-1.54729,1.54729h-31.512a1.54729,1.54729,0,0,1-1.54729-1.54729v-31.512a1.54728,1.54728,0,0,1,1.54728-1.54728Z" transform="translate(-59.51184 64.94503) rotate(-14.73682)"/><path class="cls-4" d="M1079.26971,294.56558h71.756l1.0321-1.03216a2.443,2.443,0,0,0,.00012-3.45493l-.00012-.00006-35.18262-35.18268a2.44311,2.44311,0,0,0-3.455,0l-35.18268,35.18268a2.443,2.443,0,0,0-.00006,3.45493l.00006.00006Z"/><path class="cls-7" d="M295.78188,34.05329h34.53884a1.6959,1.6959,0,0,1,1.6959,1.6959V70.288a1.6959,1.6959,0,0,1-1.6959,1.6959H295.78189A1.69591,1.69591,0,0,1,294.086,70.288V35.74919a1.6959,1.6959,0,0,1,1.6959-1.6959Z" transform="translate(40.35271 215.64571) rotate(-40.42269)"/><path class="cls-7" d="M34.27362,122.59452H68.81247a1.69589,1.69589,0,0,1,1.69589,1.69589v34.53885a1.6959,1.6959,0,0,1-1.6959,1.6959H34.27363a1.6959,1.6959,0,0,1-1.6959-1.6959V124.29041A1.69589,1.69589,0,0,1,34.27362,122.59452Z" transform="translate(-39.07944 21.21268) rotate(-16.97311)"/><path class="cls-7" d="M1051.132,46.51154h34.53879a1.69592,1.69592,0,0,1,1.69592,1.69592V82.7463a1.6959,1.6959,0,0,1-1.6959,1.6959H1051.132a1.69592,1.69592,0,0,1-1.69592-1.69592V48.20746a1.69592,1.69592,0,0,1,1.69592-1.69592Z" transform="translate(212.59051 708.40492) rotate(-40.42269)"/><path class="cls-4" d="M602.45685-.73644l14.824,17.40412a1.69591,1.69591,0,0,0,2.39069.1914L640.32959-.73644Z"/><path class="cls-4" d="M724.17688-19.59811H696.17554L668.96613,2.91843a1.03631,1.03631,0,0,0,.29962,1.76978L730.5697,27.47635a1.03635,1.03635,0,0,0,1.38288-1.14441Z"/><path class="cls-4" d="M142.52234-.25023,198.74164,23.508a1.03629,1.03629,0,0,0,1.43176-1.08252L197.3526-.25023Z"/><path class="cls-4" d="M875.85809-.25023,869.89392,4.259a1.03632,1.03632,0,0,0,.22162,1.78125l60.24371,25.459a1.03629,1.03629,0,0,0,1.43183-1.08252L927.9762-.25023Z"/><polygon class="cls-8" points="135.482 40.784 104.906 48.299 97.727 27.87 132.424 19.342 135.482 40.784"/><path class="cls-9" d="M109.24626,64.33291l.82974,3.376a2.71321,2.71321,0,0,0,3.28868,1.97519,6.6106,6.6106,0,0,1,4.99636.75251,6.52252,6.52252,0,0,1,2.98781,4.046,78.96367,78.96367,0,0,0,2.24992,16.56824q.6027,2.45221,1.3618,4.86432a78.95465,78.95465,0,0,0,3.03384,8.07089,16.70045,16.70045,0,0,0,3.86823,5.465l1.06335.99791a4.02193,4.02193,0,0,0,6.53824-1.60695l.47962-1.37715a16.71642,16.71642,0,0,0,.89416-6.63555,78.95617,78.95617,0,0,0-1.05312-8.55769q-.44613-2.48823-1.04823-4.94138A78.9612,78.9612,0,0,0,133.05,71.60673a6.52245,6.52245,0,0,1,.77187-4.97006,6.61045,6.61045,0,0,1,4.07827-2.98287,2.72212,2.72212,0,0,0,1.6802-1.2274,2.68849,2.68849,0,0,0,.31821-2.04727l-.82974-3.376Zm25.69608,40.21546a2.89686,2.89686,0,1,1,2.14-3.509A2.89686,2.89686,0,0,1,134.94234,104.54837Z"/><path class="cls-10" d="M132.0405,102.27856a2.90165,2.90165,0,0,1,1.68443-3.35327,2.94057,2.94057,0,0,0-.47583.07321,2.89686,2.89686,0,0,0,1.34747,5.63485l.03532-.00868a2.93868,2.93868,0,0,0,.45553-.15574A2.9016,2.9016,0,0,1,132.0405,102.27856Z"/><path class="cls-10" d="M138.13737,57.23207l.82976,3.376a2.68848,2.68848,0,0,1-.31819,2.04725,2.72225,2.72225,0,0,1-1.6802,1.2274,6.61062,6.61062,0,0,0-4.07829,2.98285,6.52263,6.52263,0,0,0-.77187,4.97006,78.96047,78.96047,0,0,1,5.68671,15.72355q.6027,2.45218,1.04823,4.94136a78.94936,78.94936,0,0,1,1.05312,8.55771,16.71606,16.71606,0,0,1-.89416,6.63555l-.47962,1.37712a3.97062,3.97062,0,0,1-2.37549,2.43022,3.9975,3.9975,0,0,0,3.30686-2.65913l.47963-1.37712a16.71678,16.71678,0,0,0,.89416-6.63555,78.96145,78.96145,0,0,0-1.05312-8.55769q-.44613-2.48824-1.04823-4.94138A78.96213,78.96213,0,0,0,133.05,71.60673a6.52245,6.52245,0,0,1,.77187-4.97006,6.61045,6.61045,0,0,1,4.07827-2.98287,2.72212,2.72212,0,0,0,1.6802-1.2274,2.68849,2.68849,0,0,0,.31821-2.04727l-.82974-3.376Z"/><path class="cls-8" d="M103.21411,50.37274l.53737,2.18648h0l.18437.75013h0l1.79677,7.31047.13893.5654h0l.53742,2.18651a1.61721,1.61721,0,0,0,1.95842,1.177l31.58014-7.76164a1.6173,1.6173,0,0,0,1.18966-1.95081l-.53739-2.18654h0l-.18435-.75007h0l-1.75135-7.12581h0l-.18435-.75006h0l-.53742-2.18651a1.61725,1.61725,0,0,0-1.95845-1.17708l-31.58011,7.7617A1.61726,1.61726,0,0,0,103.21411,50.37274Z"/><polygon class="cls-9" points="105.114 48.447 104.489 48.601 97.259 28.184 97.968 28.01 105.114 48.447"/><polygon class="cls-9" points="106.432 48.123 105.808 48.276 98.756 27.817 99.464 27.642 106.432 48.123"/><polygon class="cls-9" points="107.751 47.799 107.127 47.952 100.252 27.449 100.961 27.275 107.751 47.799"/><polygon class="cls-9" points="109.07 47.475 108.445 47.628 101.748 27.081 102.457 26.907 109.07 47.475"/><polygon class="cls-9" points="110.388 47.151 109.764 47.304 103.245 26.713 103.954 26.539 110.388 47.151"/><polygon class="cls-9" points="111.707 46.827 111.082 46.98 104.741 26.346 105.45 26.171 111.707 46.827"/><polygon class="cls-9" points="113.026 46.503 112.401 46.656 106.237 25.978 106.946 25.804 113.026 46.503"/><polygon class="cls-9" points="114.344 46.178 113.72 46.332 107.734 25.61 108.443 25.436 114.344 46.178"/><polygon class="cls-9" points="115.663 45.854 115.038 46.008 109.23 25.242 109.939 25.068 115.663 45.854"/><polygon class="cls-9" points="116.982 45.53 116.357 45.684 110.727 24.874 111.435 24.7 116.982 45.53"/><polygon class="cls-9" points="118.3 45.206 117.676 45.36 112.223 24.507 112.932 24.332 118.3 45.206"/><polygon class="cls-9" points="119.619 44.882 118.994 45.036 113.719 24.139 114.428 23.965 119.619 44.882"/><polygon class="cls-9" points="120.938 44.558 120.313 44.711 115.216 23.771 115.925 23.597 120.938 44.558"/><polygon class="cls-9" points="122.256 44.234 121.632 44.387 116.712 23.403 117.421 23.229 122.256 44.234"/><polygon class="cls-9" points="123.575 43.91 122.95 44.063 118.209 23.036 118.917 22.861 123.575 43.91"/><polygon class="cls-9" points="124.893 43.586 124.269 43.739 119.705 22.668 120.414 22.494 124.893 43.586"/><polygon class="cls-9" points="126.212 43.262 125.587 43.415 121.201 22.3 121.91 22.126 126.212 43.262"/><polygon class="cls-9" points="127.531 42.937 126.906 43.091 122.698 21.932 123.407 21.758 127.531 42.937"/><polygon class="cls-9" points="128.849 42.613 128.225 42.767 124.194 21.564 124.903 21.39 128.849 42.613"/><polygon class="cls-9" points="130.168 42.289 129.543 42.443 125.691 21.197 126.399 21.022 130.168 42.289"/><polygon class="cls-9" points="131.487 41.965 130.862 42.119 127.187 20.829 127.896 20.655 131.487 41.965"/><polygon class="cls-9" points="132.805 41.641 132.181 41.795 128.683 20.461 129.392 20.287 132.805 41.641"/><polygon class="cls-9" points="134.124 41.317 133.499 41.471 130.18 20.093 130.889 19.919 134.124 41.317"/><polygon class="cls-9" points="135.443 40.993 134.818 41.146 131.676 19.726 132.385 19.551 135.443 40.993"/><polygon class="cls-11" points="134.975 41.513 104.399 49.028 97.22 28.6 131.918 20.072 134.975 41.513"/><path class="cls-11" d="M108.73971,65.06269l.82974,3.376a2.71323,2.71323,0,0,0,3.28868,1.97521,6.61072,6.61072,0,0,1,4.99637.75249,6.52261,6.52261,0,0,1,2.98781,4.046,78.96272,78.96272,0,0,0,2.24991,16.56821q.6027,2.45221,1.3618,4.86432a78.95342,78.95342,0,0,0,3.03385,8.0709,16.7003,16.7003,0,0,0,3.86823,5.465l1.06334.99791a4.02192,4.02192,0,0,0,6.53824-1.607l.47963-1.37715a16.7167,16.7167,0,0,0,.89416-6.63553,78.95665,78.95665,0,0,0-1.05312-8.5577q-.44615-2.48821-1.04824-4.94138A78.96239,78.96239,0,0,0,132.5434,72.3365a6.52259,6.52259,0,0,1,.77187-4.97006,6.61045,6.61045,0,0,1,4.07827-2.98285,2.7221,2.7221,0,0,0,1.6802-1.22741,2.68842,2.68842,0,0,0,.31822-2.04726l-.82974-3.376Zm25.69608,40.21546a2.89686,2.89686,0,1,1,2.14-3.509A2.89686,2.89686,0,0,1,134.43579,105.27815Z"/><path class="cls-11" d="M102.70757,51.10251,103.245,53.289h-.00006l.18435.75007h.00006l1.75133,7.12585h0l.18435.75007h0l.53741,2.1865a1.61722,1.61722,0,0,0,1.95842,1.177L139.441,57.51687a1.61729,1.61729,0,0,0,1.18967-1.95081l-2.59426-10.55525-.0632-.25723h0l-.53741-2.18651A1.6173,1.6173,0,0,0,135.47734,41.39l-31.5801,7.7617A1.61723,1.61723,0,0,0,102.70757,51.10251Z"/><path class="cls-9" d="M1064.20428-5.50354a13.34688,13.34688,0,0,0,15.8678,20.60461l46.43842,38.0551a14.68707,14.68707,0,0,0,18.7821,17.92614l-7.33716-6.01255a5.89529,5.89529,0,0,1-.81933-8.27279l2.484-3.03126a5.89525,5.89525,0,0,1,8.27246-.82219l7.33716,6.01264a14.68543,14.68543,0,0,0-21.26746-14.89356L1087.52466,6.00822a13.34685,13.34685,0,0,0-23.32038-11.51176Zm9.50177.02521,4.31415.7091a4.40745,4.40745,0,0,1,3.40912,2.79369l1.543,4.09065a4.40775,4.40775,0,0,1-.71484,4.34933L1079.48633,9.846a4.40758,4.40758,0,0,1-4.1239,1.55562l-4.31415-.70908a4.408,4.408,0,0,1-3.40918-2.79381l-1.543-4.09065a4.40771,4.40771,0,0,1,.71478-4.34921l2.77106-3.38156A4.4078,4.4078,0,0,1,1073.70605-5.47833Z"/><path class="cls-11" d="M1064.35333-3.17445a13.34687,13.34687,0,0,0,15.8678,20.6046l46.43842,38.05511a14.68706,14.68706,0,0,0,18.7821,17.92613l-7.33716-6.01254a5.89528,5.89528,0,0,1-.81933-8.27278l2.484-3.03127a5.89526,5.89526,0,0,1,8.27246-.82219l7.33715,6.01265a14.68542,14.68542,0,0,0-21.26745-14.89356L1087.67371,8.3373a13.34686,13.34686,0,0,0-23.32038-11.51175Zm9.50177.02521,4.31415.70909a4.40747,4.40747,0,0,1,3.40912,2.7937l1.543,4.09065a4.40778,4.40778,0,0,1-.71484,4.34932l-2.77112,3.38156a4.4076,4.4076,0,0,1-4.1239,1.55562l-4.31421-.70909a4.408,4.408,0,0,1-3.40918-2.7938l-1.54291-4.09066A4.40757,4.40757,0,0,1,1066.96,1.788l2.77112-3.38156A4.40782,4.40782,0,0,1,1073.8551-3.14924Z"/><path class="cls-9" d="M1117.49634,97.51013l5.04651-.21523-.36927-8.9545-5.67724.23068a30.15119,30.15119,0,0,0-1.76929-4.831l4.83106-2.831-4.5387-7.73894-5.27747,3.09243a30.19239,30.19239,0,0,0-3.6156-3.4l3.108-5.03127L1101.603,63.108l-3.29255,5.32345a30.45423,30.45423,0,0,0-3.96942-1.21556V61.76939h-8.96978v4.785a27.54809,27.54809,0,0,0-3.93866.53848l-2.031-4.38493-8.139,3.7848,1.75385,3.76951a30.02872,30.02872,0,0,0-4.81574,3.36946l-3.308-2.5232-5.43115,7.15428,2.86194,2.16935a30.73368,30.73368,0,0,0-2.708,5.47734l-3.63092-.58467-1.431,8.86209,3.231.5232c-.03089.55393-.077,1.09241-.077,1.64617a29.70819,29.70819,0,0,0,.38458,4.56958l-3.3078,1.12316,2.877,8.50826,3.10791-1.06149a29.2385,29.2385,0,0,0,3.29266,5.24649l-2.50787,2.64635,6.52356,6.16955,2.49243-2.6309a29.55249,29.55249,0,0,0,5.24634,2.92324l-1.09223,3.9234,8.64673,2.40021,1.12317-4.06185a30.17751,30.17751,0,0,0,3.13861.16919c.50775,0,1.00018-.04621,1.50793-.07695l.50757,3.40021,8.87757-1.33855-.58466-3.84645a29.22714,29.22714,0,0,0,5.40039-2.63089l2.29254,3.07714,7.20044-5.35419-2.63086-3.55412a30.5584,30.5584,0,0,0,3.33875-4.66181l3.96948,1.89231,3.86194-8.10807-4.5697-2.16953A29.76721,29.76721,0,0,0,1117.49634,97.51013Zm-28.94031,3.69272a5.21575,5.21575,0,1,1,.00006,0Z"/><path class="cls-12" d="M1117.1925,96.6205l5.04651-.21522-.36926-8.9545-5.67725.23068a30.14948,30.14948,0,0,0-1.76928-4.831l4.83105-2.831-4.53869-7.73893-5.27747,3.09242a30.19069,30.19069,0,0,0-3.6156-3.4l3.108-5.03127-7.63141-4.72331-3.29254,5.32343a30.45778,30.45778,0,0,0-3.96942-1.21556V60.87976h-8.96979v4.785a27.54992,27.54992,0,0,0-3.93866.53849l-2.03094-4.38493-8.139,3.78478,1.75391,3.76951a30.02828,30.02828,0,0,0-4.81574,3.36946l-3.308-2.52319-5.43115,7.15426,2.86194,2.16937a30.73267,30.73267,0,0,0-2.708,5.47734l-3.63092-.58468-1.431,8.8621,3.231.52318c-.03094.55394-.077,1.09241-.077,1.64618a29.70694,29.70694,0,0,0,.38458,4.56958l-3.3078,1.12315,2.877,8.50827,3.10785-1.0615a29.23884,29.23884,0,0,0,3.29267,5.2465l-2.50794,2.64634,6.52356,6.16955,2.49243-2.63089a29.55342,29.55342,0,0,0,5.24634,2.92323l-1.09222,3.9234,8.64673,2.40022,1.12317-4.06185a30.17185,30.17185,0,0,0,3.13861.16919c.50775,0,1.00018-.0462,1.50787-.07695l.50757,3.40022,8.87756-1.33855-.58465-3.84645a29.2247,29.2247,0,0,0,5.40039-2.6309l2.29254,3.07714,7.20044-5.35419-2.63086-3.55411a30.55834,30.55834,0,0,0,3.33874-4.66181l3.96949,1.89231,3.86193-8.10806-4.5697-2.16953A29.76583,29.76583,0,0,0,1117.1925,96.6205Zm-28.9403,3.69273A5.22349,5.22349,0,1,1,1093.468,95.082h0A5.2269,5.2269,0,0,1,1088.2522,100.31323Z"/><path class="cls-9" d="M154.61322,181.87366l5.04656-.21523-.36929-8.9545-5.67727.23069a30.14068,30.14068,0,0,0-1.76933-4.831l4.831-2.831-4.53866-7.73894-5.27741,3.09242a30.19752,30.19752,0,0,0-3.6156-3.4l3.108-5.03127-7.63142-4.72331-3.29252,5.32346a30.45554,30.45554,0,0,0-3.96944-1.21558V146.133h-8.96975v4.785a27.5487,27.5487,0,0,0-3.93869.53848l-2.03093-4.38493-8.139,3.78479,1.75387,3.76951a30.02681,30.02681,0,0,0-4.81571,3.36948l-3.308-2.52319-5.43114,7.15426,2.86191,2.16938a30.73162,30.73162,0,0,0-2.708,5.47734l-3.6309-.58469-1.43095,8.86211,3.231.52319c-.03091.55393-.077,1.09241-.077,1.64616a29.70434,29.70434,0,0,0,.38458,4.56958l-3.30781,1.12316,2.877,8.50827,3.10787-1.06149a29.23557,29.23557,0,0,0,3.29269,5.2465L98.671,201.75226l6.52355,6.16954,2.49245-2.63089a29.55341,29.55341,0,0,0,5.24633,2.92323l-1.09225,3.92342,8.64671,2.40021,1.12316-4.06185a30.17294,30.17294,0,0,0,3.13862.16919c.50773,0,1.00017-.0462,1.5079-.07695l.50757,3.40022,8.87755-1.33854-.58468-3.84645a29.22692,29.22692,0,0,0,5.4004-2.63089l2.29251,3.07713,7.20047-5.35419-2.63089-3.55412a30.56075,30.56075,0,0,0,3.33873-4.6618l3.96943,1.8923,3.86191-8.10806-4.56974-2.16953A29.7724,29.7724,0,0,0,154.61322,181.87366Zm-28.94031,3.69272a5.22348,5.22348,0,1,1,5.21575-5.23122A5.22348,5.22348,0,0,1,125.67291,185.56638Z"/><path class="cls-12" d="M154.30935,180.984l5.04656-.21522-.36929-8.95452-5.67728.23069A30.13919,30.13919,0,0,0,151.54,167.214l4.831-2.831-4.53867-7.73894-5.2774,3.09243a30.19537,30.19537,0,0,0-3.61561-3.4l3.108-5.03126-7.63133-4.72341-3.29252,5.32344a30.45853,30.45853,0,0,0-3.96944-1.21556v-5.44642h-8.96982v4.785a27.549,27.549,0,0,0-3.9387.53848l-2.03092-4.38493-8.139,3.78479,1.75387,3.7695a30.02744,30.02744,0,0,0-4.81571,3.36948l-3.308-2.5232-5.43114,7.15427,2.8619,2.16937a30.73162,30.73162,0,0,0-2.708,5.47734l-3.6309-.58468-1.43095,8.8621,3.231.52318c-.03091.55394-.07694,1.09241-.07694,1.64618a29.70417,29.70417,0,0,0,.38457,4.56956l-3.30781,1.12316,2.877,8.50827,3.10788-1.06149a29.23655,29.23655,0,0,0,3.29269,5.24649l-2.50791,2.64634,6.52365,6.1695,2.49245-2.63089a29.553,29.553,0,0,0,5.24632,2.92323l-1.09224,3.9234L120.184,213.648l1.12316-4.06184a30.17279,30.17279,0,0,0,3.13862.16919c.50773,0,1.00017-.0462,1.5079-.077l.50756,3.40023,8.8776-1.33856-.58468-3.84647a29.22589,29.22589,0,0,0,5.40039-2.63089l2.29252,3.07713,7.20046-5.35418-2.63089-3.55411a30.561,30.561,0,0,0,3.33873-4.66181l3.96943,1.89232,3.86191-8.10808-4.56971-2.16951A29.77253,29.77253,0,0,0,154.30935,180.984ZM125.369,184.67674a5.22348,5.22348,0,1,1,5.21575-5.2312A5.22347,5.22347,0,0,1,125.369,184.67674Z"/><path class="cls-13" d="M1180.12842,106.49433l1.76367-.07522-.129-3.1295-1.98413.08062a10.52632,10.52632,0,0,0-.61841-1.68838l1.68836-.9894-1.58618-2.70468-1.84437,1.08077a10.54594,10.54594,0,0,0-1.26354-1.18828l1.08618-1.75837-2.66712-1.65074-1.15075,1.86048a10.64774,10.64774,0,0,0-1.38733-.42482V94.00334H1168.901v1.67229a9.62866,9.62866,0,0,0-1.37646.18819l-.70984-1.53248-2.84449,1.32274.613,1.31739a10.49456,10.49456,0,0,0-1.683,1.17759l-1.15613-.88183-1.89807,2.50035,1.00024.75817a10.7395,10.7395,0,0,0-.94641,1.91427l-1.26892-.20434-.50012,3.0972,1.12915.18285c-.01074.19359-.02686.38179-.02686.57532a10.37056,10.37056,0,0,0,.1344,1.597l-1.156.39253,1.00549,2.97354,1.08618-.371a10.22346,10.22346,0,0,0,1.15076,1.83359l-.87647.92487,2.27991,2.15619.8711-.91947a10.32612,10.32612,0,0,0,1.83349,1.02164l-.38171,1.37117,3.022.83886.39258-1.41958a10.54642,10.54642,0,0,0,1.09692.05913c.17749,0,.34961-.01615.527-.02689l.17737,1.18834,3.10266-.46781-.20435-1.3443a10.21169,10.21169,0,0,0,1.88733-.91947l.80127,1.07542,2.51648-1.87123-.91943-1.24212a10.67752,10.67752,0,0,0,1.16687-1.62925l1.38733.66134,1.34973-2.83368-1.597-.75823A10.40953,10.40953,0,0,0,1180.12842,106.49433Zm-10.11426,1.29056a1.82295,1.82295,0,1,0-.00012,0Z"/><path class="cls-11" d="M1179.32715,105.41891l1.76367-.07522-.129-3.1295-1.98413.08062a10.52632,10.52632,0,0,0-.61841-1.68838l1.68836-.9894-1.58618-2.70468-1.84436,1.08077a10.55465,10.55465,0,0,0-1.26368-1.18828l1.08619-1.75837-2.66712-1.65075-1.15076,1.86049a10.6461,10.6461,0,0,0-1.38732-.42483V92.92792h-3.13489V94.6002a9.6278,9.6278,0,0,0-1.37659.18819l-.70984-1.53248-2.84448,1.32274.613,1.3174a10.49293,10.49293,0,0,0-1.683,1.17759l-1.15613-.88183-1.89807,2.50034,1.00025.75818a10.73907,10.73907,0,0,0-.94641,1.91426l-1.269-.20433-.50012,3.09719,1.12915.18286c-.01074.19359-.02685.38178-.02685.57531a10.36934,10.36934,0,0,0,.1344,1.597l-1.156.39254,1.00549,2.97354,1.08618-.371a10.22276,10.22276,0,0,0,1.15076,1.83359l-.87646.92488,2.2799,2.15618.8711-.91947a10.331,10.331,0,0,0,1.83349,1.02164l-.38171,1.37118,3.022.83885.39258-1.41957a10.54917,10.54917,0,0,0,1.09692.05913c.17749,0,.34961-.01616.527-.0269l.17737,1.18833,3.10266-.46779-.20434-1.3443a10.2125,10.2125,0,0,0,1.88732-.91946l.80127,1.07542,2.51648-1.87123-.91943-1.24212a10.67711,10.67711,0,0,0,1.16687-1.62926l1.38733.66135,1.34973-2.83368-1.597-.75823A10.39958,10.39958,0,0,0,1179.32715,105.41891Zm-10.11426,1.29056a1.82555,1.82555,0,1,1,1.82288-1.82825A1.82561,1.82561,0,0,1,1169.21289,106.70947Z"/><path class="cls-14" d="M215.69609,174.68835l-2.14479.58037q-1.9665.53216-3.933,1.0643l-.98744.26723,9.18941,33.94954.37881,1.39947,4.92037-1.33183,3.13162-.84765-.37819-1.39719L216.683,174.4213Z"/><path class="cls-15" d="M183.67016,185.84811a1.669,1.669,0,0,0,.64423-.30066A1.66889,1.66889,0,0,1,183.67016,185.84811Z"/><path class="cls-10" d="M182.7206,185.33418c.06108.40866.32044.65381.94953.51393h0C183.04106,185.988,182.78169,185.74284,182.7206,185.33418Z"/><path class="cls-9" d="M233.11082,151.92654l-.76306.20655.01995.07367a2.60061,2.60061,0,0,1,.06228.31247c.0037.02623.006.05224.0089.0784a2.553,2.553,0,0,1,.01591.25543c.00017.01877.001.03747.00072.05618a2.598,2.598,0,0,1-.087.63756h0a2.58215,2.58215,0,0,1-1.82082,1.831l-7.61292,2.06067a2.58526,2.58526,0,0,1-3.17093-1.81994l-.00221-.00823-.26045-.9749c-6.29973,1.67438-22.74779,6.05077-24.43127,7.08411a15.27045,15.27045,0,0,0-4.8904,5.36667l.00031-.00057-.00133.00232c-.41681.6942-.80667,1.40515-1.17965,2.11482a83.066,83.066,0,0,0-4.03961,8.92023q-.87636,2.28711-1.61358,4.62437c-.05168.16405-.17164.46529-.2939.81855a5.93772,5.93772,0,0,0-.3404,1.402,1.69063,1.69063,0,0,0,.00921.36636c.06108.40866.32047.65381.94957.51394a1.66946,1.66946,0,0,0,.64423-.30066,1.8531,1.8531,0,0,0,.47471-.53437,119.15836,119.15836,0,0,1,7.37988-11.2306,10.68769,10.68769,0,0,1,2.50771-2.595,4.93331,4.93331,0,0,1,.75191-.40752,4.594,4.594,0,0,1,.53733-.19476,4.0268,4.0268,0,0,1,.834-.15363,3.49185,3.49185,0,0,1,.448-.00456,3.07037,3.07037,0,0,1,.87652.17544,4.792,4.792,0,0,1,2.62151,3.46125c.14686.54525.25365,1.103.36284,1.6593.091.46361.18364.92628.30253,1.38a8.09705,8.09705,0,0,0,.46,1.32637q3.3798-.91461,6.75955-1.82917l.98748-.2672,3.933-1.06432,2.14478-.58036.98691-.26706,7.60461-2.05785-.24621-.90962-.02671-.09868a2.58744,2.58744,0,0,1,1.169-2.89234c.01614-.00973.03284-.01858.04927-.028q.11038-.06269.22815-.11488c.02412-.01076.04781-.02191.07237-.032a2.60075,2.60075,0,0,1,.30118-.10382l7.62108-2.06286a2.616,2.616,0,0,1,.25865-.05617,2.57593,2.57593,0,0,1,1.483.19635,2.52,2.52,0,0,1,.917.6999,2.6343,2.6343,0,0,1,.51242.97992l.01994.07369,7.941-2.14951-.2462-.90956-4.05269-14.97233Q236.69977,150.95508,233.11082,151.92654Z"/><path class="cls-9" d="M238.464,250.0388l-12.59118-41.66623.37819,1.39719-3.13163.84766-4.92036,1.33183-.37881-1.39948.003.01233,7.67543,32.03505,6.42592,26.81276a5.02756,5.02756,0,0,0,6.13268,3.59766l.04679-.01242,1.75185-.47418a5.026,5.026,0,0,0,3.53879-6.16428l-.01322-.04791Z"/><path class="cls-12" d="M214.513,175.59l-2.14479.58036q-1.9665.53218-3.933,1.06432l-.98744.26721,9.18941,33.94956.37881,1.39947,4.92037-1.33183,3.1316-.84766-.37817-1.39718-9.1899-33.95128Z"/><path class="cls-12" d="M182.4871,186.74976a1.66914,1.66914,0,0,0,.64423-.30068A1.66908,1.66908,0,0,1,182.4871,186.74976Z"/><path class="cls-12" d="M181.53754,186.23582c.06108.40867.32044.65381.94953.51394h0C181.858,186.88963,181.59863,186.64449,181.53754,186.23582Z"/><path class="cls-12" d="M231.92776,152.82819l-.76306.20654.01995.07367a2.601,2.601,0,0,1,.06228.31247c.00371.02623.006.05224.0089.07841a2.553,2.553,0,0,1,.01591.25542c.00017.01877.001.03748.00072.05618a2.59807,2.59807,0,0,1-.087.63756h0a2.58214,2.58214,0,0,1-1.82082,1.831l-7.61292,2.06067a2.58526,2.58526,0,0,1-3.17094-1.82l-.0022-.0082-.26045-.9749c-6.29973,1.67438-22.74779,6.05077-24.43126,7.08411a15.27056,15.27056,0,0,0-4.89041,5.36667l.00031-.00057-.00132.00232c-.41682.6942-.80668,1.40515-1.17965,2.11483a83.065,83.065,0,0,0-4.03962,8.92022q-.87637,2.28713-1.61358,4.62438c-.05168.164-.17164.46528-.29389.81854a5.93726,5.93726,0,0,0-.34041,1.402,1.69135,1.69135,0,0,0,.00921.36637c.06108.40864.32047.65379.94957.51391a1.66932,1.66932,0,0,0,.64423-.30066,1.85332,1.85332,0,0,0,.47471-.53436,119.1585,119.1585,0,0,1,7.37988-11.23061,10.68842,10.68842,0,0,1,2.50771-2.595,4.93325,4.93325,0,0,1,.75191-.40751,4.59584,4.59584,0,0,1,.53733-.19477,4.02744,4.02744,0,0,1,.834-.15362,3.48822,3.48822,0,0,1,.448-.00455,3.06963,3.06963,0,0,1,.87652.17545,4.792,4.792,0,0,1,2.62151,3.46124c.14686.54526.25365,1.103.36284,1.65928.091.46363.18364.9263.30254,1.38a8.09756,8.09756,0,0,0,.45994,1.32639l6.75955-1.82918.98748-.2672,3.933-1.06432L214.513,175.59l.98691-.26707,7.60461-2.05785-.24621-.90962-.02671-.09866a2.58741,2.58741,0,0,1,1.169-2.89235c.01614-.00972.03284-.01859.04927-.028q.11038-.0627.22815-.11489c.02412-.01075.04781-.02191.07237-.03195a2.597,2.597,0,0,1,.30118-.10382l7.62108-2.06287a2.61594,2.61594,0,0,1,.25865-.05616,2.57593,2.57593,0,0,1,1.483.19635,2.51977,2.51977,0,0,1,.917.6999,2.63409,2.63409,0,0,1,.51242.97992l.01994.07367,7.941-2.14949-.24619-.90956-4.0527-14.97234Q235.51671,151.85673,231.92776,152.82819Z"/><path class="cls-12" d="M237.281,250.94044,224.68982,209.2742l.37817,1.39719-3.1316.84765-4.92038,1.33187-.37882-1.39948.003.01232,7.67543,32.035,6.42592,26.81277a5.02757,5.02757,0,0,0,6.13269,3.59766l.04678-.01242,1.75185-.47418a5.026,5.026,0,0,0,3.53878-6.16428l-.01321-.04791Z"/><path class="cls-8" d="M1085.816,170.47215l-20.62952,38.35938a15.3232,15.3232,0,0,0-15.55169,11.0211l12.84185-3.85979,5.75983,6.93447-.9823,8.9609-12.86957,3.86811a15.31373,15.31373,0,0,0,22.24451-20.77065l19.86-36.92848A15.30844,15.30844,0,0,0,1113.874,167.253l-12.84185,3.8598-5.75983-6.93456.9823-8.96093,12.86951-3.86814a15.31017,15.31017,0,0,0-23.30823,19.12293Z"/><path class="cls-11" d="M1088.35449,171.02052,1067.725,209.37988a15.32322,15.32322,0,0,0-15.5517,11.02112l12.84186-3.85979,5.75988,6.93447-.9823,8.9609-12.86956,3.86811a15.31372,15.31372,0,0,0,22.2445-20.77063l19.86-36.9285a15.30839,15.30839,0,0,0,17.385-10.80415l-12.84186,3.85981-5.75983-6.93455.9823-8.96094,12.86951-3.86813a15.31016,15.31016,0,0,0-23.30823,19.12294Z"/><path class="cls-9" d="M1107.26794,257.1767l5.13794-1.90062,3.2334-1.195q.65149-.24191,1.31372-.4384c.19568-.05965.3927-.117.58875-.17064.43994-.11917.88013-.22417,1.32507-.31573l.00232-.00147a.10972.10972,0,0,1,.02344-.00418c.13733-.03.27563-.05563.41394-.08125.48987-.0923.98327-.16759,1.47632-.2247.092-.011.184-.02214.27551-.03124.22693-.02341.451-.04353.67651-.06109.0868-.00637.17151-.01317.256-.01809.01.00054.01868-.0014.02662-.00137.101-.00667.20166-.01144.30212-.01639.26892-.01268.53857-.02115.80688-.02385.12244-.00326.24207-.00332.36365-.0028.1377.00053.27307.0025.41028.005l.01184.001c.13916.00291.28027.00639.42029.01358.56177.02325,1.12244.06648,1.68115.13357.08667.00988.17334.01975.26148.032.10046.01132.2.02658.302.04036.08618.0117.17187.02536.25769.03912.28284.04351.56616.09328.84851.14681.12707.02632.25232.052.37756.07776.16333.03552.32666.07092.491.1107.12427.02949.25049.05952.37415.09106l12.27063,3.12029h0L1164.453,155.79781l3.97461-17.20891-2.55139-1.17586-5.02246-2.31725-5.148-2.37338-4.37122-2.01574-4.64563,2.22047,2.27771,4.77168-4.77026,2.28008,2.281,4.77459-2.933,1.4011-1.83911.87849,2.27906,4.77406-4.77222,2.27956,2.281,4.77457-4.77209,2.27958,2.279,4.77407-4.77221,2.27958,2.281,4.77454-4.77222,2.27962,2.27906,4.77406-4.77222,2.27956,2.281,4.77456-4.7721,2.27959,2.27905,4.77411-4.77221,2.27956,2.281,4.77459-4.77221,2.27956,2.279,4.77406-4.77271,2.28147,2.2815,4.7727-4.77271,2.28143,2.27967,4.77217-4.77271,2.2815,2.28137,4.77264-4.77258,2.28153,2.27954,4.77214-4.7727,2.28149,2.28149,4.77259-4.7727,2.28149,2.27954,4.77223-4.77271,2.2815,2.21338,4.63371h0Q1106.89569,257.313,1107.26794,257.1767Z"/><path class="cls-16" d="M1096.04816,294.84323a6.9796,6.9796,0,0,1-1.25782-1.55566A6.9796,6.9796,0,0,0,1096.04816,294.84323Z"/><path class="cls-8" d="M1134.00427,298.9184a7.044,7.044,0,0,0,.21009-.6803l9.72009-38.22486a2.7293,2.7293,0,0,0-1.97229-3.31753l-.7655-.19464-12.27063-3.12029c-.12378-.03152-.24988-.06157-.37415-.09106-.16431-.03977-.32751-.07517-.491-.1107-.12524-.02573-.25049-.05144-.37756-.07776-.28247-.05353-.56567-.1033-.84851-.14681-.08569-.01376-.17151-.02743-.25769-.03912-.102-.01378-.20154-.029-.302-.04036-.08814-.01225-.17481-.02211-.26148-.032-.55871-.06709-1.1195-.11033-1.68115-.13357-.14-.00719-.281-.01067-.42029-.01358l-.01184-.001c-.13721-.00249-.27258-.00447-.41028-.005-.12146-.00051-.24109-.00044-.36365.00281-.26831.0027-.53808.01117-.80688.02385-.10059.005-.20117.00972-.30212.01639-.00806,0-.01673.00191-.02662.00137-.08447.00492-.16918.01172-.256.01808-.22546.01757-.44958.03771-.67651.0611-.09155.00909-.18359.02023-.27551.03124-.49305.05711-.98658.1324-1.47632.2247-.13831.02563-.27649.0513-.41394.08125a.10972.10972,0,0,0-.02344.00418l-.00232.00146c-.44494.09159-.88525.19657-1.32507.31574-.19605.05362-.39307.111-.58875.17064q-.66118.19682-1.31372.4384l-3.2334,1.195-5.13794,1.90062q-.37243.13645-.73327.30014l-.009.00378a12.07866,12.07866,0,0,0-1.2091.62512c-.08789.05063-.17444.10367-.25891.15714l-.043.02545c-.09216.05972-.18445.11941-.27466.17953-.09521.06308-.18872.12842-.28052.19425-.09363.0654-.18347.13177-.2738.2s-.18054.13651-.26764.20767q-.39742.31862-.76563.66684-.36886.35033-.70776.72632c-.07422.08453-.14838.16907-.22125.256-.145.17185-.2854.34906-.42236.52909-.06134.08178-.12323.16534-.183.24948-.174.24566-.34088.49514-.49585.75375-.03454.05612-.06952.11408-.10217.17069-.02881.04946-.05524.09747-.084.14694-.03364.06036-.06727.12076-.09937.1835-.07874.14215-.15363.28537-.22339.43182-.03168.06086-.06189.12415-.08984.18595-.024.0466-.04657.09561-.06684.14325-.0274.0599-.05474.11984-.08026.18017q-.10116.22985-.19207.46817c-.02411.06278-.04816.12564-.07074.1908q-.03324.0828-.0608.167c-.03521.09857-.0689.19943-.10028.29889-.02655.08038-.05072.15945-.07342.24081-.04779.15616-.09174.31321-.13245.47312l-5.28241,20.7731v-.00021l-.43573,1.7138a6.954,6.954,0,0,0-.20666,2.08151q.018.3416.06921.67695a6.95627,6.95627,0,0,0,.5863,1.92062q.14256.302.31324.58936a6.92827,6.92827,0,0,0,4.26269,3.18609l26.70825,6.7916a6.92952,6.92952,0,0,0,4.67762-.44934q.30211-.1427.58923-.31339a6.96084,6.96084,0,0,0,2.37354-2.3371q.18017-.29341.33032-.60376A6.93371,6.93371,0,0,0,1134.00427,298.9184Zm-31.76379-18.50361c.96557-3.797,4.11462-6.30282,6.99756-5.56967l17.9071,4.55356c2.88294.73316,4.45239,4.43884,3.48682,8.23581l-2.06995,8.14041-28.39154-7.21969Z"/><path class="cls-12" d="M1106.55176,254.6405l5.13794-1.90062,3.2334-1.195q.65148-.24191,1.31372-.4384c.19568-.05965.3927-.117.58874-.17064.43994-.11917.88013-.22417,1.32507-.31574l.00232-.00145a.11046.11046,0,0,1,.02344-.00418c.13733-.03.27564-.05563.41394-.08127.48987-.09228.98328-.16758,1.47632-.22468.092-.011.184-.02216.27551-.03125.22693-.02341.45105-.04354.67652-.0611.08679-.00636.17151-.01317.256-.01808.01.00053.01867-.0014.02661-.00136.101-.00668.20166-.01144.30212-.0164.26892-.01268.53858-.02115.80689-.02385.12243-.00327.24206-.00333.36365-.00281.13769.00054.27307.0025.41027.005l.01184.001c.13917.00292.28028.0064.42029.01357.56177.02325,1.12244.0665,1.68116.13357.08667.00989.17334.01975.26147.032.10046.01132.19995.02658.302.04036.08618.0117.17188.02538.25769.03912.28284.04351.56616.0933.84851.14681.12708.02634.25232.052.37757.07776.16333.03552.32666.07092.491.1107.12427.0295.25049.05954.37415.09107l12.27063,3.12026h0l23.25622-100.70326,3.97461-17.20891-2.55139-1.17585-5.02246-2.31725-5.148-2.3734-4.37121-2.01574-4.64563,2.22047,2.27771,4.77168-4.77027,2.28008,2.281,4.7746-2.933,1.40109-1.83911.87849,2.27906,4.77408-4.77222,2.27956,2.281,4.77456-4.7721,2.27959,2.279,4.77408-4.77221,2.27959,2.281,4.77453-4.77221,2.27962,2.27905,4.77406-4.77222,2.27956,2.281,4.77457-4.7721,2.27958,2.27906,4.7741-4.77222,2.27955,2.281,4.7746-4.77221,2.27956,2.279,4.77406-4.7727,2.28146,2.28149,4.77272-4.77271,2.28142,2.27967,4.77217-4.77271,2.2815,2.28137,4.77265-4.77258,2.28153,2.27954,4.77212-4.7727,2.2815,2.28149,4.77258-4.7727,2.2815,2.27954,4.77221-4.77271,2.2815,2.21338,4.63369h0Q1106.17938,254.77686,1106.55176,254.6405Z"/><path class="cls-12" d="M1095.33191,292.307a6.97949,6.97949,0,0,1-1.25781-1.5557A6.97949,6.97949,0,0,0,1095.33191,292.307Z"/><path class="cls-12" d="M1096.41022,293.12488a6.91521,6.91521,0,0,1-1.07831-.81781A6.91521,6.91521,0,0,0,1096.41022,293.12488Z"/><path class="cls-12" d="M1133.28809,296.3822a7.03944,7.03944,0,0,0,.21008-.6803l9.72009-38.22485a2.7293,2.7293,0,0,0-1.97229-3.31753l-.7655-.19466-12.27063-3.12027c-.12378-.03153-.24988-.06159-.37415-.09107-.1643-.03976-.32751-.07516-.491-.1107-.12525-.02572-.25049-.05144-.37757-.07776-.28247-.05351-.56567-.1033-.84851-.1468-.08569-.01376-.17151-.02744-.25769-.03912-.102-.01378-.20154-.029-.302-.04036-.08813-.01224-.1748-.0221-.26147-.032-.55872-.06708-1.11951-.11034-1.68116-.13358-.14-.00718-.281-.01065-.42029-.01356l-.01184-.001c-.1372-.0025-.27258-.00449-.41027-.005-.12146-.00052-.24109-.00045-.36365.0028-.26831.0027-.53809.01117-.80689.02385-.10058.005-.20117.00972-.30212.01641-.00806,0-.01672.00189-.02661.00135-.08447.00492-.16919.01172-.256.01809-.22547.01756-.44959.0377-.67652.06109-.09155.0091-.18359.02023-.27551.03125-.493.05712-.98657.1324-1.47632.22469-.1383.02563-.27649.0513-.41394.08127a.10921.10921,0,0,0-.02344.00418l-.00232.00145c-.44494.09158-.88525.19656-1.32507.31573-.196.05364-.39306.111-.58874.17064q-.6612.19685-1.31372.4384l-3.2334,1.195-5.13794,1.90062q-.37225.13649-.73328.30015l-.009.00377a12.07372,12.07372,0,0,0-1.20911.62514c-.08789.05061-.17444.10368-.25891.15713l-.043.02546c-.09216.05972-.18445.11944-.27466.17955-.09515.06306-.18878.1284-.28057.19423-.09363.06539-.18348.13177-.27387.2-.09033.06827-.1806.1365-.26764.2077q-.39743.3186-.76562.66684-.36886.35032-.70777.72629c-.07422.08456-.14837.1691-.22125.256-.145.17184-.2854.34906-.42236.52908-.06134.08182-.12323.16538-.183.24948-.174.24567-.34088.49515-.49585.75376-.03454.05612-.06952.11407-.10217.17068-.02881.04947-.05524.09748-.084.14694-.03363.06037-.06726.12076-.09937.18351-.07873.14218-.15362.28537-.22339.43185-.03167.06082-.06189.12415-.08984.18591-.024.0466-.04657.09562-.06683.14325-.02741.05991-.05475.11985-.08027.18018q-.10116.2298-.19207.46817c-.02411.06277-.04816.12564-.07074.19076q-.03324.08286-.06079.16706c-.03522.09854-.06891.1994-.10028.29889-.02656.08038-.05073.15942-.07343.24081-.04779.15613-.09174.3132-.13245.47308l-5.28241,20.77311V283.769l-.43573,1.71381a6.9539,6.9539,0,0,0-.20666,2.08151q.018.34162.06921.67694a6.956,6.956,0,0,0,.58631,1.92063q.14254.30207.31323.58935a6.92824,6.92824,0,0,0,4.26269,3.1861l26.70826,6.79159a6.92939,6.92939,0,0,0,4.67761-.44937q.30211-.14268.58923-.31338a6.96076,6.96076,0,0,0,2.37354-2.33707q.18016-.29343.33032-.60376A6.97214,6.97214,0,0,0,1133.28809,296.3822Zm-31.7638-18.5036c.96558-3.797,4.11463-6.30282,6.99756-5.56967l17.90711,4.55356c2.88293.73315,4.45239,4.43884,3.48681,8.23581l-2.06994,8.14041-28.39155-7.21973Z"/><path class="cls-9" d="M98.5971,301.03882l-.92016-.70383c-4.06687-3.11081-4.50525-9.36395-.9796-13.97308l-.84178,1.10046c-3.52564,4.60916-3.08727,10.86225.97961,13.97312l.92013.70385c4.06688,3.11084,10.21671,1.89725,13.74235-2.71191l.84178-1.10046C108.81381,302.93607,102.664,304.14969,98.5971,301.03882Z"/><rect class="cls-8" x="131.89287" y="223.36478" width="47.26468" height="4.59517" transform="translate(-118.20345 212.08994) rotate(-52.58701)"/><polygon class="cls-14" points="177.415 194.471 168.058 205.496 171.708 208.288 179.9 196.371 177.415 194.471"/><path class="cls-8" d="M146.56649,248.563l-10.79876-8.26017a1.89042,1.89042,0,0,0-2.65008.35284l-.00007.00008-1.69109,2.21078a1.89063,1.89063,0,0,0,.353,2.65027l.11783.09013-.88065.97939-6.89031,7.78772a2.50446,2.50446,0,0,1-3.3675.53183L95.85554,287.46234c-3.52556,4.6091-3.08717,10.86221.97956,13.97308l.92019.70392c4.067,3.11081,10.21667,1.89725,13.74245-2.712L136.401,266.871a2.50459,2.50459,0,0,1-.36819-3.38943l5.71281-8.68848.71473-1.10622.11783.09014a1.8904,1.8904,0,0,0,2.65-.35288l.00009-.00012,1.69121-2.21084a1.8905,1.8905,0,0,0-.353-2.65015Z"/><polygon class="cls-12" points="176.794 194.313 167.437 205.339 138.721 242.88 142.371 245.671 171.087 208.13 179.279 196.214 176.794 194.313"/><path class="cls-12" d="M145.94532,248.40565l-10.79865-8.26011a1.89041,1.89041,0,0,0-2.65006.35281l-.00008.00011-1.6911,2.21078a1.89053,1.89053,0,0,0,.35295,2.65021l.00005,0,.11783.09007-.88064.97945-6.89032,7.7877a2.50444,2.50444,0,0,1-3.36749.53183L95.23448,287.305c-3.52567,4.6091-3.08728,10.86225.97956,13.97312l.92008.70388c4.06706,3.11075,10.21678,1.89725,13.74256-2.712l24.90313-32.55643a2.50461,2.50461,0,0,1-.36808-3.38937l5.7127-8.68848.71484-1.10621.11783.09007a1.89036,1.89036,0,0,0,2.65-.35282l.00015-.00018,1.6912-2.21078A1.8905,1.8905,0,0,0,145.94532,248.40565Z"/><path class="cls-8" d="M197.093,126.48076l2.83464-.12089-.20743-5.02972-3.18891.12957a16.92872,16.92872,0,0,0-.99382-2.71356L198.251,117.156l-2.54936-4.34694-2.96431,1.737a16.96173,16.96173,0,0,0-2.03088-1.9098l1.74578-2.826-4.28655-2.65307-1.8494,2.99016a17.10755,17.10755,0,0,0-2.22963-.68278v-3.05924h-5.03827v2.6877a15.473,15.473,0,0,0-2.21235.30246l-1.14077-2.463-4.57164,2.12591.98514,2.11732a16.86558,16.86558,0,0,0-2.705,1.89261L167.5457,111.651l-3.0507,4.01855,1.60753,1.21852a17.26242,17.26242,0,0,0-1.52108,3.07661l-2.03947-.32841-.80375,4.97782,1.81486.29387c-.01736.31115-.04323.61361-.04323.92466a16.68363,16.68363,0,0,0,.216,2.56672l-1.858.63087,1.616,4.77909,1.74569-.59624a16.42088,16.42088,0,0,0,1.8495,2.94694l-1.40869,1.48645,3.66427,3.46543,1.4-1.47776a16.59942,16.59942,0,0,0,2.94685,1.642l-.61351,2.20377,4.85684,1.34819.63087-2.28153a16.95126,16.95126,0,0,0,1.763.095c.28519,0,.56179-.026.847-.04322l.2851,1.9099,4.98651-.75186-.32842-2.16055a16.41544,16.41544,0,0,0,3.03339-1.47776l1.28769,1.72841,4.04449-3.00743-1.47777-1.99634a17.16489,17.16489,0,0,0,1.87536-2.61853l2.22962,1.06291,2.16923-4.55429-2.56681-1.21861A16.72341,16.72341,0,0,0,197.093,126.48076Zm-16.2557,2.0742a2.934,2.934,0,1,1,2.92968-2.93836,2.934,2.934,0,0,1-2.92968,2.93836Z"/><path class="cls-12" d="M197.10388,125.27178l2.83464-.12089-.20743-5.02973-3.18891.12957a16.92968,16.92968,0,0,0-.99382-2.71356l2.71356-1.59016-2.54935-4.347-2.96431,1.737a16.96241,16.96241,0,0,0-2.03088-1.90979l1.74578-2.82605-4.28655-2.65307-1.84941,2.99017a17.10708,17.10708,0,0,0-2.22963-.68278v-3.05925h-5.03831V107.884a15.4731,15.4731,0,0,0-2.21236.30246l-1.14076-2.463-4.57165,2.12591.98515,2.11732a16.86786,16.86786,0,0,0-2.705,1.89263l-1.85806-1.41732-3.05066,4.01854,1.60753,1.21853a17.26175,17.26175,0,0,0-1.52108,3.07661l-2.03947-.32843-.80375,4.97783,1.81485.29387c-.01737.31114-.04322.6136-.04322.92465a16.68478,16.68478,0,0,0,.216,2.56672l-1.858.63089,1.616,4.77907,1.74569-.59624a16.42175,16.42175,0,0,0,1.84953,2.947l-1.4087,1.48645,3.66427,3.46543,1.4-1.47777a16.59872,16.59872,0,0,0,2.94685,1.642l-.61351,2.20376,4.85684,1.34821.63087-2.28153a16.95126,16.95126,0,0,0,1.763.095c.28519,0,.56179-.026.847-.04322l.2851,1.9099,4.98651-.75186-.32841-2.16054a16.41643,16.41643,0,0,0,3.03339-1.47777l1.2877,1.72843,4.04449-3.00745-1.47777-1.99634a17.16414,17.16414,0,0,0,1.87535-2.61853l2.22963,1.06291,2.16923-4.55427-2.56682-1.21861A16.7232,16.7232,0,0,0,197.10388,125.27178ZM180.84817,127.346a2.934,2.934,0,1,1,2.92967-2.93835A2.934,2.934,0,0,1,180.84817,127.346Z"/><rect class="cls-9" x="160.50028" y="-17.26863" width="97.14672" height="27.28326" transform="translate(117.99224 184.59925) rotate(-63.18411)"/><path class="cls-3" d="M218.823-54.04525c-.415,0-.63256.36733-1.07239,1.23951Q195.94874-9.57133,174.15009,33.66457c-.09556.18935-.20054.37538-.279.57181-.25222.63176-.19139.8964.38227,1.24168.605.36406,1.23758.68392,1.868,1.00374q11.01979,5.5908,22.043,11.175c.15759.07991.31411.16347.47685.23164a2.56688,2.56688,0,0,0,.90887.25834c.38775,0,.61641-.26588.95977-.89113.17016-.30979.32453-.62825.484-.94378Q211.76059,25.013,222.52676,3.71381l-.03305-.01669q10.838-21.44088,21.67278-42.88349c.95889-1.89889.94923-1.93171-1.00162-2.90506q-11.53138-5.75344-23.07577-11.4809A3.44723,3.44723,0,0,0,218.823-54.04525ZM199.38379,47.304,174.59422,34.77321q22.18757-43.89364,44.416-87.8683L243.78667-40.571a21.15073,21.15073,0,0,1-2.40847,4.67257c-.3168-.16016-.65461-.33248-.9938-.50211q-4.03521-2.01844-8.07346-4.03088a1.79939,1.79939,0,0,0-.74791-.30707.68448.68448,0,0,0-.43258.16895c-.02745.57214.4483.67024.79474.8498q3.15753,1.63643,6.32722,3.2494c.90718.464,1.81831.92,2.79241,1.41238-.45174.89371-.859,1.69939-1.3,2.57173-1.22378-.36153-2.23933-1.28528-3.51025-1.48877-.24045.53677.04475.71678.32277.86881.58976.32239,1.19143.62314,1.78926.9308.31012.15965.62233.31511.993.50245-.42285.83652-.81373,1.60983-1.26356,2.49971-1.1751-.594-2.30348-1.16751-3.435-1.73466a9.7271,9.7271,0,0,0-1.1551-.5337.73766.73766,0,0,0-.24234-.03847,1.47413,1.47413,0,0,0-.54287.12524c.57143.90548,1.55846,1.14865,2.36919,1.62922.81627.48388,1.69035.87011,2.60353,1.33171-.43455.85966-.80838,1.59921-1.2,2.374-1.15463-.26967-2.09635-1.12929-3.381-1.25263.07554.92651.77792,1.00065,1.2413,1.28971.50545.31518,1.061.54989,1.67091.85818-.44827.88676-.84977,1.68106-1.21463,2.40288-3.368-1.60685-6.68162-3.18906-10.00026-4.76068a.05783.05783,0,0,0-.025-.00514,1.32235,1.32235,0,0,0-.28122.12673c-.00624.5462.42394.693.78021.87857q2.54222,1.3242,5.09476,2.6284c1.31577.6731,2.6375,1.33478,4.00121,2.0241L233.4433-20.017c-1.09361-.24287-1.92275-1.11351-3.04784-1.11351a2.19747,2.19747,0,0,0-.30238.021c.62753,1.12259,1.945,1.24929,2.86745,2.04294l-1.17772,2.32989c-.70864-.3582-1.3898-.70792-2.07581-1.04789-.72923-.36139-1.45711-.72645-2.19786-1.06277a5.43965,5.43965,0,0,0-.84441-.23426c-.238.67837.19246.81452.51917.98644,1.0647.56022,2.13863,1.10307,3.20933,1.6517.31.15878.62169.3145.99132.50135-.40986.81088-.78529,1.55354-1.20361,2.38112-.62808-.29138-1.21253-.60621-1.82875-.83564-.46073-.17152-.86009-.59139-1.45712-.59139a1.47488,1.47488,0,0,0-.52092.10085c.85534,1.23705,2.34715,1.34378,3.34269,2.24861-.38731.76624-.77858,1.54031-1.2021,2.37814-2.42043-1.22349-4.784-2.41917-7.14851-3.61286-.63178-.319-1.26632-.63252-1.90018-.94737a2.06066,2.06066,0,0,0-.57552-.2628.68964.68964,0,0,0-.09362-.00609,3.97646,3.97646,0,0,0-.56348.09182c.08511.2014.12071.457.26739.59089a3.22364,3.22364,0,0,0,.73922.40908c2.935,1.48473,5.87063,2.96829,8.8768,4.48786l-1.15276,2.28047c-.56988-.25909-1.12477-.54689-1.70578-.765-.39822-.14958-.7645-.489-1.21786-.489a.99217.99217,0,0,0-.46183.11956c.066.79583.78089.85708,1.25153,1.149.50636.31419,1.06148.54971,1.61984.832a7.84431,7.84431,0,0,1-1.03718,2.3141C223.78671-4.796,222.25-5.486,220.70715-6.16222a.04565.04565,0,0,0-.01852-.00361c-.061,0-.16348.09409-.24724.13893-.08092.545.34921.65332.67452.82306,1.00386.52388,2.01588,1.03214,3.02493,1.54612.25024.12745.50111.25348.81608.41268l-1.08117,2.13888c-1.10468-.30622-2.03511-1.07676-3.24748-1.2718-.00948.947.71539,1.004,1.1748,1.2873.50583.312,1.05859.548,1.64635.8451-.47118.93217-.89489,1.77035-1.37218,2.71458-.37968-.19194-.71561-.36644-1.05554-.53288-2.76506-1.35356-5.52744-2.71275-8.3008-4.0492a1.87,1.87,0,0,0-.74815-.32262.62618.62618,0,0,0-.4121.1709c.02021.55914.50588.64983.84873.831,2.59707,1.37169,5.20448,2.72365,7.80977,4.07982.43661.22732.8784.445,1.39158.70438-.35518.70268-.6804,1.346-1.0607,2.0984-.623-.29154-1.23484-.62525-1.88127-.866-.422-.15714-.80662-.55947-1.29428-.55947a1.03168,1.03168,0,0,0-.55273.17364c.31286.75155,1.05571.82743,1.59883,1.15828.53518.326,1.11645.57643,1.739.89112L218.91916,8.7003c-.80769-.36417-1.60307-.71828-2.39458-1.08094-.61123-.28009-1.21153-.58474-1.82908-.84957a4.13149,4.13149,0,0,0-.75123-.17019c-.13.56311.23067.65927.48667.80268,1.08038.60557,2.17033,1.194,3.2549,1.792.24278.13394.478.28148.75331.44439l-1.18746,2.34917c-1.14389-.45813-2.21437-.88847-3.28874-1.309l-.00578-.001c-.03334,0-.10488.08873-.24838.20863.84468.93109,2.073,1.25917,3.0919,2.00568-.45952.90909-.91389,1.808-1.39575,2.76121-.27544-.11912-.5305-.21637-.77411-.33681-2.66478-1.31708-5.3251-2.64337-7.9943-3.95145a2.14828,2.14828,0,0,0-.91363-.35013.88522.88522,0,0,0-.39163.09473c-.07787.54863.36677.63616.67919.803q2.99693,1.59962,6.00466,3.17876c.93761.49144,1.8884.95751,2.91162,1.47474l-1.00668,1.99151c-.56163-.28389-1.11688-.56855-1.67586-.84563a4.58211,4.58211,0,0,0-.96472-.43091.26881.26881,0,0,0-.05977-.00645,2.1104,2.1104,0,0,0-.56578.21228c.09433.17126.14539.42166.29007.50073.83292.4553,1.68808.87,2.60339,1.33267-.44326.87693-.81614,1.61462-1.21609,2.4058-1.78-.5831-3.27937-1.86052-5.27572-2.24066.3106.90791.31014.90882,2.20335,1.87225.84718.43118,1.69651.85809,2.60409,1.31684-.37008.73214-.69768,1.38019-1.03187,2.04136-1.136-.207-1.99213-1.206-3.25882-1.206q-.106,0-.21612.00966c.18232.89241.91723.95453,1.40209,1.281.49188.33112,1.031.59213,1.59111.90738-.44559.88151-.87065,1.72238-1.32765,2.62649-.29009-.122-.54581-.21343-.78728-.33364-2.72415-1.35683-5.44346-2.7234-8.17162-4.072a11.80113,11.80113,0,0,0-1.2313-.45254l-.15637.20091a1.77005,1.77005,0,0,0,.31223.55708,4.59638,4.59638,0,0,0,.82857.46887q4.0147,2.059,8.03087,4.11527c.21723.11137.42629.2387.70391.39513l-1.22628,2.426c-.6532-.33017-1.24788-.6346-1.84643-.93151a2.85606,2.85606,0,0,0-.775-.33355.38555.38555,0,0,0-.05907-.00441,2.35264,2.35264,0,0,0-.58178.17762c.088.173.1353.396.273.50783a6.19824,6.19824,0,0,0,.81877.48794c.54776.31822,1.0948.63754,1.70784.9946l-1.33728,2.64554c-.971-.475-1.913-.9352-2.8545-1.39645-.4767-.23347-.94349-.49066-1.43294-.693a3.11575,3.11575,0,0,0-.74471-.11606c-.15343.61426.22077.73614.52172.895,1.03282.545,2.06961,1.08236,3.10587,1.62069.30841.16025.62018.3142.99461.50346l-1.06617,2.1092c-1.05391-.24329-1.86213-1.05-2.99151-1.11629-.10412.88928.58939.95206,1.022,1.21306.476.28716.99006.51108,1.53437.7862l-1.34444,2.6597c-.29547-.126-.552-.22181-.79669-.34173-2.82808-1.38586-5.652-2.78015-8.484-4.1579a1.96479,1.96479,0,0,0-.81559-.32335.7345.7345,0,0,0-.37293.10641c-.0737.53709.37.6458.68141.81384q2.28882,1.23525,4.59914,2.43034c1.53506.79276,3.0823,1.5618,4.70286,2.381-.8086,1.59963-1.58109,3.12788-2.39925,4.74643Z"/><path class="cls-8" d="M1189.05786,171.77968l4.298-8.05638,1.7262,8.96647L1182.41272,256.553a3.04628,3.04628,0,0,1-3.46716,2.557h0a3.04622,3.04622,0,0,1-2.557-3.46714Z"/><path class="cls-12" d="M1189.65515,171.94353l4.298-8.05638,1.72632,8.96647L1183.01,256.71683a3.04626,3.04626,0,0,1-3.46716,2.557h0a3.0462,3.0462,0,0,1-2.557-3.46713Z"/><path class="cls-8" d="M242.50687,48.09228a7.13577,7.13577,0,1,1-1.67263,13.43131l-6.87356,59.99866,17.8528,2.22325,16.397-132.39513-17.8528-2.22324Zm4.50019,41.45765a6.54534,6.54534,0,1,1-.00009,0Zm9.92046-80.38842a7.1354,7.1354,0,1,1-7.96249,6.19892,7.1354,7.1354,0,0,1,7.96249-6.19892Z"/><path class="cls-9" d="M234.54457,121.59526l-.901,7.23483c-.25633,2.05837.63062,3.86338,1.98106,4.03156l11.79447,1.46879c1.35043.16817,2.653-1.36416,2.90933-3.42254l.901-7.23483Z"/><polygon class="cls-3" points="240.834 61.524 241.046 59.827 241.046 59.827 240.834 61.524"/><polygon class="cls-3" points="242.295 49.791 242.507 48.092 242.507 48.092 241.534 55.905 242.295 49.791 242.295 49.791"/><path class="cls-3" d="M243.04118,62.16951a7.13575,7.13575,0,1,0-.53431-14.07723l-.21152,1.69853.00119.00014c.14111-.04507.28467-.08309.42911-.1142a5.48573,5.48573,0,0,1,.92448-.124,5.5698,5.5698,0,0,1,2.76192.583q.20091.10125.38988.21629a5.54353,5.54353,0,0,1-1.24979,10.036c-.13388.04094-.27069.07813-.41.10822a5.46567,5.46567,0,0,1-.93531.128,5.58651,5.58651,0,0,1-.96942-.03637,5.50243,5.50243,0,0,1-1.8217-.55554c-.126-.06316-.2495-.13275-.36922-.20526V59.827l-.001-.00013-.21131,1.69684A7.135,7.135,0,0,0,243.04118,62.16951Z"/><polygon class="cls-9" points="241.046 59.827 241.046 59.827 241.534 55.905 241.046 59.827"/><polygon class="cls-9" points="242.295 49.791 242.295 49.791 241.534 55.905 241.046 59.827 241.046 59.827 242.295 49.791"/><polygon class="cls-9" points="241.047 59.827 241.35 57.39 241.381 57.144 241.381 57.144 241.962 52.472 241.962 52.472 242.004 52.139 242.004 52.139 242.296 49.791 242.297 49.791 242.295 49.791 241.046 59.827 241.047 59.827"/><path class="cls-9" d="M246.41136,50.13574q.20082.10126.38985.21628l-.29234,2.34757h0l-.04157.33368h0l-.58179,4.67178h0l-.04025.32315-.29385,2.35978c-.13388.04091-.27065.07809-.41.10822a5.46761,5.46761,0,0,1-.93461.12794,5.46555,5.46555,0,0,0,.9353-.128c.1393-.03009.27609-.06729.41-.10822A5.54354,5.54354,0,0,0,246.80193,50.352q-.189-.115-.38988-.21629a5.5698,5.5698,0,0,0-2.76192-.583,5.57018,5.57018,0,0,1,2.76125.583Z"/><path class="cls-9" d="M242.72635,49.67673a5.489,5.489,0,0,1,.92377-.124,5.487,5.487,0,0,0-.92449.124c-.14444.03111-.288.06913-.42911.1142l.00045.00007C242.43819,49.74591,242.58183,49.70788,242.72635,49.67673Z"/><path class="cls-9" d="M241.4164,60.03221c-.126-.06313-.24945-.13274-.36919-.20525l-.00069-.00008v.0001c.11972.0725.24324.1421.36922.20526a5.50243,5.50243,0,0,0,1.8217.55554,5.58651,5.58651,0,0,0,.96942.03637,5.58513,5.58513,0,0,1-.9687-.03638A5.50218,5.50218,0,0,1,241.4164,60.03221Z"/><path class="cls-9" d="M245.55142,60.388l.29386-2.35978-.00132.01054-4.50491-.561.01094-.08782-.30347,2.437.00069.00008c.11974.07251.24324.14212.36919.20525a5.50207,5.50207,0,0,0,1.82174.55556,5.58429,5.58429,0,0,0,.96871.03638,5.46562,5.46562,0,0,0,.93461-.12794C245.28078,60.46608,245.41754,60.4289,245.55142,60.388Z"/><path class="cls-9" d="M242.00394,52.13858l4.50493.561.29234-2.34757q-.189-.115-.38985-.21628a5.54322,5.54322,0,0,0-3.685-.459c-.14451.03115-.28816.06918-.42936.11429l-.00045-.00007-.00024.00007Z"/><rect class="cls-9" x="241.57003" y="52.8188" width="4.70786" height="4.53972" transform="translate(159.11448 290.33535) rotate(-82.90149)"/><polygon class="cls-3" points="241.962 52.472 242.004 52.139 242.004 52.139 241.962 52.472"/><rect class="cls-3" x="246.31997" y="52.86641" width="0.33626" height="0.00002" transform="translate(163.55877 290.92937) rotate(-82.89952)"/><rect class="cls-3" x="244.06749" y="50.31607" width="0.33627" height="4.53972" transform="translate(161.87062 288.45099) rotate(-82.90135)"/><polygon class="cls-3" points="245.886 57.705 245.886 57.705 245.845 58.028 245.886 57.705"/><polygon class="cls-3" points="241.381 57.144 241.35 57.39 241.381 57.144 241.381 57.144"/><polygon class="cls-3" points="245.844 58.039 245.845 58.028 245.886 57.705 241.381 57.144 241.35 57.39 241.339 57.478 245.844 58.039"/><path class="cls-3" d="M239.04457,95.74886a7.13541,7.13541,0,1,0,7.96249-6.19893h0A7.13541,7.13541,0,0,0,239.04457,95.74886Zm7.76569-4.61853a5.5434,5.5434,0,0,1,4.61448,3.87188c.0409.13385.0781.27064.10819.40995a5.565,5.565,0,0,1-.464,3.72573c-.06314.126-.13273.24948-.20523.36921a5.54236,5.54236,0,0,1-10.036-1.24978c-.04511-.14116-.08313-.28485-.11431-.42936a5.558,5.558,0,0,1,.459-3.68567q.10128-.2009.2163-.38989A5.5391,5.5391,0,0,1,246.81026,91.13033Z"/><path class="cls-9" d="M248.51448,99.21454l-.12968-.01615-4.87577-.60718h0l-.33371-.04156h0l-2.34753-.29234a5.54236,5.54236,0,0,0,10.036,1.24978l-2.34924-.29255Z"/><path class="cls-9" d="M248.74181,94.66809h0l.29324.03653,2.38968.2976a5.54355,5.54355,0,0,0-10.036-1.24982Z"/><path class="cls-9" d="M249.07549,94.70965l-.561,4.50489,2.34924.29255c.0725-.11972.14209-.24321.20523-.36921a5.565,5.565,0,0,0,.464-3.72573c-.03009-.1393-.06731-.2761-.10819-.40995l-2.38967-.29759Z"/><path class="cls-9" d="M243.73631,94.04475l.33373.04155-.561,4.50491,4.87577.60718-.204-.02542.561-4.50489-7.353-.9157q-.115.189-.21629.38989a5.558,5.558,0,0,0-.459,3.68567c.03117.14453.06918.2882.1143.42936l2.34753.29234Z"/><rect class="cls-3" x="243.34217" y="98.4023" height="0.3363"/><rect class="cls-3" x="241.35279" y="96.14983" width="4.5397" height="0.33629" transform="translate(117.93642 326.17036) rotate(-82.90132)"/><polygon class="cls-3" points="248.742 94.668 248.742 94.668 249.035 94.705 248.742 94.668"/><polygon class="cls-3" points="248.514 99.215 248.514 99.215 248.385 99.198 248.514 99.215"/><polygon class="cls-3" points="248.385 99.198 248.514 99.215 249.075 94.71 249.035 94.705 248.742 94.668 248.181 99.173 248.385 99.198"/><path class="cls-3" d="M248.965,15.36043a7.13541,7.13541,0,1,0,7.96252-6.19891l0,0A7.13541,7.13541,0,0,0,248.965,15.36043Zm7.76568-4.61852a5.54342,5.54342,0,0,1,4.6145,3.87189c.04087.13384.0781.27066.10819.40993a5.56513,5.56513,0,0,1-.464,3.72573c-.06315.126-.13273.24951-.20521.36925a5.54239,5.54239,0,0,1-10.036-1.24982c-.0451-.14116-.08311-.28482-.11427-.42934a5.55811,5.55811,0,0,1,.459-3.68568q.10128-.20091.21631-.38986a5.53912,5.53912,0,0,1,5.42152-2.6221Z"/><path class="cls-9" d="M258.66228,14.27967h0l.33366.04156h0l2.34927.29257a5.54351,5.54351,0,0,0-10.036-1.24979Z"/><path class="cls-9" d="M258.435,18.82616l-.29428-.03666-4.82936-.60141-.21552-.02684h0l-2.34758-.29236a5.54239,5.54239,0,0,0,10.036,1.24982l-2.34926-.29257Z"/><path class="cls-9" d="M258.43494,18.82614l2.34925.29257c.07248-.11974.14208-.24327.20522-.36925a5.56513,5.56513,0,0,0,.464-3.72573c-.03007-.13927-.0673-.27609-.10818-.40993l-2.34927-.29257Z"/><path class="cls-9" d="M253.65678,13.65635l.33371.04156-.561,4.50488-.11816-.0147,4.82936.60141-.0394-.00492.561-4.50491-7.353-.91566q-.115.189-.21631.38986a5.55805,5.55805,0,0,0-.459,3.68568c.03116.14452.06918.28818.11427.42934l2.34758.29236Z"/><polygon class="cls-3" points="253.096 18.161 253.311 18.188 253.096 18.161 253.096 18.161"/><polygon class="cls-3" points="253.99 13.698 253.657 13.656 253.096 18.161 253.311 18.188 253.429 18.203 253.99 13.698"/><rect class="cls-3" x="258.82911" y="14.13232" height="0.33625"/><polygon class="cls-3" points="258.435 18.826 258.435 18.826 258.141 18.789 258.435 18.826"/><polygon class="cls-3" points="258.141 18.789 258.435 18.826 258.996 14.321 258.662 14.28 258.101 18.785 258.141 18.789"/><path class="cls-12" d="M243.25777,47.76366a7.13577,7.13577,0,1,1-1.67263,13.4313l-6.87356,59.99866,17.8528,2.22326,16.397-132.39513-17.8528-2.22325Zm4.5002,41.45763a7.13209,7.13209,0,1,1-.00008,0l.00011,0Zm9.92045-80.38841a7.1354,7.1354,0,1,1-7.96249,6.19892,7.13539,7.13539,0,0,1,7.96249-6.19892Z"/><path class="cls-12" d="M235.29547,121.26663l-.901,7.23483c-.25633,2.05837.63062,3.86338,1.98106,4.03154L248.17,134.0018c1.35043.16817,2.653-1.36417,2.90933-3.42255l.901-7.23483Z"/><polygon class="cls-17" points="241.585 61.195 241.796 59.498 241.796 59.498 241.585 61.195"/><polygon class="cls-12" points="243.046 49.462 243.258 47.764 243.258 47.764 242.285 55.576 243.046 49.462 243.046 49.462"/><path class="cls-12" d="M243.79208,61.84088a7.13575,7.13575,0,1,0-.53431-14.07722l-.21152,1.69852.00119.00015c.14111-.04507.28467-.08309.42911-.11421a5.48676,5.48676,0,0,1,.92448-.124,5.56969,5.56969,0,0,1,2.76192.583q.20091.10127.38988.2163a5.54353,5.54353,0,0,1-1.24979,10.036c-.13388.04093-.27069.07812-.41.10822a5.46666,5.46666,0,0,1-.93531.128,5.58727,5.58727,0,0,1-.9694-.03636,5.50264,5.50264,0,0,1-1.82172-.55555c-.126-.06316-.2495-.13275-.36922-.20525v-.00011l-.001-.00013-.21131,1.69684A7.135,7.135,0,0,0,243.79208,61.84088Z"/><polygon class="cls-12" points="241.796 59.498 241.796 59.498 242.285 55.576 241.796 59.498"/><polygon class="cls-12" points="243.046 49.462 243.046 49.462 242.285 55.576 241.796 59.498 241.796 59.498 243.046 49.462"/><polygon class="cls-12" points="241.797 59.498 242.101 57.061 242.132 56.815 242.132 56.815 242.713 52.144 242.713 52.144 242.755 51.81 242.755 51.81 243.047 49.462 243.047 49.462 243.046 49.462 241.796 59.498 241.797 59.498"/><path class="cls-12" d="M247.16226,49.80711q.20085.10126.38985.21628l-.29234,2.34757h0l-.04157.33368h0l-.58179,4.67178h0l-.04025.32315-.29385,2.35978c-.13388.04091-.27065.0781-.41.10822a5.46562,5.46562,0,0,1-.93461.12794,5.46654,5.46654,0,0,0,.9353-.128c.1393-.0301.27609-.06729.41-.10822a5.54352,5.54352,0,0,0,1.24979-10.03595q-.189-.115-.38988-.2163a5.56968,5.56968,0,0,0-2.76191-.583,5.5701,5.5701,0,0,1,2.76123.583Z"/><path class="cls-12" d="M243.47725,49.34811a5.48721,5.48721,0,0,1,.92378-.124,5.48573,5.48573,0,0,0-.92448.124c-.14444.03112-.288.06914-.42911.11421l.00046.00006C243.18909,49.41728,243.33273,49.37925,243.47725,49.34811Z"/><path class="cls-12" d="M242.1673,59.70358c-.126-.06313-.24945-.13274-.36919-.20524l-.00069-.00009v.00011c.11974.0725.24324.14209.36922.20525a5.50264,5.50264,0,0,0,1.82172.55555,5.58727,5.58727,0,0,0,.9694.03636,5.58513,5.58513,0,0,1-.9687-.03638A5.50218,5.50218,0,0,1,242.1673,59.70358Z"/><path class="cls-12" d="M246.30232,60.05936l.29386-2.35978-.00132.01054-4.50489-.561.01092-.08783-.30347,2.437.00069.00009c.11974.0725.24324.14211.36919.20524a5.50207,5.50207,0,0,0,1.82174.55556,5.58528,5.58528,0,0,0,.96871.03638,5.46562,5.46562,0,0,0,.93461-.12794C246.03168,60.13746,246.16844,60.10027,246.30232,60.05936Z"/><path class="cls-12" d="M242.75484,51.81l4.50493.561.29234-2.34757q-.189-.115-.38985-.21628a5.54328,5.54328,0,0,0-3.685-.459c-.14451.03114-.28816.06917-.42936.11428l-.00046-.00006-.00024.00007Z"/><rect class="cls-18" x="242.32093" y="52.49018" width="4.70786" height="4.53972" transform="translate(160.09869 290.79249) rotate(-82.90149)"/><polygon class="cls-19" points="242.713 52.144 242.755 51.81 242.755 51.81 242.713 52.144"/><rect class="cls-20" x="247.07087" y="52.53779" width="0.33626" height="0.00002" transform="translate(164.54296 291.38651) rotate(-82.89952)"/><rect class="cls-21" x="244.8184" y="49.98745" width="0.33627" height="4.53972" transform="translate(162.85482 288.90813) rotate(-82.90135)"/><polygon class="cls-12" points="246.636 57.376 246.636 57.376 246.596 57.7 246.636 57.376"/><polygon class="cls-12" points="242.132 56.815 242.101 57.061 242.132 56.815 242.132 56.815"/><polygon class="cls-12" points="246.595 57.71 246.596 57.7 246.636 57.376 242.132 56.815 242.101 57.061 242.09 57.149 246.595 57.71"/><path class="cls-12" d="M239.79547,95.42023a7.13541,7.13541,0,1,0,7.9625-6.19894h0a7.1354,7.1354,0,0,0-7.9625,6.19892Zm7.76569-4.61854a5.54341,5.54341,0,0,1,4.61448,3.87189c.0409.13385.0781.27065.10819.40994a5.565,5.565,0,0,1-.464,3.72574c-.06314.126-.13273.24949-.20523.36921a5.54235,5.54235,0,0,1-10.036-1.24979c-.04511-.14115-.08313-.28483-.11431-.42936a5.558,5.558,0,0,1,.459-3.68567q.10127-.20088.2163-.38989A5.53914,5.53914,0,0,1,247.56116,90.80169Z"/><path class="cls-12" d="M249.26538,98.88592l-.12968-.01616-4.87578-.60717h0l-.33371-.04156h0l-2.34754-.29235a5.54237,5.54237,0,0,0,10.036,1.24979l-2.34924-.29255Z"/><path class="cls-12" d="M249.49271,94.33947h0l.29324.03653,2.38968.2976a5.54354,5.54354,0,0,0-10.036-1.24982Z"/><path class="cls-12" d="M249.82639,94.381l-.561,4.50489,2.34924.29255c.0725-.11972.14209-.24321.20523-.36921a5.565,5.565,0,0,0,.464-3.72573c-.03009-.13929-.06731-.2761-.10819-.40995L249.786,94.376Z"/><path class="cls-12" d="M244.48721,93.71613l.33371.04155-.561,4.50492,4.87578.60717-.204-.02542.561-4.50488-7.353-.91571q-.115.189-.21629.38989a5.558,5.558,0,0,0-.459,3.68567c.03117.14453.06918.28821.1143.42936l2.34753.29235Z"/><rect class="cls-22" x="244.09308" y="98.07367" height="0.3363"/><rect class="cls-23" x="242.10371" y="95.8212" width="4.5397" height="0.33629" transform="translate(118.92065 326.6275) rotate(-82.90132)"/><polygon class="cls-12" points="249.493 94.339 249.493 94.339 249.786 94.376 249.493 94.339"/><polygon class="cls-12" points="249.265 98.886 249.265 98.886 249.136 98.87 249.265 98.886"/><polygon class="cls-12" points="249.136 98.87 249.265 98.886 249.826 94.381 249.786 94.376 249.493 94.339 248.932 98.844 249.136 98.87"/><path class="cls-12" d="M249.71593,15.0318a7.13542,7.13542,0,1,0,7.96252-6.19892h0A7.13541,7.13541,0,0,0,249.71593,15.0318Zm7.76568-4.61852a5.54344,5.54344,0,0,1,4.61451,3.87189c.04087.13384.07809.27066.10818.40993a5.56521,5.56521,0,0,1-.464,3.72574c-.06316.126-.13274.2495-.20522.36924a5.54239,5.54239,0,0,1-10.036-1.24981c-.0451-.14116-.08311-.28483-.11427-.42934a5.5582,5.5582,0,0,1,.459-3.68569q.10128-.2009.21629-.38986A5.53915,5.53915,0,0,1,257.48161,10.41328Z"/><path class="cls-12" d="M259.41318,13.95105h0l.33366.04155h0l2.34928.29257a5.54352,5.54352,0,0,0-10.036-1.24979Z"/><path class="cls-12" d="M259.18585,18.49753l-.29428-.03666-4.82934-.60141-.21552-.02684h0l-2.34758-.29235a5.54239,5.54239,0,0,0,10.036,1.24981l-2.34926-.29257Z"/><path class="cls-12" d="M259.18584,18.49751l2.34926.29257c.07247-.11974.14207-.24327.20521-.36924a5.56521,5.56521,0,0,0,.464-3.72574c-.03008-.13927-.06731-.27609-.10819-.40993l-2.34927-.29257Z"/><path class="cls-12" d="M254.40768,13.32772l.33373.04156-.561,4.50489-.11816-.01471,4.82935.60141-.0394-.00491.561-4.50491-7.353-.91567q-.115.189-.2163.38986a5.5582,5.5582,0,0,0-.459,3.68569c.03116.14451.06919.28818.11428.42934l2.34758.29235Z"/><polygon class="cls-12" points="253.847 17.833 254.062 17.859 253.847 17.833 253.847 17.833"/><polygon class="cls-12" points="254.741 13.369 254.408 13.328 253.847 17.833 254.062 17.859 254.18 17.874 254.741 13.369"/><rect class="cls-24" x="259.58" y="13.80369" height="0.33625"/><polygon class="cls-12" points="259.186 18.498 259.186 18.498 258.892 18.461 259.186 18.498"/><polygon class="cls-12" points="258.892 18.461 259.186 18.498 259.747 13.993 259.413 13.951 258.852 18.456 258.892 18.461"/><rect class="cls-8" x="1183.1229" y="31.15055" width="4.82324" height="49.61009" transform="translate(41.69101 372.57072) rotate(-18.17433)"/><polygon class="cls-8" points="1199.559 93.413 1195.563 78.771 1190.98 80.275 1196.439 94.438 1199.559 93.413"/><path class="cls-9" d="M1171.01855,34.61337l13.55848-4.45105a1.9841,1.9841,0,0,0,1.26648-2.504v-.00015l-.91126-2.7758a1.98446,1.98446,0,0,0-2.50439-1.26641l-.148.04856-.32569-1.34354L1179.298,11.73482a2.62871,2.62871,0,0,1,1.53711-3.23149l-13.41894-40.87676c-1.89978-5.787-7.57459-9.11667-12.68079-7.44053l-1.15539.37927c-5.10621,1.67637-7.70337,7.72145-5.80359,13.50868l13.41894,40.87663a2.62885,2.62885,0,0,1,3.15344,1.69176l4.13477,10.10083.53394,1.2751-.148.04857a1.98419,1.98419,0,0,0-1.26636,2.50406v.00015l.91125,2.77593A1.98431,1.98431,0,0,0,1171.01855,34.61337Z"/><polygon class="cls-12" points="1200.064 92.969 1196.067 78.326 1180.594 31.191 1176.011 32.696 1191.485 79.831 1196.944 93.993 1200.064 92.969"/><path class="cls-12" d="M1171.52332,34.16883l13.55835-4.451a1.98407,1.98407,0,0,0,1.26647-2.504v-.00017l-.91125-2.7758a1.98435,1.98435,0,0,0-2.50427-1.26646l-.00012.00005-.14795.04859-.32569-1.34358-2.65625-10.58613a2.62879,2.62879,0,0,1,1.537-3.23148l-13.41895-40.87676c-1.89978-5.78706-7.57458-9.11677-12.68078-7.44053l-1.15528.37917c-5.1062,1.6765-7.70336,7.72155-5.80358,13.50878L1161.7,14.50608a2.629,2.629,0,0,1,3.15332,1.69183l4.13489,10.10073.53381,1.2752-.148.0486a1.9843,1.9843,0,0,0-1.26648,2.504l.00013.00022.91113,2.77589a1.98426,1.98426,0,0,0,2.50415,1.26639Z"/><path class="cls-4" d="M1219.37855,183.41845l6.341,37.45528a.60194.60194,0,0,0,.97723.36325l29.26666-24.21907a.602.602,0,0,0-.174-1.028l-35.60766-13.23621a.602.602,0,0,0-.80323.66475Z"/><path class="cls-4" d="M238.23285,189.05009l10.40535,61.46307a.9878.9878,0,0,0,1.60364.59614l48.02595-39.74284a.98775.98775,0,0,0-.28552-1.68692L239.551,187.95927a.98774.98774,0,0,0-1.31815,1.09082Z"/><path class="cls-4" d="M1007.0851,159.53215l-44.453,31.92531a.86718.86718,0,0,0,.1488,1.49467l49.87465,22.53478a.86717.86717,0,0,0,1.22-.87617l-5.42163-54.4601a.86719.86719,0,0,0-1.36883-.61849Z"/></g></svg>