<svg id="Layer_1" data-name="Layer 1" xmlns="http://www.w3.org/2000/svg" viewBox="0 0 1140 294"><defs><style>.cls-1,.cls-10{fill:#428252;}.cls-12,.cls-2,.cls-3,.cls-5{fill:none;}.cls-2{stroke:#99c5a6;}.cls-10,.cls-2,.cls-3,.cls-5{stroke-miterlimit:10;}.cls-3{stroke:#99c5a7;}.cls-4{fill:#80b590;}.cls-10,.cls-5{stroke:#428252;}.cls-6{fill:#5f9c70;}.cls-7{fill:#88bc95;}.cls-8{fill:#b3d3bc;}.cls-9{fill:#b0d3bb;}.cls-10{stroke-width:0.5px;}.cls-11{fill:#bfdbc7;}.cls-13{fill:#99c5a6;}</style></defs><rect class="cls-1" y="0.28481" width="1140" height="293.93084"/><path class="cls-2" d="M1053.05566.00415l-2.93988,26.36926a2.44315,2.44315,0,0,0,2.15735,2.69873l49.44953,5.51307a2.4433,2.4433,0,0,0,2.69873-2.15735L1108.03613.00415Z"/><path class="cls-2" d="M410.66327.00415a43.97729,43.97729,0,0,0,40.95862,27.97754A43.97726,43.97726,0,0,0,492.58051.00415Z"/><rect class="cls-2" x="853.87925" y="87.13817" width="34.60656" height="34.60656" rx="1.54728" transform="translate(101.07383 524.9169) rotate(-35.47058)"/><circle class="cls-2" cx="202.45103" cy="148.51102" r="43.97198"/><path class="cls-2" d="M792.23871,294H834.712a27.549,27.549,0,1,0-42.47327,0Z"/><rect class="cls-2" x="35.38483" y="88.98502" width="34.60656" height="34.60656" rx="1.54728" transform="translate(-51.89929 50.29977) rotate(-35.47058)"/><path class="cls-2" d="M1098.67078,294l-27.36213-27.36212a2.443,2.443,0,0,0-3.455,0L1040.49152,294Z"/><rect class="cls-2" x="230.53912" y="222.52602" width="37.93064" height="37.93064" rx="1.6959" transform="translate(271.56335 -105.03996) rotate(49.57731)"/><path class="cls-2" d="M522.87451.00415l14.40631,16.91376a1.69591,1.69591,0,0,0,2.39069.1914L559.75391.00415Z"/><path class="cls-2" d="M433.26642,294h34.78625l21.25818-17.5918a1.03629,1.03629,0,0,0-.29962-1.76977l-61.30395-22.78809a1.03627,1.03627,0,0,0-1.38282,1.14435Z"/><path class="cls-2" d="M58.21307.00415,48.71863,7.18243a1.0363,1.0363,0,0,0,.22156,1.78125L109.1839,34.42273a1.03633,1.03633,0,0,0,1.43182-1.08252L106.46875.00415Z"/><path class="cls-2" d="M821.92621.00415,809.23083,9.60248a1.03633,1.03633,0,0,0,.22156,1.78125l60.24372,25.459a1.03633,1.03633,0,0,0,1.43182-1.08252l-4.448-35.7561Z"/><path class="cls-3" d="M591.976,294h42.49262L618.0592,270.96991a1.54722,1.54722,0,0,0-2.158-.36224l-25.66382,18.286a1.54716,1.54716,0,0,0-.36225,2.158Z"/><path class="cls-3" d="M78.78619,294l4.039-36.2276a2.44312,2.44312,0,0,0-2.15735-2.69873l-49.44947-5.51306a2.44311,2.44311,0,0,0-2.69873,2.15735L23.80573,294Z"/><path class="cls-3" d="M938.271,158.01042l10.9169,64.48482a1.03633,1.03633,0,0,0,1.68249.62542l50.387-41.69673a1.03632,1.03632,0,0,0-.29962-1.76978l-61.30394-22.7881A1.03633,1.03633,0,0,0,938.271,158.01042Z"/><path class="cls-3" d="M294.52856.00415l-56.668,11.94946a1.03627,1.03627,0,0,0-.55744,1.70618l43.68408,48.67413a1.03635,1.03635,0,0,0,1.75635-.37036L302.98621.00415Z"/><path class="cls-4" d="M140.35648,37.25589h-.12807l0-1.67413a8.54755,8.54755,0,0,0-7.255-8.57329,8.3561,8.3561,0,0,0-9.43533,8.278v1.96944h-.12687a1.55728,1.55728,0,0,0-1.56386,1.55081v11.348a2.52011,2.52011,0,0,0,2.52832,2.52371c2.337-.00807,5.69351-.01376,7.37184.011h7.64792a2.52373,2.52373,0,0,0,2.52374-2.52374V38.8067A1.56076,1.56076,0,0,0,140.35648,37.25589Zm-3.45621,0H126.8674V35.28645a5.01644,5.01644,0,0,1,10.03287,0Zm-6.87793,10.4775a.38614.38614,0,0,1-.08181-.32369l.5739-3.19528a1.91283,1.91283,0,0,1-.57982-1.37776,1.94865,1.94865,0,1,1,3.31742,1.37776l.5739,3.19528a.40714.40714,0,0,1-.0818.32369.41816.41816,0,0,1-.3012.13991h-3.1194A.41826.41826,0,0,1,130.02234,47.73339Z"/><path class="cls-5" d="M139.09864,36.95534h-.12806V35.28121a8.54754,8.54754,0,0,0-7.255-8.57329,8.3561,8.3561,0,0,0-9.43533,8.278v1.96944h-.12686a1.55728,1.55728,0,0,0-1.56387,1.55081v11.348a2.52011,2.52011,0,0,0,2.52832,2.52372c2.337-.00807,5.69351-.01376,7.37184.011h7.64792a2.52374,2.52374,0,0,0,2.52374-2.52374v-11.359A1.56076,1.56076,0,0,0,139.09864,36.95534Zm-3.45621,0H125.60956V34.9859a5.01644,5.01644,0,0,1,10.03287,0Zm-6.87793,10.4775a.38614.38614,0,0,1-.08181-.32369l.57391-3.19528a1.9128,1.9128,0,0,1-.57983-1.37776,1.94865,1.94865,0,1,1,3.31742,1.37776l.5739,3.19528a.4071.4071,0,0,1-.0818.32369.41816.41816,0,0,1-.3012.13991H129.0657A.41828.41828,0,0,1,128.7645,47.43284Z"/><path class="cls-6" d="M1062.32165,53.953s.13187-3.95576-2.2416-4.7469c0,0-.65927-3.82388-2.63715-4.87878a1.9198,1.9198,0,0,0-.13187-2.769c-1.45045-1.31857-1.31857-1.05486-3.03274-1.71416s-.39559-.923-1.05486-2.50531-.79114-.26371-3.03273-1.71416.26371-1.31858-3.16461-2.10972-1.45045-2.10975-5.01062-3.29649-8.70266.79118-10.1531,2.10976-5.14249,4.7469-5.53808,7.12036-1.58229.79115-1.71413,3.16458,1.45041,2.63718.13184,3.82392-2.37343,1.45044-2.24159,3.56016-.26372.79115-1.31858,3.42833-2.63718,1.97788-1.71416,3.95575a13.043,13.043,0,0,0,2.42463,3.10041,9.34835,9.34835,0,0,1,3.64084-2.573,34.71086,34.71086,0,0,1,7.00735-1.66339,5.984,5.984,0,0,1-2.52416-2.4242c-.65927-1.71417-3.82388-12.3947-2.10972-14.50445s1.31858-2.50531,3.82388-1.05486,3.03274,1.45045,3.692,4.21947,1.71417,1.71416,2.50531,4.0876,1.45045,3.82391,2.63718,4.61506a4.63215,4.63215,0,0,1,1.32079,1.93958,14.83741,14.83741,0,0,1,.65709,1.8843,6.42925,6.42925,0,0,0-1.10411.94583,1.82821,1.82821,0,0,0-.61005,1.82319c.36093.90235,1.33864.94111,1.70914,1.76246a2.78911,2.78911,0,0,1,.005,1.79774c-.6593,2.769-.79114,5.538,1.45045,5.93363s3.692,2.10972,5.14245.26372.26372-1.846,1.97788-3.16461,1.18674-2.2416.923-5.14249c-.07269-.79953-.11458-1.52548-.13821-2.1627.35083.16211.73209.35746,1.134.58341a16.15922,16.15922,0,0,1,5.99268,5.79876c.02895.04862.05572.09837.08444.14712a3.98745,3.98745,0,0,0,2.15716-4.63031A3.1769,3.1769,0,0,0,1062.32165,53.953Z"/><path class="cls-6" d="M1041.52367,57.7769a1.82821,1.82821,0,0,1,.61005-1.82319,6.42968,6.42968,0,0,1,1.10411-.94583,14.83741,14.83741,0,0,0-.65709-1.8843,4.63215,4.63215,0,0,0-1.32079-1.93958c-1.18673-.79115-1.846-2.2416-2.63718-4.61506s-1.846-1.31858-2.50531-4.0876-1.18673-2.769-3.692-4.21947-2.10972-1.05486-3.82388,1.05486,1.45045,12.79028,2.10972,14.50445a5.984,5.984,0,0,0,2.52416,2.4242,11.53,11.53,0,0,0,1.07007.55991l-.1659.31234a2.69841,2.69841,0,0,0,2.24159,2.37343,11.46439,11.46439,0,0,0,2.9515.2616c1.34954-.00871,2.80685-.11378,3.90013-.2133C1042.86231,58.718,1041.8846,58.67925,1041.52367,57.7769Z"/><path class="cls-6" d="M1042.31862,97.71876l-.21632-3.67758s-3.82391.26372-5.27432-1.45041c-1.14673-1.35522-3.04634-2.04133-5.61143-2.143l.86449,2.53858Z"/><path class="cls-7" d="M1045.53619,98.59371l-3.04069-1.40559-10.23758-4.73244-.86449-2.53858-6.71256-19.71154a3.19123,3.19123,0,0,0-2.99455-2.1624l-4.46047-.03687-23.40173-.1934a1.2524,1.2524,0,0,0-1.192,1.66752l7.33806,20.88523a2.81166,2.81166,0,0,0,2.57674,1.87861l.13865.00377c.33719-.46762.61642-.8434.82719-1.11091,3.42832-4.35135,7.12033-2.9009,7.12033-2.9009l25.34742,11.06437c.25055-.01.64831-.02578,1.14742-.04555,2.259-.08942,6.55914-.25807,8.33919-.31716A.18038.18038,0,0,0,1045.53619,98.59371Z"/><path class="cls-4" d="M968.834,133.72737c-2.90087,2.5053-7.51593,1.05489-8.96638,1.846s3.42833,3.42833,7.91152,5.66992,7.51592.79115,7.51592.79115l-2.10972,3.03273,5.27433,2.37347,2.10972-3.95575c1.562-.48063,3.01458-5.45008,4.35765-9.32169l-5.293-5.097C977.06712,129.83951,971.08536,131.78306,968.834,133.72737Z"/><path class="cls-4" d="M1004.31739,156.58008c-.16565.72087-.40147,1.88766-.67274,3.65084-.52743,3.42833-1.45042,4.61506-4.21947,6.06551s-3.4283,2.90086-1.05486,3.692,8.17522.26371,8.17522.26371l1.846-1.71413,3.95575-.52746s.65931-5.80176.13188-7.77964c-.21275-.79788-.57559-2.06707-.933-3.29836C1010.71339,157.60464,1006.31025,156.93041,1004.31739,156.58008Z"/><path class="cls-1" d="M988.74464,166.29643l3.29649.79115,10.38288-20.76577c-.12649-1.8983-.25582-3.95573-.38373-6.07175Z"/><path class="cls-6" d="M1045.94214,107.927a17.93971,17.93971,0,0,0-.94394-2.48487c-.31848-.69017-.6901-1.41064-1.13673-2.17082l-3.77268-1.64679-4.10823-1.79329-25.34742-11.06437s-3.692-1.45045-7.12033,2.9009c-.21077.26751-.49.64329-.82719,1.11091-5.14754,7.13865-23.96221,35.9413-23.96221,35.9413l.91068.87694,5.293,5.097.91671.88275,14.9-18.46021s.62943,12.63,1.2965,23.66429c.12791,2.116.25724,4.17346.38373,6.07175.38325,5.75049.74087,10.042.95692,10.08523.11735.02347.45887.08906.93646.173,1.99286.35033,6.396,1.02456,7.22883.35248a.33214.33214,0,0,0,.14181-.2618c0-1.013,1.634-22.56748,2.39153-32.50608.22856-2.99867.3775-4.94173.3775-4.94173l28.74511-2.24159S1047.98489,114.93018,1045.94214,107.927Z"/><path class="cls-1" d="M1022.08782,122.86333c-.308,7.39412-2.62015,38.818-2.62015,38.818l2.24159-.13187,3.5498-29.61278-.33792-9.53381Z"/><path class="cls-1" d="M1027.98484,121.90509l-1.5535.25243-1.5102.24539.33792,9.53381,1.46082,41.21633s3.692.52743,3.692-.13184C1030.41192,172.43156,1028.40826,130.71387,1027.98484,121.90509Z"/><path class="cls-1" d="M1052.95972,166.16456h4.48318l-16.50771-45.55616c-1.59717.32535-3.06522.55146-4.37768.70635Z"/><path class="cls-7" d="M1052.56413,100.10348l-3.82388-.65931s0,4.61506-.923,6.85666l-.923,2.24159s-.3641-.4485-.95207-1.14607c2.04275,7.00319-2.74,9.585-2.74,9.585l-28.74511,2.24159s-.14894,1.943-.3775,4.94173l8.00826-1.30135,2.83332-.46042,1.5102-.24539,1.5535-.25243,1.89965-.3087a37.60236,37.60236,0,0,0,6.673-.28164c1.31246-.15489,2.78051-.381,4.37768-.70635.3132-.0638.62577-.127.94841-.19871,7.12036-1.58233,8.43894-4.35135,11.86726-8.70266,1.17261-1.48831,1.63544-6.17031,1.73708-11.68647A20.80166,20.80166,0,0,1,1052.56413,100.10348Z"/><path class="cls-8" d="M1064.56324,80.984a40.67375,40.67375,0,0,0-5.45361-17.39006c-.02872-.04875-.05549-.0985-.08444-.14712a16.15922,16.15922,0,0,0-5.99268-5.79876c-.40193-.22595-.78319-.4213-1.134-.58341.02363.63722.06552,1.36317.13821,2.1627.26372,2.90089.79114,3.82391-.923,5.14249s-.52743,1.31857-1.97788,3.16461-2.90086.13184-5.14245-.26372-2.10975-3.16461-1.45045-5.93363a2.78911,2.78911,0,0,0-.005-1.79774c-1.09328.09952-2.55059.20459-3.90013.2133a11.46439,11.46439,0,0,1-2.9515-.2616,2.69841,2.69841,0,0,1-2.24159-2.37343l.1659-.31234a11.53,11.53,0,0,1-1.07007-.55991,34.71086,34.71086,0,0,0-7.00735,1.66339,9.34835,9.34835,0,0,0-3.64084,2.573,12.08846,12.08846,0,0,0-2.02907,3.62437,11.48961,11.48961,0,0,1-2.63738,3.90017l4.46047.03687a3.19123,3.19123,0,0,1,2.99455,2.1624l6.71256,19.71154c2.56509.1017,4.4647.78781,5.61143,2.143,1.45041,1.71413,5.27433,1.45041,5.27433,1.45041l.21631,3.67758,3.04069,1.40559a.18038.18038,0,0,1-.069.34416c-1.78.05909-6.08017.22774-8.33919.31716-.49911.01977-.89687.03558-1.14742.04555l4.10823,1.79329,3.77268,1.64679c.44663.76018.81825,1.48065,1.13673,2.17082a17.93923,17.93923,0,0,1,.94394,2.48487c.588.69757.95207,1.14607.95207,1.14607l.923-2.24159c.923-2.2416.923-6.85666.923-6.85666l3.82388.65931a20.80166,20.80166,0,0,0,2.92381-.08292c7.5825-.76738,9.61022-5.85174,10.78946-8.09231C1067.596,89.42294,1064.95883,86.65392,1064.56324,80.984Zm-6.94948,8.33632-1.16055.17855-5.52461,1.08179s2.32913-6.002,2.32913-8.3311.5375-2.86663.5375-2.86663l1.27279,4.1385a21.083,21.083,0,0,0,1.77922,3.75482A2.95508,2.95508,0,0,1,1057.61376,89.32032Z"/><path class="cls-7" d="M1055.068,83.52143l-1.27279-4.1385s-.5375.5375-.5375,2.86663-2.32913,8.3311-2.32913,8.3311l5.52461-1.08179-1.09837.169C1055.27512,87.48686,1055.17289,85.39463,1055.068,83.52143Z"/><path class="cls-5" d="M1061.89622,52.91608s.13187-3.95576-2.24159-4.7469c0,0-.65927-3.82388-2.63715-4.87877a1.91982,1.91982,0,0,0-.13188-2.769c-1.45044-1.31857-1.31857-1.05486-3.03273-1.71416s-.39559-.923-1.05486-2.50531-.79115-.26371-3.03274-1.71416.26372-1.31857-3.16461-2.10972-1.45045-2.10975-5.01062-3.29648-8.70265.79117-10.1531,2.10975-5.14249,4.7469-5.53808,7.12036-1.58229.79115-1.71413,3.16458,1.45042,2.63718.13184,3.82392-2.37343,1.45045-2.24159,3.56016-.26371.79115-1.31857,3.42833-2.63718,1.97788-1.71417,3.95576a13.043,13.043,0,0,0,2.42464,3.1004,9.34816,9.34816,0,0,1,3.64084-2.573,34.70992,34.70992,0,0,1,7.00734-1.6634,5.984,5.984,0,0,1-2.52416-2.4242c-.65927-1.71416-3.82388-12.3947-2.10972-14.50445s1.31858-2.50531,3.82389-1.05486,3.03273,1.45045,3.692,4.21947,1.71416,1.71416,2.5053,4.0876,1.45045,3.82391,2.63719,4.61506a4.63213,4.63213,0,0,1,1.32078,1.93958,14.83741,14.83741,0,0,1,.65709,1.8843,6.42968,6.42968,0,0,0-1.10411.94583,1.82821,1.82821,0,0,0-.61005,1.82319c.36093.90236,1.33865.94111,1.70915,1.76246a2.78913,2.78913,0,0,1,.005,1.79774c-.6593,2.769-.79114,5.53805,1.45045,5.93363s3.692,2.10972,5.14246.26372.26371-1.846,1.97788-3.16461,1.18673-2.24159.923-5.14249c-.07268-.79953-.11457-1.52548-.13821-2.1627.35083.16211.73209.35746,1.134.58341a16.15931,16.15931,0,0,1,5.99269,5.79876c.02895.04862.05572.09837.08444.14712a3.98744,3.98744,0,0,0,2.15715-4.63031A3.17689,3.17689,0,0,0,1061.89622,52.91608Z"/><path class="cls-5" d="M1040.40331,56.74a1.82821,1.82821,0,0,1,.61005-1.82319,6.42968,6.42968,0,0,1,1.10411-.94583,14.83741,14.83741,0,0,0-.65709-1.8843,4.63213,4.63213,0,0,0-1.32078-1.93958c-1.18674-.79115-1.846-2.2416-2.63719-4.61506s-1.846-1.31858-2.5053-4.0876-1.18674-2.769-3.692-4.21947-2.10972-1.05486-3.82389,1.05486,1.45045,12.79029,2.10972,14.50445a5.984,5.984,0,0,0,2.52416,2.4242,11.52884,11.52884,0,0,0,1.07008.55991l-.16591.31234a2.69841,2.69841,0,0,0,2.24159,2.37343,11.46437,11.46437,0,0,0,2.9515.26161c1.34954-.00872,2.80685-.11379,3.90014-.21331C1041.742,57.68107,1040.76424,57.64232,1040.40331,56.74Z"/><path class="cls-5" d="M1042.07007,96.15119l-.21631-3.67759s-3.82392.26372-5.27433-1.45041c-1.14673-1.35522-3.04634-2.04132-5.61143-2.143l.8645,2.53858Z"/><path class="cls-5" d="M1045.11076,97.55677l-3.04069-1.40558-10.23757-4.73245-.8645-2.53858-6.71256-19.71154a3.19122,3.19122,0,0,0-2.99455-2.1624l-4.46047-.03687-23.40173-.1934a1.25241,1.25241,0,0,0-1.192,1.66752l7.33807,20.88523a2.81166,2.81166,0,0,0,2.57674,1.87862l.13864.00376c.33719-.46762.61642-.8434.82719-1.11091,3.42833-4.35135,7.12033-2.9009,7.12033-2.9009l25.34743,11.06437c.25054-.01.64831-.02578,1.14742-.04555,2.259-.08942,6.55913-.25807,8.33918-.31716A.18038.18038,0,0,0,1045.11076,97.55677Z"/><path class="cls-5" d="M968.4086,132.69043c-2.90086,2.50531-7.51592,1.05489-8.96637,1.846s3.42832,3.42832,7.91151,5.66991,7.51592.79115,7.51592.79115l-2.10972,3.03274,5.27433,2.37346L980.144,142.448c1.56206-.48062,3.01458-5.45008,4.35765-9.32169l-5.293-5.097C976.64169,128.80257,970.65993,130.74612,968.4086,132.69043Z"/><path class="cls-5" d="M1003.892,155.54314c-.16564.72087-.40146,1.88766-.67274,3.65084-.52743,3.42833-1.45041,4.61506-4.21947,6.06551s-3.42829,2.90087-1.05486,3.692,8.17523.26371,8.17523.26371l1.846-1.71413,3.95576-.52746s.6593-5.80176.13187-7.77964c-.21275-.79787-.57559-2.06707-.933-3.29836C1010.288,156.5677,1005.88482,155.89347,1003.892,155.54314Z"/><path class="cls-5" d="M988.31922,165.25949l3.29648.79115,10.38289-20.76577c-.1265-1.89829-.25583-3.95573-.38374-6.07175Z"/><path class="cls-5" d="M1045.51672,106.35942a17.94073,17.94073,0,0,0-.944-2.48488c-.31848-.69017-.6901-1.41064-1.13672-2.17082l-3.77269-1.64679-4.10822-1.79329-25.34743-11.06437s-3.692-1.45045-7.12033,2.9009c-.21077.26751-.49.64329-.82719,1.11091-5.14754,7.13865-23.9622,35.9413-23.9622,35.9413l.91067.87694,5.293,5.097.91671.88275,14.9-18.46021s.62943,12.63,1.29649,23.66429c.12791,2.116.25724,4.17346.38374,6.07175.38324,5.75049.74087,10.042.95692,10.08523.11735.02347.45887.08906.93645.173,1.99286.35033,6.396,1.02456,7.22884.35248a.33214.33214,0,0,0,.14181-.2618c0-1.013,1.634-22.56748,2.39152-32.50608.22856-2.99867.3775-4.94173.3775-4.94173l28.74511-2.24159S1047.55946,113.3626,1045.51672,106.35942Z"/><path class="cls-5" d="M1021.66239,121.82639c-.308,7.39412-2.62015,38.818-2.62015,38.818l2.2416-.13187,3.5498-29.61278-.33792-9.53381Z"/><path class="cls-5" d="M1027.55942,120.86815l-1.55351.25243-1.51019.24539.33792,9.53381,1.46081,41.21633s3.692.52743,3.692-.13184C1029.98649,171.39462,1027.98283,129.67694,1027.55942,120.86815Z"/><path class="cls-5" d="M1052.53429,165.12762h4.48319l-16.50771-45.55615c-1.59718.32534-3.06522.55146-4.37769.70634Z"/><path class="cls-5" d="M1052.1387,99.06654l-3.82388-.6593s0,4.61506-.923,6.85665l-.923,2.24159s-.3641-.4485-.95207-1.14606c2.04274,7.00318-2.74,9.585-2.74,9.585l-28.74511,2.24159s-.14894,1.94306-.3775,4.94173l8.00826-1.30135,2.83333-.46042,1.51019-.24539,1.55351-.25243,1.89964-.3087a37.60235,37.60235,0,0,0,6.673-.28164c1.31247-.15488,2.78051-.381,4.37769-.70634.31319-.06381.62576-.127.9484-.19872,7.12037-1.58232,8.43894-4.35135,11.86727-8.70266,1.1726-1.48831,1.63543-6.17031,1.73707-11.68647A20.80161,20.80161,0,0,1,1052.1387,99.06654Z"/><path class="cls-5" d="M1064.13781,79.94707a40.67391,40.67391,0,0,0-5.4536-17.39007c-.02872-.04875-.05549-.0985-.08444-.14712a16.15931,16.15931,0,0,0-5.99269-5.79876c-.40193-.22595-.78319-.4213-1.134-.58341.02364.63722.06553,1.36317.13821,2.1627.26372,2.9009.79115,3.82391-.923,5.14249s-.52743,1.31857-1.97788,3.16461-2.90087.13184-5.14246-.26372-2.10975-3.16461-1.45045-5.93363a2.78913,2.78913,0,0,0-.005-1.79774c-1.09329.09952-2.5506.20459-3.90014.21331a11.46437,11.46437,0,0,1-2.9515-.26161,2.69841,2.69841,0,0,1-2.24159-2.37343l.16591-.31234a11.52884,11.52884,0,0,1-1.07008-.55991,34.70992,34.70992,0,0,0-7.00734,1.6634,9.34816,9.34816,0,0,0-3.64084,2.573,12.08861,12.08861,0,0,0-2.02908,3.62437,11.48933,11.48933,0,0,1-2.63738,3.90017l4.46047.03687a3.19122,3.19122,0,0,1,2.99455,2.1624l6.71256,19.71154c2.56509.10171,4.4647.78781,5.61143,2.143,1.45041,1.71413,5.27433,1.45041,5.27433,1.45041l.21631,3.67759,3.04069,1.40558a.18038.18038,0,0,1-.069.34416c-1.78.05909-6.08016.22774-8.33918.31716-.49911.01977-.89688.03558-1.14742.04555l4.10822,1.79329,3.77269,1.64679c.44662.76018.81824,1.48065,1.13672,2.17082a17.94073,17.94073,0,0,1,.944,2.48488c.588.69756.95207,1.14606.95207,1.14606l.923-2.24159c.923-2.24159.923-6.85665.923-6.85665l3.82388.6593a20.80161,20.80161,0,0,0,2.92381-.08292c7.5825-.76738,9.61022-5.85174,10.78946-8.09231C1067.17058,88.386,1064.5334,85.617,1064.13781,79.94707Zm-6.94947,8.33631-1.16056.17855-5.52461,1.08179s2.32913-6.002,2.32913-8.33109.5375-2.86664.5375-2.86664l1.27279,4.1385a21.08376,21.08376,0,0,0,1.77923,3.75483A2.95512,2.95512,0,0,1,1057.18834,88.28338Z"/><path class="cls-5" d="M1056.42182,86.23932a21.08376,21.08376,0,0,1-1.77923-3.75483c.10487,1.87321.2071,3.96543.28682,6.14642l1.09837-.169,1.16056-.17855A2.95512,2.95512,0,0,0,1056.42182,86.23932Z"/><path class="cls-5" d="M1054.64259,82.48449l-1.27279-4.1385s-.5375.5375-.5375,2.86664-2.32913,8.33109-2.32913,8.33109l5.52461-1.08179-1.09837.169C1054.84969,86.44992,1054.74746,84.3577,1054.64259,82.48449Z"/><path class="cls-5" d="M1033.18514,55.76835c.20324-.027,5.04584.322,6.52916-1.33582"/><path class="cls-5" d="M1036.22414,51.46589s-.87254,3.272-3.05389,1.39606"/><path class="cls-5" d="M1033.51926,50.37521s-1.91847.84642-2.39948-.43627c-.39265-1.04705.6544-2.53036.6544-2.53036"/><circle class="cls-1" cx="1028.54578" cy="45.57624" r="0.4799"/><circle class="cls-1" cx="1035.3516" cy="45.79438" r="0.4799"/><line class="cls-5" x1="1031.8325" y1="91.41874" x2="1020.43898" y2="91.69555"/><path class="cls-5" d="M1023.6018,117.41984c-.52713-.63256-6.099-5.23982-9.27761-11.597-.84342-1.68684-4.34513-2.2419-6.5365-.63256-4.09412,3.00669-7.46933,10.35857-7.46933,10.35857"/><path class="cls-5" d="M1014.03163,118.186s-.65629-6.2484-2.87027-7.19724"/><line class="cls-5" x1="1059.34171" y1="87.79473" x2="1041.85376" y2="92.4736"/><line class="cls-5" x1="1048.31482" y1="98.40724" x2="1045.04174" y2="97.90093"/><path class="cls-5" d="M1053.3698,78.346s-2.46229-5.10025-2.25143-6.36538"/><ellipse class="cls-5" cx="1013.05906" cy="80.30938" rx="4.00624" ry="3.47911"/><path class="cls-9" d="M1000.51441,16.70616h-20.219a4.01461,4.01461,0,0,0-4.01456,4.01456V35.98933a4.01454,4.01454,0,0,0,4.01456,4.01448h19.03628l5.19726,6.76365V20.72072A4.01461,4.01461,0,0,0,1000.51441,16.70616Z"/><path class="cls-5" d="M999.22224,16.57348h-20.219a4.01461,4.01461,0,0,0-4.01456,4.01456V35.85665a4.01454,4.01454,0,0,0,4.01456,4.01448h19.03629l5.19725,6.76365V20.588A4.01461,4.01461,0,0,0,999.22224,16.57348Z"/><path class="cls-10" d="M997.39834,25.11605a.32839.32839,0,0,0,.02662-.093l.00059-.01071-.00416-.00237.00475-.00834a.49492.49492,0,0,0-.01526-.10476c-.00833-.00476-.00774-.01547-.01607-.02023a.164.164,0,0,0-.04228-.06712.03332.03332,0,0,0-.01939-.02211.297.297,0,0,0-.06788-.06085l-.01249-.00714-.00749-.00427c-.32039-.13883-7.8312-3.45792-12.802-.54879-2.03707,1.19726-3.21774,2.67923-3.48407,4.39284a6.89117,6.89117,0,0,0,1.546,5.04371c-.03219.0467-.06452.10332-.1015.15841a1.08607,1.08607,0,0,1-.79935.50293.98713.98713,0,0,1-.50259-.08139,2.00133,2.00133,0,0,1-.36009.51459,1.574,1.574,0,0,0,.93405.17836,1.69251,1.69251,0,0,0,1.2518-.79443c.02271-.0301.04125-.06258.06311-.09316a6.0832,6.0832,0,0,0,4.08953.52342,5.11527,5.11527,0,0,0,3.11341-2.69573,15.89371,15.89371,0,0,1,7.0452-6.53261.9306.9306,0,0,0,.08266-.05c.00475-.00833.01235-.01392.0171-.02225a.505.505,0,0,0,.05014-.06847A.05513.05513,0,0,0,997.39834,25.11605Zm-14.5401,7.93436a6.23234,6.23234,0,0,1-1.29171-4.39286c.23872-1.52406,1.31516-2.86022,3.18657-3.95884,3.41963-2.00411,8.31-.79721,10.74772.01285C989.20674,25.16059,985.048,29.77213,982.85824,33.05041Zm6.78934-1.52533a4.527,4.527,0,0,1-2.723,2.3909,5.38377,5.38377,0,0,1-3.59384-.45564c2.13181-3.22521,6.25273-7.83619,12.49741-8.1523A16.30811,16.30811,0,0,0,989.64758,31.52508Z"/><path class="cls-8" d="M142.36124,118.53333h21.7187a4.31239,4.31239,0,0,1,4.31233,4.31233V139.2468a4.31232,4.31232,0,0,1-4.31233,4.31225H143.63167l-5.58276,7.26534V122.84566A4.31239,4.31239,0,0,1,142.36124,118.53333Z"/><path class="cls-5" d="M143.74926,118.39081H165.468a4.31239,4.31239,0,0,1,4.31233,4.31233v16.40114a4.31232,4.31232,0,0,1-4.31233,4.31225H145.01969l-5.58276,7.26534V122.70314A4.31239,4.31239,0,0,1,143.74926,118.39081Z"/><path class="cls-1" d="M150.84854,133.73836a.26021.26021,0,0,1-.11564.255.32089.32089,0,0,1-.27345,0l-5.12686-1.98a.9808.9808,0,0,1-.18832-.13372.267.267,0,0,1-.0787-.20679V130.5919a.31959.31959,0,0,1,.07268-.22486.42691.42691,0,0,1,.19434-.11565l5.13931-2.00448a.25812.25812,0,0,1,.267.02449.27613.27613,0,0,1,.10962.23089v.92314q0,.27946-.43768.44932l-3.30427,1.26364,3.30427,1.23915a1.27007,1.27007,0,0,1,.33408.18833.32926.32926,0,0,1,.1036.2614Z"/><path class="cls-1" d="M151.62632,135.42723l3.0248-8.85675a.25835.25835,0,0,1,.25538-.1823h.81392q.27947,0,.16985.316l-2.95212,8.65a.36574.36574,0,0,1-.13371.20037.37315.37315,0,0,1-.20639.05461h-.826Q151.56489,135.60913,151.62632,135.42723Z"/><path class="cls-1" d="M156.80136,132.56587a1.16074,1.16074,0,0,1,.32806-.18833l3.30467-1.23915-3.30467-1.26364q-.43728-.16986-.43728-.44932v-.92314a.2694.2694,0,0,1,.38869-.25538l5.12685,2.00448a.42478.42478,0,0,1,.19435.11565.31786.31786,0,0,1,.07308.22486v1.08094a.26719.26719,0,0,1-.0791.20679.96854.96854,0,0,1-.18833.13372l-5.12685,1.98a.30606.30606,0,0,1-.267,0,.26526.26526,0,0,1-.10962-.255v-.91109A.34109.34109,0,0,1,156.80136,132.56587Z"/><path class="cls-6" d="M69.32391,21.1375H49.94216a3.84838,3.84838,0,0,0-3.84832,3.84833V39.62219a3.8483,3.8483,0,0,0,3.84832,3.84824h18.248L73.17223,49.954V24.98583A3.84838,3.84838,0,0,0,69.32391,21.1375Z"/><path class="cls-5" d="M68.08524,21.01032H48.70349a3.84837,3.84837,0,0,0-3.84832,3.84832V39.495a3.84831,3.84831,0,0,0,3.84832,3.84825h18.248l4.98205,6.48358V24.85864A3.84837,3.84837,0,0,0,68.08524,21.01032Z"/><path class="cls-8" d="M110.603,95.87769a10.993,10.993,0,0,1,3.92436,3.09336,13.01565,13.01565,0,0,0,2.99977-.51527c1.03416-.88643,6.64822,1.32966,4.2844-6.94373-1.65359-5.78762-4.82347-15.4731-6.58017-20.77442l-.80675,19.59253Z"/><path class="cls-11" d="M105.11705,115.15024c0,.52976.10993,5.7233.25806,12.482,5.69964-.70911,13.90422-2.65439,14.22032-7.60662.23506-3.68247-2.81255-6.65681-5.92543-8.66207a5.711,5.711,0,0,1-.57506.97965C111.17432,115.00251,105.11705,115.15024,105.11705,115.15024Z"/><path class="cls-8" d="M97.13917,164.9381s-.7387,8.27339-2.06836,11.22813-3.10247,9.89848,1.0342,10.04624,12.26229.29547,11.22813-3.10251-.44323-18.17186-.591-18.615c-.05849-.17544-.48836-1.04706-.98519-2.0341C104.35076,163.09879,99.52182,165.18891,97.13917,164.9381Z"/><path class="cls-1" d="M82.41629,141.30741l-.63715,1.23607a1.34742,1.34742,0,0,1-2.18421.316,7.17584,7.17584,0,0,0-.93923-.8542l-1.758,4.39491,10.343-.22484-10.94737,5.83861c-.2532,1.41264-.566,2.95374-.93315,4.38589,4.67038-2.0647,11.67281-4.86356,16.85092-5.74108-.46706-1.97017-.92282-3.99206-1.35215-5.96045A78.11448,78.11448,0,0,1,82.41629,141.30741Z"/><path class="cls-11" d="M77.95173,141.5099a26.46165,26.46165,0,0,0-6.92576-2.83428l-2.25259,5.13588c1.19417-.56195,3.12258.14563,4.8176,1.04216a26.55129,26.55129,0,0,1,2.55776,1.56276l.749-.01626,1.758-4.39491C78.43448,141.83448,78.19845,141.66973,77.95173,141.5099Z"/><path class="cls-1" d="M67.14825,163.75621a2.74371,2.74371,0,0,0,5.31857,0,2.192,2.192,0,0,0-1.83743-1.95731c-1.14571.32-1.783,1.08533-3.42717,1.5411A1.63472,1.63472,0,0,0,67.14825,163.75621Z"/><path class="cls-8" d="M76.72768,146.82524c-.14878-.10811-.34406-.24725-.57894-.40882a26.55129,26.55129,0,0,0-2.55776-1.56276c-1.695-.89653-3.62343-1.60411-4.8176-1.04216-2.51155,1.18193-10.34171,6.796-12.70553,7.53469s-7.09145,3.25025-5.17083,6.50049,13.001,6.205,15.808,5.61407c.17573-.037.341-.07747.4972-.12075,1.64417-.45577,2.28146-1.22112,3.42717-1.5411a4.78818,4.78818,0,0,1,1.83743-.111c1.15791.1219,2.13923-2.34676,2.89336-5.288.36717-1.43215.68-2.97325.93315-4.38589.48734-2.71933.7534-4.95218.7534-4.95218S76.92989,146.97218,76.72768,146.82524Z"/><path class="cls-1" d="M123.32466,153.30053l-.00558-.01112a2.86512,2.86512,0,0,0-.29963-.4215,12.91649,12.91649,0,0,0-2.68409-.8045,2.84737,2.84737,0,0,0-1.92185,2.7546,2.66782,2.66782,0,1,0,5.3186,0A3.03382,3.03382,0,0,0,123.32466,153.30053Z"/><path class="cls-1" d="M123.28888,149.42556A126.94608,126.94608,0,0,0,105.786,146.1052c.0273,1.21554.054,2.40225.07971,3.54448,3.21338.44852,10.4,1.494,14.46965,2.41373a12.91649,12.91649,0,0,1,2.68409.8045c.163.0887.25965.173.26943.25113a.96427.96427,0,0,0,.0302.17037l.00558.01112C123.40843,153.37188,123.28888,149.42556,123.28888,149.42556Z"/><path class="cls-6" d="M84.28592,46.895c.14773-.44319-.7387-7.68238-.7387-7.68238s3.398-.7387,5.3186-1.18193,1.18189,1.18193,3.69344-.29546,3.69348-.88643,4.28445-.14773a9.86063,9.86063,0,0,1,.87512,2.65472.39619.39619,0,0,0,.12459-.07356c.45414-.4541,0-2.63382.3633-3.36042s.54493-.9082,0-2.17973a11.436,11.436,0,0,1-.45409-4.26861c0-1.27153-.27247-.7266-2.17973-.90823s-1.27153-.90823-2.543-1.45317-2.27056.63577-4.45029.45414-2.36135.36326-4.26861.90819-.90823.3633-3.088,1.72563-1.27153,2.27056-2.36139,2.90629-.0908,1.90729.18167,3.72372-.99907,2.90629.72656,4.54108a16.71939,16.71939,0,0,1,2.6963,3.73712c.1068-.0464.21937-.09141.34236-.13382C82.80852,45.86087,84.13818,47.33826,84.28592,46.895Z"/><path class="cls-11" d="M98.46883,45.71313a23.39231,23.39231,0,0,0-.75-5.47089,9.86063,9.86063,0,0,0-.87512-2.65472c-.591-.7387-1.7729-1.32966-4.28445.14773s-1.77285-.14773-3.69344.29546-5.3186,1.18193-5.3186,1.18193.88643,7.23919.7387,7.68238-1.4774-1.03415-1.4774-1.03415c-.123.04241-.23556.08742-.34236.13382-3.61384,1.56985,1.81976,5.33251,1.81976,5.33251,1.00685.67122,1.06045,3.96261.919,6.68216-.1076,2.06894-.328,3.80728-.328,3.80728C89.01355,65.65785,96.105,60.63471,96.105,60.63471l-.33172-3.64882-.11151-1.22655C96.99144,55.31614,98.32106,47.63372,98.46883,45.71313Z"/><path class="cls-6" d="M74.88511,70.03671,75.86483,98.308l2.45306-.096c2.77634-2.18494,5.968-4.33616,5.968-4.33616,6.205-5.31857,5.0231-1.47735,18.76278,0a22.28377,22.28377,0,0,1,7.55425,2.00182l3.82161-5.54753.80675-19.59253.15143-3.677a1.63655,1.63655,0,0,0-1.76569-1.69868l-.62787.05023L76.39843,68.33944A1.64553,1.64553,0,0,0,74.88511,70.03671Z"/><path class="cls-8" d="M78.31789,98.212l-2.45306.096-.97972-28.27133a1.64553,1.64553,0,0,1,1.51332-1.69727l36.59075-2.92726c-1.92131-2.61184-6.91134-7.62914-17.21589-8.42629l.33172,3.64882s-7.09146,5.02314-11.22813,1.18193c0,0,.22042-1.73834.328-3.80728l-1.06672.1138a102.15667,102.15667,0,0,0-11.22813,7.09145c-3.82735,3.0265-4.2844.14774-5.0231,6.796s-3.54575,24.52462-.88643,26.59294a20.54705,20.54705,0,0,0,5.27188,2.85888,7.64683,7.64683,0,0,0,2.115.5391C74.7979,101.14251,76.46561,99.66976,78.31789,98.212Z"/><path class="cls-6" d="M114.52731,98.97105a10.993,10.993,0,0,0-3.92436-3.09336,22.28377,22.28377,0,0,0-7.55425-2.00182c-13.73968-1.47735-12.55776-5.31857-18.76278,0,0,0-3.19169,2.15122-5.968,4.33616-1.85228,1.45773-3.52,2.93048-3.93045,3.78946-.65724,1.3754.57344,6.05889,1.54273,9.24807q-.30672.86776-.60976,1.74493-.07068.20514-.14085.411c-.88121,2.57069-1.73037,5.17891-2.52024,7.68937-2.84657,9.04736-4.9201,16.80707-4.9201,16.80707s1.40579.25465,3.28675.77365a26.46165,26.46165,0,0,1,6.92576,2.83428c.24672.15983.48275.32458.704.49535a7.17584,7.17584,0,0,1,.93923.8542,1.34742,1.34742,0,0,0,2.18421-.316l.63715-1.23607,5.5631-10.79236s1.24687,6.69719,2.87956,14.18324c.42933,1.96839.88509,3.99028,1.35215,5.96045,1.76667,7.45208,3.69142,14.1492,4.92807,14.27936,2.38265.25081,7.21159-1.83931,8.61782-2.47729.25048-.11361.39422-.182.39422-.182s-.12368-5.44254-.2855-12.62914c-.02571-1.14223-.05241-2.32894-.07971-3.54448-.13575-6.04361-.2867-12.80722-.41089-18.473-.14813-6.75869-.25806-11.95223-.25806-12.482,0,0,6.05727-.14773,7.97789-2.807a5.711,5.711,0,0,0,.57506-.97965c.9714-2.1334-.14715-3.67957.75456-5.22534a13.38807,13.38807,0,0,1,1.77289-2.51159A7.46009,7.46009,0,0,0,114.52731,98.97105Z"/><path class="cls-12" d="M78.46668,146.65978s-.266,2.23285-.7534,4.95219l10.94737-5.83862-10.343.22484-.17.42509C78.34984,146.57021,78.46668,146.65978,78.46668,146.65978Z"/><path class="cls-12" d="M83.83624,140.90544a78.11483,78.11483,0,0,0,8.44267,3.39088c-1.6327-7.48605-2.87956-14.18324-2.87956-14.18324Z"/><path class="cls-5" d="M112.0229,95.47573a10.993,10.993,0,0,1,3.92437,3.09335,13.01411,13.01411,0,0,0,2.99976-.51527c1.03416-.88643,6.64823,1.32966,4.28441-6.94373-1.65359-5.78762-4.82347-15.47309-6.58017-20.77442l-.80675,19.59253Z"/><path class="cls-5" d="M76.25059,113.12315c-3.192,1.14582-3.02732,4.42251-2.17132,7.56979.78987-2.51047,1.639-5.11869,2.52024-7.68938C76.47833,113.04347,76.36149,113.08335,76.25059,113.12315Z"/><path class="cls-5" d="M106.537,114.74827c0,.52976.10992,5.7233.25805,12.482,5.69965-.7091,13.90422-2.65439,14.22033-7.60662.23505-3.68246-2.81256-6.6568-5.92543-8.66207a5.71163,5.71163,0,0,1-.57506.97965C112.59427,114.60054,106.537,114.74827,106.537,114.74827Z"/><path class="cls-5" d="M78.14764,146.42328l.17-.42509-.749.01626C77.80357,146.176,77.99886,146.31517,78.14764,146.42328Z"/><path class="cls-5" d="M98.55913,164.53613s-.7387,8.27339-2.06836,11.22814-3.10248,9.89847,1.0342,10.04624,12.26229.29546,11.22813-3.10252-.44323-18.17186-.591-18.615c-.05849-.17544-.48836-1.047-.98519-2.03409C105.77072,162.69682,100.94178,164.78694,98.55913,164.53613Z"/><path class="cls-5" d="M83.83624,140.90544l-.63714,1.23607a1.34743,1.34743,0,0,1-2.18422.316,7.17654,7.17654,0,0,0-.93923-.8542l-1.758,4.39491,10.343-.22484L77.71328,151.612c-.2532,1.41263-.566,2.95373-.93315,4.38588,4.67038-2.06469,11.67281-4.86356,16.85093-5.74108-.46706-1.97017-.92283-3.992-1.35215-5.96045A78.11483,78.11483,0,0,1,83.83624,140.90544Z"/><path class="cls-5" d="M79.37169,141.10793a26.46179,26.46179,0,0,0-6.92576-2.83428l-2.2526,5.13588c1.19417-.56195,3.12258.14563,4.81761,1.04216a26.55254,26.55254,0,0,1,2.55776,1.56276l.749-.01626,1.758-4.39491C79.85443,141.43252,79.6184,141.26776,79.37169,141.10793Z"/><path class="cls-5" d="M68.56821,163.35424a2.7437,2.7437,0,0,0,5.31856,0,2.192,2.192,0,0,0-1.83743-1.95731c-1.14571.32-1.783,1.08534-3.42717,1.5411A1.63472,1.63472,0,0,0,68.56821,163.35424Z"/><path class="cls-5" d="M78.14764,146.42328c-.14878-.10811-.34407-.24726-.57894-.40883a26.55254,26.55254,0,0,0-2.55776-1.56276c-1.695-.89653-3.62344-1.60411-4.81761-1.04216-2.51155,1.18193-10.3417,6.796-12.70552,7.53469s-7.09146,3.25025-5.17083,6.50049c1.92058,3.25025,13.001,6.205,15.808,5.61407.17573-.037.341-.07747.49719-.12075,1.64418-.45576,2.28146-1.22112,3.42717-1.5411a4.78822,4.78822,0,0,1,1.83743-.111c1.15792.12191,2.13924-2.34676,2.89336-5.288.36718-1.43215.68-2.97325.93315-4.38588.48735-2.71934.7534-4.95219.7534-4.95219S78.34984,146.57021,78.14764,146.42328Z"/><path class="cls-5" d="M124.74461,152.89856l-.00557-.01112a2.86586,2.86586,0,0,0-.29963-.4215,12.9167,12.9167,0,0,0-2.68409-.8045,2.84737,2.84737,0,0,0-1.92186,2.75461,2.66782,2.66782,0,1,0,5.3186,0A3.03383,3.03383,0,0,0,124.74461,152.89856Z"/><path class="cls-5" d="M124.70883,149.0236a126.94544,126.94544,0,0,0-17.50288-3.32037c.02731,1.21554.054,2.40225.07972,3.54448,3.21337.44852,10.4,1.494,14.46965,2.41373a12.9167,12.9167,0,0,1,2.68409.8045c.163.0887.25964.173.26942.25114a.96488.96488,0,0,0,.03021.17036l.00557.01112C124.82839,152.96991,124.70883,149.0236,124.70883,149.0236Z"/><path class="cls-5" d="M85.70587,46.49306c.14773-.4432-.7387-7.68239-.7387-7.68239s3.398-.73869,5.31861-1.18193c1.92058-.44319,1.18189,1.18193,3.69344-.29546s3.69348-.88643,4.28444-.14773a9.8603,9.8603,0,0,1,.87513,2.65472.39631.39631,0,0,0,.12459-.07356c.45413-.4541,0-2.63382.3633-3.36042s.54493-.9082,0-2.17973a11.436,11.436,0,0,1-.4541-4.26861c0-1.27153-.27247-.7266-2.17972-.90823s-1.27153-.90823-2.543-1.45316-2.27056.63576-4.45028.45413-2.36136.36326-4.26862.90819-.90823.3633-3.088,1.72563-1.27153,2.27056-2.36139,2.90629-.0908,1.90729.18166,3.72372-.99906,2.90629.72657,4.54108a16.71926,16.71926,0,0,1,2.69629,3.73712c.10681-.04639.21937-.09141.34237-.13382C84.22848,45.4589,85.55814,46.93629,85.70587,46.49306Z"/><path class="cls-5" d="M99.88878,45.31117a23.39175,23.39175,0,0,0-.75-5.4709,9.8603,9.8603,0,0,0-.87513-2.65472c-.591-.7387-1.77289-1.32966-4.28444.14773s-1.77286-.14773-3.69344.29546c-1.92063.44324-5.31861,1.18193-5.31861,1.18193s.88643,7.23919.7387,7.68239-1.47739-1.03416-1.47739-1.03416c-.123.04241-.23556.08743-.34237.13382-3.61383,1.56986,1.81976,5.33251,1.81976,5.33251,1.00685.67122,1.06045,3.96261.919,6.68216-.10761,2.06894-.328,3.80728-.328,3.80728C90.43351,65.25588,97.525,60.23274,97.525,60.23274l-.33172-3.64882-.11152-1.22655C98.41139,54.91417,99.741,47.23175,99.88878,45.31117Z"/><path class="cls-5" d="M76.30507,69.63474l.97972,28.27134,2.45306-.096c2.77634-2.18494,5.968-4.33616,5.968-4.33616,6.205-5.31856,5.0231-1.47735,18.76278,0a22.28338,22.28338,0,0,1,7.55425,2.00183l3.82162-5.54754.80675-19.59253.15142-3.677A1.63654,1.63654,0,0,0,115.037,64.96l-.62787.05023L77.81838,67.93747A1.64552,1.64552,0,0,0,76.30507,69.63474Z"/><path class="cls-5" d="M79.73785,97.81006l-2.45306.096-.97972-28.27134a1.64552,1.64552,0,0,1,1.51331-1.69727l36.59076-2.92726c-1.92131-2.61183-6.91135-7.62914-17.21589-8.42629l.33172,3.64882s-7.09146,5.02314-11.22814,1.18193c0,0,.22042-1.73834.328-3.80728l-1.06672.1138s-8.08968,2.929-11.94118,6.15359c-1.88859,1.58117-3.57136,1.0856-4.31006,7.73382s-3.54574,24.52462-.88642,26.59294a20.54658,20.54658,0,0,0,5.27188,2.85888,7.64675,7.64675,0,0,0,2.115.5391C76.21785,100.74054,77.88557,99.26779,79.73785,97.81006Z"/><path class="cls-5" d="M115.94727,98.56908a10.993,10.993,0,0,0-3.92437-3.09335,22.28338,22.28338,0,0,0-7.55425-2.00183c-13.73968-1.47735-12.55775-5.31856-18.76278,0,0,0-3.19168,2.15122-5.968,4.33616-1.85228,1.45773-3.52,2.93048-3.93045,3.78946-.65724,1.3754.57343,6.05889,1.54273,9.24807q-.30673.86777-.60976,1.74494-.07068.20513-.14086.411c-.88121,2.57069-1.73037,5.17891-2.52024,7.68938C71.23271,129.74029,69.15917,137.5,69.15917,137.5s1.40579.25465,3.28676.77365a26.46179,26.46179,0,0,1,6.92576,2.83428c.24671.15983.48274.32459.704.49535a7.17654,7.17654,0,0,1,.93923.8542,1.34743,1.34743,0,0,0,2.18422-.316l.63714-1.23607,5.56311-10.79236s1.24686,6.69719,2.87956,14.18324c.42932,1.9684.88509,3.99028,1.35215,5.96045,1.76666,7.45208,3.69141,14.1492,4.92807,14.27936,2.38265.25081,7.21159-1.83931,8.61781-2.47728.25048-.11362.39423-.182.39423-.182s-.12368-5.44254-.2855-12.62914c-.02572-1.14223-.05241-2.32894-.07972-3.54448-.13574-6.0436-.2867-12.80722-.41089-18.473-.14813-6.75869-.25805-11.95223-.25805-12.482,0,0,6.05726-.14773,7.97789-2.80705a5.71163,5.71163,0,0,0,.57506-.97965c.97139-2.1334-.14715-3.67957.75456-5.22534a13.38748,13.38748,0,0,1,1.77289-2.51159A7.46016,7.46016,0,0,0,115.94727,98.56908Z"/><line class="cls-5" x1="85.70587" y1="93.4739" x2="77.35013" y2="110.84759"/><path class="cls-5" d="M115.84452,89.92819c-.86278.29015-21.91994,1.56634-21.91994,1.56634"/><line class="cls-5" x1="86.7779" y1="92.51548" x2="77.07885" y2="93.53644"/><path class="cls-5" d="M76.44075,90.47358c-1.27619-.89334-2.93524-2.93524-5.36-1.40381"/><path class="cls-5" d="M106.537,114.74827s-4.57243-8.70515-8.401-8.44992-8.73666,23.81473-8.73666,23.81473"/><path class="cls-5" d="M97.08173,55.35737s-4.43334,3.72189-6.60287-.61716"/><path class="cls-5" d="M96.0941,51.67735s-1.40381,1.53143-3.82857-.38286"/><path class="cls-5" d="M95.83886,45.67925s3.4282,3.94685-2.0419,2.93524"/><path class="cls-5" d="M94.42191,43.68208l-.14637,1.72719a.78575.78575,0,0,1-.54108.68125l-2.4422.79013a.78577.78577,0,0,1-.97346-.46091l-.89288-2.27838a.78576.78576,0,0,1,.67779-1.07062l3.48145-.23893A.78576.78576,0,0,1,94.42191,43.68208Z"/><path class="cls-5" d="M96.48621,43.3382l.39906,1.68682a.78577.78577,0,0,0,.63549.59417l2.53191.42195a.78576.78576,0,0,0,.895-.5992l.54771-2.385a.78575.78575,0,0,0-.828-.95917l-3.47869.27625A.78576.78576,0,0,0,96.48621,43.3382Z"/><path class="cls-5" d="M96.58853,43.94763s-1.60711-.48213-2.19639.58928"/><line class="cls-5" x1="89.62437" y1="44.75119" x2="84.22848" y2="45.4589"/><circle class="cls-1" cx="92.09764" cy="44.87756" r="0.50912"/><circle class="cls-1" cx="98.06827" cy="44.27587" r="0.50912"/><path class="cls-11" d="M59.4957,40.11474a1.654,1.654,0,0,1-1.15851-.51145l-5.15856-5.4011a1.65456,1.65456,0,0,1,2.393-2.28555l3.86072,4.04247,6.27839-7.74153A1.65442,1.65442,0,1,1,68.28053,30.302l-7.46193,9.201a1.65521,1.65521,0,0,1-1.21781.611C59.56558,40.11532,59.53045,40.11554,59.4957,40.11474Z"/><path class="cls-5" d="M59.26755,39.56331a1.654,1.654,0,0,1-1.15851-.51145l-5.15855-5.4011a1.65456,1.65456,0,1,1,2.393-2.28555l3.86073,4.04247,6.27838-7.74153a1.65442,1.65442,0,1,1,2.56977,2.08439l-7.46192,9.201a1.65524,1.65524,0,0,1-1.21782.611C59.33743,39.56389,59.3023,39.56411,59.26755,39.56331Z"/><path class="cls-5" d="M1054.95392,173.27123l.01646.12241.13218-.00908C1055.05246,173.34705,1055.00345,173.309,1054.95392,173.27123Z"/><path class="cls-13" d="M1098.30813,194.70617c-1.52189-3.04369-1.34628-4.68263-1.34628-4.68263-.64388-8.77993-1.756-9.42376-3.62905-10.77-1.12463-.80834-6.3184-2.18915-10.54243-3.87839-2.81081-1.12412-4.82988-2.7596-6.25647-3.087a45.78781,45.78781,0,0,0-5.56063-.99506l-.10028.1059,2.50013.77207c.35118,1.05362-2.22424,5.44359-5.85329,7.72636a9.61087,9.61087,0,0,1-8.77993,1.1121c-1.63889-.76093-3.45343-5.26794-3.45343-5.26794l-.31609-2.3479c-3.248.22272-7.21227.49022-9.15134.60429-3.60181.21187-2.75432,2.86025-8.263,5.29676s-5.61458,1.2712-9.00448,3.07213-6.6739,3.07209-10.27571,5.50859-4.2374,3.17807-4.66114,6.568a2.13155,2.13155,0,0,0,.64426,2.03563c.40158-3.19324,3.99566-7.69226,6.72655-7.97973,3.63449-.38256,4.20835,1.72162,4.97351,3.63449s1.53031,2.48678,7.269,3.06068a6.76007,6.76007,0,0,1,3.31715.994c.17454-.03211.26928-.05009.26928-.05009l3.81369-1.80089,2.752,4.25905,33.01868-.13645a3.55408,3.55408,0,0,1,3.55889,3.28984l1.43527,19.2568,4.63106-4.0052s-.76516.76516,2.678.1913c3.44324-.5739,4.591-1.33906,6.88647,2.29547a8.01836,8.01836,0,0,1,.79036,4.91317c1.32436-1.706,4.4031-5.90273,3.80219-7.33576-.76092-1.8145-.52679-9.54081.64388-12.81868C1101.99569,200.9692,1099.83,197.7499,1098.30813,194.70617Z"/><path class="cls-6" d="M1073.37312,172.171l-2.50013-.77207-.91639-.283a1.2208,1.2208,0,0,1-.77756-.724l-.44333-1.14c-.33908.79464-2.40483,5.22878-6.77651,6.431-.04469.01227-.08752.016-.13191.02684a6.35834,6.35834,0,0,1-4.72628-1.0219,17.25306,17.25306,0,0,1-1.99845-1.3034l-.13218.00908.31609,2.3479s1.81454,4.507,3.45343,5.26794a9.61087,9.61087,0,0,0,8.77993-1.1121C1071.14888,177.61461,1073.7243,173.22464,1073.37312,172.171Z"/><path class="cls-6" d="M1070.388,155.66477c-.6715.11852-1.34174,1.00867-1.70744,1.576-.17622.27334-.28268.47268-.28268.47268s-.58535-2.45838-1.81454-3.2193.58536-1.69746.23413-2.63395c-.35117-.93653.35123-1.46332-1.17066-2.16572a4.82776,4.82776,0,0,1-2.16568-1.99011s-.40975,1.22919-1.28776,1.17062-.35117-.17557-1.40475.46827a8.118,8.118,0,0,1-3.80466,1.22919c-1.22919,0-1.22919-.29266-2.22424.46826s-.7024.29266-2.34134.52679a3.35538,3.35538,0,0,0-2.57542,2.8096c-.05852.81945-.17561,5.15089-.17561,5.15089l-.14147-.0182-.76109-.098s-.77026-2.46491-1.38647-1.23243c-.61626,1.23243,1.07838,7.7028,2.31081,6.47037a18.29407,18.29407,0,0,0,1.69465,5.08385,17.13736,17.13736,0,0,0,3.57018,3.53771c.04953.03778.09854.07582.14864.11333a17.25306,17.25306,0,0,0,1.99845,1.3034,6.35834,6.35834,0,0,0,4.72628,1.0219c.04439-.01089.08722-.01457.13191-.02684,4.37168-1.20226,6.43743-5.6364,6.77651-6.431.03371-.079.05641-.13468.05641-.13468l.154-6.00819s1.793.69172,2.43685-2.64463S1071.383,155.48916,1070.388,155.66477Z"/><path class="cls-6" d="M1095.5886,219.48829c-2.29547-3.63453-3.44323-2.86937-6.88647-2.29547-3.44319.57386-2.678-.1913-2.678-.1913l-4.63106,4.0052.614,8.23733.54209,1.52772,7.44485-3.48848,5.79723-2.14005s.23517-.2876.58778-.74178A8.01836,8.01836,0,0,0,1095.5886,219.48829Z"/><path class="cls-13" d="M1090.94739,232.36818a21.30735,21.30735,0,0,0-.95344-5.08489l-7.44485,3.48848,1.56209,4.40229-4.56174.03769-.02921-.03769h-7.86605c.0778.0424.13813.06864.20534.10127a1.619,1.619,0,0,0,.44325.16493c2.11874.21188,5.50863,2.86026,8.263,4.02557,2.75432,1.16526,2.01276,2.01276,2.01276,2.01276,2.54245,6.88577,3.81369,5.93234,3.81369,5.93234.13516-.12094.24624-.24248.36782-.36376,3.50042-3.49173,1.53187-7.09791,1.32713-8.42884C1087.87526,237.24119,1091.05332,234.91062,1090.94739,232.36818Z"/><path class="cls-8" d="M1049.84223,235.45725l-12.02318.09937-2.48678-8.03419-1.40592-21.22971a6.28674,6.28674,0,0,0-2.80242-1.53378c-2.29548-.19125-5.54741-1.14771-6.69517-2.29547-.704-.704-2.99174-.97781-5.31734-1.61278a3.29636,3.29636,0,0,0-2.52554,3.5257c.1913,5.73871,2.86937,19.51155,6.50386,29.84121,1.53991,4.37661,3.25051,8.71571,4.71189,12.267,8.33812-3.94885,17.43677-8.322,19.96448-9.78026C1048.43916,236.31607,1049.12729,235.88921,1049.84223,235.45725Z"/><path class="cls-6" d="M1036.54525,196.18846a6.76007,6.76007,0,0,0-3.31715-.994c-5.73871-.5739-6.50387-1.14776-7.269-3.06068s-1.339-4.01705-4.97351-3.63449c-2.73089.28747-6.325,4.78649-6.72655,7.97973a2.65221,2.65221,0,0,0,.79654,2.54123,11.27832,11.27832,0,0,0,4.05586,1.83041c2.3256.635,4.61334.90878,5.31734,1.61278,1.14776,1.14776,4.39969,2.10422,6.69517,2.29547a6.28674,6.28674,0,0,1,2.80242,1.53378l-.02662-.40244-.23911-3.6102a3.43077,3.43077,0,0,1,3.40909-3.65749l.92465-.0038A4.16336,4.16336,0,0,0,1036.54525,196.18846Z"/><path class="cls-1" d="M1082.5491,230.77177l-.54209-1.52772-.614-8.23733-1.43527-19.2568a3.55408,3.55408,0,0,0-3.55889-3.28984l-33.01868.13645-5.38584.02226-.92465.0038a3.43077,3.43077,0,0,0-3.40909,3.65749l.23911,3.6102.02662.40244,1.40592,21.22971,2.48678,8.03419,12.02318-.09937.08432-.05083c4.55378-2.74533,10.24871-5.65028,20.60309-.23236h8.9906l.02921.03769,4.56174-.03769Z"/><path class="cls-7" d="M1018.65625,264.34862c-2.3814,2.21763-3.91172,4.94485-3.792,6.02276.1913,1.72162,11.66867,1.53032,14.538,1.339s12.62513-4.20835,13.96415-6.12127c.86284-1.23265.29641-4.3649-.2159-6.44154C1038.03836,261.93839,1029.11985,265.5399,1018.65625,264.34862Z"/><path class="cls-8" d="M1086.39218,247.41093s-1.27124.95343-3.81369-5.93234c0,0,.74156-.8475-2.01276-2.01276-2.75432-1.16531-6.14421-3.81369-8.263-4.02557a1.619,1.619,0,0,1-.44325-.16493c-.06721-.03263-.12754-.05887-.20534-.10127h-1.12455c-10.35438-5.41792-16.04931-2.513-20.60309.23236l-.08432.05083c-.71494.432-1.40307.85882-2.07612,1.24713-2.52771,1.45826-11.62636,5.83141-19.96448,9.78026-8.06807,3.82091-15.4241,7.24452-15.4241,7.24452l.44933,1.94706,1.63314,7.07707.213.92292a36.02256,36.02256,0,0,0,3.98325.67241c10.4636,1.19128,19.38211-2.41023,24.49431-5.201a35.75985,35.75985,0,0,0,4.61555-2.93166l10.71225,1.91288c2.48678,3.44323,8.79934,5.5474,8.79934,5.5474,16.50171,1.50019,19.12019-11.11431,19.4823-16.629C1086.63842,247.16845,1086.52734,247.29,1086.39218,247.41093Z"/><path class="cls-7" d="M1001.55479,258.83946a12.33978,12.33978,0,0,0-2.3763-2.62353c-2.48677-1.72162-3.06063-.76516-6.12126.95646s-5.54741,1.72162-10.90352,1.53032-7.269,4.01709-9.18189,7.269,1.72161,4.78221,4.20839,6.12127c2.48673,1.339,21.42443-4.2084,21.42443-4.2084l1.14776-8.99059S1000.45847,258.907,1001.55479,258.83946Z"/><path class="cls-6" d="M1012.82686,255.67622a32.47433,32.47433,0,0,1-5.61418,2.26133,28.08918,28.08918,0,0,1-5.65789.90191c-1.09632.06751-1.80239.05455-1.80239.05455l-1.14776,8.99059a18.196,18.196,0,0,0,7.07772.57386c1.56693-.13623,3.35541-2.38693,4.97355-3.44319,1.47793-.96475,2.82832-1.73506,3.80409-2.262Z"/><path class="cls-12" d="M1038.8925,198.0075l5.38584-.02226-2.752-4.25905-3.81369,1.80089s-.09475.018-.26928.05009A4.16341,4.16341,0,0,1,1038.8925,198.0075Z"/><path class="cls-6" d="M1050.74106,153.76577a3.35538,3.35538,0,0,1,2.57542-2.8096c1.63894-.23413,1.34628.23413,2.34134-.52679s.995-.46827,2.22424-.46827a8.11784,8.11784,0,0,0,3.80466-1.22919c1.05357-.64383.52679-.52679,1.40475-.46826s1.28776-1.17063,1.28776-1.17063a4.82775,4.82775,0,0,0,2.16568,1.99012c1.52189.7024.81949,1.22918,1.17066,2.16572.35123.93649-1.46332,1.873-.23413,2.63394s1.81454,3.2193,1.81454,3.2193.10646-.19934.28268-.47267c.151-1.485.3067-2.9821.36116-3.39046.11709-.878,1.34628-2.16572.93653-3.62905s-1.34623-1.11214-1.4048-3.27782-.878-2.45838-1.873-3.21934-1.81455-.99506-3.86318-1.34624-2.92664-1.8145-4.507-1.11214-2.34133.7024-4.56558.52683-2.69251,1.63889-4.74115,2.9266-3.86317,7.49223-2.39985,8.60437c1.11966.85091,2.37366,4.36827,2.90222,6.18627l.14147.0182S1050.68254,154.58521,1050.74106,153.76577Z"/><path class="cls-5" d="M1055.85206,172.65994l.01646.12241.13218-.00908C1055.9506,172.73575,1055.90159,172.69772,1055.85206,172.65994Z"/><path class="cls-5" d="M1099.20627,194.09487c-1.52189-3.04369-1.34628-4.68262-1.34628-4.68262-.64388-8.77993-1.756-9.42377-3.62905-10.77-1.12463-.80834-6.3184-2.18915-10.54243-3.8784-2.81081-1.12411-4.82989-2.75959-6.25647-3.087a45.78781,45.78781,0,0,0-5.56063-.99506l-.10028.10589,2.50013.77208c.35118,1.05362-2.22424,5.44359-5.85329,7.72635a9.6108,9.6108,0,0,1-8.77993,1.1121c-1.63889-.76092-3.45343-5.26793-3.45343-5.26793l-.31609-2.3479c-3.248.22272-7.21227.49022-9.15134.60428-3.60181.21188-2.75432,2.86026-8.263,5.29677s-5.61458,1.2712-9.00448,3.07213-6.6739,3.07208-10.27571,5.50859-4.2374,3.17807-4.66114,6.568a2.13154,2.13154,0,0,0,.64426,2.03562c.40158-3.19324,3.99566-7.69225,6.72655-7.97972,3.63449-.38256,4.20835,1.72162,4.9735,3.63449.76516,1.91292,1.53032,2.48677,7.269,3.06068a6.76007,6.76007,0,0,1,3.31715.994c.17453-.03211.26928-.05009.26928-.05009l3.81369-1.80089,2.752,4.25905,33.01868-.13645a3.55407,3.55407,0,0,1,3.55889,3.28984l1.43527,19.2568,4.63106-4.0052s-.76516.76515,2.678.1913c3.44324-.5739,4.591-1.33906,6.88647,2.29547a8.01835,8.01835,0,0,1,.79036,4.91317c1.32436-1.706,4.4031-5.90274,3.80219-7.33576-.76092-1.8145-.52679-9.54081.64388-12.81868C1102.89383,200.35791,1100.72811,197.13861,1099.20627,194.09487Z"/><path class="cls-5" d="M1074.27126,171.55973l-2.50013-.77208-.91639-.283a1.22082,1.22082,0,0,1-.77756-.724l-.44333-1.14c-.33908.79463-2.40483,5.22877-6.77651,6.431-.04469.01227-.08752.016-.13191.02684a6.35838,6.35838,0,0,1-4.72628-1.0219,17.25221,17.25221,0,0,1-1.99845-1.3034l-.13218.00908.31609,2.3479s1.81454,4.507,3.45343,5.26793a9.6108,9.6108,0,0,0,8.77993-1.1121C1072.047,177.00332,1074.62244,172.61335,1074.27126,171.55973Z"/><path class="cls-5" d="M1071.2861,155.05348c-.6715.11851-1.34174,1.00867-1.70744,1.576-.17622.27333-.28268.47267-.28268.47267s-.58535-2.45837-1.81454-3.2193.58536-1.69745.23413-2.63394c-.35117-.93654.35123-1.46332-1.17066-2.16572a4.82775,4.82775,0,0,1-2.16568-1.99012s-.40975,1.22919-1.28776,1.17063-.35118-.17557-1.40475.46826a8.11784,8.11784,0,0,1-3.80466,1.22919c-1.22919,0-1.22919-.29265-2.22424.46827s-.7024.29266-2.34134.52679a3.35538,3.35538,0,0,0-2.57542,2.8096c-.05852.81944-.17561,5.15089-.17561,5.15089l-.14147-.0182-.76109-.098s-.77026-2.4649-1.38648-1.23243,1.07839,7.7028,2.31082,6.47037a18.2941,18.2941,0,0,0,1.69465,5.08386,17.1376,17.1376,0,0,0,3.57018,3.53771c.04953.03778.09854.07581.14864.11333a17.25221,17.25221,0,0,0,1.99845,1.3034,6.35838,6.35838,0,0,0,4.72628,1.0219c.04439-.01089.08722-.01457.13191-.02684,4.37168-1.20227,6.43743-5.63641,6.77651-6.431.03371-.079.0564-.13468.0564-.13468l.154-6.0082s1.793.69173,2.43685-2.64462S1072.28115,154.87787,1071.2861,155.05348Z"/><path class="cls-5" d="M1096.48674,218.877c-2.29547-3.63453-3.44323-2.86937-6.88647-2.29547-3.44319.57385-2.678-.1913-2.678-.1913l-4.63106,4.0052.614,8.23733.54209,1.52772,7.44485-3.48849,5.79723-2.14s.23517-.2876.58778-.74178A8.01835,8.01835,0,0,0,1096.48674,218.877Z"/><path class="cls-5" d="M1091.84552,231.75688a21.30718,21.30718,0,0,0-.95343-5.08489l-7.44485,3.48849,1.56208,4.40229-4.56173.03769-.02921-.03769h-7.86605c.0778.0424.13813.06863.20534.10127a1.619,1.619,0,0,0,.44324.16493c2.11874.21187,5.50864,2.86026,8.263,4.02556s2.01276,2.01276,2.01276,2.01276c2.54245,6.88578,3.81369,5.93235,3.81369,5.93235.13516-.12094.24624-.24248.36782-.36376,3.50041-3.49173,1.53187-7.09791,1.32713-8.42884C1088.77339,236.6299,1091.95146,234.29933,1091.84552,231.75688Z"/><path class="cls-5" d="M1050.74037,234.846l-12.02318.09936-2.48678-8.03418-1.40592-21.22971a6.28664,6.28664,0,0,0-2.80242-1.53378c-2.29548-.19126-5.54741-1.14771-6.69517-2.29547-.704-.704-2.99174-.97781-5.31734-1.61279a3.29636,3.29636,0,0,0-2.52554,3.5257c.1913,5.73871,2.86937,19.51156,6.50386,29.84122,1.53991,4.37661,3.25051,8.7157,4.71189,12.267,8.33812-3.94885,17.43677-8.322,19.96448-9.78027C1049.3373,235.70478,1050.02543,235.27792,1050.74037,234.846Z"/><path class="cls-5" d="M1037.44339,195.57717a6.76007,6.76007,0,0,0-3.31715-.994c-5.73871-.57391-6.50387-1.14776-7.269-3.06068-.76515-1.91287-1.339-4.017-4.9735-3.63449-2.73089.28747-6.325,4.78648-6.72655,7.97972a2.65223,2.65223,0,0,0,.79654,2.54124,11.27831,11.27831,0,0,0,4.05586,1.8304c2.3256.635,4.61334.90879,5.31734,1.61279,1.14776,1.14776,4.39969,2.10421,6.69517,2.29547a6.28664,6.28664,0,0,1,2.80242,1.53378l-.02662-.40244-.23911-3.6102a3.43076,3.43076,0,0,1,3.40909-3.65749l.92465-.0038A4.16341,4.16341,0,0,0,1037.44339,195.57717Z"/><path class="cls-5" d="M1083.44724,230.16048l-.54209-1.52772-.614-8.23733-1.43527-19.2568a3.55407,3.55407,0,0,0-3.55889-3.28984l-33.01868.13645-5.38584.02226-.92465.0038a3.43076,3.43076,0,0,0-3.40909,3.65749l.23911,3.6102.02662.40244,1.40592,21.22971,2.48678,8.03418,12.02318-.09936.08432-.05083c4.55378-2.74533,10.24871-5.65028,20.60309-.23236h8.9906l.02921.03769,4.56173-.03769Z"/><path class="cls-5" d="M1019.55439,263.73732c-2.3814,2.21764-3.91172,4.94485-3.792,6.02277.1913,1.72161,11.66867,1.53031,14.538,1.339s12.62513-4.20835,13.96415-6.12126c.86284-1.23265.29641-4.3649-.2159-6.44154C1038.9365,261.3271,1030.018,264.92861,1019.55439,263.73732Z"/><path class="cls-5" d="M1087.29032,246.79964s-1.27124.95343-3.81369-5.93235c0,0,.74156-.84749-2.01276-2.01276s-6.14422-3.81369-8.263-4.02556a1.619,1.619,0,0,1-.44324-.16493c-.06721-.03264-.12754-.05887-.20534-.10127h-1.12455c-10.35438-5.41792-16.04931-2.513-20.60309.23236l-.08432.05083c-.71494.432-1.40307.85882-2.07612,1.24712-2.52771,1.45827-11.62636,5.83142-19.96448,9.78027-8.06807,3.8209-15.4241,7.24451-15.4241,7.24451l.44933,1.94707,1.63314,7.07707.213.92292a36.02014,36.02014,0,0,0,3.98325.6724c10.4636,1.19129,19.38211-2.41022,24.49431-5.201a35.75985,35.75985,0,0,0,4.61555-2.93166l10.71225,1.91287c2.48678,3.44324,8.79934,5.54741,8.79934,5.54741,16.50171,1.50019,19.12019-11.11431,19.4823-16.629C1087.53656,246.55716,1087.42548,246.6787,1087.29032,246.79964Z"/><path class="cls-5" d="M1002.45293,258.22817a12.33978,12.33978,0,0,0-2.3763-2.62353c-2.48677-1.72162-3.06063-.76516-6.12126.95646s-5.54741,1.72161-10.90352,1.53031-7.269,4.01709-9.18189,7.269,1.72161,4.7822,4.20839,6.12126,21.42443-4.20839,21.42443-4.20839l1.14776-8.9906S1001.35661,258.29568,1002.45293,258.22817Z"/><path class="cls-5" d="M1013.725,255.06493a32.47513,32.47513,0,0,1-5.61418,2.26133,28.0899,28.0899,0,0,1-5.65789.90191c-1.09632.06751-1.80239.05454-1.80239.05454l-1.14776,8.9906a18.196,18.196,0,0,0,7.07772.57386c1.56693-.13624,3.35541-2.38693,4.97355-3.44319,1.47793-.96476,2.82832-1.73506,3.80409-2.262Z"/><path class="cls-5" d="M1063.56569,169.67087s-.99647,1.57774-3.57069.33216"/><path class="cls-5" d="M1059.82893,161.28392s-1.00279,6.537.16607,6.97529c1.32863.49823,2.74029-.91343,2.49118-1.74382"/><line class="cls-5" x1="1069.29598" y1="157.10211" x2="1067.05333" y2="160.61961"/><line class="cls-5" x1="1050.42398" y1="158.89846" x2="1053.51796" y2="161.53304"/><path class="cls-5" d="M1062.48618,161.45s-3.48764-.74735-4.235.33216"/><rect class="cls-5" x="1053.51796" y="160.95177" width="4.73323" height="2.74029" rx="0.7939"/><rect class="cls-5" x="1062.48618" y="160.45353" width="4.73323" height="2.74029" rx="0.7939"/><path class="cls-5" d="M1041.52636,193.72619c.44916-.14006,5.51455-20.15248,8.08876-20.4016"/><path class="cls-5" d="M1086.92224,216.39023a14.85659,14.85659,0,0,1-.43777-8.7705c1.24559-4.81626-1.99293-5.14842-1.32862-7.47351a32.20153,32.20153,0,0,0,.66431-6.64313s-10.70833-20.66121-10.47223-22.0778"/><path class="cls-5" d="M1071.42778,234.56277s7.81577,6.51146,9.23236,8.63634"/><line class="cls-5" x1="1059.3765" y1="257.51751" x2="1055.04349" y2="252.17084"/><path class="cls-5" d="M1048.66425,255.60464c.47679-.36453,8.97632-4.61429,10.74706-7.32942"/><line class="cls-5" x1="1038.71719" y1="234.94532" x2="1039.46102" y2="240.60203"/><line class="cls-5" x1="1082.90515" y1="228.63276" x2="1036.23041" y2="226.91114"/><circle class="cls-1" cx="1056.8169" cy="162.32191" r="0.46616"/><circle class="cls-1" cx="1064.54973" cy="162.13935" r="0.46616"/><path class="cls-8" d="M1083.11565,139.67081h33.101a6.68242,6.68242,0,0,1,6.68233,6.68233v25.415a6.68231,6.68231,0,0,1-6.68233,6.6822h-31.13239l-8.651,11.25828V146.35314A6.68242,6.68242,0,0,1,1083.11565,139.67081Z"/><path class="cls-5" d="M1085.26651,139.45h33.101a6.68242,6.68242,0,0,1,6.68234,6.68233v25.415a6.68231,6.68231,0,0,1-6.68234,6.6822h-31.13239l-8.651,11.25828V146.13229A6.68242,6.68242,0,0,1,1085.26651,139.45Z"/><line class="cls-5" x1="1087.33296" y1="165.23824" x2="1114.9969" y2="165.23824"/><line class="cls-5" x1="1087.33296" y1="157.85795" x2="1114.9969" y2="157.85795"/><line class="cls-5" x1="1087.33296" y1="150.47766" x2="1114.9969" y2="150.47766"/><path class="cls-13" d="M1095.576,105.94231a7.02646,7.02646,0,0,0-6.03031,3.52237.62583.62583,0,0,1-1.06064,0,6.9736,6.9736,0,0,0-13.03136,3.61786c0,7.9421,11.47408,15.86513,13.56168,17.22636,2.08568-1.36123,13.55977-9.28426,13.55977-17.22636A7.07965,7.07965,0,0,0,1095.576,105.94231Zm-.53032,12.97462a1.56185,1.56185,0,0,1-1.56475,1.56742h-2.2056v2.25474a1.56874,1.56874,0,0,1-1.55536,1.58461h-1.4092a1.5687,1.5687,0,0,1-1.55536-1.58461v-2.25474h-2.20566a1.554,1.554,0,0,1-1.55536-1.56742v-1.43569a1.57281,1.57281,0,0,1,1.55536-1.60179h2.20566V113.642a1.5687,1.5687,0,0,1,1.55536-1.58461h1.4092a1.56874,1.56874,0,0,1,1.55536,1.58461v2.23749h2.2056a1.58058,1.58058,0,0,1,1.56475,1.60179Z"/><path class="cls-1" d="M1103.10372,112.90263a8.32571,8.32571,0,0,0-8.23406-8.39074,8.19121,8.19121,0,0,0-6.56063,3.3372,8.19135,8.19135,0,0,0-6.56063-3.3372,8.32727,8.32727,0,0,0-8.236,8.39074c0,9.39692,13.88961,18.14089,14.47614,18.51313a.6761.6761,0,0,0,.32045.09359.65267.65267,0,0,0,.32045-.09359C1089.2235,131.04352,1103.10372,122.29955,1103.10372,112.90263ZM1088.309,130.129c-2.08759-1.36123-13.56168-9.28426-13.56168-17.22636a6.97361,6.97361,0,0,1,13.03137-3.61785.62583.62583,0,0,0,1.06063,0,6.97241,6.97241,0,0,1,13.02945,3.61785C1101.8688,120.84473,1090.39471,128.76776,1088.309,130.129Z"/><path class="cls-1" d="M1092.77459,115.69955h-2.2056v-2.2375a1.56873,1.56873,0,0,0-1.55536-1.5846h-1.40919a1.5687,1.5687,0,0,0-1.55537,1.5846v2.2375h-2.20565a1.57282,1.57282,0,0,0-1.55537,1.60179V118.737a1.554,1.554,0,0,0,1.55537,1.56743h2.20565v2.25474a1.5687,1.5687,0,0,0,1.55537,1.5846h1.40919a1.56873,1.56873,0,0,0,1.55536-1.5846v-2.25474h2.2056a1.56186,1.56186,0,0,0,1.56475-1.56743v-1.43568A1.58058,1.58058,0,0,0,1092.77459,115.69955Zm.32793,3.03747a.32673.32673,0,0,1-.32793.31691h-2.81839a.62115.62115,0,0,0-.61279.63388v2.87138a.33217.33217,0,0,1-.32978.336h-1.40919a.3233.3233,0,0,1-.32045-.336v-2.87138a.62418.62418,0,0,0-.62219-.63388h-2.81838a.31889.31889,0,0,1-.32045-.31691v-1.43568a.32288.32288,0,0,1,.32045-.3341h2.81838a.63641.63641,0,0,0,.62219-.63381v-2.87138a.32335.32335,0,0,1,.32045-.336h1.40919a.33222.33222,0,0,1,.32978.336v2.87138a.63346.63346,0,0,0,.61279.63381h2.81839a.33022.33022,0,0,1,.32793.3341Z"/><path class="cls-12" d="M104.21811,243.71509l-3.41056-7.07375c1.14587-1.30955,4.6526-1.20793,6.77944-1.0091-1.6605-.59736-5.98656-2.53193-5.86427-6.44479l-2.39633,4.8848,4.81567,9.63133Z"/><path class="cls-9" d="M108.22475,235.84066s-.24488-.06709-.63776-.20842c-2.12684-.19883-5.63357-.30045-6.77944,1.0091l3.41056,7.07375.92134,1.91089a1.09909,1.09909,0,0,0,1.84508-.08019,2.30639,2.30639,0,0,0,.56495-1.32712c.03739-.38451.01452-.66364.39768-.91906a2.52884,2.52884,0,0,1,1.78969-.20089Z"/><path class="cls-9" d="M107.54948,244.21867a2.30639,2.30639,0,0,1-.56495,1.32712,1.09909,1.09909,0,0,1-1.84508.08019l-.92134-1.91089-.076-.01151-4.81567-9.63133-7.01726-14.03461a2.13069,2.13069,0,0,0-1.83165-1.17652l-.42966-.01494-44.87194-1.562a.66443.66443,0,0,0-.59443,1.00324l15.86541,26.72074a2.94025,2.94025,0,0,0,2.21566,1.42248l34.88106,3.72867,7.50576.80234s9.56953-1.35865,16.89387-2.34063c2.91378-.39066,5.47224-.72171,6.93148-.88389a.14857.14857,0,0,0,.00136-.2947Z"/><path class="cls-7" d="M89.346,258.30618l-6.79732,3.45262S98.92872,273.22488,99.37545,273.076s29.63305-13.253,29.63305-13.253l-3.16371-2.29524-22.00207,9.14508S94.98465,261.61562,89.346,258.30618Z"/><path class="cls-7" d="M122.467,248.8348l-.52378-.21379c-7.32434.982-16.89387,2.34063-16.89387,2.34063l-7.50576-.80234c-4.53216,1.82453-12.70272,5.16957-12.76131,5.34531-.02565.0769,1.91525,1.24718,4.56368,2.80157,5.6387,3.30944,14.49677,8.36665,14.49677,8.36665l22.00207-9.14508,7.21125-2.99731S122.70766,248.75458,122.467,248.8348Z"/><path class="cls-4" d="M158.04588,219.46845c-1.85508-1.57683-8.10026-3.78884-12.54733-5.23319a84.78248,84.78248,0,0,1,.00517,10.20543c-.05959.83664-.13615,1.61975-.23263,2.32742-.90728,6.65321-1.96574,15.877-4.08265,16.1794a10.049,10.049,0,0,0-1.88826.58763c4.2412-.49277,12.88-4.00035,15.9164-4.11278a5.31936,5.31936,0,0,0,3.581-1.70572c1.82958-1.81217,3.04856-4.71188,4.0134-6.93107C164.3001,227.36064,161.02408,221.99992,158.04588,219.46845Z"/><path class="cls-6" d="M163.85337,202.19491a125.015,125.015,0,0,1-9.16474-14.1003c-1.43338-2.52846-2.30131-4.2156-2.30131-4.2156s-.33923-1.1-.8736-2.74985c-1.62094-5.00472-5.04215-15.08239-6.27407-14.97042-1.638.1489-4.7651,1.04235-4.914,4.61621s2.38257,4.02054,2.38257,7.29657-1.78691,8.19.74456,9.23241c1.37.56411,2.99785,1.08314,4.20671,1.442l-.33506.34491.1489,3.87165s-2.53147,9.08352-2.82926,9.828c-.05033.12584-.15041.43166-.28138.84027a95.916,95.916,0,0,1,1.1359,10.60446c4.44707,1.44435,10.69225,3.65636,12.54733,5.23319,2.9782,2.53147,6.25422,7.89219,4.76511,11.31712-.96484,2.21919-2.18382,5.1189-4.0134,6.93107,13.78995-.68149,13.4577-6.43842,14.4371-10.356C174.277,223.19116,169.95866,210.08714,163.85337,202.19491Z"/><path class="cls-6" d="M155.9134,182.46058a7.69293,7.69293,0,0,0,1.38792-1.41087c1.78695-2.23363,8.19007-13.10406,8.19007-15.03987s-.89346-4.76514-6.55205-4.46731-4.61621,5.50967-5.65856,7.59441-2.87665,8.23435-1.34018,9.828c.59871.621-.66395,1.28685-.42688,2.16419l4.44742,1.11184Z"/><path class="cls-4" d="M153.23455,181.55936l-1.72083-.4302c.53437,1.6498.8736,2.74985.8736,2.74985s.86793,1.68714,2.30131,4.2156l1.22477-5.634.04774-.21958Z"/><path class="cls-7" d="M130.8944,182.13065c2.30239,2.30239.29238,8.39087-1.005,10.38133a18.66416,18.66416,0,0,1,3.88972.08273c2.308.54955,5.49367.46291,7.75917,3.10187.01939-2.60022-.50454-5.83955-3.59525-7.797-4.46731-2.82926-5.36077-12.21061-10.87043-16.23116s-8.93458-11.615-18.31589-6.552c-.78975.42622-1.50314.86352-2.15778,1.306C123.50845,163.11114,128.4481,179.68439,130.8944,182.13065Z"/><path class="cls-5" d="M99.97107,176.73134c-.00406-.06246-.004-.12233-.007-.18416C99.96551,176.66606,99.97107,176.73134,99.97107,176.73134Z"/><path class="cls-4" d="M145.49855,214.23526a95.916,95.916,0,0,0-1.1359-10.60446c-.2256-1.317-.4777-2.54132-.75487-3.62681a10.415,10.415,0,0,0-2.06945-4.30741c-2.2655-2.639-5.45118-2.55232-7.75917-3.10187a18.66416,18.66416,0,0,0-3.88972-.08273,3.25659,3.25659,0,0,1-.33476.44792,1.53263,1.53263,0,0,1-1.7248.22789,10.81171,10.81171,0,0,1-.62336,1.87462,17.34353,17.34353,0,0,1-3.95959,5.4333c-8.09405,7.87076-9.74,5.49073-9.74,5.49073l-1.994-4.20962s-3.226,1.175-4.454-.27634c-.95746-1.13153-2.93247-4.49612-4.36423-6.8532a21.99637,21.99637,0,0,0-4.14734,1.42527c-4.78674,2.16542-7.42512,15.409-8.49949,22.77363l.42966.01494a2.13081,2.13081,0,0,1,1.83167,1.17657l7.01724,14.03456,2.39633-4.8848c-.12229,3.91286,4.20377,5.84743,5.86427,6.44479.39288.14133.63776.20842.63776.20842l1.5121,7.25806s5.59475-.4536,17.23789.75607c8.00687.83189,10.722.23356,12.32544-.31965a10.049,10.049,0,0,1,1.88826-.58763c2.11691-.30239,3.17537-9.52619,4.08265-16.1794.09648-.70767.173-1.49078.23263-2.32742A84.78248,84.78248,0,0,0,145.49855,214.23526Z"/><path class="cls-9" d="M125.34225,192.80649q-.26274-.31036-.54-.63135c-.927.09161-2.32845-.18358-3.50908-2.17373a3.60729,3.60729,0,0,1-.48894-1.8844,7,7,0,0,0-.73035-.51528c-2.53147-1.48908-1.48911-5.21183-3.425-7.59437-1.9358-2.38257-8.19-3.276-10.87039-3.87168s-4.69253,10.79557-4.69253,10.79557-.05457,5.09233.5582,6.02865c.28207.431.64576,1.02123,1.05042,1.68738,1.43176,2.35708,3.40677,5.72167,4.36423,6.8532,1.228,1.45138,4.454.27634,4.454.27634l1.897,3.57769s1.74295,3.012,9.837-4.8588a17.34353,17.34353,0,0,0,3.95959-5.4333C126.754,194.50742,126.09878,193.70017,125.34225,192.80649Z"/><path class="cls-7" d="M122.24216,173.925c-4.46569-5.917-10.94092-5.47046-15.85314-5.41464s-6.418,8.221-6.418,8.221l-.28057,4.17125a8.38256,8.38256,0,0,0,.07416,4.3567l1.00825,1.27575.31312.39621s2.01217-11.3912,4.69253-10.79557,8.93459,1.48911,10.87039,3.87168c1.93585,2.38254.89349,6.10529,3.425,7.59437a7,7,0,0,1,.73035.51528,9.93938,9.93938,0,0,1,2.11413-5.1693c.64386-.91262,1.22593-1.58607,1.38916-1.82183.50238-.72567,2.62354.22329,2.62354.22329S126.70781,179.842,122.24216,173.925Z"/><path class="cls-7" d="M126.85624,192.6915a8.1385,8.1385,0,0,1-1.04154-.79218,2.971,2.971,0,0,1-1.01242.27582q.2763.3201.54.63135c.75653.89368,1.41179,1.70093,1.86427,2.25592a10.81171,10.81171,0,0,0,.62336-1.87462A5.03887,5.03887,0,0,1,126.85624,192.6915Z"/><path class="cls-1" d="M130.8944,182.13065c-2.4463-2.44626-7.38595-19.01951-24.29542-15.70826-.45376.08884-.911.18354-1.38221.30169a11.00865,11.00865,0,0,0-5.25273,9.8231c.00305.06183.003.1217.007.18416,0,0,1.50573-8.16515,6.418-8.221s11.38745-.50239,15.85314,5.41464,4.68893,7.42419,4.68893,7.42419-2.12116-.949-2.62354-.22329c-.16323.23576-.7453.90921-1.38916,1.82183a9.93938,9.93938,0,0,0-2.11413,5.1693,3.60729,3.60729,0,0,0,.48894,1.8844c1.18063,1.99015,2.5821,2.26534,3.50908,2.17373a2.971,2.971,0,0,0,1.01242-.27582,8.1385,8.1385,0,0,0,1.04154.79218,5.03887,5.03887,0,0,0,.97364.49629,1.53263,1.53263,0,0,0,1.7248-.22789,3.25659,3.25659,0,0,0,.33476-.44792C131.18678,190.52152,133.19679,184.433,130.8944,182.13065Z"/><path class="cls-12" d="M105.09669,242.57964l-3.41056-7.07375c1.14587-1.30955,4.6526-1.20793,6.77944-1.00909-1.6605-.59736-5.98656-2.53193-5.86427-6.44479l-2.39633,4.8848,4.81567,9.63132Z"/><path class="cls-5" d="M109.10333,234.70522s-.24488-.06709-.63776-.20842c-2.12684-.19884-5.63357-.30046-6.77944,1.00909l3.41056,7.07375.92134,1.9109a1.09909,1.09909,0,0,0,1.84508-.08019,2.30639,2.30639,0,0,0,.56495-1.32713c.03739-.3845.01453-.66364.39768-.91906a2.52888,2.52888,0,0,1,1.78969-.20088Z"/><path class="cls-5" d="M108.42806,243.08322a2.30639,2.30639,0,0,1-.56495,1.32713,1.09909,1.09909,0,0,1-1.84508.08019l-.92134-1.9109-.076-.01151-4.81567-9.63132L93.18771,218.9022a2.13067,2.13067,0,0,0-1.83165-1.17652l-.42966-.01495-44.87194-1.562A.66442.66442,0,0,0,45.46,217.152l15.8654,26.72075a2.94027,2.94027,0,0,0,2.21566,1.42247l34.88106,3.72867,7.50576.80234s9.56953-1.35864,16.89387-2.34062c2.91378-.39066,5.47224-.72171,6.93149-.8839a.14856.14856,0,0,0,.00135-.29469Z"/><path class="cls-5" d="M90.22453,257.17074l-6.79732,3.45261S99.8073,272.08944,100.254,271.94051s29.63305-13.253,29.63305-13.253l-3.16371-2.29524-22.00207,9.14508S95.86323,260.48017,90.22453,257.17074Z"/><path class="cls-5" d="M123.34557,247.69935l-.52378-.21378c-7.32434.982-16.89387,2.34062-16.89387,2.34062l-7.50576-.80234c-4.53216,1.82453-12.70272,5.16958-12.76131,5.34532-.02565.0769,1.91525,1.24718,4.56368,2.80157,5.6387,3.30943,14.49677,8.36665,14.49677,8.36665l22.00207-9.14508,7.21125-2.99732S123.58624,247.61913,123.34557,247.69935Z"/><path class="cls-5" d="M158.92446,218.333c-1.85508-1.57684-8.10026-3.78884-12.54733-5.23319a84.78248,84.78248,0,0,1,.00517,10.20543c-.05959.83664-.13615,1.61974-.23263,2.32742-.90728,6.6532-1.96574,15.877-4.08265,16.17939a10.0497,10.0497,0,0,0-1.88826.58763c4.2412-.49276,12.88-4.00034,15.9164-4.11278a5.31928,5.31928,0,0,0,3.581-1.70572c1.82959-1.81217,3.04856-4.71188,4.0134-6.93107C165.17868,226.2252,161.90266,220.86447,158.92446,218.333Z"/><path class="cls-5" d="M164.732,201.05946a125.01379,125.01379,0,0,1-9.16475-14.10029c-1.43338-2.52846-2.30131-4.2156-2.30131-4.2156s-.33923-1.10006-.8736-2.74985c-1.62094-5.00473-5.04215-15.08239-6.27407-14.97042-1.638.14889-4.7651,1.04235-4.914,4.6162s2.38257,4.02055,2.38257,7.29658-1.78691,8.19.74456,9.23241c1.37.56411,2.99786,1.08314,4.20672,1.442l-.33507.34491.1489,3.87165s-2.53147,9.08352-2.82926,9.828c-.05033.12583-.15041.43166-.28138.84026a95.91623,95.91623,0,0,1,1.1359,10.60447c4.44707,1.44435,10.69225,3.65635,12.54733,5.23319,2.9782,2.53146,6.25422,7.89219,4.76511,11.31711-.96484,2.21919-2.18381,5.1189-4.0134,6.93107,13.78995-.68148,13.4577-6.43842,14.4371-10.356C175.15562,222.05572,170.83724,208.9517,164.732,201.05946Z"/><path class="cls-5" d="M156.792,181.32513a7.69246,7.69246,0,0,0,1.38792-1.41086c1.78695-2.23364,8.19007-13.10406,8.19007-15.03987s-.89346-4.76514-6.55205-4.46731-4.61621,5.50966-5.65856,7.5944-2.87665,8.23436-1.34018,9.828c.59871.621-.66395,1.28684-.42688,2.16419l4.44742,1.11184Z"/><path class="cls-5" d="M154.11313,180.42392l-1.72083-.4302c.53437,1.64979.8736,2.74985.8736,2.74985s.86793,1.68714,2.30131,4.2156l1.22477-5.634.04774-.21957Z"/><path class="cls-5" d="M131.773,180.99521c2.30239,2.30238.29238,8.39087-1.005,10.38133a18.66344,18.66344,0,0,1,3.88972.08273c2.308.54954,5.49367.46291,7.75917,3.10187.01939-2.60022-.50454-5.83955-3.59525-7.797-4.46731-2.82926-5.36077-12.21061-10.87043-16.23115s-8.93458-11.615-18.31589-6.55205c-.78975.42622-1.50314.86352-2.15778,1.306C124.387,161.9757,129.32668,178.54894,131.773,180.99521Z"/><path class="cls-5" d="M100.84965,175.59589c-.004-.06245-.004-.12232-.007-.18416C100.84409,175.53062,100.84965,175.59589,100.84965,175.59589Z"/><path class="cls-5" d="M146.37713,213.09982a95.91623,95.91623,0,0,0-1.1359-10.60447c-.2256-1.317-.4777-2.54131-.75487-3.62681a10.41491,10.41491,0,0,0-2.06945-4.3074c-2.2655-2.639-5.45118-2.55233-7.75917-3.10187a18.66344,18.66344,0,0,0-3.88972-.08273,3.25721,3.25721,0,0,1-.33476.44792,1.53263,1.53263,0,0,1-1.7248.22788,10.8118,10.8118,0,0,1-.62336,1.87463,17.34364,17.34364,0,0,1-3.95959,5.4333c-8.09405,7.87076-9.53652,6.06072-9.53652,6.06072l-1.78625-4.24237s-3.20313,1.3406-4.43118-.11078c-.95746-1.13153-3.36657-5.19893-4.79832-7.556a21.997,21.997,0,0,0-4.14735,1.42528c-4.78674,2.16542-7.42512,15.409-8.49949,22.77362l.42966.01495a2.13078,2.13078,0,0,1,1.83167,1.17657l7.01724,14.03456,2.39633-4.8848c-.12229,3.91286,4.20377,5.84743,5.86427,6.44479.39288.14133.63776.20842.63776.20842l1.5121,7.25806s5.59475-.4536,17.23789.75607c8.00687.83188,10.722.23356,12.32544-.31966a10.0497,10.0497,0,0,1,1.88826-.58763c2.11691-.30238,3.17537-9.52619,4.08265-16.17939.09648-.70768.173-1.49078.23263-2.32742A84.78248,84.78248,0,0,0,146.37713,213.09982Z"/><path class="cls-5" d="M126.22083,191.671q-.26274-.31035-.54-.63135c-.927.09162-2.32845-.18358-3.50908-2.17373a3.60732,3.60732,0,0,1-.48894-1.88439,6.99913,6.99913,0,0,0-.73035-.51529c-2.53146-1.48908-1.48911-5.21183-3.425-7.59436-1.9358-2.38257-8.19-3.276-10.87039-3.87169s-4.69252,10.79558-4.69252,10.79558-.05458,5.09232.55819,6.02865c.28207.431.64576,1.02122,1.05043,1.68737,1.43175,2.35708,3.84086,6.42448,4.79832,7.556,1.228,1.45138,4.43118.11078,4.43118.11078L114.589,205.421s1.44247,1.81,9.53652-6.06072a17.34364,17.34364,0,0,0,3.95959-5.4333C127.63262,193.372,126.97736,192.56473,126.22083,191.671Z"/><path class="cls-5" d="M123.12074,172.78954c-4.46569-5.917-10.94092-5.47046-15.85314-5.41465s-6.418,8.221-6.418,8.221l-.28056,4.17126a8.38242,8.38242,0,0,0,.07415,4.35669l1.00825,1.27576.31313.39621s2.01216-11.3912,4.69252-10.79558,8.93459,1.48912,10.87039,3.87169c1.93585,2.38253.8935,6.10528,3.425,7.59436a6.99913,6.99913,0,0,1,.73035.51529,9.93944,9.93944,0,0,1,2.11413-5.16931c.64387-.91261,1.22593-1.58606,1.38916-1.82182.50238-.72567,2.62354.22328,2.62354.22328S127.58639,178.70653,123.12074,172.78954Z"/><path class="cls-5" d="M127.73482,191.55606a8.13957,8.13957,0,0,1-1.04154-.79218,2.97119,2.97119,0,0,1-1.01242.27581q.2763.3201.54.63135c.75653.89369,1.41179,1.70094,1.86427,2.25593a10.8118,10.8118,0,0,0,.62336-1.87463A5.03883,5.03883,0,0,1,127.73482,191.55606Z"/><path class="cls-5" d="M131.773,180.99521c-2.4463-2.44627-7.38595-19.01951-24.29542-15.70826-.45376.08883-.911.18354-1.3822.30169a11.00864,11.00864,0,0,0-5.25274,9.82309c.00305.06184.003.12171.007.18416,0,0,1.50573-8.16515,6.418-8.221s11.38745-.50238,15.85314,5.41465,4.68893,7.42418,4.68893,7.42418-2.12116-.94895-2.62354-.22328c-.16323.23576-.74529.90921-1.38916,1.82182a9.93944,9.93944,0,0,0-2.11413,5.16931,3.60732,3.60732,0,0,0,.48894,1.88439c1.18063,1.99015,2.5821,2.26535,3.50908,2.17373a2.97119,2.97119,0,0,0,1.01242-.27581,8.13957,8.13957,0,0,0,1.04154.79218,5.03883,5.03883,0,0,0,.97364.49628,1.53263,1.53263,0,0,0,1.7248-.22788,3.25721,3.25721,0,0,0,.33476-.44792C132.06536,189.38608,134.07537,183.29759,131.773,180.99521Z"/><path class="cls-5" d="M145.86332,209.56373s2.35123-3.3589,9.237,1.5115c0,0,5.20629-3.191,16.62654,9.65684"/><line class="cls-5" x1="155.10029" y1="211.07523" x2="148.38249" y2="191.08979"/><path class="cls-5" d="M148.538,187.61049s4.237-2.80056,4.72786-4.86692"/><path class="cls-5" d="M146.955,166.066a57.02057,57.02057,0,0,1,.67178,8.31328c-.16794,2.68711-.084,10.58052-3.44287,10.83244"/><path class="cls-5" d="M165.84876,165.64614s-4.95437,5.96205-5.7941,7.64149-2.77109,6.63383-5.62615,5.71013"/><path class="cls-5" d="M109.10333,234.70522s11.82.8344,17.75232-1.67541c4.20265-1.77805,3.53656-1.93941,3.19431-6.38862s-1.59715-15.85747-1.48307-17.11238"/><path class="cls-5" d="M102.6013,228.052s2.00826-10.19518,1.89418-10.99376"/><path class="cls-5" d="M110.78433,201.59313a16.39031,16.39031,0,0,0,8.08555-3.9289"/><path class="cls-5" d="M113.34141,195.70947s-2.11519,2.77867-4.85317,2.09418"/><path class="cls-5" d="M107.39517,189.63677s-2.64786,1.37625-1.71733,3.10439c.46236.85866,2.37783.19815,2.37783.19815"/><path class="cls-5" d="M127.80967,180.21372s-2.15793,9.758-1.11639,10.55016"/><path class="cls-5" d="M106.018,244.49054s3.624,4.56334-.09011,5.33565"/><ellipse class="cls-5" cx="129.8218" cy="186.65526" rx="3.13727" ry="1.76828" transform="translate(-80.10648 273.9708) rotate(-77.76466)"/><path class="cls-5" d="M127.63551,180.372c-1.50328-.326-3.22709,1.73924-3.85024,4.61282s.09035,5.46735,1.59363,5.79334"/><circle class="cls-1" cx="104.42181" cy="186.62179" r="0.42782"/><circle class="cls-1" cx="113.07554" cy="187.09231" r="0.42782"/><path class="cls-5" d="M106.65714,175.00023s3.47145-7.65918,5.2672-7.54694"/><path class="cls-5" d="M125.18613,179.99044s-2.48728-6.13979-7.65007-5.91532-6.39736-2.02022-6.39736-2.02022"/><path class="cls-5" d="M99.82314,188.20957c0,1.09917,1.41519,1.99021,3.16092,1.99021s3.16093-.891,3.16093-1.99021-1.53227-1.17071-3.278-1.17071S99.82314,187.11041,99.82314,188.20957Z"/><path class="cls-5" d="M109.66533,188.66336c0,1.09916,1.41519,1.99021,3.16092,1.99021s3.16093-.89105,3.16093-1.99021-1.53227-1.17072-3.278-1.17072S109.66533,187.56419,109.66533,188.66336Z"/><path class="cls-5" d="M106.145,188.20957s2.28981-.58568,3.52034.45379"/><path class="cls-5" d="M115.91572,187.91945c.33026-.06605,5.87852-2.77413,5.87852-2.77413"/></svg>