<?xml version="1.0" encoding="UTF-8"?>
<svg width="431px" height="236px" viewBox="0 0 431 176" version="1.1" xmlns="http://www.w3.org/2000/svg" xmlns:xlink="http://www.w3.org/1999/xlink">
    <!-- Generator: Sketch 59.1 (86144) - https://sketch.com -->
    <title>Group</title>
    <desc>Created with Sketch.</desc>
    <g id="Page-1" stroke="none" stroke-width="1" fill="none" fill-rule="evenodd">
        <g id="hero-mobile" transform="translate(-83.000000, -356.000000)">
            <g id="Group" transform="translate(53.000000, 29.000000)">
                <g transform="translate(30.000000, 328.000000)">
                    <path d="M136.67,133.83 L136.67,5.25 C136.67,2.42 134.37,0.12 131.54,0.12 L65.17,0.12 C62.34,0.12 60.04,2.42 60.04,5.25 L60.04,133.83 C60.04,136.66 62.34,138.96 65.17,138.96 L131.54,138.96 C134.37,138.95 136.67,136.66 136.67,133.83" id="Path" stroke="#3280AC" stroke-width="0.4384"></path>
                    <g transform="translate(0.000000, 126.000000)">
                        <path d="M39.28,13.57 C39.28,13.57 39.14,12.25 38.7,11.98 C38.63,11.94 38.55,11.92 38.46,11.94 C38.46,11.94 35.61,12.95 35.29,12.83 C34.92,12.69 34.57,12.58 34.24,12.49 C34.39,14.58 33.82,17.35 30.67,19.51 C30.72,19.57 30.78,19.63 30.84,19.69 C30.84,19.69 30.42,20.86 31.18,21.28 C31.19,21.28 31.2,21.29 31.21,21.3 C31.24,21.32 31.28,21.33 31.33,21.35 C31.36,21.36 31.38,21.37 31.41,21.38 C31.48,21.4 31.55,21.41 31.63,21.42 C31.96,21.46 32.38,21.41 32.93,21.22 C32.93,21.22 32.31,22.12 33.23,22.85 L33.21,22.91 L33.07,23.25 L32.48,24.64 C32.48,24.64 32.67,24.72 33.02,24.83 C33.91,25.08 37.15,25.17 39.77,24.37 L40.14,21.51 C40.53,20.97 41.98,18.4 42.04,16.48 C42.06,15.03 39.94,14.36 39.28,13.57 Z" id="Path" fill="#78AAC1" fill-rule="nonzero"></path>
                        <path d="M43.92,5.15 L39.5,11.66 C39.95,11.93 40.08,13.25 40.08,13.25 C40.74,14.04 42.86,14.72 42.81,16.15 C42.75,18.07 41.3,20.63 40.91,21.18 L40.54,24.04 C37.92,24.83 34.68,24.75 33.79,24.5 L33.77,24.56 C36.47,25.41 40.54,24.05 40.54,24.05 L42.25,21.94 C42.89,20.01 45.14,5.5 45.14,5.5 L43.92,5.15 Z" id="Path" fill="#43789C" fill-rule="nonzero"></path>
                        <path d="M52.65,4.9 C52.65,4.9 52.92,4.33 55,3.83 C57.08,3.33 56.41,4.38 56.41,4.38 L55.8,4.82 C55.8,4.82 62.74,2.07 66.1,3.41 L55.34,7.11 L52.65,4.9 Z" id="Path" fill="#78AAC1" fill-rule="nonzero"></path>
                        <path d="M39.8,4.34 L45.18,5.52 L46.46,4.17 C46.46,4.17 49.02,2.19 46.88,2.22 C46.27,2.23 45.57,3.18 45.57,3.18 L44.46,3.3 C44.46,3.3 43.97,3.33 41.61,3.26 C40.25,3.22 38.99,2.51 38.25,1.37 L37.94,0.89 C37.8,0.67 37.46,0.81 37.52,1.07 L37.8,2.34 C38.01,3.34 38.79,4.12 39.8,4.34 Z" id="Path" fill="#78AAC1" fill-rule="nonzero"></path>
                        <path d="M55.34,7.11 L52.65,4.91 L46.77,16.38 L39.64,24.04 C39.64,24.04 35.57,25.4 32.87,24.55 C32.44,24.41 32.04,24.23 31.7,23.96 C31.7,23.96 21.49,24.35 18.66,45.32 C18.32,47.84 17.64,49.7 16.97,52.72 C16.97,52.72 47.51,65.54 47.87,58.77 C47.92,57.84 44.45,48.3 48.21,39.05 C51.21,31.64 55.34,7.11 55.34,7.11 Z" id="Path" fill="#43789C" fill-rule="nonzero"></path>
                        <path d="M35.89,7.49 C34.64,4.37 29.84,7.18 29.84,7.18 L29.66,8.1 C29.66,8.1 24.42,9.17 24.81,11.75 C24.81,11.75 20.35,12.14 19.6099779,16.8 C19.6099779,16.8 19.56,24.13 24.22,24.51 C27.24,24.76 28.11,22.15 28.11,22.15 C28.11,22.15 31.64,24.29 32.93,22.91 L33.07,22.57 L33.09,22.51 C32.17,21.78 32.79,20.88 32.79,20.88 C32.24,21.07 31.82,21.12 31.49,21.08 C31.41,21.07 31.34,21.06 31.27,21.04 C31.24,21.03 31.22,21.02 31.19,21.01 C31.15,20.99 31.11,20.98 31.07,20.96 C31.06,20.96 31.05,20.95 31.04,20.94 C30.99,20.91 30.94,20.87 30.89,20.84 C30.33,20.36 30.7,19.35 30.7,19.35 C30.64,19.29 30.59,19.23 30.53,19.17 C33.67,17.01 34.24,14.24 34.1,12.15 C34.1,12.08 34.09,12.01 34.08,11.95 C35.3,11.56 36.89,9.98 35.89,7.49 Z" id="Path" fill="#43789C" fill-rule="nonzero"></path>
                        <path d="M47.56,82.08 L44.8,60.9 C41.07,60.99 28.58,58.51 22.99,55.94 C22.32,55.63 21.7,55.34 21.14,55.07 C20.85,54.93 19.32,54.02 19.06,53.9 C19.06,53.9 14.97,59.96 14.45,63.28 C13.89,66.79 17.85,82.17 17.85,82.17 L0.62,103.05 L5.26,104.32 C5.26,104.32 23.57,95.37 26.32,87.83 C29.13,80.1 26.98,79.71 29.25,73.76 C30.65,77.05 39.79,86.21 36.19,90.44 C29.52,98.26 28.44,107.62 28.44,107.62 L33.13,106.95 L46.25,89.16 C47.73,87.11 48.22,84.51 47.56,82.08 Z" id="Path" fill="#488FBA" fill-rule="nonzero"></path>
                        <path d="M39.36,17.39 C39.36,17.39 40.2,17 40.14,16.02" id="Path" stroke="#1F3B65" stroke-width="0.4515"></path>
                        <ellipse id="Oval" fill="#1F3B65" fill-rule="nonzero" transform="translate(36.068675, 13.441105) rotate(-73.518630) translate(-36.068675, -13.441105) " cx="36.068675" cy="13.441105" rx="1" ry="1"></ellipse>
                        <path d="M32.08,19.65 C32.08,19.65 32.9,20.78 33.77,19.8" id="Path" stroke="#1F3B65" stroke-width="0.4515"></path>
                        <path d="M35.9,9.59 C35.9,9.59 35.97,11.34 35.04,11.69 C35.04,11.69 34.9,10.73 34.43,8.83" id="Path" stroke="#1F3B65" stroke-width="0.4515"></path>
                        <path d="M34.32,12.2 C34.19,12.43 34.71,19.88 27.08,19.1" id="Path" stroke="#1F3B65" stroke-width="0.4515"></path>
                        <path d="M56.24,7.11 L53.55,4.91 L47.67,16.38 L40.54,24.04 C40.54,24.04 36.47,25.4 33.77,24.55 C33.34,24.41 32.94,24.23 32.6,23.96 C32.6,23.96 22.39,24.35 19.56,45.32 C19.22,47.84 18.54,49.7 17.87,52.72 C17.87,52.72 48.41,65.54 48.77,58.77 C48.82,57.84 45.35,48.3 49.11,39.05 C52.11,31.64 56.24,7.11 56.24,7.11 Z" id="Path" stroke="#1F3B65" stroke-width="0.4515"></path>
                        <path d="M53.55,4.9 C53.55,4.9 53.82,4.33 55.9,3.83 C57.98,3.33 57.31,4.38 57.31,4.38 L56.7,4.82 C56.7,4.82 63.64,2.07 67,3.41 L56.24,7.11 L53.55,4.9 Z" id="Path" stroke="#1F3B65" stroke-width="0.4515"></path>
                        <path d="M40.7,4.34 L46.08,5.52 L47.36,4.17 C47.36,4.17 49.92,2.19 47.78,2.22 C47.17,2.23 46.47,3.18 46.47,3.18 L45.36,3.3 C45.36,3.3 44.87,3.33 42.51,3.26 C41.15,3.22 39.89,2.51 39.15,1.37 L38.84,0.89 C38.7,0.67 38.36,0.81 38.42,1.07 L38.7,2.34 C38.91,3.34 39.7,4.12 40.7,4.34 Z" id="Path" stroke="#1F3B65" stroke-width="0.4515"></path>
                        <path d="M48.47,82.08 L45.7,60.9 C41.97,60.99 29.48,58.51 23.89,55.94 C23.22,55.63 22.6,55.34 22.04,55.07 C21.75,54.93 19.28,53.69 19.03,53.56 C19.03,53.56 15.87,59.96 15.35,63.27 C14.79,66.78 18.75,82.16 18.75,82.16 L1.52,103.04 L6.16,104.31 C6.16,104.31 24.47,95.36 27.22,87.82 C30.03,80.09 27.88,79.7 30.15,73.75 C31.55,77.04 40.69,86.2 37.09,90.43 C30.42,98.25 29.34,107.61 29.34,107.61 L34.03,106.94 L47.15,89.15 C48.64,87.11 49.12,84.51 48.47,82.08 Z" id="Path" stroke="#1F3B65" stroke-width="0.4515"></path>
                        <path d="M45.99,60.68 L46.1,62.33 C46.1,62.33 45.21,62.32 44.85,62.63 C43.16,64.04 32.26,63.23 21.7,57.03 L18.22,55.06 L19.03,53.56 C19.02,53.56 39.38,60.54 45.99,60.68 Z" id="Path" stroke="#1F3B65" stroke-width="0.4515" fill="#1F3B65" fill-rule="nonzero"></path>
                        <path d="M43.92,5.15 L39.5,11.66 C39.95,11.93 40.08,13.25 40.08,13.25 C40.74,14.04 42.86,14.72 42.81,16.15 C42.75,18.07 41.3,20.63 40.91,21.18 L40.54,24.04 C37.92,24.83 34.68,24.75 33.79,24.5 L33.77,24.56 C36.47,25.41 40.54,24.05 40.54,24.05 L43.34,20.95 C43.98,19.02 46.07,5.53 46.07,5.53 L43.92,5.15 Z" id="Path" stroke="#1F3B65" stroke-width="0.4515"></path>
                        <path d="M32.2,21.05 C32.27,21.07 32.34,21.08 32.42,21.09 C32.33,21.08 32.26,21.07 32.2,21.05 Z" id="Path" stroke="#1F3B65" stroke-width="0.4515"></path>
                        <path d="M32,20.98 C32.03,21 32.07,21.01 32.12,21.03 C32.08,21.01 32.04,21 32,20.98 Z" id="Path" stroke="#1F3B65" stroke-width="0.4515"></path>
                        <path d="M40.08,13.24 C40.08,13.24 39.94,11.92 39.5,11.65 C39.43,11.61 39.35,11.59 39.26,11.61 C39.26,11.61 36.41,12.62 36.09,12.5 C35.72,12.36 35.37,12.25 35.04,12.16 C35.19,14.25 34.62,17.02 31.47,19.18 C31.52,19.24 31.58,19.3 31.64,19.36 C31.64,19.36 31.22,20.53 31.98,20.95 C31.99,20.95 32,20.96 32.01,20.97 C32.04,20.99 32.08,21 32.13,21.02 C32.16,21.03 32.18,21.04 32.21,21.05 C32.28,21.07 32.35,21.08 32.43,21.09 C32.76,21.13 33.18,21.08 33.73,20.89 C33.73,20.89 33.11,21.79 34.03,22.52 L34.01,22.58 L33.87,22.92 L33.28,24.31 C33.28,24.31 33.47,24.39 33.82,24.5 C34.71,24.75 37.95,24.84 40.57,24.04 L40.94,21.18 C41.33,20.64 42.78,18.07 42.84,16.15 C42.86,14.71 40.75,14.04 40.08,13.24 Z" id="Path" stroke="#1F3B65" stroke-width="0.4515"></path>
                        <path d="M31.97,20.96 C31.98,20.96 31.99,20.97 32,20.98 C31.99,20.97 31.98,20.96 31.97,20.96 Z" id="Path" stroke="#1F3B65" stroke-width="0.4515"></path>
                        <path d="M32.12,21.02 C32.15,21.03 32.17,21.04 32.2,21.05 C32.17,21.04 32.14,21.03 32.12,21.02 Z" id="Path" stroke="#1F3B65" stroke-width="0.4515"></path>
                        <path d="M36.79,7.49 C35.54,4.37 30.74,7.18 30.74,7.18 L30.56,8.1 C30.56,8.1 25.1,9.94 25.48,12.52 C25.48,12.52 21.24,12.15 20.4999779,16.81 C20.4999779,16.81 20.45,24.14 25.11,24.52 C28.13,24.77 29,22.16 29,22.16 C29,22.16 32.53,24.3 33.82,22.92 L33.96,22.58 L33.98,22.52 C33.06,21.79 33.68,20.89 33.68,20.89 C33.13,21.08 32.71,21.13 32.38,21.09 C32.3,21.08 32.23,21.07 32.16,21.05 C32.13,21.04 32.11,21.03 32.08,21.02 C32.04,21 32,20.99 31.96,20.97 C31.95,20.97 31.94,20.96 31.93,20.95 C31.88,20.92 31.83,20.88 31.78,20.85 C31.22,20.37 31.59,19.36 31.59,19.36 C31.53,19.3 31.48,19.24 31.42,19.18 C34.56,17.02 35.13,14.25 34.99,12.16 C34.99,12.09 34.98,12.02 34.97,11.96 C36.2,11.56 37.79,9.98 36.79,7.49 Z" id="Path" stroke="#1F3B65" stroke-width="0.4515"></path>
                        <path d="M30.02,73.36 L28.62,81.64 C28.62,81.64 26.59,75.36 24.8,72.82 C23.19,70.53 23.35,68.48 23.31,68.3 C23.22,67.92 25.96,72.17 30.02,73.36 Z" id="Path" stroke="#1F3B65" stroke-width="0.4515" fill="#1F3B65" fill-rule="nonzero"></path>
                    </g>
                    <path d="M92.59,89.87 C92.72,89.87 92.84,89.9 92.86,90.05 C92.87,90.15 92.77,90.21 92.69,90.18 C92.59,90.14 92.46,90.07 92.42,89.98 C92.38,89.88 92.52,89.89 92.59,89.87 Z" id="Path" fill="#3280AC" fill-rule="nonzero"></path>
                    <line x1="221.65" y1="125.21" x2="140.25" y2="125.21" id="Path" stroke="#3280AC" stroke-width="0.4515"></line>
                    <line x1="221.65" y1="145.92" x2="139.52" y2="145.92" id="Path" stroke="#3280AC" stroke-width="0.4515"></line>
                    <path d="M210.72,138.04 C208.71,141.52 203.69,141.52 201.69,138.04 L197.91,131.49 C195.9,128.01 190.88,128.01 188.88,131.49 L185.1,138.04 C183.09,141.52 178.07,141.52 176.07,138.04 L172.29,131.49 C170.28,128.01 165.26,128.01 163.26,131.49 L159.48,138.04 C157.47,141.52 152.45,141.52 150.45,138.04 L146.67,131.49 C144.66,128.01 139.64,128.01 137.64,131.49 L133.86,138.04" id="Path" stroke="#3280AC" stroke-width="0.4515"></path>
                    <circle id="Oval" fill="#3280AC" fill-rule="nonzero" cx="345.54" cy="177.56" r="6.49"></circle>
                    <circle id="Oval" fill="#3280AC" fill-rule="nonzero" cx="273.64" cy="181.18" r="6.49"></circle>
                    <circle id="Oval" fill="#3280AC" fill-rule="nonzero" cx="255.46" cy="181.56" r="6.49"></circle>
                    <circle id="Oval" fill="#3280AC" fill-rule="nonzero" cx="172.44" cy="183.41" r="6.49"></circle>
                    <path d="M343.01,169.68 L159.3,169.68 C156.3,169.68 153.56,168.51 151.54,166.61 C149.77,164.94 148.8,162.58 148.8,160.15 L148.8,146.2" id="Path" stroke="#3280AC" stroke-width="0.4515"></path>
                    <line x1="272.76" y1="177.96" x2="265.81" y2="169.63" id="Path" stroke="#3280AC" stroke-width="0.4515"></line>
                    <line x1="255.76" y1="178.69" x2="248.21" y2="169.72" id="Path" stroke="#3280AC" stroke-width="0.4515"></line>
                    <circle id="Oval" fill="#3280AC" fill-rule="nonzero" cx="224.47" cy="181.56" r="6.49"></circle>
                    <polyline id="Path" stroke="#3280AC" stroke-width="0.4515" points="221.94 181.2 203.85 181.2 203.85 169.9"></polyline>
                    <path d="M418.94,132.96 L352.73,132.96 C350.98,132.96 349.56,131.54 349.56,129.79 L349.56,87.51 C349.56,85.76 350.98,84.34 352.73,84.34 L418.94,84.34 C420.69,84.34 422.11,85.76 422.11,87.51 L422.11,129.79 C422.11,131.55 420.69,132.96 418.94,132.96 Z" id="Path" stroke="#3280AC" stroke-width="0.4515"></path>
                    <g transform="translate(91.000000, 7.000000)" fill="#3280AC" fill-rule="nonzero">
                        <circle id="Oval" cx="2.64" cy="2.56" r="1.65"></circle>
                        <path d="M21.54,3.59 L7.95,3.59 C7.18,3.59 6.56,2.97 6.56,2.2 L6.56,2.2 C6.56,1.43 7.18,0.81 7.95,0.81 L21.54,0.81 C22.31,0.81 22.93,1.43 22.93,2.2 L22.93,2.2 C22.92,2.97 22.3,3.59 21.54,3.59 Z" id="Path"></path>
                    </g>
                    <path d="M100.39,59.12 C109.673907,59.12 117.2,51.5939066 117.2,42.31 C117.2,33.0260934 109.673907,25.5 100.39,25.5 C91.1060934,25.5 83.58,33.0260934 83.58,42.31 C83.58,51.5939066 91.1060934,59.12 100.39,59.12 Z" id="Oval" stroke="#43789C" stroke-width="0.4374" stroke-dasharray="5.7833"></path>
                    <rect id="Rectangle" fill="#43789C" fill-rule="nonzero" x="82.28" y="88.3" width="37.17" height="1.39"></rect>
                    <rect id="Rectangle" fill="#43789C" fill-rule="nonzero" x="82.28" y="93.47" width="39.72" height="1.51"></rect>
                    <rect id="Rectangle" fill="#43789C" fill-rule="nonzero" x="82.28" y="98.7" width="39.72" height="1.51"></rect>
                    <rect id="Rectangle" fill="#43789C" fill-rule="nonzero" x="82.28" y="80.79" width="16.53" height="3.6"></rect>
                    <path d="M67.17,121.16 C67.52,121.3 68.05,121.07 68.09,121.67 C68.12,122.05 67.74,122.32 67.26,122.28 C66.84,122.24 66.54,121.96 66.58,121.61 C66.62,121.26 66.84,121.11 67.17,121.16 Z" id="Path" fill="#3280AC" fill-rule="nonzero"></path>
                    <path d="M65.3,118.92 C65.3,119.28 64.97,119.65 64.62,119.63 C64.2,119.61 64.09,119.3 64.07,118.96 C64.05,118.57 64.36,118.24 64.72,118.27 C65.13,118.3 65.25,118.59 65.3,118.92 Z" id="Path" fill="#3280AC" fill-rule="nonzero"></path>
                    <circle id="Oval" stroke="#3280AC" stroke-width="0.4374" cx="96.44" cy="43.81" r="16.81"></circle>
                    <g transform="translate(85.000000, 32.000000)" id="Path" stroke="#3280AC" stroke-width="0.4374">
                        <path d="M11.87,10.94 C13.82,10.12 15.21,8.11 15.22,5.74 C15.23,2.64 12.89,0.11 9.97,0.0999701044 C7.06,0.09 4.69,2.59 4.68,5.69 C4.67,8.08 6.06,10.11 8.04,10.94 C-0.06,12.16 0.3,20.97 0.3,20.97 L19.47,21.06 C19.47,21.06 19.91,12.15 11.87,10.94 Z"></path>
                        <path d="M11.87,10.94 C13.82,10.12 15.21,8.11 15.22,5.74 C15.23,2.64 12.89,0.11 9.97,0.0999701044 C7.06,0.09 4.69,2.59 4.68,5.69 C4.67,8.08 6.06,10.11 8.04,10.94 C-0.06,12.16 0.3,20.97 0.3,20.97 L19.47,21.06 C19.47,21.06 19.91,12.15 11.87,10.94 Z" opacity="0.1"></path>
                    </g>
                    <g transform="translate(350.000000, 77.000000)">
                        <g>
                            <path d="M17.89,1.94 C17.89,1.94 17.54,1.3 15.12,0.86 C12.7,0.42 13.53,1.59 13.53,1.59 L14.26,2.05 C14.26,2.05 6.11,-0.65 2.33,1.11 L14.94,4.64 L17.89,1.94 Z" id="Path" fill="#376E9F" fill-rule="nonzero"></path>
                            <path d="M27.91,1.59 C27.91,1.59 24.73,0.76 22.61,0.88 C20.49,1 17.55,0.93 17.55,0.93 L19.44,2.76 L20.98,2.82 L27.91,1.59 Z" id="Path" fill="#43789C" fill-rule="nonzero"></path>
                            <path d="M34.1,68.88 C37.08,71.12 46.88,66.55 53.13,63.22 C53.87,62.82 54.57,62.44 55.2,62.09 C55.52,61.91 55.82,61.74 56.11,61.58 L81.02,136.52 L77.96,140.87 C77.96,140.87 65.59,127.33 61.93,118.85 C59.75,113.79 52.43,90.9 49.23,83.77 C44.45,97.1 39.29,141.92 39.29,141.92 L33.87,142.92 L34.1,68.88 Z" id="Path" fill="#488FBA" fill-rule="nonzero"></path>
                            <g transform="translate(13.000000, 1.000000)">
                                <path d="M20.65,22.06 L13.22,12.38 C12.35,10.2 8.56,1.3 8.56,1.3 L15.51,0.59 L24.46,12.25 L28.46,22.19 C25.41,23.35 20.65,22.06 20.65,22.06 Z" id="Path" fill="#43789C" fill-rule="nonzero"></path>
                                <path d="M0.59,3.2 L3.54,0.49 L12.32,11.92 L19.75,21.6 C19.75,21.6 24.51,22.89 27.56,21.74 C28.05,21.55 28.49,21.31 28.87,20.99 C28.87,20.99 43.06,35.12 44.66,59.16 C44.66,59.16 20.19,73.98 19.33,66.23 C19.21,65.17 16.13,50 15.56,39.37 C15.06,30.19 0.59,3.2 0.59,3.2 Z" id="Path" fill="#43789C" fill-rule="nonzero"></path>
                                <path d="M19.3,21.61 L11.87,11.93 C11,9.75 7.21,0.85 7.21,0.85 L14.16,0.14 L23.11,11.8 L27.11,21.74 C24.06,22.9 19.3,21.61 19.3,21.61 Z" id="Path" stroke="#1F3B65" stroke-width="0.4515"></path>
                                <path d="M27.3,6.78 L20.85,6.85 C20.85,6.85 19.34,6 19.45,9.19 C19.45,9.19 14.89,13.97 17.18,17.14 C17.71,17.87 18.42,17.88 19.8,18.45 L19.3,21.62 L27.72,21.42 L30.11,18.41 C30.11,18.41 32.11,12.4 32.06,12.1 C32,11.79 27.3,6.78 27.3,6.78 Z" id="Path" fill="#488FBA" fill-rule="nonzero"></path>
                                <path d="M27.84,7.07 L21.39,7.14 C21.39,7.14 19.88,6.29 19.99,9.48 C19.99,9.48 13.35,15.73 20.68,18.74 L19.58,21.85 C19.58,21.85 23.78,22.29 25.08,22.22 C25.82,22.18 27.72,21.4 27.72,21.4 L29.48,18.39 C29.48,18.39 32.65,12.67 32.59,12.37 C32.53,12.07 27.84,7.07 27.84,7.07 Z" id="Path" fill="#376E9F" fill-rule="nonzero"></path>
                                <path d="M20.21,13.89 C20.21,13.89 19.21,13.5 19.22,12.37" id="Path" stroke="#1F3B65" stroke-width="0.4489"></path>
                                <ellipse id="Oval" fill="#1F3B65" fill-rule="nonzero" transform="translate(23.793229, 9.142153) rotate(-19.797583) translate(-23.793229, -9.142153) " cx="23.793229" cy="9.142153" rx="1" ry="1"></ellipse>
                                <path d="M28.13,18.89 L27.71,21.41 C27.71,21.41 24.67,23.2 19.29,21.61 L19.79,18.44 C18.59,17.89 17.29,17.73 16.87,16.56 C16.1,14.43 17.45,11.41 19.11,9.18 C19.11,9.18 19.2,7.13 19.95,7.26 C19.95,7.26 23.5,7.24 23.85,7.08 C27.66,5.35 29.83,7.46 30.86,10.35 C31.47,12.03 30.92,13.91 29.58,15.48" id="Path" stroke="#1F3B65" stroke-width="0.4489"></path>
                                <path d="M28.76,16.42 C28.76,16.42 28.1,17.92 27.03,16.86" id="Path" stroke="#1F3B65" stroke-width="0.584"></path>
                                <path d="M24.8,7.05 C24.8,7.05 24.43,15.57 29.81,15.66 C29.81,15.66 30.5,18.27 27.42,18.29 C24.33,18.32 29.85,22.89 32.49,21.44 L33.59,20.9 C34.16,20.62 34.62,20.17 34.93,19.61 L35.27,18.98 C35.27,18.98 38.28,17.38 38,16.95 C37.73,16.52 38.79,15.86 38.9,14.22 C39.01,12.58 38.03,12.35 38.03,12.35 C38.03,12.35 34.07,9.73 34.11,9.29 C34.15,8.85 32.69,7.47 32.69,7.47 C32.69,7.47 32.8,5.6 32.02,4.53 C30.42,2.31 26.89,0.77 23.84,7.06 L24.8,7.05 Z" id="Path" fill="#1E4873" fill-rule="nonzero"></path>
                                <path d="M22.96,5.2 C22.96,5.2 23.26,7.8 24.8,7.06 C24.8,7.06 23.96,5.64 24.38,3.44" id="Path" stroke="#1F3B65" stroke-width="0.584"></path>
                                <path d="M25.68,5.93 C26,4.66 29.09,1.98 31.55,4.93 C31.96,5.42 31.71,6.38 32.11,7.2" id="Path" stroke="#1F3B65" stroke-width="0.584"></path>
                                <path d="M25.32,7.98 C25.48,8.23 25.38,16.83 34.09,15.42" id="Path" stroke="#1F3B65" stroke-width="0.584"></path>
                                <path d="M27.07,10.5 C27.3,10.6 30.98,14.98 33.71,13.79" id="Path" stroke="#1F3B65" stroke-width="0.584"></path>
                                <path d="M31.42,17.1 C31.22,17.56 29.34,19.95 27.2,19.38" id="Path" stroke="#1F3B65" stroke-width="0.584"></path>
                                <path d="M30.79,9.56 C30.79,9.56 35.21,9.12 37.46,11.94" id="Path" stroke="#1F3B65" stroke-width="0.584"></path>
                                <path d="M32.35,18.15 C32.92,18.31 36.95,19.34 38.01,16.96" id="Path" stroke="#1F3B65" stroke-width="0.584"></path>
                                <path d="M0.14,3.2 L3.09,0.49 L11.87,11.92 L19.3,21.6 C19.3,21.6 24.06,22.89 27.11,21.74 C27.6,21.55 28.04,21.31 28.42,20.99 C28.42,20.99 42.61,35.12 44.21,59.16 C44.21,59.16 19.74,73.98 18.88,66.23 C18.76,65.17 15.68,50 15.11,39.37 C14.61,30.19 0.14,3.2 0.14,3.2 Z" id="Path" stroke="#1F3B65" stroke-width="0.4515"></path>
                            </g>
                            <path d="M16.09,1.49 C16.09,1.49 15.74,0.85 13.32,0.41 C10.9,-0.03 11.73,1.14 11.73,1.14 L12.46,1.6 C12.46,1.6 4.31,-1.1 0.53,0.66 L13.14,4.19 L16.09,1.49 Z" id="Path" stroke="#1F3B65" stroke-width="0.4515"></path>
                            <path d="M26.1,1.14 C26.1,1.14 22.92,0.31 20.8,0.43 C18.68,0.55 15.74,0.48 15.74,0.48 L17.63,2.31 L19.17,2.37 L26.1,1.14 Z" id="Path" stroke="#1F3B65" stroke-width="0.4515"></path>
                            <g transform="translate(32.000000, 61.000000)" id="Path" stroke="#1F3B65" stroke-width="0.4515">
                                <path d="M22.08,1.35 C22,1.41 21.84,1.1 21.84,1.1 C22.16,0.92 22.46,0.75 22.75,0.59 L47.66,75.53 L44.6,79.88 C44.6,79.88 32.23,66.34 28.57,57.86 C26.39,52.8 19.07,29.91 15.87,22.78 C16.41,21.27 16.93,20.05 17.42,19.2 C22.26,10.83 22.08,1.35 22.08,1.35 Z"></path>
                                <path d="M0.74,7.88 C3.72,10.12 13.52,5.55 19.77,2.22 C20.51,1.82 21.21,1.44 21.84,1.09 C21.84,1.09 21.99,1.4 22.08,1.34 C22.08,1.34 22.25,10.82 17.42,19.18 C16.93,20.03 16.41,21.26 15.87,22.76 C11.09,36.09 5.93,80.91 5.93,80.91 L0.51,81.91 L0.74,7.88 Z"></path>
                            </g>
                        </g>
                        <path d="M25.34,29.77 L34.88,46.33 C34.88,46.33 31.75,42.35 29.05,38.88 C28.18,37.77 25.34,29.77 25.34,29.77 Z" id="Path" fill="#1F3B65" fill-rule="nonzero"></path>
                        <path d="M20.01,1.55 L24.67,12.63 L32.1,22.31 L32.6,19.14 C32.6,19.14 30.02,18.67 29.68,17.26 C29.34,15.85 30.03,13.23 30.03,13.23 L20.97,1.56 L20.01,1.55 Z" id="Path" fill="#1F3B65" fill-rule="nonzero"></path>
                        <path d="M47.68,83.48 L52.39,93.78 L53.99,66.11 C53.99,66.11 51.39,74.95 49.23,79.9 C48.51,81.54 48.35,83.38 47.68,83.48 Z" id="Path" fill="#1F3B65" fill-rule="nonzero"></path>
                        <path d="M32.54,68.58 C32.54,68.58 36.95,78.49 53.98,63.34 L55.44,62.61 L54.55,61.29 C54.55,61.29 40.01,70.04 32.54,68.58 Z" id="Path" fill="#1F3B65" fill-rule="nonzero"></path>
                    </g>
                    <g transform="translate(38.000000, 86.000000)" fill-rule="nonzero">
                        <g>
                            <g id="Path">
                                <path d="M5.59,43.16 L67.99,43.16 C71.06,43.16 73.55,40.67 73.55,37.6 L73.55,7.61 L0.03,7.61 L0.03,37.6 C0.03,40.67 2.52,43.16 5.59,43.16 Z" fill="#488FBA"></path>
                                <path d="M0.03,5.21 L0.03,7.61 L73.55,7.61 L73.55,5.21 C73.55,2.77 71.57,0.79 69.13,0.79 L4.45,0.79 C2.01,0.79 0.03,2.77 0.03,5.21 Z" fill="#43789C"></path>
                            </g>
                            <rect id="Rectangle" fill="#43789C" x="9.7" y="23.4" width="48.82" height="1.43"></rect>
                            <rect id="Rectangle" fill="#43789C" x="9.7" y="28.74" width="52.18" height="1.56"></rect>
                            <rect id="Rectangle" fill="#43789C" x="9.7" y="34.13" width="52.18" height="1.56"></rect>
                            <rect id="Rectangle" fill="#43789C" x="9.7" y="15.65" width="17.06" height="3.71"></rect>
                        </g>
                        <g transform="translate(65.000000, 1.000000)" fill="#43789C" id="Path">
                            <path d="M0.93,5.56 C0.84,5.47 1.78,4.33 3.04,3.01 C4.3,1.69 5.4,0.69 5.5,0.78 C5.6,0.87 4.65,2.01 3.38,3.33 C2.12,4.66 1.02,5.65 0.93,5.56 Z"></path>
                            <path d="M5.5,5.56 C5.41,5.65 4.31,4.65 3.04,3.33 C1.78,2.01 0.83,0.87 0.92,0.78 C1.01,0.69 2.11,1.69 3.38,3.01 C4.65,4.33 5.6,5.48 5.5,5.56 Z"></path>
                        </g>
                    </g>
                    <g transform="translate(36.000000, 87.000000)" id="Path" stroke="#3280AC" stroke-width="0.4515">
                        <path d="M5.64,43 L68.04,43 C71.11,43 73.6,40.51 73.6,37.44 L73.6,7.45 L0.07,7.45 L0.07,37.44 C0.07,40.51 2.57,43 5.64,43 Z"></path>
                        <path d="M0.07,5.05 L0.07,7.45 L73.6,7.45 L73.6,5.05 C73.6,2.61 71.62,0.63 69.18,0.63 L4.49,0.63 C2.05,0.63 0.07,2.61 0.07,5.05 Z"></path>
                    </g>
                    <polyline id="Path" stroke="#3280AC" stroke-width="0.4515" points="170.3 183.82 133.46 183.82 133.46 146.19"></polyline>
                    <path d="M419.71,76.57 L353.6,76.57 C351.59,76.57 349.96,74.94 349.96,72.93 L349.96,21.18 C349.96,19.17 351.59,17.54 353.6,17.54 L419.71,17.54 C421.72,17.54 423.35,19.17 423.35,21.18 L423.35,72.93 C423.35,74.94 421.72,76.57 419.71,76.57 Z" id="Path" fill="#3280AC" fill-rule="nonzero"></path>
                    <g transform="translate(73.000000, 111.000000)">
                        <g>
                            <path d="M46.22,21.99 L45.51,27.07 L46.03,28.14 C46.58,28.91 45.76,29.93 44.9,29.53 C44.82,29.5 44.52,29.13 44.44,29.08 C44.44,29.08 43.02,31.96 40.87,32.92 C39.58,33.49 38.07,32.95 36.74,32.48 L41.45,25.27 C41.46,25.26 45.53,24.92 46.22,21.99 Z" id="Path" fill="#187497" fill-rule="nonzero"></path>
                            <path d="M23.71,8.29 C23.95,7.14 23.44,3.45 22.87,2.76 C21.83,1.51 21.73,5.56 21.73,5.56 C21.73,5.56 16.89,0.32 15.82,0.48 C14.74,0.63 20.15,5.99 20.15,5.99 C20.15,5.99 14.72,0.8 13.95,1.72 C13.18,2.64 17.65,6.07 17.65,6.07 C17.65,6.07 13.14,1.79 13.74,3.9 C14.16,5.35 16.32,7.12 16.32,7.12 C16.32,7.12 13.8,6.56 14.57,7.33 C15.34,8.1 19.39,9.98 19.39,9.98 L23.71,8.29 Z" id="Path" fill="#187497" fill-rule="nonzero"></path>
                            <path d="M55.35,29.85 L56.78,25.82 C57.09,24.95 57.94,24.4 58.86,24.48 C60.16,24.6 61.83,24.86 62.08,25.48 C62.5,26.52 59.32,27.72 59.32,27.72 C59.32,27.72 60.96,30.41 60.08,30.64 C59.2,30.87 57.2,32.12 57.2,32.12 L55.35,29.85 Z" id="Path" fill="#187497" fill-rule="nonzero"></path>
                            <path d="M61.26,30.45 C61.26,30.45 63.07,28.48 62.17,28.09 C61.26,27.69 60.46,28.95 60.61,28.79" id="Path" fill="#187497" fill-rule="nonzero"></path>
                            <g transform="translate(0.000000, 8.000000)" id="Path">
                                <path d="M27.11,63.34 C25.71,62.59 16.9,58.25 15.55,56.65 C15.48,56.56 15.4,56.48 15.33,56.39 C11.63,51.92 8.42,45.45 7.19,42.84 C4.01,49.05 -2.66,56.52 2.65,67.13 C4.68,71.19 9.81,85.98 11.61,95.19 C12.16,98.01 12.65,100.78 13.07,103.31 C14.13,109.77 14.72,114.63 14.72,114.63 L14.99,114.74 C14.98,114.56 14.98,114.44 14.98,114.44 L17.91,114.83 C17.91,114.83 18.38,115.2 18.97,115.63 L19.63,97.78 C23.7,94.27 27.25,90.98 28.31,89.35 C30.45,86.08 30.8,71.75 27.11,63.34 Z" fill="#488FBA" fill-rule="nonzero"></path>
                                <path d="M54.93,22.27 C54.93,22.27 43.8,35.02 35.46,26.03 L29.21,19.59 L23.29,0.3 L18.96,1.99 L17.1,27.2 L6.66,41.7 C6.66,41.7 6.85,42.13 7.18,42.85 C8.4,45.45 11.62,51.93 15.32,56.4 C15.39,56.49 15.47,56.58 15.54,56.66 C16.89,58.26 25.7,62.6 27.1,63.35 C27.74,63.7 28.38,63.92 29.02,64 L29.02,64 C31,63.4 30.47,61.37 31.15,59.42 L32.13,38.81 C32.13,38.81 39.63,46.31 42.89,43.57 C50.92,36.82 56.79,24.55 56.79,24.55 L54.93,22.27 Z" fill="#43789C" fill-rule="nonzero"></path>
                                <path d="M28.36,63.34 C26.96,62.59 18.15,58.25 16.8,56.65 C16.73,56.56 16.65,56.48 16.58,56.39 C12.88,51.92 9.67,45.45 8.44,42.84 C5.26,49.05 -1.41,56.52 3.9,67.13 C5.93,71.19 11.06,85.98 12.86,95.19 C13.41,98.01 13.9,100.78 14.32,103.31 C15.38,109.77 15.97,114.63 15.97,114.63 L16.24,114.74 C16.23,114.56 16.23,114.44 16.23,114.44 L19.16,114.83 C19.16,114.83 19.63,115.2 20.22,115.63 L20.88,97.78 C24.95,94.27 28.5,90.98 29.56,89.35 C31.7,86.08 32.05,71.75 28.36,63.34 Z" stroke="#1F3B65" stroke-width="0.5043"></path>
                                <path d="M56.18,22.27 C56.18,22.27 45.05,35.02 36.71,26.03 L30.46,19.59 L24.54,0.3 L20.21,1.99 L18.35,27.2 L7.91,41.7 C7.91,41.7 8.1,42.13 8.43,42.85 C9.65,45.45 12.87,51.93 16.57,56.4 C16.64,56.49 16.72,56.58 16.79,56.66 C18.14,58.26 26.95,62.6 28.35,63.35 C28.99,63.7 29.63,63.92 30.27,64 L30.27,64 C32.25,63.4 32.63,62.02 32.4,59.42 L33.38,38.81 C33.38,38.81 40.88,46.31 44.14,43.57 C52.17,36.82 58.04,24.55 58.04,24.55 L56.18,22.27 Z" stroke="#1F3B65" stroke-width="0.5043"></path>
                            </g>
                            <path d="M24.54,8.29 C24.78,7.14 24.27,3.45 23.7,2.76 C22.66,1.51 22.56,5.56 22.56,5.56 C22.56,5.56 17.72,0.32 16.65,0.48 C15.57,0.63 20.98,5.99 20.98,5.99 C20.98,5.99 15.55,0.8 14.78,1.72 C14.01,2.64 18.48,6.07 18.48,6.07 C18.48,6.07 13.97,1.79 14.57,3.9 C14.99,5.35 17.15,7.12 17.15,7.12 C17.15,7.12 14.63,6.56 15.4,7.33 C16.17,8.1 20.22,9.98 20.22,9.98 L24.54,8.29 Z" id="Path" stroke="#1F3B65" stroke-width="0.5043"></path>
                            <path d="M56.18,30.27 L57.61,26.24 C57.92,25.37 58.77,24.82 59.69,24.9 C60.99,25.02 62.66,25.28 62.91,25.9 C63.33,26.94 60.15,28.14 60.15,28.14 C60.15,28.14 61.79,30.83 60.91,31.06 C60.02,31.3 58.03,32.54 58.03,32.54 L56.18,30.27 Z" id="Path" stroke="#1F3B65" stroke-width="0.5043"></path>
                            <path d="M61.26,30.45 C61.26,30.45 63.07,28.48 62.17,28.09 C61.26,27.69 60.46,28.95 60.61,28.79" id="Path" stroke="#1F3B65" stroke-width="0.5043"></path>
                            <path d="M46.9,22.19 L46.19,27.27 L46.71,28.34 C47.26,29.11 46.44,30.13 45.58,29.73 C45.5,29.7 45.2,29.33 45.12,29.28 C45.12,29.28 43.7,32.16 41.55,33.12 C40.26,33.69 38.75,33.15 37.42,32.68 L42.13,25.47 C42.14,25.46 46.2,25.12 46.9,22.19 Z" id="Path" stroke="#1F3B65" stroke-width="0.5043"></path>
                            <circle id="Oval" fill="#1F3B65" fill-rule="nonzero" cx="44.87" cy="26.66" r="1"></circle>
                            <path d="M33.38,46.8 C33.28,46.17 33.03,44.62 33.03,44.62 L29.94,56.6 L33.38,46.8 Z" id="Path" fill="#1F3B65" fill-rule="nonzero"></path>
                            <path d="M20.66,109.69 L22.15,98.22 L23.51,99.11 C25.04,96 26.18,91.78 24.94,88.56 L21.67,80.64 L20.92,90.24 L20.66,109.69 Z" id="Path" fill="#1F3B65" fill-rule="nonzero"></path>
                            <path d="M9.88,54.39 C9.88,54.39 19.09,77.57 30.14,77.6 L28.36,71.34 C28.36,71.34 17.25,64.51 15.54,62.09 C14.15,60.11 9.88,54.39 9.88,54.39 Z" id="Path" fill="#1F3B65" fill-rule="nonzero"></path>
                        </g>
                        <path d="M42.14,25.46 C42.14,25.46 41.41,35.05 33.84,34.68 C26.26,34.3 26.16,27.9 26.16,27.9 C26.16,27.9 21.72,24.83 23.61,18.2 C23.61,18.2 25.07,14.38 29.35,13.24 C29.35,13.24 30.3,7.79 36.49,7.97 C42.74,8.16 44.25,11.49 44.25,11.49 C44.25,11.49 49.46,10.86 50.5,17.44 C51.07,21.04 50.43,24.77 42.14,25.46 Z" id="Path" fill="#1F3B65" fill-rule="nonzero"></path>
                    </g>
                    <g transform="translate(30.000000, 144.000000)" id="Path" stroke="#1F3B65" stroke-width="0.4515">
                        <path d="M6.98,2.17 C7.12,1.33 6.54,0.53 5.7,0.4 C4.86,0.26 4.72,0.94 4.58,1.78 C4.48,2.41 4.41,2.96 4.73,3.25 C4.84,3.35 4.99,3.42 5.2,3.45 C6.05,3.58 6.85,3.01 6.98,2.17 Z"></path>
                        <line x1="5.21" y1="3.45" x2="0.92" y2="7.46"></line>
                    </g>
                    <g transform="translate(286.000000, 155.000000)" id="Path">
                        <path d="M58.21,42.7 C60.99,48.57 71.66,50.14 71.66,50.14 L70.84,55.56 L71.75,51.29 C71.75,51.29 73.64,49.09 74.12,49.8 C74.6,50.52 73.64,52.06 73.64,52.06 C73.64,52.06 75.61,51.12 76.83,51.15 L90.85,36.02 C71.08,40.73 47.23,19.73 47.23,19.73 L46.09,21.4 C51.07,22.82 55.44,36.83 58.21,42.7 Z" fill="#43789C" fill-rule="nonzero"></path>
                        <path d="M70.85,55.57 C70.85,55.57 63.65,57.23 55.22,51.82 C46.8,46.41 44.35,41.46 44.35,41.46 L41.63,52.36 L41.28,54.23 C43.25,55.93 45.17,57.34 47.01,58.51 C57.08,64.9 64.82,64.14 64.82,64.14 L72.6,55.74 C71.65,55.66 70.85,55.57 70.85,55.57 Z" fill="#43789C" fill-rule="nonzero"></path>
                        <path d="M59.16,41.37 C56.38,35.5 51.06,22.82 46.09,21.43 C44.67,21.03 43.42,20.42 42.22,19.75 C39.85,18.43 37.71,16.9 34.99,16.42 C34.29,16.3 33.55,16.23 32.76,16.27 L32.43,16.89 C32.43,16.89 23.22,14.66 21.3,19.2 C19.38,23.74 8.39,41.1 8.39,41.1 C8.39,41.1 0.38,56.35 0.6,57.19 C0.66,57.42 1.16,57.76 1.92,58.15 C3.91,59.17 7.74,60.01 9.77,60.55 C13.14,61.45 26.38,63.99 32.57,63.76 C35.34,63.66 37.96,63.03 39.95,61.43 L40.44,58.81 L41.29,54.22 L41.64,52.35 L44.36,41.45 C44.36,41.45 46.81,46.4 55.23,51.81 C63.65,57.22 70.86,55.56 70.86,55.56 L71.68,50.14 C71.67,50.15 61.94,47.24 59.16,41.37 Z" fill="#488FBA" fill-rule="nonzero"></path>
                        <path d="M43.5,17.51 C43.15,17.54 42.78,17.54 42.39,17.53 C38.16,17.33 36.83,15.75 36.43,14.55 L35.47,15.94 C38.19,16.42 40.33,17.94 42.7,19.27 L43.5,17.51 Z" fill="#43789C" fill-rule="nonzero"></path>
                        <path d="M49.04,3.7 C48.45,3.8 46.7,1.49 43.58,0.51 C40.46,-0.47 37.8,3.43 37.01,5.19 C36.23,6.95 36.69,7.63 36.69,7.63 L37.06,8.64 C37.06,8.64 38.56,6.23 39.47,7.98 C40.38,9.74 36.28,13.63 36.28,13.63 C36.28,13.63 36.23,13.9 36.26,14.31 C36.28,14.51 36.32,14.75 36.41,15.01 C36.81,16.21 38.14,17.79 42.37,17.99 C42.76,18.01 43.12,18 43.48,17.97 C49.46,17.53 52.57,11.86 53.13,10.58 C53.73,9.23 52.08,3.16 49.04,3.7 Z" fill="#73ABC4" fill-rule="nonzero"></path>
                        <path d="M35.82,14.12 C35.82,14.12 39.91,10.22 39.01,8.47 C38.1,6.71 36.6,9.13 36.6,9.13 L36.23,8.12 C36.23,8.12 35.77,7.44 36.55,5.68 L34.6,7.57 L34.8,8.22 C34.8,8.22 32.31,12.41 35.47,14.6 C35.58,14.68 35.7,14.75 35.82,14.81 C35.76,14.39 35.82,14.12 35.82,14.12 Z" fill="#6191A6" fill-rule="nonzero"></path>
                        <path d="M36.78,13.65 C36.78,13.65 40.87,9.75 39.97,8 C39.06,6.24 37.56,8.66 37.56,8.66 L37.19,7.65 C37.19,7.65 36.73,6.97 37.51,5.21 L35.56,7.1 L35.76,7.75 C35.76,7.75 33.27,11.94 36.43,14.13 C36.54,14.21 36.66,14.28 36.78,14.34 C36.72,13.92 36.78,13.65 36.78,13.65 Z" stroke="#1F3B65" stroke-width="0.4793"></path>
                        <path d="M43.98,17.99 C43.63,18.02 43.26,18.02 42.87,18.01 C38.64,17.81 37.31,16.23 36.91,15.03 L35.95,16.42 C38.67,16.9 40.81,18.42 43.18,19.75 L43.98,17.99 Z" stroke="#1F3B65" stroke-width="0.4793"></path>
                        <path d="M49.52,3.7 C48.95,3.89 47.18,1.49 44.06,0.51 C40.94,-0.47 38.28,3.43 37.49,5.19 C36.71,6.95 37.17,7.63 37.17,7.63 L37.54,8.64 C37.54,8.64 39.04,6.23 39.95,7.98 C40.86,9.74 36.76,13.63 36.76,13.63 C36.76,13.63 36.71,13.9 36.74,14.31 C36.76,14.51 36.8,14.75 36.89,15.01 C37.29,16.21 38.62,17.79 42.85,17.99 C43.24,18.01 43.6,18 43.96,17.97 C49.94,17.53 53.05,11.86 53.61,10.58 C54.21,9.23 52.54,2.7 49.52,3.7 Z" stroke="#1F3B65" stroke-width="0.4793"></path>
                        <path d="M60.34,40.72 C63.12,46.59 72.62,50.14 72.62,50.14 L71.8,55.56 L72.71,51.29 C72.71,51.29 74.6,49.09 75.08,49.8 C75.56,50.52 74.6,52.06 74.6,52.06 C74.6,52.06 76.57,51.12 77.79,51.15 L91.81,36.02 C72.04,40.73 48.19,19.73 48.19,19.73 L47.05,21.4 C52.02,22.82 57.57,34.85 60.34,40.72 Z" stroke="#1F3B65" stroke-width="0.4793"></path>
                        <path d="M71.81,55.57 C71.81,55.57 64.61,57.23 56.18,51.82 C47.76,46.41 45.31,41.46 45.31,41.46 L42.59,52.36 L42.24,54.23 C44.21,55.93 46.13,57.34 47.97,58.51 C58.04,64.9 65.78,64.14 65.78,64.14 L73.56,55.74 C72.61,55.66 71.81,55.57 71.81,55.57 Z" stroke="#1F3B65" stroke-width="0.4793"></path>
                        <path d="M60.34,40.72 C57.56,34.85 52.02,22.82 47.05,21.42 C45.63,21.02 44.38,20.41 43.18,19.74 C40.81,18.42 38.67,16.89 35.95,16.41 C35.25,16.29 34.51,16.22 33.72,16.26 L33.39,16.88 C33.39,16.88 24.18,14.65 22.26,19.19 C20.34,23.73 9.35,41.09 9.35,41.09 C9.35,41.09 1.34,56.34 1.56,57.18 C1.62,57.41 2.12,57.75 2.88,58.14 C4.87,59.16 8.7,60 10.73,60.54 C14.1,61.44 27.34,63.98 33.53,63.75 C36.3,63.65 38.92,63.02 40.91,61.42 L41.4,58.8 L42.25,54.21 L42.6,52.34 L45.32,41.44 C45.32,41.44 47.77,46.39 56.19,51.8 C64.61,57.21 71.82,55.55 71.82,55.55 L72.64,50.13 C72.62,50.15 63.12,46.6 60.34,40.72 Z" stroke="#1F3B65" stroke-width="0.4793"></path>
                        <path d="M44.92,42.36 L45.51,36.92 C45.51,36.92 48.25,45.43 53.61,49.6400373 C53.61,49.65 49.44,47.65 44.92,42.36 Z" fill="#1F3B65" fill-rule="nonzero"></path>
                        <path d="M37.83,4.55 C37.42,4.2 36.69,4.38 36.19,4.95 C35.69,5.52 35.61,6.28 36.01,6.63" stroke="#1F3B65" stroke-width="0.4793"></path>
                        <path d="M50.04,7.78 C50.47,5.42 47.57,4.78 47.57,4.78 C47.57,4.78 48.75,3.71 46.17,3.49" stroke="#1F3B65" stroke-width="0.4793"></path>
                    </g>
                </g>
            </g>
        </g>
    </g>
</svg>