<?xml version="1.0" encoding="utf-8"?>
<!-- Generator: Adobe Illustrator 24.0.3, SVG Export Plug-In . SVG Version: 6.00 Build 0)  -->
<svg version="1.1" id="Layer_1" xmlns="http://www.w3.org/2000/svg" xmlns:xlink="http://www.w3.org/1999/xlink" x="0px" y="0px"
	 viewBox="0 0 1280 196" style="enable-background:new 0 0 1280 196;" xml:space="preserve">
<style type="text/css">
	.st0{clip-path:url(#SVGID_2_);}
	.st1{clip-path:url(#SVGID_4_);}
	.st2{fill:#255587;}
	.st3{clip-path:url(#SVGID_2_);fill:none;stroke:#4A8FBA;stroke-width:0.9825;stroke-miterlimit:10;}
	.st4{fill:none;stroke:#1F3B65;stroke-width:1.3386;stroke-miterlimit:10;}
	.st5{fill:#1C7598;}
	.st6{fill:#44799D;}
	.st7{fill:#79ABC2;}
	.st8{fill:#4A8FBA;}
	.st9{fill:none;stroke:#1F3B65;stroke-width:1.3386;stroke-linejoin:round;stroke-miterlimit:10;}
	.st10{fill:#1F3B65;}
	.st11{fill:none;stroke:#1F3B65;stroke-width:1.2526;stroke-miterlimit:10;}
	.st12{fill:none;stroke:#1F3B65;stroke-width:1.2526;stroke-linejoin:round;stroke-miterlimit:10;}
	.st13{fill:#1F3B65;stroke:#1F3B65;stroke-width:1.1871;stroke-miterlimit:10;}
	.st14{fill:#638FAE;}
	.st15{fill:#386FA0;}
	.st16{fill:none;stroke:#1F3B65;stroke-width:0.9825;stroke-miterlimit:10;}
	.st17{fill:none;stroke:#1F3B65;stroke-width:0.9825;stroke-linejoin:round;stroke-miterlimit:10;}
	.st18{fill:none;}
	.st19{fill:#336480;}
	.st20{fill:none;stroke:#1F3B65;stroke-width:1.1343;stroke-miterlimit:10;}
	.st21{fill:none;stroke:#1F3B65;stroke-width:1.1343;stroke-linejoin:round;stroke-miterlimit:10;}
	.st22{fill:#1F3B65;stroke:#1F3B65;stroke-width:1.1343;stroke-linejoin:round;stroke-miterlimit:10;}
	.st23{fill:#6291A6;}
	.st24{fill:#74ABC4;}
	.st25{fill:none;stroke:#1F3B65;stroke-width:1.0853;stroke-miterlimit:10;}
	.st26{fill:none;stroke:#1F3B65;stroke-width:1.0853;stroke-linejoin:round;stroke-miterlimit:10;}
	.st27{fill:none;stroke:#1F3B65;stroke-miterlimit:10;}
	.st28{fill:none;stroke:#1F3B65;stroke-linejoin:round;stroke-miterlimit:10;}
	.st29{fill:#1F3B65;stroke:#1F3B65;stroke-width:0.5973;stroke-linejoin:round;stroke-miterlimit:10;}
	.st30{fill:none;stroke:#1F3B65;stroke-width:1.5868;stroke-miterlimit:10;}
</style>
<g>
	<defs>
		<rect id="SVGID_1_" width="1280" height="196"/>
	</defs>
	<clipPath id="SVGID_2_">
		<use xlink:href="#SVGID_1_"  style="overflow:visible;"/>
	</clipPath>
	<g class="st0">
		<defs>
			<rect id="SVGID_3_" x="-30.1" y="-25.94" width="1315.67" height="252.93"/>
		</defs>
		<clipPath id="SVGID_4_">
			<use xlink:href="#SVGID_3_"  style="overflow:visible;"/>
		</clipPath>
		<g class="st1">
			<rect x="-30.1" y="-25.94" class="st2" width="1315.67" height="252.93"/>
		</g>
	</g>
	<circle class="st3" cx="924.33" cy="204.99" r="43.97"/>
	<path class="st3" d="M741.88,202.28l25.66-18.29c0.7-0.5,0.86-1.46,0.36-2.16l-18.29-25.66c-0.5-0.7-1.46-0.86-2.16-0.36
		l-25.66,18.29c-0.7,0.5-0.86,1.46-0.36,2.16l18.29,25.66C740.22,202.61,741.18,202.77,741.88,202.28z"/>
	<circle class="st3" cx="804.98" cy="33.31" r="43.97"/>
	<g class="st0">
		<g>
			<g>
				<g>
					<path class="st4" d="M471.02,54.98c0.47,0.14,0.8,0.17,0.8,0.17L471.02,54.98z"/>
					<path class="st5" d="M483.6,87.4c-1.21-2-2.31-4.56-2.71-7.65c-0.41,0.82-0.86,1.56-1.37,2.16c-0.82,0.95-1.77,2.01-2.84,3.06
						c-3.76,3.67-9.06,7.16-15.77,5.25c-3.43-0.98-6.28-3.84-8.49-7c-0.79,1.59-1.65,4.46,0.18,7.61
						c2.77,4.77,14.3,16.76,35.37,1.69C487.97,92.52,485.62,90.74,483.6,87.4z"/>
					<path class="st5" d="M488.23,59.76c0,0,1.23-1.08-1.54-2.46c-2.77-1.38-0.15-3.54-0.31-6.77c-0.15-3.23-5.08-1.69-8.46-2.61
						C474.54,47,479,45.77,479,42.84c0-2.92-5.84-6.15-5.69-4.31c0.15,1.85,0.15,2-1.38,4c-1.54,2,0,2-1.38,7.07
						c-1.02,3.75,1.4,4.98,2.73,5.37l0.8,0.17c0,0-0.34-0.03-0.8-0.17l-2.12-0.45c-5.84-1.38-3.23-4.77-3.23-8.61
						c0-3.84-3.23-5.38-3.23-5.38c-2.77,4.77-7.84,6.77-12.3,10.3c-4.46,3.54-1.23,1.85-1.69,6c-0.46,4.15-2.92,3.23-2.92,3.23
						s0.73,8.84,1.21,11.58c0.06,0.34,0.12,0.61,0.17,0.73c0.22,0.5,1.4,3.88,3.48,7.59c0.6,1.08,1.28,2.18,2.03,3.25
						c2.21,3.16,5.05,6.02,8.49,7c6.71,1.92,12-1.58,15.77-5.25c1.07-1.04,2.02-2.1,2.84-3.06c0.51-0.6,0.96-1.34,1.37-2.16
						c0.36-0.73,0.69-1.52,0.98-2.35c1.75-4.98,2.26-11.19,2.26-11.19c3.23,4,4.92,0.15,5.38-4
						C492.23,58.07,488.23,59.76,488.23,59.76z"/>
					<path class="st6" d="M396.5,20.28c-2.43-1.94-6.19-4.57-10.9-6.33c-4.71-1.77-5.6,0-14.14,1.33
						c-8.54,1.33-12.96,12.52-13.85,15.17c-0.62,1.85,0.77,9.34,1.72,14.37c0.41,2.18,0.74,3.91,0.79,4.49
						c0.15,1.92,1.33-4.12,2.65-5.16c1.33-1.03,1.77-4.86,1.47-8.4c-0.29-3.54,3.24-6.19,5.45-7.37c2.21-1.18,13.11-0.74,13.11-0.74
						s10.02-1.47,10.31,3.54c0.29,5.01,3.54,3.98,3.54,7.22c0,3.24-0.15,13.99,0,12.67c0.03-0.28,0.22-0.87,0.5-1.66
						c1.06-2.96,3.5-8.82,4.51-12.34C402.95,32.56,400.86,23.77,396.5,20.28z"/>
					<path class="st7" d="M395.81,53.9l0.2-2.98c-0.28,0.79-0.47,1.38-0.5,1.66c-0.15,1.32,0-9.43,0-12.67
						c0-3.24-3.24-2.21-3.54-7.22c-0.29-5.01-10.31-3.54-10.31-3.54s-10.9-0.44-13.11,0.74c-2.21,1.18-5.75,3.83-5.45,7.37
						c0.29,3.54-0.15,7.37-1.47,8.4c-1.33,1.03-2.5,7.07-2.65,5.16c-0.04-0.58-0.37-2.3-0.79-4.49c-3.23-2.42-5.33,0.47-4.66,6.85
						c0.74,7.07,5.01,7.95,5.01,7.95c0.34,2.33,1.04,4.54,1.99,6.59c3.21,6.91,9.44,11.82,15.69,11.82c4.63,0,9.98-5.19,13.72-9.65
						c2.8-3.34,4.7-6.26,4.7-6.26c1.62,2.5,6.19-6.63,6.04-9.58C400.53,51.1,395.81,53.9,395.81,53.9z"/>
					<path class="st8" d="M417.39,157.32c0.05-0.65,0.1-1.27,0.15-1.86c-1.33-0.97-2.59-2.94-3.52-4.98
						c-0.37,0.74-0.75,1.33-1.12,1.65c-2.36,2.04-5.35-0.79-6.6-1.73c-1.26-0.94,1.89-1.42,1.73-3.62c-0.16-2.2-4.72,1.42-9.12,2.36
						c-4.4,0.94-4.72-1.89-9.28-2.36c-4.56-0.47-29.09,15.57-45.76,19.66c-3,0.74-5.61,1.21-7.88,1.5l-6.22,44.58l96.05-0.15
						l1.18-0.76C424.82,201.41,416.7,166.34,417.39,157.32z"/>
					<path class="st8" d="M437.71,137.53c-3.89-13.78-13.78-38.86-25.43-41.68c-6.07-1.47-14.53-3.9-21.24-5.89
						c0,2.77-0.02,5.28-0.07,7.23c-0.06,2.38-0.17,3.92-0.36,4.01c-17.91,8.95-29.46-11.64-29.46-11.64l0.15-6.33
						c-3.41,1.49-8.75,3.83-12.96,5.68c-2.51,1.33-5.63,3.17-5.87,4.27c-0.41,1.85,0.27,4.53-3.47,5.87
						c-3.73,1.33-5.6,1.87-8.27,2.4c-2.59,0.52-4.68-1.73-6.99-4.31c-2,1.59-3.72,3.74-4.88,6.71
						c-4.86,12.52-11.78,36.09-11.05,43.75c0.74,7.66,0.88,20.92,14.58,21.36c-3.69-21.91,17.82-30.72,17.82-30.72
						c13.49,5.71,61.99-4.14,67.65-4.93c5.66-0.79,6.92,0.79,8.49,3.93c0.33,0.66,0.46,1.72,0.46,2.98
						c0.85-0.02,3.42-0.09,6.68-0.17c4.48-0.11,10.26-0.25,14.68-0.34C438.05,138.9,437.89,138.17,437.71,137.53z"/>
					<path class="st7" d="M391.06,68.38c-3.74,4.45-9.09,9.65-13.72,9.65c-6.25,0-12.48-4.91-15.69-11.82l-0.36,14.77l-0.15,6.33
						c0,0,11.55,20.59,29.46,11.64c0.19-0.09,0.3-1.63,0.36-4.01c0.05-1.95,0.07-4.46,0.07-7.23c0-0.1,0-0.2,0-0.3
						C391.04,81.03,390.98,73.42,391.06,68.38z"/>
					<path class="st7" d="M414.95,139.72c-1.57-3.14-2.83-4.72-8.49-3.93c-5.66,0.79-54.17,10.64-67.65,4.93
						c0,0-21.51,8.81-17.82,30.72c0,0,3.24,2.56,13.59,1.23c2.27-0.29,4.88-0.76,7.88-1.5c16.67-4.09,41.2-20.13,45.76-19.66
						c4.56,0.47,4.87,3.3,9.28,2.36c4.4-0.94,8.96-4.56,9.12-2.36c0.16,2.2-2.99,2.67-1.73,3.62c1.26,0.94,4.25,3.77,6.6,1.73
						c0.37-0.32,0.75-0.91,1.12-1.65c1.48-2.97,2.8-8.7,2.8-12.51C415.42,141.43,415.28,140.37,414.95,139.72z"/>
					<path class="st9" d="M432.46,153.57c-0.02-0.33-0.12-0.75-0.28-1.23c-3.75,0.72-7.32-0.22-7.32-0.22s-1.42,2.2-4.87,3.77
						c-0.8,0.37-1.63,0.14-2.44-0.45c-0.05,0.59-0.1,1.21-0.15,1.86c-0.69,9.02,7.43,44.09,9.6,54.29
						C426.99,211.61,432.92,161.88,432.46,153.57z"/>
					<path class="st6" d="M514.27,175.53c0,0,2-2.31,6-12.76c4-10.46-0.31-47.21-3.38-56.44c-3.08-9.23-7.84-10.15-13.69-11.07
						c-2.86-0.45-11.04-3.33-19.6-6.35c2.03,3.34,4.38,5.12,4.38,5.12c-21.07,15.07-32.6,3.08-35.37-1.69
						c-1.83-3.15-0.97-6.02-0.18-7.61c-0.75-1.07-1.43-2.17-2.03-3.25c-9.36,0.84-21.23,3.29-28.55,5.17
						c-8.42,2.16-21.98,2.26-30.81,2.27c0,0.1,0,0.2,0,0.3c6.72,1.99,15.18,4.42,21.24,5.89c11.66,2.83,21.55,27.91,25.43,41.68
						c0.18,0.64,0.34,1.37,0.47,2.18c3.04-0.07,5.45-0.11,6.33-0.11c3.3,0,5.94,1.88,5.82,2.36c-1.42,5.82-3.46,8.18-3.46,8.18
						l-6.18-1.87l-0.58-0.18l-1.17,1.79l-1.19,1.82c-1.57,1.68-3.6,2.51-5.57,2.89c0.16,0.48,0.26,0.9,0.28,1.23
						c0.46,8.3-1.69,40.29-1.38,46.91c0.13,2.77,0.3,4.43,3.45,6.26c1.64,0.95,4.11,1.96,7.8,3.18c6.16,2.05,15.74,4.72,30.73,8.86
						c41.22,11.38,59.21-13.69,59.21-13.69L514.27,175.53z"/>
					<path class="st5" d="M443.76,139.23c-0.88,0-3.28,0.04-6.33,0.11c-4.42,0.1-10.19,0.23-14.68,0.34
						c-3.26,0.08-5.83,0.15-6.68,0.17c0,3.81-1.32,9.54-2.8,12.51c0.93,2.04,2.19,4.01,3.52,4.98c0.8,0.58,1.63,0.81,2.44,0.45
						c3.46-1.57,4.87-3.77,4.87-3.77s3.58,0.93,7.32,0.22c1.97-0.38,4-1.21,5.57-2.89l1.19-1.82l1.17-1.79l0.58,0.18l6.18,1.87
						c0,0,2.04-2.36,3.46-8.18C449.69,141.1,447.06,139.23,443.76,139.23z"/>
					<path class="st5" d="M345.4,85.6c0,0-13.33-0.8-17.06,2.13c-3.73,2.93-7.2,4.27-4.8,6.93c0.07,0.08,0.14,0.15,0.2,0.23
						c2.32,2.57,4.4,4.82,6.99,4.31c2.67-0.53,4.53-1.07,8.27-2.4c3.73-1.33,3.06-4.01,3.47-5.87c0.24-1.1,3.36-2.94,5.87-4.27
						c1.74-0.92,3.19-1.6,3.19-1.6S348.6,85.6,345.4,85.6z"/>
				</g>
			</g>
		</g>
		<g>
			<g>
				<g>
					<path class="st10" d="M448.02,55.8c0.46-4.15-2.77-2.46,1.69-6c4.46-3.54,9.54-5.54,12.3-10.3c0,0,3.23,1.54,3.23,5.38
						c0,3.84-2.61,7.23,3.23,8.61l2.12,0.45c-1.33-0.39-3.76-1.61-2.73-5.37c1.38-5.08-0.15-5.08,1.38-7.07c1.54-2,1.54-2.15,1.38-4
						c-0.15-1.85,5.69,1.38,5.69,4.31c0,2.92-4.46,4.15-1.08,5.08c3.38,0.92,8.3-0.62,8.46,2.61c0.15,3.23-2.46,5.38,0.31,6.77
						c2.77,1.38,1.54,2.46,1.54,2.46s4-1.69,3.54,2.46c-0.46,4.15-2.15,8-5.38,4c0,0-0.51,6.21-2.26,11.19
						c2.33,1.46,10.14,6.2,9.49,3.58c-0.77-3.08-1.23-3.54,2.31-6.15c3.54-2.61,6-3.38,6.31-6.77c0.31-3.38,6.46-1.54,4-5.84
						c-2.46-4.31-1.23-4.92,0.77-7.23c2-2.31-2.77-4-3.84-9.54c-1.08-5.54,2.77-6.77,0.15-8.15c-2.61-1.38-2-4.46-1.69-7.38
						c0.31-2.92-6-1.38-9.53-2.92c-3.54-1.54-0.92-8.77-4.77-8c-3.84,0.77-7.54-3.54-9.69-5.23c-2.15-1.69,0,2.46-2.46,3.23
						c-2.46,0.77-2.61-4-4.15-2.15c-1.54,1.85-4.15-1.08-7.84,0.77c-3.69,1.85-5.54,3.84-7.38,3.84c-1.85,0-1.08,0.46-1.08,2.46
						c0,2-3.38,1.23-5.23,2.31c-1.85,1.08,2.92,3.69-1.08,4.92c-4,1.23-10.46,7.07-11.38,9.54c-0.92,2.46,2-2.61,2.61,0.62
						c0.62,3.23-1.54,6.77-2.31,10.92c-0.77,4.15,2,3.54,2.46,4.46c0.46,0.92-2.31,2.31-2.46,5.69c-0.15,3.38,3.08,2.15,4.61,3.08
						c1.54,0.92-0.31,6,0.46,7.54c0.53,1.07,4.33,0.88,6.6,0.66c-0.49-2.73-1.21-11.58-1.21-11.58S447.56,59.95,448.02,55.8z"/>
					<path class="st4" d="M470.6,53.94c0.47,0.14,0.8,0.17,0.8,0.17L470.6,53.94z"/>
					<path class="st9" d="M483.17,86.36c-1.21-2-2.31-4.56-2.71-7.65c-0.41,0.82-0.86,1.56-1.37,2.16
						c-0.82,0.95-1.77,2.01-2.84,3.06c-3.76,3.67-9.06,7.16-15.77,5.25c-3.43-0.98-6.28-3.84-8.49-7c-0.79,1.59-1.65,4.46,0.18,7.61
						c2.77,4.77,14.3,16.76,35.37,1.69C487.55,91.48,485.2,89.7,483.17,86.36z"/>
					<path class="st9" d="M485.55,58.72c0,0,1.23-1.08-1.54-2.46c-2.77-1.38-0.15-3.54-0.31-6.77c-0.15-3.23-5.08-1.69-8.46-2.61
						c-3.38-0.92,1.08-2.15,1.08-5.08c0-2.92-5.84-6.15-5.69-4.31c0.15,1.85,0.15,2-1.38,4c-1.54,2,0,2-1.38,7.07
						c-1.02,3.75,1.4,4.98,2.73,5.37l0.8,0.17c0,0-0.34-0.03-0.8-0.17l-2.12-0.45c-5.84-1.38-3.23-4.77-3.23-8.61
						c0-3.84-3.23-5.38-3.23-5.38c-2.77,4.77-7.84,6.77-12.3,10.3c-4.46,3.54-1.23,1.85-1.69,6c-0.46,4.15-2.92,3.23-2.92,3.23
						s0.73,8.84,1.21,11.58c0.06,0.34,0.12,0.61,0.17,0.73c0.22,0.5,1.4,3.88,3.48,7.59c0.6,1.08,1.28,2.18,2.03,3.25
						c2.21,3.16,5.05,6.02,8.49,7c6.71,1.92,12-1.58,15.77-5.25c1.07-1.04,2.02-2.1,2.84-3.06c0.51-0.6,0.96-1.34,1.37-2.16
						c0.36-0.73,0.69-1.52,0.98-2.35c1.75-4.98,2.26-11.19,2.26-11.19c3.23,4,4.92,0.15,5.38-4
						C489.55,57.03,485.55,58.72,485.55,58.72z"/>
					<path class="st9" d="M396.07,19.24c-2.43-1.94-6.19-4.57-10.9-6.33c-4.71-1.77-5.6,0-14.14,1.33
						c-8.54,1.33-12.96,12.52-13.85,15.17c-0.62,1.85,0.77,9.34,1.72,14.37c0.41,2.18,0.74,3.91,0.79,4.49
						c0.15,1.92,1.33-4.12,2.65-5.16c1.33-1.03,1.77-4.86,1.47-8.4s3.24-6.19,5.45-7.37c2.21-1.18,13.11-0.74,13.11-0.74
						s10.02-1.47,10.31,3.54c0.29,5.01,3.54,3.98,3.54,7.22c0,3.24-0.15,13.99,0,12.67c0.03-0.28,0.22-0.87,0.5-1.66
						c1.06-2.96,3.5-8.82,4.51-12.34C402.52,31.53,400.43,22.73,396.07,19.24z"/>
					<path class="st9" d="M396.51,51.36l0.2-2.98c-0.28,0.79-0.47,1.38-0.5,1.66c-0.15,1.32,0-9.43,0-12.67
						c0-3.24-3.24-2.21-3.54-7.22c-0.29-5.01-10.31-3.54-10.31-3.54s-10.9-0.44-13.11,0.74c-2.21,1.18-5.75,3.83-5.45,7.37
						s-0.15,7.37-1.47,8.4c-1.33,1.03-2.5,7.07-2.65,5.16c-0.04-0.58-0.37-2.3-0.79-4.49c-3.23-2.42-5.33,0.47-4.66,6.85
						c0.74,7.07,5.01,7.95,5.01,7.95c0.34,2.33,1.04,4.54,1.99,6.59c3.21,6.91,9.44,11.82,15.69,11.82c4.63,0,9.98-5.19,13.72-9.65
						c2.8-3.34,4.7-6.26,4.7-6.26c1.62,2.5,6.19-6.63,6.04-9.58C401.23,48.56,396.51,51.36,396.51,51.36z"/>
					<path class="st9" d="M416.96,156.28c0.05-0.65,0.1-1.27,0.15-1.86c-1.33-0.97-2.59-2.94-3.52-4.98
						c-0.37,0.74-0.75,1.33-1.12,1.65c-2.36,2.04-5.35-0.79-6.6-1.73c-1.26-0.94,1.89-1.42,1.73-3.62c-0.16-2.2-4.72,1.42-9.12,2.36
						c-4.4,0.94-4.72-1.89-9.28-2.36c-4.56-0.47-29.09,15.57-45.76,19.66c-3,0.74-5.61,1.21-7.88,1.5l-6.22,44.58l96.05-0.15
						l1.18-0.76C424.4,200.37,416.27,165.3,416.96,156.28z"/>
					<path class="st9" d="M437.28,134.24c-3.89-13.78-13.78-38.86-25.43-41.68c-6.07-1.47-14.53-3.9-21.24-5.89
						c0,2.77-0.02,5.28-0.07,7.23c-0.06,2.38-0.17,3.92-0.36,4.01c-17.91,8.95-29.46-11.64-29.46-11.64l0.15-6.33
						c-3.41,1.49-8.75,3.83-12.96,5.68c-2.51,1.33-5.63,3.17-5.87,4.27c-0.41,1.85,0.27,4.53-3.47,5.87
						c-3.73,1.33-5.6,1.87-8.27,2.4c-2.59,0.52-4.68-1.73-6.99-4.31c-2,1.59-3.72,3.74-4.88,6.71
						c-4.86,12.52-11.78,36.09-11.05,43.75c0.74,7.66,0.88,20.92,14.58,21.36c-3.69-21.91,17.82-30.72,17.82-30.72
						c13.49,5.71,61.99-4.14,67.65-4.93c5.66-0.79,6.92,0.79,8.49,3.93c0.33,0.66,0.46,1.72,0.46,2.98
						c0.85-0.02,3.42-0.09,6.68-0.17c4.48-0.11,10.26-0.25,14.68-0.34C437.62,135.61,437.46,134.88,437.28,134.24z"/>
					<path class="st9" d="M390.64,67.34c-3.74,4.45-9.09,9.65-13.72,9.65c-6.25,0-12.48-4.91-15.69-11.82l-0.36,14.77l-0.15,6.33
						c0,0,11.55,20.59,29.46,11.64c0.19-0.09,0.3-1.63,0.36-4.01c0.05-1.95,0.07-4.46,0.07-7.23c0-0.1,0-0.2,0-0.3
						C390.61,79.99,390.55,72.38,390.64,67.34z"/>
					<path class="st9" d="M415.94,133.95c-1.57-3.14-2.83-4.72-8.49-3.93c-5.66,0.79-54.17,10.64-67.65,4.93
						c0,0-21.51,8.81-17.82,30.72c0,0,3.24,2.56,13.59,1.23c2.27-0.29,4.88-0.76,7.88-1.5c16.67-4.09,41.2-20.13,45.76-19.66
						c4.56,0.47,4.87,3.3,9.28,2.36c4.4-0.94,8.96-4.56,9.12-2.36c0.16,2.2-2.99,2.67-1.73,3.62c1.26,0.94,4.25,3.77,6.6,1.73
						c0.37-0.32,0.75-0.91,1.12-1.65c1.48-2.97,2.8-8.7,2.8-12.51C416.4,135.67,416.27,134.61,415.94,133.95z"/>
					<path class="st9" d="M432.03,152.53c-0.02-0.33-0.12-0.75-0.28-1.23c-3.75,0.72-7.32-0.22-7.32-0.22s-1.42,2.2-4.87,3.77
						c-0.8,0.37-1.63,0.14-2.44-0.45c-0.05,0.59-0.1,1.21-0.15,1.86c-0.69,9.02,7.43,44.09,9.6,54.29
						C426.57,210.57,432.49,160.84,432.03,152.53z"/>
					<path class="st9" d="M513.85,172.99c0,0,2-2.31,6-12.76c4-10.46-0.31-47.21-3.38-56.44c-3.08-9.23-7.84-10.15-13.69-11.07
						c-2.86-0.45-11.04-3.33-19.6-6.35c2.03,3.34,4.38,5.12,4.38,5.12c-21.07,15.07-32.6,3.08-35.37-1.69
						c-1.83-3.15-0.97-6.02-0.18-7.61c-0.75-1.07-1.43-2.17-2.03-3.25c-9.36,0.84-21.23,3.29-28.55,5.17
						c-8.42,2.16-21.98,2.26-30.81,2.27c0,0.1,0,0.2,0,0.3c6.72,1.99,15.18,4.42,21.24,5.89c11.66,2.83,21.55,27.91,25.43,41.68
						c0.18,0.64,0.34,1.37,0.47,2.18c3.04-0.07,5.45-0.11,6.33-0.11c3.3,0,5.94,1.88,5.82,2.36c-1.42,5.82-3.46,8.18-3.46,8.18
						l-6.18-1.87l-0.58-0.18l-1.17,1.79l-1.19,1.82c-1.57,1.68-3.6,2.51-5.57,2.89c0.16,0.48,0.26,0.9,0.28,1.23
						c0.46,8.3-1.69,40.29-1.38,46.91c0.13,2.77,0.3,4.43,3.45,6.26c1.64,0.95,4.11,1.96,7.8,3.18c6.16,2.05,15.74,4.72,30.73,8.86
						c41.22,11.38,59.21-13.69,59.21-13.69L513.85,172.99z"/>
					<path class="st9" d="M444.08,136.31c-0.88,0-3.28,0.04-6.33,0.11c-4.42,0.1-10.19,0.23-14.68,0.34
						c-3.26,0.08-5.83,0.15-6.68,0.17c0,3.81-1.32,9.54-2.8,12.51c0.93,2.04,2.19,4.01,3.52,4.98c0.8,0.58,1.63,0.81,2.44,0.45
						c3.46-1.57,4.87-3.77,4.87-3.77s3.58,0.93,7.32,0.22c1.97-0.38,4-1.21,5.57-2.89l1.19-1.82l1.17-1.79l0.58,0.18l6.18,1.87
						c0,0,2.04-2.36,3.46-8.18C450.02,138.19,447.39,136.31,444.08,136.31z"/>
					<path class="st9" d="M344.97,84.56c0,0-13.33-0.8-17.06,2.13c-3.73,2.93-7.2,4.27-4.8,6.93c0.07,0.08,0.14,0.15,0.2,0.23
						c2.32,2.57,4.4,4.82,6.99,4.31c2.67-0.53,4.53-1.07,8.27-2.4c3.73-1.33,3.06-4.01,3.47-5.87c0.24-1.1,3.36-2.94,5.87-4.27
						c1.74-0.92,3.19-1.6,3.19-1.6S348.17,84.56,344.97,84.56z"/>
				</g>
				<path class="st10" d="M361.24,87.35c0,0-6.11-6.18-3.82-6.18c1.18,0,3.45-1.23,3.45-1.23L361.24,87.35z"/>
				<path class="st10" d="M390.18,97.91c2.67-2.18,5.47-5.27,5.17-9.82l-4.74-1.41L390.18,97.91z"/>
				<path class="st10" d="M483.17,86.36c0.45-0.76,8.34,3.05,8.34,3.05l-4.07,2.91C487.43,92.32,482.63,87.28,483.17,86.36z"/>
				<path class="st9" d="M495.8,110.62c0,0-0.78,12.45-0.89,19.12c-0.11,6.67,1.89,15.01-1.22,14.9s-28.79-1.56-39.02-8.12
					l-3.54-1.54c-0.39-0.17-0.83,0.1-0.86,0.52l-0.61,4.25"/>
				<path class="st9" d="M513.85,172.99c-15.97,19.9-41.17,4.22-51.51,0.77s-25.68-12.56-25.68-12.56
					c5.45-1.56,11.72-17.65,11.72-17.65"/>
				<path class="st10" d="M443.54,145.75c0,0-10.45,15.68-6.89,15.45s9.79-14.35,9.79-14.35L443.54,145.75z"/>
				<path class="st10" d="M450.62,134.63c0,0-0.09-0.95-2.84,1.3c-1.87,1.53,0.81,1.24,0.81,1.24l0.55,0.17L450.62,134.63z"/>
				<path class="st9" d="M424.43,151.09c0,0,0.32-3.18-1.28-3.53c-1.59-0.35-1.59-0.35-1.59-0.35l7.78,0.53"/>
				<path class="st9" d="M432.17,103.17c0,0-0.35,10.96,0.35,16.8"/>
				<path class="st9" d="M339.79,134.95c-0.11-1.89-3.65-13.56-2.94-23.28"/>
				<path class="st9" d="M383.54,61.44c0,0-2.65,6.54-13.26,2.3"/>
				<path class="st9" d="M458.7,78.59c0,0,7.6,1.06,9.9-6.19"/>
				<path class="st9" d="M464.53,66.39c0,0-0.71,3.71-4.77,1.77c0,0-1.41-1.77,0.53-3.54"/>
				<path class="st9" d="M379.47,54.36c0,0-1.06,2.3-3.36,2.3s-2.3-2.3-2.3-2.3"/>
				<circle class="st10" cx="369.26" cy="43.9" r="1.39"/>
				<circle class="st10" cx="386.6" cy="46.45" r="1.39"/>
				<circle class="st10" cx="454.34" cy="57.08" r="1.39"/>
				<circle class="st10" cx="472.61" cy="56.62" r="1.39"/>
			</g>
			<path class="st10" d="M517.15,178.3c0,0-9.33,20.41-63.86-7.67c0,0,4.89,1.52,12.84,4.54c10.38,3.93,20.95,10.26,35.35,6.98
				l12.83-8.55L517.15,178.3z"/>
			<path class="st10" d="M389.2,145.75c0,0-53.83,28.45-55.02,30.23l1.38-9.07c0,0,15.03-3.19,21.16-6.35
				C362.86,157.38,384.9,144.19,389.2,145.75z"/>
		</g>
		<g>
			<g>
				<g>
					<path class="st10" d="M448.02,55.8c0.46-4.15-2.77-2.46,1.69-6c4.46-3.54,9.54-5.54,12.3-10.3c0,0,3.23,1.54,3.23,5.38
						c0,3.84-2.61,7.23,3.23,8.61l2.12,0.45c-1.33-0.39-3.76-1.61-2.73-5.37c1.38-5.08-0.15-5.08,1.38-7.07c1.54-2,1.54-2.15,1.38-4
						c-0.15-1.85,5.69,1.38,5.69,4.31c0,2.92-4.46,4.15-1.08,5.08c3.38,0.92,8.3-0.62,8.46,2.61c0.15,3.23-2.46,5.38,0.31,6.77
						c2.77,1.38,1.54,2.46,1.54,2.46s4-1.69,3.54,2.46c-0.46,4.15-2.15,8-5.38,4c0,0-0.51,6.21-2.26,11.19
						c2.33,1.46,10.14,6.2,9.49,3.58c-0.77-3.08-1.23-3.54,2.31-6.15c3.54-2.61,6-3.38,6.31-6.77c0.31-3.38,6.46-1.54,4-5.84
						c-2.46-4.31-1.23-4.92,0.77-7.23c2-2.31-2.77-4-3.84-9.54c-1.08-5.54,2.77-6.77,0.15-8.15c-2.61-1.38-2-4.46-1.69-7.38
						c0.31-2.92-6-1.38-9.53-2.92c-3.54-1.54-0.92-8.77-4.77-8c-3.84,0.77-7.54-3.54-9.69-5.23c-2.15-1.69,0,2.46-2.46,3.23
						c-2.46,0.77-2.61-4-4.15-2.15c-1.54,1.85-4.15-1.08-7.84,0.77c-3.69,1.85-5.54,3.84-7.38,3.84c-1.85,0-1.08,0.46-1.08,2.46
						c0,2-3.38,1.23-5.23,2.31c-1.85,1.08,2.92,3.69-1.08,4.92c-4,1.23-10.46,7.07-11.38,9.54c-0.92,2.46,2-2.61,2.61,0.62
						c0.62,3.23-1.54,6.77-2.31,10.92c-0.77,4.15,2,3.54,2.46,4.46c0.46,0.92-2.31,2.31-2.46,5.69c-0.15,3.38,3.08,2.15,4.61,3.08
						c1.54,0.92-0.31,6,0.46,7.54c0.53,1.07,4.33,0.88,6.6,0.66c-0.49-2.73-1.21-11.58-1.21-11.58S447.56,59.95,448.02,55.8z"/>
					<path class="st11" d="M470.6,53.94c0.47,0.14,0.8,0.17,0.8,0.17L470.6,53.94z"/>
					<path class="st12" d="M483.17,86.36c-1.21-2-2.31-4.56-2.71-7.65c-0.41,0.82-0.86,1.56-1.37,2.16
						c-0.82,0.95-1.77,2.01-2.84,3.06c-3.76,3.67-9.06,7.16-15.77,5.25c-3.43-0.98-6.28-3.84-8.49-7c-0.79,1.59-1.65,4.46,0.18,7.61
						c2.77,4.77,14.3,16.76,35.37,1.69C487.55,91.48,485.2,89.7,483.17,86.36z"/>
					<path class="st12" d="M485.55,58.72c0,0,1.23-1.08-1.54-2.46c-2.77-1.38-0.15-3.54-0.31-6.77c-0.15-3.23-5.08-1.69-8.46-2.61
						c-3.38-0.92,1.08-2.15,1.08-5.08c0-2.92-5.84-6.15-5.69-4.31c0.15,1.85,0.15,2-1.38,4c-1.54,2,0,2-1.38,7.07
						c-1.02,3.75,1.4,4.98,2.73,5.37l0.8,0.17c0,0-0.34-0.03-0.8-0.17l-2.12-0.45c-5.84-1.38-3.23-4.77-3.23-8.61
						c0-3.84-3.23-5.38-3.23-5.38c-2.77,4.77-7.84,6.77-12.3,10.3c-4.46,3.54-1.23,1.85-1.69,6c-0.46,4.15-2.92,3.23-2.92,3.23
						s0.73,8.84,1.21,11.58c0.06,0.34,0.12,0.61,0.17,0.73c0.22,0.5,1.4,3.88,3.48,7.59c0.6,1.08,1.28,2.18,2.03,3.25
						c2.21,3.16,5.05,6.02,8.49,7c6.71,1.92,12-1.58,15.77-5.25c1.07-1.04,2.02-2.1,2.84-3.06c0.51-0.6,0.96-1.34,1.37-2.16
						c0.36-0.73,0.69-1.52,0.98-2.35c1.75-4.98,2.26-11.19,2.26-11.19c3.23,4,4.92,0.15,5.38-4
						C489.55,57.03,485.55,58.72,485.55,58.72z"/>
					<path class="st12" d="M396.07,19.24c-2.43-1.94-6.19-4.57-10.9-6.33c-4.71-1.77-5.6,0-14.14,1.33
						c-8.54,1.33-12.96,12.52-13.85,15.17c-0.62,1.85,0.77,9.34,1.72,14.37c0.41,2.18,0.74,3.91,0.79,4.49
						c0.15,1.92,1.33-4.12,2.65-5.16c1.33-1.03,1.77-4.86,1.47-8.4s3.24-6.19,5.45-7.37c2.21-1.18,13.11-0.74,13.11-0.74
						s10.02-1.47,10.31,3.54c0.29,5.01,3.54,3.98,3.54,7.22c0,3.24-0.15,13.99,0,12.67c0.03-0.28,0.22-0.87,0.5-1.66
						c1.06-2.96,3.5-8.82,4.51-12.34C402.52,31.53,400.43,22.73,396.07,19.24z"/>
					<path class="st12" d="M396.51,51.36l0.2-2.98c-0.28,0.79-0.47,1.38-0.5,1.66c-0.15,1.32,0-9.43,0-12.67
						c0-3.24-3.24-2.21-3.54-7.22c-0.29-5.01-10.31-3.54-10.31-3.54s-10.9-0.44-13.11,0.74c-2.21,1.18-5.75,3.83-5.45,7.37
						s-0.15,7.37-1.47,8.4c-1.33,1.03-2.5,7.07-2.65,5.16c-0.04-0.58-0.37-2.3-0.79-4.49c-3.23-2.42-5.33,0.47-4.66,6.85
						c0.74,7.07,5.01,7.95,5.01,7.95c0.34,2.33,1.04,4.54,1.99,6.59c3.21,6.91,9.44,11.82,15.69,11.82c4.63,0,9.98-5.19,13.72-9.65
						c2.8-3.34,4.7-6.26,4.7-6.26c1.62,2.5,6.19-6.63,6.04-9.58C401.23,48.56,396.51,51.36,396.51,51.36z"/>
					<path class="st12" d="M416.96,156.28c0.05-0.65,0.1-1.27,0.15-1.86c-1.33-0.97-2.59-2.94-3.52-4.98
						c-0.37,0.74-0.75,1.33-1.12,1.65c-2.36,2.04-5.35-0.79-6.6-1.73c-1.26-0.94,1.89-1.42,1.73-3.62c-0.16-2.2-4.72,1.42-9.12,2.36
						c-4.4,0.94-4.72-1.89-9.28-2.36c-4.56-0.47-29.09,15.57-45.76,19.66c-3,0.74-5.61,1.21-7.88,1.5l-6.22,44.58l96.05-0.15
						l1.18-0.76C424.4,200.37,416.27,165.3,416.96,156.28z"/>
					<path class="st12" d="M437.28,134.24c-3.89-13.78-13.78-38.86-25.43-41.68c-6.07-1.47-14.53-3.9-21.24-5.89
						c0,2.77-0.02,5.28-0.07,7.23c-0.06,2.38-0.17,3.92-0.36,4.01c-17.91,8.95-29.46-11.64-29.46-11.64l0.15-6.33
						c-3.41,1.49-8.75,3.83-12.96,5.68c-2.51,1.33-5.63,3.17-5.87,4.27c-0.41,1.85,0.27,4.53-3.47,5.87
						c-3.73,1.33-5.6,1.87-8.27,2.4c-2.59,0.52-4.68-1.73-6.99-4.31c-2,1.59-3.72,3.74-4.88,6.71
						c-4.86,12.52-11.78,36.09-11.05,43.75c0.74,7.66,0.88,20.92,14.58,21.36c-3.69-21.91,17.82-30.72,17.82-30.72
						c13.49,5.71,61.99-4.14,67.65-4.93c5.66-0.79,6.92,0.79,8.49,3.93c0.33,0.66,0.46,1.72,0.46,2.98
						c0.85-0.02,3.42-0.09,6.68-0.17c4.48-0.11,10.26-0.25,14.68-0.34C437.62,135.61,437.46,134.88,437.28,134.24z"/>
					<path class="st12" d="M390.64,67.34c-3.74,4.45-9.09,9.65-13.72,9.65c-6.25,0-12.48-4.91-15.69-11.82l-0.36,14.77l-0.15,6.33
						c0,0,11.55,20.59,29.46,11.64c0.19-0.09,0.3-1.63,0.36-4.01c0.05-1.95,0.07-4.46,0.07-7.23c0-0.1,0-0.2,0-0.3
						C390.61,79.99,390.55,72.38,390.64,67.34z"/>
					<path class="st12" d="M415.94,133.95c-1.57-3.14-2.83-4.72-8.49-3.93c-5.66,0.79-54.17,10.64-67.65,4.93
						c0,0-21.51,8.81-17.82,30.72c0,0,3.24,2.56,13.59,1.23c2.27-0.29,4.88-0.76,7.88-1.5c16.67-4.09,41.2-20.13,45.76-19.66
						c4.56,0.47,4.87,3.3,9.28,2.36c4.4-0.94,8.96-4.56,9.12-2.36c0.16,2.2-2.99,2.67-1.73,3.62c1.26,0.94,4.25,3.77,6.6,1.73
						c0.37-0.32,0.75-0.91,1.12-1.65c1.48-2.97,2.8-8.7,2.8-12.51C416.4,135.67,416.27,134.61,415.94,133.95z"/>
					<path class="st12" d="M432.03,152.53c-0.02-0.33-0.12-0.75-0.28-1.23c-3.75,0.72-7.32-0.22-7.32-0.22s-1.42,2.2-4.87,3.77
						c-0.8,0.37-1.63,0.14-2.44-0.45c-0.05,0.59-0.1,1.21-0.15,1.86c-0.69,9.02,7.43,44.09,9.6,54.29
						C426.57,210.57,432.49,160.84,432.03,152.53z"/>
					<path class="st12" d="M513.85,172.99c0,0,2-2.31,6-12.76c4-10.46-0.31-47.21-3.38-56.44c-3.08-9.23-7.84-10.15-13.69-11.07
						c-2.86-0.45-11.04-3.33-19.6-6.35c2.03,3.34,4.38,5.12,4.38,5.12c-21.07,15.07-32.6,3.08-35.37-1.69
						c-1.83-3.15-0.97-6.02-0.18-7.61c-0.75-1.07-1.43-2.17-2.03-3.25c-9.36,0.84-21.23,3.29-28.55,5.17
						c-8.42,2.16-21.98,2.26-30.81,2.27c0,0.1,0,0.2,0,0.3c6.72,1.99,15.18,4.42,21.24,5.89c11.66,2.83,21.55,27.91,25.43,41.68
						c0.18,0.64,0.34,1.37,0.47,2.18c3.04-0.07,5.45-0.11,6.33-0.11c3.3,0,5.94,1.88,5.82,2.36c-1.42,5.82-3.46,8.18-3.46,8.18
						l-6.18-1.87l-0.58-0.18l-1.17,1.79l-1.19,1.82c-1.57,1.68-3.6,2.51-5.57,2.89c0.16,0.48,0.26,0.9,0.28,1.23
						c0.46,8.3-1.69,40.29-1.38,46.91c0.13,2.77,0.3,4.43,3.45,6.26c1.64,0.95,4.11,1.96,7.8,3.18c6.16,2.05,15.74,4.72,30.73,8.86
						c41.22,11.38,59.21-13.69,59.21-13.69L513.85,172.99z"/>
					<path class="st12" d="M444.08,136.31c-0.88,0-3.28,0.04-6.33,0.11c-4.42,0.1-10.19,0.23-14.68,0.34
						c-3.26,0.08-5.83,0.15-6.68,0.17c0,3.81-1.32,9.54-2.8,12.51c0.93,2.04,2.19,4.01,3.52,4.98c0.8,0.58,1.63,0.81,2.44,0.45
						c3.46-1.57,4.87-3.77,4.87-3.77s3.58,0.93,7.32,0.22c1.97-0.38,4-1.21,5.57-2.89l1.19-1.82l1.17-1.79l0.58,0.18l6.18,1.87
						c0,0,2.04-2.36,3.46-8.18C450.02,138.19,447.39,136.31,444.08,136.31z"/>
					<path class="st12" d="M344.97,84.56c0,0-13.33-0.8-17.06,2.13c-3.73,2.93-7.2,4.27-4.8,6.93c0.07,0.08,0.14,0.15,0.2,0.23
						c2.32,2.57,4.4,4.82,6.99,4.31c2.67-0.53,4.53-1.07,8.27-2.4c3.73-1.33,3.06-4.01,3.47-5.87c0.24-1.1,3.36-2.94,5.87-4.27
						c1.74-0.92,3.19-1.6,3.19-1.6S348.17,84.56,344.97,84.56z"/>
				</g>
				<path class="st10" d="M361.24,87.35c0,0-6.11-6.18-3.82-6.18c1.18,0,3.45-1.23,3.45-1.23L361.24,87.35z"/>
				<path class="st10" d="M390.18,97.91c2.67-2.18,5.47-5.27,5.17-9.82l-4.74-1.41L390.18,97.91z"/>
				<path class="st10" d="M483.17,86.36c0.45-0.76,8.34,3.05,8.34,3.05l-4.07,2.91C487.43,92.32,482.63,87.28,483.17,86.36z"/>
				<path class="st12" d="M495.8,110.62c0,0-0.78,12.45-0.89,19.12c-0.11,6.67,1.89,15.01-1.22,14.9s-28.79-1.56-39.02-8.12
					l-3.54-1.54c-0.39-0.17-0.83,0.1-0.86,0.52l-0.61,4.25"/>
				<path class="st12" d="M513.85,172.99c-15.97,19.9-41.17,4.22-51.51,0.77s-25.68-12.56-25.68-12.56
					c5.45-1.56,11.72-17.65,11.72-17.65"/>
				<path class="st10" d="M443.54,145.75c0,0-10.45,15.68-6.89,15.45s9.79-14.35,9.79-14.35L443.54,145.75z"/>
				<path class="st10" d="M450.62,134.63c0,0-0.09-0.95-2.84,1.3c-1.87,1.53,0.81,1.24,0.81,1.24l0.55,0.17L450.62,134.63z"/>
				<path class="st12" d="M424.43,151.09c0,0,0.32-3.18-1.28-3.53c-1.59-0.35-1.59-0.35-1.59-0.35l7.78,0.53"/>
				<path class="st12" d="M432.17,103.17c0,0-0.35,10.96,0.35,16.8"/>
				<path class="st12" d="M339.79,134.95c-0.11-1.89-3.65-13.56-2.94-23.28"/>
				<path class="st12" d="M383.54,61.44c0,0-2.65,6.54-13.26,2.3"/>
				<path class="st12" d="M458.7,78.59c0,0,7.6,1.06,9.9-6.19"/>
				<path class="st12" d="M464.53,66.39c0,0-0.71,3.71-4.77,1.77c0,0-1.41-1.77,0.53-3.54"/>
				<path class="st12" d="M379.47,54.36c0,0-1.06,2.3-3.36,2.3s-2.3-2.3-2.3-2.3"/>
				<circle class="st10" cx="369.26" cy="43.9" r="1.39"/>
				<circle class="st10" cx="386.6" cy="46.45" r="1.39"/>
				<circle class="st10" cx="454.34" cy="57.08" r="1.39"/>
				<circle class="st10" cx="472.61" cy="56.62" r="1.39"/>
			</g>
			<path class="st10" d="M517.15,178.3c0,0-9.33,20.41-63.86-7.67c0,0,4.89,1.52,12.84,4.54c10.38,3.93,20.95,10.26,35.35,6.98
				l12.83-8.55L517.15,178.3z"/>
			<path class="st10" d="M389.2,145.75c0,0-53.83,28.45-55.02,30.23l1.38-9.07c0,0,15.03-3.19,21.16-6.35
				C362.86,157.38,384.9,144.19,389.2,145.75z"/>
		</g>
	</g>
	<circle class="st3" cx="1220.98" cy="90.54" r="22.59"/>
	<g class="st0">
		<g>
			<g>
				<path class="st13" d="M925.97,50.63c3.97-5.39,2.24-16.27-0.51-18.41s-3.56-1.42-3.97-4.68c-0.41-3.25-2.44-8.34-2.44-8.34
					c-1.32-4.48-13.83-4.88-18.82-4.17s-3.56-0.2-4.98-2.85c-1.42-2.64-5.49,1.12-11.49,0.81c-6-0.31-9.36,6.1-9.76,11.7
					c-0.41,5.59-4.98,3.97-9.15,11.29c-4.17,7.32-0.61,6.71,3.46,14.04c4.07,7.32,10.58,6.71,13.73,6.41
					c1.28-0.12,1.85-0.41,2.04-1.04c0.28-0.92-0.26-2.6-0.62-5.67c-0.04-0.37-0.06-0.79-0.07-1.21c-0.01-0.84,0.05-1.78,0.16-2.76
					c-2.37-1.9-1.44-6.11-0.6-8.84c0.84-2.7,2.78-1.05,3.1-0.76c0.02-0.04,0.04-0.09,0.06-0.13c0.76-1.65,1.58-2.78,2.33-2.87
					c2.44-0.31,3.56-1.42,4.58-0.61c1.02,0.81,3.15-0.51,4.27-1.02c1.12-0.51,1.42,1.22,2.85,1.83c0.91,0.39,1.74,0.32,2.21,0.22
					c0.27-0.06,0.43-0.12,0.43-0.12c0.61,2.03,4.58,2.66,5.27,2.66l-1.02,1.98c1.53,0.2,1.95-1.79,1.95-1.79
					c1.93,3.76,3.36,4.17,4.58,6.2c1.22,2.03-0.81,6.2-0.81,6.2l-4.44,5.57c2.44,2.24,2.56-1.61,0.52,0.33
					c-1.61,1.53-4.55,5.32-6.3,6.3c0.78,1.2,1.7,2.5,2.8,3.88c4.88,6.1,10.68,3.97,11.09,2.85c0.41-1.12,1.12,1.02,7.22-2.64
					c6.1-3.66,3.97-10.78,2.64-12.51C924.96,50.73,925.97,50.63,925.97,50.63z"/>
				<path class="st14" d="M914.38,48.9l-1.63-0.2c0,0,2.03-4.17,0.81-6.2c-1.22-2.03-2.64-2.44-4.58-6.2c0,0-0.43,1.99-1.95,1.79
					l1.02-1.98c-0.68,0-4.66-0.62-5.27-2.66c0,0-0.16,0.07-0.43,0.12c-0.48,0.1-1.3,0.17-2.21-0.22c-1.42-0.61-1.73-2.34-2.85-1.83
					c-1.12,0.51-3.25,1.83-4.27,1.02c-1.02-0.81-2.14,0.31-4.58,0.61c-0.75,0.09-1.57,1.22-2.33,2.87
					c-0.02,0.04-0.04,0.09-0.06,0.13c-0.32-0.3-2.26-1.94-3.1,0.76c-0.85,2.73-1.78,6.94,0.6,8.84c-0.11,0.98-0.17,1.92-0.16,2.76
					c0.01,0.43,0.03,0.84,0.07,1.21c0.36,3.08,0.9,4.75,0.62,5.67c0.16,0.38,0.18,0.77-0.21,1.04c-0.85,0.6-8.39,4.18-10.82,5.33
					c-0.47,0.22-0.77,0.37-0.77,0.37s9.15,3.05,11.9,4.88c2.75,1.83,9.26,7.43,13.63,2.44l0.27-0.55l3.7-7.58
					c0,0,0.29-0.16,0.76-0.42c1.75-0.97,4.7-4.77,6.3-6.3C910.87,52.66,916.82,51.14,914.38,48.9z"/>
				<path class="st14" d="M942.05,93.99c0,0,10.83-10.65,9.82-11.38c-1.01-0.73-11.38,6.42-11.66,6.42c-0.28,0,0.55-13.4-0.73-13.68
					c-1.28-0.28-6.15,19-6.15,19l-1.93,0.46c-4.9,1.69-8.84,5.76-11.41,9.15c0.14,1.68,0.79,8.65,2.27,9.73
					c1.04,0.76,3.73-0.19,5.63-1.02c0.08-0.04,0.16-0.05,0.24-0.07c3.61-1.94,12.2-6.72,13.28-8.89c1.38-2.75,4.04-1.65,4.96-4.31
					C947.28,96.74,942.05,93.99,942.05,93.99z"/>
				<path class="st15" d="M928.13,112.61c-0.08,0.02-0.16,0.03-0.24,0.07c-1.89,0.83-4.58,1.78-5.63,1.02
					c-1.48-1.07-2.13-8.05-2.27-9.73c-0.02-0.23-0.03-0.37-0.03-0.37s-2.83,2.53-5.59,4.96c0.55,6.42,1.39,12.79,2.69,16.76
					c0.03,0.09,0.06,0.19,0.09,0.29c3.95-2.21,8.78-4.98,10.16-6.1c1.42-1.15,2.07-3.59,2.36-5.44
					C929.81,113.15,928.98,112.42,928.13,112.61z"/>
				<path class="st14" d="M841.28,50.67c-1.1-0.09-3.4,7.98-3.4,7.98c0.92-5.14-2.48-19.46-3.76-19.55
					c-1.28-0.09,1.1,17.71,0.83,17.9c-0.28,0.18-4.41-14.87-6.42-16.43c-2.02-1.56-0.37,3.76-0.37,3.76s3.03,9.36,3.3,10.74
					c0.28,1.38-0.46,0.83-0.46,0.83s-6.79-11.93-8.44-11.01c-1.65,0.92,4.96,10.83,4.77,11.75c-0.18,0.92-6.61-5.51-8.17-5.51
					c-1.56,0,3.3,6.15,4.5,7.8c1.19,1.65,1.47,3.12,1.56,5.32c0.03,0.71,1.71,2.82,3.26,4.56c0.23,0.26,0.46,0.52,0.68,0.76
					c0.5,0.55,0.92,1.13,1.28,1.71c2.83,0.23,6.52,0.08,9.5-1.59c0.09-0.35,0.16-0.76,0.23-1.18c0.56-3.58,0.37-9.13,0.37-9.13
					S842.38,50.76,841.28,50.67z"/>
				<path class="st15" d="M917.15,125.6c-0.03-0.09-0.06-0.19-0.09-0.29c-1.3-3.97-2.14-10.34-2.69-16.76
					c-0.67-7.92-0.9-15.92-0.98-19.64c-0.15-6.73-5.96-13.61-8.11-16.82c-1.51-2.27-5.08-3.01-7.21-3.2l-0.27,0.55
					c-4.37,4.98-10.88-0.61-13.63-2.44c-2.75-1.83-11.9-4.88-11.9-4.88s0.3-0.14,0.77-0.37c-15.77-2.33-16.9,1.39-22.21,4.98
					c-5.66,3.82-9.48,18.81-9.48,18.81l-0.1-11.02l-0.05-5.66c0,0-0.38-0.15-1.03-0.36c-0.07,0.42-0.14,0.83-0.23,1.18
					c-2.98,1.66-6.67,1.82-9.5,1.59c-0.36-0.58-0.78-1.16-1.28-1.71c-0.22-0.24-0.45-0.5-0.68-0.76c-1.48,0.85-2.42,1.74-2.42,1.74
					s1.27,5,1.22,10.24c-0.01,1.55-0.14,3.13-0.45,4.6c-1.38,6.42-2.29,15.91,3.06,25.39c5.35,9.48,12.69,7.04,12.69,7.04
					s2.14,18.97,8.41,40.07c5.8,19.51,8.46,22.68,12.21,23.53c0.31,0.07,0.62,0.13,0.94,0.17c4.28,0.61,7.34-17.13,29.52-17.74
					c17.86-0.49,22.62,4.07,25.08,5.95c0.59,0.45,1.06,0.75,1.53,0.78c2.45,0.15,1.84-7.04,2.14-14.53
					C922.71,148.64,920.02,134.49,917.15,125.6z"/>
				<path class="st8" d="M918.74,169.8c-2.46-1.88-7.22-6.44-25.08-5.95c-22.18,0.61-25.24,18.35-29.52,17.74
					c-0.32-0.05-0.64-0.1-0.94-0.17c3.73,8.53,12.39,27.99,19.37,41.13c3.44,6.47,6.47,11.42,8.3,12.76c0,0-4.58,3.75-10.84,9.09
					c-13.27,11.32-34.1,29.8-35.17,35.06c-0.02,0.08-0.04,0.16-0.05,0.23c0,0.04-0.03,0.09-0.03,0.13c0,0,2.27,2.68,5.05,5.07
					c2.09,1.79,4.46,3.4,6.39,3.61c0.14,0.02,0.28,0.05,0.42,0.05c1.81,0,10.23-4.99,20.27-11.64c7.24-4.79,15.31-10.44,22.37-15.71
					c7.34-5.48,13.59-10.55,16.64-13.81c2.91-3.1,0.67-26.4-3.8-41.61C912.12,205.79,917.68,182.25,918.74,169.8z"/>
			</g>
			<path class="st16" d="M835.08,70.36c0,0-2.63,0.39-4.38-0.72"/>
		</g>
		<g>
			<g>
				<g>
					<path class="st13" d="M929.4,50.27c3.97-5.39,2.24-16.27-0.51-18.41c-2.75-2.14-3.56-1.42-3.97-4.68
						c-0.41-3.25-2.44-8.34-2.44-8.34c-1.32-4.48-13.83-4.88-18.82-4.17c-4.98,0.71-3.56-0.2-4.98-2.85
						c-1.42-2.64-5.49,1.12-11.49,0.81c-6-0.31-9.36,6.1-9.76,11.7c-0.41,5.59-4.98,3.97-9.15,11.29
						c-4.17,7.32-0.61,6.71,3.46,14.04c4.07,7.32,10.58,6.71,13.73,6.41c1.28-0.12,1.85-0.41,2.04-1.04
						c0.28-0.92-0.26-2.6-0.62-5.67c-0.04-0.37-0.06-0.79-0.07-1.21c-0.01-0.84,0.05-1.78,0.16-2.76c-2.37-1.9-1.44-6.11-0.6-8.84
						c0.84-2.7,2.78-1.05,3.1-0.76c0.02-0.04,0.04-0.09,0.06-0.13c0.76-1.65,1.58-2.78,2.33-2.87c2.44-0.31,3.56-1.42,4.58-0.61
						c1.02,0.81,3.15-0.51,4.27-1.02c1.12-0.51,1.42,1.22,2.85,1.83c0.91,0.39,1.74,0.32,2.21,0.22c0.27-0.06,0.43-0.12,0.43-0.12
						c0.61,2.03,4.58,2.66,5.27,2.66l-1.02,1.98c1.53,0.2,1.95-1.79,1.95-1.79c1.93,3.76,3.36,4.17,4.58,6.2
						c1.22,2.03-0.81,6.2-0.81,6.2l-4.44,5.57c2.44,2.24,2.56-1.61,0.52,0.33c-1.61,1.53-4.55,5.32-6.3,6.3
						c0.78,1.2,1.7,2.5,2.8,3.88c4.88,6.1,10.68,3.97,11.09,2.85c0.41-1.12,1.12,1.02,7.22-2.64c6.1-3.66,3.97-10.78,2.64-12.51
						C928.38,50.37,929.4,50.27,929.4,50.27z"/>
					<path class="st16" d="M917.8,48.54l-1.63-0.2c0,0,2.03-4.17,0.81-6.2c-1.22-2.03-2.64-2.44-4.58-6.2c0,0-0.43,1.99-1.95,1.79
						l1.02-1.98c-0.68,0-4.66-0.62-5.27-2.66c0,0-0.16,0.07-0.43,0.12c-0.48,0.1-1.3,0.17-2.21-0.22c-1.42-0.61-1.73-2.34-2.85-1.83
						c-1.12,0.51-3.25,1.83-4.27,1.02c-1.02-0.81-2.14,0.31-4.58,0.61c-0.75,0.09-1.57,1.22-2.33,2.87
						c-0.02,0.04-0.04,0.09-0.06,0.13c-0.32-0.3-2.26-1.94-3.1,0.76c-0.85,2.73-1.78,6.94,0.6,8.84c-0.11,0.98-0.17,1.92-0.16,2.76
						c0.01,0.43,0.03,0.84,0.07,1.21c0.36,3.08,0.9,4.75,0.62,5.67c0.16,0.38,0.18,0.77-0.21,1.04c-0.85,0.6-8.39,4.18-10.82,5.33
						c-0.47,0.22-0.77,0.37-0.77,0.37s9.15,3.05,11.9,4.88c2.75,1.83,9.26,7.43,13.63,2.44l0.27-0.55l3.7-7.58
						c0,0,0.29-0.16,0.76-0.42c1.75-0.97,4.7-4.77,6.3-6.3C914.29,52.3,920.24,50.78,917.8,48.54z"/>
					<path class="st16" d="M945.47,93.63c0,0,10.83-10.65,9.82-11.38c-1.01-0.73-11.38,6.42-11.66,6.42
						c-0.28,0,0.55-13.4-0.73-13.68c-1.28-0.28-6.15,19-6.15,19l-1.93,0.46c-4.9,1.69-8.84,5.76-11.41,9.15
						c0.14,1.68,0.79,8.65,2.27,9.73c1.04,0.76,3.73-0.19,5.63-1.02c0.08-0.04,0.16-0.05,0.24-0.07c3.61-1.94,12.2-6.72,13.28-8.89
						c1.38-2.75,4.04-1.65,4.96-4.31C950.7,96.38,945.47,93.63,945.47,93.63z"/>
					<path class="st16" d="M931.55,112.24c-0.08,0.02-0.16,0.03-0.24,0.07c-1.89,0.83-4.58,1.78-5.63,1.02
						c-1.48-1.07-2.13-8.05-2.27-9.73c-0.02-0.23-0.03-0.37-0.03-0.37s-2.83,2.53-5.59,4.96c0.55,6.42,1.39,12.79,2.69,16.76
						c0.03,0.09,0.06,0.19,0.09,0.29c3.95-2.21,8.78-4.98,10.16-6.1c1.42-1.15,2.07-3.59,2.36-5.44
						C933.23,112.79,932.4,112.05,931.55,112.24z"/>
					<path class="st16" d="M844.7,50.31c-1.1-0.09-3.4,7.98-3.4,7.98c0.92-5.14-2.48-19.46-3.76-19.55
						c-1.28-0.09,1.1,17.71,0.83,17.9c-0.28,0.18-4.41-14.87-6.42-16.43c-2.02-1.56-0.37,3.76-0.37,3.76s3.03,9.36,3.3,10.74
						c0.28,1.38-0.46,0.83-0.46,0.83s-6.79-11.93-8.44-11.01c-1.65,0.92,4.96,10.83,4.77,11.75c-0.18,0.92-6.61-5.51-8.17-5.51
						c-1.56,0,3.3,6.15,4.5,7.8c1.19,1.65,1.47,3.12,1.56,5.32c0.03,0.71,1.71,2.82,3.26,4.56c0.23,0.26,0.46,0.52,0.68,0.76
						c0.5,0.55,0.92,1.13,1.28,1.71c2.83,0.23,6.52,0.08,9.5-1.59c0.09-0.35,0.16-0.76,0.23-1.18c0.56-3.58,0.37-9.13,0.37-9.13
						S845.8,50.4,844.7,50.31z"/>
					<path class="st17" d="M920.57,125.24c-0.03-0.09-0.06-0.19-0.09-0.29c-1.3-3.97-2.14-10.34-2.69-16.76
						c-0.67-7.92-0.9-15.92-0.98-19.64c-0.15-6.73-5.96-13.61-8.11-16.82c-1.51-2.27-5.08-3.01-7.21-3.2l-0.27,0.55
						c-4.37,4.98-10.88-0.61-13.63-2.44c-2.75-1.83-11.9-4.88-11.9-4.88s0.3-0.14,0.77-0.37c-15.77-2.33-16.9,1.39-22.21,4.98
						c-5.66,3.82-9.48,18.81-9.48,18.81l-0.1-11.02l-0.05-5.66c0,0-0.38-0.15-1.03-0.36c-0.07,0.42-0.14,0.83-0.23,1.18
						c-2.98,1.66-6.67,1.82-9.5,1.59c-0.36-0.58-0.78-1.16-1.28-1.71c-0.22-0.24-0.45-0.5-0.68-0.76c-1.48,0.85-2.42,1.74-2.42,1.74
						s1.27,5,1.22,10.24c-0.01,1.55-0.14,3.13-0.45,4.6c-1.38,6.42-2.29,15.91,3.06,25.39c5.35,9.48,12.69,7.04,12.69,7.04
						s2.14,18.97,8.41,40.07c5.8,19.51,8.46,22.68,12.21,23.53c0.31,0.07,0.62,0.13,0.94,0.17c4.28,0.61,7.34-17.13,29.52-17.74
						c17.86-0.49,22.62,4.07,25.08,5.95c0.59,0.45,1.06,0.75,1.53,0.78c2.45,0.15,1.84-7.04,2.14-14.53
						C926.14,148.28,923.44,134.13,920.57,125.24z"/>
					<path class="st16" d="M922.16,169.44c-2.46-1.88-7.22-6.44-25.08-5.95c-22.18,0.61-25.24,18.35-29.52,17.74
						c-0.32-0.05-0.64-0.1-0.94-0.17c3.73,8.53,12.39,27.99,19.37,41.13c3.44,6.47,6.47,11.42,8.3,12.76c0,0-4.58,3.75-10.84,9.09
						c-13.27,11.32-34.1,29.8-35.17,35.06c-0.02,0.08-0.04,0.16-0.05,0.23c0,0.04-0.03,0.09-0.03,0.13c0,0,2.27,2.68,5.05,5.07
						c2.09,1.79,4.46,3.4,6.39,3.61c0.14,0.02,0.28,0.05,0.42,0.05c1.81,0,10.23-4.99,20.27-11.64
						c7.24-4.79,15.31-10.44,22.37-15.71c7.34-5.48,13.59-10.55,16.64-13.81c2.91-3.1,0.67-26.4-3.8-41.61
						C915.54,205.43,921.1,181.89,922.16,169.44z"/>
				</g>
				<path class="st16" d="M833.86,70.92c0,0-2.63,0.39-4.38-0.72"/>
				<path class="st16" d="M846,117.46c0,0,13.86-0.77,17.1-24.49"/>
				<path class="st16" d="M844.77,85.19c0.44,0.29,5.06,2.91,5.21,14.85"/>
				<path class="st16" d="M949.32,97.24c0,0-2.65-0.29-6.93,0.59c-4.27,0.88-7.52,6.04-7.52,6.04"/>
				<path class="st16" d="M936.75,93.99c0.62-0.59,6.79-1.18,8.72-0.37"/>
				<path class="st16" d="M915.54,205.43c-0.27-1.48-8.52-20.5-8.52-20.5"/>
				<path class="st16" d="M887.5,55.03c0,0,6.53,16.11,17.69,5.92"/>
				<path class="st17" d="M894.61,54.12c0,0,4.44,5.58,8.65,1.67c0,0-3.25,5.36-7.21,1.08C894.13,54.79,894.61,54.12,894.61,54.12z"
					/>
				<path class="st16" d="M898.16,51.9c0,0,2.66,3.43,4.59,0.48c0,0-0.83-4.29,0.66-5.53"/>
				<circle class="st10" cx="897.97" cy="41.38" r="1.16"/>
				<circle class="st10" cx="910.57" cy="46.27" r="1.16"/>
			</g>
			<path class="st10" d="M847.92,127.85l-1.92-10.4c0,0,12.25-1.67,14.7-15.88C860.7,101.58,859.67,119.98,847.92,127.85z"/>
			<path class="st10" d="M922.16,169.44c0.97,0.69-26.65-16.81-53.66,11.59c-2.05,2.16-1.88,0.04-0.94,0.21
				c0,0,7.13-11.11,14.05-14.11C888.54,164.12,906.84,158.6,922.16,169.44z"/>
			<polygon class="st10" points="909.02,188.33 916.8,201.29 915.54,205.43 			"/>
		</g>
	</g>
	<circle class="st3" cx="216.23" cy="146.26" r="43.97"/>
	<path class="st3" d="M1181.3,232.66l49.54-35.3c1.34-0.96,1.66-2.82,0.7-4.17l-35.3-49.54c-0.96-1.34-2.82-1.66-4.17-0.7
		l-49.54,35.3c-1.34,0.96-1.66,2.82-0.7,4.17l35.3,49.54C1178.1,233.3,1179.96,233.62,1181.3,232.66z"/>
	<path class="st3" d="M54.17,185.84l25.66-18.29c0.7-0.5,0.86-1.46,0.36-2.16l-18.29-25.66c-0.5-0.7-1.46-0.86-2.16-0.36
		l-25.66,18.29c-0.7,0.5-0.86,1.46-0.36,2.16l18.29,25.66C52.51,186.17,53.47,186.33,54.17,185.84z"/>
	<path class="st3" d="M963.97,122.44l49.45,5.51c1.34,0.15,2.55-0.82,2.7-2.16l5.51-49.45c0.15-1.34-0.82-2.55-2.16-2.7l-49.45-5.51
		c-1.34-0.15-2.55,0.82-2.7,2.16l-5.51,49.45C961.67,121.08,962.63,122.29,963.97,122.44z"/>
	<path class="st3" d="M163.72,65.53l22.4,26.29c0.61,0.71,1.68,0.8,2.39,0.19l26.29-22.4c0.71-0.61,0.8-1.68,0.19-2.39l-22.4-26.29
		c-0.61-0.71-1.68-0.8-2.39-0.19l-26.29,22.4C163.19,63.75,163.11,64.82,163.72,65.53z"/>
	<path class="st3" d="M1114.16,8.02l10.92,64.48c0.13,0.79,1.07,1.13,1.68,0.63l50.39-41.7c0.61-0.51,0.45-1.49-0.3-1.77
		l-61.3-22.79C1114.8,6.6,1114.03,7.24,1114.16,8.02z"/>
	<path class="st3" d="M560.9-2.53l10.92,64.48c0.13,0.79,1.07,1.13,1.68,0.63l50.39-41.7c0.61-0.51,0.45-1.49-0.3-1.77l-61.3-22.79
		C561.54-3.95,560.77-3.31,560.9-2.53z"/>
	<path class="st3" d="M44.5,103.56l-8.07-64.9c-0.1-0.79-1.02-1.18-1.65-0.7L-17.4,77.4c-0.64,0.48-0.51,1.47,0.22,1.78l60.24,25.46
		C43.8,104.95,44.59,104.35,44.5,103.56z"/>
	<g class="st0">
		<g>
			<path class="st18" d="M147.4,32.37l0.62,1.26C147.64,33.1,147.39,32.65,147.4,32.37z"/>
			<path class="st7" d="M171.55,45.66c-2.91-3.57-4.59-0.82-4.59-0.82s-8.72-1.91-11.19-6l2.78,5.01c0,0-8.21-6.99-10.53-10.21
				l-0.62-1.26c0,0-5.28-0.53,0.63-6.95c5.91-6.42,22.01,1.56,22.01,1.56s-3.1-5.94,8.88-7.85c11.98-1.92,11.46,15.26,7.08,17.04
				c-4.38,1.78-7.58,0.37-7.58,0.37s2.16,3.16,3.37,15.19c0.95,9.45-6.41,10.33-9.62,10.27l-3.1-8.77
				C169.07,53.23,174.46,49.23,171.55,45.66z"/>
			<path class="st6" d="M142.17,53.02l3.11-6.18c-0.58-4.24,2.13-14.47,2.13-14.47c-0.01,0.28,0.23,0.72,0.62,1.26
				c2.32,3.22,10.53,10.21,10.53,10.21l-2.78-5.01c2.47,4.08,11.19,6,11.19,6s1.68-2.75,4.59,0.82c2.91,3.57-2.48,7.58-2.48,7.58
				l3.1,8.77l0.5,1.41c-0.06,0.01-0.11,0-0.17,0c0,0-4.97,3.61-11.3,5.85l-6.77-2.73c-7.05,1.04-7.79-11.03-7.79-11.03L142.17,53.02
				z"/>
			<path class="st19" d="M50.35,78.72l13.11,5.74l20.43-30.41c0,0-4.3-10.11-1.95-13.35c0,0,2.31-1.06,2.96,4.34
				s1.27,2.29,1.27,2.29s0.17-30.3,1.29-29.96c0.53,0.16,1.03,1.8,1.41,3.48c-1.12,3.46-1.27,32.27-0.2,33.84
				c0.87,1.27,1.38,0.86,1.58,0.79c-2.8,8.65-15.29,46.17-22.6,48.68c0,0-9.32-2.9-16.88-5.5c-2.01-5.46-3.64-9.28-3.75-9.84
				C46.63,86.86,49.06,81.41,50.35,78.72z"/>
			<path class="st6" d="M88.89,20.85c0.05-0.14,0.09-0.26,0.14-0.31c1.25-1.34,1.29,8.3,1.86,9.25c0.57,0.94,1.18-5.29,2.71-6.28
				c1.53-0.99,1.67,10,1.93,11.71c0.26,1.71,1.04-0.95,2.15-0.92c1.12,0.03-1.04,11.71-0.65,16.5c0.27,3.3,1.9,7.64,2.89,10.02
				c-1.59,1.44-3.95,3.93-5.64,6.07c-1.4-3.96-3.89-11.08-3.92-11.35c-0.01-0.08-0.04-0.09-0.1-0.07c-0.2,0.08-0.71,0.49-1.58-0.79
				C87.61,53.12,87.76,24.32,88.89,20.85z"/>
			<path class="st19" d="M8.92,56.11c-0.52-2.78-1.95-8.01-2.8-11.07c0.73-0.31,1.14-1.27,1.37-1.62c0.5-0.79,3.02,0.13,4.02-1.45
				s1.84-2.78,1.84-2.78s3.63,0.65,4.05-1.08s2.53-1.33,3.53-2.92c1-1.59,4.35-2.04,4.18-4.1c-0.17-2.06,1.71,0.24,3.77-2.19
				s1.78-1.27,3.07-1.56s1.73,0.43,3.33-0.64c0.31-0.2,0.54-0.41,0.75-0.61l6.97,20.52c0,0-2.44,2.16-3.54,2.03
				c-1.1-0.13,2.85,8.27-1.15,10.12c-1.88,0.87-4.08,1.81-5.9,2.57c-2.04,0.85-3.58,1.46-3.58,1.46l-0.57,0.15l0.33,3.41l0.52,5.35
				c0,0-4.15,7.96-9.76,0.57c-3.85-5.08-9.08-6.86-11.98-7.47C8.34,61.92,9.36,58.43,8.92,56.11z"/>
			<path class="st6" d="M4.71,166.64c1.65,3.08,3.13,5.82,4.21,7.86c-1.04,0.13-1.97,0.24-2.76,0.3c-1.37,0.12-2.3,0.12-2.46-0.02
				c-0.21-0.18-0.88-5.67-1.73-13.3C2.9,163.26,3.83,164.99,4.71,166.64z"/>
			<path class="st6" d="M7.33,64.81c0,0,0.84,0.04,2.16,0.32c2.9,0.62,8.13,2.4,11.98,7.47c5.61,7.39,9.76-0.57,9.76-0.57
				l-0.52-5.35l-0.33-3.41l0.57-0.15c0,0,1.54-0.61,3.58-1.46C39.21,64.45,51.44,72,53.31,75.71c0,0-0.31,0.61-0.76,1.54
				c-1.29,2.69-3.72,8.14-3.31,10.12c0.12,0.56,1.74,4.38,3.75,9.84c4.19,11.35,10.09,29.8,7.74,40.88
				c-3.47,16.4-4.07,38.68-4.07,38.68s-0.19-0.04-0.52-0.1c-3.69-0.69-26.29-4.81-31.54-2.98c-0.5,0.17-1.06,0.34-1.66,0.51
				c-1.15-3.34-2.42-7.16-3.78-10.84c-0.44-1.19-0.89-2.37-1.34-3.51c-4.31-10.83-9.61-16.49-9.67-17.31
				c-0.23-2.86,2.42-10.16,3.83-14.69c2.15-6.92,2.76-14.39,2.76-14.39l-20.78-0.94l-1.39-11.87
				C-7.43,100.65-11.87,80.74,7.33,64.81z"/>
			<path class="st19" d="M-4.43,110.07l20.78,0.94c0,0-0.61,7.47-2.76,14.39c-1.41,4.53-4.06,11.83-3.83,14.69
				c0.07,0.81,5.36,6.48,9.67,17.31c0.45,1.14,0.9,2.32,1.34,3.51c1.36,3.68,2.63,7.5,3.78,10.84c1.54,4.51,2.85,8.14,3.76,9.34
				c3.9,5.13,13.01,12.68,13.03,15.73c0.03,3.05-8.06-2.62-8.06-2.62s6.12,16.5,3.92,16.24c-2.2-0.26-6.05-10.19-6.05-10.19
				s3.27,10.85,1.05,10.37c-2.22-0.48-5.94-11.51-5.94-11.51s2.58,13.08-1.28,11.22l-1.94-7.91c0,0,0.79,9.74-2.22,7.59
				c-3.01-2.15-5.97-28.06-8.08-32.69c-0.28-0.62-0.82-1.67-1.53-3.01c-1.08-2.04-2.56-4.78-4.21-7.86
				c-0.88-1.64-1.81-3.38-2.75-5.15c-4.79-9.05-9.81-19.02-10.06-22.14C-6.24,133.53-4.43,110.07-4.43,110.07z"/>
			<path class="st8" d="M93.35,64.91c1.68-2.14,4.05-4.63,5.64-6.07c0.67-0.61,1.21-1.04,1.48-1.15c0,0,13.77,20.3,24.27,20.65
				c10.5,0.34,19.86-4.46,28.55-5.87c1.88-0.31,3.73-0.83,5.48-1.45c6.33-2.24,11.3-5.85,11.3-5.85c0.06-0.01,0.11,0,0.17,0
				c10.91-1.01,11.88,31.46,11.33,45.24c-0.55,13.84,14.52,47.37,8.54,61.65c-0.32,0.76-0.78,1.45-1.36,2.09
				c-9.02,9.99-47.62,5.38-57.14,0.48c-1.29-0.66-2.05-1.33-2.12-1.97c-0.69-5.65,7.58-77.22,7.58-77.22s-18.04,0.5-22.83,0.17
				c-4.78-0.33-22.74-25.29-22.89-27.18C91.29,67.79,92.15,66.44,93.35,64.91z"/>
			<path class="st19" d="M118.74,312.92c3.38-13.17,11.6-46.63,10.35-55.57c-1.57-11.2,1.5-22.78,2.34-28.85
				c0.61-4.37,0.06-36.01-0.3-53.33c9.52,4.9,48.13,9.51,57.14-0.48c0.92,7.64,1.92,21.16,2.49,45.7c0.17,7.5,2.63,23.03,2.61,32.45
				c0,2.67,4.96,39.91,7.48,58.65c-2.42,0.54-5.46,0.87-8.57,0.31c-2.32-0.42-4.6-1.72-6.82-3.11c0.27-0.5,0.4-0.93,0.32-1.25
				c-0.98-3.92-27.01-111.8-27.01-111.8s-12.23,54.98-11.99,66.29c0.24,11.31-5.78,35.79-12.82,47.69c0,0,0.41,5.14-0.43,7.58
				c-0.21,0.59-0.48,1.03-0.86,1.19c-1.51,0.64-10.02,0.22-13.67,0.01c-0.86-0.05-1.46-0.87-1.24-1.7
				C118,315.77,118.33,314.49,118.74,312.92z"/>
			<path class="st8" d="M13.3,199.15c-0.02-2.07-3.45-14.11-5.57-23.96c0.79-0.07,1.73-0.17,2.76-0.3c0.71,1.34,1.25,2.39,1.53,3.01
				c2.12,4.62,5.08,30.53,8.08,32.69c3.01,2.15,2.22-7.59,2.22-7.59l1.94,7.91c3.85,1.87,1.28-11.22,1.28-11.22
				s3.72,11.03,5.94,11.51c2.22,0.48-1.05-10.37-1.05-10.37s3.85,9.93,6.05,10.19c2.2,0.26-3.92-16.24-3.92-16.24
				s8.08,5.67,8.06,2.62c-0.03-3.05-9.13-10.59-13.03-15.73c-0.91-1.2-2.22-4.83-3.76-9.34c0.6-0.17,1.16-0.34,1.66-0.51
				c5.25-1.82,27.85,2.29,31.54,2.98c0.83,4.75,1.61,10.71,1.31,15.29c-0.58,8.98-1.09,43.23-2.11,46.8
				c-1.02,3.57,4.66,3.76,3.27,16.3c-1.39,12.53-5.65,35.32,3.13,63.16c0,0,1.68,1.79-1.68,2.65c-0.22,0.06-0.45,0.11-0.71,0.15
				c-4.3,0.78-17.45,2.5-17.45,2.5s-11.72,1.2-17.51-0.09c-1.75-0.39-2.96-1-3.14-1.95c-0.76-4.08,5.99-79.8,5.45-86.51
				C27.59,233.08,13.33,202.2,13.3,199.15z"/>
			<path class="st20" d="M30.25,60.86c0,0-1.29,0.45-2.59,0.89"/>
		</g>
	</g>
	<g class="st0">
		<g>
			<path class="st18" d="M146.02,33.35l0.62,1.26C146.25,34.08,146.01,33.63,146.02,33.35z"/>
			<path class="st21" d="M170.17,46.64c-2.91-3.57-4.59-0.82-4.59-0.82s-8.72-1.91-11.19-6l2.78,5.01c0,0-8.21-6.99-10.53-10.21
				l-0.62-1.26c0,0-5.28-0.53,0.63-6.95c5.91-6.42,22.01,1.56,22.01,1.56s-3.1-5.94,8.88-7.85c11.98-1.92,11.46,15.26,7.08,17.04
				c-4.38,1.78-7.58,0.37-7.58,0.37s2.16,3.16,3.37,15.19c0.95,9.45-6.41,10.33-9.62,10.27l-3.1-8.77
				C167.69,54.21,173.08,50.21,170.17,46.64z"/>
			<path class="st21" d="M140.78,54l3.11-6.18c-0.58-4.24,2.13-14.47,2.13-14.47c-0.01,0.28,0.23,0.72,0.62,1.26
				c2.32,3.22,10.53,10.21,10.53,10.21l-2.78-5.01c2.47,4.08,11.19,6,11.19,6s1.68-2.75,4.59,0.82c2.91,3.57-2.48,7.58-2.48,7.58
				l3.1,8.77l0.5,1.41c-0.06,0.01-0.11,0-0.17,0c0,0-4.97,3.61-11.3,5.85l-6.77-2.73c-7.05,1.04-7.79-11.03-7.79-11.03L140.78,54z"
				/>
			<path class="st21" d="M50.47,75.96l13.11,5.74L84.01,51.3c0,0-4.3-10.11-1.95-13.35c0,0,2.31-1.06,2.96,4.34s1.27,2.29,1.27,2.29
				s0.17-30.3,1.29-29.96c0.53,0.16,1.03,1.8,1.41,3.48c-1.12,3.46-1.27,32.27-0.2,33.84c0.87,1.27,1.38,0.86,1.58,0.79
				c-2.8,8.65-15.29,46.16-22.6,48.68c0,0-9.32-2.9-16.88-5.5c-2.01-5.46-3.64-9.28-3.75-9.84C46.75,84.1,49.18,78.65,50.47,75.96z"
				/>
			<path class="st21" d="M89.01,18.1c0.05-0.14,0.09-0.26,0.14-0.31c1.25-1.34,1.29,8.3,1.86,9.25c0.57,0.94,1.18-5.29,2.71-6.28
				c1.53-0.99,1.67,10,1.93,11.71c0.26,1.71,1.04-0.95,2.15-0.92c1.12,0.03-1.04,11.71-0.65,16.5c0.27,3.3,1.9,7.64,2.89,10.02
				c-1.59,1.44-3.95,3.93-5.64,6.07c-1.4-3.96-3.89-11.08-3.92-11.35c-0.01-0.08-0.04-0.09-0.1-0.07c-0.2,0.08-0.71,0.49-1.58-0.79
				C87.74,50.37,87.89,21.56,89.01,18.1z"/>
			<path class="st20" d="M8.93,55.17c-0.52-2.78-1.95-8.01-2.8-11.07c0.73-0.31,1.14-1.27,1.37-1.62c0.5-0.79,3.02,0.13,4.02-1.45
				s1.84-2.78,1.84-2.78s3.63,0.65,4.05-1.08c0.43-1.73,2.53-1.33,3.53-2.92s4.35-2.04,4.18-4.1c-0.17-2.06,1.71,0.24,3.77-2.19
				s1.78-1.27,3.07-1.56c1.29-0.29,1.73,0.43,3.33-0.64c0.31-0.2,0.54-0.41,0.75-0.61l6.97,20.52c0,0-2.44,2.16-3.54,2.03
				c-1.1-0.13,2.85,8.27-1.15,10.12c-1.88,0.87-4.08,1.81-5.9,2.57c-2.04,0.85-3.58,1.46-3.58,1.46l-0.57,0.15l0.33,3.41l0.52,5.35
				c0,0-4.15,7.96-9.76,0.57c-3.85-5.08-9.08-6.86-11.98-7.47C8.35,60.99,9.37,57.49,8.93,55.17z"/>
			<path class="st20" d="M3.32,167.62c1.65,3.08,3.13,5.82,4.21,7.86c-1.04,0.13-1.97,0.24-2.76,0.3c-1.37,0.12-2.3,0.12-2.46-0.02
				c-0.21-0.18-0.88-5.67-1.73-13.3C1.52,164.24,2.44,165.97,3.32,167.62z"/>
			<path class="st20" d="M5.25,63.53c0,0,0.84,0.04,2.16,0.32c2.9,0.62,8.13,2.4,11.98,7.47c5.61,7.39,9.76-0.57,9.76-0.57
				l-0.52-5.35l-0.33-3.41l0.57-0.15c0,0,1.54-0.61,3.58-1.46c4.68,2.79,16.91,10.33,18.79,14.04c0,0-0.31,0.61-0.76,1.54
				c-1.29,2.69-3.72,8.14-3.31,10.12c0.12,0.56,1.74,4.38,3.75,9.84c4.19,11.35,10.09,29.8,7.74,40.88
				c-3.47,16.4-4.07,38.68-4.07,38.68s-0.19-0.04-0.52-0.1c-3.69-0.69-26.29-4.81-31.54-2.98c-0.5,0.17-1.06,0.34-1.66,0.51
				c-1.15-3.34-2.42-7.16-3.78-10.84c-0.44-1.19-0.89-2.37-1.34-3.51c-4.31-10.83-9.61-16.49-9.67-17.31
				c-0.23-2.86,2.42-10.16,3.83-14.69c2.15-6.92,2.76-14.39,2.76-14.39l-20.78-0.94l-1.39-11.87C-9.51,99.36-13.95,79.46,5.25,63.53
				z"/>
			<path class="st20" d="M-8.12,111.24l20.78,0.94c0,0-0.61,7.47-2.76,14.39c-1.41,4.53-4.06,11.83-3.83,14.69
				c0.07,0.81,5.36,6.48,9.67,17.31c0.45,1.14,0.9,2.32,1.34,3.51c1.36,3.68,2.63,7.5,3.78,10.84c1.54,4.51,2.85,8.14,3.76,9.34
				c3.9,5.13,13.01,12.68,13.03,15.73c0.03,3.05-8.06-2.62-8.06-2.62s6.12,16.5,3.92,16.24c-2.2-0.26-6.05-10.19-6.05-10.19
				s3.27,10.85,1.05,10.37c-2.22-0.48-5.94-11.51-5.94-11.51s2.58,13.08-1.28,11.22l-1.94-7.91c0,0,0.79,9.74-2.22,7.59
				c-3.01-2.15-5.97-28.06-8.08-32.69c-0.28-0.62-0.82-1.67-1.53-3.01c-1.08-2.04-2.56-4.78-4.21-7.86
				c-0.88-1.64-1.81-3.38-2.75-5.15c-4.79-9.05-9.81-19.02-10.06-22.14C-9.93,134.7-8.12,111.24-8.12,111.24z"/>
			<path class="st20" d="M94.4,64.15c1.68-2.14,4.05-4.63,5.64-6.07c0.67-0.61,1.21-1.04,1.48-1.15c0,0,13.77,20.3,24.27,20.65
				s19.86-4.46,28.55-5.87c1.88-0.31,3.73-0.83,5.48-1.45c6.33-2.24,11.3-5.85,11.3-5.85c0.06-0.01,0.11,0,0.17,0
				c10.91-1.01,11.88,31.46,11.33,45.24c-0.55,13.84,14.52,47.37,8.54,61.65c-0.32,0.76-0.78,1.45-1.36,2.09
				c-9.02,9.99-47.62,5.38-57.14,0.48c-1.29-0.66-2.05-1.33-2.12-1.97c-0.69-5.65,7.58-77.22,7.58-77.22s-18.04,0.5-22.83,0.17
				c-4.78-0.33-22.74-25.29-22.89-27.18C92.34,67.02,93.2,65.68,94.4,64.15z"/>
			<path class="st20" d="M120.26,311.6c3.38-13.17,11.6-46.63,10.35-55.57c-1.57-11.2,1.5-22.78,2.34-28.85
				c0.61-4.37,0.06-36.01-0.3-53.33c9.52,4.9,48.13,9.51,57.14-0.48c0.92,7.64,1.92,21.16,2.49,45.7c0.17,7.5,2.63,23.03,2.61,32.45
				c0,2.67,4.96,39.91,7.48,58.65c-2.42,0.54-5.46,0.87-8.57,0.31c-2.32-0.42-4.6-1.72-6.82-3.11c0.27-0.5,0.4-0.93,0.32-1.25
				c-0.98-3.92-27.01-111.8-27.01-111.8s-12.23,54.98-11.99,66.29c0.24,11.31-5.78,35.79-12.82,47.69c0,0,0.41,5.14-0.43,7.58
				c-0.21,0.59-0.48,1.03-0.86,1.19c-1.51,0.64-10.02,0.22-13.67,0.01c-0.86-0.05-1.46-0.87-1.24-1.7
				C119.52,314.46,119.86,313.17,120.26,311.6z"/>
			<path class="st20" d="M10.34,199.74c-0.02-2.07-3.45-14.11-5.57-23.96c0.79-0.07,1.73-0.17,2.76-0.3
				c0.71,1.34,1.25,2.39,1.53,3.01c2.12,4.62,5.08,30.53,8.08,32.69c3.01,2.15,2.22-7.59,2.22-7.59l1.94,7.91
				c3.85,1.87,1.28-11.22,1.28-11.22s3.72,11.03,5.94,11.51c2.22,0.48-1.05-10.37-1.05-10.37s3.85,9.93,6.05,10.19
				c2.2,0.26-3.92-16.24-3.92-16.24s8.08,5.67,8.06,2.62c-0.03-3.05-9.13-10.59-13.03-15.73c-0.91-1.2-2.22-4.83-3.76-9.34
				c0.6-0.17,1.16-0.34,1.66-0.51c5.25-1.82,27.85,2.29,31.54,2.98c0.83,4.75,1.61,10.71,1.31,15.29
				c-0.58,8.98-1.09,43.23-2.11,46.8c-1.02,3.57,4.66,3.76,3.27,16.3c-1.39,12.53-5.65,35.32,3.13,63.16c0,0,1.68,1.79-1.68,2.65
				c-0.22,0.06-0.45,0.11-0.71,0.15c-4.3,0.78-17.45,2.5-17.45,2.5s-11.72,1.2-17.51-0.09c-1.75-0.39-2.96-1-3.14-1.95
				c-0.76-4.08,5.99-79.8,5.45-86.51C24.62,233.67,10.37,202.79,10.34,199.74z"/>
			<path class="st22" d="M0.34,35.35c-1.7-0.05-1.86-2.11-1.71-4.94c0.15-2.83,0.61-1.74,0.06-3.95c-0.55-2.21,0.1-3.39,2.44-4.71
				s0.02-2.07,0.62-4c0.6-1.93,2.32-1.5,3.09-3.64s1.29,1.97,3.83-1.44s2.03,1.91,3.89-0.69s5.15,0.9,5.25-0.23s3.57-2.36,4.42-1.11
				c0.85,1.25,3.39,0.1,5.65,0.11s1.52,2.51,3.01,2.39c1.5-0.12,1.89,2.48,1.9,4.93c0,1.28,1.78,0.73,2.92,1.27
				c1.03,0.49,0.71,2.06,0.97,2.94c0.32,1.08,0.24,2-0.64,2.88c-0.21,0.21-0.45,0.41-0.75,0.61c-1.61,1.07-2.04,0.35-3.33,0.64
				c-1.29,0.29-1.01-0.86-3.07,1.56s-3.94,0.13-3.77,2.19c0.17,2.06-3.18,2.51-4.18,4.1s-3.1,1.19-3.53,2.92
				c-0.43,1.73-4.05,1.08-4.05,1.08s-0.84,1.2-1.84,2.78S8,41.69,7.5,42.48c-0.22,0.35-0.64,1.31-1.37,1.62
				c-0.17,0.07-0.35,0.12-0.56,0.1c-0.9-0.07-2.39-1.56-2.39-1.56s-0.85-1.25-2.36-3.57S2.04,35.4,0.34,35.35z"/>
			<path class="st20" d="M148.54,58.56c0,0,4.39,2.65,5.63-0.62"/>
			<path class="st20" d="M153.06,67.52c0,0,5.47-1.09,7.64-3.1"/>
			<path class="st20" d="M28.86,61.84c0,0-1.29,0.45-2.59,0.89"/>
			<path class="st20" d="M18.29,42.33c0,0-4.13-1.5-5.06,1.41c-0.93,2.91,1.86,8.54,4.73,8.97"/>
			<path class="st20" d="M31.73,51.6c0,0,2.48,1.8,4.26,0.99"/>
			<line class="st20" x1="35.42" y1="41.24" x2="16.31" y2="41.89"/>
			
				<ellipse transform="matrix(0.9968 -0.0803 0.0803 0.9968 -3.3401 3.1326)" class="st20" cx="37.27" cy="43.08" rx="1.84" ry="3.42"/>
			<path class="st20" d="M42.16,36.96c0.2,2.45-0.75,4.45-1.66,4.52s-1.45-1.81-1.65-4.26s0.81-4.57,1.72-4.64
				C41.49,32.51,41.97,34.51,42.16,36.96z"/>
			<path class="st20" d="M47.16,86.08c-0.56-0.7-1.07,0.14-1.33-3.15c-0.26-3.28-1.36-9.81-1.36-9.81"/>
			<path class="st20" d="M12.66,112.18c0,0,7.48-35.49-11.67-34.18"/>
			<path class="st20" d="M138.11,94.66c0,0,12.28-0.53,15.11-1.2"/>
			<path class="st20" d="M158.28,70.86c0,0,8.45,0.21,9.98,5.41"/>
			<path class="st20" d="M52.97,238.13c0,0-7.7-35.89-5.11-44.97"/>
			<circle class="st10" cx="149.78" cy="47.26" r="1.15"/>
		</g>
		<polygon class="st10" points="132.01,155.81 139.52,101.5 149.75,94.19 138.11,94.66 		"/>
		<path class="st10" d="M54.06,175.38c0,0-28.84-2.62-32.68,1.55l-0.52-4.02C20.86,172.91,20.81,168.86,54.06,175.38z"/>
		<path class="st10" d="M132.66,173.85c0,0,36.92,20.93,57.39,0.01l-7.5,3.9l-8.19,1.39l-23.11-0.58L132.66,173.85z"/>
	</g>
	<g class="st0">
		<g>
			<g>
				<g>
					<path class="st23" d="M303.11,16.62c-0.93-0.58-2.79,4.3-2.79,4.3l-0.22-0.03c0,0,1.19-7.8,0.45-7.93
						c-0.74-0.13-2.79,7.52-2.79,7.52s1.54-8.64,0.39-9.09c-0.99-0.38-2.21,3.07-2.54,4.09c-0.06,0.18-0.38,5.8-0.38,5.8
						s0.16-7.93-0.1-8.58c-0.26-0.64-1.19,0.71-1.57,1.38c-0.39,0.67-1.28,13.04-1.28,13.04c-0.03-0.9-1.77-2.73-3.24-3.53
						c-1.48-0.8-2.34,0.03-2.54,0.42c-0.19,0.39,0.29,1.09,1.77,1.99c1.48,0.9,1.83,2.63,1.86,3.44c0.03,0.8,0.77,1.93,1.8,2.28
						c1.03,0.35,1.14,1.43,1.14,1.43c-0.55,8.47-5.08,13.54-6.39,15.39c-0.25,0.36-0.4,0.61-0.35,0.72c2.04,5.3,8.01,4.88,8.65,4.62
						c0.64-0.26,2.89-9.92,3.05-10.57c0.16-0.64,2.28-8.93,2.28-8.93c0.71-0.13,1.83-2.73,1.93-3.69c0.1-0.96,0-9.92,0-9.92
						S304.05,17.2,303.11,16.62z"/>
					<path class="st23" d="M261.07,39.1c-0.6-1.14,0.13-2.47-0.8-3.61c-0.94-1.14-0.13-2.27-1.74-2.67s-2.07-0.53-2.94-1.07
						c-0.87-0.53-0.53,0.67-2.34,0.13c-1.8-0.53-2.34-1-2.34-1s-0.74,1-2.34,0.87s-0.94,0.4-1.8,0.67
						c-0.87,0.27-1.54,0.47-0.94,1.54c0.6,1.07,1.07,1.6,0.47,1.8c-0.6,0.2-1.87-0.2-1.34,0.74c0.53,0.94,0.47,2.01,0.2,2.07
						c-0.27,0.07-1.4,0-0.94,0.87c0.47,0.87,0.27,2.74-0.4,2.87c-0.67,0.13-1.27,0.6-1.34,0.4c-0.07-0.2-0.33-2.27-1.94-3.27
						c0,0-1.4-1.94-2.14,1.74c-0.74,3.68,2.34,5.08,2.34,5.08c0.36,3.46-1.39,8.23-2.05,10.22c-0.19,0.58-0.3,0.94-0.22,0.94
						c3.01,0.07,11.16,8.09,11.16,8.09s1.47,0.87,2.81-0.07c0.88-0.61,1.66-3.81,2.11-5.94c0.23-1.12,0.37-1.95,0.37-1.95
						c6.02-2.21,6.28-12.97,6.28-12.97l0.14-4.17C261.3,39.85,261.21,39.38,261.07,39.1z"/>
					<path class="st24" d="M262,37.56c0.2-1-0.53-1.8-0.33-2.47c0.2-0.67-0.33-1.07-0.8-1.8c-0.47-0.74-0.33-1.74-0.13-2.61
						c0.2-0.87-1.14,0.4-1.74-0.6c-0.6-1-0.67-0.67-0.74-1.27c-0.07-0.6-0.74-0.07-2.07-0.74c-1.34-0.67,0.2-0.74-1-1.07
						c-1.2-0.33-0.94,0.2-2.01-0.33c-1.07-0.53-1.34-0.33-2.61,0c-1.27,0.33-1.4,0.47-2.07,0.53c-0.67,0.07-1.54-0.27-2.94,0.6
						c-1.4,0.87-0.6,0.8-1.8,1.47c-1.2,0.67-1.07,0.67-2.21,2.34c-1.14,1.67-1.2,2.27-1.6,3.61c-0.4,1.34,0.6,4.21,0.6,4.21
						c1.6,1,1.87,3.07,1.94,3.27c0.07,0.2,0.67-0.27,1.34-0.4c0.67-0.13,0.87-2.01,0.4-2.87c-0.47-0.87,0.67-0.8,0.94-0.87
						c0.27-0.07,0.33-1.14-0.2-2.07c-0.53-0.94,0.74-0.53,1.34-0.74c0.6-0.2,0.13-0.74-0.47-1.8c-0.6-1.07,0.07-1.27,0.94-1.54
						c0.87-0.27,0.2-0.8,1.8-0.67s2.34-0.87,2.34-0.87s0.53,0.47,2.34,1c1.8,0.53,1.47-0.67,2.34-0.13
						c0.87,0.53,1.34,0.67,2.94,1.07s0.8,1.54,1.74,2.67c0.94,1.14,0.2,2.47,0.8,3.61c0.15,0.28,0.23,0.75,0.27,1.31
						c0.13,1.72-0.12,4.27-0.07,4.57c0,0,0.47-0.8,0.74-2.41C262.27,40.97,261.8,38.56,262,37.56z"/>
					<path class="st8" d="M286.3,49.25c-0.04-0.11,0.1-0.36,0.35-0.72c-0.37-0.03-0.83,0.18-1.33,0.97
						c-1.22,1.91-3.65,5.56-4.86,5.99c-1.22,0.43-3.91-0.43-4.43,1.82c-0.52,2.26-2.52,2.78-6.6,3.39
						c-4.08,0.61-9.21-0.87-11.9-1.04c-0.91-0.06-1.97-0.12-2.99-0.17c-0.44,2.13-1.23,5.32-2.11,5.94
						c-1.34,0.94-2.81,0.07-2.81,0.07s-8.15-8.02-11.16-8.09c-0.08,0,0.03-0.36,0.22-0.94c-1.31-0.15-2.38-0.16-2.96,0.07
						c-2.61,1.04-8.77,4.26-9.21,7.12c-0.43,2.87-0.61,5.38-1.3,6.25c-0.69,0.87-2.34,5.64-1.39,9.99c0,0-0.69-0.17-0.69,3.82
						s0.52,8.86-0.26,11.29c-0.78,2.43-1.48,4.69-0.96,8.94s-0.43,3.65-0.35,6.95c0.09,3.3-0.35,8.77,0.52,11.55
						c0.68,2.16,1.4,3.47,1.69,3.95c-0.46-1.08-0.75-1.74-0.75-1.74l11.12-1.7c0,0,0.56,3.85,1.1,7.66c0.17,1.2,0.34,2.4,0.49,3.47
						l19.48,1.63l1.17,0.1c0,0,2.17,1.39,2-0.96c-0.17-2.34-1.04-3.13,1.04-5.04c2.08-1.91,2.69-5.47,1.82-13.89
						c0,0-0.78-7.29-0.17-11.98c0.61-4.69,1.48-22.58-0.69-27.09c0,0-1.74-0.17,3.73-0.87c5.47-0.69,10.77-3.91,13.81-5.21
						c3.04-1.3,4.17,0.17,5.82-1.22c1.65-1.39,1.74-0.78,3.3-2.43s2.17-3.91,3.13-5.21c0.96-1.3,3.65,0,4.77-8.04
						C294.31,54.13,288.35,54.55,286.3,49.25z"/>
					<path class="st23" d="M238.8,149.32c-0.94-3.23-2.44-10.31-2.52-11.25c-0.02-0.3-0.24-1.91-0.53-3.97
						c-0.15-1.08-0.32-2.27-0.49-3.47c-0.54-3.82-1.1-7.66-1.1-7.66l-11.12,1.7c0,0,0.29,0.66,0.75,1.74
						c1.9,4.44,6.73,15.98,6.34,17.93c-0.48,2.42-2.26,3.22-2.26,5.8c0,2.58-0.17,5.96-0.56,6.98c-0.39,1.02-2.75,5.04-1.5,5.74
						c0.99,0.56,2.81-2.3,3.54-3.54c-0.76,1.35-2.65,4.77-2.52,5.42c0.24,1.18,1.57,0.94,1.57,0.94s-0.1,0.79,0.39,1.02
						c1.07,0.5,1.93,0.16,2.23-0.01c0.08-0.04,0.13-0.07,0.13-0.07s0.55,0.94,2.05,0.39c1.5-0.55,6.22-7.48,6.06-9.76
						C239.28,157.27,239.75,152.55,238.8,149.32z"/>
					<path class="st6" d="M257.2,153.43c-0.27-7.3-1.27-13.86-1.97-17.7l-19.48-1.63c0.29,2.06,0.51,3.67,0.53,3.97
						c0.08,0.94,1.57,8.03,2.52,11.25c0.94,3.23,0.47,7.95,0.47,7.95c0.16,2.28-4.56,9.21-6.06,9.76c-1.5,0.55-2.05-0.39-2.05-0.39
						s-0.05,0.03-0.13,0.07c-0.15,9.19,3.52,23.93,1.85,25.76c-1.95,2.13,0,2.84-3.72,7.8c-3.72,4.96-29.43,39.72-29.97,41.67
						c-0.1,0.37,0.46,0.87,1.44,1.45c3.01,1.77,9.97,4.2,13.61,5.42c1.41,0.47,2.33,0.76,2.33,0.76s26.07-40.25,31.92-43.97
						c0.84-0.54,1.58-1.42,2.22-2.58c3.85-6.89,4.59-23.65,6.11-37.31C257.28,161.6,257.35,157.41,257.2,153.43z"/>
					<path class="st6" d="M268.71,201.86c1.42-6.03,4.43-10.82,2.31-18.26c-1.44-5.04-9.04-20.61-13.81-30.17
						c0.15,3.98,0.08,8.17-0.38,12.26c-1.52,13.66-2.26,30.43-6.11,37.31c0.43,14.54,1.24,38.54,3.98,39.29
						c1.4,0.38,3.89,0.12,6.51-0.36c4.69-0.87,9.81-2.48,9.81-2.48s0-0.01,0-0.03C270.89,238.4,267.31,207.79,268.71,201.86z"/>
				</g>
			</g>
		</g>
		<g>
			<g>
				<g>
					<path class="st25" d="M303.96,18.94c-0.93-0.58-2.79,4.3-2.79,4.3l-0.22-0.03c0,0,1.19-7.8,0.45-7.93
						c-0.74-0.13-2.79,7.52-2.79,7.52s1.54-8.64,0.39-9.09c-0.99-0.38-2.21,3.07-2.54,4.09c-0.06,0.18-0.38,5.8-0.38,5.8
						s0.16-7.93-0.1-8.58c-0.26-0.64-1.19,0.71-1.57,1.38c-0.39,0.67-1.28,13.04-1.28,13.04c-0.03-0.9-1.77-2.73-3.24-3.53
						c-1.48-0.8-2.34,0.03-2.54,0.42c-0.19,0.39,0.29,1.09,1.77,1.99c1.48,0.9,1.83,2.63,1.86,3.44c0.03,0.8,0.77,1.93,1.8,2.28
						c1.03,0.35,1.14,1.43,1.14,1.43c-0.55,8.47-5.08,13.54-6.39,15.39c-0.25,0.36-0.4,0.61-0.35,0.72c2.04,5.3,8.01,4.88,8.65,4.62
						s2.89-9.92,3.05-10.57c0.16-0.64,2.28-8.93,2.28-8.93c0.71-0.13,1.83-2.73,1.93-3.69c0.1-0.96,0-9.92,0-9.92
						S304.89,19.52,303.96,18.94z"/>
					<path class="st25" d="M261.91,41.42c-0.6-1.14,0.13-2.47-0.8-3.61c-0.94-1.14-0.13-2.27-1.74-2.67
						c-1.6-0.4-2.07-0.53-2.94-1.07c-0.87-0.53-0.53,0.67-2.34,0.13c-1.8-0.53-2.34-1-2.34-1s-0.74,1-2.34,0.87
						c-1.6-0.13-0.94,0.4-1.8,0.67c-0.87,0.27-1.54,0.47-0.94,1.54c0.6,1.07,1.07,1.6,0.47,1.8c-0.6,0.2-1.87-0.2-1.34,0.74
						c0.53,0.94,0.47,2.01,0.2,2.07c-0.27,0.07-1.4,0-0.94,0.87s0.27,2.74-0.4,2.87c-0.67,0.13-1.27,0.6-1.34,0.4
						c-0.07-0.2-0.33-2.27-1.94-3.27c0,0-1.4-1.94-2.14,1.74c-0.74,3.68,2.34,5.08,2.34,5.08c0.36,3.46-1.39,8.23-2.05,10.22
						c-0.19,0.58-0.3,0.94-0.22,0.94c3.01,0.07,11.16,8.09,11.16,8.09s1.47,0.87,2.81-0.07c0.88-0.61,1.66-3.81,2.11-5.94
						c0.23-1.12,0.37-1.95,0.37-1.95c6.02-2.21,6.28-12.97,6.28-12.97l0.14-4.17C262.14,42.17,262.06,41.7,261.91,41.42z"/>
					<path class="st25" d="M262.84,39.88c0.2-1-0.53-1.8-0.33-2.47c0.2-0.67-0.33-1.07-0.8-1.8c-0.47-0.74-0.33-1.74-0.13-2.61
						c0.2-0.87-1.14,0.4-1.74-0.6c-0.6-1-0.67-0.67-0.74-1.27c-0.07-0.6-0.74-0.07-2.07-0.74c-1.34-0.67,0.2-0.74-1-1.07
						c-1.2-0.33-0.94,0.2-2.01-0.33c-1.07-0.53-1.34-0.33-2.61,0c-1.27,0.33-1.4,0.47-2.07,0.53c-0.67,0.07-1.54-0.27-2.94,0.6
						c-1.4,0.87-0.6,0.8-1.8,1.47c-1.2,0.67-1.07,0.67-2.21,2.34c-1.14,1.67-1.2,2.27-1.6,3.61c-0.4,1.34,0.6,4.21,0.6,4.21
						c1.6,1,1.87,3.07,1.94,3.27c0.07,0.2,0.67-0.27,1.34-0.4c0.67-0.13,0.87-2.01,0.4-2.87s0.67-0.8,0.94-0.87
						c0.27-0.07,0.33-1.14-0.2-2.07c-0.53-0.94,0.74-0.53,1.34-0.74c0.6-0.2,0.13-0.74-0.47-1.8c-0.6-1.07,0.07-1.27,0.94-1.54
						c0.87-0.27,0.2-0.8,1.8-0.67c1.6,0.13,2.34-0.87,2.34-0.87s0.53,0.47,2.34,1c1.8,0.53,1.47-0.67,2.34-0.13
						c0.87,0.53,1.34,0.67,2.94,1.07c1.6,0.4,0.8,1.54,1.74,2.67c0.94,1.14,0.2,2.47,0.8,3.61c0.15,0.28,0.23,0.75,0.27,1.31
						c0.13,1.72-0.12,4.27-0.07,4.57c0,0,0.47-0.8,0.74-2.41C263.11,43.29,262.64,40.89,262.84,39.88z"/>
					<path class="st25" d="M287.15,51.57c-0.04-0.11,0.1-0.36,0.35-0.72c-0.37-0.03-0.83,0.18-1.33,0.97
						c-1.22,1.91-3.65,5.56-4.86,5.99c-1.22,0.43-3.91-0.43-4.43,1.82c-0.52,2.26-2.52,2.78-6.6,3.39
						c-4.08,0.61-9.21-0.87-11.9-1.04c-0.91-0.06-1.97-0.12-2.99-0.17c-0.44,2.13-1.23,5.32-2.11,5.94
						c-1.34,0.94-2.81,0.07-2.81,0.07s-8.15-8.02-11.16-8.09c-0.08,0,0.03-0.36,0.22-0.94c-1.31-0.15-2.38-0.16-2.96,0.07
						c-2.61,1.04-8.77,4.26-9.21,7.12c-0.43,2.87-0.61,5.38-1.3,6.25c-0.69,0.87-2.34,5.64-1.39,9.99c0,0-0.69-0.17-0.69,3.82
						s0.52,8.86-0.26,11.29c-0.78,2.43-1.48,4.69-0.96,8.94s-0.43,3.65-0.35,6.95c0.09,3.3-0.35,8.77,0.52,11.55
						c0.68,2.16,1.4,3.47,1.69,3.95c-0.46-1.08-0.75-1.74-0.75-1.74l11.12-1.7c0,0,0.56,3.85,1.1,7.66c0.17,1.2,0.34,2.4,0.49,3.47
						l19.48,1.63l1.17,0.1c0,0,2.17,1.39,2-0.96c-0.17-2.34-1.04-3.13,1.04-5.04c2.08-1.91,2.69-5.47,1.82-13.89
						c0,0-0.78-7.29-0.17-11.98c0.61-4.69,1.48-22.58-0.69-27.09c0,0-1.74-0.17,3.73-0.87c5.47-0.69,10.77-3.91,13.81-5.21
						c3.04-1.3,4.17,0.17,5.82-1.22c1.65-1.39,1.74-0.78,3.3-2.43c1.56-1.65,2.17-3.91,3.13-5.21c0.96-1.3,3.65,0,4.77-8.04
						C295.16,56.45,289.19,56.87,287.15,51.57z"/>
					<path class="st25" d="M239.65,151.64c-0.94-3.23-2.44-10.31-2.52-11.25c-0.02-0.3-0.24-1.91-0.53-3.97
						c-0.15-1.08-0.32-2.27-0.49-3.47c-0.54-3.82-1.1-7.66-1.1-7.66l-11.12,1.7c0,0,0.29,0.66,0.75,1.74
						c1.9,4.44,6.73,15.98,6.34,17.93c-0.48,2.42-2.26,3.22-2.26,5.8c0,2.58-0.17,5.96-0.56,6.98s-2.75,5.04-1.5,5.74
						c0.99,0.56,2.81-2.3,3.54-3.54c-0.76,1.35-2.65,4.77-2.52,5.42c0.24,1.18,1.57,0.94,1.57,0.94s-0.1,0.79,0.39,1.02
						c1.07,0.5,1.93,0.16,2.23-0.01c0.08-0.04,0.13-0.07,0.13-0.07s0.55,0.94,2.05,0.39c1.5-0.55,6.22-7.48,6.06-9.76
						C240.12,159.59,240.59,154.87,239.65,151.64z"/>
					<path class="st25" d="M258.05,155.75c-0.27-7.3-1.27-13.86-1.97-17.7l-19.48-1.63c0.29,2.06,0.51,3.67,0.53,3.97
						c0.08,0.94,1.57,8.03,2.52,11.25c0.94,3.23,0.47,7.95,0.47,7.95c0.16,2.28-4.56,9.21-6.06,9.76c-1.5,0.55-2.05-0.39-2.05-0.39
						s-0.05,0.03-0.13,0.07c-0.15,9.19,3.52,23.93,1.85,25.76c-1.95,2.13,0,2.84-3.72,7.8c-3.72,4.96-29.43,39.72-29.97,41.67
						c-0.1,0.37,0.46,0.87,1.44,1.45c3.01,1.77,9.97,4.2,13.61,5.42c1.41,0.47,2.33,0.76,2.33,0.76s26.07-40.25,31.92-43.97
						c0.84-0.54,1.58-1.42,2.22-2.58c3.85-6.89,4.59-23.65,6.11-37.31C258.13,163.92,258.2,159.73,258.05,155.75z"/>
					<path class="st25" d="M269.55,204.18c1.42-6.03,4.43-10.82,2.31-18.26c-1.44-5.04-9.04-20.61-13.81-30.17
						c0.15,3.98,0.08,8.17-0.38,12.26c-1.52,13.66-2.26,30.43-6.11,37.31c0.43,14.54,1.24,38.54,3.98,39.29
						c1.4,0.38,3.89,0.12,6.51-0.36c4.69-0.87,9.81-2.48,9.81-2.48s0-0.01,0-0.03C271.73,240.72,268.16,210.11,269.55,204.18z"/>
				</g>
				<path class="st25" d="M255.76,59.87c0,0-3.58,2.08-7.02-1.55s-5.21-3.35-5.21-4.28s-0.28-2.7-0.28-2.7"/>
				<path class="st26" d="M251.25,51.99c0,0,6.05,0.93,6.89,0.19c0,0-1.02,2.88-4.28,2.51C253.86,54.69,252.18,53.85,251.25,51.99z"
					/>
				<path class="st26" d="M257.21,42.78c0,0-0.93,1.95-0.65,3.26c0.28,1.3,0.84,2.33,0.56,2.61c-0.28,0.28-2.42,1.12-2.42,1.12"/>
				<path class="st26" d="M261.25,79.18c0.15-0.76,0.15-2.71,0.71-4.11"/>
				<path class="st26" d="M240.18,65.11c10.7,3.44,6.61,14.52,5.68,18.24c-0.93,3.72-6.61,8.28-6.33,12.28
					c0.28,4-1.3,6.14-2.33,7.26c-1.02,1.12,0,0-0.28,3.82s-1.4,4.84-0.84,9.4c0.56,4.56-0.47,5.68-1.08,9.17"/>
				<path class="st26" d="M250.48,67.82c0,0,2.91-0.2,2.91,5.95c0,6.14,2.61,19.73,3.44,26.8c0.84,7.07-1.02,12-1.49,19.26
					c-0.47,7.26-0.74,16.75-0.74,16.75"/>
				<line class="st26" x1="226.07" y1="72.23" x2="234.83" y2="59.9"/>
				<circle class="st10" cx="250.9" cy="43.75" r="0.58"/>
				<circle class="st10" cx="258.91" cy="44.65" r="0.58"/>
				<path class="st26" d="M243.32,47.82c0,0-0.63,1.31-1.73,0.75"/>
				<path class="st26" d="M242.51,45.71c-0.24-0.29-1.3-2.16-1.34-1.15c-0.05,1.01,0.38,2.64,1.06,2.54"/>
			</g>
			<path class="st10" d="M251.56,205.32c0,0,2.8-3.71,3.21-10.34c0.41-6.63,3.85-34.94,3.27-39.23l3.98,8.35
				c0,0-6.75,40.56-10.31,41.99L251.56,205.32z"/>
			<polygon class="st10" points="256.08,138.05 237.13,140.39 236.59,136.42 			"/>
		</g>
	</g>
	<g class="st0">
		<g>
			<g>
				<path class="st18" d="M1005.9,33.48l-0.27,0.69C1005.81,33.87,1005.92,33.63,1005.9,33.48z"/>
				<path class="st6" d="M1009.19,45.34c0.43-0.06,0.7-0.49,0.56-0.9l-2.01-1.75l-1.84-9.21c0.02,0.14-0.09,0.39-0.27,0.69
					c-1.08,1.79-5.1,5.8-5.1,5.8l1.25-2.75c-1.12,2.25-5.62,3.62-5.62,3.62s-1-1.37-2.37,0.62c-1.37,2,1.62,3.87,1.62,3.87
					l-1.26,4.74l-0.2,0.76c0.03,0,0.06-0.01,0.09,0c0,0,2.76,1.68,6.18,2.59l3.44-1.72c3.75,0.25,3.62-6.12,3.62-6.12L1009.19,45.34
					z"/>
				<path class="st19" d="M1058.8,53.7l-6.64,3.57l-12.01-15.1c0,0,1.83-5.49,0.46-7.09c0,0-1.26-0.46-1.37,2.4
					c-0.11,2.86-0.57,1.26-0.57,1.26s-1.37-15.9-1.94-15.67c-0.27,0.11-0.46,0.99-0.59,1.89c0.74,1.77,2.03,16.88,1.53,17.76
					c-0.4,0.71-0.69,0.51-0.8,0.48c1.83,4.42,9.98,23.58,13.92,24.6c0,0,4.77-1.92,8.63-3.6c0.83-2.95,1.52-5.03,1.55-5.32
					C1061.1,57.82,1059.59,55.06,1058.8,53.7z"/>
				<path class="st6" d="M1036.13,24.96c-0.03-0.07-0.06-0.13-0.09-0.16c-0.71-0.65-0.32,4.41-0.58,4.93
					c-0.26,0.52-0.84-2.73-1.69-3.18c-0.84-0.45-0.45,5.32-0.52,6.23c-0.06,0.91-0.58-0.45-1.17-0.39c-0.58,0.06,1.04,6.1,1.04,8.63
					c0,1.74-0.67,4.09-1.09,5.38c0.89,0.69,2.24,1.9,3.22,2.95c0.57-2.14,1.58-5.98,1.58-6.12c0-0.04,0.02-0.05,0.05-0.04
					c0.11,0.03,0.39,0.22,0.8-0.48C1038.16,41.84,1036.86,26.73,1036.13,24.96z"/>
				<path class="st19" d="M1079.59,40.08c0.16-1.48,0.68-4.29,1-5.93c-0.4-0.13-0.65-0.62-0.79-0.79c-0.3-0.39-1.58,0.2-2.17-0.59
					c-0.59-0.79-1.09-1.38-1.09-1.38s-1.88,0.49-2.17-0.39c-0.3-0.89-1.38-0.59-1.97-1.38c-0.59-0.79-2.37-0.89-2.37-1.97
					s-0.89,0.2-2.07-0.99c-1.18-1.18-0.99-0.59-1.68-0.69c-0.69-0.1-0.89,0.3-1.78-0.2c-0.17-0.09-0.3-0.19-0.42-0.29l-2.79,11.07
					c0,0,1.37,1.03,1.94,0.91c0.57-0.11-1.14,4.46,1.03,5.26c1.02,0.38,2.22,0.78,3.2,1.1c1.11,0.36,1.94,0.62,1.94,0.62l0.31,0.05
					l-0.03,1.8l-0.05,2.83c0,0,2.52,4,5.15-0.11c1.81-2.83,4.48-3.98,5.97-4.43C1080.14,43.11,1079.46,41.32,1079.59,40.08z"/>
				<path class="st6" d="M1086.48,97.92c-0.74,1.69-1.4,3.19-1.88,4.3c0.55,0.03,1.05,0.04,1.46,0.04c0.73,0,1.21-0.03,1.29-0.11
					c0.1-0.1,0.22-3.01,0.35-7.05C1087.28,96.07,1086.87,97.02,1086.48,97.92z"/>
				<path class="st6" d="M1080.79,44.58c0,0-0.44,0.06-1.12,0.26c-1.49,0.45-4.17,1.6-5.97,4.43c-2.63,4.12-5.15,0.11-5.15,0.11
					l0.05-2.83l0.03-1.8l-0.31-0.05c0,0-0.84-0.26-1.94-0.62c-2.34,1.66-8.44,6.14-9.27,8.17c0,0,0.19,0.31,0.46,0.78
					c0.79,1.36,2.3,4.11,2.17,5.17c-0.04,0.3-0.73,2.37-1.55,5.32c-1.72,6.13-4.03,16.07-2.34,21.78
					c2.52,8.46,3.77,20.13,3.77,20.13s0.1-0.03,0.27-0.07c1.91-0.52,13.59-3.63,16.43-2.9c0.27,0.07,0.57,0.14,0.89,0.2
					c0.46-1.8,0.97-3.86,1.53-5.85c0.18-0.64,0.37-1.28,0.56-1.9c1.8-5.86,4.35-9.06,4.35-9.49c0-1.51-1.7-5.23-2.63-7.55
					c-1.42-3.54-2.06-7.43-2.06-7.43l10.87-1.37l0.23-6.29C1090.06,62.77,1091.55,52.13,1080.79,44.58z"/>
				<path class="st19" d="M1088.88,67.84l-10.87,1.37c0,0,0.64,3.89,2.06,7.43c0.93,2.32,2.63,6.04,2.63,7.55
					c0,0.43-2.54,3.63-4.35,9.49c-0.19,0.62-0.38,1.25-0.56,1.9c-0.56,1.99-1.07,4.05-1.53,5.85c-0.62,2.43-1.15,4.39-1.58,5.06
					c-1.83,2.86-6.29,7.21-6.18,8.81c0.11,1.6,4.12-1.72,4.12-1.72s-2.52,8.92-1.37,8.69s2.74-5.6,2.74-5.6s-1.26,5.83-0.11,5.49
					c1.14-0.34,2.63-6.29,2.63-6.29s-0.8,6.98,1.14,5.83l0.69-4.23c0,0,0,5.15,1.49,3.89c1.49-1.26,1.94-14.98,2.86-17.5
					c0.12-0.34,0.36-0.91,0.68-1.64c0.48-1.12,1.14-2.62,1.88-4.3c0.39-0.9,0.81-1.85,1.22-2.82c2.13-4.95,4.34-10.4,4.34-12.05
					C1090.83,80.08,1088.88,67.84,1088.88,67.84z"/>
				<path class="st8" d="M1035.65,48.27c-0.97-1.05-2.32-2.26-3.22-2.95c-0.38-0.29-0.68-0.49-0.83-0.54c0,0-6.37,11.24-11.86,11.86
					c-5.49,0.62-10.62-1.5-15.24-1.87c-1-0.08-1.99-0.28-2.94-0.53c-3.42-0.91-6.18-2.59-6.18-2.59c-0.03,0-0.06,0-0.09,0
					c-5.77-0.07-4.9,17.02-4.03,24.22c0.87,7.24-5.62,25.48-1.87,32.72c0.2,0.39,0.47,0.73,0.8,1.04
					c5.15,4.86,25.22,0.81,30.01-2.17c0.65-0.4,1.02-0.78,1.03-1.12c0.12-3-7.24-40.21-7.24-40.21s9.49-0.5,11.99-0.87
					s10.86-14.24,10.86-15.24C1036.85,49.7,1036.35,49.03,1035.65,48.27z"/>
				<path class="st10" d="M1025.05,182.58c-0.21-0.07-0.37-0.29-0.5-0.59c-1.26,2.51-2.38,5.81-0.55,7.24
					c3.15,2.45,21.34,2.45,22.04,0.7c0.7-1.75-4.9-4.55-6.65-5.95c-0.92-0.74-4.29-2.94-7.26-4.86c0.28,0.81,0.51,1.47,0.67,1.94
					c0.15,0.43-0.13,0.88-0.58,0.95C1030.32,182.27,1025.87,182.85,1025.05,182.58z"/>
				<path class="st19" d="M1032.81,179.52c-2.33-6.77-8.06-23.98-7.78-28.73c0.35-5.95-1.75-11.9-2.45-15.04
					c-0.5-2.27-1.55-18.9-2.1-28.01c-4.79,2.97-24.86,7.03-30.01,2.17c-0.16,4.05-0.11,11.19,0.63,24.09
					c0.23,3.94-0.41,12.2,0,17.14c0.11,1.4-0.92,21.16-1.45,31.1c1.29,0.18,2.9,0.22,4.51-0.2c1.2-0.32,2.34-1.1,3.45-1.92
					c-0.16-0.25-0.25-0.47-0.22-0.64c0.35-2.1,9.45-59.83,9.45-59.83s8.75,28.34,9.1,34.29c0.35,5.95,4.55,18.54,8.75,24.49
					c0,0,0,2.71,0.55,3.96c0.13,0.3,0.3,0.52,0.5,0.59c0.82,0.27,5.27-0.31,7.18-0.57c0.45-0.06,0.73-0.52,0.58-0.95
					C1033.32,180.99,1033.09,180.33,1032.81,179.52z"/>
				<path class="st10" d="M989.78,181.16c-0.18,3.38-0.3,5.63-0.3,5.63s15.04,9.45,18.89,5.6c3.53-3.53-8.82-10.58-10.62-13.35
					c-1.11,0.82-2.25,1.6-3.45,1.92C992.69,181.39,991.08,181.34,989.78,181.16z"/>
				<path class="st7" d="M1073.86,180.61c0,0-6.98-0.34-9.26-0.57c-0.14-0.01-0.26-0.03-0.38-0.05c-1.8,2.95-5.09,7.06-7.23,7.86
					c-2.8,1.05-10.15,3.15-9.1,5.25c1.05,2.1,25.54,3.15,25.89,1.4c0.35-1.75,0.35-1.75,0.35-1.75s10.15,0.35,10.85-3.5
					c0.36-1.98-0.76-5.99-1.93-9.42C1080.06,180.74,1073.86,180.61,1073.86,180.61z"/>
				<path class="st8" d="M1083.34,115.35c-0.08-1.09,1.22-7.55,1.91-12.81c-0.42,0-0.91-0.02-1.46-0.04
					c-0.32,0.74-0.55,1.31-0.68,1.64c-0.91,2.52-1.37,16.24-2.86,17.5c-1.49,1.26-1.49-3.89-1.49-3.89l-0.69,4.23
					c-1.94,1.14-1.14-5.83-1.14-5.83s-1.49,5.95-2.63,6.29c-1.14,0.34,0.11-5.49,0.11-5.49s-1.6,5.38-2.74,5.6
					c-1.14,0.23,1.37-8.69,1.37-8.69s-4,3.32-4.12,1.72c-0.11-1.6,4.35-5.95,6.18-8.81c0.43-0.67,0.96-2.63,1.58-5.06
					c-0.32-0.06-0.62-0.13-0.89-0.2c-2.83-0.73-14.52,2.38-16.43,2.9c-0.24,2.53-0.39,5.69-0.04,8.08
					c0.69,4.69,2.4,22.65,3.09,24.48c0.69,1.83-2.29,2.17-1.03,8.69c1.26,6.52,4.46,18.3,1.03,33.28c0,0-0.81,1.01,0.99,1.32
					c0.12,0.02,0.24,0.04,0.38,0.05c2.29,0.23,9.26,0.57,9.26,0.57s6.2,0.13,9.19-0.79c0.9-0.28,1.51-0.65,1.56-1.16
					c0.23-2.17-6.52-41.63-6.52-45.18C1077.28,133.76,1083.46,116.95,1083.34,115.35z"/>
				<path class="st27" d="M1068.6,43.48c0,0,0.69,0.18,1.4,0.36"/>
				<line class="st7" x1="1074.13" y1="192.74" x2="1072.33" y2="180.76"/>
				<path class="st10" d="M993.79,41.47c1.37-2,2.37-0.62,2.37-0.62s4.5-1.37,5.62-3.62l-1.25,2.75c0,0,4.02-4.02,5.1-5.8l0.27-0.69
					c0,0,2.75-0.5-0.62-3.62c-3.37-3.12-7.69-4.6-7.69-4.6s-7.1-1.64-9.99,3.47c-2.19,3.87-8.66,11.61-5.75,15.97
					c3.22,4.83,10.63,5.55,12.31,5.38l1.26-4.74C995.41,45.35,992.41,43.47,993.79,41.47z"/>
			</g>
		</g>
		<g>
			<g>
				<g>
					<path class="st18" d="M1006.67,33.94l-0.27,0.69C1006.58,34.33,1006.69,34.08,1006.67,33.94z"/>
					<path class="st28" d="M1009.51,43.98l-1.77-1.29c0.12-2.25-1.07-8.75-1.07-8.75c0.02,0.14-0.09,0.39-0.27,0.69
						c-1.08,1.79-5.1,5.8-5.1,5.8l1.25-2.75c-1.12,2.25-5.62,3.62-5.62,3.62s-1-1.37-2.37,0.62c-1.37,2,1.62,3.87,1.62,3.87
						l-1.26,4.74l-0.2,0.76c0.03,0,0.06-0.01,0.09,0c0,0,2.76,1.68,6.18,2.59l3.44-1.72c3.75,0.25,3.06-6.52,3.06-6.52l2-0.56
						C1009.88,44.83,1009.89,44.26,1009.51,43.98z"/>
					<path class="st28" d="M1058.62,52.26l-6.64,3.57l-12.01-15.1c0,0,1.83-5.49,0.46-7.09c0,0-1.26-0.46-1.37,2.4
						c-0.11,2.86-0.57,1.26-0.57,1.26s-1.37-15.9-1.94-15.67c-0.27,0.11-0.46,0.99-0.59,1.89c0.74,1.77,2.03,16.88,1.53,17.76
						c-0.4,0.71-0.69,0.51-0.8,0.48c1.83,4.42,9.98,23.58,13.92,24.6c0,0,4.77-1.92,8.63-3.6c0.83-2.95,1.52-5.03,1.55-5.32
						C1060.92,56.38,1059.41,53.62,1058.62,52.26z"/>
					<path class="st28" d="M1035.95,23.52c-0.03-0.07-0.06-0.13-0.09-0.16c-0.71-0.65-0.32,4.41-0.58,4.93
						c-0.26,0.52-0.84-2.73-1.69-3.18c-0.84-0.45-0.45,5.32-0.52,6.23c-0.06,0.91-0.58-0.45-1.17-0.39s1.04,6.1,1.04,8.63
						c0,1.74-0.67,4.09-1.09,5.38c0.89,0.69,2.24,1.9,3.22,2.95c0.57-2.14,1.58-5.98,1.58-6.12c0-0.04,0.02-0.05,0.05-0.04
						c0.11,0.03,0.39,0.22,0.8-0.48C1037.98,40.4,1036.68,25.29,1035.95,23.52z"/>
					<path class="st27" d="M1079.55,39.59c0.16-1.48,0.68-4.29,1-5.93c-0.4-0.13-0.65-0.62-0.79-0.79c-0.3-0.39-1.58,0.2-2.17-0.59
						c-0.59-0.79-1.09-1.38-1.09-1.38s-1.88,0.49-2.17-0.39c-0.3-0.89-1.38-0.59-1.97-1.38c-0.59-0.79-2.37-0.89-2.37-1.97
						s-0.89,0.2-2.07-0.99c-1.18-1.18-0.99-0.59-1.68-0.69c-0.69-0.1-0.89,0.3-1.78-0.2c-0.17-0.09-0.3-0.19-0.42-0.29l-2.79,11.07
						c0,0,1.37,1.03,1.94,0.91c0.57-0.11-1.14,4.46,1.03,5.26c1.02,0.38,2.22,0.78,3.2,1.1c1.11,0.36,1.94,0.62,1.94,0.62l0.31,0.05
						l-0.03,1.8l-0.05,2.83c0,0,2.52,4,5.15-0.11c1.81-2.83,4.48-3.98,5.97-4.43C1080.1,42.62,1079.42,40.83,1079.55,39.59z"/>
					<path class="st27" d="M1087.25,98.37c-0.74,1.69-1.4,3.19-1.88,4.3c0.55,0.03,1.05,0.04,1.46,0.04c0.73,0,1.21-0.03,1.29-0.11
						c0.1-0.1,0.22-3.01,0.35-7.05C1088.05,96.52,1087.64,97.47,1087.25,98.37z"/>
					<path class="st27" d="M1081.83,43.82c0,0-0.44,0.06-1.12,0.26c-1.49,0.45-4.17,1.6-5.97,4.43c-2.63,4.12-5.15,0.11-5.15,0.11
						l0.05-2.83l0.03-1.8l-0.31-0.05c0,0-0.84-0.26-1.94-0.62c-2.34,1.66-8.44,6.14-9.27,8.17c0,0,0.19,0.31,0.46,0.78
						c0.79,1.36,2.3,4.11,2.17,5.17c-0.04,0.3-0.73,2.37-1.55,5.32c-1.72,6.13-4.03,16.07-2.34,21.78
						c2.52,8.46,3.77,20.13,3.77,20.13s0.1-0.03,0.27-0.07c1.91-0.52,13.59-3.63,16.43-2.9c0.27,0.07,0.57,0.14,0.89,0.2
						c0.46-1.8,0.97-3.86,1.53-5.85c0.18-0.64,0.37-1.28,0.56-1.9c1.8-5.86,4.35-9.06,4.35-9.49c0-1.51-1.7-5.23-2.63-7.55
						c-1.42-3.54-2.06-7.43-2.06-7.43l10.87-1.37l0.23-6.29C1091.1,62.01,1092.58,51.37,1081.83,43.82z"/>
					<path class="st27" d="M1090.87,68.3L1080,69.67c0,0,0.64,3.89,2.06,7.43c0.93,2.32,2.63,6.04,2.63,7.55
						c0,0.43-2.54,3.63-4.35,9.49c-0.19,0.62-0.38,1.25-0.56,1.9c-0.56,1.99-1.07,4.05-1.53,5.85c-0.62,2.43-1.15,4.39-1.58,5.06
						c-1.83,2.86-6.29,7.21-6.18,8.81c0.11,1.6,4.12-1.72,4.12-1.72s-2.52,8.92-1.37,8.69c1.14-0.23,2.74-5.6,2.74-5.6
						s-1.26,5.83-0.11,5.49c1.14-0.34,2.63-6.29,2.63-6.29s-0.8,6.98,1.14,5.83l0.69-4.23c0,0,0,5.15,1.49,3.89
						c1.49-1.26,1.94-14.98,2.86-17.5c0.12-0.34,0.36-0.91,0.68-1.64c0.48-1.12,1.14-2.62,1.88-4.3c0.39-0.9,0.81-1.85,1.22-2.82
						c2.13-4.95,4.34-10.4,4.34-12.05C1092.81,80.53,1090.87,68.3,1090.87,68.3z"/>
					<path class="st27" d="M1035.06,47.92c-0.97-1.05-2.32-2.26-3.22-2.95c-0.38-0.29-0.68-0.49-0.83-0.54
						c0,0-6.37,11.24-11.86,11.86c-5.49,0.62-10.62-1.5-15.24-1.87c-1-0.08-1.99-0.28-2.94-0.53c-3.42-0.91-6.18-2.59-6.18-2.59
						c-0.03,0-0.06,0-0.09,0c-5.77-0.07-4.9,17.02-4.03,24.22c0.87,7.24-5.62,25.48-1.87,32.72c0.2,0.39,0.47,0.73,0.8,1.04
						c5.15,4.86,25.22,0.81,30.01-2.17c0.65-0.4,1.02-0.78,1.03-1.12c0.12-3-7.24-40.21-7.24-40.21s9.49-0.5,11.99-0.87
						s10.86-14.24,10.86-15.24C1036.27,49.34,1035.76,48.67,1035.06,47.92z"/>
					<path class="st27" d="M1024.87,182.35c-0.21-0.07-0.37-0.29-0.5-0.59c-1.26,2.51-2.38,5.81-0.55,7.24
						c3.15,2.45,21.34,2.45,22.04,0.7c0.7-1.75-4.9-4.55-6.65-5.95c-0.92-0.74-4.29-2.94-7.26-4.86c0.28,0.81,0.51,1.47,0.67,1.94
						c0.15,0.43-0.13,0.88-0.58,0.95C1030.14,182.05,1025.69,182.63,1024.87,182.35z"/>
					<path class="st27" d="M1031.96,178.9c-2.33-6.77-8.06-23.98-7.78-28.73c0.35-5.95-1.75-11.9-2.45-15.04
						c-0.5-2.27-1.55-18.9-2.1-28.01c-4.79,2.97-24.86,7.03-30.01,2.17c-0.16,4.05-0.11,11.19,0.63,24.09
						c0.23,3.94-0.41,12.2,0,17.14c0.11,1.4-0.92,21.16-1.45,31.1c1.29,0.18,2.9,0.22,4.51-0.2c1.2-0.32,2.34-1.1,3.45-1.92
						c-0.16-0.25-0.25-0.47-0.22-0.64c0.35-2.1,9.45-59.83,9.45-59.83s8.75,28.34,9.1,34.29s4.55,18.54,8.75,24.49
						c0,0,0,2.71,0.55,3.96c0.13,0.3,0.3,0.52,0.5,0.59c0.82,0.27,5.27-0.31,7.18-0.57c0.45-0.06,0.73-0.52,0.58-0.95
						C1032.46,180.36,1032.24,179.7,1031.96,178.9z"/>
					<path class="st27" d="M988.79,181.62c-0.18,3.38-0.3,5.63-0.3,5.63s15.04,9.45,18.89,5.6c3.53-3.53-8.82-10.58-10.62-13.35
						c-1.11,0.82-2.25,1.6-3.45,1.92C991.69,181.84,990.09,181.8,988.79,181.62z"/>
					<path class="st27" d="M1074.63,181.07c0,0-6.98-0.34-9.26-0.57c-0.14-0.01-0.26-0.03-0.38-0.05c-1.8,2.95-5.09,7.06-7.23,7.86
						c-2.8,1.05-10.15,3.15-9.1,5.25s25.54,3.15,25.89,1.4c0.35-1.75,0.35-1.75,0.35-1.75s10.15,0.35,10.85-3.5
						c0.36-1.98-0.76-5.99-1.93-9.42C1080.83,181.2,1074.63,181.07,1074.63,181.07z"/>
					<path class="st27" d="M1084.92,115.53c-0.08-1.09,1.22-7.55,1.91-12.81c-0.42,0-0.91-0.02-1.46-0.04
						c-0.32,0.74-0.55,1.31-0.68,1.64c-0.92,2.52-1.37,16.24-2.86,17.5c-1.49,1.26-1.49-3.89-1.49-3.89l-0.69,4.23
						c-1.94,1.14-1.14-5.83-1.14-5.83s-1.49,5.95-2.63,6.29c-1.14,0.34,0.11-5.49,0.11-5.49s-1.6,5.38-2.74,5.6
						c-1.14,0.23,1.37-8.69,1.37-8.69s-4,3.32-4.12,1.72c-0.11-1.6,4.35-5.95,6.18-8.81c0.43-0.67,0.96-2.63,1.58-5.06
						c-0.32-0.06-0.62-0.13-0.89-0.2c-2.83-0.73-14.52,2.38-16.43,2.9c-0.24,2.53-0.39,5.69-0.04,8.08
						c0.69,4.69,2.4,22.65,3.09,24.48c0.69,1.83-2.29,2.17-1.03,8.69c1.26,6.52,4.46,18.3,1.03,33.28c0,0-0.81,1.01,0.99,1.32
						c0.12,0.02,0.24,0.04,0.38,0.05c2.29,0.23,9.26,0.57,9.26,0.57s6.2,0.13,9.19-0.79c0.9-0.28,1.51-0.65,1.56-1.16
						c0.23-2.17-6.52-41.63-6.52-45.18C1078.86,133.95,1085.04,117.13,1084.92,115.53z"/>
					<path class="st29" d="M1083.22,28.82c0.89-0.1,0.89-1.18,0.69-2.67c-0.2-1.48-0.39-0.89-0.2-2.07c0.2-1.18-0.2-1.78-1.48-2.37
						c-1.28-0.59-0.1-1.09-0.49-2.07c-0.39-0.99-1.28-0.69-1.78-1.78s-0.59,1.09-2.07-0.59c-1.48-1.68-0.99,1.09-2.07-0.2
						c-1.09-1.28-2.67,0.69-2.76,0.1c-0.1-0.59-1.97-1.09-2.37-0.39c-0.39,0.69-1.78,0.2-2.96,0.3c-1.18,0.1-0.69,1.38-1.48,1.38
						s-0.89,1.38-0.79,2.67c0.05,0.67-0.9,0.46-1.48,0.79c-0.52,0.3-0.29,1.11-0.39,1.58c-0.12,0.58-0.04,1.06,0.46,1.48
						c0.12,0.1,0.25,0.2,0.42,0.29c0.89,0.49,1.09,0.1,1.78,0.2c0.69,0.1,0.49-0.49,1.68,0.69c1.18,1.18,2.07-0.1,2.07,0.99
						s1.78,1.18,2.37,1.97c0.59,0.79,1.68,0.49,1.97,1.38c0.3,0.89,2.17,0.39,2.17,0.39s0.49,0.59,1.09,1.38
						c0.59,0.79,1.88,0.2,2.17,0.59c0.13,0.18,0.39,0.66,0.79,0.79c0.09,0.03,0.19,0.05,0.3,0.03c0.47-0.07,1.19-0.92,1.19-0.92
						s0.39-0.69,1.09-1.97C1083.81,29.51,1082.33,28.92,1083.22,28.82z"/>
					<path class="st27" d="M1005.46,47.9c0,0-1.23,0.96-2.02-0.71"/>
					<path class="st27" d="M1004.42,52.17c0,0-2.92-0.34-4.14-1.3"/>
					<path class="st27" d="M1069.37,43.94c0,0,0.69,0.18,1.4,0.36"/>
					<path class="st27" d="M1074.09,33.25c0,0,2.1-0.96,2.72,0.53c0.61,1.49-0.61,4.56-2.1,4.91"/>
					<path class="st27" d="M1067.43,38.68c0,0-1.23,1.05-2.19,0.7"/>
					<path class="st27" d="M1060.79,57.43c0.27-0.39,0.57,0.03,0.57-1.71s0.3-5.2,0.3-5.2"/>
					<path class="st27" d="M1080,69.67c0,0-5.43-18.31,4.68-18.43"/>
					<path class="st27" d="M1013.41,65.78c0,0-6.47,0.24-7.98,0.01"/>
					<path class="st27" d="M1001.82,54.14c0,0-4.43,0.47-5.01,3.26"/>
					<path class="st27" d="M1064.17,137.48c0,0,2.52-19.16,0.78-23.82"/>
					<path class="st27" d="M1078.86,133.95c0,0-3.31,9.42-2.5,14.66c0.82,5.24-1.4,31.91-2.56,32.5"/>
					<line class="st27" x1="1074.9" y1="193.2" x2="1073.1" y2="181.22"/>
					<circle class="st10" cx="1005.28" cy="41.4" r="0.6"/>
					<circle class="st10" cx="1064.99" cy="32.07" r="0.6"/>
				</g>
				<polygon class="st10" points="1019.2,97.62 1012.96,69.43 1007.29,66.03 1013.41,65.78 				"/>
				<path class="st10" d="M1079.32,139.14l-3.17,5.95c0,0,1.43-10.32,2.49-10.4L1079.32,139.14z"/>
				<path class="st10" d="M1060.95,104.59c0,0,15.03-2.59,17.22-0.57l0.1-2.13C1078.26,101.89,1078.12,99.77,1060.95,104.59z"/>
				<path class="st10" d="M1019.62,107.12c0,0-18.49,12.55-30.12,2.43l4.1,1.73l4.36,0.38l12.11-1.28L1019.62,107.12z"/>
			</g>
			<path class="st10" d="M1080.95,21.65c-1.49-3.16-4.76-4.52-7.98-5.24c-3.81-0.85-7.15-0.58-9.61,2.75
				c-0.02,0.02-0.03,0.05-0.04,0.08c-0.15,0.02-0.29,0.07-0.39,0.18c-0.13,0.13-0.25,0.28-0.34,0.45c-0.09,0.16-0.17,0.34-0.22,0.53
				c-0.03,0.11-0.06,0.24-0.05,0.35c0.01,0.19,0.07,0.36,0.21,0.5c0.07,0.07,0.15,0.11,0.23,0.15c-0.16,0.07-0.32,0.15-0.47,0.27
				c-0.36,0.29-0.55,0.75-0.49,1.2c0.06,0.45,0.38,0.81,0.77,1.03c0.02,0.01,0.04,0.02,0.06,0.03c0,0.01-0.01,0.01-0.01,0.02
				c-0.04,0.16-0.03,0.35,0.06,0.5c0.05,0.08,0.12,0.14,0.19,0.2c0,0.03-0.01,0.06-0.01,0.09c0,0.09,0.02,0.17,0.06,0.25
				c0.01,0.05,0.04,0.09,0.07,0.12c-0.09,0.32,0.09,0.75,0.44,0.81c0.87,0.15,1.75,0.02,2.52-0.42c0.29-0.17,0.42-0.59,0.23-0.88
				c-0.03-0.05-0.07-0.08-0.11-0.11c1.32,0.11,2.58-0.62,3.41-1.74c-0.32,0.43,0.48,0.28,0.86,0.34c0.7,0.11,1.47,0.31,2.16,0.51
				c1.1,0.32,1.85,0.59,2.35,1.64C1076.77,29.35,1082.88,25.75,1080.95,21.65z"/>
			<g>
				<polygon class="st10" points="1074.57,31.59 1074.58,31.59 1074.57,31.59 				"/>
				<path class="st10" d="M1076.21,30.7c-0.02,0-0.04,0-0.06,0c-0.06-0.02-0.12-0.03-0.18-0.05c-0.03-0.01-0.05-0.02-0.08-0.03
					c-0.05-0.02-0.11-0.05-0.16-0.07c-0.32-0.14-0.63-0.27-0.98-0.27c-0.15,0-0.31,0.02-0.46,0.06c0.11-0.08,0.21-0.21,0.24-0.34
					c0.04-0.16,0.03-0.35-0.06-0.5c-0.09-0.14-0.22-0.26-0.38-0.3c-0.13-0.03-0.25-0.04-0.38-0.04c-0.16-0.4-0.45-0.73-0.94-0.84
					c-0.28-0.06-0.56,0.05-0.71,0.28c0-0.25,0.01-0.5,0.02-0.74c0.02-0.35-0.31-0.64-0.64-0.64c-0.36,0-0.63,0.3-0.64,0.64
					c-0.02,0.47-0.03,0.93,0.04,1.4c0.07,0.49,0.27,0.91,0.53,1.33c0.23,0.38,0.26,0.78,0.28,1.21c0.02,0.49,0,0.99-0.08,1.47
					c-0.05,0.32,0.05,0.63,0.37,0.76c0.28,0.11,0.66,0.03,0.8-0.26c0.27-0.54,0.53-1.08,0.74-1.64c0.28,0.11,0.67,0.05,0.82-0.25
					c0.02-0.04,0.04-0.09,0.07-0.13c-0.01,0.01-0.01,0.01-0.02,0.02c0.01-0.01,0.02-0.02,0.03-0.03c0,0,0,0,0,0
					c0.02-0.02,0.04-0.04,0.04-0.04c0.02-0.02,0.04-0.03,0.05-0.05c0.02-0.02,0.05-0.03,0.07-0.04c0.01,0,0.02-0.01,0.02-0.01
					c-0.04,0.02-0.07,0.02,0,0c0,0,0,0,0,0c0.01-0.01,0.03-0.01,0.04-0.02c-0.01,0.01-0.02,0.01-0.03,0.02
					c0.04-0.01,0.09-0.02,0.13-0.04c0.01,0,0.03,0,0.03,0c0.01,0,0.03,0,0.04,0c0.1,0.02,0.19,0.05,0.29,0.09
					c0.02,0.01,0.03,0.02,0.05,0.02c0.05,0.02,0.11,0.05,0.16,0.07c0.3,0.13,0.59,0.24,0.93,0.24c0.34,0,0.66-0.3,0.64-0.64
					C1076.84,30.99,1076.57,30.71,1076.21,30.7z"/>
				<path class="st10" d="M1074.38,31.74C1074.38,31.74,1074.38,31.75,1074.38,31.74c0.03-0.02,0.04-0.04,0.04-0.04
					c-0.01,0.01-0.02,0.01-0.02,0.02C1074.39,31.73,1074.38,31.73,1074.38,31.74z"/>
			</g>
			<path class="st10" d="M1084.71,27.98c-0.3-0.19-0.63-0.32-0.95-0.47c-0.16-0.07-0.31-0.15-0.46-0.25
				c-0.03-0.02-0.07-0.04-0.1-0.07c0,0,0,0-0.01,0c-0.01-0.02-0.07-0.06-0.08-0.07c-0.04-0.04-0.08-0.07-0.11-0.11
				c-0.23-0.25-0.68-0.25-0.91,0c-0.24,0.27-0.24,0.65,0,0.91c0.32,0.35,0.72,0.55,1.14,0.75c-0.03,0.08-0.07,0.16-0.09,0.25
				c-0.03,0.13-0.05,0.26-0.05,0.4c-0.01,0.16,0.08,0.34,0.19,0.46c0.06,0.06,0.13,0.11,0.21,0.13c0.02,0.01,0.03,0,0.05,0.01
				c0,0,0,0.01-0.01,0.01c-0.02,0.03-0.03,0.07-0.04,0.1c-0.17-0.15-0.33-0.3-0.49-0.46c-0.24-0.23-0.67-0.26-0.91,0
				c-0.23,0.25-0.26,0.66,0,0.91c0.3,0.29,0.61,0.57,0.9,0.86c0.04,0.04,0.07,0.07,0.1,0.11c0,0,0,0,0,0
				c0.02,0.04,0.04,0.07,0.07,0.11c-0.01,0.01-0.03,0.04-0.04,0.05c-0.02,0.02-0.03,0.03-0.03,0.04c-0.03,0.03-0.06,0.06-0.09,0.08
				c-0.03,0.03-0.06,0.05-0.09,0.08c-0.01,0.01-0.01,0.01-0.01,0.01c0,0,0,0,0,0c-0.15,0.11-0.3,0.23-0.46,0.34
				c-0.13,0.09-0.27,0.17-0.41,0.25c-0.23-0.24-0.45-0.47-0.68-0.71c-0.58-0.6-1.49,0.31-0.91,0.91c0.2,0.21,0.4,0.42,0.61,0.63
				c0,0.07-0.01,0.13,0.02,0.2c0,0,0.01,0.01,0.01,0.01c-0.06,0.01-0.11,0.03-0.17,0.06c-0.02-0.04-0.04-0.08-0.06-0.11
				c-0.25-0.35-0.55-0.68-0.86-0.98c-0.01-0.01-0.02-0.02-0.03-0.03c-0.05-0.12-0.17-0.25-0.27-0.31c-0.04-0.02-0.1-0.03-0.15-0.05
				c-0.55-0.43-1.17-0.73-1.89-0.8c-0.35-0.03-0.64,0.32-0.64,0.64c0,0.38,0.3,0.61,0.64,0.64c0.1,0.01,0.39,0.09,0.49,0.14
				c0.15,0.07,0.32,0.17,0.46,0.27c-0.01,0.07-0.03,0.15-0.04,0.22c-0.04,0.21-0.09,0.42-0.1,0.63c-0.01,0.28,0.1,0.56,0.32,0.74
				c0.18,0.16,0.39,0.25,0.61,0.33c0.03,0.01,0.06,0.01,0.08,0.02c0.09,0.08,0.19,0.15,0.28,0.23c0.15,0.13,0.3,0.27,0.47,0.38
				c0.27,0.16,0.6,0.18,0.87,0.02c0.14-0.08,0.24-0.2,0.3-0.33c0.18,0.03,0.37,0.04,0.56-0.02c0.43-0.14,0.85-0.55,1.02-0.97
				c0.12-0.31,0.06-0.57-0.07-0.8c0.09-0.06,0.18-0.1,0.27-0.16c0.4-0.28,0.86-0.57,1.12-1c0.27-0.45,0.21-0.94-0.04-1.36
				c0.16-0.04,0.31-0.14,0.42-0.29c0.14-0.19,0.28-0.37,0.41-0.56c0.15-0.2,0.32-0.4,0.41-0.64
				C1085.68,28.76,1085.18,28.28,1084.71,27.98z"/>
		</g>
	</g>
	<g class="st0">
		<g>
			<path class="st18" d="M1135.15,139.31l23.71,26.41c4.78-13.93,5-31.57,2.51-36.26c-1.84-3.46-4.63-6.85-6.23-8.66
				c-2.87,1.81-6.65,4.36-10.14,7.23C1139.9,132.22,1135.55,137.61,1135.15,139.31z"/>
			<path class="st6" d="M1225.56,51.29c-5.94-11.88-4.83-31.93-20.05-35.64c-15.22-3.71-21.16-11.14-26.73-1.48c0,0-8.54,0-9.28,5.2
				c-0.74,5.2-9.28,17.08-8.91,25.61c0.37,8.54-2.6,12.25,1.86,20.05c1.95,3.41,2.33,6.67,2.25,9.27c-0.11,3.35-1.02,5.58-0.39,5.58
				c0.25,0-0.38-0.68,4.21-0.64c0.6,0,4.4,1.07,8.58,2.26c0.03-0.32,0.13-0.51,0.32-0.51c1.91,0,11.12,1.43,12.4-2.54
				c0.31-0.98-0.01-2.68-0.73-4.79c-2.21-6.41-8.2-16.57-11.67-21.59c-4.61-6.67-0.95-7.47-0.32-9.85c0.64-2.38-1.11-5.56-1.59-8.9
				c-0.48-3.34,5.72-12.71,5.72-12.71c1.91-3.02,9.22-3.02,9.22-3.02c5.74,2.85,27.67,21.41,26.38,32.1
				c-1.15,9.56-6.19,14.07-6.67,14.39c-0.48,0.32,3.28,5.63,3.96,6.19l7.64-1.51c0.56,0.07,1.97,0.37,3.86,0.85
				c0.44-1.83,1.36-3.76,3.65-6.05C1234.47,58.35,1231.5,63.17,1225.56,51.29z"/>
			<path class="st7" d="M1225.62,69.6c-1.9-0.47-3.31-0.78-3.86-0.85l-7.64,1.51c-0.68-0.56-4.43-5.87-3.96-6.19
				c0.48-0.32,5.52-4.83,6.67-14.39c1.29-10.69-18.84-29.77-26.38-32.1c0,0-7.31,0-9.22,3.02c0,0-6.2,9.38-5.72,12.71
				c0.48,3.34,2.22,6.52,1.59,8.9c-0.64,2.38-4.29,3.18,0.32,9.85c3.47,5.03,9.46,15.18,11.67,21.59c0.72,2.1,1.04,3.81,0.73,4.79
				c-1.27,3.97-10.49,2.54-12.4,2.54c-0.19,0-0.29,0.18-0.32,0.51c-0.25,2.9,5.66,17.51,9.38,19.52c4.13,2.22,20.66,9.54,34.01,0.32
				C1231.82,93.5,1225.23,71.25,1225.62,69.6z"/>
			<path class="st7" d="M1252.27,116.27c0,0-4.77,20.5-6.2,26.06c-1.43,5.56-4.13,14.46-1.27,24.47c0.4,1.41,0.92,3.01,1.5,4.72
				c20.49-22.19,16.94-36.36,16.94-39.52c0-2.26-2.55-13.06-4.35-19.89C1257.01,114.46,1254.34,116.6,1252.27,116.27z"/>
			<path class="st7" d="M1157.55,169.19c0.47-1.12,0.9-2.29,1.31-3.47l-23.71-26.41c0.41-1.7,4.76-7.1,9.85-11.28
				c3.49-2.86,7.27-5.41,10.14-7.23c-0.75-0.85-1.24-1.36-1.24-1.36s-22-11.37-27.09-15.34c-3.87,6.18-11.27,17.79-16.77,25.19
				c-7.79,10.49,16.05,30.2,21.93,34.17s11.28,8.9,16.21,15.73c4.93,6.83-0.48,16.85-0.48,20.18c0,3.34,4.77,5.24,4.77,5.24
				l0.79-6.83C1153.26,197.8,1151.51,183.49,1157.55,169.19z"/>
			<path class="st19" d="M1247.5,78.29c-2.11-3.11-15.1-6.99-21.88-8.69c-0.4,1.65,6.2,23.9-5.14,31.73
				c-13.35,9.22-29.88,1.91-34.01-0.32c-3.72-2-9.62-16.61-9.38-19.52c-4.18-1.18-7.99-2.25-8.58-2.26
				c-4.58-0.04-3.96,0.64-4.21,0.64c-0.63,0,0.28-2.24,0.39-5.58c-4.82,0.18-8.91,0.4-11.12,0.65
				c-8.42,0.95-27.33,26.22-27.81,27.97c-0.06,0.22,0.33,0.63,1.04,1.19c5.09,3.98,27.09,15.34,27.09,15.34s0.49,0.51,1.24,1.36
				c1.6,1.81,4.39,5.19,6.23,8.66c2.49,4.69,2.27,22.33-2.51,36.26c-0.41,1.18-0.83,2.35-1.31,3.47
				c-6.04,14.3-4.29,28.61-4.29,28.61s0.37-0.11,1.04-0.28c4.03-1.01,19.35-4.17,36.78,0.6c16.85,4.61,49.07,3.22,59.63,2.6
				c2.19-0.13,3.47-0.22,3.47-0.22c1.64-3.69-4.35-18.52-7.88-28.97c-0.58-1.71-1.1-3.31-1.5-4.72
				c-2.86-10.01-0.16-18.91,1.27-24.47c1.43-5.56,6.2-26.06,6.2-26.06c2.07,0.33,4.73-1.81,6.62-4.16c0.87-1.08,1.57-2.2,1.97-3.15
				C1262.13,105.94,1250.21,82.26,1247.5,78.29z"/>
			<path class="st8" d="M1250.71,200.72c-10.56,0.61-42.77,2-59.63-2.6c-17.43-4.77-32.75-1.6-36.78-0.6
				c-0.94,9.44-3.52,35.71,0.29,50.77c2.66,10.52,19.19,66.07,32.86,111.7l-9.1,57.63c0,0,0.66,0.09,1.72,0.23
				c4.34,0.57,15.6,1.96,17.85,1.4c0.04-0.01,0.08-0.04,0.12-0.05c1.18-0.48,3.09-3.8,4.91-7.61c2.11,7,3.36,11.15,3.36,11.15
				s1.31-0.08,3.24-0.2c4.72-0.31,13.21-0.91,15.79-1.4c0.48-0.09,0.77-0.18,0.77-0.26c0-0.7-9.55-78.03-9.55-78.03
				s28.65-80.82,30.74-91.54C1249.26,241.28,1254.29,209,1250.71,200.72z"/>
		</g>
	</g>
	<g class="st0">
		<g>
			<path class="st30" d="M1223.12,50.26c-5.94-11.88-4.83-31.93-20.05-35.64c-15.22-3.71-21.16-11.14-26.73-1.48
				c0,0-8.54,0-9.28,5.2c-0.74,5.2-9.28,17.08-8.91,25.61c0.37,8.54-2.6,12.25,1.86,20.05c1.95,3.41,2.33,6.67,2.25,9.27
				c-0.11,3.35-1.02,5.58-0.39,5.58c0.25,0-0.38-0.68,4.21-0.64c0.6,0,4.4,1.07,8.58,2.26c0.03-0.32,0.13-0.51,0.32-0.51
				c1.91,0,11.12,1.43,12.4-2.54c0.31-0.98-0.01-2.68-0.73-4.79c-2.21-6.41-8.2-16.57-11.67-21.59c-4.61-6.67-0.95-7.47-0.32-9.85
				c0.64-2.38-1.11-5.56-1.59-8.9c-0.48-3.34,5.72-12.71,5.72-12.71c1.91-3.02,9.22-3.02,9.22-3.02
				c10.5,3.63,27.67,21.41,26.38,32.1c-1.15,9.56-6.19,14.07-6.67,14.39c-0.48,0.32,3.28,5.63,3.96,6.19l7.64-1.51
				c0.56,0.07,1.97,0.37,3.86,0.85c0.44-1.83,1.36-3.76,3.65-6.05C1232.03,57.31,1229.06,62.14,1223.12,50.26z"/>
			<path class="st30" d="M1223.18,68.56c-1.9-0.47-3.31-0.78-3.86-0.85l-7.64,1.51c-0.68-0.56-4.43-5.87-3.96-6.19
				c0.48-0.32,5.52-4.83,6.67-14.39c1.29-10.69-16.65-28.47-26.38-32.1c0,0-7.31,0-9.22,3.02c0,0-6.2,9.38-5.72,12.71
				c0.48,3.34,2.22,6.52,1.59,8.9c-0.64,2.38-4.29,3.18,0.32,9.85c3.47,5.03,9.46,15.18,11.67,21.59c0.72,2.1,1.04,3.81,0.73,4.79
				c-1.27,3.97-10.49,2.54-12.4,2.54c-0.19,0-0.29,0.18-0.32,0.51c-0.25,2.9,5.66,17.51,9.38,19.52c4.13,2.22,20.66,9.54,34.01,0.32
				C1229.38,92.47,1222.79,70.21,1223.18,68.56z"/>
			<path class="st30" d="M1249.83,115.23c0,0-4.77,20.5-6.2,26.06c-1.43,5.56-4.13,14.46-1.27,24.47c0.4,1.41,0.92,3.01,1.5,4.72
				c20.49-22.19,16.94-36.36,16.94-39.52c0-2.26-2.55-13.06-4.35-19.89C1254.57,113.42,1251.9,115.56,1249.83,115.23z"/>
			<path class="st30" d="M1155.11,168.15c0.47-1.12,0.9-2.29,1.31-3.47l-23.71-26.41c0.41-1.7,4.76-7.1,9.85-11.28
				c3.49-2.86,7.27-5.41,10.14-7.23c-0.75-0.85-1.24-1.36-1.24-1.36s-22-11.37-27.09-15.34c-3.87,6.18-11.27,17.79-16.77,25.19
				c-7.79,10.49,16.05,30.2,21.93,34.17s11.28,8.9,16.21,15.73c4.93,6.83-0.48,16.85-0.48,20.18c0,3.34,4.77,5.24,4.77,5.24
				l0.79-6.83C1150.82,196.76,1149.08,182.46,1155.11,168.15z"/>
			<path class="st30" d="M1245.06,77.25c-2.11-3.11-15.1-6.99-21.88-8.69c-0.4,1.65,6.2,23.9-5.14,31.73
				c-13.35,9.22-29.88,1.91-34.01-0.32c-3.72-2-9.62-16.61-9.38-19.52c-4.18-1.18-7.99-2.25-8.58-2.26
				c-4.58-0.04-3.96,0.64-4.21,0.64c-0.63,0,0.28-2.24,0.39-5.58c-4.82,0.18-8.91,0.4-11.12,0.65
				c-8.42,0.95-27.33,26.22-27.81,27.97c-0.06,0.22,0.33,0.63,1.04,1.19c5.09,3.98,27.09,15.34,27.09,15.34s0.49,0.51,1.24,1.36
				c1.6,1.81,4.39,5.19,6.23,8.66c2.49,4.69,2.27,22.33-2.51,36.26c-0.41,1.18-0.83,2.35-1.31,3.47
				c-6.04,14.3-4.29,28.61-4.29,28.61s0.37-0.11,1.04-0.28c4.03-1.01,19.35-4.17,36.78,0.6c16.85,4.61,49.07,3.22,59.63,2.6
				c2.19-0.13,3.46-0.22,3.46-0.22c1.64-3.69-4.35-18.52-7.88-28.97c-0.58-1.71-1.1-3.31-1.5-4.72
				c-2.86-10.01-0.16-18.91,1.27-24.47c1.43-5.56,6.2-26.06,6.2-26.06c2.07,0.33,4.73-1.81,6.62-4.16c0.87-1.08,1.57-2.2,1.97-3.15
				C1259.69,104.9,1247.77,81.22,1245.06,77.25z"/>
			<path class="st30" d="M1248.27,199.68c-10.56,0.61-42.77,2-59.63-2.6c-17.43-4.77-32.75-1.6-36.78-0.6
				c-0.94,9.44-3.52,35.71,0.29,50.77c2.66,10.52,19.19,66.07,32.86,111.7l-9.1,57.63c0,0,0.66,0.09,1.72,0.23
				c4.34,0.57,15.6,1.96,17.85,1.4c0.04-0.01,0.08-0.04,0.12-0.05c1.18-0.48,3.09-3.8,4.91-7.61c2.11,7,3.36,11.15,3.36,11.15
				s1.31-0.08,3.24-0.2c4.72-0.31,13.21-0.91,15.79-1.4c0.48-0.09,0.77-0.18,0.77-0.26c0-0.7-9.55-78.03-9.55-78.03
				s28.65-80.82,30.74-91.54C1246.82,240.25,1251.85,207.96,1248.27,199.68z"/>
		</g>
		<path class="st30" d="M1196.01,41.77c0.41,0.14,3.86,1.66,3.45,4c-0.41,2.35-4.69,1.38-4.69,1.38"/>
		<path class="st30" d="M1205.81,54.6c0,0-3.86,5.79-11.87,2.76"/>
		<circle class="st10" cx="1187.05" cy="39.73" r="1.41"/>
		<circle class="st10" cx="1202.89" cy="36.05" r="1.41"/>
		<path class="st30" d="M1207.72,63.03c0,0-2.01,8.29-13.89,2.82"/>
		<path class="st30" d="M1132.71,138.28c0,0-9.81-3.84-14.59-0.97"/>
		<line class="st30" x1="1244.35" y1="139" x2="1255.17" y2="138.62"/>
	</g>
</g>
</svg>
