<svg width="1440" height="294" viewBox="0 0 1440 294" fill="none" xmlns="http://www.w3.org/2000/svg">
<g clip-path="url(#clip0_1097_3373)">
<rect width="1440" height="294" fill="#1D5392"/>
<path d="M1179.5 277.96L1173.68 210.268C1173.52 208.43 1174.88 206.782 1176.76 206.557L1245.29 198.847C1247.15 198.635 1248.78 199.941 1248.95 201.797L1254.77 269.488C1254.93 271.327 1253.57 272.975 1251.69 273.199L1183.16 280.91C1181.3 281.121 1179.64 279.811 1179.5 277.96Z" stroke="#2B66AA" stroke-width="1.5" stroke-miterlimit="10"/>
<path d="M1129.14 63.4063L1156.82 23.6561C1157.16 23.171 1156.84 22.5038 1156.26 22.4517L1107.97 18.3627C1107.39 18.3159 1106.96 18.917 1107.21 19.454L1127.81 63.2934C1128.07 63.8303 1128.8 63.8965 1129.14 63.4063Z" stroke="#2B66AA" stroke-width="1.5" stroke-miterlimit="10"/>
<g clip-path="url(#clip1_1097_3373)">
<path d="M1117.44 291.304H1117.57C1117.61 290.334 1118.13 285.166 1118.97 284.694C1125.68 280.888 1131.61 268.246 1133.58 264.104C1135.68 259.689 1138.3 251.711 1138.4 248.558C1138.51 245.412 1141.33 238.783 1142.7 235.742C1143.58 233.748 1144.24 231.671 1144.7 229.542C1147.32 227.863 1147.53 223.554 1147.53 223.554C1147.53 223.554 1160.74 209.792 1166.62 206.012C1172.49 202.231 1174.9 195.714 1174.9 195.714C1183.8 188.992 1193.04 175.019 1193.04 175.019L1179.21 170.398L1166.09 182.587C1166.09 182.587 1163.05 186.685 1161.89 187.524C1160.74 188.364 1150.35 194.352 1149.1 195.714C1147.84 197.076 1138.4 203.17 1138.4 203.593C1138.4 204.015 1137.77 202.231 1137.77 202.231C1137.77 202.231 1154.76 189.732 1156.86 188.053C1158.95 186.374 1171.32 174.21 1171.32 174.21L1142.92 172.923C1142.92 172.923 1135.66 177.164 1133.49 178.912C1131.57 180.441 1126.56 185.845 1126.56 185.845L1122.16 178.7C1122.16 178.7 1124.46 178.178 1128.24 174.913C1132.02 171.655 1140.37 163.67 1140.37 163.67L1131.07 142.241C1129.08 143.337 1127.18 144.604 1125.41 146.028C1124.45 146.889 1123.54 147.8 1122.68 148.758C1122.68 148.758 1122.79 142.875 1122.9 141.719C1123 140.562 1126.99 138.46 1129.82 132.895C1132.65 127.336 1136.74 114.513 1131.07 105.583C1131.07 105.583 1129.4 101.591 1122.58 101.902C1122.58 101.902 1119.22 102.424 1117.76 103.581C1117.76 103.581 1112.72 111.143 1111.57 114.718C1111.57 114.718 1109.16 118.816 1108.21 119.973C1107.27 121.13 1096.15 133.629 1095 136.781C1093.84 139.928 1089.97 145.705 1087.77 148.652C1085.57 151.588 1082.42 160.312 1078.54 165.361C1075.34 169.676 1073.58 174.895 1073.51 180.273C1073.51 184.06 1068.79 195.608 1069 212.311C1069.21 229.02 1063.12 251.811 1061.34 261.057C1060.09 267.562 1052.12 291.304 1052.12 291.304H1117.45L1117.44 291.304Z" fill="#3673B8"/>
<path d="M1265.34 125.775C1266.25 126.461 1266.92 127.412 1267.27 128.498C1267.4 128.71 1267.53 128.921 1267.64 129.139C1267.79 129.416 1267.86 129.726 1267.86 130.041L1276.38 132.665L1283.94 114.65L1267.09 109.171L1261.38 123.001C1262.95 123.489 1264.34 124.459 1265.34 125.775Z" fill="#468FBA"/>
<path d="M1257.09 121.627C1258.42 121.72 1259.72 121.963 1261.04 122.168C1261.24 122.201 1261.44 122.282 1261.61 122.404L1267.08 109.178L1259.07 99.2158L1252.68 116.683L1255.82 121.627C1256.24 121.599 1256.66 121.599 1257.09 121.627Z" fill="#90BCD6"/>
<path d="M1266.47 110.925L1259.07 99.2097L1273.24 101.46L1283.92 114.65L1266.47 110.925Z" fill="#6BA5C8"/>
<path d="M1266.19 111.484L1283.64 115.209L1276.08 133.225L1259.23 128.032L1266.12 111.373L1266.19 111.484Z" stroke="#031A54" stroke-width="1.00467" stroke-miterlimit="10"/>
<path d="M1266.12 111.373L1259.23 128.032L1252.4 117.237L1258.78 99.7693L1266.12 111.373Z" stroke="#031A54" stroke-width="1.00467" stroke-miterlimit="10"/>
<path d="M1283.64 115.209L1266.19 111.484L1266.12 111.373L1258.78 99.7693L1272.95 102.02L1283.64 115.209Z" stroke="#031A54" stroke-width="1.00467" stroke-miterlimit="10"/>
<path d="M1271.53 121.158C1274.26 119.323 1275.61 116.523 1274.53 114.904C1273.44 113.286 1270.35 113.462 1267.61 115.298C1264.87 117.133 1263.53 119.934 1264.61 121.552C1265.69 123.17 1268.79 122.994 1271.53 121.158Z" fill="#0A3C76"/>
<path d="M1271.27 119.228C1273.14 117.971 1274.06 116.054 1273.32 114.947C1272.58 113.84 1270.46 113.961 1268.59 115.218C1266.71 116.474 1265.79 118.391 1266.53 119.499C1267.27 120.606 1269.39 120.485 1271.27 119.228Z" fill="#90BCD6"/>
<path d="M1254.12 120.029C1254.52 119.569 1261.88 103.662 1261.88 103.662L1271.24 105.471L1274.44 109.625" stroke="#031A54" stroke-width="0.841869" stroke-miterlimit="10"/>
<path d="M1260.13 108.438L1262.28 112.38" stroke="#031A54" stroke-width="0.841869" stroke-miterlimit="10"/>
<path d="M1257.13 114.731L1259.09 117.075" stroke="#031A54" stroke-width="0.841869" stroke-miterlimit="10"/>
<path d="M1262.28 114.09C1263.01 113.973 1263.5 113.288 1263.38 112.559C1263.26 111.83 1262.58 111.333 1261.86 111.45C1261.13 111.566 1260.64 112.252 1260.76 112.981C1260.88 113.71 1261.56 114.206 1262.28 114.09Z" fill="#031A54"/>
<path d="M1259.28 118.393C1260.01 118.277 1260.5 117.591 1260.38 116.862C1260.27 116.133 1259.58 115.637 1258.86 115.753C1258.14 115.87 1257.64 116.555 1257.76 117.284C1257.88 118.013 1258.56 118.51 1259.28 118.393Z" fill="#031A54"/>
<path d="M1119.03 291.304H1119.16C1119.2 290.334 1119.72 284.775 1120.56 284.296C1127.27 280.49 1133.2 267.848 1135.17 263.706C1137.27 259.291 1139.89 251.307 1139.99 248.16C1140.1 245.014 1142.92 238.385 1144.29 235.344C1145.16 233.35 1145.83 231.273 1146.29 229.144C1148.9 227.465 1149.12 223.156 1149.12 223.156C1149.12 223.156 1162.33 209.394 1168.2 205.614C1174.08 201.827 1176.48 195.316 1176.48 195.316C1185.39 188.594 1194.63 174.621 1194.63 174.621L1179.22 170.398L1167.68 182.189C1167.68 182.189 1164.64 186.287 1163.48 187.126C1162.33 187.966 1151.94 193.954 1150.69 195.316C1149.43 196.678 1139.98 202.772 1139.98 203.195C1139.98 203.611 1139.36 201.833 1139.36 201.833C1139.36 201.833 1156.35 189.334 1158.45 187.655C1160.54 185.976 1172.34 174.652 1172.34 174.652L1144.5 172.531C1144.5 172.531 1137.25 176.772 1135.07 178.52C1133.16 180.049 1128.15 185.453 1128.15 185.453L1123.74 178.308C1123.74 178.308 1126.04 177.786 1129.82 174.521C1133.6 171.263 1139.79 165.281 1139.79 165.281L1132.65 141.849C1130.66 142.945 1128.77 144.212 1126.99 145.636C1125.75 146.706 1123.4 149.044 1123.4 149.044C1123.4 149.044 1124.37 142.49 1124.48 141.327C1124.58 140.164 1128.57 138.069 1131.4 132.503C1134.23 126.931 1138.32 114.115 1132.66 105.192C1132.66 105.192 1130.98 101.199 1124.17 101.51C1124.17 101.51 1120.81 102.033 1119.34 103.189C1119.34 103.189 1114.31 110.751 1113.16 114.326C1113.16 114.326 1110.75 118.424 1109.8 119.581C1108.85 120.738 1097.74 133.237 1096.59 136.39C1095.43 139.536 1091.55 145.313 1089.35 148.261C1087.15 151.196 1084 159.92 1080.13 164.963C1076.92 169.28 1075.16 174.501 1075.09 179.882C1075.09 183.669 1070.37 195.216 1070.58 211.919C1070.79 228.622 1064.71 251.419 1062.93 260.666C1061.67 267.17 1053.7 291.304 1053.7 291.304" stroke="#031A54" stroke-width="0.763379" stroke-miterlimit="10"/>
<path d="M1149.12 223.162C1149.12 223.162 1141.6 205.309 1139.69 202.697C1137.78 200.085 1139.69 200.216 1136.59 197.113C1133.67 194.19 1128.15 185.447 1128.15 185.447C1128.15 185.447 1123.08 176.138 1121.23 175.889" stroke="#031A54" stroke-width="0.763379" stroke-miterlimit="10"/>
<path d="M1124.48 141.327C1124.48 141.327 1123.83 147.714 1122.59 151.314C1121.36 154.914 1120.6 158.633 1120.98 164.472C1121.29 169.329 1122.1 173.899 1119.86 178.246C1119.86 178.246 1132 197.735 1121.35 242.663" stroke="#031A54" stroke-width="0.763379" stroke-miterlimit="10"/>
<path d="M1120.57 284.296C1119.99 283.749 1110.95 265.504 1089.88 251.35" stroke="#031A54" stroke-width="0.763379" stroke-miterlimit="10"/>
<path d="M1110.21 118.673C1110.21 118.673 1100.17 131.452 1100.05 134.686C1099.94 137.441 1099.12 140.127 1098.82 142.857C1098.37 146.986 1092.24 162.109 1090.69 166.375C1088.93 171.238 1087.01 183.464 1080.96 185.329" stroke="#031A54" stroke-width="0.763379" stroke-miterlimit="10"/>
<path d="M1100.42 133.312C1100.42 133.312 1107.73 136.29 1112.06 136.663C1112.06 136.663 1113.8 136.906 1114.54 137.901" stroke="#031A54" stroke-width="0.763379" stroke-miterlimit="10"/>
<path d="M1132.67 105.192C1132.67 105.192 1133.25 110.975 1129.91 114.7C1126.56 118.425 1125.45 118.798 1121.86 118.3C1118.27 117.803 1114.67 115.446 1113.68 115.57C1112.69 115.695 1115.04 110.732 1115.04 110.732" stroke="#031A54" stroke-width="0.763379" stroke-miterlimit="10"/>
<path d="M1295.82 291.304C1295.3 290.782 1289.4 255.162 1289.06 247.52C1288.71 239.877 1288.88 200.608 1288.88 200.608C1288.88 200.608 1289.57 188.967 1289.75 186.355C1289.92 183.743 1291.83 181.492 1284.54 170.367C1277.26 159.249 1266.33 129.189 1266.33 129.189C1266.33 129.189 1265.47 124.152 1255.4 119.631C1245.34 115.11 1225.57 98.258 1224.35 96.6971C1223.13 95.1301 1215.16 85.9267 1211 88.8743C1206.83 91.8281 1207.19 102.082 1210.48 106.075C1213.77 110.067 1216.21 116.148 1221.05 118.934C1221.05 118.934 1224.52 126.403 1227.12 129.008L1226.44 133.001C1226.44 133.001 1230.95 135.432 1233.03 136.128C1233.03 136.128 1233.72 152.464 1245.87 157.153C1245.87 157.153 1243.79 158.888 1242.92 160.803C1242.92 160.803 1232.86 142.042 1225.75 136.999L1222.45 153.677C1222.45 153.677 1223.31 157.153 1225.23 157.85C1225.23 157.85 1225.4 169.491 1230.6 173.483C1230.6 173.483 1230.25 184.253 1234.59 189.645L1232.68 189.819C1232.68 189.819 1224.87 177.307 1223.83 166.188C1223.06 163.374 1221.49 160.842 1219.32 158.894C1215.68 155.592 1209.09 138.74 1201.28 135.09C1193.47 131.44 1189.84 134.045 1187.76 137.702C1185.68 141.352 1184.11 146.731 1186.89 154.038C1189.66 161.332 1195.9 176.971 1199.2 182.015C1202.16 186.548 1205.32 190.739 1207.19 195.894C1208.74 200.141 1209.53 204.594 1210.53 208.99C1211.47 213.094 1213.62 217.273 1213.95 221.458C1214.44 227.869 1213.08 240.219 1220.54 253.769C1227.99 267.319 1238.05 282.791 1238.4 291.304H1295.82L1295.82 291.304Z" fill="#3673B8"/>
<path d="M1296.64 291.304C1296.12 290.782 1290.22 254.715 1289.88 247.072C1289.53 239.43 1289.7 200.16 1289.7 200.16C1289.7 200.16 1290.39 188.519 1290.57 185.907C1290.74 183.296 1292.65 181.044 1285.36 169.92C1278.08 158.795 1267.15 128.741 1267.15 128.741C1267.15 128.741 1266.29 123.704 1256.22 119.183C1246.16 114.662 1226.39 97.8102 1225.17 96.2494C1223.95 94.6823 1215.98 85.479 1211.82 88.4265C1207.65 91.3741 1208.01 101.635 1211.3 105.627C1214.59 109.619 1217.03 115.701 1221.87 118.487C1221.87 118.487 1225.34 125.955 1227.94 128.561L1227.26 132.553C1227.26 132.553 1231.77 134.984 1233.85 135.681C1233.85 135.681 1234.54 152.017 1246.69 156.705C1246.69 156.705 1244.61 158.44 1243.74 160.356C1243.74 160.356 1233.68 141.594 1226.57 136.551L1223.27 153.229C1223.27 153.229 1224.13 156.705 1226.05 157.402C1226.05 157.402 1226.22 169.043 1231.42 173.035C1231.42 173.035 1231.07 183.805 1235.41 189.197L1233.5 189.371C1233.5 189.371 1225.69 176.859 1224.65 165.741C1223.88 162.926 1222.31 160.394 1220.14 158.446C1216.5 155.144 1209.91 138.292 1202.1 134.642C1194.29 130.992 1190.66 133.598 1188.58 137.254C1186.5 140.904 1184.93 146.283 1187.71 153.59C1190.48 160.884 1196.72 176.524 1200.02 181.567C1202.85 185.907 1205.9 189.918 1207.78 194.812C1209.41 199.072 1210.25 203.555 1211.26 207.983C1212.23 212.267 1214.43 216.645 1214.77 221.004C1215.26 227.409 1213.9 239.765 1221.36 253.315C1228.81 266.865 1238.87 282.785 1239.22 291.298" stroke="#031A54" stroke-width="0.763379" stroke-miterlimit="10"/>
<path d="M1199.17 133.361C1199.17 133.361 1206.28 138.908 1207.57 143.814C1207.57 143.814 1209.78 147.141 1207.27 148.777C1204.77 150.412 1194.57 156.071 1193.18 157.01C1191.78 157.949 1190.79 154.846 1190.67 154.672C1190.55 154.498 1186.19 145.158 1186.3 143.056C1186.41 140.954 1189.1 133.89 1193.23 133.311C1197.37 132.727 1199.17 133.361 1199.17 133.361Z" stroke="#031A54" stroke-width="0.763379" stroke-miterlimit="10"/>
<path d="M1218.87 165.704C1218.87 165.704 1215.26 174.926 1202.9 177.674" stroke="#031A54" stroke-width="0.763379" stroke-miterlimit="10"/>
<path d="M1243.74 160.374C1243.74 160.374 1247.49 176.119 1241.59 185.261C1240.73 186.598 1238.11 189.029 1235.42 189.222" stroke="#031A54" stroke-width="0.763379" stroke-miterlimit="10"/>
<path d="M1233.14 189.464C1233.14 189.464 1244.27 193.55 1247.31 199.855C1247.83 200.843 1248.12 201.944 1248.12 203.064" stroke="#031A54" stroke-width="0.763379" stroke-miterlimit="10"/>
<path d="M1227.55 127.995C1229.88 131.732 1234.88 135.233 1234.88 135.233C1235.18 146.613 1246.54 156.369 1246.69 156.724" stroke="#031A54" stroke-width="0.763379" stroke-miterlimit="10"/>
<path d="M1228.02 98.9856C1228.02 98.9856 1247.48 118.362 1251.15 120.931C1252.07 121.831 1252.73 122.957 1253.07 124.195C1253.71 126.347 1266.18 144.275 1267.34 145.388C1268.51 146.501 1276.08 158.409 1276.49 164.298" stroke="#031A54" stroke-width="0.763379" stroke-miterlimit="10"/>
<path d="M1222.66 154L1226.65 133.33L1227.34 129.338C1224.73 126.726 1221.27 119.264 1221.27 119.264C1216.41 116.484 1213.98 110.403 1210.69 106.404C1208.93 104.271 1208.01 100.354 1208.17 96.7159L1208.12 96.6662C1207.25 95.6463 1196.01 80.6412 1194.14 78.1414L1183.24 113.07C1183.24 113.07 1193.92 126.111 1199.46 134.58C1200.15 134.823 1200.83 135.101 1201.49 135.413C1209.3 139.064 1215.89 155.916 1219.53 159.218C1220.06 159.693 1220.55 160.204 1221 160.747L1222.84 154.591C1222.72 154.237 1222.66 154 1222.66 154Z" fill="#6BA5C8"/>
<path d="M1194.18 78.5332C1194.01 78.3093 1193.9 78.1787 1193.9 78.1787L1175.99 85.162L1174.48 89.7948L1165.33 122.075L1183.35 113.257L1194.18 78.5332Z" fill="#90BCD6"/>
<path d="M1183.28 113.468L1183.35 113.251L1165.33 122.069L1165.26 122.336L1187.14 154.747C1184.37 147.452 1185.93 142.061 1188.01 138.411C1189.9 135.096 1193.09 132.659 1199.51 134.972C1193.96 126.509 1183.28 113.468 1183.28 113.468Z" fill="#90BCD6"/>
<path d="M1195.01 77.6997C1194.85 77.4758 1194.74 77.3452 1194.74 77.3452L1176.84 84.3285L1175.32 88.9613L1166.16 121.248L1184.19 112.424L1195.01 77.6997Z" stroke="#031A54" stroke-width="0.763379" stroke-miterlimit="10"/>
<path d="M1184.12 112.629L1184.19 112.411L1166.16 121.235L1166.09 121.503L1187.97 153.913C1185.2 146.619 1186.76 141.228 1188.84 137.577C1190.74 134.263 1193.92 131.825 1200.34 134.132C1194.8 125.669 1184.12 112.629 1184.12 112.629Z" stroke="#031A54" stroke-width="0.763379" stroke-miterlimit="10"/>
<path d="M1223.53 153.565L1227.52 132.895L1228.21 128.903C1225.6 126.291 1222.13 118.829 1222.13 118.829C1217.28 116.049 1214.85 109.967 1211.56 105.969C1209.8 103.836 1208.88 99.9184 1209.04 96.2806L1208.99 96.2309C1208.12 95.211 1196.88 80.2059 1195.01 77.7061L1184.11 112.635C1184.11 112.635 1194.79 125.675 1200.33 134.145C1201.02 134.388 1201.7 134.666 1202.36 134.978C1210.17 138.628 1216.76 155.48 1220.4 158.782C1220.93 159.258 1221.42 159.769 1221.87 160.312L1223.7 154.156C1223.59 153.795 1223.53 153.565 1223.53 153.565Z" stroke="#031A54" stroke-width="0.763379" stroke-miterlimit="10"/>
<path d="M1177.19 137.926L1181.25 156.021L1190.95 161.475C1189.79 158.583 1188.76 155.928 1187.99 153.913L1177.19 137.926Z" fill="#90BCD6" stroke="#031A54" stroke-width="0.763379" stroke-miterlimit="10"/>
<path d="M1177.19 137.926L1181.25 156.021L1190.95 161.475C1189.79 158.583 1188.76 155.928 1187.99 153.913L1177.19 137.926Z" fill="#0A3C76" stroke="#031A54" stroke-width="0.763379" stroke-miterlimit="10"/>
<path d="M1179.61 156.475L1175.54 138.38L1164.45 121.95L1168.53 107.163L1162.69 90.1741L1141.29 98.7493L1143.09 106.019L1157.68 164.329C1164.41 161.941 1174.72 158.285 1179.71 156.55L1179.61 156.475Z" fill="#468FBA"/>
<path d="M1189.29 161.935L1179.76 156.569L1157.69 164.342L1157.73 164.497L1184.59 178.831L1194.69 174.646C1192.89 170.709 1190.96 166.077 1189.29 161.935Z" fill="#90BCD6"/>
<path d="M1181.39 155.885L1177.32 137.789L1166.23 121.366L1170.31 106.578L1166.72 90.6156L1164.47 89.5771L1143.07 98.1462L1144.87 105.416L1159.46 163.726C1166.19 161.338 1176.5 157.682 1181.49 155.947L1181.39 155.885Z" stroke="#031A54" stroke-width="0.763379" stroke-miterlimit="10"/>
<path d="M1191.08 161.338L1181.56 155.972L1159.48 163.745L1159.52 163.9L1186.38 178.234L1196.48 174.049C1194.67 170.112 1192.74 165.48 1191.08 161.338Z" stroke="#031A54" stroke-width="0.763379" stroke-miterlimit="10"/>
<path d="M1173.67 93.9982L1164.33 89.7136L1169.82 107.984L1173.67 93.9982Z" fill="#0A3C76" stroke="#031A54" stroke-width="0.763379" stroke-miterlimit="10"/>
<path d="M1143.05 103.55C1142.18 100.528 1141.75 98.2953 1141.75 98.2953L1144.45 97.1573L1146.65 88.7126L1129.35 93.1588L1126.73 101.84C1130.43 102.754 1131.47 105.185 1131.47 105.185C1135.44 111.435 1134.62 119.575 1132.81 125.806L1137.91 124.034L1143.05 103.55Z" fill="#6BA5C8"/>
<path d="M1167.32 168.906L1158.19 164.031L1154.65 149.871C1150.48 143.448 1146.4 137.037 1143.35 132.23L1137.89 124.096L1137.91 124.046L1132.81 125.818C1132.15 128.121 1131.28 130.358 1130.21 132.503C1127.58 137.689 1123.95 139.866 1123.37 141.072L1149.28 180.678L1172.24 175.361C1171.33 174.478 1169.57 172.14 1167.32 168.906Z" fill="#6BA5C8"/>
<path d="M1169.45 169.422L1168.5 168.918C1170.75 172.146 1172.51 174.49 1173.42 175.361L1174.08 171.897L1169.45 169.422Z" fill="#90BCD6" stroke="#031A54" stroke-width="0.763379" stroke-miterlimit="10"/>
<path d="M1144.23 103.55C1143.36 100.528 1142.93 98.2953 1142.93 98.2953L1145.63 97.1573L1147.84 88.7126L1130.54 93.1588L1127.92 101.84C1131.62 102.754 1132.67 105.185 1132.67 105.185C1136.63 111.435 1135.81 119.575 1134 125.806L1139.1 124.034L1144.23 103.55Z" stroke="#031A54" stroke-width="0.763379" stroke-miterlimit="10"/>
<path d="M1168.5 168.906L1159.38 164.031L1155.83 149.871C1151.66 143.448 1147.58 137.037 1144.53 132.23L1139.07 124.096L1139.08 124.046L1133.99 125.818C1133.33 128.122 1132.46 130.36 1131.39 132.503C1128.76 137.689 1125.12 139.866 1124.55 141.072L1150.46 180.678L1173.42 175.361C1172.52 174.478 1170.76 172.14 1168.5 168.906Z" stroke="#031A54" stroke-width="0.763379" stroke-miterlimit="10"/>
<path d="M1139.08 124.096L1144.54 132.23C1147.6 137.043 1151.68 143.448 1155.84 149.871L1155.52 148.609L1146.02 110.676C1145.6 109.178 1144.78 106.342 1144.03 103.724L1139.08 124.096Z" fill="#0A3C76" stroke="#031A54" stroke-width="0.763379" stroke-miterlimit="10"/>
<path d="M1152.56 94.3841L1147.83 88.7063L1145.63 97.151L1152.56 94.3841Z" fill="#031A54" stroke="#031A54" stroke-width="0.763379" stroke-miterlimit="10"/>
<path d="M1161.57 93.395L1166.38 108.985L1150.82 116.061L1145.45 100.198L1161.57 93.395Z" fill="#0A3C76"/>
<path d="M1189.57 79.2231L1182.51 105.863L1174.3 109.551" stroke="#031A54" stroke-width="0.763379" stroke-miterlimit="10"/>
<path d="M1157.9 141.57L1161.57 158.857L1175.43 154.324L1172.61 137.882L1157.9 141.57Z" fill="#0A3C76"/>
<path d="M1151.95 159.989L1134 125.812L1141.49 95.3792" stroke="#031A54" stroke-width="0.763379" stroke-miterlimit="10"/>
<path d="M1130.17 134.767L1148.2 167.93C1148.96 169.312 1150.14 170.408 1151.57 171.05C1153.01 171.692 1154.61 171.843 1156.14 171.48L1160.44 170.467" stroke="#031A54" stroke-width="0.763379" stroke-miterlimit="10"/>
<path d="M1186.18 108.239L1217.58 147.235" stroke="#031A54" stroke-width="0.763379" stroke-miterlimit="10"/>
<path d="M1188.1 103.413L1205.13 124.624C1205.59 125.216 1206.21 125.67 1206.91 125.938C1207.61 126.206 1208.37 126.277 1209.11 126.144C1209.85 126.011 1210.54 125.679 1211.1 125.183C1211.67 124.688 1212.09 124.047 1212.31 123.331L1213.63 119.183" stroke="#031A54" stroke-width="0.763379" stroke-miterlimit="10"/>
<path d="M1164.12 162.538L1184.2 174.154" stroke="#031A54" stroke-width="0.763379" stroke-miterlimit="10"/>
<path d="M1172.04 159.423L1182.22 165.368" stroke="#031A54" stroke-width="0.763379" stroke-miterlimit="10"/>
<path d="M1162.14 172.829C1163.2 172.216 1163.49 170.728 1162.79 169.506C1162.08 168.283 1160.65 167.789 1159.59 168.402C1158.53 169.015 1158.25 170.503 1158.95 171.726C1159.65 172.948 1161.08 173.442 1162.14 172.829Z" fill="#031A54" stroke="#031A54" stroke-width="0.763379" stroke-miterlimit="10"/>
<path d="M1214.88 121.398C1215.94 120.785 1216.23 119.297 1215.53 118.074C1214.82 116.852 1213.39 116.358 1212.33 116.971C1211.27 117.584 1210.99 119.072 1211.69 120.294C1212.39 121.517 1213.82 122.011 1214.88 121.398Z" fill="#031A54" stroke="#031A54" stroke-width="0.763379" stroke-miterlimit="10"/>
<path d="M1218.85 149.442C1219.91 148.829 1220.2 147.341 1219.49 146.119C1218.79 144.896 1217.36 144.402 1216.3 145.015C1215.24 145.628 1214.95 147.116 1215.65 148.339C1216.36 149.561 1217.79 150.055 1218.85 149.442Z" fill="#031A54"/>
<path d="M1174.95 111.28C1176.17 111.28 1177.16 110.135 1177.16 108.724C1177.16 107.312 1176.17 106.168 1174.95 106.168C1173.72 106.168 1172.73 107.312 1172.73 108.724C1172.73 110.135 1173.72 111.28 1174.95 111.28Z" fill="#031A54"/>
<path d="M1153.6 162.854C1154.52 162.219 1154.66 160.817 1153.91 159.722C1153.16 158.627 1151.8 158.253 1150.88 158.888C1149.96 159.522 1149.82 160.924 1150.57 162.019C1151.33 163.114 1152.68 163.488 1153.6 162.854Z" fill="#031A54" stroke="#031A54" stroke-width="0.763379" stroke-miterlimit="10"/>
<path d="M1141.25 96.8571C1142.56 96.6659 1143.49 95.6127 1143.33 94.5047C1143.17 93.3967 1141.98 92.6536 1140.66 92.8449C1139.35 93.0361 1138.42 94.0893 1138.58 95.1973C1138.74 96.3053 1139.93 97.0484 1141.25 96.8571Z" fill="#031A54"/>
<path d="M1140.77 112.461L1156.8 104.302L1147.71 87.0212L1131.99 96.6165L1140.77 112.461Z" fill="#468FBA"/>
<path d="M1148.37 112.933L1163.84 104.682L1157.45 103.594L1140.75 112.399L1148.37 112.933Z" fill="#6BA5C8"/>
<path d="M1156.37 103.68L1163.84 104.682L1154.45 87.1334L1147.71 87.0212L1156.37 103.68Z" fill="#90BCD6"/>
<path d="M1147.76 87.6433L1147.83 87.7426L1147.72 87.6868L1156.5 104.029L1141.69 113.307L1132 97.0084L1147.76 87.6433Z" stroke="#031A54" stroke-width="0.876687" stroke-linejoin="round"/>
<path d="M1147.83 87.7426L1154.78 87.668L1164.29 105.546L1156.59 104.066L1156.5 104.029L1147.72 87.6868L1147.83 87.7426Z" stroke="#031A54" stroke-width="0.876687" stroke-linejoin="round"/>
<path d="M1156.5 104.029L1156.59 104.066L1164.29 105.546L1148.38 114.14L1141.69 113.307L1156.5 104.029Z" stroke="#031A54" stroke-width="0.876687" stroke-linejoin="round"/>
<path d="M1147.5 151.65L1165.23 148.752L1161.82 129.531L1143.24 132.833L1147.5 151.65Z" fill="#468FBA"/>
<path d="M1154.58 154.411L1171.83 151.258L1166.07 148.279L1147.5 151.588L1154.58 154.411Z" fill="#90BCD6"/>
<path d="M1165.02 148.031L1171.83 151.258L1168.2 131.682L1161.82 129.531L1165.02 148.031Z" fill="#6BA5C8"/>
<path d="M1148.7 153.136L1148.82 153.111L1148.7 153.068L1166.22 149.517L1163.02 131.01L1144.45 134.313L1148.7 153.136Z" stroke="#031A54" stroke-width="0.876687" stroke-linejoin="round"/>
<path d="M1148.82 153.111L1155.79 155.897L1173.03 152.744L1166.31 149.56L1166.22 149.517L1148.7 153.068L1148.82 153.111Z" stroke="#031A54" stroke-width="0.876687" stroke-linejoin="round"/>
<path d="M1166.22 149.517L1166.31 149.56L1166.32 149.66C1166.61 149.809 1166.9 149.952 1167.19 150.108L1169.41 133.168L1163.03 131.017L1166.22 149.517Z" stroke="#031A54" stroke-width="0.876687" stroke-linejoin="round"/>
<path d="M1186.03 176.002L1198.14 168.844L1206.31 179.409L1194.31 186.405L1186.03 176.002Z" fill="#468FBA"/>
<path d="M1186.19 166.798L1197.24 159.597L1198.14 168.844L1186.03 176.001L1186.19 166.798Z" fill="#6BA5C8"/>
<path d="M1197.04 169.578L1197.24 159.597L1205.08 167.14L1206.31 179.409L1197.04 169.578Z" fill="#90BCD6"/>
<path d="M1198.09 169.447L1207.35 179.278L1195.36 186.274L1187.07 175.871L1198.09 169.348V169.447Z" stroke="#031A54" stroke-width="0.733811" stroke-miterlimit="10"/>
<path d="M1198.09 169.348L1187.07 175.871L1187.24 166.661L1198.29 159.466L1198.09 169.348Z" stroke="#031A54" stroke-width="0.733811" stroke-miterlimit="10"/>
</g>
<path d="M966.441 11C987.428 11 1004.44 28.0132 1004.44 49C1004.44 69.9868 987.428 87 966.441 87C945.455 87 928.441 69.9868 928.441 49C928.441 28.0132 945.455 11 966.441 11Z" stroke="#2B66AA" stroke-width="1.5" stroke-miterlimit="10"/>
<path d="M743.441 -23C758.905 -23 771.441 -10.464 771.441 5C771.441 20.464 758.905 33 743.441 33C727.977 33 715.441 20.464 715.441 5C715.441 -10.464 727.977 -23 743.441 -23Z" stroke="#2B66AA" stroke-width="1.5" stroke-miterlimit="10"/>
<path d="M429.553 24.6555L411.753 60.0638C411.271 61.026 410.088 61.4275 409.086 60.9646L372.684 43.8482C371.695 43.3843 371.287 42.2387 371.768 41.264L389.568 5.85567C390.05 4.89352 391.233 4.49204 392.235 4.95497L428.637 22.0714C429.626 22.5353 430.048 23.6924 429.553 24.6555Z" stroke="#2B66AA" stroke-width="1.5" stroke-miterlimit="10"/>
<path d="M550.702 230.591L549.949 317.261C549.945 318.323 548.786 318.965 547.883 318.439L473.189 274.45C472.284 273.91 472.287 272.594 473.21 272.07L548.642 229.378C549.579 228.866 550.719 229.528 550.702 230.591Z" stroke="#2B66AA" stroke-width="1.5" stroke-miterlimit="10"/>
<path d="M145.943 12.8026L151.763 80.494C151.923 82.3323 150.558 83.9805 148.679 84.2048L80.1499 91.9155C78.2889 92.1268 76.6635 90.8209 76.4909 88.9653L70.6707 21.2738C70.5107 19.4355 71.8762 17.7872 73.7551 17.563L142.284 9.85235C144.145 9.64105 145.801 10.9514 145.943 12.8026Z" stroke="#2B66AA" stroke-width="1.5" stroke-miterlimit="10"/>
<path d="M775.672 280.43L772.468 243.167C772.38 242.155 773.131 241.248 774.166 241.124L811.889 236.88C812.914 236.763 813.809 237.482 813.904 238.504L817.108 275.767C817.196 276.779 816.444 277.686 815.41 277.809L777.686 282.054C776.661 282.17 775.75 281.449 775.672 280.43Z" stroke="#2B66AA" stroke-width="1.5" stroke-miterlimit="10"/>
<path d="M97.0786 265.436L120.654 231.566C120.945 231.152 120.672 230.584 120.176 230.539L79.05 227.055C78.5499 227.015 78.1889 227.527 78.403 227.985L95.9443 265.34C96.1673 265.798 96.7925 265.854 97.0786 265.436Z" stroke="#2B66AA" stroke-width="1.5" stroke-miterlimit="10"/>
<path d="M1429.87 101.534C1405.23 101.534 1385.26 121.5 1385.26 146.13C1385.26 170.76 1405.23 190.726 1429.87 190.726C1454.51 190.726 1474.48 170.76 1474.48 146.13C1474.48 121.5 1454.51 101.534 1429.87 101.534Z" stroke="#2B66AA" stroke-width="1.5" stroke-miterlimit="10"/>
<path d="M243.771 196.988C243.771 196.988 242.549 188.852 238.89 188.31C235.231 187.768 236.874 195.846 236.874 195.846C236.874 195.846 239.335 198.461 218.005 206.443C215.739 207.293 219.827 210.741 222.328 210.506C228.998 209.867 243.367 207.025 243.367 207.025L240.647 199.554L243.771 196.988Z" fill="#B5D2E3"/>
<path d="M246.386 197.158C246.386 197.158 245.164 189.022 241.505 188.48C237.846 187.938 239.489 196.016 239.489 196.016C239.489 196.016 241.95 198.631 220.62 206.613C218.353 207.463 222.441 210.911 224.942 210.676C231.613 210.037 245.981 207.195 245.981 207.195L243.261 199.724L246.386 197.158Z" fill="#6BA5C8"/>
<path d="M304.443 117.893C305.024 117.893 305.495 117.479 305.495 116.97C305.495 116.46 305.024 116.047 304.443 116.047C303.862 116.047 303.39 116.46 303.39 116.97C303.39 117.479 303.862 117.893 304.443 117.893Z" fill="#B5D2E3"/>
<path d="M291.547 117.269C292.129 117.269 292.6 116.856 292.6 116.346C292.6 115.837 292.129 115.424 291.547 115.424C290.966 115.424 290.495 115.837 290.495 116.346C290.495 116.856 290.966 117.269 291.547 117.269Z" fill="#B5D2E3"/>
<path d="M356.38 182.62C356.816 182.184 356.849 181.51 356.454 181.115C356.059 180.72 355.385 180.753 354.949 181.189C354.513 181.626 354.479 182.3 354.874 182.695C355.27 183.09 355.944 183.057 356.38 182.62Z" fill="#B5D2E3"/>
<path d="M351.96 230.031C352.751 230.031 353.392 229.466 353.392 228.768C353.392 228.071 352.751 227.506 351.96 227.506C351.168 227.506 350.527 228.071 350.527 228.768C350.527 229.466 351.168 230.031 351.96 230.031Z" fill="#B5D2E3"/>
<path d="M348.462 236.442C349.254 236.442 349.895 235.877 349.895 235.18C349.895 234.482 349.254 233.917 348.462 233.917C347.671 233.917 347.03 234.482 347.03 235.18C347.03 235.877 347.671 236.442 348.462 236.442Z" fill="#B5D2E3"/>
<path d="M295.061 145.78C295.061 145.78 295.271 145.836 295.627 145.941C298.218 146.654 309.008 149.447 311.582 147.261C309 149.438 297.643 146.492 295.061 145.78Z" fill="#B5D2E3"/>
<path d="M295.061 145.779C297.651 146.492 309.008 149.438 311.583 147.261C311.672 146.921 311.761 146.597 311.85 146.273C311.906 146.063 311.963 145.868 312.012 145.666C312.068 145.456 312.125 145.245 312.182 145.043C312.254 144.776 312.327 144.525 312.392 144.274C312.441 144.096 312.489 143.926 312.538 143.764C312.586 143.602 312.627 143.44 312.667 143.294C312.74 143.035 312.805 142.792 312.87 142.558C312.894 142.461 312.926 142.363 312.951 142.274C313.023 142.023 313.088 141.781 313.153 141.562L312.918 141.522L314.019 132.536C313.817 131.994 313.695 131.549 313.695 131.549C313.695 131.549 313.938 131.055 314.294 130.294C314.294 130.294 317.969 121.624 317.063 120.54C315.768 118.985 302.686 111.473 301.262 105.256C301.262 105.256 295.304 114.452 292.195 114.97C291.89 115.004 291.582 114.926 291.329 114.752L291.677 121.964C291.677 121.964 283.647 127.015 293.102 127.015C293.102 127.015 291.03 134.787 297.376 136.211L296.745 138.81C296.801 138.818 296.85 138.826 296.85 138.826L295.061 145.779Z" fill="#B5D2E3"/>
<path d="M295.061 145.78L296.752 138.81C295.538 138.607 282.651 136.568 278.215 140.485C272.646 145.407 272.775 173.254 272.775 173.254L240.655 199.546L243.375 207.017C243.375 207.017 264.721 208.256 271.553 203.828C271.334 203.302 271.205 202.986 271.205 202.986L295.061 145.78Z" fill="#B5D2E3"/>
<path d="M296.85 138.826C296.85 138.826 296.809 138.818 296.744 138.81L295.053 145.779L296.85 138.826Z" fill="#B5D2E3"/>
<path d="M295.627 145.933C295.271 145.836 295.061 145.771 295.061 145.771L271.197 202.97C271.197 202.97 271.326 203.286 271.545 203.812C271.699 204.184 271.909 204.67 272.152 205.228C273.981 209.462 278.037 218.237 280.514 218.982C282.845 219.678 293.409 215.638 299.278 213.267C299.447 212.88 299.682 212.526 299.974 212.222C300.192 211.967 300.369 211.681 300.5 211.372C302.994 206.159 306.612 183.145 305.284 178.677C304.435 175.811 307.559 162.576 310.214 152.401C310.352 151.867 310.489 151.341 310.627 150.831C310.676 150.636 310.724 150.458 310.773 150.264C310.854 149.956 310.935 149.657 311.016 149.357C311.072 149.131 311.137 148.904 311.194 148.685C311.259 148.434 311.323 148.2 311.388 147.957C311.453 147.722 311.518 147.487 311.574 147.253V147.245C309 149.438 298.21 146.645 295.627 145.933Z" fill="#B5D2E3"/>
<path d="M317.904 214.878C316.819 215.145 313.161 207.56 313.161 207.56C310.004 207.301 306.668 209.915 304.038 212.732C302.409 214.496 300.926 216.388 299.602 218.391C299.746 218.768 299.914 219.135 300.103 219.492C300.103 219.492 306.968 223.329 312.124 223.288C313.062 221.582 314.137 219.955 315.338 218.423C316.989 216.262 318.349 214.764 317.904 214.878Z" fill="#B5D2E3"/>
<path d="M408.495 166.26C408.495 166.26 396.765 159.16 392.443 169.344C392.443 169.344 392.645 162.034 384.623 162.552C384.623 162.552 381.741 153.292 371.865 156.279C371.865 156.279 362.71 151.033 359.415 158.853C359.415 158.853 355.813 160.812 357.359 162.763C357.359 162.763 351.507 166.243 354.437 173.343C355.732 171.165 356.542 169.449 356.542 169.449C356.954 173.464 361.69 171.61 361.69 171.61C360.047 177.884 370.125 176.961 370.125 176.961C367.348 180.871 369.607 185.194 369.607 185.194C371.25 187.768 375.783 187.662 379.175 186.432C382.567 185.194 384.728 190.342 384.218 194.252C383.7 198.162 379.175 198.056 379.175 198.056C379.175 198.056 378.535 200.396 377.945 202.428C380.082 204.136 382.445 205.544 383.182 204.33C383.182 204.33 379.58 201.448 383.287 200.007C383.287 200.007 384.93 207.001 389.358 202.679C393.786 198.356 390.281 192.082 390.281 192.082C390.281 192.082 401.185 195.166 396.968 186.732C396.968 186.732 401.703 188.48 403.452 187.039C405.2 185.606 421.147 176.241 408.495 166.26Z" fill="#B5D2E3"/>
<path d="M317.904 214.878C316.819 215.145 313.161 207.56 313.161 207.56C310.004 207.301 306.668 209.915 304.038 212.732C302.409 214.496 300.926 216.388 299.602 218.391C299.746 218.768 299.914 219.135 300.103 219.492C300.103 219.492 306.968 223.329 312.124 223.288C313.062 221.582 314.137 219.955 315.338 218.423C316.989 216.262 318.349 214.764 317.904 214.878Z" fill="#B5D2E3"/>
<path d="M348.503 187.663C348.503 187.663 344.593 187.865 342.327 187.144C341.955 187.027 341.618 186.818 341.347 186.537C341.663 192.188 341.89 196.858 342.189 199.279C342.428 201.62 341.8 203.967 340.424 205.876C345.144 205.844 350.729 206.305 351.919 206.41C352.316 204.5 352.607 203.197 352.607 203.197C343.768 199.497 348.503 187.663 348.503 187.663Z" fill="#1D5392"/>
<path d="M292.697 272.756C292.494 270.319 291.466 258.072 290.471 247.605C289.17 246.925 287.826 246.33 286.448 245.824C286.512 246.048 286.563 246.275 286.601 246.504L289.896 273.922C290.479 273.962 291.054 274.011 291.62 274.059C291.92 273.663 292.276 273.217 292.697 272.756Z" fill="#B5D2E3"/>
<path d="M271.504 239.753L279.931 241.145L279.964 241.008L271.504 239.753Z" fill="#B5D2E3"/>
<path d="M290.471 247.605C291.466 258.072 292.494 270.32 292.697 272.756C295.384 269.834 300.808 266.321 311.396 267.98L316.148 264.613C311.137 262.346 300.605 253.531 292.478 248.714C291.79 248.301 291.126 247.945 290.471 247.605Z" fill="#B5D2E3"/>
<path d="M265.384 220.868C265.384 220.868 281.089 225.539 284.634 221.613C284.634 221.613 284.594 222.867 284.505 224.737L287.063 224.6C298.654 238.806 316.301 239.559 316.301 239.559L319.402 233.472C319.402 233.472 319.013 221.944 313.832 223.11C313.27 223.226 312.698 223.283 312.124 223.28C306.968 223.321 300.103 219.484 300.103 219.484C299.916 219.126 299.748 218.759 299.602 218.383C299.108 217.12 298.517 214.991 299.278 213.275C293.417 215.647 282.845 219.686 280.514 218.99C278.037 218.245 273.981 209.47 272.152 205.237C269.472 206.734 264.907 220.568 260.115 237.867L268.93 239.324L265.384 220.868Z" fill="#B5D2E3"/>
<path d="M286.431 245.816C286.504 246.041 286.561 246.271 286.601 246.504C286.567 246.274 286.516 246.047 286.448 245.824C286.439 245.824 286.439 245.824 286.431 245.816Z" fill="#B5D2E3"/>
<path d="M342.197 199.279C341.898 196.867 341.671 192.188 341.355 186.537C341.005 186.198 340.795 185.739 340.766 185.252C340.738 184.765 340.893 184.285 341.202 183.907C340.238 167.563 338.401 145.221 332.273 143.764C323.595 141.692 313.566 140.089 313.566 140.089C313.566 140.089 313.412 140.615 313.153 141.554C310.231 151.94 307.163 162.512 305.536 173.197C305.285 174.873 304.783 177.01 305.277 178.685C306.604 183.154 302.986 206.168 300.492 211.381C300.361 211.689 300.184 211.976 299.966 212.231C299.674 212.535 299.439 212.888 299.27 213.275C298.509 214.999 299.1 217.12 299.594 218.383C300.923 216.384 302.406 214.492 304.03 212.724C306.661 209.907 310.004 207.293 313.153 207.552C313.153 207.552 316.812 215.145 317.896 214.87C318.342 214.756 316.982 216.254 315.322 218.415C314.118 219.945 313.043 221.572 312.109 223.28C312.682 223.283 313.255 223.226 313.817 223.11C318.997 221.944 319.386 233.472 319.386 233.472L323.085 226.486C325.206 222.422 327.489 218.091 329.391 214.53C331.48 210.612 333.115 207.633 333.576 207.009C334.183 206.176 337.089 205.9 340.425 205.876C341.804 203.969 342.435 201.621 342.197 199.279Z" fill="#B5D2E3"/>
<path d="M379.166 186.295C375.775 187.533 371.242 187.63 369.598 185.056C369.598 185.056 367.332 180.733 370.116 176.824C370.116 176.824 360.03 177.746 361.681 171.473C361.681 171.473 356.946 173.327 356.533 169.312C356.533 169.312 355.724 171.028 354.428 173.205C352.21 176.953 348.56 182.085 345.111 182.28C343.023 182.401 341.8 183.016 341.201 183.777C340.892 184.155 340.737 184.635 340.765 185.123C340.794 185.61 341.004 186.069 341.355 186.408C341.626 186.689 341.963 186.898 342.335 187.015C344.601 187.736 348.511 187.533 348.511 187.533C348.511 187.533 343.776 199.368 352.623 203.067C352.623 203.067 352.324 204.371 351.935 206.281C350.875 211.413 349.118 220.973 350.462 221.799C352.227 222.875 370.578 213.688 376.228 206.354C376.508 205.996 376.767 205.623 377.005 205.237C377.368 204.277 377.678 203.299 377.936 202.306C378.527 200.266 379.166 197.935 379.166 197.935C379.166 197.935 383.691 198.04 384.209 194.131C384.72 190.204 382.558 185.056 379.166 186.295Z" fill="#B5D2E3"/>
<path d="M271.504 239.753L279.931 241.145L271.504 239.753Z" fill="#B5D2E3"/>
<path d="M268.922 239.324L260.115 237.875L268.922 239.324Z" fill="#B5D2E3"/>
<path d="M316.302 239.559C316.302 239.559 298.655 238.806 287.063 224.6L284.505 224.737C284.27 229.748 283.72 239.251 282.764 241.429L279.955 241.008L279.923 241.146L280.433 241.227C280.769 241.232 281.105 241.261 281.437 241.316C281.542 241.332 281.639 241.356 281.744 241.38C281.972 241.43 282.196 241.492 282.416 241.566C282.522 241.599 282.627 241.631 282.732 241.672C282.999 241.779 283.258 241.904 283.509 242.044C283.654 242.128 283.795 242.22 283.93 242.319C284.035 242.392 284.149 242.465 284.246 242.546C284.401 242.664 284.55 242.791 284.691 242.926C284.74 242.975 284.788 243.024 284.837 243.08C285.168 243.411 285.461 243.778 285.711 244.173C285.808 244.327 285.897 244.489 285.978 244.651C286.087 244.861 286.184 245.077 286.269 245.298C286.304 245.391 286.334 245.486 286.359 245.582C286.383 245.662 286.415 245.743 286.44 245.824C287.817 246.332 289.161 246.926 290.463 247.605C291.118 247.945 291.782 248.301 292.478 248.714C300.597 253.531 311.137 262.346 316.148 264.613L320.616 261.448C331.998 251.515 316.302 239.559 316.302 239.559Z" fill="#B5D2E3"/>
<path d="M286.366 245.582C286.391 245.654 286.407 245.743 286.423 245.816C286.431 245.816 286.439 245.824 286.447 245.824C286.423 245.743 286.399 245.662 286.366 245.582Z" fill="#B5D2E3"/>
<path d="M281.445 241.324C281.114 241.265 280.778 241.235 280.441 241.235C280.778 241.232 281.114 241.261 281.445 241.324Z" fill="#B5D2E3"/>
<path d="M286.277 245.298C286.188 245.072 286.091 244.861 285.986 244.651C286.095 244.861 286.192 245.077 286.277 245.298Z" fill="#B5D2E3"/>
<path d="M284.691 242.926C284.74 242.975 284.788 243.032 284.837 243.08C284.793 243.025 284.744 242.973 284.691 242.926Z" fill="#B5D2E3"/>
<path d="M283.509 242.044C283.26 241.9 283 241.776 282.732 241.672C282.998 241.779 283.258 241.904 283.509 242.044Z" fill="#B5D2E3"/>
<path d="M284.246 242.546C284.14 242.465 284.035 242.392 283.93 242.319C284.035 242.392 284.14 242.465 284.246 242.546Z" fill="#B5D2E3"/>
<path d="M282.416 241.566C282.196 241.491 281.972 241.429 281.744 241.38C281.972 241.43 282.196 241.492 282.416 241.566Z" fill="#B5D2E3"/>
<path d="M286.367 245.581C286.334 245.484 286.31 245.395 286.278 245.298C286.31 245.395 286.342 245.484 286.367 245.581Z" fill="#B5D2E3"/>
<path d="M285.986 244.651C285.905 244.489 285.816 244.327 285.719 244.173C285.816 244.327 285.905 244.489 285.986 244.651Z" fill="#B5D2E3"/>
<path d="M281.745 241.38C281.639 241.356 281.542 241.34 281.437 241.315C281.542 241.34 281.648 241.356 281.745 241.38Z" fill="#B5D2E3"/>
<path d="M284.246 242.546C284.402 242.664 284.55 242.791 284.691 242.926C284.553 242.797 284.4 242.667 284.246 242.546Z" fill="#B5D2E3"/>
<path d="M285.719 244.173C285.469 243.777 285.176 243.411 284.845 243.08C285.173 243.413 285.466 243.779 285.719 244.173Z" fill="#B5D2E3"/>
<path d="M283.93 242.319C283.795 242.22 283.654 242.128 283.509 242.044C283.655 242.133 283.792 242.222 283.93 242.319Z" fill="#B5D2E3"/>
<path d="M282.732 241.672C282.627 241.631 282.522 241.599 282.416 241.566C282.522 241.599 282.627 241.631 282.732 241.672Z" fill="#B5D2E3"/>
<path d="M279.931 241.145L280.441 241.227L279.931 241.145Z" fill="#B5D2E3"/>
<path d="M268.922 239.324L271.504 239.754L268.922 239.324Z" fill="#B5D2E3"/>
<path d="M268.93 239.373L271.504 239.754L268.922 239.324L268.93 239.373Z" fill="#B5D2E3"/>
<path d="M265.385 220.868L268.931 239.332L271.513 239.761L279.972 241.016L282.781 241.437C283.736 239.259 284.287 229.764 284.521 224.745C284.61 222.867 284.651 221.621 284.651 221.621C281.081 225.538 265.385 220.868 265.385 220.868Z" fill="#3673B8"/>
<path d="M290.301 276.124C290.438 276.01 290.827 275.177 291.628 274.068C291.054 274.019 290.479 273.97 289.904 273.93L290.204 276.391C290.204 276.293 290.238 276.199 290.301 276.124Z" fill="#B5D2E3"/>
<path d="M291.45 286.793C291.433 286.756 291.42 286.718 291.41 286.679C290.9 284.13 289.929 277.775 290.196 276.383L289.896 273.922L286.601 246.504C286.561 246.27 286.488 246.043 286.431 245.816C286.407 245.735 286.399 245.654 286.375 245.582C286.342 245.484 286.318 245.395 286.286 245.298C286.202 245.077 286.105 244.86 285.994 244.651C285.913 244.489 285.824 244.327 285.727 244.173C285.475 243.779 285.182 243.413 284.853 243.08C284.804 243.032 284.756 242.975 284.707 242.926C284.562 242.789 284.416 242.667 284.262 242.546C284.157 242.465 284.052 242.392 283.946 242.319C283.811 242.22 283.671 242.128 283.525 242.044C283.274 241.904 283.015 241.779 282.748 241.672C282.643 241.631 282.538 241.599 282.433 241.567C282.212 241.491 281.988 241.429 281.761 241.38C281.664 241.356 281.558 241.34 281.453 241.316C281.129 241.259 268.946 239.365 268.946 239.365L232.43 233.569C232.287 233.545 232.14 233.558 232.002 233.605C231.864 233.652 231.74 233.733 231.641 233.839C231.542 233.945 231.47 234.075 231.433 234.215C231.395 234.356 231.393 234.504 231.427 234.645L236.13 274.594C236.193 275.137 236.422 275.647 236.786 276.055C237.149 276.464 237.63 276.75 238.162 276.876L291.823 289.707L291.45 286.793Z" fill="#B5D2E3"/>
<path d="M320.633 279.013C320.827 276.901 318.601 273.63 316.763 271.307C315.5 269.72 314.416 268.571 314.416 268.571C313.363 268.328 312.368 268.142 311.396 267.988C300.808 266.329 295.385 269.834 292.697 272.764C292.314 273.181 291.955 273.619 291.62 274.076C290.811 275.185 290.431 276.018 290.293 276.132C290.232 276.208 290.195 276.301 290.188 276.399L291.442 286.809C292.276 289.294 301.917 283.838 299.408 286.137C297.756 287.643 299.91 289.521 302.144 290.808C303.374 291.512 303.811 290.832 304.483 291.026C305.787 291.407 309.259 289.861 311.85 287.942C313.023 287.076 314.181 286.38 315.185 286.242C316.607 286.032 317.888 285.266 318.746 284.113C318.827 284.016 320.479 280.697 320.633 279.013Z" fill="#B5D2E3"/>
<path d="M313.161 207.56C313.161 207.56 329.529 196.664 329.529 195.239C329.529 193.815 321.677 164.543 321.677 164.543" fill="#B5D2E3"/>
<path d="M351.927 206.41L342.553 214.861C342.553 214.861 347.904 225.037 349.159 223.96C350.405 222.892 333.811 248.949 333.811 248.949" fill="#B5D2E3"/>
<path d="M376.106 207.908L381.279 212.19C381.279 212.19 372.359 229.505 369.679 229.505C367 229.505 362.896 222.721 362.896 222.721" fill="#B5D2E3"/>
<path d="M314.416 268.563C314.416 268.563 358.8 266.976 362.548 256.809L314.416 268.563Z" fill="#B5D2E3"/>
<path d="M377.086 286.234C382.631 280.786 395.939 257.772 399.509 239.106C400.95 231.593 400.82 224.794 397.971 220.123C397.971 220.123 388.751 212.198 382.987 212.635L383.416 210.474L376.22 206.491C370.561 213.825 352.21 223.013 350.454 221.936C349.102 221.111 350.867 211.551 351.927 206.418C350.737 206.313 345.152 205.844 340.432 205.884C337.097 205.908 334.199 206.184 333.584 207.017C333.131 207.641 331.496 210.62 329.399 214.538C327.497 218.099 325.214 222.438 323.093 226.494C319.458 233.439 316.293 239.567 316.293 239.567C316.293 239.567 331.997 251.523 320.616 261.464L316.148 264.629L311.396 267.996C312.359 268.15 313.363 268.336 314.415 268.579C314.415 268.579 315.5 269.729 316.763 271.315C318.608 273.638 320.834 276.917 320.632 279.022C320.502 280.644 319.986 282.212 319.126 283.595L318.965 283.838C318.9 283.935 318.827 284.024 318.754 284.113C318.754 284.113 350.794 288.743 369.622 289.059C370.006 289.067 370.389 289.012 370.756 288.897C372.189 288.452 376.042 287.254 377.086 286.234Z" fill="#B5D2E3"/>
<path d="M352.615 203.205C352.615 203.205 358.079 203.383 358.848 203.383L352.615 203.205Z" fill="#B5D2E3"/>
<path d="M297.376 136.203C299.097 136.278 300.821 136.117 302.5 135.726L297.376 136.203Z" fill="#B5D2E3"/>
<path d="M291.677 121.956C292.179 121.964 296.42 118.208 296.55 117.901L291.677 121.956Z" fill="#B5D2E3"/>
<path d="M295.198 113.902C295.198 113.902 290.091 112.178 288.609 111.684C287.128 111.19 286.084 113.408 286.084 113.408C286.084 113.408 285.161 118.152 289.532 119.382C293.903 120.612 295.506 115.626 295.506 115.626C296.987 114.517 299.448 115.626 299.448 115.626C299.448 115.626 302.031 129.298 309.365 118.888L312.457 113.675" fill="#1D5392"/>
<path d="M299.44 115.626C300.384 114.498 301.673 113.713 303.108 113.389C304.543 113.066 306.044 113.223 307.381 113.837" fill="#B5D2E3"/>
<path d="M312.684 123.138C312.684 123.138 315.517 123.324 312.619 125.785L312.684 123.138Z" fill="#B5D2E3"/>
<path d="M293.101 127.007C293.101 127.007 295.878 126.158 296.299 125.631L293.101 127.007Z" fill="#B5D2E3"/>
<path d="M376.868 183.137C376.868 183.137 381.919 185.979 384.347 182.822C384.347 182.822 390.038 189.354 393.616 184.926" fill="#B5D2E3"/>
<path d="M378.446 190.083C378.446 190.083 383.918 189.346 379.288 194.187L378.446 190.083Z" fill="#B5D2E3"/>
<path d="M379.167 198.056C379.167 198.056 375.079 197.668 375.079 196.615L379.167 198.056Z" fill="#B5D2E3"/>
<path d="M392.443 169.344C392.443 169.344 391.714 177.868 398.352 173.966C404.99 170.072 397.405 167.223 395.51 172.493C393.616 177.754 396.984 177.754 397.299 177.86C397.615 177.965 400.562 180.806 402.351 179.543C404.14 178.281 400.667 177.123 398.773 178.07C396.879 179.017 392.872 182.385 394.458 183.016" fill="#B5D2E3"/>
<path d="M356.963 169.651C357.91 169.23 364.547 160.698 366.652 164.074C368.757 167.442 360.435 162.811 363.285 160.496" fill="#B5D2E3"/>
<path d="M371.857 156.279C371.857 156.279 366.433 157.752 367.283 159.962L371.857 156.279Z" fill="#B5D2E3"/>
<path d="M366.336 174.079C367.073 174.29 375.71 174.557 375.921 171.448C376.026 169.87 375.71 164.705 371.396 166.187" fill="#B5D2E3"/>
<path d="M221.025 266.741C221.146 266.741 235.887 268.959 235.887 268.959L221.025 266.741Z" fill="#B5D2E3"/>
<path d="M330.913 286.113L322.972 308.39L270.031 300.894L282.384 287.432" fill="#5AA3CE"/>
<path d="M196.886 278.981L240.785 288.023L200.415 306.989L158.5 299.93L196.886 278.981Z" fill="#5AA3CE"/>
<path d="M273.342 286.995L250.838 290.962L252.83 296.482L277.09 292.289L273.342 286.995Z" fill="#5AA3CE"/>
<path d="M177.976 153.591C180.154 155.34 183.732 156.643 183.732 156.643C195.421 158.035 194.903 142.598 194.903 142.598C194.903 142.598 197.08 142.42 197.784 140.85C198.481 139.279 196.214 131.249 196.214 131.249C199.444 128.157 197.024 121.956 195.955 119.657C187.593 116.913 177.717 122.142 177.717 124.879C177.717 127.671 172.043 126.627 170.561 124.619C169.298 122.911 163.697 124.862 162.045 125.486C163.381 132.965 157.294 144.411 157.294 146.087L172.739 160.917L177.976 153.591ZM170.035 134.835C166.109 134.487 163.316 129.598 165.235 126.546C167.153 123.494 171.695 128.027 171.695 128.027C171.695 128.027 167.161 123.494 165.235 126.546C163.316 129.606 166.109 134.487 170.035 134.835H170.035Z" fill="#B5D2E3"/>
<path d="M196.643 107.968C194.376 106.576 180.332 105.872 174.835 104.738C169.339 103.605 163.664 104.042 163.235 105.783C162.806 107.523 160.354 109.182 159.398 115.731C158.435 122.272 161.576 125.68 161.576 125.68C161.576 125.68 161.762 125.607 162.045 125.494C163.697 124.87 169.298 122.919 170.561 124.628C172.043 126.635 177.717 127.679 177.717 124.887C177.717 122.15 187.593 116.929 195.955 119.665C196.125 119.722 196.303 119.762 196.473 119.827C196.959 120.013 198.91 109.361 196.643 107.968Z" fill="#B5D2E3"/>
<path d="M192.142 210.142C197.225 208.596 200.86 207.341 200.86 207.341L201.378 209.122C204.171 206.483 208.17 202.67 210.007 200.744C212.986 197.619 218.094 194.074 217.382 197.765C216.669 201.456 208.866 207.697 208.866 207.697C208.866 207.697 230.593 199.756 230.86 196.348C231.046 193.944 224.95 193.547 224.95 193.547C224.95 193.547 207.878 194.503 210.574 194.219C213.269 193.936 218.944 187.695 218.24 186.133C217.527 184.57 209.724 191.095 206.041 192.09C202.349 193.086 201.499 197.482 200.22 200.177C199.079 202.589 190.895 204.775 189.195 205.204C189.001 205.253 188.863 205.285 188.863 205.285L183.99 204.994L185.779 211.996C188.046 211.364 190.199 210.733 192.142 210.142Z" fill="#B5D2E3"/>
<path d="M217.39 197.765C218.102 194.074 212.995 197.619 210.016 200.744C208.178 202.67 204.179 206.483 201.386 209.122L202.819 214.011L204.462 219.621C209.506 219.362 217.09 218.99 221.373 218.901C228.181 218.755 225.064 214.788 225.064 214.788C225.064 214.788 233.434 212.943 236.275 210.676C239.117 208.41 223.793 210.531 216.556 210.393C215.455 210.38 214.357 210.286 213.27 210.11C209.182 209.413 208.89 207.697 208.89 207.697C208.89 207.697 216.678 201.448 217.39 197.765Z" fill="#B5D2E3"/>
<path d="M198.326 261.043L196.837 255.206L192.15 236.871L190.482 230.339C198.488 225.789 204.972 221.386 204.972 221.386L204.454 219.613L202.811 214.003L201.378 209.114L200.86 207.333C200.86 207.333 197.225 208.588 192.142 210.134C190.199 210.725 188.046 211.356 185.787 211.988L183.998 204.986L180.178 190.05L172.73 160.925L157.285 146.095C157.285 146.095 129.673 160.488 130.855 193.191C132.029 225.895 136.028 234.84 130.151 246.602C129.804 247.302 129.501 248.024 129.244 248.763C125.165 260.476 132.644 276.561 153.448 274.132C164.028 272.894 175.029 270.959 183.634 269.275C193.024 267.438 199.565 265.9 199.565 265.9L199.492 265.624L198.326 261.043Z" fill="#B5D2E3"/>
<path d="M237.716 267.13C240.217 258.048 241.537 251.458 240.808 249.427C237.538 240.279 197.379 236.807 192.15 236.88L196.837 255.214L198.326 261.051L199.492 265.625C204.114 265.948 228.715 267.244 237.716 267.13Z" fill="#B5D2E3"/>
<path d="M175.588 152.458C177.765 154.206 181.343 155.51 181.343 155.51C193.032 156.902 192.514 141.465 192.514 141.465C192.514 141.465 194.692 141.287 195.396 139.716C196.092 138.146 193.826 130.116 193.826 130.116C197.055 127.024 194.635 120.823 193.567 118.524C185.204 115.78 175.329 121.009 175.329 123.745C175.329 126.538 169.654 125.494 168.173 123.486C166.91 121.778 161.308 123.729 159.657 124.352C160.993 131.832 154.905 143.278 154.905 144.954L170.35 159.784L175.588 152.458Z" fill="#468FBA"/>
<path d="M189.997 210.798C195.08 209.252 198.715 207.997 198.715 207.997L199.233 209.778C202.026 207.139 206.025 203.326 207.862 201.4C210.841 198.275 215.949 194.729 215.237 198.421C214.524 202.112 206.721 208.353 206.721 208.353C206.721 208.353 228.448 200.412 228.715 197.004C228.901 194.6 222.805 194.203 222.805 194.203C222.805 194.203 205.733 195.158 208.429 194.875C211.125 194.592 216.799 188.351 216.095 186.788C215.382 185.226 207.579 191.75 203.896 192.746C200.204 193.742 199.354 198.137 198.075 200.833C196.934 203.245 183.853 205.301 183.853 205.301L186.726 212.846C188.977 212.206 188.054 211.389 189.997 210.798Z" fill="#468FBA"/>
<path d="M215.245 198.413C215.958 194.721 210.85 198.267 207.871 201.391C206.033 203.318 202.034 207.131 199.242 209.77L200.674 214.659L202.318 220.269C207.361 220.01 214.946 219.637 219.228 219.548C226.036 219.403 222.919 215.436 222.919 215.436C222.919 215.436 231.289 213.591 234.131 211.324C236.972 209.057 221.648 211.178 214.411 211.041C213.31 211.028 212.212 210.933 211.125 210.757C207.037 210.061 206.745 208.345 206.745 208.345C206.745 208.345 214.533 202.104 215.245 198.413Z" fill="#468FBA"/>
<path d="M191.85 262.241L192.87 265.001C197.485 265.325 234.648 268.798 234.648 268.798C234.065 257.7 235.053 252.632 234.333 250.617C231.062 241.469 190.903 237.997 185.674 238.069L190.361 256.404L191.85 262.241Z" fill="#5AA3CE"/>
<path d="M195.947 259.901L194.457 254.065L189.77 235.73L188.103 229.197C196.108 224.648 202.592 220.245 202.592 220.245L202.074 218.472L200.431 212.862L198.998 207.973L198.48 206.192C198.48 206.192 194.846 207.446 189.762 208.993C187.819 209.584 185.666 210.215 183.408 210.846L181.619 203.844L177.798 188.909L170.351 159.784L154.905 144.954C154.905 144.954 127.294 159.347 128.476 192.05C129.649 224.753 133.648 233.698 127.771 245.46C127.424 246.161 127.122 246.883 126.865 247.622C122.785 259.335 130.265 275.419 151.068 272.991C161.648 271.752 172.649 269.818 181.254 268.134C190.644 266.296 197.185 264.758 197.185 264.758L197.112 264.483L195.947 259.901Z" fill="#3673B8"/>
<path d="M190.482 230.347C190.482 230.347 157.342 255.506 146.6 243.712C135.858 231.917 138.173 177.803 138.173 177.803" stroke="#031A54" stroke-width="0.809488" stroke-miterlimit="10"/>
<path d="M185.795 211.996C185.795 211.996 164.166 218.941 161.915 215.42C158.103 209.454 161.559 176.645 161.559 176.645" stroke="#031A54" stroke-width="0.809488" stroke-miterlimit="10"/>
<path d="M178.105 153.623C178.105 153.623 171.451 148.904 171.022 145.747" stroke="#031A54" stroke-width="0.809488" stroke-miterlimit="10"/>
<path d="M189.301 133.678C189.918 133.678 190.418 133.207 190.418 132.625C190.418 132.044 189.918 131.573 189.301 131.573C188.684 131.573 188.184 132.044 188.184 132.625C188.184 133.207 188.684 133.678 189.301 133.678Z" fill="#031A54"/>
<path d="M177.976 153.591C180.154 155.34 183.732 156.643 183.732 156.643C195.421 158.035 194.903 142.598 194.903 142.598C194.903 142.598 197.08 142.42 197.784 140.85C198.481 139.279 196.214 131.249 196.214 131.249C199.444 128.157 197.024 121.956 195.955 119.657C187.593 116.913 177.717 122.142 177.717 124.879C177.717 127.671 172.043 126.627 170.561 124.619C169.298 122.911 163.697 124.862 162.045 125.486C163.381 132.965 157.294 144.411 157.294 146.087L172.739 160.917L177.976 153.591ZM170.035 134.835C166.109 134.487 163.316 129.598 165.235 126.546C166.401 124.692 168.529 125.639 170.027 126.667C170.618 127.076 171.175 127.531 171.695 128.027C171.695 128.027 167.161 123.494 165.235 126.546C163.316 129.606 166.109 134.487 170.035 134.835H170.035ZM170.035 134.835C166.109 134.487 163.316 129.598 165.235 126.546C166.401 124.692 168.529 125.639 170.027 126.667C170.618 127.076 171.175 127.531 171.695 128.027C171.695 128.027 167.161 123.494 165.235 126.546C163.316 129.606 166.109 134.487 170.035 134.835H170.035ZM170.035 134.835C166.109 134.487 163.316 129.598 165.235 126.546C166.401 124.692 168.529 125.639 170.027 126.667C170.618 127.076 171.175 127.531 171.695 128.027C171.695 128.027 167.161 123.494 165.235 126.546C163.316 129.606 166.109 134.487 170.035 134.835H170.035Z" stroke="#031A54" stroke-width="0.809488" stroke-miterlimit="10"/>
<path d="M196.643 107.968C194.376 106.576 180.332 105.872 174.835 104.738C169.339 103.605 163.664 104.042 163.235 105.783C162.806 107.523 160.354 109.182 159.398 115.731C158.435 122.272 161.576 125.68 161.576 125.68C161.576 125.68 161.762 125.607 162.045 125.494C163.697 124.87 169.298 122.919 170.561 124.628C172.043 126.635 177.717 127.679 177.717 124.887C177.717 122.15 187.593 116.929 195.955 119.665C196.125 119.722 196.303 119.762 196.473 119.827C196.959 120.013 198.91 109.361 196.643 107.968Z" fill="#144986" stroke="#031A54" stroke-width="1.51019" stroke-miterlimit="10"/>
<path d="M192.142 210.142C197.225 208.596 200.86 207.341 200.86 207.341L201.378 209.122C204.171 206.483 208.17 202.67 210.007 200.744C212.986 197.619 218.094 194.074 217.382 197.765C216.669 201.456 208.866 207.697 208.866 207.697C208.866 207.697 230.593 199.756 230.86 196.348C231.046 193.944 224.95 193.547 224.95 193.547C224.95 193.547 207.878 194.503 210.574 194.219C213.269 193.936 218.944 187.695 218.24 186.133C217.527 184.57 209.724 191.095 206.041 192.09C202.349 193.086 201.499 197.482 200.22 200.177C199.079 202.589 190.895 204.775 189.195 205.204C189.001 205.253 188.863 205.285 188.863 205.285L183.99 204.994L185.779 211.996C188.046 211.364 190.199 210.733 192.142 210.142Z" stroke="#031A54" stroke-width="0.809488" stroke-linejoin="round"/>
<path d="M217.39 197.765C218.102 194.074 212.995 197.619 210.016 200.744C208.178 202.67 204.179 206.483 201.386 209.122L202.819 214.011L204.462 219.621C209.506 219.362 217.09 218.99 221.373 218.901C228.181 218.755 225.064 214.788 225.064 214.788C225.064 214.788 233.434 212.943 236.275 210.676C239.117 208.41 223.793 210.531 216.556 210.393C215.455 210.38 214.357 210.286 213.27 210.11C209.182 209.413 208.89 207.697 208.89 207.697C208.89 207.697 216.678 201.448 217.39 197.765Z" stroke="#031A54" stroke-width="0.809488" stroke-miterlimit="10"/>
<path d="M198.326 261.043L196.837 255.206L192.15 236.871L190.482 230.339C198.488 225.789 204.972 221.386 204.972 221.386L204.454 219.613L202.811 214.003L201.378 209.114L200.86 207.333C200.86 207.333 197.225 208.588 192.142 210.134C190.199 210.725 188.046 211.356 185.787 211.988L183.998 204.986L180.178 190.05L172.73 160.925L157.285 146.095C157.285 146.095 129.673 160.488 130.855 193.191C132.029 225.895 136.028 234.84 130.151 246.602C129.804 247.302 129.501 248.024 129.244 248.763C125.165 260.476 132.644 276.561 153.448 274.132C164.028 272.894 175.029 270.959 183.634 269.275C193.024 267.438 199.565 265.9 199.565 265.9L199.492 265.624L198.326 261.043Z" stroke="#031A54" stroke-width="0.809488" stroke-miterlimit="10"/>
<path d="M237.716 267.13C240.217 258.048 241.537 251.458 240.808 249.427C237.538 240.279 197.379 236.807 192.15 236.88L196.837 255.214L198.326 261.051L199.492 265.625C204.114 265.948 228.715 267.244 237.716 267.13Z" stroke="#031A54" stroke-width="0.809488" stroke-miterlimit="10"/>
<path d="M350.332 227.846C351.124 227.846 351.765 227.28 351.765 226.583C351.765 225.885 351.124 225.32 350.332 225.32C349.541 225.32 348.9 225.885 348.9 226.583C348.9 227.28 349.541 227.846 350.332 227.846Z" fill="#031A54"/>
<path d="M346.835 234.257C347.627 234.257 348.268 233.691 348.268 232.994C348.268 232.296 347.627 231.731 346.835 231.731C346.044 231.731 345.403 232.296 345.403 232.994C345.403 233.691 346.044 234.257 346.835 234.257Z" fill="#031A54"/>
<path d="M327.877 110.915C327.796 110.696 327.74 110.575 327.74 110.575C327.762 110.696 327.809 110.812 327.877 110.915V110.915Z" stroke="#031A54" stroke-width="0.809488" stroke-linejoin="round"/>
<path d="M296.631 145.788L298.323 138.818C297.108 138.616 284.221 136.576 279.785 140.494C274.216 145.415 274.346 173.262 274.346 173.262L242.225 199.554L244.945 207.026C244.945 207.026 266.291 208.264 273.123 203.836C272.905 203.31 272.775 202.994 272.775 202.994L296.631 145.788Z" fill="#5AA3CE"/>
<path d="M293.992 143.756C293.636 143.659 293.425 143.594 293.425 143.594L269.562 200.792C269.562 200.792 269.691 201.108 269.91 201.634C270.064 202.007 270.274 202.492 270.517 203.051C272.346 207.284 276.402 216.059 278.879 216.804C281.21 217.5 291.774 213.461 297.643 211.089C297.811 210.703 298.047 210.349 298.339 210.045C298.556 209.79 298.734 209.503 298.865 209.195C301.358 203.982 304.977 180.968 303.649 176.5C302.799 173.634 305.924 160.399 308.579 150.223C308.717 149.689 308.854 149.163 308.992 148.653C309.04 148.459 309.089 148.281 309.138 148.086C309.219 147.779 309.299 147.479 309.38 147.18C309.437 146.953 309.502 146.726 309.559 146.508C309.623 146.257 309.688 146.022 309.753 145.779C309.818 145.545 309.882 145.31 309.939 145.075V145.067C307.373 147.253 296.582 144.468 293.992 143.756Z" fill="#3673B8"/>
<path d="M318.083 212.692C316.998 212.959 313.339 205.374 313.339 205.374C310.182 205.115 306.847 207.73 304.216 210.547C302.588 212.311 301.104 214.203 299.78 216.205C299.925 216.582 300.093 216.95 300.282 217.306C300.282 217.306 307.147 221.143 312.303 221.103C313.241 219.397 314.315 217.77 315.517 216.238C317.16 214.076 318.528 212.579 318.083 212.692Z" fill="#B5D2E3"/>
<path d="M321.288 214.7C320.203 214.967 316.544 207.382 316.544 207.382C313.387 207.123 310.052 209.737 307.421 212.554C305.509 214.609 303.722 216.777 302.071 219.047C302.33 219.71 303.358 219.799 303.358 219.799C303.358 219.799 310.352 223.151 315.508 223.11C316.446 221.404 317.521 219.777 318.722 218.245C320.373 216.084 321.733 214.586 321.288 214.7Z" fill="#6BA5C8"/>
<path d="M410.583 166.559C410.583 166.559 398.853 159.46 394.531 169.643C394.531 169.643 394.733 162.334 386.711 162.852C386.711 162.852 383.829 153.591 373.953 156.578C373.953 156.578 364.798 151.333 361.503 159.152C361.503 159.152 357.901 161.111 359.447 163.062C359.447 163.062 353.595 166.543 356.525 173.642C357.82 171.465 358.63 169.749 358.63 169.749C359.043 173.764 363.778 171.91 363.778 171.91C362.135 178.183 372.213 177.261 372.213 177.261C369.436 181.17 371.695 185.493 371.695 185.493C373.338 188.067 377.871 187.962 381.263 186.732C384.655 185.493 386.816 190.641 386.306 194.551C385.788 198.461 381.263 198.356 381.263 198.356C381.263 198.356 380.624 200.695 380.033 202.727C382.17 204.435 384.533 205.844 385.27 204.629C385.27 204.629 381.668 201.748 385.375 200.307C385.375 200.307 387.019 207.301 391.446 202.978C395.874 198.655 392.369 192.382 392.369 192.382C392.369 192.382 403.273 195.466 399.056 187.031C399.056 187.031 403.791 188.78 405.54 187.339C407.288 185.898 423.235 176.54 410.583 166.559Z" fill="#468FBA"/>
<path d="M267.036 221.839C270.732 222.659 274.49 223.171 278.272 223.369C280.606 223.351 282.923 222.963 285.136 222.22L284.772 224.68C296.364 238.887 316.301 239.559 316.301 239.559L321.231 231.343C321.231 231.343 321.393 220.431 316.212 221.596C315.65 221.712 315.078 221.769 314.504 221.766C309.348 221.807 302.483 217.97 302.483 217.97C302.296 217.612 302.128 217.245 301.982 216.869C301.488 215.606 300.897 213.477 301.658 211.761C295.797 214.133 285.225 218.172 282.894 217.476C280.417 216.731 274.718 210.458 272.88 206.224C270.201 207.722 266.356 220.674 261.564 237.972L269.578 239.316L267.036 221.839Z" fill="#031A54"/>
<path d="M284.796 243.639C284.869 243.864 284.926 244.094 284.966 244.327C284.932 244.097 284.881 243.869 284.812 243.647C284.812 243.639 284.804 243.639 284.796 243.639Z" fill="#031A54"/>
<path d="M343.573 198.105C343.274 195.693 343.047 191.014 342.731 185.364C342.381 185.024 342.171 184.565 342.142 184.078C342.114 183.591 342.269 183.111 342.578 182.733C341.614 166.389 339.777 144.047 333.649 142.59C324.971 140.518 314.942 138.915 314.942 138.915C314.942 138.915 314.788 139.441 314.529 140.38C311.607 150.766 308.539 161.338 306.912 172.023C306.661 173.699 306.159 175.836 306.653 177.512C307.98 181.98 304.362 204.994 301.868 210.207C301.737 210.515 301.56 210.802 301.342 211.057C301.05 211.361 300.815 211.715 300.646 212.101C299.885 213.825 300.476 215.946 300.97 217.209C302.299 215.21 303.782 213.318 305.406 211.551C308.037 208.734 311.38 206.119 314.529 206.378C314.529 206.378 318.188 213.971 319.272 213.696C319.718 213.582 318.358 215.08 316.698 217.241C315.494 218.771 314.419 220.398 313.485 222.106C314.058 222.109 314.631 222.052 315.193 221.936C320.373 220.771 320.762 232.298 320.762 232.298L324.461 225.312C326.582 221.248 328.865 216.917 330.767 213.356C332.856 209.438 334.491 206.459 334.952 205.836C335.559 205.002 338.465 204.727 341.801 204.702C343.178 202.794 343.809 200.447 343.573 198.105Z" fill="#5AA3CE"/>
<path d="M315.452 239.097C315.452 239.097 297.473 238.725 285.436 222.422L282.878 222.559C282.643 227.57 282.092 237.074 281.137 239.251L278.328 238.83L278.296 238.968L278.806 239.049C279.142 239.054 279.478 239.084 279.81 239.138C279.915 239.154 280.012 239.178 280.117 239.203C280.345 239.252 280.569 239.314 280.789 239.389C280.894 239.421 281 239.454 281.105 239.494C281.372 239.602 281.631 239.726 281.882 239.866C282.027 239.951 282.168 240.042 282.303 240.142C282.408 240.214 282.522 240.287 282.619 240.368C282.774 240.486 282.923 240.613 283.064 240.749C283.112 240.797 283.161 240.846 283.21 240.903C283.541 241.233 283.834 241.6 284.084 241.995C284.181 242.149 284.27 242.311 284.351 242.473C284.46 242.683 284.557 242.9 284.642 243.121C284.677 243.213 284.707 243.308 284.731 243.404C284.756 243.485 284.788 243.566 284.812 243.647C286.19 244.154 287.534 244.749 288.836 245.428C289.491 245.768 290.155 246.124 290.851 246.537C298.97 251.353 309.51 260.168 314.521 262.435L318.989 259.27C330.37 249.337 315.452 239.097 315.452 239.097Z" fill="#B5D2E3"/>
<path d="M284.739 243.396C284.764 243.469 284.78 243.558 284.796 243.631C284.804 243.631 284.812 243.639 284.82 243.639C284.796 243.558 284.764 243.477 284.739 243.396Z" fill="#031A54"/>
<path d="M284.65 243.121C284.561 242.894 284.464 242.684 284.359 242.473C284.469 242.683 284.566 242.899 284.65 243.121Z" fill="#031A54"/>
<path d="M284.74 243.396C284.707 243.299 284.683 243.21 284.651 243.113C284.683 243.21 284.707 243.307 284.74 243.396Z" fill="#031A54"/>
<path d="M284.359 242.465C284.278 242.303 284.189 242.141 284.092 241.987C284.181 242.149 284.27 242.303 284.359 242.465Z" fill="#031A54"/>
<path d="M319.766 277.338C319.961 275.225 317.734 271.955 315.897 269.632C314.634 268.045 313.549 266.895 313.549 266.895C312.497 266.653 311.501 266.466 310.53 266.313C299.942 264.653 294.518 268.158 291.831 271.089C291.448 271.505 291.088 271.943 290.754 272.4C289.945 273.509 289.564 274.343 289.427 274.456C289.366 274.533 289.329 274.626 289.321 274.723L290.576 285.133C291.41 287.618 301.051 282.162 298.541 284.461C296.89 285.967 299.043 287.845 301.278 289.132C302.508 289.836 302.945 289.156 303.617 289.351C304.92 289.731 308.393 288.185 310.983 286.267C312.157 285.4 313.315 284.704 314.318 284.567C315.741 284.356 317.021 283.591 317.88 282.438C317.961 282.341 319.612 279.022 319.766 277.338Z" fill="#B5D2E3"/>
<path d="M400.91 220.471C400.91 220.471 391.689 212.546 385.926 212.983L386.355 210.822L379.159 206.839C373.5 214.173 355.149 223.361 353.392 222.284C352.041 221.459 353.805 211.899 354.866 206.766C353.676 206.661 348.09 206.192 343.371 206.232C340.036 206.256 337.138 206.532 336.523 207.365C336.069 207.989 334.434 210.968 332.338 214.886C330.435 218.447 328.153 222.786 326.032 226.842C322.397 233.787 319.232 239.915 319.232 239.915C319.232 239.915 334.936 251.871 323.555 261.812L319.086 264.977L314.335 268.344C315.298 268.498 316.302 268.684 317.354 268.927C317.354 268.927 318.439 270.077 319.701 271.663C321.547 273.987 323.773 277.265 323.571 279.37C323.441 280.992 322.925 282.561 322.065 283.943L321.984 284.065C333.325 285.158 360.33 287.691 374.52 289.019C376.997 288.452 378.916 287.667 380.017 286.59C385.562 281.142 398.87 258.129 402.439 239.462C403.888 231.95 403.759 225.142 400.91 220.471Z" fill="#3673B8"/>
<path d="M295.449 145.221C298.04 145.933 309.397 148.88 311.971 146.702C312.06 146.362 312.149 146.038 312.238 145.715C312.667 144.144 313.104 142.566 313.541 141.003L314.407 131.978C314.205 131.435 314.084 130.99 314.084 130.99C314.084 130.99 314.327 130.496 314.683 129.735C314.683 129.735 318.358 121.066 317.451 119.981C316.156 118.427 303.075 110.915 301.65 104.698C301.65 104.698 295.692 113.894 292.584 114.412C292.308 114.46 290.43 112.655 290.131 112.477L290.204 121.066C290.204 121.066 281.348 126.222 290.803 126.222C290.803 126.222 291.418 134.236 297.764 135.661L297.133 138.259C297.19 138.267 297.238 138.275 297.238 138.275L295.449 145.221Z" fill="#B5D2E3"/>
<path d="M318.253 113.618C317.484 113.222 315.168 112.153 314.456 111.765C311.663 110.227 308.029 112.048 305.665 109.822C304.095 108.349 303.69 106.058 303.293 104.317C303.293 104.317 298.493 101.735 296.178 104.447C294.535 106.373 293.32 105.362 292.478 109.943C292.43 110.218 292.074 112.275 291.774 112.096L291.847 120.685C291.847 120.685 282.991 125.842 292.446 125.842C292.446 125.842 293.061 133.856 299.408 135.28L297.084 144.848C299.213 145.431 307.292 147.536 311.518 147.042C311.526 147.002 311.534 146.961 311.542 146.929C312.165 145.35 312.845 143.772 313.371 142.153C313.244 142.005 313.153 141.828 313.107 141.638C313.061 141.449 313.06 141.25 313.104 141.06C313.209 140.647 313.331 140.234 313.468 139.83C313.367 138.801 313.408 137.763 313.59 136.745C313.63 136.47 313.679 136.187 313.744 135.912C313.562 134.176 313.735 132.422 314.254 130.755C314.3 130.621 314.368 130.495 314.456 130.383C313.97 129.395 314.262 128.27 314.618 127.218C314.664 127.081 314.732 126.952 314.82 126.837C314.88 125.255 315.237 123.698 315.873 122.247C315.913 122.158 315.946 122.061 315.986 121.972C316.063 121.826 316.172 121.7 316.304 121.602C316.437 121.504 316.591 121.438 316.753 121.408C316.915 121.379 317.082 121.386 317.241 121.431C317.4 121.475 317.546 121.555 317.67 121.665C318.328 120.246 318.906 118.792 319.402 117.31C319.467 116.921 319.637 114.331 318.253 113.618Z" fill="#6BA5C8"/>
<path d="M317.605 239.98C317.605 239.98 299.497 239.624 287.905 225.417L285.655 222.487C285.42 227.498 284.61 237.422 283.655 239.599C283.655 239.599 283.518 239.802 283.623 239.842C283.889 239.95 284.149 240.074 284.4 240.215C284.545 240.299 284.685 240.391 284.821 240.49C284.926 240.563 285.039 240.636 285.136 240.717C285.292 240.835 285.441 240.962 285.582 241.097C285.63 241.146 285.679 241.194 285.727 241.251C286.058 241.582 286.352 241.948 286.602 242.344C286.699 242.497 286.788 242.659 286.869 242.821C286.977 243.032 287.075 243.248 287.16 243.469C287.195 243.562 287.224 243.656 287.249 243.752C287.274 243.833 287.306 243.914 287.33 243.995C288.708 244.502 290.052 245.097 291.353 245.776C292.009 246.116 292.673 246.472 293.369 246.885C301.488 251.701 312.028 260.517 317.039 262.783L321.507 259.618C332.896 249.686 317.605 239.98 317.605 239.98Z" fill="#90BCD6"/>
<path d="M292.6 285.141C292.583 285.105 292.569 285.067 292.559 285.028C292.049 282.478 291.078 276.124 291.345 274.731L291.045 272.27L287.751 244.853C287.71 244.618 287.637 244.392 287.581 244.165C287.556 244.084 287.548 244.003 287.524 243.93C287.492 243.833 287.467 243.744 287.435 243.647C287.351 243.425 287.254 243.209 287.144 242.999C287.063 242.837 286.974 242.676 286.876 242.522C286.82 242.433 286.755 242.352 286.698 242.271C284.683 242.012 282.724 241.502 280.749 241.048C278.709 240.579 276.628 240.215 274.564 239.842C270.258 239.057 265.935 238.401 261.572 237.989C261.375 237.965 261.186 237.896 261.021 237.786C260.856 237.676 260.72 237.529 260.622 237.356C260.525 237.183 260.471 236.989 260.463 236.791C260.454 236.593 260.493 236.396 260.576 236.216L233.572 231.925C233.428 231.902 233.281 231.915 233.143 231.962C233.005 232.009 232.881 232.089 232.782 232.196C232.683 232.302 232.611 232.431 232.574 232.572C232.537 232.713 232.534 232.86 232.568 233.002L237.271 272.95C237.334 273.493 237.563 274.004 237.927 274.412C238.29 274.82 238.771 275.107 239.303 275.233L292.964 288.064L292.6 285.141Z" fill="#B5D2E3"/>
<path d="M379.062 187.29C375.67 188.529 371.137 188.626 369.493 186.052C369.493 186.052 367.227 181.729 370.011 177.819C370.011 177.819 359.925 178.742 361.577 172.468C361.577 172.468 356.841 174.322 356.428 170.307C356.428 170.307 355.619 172.023 354.324 174.201C352.106 177.949 348.455 183.081 345.006 183.275C342.918 183.397 341.695 184.012 341.096 184.773C340.788 185.151 340.632 185.631 340.66 186.118C340.689 186.605 340.899 187.064 341.25 187.404C341.521 187.684 341.858 187.893 342.23 188.011C344.496 188.731 348.406 188.529 348.406 188.529C348.406 188.529 343.671 200.364 352.518 204.063C352.518 204.063 352.219 205.366 351.83 207.277C350.77 212.409 349.013 221.969 350.357 222.794C352.122 223.871 370.473 214.683 376.123 207.349C376.403 206.992 376.662 206.619 376.9 206.232C377.263 205.273 377.574 204.295 377.831 203.302C378.422 201.262 379.061 198.931 379.061 198.931C379.061 198.931 383.587 199.036 384.105 195.126C384.615 191.2 382.453 186.06 379.062 187.29Z" fill="#B5D2E3"/>
<path d="M381.344 186.788C377.953 188.027 373.419 188.124 371.776 185.55C371.776 185.55 369.51 181.227 372.294 177.317C372.294 177.317 362.208 178.24 363.859 171.967C363.859 171.967 359.124 173.82 358.711 169.805C358.711 169.805 357.902 171.521 356.606 173.699C354.388 177.447 350.738 182.579 347.289 182.773C345.201 182.895 343.978 183.51 343.379 184.271C343.07 184.649 342.915 185.129 342.943 185.616C342.972 186.103 343.182 186.562 343.533 186.902C343.804 187.182 344.141 187.391 344.513 187.509C346.779 188.229 350.689 188.027 350.689 188.027C350.689 188.027 345.953 199.862 354.801 203.561C354.801 203.561 354.502 204.864 354.113 206.775C353.053 211.907 351.296 221.467 352.64 222.293C354.405 223.369 372.756 214.181 378.406 206.847C378.686 206.49 378.945 206.117 379.183 205.73C379.546 204.771 379.856 203.793 380.114 202.8C380.705 200.76 381.344 198.429 381.344 198.429C381.344 198.429 385.869 198.534 386.387 194.624C386.897 190.698 384.736 185.55 381.344 186.788Z" fill="#90BCD6"/>
<path d="M289.944 284.615C289.928 284.575 285.096 244.327 285.096 244.327C285.055 244.092 284.982 243.865 284.926 243.639C284.901 243.558 284.893 243.477 284.869 243.404C284.852 243.362 284.838 243.319 284.828 243.274C284.679 243.221 284.544 243.136 284.432 243.023C283.644 242.399 282.706 241.991 281.712 241.842C280.619 241.574 279.526 241.348 278.433 241.097C275.907 240.424 273.334 239.942 270.735 239.656C270.527 239.643 270.327 239.575 270.154 239.458C269.982 239.342 269.844 239.181 269.756 238.992C269.375 238.952 268.987 238.903 268.598 238.879C268.553 238.888 268.507 238.894 268.461 238.895C268.113 238.895 267.764 238.863 267.416 238.83C267.238 238.83 267.06 238.822 266.874 238.822C266.673 238.824 266.475 238.774 266.299 238.676C265.822 238.595 265.344 238.506 264.875 238.409C264.308 238.296 263.83 238.199 263.345 238.134C262.786 238.094 262.219 238.069 261.661 238.069C261.356 238.064 261.064 237.94 260.848 237.724C260.632 237.508 260.509 237.217 260.503 236.912C260.497 236.709 260.551 236.509 260.657 236.337C260.661 236.266 260.669 236.196 260.681 236.127L230.925 231.399C230.781 231.376 230.634 231.388 230.496 231.435C230.358 231.483 230.234 231.563 230.135 231.669C230.036 231.776 229.964 231.905 229.927 232.046C229.89 232.186 229.887 232.334 229.921 232.476L234.624 272.424C234.687 272.967 234.916 273.477 235.28 273.886C235.643 274.294 236.124 274.581 236.656 274.707L290.317 287.537L289.944 284.615Z" fill="#5AA3CE"/>
<path d="M292.43 248.585C291.733 248.172 291.07 247.808 290.414 247.476C289.113 246.795 287.769 246.2 286.391 245.695C286.455 245.918 286.507 246.145 286.545 246.375L289.839 273.792L290.139 276.253C290.146 276.156 290.183 276.062 290.244 275.986C290.382 275.873 290.77 275.039 291.571 273.93C291.905 273.473 292.265 273.035 292.648 272.618C295.336 269.696 300.759 266.183 311.347 267.842L316.099 264.475C311.088 262.225 300.549 253.409 292.43 248.585Z" fill="#031A54"/>
<path d="M320.527 280.624C320.721 278.512 318.495 275.241 316.658 272.918C315.395 271.331 314.31 270.182 314.31 270.182C313.258 269.939 312.262 269.753 311.291 269.599C300.703 267.94 295.279 271.445 292.592 274.375C292.209 274.792 291.849 275.23 291.515 275.686C290.705 276.795 290.325 277.629 290.187 277.742C290.126 277.819 290.09 277.912 290.082 278.01L291.337 288.42C292.171 290.905 301.812 285.449 299.302 287.748C297.651 289.253 299.804 291.131 302.038 292.419C303.269 293.123 303.706 292.443 304.378 292.637C305.681 293.018 309.154 291.471 311.744 289.553C312.918 288.687 314.075 287.991 315.079 287.853C316.501 287.643 317.782 286.877 318.641 285.724C318.714 285.627 320.365 282.316 320.527 280.624Z" fill="#90BCD6"/>
<path d="M298.728 118.937C299.309 118.937 299.78 118.524 299.78 118.014C299.78 117.504 299.309 117.091 298.728 117.091C298.146 117.091 297.675 117.504 297.675 118.014C297.675 118.524 298.146 118.937 298.728 118.937Z" fill="#031A54"/>
<path d="M290.018 118.637C290.599 118.637 291.07 118.224 291.07 117.714C291.07 117.205 290.599 116.792 290.018 116.792C289.436 116.792 288.965 117.205 288.965 117.714C288.965 118.224 289.436 118.637 290.018 118.637Z" fill="#031A54"/>
<path d="M356.44 182.554C356.828 182.074 356.79 181.4 356.355 181.049C355.92 180.698 355.253 180.803 354.866 181.283C354.478 181.763 354.517 182.437 354.951 182.788C355.386 183.139 356.053 183.034 356.44 182.554Z" fill="#031A54"/>
<path d="M350.032 178.169C350.42 177.689 350.511 177.12 350.236 176.898C349.962 176.676 349.425 176.885 349.037 177.365C348.65 177.845 348.558 178.414 348.833 178.636C349.108 178.858 349.645 178.649 350.032 178.169Z" fill="#031A54"/>
<path d="M351.96 230.031C352.751 230.031 353.392 229.466 353.392 228.768C353.392 228.071 352.751 227.506 351.96 227.506C351.168 227.506 350.527 228.071 350.527 228.768C350.527 229.466 351.168 230.031 351.96 230.031Z" fill="#031A54"/>
<path d="M348.462 236.442C349.254 236.442 349.895 235.877 349.895 235.18C349.895 234.482 349.254 233.917 348.462 233.917C347.671 233.917 347.03 234.482 347.03 235.18C347.03 235.877 347.671 236.442 348.462 236.442Z" fill="#031A54"/>
<path d="M295.061 145.779C297.651 146.492 309.008 149.438 311.582 147.261C311.671 146.921 311.76 146.597 311.849 146.273C312.279 144.703 312.716 143.124 313.153 141.562L314.019 132.536C313.817 131.994 314.205 124.433 314.982 121.114C315.177 120.264 316.172 119.754 316.286 119.325C317.273 115.367 317.597 113.57 316.01 112.76C313.363 111.417 312.27 114.201 311.615 113.74C307.244 110.591 302.217 109.45 301.253 105.264C301.253 105.264 295.943 104.625 293.798 107.215C292.049 109.328 290.034 113.222 289.734 113.044L289.807 121.632C289.807 121.632 280.951 126.789 290.406 126.789C290.406 126.789 291.021 134.803 297.368 136.227L296.736 138.826C296.793 138.834 296.842 138.842 296.842 138.842L295.061 145.779Z" stroke="#031A54" stroke-width="0.809488" stroke-linejoin="round"/>
<path d="M295.061 145.78L296.752 138.81C295.538 138.607 282.651 136.568 278.215 140.485C272.646 145.407 272.775 173.254 272.775 173.254L240.655 199.546L243.375 207.017C243.375 207.017 264.721 208.256 271.553 203.828C271.334 203.302 271.205 202.986 271.205 202.986L295.061 145.78Z" stroke="#031A54" stroke-width="0.809488" stroke-linejoin="round"/>
<path d="M296.85 138.826C296.85 138.826 296.809 138.818 296.744 138.81L295.053 145.779L296.85 138.826Z" stroke="#031A54" stroke-width="0.809488" stroke-linejoin="round"/>
<path d="M295.627 145.933C295.271 145.836 295.061 145.771 295.061 145.771L271.197 202.97C271.197 202.97 271.326 203.286 271.545 203.812C271.699 204.184 271.909 204.67 272.152 205.228C273.981 209.462 278.037 218.237 280.514 218.982C282.845 219.678 293.409 215.638 299.278 213.267C299.447 212.88 299.682 212.526 299.974 212.222C300.192 211.967 300.369 211.681 300.5 211.372C302.994 206.159 306.612 183.145 305.284 178.677C304.435 175.811 307.559 162.576 310.214 152.401C310.352 151.867 310.489 151.341 310.627 150.831C310.676 150.636 310.724 150.458 310.773 150.264C310.854 149.956 310.935 149.657 311.016 149.357C311.072 149.131 311.137 148.904 311.194 148.685C311.259 148.434 311.323 148.2 311.388 147.957C311.453 147.722 311.518 147.487 311.574 147.253V147.245C309 149.438 298.21 146.645 295.627 145.933Z" stroke="#031A54" stroke-width="0.809488" stroke-linejoin="round"/>
<path d="M317.904 214.878C316.819 215.145 313.161 207.56 313.161 207.56C310.004 207.301 306.668 209.915 304.038 212.732C302.409 214.496 300.926 216.388 299.602 218.391C299.746 218.768 299.914 219.135 300.103 219.492C300.103 219.492 306.968 223.329 312.124 223.288C313.062 221.582 314.137 219.955 315.338 218.423C316.989 216.262 318.349 214.764 317.904 214.878Z" stroke="#031A54" stroke-width="0.809488" stroke-linejoin="round"/>
<path d="M243.771 196.988C243.771 196.988 242.549 188.852 238.89 188.31C235.231 187.768 236.874 195.846 236.874 195.846C236.874 195.846 239.335 198.461 218.005 206.443C215.739 207.293 219.827 210.741 222.328 210.506C228.998 209.867 243.367 207.025 243.367 207.025L240.647 199.554L243.771 196.988Z" stroke="#031A54" stroke-width="0.809488" stroke-linejoin="round"/>
<path d="M408.495 166.26C408.495 166.26 396.765 159.16 392.443 169.344C392.443 169.344 392.645 162.034 384.623 162.552C384.623 162.552 381.741 153.292 371.865 156.279C371.865 156.279 362.71 151.033 359.415 158.853C359.415 158.853 355.813 160.812 357.359 162.763C357.359 162.763 351.507 166.243 354.437 173.343C355.732 171.165 356.542 169.449 356.542 169.449C356.954 173.464 361.69 171.61 361.69 171.61C360.047 177.884 370.125 176.961 370.125 176.961C367.348 180.871 369.607 185.194 369.607 185.194C371.25 187.768 375.783 187.662 379.175 186.432C382.567 185.194 384.728 190.342 384.218 194.252C383.7 198.162 379.175 198.056 379.175 198.056C379.175 198.056 378.535 200.396 377.945 202.428C380.082 204.136 382.445 205.544 383.182 204.33C383.182 204.33 379.58 201.448 383.287 200.007C383.287 200.007 384.93 207.001 389.358 202.679C393.786 198.356 390.281 192.082 390.281 192.082C390.281 192.082 401.185 195.166 396.968 186.732C396.968 186.732 401.703 188.48 403.452 187.039C405.2 185.606 421.147 176.241 408.495 166.26Z" stroke="#031A54" stroke-width="0.809488" stroke-linejoin="round"/>
<path d="M271.504 239.753L279.931 241.145L279.964 241.008L271.504 239.753Z" stroke="#031A54" stroke-width="0.809488" stroke-linejoin="round"/>
<path d="M266.874 221.135C266.874 221.135 281.08 225.539 284.634 221.613L287.063 224.6C298.654 238.806 316.301 239.559 316.301 239.559L319.402 233.472C319.402 233.472 319.013 221.944 313.832 223.11C313.27 223.226 312.698 223.283 312.124 223.28C306.968 223.321 300.103 219.484 300.103 219.484C299.916 219.126 299.748 218.759 299.602 218.383C299.108 217.12 298.517 214.991 299.278 213.275C293.417 215.647 282.845 219.686 280.514 218.99C278.037 218.245 273.981 209.47 272.152 205.237C269.472 206.734 264.907 220.568 260.115 237.867L268.93 239.324L266.874 221.135Z" stroke="#031A54" stroke-width="0.809488" stroke-linejoin="round"/>
<path d="M286.431 245.816C286.504 246.041 286.561 246.271 286.601 246.504C286.567 246.274 286.516 246.047 286.448 245.824C286.439 245.824 286.439 245.824 286.431 245.816Z" stroke="#031A54" stroke-width="0.809488" stroke-linejoin="round"/>
<path d="M342.197 199.279C341.898 196.866 341.671 192.188 341.355 186.537C341.005 186.198 340.795 185.739 340.766 185.252C340.738 184.765 340.893 184.285 341.202 183.907C340.238 167.563 338.401 145.221 332.273 143.764C323.595 141.692 313.566 140.089 313.566 140.089C313.566 140.089 313.412 140.615 313.153 141.554C310.231 151.94 307.163 162.512 305.536 173.197C305.285 174.873 304.783 177.01 305.277 178.685C306.604 183.154 302.986 206.168 300.492 211.381C300.361 211.689 300.184 211.976 299.966 212.231C299.674 212.535 299.439 212.888 299.27 213.275C298.509 214.999 299.1 217.12 299.594 218.383C300.923 216.384 302.406 214.492 304.03 212.724C306.661 209.907 310.004 207.293 313.153 207.552C313.153 207.552 316.812 215.145 317.896 214.87C318.342 214.756 316.982 216.254 315.322 218.415C314.118 219.945 313.043 221.572 312.109 223.28C312.682 223.283 313.255 223.226 313.817 223.11C318.997 221.944 319.386 233.472 319.386 233.472L323.085 226.486C325.206 222.422 327.489 218.091 329.391 214.53C331.48 210.612 333.115 207.633 333.576 207.009C334.183 206.176 337.089 205.9 340.425 205.876C341.804 203.969 342.435 201.621 342.197 199.279V199.279Z" stroke="#031A54" stroke-width="0.809488" stroke-linejoin="round"/>
<path d="M379.166 186.432C375.775 187.671 371.242 187.768 369.598 185.194C369.598 185.194 367.332 180.871 370.116 176.961C370.116 176.961 360.03 177.884 361.681 171.61C361.681 171.61 356.946 173.464 356.533 169.449C356.533 169.449 355.724 171.165 354.428 173.343C352.21 177.091 348.56 182.223 345.111 182.417C343.023 182.538 341.8 183.154 341.201 183.915C340.892 184.292 340.737 184.773 340.765 185.26C340.794 185.747 341.004 186.206 341.355 186.545C341.626 186.826 341.963 187.035 342.335 187.153C344.601 187.873 348.511 187.671 348.511 187.671C348.511 187.671 343.776 199.505 352.623 203.205C352.623 203.205 352.324 204.508 351.935 206.418C350.875 211.551 349.118 221.111 350.462 221.936C352.227 223.013 370.578 213.825 376.228 206.491C376.508 206.134 376.767 205.761 377.005 205.374C377.368 204.415 377.678 203.437 377.936 202.444C378.527 200.404 379.166 198.073 379.166 198.073C379.166 198.073 383.691 198.178 384.209 194.268C384.72 190.342 382.558 185.194 379.166 186.432Z" stroke="#031A54" stroke-width="0.809488" stroke-linejoin="round"/>
<path d="M271.504 239.753L279.931 241.145L271.504 239.753Z" stroke="#031A54" stroke-width="0.809488" stroke-linejoin="round"/>
<path d="M268.922 239.324L260.115 237.875L268.922 239.324Z" stroke="#031A54" stroke-width="0.809488" stroke-linejoin="round"/>
<path d="M316.302 239.559C316.302 239.559 298.655 238.806 287.063 224.599L284.61 221.904C284.375 226.915 283.72 239.251 282.764 241.429L279.955 241.008L279.923 241.145L280.433 241.226C280.769 241.232 281.105 241.261 281.437 241.315C281.542 241.332 281.639 241.356 281.744 241.38C281.972 241.43 282.196 241.492 282.416 241.566C282.522 241.599 282.627 241.631 282.732 241.672C282.999 241.779 283.258 241.904 283.509 242.044C283.654 242.128 283.795 242.22 283.93 242.319C284.035 242.392 284.149 242.465 284.246 242.546C284.401 242.664 284.55 242.791 284.691 242.926C284.74 242.975 284.788 243.023 284.837 243.08C285.168 243.411 285.461 243.777 285.711 244.173V244.173C285.808 244.327 285.897 244.489 285.978 244.65C286.087 244.861 286.184 245.077 286.27 245.298C286.304 245.391 286.334 245.485 286.359 245.581C286.383 245.662 286.415 245.743 286.44 245.824C287.817 246.331 289.161 246.926 290.463 247.605C291.118 247.945 291.782 248.301 292.478 248.714C300.598 253.531 311.137 262.346 316.148 264.612L320.616 261.447C331.998 251.515 316.302 239.559 316.302 239.559Z" stroke="#031A54" stroke-width="0.809488" stroke-linejoin="round"/>
<path d="M286.366 245.582C286.391 245.654 286.407 245.743 286.423 245.816C286.431 245.816 286.439 245.824 286.447 245.824C286.423 245.743 286.399 245.662 286.366 245.582Z" stroke="#031A54" stroke-width="0.809488" stroke-linejoin="round"/>
<path d="M281.445 241.324C281.114 241.265 280.778 241.235 280.441 241.235C280.778 241.232 281.114 241.261 281.445 241.324V241.324Z" stroke="#031A54" stroke-width="0.809488" stroke-linejoin="round"/>
<path d="M286.277 245.298C286.188 245.072 286.091 244.861 285.986 244.651C286.095 244.861 286.192 245.077 286.277 245.298V245.298Z" stroke="#031A54" stroke-width="0.809488" stroke-linejoin="round"/>
<path d="M284.691 242.926C284.74 242.975 284.788 243.032 284.837 243.08C284.793 243.025 284.744 242.973 284.691 242.926V242.926Z" stroke="#031A54" stroke-width="0.809488" stroke-linejoin="round"/>
<path d="M283.509 242.044C283.26 241.9 283 241.776 282.732 241.672C282.998 241.779 283.258 241.904 283.509 242.044V242.044Z" stroke="#031A54" stroke-width="0.809488" stroke-linejoin="round"/>
<path d="M284.246 242.546C284.14 242.465 284.035 242.392 283.93 242.319C284.035 242.392 284.14 242.465 284.246 242.546Z" stroke="#031A54" stroke-width="0.809488" stroke-linejoin="round"/>
<path d="M282.416 241.566C282.196 241.491 281.972 241.429 281.744 241.38C281.972 241.43 282.196 241.492 282.416 241.566V241.566Z" stroke="#031A54" stroke-width="0.809488" stroke-linejoin="round"/>
<path d="M286.367 245.581C286.334 245.484 286.31 245.395 286.278 245.298C286.31 245.395 286.342 245.484 286.367 245.581Z" stroke="#031A54" stroke-width="0.809488" stroke-linejoin="round"/>
<path d="M285.986 244.651C285.905 244.489 285.816 244.327 285.719 244.173C285.816 244.327 285.905 244.489 285.986 244.651Z" stroke="#031A54" stroke-width="0.809488" stroke-linejoin="round"/>
<path d="M281.745 241.38C281.639 241.356 281.542 241.34 281.437 241.315C281.542 241.34 281.648 241.356 281.745 241.38Z" stroke="#031A54" stroke-width="0.809488" stroke-linejoin="round"/>
<path d="M284.246 242.546C284.402 242.664 284.55 242.791 284.691 242.926C284.553 242.797 284.4 242.667 284.246 242.546Z" stroke="#031A54" stroke-width="0.809488" stroke-linejoin="round"/>
<path d="M285.719 244.173C285.469 243.777 285.176 243.411 284.845 243.08C285.173 243.413 285.466 243.779 285.719 244.173V244.173Z" stroke="#031A54" stroke-width="0.809488" stroke-linejoin="round"/>
<path d="M283.93 242.319C283.795 242.22 283.654 242.128 283.509 242.044C283.655 242.133 283.792 242.222 283.93 242.319Z" stroke="#031A54" stroke-width="0.809488" stroke-linejoin="round"/>
<path d="M282.732 241.672C282.627 241.631 282.522 241.599 282.416 241.566C282.522 241.599 282.627 241.631 282.732 241.672Z" stroke="#031A54" stroke-width="0.809488" stroke-linejoin="round"/>
<path d="M279.931 241.145L280.441 241.227L279.931 241.145Z" stroke="#031A54" stroke-width="0.809488" stroke-linejoin="round"/>
<path d="M268.922 239.324L271.504 239.754L268.922 239.324Z" stroke="#031A54" stroke-width="0.809488" stroke-linejoin="round"/>
<path d="M268.93 239.373L271.504 239.754L268.922 239.324L268.93 239.373Z" stroke="#031A54" stroke-width="0.809488" stroke-linejoin="round"/>
<path d="M266.874 221.135L268.922 239.324L271.504 239.753L279.963 241.008L282.772 241.429C283.728 239.251 284.278 229.756 284.513 224.737C284.602 222.859 284.642 221.613 284.642 221.613C280.741 225.992 266.874 221.135 266.874 221.135Z" stroke="#031A54" stroke-width="0.809488" stroke-linejoin="round"/>
<path d="M292.486 248.714C291.79 248.301 291.126 247.937 290.471 247.605C289.17 246.925 287.826 246.33 286.448 245.824C286.512 246.048 286.563 246.275 286.601 246.504L289.896 273.922L290.195 276.382C290.203 276.285 290.24 276.192 290.301 276.115C290.438 276.002 290.827 275.168 291.628 274.059C291.962 273.602 292.321 273.164 292.705 272.748C295.392 269.826 300.816 266.312 311.404 267.972L316.156 264.604C311.145 262.354 300.606 253.539 292.486 248.714Z" stroke="#031A54" stroke-width="0.809488" stroke-linejoin="round"/>
<path d="M320.633 279.013C320.827 276.901 318.601 273.63 316.763 271.307C315.5 269.72 314.416 268.571 314.416 268.571C313.363 268.328 312.368 268.142 311.396 267.988C300.808 266.329 295.385 269.834 292.697 272.764C292.314 273.181 291.955 273.619 291.62 274.076C290.811 275.185 290.431 276.018 290.293 276.132C290.232 276.208 290.195 276.301 290.188 276.399L291.442 286.809C292.276 289.294 301.917 283.838 299.408 286.137C297.756 287.643 299.91 289.521 302.144 290.808C303.374 291.512 303.811 290.832 304.483 291.026C305.787 291.407 309.259 289.861 311.85 287.942C313.023 287.076 314.181 286.38 315.185 286.242C316.607 286.032 317.888 285.266 318.746 284.113C318.827 284.016 320.479 280.697 320.633 279.013Z" stroke="#031A54" stroke-width="0.809488" stroke-linejoin="round"/>
<path d="M291.45 286.793L290.196 276.383L289.896 273.922L286.601 246.504C286.561 246.27 286.488 246.043 286.431 245.816C286.407 245.735 286.399 245.654 286.375 245.582C286.342 245.484 286.318 245.395 286.286 245.298C286.202 245.077 286.105 244.86 285.994 244.651C285.913 244.489 285.824 244.327 285.727 244.173C285.475 243.779 285.182 243.413 284.853 243.08C284.804 243.032 284.756 242.975 284.707 242.926C284.562 242.789 284.416 242.667 284.262 242.546C284.157 242.465 284.052 242.392 283.946 242.319C283.811 242.22 283.671 242.128 283.525 242.044C283.274 241.904 283.015 241.779 282.748 241.672C282.643 241.631 282.538 241.599 282.433 241.567C282.213 241.491 281.988 241.429 281.761 241.38C281.664 241.356 281.558 241.34 281.453 241.316C281.129 241.259 268.946 239.365 268.946 239.365L232.43 233.569C232.287 233.545 232.14 233.558 232.002 233.605C231.864 233.652 231.74 233.733 231.641 233.839C231.542 233.945 231.47 234.075 231.433 234.215C231.395 234.356 231.393 234.504 231.427 234.645L236.13 274.594C236.193 275.137 236.422 275.647 236.786 276.055C237.149 276.464 237.63 276.75 238.162 276.876L291.823 289.707L291.45 286.793Z" stroke="#031A54" stroke-width="0.809488" stroke-linejoin="round"/>
<path d="M313.161 207.56C313.161 207.56 329.529 196.664 329.529 195.239C329.529 193.815 321.677 164.543 321.677 164.543" stroke="#031A54" stroke-width="0.809488" stroke-miterlimit="10"/>
<path d="M317.905 214.877L324.988 220.058" stroke="#031A54" stroke-width="0.809488" stroke-miterlimit="10"/>
<path d="M351.927 206.41L342.553 214.861C342.553 214.861 349.207 222.997 350.454 221.92C351.7 220.852 333.811 248.949 333.811 248.949" stroke="#031A54" stroke-width="0.809488" stroke-miterlimit="10"/>
<path d="M383.425 210.466C383.425 210.466 372.359 229.505 369.688 229.505C367.008 229.505 358.136 219.427 358.136 219.427" stroke="#031A54" stroke-width="0.809488" stroke-miterlimit="10"/>
<path d="M314.416 268.563C314.416 268.563 358.8 266.976 362.548 256.809" stroke="#031A54" stroke-width="0.809488" stroke-miterlimit="10"/>
<path d="M377.086 286.234C382.631 280.786 395.939 257.772 399.509 239.106C400.95 231.593 400.82 224.794 397.971 220.123C397.971 220.123 388.751 212.198 382.987 212.635L383.416 210.474L376.22 206.491C370.561 213.825 352.21 223.013 350.454 221.936C349.102 221.111 350.867 211.551 351.927 206.418C350.737 206.313 345.152 205.844 340.432 205.884C337.097 205.908 334.199 206.184 333.584 207.017C333.131 207.641 331.496 210.62 329.399 214.538C327.497 218.099 325.214 222.438 323.093 226.494C319.458 233.439 316.293 239.567 316.293 239.567C316.293 239.567 331.997 251.523 320.616 261.464L316.148 264.629L311.396 267.996C312.359 268.15 313.363 268.336 314.415 268.579C314.415 268.579 315.5 269.729 316.763 271.315C318.608 273.638 320.834 276.917 320.632 279.022C320.502 280.644 319.986 282.212 319.126 283.595L318.965 283.838C318.9 283.935 318.827 284.024 318.754 284.113C318.754 284.113 350.794 288.743 369.622 289.059C370.006 289.067 370.389 289.012 370.756 288.897C372.189 288.452 376.042 287.254 377.086 286.234Z" stroke="#031A54" stroke-width="0.809488" stroke-linejoin="round"/>
<path d="M292.454 116.703C292.454 116.703 290.576 114.582 289.176 113.902C287.698 113.184 286.129 112.669 284.513 112.372C284.513 112.372 284.796 119.941 289.152 121.252C292.357 122.215 292.26 116.784 292.26 116.784C292.417 116.63 292.611 116.521 292.823 116.466C293.035 116.411 293.258 116.412 293.469 116.471C293.681 116.529 293.873 116.641 294.027 116.797C294.182 116.953 294.292 117.146 294.348 117.358C294.348 117.358 297.91 128.359 302.249 119.568C302.897 117.992 303.459 116.381 303.933 114.744" stroke="#031A54" stroke-width="0.809488" stroke-linejoin="round"/>
<path d="M294.138 117.067C294.38 116.638 297.465 112.752 303.924 114.76L312.602 114.056" stroke="#031A54" stroke-width="0.809488" stroke-linejoin="round"/>
<path d="M284.505 112.38L291.119 111.279" stroke="#031A54" stroke-width="0.809488" stroke-linejoin="round"/>
<path d="M311.89 114.323C311.89 114.323 315.152 110.818 316.447 113.837C317.742 116.856 315.921 122.021 311.671 121.592" stroke="#031A54" stroke-width="0.809488" stroke-linejoin="round"/>
<path d="M312.594 116.338C312.594 116.338 314.132 114.914 314.739 116.136C314.899 116.494 314.963 116.887 314.924 117.277C314.885 117.666 314.745 118.039 314.517 118.358C314.29 118.677 313.983 118.931 313.627 119.095C313.272 119.259 312.879 119.327 312.489 119.293" stroke="#031A54" stroke-width="0.809488" stroke-linejoin="round"/>
<path d="M378.446 190.083C378.446 190.083 381.401 187.727 381.773 191.912C381.959 193.96 381.166 194.988 379.596 195.183" stroke="#031A54" stroke-width="0.809488" stroke-linejoin="round"/>
<path d="M371.857 156.279C371.857 156.279 366.433 157.752 367.283 159.962" stroke="#031A54" stroke-width="0.809488" stroke-linejoin="round"/>
<path d="M368.741 289.156L430.626 298.239" stroke="#031A54" stroke-width="0.809488" stroke-linejoin="round"/>
<path d="M108.538 248.204L128.492 251.151" stroke="#031A54" stroke-width="0.809488" stroke-linejoin="round"/>
<path d="M221.025 266.741C221.146 266.741 235.887 268.959 235.887 268.959" stroke="#031A54" stroke-width="0.809488" stroke-linejoin="round"/>
<path d="M330.913 286.113L322.972 308.39L270.031 300.894L282.384 287.432" stroke="#031A54" stroke-width="0.809488" stroke-linejoin="round"/>
<path d="M202.754 278.39L246.653 287.432L206.284 306.407L164.377 299.348L202.754 278.39Z" stroke="#031A54" stroke-width="0.809488" stroke-linejoin="round"/>
<path d="M273.342 286.995L250.838 290.962L252.83 296.482L277.09 292.289L273.342 286.995Z" stroke="#031A54" stroke-width="0.809488" stroke-linejoin="round"/>
<path d="M291.45 286.793L290.196 276.383L289.896 273.922L286.601 246.504C286.561 246.27 286.488 246.043 286.431 245.816C286.407 245.735 286.399 245.654 286.375 245.582C286.342 245.484 286.318 245.395 286.286 245.298C286.202 245.077 286.105 244.86 285.994 244.651C285.913 244.489 285.824 244.327 285.727 244.173C285.475 243.779 285.182 243.413 284.853 243.08C284.804 243.032 284.756 242.975 284.707 242.926C284.562 242.789 284.416 242.667 284.262 242.546C284.157 242.465 284.052 242.392 283.946 242.319C283.811 242.22 283.671 242.128 283.525 242.044C283.274 241.904 283.015 241.779 282.748 241.672C282.643 241.631 282.538 241.599 282.433 241.567C282.213 241.491 281.988 241.429 281.761 241.38C281.664 241.356 281.558 241.34 281.453 241.316C281.129 241.259 268.946 239.365 268.946 239.365L232.43 233.569C232.287 233.545 232.14 233.558 232.002 233.605C231.864 233.652 231.74 233.733 231.641 233.839C231.542 233.945 231.47 234.075 231.433 234.215C231.395 234.356 231.393 234.504 231.427 234.645L236.13 274.594C236.193 275.137 236.422 275.647 236.786 276.055C237.149 276.464 237.63 276.75 238.162 276.876L291.823 289.707L291.45 286.793Z" stroke="#031A54" stroke-width="0.809488" stroke-linejoin="round"/>
<path d="M345.055 126.311C344.925 125.911 344.902 125.484 344.99 125.073L345.055 126.311Z" fill="#B5D2E3"/>
<path d="M337.551 94.9597C332.435 87.828 323.716 97.6876 323.716 97.6876C313.857 86.201 301.204 95.2511 301.204 95.2511C284.545 99.2661 286.876 111.821 290.001 113.691C290.301 113.869 292.203 109.085 293.814 107.207C296.169 104.463 301.204 104.706 301.204 104.706C302.046 108.365 307.494 111.465 311.623 114.541C312.545 115.229 313.768 111.748 314.715 111.991C320.414 113.457 315.257 121.487 315.257 121.487C315.257 121.487 313.752 131.443 313.962 131.986C314.375 133.07 315.152 134.544 316.099 133.588C316.666 133.022 317.362 129.565 318.77 128.91C320.891 127.914 324.218 129.525 327.885 127.113C333.341 123.518 330.168 114.412 329.448 112.558C329.379 112.455 329.332 112.34 329.31 112.218C329.31 112.218 329.359 112.339 329.448 112.558C329.852 113.197 331.504 114.387 338.247 112.995C347.054 111.174 340.513 99.088 337.551 94.9597Z" fill="#0A3C76" stroke="#031A54" stroke-width="1.51019" stroke-miterlimit="10"/>
<path d="M296.267 128.221C296.267 128.221 298.145 128.74 300.622 126.918" stroke="#031A54" stroke-width="0.809488" stroke-linejoin="round"/>
<path d="M353.903 196.421C355.559 196.758 357.282 196.458 358.727 195.579" stroke="#031A54" stroke-width="0.809488" stroke-linejoin="round"/>
<path d="M392.442 169.344C392.442 169.344 399.039 170.145 397.898 175.625C397.898 175.625 404.236 171.424 402.237 169.077" stroke="#031A54" stroke-width="0.809488" stroke-linejoin="round"/>
<path d="M390.281 192.09C390.572 191.928 396.975 188.585 394.693 184.174" stroke="#031A54" stroke-width="0.809488" stroke-linejoin="round"/>
<path d="M396.967 186.74C396.967 186.74 399.533 184.028 398.182 179.616" stroke="#031A54" stroke-width="0.809488" stroke-linejoin="round"/>
<path d="M397.898 175.625C397.898 175.625 402.026 173.99 402.528 176.127" stroke="#031A54" stroke-width="0.809488" stroke-linejoin="round"/>
<path d="M377.685 186.813L355.368 175.585C355.317 175.561 355.262 175.548 355.206 175.548C355.15 175.548 355.095 175.561 355.044 175.585C354.717 175.786 354.373 175.956 354.016 176.095C353.474 175.82 352.972 175.569 352.518 175.326C352.405 175.269 352.802 174.686 352.802 174.686L350.624 173.585C350.49 173.518 350.336 173.499 350.19 173.533C350.043 173.567 349.913 173.652 349.823 173.772L347.524 176.807C347.284 177.125 347.122 177.494 347.049 177.885C346.977 178.276 346.996 178.679 347.106 179.061C347.216 179.444 347.414 179.795 347.683 180.088C347.952 180.381 348.285 180.608 348.657 180.749L351.903 177.285C352.048 177.323 352.183 177.394 352.297 177.492C352.411 177.59 352.501 177.713 352.561 177.851C352.621 177.988 352.649 178.138 352.643 178.288C352.637 178.438 352.597 178.585 352.527 178.718L351.928 181.017C351.86 181.274 351.867 181.545 351.947 181.798C352.028 182.052 352.178 182.278 352.381 182.449L353.668 183.542C356.801 185.776 359.861 185.671 361.909 183.316L363.511 179.746L377.685 186.813Z" stroke="#031A54" stroke-width="0.809488" stroke-linejoin="round"/>
<path d="M169.63 132.374C168.068 132.237 166.951 130.286 167.72 129.072C168.181 128.335 169.031 128.707 169.63 129.12C169.866 129.283 170.088 129.464 170.294 129.663C170.294 129.663 168.489 127.857 167.72 129.072C166.951 130.286 168.06 132.237 169.63 132.374Z" stroke="#031A54" stroke-width="0.644598" stroke-miterlimit="10"/>
<path d="M188.783 146.184C188.783 146.184 187.172 146.184 184.752 144.573" stroke="#031A54" stroke-width="0.809488" stroke-miterlimit="10"/>
</g>
<defs>
<clipPath id="clip0_1097_3373">
<rect width="1440" height="294" fill="white"/>
</clipPath>
<clipPath id="clip1_1097_3373">
<rect width="246" height="251" fill="white" transform="translate(1052 40)"/>
</clipPath>
</defs>
</svg>
