<svg id="Layer_1" data-name="Layer 1" xmlns="http://www.w3.org/2000/svg" height="50" width="200" viewBox="0 0 551.81 119.25" version="1.1"><defs><style>.cls-1{fill:#55565a}.cls-2{fill:#25378b}.cls-3{fill:#0474b4}.cls-4{fill:#7ba72b}.cls-5{fill:#268262}.cls-6{fill:#1e519f}.cls-7{fill:#1c3e91}.cls-8{fill:#f8cc00}.cls-9{fill:#f08900}.cls-10{fill:#d63231}.cls-11{fill:#e74510}.cls-12{fill:#ec651f}.cls-13{fill:#6f2471}</style></defs><title>Skylight Logo</title><path class="cls-1" d="M173.78 32.36a12.47 12.47 0 0 0-5.77-4 20.73 20.73 0 0 0-6.89-1.29 18.13 18.13 0 0 0-3.92.45 15.08 15.08 0 0 0-3.81 1.4 8.3 8.3 0 0 0-2.92 2.52 6.39 6.39 0 0 0-1.12 3.81 6.32 6.32 0 0 0 2.65 5.52 25.42 25.42 0 0 0 6.81 3.23q4.09 1.35 8.8 2.69a36.33 36.33 0 0 1 8.8 3.81 20.86 20.86 0 0 1 6.78 6.61q2.69 4.15 2.69 11.1a25.53 25.53 0 0 1-2.47 11.55 23.42 23.42 0 0 1-6.66 8.24 28.35 28.35 0 0 1-9.75 4.79 44.72 44.72 0 0 1-26.07-.79 36 36 0 0 1-12.33-7.62L141 70.7a18.14 18.14 0 0 0 6.78 5.55 19.35 19.35 0 0 0 8.46 2 19.15 19.15 0 0 0 4.32-.5 14.07 14.07 0 0 0 3.92-1.51 8.47 8.47 0 0 0 2.8-2.58 6.43 6.43 0 0 0 1.06-3.7 6.72 6.72 0 0 0-2.75-5.66 25.41 25.41 0 0 0-6.89-3.53q-4.15-1.46-9-2.92a40.16 40.16 0 0 1-9-3.92 21.58 21.58 0 0 1-6.89-6.5q-2.75-4-2.75-10.65a23.84 23.84 0 0 1 2.52-11.21 24.35 24.35 0 0 1 6.73-8.07 29.26 29.26 0 0 1 9.7-4.88 39.72 39.72 0 0 1 11.32-1.63 44.55 44.55 0 0 1 13 1.91 30 30 0 0 1 11.32 6.39zM196.76 7.58h16.82v51.8l18.61-21.53h20.63l-21.64 24.56 22.2 29.93h-21.19L213.8 64.76h-.22v27.58h-16.82zM290.48 101.2q-1.68 4.37-3.25 7.74a18.59 18.59 0 0 1-4 5.66 15.52 15.52 0 0 1-6.11 3.48 33 33 0 0 1-9.75 1.18 39.44 39.44 0 0 1-12.56-2l2.24-13.79a19.26 19.26 0 0 0 7.85 1.68 14.42 14.42 0 0 0 4.6-.62 7.66 7.66 0 0 0 3-1.79 10 10 0 0 0 2-2.86q.78-1.68 1.68-3.92l1.23-3.14-23.92-54.97h18.16l14 36h.22l12-36h17.27zM321.65 7.58h16.82v84.76h-16.82zM349.45 20.7a9.4 9.4 0 0 1 2.86-6.89 9.74 9.74 0 0 1 13.79 0 9.4 9.4 0 0 1 2.9 6.89 9.39 9.39 0 0 1-2.86 6.89 9.74 9.74 0 0 1-13.79 0 9.39 9.39 0 0 1-2.9-6.89zm1.35 17.15h16.82v54.49H350.8zM436.9 87.74q0 15.47-7.79 23.49t-23.71 8a63.88 63.88 0 0 1-14.4-1.61 32.48 32.48 0 0 1-13-6.33l9.3-13.9a35.25 35.25 0 0 0 8.24 5.16 23.19 23.19 0 0 0 9.47 1.91q7.74 0 11.38-3.76a13.21 13.21 0 0 0 3.64-9.59v-5.27h-.22a15.85 15.85 0 0 1-7.23 5.55A23.14 23.14 0 0 1 404.5 93a28.07 28.07 0 0 1-11-2.07 24.48 24.48 0 0 1-8.5-5.82 26 26 0 0 1-5.44-8.91 32.4 32.4 0 0 1-1.91-11.32 32.76 32.76 0 0 1 1.74-10.54 28.81 28.81 0 0 1 4.93-9.08 24.77 24.77 0 0 1 7.79-6.33 22.12 22.12 0 0 1 10.43-2.41 25.35 25.35 0 0 1 11.88 2.8 19.61 19.61 0 0 1 4 2.75 17.46 17.46 0 0 1 2.69 3h.22v-7.22h15.57zm-42.38-23a13.13 13.13 0 0 0 3.87 9.36 14.75 14.75 0 0 0 4.26 3 13.08 13.08 0 0 0 10.59 0 14.56 14.56 0 0 0 4.32-3 13.23 13.23 0 0 0 0-18.72 14.59 14.59 0 0 0-4.32-3 13.07 13.07 0 0 0-10.59 0 14.78 14.78 0 0 0-4.26 3 13.13 13.13 0 0 0-3.87 9.36zM467.17 7.58v37.67h.22a10.13 10.13 0 0 1 1.91-3.14 15 15 0 0 1 3.25-2.8 17.75 17.75 0 0 1 4.48-2 19.22 19.22 0 0 1 5.61-.78 23.18 23.18 0 0 1 10.31 2 14.93 14.93 0 0 1 6.11 5.44 22 22 0 0 1 3 8.18 62.31 62.31 0 0 1 .78 10.2v30H486V65.66q0-2.35-.17-4.88a15.37 15.37 0 0 0-1-4.65 7.23 7.23 0 0 0-7.57-4.82 10.38 10.38 0 0 0-5.26 1.17 8 8 0 0 0-3.08 3.14 12.84 12.84 0 0 0-1.4 4.43 38.11 38.11 0 0 0-.34 5.16v27.13h-16.83V7.58zM551.81 51.31H537v18.16a33.9 33.9 0 0 0 .22 4.09 8.22 8.22 0 0 0 1 3.19 5.08 5.08 0 0 0 2.41 2.07 10.66 10.66 0 0 0 4.32.73 28.9 28.9 0 0 0 3.53-.28 6 6 0 0 0 3.33-1.27v14a25.47 25.47 0 0 1-5.81 1.35 53.71 53.71 0 0 1-5.94.34 32.32 32.32 0 0 1-7.85-.9 17.86 17.86 0 0 1-6.28-2.86 13.38 13.38 0 0 1-4.2-5.1 17.44 17.44 0 0 1-1.51-7.62v-25.9h-10.79V37.85h10.76V21.71H537v16.14h14.8z"/><path class="cls-2" d="M56.71 76.5c-.55 0-1.11.07-1.67.07s-1.12 0-1.67-.07l-8.74 32.6a55.4 55.4 0 0 0 20.81 0z"/><path class="cls-3" d="M33.58 53.38L1 44.64a55.36 55.36 0 0 0 0 20.8l32.6-8.74c0-.55-.07-1.1-.07-1.66s.01-1.11.05-1.66z"/><path class="cls-4" d="M37 3a55 55 0 0 0-18 10.4l23.88 23.9a21.63 21.63 0 0 1 2.88-1.68z"/><path class="cls-5" d="M3 37l32.61 8.74a20.9 20.9 0 0 1 1.67-2.88L13.43 19A54.92 54.92 0 0 0 3 37z"/><path class="cls-6" d="M35.63 64.33L3 73.07a54.8 54.8 0 0 0 10.41 18L37.3 67.21a20.52 20.52 0 0 1-1.67-2.88z"/><path class="cls-7" d="M42.87 72.79L19 96.65a54.9 54.9 0 0 0 18 10.41l8.74-32.6a21.7 21.7 0 0 1-2.87-1.67z"/><path class="cls-8" d="M55 0a54.86 54.86 0 0 0-10.4 1l8.74 32.6c.55 0 1.11-.07 1.67-.07s1.12 0 1.67.07L65.45 1A54.86 54.86 0 0 0 55 0z"/><path class="cls-9" d="M73.07 3l-8.74 32.6a21.64 21.64 0 0 1 2.88 1.68l23.87-23.85A54.87 54.87 0 0 0 73.07 3z"/><path class="cls-10" d="M74.46 64.33a21.15 21.15 0 0 1-1.68 2.87l23.88 23.88a54.91 54.91 0 0 0 10.4-18z"/><path class="cls-11" d="M109.1 44.65l-32.6 8.73c0 .55.07 1.1.07 1.66s0 1.11-.07 1.66l32.6 8.74a55.29 55.29 0 0 0 0-20.79z"/><path class="cls-12" d="M96.66 19L72.78 42.88a21.15 21.15 0 0 1 1.68 2.87l32.6-8.75a55 55 0 0 0-10.4-18z"/><path class="cls-13" d="M67.22 72.79a21.71 21.71 0 0 1-2.89 1.68l8.74 32.6a54.84 54.84 0 0 0 18-10.41z"/>
</svg>
