<?xml version="1.0" encoding="utf-8"?>
<!-- Generator: Adobe Illustrator 24.0.3, SVG Export Plug-In . SVG Version: 6.00 Build 0)  -->
<svg version="1.1" xmlns="http://www.w3.org/2000/svg" xmlns:xlink="http://www.w3.org/1999/xlink" x="0px" y="0px"
	 viewBox="0 0 357.17 247.01" style="enable-background:new 0 0 357.17 247.01;" xml:space="preserve">
<style type="text/css">
	.st0{fill:#F4F4F5;}
	.st1{fill:#FFFFFF;}
	.st2{fill:#4890BA;}
	.st3{fill:#DCEFFA;}
	.st4{fill:none;}
	.st5{fill:#EEAB89;}
	.st6{fill:#F2BEA6;}
	.st7{fill:#54575C;}
	.st8{fill:none;stroke:#54575C;stroke-width:0.75;stroke-miterlimit:10;}
	.st9{fill:#E0635D;}
	.st10{fill:#235485;}
	.st11{fill:#999B9E;}
	.st12{fill:#9A5738;}
	.st13{fill:#E5866C;}
	.st14{fill:#F5C65D;}
	.st15{fill:#F5CFBB;}
	.st16{fill:none;stroke:#54575C;stroke-width:0.75;stroke-linejoin:round;stroke-miterlimit:10;}
	.st17{fill:#E38F46;}
	.st18{fill:#61A575;}
	.st19{fill:#E4845C;}
	.st20{fill:#BB5721;}
	.st21{fill:#FEB996;}
	.st22{fill-rule:evenodd;clip-rule:evenodd;fill:#FFFFFF;}
	.st23{fill:#C27D3B;}
	.st24{fill:#EFA771;}
	.st25{fill:#9B461C;}
	.st26{fill:#EFA750;}
	.st27{fill:none;stroke:#F4F4F5;stroke-width:0.5;stroke-linejoin:round;stroke-miterlimit:10;}
	.st28{fill:none;stroke:#54575C;stroke-width:0.5;stroke-linejoin:round;stroke-miterlimit:10;}
	.st29{fill:none;stroke:#54575C;stroke-width:0.5;stroke-miterlimit:10;}
</style>
<g id="Layer_1">
</g>
<g id="Layer_2">
</g>
<g id="Layer_3">
	<g>
		<g>
			<g>
				<path class="st7" d="M37.27,114.91c-3.26,0-6.31,1.6-8.16,4.28L3.34,144.27c-1.48,1.44-2.4,3.35-2.61,5.4l-0.37,3.67h0.37
					c-0.28-1.09-0.35-2.26,0.56-3.66c1.12-1.72,3.09-2.7,5.14-2.7l158.4,0v-0.49v-31.59H37.27z"/>
				<path class="st0" d="M164.85,146.98H5.61c-2.79,0-5.05,2.26-5.05,5.05c0,0.46,0.08,0.89,0.19,1.31h164.1V146.98z"/>
				<path class="st0" d="M4.91,157.15v35.4c0,1.23,1,2.23,2.23,2.23h1.59c1.23,0,2.23-1,2.23-2.23v-35.32h-5.2
					C5.47,157.23,5.19,157.19,4.91,157.15z"/>
				<path class="st0" d="M88.87,194.78h1.59c1.23,0,2.23-1,2.23-2.23v-35.32h-6.05v35.32C86.64,193.78,87.64,194.78,88.87,194.78z"
					/>
				<path class="st0" d="M30.49,178.52h0.34c1.23,0,2.23-1,2.23-2.23v-19.05h-4.8v19.05C28.26,177.52,29.26,178.52,30.49,178.52z"/>
				<path class="st0" d="M111.39,178.52h0.34c1.23,0,2.23-1,2.23-2.23v-19.05h-4.8v19.05C109.16,177.52,110.16,178.52,111.39,178.52
					z"/>
				<path class="st0" d="M0.75,153.34c0.51,1.97,2.14,3.47,4.17,3.81c0.28,0.05,0.56,0.09,0.85,0.09h5.2h17.31h4.8h53.58h6.05h16.47
					h4.8h50.89v-3.89H0.75z"/>
				<path class="st7" d="M4.95,153.34c0-2.17,1.76-3.93,3.93-3.93s3.93,1.76,3.93,3.93H4.95z"/>
				<path class="st7" d="M22.88,153.34c0-2.17,1.76-3.93,3.93-3.93s3.93,1.76,3.93,3.93H22.88z"/>
				<path class="st7" d="M40.8,153.34c0-2.17,1.76-3.93,3.93-3.93c2.17,0,3.93,1.76,3.93,3.93H40.8z"/>
				<path class="st7" d="M58.73,153.34c0-2.17,1.76-3.93,3.93-3.93s3.93,1.76,3.93,3.93H58.73z"/>
				<path class="st7" d="M76.65,153.34c0-2.17,1.76-3.93,3.93-3.93s3.93,1.76,3.93,3.93H76.65z"/>
				<path class="st7" d="M94.57,153.34c0-2.17,1.76-3.93,3.93-3.93s3.93,1.76,3.93,3.93H94.57z"/>
				<path class="st7" d="M112.5,153.34c0-2.17,1.76-3.93,3.93-3.93c2.17,0,3.93,1.76,3.93,3.93H112.5z"/>
				<path class="st7" d="M130.42,153.34c0-2.17,1.76-3.93,3.93-3.93s3.93,1.76,3.93,3.93H130.42z"/>
				<path class="st7" d="M148.35,153.34c0-2.17,1.76-3.93,3.93-3.93c2.17,0,3.93,1.76,3.93,3.93H148.35z"/>
			</g>
			<g>
				<g>
					<line class="st27" x1="29.24" y1="146.43" x2="58.71" y2="114.2"/>
					<line class="st27" x1="63.22" y1="146.43" x2="91.56" y2="114.2"/>
					<line class="st27" x1="97.19" y1="146.43" x2="124.42" y2="114.2"/>
					<line class="st27" x1="131.17" y1="146.43" x2="156.16" y2="114.2"/>
				</g>
				<path class="st28" d="M38.65,114.32c-3.26,0-6.31,1.6-8.16,4.28L4.73,143.69c-1.48,1.44-2.4,3.35-2.61,5.4l-0.37,3.67h0.37
					c-0.28-1.09-0.35-2.26,0.56-3.66c1.12-1.72,3.09-2.7,5.14-2.7l158.4,0v-0.49v-31.59H38.65z"/>
				<path class="st28" d="M166.23,146.4H6.99c-2.79,0-5.05,2.26-5.05,5.05c0,0.46,0.08,0.89,0.19,1.31h164.1V146.4z"/>
				<path class="st28" d="M6.3,156.56v35.4c0,1.23,1,2.23,2.23,2.23h1.59c1.23,0,2.23-1,2.23-2.23v-35.32h-5.2
					C6.85,156.65,6.57,156.61,6.3,156.56z"/>
				<path class="st28" d="M90.26,194.19h1.59c1.23,0,2.23-1,2.23-2.23v-35.32h-6.05v35.32C88.03,193.2,89.03,194.19,90.26,194.19z"
					/>
				<path class="st28" d="M31.88,177.93h0.34c1.23,0,2.23-1,2.23-2.23v-19.05h-4.8v19.05C29.65,176.93,30.65,177.93,31.88,177.93z"
					/>
				<path class="st28" d="M112.77,177.93h0.34c1.23,0,2.23-1,2.23-2.23v-19.05h-4.8v19.05
					C110.55,176.93,111.54,177.93,112.77,177.93z"/>
				<path class="st28" d="M2.13,152.76c0.51,1.97,2.14,3.47,4.17,3.81c0.28,0.05,0.56,0.09,0.85,0.09h5.2h17.31h4.8h53.58h6.05
					h16.47h4.8h50.89v-3.89H2.13z"/>
				<path class="st28" d="M6.34,152.76c0-2.17,1.76-3.93,3.93-3.93s3.93,1.76,3.93,3.93H6.34z"/>
				<path class="st28" d="M24.26,152.76c0-2.17,1.76-3.93,3.93-3.93s3.93,1.76,3.93,3.93H24.26z"/>
				<path class="st28" d="M42.19,152.76c0-2.17,1.76-3.93,3.93-3.93c2.17,0,3.93,1.76,3.93,3.93H42.19z"/>
				<path class="st28" d="M60.11,152.76c0-2.17,1.76-3.93,3.93-3.93c2.17,0,3.93,1.76,3.93,3.93H60.11z"/>
				<path class="st28" d="M78.03,152.76c0-2.17,1.76-3.93,3.93-3.93s3.93,1.76,3.93,3.93H78.03z"/>
				<path class="st28" d="M95.96,152.76c0-2.17,1.76-3.93,3.93-3.93c2.17,0,3.93,1.76,3.93,3.93H95.96z"/>
				<path class="st28" d="M113.88,152.76c0-2.17,1.76-3.93,3.93-3.93s3.93,1.76,3.93,3.93H113.88z"/>
				<path class="st28" d="M131.81,152.76c0-2.17,1.76-3.93,3.93-3.93c2.17,0,3.93,1.76,3.93,3.93H131.81z"/>
				<path class="st28" d="M149.73,152.76c0-2.17,1.76-3.93,3.93-3.93c2.17,0,3.93,1.76,3.93,3.93H149.73z"/>
			</g>
		</g>
		<g>
			<g>
				<path class="st7" d="M318.11,114.91c3.26,0,6.31,1.6,8.16,4.28l25.77,25.09c1.48,1.44,2.4,3.35,2.61,5.4l0.37,3.67h-0.37
					c0.28-1.09,0.35-2.26-0.56-3.66c-1.12-1.72-3.09-2.7-5.14-2.7l-158.4,0v-0.49v-31.59H318.11z"/>
				<path class="st0" d="M190.53,146.98h159.24c2.79,0,5.05,2.26,5.05,5.05c0,0.46-0.08,0.89-0.19,1.31h-164.1V146.98z"/>
				<path class="st0" d="M350.47,157.15v35.4c0,1.23-1,2.23-2.23,2.23h-1.59c-1.23,0-2.23-1-2.23-2.23v-35.32h5.2
					C349.91,157.23,350.19,157.19,350.47,157.15z"/>
				<path class="st0" d="M266.51,194.78h-1.59c-1.23,0-2.23-1-2.23-2.23v-35.32h6.05v35.32
					C268.73,193.78,267.74,194.78,266.51,194.78z"/>
				<path class="st0" d="M324.89,178.52h-0.34c-1.23,0-2.23-1-2.23-2.23v-19.05h4.8v19.05
					C327.11,177.52,326.12,178.52,324.89,178.52z"/>
				<path class="st0" d="M243.99,178.52h-0.34c-1.23,0-2.23-1-2.23-2.23v-19.05h4.8v19.05
					C246.22,177.52,245.22,178.52,243.99,178.52z"/>
				<path class="st0" d="M354.63,153.34c-0.51,1.97-2.14,3.47-4.17,3.81c-0.28,0.05-0.56,0.09-0.85,0.09h-5.2h-17.31h-4.8h-53.58
					h-6.05h-16.47h-4.8h-50.89v-3.89H354.63z"/>
				<path class="st7" d="M350.42,153.34c0-2.17-1.76-3.93-3.93-3.93c-2.17,0-3.93,1.76-3.93,3.93H350.42z"/>
				<path class="st7" d="M332.5,153.34c0-2.17-1.76-3.93-3.93-3.93s-3.93,1.76-3.93,3.93H332.5z"/>
				<path class="st7" d="M314.58,153.34c0-2.17-1.76-3.93-3.93-3.93c-2.17,0-3.93,1.76-3.93,3.93H314.58z"/>
				<path class="st7" d="M296.65,153.34c0-2.17-1.76-3.93-3.93-3.93c-2.17,0-3.93,1.76-3.93,3.93H296.65z"/>
				<path class="st7" d="M278.73,153.34c0-2.17-1.76-3.93-3.93-3.93s-3.93,1.76-3.93,3.93H278.73z"/>
				<path class="st7" d="M260.8,153.34c0-2.17-1.76-3.93-3.93-3.93c-2.17,0-3.93,1.76-3.93,3.93H260.8z"/>
				<path class="st7" d="M242.88,153.34c0-2.17-1.76-3.93-3.93-3.93c-2.17,0-3.93,1.76-3.93,3.93H242.88z"/>
				<path class="st7" d="M224.96,153.34c0-2.17-1.76-3.93-3.93-3.93c-2.17,0-3.93,1.76-3.93,3.93H224.96z"/>
				<path class="st7" d="M207.03,153.34c0-2.17-1.76-3.93-3.93-3.93s-3.93,1.76-3.93,3.93H207.03z"/>
			</g>
			<g>
				<g>
					<line class="st27" x1="326.13" y1="146.43" x2="296.67" y2="114.2"/>
					<line class="st27" x1="292.16" y1="146.43" x2="263.81" y2="114.2"/>
					<line class="st27" x1="258.19" y1="146.43" x2="230.96" y2="114.2"/>
					<line class="st27" x1="224.21" y1="146.43" x2="199.21" y2="114.2"/>
				</g>
				<path class="st28" d="M316.73,114.32c3.26,0,6.31,1.6,8.16,4.28l25.77,25.09c1.48,1.44,2.4,3.35,2.61,5.4l0.37,3.67h-0.37
					c0.28-1.09,0.35-2.26-0.56-3.66c-1.12-1.72-3.09-2.7-5.14-2.7l-158.4,0v-0.49v-31.59H316.73z"/>
				<path class="st28" d="M189.15,146.4h159.24c2.79,0,5.05,2.26,5.05,5.05c0,0.46-0.08,0.89-0.19,1.31h-164.1V146.4z"/>
				<path class="st28" d="M349.08,156.56v35.4c0,1.23-1,2.23-2.23,2.23h-1.59c-1.23,0-2.23-1-2.23-2.23v-35.32h5.2
					C348.53,156.65,348.8,156.61,349.08,156.56z"/>
				<path class="st28" d="M265.12,194.19h-1.59c-1.23,0-2.23-1-2.23-2.23v-35.32h6.05v35.32
					C267.35,193.2,266.35,194.19,265.12,194.19z"/>
				<path class="st28" d="M323.5,177.93h-0.34c-1.23,0-2.23-1-2.23-2.23v-19.05h4.8v19.05C325.73,176.93,324.73,177.93,323.5,177.93
					z"/>
				<path class="st28" d="M242.61,177.93h-0.34c-1.23,0-2.23-1-2.23-2.23v-19.05h4.8v19.05
					C244.83,176.93,243.84,177.93,242.61,177.93z"/>
				<path class="st28" d="M353.25,152.76c-0.51,1.97-2.14,3.47-4.17,3.81c-0.28,0.05-0.56,0.09-0.85,0.09h-5.2h-17.31h-4.8h-53.58
					h-6.05h-16.47h-4.8h-50.89v-3.89H353.25z"/>
				<path class="st28" d="M349.04,152.76c0-2.17-1.76-3.93-3.93-3.93s-3.93,1.76-3.93,3.93H349.04z"/>
				<path class="st28" d="M331.12,152.76c0-2.17-1.76-3.93-3.93-3.93c-2.17,0-3.93,1.76-3.93,3.93H331.12z"/>
				<path class="st28" d="M313.19,152.76c0-2.17-1.76-3.93-3.93-3.93c-2.17,0-3.93,1.76-3.93,3.93H313.19z"/>
				<path class="st28" d="M295.27,152.76c0-2.17-1.76-3.93-3.93-3.93s-3.93,1.76-3.93,3.93H295.27z"/>
				<path class="st28" d="M277.34,152.76c0-2.17-1.76-3.93-3.93-3.93c-2.17,0-3.93,1.76-3.93,3.93H277.34z"/>
				<path class="st28" d="M259.42,152.76c0-2.17-1.76-3.93-3.93-3.93c-2.17,0-3.93,1.76-3.93,3.93H259.42z"/>
				<path class="st28" d="M241.5,152.76c0-2.17-1.76-3.93-3.93-3.93c-2.17,0-3.93,1.76-3.93,3.93H241.5z"/>
				<path class="st28" d="M223.57,152.76c0-2.17-1.76-3.93-3.93-3.93s-3.93,1.76-3.93,3.93H223.57z"/>
				<path class="st28" d="M205.65,152.76c0-2.17-1.76-3.93-3.93-3.93c-2.17,0-3.93,1.76-3.93,3.93H205.65z"/>
			</g>
		</g>
		<g>
			<g>
				<path class="st0" d="M97.97,91.24c-0.43,0-7.92,3.44-7.92,3.44l-7.74,6.11l-11.04,3c-0.38,0.1-0.63,0.47-0.59,0.86l0.62,6.2
					l-2.58,5.33v3.18l-1.2,1.38l0.6,3.01l-1.2,1.81l0.52,3.7l29.51,3.44l6.11-11.7l-0.95-5.51c0,0,0.74-15.4-1.89-23.75L97.97,91.24
					z"/>
				<path class="st7" d="M101.05,97.04c0.27,2.78,1.18,12.79,0.47,16.73c-0.11,0.63-0.47,1.17-0.99,1.55l-1.75,1.27
					c-0.43,0.31-1.03,0.03-1.07-0.5l-1.17-17.19c-0.02-0.32,0.15-0.61,0.44-0.75l3.33-1.54C100.64,96.47,101.01,96.68,101.05,97.04z
					"/>
			</g>
			<g>
				<path class="st29" d="M99,90.96c-0.43,0-7.92,3.44-7.92,3.44l-7.74,6.11l-11.04,3c-0.38,0.1-0.63,0.47-0.59,0.86l0.62,6.2
					l-2.58,5.33v3.18l-1.2,1.38l0.6,3.01l-1.2,1.81l0.52,3.7l29.51,3.44l6.11-11.7l-0.95-5.51c0,0,0.74-15.4-1.89-23.75L99,90.96z"
					/>
				<path class="st29" d="M91.09,94.4l1.2,28.82l5.08-0.69c0,0,2.75-0.52,5.76-7.31"/>
				<polyline class="st29" points="101.24,91.48 95.31,94.49 97.37,122.54 				"/>
				<path class="st29" d="M102.09,96.77c0.27,2.78,1.18,12.79,0.47,16.73c-0.11,0.63-0.47,1.17-0.99,1.55l-1.75,1.27
					c-0.43,0.31-1.03,0.03-1.07-0.5l-1.17-17.19c-0.02-0.32,0.15-0.61,0.44-0.75l3.33-1.54C101.68,96.2,102.05,96.41,102.09,96.77z"
					/>
				<line class="st29" x1="92.38" y1="94.15" x2="94.01" y2="122.8"/>
				<polyline class="st29" points="92.12,120.99 71.3,117.63 69.75,119.1 				"/>
				<path class="st29" d="M69.84,115.31c0.43-0.09,21.68-0.6,21.68-0.6"/>
				<polyline class="st29" points="90.57,114.79 84.21,110.66 72.33,110.58 				"/>
				<line class="st29" x1="83.35" y1="100.51" x2="84.21" y2="110.66"/>
				<polyline class="st29" points="69.15,123.48 96.17,124.34 96.34,122.71 				"/>
				<path class="st29" d="M71.3,117.63c0,0.43,0.26,5.94,0.26,5.94"/>
				<polyline class="st29" points="67.95,125.29 97.46,126.41 103.13,116.52 				"/>
				<line class="st29" x1="97.46" y1="126.41" x2="97.97" y2="132.43"/>
				<line class="st29" x1="68.55" y1="120.47" x2="71.13" y2="120.04"/>
				<line class="st29" x1="102.7" y1="120.04" x2="101.24" y2="122.54"/>
				<polygon class="st29" points="100.73,123.14 100.9,124.6 98.75,128.39 98.49,126.84 				"/>
				<line class="st29" x1="93.93" y1="126.24" x2="94.44" y2="131.92"/>
			</g>
		</g>
		<g>
			<g>
				<path class="st0" d="M56.56,91.24c-0.43,0-7.92,3.44-7.92,3.44l-7.74,6.11l-11.04,3c-0.38,0.1-0.63,0.47-0.59,0.86l0.62,6.2
					l-2.58,5.33v3.18l-1.2,1.38l0.6,3.01l-1.2,1.81l0.52,3.7l29.51,3.44l6.11-11.7l-0.95-5.51c0,0,0.74-15.4-1.89-23.75L56.56,91.24
					z"/>
				<path class="st7" d="M59.64,97.04c0.27,2.78,1.18,12.79,0.47,16.73c-0.11,0.63-0.47,1.17-0.99,1.55l-1.75,1.27
					c-0.43,0.31-1.03,0.03-1.07-0.5l-1.17-17.19c-0.02-0.32,0.15-0.61,0.44-0.75l3.33-1.54C59.23,96.47,59.61,96.68,59.64,97.04z"/>
			</g>
			<g>
				<path class="st29" d="M57.6,90.96c-0.43,0-7.92,3.44-7.92,3.44l-7.74,6.11l-11.04,3c-0.38,0.1-0.63,0.47-0.59,0.86l0.62,6.2
					l-2.58,5.33v3.18l-1.2,1.38l0.6,3.01l-1.2,1.81l0.52,3.7l29.51,3.44l6.11-11.7l-0.95-5.51c0,0,0.74-15.4-1.89-23.75L57.6,90.96z
					"/>
				<path class="st29" d="M49.68,94.4l1.2,28.82l5.08-0.69c0,0,2.75-0.52,5.76-7.31"/>
				<polyline class="st29" points="59.84,91.48 53.9,94.49 55.96,122.54 				"/>
				<path class="st29" d="M60.68,96.77c0.27,2.78,1.18,12.79,0.47,16.73c-0.11,0.63-0.47,1.17-0.99,1.55l-1.75,1.27
					c-0.43,0.31-1.03,0.03-1.07-0.5l-1.17-17.19c-0.02-0.32,0.15-0.61,0.44-0.75l3.33-1.54C60.27,96.2,60.65,96.41,60.68,96.77z"/>
				<line class="st29" x1="50.97" y1="94.15" x2="52.61" y2="122.8"/>
				<polyline class="st29" points="50.72,120.99 29.89,117.63 28.35,119.1 				"/>
				<path class="st29" d="M28.43,115.31c0.43-0.09,21.68-0.6,21.68-0.6"/>
				<polyline class="st29" points="49.17,114.79 42.8,110.66 30.93,110.58 				"/>
				<line class="st29" x1="41.94" y1="100.51" x2="42.8" y2="110.66"/>
				<polyline class="st29" points="27.74,123.48 54.76,124.34 54.93,122.71 				"/>
				<path class="st29" d="M29.89,117.63c0,0.43,0.26,5.94,0.26,5.94"/>
				<polyline class="st29" points="26.54,125.29 56.05,126.41 61.73,116.52 				"/>
				<line class="st29" x1="56.05" y1="126.41" x2="56.57" y2="132.43"/>
				<line class="st29" x1="27.14" y1="120.47" x2="29.72" y2="120.04"/>
				<line class="st29" x1="61.3" y1="120.04" x2="59.84" y2="122.54"/>
				<polygon class="st29" points="59.32,123.14 59.49,124.6 57.34,128.39 57.08,126.84 				"/>
				<line class="st29" x1="52.52" y1="126.24" x2="53.04" y2="131.92"/>
			</g>
		</g>
		<g>
			<g>
				<path class="st0" d="M287.84,119.35l-24.77,0.08L257.8,96.5c-0.06-0.28-0.26-0.51-0.53-0.62l-5.7-2.2
					c-0.27-0.1-0.54,0.13-0.48,0.42l7.17,31.75c0.06,0.24,0.28,0.41,0.53,0.4l0.8-0.15c0,0,0.36-0.03,0.73-0.02l31.18-0.56
					c0.66,0.01,1.18-0.55,1.11-1.21l0,0c-0.03-0.26-0.14-0.5-0.33-0.68L287.84,119.35z"/>
				<path class="st2" d="M262.74,118.68l-3.39,3.19c-0.2,0.19-0.53,0.09-0.59-0.18l-6.1-26c-0.06-0.26,0.18-0.5,0.44-0.43l4.22,1.12
					c0.31,0.08,0.55,0.33,0.62,0.65L262.74,118.68z"/>
			</g>
			<g>
				<path class="st29" d="M287.13,119.37l-24.77,0.08l-5.27-23.78c-0.06-0.29-0.26-0.53-0.53-0.64l-5.7-2.28
					c-0.27-0.11-0.54,0.14-0.48,0.43l7.17,32.93c0.06,0.25,0.28,0.43,0.53,0.42l0.8-0.15c0,0,0.36-0.03,0.73-0.02l31.18-0.58
					c0.66,0.01,1.18-0.57,1.11-1.25v0c-0.03-0.27-0.14-0.52-0.33-0.71L287.13,119.37z"/>
				<path class="st29" d="M262.62,119.42c0,0-2.6,2.9-3.51,3.66s0.14,3.04,0.14,3.04"/>
				<path class="st29" d="M291.56,123.81c-0.38,0.14-32.53,0.31-32.53,0.31"/>
				<path class="st29" d="M262.03,118.67l-3.39,3.31c-0.2,0.2-0.53,0.09-0.59-0.18l-6.1-26.96c-0.06-0.27,0.18-0.52,0.44-0.45
					l4.22,1.16c0.31,0.09,0.55,0.35,0.62,0.67L262.03,118.67z"/>
			</g>
		</g>
		<g>
			<g>
				<path class="st0" d="M330.25,119.35l-24.77,0.08l-5.27-22.93c-0.06-0.28-0.26-0.51-0.53-0.62l-5.7-2.2
					c-0.27-0.1-0.54,0.13-0.48,0.42l7.17,31.75c0.06,0.24,0.28,0.41,0.53,0.4l0.8-0.15c0,0,0.36-0.03,0.73-0.02l31.18-0.56
					c0.66,0.01,1.18-0.55,1.11-1.21l0,0c-0.03-0.26-0.14-0.5-0.33-0.68L330.25,119.35z"/>
				<path class="st7" d="M305.15,118.68l-3.39,3.19c-0.2,0.19-0.53,0.09-0.59-0.18l-6.1-26c-0.06-0.26,0.18-0.5,0.44-0.43l4.22,1.12
					c0.31,0.08,0.55,0.33,0.62,0.65L305.15,118.68z"/>
			</g>
			<g>
				<path class="st29" d="M329.54,119.37l-24.77,0.08l-5.27-23.78c-0.06-0.29-0.26-0.53-0.53-0.64l-5.7-2.28
					c-0.27-0.11-0.54,0.14-0.48,0.43l7.17,32.93c0.06,0.25,0.28,0.43,0.53,0.42l0.8-0.15c0,0,0.36-0.03,0.73-0.02l31.18-0.58
					c0.66,0.01,1.18-0.57,1.11-1.25v0c-0.03-0.27-0.14-0.52-0.33-0.71L329.54,119.37z"/>
				<path class="st29" d="M305.04,119.42c0,0-2.6,2.9-3.5,3.66c-0.91,0.76,0.14,3.04,0.14,3.04"/>
				<path class="st29" d="M333.98,123.81c-0.38,0.14-32.53,0.31-32.53,0.31"/>
				<path class="st2" d="M304.44,118.67l-3.39,3.31c-0.2,0.2-0.53,0.09-0.59-0.18l-6.1-26.96c-0.06-0.27,0.18-0.52,0.44-0.45
					l4.22,1.16c0.31,0.09,0.55,0.35,0.62,0.67L304.44,118.67z"/>
			</g>
		</g>
		<g>
			<rect x="193.37" y="94.12" class="st0" width="22.92" height="25.84"/>
			<polygon class="st3" points="196.4,118.06 142.13,118.06 100.11,118.06 100.11,122.36 100.11,130.31 100.11,134.61 
				212.95,134.61 212.95,130.31 212.95,122.36 212.95,118.06 			"/>
			<polygon class="st0" points="252.65,94.59 212.95,94.59 212.95,95.56 212.95,97.21 212.95,118.06 212.95,122.36 212.95,130.31 
				212.95,134.61 212.95,145.53 212.95,149.83 212.95,153.47 212.95,166.7 216.26,166.7 219.9,166.7 262.25,166.7 262.25,168.03 
				262.91,168.03 262.91,94.59 			"/>
			<polygon class="st3" points="92.83,94.57 92.83,83.08 82.9,94.59 82.9,94.59 82.9,94.57 			"/>
			<rect x="92.83" y="94.57" class="st29" width="7.28" height="0.03"/>
			<polygon class="st3" points="262.32,93.91 252.65,84 252.65,93.91 252.65,94.59 262.91,94.59 262.91,94.51 			"/>
			<path class="st1" d="M192.03,88.28h-46.2c-0.77,0-1.39,0.62-1.39,1.39v4.92v0.97v1.65v7.94v9.2c0,0.77,0.62,1.39,1.39,1.39h46.2
				c0.77,0,1.39-0.62,1.39-1.39v-9.2v-7.94v-1.65v-0.97v-4.92C193.42,88.9,192.8,88.28,192.03,88.28z"/>
			<polygon class="st7" points="196.4,118.06 202.27,126.55 133.01,126.55 142.13,118.06 			"/>
			<polygon class="st7" points="202.27,126.55 202.27,129.47 132.29,129.47 133.01,126.55 			"/>
			<polygon class="st3" points="262.25,180.04 262.25,168.03 262.25,166.7 219.9,166.7 216.26,166.7 212.95,166.7 189.78,166.7 
				189.78,169.66 218.22,169.66 218.22,197.95 247.54,198.08 250.66,180.04 			"/>
			<polygon class="st3" points="184.49,179.94 140.48,179.94 77.61,179.94 88.53,187.04 88.53,202.44 178.69,202.44 184.49,197.81 
				186.67,197.82 186.67,179.94 			"/>
			<g>
				<polygon class="st3" points="189.78,169.66 189.78,166.7 212.95,166.7 212.95,153.47 184.49,153.47 184.49,179.94 
					186.67,179.94 186.67,169.66 				"/>
				<polygon class="st0" points="189.78,169.66 186.67,169.66 186.67,179.94 186.67,197.82 186.67,201.1 218.22,201.1 
					218.22,197.95 218.22,169.66 				"/>
			</g>
			<polygon class="st0" points="142.13,104.9 120.58,104.9 120.58,94.59 111.03,94.59 100.11,94.59 100.11,118.06 142.13,118.06 
				142.13,105.16 			"/>
			<polygon class="st3" points="88.53,148.84 82.9,148.84 77.61,153.47 88.53,153.47 			"/>
			<polygon class="st0" points="100.11,148.84 92.75,148.84 91.83,148.84 88.53,148.84 88.53,153.47 93.4,153.47 140.48,153.47 
				184.49,153.47 212.95,153.47 212.95,149.83 212.95,145.53 212.95,134.61 100.11,134.61 100.11,139.24 			"/>
			<polygon class="st0" points="93.4,153.47 88.53,153.47 77.61,153.47 77.61,179.94 88.53,179.94 140.48,179.94 184.49,179.94 
				184.49,153.47 140.48,153.47 			"/>
			<polygon class="st0" points="92.83,94.59 82.9,94.59 82.9,148.84 88.53,148.84 91.83,148.84 92.75,148.84 100.11,148.84 
				100.11,139.24 100.11,134.61 100.11,130.31 100.11,122.36 100.11,118.06 100.11,94.59 			"/>
			<path class="st1" d="M192.03,88.28h-46.2c-0.77,0-1.39,0.62-1.39,1.39v0.93v3.99v0.97v1.65v7.68v0.26v9.2
				c0,0.77,0.62,1.39,1.39,1.39h46.2c0.77,0,1.39-0.62,1.39-1.39v-9.2v-0.26v-7.68v-1.65v-0.97V90.6v-0.93
				C193.42,88.9,192.8,88.28,192.03,88.28z"/>
			<path class="st0" d="M200.29,90.6h-3.89v3.99v0.97v1.65v7.68h6.66v-10.3v-1.22C203.06,91.84,201.82,90.6,200.29,90.6z"/>
			<path class="st7" d="M196.4,95.56v-0.97V90.6v-3.08c0-1.04-0.84-1.89-1.89-1.89h-50.5c-1.04,0-1.89,0.84-1.89,1.89v3.08v3.99
				v0.97v1.65v7.68v0.26v12.91h54.27v-12.91v-0.26v-7.68V95.56z M193.42,90.6v3.99v0.97v1.65v7.68v0.26v9.2
				c0,0.77-0.62,1.39-1.39,1.39h-46.2c-0.77,0-1.39-0.62-1.39-1.39v-9.2v-0.26v-7.68v-1.65v-0.97V90.6v-0.93
				c0-0.77,0.62-1.39,1.39-1.39h46.2c0.77,0,1.39,0.62,1.39,1.39V90.6z"/>
			<path class="st0" d="M123.36,90.6c-1.53,0-2.77,1.24-2.77,2.77v1.22v10.3h21.55v-7.68v-1.65v-0.97V90.6H123.36z"/>
			<g>
				<polygon class="st0" points="228.25,16.39 228.19,14.03 220.45,11.12 216.01,11.12 203.21,11.12 212.88,14.03 212.93,16.39 
					214.52,94.59 230.11,94.59 				"/>
				<path class="st0" d="M127.58,11.12l-7.64,2.55l-0.07,2.72l-1.85,78.2h2.57v-1.22c0-1.53,1.24-2.77,2.77-2.77h14.41l1.5-74.21
					l0.06-2.72l8.82-2.55H127.58z"/>
				<path class="st0" d="M200.76,16.39l-0.06-2.36l-7.74-2.91h-4.44h-8.01l3.82,2.91l0.05,2.36l1.39,69.24h8.75
					c1.04,0,1.89,0.84,1.89,1.89v3.08h3.89c0.93,0,1.74,0.46,2.25,1.16L200.76,16.39z"/>
				<polygon class="st0" points="238.14,11.12 230.71,11.12 240.37,14.03 240.43,16.39 242.01,94.59 252.65,94.59 252.65,93.91 
					252.65,84 252.65,16.39 				"/>
				<polygon class="st0" points="106.91,11.12 92.83,16.39 92.83,83.08 92.83,94.57 100.11,94.57 100.11,94.59 106.11,94.59 
					107.7,16.39 107.76,13.67 116.58,11.12 				"/>
				<polygon class="st0" points="169.91,14.03 173.22,11.12 159.15,11.12 151.51,13.67 151.44,16.39 149.82,85.63 171.59,85.63 
					169.97,16.39 				"/>
				<polygon class="st0" points="121.26,9.2 116.58,11.12 107.76,13.67 107.7,16.39 106.11,94.59 111.03,94.59 118.02,94.59 
					119.87,16.39 119.94,13.67 127.58,11.12 127.68,11.12 131.61,11.12 131.61,9.2 				"/>
				<path class="st0" d="M152.92,9.2l-4.77,1.92l-8.82,2.55l-0.06,2.72l-1.5,74.21h4.36v-3.08c0-1.04,0.84-1.89,1.89-1.89h5.8
					l1.62-69.24l0.07-2.72l7.64-2.55h0.1h3.93V9.2H152.92z"/>
				<polygon class="st0" points="240.43,16.39 240.37,14.03 230.71,11.12 225.88,9.2 216.01,9.2 216.01,11.12 216.01,11.12 
					220.45,11.12 228.19,14.03 228.25,16.39 230.11,94.59 242.01,94.59 				"/>
				<path class="st0" d="M212.93,16.39l-0.05-2.36l-9.66-2.91l-4.44-1.92h-10.25v1.92l0,0h4.44l7.74,2.91l0.06,2.36l1.78,75.37
					c0.33,0.46,0.53,1.01,0.53,1.61v1.22h9.88h1.57L212.93,16.39z"/>
				<polygon class="st0" points="184.38,16.39 184.32,14.03 180.51,11.12 177.88,9.2 175.5,9.2 173.22,11.12 169.91,14.03 
					169.97,16.39 171.59,85.63 185.77,85.63 				"/>
			</g>
			<g>
				<path class="st18" d="M153.81,98.25c-2.52,0-4.56,2.04-4.56,4.56s2.04,4.56,4.56,4.56h17.13l6.42-9.12H153.81z"/>
				<path class="st0" d="M183.36,98.25h-6l-6.42,9.12h12.43c2.52,0,4.56-2.04,4.56-4.56S185.88,98.25,183.36,98.25z"/>
			</g>
		</g>
		<g>
			<polygon class="st29" points="197.95,119.28 143.69,119.28 101.66,119.28 101.66,123.58 101.66,131.52 101.66,135.82 
				214.5,135.82 214.5,131.52 214.5,123.58 214.5,119.28 			"/>
			<polygon class="st29" points="254.21,95.81 214.5,95.81 214.5,96.78 214.5,98.43 214.5,119.28 214.5,123.58 214.5,131.52 
				214.5,135.82 214.5,146.74 214.5,151.04 214.5,154.68 214.5,167.92 217.81,167.92 221.45,167.92 263.81,167.92 263.81,169.24 
				264.47,169.24 264.47,95.81 			"/>
			<polygon class="st29" points="94.38,95.78 94.38,84.3 84.45,95.81 84.45,95.81 84.45,95.78 			"/>
			<rect x="84.45" y="95.78" class="st29" width="9.93" height="0.03"/>
			<rect x="94.38" y="95.78" class="st29" width="7.28" height="0.03"/>
			<polygon class="st29" points="263.87,95.12 254.21,85.22 254.21,95.12 254.21,95.81 264.47,95.81 264.47,95.73 			"/>
			<path class="st29" d="M193.59,89.5h-46.2c-0.77,0-1.39,0.62-1.39,1.39v4.92v0.97v1.65v7.94v9.2c0,0.77,0.62,1.39,1.39,1.39h46.2
				c0.77,0,1.39-0.62,1.39-1.39v-9.2v-7.94v-1.65v-0.97v-4.92C194.98,90.12,194.35,89.5,193.59,89.5z"/>
			<polygon class="st29" points="197.95,119.28 203.82,127.77 134.56,127.77 143.69,119.28 			"/>
			<path class="st29" d="M197.95,106.13h11.93c1.23,0,2.22,1,2.22,2.22v10.98"/>
			<polygon class="st29" points="203.82,127.77 203.82,130.69 133.85,130.69 134.56,127.77 			"/>
			<polygon class="st29" points="263.81,181.25 263.81,169.24 263.81,167.92 221.45,167.92 217.81,167.92 214.5,167.92 
				191.34,167.92 191.34,170.87 219.77,170.87 219.77,199.17 249.1,199.29 252.21,181.25 			"/>
			<polygon class="st29" points="186.04,181.16 142.03,181.16 79.16,181.16 90.08,188.26 90.08,203.66 180.24,203.66 186.04,199.03 
				188.22,199.03 188.22,181.16 			"/>
			<g>
				<polygon class="st29" points="191.34,170.87 191.34,167.92 214.5,167.92 214.5,154.68 186.04,154.68 186.04,181.16 
					188.22,181.16 188.22,170.87 				"/>
				<polygon class="st29" points="191.34,170.87 188.22,170.87 188.22,181.16 188.22,199.03 188.22,202.31 219.77,202.31 
					219.77,199.17 219.77,170.87 				"/>
			</g>
			<polygon class="st29" points="143.69,106.11 122.14,106.11 122.14,95.81 112.58,95.81 101.66,95.81 101.66,119.28 143.69,119.28 
				143.69,106.37 			"/>
			<polygon class="st29" points="90.08,150.05 84.45,150.05 79.16,154.68 90.08,154.68 			"/>
			<polygon class="st29" points="101.66,150.05 94.31,150.05 93.39,150.05 90.08,150.05 90.08,154.68 94.96,154.68 142.03,154.68 
				186.04,154.68 214.5,154.68 214.5,151.04 214.5,146.74 214.5,135.82 101.66,135.82 101.66,140.45 			"/>
			<polygon class="st29" points="94.96,154.68 90.08,154.68 79.16,154.68 79.16,181.16 90.08,181.16 142.03,181.16 186.04,181.16 
				186.04,154.68 142.03,154.68 			"/>
			<polygon class="st29" points="94.38,95.81 84.45,95.81 84.45,150.05 90.08,150.05 93.39,150.05 94.31,150.05 101.66,150.05 
				101.66,140.45 101.66,135.82 101.66,131.52 101.66,123.58 101.66,119.28 101.66,95.81 			"/>
			<path class="st29" d="M193.59,89.5h-46.2c-0.77,0-1.39,0.62-1.39,1.39v0.93v3.99v0.97v1.65v7.68v0.26v9.2
				c0,0.77,0.62,1.39,1.39,1.39h46.2c0.77,0,1.39-0.62,1.39-1.39v-9.2v-0.26v-7.68v-1.65v-0.97v-3.99v-0.93
				C194.98,90.12,194.35,89.5,193.59,89.5z"/>
			<path class="st29" d="M201.84,91.82h-3.89v3.99v0.97v1.65v7.68h6.66v-10.3v-1.22C204.62,93.06,203.38,91.82,201.84,91.82z"/>
			<path class="st29" d="M197.95,96.78v-0.97v-3.99v-3.08c0-1.04-0.84-1.89-1.89-1.89h-50.5c-1.04,0-1.89,0.84-1.89,1.89v3.08v3.99
				v0.97v1.65v7.68v0.26v12.91h54.27v-12.91v-0.26v-7.68V96.78z M194.98,91.82v3.99v0.97v1.65v7.68v0.26v9.2
				c0,0.77-0.62,1.39-1.39,1.39h-46.2c-0.77,0-1.39-0.62-1.39-1.39v-9.2v-0.26v-7.68v-1.65v-0.97v-3.99v-0.93
				c0-0.77,0.62-1.39,1.39-1.39h46.2c0.77,0,1.39,0.62,1.39,1.39V91.82z"/>
			<path class="st29" d="M124.91,91.82c-1.53,0-2.77,1.24-2.77,2.77v1.22v10.3h21.55v-7.68v-1.65v-0.97v-3.99H124.91z"/>
			<g>
				<polygon class="st29" points="229.81,17.61 229.75,15.25 222,12.33 217.57,12.33 204.77,12.33 214.43,15.25 214.48,17.61 
					216.07,95.81 231.66,95.81 				"/>
				<path class="st29" d="M129.14,12.33l-7.64,2.55l-0.07,2.72l-1.85,78.2h2.57v-1.22c0-1.53,1.24-2.77,2.77-2.77h14.41l1.5-74.21
					l0.06-2.72l8.82-2.55H129.14z"/>
				<path class="st29" d="M202.31,17.61l-0.06-2.36l-7.74-2.91h-4.44h-8.01l3.82,2.91l0.05,2.36l1.39,69.24h8.75
					c1.04,0,1.89,0.84,1.89,1.89v3.08h3.89c0.93,0,1.74,0.46,2.25,1.16L202.31,17.61z"/>
				<polygon class="st29" points="239.69,12.33 232.26,12.33 241.93,15.25 241.98,17.61 243.57,95.81 254.21,95.81 254.21,95.12 
					254.21,85.22 254.21,17.61 				"/>
				<polygon class="st29" points="108.46,12.33 94.38,17.61 94.38,84.3 94.38,95.78 101.66,95.78 101.66,95.81 107.67,95.81 
					109.26,17.61 109.32,14.89 118.14,12.33 				"/>
				<polygon class="st29" points="171.47,15.25 174.77,12.33 160.7,12.33 153.06,14.89 152.99,17.61 151.37,86.85 173.15,86.85 
					171.53,17.61 				"/>
				<polygon class="st29" points="122.82,10.42 118.14,12.33 109.32,14.89 109.26,17.61 107.67,95.81 112.58,95.81 119.57,95.81 
					121.42,17.61 121.49,14.89 129.14,12.33 129.24,12.33 133.17,12.33 133.17,10.42 				"/>
				<path class="st29" d="M154.47,10.42l-4.77,1.92l-8.82,2.55l-0.06,2.72l-1.5,74.21h4.36v-3.08c0-1.04,0.84-1.89,1.89-1.89h5.8
					l1.62-69.24l0.07-2.72l7.64-2.55h0.1h3.93v-1.92H154.47z"/>
				<polygon class="st29" points="241.98,17.61 241.93,15.25 232.26,12.33 227.44,10.42 217.57,10.42 217.57,12.33 217.57,12.33 
					222,12.33 229.75,15.25 229.81,17.61 231.66,95.81 243.57,95.81 				"/>
				<path class="st29" d="M214.48,17.61l-0.05-2.36l-9.66-2.91l-4.44-1.92h-10.25v1.92l0,0h4.44l7.74,2.91l0.06,2.36l1.78,75.37
					c0.33,0.46,0.53,1.01,0.53,1.61v1.22h9.88h1.57L214.48,17.61z"/>
				<polygon class="st29" points="185.93,17.61 185.88,15.25 182.06,12.33 179.43,10.42 177.06,10.42 174.77,12.33 171.47,15.25 
					171.53,17.61 173.15,86.85 187.32,86.85 				"/>
			</g>
			<polyline class="st29" points="101.37,102.66 118.78,102.66 118.78,105.5 112.16,105.5 112.16,118.55 			"/>
			<polyline class="st29" points="264.48,102.09 243.1,102.09 243.1,113.63 228.34,113.63 228.34,121.01 250.85,121.01 
				250.85,167.75 			"/>
			<line class="st29" x1="214.9" y1="138.23" x2="101.94" y2="138.23"/>
			<g>
				<path class="st28" d="M155.36,99.46c-2.52,0-4.56,2.04-4.56,4.56c0,2.52,2.04,4.56,4.56,4.56h17.13l6.42-9.12H155.36z"/>
				<path class="st28" d="M184.92,99.46h-6l-6.42,9.12h12.43c2.52,0,4.56-2.04,4.56-4.56C189.48,101.5,187.44,99.46,184.92,99.46z"
					/>
			</g>
			<g>
				<path class="st14" d="M246.25,75.58c0-5.23-3.11-9.47-6.94-9.47c-3.83,0-6.94,4.24-6.94,9.47c0,3.99,1.75,9.46,4.28,11.82h5.12
					C244.36,85.03,246.25,79.57,246.25,75.58z"/>
				<polygon class="st7" points="241.77,87.4 236.64,87.4 236.19,87.4 236.19,94.34 242.42,94.34 242.42,87.4 				"/>
			</g>
			<g>
				<path class="st29" d="M246.47,76.41c0-5.23-3.11-9.47-6.94-9.47c-3.83,0-6.94,4.24-6.94,9.47c0,3.99,1.75,9.46,4.28,11.82h5.12
					C244.59,85.87,246.47,80.4,246.47,76.41z"/>
				<polygon class="st29" points="241.99,88.23 236.87,88.23 236.41,88.23 236.41,95.17 242.65,95.17 242.65,88.23 				"/>
			</g>
		</g>
		<g>
			<g>
				<path class="st1" d="M111.22,226.97c0,0.18-0.03,0.35-0.05,0.52c2.63-1.96,6.41-4.63,10.37-7.4l-12.26,3.45
					C110.44,224.25,111.22,225.52,111.22,226.97z"/>
				<path class="st1" d="M147.15,105c0,0,0.56,0.23,1.47,0.6c0.12-0.08,0.23-0.16,0.32-0.26l-0.48-5.56
					c-1.55,1.09-2.17,3.09-4.24,3.09c-2.12,0-4.36-1.89-6.13-1.89c-1.77,0-2.71,1.18-4.01,0.24c-1.3-0.94-2.59-8.6-2.71-10.49
					c0,0-2-2.95-2.24-1.77c-0.24,1.18-0.35,7.78,1.41,8.37c1.77,0.59,1.89,1.41,1.89,1.41l0.24,5.66c0,0,0.99,0.25,2.48,0.57
					C139.46,105.44,147.15,105,147.15,105z"/>
				<path class="st1" d="M153.66,79.17c-0.24-2.95-4.01-4.72-6.6-6.13c-2.59-1.41-3.06-0.94-8.37,0.47
					c-5.3,1.41-5.19,4.95-7.54,9.31c-2.36,4.36,0.12,6.01,0.24,7.9c0.12,1.89,1.41,9.55,2.71,10.49c1.3,0.94,2.24-0.24,4.01-0.24
					c1.77,0,4.01,1.89,6.13,1.89c2.06,0,2.69-2,4.24-3.09c0.04-0.03,0.08-0.07,0.13-0.1c1.65-1.06,6.01-4.95,6.01-4.95
					C156.38,90.25,153.9,82.12,153.66,79.17z"/>
				<path class="st1" d="M149.16,105.82c-0.19-0.08-0.37-0.15-0.54-0.22c-0.15,0.1-0.32,0.18-0.51,0.26
					C148.46,105.85,148.81,105.84,149.16,105.82z"/>
				<path class="st1" d="M147.15,105c0,0-7.7,0.43-11.99-0.03c-1.49-0.32-2.48-0.57-2.48-0.57l-1.47,2.17
					c3.32-0.17,6.89-0.32,10.66-0.46c2.02-0.08,4.1-0.16,6.23-0.24c0.19-0.08,0.36-0.16,0.51-0.26
					C147.71,105.23,147.15,105,147.15,105z"/>
				<path class="st1" d="M105.24,155.82c-0.05-0.25-0.09-0.5-0.14-0.75c-2.18-11.52-2.44-21.12-1.73-28.47
					c-1.15,4.48-5.65,22.58-4.12,26.16c0.51,1.19,0.96,2.12,1.51,2.87c1.01,1.36,2.39,2.09,5.15,2.5L105.24,155.82z"/>
				<path class="st1" d="M181.91,148.96c-0.58-4.41-8.89-23.81-12.87-31.99c-0.01,1.87-0.41,3.22-0.41,3.22s-0.02,14.43-0.14,28.25
					c-0.01,1.26-0.02,2.51-0.03,3.75c1.37,0.11,5.74,0.7,9.15,0.25C180.18,152.09,182.2,151.15,181.91,148.96z"/>
				<path class="st1" d="M111.37,176.71L107,161.82c-0.37,0.01-1.5,0.03-2.78-0.09l6.9,15.85c0.16-0.21,0.31-0.41,0.46-0.6
					C111.43,176.81,111.37,176.71,111.37,176.71z"/>
				<path class="st1" d="M106.6,160.47l-0.69-2.34c-2.76-0.41-4.14-1.14-5.15-2.5c-0.47,0.64-0.94,1.58-1.22,2.97
					c-0.44,2.18,2.35,2.9,4.67,3.13c1.28,0.13,2.41,0.11,2.78,0.09L106.6,160.47z"/>
				<path class="st1" d="M167.89,173.35c-0.14,0.17-0.36,0.46-0.8,0.82c1.1,0.3,1.22,0.12,1.98,0.68l2.88-14.35
					c-1.19,0.16-2.43,0.31-3.6,0.44C168.24,167.95,168.09,173.11,167.89,173.35z"/>
				<path class="st1" d="M177.6,152.43c-3.4,0.45-7.78-0.13-9.15-0.25c-0.02,2.15-0.04,4.24-0.07,6.23
					c-0.01,0.87-0.02,1.71-0.04,2.53c1.17-0.14,2.41-0.29,3.6-0.44c1.89-0.25,3.64-0.51,4.7-0.74
					C178.79,159.3,178.27,155.29,177.6,152.43z"/>
				<path class="st1" d="M111.58,176.97c-0.15,0.19-0.3,0.39-0.46,0.6l0.88-0.22C111.81,177.21,111.67,177.08,111.58,176.97z"/>
				<path class="st1" d="M151.39,105.73c-0.75,0.03-1.49,0.06-2.23,0.09c-0.35,0.01-0.7,0.03-1.05,0.04
					c-2.13,0.08-4.21,0.16-6.23,0.24c-3.77,0.15-7.35,0.29-10.66,0.46c-11.91,0.62-20.48,1.56-22.91,3.99
					c-1.95,1.95-4.1,7.47-4.93,16.05c-0.71,7.35-0.46,16.95,1.73,28.47c0.05,0.25,0.09,0.5,0.14,0.75l0.68,2.3l0.69,2.34l0.4,1.35
					l4.37,14.89c0,0,0.05,0.1,0.2,0.27c0.09,0.1,0.23,0.23,0.42,0.38c1.67,1.32,7.58,4.07,27.13,2.71
					c17.37-1.2,24.11-3.51,26.86-5.12c0.48-0.28,0.84-0.54,1.11-0.77c0.44-0.37,0.66-0.66,0.8-0.82c0.2-0.24,0.35-5.39,0.46-12.4
					c0.01-0.82,0.02-1.66,0.04-2.53c0.03-1.99,0.05-4.09,0.07-6.23c0.01-1.24,0.02-2.49,0.03-3.75c0.11-13.82,0.14-28.25,0.14-28.25
					s0.41-1.35,0.41-3.22C169.06,112.53,166.81,105.12,151.39,105.73z"/>
				<path class="st1" d="M139.02,208.08c-1.05-3.19-1.87-7.3-2.4-10.44c-0.41-0.18-0.78-0.37-1.12-0.56
					c-3.81,0.08-7.58-0.01-11.08-0.37l4.27,17.49c0.75-0.18,1.45-0.35,2.1-0.5C134.75,210.98,137.94,208.81,139.02,208.08z"/>
				<path class="st1" d="M146.88,198.1c-0.3,3.43-0.9,8.39-1.98,11.64c3.3,0.9,8.33,2.27,13.72,3.76l2.12-18.74
					c-3.26,0.46-7.42,1.02-11.98,1.48C148.38,196.88,147.78,197.57,146.88,198.1z"/>
				<path class="st1" d="M135.5,197.09c0.34,0.19,0.71,0.38,1.12,0.56c-0.03-0.2-0.06-0.39-0.1-0.58
					C136.18,197.08,135.84,197.08,135.5,197.09z"/>
				<path class="st1" d="M147.02,196.41c-3.38,0.31-6.94,0.56-10.49,0.66c0.03,0.19,0.06,0.38,0.1,0.58c1.23,0.54,2.77,1,4.69,1.26
					c2.58,0.35,4.35-0.08,5.57-0.8c0.9-0.53,1.5-1.22,1.89-1.86C148.19,196.3,147.61,196.36,147.02,196.41z"/>
				<path class="st1" d="M171.25,177.15c-0.22-0.69-0.68-1.24-1.3-1.7c-0.76-0.56-1.76-0.97-2.85-1.27
					c-0.27,0.23-0.63,0.49-1.11,0.77c-2.75,1.61-9.49,3.92-26.86,5.12c-19.55,1.36-25.45-1.4-27.13-2.71l-0.88,0.22
					c-1.41,1.88-3.13,4.54-4.12,7.46c-1.9,5.55,3.36,7.3,3.36,7.3c3.25,2.47,8.29,3.79,14.06,4.38c3.5,0.36,7.28,0.45,11.08,0.37
					c0.34-0.01,0.68-0.01,1.03-0.02c3.55-0.1,7.11-0.35,10.49-0.66c0.59-0.05,1.18-0.11,1.75-0.17c4.56-0.46,8.72-1.02,11.98-1.48
					c1.89-0.27,3.47-0.51,4.66-0.67C174.75,192.77,172.71,181.67,171.25,177.15z"/>
				<path class="st1" d="M141.31,198.91c-1.92-0.26-3.46-0.72-4.69-1.26c0.53,3.14,1.35,7.25,2.4,10.44
					c0.93,2.83,2.05,4.94,3.32,4.99c0.1,0,0.19-0.01,0.28-0.03c0.71-0.15,1.32-0.93,1.84-2.11c0.16-0.36,0.3-0.76,0.44-1.18
					c1.07-3.26,1.67-8.21,1.98-11.64C145.66,198.82,143.89,199.26,141.31,198.91z"/>
				<path class="st1" d="M130.78,213.71c-0.65,0.15-1.35,0.32-2.1,0.5l0.2,0.81C129.53,214.57,130.16,214.13,130.78,213.71z"/>
				<path class="st1" d="M130.51,221.69c0,0-1.17,2.19,1.61,3.07c1.49,0.47,4.35,0.39,6.7,0.22l-0.6-3.58L130.51,221.69z"/>
				<path class="st1" d="M141.65,224.71c0.51-0.06,0.83-0.1,0.83-0.1l0.79-3.4l-1.75,0.07L141.65,224.71z"/>
				<path class="st1" d="M138.11,220.83l-0.71-4.2c-1.62,0.63-4.19,2.07-7.18,3.91l0.28,1.15l7.7-0.29L138.11,220.83z"/>
				<path class="st1" d="M141.39,217.38l0.11,3.07l0.03,0.82l1.75-0.07l2.83-0.11C144.45,219.59,142.79,218.26,141.39,217.38z"/>
				<path class="st1" d="M141.65,224.71l-0.12-3.43l-0.03-0.82l-0.11-3.07c-1.02-0.64-1.91-1.04-2.56-1.09
					c-0.31-0.02-0.8,0.11-1.42,0.35l0.71,4.2l0.1,0.57l0.6,3.58l0.49,2.92c0.49-0.32,1.07-0.5,1.7-0.5c0.26,0,0.5,0.04,0.74,0.1
					L141.65,224.71z"/>
				<path class="st1" d="M151.33,220.91l2.45,3.55c1.69,0.13,4.08,0.33,5.94,0.58c3.21,0.44,4.24-3.94,4.24-4.38
					c0-0.29-3.58-1.04-5.96-1.51l-0.17,1.51L151.33,220.91z"/>
				<path class="st1" d="M148.22,216.4l2.05,2.98l1.06,1.54l6.49-0.24l0.17-1.51l0.15-1.32C154.4,217.22,150.87,216.73,148.22,216.4
					z"/>
				<path class="st1" d="M111.17,227.49c0.02-0.17,0.05-0.34,0.05-0.52c0-1.45-0.78-2.71-1.94-3.42l-3.75,1.06
					c0,0,0.04-0.58,0.2-1.36c-1.48,0.59-2.53,2.03-2.53,3.72c0,2.22,1.8,4.01,4.01,4.01c0.07,0,0.14-0.02,0.21-0.02
					c0.04-0.19,0.09-0.37,0.15-0.51C107.69,230.16,109.07,229.05,111.17,227.49z"/>
				<path class="st1" d="M128.68,214.21c-7.96,1.91-21.02,5.2-21.83,6.31c-0.6,0.83-0.93,1.89-1.11,2.73
					c-0.17,0.78-0.2,1.36-0.2,1.36l3.75-1.06l12.26-3.45c2.46-1.72,4.99-3.46,7.34-5.08L128.68,214.21z"/>
				<path class="st1" d="M156.04,238.67l-1.15,0.1c0,0,0.09-2.76-0.25-5.58c-1.9,0.5-3.31,2.22-3.31,4.28
					c0,2.45,1.99,4.44,4.44,4.44s4.44-1.99,4.44-4.44c0-1.87-1.16-3.46-2.8-4.12l0.42,3.08
					C157.98,237.55,157.17,238.57,156.04,238.67z"/>
				<path class="st1" d="M141.75,227.49c-0.24-0.06-0.49-0.1-0.74-0.1c-0.63,0-1.21,0.19-1.7,0.5c-0.87,0.56-1.46,1.54-1.46,2.65
					c0,1.74,1.41,3.16,3.16,3.16s3.16-1.41,3.16-3.16C144.16,229.07,143.13,227.83,141.75,227.49z"/>
				<g>
					<path class="st1" d="M185.38,230.13c-0.22,0.73-1.61,4.96-3.61,4.05c-2.19-1-0.36-5.32-0.36-5.32
						c-1.88,0.41-3.29,2.08-3.29,4.08c0,2.31,1.87,4.18,4.18,4.18c2.31,0,4.18-1.87,4.18-4.18
						C186.49,231.85,186.06,230.87,185.38,230.13z"/>
					<path class="st1" d="M183.52,220.67c-2.78-1-14.47-4.29-24.89-7.16c-5.39-1.49-10.43-2.86-13.72-3.76
						c-0.14,0.42-0.29,0.82-0.44,1.18l3.77,5.47c2.64,0.34,6.18,0.83,9.91,1.44c8.01,1.32,16.92,3.21,19.83,5.45
						c2.83,2.17,3.52,3.84,3.52,4.97c0,0.22-0.03,0.42-0.07,0.6c0,0-1.83,4.32,0.36,5.32c2,0.91,3.39-3.32,3.61-4.05
						c0.02-0.07,0.04-0.12,0.04-0.12S188.77,222.56,183.52,220.67z"/>
				</g>
				<g>
					<path class="st1" d="M106.07,240.46c-2.66-0.44-1.43-3.91-0.16-6.54c-2.37,0.19-4.24,2.15-4.24,4.57
						c0,2.54,2.06,4.61,4.61,4.61c2.54,0,4.61-2.06,4.61-4.61c0-1.48-0.71-2.78-1.79-3.62l-0.24,0.7
						C108.7,236.34,107.76,240.74,106.07,240.46z"/>
					<path class="st1" d="M157.83,236.43l-0.42-3.08l-0.61-4.51l-3.02-4.38l-2.45-3.55l-1.06-1.54l-2.05-2.98l-3.77-5.47
						c-0.52,1.18-1.12,1.97-1.84,2.11c-0.09,0.02-0.19,0.04-0.28,0.03c-1.27-0.05-2.39-2.16-3.32-4.99
						c-1.08,0.73-4.27,2.9-8.24,5.62c-0.62,0.42-1.26,0.86-1.9,1.31c-2.35,1.62-4.87,3.36-7.34,5.08c-3.96,2.76-7.74,5.44-10.37,7.4
						c-2.1,1.56-3.48,2.66-3.59,2.96c-0.06,0.14-0.11,0.32-0.15,0.51c-0.04,0.22-0.79,1.45-1.52,2.96c-1.27,2.63-2.5,6.09,0.16,6.54
						c1.7,0.28,2.63-4.11,2.79-4.88l0.24-0.7l0.05-0.15c4.13-2.93,13.8-9.7,21.08-14.18c2.99-1.84,5.56-3.28,7.18-3.91
						c0.62-0.24,1.12-0.37,1.42-0.35c0.65,0.05,1.54,0.46,2.56,1.09c1.4,0.88,3.06,2.21,4.72,3.72c3.91,3.57,7.78,8.14,8.2,10.08
						c0.14,0.65,0.25,1.33,0.33,2.01c0.35,2.83,0.25,5.58,0.25,5.58l1.15-0.1C157.17,238.57,157.98,237.55,157.83,236.43z"/>
				</g>
				<path class="st1" d="M107.84,224.23c0,0,1.39,4.16-0.77,4.01c-2.16-0.15-2.47-3.54-2.47-3.54s-0.1-4.34,3.61-4.67L107.84,224.23
					z"/>
			</g>
			<g>
				<path class="st4" d="M109.63,227.45c0,0.18-0.03,0.35-0.05,0.52c2.63-1.96,6.41-4.63,10.37-7.4l-12.26,3.45
					C108.85,224.73,109.63,226,109.63,227.45z"/>
				<path class="st26" d="M145.56,105.48c0,0,0.56,0.23,1.47,0.6c0.12-0.08,0.23-0.16,0.32-0.26l-0.48-5.56
					c-1.55,1.09-2.17,3.09-4.24,3.09c-2.12,0-4.36-1.89-6.13-1.89c-1.77,0-2.71,1.18-4.01,0.24c-1.3-0.94-2.59-8.6-2.71-10.49
					c0,0-2-2.95-2.24-1.77c-0.24,1.18-0.35,7.78,1.41,8.37c1.77,0.59,1.89,1.41,1.89,1.41l0.24,5.66c0,0,0.99,0.25,2.48,0.57
					C137.86,105.92,145.56,105.48,145.56,105.48z"/>
				<path class="st25" d="M152.07,79.65c-0.24-2.95-4.01-4.72-6.6-6.13c-2.59-1.41-3.06-0.94-8.37,0.47
					c-5.3,1.41-5.19,4.95-7.54,9.31c-2.36,4.36,0.12,6.01,0.24,7.9c0.12,1.89,1.41,9.55,2.71,10.49c1.3,0.94,2.24-0.24,4.01-0.24
					c1.77,0,4.01,1.89,6.13,1.89c2.06,0,2.69-2,4.24-3.09c0.04-0.03,0.08-0.07,0.13-0.1c1.65-1.06,6.01-4.95,6.01-4.95
					C154.78,90.73,152.31,82.6,152.07,79.65z"/>
				<path class="st14" d="M147.57,106.3c-0.19-0.08-0.37-0.15-0.54-0.22c-0.15,0.1-0.32,0.18-0.51,0.26
					C146.87,106.33,147.21,106.32,147.57,106.3z"/>
				<path class="st14" d="M145.56,105.48c0,0-7.7,0.43-11.99-0.03c-1.49-0.32-2.48-0.57-2.48-0.57l-1.47,2.17
					c3.32-0.17,6.89-0.32,10.66-0.46c2.02-0.08,4.1-0.16,6.23-0.24c0.19-0.08,0.36-0.16,0.51-0.26
					C146.12,105.71,145.56,105.48,145.56,105.48z"/>
				<path class="st14" d="M103.65,156.3c-0.05-0.25-0.09-0.5-0.14-0.75c-2.18-11.52-2.44-21.12-1.73-28.47
					c-1.15,4.48-5.65,22.58-4.12,26.16c0.51,1.19,0.96,2.12,1.51,2.87c1.01,1.36,2.39,2.09,5.15,2.5L103.65,156.3z"/>
				<path class="st14" d="M180.31,149.44c-0.58-4.41-8.89-23.81-12.87-31.99c-0.01,1.87-0.41,3.22-0.41,3.22s-0.02,14.43-0.14,28.25
					c-0.01,1.26-0.02,2.51-0.03,3.75c1.37,0.11,5.74,0.7,9.15,0.25C178.59,152.57,180.6,151.63,180.31,149.44z"/>
				<path class="st7" d="M109.78,177.19l-4.37-14.89c-0.37,0.01-1.5,0.03-2.78-0.09l6.9,15.85c0.16-0.21,0.31-0.41,0.46-0.6
					C109.83,177.29,109.78,177.19,109.78,177.19z"/>
				<path class="st7" d="M105.01,160.95l-0.69-2.34c-2.76-0.41-4.14-1.14-5.15-2.5c-0.47,0.64-0.94,1.58-1.22,2.97
					c-0.44,2.18,2.35,2.9,4.67,3.13c1.28,0.13,2.41,0.11,2.78,0.09L105.01,160.95z"/>
				<path class="st7" d="M166.3,173.83c-0.14,0.17-0.36,0.46-0.8,0.82c1.1,0.3,1.22,0.12,1.98,0.68l2.88-14.35
					c-1.19,0.16-2.43,0.31-3.6,0.44C166.64,168.43,166.5,173.59,166.3,173.83z"/>
				<path class="st7" d="M176.01,152.91c-3.4,0.45-7.78-0.13-9.15-0.25c-0.02,2.15-0.04,4.24-0.07,6.23
					c-0.01,0.87-0.02,1.71-0.04,2.53c1.17-0.14,2.41-0.29,3.6-0.44c1.89-0.25,3.64-0.51,4.7-0.74
					C177.2,159.78,176.67,155.77,176.01,152.91z"/>
				<path class="st29" d="M109.98,177.45c-0.15,0.19-0.3,0.39-0.46,0.6l0.88-0.22C110.21,177.69,110.08,177.56,109.98,177.45z"/>
				<path class="st2" d="M149.79,106.21c-0.75,0.03-1.49,0.06-2.23,0.09c-0.35,0.01-0.7,0.03-1.05,0.04
					c-2.13,0.08-4.21,0.16-6.23,0.24c-3.77,0.15-7.35,0.29-10.66,0.46c-11.91,0.62-20.48,1.56-22.91,3.99
					c-1.95,1.95-4.1,7.47-4.93,16.05c-0.71,7.35-0.46,16.95,1.73,28.47c0.05,0.25,0.09,0.5,0.14,0.75l0.68,2.3l0.69,2.34l0.4,1.35
					l4.37,14.89c0,0,0.05,0.1,0.2,0.27c0.09,0.1,0.23,0.23,0.42,0.38c1.67,1.32,7.58,4.07,27.13,2.71
					c17.37-1.2,24.11-3.51,26.86-5.12c0.48-0.28,0.84-0.54,1.11-0.77c0.44-0.37,0.66-0.66,0.8-0.82c0.2-0.24,0.35-5.39,0.46-12.4
					c0.01-0.82,0.02-1.66,0.04-2.53c0.03-1.99,0.05-4.09,0.07-6.23c0.01-1.24,0.02-2.49,0.03-3.75c0.11-13.82,0.14-28.25,0.14-28.25
					s0.41-1.35,0.41-3.22C167.46,113.01,165.21,105.6,149.79,106.21z"/>
				<path class="st10" d="M137.42,208.56c-1.05-3.19-1.87-7.3-2.4-10.44c-0.41-0.18-0.78-0.37-1.12-0.56
					c-3.81,0.08-7.58-0.01-11.08-0.37l4.27,17.49c0.75-0.18,1.45-0.35,2.1-0.5C133.15,211.46,136.34,209.29,137.42,208.56z"/>
				<path class="st10" d="M145.28,198.58c-0.3,3.43-0.9,8.39-1.98,11.64c3.3,0.9,8.33,2.27,13.72,3.76l2.12-18.74
					c-3.26,0.46-7.42,1.02-11.98,1.48C146.78,197.36,146.18,198.05,145.28,198.58z"/>
				<path class="st10" d="M133.9,197.57c0.34,0.19,0.71,0.38,1.12,0.56c-0.03-0.2-0.06-0.39-0.1-0.58
					C134.58,197.56,134.24,197.56,133.9,197.57z"/>
				<path class="st7" d="M145.42,196.89c-3.38,0.31-6.94,0.56-10.49,0.66c0.03,0.19,0.06,0.38,0.1,0.58c1.23,0.54,2.77,1,4.69,1.26
					c2.58,0.35,4.35-0.08,5.57-0.8c0.9-0.53,1.5-1.22,1.89-1.86C146.6,196.78,146.01,196.84,145.42,196.89z"/>
				<path class="st2" d="M169.65,177.63c-0.22-0.69-0.68-1.24-1.3-1.7c-0.76-0.56-1.76-0.97-2.85-1.27
					c-0.27,0.23-0.63,0.49-1.11,0.77c-2.75,1.61-9.49,3.92-26.86,5.12c-19.55,1.36-25.45-1.4-27.13-2.71l-0.88,0.22
					c-1.41,1.88-3.13,4.54-4.12,7.46c-1.9,5.55,3.36,7.3,3.36,7.3c3.25,2.47,8.29,3.79,14.06,4.38c3.5,0.36,7.28,0.45,11.08,0.37
					c0.34-0.01,0.68-0.01,1.03-0.02c3.55-0.1,7.11-0.35,10.49-0.66c0.59-0.05,1.18-0.11,1.75-0.17c4.56-0.46,8.72-1.02,11.98-1.48
					c1.89-0.27,3.47-0.51,4.66-0.67C173.16,193.25,171.11,182.15,169.65,177.63z"/>
				<path class="st0" d="M139.72,199.39c-1.92-0.26-3.46-0.72-4.69-1.26c0.53,3.14,1.35,7.25,2.4,10.44
					c0.93,2.83,2.05,4.94,3.32,4.99c0.1,0,0.19-0.01,0.28-0.03c0.71-0.15,1.32-0.93,1.84-2.11c0.16-0.36,0.3-0.76,0.44-1.18
					c1.07-3.26,1.67-8.21,1.98-11.64C144.07,199.3,142.3,199.74,139.72,199.39z"/>
				<path class="st0" d="M129.19,214.19c-0.65,0.15-1.35,0.32-2.1,0.5l0.2,0.81C127.93,215.05,128.57,214.61,129.19,214.19z"/>
				<path class="st7" d="M128.91,222.17c0,0-1.17,2.19,1.61,3.07c1.49,0.47,4.35,0.39,6.7,0.22l-0.6-3.58L128.91,222.17z"/>
				<path class="st7" d="M140.05,225.19c0.51-0.06,0.83-0.1,0.83-0.1l0.79-3.4l-1.75,0.07L140.05,225.19z"/>
				<path class="st10" d="M136.52,221.31l-0.71-4.2c-1.62,0.63-4.19,2.07-7.18,3.91l0.28,1.15l7.7-0.29L136.52,221.31z"/>
				<path class="st10" d="M139.79,217.86l0.11,3.07l0.03,0.82l1.75-0.07l2.83-0.11C142.85,220.07,141.2,218.74,139.79,217.86z"/>
				<path class="st0" d="M140.05,225.19l-0.12-3.43l-0.03-0.82l-0.11-3.07c-1.02-0.64-1.91-1.04-2.56-1.09
					c-0.31-0.02-0.8,0.11-1.42,0.35l0.71,4.2l0.1,0.57l0.6,3.58l0.49,2.92c0.49-0.32,1.07-0.5,1.7-0.5c0.26,0,0.5,0.04,0.74,0.1
					L140.05,225.19z"/>
				<path class="st7" d="M149.73,221.39l2.45,3.55c1.69,0.13,4.08,0.33,5.94,0.58c3.21,0.44,4.24-3.94,4.24-4.38
					c0-0.29-3.58-1.04-5.96-1.51l-0.17,1.51L149.73,221.39z"/>
				<path class="st10" d="M146.63,216.88l2.05,2.98l1.06,1.54l6.49-0.24l0.17-1.51l0.15-1.32
					C152.81,217.7,149.27,217.21,146.63,216.88z"/>
				<path class="st7" d="M109.58,227.97c0.02-0.17,0.05-0.34,0.05-0.52c0-1.45-0.78-2.71-1.94-3.42l-3.75,1.06
					c0,0,0.04-0.58,0.2-1.36c-1.48,0.59-2.53,2.03-2.53,3.72c0,2.22,1.8,4.01,4.01,4.01c0.07,0,0.14-0.02,0.21-0.02
					c0.04-0.19,0.09-0.37,0.15-0.51C106.1,230.64,107.48,229.53,109.58,227.97z"/>
				<path class="st0" d="M127.08,214.69c-7.96,1.91-21.02,5.2-21.83,6.31c-0.6,0.83-0.93,1.89-1.11,2.73
					c-0.17,0.78-0.2,1.36-0.2,1.36l3.75-1.06l12.26-3.45c2.46-1.72,4.99-3.46,7.34-5.08L127.08,214.69z"/>
				<path class="st7" d="M154.45,239.15l-1.15,0.1c0,0,0.09-2.76-0.25-5.58c-1.9,0.5-3.31,2.22-3.31,4.28
					c0,2.45,1.99,4.44,4.44,4.44s4.44-1.99,4.44-4.44c0-1.87-1.16-3.46-2.8-4.12l0.42,3.08
					C156.38,238.03,155.57,239.05,154.45,239.15z"/>
				<path class="st7" d="M140.15,227.97c-0.24-0.06-0.49-0.1-0.74-0.1c-0.63,0-1.21,0.19-1.7,0.5c-0.87,0.56-1.46,1.54-1.46,2.65
					c0,1.74,1.41,3.16,3.16,3.16s3.16-1.41,3.16-3.16C142.57,229.55,141.54,228.31,140.15,227.97z"/>
				<g>
					<path class="st7" d="M183.78,230.61c-0.22,0.73-1.61,4.96-3.61,4.05c-2.19-1-0.36-5.32-0.36-5.32
						c-1.88,0.41-3.29,2.08-3.29,4.08c0,2.31,1.87,4.18,4.18,4.18c2.31,0,4.18-1.87,4.18-4.18
						C184.89,232.33,184.47,231.35,183.78,230.61z"/>
					<path class="st0" d="M181.92,221.15c-2.78-1-14.47-4.29-24.89-7.16c-5.39-1.49-10.43-2.86-13.72-3.76
						c-0.14,0.42-0.29,0.82-0.44,1.18l3.77,5.47c2.64,0.34,6.18,0.83,9.91,1.44c8.01,1.32,16.92,3.21,19.83,5.45
						c2.83,2.17,3.52,3.84,3.52,4.97c0,0.22-0.03,0.42-0.07,0.6c0,0-1.83,4.32,0.36,5.32c2,0.91,3.39-3.32,3.61-4.05
						c0.02-0.07,0.04-0.12,0.04-0.12S187.18,223.04,181.92,221.15z"/>
				</g>
				<g>
					<path class="st7" d="M104.47,240.94c-2.66-0.44-1.43-3.91-0.16-6.54c-2.37,0.19-4.24,2.15-4.24,4.57
						c0,2.54,2.06,4.61,4.61,4.61c2.54,0,4.61-2.06,4.61-4.61c0-1.48-0.71-2.78-1.79-3.62l-0.24,0.7
						C107.1,236.82,106.17,241.22,104.47,240.94z"/>
					<path class="st0" d="M156.23,236.91l-0.42-3.08l-0.61-4.51l-3.02-4.38l-2.45-3.55l-1.06-1.54l-2.05-2.98l-3.77-5.47
						c-0.52,1.18-1.12,1.97-1.84,2.11c-0.09,0.02-0.19,0.04-0.28,0.03c-1.27-0.05-2.39-2.16-3.32-4.99
						c-1.08,0.73-4.27,2.9-8.24,5.62c-0.62,0.42-1.26,0.86-1.9,1.31c-2.35,1.62-4.87,3.36-7.34,5.08c-3.96,2.76-7.74,5.44-10.37,7.4
						c-2.1,1.56-3.48,2.66-3.59,2.96c-0.06,0.14-0.11,0.32-0.15,0.51c-0.04,0.22-0.79,1.45-1.52,2.96c-1.27,2.63-2.5,6.09,0.16,6.54
						c1.7,0.28,2.63-4.11,2.79-4.88l0.24-0.7l0.05-0.15c4.13-2.93,13.8-9.7,21.08-14.18c2.99-1.84,5.56-3.28,7.18-3.91
						c0.62-0.24,1.12-0.37,1.42-0.35c0.65,0.05,1.54,0.46,2.56,1.09c1.4,0.88,3.06,2.21,4.72,3.72c3.91,3.57,7.78,8.14,8.2,10.08
						c0.14,0.65,0.25,1.33,0.33,2.01c0.35,2.83,0.25,5.58,0.25,5.58l1.15-0.1C155.57,239.05,156.38,238.03,156.23,236.91z"/>
				</g>
				<path class="st0" d="M106.24,224.71c0,0,1.39,4.16-0.77,4.01c-2.16-0.15-2.47-3.54-2.47-3.54s-0.1-4.34,3.61-4.67L106.24,224.71
					z"/>
			</g>
			<g>
				<path class="st4" d="M110.2,226.01c0,0.18-0.03,0.35-0.05,0.52c2.63-1.96,6.41-4.63,10.37-7.4l-12.26,3.45
					C109.42,223.3,110.2,224.56,110.2,226.01z"/>
				<path class="st29" d="M146.13,104.05c0,0,0.56,0.23,1.47,0.6c0.12-0.08,0.23-0.16,0.32-0.26l-0.48-5.56
					c-1.55,1.09-2.17,3.09-4.24,3.09c-2.12,0-4.36-1.89-6.13-1.89c-1.77,0-2.71,1.18-4.01,0.24c-1.3-0.94-2.59-8.6-2.71-10.49
					c0,0-2-2.95-2.24-1.77c-0.24,1.18-0.35,7.78,1.41,8.37c1.77,0.59,1.89,1.41,1.89,1.41l0.24,5.66c0,0,0.99,0.25,2.48,0.57
					C138.43,104.48,146.13,104.05,146.13,104.05z"/>
				<path class="st29" d="M152.64,78.22c-0.24-2.95-4.01-4.72-6.6-6.13c-2.59-1.41-3.06-0.94-8.37,0.47
					c-5.3,1.41-5.19,4.95-7.54,9.31c-2.36,4.36,0.12,6.01,0.24,7.9c0.12,1.89,1.41,9.55,2.71,10.49c1.3,0.94,2.24-0.24,4.01-0.24
					c1.77,0,4.01,1.89,6.13,1.89c2.06,0,2.69-2,4.24-3.09c0.04-0.03,0.08-0.07,0.13-0.1c1.65-1.06,6.01-4.95,6.01-4.95
					C155.35,89.3,152.88,81.16,152.64,78.22z"/>
				<path class="st29" d="M148.14,104.86c-0.19-0.08-0.37-0.15-0.54-0.22c-0.15,0.1-0.32,0.18-0.51,0.26
					C147.44,104.89,147.79,104.88,148.14,104.86z"/>
				<path class="st29" d="M146.13,104.05c0,0-7.7,0.43-11.99-0.03c-1.49-0.32-2.48-0.57-2.48-0.57l-1.47,2.17
					c3.32-0.17,6.89-0.32,10.66-0.46c2.02-0.08,4.1-0.16,6.23-0.24c0.19-0.08,0.36-0.16,0.51-0.26
					C146.69,104.27,146.13,104.05,146.13,104.05z"/>
				<path class="st29" d="M104.22,154.87c-0.05-0.25-0.09-0.5-0.14-0.75c-2.18-11.52-2.44-21.12-1.73-28.47
					c-1.15,4.48-5.65,22.58-4.12,26.16c0.51,1.19,0.96,2.12,1.51,2.87c1.01,1.36,2.39,2.09,5.15,2.5L104.22,154.87z"/>
				<path class="st29" d="M180.89,148c-0.58-4.41-8.89-23.81-12.87-31.99c-0.01,1.87-0.41,3.22-0.41,3.22s-0.02,14.43-0.14,28.25
					c-0.01,1.26-0.02,2.51-0.03,3.75c1.37,0.11,5.74,0.7,9.15,0.25C179.16,151.13,181.18,150.2,180.89,148z"/>
				<path class="st29" d="M110.35,175.75l-4.37-14.89c-0.37,0.01-1.5,0.03-2.78-0.09l6.9,15.85c0.16-0.21,0.31-0.41,0.46-0.6
					C110.41,175.85,110.35,175.75,110.35,175.75z"/>
				<path class="st29" d="M105.58,159.51l-0.69-2.34c-2.76-0.41-4.14-1.14-5.15-2.5c-0.47,0.64-0.94,1.58-1.22,2.97
					c-0.44,2.18,2.35,2.9,4.67,3.13c1.28,0.13,2.41,0.11,2.78,0.09L105.58,159.51z"/>
				<path class="st29" d="M166.87,172.39c-0.14,0.17-0.36,0.46-0.8,0.82c1.1,0.3,1.22,0.12,1.98,0.68l2.88-14.35
					c-1.19,0.16-2.43,0.31-3.6,0.44C167.22,167,167.07,172.15,166.87,172.39z"/>
				<path class="st29" d="M176.58,151.48c-3.4,0.45-7.78-0.13-9.15-0.25c-0.02,2.15-0.04,4.24-0.07,6.23
					c-0.01,0.87-0.02,1.71-0.04,2.53c1.17-0.14,2.41-0.29,3.6-0.44c1.89-0.25,3.64-0.51,4.7-0.74
					C177.77,158.35,177.24,154.33,176.58,151.48z"/>
				<path class="st29" d="M110.56,176.02c-0.15,0.19-0.3,0.39-0.46,0.6l0.88-0.22C110.79,176.25,110.65,176.12,110.56,176.02z"/>
				<path class="st29" d="M150.37,104.78c-0.75,0.03-1.49,0.06-2.23,0.09c-0.35,0.01-0.7,0.03-1.05,0.04
					c-2.13,0.08-4.21,0.16-6.23,0.24c-3.77,0.15-7.35,0.29-10.66,0.46c-11.91,0.62-20.48,1.56-22.91,3.99
					c-1.95,1.95-4.1,7.47-4.93,16.05c-0.71,7.35-0.46,16.95,1.73,28.47c0.05,0.25,0.09,0.5,0.14,0.75l0.68,2.3l0.69,2.34l0.4,1.35
					l4.37,14.89c0,0,0.05,0.1,0.2,0.27c0.09,0.1,0.23,0.23,0.42,0.38c1.67,1.32,7.58,4.07,27.13,2.71
					c17.37-1.2,24.11-3.51,26.86-5.12c0.48-0.28,0.84-0.54,1.11-0.77c0.44-0.37,0.66-0.66,0.8-0.82c0.2-0.24,0.35-5.39,0.46-12.4
					c0.01-0.82,0.02-1.66,0.04-2.53c0.03-1.99,0.05-4.09,0.07-6.23c0.01-1.24,0.02-2.49,0.03-3.75c0.11-13.82,0.14-28.25,0.14-28.25
					s0.41-1.35,0.41-3.22C168.03,111.57,165.79,104.16,150.37,104.78z"/>
				<path class="st29" d="M145.86,197.14c-0.3,3.43-0.9,8.39-1.98,11.64c3.3,0.9,8.33,2.27,13.72,3.76l2.12-18.74
					c-3.26,0.46-7.42,1.02-11.98,1.48C147.36,195.93,146.76,196.61,145.86,197.14z"/>
				<path class="st29" d="M135.6,196.69c-0.03-0.2-0.06-0.39-0.1-0.58c-0.34,0.01-0.68,0.01-1.03,0.02
					c-3.81,0.08-7.58-0.01-11.08-0.37l4.27,17.49c0.75-0.18,1.45-0.35,2.1-0.5c3.97-2.72,7.16-4.89,8.24-5.62
					C136.94,203.94,136.13,199.83,135.6,196.69z"/>
				<path class="st29" d="M145.99,195.45c-3.38,0.31-6.94,0.56-10.49,0.66c0.03,0.19,0.06,0.38,0.1,0.58c1.23,0.54,2.77,1,4.69,1.26
					c2.58,0.35,4.35-0.08,5.57-0.8c0.9-0.53,1.5-1.22,1.89-1.86C147.17,195.34,146.59,195.4,145.99,195.45z"/>
				<path class="st29" d="M170.23,176.19c-0.22-0.69-0.68-1.24-1.3-1.7c-0.76-0.56-1.76-0.97-2.85-1.27
					c-0.27,0.23-0.63,0.49-1.11,0.77c-2.75,1.61-9.49,3.92-26.86,5.12c-19.55,1.36-25.45-1.4-27.13-2.71l-0.88,0.22
					c-1.41,1.88-3.13,4.54-4.12,7.46c-1.9,5.55,3.36,7.3,3.36,7.3c3.25,2.47,8.29,3.79,14.06,4.38c3.5,0.36,7.28,0.45,11.08,0.37
					c0.34-0.01,0.68-0.01,1.03-0.02c3.55-0.1,7.11-0.35,10.49-0.66c0.59-0.05,1.18-0.11,1.75-0.17c4.56-0.46,8.72-1.02,11.98-1.48
					c1.89-0.27,3.47-0.51,4.66-0.67C173.73,191.82,171.69,180.72,170.23,176.19z"/>
				<path class="st29" d="M140.29,197.95c-1.92-0.26-3.46-0.72-4.69-1.26c0.53,3.14,1.35,7.25,2.4,10.44
					c0.93,2.83,2.05,4.94,3.32,4.99c0.1,0,0.19-0.01,0.28-0.03c0.71-0.15,1.32-0.93,1.84-2.11c0.16-0.36,0.3-0.76,0.44-1.18
					c1.07-3.26,1.67-8.21,1.98-11.64C144.64,197.86,142.87,198.3,140.29,197.95z"/>
				<path class="st29" d="M129.48,220.73c0,0-1.17,2.19,1.61,3.07c1.49,0.47,4.35,0.39,6.7,0.22l-0.6-3.58L129.48,220.73z"/>
				<path class="st29" d="M140.63,223.75c0.51-0.06,0.83-0.1,0.83-0.1l0.79-3.4l-1.75,0.07L140.63,223.75z"/>
				<path class="st29" d="M137.09,219.88l-0.71-4.2c-1.62,0.63-4.19,2.07-7.18,3.91l0.28,1.15l7.7-0.29L137.09,219.88z"/>
				<path class="st29" d="M140.37,216.42l0.11,3.07l0.03,0.82l1.75-0.07l2.83-0.11C143.43,218.63,141.77,217.3,140.37,216.42z"/>
				<path class="st29" d="M140.63,223.75l-0.12-3.43l-0.03-0.82l-0.11-3.07c-1.02-0.64-1.91-1.04-2.56-1.09
					c-0.31-0.02-0.8,0.11-1.42,0.35l0.71,4.2l0.1,0.57l0.6,3.58l0.49,2.92c0.49-0.32,1.07-0.5,1.7-0.5c0.26,0,0.5,0.04,0.74,0.1
					L140.63,223.75z"/>
				<path class="st29" d="M150.31,219.95l2.45,3.55c1.69,0.13,4.08,0.33,5.94,0.58c3.21,0.44,4.24-3.94,4.24-4.38
					c0-0.29-3.58-1.04-5.96-1.51l-0.17,1.51L150.31,219.95z"/>
				<path class="st29" d="M147.2,215.44l2.05,2.98l1.06,1.54l6.49-0.24l0.17-1.51l0.15-1.32
					C153.38,216.27,149.85,215.78,147.2,215.44z"/>
				<path class="st29" d="M110.15,226.54c0.02-0.17,0.05-0.34,0.05-0.52c0-1.45-0.78-2.71-1.94-3.42l-3.75,1.06
					c0,0,0.04-0.58,0.2-1.36c-1.48,0.59-2.53,2.03-2.53,3.72c0,2.22,1.8,4.01,4.01,4.01c0.07,0,0.14-0.02,0.21-0.02
					c0.04-0.19,0.09-0.37,0.15-0.51C106.67,229.2,108.05,228.1,110.15,226.54z"/>
				<path class="st29" d="M127.66,213.25c-7.96,1.91-21.02,5.2-21.83,6.31c-0.6,0.83-0.93,1.89-1.11,2.73
					c-0.17,0.78-0.2,1.36-0.2,1.36l3.75-1.06l12.26-3.45c2.46-1.72,4.99-3.46,7.34-5.08c0.65-0.45,1.29-0.89,1.9-1.31
					C129.11,212.9,128.41,213.07,127.66,213.25z"/>
				<path class="st29" d="M155.02,237.71l-1.15,0.1c0,0,0.09-2.76-0.25-5.58c-1.9,0.5-3.31,2.22-3.31,4.28
					c0,2.45,1.99,4.44,4.44,4.44c2.45,0,4.44-1.99,4.44-4.44c0-1.87-1.16-3.46-2.8-4.12l0.42,3.08
					C156.96,236.59,156.15,237.61,155.02,237.71z"/>
				<path class="st29" d="M140.73,226.54c-0.24-0.06-0.49-0.1-0.74-0.1c-0.63,0-1.21,0.19-1.7,0.5c-0.87,0.56-1.46,1.54-1.46,2.65
					c0,1.74,1.41,3.16,3.16,3.16c1.74,0,3.16-1.41,3.16-3.16C143.14,228.11,142.11,226.87,140.73,226.54z"/>
				<g>
					<path class="st29" d="M184.36,229.17c-0.22,0.73-1.61,4.96-3.61,4.05c-2.19-1-0.36-5.32-0.36-5.32
						c-1.88,0.41-3.29,2.08-3.29,4.08c0,2.31,1.87,4.18,4.18,4.18c2.31,0,4.18-1.87,4.18-4.18
						C185.47,230.9,185.04,229.91,184.36,229.17z"/>
					<path class="st29" d="M182.5,219.71c-2.78-1-14.47-4.29-24.89-7.16c-5.39-1.49-10.43-2.86-13.72-3.76
						c-0.14,0.42-0.29,0.82-0.44,1.18l3.77,5.47c2.64,0.34,6.18,0.83,9.91,1.44c8.01,1.32,16.92,3.21,19.83,5.45
						c2.83,2.17,3.52,3.84,3.52,4.97c0,0.22-0.03,0.42-0.07,0.6c0,0-1.83,4.32,0.36,5.32c2,0.91,3.39-3.32,3.61-4.05
						c0.02-0.07,0.04-0.12,0.04-0.12S187.75,221.61,182.5,219.71z"/>
				</g>
				<g>
					<path class="st29" d="M105.05,239.5c-2.66-0.44-1.43-3.91-0.16-6.54c-2.37,0.19-4.24,2.15-4.24,4.57
						c0,2.54,2.06,4.61,4.61,4.61c2.54,0,4.61-2.06,4.61-4.61c0-1.48-0.71-2.78-1.79-3.62l-0.24,0.7
						C107.68,235.39,106.74,239.78,105.05,239.5z"/>
					<path class="st29" d="M156.81,235.47l-0.42-3.08l-0.61-4.51l-3.02-4.38l-2.45-3.55l-1.06-1.54l-2.05-2.98l-3.77-5.47
						c-0.52,1.18-1.12,1.97-1.84,2.11c-0.09,0.02-0.19,0.04-0.28,0.03c-1.27-0.05-2.39-2.16-3.32-4.99
						c-1.08,0.73-4.27,2.9-8.24,5.62c-0.62,0.42-1.26,0.86-1.9,1.31c-2.35,1.62-4.87,3.36-7.34,5.08c-3.96,2.76-7.74,5.44-10.37,7.4
						c-2.1,1.56-3.48,2.66-3.59,2.96c-0.06,0.14-0.11,0.32-0.15,0.51c-0.04,0.22-0.79,1.45-1.52,2.96c-1.27,2.63-2.5,6.09,0.16,6.54
						c1.7,0.28,2.63-4.11,2.79-4.88l0.24-0.7l0.05-0.15c4.13-2.93,13.8-9.7,21.08-14.18c2.99-1.84,5.56-3.28,7.18-3.91
						c0.62-0.24,1.12-0.37,1.42-0.35c0.65,0.05,1.54,0.46,2.56,1.09c1.4,0.88,3.06,2.21,4.72,3.72c3.91,3.57,7.78,8.14,8.21,10.08
						c0.14,0.65,0.25,1.33,0.33,2.01c0.35,2.83,0.25,5.58,0.25,5.58l1.15-0.1C156.15,237.61,156.96,236.59,156.81,235.47z"/>
				</g>
				<path class="st29" d="M106.82,223.27c0,0,1.39,4.16-0.77,4.01c-2.16-0.15-2.47-3.54-2.47-3.54"/>
			</g>
		</g>
	</g>
</g>
</svg>
