<?xml version="1.0" encoding="utf-8"?>
<!-- Generator: Adobe Illustrator 24.0.3, SVG Export Plug-In . SVG Version: 6.00 Build 0)  -->
<svg version="1.1" xmlns="http://www.w3.org/2000/svg" xmlns:xlink="http://www.w3.org/1999/xlink" x="0px" y="0px"
	 viewBox="0 0 357.17 247.01" style="enable-background:new 0 0 357.17 247.01;" xml:space="preserve">
<style type="text/css">
	.st0{fill:#DCEFFA;}
	.st1{fill:#FFFFFF;}
	.st2{fill:none;}
	.st3{fill:#F4F4F5;}
	.st4{fill:#EEAB89;}
	.st5{fill:#F2BEA6;}
	.st6{fill:#54575C;}
	.st7{fill:none;stroke:#54575C;stroke-width:0.5;stroke-miterlimit:10;}
	.st8{fill:#4890BA;}
	.st9{fill:#E0635D;}
	.st10{fill:#235485;}
	.st11{fill:#999B9E;}
	.st12{fill:#9A5738;}
	.st13{fill:#E5866C;}
	.st14{fill:#F5C65D;}
	.st15{fill:#F5CFBB;}
	.st16{fill:none;stroke:#54575C;stroke-width:0.5;stroke-linejoin:round;stroke-miterlimit:10;}
	.st17{fill:none;stroke:#54575C;stroke-width:0.4929;stroke-miterlimit:10;}
	.st18{fill:#E38F46;}
	.st19{fill:#61A575;}
	.st20{fill:none;stroke:#54575C;stroke-width:0.4929;stroke-linejoin:round;stroke-miterlimit:10;}
	.st21{fill:#E4845C;}
	.st22{fill:#BB5721;}
	.st23{fill:#FEB996;}
</style>
<g id="Layer_1">
</g>
<g id="Layer_2">
</g>
<g id="Layer_3">
	<line class="st17" x1="2.59" y1="25.09" x2="354.58" y2="25.09"/>
	<circle class="st17" cx="11.9" cy="19.68" r="2.35"/>
	<circle class="st17" cx="20.79" cy="19.68" r="2.35"/>
	<circle class="st17" cx="29.69" cy="19.68" r="2.35"/>
	<line class="st17" x1="76.51" y1="43.18" x2="301.87" y2="43.18"/>
	<g>
		<rect x="76.49" y="77.16" class="st0" width="222.92" height="122.29"/>
		<circle class="st0" cx="40.36" cy="67.54" r="27.05"/>
		<path class="st17" d="M348.09,217.37H9.07c-3.6,0-6.53-2.92-6.53-6.53V20.43c0-3.6,2.92-6.53,6.53-6.53h339.02
			c3.6,0,6.53,2.92,6.53,6.53v190.41C354.62,214.44,351.7,217.37,348.09,217.37z"/>
		<ellipse class="st17" cx="40.51" cy="68.38" rx="28.32" ry="27.3"/>
		<rect x="77.69" y="77.24" class="st17" width="225.33" height="122.99"/>
		<line class="st17" x1="77.69" y1="57.18" x2="250.43" y2="57.18"/>
		<line class="st17" x1="9.09" y1="104.28" x2="64.65" y2="104.28"/>
		<line class="st17" x1="9.09" y1="118.3" x2="64.65" y2="118.3"/>
		<line class="st17" x1="9.09" y1="132.32" x2="64.65" y2="132.32"/>
		<line class="st17" x1="9.09" y1="146.34" x2="64.65" y2="146.34"/>
		<line class="st17" x1="9.09" y1="160.36" x2="64.65" y2="160.36"/>
		<path class="st17" d="M96.63,191.11c1.83-0.71,3.14-2.55,4-4.22c3.35-6.53,7.04-12.87,10.37-19.4c1.48-2.9,2.5-5.89,3.67-8.91
			c0.68-1.76,1.75-3.53,3.21-4.76c2.27-1.93,5.28-1.82,7.92-0.75c2.61,1.06,4.3,3.29,6.73,4.49c4.31,2.11,7.57-2.34,9.62-5.52
			c1.39-2.14,2.59-4.4,4.09-6.47c6.2-8.54,11.05-7.6,16.99-10.87"/>
		<g>
			<g>
				<g>
					<path class="st1" d="M34.45,90.05c-1.02,0.16-2.3,0.22-3.86,0.06c0,0-1.7-1.41-3.03-2.04l0,0.02l-0.72,1.8l-0.62,1.56
						c0,0,4.71,5.21,7.06,5.04l1.18-6.22L34.45,90.05z"/>
					<path class="st1" d="M40.47,77.63c0.12-2.96-2.16-5.54-3.14-6.41s-3.82,0.43-3.82,0.43s-4.44-1.6-7.15,1.23
						c-2.71,2.83-2.76,6.42-1.96,8.27c0.8,1.85,1.71,0.42,0.6,2.51c-1.11,2.09,0.68,3.76,2.03,4.19c0.16,0.05,0.34,0.13,0.52,0.21
						c1.33,0.63,3.03,2.04,3.03,2.04c1.55,0.16,2.83,0.1,3.86-0.06c2.19-0.34,3.2-1.12,3.2-1.12s0.01,0.01,0.03,0.02
						c0.15,0.08,0.81,0.29,0.81-2.45c0-1.8,0.36-2.21,0.65-2.24c0.35-0.04,0.6-0.37,0.72-0.69c0.5-1.4,0.57-2.31,0.58-3.4
						C40.45,79.45,40.43,78.67,40.47,77.63z"/>
					<path class="st1" d="M27.14,228.84c-0.01,0.32-0.09,0.64-0.19,0.95c1.45,0.18,3.65,0.45,5.78,0.71c1.3-1.76,0.55-2.56,0.6-3.4
						c0.08-1.33-3.74-0.14-6.18,0.89C27.15,228.3,27.14,228.59,27.14,228.84z"/>
					<path class="st1" d="M38.54,231.15c-1.01-0.08-3.36-0.36-5.81-0.65c-2.13-0.26-4.33-0.53-5.78-0.71
						c-0.38,1.14-1.31,2.18-2.55,3.06c-2.14,1.53-5.13,2.58-7.57,2.85c2.12,3.97,9.04,1.99,12.42,1.5c3.66-0.52,5.22-1.04,7.63-1.15
						C39.27,235.95,41.05,231.36,38.54,231.15z"/>
					<path class="st1" d="M34.73,153.3c-2.06-3.11-4.14-6.86-4.14-6.86l-1.18-4.37c0,0-14.13,0.34-18.33-4.54
						c0,0-2.89,6.36-0.91,26.15c1.77,17.66,3.31,31.27,3.72,41.93c0.05,1.29,0.08,2.53,0.1,3.73c0.14,11.17-0.71,16.82-0.71,16.82
						s-1.55,9.75,2.69,9.61c0.27-0.01,0.56-0.03,0.85-0.06c2.44-0.27,5.44-1.32,7.57-2.85c1.24-0.88,2.17-1.92,2.55-3.06
						c0.1-0.31,0.18-0.63,0.19-0.95c0.01-0.25,0.01-0.54,0.02-0.86c0.02-4.55-0.65-15.72,0.41-22.32
						C28.48,199.93,33.2,167.28,34.73,153.3z"/>
					<path class="st1" d="M45.95,78.98c0.41,0.26,0.76,0.75,1.05,1.36l2.61-34.08l-1.31-3.94l-2.64,2.94l-2.71,33.79
						C44.04,78.71,45.22,78.52,45.95,78.98z"/>
					<path class="st1" d="M42.14,89.25l-2.52,31.51c-0.13,6.77-0.78,12.9-0.78,12.9l2.18,16.14c0.21-0.2,2.01-0.31,2.28-0.4
						l3.12-61.3c-1.03,0.84-2.4,1.44-3.48,1.36C42.62,89.44,42.37,89.35,42.14,89.25z"/>
					<path class="st1" d="M47.01,80.35c-0.29-0.61-0.64-1.1-1.05-1.36c-0.73-0.46-1.91-0.28-3,0.08c-1.15,0.37-2.2,0.93-2.51,1.1
						c0,1.09-0.08,2-0.58,3.4c-0.12,0.33-0.37,0.66-0.72,0.69c-0.3,0.03-0.65,0.45-0.65,2.24c0,2.74-0.67,2.53-0.81,2.45
						c0.18,0.84,0.53,1.84,1.25,2.11c1.29,0.49,1.85-3.39,1.85-3.39s0.3,1.11,1.36,1.58c0.23,0.1,0.49,0.19,0.8,0.21
						c1.08,0.08,2.45-0.52,3.48-1.36c0.61-0.5,1.1-1.08,1.33-1.66C48.2,85.28,47.9,82.23,47.01,80.35z"/>
					<path class="st1" d="M44.67,150.99c0-1.88-0.51-0.36-1.81-1.45c-0.39-0.33-0.78-0.35-1.13-0.22c-0.27,0.1-0.51,0.28-0.72,0.48
						l0.34,2.52c0,0-0.34,1.29-0.9,2.56c-0.34,0.79-0.77,1.57-1.25,2.04c0.49,1.12,0.98,2.28,0.98,2.53c0,0.51,3.82,0.97,3.39-1.91
						C42.69,151.59,44.67,152.87,44.67,150.99z"/>
					<path class="st1" d="M41.01,149.8l-2.18-16.14c0,0,0.66-6.13,0.78-12.9c0.1-5.09-0.11-10.54-1.12-14.01
						c-2.35-8.07-5.21-10.26-5.21-10.26c-2.35,0.17-7.06-5.04-7.06-5.04l0.62-1.56c-3.52-3.6-6.73,0.68-9.37,6.27
						c-2.86,6.05-6.39,41.37-6.39,41.37c4.2,4.88,18.33,4.54,18.33,4.54l1.18,4.37c0,0,2.08,3.75,4.14,6.86
						c1.45,2.19,2.9,4.07,3.6,4.07c0.31,0,0.6-0.17,0.88-0.44c0.48-0.47,0.9-1.25,1.25-2.04c0.56-1.27,0.9-2.56,0.9-2.56
						L41.01,149.8z"/>
				</g>
			</g>
			<g>
				<g>
					<path class="st18" d="M35.1,90.92c-1.02,0.16-2.3,0.22-3.86,0.06c0,0-1.7-1.41-3.03-2.04l0,0.02l-0.72,1.8l-0.62,1.56
						c0,0,4.71,5.21,7.06,5.04l1.18-6.22L35.1,90.92z"/>
					<path class="st6" d="M41.12,78.5c0.12-2.96-2.16-5.54-3.14-6.41c-0.99-0.86-3.82,0.43-3.82,0.43s-4.44-1.6-7.15,1.23
						s-2.76,6.42-1.96,8.27c0.8,1.85,1.71,0.42,0.6,2.51c-1.11,2.09,0.68,3.76,2.03,4.19c0.16,0.05,0.34,0.13,0.52,0.21
						c1.33,0.63,3.03,2.04,3.03,2.04c1.55,0.16,2.83,0.1,3.86-0.06c2.19-0.34,3.2-1.12,3.2-1.12s0.01,0.01,0.03,0.02
						c0.15,0.08,0.81,0.29,0.81-2.45c0-1.8,0.36-2.21,0.65-2.24c0.35-0.04,0.6-0.37,0.72-0.69c0.5-1.4,0.57-2.31,0.58-3.4
						C41.1,80.32,41.08,79.54,41.12,78.5z"/>
					<path class="st19" d="M27.79,229.71c-0.01,0.32-0.09,0.64-0.19,0.95c1.45,0.18,3.65,0.45,5.78,0.71c1.3-1.76,0.55-2.56,0.6-3.4
						c0.08-1.33-3.74-0.14-6.18,0.89C27.8,229.17,27.8,229.46,27.79,229.71z"/>
					<path class="st19" d="M39.19,232.02c-1.01-0.08-3.36-0.36-5.81-0.65c-2.13-0.26-4.33-0.53-5.78-0.71
						c-0.38,1.14-1.31,2.18-2.55,3.06c-2.14,1.53-5.13,2.58-7.57,2.85c2.12,3.97,9.04,1.99,12.42,1.5c3.66-0.52,5.22-1.04,7.63-1.15
						S41.7,232.22,39.19,232.02z"/>
					<path class="st8" d="M35.38,154.17c-2.06-3.11-4.14-6.86-4.14-6.86l-1.18-4.37c0,0-14.13,0.34-18.33-4.54
						c0,0-2.89,6.36-0.91,26.15c1.77,17.66,3.31,31.27,3.72,41.93c0.05,1.29,0.08,2.53,0.1,3.73c0.14,11.17-0.71,16.82-0.71,16.82
						s-1.55,9.75,2.69,9.61c0.27-0.01,0.56-0.03,0.85-0.06c2.44-0.27,5.44-1.32,7.57-2.85c1.24-0.88,2.17-1.92,2.55-3.06
						c0.1-0.31,0.18-0.63,0.19-0.95c0.01-0.25,0.01-0.54,0.02-0.86c0.02-4.55-0.65-15.72,0.41-22.32
						C29.13,200.8,33.85,168.15,35.38,154.17z"/>
					<path class="st14" d="M46.6,79.85c0.41,0.26,0.76,0.75,1.05,1.36l2.61-34.08l-1.31-3.94l-2.64,2.94L43.6,79.93
						C44.69,79.58,45.87,79.39,46.6,79.85z"/>
					<path class="st14" d="M42.79,90.12l-2.52,31.51c-0.13,6.77-0.78,12.9-0.78,12.9l2.18,16.14c0.21-0.2,2.01-0.31,2.28-0.4
						l3.12-61.3c-1.03,0.84-2.4,1.44-3.48,1.36C43.27,90.3,43.02,90.22,42.79,90.12z"/>
					<path class="st18" d="M47.66,81.21c-0.29-0.61-0.64-1.1-1.05-1.36c-0.73-0.46-1.91-0.28-3,0.08c-1.15,0.37-2.2,0.93-2.51,1.1
						c0,1.09-0.08,2-0.58,3.4c-0.12,0.33-0.37,0.66-0.72,0.69c-0.3,0.03-0.65,0.45-0.65,2.24c0,2.74-0.67,2.53-0.81,2.45
						c0.18,0.84,0.53,1.84,1.25,2.11c1.29,0.49,1.85-3.39,1.85-3.39s0.3,1.11,1.36,1.58c0.23,0.1,0.49,0.19,0.8,0.21
						c1.08,0.08,2.45-0.52,3.48-1.36c0.61-0.5,1.1-1.08,1.33-1.66C48.85,86.15,48.55,83.09,47.66,81.21z"/>
					<path class="st18" d="M45.32,151.86c0-1.88-0.51-0.36-1.81-1.45c-0.39-0.33-0.78-0.35-1.13-0.22c-0.27,0.1-0.51,0.28-0.72,0.48
						L42,153.2c0,0-0.34,1.29-0.9,2.56c-0.34,0.79-0.77,1.57-1.25,2.04c0.49,1.12,0.98,2.28,0.98,2.53c0,0.51,3.82,0.97,3.39-1.91
						C43.34,152.46,45.32,153.74,45.32,151.86z"/>
					<path class="st19" d="M41.66,150.67l-2.18-16.14c0,0,0.66-6.13,0.78-12.9c0.1-5.09-0.11-10.54-1.12-14.01
						c-2.35-8.07-5.21-10.26-5.21-10.26c-2.35,0.17-7.06-5.04-7.06-5.04l0.62-1.56c-3.52-3.6-6.73,0.68-9.37,6.27
						c-2.86,6.05-6.39,41.37-6.39,41.37c4.2,4.88,18.33,4.54,18.33,4.54l1.18,4.37c0,0,2.08,3.75,4.14,6.86
						c1.45,2.19,2.9,4.07,3.6,4.07c0.31,0,0.6-0.17,0.88-0.44c0.48-0.47,0.9-1.25,1.25-2.04c0.56-1.27,0.9-2.56,0.9-2.56
						L41.66,150.67z"/>
				</g>
			</g>
			<g>
				<g>
					<path class="st2" d="M40.03,88.17c0,0-0.55,3.88-1.85,3.39c-0.71-0.27-1.07-1.27-1.25-2.11c-0.02-0.01-0.03-0.02-0.03-0.02
						s-1.02,0.78-3.2,1.12l0.01,0.23L32.54,97c0,0,2.86,2.19,5.21,10.26c1.01,3.47,1.21,8.92,1.12,14.01l2.52-31.51
						C40.34,89.28,40.03,88.17,40.03,88.17z"/>
					<path class="st17" d="M33.7,90.55c-1.02,0.16-2.3,0.22-3.86,0.06c0,0-1.7-1.41-3.03-2.04l0,0.02l-0.72,1.8l-0.62,1.56
						c0,0,4.71,5.21,7.06,5.04l1.18-6.22L33.7,90.55z"/>
					<path class="st20" d="M39.73,78.13c0.12-2.96-2.16-5.54-3.14-6.41c-0.99-0.86-3.82,0.43-3.82,0.43s-4.44-1.6-7.15,1.23
						s-1.17,5.36-0.37,7.21c0.8,1.85,0.12,1.48-0.99,3.57c-1.11,2.09,0.68,3.76,2.03,4.19c0.16,0.05,0.34,0.13,0.52,0.21
						c1.33,0.63,3.03,2.04,3.03,2.04c1.55,0.16,2.83,0.1,3.86-0.06c2.19-0.34,3.2-1.12,3.2-1.12s0.01,0.01,0.03,0.02
						c0.15,0.08,0.81,0.29,0.81-2.45c0-1.8,0.36-2.21,0.65-2.24c0.35-0.04,0.6-0.37,0.72-0.69c0.5-1.4,0.57-2.31,0.58-3.4
						C39.71,79.96,39.68,79.18,39.73,78.13z"/>
					<path class="st17" d="M26.39,229.34c-0.01,0.32-0.09,0.64-0.19,0.95c1.45,0.18,3.65,0.45,5.78,0.71c1.3-1.76,0.55-2.56,0.6-3.4
						c0.08-1.33-3.74-0.14-6.18,0.89C26.41,228.8,26.4,229.09,26.39,229.34z"/>
					<path class="st17" d="M37.79,231.65c-1.01-0.08-3.36-0.36-5.81-0.65c-2.13-0.26-4.33-0.53-5.78-0.71
						c-0.38,1.14-1.31,2.18-2.55,3.06c-2.14,1.53-5.13,2.58-7.57,2.85c2.12,3.97,9.04,1.99,12.42,1.5c3.66-0.52,5.22-1.04,7.63-1.15
						C38.53,236.46,40.3,231.86,37.79,231.65z"/>
					<path class="st17" d="M33.99,153.81c-2.06-3.11-4.14-6.86-4.14-6.86l-1.18-4.37c0,0-14.13,0.34-18.33-4.54
						c0,0-2.89,6.36-0.91,26.15c1.77,17.66,3.31,31.27,3.72,41.93c0.05,1.29,0.08,2.53,0.1,3.73c0.14,11.17-0.71,16.82-0.71,16.82
						s-1.55,9.75,2.69,9.61c0.27-0.01,0.56-0.03,0.85-0.06c2.44-0.27,5.44-1.32,7.57-2.85c1.24-0.88,2.17-1.92,2.55-3.06
						c0.1-0.31,0.18-0.63,0.19-0.95c0.01-0.25,0.01-0.54,0.02-0.86c0.02-4.55-0.65-15.72,0.41-22.32
						C27.73,200.43,32.45,167.79,33.99,153.81z"/>
					<path class="st17" d="M45.21,79.49c0.41,0.26,0.76,0.75,1.05,1.36l2.61-34.08l-1.31-3.94l-2.64,2.94l-2.71,33.79
						C43.3,79.21,44.47,79.03,45.21,79.49z"/>
					<path class="st17" d="M41.39,89.75l-2.52,31.51c-0.13,6.77-0.78,12.9-0.78,12.9l2.18,16.14c0.21-0.2,2.01-0.31,2.28-0.4
						l3.12-61.3c-1.03,0.84-2.4,1.44-3.48,1.36C41.88,89.94,41.62,89.86,41.39,89.75z"/>
					<path class="st20" d="M46.26,80.85c-0.29-0.61-0.64-1.1-1.05-1.36c-0.73-0.46-1.91-0.28-3,0.08c-1.15,0.37-2.2,0.93-2.51,1.1
						c0,1.09-0.08,2-0.58,3.4c-0.12,0.33-0.37,0.66-0.72,0.69c-0.3,0.03-0.65,0.45-0.65,2.24c0,2.74-0.67,2.53-0.81,2.45
						c0.18,0.84,0.53,1.84,1.25,2.11c1.29,0.49,1.85-3.39,1.85-3.39s0.3,1.11,1.36,1.58c0.23,0.1,0.49,0.19,0.8,0.21
						c1.08,0.08,2.45-0.52,3.48-1.36c0.61-0.5,1.1-1.08,1.33-1.66C47.46,85.78,47.15,82.73,46.26,80.85z"/>
					<path class="st17" d="M43.92,151.49c0-1.88-0.51-0.36-1.81-1.45c-0.39-0.33-0.78-0.35-1.13-0.22c-0.27,0.1-0.51,0.28-0.72,0.48
						l0.34,2.52c0,0-0.34,1.29-0.9,2.56c-0.34,0.79-0.77,1.57-1.25,2.04c0.49,1.12,0.98,2.28,0.98,2.53c0,0.51,3.82,0.97,3.39-1.91
						C41.95,152.1,43.92,153.38,43.92,151.49z"/>
					<path class="st17" d="M40.27,150.31l-2.18-16.14c0,0,0.66-6.13,0.78-12.9c0.1-5.09-0.11-10.54-1.12-14.01
						C35.4,99.19,32.54,97,32.54,97c-2.35,0.17-7.06-5.04-7.06-5.04l0.62-1.56c-3.52-3.6-6.73,0.68-9.37,6.27
						c-2.86,6.05-6.39,41.37-6.39,41.37c4.2,4.88,18.33,4.54,18.33,4.54l1.18,4.37c0,0,2.08,3.75,4.14,6.86
						c1.45,2.19,2.9,4.07,3.6,4.07c0.31,0,0.6-0.17,0.88-0.44c0.48-0.47,0.9-1.25,1.25-2.04c0.56-1.27,0.9-2.56,0.9-2.56
						L40.27,150.31z"/>
				</g>
				<path class="st17" d="M13.27,208.63c0,0,0.42-29.19-0.42-34.97c-0.85-5.78,0.71-15.79,0.71-15.79"/>
				<path class="st17" d="M28.67,142.57c0,0-1.3-12.34-1.72-25.74"/>
			</g>
		</g>
		<g>
			<g>
				<path class="st1" d="M292.42,91.47c-0.27-0.88-0.94-2.35-1.34-3.85c-0.38,1.72-0.93,4.34-0.93,5.4c0,1.53-0.36,4.8,3.36,4.96
					c-0.25-0.51-0.47-1.15-0.59-2.03C292.5,93.09,292.99,93.34,292.42,91.47z"/>
				<path class="st1" d="M318.19,90.82c-3.09-1.79-4.63-3.01-4.8-5.61c-0.16-2.6-1.3-5.85-6.42-7.32c-5.12-1.46-6.58-4.15-7.97-2.36
					c-1.38,1.79-0.49,2.68-1.3,2.76c-0.81,0.08-5.77-0.65-5.85,2.11c-0.08,2.76,0.98,1.92-0.08,2.76c-1.25,0.99-1.15,2.74-0.69,4.44
					c0.4,1.51,1.08,2.97,1.34,3.85c0.57,1.87,0.08,1.63,0.49,4.47c0.13,0.88,0.35,1.53,0.59,2.03c0.55,1.13,1.22,1.51,1.27,1.79
					c0,0,0,0.01,0,0.01c0.05,0.36-1.22,2.42-1.04,4.58c0.03,0.37,0.1,0.74,0.23,1.1c0.03,0.07,0.05,0.14,0.07,0.21
					c0.84,2.45,1.17,4.83,2.21,6.13c2.19,2.76,4.47-0.16,7.07,3.17c1.28,1.64,3.09-1.71,4.96-0.98c1.87,0.73,2.76,1.71,4.06,0.08
					s0-2.11,3.17-3.49c0.54-0.23,1-0.58,1.42-0.99c2.04-2.03,2.65-5.8,2.24-7.22c-0.49-1.71,1.63-1.14,2.03-2.84
					C321.6,97.81,321.28,92.6,318.19,90.82z"/>
				<path class="st1" d="M285.16,230.69c0,0,0.33-0.86,0.85-2.38c-2.47-0.42-5.52-0.55-7.68,0.66c-4.2,2.36,2.32,3.99,5.34,4.73
					c3.02,0.75,2.83,4.33,7.36,3.68c2.34-0.34,3.04-2.72,3.18-5.04C290.75,234.41,285.16,230.69,285.16,230.69z"/>
				<path class="st1" d="M344.95,224.46c-2.48,0.38-5.45,1.22-7.12,3.06c-3.24,3.57,3.46,3.05,6.57,2.8
					c3.11-0.25,4.05,3.21,8.14,1.16c2.25-1.13,2-3.88,1.3-6.24c-2.4,0.6-8.01,1.05-8.01,1.05S345.5,225.61,344.95,224.46z"/>
				<g>
					<path class="st1" d="M333.92,177c-4.05-6.95-6.87-26.7-10.24-35.87c-1.24,1.19-3.52,2.62-6.38,4.3
						c-4.55,2.68-16.81,5.26-18.37,4.55c-1.2-0.55-2.77,0.36-3.83,0.72c-1.34,12.38-3.65,35.39-3.65,47.2
						c0,12.82-3.73,25.34-5.44,30.41c-0.51,1.52-0.85,2.38-0.85,2.38s5.59,3.72,9.05,1.66c0.16-0.09,0.32-0.18,0.46-0.3
						c3.4-2.72,6.12-30.24,6.8-37.21c0.68-6.97,9-35.51,9-35.51s13.25,23.11,16.14,27.86c2.49,4.1,14.92,30.1,18.34,37.26
						c0.55,1.16,0.88,1.84,0.88,1.84s5.61-0.45,8.01-1.05c0.65-0.16,1.07-0.34,1.07-0.52C354.91,223.88,338.67,185.16,333.92,177z"
						/>
					<path class="st1" d="M321.28,133.89c-0.24-2.19-1.54-5.04-1.95-8.86c-0.23-2.12-1.77-6.86-2.28-11.46
						c-0.15-1.37-0.15-2.75-0.13-4c-0.41,0.41-0.88,0.76-1.42,0.99c-3.17,1.38-1.87,1.87-3.17,3.49s-2.19,0.65-4.06-0.08
						c-1.87-0.73-3.68,2.62-4.96,0.98c-2.6-3.33-4.88-0.41-7.07-3.17c-1.03-1.3-1.37-3.68-2.21-6.13c-0.02-0.07-0.04-0.14-0.07-0.21
						c-0.13-0.36-0.2-0.73-0.23-1.1c-0.66,0.35-1.34,0.74-2.01,1.17c-3.5,2.23-6.87,5.51-7.6,10.09c0,0,0.18,0.68,0.5,1.65
						c0.58,1.76,1.61,4.5,2.87,6.13c0.57,0.73,1.18,1.25,1.83,1.32l0.98,0.16c0,0,3.38,25.29,3.74,25.79
						c0.18,0.25,0.56,0.2,1.04,0.04c1.06-0.36,2.63-1.27,3.83-0.72c1.55,0.71,13.82-1.87,18.37-4.55c2.86-1.68,5.14-3.11,6.38-4.3
						c0.73-0.71,1.11-1.33,1.02-1.87C324.69,139.26,321.52,136.09,321.28,133.89z"/>
				</g>
				<path class="st1" d="M276.53,113.64c-0.33,0.1-1.23,0.26-2.09,0.31l13.77,30.39l3.48-1.21l-10.12-22.23
					c-1.11-1.66-1.86-3.29-1.87-3.38C279.69,117.36,277.19,113.44,276.53,113.64z"/>
				<path class="st1" d="M253.9,60.35l-3.47-3.72l0.32,5.01l11.69,25.79c1.04,0.01,3.21,0.6,4.14,0.65L253.9,60.35z"/>
				<path class="st1" d="M268.88,93.14c-0.6-0.2-1.2-0.5-1.65-0.99c-0.83-0.9-2.83-2.23-4.14-3.25l8.95,19.76
					c0.66-0.19,2.6-0.24,3.71-0.47L268.88,93.14z"/>
				<path class="st1" d="M294.78,99.76c-1.76,0.21-3.46,0.36-3.93,0.24c-1.06-0.27-5.36-2.92-8.54-3.92
					c-3.18-1.01-11.4-5.51-11.4-5.51s-4.93-7.1-5.3-4.35c0,0,1.22,1.86,0.53,2.07c-0.07,0.02-0.2,0.03-0.34,0.02
					c-0.93-0.05-3.1-0.63-4.14-0.65c-0.3,0-0.5,0.04-0.55,0.15c-0.1,0.22,0.44,0.71,1.22,1.31c1.31,1.01,3.31,2.35,4.14,3.25
					c0.45,0.49,1.05,0.8,1.65,0.99c1.15,0.38,2.27,0.33,2.27,0.33s10.92,10.02,13.26,10.87c1.07,0.39,4.59,0.71,8.09,0.95
					c0.67-0.43,1.35-0.82,2.01-1.17C293.56,102.19,294.83,100.13,294.78,99.76z"/>
				<path class="st1" d="M284.64,117.26c-0.52,0.36-0.95,0.55-1.13,0.4c-0.58-0.46-2.99-2.7-2.99-2.7
					c-0.66-0.82-2.37-3.29-2.19-4.72c0.18-1.44-0.78-2.43-1.2-3.06c-0.26-0.4-1.37-0.2-1.87,0.03c-0.3,0.13-0.15,0.3-0.15,0.3
					c1.1,0.5,0.74,0.76-0.11,0.93c-1.11,0.22-3.06,0.28-3.71,0.47c-0.07,0.02-0.13,0.04-0.17,0.07c-0.63,0.42,0.43,4.16,0.7,4.85
					c0.14,0.35,0.98,0.41,1.86,0.36c0.86-0.05,1.76-0.21,2.09-0.31c0.66-0.2,3.16,3.72,3.17,3.88c0,0.08,0.76,1.71,1.87,3.38
					c1.09,1.64,2.52,3.31,3.93,3.58c0.78,0.15,1.77-0.42,2.79-1.31C286.25,121.76,285.21,119.02,284.64,117.26z"/>
			</g>
			<g>
				<path class="st2" d="M271.77,94.04c0,0-1.13,0.04-2.27-0.33l6.88,15.06c0.85-0.17,1.21-0.43,0.11-0.93c0,0-0.15-0.16,0.15-0.3
					c0.51-0.22,1.61-0.42,1.87-0.03c0.42,0.63,1.38,1.63,1.2,3.06c-0.18,1.44,1.53,3.9,2.19,4.72c0,0,2.41,2.24,2.99,2.7
					c0.18,0.14,0.61-0.05,1.13-0.4c-0.32-0.97-0.5-1.65-0.5-1.65c0.73-4.59,4.1-7.87,7.6-10.09c-3.49-0.23-7.02-0.56-8.09-0.95
					C282.69,104.07,271.77,94.04,271.77,94.04z"/>
				<path class="st21" d="M293.81,91.81c-0.27-0.88-0.94-2.35-1.34-3.85c-0.38,1.72-0.93,4.34-0.93,5.4c0,1.53-0.36,4.8,3.36,4.96
					c-0.25-0.51-0.47-1.15-0.59-2.03C293.89,93.44,294.38,93.68,293.81,91.81z"/>
				<path class="st22" d="M319.57,91.16c-3.09-1.79-4.63-3.01-4.8-5.61c-0.16-2.6-1.3-5.85-6.42-7.32
					c-5.12-1.46-6.58-4.15-7.97-2.36c-1.38,1.79-0.49,2.68-1.3,2.76c-0.81,0.08-5.77-0.65-5.85,2.11c-0.08,2.76,0.98,1.92-0.08,2.76
					c-1.25,0.99-1.15,2.74-0.69,4.44c0.4,1.51,1.08,2.97,1.34,3.85c0.57,1.87,0.08,1.63,0.49,4.47c0.13,0.88,0.35,1.53,0.59,2.03
					c0.55,1.13,1.22,1.51,1.27,1.79c0,0,0,0.01,0,0.01c0.05,0.36-1.22,2.42-1.04,4.58c0.03,0.37,0.1,0.74,0.23,1.1
					c0.03,0.07,0.05,0.14,0.07,0.21c0.84,2.45,1.17,4.83,2.21,6.13c2.19,2.76,4.47-0.16,7.07,3.17c1.28,1.64,3.09-1.71,4.96-0.98
					c1.87,0.73,2.76,1.71,4.06,0.08c1.3-1.63,0-2.11,3.17-3.49c0.54-0.23,1-0.58,1.42-0.99c2.04-2.03,2.65-5.8,2.24-7.22
					c-0.49-1.71,1.63-1.14,2.03-2.84C322.99,98.15,322.66,92.95,319.57,91.16z"/>
				<path class="st9" d="M286.54,231.04c0,0,0.33-0.86,0.85-2.38c-2.47-0.42-5.52-0.55-7.68,0.66c-4.2,2.36,2.32,3.99,5.34,4.73
					c3.02,0.75,2.83,4.33,7.36,3.68c2.34-0.34,3.04-2.72,3.18-5.04C292.13,234.75,286.54,231.04,286.54,231.04z"/>
				<path class="st9" d="M346.33,224.8c-2.48,0.38-5.45,1.22-7.12,3.06c-3.24,3.57,3.46,3.05,6.57,2.8
					c3.11-0.25,4.05,3.21,8.14,1.16c2.25-1.13,2-3.88,1.3-6.24c-2.4,0.6-8.01,1.05-8.01,1.05S346.89,225.96,346.33,224.8z"/>
				<g>
					<path class="st8" d="M335.3,177.35c-4.05-6.95-6.87-26.7-10.24-35.87c-1.24,1.19-3.52,2.62-6.38,4.3
						c-4.55,2.68-16.81,5.26-18.37,4.55c-1.2-0.55-2.77,0.36-3.83,0.72c-1.34,12.38-3.65,35.39-3.65,47.2
						c0,12.82-3.73,25.34-5.44,30.41c-0.51,1.52-0.85,2.38-0.85,2.38s5.59,3.72,9.05,1.66c0.16-0.09,0.32-0.18,0.46-0.3
						c3.4-2.72,6.12-30.24,6.8-37.21c0.68-6.97,9-35.51,9-35.51s13.25,23.11,16.14,27.86c2.49,4.1,14.92,30.1,18.34,37.26
						c0.55,1.16,0.88,1.84,0.88,1.84s5.61-0.45,8.01-1.05c0.65-0.16,1.07-0.34,1.07-0.52C356.29,224.22,340.06,185.51,335.3,177.35z
						"/>
					<path class="st14" d="M322.66,134.24c-0.24-2.19-1.54-5.04-1.95-8.86c-0.23-2.12-1.77-6.86-2.28-11.46
						c-0.15-1.37-0.15-2.75-0.13-4c-0.41,0.41-0.88,0.76-1.42,0.99c-3.17,1.38-1.87,1.87-3.17,3.49c-1.3,1.63-2.19,0.65-4.06-0.08
						c-1.87-0.73-3.68,2.62-4.96,0.98c-2.6-3.33-4.88-0.41-7.07-3.17c-1.03-1.3-1.37-3.68-2.21-6.13c-0.02-0.07-0.04-0.14-0.07-0.21
						c-0.13-0.36-0.2-0.73-0.23-1.1c-0.66,0.35-1.34,0.74-2.01,1.17c-3.5,2.23-6.87,5.51-7.6,10.09c0,0,0.18,0.68,0.5,1.65
						c0.58,1.76,1.61,4.5,2.87,6.13c0.57,0.73,1.18,1.25,1.83,1.32l0.98,0.16c0,0,3.38,25.29,3.74,25.79
						c0.18,0.25,0.56,0.2,1.04,0.04c1.06-0.36,2.63-1.27,3.83-0.72c1.55,0.71,13.82-1.87,18.37-4.55c2.86-1.68,5.14-3.11,6.38-4.3
						c0.73-0.71,1.11-1.33,1.02-1.87C326.08,139.6,322.91,136.43,322.66,134.24z"/>
				</g>
				<path class="st9" d="M276.91,113.98c-0.33,0.1-1.23,0.26-2.09,0.31l13.77,30.39l3.48-1.21l-10.12-22.23
					c-1.11-1.66-1.86-3.29-1.87-3.38C280.07,117.7,277.57,113.78,276.91,113.98z"/>
				<path class="st9" d="M254.28,60.7l-3.47-3.72l0.32,5.01l11.69,25.79c1.04,0.01,3.21,0.6,4.14,0.65L254.28,60.7z"/>
				<path class="st9" d="M269.27,93.49c-0.6-0.2-1.2-0.5-1.65-0.99c-0.83-0.9-2.83-2.23-4.14-3.25l8.95,19.76
					c0.66-0.19,2.6-0.24,3.71-0.47L269.27,93.49z"/>
				<path class="st21" d="M296.16,100.11c-1.76,0.21-3.46,0.36-3.93,0.24c-1.06-0.27-5.36-2.92-8.54-3.92
					c-3.18-1.01-11.4-5.51-11.4-5.51s-4.93-7.1-5.3-4.35c0,0,1.22,1.86,0.53,2.07c-0.07,0.02-0.2,0.03-0.34,0.02
					c-0.93-0.05-3.1-0.63-4.14-0.65c-0.3,0-0.5,0.04-0.55,0.15c-0.1,0.22,0.44,0.71,1.22,1.31c1.31,1.01,3.31,2.35,4.14,3.25
					c0.45,0.49,1.05,0.8,1.65,0.99c1.15,0.38,2.27,0.33,2.27,0.33s10.92,10.02,13.26,10.87c1.07,0.39,4.59,0.71,8.09,0.95
					c0.67-0.43,1.35-0.82,2.01-1.17C294.94,102.53,296.22,100.48,296.16,100.11z"/>
				<path class="st21" d="M286.02,117.6c-0.52,0.36-0.95,0.55-1.13,0.4c-0.58-0.46-2.99-2.7-2.99-2.7
					c-0.66-0.82-2.37-3.29-2.19-4.72c0.18-1.44-0.78-2.43-1.2-3.06c-0.26-0.4-1.37-0.2-1.87,0.03c-0.3,0.13-0.15,0.3-0.15,0.3
					c1.1,0.5,0.74,0.76-0.11,0.93c-1.11,0.22-3.06,0.28-3.71,0.47c-0.07,0.02-0.13,0.04-0.17,0.07c-0.63,0.42,0.43,4.16,0.7,4.85
					c0.14,0.35,0.98,0.41,1.86,0.36c0.86-0.05,1.76-0.21,2.09-0.31c0.66-0.2,3.16,3.72,3.17,3.88c0,0.08,0.76,1.71,1.87,3.38
					c1.09,1.64,2.52,3.31,3.93,3.58c0.78,0.15,1.77-0.42,2.79-1.31C287.63,122.1,286.6,119.36,286.02,117.6z"/>
			</g>
			<g>
				<path class="st2" d="M270.51,93.83c0,0-1.13,0.04-2.27-0.33l6.88,15.06c0.85-0.17,1.21-0.43,0.11-0.93c0,0-0.15-0.16,0.15-0.3
					c0.51-0.22,1.61-0.42,1.87-0.03c0.42,0.63,1.38,1.63,1.2,3.06c-0.18,1.44,1.53,3.9,2.19,4.72c0,0,2.41,2.24,2.99,2.7
					c0.18,0.14,0.61-0.05,1.13-0.4c-0.32-0.97-0.5-1.65-0.5-1.65c0.73-4.59,4.1-7.87,7.6-10.09c-3.49-0.23-7.02-0.56-8.09-0.95
					C281.43,103.85,270.51,93.83,270.51,93.83z"/>
				<path class="st17" d="M261.23,87.95c-0.1,0.22,0.44,0.71,1.22,1.31l-0.66-1.47C261.49,87.79,261.28,87.83,261.23,87.95z"/>
				<path class="st17" d="M292.55,91.6c-0.27-0.88-0.94-2.35-1.34-3.85c-0.38,1.72-0.93,4.34-0.93,5.4c0,1.53-0.36,4.8,3.36,4.96
					c-0.25-0.51-0.47-1.15-0.59-2.03C292.63,93.23,293.11,93.47,292.55,91.6z"/>
				<path class="st17" d="M318.31,90.95c-3.09-1.79-4.63-3.01-4.8-5.61c-0.16-2.6-1.3-5.85-6.42-7.32
					c-5.12-1.46-6.58-4.15-7.97-2.36c-1.38,1.79-0.49,2.68-1.3,2.76c-0.81,0.08-5.77-0.65-5.85,2.11c-0.08,2.76,0.98,1.92-0.08,2.76
					c-1.25,0.99-1.15,2.74-0.69,4.44c0.4,1.51,1.08,2.97,1.34,3.85c0.57,1.87,0.08,1.63,0.49,4.47c0.13,0.88,0.35,1.53,0.59,2.03
					c0.55,1.13,1.22,1.51,1.27,1.79c0,0,0,0.01,0,0.01c0.05,0.36-1.22,2.42-1.04,4.58c0.03,0.37,0.1,0.74,0.23,1.1
					c0.03,0.07,0.05,0.14,0.07,0.21c0.84,2.45,1.17,4.83,2.21,6.13c2.19,2.76,4.47-0.16,7.07,3.17c1.28,1.64,3.09-1.71,4.96-0.98
					c1.87,0.73,2.76,1.71,4.06,0.08s0-2.11,3.17-3.49c0.54-0.23,1-0.58,1.42-0.99c2.04-2.03,2.65-5.8,2.24-7.22
					c-0.49-1.71,1.63-1.14,2.03-2.84C321.72,97.94,321.4,92.74,318.31,90.95z"/>
				<path class="st17" d="M285.28,230.83c0,0,0.33-0.86,0.85-2.38c-2.47-0.42-5.52-0.55-7.68,0.66c-4.2,2.36,2.32,3.99,5.34,4.73
					c3.02,0.75,2.83,4.33,7.36,3.68c2.34-0.34,3.04-2.72,3.18-5.04C290.87,234.54,285.28,230.83,285.28,230.83z"/>
				<path class="st17" d="M345.07,224.59c-2.48,0.38-5.45,1.22-7.12,3.06c-3.24,3.57,3.46,3.05,6.57,2.8s4.05,3.21,8.14,1.16
					c2.25-1.13,2-3.88,1.3-6.24c-2.4,0.6-8.01,1.05-8.01,1.05S345.62,225.75,345.07,224.59z"/>
				<g>
					<path class="st17" d="M334.04,177.14c-4.05-6.95-6.87-26.7-10.24-35.87c-1.24,1.19-3.52,2.62-6.38,4.3
						c-4.55,2.68-16.81,5.26-18.37,4.55c-1.2-0.55-2.77,0.36-3.83,0.72c-1.34,12.38-3.65,35.39-3.65,47.2
						c0,12.82-3.73,25.34-5.44,30.41c-0.51,1.52-0.85,2.38-0.85,2.38s5.59,3.72,9.05,1.66c0.16-0.09,0.32-0.18,0.46-0.3
						c3.4-2.72,6.12-30.24,6.8-37.21c0.68-6.97,9-35.51,9-35.51s13.25,23.11,16.14,27.86c2.49,4.1,14.92,30.1,18.34,37.26
						c0.55,1.16,0.88,1.84,0.88,1.84s5.61-0.45,8.01-1.05c0.65-0.16,1.07-0.34,1.07-0.52C355.03,224.01,338.8,185.29,334.04,177.14z
						"/>
					<path class="st17" d="M321.4,134.03c-0.24-2.19-1.54-5.04-1.95-8.86c-0.23-2.12-1.77-6.86-2.28-11.46
						c-0.15-1.37-0.15-2.75-0.13-4c-0.41,0.41-0.88,0.76-1.42,0.99c-3.17,1.38-1.87,1.87-3.17,3.49s-2.19,0.65-4.06-0.08
						c-1.87-0.73-3.68,2.62-4.96,0.98c-2.6-3.33-4.88-0.41-7.07-3.17c-1.03-1.3-1.37-3.68-2.21-6.13c-0.02-0.07-0.04-0.14-0.07-0.21
						c-0.13-0.36-0.2-0.73-0.23-1.1c-0.66,0.35-1.34,0.74-2.01,1.17c-3.5,2.23-6.87,5.51-7.6,10.09c0,0,0.18,0.68,0.5,1.65
						c0.58,1.76,1.61,4.5,2.87,6.13c0.57,0.73,1.18,1.25,1.83,1.32l0.98,0.16c0,0,3.38,25.29,3.74,25.79
						c0.18,0.25,0.56,0.2,1.04,0.04c1.06-0.36,2.63-1.27,3.83-0.72c1.55,0.71,13.82-1.87,18.37-4.55c2.86-1.68,5.14-3.11,6.38-4.3
						c0.73-0.71,1.11-1.33,1.02-1.87C324.81,139.39,321.64,136.22,321.4,134.03z"/>
				</g>
				<path class="st17" d="M275.88,113.99c-0.33,0.1-1.23,0.26-2.09,0.31l13.77,30.39l3.48-1.21l-10.12-22.23
					c-1.11-1.66-1.86-3.29-1.87-3.38C279.04,117.71,276.54,113.79,275.88,113.99z"/>
				<path class="st17" d="M253.25,60.71l-3.47-3.72L250.1,62l11.69,25.79c1.04,0.01,3.21,0.6,4.14,0.65L253.25,60.71z"/>
				<path class="st17" d="M268.23,93.5c-0.6-0.2-1.2-0.5-1.65-0.99c-0.83-0.9-2.83-2.23-4.14-3.25l8.95,19.76
					c0.66-0.19,2.6-0.24,3.71-0.47L268.23,93.5z"/>
				<path class="st17" d="M294.9,99.9c-1.76,0.21-3.46,0.36-3.93,0.24c-1.06-0.27-5.36-2.92-8.54-3.92
					c-3.18-1.01-11.4-5.51-11.4-5.51s-4.93-7.1-5.3-4.35c0,0,1.22,1.86,0.53,2.07c-0.07,0.02-0.2,0.03-0.34,0.02
					c-0.93-0.05-3.1-0.63-4.14-0.65l0.66,1.47c1.31,1.01,3.31,2.35,4.14,3.25c0.45,0.49,1.05,0.8,1.65,0.99
					c1.15,0.38,2.27,0.33,2.27,0.33s10.92,10.02,13.26,10.87c1.07,0.39,4.59,0.71,8.09,0.95c0.67-0.43,1.35-0.82,2.01-1.17
					C293.68,102.32,294.96,100.26,294.9,99.9z"/>
				<path class="st17" d="M284.76,117.39c-0.52,0.36-0.95,0.55-1.13,0.4c-0.58-0.46-2.99-2.7-2.99-2.7
					c-0.66-0.82-2.37-3.29-2.19-4.72c0.18-1.44-0.78-2.43-1.2-3.06c-0.26-0.4-1.37-0.2-1.87,0.03c-0.3,0.13-0.15,0.3-0.15,0.3
					c1.1,0.5,0.74,0.76-0.11,0.93c-1.11,0.22-3.06,0.28-3.71,0.47c-0.07,0.02-0.13,0.04-0.17,0.07c-0.63,0.42,0.43,4.16,0.7,4.85
					c0.14,0.35,0.98,0.41,1.86,0.36c0.86-0.05,1.76-0.21,2.09-0.31c0.66-0.2,3.16,3.72,3.17,3.88c0,0.08,0.76,1.71,1.87,3.38
					c1.09,1.64,2.52,3.31,3.93,3.58c0.78,0.15,1.77-0.42,2.79-1.31C286.37,121.89,285.34,119.15,284.76,117.39z"/>
				<path class="st17" d="M290.43,125.01c0,0,4.65-6.62,4.36-9.25"/>
			</g>
		</g>
		<polyline class="st17" points="96.63,89.12 96.63,191.11 290.7,191.11 		"/>
		<g>
			<g>
				<path class="st1" d="M216.33,146.19c-0.02,0.68-0.07,1.59-0.21,2.78c0.05-1.36,0.08-2.31,0.09-2.71
					C216.25,146.24,216.3,146.21,216.33,146.19z"/>
				<path class="st1" d="M216.22,146.04c0,0,0,0.08-0.01,0.22c0,0,0,0,0,0C216.22,146.19,216.22,146.11,216.22,146.04z"/>
				<path class="st1" d="M193.3,234.14c2.59-0.32,7.05-4.21,7.05-4.21l11.01,0.32c0,0,3.24,4.21,1.29,5.83
					c-1.94,1.62-24.21,1.62-24.21,0.32C188.45,235.11,190.71,234.46,193.3,234.14z"/>
				<path class="st1" d="M217.51,217.83c0,0,3.24,4.86,2.91,6.15c-0.24,0.94-6.48,1.37-9.86,1.53c-0.22-2.11-0.48-4.52-0.76-7.07
					L217.51,217.83z"/>
				<path class="st1" d="M189.34,180.08c-0.11,5.62,5.03,17.35,7.45,27.19c3.06,12.44,3.56,22.66,3.56,22.66l10.54,0.31
					c0.21,0.01,0.36-0.19,0.3-0.39c-0.14-0.51-0.35-1.68-0.63-4.34c-0.22-2.11-0.48-4.52-0.76-7.07l7.7-0.62
					c-0.87-8.32-1.3-19.95-2.98-28.15c-0.51-2.48,1.34-34.16,1.59-40.71c0.05-1.36,0.08-2.31,0.09-2.71c0,0,0,0,0,0
					c0-0.07,0.01-0.16,0.01-0.22c-2.13,1.31-9.23,5.2-15.87,3.28c0,0.03-0.01,0.05-0.01,0.07c0,0-0.54,1.09-1.9,1.63
					c-1.36,0.54-2.93-0.22-4.18-0.76c-0.26-0.11-0.45-0.25-0.61-0.4C193.62,159.77,189.49,172.17,189.34,180.08z"/>
			</g>
			<g>
				<path class="st1" d="M210.93,117.52c1.03-4.21-2.36-8.01-2.36-8.01s-1.13-3.39-2.77-6.78c-1.64-3.39-5.24-5.24-8.94-5.14
					c-3.7,0.1-6.37,3.18-6.16,7.4c0.21,4.21,0.51,2.77-2.88,8.22c-1.15,1.84-1.87,4.05-2.33,6.17l-0.14,0.1c0,0-4.83,3.8-3.49,0.1
					c1.34-3.7,3.59-7.09,2.47-17.26c-1.13-10.17,0.62-23.52,11.61-24.75c10.99-1.23,7.91,16.02,7.91,16.02s6.78,10.17,7.19,13.87
					c0.41,3.7,3.7,7.81,2.16,9.96c-1.33,1.86-2.19,3.18-2.41,3.51C210.69,119.58,210.72,118.39,210.93,117.52z"/>
				<path class="st1" d="M190.4,147.3c-0.53,0.03-0.74,0.11-0.74,0.11s-0.28-0.49-0.71-1.38l1.32,0.53
					C190.3,146.81,190.34,147.06,190.4,147.3z"/>
				<g>
					<path class="st1" d="M185.49,119.37c0.46-2.12,1.18-4.32,2.33-6.17c3.39-5.44,3.08-4.01,2.88-8.22
						c-0.21-4.21,2.47-7.29,6.16-7.4c3.7-0.1,7.29,1.75,8.94,5.14c1.64,3.39,2.77,6.78,2.77,6.78s3.39,3.8,2.36,8.01
						c-0.21,0.87-0.24,2.06-0.15,3.41c0.34,5.18,2.41,12.62,2.41,12.62s3.59,7.91,3.39,12.02c0,0-0.23,0.16-0.64,0.41
						c-2.13,1.31-9.23,5.2-15.87,3.28c0.62-3.17-0.23-2.16-0.23-2.16s-0.76,1.3-1.79,1.52c-0.02,0-0.03,0-0.05,0.01
						c-0.1-0.03-0.2-0.06-0.29-0.09c-0.14-0.36,0.88-1.69,1.49-3.13c0.11-0.26,0.2-0.54,0.27-0.82c0.34-1.29,0.38-2.75,0.38-3.4
						c0-0.17-0.14-0.3-0.31-0.31c-1.39-0.1-3.5-2.96-3.5-2.96s-0.38,0.15-0.77,0.55c-0.08,0.09-0.17,0.18-0.25,0.3
						c-0.91,1.3-2.51,2.76-3.1,3.32c-0.32,0.3-0.41,0.71-0.72,1.05l-0.01,0l-3.94-1.29c-0.49-1.42-0.98-3.07-1.4-4.92
						c-0.02-0.09-0.04-0.18-0.06-0.27c-0.06-0.29-0.12-0.58-0.18-0.87c-0.22-1.11-0.41-2.27-0.56-3.5c-0.19-1.58-0.31-3.25-0.33-5
						C184.74,127.28,184.6,123.5,185.49,119.37z"/>
					<path class="st1" d="M195.03,138.76c0.08-0.11,0.16-0.21,0.25-0.3c0.38-0.4,0.77-0.55,0.77-0.55s2.11,2.86,3.5,2.96
						c0.17,0.01,0.31,0.14,0.31,0.31c0,0.65-0.04,2.12-0.38,3.4c-0.08,0.29-0.17,0.56-0.27,0.82c-0.61,1.44-1.63,2.76-1.49,3.13
						c0.1,0.03,0.2,0.06,0.29,0.09c0.02,0,0.03,0,0.05-0.01c1.03-0.22,1.79-1.52,1.79-1.52s0.85-1.01,0.23,2.16
						c-0.01,0.03-0.01,0.05-0.01,0.07c0,0-0.54,1.09-1.9,1.63c-1.36,0.54-2.93-0.22-4.18-0.76c-0.26-0.11-0.45-0.25-0.61-0.4
						c-0.62-0.57-0.73-1.29-1.94-1.34c-0.56-0.02-0.86-0.53-1.02-1.16c-0.06-0.24-0.1-0.49-0.12-0.74c-0.09-0.91,0-1.79,0-1.79
						s0.33-0.97,0.93-1.63c0.31-0.34,0.39-0.75,0.72-1.05C192.52,141.52,194.12,140.06,195.03,138.76z"/>
				</g>
				<g>
					<path class="st1" d="M165.4,134.66l6.09,2c-0.46,0.62-0.31,1.36,0.88,1c0.07-0.02,0.14-0.04,0.22-0.07
						c2.35-0.88,5.62,1.27,5.62,1.27l1.36,0.44l7.7,2.53l3.94,1.29l0.01,0c-0.6,0.66-0.93,1.63-0.93,1.63s-0.09,0.89,0,1.79
						l-1.32-0.53l-12.47-5.01c0,0-3.22-2.09-4.2-2.4c-0.98-0.31-1.09,0.28-1.09,0.28l-6.89-2.77l-1.09-1.41L165.4,134.66z"/>
					<path class="st1" d="M171.49,136.65c0.33-0.45,0.97-0.83,1.76-0.7c1.13-0.27,2.75-0.38,4.05-0.54
						c1.76-0.22,5.46-1.97,7.77-3.14c0.15,1.22,0.34,2.39,0.56,3.5c0.06,0.3,0.12,0.59,0.18,0.87c0.02,0.09,0.04,0.18,0.06,0.27
						l-6.31,2.39l-1.36-0.44c0,0-3.27-2.15-5.62-1.27c-0.08,0.03-0.15,0.05-0.22,0.07C171.18,138.01,171.03,137.28,171.49,136.65z"
						/>
					<path class="st1" d="M172.29,138.61c0.98,0.31,4.2,2.4,4.2,2.4c-0.91,0.4-1.87,0.45-2.81,0.14c-0.05-0.02-0.1-0.03-0.15-0.04
						c-0.63-0.23-1.25-0.63-1.84-1.2c-0.33-0.32-0.39-0.73-0.49-1.02C171.2,138.89,171.31,138.3,172.29,138.61z"/>
				</g>
			</g>
			<g>
				<path class="st8" d="M217.89,146.19c-0.02,0.68-0.07,1.59-0.21,2.78c0.05-1.36,0.08-2.31,0.09-2.71
					C217.81,146.24,217.85,146.21,217.89,146.19z"/>
				<path class="st8" d="M217.78,146.04c0,0,0,0.08-0.01,0.22c0,0,0,0,0,0C217.77,146.19,217.78,146.11,217.78,146.04z"/>
				<path class="st9" d="M194.86,234.14c2.59-0.32,7.05-4.21,7.05-4.21l11.01,0.32c0,0,3.24,4.21,1.29,5.83
					c-1.94,1.62-24.21,1.62-24.21,0.32C190,235.11,192.27,234.46,194.86,234.14z"/>
				<path class="st9" d="M219.07,217.83c0,0,3.24,4.86,2.91,6.15c-0.24,0.94-6.48,1.37-9.86,1.53c-0.22-2.11-0.48-4.52-0.76-7.07
					L219.07,217.83z"/>
				<path class="st8" d="M190.9,180.08c-0.11,5.62,5.03,17.35,7.45,27.19c3.06,12.44,3.56,22.66,3.56,22.66l10.54,0.31
					c0.21,0.01,0.36-0.19,0.3-0.39c-0.14-0.51-0.35-1.68-0.63-4.34c-0.22-2.11-0.48-4.52-0.76-7.07l7.7-0.62
					c-0.87-8.32-1.3-19.95-2.98-28.15c-0.51-2.48,1.34-34.16,1.59-40.71c0.05-1.36,0.08-2.31,0.09-2.71c0,0,0,0,0,0
					c0-0.07,0.01-0.16,0.01-0.22c-2.13,1.31-9.23,5.2-15.87,3.28c0,0.03-0.01,0.05-0.01,0.07c0,0-0.54,1.09-1.9,1.63
					c-1.36,0.54-2.93-0.22-4.18-0.76c-0.26-0.11-0.45-0.25-0.61-0.4C195.18,159.77,191.05,172.17,190.9,180.08z"/>
			</g>
			<path class="st8" d="M211.36,218.45c0,0-4.95-26.52-4.8-28.01c0.15-1.48,3.58-18.7,4.36-20"/>
			<g>
				<path class="st1" d="M211.32,117.74c1.03-4.21-2.36-8.01-2.36-8.01s-1.13-3.39-2.77-6.78c-1.64-3.39-5.24-5.24-8.94-5.14
					c-3.7,0.1-6.37,3.18-6.16,7.4c0.21,4.21,0.51,2.77-2.88,8.22c-1.15,1.84-1.87,4.05-2.33,6.17l-0.14,0.1c0,0-4.83,3.8-3.49,0.1
					c1.34-3.7,3.59-7.09,2.47-17.26c-1.13-10.17,0.62-23.52,11.61-24.75c10.99-1.23,7.91,16.02,7.91,16.02s6.78,10.17,7.19,13.87
					c0.41,3.7,3.7,7.81,2.16,9.96c-1.33,1.86-2.19,3.18-2.41,3.51C211.08,119.8,211.1,118.61,211.32,117.74z"/>
				<path class="st1" d="M190.79,147.52c-0.53,0.03-0.74,0.11-0.74,0.11s-0.28-0.49-0.71-1.38l1.32,0.53
					C190.69,147.03,190.73,147.28,190.79,147.52z"/>
				<g>
					<path class="st1" d="M185.88,119.59c0.46-2.12,1.18-4.32,2.33-6.17c3.39-5.44,3.08-4.01,2.88-8.22
						c-0.21-4.21,2.47-7.29,6.16-7.4c3.7-0.1,7.29,1.75,8.94,5.14c1.64,3.39,2.77,6.78,2.77,6.78s3.39,3.8,2.36,8.01
						c-0.21,0.87-0.24,2.06-0.15,3.41c0.34,5.18,2.41,12.62,2.41,12.62s3.59,7.91,3.39,12.02c0,0-0.23,0.16-0.64,0.41
						c-2.13,1.31-9.23,5.2-15.87,3.28c0.62-3.17-0.23-2.16-0.23-2.16s-0.76,1.3-1.79,1.52c-0.02,0-0.03,0-0.05,0.01
						c-0.1-0.03-0.2-0.06-0.29-0.09c-0.14-0.36,0.88-1.69,1.49-3.13c0.11-0.26,0.2-0.54,0.27-0.82c0.34-1.29,0.38-2.75,0.38-3.4
						c0-0.17-0.14-0.3-0.31-0.31c-1.39-0.1-3.5-2.96-3.5-2.96s-0.38,0.15-0.77,0.55c-0.08,0.09-0.17,0.18-0.25,0.3
						c-0.91,1.3-2.51,2.76-3.1,3.32c-0.32,0.3-0.41,0.71-0.72,1.05l-0.01,0l-3.94-1.29c-0.49-1.42-0.98-3.07-1.4-4.92
						c-0.02-0.09-0.04-0.18-0.06-0.27c-0.06-0.29-0.12-0.58-0.18-0.87c-0.22-1.11-0.41-2.27-0.56-3.5c-0.19-1.58-0.31-3.25-0.33-5
						C185.12,127.5,184.99,123.72,185.88,119.59z"/>
					<path class="st1" d="M195.41,138.99c0.08-0.11,0.16-0.21,0.25-0.3c0.38-0.4,0.77-0.55,0.77-0.55s2.11,2.86,3.5,2.96
						c0.17,0.01,0.31,0.14,0.31,0.31c0,0.65-0.04,2.12-0.38,3.4c-0.08,0.29-0.17,0.56-0.27,0.82c-0.61,1.44-1.63,2.76-1.49,3.13
						c0.1,0.03,0.2,0.06,0.29,0.09c0.02,0,0.03,0,0.05-0.01c1.03-0.22,1.79-1.52,1.79-1.52s0.85-1.01,0.23,2.16
						c-0.01,0.03-0.01,0.05-0.01,0.07c0,0-0.54,1.09-1.9,1.63c-1.36,0.54-2.93-0.22-4.18-0.76c-0.26-0.11-0.45-0.25-0.61-0.4
						c-0.62-0.57-0.73-1.29-1.94-1.34c-0.56-0.02-0.86-0.53-1.02-1.16c-0.06-0.24-0.1-0.49-0.12-0.74c-0.09-0.91,0-1.79,0-1.79
						s0.33-0.97,0.93-1.63c0.31-0.34,0.39-0.75,0.72-1.05C192.91,141.75,194.5,140.28,195.41,138.99z"/>
				</g>
				<g>
					<path class="st1" d="M165.79,134.88l6.09,2c-0.46,0.62-0.31,1.36,0.88,1c0.07-0.02,0.14-0.04,0.22-0.07
						c2.35-0.88,5.62,1.27,5.62,1.27l1.36,0.45l7.7,2.53l3.94,1.29l0.01,0c-0.6,0.66-0.93,1.63-0.93,1.63s-0.09,0.89,0,1.79
						l-1.32-0.53l-12.47-5.01c0,0-3.22-2.09-4.2-2.4c-0.98-0.31-1.09,0.28-1.09,0.28l-6.89-2.77l-1.09-1.41L165.79,134.88z"/>
					<path class="st1" d="M171.87,136.88c0.33-0.45,0.97-0.83,1.76-0.7c1.13-0.27,2.75-0.38,4.05-0.54
						c1.76-0.22,5.46-1.97,7.77-3.14c0.15,1.22,0.34,2.39,0.56,3.5c0.06,0.3,0.12,0.59,0.18,0.87c0.02,0.09,0.04,0.18,0.06,0.27
						l-6.31,2.39l-1.36-0.45c0,0-3.27-2.15-5.62-1.27c-0.08,0.03-0.15,0.05-0.22,0.07C171.56,138.23,171.41,137.5,171.87,136.88z"/>
					<path class="st1" d="M172.68,138.83c0.98,0.31,4.2,2.4,4.2,2.4c-0.91,0.4-1.87,0.45-2.81,0.14c-0.05-0.02-0.1-0.03-0.15-0.04
						c-0.63-0.23-1.25-0.63-1.84-1.2c-0.33-0.32-0.39-0.73-0.49-1.02C171.59,139.11,171.7,138.52,172.68,138.83z"/>
				</g>
			</g>
			<g>
				<path class="st2" d="M188.82,141.84l-7.7-2.53l6.31-2.39C187.85,138.77,188.34,140.42,188.82,141.84z"/>
				<path class="st14" d="M212.49,117.52c1.03-4.21-2.36-8.01-2.36-8.01s-1.13-3.39-2.77-6.78c-1.64-3.39-5.24-5.24-8.94-5.14
					c-3.7,0.1-6.37,3.18-6.16,7.4c0.21,4.21,0.51,2.77-2.88,8.22c-1.15,1.84-1.87,4.05-2.33,6.17l-0.14,0.1c0,0-4.83,3.8-3.49,0.1
					c1.34-3.7,3.59-7.09,2.47-17.26c-1.13-10.17,0.62-23.52,11.61-24.75c10.99-1.23,7.91,16.02,7.91,16.02s6.78,10.17,7.19,13.87
					c0.41,3.7,3.7,7.81,2.16,9.96c-1.33,1.86-2.19,3.18-2.41,3.51C212.25,119.58,212.28,118.39,212.49,117.52z"/>
				<path class="st9" d="M191.96,147.3c-0.53,0.03-0.74,0.11-0.74,0.11s-0.28-0.49-0.71-1.38l1.32,0.53
					C191.86,146.81,191.9,147.06,191.96,147.3z"/>
				<g>
					<path class="st9" d="M187.05,119.37c0.46-2.12,1.18-4.32,2.33-6.17c3.39-5.44,3.08-4.01,2.88-8.22
						c-0.21-4.21,2.47-7.29,6.16-7.4c3.7-0.1,7.29,1.75,8.94,5.14c1.64,3.39,2.77,6.78,2.77,6.78s3.39,3.8,2.36,8.01
						c-0.21,0.87-0.24,2.06-0.15,3.41c0.34,5.18,2.41,12.62,2.41,12.62s3.59,7.91,3.39,12.02c0,0-0.23,0.16-0.64,0.41
						c-2.13,1.31-9.23,5.2-15.87,3.28c0.62-3.17-0.23-2.16-0.23-2.16s-0.76,1.3-1.79,1.52c-0.02,0-0.03,0-0.05,0.01
						c-0.1-0.03-0.2-0.06-0.29-0.09c-0.14-0.36,0.88-1.69,1.49-3.13c0.11-0.26,0.2-0.54,0.27-0.82c0.34-1.29,0.38-2.75,0.38-3.4
						c0-0.17-0.14-0.3-0.31-0.31c-1.39-0.1-3.5-2.96-3.5-2.96s-0.38,0.15-0.77,0.55c-0.08,0.09-0.17,0.18-0.25,0.3
						c-0.91,1.3-2.51,2.76-3.1,3.32c-0.32,0.3-0.41,0.71-0.72,1.05l-0.01,0l-3.94-1.29c-0.49-1.42-0.98-3.07-1.4-4.92
						c-0.02-0.09-0.04-0.18-0.06-0.27c-0.06-0.29-0.12-0.58-0.18-0.87c-0.22-1.11-0.41-2.27-0.56-3.5c-0.19-1.58-0.31-3.25-0.33-5
						C186.3,127.28,186.16,123.5,187.05,119.37z"/>
					<path class="st23" d="M196.59,138.76c0.08-0.11,0.16-0.21,0.25-0.3c0.38-0.4,0.77-0.55,0.77-0.55s2.11,2.86,3.5,2.96
						c0.17,0.01,0.31,0.14,0.31,0.31c0,0.65-0.04,2.12-0.38,3.4c-0.08,0.29-0.17,0.56-0.27,0.82c-0.61,1.44-1.63,2.76-1.49,3.13
						c0.1,0.03,0.2,0.06,0.29,0.09c0.02,0,0.03,0,0.05-0.01c1.03-0.22,1.79-1.52,1.79-1.52s0.85-1.01,0.23,2.16
						c-0.01,0.03-0.01,0.05-0.01,0.07c0,0-0.54,1.09-1.9,1.63c-1.36,0.54-2.93-0.22-4.18-0.76c-0.26-0.11-0.45-0.25-0.61-0.4
						c-0.62-0.57-0.73-1.29-1.94-1.34c-0.56-0.02-0.86-0.53-1.02-1.16c-0.06-0.24-0.1-0.49-0.12-0.74c-0.09-0.91,0-1.79,0-1.79
						s0.33-0.97,0.93-1.63c0.31-0.34,0.39-0.75,0.72-1.05C194.08,141.52,195.68,140.06,196.59,138.76z"/>
				</g>
				<g>
					<path class="st19" d="M166.96,134.66l6.09,2c-0.46,0.62-0.31,1.36,0.88,1c0.07-0.02,0.14-0.04,0.22-0.07
						c2.35-0.88,5.62,1.27,5.62,1.27l1.36,0.44l7.7,2.53l3.94,1.29l0.01,0c-0.6,0.66-0.93,1.63-0.93,1.63s-0.09,0.89,0,1.79
						l-1.32-0.53l-12.47-5.01c0,0-3.22-2.09-4.2-2.4c-0.98-0.31-1.09,0.28-1.09,0.28l-6.89-2.77l-1.09-1.41L166.96,134.66z"/>
					<path class="st23" d="M173.05,136.65c0.33-0.45,0.97-0.83,1.76-0.7c1.13-0.27,2.75-0.38,4.05-0.54
						c1.76-0.22,5.46-1.97,7.77-3.14c0.15,1.22,0.34,2.39,0.56,3.5c0.06,0.3,0.12,0.59,0.18,0.87c0.02,0.09,0.04,0.18,0.06,0.27
						l-6.31,2.39l-1.36-0.44c0,0-3.27-2.15-5.62-1.27c-0.08,0.03-0.15,0.05-0.22,0.07C172.74,138.01,172.59,137.28,173.05,136.65z"
						/>
					<path class="st23" d="M173.85,138.61c0.98,0.31,4.2,2.4,4.2,2.4c-0.91,0.4-1.87,0.45-2.81,0.14c-0.05-0.02-0.1-0.03-0.15-0.04
						c-0.63-0.23-1.25-0.63-1.84-1.2c-0.33-0.32-0.39-0.73-0.49-1.02C172.76,138.89,172.87,138.3,173.85,138.61z"/>
				</g>
			</g>
			<g>
				<path class="st2" d="M187.54,141.9l-7.7-2.53l6.31-2.39C186.57,138.83,187.06,140.49,187.54,141.9z"/>
				<path class="st17" d="M211.21,117.59c1.03-4.21-2.36-8.01-2.36-8.01s-1.13-3.39-2.77-6.78c-1.64-3.39-5.24-5.24-8.94-5.14
					c-3.7,0.1-6.37,3.18-6.16,7.4c0.21,4.21,0.51,2.77-2.88,8.22c-1.15,1.84-1.87,4.05-2.33,6.17l-0.14,0.1c0,0-4.83,3.8-3.49,0.1
					c1.34-3.7,3.59-7.09,2.47-17.26c-1.13-10.17,0.62-23.52,11.61-24.75c10.99-1.23,7.91,16.02,7.91,16.02s6.78,10.17,7.19,13.87
					c0.41,3.7,3.7,7.81,2.16,9.96c-1.33,1.86-2.19,3.18-2.41,3.51C210.97,119.65,211,118.46,211.21,117.59z"/>
				<path class="st17" d="M190.68,147.36c-0.53,0.03-0.74,0.11-0.74,0.11s-0.28-0.49-0.71-1.38l1.32,0.53
					C190.58,146.88,190.62,147.13,190.68,147.36z"/>
				<g>
					<path class="st17" d="M185.77,119.44c0.46-2.12,1.18-4.32,2.33-6.17c3.39-5.44,3.08-4.01,2.88-8.22
						c-0.21-4.21,2.47-7.29,6.16-7.4c3.7-0.1,7.29,1.75,8.94,5.14c1.64,3.39,2.77,6.78,2.77,6.78s3.39,3.8,2.36,8.01
						c-0.21,0.87-0.24,2.06-0.15,3.41c0.34,5.18,2.41,12.62,2.41,12.62s3.59,7.91,3.39,12.02c0,0-0.23,0.16-0.64,0.41
						c-2.13,1.31-9.23,5.2-15.87,3.28c0.62-3.17-0.23-2.16-0.23-2.16s-0.76,1.3-1.79,1.52c-0.02,0-0.03,0-0.05,0.01
						c-0.1-0.03-0.2-0.06-0.29-0.09c-0.14-0.36,0.88-1.69,1.49-3.13c0.11-0.26,0.2-0.54,0.27-0.82c0.34-1.29,0.38-2.75,0.38-3.4
						c0-0.17-0.14-0.3-0.31-0.31c-1.39-0.1-3.5-2.96-3.5-2.96s-0.38,0.15-0.77,0.55c-0.08,0.09-0.17,0.18-0.25,0.3
						c-0.91,1.3-2.51,2.76-3.1,3.32c-0.32,0.3-0.41,0.71-0.72,1.05l-0.01,0l-3.94-1.29c-0.49-1.42-0.98-3.07-1.4-4.92
						c-0.02-0.09-0.04-0.18-0.06-0.27c-0.06-0.29-0.12-0.58-0.18-0.87c-0.22-1.11-0.41-2.27-0.56-3.5c-0.19-1.58-0.31-3.25-0.33-5
						C185.02,127.34,184.88,123.57,185.77,119.44z"/>
					<path class="st17" d="M195.31,138.83c0.08-0.11,0.16-0.21,0.25-0.3c0.38-0.4,0.77-0.55,0.77-0.55s2.11,2.86,3.5,2.96
						c0.17,0.01,0.31,0.14,0.31,0.31c0,0.65-0.04,2.12-0.38,3.4c-0.08,0.29-0.17,0.56-0.27,0.82c-0.61,1.44-1.63,2.76-1.49,3.13
						c0.1,0.03,0.2,0.06,0.29,0.09c0.02,0,0.03,0,0.05-0.01c1.03-0.22,1.79-1.52,1.79-1.52s0.85-1.01,0.23,2.16
						c-0.01,0.03-0.01,0.05-0.01,0.07c0,0-0.54,1.09-1.9,1.63c-1.36,0.54-2.93-0.22-4.18-0.76c-0.26-0.11-0.45-0.25-0.61-0.4
						c-0.62-0.57-0.73-1.29-1.94-1.34c-0.56-0.02-0.86-0.53-1.02-1.16c-0.06-0.24-0.1-0.49-0.12-0.74c-0.09-0.91,0-1.79,0-1.79
						s0.33-0.97,0.93-1.63c0.31-0.34,0.39-0.75,0.72-1.05C192.8,141.59,194.4,140.13,195.31,138.83z"/>
				</g>
				<g>
					<path class="st17" d="M165.68,134.72l6.09,2c-0.46,0.62-0.31,1.36,0.88,1c0.07-0.02,0.14-0.04,0.22-0.07
						c2.35-0.88,5.62,1.27,5.62,1.27l1.36,0.44l7.7,2.53l3.94,1.29l0.01,0c-0.6,0.66-0.93,1.63-0.93,1.63s-0.09,0.89,0,1.79
						l-1.32-0.53l-12.47-5.01c0,0-3.22-2.09-4.2-2.4c-0.98-0.31-1.09,0.28-1.09,0.28l-6.89-2.77l-1.09-1.41L165.68,134.72z"/>
					<path class="st17" d="M171.77,136.72c0.33-0.45,0.97-0.83,1.76-0.7c1.13-0.27,2.75-0.38,4.05-0.54
						c1.76-0.22,5.46-1.97,7.77-3.14c0.15,1.22,0.34,2.39,0.56,3.5c0.06,0.3,0.12,0.59,0.18,0.87c0.02,0.09,0.04,0.18,0.06,0.27
						l-6.31,2.39l-1.36-0.44c0,0-3.27-2.15-5.62-1.27c-0.08,0.03-0.15,0.05-0.22,0.07C171.46,138.08,171.31,137.35,171.77,136.72z"
						/>
					<path class="st17" d="M172.57,138.68c0.98,0.31,4.2,2.4,4.2,2.4c-0.91,0.4-1.87,0.45-2.81,0.14c-0.05-0.02-0.1-0.03-0.15-0.04
						c-0.63-0.23-1.25-0.63-1.84-1.2c-0.33-0.32-0.39-0.73-0.49-1.02C171.48,138.96,171.59,138.37,172.57,138.68z"/>
				</g>
			</g>
			<path class="st17" d="M200.13,141.26c0,0,10.81-21.16,10.93-22.77"/>
			<path class="st17" d="M200.29,100.12c0,0,8.23,8.89,8.56,9.46"/>
			<path class="st17" d="M191.88,105.46c0,0,2.32,3.17,4.21,5.01c1.89,1.84,5.3,3.77,4.22,8.76c-0.43,1.99-1.68,5.33-2.39,8.68
				c-1.07,5.06-1.6,10.08-1.6,10.08"/>
			<path class="st17" d="M202.41,84.39c0,0,0.16,8.21,1.71,9.27"/>
			<path class="st17" d="M185.77,119.44c0,0,4.75-21.89,4.61-24.44"/>
			<path class="st17" d="M197.14,97.66c0,0,3.04-7.13,2.26-8.86c0,0-1.89,8.96-4.65,9.47"/>
			<g>
				<path class="st17" d="M216.33,146.19c-0.02,0.68-0.07,1.59-0.21,2.78c0.05-1.36,0.08-2.31,0.09-2.71
					C216.25,146.24,216.3,146.21,216.33,146.19z"/>
				<path class="st17" d="M216.22,146.04c0,0,0,0.08-0.01,0.22c0,0,0,0,0,0C216.22,146.19,216.22,146.11,216.22,146.04z"/>
				<path class="st17" d="M193.3,234.14c2.59-0.32,7.05-4.21,7.05-4.21l11.01,0.32c0,0,3.24,4.21,1.29,5.83
					c-1.94,1.62-24.21,1.62-24.21,0.32C188.45,235.11,190.71,234.46,193.3,234.14z"/>
				<path class="st17" d="M217.51,217.83c0,0,3.24,4.86,2.91,6.15c-0.24,0.94-6.48,1.37-9.86,1.53c-0.22-2.11-0.48-4.52-0.76-7.07
					L217.51,217.83z"/>
				<path class="st17" d="M189.34,180.08c-0.11,5.62,5.03,17.35,7.45,27.19c3.06,12.44,3.56,22.66,3.56,22.66l10.54,0.31
					c0.21,0.01,0.36-0.19,0.3-0.39c-0.14-0.51-0.35-1.68-0.63-4.34c-0.22-2.11-0.48-4.52-0.76-7.07l7.7-0.62
					c-0.87-8.32-1.3-19.95-2.98-28.15c-0.51-2.48,1.34-34.16,1.59-40.71c0.05-1.36,0.08-2.31,0.09-2.71c0,0,0,0,0,0
					c0-0.07,0.01-0.16,0.01-0.22c-2.13,1.31-9.23,5.2-15.87,3.28c0,0.03-0.01,0.05-0.01,0.07c0,0-0.54,1.09-1.9,1.63
					c-1.36,0.54-2.93-0.22-4.18-0.76c-0.26-0.11-0.45-0.25-0.61-0.4C193.62,159.77,189.49,172.17,189.34,180.08z"/>
			</g>
			<path class="st17" d="M209.8,218.45c0,0-4.95-26.52-4.8-28.01c0.15-1.48,3.58-18.7,4.36-20"/>
		</g>
	</g>
</g>
</svg>
