<svg xmlns="http://www.w3.org/2000/svg" viewBox="0 0 357.16535 247.01233"><defs><style>.cls-1,.cls-13,.cls-5{fill:none;}.cls-1,.cls-14{stroke:#54575c;}.cls-1,.cls-13,.cls-14{stroke-miterlimit:10;stroke-width:0.5px;}.cls-2{fill:#f4f4f5;}.cls-14,.cls-3{fill:#54575c;}.cls-4{fill:#fff;}.cls-6{fill:#e29871;}.cls-7{fill:#e6a86c;}.cls-8{fill:#dd875a;}.cls-9{fill:#ddddde;}.cls-10{fill:#f5c65d;}.cls-11{fill:#9b461c;}.cls-12{fill:#efa771;}.cls-13{stroke:#f4f4f5;}</style></defs><g id="Layer_3" data-name="Layer 3"><path class="cls-1" d="M356.14862,232.50443C238.4038,227.17782,119.4038,221.17782,1.01673,216.18227"/><polygon class="cls-2" points="187.191 224.763 239.279 227.055 239.406 2.426 187.191 17.525 187.191 224.763"/><path class="cls-3" d="M121.14851,118.75328a4.12088,4.12088,0,0,0,3.50895,4.07287v-8.14576A4.12089,4.12089,0,0,0,121.14851,118.75328Z"/><polygon class="cls-4" points="127.33 6.333 127.33 115.183 127.33 122.323 127.33 227.894 187.191 224.763 187.191 17.593 127.33 6.333"/><polygon class="cls-2" points="124.657 7.641 124.657 114.68 124.657 122.826 124.657 226.722 127.33 227.894 127.33 122.323 127.33 115.183 127.33 6.333 124.657 7.641"/><polygon class="cls-1" points="187.29 224.515 239.279 227.055 239.241 5.551 187.025 20.65 187.29 224.515"/><polygon class="cls-1" points="127.165 9.458 127.165 118.308 127.165 125.448 127.165 231.019 187.025 227.888 187.025 20.718 127.165 9.458"/><polygon class="cls-1" points="124.492 10.765 124.492 117.805 124.492 125.951 124.492 229.847 127.165 231.019 127.165 125.448 127.165 118.308 127.165 9.458 124.492 10.765"/><path class="cls-4" d="M209.66471,113.45955a89.01376,89.01376,0,0,1,3.27794,10.37946,23.40475,23.40475,0,0,1,2.50531-2.56171c1.71267-1.37015,7.46694-1.93119,9.84068-2.10811.014-.04312.02371-.06786.02371-.06786a2.413,2.413,0,0,1-1.78669-.7C223.64759,118.81216,222.80633,119.42037,209.66471,113.45955Z"/><path class="cls-4" d="M175.91818,123.99283a10.206,10.206,0,0,1,.99206.48037q.0255-.578.07055-1.3272A9.32523,9.32523,0,0,1,175.91818,123.99283Z"/><path class="cls-4" d="M178.79563,126.52718l.008-.07048-.029-.00351Z"/><path class="cls-4" d="M193.39815,58.31926c-.145-3.33648-6.9631-6.09272-6.9631-6.09272a7.674,7.674,0,0,0-4.64208,7.54337c.14508,5.80259,3.91675,11.75023,3.91675,11.75023l-2.97447,2.32079h0a9.917,9.917,0,0,0,3.79743,4.03489,6.64586,6.64586,0,0,0,5.99509.02715l.76053-1.07744c.3539-2.18612.77742-4.51465,1.09733-6.39023.1254-.73513.23531-1.40271.31811-1.96151C195.284,64.557,193.5432,61.65575,193.39815,58.31926Z"/><path class="cls-4" d="M205.14838,96.76138c-.29014,2.61116,1.88583,10.58972,4.20685,15.95709.1042.241.20717.48945.30948.74108,13.14162,5.96082,13.98288,5.35261,13.86095,4.94178a9.19785,9.19785,0,0,1-1.83993-2.34635c-.94247-1.61569-1.758-4.72859-1.40666-6.4438-3.64878-2.06513-6.065-6.18681-7.73241-8.06267-1.63668-1.84127-3.128-8.94367-3.86579-12.97451a8.66114,8.66114,0,0,1-3.53249.78909A58.54153,58.54153,0,0,1,205.14838,96.76138Z"/><path class="cls-4" d="M174.68482,100.82319a4.62328,4.62328,0,0,1,3.38975.49888,22.24118,22.24118,0,0,0-3.38975-6.88171l-7.10815-3.48157s.496,2.183,1.01439,4.63747A7.58486,7.58486,0,0,1,174.68482,100.82319Z"/><path class="cls-4" d="M151.18436,132.88244c-.29014-.43518-5.3674-5.80255-5.3674-5.80255l-1.74079,6.9631.29014-11.315-2.25418-5.50623c-1.93662-2.67151-3.1141-4.11428-4.18383-4.27534-.18569-.028,1.659,2.459,1.4992,2.57555-.19363.14122-2.657-1.90245-2.88308-1.88361-.92259.07688-.80726.26909-.42285.92259-.28717.26324-.961.38441-.38441,1.11479.08215.10405,2.26725,2.33005,2.22958,2.46023-.20193.69787-3.17615-.44909-3.80567-.38441-.63771.06552,1.56338,1.63392,1.69141,1.69141,1.88361.8457,3.58165,6.33136,3.58165,6.33136-1.16051,3.91676.29014,18.13306,3.19143,18.85838,2.4583.61459,6.99834-7.41294,8.32772-9.87919C151.06064,133.73214,151.37783,133.17268,151.18436,132.88244Z"/><path class="cls-4" d="M169.75264,107.78629c-1.16055-.145-.43522-2.46611-.43522-2.46611a16.8269,16.8269,0,0,0-5.36737.14509c-2.176.58023-8.12361-2.176-8.12361-2.176a90.4357,90.4357,0,0,0-1.16055,9.42918c0,2.61119,4.06181,5.94767,4.06181,5.94767-.145,1.30556-2.75621,1.5957-2.75621,1.5957s.76087,6.28176,13.15624,3.40345c.91869-.21333,1.89489-.472,2.94593-.79229-3.04635-1.45065-3.04635-8.994-3.04635-8.994a7.71783,7.71783,0,0,0,3.62659-2.61119C173.95949,109.382,170.91315,107.93134,169.75264,107.78629Z"/><path class="cls-4" d="M209.66471,113.45955c-.10231-.25163-.20528-.50012-.30948-.74108-2.321-5.36737-4.497-13.34593-4.20685-15.95709a58.54153,58.54153,0,0,0,0-7.39829,8.66114,8.66114,0,0,0,3.53249-.78909,2.86438,2.86438,0,0,0,1.39969-3.853c-.29011-.87038-2.03089-7.97856-8.12362-9.13907-5.22231.43518-4.20685-5.07727-4.20685-5.07727l-.81359,1.1526c-1.618,3.803-1.50743,14.65943-1.50743,14.65943s-2.32106-1.01542-2.75625-2.90126c-.2147-.93039.1358-3.62679.61548-6.58992l-.76053,1.07744a6.64586,6.64586,0,0,1-5.99509-.02715,9.917,9.917,0,0,1-3.79741-4.0349c-3.12756,1.75152-10.21414,5.90308-11.67707,7.25348-1.88584,1.74078-3.48153,9.86439-3.48153,9.86439l7.10815,3.48157a22.24118,22.24118,0,0,1,3.38975,6.88171c3.5134,2.28967,1.71363,10.63549,1.22022,15.33132a17.20746,17.20746,0,0,0-.113,1.72262,6.39693,6.39693,0,0,1-2.201,4.77q-.0462.74822-.07055,1.3272a3.58826,3.58826,0,0,1,1.83638,1.88137c.00864.02938.01883.06655.028.09862l.029.00351c5.45691.65626,21.20153,2.28183,31.4454.61469.3484-.43426.72277-.8956,1.10961-1.36431.51881-.62862,1.05817-1.2677,1.584-1.86807A89.01376,89.01376,0,0,0,209.66471,113.45955Z"/><path class="cls-4" d="M199.84,136.01042s-.24867-.0158-1.59573-.19946c-.34176-.0466-.16588-.77526-.44879-.84773-.76465-.19585-1.20961-.18666-.748-.64827a6.478,6.478,0,0,1,3.24347-1.07823l-.25149.031s-.99733-.748-.34906-1.04719,4.38825.54851,4.38825.54851l-2.43441.30056c1.93339-.19533,4.07254-.26236,5.68015-.33226a10.44659,10.44659,0,0,1,2.38892.42463L208.453,130.2813l-.13569-.00554c-.22948.05739-6.90463,1.15061-12.597,1.71438-.87423.08658-1.78051-.2238-2.58062-.176-3.04683.18219-5.31571.52058-5.517.75545-.5984.69814,3.04184,1.24668,3.04184,1.24668s-6.18344,1.29651-5.43543,2.04451,3.69011.64828,3.69011.64828-.1496-.19946.5984.59841a4.93527,4.93527,0,0,0,3.24133,1.34637,30.71242,30.71242,0,0,0,3.85066-.87766,15.94623,15.94623,0,0,0,3.535-.34975.93582.93582,0,0,1-.50405-.16883C199.06023,136.47737,199.84,136.01042,199.84,136.01042Z"/><path class="cls-4" d="M228.939,134.91336a70.25335,70.25335,0,0,1-11.60518-.145,36.213,36.213,0,0,1-4.33824-.78413c-.425-.09994-.83841-.201-1.237-.30146-.74259-.18714-1.43055-.36729-2.04533-.5207a10.44659,10.44659,0,0,0-2.38892-.42463c-1.60761.0699-3.74676.13693-5.68015.33226l-1.35329.16708a6.478,6.478,0,0,0-3.24347,1.07823c-.46161.46161-.01665.45242.748.64827.28291.07247.107.80113.44879.84773,1.34706.18366,1.59573.19946,1.59573.19946s-.77973.46695-.19946,1.04722a.93582.93582,0,0,0,.50405.16883,23.83283,23.83283,0,0,0,4.71369-.42727s-5.02733,1.75895-3.72174,1.904,6.0428-.3083,7.20331-.16322c.9722.12151,1.74584,1.35815,3.76072,1.41665a5.97024,5.97024,0,0,0,1.18192-.09075c.04591-.00784.08772-.01139.13462-.02034,0,0,18.71333,4.93222,19.43865,4.497S230.8248,136.219,228.939,134.91336Z"/><path class="cls-4" d="M199.69036,132.22058c-.64827.29919.34906,1.04719.34906,1.04719l.25149-.031c.43284-.06429.88562-.11983,1.35329-.16708l2.43441-.30056S200.33864,131.92136,199.69036,132.22058Z"/><path class="cls-4" d="M201.6442,133.06965c-.46767.04725-.92045.10279-1.35329.16708Z"/><path class="cls-4" d="M234.78451,114.69192a29.58173,29.58173,0,0,0,.88472,3.84466c1.76924.68533,3.70446,1.20463,3.85946.27461C239.71479,117.69452,236.85789,115.86272,234.78451,114.69192Z"/><path class="cls-4" d="M236.57663,111.41814c1.27477-1.64859,2.50607-3.98462.92114-5.66277a1.55537,1.55537,0,0,0-1.55394.137,16.73934,16.73934,0,0,0-3.23319,3.05447c-.14505.29013,0-2.9013-1.16051-2.9013s-1.3056-1.74078-1.5957-2.176,2.03089-1.30556.2901-1.5957-1.88583-1.16051-1.88583-1.16051.43518,2.03089-1.16051,2.176a11.07409,11.07409,0,0,0-3.62662.87038c-1.01546.43519-.145,2.321-3.33648,1.3056a6.82961,6.82961,0,0,1,.14508,3.77166,2.6726,2.6726,0,0,0-.1011.37425c-.35133,1.71521.46419,4.82811,1.40666,6.4438a9.19785,9.19785,0,0,0,1.83993,2.34635,2.413,2.413,0,0,0,1.78669.7s-.00974.02474-.02371.06786a1.51829,1.51829,0,0,0,.749,1.963c1.2815.56958,8.70784.02082,10.0792-.82267.02577-.01587.05392-.03163.07533-.0477,0,0-.23859-.73289-.523-1.72526a29.58173,29.58173,0,0,1-.88472-3.84466c-.08827-.6864-.07915-1.21193.1021-1.39318A19.19949,19.19949,0,0,0,236.57663,111.41814Z"/><path class="cls-4" d="M232.85574,144.34255c.72532-.43522-2.03092-8.12361-3.91676-9.42921a70.25324,70.25324,0,0,1-11.60517-.145,36.21321,36.21321,0,0,1-4.33825-.78413c-.425-.09994-.8384-.20105-1.23694-.30146-.7426-.18714-1.43055-.36729-2.04534-.52071l-1.26031-2.88071-.13569-.00554c-.224.056-6.70769,1.049-12.30373,1.59707-1.22548.12-1.80792-.1233-2.87387-.05864a23.02373,23.02373,0,0,0-5.517.75544c-.59841.69814,3.04184,1.24668,3.04184,1.24668s-6.18344,1.29651-5.43544,2.04451,3.69011.64827,3.69011.64827-.14959-.19945.59841.59841a4.93526,4.93526,0,0,0,3.24133,1.34638,30.714,30.714,0,0,0,3.85065-.87766,15.94618,15.94618,0,0,0,3.535-.34975,23.83283,23.83283,0,0,0,4.71369-.42727s-5.02733,1.75895-3.72173,1.904,6.04279-.3083,7.2033-.16322c.9722.12151,1.74584,1.35815,3.76073,1.41665a5.97014,5.97014,0,0,0,1.18191-.09075c.04591-.00785.08772-.01139.13463-.02034C213.41709,139.84552,232.13042,144.77774,232.85574,144.34255Z"/><path class="cls-4" d="M150.65137,236.38145c0,2.01031,9.85056,1.20618,10.85573.201.67787-.67787-.62169-2.80974-1.62153-4.96555l-6.48114-.84535C152.39506,232.806,150.65137,234.99777,150.65137,236.38145Z"/><path class="cls-4" d="M177.85544,161.692l-2.41917-16.39833-.4613-3.12708,2.37367-.436,1.85053-.3399,2.88395-.52972s-2.50217-11.53731-3.28748-14.33382l-.021-.074c-.00919-.03207-.01938-.06924-.028-.09863a3.5883,3.5883,0,0,0-1.83639-1.88136,10.20371,10.20371,0,0,0-.99206-.48037,9.85928,9.85928,0,0,1-1.95868,1.05614l-.76218.15245a1.7456,1.7456,0,0,0-1.12366-2.32842c-1.051.32031-2.02723.579-2.94593.79229-12.39537,2.8783-13.15624-3.40345-13.15624-3.40345l-4.35194.29013c-4.35194.29014-5.80259,6.52792-5.80259,6.52792s5.07727,5.36737,5.3674,5.80255c.19347.29024-.12371.84969-.23108,1.871a6.43119,6.43119,0,0,0,.086,1.90067c.32854,1.7521-2.56639,17.52539-3.88076,25.03786l-1.29624,4.83331s1.60589.46781,4.11642,1.14623c6.00542,1.62281,17.19558,4.45222,24.03644,4.98352,2.67207.20755,4.68152.06508,5.45678-.638l0,0-1.63331-10.325Z"/><path class="cls-4" d="M186.11065,173.23333c-1.01639-.81308-4.315-11.54134-4.315-11.54134l-1.965-15.36436-.63141-4.93693-1.85053.3399-2.37367.436.4613,3.12708,2.41917,16.39833h-.01679l1.63331,10.325,0,0h0a3.51087,3.51087,0,0,0,.22936,2.01217c.01952.40057.03855.85083.057,1.35412a4.98143,4.98143,0,0,1-1.16883,1.34764c-.15886.17015-.06963.44355.05343.64114a5.02226,5.02226,0,0,0,1.20811,1.13482,10.70168,10.70168,0,0,0,2.19414,1.2312c2.03274.81311,3.03591-2.31259,3.03591-2.31259S187.127,174.04644,186.11065,173.23333Z"/><path class="cls-4" d="M196.56991,228.41705c-.57931,1.76821-1.7581,5.76126-.78734,6.316.62615.3578,2.66116,1.96791,4.65144,1.789a11.9944,11.9944,0,0,0,4.29457-1.3154c1.43121-.71558-2.68445-8.1664-2.68445-8.1664C202.04413,227.39013,198.70066,228.19553,196.56991,228.41705Z"/><path class="cls-4" d="M181.29344,232.30355c1.29679.71542,2.18,1.303,2.18,1.303s2.423,1.01467,3.0534,2.15171c1.45439-.31819,3.09356-.906,3.53091-1.56194.50515-.75774-1.304-3.38181-2.41387-4.86311a21.08243,21.08243,0,0,1-6.30254,1.60805A4.46212,4.46212,0,0,1,181.29344,232.30355Z"/><path class="cls-4" d="M186.52681,235.75828c-.63042-1.137-3.0534-2.15171-3.0534-2.15171s-.88318-.5876-2.18-1.303c-.03207.17585-.06139.28594-.06139.28594l-1.79619-.03207-9.58716-.17121c-1.03642,2.931,1.55732,2.98282,1.55732,2.98282s13.048,2.65036,14.30052,2.02414C186.71942,236.88672,186.83171,236.30827,186.52681,235.75828Z"/><path class="cls-4" d="M213.28246,139.86586a5.97014,5.97014,0,0,1-1.18191.09075c-2.01489-.0585-2.78853-1.29514-3.76073-1.41665-1.16051-.14508-5.89774.30831-7.2033.16322s3.72173-1.904,3.72173-1.904a23.83283,23.83283,0,0,1-4.71369.42727,15.94618,15.94618,0,0,1-3.535.34975,30.714,30.714,0,0,1-3.85065.87766,4.93526,4.93526,0,0,1-3.24133-1.34638c-.748-.79786-.59841-.59841-.59841-.59841s-2.94211.09973-3.69011-.64827,5.43544-2.04451,5.43544-2.04451-3.64025-.54854-3.04184-1.24668a23.02373,23.02373,0,0,1,5.517-.75544c1.066-.06466,1.64839.17868,2.87387.05864,5.596-.54809,12.0797-1.541,12.30373-1.59707l.13569.00554-.25823-.59025s.87553-1.15047,2.05428-2.61966c-10.24387,1.66714-25.98849.04157-31.4454-.61469l-.008.07048c.78531,2.79651,3.28748,14.33382,3.28748,14.33382l-2.88395.52972.63141,4.93693,1.965,15.36436s3.29866,10.72826,4.315,11.54134-1.02958,4.1922-1.02958,4.1922-1.00317,3.1257-3.03591,2.31259a10.70168,10.70168,0,0,1-2.19414-1.2312c.29382,11.95316.374,37.04571-.06711,46.74974a10.16709,10.16709,0,0,0,1.348,4.97347,2.28835,2.28835,0,0,1,.20937.71115,21.08243,21.08243,0,0,0,6.30254-1.60805c.382-.15108.66342-.26891.80375-.325.515-.206,1.43121-17.17455,2.86241-37.39042.97757-13.80833,1.375-29.92578,1.375-29.92578l3.1585-21.38578-.75829,21.38578s.16068,15.79255-.376,19.19167.8945,46.15662.17888,47.23c-.24915.37372.54369.42166,1.68187.30335,2.13075-.22152,5.47422-1.02692,5.47422-1.37677,0-.5367,2.3257-38.82166,3.2202-41.68406.54682-1.74984,3.03113-10.98475,4.83995-18.80064.282-2.33066.75544-4.86359.75544-4.86359l1.08807-6.73553,1.59053-9.84571Z"/><path class="cls-4" d="M181.34131,230.94128a2.28835,2.28835,0,0,0-.20937-.71115,10.16709,10.16709,0,0,1-1.348-4.97347c.44111-9.704.36093-34.79658.06711-46.74974a13.13549,13.13549,0,0,1-1.18335-.97289.60532.60532,0,0,1,.03881-.93072,3.28515,3.28515,0,0,0,1.05183-1.22c-.01844-.50329-.03747-.95355-.057-1.35412a3.51087,3.51087,0,0,1-.22936-2.01217h0c-.77526.7031-2.78471.84557-5.45678.638-6.84086-.5313-18.031-3.36071-24.03644-4.98352-.53409,8.803,1.77857,62.88522,1.77857,62.88522l1.64715.21484,6.48114.84535,1.22232.15944.92464-13.40722,2.32774-33.75244s4.002,19.36624,4.70976,25.91229c.40281,3.72542,1.60634,12.68558.71552,17.83277-.4876,2.8175.06315,4.02443.06315,4.02443l.77608.01387,8.81108.15734,1.79619.03207s.02932-.11009.06139-.28594A4.46212,4.46212,0,0,0,181.34131,230.94128Z"/><path class="cls-4" d="M238.02575,161.23725c.31973-8.20579,1.35787-35.943,1.35787-37.784,0-1.12242-1.65957-2.28258-3.26673-3.14374-1.37136.8435-8.79769,1.39225-10.0792.82268a1.51827,1.51827,0,0,1-.749-1.963c-2.37375.17692-8.128.738-9.84069,2.10811a23.403,23.403,0,0,0-2.5053,2.56171c-.52587.60037-1.06522,1.23945-1.584,1.86807-.38684.46871-.76122.93005-1.10962,1.36431-1.17875,1.46919-2.05428,2.61966-2.05428,2.61966l.25823.59025,1.26031,2.88071c.61479.15342,1.30274.33357,2.04534.52071.39854.10041.81191.20152,1.23694.30146a36.21321,36.21321,0,0,0,4.33825.78413,70.25324,70.25324,0,0,0,11.60517.145c1.88584,1.3056,4.64208,8.994,3.91676,9.42921s-19.43865-4.497-19.43865-4.497c-.04691.00895-.08872.01249-.13463.02034l.25586,5.24489-1.59053,9.84571-1.08807,6.73553s-.47339,2.53293-.75544,4.86359c-.2167,1.79068-.32052,3.462-.0096,3.77291a8.21774,8.21774,0,0,0,1.95473.5631c1.10769.24843,2.61883.54951,4.36485.87161,3.03182.55932,6.77014,1.18151,10.33853,1.70135a100.55822,100.55822,0,0,0,10.63508,1.14141,4.63342,4.63342,0,0,0,1.68885-.16274C240.48146,173.74085,239.12879,166.29886,238.02575,161.23725Z"/><path class="cls-4" d="M231.44236,228.66231c.14591.77708.26784,1.41379.35676,1.87406l.10383.0477a8.21773,8.21773,0,0,1,1.25476,2.2937,1.72794,1.72794,0,0,0,.77774-2.31541l-1.39108-3.11335a4.9113,4.9113,0,0,1-.12874.71434C232.3414,228.432,231.96644,228.61072,231.44236,228.66231Z"/><path class="cls-4" d="M228.34264,204.49868c-.46939,3.28558,1.23288,13.816,2.46,20.67408.23752,1.32741.45707,2.51645.63977,3.48955.52408-.05159.899-.23036.97327-.499a4.9113,4.9113,0,0,0,.12874-.71434C233.01493,223.45214,228.49833,203.40885,228.34264,204.49868Z"/><path class="cls-4" d="M233.15771,232.87777a8.21773,8.21773,0,0,0-1.25476-2.2937l-.10383-.0477c.10155.52553.16016.82134.16016.82134s-3.36119,1.87028-6.40251.618c-.71861-.29588-.22354-.6589-1.38843-2.77685-.82792.34348-5.81553,3.08574-6.89175,5.561-.64785,1.49007,11.60689.41808,14.64821.06029C233.29079,234.65947,233.424,233.78848,233.15771,232.87777Z"/><path class="cls-4" d="M231.44236,228.66231c-.1827-.9731-.40225-2.16214-.63977-3.48955-1.22707-6.858-2.92934-17.3885-2.46-20.67408a51.988,51.988,0,0,1,1.62-6.02263c2.13017-6.90453,5.75063-17.46971,7.42527-23.87009a100.55822,100.55822,0,0,1-10.63508-1.14141c-3.56839-.51984-7.30671-1.142-10.33853-1.70135-1.746-.3221-3.25716-.62318-4.36489-.87133-1.023,7.36813,3.71136,37.49,5.36276,42.596a121.47024,121.47024,0,0,0,5.83511,13.65475c.18339.35257.743,1.73243.9211,2.05625,1.16488,2.118.66981,2.481,1.38843,2.77686,3.04132,1.25229,6.40251-.618,6.40251-.618s-.05861-.29581-.16016-.82134C231.7102,230.0761,231.58827,229.43939,231.44236,228.66231Z"/><path class="cls-4" d="M224.16834,229.19884s-7.42217,3.04-7.60776,4.33914l.98982.61865A81.28684,81.28684,0,0,1,224.16834,229.19884Z"/><path class="cls-5" d="M210.47639,114.00572a89.01425,89.01425,0,0,1,3.27794,10.37945,23.40566,23.40566,0,0,1,2.50531-2.56171c1.71266-1.37015,7.46694-1.93119,9.84068-2.1081.014-.04312.02371-.06787.02371-.06787a2.413,2.413,0,0,1-1.78669-.7C224.45927,119.35832,223.618,119.96654,210.47639,114.00572Z"/><path class="cls-5" d="M176.72986,124.539a10.20364,10.20364,0,0,1,.99206.48037q.0255-.578.07055-1.32721A9.32734,9.32734,0,0,1,176.72986,124.539Z"/><path class="cls-5" d="M179.60731,127.07335l.008-.07048-.029-.00351Z"/><path class="cls-6" d="M194.20983,58.86543c-.14506-3.33648-6.9631-6.09273-6.9631-6.09273a7.674,7.674,0,0,0-4.64208,7.54337c.14508,5.80259,3.91675,11.75023,3.91675,11.75023l-2.97447,2.3208h0a9.917,9.917,0,0,0,3.79743,4.03488,6.64582,6.64582,0,0,0,5.99509.02715L194.1,77.37169c.3539-2.18612.77742-4.51464,1.09733-6.39022.1254-.73513.23531-1.40271.31811-1.96151C196.09566,65.1032,194.35488,62.20191,194.20983,58.86543Z"/><path class="cls-6" d="M205.96005,97.30755c-.29013,2.61115,1.88584,10.58971,4.20686,15.95708.1042.241.20717.48946.30948.74109,13.14161,5.96082,13.98288,5.3526,13.861,4.94178a9.198,9.198,0,0,1-1.83993-2.34635c-.94247-1.61569-1.758-4.72859-1.40666-6.44381-3.64878-2.06513-6.065-6.18681-7.73241-8.06266-1.63668-1.84127-3.128-8.94368-3.86579-12.97451a8.66136,8.66136,0,0,1-3.5325.78909A58.53951,58.53951,0,0,1,205.96005,97.30755Z"/><path class="cls-6" d="M175.4965,101.36935a4.62328,4.62328,0,0,1,3.38975.49889,22.24132,22.24132,0,0,0-3.38975-6.88172L168.38835,91.505s.496,2.183,1.01439,4.63746A7.58486,7.58486,0,0,1,175.4965,101.36935Z"/><path class="cls-7" d="M151.996,133.42861c-.29014-.43519-5.3674-5.80256-5.3674-5.80256l-1.74079,6.9631.29014-11.315-2.25418-5.50622c-1.93662-2.67151-3.1141-4.11428-4.18383-4.27535-.18569-.028,1.659,2.459,1.4992,2.57556-.19363.14122-2.657-1.90246-2.88308-1.88362-.92259.07689-.80726.26909-.42285.92259-.28717.26324-.961.38441-.38441,1.11479.08214.10406,2.26725,2.33006,2.22958,2.46023-.20193.69787-3.17615-.44909-3.80567-.38441-.63771.06552,1.56338,1.63393,1.69141,1.69141,1.88361.8457,3.58165,6.33137,3.58165,6.33137-1.16051,3.91675.29013,18.133,3.19143,18.85838,2.45829.61458,6.99834-7.41295,8.32771-9.87919C151.87232,134.2783,152.18951,133.71885,151.996,133.42861Z"/><path class="cls-7" d="M171.13044,107.62479c-1.16054-.145-.43522-2.46611-.43522-2.46611a16.82721,16.82721,0,0,0-5.36737.14509c-2.176.58024-8.12361-2.176-8.12361-2.176a90.43615,90.43615,0,0,0-1.16054,9.42917c0,2.61119,4.0618,5.94768,4.0618,5.94768-.145,1.30556-2.75621,1.59569-2.75621,1.59569s.76088,6.28176,13.15625,3.40345c.91869-.21332,1.89488-.472,2.94593-.79229-3.04635-1.45064-3.04635-8.994-3.04635-8.994a7.71788,7.71788,0,0,0,3.62658-2.6112C175.3373,109.22049,172.291,107.76984,171.13044,107.62479Z"/><path class="cls-4" d="M210.47639,114.00572c-.10231-.25163-.20528-.50013-.30948-.74109-2.321-5.36737-4.497-13.34593-4.20686-15.95708a58.53951,58.53951,0,0,0,0-7.39829,8.66136,8.66136,0,0,0,3.5325-.78909,2.86438,2.86438,0,0,0,1.39968-3.853c-.2901-.87037-2.03088-7.97856-8.12361-9.13907-5.22231.43519-4.20685-5.07727-4.20685-5.07727l-.8136,1.1526c-1.618,3.803-1.50742,14.65944-1.50742,14.65944s-2.32106-1.01543-2.75625-2.90126c-.2147-.93039.1358-3.62679.61548-6.58993l-.76053,1.07744a6.64582,6.64582,0,0,1-5.99509-.02715,9.917,9.917,0,0,1-3.79742-4.0349c-3.12756,1.75153-10.21413,5.90308-11.67706,7.25348-1.88584,1.74079-3.48153,9.8644-3.48153,9.8644l7.10815,3.48156a22.24132,22.24132,0,0,1,3.38975,6.88172c3.5134,2.28967,1.71363,10.63548,1.22022,15.33132a17.2071,17.2071,0,0,0-.113,1.72261,6.39692,6.39692,0,0,1-2.201,4.77q-.0462.74823-.07055,1.32721a3.58828,3.58828,0,0,1,1.83638,1.88136c.00864.02939.01883.06655.028.09863l.029.00351c5.45691.65625,21.20153,2.28182,31.4454.61468.34839-.43425.72277-.8956,1.10961-1.3643.51881-.62862,1.05817-1.26771,1.584-1.86808A89.01425,89.01425,0,0,0,210.47639,114.00572Z"/><path class="cls-8" d="M235.73772,113.68123a29.58135,29.58135,0,0,0,.88472,3.84466c1.76925.68534,3.70446,1.20463,3.85946.27462C240.668,116.68384,237.8111,114.852,235.73772,113.68123Z"/><path class="cls-8" d="M237.52985,110.40745c1.27476-1.64859,2.50606-3.98462.92113-5.66277a1.55535,1.55535,0,0,0-1.55394.137,16.73907,16.73907,0,0,0-3.23319,3.05446c-.145.29014,0-2.90129-1.16051-2.90129s-1.3056-1.74079-1.5957-2.176,2.03089-1.30557.2901-1.5957-1.88583-1.16051-1.88583-1.16051.43519,2.03088-1.16051,2.176a11.07385,11.07385,0,0,0-3.62662.87037c-1.01546.43519-.145,2.321-3.33648,1.3056a6.82964,6.82964,0,0,1,.14508,3.77167,2.67208,2.67208,0,0,0-.1011.37424c-.35133,1.71521.46419,4.82811,1.40666,6.44381a9.19825,9.19825,0,0,0,1.83993,2.34635,2.413,2.413,0,0,0,1.78669.7s-.00974.02475-.02371.06786a1.5183,1.5183,0,0,0,.749,1.963c1.2815.56957,8.70784.02082,10.0792-.82268.02577-.01586.05392-.03163.07533-.0477,0,0-.23859-.73289-.523-1.72526a29.58135,29.58135,0,0,1-.88472-3.84466c-.08827-.6864-.07915-1.21192.1021-1.39318A19.19793,19.19793,0,0,0,237.52985,110.40745Z"/><path class="cls-4" d="M151.46305,236.92761c0,2.01031,9.85056,1.20618,10.85573.20105.67787-.67787-.62169-2.80975-1.62153-4.96555l-6.48114-.84536C153.20674,233.35215,151.46305,235.54393,151.46305,236.92761Z"/><path class="cls-4" d="M178.66712,162.23815,176.248,145.83982l-.4613-3.12708,2.37367-.436,1.85053-.33989,2.88395-.52972s-2.50217-11.53732-3.28748-14.33383l-.021-.074c-.00919-.03208-.01938-.06924-.028-.09863a3.5883,3.5883,0,0,0-1.83639-1.88136,10.1991,10.1991,0,0,0-.99206-.48037,9.85918,9.85918,0,0,1-1.95868,1.05613l-.76218.15245a1.7456,1.7456,0,0,0-1.12366-2.32842c-1.051.32032-2.02724.579-2.94593.79229-12.39537,2.87831-13.15624-3.40345-13.15624-3.40345l-4.35194.29014c-4.35194.29014-5.80259,6.52791-5.80259,6.52791s5.07727,5.36737,5.3674,5.80256c.19347.29024-.12371.84969-.23108,1.871a6.43084,6.43084,0,0,0,.086,1.90067c.32854,1.75211-2.56639,17.52539-3.88076,25.03786l-1.29624,4.83331s1.60589.46781,4.11642,1.14623c6.00542,1.62282,17.19558,4.45222,24.03644,4.98353,2.67207.20754,4.68152.06507,5.45678-.638l0,0-1.63331-10.325Z"/><path class="cls-7" d="M186.92233,173.77949c-1.01639-.81307-4.315-11.54134-4.315-11.54134l-1.965-15.36435-.63141-4.93693-1.85053.33989-2.37367.436.4613,3.12708,2.41917,16.39833h-.01679l1.63331,10.325,0,0h0a3.51084,3.51084,0,0,0,.22936,2.01216c.01951.40057.03854.85083.057,1.35412a4.98143,4.98143,0,0,1-1.16883,1.34764c-.15886.17015-.06963.44355.05343.64115a5.02245,5.02245,0,0,0,1.20811,1.13481,10.70121,10.70121,0,0,0,2.19414,1.2312c2.03274.81311,3.03591-2.31258,3.03591-2.31258S187.93872,174.5926,186.92233,173.77949Z"/><path class="cls-3" d="M196.56826,228.32111c-.57931,1.76821-1.75809,5.76126-.78734,6.316.62615.35779,2.66117,1.96791,4.65144,1.789a11.99412,11.99412,0,0,0,4.29457-1.3154c1.43121-.71558-2.68445-8.16639-2.68445-8.16639C202.04248,227.29419,198.699,228.0996,196.56826,228.32111Z"/><path class="cls-4" d="M187.33848,236.30444c-.63041-1.137-3.0534-2.15171-3.0534-2.15171s-.88317-.5876-2.18-1.303c-.03207.17585-.06139.28593-.06139.28593l-1.79619-.03207-9.58716-.1712c-1.03642,2.931,1.55732,2.98281,1.55732,2.98281s13.048,2.65036,14.30052,2.02415C187.53109,237.43288,187.64338,236.85443,187.33848,236.30444Z"/><path class="cls-9" d="M214.23567,140.38761a5.97014,5.97014,0,0,1-1.18191.09075c-2.01489-.0585-2.78853-1.29514-3.76073-1.41665-1.16051-.14508-5.89774.30831-7.2033.16322s3.72173-1.904,3.72173-1.904a23.83283,23.83283,0,0,1-4.71369.42727,15.94615,15.94615,0,0,1-3.535.34975,30.71284,30.71284,0,0,1-3.85066.87766,4.93525,4.93525,0,0,1-3.24133-1.34637c-.748-.79787-.59841-.59841-.59841-.59841s-2.94211.09973-3.69011-.64828,5.43544-2.04451,5.43544-2.04451-3.64025-.54854-3.04184-1.24668a23.02375,23.02375,0,0,1,5.517-.75544c1.06594-.06466,1.64838.17868,2.87386.05864,5.596-.54809,12.0797-1.54105,12.30373-1.59707l.13569.00554-.25823-.59025s.87553-1.15046,2.05428-2.61966c-10.24386,1.66714-25.98848.04157-31.44539-.61469l-.008.07048c.78531,2.79651,3.28748,14.33382,3.28748,14.33382l-2.88395.52972.63141,4.93693,1.965,15.36436s3.29866,10.72826,4.31505,11.54134-1.02958,4.1922-1.02958,4.1922-1.00316,3.1257-3.03591,2.31259a10.70168,10.70168,0,0,1-2.19414-1.2312c.29382,11.95317.374,37.04571-.0671,46.74974a10.167,10.167,0,0,0,1.348,4.97347,2.28843,2.28843,0,0,1,.20937.71115,21.08243,21.08243,0,0,0,6.30254-1.608c.382-.15108.66342-.26891.80375-.325.515-.206,1.43121-17.17455,2.86241-37.39043.97757-13.80833,1.375-29.92578,1.375-29.92578l3.15849-21.38578-.75829,21.38578s.16068,15.79256-.376,19.19167.8945,46.15663.17888,47.23c-.24915.37372.54369.42166,1.68187.30335,2.13075-.22152,5.47422-1.02692,5.47422-1.37676,0-.53671,2.3257-38.82166,3.2202-41.68407.54682-1.74984,3.03113-10.98475,4.83995-18.80064.282-2.33065.75544-4.86359.75544-4.86359l1.08807-6.73553,1.59053-9.84571Z"/><path class="cls-10" d="M182.29452,231.912a2.28835,2.28835,0,0,0-.20937-.71115,10.167,10.167,0,0,1-1.348-4.97347c.4411-9.704.36092-34.79658.0671-46.74974a13.1369,13.1369,0,0,1-1.18335-.97289.60532.60532,0,0,1,.03881-.93072,3.28515,3.28515,0,0,0,1.05183-1.22c-.01844-.50329-.03747-.95355-.057-1.35412a3.511,3.511,0,0,1-.22936-2.01217h0c-.77526.7031-2.78471.84557-5.45678.638-6.84086-.5313-18.031-3.36071-24.03644-4.98352-.53409,8.803,1.77857,62.88522,1.77857,62.88522l1.64715.21484,6.48114.84535,1.22232.15944.92464-13.40722,2.32774-33.75245s4.002,19.36625,4.70977,25.9123c.4028,3.72542,1.60633,12.68558.71551,17.83277-.4876,2.8175.06315,4.02443.06315,4.02443l.77608.01387,8.81108.15734,1.79619.03207s.02932-.11009.06139-.28594A4.46212,4.46212,0,0,0,182.29452,231.912Z"/><path class="cls-10" d="M237.70517,160.79269c.31973-8.20579,1.35787-35.943,1.35787-37.784,0-1.12242-1.65957-2.28258-3.26673-3.14373-1.37136.84349-8.79769,1.39224-10.0792.82267a1.51829,1.51829,0,0,1-.749-1.963c-2.37374.17692-8.128.73795-9.84068,2.10811a23.40383,23.40383,0,0,0-2.50531,2.56171c-.52586.60037-1.06522,1.23945-1.584,1.86807-.38684.46871-.76122.93-1.10961,1.36431-1.17875,1.46919-2.05429,2.61966-2.05429,2.61966l.25823.59025,1.26031,2.88071c.61479.15342,1.30274.33357,2.04534.52071.39854.10042.81191.20152,1.23694.30146a36.21321,36.21321,0,0,0,4.33825.78413,70.25335,70.25335,0,0,0,11.60518.145c1.88583,1.3056,4.64208,8.994,3.91675,9.42921s-19.43865-4.497-19.43865-4.497c-.04691.00895-.08872.01249-.13462.02034l.25586,5.24489-1.59054,9.84571-1.08807,6.73553s-.47339,2.53293-.75544,4.86359c-.21669,1.79068-.32052,3.462-.0096,3.77291a8.2181,8.2181,0,0,0,1.95473.5631c1.10769.24843,2.61883.54951,4.36485.87161,3.03182.55932,6.77015,1.18151,10.33854,1.70135a100.55539,100.55539,0,0,0,10.63507,1.14141,4.63352,4.63352,0,0,0,1.68886-.16274C240.16089,173.29629,238.80821,165.8543,237.70517,160.79269Z"/><path class="cls-3" d="M228.53734,205.04484c-.46939,3.28559,1.23288,13.816,2.45995,20.67408.23752,1.32742.45707,2.51646.63977,3.48955.52408-.05158.899-.23036.97327-.499a4.91146,4.91146,0,0,0,.12874-.71435C233.20963,223.9983,228.693,203.955,228.53734,205.04484Z"/><path class="cls-3" d="M231.187,228.675c-.1827-.9731-.40225-2.16213-.63977-3.48955-1.22707-6.858-2.92934-17.38849-2.45995-20.67408a51.98642,51.98642,0,0,1,1.62-6.02263c2.13017-6.90452,5.75062-17.46971,7.42527-23.87008a100.55877,100.55877,0,0,1-10.63508-1.14142c-3.56839-.51984-7.30671-1.142-10.33854-1.70134-1.746-.32211-3.25716-.62319-4.36488-.87133-1.023,7.36812,3.71136,37.49,5.36276,42.596a121.471,121.471,0,0,0,5.83511,13.65475c.18339.35256.743,1.73242.9211,2.05625,1.16488,2.118.66981,2.481,1.38843,2.77685,3.04132,1.25229,6.40251-.618,6.40251-.618s-.05861-.29581-.16016-.82133C231.45488,230.08876,231.333,229.45205,231.187,228.675Z"/><path class="cls-8" d="M200.13937,135.75008s-.24867-.01579-1.59573-.19946c-.34176-.04659-.16587-.77525-.44878-.84773-.76466-.19584-1.20962-.18665-.748-.64827a6.47811,6.47811,0,0,1,3.24346-1.07823l-.25149.031s-.99733-.748-.34905-1.04719,4.38824.54851,4.38824.54851l-2.43441.30057c1.93339-.19533,4.07254-.26237,5.68015-.33226a10.447,10.447,0,0,1,2.38892.42462l-1.26031-2.88071-.13569-.00554c-.22947.05738-6.90463,1.15061-12.597,1.71437-.87422.08659-1.78051-.22379-2.58062-.176-3.04683.18219-5.31571.52058-5.517.75545-.59841.69813,3.04183,1.24668,3.04183,1.24668s-6.18343,1.29651-5.43543,2.04451,3.69011.64827,3.69011.64827-.1496-.19946.59841.59841a4.93526,4.93526,0,0,0,3.24133,1.34638,30.71189,30.71189,0,0,0,3.85065-.87767,15.946,15.946,0,0,0,3.535-.34974.93582.93582,0,0,1-.50405-.16883C199.35964,136.217,200.13937,135.75008,200.13937,135.75008Z"/><path class="cls-8" d="M229.23838,134.653a70.25462,70.25462,0,0,1-11.60518-.145,36.21141,36.21141,0,0,1-4.33824-.78414c-.425-.09993-.83841-.201-1.23694-.30146-.7426-.18713-1.43055-.36729-2.04534-.5207a10.447,10.447,0,0,0-2.38892-.42462c-1.60761.06989-3.74676.13693-5.68015.33226l-1.35329.16707a6.47811,6.47811,0,0,0-3.24346,1.07823c-.46162.46162-.01666.45243.748.64827.28291.07248.107.80114.44878.84773,1.34706.18367,1.59573.19946,1.59573.19946s-.77973.46695-.19946,1.04723a.93582.93582,0,0,0,.50405.16883,23.83262,23.83262,0,0,0,4.71369-.42728s-5.02733,1.759-3.72173,1.904,6.04279-.30831,7.2033-.16322c.9722.12151,1.74584,1.35814,3.76072,1.41665a5.97024,5.97024,0,0,0,1.18192-.09075c.04591-.00785.08772-.01139.13462-.02034,0,0,18.71333,4.93221,19.43866,4.497S231.12422,135.95863,229.23838,134.653Z"/><path class="cls-8" d="M199.98978,131.81871c-.64828.29919.34905,1.04719.34905,1.04719l.25149-.031c.43285-.06428.88562-.11983,1.35329-.16708l2.43441-.30056S200.63805,131.51949,199.98978,131.81871Z"/><path class="cls-8" d="M201.94361,132.66778c-.46767.04725-.92044.1028-1.35329.16708Z"/><path class="cls-4" d="M84.17,40.67028s-.19114.452-.43066,1.076a23.02012,23.02012,0,0,0-.80994,2.44442c3.55962,1.10494,7.46255,1.99066,9.22945,1.27288Z"/><path class="cls-4" d="M84.46705,38.731c.03165.21823.04535.3415.04535.3415s-.58613-.10717-1.58335-.27495c-.64348-.10828-1.45814-.24175-2.3975-.38808L84.17,40.67028l7.98885,4.79332C93.71075,45.30022,87.89826,41.10424,84.46705,38.731Z"/><path class="cls-4" d="M60.6015,37.03281a7.37389,7.37389,0,0,0-1.31105.32781c0,.79887-1.02712,4.10854-.79888,4.565.0533.1066.36379.0689.8228-.05556,1.50654-.40847,4.63271-1.76292,5.6824-2.11283.9333-.31109,1.81266-1.89294,2.27876-2.86991A32.67548,32.67548,0,0,0,60.6015,37.03281Z"/><path class="cls-4" d="M84.46705,38.731c-.23121-1.5943-1.44476-8.38818-5.661-11.29938-4.79331-3.30967-10.3855-1.59778-14.95055,1.14125s-4.56507,8.78775-4.56507,8.78775a7.37389,7.37389,0,0,1,1.31105-.32781,32.67548,32.67548,0,0,1,6.674-.14545c.85125.048,1.72648.11226,2.61046.18887,2.37136.20551,4.802.49843,6.98475.79712,1.33722.183,2.5814.368,3.66081.53612.93936.14633,1.754.2798,2.3975.38808.99722.16778,1.58335.27495,1.58335.27495S84.4987,38.94923,84.46705,38.731Z"/><path class="cls-4" d="M55.7355,49.31769c-1.41815-.52346-18.47144,8.47156-19.61269,11.89533s1.826,2.62493.79888,7.19,3.19553,7.87472,5.24982,8.90186c.26088.13044.48833.03259.6888-.24252,1.37805-1.89125,1.46691-12.248,2.16436-15.73517a3.481,3.481,0,0,1,.13571-.47047,8.87135,8.87135,0,0,1,1.41019-2.35216c2.75381-3.51685,8.23379-7.68821,9.49133-8.62516-.1223.00084-.08447-.2278-.16933-.32058S55.60017,49.50909,55.7355,49.31769Z"/><path class="cls-4" d="M82.80051,45.34946a2.89645,2.89645,0,0,1,.12891-1.15874,23.02012,23.02012,0,0,1,.80994-2.44442c.23952-.624.43066-1.076.43066-1.076l-3.63847-2.26081c-1.07941-.16814-2.32359-.35312-3.66081-.53612-2.18272-.29869-4.61339-.59161-6.98475-.79712-.884-.07661-1.75921-.14092-2.61046-.18887-.4661.977-1.34546,2.55882-2.27876,2.86991-1.04969.34991-4.17586,1.70436-5.6824,2.11283a23.7336,23.7336,0,0,1-3.57887,7.44759c-.1015.14355.12186.15337.15707.2411.05868.14621.01646.32163.16933.32058,5.53144-.03813,8.27837,5.33375,9.84788,7.33924a8.25424,8.25424,0,0,0,3.67849,2.78353,4.10606,4.10606,0,0,0,.65832.18374l-1.48365-3.19553,2.62492-2.05426s2.6249,3.42377,5.364,3.19553,4.79329-9.016,4.79329-9.016a7.33561,7.33561,0,0,0,3.19556.68475C85.88191,49.57214,83.02875,46.26247,82.80051,45.34946Z"/><path class="cls-4" d="M80.28972,89.74464c.8052.115,3.74981.41048,7.3041.752V88.7175c-6.04872.79887-7.19-1.71189-7.19-1.71189l-2.48686-4.096c.16329,2.15919.22747,3.95926.246,5.33489A4.96038,4.96038,0,0,0,80.28972,89.74464Z"/><path class="cls-4" d="M121.83173,56.41971,87.16216,58.58813V67.49l.43166,1.02715V90.49667q.27728.02667.55915.05364c6.9543.66586,15.87505,1.47685,15.87505,1.47685l3.652-.22824s7.19-4.33681,7.64647-2.739-4.33681,4.67918-4.33681,4.67918,13.92518-.97869,14.25772-.28033c4.4472-.14959,7.50421-.26109,7.67941-.29028V68.97363l.43166-1.48365V58.13162Z"/><path class="cls-4" d="M104.028,92.02716s-8.92075-.811-15.87505-1.47685q-.28193-.027-.55915-.05364c-3.55429-.34155-6.4989-.637-7.3041-.752A4.96038,4.96038,0,0,1,78.163,88.2445c-.0185-1.37563-.08268-3.1757-.246-5.33489-.12831-1.69671-.31743-3.6126-.59456-5.71889a45.81847,45.81847,0,0,0-5.321-15.9826c-.3601-.57926-1.463-.60375-1.7548-1.02224a10.07364,10.07364,0,0,1-4.33681-2.96727c-1.56951-2.00549-4.31644-7.37737-9.84788-7.33924-1.25754.93695-6.73752,5.10831-9.49133,8.62516a8.87135,8.87135,0,0,0-1.41019,2.35216,3.481,3.481,0,0,0-.13571.47047c-.69745,3.48719-.78631,13.84392-2.16436,15.73517,1.13308,6.25322,2.62086,13.82356,2.62086,13.82356-.7989,4.10857-.68477,1.36954,1.14125,8.21711s-4.67918,19.17325-2.96727,20.771a2.59659,2.59659,0,0,0,.71167.41163c3.41743,1.473,15.95272,2.97607,20.85822,3.811,4.43281.75451,13.458.65021,16.58877-.82533.65763-.30994,1.06118-.679,1.10081-1.11482.12793-1.40724-1.39328-10.9167-2.75521-19.00427,4.81261-.25891,12.78408-.673,18.57609-1.78658,1.22044-.23464,1.67005-1.28908,2.72285-1.50217,3.42263-.69277,5.7652-1.217,5.7652-1.217l.02053-.3078.28715-4.30743.14883-2.23234Z"/><path class="cls-4" d="M83.257,132.88442s.03008.16788.084.49065A1.5185,1.5185,0,0,0,83.257,132.88442Z"/><path class="cls-4" d="M45.36769,235.308l-.30069,3.6327c-.10373,1.54516-.44221,3.50419,1.10607,3.47089,2.49419-.05359,8.56154.09841,12.555.48757,8.10356.78968,16.25019,1.76733,16.25019-.29325,0-1.90037-3.27525-2.67635-7.076-4.57669a77.66375,77.66375,0,0,1-8.12691-4.92513C59.77537,233.512,45.36769,235.308,45.36769,235.308Z"/><path class="cls-4" d="M95.05216,229.85664c-2.09457-1.53932-4.59794-2.14371-8.6765-3.5832-1.74764-.61682-3.23495-1.11554-4.5094-1.52053a16.553,16.553,0,0,1-.78976,2.97311c-.0362.0724-10.37407,2.52757-10.37407,2.52757s-1.02957,3.87227,2.59183,4.174a39.42851,39.42851,0,0,0,11.64194-.47694c3.93735-.74421,6.29032-.13871,8.75092-.31038C96.57014,233.43915,95.08707,229.88228,95.05216,229.85664Z"/><path class="cls-4" d="M83.34105,133.37507c-.054-.32277-.084-.49065-.084-.49065-.21678-.65028-.8908-5.7358-1.44321-9.61307-3.13075,1.47553-12.156,1.57983-16.58877.82532-4.9055-.835-17.44079-2.33806-20.85821-3.811-.492,2.79372-1.174,7.54209-.71167,10.31623l9.88107,44.67778a8.4799,8.4799,0,0,1,.10835,3.075l-7.9794,53.80876-.14251-.00951.14122.02323-.29619,3.13086s14.40768-1.796,14.40768-2.20391c0-.39606,3.69754-10.62431,7.8602-23.94844l1.24614,21.15993,1.82072-.062S81.0403,227.79842,81.0765,227.726a16.553,16.553,0,0,0,.78976-2.97311c1.54732-7.47,4.21617-27.095,4.51414-46.28417q.02541-1.63575.03051-3.23725A265.40909,265.40909,0,0,0,83.34105,133.37507Z"/><path class="cls-4" d="M125.25553,93.51081a.06061.06061,0,0,0-.00809-.05209c-.33254-.69836-14.25772.28033-14.25772.28033s4.79332-3.0814,4.33681-4.67918-7.64647,2.739-7.64647,2.739l-.14883,2.23234-.28715,4.30743c2.052-.06916,4.64532-.18838,6.02817-.37694a25.00261,25.00261,0,0,0,4.67918-1.02714c.86919-.31044,1.77915-.64633,2.6524-.98676,1.96808.00878,3.927-.12029,3.51214-.67349a2.12765,2.12765,0,0,0-.99948-.38142A5.16782,5.16782,0,0,0,125.25553,93.51081Z"/><path class="cls-3" d="M82.95485,40.90784s-.19114.452-.43065,1.076a23.01789,23.01789,0,0,0-.80995,2.44442c3.55962,1.10494,7.46255,1.99066,9.22945,1.27288Z"/><path class="cls-9" d="M83.25188,38.96856c.03165.21823.04535.3415.04535.3415s-.58613-.10717-1.58335-.27495c-.64348-.10828-1.45814-.24175-2.3975-.38808l3.63847,2.26081,7.98885,4.79332C92.49559,45.53778,86.68309,41.34179,83.25188,38.96856Z"/><path class="cls-11" d="M59.38633,37.27037a7.37389,7.37389,0,0,0-1.31105.32781c0,.79887-1.02712,4.10854-.79888,4.565.0533.1066.36379.0689.8228-.05556,1.50654-.40848,4.63271-1.76292,5.6824-2.11283.9333-.3111,1.81266-1.89294,2.27876-2.86991A32.67548,32.67548,0,0,0,59.38633,37.27037Z"/><path class="cls-9" d="M83.25188,38.96856c-.23121-1.5943-1.44476-8.38818-5.661-11.29938-4.79331-3.30967-10.3855-1.59778-14.95055,1.14125s-4.56507,8.78775-4.56507,8.78775a7.37389,7.37389,0,0,1,1.31105-.32781,32.67548,32.67548,0,0,1,6.674-.14545c.85125.048,1.72648.11226,2.61046.18887,2.37136.2055,4.802.49842,6.98475.79711,1.33722.183,2.5814.368,3.66081.53613.93936.14633,1.754.2798,2.3975.38808.99722.16778,1.58335.27495,1.58335.27495S83.28353,39.18679,83.25188,38.96856Z"/><path class="cls-9" d="M54.52033,49.55524c-1.41815-.52345-18.47144,8.47157-19.61269,11.89534s1.826,2.62493.79888,7.19,3.19553,7.87472,5.24982,8.90186c.26088.13044.48833.03259.6888-.24252,1.37805-1.89125,1.46691-12.248,2.16436-15.73517a3.48057,3.48057,0,0,1,.13571-.47047,8.87135,8.87135,0,0,1,1.41019-2.35216c2.75381-3.51685,8.23379-7.68821,9.49133-8.62517-.1223.00085-.08447-.22779-.16933-.32057S54.385,49.74665,54.52033,49.55524Z"/><path class="cls-12" d="M81.58534,45.587a2.89645,2.89645,0,0,1,.12891-1.15874,23.01789,23.01789,0,0,1,.80995-2.44442c.23951-.624.43065-1.076.43065-1.076L79.31638,38.647c-1.07941-.16815-2.32359-.35312-3.66081-.53613-2.18272-.29869-4.61339-.59161-6.98475-.79711-.884-.07661-1.75921-.14092-2.61046-.18887-.4661.977-1.34546,2.55881-2.27876,2.86991-1.04969.34991-4.17586,1.70435-5.6824,2.11283a23.73341,23.73341,0,0,1-3.57887,7.44758c-.1015.14356.12186.15338.15707.24111.05868.14621.01646.32163.16933.32057,5.53144-.03812,8.27837,5.33376,9.84788,7.33925A8.25424,8.25424,0,0,0,68.3731,60.2397a4.10638,4.10638,0,0,0,.65832.18374l-1.48365-3.19553,2.62492-2.05426s2.6249,3.42377,5.364,3.19553,4.79328-9.016,4.79328-9.016a7.33561,7.33561,0,0,0,3.19556.68475C84.66674,49.8097,81.81358,46.5,81.58534,45.587Z"/><path class="cls-9" d="M79.07455,89.9822c.8052.115,3.74981.41047,7.3041.752V88.95505c-6.04872.79888-7.19-1.71188-7.19-1.71188l-2.48686-4.096c.16329,2.15919.22747,3.95926.246,5.33489A4.96038,4.96038,0,0,0,79.07455,89.9822Z"/><path class="cls-10" d="M120.61656,56.65727,85.947,58.82569v8.90185l.43166,1.02715V90.73423q.27728.02667.55915.05364c6.9543.66585,15.87505,1.47685,15.87505,1.47685l3.652-.22824s7.19-4.33681,7.64647-2.739-4.3368,4.67918-4.3368,4.67918,13.92517-.97869,14.25771-.28033c4.4472-.14959,7.50421-.26109,7.67941-.29028V69.21119l.43166-1.48365V58.36918Z"/><path class="cls-9" d="M102.81285,92.26472s-8.92075-.811-15.87505-1.47685q-.28193-.027-.55915-.05364c-3.55429-.34156-6.4989-.637-7.3041-.752a4.96038,4.96038,0,0,1-2.12676-1.50014c-.0185-1.37563-.08268-3.1757-.246-5.33489-.12831-1.69671-.31743-3.6126-.59456-5.71889a45.81847,45.81847,0,0,0-5.321-15.9826c-.3601-.57926-1.463-.60376-1.7548-1.02224a10.07364,10.07364,0,0,1-4.33681-2.96727c-1.56951-2.00549-4.31644-7.37737-9.84788-7.33925-1.25754.937-6.73752,5.10832-9.49133,8.62517a8.87135,8.87135,0,0,0-1.41019,2.35216,3.48057,3.48057,0,0,0-.13571.47047c-.69745,3.48718-.78631,13.84392-2.16436,15.73517C42.77822,83.55311,44.266,91.12345,44.266,91.12345c-.7989,4.10857-.68477,1.36954,1.14125,8.21711s-4.67918,19.17325-2.96727,20.771a2.59632,2.59632,0,0,0,.71167.41164c3.41743,1.473,15.95272,2.97607,20.85822,3.811,4.43281.75451,13.458.6502,16.58877-.82533.65763-.30994,1.06118-.679,1.10081-1.11482.12793-1.40724-1.39328-10.9167-2.75521-19.00427,4.81261-.25891,12.78408-.673,18.57609-1.78658,1.22044-.23464,1.67005-1.28908,2.72285-1.50217,3.42263-.69278,5.7652-1.217,5.7652-1.217l.02053-.3078.28715-4.30743.14883-2.23234Z"/><path class="cls-3" d="M82.04184,133.122s.03009.16788.084.49065A1.5185,1.5185,0,0,0,82.04184,133.122Z"/><path class="cls-9" d="M44.15252,235.54559l-.30069,3.6327c-.10373,1.54516-.44221,3.50419,1.10607,3.47089,2.49419-.05359,8.56154.09841,12.555.48757,8.10356.78968,16.25019,1.76733,16.25019-.29325,0-1.90037-3.27525-2.67635-7.076-4.57669a77.66375,77.66375,0,0,1-8.12691-4.92513C58.5602,233.74955,44.15252,235.54559,44.15252,235.54559Z"/><path class="cls-9" d="M93.837,230.0942c-2.09457-1.53932-4.59794-2.14371-8.6765-3.5832-1.74764-.61683-3.23495-1.11554-4.5094-1.52053a16.553,16.553,0,0,1-.78976,2.97311c-.0362.0724-10.37407,2.52757-10.37407,2.52757s-1.02957,3.87227,2.59183,4.174a39.42825,39.42825,0,0,0,11.64194-.47695c3.93735-.7442,6.29032-.1387,8.75092-.31038C95.355,233.67671,93.8719,230.11983,93.837,230.0942Z"/><path class="cls-3" d="M83.54855,133.257c-.054-.32277-.08405-.49065-.08405-.49065-.21677-.65029-.89079-5.73581-1.4432-9.61308-3.13075,1.47553-12.156,1.57984-16.58877.82533-4.9055-.835-17.44079-2.33807-20.85822-3.811-.492,2.79372-1.174,7.54209-.71167,10.31624l9.88108,44.67777a8.4799,8.4799,0,0,1,.10834,3.075l-7.97939,53.80876-.14251-.00951.14122.02324-.29619,3.13085s14.40768-1.796,14.40768-2.20391c0-.39606,3.69754-10.6243,7.8602-23.94844l1.24614,21.15993,1.82072-.062s10.33786-2.45518,10.37406-2.52758a16.55175,16.55175,0,0,0,.78977-2.97311c1.54732-7.47,4.21616-27.095,4.51414-46.28416q.02541-1.63576.03051-3.23726A265.40877,265.40877,0,0,0,83.54855,133.257Z"/><path class="cls-12" d="M124.04036,93.74837a.0606.0606,0,0,0-.00809-.05209c-.33254-.69836-14.25771.28033-14.25771.28033s4.79331-3.0814,4.3368-4.67918-7.64647,2.739-7.64647,2.739l-.14883,2.23234-.28715,4.30743c2.052-.06916,4.64532-.18838,6.02817-.37694a25.00244,25.00244,0,0,0,4.67918-1.02714c.8692-.31044,1.77915-.64633,2.6524-.98676,1.96808.00878,3.927-.12029,3.51214-.67349a2.12765,2.12765,0,0,0-.99948-.38142A5.16782,5.16782,0,0,0,124.04036,93.74837Z"/><path class="cls-1" d="M84.17,40.67028s-.19114.452-.43066,1.076a23.02012,23.02012,0,0,0-.80994,2.44442c3.55962,1.10494,7.46255,1.99066,9.22945,1.27288Z"/><path class="cls-1" d="M84.46705,38.731c.03165.21823.04535.3415.04535.3415s-.58613-.10717-1.58335-.27495c-.64348-.10828-1.45814-.24175-2.3975-.38808L84.17,40.67028l7.98885,4.79332C93.71075,45.30022,87.89826,41.10424,84.46705,38.731Z"/><path class="cls-1" d="M60.6015,37.03281a7.37389,7.37389,0,0,0-1.31105.32781c0,.79887-1.02712,4.10854-.79888,4.565.0533.1066.36379.0689.8228-.05556,1.50654-.40847,4.63271-1.76292,5.6824-2.11283.9333-.31109,1.81266-1.89294,2.27876-2.86991A32.67548,32.67548,0,0,0,60.6015,37.03281Z"/><path class="cls-1" d="M84.46705,38.731c-.23121-1.5943-1.44476-8.38818-5.661-11.29938-4.79331-3.30967-10.3855-1.59778-14.95055,1.14125s-4.56507,8.78775-4.56507,8.78775a7.37389,7.37389,0,0,1,1.31105-.32781,32.67548,32.67548,0,0,1,6.674-.14545c.85125.048,1.72648.11226,2.61046.18887,2.37136.20551,4.802.49843,6.98475.79712,1.33722.183,2.5814.368,3.66081.53612.93936.14633,1.754.2798,2.3975.38808.99722.16778,1.58335.27495,1.58335.27495S84.4987,38.94923,84.46705,38.731Z"/><path class="cls-1" d="M55.7355,49.31769c-1.41815-.52346-18.47144,8.47156-19.61269,11.89533s1.826,2.62493.79888,7.19,3.19553,7.87472,5.24982,8.90186c.26088.13044.48833.03259.6888-.24252,1.37805-1.89125,1.46691-12.248,2.16436-15.73517a3.481,3.481,0,0,1,.13571-.47047,8.87135,8.87135,0,0,1,1.41019-2.35216c2.75381-3.51685,8.23379-7.68821,9.49133-8.62516-.1223.00084-.08447-.2278-.16933-.32058S55.60017,49.50909,55.7355,49.31769Z"/><path class="cls-1" d="M82.80051,45.34946a2.89645,2.89645,0,0,1,.12891-1.15874,23.02012,23.02012,0,0,1,.80994-2.44442c.23952-.624.43066-1.076.43066-1.076l-3.63847-2.26081c-1.07941-.16814-2.32359-.35312-3.66081-.53612-2.18272-.29869-4.61339-.59161-6.98475-.79712-.884-.07661-1.75921-.14092-2.61046-.18887-.4661.977-1.34546,2.55882-2.27876,2.86991-1.04969.34991-4.17586,1.70436-5.6824,2.11283a23.7336,23.7336,0,0,1-3.57887,7.44759c-.1015.14355.12186.15337.15707.2411.05868.14621.01646.32163.16933.32058,5.53144-.03813,8.27837,5.33375,9.84788,7.33924a8.25424,8.25424,0,0,0,3.67849,2.78353,4.10606,4.10606,0,0,0,.65832.18374l-1.48365-3.19553,2.62492-2.05426s2.6249,3.42377,5.364,3.19553,4.79329-9.016,4.79329-9.016a7.33561,7.33561,0,0,0,3.19556.68475C85.88191,49.57214,83.02875,46.26247,82.80051,45.34946Z"/><path class="cls-1" d="M80.28972,89.74464c.8052.115,3.74981.41048,7.3041.752V88.7175c-6.04872.79887-7.19-1.71189-7.19-1.71189l-2.48686-4.096c.16329,2.15919.22747,3.95926.246,5.33489A4.96038,4.96038,0,0,0,80.28972,89.74464Z"/><path class="cls-1" d="M121.83173,56.41971,87.16216,58.58813V67.49l.43166,1.02715V90.49667q.27728.02667.55915.05364c6.9543.66586,15.87505,1.47685,15.87505,1.47685l3.652-.22824s7.19-4.33681,7.64647-2.739-4.33681,4.67918-4.33681,4.67918,13.92518-.97869,14.25772-.28033c4.4472-.14959,7.50421-.26109,7.67941-.29028V68.97363l.43166-1.48365V58.13162Z"/><path class="cls-1" d="M104.028,92.02716s-8.92075-.811-15.87505-1.47685q-.28193-.027-.55915-.05364c-3.55429-.34155-6.4989-.637-7.3041-.752A4.96038,4.96038,0,0,1,78.163,88.2445c-.0185-1.37563-.08268-3.1757-.246-5.33489-.12831-1.69671-.31743-3.6126-.59456-5.71889a45.81847,45.81847,0,0,0-5.321-15.9826c-.3601-.57926-1.463-.60375-1.7548-1.02224a10.07364,10.07364,0,0,1-4.33681-2.96727c-1.56951-2.00549-4.31644-7.37737-9.84788-7.33924-1.25754.93695-6.73752,5.10831-9.49133,8.62516a8.87135,8.87135,0,0,0-1.41019,2.35216,3.481,3.481,0,0,0-.13571.47047c-.69745,3.48719-.78631,13.84392-2.16436,15.73517,1.13308,6.25322,2.62086,13.82356,2.62086,13.82356-.7989,4.10857-.68477,1.36954,1.14125,8.21711s-4.67918,19.17325-2.96727,20.771a2.59659,2.59659,0,0,0,.71167.41163c3.41743,1.473,15.95272,2.97607,20.85822,3.811,4.43281.75451,13.458.65021,16.58877-.82533.65763-.30994,1.06118-.679,1.10081-1.11482.12793-1.40724-1.39328-10.9167-2.75521-19.00427,4.81261-.25891,12.78408-.673,18.57609-1.78658,1.22044-.23464,1.67005-1.28908,2.72285-1.50217,3.42263-.69277,5.7652-1.217,5.7652-1.217l.02053-.3078.28715-4.30743.14883-2.23234Z"/><path class="cls-1" d="M83.257,132.88442s.03008.16788.084.49065A1.5185,1.5185,0,0,0,83.257,132.88442Z"/><path class="cls-1" d="M45.36769,235.308l-.30069,3.6327c-.10373,1.54516-.44221,3.50419,1.10607,3.47089,2.49419-.05359,8.56154.09841,12.555.48757,8.10356.78968,16.25019,1.76733,16.25019-.29325,0-1.90037-3.27525-2.67635-7.076-4.57669a77.66375,77.66375,0,0,1-8.12691-4.92513C59.77537,233.512,45.36769,235.308,45.36769,235.308Z"/><path class="cls-1" d="M95.05216,229.85664c-2.09457-1.53932-4.59794-2.14371-8.6765-3.5832-1.74764-.61682-3.23495-1.11554-4.5094-1.52053a16.553,16.553,0,0,1-.78976,2.97311c-.0362.0724-10.37407,2.52757-10.37407,2.52757s-1.02957,3.87227,2.59183,4.174a39.42851,39.42851,0,0,0,11.64194-.47694c3.93735-.74421,6.29032-.13871,8.75092-.31038C96.57014,233.43915,95.08707,229.88228,95.05216,229.85664Z"/><path class="cls-1" d="M83.34105,133.37507c-.054-.32277-.084-.49065-.084-.49065-.21678-.65028-.8908-5.7358-1.44321-9.61307-3.13075,1.47553-12.156,1.57983-16.58877.82532-4.9055-.835-17.44079-2.33806-20.85821-3.811-.492,2.79372-1.174,7.54209-.71167,10.31623l9.88107,44.67778a8.4799,8.4799,0,0,1,.10835,3.075l-7.9794,53.80876-.14251-.00951.14122.02323-.29619,3.13086s14.40768-1.796,14.40768-2.20391c0-.39606,3.69754-10.62431,7.8602-23.94844l1.24614,21.15993,1.82072-.062S81.0403,227.79842,81.0765,227.726a16.553,16.553,0,0,0,.78976-2.97311c1.54732-7.47,4.21617-27.095,4.51414-46.28417q.02541-1.63575.03051-3.23725A265.40909,265.40909,0,0,0,83.34105,133.37507Z"/><path class="cls-1" d="M71.77579,37.97088s-.78962-2.70725-2.82.33841S70.19656,44.175,70.19656,44.175"/><path class="cls-1" d="M71.38786,54.93609s-1.52971-1.96253-1.52971-3.20335"/><path class="cls-1" d="M74.93425,48.79989s-.45121,3.94807,2.256,3.83527"/><path class="cls-1" d="M80.15941,103.15226s-5.902.46946-7.3684-.54576-23.57565-23.01163-22.89883-29.667"/><path class="cls-1" d="M78.163,88.2445s-8.30481-9.66485-8.64321-11.35688-3.15846-14.66428-6.09132-15.7923"/><path class="cls-1" d="M44.13927,115.24034s19.51477,9.137,38.46552,4.51209"/><path class="cls-1" d="M101.45835,99.86351s1.65808-7.47388,2.56967-7.83635"/><path class="cls-1" d="M125.25553,93.51081a.06061.06061,0,0,0-.00809-.05209c-.33254-.69836-14.25772.28033-14.25772.28033s4.79332-3.0814,4.33681-4.67918-7.64647,2.739-7.64647,2.739l-.14883,2.23234-.28715,4.30743c2.052-.06916,4.64532-.18838,6.02817-.37694a25.00261,25.00261,0,0,0,4.67918-1.02714c.86919-.31044,1.77915-.64633,2.6524-.98676,1.96808.00878,3.927-.12029,3.51214-.67349a2.12765,2.12765,0,0,0-.99948-.38142A5.16782,5.16782,0,0,0,125.25553,93.51081Z"/><line class="cls-1" x1="123.11649" y1="94.89294" x2="114.5278" y2="93.58233"/><line class="cls-1" x1="120.60383" y1="95.94785" x2="114.30219" y2="96.06398"/><path class="cls-1" d="M72.791,102.6065s-.45121,9.701-2.36885,11.50582l1.01522,6.88093"/><line class="cls-1" x1="78.09271" y1="103.39612" x2="79.67194" y2="120.31644"/><path class="cls-1" d="M76.73908,86.25019c0-.45121-2.98288-24.01983-4.73769-25.04207"/><path class="cls-1" d="M55.26492,49.20479S41.47679,54.455,38.07183,60.35707c0,0-2.091,2.78807-1.949.856"/><polyline class="cls-1" points="132.927 68.974 94.426 70.938 87.594 68.517"/><polyline class="cls-1" points="87.162 58.588 93.329 61.064 133.359 58.132"/><line class="cls-1" x1="93.32874" y1="61.06432" x2="93.1916" y2="91.09589"/><path class="cls-1" d="M115.81813,93.29c0-.4114-.68565-37.43662-3.83965-37.16236,0,0-12.34174-2.46835-9.32487-4.66243,0,0,10.69617.41139,9.462,6.308,0,0,.13713-12.06748,3.154-12.20461s4.66243,9.73626-3.154,12.20461l-20.7067,2.057L90.0376,90.6845"/><path class="cls-1" d="M112.11561,57.77319s14.07213-.702,15.01422-.74481a4.14272,4.14272,0,0,1,1.58442.21411"/><circle class="cls-3" cx="81.01305" cy="43.37366" r="0.37374"/><path class="cls-13" d="M66.55841,214.31118s9.85973-31.36584,9.85973-41.21221c0-14.04964-.19693-32.09918-.19693-32.09918"/><path class="cls-5" d="M209.63677,113.23907a89.01254,89.01254,0,0,1,3.27795,10.37945,23.40573,23.40573,0,0,1,2.5053-2.56171c1.71267-1.37015,7.46694-1.93119,9.84069-2.1081.014-.04312.02371-.06787.02371-.06787a2.41294,2.41294,0,0,1-1.78669-.7C223.61965,118.59167,222.77839,119.19989,209.63677,113.23907Z"/><path class="cls-5" d="M175.89025,123.77235a10.20235,10.20235,0,0,1,.992.48037c.017-.38536.03975-.82839.07055-1.32721A9.32727,9.32727,0,0,1,175.89025,123.77235Z"/><path class="cls-5" d="M178.76769,126.3067l.008-.07048-.029-.00351Z"/><path class="cls-3" d="M201.784,62.16058c.43519-4.20685-1.74078-18.85838-9.8644-16.68241,0,0-8.7668,1.36641-9.78222,6.58877-1.01546,5.22231-3.85384,22.85933-11.10708,28.807,1.46294-1.3504,8.5495-5.50194,11.67706-7.25346h0l2.97447-2.3208S181.91012,65.352,181.765,59.54942a7.674,7.674,0,0,1,4.64208-7.54337s6.81805,2.75625,6.9631,6.09273,1.88584,6.23777,1.3056,10.15453c-.0828.5588-.19271,1.22638-.31812,1.96151-.3199,1.87558-.74342,4.2041-1.09732,6.39022-.47969,2.96314-.83018,5.65954-.61548,6.58993.43519,1.88583,2.75624,2.90126,2.75624,2.90126s-.11053-10.85646,1.50743-14.65944l.81359-1.1526s-1.01546,5.51246,4.20686,5.07727C201.929,75.36146,201.34877,66.36747,201.784,62.16058Z"/><path class="cls-1" d="M193.37021,58.09878c-.145-3.33648-6.9631-6.09273-6.9631-6.09273a7.674,7.674,0,0,0-4.64208,7.54337c.14509,5.80259,3.91676,11.75023,3.91676,11.75023l-2.97447,2.3208h0a9.917,9.917,0,0,0,3.79742,4.03488,6.64585,6.64585,0,0,0,5.9951.02715l.76053-1.07744c.3539-2.18612.77742-4.51464,1.09732-6.39022.12541-.73513.23532-1.40271.31812-1.96151C195.256,64.33655,193.51526,61.43526,193.37021,58.09878Z"/><path class="cls-1" d="M205.12044,96.5409c-.29014,2.61115,1.88584,10.58971,4.20686,15.95708.1042.241.20716.48946.30947.74109,13.14162,5.96082,13.98288,5.3526,13.861,4.94178a9.19781,9.19781,0,0,1-1.83993-2.34635c-.94247-1.61569-1.758-4.7286-1.40667-6.44381-3.64878-2.06513-6.06495-6.18681-7.7324-8.06267-1.63669-1.84127-3.128-8.94367-3.86579-12.9745a8.66136,8.66136,0,0,1-3.5325.78909A58.53951,58.53951,0,0,1,205.12044,96.5409Z"/><path class="cls-1" d="M174.65688,100.6027a4.62332,4.62332,0,0,1,3.38976.49889,22.2412,22.2412,0,0,0-3.38976-6.88172l-7.10815-3.48156s.496,2.183,1.01439,4.63746A7.58484,7.58484,0,0,1,174.65688,100.6027Z"/><path class="cls-1" d="M151.15642,132.662c-.29013-.43519-5.3674-5.80256-5.3674-5.80256l-1.74078,6.9631.29014-11.315-2.25419-5.50622c-1.93662-2.67151-3.11409-4.11428-4.18382-4.27535-.18569-.028,1.659,2.459,1.4992,2.57556-.19364.14122-2.657-1.90246-2.88308-1.88362-.92259.07689-.80727.26909-.42286.92259-.28717.26324-.961.38441-.38441,1.11479.08215.10406,2.26725,2.33006,2.22959,2.46023-.20193.69787-3.17615-.44909-3.80567-.38441-.63771.06552,1.56338,1.63393,1.69141,1.69141,1.88361.8457,3.58164,6.33137,3.58164,6.33137-1.16051,3.91675.29014,18.133,3.19144,18.85838,2.45829.61458,6.99833-7.413,8.32771-9.8792C151.03271,133.51165,151.34989,132.9522,151.15642,132.662Z"/><path class="cls-1" d="M169.7247,107.5658c-1.16054-.145-.43522-2.46611-.43522-2.46611a16.82722,16.82722,0,0,0-5.36737.14509c-2.176.58024-8.12361-2.176-8.12361-2.176A90.43615,90.43615,0,0,0,154.638,112.498c0,2.61119,4.0618,5.94768,4.0618,5.94768-.145,1.30556-2.75621,1.59569-2.75621,1.59569s.76088,6.28176,13.15625,3.40345c.91869-.21332,1.89488-.472,2.94592-.79229-3.04634-1.45065-3.04634-8.994-3.04634-8.994a7.71788,7.71788,0,0,0,3.62658-2.6112C173.93156,109.1615,170.88521,107.71085,169.7247,107.5658Z"/><path class="cls-3" d="M178.04664,101.10159a4.62332,4.62332,0,0,0-3.38976-.49889,7.58484,7.58484,0,0,0-6.09376-5.22693,10.6157,10.6157,0,0,0-4.3509.4398s-7.39829.72533-8.26867,4.497-.145,2.75625-.145,2.75625,5.94764,2.75621,8.12361,2.176a16.82722,16.82722,0,0,1,5.36737-.14509s-.72532,2.32106.43522,2.46611,4.20686,1.5957,2.90126,3.48153a7.71788,7.71788,0,0,1-3.62658,2.6112s0,7.54333,3.04634,8.994a1.7456,1.7456,0,0,1,1.12366,2.32842l.76218-.15245a9.85908,9.85908,0,0,0,1.95869-1.05613,9.32727,9.32727,0,0,0,1.0626-.84684,6.39692,6.39692,0,0,0,2.201-4.77,17.20679,17.20679,0,0,1,.113-1.72261C179.76027,111.73707,181.56,103.39126,178.04664,101.10159Z"/><path class="cls-3" d="M239.63634,95.28158a4.90863,4.90863,0,0,0-.86091-1.642c-1.3056-1.3056-6.818-1.45065-10.44467-1.16051s-7.2532,4.93218-8.12361,8.12361,0,4.64208,0,4.64208c3.19143,1.01542,2.321-.87041,3.33648-1.3056a11.07411,11.07411,0,0,1,3.62662-.87037c1.5957-.14509,1.16051-2.176,1.16051-2.176s.14509.87037,1.88584,1.16051-.58024,1.16051-.2901,1.5957.43518,2.176,1.59569,2.176,1.01546,3.19143,1.16051,2.90129a16.42134,16.42134,0,0,1,3.2332-3.05446,1.73816,1.73816,0,0,1,1.55393-.137c1.58493,1.67815.35363,4.01418-.92113,5.66277a5.08154,5.08154,0,0,0,3.08764-2.68422Z"/><path class="cls-1" d="M209.63677,113.23907c-.10231-.25163-.20527-.50013-.30947-.74109-2.321-5.36737-4.497-13.34593-4.20686-15.95708a58.53951,58.53951,0,0,0,0-7.39829,8.66136,8.66136,0,0,0,3.5325-.78909,2.86439,2.86439,0,0,0,1.39968-3.853c-.2901-.87037-2.03088-7.97856-8.12361-9.13907-5.22232.43519-4.20686-5.07727-4.20686-5.07727l-.81359,1.1526c-1.618,3.803-1.50743,14.65944-1.50743,14.65944s-2.321-1.01543-2.75624-2.90126c-.2147-.93039.13579-3.62679.61548-6.58993l-.76053,1.07744a6.64585,6.64585,0,0,1-5.9951-.02715,9.91694,9.91694,0,0,1-3.79741-4.0349c-3.12756,1.75152-10.21413,5.90308-11.67707,7.25348-1.88583,1.74079-3.48153,9.8644-3.48153,9.8644l7.10815,3.48156a22.2412,22.2412,0,0,1,3.38976,6.88172c3.5134,2.28967,1.71363,10.63548,1.22021,15.33132a17.20679,17.20679,0,0,0-.113,1.72261,6.39692,6.39692,0,0,1-2.201,4.77c-.0308.49882-.05354.94185-.07055,1.32721a3.58826,3.58826,0,0,1,1.83639,1.88136c.00864.02939.01882.06655.028.09863l.029.00351c5.45691.65625,21.20153,2.28182,31.44539.61468.3484-.43426.72278-.8956,1.10962-1.3643.51881-.62863,1.05816-1.26771,1.584-1.86808A89.01254,89.01254,0,0,0,209.63677,113.23907Z"/><path class="cls-1" d="M199.812,135.78993s-.24867-.01579-1.59573-.19946c-.34176-.04659-.16587-.77525-.44878-.84773-.76466-.19584-1.20962-.18665-.748-.64827a6.478,6.478,0,0,1,3.24346-1.07823l-.25149.031s-.99732-.748-.34905-1.04719,4.38825.54851,4.38825.54851l-2.43442.30056c1.9334-.19532,4.07255-.26236,5.68015-.33225a10.447,10.447,0,0,1,2.38892.42462l-1.26031-2.88072-.13569-.00554c-.22947.05739-6.90463,1.15061-12.59695,1.71438-.87423.08658-1.78051-.2238-2.58062-.176-3.04684.18219-5.31572.52058-5.517.75544-.59841.69814,3.04184,1.24668,3.04184,1.24668s-6.18344,1.29652-5.43544,2.04452,3.69011.64827,3.69011.64827-.14959-.19946.59841.59841a4.93525,4.93525,0,0,0,3.24133,1.34637,30.71105,30.71105,0,0,0,3.85066-.87766,15.94615,15.94615,0,0,0,3.535-.34975.93566.93566,0,0,1-.504-.16883C199.03229,136.25688,199.812,135.78993,199.812,135.78993Z"/><path class="cls-1" d="M228.911,134.69288a70.25465,70.25465,0,0,1-11.60518-.145,36.21122,36.21122,0,0,1-4.33825-.78414c-.425-.09993-.8384-.201-1.23694-.30146-.7426-.18714-1.43055-.36729-2.04534-.5207a10.447,10.447,0,0,0-2.38892-.42462c-1.6076.06989-3.74675.13693-5.68015.33225l-1.35329.16708a6.478,6.478,0,0,0-3.24346,1.07823c-.46162.46162-.01666.45243.748.64827.28291.07248.107.80114.44878.84773,1.34706.18367,1.59573.19946,1.59573.19946s-.77973.46695-.19945,1.04722a.93566.93566,0,0,0,.504.16883,23.832,23.832,0,0,0,4.71369-.42727s-5.02733,1.759-3.72173,1.904,6.04279-.30831,7.2033-.16322c.9722.12151,1.74584,1.35814,3.76073,1.41664a5.97007,5.97007,0,0,0,1.18191-.09074c.04591-.00785.08772-.0114.13463-.02034,0,0,18.71333,4.93221,19.43865,4.497S230.79687,135.99847,228.911,134.69288Z"/><path class="cls-1" d="M199.66243,132.00009c-.64827.29919.34905,1.04719.34905,1.04719l.25149-.031c.43285-.06428.88562-.11983,1.35329-.16708l2.43442-.30056S200.3107,131.70087,199.66243,132.00009Z"/><path class="cls-1" d="M201.61626,132.84916c-.46767.04725-.92044.1028-1.35329.16708Z"/><path class="cls-1" d="M234.75657,114.47143a29.57979,29.57979,0,0,0,.88473,3.84466c1.76924.68534,3.70446,1.20463,3.85945.27462C239.68686,117.474,236.83,115.64223,234.75657,114.47143Z"/><path class="cls-1" d="M236.5487,111.19765c1.27476-1.64859,2.50606-3.98462.92113-5.66277a1.55534,1.55534,0,0,0-1.55393.137,16.73922,16.73922,0,0,0-3.2332,3.05446c-.145.29014,0-2.90129-1.16051-2.90129s-1.30559-1.74079-1.59569-2.176,2.03088-1.30557.2901-1.5957-1.88584-1.16051-1.88584-1.16051.43519,2.03088-1.16051,2.176a11.07411,11.07411,0,0,0-3.62662.87037c-1.01546.43519-.145,2.321-3.33648,1.3056a6.8296,6.8296,0,0,1,.14509,3.77167,2.67344,2.67344,0,0,0-.10111.37424c-.35132,1.71521.4642,4.82812,1.40667,6.44381a9.19781,9.19781,0,0,0,1.83993,2.34635,2.41294,2.41294,0,0,0,1.78669.7s-.00974.02475-.02371.06787a1.51827,1.51827,0,0,0,.749,1.963c1.28151.56957,8.70784.02082,10.0792-.82268.02578-.01586.05393-.03163.07533-.0477,0,0-.23858-.73289-.523-1.72526a29.57979,29.57979,0,0,1-.88473-3.84466c-.08827-.6864-.07915-1.21192.10211-1.39318A19.19958,19.19958,0,0,0,236.5487,111.19765Z"/><path class="cls-5" d="M232.8278,144.12206c.72533-.43522-2.03092-8.12361-3.91675-9.4292a70.254,70.254,0,0,1-11.60518-.14506,36.20907,36.20907,0,0,1-4.33824-.78413c-.425-.09994-.83841-.201-1.237-.30146-.7426-.18714-1.43055-.36729-2.04534-.5207l-1.2603-2.88072-.13569-.00554c-.224.056-6.70769,1.049-12.30373,1.59708-1.22549.12-1.80793-.12331-2.87387-.05864a23.02363,23.02363,0,0,0-5.517.75543c-.5984.69814,3.04184,1.24668,3.04184,1.24668s-6.18344,1.29651-5.43543,2.04452,3.69011.64827,3.69011.64827-.1496-.19946.5984.59841a4.93527,4.93527,0,0,0,3.24133,1.34637,30.71062,30.71062,0,0,0,3.85066-.87766,15.94623,15.94623,0,0,0,3.535-.34975,23.83283,23.83283,0,0,0,4.71369-.42727s-5.02733,1.75895-3.72174,1.904,6.0428-.3083,7.20331-.16322c.9722.12152,1.74584,1.35815,3.76072,1.41665a5.96948,5.96948,0,0,0,1.18192-.09075c.0459-.00784.08772-.01139.13462-.02033C213.38915,139.625,232.10248,144.55725,232.8278,144.12206Z"/><path class="cls-1" d="M150.62344,236.161c0,2.01031,9.85056,1.20618,10.85573.201.67787-.67786-.6217-2.80974-1.62153-4.96554l-6.48115-.84536C152.36712,232.5855,150.62344,234.77728,150.62344,236.161Z"/><path class="cls-1" d="M177.82751,161.4715l-2.41917-16.39833-.46131-3.12708,2.37368-.436,1.85052-.33989,2.88395-.52972s-2.50217-11.53732-3.28747-14.33383l-.021-.074c-.00918-.03208-.01937-.06924-.028-.09863a3.58821,3.58821,0,0,0-1.83638-1.88136,10.2037,10.2037,0,0,0-.99206-.48038,9.85884,9.85884,0,0,1-1.95869,1.05614l-.76218.15245a1.74559,1.74559,0,0,0-1.12365-2.32842c-1.051.32032-2.02724.579-2.94593.79229-12.39537,2.87831-13.15624-3.40345-13.15624-3.40345l-4.35194.29014c-4.352.29013-5.80259,6.52791-5.80259,6.52791s5.07726,5.36737,5.3674,5.80256c.19347.29024-.12372.84969-.23109,1.871a6.43152,6.43152,0,0,0,.086,1.90067c.32854,1.7521-2.56638,17.52539-3.88076,25.03786l-1.29623,4.83331s1.60588.46781,4.11642,1.14623c6.00542,1.62282,17.19557,4.45222,24.03644,4.98353,2.67207.20754,4.68151.06507,5.45677-.638l0,0-1.63332-10.325Z"/><path class="cls-1" d="M186.08271,173.01284c-1.01638-.81307-4.315-11.54134-4.315-11.54134l-1.965-15.36436-.63141-4.93692-1.85052.33989-2.37368.436.46131,3.12708,2.41917,16.39833h-.0168l1.63332,10.325,0,0h0a3.51084,3.51084,0,0,0,.22936,2.01216c.01951.40057.03854.85083.057,1.35412a4.9816,4.9816,0,0,1-1.16883,1.34764c-.15886.17015-.06963.44355.05343.64115a5.02245,5.02245,0,0,0,1.20811,1.13481,10.701,10.701,0,0,0,2.19414,1.2312c2.03274.81311,3.03591-2.31259,3.03591-2.31259S187.0991,173.826,186.08271,173.01284Z"/><path class="cls-14" d="M196.542,228.19656c-.57931,1.76821-1.75809,5.76126-.78733,6.316.62614.35779,2.66116,1.96791,4.65144,1.789a11.99447,11.99447,0,0,0,4.29457-1.3154c1.4312-.71558-2.68446-8.16639-2.68446-8.16639C202.01619,227.16964,198.67272,227.975,196.542,228.19656Z"/><path class="cls-14" d="M181.26551,232.08307c1.29678.71541,2.18,1.303,2.18,1.303s2.423,1.01467,3.0534,2.15171c1.4544-.31818,3.09356-.906,3.53092-1.56194.50515-.75774-1.304-3.3818-2.41387-4.86311a21.08229,21.08229,0,0,1-6.30254,1.608A4.46252,4.46252,0,0,1,181.26551,232.08307Z"/><path class="cls-1" d="M186.49887,235.53779c-.63041-1.137-3.0534-2.15171-3.0534-2.15171s-.88318-.5876-2.18-1.303c-.03207.17585-.06139.28593-.06139.28593l-1.79619-.03207-9.58717-.1712c-1.03641,2.93095,1.55733,2.98281,1.55733,2.98281s13.04805,2.65036,14.30051,2.02415C186.69148,236.66623,186.80377,236.08778,186.49887,235.53779Z"/><path class="cls-1" d="M213.25453,139.64537a5.96948,5.96948,0,0,1-1.18192.09075c-2.01488-.0585-2.78852-1.29513-3.76072-1.41665-1.16051-.14508-5.89775.30831-7.20331.16322s3.72174-1.904,3.72174-1.904a23.83283,23.83283,0,0,1-4.71369.42727,15.94623,15.94623,0,0,1-3.535.34975,30.71062,30.71062,0,0,1-3.85066.87766,4.93527,4.93527,0,0,1-3.24133-1.34637c-.748-.79787-.5984-.59841-.5984-.59841s-2.94211.09973-3.69011-.64827,5.43543-2.04452,5.43543-2.04452-3.64024-.54854-3.04184-1.24668a23.02363,23.02363,0,0,1,5.517-.75543c1.06594-.06467,1.64838.17867,2.87387.05864,5.596-.5481,12.0797-1.54105,12.30373-1.59708l.13569.00554-.25824-.59025s.87554-1.15046,2.05429-2.61966c-10.24387,1.66714-25.98849.04157-31.4454-.61468l-.008.07047c.7853,2.79651,3.28747,14.33383,3.28747,14.33383l-2.88395.52972.63141,4.93692,1.965,15.36436s3.29867,10.72827,4.315,11.54134-1.02957,4.1922-1.02957,4.1922-1.00317,3.1257-3.03591,2.31259a10.701,10.701,0,0,1-2.19414-1.2312c.29381,11.95317.374,37.04571-.06711,46.74974a10.167,10.167,0,0,0,1.348,4.97348,2.28883,2.28883,0,0,1,.20937.71114,21.08229,21.08229,0,0,0,6.30254-1.608c.382-.15107.66341-.2689.80375-.325.515-.206,1.4312-17.17455,2.86241-37.39042.97757-13.80834,1.375-29.92579,1.375-29.92579l3.1585-21.38578-.75829,21.38578s.16067,15.79256-.376,19.19167.89449,46.15663.17887,47.23c-.24915.37373.5437.42166,1.68187.30335,2.13075-.22152,5.47422-1.02692,5.47422-1.37676,0-.53671,2.3257-38.82166,3.2202-41.68407.54683-1.74983,3.03114-10.98475,4.84-18.80063.282-2.33066.75543-4.8636.75543-4.8636l1.08807-6.73553,1.59054-9.8457Z"/><path class="cls-1" d="M181.31338,230.72079a2.28883,2.28883,0,0,0-.20937-.71114,10.167,10.167,0,0,1-1.348-4.97348c.44111-9.704.36092-34.79657.06711-46.74974a13.13232,13.13232,0,0,1-1.18336-.97289.60533.60533,0,0,1,.03881-.93072,3.28527,3.28527,0,0,0,1.05184-1.22c-.01845-.50329-.03748-.95355-.057-1.35412a3.51084,3.51084,0,0,1-.22936-2.01216h0c-.77526.70309-2.7847.84556-5.45677.638-6.84087-.53131-18.031-3.36071-24.03644-4.98353-.53409,8.803,1.77857,62.88522,1.77857,62.88522l1.64714.21484,6.48115.84536,1.22231.15943.92465-13.40721,2.32773-33.75245s4.002,19.36625,4.70977,25.91229c.4028,3.72542,1.60633,12.68558.71552,17.83277-.4876,2.8175.06314,4.02444.06314,4.02444l.77609.01386,8.81108.15734,1.79619.03207s.02932-.11008.06139-.28593A4.46252,4.46252,0,0,0,181.31338,230.72079Z"/><path class="cls-1" d="M237.99781,161.01677c.31973-8.20579,1.35787-35.94305,1.35787-37.784,0-1.12241-1.65957-2.28258-3.26672-3.14373-1.37136.8435-8.7977,1.39225-10.0792.82268a1.5183,1.5183,0,0,1-.749-1.963c-2.37374.17692-8.128.738-9.84068,2.10811a23.40566,23.40566,0,0,0-2.50531,2.56171c-.52586.60037-1.06522,1.23945-1.584,1.86808-.38684.4687-.76122.93-1.10961,1.3643-1.17875,1.4692-2.05429,2.61966-2.05429,2.61966l.25824.59025,1.2603,2.88072c.61479.15341,1.30274.33356,2.04534.5207.39854.10042.81191.20152,1.237.30146a36.20907,36.20907,0,0,0,4.33824.78413,70.254,70.254,0,0,0,11.60518.14506c1.88583,1.30559,4.64208,8.994,3.91675,9.4292s-19.43865-4.497-19.43865-4.497c-.0469.00894-.08872.01249-.13462.02033l.25586,5.2449-1.59054,9.8457-1.08807,6.73553s-.47338,2.53294-.75543,4.8636c-.2167,1.79068-.32053,3.462-.00961,3.7729a8.21756,8.21756,0,0,0,1.95473.5631c1.10769.24843,2.61884.54951,4.36485.87162,3.03182.55931,6.77015,1.1815,10.33854,1.70134a100.55863,100.55863,0,0,0,10.63507,1.14142,4.63349,4.63349,0,0,0,1.68886-.16274C240.45353,173.52037,239.10085,166.07837,237.99781,161.01677Z"/><path class="cls-1" d="M231.41443,228.44182c.14591.77708.26783,1.41379.35676,1.87407l.10382.04769a8.21781,8.21781,0,0,1,1.25477,2.2937,1.72793,1.72793,0,0,0,.77773-2.31541l-1.39107-3.11335a4.91282,4.91282,0,0,1-.12874.71435C232.31347,228.21146,231.9385,228.39024,231.41443,228.44182Z"/><path class="cls-1" d="M228.31471,204.27819c-.4694,3.28559,1.23288,13.816,2.45994,20.67408.23752,1.32742.45708,2.51645.63978,3.48955.52407-.05158.899-.23036.97327-.499a4.91282,4.91282,0,0,0,.12874-.71435C232.987,223.23165,228.47039,203.18836,228.31471,204.27819Z"/><path class="cls-1" d="M233.12978,232.65728a8.21781,8.21781,0,0,0-1.25477-2.2937l-.10382-.04769c.10155.52552.16015.82133.16015.82133s-3.36118,1.87029-6.4025.618c-.71862-.29588-.22355-.6589-1.38843-2.77685-.82792.34349-5.7876,3.30623-6.86382,5.78153-.64785,1.49007,11.57895.19759,14.62027-.1602C233.26285,234.439,233.39607,233.568,233.12978,232.65728Z"/><path class="cls-1" d="M231.41443,228.44182c-.1827-.9731-.40226-2.16213-.63978-3.48955-1.22706-6.858-2.92934-17.38849-2.45994-20.67408a51.98642,51.98642,0,0,1,1.62-6.02263c2.13016-6.90453,5.75062-17.46971,7.42526-23.87008a100.55863,100.55863,0,0,1-10.63507-1.14142c-3.56839-.51984-7.30672-1.142-10.33854-1.70134-1.746-.32211-3.25716-.62319-4.36489-.87133-1.023,7.36812,3.71137,37.49,5.36277,42.596a121.46919,121.46919,0,0,0,5.83511,13.65475c.18338.35256.743,1.73242.92109,2.05625,1.16489,2.11795.66982,2.481,1.38843,2.77685,3.04132,1.25229,6.40251-.618,6.40251-.618s-.0586-.29581-.16015-.82133C231.68226,229.85561,231.56034,229.2189,231.41443,228.44182Z"/><path class="cls-13" d="M220.02291,176.87111s-5.50321,21.94621-5.318,26.0208"/><path class="cls-1" d="M224.1404,228.97836s-7.42216,3.04-7.60776,4.33914l.98983.61864A81.28667,81.28667,0,0,1,224.1404,228.97836Z"/><path class="cls-1" d="M143.243,123.09891s-5.01168-3.08717-4.653-3.80463,1.83372-.49074,2.47943.155a7.87409,7.87409,0,0,0,1.88655,1.21031"/><path class="cls-1" d="M174.947,141.94611c-.27956-.55213,3.30771-9.879,2.87723-10.88347"/><path class="cls-1" d="M151.15642,132.662a15.30928,15.30928,0,0,0,1.557-4.61262"/><path class="cls-1" d="M158.69976,118.44566c.4707-.29718,6.21033.205,8.57792-3.9562"/><path class="cls-1" d="M171.86186,108.456s-1.1404-.4236-1.9296,1.08305"/><path class="cls-1" d="M161.89829,112.95875a7.8773,7.8773,0,0,1-2.25139.19161c-.91151-.07926-1.87176-.45022-2.13163-.35926a.28214.28214,0,0,0-.19161.35926,2.94856,2.94856,0,0,0,4.14351,1.3173"/><path class="cls-1" d="M159.26369,110.99478s-1.10175.86223-1.84422.1437.55087-3.06571.55087-3.06571"/><path class="cls-1" d="M169.71548,111.68371c.07186-.04791.9545-1.17909,1.2123-.186"/><path class="cls-1" d="M169.347,105.19866s-1.59938-8.8984-5.1348-9.38309"/><path class="cls-1" d="M174.97341,100.70083a6.30529,6.30529,0,0,1,.26553,3.03682,6.50327,6.50327,0,0,1-1.07779,2.39509c-.59878.83829-3.08967,1.41311-3.18547,1.79632"/><path class="cls-1" d="M199.812,135.78993a32.05165,32.05165,0,0,1,4.07059-1.48427"/><path class="cls-1" d="M197.76751,134.74274s4.02187-1.00282,5.2665-1.116"/><path class="cls-1" d="M225.28442,118.88084s2.47671.6988,6.44238-3.04346"/><path class="cls-1" d="M227.33506,113.31426a.29369.29369,0,0,0-.47386-.28807,8.58691,8.58691,0,0,1-3.51258,1.6941s-.5027.391.89367.44684C225.48883,115.217,226.82439,115.712,227.33506,113.31426Z"/><path class="cls-1" d="M223.572,112.48611s-2.01076-.22342-1.95491-1.28466.89368-2.34589.83782-2.84858"/><path class="cls-1" d="M234.85868,113.07825a2.34893,2.34893,0,0,1-.73013-1.48582"/><path class="cls-1" d="M235.74833,108.35287s.782-.782.72611.11171-.27927,1.8432-.67025,1.8432"/><path class="cls-1" d="M228.911,134.69288c-.03282-.31178,6.78144-11.14757,7.95438-11.5944"/><path class="cls-1" d="M217.30586,134.54783s2.63563-4.80266,2.41221-6.47829"/><path class="cls-1" d="M232.82779,144.12208a2.52325,2.52325,0,0,0,2.9764-1.08352,25.42771,25.42771,0,0,1,2.90444-3.29542"/><path class="cls-1" d="M205.12044,89.14261s-1.22908-7.52613-1.539-7.991"/><path class="cls-1" d="M193.04475,57.13413s-.92971-4.95845-.15495-6.81787"/><path class="cls-1" d="M186.40711,52.00605s1.28824-5.78771,5.51245-6.52788"/><path class="cls-1" d="M185.68179,71.29965s2.55946,1.48459,4.57383-.21988,4.64855-4.18369,4.64855-4.18369"/><path class="cls-1" d="M184.59439,64.07121s-1.34752,1.6844.28073,1.96514,1.96514-.56147,1.96514-.56147"/><path class="cls-1" d="M185.99806,67.6646a6.18257,6.18257,0,0,0,3.67248-.33491c.12752-.06656.1455.27877-.416.61565s-1.85284,1.29137-2.80734.72991"/><circle class="cls-3" cx="189.33879" cy="62.078" r="0.36495"/><circle class="cls-3" cx="226.31147" cy="108.42719" r="0.36495"/><circle class="cls-3" cx="162.86557" cy="107.41655" r="0.36495"/><circle class="cls-3" cx="156.52098" cy="107.16389" r="0.36495"/><circle class="cls-3" cx="221.20211" cy="108.25875" r="0.36495"/><circle class="cls-3" cx="183.75219" cy="60.25322" r="0.36495"/><line class="cls-1" x1="140.98987" y1="118.09556" x2="139.39957" y2="115.30145"/><path class="cls-1" d="M188.89127,136.28859a15.41451,15.41451,0,0,0,3.20365-1.231"/><path class="cls-1" d="M190.12513,137.24628a14.93062,14.93062,0,0,0,3.17355-1.20376"/><line class="cls-1" x1="136.09363" y1="114.34042" x2="139.28425" y2="117.99232"/><path class="cls-1" d="M179.73038,175.16283s.8896,1.608,1.18363.43183,1.17614-3.08737,1.02913-3.60194"/><path class="cls-1" d="M181.94314,171.99272s1.10263,5.07212-.8086,5.36615-1.69071-1.47017-2.4258-1.02912.147,1.24965.147,1.24965"/><path class="cls-1" d="M181.86963,176.99133s-.763-.53393-1.57165-1.122"/><path class="cls-1" d="M181.17955,179.15519c.10686.29385,3.927-1.57615,4.0873-2.51115"/></g></svg>