<?xml version="1.0" encoding="UTF-8"?>
<svg width="434px" height="397px" viewBox="0 0 434 397" version="1.1" xmlns="http://www.w3.org/2000/svg" xmlns:xlink="http://www.w3.org/1999/xlink">
    <!-- Generator: Sketch 59.1 (86144) - https://sketch.com -->
    <title>services-infographic</title>
    <desc>Created with Sketch.</desc>
    <g id="Page-1" stroke="none" stroke-width="1" fill="none" fill-rule="evenodd">
        <g id="services-infographic">
            <g id="Group" transform="translate(46.000000, 166.000000)" fill-rule="nonzero">
                <path d="M287.86,0.5 C287.86,0.5 272.32,0.17 247.77,4.71 C253.85,18.79 264.61,39.79 278.78,51.73 C285.67,43.21 292.14,33.9 298.05,23.7 C310.81,1.66 287.86,0.5 287.86,0.5 Z" id="Path" fill="#4890BA"></path>
                <path d="M77.54,154.15 C70.97,154.26 61.93,147.69 55.28,137.31 C50.14,129.27 47.66,120.88 48.13,114.75 C47.23,114.39 46.31,114.04 45.38,113.69 C39.78,118.28 41.41,131.4 49.28,143.69 C57.44,156.45 69.23,163.48 75.61,159.39 C76.35,158.92 76.98,158.31 77.51,157.6 C77.55,156.41 77.57,155.26 77.54,154.15 Z" id="Path" fill="#4890BA"></path>
                <path d="M74.58,141.55 C71.33,141.55 55.44,118.56 55.77,118.17 C53.44,116.97 50.86,115.83 48.14,114.74 C47.67,120.87 50.15,129.26 55.29,137.3 C61.93,147.68 70.97,154.25 77.55,154.14 C77.46,149.47 76.75,145.53 75.18,142.87 C74.91,142.43 74.72,141.99 74.58,141.55 Z" id="Path" fill="#DCEFFA"></path>
                <path d="M159.79,128.6 C123.98,139.31 92.77,141.26 78.24,141.52 C76.87,141.54 75.64,141.56 74.58,141.56 C74.72,142 74.91,142.44 75.17,142.88 C76.74,145.54 77.45,149.48 77.54,154.15 C77.56,155.26 77.55,156.41 77.5,157.6 C76.87,174.92 69.59,199.75 66.1,210.75 C65.25,213.43 67.62,216 70.38,215.41 C119.11,205.08 160.6,130.18 160.94,129.17 L159.79,128.6 Z" id="Path" fill="#4890BA"></path>
                <path d="M1.06,96.36 C-0.77,98.49 0.34,101.81 3.1,102.35 C12.26,104.15 30.54,108.12 45.39,113.68 C46.32,114.03 47.24,114.38 48.14,114.74 C50.86,115.83 53.44,116.97 55.77,118.17 C56.73,117.03 57.7,115.92 58.67,114.8 C78.57,91.9 99.45,73.57 120.18,58.93 L120.2,58.35 C119.15,58.17 33.53,58.58 1.06,96.36 Z" id="Path" fill="#4890BA"></path>
                <g transform="translate(55.000000, 4.000000)">
                    <path d="M192.77,0.72 C160.75,6.65 113.4,20.87 65.17,54.94 C44.44,69.59 23.56,87.91 3.66,110.81 C2.69,111.93 1.72,113.04 0.76,114.18 C0.43,114.57 16.32,137.56 19.57,137.56 C20.63,137.56 21.86,137.55 23.23,137.52 C37.76,137.26 68.97,135.3 104.78,124.6 C144.28,112.79 189.35,90.32 223.78,47.74 C209.62,35.8 198.85,14.8 192.77,0.72 Z M92.56,108.51 C80.36,108.51 70.46,98.62 70.46,86.41 C70.46,74.21 80.35,64.31 92.56,64.31 C104.77,64.31 114.66,74.2 114.66,86.41 C114.65,98.62 104.76,108.51 92.56,108.51 Z M157.09,75.89 C144.89,75.89 134.99,66 134.99,53.79 C134.99,41.59 144.88,31.69 157.09,31.69 C169.3,31.69 179.19,41.58 179.19,53.79 C179.19,65.99 169.29,75.89 157.09,75.89 Z" id="Shape" fill="#F4F4F5"></path>
                    <path d="M92.03,64.49 C79.83,64.49 69.93,74.38 69.93,86.59 C69.93,98.8 79.82,108.69 92.03,108.69 C104.23,108.69 114.13,98.8 114.13,86.59 C114.13,74.38 104.23,64.49 92.03,64.49 Z M92.03,102.9 C83.03,102.9 75.73,95.6 75.73,86.6 C75.73,77.6 83.03,70.3 92.03,70.3 C101.03,70.3 108.33,77.6 108.33,86.6 C108.33,95.6 101.03,102.9 92.03,102.9 Z" id="Shape" fill="#DCEFFA"></path>
                    <circle id="Oval" fill="#F5C65D" transform="translate(92.038082, 86.590776) rotate(-67.499572) translate(-92.038082, -86.590776) " cx="92.038082" cy="86.590776" r="16.3004116"></circle>
                    <path d="M157.09,31.69 C144.89,31.69 134.99,41.58 134.99,53.79 C134.99,65.99 144.88,75.89 157.09,75.89 C169.3,75.89 179.19,66 179.19,53.79 C179.19,41.59 169.29,31.69 157.09,31.69 Z M157.09,70.1 C148.09,70.1 140.79,62.8 140.79,53.8 C140.79,44.8 148.09,37.5 157.09,37.5 C166.09,37.5 173.39,44.8 173.39,53.8 C173.39,62.8 166.09,70.1 157.09,70.1 Z" id="Shape" fill="#DCEFFA"></path>
                    <circle id="Oval" fill="#F5C65D" transform="translate(157.098324, 53.788082) rotate(-67.499572) translate(-157.098324, -53.788082) " cx="157.098324" cy="53.788082" r="16.3004116"></circle>
                </g>
            </g>
            <g id="Group" transform="translate(50.000000, 168.000000)" stroke="#54575C">
                <path d="M288.59,0.59 C288.59,0.59 273.05,0.26 248.5,4.8 C254.58,18.88 265.34,39.88 279.51,51.82 C286.4,43.3 292.87,33.99 298.78,23.79 C311.54,1.75 288.59,0.59 288.59,0.59 Z" id="Path"></path>
                <path d="M78.27,154.24 C71.7,154.35 62.66,147.78 56.01,137.4 C50.87,129.36 48.39,120.97 48.86,114.84 C47.96,114.48 47.04,114.13 46.11,113.78 C40.51,118.37 42.14,131.49 50.01,143.78 C58.17,156.54 69.96,163.57 76.34,159.48 C77.08,159.01 77.71,158.4 78.24,157.69 C78.28,156.5 78.3,155.35 78.27,154.24 Z" id="Path"></path>
                <path d="M75.31,141.65 C72.06,141.65 56.17,118.66 56.5,118.27 C54.17,117.07 51.59,115.93 48.87,114.84 C48.4,120.97 50.88,129.36 56.02,137.4 C62.66,147.78 71.7,154.35 78.28,154.24 C78.19,149.57 77.48,145.63 75.91,142.97 C75.64,142.52 75.45,142.08 75.31,141.65 Z" id="Path"></path>
                <path d="M160.52,128.69 C124.71,139.4 93.5,141.35 78.97,141.61 C77.6,141.63 76.37,141.65 75.31,141.65 C75.45,142.09 75.64,142.53 75.9,142.97 C77.47,145.63 78.18,149.57 78.27,154.24 C78.29,155.35 78.28,156.5 78.23,157.69 C77.6,175.01 70.32,199.84 66.83,210.84 C65.98,213.52 68.35,216.09 71.11,215.5 C119.84,205.17 161.33,130.27 161.67,129.26 L160.52,128.69 Z" id="Path"></path>
                <path d="M1.79,96.45 C-0.04,98.58 1.07,101.9 3.83,102.44 C12.99,104.24 31.27,108.21 46.12,113.77 C47.05,114.12 47.97,114.47 48.87,114.83 C51.59,115.92 54.17,117.06 56.5,118.26 C57.46,117.12 58.43,116.01 59.4,114.89 C79.3,91.99 100.18,73.66 120.91,59.02 L120.93,58.44 C119.88,58.26 34.26,58.68 1.79,96.45 Z" id="Path"></path>
                <g transform="translate(56.000000, 4.000000)">
                    <path d="M192.5,0.81 C160.48,6.74 113.13,20.96 64.9,55.03 C44.18,69.68 23.3,88 3.4,110.9 C2.43,112.02 1.46,113.13 0.5,114.27 C0.17,114.66 16.06,137.65 19.31,137.65 C20.37,137.65 21.6,137.64 22.97,137.61 C37.5,137.35 68.71,135.39 104.52,124.69 C144.02,112.88 189.09,90.41 223.52,47.83 C209.35,35.89 198.58,14.89 192.5,0.81 Z M90,109.66 C77.8,109.66 67.9,99.77 67.9,87.56 C67.9,75.35 77.79,65.46 90,65.46 C102.2,65.46 112.1,75.35 112.1,87.56 C112.1,99.77 102.21,109.66 90,109.66 Z M156.82,75.98 C144.62,75.98 134.72,66.09 134.72,53.88 C134.72,41.68 144.61,31.78 156.82,31.78 C169.02,31.78 178.92,41.67 178.92,53.88 C178.92,66.09 169.02,75.98 156.82,75.98 Z" id="Shape"></path>
                    <path d="M90,65.46 C77.8,65.46 67.9,75.35 67.9,87.56 C67.9,99.77 77.79,109.66 90,109.66 C102.2,109.66 112.1,99.77 112.1,87.56 C112.1,75.35 102.21,65.46 90,65.46 Z M90,103.86 C81,103.86 73.7,96.56 73.7,87.56 C73.7,78.56 81,71.26 90,71.26 C99,71.26 106.3,78.56 106.3,87.56 C106.3,96.56 99.01,103.86 90,103.86 Z" id="Shape"></path>
                    <circle id="Oval" stroke-width="1.00002525" transform="translate(90.011884, 87.563912) rotate(-67.499572) translate(-90.011884, -87.563912) " cx="90.011884" cy="87.563912" r="16.3004116"></circle>
                    <path d="M156.82,31.79 C144.62,31.79 134.72,41.68 134.72,53.89 C134.72,66.09 144.61,75.99 156.82,75.99 C169.02,75.99 178.92,66.1 178.92,53.89 C178.92,41.68 169.02,31.79 156.82,31.79 Z M156.82,70.19 C147.82,70.19 140.52,62.89 140.52,53.89 C140.52,44.89 147.82,37.59 156.82,37.59 C165.82,37.59 173.12,44.89 173.12,53.89 C173.12,62.89 165.82,70.19 156.82,70.19 Z" id="Shape"></path>
                    <circle id="Oval" stroke-width="1.00002525" transform="translate(156.827446, 53.878678) rotate(-67.499572) translate(-156.827446, -53.878678) " cx="156.827446" cy="53.878678" r="16.3004116"></circle>
                </g>
                <path d="M89.75,83.45 C89.75,83.45 45.87,81.37 4.08,99.61" id="Path"></path>
                <path d="M119.77,137.72 C119.77,137.72 103.84,185.75 68.27,211.85" id="Path"></path>
            </g>
            <path d="M322.25,215.41 C315.01,227.03 269.46,290.35 125.9,310.810216 C125.9,310.810216 257.82,311.59 326,219.33 C324.67,218.1 323.4,216.82 322.25,215.41 Z" id="Path" fill="#54575C" fill-rule="nonzero"></path>
            <g id="Group" transform="translate(132.000000, 60.000000)" fill="#FFFFFF" fill-rule="nonzero">
                <g transform="translate(0.000000, 61.000000)" id="Path">
                    <path d="M135.47,84.9 C135.54,82.93 126.02,81.97 121.86,81.7 L117.75,90.09 L117.62,90.04 C119.06,93.01 122.01,98.68 123.62,98.75 C125.81,98.84 129.81,93.92 129.81,93.92 C129.81,93.92 132.09,96.38 134.09,96.01 C136.09,95.65 129.26,86.26 129.26,86.26 C129.26,86.26 135.38,87.36 135.47,84.9 Z"></path>
                    <path d="M121.86,81.69 L121.86,81.69 C121.86,81.69 104.74,72.27 101.31,67.13 C100.32,65.64 98.44,63.21 96.08,60.51 C90.85,54.52 83.24,47.22 77.61,45.93 L75.72,45.84 C73.44,47.67 70.15,48.96 65.84,48.98 C65.84,48.98 66.44,73.73 46.91,67.58 C46.72,67.6 46.54,67.63 46.34,67.65 C46.34,67.65 18.26,86.49 16.2,89.57 C14.15,92.65 23.22,92.82 23.22,92.82 C23.22,92.82 41.88,89.57 51.47,92.48 C61.06,95.39 72.87,84.95 72.87,84.95 L74.92,70.57 C74.92,70.57 103.34,88.21 114.65,88.89 L117.61,90.04 L117.74,90.09 L121.86,81.69 Z"></path>
                    <path d="M83.96,18.66 C83.18,19.1 82.7,19.94 82.91,20.81 C83.52,23.34 83.51,28 76.6,30.62 C76.6,30.62 90.5,31.03 89.11,20.54 C89.11,20.54 93.45,18.65 91.18,17.25 C89.32,16.11 87.12,14.81 86.38,14.38 C85.95,16.41 85.19,17.97 83.96,18.66 Z"></path>
                    <path d="M82.36,5.38 C81.74,-0.34 75.95,1.75 75.67,1.69 C51.08,-3.52 57.77,21.25 57.77,21.25 C57.77,21.25 52.18,18.59 46.17,32.43 C40.16,46.26 17.38,44.87 12.91,47.24 C8.44,49.62 3.69,53.39 6.48,62.61 C9.27,71.83 26.95,58.86 28.44,59.31 C32.21,60.44 22.69,67.5 22.69,67.5 C25.48,82.03 35.11,71.07 37.2,67.41 C39.29,63.75 42.43,65.78 42.43,65.78 C44.04,66.55 45.53,67.14 46.92,67.58 C66.45,73.74 65.85,48.98 65.85,48.98 C70.16,48.96 73.45,47.66 75.73,45.84 C79.4,42.89 80.42,38.54 78.69,35.85 C75.9,31.49 76.6,30.62 76.6,30.62 C83.51,28 83.52,23.34 82.91,20.81 C82.7,19.94 83.18,19.1 83.96,18.66 C85.19,17.97 85.95,16.41 86.38,14.39 C87.12,10.98 82.81,9.54 82.36,5.38 Z"></path>
                    <g transform="translate(0.000000, 83.000000)">
                        <path d="M23.23,9.82 C23.11,10.17 23.01,10.51 22.92,10.86 C23.02,10.52 23.11,10.18 23.23,9.82 Z"></path>
                        <path d="M22.92,10.86 C23.01,10.51 23.11,10.17 23.23,9.82 C23.23,9.82 7.9,24.09 0.65,25.48 L24.19,22.93 C23.96,22.54 23.73,22.07 23.52,21.53 C23.42,21.39 23.32,21.26 23.23,21.11 C21.93,18.93 21.51,15.67 22.92,10.86 Z"></path>
                        <path d="M22.92,10.86 C21.51,15.67 21.93,18.93 23.23,21.11 C23.32,21.26 23.43,21.39 23.52,21.53 C22.52,19.02 21.84,15.01 22.92,10.86 Z"></path>
                        <path d="M86.13,67.17 C85.87,68.07 85.63,68.9 85.41,69.65 C84.53,72.65 82.4,75.12 79.57,76.44 L73.53,79.25 C72.98,80.62 72.11,83.93 76.27,84.62 C81.54,85.5 97.37,74.95 97.01,69.15 C96.73,64.52 89.17,66.27 86.13,67.17 Z"></path>
                        <path d="M100.8,4.69 C98.92,-3.7 73.4,1.95 72.89,1.95 C72.89,1.95 61.07,12.4 51.49,9.48 C41.9,6.57 23.24,9.82 23.24,9.82 C23.12,10.18 23.03,10.51 22.93,10.86 C21.85,15.01 22.53,19.02 23.53,21.54 C26.67,26.08 33.68,25.58 33.68,25.58 C53.37,45.79 79.91,22.5 79.91,22.5 L71.86,80.03 L73.19,79.41 L73.53,79.25 L79.57,76.44 C82.41,75.12 84.53,72.65 85.41,69.65 C85.63,68.9 85.87,68.06 86.13,67.17 C90.94,50.61 102.17,10.79 100.8,4.69 Z"></path>
                    </g>
                    <path d="M104.31,56.13 C92.89,54.57 91.59,47.17 91.59,47.17 L92.07,46.63 L77.62,45.93 C83.25,47.22 90.85,54.52 96.09,60.51 L103.52,60.67 C103.62,59.34 103.97,57.84 104.64,56.16 C104.52,56.15 104.42,56.15 104.31,56.13 Z"></path>
                </g>
                <path d="M57.09,79.57 C57.09,79.57 56.95,82.64 58.35,84.18 C59.75,85.72 81.41,80.41 82.67,79.57 C83.93,78.73 84.21,84.18 86.02,81.39 C87.83,78.6 87,75.1 87,75.1 C87,75.1 88.26,79.43 89.79,78.31 C91.33,77.19 87.63,67.16 85.53,67.44 C83.43,67.72 80.62,67.56 80.48,70.77 C80.34,73.98 79.45,75.94 79.45,75.94 C79.45,75.94 75.24,78.03 71.07,79.15 C65.05,80.77 58,80.89 57.09,79.57 Z" id="Path"></path>
                <g transform="translate(91.000000, 0.000000)" id="Path">
                    <path d="M72.01,162.66 C70.34,166.02 69.21,168.05 69.21,168.05 C69.21,168.05 65.41,177.29 58.53,176.02 L57.89,175.85 C57.37,177.44 57.02,180.27 60.88,180.91 C66.31,181.82 82.61,170.95 82.25,164.97 C81.98,160.63 75.53,161.73 72.01,162.66 Z"></path>
                    <path d="M69.21,168.05 C69.21,168.05 70.34,166.02 72.01,162.66 C77.25,152.11 89.08,130.64 87.43,113.89 C86.19,101.24 70.66,100.94 57.84,103.92 C53.83,104.85 50.09,106.1 47.12,107.39 C43.01,109.18 39.33,111.55 39.33,111.55 C39.33,111.55 30.82,111.55 23.58,115.72 C21.58,116.87 13.84,116.64 13.64,117.17 C8.3,130.68 23.22,132.2 23.22,132.2 C35.72,154.29 56.18,133.65 56.18,133.65 L63.31,129.31 L56.54,175.48 L57.9,175.85 L58.54,176.02 C65.4,177.28 69.21,168.05 69.21,168.05 Z"></path>
                    <path d="M61,33.81 C58.27,33.14 57.22,33.59 57.22,33.59 C57.22,33.59 57.83,30.59 55.61,31.81 C55.61,31.81 51.16,29.81 51.61,28.58 C52.05,27.36 51.39,22.41 45.49,25.63 C45.49,25.63 45.77,22.57 41.49,23.79 C37.21,25.01 34.48,29.02 34.48,29.02 C34.48,29.02 31.2,28.52 31.37,29.85 C31.54,31.18 29.59,30.02 29.59,30.02 C29.59,30.02 27.09,30.24 27.64,33.3 C28.2,36.36 24.91,33.08 24.91,33.08 C24.91,33.08 22.35,31.3 22.85,34.92 C23.35,38.53 24.13,39.76 24.13,39.76 C24.13,39.76 15.84,40.98 18.62,46.71 C21.4,52.44 21.79,52.38 21.79,52.38 C21.79,52.38 16.17,61.5 24.9,63.56 C24.9,63.56 26.73,73.06 32,72.4 C32.96,72.28 34.04,71.82 35.24,70.9 C35.24,70.9 40.8,74.46 44.97,66.73 C44.97,66.73 44.3,63.39 47.31,63.67 C48.44,63.77 49.51,65.32 51.48,65.56 C53.12,65.76 54.15,63.86 54.79,61.75 C55.05,60.88 55.25,59.98 55.4,59.17 C55.67,57.67 55.76,56.49 55.76,56.49 C55.76,56.49 53.15,58.38 50.81,55.93 C50.81,55.93 46.64,57.15 45.92,54.04 C45.92,54.04 47.92,53.15 48.76,48.76 C48.76,48.76 49.76,41.47 54.32,42.98 C54.32,42.98 56.71,43.2 57.05,42.76 C57.38,42.32 57.27,38.92 59.55,38.87 C60.05,38.86 60.53,38.63 60.95,38.29 C62.44,37.08 63.13,34.33 61,33.81 Z"></path>
                    <g>
                        <path d="M89.97,108.84 C90.63,109.94 94.71,110.05 94.71,110.05 L107.07,108.62 C107.07,108.62 98.79,106.85 97.47,104.76 C96.41,103.08 82.4,87.68 76.81,81.55 L68.57,92 C75.04,96.94 89.46,107.99 89.97,108.84 Z"></path>
                        <path d="M110.49,1.05 C109.17,-0.72 96.81,11.31 96.81,11.31 L63.27,39.56 L61.57,41.29 C61.37,43.77 61.24,46.83 61.83,47.05 C62.83,47.44 66.56,47.55 66.28,49.55 C66,51.55 63.15,50.94 63.15,50.94 C63.46,55.43 61.96,58.06 60.06,59.62 L60.2,60.29 C61.04,60.64 61.85,61.06 62.64,61.54 C69.75,52.47 96.97,18.11 100.99,17.82 C105.62,17.49 105.94,13.56 106.93,12.35 C107.92,11.14 106.06,9.99 106.06,9.99 C106.17,8.89 104.07,7.89 104.07,7.89 C104.07,7.89 111.82,2.81 110.49,1.05 Z"></path>
                        <path d="M61.84,47.04 C61.25,46.81 61.37,43.76 61.58,41.28 C61.72,39.55 61.9,38.09 61.9,38.09 L60.96,38.29 C60.54,38.63 60.06,38.86 59.56,38.87 C57.28,38.93 57.39,42.32 57.06,42.76 C56.73,43.2 54.33,42.98 54.33,42.98 C49.77,41.48 48.77,48.76 48.77,48.76 C47.94,53.15 45.93,54.04 45.93,54.04 C46.65,57.15 50.82,55.93 50.82,55.93 C53.16,58.38 55.77,56.49 55.77,56.49 C55.77,56.49 55.68,57.66 55.41,59.17 C56.78,59.25 58.16,59.52 59.53,60.02 C59.71,59.9 59.88,59.75 60.06,59.61 C61.96,58.06 63.46,55.43 63.15,50.93 C63.15,50.93 66,51.54 66.28,49.54 C66.56,47.54 62.84,47.43 61.84,47.04 Z"></path>
                        <path d="M62.66,61.54 C61.87,61.06 61.05,60.64 60.22,60.29 L60.08,59.62 C59.91,59.76 59.73,59.91 59.55,60.03 C58.18,59.53 56.8,59.26 55.43,59.18 C55.28,59.99 55.09,60.89 54.82,61.76 C54.18,63.87 53.14,65.77 51.51,65.57 C49.54,65.32 48.47,63.78 47.34,63.68 C44.34,63.4 45,66.74 45,66.74 C40.83,74.47 35.27,70.91 35.27,70.91 C34.07,71.83 32.99,72.29 32.03,72.41 C31.35,73.19 30.98,73.66 30.98,73.66 L0.61,108.18 C0.61,108.18 1.91,115.58 13.33,117.14 C13.44,117.15 13.54,117.16 13.65,117.17 C13.86,116.64 21.59,116.87 23.59,115.72 C30.83,111.55 39.34,111.55 39.34,111.55 C39.34,111.55 43.02,109.18 47.13,107.39 C50.09,106.1 53.84,104.85 57.85,103.92 C57.72,100.85 58.15,96.77 59.8,94.42 C62.27,90.92 62.66,88.84 62.66,88.84 L65.78,95.59 L68.6,92.01 L76.84,81.56 L77.85,80.28 C77.82,80.27 71.69,67.04 62.66,61.54 Z"></path>
                    </g>
                </g>
                <path d="M138.06,53.2 L146.08,49.01 C146.08,49.01 149.44,50.78 150.65,49.2 C151.86,47.62 152.05,46.4 152.05,46.4 C152.05,46.4 156.06,47.8 156.52,46.59 C156.98,45.38 157.92,37.64 153.16,36.43 C153.16,36.43 152.13,38.48 149.52,39.51 C146.91,40.54 148.05,42.78 148.05,42.78 C148.05,42.78 144.95,43.06 144.58,43.06 C144.21,43.06 144.21,45.95 144.21,45.95 L138.06,53.2 Z" id="Path"></path>
                <path d="M154.83,128.22 L164.9,122.31 C164.9,122.31 153.08,135.07 153.35,134.26 C153.62,133.45 154.83,128.22 154.83,128.22 Z" id="Path"></path>
                <polygon id="Path" points="80.3 165.15 87.42 158.17 78.96 173.48"></polygon>
                <path d="M60,108.12 C60,108.12 57.95,121.98 47.16,120.19" id="Path"></path>
                <path d="M60.49,83.69 C60.49,83.69 54.07,82.35 50.46,95.99 C46.85,109.63 39.9,106.55 39.9,106.55" id="Path"></path>
                <path d="M113.31,49.32 C113.31,49.32 109.57,54.8 106.76,51.19" id="Path"></path>
                <path d="M116.78,61.22 C116.78,61.22 113.57,66.7 110.09,65.5" id="Path"></path>
                <path d="M117.85,63.76 C117.85,63.76 117.72,70.18 113.97,70.04" id="Path"></path>
                <path d="M140.99,29.13 C140.99,29.13 145.4,23.78 149.01,27.12" id="Path"></path>
            </g>
            <path d="M199.59,70.3 L289.06,70.3 C292.89,70.3 296.54,68.45 298.62,65.24 C300.94,61.67 302.29,57.37 302.29,52.75 C302.29,40.32 292.51,30.24 280.43,30.24 C276.83,30.24 273.44,31.14 270.45,32.73 C270.45,32.72 270.45,32.71 270.45,32.7 C270.45,18.6 259.35,7.18 245.67,7.18 C232.64,7.18 221.96,17.54 220.97,30.7 C218.97,27.6 216.08,25.65 212.88,25.65 C207,25.65 202.2,32.2 201.94,40.43 C201.7,40.42 201.47,40.41 201.23,40.41 C193.47,40.41 187.17,47.34 187.17,55.88 C187.17,59.77 188.47,63.32 190.63,66.04 C192.79,68.77 196.12,70.3 199.59,70.3 Z" id="Path" fill="#FFFFFF" fill-rule="nonzero"></path>
            <g id="Group" transform="translate(193.000000, 10.000000)">
                <path d="M59.14,31.31 L77.17,8.2 C72.66,3.33 66.29,0.29 59.24,0.29 C46.21,0.29 35.53,10.65 34.54,23.81 C32.54,20.71 29.65,18.76 26.45,18.76 C21.79,18.76 17.81,22.87 16.23,28.66 L22.12,28.54 L21.74,36.87" id="Path" stroke="#B4B5B7"></path>
                <path d="M45.33,37.75 L24.93,63.42 L13.16,63.42 C9.68,63.42 6.35,61.89 4.19,59.16 C2.04,56.44 0.73,52.89 0.73,49 C0.73,40.45 7.02,33.53 14.79,33.53 C15.03,33.53 15.27,33.54 15.5,33.55 L17.57,33.58 L13.14,41.04" id="Path" stroke="#B4B5B7"></path>
                <path d="M49.56,56.2 L38.63,56.16 C38.63,56.16 34.91,63.09 34.76,63.42 L102.62,63.42 C106.45,63.42 110.1,61.57 112.18,58.36 C114.5,54.79 115.85,50.49 115.85,45.87 C115.85,33.44 106.07,23.36 93.99,23.36 C90.39,23.36 87,24.26 84.01,25.85 C84.01,25.84 84.01,25.83 84.01,25.82 C84.01,21.07 82.75,16.63 80.56,12.82 L75.4,18.6" id="Path" stroke="#B4B5B7"></path>
                <line x1="74.22" y1="5.57" x2="64.11" y2="18.28" id="Path" stroke="#B4B5B7"></line>
                <path d="M34.76,50.77 C34.6,50.77 16.92,51.09 16.92,51.09" id="Path" stroke="#B4B5B7"></path>
                <line x1="39.68" y1="44.6" x2="24.54" y2="44.6" id="Path" stroke="#B4B5B7"></line>
                <circle id="Oval" fill="#B4B5B7" fill-rule="nonzero" cx="12.13" cy="42.74" r="2.41"></circle>
                <circle id="Oval" fill="#B4B5B7" fill-rule="nonzero" cx="23.41" cy="44.39" r="2.41"></circle>
                <circle id="Oval" fill="#B4B5B7" fill-rule="nonzero" cx="21.87" cy="37.04" r="2.41"></circle>
                <circle id="Oval" fill="#B4B5B7" fill-rule="nonzero" cx="16.27" cy="51.2" r="2.41"></circle>
                <circle id="Oval" fill="#B4B5B7" fill-rule="nonzero" cx="46.15" cy="36.83" r="2.41"></circle>
                <circle id="Oval" fill="#B4B5B7" fill-rule="nonzero" cx="50.96" cy="56.62" r="2.41"></circle>
                <circle id="Oval" fill="#B4B5B7" fill-rule="nonzero" cx="58.85" cy="32.72" r="2.41"></circle>
                <circle id="Oval" fill="#B4B5B7" fill-rule="nonzero" cx="63.01" cy="19.42" r="2.41"></circle>
                <circle id="Oval" fill="#B4B5B7" fill-rule="nonzero" cx="74.96" cy="19.69" r="2.41"></circle>
            </g>
            <path d="M170.66,177.62 L51.53,177.62 C46.43,177.62 41.58,175.15 38.8,170.88 C35.71,166.12 33.91,160.41 33.91,154.25 C33.91,137.7 46.94,124.28 63.01,124.28 C67.8,124.28 72.31,125.48 76.3,127.59 C76.3,127.58 76.3,127.57 76.3,127.55 C76.3,108.78 91.07,93.56 109.3,93.56 C126.65,93.56 140.87,107.36 142.19,124.88 C144.86,120.75 148.7,118.16 152.97,118.16 C160.81,118.16 167.2,126.89 167.54,137.84 C167.86,137.82 168.17,137.81 168.49,137.81 C178.83,137.81 187.2,147.03 187.2,158.41 C187.2,163.59 185.46,168.32 182.6,171.93 C179.72,175.57 175.29,177.62 170.66,177.62 Z" id="Path" fill="#FFFFFF" fill-rule="nonzero"></path>
            <g id="Group" transform="translate(39.000000, 97.000000)">
                <path d="M51.51,11.09 C57.52,4.6 66.01,1.09 75.39,0.56 C82.25,0.17 90.87,4.4 90.87,4.4 L51.55,51.7" id="Path" stroke="#B4B5B7"></path>
                <path d="M132.6,65.14 L121.08,84.61 L136.75,84.61 C141.38,84.61 145.81,82.57 148.69,78.94 C151.55,75.32 153.29,70.59 153.29,65.42 C153.29,54.04 144.91,44.82 134.58,44.82 C134.26,44.82 133.94,44.83 133.63,44.85 L130.88,44.89 L136.78,54.82" id="Path" stroke="#B4B5B7"></path>
                <path d="M87.59,77.26 L113.01,77.51 C113.01,77.51 107.78,84.18 107.97,84.61 L17.63,84.61 C12.53,84.61 7.68,82.14 4.9,77.87 C1.81,73.12 0,67.4 0,61.25 C0,44.7 13.03,31.28 29.1,31.28 C33.89,31.28 38.4,32.48 42.39,34.59 C42.39,34.58 42.39,34.57 42.39,34.55 C42.39,28.23 44.07,22.31 46.99,17.24 L51.52,11.09" id="Path" stroke="#B4B5B7"></path>
                <path d="M66.92,44.83 L96.08,8.08 C102.95,13.79 107.55,22.28 108.28,31.88 C110.95,27.75 114.79,25.16 119.06,25.16 C125.26,25.16 130.56,30.63 132.67,38.34 L124.83,38.18 L125.33,49.26" id="Path" stroke="#B4B5B7"></path>
                <path d="M107.88,66.26 C108.1,66.26 132.4,65.52 132.4,65.52" id="Path" stroke="#B4B5B7"></path>
                <line x1="102.2" y1="58.01" x2="139.74" y2="57.74" id="Path" stroke="#B4B5B7"></line>
                <circle id="Oval" fill="#B4B5B7" fill-rule="nonzero" cx="138.11" cy="57.08" r="3.2"></circle>
                <circle id="Oval" fill="#B4B5B7" fill-rule="nonzero" cx="100.05" cy="58.55" r="3.2"></circle>
                <circle id="Oval" fill="#B4B5B7" fill-rule="nonzero" cx="125.15" cy="49.49" r="3.2"></circle>
                <circle id="Oval" fill="#B4B5B7" fill-rule="nonzero" cx="106.86" cy="65.9" r="3.2"></circle>
                <circle id="Oval" fill="#B4B5B7" fill-rule="nonzero" cx="87.59" cy="77.26" r="3.2"></circle>
                <circle id="Oval" fill="#B4B5B7" fill-rule="nonzero" cx="66.42" cy="45.57" r="3.2"></circle>
                <circle id="Oval" fill="#B4B5B7" fill-rule="nonzero" cx="51.39" cy="52.3" r="3.2"></circle>
                <circle id="Oval" fill="#B4B5B7" fill-rule="nonzero" cx="18.83" cy="55.2" r="3.2"></circle>
                <line x1="37.27" y1="32.8" x2="18.89" y2="54.61" id="Path" stroke="#B4B5B7"></line>
            </g>
            <path d="M74.83,345.03 C74.83,345.03 89.1,349.79 91.71,334.52 C93.96,321.39 69.57,306.19 56.63,311.45 C39.75,318.3 29.43,323.27 32.81,351.22 C36.19,379.17 0.92,390.8 0.92,390.8 C0.92,390.8 -0.84,396.56 22.68,389.86 C57.58,379.93 52.89,340.91 74.83,345.03 Z" id="Path" fill="#F5C65D" fill-rule="nonzero"></path>
            <path d="M30.09,355.61 C30.09,355.61 21.16,352 13.88,363.63 C6.6,375.26 6.04,377.52 0.76,376.48 C0.76,376.48 4.69,382.19 13.08,377.21 C19.45,373.43 35.96,363.13 30.09,355.61 Z" id="Path" fill="#F5C65D" fill-rule="nonzero"></path>
            <path d="M77.13,347.58 C77.13,347.58 91.4,352.34 94.01,337.07 C96.26,323.94 71.87,308.74 58.93,314 C42.05,320.85 31.73,325.82 35.11,353.77 C38.49,381.72 3.22,393.35 3.22,393.35 C3.22,393.35 1.46,399.11 24.98,392.41 C59.87,382.47 55.18,343.45 77.13,347.58 Z" id="Path" stroke="#54575C"></path>
            <path d="M80.22,326.31 C79.46,324.61 78.35,323.06 76.69,321.73 C72.55,318.43 67.15,318.22 62.2,319.55 C48.96,323.11 46.67,330.75 45.91,337.37 C45.15,343.99 41.33,362.07 41.33,362.07 L51.5,344.5 C51.5,344.5 46.41,362.83 48.95,359.52 C51.5,356.21 59.9,340.94 60.66,340.68 C65.01,339.22 70.84,341.54 75.34,341.43 C79.69,341.32 82.33,339.11 81.95,334.72 C81.7,331.71 81.35,328.84 80.22,326.31 Z" id="Path" fill="#E0635D" fill-rule="nonzero"></path>
            <path d="M17.5,370.88 C18.86,370.34 29.06,362.45 28.92,359.86 C28.78,357.27 19.59,360.04 18.04,362.44 C16.49,364.84 9.05,372.18 10.83,372.37 C12.46,372.54 14.91,369.92 14.5,370.47 C14.09,371.01 12.87,374.01 12.87,374.01 L17.5,370.88 Z" id="Path" fill="#E0635D" fill-rule="nonzero"></path>
            <path d="M32.38,358.16 C32.38,358.16 23.45,354.55 16.17,366.18 C8.89,377.81 8.33,380.07 3.05,379.03 C3.05,379.03 6.98,384.74 15.37,379.76 C21.74,375.97 38.25,365.68 32.38,358.16 Z" id="Path" stroke="#54575C"></path>
            <path d="M102.74,285.83 C102.74,285.83 111.47,312.89 126.96,313.98 L126.29,309.71 C126.29,309.71 119.46,305.52 114.93,299.33 C111.73,294.95 108.72,289.33 108.11,284.73 L102.13,284.48 L102.74,285.83 Z" id="Path" fill="#54575C" fill-rule="nonzero"></path>
            <path d="M326.39,206.99 C327.67,208.01 328.23,208.68 329.41,209.77 C329.46,209.81 329.5,209.87 329.55,209.91 L347.37,184.01 L326.39,206.99 Z" id="Path" fill="#54575C" fill-rule="nonzero"></path>
            <g id="Group" transform="translate(130.000000, 60.000000)">
                <g transform="translate(0.000000, 61.000000)" id="Path">
                    <path d="M135.44,84.22 C135.51,82.25 125.99,81.29 121.83,81.02 L117.72,89.41 L117.59,89.36 C119.03,92.33 121.98,98 123.59,98.07 C125.78,98.16 129.78,93.24 129.78,93.24 C129.78,93.24 132.06,95.7 134.06,95.33 C136.06,94.97 129.23,85.58 129.23,85.58 C129.23,85.58 135.35,86.68 135.44,84.22 Z" fill="#D4A596" fill-rule="nonzero"></path>
                    <path d="M121.83,81.02 L121.83,81.02 C121.83,81.02 104.71,71.6 101.28,66.46 C100.29,64.97 98.41,62.54 96.05,59.84 C90.82,53.85 83.21,46.55 77.58,45.26 L75.69,45.17 C73.41,47 70.12,48.29 65.81,48.31 C65.81,48.31 66.41,73.06 46.88,66.91 C46.69,66.93 46.51,66.96 46.31,66.98 C46.31,66.98 18.23,85.82 16.17,88.9 C14.12,91.98 23.19,92.15 23.19,92.15 C23.19,92.15 41.85,88.9 51.44,91.81 C61.03,94.72 72.84,84.28 72.84,84.28 L74.89,69.9 C74.89,69.9 103.31,87.54 114.62,88.22 L117.58,89.37 L117.71,89.42 L121.83,81.02 Z" fill="#E0635D" fill-rule="nonzero"></path>
                    <path d="M83.93,17.99 C83.15,18.43 82.67,19.27 82.88,20.14 C83.49,22.67 83.48,27.33 76.57,29.95 C76.57,29.95 90.47,30.36 89.08,19.87 C89.08,19.87 93.42,17.98 91.15,16.58 C89.29,15.44 87.09,14.14 86.35,13.71 C85.92,15.74 85.16,17.29 83.93,17.99 Z" fill="#D4A596" fill-rule="nonzero"></path>
                    <path d="M82.34,4.71 C81.72,-1.01 75.93,1.08 75.65,1.02 C51.06,-4.19 57.75,20.58 57.75,20.58 C57.75,20.58 52.16,17.92 46.15,31.76 C40.14,45.59 17.36,44.2 12.89,46.57 C8.42,48.95 3.67,52.72 6.46,61.94 C9.25,71.16 26.93,58.19 28.42,58.64 C32.19,59.77 22.67,66.83 22.67,66.83 C25.46,81.36 35.09,70.4 37.18,66.74 C39.27,63.08 42.41,65.11 42.41,65.11 C44.02,65.88 45.51,66.47 46.9,66.91 C66.43,73.07 65.83,48.31 65.83,48.31 C70.14,48.29 73.43,46.99 75.71,45.17 C79.38,42.22 80.4,37.87 78.67,35.18 C75.88,30.82 76.58,29.95 76.58,29.95 C83.49,27.33 83.5,22.67 82.89,20.14 C82.68,19.27 83.16,18.43 83.94,17.99 C85.17,17.3 85.93,15.74 86.36,13.72 C87.09,10.31 82.79,8.86 82.34,4.71 Z" fill="#4890BA" fill-rule="nonzero"></path>
                    <path d="M23.2,92.15 C23.08,92.5 22.98,92.84 22.89,93.19 C23,92.84 23.08,92.51 23.2,92.15 Z"></path>
                    <path d="M22.9,93.19 C22.99,92.84 23.09,92.5 23.21,92.15 C23.21,92.15 7.88,106.42 0.63,107.81 L24.17,105.26 C23.94,104.87 23.71,104.4 23.5,103.86 C23.4,103.72 23.3,103.59 23.21,103.44 C21.91,101.25 21.49,97.99 22.9,93.19 Z" fill="#255487" fill-rule="nonzero"></path>
                    <path d="M22.9,93.19 C21.49,98 21.91,101.26 23.21,103.44 C23.3,103.59 23.41,103.72 23.5,103.86 C22.5,101.35 21.81,97.33 22.9,93.19 Z" fill="#DCEFFA" fill-rule="nonzero"></path>
                    <path d="M86.11,149.5 C85.85,150.4 85.61,151.23 85.39,151.98 C84.51,154.98 82.38,157.45 79.55,158.77 L73.51,161.58 C72.96,162.95 72.09,166.26 76.25,166.95 C81.52,167.83 97.35,157.28 96.99,151.48 C96.7,146.85 89.15,148.6 86.11,149.5 Z" fill="#54575C" fill-rule="nonzero"></path>
                    <path d="M100.77,87.01 C98.89,78.62 73.37,84.27 72.86,84.27 C72.86,84.27 61.04,94.72 51.46,91.8 C41.87,88.89 23.21,92.14 23.21,92.14 C23.09,92.5 23,92.83 22.9,93.18 C21.82,97.33 22.5,101.34 23.5,103.86 C26.64,108.4 33.65,107.9 33.65,107.9 C53.34,128.11 79.88,104.82 79.88,104.82 L71.83,162.35 L73.16,161.73 L73.5,161.57 L79.54,158.76 C82.38,157.44 84.5,154.97 85.38,151.97 C85.6,151.22 85.84,150.38 86.1,149.49 C90.92,132.94 102.14,93.12 100.77,87.01 Z" fill="#255487" fill-rule="nonzero"></path>
                    <path d="M104.29,55.46 C92.87,53.9 91.57,46.5 91.57,46.5 L92.05,45.96 L77.6,45.26 C83.23,46.55 90.83,53.85 96.07,59.84 L103.5,60 C103.6,58.67 103.95,57.17 104.62,55.49 C104.5,55.48 104.39,55.47 104.29,55.46 Z" fill="#E0635D" fill-rule="nonzero"></path>
                </g>
                <g transform="translate(91.000000, 0.000000)" fill-rule="nonzero" id="Path">
                    <path d="M71.98,161.98 C70.31,165.34 69.18,167.37 69.18,167.37 C69.18,167.37 65.38,176.61 58.5,175.34 L57.86,175.17 C57.34,176.76 56.99,179.59 60.85,180.23 C66.28,181.14 82.58,170.27 82.22,164.29 C81.96,159.96 75.51,161.05 71.98,161.98 Z" fill="#54575C"></path>
                    <path d="M69.18,167.37 C69.18,167.37 70.31,165.34 71.98,161.98 C77.22,151.43 89.05,129.96 87.4,113.21 C86.16,100.56 70.63,100.26 57.81,103.24 C53.8,104.17 50.06,105.42 47.09,106.71 C42.98,108.5 39.3,110.87 39.3,110.87 C39.3,110.87 30.79,110.87 23.55,115.04 C21.55,116.19 14.31,114.86 14.31,114.86 C14.04,115.42 13.81,115.96 13.6,116.49 C8.26,130 23.18,131.52 23.18,131.52 C35.68,153.61 56.14,132.97 56.14,132.97 L63.27,128.63 L56.5,174.8 L57.86,175.17 L58.5,175.34 C65.38,176.61 69.18,167.37 69.18,167.37 Z" fill="#4890BA"></path>
                    <path d="M60.98,33.13 C58.25,32.46 57.2,32.91 57.2,32.91 C57.2,32.91 57.81,29.91 55.59,31.13 C55.59,31.13 51.14,29.13 51.59,27.9 C52.03,26.68 51.37,21.73 45.47,24.95 C45.47,24.95 45.75,21.89 41.47,23.11 C37.19,24.33 34.46,28.34 34.46,28.34 C34.46,28.34 31.18,27.84 31.35,29.17 C31.52,30.5 29.57,29.34 29.57,29.34 C29.57,29.34 27.07,29.56 27.62,32.62 C28.18,35.68 24.89,32.4 24.89,32.4 C24.89,32.4 22.33,30.62 22.83,34.24 C23.33,37.85 24.11,39.08 24.11,39.08 C24.11,39.08 15.82,40.3 18.6,46.03 C21.38,51.76 21.77,51.7 21.77,51.7 C21.77,51.7 16.15,60.82 24.88,62.88 C24.88,62.88 26.71,72.38 31.98,71.72 C32.94,71.6 34.02,71.14 35.22,70.22 C35.22,70.22 40.78,73.78 44.95,66.05 C44.95,66.05 44.28,62.71 47.29,62.99 C48.42,63.09 49.49,64.64 51.46,64.88 C53.1,65.08 54.13,63.18 54.77,61.07 C55.03,60.2 55.23,59.3 55.38,58.49 C55.65,56.99 55.74,55.81 55.74,55.81 C55.74,55.81 53.13,57.7 50.79,55.25 C50.79,55.25 46.62,56.47 45.9,53.36 C45.9,53.36 47.9,52.47 48.74,48.08 C48.74,48.08 49.74,40.79 54.3,42.3 C54.3,42.3 56.69,42.52 57.03,42.08 C57.36,41.64 57.25,38.24 59.53,38.19 C60.03,38.18 60.51,37.95 60.93,37.61 C62.41,36.41 63.1,33.65 60.98,33.13 Z" fill="#54575C"></path>
                    <path d="M89.95,108.17 C90.61,109.27 94.69,109.38 94.69,109.38 L107.05,107.95 C107.05,107.95 98.77,106.18 97.45,104.09 C96.39,102.41 82.38,87.01 76.79,80.88 L68.55,91.33 C75.02,96.26 89.43,107.31 89.95,108.17 Z" fill="#B28A8D"></path>
                    <path d="M110.47,0.37 C109.15,-1.4 96.79,10.63 96.79,10.63 L63.25,38.88 L61.55,40.61 C61.35,43.09 61.22,46.15 61.81,46.37 C62.81,46.76 66.54,46.87 66.26,48.87 C65.98,50.87 63.13,50.26 63.13,50.26 C63.44,54.75 61.94,57.38 60.04,58.94 L60.18,59.61 C61.02,59.96 61.83,60.38 62.62,60.86 C69.73,51.79 96.95,17.43 100.97,17.14 C105.6,16.81 105.92,12.88 106.91,11.67 C107.9,10.46 106.04,9.31 106.04,9.31 C106.15,8.21 104.05,7.21 104.05,7.21 C104.05,7.21 111.79,2.14 110.47,0.37 Z" fill="#B28A8D"></path>
                    <path d="M61.81,46.37 C61.22,46.14 61.34,43.09 61.55,40.61 C61.69,38.88 61.87,37.42 61.87,37.42 L60.93,37.62 C60.51,37.96 60.03,38.19 59.53,38.2 C57.25,38.26 57.36,41.65 57.03,42.09 C56.7,42.53 54.3,42.31 54.3,42.31 C49.74,40.81 48.74,48.09 48.74,48.09 C47.91,52.48 45.9,53.37 45.9,53.37 C46.62,56.48 50.79,55.26 50.79,55.26 C53.13,57.71 55.74,55.82 55.74,55.82 C55.74,55.82 55.65,56.99 55.38,58.5 C56.75,58.58 58.13,58.85 59.5,59.35 C59.68,59.23 59.85,59.08 60.03,58.94 C61.93,57.39 63.43,54.76 63.12,50.26 C63.12,50.26 65.97,50.87 66.25,48.87 C66.54,46.87 62.81,46.76 61.81,46.37 Z" fill="#B28A8D"></path>
                    <path d="M62.63,60.86 C61.84,60.38 61.02,59.96 60.19,59.61 L60.05,58.94 C59.88,59.08 59.7,59.23 59.52,59.35 C58.15,58.85 56.77,58.58 55.4,58.5 C55.25,59.31 55.06,60.21 54.79,61.08 C54.15,63.19 53.11,65.09 51.48,64.89 C49.51,64.64 48.44,63.1 47.31,63 C44.31,62.72 44.97,66.06 44.97,66.06 C40.8,73.79 35.24,70.23 35.24,70.23 C34.04,71.15 32.96,71.61 32,71.73 C31.32,72.51 30.95,72.98 30.95,72.98 L0.58,107.5 C0.58,107.5 1.88,114.9 13.3,116.46 C13.41,116.47 13.51,116.48 13.62,116.49 C13.83,115.96 21.56,116.19 23.56,115.04 C30.8,110.87 39.31,110.87 39.31,110.87 C39.31,110.87 42.99,108.5 47.1,106.71 C50.06,105.42 53.81,104.17 57.82,103.24 C57.69,100.17 58.12,96.09 59.77,93.74 C62.24,90.24 62.63,88.16 62.63,88.16 L65.75,94.91 L68.57,91.33 L76.81,80.88 L77.82,79.6 C77.79,79.6 71.66,66.37 62.63,60.86 Z" fill="#F5C65D"></path>
                </g>
            </g>
            <g id="Group" transform="translate(132.000000, 60.000000)">
                <g transform="translate(0.000000, 61.000000)" id="Path">
                    <path d="M135.47,84.9 C135.54,82.93 126.02,81.97 121.86,81.7 L117.75,90.09 L117.62,90.04 C119.06,93.01 122.01,98.68 123.62,98.75 C125.81,98.84 129.81,93.92 129.81,93.92 C129.81,93.92 132.09,96.38 134.09,96.01 C136.09,95.65 129.26,86.26 129.26,86.26 C129.26,86.26 135.38,87.36 135.47,84.9 Z" stroke="#54575C"></path>
                    <path d="M121.86,81.69 L121.86,81.69 C121.86,81.69 104.74,72.27 101.31,67.13 C100.32,65.64 98.44,63.21 96.08,60.51 C90.85,54.52 83.24,47.22 77.61,45.93 L75.72,45.84 C73.44,47.67 70.15,48.96 65.84,48.98 C65.84,48.98 66.44,73.73 46.91,67.58 C46.72,67.6 46.54,67.63 46.34,67.65 C46.34,67.65 18.26,86.49 16.2,89.57 C14.15,92.65 23.22,92.82 23.22,92.82 C23.22,92.82 41.88,89.57 51.47,92.48 C61.06,95.39 72.87,84.95 72.87,84.95 L74.92,70.57 C74.92,70.57 103.34,88.21 114.65,88.89 L117.61,90.04 L117.74,90.09 L121.86,81.69 Z" stroke="#54575C"></path>
                    <path d="M83.96,18.66 C83.18,19.1 82.7,19.94 82.91,20.81 C83.52,23.34 83.51,28 76.6,30.62 C76.6,30.62 90.5,31.03 89.11,20.54 C89.11,20.54 93.45,18.65 91.18,17.25 C89.32,16.11 87.12,14.81 86.38,14.38 C85.95,16.41 85.19,17.97 83.96,18.66 Z" stroke="#54575C" stroke-linejoin="round"></path>
                    <path d="M82.36,5.38 C81.74,-0.34 75.95,1.75 75.67,1.69 C51.08,-3.52 57.77,21.25 57.77,21.25 C57.77,21.25 52.18,18.59 46.17,32.43 C40.16,46.26 17.38,44.87 12.91,47.24 C8.44,49.62 3.69,53.39 6.48,62.61 C9.27,71.83 26.95,58.86 28.44,59.31 C32.21,60.44 22.69,67.5 22.69,67.5 C25.48,82.03 35.11,71.07 37.2,67.41 C39.29,63.75 42.43,65.78 42.43,65.78 C44.04,66.55 45.53,67.14 46.92,67.58 C66.45,73.74 65.85,48.98 65.85,48.98 C70.16,48.96 73.45,47.66 75.73,45.84 C79.4,42.89 80.42,38.54 78.69,35.85 C75.9,31.49 76.6,30.62 76.6,30.62 C83.51,28 83.52,23.34 82.91,20.81 C82.7,19.94 83.18,19.1 83.96,18.66 C85.19,17.97 85.95,16.41 86.38,14.39 C87.12,10.98 82.81,9.54 82.36,5.38 Z" stroke="#54575C"></path>
                    <g transform="translate(0.000000, 83.000000)">
                        <path d="M23.23,9.82 C23.11,10.17 23.01,10.51 22.92,10.86 C23.02,10.52 23.11,10.18 23.23,9.82 Z"></path>
                        <path d="M22.92,10.86 C23.01,10.51 23.11,10.17 23.23,9.82 C23.23,9.82 7.9,24.09 0.65,25.48 L24.19,22.93 C23.96,22.54 23.73,22.07 23.52,21.53 C23.42,21.39 23.32,21.26 23.23,21.11 C21.93,18.93 21.51,15.67 22.92,10.86 Z" stroke="#54575C" stroke-linejoin="round"></path>
                        <path d="M22.92,10.86 C21.51,15.67 21.93,18.93 23.23,21.11 C23.32,21.26 23.43,21.39 23.52,21.53 C22.52,19.02 21.84,15.01 22.92,10.86 Z" stroke="#54575C" stroke-linejoin="round"></path>
                        <path d="M86.13,67.17 C85.87,68.07 85.63,68.9 85.41,69.65 C84.53,72.65 82.4,75.12 79.57,76.44 L73.53,79.25 C72.98,80.62 72.11,83.93 76.27,84.62 C81.54,85.5 97.37,74.95 97.01,69.15 C96.73,64.52 89.17,66.27 86.13,67.17 Z" stroke="#54575C"></path>
                        <path d="M100.8,4.69 C98.92,-3.7 73.4,1.95 72.89,1.95 C72.89,1.95 61.07,12.4 51.49,9.48 C41.9,6.57 23.24,9.82 23.24,9.82 C23.12,10.18 23.03,10.51 22.93,10.86 C21.85,15.01 22.53,19.02 23.53,21.54 C26.67,26.08 33.68,25.58 33.68,25.58 C53.37,45.79 79.91,22.5 79.91,22.5 L71.86,80.03 L73.19,79.41 L73.53,79.25 L79.57,76.44 C82.41,75.12 84.53,72.65 85.41,69.65 C85.63,68.9 85.87,68.06 86.13,67.17 C90.94,50.61 102.17,10.79 100.8,4.69 Z" stroke="#54575C"></path>
                    </g>
                    <path d="M104.31,56.13 C92.89,54.57 91.59,47.17 91.59,47.17 L92.07,46.63 L77.62,45.93 C83.25,47.22 90.85,54.52 96.09,60.51 L103.52,60.67 C103.62,59.34 103.97,57.84 104.64,56.16 C104.52,56.15 104.42,56.15 104.31,56.13 Z" stroke="#54575C"></path>
                </g>
                <path d="M57.09,79.57 C57.09,79.57 56.95,82.64 58.35,84.18 C59.75,85.72 81.41,80.41 82.67,79.57 C83.93,78.73 84.21,84.18 86.02,81.39 C87.83,78.6 87,75.1 87,75.1 C87,75.1 88.26,79.43 89.79,78.31 C91.33,77.19 87.63,67.16 85.53,67.44 C83.43,67.72 80.62,67.56 80.48,70.77 C80.34,73.98 79.45,75.94 79.45,75.94 C79.45,75.94 75.24,78.03 71.07,79.15 C65.05,80.77 58,80.89 57.09,79.57 Z" id="Path" fill="#54575C" fill-rule="nonzero"></path>
                <g transform="translate(91.000000, 0.000000)" id="Path" stroke="#54575C">
                    <path d="M72.01,162.66 C70.34,166.02 69.21,168.05 69.21,168.05 C69.21,168.05 65.41,177.29 58.53,176.02 L57.89,175.85 C57.37,177.44 57.02,180.27 60.88,180.91 C66.31,181.82 82.61,170.95 82.25,164.97 C81.98,160.63 75.53,161.73 72.01,162.66 Z"></path>
                    <path d="M69.21,168.05 C69.21,168.05 70.34,166.02 72.01,162.66 C77.25,152.11 89.08,130.64 87.43,113.89 C86.19,101.24 70.66,100.94 57.84,103.92 C53.83,104.85 50.09,106.1 47.12,107.39 C43.01,109.18 39.33,111.55 39.33,111.55 C39.33,111.55 30.82,111.55 23.58,115.72 C21.58,116.87 13.84,116.64 13.64,117.17 C8.3,130.68 23.22,132.2 23.22,132.2 C35.72,154.29 56.18,133.65 56.18,133.65 L63.31,129.31 L56.54,175.48 L57.9,175.85 L58.54,176.02 C65.4,177.28 69.21,168.05 69.21,168.05 Z"></path>
                    <path d="M61,33.81 C58.27,33.14 57.22,33.59 57.22,33.59 C57.22,33.59 57.83,30.59 55.61,31.81 C55.61,31.81 51.16,29.81 51.61,28.58 C52.05,27.36 51.39,22.41 45.49,25.63 C45.49,25.63 45.77,22.57 41.49,23.79 C37.21,25.01 34.48,29.02 34.48,29.02 C34.48,29.02 31.2,28.52 31.37,29.85 C31.54,31.18 29.59,30.02 29.59,30.02 C29.59,30.02 27.09,30.24 27.64,33.3 C28.2,36.36 24.91,33.08 24.91,33.08 C24.91,33.08 22.35,31.3 22.85,34.92 C23.35,38.53 24.13,39.76 24.13,39.76 C24.13,39.76 15.84,40.98 18.62,46.71 C21.4,52.44 21.79,52.38 21.79,52.38 C21.79,52.38 16.17,61.5 24.9,63.56 C24.9,63.56 26.73,73.06 32,72.4 C32.96,72.28 34.04,71.82 35.24,70.9 C35.24,70.9 40.8,74.46 44.97,66.73 C44.97,66.73 44.3,63.39 47.31,63.67 C48.44,63.77 49.51,65.32 51.48,65.56 C53.12,65.76 54.15,63.86 54.79,61.75 C55.05,60.88 55.25,59.98 55.4,59.17 C55.67,57.67 55.76,56.49 55.76,56.49 C55.76,56.49 53.15,58.38 50.81,55.93 C50.81,55.93 46.64,57.15 45.92,54.04 C45.92,54.04 47.92,53.15 48.76,48.76 C48.76,48.76 49.76,41.47 54.32,42.98 C54.32,42.98 56.71,43.2 57.05,42.76 C57.38,42.32 57.27,38.92 59.55,38.87 C60.05,38.86 60.53,38.63 60.95,38.29 C62.44,37.08 63.13,34.33 61,33.81 Z"></path>
                    <g>
                        <path d="M89.97,108.84 C90.63,109.94 94.71,110.05 94.71,110.05 L107.07,108.62 C107.07,108.62 98.79,106.85 97.47,104.76 C96.41,103.08 82.4,87.68 76.81,81.55 L68.57,92 C75.04,96.94 89.46,107.99 89.97,108.84 Z"></path>
                        <path d="M110.49,1.05 C109.17,-0.72 96.81,11.31 96.81,11.31 L63.27,39.56 L61.57,41.29 C61.37,43.77 61.24,46.83 61.83,47.05 C62.83,47.44 66.56,47.55 66.28,49.55 C66,51.55 63.15,50.94 63.15,50.94 C63.46,55.43 61.96,58.06 60.06,59.62 L60.2,60.29 C61.04,60.64 61.85,61.06 62.64,61.54 C69.75,52.47 96.97,18.11 100.99,17.82 C105.62,17.49 105.94,13.56 106.93,12.35 C107.92,11.14 106.06,9.99 106.06,9.99 C106.17,8.89 104.07,7.89 104.07,7.89 C104.07,7.89 111.82,2.81 110.49,1.05 Z"></path>
                        <path d="M61.84,47.04 C61.25,46.81 61.37,43.76 61.58,41.28 C61.72,39.55 61.9,38.09 61.9,38.09 L60.96,38.29 C60.54,38.63 60.06,38.86 59.56,38.87 C57.28,38.93 57.39,42.32 57.06,42.76 C56.73,43.2 54.33,42.98 54.33,42.98 C49.77,41.48 48.77,48.76 48.77,48.76 C47.94,53.15 45.93,54.04 45.93,54.04 C46.65,57.15 50.82,55.93 50.82,55.93 C53.16,58.38 55.77,56.49 55.77,56.49 C55.77,56.49 55.68,57.66 55.41,59.17 C56.78,59.25 58.16,59.52 59.53,60.02 C59.71,59.9 59.88,59.75 60.06,59.61 C61.96,58.06 63.46,55.43 63.15,50.93 C63.15,50.93 66,51.54 66.28,49.54 C66.56,47.54 62.84,47.43 61.84,47.04 Z"></path>
                        <path d="M62.66,61.54 C61.87,61.06 61.05,60.64 60.22,60.29 L60.08,59.62 C59.91,59.76 59.73,59.91 59.55,60.03 C58.18,59.53 56.8,59.26 55.43,59.18 C55.28,59.99 55.09,60.89 54.82,61.76 C54.18,63.87 53.14,65.77 51.51,65.57 C49.54,65.32 48.47,63.78 47.34,63.68 C44.34,63.4 45,66.74 45,66.74 C40.83,74.47 35.27,70.91 35.27,70.91 C34.07,71.83 32.99,72.29 32.03,72.41 C31.35,73.19 30.98,73.66 30.98,73.66 L0.61,108.18 C0.61,108.18 1.91,115.58 13.33,117.14 C13.44,117.15 13.54,117.16 13.65,117.17 C13.86,116.64 21.59,116.87 23.59,115.72 C30.83,111.55 39.34,111.55 39.34,111.55 C39.34,111.55 43.02,109.18 47.13,107.39 C50.09,106.1 53.84,104.85 57.85,103.92 C57.72,100.85 58.15,96.77 59.8,94.42 C62.27,90.92 62.66,88.84 62.66,88.84 L65.78,95.59 L68.6,92.01 L76.84,81.56 L77.85,80.28 C77.82,80.27 71.69,67.04 62.66,61.54 Z"></path>
                    </g>
                </g>
                <path d="M138.06,53.2 L146.08,49.01 C146.08,49.01 149.44,50.78 150.65,49.2 C151.86,47.62 152.05,46.4 152.05,46.4 C152.05,46.4 156.06,47.8 156.52,46.59 C156.98,45.38 157.92,37.64 153.16,36.43 C153.16,36.43 152.13,38.48 149.52,39.51 C146.91,40.54 148.05,42.78 148.05,42.78 C148.05,42.78 144.95,43.06 144.58,43.06 C144.21,43.06 144.21,45.95 144.21,45.95 L138.06,53.2 Z" id="Path" fill="#54575C" fill-rule="nonzero"></path>
                <path d="M154.83,128.22 L164.9,122.31 C164.9,122.31 153.08,135.07 153.35,134.26 C153.62,133.45 154.83,128.22 154.83,128.22 Z" id="Path" fill="#54575C" fill-rule="nonzero"></path>
                <polygon id="Path" fill="#54575C" fill-rule="nonzero" points="80.3 165.15 87.42 158.17 78.96 173.48"></polygon>
                <path d="M60,108.12 C60,108.12 57.95,121.98 47.16,120.19" id="Path" stroke="#54575C"></path>
                <path d="M60.49,83.69 C60.49,83.69 54.07,82.35 50.46,95.99 C46.85,109.63 39.9,106.55 39.9,106.55" id="Path" stroke="#54575C"></path>
                <path d="M113.31,49.32 C113.31,49.32 109.57,54.8 106.76,51.19" id="Path" stroke="#54575C"></path>
                <path d="M116.78,61.22 C116.78,61.22 113.57,66.7 110.09,65.5" id="Path" stroke="#54575C"></path>
                <path d="M117.85,63.76 C117.85,63.76 117.72,70.18 113.97,70.04" id="Path" stroke="#54575C"></path>
                <path d="M140.99,29.13 C140.99,29.13 145.4,23.78 149.01,27.12" id="Path" stroke="#54575C"></path>
            </g>
            <path d="M180.33,212.75 C180.33,212.75 155.23,215.85 154.61,217.55 C153.99,219.25 155.23,213.82 155.23,213.82 C155.23,213.82 174.9,211.35 180.33,212.75 Z" id="Path" fill="#54575C" fill-rule="nonzero"></path>
            <path d="M260.77,171.14 L236.31,177.13 C236.31,177.13 234.14,181.59 235.51,181.67 C236.87,181.76 260.77,171.14 260.77,171.14 Z" id="Path" fill="#54575C" fill-rule="nonzero"></path>
            <path d="M154.64,226.53 C155.23,227.93 156.16,232.88 162.36,232.88 C168.56,232.88 170.7,241.83 193.81,237.84 C196.01,237.46 204.19,231.95 204.19,231.95 C204.19,231.95 182.48,246.24 165.68,229.57 C165.68,229.57 156.54,229.04 156.2,226.93 L154.64,226.53 Z" id="Path" fill="#54575C" fill-rule="nonzero"></path>
            <path d="M238.27,189.66 C238.27,189.66 240.75,193.07 245.24,193.69 C245.24,193.69 248.96,200.35 253.3,200.97 L246.22,192.19 L238.27,189.66 Z" id="Path" fill="#54575C" fill-rule="nonzero"></path>
            <path d="M229.09,387.04 L401.28,387.04 C408.65,387.04 415.67,383.48 419.68,377.3 C424.14,370.42 426.75,362.16 426.75,353.27 C426.75,329.35 407.92,309.95 384.69,309.95 C377.77,309.95 371.24,311.68 365.48,314.73 C365.48,314.71 365.48,314.69 365.48,314.68 C365.48,287.55 344.12,265.56 317.78,265.56 C292.7,265.56 272.15,285.5 270.24,310.83 C266.38,304.86 260.83,301.12 254.66,301.12 C243.33,301.12 234.1,313.74 233.6,329.56 C233.14,329.53 232.69,329.52 232.23,329.52 C217.29,329.52 205.18,342.85 205.18,359.3 C205.18,366.78 207.69,373.62 211.83,378.85 C215.99,384.09 222.4,387.04 229.09,387.04 Z" id="Path" fill="#FFFFFF" fill-rule="nonzero"></path>
            <g id="Group" transform="translate(363.000000, 0.000000)">
                <circle id="Oval" fill="#F5C65D" fill-rule="nonzero" cx="30.4" cy="30.49" r="29.63"></circle>
                <circle id="Oval" stroke="#54575C" cx="32.76" cy="30.49" r="29.63"></circle>
                <line x1="40.95" y1="2.04" x2="20.34" y2="21.16" id="Path" stroke="#54575C"></line>
                <path d="M6.5,45.2 C6.76,45.03 28.61,27.85 28.61,27.85" id="Path" stroke="#54575C"></path>
                <path d="M15.26,38.32 C15.26,38.32 29.04,43.93 29.29,43.85 C29.55,43.76 43.24,36.71 43.24,36.71" id="Path" stroke="#54575C"></path>
                <circle id="Oval" fill="#54575C" fill-rule="nonzero" cx="18.08" cy="23.25" r="3.9"></circle>
                <circle id="Oval" fill="#54575C" fill-rule="nonzero" cx="31.31" cy="26.71" r="3.9"></circle>
                <circle id="Oval" fill="#54575C" fill-rule="nonzero" cx="46" cy="35.19" r="3.9"></circle>
            </g>
            <g id="Group" transform="translate(211.000000, 267.000000)">
                <path d="M113.12,59.83 L147.82,15.36 C139.13,5.99 126.88,0.15 113.31,0.15 C88.23,0.15 67.68,20.09 65.77,45.42 C61.91,39.45 56.36,35.71 50.19,35.71 C41.22,35.71 33.57,43.62 30.52,54.76 L41.85,54.53 L41.12,70.55" id="Path" stroke="#B4B5B7"></path>
                <path d="M86.54,72.22 L47.27,121.63 L24.61,121.63 C17.92,121.63 11.51,118.68 7.35,113.43 C3.21,108.2 0.7,101.36 0.7,93.88 C0.7,77.43 12.81,64.1 27.75,64.1 C28.21,64.1 28.67,64.11 29.12,64.14 L33.1,64.2 L24.57,78.56" id="Path" stroke="#B4B5B7"></path>
                <path d="M94.68,107.74 L73.64,107.66 C73.64,107.66 66.48,121.01 66.2,121.63 L196.8,121.63 C204.17,121.63 211.19,118.07 215.2,111.89 C219.66,105.01 222.27,96.75 222.27,87.86 C222.27,63.94 203.44,44.54 180.21,44.54 C173.29,44.54 166.76,46.27 161,49.32 C161,49.3 161,49.28 161,49.27 C161,40.13 158.58,31.58 154.36,24.25 L144.43,35.38" id="Path" stroke="#B4B5B7"></path>
                <line x1="142.15" y1="10.3" x2="122.69" y2="34.75" id="Path" stroke="#B4B5B7"></line>
                <path d="M66.2,97.28 C65.89,97.28 31.87,97.9 31.87,97.9" id="Path" stroke="#B4B5B7"></path>
                <line x1="75.67" y1="85.42" x2="46.54" y2="85.42" id="Path" stroke="#B4B5B7"></line>
                <circle id="Oval" fill="#B4B5B7" fill-rule="nonzero" cx="22.66" cy="81.83" r="4.63"></circle>
                <circle id="Oval" fill="#B4B5B7" fill-rule="nonzero" cx="44.35" cy="85.01" r="4.63"></circle>
                <circle id="Oval" fill="#B4B5B7" fill-rule="nonzero" cx="41.39" cy="70.86" r="4.63"></circle>
                <circle id="Oval" fill="#B4B5B7" fill-rule="nonzero" cx="30.62" cy="98.12" r="4.63"></circle>
                <circle id="Oval" fill="#B4B5B7" fill-rule="nonzero" cx="88.12" cy="70.46" r="4.63"></circle>
                <circle id="Oval" fill="#B4B5B7" fill-rule="nonzero" cx="97.38" cy="108.54" r="4.63"></circle>
                <circle id="Oval" fill="#B4B5B7" fill-rule="nonzero" cx="112.57" cy="62.56" r="4.63"></circle>
                <circle id="Oval" fill="#B4B5B7" fill-rule="nonzero" cx="120.58" cy="36.96" r="4.63"></circle>
                <circle id="Oval" fill="#B4B5B7" fill-rule="nonzero" cx="143.58" cy="37.48" r="4.63"></circle>
            </g>
        </g>
    </g>
</svg>