<?xml version="1.0" encoding="utf-8"?>
<!-- Generator: Adobe Illustrator 23.0.6, SVG Export Plug-In . SVG Version: 6.00 Build 0)  -->
<svg version="1.1" id="Layer_1" xmlns="http://www.w3.org/2000/svg" xmlns:xlink="http://www.w3.org/1999/xlink" x="0px" y="0px"
	 viewBox="0 0 437.89 405.72" style="enable-background:new 0 0 437.89 405.72;" xml:space="preserve">
<style type="text/css">
	.st0{fill:#4890BA;}
	.st1{fill:#DCEFFA;}
	.st2{fill:#F4F4F5;}
	.st3{fill:#F5C65D;}
	.st4{fill:none;stroke:#54575C;stroke-miterlimit:10;}
	.st5{fill:#54575C;}
	.st6{fill:#FFFFFF;}
	.st7{fill:none;stroke:#B4B5B7;stroke-miterlimit:10;}
	.st8{fill:#B4B5B7;}
	.st9{fill:#E0635D;}
	.st10{fill:#D4A596;}
	.st11{fill:none;}
	.st12{fill:#255487;}
	.st13{fill:#B28A8D;}
	.st14{fill:none;stroke:#54575C;stroke-linejoin:round;stroke-miterlimit:10;}
</style>
<g>
	<g>
		<path class="st0" d="M334.86,170.5c0,0-15.54-0.33-40.09,4.21c6.08,14.08,16.84,35.08,31.01,47.02
			c6.89-8.52,13.36-17.83,19.27-28.03C357.81,171.66,334.86,170.5,334.86,170.5z"/>
		<path class="st0" d="M124.54,324.15c-6.57,0.11-15.61-6.46-22.26-16.84c-5.14-8.04-7.62-16.43-7.15-22.56
			c-0.9-0.36-1.82-0.71-2.75-1.06c-5.6,4.59-3.97,17.71,3.9,30c8.16,12.76,19.95,19.79,26.33,15.7c0.74-0.47,1.37-1.08,1.9-1.79
			C124.55,326.41,124.57,325.26,124.54,324.15z"/>
		<path class="st1" d="M121.58,311.55c-3.25,0-19.14-22.99-18.81-23.38c-2.33-1.2-4.91-2.34-7.63-3.43
			c-0.47,6.13,2.01,14.52,7.15,22.56c6.64,10.38,15.68,16.95,22.26,16.84c-0.09-4.67-0.8-8.61-2.37-11.27
			C121.91,312.43,121.72,311.99,121.58,311.55z"/>
		<path class="st0" d="M206.79,298.6c-35.81,10.71-67.02,12.66-81.55,12.92c-1.37,0.02-2.6,0.04-3.66,0.04
			c0.14,0.44,0.33,0.88,0.59,1.32c1.57,2.66,2.28,6.6,2.37,11.27c0.02,1.11,0.01,2.26-0.04,3.45c-0.63,17.32-7.91,42.15-11.4,53.15
			c-0.85,2.68,1.52,5.25,4.28,4.66c48.73-10.33,90.22-85.23,90.56-86.24L206.79,298.6z"/>
		<path class="st0" d="M48.06,266.36c-1.83,2.13-0.72,5.45,2.04,5.99c9.16,1.8,27.44,5.77,42.29,11.33c0.93,0.35,1.85,0.7,2.75,1.06
			c2.72,1.09,5.3,2.23,7.63,3.43c0.96-1.14,1.93-2.25,2.9-3.37c19.9-22.9,40.78-41.23,61.51-55.87l0.02-0.58
			C166.15,228.17,80.53,228.58,48.06,266.36z"/>
		<g>
			<path class="st2" d="M294.77,174.72c-32.02,5.93-79.37,20.15-127.6,54.22c-20.73,14.65-41.61,32.97-61.51,55.87
				c-0.97,1.12-1.94,2.23-2.9,3.37c-0.33,0.39,15.56,23.38,18.81,23.38c1.06,0,2.29-0.01,3.66-0.04
				c14.53-0.26,45.74-2.22,81.55-12.92c39.5-11.81,84.57-34.28,119-76.86C311.62,209.8,300.85,188.8,294.77,174.72z M194.56,282.51
				c-12.2,0-22.1-9.89-22.1-22.1c0-12.2,9.89-22.1,22.1-22.1s22.1,9.89,22.1,22.1C216.65,272.62,206.76,282.51,194.56,282.51z
				 M259.09,249.89c-12.2,0-22.1-9.89-22.1-22.1c0-12.2,9.89-22.1,22.1-22.1s22.1,9.89,22.1,22.1
				C281.19,239.99,271.29,249.89,259.09,249.89z"/>
			<path class="st1" d="M194.03,238.49c-12.2,0-22.1,9.89-22.1,22.1s9.89,22.1,22.1,22.1c12.2,0,22.1-9.89,22.1-22.1
				S206.23,238.49,194.03,238.49z M194.03,276.9c-9,0-16.3-7.3-16.3-16.3s7.3-16.3,16.3-16.3s16.3,7.3,16.3,16.3
				S203.03,276.9,194.03,276.9z"/>
			
				<ellipse transform="matrix(0.3827 -0.9239 0.9239 0.3827 -120.9721 340.1325)" class="st3" cx="194.04" cy="260.59" rx="16.3" ry="16.3"/>
			<path class="st1" d="M259.09,205.69c-12.2,0-22.1,9.89-22.1,22.1c0,12.2,9.89,22.1,22.1,22.1s22.1-9.89,22.1-22.1
				C281.19,215.59,271.29,205.69,259.09,205.69z M259.09,244.1c-9,0-16.3-7.3-16.3-16.3c0-9,7.3-16.3,16.3-16.3s16.3,7.3,16.3,16.3
				C275.39,236.8,268.09,244.1,259.09,244.1z"/>
			
				<ellipse transform="matrix(0.3827 -0.9239 0.9239 0.3827 -50.5042 379.9907)" class="st3" cx="259.1" cy="227.79" rx="16.3" ry="16.3"/>
		</g>
	</g>
	<g>
		<path class="st4" d="M339.59,172.59c0,0-15.54-0.33-40.09,4.21c6.08,14.08,16.84,35.08,31.01,47.02
			c6.89-8.52,13.36-17.83,19.27-28.03C362.54,173.75,339.59,172.59,339.59,172.59z"/>
		<path class="st4" d="M129.27,326.24c-6.57,0.11-15.61-6.46-22.26-16.84c-5.14-8.04-7.62-16.43-7.15-22.56
			c-0.9-0.36-1.82-0.71-2.75-1.06c-5.6,4.59-3.97,17.71,3.9,30c8.16,12.76,19.95,19.79,26.33,15.7c0.74-0.47,1.37-1.08,1.9-1.79
			C129.28,328.5,129.3,327.35,129.27,326.24z"/>
		<path class="st4" d="M126.31,313.65c-3.25,0-19.14-22.99-18.81-23.38c-2.33-1.2-4.91-2.34-7.63-3.43
			c-0.47,6.13,2.01,14.52,7.15,22.56c6.64,10.38,15.68,16.95,22.26,16.84c-0.09-4.67-0.8-8.61-2.37-11.27
			C126.64,314.52,126.45,314.08,126.31,313.65z"/>
		<path class="st4" d="M211.52,300.69c-35.81,10.71-67.02,12.66-81.55,12.92c-1.37,0.02-2.6,0.04-3.66,0.04
			c0.14,0.44,0.33,0.88,0.59,1.32c1.57,2.66,2.28,6.6,2.37,11.27c0.02,1.11,0.01,2.26-0.04,3.45c-0.63,17.32-7.91,42.15-11.4,53.15
			c-0.85,2.68,1.52,5.25,4.28,4.66c48.73-10.33,90.22-85.23,90.56-86.24L211.52,300.69z"/>
		<path class="st4" d="M52.79,268.45c-1.83,2.13-0.72,5.45,2.04,5.99c9.16,1.8,27.44,5.77,42.29,11.33c0.93,0.35,1.85,0.7,2.75,1.06
			c2.72,1.09,5.3,2.23,7.63,3.43c0.96-1.14,1.93-2.25,2.9-3.37c19.9-22.9,40.78-41.23,61.51-55.87l0.02-0.58
			C170.88,230.26,85.26,230.68,52.79,268.45z"/>
		<g>
			<path class="st4" d="M299.5,176.81c-32.02,5.93-79.37,20.15-127.6,54.22c-20.72,14.65-41.6,32.97-61.5,55.87
				c-0.97,1.12-1.94,2.23-2.9,3.37c-0.33,0.39,15.56,23.38,18.81,23.38c1.06,0,2.29-0.01,3.66-0.04
				c14.53-0.26,45.74-2.22,81.55-12.92c39.5-11.81,84.57-34.28,119-76.86C316.35,211.89,305.58,190.89,299.5,176.81z M197,285.66
				c-12.2,0-22.1-9.89-22.1-22.1s9.89-22.1,22.1-22.1c12.2,0,22.1,9.89,22.1,22.1S209.21,285.66,197,285.66z M263.82,251.98
				c-12.2,0-22.1-9.89-22.1-22.1c0-12.2,9.89-22.1,22.1-22.1c12.2,0,22.1,9.89,22.1,22.1C285.92,242.09,276.02,251.98,263.82,251.98
				z"/>
			<path class="st4" d="M197,241.46c-12.2,0-22.1,9.89-22.1,22.1s9.89,22.1,22.1,22.1c12.2,0,22.1-9.89,22.1-22.1
				S209.21,241.46,197,241.46z M197,279.86c-9,0-16.3-7.3-16.3-16.3s7.3-16.3,16.3-16.3s16.3,7.3,16.3,16.3
				S206.01,279.86,197,279.86z"/>
			
				<ellipse transform="matrix(0.3827 -0.9239 0.9239 0.3827 -121.8832 344.7152)" class="st4" cx="197.01" cy="263.56" rx="16.3" ry="16.3"/>
			<path class="st4" d="M263.82,207.79c-12.2,0-22.1,9.89-22.1,22.1c0,12.2,9.89,22.1,22.1,22.1c12.2,0,22.1-9.89,22.1-22.1
				S276.02,207.79,263.82,207.79z M263.82,246.19c-9,0-16.3-7.3-16.3-16.3s7.3-16.3,16.3-16.3s16.3,7.3,16.3,16.3
				S272.82,246.19,263.82,246.19z"/>
			<ellipse class="st4" cx="263.83" cy="229.88" rx="16.3" ry="16.3"/>
		</g>
		<path class="st4" d="M140.75,255.45c0,0-43.88-2.08-85.67,16.16"/>
		<path class="st4" d="M170.77,309.72c0,0-15.93,48.03-51.5,74.13"/>
	</g>
	<path class="st5" d="M323.25,219.41c-7.24,11.62-52.79,74.94-196.35,95.4c0,0,131.92,0.78,200.1-91.48
		C325.67,222.1,324.4,220.82,323.25,219.41z"/>
	<g>
		<g>
			<path class="st6" d="M268.47,209.9c0.07-1.97-9.45-2.93-13.61-3.2l-4.11,8.39l-0.13-0.05c1.44,2.97,4.39,8.64,6,8.71
				c2.19,0.09,6.19-4.83,6.19-4.83s2.28,2.46,4.28,2.09c2-0.36-4.83-9.75-4.83-9.75S268.38,212.36,268.47,209.9z"/>
			<path class="st6" d="M254.86,206.69L254.86,206.69c0,0-17.12-9.42-20.55-14.56c-0.99-1.49-2.87-3.92-5.23-6.62
				c-5.23-5.99-12.84-13.29-18.47-14.58l-1.89-0.09c-2.28,1.83-5.57,3.12-9.88,3.14c0,0,0.6,24.75-18.93,18.6
				c-0.19,0.02-0.37,0.05-0.57,0.07c0,0-28.08,18.84-30.14,21.92c-2.05,3.08,7.02,3.25,7.02,3.25s18.66-3.25,28.25-0.34
				s21.4-7.53,21.4-7.53l2.05-14.38c0,0,28.42,17.64,39.73,18.32l2.96,1.15l0.13,0.05L254.86,206.69z"/>
			<path class="st6" d="M216.96,143.66c-0.78,0.44-1.26,1.28-1.05,2.15c0.61,2.53,0.6,7.19-6.31,9.81c0,0,13.9,0.41,12.51-10.08
				c0,0,4.34-1.89,2.07-3.29c-1.86-1.14-4.06-2.44-4.8-2.87C218.95,141.41,218.19,142.97,216.96,143.66z"/>
			<path class="st6" d="M215.36,130.38c-0.62-5.72-6.41-3.63-6.69-3.69c-24.59-5.21-17.9,19.56-17.9,19.56s-5.59-2.66-11.6,11.18
				c-6.01,13.83-28.79,12.44-33.26,14.81c-4.47,2.38-9.22,6.15-6.43,15.37c2.79,9.22,20.47-3.75,21.96-3.3
				c3.77,1.13-5.75,8.19-5.75,8.19c2.79,14.53,12.42,3.57,14.51-0.09s5.23-1.63,5.23-1.63c1.61,0.77,3.1,1.36,4.49,1.8
				c19.53,6.16,18.93-18.6,18.93-18.6c4.31-0.02,7.6-1.32,9.88-3.14c3.67-2.95,4.69-7.3,2.96-9.99c-2.79-4.36-2.09-5.23-2.09-5.23
				c6.91-2.62,6.92-7.28,6.31-9.81c-0.21-0.87,0.27-1.71,1.05-2.15c1.23-0.69,1.99-2.25,2.42-4.27
				C220.12,135.98,215.81,134.54,215.36,130.38z"/>
			<g>
				<path class="st6" d="M156.23,217.82c-0.12,0.35-0.22,0.69-0.31,1.04C156.02,218.52,156.11,218.18,156.23,217.82z"/>
				<path class="st6" d="M155.92,218.86c0.09-0.35,0.19-0.69,0.31-1.04c0,0-15.33,14.27-22.58,15.66l23.54-2.55
					c-0.23-0.39-0.46-0.86-0.67-1.4c-0.1-0.14-0.2-0.27-0.29-0.42C154.93,226.93,154.51,223.67,155.92,218.86z"/>
				<path class="st6" d="M155.92,218.86c-1.41,4.81-0.99,8.07,0.31,10.25c0.09,0.15,0.2,0.28,0.29,0.42
					C155.52,227.02,154.84,223.01,155.92,218.86z"/>
				<path class="st6" d="M219.13,275.17c-0.26,0.9-0.5,1.73-0.72,2.48c-0.88,3-3.01,5.47-5.84,6.79l-6.04,2.81
					c-0.55,1.37-1.42,4.68,2.74,5.37c5.27,0.88,21.1-9.67,20.74-15.47C229.73,272.52,222.17,274.27,219.13,275.17z"/>
				<path class="st6" d="M233.8,212.69c-1.88-8.39-27.4-2.74-27.91-2.74c0,0-11.82,10.45-21.4,7.53
					c-9.59-2.91-28.25,0.34-28.25,0.34c-0.12,0.36-0.21,0.69-0.31,1.04c-1.08,4.15-0.4,8.16,0.6,10.68
					c3.14,4.54,10.15,4.04,10.15,4.04c19.69,20.21,46.23-3.08,46.23-3.08l-8.05,57.53l1.33-0.62l0.34-0.16l6.04-2.81
					c2.84-1.32,4.96-3.79,5.84-6.79c0.22-0.75,0.46-1.59,0.72-2.48C223.94,258.61,235.17,218.79,233.8,212.69z"/>
			</g>
			<g>
				<path class="st6" d="M237.31,181.13c-11.42-1.56-12.72-8.96-12.72-8.96l0.48-0.54l-14.45-0.7c5.63,1.29,13.23,8.59,18.47,14.58
					l7.43,0.16c0.1-1.33,0.45-2.83,1.12-4.51C237.52,181.15,237.42,181.15,237.31,181.13z"/>
			</g>
		</g>
		<path class="st6" d="M190.09,143.57c0,0-0.14,3.07,1.26,4.61s23.06-3.77,24.32-4.61s1.54,4.61,3.35,1.82s0.98-6.29,0.98-6.29
			s1.26,4.33,2.79,3.21c1.54-1.12-2.16-11.15-4.26-10.87c-2.1,0.28-4.91,0.12-5.05,3.33s-1.03,5.17-1.03,5.17s-4.21,2.09-8.38,3.21
			C198.05,144.77,191,144.89,190.09,143.57z"/>
		<g>
			<path class="st6" d="M296.01,226.66c-1.67,3.36-2.8,5.39-2.8,5.39s-3.8,9.24-10.68,7.97l-0.64-0.17
				c-0.52,1.59-0.87,4.42,2.99,5.06c5.43,0.91,21.73-9.96,21.37-15.94C305.98,224.63,299.53,225.73,296.01,226.66z"/>
			<path class="st6" d="M293.21,232.05c0,0,1.13-2.03,2.8-5.39c5.24-10.55,17.07-32.02,15.42-48.77
				c-1.24-12.65-16.77-12.95-29.59-9.97c-4.01,0.93-7.75,2.18-10.72,3.47c-4.11,1.79-7.79,4.16-7.79,4.16s-8.51,0-15.75,4.17
				c-2,1.15-9.74,0.92-9.94,1.45c-5.34,13.51,9.58,15.03,9.58,15.03c12.5,22.09,32.96,1.45,32.96,1.45l7.13-4.34l-6.77,46.17
				l1.36,0.37l0.64,0.17C289.4,241.28,293.21,232.05,293.21,232.05z"/>
			<path class="st6" d="M285,97.81c-2.73-0.67-3.78-0.22-3.78-0.22s0.61-3-1.61-1.78c0,0-4.45-2-4-3.23
				c0.44-1.22-0.22-6.17-6.12-2.95c0,0,0.28-3.06-4-1.84s-7.01,5.23-7.01,5.23s-3.28-0.5-3.11,0.83s-1.78,0.17-1.78,0.17
				s-2.5,0.22-1.95,3.28c0.56,3.06-2.73-0.22-2.73-0.22s-2.56-1.78-2.06,1.84c0.5,3.61,1.28,4.84,1.28,4.84s-8.29,1.22-5.51,6.95
				s3.17,5.67,3.17,5.67s-5.62,9.12,3.11,11.18c0,0,1.83,9.5,7.1,8.84c0.96-0.12,2.04-0.58,3.24-1.5c0,0,5.56,3.56,9.73-4.17
				c0,0-0.67-3.34,2.34-3.06c1.13,0.1,2.2,1.65,4.17,1.89c1.64,0.2,2.67-1.7,3.31-3.81c0.26-0.87,0.46-1.77,0.61-2.58
				c0.27-1.5,0.36-2.68,0.36-2.68s-2.61,1.89-4.95-0.56c0,0-4.17,1.22-4.89-1.89c0,0,2-0.89,2.84-5.28c0,0,1-7.29,5.56-5.78
				c0,0,2.39,0.22,2.73-0.22c0.33-0.44,0.22-3.84,2.5-3.89c0.5-0.01,0.98-0.24,1.4-0.58C286.44,101.08,287.13,98.33,285,97.81z"/>
			<g>
				<path class="st6" d="M313.97,172.84c0.66,1.1,4.74,1.21,4.74,1.21l12.36-1.43c0,0-8.28-1.77-9.6-3.86
					c-1.06-1.68-15.07-17.08-20.66-23.21L292.57,156C299.04,160.94,313.46,171.99,313.97,172.84z"/>
				<path class="st6" d="M334.49,65.05c-1.32-1.77-13.68,10.26-13.68,10.26l-33.54,28.25l-1.7,1.73c-0.2,2.48-0.33,5.54,0.26,5.76
					c1,0.39,4.73,0.5,4.45,2.5s-3.13,1.39-3.13,1.39c0.31,4.49-1.19,7.12-3.09,8.68l0.14,0.67c0.84,0.35,1.65,0.77,2.44,1.25
					c7.11-9.07,34.33-43.43,38.35-43.72c4.63-0.33,4.95-4.26,5.94-5.47s-0.87-2.36-0.87-2.36c0.11-1.1-1.99-2.1-1.99-2.1
					S335.82,66.81,334.49,65.05z"/>
				<path class="st6" d="M285.84,111.04c-0.59-0.23-0.47-3.28-0.26-5.76c0.14-1.73,0.32-3.19,0.32-3.19l-0.94,0.2
					c-0.42,0.34-0.9,0.57-1.4,0.58c-2.28,0.06-2.17,3.45-2.5,3.89s-2.73,0.22-2.73,0.22c-4.56-1.5-5.56,5.78-5.56,5.78
					c-0.83,4.39-2.84,5.28-2.84,5.28c0.72,3.11,4.89,1.89,4.89,1.89c2.34,2.45,4.95,0.56,4.95,0.56s-0.09,1.17-0.36,2.68
					c1.37,0.08,2.75,0.35,4.12,0.85c0.18-0.12,0.35-0.27,0.53-0.41c1.9-1.55,3.4-4.18,3.09-8.68c0,0,2.85,0.61,3.13-1.39
					C290.56,111.54,286.84,111.43,285.84,111.04z"/>
				<path class="st6" d="M286.66,125.54c-0.79-0.48-1.61-0.9-2.44-1.25l-0.14-0.67c-0.17,0.14-0.35,0.29-0.53,0.41
					c-1.37-0.5-2.75-0.77-4.12-0.85c-0.15,0.81-0.34,1.71-0.61,2.58c-0.64,2.11-1.68,4.01-3.31,3.81c-1.97-0.25-3.04-1.79-4.17-1.89
					c-3-0.28-2.34,3.06-2.34,3.06c-4.17,7.73-9.73,4.17-9.73,4.17c-1.2,0.92-2.28,1.38-3.24,1.5c-0.68,0.78-1.05,1.25-1.05,1.25
					l-30.37,34.52c0,0,1.3,7.4,12.72,8.96c0.11,0.01,0.21,0.02,0.32,0.03c0.21-0.53,7.94-0.3,9.94-1.45
					c7.24-4.17,15.75-4.17,15.75-4.17s3.68-2.37,7.79-4.16c2.96-1.29,6.71-2.54,10.72-3.47c-0.13-3.07,0.3-7.15,1.95-9.5
					c2.47-3.5,2.86-5.58,2.86-5.58l3.12,6.75l2.82-3.58l8.24-10.45l1.01-1.28C301.82,144.27,295.69,131.04,286.66,125.54z"/>
			</g>
		</g>
		<path class="st6" d="M271.06,117.2l8.02-4.19c0,0,3.36,1.77,4.57,0.19c1.21-1.58,1.4-2.8,1.4-2.8s4.01,1.4,4.47,0.19
			s1.4-8.95-3.36-10.16c0,0-1.03,2.05-3.64,3.08c-2.61,1.03-1.47,3.27-1.47,3.27s-3.1,0.28-3.47,0.28s-0.37,2.89-0.37,2.89
			L271.06,117.2z"/>
		<path class="st6" d="M287.83,192.22l10.07-5.91c0,0-11.82,12.76-11.55,11.95S287.83,192.22,287.83,192.22z"/>
		<polygon class="st6" points="213.3,229.15 220.42,222.17 211.96,237.48 		"/>
		<path class="st6" d="M193,172.12c0,0-2.05,13.86-12.84,12.07"/>
		<path class="st6" d="M193.49,147.69c0,0-6.42-1.34-10.03,12.3s-10.56,10.56-10.56,10.56"/>
		<path class="st6" d="M246.31,113.32c0,0-3.74,5.48-6.55,1.87"/>
		<path class="st6" d="M249.78,125.22c0,0-3.21,5.48-6.69,4.28"/>
		<path class="st6" d="M250.85,127.76c0,0-0.13,6.42-3.88,6.28"/>
		<path class="st6" d="M273.99,93.13c0,0,4.41-5.35,8.02-2.01"/>
	</g>
	<path class="st6" d="M200.59,74.3h89.47c3.83,0,7.48-1.85,9.56-5.06c2.32-3.57,3.67-7.87,3.67-12.49
		c0-12.43-9.78-22.51-21.86-22.51c-3.6,0-6.99,0.9-9.98,2.49c0-0.01,0-0.02,0-0.03c0-14.1-11.1-25.52-24.78-25.52
		c-13.03,0-23.71,10.36-24.7,23.52c-2-3.1-4.89-5.05-8.09-5.05c-5.88,0-10.68,6.55-10.94,14.78c-0.24-0.01-0.47-0.02-0.71-0.02
		c-7.76,0-14.06,6.93-14.06,15.47c0,3.89,1.3,7.44,3.46,10.16C193.79,72.77,197.12,74.3,200.59,74.3z"/>
	<g>
		<path class="st7" d="M253.14,45.31l18.03-23.11c-4.51-4.87-10.88-7.91-17.93-7.91c-13.03,0-23.71,10.36-24.7,23.52
			c-2-3.1-4.89-5.05-8.09-5.05c-4.66,0-8.64,4.11-10.22,9.9l5.89-0.12l-0.38,8.33"/>
		<path class="st7" d="M239.33,51.75l-20.4,25.67h-11.77c-3.48,0-6.81-1.53-8.97-4.26c-2.15-2.72-3.46-6.27-3.46-10.16
			c0-8.55,6.29-15.47,14.06-15.47c0.24,0,0.48,0.01,0.71,0.02l2.07,0.03l-4.43,7.46"/>
		<path class="st7" d="M243.56,70.2l-10.93-0.04c0,0-3.72,6.93-3.87,7.26h67.86c3.83,0,7.48-1.85,9.56-5.06
			c2.32-3.57,3.67-7.87,3.67-12.49c0-12.43-9.78-22.51-21.86-22.51c-3.6,0-6.99,0.9-9.98,2.49c0-0.01,0-0.02,0-0.03
			c0-4.75-1.26-9.19-3.45-13l-5.16,5.78"/>
		<line class="st7" x1="268.22" y1="19.57" x2="258.11" y2="32.28"/>
		<path class="st7" d="M228.76,64.77c-0.16,0-17.84,0.32-17.84,0.32"/>
		<line class="st7" x1="233.68" y1="58.6" x2="218.54" y2="58.6"/>
		<circle class="st8" cx="206.13" cy="56.74" r="2.41"/>
		<circle class="st8" cx="217.41" cy="58.39" r="2.41"/>
		<circle class="st8" cx="215.87" cy="51.04" r="2.41"/>
		<circle class="st8" cx="210.27" cy="65.2" r="2.41"/>
		<circle class="st8" cx="240.15" cy="50.83" r="2.41"/>
		<circle class="st8" cx="244.96" cy="70.62" r="2.41"/>
		<circle class="st8" cx="252.85" cy="46.72" r="2.41"/>
		<circle class="st8" cx="257.01" cy="33.42" r="2.41"/>
		<circle class="st8" cx="268.96" cy="33.69" r="2.41"/>
	</g>
	<path class="st6" d="M171.66,181.62H52.53c-5.1,0-9.95-2.47-12.73-6.74c-3.09-4.76-4.89-10.47-4.89-16.63
		c0-16.55,13.03-29.97,29.1-29.97c4.79,0,9.3,1.2,13.29,3.31c0-0.01,0-0.02,0-0.04c0-18.77,14.77-33.99,33-33.99
		c17.35,0,31.57,13.8,32.89,31.32c2.67-4.13,6.51-6.72,10.78-6.72c7.84,0,14.23,8.73,14.57,19.68c0.32-0.02,0.63-0.03,0.95-0.03
		c10.34,0,18.71,9.22,18.71,20.6c0,5.18-1.74,9.91-4.6,13.52C180.72,179.57,176.29,181.62,171.66,181.62z"/>
	<g>
		<path class="st7" d="M91.51,112.09c6.01-6.49,14.5-10,23.88-10.53c6.86-0.39,15.48,3.84,15.48,3.84l-39.32,47.3"/>
		<path class="st7" d="M172.6,166.14l-11.52,19.47h15.67c4.63,0,9.06-2.04,11.94-5.67c2.86-3.62,4.6-8.35,4.6-13.52
			c0-11.38-8.38-20.6-18.71-20.6c-0.32,0-0.64,0.01-0.95,0.03l-2.75,0.04l5.9,9.93"/>
		<path class="st7" d="M127.59,178.26l25.42,0.25c0,0-5.23,6.67-5.04,7.1H57.63c-5.1,0-9.95-2.47-12.73-6.74
			c-3.09-4.75-4.9-10.47-4.9-16.62c0-16.55,13.03-29.97,29.1-29.97c4.79,0,9.3,1.2,13.29,3.31c0-0.01,0-0.02,0-0.04
			c0-6.32,1.68-12.24,4.6-17.31l4.53-6.15"/>
		<path class="st7" d="M106.92,145.83l29.16-36.75c6.87,5.71,11.47,14.2,12.2,23.8c2.67-4.13,6.51-6.72,10.78-6.72
			c6.2,0,11.5,5.47,13.61,13.18l-7.84-0.16l0.5,11.08"/>
		<path class="st7" d="M147.88,167.26c0.22,0,24.52-0.74,24.52-0.74"/>
		<line class="st7" x1="142.2" y1="159.01" x2="179.74" y2="158.74"/>
		<circle class="st8" cx="178.11" cy="158.08" r="3.2"/>
		<circle class="st8" cx="140.05" cy="159.55" r="3.2"/>
		<circle class="st8" cx="165.15" cy="150.49" r="3.2"/>
		<circle class="st8" cx="146.86" cy="166.9" r="3.2"/>
		<circle class="st8" cx="127.59" cy="178.26" r="3.2"/>
		<circle class="st8" cx="106.42" cy="146.57" r="3.2"/>
		<circle class="st8" cx="91.39" cy="153.3" r="3.2"/>
		<circle class="st8" cx="58.83" cy="156.2" r="3.2"/>
		<line class="st7" x1="77.27" y1="133.8" x2="58.89" y2="155.61"/>
	</g>
	<path class="st3" d="M75.83,349.03c0,0,14.27,4.76,16.88-10.51c2.25-13.13-22.14-28.33-35.08-23.07
		c-16.88,6.85-27.2,11.82-23.82,39.77S1.92,394.8,1.92,394.8s-1.76,5.76,21.76-0.94C58.58,383.93,53.89,344.91,75.83,349.03z"/>
	<path class="st3" d="M31.09,359.61c0,0-8.93-3.61-16.21,8.02s-7.84,13.89-13.12,12.85c0,0,3.93,5.71,12.32,0.73
		C20.45,377.43,36.96,367.13,31.09,359.61z"/>
	<path class="st4" d="M78.13,351.58c0,0,14.27,4.76,16.88-10.51c2.25-13.13-22.14-28.33-35.08-23.07
		c-16.88,6.85-27.2,11.82-23.82,39.77S4.22,397.35,4.22,397.35s-1.76,5.76,21.76-0.94C60.87,386.47,56.18,347.45,78.13,351.58z"/>
	<path class="st9" d="M81.22,330.31c-0.76-1.7-1.87-3.25-3.53-4.58c-4.14-3.3-9.54-3.51-14.49-2.18
		c-13.24,3.56-15.53,11.2-16.29,17.82s-4.58,24.7-4.58,24.7L52.5,348.5c0,0-5.09,18.33-2.55,15.02
		c2.55-3.31,10.95-18.58,11.71-18.84c4.35-1.46,10.18,0.86,14.68,0.75c4.35-0.11,6.99-2.32,6.61-6.71
		C82.7,335.71,82.35,332.84,81.22,330.31z"/>
	<path class="st9" d="M18.5,374.88c1.36-0.54,11.56-8.43,11.42-11.02s-9.33,0.18-10.88,2.58s-8.99,9.74-7.21,9.93
		c1.63,0.17,4.08-2.45,3.67-1.9c-0.41,0.54-1.63,3.54-1.63,3.54L18.5,374.88z"/>
	<path class="st4" d="M33.38,362.16c0,0-8.93-3.61-16.21,8.02s-7.84,13.89-13.12,12.85c0,0,3.93,5.71,12.32,0.73
		C22.74,379.97,39.25,369.68,33.38,362.16z"/>
	<path class="st5" d="M103.74,289.83c0,0,8.73,27.06,24.22,28.15l-0.67-4.27c0,0-6.83-4.19-11.36-10.38c-3.2-4.38-6.21-10-6.82-14.6
		l-5.98-0.25L103.74,289.83z"/>
	<path class="st5" d="M327.39,210.99c1.28,1.02,1.84,1.69,3.02,2.78c0.05,0.04,0.09,0.1,0.14,0.14l17.82-25.9L327.39,210.99z"/>
	<g>
		<g>
			<path class="st10" d="M266.44,209.22c0.07-1.97-9.45-2.93-13.61-3.2l-4.11,8.39l-0.13-0.05c1.44,2.97,4.39,8.64,6,8.71
				c2.19,0.09,6.19-4.83,6.19-4.83s2.28,2.46,4.28,2.09c2-0.36-4.83-9.75-4.83-9.75S266.35,211.68,266.44,209.22z"/>
			<path class="st9" d="M252.83,206.02L252.83,206.02c0,0-17.12-9.42-20.55-14.56c-0.99-1.49-2.87-3.92-5.23-6.62
				c-5.23-5.99-12.84-13.29-18.47-14.58l-1.89-0.09c-2.28,1.83-5.57,3.12-9.88,3.14c0,0,0.6,24.75-18.93,18.6
				c-0.19,0.02-0.37,0.05-0.57,0.07c0,0-28.08,18.84-30.14,21.92c-2.05,3.08,7.02,3.25,7.02,3.25s18.66-3.25,28.25-0.34
				s21.4-7.53,21.4-7.53l2.05-14.38c0,0,28.42,17.64,39.73,18.32l2.96,1.15l0.13,0.05L252.83,206.02z"/>
			<path class="st10" d="M214.93,142.99c-0.78,0.44-1.26,1.28-1.05,2.15c0.61,2.53,0.6,7.19-6.31,9.81c0,0,13.9,0.41,12.51-10.08
				c0,0,4.34-1.89,2.07-3.29c-1.86-1.14-4.06-2.44-4.8-2.87C216.92,140.74,216.16,142.29,214.93,142.99z"/>
			<path class="st0" d="M213.34,129.71c-0.62-5.72-6.41-3.63-6.69-3.69c-24.59-5.21-17.9,19.56-17.9,19.56s-5.59-2.66-11.6,11.18
				c-6.01,13.83-28.79,12.44-33.26,14.81c-4.47,2.38-9.22,6.15-6.43,15.37c2.79,9.22,20.47-3.75,21.96-3.3
				c3.77,1.13-5.75,8.19-5.75,8.19c2.79,14.53,12.42,3.57,14.51-0.09s5.23-1.63,5.23-1.63c1.61,0.77,3.1,1.36,4.49,1.8
				c19.53,6.16,18.93-18.6,18.93-18.6c4.31-0.02,7.6-1.32,9.88-3.14c3.67-2.95,4.69-7.3,2.96-9.99c-2.79-4.36-2.09-5.23-2.09-5.23
				c6.91-2.62,6.92-7.28,6.31-9.81c-0.21-0.87,0.27-1.71,1.05-2.15c1.23-0.69,1.99-2.25,2.42-4.27
				C218.09,135.31,213.79,133.86,213.34,129.71z"/>
			<path class="st11" d="M154.2,217.15c-0.12,0.35-0.22,0.69-0.31,1.04C154,217.84,154.08,217.51,154.2,217.15z"/>
			<path class="st12" d="M153.9,218.19c0.09-0.35,0.19-0.69,0.31-1.04c0,0-15.33,14.27-22.58,15.66l23.54-2.55
				c-0.23-0.39-0.46-0.86-0.67-1.4c-0.1-0.14-0.2-0.27-0.29-0.42C152.91,226.25,152.49,222.99,153.9,218.19z"/>
			<path class="st1" d="M153.9,218.19c-1.41,4.81-0.99,8.07,0.31,10.25c0.09,0.15,0.2,0.28,0.29,0.42
				C153.5,226.35,152.81,222.33,153.9,218.19z"/>
			<path class="st5" d="M217.11,274.5c-0.26,0.9-0.5,1.73-0.72,2.48c-0.88,3-3.01,5.47-5.84,6.79l-6.04,2.81
				c-0.55,1.37-1.42,4.68,2.74,5.37c5.27,0.88,21.1-9.67,20.74-15.47C227.7,271.85,220.15,273.6,217.11,274.5z"/>
			<path class="st12" d="M231.77,212.01c-1.88-8.39-27.4-2.74-27.91-2.74c0,0-11.82,10.45-21.4,7.53
				c-9.59-2.91-28.25,0.34-28.25,0.34c-0.12,0.36-0.21,0.69-0.31,1.04c-1.08,4.15-0.4,8.16,0.6,10.68
				c3.14,4.54,10.15,4.04,10.15,4.04c19.69,20.21,46.23-3.08,46.23-3.08l-8.05,57.53l1.33-0.62l0.34-0.16l6.04-2.81
				c2.84-1.32,4.96-3.79,5.84-6.79c0.22-0.75,0.46-1.59,0.72-2.48C221.92,257.94,233.14,218.12,231.77,212.01z"/>
			<g>
				<path class="st9" d="M235.29,180.46c-11.42-1.56-12.72-8.96-12.72-8.96l0.48-0.54l-14.45-0.7c5.63,1.29,13.23,8.59,18.47,14.58
					l7.43,0.16c0.1-1.33,0.45-2.83,1.12-4.51C235.5,180.48,235.39,180.47,235.29,180.46z"/>
			</g>
		</g>
		<g>
			<path class="st5" d="M293.98,225.98c-1.67,3.36-2.8,5.39-2.8,5.39s-3.8,9.24-10.68,7.97l-0.64-0.17
				c-0.52,1.59-0.87,4.42,2.99,5.06c5.43,0.91,21.73-9.96,21.37-15.94C303.96,223.96,297.51,225.05,293.98,225.98z"/>
			<path class="st0" d="M291.18,231.37c0,0,1.13-2.03,2.8-5.39c5.24-10.55,17.07-32.02,15.42-48.77
				c-1.24-12.65-16.77-12.95-29.59-9.97c-4.01,0.93-7.75,2.18-10.72,3.47c-4.11,1.79-7.79,4.16-7.79,4.16s-8.51,0-15.75,4.17
				c-2,1.15-9.24-0.18-9.24-0.18c-0.27,0.56-0.5,1.1-0.71,1.63c-5.34,13.51,9.58,15.03,9.58,15.03c12.5,22.09,32.96,1.45,32.96,1.45
				l7.13-4.34l-6.77,46.17l1.36,0.37l0.64,0.17C287.38,240.61,291.18,231.37,291.18,231.37z"/>
			<path class="st5" d="M282.98,97.13c-2.73-0.67-3.78-0.22-3.78-0.22s0.61-3-1.61-1.78c0,0-4.45-2-4-3.23
				c0.44-1.22-0.22-6.17-6.12-2.95c0,0,0.28-3.06-4-1.84s-7.01,5.23-7.01,5.23s-3.28-0.5-3.11,0.83s-1.78,0.17-1.78,0.17
				s-2.5,0.22-1.95,3.28c0.56,3.06-2.73-0.22-2.73-0.22s-2.56-1.78-2.06,1.84c0.5,3.61,1.28,4.84,1.28,4.84s-8.29,1.22-5.51,6.95
				s3.17,5.67,3.17,5.67s-5.62,9.12,3.11,11.18c0,0,1.83,9.5,7.1,8.84c0.96-0.12,2.04-0.58,3.24-1.5c0,0,5.56,3.56,9.73-4.17
				c0,0-0.67-3.34,2.34-3.06c1.13,0.1,2.2,1.65,4.17,1.89c1.64,0.2,2.67-1.7,3.31-3.81c0.26-0.87,0.46-1.77,0.61-2.58
				c0.27-1.5,0.36-2.68,0.36-2.68s-2.61,1.89-4.95-0.56c0,0-4.17,1.22-4.89-1.89c0,0,2-0.89,2.84-5.28c0,0,1-7.29,5.56-5.78
				c0,0,2.39,0.22,2.73-0.22c0.33-0.44,0.22-3.84,2.5-3.89c0.5-0.01,0.98-0.24,1.4-0.58C284.41,100.41,285.1,97.65,282.98,97.13z"/>
			<path class="st13" d="M311.95,172.17c0.66,1.1,4.74,1.21,4.74,1.21l12.36-1.43c0,0-8.28-1.77-9.6-3.86
				c-1.06-1.68-15.07-17.08-20.66-23.21l-8.24,10.45C297.02,160.26,311.43,171.31,311.95,172.17z"/>
			<path class="st13" d="M332.47,64.37c-1.32-1.77-13.68,10.26-13.68,10.26l-33.54,28.25l-1.7,1.73c-0.2,2.48-0.33,5.54,0.26,5.76
				c1,0.39,4.73,0.5,4.45,2.5s-3.13,1.39-3.13,1.39c0.31,4.49-1.19,7.12-3.09,8.68l0.14,0.67c0.84,0.35,1.65,0.77,2.44,1.25
				c7.11-9.07,34.33-43.43,38.35-43.72c4.63-0.33,4.95-4.26,5.94-5.47s-0.87-2.36-0.87-2.36c0.11-1.1-1.99-2.1-1.99-2.1
				S333.79,66.14,332.47,64.37z"/>
			<path class="st13" d="M283.81,110.37c-0.59-0.23-0.47-3.28-0.26-5.76c0.14-1.73,0.32-3.19,0.32-3.19l-0.94,0.2
				c-0.42,0.34-0.9,0.57-1.4,0.58c-2.28,0.06-2.17,3.45-2.5,3.89s-2.73,0.22-2.73,0.22c-4.56-1.5-5.56,5.78-5.56,5.78
				c-0.83,4.39-2.84,5.28-2.84,5.28c0.72,3.11,4.89,1.89,4.89,1.89c2.34,2.45,4.95,0.56,4.95,0.56s-0.09,1.17-0.36,2.68
				c1.37,0.08,2.75,0.35,4.12,0.85c0.18-0.12,0.35-0.27,0.53-0.41c1.9-1.55,3.4-4.18,3.09-8.68c0,0,2.85,0.61,3.13-1.39
				C288.54,110.87,284.81,110.76,283.81,110.37z"/>
			<path class="st3" d="M284.63,124.86c-0.79-0.48-1.61-0.9-2.44-1.25l-0.14-0.67c-0.17,0.14-0.35,0.29-0.53,0.41
				c-1.37-0.5-2.75-0.77-4.12-0.85c-0.15,0.81-0.34,1.71-0.61,2.58c-0.64,2.11-1.68,4.01-3.31,3.81c-1.97-0.25-3.04-1.79-4.17-1.89
				c-3-0.28-2.34,3.06-2.34,3.06c-4.17,7.73-9.73,4.17-9.73,4.17c-1.2,0.92-2.28,1.38-3.24,1.5c-0.68,0.78-1.05,1.25-1.05,1.25
				l-30.37,34.52c0,0,1.3,7.4,12.72,8.96c0.11,0.01,0.21,0.02,0.32,0.03c0.21-0.53,7.94-0.3,9.94-1.45
				c7.24-4.17,15.75-4.17,15.75-4.17s3.68-2.37,7.79-4.16c2.96-1.29,6.71-2.54,10.72-3.47c-0.13-3.07,0.3-7.15,1.95-9.5
				c2.47-3.5,2.86-5.58,2.86-5.58l3.12,6.75l2.82-3.58l8.24-10.45l1.01-1.28C299.79,143.6,293.66,130.37,284.63,124.86z"/>
		</g>
	</g>
	<g>
		<g>
			<path class="st4" d="M268.47,209.9c0.07-1.97-9.45-2.93-13.61-3.2l-4.11,8.39l-0.13-0.05c1.44,2.97,4.39,8.64,6,8.71
				c2.19,0.09,6.19-4.83,6.19-4.83s2.28,2.46,4.28,2.09c2-0.36-4.83-9.75-4.83-9.75S268.38,212.36,268.47,209.9z"/>
			<path class="st4" d="M254.86,206.69L254.86,206.69c0,0-17.12-9.42-20.55-14.56c-0.99-1.49-2.87-3.92-5.23-6.62
				c-5.23-5.99-12.84-13.29-18.47-14.58l-1.89-0.09c-2.28,1.83-5.57,3.12-9.88,3.14c0,0,0.6,24.75-18.93,18.6
				c-0.19,0.02-0.37,0.05-0.57,0.07c0,0-28.08,18.84-30.14,21.92c-2.05,3.08,7.02,3.25,7.02,3.25s18.66-3.25,28.25-0.34
				s21.4-7.53,21.4-7.53l2.05-14.38c0,0,28.42,17.64,39.73,18.32l2.96,1.15l0.13,0.05L254.86,206.69z"/>
			<path class="st14" d="M216.96,143.66c-0.78,0.44-1.26,1.28-1.05,2.15c0.61,2.53,0.6,7.19-6.31,9.81c0,0,13.9,0.41,12.51-10.08
				c0,0,4.34-1.89,2.07-3.29c-1.86-1.14-4.06-2.44-4.8-2.87C218.95,141.41,218.19,142.97,216.96,143.66z"/>
			<path class="st4" d="M215.36,130.38c-0.62-5.72-6.41-3.63-6.69-3.69c-24.59-5.21-17.9,19.56-17.9,19.56s-5.59-2.66-11.6,11.18
				c-6.01,13.83-28.79,12.44-33.26,14.81c-4.47,2.38-9.22,6.15-6.43,15.37c2.79,9.22,20.47-3.75,21.96-3.3
				c3.77,1.13-5.75,8.19-5.75,8.19c2.79,14.53,12.42,3.57,14.51-0.09s5.23-1.63,5.23-1.63c1.61,0.77,3.1,1.36,4.49,1.8
				c19.53,6.16,18.93-18.6,18.93-18.6c4.31-0.02,7.6-1.32,9.88-3.14c3.67-2.95,4.69-7.3,2.96-9.99c-2.79-4.36-2.09-5.23-2.09-5.23
				c6.91-2.62,6.92-7.28,6.31-9.81c-0.21-0.87,0.27-1.71,1.05-2.15c1.23-0.69,1.99-2.25,2.42-4.27
				C220.12,135.98,215.81,134.54,215.36,130.38z"/>
			<g>
				<path class="st11" d="M156.23,217.82c-0.12,0.35-0.22,0.69-0.31,1.04C156.02,218.52,156.11,218.18,156.23,217.82z"/>
				<path class="st14" d="M155.92,218.86c0.09-0.35,0.19-0.69,0.31-1.04c0,0-15.33,14.27-22.58,15.66l23.54-2.55
					c-0.23-0.39-0.46-0.86-0.67-1.4c-0.1-0.14-0.2-0.27-0.29-0.42C154.93,226.93,154.51,223.67,155.92,218.86z"/>
				<path class="st14" d="M155.92,218.86c-1.41,4.81-0.99,8.07,0.31,10.25c0.09,0.15,0.2,0.28,0.29,0.42
					C155.52,227.02,154.84,223.01,155.92,218.86z"/>
				<path class="st4" d="M219.13,275.17c-0.26,0.9-0.5,1.73-0.72,2.48c-0.88,3-3.01,5.47-5.84,6.79l-6.04,2.81
					c-0.55,1.37-1.42,4.68,2.74,5.37c5.27,0.88,21.1-9.67,20.74-15.47C229.73,272.52,222.17,274.27,219.13,275.17z"/>
				<path class="st4" d="M233.8,212.69c-1.88-8.39-27.4-2.74-27.91-2.74c0,0-11.82,10.45-21.4,7.53
					c-9.59-2.91-28.25,0.34-28.25,0.34c-0.12,0.36-0.21,0.69-0.31,1.04c-1.08,4.15-0.4,8.16,0.6,10.68
					c3.14,4.54,10.15,4.04,10.15,4.04c19.69,20.21,46.23-3.08,46.23-3.08l-8.05,57.53l1.33-0.62l0.34-0.16l6.04-2.81
					c2.84-1.32,4.96-3.79,5.84-6.79c0.22-0.75,0.46-1.59,0.72-2.48C223.94,258.61,235.17,218.79,233.8,212.69z"/>
			</g>
			<g>
				<path class="st4" d="M237.31,181.13c-11.42-1.56-12.72-8.96-12.72-8.96l0.48-0.54l-14.45-0.7c5.63,1.29,13.23,8.59,18.47,14.58
					l7.43,0.16c0.1-1.33,0.45-2.83,1.12-4.51C237.52,181.15,237.42,181.15,237.31,181.13z"/>
			</g>
		</g>
		<path class="st5" d="M190.09,143.57c0,0-0.14,3.07,1.26,4.61s23.06-3.77,24.32-4.61s1.54,4.61,3.35,1.82s0.98-6.29,0.98-6.29
			s1.26,4.33,2.79,3.21c1.54-1.12-2.16-11.15-4.26-10.87c-2.1,0.28-4.91,0.12-5.05,3.33s-1.03,5.17-1.03,5.17s-4.21,2.09-8.38,3.21
			C198.05,144.77,191,144.89,190.09,143.57z"/>
		<g>
			<path class="st4" d="M296.01,226.66c-1.67,3.36-2.8,5.39-2.8,5.39s-3.8,9.24-10.68,7.97l-0.64-0.17
				c-0.52,1.59-0.87,4.42,2.99,5.06c5.43,0.91,21.73-9.96,21.37-15.94C305.98,224.63,299.53,225.73,296.01,226.66z"/>
			<path class="st4" d="M293.21,232.05c0,0,1.13-2.03,2.8-5.39c5.24-10.55,17.07-32.02,15.42-48.77
				c-1.24-12.65-16.77-12.95-29.59-9.97c-4.01,0.93-7.75,2.18-10.72,3.47c-4.11,1.79-7.79,4.16-7.79,4.16s-8.51,0-15.75,4.17
				c-2,1.15-9.74,0.92-9.94,1.45c-5.34,13.51,9.58,15.03,9.58,15.03c12.5,22.09,32.96,1.45,32.96,1.45l7.13-4.34l-6.77,46.17
				l1.36,0.37l0.64,0.17C289.4,241.28,293.21,232.05,293.21,232.05z"/>
			<path class="st4" d="M285,97.81c-2.73-0.67-3.78-0.22-3.78-0.22s0.61-3-1.61-1.78c0,0-4.45-2-4-3.23
				c0.44-1.22-0.22-6.17-6.12-2.95c0,0,0.28-3.06-4-1.84s-7.01,5.23-7.01,5.23s-3.28-0.5-3.11,0.83s-1.78,0.17-1.78,0.17
				s-2.5,0.22-1.95,3.28c0.56,3.06-2.73-0.22-2.73-0.22s-2.56-1.78-2.06,1.84c0.5,3.61,1.28,4.84,1.28,4.84s-8.29,1.22-5.51,6.95
				s3.17,5.67,3.17,5.67s-5.62,9.12,3.11,11.18c0,0,1.83,9.5,7.1,8.84c0.96-0.12,2.04-0.58,3.24-1.5c0,0,5.56,3.56,9.73-4.17
				c0,0-0.67-3.34,2.34-3.06c1.13,0.1,2.2,1.65,4.17,1.89c1.64,0.2,2.67-1.7,3.31-3.81c0.26-0.87,0.46-1.77,0.61-2.58
				c0.27-1.5,0.36-2.68,0.36-2.68s-2.61,1.89-4.95-0.56c0,0-4.17,1.22-4.89-1.89c0,0,2-0.89,2.84-5.28c0,0,1-7.29,5.56-5.78
				c0,0,2.39,0.22,2.73-0.22c0.33-0.44,0.22-3.84,2.5-3.89c0.5-0.01,0.98-0.24,1.4-0.58C286.44,101.08,287.13,98.33,285,97.81z"/>
			<g>
				<path class="st4" d="M313.97,172.84c0.66,1.1,4.74,1.21,4.74,1.21l12.36-1.43c0,0-8.28-1.77-9.6-3.86
					c-1.06-1.68-15.07-17.08-20.66-23.21L292.57,156C299.04,160.94,313.46,171.99,313.97,172.84z"/>
				<path class="st4" d="M334.49,65.05c-1.32-1.77-13.68,10.26-13.68,10.26l-33.54,28.25l-1.7,1.73c-0.2,2.48-0.33,5.54,0.26,5.76
					c1,0.39,4.73,0.5,4.45,2.5s-3.13,1.39-3.13,1.39c0.31,4.49-1.19,7.12-3.09,8.68l0.14,0.67c0.84,0.35,1.65,0.77,2.44,1.25
					c7.11-9.07,34.33-43.43,38.35-43.72c4.63-0.33,4.95-4.26,5.94-5.47s-0.87-2.36-0.87-2.36c0.11-1.1-1.99-2.1-1.99-2.1
					S335.82,66.81,334.49,65.05z"/>
				<path class="st4" d="M285.84,111.04c-0.59-0.23-0.47-3.28-0.26-5.76c0.14-1.73,0.32-3.19,0.32-3.19l-0.94,0.2
					c-0.42,0.34-0.9,0.57-1.4,0.58c-2.28,0.06-2.17,3.45-2.5,3.89s-2.73,0.22-2.73,0.22c-4.56-1.5-5.56,5.78-5.56,5.78
					c-0.83,4.39-2.84,5.28-2.84,5.28c0.72,3.11,4.89,1.89,4.89,1.89c2.34,2.45,4.95,0.56,4.95,0.56s-0.09,1.17-0.36,2.68
					c1.37,0.08,2.75,0.35,4.12,0.85c0.18-0.12,0.35-0.27,0.53-0.41c1.9-1.55,3.4-4.18,3.09-8.68c0,0,2.85,0.61,3.13-1.39
					C290.56,111.54,286.84,111.43,285.84,111.04z"/>
				<path class="st4" d="M286.66,125.54c-0.79-0.48-1.61-0.9-2.44-1.25l-0.14-0.67c-0.17,0.14-0.35,0.29-0.53,0.41
					c-1.37-0.5-2.75-0.77-4.12-0.85c-0.15,0.81-0.34,1.71-0.61,2.58c-0.64,2.11-1.68,4.01-3.31,3.81c-1.97-0.25-3.04-1.79-4.17-1.89
					c-3-0.28-2.34,3.06-2.34,3.06c-4.17,7.73-9.73,4.17-9.73,4.17c-1.2,0.92-2.28,1.38-3.24,1.5c-0.68,0.78-1.05,1.25-1.05,1.25
					l-30.37,34.52c0,0,1.3,7.4,12.72,8.96c0.11,0.01,0.21,0.02,0.32,0.03c0.21-0.53,7.94-0.3,9.94-1.45
					c7.24-4.17,15.75-4.17,15.75-4.17s3.68-2.37,7.79-4.16c2.96-1.29,6.71-2.54,10.72-3.47c-0.13-3.07,0.3-7.15,1.95-9.5
					c2.47-3.5,2.86-5.58,2.86-5.58l3.12,6.75l2.82-3.58l8.24-10.45l1.01-1.28C301.82,144.27,295.69,131.04,286.66,125.54z"/>
			</g>
		</g>
		<path class="st5" d="M271.06,117.2l8.02-4.19c0,0,3.36,1.77,4.57,0.19c1.21-1.58,1.4-2.8,1.4-2.8s4.01,1.4,4.47,0.19
			s1.4-8.95-3.36-10.16c0,0-1.03,2.05-3.64,3.08c-2.61,1.03-1.47,3.27-1.47,3.27s-3.1,0.28-3.47,0.28s-0.37,2.89-0.37,2.89
			L271.06,117.2z"/>
		<path class="st5" d="M287.83,192.22l10.07-5.91c0,0-11.82,12.76-11.55,11.95S287.83,192.22,287.83,192.22z"/>
		<polygon class="st5" points="213.3,229.15 220.42,222.17 211.96,237.48 		"/>
		<path class="st4" d="M193,172.12c0,0-2.05,13.86-12.84,12.07"/>
		<path class="st4" d="M193.49,147.69c0,0-6.42-1.34-10.03,12.3s-10.56,10.56-10.56,10.56"/>
		<path class="st4" d="M246.31,113.32c0,0-3.74,5.48-6.55,1.87"/>
		<path class="st4" d="M249.78,125.22c0,0-3.21,5.48-6.69,4.28"/>
		<path class="st4" d="M250.85,127.76c0,0-0.13,6.42-3.88,6.28"/>
		<path class="st4" d="M273.99,93.13c0,0,4.41-5.35,8.02-2.01"/>
	</g>
	<path class="st5" d="M181.33,216.75c0,0-25.1,3.1-25.72,4.8s0.62-3.73,0.62-3.73S175.9,215.35,181.33,216.75z"/>
	<path class="st5" d="M261.77,175.14l-24.46,5.99c0,0-2.17,4.46-0.8,4.54C237.87,185.76,261.77,175.14,261.77,175.14z"/>
	<path class="st5" d="M155.64,230.53c0.59,1.4,1.52,6.35,7.72,6.35s8.34,8.95,31.45,4.96c2.2-0.38,10.38-5.89,10.38-5.89
		s-21.71,14.29-38.51-2.38c0,0-9.14-0.53-9.48-2.64L155.64,230.53z"/>
	<path class="st5" d="M239.27,193.66c0,0,2.48,3.41,6.97,4.03c0,0,3.72,6.66,8.06,7.28l-7.08-8.78L239.27,193.66z"/>
	<path class="st6" d="M230.09,391.04h172.19c7.37,0,14.39-3.56,18.4-9.74c4.46-6.88,7.07-15.14,7.07-24.03
		c0-23.92-18.83-43.32-42.06-43.32c-6.92,0-13.45,1.73-19.21,4.78c0-0.02,0-0.04,0-0.05c0-27.13-21.36-49.12-47.7-49.12
		c-25.08,0-45.63,19.94-47.54,45.27c-3.86-5.97-9.41-9.71-15.58-9.71c-11.33,0-20.56,12.62-21.06,28.44
		c-0.46-0.03-0.91-0.04-1.37-0.04c-14.94,0-27.05,13.33-27.05,29.78c0,7.48,2.51,14.32,6.65,19.55
		C216.99,388.09,223.4,391.04,230.09,391.04z"/>
	<g>
		<circle class="st3" cx="394.4" cy="34.49" r="29.63"/>
		<circle class="st4" cx="396.76" cy="34.49" r="29.63"/>
		<line class="st4" x1="404.95" y1="6.04" x2="384.34" y2="25.16"/>
		<path class="st4" d="M370.5,49.2c0.26-0.17,22.11-17.35,22.11-17.35"/>
		<path class="st4" d="M379.26,42.32c0,0,13.78,5.61,14.03,5.53c0.26-0.09,13.95-7.14,13.95-7.14"/>
		<circle class="st5" cx="382.08" cy="27.25" r="3.9"/>
		<circle class="st5" cx="395.31" cy="30.71" r="3.9"/>
		<circle class="st5" cx="410" cy="39.19" r="3.9"/>
	</g>
	<g>
		<path class="st7" d="M325.12,330.83l34.7-44.47c-8.69-9.37-20.94-15.21-34.51-15.21c-25.08,0-45.63,19.94-47.54,45.27
			c-3.86-5.97-9.41-9.71-15.58-9.71c-8.97,0-16.62,7.91-19.67,19.05l11.33-0.23l-0.73,16.02"/>
		<path class="st7" d="M298.54,343.22l-39.27,49.41h-22.66c-6.69,0-13.1-2.95-17.26-8.2c-4.14-5.23-6.65-12.07-6.65-19.55
			c0-16.45,12.11-29.78,27.05-29.78c0.46,0,0.92,0.01,1.37,0.04l3.98,0.06l-8.53,14.36"/>
		<path class="st7" d="M306.68,378.74l-21.04-0.08c0,0-7.16,13.35-7.44,13.97h130.6c7.37,0,14.39-3.56,18.4-9.74
			c4.46-6.88,7.07-15.14,7.07-24.03c0-23.92-18.83-43.32-42.06-43.32c-6.92,0-13.45,1.73-19.21,4.78c0-0.02,0-0.04,0-0.05
			c0-9.14-2.42-17.69-6.64-25.02l-9.93,11.13"/>
		<line class="st7" x1="354.15" y1="281.3" x2="334.69" y2="305.75"/>
		<path class="st7" d="M278.2,368.28c-0.31,0-34.33,0.62-34.33,0.62"/>
		<line class="st7" x1="287.67" y1="356.42" x2="258.54" y2="356.42"/>
		<circle class="st8" cx="234.66" cy="352.83" r="4.63"/>
		<circle class="st8" cx="256.35" cy="356.01" r="4.63"/>
		<circle class="st8" cx="253.39" cy="341.86" r="4.63"/>
		<circle class="st8" cx="242.62" cy="369.12" r="4.63"/>
		<circle class="st8" cx="300.12" cy="341.46" r="4.63"/>
		<circle class="st8" cx="309.38" cy="379.54" r="4.63"/>
		<circle class="st8" cx="324.57" cy="333.56" r="4.63"/>
		<circle class="st8" cx="332.58" cy="307.96" r="4.63"/>
		<circle class="st8" cx="355.58" cy="308.48" r="4.63"/>
	</g>
</g>
</svg>
