<svg width="306" height="294" viewBox="0 0 306 294" fill="none" xmlns="http://www.w3.org/2000/svg">
<g clip-path="url(#clip0)">
<path d="M300.694 197.993C321.905 197.993 339.099 180.824 339.099 159.645C339.099 138.466 321.905 121.297 300.694 121.297C279.484 121.297 262.289 138.466 262.289 159.645C262.289 180.824 279.484 197.993 300.694 197.993Z" stroke="white" stroke-width="0.939672" stroke-miterlimit="10"/>
<path d="M280.731 27.4033C291.628 27.4033 300.462 18.5826 300.462 7.70166C300.462 -3.17926 291.628 -12 280.731 -12C269.834 -12 261 -3.17926 261 7.70166C261 18.5826 269.834 27.4033 280.731 27.4033Z" stroke="white" stroke-width="0.939672" stroke-miterlimit="10"/>
<path d="M162.959 248.723L206.229 217.937C207.399 217.1 207.679 215.477 206.84 214.3L176.008 171.094C175.169 169.925 173.545 169.646 172.366 170.484L129.096 201.27C127.925 202.107 127.646 203.73 128.484 204.907L159.317 248.113C160.155 249.29 161.788 249.561 162.959 248.723Z" stroke="white" stroke-width="0.939672" stroke-miterlimit="10"/>
<path d="M17.525 105.59L60.7164 110.396C61.8868 110.527 62.9437 109.681 63.0747 108.512L67.8873 65.3846C68.0183 64.2159 67.1711 63.1606 66.0007 63.0298L22.8092 58.2243C21.6388 58.0935 20.582 58.9394 20.451 60.1081L15.6384 103.235C15.5073 104.404 16.3546 105.459 17.525 105.59Z" stroke="white" stroke-width="0.939672" stroke-miterlimit="10"/>
<path d="M148.706 5.80835L158.244 62.044C158.358 62.733 159.179 63.0295 159.711 62.5934L203.724 26.2252C204.257 25.7804 204.117 24.9257 203.462 24.6815L149.92 4.80539C149.256 4.56991 148.593 5.11936 148.706 5.80835Z" stroke="white" stroke-width="0.939672" stroke-miterlimit="10"/>
</g>
<defs>
<clipPath id="clip0">
<rect width="306" height="294" fill="white"/>
</clipPath>
</defs>
</svg>
