<?xml version="1.0" encoding="utf-8"?>
<!-- Generator: Adobe Illustrator 25.2.0, SVG Export Plug-In . SVG Version: 6.00 Build 0)  -->
<svg version="1.1" id="Layer_1" xmlns="http://www.w3.org/2000/svg" xmlns:xlink="http://www.w3.org/1999/xlink" x="0px" y="0px"
	 viewBox="0 0 2160 1080" style="enable-background:new 0 0 2160 1080;" xml:space="preserve">
<style type="text/css">
	.st0{clip-path:url(#SVGID_2_);}
	.st1{fill:#1D5392;}
	.st2{fill:#FFFFFF;}
	.st3{fill:none;stroke:#468FBA;stroke-width:2.1496;stroke-miterlimit:9.9999;}
	.st4{fill:none;stroke:#468FBA;stroke-width:2.1496;stroke-miterlimit:10;}
	.st5{fill:#90BCD6;}
	.st6{fill:#468FBA;}
	.st7{fill:#245486;}
	.st8{fill:none;stroke:#245486;stroke-width:2.6479;stroke-miterlimit:10;}
	.st9{fill:#B5D2E3;}
	.st10{fill:none;stroke:#245486;stroke-width:3.448;stroke-miterlimit:10;}
	.st11{fill:none;stroke:#1D5392;stroke-width:2.1496;stroke-miterlimit:10;}
	.st12{fill:#82B2D0;}
	.st13{fill:none;stroke:#245486;stroke-width:2.1496;stroke-miterlimit:10;}
	.st14{fill:#336480;}
	.st15{fill:none;stroke:#1D5392;stroke-width:3.1929;stroke-miterlimit:10;}
	.st16{fill-rule:evenodd;clip-rule:evenodd;fill:#80B690;}
	.st17{fill-rule:evenodd;clip-rule:evenodd;fill:#468FBA;}
	.st18{fill-rule:evenodd;clip-rule:evenodd;fill:#DF635C;}
	.st19{fill-rule:evenodd;clip-rule:evenodd;fill:#F4C55C;}
	.st20{fill:none;stroke:#245486;stroke-width:3.4548;stroke-miterlimit:10;}
	.st21{fill:none;stroke:#1D5392;stroke-width:3.4548;stroke-miterlimit:10;}
	.st22{fill:none;stroke:#1D5392;stroke-width:3.1931;stroke-miterlimit:10.0005;}
	.st23{clip-path:url(#SVGID_4_);}
	.st24{fill:none;stroke:#468FBA;stroke-width:3;stroke-miterlimit:10;}
	.st25{fill:none;stroke:#1D5392;stroke-width:3;stroke-miterlimit:10;}
</style>
<g>
	<g>
		<defs>
			<rect id="SVGID_1_" x="1.6" y="-0.6" width="2156.8" height="1081.1"/>
		</defs>
		<clipPath id="SVGID_2_">
			<use xlink:href="#SVGID_1_"  style="overflow:visible;"/>
		</clipPath>
		<g class="st0">
			<rect x="1.6" y="0" class="st1" width="2160" height="1080"/>
			<g>
				<path class="st2" d="M151.3,257.4c-2.4-1.4-5.9-2.1-10.4-2.1c-4.7,0-8.2,0.8-10.5,2.5c-2.2,1.4-3.5,3.9-3.5,6.5
					c0,1,0.2,2,0.7,2.9c0.6,1.2,1.5,2.3,2.7,3c1.8,1.2,3.7,2,5.7,2.6l17.7,5c6.9,1.9,11.9,4.9,15,9c6,8.3,6.3,19.5,0.7,28
					c-2.9,4-6.9,7.1-11.6,8.9c-5.7,2.2-11.7,3.3-17.8,3.1c-4.8,0-9.6-0.5-14.3-1.7c-4.2-1-8.2-2.7-11.8-5c-3.2-2-5.9-4.6-8-7.7
					c-0.3-0.6-0.5-1.2-0.4-1.9c0.2-0.6,0.6-1.2,1.1-1.5l8.6-5.9c0.6-0.5,1.4-0.7,2.2-0.7c0.6,0.1,1.1,0.4,1.5,0.9
					c1.6,2,3.4,3.9,5.3,5.6c1.8,1.5,3.9,2.6,6.1,3.2c2.7,0.7,5.5,1.1,8.3,1c4.9,0,8.8-0.8,11.7-2.3c2.8-1.3,4.5-4.1,4.4-7.1
					c0-1.2-0.3-2.5-0.9-3.5c-0.7-1.2-1.7-2.2-2.9-2.9c-1.7-1-3.6-1.9-5.6-2.4l-16.9-4.8c-4-1.1-7.8-2.9-11.1-5.4
					c-2.9-2.2-5.2-5-6.8-8.2c-3.6-7.3-2.9-16,1.7-22.8c2.8-4,6.7-7.1,11.2-9c5.3-2.3,11.1-3.4,16.9-3.3c4,0,8,0.5,11.9,1.5
					c3.5,0.9,6.9,2.2,10,4c2.8,1.6,5.3,3.7,7.3,6.3c0.3,0.4,0.5,0.8,0.7,1.3c0.1,0.5-0.1,1-0.7,1.5l-9.4,7c-0.4,0.3-0.8,0.4-1.2,0.3
					c-0.6-0.2-1.1-0.6-1.6-1.1C155.7,260.3,153.6,258.7,151.3,257.4z"/>
				<path class="st2" d="M243.2,324.9c-0.4,0.6-1.1,1-1.8,0.9h-14.7c-0.7,0-1.3-0.2-1.8-0.6c-0.5-0.5-0.9-1.1-1.2-1.7l-11.6-23.1
					c-0.2-0.6-0.5-0.9-0.8-1c-0.3-0.1-0.7,0.1-1.1,0.6l-8,7.9c-0.3,0.3-0.6,0.7-0.7,1.1c-0.2,0.5-0.3,1.1-0.3,1.7v12.6
					c0.1,0.8-0.2,1.5-0.7,2.1c-0.6,0.5-1.4,0.7-2.2,0.6h-11.9c-1.1,0.3-2.2-0.4-2.4-1.4c-0.1-0.3-0.1-0.6,0-0.9v-78.7
					c0-1.4,0.6-2.1,1.8-2.1h13.8c1.1,0,1.7,0.7,1.7,2v46c-0.1,0.3,0.1,0.7,0.3,0.9c0.2,0.1,0.6,0,1-0.6l21.1-22.9
					c0.8-0.9,1.8-1.5,3-1.7h12c1.1,0,1.7,0.3,1.9,0.8c0.2,0.6,0,1.2-0.8,2l-15.7,15.9c-0.4,0.3-0.6,0.8-0.7,1.3
					c0,0.6,0.2,1.3,0.5,1.9l19.2,35C243.5,323.7,243.5,324.4,243.2,324.9z"/>
				<path class="st2" d="M249.4,344c-0.9-0.1-1.6-0.9-1.6-1.8v-8.6c0-0.5,0.3-1,0.7-1.2c0.8-0.5,1.7-0.6,2.6-0.6h7.6
					c1.4,0,2.7-0.3,3.9-1c1.1-0.6,2-1.5,2.8-2.5c0.7-0.9,1.2-2,1.5-3.1c0.3-1,0.2-2.1-0.2-3l-21.5-53c-0.3-0.6-0.3-1.3,0.1-1.9
					c0.4-0.6,1.1-0.9,1.7-0.8h14.1c0.6,0,1.1,0.2,1.6,0.5c0.5,0.4,0.8,0.8,0.9,1.4l12.5,33.4c0.2,0.7,0.5,1,0.9,1.1
					c0.4,0,0.7-0.4,1-1.2l12.3-33.4c0.3-0.5,0.6-0.9,1-1.3c0.4-0.4,0.9-0.5,1.5-0.5h9.6c0.6-0.1,1.3,0.3,1.6,0.8
					c0.3,0.5,0.3,1.2,0,1.7l-23,56.9c-1.3,3.3-2.9,6.5-4.9,9.5c-1.5,2.2-3.4,4.1-5.5,5.6c-2.1,1.3-4.4,2.2-6.9,2.7
					c-3,0.5-6.1,0.8-9.1,0.7C252.8,344.4,251.1,344.3,249.4,344z"/>
				<path class="st2" d="M329.8,323.1c0.1,0.8-0.2,1.5-0.7,2.1c-0.7,0.5-1.5,0.7-2.4,0.6h-11.9c-1.6,0-2.5-0.8-2.5-2.4l0.3-78.7
					c0-1.4,0.6-2.1,1.8-2.1h13.6c1.1,0,1.7,0.7,1.7,2L329.8,323.1L329.8,323.1z"/>
				<path class="st2" d="M359.8,256.4c0,1.9-1,2.8-3,2.8h-12.1c-0.7,0.1-1.5-0.1-2-0.7c-0.4-0.6-0.5-1.2-0.5-1.9v-11.8
					c0-1.5,0.6-2.2,1.9-2.2H358c1.2,0,1.8,0.7,1.8,2.1L359.8,256.4L359.8,256.4z M359.5,323.1c0.1,0.8-0.2,1.5-0.7,2.1
					c-0.7,0.5-1.5,0.7-2.4,0.6h-11.8c-1.1,0.3-2.2-0.4-2.5-1.4c-0.1-0.3-0.1-0.6,0-0.9v-55c0-1.4,0.6-2.1,1.8-2.1h13.8
					c1.1,0,1.7,0.6,1.7,1.9V323.1z"/>
				<path class="st2" d="M433.7,264.4c0.5,0.5,0.7,1.2,0.6,1.9v7.6c0.1,0.8-0.2,1.6-0.7,2.2c-0.5,0.4-1.2,0.6-1.9,0.4
					c-1-0.1-1.9-0.2-2.9-0.3c-0.8,0-1.6,0-2.4,0.2c-2,0.3-2.8,1.2-2.2,2.6c0.1,0.7,0.4,1.4,0.6,2.2c0.3,0.9,0.4,1.9,0.4,2.8
					c0,3.3-1,6.6-3,9.2c-2.3,3-5.4,5.4-9,6.7c-4.8,1.8-9.9,2.6-15,2.5c-2.4,0-4.8,0.1-7.2,0.5c-1.4,0.2-2.7,0.6-3.9,1.4
					c-0.7,0.4-1.1,1.1-1.2,1.9c0,1,0.8,1.9,1.7,2.1c1.7,0.5,3.5,0.8,5.3,0.8l16,0.9c7.6,0.5,13.2,2.1,16.7,5
					c3.4,2.7,5.4,6.9,5.3,11.2c0,5.7-2.7,10.3-8.1,13.9s-13.3,5.4-23.8,5.4c-10.8,0-19-1.2-24.5-3.6c-5.5-2.4-8.2-6-8.2-10.9
					c-0.1-2.5,1.1-4.9,3-6.4c2.3-1.8,4.9-3.2,7.7-4.1c1-0.4,1-0.8,0-1.2c-1.7-0.8-3.3-1.9-4.6-3.3c-1.2-1.4-1.9-3.1-1.9-5
					c0-1.5,0.5-2.9,1.5-4.1c1.1-1.4,2.4-2.5,3.9-3.4c1.7-1.1,3.6-2,5.5-2.7c0.3-0.1,0.6-0.3,0.8-0.6c0.1-0.3,0-0.5-0.6-0.7
					c-3.2-1.4-6-3.5-8.1-6.3c-1.9-2.6-2.9-5.8-2.8-9c0-5.5,2.4-10,7.2-13.5s11.9-5.2,21.1-5.2c3.6-0.1,7.2,0.4,10.6,1.4
					c2.7,0.7,5.1,2,7.3,3.7c0.5,0.4,1,0.5,1.6,0.5c0.5,0,1.1-0.3,1.4-0.7c1-1.2,2.2-2.3,3.5-3.2c1.3-1,2.8-1.8,4.3-2.4
					c1.2-0.5,2.6-0.9,3.9-0.9C432.7,263.8,433.3,264,433.7,264.4z M389.8,322.5c-1.5-0.1-2.9,0.1-4.3,0.7c-1.3,0.5-2.4,1.2-3.4,2.2
					c-0.9,0.9-1.4,2.1-1.4,3.4c0,1.7,0.7,3.3,1.9,4.5c1.8,1.5,3.9,2.5,6.2,2.9c3.8,0.8,7.6,1.1,11.4,1c5.1,0,9-0.7,11.6-2.1
					c2.6-1.4,4-3.4,4-5.9c0-1.6-0.8-3.1-2.2-4c-1.5-1.1-3.7-1.8-6.7-1.9L389.8,322.5z M406.8,291.1c1.8-1.8,2.8-4.2,2.8-6.8
					c0.1-2.7-0.9-5.4-2.8-7.3c-1.8-1.9-4.7-2.9-8.7-2.9c-3.7,0-6.5,1-8.5,2.9c-2,1.9-3.1,4.6-3,7.3c0,2.6,1.1,5.1,3,6.8
					c2,1.8,4.9,2.8,8.5,2.8C402.1,293.9,405,293,406.8,291.1z"/>
				<path class="st2" d="M443.1,323.6v-78.8c0-1.4,0.6-2.1,1.8-2.1h13.5c1.1,0,1.7,0.6,1.7,1.9v28.7c0,0.5,0.1,0.7,0.3,0.8
					c0.2,0.1,0.6,0,1-0.4c2-1.9,4.2-3.5,6.6-4.9c1.9-1.1,4-2,6.2-2.6c2-0.6,4.1-0.8,6.2-0.8c5.7,0,10,1.6,13.1,4.7
					c3.1,3.1,4.6,7.5,4.6,13.2v39.9c0.2,1.3-0.7,2.5-2,2.7c-0.2,0-0.5,0-0.7,0h-12.5c-0.6,0-1.2-0.1-1.6-0.5
					c-0.4-0.5-0.6-1.1-0.5-1.7v-37.9c0.1-2.1-0.6-4.3-2-5.9c-1.4-1.4-3.4-2.1-6-2.1c-1.5,0-3,0.2-4.4,0.8c-1.4,0.6-2.7,1.3-3.9,2.3
					c-1.5,1.2-2.8,2.5-4,3.9v38.6c0,1.7-1,2.6-2.9,2.6h-12C443.9,325.8,443.1,325.1,443.1,323.6z"/>
				<path class="st2" d="M533,278.3c-0.8,0-1.2,0.5-1.2,1.4v27c0,2.5,0.6,4.4,1.8,5.4c1.2,1.1,3.1,1.6,5.7,1.6h6.1
					c0.5,0,0.9,0.2,1.2,0.6c0.3,0.4,0.5,0.9,0.5,1.3l-0.1,6.8c0,1.4-0.8,2.3-2.5,2.7c-1.3,0.1-2.8,0.3-4.3,0.4
					c-1.5,0.1-3.1,0.2-4.6,0.2c-1.5,0-3,0.1-4.4,0.1c-5.1,0-9.1-1.2-12.1-3.6c-3-2.4-4.5-6-4.5-10.8V280c0-1.1-0.5-1.7-1.5-1.7h-6.8
					c-1.4,0-2.1-0.6-2.1-1.9v-8.3c0-1.1,0.7-1.7,2-1.7h7.7c0.7,0,1-0.4,1.1-1.2l1.6-17c0.1-1.3,0.6-1.9,1.7-1.9h12.2
					c1.2,0,1.8,0.7,1.8,2.1v16.8c-0.1,0.5,0.3,1,0.8,1.1c0.1,0,0.2,0,0.3,0h11.8c1.3,0,2,0.6,2,1.8v8.3c0,1.3-0.8,1.9-2.2,1.9
					L533,278.3z"/>
				<path class="st2" d="M105.5,379.2c0-0.5,0.2-1.1,0.6-1.5c0.5-0.4,1.1-0.6,1.7-0.6h64.4c0.6-0.1,1.3,0.1,1.7,0.6
					c0.4,0.4,0.5,0.9,0.5,1.5v10.4c0,1.1-0.7,1.7-2,1.7h-21c-0.8,0-1.2,0.4-1.2,1.1v65.8c0,1.4-0.6,2.1-1.9,2.1h-16
					c-1.1,0-1.7-0.6-1.7-1.9v-65.7c0-1-0.4-1.5-1.2-1.5h-21.6c-1.4,0-2.1-0.6-2.1-1.7L105.5,379.2L105.5,379.2z"/>
				<path class="st2" d="M183.3,457.6c-4.5-2.6-8.1-6.3-10.6-10.8c-2.6-4.8-3.9-10.3-3.8-15.8c-0.1-5.7,1.2-11.3,3.9-16.3
					c2.5-4.6,6.2-8.4,10.8-10.9c9.8-5.2,21.5-5.2,31.3,0.1c4.4,2.6,8.1,6.4,10.5,11c2.6,5,3.9,10.5,3.8,16.1
					c0.1,5.5-1.2,11-3.8,15.9c-2.5,4.5-6.1,8.3-10.6,10.8C204.9,462.8,193.1,462.8,183.3,457.6z M206,447.9c2-1.7,3.5-4,4.2-6.6
					c1-3.5,1.5-7,1.4-10.6c0.1-3.7-0.4-7.4-1.4-10.9c-0.7-2.5-2.2-4.8-4.2-6.6c-4.1-3-9.7-3-13.9,0c-2.1,1.7-3.6,4-4.3,6.6
					c-1.1,3.5-1.6,7.2-1.5,10.9c-0.1,3.6,0.4,7.2,1.5,10.7c0.8,2.5,2.3,4.8,4.3,6.5C196.3,450.8,201.9,450.8,206,447.9L206,447.9z"
					/>
				<path class="st2" d="M250.5,457.6c-4.5-2.6-8.1-6.3-10.6-10.8c-2.6-4.8-3.9-10.3-3.8-15.8c-0.1-5.7,1.2-11.3,3.9-16.3
					c2.5-4.6,6.2-8.4,10.8-10.9c9.8-5.2,21.5-5.2,31.3,0.1c4.5,2.6,8.1,6.4,10.5,11c2.6,5,3.9,10.5,3.8,16.1
					c0.1,5.5-1.2,11-3.8,15.9c-2.5,4.5-6.1,8.3-10.6,10.8C272.1,462.8,260.3,462.8,250.5,457.6L250.5,457.6z M273.2,447.9
					c2-1.7,3.5-4,4.2-6.6c1-3.5,1.5-7,1.4-10.6c0.1-3.7-0.4-7.4-1.4-10.9c-0.7-2.5-2.2-4.8-4.2-6.6c-4.1-3-9.7-3-13.9,0
					c-2.1,1.7-3.6,4-4.3,6.6c-1.1,3.5-1.6,7.2-1.5,10.9c-0.1,3.6,0.4,7.2,1.5,10.7c0.8,2.5,2.3,4.8,4.3,6.5
					C263.5,450.8,269,450.8,273.2,447.9L273.2,447.9z"/>
				<path class="st2" d="M323.3,457.7c0.1,0.8-0.2,1.5-0.7,2.1c-0.7,0.5-1.5,0.7-2.4,0.6h-11.9c-1.6,0-2.5-0.8-2.5-2.4l0.3-78.7
					c0-1.4,0.6-2.1,1.8-2.1h13.6c1.1,0,1.7,0.7,1.7,2L323.3,457.7L323.3,457.7z"/>
				<path class="st2" d="M395.1,459.5c-0.4,0.6-1.1,1-1.8,0.9h-14.7c-0.7,0-1.3-0.2-1.8-0.6c-0.5-0.5-0.9-1.1-1.2-1.7L364,434.9
					c-0.2-0.6-0.5-0.9-0.8-1c-0.3-0.1-0.7,0.1-1.1,0.6l-8,7.9c-0.3,0.3-0.5,0.7-0.7,1.1c-0.2,0.5-0.3,1.1-0.3,1.7v12.6
					c0.1,0.8-0.2,1.5-0.7,2.1c-0.6,0.5-1.4,0.7-2.2,0.6h-11.9c-1.1,0.3-2.2-0.4-2.5-1.4c-0.1-0.3-0.1-0.6,0-0.9v-78.7
					c0-1.4,0.6-2.1,1.8-2.1h13.8c1.1,0,1.7,0.7,1.7,2v46c0,0.3,0.1,0.7,0.3,0.9c0.2,0.1,0.6,0,1-0.6l21.1-22.9
					c0.8-0.9,1.8-1.5,3-1.7h12c1,0,1.7,0.3,1.9,0.8c0.2,0.6,0,1.2-0.8,2L376,419.7c-0.4,0.3-0.6,0.8-0.7,1.3c0,0.6,0.2,1.3,0.5,1.9
					l19.2,35C395.3,458.3,395.4,459,395.1,459.5z"/>
				<path class="st2" d="M421,391c0,1.9-1,2.8-3,2.8h-12.1c-0.7,0.1-1.5-0.1-2-0.7c-0.4-0.6-0.5-1.2-0.5-1.9v-11.8
					c0-1.5,0.6-2.2,1.9-2.2h13.9c1.2,0,1.8,0.7,1.8,2.1L421,391z M420.8,457.7c0.1,0.8-0.2,1.5-0.7,2.1c-0.7,0.5-1.5,0.7-2.4,0.6
					H406c-1.1,0.3-2.2-0.4-2.5-1.4c-0.1-0.3-0.1-0.6,0-0.9v-54.9c0-1.4,0.6-2.1,1.8-2.1h13.8c1.1,0,1.7,0.6,1.7,1.9V457.7z"/>
				<path class="st2" d="M458.2,412.9c-0.8,0-1.2,0.5-1.2,1.4v27c0,2.5,0.6,4.4,1.8,5.4c1.2,1.1,3.1,1.6,5.7,1.6h6.1
					c0.5,0,0.9,0.2,1.2,0.6c0.3,0.4,0.5,0.9,0.5,1.3l-0.1,6.8c0,1.4-0.8,2.3-2.5,2.7c-1.4,0.1-2.8,0.3-4.3,0.4
					c-1.5,0.1-3.1,0.2-4.6,0.2c-1.5,0-3,0.1-4.4,0.1c-5.1,0-9.1-1.2-12.1-3.6c-3-2.4-4.5-6-4.5-10.8v-31.4c0-1.1-0.5-1.7-1.5-1.7
					h-6.8c-1.4,0-2.1-0.6-2.1-1.9v-8.3c0-1.1,0.7-1.7,2-1.7h7.7c0.7,0,1-0.4,1.1-1.2l1.6-17c0.1-1.3,0.6-1.9,1.7-1.9h12.2
					c1.2,0,1.8,0.7,1.8,2.1v16.8c-0.1,0.5,0.3,1,0.8,1.1c0.1,0,0.2,0,0.3,0h11.8c1.4,0,2,0.6,2,1.8v8.3c0,1.3-0.8,1.9-2.2,1.9
					L458.2,412.9L458.2,412.9z"/>
			</g>
			
				<ellipse transform="matrix(0.7071 -0.7071 0.7071 0.7071 311.7522 779.7949)" class="st3" cx="1097.2" cy="13.6" rx="94.5" ry="94.5"/>
			<circle class="st4" cx="1243.4" cy="954.3" r="94.5"/>
			
				<ellipse transform="matrix(0.7071 -0.7071 0.7071 0.7071 421.7786 1548.3174)" class="st3" cx="2079.9" cy="265" rx="94.5" ry="94.5"/>
			<path class="st4" d="M972.6,643.1l48.1,56.5c1.3,1.5,1.1,3.8-0.4,5.1l-56.5,48.1c-1.5,1.3-3.8,1.1-5.1-0.4L910.6,696
				c-1.3-1.5-1.1-3.8,0.4-5.1l56.5-48.1C969,641.4,971.3,641.6,972.6,643.1z"/>
			<path class="st4" d="M1748.6,772.1l48.1,56.5c1.3,1.5,1.1,3.8-0.4,5.1l-56.5,48.1c-1.5,1.3-3.8,1.1-5.1-0.4l-48.1-56.5
				c-1.3-1.5-1.1-3.8,0.4-5.1l56.5-48.1C1745,770.4,1747.3,770.6,1748.6,772.1z"/>
			<path class="st4" d="M567.4,1029.3l23.5,138.6c0.2,1.2,1.4,2,2.6,1.8c0.4-0.1,0.8-0.2,1-0.5l108.3-89.6c1-0.8,1.1-2.2,0.3-3.1
				c-0.2-0.3-0.6-0.5-0.9-0.7l-131.8-49c-1.2-0.4-2.4,0.2-2.9,1.3C567.4,1028.5,567.4,1028.9,567.4,1029.3z"/>
			<path class="st4" d="M1439.8,460.4l23.5,138.6c0.2,1.2,1.4,2,2.6,1.8c0.4-0.1,0.8-0.2,1.1-0.5l108.3-89.6
				c0.9-0.8,1.1-2.2,0.3-3.1c-0.2-0.3-0.6-0.5-0.9-0.7l-131.8-49c-1.2-0.4-2.4,0.2-2.9,1.3C1439.7,459.6,1439.7,460,1439.8,460.4z"
				/>
			<polygon class="st5" points="888.9,925 827.5,1024 755.7,988.6 825.3,876.2 			"/>
			<path class="st6" d="M880.5,1055.2l10.9,6.8c4.7,2.9,10.9,1.4,13.8-3.3c3.4-5.5,8.9-9.4,15.2-10.9c6.3-1.5,12.9-0.4,18.4,3
				c14.9,14.4,31.3,27.1,48.8,38c5.3,3.3,10.7,6.4,16.2,9.3c9.4,5,19,9.5,28.9,13.5c7.7,3.1,16,4.6,24.4,4.4l5.4-0.1
				c8.2-0.2,14.7-7,14.5-15.2c-0.1-2.1-0.5-4.1-1.4-5.9l-2.3-4.9c-3.6-7.6-8.6-14.3-14.8-19.9c-7.9-7.1-16.3-13.7-24.9-19.9
				c-5.1-3.6-10.3-7.1-15.6-10.4c-17.6-10.9-36.3-19.9-55.7-26.9c-5.5-3.4-9.4-8.8-10.8-15.1c-1.5-6.3-0.4-13,3.1-18.5
				c1.4-2.3,1.9-5,1.3-7.6c-0.6-2.6-2.2-4.8-4.5-6.2l-10.9-6.8L880.5,1055.2z M1052.6,1095c-3.2,5-9.8,6.5-14.8,3.4
				s-6.5-9.8-3.4-14.8c3.1-5,9.7-6.5,14.7-3.4C1054.2,1083.4,1055.7,1090,1052.6,1095z"/>
			<path class="st7" d="M938.5,961.6l10.9,6.8c2.3,1.4,3.9,3.7,4.5,6.2c0.6,2.6,0.1,5.3-1.3,7.6c-3.4,5.5-4.5,12.1-3.1,18.5
				c1.4,6.3,5.3,11.8,10.8,15.1c19.5,7,38.2,16,55.7,26.9c5.3,3.3,10.5,6.7,15.6,10.4c8.7,6.2,17,12.8,24.9,19.9
				c6.2,5.6,11.3,12.3,14.8,19.9l2.3,4.9c1.9,4,1.9,8.6,0,12.6c3.6-4.4,4.3-10.5,1.9-15.6l-2.3-4.9c-3.6-7.6-8.6-14.3-14.8-19.9
				c-7.9-7.1-16.3-13.7-24.9-19.9c-5.1-3.6-10.3-7.1-15.6-10.4c-17.6-10.9-36.3-19.9-55.7-26.9c-5.5-3.4-9.4-8.8-10.8-15.1
				c-1.5-6.3-0.4-13,3.1-18.5c1.4-2.3,1.9-5,1.3-7.6c-0.6-2.6-2.2-4.8-4.5-6.2l-10.9-6.8L938.5,961.6z"/>
			<path class="st5" d="M828.4,1033.9l7.1,4.4l0,0l2.4,1.5l0,0l23.7,14.7l1.8,1.1l0,0l7.1,4.4c2.8,1.7,6.5,0.8,8.2-2l63.4-102.3
				c1.8-2.8,0.9-6.5-1.9-8.2l-7.1-4.4l0,0l-2.4-1.5l0,0l-23.1-14.3l0,0l-2.4-1.5l0,0l-7.1-4.4c-2.8-1.7-6.5-0.8-8.2,2l-63.4,102.3
				C824.8,1028.4,825.6,1032.1,828.4,1033.9z"/>
			<polygon class="st6" points="828.5,1023.9 827.2,1025.9 755.2,990.6 756.7,988.3 			"/>
			<polygon class="st6" points="831.1,1019.6 829.8,1021.6 758.2,985.8 759.7,983.5 			"/>
			<polygon class="st6" points="833.8,1015.3 832.5,1017.4 761.2,980.9 762.7,978.6 			"/>
			<polygon class="st6" points="836.4,1011.1 835.2,1013.1 764.2,976.1 765.7,973.8 			"/>
			<polygon class="st6" points="839,1006.8 837.8,1008.8 767.2,971.2 768.7,968.9 			"/>
			<polygon class="st6" points="841.7,1002.5 840.4,1004.5 770.3,966.4 771.7,964.1 			"/>
			<polygon class="st6" points="844.3,998.3 843.1,1000.3 773.3,961.5 774.7,959.2 			"/>
			<polygon class="st6" points="847,994 845.7,996 776.3,956.7 777.7,954.4 			"/>
			<polygon class="st6" points="849.6,989.7 848.4,991.7 779.3,951.8 780.7,949.6 			"/>
			<polygon class="st6" points="852.3,985.4 851,987.5 782.3,947 783.7,944.7 			"/>
			<polygon class="st6" points="854.9,981.2 853.7,983.2 785.3,942.2 786.7,939.9 			"/>
			<polygon class="st6" points="857.6,976.9 856.3,978.9 788.3,937.3 789.7,935 			"/>
			<polygon class="st6" points="860.2,972.6 859,974.6 791.3,932.5 792.7,930.2 			"/>
			<polygon class="st6" points="862.9,968.4 861.6,970.4 794.3,927.6 795.7,925.3 			"/>
			<polygon class="st6" points="865.5,964.1 864.3,966.1 797.3,922.8 798.7,920.5 			"/>
			<polygon class="st6" points="868.2,959.8 866.9,961.8 800.3,917.9 801.7,915.6 			"/>
			<polygon class="st6" points="870.8,955.5 869.6,957.6 803.3,913.1 804.7,910.8 			"/>
			<polygon class="st6" points="873.5,951.3 872.2,953.3 806.3,908.2 807.7,905.9 			"/>
			<polygon class="st6" points="876.1,947 874.9,949 809.3,903.4 810.8,901.1 			"/>
			<polygon class="st6" points="878.8,942.7 877.5,944.8 812.3,898.5 813.8,896.2 			"/>
			<polygon class="st6" points="881.4,938.5 880.2,940.5 815.3,893.7 816.8,891.4 			"/>
			<polygon class="st6" points="884.1,934.2 882.8,936.2 818.3,888.8 819.8,886.5 			"/>
			<polygon class="st6" points="886.7,929.9 885.5,931.9 821.3,884 822.8,881.7 			"/>
			<polygon class="st6" points="889.4,925.6 888.1,927.7 824.3,879.2 825.8,876.9 			"/>
			<polygon class="st8" points="889.5,928.2 828.1,1027.3 756.2,991.8 825.9,879.4 			"/>
			<path class="st8" d="M881.1,1058.4l10.9,6.8c4.7,2.9,10.9,1.4,13.8-3.3c3.4-5.5,8.9-9.4,15.2-10.9c6.3-1.5,12.9-0.4,18.4,3
				c14.9,14.4,31.3,27.1,48.8,38c5.3,3.3,10.7,6.4,16.2,9.3c9.4,5,19,9.5,28.9,13.5c7.7,3.1,16,4.6,24.4,4.4l5.4-0.1
				c8.2-0.2,14.7-7,14.5-15.2c-0.1-2.1-0.5-4.1-1.4-5.9l-2.3-4.9c-3.6-7.6-8.6-14.3-14.8-19.9c-7.9-7.1-16.3-13.7-24.9-19.9
				c-5.1-3.6-10.3-7.1-15.6-10.4c-17.6-10.9-36.3-19.9-55.7-26.9c-5.5-3.4-9.4-8.8-10.8-15.1c-1.5-6.3-0.4-13,3.1-18.5
				c1.4-2.3,1.9-5,1.3-7.6c-0.6-2.6-2.2-4.8-4.5-6.2l-10.9-6.8L881.1,1058.4z M1053.1,1098.3c-3.2,5-9.8,6.5-14.8,3.4
				s-6.5-9.8-3.4-14.8c3.1-5,9.7-6.5,14.7-3.4C1054.7,1086.6,1056.3,1093.2,1053.1,1098.3L1053.1,1098.3z"/>
			<path class="st8" d="M829,1037.1l7.1,4.4l0,0l2.4,1.5l0,0l23.1,14.3l0,0l2.4,1.5l0,0l7.1,4.4c2.8,1.7,6.5,0.8,8.2-2L942.7,959
				c1.8-2.8,0.9-6.5-1.9-8.2l-34.2-21.2l-0.8-0.5l0,0l-7.1-4.4c-2.8-1.7-6.5-0.8-8.2,2l-63.4,102.3
				C825.3,1031.7,826.2,1035.4,829,1037.1z"/>
			<path class="st9" d="M1393.7,661.7c-18.9-19.7-50.2-20.3-69.8-1.3c-13.6,13.1-18.6,32.8-12.8,50.7l-160,154.2
				c-27.7-11.5-59.5,1.7-71,29.4c-4.2,10.1-5.2,21.2-3,31.8l25.3-24.4c8.7-8.3,22.4-8,30.8,0.6l10.1,10.4c8.3,8.7,8.1,22.4-0.6,30.8
				l-25.3,24.4c29.1,7.2,58.6-10.6,65.8-39.8c2.6-10.6,2-21.7-1.8-32l160-154.2c25.6,9.3,54-3.9,63.3-29.5
				C1411,695.2,1406.8,675.3,1393.7,661.7z M1389.4,696.7l-4.5,15.5c-1.6,5.6-6.1,9.9-11.8,11.3l-15.7,3.9
				c-5.7,1.4-11.6-0.3-15.7-4.5l-11.2-11.7c-4-4.2-5.5-10.2-3.9-15.8l4.5-15.5c1.6-5.6,6.1-9.9,11.8-11.3l15.7-3.9
				c5.7-1.4,11.6,0.3,15.7,4.5l11.2,11.7C1389.6,685,1391.1,691.1,1389.4,696.7z"/>
			<path class="st10" d="M1385,661.3c-18.9-19.7-50.2-20.3-69.8-1.3c-13.6,13.1-18.6,32.8-12.8,50.7l-160,154.2
				c-27.7-11.5-59.5,1.7-71,29.4c-4.2,10.1-5.2,21.2-3,31.8l25.3-24.4c8.7-8.3,22.4-8,30.8,0.6l10.1,10.4c8.3,8.7,8.1,22.4-0.6,30.8
				l-25.3,24.4c29.1,7.2,58.6-10.6,65.8-39.8c2.6-10.6,2-21.7-1.8-32l160-154.2c25.6,9.3,54-3.9,63.3-29.5
				C1402.3,694.7,1398.1,674.9,1385,661.3L1385,661.3z M1380.8,696.2l-4.5,15.5c-1.6,5.6-6.1,9.9-11.8,11.3l-15.7,3.9
				c-5.7,1.4-11.6-0.3-15.7-4.5l-11.2-11.7c-4-4.2-5.5-10.2-3.9-15.8l4.5-15.5c1.6-5.6,6.1-9.9,11.8-11.3l15.7-3.9
				c5.7-1.4,11.6,0.3,15.7,4.5l11.2,11.7C1380.9,684.6,1382.4,690.6,1380.8,696.2L1380.8,696.2z"/>
			<path class="st6" d="M667.9,206.1c26.3-7.1,41.9-34.2,34.8-60.6c-4.9-18.2-19.8-32-38.3-35.6l-58-214.5
				c16.9-13.5,24.1-35.8,18.5-56.6c-4.9-18-18.7-32.3-36.5-37.8l9.2,33.9c3.1,11.6-3.8,23.5-15.3,26.7l-14,3.8
				c-11.6,3.1-23.5-3.7-26.7-15.3l-9.2-33.9c-12.7,13.7-17.4,33-12.5,51c5.7,20.9,23.1,36.4,44.5,39.6l58,214.5
				c-20.5,18-22.6,49.2-4.6,69.7C630.3,205.2,649.7,211,667.9,206.1z M639.4,185.6l-11.5-11.4c-4.1-4.1-5.8-10.1-4.3-15.8l4.2-15.6
				c1.5-5.6,5.9-10,11.5-11.6l15.6-4.2c5.6-1.5,11.6,0.1,15.8,4.2l11.5,11.4c4.1,4.1,5.8,10.1,4.3,15.8l-4.2,15.6
				c-1.5,5.6-5.9,10-11.5,11.6l-15.6,4.2C649.5,191.3,643.5,189.7,639.4,185.6z"/>
			<path class="st10" d="M672.5,198.8c26.3-7.1,41.9-34.2,34.8-60.6c-4.9-18.2-19.8-32-38.3-35.6l-58-214.5
				c16.9-13.5,24.1-35.8,18.5-56.6c-4.9-18-18.7-32.3-36.5-37.8l9.2,33.9c3.1,11.6-3.8,23.5-15.3,26.7l-14,3.8
				c-11.6,3.1-23.5-3.7-26.7-15.3l-9.2-33.9c-12.7,13.7-17.4,33-12.5,51c5.7,20.9,23.1,36.4,44.5,39.6L627,114
				c-20.5,18-22.6,49.2-4.6,69.7C634.9,197.8,654.3,203.7,672.5,198.8L672.5,198.8z M643.9,178.3l-11.5-11.4
				c-4.1-4.1-5.8-10.1-4.3-15.8l4.2-15.6c1.5-5.6,5.9-10,11.5-11.6l15.6-4.2c5.6-1.5,11.6,0.1,15.8,4.2l11.5,11.4
				c4.1,4.1,5.8,10.1,4.3,15.8l-4.2,15.6c-1.5,5.6-5.9,10-11.5,11.6l-15.6,4.2C654.1,184,648.1,182.4,643.9,178.3z"/>
			<path class="st6" d="M1345.3,426.4l18.7-0.8l-1.4-33.1l-21,0.9c-1.7-6.1-3.9-12.1-6.6-17.9l17.9-10.5l-16.8-28.6l-19.5,11.4
				c-4.1-4.5-8.6-8.8-13.4-12.6l11.5-18.6l-28.2-17.5l-12.2,19.7c-4.8-1.8-9.7-3.3-14.7-4.5v-20.1h-33.2v17.7c-4.9,0.3-9.8,1-14.6,2
				l-7.5-16.2l-30.1,14l6.5,14c-6.3,3.6-12.3,7.7-17.8,12.5l-12.2-9.3l-20.1,26.5l10.6,8c-4,6.4-7.4,13.2-10,20.3l-13.4-2.2
				l-5.3,32.8l12,1.9c-0.1,2-0.3,4-0.3,6.1c0,5.7,0.5,11.3,1.4,16.9l-12.2,4.2l10.7,31.5l11.5-3.9c3.4,6.9,7.4,13.4,12.2,19.4
				l-9.3,9.8l24.1,22.8l9.2-9.7c6.1,4.3,12.6,7.9,19.4,10.8l-4,14.5l32,8.9l4.2-15c3.9,0.4,7.7,0.6,11.6,0.6c1.9,0,3.7-0.2,5.6-0.3
				l1.9,12.6l32.8-5L1273,526c7-2.5,13.7-5.8,20-9.7l8.5,11.4l26.7-19.8l-9.7-13.1c4.7-5.4,8.8-11.1,12.4-17.2l14.7,7l14.3-30
				l-16.9-8C1344.2,439.8,1345.1,433.1,1345.3,426.4z M1238.2,440c-10.7,0-19.3-8.6-19.4-19.3c0-10.7,8.6-19.3,19.3-19.4
				c10.7,0,19.3,8.6,19.4,19.3C1257.6,431.4,1248.9,440,1238.2,440L1238.2,440z"/>
			<path class="st11" d="M1344.2,423.1l18.7-0.8l-1.4-33.1l-21,0.9c-1.7-6.1-3.9-12.1-6.6-17.9l17.9-10.5L1335,333l-19.5,11.4
				c-4.1-4.5-8.6-8.8-13.4-12.6l11.5-18.6l-28.2-17.5l-12.2,19.7c-4.8-1.8-9.7-3.3-14.7-4.5v-20.2h-33.2v17.7c-4.9,0.3-9.8,1-14.6,2
				l-7.5-16.2l-30.1,14l6.5,14c-6.3,3.6-12.3,7.7-17.8,12.5l-12.2-9.3l-20.1,26.5l10.6,8c-4,6.4-7.4,13.2-10,20.3l-13.4-2.2
				l-5.3,32.8l12,1.9c-0.1,2-0.3,4-0.3,6.1c0,5.7,0.5,11.3,1.4,16.9l-12.2,4.2l10.7,31.5l11.5-3.9c3.4,6.9,7.4,13.4,12.2,19.4
				l-9.3,9.8l24.1,22.8l9.2-9.7c6.1,4.3,12.6,7.9,19.4,10.8l-4,14.5l32,8.9l4.2-15c3.9,0.4,7.7,0.6,11.6,0.6c1.9,0,3.7-0.2,5.6-0.3
				l1.9,12.6l32.8-5l-2.2-14.2c7-2.5,13.7-5.8,20-9.7l8.5,11.4l26.7-19.8l-9.7-13.1c4.7-5.4,8.8-11.1,12.4-17.2l14.7,7l14.3-30
				l-16.9-8C1343.1,436.5,1344,429.8,1344.2,423.1z M1237.1,436.7c-10.7,0-19.3-8.6-19.4-19.3s8.6-19.3,19.3-19.4
				s19.3,8.6,19.4,19.3C1256.4,428.1,1247.8,436.7,1237.1,436.7z"/>
			<path class="st12" d="M1036.5,329.9l6.5-0.3l-0.5-11.6l-7.3,0.3c-0.6-2.1-1.3-4.2-2.3-6.2l6.2-3.7l-5.9-10l-6.8,4
				c-1.4-1.6-3-3.1-4.7-4.4l4-6.5l-9.9-6.1l-4.3,6.9c-1.7-0.6-3.4-1.2-5.1-1.6v-7h-11.6v6.2c-1.7,0.1-3.4,0.3-5.1,0.7l-2.6-5.7
				l-10.5,4.9l2.3,4.9c-2.2,1.2-4.3,2.7-6.2,4.4l-4.3-3.3l-7,9.2l3.7,2.8c-1.4,2.2-2.6,4.6-3.5,7.1l-4.7-0.8l-1.8,11.5l4.2,0.7
				c0,0.7-0.1,1.4-0.1,2.1c0,2,0.2,4,0.5,5.9l-4.3,1.5l3.7,11l4-1.4c1.2,2.4,2.6,4.7,4.3,6.8l-3.2,3.4l8.4,8l3.2-3.4
				c2.1,1.5,4.4,2.8,6.8,3.8l-1.4,5.1l11.2,3.1l1.5-5.2c1.3,0.1,2.7,0.2,4.1,0.2c0.7,0,1.3-0.1,2-0.1l0.7,4.4l11.5-1.7l-0.8-5
				c2.4-0.9,4.8-2,7-3.4l3,4l9.3-6.9l-3.4-4.6c1.6-1.9,3.1-3.9,4.3-6l5.1,2.5l5-10.5l-5.9-2.8
				C1036.1,334.6,1036.4,332.2,1036.5,329.9z M999,334.7c-3.7,0-6.8-3-6.8-6.8c0-3.7,3-6.8,6.8-6.8c3.7,0,6.8,3,6.8,6.8
				C1005.8,331.6,1002.8,334.7,999,334.7z"/>
			<path class="st13" d="M1033.5,325.9l6.5-0.3l-0.5-11.6l-7.3,0.3c-0.6-2.1-1.3-4.2-2.3-6.2l6.2-3.7l-5.9-10l-6.8,4
				c-1.4-1.6-3-3.1-4.7-4.4l4-6.5l-9.9-6.1l-4.3,6.9c-1.7-0.6-3.4-1.2-5.1-1.6v-7H992v6.2c-1.7,0.1-3.4,0.3-5.1,0.7l-2.6-5.7
				l-10.5,4.9l2.3,4.9c-2.2,1.2-4.3,2.7-6.2,4.4l-4.3-3.3l-7,9.2l3.7,2.8c-1.4,2.2-2.6,4.6-3.5,7.1l-4.7-0.8l-1.8,11.5l4.2,0.7
				c0,0.7-0.1,1.4-0.1,2.1c0,2,0.2,4,0.5,5.9l-4.3,1.5l3.7,11l4-1.4c1.2,2.4,2.6,4.7,4.3,6.8l-3.2,3.4l8.4,8l3.2-3.4
				c2.1,1.5,4.4,2.8,6.8,3.8l-1.4,5.1l11.2,3.1l1.5-5.2c1.3,0.1,2.7,0.2,4.1,0.2c0.7,0,1.3-0.1,2-0.1l0.7,4.4l11.5-1.7l-0.8-5
				c2.4-0.9,4.8-2,7-3.4l3,4l9.3-6.9l-3.4-4.6c1.6-1.9,3.1-3.9,4.3-6l5.1,2.5l5-10.5l-5.9-2.8
				C1033.1,330.6,1033.4,328.3,1033.5,325.9z M996.1,330.7c-3.7,0-6.8-3-6.8-6.8c0-3.7,3-6.8,6.8-6.8c3.7,0,6.8,3,6.8,6.8
				C1002.8,327.6,999.8,330.7,996.1,330.7L996.1,330.7z"/>
			<path class="st9" d="M836,467.6c-2.2-1.6-4.4-3.3-6.6-4.9c-4-3-8.1-6-12.1-9c-1-0.8-2-1.5-3-2.3l-77.7,104.5l-3.2,4.3l15.1,11.2
				l9.6,7.2l3.2-4.3l77.7-104.5C838.1,469.1,837,468.3,836,467.6z"/>
			<path class="st14" d="M730.2,400c0.7,0.6,1.5,1,2.3,1.2C731.7,401,730.9,400.6,730.2,400z"/>
			<path class="st7" d="M729.6,396.1c-1,1.1-1.2,2.4,0.7,3.9l0,0C728.4,398.5,728.5,397.2,729.6,396.1z"/>
			<path class="st6" d="M942.1,466.1l-2.3-1.8l-0.2,0.2c-0.2,0.3-0.5,0.6-0.8,0.9c-0.1,0.1-0.1,0.1-0.2,0.2
				c-0.2,0.2-0.5,0.4-0.7,0.6c0,0-0.1,0.1-0.2,0.1c-0.6,0.5-1.3,0.9-2,1.2l0,0c-3.1,1.4-6.8,0.9-9.5-1.1l-23.4-17.4
				c-4.2-3.1-5.1-9.1-2-13.4c0,0,0,0,0,0l2.2-3c-19.3-14.5-69.7-52.3-76.5-54.8c-8.5-3.1-17.7-3.1-26.8-1.9l0,0h0
				c-3,0.4-5.9,0.9-8.8,1.4c-11.9,2.2-23.6,5.1-35.2,8.7c-5.8,1.8-11.5,3.8-17.1,5.9c-0.6,0.2-1.8,0.6-3,1c-1.7,0.5-3.3,1.3-4.9,2.2
				c-0.4,0.2-0.7,0.5-1,0.9c-1,1.1-1.2,2.4,0.7,3.9c0.7,0.6,1.5,1,2.3,1.2s1.8,0.3,2.6,0.2c16.4-2.4,33-3.8,49.5-4.3
				c4.5-0.1,9-0.1,13.3,1.4c1,0.3,2,0.8,2.9,1.2c0.6,0.3,1.2,0.7,1.8,1.1c0.9,0.6,1.7,1.3,2.4,2.1c0.4,0.4,0.7,0.8,1,1.3
				c0.6,0.9,1.1,1.9,1.5,3c1.8,5.3-0.7,11.1-4.1,15.5c-1.2,1.7-2.6,3.3-4,4.9c-1.1,1.3-2.3,2.7-3.3,4c-1.1,1.4-2,2.8-2.8,4.4
				c6.9,5.1,13.9,10.3,20.8,15.5c1,0.8,2,1.5,3,2.3l12.1,9c2.2,1.6,4.4,3.3,6.6,4.9c1,0.8,2,1.5,3,2.3c7.8,5.8,15.6,11.6,23.4,17.4
				l2.1-2.8l0.2-0.3c2.6-3.4,7.1-4.8,11.1-3.2c0.1,0,0.1,0,0.2,0.1c0.3,0.1,0.6,0.2,0.9,0.4c0.1,0,0.2,0.1,0.3,0.1
				c0.3,0.2,0.7,0.4,1,0.6l23.5,17.4c0.3,0.2,0.5,0.4,0.8,0.6c1.4,1.3,2.4,2.9,2.8,4.8c0.3,1.4,0.4,2.9,0.1,4.3
				c-0.2,1-0.6,1.9-1.1,2.8c-0.2,0.3-0.4,0.6-0.6,0.9l-0.2,0.2l24.4,18.2l2.1-2.8l34.2-46.1C956.8,477,949.5,471.5,942.1,466.1z"/>
			<path class="st6" d="M669.1,706.3l92.3-132l-3.2,4.3l-9.6-7.2l-15.1-11.2l3.2-4.3l0,0L661,651.6l-63.2,80.1
				c-6.2,8.2-4.6,19.9,3.6,26.1c0,0,0.1,0.1,0.1,0.1l5.4,4c8.2,6.1,19.9,4.4,26-3.8c0,0,0.1-0.1,0.1-0.2L669.1,706.3z"/>
			<path class="st15" d="M830.7,466.2c-2.2-1.6-4.4-3.3-6.6-4.9c-4-3-8.1-6-12.1-9c-1-0.8-2-1.5-3-2.3l-77.7,104.5l-3.2,4.3
				l15.1,11.2l9.6,7.2l3.2-4.3l77.7-104.5C832.7,467.7,831.7,466.9,830.7,466.2z"/>
			<path class="st15" d="M724.9,398.6c0.7,0.6,1.5,1,2.3,1.2C726.4,399.6,725.6,399.2,724.9,398.6z"/>
			<path class="st15" d="M724.2,394.7c-1,1.1-1.2,2.4,0.7,3.9l0,0C723.1,397.1,723.2,395.8,724.2,394.7z"/>
			<path class="st15" d="M936.8,464.7l-2.3-1.8l-0.2,0.2c-0.2,0.3-0.5,0.6-0.8,0.9c-0.1,0.1-0.1,0.1-0.2,0.2
				c-0.2,0.2-0.5,0.4-0.7,0.6c0,0-0.1,0.1-0.2,0.1c-0.6,0.5-1.3,0.9-2,1.2l0,0c-3.1,1.4-6.8,0.9-9.5-1.1l-23.4-17.4
				c-4.2-3.1-5.1-9.1-2-13.4c0,0,0,0,0,0l2.2-3c-19.3-14.5-69.7-52.3-76.5-54.8c-8.5-3.1-17.7-3.1-26.8-1.9l0,0h0
				c-3,0.4-5.9,0.9-8.8,1.4c-11.9,2.2-23.6,5.1-35.2,8.7c-5.8,1.8-11.5,3.8-17.1,5.9c-0.6,0.2-1.8,0.6-3,1c-1.7,0.5-3.3,1.3-4.9,2.2
				c-0.4,0.2-0.7,0.5-1,0.9c-1,1.1-1.2,2.4,0.7,3.9c0.7,0.6,1.5,1,2.3,1.2s1.8,0.3,2.6,0.2c16.4-2.4,33-3.8,49.5-4.3
				c4.5-0.1,9-0.1,13.3,1.4c1,0.3,2,0.8,2.9,1.2c0.6,0.3,1.2,0.7,1.8,1.1c0.9,0.6,1.7,1.3,2.4,2.1c0.4,0.4,0.7,0.8,1,1.3
				c0.6,0.9,1.1,1.9,1.5,3c1.8,5.3-0.7,11.1-4.1,15.5c-1.2,1.7-2.6,3.3-4,4.9c-1.1,1.3-2.3,2.7-3.3,4c-1.1,1.4-2,2.8-2.8,4.4
				c6.9,5.1,13.9,10.3,20.8,15.5c1,0.8,2,1.5,3,2.3l12.1,9c2.2,1.6,4.4,3.3,6.6,4.9c1,0.8,2,1.5,3,2.3c7.8,5.8,15.6,11.6,23.4,17.4
				l2.1-2.8l0.2-0.3c2.6-3.4,7.1-4.8,11.1-3.2c0.1,0,0.1,0,0.2,0.1c0.3,0.1,0.6,0.2,0.9,0.4c0.1,0,0.2,0.1,0.3,0.1
				c0.3,0.2,0.7,0.4,1,0.6l23.5,17.4c0.3,0.2,0.5,0.4,0.8,0.6c1.4,1.3,2.4,2.9,2.8,4.8c0.3,1.4,0.4,2.9,0.1,4.3
				c-0.2,1-0.6,1.9-1.1,2.8c-0.2,0.3-0.4,0.6-0.6,0.9l-0.2,0.2l24.4,18.2l2.1-2.8l34.2-46.1C951.5,475.6,944.1,470.1,936.8,464.7z"
				/>
			<path class="st15" d="M663.8,704.9l92.3-132l-3.2,4.3l-9.6-7.2l-15.1-11.2l3.2-4.3l0,0l-75.5,95.7l-63.2,80.1
				c-6.2,8.2-4.6,19.9,3.6,26.1c0,0,0.1,0.1,0.1,0.1l5.4,4c8.2,6.1,19.9,4.4,26-3.8c0,0,0.1-0.1,0.1-0.2L663.8,704.9z"/>
			<g>
				<path class="st2" d="M121.9,939.2c10.2,0,16.4-4.6,16.4-12.4c0-8.5-7.7-11-14.6-12.2c-7.4-1-11.6-2.9-11.6-7.2
					c0-3.4,2.1-6.8,9.6-6.8c6.2,0,9.6,2.9,9.6,7h5.4c0-6.9-5.2-11.8-15-11.8c-10.8,0-15.1,5.3-15.1,11.5c0,8.4,8.4,10.7,15.4,11.8
					c6.2,1,10.8,2.7,10.8,7.6c0,5.1-3.9,7.7-11,7.7c-6.8,0-10.9-3.9-10.9-8.3h-5.4C105.6,932.5,110.6,939.2,121.9,939.2z"/>
				<path class="st2" d="M165.6,938.3h5.9l-11.7-18.7l10.1-12.5h-6.4l-13.4,16.6v-28.4h-5.2v43h5.2v-8.8l5.8-6.4L165.6,938.3z"/>
				<path class="st2" d="M172.9,948.9h5.1c6.8,0,9.1-2.7,12.6-11.5l12.3-30.3l-5.6,0l-8.8,22l-0.8,2.7l-0.7-2.8l-8.8-22h-5.6
					l12.4,30.2l-0.3,0.9c-1.6,4.2-2.9,6.2-6.6,6.2h-5.2L172.9,948.9z"/>
				<path class="st2" d="M207.8,938.3h5.3v-43h-5.2L207.8,938.3z"/>
				<path class="st2" d="M225.1,901.1c1.9-0.1,3.3-1.7,3.1-3.5c-0.1-1.8-1.7-3.3-3.5-3.2c-1.8,0.1-3.1,1.6-3.2,3.3
					c0,1.8,1.5,3.4,3.3,3.4C224.9,901.1,225,901.1,225.1,901.1z M222.5,938.3h5.2v-31.1h-5.2V938.3z"/>
				<path class="st2" d="M250.8,950c10.9,0,16.1-7.2,16.1-15.9v-27h-5v6.7c-2.2-4.7-7-7.7-12.2-7.5c-8.7,0-15.1,7.3-15.1,15.8
					c-0.2,8.4,6.5,15.4,14.9,15.6c0.1,0,0.2,0,0.4,0c5.3,0,9.9-2.6,12.1-7.3v3.8c0,5.8-3,11.3-11.1,11.3c-6.8,0-9.4-3.3-10-7h-5
					C236.2,944.1,240.3,950,250.8,950z M250.8,933.1c-6,0-11-4.8-11-10.9s4.8-11,10.9-11c0,0,0.1,0,0.1,0c6,0,10.9,4.9,11,10.9
					C261.8,928.1,256.9,933,250.8,933.1C250.8,933.1,250.8,933.1,250.8,933.1z"/>
				<path class="st2" d="M276.4,938.3h5.2v-16.4c0-6.3,4.7-10.7,9.9-10.7c5.4,0,8.7,3.1,8.7,10.3v16.8h5.2v-16.9
					c0-10-4.3-15.1-12.6-15.1c-4.8-0.2-9.2,2.5-11.4,6.8l0.1-3.3v-14.4h-5.2L276.4,938.3z"/>
				<path class="st2" d="M325.8,938.3h5.7v-4.5h-4.7c-2.8,0-5.6-1-5.6-6.8v-15.2h10.3v-4.6h-10.3v-9.3l-5.2,0v9.2h-6.9v4.6h6.9v15
					C316,936.5,321.1,938.3,325.8,938.3z"/>
				<path class="st16" d="M341.1,899.5c0-11.4,9.2-20.6,20.6-20.6l0,0v9.6c-6.1,0-11,4.9-11,11H341.1z"/>
				<path class="st17" d="M361.7,920.1c-11.4,0-20.6-9.2-20.6-20.6l0,0h9.6c0,6.1,4.9,11,11,11L361.7,920.1z"/>
				<path class="st18" d="M382.3,899.5c0,11.4-9.2,20.6-20.6,20.6v-9.6c6.1,0,11-4.9,11-11H382.3z"/>
				<path class="st19" d="M361.7,878.9c11.4,0,20.6,9.2,20.6,20.6h-9.6c0-6.1-4.9-11-11-11l0,0L361.7,878.9L361.7,878.9z"/>
			</g>
			<path class="st4" d="M804.7,134.7l23.5,138.6c0.2,1.2,1.4,2,2.6,1.8c0.4-0.1,0.8-0.2,1-0.5L940.1,185c1-0.8,1.1-2.2,0.3-3.1
				c-0.2-0.3-0.6-0.5-0.9-0.7l-131.8-49c-1.2-0.4-2.4,0.2-2.9,1.3C804.7,133.9,804.7,134.3,804.7,134.7z"/>
			<path class="st4" d="M1869.1,589l23.5,138.6c0.2,1.2,1.4,2,2.6,1.8c0.4-0.1,0.8-0.2,1.1-0.5l108.3-89.6c0.9-0.8,1.1-2.2,0.3-3.1
				c-0.2-0.3-0.6-0.5-0.9-0.7l-131.8-49c-1.2-0.4-2.4,0.2-2.9,1.3C1869.1,588.2,1869,588.6,1869.1,589z"/>
			<path class="st6" d="M1553.9,743.3l-89.1,134.3c-26.1-3.9-51.4,10.8-61.1,35.3l48.6-9.8l18.9,27.5l-6.7,32.7l-48.7,9.9
				c21.8,22.4,57.7,23,80.1,1.1c18.9-18.4,22.7-47.5,8.9-70.1l85.8-129.3c27.9,7.7,57.2-6.9,67.8-33.9l-48.6,9.8l-18.9-27.5
				l6.7-32.7l48.7-9.9c-21.8-22.5-57.7-23-80.1-1.2C1549.2,696.2,1544.3,721.6,1553.9,743.3L1553.9,743.3z"/>
			<path class="st20" d="M1563.1,746.2L1474,880.5c-26.1-3.9-51.4,10.8-61.1,35.3l48.6-9.8l18.9,27.5l-6.7,32.7l-48.7,9.9
				c21.8,22.4,57.7,23,80.1,1.1c18.9-18.4,22.7-47.5,8.9-70.1l85.8-129.3c27.9,7.7,57.2-6.9,67.8-33.9l-48.6,9.8l-18.9-27.5
				l6.7-32.7l48.7-9.9c-21.8-22.5-57.7-23-80.1-1.2C1558.3,699.1,1553.4,724.5,1563.1,746.2L1563.1,746.2z"/>
			<path class="st6" d="M2197.4,623.1l-3.4-20l-2.1-12.6c-0.3-1.7-0.5-3.4-0.7-5.1c-0.1-0.8-0.1-1.5-0.2-2.3c-0.1-1.7-0.2-3.3-0.2-5
				c0,0,0,0,0,0c0,0,0-0.1,0-0.1c0-0.5,0-1,0-1.6c0-1.8,0.1-3.7,0.2-5.5c0-0.3,0-0.7,0.1-1c0.1-0.8,0.1-1.7,0.2-2.5
				c0-0.3,0.1-0.6,0.1-0.9c0,0,0-0.1,0-0.1c0-0.4,0.1-0.7,0.1-1.1c0.1-1,0.3-2,0.5-3c0.1-0.5,0.2-0.9,0.2-1.3c0.1-0.5,0.2-1,0.3-1.5
				c0,0,0,0,0,0c0.1-0.5,0.2-1,0.3-1.5c0.5-2,1-4,1.6-6c0.1-0.3,0.2-0.6,0.3-0.9c0.1-0.4,0.2-0.7,0.4-1.1c0.1-0.3,0.2-0.6,0.3-0.9
				c0.4-1,0.7-2,1.1-3c0.2-0.4,0.4-0.9,0.5-1.3c0.2-0.6,0.5-1.1,0.7-1.7c0.2-0.4,0.4-0.9,0.6-1.3l19.8-42.5l0,0l-350-154.3
				l-59.8-26.4l-6,8.5l-11.9,16.7l-12.2,17.1l-10.3,14.5l4.9,18.4l18.9-5l5,18.9l18.9-5l3.1,11.6l1.9,7.3l18.9-5l5,18.9l18.9-5
				l5,18.9l18.9-5l5,18.9l18.9-5l5,18.9l18.9-5l5,18.9l18.9-5l5,18.9l18.9-5l5,18.9l18.9-5l5,18.9l18.9-5l5,18.9l18.9-5l5,18.9
				l18.9-5l5,18.9l18.9-5l5,18.9l18.9-5l5,18.9l18.9-5l5,18.9l18.9-5l5,18.9l18.4-4.8l0,0C2197.7,625,2197.5,624,2197.4,623.1z"/>
			<path class="st21" d="M2187.6,623.9l-3.4-20l-2.1-12.6c-0.3-1.7-0.5-3.4-0.7-5.1c-0.1-0.8-0.1-1.5-0.2-2.3
				c-0.1-1.7-0.2-3.3-0.2-5c0,0,0,0,0,0c0,0,0-0.1,0-0.1c0-0.5,0-1,0-1.6c0-1.8,0.1-3.7,0.2-5.5c0-0.3,0.1-0.7,0.1-1
				c0.1-0.8,0.1-1.7,0.2-2.5c0-0.3,0.1-0.6,0.1-0.9c0,0,0-0.1,0-0.1c0.1-0.4,0.1-0.7,0.1-1.1c0.1-1,0.3-2,0.5-3
				c0.1-0.5,0.2-0.9,0.2-1.3c0.1-0.5,0.2-1,0.3-1.5c0,0,0,0,0,0c0.1-0.5,0.2-1,0.3-1.5c0.5-2,1-4,1.6-6c0.1-0.3,0.2-0.6,0.3-0.9
				c0.1-0.4,0.2-0.7,0.4-1.1c0.1-0.3,0.2-0.6,0.3-0.9c0.4-1,0.7-2,1.1-3c0.2-0.4,0.4-0.9,0.5-1.3c0.2-0.6,0.5-1.1,0.7-1.7
				c0.2-0.4,0.4-0.9,0.6-1.3l19.8-42.5l0,0l-350-154.2l-59.8-26.4l-6,8.5l-11.9,16.7l-12.2,17.1l-10.3,14.5l4.9,18.4l18.9-5l5,18.9
				l18.9-5l3.1,11.6l1.9,7.3l18.9-5l5,18.9l18.9-5l5,18.9l18.9-5l5,18.9l18.9-5l5,18.9l18.9-5l5,18.9l18.9-5l5,18.9l18.9-5l5,18.9
				l18.9-5l5,18.9l18.9-5l5,18.9l18.9-5l5,18.9l18.9-5l5,18.9l18.9-5l5,18.9l18.9-5l5,18.9l18.9-5l5,18.9l18.9-5l5,18.9l18.4-4.8
				l0,0C2188,625.8,2187.8,624.9,2187.6,623.9z"/>
			<path class="st6" d="M1219.1,241.1l-3.4-2.6c-15.1-11.5-16.7-34.7-3.6-51.7l-3.1,4.1c-13.1,17.1-11.4,40.2,3.6,51.7l3.4,2.6
				c15.1,11.5,37.8,7,50.9-10l3.1-4.1C1256.9,248.1,1234.2,252.6,1219.1,241.1z"/>
			
				<rect x="1342.4" y="-46.4" transform="matrix(0.6076 -0.7943 0.7943 0.6076 591.2093 1120.8264)" class="st5" width="174.9" height="17"/>
			<path class="st5" d="M1396.7,46.9l-40-30.6c-3.1-2.4-7.5-1.8-9.8,1.3l0,0l-6.3,8.2c-2.3,3.1-1.8,7.5,1.3,9.8l0.4,0.3l-3.3,3.6
				l-25.5,28.8c-3.4,3.9-8.8,4.7-12.5,2L1209,190.9c-13.1,17.1-11.4,40.2,3.6,51.7l3.4,2.6c15.1,11.5,37.8,7,50.9-10l92.2-120.5
				c-3.6-2.8-4.2-8.2-1.4-12.5l21.1-32.2l2.7-4.1l0.4,0.3c3.1,2.3,7.5,1.8,9.8-1.3l0,0l6.3-8.2C1400.3,53.6,1399.7,49.2,1396.7,46.9
				L1396.7,46.9z"/>
			<polygon class="st21" points="1508.5,-153.9 1473.9,-113.1 1367.6,25.9 1381.1,36.2 1487.4,-102.7 1517.7,-146.8 			"/>
			<path class="st21" d="M1394.3,46.3l-40-30.6c-3.1-2.4-7.5-1.8-9.8,1.3l0,0l-6.3,8.2c-2.3,3.1-1.8,7.5,1.3,9.8l0,0l0.4,0.3
				l-3.3,3.6l-25.5,28.8c-3.4,3.9-8.8,4.7-12.5,2l-92.2,120.5c-13.1,17.1-11.4,40.2,3.6,51.7l3.4,2.6c15.1,11.5,37.8,7,50.9-10
				l92.2-120.5c-3.6-2.8-4.2-8.2-1.4-12.5l21.1-32.2l2.7-4.1l0.4,0.3c3.1,2.3,7.5,1.8,9.8-1.3l0,0l6.3-8.2
				C1398,53.1,1397.4,48.7,1394.3,46.3L1394.3,46.3z"/>
			<path class="st5" d="M2086.1,838.2l10.5-0.5l-0.8-18.6l-11.8,0.5c-0.9-3.5-2.2-6.8-3.7-10l10-5.9l-9.4-16.1l-11,6.4
				c-2.3-2.6-4.8-4.9-7.5-7.1l6.5-10.5l-15.9-9.8l-6.8,11.1c-2.7-1-5.4-1.9-8.2-2.5v-11.3h-18.7v10c-2.8,0.2-5.5,0.5-8.2,1.1
				l-4.2-9.1l-16.9,7.9l3.7,7.8c-3.6,2-6.9,4.3-10,7l-6.9-5.2l-11.3,14.9l5.9,4.5c-2.2,3.6-4.1,7.4-5.6,11.4l-7.6-1.2l-3,18.4
				l6.7,1.1c-0.1,1.2-0.2,2.3-0.2,3.4c0,3.2,0.3,6.4,0.8,9.5l-6.9,2.3l6,17.7l6.5-2.2c1.9,3.9,4.2,7.5,6.8,10.9l-5.2,5.5l13.6,12.8
				l5.2-5.5c3.4,2.4,7.1,4.4,10.9,6.1l-2.3,8.2l18,5l2.3-8.4c2.2,0.2,4.3,0.3,6.5,0.3c1.1,0,2.1-0.1,3.1-0.2l1.1,7.1l18.4-2.8
				l-1.2-8c3.9-1.4,7.7-3.3,11.2-5.5l4.8,6.4l15-11.1l-5.5-7.4c2.6-3,4.9-6.2,6.9-9.7l8.2,3.9l8-16.8l-9.5-4.5
				C2085.5,845.8,2086,842,2086.1,838.2z M2025.9,845.9c-6,0-10.9-4.8-10.9-10.8c0-6,4.8-10.9,10.8-10.9c6,0,10.9,4.8,10.9,10.8
				C2036.8,841,2031.9,845.9,2025.9,845.9z"/>
			<path class="st21" d="M2086.1,833.8l10.5-0.5l-0.8-18.6l-11.8,0.5c-0.9-3.5-2.2-6.8-3.7-10l10-5.9l-9.4-16.1l-11,6.4
				c-2.3-2.6-4.8-4.9-7.5-7.1l6.5-10.5l-15.9-9.8l-6.8,11.1c-2.7-1-5.4-1.9-8.2-2.5v-11.3h-18.7v10c-2.8,0.2-5.5,0.5-8.2,1.1
				l-4.2-9.1l-16.9,7.9l3.7,7.8c-3.6,2-6.9,4.3-10,7l-6.9-5.2l-11.3,14.9l5.9,4.5c-2.2,3.6-4.1,7.4-5.6,11.4l-7.6-1.2l-3,18.4
				l6.7,1.1c-0.1,1.2-0.2,2.3-0.2,3.4c0,3.2,0.3,6.4,0.8,9.5l-6.9,2.3l6,17.7l6.5-2.2c1.9,3.9,4.2,7.5,6.8,10.9l-5.2,5.5l13.6,12.8
				l5.2-5.5c3.4,2.4,7.1,4.4,10.9,6.1l-2.3,8.2l18,5l2.3-8.4c2.2,0.2,4.3,0.3,6.5,0.3c1.1,0,2.1-0.1,3.1-0.2l1.1,7.1l18.4-2.8
				l-1.2-8c3.9-1.4,7.7-3.3,11.2-5.5l4.8,6.4l15-11.1l-5.5-7.4c2.6-3,4.9-6.2,6.9-9.7l8.2,3.9l8-16.8l-9.5-4.5
				C2085.5,841.3,2086,837.5,2086.1,833.8z M2026,841.4c-6,0-10.9-4.8-10.9-10.8c0-6,4.8-10.9,10.8-10.9c6,0,10.9,4.8,10.9,10.8
				C2036.8,836.6,2032,841.4,2026,841.4L2026,841.4z"/>
			
				<rect x="1584.4" y="1025.8" transform="matrix(0.6323 -0.7747 0.7747 0.6323 -185.1237 1762.4227)" class="st6" width="359.5" height="101"/>
			<path class="st1" d="M1839.2,896.5c-1.1,0-2.1,0.8-3.6,2.5c-0.9,1-1.7,2-2.5,3c-37.2,45.6-74.5,91.2-111.7,136.8l0.1,0.1
				c-37.5,45.9-74.9,91.8-112.4,137.8c-5,6.1-5,6.2,1.3,11.3c24.7,20,49.5,39.9,74.3,59.8c2.3,1.8,3.6,2.8,4.7,2.8
				c1.3,0,2.3-1.2,4.4-3.7c75.4-92.6,150.9-185.2,226.3-277.9c0.5-0.6,1-1.2,1.5-1.8c1.4-2.1,1.4-3.1-0.4-4.8
				c-1.9-1.8-3.9-3.5-5.9-5.1c-23.6-19.3-47.2-38.6-70.8-57.9c-0.5-0.4-1-0.8-1.5-1.2C1841.2,897.1,1840.1,896.5,1839.2,896.5
				L1839.2,896.5z M1857.9,943.5c0.3,0,0.6,0,0.9-0.2c0.7-1.9-0.8-2.6-1.8-3.5c-4.9-4.2-9.8-8.3-14.7-12.4
				c-4.9-4.1-9.9-8.1-15.1-12.3c4.2-5.1,8.2-10,12.4-15.2c26.6,21.7,53.1,43.3,79.6,65c-76.7,94-153.5,188.1-230.4,282.3
				c-26.9-21.9-53.2-43.5-79.6-65c1.2-2.6,9.1-12.3,12.4-15c1,0.8,2.1,1.7,3.2,2.6c8.7,7,17.3,14,26,21c0.9,0.7,1.7,1.8,2.9,1.8
				c0.4,0,0.8-0.1,1.2-0.3c0.6-2.1-1.1-2.8-2.2-3.7c-6.7-5.6-13.5-11.2-20.3-16.8c-2.9-2.4-5.8-4.8-9-7.3c2.3-2.9,4.5-5.5,6.7-8.3
				c4.1,2.3,7.1,6.4,11.5,8.2c1.3-1.8,0.4-2.6-0.5-3.4c-1.9-1.6-3.8-3.2-5.7-4.8c-1-0.8-2-1.6-3.2-2.6l6.6-8c3.8,3.1,7.4,6.1,11,9
				c1.2,1,2.4,2,3.8,2.8c0.5,0.3,1.1,0.4,1.7,0.4c0.4,0,0.8,0,1.2-0.1c-1.3-3.7-4.7-5.4-7.3-7.8c-2.6-2.4-5.4-4.5-8.3-6.9
				c2.2-2.8,4.2-5.1,6.2-7.6c4,1.9,6.7,5.8,11.2,7.2c0.5-3.4-2-4.2-3.5-5.7c-1.6-1.5-3.4-2.8-5.4-4.4c2.3-2.8,4.4-5.4,6.3-7.7
				c10.9,8.5,21.6,16.8,32.4,25.2c0.1,0,0.1,0.1,0.2,0.1c0.3-0.1,0.7-0.1,1-0.2c0.5-2-1-2.8-2.1-3.8c-5.4-4.5-10.9-9.1-16.3-13.6
				c-4.2-3.5-8.5-6.9-12.8-10.5c1.7-2.1,3.2-4,4.8-5.8c4.1,1.9,6.5,6.2,11.2,6.6c-1.4-4.6-6-6.1-8.7-9.7c1.9-2.4,3.9-4.8,6.1-7.5
				c2.3,1.9,4.5,3.7,6.7,5.4c2.3,1.9,4.7,3.8,7.1,5.6c0.9,0.6,1.9,1.1,2.9,1.5c1.4-2.3-0.1-3.1-1.1-4c-3.4-2.9-6.8-5.7-10.3-8.5
				c-1-0.8-2-1.6-3.2-2.6c2.1-2.6,4.1-5,6.2-7.7c2,1.6,3.9,3.2,5.9,4.5c1.8,1.1,3,3.4,5.9,3.4c0.3,0,0.6,0,0.9-0.1
				c-2.1-5.2-7.4-6.7-10.3-10.8c2-2.5,4-4.9,6.2-7.6c7.8,6.3,15.4,12.6,23,18.7c2,1.7,4.1,3.3,6.1,4.9c0.6,0.6,1.2,1,1.9,1.4
				c0.8,0.2,1.6,0.2,2.4,0.2c0-0.8-0.2-1.6-0.5-2.3c-0.7-0.8-1.5-1.5-2.3-2.1c-9.4-7.7-18.9-15.4-28.5-23.3c2-2.4,3.8-4.7,6-7.3
				c1.8,1.4,3.6,2.9,5.6,4.1c1.5,1,2.7,2.8,4.7,2.8c0.3,0,0.7-0.1,1-0.1c0.4-2.9-2.1-3.7-3.6-5.2c-1.6-1.5-3.4-2.8-5.2-4.3
				c1.3-3.3,3.7-5.2,5.6-7.5c5.3,3.9,10.3,7.6,15.3,11.3c0,0,0.1,0,0.1,0c0.3-0.1,0.6-0.2,0.9-0.3c0.7-1.9-0.7-2.6-1.8-3.5
				c-3.2-2.7-6.5-5.3-9.7-8c-0.8-0.7-1.6-1.3-2.6-2.1c1.9-2.3,3.7-4.5,5.6-6.9c3.8,2,6.5,5.5,10.7,7.2c0.8-3.4-1.8-4.2-3.2-5.6
				c-1.6-1.5-3.4-2.8-5.3-4.4c2.4-3,4.6-5.7,7.1-8.7c1.2,1,2.3,1.9,3.4,2.8c8.9,7.1,17.8,14.2,26.8,21.2c0.8,0.7,1.6,1.8,2.9,1.8
				c0.4,0,0.8-0.1,1.2-0.3c0.4-2-1.3-2.8-2.4-3.7c-8.3-7-16.6-14-25-20.9c-1.4-1.2-2.8-2.3-4.5-3.7c1.8-2.3,3.5-4.3,5.5-6.7
				c2,1.6,4,3.2,6.1,4.6c1.6,1,2.7,3.1,4.9,3.1c0.5,0,1-0.1,1.4-0.3c-0.5-3-3.2-3.8-4.9-5.5c-1.7-1.6-3.6-3-5.6-4.6
				c2.3-2.8,4.2-5.2,6.4-7.9c2.6,2,5.2,3.9,7.8,5.8c2,1.5,3.9,3.1,5.9,4.5c0.8,0.5,1.7,0.9,2.6,1.2c0.9-1.9-0.3-2.6-1.1-3.3
				c-3.4-3.1-6.9-6-10.3-9.1c-0.8-0.7-1.5-1.4-2.4-2.2c2.1-2.6,4.2-5.1,6.2-7.5c3.8,2.6,7.3,5,10.8,7.3c0,0,0,0,0,0
				c0.4-0.2,0.7-0.3,1.1-0.6c-2.3-4-6.5-6.2-9.6-9.7c2.4-2.9,4.7-5.8,7.2-8.9c0.9,0.7,1.8,1.2,2.5,1.8c8.6,6.9,17.2,13.8,25.8,20.6
				c1.1,0.9,2.1,2.1,3.7,2.1c0.3,0,0.6,0,0.8-0.1c0.7-1.9-0.8-2.6-1.8-3.4c-6.4-5.4-12.8-10.9-19.2-16.3c-3-2.5-6.1-5-9.3-7.6
				c1.7-2.1,3.3-4,5.2-6.4c1.8,1.5,3.6,2.9,5.4,4.4c0.9,0.9,2,1.7,3.1,2.3c0.2,0.1,0.3,0.1,0.5,0.1c0.6-0.1,1.3-0.2,1.9-0.3
				c-0.2-0.7-0.2-1.6-0.7-2c-2.7-2.3-5.4-4.5-8.3-6.9c2.3-2.8,4.2-5.2,6.3-7.7c6,3.5,10.4,9.3,17.3,12.3c-0.4-3.5-0.4-3.5-6.5-8.5
				c-2.7-2.2-5.4-4.5-8.4-6.8c1.9-2.3,3.6-4.4,5.3-6.6c4.2,1.7,6.5,6.4,11.6,7.1c0.1-3.4-2.6-4.2-4.1-5.7c-1.5-1.6-3.3-3-5-4.5
				c2.3-2.8,4.5-5.5,6.9-8.4c0.9,0.7,1.8,1.2,2.6,1.8c8.8,7.1,17.5,14.2,26.3,21.2c1.3,1,2.7,1.8,4.1,2.6c0.2-0.2,0.5-0.4,0.7-0.6
				c-0.1-0.8-0.3-1.6-0.7-2.3c-0.8-0.9-1.7-1.7-2.6-2.3c-8.6-7.1-17.2-14.2-25.8-21.3c-0.7-0.6-1.3-1.2-2.2-2c2.1-2.5,4.1-5,6.4-7.8
				c2.1,1.7,4,3.3,5.9,4.8c0.8,0.7,1.6,1.3,2.5,1.8c0.2,0.1,0.4,0.1,0.7,0.1c0.6,0,1.2-0.2,1.8-0.2c-0.1-0.7-0.3-1.4-0.6-2
				c-0.8-0.9-1.7-1.7-2.6-2.4c-1.7-1.6-3.4-3.2-5.4-5c2.3-2.8,4.5-5.5,6.9-8.5c3.1,2.5,6.2,4.9,9.2,7.3c1.5,1.2,3,2.5,4.6,3.6
				c0.8,0.4,1.7,0.8,2.6,1c1-2.1-0.2-2.8-1.2-3.7c-3.3-2.8-6.6-5.6-9.9-8.3c-1-0.8-2-1.6-3.2-2.6c2-2.4,3.8-4.6,5.5-6.8
				c3.6,1.7,5.9,5.3,9.9,6.4c1.1-3.1-1.4-3.9-2.7-5.2c-1.5-1.4-3.2-2.6-4.9-4.1c2.4-3,4.6-5.7,7-8.5c1,0.7,1.8,1.2,2.6,1.9
				c9.1,7.3,18.2,14.5,27.4,21.8C1855.7,942.3,1856.6,943.5,1857.9,943.5L1857.9,943.5z"/>
			<path class="st5" d="M1515.2,297.9l-13.1-31.1l29.8,16l211.2,232.2c4.2,4.6,3.8,11.7-0.8,15.9l0,0l0,0
				c-4.6,4.2-11.7,3.8-15.9-0.8L1515.2,297.9z"/>
			<path class="st21" d="M1517.1,296.6l-13.1-31.1l29.8,16L1745,513.6c4.2,4.6,3.8,11.7-0.8,15.9l0,0l0,0
				c-4.6,4.2-11.7,3.8-15.9-0.8L1517.1,296.6z"/>
			<path class="st5" d="M1680.3,4.9c8.2-12.1,24.6-15.2,36.7-7s15.2,24.6,7,36.7c-3.2,4.7-7.9,8.3-13.3,10.2l137.2,176.4l52.9-40.4
				l-299.6-392.4l-52.9,40.4L1680.3,4.9z M1799.6,102.9c11.6-8.8,28.2-6.6,37,5s6.6,28.2-5,37s-28.2,6.6-37-5
				C1785.7,128.3,1788,111.7,1799.6,102.9C1799.6,102.9,1799.6,102.9,1799.6,102.9z M1617.6-135.3c11.6-8.8,28.2-6.6,37,5l0,0
				c8.8,11.6,6.6,28.2-5,37l0,0c-11.6,8.8-28.2,6.6-37-5C1603.7-109.9,1606-126.5,1617.6-135.3z"/>
			<path class="st6" d="M1849.6,219.8l16.4,21.5c4.7,6.1,11.7,8.6,15.7,5.5l35-26.7c4-3.1,3.5-10.5-1.2-16.6l-16.4-21.5
				L1849.6,219.8z"/>
			<rect x="1708.8" y="39.1" class="st1" width="0" height="6.3"/>
			<polygon class="st1" points="1684.1,10 1680.3,4.9 1680.3,4.9 1698,28.1 			"/>
			<path class="st1" d="M1718.2,40.8c11.6-8.8,13.8-25.4,4.9-37s-25.4-13.8-37-4.9c-2.2,1.7-4.2,3.8-5.8,6.1l3.8,5l0,0
				c0.3-0.5,0.5-1,0.8-1.4c0.6-1,1.3-1.9,2.1-2.7c2.4-2.6,5.4-4.5,8.8-5.6c0.5-0.2,1.1-0.3,1.6-0.4c11-2.6,22.1,4.3,24.6,15.3
				c1.1,4.9,0.4,10-1.9,14.5c-0.2,0.5-0.5,0.9-0.8,1.4c-0.6,1-1.3,1.9-2.1,2.8c-0.8,0.9-1.7,1.7-2.7,2.4c-1.9,1.4-4,2.5-6.2,3.2
				c-0.5,0.2-1,0.3-1.5,0.4l0,0l0,0l3.8,5C1713.4,43.8,1715.9,42.5,1718.2,40.8z"/>
			<polygon class="st6" points="1706.8,39.7 1706.8,39.7 1698,28.1 			"/>
			<polygon class="st6" points="1684.1,10 1684.1,10 1698,28.1 1706.8,39.7 1706.8,39.7 			"/>
			<polygon class="st6" points="1706.8,39.7 1701.3,32.5 1700.8,31.8 1700.8,31.8 1690.2,17.9 1690.2,17.9 1689.4,16.9 1689.4,16.9 
				1684.1,10 1684.1,10 1684.1,10 			"/>
			<path class="st6" d="M1695.9,0.2c0.5-0.2,1.1-0.3,1.6-0.4l5.3,7l0,0l0.8,1l0,0l10.6,13.9l0,0l0.7,1l5.3,7
				c-0.2,0.5-0.5,0.9-0.8,1.4c-0.6,1-1.3,1.9-2.1,2.8c0.8-0.9,1.5-1.8,2.1-2.8c0.3-0.4,0.6-0.9,0.8-1.4c5.4-10,1.7-22.4-8.2-27.8
				c-4.4-2.4-9.6-3.1-14.4-2C1697-0.1,1696.4,0,1695.9,0.2c-3.4,1.1-6.4,3-8.8,5.6C1689.5,3.2,1692.5,1.3,1695.9,0.2z"/>
			<path class="st6" d="M1685,8.5c0.6-1,1.3-1.9,2.1-2.7C1686.3,6.7,1685.6,7.6,1685,8.5c-0.3,0.5-0.6,0.9-0.8,1.4l0,0
				C1684.4,9.5,1684.7,9,1685,8.5z"/>
			<path class="st6" d="M1708.3,39.3c-0.5,0.2-1,0.3-1.5,0.4l0,0l0,0C1707.3,39.6,1707.8,39.5,1708.3,39.3c2.3-0.7,4.4-1.8,6.2-3.2
				c0.9-0.7,1.8-1.5,2.7-2.4c-0.8,0.9-1.7,1.7-2.7,2.4C1712.7,37.5,1710.6,38.6,1708.3,39.3z"/>
			<path class="st6" d="M1720.2,29.5l-5.3-7l0,0l-13.4,10.2l-0.2-0.3l5.5,7.2l0,0c0.5-0.1,1-0.2,1.5-0.4c2.3-0.7,4.4-1.8,6.2-3.2
				c0.9-0.7,1.8-1.5,2.7-2.4c0.8-0.9,1.5-1.8,2.1-2.8C1719.7,30.5,1719.9,30,1720.2,29.5z"/>
			<path class="st6" d="M1689.4,16.9l13.4-10.2l-5.3-7c-0.5,0.1-1.1,0.3-1.6,0.4c-4.5,1.4-8.3,4.4-10.9,8.3
				c-0.3,0.5-0.6,0.9-0.8,1.4l0,0l0,0L1689.4,16.9z"/>
			
				<rect x="1693.8" y="11" transform="matrix(0.7953 -0.6063 0.6063 0.7953 336.5746 1036.0367)" class="st6" width="16.8" height="17.4"/>
			<rect x="1689.8" y="16.8" class="st1" width="0" height="1.2"/>
			<rect x="1703.2" y="6.6" class="st1" width="0" height="1.2"/>
			
				<rect x="1688.2" y="11.6" transform="matrix(0.7953 -0.6063 0.6063 0.7953 339.9196 1031.0795)" class="st1" width="16.8" height="1.2"/>
			<polygon class="st1" points="1714.1,21.6 1714.1,21.6 1714.9,22.5 			"/>
			<path class="st1" d="M1700.8,31.8l0.5,0.7L1700.8,31.8z"/>
			<polygon class="st1" points="1714.9,22.6 1714.9,22.5 1714.1,21.6 1700.8,31.8 1701.3,32.5 1701.5,32.8 			"/>
			<path class="st1" d="M1794.6,139.9c8.8,11.6,25.4,13.8,37,5s13.8-25.4,5-37s-25.4-13.8-37-5S1785.7,128.3,1794.6,139.9
				L1794.6,139.9z M1803.2,107.5c6.4-4.9,15.1-5.6,22.2-1.7c0.4,0.2,0.9,0.5,1.3,0.8c4,2.6,7,6.5,8.4,11.1c0.2,0.5,0.3,1,0.4,1.5
				c2.6,11-4.3,22.1-15.3,24.6c-4.9,1.1-10,0.4-14.5-1.9c-0.5-0.3-1-0.5-1.4-0.8c-3.9-2.6-6.9-6.4-8.3-10.9
				c-0.2-0.5-0.3-1.1-0.4-1.6C1793.8,120.7,1796.7,112.4,1803.2,107.5z"/>
			<path class="st6" d="M1828.6,124.5l-0.4,0.3l-14.5,11l0,0l-1,0.8l0,0l-7,5.3c9.9,5.4,22.4,1.7,27.8-8.2c2.4-4.4,3.1-9.6,1.9-14.5
				L1828.6,124.5z"/>
			<path class="st6" d="M1817.4,111.9L1817.4,111.9l0.9-0.7l7.1-5.4c-10-5.4-22.4-1.7-27.8,8.2c-2.4,4.4-3.1,9.6-1.9,14.4
				L1817.4,111.9z"/>
			<path class="st6" d="M1818.4,111.1l10.2,13.4l7-5.3c-0.1-0.5-0.2-1-0.4-1.5c-1.4-4.6-4.4-8.4-8.4-11.1c-0.4-0.3-0.9-0.6-1.3-0.8
				l-7.1,5.4L1818.4,111.1z"/>
			<path class="st6" d="M1802.6,123.2l1-0.8l10.2,13.4l14.5-11l-0.6,0.5l-10.2-13.4l-21.8,16.6c0.1,0.5,0.3,1.1,0.4,1.6
				c1.4,4.5,4.4,8.4,8.3,10.9c0.5,0.3,0.9,0.6,1.4,0.8l7-5.3L1802.6,123.2z"/>
			<polygon class="st1" points="1812.8,136.6 1813.8,135.8 1813.8,135.8 			"/>
			
				<rect x="1807.6" y="121" transform="matrix(0.7953 -0.6063 0.6063 0.7953 291.7376 1122.7732)" class="st1" width="1.2" height="16.8"/>
			<polygon class="st1" points="1817.4,111.9 1817.4,111.9 1818.3,111.2 			"/>
			<polygon class="st1" points="1828.6,124.5 1828.6,124.5 1828.2,124.8 			"/>
			<polygon class="st1" points="1828.2,124.8 1828.6,124.5 1818.4,111.1 1818.3,111.2 1817.4,111.9 1827.6,125.3 			"/>
			<path class="st15" d="M1681.4,2.1c8.2-12.1,24.6-15.2,36.7-7s15.2,24.6,7,36.7c-3.2,4.7-7.9,8.3-13.3,10.1L1849,218.3L1902,178
				l-299.6-392.4l-52.9,40.4L1681.4,2.1z M1800.7,100c11.6-8.8,28.2-6.6,37,5s6.6,28.2-5,37s-28.2,6.6-37-5S1789.1,108.9,1800.7,100
				L1800.7,100z M1618.7-138.1c11.6-8.8,28.2-6.6,37,5l0,0c8.8,11.6,6.6,28.2-5,37l0,0c-11.6,8.8-28.2,6.6-37-5
				S1607.1-129.3,1618.7-138.1z"/>
			<path class="st15" d="M1850.8,217l16.4,21.5c4.7,6.1,11.7,8.6,15.7,5.5l35-26.7c4-3.1,3.5-10.5-1.2-16.6l-16.4-21.5L1850.8,217z"
				/>
			<rect x="1709.9" y="36.3" class="st15" width="0" height="6.3"/>
			<polygon class="st15" points="1685.3,7.2 1681.4,2.1 1681.4,2.1 1699.1,25.3 			"/>
			<path class="st15" d="M1719.3,37.9c11.6-8.8,13.8-25.4,4.9-37c-8.8-11.6-25.4-13.8-37-4.9c-2.2,1.7-4.2,3.8-5.8,6.1l3.8,5l0,0
				c0.3-0.5,0.5-1,0.8-1.4c0.6-1,1.3-1.9,2.1-2.7c2.4-2.6,5.4-4.5,8.8-5.6c0.5-0.2,1.1-0.3,1.6-0.4c11-2.6,22.1,4.3,24.6,15.3
				c1.1,4.9,0.4,10-1.9,14.5c-0.2,0.5-0.5,0.9-0.8,1.4c-0.6,1-1.3,1.9-2.1,2.8c-0.8,0.9-1.7,1.7-2.7,2.4c-1.9,1.4-4,2.5-6.2,3.2
				c-0.5,0.2-1,0.3-1.5,0.4l0,0l0,0l3.8,5C1714.5,41,1717,39.7,1719.3,37.9z"/>
			<polygon class="st15" points="1708,36.9 1708,36.9 1699.1,25.3 			"/>
			<polygon class="st15" points="1685.3,7.2 1685.3,7.2 1699.1,25.3 1708,36.9 1708,36.9 			"/>
			<polygon class="st15" points="1708,36.9 1702.4,29.7 1701.9,29 1701.9,29 1691.3,15.1 1691.3,15.1 1690.6,14.1 1690.6,14.1 
				1685.3,7.2 1685.3,7.2 1685.3,7.2 			"/>
			<path class="st15" d="M1697-2.6c0.5-0.2,1.1-0.3,1.6-0.4l5.3,7l0,0l0.8,1l0,0l10.6,13.9l0,0l0.7,1l5.3,7
				c-0.2,0.5-0.5,0.9-0.8,1.4c-0.6,1-1.3,1.9-2.1,2.8c0.8-0.9,1.5-1.8,2.1-2.8c0.3-0.4,0.6-0.9,0.8-1.4c5.4-10,1.7-22.4-8.2-27.8
				c-4.4-2.4-9.6-3.1-14.4-2C1698.1-2.9,1697.6-2.8,1697-2.6c-3.4,1.1-6.4,3-8.8,5.6C1690.6,0.4,1693.7-1.5,1697-2.6L1697-2.6z"/>
			<path class="st15" d="M1686.1,5.7c0.6-1,1.3-1.9,2.1-2.7C1687.4,3.9,1686.7,4.8,1686.1,5.7c-0.3,0.5-0.6,0.9-0.8,1.4l0,0
				C1685.5,6.7,1685.8,6.2,1686.1,5.7z"/>
			<path class="st15" d="M1709.5,36.5c-0.5,0.2-1,0.3-1.5,0.4l0,0l0,0C1708.5,36.8,1709,36.7,1709.5,36.5c2.3-0.7,4.4-1.8,6.2-3.2
				c0.9-0.7,1.8-1.5,2.7-2.4c-0.8,0.9-1.7,1.7-2.7,2.4C1713.8,34.7,1711.7,35.8,1709.5,36.5z"/>
			<path class="st15" d="M1721.3,26.7l-5.3-7l0,0L1702.7,30l-0.2-0.3l5.5,7.2l0,0c0.5-0.1,1-0.2,1.5-0.4c2.3-0.7,4.4-1.8,6.2-3.2
				c0.9-0.7,1.8-1.5,2.7-2.4c0.8-0.9,1.5-1.8,2.1-2.8C1720.8,27.6,1721.1,27.2,1721.3,26.7z"/>
			<path class="st15" d="M1690.6,14.1l13.4-10.2l-5.3-7c-0.5,0.1-1.1,0.3-1.6,0.4c-4.5,1.4-8.3,4.4-10.9,8.3
				c-0.3,0.5-0.6,0.9-0.8,1.4l0,0l0,0L1690.6,14.1z"/>
			
				<rect x="1695" y="8.2" transform="matrix(0.7953 -0.6063 0.6063 0.7953 338.5183 1036.1467)" class="st22" width="16.8" height="17.4"/>
			<rect x="1691" y="14" class="st15" width="0" height="1.2"/>
			<rect x="1704.3" y="3.8" class="st15" width="0" height="1.2"/>
			
				<rect x="1689.3" y="8.8" transform="matrix(0.7953 -0.6063 0.6063 0.7953 341.8596 1031.1949)" class="st22" width="16.8" height="1.2"/>
			<polygon class="st15" points="1715.3,18.8 1715.3,18.8 1716,19.7 			"/>
			<path class="st15" d="M1701.9,29l0.5,0.7L1701.9,29z"/>
			<polygon class="st15" points="1716,19.8 1716,19.7 1715.3,18.8 1701.9,29 1702.4,29.7 1702.7,30 			"/>
			<path class="st15" d="M1795.7,137.1c8.8,11.6,25.4,13.8,37,5s13.8-25.4,5-37s-25.4-13.8-37-5S1786.9,125.5,1795.7,137.1
				L1795.7,137.1z M1804.3,104.7c6.4-4.9,15.1-5.6,22.2-1.7c0.4,0.2,0.9,0.5,1.3,0.8c4,2.6,7,6.5,8.4,11.1c0.2,0.5,0.3,1,0.4,1.5
				c2.6,11-4.3,22.1-15.3,24.6c-4.9,1.1-10,0.4-14.5-1.9c-0.5-0.3-1-0.5-1.4-0.8c-3.9-2.6-6.9-6.4-8.3-10.9
				c-0.2-0.5-0.3-1.1-0.4-1.6C1794.9,117.8,1797.9,109.6,1804.3,104.7L1804.3,104.7z"/>
			<path class="st15" d="M1829.7,121.7l-0.4,0.3l-14.5,11l0,0l-1,0.8l0,0l-7,5.3c9.9,5.4,22.4,1.7,27.8-8.2
				c2.4-4.4,3.1-9.6,1.9-14.5C1836.7,116.4,1829.7,121.7,1829.7,121.7z"/>
			<path class="st15" d="M1818.6,109.1L1818.6,109.1l0.9-0.7l7.1-5.4c-10-5.4-22.4-1.7-27.8,8.2c-2.4,4.4-3.1,9.6-1.9,14.4
				L1818.6,109.1z"/>
			<path class="st15" d="M1819.5,108.3l10.2,13.4l7-5.3c-0.1-0.5-0.2-1-0.4-1.5c-1.4-4.6-4.4-8.4-8.4-11.1c-0.4-0.3-0.9-0.6-1.3-0.8
				l-7.1,5.4L1819.5,108.3z"/>
			<path class="st15" d="M1803.7,120.4l1-0.8l10.2,13.4l14.5-11l-0.6,0.5l-10.2-13.4l-21.8,16.6c0.1,0.5,0.3,1.1,0.4,1.6
				c1.4,4.5,4.4,8.4,8.3,10.9c0.5,0.3,0.9,0.6,1.4,0.8l7-5.3L1803.7,120.4z"/>
			<polygon class="st15" points="1813.9,133.8 1814.9,133 1814.9,133 			"/>
			
				<rect x="1808.7" y="118.2" transform="matrix(0.7953 -0.6063 0.6063 0.7953 293.6724 1122.885)" class="st22" width="1.2" height="16.8"/>
			<polygon class="st15" points="1818.6,109.1 1818.6,109.1 1819.4,108.4 			"/>
			<polygon class="st15" points="1829.7,121.7 1829.7,121.7 1829.3,122 			"/>
			<polygon class="st15" points="1829.3,122 1829.7,121.7 1819.5,108.3 1819.4,108.4 1818.6,109.1 1828.7,122.4 			"/>
		</g>
	</g>
</g>
<g>
	<g>
		<defs>
			<rect id="SVGID_3_" x="947.3" y="-1320.7" width="2156.8" height="1081.1"/>
		</defs>
		<clipPath id="SVGID_4_">
			<use xlink:href="#SVGID_3_"  style="overflow:visible;"/>
		</clipPath>
		<g class="st23">
			<path class="st24" d="M1545.2-185.5l35.6,210c0.3,1.8,2.1,3.1,3.9,2.8c0.6-0.1,1.1-0.4,1.6-0.7l164.1-135.8
				c1.4-1.2,1.6-3.3,0.4-4.8c-0.4-0.5-0.9-0.8-1.4-1l-199.6-74.2c-1.8-0.6-3.7,0.2-4.3,2C1545.1-186.7,1545.1-186.1,1545.2-185.5z"
				/>
			<path class="st14" d="M1121.7-26.5l3.6-5.8c16.1-25.5,52.5-31.4,81.4-13.2l-6.9-4.3c-28.9-18.2-65.3-12.3-81.4,13.2l-3.6,5.8
				c-16.1,25.5-5.7,60.9,23.2,79.1l6.9,4.3C1116,34.3,1105.7-1.1,1121.7-26.5z"/>
			
				<rect x="1580.2" y="128" transform="matrix(0.5333 -0.8459 0.8459 0.5333 517.881 1472.7292)" class="st5" width="27" height="278.1"/>
			<polygon class="st5" points="1788.1,378.7 1718.5,329.7 1704.1,352.6 1778.3,394.2 			"/>
			<path class="st6" d="M1454.7,226.6l42.7-67.7c3.3-5.2,1.7-12.1-3.5-15.3l0,0l-13.8-8.7c-5.2-3.3-12.1-1.7-15.3,3.5l-0.5,0.7
				l-6.2-4.6l-49.3-36.2c-6.6-4.8-8.8-13.3-4.9-19.4l-204-128.6c-28.9-18.2-65.3-12.3-81.4,13.2l-3.6,5.8
				c-16.1,25.5-5.7,60.9,23.2,79.1l204,128.6c3.8-6.1,12.4-7.9,19.7-4l53.9,28.9l6.9,3.6l-0.5,0.7c-3.3,5.2-1.7,12.1,3.5,15.3l0,0
				l13.8,8.7C1444.6,233.4,1451.4,231.8,1454.7,226.6L1454.7,226.6z"/>
			<polygon class="st25" points="1788.7,374.9 1719.1,326 1483.8,177.6 1469.4,200.5 1704.7,348.8 1778.9,390.5 			"/>
			<path class="st25" d="M1455.3,222.9l42.7-67.7c3.3-5.2,1.7-12.1-3.5-15.3l0,0l-13.8-8.7c-5.2-3.3-12.1-1.7-15.3,3.5l0,0l-0.5,0.7
				l-6.2-4.6l-49.3-36.2c-6.6-4.8-8.8-13.3-4.9-19.4l-204-128.6c-28.9-18.2-65.3-12.3-81.4,13.2l-3.6,5.8
				c-16.1,25.5-5.7,60.9,23.2,79.1l204,128.6c3.8-6.1,12.4-7.9,19.7-4l53.9,28.9l6.9,3.6l-0.5,0.7c-3.3,5.2-1.7,12.1,3.5,15.3l0,0
				l13.8,8.7C1445.2,229.7,1452,228.1,1455.3,222.9L1455.3,222.9z"/>
		</g>
	</g>
</g>
</svg>
