<?xml version="1.0" encoding="utf-8"?>
<!-- Generator: Adobe Illustrator 24.0.3, SVG Export Plug-In . SVG Version: 6.00 Build 0)  -->
<svg version="1.1" id="Layer_3" xmlns="http://www.w3.org/2000/svg" xmlns:xlink="http://www.w3.org/1999/xlink" x="0px" y="0px"
	 viewBox="0 0 841.89 467.72" style="enable-background:new 0 0 841.89 467.72;" xml:space="preserve">
<style type="text/css">
	.st0{clip-path:url(#SVGID_2_);fill:#F5C65D;}
	.st1{clip-path:url(#SVGID_2_);}
	.st2{fill:#FFFFFF;}
	.st3{fill:#4890BA;}
	.st4{fill:#FAECE1;}
	.st5{fill:#9D806F;}
	.st6{fill:none;stroke:#54575C;stroke-miterlimit:10;}
	.st7{fill:#54575C;stroke:#54575C;stroke-miterlimit:10;}
	.st8{clip-path:url(#SVGID_2_);fill:none;stroke:#54575C;stroke-miterlimit:10;}
	.st9{clip-path:url(#SVGID_2_);fill:#54575C;}
</style>
<g>
	<defs>
		<rect id="SVGID_1_" width="841.89" height="467.72"/>
	</defs>
	<clipPath id="SVGID_2_">
		<use xlink:href="#SVGID_1_"  style="overflow:visible;"/>
	</clipPath>
	<rect class="st0" width="841.89" height="467.72"/>
	<g class="st1">
		<path class="st2" d="M717.44,465.9c0,0-24.89-57.47-42.58-100.48c-17.69-43-44.39-41.96-65.55-49.25
			c-21.15-7.28-88.09-10.4-96.41-17.34c-0.78-0.65-2.86-1.19-5.99-1.65c13.4,14.15,36.75,39.62,48.3,44.3
			c12.83,5.2,5.2,7.98,3.12,7.98s-42.31-6.24-48.21-3.47c0,0-1.39,7.28-14.57,12.48c-13.18,5.2-47.86,20.46-66.24,62.77
			c0,0-0.62-1.25-1.02-3.52c-7.72-23.53-33.01-37.64-56.55-48.5c-8.16-3.77-12.83-7.54-15.77-12.43
			c-7.67,8.3-30.4,32.29-40.41,36.01c-12.14,4.51-11.1-3.47-11.1-3.47c32.6-29.13,24.97-57.92,28.78-77.34
			c1.01-5.16,2.69-8.86,4.6-11.54c-2.81,1.64-6.47,3.99-11.19,7.38c-15.95,11.44-99.53,44.39-140.46,72.14
			c-40.92,27.74-33.99,84.97-34.33,86.35L717.44,465.9z"/>
		<path class="st2" d="M500.23,242.99c0.13,0.24,0.2,0.36,0.2,0.36s7.98-26.7,7.63-30.17c-0.16-1.56,0.73-8.31-0.28-15.11
			c-3.2,6.99-5.96,12.33-5.96,12.33C502.34,217.66,501.34,231.34,500.23,242.99z"/>
		<path class="st2" d="M517.42,168.79c-0.69-10.05-10.05-68.95-33.95-77.67c1.86,0.03,3.43-0.91,3.43-4.18
			c0-7.98-15.95-32.95-42.31-42.31c-26.36-9.36-44.39-19.07-66.24-5.9s-53.75,49.59-64.85,54.1c-11.1,4.51-14.91,26.01-19.42,32.25
			c-4.51,6.24-1.73,32.25-1.39,43c0.35,10.75,7.28,35.37,7.63,41.62c0.29,5.3,2.84,8.35,5.09,10c0.45-4.31,1.43-5.91,4.27-3.06
			c3.47,3.47,11.1,9.36,11.1,9.36l-3.12-40.23c0,0,7.63-58.96,16.65-66.59c9.02-7.63,73.18-41.96,97.1-40.23
			c23.93,1.73,29.83-5.55,40.23,10.75c10.4,16.3,22.2,38.5,21.15,58.26c-0.55,10.36,1.67,23.09,4.05,34.92
			c2.17,10.75,4.47,20.74,4.96,27.51c0,0,2.76-5.35,5.96-12.33C512.35,188.07,517.83,174.71,517.42,168.79z"/>
		<path class="st2" d="M555.22,341.5c-11.55-4.68-34.9-30.16-48.3-44.3c-1.49-1.57-2.85-3-4.07-4.25
			c-4.48-4.61-8.07-9.22-10.89-13.24c-1.8,4.7-3.93,10.15-6.28,15.96c-0.29,0.71-0.57,1.42-0.87,2.13
			c-1.4,3.43-3.06,7.07-4.95,10.71c3.53,9.76,0.59,24.43-3.72,30.9c-4.86,7.28-27.05,35.37-39.88,52.71
			c-8.13,10.99-8.74,19.75-8.1,24.69l1.16,4.44c18.38-42.31,53.06-57.57,66.24-62.77c13.18-5.2,14.57-12.48,14.57-12.48
			c5.9-2.77,46.12,3.47,48.21,3.47S568.05,346.7,555.22,341.5z"/>
		<path class="st2" d="M349.91,332.13c-2.67-19.67,2.68-28.76,3.09-29.43c-1.59-1.96-3.19-3.97-4.78-5.99
			c-0.65-0.83-1.3-1.66-1.94-2.49c-2.47,0.75-5.68,2.45-8.41,6.27c-1.91,2.67-3.59,6.38-4.6,11.54
			c-3.81,19.42,3.81,48.21-28.78,77.34c0,0-1.04,7.98,11.1,3.47c10.01-3.72,32.75-27.71,40.41-36.01
			C352.44,350.9,351.43,343.34,349.91,332.13z"/>
		<path class="st2" d="M479.87,308.51c-6.63,12.81-16.01,25.66-26.27,29.17c-12.1,4.14-23.62,5.33-34.01,4.79
			c-24.74-1.28-43.09-12.39-47.49-17.28c-0.16-0.17-0.34-0.37-0.52-0.58c-3.2-3.58-10.67-12.15-18.58-21.92
			c-0.42,0.67-5.76,9.76-3.09,29.43c1.52,11.2,2.52,18.76,6.08,24.68c2.94,4.89,7.61,8.66,15.77,12.43
			c23.54,10.86,48.83,24.98,56.55,48.5c-0.05-0.29-0.1-0.6-0.14-0.93c-0.64-4.94-0.04-13.7,8.1-24.69
			c12.83-17.34,35.03-45.43,39.88-52.71C480.46,332.95,483.4,318.28,479.87,308.51z"/>
		<path class="st2" d="M502.76,209.37c-0.5-6.77-2.8-16.76-4.96-27.51c-2.38-11.82-4.6-24.56-4.05-34.92
			c1.04-19.77-10.75-41.96-21.15-58.26c-10.4-16.3-16.3-9.02-40.23-10.75c-23.93-1.73-88.09,32.6-97.1,40.23
			c-9.02,7.63-16.65,66.59-16.65,66.59l3.12,40.23c0,0-7.63-5.9-11.1-9.36c-2.85-2.85-3.82-1.25-4.27,3.06
			c-0.1,0.94-0.17,2-0.23,3.18c-0.35,6.59,16.99,29.13,23.58,44.74c1.62,3.84,4.69,8.85,8.49,14.32
			c7.66,4.85,21.91,13.09,28.14,11.61c8.73-2.08,7.06-26.59,9.56-32.82c2.49-6.23,22.02-15.37,29.09-18.28
			c2.71-1.12,6.16-1.62,9.38-1.82c5.16,0.6,9.73,0.16,9.73,0.16s5.4,7.06,12.05,8.73c6.65,1.66,9.56-7.89,9.56-7.89l11.63-0.83
			c27.01,2.49,23.68,26.59,28.67,29.92c4.24,2.83,11.8-11.49,13.95-15.82c0.37-3.37,0.81-7.48,1.23-11.89
			C502.29,230.3,503.29,216.63,502.76,209.37z"/>
		<path class="st2" d="M485.04,270.7c-4.99-3.32-1.66-27.42-28.67-29.92l-11.63,0.83c0,0-2.91,9.56-9.56,7.89
			c-6.65-1.66-12.05-8.73-12.05-8.73s-4.57,0.45-9.73-0.16c-3.22,0.2-6.67,0.7-9.38,1.82c-7.06,2.91-26.59,12.05-29.09,18.28
			c-2.49,6.23-0.83,30.75-9.56,32.82c-6.22,1.48-20.47-6.76-28.14-11.61c2.73,3.93,5.82,8.11,9.04,12.26
			c0.64,0.83,1.29,1.67,1.94,2.49c1.59,2.03,3.19,4.03,4.78,5.99c7.91,9.77,15.38,18.34,18.58,21.92c0.18,0.21,0.37,0.41,0.52,0.58
			c4.4,4.88,22.74,16,47.49,17.28c10.4,0.54,21.91-0.65,34.01-4.79c10.26-3.51,19.64-16.35,26.27-29.17
			c1.89-3.65,3.55-7.29,4.95-10.71c0.29-0.72,0.58-1.43,0.87-2.13c2.35-5.82,4.48-11.26,6.28-15.96c3.72-9.71,6.04-16.24,6.04-16.24
			s0.43-3.42,1-8.58C496.84,259.21,489.29,273.53,485.04,270.7z M465.1,286.91c-8.31,9.56-19.53,1.66-27.01-3.32
			c-7.48-4.99-5.42,6.25-14.13,13.71c-2.91,2.49-10.39,3.32-19.11-0.42c-6.97-2.99-17.45-13.3-15.79-24.1
			c1.66-10.8,15.37-13.3,43.21-18.28c27.84-4.99,29.5,0.42,34.9,4.99c5.4,4.57,7.48,15.79,7.48,15.79S473.41,277.35,465.1,286.91z"
			/>
		<path class="st2" d="M467.18,259.49c-5.4-4.57-7.06-9.97-34.9-4.99c-27.84,4.99-41.55,7.48-43.21,18.28
			c-1.66,10.8,8.82,21.11,15.79,24.1c8.73,3.74,16.2,2.91,19.11,0.42c8.7-7.46,6.65-18.7,14.13-13.71
			c7.48,4.99,18.7,12.88,27.01,3.32c8.31-9.56,9.56-11.63,9.56-11.63S472.58,264.06,467.18,259.49z"/>
	</g>
	<g class="st1">
		<path class="st3" d="M713.97,469.37c0,0-24.89-57.47-42.58-100.48c-17.69-43-44.39-41.96-65.55-49.25
			c-21.15-7.28-88.09-10.4-96.41-17.34c-0.78-0.65-2.86-1.19-5.99-1.65c13.4,14.15,36.75,39.62,48.3,44.3
			c12.83,5.2,5.2,7.98,3.12,7.98s-42.31-6.24-48.21-3.47c0,0-1.39,7.28-14.57,12.48c-13.18,5.2-47.86,20.46-66.24,62.77
			c0,0-0.62-1.25-1.02-3.52c-7.72-23.53-33.01-37.64-56.55-48.5c-8.16-3.77-12.83-7.54-15.77-12.43
			c-7.67,8.3-30.4,32.29-40.41,36.01c-12.14,4.51-11.1-3.47-11.1-3.47c32.6-29.13,24.97-57.92,28.78-77.34
			c1.01-5.16,2.69-8.86,4.6-11.54c-2.81,1.64-6.47,3.99-11.19,7.38c-15.95,11.44-99.53,44.39-140.46,72.14
			c-40.92,27.74-33.99,84.97-34.33,86.35L713.97,469.37z"/>
		<path class="st4" d="M496.75,246.46c0.13,0.24,0.2,0.36,0.2,0.36s7.98-26.7,7.63-30.17c-0.16-1.56,0.73-8.31-0.28-15.11
			c-3.2,6.99-5.96,12.33-5.96,12.33C498.87,221.13,497.87,234.81,496.75,246.46z"/>
		<path class="st5" d="M513.95,172.26c-0.69-10.05-10.05-68.95-33.95-77.67c1.86,0.03,3.43-0.91,3.43-4.18
			c0-7.98-15.95-32.95-42.31-42.31c-26.36-9.36-44.39-19.07-66.24-5.9s-53.75,49.59-64.85,54.1c-11.1,4.51-14.91,26.01-19.42,32.25
			c-4.51,6.24-1.73,32.25-1.39,43c0.35,10.75,7.28,35.37,7.63,41.62c0.29,5.3,2.84,8.35,5.09,10c0.45-4.31,1.43-5.91,4.27-3.06
			c3.47,3.47,11.1,9.36,11.1,9.36l-3.12-40.23c0,0,7.63-58.96,16.65-66.59c9.02-7.63,72.2-43.19,96.13-41.45
			c23.93,1.73,34.4-6.77,44.81,9.53c10.4,16.3,22.1,39.77,21.06,59.54c-0.55,10.36,1.25,24.95,3.64,36.77
			c2.17,10.75,4.88,18.88,5.38,25.65c0,0-0.74-4.18,2.46-11.16C508.88,191.54,514.35,178.18,513.95,172.26z"/>
		<path class="st3" d="M551.75,344.97c-11.55-4.68-34.9-30.16-48.3-44.3c-1.49-1.57-2.85-3-4.07-4.25
			c-4.48-4.61-6.91-6.37-9.74-10.38c-1.8,4.7-2.21,7.31-4.56,13.12c-0.29,0.71-1.42,3.28-1.71,3.99c-1.4,3.43-3.82,7.91-5.7,11.55
			c3.53,9.76-0.68,21.72-4.99,28.19c-4.86,7.28-27.05,35.37-39.88,52.71c-8.13,10.99-8.74,19.75-8.1,24.69l1.16,4.44
			c18.38-42.31,53.06-57.57,66.24-62.77c13.18-5.2,14.57-12.48,14.57-12.48c5.9-2.77,46.12,3.47,48.21,3.47
			S564.58,350.17,551.75,344.97z"/>
		<path class="st3" d="M346.44,335.6c-2.67-19.67,2.68-28.76,3.09-29.43c-1.59-1.96-3.19-3.97-4.78-5.99
			c-0.65-0.83-1.3-1.66-1.94-2.49c-2.47,0.75-5.68,2.45-8.41,6.27c-1.91,2.67-3.59,6.38-4.6,11.54
			c-3.81,19.42,3.81,48.21-28.78,77.34c0,0-1.04,7.98,11.1,3.47c10.01-3.72,32.75-27.71,40.41-36.01
			C348.97,354.37,347.96,346.81,346.44,335.6z"/>
		<path class="st4" d="M476.4,311.98c-6.63,12.81-16.01,25.66-26.27,29.17c-12.1,4.14-23.62,5.33-34.01,4.79
			c-24.74-1.28-43.09-12.39-47.49-17.28c-0.16-0.17-0.34-0.37-0.52-0.58c-3.2-3.58-9.03-9.56-16.94-19.34
			c-0.42,0.67-4.36,6.97-1.69,26.64c1.52,11.2,2.99,17.81,6.54,23.73c2.94,4.89,15.11,12.67,23.27,16.44
			c23.54,10.86,37.83,22.13,45.55,45.66c-0.05-0.29-0.1-0.6-0.14-0.93c-0.64-4.94-0.04-13.7,8.1-24.69
			c12.83-17.34,35.03-45.43,39.88-52.71C476.99,336.42,479.93,321.75,476.4,311.98z"/>
		<path class="st4" d="M498.34,213.88c-0.5-6.77-2.8-16.76-4.96-27.51c-2.38-11.82-4.6-24.56-4.05-34.92
			c1.04-19.77-10.75-41.96-21.15-58.26c-10.4-16.3-16.3-9.02-40.23-10.75c-23.93-1.73-84.59,31.43-93.6,39.06
			c-9.02,7.63-16.65,66.59-16.65,66.59l3.75,41.14c0,0-8.26-6.81-11.73-10.28c-2.85-2.85-5.64-1.02-6.09,3.29
			c-0.1,0.94-1.86,2.95-1.92,4.13c-0.35,6.59,16.99,29.13,23.58,44.74c1.62,3.84,4.69,8.85,8.49,14.32
			c7.66,4.85,21.91,13.09,28.14,11.61c8.73-2.08,7.06-26.59,9.56-32.82c2.49-6.23,22.02-15.37,29.09-18.28
			c2.71-1.12,6.16-1.62,9.38-1.82c5.16,0.6,9.73,0.16,9.73,0.16s5.4,7.06,12.05,8.73c6.65,1.66,9.56-7.89,9.56-7.89l11.63-0.83
			c27.01,2.49,23.68,26.59,28.67,29.92c4.24,2.83,11.8-11.49,13.95-15.82c0.37-3.37,0.81-7.48,1.23-11.89
			C497.87,234.81,498.87,221.13,498.34,213.88z"/>
		<path class="st5" d="M481.57,274.17c-4.99-3.32-1.66-27.42-28.67-29.92l-11.63,0.83c0,0-2.91,9.56-9.56,7.89
			c-6.65-1.66-12.05-8.73-12.05-8.73s-4.57,0.45-9.73-0.16c-3.22,0.2-6.67,0.7-9.38,1.82c-7.06,2.91-26.59,12.05-29.09,18.28
			c-2.49,6.23-0.83,30.75-9.56,32.82c-6.22,1.48-20.47-6.76-28.14-11.61c2.73,3.93,5.82,8.11,9.04,12.26
			c0.64,0.83,1.29,1.67,1.94,2.49c1.59,2.03,3.19,4.03,4.78,5.99c7.91,9.77,15.38,18.34,18.58,21.92c0.18,0.21,0.37,0.41,0.52,0.58
			c4.4,4.88,22.74,16,47.49,17.28c10.4,0.54,21.91-0.65,34.01-4.79c10.26-3.51,19.64-16.35,26.27-29.17
			c1.89-3.65,3.55-7.29,4.95-10.71c0.29-0.72,0.58-1.43,0.87-2.13c2.35-5.82,4.48-11.26,6.28-15.96c3.72-9.71,6.04-16.24,6.04-16.24
			s0.43-3.42,1-8.58C493.37,262.68,485.82,277,481.57,274.17z M461.63,290.38c-8.31,9.56-19.53,1.66-27.01-3.32
			c-7.48-4.99-5.42,6.25-14.13,13.71c-2.91,2.49-10.39,3.32-19.11-0.42c-6.97-2.99-17.45-13.3-15.79-24.1
			c1.66-10.8,15.37-13.3,43.21-18.28s29.5,0.42,34.9,4.99c5.4,4.57,7.48,15.79,7.48,15.79S469.94,280.82,461.63,290.38z"/>
		<path class="st4" d="M463.71,262.96c-5.4-4.57-7.06-9.97-34.9-4.99s-41.55,7.48-43.21,18.28c-1.66,10.8,8.82,21.11,15.79,24.1
			c8.73,3.74,16.2,2.91,19.11,0.42c8.7-7.46,6.65-18.7,14.13-13.71c7.48,4.99,18.7,12.88,27.01,3.32
			c8.31-9.56,9.56-11.63,9.56-11.63S469.11,267.53,463.71,262.96z"/>
	</g>
	<g class="st1">
		<path class="st6" d="M717.47,468.2c0,0-24.89-57.47-42.58-100.48c-17.69-43-44.39-41.96-65.55-49.25
			c-21.15-7.28-88.09-10.4-96.41-17.34c-0.78-0.65-2.86-1.19-5.99-1.65c13.4,14.15,36.75,39.62,48.3,44.3
			c12.83,5.2,5.2,7.98,3.12,7.98s-42.31-6.24-48.21-3.47c0,0-1.39,7.28-14.57,12.48c-13.18,5.2-47.86,20.46-66.24,62.77
			c0,0-0.62-1.25-1.02-3.52c-7.72-23.53-33.01-37.64-56.55-48.5c-8.16-3.77-12.83-7.54-15.77-12.43
			c-7.67,8.3-30.4,32.29-40.41,36.01c-12.14,4.51-11.1-3.47-11.1-3.47c32.6-29.13,24.97-57.92,28.78-77.34
			c1.01-5.16,2.69-8.86,4.6-11.54c-2.81,1.64-6.47,3.99-11.19,7.38c-15.95,11.44-99.53,44.39-140.46,72.14
			c-40.92,27.74-33.99,84.97-34.33,86.35L717.47,468.2z"/>
		<path class="st6" d="M500.26,245.29c0.13,0.24,0.2,0.36,0.2,0.36s7.98-26.7,7.63-30.17c-0.16-1.56,0.73-8.31-0.28-15.11
			c-3.2,6.99-5.96,12.33-5.96,12.33C502.37,219.96,501.37,233.64,500.26,245.29z"/>
		<path class="st6" d="M517.45,171.09c-0.69-10.05-10.05-68.95-33.95-77.67c1.86,0.03,3.43-0.91,3.43-4.18
			c0-7.98-15.95-32.95-42.31-42.31c-26.36-9.36-44.39-19.07-66.24-5.9s-53.75,49.59-64.85,54.1c-11.1,4.51-14.91,26.01-19.42,32.25
			c-4.51,6.24-1.73,32.25-1.39,43c0.35,10.75,7.28,35.37,7.63,41.62c0.29,5.3,2.84,8.35,5.09,10c0.45-4.31,1.43-5.91,4.27-3.06
			c3.47,3.47,11.1,9.36,11.1,9.36l-3.12-40.23c0,0,7.63-58.96,16.65-66.59c9.02-7.63,73.18-41.96,97.1-40.23
			c23.93,1.73,29.83-5.55,40.23,10.75c10.4,16.3,22.2,38.5,21.15,58.26c-0.55,10.36,1.67,23.09,4.05,34.92
			c2.17,10.75,4.47,20.74,4.96,27.51c0,0,2.76-5.35,5.96-12.33C512.38,190.37,517.86,177.01,517.45,171.09z"/>
		<path class="st6" d="M555.25,343.8c-11.55-4.68-34.9-30.16-48.3-44.3c-1.49-1.57-2.85-3-4.07-4.25
			c-4.48-4.61-8.07-9.22-10.89-13.24c-1.8,4.7-3.93,10.15-6.28,15.96c-0.29,0.71-0.57,1.42-0.87,2.13
			c-1.4,3.43-3.06,7.07-4.95,10.71c3.53,9.76,0.59,24.43-3.72,30.9c-4.86,7.28-27.05,35.37-39.88,52.71
			c-8.13,10.99-8.74,19.75-8.1,24.69l1.16,4.44c18.38-42.31,53.06-57.57,66.24-62.77c13.18-5.2,14.57-12.48,14.57-12.48
			c5.9-2.77,46.12,3.47,48.21,3.47S568.08,349,555.25,343.8z"/>
		<path class="st6" d="M349.94,334.43c-2.67-19.67,2.68-28.76,3.09-29.43c-1.59-1.96-3.19-3.97-4.78-5.99
			c-0.65-0.83-1.3-1.66-1.94-2.49c-2.47,0.75-5.68,2.45-8.41,6.27c-1.91,2.67-3.59,6.38-4.6,11.54
			c-3.81,19.42,3.81,48.21-28.78,77.34c0,0-1.04,7.98,11.1,3.47c10.01-3.72,32.75-27.71,40.41-36.01
			C352.47,353.2,351.46,345.64,349.94,334.43z"/>
		<path class="st6" d="M479.9,310.81c-6.63,12.81-16.01,25.66-26.27,29.17c-12.1,4.14-23.62,5.33-34.01,4.79
			c-24.74-1.28-43.09-12.39-47.49-17.28c-0.16-0.17-0.34-0.37-0.52-0.58c-3.2-3.58-10.67-12.15-18.58-21.92
			c-0.42,0.67-5.76,9.76-3.09,29.43c1.52,11.2,2.52,18.76,6.08,24.68c2.94,4.89,7.61,8.66,15.77,12.43
			c23.54,10.86,48.83,24.98,56.55,48.5c-0.05-0.29-0.1-0.6-0.14-0.93c-0.64-4.94-0.04-13.7,8.1-24.69
			c12.83-17.34,35.03-45.43,39.88-52.71C480.49,335.25,483.43,320.58,479.9,310.81z"/>
		<path class="st6" d="M333.98,177.44c0,0-2.89,6.87-0.56,11.63"/>
		<g>
			<path class="st7" d="M508.71,172.15c0,0-27.23-2.52-62.02,3.28c0,0-18.15,3.53-33.53,0.25c-15.38-3.28-46.14-2.27-47.4-2.27
				c-1.26,0-26.22-0.76-31.77,4.03l-17.14-3.03c0,0-4.79,4.79-3.53,7.06c1.26,2.27,4.32,2.61,4.32,2.61l15.79,4.99
				c0,0,5.6,0.98,6.87,7.03c1.26,6.05,0.76,17.9,10.34,18.91c9.58,1.01,46.39,5.04,58.24-4.54c0,0,8.34-6.26,9.08-17.65
				c0.32-4.92,8.58-5.86,14.62-4.54c0.78,0.17,1.51,0.43,2.19,0.74c2.41,1.09,4.02,3.41,4.21,6.05c0.33,4.47,0.44,13.69,5.51,17
				c11.6,7.56,44.58,4.02,57.67-1.6c0,0-22.48,4.78-38.54,3.9c-14.73-0.81-20.46-3.64-21.47-8.43c-1.01-4.79-2.27-23.2-2.27-23.2
				s1.26-5.8,10.59-7.06c9.33-1.26,54.21-5.04,56.48-1.51c0.44,0.69,0.53,2.51,0.38,4.97c-0.11,1.76-0.33,3.86-0.63,6.13
				c-1.43,10.75-4.54,25.21-4.54,25.21S512.99,179.46,508.71,172.15z M416.99,185.36c-0.49,4.59-1.5,11.15-3.59,17.55
				c-3.78,11.6-23.45,12.1-23.45,12.1s-35.8,0.76-40.34-4.03c-7.24-7.64-9.08-23.7-7.56-28.49c1.51-4.79,2.52-6.05,32.78-7.56
				c18.26-0.91,30,0.84,36.44,2.37C414.93,178.16,417.39,181.61,416.99,185.36z"/>
			<path class="st7" d="M496.1,179.97l10.59,5.3c0.3-2.27,0.53-4.36,0.63-6.13l-12.99-5.72L496.1,179.97z"/>
		</g>
		<g>
			<path class="st6" d="M501.84,212.71c-0.5-6.77-2.8-16.76-4.96-27.51c-2.38-11.82-4.6-24.56-4.05-34.92
				c1.04-19.77-10.75-41.96-21.15-58.26c-10.4-16.3-16.3-9.02-40.23-10.75c-23.93-1.73-88.09,32.6-97.1,40.23
				c-9.02,7.63-16.65,66.59-16.65,66.59l3.12,40.23c0,0-7.63-5.9-11.1-9.36c-2.85-2.85-3.82-1.25-4.27,3.06
				c-0.1,0.94-0.17,2-0.23,3.18c-0.35,6.59,16.99,29.13,23.58,44.74c1.62,3.84,4.69,8.85,8.49,14.32
				c7.66,4.85,21.91,13.09,28.14,11.61c8.73-2.08,7.06-26.59,9.56-32.82c2.49-6.23,22.02-15.37,29.09-18.28
				c2.71-1.12,6.16-1.62,9.38-1.82c5.16,0.6,9.73,0.16,9.73,0.16s5.4,7.06,12.05,8.73c6.65,1.66,9.56-7.89,9.56-7.89l11.63-0.83
				c27.01,2.49,23.68,26.59,28.67,29.92c4.24,2.83,11.8-11.49,13.95-15.82c0.37-3.37,0.81-7.48,1.23-11.89
				C501.37,233.64,502.37,219.96,501.84,212.71z"/>
			<path class="st6" d="M485.08,273c-4.99-3.32-1.66-27.42-28.67-29.92l-11.63,0.83c0,0-2.91,9.56-9.56,7.89
				c-6.65-1.66-12.05-8.73-12.05-8.73s-4.57,0.45-9.73-0.16c-3.22,0.2-6.67,0.7-9.38,1.82c-7.06,2.91-26.59,12.05-29.09,18.28
				c-2.49,6.23-0.83,30.75-9.56,32.82c-6.22,1.48-20.47-6.76-28.14-11.61c2.73,3.93,5.82,8.11,9.04,12.26
				c0.64,0.83,1.29,1.67,1.94,2.49c1.59,2.03,3.19,4.03,4.78,5.99c7.91,9.77,15.38,18.34,18.58,21.92c0.18,0.21,0.37,0.41,0.52,0.58
				c4.4,4.88,22.74,16,47.49,17.28c10.4,0.54,21.91-0.65,34.01-4.79c10.26-3.51,19.64-16.35,26.27-29.17
				c1.89-3.65,3.55-7.29,4.95-10.71c0.29-0.72,0.58-1.43,0.87-2.13c2.35-5.82,4.48-11.26,6.28-15.96
				c3.72-9.71,6.04-16.24,6.04-16.24s0.43-3.42,1-8.58C496.87,261.51,489.32,275.83,485.08,273z M465.13,289.21
				c-8.31,9.56-19.53,1.66-27.01-3.32c-7.48-4.99-5.42,6.25-14.13,13.71c-2.91,2.49-10.39,3.32-19.11-0.42
				c-6.97-2.99-17.45-13.3-15.79-24.1c1.66-10.8,15.37-13.3,43.21-18.28s29.5,0.42,34.9,4.99c5.4,4.57,7.48,15.79,7.48,15.79
				S473.44,279.65,465.13,289.21z"/>
			<path class="st6" d="M467.21,261.79c-5.4-4.57-7.06-9.97-34.9-4.99s-41.55,7.48-43.21,18.28c-1.66,10.8,8.82,21.11,15.79,24.1
				c8.73,3.74,16.2,2.91,19.11,0.42c8.7-7.46,6.65-18.7,14.13-13.71c7.48,4.99,18.7,12.88,27.01,3.32
				c8.31-9.56,9.56-11.63,9.56-11.63S472.61,266.36,467.21,261.79z"/>
		</g>
		<path class="st6" d="M444.77,243.92c0,0,2.15-3.21,8.21-5.96c5.55-2.52,7.56-3.28,4.54-10.09c-3.03-6.81-5.04-7.56-5.04-7.56"/>
		<path class="st6" d="M399.03,268.97c0,0,49.42,0,62.53-8.32"/>
		<path class="st6" d="M452.73,271.74c0,0-20.9,7.41-41.85,1.01"/>
	</g>
	<path class="st8" d="M413.43,242.93c0,0-10.73,1.51-9.88-11.78"/>
	<path class="st8" d="M291.74,134.84c0,0,2.93-10.27,12.23-16.14c9.29-5.87,28.86-9.29,62.61-37.67s44.02-27.88,44.02-27.88
		c44.02-8.8,52.34,28.37,52.34,28.37s-3.17-15.48-31.31-7.83c0,0-19.57,11.25-26.9,12.23"/>
	<path class="st8" d="M313.53,95.14c0,0,32.51-12.15,47.67-29.27"/>
	<line class="st8" x1="468.32" y1="87.88" x2="483.5" y2="93.42"/>
	<path class="st8" d="M475.82,98.15c0,0,13.04,0.99,18.91,25.44c5.87,24.46,11.13,47.79,9.18,53.66"/>
	<path class="st8" d="M334.34,121.5c0,0-21.57,7.97-25.48,6.01"/>
	<path class="st8" d="M325.98,124.57c0,0-23.97,13.21-25.44,34.24c-1.47,21.03,2.45,25.44,0.49,28.37"/>
	<path class="st8" d="M328.79,269.93c0,0-6.29-32.77-7.98-41.62"/>
	<path class="st8" d="M317.69,188.08c0,0-12.15,24.3-17.34,23.93"/>
	<path class="st8" d="M627.98,477.05c0-4.68-3.64-27.06-8.33-36.42"/>
	<path class="st8" d="M429.36,423.56c0,0-2.23,32.67,1.93,44.64"/>
	<path class="st8" d="M510.17,348.31c0,0,9.75-14.7-18.17-66.3"/>
	<path class="st8" d="M317.34,195.55c0,0,1.41,21.82-7.62,23.4"/>
	<circle class="st9" cx="376.13" cy="182.54" r="3.64"/>
	<circle class="st9" cx="470.84" cy="180.46" r="3.64"/>
</g>
</svg>
